<?xml version="1.0" encoding="UTF-8" standalone="no"?>
<!-- Created with Inkscape (http://www.inkscape.org/) -->

<svg
   xmlns:dc="http://purl.org/dc/elements/1.1/"
   xmlns:cc="http://creativecommons.org/ns#"
   xmlns:rdf="http://www.w3.org/1999/02/22-rdf-syntax-ns#"
   xmlns:svg="http://www.w3.org/2000/svg"
   xmlns="http://www.w3.org/2000/svg"
   xmlns:sodipodi="http://sodipodi.sourceforge.net/DTD/sodipodi-0.dtd"
   xmlns:inkscape="http://www.inkscape.org/namespaces/inkscape"
   id="svg3130"
   version="1.1"
   inkscape:version="0.47 r22583"
   width="673.75"
   height="673.75"
   xml:space="preserve"
   sodipodi:docname="fig_sg_noun_clust.svg"
   inkscape:export-filename="/Users/oreilly/svn_docs/figs/fig_sg_noun_clust.png"
   inkscape:export-xdpi="150"
   inkscape:export-ydpi="150"><metadata
     id="metadata3136"><rdf:RDF><cc:Work
         rdf:about=""><dc:format>image/svg+xml</dc:format><dc:type
           rdf:resource="http://purl.org/dc/dcmitype/StillImage" /><dc:title></dc:title></cc:Work></rdf:RDF></metadata><defs
     id="defs3134"><inkscape:perspective
       sodipodi:type="inkscape:persp3d"
       inkscape:vp_x="0 : 0.5 : 1"
       inkscape:vp_y="0 : 1000 : 0"
       inkscape:vp_z="1 : 0.5 : 1"
       inkscape:persp3d-origin="0.5 : 0.33333333 : 1"
       id="perspective3138" /></defs><sodipodi:namedview
     pagecolor="#ffffff"
     bordercolor="#666666"
     borderopacity="1"
     objecttolerance="10"
     gridtolerance="10"
     guidetolerance="10"
     inkscape:pageopacity="0"
     inkscape:pageshadow="2"
     inkscape:window-width="640"
     inkscape:window-height="480"
     id="namedview3132"
     showgrid="false"
     inkscape:zoom="0.99073662"
     inkscape:cx="314.76776"
     inkscape:cy="318.53054"
     inkscape:current-layer="g3140" /><g
     id="g3140"
     inkscape:groupmode="layer"
     inkscape:label="fig_sg_noun_clust"
     transform="matrix(1.25,0,0,-1.25,0,673.75)"><rect
       style="fill:#ffffff;fill-opacity:1;fill-rule:nonzero;stroke:#ffffff;stroke-width:0.79723287;stroke-miterlimit:4;stroke-opacity:1;stroke-dasharray:none;stroke-dashoffset:0"
       id="rect3762"
       width="579.77344"
       height="550.70416"
       x="-5.6537433"
       y="-541.82043"
       transform="scale(1,-1)" /><g
       id="g3142"
       transform="scale(0.1,0.1)"><g
         id="g3144"
         transform="scale(10,10)"><text
           transform="matrix(1,0,0,-1,191.756,518.976)"
           id="text3146"><tspan
             style="fill:#000000;fill-opacity:1;fill-rule:nonzero;stroke:none;font-family:Times;font-variant:normal;font-weight:bold;font-size:18;writing-mode:lr;-inkscape-font-specification:Times-Bold"
             x="0 10.008 24.012 28.512 41.508 50.508 60.516 70.524 75.024 87.03 97.038 105.03 114.03 124.038 129.042 139.05 148.05"
             y="0"
             sodipodi:role="line"
             id="tspan3148">SG Noun Encodings</tspan></text>
</g><path
         d="m 5286.6,4791.6 0,0"
         style="fill:none;stroke:#000000;stroke-opacity:1;stroke-width:8.4;stroke-linecap:butt;stroke-linejoin:miter;stroke-miterlimit:10;stroke-dasharray:none"
         id="path3150" /><g
         id="g3152"
         transform="scale(10,10)"><text
           transform="matrix(1,0,0,-1,5.4,497.592)"
           id="text3154"><tspan
             style="fill:#000000;fill-opacity:1;fill-rule:nonzero;stroke:none;font-family:Times;font-variant:normal;font-weight:normal;font-size:18;writing-mode:lr;-inkscape-font-specification:Times-Roman"
             x="0"
             y="0"
             id="tspan3156">Y</tspan><tspan
             style="fill:#000000;fill-opacity:1;fill-rule:nonzero;stroke:none;font-family:Times;font-variant:normal;font-weight:normal;font-size:18;writing-mode:lr;-inkscape-font-specification:Times-Roman"
             x="514.764"
             y="474.75"
             id="tspan3158">X</tspan><tspan
             style="fill:#000000;fill-opacity:1;fill-rule:nonzero;stroke:none;font-family:Times;font-variant:normal;font-weight:normal;font-size:18;writing-mode:lr;-inkscape-font-specification:Times-Roman"
             x="37.801 46.801 51.301 60.301"
             y="462.2098"
             sodipodi:role="line"
             id="tspan3160">0.00</tspan><tspan
             style="fill:#000000;fill-opacity:1;fill-rule:nonzero;stroke:none;font-family:Times;font-variant:normal;font-weight:normal;font-size:18;writing-mode:lr;-inkscape-font-specification:Times-Roman"
             x="37.801 46.801 51.301 60.301"
             y="430.8297"
             sodipodi:role="line"
             id="tspan3162">2.00</tspan><tspan
             style="fill:#000000;fill-opacity:1;fill-rule:nonzero;stroke:none;font-family:Times;font-variant:normal;font-weight:normal;font-size:18;writing-mode:lr;-inkscape-font-specification:Times-Roman"
             x="37.801 46.801 51.301 60.301"
             y="399.45"
             sodipodi:role="line"
             id="tspan3164">4.00</tspan><tspan
             style="fill:#000000;fill-opacity:1;fill-rule:nonzero;stroke:none;font-family:Times;font-variant:normal;font-weight:normal;font-size:18;writing-mode:lr;-inkscape-font-specification:Times-Roman"
             x="37.801 46.801 51.301 60.301"
             y="368.0699"
             sodipodi:role="line"
             id="tspan3166">6.00</tspan><tspan
             style="fill:#000000;fill-opacity:1;fill-rule:nonzero;stroke:none;font-family:Times;font-variant:normal;font-weight:normal;font-size:18;writing-mode:lr;-inkscape-font-specification:Times-Roman"
             x="37.801 46.801 51.301 60.301"
             y="336.7496"
             sodipodi:role="line"
             id="tspan3168">8.00</tspan><tspan
             style="fill:#000000;fill-opacity:1;fill-rule:nonzero;stroke:none;font-family:Times;font-variant:normal;font-weight:normal;font-size:18;writing-mode:lr;-inkscape-font-specification:Times-Roman"
             x="28.801 37.801 46.801 51.301 60.301"
             y="305.3699"
             sodipodi:role="line"
             id="tspan3170">10.00</tspan><tspan
             style="fill:#000000;fill-opacity:1;fill-rule:nonzero;stroke:none;font-family:Times;font-variant:normal;font-weight:normal;font-size:18;writing-mode:lr;-inkscape-font-specification:Times-Roman"
             x="28.801 37.801 46.801 51.301 60.301"
             y="273.9898"
             sodipodi:role="line"
             id="tspan3172">12.00</tspan><tspan
             style="fill:#000000;fill-opacity:1;fill-rule:nonzero;stroke:none;font-family:Times;font-variant:normal;font-weight:normal;font-size:18;writing-mode:lr;-inkscape-font-specification:Times-Roman"
             x="28.801 37.801 46.801 51.301 60.301"
             y="242.6097"
             sodipodi:role="line"
             id="tspan3174">14.00</tspan><tspan
             style="fill:#000000;fill-opacity:1;fill-rule:nonzero;stroke:none;font-family:Times;font-variant:normal;font-weight:normal;font-size:18;writing-mode:lr;-inkscape-font-specification:Times-Roman"
             x="28.801 37.801 46.801 51.301 60.301"
             y="211.2898"
             sodipodi:role="line"
             id="tspan3176">16.00</tspan><tspan
             style="fill:#000000;fill-opacity:1;fill-rule:nonzero;stroke:none;font-family:Times;font-variant:normal;font-weight:normal;font-size:18;writing-mode:lr;-inkscape-font-specification:Times-Roman"
             x="28.801 37.801 46.801 51.301 60.301"
             y="179.9097"
             sodipodi:role="line"
             id="tspan3178">18.00</tspan><tspan
             style="fill:#000000;fill-opacity:1;fill-rule:nonzero;stroke:none;font-family:Times;font-variant:normal;font-weight:normal;font-size:18;writing-mode:lr;-inkscape-font-specification:Times-Roman"
             x="28.801 37.801 46.801 51.301 60.301"
             y="148.5296"
             sodipodi:role="line"
             id="tspan3180">20.00</tspan><tspan
             style="fill:#000000;fill-opacity:1;fill-rule:nonzero;stroke:none;font-family:Times;font-variant:normal;font-weight:normal;font-size:18;writing-mode:lr;-inkscape-font-specification:Times-Roman"
             x="28.801 37.801 46.801 51.301 60.301"
             y="117.1499"
             sodipodi:role="line"
             id="tspan3182">22.00</tspan><tspan
             style="fill:#000000;fill-opacity:1;fill-rule:nonzero;stroke:none;font-family:Times;font-variant:normal;font-weight:normal;font-size:18;writing-mode:lr;-inkscape-font-specification:Times-Roman"
             x="28.801 37.801 46.801 51.301 60.301"
             y="85.7698"
             sodipodi:role="line"
             id="tspan3184">24.00</tspan><tspan
             style="fill:#000000;fill-opacity:1;fill-rule:nonzero;stroke:none;font-family:Times;font-variant:normal;font-weight:normal;font-size:18;writing-mode:lr;-inkscape-font-specification:Times-Roman"
             x="28.801 37.801 46.801 51.301 60.301"
             y="54.4499"
             sodipodi:role="line"
             id="tspan3186">26.00</tspan><tspan
             style="fill:#000000;fill-opacity:1;fill-rule:nonzero;stroke:none;font-family:Times;font-variant:normal;font-weight:normal;font-size:18;writing-mode:lr;-inkscape-font-specification:Times-Roman"
             x="79.9498 88.9498 93.4498 102.4498 161.79004 170.79004 179.79004 184.29004 193.29004 248.12992 257.12992 266.12992 270.62992 279.62992 334.41004 343.41004 352.41004 356.91004 365.91004 420.74992 429.74992 438.74992 443.24992 452.24992"
             y="491.9399"
             sodipodi:role="line"
             id="tspan3188">0.0010.0020.0030.0040.00</tspan></text>
</g><path
         d="m 801,413.398 90,0"
         style="fill:none;stroke:#000000;stroke-opacity:1;stroke-width:4.8;stroke-linecap:butt;stroke-linejoin:miter;stroke-miterlimit:10;stroke-dasharray:none"
         id="path3190" /><path
         d="m 5142.6,413.398 90,0"
         style="fill:none;stroke:#000000;stroke-opacity:1;stroke-width:4.8;stroke-linecap:butt;stroke-linejoin:miter;stroke-miterlimit:10;stroke-dasharray:none"
         id="path3192" /><path
         d="m 801,727.199 90,0"
         style="fill:none;stroke:#000000;stroke-opacity:1;stroke-width:1.2;stroke-linecap:butt;stroke-linejoin:miter;stroke-miterlimit:10;stroke-dasharray:none"
         id="path3194" /><path
         d="m 5142.6,727.199 90,0"
         style="fill:none;stroke:#000000;stroke-opacity:1;stroke-width:1.2;stroke-linecap:butt;stroke-linejoin:miter;stroke-miterlimit:10;stroke-dasharray:none"
         id="path3196" /><path
         d="m 801,1041 90,0"
         style="fill:none;stroke:#000000;stroke-opacity:1;stroke-width:1.2;stroke-linecap:butt;stroke-linejoin:miter;stroke-miterlimit:10;stroke-dasharray:none"
         id="path3198" /><path
         d="m 5142.6,1041 90,0"
         style="fill:none;stroke:#000000;stroke-opacity:1;stroke-width:1.2;stroke-linecap:butt;stroke-linejoin:miter;stroke-miterlimit:10;stroke-dasharray:none"
         id="path3200" /><path
         d="m 801,1354.8 90,0"
         style="fill:none;stroke:#000000;stroke-opacity:1;stroke-width:1.2;stroke-linecap:butt;stroke-linejoin:miter;stroke-miterlimit:10;stroke-dasharray:none"
         id="path3202" /><path
         d="m 5142.6,1354.8 90,0"
         style="fill:none;stroke:#000000;stroke-opacity:1;stroke-width:1.2;stroke-linecap:butt;stroke-linejoin:miter;stroke-miterlimit:10;stroke-dasharray:none"
         id="path3204" /><path
         d="m 801,1668 90,0"
         style="fill:none;stroke:#000000;stroke-opacity:1;stroke-width:1.2;stroke-linecap:butt;stroke-linejoin:miter;stroke-miterlimit:10;stroke-dasharray:none"
         id="path3206" /><path
         d="m 5142.6,1668 90,0"
         style="fill:none;stroke:#000000;stroke-opacity:1;stroke-width:1.2;stroke-linecap:butt;stroke-linejoin:miter;stroke-miterlimit:10;stroke-dasharray:none"
         id="path3208" /><path
         d="m 801,1981.8 90,0"
         style="fill:none;stroke:#000000;stroke-opacity:1;stroke-width:1.2;stroke-linecap:butt;stroke-linejoin:miter;stroke-miterlimit:10;stroke-dasharray:none"
         id="path3210" /><path
         d="m 5142.6,1981.8 90,0"
         style="fill:none;stroke:#000000;stroke-opacity:1;stroke-width:1.2;stroke-linecap:butt;stroke-linejoin:miter;stroke-miterlimit:10;stroke-dasharray:none"
         id="path3212" /><path
         d="m 801,2295.6 90,0"
         style="fill:none;stroke:#000000;stroke-opacity:1;stroke-width:1.2;stroke-linecap:butt;stroke-linejoin:miter;stroke-miterlimit:10;stroke-dasharray:none"
         id="path3214" /><path
         d="m 5142.6,2295.6 90,0"
         style="fill:none;stroke:#000000;stroke-opacity:1;stroke-width:1.2;stroke-linecap:butt;stroke-linejoin:miter;stroke-miterlimit:10;stroke-dasharray:none"
         id="path3216" /><path
         d="m 801,2609.4 90,0"
         style="fill:none;stroke:#000000;stroke-opacity:1;stroke-width:1.2;stroke-linecap:butt;stroke-linejoin:miter;stroke-miterlimit:10;stroke-dasharray:none"
         id="path3218" /><path
         d="m 5142.6,2609.4 90,0"
         style="fill:none;stroke:#000000;stroke-opacity:1;stroke-width:1.2;stroke-linecap:butt;stroke-linejoin:miter;stroke-miterlimit:10;stroke-dasharray:none"
         id="path3220" /><path
         d="m 801,2922.6 90,0"
         style="fill:none;stroke:#000000;stroke-opacity:1;stroke-width:1.2;stroke-linecap:butt;stroke-linejoin:miter;stroke-miterlimit:10;stroke-dasharray:none"
         id="path3222" /><path
         d="m 5142.6,2922.6 90,0"
         style="fill:none;stroke:#000000;stroke-opacity:1;stroke-width:1.2;stroke-linecap:butt;stroke-linejoin:miter;stroke-miterlimit:10;stroke-dasharray:none"
         id="path3224" /><path
         d="m 801,3236.4 90,0"
         style="fill:none;stroke:#000000;stroke-opacity:1;stroke-width:1.2;stroke-linecap:butt;stroke-linejoin:miter;stroke-miterlimit:10;stroke-dasharray:none"
         id="path3226" /><path
         d="m 5142.6,3236.4 90,0"
         style="fill:none;stroke:#000000;stroke-opacity:1;stroke-width:1.2;stroke-linecap:butt;stroke-linejoin:miter;stroke-miterlimit:10;stroke-dasharray:none"
         id="path3228" /><path
         d="m 801,3550.2 90,0"
         style="fill:none;stroke:#000000;stroke-opacity:1;stroke-width:1.2;stroke-linecap:butt;stroke-linejoin:miter;stroke-miterlimit:10;stroke-dasharray:none"
         id="path3230" /><path
         d="m 5142.6,3550.2 90,0"
         style="fill:none;stroke:#000000;stroke-opacity:1;stroke-width:1.2;stroke-linecap:butt;stroke-linejoin:miter;stroke-miterlimit:10;stroke-dasharray:none"
         id="path3232" /><path
         d="m 801,3864 90,0"
         style="fill:none;stroke:#000000;stroke-opacity:1;stroke-width:1.2;stroke-linecap:butt;stroke-linejoin:miter;stroke-miterlimit:10;stroke-dasharray:none"
         id="path3234" /><path
         d="m 5142.6,3864 90,0"
         style="fill:none;stroke:#000000;stroke-opacity:1;stroke-width:1.2;stroke-linecap:butt;stroke-linejoin:miter;stroke-miterlimit:10;stroke-dasharray:none"
         id="path3236" /><path
         d="m 801,4177.8 90,0"
         style="fill:none;stroke:#000000;stroke-opacity:1;stroke-width:1.2;stroke-linecap:butt;stroke-linejoin:miter;stroke-miterlimit:10;stroke-dasharray:none"
         id="path3238" /><path
         d="m 5142.6,4177.8 90,0"
         style="fill:none;stroke:#000000;stroke-opacity:1;stroke-width:1.2;stroke-linecap:butt;stroke-linejoin:miter;stroke-miterlimit:10;stroke-dasharray:none"
         id="path3240" /><path
         d="m 801,4491 90,0"
         style="fill:none;stroke:#000000;stroke-opacity:1;stroke-width:1.2;stroke-linecap:butt;stroke-linejoin:miter;stroke-miterlimit:10;stroke-dasharray:none"
         id="path3242" /><path
         d="m 5142.6,4491 90,0"
         style="fill:none;stroke:#000000;stroke-opacity:1;stroke-width:1.2;stroke-linecap:butt;stroke-linejoin:miter;stroke-miterlimit:10;stroke-dasharray:none"
         id="path3244" /><path
         d="m 1011,4773.6 0,-90"
         style="fill:none;stroke:#000000;stroke-opacity:1;stroke-width:4.8;stroke-linecap:butt;stroke-linejoin:miter;stroke-miterlimit:10;stroke-dasharray:none"
         id="path3246" /><path
         d="m 1011,378 0,-90"
         style="fill:none;stroke:#000000;stroke-opacity:1;stroke-width:4.8;stroke-linecap:butt;stroke-linejoin:miter;stroke-miterlimit:10;stroke-dasharray:none"
         id="path3248" /><path
         d="m 1874.4,4773.6 0,-90"
         style="fill:none;stroke:#000000;stroke-opacity:1;stroke-width:1.2;stroke-linecap:butt;stroke-linejoin:miter;stroke-miterlimit:10;stroke-dasharray:none"
         id="path3250" /><path
         d="m 1874.4,378 0,-90"
         style="fill:none;stroke:#000000;stroke-opacity:1;stroke-width:1.2;stroke-linecap:butt;stroke-linejoin:miter;stroke-miterlimit:10;stroke-dasharray:none"
         id="path3252" /><path
         d="m 2737.8,4773.6 0,-90"
         style="fill:none;stroke:#000000;stroke-opacity:1;stroke-width:1.2;stroke-linecap:butt;stroke-linejoin:miter;stroke-miterlimit:10;stroke-dasharray:none"
         id="path3254" /><path
         d="m 2737.8,378 0,-90"
         style="fill:none;stroke:#000000;stroke-opacity:1;stroke-width:1.2;stroke-linecap:butt;stroke-linejoin:miter;stroke-miterlimit:10;stroke-dasharray:none"
         id="path3256" /><path
         d="m 3600.6,4773.6 0,-90"
         style="fill:none;stroke:#000000;stroke-opacity:1;stroke-width:1.2;stroke-linecap:butt;stroke-linejoin:miter;stroke-miterlimit:10;stroke-dasharray:none"
         id="path3258" /><path
         d="m 3600.6,378 0,-90"
         style="fill:none;stroke:#000000;stroke-opacity:1;stroke-width:1.2;stroke-linecap:butt;stroke-linejoin:miter;stroke-miterlimit:10;stroke-dasharray:none"
         id="path3260" /><path
         d="m 4464,4773.6 0,-90"
         style="fill:none;stroke:#000000;stroke-opacity:1;stroke-width:1.2;stroke-linecap:butt;stroke-linejoin:miter;stroke-miterlimit:10;stroke-dasharray:none"
         id="path3262" /><path
         d="m 4464,378 0,-90"
         style="fill:none;stroke:#000000;stroke-opacity:1;stroke-width:1.2;stroke-linecap:butt;stroke-linejoin:miter;stroke-miterlimit:10;stroke-dasharray:none"
         id="path3264" /><g
         id="g3266"
         transform="scale(10,10)"><text
           transform="matrix(1,0,0,-1,203.34,49.452)"
           id="text3268"><tspan
             style="fill:#000000;fill-opacity:1;fill-rule:nonzero;stroke:none;font-family:Times;font-variant:normal;font-weight:normal;font-size:18;writing-mode:lr;-inkscape-font-specification:Times-Roman"
             x="0 5.004 12.996 20.988 28.98 37.98 45.972"
             y="0"
             sodipodi:role="line"
             id="tspan3270">teacher</tspan><tspan
             style="fill:#000000;fill-opacity:1;fill-rule:nonzero;stroke:none;font-family:Times;font-variant:normal;font-weight:normal;font-size:18;writing-mode:lr;-inkscape-font-specification:Times-Roman"
             x="96.4203 105.4203 114.4203 123.4203 128.4243 137.4243 145.4163 150.4203"
             y="-15.6602"
             sodipodi:role="line"
             id="tspan3272">kool_aid</tspan><tspan
             style="fill:#000000;fill-opacity:1;fill-rule:nonzero;stroke:none;font-family:Times;font-variant:normal;font-weight:normal;font-size:18;writing-mode:lr;-inkscape-font-specification:Times-Roman"
             x="96.4203 101.4243 106.4283 115.4283 120.4323 129.4323 138.4323 147.4323 153.4263 162.4263 171.4263"
             y="-31.3801"
             sodipodi:role="line"
             id="tspan3274">living_room</tspan><tspan
             style="fill:#000000;fill-opacity:1;fill-rule:nonzero;stroke:none;font-family:Times;font-variant:normal;font-weight:normal;font-size:18;writing-mode:lr;-inkscape-font-specification:Times-Roman"
             x="96.4203 105.4203 110.4243 115.4283 123.4203 132.4203 140.4123"
             y="-47.0399"
             sodipodi:role="line"
             id="tspan3276">pitcher</tspan><tspan
             style="fill:#000000;fill-opacity:1;fill-rule:nonzero;stroke:none;font-family:Times;font-variant:normal;font-weight:normal;font-size:18;writing-mode:lr;-inkscape-font-specification:Times-Roman"
             x="96.4203 103.4223 112.4223 126.4263 134.4183 139.4223 148.4223 153.4263 162.4263"
             y="-62.7001"
             sodipodi:role="line"
             id="tspan3278">something</tspan><tspan
             style="fill:#000000;fill-opacity:1;fill-rule:nonzero;stroke:none;font-family:Times;font-variant:normal;font-weight:normal;font-size:18;writing-mode:lr;-inkscape-font-specification:Times-Roman"
             x="53.6402 61.6322 70.6322 75.6362 80.6402"
             y="-78.42"
             sodipodi:role="line"
             id="tspan3280">child</tspan><tspan
             style="fill:#000000;fill-opacity:1;fill-rule:nonzero;stroke:none;font-family:Times;font-variant:normal;font-weight:normal;font-size:18;writing-mode:lr;-inkscape-font-specification:Times-Roman"
             x="102.18 111.18 120.18"
             y="-94.0802"
             sodipodi:role="line"
             id="tspan3282">bus</tspan><tspan
             style="fill:#000000;fill-opacity:1;fill-rule:nonzero;stroke:none;font-family:Times;font-variant:normal;font-weight:normal;font-size:18;writing-mode:lr;-inkscape-font-specification:Times-Roman"
             x="148.7999 153.8039 161.7959 169.7879 178.7879 187.7879 192.7919 200.7839"
             y="-109.8001"
             sodipodi:role="line"
             id="tspan3284">iced_tea</tspan><tspan
             style="fill:#000000;fill-opacity:1;fill-rule:nonzero;stroke:none;font-family:Times;font-variant:normal;font-weight:normal;font-size:18;writing-mode:lr;-inkscape-font-specification:Times-Roman"
             x="148.7999 157.7999 165.7919 171.7859"
             y="-125.4603"
             sodipodi:role="line"
             id="tspan3286">park</tspan><tspan
             style="fill:#000000;fill-opacity:1;fill-rule:nonzero;stroke:none;font-family:Times;font-variant:normal;font-weight:normal;font-size:18;writing-mode:lr;-inkscape-font-specification:Times-Roman"
             x="102.8401 107.8441 115.8361 120.8401 125.8441"
             y="-141.1201"
             sodipodi:role="line"
             id="tspan3288">jelly</tspan><tspan
             style="fill:#000000;fill-opacity:1;fill-rule:nonzero;stroke:none;font-family:Times;font-variant:normal;font-weight:normal;font-size:18;writing-mode:lr;-inkscape-font-specification:Times-Roman"
             x="149.0999 158.0999 167.0999 172.1039 178.0979"
             y="-156.84"
             sodipodi:role="line"
             id="tspan3290">knife</tspan><tspan
             style="fill:#000000;fill-opacity:1;fill-rule:nonzero;stroke:none;font-family:Times;font-variant:normal;font-weight:normal;font-size:18;writing-mode:lr;-inkscape-font-specification:Times-Roman"
             x="191.0999 198.1019 203.1059 211.0979 219.0899"
             y="-172.5002"
             sodipodi:role="line"
             id="tspan3292">steak</tspan><tspan
             style="fill:#000000;fill-opacity:1;fill-rule:nonzero;stroke:none;font-family:Times;font-variant:normal;font-weight:normal;font-size:18;writing-mode:lr;-inkscape-font-specification:Times-Roman"
             x="270.78 279.78 288.78"
             y="-188.2201"
             sodipodi:role="line"
             id="tspan3294">dog</tspan><tspan
             style="fill:#000000;fill-opacity:1;fill-rule:nonzero;stroke:none;font-family:Times;font-variant:normal;font-weight:normal;font-size:18;writing-mode:lr;-inkscape-font-specification:Times-Roman"
             x="270.78 277.782 286.782 295.782"
             y="-203.8803"
             sodipodi:role="line"
             id="tspan3296">spot</tspan><tspan
             style="fill:#000000;fill-opacity:1;fill-rule:nonzero;stroke:none;font-family:Times;font-variant:normal;font-weight:normal;font-size:18;writing-mode:lr;-inkscape-font-specification:Times-Roman"
             x="281.4601 287.4541 296.4541 305.4541"
             y="-219.5401"
             sodipodi:role="line"
             id="tspan3298">food</tspan><tspan
             style="fill:#000000;fill-opacity:1;fill-rule:nonzero;stroke:none;font-family:Times;font-variant:normal;font-weight:normal;font-size:18;writing-mode:lr;-inkscape-font-specification:Times-Roman"
             x="299.7601 306.7621 315.7621 324.7621"
             y="-235.2604"
             sodipodi:role="line"
             id="tspan3300">soup</tspan><tspan
             style="fill:#000000;fill-opacity:1;fill-rule:nonzero;stroke:none;font-family:Times;font-variant:normal;font-weight:normal;font-size:18;writing-mode:lr;-inkscape-font-specification:Times-Roman"
             x="299.7601 307.7521 313.7461 321.7381 329.7301 338.7301 346.7221 352.7161"
             y="-250.9202"
             sodipodi:role="line"
             id="tspan3302">crackers</tspan><tspan
             style="fill:#000000;fill-opacity:1;fill-rule:nonzero;stroke:none;font-family:Times;font-variant:normal;font-weight:normal;font-size:18;writing-mode:lr;-inkscape-font-specification:Times-Roman"
             x="268.1999 277.1999 282.2039 290.1959 299.1959 306.1979 311.2019"
             y="-266.6401"
             sodipodi:role="line"
             id="tspan3304">utensil</tspan><tspan
             style="fill:#000000;fill-opacity:1;fill-rule:nonzero;stroke:none;font-family:Times;font-variant:normal;font-weight:normal;font-size:18;writing-mode:lr;-inkscape-font-specification:Times-Roman"
             x="287.7601 293.7541 298.7581 307.7581 316.7581 324.7501"
             y="-282.3003"
             sodipodi:role="line"
             id="tspan3306">finger</tspan><tspan
             style="fill:#000000;fill-opacity:1;fill-rule:nonzero;stroke:none;font-family:Times;font-variant:normal;font-weight:normal;font-size:18;writing-mode:lr;-inkscape-font-specification:Times-Roman"
             x="287.7601 296.7601 301.7641 309.7561 317.7481"
             y="-297.9605"
             sodipodi:role="line"
             id="tspan3308">place</tspan><tspan
             style="fill:#000000;fill-opacity:1;fill-rule:nonzero;stroke:none;font-family:Times;font-variant:normal;font-weight:normal;font-size:18;writing-mode:lr;-inkscape-font-specification:Times-Roman"
             x="150.6001 159.6001 168.6001 175.6021 184.6021 190.5961 195.6001 204.6001 212.5921"
             y="-313.6804"
             sodipodi:role="line"
             id="tspan3310">busdriver</tspan><tspan
             style="fill:#000000;fill-opacity:1;fill-rule:nonzero;stroke:none;font-family:Times;font-variant:normal;font-weight:normal;font-size:18;writing-mode:lr;-inkscape-font-specification:Times-Roman"
             x="196.7403 204.7323 213.7323 222.7323 227.7363"
             y="-329.3402"
             sodipodi:role="line"
             id="tspan3312">adult</tspan><tspan
             style="fill:#000000;fill-opacity:1;fill-rule:nonzero;stroke:none;font-family:Times;font-variant:normal;font-weight:normal;font-size:18;writing-mode:lr;-inkscape-font-specification:Times-Roman"
             x="196.7403 203.7423 211.7343 220.7343 229.7343 238.7343 243.7383 252.7383 257.7423 263.7363"
             y="-345.0605"
             sodipodi:role="line"
             id="tspan3314">schoolgirl</tspan><tspan
             style="fill:#000000;fill-opacity:1;fill-rule:nonzero;stroke:none;font-family:Times;font-variant:normal;font-weight:normal;font-size:18;writing-mode:lr;-inkscape-font-specification:Times-Roman"
             x="154.1403 161.1423 170.1423 184.1463 192.1383 201.1383 210.1383"
             y="-360.7203"
             sodipodi:role="line"
             id="tspan3316">someone</tspan><tspan
             style="fill:#000000;fill-opacity:1;fill-rule:nonzero;stroke:none;font-family:Times;font-variant:normal;font-weight:normal;font-size:18;writing-mode:lr;-inkscape-font-specification:Times-Roman"
             x="202.5602 207.5642 215.5562 223.5482 232.5482 240.5402 246.5342 254.5262 262.5182"
             y="-376.3805"
             sodipodi:role="line"
             id="tspan3318">ice_cream</tspan><tspan
             style="fill:#000000;fill-opacity:1;fill-rule:nonzero;stroke:none;font-family:Times;font-variant:normal;font-weight:normal;font-size:18;writing-mode:lr;-inkscape-font-specification:Times-Roman"
             x="247.5 254.502 263.502 272.502 281.502"
             y="-392.1004"
             sodipodi:role="line"
             id="tspan3320">spoon</tspan><tspan
             style="fill:#000000;fill-opacity:1;fill-rule:nonzero;stroke:none;font-family:Times;font-variant:normal;font-weight:normal;font-size:18;writing-mode:lr;-inkscape-font-specification:Times-Roman"
             x="247.5 256.5 261.504 266.508 274.5 283.5 291.492"
             y="-407.7606"
             sodipodi:role="line"
             id="tspan3322">kitchen</tspan></text>
</g><path
         d="m 1002.6,1460.4 8.4,0 0,-772.201 524.4,0 0,-196.199 498,0 -498,0 0,391.801 498,0 0,-156.602 487.8,0 0,-78.597 476.4,0 -476.4,0 0,157.199 476.4,0 -476.4,0 0,-78.602 -487.8,0 0,313.801 487.8,0 0,-78.602 476.4,0 -476.4,0 0,156.602 476.4,0 -476.4,0 0,-78 -487.8,0 0,-157.199 -498,0 0,-195.602 -524.4,0 0,1544.401 524.4,0 0,-819 521.4,0 0,-137.4 513,0 -513,0 0,274.2 513,0 0,-117.6 485.4,0 -485.4,0 0,235.2 485.4,0 0,-78 466.2,0 -466.2,0 0,156.6 466.2,0 -466.2,0 0,-78.6 -485.4,0 0,-117.6 -513,0 0,-136.8 -521.4,0 0,1638.6 521.4,0 0,-939 514.8,0 0,-210 490.2,0 -490.2,0 0,419.4 490.2,0 0,-262.2 462.6,0 -462.6,0 0,524.4 462.6,0 0,-367.8 420,0 -420,0 0,735.6 420,0 0,-324 386.4,0 0,-176.4 295.2,0 0,-78 115.2,0 -115.2,0 0,156.6 115.2,0 -115.2,0 0,-78.6 -295.2,0 0,352.8 295.2,0 0,-117.6 222,0 -222,0 0,235.2 222,0 0,-78 183,0 -183,0 0,156.6 183,0 -183,0 0,-78.6 -222,0 0,-117.6 -295.2,0 0,-176.4 -386.4,0 0,647.4 386.4,0 0,-117.6 384.6,0 -384.6,0 0,235.2 384.6,0 0,-78.6 195.6,0 -195.6,0 0,156.6 195.6,0 -195.6,0 0,-78 -384.6,0 0,-117.6 -386.4,0 0,-323.4 -420,0 0,-367.8 -462.6,0 0,-262.2 -490.2,0 0,-209.4 -514.8,0 0,1878 514.8,0 0,-244.8 505.2,0 0,-117.6 462.6,0 -462.6,0 0,235.2 462.6,0 0,-78.6 461.4,0 -461.4,0 0,157.2 461.4,0 -461.4,0 0,-78.6 -462.6,0 0,-117.6 -505.2,0 0,490.2 505.2,0 0,-137.4 498,0 -498,0 0,274.2 498,0 0,-117.6 484.2,0 -484.2,0 0,235.2 484.2,0 0,-78 449.4,0 -449.4,0 0,156.6 449.4,0 -449.4,0 0,-78.6 -484.2,0 0,-117.6 -498,0 0,-136.8 -505.2,0 0,-245.4 -514.8,0 0,-939 -521.4,0 0,-819.6 -524.4,0 0,-772.2 -8.4,0"
         style="fill:none;stroke:#000000;stroke-opacity:1;stroke-width:8.4;stroke-linecap:butt;stroke-linejoin:miter;stroke-miterlimit:10;stroke-dasharray:none"
         id="path3324" /></g></g></svg>