<?xml version="1.0" encoding="ISO-8859-1" standalone="yes"?>
<svg width="292.939" height="345.164">
  <defs> 
    <marker id="ArrowEnd" viewBox="0 0 10 10" refX="0" refY="5" 
     markerUnits="strokeWidth" 
     markerWidth="4" 
     markerHeight="3" 
     orient="auto"> 
        <path d="M 0 0 L 10 5 L 0 10 z" /> 
    </marker>
    <marker id="ArrowStart" viewBox="0 0 10 10" refX="10" refY="5" 
     markerUnits="strokeWidth" 
     markerWidth="4" 
     markerHeight="3" 
     orient="auto"> 
        <path d="M 10 0 L 0 5 L 10 10 z" /> 
    </marker> </defs>
<g>
<path style="stroke:#000000; stroke-width:0.10000000000000001; fill:none" d="M 134.876 139.567L 158.063 241.926L 134.876 139.567z"/>
<path style="stroke:none; fill-rule:evenodd; fill:#000000" d="M 142.872 144.364L 129.278 147.559L 134.876 139.563"/>
<path style="stroke:#000000; stroke-width:0.10000000000000001; fill:none" d="M 142.872 144.364L 129.278 147.559L 134.876 139.563L 142.872 144.364z"/>
<path style="stroke:#000000; stroke-width:0.10000000000000001; fill:none" d="M 20.5161 255.524L 101.286 255.524L 81.2941 334.692L 0.524078 334.692L 20.5161 255.524z"/>
<path style="stroke:#000000; stroke-width:0.10000000000000001; fill:none" d="M 110.083 255.524L 190.852 255.524L 170.86 334.692L 90.0911 334.692L 110.083 255.524z"/>
<path style="stroke:#000000; stroke-width:0.10000000000000001; fill:none" d="M 199.649 255.524L 280.419 255.524L 260.427 334.692L 179.657 334.692L 199.649 255.524z"/>
<path style="stroke:#000000; stroke-width:0.10000000000000001; fill:none" d="M 24.5161 241.926L 292.415 241.926L 269.227 334.692L 0.528076 334.692L 24.5161 241.926z"/>
<path style="stroke:none; fill-rule:evenodd; fill:#000000" d="M 6.28607 342.899L 7.28607 342.899L 7.28607 335.301L 6.28607 335.301L 6.28607 342.899z"/>
<path style="stroke:none; fill-rule:evenodd; fill:#000000" d="M 8.88408 337.457L 8.88408 342.899L 9.78207 342.899L 9.78207 339.922C 9.78207 338.821 10.3601 338.102 11.2591 338.102C 11.9421 338.102 12.3801 338.512 12.3801 339.16L 12.3801 342.899L 13.2781 342.899L 13.2781 338.786C 13.2781 337.883 12.5911 337.301 11.5201 337.301C 10.6961 337.301 10.1691 337.61 9.68108 338.371L 9.68108 337.461L 8.88408 337.457z"/>
<path style="stroke:none; fill-rule:evenodd; fill:#000000" d="M 14.4851 345.164L 15.3841 345.164L 15.3841 342.301C 15.8371 342.852 16.3481 343.098 17.0561 343.098C 18.4581 343.098 19.3801 341.973 19.3801 340.25C 19.3801 338.438 18.5051 337.301 17.0871 337.301C 16.3641 337.301 15.7821 337.633 15.3841 338.278L 15.3841 337.457L 14.4851 337.457L 14.4851 345.164zM 16.9031 338.098C 17.8561 338.098 18.4811 338.934 18.4811 340.227C 18.4811 341.457 17.8481 342.293 16.9031 342.293C 15.9891 342.293 15.3881 341.469 15.3881 340.196C 15.3881 338.926 15.9891 338.098 16.9031 338.098z"/>
<path style="stroke:none; fill-rule:evenodd; fill:#000000" d="M 24.7861 342.864L 24.7861 337.5L 23.8881 337.5L 23.8881 340.508C 23.8881 341.59 23.3331 342.297 22.4661 342.297C 21.8091 342.297 21.3911 341.895 21.3911 341.254L 21.3911 337.5L 20.4931 337.5L 20.4931 341.633C 20.4931 342.524 21.1571 343.094 22.2001 343.094C 22.9851 343.094 23.4851 342.821 23.9891 342.114L 23.9891 342.86L 24.7861 342.864z"/>
<path style="stroke:none; fill-rule:evenodd; fill:#000000" d="M 28.1841 337.5L 27.3881 337.5L 27.3881 335.957L 26.4891 335.957L 26.4891 337.5L 25.6921 337.5L 25.6921 338.2L 26.4891 338.2L 26.4891 342.25C 26.4891 342.789 26.8481 343.098 27.5051 343.098C 27.7041 343.098 27.9031 343.078 28.1881 343.032L 28.1881 342.34C 28.0871 342.313 27.9661 342.305 27.8171 342.305C 27.4851 342.305 27.3911 342.207 27.3911 341.832L 27.3911 338.207L 28.1881 338.207L 28.1841 337.5z"/>
<path style="stroke:#000000; stroke-width:0.10000000000000001; fill:none" d="M 24.5161 241.926L 292.415 241.926L 269.227 334.692L 0.528076 334.692L 24.5161 241.926z"/>
<path style="stroke:#000000; stroke-width:0.10000000000000001; fill:none" d="M 20.5161 60.3951L 101.286 60.3951L 81.2941 139.563L 0.524078 139.563L 20.5161 60.3951z"/>
<path style="stroke:none; fill-rule:evenodd; fill:#000000" d="M 25.3521 71.0001L 27.4811 64.6491L 27.4811 71.0001L 28.3801 71.0001L 28.3801 63.4031L 27.0441 63.4031L 24.8521 70.0241L 22.6181 63.4031L 21.2861 63.4031L 21.2861 71.0001L 22.1841 71.0001L 22.1841 64.6491L 24.3331 71.0001L 25.3521 71.0001z"/>
<path style="stroke:none; fill-rule:evenodd; fill:#000000" d="M 32.1221 65.3991C 30.6021 65.3991 29.6841 66.4811 29.6841 68.2971C 29.6841 70.1101 30.5911 71.1961 32.1341 71.1961C 33.6491 71.1961 34.5831 70.1141 34.5831 68.3401C 34.5831 66.4731 33.6841 65.3991 32.1221 65.3991zM 32.1341 66.2001C 33.1021 66.2001 33.6811 66.9931 33.6811 68.3281C 33.6811 69.5941 33.0831 70.3951 32.1341 70.3951C 31.1731 70.3951 30.5871 69.6021 30.5871 68.2971C 30.5871 67.0001 31.1731 66.2001 32.1341 66.2001z"/>
<path style="stroke:none; fill-rule:evenodd; fill:#000000" d="M 35.5831 65.5551L 35.5831 70.9961L 36.4811 70.9961L 36.4811 68.0201C 36.4811 66.9181 37.0591 66.2001 37.9581 66.2001C 38.6411 66.2001 39.0791 66.6101 39.0791 67.2581L 39.0791 70.9961L 39.9771 70.9961L 39.9771 66.8831C 39.9771 65.9811 39.2901 65.3991 38.2201 65.3991C 37.3951 65.3991 36.8681 65.7071 36.3801 66.4691L 36.3801 65.5591L 35.5831 65.5551z"/>
<path style="stroke:none; fill-rule:evenodd; fill:#000000" d="M 42.0831 65.5981L 41.1841 65.5981L 41.1841 70.9961L 42.0831 70.9961L 42.0831 65.5981zM 42.0831 63.3991L 41.1841 63.3991L 41.1841 64.5081L 42.0831 64.5081L 42.0831 63.3991z"/>
<path style="stroke:none; fill-rule:evenodd; fill:#000000" d="M 45.4851 65.5981L 44.6881 65.5981L 44.6881 64.0551L 43.7901 64.0551L 43.7901 65.5981L 42.9931 65.5981L 42.9931 66.2971L 43.7901 66.2971L 43.7901 70.3481C 43.7901 70.8871 44.1491 71.1961 44.8061 71.1961C 45.0051 71.1961 45.2041 71.1761 45.4891 71.1291L 45.4891 70.4381C 45.3881 70.4101 45.2661 70.4031 45.1181 70.4031C 44.7861 70.4031 44.6921 70.3051 44.6921 69.9301L 44.6921 66.3051L 45.4891 66.3051L 45.4851 65.5981z"/>
<path style="stroke:none; fill-rule:evenodd; fill:#000000" d="M 49.7241 65.3991C 48.2041 65.3991 47.2861 66.4811 47.2861 68.2971C 47.2861 70.1101 48.1921 71.1961 49.7351 71.1961C 51.2511 71.1961 52.1841 70.1141 52.1841 68.3401C 52.1841 66.4731 51.2861 65.3991 49.7241 65.3991zM 49.7351 66.2001C 50.7041 66.2001 51.2821 66.9931 51.2821 68.3281C 51.2821 69.5941 50.6841 70.3951 49.7351 70.3951C 48.7741 70.3951 48.1881 69.6021 48.1881 68.2971C 48.1881 67.0001 48.7741 66.2001 49.7351 66.2001z"/>
<path style="stroke:none; fill-rule:evenodd; fill:#000000" d="M 53.1841 65.5551L 53.1841 70.9961L 54.0831 70.9961L 54.0831 68.1641C 54.0831 67.3831 54.2781 66.8751 54.6921 66.5711C 54.9581 66.3751 55.2161 66.3131 55.8171 66.3011L 55.8171 65.4341C 55.6731 65.4141 55.5981 65.4071 55.4811 65.4071C 54.9151 65.4071 54.4851 65.7391 53.9811 66.5471L 53.9811 65.5631L 53.1841 65.5551z"/>
<path style="stroke:#000000; stroke-width:0.10000000000000001; fill:none" d="M 110.083 60.3951L 190.852 60.3951L 170.86 139.563L 90.0911 139.563L 110.083 60.3951z"/>
<path style="stroke:none; fill-rule:evenodd; fill:#000000" d="M 116.286 65.6451C 116.274 64.1641 115.251 63.3011 113.493 63.3011C 111.821 63.3011 110.786 64.1531 110.786 65.5281C 110.786 66.4531 111.278 67.0361 112.282 67.2971L 114.177 67.7971C 115.138 68.0471 115.579 68.4301 115.579 69.0241C 115.579 69.4261 115.36 69.8441 115.04 70.0751C 114.739 70.2821 114.259 70.3951 113.645 70.3951C 112.825 70.3951 112.263 70.2001 111.895 69.7581C 111.614 69.4261 111.489 69.0591 111.485 68.5861L 110.587 68.5861C 110.595 69.2701 110.731 69.7231 111.036 70.1331C 111.556 70.8281 112.438 71.1961 113.598 71.1961C 114.509 71.1961 115.251 70.9931 115.743 70.6181C 116.255 70.2151 116.579 69.5431 116.579 68.8911C 116.579 67.9611 115.993 67.2781 114.954 67.0001L 113.036 66.4961C 112.114 66.2501 111.778 65.9611 111.778 65.3791C 111.778 64.6141 112.454 64.1061 113.477 64.1061C 114.688 64.1061 115.364 64.6571 115.376 65.6491L 116.286 65.6451z"/>
<path style="stroke:none; fill-rule:evenodd; fill:#000000" d="M 116.985 73.2661L 117.884 73.2661L 117.884 70.4031C 118.337 70.9531 118.848 71.2001 119.556 71.2001C 120.958 71.2001 121.88 70.0751 121.88 68.3521C 121.88 66.5391 121.005 65.4031 119.587 65.4031C 118.864 65.4031 118.282 65.7351 117.884 66.3791L 117.884 65.5591L 116.985 65.5591L 116.985 73.2661zM 119.403 66.2001C 120.356 66.2001 120.981 67.0361 120.981 68.3281C 120.981 69.5591 120.348 70.3951 119.403 70.3951C 118.489 70.3951 117.888 69.5711 117.888 68.2971C 117.888 67.0281 118.489 66.2001 119.403 66.2001z"/>
<path style="stroke:none; fill-rule:evenodd; fill:#000000" d="M 128.184 68.5981C 128.184 67.7621 128.122 67.2581 127.97 66.8481C 127.618 65.9501 126.79 65.4031 125.774 65.4031C 124.263 65.4031 123.29 66.5591 123.29 68.3321C 123.29 70.1061 124.235 71.2001 125.77 71.2001C 127.02 71.2001 127.884 70.5081 128.106 69.3481L 127.231 69.3481C 126.993 70.0391 126.501 70.3991 125.802 70.3991C 125.251 70.3991 124.778 70.1601 124.485 69.7191C 124.278 69.4221 124.204 69.1211 124.192 68.6021L 128.184 68.5981zM 124.224 67.8601C 124.294 66.8521 124.907 66.2001 125.782 66.2001C 126.634 66.2001 127.286 66.9031 127.286 67.7971C 127.286 67.8171 127.286 67.8361 127.278 67.8561L 124.224 67.8601z"/>
<path style="stroke:none; fill-rule:evenodd; fill:#000000" d="M 133.247 70.4931C 133.153 70.5001 133.11 70.5001 133.059 70.5001C 132.755 70.5001 132.587 70.3481 132.587 70.0781L 132.587 66.8871C 132.587 65.9261 131.884 65.4071 130.544 65.4071C 129.759 65.4071 129.102 65.6331 128.739 66.0391C 128.493 66.3171 128.388 66.6291 128.368 67.1681L 129.227 67.1681C 129.298 66.5081 129.688 66.2071 130.489 66.2071C 131.259 66.2071 131.688 66.4931 131.688 67.0081L 131.688 67.2351C 131.688 67.5941 131.474 67.7501 130.786 67.8321C 129.563 67.9851 129.376 68.0281 129.044 68.1601C 128.411 68.4181 128.091 68.9031 128.091 69.6021C 128.091 70.5781 128.778 71.2001 129.891 71.2001C 130.579 71.2001 131.134 70.9731 131.755 70.4421C 131.817 70.9651 132.087 71.2001 132.653 71.2001C 132.829 71.2001 132.966 71.1801 133.247 71.1141L 133.247 70.4931zM 131.684 69.2501C 131.684 69.5281 131.602 69.7001 131.345 69.9301C 130.993 70.2391 130.567 70.3991 130.059 70.3991C 129.388 70.3991 128.993 70.0901 128.993 69.5591C 128.993 69.0081 129.376 68.7311 130.298 68.5981C 131.208 68.4811 131.395 68.4421 131.688 68.3091L 131.684 69.2501z"/>
<path style="stroke:none; fill-rule:evenodd; fill:#000000" d="M 133.985 63.3991L 133.087 63.3991L 133.087 70.9961L 133.985 70.9961L 133.985 68.8791L 134.817 68.0511L 136.638 71.0001L 137.696 71.0001L 135.493 67.4691L 137.368 65.6061L 136.266 65.6061L 133.981 67.8641L 133.985 63.3991z"/>
<path style="stroke:none; fill-rule:evenodd; fill:#000000" d="M 142.583 68.5981C 142.583 67.7621 142.52 67.2581 142.368 66.8481C 142.016 65.9501 141.188 65.4031 140.173 65.4031C 138.661 65.4031 137.688 66.5591 137.688 68.3321C 137.688 70.1061 138.634 71.2001 140.169 71.2001C 141.419 71.2001 142.282 70.5081 142.505 69.3481L 141.63 69.3481C 141.391 70.0391 140.899 70.3991 140.2 70.3991C 139.649 70.3991 139.177 70.1601 138.884 69.7191C 138.677 69.4221 138.602 69.1211 138.591 68.6021L 142.583 68.5981zM 138.626 67.8601C 138.696 66.8521 139.309 66.2001 140.184 66.2001C 141.036 66.2001 141.688 66.9031 141.688 67.7971C 141.688 67.8171 141.688 67.8361 141.681 67.8561L 138.626 67.8601z"/>
<path style="stroke:none; fill-rule:evenodd; fill:#000000" d="M 142.786 65.5551L 142.786 70.9961L 143.684 70.9961L 143.684 68.1641C 143.684 67.3831 143.88 66.8751 144.294 66.5711C 144.559 66.3751 144.817 66.3131 145.419 66.3011L 145.419 65.4341C 145.274 65.4141 145.2 65.4071 145.083 65.4071C 144.516 65.4071 144.087 65.7391 143.583 66.5471L 143.583 65.5631L 142.786 65.5551z"/>
<path style="stroke:none; fill-rule:evenodd; fill:#000000" d="M 149.837 67.0711C 149.829 66.0041 149.122 65.4031 147.868 65.4031C 146.606 65.4031 145.786 66.0511 145.786 67.0511C 145.786 67.8951 146.224 68.2971 147.52 68.6061L 148.333 68.8011C 148.938 68.9461 149.177 69.1601 149.177 69.5511C 149.177 70.0551 148.665 70.3951 147.899 70.3951C 147.431 70.3951 147.032 70.2661 146.809 70.0471C 146.673 69.8991 146.61 69.7461 146.559 69.3791L 145.638 69.3791C 145.677 70.6101 146.388 71.2001 147.821 71.2001C 149.2 71.2001 150.079 70.5321 150.079 69.4891C 150.079 68.6881 149.622 68.2431 148.532 67.9851L 147.696 67.7891C 146.985 67.6251 146.684 67.3991 146.684 67.0201C 146.684 66.5281 147.13 66.2071 147.833 66.2071C 148.524 66.2071 148.899 66.5081 148.919 67.0751L 149.837 67.0711z"/>
<path style="stroke:#000000; stroke-width:0.10000000000000001; fill:none" d="M 199.649 60.3951L 280.419 60.3951L 260.427 139.563L 179.657 139.563L 199.649 60.3951z"/>
<path style="stroke:none; fill-rule:evenodd; fill:#000000" d="M 201.485 68.3481L 202.716 67.1141L 205.38 71.0001L 206.52 71.0001L 203.411 66.5001L 206.489 63.4071L 205.247 63.4071L 201.485 67.2621L 201.485 63.4071L 200.485 63.4071L 200.485 71.0041L 201.485 71.0041L 201.485 68.3481z"/>
<path style="stroke:none; fill-rule:evenodd; fill:#000000" d="M 211.384 68.5981C 211.384 67.7621 211.321 67.2581 211.169 66.8481C 210.817 65.9501 209.989 65.4031 208.974 65.4031C 207.462 65.4031 206.489 66.5591 206.489 68.3321C 206.489 70.1061 207.434 71.2001 208.97 71.2001C 210.22 71.2001 211.083 70.5081 211.306 69.3481L 210.431 69.3481C 210.192 70.0391 209.7 70.3991 209.001 70.3991C 208.45 70.3991 207.977 70.1601 207.684 69.7191C 207.477 69.4221 207.403 69.1211 207.391 68.6021L 211.384 68.5981zM 207.427 67.8601C 207.497 66.8521 208.11 66.2001 208.985 66.2001C 209.837 66.2001 210.489 66.9031 210.489 67.7971C 210.489 67.8171 210.489 67.8361 210.481 67.8561L 207.427 67.8601z"/>
<path style="stroke:none; fill-rule:evenodd; fill:#000000" d="M 214.919 65.5981L 213.415 69.7891L 212.024 65.5981L 211.102 65.5981L 212.942 71.0941L 212.61 71.9611C 212.477 72.3481 212.282 72.4931 211.915 72.4931C 211.79 72.4931 211.645 72.4461 211.462 72.3481L 211.462 73.1571C 211.638 73.2501 211.813 73.2931 212.04 73.2931C 212.317 73.2931 212.618 73.2031 212.848 73.0361C 213.118 72.8401 213.274 72.6141 213.438 72.1761L 215.86 65.5981L 214.919 65.5981z"/>
<path style="stroke:none; fill-rule:evenodd; fill:#000000" d="M 216.286 63.3991L 216.286 70.9961L 217.083 70.9961L 217.083 70.3011C 217.485 70.9071 218.024 71.1961 218.766 71.1961C 220.165 71.1961 221.079 70.0321 221.079 68.2351C 221.079 66.4811 220.188 65.3991 218.759 65.3991C 218.016 65.3991 217.485 65.6761 217.083 66.2891L 217.083 63.3991L 216.286 63.3991zM 218.626 66.2071C 219.591 66.2071 220.216 67.0471 220.216 68.3481C 220.216 69.5821 219.571 70.4261 218.626 70.4261C 217.712 70.4261 217.11 69.5981 217.11 68.3171C 217.11 67.0391 217.712 66.2071 218.626 66.2071z"/>
<path style="stroke:none; fill-rule:evenodd; fill:#000000" d="M 224.923 65.3991C 223.403 65.3991 222.485 66.4811 222.485 68.2971C 222.485 70.1101 223.391 71.1961 224.934 71.1961C 226.45 71.1961 227.384 70.1141 227.384 68.3401C 227.384 66.4731 226.485 65.3991 224.923 65.3991zM 224.934 66.2001C 225.903 66.2001 226.481 66.9931 226.481 68.3281C 226.481 69.5941 225.884 70.3951 224.934 70.3951C 223.974 70.3951 223.388 69.6021 223.388 68.2971C 223.388 67.0001 223.974 66.2001 224.934 66.2001z"/>
<path style="stroke:none; fill-rule:evenodd; fill:#000000" d="M 233.247 70.4931C 233.153 70.5001 233.11 70.5001 233.059 70.5001C 232.755 70.5001 232.587 70.3481 232.587 70.0781L 232.587 66.8871C 232.587 65.9261 231.884 65.4071 230.544 65.4071C 229.759 65.4071 229.102 65.6331 228.739 66.0391C 228.493 66.3171 228.388 66.6291 228.368 67.1681L 229.227 67.1681C 229.298 66.5081 229.688 66.2071 230.489 66.2071C 231.259 66.2071 231.688 66.4931 231.688 67.0081L 231.688 67.2351C 231.688 67.5941 231.474 67.7501 230.786 67.8321C 229.563 67.9851 229.376 68.0281 229.044 68.1601C 228.411 68.4181 228.091 68.9031 228.091 69.6021C 228.091 70.5781 228.778 71.2001 229.891 71.2001C 230.579 71.2001 231.134 70.9731 231.755 70.4421C 231.817 70.9651 232.087 71.2001 232.653 71.2001C 232.829 71.2001 232.966 71.1801 233.247 71.1141L 233.247 70.4931zM 231.684 69.2501C 231.684 69.5281 231.602 69.7001 231.345 69.9301C 230.993 70.2391 230.567 70.3991 230.059 70.3991C 229.388 70.3991 228.993 70.0901 228.993 69.5591C 228.993 69.0081 229.376 68.7311 230.298 68.5981C 231.208 68.4811 231.395 68.4421 231.688 68.3091L 231.684 69.2501z"/>
<path style="stroke:none; fill-rule:evenodd; fill:#000000" d="M 233.184 65.5551L 233.184 70.9961L 234.083 70.9961L 234.083 68.1641C 234.083 67.3831 234.278 66.8751 234.692 66.5711C 234.958 66.3751 235.216 66.3131 235.817 66.3011L 235.817 65.4341C 235.673 65.4141 235.598 65.4071 235.481 65.4071C 234.915 65.4071 234.485 65.7391 233.981 66.5471L 233.981 65.5631L 233.184 65.5551z"/>
<path style="stroke:none; fill-rule:evenodd; fill:#000000" d="M 241.684 63.3991L 240.786 63.3991L 240.786 66.2351C 240.427 65.6881 239.845 65.3991 239.118 65.3991C 237.712 65.3991 236.79 66.5241 236.79 68.2461C 236.79 70.0711 237.692 71.1961 239.153 71.1961C 239.899 71.1961 240.419 70.9301 240.884 70.2821L 240.884 70.9961L 241.681 70.9961L 241.684 63.3991zM 239.259 66.2001C 240.188 66.2001 240.782 67.0241 240.782 68.3171C 240.782 69.5671 240.181 70.3951 239.27 70.3951C 238.317 70.3951 237.684 69.5591 237.684 68.2971C 237.684 67.0361 238.313 66.2001 239.259 66.2001z"/>
<path style="stroke:#000000; stroke-width:0.10000000000000001; fill:none" d="M 24.5161 46.7971L 292.415 46.7971L 269.227 139.563L 0.528076 139.563L 24.5161 46.7971z"/>
<path style="stroke:none; fill-rule:evenodd; fill:#000000" d="M 10.9851 144.301L 10.9851 147.801L 11.9851 147.801L 11.9851 140.203L 10.9851 140.203L 10.9851 143.5L 7.08707 143.5L 7.08707 140.203L 6.08707 140.203L 6.08707 147.801L 7.08707 147.801L 7.08707 144.301L 10.9851 144.301z"/>
<path style="stroke:none; fill-rule:evenodd; fill:#000000" d="M 14.3841 142.399L 13.4851 142.399L 13.4851 147.797L 14.3841 147.797L 14.3841 142.399zM 14.3841 140.2L 13.4851 140.2L 13.4851 141.309L 14.3841 141.309L 14.3841 140.2z"/>
<path style="stroke:none; fill-rule:evenodd; fill:#000000" d="M 20.3841 140.2L 19.4851 140.2L 19.4851 143.036C 19.1261 142.489 18.5441 142.2 17.8171 142.2C 16.4111 142.2 15.4891 143.325 15.4891 145.047C 15.4891 146.871 16.3911 147.996 17.8521 147.996C 18.5981 147.996 19.1181 147.731 19.5831 147.082L 19.5831 147.797L 20.3801 147.797L 20.3841 140.2zM 17.9621 143C 18.8911 143 19.4851 143.825 19.4851 145.118C 19.4851 146.368 18.8841 147.196 17.9741 147.196C 17.0201 147.196 16.3881 146.36 16.3881 145.098C 16.3881 143.836 17.0161 143 17.9621 143z"/>
<path style="stroke:none; fill-rule:evenodd; fill:#000000" d="M 26.0831 140.2L 25.1841 140.2L 25.1841 143.036C 24.8251 142.489 24.2431 142.2 23.5161 142.2C 22.1101 142.2 21.1881 143.325 21.1881 145.047C 21.1881 146.871 22.0911 147.996 23.5521 147.996C 24.2981 147.996 24.8171 147.731 25.2821 147.082L 25.2821 147.797L 26.0791 147.797L 26.0831 140.2zM 23.6611 143C 24.5911 143 25.1841 143.825 25.1841 145.118C 25.1841 146.368 24.5831 147.196 23.6731 147.196C 22.7201 147.196 22.0871 146.36 22.0871 145.098C 22.0871 143.836 22.7161 143 23.6611 143z"/>
<path style="stroke:none; fill-rule:evenodd; fill:#000000" d="M 31.9851 145.399C 31.9851 144.563 31.9231 144.059 31.7701 143.649C 31.4191 142.75 30.5911 142.203 29.5751 142.203C 28.0631 142.203 27.0911 143.36 27.0911 145.133C 27.0911 146.907 28.0361 148 29.5711 148C 30.8211 148 31.6841 147.309 31.9071 146.149L 31.0321 146.149C 30.7941 146.84 30.3021 147.2 29.6021 147.2C 29.0521 147.2 28.5791 146.961 28.2861 146.52C 28.0791 146.223 28.0051 145.922 27.9931 145.403L 31.9851 145.399zM 28.0241 144.66C 28.0951 143.653 28.7081 143 29.5831 143C 30.4341 143 31.0871 143.703 31.0871 144.598C 31.0871 144.618 31.0871 144.637 31.0791 144.657L 28.0241 144.66z"/>
<path style="stroke:none; fill-rule:evenodd; fill:#000000" d="M 33.1841 142.356L 33.1841 147.797L 34.0831 147.797L 34.0831 144.821C 34.0831 143.719 34.6611 143 35.5591 143C 36.2431 143 36.6811 143.41 36.6811 144.059L 36.6811 147.797L 37.5791 147.797L 37.5791 143.684C 37.5791 142.782 36.8911 142.2 35.8211 142.2C 34.9971 142.2 34.4701 142.508 33.9811 143.27L 33.9811 142.36L 33.1841 142.356z"/>
<path style="stroke:#000000; stroke-width:0.10000000000000001; fill:none" d="M 24.5161 46.7971L 292.415 46.7971L 269.227 139.563L 0.528076 139.563L 24.5161 46.7971z"/>
<path style="stroke:#000000; stroke-width:0.10000000000000001; fill:none" d="M 51.6921 139.567L 74.8801 241.926L 51.6921 139.567z"/>
<path style="stroke:none; fill-rule:evenodd; fill:#000000" d="M 59.6881 144.364L 46.0951 147.559L 51.6921 139.563"/>
<path style="stroke:#000000; stroke-width:0.10000000000000001; fill:none" d="M 59.6881 144.364L 46.0951 147.559L 51.6921 139.563L 59.6881 144.364z"/>
<path style="stroke:#000000; stroke-width:0.10000000000000001; fill:none" d="M 222.841 139.567L 246.028 241.926L 222.841 139.567z"/>
<path style="stroke:none; fill-rule:evenodd; fill:#000000" d="M 230.837 144.364L 217.243 147.559L 222.841 139.563"/>
<path style="stroke:#000000; stroke-width:0.10000000000000001; fill:none" d="M 230.837 144.364L 217.243 147.559L 222.841 139.563L 230.837 144.364z"/>
<path style="stroke:none; fill-rule:evenodd; fill:#000000" d="M 182.313 52.1921L 167.919 52.1921L 175.114 59.3871"/>
<path style="stroke:#000000; stroke-width:0.10000000000000001; fill:none" d="M 182.313 52.1921L 167.919 52.1921L 175.114 59.3871L 182.313 52.1921z"/>
<path style="stroke:#000000; stroke-width:0.10000000000000001; fill:none" d="M 175.391 56.8991L 183.04 30.1291L 228.934 30.1291L 222.243 55.9421"/>
<path style="stroke:none; fill-rule:evenodd; fill:#000000" d="M 230.122 52.1921L 215.727 52.1921L 222.923 59.3871"/>
<path style="stroke:#000000; stroke-width:0.10000000000000001; fill:none" d="M 230.122 52.1921L 215.727 52.1921L 222.923 59.3871L 230.122 52.1921z"/>
<path style="stroke:none; fill-rule:evenodd; fill:#000000" d="M 91.4811 52.1921L 77.0871 52.1921L 84.2821 59.3871"/>
<path style="stroke:#000000; stroke-width:0.10000000000000001; fill:none" d="M 91.4811 52.1921L 77.0871 52.1921L 84.2821 59.3871L 91.4811 52.1921z"/>
<path style="stroke:#000000; stroke-width:0.10000000000000001; fill:none" d="M 84.5561 56.8991L 92.2041 30.1291L 138.098 30.1291L 131.407 55.9421"/>
<path style="stroke:none; fill-rule:evenodd; fill:#000000" d="M 139.29 52.1921L 124.895 52.1921L 132.091 59.3871"/>
<path style="stroke:#000000; stroke-width:0.10000000000000001; fill:none" d="M 139.29 52.1921L 124.895 52.1921L 132.091 59.3871L 139.29 52.1921z"/>
<path style="stroke:#000000; stroke-width:0.10000000000000001; fill:none" d="M 58.9191 59.2391L 88.4891 0.524109L 265.919 0.524109L 240.044 57.1411"/>
<path style="stroke:none; fill-rule:evenodd; fill:#000000" d="M 67.5791 52.1921L 53.1841 52.1921L 60.3801 59.3871"/>
<path style="stroke:#000000; stroke-width:0.10000000000000001; fill:none" d="M 67.5791 52.1921L 53.1841 52.1921L 60.3801 59.3871L 67.5791 52.1921z"/>
<path style="stroke:none; fill-rule:evenodd; fill:#000000" d="M 251.161 52.1921L 236.766 52.1921L 243.962 59.3871"/>
<path style="stroke:#000000; stroke-width:0.10000000000000001; fill:none" d="M 251.161 52.1921L 236.766 52.1921L 243.962 59.3871L 251.161 52.1921z"/>
<path style="stroke:none; fill-rule:evenodd; fill:#000000" d="M 201.485 265.348L 202.716 264.114L 205.38 268L 206.52 268L 203.411 263.5L 206.489 260.407L 205.247 260.407L 201.485 264.262L 201.485 260.407L 200.485 260.407L 200.485 268.004L 201.485 268.004L 201.485 265.348z"/>
<path style="stroke:none; fill-rule:evenodd; fill:#000000" d="M 211.384 265.598C 211.384 264.762 211.321 264.258 211.169 263.848C 210.817 262.95 209.989 262.403 208.974 262.403C 207.462 262.403 206.489 263.559 206.489 265.332C 206.489 267.106 207.434 268.2 208.97 268.2C 210.22 268.2 211.083 267.508 211.306 266.348L 210.431 266.348C 210.192 267.039 209.7 267.399 209.001 267.399C 208.45 267.399 207.977 267.16 207.684 266.719C 207.477 266.422 207.403 266.121 207.391 265.602L 211.384 265.598zM 207.427 264.86C 207.497 263.852 208.11 263.2 208.985 263.2C 209.837 263.2 210.489 263.903 210.489 264.797C 210.489 264.817 210.489 264.836 210.481 264.856L 207.427 264.86z"/>
<path style="stroke:none; fill-rule:evenodd; fill:#000000" d="M 214.919 262.598L 213.415 266.789L 212.024 262.598L 211.102 262.598L 212.942 268.094L 212.61 268.961C 212.477 269.348 212.282 269.493 211.915 269.493C 211.79 269.493 211.645 269.446 211.462 269.348L 211.462 270.157C 211.638 270.25 211.813 270.293 212.04 270.293C 212.317 270.293 212.618 270.203 212.848 270.036C 213.118 269.84 213.274 269.614 213.438 269.176L 215.86 262.598L 214.919 262.598z"/>
<path style="stroke:none; fill-rule:evenodd; fill:#000000" d="M 216.286 260.399L 216.286 267.996L 217.083 267.996L 217.083 267.301C 217.485 267.907 218.024 268.196 218.766 268.196C 220.165 268.196 221.079 267.032 221.079 265.235C 221.079 263.481 220.188 262.399 218.759 262.399C 218.016 262.399 217.485 262.676 217.083 263.289L 217.083 260.399L 216.286 260.399zM 218.626 263.207C 219.591 263.207 220.216 264.047 220.216 265.348C 220.216 266.582 219.571 267.426 218.626 267.426C 217.712 267.426 217.11 266.598 217.11 265.317C 217.11 264.039 217.712 263.207 218.626 263.207z"/>
<path style="stroke:none; fill-rule:evenodd; fill:#000000" d="M 224.923 262.399C 223.403 262.399 222.485 263.481 222.485 265.297C 222.485 267.11 223.391 268.196 224.934 268.196C 226.45 268.196 227.384 267.114 227.384 265.34C 227.384 263.473 226.485 262.399 224.923 262.399zM 224.934 263.2C 225.903 263.2 226.481 263.993 226.481 265.328C 226.481 266.594 225.884 267.395 224.934 267.395C 223.974 267.395 223.388 266.602 223.388 265.297C 223.388 264 223.974 263.2 224.934 263.2z"/>
<path style="stroke:none; fill-rule:evenodd; fill:#000000" d="M 233.247 267.493C 233.153 267.5 233.11 267.5 233.059 267.5C 232.755 267.5 232.587 267.348 232.587 267.078L 232.587 263.887C 232.587 262.926 231.884 262.407 230.544 262.407C 229.759 262.407 229.102 262.633 228.739 263.039C 228.493 263.317 228.388 263.629 228.368 264.168L 229.227 264.168C 229.298 263.508 229.688 263.207 230.489 263.207C 231.259 263.207 231.688 263.493 231.688 264.008L 231.688 264.235C 231.688 264.594 231.474 264.75 230.786 264.832C 229.563 264.985 229.376 265.028 229.044 265.16C 228.411 265.418 228.091 265.903 228.091 266.602C 228.091 267.578 228.778 268.2 229.891 268.2C 230.579 268.2 231.134 267.973 231.755 267.442C 231.817 267.965 232.087 268.2 232.653 268.2C 232.829 268.2 232.966 268.18 233.247 268.114L 233.247 267.493zM 231.684 266.25C 231.684 266.528 231.602 266.7 231.345 266.93C 230.993 267.239 230.567 267.399 230.059 267.399C 229.388 267.399 228.993 267.09 228.993 266.559C 228.993 266.008 229.376 265.731 230.298 265.598C 231.208 265.481 231.395 265.442 231.688 265.309L 231.684 266.25z"/>
<path style="stroke:none; fill-rule:evenodd; fill:#000000" d="M 233.184 262.555L 233.184 267.996L 234.083 267.996L 234.083 265.164C 234.083 264.383 234.278 263.875 234.692 263.571C 234.958 263.375 235.216 263.313 235.817 263.301L 235.817 262.434C 235.673 262.414 235.598 262.407 235.481 262.407C 234.915 262.407 234.485 262.739 233.981 263.547L 233.981 262.563L 233.184 262.555z"/>
<path style="stroke:none; fill-rule:evenodd; fill:#000000" d="M 241.684 260.399L 240.786 260.399L 240.786 263.235C 240.427 262.688 239.845 262.399 239.118 262.399C 237.712 262.399 236.79 263.524 236.79 265.246C 236.79 267.071 237.692 268.196 239.153 268.196C 239.899 268.196 240.419 267.93 240.884 267.282L 240.884 267.996L 241.681 267.996L 241.684 260.399zM 239.259 263.2C 240.188 263.2 240.782 264.024 240.782 265.317C 240.782 266.567 240.181 267.395 239.27 267.395C 238.317 267.395 237.684 266.559 237.684 265.297C 237.684 264.036 238.313 263.2 239.259 263.2z"/>
<path style="stroke:none; fill-rule:evenodd; fill:#000000" d="M 116.286 262.645C 116.274 261.164 115.251 260.301 113.493 260.301C 111.821 260.301 110.786 261.153 110.786 262.528C 110.786 263.453 111.278 264.036 112.282 264.297L 114.177 264.797C 115.138 265.047 115.579 265.43 115.579 266.024C 115.579 266.426 115.36 266.844 115.04 267.075C 114.739 267.282 114.259 267.395 113.645 267.395C 112.825 267.395 112.263 267.2 111.895 266.758C 111.614 266.426 111.489 266.059 111.485 265.586L 110.587 265.586C 110.595 266.27 110.731 266.723 111.036 267.133C 111.556 267.828 112.438 268.196 113.598 268.196C 114.509 268.196 115.251 267.993 115.743 267.618C 116.255 267.215 116.579 266.543 116.579 265.891C 116.579 264.961 115.993 264.278 114.954 264L 113.036 263.496C 112.114 263.25 111.778 262.961 111.778 262.379C 111.778 261.614 112.454 261.106 113.477 261.106C 114.688 261.106 115.364 261.657 115.376 262.649L 116.286 262.645z"/>
<path style="stroke:none; fill-rule:evenodd; fill:#000000" d="M 116.985 270.266L 117.884 270.266L 117.884 267.403C 118.337 267.953 118.848 268.2 119.556 268.2C 120.958 268.2 121.88 267.075 121.88 265.352C 121.88 263.539 121.005 262.403 119.587 262.403C 118.864 262.403 118.282 262.735 117.884 263.379L 117.884 262.559L 116.985 262.559L 116.985 270.266zM 119.403 263.2C 120.356 263.2 120.981 264.036 120.981 265.328C 120.981 266.559 120.348 267.395 119.403 267.395C 118.489 267.395 117.888 266.571 117.888 265.297C 117.888 264.028 118.489 263.2 119.403 263.2z"/>
<path style="stroke:none; fill-rule:evenodd; fill:#000000" d="M 128.184 265.598C 128.184 264.762 128.122 264.258 127.97 263.848C 127.618 262.95 126.79 262.403 125.774 262.403C 124.263 262.403 123.29 263.559 123.29 265.332C 123.29 267.106 124.235 268.2 125.77 268.2C 127.02 268.2 127.884 267.508 128.106 266.348L 127.231 266.348C 126.993 267.039 126.501 267.399 125.802 267.399C 125.251 267.399 124.778 267.16 124.485 266.719C 124.278 266.422 124.204 266.121 124.192 265.602L 128.184 265.598zM 124.224 264.86C 124.294 263.852 124.907 263.2 125.782 263.2C 126.634 263.2 127.286 263.903 127.286 264.797C 127.286 264.817 127.286 264.836 127.278 264.856L 124.224 264.86z"/>
<path style="stroke:none; fill-rule:evenodd; fill:#000000" d="M 133.247 267.493C 133.153 267.5 133.11 267.5 133.059 267.5C 132.755 267.5 132.587 267.348 132.587 267.078L 132.587 263.887C 132.587 262.926 131.884 262.407 130.544 262.407C 129.759 262.407 129.102 262.633 128.739 263.039C 128.493 263.317 128.388 263.629 128.368 264.168L 129.227 264.168C 129.298 263.508 129.688 263.207 130.489 263.207C 131.259 263.207 131.688 263.493 131.688 264.008L 131.688 264.235C 131.688 264.594 131.474 264.75 130.786 264.832C 129.563 264.985 129.376 265.028 129.044 265.16C 128.411 265.418 128.091 265.903 128.091 266.602C 128.091 267.578 128.778 268.2 129.891 268.2C 130.579 268.2 131.134 267.973 131.755 267.442C 131.817 267.965 132.087 268.2 132.653 268.2C 132.829 268.2 132.966 268.18 133.247 268.114L 133.247 267.493zM 131.684 266.25C 131.684 266.528 131.602 266.7 131.345 266.93C 130.993 267.239 130.567 267.399 130.059 267.399C 129.388 267.399 128.993 267.09 128.993 266.559C 128.993 266.008 129.376 265.731 130.298 265.598C 131.208 265.481 131.395 265.442 131.688 265.309L 131.684 266.25z"/>
<path style="stroke:none; fill-rule:evenodd; fill:#000000" d="M 133.985 260.399L 133.087 260.399L 133.087 267.996L 133.985 267.996L 133.985 265.879L 134.817 265.051L 136.638 268L 137.696 268L 135.493 264.469L 137.368 262.606L 136.266 262.606L 133.981 264.864L 133.985 260.399z"/>
<path style="stroke:none; fill-rule:evenodd; fill:#000000" d="M 142.583 265.598C 142.583 264.762 142.52 264.258 142.368 263.848C 142.016 262.95 141.188 262.403 140.173 262.403C 138.661 262.403 137.688 263.559 137.688 265.332C 137.688 267.106 138.634 268.2 140.169 268.2C 141.419 268.2 142.282 267.508 142.505 266.348L 141.63 266.348C 141.391 267.039 140.899 267.399 140.2 267.399C 139.649 267.399 139.177 267.16 138.884 266.719C 138.677 266.422 138.602 266.121 138.591 265.602L 142.583 265.598zM 138.626 264.86C 138.696 263.852 139.309 263.2 140.184 263.2C 141.036 263.2 141.688 263.903 141.688 264.797C 141.688 264.817 141.688 264.836 141.681 264.856L 138.626 264.86z"/>
<path style="stroke:none; fill-rule:evenodd; fill:#000000" d="M 142.786 262.555L 142.786 267.996L 143.684 267.996L 143.684 265.164C 143.684 264.383 143.88 263.875 144.294 263.571C 144.559 263.375 144.817 263.313 145.419 263.301L 145.419 262.434C 145.274 262.414 145.2 262.407 145.083 262.407C 144.516 262.407 144.087 262.739 143.583 263.547L 143.583 262.563L 142.786 262.555z"/>
<path style="stroke:none; fill-rule:evenodd; fill:#000000" d="M 149.837 264.071C 149.829 263.004 149.122 262.403 147.868 262.403C 146.606 262.403 145.786 263.051 145.786 264.051C 145.786 264.895 146.224 265.297 147.52 265.606L 148.333 265.801C 148.938 265.946 149.177 266.16 149.177 266.551C 149.177 267.055 148.665 267.395 147.899 267.395C 147.431 267.395 147.032 267.266 146.809 267.047C 146.673 266.899 146.61 266.746 146.559 266.379L 145.638 266.379C 145.677 267.61 146.388 268.2 147.821 268.2C 149.2 268.2 150.079 267.532 150.079 266.489C 150.079 265.688 149.622 265.243 148.532 264.985L 147.696 264.789C 146.985 264.625 146.684 264.399 146.684 264.02C 146.684 263.528 147.13 263.207 147.833 263.207C 148.524 263.207 148.899 263.508 148.919 264.075L 149.837 264.071z"/>
<path style="stroke:none; fill-rule:evenodd; fill:#000000" d="M 25.3521 268L 27.4811 261.649L 27.4811 268L 28.3801 268L 28.3801 260.403L 27.0441 260.403L 24.8521 267.024L 22.6181 260.403L 21.2861 260.403L 21.2861 268L 22.1841 268L 22.1841 261.649L 24.3331 268L 25.3521 268z"/>
<path style="stroke:none; fill-rule:evenodd; fill:#000000" d="M 32.1221 262.399C 30.6021 262.399 29.6841 263.481 29.6841 265.297C 29.6841 267.11 30.5911 268.196 32.1341 268.196C 33.6491 268.196 34.5831 267.114 34.5831 265.34C 34.5831 263.473 33.6841 262.399 32.1221 262.399zM 32.1341 263.2C 33.1021 263.2 33.6811 263.993 33.6811 265.328C 33.6811 266.594 33.0831 267.395 32.1341 267.395C 31.1731 267.395 30.5871 266.602 30.5871 265.297C 30.5871 264 31.1731 263.2 32.1341 263.2z"/>
<path style="stroke:none; fill-rule:evenodd; fill:#000000" d="M 35.5831 262.555L 35.5831 267.996L 36.4811 267.996L 36.4811 265.02C 36.4811 263.918 37.0591 263.2 37.9581 263.2C 38.6411 263.2 39.0791 263.61 39.0791 264.258L 39.0791 267.996L 39.9771 267.996L 39.9771 263.883C 39.9771 262.981 39.2901 262.399 38.2201 262.399C 37.3951 262.399 36.8681 262.707 36.3801 263.469L 36.3801 262.559L 35.5831 262.555z"/>
<path style="stroke:none; fill-rule:evenodd; fill:#000000" d="M 42.0831 262.598L 41.1841 262.598L 41.1841 267.996L 42.0831 267.996L 42.0831 262.598zM 42.0831 260.399L 41.1841 260.399L 41.1841 261.508L 42.0831 261.508L 42.0831 260.399z"/>
<path style="stroke:none; fill-rule:evenodd; fill:#000000" d="M 45.4851 262.598L 44.6881 262.598L 44.6881 261.055L 43.7901 261.055L 43.7901 262.598L 42.9931 262.598L 42.9931 263.297L 43.7901 263.297L 43.7901 267.348C 43.7901 267.887 44.1491 268.196 44.8061 268.196C 45.0051 268.196 45.2041 268.176 45.4891 268.129L 45.4891 267.438C 45.3881 267.41 45.2661 267.403 45.1181 267.403C 44.7861 267.403 44.6921 267.305 44.6921 266.93L 44.6921 263.305L 45.4891 263.305L 45.4851 262.598z"/>
<path style="stroke:none; fill-rule:evenodd; fill:#000000" d="M 49.7241 262.399C 48.2041 262.399 47.2861 263.481 47.2861 265.297C 47.2861 267.11 48.1921 268.196 49.7351 268.196C 51.2511 268.196 52.1841 267.114 52.1841 265.34C 52.1841 263.473 51.2861 262.399 49.7241 262.399zM 49.7351 263.2C 50.7041 263.2 51.2821 263.993 51.2821 265.328C 51.2821 266.594 50.6841 267.395 49.7351 267.395C 48.7741 267.395 48.1881 266.602 48.1881 265.297C 48.1881 264 48.7741 263.2 49.7351 263.2z"/>
<path style="stroke:none; fill-rule:evenodd; fill:#000000" d="M 53.1841 262.555L 53.1841 267.996L 54.0831 267.996L 54.0831 265.164C 54.0831 264.383 54.2781 263.875 54.6921 263.571C 54.9581 263.375 55.2161 263.313 55.8171 263.301L 55.8171 262.434C 55.6731 262.414 55.5981 262.407 55.4811 262.407C 54.9151 262.407 54.4851 262.739 53.9811 263.547L 53.9811 262.563L 53.1841 262.555z"/>
</g>
</svg>