<?xml version="1.0" encoding="UTF-8" standalone="no"?>
<svg
   xmlns:dc="http://purl.org/dc/elements/1.1/"
   xmlns:cc="http://creativecommons.org/ns#"
   xmlns:rdf="http://www.w3.org/1999/02/22-rdf-syntax-ns#"
   xmlns:svg="http://www.w3.org/2000/svg"
   xmlns="http://www.w3.org/2000/svg"
   xmlns:sodipodi="http://sodipodi.sourceforge.net/DTD/sodipodi-0.dtd"
   xmlns:inkscape="http://www.inkscape.org/namespaces/inkscape"
   version="1.1"
   width="400px"
   height="400px"
   viewBox="0 0 1000.0 1000.0"
   id="svg2"
   inkscape:version="0.91 r13725"
   sodipodi:docname="fig_gardenpath_series_II_lowpass_vs_occlusion.svg">
  <metadata
     id="metadata68">
    <rdf:RDF>
      <cc:Work
         rdf:about="">
        <dc:format>image/svg+xml</dc:format>
        <dc:type
           rdf:resource="http://purl.org/dc/dcmitype/StillImage" />
      </cc:Work>
    </rdf:RDF>
  </metadata>
  <defs
     id="defs66" />
  <sodipodi:namedview
     pagecolor="#ffffff"
     bordercolor="#666666"
     borderopacity="1"
     objecttolerance="10"
     gridtolerance="10"
     guidetolerance="10"
     inkscape:pageopacity="0"
     inkscape:pageshadow="2"
     inkscape:window-width="1872"
     inkscape:window-height="1160"
     id="namedview64"
     showgrid="false"
     inkscape:zoom="3.2"
     inkscape:cx="1.9e+02"
     inkscape:cy="2.1e+02"
     inkscape:window-x="0"
     inkscape:window-y="0"
     inkscape:window-maximized="0"
     inkscape:current-layer="svg2" />
  <path
     stroke="#000000"
     stroke-width="2"
     fill="none"
     d="M 264.0,726.0 L 264.0,172.1 L 817.8,172.1 L 817.8,726.0 L 264.0,726.0 "
     id="path4" />
  <g
     id="g6"
     inkscape:export-xdpi="150"
     inkscape:export-ydpi="150">
    <text
       x="540.9"
       y="800.7"
       font-family="Arial"
       font-size="28.0"
       fill="#000000"
       text-anchor="middle"
       id="text8">
Initial Degradation
</text>
    <text
       x="310.2"
       y="773.0"
       font-family="Arial"
       font-size="28.0"
       fill="#000000"
       text-anchor="middle"
       id="text10">
Severe
</text>
    <text
       x="771.7"
       y="773.0"
       font-family="Arial"
       font-size="28.0"
       fill="#000000"
       text-anchor="middle"
       id="text12">
Minimal
</text>
    <path
       stroke="#000000"
       stroke-width="2"
       fill="none"
       d="M 264.0,726.0 L 817.8,726.0 M 310.2,739.8 L 310.2,712.1 M 771.7,739.8 L 771.7,712.1 "
       id="path14" />
    <path
       stroke="#000000"
       stroke-width="2"
       fill="none"
       d="M 264.0,172.1 L 817.8,172.1 M 310.2,186.0 L 310.2,158.3 M 771.7,186.0 L 771.7,158.3 "
       id="path16" />
    <text
       x="244.6"
       y="737.0"
       font-family="Arial"
       font-size="28.0"
       fill="#000000"
       text-anchor="end"
       id="text18">
10
</text>
    <text
       x="244.6"
       y="667.8"
       font-family="Arial"
       font-size="28.0"
       fill="#000000"
       text-anchor="end"
       id="text20">
20
</text>
    <text
       x="244.6"
       y="598.6"
       font-family="Arial"
       font-size="28.0"
       fill="#000000"
       text-anchor="end"
       id="text22">
30
</text>
    <text
       x="244.6"
       y="529.4"
       font-family="Arial"
       font-size="28.0"
       fill="#000000"
       text-anchor="end"
       id="text24">
40
</text>
    <text
       x="244.6"
       y="460.1"
       font-family="Arial"
       font-size="28.0"
       fill="#000000"
       text-anchor="end"
       id="text26">
50
</text>
    <text
       x="244.6"
       y="390.9"
       font-family="Arial"
       font-size="28.0"
       fill="#000000"
       text-anchor="end"
       id="text28">
60
</text>
    <text
       x="244.6"
       y="321.7"
       font-family="Arial"
       font-size="28.0"
       fill="#000000"
       text-anchor="end"
       id="text30">
70
</text>
    <text
       x="244.6"
       y="252.5"
       font-family="Arial"
       font-size="28.0"
       fill="#000000"
       text-anchor="end"
       id="text32">
80
</text>
    <text
       x="244.6"
       y="183.2"
       font-family="Arial"
       font-size="28.0"
       fill="#000000"
       text-anchor="end"
       id="text34">
90
</text>
    <path
       stroke="#000000"
       stroke-width="2"
       fill="none"
       d="M 264.0,726.0 L 264.0,172.1 M 250.2,726.0 L 277.9,726.0 M 250.2,656.7 L 277.9,656.7 M 250.2,587.5 L 277.9,587.5 M 250.2,518.3 L 277.9,518.3 M 250.2,449.1 L 277.9,449.1 M 250.2,379.8 L 277.9,379.8 M 250.2,310.6 L 277.9,310.6 M 250.2,241.4 L 277.9,241.4 M 250.2,172.1 L 277.9,172.1 "
       id="path36" />
    <path
       stroke="#000000"
       stroke-width="2"
       fill="none"
       d="M 817.8,726.0 L 817.8,172.1 M 804.0,726.0 L 831.7,726.0 M 804.0,656.7 L 831.7,656.7 M 804.0,587.5 L 831.7,587.5 M 804.0,518.3 L 831.7,518.3 M 804.0,449.1 L 831.7,449.1 M 804.0,379.8 L 831.7,379.8 M 804.0,310.6 L 831.7,310.6 M 804.0,241.4 L 831.7,241.4 M 804.0,172.1 L 831.7,172.1 "
       id="path38" />
  </g>
  <g
     transform="translate(0.0,-615.4)"
     id="g40"
     inkscape:export-xdpi="150"
     inkscape:export-ydpi="150">
    <g
       transform="translate(0.0,-0.0)"
       id="g42">
      <path
         stroke="#000000"
         stroke-width="2"
         fill="none"
         d="M 264.0,726.0 L 297.2,726.0 "
         id="path44" />
      <text
         x="302.8"
         y="737.0"
         font-family="Arial"
         font-size="22.4"
         fill="#000000"
         text-anchor="start"
         id="text46">
Low Pass
</text>
    </g>
    <g
       transform="translate(167.8,-0.0)"
       id="g48">
      <path
         stroke="#ff0000"
         stroke-width="2"
         fill="none"
         d="M 264.0,726.0 L 297.2,726.0 "
         id="path50" />
      <text
         x="302.8"
         y="737.0"
         font-family="Arial"
         font-size="22.4"
         fill="#ff0000"
         text-anchor="start"
         id="text52">
Occlusion
</text>
    </g>
  </g>
  <g
     id="g54">
    <path
       stroke="#000000"
       stroke-width="2"
       fill="none"
       d="M 310.2,407.5  L 771.7,310.6 "
       id="path56" />
    <path
       stroke="#000000"
       stroke-width="2"
       fill="none"
       d="M 315.7,407.5 L 315.3,405.4 L 314.1,403.6 L 312.3,402.4 L 310.2,402.0 L 308.0,402.4 L 306.2,403.6 L 305.0,405.4 L 304.6,407.5 L 305.0,409.6 L 306.2,411.4 L 308.0,412.6 L 310.2,413.1 L 312.3,412.6 L 314.1,411.4 L 315.3,409.6 L 315.7,407.5 M 777.2,310.6 L 776.8,308.5 L 775.6,306.7 L 773.8,305.5 L 771.7,305.1 L 769.5,305.5 L 767.7,306.7 L 766.5,308.5 L 766.1,310.6 L 766.5,312.7 L 767.7,314.5 L 769.5,315.7 L 771.7,316.1 L 773.8,315.7 L 775.6,314.5 L 776.8,312.7 L 777.2,310.6 "
       id="path58" />
    <path
       stroke="#ff0000"
       stroke-width="2"
       fill="none"
       d="M 310.2,366.0  L 771.7,331.4 "
       id="path60" />
    <path
       stroke="#ff0000"
       stroke-width="2"
       fill="none"
       d="M 304.6,371.5 L 304.6,360.4 L 315.7,360.4 L 315.7,371.5 L 304.6,371.5 M 766.1,336.9 L 766.1,325.8 L 777.2,325.8 L 777.2,336.9 L 766.1,336.9 "
       id="path62" />
  </g>
</svg>
