<?xml version="1.0" encoding="ISO-8859-1" standalone="yes"?>
<svg width="288.513" height="148.562">
  <defs> 
    <marker id="ArrowEnd" viewBox="0 0 10 10" refX="0" refY="5" 
     markerUnits="strokeWidth" 
     markerWidth="4" 
     markerHeight="3" 
     orient="auto"> 
        <path d="M 0 0 L 10 5 L 0 10 z" /> 
    </marker>
    <marker id="ArrowStart" viewBox="0 0 10 10" refX="10" refY="5" 
     markerUnits="strokeWidth" 
     markerWidth="4" 
     markerHeight="3" 
     orient="auto"> 
        <path d="M 10 0 L 0 5 L 10 10 z" /> 
    </marker> </defs>
<g>
<path style="stroke:none; fill-rule:evenodd; fill:#ffffff" d="M 0.524084 146.895L 287.988 146.895L 287.988 0.524078L 0.524084 0.524078L 0.524084 146.895z"/>
<path style="stroke:#ffffff; stroke-width:0.10000000000000001; fill:none" d="M 0.524084 146.895L 287.988 146.895L 287.988 0.524078L 0.524084 0.524078L 0.524084 146.895z"/>
<path style="stroke:none; fill-rule:evenodd; fill:#000000" d="M 56.5202 41.0671L 58.2507 41.0671L 59.1882 38.8681L 62.2038 38.8681L 63.11 41.0671L 64.8405 41.0671L 61.2819 32.5671L 60.0436 32.5671L 56.5202 41.0671zM 59.7663 37.3641L 60.6725 34.7981L 61.5788 37.3641L 59.7663 37.3641z"/>
<path style="stroke:#000000; stroke-width:1.9133; fill:none" d="M 48.8249 37.3601L 33.5202 37.3601"/>
<path style="stroke:none; fill-rule:evenodd; fill:#000000" d="M 42.1296 33.5321L 42.1296 42.1411L 52.6491 37.3601"/>
<path style="stroke:#000000; stroke-width:0.0; fill:none" d="M 42.1296 33.5321L 42.1296 42.1411L 52.6491 37.3601L 42.1296 33.5321z"/>
<path style="stroke:none; fill-rule:evenodd; fill:#dfdfdf" d="M 250.043 58.4071C 250.043 57.1341 249.406 55.8561 247.973 54.8991C 246.539 53.9461 244.309 53.3051 242.235 53.3051C 240.164 53.3051 238.25 53.9421 236.817 54.8991C 235.383 55.8521 234.426 57.1301 234.426 58.4071C 234.426 59.6801 235.379 60.9581 236.817 61.7551C 238.25 62.5521 240.164 62.8681 242.235 62.8681C 244.305 62.8681 246.539 62.5521 247.973 61.7551C 249.406 60.9581 250.043 59.6841 250.043 58.4071"/>
<path style="stroke:#dfdfdf; stroke-width:0.0; fill:none" d="M 250.043 58.4071C 250.043 57.1341 249.406 55.8561 247.973 54.8991C 246.539 53.9461 244.309 53.3051 242.235 53.3051C 240.164 53.3051 238.25 53.9421 236.817 54.8991C 235.383 55.8521 234.426 57.1301 234.426 58.4071C 234.426 59.6801 235.379 60.9581 236.817 61.7551C 238.25 62.5521 240.164 62.8681 242.235 62.8681C 244.305 62.8681 246.539 62.5521 247.973 61.7551C 249.406 60.9581 250.043 59.6841 250.043 58.4071"/>
<path style="stroke:#000000; stroke-width:1.9133; fill:none" d="M 250.043 58.4071C 250.043 57.1341 249.406 55.8561 247.973 54.8991C 246.539 53.9461 244.309 53.3051 242.235 53.3051C 240.164 53.3051 238.25 53.9421 236.817 54.8991C 235.383 55.8521 234.426 57.1301 234.426 58.4071C 234.426 59.6801 235.379 60.9581 236.817 61.7551C 238.25 62.5521 240.164 62.8681 242.235 62.8681C 244.305 62.8681 246.539 62.5521 247.973 61.7551C 249.406 60.9581 250.043 59.6841 250.043 58.4071"/>
<path style="stroke:none; fill-rule:evenodd; fill:#000000" d="M 264.07 54.5791L 264.07 62.2311L 273.633 58.4071"/>
<path style="stroke:#000000; stroke-width:0.0; fill:none" d="M 264.07 54.5791L 264.07 62.2311L 273.633 58.4071L 264.07 54.5791z"/>
<path style="stroke:#000000; stroke-width:1.9133; fill:none" d="M 270.77 58.4071L 255.465 58.4071"/>
<path style="stroke:none; fill-rule:evenodd; fill:#000000" d="M 283.406 59.7001C 282.715 60.3951 282.117 60.6611 281.297 60.6611C 279.731 60.6611 278.442 59.3641 278.442 57.7981C 278.442 57.1181 278.703 56.3871 279.141 55.8871C 279.656 55.2861 280.395 54.9691 281.258 54.9691C 282.246 54.9691 282.914 55.2821 283.492 56.0161L 285.254 56.0161C 284.926 55.2941 284.625 54.8991 284.059 54.4301C 283.285 53.8091 282.293 53.4691 281.266 53.4691C 278.883 53.4691 276.938 55.4111 276.938 57.7901C 276.938 60.2121 278.906 62.1651 281.371 62.1651C 283.09 62.1651 284.598 61.2231 285.258 59.7041L 283.406 59.7001z"/>
<path style="stroke:none; fill-rule:evenodd; fill:#dfdfdf" d="M 250.043 25.7191C 250.043 24.6061 249.406 23.3291 247.973 22.5321C 246.539 21.7351 244.309 21.4191 242.235 21.4191C 240.164 21.4191 238.25 21.7351 236.817 22.5321C 235.383 23.3291 234.426 24.6021 234.426 25.7191C 234.426 26.8331 235.379 27.7901 236.817 28.5871C 238.25 29.3841 240.164 30.0201 242.235 30.0201C 244.305 30.0201 246.539 29.3841 247.973 28.5871C 249.406 27.7901 250.043 26.8331 250.043 25.7191"/>
<path style="stroke:#dfdfdf; stroke-width:0.0; fill:none" d="M 250.043 25.7191C 250.043 24.6061 249.406 23.3291 247.973 22.5321C 246.539 21.7351 244.309 21.4191 242.235 21.4191C 240.164 21.4191 238.25 21.7351 236.817 22.5321C 235.383 23.3291 234.426 24.6021 234.426 25.7191C 234.426 26.8331 235.379 27.7901 236.817 28.5871C 238.25 29.3841 240.164 30.0201 242.235 30.0201C 244.305 30.0201 246.539 29.3841 247.973 28.5871C 249.406 27.7901 250.043 26.8331 250.043 25.7191"/>
<path style="stroke:#000000; stroke-width:1.9133; fill:none" d="M 250.043 25.7191C 250.043 24.6061 249.406 23.3291 247.973 22.5321C 246.539 21.7351 244.309 21.4191 242.235 21.4191C 240.164 21.4191 238.25 21.7351 236.817 22.5321C 235.383 23.3291 234.426 24.6021 234.426 25.7191C 234.426 26.8331 235.379 27.7901 236.817 28.5871C 238.25 29.3841 240.164 30.0201 242.235 30.0201C 244.305 30.0201 246.539 29.3841 247.973 28.5871C 249.406 27.7901 250.043 26.8331 250.043 25.7191"/>
<path style="stroke:none; fill-rule:evenodd; fill:#000000" d="M 264.07 22.0521L 264.07 30.6611L 273.633 25.8801"/>
<path style="stroke:#000000; stroke-width:0.0; fill:none" d="M 264.07 22.0521L 264.07 30.6611L 273.633 25.8801L 264.07 22.0521z"/>
<path style="stroke:#000000; stroke-width:1.9133; fill:none" d="M 270.77 25.8801L 255.465 25.8801"/>
<path style="stroke:none; fill-rule:evenodd; fill:#000000" d="M 276.617 30.0671L 278.348 30.0671L 279.285 27.8681L 282.301 27.8681L 283.207 30.0671L 284.938 30.0671L 281.379 21.5671L 280.141 21.5671L 276.617 30.0671zM 279.867 26.3641L 280.774 23.7981L 281.68 26.3641L 279.867 26.3641z"/>
<path style="stroke:none; fill-rule:evenodd; fill:#000000" d="M 218.152 25.8801L 222.934 33.5321L 228.672 24.9231"/>
<path style="stroke:#000000; stroke-width:0.0; fill:none" d="M 218.152 25.8801L 222.934 33.5321L 228.672 24.9231L 218.152 25.8801z"/>
<path style="stroke:#000000; stroke-width:1.9133; fill:none" d="M 226.762 25.8801L 204.762 38.3131"/>
<path style="stroke:none; fill-rule:evenodd; fill:#000000" d="M 221.981 49.7981L 218.156 57.4501L 228.676 57.4501"/>
<path style="stroke:#000000; stroke-width:0.0; fill:none" d="M 221.981 49.7981L 218.156 57.4501L 228.676 57.4501L 221.981 49.7981z"/>
<path style="stroke:#000000; stroke-width:1.9133; fill:none" d="M 204.762 45.9691L 226.762 56.4891"/>
<path style="stroke:none; fill-rule:evenodd; fill:#000000" d="M 153.305 35.8021C 152.613 36.4971 152.016 36.7621 151.195 36.7621C 149.629 36.7621 148.34 35.4661 148.34 33.8991C 148.34 33.2191 148.602 32.4891 149.039 31.9891C 149.555 31.3871 150.293 31.0711 151.156 31.0711C 152.145 31.0711 152.813 31.3841 153.391 32.1181L 155.152 32.1181C 154.824 31.3951 154.524 31.0011 153.957 30.5321C 153.184 29.9111 152.192 29.5711 151.164 29.5711C 148.781 29.5711 146.836 31.5121 146.836 33.8911C 146.836 36.3131 148.805 38.2661 151.27 38.2661C 152.988 38.2661 154.496 37.3251 155.156 35.8051L 153.305 35.8021z"/>
<path style="stroke:none; fill-rule:evenodd; fill:#000000" d="M 157.438 44.2661L 158.735 44.2661L 158.735 37.9691L 157.438 37.9691L 157.438 44.2661z"/>
<path style="stroke:none; fill-rule:evenodd; fill:#000000" d="M 161.238 39.3761L 162.356 44.2621L 163.633 44.2621L 164.731 39.3761L 164.731 44.2621L 166.028 44.2621L 166.028 37.9661L 164.086 37.9661L 162.988 42.9811L 161.856 37.9661L 159.934 37.9661L 159.934 44.2621L 161.231 44.2621L 161.238 39.3761z"/>
<path style="stroke:none; fill-rule:evenodd; fill:#000000" d="M 174.063 39.8991C 174.063 39.3211 173.934 38.9341 173.625 38.5871C 173.207 38.1181 172.512 37.8681 171.61 37.8681C 170.11 37.8681 169.242 38.5791 169.242 39.8131C 169.242 40.7941 169.727 41.2741 170.996 41.5161L 171.867 41.6881C 172.723 41.8521 173.039 42.0941 173.039 42.6061C 173.039 43.1341 172.559 43.4581 171.778 43.4581C 170.902 43.4581 170.414 43.0791 170.371 42.3841L 169.117 42.3841C 169.192 43.7271 170.106 44.4581 171.692 44.4581C 173.293 44.4581 174.238 43.6961 174.238 42.4071C 174.238 41.4071 173.746 40.8871 172.594 40.6611L 171.621 40.4731C 170.711 40.2941 170.445 40.1101 170.445 39.6491C 170.445 39.1731 170.867 38.8681 171.535 38.8681C 172.356 38.8681 172.813 39.2271 172.856 39.8991L 174.063 39.8991z"/>
<path style="stroke:none; fill-rule:evenodd; fill:#000000" d="M 179.039 41.3641L 179.039 44.2621L 180.336 44.2621L 180.336 37.9661L 179.039 37.9661L 179.039 40.3641L 176.539 40.3641L 176.539 37.9661L 175.242 37.9661L 175.242 44.2621L 176.539 44.2621L 176.539 41.3641L 179.039 41.3641z"/>
<path style="stroke:none; fill-rule:evenodd; fill:#000000" d="M 184.18 37.8641C 183.297 37.8641 182.567 38.1571 182.028 38.7351C 181.465 39.3371 181.145 40.2191 181.145 41.1611C 181.145 42.0981 181.465 42.9891 182.028 43.5871C 182.574 44.1731 183.285 44.4581 184.188 44.4581C 185.09 44.4581 185.801 44.1761 186.348 43.5871C 186.895 43.0091 187.235 42.0941 187.235 41.2041C 187.235 40.2191 186.914 39.3411 186.348 38.7351C 185.793 38.1411 185.09 37.8641 184.176 37.8641L 184.18 37.8641zM 184.188 38.9661C 185.258 38.9661 185.938 39.8291 185.938 41.2001C 185.938 42.4891 185.235 43.3641 184.188 43.3641C 183.137 43.3641 182.442 42.4891 182.442 41.1651C 182.442 39.8411 183.137 38.9661 184.188 38.9661z"/>
<path style="stroke:none; fill-rule:evenodd; fill:#000000" d="M 193.41 40.1141C 193.367 39.5671 193.258 39.2191 192.992 38.8641C 192.516 38.2231 191.742 37.8681 190.809 37.8681C 189.043 37.8681 187.945 39.1371 187.945 41.1761C 187.945 43.1961 189.031 44.4661 190.774 44.4661C 192.324 44.4661 193.363 43.5631 193.442 42.1221L 192.195 42.1221C 192.121 42.9771 191.617 43.4661 190.82 43.4661C 189.832 43.4661 189.25 42.6371 189.25 41.2351C 189.25 39.8171 189.856 38.9691 190.863 38.9691C 191.305 38.9691 191.672 39.1261 191.914 39.4341C 192.051 39.6061 192.117 39.7741 192.195 40.1181L 193.41 40.1141z"/>
<path style="stroke:none; fill-rule:evenodd; fill:#000000" d="M 195.637 42.1651L 196.285 41.4971L 198.356 44.2661L 199.906 44.2661L 197.117 40.6801L 199.637 37.9691L 198.106 37.9691L 195.637 40.7471L 195.637 37.9691L 194.34 37.9691L 194.34 44.2661L 195.637 44.2661L 195.637 42.1651z"/>
<path style="stroke:#000000; stroke-width:1.9133; fill:none" d="M 133.488 37.3601L 118.184 37.3601"/>
<path style="stroke:none; fill-rule:evenodd; fill:#000000" d="M 126.793 33.5321L 126.793 42.1411L 137.313 37.3601"/>
<path style="stroke:#000000; stroke-width:0.0; fill:none" d="M 126.793 33.5321L 126.793 42.1411L 137.313 37.3601L 126.793 33.5321z"/>
<path style="stroke:none; fill-rule:evenodd; fill:#1f1f1f" d="M 27.6217 37.3601C 27.6217 34.8091 26.985 32.2591 25.7116 30.6651C 24.4382 29.0711 22.5241 28.4341 20.2936 28.4341C 18.0632 28.4341 15.5124 29.0711 13.9186 30.6651C 12.3249 32.2591 11.6882 34.8091 11.6882 37.3601C 11.6882 39.9111 12.3249 42.4621 13.9186 44.0551C 15.5124 45.6491 18.0632 46.2861 20.2936 46.2861C 22.5241 46.2861 24.4382 45.6491 25.7116 44.0551C 26.985 42.4621 27.6217 39.9111 27.6217 37.3601"/>
<path style="stroke:#1f1f1f; stroke-width:0.0; fill:none" d="M 27.6217 37.3601C 27.6217 34.8091 26.985 32.2591 25.7116 30.6651C 24.4382 29.0711 22.5241 28.4341 20.2936 28.4341C 18.0632 28.4341 15.5124 29.0711 13.9186 30.6651C 12.3249 32.2591 11.6882 34.8091 11.6882 37.3601C 11.6882 39.9111 12.3249 42.4621 13.9186 44.0551C 15.5124 45.6491 18.0632 46.2861 20.2936 46.2861C 22.5241 46.2861 24.4382 45.6491 25.7116 44.0551C 26.985 42.4621 27.6217 39.9111 27.6217 37.3601"/>
<path style="stroke:#000000; stroke-width:0.95664899999999997; fill:none" d="M 27.6217 37.3601C 27.6217 34.8091 26.985 32.2591 25.7116 30.6651C 24.4382 29.0711 22.5241 28.4341 20.2936 28.4341C 18.0632 28.4341 15.5124 29.0711 13.9186 30.6651C 12.3249 32.2591 11.6882 34.8091 11.6882 37.3601C 11.6882 39.9111 12.3249 42.4621 13.9186 44.0551C 15.5124 45.6491 18.0632 46.2861 20.2936 46.2861C 22.5241 46.2861 24.4382 45.6491 25.7116 44.0551C 26.985 42.4621 27.6217 39.9111 27.6217 37.3601"/>
<path style="stroke:none; fill-rule:evenodd; fill:#1f1f1f" d="M 112.285 37.3601C 112.285 34.8091 111.649 32.2591 110.375 30.6651C 109.102 29.0711 107.188 28.4341 104.957 28.4341C 102.727 28.4341 100.176 29.0711 98.5825 30.6651C 96.9885 32.2591 96.3525 34.8091 96.3525 37.3601C 96.3525 39.9111 96.9885 42.4621 98.5825 44.0551C 100.176 45.6491 102.727 46.2861 104.957 46.2861C 107.188 46.2861 109.102 45.6491 110.375 44.0551C 111.649 42.4621 112.285 39.9111 112.285 37.3601"/>
<path style="stroke:#1f1f1f; stroke-width:0.0; fill:none" d="M 112.285 37.3601C 112.285 34.8091 111.649 32.2591 110.375 30.6651C 109.102 29.0711 107.188 28.4341 104.957 28.4341C 102.727 28.4341 100.176 29.0711 98.5825 30.6651C 96.9885 32.2591 96.3525 34.8091 96.3525 37.3601C 96.3525 39.9111 96.9885 42.4621 98.5825 44.0551C 100.176 45.6491 102.727 46.2861 104.957 46.2861C 107.188 46.2861 109.102 45.6491 110.375 44.0551C 111.649 42.4621 112.285 39.9111 112.285 37.3601"/>
<path style="stroke:#000000; stroke-width:0.95664899999999997; fill:none" d="M 112.285 37.3601C 112.285 34.8091 111.649 32.2591 110.375 30.6651C 109.102 29.0711 107.188 28.4341 104.957 28.4341C 102.727 28.4341 100.176 29.0711 98.5825 30.6651C 96.9885 32.2591 96.3525 34.8091 96.3525 37.3601C 96.3525 39.9111 96.9885 42.4621 98.5825 44.0551C 100.176 45.6491 102.727 46.2861 104.957 46.2861C 107.188 46.2861 109.102 45.6491 110.375 44.0551C 111.649 42.4621 112.285 39.9111 112.285 37.3601"/>
<path style="stroke:none; fill-rule:evenodd; fill:#000000" d="M 6.43818 9.76607L 8.59438 9.76607C 10.1413 9.76607 11.1335 8.67308 11.1335 6.96907C 11.1335 5.29007 10.1803 4.36807 8.43428 4.36807L 4.73888 4.36807L 4.73888 12.7661L 6.43818 12.7661L 6.43818 9.76607zM 6.43818 8.36407L 6.43818 5.76607L 8.07098 5.76607C 9.00459 5.76607 9.43428 6.18007 9.43428 7.07108C 9.43428 7.95007 9.00459 8.36407 8.07098 8.36407L 6.43818 8.36407z"/>
<path style="stroke:none; fill-rule:evenodd; fill:#000000" d="M 12.2389 6.56708L 12.2389 12.7661L 13.8366 12.7661L 13.8366 9.47708C 13.8366 8.54007 14.3132 8.06708 15.2702 8.06708C 15.4421 8.06708 15.5593 8.07507 15.7819 8.10208L 15.7819 6.46608C 15.6882 6.46608 15.6335 6.46608 15.5866 6.46608C 14.8444 6.46608 14.1882 6.94608 13.8405 7.78207L 13.8405 6.56708L 12.2389 6.56708z"/>
<path style="stroke:none; fill-rule:evenodd; fill:#000000" d="M 21.9538 10.1651C 21.9655 10.0281 21.9655 9.97307 21.9655 9.89107C 21.9655 9.27408 21.8757 8.70407 21.7272 8.26607C 21.3171 7.14508 20.3171 6.46907 19.0671 6.46907C 17.2897 6.46907 16.1999 7.76207 16.1999 9.84807C 16.1999 11.8411 17.278 13.0671 19.0319 13.0671C 20.4186 13.0671 21.5436 12.2621 21.8991 11.0241L 20.3171 11.0241C 20.1257 11.5551 19.6764 11.8681 19.0905 11.8681C 18.6335 11.8681 18.2663 11.6651 18.0358 11.3051C 17.8874 11.0671 17.8327 10.7821 17.8093 10.1691L 21.9538 10.1651zM 17.821 9.06708C 17.9225 8.13408 18.3249 7.66907 19.0358 7.66907C 19.4343 7.66907 19.8014 7.86008 20.0319 8.18007C 20.1803 8.40707 20.2467 8.64508 20.2819 9.06708L 17.821 9.06708z"/>
<path style="stroke:none; fill-rule:evenodd; fill:#000000" d="M 28.3522 10.1651C 28.3639 10.0281 28.3639 9.97307 28.3639 9.89107C 28.3639 9.27408 28.2741 8.70407 28.1257 8.26607C 27.7155 7.14508 26.7155 6.46907 25.4655 6.46907C 23.6882 6.46907 22.5983 7.76207 22.5983 9.84807C 22.5983 11.8411 23.6764 13.0671 25.4303 13.0671C 26.8171 13.0671 27.9421 12.2621 28.2975 11.0241L 26.7155 11.0241C 26.5241 11.5551 26.0749 11.8681 25.4889 11.8681C 25.0319 11.8681 24.6647 11.6651 24.4343 11.3051C 24.2858 11.0671 24.2311 10.7821 24.2077 10.1691L 28.3522 10.1651zM 24.2233 9.06708C 24.3249 8.13408 24.7272 7.66907 25.4382 7.66907C 25.8366 7.66907 26.2038 7.86008 26.4343 8.18007C 26.5827 8.40707 26.6491 8.64508 26.6843 9.06708L 24.2233 9.06708z"/>
<path style="stroke:none; fill-rule:evenodd; fill:#000000" d="M 32.8132 9.64107L 34.8327 6.56708L 32.9069 6.56708L 31.9108 8.43808L 30.903 6.56708L 28.9772 6.56708L 30.9967 9.64107L 28.9343 12.7621L 30.86 12.7621L 31.9147 10.8371L 32.9577 12.7621L 34.8835 12.7621L 32.8132 9.64107z"/>
<path style="stroke:none; fill-rule:evenodd; fill:#000000" d="M 37.4382 6.57108L 35.8405 6.57108L 35.8405 15.2621L 37.4382 15.2621L 37.4382 12.0321C 37.8249 12.7351 38.3757 13.0631 39.153 13.0631C 40.6374 13.0631 41.735 11.6611 41.735 9.77008C 41.735 8.89508 41.485 8.02008 41.0749 7.44608C 40.6647 6.86008 39.8991 6.46907 39.1569 6.46907C 38.3796 6.46907 37.8327 6.80208 37.4421 7.48907L 37.4382 6.57108zM 38.7897 7.86407C 39.5983 7.86407 40.1374 8.63707 40.1374 9.79007C 40.1374 10.8871 39.5788 11.6611 38.7897 11.6611C 37.9889 11.6611 37.4421 10.8991 37.4421 9.77008C 37.4421 8.64107 37.9889 7.86807 38.7897 7.86807L 38.7897 7.86407z"/>
<path style="stroke:none; fill-rule:evenodd; fill:#000000" d="M 45.5749 6.46608C 43.6921 6.46608 42.5397 7.72307 42.5397 9.76207C 42.5397 11.8131 43.6921 13.0591 45.5866 13.0591C 47.4577 13.0591 48.6374 11.8021 48.6374 9.80507C 48.6374 7.69608 47.5085 6.46208 45.5788 6.46208L 45.5749 6.46608zM 45.5866 7.76607C 46.4655 7.76607 47.0358 8.56308 47.0358 9.78607C 47.0358 10.9541 46.4421 11.7621 45.5866 11.7621C 44.7194 11.7621 44.1374 10.9541 44.1374 9.76207C 44.1374 8.57507 44.7155 7.76207 45.5866 7.76207L 45.5866 7.76607z"/>
<path style="stroke:none; fill-rule:evenodd; fill:#000000" d="M 54.9343 8.56308C 54.9108 7.25908 53.9108 6.46608 52.2624 6.46608C 50.7077 6.46608 49.7389 7.25508 49.7389 8.52808C 49.7389 8.93808 49.8639 9.29407 50.0788 9.53607C 50.2936 9.75107 50.4889 9.85608 51.0827 10.0521L 52.9928 10.6451C 53.3913 10.7701 53.528 10.8951 53.528 11.1491C 53.528 11.5281 53.0788 11.7551 52.3249 11.7551C 51.9108 11.7551 51.5749 11.6761 51.3639 11.5401C 51.1921 11.4151 51.1217 11.2901 51.0553 10.9581L 49.4694 10.9581C 49.5124 12.3331 50.5163 13.0591 52.4108 13.0591C 53.2741 13.0591 53.9303 12.8761 54.3913 12.5091C 54.8522 12.1451 55.1296 11.5711 55.1296 10.9621C 55.1296 10.1611 54.7311 9.64508 53.9186 9.40308L 51.8952 8.82108C 51.4499 8.68408 51.3366 8.59407 51.3366 8.34108C 51.3366 7.99707 51.696 7.77008 52.2546 7.77008C 53.0124 7.77008 53.3874 8.03207 53.3991 8.56708L 54.9343 8.56308z"/>
<path style="stroke:none; fill-rule:evenodd; fill:#000000" d="M 61.7389 12.8021L 61.7389 6.57108L 60.1413 6.57108L 60.1413 10.4501C 60.1413 11.1841 59.6335 11.6651 58.8639 11.6651C 58.1843 11.6651 57.8483 11.2981 57.8483 10.5521L 57.8483 6.56708L 56.2507 6.56708L 56.2507 10.9071C 56.2507 12.2781 57.0007 13.0631 58.3053 13.0631C 59.1335 13.0631 59.6921 12.7551 60.1452 12.0591L 60.1452 12.7981L 61.7389 12.8021z"/>
<path style="stroke:none; fill-rule:evenodd; fill:#000000" d="M 63.2389 6.56708L 63.2389 12.7661L 64.8366 12.7661L 64.8366 9.47708C 64.8366 8.54007 65.3132 8.06708 66.2702 8.06708C 66.4421 8.06708 66.5593 8.07507 66.7819 8.10208L 66.7819 6.46608C 66.6882 6.46608 66.6335 6.46608 66.5866 6.46608C 65.8444 6.46608 65.1882 6.94608 64.8405 7.78207L 64.8405 6.56708L 63.2389 6.56708z"/>
<path style="stroke:none; fill-rule:evenodd; fill:#000000" d="M 73.0555 10.1651C 73.0675 10.0281 73.0675 9.97307 73.0675 9.89107C 73.0675 9.27408 72.9775 8.70407 72.8285 8.26607C 72.4185 7.14508 71.4185 6.46907 70.1686 6.46907C 68.3913 6.46907 67.3014 7.76207 67.3014 9.84807C 67.3014 11.8411 68.3796 13.0671 70.1335 13.0671C 71.5205 13.0671 72.6455 12.2621 73.0005 11.0241L 71.4185 11.0241C 71.2272 11.5551 70.778 11.8681 70.1921 11.8681C 69.735 11.8681 69.3678 11.6651 69.1374 11.3051C 68.9889 11.0671 68.9343 10.7821 68.9108 10.1691L 73.0555 10.1651zM 68.9225 9.06708C 69.0241 8.13408 69.4264 7.66907 70.1374 7.66907C 70.5358 7.66907 70.903 7.86008 71.1335 8.18007C 71.2819 8.40707 71.3485 8.64508 71.3835 9.06708L 68.9225 9.06708z"/>
<path style="stroke:none; fill-rule:evenodd; fill:#000000" d="M 116.969 7.23108C 116.91 6.51207 116.762 6.05208 116.406 5.58307C 115.766 4.73508 114.731 4.26607 113.481 4.26607C 111.117 4.26607 109.645 5.95807 109.645 8.67607C 109.645 11.3681 111.102 13.0631 113.434 13.0631C 115.512 13.0631 116.902 11.8441 117.004 9.90707L 115.32 9.90707C 115.219 11.0241 114.539 11.6651 113.465 11.6651C 112.129 11.6651 111.344 10.5791 111.344 8.73907C 111.344 6.88008 112.16 5.76607 113.524 5.76607C 114.121 5.76607 114.617 5.96608 114.942 6.35608C 115.125 6.57907 115.215 6.79007 115.32 7.22708L 116.969 7.23108z"/>
<path style="stroke:none; fill-rule:evenodd; fill:#000000" d="M 120.778 6.46608C 118.895 6.46608 117.742 7.72307 117.742 9.76207C 117.742 11.8131 118.895 13.0591 120.789 13.0591C 122.66 13.0591 123.84 11.8021 123.84 9.80507C 123.84 7.69608 122.711 6.46208 120.781 6.46208L 120.778 6.46608zM 120.785 7.76607C 121.664 7.76607 122.235 8.56308 122.235 9.78607C 122.235 10.9541 121.641 11.7621 120.785 11.7621C 119.918 11.7621 119.336 10.9541 119.336 9.76207C 119.336 8.57507 119.914 7.76207 120.785 7.76207L 120.785 7.76607z"/>
<path style="stroke:none; fill-rule:evenodd; fill:#000000" d="M 125.137 6.56708L 125.137 12.7661L 126.735 12.7661L 126.735 9.07507C 126.735 8.34807 127.266 7.86807 128.07 7.86807C 128.778 7.86807 129.133 8.24307 129.133 8.96907L 129.133 12.7621L 130.731 12.7621L 130.731 8.61008C 130.731 7.24707 129.961 6.46608 128.621 6.46608C 127.774 6.46608 127.199 6.77408 126.735 7.46208L 126.735 6.56708L 125.137 6.56708z"/>
<path style="stroke:none; fill-rule:evenodd; fill:#000000" d="M 136.137 12.8021L 137.735 12.8021L 137.735 4.36807L 136.137 4.36807L 136.137 7.37207C 135.727 6.75508 135.176 6.46907 134.395 6.46907C 132.887 6.46907 131.742 7.89908 131.742 9.77808C 131.742 10.6181 131.996 11.4731 132.418 12.0711C 132.848 12.6691 133.621 13.0591 134.395 13.0591C 135.176 13.0591 135.727 12.7741 136.137 12.1611L 136.137 12.8021zM 134.738 7.86407C 135.578 7.86407 136.137 8.63707 136.137 9.79808C 136.137 10.8991 135.57 11.6611 134.738 11.6611C 133.91 11.6611 133.34 10.8871 133.34 9.77408C 133.34 8.65308 133.906 7.86407 134.738 7.86407z"/>
<path style="stroke:none; fill-rule:evenodd; fill:#000000" d="M 140.84 6.56708L 139.242 6.56708L 139.242 12.7621L 140.84 12.7621L 140.84 6.56708zM 140.84 4.36407L 139.242 4.36407L 139.242 5.76207L 140.84 5.76207L 140.84 4.36407z"/>
<path style="stroke:none; fill-rule:evenodd; fill:#000000" d="M 145.094 6.66507L 144.242 6.66507L 144.242 5.02808L 142.645 5.02808L 142.645 6.66507L 141.809 6.66507L 141.809 7.76207L 142.645 7.76207L 142.645 11.5941C 142.645 12.5751 143.149 13.0591 144.188 13.0591C 144.535 13.0591 144.817 13.0241 145.098 12.9301L 145.098 11.7741C 144.945 11.8291 144.86 11.8601 144.75 11.8601C 144.348 11.8601 144.246 11.7351 144.246 11.1761L 144.246 7.76207L 145.098 7.76207L 145.094 6.66507z"/>
<path style="stroke:none; fill-rule:evenodd; fill:#000000" d="M 147.84 6.56708L 146.242 6.56708L 146.242 12.7621L 147.84 12.7621L 147.84 6.56708zM 147.84 4.36407L 146.242 4.36407L 146.242 5.76207L 147.84 5.76207L 147.84 4.36407z"/>
<path style="stroke:none; fill-rule:evenodd; fill:#000000" d="M 152.074 6.46608C 150.192 6.46608 149.039 7.72307 149.039 9.76207C 149.039 11.8131 150.192 13.0591 152.086 13.0591C 153.957 13.0591 155.137 11.8021 155.137 9.80507C 155.137 7.69608 154.008 6.46208 152.078 6.46208L 152.074 6.46608zM 152.086 7.76607C 152.965 7.76607 153.535 8.56308 153.535 9.78607C 153.535 10.9541 152.942 11.7621 152.086 11.7621C 151.219 11.7621 150.637 10.9541 150.637 9.76207C 150.637 8.57507 151.215 7.76207 152.086 7.76207L 152.086 7.76607z"/>
<path style="stroke:none; fill-rule:evenodd; fill:#000000" d="M 156.34 6.56708L 156.34 12.7661L 157.938 12.7661L 157.938 9.07507C 157.938 8.34807 158.469 7.86807 159.274 7.86807C 159.981 7.86807 160.336 8.24307 160.336 8.96907L 160.336 12.7621L 161.934 12.7621L 161.934 8.61008C 161.934 7.24707 161.164 6.46608 159.824 6.46608C 158.977 6.46608 158.402 6.77408 157.938 7.46208L 157.938 6.56708L 156.34 6.56708z"/>
<path style="stroke:none; fill-rule:evenodd; fill:#000000" d="M 165.039 6.56708L 163.442 6.56708L 163.442 12.7621L 165.039 12.7621L 165.039 6.56708zM 165.039 4.36407L 163.442 4.36407L 163.442 5.76207L 165.039 5.76207L 165.039 4.36407z"/>
<path style="stroke:none; fill-rule:evenodd; fill:#000000" d="M 166.539 6.56708L 166.539 12.7661L 168.137 12.7661L 168.137 9.07507C 168.137 8.34807 168.668 7.86807 169.473 7.86807C 170.18 7.86807 170.535 8.24307 170.535 8.96907L 170.535 12.7621L 172.133 12.7621L 172.133 8.61008C 172.133 7.24707 171.363 6.46608 170.024 6.46608C 169.176 6.46608 168.602 6.77408 168.137 7.46208L 168.137 6.56708L 166.539 6.56708z"/>
<path style="stroke:none; fill-rule:evenodd; fill:#000000" d="M 177.539 6.57108L 177.539 7.52008C 177.059 6.79007 176.528 6.46608 175.817 6.46608C 174.348 6.46608 173.242 7.90707 173.242 9.83307C 173.242 11.7701 174.254 13.0631 175.781 13.0631C 176.504 13.0631 176.942 12.8371 177.539 12.1341L 177.539 12.9811C 177.539 13.7351 176.977 14.2591 176.168 14.2591C 175.559 14.2591 175.156 13.9971 175.028 13.5051L 173.36 13.5051C 173.371 13.9851 173.551 14.3171 173.965 14.6611C 174.457 15.0591 175.145 15.2551 176.094 15.2551C 177.961 15.2551 179.035 14.4191 179.035 12.9621L 179.035 6.56308L 177.539 6.57108zM 176.145 7.86407C 176.945 7.86407 177.543 8.68408 177.543 9.80507C 177.543 10.9071 176.957 11.6571 176.121 11.6571C 175.367 11.6571 174.84 10.9071 174.84 9.80507C 174.84 8.66107 175.367 7.86407 176.145 7.86407z"/>
<path style="stroke:none; fill-rule:evenodd; fill:#000000" d="M 241.637 5.76607L 244.102 5.76607L 244.102 4.36807L 237.399 4.36807L 237.399 5.76607L 239.934 5.76607L 239.934 12.7661L 241.633 12.7661L 241.637 5.76607z"/>
<path style="stroke:none; fill-rule:evenodd; fill:#000000" d="M 250.352 10.1651C 250.363 10.0281 250.363 9.97307 250.363 9.89107C 250.363 9.27408 250.274 8.70407 250.125 8.26607C 249.715 7.14508 248.715 6.46907 247.465 6.46907C 245.688 6.46907 244.598 7.76207 244.598 9.84807C 244.598 11.8411 245.676 13.0671 247.43 13.0671C 248.817 13.0671 249.942 12.2621 250.297 11.0241L 248.715 11.0241C 248.524 11.5551 248.074 11.8681 247.488 11.8681C 247.031 11.8681 246.664 11.6651 246.434 11.3051C 246.285 11.0671 246.231 10.7821 246.207 10.1691L 250.352 10.1651zM 246.223 9.06708C 246.324 8.13408 246.727 7.66907 247.438 7.66907C 247.836 7.66907 248.203 7.86008 248.434 8.18007C 248.582 8.40707 248.649 8.64508 248.684 9.06708L 246.223 9.06708z"/>
<path style="stroke:none; fill-rule:evenodd; fill:#000000" d="M 256.434 8.56308C 256.41 7.25908 255.41 6.46608 253.762 6.46608C 252.207 6.46608 251.238 7.25508 251.238 8.52808C 251.238 8.93808 251.363 9.29407 251.578 9.53607C 251.793 9.75107 251.988 9.85608 252.582 10.0521L 254.492 10.6451C 254.891 10.7701 255.028 10.8951 255.028 11.1491C 255.028 11.5281 254.578 11.7551 253.824 11.7551C 253.41 11.7551 253.074 11.6761 252.863 11.5401C 252.692 11.4151 252.621 11.2901 252.555 10.9581L 250.969 10.9581C 251.012 12.3331 252.016 13.0591 253.91 13.0591C 254.774 13.0591 255.43 12.8761 255.891 12.5091C 256.352 12.1451 256.629 11.5711 256.629 10.9621C 256.629 10.1611 256.231 9.64508 255.418 9.40308L 253.395 8.82108C 252.949 8.68408 252.836 8.59407 252.836 8.34108C 252.836 7.99707 253.195 7.77008 253.754 7.77008C 254.512 7.77008 254.887 8.03207 254.899 8.56708L 256.434 8.56308z"/>
<path style="stroke:none; fill-rule:evenodd; fill:#000000" d="M 260.492 6.66507L 259.641 6.66507L 259.641 5.02808L 258.043 5.02808L 258.043 6.66507L 257.207 6.66507L 257.207 7.76207L 258.043 7.76207L 258.043 11.5941C 258.043 12.5751 258.547 13.0591 259.586 13.0591C 259.934 13.0591 260.215 13.0241 260.496 12.9301L 260.496 11.7741C 260.344 11.8291 260.258 11.8601 260.149 11.8601C 259.746 11.8601 259.645 11.7351 259.645 11.1761L 259.645 7.76207L 260.496 7.76207L 260.492 6.66507z"/>
<path style="stroke:none; fill-rule:evenodd; fill:#000000" d="M 77.0395 130.466L 71.4425 130.466L 71.4425 131.262L 77.0395 131.262L 77.0395 130.466zM 77.0395 132.466L 71.4425 132.466L 71.4425 133.262L 77.0395 133.262L 77.0395 132.466z"/>
<path style="stroke:none; fill-rule:evenodd; fill:#000000" d="M 81.3405 126.165L 81.3405 134.563L 82.2385 134.563L 82.2385 133.798C 82.6925 134.52 83.2975 134.864 84.1335 134.864C 85.7075 134.864 86.7355 133.559 86.7355 131.548C 86.7355 129.583 85.7545 128.368 84.1845 128.368C 83.3635 128.368 82.7855 128.68 82.3405 129.364L 82.3405 126.165L 81.3405 126.165zM 83.9885 129.274C 85.0555 129.274 85.7425 130.204 85.7425 131.637C 85.7425 133.001 85.0315 133.93 83.9885 133.93C 82.9815 133.93 82.3135 133.012 82.3135 131.602C 82.3135 130.192 82.9775 129.274 83.9885 129.274z"/>
<path style="stroke:none; fill-rule:evenodd; fill:#000000" d="M 92.7385 134.602L 92.7385 128.571L 91.7385 128.571L 91.7385 132.016C 91.7385 133.255 91.0945 134.067 90.0865 134.067C 89.3245 134.067 88.8405 133.606 88.8405 132.876L 88.8405 128.571L 87.8405 128.571L 87.8405 133.223C 87.8405 134.223 88.5985 134.868 89.7895 134.868C 90.6885 134.868 91.2625 134.559 91.8365 133.766L 91.8365 134.606L 92.7385 134.602z"/>
<path style="stroke:none; fill-rule:evenodd; fill:#000000" d="M 98.9455 130.571C 98.9025 129.985 98.7785 129.602 98.5475 129.266C 98.1415 128.704 97.4225 128.368 96.5945 128.368C 94.9925 128.368 93.9455 129.661 93.9455 131.673C 93.9455 133.626 94.9695 134.864 96.5825 134.864C 98.0045 134.864 98.9025 133.993 99.0165 132.501L 98.0635 132.501C 97.9065 133.477 97.4185 133.966 96.6135 133.966C 95.5705 133.966 94.9455 133.102 94.9455 131.676C 94.9455 130.169 95.5555 129.27 96.5905 129.27C 97.3835 129.27 97.8835 129.739 97.9965 130.575L 98.9455 130.571z"/>
<path style="stroke:none; fill-rule:evenodd; fill:#000000" d="M 100.84 126.165L 99.8405 126.165L 99.8405 134.563L 100.84 134.563L 100.84 132.223L 101.774 131.305L 103.813 134.563L 105 134.563L 102.535 130.637L 104.633 128.567L 103.402 128.567L 100.844 131.098L 100.84 126.165z"/>
<path style="stroke:none; fill-rule:evenodd; fill:#000000" d="M 110.84 131.864C 110.84 130.946 110.774 130.395 110.602 129.95C 110.215 128.966 109.301 128.368 108.184 128.368C 106.52 128.368 105.445 129.661 105.445 131.649C 105.445 133.637 106.481 134.864 108.156 134.864C 109.52 134.864 110.465 134.071 110.707 132.739L 109.754 132.739C 109.492 133.544 108.961 133.962 108.199 133.962C 107.598 133.962 107.086 133.684 106.77 133.169C 106.543 132.821 106.465 132.469 106.453 131.864L 110.84 131.864zM 106.418 131.098C 106.496 129.985 107.176 129.262 108.137 129.262C 109.074 129.262 109.801 130.04 109.801 131.028C 109.801 131.048 109.801 131.071 109.789 131.094L 106.418 131.098z"/>
<path style="stroke:none; fill-rule:evenodd; fill:#000000" d="M 114.238 128.567L 113.34 128.567L 113.34 126.899L 112.34 126.899L 112.34 128.567L 111.442 128.567L 111.442 129.364L 112.34 129.364L 112.34 133.911C 112.34 134.516 112.742 134.86 113.473 134.86C 113.695 134.86 113.922 134.837 114.235 134.778L 114.235 133.942C 114.121 134.032 113.985 134.059 113.817 134.059C 113.442 134.059 113.336 133.946 113.336 133.516L 113.336 129.364L 114.235 129.364L 114.238 128.567z"/>
<path style="stroke:none; fill-rule:evenodd; fill:#dfdfdf" d="M 148.637 130.954C 148.637 129.841 148 128.563 146.567 127.766C 145.133 126.969 142.902 126.653 140.828 126.653C 138.758 126.653 136.844 126.969 135.41 127.766C 133.977 128.563 133.02 129.837 133.02 130.954C 133.02 132.067 133.973 133.024 135.41 133.821C 136.844 134.618 138.758 135.255 140.828 135.255C 142.899 135.255 145.133 134.618 146.567 133.821C 148 133.024 148.637 132.067 148.637 130.954"/>
<path style="stroke:#dfdfdf; stroke-width:0.95664899999999997; fill:none" d="M 148.637 130.954C 148.637 129.841 148 128.563 146.567 127.766C 145.133 126.969 142.902 126.653 140.828 126.653C 138.758 126.653 136.844 126.969 135.41 127.766C 133.977 128.563 133.02 129.837 133.02 130.954C 133.02 132.067 133.973 133.024 135.41 133.821C 136.844 134.618 138.758 135.255 140.828 135.255C 142.899 135.255 145.133 134.618 146.567 133.821C 148 133.024 148.637 132.067 148.637 130.954"/>
<path style="stroke:#000000; stroke-width:0.95664899999999997; fill:none" d="M 148.637 130.954C 148.637 129.841 148 128.563 146.567 127.766C 145.133 126.969 142.902 126.653 140.828 126.653C 138.758 126.653 136.844 126.969 135.41 127.766C 133.977 128.563 133.02 129.837 133.02 130.954C 133.02 132.067 133.973 133.024 135.41 133.821C 136.844 134.618 138.758 135.255 140.828 135.255C 142.899 135.255 145.133 134.618 146.567 133.821C 148 133.024 148.637 132.067 148.637 130.954"/>
<path style="stroke:none; fill-rule:evenodd; fill:#000000" d="M 159.34 130.466L 153.742 130.466L 153.742 131.262L 159.34 131.262L 159.34 130.466zM 159.34 132.466L 153.742 132.466L 153.742 133.262L 159.34 133.262L 159.34 132.466z"/>
<path style="stroke:none; fill-rule:evenodd; fill:#000000" d="M 168.445 130.571C 168.402 129.985 168.278 129.602 168.047 129.266C 167.641 128.704 166.922 128.368 166.094 128.368C 164.492 128.368 163.445 129.661 163.445 131.673C 163.445 133.626 164.469 134.864 166.082 134.864C 167.504 134.864 168.402 133.993 168.516 132.501L 167.563 132.501C 167.406 133.477 166.918 133.966 166.113 133.966C 165.07 133.966 164.445 133.102 164.445 131.676C 164.445 130.169 165.055 129.27 166.09 129.27C 166.883 129.27 167.383 129.739 167.496 130.575L 168.445 130.571z"/>
<path style="stroke:none; fill-rule:evenodd; fill:#000000" d="M 174.879 134.005C 174.774 134.063 174.727 134.063 174.668 134.063C 174.328 134.063 174.141 133.891 174.141 133.591L 174.141 130.024C 174.141 128.95 173.363 128.368 171.891 128.368C 171.024 128.368 170.305 128.622 169.902 129.071C 169.629 129.38 169.516 129.727 169.492 130.329L 170.438 130.329C 170.516 129.598 170.942 129.266 171.824 129.266C 172.668 129.266 173.141 129.587 173.141 130.165L 173.141 130.419C 173.141 130.821 172.906 130.993 172.164 131.087C 170.84 131.259 170.637 131.305 170.278 131.454C 169.594 131.739 169.246 132.282 169.246 133.067C 169.246 134.161 170 134.852 171.211 134.852C 171.965 134.852 172.57 134.579 173.246 133.934C 173.313 134.567 173.61 134.852 174.227 134.852C 174.418 134.852 174.567 134.829 174.875 134.747L 174.879 134.005zM 173.137 132.704C 173.137 133.032 173.047 133.235 172.77 133.509C 172.391 133.872 171.934 134.063 171.387 134.063C 170.664 134.063 170.238 133.7 170.238 133.071C 170.238 132.423 170.649 132.091 171.641 131.938C 172.621 131.798 172.82 131.751 173.133 131.598L 173.137 132.704z"/>
<path style="stroke:none; fill-rule:evenodd; fill:#000000" d="M 179.84 128.567L 179.84 129.423C 179.36 128.704 178.774 128.368 178.004 128.368C 176.477 128.368 175.445 129.708 175.445 131.673C 175.445 132.665 175.707 133.473 176.199 134.052C 176.645 134.559 177.285 134.86 177.918 134.86C 178.672 134.86 179.199 134.532 179.738 133.747L 179.738 134.055C 179.738 134.868 179.637 135.364 179.399 135.696C 179.149 136.052 178.66 136.255 178.082 136.255C 177.652 136.255 177.266 136.141 177.004 135.934C 176.789 135.762 176.699 135.602 176.641 135.247L 175.676 135.247C 175.778 136.38 176.656 137.055 178.067 137.055C 178.957 137.055 179.723 136.77 180.113 136.29C 180.57 135.743 180.742 134.985 180.742 133.575L 180.742 128.559L 179.84 128.567zM 178.098 129.266C 179.125 129.266 179.735 130.141 179.735 131.649C 179.735 133.087 179.117 133.962 178.11 133.962C 177.067 133.962 176.438 133.075 176.438 131.614C 176.438 130.165 177.078 129.266 178.098 129.266z"/>
<path style="stroke:none; fill-rule:evenodd; fill:#000000" d="M 187.438 131.864C 187.438 130.946 187.371 130.395 187.199 129.95C 186.813 128.966 185.899 128.368 184.781 128.368C 183.117 128.368 182.043 129.661 182.043 131.649C 182.043 133.637 183.078 134.864 184.754 134.864C 186.117 134.864 187.063 134.071 187.305 132.739L 186.352 132.739C 186.09 133.544 185.559 133.962 184.797 133.962C 184.195 133.962 183.684 133.684 183.367 133.169C 183.141 132.821 183.063 132.469 183.051 131.864L 187.438 131.864zM 183.02 131.098C 183.098 129.985 183.778 129.262 184.738 129.262C 185.676 129.262 186.402 130.04 186.402 131.028C 186.402 131.048 186.402 131.071 186.391 131.094L 183.02 131.098z"/>
<path style="stroke:#000000; stroke-width:0.95664899999999997; fill:none" d="M 44.0436 143.548L 196.617 143.548L 196.617 117.11L 44.0436 117.11L 44.0436 143.548z"/>
<path style="stroke:none; fill-rule:evenodd; fill:#1f1f1f" d="M 67.8014 131.11C 67.8014 128.559 67.1647 126.009 65.8913 124.415C 64.6178 122.821 62.7038 122.184 60.4733 122.184C 58.2428 122.184 55.6921 122.821 54.0983 124.415C 52.5046 126.009 51.8678 128.559 51.8678 131.11C 51.8678 133.661 52.5046 136.212 54.0983 137.805C 55.6921 139.399 58.2428 140.036 60.4733 140.036C 62.7038 140.036 64.6178 139.399 65.8913 137.805C 67.1647 136.212 67.8014 133.661 67.8014 131.11"/>
<path style="stroke:#1f1f1f; stroke-width:0.0; fill:none" d="M 67.8014 131.11C 67.8014 128.559 67.1647 126.009 65.8913 124.415C 64.6178 122.821 62.7038 122.184 60.4733 122.184C 58.2428 122.184 55.6921 122.821 54.0983 124.415C 52.5046 126.009 51.8678 128.559 51.8678 131.11C 51.8678 133.661 52.5046 136.212 54.0983 137.805C 55.6921 139.399 58.2428 140.036 60.4733 140.036C 62.7038 140.036 64.6178 139.399 65.8913 137.805C 67.1647 136.212 67.8014 133.661 67.8014 131.11"/>
<path style="stroke:#000000; stroke-width:0.95664899999999997; fill:none" d="M 67.8014 131.11C 67.8014 128.559 67.1647 126.009 65.8913 124.415C 64.6178 122.821 62.7038 122.184 60.4733 122.184C 58.2428 122.184 55.6921 122.821 54.0983 124.415C 52.5046 126.009 51.8678 128.559 51.8678 131.11C 51.8678 133.661 52.5046 136.212 54.0983 137.805C 55.6921 139.399 58.2428 140.036 60.4733 140.036C 62.7038 140.036 64.6178 139.399 65.8913 137.805C 67.1647 136.212 67.8014 133.661 67.8014 131.11"/>
</g>
</svg>