<?xml version="1.0" encoding="ISO-8859-1" standalone="yes"?>
<svg width="109.832" height="169.09">
  <defs> 
    <marker id="ArrowEnd" viewBox="0 0 10 10" refX="0" refY="5" 
     markerUnits="strokeWidth" 
     markerWidth="4" 
     markerHeight="3" 
     orient="auto"> 
        <path d="M 0 0 L 10 5 L 0 10 z" /> 
    </marker>
    <marker id="ArrowStart" viewBox="0 0 10 10" refX="10" refY="5" 
     markerUnits="strokeWidth" 
     markerWidth="4" 
     markerHeight="3" 
     orient="auto"> 
        <path d="M 10 0 L 0 5 L 10 10 z" /> 
    </marker> </defs>
<g>
<path style="stroke:none; fill-rule:evenodd; fill:#000000" d="M 16.1991 9.145C 16.0781 9.19901 16.0234 9.19901 15.9531 9.19901C 15.5585 9.19901 15.3359 9 15.3359 8.65199L 15.3359 4.52299C 15.3359 3.27699 14.4296 2.605 12.707 2.605C 11.6952 2.605 10.8554 2.895 10.3866 3.414C 10.0702 3.77 9.93351 4.168 9.91011 4.85899L 11.0312 4.85899C 11.121 3.996 11.6288 3.605 12.6718 3.605C 13.6718 3.605 14.2343 3.98 14.2343 4.64799L 14.2343 4.94099C 14.2343 5.41 13.957 5.60899 13.082 5.715C 11.5195 5.914 11.2812 5.96899 10.8554 6.14101C 10.0468 6.47301 9.63661 7.105 9.63661 8.01601C 9.63661 9.285 10.5155 10.09 11.9257 10.09C 12.8046 10.09 13.5077 9.785 14.2929 9.07001C 14.371 9.77299 14.7187 10.09 15.4374 10.09C 15.664 10.09 15.8359 10.066 16.1952 9.97301L 16.1991 9.145zM 14.2343 7.578C 14.2343 7.94501 14.1288 8.172 13.7929 8.47701C 13.3398 8.88699 12.7851 9.09801 12.1249 9.09801C 11.2499 9.09801 10.7421 8.688 10.7421 7.98801C 10.7421 7.26199 11.2382 6.89101 12.4374 6.71899C 13.621 6.562 13.8632 6.508 14.2382 6.336L 14.2343 7.578z"/>
<path style="stroke:none; fill-rule:evenodd; fill:#000000" d="M 17.7695 12.641C 19.0937 10.883 19.9296 8.438 19.9296 6.332C 19.9296 4.211 19.0937 1.77 17.7695 0.00799561L 17.0429 0.00799561C 18.1913 1.92999 18.832 4.18401 18.832 6.332C 18.832 8.465 18.1913 10.734 17.0429 12.641L 17.7695 12.641z"/>
<path style="stroke:none; fill-rule:evenodd; fill:#000000" d="M 34.6952 9.80099L 37.1718 0.0039978L 35.7812 0.0039978L 33.9882 7.96899L 31.7655 0.0039978L 30.4296 0.0039978L 28.2616 7.96899L 26.4296 0.0039978L 25.039 0.0039978L 27.5429 9.80099L 28.9062 9.80099L 31.0859 1.78101L 33.3359 9.80099L 34.6952 9.80099z"/>
<path style="stroke:none; fill-rule:evenodd; fill:#000000" d="M 44.2343 6.703C 44.2343 5.629 44.1562 4.98399 43.957 4.461C 43.5077 3.30901 42.4413 2.60899 41.1366 2.60899C 39.1952 2.60899 37.9413 4.10201 37.9413 6.39799C 37.9413 8.69099 39.1445 10.105 41.0937 10.105C 42.6835 10.105 43.7812 9.19901 44.0624 7.67999L 42.9374 7.67999C 42.6327 8.617 41.9999 9.105 41.1054 9.105C 40.3984 9.105 39.7968 8.789 39.4218 8.203C 39.1562 7.80499 39.0624 7.40601 39.0468 6.711L 44.2343 6.703zM 39.0585 5.758C 39.1523 4.461 39.9413 3.617 41.0663 3.617C 42.164 3.617 43.0077 4.52699 43.0077 5.67599C 43.0077 5.69901 43.0077 5.72701 42.996 5.754L 39.0585 5.758z"/>
<path style="stroke:none; fill-rule:evenodd; fill:#000000" d="M 46.7343 2.80099L 45.6366 2.80099L 45.6366 9.80099L 46.7343 9.80099L 46.7343 2.80099zM 46.7343 0L 45.6366 0L 45.6366 1.44099L 46.7343 1.44099L 46.7343 0z"/>
<path style="stroke:none; fill-rule:evenodd; fill:#000000" d="M 53.2343 2.80099L 53.2343 3.80099C 52.6757 2.98399 51.996 2.60201 51.1054 2.60201C 49.3359 2.60201 48.1366 4.14799 48.1366 6.418C 48.1366 7.562 48.4413 8.496 49.0155 9.164C 49.5351 9.75 50.2812 10.098 51.0155 10.098C 51.8945 10.098 52.5077 9.72701 53.1327 8.84801L 53.1327 9.211C 53.1327 10.164 53.0155 10.746 52.7343 11.137C 52.4413 11.555 51.8671 11.793 51.1874 11.793C 50.6796 11.793 50.2265 11.66 49.9218 11.414C 49.6679 11.211 49.5624 11.023 49.496 10.602L 48.3632 10.602C 48.4804 11.914 49.5038 12.695 51.1366 12.695C 52.1718 12.695 53.0624 12.363 53.5116 11.805C 54.039 11.168 54.2421 10.285 54.2421 8.645L 54.2421 2.80099L 53.2343 2.80099zM 51.1952 3.60201C 52.414 3.60201 53.1288 4.625 53.1288 6.39101C 53.1288 8.07401 52.3984 9.09801 51.207 9.09801C 49.9765 9.09801 49.2304 8.062 49.2304 6.34801C 49.2304 4.65199 49.9882 3.59801 51.1913 3.59801L 51.1952 3.60201z"/>
<path style="stroke:none; fill-rule:evenodd; fill:#000000" d="M 56.1327 0L 56.1327 9.797L 57.2304 9.797L 57.2304 5.953C 57.2304 4.53101 57.9882 3.60201 59.1601 3.60201C 59.5234 3.60201 59.8905 3.71899 60.164 3.918C 60.4882 4.14101 60.6249 4.47701 60.6249 4.96899L 60.6249 9.797L 61.7226 9.797L 61.7226 4.51199C 61.7226 3.34 60.871 2.605 59.496 2.605C 58.496 2.605 57.8905 2.90601 57.2265 3.75L 57.2265 0.0039978L 56.1327 0z"/>
<path style="stroke:none; fill-rule:evenodd; fill:#000000" d="M 66.0312 2.80099L 64.832 2.80099L 64.832 0.854996L 63.7343 0.854996L 63.7343 2.80099L 62.8359 2.80099L 62.8359 3.69901L 63.7343 3.69901L 63.7343 8.98801C 63.7343 9.69501 64.2226 10.094 65.1054 10.094C 65.3749 10.094 65.6484 10.07 66.0312 10.004L 66.0312 9.07401C 65.8788 9.09 65.6991 9.09399 65.4765 9.09399C 64.9765 9.09399 64.8359 8.961 64.8359 8.46899L 64.8359 3.69501L 66.0351 3.69501L 66.0312 2.80099z"/>
<path style="stroke:none; fill-rule:evenodd; fill:#000000" d="M 66.832 7.203L 73.6288 7.203L 73.6288 6.30499L 66.832 6.30499L 66.832 7.203z"/>
<path style="stroke:none; fill-rule:evenodd; fill:#000000" d="M 74.9335 0L 74.9335 9.797L 75.9335 9.797L 75.9335 8.90199C 76.4687 9.711 77.1835 10.098 78.164 10.098C 80.0195 10.098 81.2304 8.59399 81.2304 6.27C 81.2304 4.004 80.0741 2.60201 78.2148 2.60201C 77.246 2.60201 76.5585 2.957 76.0351 3.73L 76.0351 0L 74.9335 0zM 78.0234 3.629C 79.2655 3.629 80.0702 4.711 80.0702 6.38699C 80.0702 7.98 79.2421 9.062 78.0234 9.062C 76.8476 9.062 76.0702 7.992 76.0702 6.34399C 76.0702 4.69901 76.8437 3.625 78.0234 3.625L 78.0234 3.629z"/>
<path style="stroke:none; fill-rule:evenodd; fill:#000000" d="M 88.7963 9.145C 88.6753 9.19901 88.6213 9.19901 88.5503 9.19901C 88.1563 9.19901 87.9333 9 87.9333 8.65199L 87.9333 4.52299C 87.9333 3.27699 87.0273 2.605 85.3043 2.605C 84.2933 2.605 83.4533 2.895 82.9843 3.414C 82.6679 3.77 82.5312 4.168 82.5077 4.85899L 83.6293 4.85899C 83.7183 3.996 84.2263 3.605 85.2693 3.605C 86.2693 3.605 86.8323 3.98 86.8323 4.64799L 86.8323 4.94099C 86.8323 5.41 86.5543 5.60899 85.6793 5.715C 84.1173 5.914 83.8793 5.96899 83.4533 6.14101C 82.6445 6.47301 82.2343 7.105 82.2343 8.01601C 82.2343 9.285 83.1132 10.09 84.5233 10.09C 85.4023 10.09 86.1053 9.785 86.8903 9.07001C 86.9683 9.77299 87.3163 10.09 88.0353 10.09C 88.2613 10.09 88.4333 10.066 88.7933 9.97301L 88.7963 9.145zM 86.8323 7.578C 86.8323 7.94501 86.7263 8.172 86.3903 8.47701C 85.9373 8.88699 85.3823 9.09801 84.7223 9.09801C 83.8473 9.09801 83.3393 8.688 83.3393 7.98801C 83.3393 7.26199 83.8363 6.89101 85.0353 6.71899C 86.2183 6.562 86.4613 6.508 86.8363 6.336L 86.8323 7.578z"/>
<path style="stroke:none; fill-rule:evenodd; fill:#000000" d="M 95.0003 4.73801C 94.9883 3.375 94.0893 2.60201 92.4923 2.60201C 90.8823 2.60201 89.8393 3.44501 89.8393 4.746C 89.8393 5.84399 90.3943 6.36301 92.0353 6.76601L 93.0663 7.02C 93.8323 7.207 94.1363 7.48801 94.1363 7.996C 94.1363 8.65199 93.4803 9.09399 92.4963 9.09399C 91.8943 9.09399 91.3823 8.918 91.1013 8.617C 90.9293 8.414 90.8473 8.211 90.7813 7.707L 89.6013 7.707C 89.6523 9.32001 90.5543 10.094 92.3753 10.094C 94.1253 10.094 95.2423 9.22701 95.2423 7.871C 95.2423 6.828 94.6603 6.254 93.2853 5.918L 92.2263 5.664C 91.3283 5.453 90.9453 5.15601 90.9453 4.66C 90.9453 4.02 91.5193 3.60201 92.4253 3.60201C 93.3203 3.60201 93.8003 3.992 93.8283 4.73801L 95.0003 4.73801z"/>
<path style="stroke:none; fill-rule:evenodd; fill:#000000" d="M 102.632 6.703C 102.632 5.629 102.554 4.98399 102.355 4.461C 101.906 3.30901 100.839 2.60899 99.5353 2.60899C 97.5933 2.60899 96.3393 4.10201 96.3393 6.39799C 96.3393 8.69099 97.5433 10.105 99.4923 10.105C 101.082 10.105 102.179 9.19901 102.461 7.67999L 101.336 7.67999C 101.031 8.617 100.398 9.105 99.5043 9.105C 98.7963 9.105 98.1953 8.789 97.8203 8.203C 97.5543 7.80499 97.4613 7.40601 97.4453 6.711L 102.632 6.703zM 97.4613 5.758C 97.5543 4.461 98.3433 3.617 99.4683 3.617C 100.566 3.617 101.41 4.52699 101.41 5.67599C 101.41 5.69901 101.41 5.72701 101.398 5.754L 97.4613 5.758z"/>
<path style="stroke:none; fill-rule:evenodd; fill:#000000" d="M 109.832 0L 108.734 0L 108.734 3.664C 108.273 2.96899 107.535 2.60201 106.609 2.60201C 104.812 2.60201 103.636 4.05499 103.636 6.285C 103.636 8.645 104.781 10.098 106.636 10.098C 107.582 10.098 108.242 9.742 108.832 8.875L 108.832 9.797L 109.832 9.797L 109.832 0zM 106.765 3.60201C 107.968 3.60201 108.73 4.68401 108.73 6.375C 108.73 8.01199 107.957 9.09399 106.777 9.09399C 105.55 9.09399 104.734 8 104.734 6.34801C 104.734 4.69901 105.546 3.59801 106.765 3.59801L 106.765 3.60201z"/>
<path style="stroke:none; fill-rule:evenodd; fill:#ffffff" d="M 40.6366 143.758C 40.6366 135.309 33.7851 128.453 25.332 128.453C 16.8827 128.453 10.0273 135.305 10.0273 143.758C 10.0273 152.207 16.8788 159.062 25.332 159.062C 33.7812 159.062 40.6366 152.211 40.6366 143.758"/>
<path style="stroke:#000000; stroke-width:1.9133; fill:none" d="M 40.6366 143.758C 40.6366 135.309 33.7851 128.453 25.332 128.453C 16.8827 128.453 10.0273 135.305 10.0273 143.758C 10.0273 152.207 16.8788 159.062 25.332 159.062C 33.7812 159.062 40.6366 152.211 40.6366 143.758"/>
<path style="stroke:none; fill-rule:evenodd; fill:#000000" d="M 26.9726 144.703L 27.832 147.203L 29.0234 147.203L 26.0859 138.805L 24.7109 138.805L 21.7265 147.203L 22.8593 147.203L 23.7421 144.703L 26.9726 144.703zM 26.6757 143.801L 24.0155 143.801L 25.3905 139.98L 26.6757 143.801z"/>
<path style="stroke:none; fill-rule:evenodd; fill:#ffffff" d="M 76.9882 143.758C 76.9882 135.309 70.1366 128.453 61.6835 128.453C 53.2343 128.453 46.3788 135.305 46.3788 143.758C 46.3788 152.207 53.2304 159.062 61.6835 159.062C 70.1327 159.062 76.9882 152.211 76.9882 143.758"/>
<path style="stroke:#000000; stroke-width:1.9133; fill:none" d="M 76.9882 143.758C 76.9882 135.309 70.1366 128.453 61.6835 128.453C 53.2343 128.453 46.3788 135.305 46.3788 143.758C 46.3788 152.207 53.2304 159.062 61.6835 159.062C 70.1327 159.062 76.9882 152.211 76.9882 143.758"/>
<path style="stroke:none; fill-rule:evenodd; fill:#000000" d="M 59.2343 147.203L 63.0429 147.203C 63.8398 147.203 64.4296 146.984 64.8827 146.504C 65.2968 146.066 65.5312 145.469 65.5312 144.812C 65.5312 143.801 65.0585 143.188 63.957 142.777C 64.7226 142.422 65.1288 141.801 65.1288 140.949C 65.1288 140.34 64.9023 139.801 64.4609 139.406C 64.0234 139.004 63.4491 138.82 62.6405 138.82L 59.2304 138.82L 59.2343 147.203zM 60.332 142.5L 60.332 139.703L 62.3749 139.703C 62.9648 139.703 63.2929 139.785 63.5741 140.016C 63.8671 140.254 64.0273 140.617 64.0273 141.102C 64.0273 141.57 63.871 141.945 63.5741 142.188C 63.2929 142.414 62.9648 142.5 62.3749 142.5L 60.332 142.5zM 60.332 146.301L 60.332 143.402L 62.9296 143.402C 63.4413 143.402 63.7851 143.527 64.039 143.805C 64.289 144.07 64.4257 144.438 64.4257 144.855C 64.4257 145.258 64.289 145.629 64.039 145.895C 63.789 146.168 63.4452 146.297 62.9296 146.297L 60.332 146.301z"/>
<path style="stroke:none; fill-rule:evenodd; fill:#ffffff" d="M 58.8124 48.09C 58.8124 39.641 51.9609 32.785 43.5077 32.785C 35.0585 32.785 28.2031 39.637 28.2031 48.09C 28.2031 56.539 35.0546 63.395 43.5077 63.395C 51.957 63.395 58.8124 56.543 58.8124 48.09"/>
<path style="stroke:#000000; stroke-width:1.9133; fill:none" d="M 58.8124 48.09C 58.8124 39.641 51.9609 32.785 43.5077 32.785C 35.0585 32.785 28.2031 39.637 28.2031 48.09C 28.2031 56.539 35.0546 63.395 43.5077 63.395C 51.957 63.395 58.8124 56.543 58.8124 48.09"/>
<path style="stroke:none; fill-rule:evenodd; fill:#000000" d="M 44.5312 47.102L 40.9335 47.102L 40.9335 48L 43.5312 48L 43.5312 48.234C 43.5312 49.777 42.4335 50.895 40.914 50.895C 40.0702 50.895 39.3046 50.582 38.8124 50.035C 38.2655 49.43 37.9335 48.418 37.9335 47.367C 37.9335 45.281 39.0976 43.902 40.8593 43.902C 42.1249 43.902 43.039 44.57 43.2695 45.668L 44.3554 45.668C 44.0585 43.977 42.7695 43 40.8515 43C 39.832 43 39.0038 43.266 38.3476 43.805C 37.3866 44.609 36.832 45.91 36.832 47.418C 36.832 49.996 38.4023 51.793 40.6679 51.793C 41.8046 51.793 42.7109 51.367 43.5273 50.457L 43.8046 51.57L 44.5234 51.57L 44.5312 47.102z"/>
<path style="stroke:none; fill-rule:evenodd; fill:#000000" d="M 48.371 45.301C 46.6679 45.301 45.6366 46.516 45.6366 48.551C 45.6366 50.586 46.6562 51.801 48.3866 51.801C 50.0898 51.801 51.1366 50.59 51.1366 48.602C 51.1366 46.512 50.1288 45.309 48.3788 45.309L 48.371 45.301zM 48.3827 46.203C 49.4765 46.203 50.1327 47.09 50.1327 48.586C 50.1327 50 49.457 50.898 48.3827 50.898C 47.3007 50.898 46.6327 50.012 46.6327 48.551C 46.6327 47.102 47.2968 46.203 48.3827 46.203z"/>
<path style="stroke:#000000; stroke-width:1.9133; fill:none" d="M 61.6757 128.449L 44.457 63.398"/>
<path style="stroke:#000000; stroke-width:1.9133; fill:none" d="M 44.5663 71.285L 44.4609 63.398L 48.2655 70.305"/>
<path style="stroke:#000000; stroke-width:1.9133; fill:none" d="M 25.3241 128.449L 40.6288 63.398"/>
<path style="stroke:#000000; stroke-width:1.9133; fill:none" d="M 37.0155 70.41L 40.6288 63.398L 40.7343 71.285"/>
</g>
</svg>