<?xml version="1.0" encoding="ISO-8859-1" standalone="yes"?>
<svg width="336.998" height="69.2946">
  <defs> 
    <marker id="ArrowEnd" viewBox="0 0 10 10" refX="0" refY="5" 
     markerUnits="strokeWidth" 
     markerWidth="4" 
     markerHeight="3" 
     orient="auto"> 
        <path d="M 0 0 L 10 5 L 0 10 z" /> 
    </marker>
    <marker id="ArrowStart" viewBox="0 0 10 10" refX="10" refY="5" 
     markerUnits="strokeWidth" 
     markerWidth="4" 
     markerHeight="3" 
     orient="auto"> 
        <path d="M 10 0 L 0 5 L 10 10 z" /> 
    </marker> </defs>
<g>
<path style="stroke:#000000; stroke-width:0.95606000000000002; fill:none" d="M 48.9911 48.9872C 48.9911 40.5416 42.1434 33.6906 33.6942 33.6906C 25.2489 33.6906 18.3973 40.5376 18.3973 48.9872C 18.3973 57.4325 25.245 64.2841 33.6942 64.2841C 42.1395 64.2841 48.9911 57.4364 48.9911 48.9872"/>
<path style="stroke:#000000; stroke-width:0.95606000000000002; fill:none" d="M 5.01056 27.9516C 5.01056 27.9516 5.01056 27.9516 6.92066 26.0416C 8.83086 24.1316 12.6551 20.3076 18.0731 19.3506C 23.4911 18.3976 30.4989 20.3036 35.2801 22.8546C 40.0575 25.4016 42.6082 28.5886 47.3895 25.7216C 52.1668 22.8546 59.1785 13.9326 62.6864 9.47156C 66.1903 5.01056 66.1903 5.01056 66.1903 5.01056"/>
<path style="stroke:#000000; stroke-width:0.95606000000000002; fill:none" d="M 59.9715 9.84256L 66.1981 5.01056L 62.9793 12.2016"/>
<path style="stroke:#000000; stroke-width:0.95606000000000002; fill:none" d="M 171.366 48.9872C 171.366 40.5416 164.518 33.6906 156.069 33.6906C 147.624 33.6906 140.772 40.5376 140.772 48.9872C 140.772 57.4325 147.62 64.2841 156.069 64.2841C 164.514 64.2841 171.366 57.4364 171.366 48.9872"/>
<path style="stroke:#000000; stroke-width:0.95606000000000002; fill:none" d="M 185.71 22.6946C 185.71 22.6946 185.71 22.6946 182.366 23.5696C 179.022 24.4446 172.331 26.1986 161.893 26.1166C 151.46 26.0376 137.276 24.1276 135.206 21.4166C 133.135 18.7096 143.17 15.2056 148.19 13.4516C 153.206 11.7016 153.206 11.7016 153.206 11.7016"/>
<path style="stroke:#000000; stroke-width:0.95606000000000002; fill:none" d="M 145.35 12.4166L 153.198 11.7016L 146.608 16.0266"/>
<path style="stroke:#000000; stroke-width:0.95606000000000002; fill:none" d="M 228.729 48.9872C 228.729 40.5416 221.881 33.6906 213.432 33.6906C 204.987 33.6906 198.135 40.5376 198.135 48.9872C 198.135 57.4325 204.983 64.2841 213.432 64.2841C 221.877 64.2841 228.729 57.4364 228.729 48.9872"/>
<path style="stroke:#000000; stroke-width:0.95606000000000002; fill:none" d="M 196.225 7.65855C 196.225 7.65855 196.225 7.65855 198.772 9.56956C 201.319 11.4796 206.417 15.3036 211.198 16.2606C 215.975 17.2136 220.436 15.3076 224.901 17.2136C 229.362 19.1236 233.823 24.8586 236.053 27.7296C 238.28 30.5966 238.28 30.5966 238.28 30.5966"/>
<path style="stroke:#000000; stroke-width:0.95606000000000002; fill:none" d="M 235.104 23.3936L 238.288 30.6046L 232.084 25.7446"/>
<path style="stroke:#000000; stroke-width:0.95606000000000002; fill:none" d="M 289.917 48.9872C 289.917 40.5416 283.069 33.6906 274.62 33.6906C 266.174 33.6906 259.323 40.5376 259.323 48.9872C 259.323 57.4325 266.17 64.2841 274.62 64.2841C 283.065 64.2841 289.917 57.4364 289.917 48.9872"/>
<path style="stroke:#000000; stroke-width:0.95606000000000002; fill:none" d="M 299.479 16.4796C 299.479 16.4796 299.479 16.4796 298.206 18.7096C 296.932 20.9366 294.385 25.4016 291.198 27.3116C 288.014 29.2216 284.19 28.5846 281.96 25.4016C 279.733 22.2176 279.092 16.4796 277.499 13.6126C 275.909 10.7446 273.358 10.7446 271.127 12.9756C 268.897 15.2056 266.987 19.6666 265.393 23.1706C 263.803 26.6746 262.526 29.2256 259.975 28.2686C 257.428 27.3156 253.604 22.8506 251.69 20.6236C 249.78 18.3936 249.78 18.3936 249.78 18.3936"/>
<path style="stroke:#000000; stroke-width:0.95606000000000002; fill:none" d="M 253.292 25.4446L 249.768 18.3936L 256.194 22.9556"/>
<path style="stroke:#000000; stroke-width:0.95606000000000002; fill:none" d="M 310.952 58.5458C 310.952 57.4911 310.096 56.6356 309.042 56.6356C 307.987 56.6356 307.131 57.4911 307.131 58.5458C 307.131 59.6005 307.987 60.4559 309.042 60.4559C 310.096 60.4559 310.952 59.6005 310.952 58.5458"/>
<path style="stroke:#000000; stroke-width:0.95606000000000002; fill:none" d="M 322.424 58.5458C 322.424 57.4911 321.569 56.6356 320.514 56.6356C 319.46 56.6356 318.604 57.4911 318.604 58.5458C 318.604 59.6005 319.46 60.4559 320.514 60.4559C 321.569 60.4559 322.424 59.6005 322.424 58.5458"/>
<path style="stroke:#000000; stroke-width:0.95606000000000002; fill:none" d="M 331.987 58.5458C 331.987 57.4911 331.131 56.6356 330.077 56.6356C 329.022 56.6356 328.167 57.4911 328.167 58.5458C 328.167 59.6005 329.022 60.4559 330.077 60.4559C 331.131 60.4559 331.987 59.6005 331.987 58.5458"/>
<path style="stroke:#000000; stroke-width:0.95606000000000002; fill:none" d="M 110.178 48.9872C 110.178 40.5416 103.331 33.6906 94.8813 33.6906C 86.4363 33.6906 79.5843 40.5376 79.5843 48.9872C 79.5843 57.4325 86.4323 64.2841 94.8813 64.2841C 103.327 64.2841 110.178 57.4364 110.178 48.9872"/>
<path style="stroke:#000000; stroke-width:0.95606000000000002; fill:none" d="M 66.202 27.9516C 66.202 27.9516 66.202 27.9516 68.4323 26.3626C 70.6633 24.7686 75.1243 21.5846 80.5423 19.0336C 85.9603 16.4876 92.3313 14.5736 96.7923 16.8076C 101.252 19.0336 103.799 25.4086 108.581 24.1356C 113.358 22.8626 120.37 13.9406 123.877 9.47955C 127.381 5.01855 127.381 5.01855 127.381 5.01855"/>
<path style="stroke:#000000; stroke-width:0.95606000000000002; fill:none" d="M 121.159 9.84256L 127.385 5.01056L 124.167 12.2016"/>
</g>
</svg>