<?xml version="1.0" encoding="UTF-8" standalone="no"?>
<!-- Created with Inkscape (http://www.inkscape.org/) -->

<svg
   xmlns:dc="http://purl.org/dc/elements/1.1/"
   xmlns:cc="http://creativecommons.org/ns#"
   xmlns:rdf="http://www.w3.org/1999/02/22-rdf-syntax-ns#"
   xmlns:svg="http://www.w3.org/2000/svg"
   xmlns="http://www.w3.org/2000/svg"
   xmlns:sodipodi="http://sodipodi.sourceforge.net/DTD/sodipodi-0.dtd"
   xmlns:inkscape="http://www.inkscape.org/namespaces/inkscape"
   id="svg2"
   version="1.1"
   inkscape:version="0.47 r22583"
   width="288.75"
   height="232.5"
   xml:space="preserve"
   sodipodi:docname="fig_aphasia_areas.svg"
   inkscape:export-filename="/Users/oreilly/svn_docs/figs/fig_aphasia_areas.png"
   inkscape:export-xdpi="150"
   inkscape:export-ydpi="150"><metadata
     id="metadata8"><rdf:RDF><cc:Work
         rdf:about=""><dc:format>image/svg+xml</dc:format><dc:type
           rdf:resource="http://purl.org/dc/dcmitype/StillImage" /><dc:title></dc:title></cc:Work></rdf:RDF></metadata><defs
     id="defs6"><inkscape:perspective
       sodipodi:type="inkscape:persp3d"
       inkscape:vp_x="0 : 0.5 : 1"
       inkscape:vp_y="0 : 1000 : 0"
       inkscape:vp_z="1 : 0.5 : 1"
       inkscape:persp3d-origin="0.5 : 0.33333333 : 1"
       id="perspective10" /></defs><sodipodi:namedview
     pagecolor="#ffffff"
     bordercolor="#666666"
     borderopacity="1"
     objecttolerance="10"
     gridtolerance="10"
     guidetolerance="10"
     inkscape:pageopacity="0"
     inkscape:pageshadow="2"
     inkscape:window-width="640"
     inkscape:window-height="480"
     id="namedview4"
     showgrid="false"
     inkscape:zoom="1.0150538"
     inkscape:cx="144.375"
     inkscape:cy="116.25"
     inkscape:current-layer="g12" /><g
     id="g12"
     inkscape:groupmode="layer"
     inkscape:label="fig_aphasia_areas"
     transform="matrix(1.25,0,0,-1.25,0,232.5)"><rect
       style="fill:#ffffff;fill-opacity:1;fill-rule:nonzero;stroke:#ffffff;stroke-width:0.78997511;stroke-miterlimit:4;stroke-opacity:1;stroke-dasharray:none;stroke-dashoffset:0"
       id="rect2895"
       width="234.08629"
       height="184.43375"
       x="-0.79314804"
       y="-182.06433"
       transform="scale(1,-1)" /><g
       id="g14"
       transform="scale(0.1,0.1)"><path
         d="m 637.066,648.02 c -44.64,11.957 -108.418,27.902 -168.211,63.777 -59.789,35.875 -115.593,91.676 -70.949,151.469 44.645,59.789 189.735,123.566 348.379,157.844 158.645,34.28 330.835,39.07 463.175,16.74 132.34,-22.32 224.81,-71.745 289.39,-127.549 64.57,-55.805 101.24,-117.989 92.47,-176.184 -8.77,-58.195 -62.98,-112.406 -159.44,-149.078 -96.46,-36.672 -235.17,-55.805 -351.56,-78.922 -116.398,-23.121 -210.468,-50.226 -288.593,-62.98 -78.125,-12.754 -140.309,-11.16 -147.485,20.726 -7.176,31.891 40.656,94.071 51.82,129.149 11.161,35.078 -14.351,43.05 -58.996,55.008"
         style="fill:#808080;fill-opacity:1;fill-rule:evenodd;stroke:none"
         id="path16" /><path
         d="m 637.066,648.02 c -44.64,11.957 -108.418,27.902 -168.211,63.777 -59.789,35.875 -115.593,91.676 -70.949,151.469 44.645,59.789 189.735,123.566 348.379,157.844 158.645,34.28 330.835,39.07 463.175,16.74 132.34,-22.32 224.81,-71.745 289.39,-127.549 64.57,-55.805 101.24,-117.989 92.47,-176.184 -8.77,-58.195 -62.98,-112.406 -159.44,-149.078 -96.46,-36.672 -235.17,-55.805 -351.56,-78.922 -116.398,-23.121 -210.468,-50.226 -288.593,-62.98 -78.125,-12.754 -140.309,-11.16 -147.485,20.726 -7.176,31.891 40.656,94.071 51.82,129.149 11.161,35.078 -14.351,43.05 -58.996,55.008"
         style="fill:none;stroke:#000000;stroke-opacity:1;stroke-width:19.1396;stroke-linecap:butt;stroke-linejoin:miter;stroke-miterlimit:10;stroke-dasharray:none"
         id="path18" /><path
         d="m 1250.92,777.168 c -65.37,-7.176 -129.15,-19.93 -163.43,-62.98 -34.28,-43.051 -39.06,-116.391 -15.15,-148.282 23.92,-31.886 76.54,-22.32 143.5,-11.957 66.96,10.363 148.28,21.524 189.73,60.586 41.46,39.067 43.05,106.031 10.37,138.715 -32.69,32.688 -99.65,31.09 -165.02,23.918"
         style="fill:#bfbfbf;fill-opacity:1;fill-rule:evenodd;stroke:none"
         id="path20" /><path
         d="m 1250.92,777.168 c -65.37,-7.176 -129.15,-19.93 -163.43,-62.98 -34.28,-43.051 -39.06,-116.391 -15.15,-148.282 23.92,-31.886 76.54,-22.32 143.5,-11.957 66.96,10.363 148.28,21.524 189.73,60.586 41.46,39.067 43.05,106.031 10.37,138.715 -32.69,32.688 -99.65,31.09 -165.02,23.918"
         style="fill:none;stroke:none"
         id="path22" /><path
         d="m 1242.28,785.289 c 0,0 0,0 -34.29,-14.355 -34.29,-14.352 -102.88,-43.063 -158.7,-63 -55.825,-19.938 -98.888,-31.102 -145.938,-37.481 -47.051,-6.379 -98.09,-7.976 -165.879,-33.496 C 669.688,611.438 585.156,561.996 508.598,498.195 432.039,434.398 363.453,356.242 394.555,274.902 425.656,193.559 556.445,109.023 677.664,67.5547 798.879,26.0859 910.527,27.6797 1022.97,42.832 c 112.45,15.1524 225.69,43.8633 328.57,95.699 102.87,51.836 195.38,126.801 300.65,156.305 105.27,29.508 223.29,13.559 331.75,31.105 108.46,17.543 207.35,68.582 253.6,169.067 46.25,100.48 39.87,250.406 8.77,383.586 -31.1,133.176 -86.92,249.616 -177.04,381.996 -90.11,132.38 -214.52,280.71 -414.69,380.4 -200.17,99.69 -476.1,150.72 -732.889,118.83 -256.789,-31.91 -494.437,-146.74 -634,-254.4 C 148.133,1397.76 106.664,1297.27 78.7539,1191.21 50.8398,1085.14 36.4844,973.496 35.6875,896.141 34.8906,818.785 47.6523,775.719 82.7383,728.668 117.828,681.617 175.25,630.578 231.871,598.68 c 56.621,-31.899 112.445,-44.66 179.434,-42.266 66.988,2.391 145.14,19.934 184.218,28.707 39.075,8.774 39.075,8.774 39.075,8.774"
         style="fill:none;stroke:#000000;stroke-opacity:1;stroke-width:19.1396;stroke-linecap:butt;stroke-linejoin:miter;stroke-miterlimit:10;stroke-dasharray:none"
         id="path24" /><g
         id="g26"
         transform="scale(10,10)"><text
           transform="matrix(1,0,0,-1,20.6781,103.598)"
           id="text28"><tspan
             style="fill:#000000;fill-opacity:1;fill-rule:nonzero;stroke:none;font-family:Helvetica;font-variant:normal;font-weight:normal;font-size:11.4838;writing-mode:lr;-inkscape-font-specification:Helvetica"
             x="0 7.6596946 11.4838 17.8687928 23.6106928 29.9956856 32.5450892"
             y="0"
             sodipodi:role="line"
             id="tspan30">Broca’s</tspan><tspan
             style="fill:#000000;fill-opacity:1;fill-rule:nonzero;stroke:none;font-family:Helvetica;font-variant:normal;font-weight:normal;font-size:11.4838;writing-mode:lr;-inkscape-font-specification:Helvetica"
             x="111.947 122.7877072 129.1727 132.9968054 139.3817982 141.9312018 147.6731018 153.4150018 159.7999946 162.3493982"
             y="-2.38203"
             sodipodi:role="line"
             id="tspan32">Wernicke’s</tspan></text>
<text
           transform="matrix(0.898212,0.439562,0.439562,-0.898212,31.1746,134.402)"
           id="text34"><tspan
             style="fill:#000000;fill-opacity:1;fill-rule:nonzero;stroke:none;font-family:Helvetica;font-variant:normal;font-weight:bold;font-size:13.40239698;writing-mode:lr;-inkscape-font-specification:Helvetica-Bold"
             x="0 8.18886455 13.40239698 21.59126153 29.78012608 34.24312427 41.69485699"
             y="0"
             sodipodi:role="line"
             id="tspan36">Frontal</tspan></text>
<text
           transform="matrix(0.909707,-0.41525,-0.41525,-0.909707,142.017,152.525)"
           id="text38"><tspan
             style="fill:#000000;fill-opacity:1;fill-rule:nonzero;stroke:none;font-family:Helvetica;font-variant:normal;font-weight:bold;font-size:13.4023959;writing-mode:lr;-inkscape-font-specification:Helvetica-Bold"
             x="0 8.93939807 16.39113019 21.60466219 25.33052825 32.78226037 37.24525821 44.69699033"
             y="0"
             sodipodi:role="line"
             id="tspan40">Parietal</tspan></text>
<text
           transform="matrix(0.0527846,0.998606,0.998606,-0.0527846,215.472,40.2664)"
           id="text42"><tspan
             style="fill:#000000;fill-opacity:1;fill-rule:nonzero;stroke:none;font-family:Helvetica;font-variant:normal;font-weight:bold;font-size:13.40240105;writing-mode:lr;-inkscape-font-specification:Helvetica-Bold"
             x="0 10.42706802 17.87880301 25.33053799 29.05640548 37.24527253 40.97114002 45.43413957 52.88587456"
             y="0"
             sodipodi:role="line"
             id="tspan44">Occipital</tspan></text>
</g><path
         d="m 1347.55,1737.48 c 0,0 0,0 -22.33,-32.69 -22.33,-32.7 -66.99,-98.09 -81.34,-147.54 -14.36,-49.44 1.59,-82.93 -1.6,-120.41 -3.19,-37.49 -25.52,-78.96 -36.68,-114.05 -11.17,-35.09 -11.17,-63.79 -34.3,-100.48 -23.12,-36.69 -69.37,-81.34 -94.89,-121.22 -25.52,-39.87 -30.31,-74.96 -45.46,-117.227 -15.15,-42.265 -40.673,-91.711 -65.395,-144.343 -24.723,-52.633 -48.649,-108.458 -60.61,-136.372 -11.961,-27.91 -11.961,-27.91 -11.961,-27.91"
         style="fill:none;stroke:#000000;stroke-opacity:1;stroke-width:19.1396;stroke-linecap:butt;stroke-linejoin:miter;stroke-miterlimit:10;stroke-dasharray:19.1396,19.1396;stroke-dashoffset:0"
         id="path46" /><path
         d="m 2146.63,1129.8 c 0,0 0,0 -23.93,-14.35 -23.92,-14.36 -71.77,-43.07 -114.84,-63.8 -43.06,-20.74 -81.34,-33.49 -110.84,-63.798 -29.51,-30.305 -50.25,-78.153 -65.4,-129.993 -15.15,-51.836 -24.72,-107.66 -24.72,-165.875 0,-58.214 9.57,-118.824 39.87,-174.648 30.31,-55.824 81.35,-106.863 120.42,-137.168 39.08,-30.305 66.19,-39.875 79.75,-44.66 13.56,-4.785 13.56,-4.785 13.56,-4.785"
         style="fill:none;stroke:#000000;stroke-opacity:1;stroke-width:19.1396;stroke-linecap:butt;stroke-linejoin:miter;stroke-miterlimit:10;stroke-dasharray:19.1396,19.1396;stroke-dashoffset:0"
         id="path48" /><path
         d="m 1237.5,785.289 c 0,0 0,0 23.92,6.383 23.92,6.379 71.78,19.137 165.88,15.148 94.1,-3.984 234.46,-24.718 304.64,-35.086 70.17,-10.367 70.17,-10.367 70.17,-10.367"
         style="fill:none;stroke:#000000;stroke-opacity:1;stroke-width:19.1396;stroke-linecap:butt;stroke-linejoin:miter;stroke-miterlimit:10;stroke-dasharray:19.1396,19.1396;stroke-dashoffset:0"
         id="path50" /><g
         id="g52"
         transform="scale(10,10)"><text
           transform="matrix(0.965843,0.259129,0.259129,-0.965843,77.3883,28.5648)"
           id="text54"><tspan
             style="fill:#000000;fill-opacity:1;fill-rule:nonzero;stroke:none;font-family:Helvetica;font-variant:normal;font-weight:bold;font-size:13.40240361;writing-mode:lr;-inkscape-font-specification:Helvetica-Bold"
             x="0 8.18886861 15.64060502 27.55534183 35.74421044 43.93307905 49.14661405 56.59835046"
             y="0"
             sodipodi:role="line"
             id="tspan56">Temporal</tspan></text>
</g><path
         d="m 438.562,742.887 c 51.821,-30.293 172.997,-33.485 247.137,-29.496 74.137,3.984 101.242,15.148 118.781,55.007 17.54,39.86 25.512,108.418 17.54,145.887 -7.973,37.469 -31.887,43.848 -80.52,48.629 -48.629,4.785 -121.973,7.973 -179.371,-4.781 -57.399,-12.754 -98.852,-41.453 -128.348,-84.504 -29.5,-43.051 -47.035,-100.449 4.781,-130.742"
         style="fill:#bfbfbf;fill-opacity:1;fill-rule:evenodd;stroke:none"
         id="path58" /><path
         d="m 438.562,742.887 c 51.821,-30.293 172.997,-33.485 247.137,-29.496 74.137,3.984 101.242,15.148 118.781,55.007 17.54,39.86 25.512,108.418 17.54,145.887 -7.973,37.469 -31.887,43.848 -80.52,48.629 -48.629,4.785 -121.973,7.973 -179.371,-4.781 -57.399,-12.754 -98.852,-41.453 -128.348,-84.504 -29.5,-43.051 -47.035,-100.449 4.781,-130.742"
         style="fill:none;stroke:none"
         id="path60" /><path
         d="M 350.074,1021.91 589.234,854.496"
         style="fill:none;stroke:#000000;stroke-opacity:1;stroke-width:9.5698;stroke-linecap:butt;stroke-linejoin:miter;stroke-miterlimit:10;stroke-dasharray:none"
         id="path62" /><path
         d="m 537.492,914.078 51.742,-59.582 -73.695,28.223"
         style="fill:none;stroke:#000000;stroke-opacity:1;stroke-width:9.5698;stroke-linecap:butt;stroke-linejoin:miter;stroke-miterlimit:10;stroke-dasharray:none"
         id="path64" /><path
         d="M 1565.02,1036.26 1258.89,691.867"
         style="fill:none;stroke:#000000;stroke-opacity:1;stroke-width:9.5698;stroke-linecap:butt;stroke-linejoin:miter;stroke-miterlimit:10;stroke-dasharray:none"
         id="path66" /><path
         d="m 1324.06,736.371 -65.17,-44.504 36.56,69.934"
         style="fill:none;stroke:#000000;stroke-opacity:1;stroke-width:9.5698;stroke-linecap:butt;stroke-linejoin:miter;stroke-miterlimit:10;stroke-dasharray:none"
         id="path68" /></g></g></svg>