<?xml version="1.0" encoding="UTF-8" standalone="no"?>
<svg
  xmlns="http://www.w3.org/2000/svg" version="1.1"
  width="400px"
  height="400px"
  viewBox="0 0 1000.0 1000.0">
<path stroke="#000000" stroke-width="2" fill="none"
  d="M 264.4,726.1 L 264.4,171.9 L 818.7,171.9 L 818.7,726.1 L 264.4,726.1 "
 />

<g>

<text x="541.6" y="801.0" font-family="Arial" font-size="28.0" fill="#000000" text-anchor="middle">
tick
</text>

<text x="264.4" y="773.3" font-family="Arial" font-size="28.0" fill="#000000" text-anchor="middle">
0
</text>

<text x="319.9" y="773.3" font-family="Arial" font-size="28.0" fill="#000000" text-anchor="middle">
0.1
</text>

<text x="375.3" y="773.3" font-family="Arial" font-size="28.0" fill="#000000" text-anchor="middle">
0.2
</text>

<text x="430.7" y="773.3" font-family="Arial" font-size="28.0" fill="#000000" text-anchor="middle">
0.3
</text>

<text x="486.1" y="773.3" font-family="Arial" font-size="28.0" fill="#000000" text-anchor="middle">
0.4
</text>

<text x="541.6" y="773.3" font-family="Arial" font-size="28.0" fill="#000000" text-anchor="middle">
0.5
</text>

<text x="597.0" y="773.3" font-family="Arial" font-size="28.0" fill="#000000" text-anchor="middle">
0.6
</text>

<text x="652.4" y="773.3" font-family="Arial" font-size="28.0" fill="#000000" text-anchor="middle">
0.7
</text>

<text x="707.8" y="773.3" font-family="Arial" font-size="28.0" fill="#000000" text-anchor="middle">
0.8
</text>

<text x="763.3" y="773.3" font-family="Arial" font-size="28.0" fill="#000000" text-anchor="middle">
0.9
</text>

<text x="818.7" y="773.3" font-family="Arial" font-size="28.0" fill="#000000" text-anchor="middle">
1
</text>
<path stroke="#000000" stroke-width="2" fill="none"
  d="M 264.4,726.1 L 818.7,726.1 M 264.4,740.0 L 264.4,712.3 M 319.9,740.0 L 319.9,712.3 M 375.3,740.0 L 375.3,712.3 M 430.7,740.0 L 430.7,712.3 M 486.1,740.0 L 486.1,712.3 M 541.6,740.0 L 541.6,712.3 M 597.0,740.0 L 597.0,712.3 M 652.4,740.0 L 652.4,712.3 M 707.8,740.0 L 707.8,712.3 M 763.3,740.0 L 763.3,712.3 M 818.7,740.0 L 818.7,712.3 "
 />
<path stroke="#000000" stroke-width="2" fill="none"
  d="M 264.4,171.9 L 818.7,171.9 M 264.4,185.7 L 264.4,158.0 M 319.9,185.7 L 319.9,158.0 M 375.3,185.7 L 375.3,158.0 M 430.7,185.7 L 430.7,158.0 M 486.1,185.7 L 486.1,158.0 M 541.6,185.7 L 541.6,158.0 M 597.0,185.7 L 597.0,158.0 M 652.4,185.7 L 652.4,158.0 M 707.8,185.7 L 707.8,158.0 M 763.3,185.7 L 763.3,158.0 M 818.7,185.7 L 818.7,158.0 "
 />

<text x="195.2" y="449.0" font-family="Arial" font-size="28.0" fill="#ff0000" writing-mode="tb" text-anchor="middle">
V1p layers act eq
</text>

<text x="245.0" y="710.8" font-family="Arial" font-size="28.0" fill="#ff0000" text-anchor="end">
0.056
</text>

<text x="245.0" y="446.9" font-family="Arial" font-size="28.0" fill="#ff0000" text-anchor="end">
0.057
</text>

<text x="245.0" y="183.0" font-family="Arial" font-size="28.0" fill="#ff0000" text-anchor="end">
0.058
</text>
<path stroke="#ff0000" stroke-width="2" fill="none"
  d="M 264.4,726.1 L 264.4,171.9 M 250.6,699.7 L 278.3,699.7 M 250.6,435.8 L 278.3,435.8 M 250.6,171.9 L 278.3,171.9 "
 />

<text x="888.0" y="449.0" font-family="Arial" font-size="28.0" fill="#228b22" writing-mode="tb" text-anchor="middle">
TEOs layers act eq
</text>

<text x="838.1" y="710.8" font-family="Arial" font-size="28.0" fill="#228b22" text-anchor="start">
0.3
</text>

<text x="838.1" y="446.9" font-family="Arial" font-size="28.0" fill="#228b22" text-anchor="start">
0.31
</text>

<text x="838.1" y="183.0" font-family="Arial" font-size="28.0" fill="#228b22" text-anchor="start">
0.32
</text>
<path stroke="#228b22" stroke-width="2" fill="none"
  d="M 818.7,726.1 L 818.7,171.9 M 804.8,699.7 L 832.6,699.7 M 804.8,435.8 L 832.6,435.8 M 804.8,171.9 L 832.6,171.9 "
 />

</g>

<g transform="translate(0.0,-616.0)">

<g transform="translate(0.0,-0.0)">
<path stroke="#ff0000" stroke-width="1" fill="none"
  d="M 264.4,726.1 L 297.7,726.1 "
 />

<text x="303.2" y="737.2" font-family="Arial" font-size="22.4" fill="#ff0000" text-anchor="start">
V1p layers act eq
</text>

</g>

<g transform="translate(252.0,-0.0)">
<path stroke="#228b22" stroke-width="1" fill="none"
  d="M 264.4,726.1 L 297.7,726.1 "
 />

<text x="303.2" y="737.2" font-family="Arial" font-size="22.4" fill="#228b22" text-anchor="start">
TEOs layers act eq
</text>

</g>

</g>

<g>
<path stroke="#ff0000" stroke-width="1" fill="none"
  d="M 264.4,581.3 
L 818.7,407.4 "
 />
<path stroke="#228b22" stroke-width="1" fill="none"
  d="M 264.4,224.1 
L 818.7,532.7 "
 />

</g>
</svg>
