<?xml version="1.0" encoding="ISO-8859-1" standalone="yes"?>
<svg width="484.988" height="270.195">
  <defs> 
    <marker id="ArrowEnd" viewBox="0 0 10 10" refX="0" refY="5" 
     markerUnits="strokeWidth" 
     markerWidth="4" 
     markerHeight="3" 
     orient="auto"> 
        <path d="M 0 0 L 10 5 L 0 10 z" /> 
    </marker>
    <marker id="ArrowStart" viewBox="0 0 10 10" refX="10" refY="5" 
     markerUnits="strokeWidth" 
     markerWidth="4" 
     markerHeight="3" 
     orient="auto"> 
        <path d="M 10 0 L 0 5 L 10 10 z" /> 
    </marker> </defs>
<g>
<path style="stroke:#000000; stroke-width:1.59941; fill:none" d="M 86.3518 225.234L 88.7498 225.234"/>
<path style="stroke:#000000; stroke-width:1.59941; fill:none" d="M 86.3518 215.636L 88.7498 215.636"/>
<path style="stroke:#000000; stroke-width:1.59941; fill:none" d="M 86.3518 206.043L 88.7498 206.043"/>
<path style="stroke:#000000; stroke-width:1.59941; fill:none" d="M 86.3518 196.445L 88.7498 196.445"/>
<path style="stroke:#000000; stroke-width:1.59941; fill:none" d="M 86.3518 186.847L 88.7498 186.847"/>
<path style="stroke:#000000; stroke-width:1.59941; fill:none" d="M 86.3518 177.253L 88.7498 177.253"/>
<path style="stroke:#000000; stroke-width:1.59941; fill:none" d="M 86.3518 168.457L 88.7498 168.457"/>
<path style="stroke:#000000; stroke-width:1.59941; fill:none" d="M 86.3518 158.859L 88.7498 158.859"/>
<path style="stroke:#000000; stroke-width:1.59941; fill:none" d="M 86.3518 149.261L 88.7498 149.261"/>
<path style="stroke:#000000; stroke-width:1.59941; fill:none" d="M 86.3518 139.668L 88.7498 139.668"/>
<path style="stroke:#000000; stroke-width:1.59941; fill:none" d="M 86.3518 130.07L 88.7498 130.07"/>
<path style="stroke:#000000; stroke-width:1.59941; fill:none" d="M 86.3518 121.273L 88.7498 121.273"/>
<path style="stroke:#000000; stroke-width:1.59941; fill:none" d="M 86.3518 111.675L 88.7498 111.675"/>
<path style="stroke:#000000; stroke-width:1.59941; fill:none" d="M 86.3518 102.082L 88.7498 102.082"/>
<path style="stroke:#000000; stroke-width:1.59941; fill:none" d="M 86.3518 92.484L 88.7498 92.484"/>
<path style="stroke:#000000; stroke-width:1.59941; fill:none" d="M 86.3518 82.886L 88.7498 82.886"/>
<path style="stroke:#000000; stroke-width:1.59941; fill:none" d="M 86.3518 73.293L 88.7498 73.293"/>
<path style="stroke:#000000; stroke-width:1.59941; fill:none" d="M 86.3518 63.695L 88.7498 63.695"/>
<path style="stroke:#000000; stroke-width:1.59941; fill:none" d="M 86.3518 54.898L 88.7498 54.898"/>
<path style="stroke:#000000; stroke-width:1.59941; fill:none" d="M 86.3518 45.3L 88.7498 45.3"/>
<path style="stroke:#000000; stroke-width:1.59941; fill:none" d="M 86.3518 35.703L 88.7498 35.703"/>
<path style="stroke:#000000; stroke-width:1.59941; fill:none" d="M 476.606 225.234L 474.207 225.234"/>
<path style="stroke:#000000; stroke-width:1.59941; fill:none" d="M 476.606 215.636L 474.207 215.636"/>
<path style="stroke:#000000; stroke-width:1.59941; fill:none" d="M 476.606 206.043L 474.207 206.043"/>
<path style="stroke:#000000; stroke-width:1.59941; fill:none" d="M 476.606 196.445L 474.207 196.445"/>
<path style="stroke:#000000; stroke-width:1.59941; fill:none" d="M 476.606 186.847L 474.207 186.847"/>
<path style="stroke:#000000; stroke-width:1.59941; fill:none" d="M 476.606 177.253L 474.207 177.253"/>
<path style="stroke:#000000; stroke-width:1.59941; fill:none" d="M 476.606 168.457L 474.207 168.457"/>
<path style="stroke:#000000; stroke-width:1.59941; fill:none" d="M 476.606 158.859L 474.207 158.859"/>
<path style="stroke:#000000; stroke-width:1.59941; fill:none" d="M 476.606 149.261L 474.207 149.261"/>
<path style="stroke:#000000; stroke-width:1.59941; fill:none" d="M 476.606 139.668L 474.207 139.668"/>
<path style="stroke:#000000; stroke-width:1.59941; fill:none" d="M 476.606 130.07L 474.207 130.07"/>
<path style="stroke:#000000; stroke-width:1.59941; fill:none" d="M 476.606 121.273L 474.207 121.273"/>
<path style="stroke:#000000; stroke-width:1.59941; fill:none" d="M 476.606 111.675L 474.207 111.675"/>
<path style="stroke:#000000; stroke-width:1.59941; fill:none" d="M 476.606 102.082L 474.207 102.082"/>
<path style="stroke:#000000; stroke-width:1.59941; fill:none" d="M 476.606 92.484L 474.207 92.484"/>
<path style="stroke:#000000; stroke-width:1.59941; fill:none" d="M 476.606 82.886L 474.207 82.886"/>
<path style="stroke:#000000; stroke-width:1.59941; fill:none" d="M 476.606 73.293L 474.207 73.293"/>
<path style="stroke:#000000; stroke-width:1.59941; fill:none" d="M 476.606 63.695L 474.207 63.695"/>
<path style="stroke:#000000; stroke-width:1.59941; fill:none" d="M 476.606 54.898L 474.207 54.898"/>
<path style="stroke:#000000; stroke-width:1.59941; fill:none" d="M 476.606 45.3L 474.207 45.3"/>
<path style="stroke:#000000; stroke-width:1.59941; fill:none" d="M 476.606 35.703L 474.207 35.703"/>
<path style="stroke:#000000; stroke-width:1.59941; fill:none" d="M 86.3518 225.234L 91.1488 225.234"/>
<path style="stroke:#000000; stroke-width:1.59941; fill:none" d="M 86.3518 177.253L 91.1488 177.253"/>
<path style="stroke:#000000; stroke-width:1.59941; fill:none" d="M 86.3518 130.07L 91.1488 130.07"/>
<path style="stroke:#000000; stroke-width:1.59941; fill:none" d="M 86.3518 82.886L 91.1488 82.886"/>
<path style="stroke:#000000; stroke-width:1.59941; fill:none" d="M 86.3518 35.703L 91.1488 35.703"/>
<path style="stroke:#000000; stroke-width:1.59941; fill:none" d="M 476.606 225.234L 471.809 225.234"/>
<path style="stroke:#000000; stroke-width:1.59941; fill:none" d="M 476.606 177.253L 471.809 177.253"/>
<path style="stroke:#000000; stroke-width:1.59941; fill:none" d="M 476.606 130.07L 471.809 130.07"/>
<path style="stroke:#000000; stroke-width:1.59941; fill:none" d="M 476.606 82.886L 471.809 82.886"/>
<path style="stroke:#000000; stroke-width:1.59941; fill:none" d="M 476.606 35.703L 471.809 35.703"/>
<path style="stroke:none; fill-rule:evenodd; fill:#000000" d="M 36.3477 214.195C 34.9414 214.195 33.6602 214.824 32.8711 215.894C 31.8906 217.23 31.4024 219.281 31.4024 222.105C 31.4024 227.253 33.1055 229.992 36.3516 229.992C 39.5508 229.992 41.3008 227.257 41.3008 222.234C 41.3008 219.261 40.832 217.277 39.8281 215.894C 39.043 214.808 37.7813 214.195 36.3516 214.195L 36.3477 214.195zM 36.3477 215.894C 38.3867 215.894 39.3946 217.957 39.3946 222.046C 39.3946 226.367 38.4063 228.39 36.3047 228.39C 34.3086 228.39 33.3008 226.285 33.3008 222.109C 33.3008 217.937 34.3086 215.894 36.3477 215.894z"/>
<path style="stroke:none; fill-rule:evenodd; fill:#000000" d="M 44.3008 229.492L 46.5 229.492L 46.5 227.293L 44.3008 227.293L 44.3008 229.492z"/>
<path style="stroke:none; fill-rule:evenodd; fill:#000000" d="M 54.3477 214.195C 52.9414 214.195 51.6602 214.824 50.8711 215.894C 49.8906 217.23 49.4024 219.281 49.4024 222.105C 49.4024 227.253 51.1055 229.992 54.3516 229.992C 57.5508 229.992 59.3008 227.257 59.3008 222.234C 59.3008 219.261 58.8318 217.277 57.8278 215.894C 57.0428 214.808 55.7813 214.195 54.3516 214.195L 54.3477 214.195zM 54.3477 215.894C 56.3867 215.894 57.3948 217.957 57.3948 222.046C 57.3948 226.367 56.4063 228.39 54.3047 228.39C 52.3086 228.39 51.3008 226.285 51.3008 222.109C 51.3008 217.937 52.3086 215.894 54.3477 215.894z"/>
<path style="stroke:none; fill-rule:evenodd; fill:#000000" d="M 66.3478 214.195C 64.9418 214.195 63.6598 214.824 62.8708 215.894C 61.8908 217.23 61.4028 219.281 61.4028 222.105C 61.4028 227.253 63.1058 229.992 66.3518 229.992C 69.5508 229.992 71.3008 227.257 71.3008 222.234C 71.3008 219.261 70.8318 217.277 69.8278 215.894C 69.0428 214.808 67.7808 214.195 66.3518 214.195L 66.3478 214.195zM 66.3478 215.894C 68.3868 215.894 69.3948 217.957 69.3948 222.046C 69.3948 226.367 68.4058 228.39 66.3048 228.39C 64.3088 228.39 63.3008 226.285 63.3008 222.109C 63.3008 217.937 64.3088 215.894 66.3478 215.894z"/>
<path style="stroke:none; fill-rule:evenodd; fill:#000000" d="M 36.3477 166.996C 34.9414 166.996 33.6602 167.625 32.8711 168.695C 31.8906 170.031 31.4024 172.082 31.4024 174.906C 31.4024 180.054 33.1055 182.793 36.3516 182.793C 39.5508 182.793 41.3008 180.058 41.3008 175.035C 41.3008 172.062 40.832 170.078 39.8281 168.695C 39.043 167.609 37.7813 166.996 36.3516 166.996L 36.3477 166.996zM 36.3477 168.695C 38.3867 168.695 39.3946 170.757 39.3946 174.847C 39.3946 179.168 38.4063 181.191 36.3047 181.191C 34.3086 181.191 33.3008 179.086 33.3008 174.91C 33.3008 170.738 34.3086 168.695 36.3477 168.695z"/>
<path style="stroke:none; fill-rule:evenodd; fill:#000000" d="M 44.3008 182.293L 46.5 182.293L 46.5 180.093L 44.3008 180.093L 44.3008 182.293z"/>
<path style="stroke:none; fill-rule:evenodd; fill:#000000" d="M 54.3477 166.996C 52.9414 166.996 51.6602 167.625 50.8711 168.695C 49.8906 170.031 49.4024 172.082 49.4024 174.906C 49.4024 180.054 51.1055 182.793 54.3516 182.793C 57.5508 182.793 59.3008 180.058 59.3008 175.035C 59.3008 172.062 58.8318 170.078 57.8278 168.695C 57.0428 167.609 55.7813 166.996 54.3516 166.996L 54.3477 166.996zM 54.3477 168.695C 56.3867 168.695 57.3948 170.757 57.3948 174.847C 57.3948 179.168 56.4063 181.191 54.3047 181.191C 52.3086 181.191 51.3008 179.086 51.3008 174.91C 51.3008 170.738 52.3086 168.695 54.3477 168.695z"/>
<path style="stroke:none; fill-rule:evenodd; fill:#000000" d="M 70.6958 166.996L 62.7778 166.996L 61.6328 175.32L 63.3948 175.32C 64.2848 174.265 65.0278 173.898 66.2228 173.898C 68.2888 173.898 69.5978 175.296 69.5978 177.562C 69.5978 179.757 68.3168 181.093 66.2268 181.093C 64.5548 181.093 63.5308 180.257 63.0738 178.539L 61.1598 178.539C 61.4178 179.793 61.6328 180.394 62.0898 180.957C 62.9528 182.121 64.5118 182.793 66.2418 182.793C 69.3358 182.793 71.4998 180.543 71.4998 177.3C 71.4998 174.273 69.4888 172.195 66.5468 172.195C 65.4688 172.195 64.6018 172.48 63.7148 173.136L 64.3208 168.894L 70.7028 168.894L 70.6958 166.996z"/>
<path style="stroke:none; fill-rule:evenodd; fill:#000000" d="M 36.3477 119.793C 34.9414 119.793 33.6602 120.421 32.8711 121.492C 31.8906 122.828 31.4024 124.879 31.4024 127.703C 31.4024 132.851 33.1055 135.589 36.3516 135.589C 39.5508 135.589 41.3008 132.855 41.3008 127.832C 41.3008 124.859 40.832 122.875 39.8281 121.492C 39.043 120.406 37.7813 119.793 36.3516 119.793L 36.3477 119.793zM 36.3477 121.496C 38.3867 121.496 39.3946 123.558 39.3946 127.648C 39.3946 131.968 38.4063 133.992 36.3047 133.992C 34.3086 133.992 33.3008 131.886 33.3008 127.711C 33.3008 123.539 34.3086 121.496 36.3477 121.496z"/>
<path style="stroke:none; fill-rule:evenodd; fill:#000000" d="M 44.3008 135.093L 46.5 135.093L 46.5 132.894L 44.3008 132.894L 44.3008 135.093z"/>
<path style="stroke:none; fill-rule:evenodd; fill:#000000" d="M 54.0977 124.199L 54.0977 135.093L 55.8946 135.093L 55.8946 119.796L 54.6406 119.796C 53.9727 122.148 53.5391 122.472 50.5977 122.839L 50.5977 124.195L 54.0977 124.199z"/>
<path style="stroke:none; fill-rule:evenodd; fill:#000000" d="M 66.3478 119.793C 64.9418 119.793 63.6598 120.421 62.8708 121.492C 61.8908 122.828 61.4028 124.879 61.4028 127.703C 61.4028 132.851 63.1058 135.589 66.3518 135.589C 69.5508 135.589 71.3008 132.855 71.3008 127.832C 71.3008 124.859 70.8318 122.875 69.8278 121.492C 69.0428 120.406 67.7808 119.793 66.3518 119.793L 66.3478 119.793zM 66.3478 121.496C 68.3868 121.496 69.3948 123.558 69.3948 127.648C 69.3948 131.968 68.4058 133.992 66.3048 133.992C 64.3088 133.992 63.3008 131.886 63.3008 127.711C 63.3008 123.539 64.3088 121.496 66.3478 121.496z"/>
<path style="stroke:none; fill-rule:evenodd; fill:#000000" d="M 36.3477 72.593C 34.9414 72.593 33.6602 73.222 32.8711 74.293C 31.8906 75.629 31.4024 77.679 31.4024 80.503C 31.4024 85.652 33.1055 88.39 36.3516 88.39C 39.5508 88.39 41.3008 85.656 41.3008 80.632C 41.3008 77.66 40.832 75.675 39.8281 74.293C 39.043 73.207 37.7813 72.593 36.3516 72.593L 36.3477 72.593zM 36.3477 74.293C 38.3867 74.293 39.3946 76.355 39.3946 80.445C 39.3946 84.765 38.4063 86.789 36.3047 86.789C 34.3086 86.789 33.3008 84.683 33.3008 80.507C 33.3008 76.336 34.3086 74.293 36.3477 74.293z"/>
<path style="stroke:none; fill-rule:evenodd; fill:#000000" d="M 44.3008 87.894L 46.5 87.894L 46.5 85.695L 44.3008 85.695L 44.3008 87.894z"/>
<path style="stroke:none; fill-rule:evenodd; fill:#000000" d="M 54.0977 76.996L 54.0977 87.89L 55.8946 87.89L 55.8946 72.593L 54.6406 72.593C 53.9727 74.945 53.5391 75.269 50.5977 75.636L 50.5977 76.992L 54.0977 76.996z"/>
<path style="stroke:none; fill-rule:evenodd; fill:#000000" d="M 70.6958 72.593L 62.7778 72.593L 61.6328 80.918L 63.3948 80.918C 64.2848 79.863 65.0278 79.496 66.2228 79.496C 68.2888 79.496 69.5978 80.894 69.5978 83.16C 69.5978 85.355 68.3168 86.691 66.2268 86.691C 64.5548 86.691 63.5308 85.855 63.0738 84.136L 61.1598 84.136C 61.4178 85.39 61.6328 85.992 62.0898 86.554C 62.9528 87.718 64.5118 88.39 66.2418 88.39C 69.3358 88.39 71.4998 86.14 71.4998 82.898C 71.4998 79.871 69.4888 77.793 66.5468 77.793C 65.4688 77.793 64.6018 78.078 63.7148 78.734L 64.3208 74.492L 70.7028 74.492L 70.6958 72.593z"/>
<path style="stroke:none; fill-rule:evenodd; fill:#000000" d="M 36.3477 24.695C 34.9414 24.695 33.6602 25.324 32.8711 26.394C 31.8906 27.73 31.4024 29.781 31.4024 32.605C 31.4024 37.753 33.1055 40.492 36.3516 40.492C 39.5508 40.492 41.3008 37.757 41.3008 32.734C 41.3008 29.761 40.832 27.777 39.8281 26.394C 39.043 25.308 37.7813 24.695 36.3516 24.695L 36.3477 24.695zM 36.3477 26.394C 38.3867 26.394 39.3946 28.457 39.3946 32.546C 39.3946 36.867 38.4063 38.89 36.3047 38.89C 34.3086 38.89 33.3008 36.785 33.3008 32.609C 33.3008 28.437 34.3086 26.394 36.3477 26.394z"/>
<path style="stroke:none; fill-rule:evenodd; fill:#000000" d="M 44.3008 39.992L 46.5 39.992L 46.5 37.793L 44.3008 37.793L 44.3008 39.992z"/>
<path style="stroke:none; fill-rule:evenodd; fill:#000000" d="M 59.2888 38.093L 51.2656 38.093C 51.457 36.847 52.1446 36.05 54.0196 34.949L 56.168 33.789C 58.2968 32.629 59.3948 31.054 59.3948 29.183C 59.3948 27.914 58.8788 26.73 57.9768 25.91C 57.0738 25.093 55.957 24.703 54.5156 24.703C 52.582 24.703 51.1367 25.39 50.3008 26.683C 49.7656 27.5 49.5274 28.449 49.4844 30L 51.3828 30C 51.4453 28.98 51.5742 28.359 51.836 27.871C 52.332 26.957 53.3242 26.402 54.4727 26.402C 56.1992 26.402 57.4958 27.629 57.4958 29.265C 57.4958 30.468 56.7852 31.5 55.4219 32.277L 53.4375 33.394C 50.2422 35.199 49.3125 36.64 49.1367 39.996L 59.2928 39.996L 59.2888 38.093z"/>
<path style="stroke:none; fill-rule:evenodd; fill:#000000" d="M 66.3478 24.695C 64.9418 24.695 63.6598 25.324 62.8708 26.394C 61.8908 27.73 61.4028 29.781 61.4028 32.605C 61.4028 37.753 63.1058 40.492 66.3518 40.492C 69.5508 40.492 71.3008 37.757 71.3008 32.734C 71.3008 29.761 70.8318 27.777 69.8278 26.394C 69.0428 25.308 67.7808 24.695 66.3518 24.695L 66.3478 24.695zM 66.3478 26.394C 68.3868 26.394 69.3948 28.457 69.3948 32.546C 69.3948 36.867 68.4058 38.89 66.3048 38.89C 64.3088 38.89 63.3008 36.785 63.3008 32.609C 63.3008 28.437 64.3088 26.394 66.3478 26.394z"/>
<path style="stroke:none; fill-rule:evenodd; fill:#000000" d="M 8.8985 203.492L 8.8985 196.57L 6.1992 196.57L 6.1992 203.492L 2.6992 203.492L 2.6992 195.64L 0 195.64L 0 206.691L 15.6992 206.691L 15.6992 203.492L 8.8985 203.492z"/>
<path style="stroke:none; fill-rule:evenodd; fill:#000000" d="M 10.8008 183.781C 10.543 183.761 10.4336 183.761 10.2813 183.761C 9.1133 183.761 8.0274 183.933 7.207 184.214C 5.086 184.988 3.8047 186.867 3.8047 189.222C 3.8047 192.566 6.2344 194.617 10.1563 194.617C 13.9063 194.617 16.2031 192.589 16.2031 189.285C 16.2031 186.675 14.7149 184.558 12.4219 183.89L 12.4219 186.867C 13.3594 187.23 13.9024 188.074 13.9024 189.175C 13.9024 190.039 13.5352 190.73 12.8789 191.16C 12.4453 191.437 11.918 191.546 10.8047 191.589L 10.8008 183.781zM 8.8008 191.55C 7.0039 191.359 6.1016 190.601 6.1016 189.265C 6.1016 188.511 6.4727 187.82 7.086 187.386C 7.5235 187.109 7.9844 186.976 8.7969 186.914L 8.8008 191.55z"/>
<path style="stroke:none; fill-rule:evenodd; fill:#000000" d="M 15.332 171.781C 14.836 172.336 14.5117 172.492 13.9024 172.492L 7.4024 172.492C 5.0196 172.492 3.8047 174.105 3.8047 177.25C 3.8047 180.394 5.1563 182.031 7.8867 182.222L 7.8867 179.339C 6.6133 179.191 6.2031 178.699 6.2031 177.226C 6.2031 176.074 6.5938 175.496 7.3789 175.496C 7.7696 175.496 8.1172 175.687 8.293 176.007C 8.5078 176.414 8.5078 176.414 8.7461 177.89L 8.961 179.086C 9.3516 181.375 10.5508 182.488 12.6641 182.488C 13.6641 182.488 14.4922 182.211 15.082 181.679C 15.7774 181.019 16.1914 180.019 16.1914 178.992C 16.1914 177.714 15.6289 176.539 14.5235 175.492C 15.1289 175.492 15.3438 175.429 15.6914 175.14L 15.6914 171.781L 15.332 171.781zM 11.0235 175.492C 12.793 175.492 13.7969 176.347 13.7969 177.867C 13.7969 178.871 13.2539 179.492 12.3789 179.492C 11.461 179.492 11.0274 179.023 10.7656 177.781L 10.5703 176.757C 10.418 175.968 10.375 175.839 10.1992 175.496L 11.0235 175.492z"/>
<path style="stroke:none; fill-rule:evenodd; fill:#000000" d="M 4 169.695L 15.6992 169.695L 15.6992 166.695L 9.543 166.695C 7.7852 166.695 6.9024 165.816 6.9024 164.054C 6.9024 163.734 6.9102 163.519 6.9336 163.109L 3.9024 163.109C 3.9024 163.281 3.9024 163.386 3.9024 163.472C 3.9024 164.847 4.7891 166.05 6.3281 166.695L 4 166.695L 4 169.695z"/>
<path style="stroke:none; fill-rule:evenodd; fill:#000000" d="M 9.5 151.793L 9.5 148.007C 9.5 146.578 10.0586 145.961 11.3633 145.961C 11.4922 145.961 11.7031 145.961 11.9844 145.98C 12.3906 146 12.7774 146 13.0117 146C 14.4688 146 14.9414 145.914 15.6914 145.492L 15.6914 142.074L 15.1133 142.074C 14.836 142.57 14.5117 142.765 13.8242 142.765C 9.1953 142.851 8.9805 142.937 8.1211 144.945C 7.4336 143.175 6.1641 142.293 4.2461 142.293C 3 142.293 1.8594 142.726 1.082 143.48C 0.351601 144.191 0.00389862 145.187 0.00389862 146.527L 0.00389862 154.984L 15.7031 154.984L 15.7031 151.785L 9.5 151.793zM 6.8008 151.793L 2.7031 151.793L 2.7031 147.82C 2.7031 146.879 2.7891 146.484 3.1133 146.089C 3.4336 145.695 3.9727 145.5 4.707 145.5C 5.461 145.5 6.0625 145.718 6.3867 146.089C 6.6875 146.437 6.793 146.879 6.793 147.82L 6.8008 151.793z"/>
<path style="stroke:none; fill-rule:evenodd; fill:#000000" d="M 10.8008 129.781C 10.543 129.761 10.4336 129.761 10.2813 129.761C 9.1133 129.761 8.0274 129.933 7.207 130.214C 5.086 130.988 3.8047 132.867 3.8047 135.222C 3.8047 138.566 6.2344 140.617 10.1563 140.617C 13.9063 140.617 16.2031 138.589 16.2031 135.285C 16.2031 132.675 14.7149 130.558 12.4219 129.89L 12.4219 132.867C 13.3594 133.23 13.9024 134.074 13.9024 135.175C 13.9024 136.039 13.5352 136.73 12.8789 137.16C 12.4453 137.437 11.918 137.546 10.8047 137.589L 10.8008 129.781zM 8.8008 137.55C 7.0039 137.359 6.1016 136.601 6.1016 135.265C 6.1016 134.511 6.4727 133.82 7.086 133.386C 7.5235 133.109 7.9844 132.976 8.7969 132.914L 8.8008 137.55z"/>
<path style="stroke:none; fill-rule:evenodd; fill:#000000" d="M 7.7969 118.187C 5.3086 118.23 3.8008 120.136 3.8008 123.277C 3.8008 126.246 5.293 128.086 7.6953 128.086C 8.4727 128.086 9.1446 127.851 9.5977 127.437C 10.0078 127.027 10.2031 126.66 10.5703 125.531L 11.6953 121.914C 11.9297 121.156 12.168 120.894 12.6446 120.894C 13.3555 120.894 13.7891 121.734 13.7891 123.136C 13.7891 123.91 13.6406 124.535 13.3867 124.925C 13.1563 125.246 12.9219 125.375 12.3008 125.507L 12.3008 128.461C 14.8477 128.375 16.1914 126.503 16.1914 122.972C 16.1914 121.359 15.8477 120.132 15.1563 119.269C 14.4649 118.41 13.3828 117.89 12.2344 117.89C 10.7227 117.89 9.7461 118.648 9.293 120.187L 8.1914 124.023C 7.9336 124.867 7.7617 125.082 7.2852 125.082C 6.6367 125.082 6.2031 124.386 6.2031 123.32C 6.2031 121.863 6.7266 121.144 7.7969 121.125L 7.7969 118.187z"/>
<path style="stroke:none; fill-rule:evenodd; fill:#000000" d="M 3.9961 112.793L 3.9961 115.793L 20.3985 115.793L 20.3985 112.793L 14.3203 112.793C 15.6016 112.062 16.2031 111.027 16.2031 109.562C 16.2031 106.761 13.5664 104.695 10.0156 104.695C 8.3711 104.695 6.7305 105.168 5.6485 105.945C 4.5469 106.718 3.8086 108.164 3.8086 109.562C 3.8086 111.027 4.4375 112.058 5.7344 112.793L 3.9961 112.793zM 6.3008 110.242C 6.3008 108.711 7.8047 107.695 10.0547 107.695C 12.1914 107.695 13.6992 108.753 13.6992 110.242C 13.6992 111.753 12.2188 112.789 10.0117 112.789C 7.8086 112.789 6.3008 111.753 6.3008 110.242z"/>
<path style="stroke:none; fill-rule:evenodd; fill:#000000" d="M 3.8008 97.367C 3.8008 100.918 6.1641 103.093 10 103.093C 13.8555 103.093 16.1992 100.921 16.1992 97.343C 16.1992 93.812 13.8399 91.593 10.0899 91.593C 6.125 91.593 3.8047 93.722 3.8047 97.363L 3.8008 97.367zM 6.1992 97.343C 6.1992 95.679 7.7149 94.593 10.043 94.593C 12.2578 94.593 13.7969 95.718 13.7969 97.343C 13.7969 98.988 12.2617 100.089 10 100.089C 7.7383 100.089 6.2031 98.988 6.2031 97.343L 6.1992 97.343z"/>
<path style="stroke:none; fill-rule:evenodd; fill:#000000" d="M 4 89.293L 15.6992 89.293L 15.6992 86.293L 8.6211 86.293C 7.2227 86.293 6.3047 85.32 6.3047 83.843C 6.3047 82.546 7.0274 81.894 8.4258 81.894L 15.7031 81.894L 15.7031 78.894L 7.8594 78.894C 5.2813 78.894 3.8047 80.316 3.8047 82.796C 3.8047 84.371 4.3985 85.425 5.7266 86.289L 4.0039 86.289L 4 89.293z"/>
<path style="stroke:none; fill-rule:evenodd; fill:#000000" d="M 7.7969 66.589C 5.3086 66.632 3.8008 68.539 3.8008 71.679C 3.8008 74.648 5.293 76.488 7.6953 76.488C 8.4727 76.488 9.1446 76.253 9.5977 75.839C 10.0078 75.429 10.2031 75.062 10.5703 73.933L 11.6953 70.316C 11.9297 69.558 12.168 69.296 12.6446 69.296C 13.3555 69.296 13.7891 70.136 13.7891 71.539C 13.7891 72.312 13.6406 72.937 13.3867 73.328C 13.1563 73.648 12.9219 73.777 12.3008 73.91L 12.3008 76.863C 14.8477 76.777 16.1914 74.906 16.1914 71.375C 16.1914 69.761 15.8477 68.535 15.1563 67.671C 14.4649 66.812 13.3828 66.293 12.2344 66.293C 10.7227 66.293 9.7461 67.05 9.293 68.589L 8.1914 72.425C 7.9336 73.269 7.7617 73.484 7.2852 73.484C 6.6367 73.484 6.2031 72.789 6.2031 71.722C 6.2031 70.265 6.7266 69.546 7.7969 69.527L 7.7969 66.589z"/>
<path style="stroke:none; fill-rule:evenodd; fill:#000000" d="M 10.8008 54.179C 10.543 54.16 10.4336 54.16 10.2813 54.16C 9.1133 54.16 8.0274 54.332 7.207 54.613C 5.086 55.386 3.8047 57.265 3.8047 59.621C 3.8047 62.964 6.2344 65.015 10.1563 65.015C 13.9063 65.015 16.2031 62.988 16.2031 59.683C 16.2031 57.074 14.7149 54.957 12.4219 54.289L 12.4219 57.265C 13.3594 57.629 13.9024 58.472 13.9024 59.574C 13.9024 60.437 13.5352 61.129 12.8789 61.558C 12.4453 61.836 11.918 61.945 10.8047 61.988L 10.8008 54.179zM 8.8008 61.953C 7.0039 61.761 6.1016 61.003 6.1016 59.668C 6.1016 58.914 6.4727 58.222 7.086 57.789C 7.5235 57.511 7.9844 57.379 8.7969 57.316L 8.8008 61.953z"/>
<path style="stroke:#000000; stroke-width:1.59941; fill:none" d="M 86.3478 225.543L 475.656 225.543L 475.656 33.441L 86.3478 33.441L 86.3478 225.543z"/>
<path style="stroke:none; fill-rule:evenodd; fill:#000000" d="M 192.703 5.04602C 192.703 3.60101 192.383 2.65201 191.606 1.789C 190.551 0.625 188.809 0 186.547 0C 182.778 0 180.606 1.78101 180.606 4.867C 180.606 7.32001 181.848 8.51501 185.082 9.125L 187.309 9.55801C 189.492 9.96802 190.301 10.578 190.301 11.863C 190.301 13.187 189.074 13.992 187.082 13.992C 184.852 13.992 183.602 13.031 183.492 11.285L 180.297 11.285C 180.489 14.652 182.805 16.492 186.832 16.492C 190.899 16.492 193.301 14.582 193.301 11.363C 193.301 8.86301 192.039 7.56201 189.098 6.996L 186.613 6.51901C 184.285 6.06601 183.606 5.60901 183.606 4.457C 183.606 3.26102 184.668 2.50302 186.34 2.50302C 188.403 2.50302 189.555 3.39801 189.664 5.05402L 192.703 5.04602z"/>
<path style="stroke:none; fill-rule:evenodd; fill:#000000" d="M 198.5 4.332L 195.5 4.332L 195.5 15.988L 198.5 15.988L 198.5 4.332zM 198.5 0.292999L 195.5 0.292999L 195.5 2.992L 198.5 2.992L 198.5 0.292999z"/>
<path style="stroke:none; fill-rule:evenodd; fill:#000000" d="M 201.301 4.293L 201.301 15.992L 204.301 15.992L 204.301 8.914C 204.301 7.47202 205.074 6.59702 206.363 6.59702C 207.371 6.59702 207.996 7.18701 207.996 8.129L 207.996 15.996L 210.996 15.996L 210.996 8.918C 210.996 7.47601 211.789 6.60101 213.113 6.60101C 214.149 6.60101 214.789 7.19101 214.789 8.13202L 214.789 16L 217.789 16L 217.789 7.72202C 217.789 5.44901 216.406 4.10501 214.074 4.10501C 212.606 4.10501 211.571 4.63602 210.664 5.875C 210.106 4.746 208.938 4.10501 207.492 4.10501C 206.156 4.10501 205.293 4.57001 204.297 5.789L 204.297 4.30402L 201.301 4.293z"/>
<path style="stroke:none; fill-rule:evenodd; fill:#000000" d="M 230.899 15.996L 230.899 4.29602L 227.899 4.29602L 227.899 11.679C 227.899 13.074 226.926 13.992 225.449 13.992C 224.153 13.992 223.5 13.296 223.5 11.875L 223.5 4.29602L 220.5 4.29602L 220.5 12.441C 220.5 15.019 221.922 16.492 224.403 16.492C 225.977 16.492 227.031 15.91 227.895 14.609L 227.895 15.996L 230.899 15.996z"/>
<path style="stroke:none; fill-rule:evenodd; fill:#000000" d="M 233.899 15.992L 236.899 15.992L 236.899 0.292999L 233.899 0.292999L 233.899 15.992z"/>
<path style="stroke:none; fill-rule:evenodd; fill:#000000" d="M 249.711 15.629C 249.156 15.132 249 14.808 249 14.199L 249 7.69901C 249 5.31601 247.387 4.10101 244.242 4.10101C 241.098 4.10101 239.461 5.453 239.27 8.18301L 242.153 8.18301C 242.301 6.91 242.793 6.5 244.266 6.5C 245.418 6.5 245.996 6.89001 245.996 7.67502C 245.996 8.06601 245.805 8.414 245.485 8.58902C 245.078 8.80402 245.078 8.80402 243.602 9.04602L 242.406 9.26102C 240.117 9.65201 239.004 10.851 239.004 12.964C 239.004 13.964 239.281 14.793 239.813 15.382C 240.473 16.078 241.473 16.492 242.5 16.492C 243.778 16.492 244.953 15.929 246 14.824C 246 15.429 246.063 15.644 246.352 15.992L 249.711 15.992L 249.711 15.629zM 246 11.316C 246 13.086 245.145 14.089 243.625 14.089C 242.621 14.089 242 13.546 242 12.671C 242 11.753 242.469 11.32 243.711 11.058L 244.735 10.863C 245.524 10.711 245.653 10.668 245.996 10.492L 246 11.316z"/>
<path style="stroke:none; fill-rule:evenodd; fill:#000000" d="M 256.899 4.59302L 255.203 4.59302L 255.203 1.44101L 252.203 1.44101L 252.203 4.59302L 250.707 4.59302L 250.707 6.59302L 252.203 6.59302L 252.203 13.753C 252.203 15.586 253.172 16.492 255.153 16.492C 255.821 16.492 256.356 16.429 256.899 16.257L 256.899 14.14C 256.594 14.175 256.422 14.195 256.203 14.195C 255.399 14.195 255.203 13.961 255.203 12.925L 255.203 6.59702L 256.899 6.59702L 256.899 4.59302z"/>
<path style="stroke:none; fill-rule:evenodd; fill:#000000" d="M 262.102 4.332L 259.102 4.332L 259.102 15.988L 262.102 15.988L 262.102 4.332zM 262.102 0.292999L 259.102 0.292999L 259.102 2.992L 262.102 2.992L 262.102 0.292999z"/>
<path style="stroke:none; fill-rule:evenodd; fill:#000000" d="M 270.125 4.09302C 266.574 4.09302 264.399 6.457 264.399 10.293C 264.399 14.148 266.571 16.492 270.149 16.492C 273.68 16.492 275.899 14.132 275.899 10.382C 275.899 6.418 273.77 4.09702 270.129 4.09702L 270.125 4.09302zM 270.149 6.492C 271.813 6.492 272.899 8.00702 272.899 10.336C 272.899 12.55 271.774 14.089 270.149 14.089C 268.504 14.089 267.403 12.554 267.403 10.293C 267.403 8.03101 268.504 6.496 270.149 6.496L 270.149 6.492z"/>
<path style="stroke:none; fill-rule:evenodd; fill:#000000" d="M 278.199 4.293L 278.199 15.992L 281.199 15.992L 281.199 8.914C 281.199 7.51501 282.172 6.59702 283.649 6.59702C 284.946 6.59702 285.598 7.32001 285.598 8.71802L 285.598 15.996L 288.598 15.996L 288.598 8.15201C 288.598 5.57401 287.176 4.09702 284.696 4.09702C 283.121 4.09702 282.067 4.69101 281.203 6.01901L 281.203 4.29602L 278.199 4.293z"/>
<path style="stroke:none; fill-rule:evenodd; fill:#000000" d="M 300.899 9.793L 304.684 9.793C 306.113 9.793 306.731 10.351 306.731 11.656C 306.731 11.785 306.731 11.996 306.711 12.277C 306.692 12.683 306.692 13.07 306.692 13.304C 306.692 14.761 306.778 15.234 307.199 15.984L 310.617 15.984L 310.617 15.406C 310.121 15.129 309.926 14.804 309.926 14.117C 309.84 9.48801 309.754 9.27301 307.746 8.414C 309.516 7.72601 310.399 6.457 310.399 4.539C 310.399 3.293 309.965 2.15201 309.211 1.375C 308.5 0.644012 307.504 0.296021 306.164 0.296021L 297.707 0.296021L 297.707 15.996L 300.906 15.996L 300.899 9.793zM 300.899 7.09302L 300.899 2.996L 304.871 2.996C 305.813 2.996 306.207 3.082 306.602 3.40601C 306.996 3.72601 307.192 4.26501 307.192 5C 307.192 5.75302 306.973 6.35501 306.602 6.67902C 306.254 6.98001 305.813 7.086 304.871 7.086L 300.899 7.09302z"/>
<path style="stroke:none; fill-rule:evenodd; fill:#000000" d="M 322.914 11.093C 322.934 10.836 322.934 10.726 322.934 10.574C 322.934 9.40601 322.762 8.32001 322.481 7.5C 321.707 5.379 319.828 4.09702 317.473 4.09702C 314.129 4.09702 312.078 6.52701 312.078 10.449C 312.078 14.199 314.106 16.496 317.41 16.496C 320.02 16.496 322.137 15.007 322.805 12.714L 319.828 12.714C 319.465 13.648 318.621 14.195 317.52 14.195C 316.656 14.195 315.965 13.828 315.535 13.171C 315.258 12.738 315.149 12.211 315.106 11.097L 322.914 11.093zM 315.141 9.09302C 315.332 7.29602 316.09 6.39401 317.426 6.39401C 318.18 6.39401 318.871 6.76501 319.305 7.379C 319.582 7.81601 319.715 8.27701 319.778 9.08902L 315.141 9.09302z"/>
<path style="stroke:none; fill-rule:evenodd; fill:#000000" d="M 334.504 8.08902C 334.461 5.60101 332.555 4.09302 329.414 4.09302C 326.446 4.09302 324.606 5.586 324.606 7.98801C 324.606 8.76501 324.84 9.43701 325.254 9.89001C 325.664 10.3 326.031 10.496 327.16 10.863L 330.778 11.988C 331.535 12.222 331.797 12.461 331.797 12.937C 331.797 13.648 330.957 14.082 329.555 14.082C 328.781 14.082 328.156 13.933 327.766 13.679C 327.446 13.449 327.317 13.214 327.184 12.593L 324.231 12.593C 324.317 15.14 326.188 16.484 329.719 16.484C 331.332 16.484 332.559 16.14 333.422 15.449C 334.281 14.757 334.801 13.675 334.801 12.527C 334.801 11.015 334.043 10.039 332.504 9.586L 328.668 8.48401C 327.824 8.22601 327.61 8.05402 327.61 7.578C 327.61 6.92902 328.305 6.496 329.371 6.496C 330.828 6.496 331.547 7.01901 331.567 8.08902L 334.504 8.08902z"/>
<path style="stroke:none; fill-rule:evenodd; fill:#000000" d="M 347.301 15.996L 347.301 4.29602L 344.301 4.29602L 344.301 11.679C 344.301 13.074 343.328 13.992 341.852 13.992C 340.555 13.992 339.903 13.296 339.903 11.875L 339.903 4.29602L 336.903 4.29602L 336.903 12.441C 336.903 15.019 338.324 16.492 340.805 16.492C 342.379 16.492 343.434 15.91 344.297 14.609L 344.297 15.996L 347.301 15.996z"/>
<path style="stroke:none; fill-rule:evenodd; fill:#000000" d="M 350.301 15.992L 353.301 15.992L 353.301 0.292999L 350.301 0.292999L 350.301 15.992z"/>
<path style="stroke:none; fill-rule:evenodd; fill:#000000" d="M 361.297 4.59302L 359.602 4.59302L 359.602 1.44101L 356.602 1.44101L 356.602 4.59302L 355.106 4.59302L 355.106 6.59302L 356.602 6.59302L 356.602 13.753C 356.602 15.586 357.571 16.492 359.551 16.492C 360.219 16.492 360.754 16.429 361.297 16.257L 361.297 14.14C 360.992 14.175 360.821 14.195 360.602 14.195C 359.797 14.195 359.602 13.961 359.602 12.925L 359.602 6.59702L 361.297 6.59702L 361.297 4.59302z"/>
<path style="stroke:none; fill-rule:evenodd; fill:#000000" d="M 372.903 8.08902C 372.86 5.60101 370.953 4.09302 367.813 4.09302C 364.844 4.09302 363.004 5.586 363.004 7.98801C 363.004 8.76501 363.239 9.43701 363.653 9.89001C 364.063 10.3 364.43 10.496 365.559 10.863L 369.176 11.988C 369.934 12.222 370.196 12.461 370.196 12.937C 370.196 13.648 369.356 14.082 367.953 14.082C 367.18 14.082 366.555 13.933 366.164 13.679C 365.844 13.449 365.715 13.214 365.582 12.593L 362.629 12.593C 362.715 15.14 364.586 16.484 368.117 16.484C 369.731 16.484 370.957 16.14 371.821 15.449C 372.68 14.757 373.199 13.675 373.199 12.527C 373.199 11.015 372.442 10.039 370.903 9.586L 367.067 8.48401C 366.223 8.22601 366.008 8.05402 366.008 7.578C 366.008 6.92902 366.703 6.496 367.77 6.496C 369.227 6.496 369.946 7.01901 369.965 8.08902L 372.903 8.08902z"/>
<path style="stroke:none; fill-rule:evenodd; fill:#000000" d="M 376.832 225.234L 418.414 225.234L 418.414 212.441L 376.832 212.441L 376.832 225.234z"/>
<path style="stroke:#000000; stroke-width:0.0; fill:none" d="M 376.832 225.234L 418.414 225.234L 418.414 212.441L 376.832 212.441L 376.832 225.234z"/>
<path style="stroke:#000000; stroke-width:1.59941; fill:none" d="M 376.832 225.234L 418.414 225.234L 418.414 212.441L 376.832 212.441L 376.832 225.234z"/>
<path style="stroke:#000000; stroke-width:1.59941; fill:none" d="M 376.832 225.234L 418.414 225.234L 418.414 212.441L 376.832 212.441L 376.832 225.234z"/>
<path style="stroke:#000000; stroke-width:1.59941; fill:none" d="M 397.621 220.437L 397.621 205.246"/>
<path style="stroke:#000000; stroke-width:1.59941; fill:none" d="M 419.906 225.234L 419.906 222.836"/>
<path style="stroke:#000000; stroke-width:1.59941; fill:none" d="M 419.906 225.234L 419.906 220.437"/>
<path style="stroke:none; fill-rule:evenodd; fill:#ffffff" d="M 419.906 225.234L 461.489 225.234L 461.489 212.441L 419.906 212.441L 419.906 225.234z"/>
<path style="stroke:#000000; stroke-width:0.0; fill:none" d="M 419.906 225.234L 461.489 225.234L 461.489 212.441L 419.906 212.441L 419.906 225.234z"/>
<path style="stroke:#000000; stroke-width:1.59941; fill:none" d="M 419.906 225.234L 461.489 225.234L 461.489 212.441L 419.906 212.441L 419.906 225.234z"/>
<path style="stroke:#000000; stroke-width:1.59941; fill:none" d="M 419.906 225.234L 461.489 225.234L 461.489 212.441L 419.906 212.441L 419.906 225.234z"/>
<path style="stroke:#000000; stroke-width:1.59941; fill:none" d="M 440.699 221.238L 440.699 203.648"/>
<path style="stroke:#000000; stroke-width:1.59941; fill:none" d="M 431.903 221.238L 449.492 221.238"/>
<path style="stroke:#000000; stroke-width:1.59941; fill:none" d="M 431.903 203.644L 449.492 203.644"/>
<path style="stroke:#000000; stroke-width:1.59941; fill:none" d="M 388.824 220.437L 407.215 220.437"/>
<path style="stroke:#000000; stroke-width:1.59941; fill:none" d="M 388.824 205.242L 407.215 205.242"/>
<path style="stroke:none; fill-rule:evenodd; fill:#000000" d="M 213.399 253.992L 210.199 253.992L 210.199 269.691L 221 269.691L 221 266.992L 213.399 266.992L 213.399 253.992z"/>
<path style="stroke:none; fill-rule:evenodd; fill:#000000" d="M 233.012 264.793C 233.031 264.535 233.031 264.425 233.031 264.273C 233.031 263.105 232.86 262.019 232.578 261.199C 231.805 259.078 229.926 257.797 227.571 257.797C 224.227 257.797 222.176 260.226 222.176 264.148C 222.176 267.898 224.203 270.195 227.508 270.195C 230.117 270.195 232.235 268.707 232.903 266.414L 229.926 266.414C 229.563 267.347 228.719 267.894 227.617 267.894C 226.754 267.894 226.063 267.527 225.633 266.871C 225.356 266.437 225.246 265.91 225.203 264.797L 233.012 264.793zM 225.239 262.793C 225.43 260.996 226.188 260.093 227.524 260.093C 228.278 260.093 228.969 260.464 229.403 261.078C 229.68 261.515 229.813 261.976 229.875 262.789L 225.239 262.793z"/>
<path style="stroke:none; fill-rule:evenodd; fill:#000000" d="M 244.602 261.789C 244.559 259.3 242.653 257.793 239.512 257.793C 236.543 257.793 234.703 259.285 234.703 261.687C 234.703 262.464 234.938 263.136 235.352 263.589C 235.762 264 236.129 264.195 237.258 264.562L 240.875 265.687C 241.633 265.922 241.895 266.16 241.895 266.636C 241.895 267.347 241.055 267.781 239.653 267.781C 238.879 267.781 238.254 267.632 237.863 267.379C 237.543 267.148 237.414 266.914 237.281 266.293L 234.328 266.293C 234.414 268.839 236.285 270.183 239.817 270.183C 241.43 270.183 242.656 269.839 243.52 269.148C 244.379 268.457 244.899 267.375 244.899 266.226C 244.899 264.714 244.141 263.738 242.602 263.285L 238.766 262.183C 237.922 261.925 237.707 261.754 237.707 261.277C 237.707 260.629 238.403 260.195 239.469 260.195C 240.926 260.195 241.645 260.718 241.664 261.789L 244.602 261.789z"/>
<path style="stroke:none; fill-rule:evenodd; fill:#000000" d="M 250.199 258.035L 247.199 258.035L 247.199 269.691L 250.199 269.691L 250.199 258.035zM 250.199 253.992L 247.199 253.992L 247.199 256.691L 250.199 256.691L 250.199 253.992z"/>
<path style="stroke:none; fill-rule:evenodd; fill:#000000" d="M 258.227 257.793C 254.676 257.793 252.5 260.156 252.5 263.992C 252.5 267.847 254.672 270.191 258.25 270.191C 261.781 270.191 264 267.832 264 264.082C 264 260.117 261.871 257.797 258.231 257.797L 258.227 257.793zM 258.25 260.191C 259.914 260.191 261 261.707 261 264.035C 261 266.25 259.875 267.789 258.25 267.789C 256.606 267.789 255.504 266.254 255.504 263.992C 255.504 261.73 256.606 260.195 258.25 260.195L 258.25 260.191z"/>
<path style="stroke:none; fill-rule:evenodd; fill:#000000" d="M 266.297 257.992L 266.297 269.691L 269.297 269.691L 269.297 262.613C 269.297 261.214 270.27 260.297 271.746 260.297C 273.043 260.297 273.696 261.019 273.696 262.418L 273.696 269.695L 276.696 269.695L 276.696 261.851C 276.696 259.273 275.274 257.797 272.793 257.797C 271.219 257.797 270.164 258.39 269.301 259.718L 269.301 257.996L 266.297 257.992z"/>
<path style="stroke:none; fill-rule:evenodd; fill:#000000" d="M 298.824 259.285C 298.719 257.925 298.438 257.062 297.77 256.179C 296.567 254.582 294.629 253.699 292.285 253.699C 287.856 253.699 285.102 256.871 285.102 261.968C 285.102 267.019 287.832 270.195 292.199 270.195C 296.09 270.195 298.696 267.929 298.891 264.32L 295.742 264.32C 295.551 266.343 294.278 267.496 292.274 267.496C 289.774 267.496 288.309 265.472 288.309 262.043C 288.309 258.574 289.836 256.5 292.383 256.5C 293.5 256.5 294.43 256.882 295.035 257.629C 295.379 258.054 295.551 258.457 295.746 259.289L 298.824 259.285z"/>
<path style="stroke:none; fill-rule:evenodd; fill:#000000" d="M 306.227 257.793C 302.676 257.793 300.5 260.156 300.5 263.992C 300.5 267.847 302.672 270.191 306.25 270.191C 309.781 270.191 312 267.832 312 264.082C 312 260.117 309.871 257.797 306.231 257.797L 306.227 257.793zM 306.25 260.191C 307.914 260.191 309 261.707 309 264.035C 309 266.25 307.875 267.789 306.25 267.789C 304.606 267.789 303.504 266.254 303.504 263.992C 303.504 261.73 304.606 260.195 306.25 260.195L 306.25 260.191z"/>
<path style="stroke:none; fill-rule:evenodd; fill:#000000" d="M 314.297 257.992L 314.297 269.691L 317.297 269.691L 317.297 262.613C 317.297 261.214 318.27 260.297 319.746 260.297C 321.043 260.297 321.696 261.019 321.696 262.418L 321.696 269.695L 324.696 269.695L 324.696 261.851C 324.696 259.273 323.274 257.797 320.793 257.797C 319.219 257.797 318.164 258.39 317.301 259.718L 317.301 257.996L 314.297 257.992z"/>
<path style="stroke:none; fill-rule:evenodd; fill:#000000" d="M 334.899 269.699L 337.899 269.699L 337.899 253.996L 334.899 253.996L 334.899 259.547C 334.137 258.351 333.113 257.797 331.649 257.797C 328.84 257.797 326.703 260.484 326.703 264.019C 326.703 265.597 327.18 267.203 327.965 268.332C 328.77 269.457 330.207 270.195 331.649 270.195C 333.11 270.195 334.133 269.66 334.899 268.515L 334.899 269.699zM 332.301 260.293C 333.863 260.293 334.899 261.804 334.899 264.058C 334.899 266.203 333.844 267.691 332.301 267.691C 330.762 267.691 329.703 266.183 329.703 264.015C 329.703 261.828 330.758 260.293 332.301 260.293z"/>
<path style="stroke:none; fill-rule:evenodd; fill:#000000" d="M 343.801 258.035L 340.801 258.035L 340.801 269.691L 343.801 269.691L 343.801 258.035zM 343.801 253.992L 340.801 253.992L 340.801 256.691L 343.801 256.691L 343.801 253.992z"/>
<path style="stroke:none; fill-rule:evenodd; fill:#000000" d="M 351.797 258.293L 350.102 258.293L 350.102 255.14L 347.102 255.14L 347.102 258.293L 345.606 258.293L 345.606 260.293L 347.102 260.293L 347.102 267.453C 347.102 269.285 348.071 270.191 350.051 270.191C 350.719 270.191 351.254 270.129 351.797 269.957L 351.797 267.839C 351.492 267.875 351.321 267.894 351.102 267.894C 350.297 267.894 350.102 267.66 350.102 266.625L 350.102 260.297L 351.797 260.297L 351.797 258.293z"/>
<path style="stroke:none; fill-rule:evenodd; fill:#000000" d="M 357 258.035L 354 258.035L 354 269.691L 357 269.691L 357 258.035zM 357 253.992L 354 253.992L 354 256.691L 357 256.691L 357 253.992z"/>
<path style="stroke:none; fill-rule:evenodd; fill:#000000" d="M 365.028 257.793C 361.477 257.793 359.301 260.156 359.301 263.992C 359.301 267.847 361.473 270.191 365.051 270.191C 368.582 270.191 370.801 267.832 370.801 264.082C 370.801 260.117 368.672 257.797 365.031 257.797L 365.028 257.793zM 365.051 260.191C 366.715 260.191 367.801 261.707 367.801 264.035C 367.801 266.25 366.676 267.789 365.051 267.789C 363.406 267.789 362.305 266.254 362.305 263.992C 362.305 261.73 363.406 260.195 365.051 260.195L 365.051 260.191z"/>
<path style="stroke:none; fill-rule:evenodd; fill:#000000" d="M 373.098 257.992L 373.098 269.691L 376.098 269.691L 376.098 262.613C 376.098 261.214 377.071 260.297 378.547 260.297C 379.844 260.297 380.496 261.019 380.496 262.418L 380.496 269.695L 383.496 269.695L 383.496 261.851C 383.496 259.273 382.074 257.797 379.594 257.797C 378.02 257.797 376.965 258.39 376.102 259.718L 376.102 257.996L 373.098 257.992z"/>
<path style="stroke:none; fill-rule:evenodd; fill:#ffffff" d="M 109.805 225.234L 151.387 225.234L 151.387 123.675L 109.805 123.675L 109.805 225.234z"/>
<path style="stroke:#ffffff; stroke-width:0.0; fill:none" d="M 109.805 225.234L 151.387 225.234L 151.387 123.675L 109.805 123.675L 109.805 225.234z"/>
<path style="stroke:#ffffff; stroke-width:1.59941; fill:none" d="M 109.805 225.234L 151.387 225.234L 151.387 123.675L 109.805 123.675L 109.805 225.234z"/>
<path style="stroke:none; fill-rule:evenodd; fill:#000000" d="M 109.805 225.234L 151.387 225.234L 151.387 123.675L 109.805 123.675L 109.805 225.234z"/>
<path style="stroke:#000000; stroke-width:1.59941; fill:none" d="M 109.805 225.234L 151.387 225.234L 151.387 123.675L 109.805 123.675L 109.805 225.234z"/>
<path style="stroke:#000000; stroke-width:1.59941; fill:none" d="M 130.598 162.058L 130.598 85.289"/>
<path style="stroke:#000000; stroke-width:1.59941; fill:none" d="M 121.801 162.058L 139.391 162.058"/>
<path style="stroke:#000000; stroke-width:1.59941; fill:none" d="M 121.801 85.285L 139.391 85.285"/>
<path style="stroke:#000000; stroke-width:1.59941; fill:none" d="M 194.41 225.234L 194.41 222.836"/>
<path style="stroke:#000000; stroke-width:1.59941; fill:none" d="M 194.41 225.234L 194.41 220.437"/>
<path style="stroke:none; fill-rule:evenodd; fill:#ffffff" d="M 152.824 225.234L 194.406 225.234L 194.406 200.445L 152.824 200.445L 152.824 225.234z"/>
<path style="stroke:#ffffff; stroke-width:0.0; fill:none" d="M 152.824 225.234L 194.406 225.234L 194.406 200.445L 152.824 200.445L 152.824 225.234z"/>
<path style="stroke:#ffffff; stroke-width:1.59941; fill:none" d="M 152.824 225.234L 194.406 225.234L 194.406 200.445L 152.824 200.445L 152.824 225.234z"/>
<path style="stroke:#000000; stroke-width:1.59941; fill:none" d="M 152.824 225.234L 194.406 225.234L 194.406 200.445L 152.824 200.445L 152.824 225.234z"/>
<path style="stroke:#000000; stroke-width:1.59941; fill:none" d="M 173.617 225.234L 173.617 169.257"/>
<path style="stroke:#000000; stroke-width:1.59941; fill:none" d="M 164.821 169.253L 183.211 169.253"/>
<path style="stroke:none; fill-rule:evenodd; fill:#000000" d="M 243.199 225.453L 284.781 225.453L 284.781 200.125L 243.199 200.125L 243.199 225.453z"/>
<path style="stroke:#000000; stroke-width:1.59941; fill:none" d="M 243.199 225.453L 284.781 225.453L 284.781 200.125L 243.199 200.125L 243.199 225.453z"/>
<path style="stroke:#000000; stroke-width:1.59941; fill:none" d="M 286.278 226.191L 286.278 223.793"/>
<path style="stroke:#000000; stroke-width:1.59941; fill:none" d="M 286.278 226.191L 286.278 221.394"/>
<path style="stroke:#000000; stroke-width:1.59941; fill:none" d="M 286.278 225.461L 327.86 225.461L 327.86 202.882L 286.278 202.882L 286.278 225.461z"/>
<path style="stroke:#000000; stroke-width:1.59941; fill:none" d="M 307.067 211.671L 307.067 194.082"/>
<path style="stroke:#000000; stroke-width:1.59941; fill:none" d="M 298.274 211.671L 315.863 211.671"/>
<path style="stroke:#000000; stroke-width:1.59941; fill:none" d="M 298.274 194.078L 315.863 194.078"/>
<path style="stroke:#000000; stroke-width:1.59941; fill:none" d="M 263.992 208.957L 263.992 193.765"/>
<path style="stroke:#000000; stroke-width:1.59941; fill:none" d="M 255.196 208.957L 273.586 208.957"/>
<path style="stroke:#000000; stroke-width:1.59941; fill:none" d="M 255.196 193.761L 273.586 193.761"/>
<path style="stroke:none; fill-rule:evenodd; fill:#ffffff" d="M 341.664 148.214L 458.418 148.214L 458.418 92.238L 341.664 92.238L 341.664 148.214z"/>
<path style="stroke:#ffffff; stroke-width:0.0; fill:none" d="M 341.664 148.214L 458.418 148.214L 458.418 92.238L 341.664 92.238L 341.664 148.214z"/>
<path style="stroke:#ffffff; stroke-width:1.59941; fill:none" d="M 341.664 148.214L 458.418 148.214L 458.418 92.238L 341.664 92.238L 341.664 148.214z"/>
<path style="stroke:#000000; stroke-width:1.59941; fill:none" d="M 341.719 148.214L 464.961 148.214L 464.961 92.238L 341.719 92.238L 341.719 148.214z"/>
<path style="stroke:none; fill-rule:evenodd; fill:#000000" d="M 352.059 120.226L 394.442 120.226L 394.442 97.836L 352.059 97.836L 352.059 120.226z"/>
<path style="stroke:#ffffff; stroke-width:0.0; fill:none" d="M 352.059 120.226L 394.442 120.226L 394.442 97.836L 352.059 97.836L 352.059 120.226z"/>
<path style="stroke:#ffffff; stroke-width:1.59941; fill:none" d="M 352.059 120.226L 394.442 120.226L 394.442 97.836L 352.059 97.836L 352.059 120.226z"/>
<path style="stroke:#000000; stroke-width:1.59941; fill:none" d="M 352.059 120.226L 394.442 120.226L 394.442 97.836L 352.059 97.836L 352.059 120.226z"/>
<path style="stroke:none; fill-rule:evenodd; fill:#ffffff" d="M 352.059 143.418L 394.442 143.418L 394.442 120.23L 352.059 120.23L 352.059 143.418z"/>
<path style="stroke:#000000; stroke-width:0.0; fill:none" d="M 352.059 143.418L 394.442 143.418L 394.442 120.23L 352.059 120.23L 352.059 143.418z"/>
<path style="stroke:#000000; stroke-width:1.59941; fill:none" d="M 352.059 143.418L 394.442 143.418L 394.442 120.23L 352.059 120.23L 352.059 143.418z"/>
<path style="stroke:#000000; stroke-width:1.59941; fill:none" d="M 352.059 143.418L 394.442 143.418L 394.442 120.23L 352.059 120.23L 352.059 143.418z"/>
<path style="stroke:none; fill-rule:evenodd; fill:#000000" d="M 408.199 108.492L 412.426 108.492C 413.477 108.492 414.309 108.183 415.028 107.543C 415.84 106.812 416.188 105.949 416.188 104.722C 416.188 102.214 414.696 100.8 412.039 100.8L 406.492 100.8L 406.492 114.199L 408.192 114.199L 408.199 108.492zM 408.199 106.992L 408.199 102.293L 411.778 102.293C 413.418 102.293 414.395 103.171 414.395 104.64C 414.395 106.109 413.418 106.988 411.778 106.988L 408.199 106.992z"/>
<path style="stroke:none; fill-rule:evenodd; fill:#000000" d="M 418.301 104.57L 418.301 114.191L 419.899 114.191L 419.899 109.187C 419.899 107.808 420.246 106.906 420.989 106.375C 421.465 106.027 421.93 105.918 423 105.898L 423 104.355C 422.746 104.32 422.617 104.3 422.414 104.3C 421.43 104.3 420.676 104.886 419.801 106.32L 419.801 104.578L 418.301 104.57z"/>
<path style="stroke:none; fill-rule:evenodd; fill:#000000" d="M 432.598 109.894C 432.598 108.425 432.489 107.546 432.211 106.832C 431.586 105.253 430.117 104.3 428.317 104.3C 425.633 104.3 423.906 106.351 423.906 109.503C 423.906 112.652 425.586 114.597 428.301 114.597C 430.516 114.597 432.047 113.359 432.438 111.273L 430.887 111.273C 430.465 112.535 429.594 113.195 428.356 113.195C 427.379 113.195 426.547 112.757 426.028 111.953C 425.66 111.406 425.531 110.855 425.512 109.902L 432.598 109.894zM 425.571 108.636C 425.699 106.855 426.781 105.695 428.328 105.695C 429.836 105.695 430.992 106.945 430.992 108.523C 430.992 108.558 430.992 108.593 430.977 108.632L 425.571 108.636z"/>
<path style="stroke:none; fill-rule:evenodd; fill:#000000" d="M 434.199 110.593L 443.496 110.593L 443.496 109.296L 434.199 109.296L 434.199 110.593z"/>
<path style="stroke:none; fill-rule:evenodd; fill:#000000" d="M 452.918 110.191L 454.297 114.191L 456.207 114.191L 451.5 100.793L 449.297 100.793L 444.516 114.191L 446.336 114.191L 447.75 110.191L 452.918 110.191zM 452.438 108.793L 448.172 108.793L 450.375 102.625L 452.438 108.793z"/>
<path style="stroke:none; fill-rule:evenodd; fill:#000000" d="M 408.199 130.093L 412.426 130.093C 413.477 130.093 414.309 129.785 415.028 129.144C 415.84 128.414 416.188 127.55 416.188 126.324C 416.188 123.816 414.696 122.402 412.039 122.402L 406.492 122.402L 406.492 135.8L 408.192 135.8L 408.199 130.093zM 408.199 128.593L 408.199 123.894L 411.778 123.894C 413.418 123.894 414.395 124.773 414.395 126.242C 414.395 127.711 413.418 128.589 411.778 128.589L 408.199 128.593z"/>
<path style="stroke:none; fill-rule:evenodd; fill:#000000" d="M 418.301 126.168L 418.301 135.789L 419.899 135.789L 419.899 130.785C 419.899 129.406 420.246 128.503 420.989 127.972C 421.465 127.625 421.93 127.515 423 127.496L 423 125.953C 422.746 125.918 422.617 125.898 422.414 125.898C 421.43 125.898 420.676 126.484 419.801 127.918L 419.801 126.175L 418.301 126.168z"/>
<path style="stroke:none; fill-rule:evenodd; fill:#000000" d="M 432.598 131.492C 432.598 130.023 432.489 129.144 432.211 128.429C 431.586 126.851 430.117 125.898 428.317 125.898C 425.633 125.898 423.906 127.949 423.906 131.101C 423.906 134.25 425.586 136.195 428.301 136.195C 430.516 136.195 432.047 134.957 432.438 132.871L 430.887 132.871C 430.465 134.132 429.594 134.793 428.356 134.793C 427.379 134.793 426.547 134.355 426.028 133.55C 425.66 133.003 425.531 132.453 425.512 131.5L 432.598 131.492zM 425.571 130.238C 425.699 128.457 426.781 127.296 428.328 127.296C 429.836 127.296 430.992 128.546 430.992 130.125C 430.992 130.16 430.992 130.195 430.977 130.234L 425.571 130.238z"/>
<path style="stroke:none; fill-rule:evenodd; fill:#000000" d="M 434.199 132.191L 443.496 132.191L 443.496 130.894L 434.199 130.894L 434.199 132.191z"/>
<path style="stroke:none; fill-rule:evenodd; fill:#000000" d="M 445.699 135.793L 451.746 135.793C 453.012 135.793 453.949 135.445 454.668 134.675C 455.328 133.98 455.696 133.023 455.696 131.976C 455.696 130.363 454.949 129.386 453.211 128.726C 454.442 128.16 455.098 127.168 455.098 125.804C 455.098 124.832 454.731 123.968 454.035 123.343C 453.34 122.703 452.422 122.406 451.137 122.406L 445.703 122.406L 445.699 135.793zM 447.399 128.191L 447.399 123.894L 450.711 123.894C 451.664 123.894 452.199 124.023 452.66 124.375C 453.137 124.742 453.395 125.3 453.395 126.043C 453.395 126.765 453.137 127.339 452.66 127.711C 452.203 128.062 451.668 128.191 450.711 128.191L 447.399 128.191zM 447.399 134.293L 447.399 129.695L 451.582 129.695C 452.41 129.695 452.961 129.894 453.367 130.336C 453.77 130.753 453.992 131.343 453.992 132C 453.992 132.64 453.774 133.226 453.367 133.648C 452.965 134.086 452.41 134.289 451.582 134.289L 447.399 134.293z"/>
<path style="stroke:none; fill-rule:evenodd; fill:#000000" d="M 131.199 47.394L 135.809 47.394L 135.809 44.695L 123.199 44.695L 123.199 47.394L 127.996 47.394L 127.996 60.394L 131.196 60.394L 131.199 47.394z"/>
<path style="stroke:none; fill-rule:evenodd; fill:#000000" d="M 147.414 55.492C 147.434 55.234 147.434 55.125 147.434 54.972C 147.434 53.804 147.262 52.718 146.981 51.898C 146.207 49.777 144.328 48.496 141.973 48.496C 138.629 48.496 136.578 50.925 136.578 54.847C 136.578 58.597 138.606 60.894 141.91 60.894C 144.52 60.894 146.637 59.406 147.305 57.113L 144.328 57.113C 143.965 58.046 143.121 58.593 142.02 58.593C 141.156 58.593 140.465 58.226 140.035 57.57C 139.758 57.136 139.649 56.609 139.606 55.496L 147.414 55.492zM 139.641 53.492C 139.832 51.695 140.59 50.793 141.926 50.793C 142.68 50.793 143.371 51.164 143.805 51.777C 144.082 52.214 144.215 52.675 144.278 53.488L 139.641 53.492z"/>
<path style="stroke:none; fill-rule:evenodd; fill:#000000" d="M 159.004 52.492C 158.961 50.003 157.055 48.496 153.914 48.496C 150.946 48.496 149.106 49.988 149.106 52.39C 149.106 53.168 149.34 53.839 149.754 54.293C 150.164 54.703 150.531 54.898 151.66 55.265L 155.278 56.39C 156.035 56.625 156.297 56.863 156.297 57.339C 156.297 58.05 155.457 58.484 154.055 58.484C 153.281 58.484 152.656 58.336 152.266 58.082C 151.946 57.851 151.817 57.617 151.684 56.996L 148.731 56.996C 148.817 59.543 150.688 60.886 154.219 60.886C 155.832 60.886 157.059 60.543 157.922 59.851C 158.781 59.16 159.301 58.078 159.301 56.929C 159.301 55.418 158.543 54.441 157.004 53.988L 153.168 52.886C 152.324 52.629 152.11 52.457 152.11 51.98C 152.11 51.332 152.805 50.898 153.871 50.898C 155.328 50.898 156.047 51.421 156.067 52.492L 159.004 52.492z"/>
<path style="stroke:none; fill-rule:evenodd; fill:#000000" d="M 166.598 48.996L 164.903 48.996L 164.903 45.843L 161.903 45.843L 161.903 48.996L 160.406 48.996L 160.406 50.996L 161.903 50.996L 161.903 58.156C 161.903 59.988 162.871 60.894 164.852 60.894C 165.52 60.894 166.055 60.832 166.598 60.66L 166.598 58.543C 166.293 58.578 166.121 58.597 165.903 58.597C 165.098 58.597 164.903 58.363 164.903 57.328L 164.903 51L 166.598 51L 166.598 48.996z"/>
<path style="stroke:none; fill-rule:evenodd; fill:#000000" d="M 173 57.191L 169.801 57.191L 169.801 60.39L 173 60.39L 173 57.191zM 173 49.191L 169.801 49.191L 169.801 52.39L 173 52.39L 173 49.191z"/>
<path style="stroke:none; fill-rule:evenodd; fill:#000000" d="M 195.227 49.988C 195.121 48.629 194.84 47.765 194.172 46.882C 192.969 45.285 191.031 44.402 188.688 44.402C 184.258 44.402 181.504 47.574 181.504 52.671C 181.504 57.722 184.235 60.898 188.602 60.898C 192.492 60.898 195.098 58.632 195.293 55.023L 192.145 55.023C 191.953 57.046 190.68 58.199 188.676 58.199C 186.176 58.199 184.711 56.175 184.711 52.746C 184.711 49.277 186.239 47.203 188.785 47.203C 189.903 47.203 190.832 47.586 191.438 48.332C 191.781 48.757 191.953 49.16 192.149 49.992L 195.227 49.988z"/>
<path style="stroke:none; fill-rule:evenodd; fill:#000000" d="M 202.625 48.492C 199.074 48.492 196.899 50.855 196.899 54.691C 196.899 58.546 199.071 60.89 202.649 60.89C 206.18 60.89 208.399 58.531 208.399 54.781C 208.399 50.816 206.27 48.496 202.629 48.496L 202.625 48.492zM 202.649 50.894C 204.313 50.894 205.399 52.41 205.399 54.738C 205.399 56.953 204.274 58.492 202.649 58.492C 201.004 58.492 199.903 56.957 199.903 54.695C 199.903 52.433 201.004 50.898 202.649 50.898L 202.649 50.894z"/>
<path style="stroke:none; fill-rule:evenodd; fill:#000000" d="M 210.699 48.691L 210.699 60.39L 213.699 60.39L 213.699 53.312C 213.699 51.914 214.672 50.996 216.149 50.996C 217.446 50.996 218.098 51.718 218.098 53.117L 218.098 60.394L 221.098 60.394L 221.098 52.55C 221.098 49.972 219.676 48.496 217.196 48.496C 215.621 48.496 214.567 49.089 213.703 50.418L 213.703 48.695L 210.699 48.691z"/>
<path style="stroke:none; fill-rule:evenodd; fill:#000000" d="M 228.996 48.996L 227.301 48.996L 227.301 45.843L 224.301 45.843L 224.301 48.996L 222.805 48.996L 222.805 50.996L 224.301 50.996L 224.301 58.156C 224.301 59.988 225.27 60.894 227.25 60.894C 227.918 60.894 228.453 60.832 228.996 60.66L 228.996 58.543C 228.692 58.578 228.52 58.597 228.301 58.597C 227.496 58.597 227.301 58.363 227.301 57.328L 227.301 51L 228.996 51L 228.996 48.996z"/>
<path style="stroke:none; fill-rule:evenodd; fill:#000000" d="M 240.914 55.492C 240.934 55.234 240.934 55.125 240.934 54.972C 240.934 53.804 240.762 52.718 240.481 51.898C 239.707 49.777 237.828 48.496 235.473 48.496C 232.129 48.496 230.078 50.925 230.078 54.847C 230.078 58.597 232.106 60.894 235.41 60.894C 238.02 60.894 240.137 59.406 240.805 57.113L 237.828 57.113C 237.465 58.046 236.621 58.593 235.52 58.593C 234.656 58.593 233.965 58.226 233.535 57.57C 233.258 57.136 233.149 56.609 233.106 55.496L 240.914 55.492zM 233.141 53.492C 233.332 51.695 234.09 50.793 235.426 50.793C 236.18 50.793 236.871 51.164 237.305 51.777C 237.582 52.214 237.715 52.675 237.778 53.488L 233.141 53.492z"/>
<path style="stroke:none; fill-rule:evenodd; fill:#000000" d="M 249.363 54.5L 253.16 48.695L 249.535 48.695L 247.656 52.253L 245.758 48.695L 242.133 48.695L 245.93 54.5L 242.043 60.39L 245.668 60.39L 247.653 56.765L 249.617 60.39L 253.242 60.39L 249.363 54.5z"/>
<path style="stroke:none; fill-rule:evenodd; fill:#000000" d="M 260.199 48.996L 258.504 48.996L 258.504 45.843L 255.504 45.843L 255.504 48.996L 254.008 48.996L 254.008 50.996L 255.504 50.996L 255.504 58.156C 255.504 59.988 256.473 60.894 258.453 60.894C 259.121 60.894 259.656 60.832 260.199 60.66L 260.199 58.543C 259.895 58.578 259.723 58.597 259.504 58.597C 258.699 58.597 258.504 58.363 258.504 57.328L 258.504 51L 260.199 51L 260.199 48.996z"/>
<path style="stroke:none; fill-rule:evenodd; fill:#000000" d="M 277.719 57.191L 278.754 60.39L 282.078 60.39L 276.641 44.691L 273.059 44.691L 267.469 60.39L 270.77 60.39L 271.824 57.191L 277.719 57.191zM 276.832 54.492L 272.731 54.492L 274.781 48.367L 276.832 54.492z"/>
<path style="stroke:none; fill-rule:evenodd; fill:#000000" d="M 384.125 49.988C 384.02 48.629 383.739 47.765 383.071 46.882C 381.867 45.285 379.93 44.402 377.586 44.402C 373.156 44.402 370.403 47.574 370.403 52.671C 370.403 57.722 373.133 60.898 377.5 60.898C 381.391 60.898 383.996 58.632 384.192 55.023L 381.043 55.023C 380.852 57.046 379.578 58.199 377.574 58.199C 375.074 58.199 373.61 56.175 373.61 52.746C 373.61 49.277 375.137 47.203 377.684 47.203C 378.801 47.203 379.731 47.586 380.336 48.332C 380.68 48.757 380.852 49.16 381.047 49.992L 384.125 49.988z"/>
<path style="stroke:none; fill-rule:evenodd; fill:#000000" d="M 391.528 48.492C 387.977 48.492 385.801 50.855 385.801 54.691C 385.801 58.546 387.973 60.89 391.551 60.89C 395.082 60.89 397.301 58.531 397.301 54.781C 397.301 50.816 395.172 48.496 391.531 48.496L 391.528 48.492zM 391.551 50.894C 393.215 50.894 394.301 52.41 394.301 54.738C 394.301 56.953 393.176 58.492 391.551 58.492C 389.906 58.492 388.805 56.957 388.805 54.695C 388.805 52.433 389.906 50.898 391.551 50.898L 391.551 50.894z"/>
<path style="stroke:none; fill-rule:evenodd; fill:#000000" d="M 399.598 48.691L 399.598 60.39L 402.598 60.39L 402.598 53.312C 402.598 51.914 403.571 50.996 405.047 50.996C 406.344 50.996 406.996 51.718 406.996 53.117L 406.996 60.394L 409.996 60.394L 409.996 52.55C 409.996 49.972 408.574 48.496 406.094 48.496C 404.52 48.496 403.465 49.089 402.602 50.418L 402.602 48.695L 399.598 48.691z"/>
<path style="stroke:none; fill-rule:evenodd; fill:#000000" d="M 417.899 48.996L 416.203 48.996L 416.203 45.843L 413.203 45.843L 413.203 48.996L 411.707 48.996L 411.707 50.996L 413.203 50.996L 413.203 58.156C 413.203 59.988 414.172 60.894 416.153 60.894C 416.821 60.894 417.356 60.832 417.899 60.66L 417.899 58.543C 417.594 58.578 417.422 58.597 417.203 58.597C 416.399 58.597 416.203 58.363 416.203 57.328L 416.203 51L 417.899 51L 417.899 48.996z"/>
<path style="stroke:none; fill-rule:evenodd; fill:#000000" d="M 429.914 55.492C 429.934 55.234 429.934 55.125 429.934 54.972C 429.934 53.804 429.762 52.718 429.481 51.898C 428.707 49.777 426.828 48.496 424.473 48.496C 421.129 48.496 419.078 50.925 419.078 54.847C 419.078 58.597 421.106 60.894 424.41 60.894C 427.02 60.894 429.137 59.406 429.805 57.113L 426.828 57.113C 426.465 58.046 425.621 58.593 424.52 58.593C 423.656 58.593 422.965 58.226 422.535 57.57C 422.258 57.136 422.149 56.609 422.106 55.496L 429.914 55.492zM 422.141 53.492C 422.332 51.695 423.09 50.793 424.426 50.793C 425.18 50.793 425.871 51.164 426.305 51.777C 426.582 52.214 426.715 52.675 426.778 53.488L 422.141 53.492z"/>
<path style="stroke:none; fill-rule:evenodd; fill:#000000" d="M 438.266 54.5L 442.063 48.695L 438.438 48.695L 436.559 52.253L 434.66 48.695L 431.035 48.695L 434.832 54.5L 430.946 60.39L 434.571 60.39L 436.555 56.765L 438.52 60.39L 442.145 60.39L 438.266 54.5z"/>
<path style="stroke:none; fill-rule:evenodd; fill:#000000" d="M 449.098 48.996L 447.403 48.996L 447.403 45.843L 444.403 45.843L 444.403 48.996L 442.906 48.996L 442.906 50.996L 444.403 50.996L 444.403 58.156C 444.403 59.988 445.371 60.894 447.352 60.894C 448.02 60.894 448.555 60.832 449.098 60.66L 449.098 58.543C 448.793 58.578 448.621 58.597 448.403 58.597C 447.598 58.597 447.403 58.363 447.403 57.328L 447.403 51L 449.098 51L 449.098 48.996z"/>
<path style="stroke:none; fill-rule:evenodd; fill:#000000" d="M 470.524 49.988C 470.418 48.629 470.137 47.765 469.469 46.882C 468.266 45.285 466.328 44.402 463.985 44.402C 459.555 44.402 456.801 47.574 456.801 52.671C 456.801 57.722 459.531 60.898 463.899 60.898C 467.789 60.898 470.395 58.632 470.59 55.023L 467.442 55.023C 467.25 57.046 465.977 58.199 463.973 58.199C 461.473 58.199 460.008 56.175 460.008 52.746C 460.008 49.277 461.535 47.203 464.082 47.203C 465.199 47.203 466.129 47.586 466.735 48.332C 467.078 48.757 467.25 49.16 467.446 49.992L 470.524 49.988z"/>
<path style="stroke:none; fill-rule:evenodd; fill:#000000" d="M 284.5 237.093L 284.5 243.191L 286.199 243.191L 286.199 229.793L 284.5 229.793L 284.5 235.589L 277.602 235.589L 277.602 229.793L 275.903 229.793L 275.903 243.191L 277.602 243.191L 277.602 237.093L 284.5 237.093z"/>
<path style="stroke:none; fill-rule:evenodd; fill:#000000" d="M 290.899 229.793L 289.199 229.793L 289.199 243.191L 297.496 243.191L 297.496 241.691L 290.899 241.691L 290.899 229.793z"/>
<path style="stroke:none; fill-rule:evenodd; fill:#000000" d="M 129.699 243.191L 131.399 243.191L 131.399 229.793L 129.699 229.793L 129.699 243.191z"/>
<path style="stroke:none; fill-rule:evenodd; fill:#000000" d="M 134.199 233.57L 134.199 243.191L 135.797 243.191L 135.797 237.863C 135.797 235.89 136.805 234.597 138.352 234.597C 139.539 234.597 140.293 235.336 140.293 236.496L 140.293 243.191L 141.793 243.191L 141.793 235.921C 141.793 234.324 140.61 233.296 138.77 233.296C 137.348 233.296 136.438 233.847 135.598 235.187L 135.598 233.574L 134.199 233.57z"/>
<path style="stroke:none; fill-rule:evenodd; fill:#000000" d="M 147.801 233.593L 146.203 233.593L 146.203 230.91L 144.703 230.91L 144.703 233.593L 143.403 233.593L 143.403 234.89L 144.703 234.89L 144.703 242.082C 144.703 243.043 145.36 243.586 146.555 243.586C 146.918 243.586 147.285 243.55 147.801 243.461L 147.801 242.195C 147.598 242.261 147.356 242.285 147.059 242.285C 146.391 242.285 146.207 242.105 146.207 241.429L 146.207 234.886L 147.805 234.886L 147.801 233.593z"/>
<path style="stroke:none; fill-rule:evenodd; fill:#000000" d="M 158.039 242.293C 157.879 242.293 157.805 242.293 157.715 242.293C 157.192 242.293 156.903 242.019 156.903 241.543L 156.903 235.91C 156.903 234.211 155.649 233.296 153.274 233.296C 151.875 233.296 150.711 233.699 150.067 234.41C 149.625 234.902 149.442 235.453 149.406 236.402L 150.961 236.402C 151.09 235.226 151.793 234.691 153.239 234.691C 154.625 234.691 155.406 235.203 155.406 236.121L 155.406 236.523C 155.406 237.164 155.02 237.441 153.805 237.586C 151.629 237.859 151.297 237.933 150.707 238.172C 149.582 238.629 149.012 239.492 149.012 240.738C 149.012 242.48 150.219 243.582 152.164 243.582C 153.371 243.582 154.344 243.168 155.426 242.191C 155.535 243.148 156.012 243.582 157 243.582C 157.309 243.582 157.547 243.547 158.043 243.422L 158.039 242.293zM 155.399 240.168C 155.399 240.683 155.25 240.996 154.789 241.422C 154.164 241.992 153.406 242.289 152.504 242.289C 151.305 242.289 150.606 241.718 150.606 240.738C 150.606 239.722 151.285 239.207 152.93 238.964C 154.551 238.746 154.883 238.672 155.403 238.429L 155.399 240.168z"/>
<path style="stroke:none; fill-rule:evenodd; fill:#000000" d="M 167.16 236.793C 167.086 235.847 166.887 235.234 166.52 234.695C 165.863 233.816 164.707 233.296 163.371 233.296C 160.789 233.296 159.106 235.347 159.106 238.535C 159.106 241.629 160.754 243.589 163.356 243.589C 165.645 243.589 167.09 242.222 167.278 239.879L 165.742 239.879C 165.489 241.418 164.699 242.187 163.403 242.187C 161.719 242.187 160.715 240.808 160.715 238.531C 160.715 236.125 161.699 234.691 163.367 234.691C 164.649 234.691 165.453 235.445 165.637 236.789L 167.16 236.793z"/>
<path style="stroke:none; fill-rule:evenodd; fill:#000000" d="M 172.301 233.593L 170.703 233.593L 170.703 230.91L 169.203 230.91L 169.203 233.593L 167.903 233.593L 167.903 234.89L 169.203 234.89L 169.203 242.082C 169.203 243.043 169.86 243.586 171.055 243.586C 171.418 243.586 171.785 243.55 172.301 243.461L 172.301 242.195C 172.098 242.261 171.856 242.285 171.559 242.285C 170.891 242.285 170.707 242.105 170.707 241.429L 170.707 234.886L 172.305 234.886L 172.301 233.593z"/>
<path style="stroke:none; fill-rule:evenodd; fill:#000000" d="M 400.098 243.191L 401.797 243.191L 401.797 229.793L 400.098 229.793L 400.098 243.191z"/>
<path style="stroke:none; fill-rule:evenodd; fill:#000000" d="M 404.598 233.57L 404.598 243.191L 406.196 243.191L 406.196 237.863C 406.196 235.89 407.203 234.597 408.75 234.597C 409.938 234.597 410.692 235.336 410.692 236.496L 410.692 243.191L 412.192 243.191L 412.192 235.921C 412.192 234.324 411.008 233.296 409.168 233.296C 407.746 233.296 406.836 233.847 405.996 235.187L 405.996 233.574L 404.598 233.57z"/>
<path style="stroke:none; fill-rule:evenodd; fill:#000000" d="M 418.199 233.593L 416.602 233.593L 416.602 230.91L 415.102 230.91L 415.102 233.593L 413.801 233.593L 413.801 234.89L 415.102 234.89L 415.102 242.082C 415.102 243.043 415.758 243.586 416.953 243.586C 417.317 243.586 417.684 243.55 418.199 243.461L 418.199 242.195C 417.996 242.261 417.754 242.285 417.457 242.285C 416.789 242.285 416.606 242.105 416.606 241.429L 416.606 234.886L 418.203 234.886L 418.199 233.593z"/>
<path style="stroke:none; fill-rule:evenodd; fill:#000000" d="M 428.539 242.293C 428.379 242.293 428.305 242.293 428.215 242.293C 427.692 242.293 427.403 242.019 427.403 241.543L 427.403 235.91C 427.403 234.211 426.149 233.296 423.774 233.296C 422.375 233.296 421.211 233.699 420.567 234.41C 420.125 234.902 419.942 235.453 419.906 236.402L 421.461 236.402C 421.59 235.226 422.293 234.691 423.739 234.691C 425.125 234.691 425.906 235.203 425.906 236.121L 425.906 236.523C 425.906 237.164 425.52 237.441 424.305 237.586C 422.129 237.859 421.797 237.933 421.207 238.172C 420.082 238.629 419.512 239.492 419.512 240.738C 419.512 242.48 420.719 243.582 422.664 243.582C 423.871 243.582 424.844 243.168 425.926 242.191C 426.035 243.148 426.512 243.582 427.5 243.582C 427.809 243.582 428.047 243.547 428.543 243.422L 428.539 242.293zM 425.899 240.168C 425.899 240.683 425.75 240.996 425.289 241.422C 424.664 241.992 423.906 242.289 423.004 242.289C 421.805 242.289 421.106 241.718 421.106 240.738C 421.106 239.722 421.785 239.207 423.43 238.964C 425.051 238.746 425.383 238.672 425.903 238.429L 425.899 240.168z"/>
<path style="stroke:none; fill-rule:evenodd; fill:#000000" d="M 437.563 236.793C 437.489 235.847 437.289 235.234 436.922 234.695C 436.266 233.816 435.11 233.296 433.774 233.296C 431.192 233.296 429.508 235.347 429.508 238.535C 429.508 241.629 431.156 243.589 433.758 243.589C 436.047 243.589 437.492 242.222 437.68 239.879L 436.145 239.879C 435.891 241.418 435.102 242.187 433.805 242.187C 432.121 242.187 431.117 240.808 431.117 238.531C 431.117 236.125 432.102 234.691 433.77 234.691C 435.051 234.691 435.856 235.445 436.039 236.789L 437.563 236.793z"/>
<path style="stroke:none; fill-rule:evenodd; fill:#000000" d="M 442.801 233.593L 441.203 233.593L 441.203 230.91L 439.703 230.91L 439.703 233.593L 438.403 233.593L 438.403 234.89L 439.703 234.89L 439.703 242.082C 439.703 243.043 440.36 243.586 441.555 243.586C 441.918 243.586 442.285 243.55 442.801 243.461L 442.801 242.195C 442.598 242.261 442.356 242.285 442.059 242.285C 441.391 242.285 441.207 242.105 441.207 241.429L 441.207 234.886L 442.805 234.886L 442.801 233.593z"/>
</g>
</svg>