<?xml version="1.0" encoding="ISO-8859-1" standalone="yes"?>
<svg width="275.999" height="234.485">
  <defs> 
    <marker id="ArrowEnd" viewBox="0 0 10 10" refX="0" refY="5" 
     markerUnits="strokeWidth" 
     markerWidth="4" 
     markerHeight="3" 
     orient="auto"> 
        <path d="M 0 0 L 10 5 L 0 10 z" /> 
    </marker>
    <marker id="ArrowStart" viewBox="0 0 10 10" refX="10" refY="5" 
     markerUnits="strokeWidth" 
     markerWidth="4" 
     markerHeight="3" 
     orient="auto"> 
        <path d="M 10 0 L 0 5 L 10 10 z" /> 
    </marker> </defs>
<g>
<path style="stroke:#000000; stroke-width:0.95664899999999997; fill:none" d="M 205.908 210.339C 205.908 199.776 191.35 191.206 173.385 191.206C 155.424 191.206 140.861 199.768 140.861 210.339C 140.861 220.901 155.424 229.472 173.385 229.472C 191.346 229.472 205.908 220.909 205.908 210.339"/>
<path style="stroke:none; fill-rule:evenodd; fill:#000000" d="M 170.623 207.858C 170.615 206.222 169.494 205.272 167.58 205.272C 165.756 205.272 164.627 206.222 164.627 207.749C 164.627 208.776 165.158 209.429 166.248 209.718L 168.303 210.272C 169.346 210.55 169.822 210.976 169.822 211.636C 169.822 212.085 169.584 212.55 169.236 212.804C 168.908 213.034 168.389 213.159 167.721 213.159C 166.826 213.159 166.217 212.933 165.822 212.433C 165.518 212.054 165.381 211.636 165.432 211.097L 164.432 211.097C 164.439 211.874 164.588 212.386 164.916 212.851C 165.482 213.64 166.435 214.058 167.693 214.058C 168.678 214.058 169.482 213.831 170.018 213.413C 170.572 212.968 170.924 212.218 170.924 211.491C 170.924 210.456 170.291 209.698 169.166 209.386L 167.092 208.823C 166.096 208.55 165.732 208.226 165.732 207.581C 165.732 206.729 166.467 206.163 167.572 206.163C 168.881 206.163 169.615 206.765 169.627 207.851L 170.623 207.858z"/>
<path style="stroke:none; fill-rule:evenodd; fill:#000000" d="M 178.92 205.37L 177.92 205.37L 177.92 212.241L 173.572 205.37L 172.424 205.37L 172.424 213.768L 173.424 213.768L 173.424 206.987L 177.725 213.768L 178.92 213.768L 178.92 205.37z"/>
<path style="stroke:none; fill-rule:evenodd; fill:#000000" d="M 180.521 207.745L 180.521 213.768L 181.521 213.768L 181.521 210.636C 181.521 209.772 181.732 209.21 182.182 208.874C 182.471 208.655 182.752 208.589 183.404 208.577L 183.404 207.612C 183.248 207.593 183.17 207.581 183.045 207.581C 182.435 207.581 181.971 207.948 181.424 208.843L 181.424 207.753L 180.521 207.745z"/>
<path style="stroke:#000000; stroke-width:0.95664899999999997; fill:none" d="M 115.084 30.1431C 115.084 19.7721 90.4426 11.3621 60.0486 11.3621C 29.6536 11.3621 5.01364 19.7721 5.01364 30.1431C 5.01364 40.5151 29.6536 48.9251 60.0486 48.9251C 90.4426 48.9251 115.084 40.5151 115.084 30.1431"/>
<path style="stroke:none; fill-rule:evenodd; fill:#000000" d="M 20.0206 29.9721L 22.6616 29.9721C 23.3176 29.9721 23.8376 29.7801 24.2906 29.3781C 24.7986 28.9251 25.0176 28.3861 25.0176 27.6201C 25.0176 26.0581 24.0796 25.1751 22.4076 25.1751L 18.9196 25.1751L 18.9196 33.5731L 20.0176 33.5731L 20.0206 29.9721zM 20.0206 29.0731L 20.0206 26.0731L 22.2706 26.0731C 23.3026 26.0731 23.9196 26.6361 23.9196 27.5731C 23.9196 28.5071 23.3066 29.0731 22.2706 29.0731L 20.0206 29.0731z"/>
<path style="stroke:none; fill-rule:evenodd; fill:#000000" d="M 28.7596 27.3701C 27.0566 27.3701 26.0246 28.5851 26.0246 30.6201C 26.0246 32.6551 27.0446 33.8701 28.7746 33.8701C 30.4776 33.8701 31.5246 32.6591 31.5246 30.6711C 31.5246 28.5811 30.5176 27.3781 28.7676 27.3781L 28.7596 27.3701zM 28.7706 28.2721C 29.8646 28.2721 30.5206 29.1591 30.5206 30.6551C 30.5206 32.0691 29.8456 32.9681 28.7706 32.9681C 27.6886 32.9681 27.0206 32.0811 27.0206 30.6201C 27.0206 29.1711 27.6846 28.2721 28.7706 28.2721z"/>
<path style="stroke:none; fill-rule:evenodd; fill:#000000" d="M 37.0486 29.2331C 37.0366 28.0461 36.2516 27.3741 34.8496 27.3741C 33.4386 27.3741 32.5246 28.1001 32.5246 29.2221C 32.5246 30.1671 33.0136 30.6161 34.4626 30.9641L 35.3726 31.1821C 36.0486 31.3431 36.3176 31.5851 36.3176 32.0221C 36.3176 32.5851 35.7516 32.9681 34.9076 32.9681C 34.3886 32.9681 33.9506 32.8191 33.7086 32.5611C 33.5606 32.3901 33.4896 32.2141 33.4316 31.7801L 32.4156 31.7801C 32.4586 33.1901 33.2436 33.8701 34.8256 33.8701C 36.3496 33.8701 37.3176 33.1201 37.3176 31.9561C 37.3176 31.0581 36.8066 30.5611 35.5916 30.2721L 34.6576 30.0541C 33.8646 29.8701 33.5246 29.6161 33.5246 29.1901C 33.5246 28.6401 34.0206 28.2801 34.8106 28.2801C 35.5836 28.2801 36.0016 28.6081 36.0246 29.2371L 37.0486 29.2331z"/>
<path style="stroke:none; fill-rule:evenodd; fill:#000000" d="M 40.6226 27.5731L 39.7246 27.5731L 39.7246 25.9051L 38.7246 25.9051L 38.7246 27.5731L 37.8256 27.5731L 37.8256 28.3701L 38.7246 28.3701L 38.7246 32.9171C 38.7246 33.5221 39.1266 33.8661 39.8566 33.8661C 40.0796 33.8661 40.3066 33.8431 40.6186 33.7841L 40.6186 32.9481C 40.5056 33.0381 40.3686 33.0651 40.2006 33.0651C 39.8256 33.0651 39.7206 32.9521 39.7206 32.5221L 39.7206 28.3701L 40.6186 28.3701L 40.6226 27.5731z"/>
<path style="stroke:none; fill-rule:evenodd; fill:#000000" d="M 46.8216 30.8701C 46.8216 29.9521 46.7556 29.4011 46.5836 28.9561C 46.1966 27.9721 45.2826 27.3741 44.1656 27.3741C 42.5016 27.3741 41.4276 28.6671 41.4276 30.6551C 41.4276 32.6431 42.4626 33.8701 44.1386 33.8701C 45.5016 33.8701 46.4466 33.0771 46.6886 31.7451L 45.7356 31.7451C 45.4746 32.5501 44.9426 32.9681 44.1816 32.9681C 43.5796 32.9681 43.0676 32.6901 42.7516 32.1751C 42.5246 31.8271 42.4466 31.4751 42.4346 30.8701L 46.8216 30.8701zM 42.3996 30.1041C 42.4776 28.9911 43.1576 28.2681 44.1186 28.2681C 45.0566 28.2681 45.7826 29.0461 45.7826 30.0341C 45.7826 30.0541 45.7826 30.0771 45.7706 30.1001L 42.3996 30.1041z"/>
<path style="stroke:none; fill-rule:evenodd; fill:#000000" d="M 48.1226 27.5461L 48.1226 33.5691L 49.1226 33.5691L 49.1226 30.4361C 49.1226 29.5731 49.3336 29.0111 49.7826 28.6751C 50.0716 28.4561 50.3526 28.3901 51.0056 28.3781L 51.0056 27.4131C 50.8496 27.3931 50.7706 27.3821 50.6456 27.3821C 50.0366 27.3821 49.5716 27.7491 49.0246 28.6431L 49.0246 27.5541L 48.1226 27.5461z"/>
<path style="stroke:none; fill-rule:evenodd; fill:#000000" d="M 52.8216 27.5731L 51.8216 27.5731L 51.8216 33.5731L 52.8216 33.5731L 52.8216 27.5731zM 52.8216 25.1711L 51.8216 25.1711L 51.8216 26.4051L 52.8216 26.4051L 52.8216 25.1711z"/>
<path style="stroke:none; fill-rule:evenodd; fill:#000000" d="M 56.8566 27.3701C 55.1536 27.3701 54.1226 28.5851 54.1226 30.6201C 54.1226 32.6551 55.1426 33.8701 56.8726 33.8701C 58.5756 33.8701 59.6226 32.6591 59.6226 30.6711C 59.6226 28.5811 58.6146 27.3781 56.8646 27.3781L 56.8566 27.3701zM 56.8726 28.2721C 57.9666 28.2721 58.6226 29.1591 58.6226 30.6551C 58.6226 32.0691 57.9466 32.9681 56.8726 32.9681C 55.7906 32.9681 55.1226 32.0811 55.1226 30.6201C 55.1226 29.1711 55.7866 28.2721 56.8726 28.2721z"/>
<path style="stroke:none; fill-rule:evenodd; fill:#000000" d="M 60.8216 27.5461L 60.8216 33.5691L 61.8216 33.5691L 61.8216 30.4361C 61.8216 29.5731 62.0326 29.0111 62.4816 28.6751C 62.7706 28.4561 63.0526 28.3901 63.7046 28.3781L 63.7046 27.4131C 63.5486 27.3931 63.4706 27.3821 63.3456 27.3821C 62.7356 27.3821 62.2706 27.7491 61.7246 28.6431L 61.7246 27.5541L 60.8216 27.5461z"/>
<path style="stroke:none; fill-rule:evenodd; fill:#000000" d="M 74.7206 27.8001C 74.3846 25.9721 73.3216 25.0771 71.4706 25.0771C 70.3376 25.0771 69.4276 25.4321 68.8026 26.1241C 68.0406 26.9521 67.6266 28.1471 67.6266 29.5071C 67.6266 30.8861 68.0526 32.0731 68.8496 32.8901C 69.4936 33.5581 70.3256 33.8661 71.4236 33.8661C 73.4776 33.8661 74.6346 32.7531 74.8926 30.5151L 73.7866 30.5151C 73.6966 31.1041 73.5836 31.5071 73.4076 31.8501C 73.0636 32.5611 72.3496 32.9641 71.4546 32.9641C 69.7866 32.9641 68.7276 31.6121 68.7276 29.4911C 68.7276 27.3111 69.7396 25.9681 71.3646 25.9681C 72.0406 25.9681 72.6776 26.1791 73.0206 26.5031C 73.3296 26.7961 73.5016 27.1551 73.6306 27.7881L 74.7206 27.8001z"/>
<path style="stroke:none; fill-rule:evenodd; fill:#000000" d="M 78.4586 27.3701C 76.7556 27.3701 75.7246 28.5851 75.7246 30.6201C 75.7246 32.6551 76.7436 33.8701 78.4746 33.8701C 80.1776 33.8701 81.2246 32.6591 81.2246 30.6711C 81.2246 28.5811 80.2166 27.3781 78.4666 27.3781L 78.4586 27.3701zM 78.4706 28.2721C 79.5636 28.2721 80.2206 29.1591 80.2206 30.6551C 80.2206 32.0691 79.5446 32.9681 78.4706 32.9681C 77.3886 32.9681 76.7206 32.0811 76.7206 30.6201C 76.7206 29.1711 77.3846 28.2721 78.4706 28.2721z"/>
<path style="stroke:none; fill-rule:evenodd; fill:#000000" d="M 82.5206 27.5461L 82.5206 33.5691L 83.5206 33.5691L 83.5206 30.4361C 83.5206 29.5731 83.7316 29.0111 84.1816 28.6751C 84.4706 28.4561 84.7516 28.3901 85.4036 28.3781L 85.4036 27.4131C 85.2476 27.3931 85.1696 27.3821 85.0446 27.3821C 84.4346 27.3821 83.9706 27.7491 83.4236 28.6431L 83.4236 27.5541L 82.5206 27.5461z"/>
<path style="stroke:none; fill-rule:evenodd; fill:#000000" d="M 88.4196 27.5731L 87.5206 27.5731L 87.5206 25.9051L 86.5206 25.9051L 86.5206 27.5731L 85.6226 27.5731L 85.6226 28.3701L 86.5206 28.3701L 86.5206 32.9171C 86.5206 33.5221 86.9236 33.8661 87.6536 33.8661C 87.8766 33.8661 88.1026 33.8431 88.4156 33.7841L 88.4156 32.9481C 88.3026 33.0381 88.1656 33.0651 87.9976 33.0651C 87.6226 33.0651 87.5176 32.9521 87.5176 32.5221L 87.5176 28.3701L 88.4156 28.3701L 88.4196 27.5731z"/>
<path style="stroke:none; fill-rule:evenodd; fill:#000000" d="M 94.6226 30.8701C 94.6226 29.9521 94.5566 29.4011 94.3846 28.9561C 93.9976 27.9721 93.0836 27.3741 91.9666 27.3741C 90.3026 27.3741 89.2276 28.6671 89.2276 30.6551C 89.2276 32.6431 90.2636 33.8701 91.9386 33.8701C 93.3026 33.8701 94.2476 33.0771 94.4896 31.7451L 93.5366 31.7451C 93.2746 32.5501 92.7436 32.9681 91.9816 32.9681C 91.3806 32.9681 90.8686 32.6901 90.5526 32.1751C 90.3256 31.8271 90.2476 31.4751 90.2356 30.8701L 94.6226 30.8701zM 90.2006 30.1041C 90.2786 28.9911 90.9586 28.2681 91.9196 28.2681C 92.8566 28.2681 93.5836 29.0461 93.5836 30.0341C 93.5836 30.0541 93.5836 30.0771 93.5716 30.1001L 90.2006 30.1041z"/>
<path style="stroke:none; fill-rule:evenodd; fill:#000000" d="M 98.4746 30.4681L 100.494 27.5731L 99.4156 27.5731L 97.9706 29.7371L 96.5246 27.5731L 95.4346 27.5731L 97.4426 30.5151L 95.3216 33.5691L 96.4116 33.5691L 97.9346 31.2651L 99.4386 33.5691L 100.553 33.5691L 98.4746 30.4681z"/>
<path style="stroke:#000000; stroke-width:0.95664899999999997; fill:none" d="M 235.623 30.1431C 235.623 19.7721 210.982 11.3621 180.588 11.3621C 150.193 11.3621 125.553 19.7721 125.553 30.1431C 125.553 40.5151 150.193 48.9251 180.588 48.9251C 210.982 48.9251 235.623 40.5151 235.623 30.1431"/>
<path style="stroke:none; fill-rule:evenodd; fill:#000000" d="M 145.42 29.7721L 149.412 29.7721L 149.412 28.8741L 145.42 28.8741L 145.42 26.0771L 149.92 26.0771L 149.92 25.1791L 144.322 25.1791L 144.322 33.5771L 145.42 33.5771L 145.42 29.7721z"/>
<path style="stroke:none; fill-rule:evenodd; fill:#000000" d="M 151.123 27.5461L 151.123 33.5691L 152.123 33.5691L 152.123 30.4361C 152.123 29.5731 152.334 29.0111 152.783 28.6751C 153.072 28.4561 153.353 28.3901 154.006 28.3781L 154.006 27.4131C 153.85 27.3931 153.771 27.3821 153.646 27.3821C 153.037 27.3821 152.572 27.7491 152.025 28.6431L 152.025 27.5541L 151.123 27.5461z"/>
<path style="stroke:none; fill-rule:evenodd; fill:#000000" d="M 157.26 27.3701C 155.557 27.3701 154.525 28.5851 154.525 30.6201C 154.525 32.6551 155.545 33.8701 157.275 33.8701C 158.978 33.8701 160.025 32.6591 160.025 30.6711C 160.025 28.5811 159.018 27.3781 157.268 27.3781L 157.26 27.3701zM 157.271 28.2721C 158.365 28.2721 159.021 29.1591 159.021 30.6551C 159.021 32.0691 158.346 32.9681 157.271 32.9681C 156.189 32.9681 155.521 32.0811 155.521 30.6201C 155.521 29.1711 156.185 28.2721 157.271 28.2721z"/>
<path style="stroke:none; fill-rule:evenodd; fill:#000000" d="M 161.322 27.5461L 161.322 33.5691L 162.322 33.5691L 162.322 30.2221C 162.322 28.9831 162.947 28.1711 163.912 28.1711C 164.65 28.1711 165.119 28.6321 165.119 29.3621L 165.119 33.5651L 166.119 33.5651L 166.119 29.0111C 166.119 28.0111 165.377 27.3661 164.217 27.3661C 163.326 27.3661 162.752 27.7101 162.225 28.5501L 162.225 27.5381L 161.322 27.5461z"/>
<path style="stroke:none; fill-rule:evenodd; fill:#000000" d="M 169.822 27.5731L 168.924 27.5731L 168.924 25.9051L 167.924 25.9051L 167.924 27.5731L 167.025 27.5731L 167.025 28.3701L 167.924 28.3701L 167.924 32.9171C 167.924 33.5221 168.326 33.8661 169.057 33.8661C 169.279 33.8661 169.506 33.8431 169.818 33.7841L 169.818 32.9481C 169.705 33.0381 169.568 33.0651 169.4 33.0651C 169.025 33.0651 168.92 32.9521 168.92 32.5221L 168.92 28.3701L 169.818 28.3701L 169.822 27.5731z"/>
<path style="stroke:none; fill-rule:evenodd; fill:#000000" d="M 176.162 33.0111C 176.057 33.0691 176.01 33.0691 175.951 33.0691C 175.611 33.0691 175.424 32.8971 175.424 32.5971L 175.424 29.0301C 175.424 27.9561 174.646 27.3741 173.174 27.3741C 172.307 27.3741 171.588 27.6281 171.185 28.0771C 170.912 28.3861 170.799 28.7331 170.775 29.3351L 171.721 29.3351C 171.799 28.6041 172.225 28.2721 173.107 28.2721C 173.951 28.2721 174.424 28.5931 174.424 29.1711L 174.424 29.4251C 174.424 29.8271 174.189 29.9991 173.447 30.0931C 172.123 30.2651 171.92 30.3111 171.561 30.4601C 170.877 30.7451 170.529 31.2881 170.529 32.0731C 170.529 33.1671 171.283 33.8581 172.494 33.8581C 173.248 33.8581 173.853 33.5851 174.529 32.9401C 174.596 33.5731 174.893 33.8581 175.51 33.8581C 175.701 33.8581 175.85 33.8351 176.158 33.7531L 176.162 33.0111zM 174.42 31.7101C 174.42 32.0381 174.33 32.2411 174.053 32.5151C 173.674 32.8781 173.217 33.0691 172.67 33.0691C 171.947 33.0691 171.521 32.7061 171.521 32.0771C 171.521 31.4291 171.932 31.0971 172.924 30.9441C 173.904 30.8041 174.103 30.7571 174.416 30.6041L 174.42 31.7101z"/>
<path style="stroke:none; fill-rule:evenodd; fill:#000000" d="M 177.221 33.5731L 178.221 33.5731L 178.221 25.1751L 177.221 25.1751L 177.221 33.5731z"/>
<path style="stroke:none; fill-rule:evenodd; fill:#000000" d="M 189.822 27.8001C 189.486 25.9721 188.424 25.0771 186.572 25.0771C 185.439 25.0771 184.529 25.4321 183.904 26.1241C 183.143 26.9521 182.728 28.1471 182.728 29.5071C 182.728 30.8861 183.154 32.0731 183.951 32.8901C 184.596 33.5581 185.428 33.8661 186.525 33.8661C 188.58 33.8661 189.736 32.7531 189.994 30.5151L 188.889 30.5151C 188.799 31.1041 188.685 31.5071 188.51 31.8501C 188.166 32.5611 187.451 32.9641 186.557 32.9641C 184.889 32.9641 183.83 31.6121 183.83 29.4911C 183.83 27.3111 184.842 25.9681 186.467 25.9681C 187.143 25.9681 187.779 26.1791 188.123 26.5031C 188.432 26.7961 188.603 27.1551 188.732 27.7881L 189.822 27.8001z"/>
<path style="stroke:none; fill-rule:evenodd; fill:#000000" d="M 193.658 27.3701C 191.955 27.3701 190.924 28.5851 190.924 30.6201C 190.924 32.6551 191.943 33.8701 193.674 33.8701C 195.377 33.8701 196.424 32.6591 196.424 30.6711C 196.424 28.5811 195.416 27.3781 193.666 27.3781L 193.658 27.3701zM 193.67 28.2721C 194.764 28.2721 195.42 29.1591 195.42 30.6551C 195.42 32.0691 194.744 32.9681 193.67 32.9681C 192.588 32.9681 191.92 32.0811 191.92 30.6201C 191.92 29.1711 192.584 28.2721 193.67 28.2721z"/>
<path style="stroke:none; fill-rule:evenodd; fill:#000000" d="M 197.623 27.5461L 197.623 33.5691L 198.623 33.5691L 198.623 30.4361C 198.623 29.5731 198.834 29.0111 199.283 28.6751C 199.572 28.4561 199.853 28.3901 200.506 28.3781L 200.506 27.4131C 200.35 27.3931 200.271 27.3821 200.146 27.3821C 199.537 27.3821 199.072 27.7491 198.525 28.6431L 198.525 27.5541L 197.623 27.5461z"/>
<path style="stroke:none; fill-rule:evenodd; fill:#000000" d="M 203.623 27.5731L 202.725 27.5731L 202.725 25.9051L 201.725 25.9051L 201.725 27.5731L 200.826 27.5731L 200.826 28.3701L 201.725 28.3701L 201.725 32.9171C 201.725 33.5221 202.127 33.8661 202.857 33.8661C 203.08 33.8661 203.307 33.8431 203.619 33.7841L 203.619 32.9481C 203.506 33.0381 203.369 33.0651 203.201 33.0651C 202.826 33.0651 202.721 32.9521 202.721 32.5221L 202.721 28.3701L 203.619 28.3701L 203.623 27.5731z"/>
<path style="stroke:none; fill-rule:evenodd; fill:#000000" d="M 209.822 30.8701C 209.822 29.9521 209.756 29.4011 209.584 28.9561C 209.197 27.9721 208.283 27.3741 207.166 27.3741C 205.502 27.3741 204.428 28.6671 204.428 30.6551C 204.428 32.6431 205.463 33.8701 207.139 33.8701C 208.502 33.8701 209.447 33.0771 209.689 31.7451L 208.736 31.7451C 208.475 32.5501 207.943 32.9681 207.182 32.9681C 206.58 32.9681 206.068 32.6901 205.752 32.1751C 205.525 31.8271 205.447 31.4751 205.435 30.8701L 209.822 30.8701zM 205.4 30.1041C 205.478 28.9911 206.158 28.2681 207.119 28.2681C 208.057 28.2681 208.783 29.0461 208.783 30.0341C 208.783 30.0541 208.783 30.0771 208.771 30.1001L 205.4 30.1041z"/>
<path style="stroke:none; fill-rule:evenodd; fill:#000000" d="M 213.572 30.4681L 215.592 27.5731L 214.514 27.5731L 213.068 29.7371L 211.623 27.5731L 210.533 27.5731L 212.541 30.5151L 210.42 33.5691L 211.51 33.5691L 213.033 31.2651L 214.537 33.5691L 215.65 33.5691L 213.572 30.4681z"/>
<path style="stroke:#000000; stroke-width:0.95664899999999997; fill:none" d="M 165.728 97.4561C 165.728 89.0071 154.596 82.1511 140.857 82.1511C 127.123 82.1511 115.986 89.0031 115.986 97.4561C 115.986 105.905 127.119 112.761 140.857 112.761C 154.592 112.761 165.728 105.909 165.728 97.4561"/>
<path style="stroke:#000000; stroke-width:0.95664899999999997; fill:none" d="M 115.982 97.4561C 115.982 89.0071 104.85 82.1511 91.1106 82.1511C 77.3766 82.1511 66.2396 89.0031 66.2396 97.4561C 66.2396 105.905 77.3726 112.761 91.1106 112.761C 104.846 112.761 115.982 105.909 115.982 97.4561"/>
<path style="stroke:#000000; stroke-width:0.95664899999999997; fill:none" d="M 171.467 97.4561C 171.467 84.7761 146.627 74.4991 115.982 74.4991C 85.3416 74.4991 60.4976 84.7761 60.4976 97.4561C 60.4976 110.136 85.3376 120.413 115.982 120.413C 146.623 120.413 171.467 110.136 171.467 97.4561"/>
<path style="stroke:#000000; stroke-width:0.95664899999999997; fill:none" d="M 198.256 154.854C 198.256 144.292 183.697 135.722 165.732 135.722C 147.771 135.722 133.209 144.284 133.209 154.854C 133.209 165.417 147.771 173.987 165.732 173.987C 183.693 173.987 198.256 165.425 198.256 154.854"/>
<path style="stroke:none; fill-rule:evenodd; fill:#000000" d="M 162.92 153.87L 159.322 153.87L 159.322 154.768L 161.92 154.768L 161.92 155.003C 161.92 156.546 160.822 157.663 159.303 157.663C 158.459 157.663 157.693 157.35 157.201 156.804C 156.654 156.198 156.322 155.186 156.322 154.136C 156.322 152.05 157.486 150.671 159.248 150.671C 160.514 150.671 161.428 151.339 161.658 152.436L 162.744 152.436C 162.447 150.745 161.158 149.768 159.24 149.768C 158.221 149.768 157.393 150.034 156.736 150.573C 155.775 151.378 155.221 152.679 155.221 154.186C 155.221 156.765 156.791 158.561 159.057 158.561C 160.193 158.561 161.1 158.136 161.916 157.225L 162.193 158.339L 162.912 158.339L 162.92 153.87z"/>
<path style="stroke:none; fill-rule:evenodd; fill:#000000" d="M 165.721 154.671L 168.361 154.671C 169.018 154.671 169.537 154.479 169.99 154.077C 170.498 153.624 170.717 153.085 170.717 152.319C 170.717 150.757 169.779 149.874 168.107 149.874L 164.619 149.874L 164.619 158.272L 165.717 158.272L 165.721 154.671zM 165.721 153.772L 165.721 150.772L 167.971 150.772C 169.002 150.772 169.619 151.335 169.619 152.272C 169.619 153.206 169.006 153.772 167.971 153.772L 165.721 153.772z"/>
<path style="stroke:none; fill-rule:evenodd; fill:#000000" d="M 177.221 155.573C 177.221 154.655 177.154 154.104 176.982 153.659C 176.596 152.675 175.682 152.077 174.564 152.077C 172.9 152.077 171.826 153.37 171.826 155.358C 171.826 157.347 172.861 158.573 174.537 158.573C 175.9 158.573 176.846 157.78 177.088 156.448L 176.135 156.448C 175.873 157.253 175.342 157.671 174.58 157.671C 173.978 157.671 173.467 157.393 173.15 156.878C 172.924 156.53 172.846 156.179 172.834 155.573L 177.221 155.573zM 172.803 154.804C 172.881 153.69 173.561 152.968 174.521 152.968C 175.459 152.968 176.185 153.745 176.185 154.733C 176.185 154.753 176.185 154.776 176.174 154.8L 172.803 154.804z"/>
<path style="stroke:none; fill-rule:evenodd; fill:#ff0000" d="M 150.424 196.948C 150.424 194.839 148.713 193.124 146.6 193.124C 144.49 193.124 142.775 194.835 142.775 196.948C 142.775 199.058 144.486 200.772 146.6 200.772C 148.709 200.772 150.424 199.061 150.424 196.948"/>
<path style="stroke:#ff0000; stroke-width:1.9133; fill:none" d="M 150.424 196.948C 150.424 194.839 148.713 193.124 146.6 193.124C 144.49 193.124 142.775 194.835 142.775 196.948C 142.775 199.058 144.486 200.772 146.6 200.772C 148.709 200.772 150.424 199.061 150.424 196.948"/>
<path style="stroke:none; fill-rule:evenodd; fill:#ff0000" d="M 177.209 189.296C 177.209 187.186 175.498 185.472 173.385 185.472C 171.275 185.472 169.561 187.183 169.561 189.296C 169.561 191.405 171.271 193.12 173.385 193.12C 175.494 193.12 177.209 191.409 177.209 189.296"/>
<path style="stroke:#ff0000; stroke-width:1.9133; fill:none" d="M 177.209 189.296C 177.209 187.186 175.498 185.472 173.385 185.472C 171.275 185.472 169.561 187.183 169.561 189.296C 169.561 191.405 171.271 193.12 173.385 193.12C 175.494 193.12 177.209 191.409 177.209 189.296"/>
<path style="stroke:none; fill-rule:evenodd; fill:#ff0000" d="M 159.986 133.808C 159.986 131.698 158.275 129.983 156.162 129.983C 154.053 129.983 152.338 131.694 152.338 133.808C 152.338 135.917 154.049 137.632 156.162 137.632C 158.271 137.632 159.986 135.921 159.986 133.808"/>
<path style="stroke:#ff0000; stroke-width:1.9133; fill:none" d="M 159.986 133.808C 159.986 131.698 158.275 129.983 156.162 129.983C 154.053 129.983 152.338 131.694 152.338 133.808C 152.338 135.917 154.049 137.632 156.162 137.632C 158.271 137.632 159.986 135.921 159.986 133.808"/>
<path style="stroke:#ff0000; stroke-dasharray:6,3; stroke-width:1.9133; fill:none" d="M 165.728 173.987L 173.381 189.292"/>
<path style="stroke:#ff0000; stroke-dasharray:6,3; stroke-width:1.9133; fill:none" d="M 142.768 112.761L 156.158 133.804"/>
<path style="stroke:none; fill-rule:evenodd; fill:#ff0000" d="M 126.221 108.671L 128.357 108.671C 129.756 108.671 130.615 107.612 130.615 105.87C 130.615 104.136 129.764 103.073 128.357 103.073L 126.221 103.073L 126.221 108.671zM 126.92 108.073L 126.92 103.675L 128.232 103.675C 129.334 103.675 129.916 104.429 129.916 105.878C 129.916 107.308 129.338 108.073 128.232 108.073L 126.92 108.073z"/>
<path style="stroke:none; fill-rule:evenodd; fill:#ff0000" d="M 134.982 108.073L 132.139 108.073C 132.205 107.628 132.451 107.343 133.111 106.948L 133.873 106.534C 134.627 106.12 135.018 105.558 135.018 104.886C 135.018 104.432 134.838 104.007 134.514 103.714C 134.197 103.421 133.799 103.284 133.287 103.284C 132.603 103.284 132.092 103.522 131.795 103.975C 131.607 104.261 131.521 104.593 131.506 105.136L 132.174 105.136C 132.193 104.78 132.24 104.565 132.33 104.393C 132.502 104.077 132.853 103.882 133.256 103.882C 133.861 103.882 134.318 104.315 134.318 104.89C 134.318 105.311 134.068 105.679 133.592 105.952L 132.896 106.347C 131.775 106.983 131.447 107.491 131.389 108.675L 134.986 108.675L 134.982 108.073z"/>
<path style="stroke:none; fill-rule:evenodd; fill:#ff0000" d="M 123.221 116.272L 129.018 116.272L 129.018 115.475L 123.221 115.475L 123.221 116.272z"/>
<path style="stroke:none; fill-rule:evenodd; fill:#0000ff" d="M 76.5206 108.671L 78.6576 108.671C 80.0566 108.671 80.9156 107.612 80.9156 105.87C 80.9156 104.136 80.0636 103.073 78.6576 103.073L 76.5206 103.073L 76.5206 108.671zM 77.2206 108.073L 77.2206 103.675L 78.5326 103.675C 79.6346 103.675 80.2166 104.429 80.2166 105.878C 80.2166 107.308 79.6386 108.073 78.5326 108.073L 77.2206 108.073z"/>
<path style="stroke:none; fill-rule:evenodd; fill:#0000ff" d="M 83.3216 104.827L 83.3216 108.671L 84.0206 108.671L 84.0206 103.272L 83.5676 103.272C 83.3256 104.1 83.1696 104.214 82.1026 104.343L 82.1026 104.819L 83.3216 104.827z"/>
<path style="stroke:#0000ff; stroke-width:1.9133; fill:none" d="M 97.8066 17.0971C 97.8066 17.0971 97.8066 17.0971 100.197 15.6631C 102.588 14.2291 107.369 11.3581 112.314 10.4011C 117.256 9.44809 122.357 10.4011 126.502 12.3111C 130.646 14.2221 133.834 17.0931 135.428 18.5261C 137.021 19.9601 137.021 19.9601 137.021 19.9601"/>
<path style="stroke:#0000ff; stroke-width:1.9133; fill:none" d="M 105.353 14.8001L 97.8066 17.0971L 103.381 11.5221"/>
<path style="stroke:#0000ff; stroke-width:1.9133; fill:none" d="M 132.619 13.4251L 137.025 19.9641L 130.061 16.2681"/>
<path style="stroke:#0000ff; stroke-width:1.9133; fill:none" d="M 87.2826 45.7961L 114.068 74.4951"/>
<path style="stroke:#0000ff; stroke-width:1.9133; fill:none" d="M 110.248 67.5971L 114.068 74.4951L 107.451 70.2101"/>
<path style="stroke:#0000ff; stroke-width:1.9133; fill:none" d="M 158.076 47.7101L 117.9 74.4951"/>
<path style="stroke:#0000ff; stroke-width:1.9133; fill:none" d="M 125.326 71.8431L 117.9 74.4951L 123.205 68.6591"/>
<path style="stroke:none; fill-rule:evenodd; fill:#ff0000" d="M 124.564 111.37L 116.838 113.854L 118.627 106.175"/>
<path style="stroke:#ff0000; stroke-width:1.9133; fill:none" d="M 124.564 111.37L 116.838 113.854L 118.627 106.175L 124.564 111.37z"/>
<path style="stroke:none; fill-rule:evenodd; fill:#000000" d="M 151.322 59.9721L 150.623 59.9721L 150.623 62.0651C 150.361 61.6791 149.939 61.4721 149.416 61.4721C 148.396 61.4721 147.728 62.3041 147.728 63.5811C 147.728 64.9321 148.389 65.7681 149.459 65.7681C 150.006 65.7681 150.385 65.5581 150.725 65.0421L 150.725 65.5691L 151.322 65.5691L 151.322 59.9721zM 149.541 62.0731C 150.201 62.0731 150.619 62.6821 150.619 63.6361C 150.619 64.5581 150.193 65.1671 149.545 65.1671C 148.869 65.1671 148.42 64.5501 148.42 63.6201C 148.42 62.6901 148.865 62.0731 149.537 62.0731L 149.541 62.0731z"/>
<path style="stroke:none; fill-rule:evenodd; fill:#000000" d="M 153.912 61.4721C 152.799 61.4721 152.123 62.2721 152.123 63.6201C 152.123 64.9641 152.791 65.7681 153.92 65.7681C 155.033 65.7681 155.717 64.9681 155.717 63.6511C 155.717 62.2681 155.057 61.4721 153.912 61.4721zM 153.92 62.0731C 154.607 62.0731 155.018 62.6591 155.018 63.6431C 155.018 64.5771 154.596 65.1671 153.92 65.1671C 153.24 65.1671 152.822 64.5851 152.822 63.6201C 152.822 62.6671 153.24 62.0731 153.92 62.0731z"/>
<path style="stroke:none; fill-rule:evenodd; fill:#000000" d="M 156.521 61.5851L 156.521 65.5691L 157.221 65.5691L 157.221 63.5181C 157.221 62.9561 157.361 62.5851 157.658 62.3661C 157.85 62.2251 158.037 62.1791 158.471 62.1711L 158.471 61.4951C 158.365 61.4791 158.311 61.4721 158.225 61.4721C 157.807 61.4721 157.49 61.7141 157.119 62.3081L 157.119 61.5851L 156.521 61.5851z"/>
<path style="stroke:none; fill-rule:evenodd; fill:#000000" d="M 161.975 62.6791C 161.967 61.9091 161.439 61.4751 160.494 61.4751C 159.545 61.4751 158.928 61.9561 158.928 62.6941C 158.928 63.3191 159.248 63.6161 160.201 63.8431L 160.799 63.9871C 161.244 64.0931 161.42 64.2531 161.42 64.5421C 161.42 64.9131 161.053 65.1671 160.506 65.1671C 160.17 65.1671 159.885 65.0691 159.725 64.8971C 159.627 64.7841 159.584 64.6671 159.545 64.3781L 158.885 64.3781C 158.912 65.3191 159.432 65.7681 160.475 65.7681C 161.478 65.7681 162.119 65.2761 162.119 64.5031C 162.119 63.9091 161.783 63.5811 160.982 63.3901L 160.369 63.2451C 159.85 63.1241 159.627 62.9561 159.627 62.6751C 159.627 62.3111 159.959 62.0731 160.482 62.0731C 160.998 62.0731 161.275 62.2801 161.291 62.6791L 161.975 62.6791z"/>
<path style="stroke:none; fill-rule:evenodd; fill:#000000" d="M 166.518 65.1981C 166.447 65.2721 166.416 65.2721 166.377 65.2721C 166.15 65.2721 166.025 65.1591 166.025 64.9561L 166.025 62.5771C 166.025 61.8621 165.51 61.4751 164.525 61.4751C 163.947 61.4751 163.467 61.6401 163.201 61.9321C 163.021 62.1321 162.943 62.3581 162.928 62.7491L 163.549 62.7491C 163.6 62.2841 163.881 62.0731 164.459 62.0731C 165.014 62.0731 165.326 62.2841 165.326 62.6671L 165.326 62.8351C 165.326 63.1001 165.17 63.2141 164.678 63.2761C 163.795 63.3901 163.662 63.4211 163.42 63.5181C 162.967 63.7061 162.732 64.0651 162.732 64.5851C 162.732 65.3081 163.24 65.7651 164.053 65.7651C 164.561 65.7651 164.967 65.5851 165.42 65.1551C 165.463 65.5771 165.662 65.7651 166.08 65.7651C 166.209 65.7651 166.311 65.7491 166.518 65.6941L 166.518 65.1981zM 165.322 64.3041C 165.322 64.5151 165.264 64.6431 165.084 64.8151C 164.838 65.0501 164.537 65.1711 164.182 65.1711C 163.709 65.1711 163.432 64.9361 163.432 64.5381C 163.432 64.1241 163.701 63.9131 164.35 63.8111C 164.99 63.7221 165.123 63.6941 165.326 63.5931L 165.322 64.3041z"/>
<path style="stroke:none; fill-rule:evenodd; fill:#000000" d="M 167.221 65.5731L 167.92 65.5731L 167.92 59.9751L 167.221 59.9751L 167.221 65.5731z"/>
<path style="stroke:none; fill-rule:evenodd; fill:#000000" d="M 150.873 70.3781C 150.865 69.6081 150.338 69.1751 149.393 69.1751C 148.443 69.1751 147.826 69.6551 147.826 70.3931C 147.826 71.0181 148.146 71.3151 149.1 71.5421L 149.697 71.6861C 150.143 71.7921 150.318 71.9521 150.318 72.2411C 150.318 72.6121 149.951 72.8661 149.404 72.8661C 149.068 72.8661 148.783 72.7681 148.623 72.5971C 148.525 72.4831 148.482 72.3661 148.443 72.0771L 147.783 72.0771C 147.811 73.0181 148.33 73.4681 149.373 73.4681C 150.377 73.4681 151.018 72.9751 151.018 72.2021C 151.018 71.6081 150.682 71.2801 149.881 71.0891L 149.268 70.9441C 148.748 70.8231 148.525 70.6551 148.525 70.3741C 148.525 70.0111 148.857 69.7721 149.381 69.7721C 149.896 69.7721 150.174 69.9791 150.189 70.3781L 150.873 70.3781z"/>
<path style="stroke:none; fill-rule:evenodd; fill:#000000" d="M 153.322 69.2721L 152.725 69.2721L 152.725 68.1631L 152.025 68.1631L 152.025 69.2721L 151.525 69.2721L 151.525 69.7721L 152.025 69.7721L 152.025 72.8311C 152.025 73.2371 152.299 73.4721 152.799 73.4721C 152.951 73.4721 153.103 73.4561 153.318 73.4171L 153.318 72.8621C 153.244 72.8701 153.15 72.8741 153.041 72.8741C 152.791 72.8741 152.721 72.8001 152.721 72.5181L 152.721 69.7801L 153.318 69.7801L 153.322 69.2721z"/>
<path style="stroke:none; fill-rule:evenodd; fill:#000000" d="M 154.021 69.2841L 154.021 73.2681L 154.721 73.2681L 154.721 71.2181C 154.721 70.6551 154.861 70.2841 155.158 70.0651C 155.35 69.9251 155.537 69.8781 155.971 69.8701L 155.971 69.1941C 155.865 69.1791 155.811 69.1711 155.725 69.1711C 155.307 69.1711 154.99 69.4131 154.619 70.0071L 154.619 69.2841L 154.021 69.2841z"/>
<path style="stroke:none; fill-rule:evenodd; fill:#000000" d="M 157.221 69.2721L 156.521 69.2721L 156.521 73.2721L 157.221 73.2721L 157.221 69.2721zM 157.221 67.6711L 156.521 67.6711L 156.521 68.4951L 157.221 68.4951L 157.221 67.6711z"/>
<path style="stroke:none; fill-rule:evenodd; fill:#000000" d="M 161.814 72.8971C 161.744 72.9721 161.713 72.9721 161.674 72.9721C 161.447 72.9721 161.322 72.8581 161.322 72.6551L 161.322 70.2761C 161.322 69.5611 160.807 69.1751 159.822 69.1751C 159.244 69.1751 158.764 69.3391 158.498 69.6321C 158.318 69.8311 158.24 70.0581 158.225 70.4481L 158.846 70.4481C 158.896 69.9831 159.178 69.7721 159.756 69.7721C 160.311 69.7721 160.623 69.9831 160.623 70.3661L 160.623 70.5341C 160.623 70.8001 160.467 70.9131 159.975 70.9751C 159.092 71.0891 158.959 71.1201 158.717 71.2181C 158.264 71.4051 158.029 71.7651 158.029 72.2841C 158.029 73.0071 158.537 73.4641 159.35 73.4641C 159.857 73.4641 160.264 73.2841 160.717 72.8541C 160.76 73.2761 160.959 73.4641 161.377 73.4641C 161.506 73.4641 161.607 73.4481 161.814 73.3931L 161.814 72.8971zM 160.623 72.0031C 160.623 72.2141 160.564 72.3431 160.385 72.5151C 160.139 72.7491 159.838 72.8701 159.482 72.8701C 159.01 72.8701 158.732 72.6361 158.732 72.2371C 158.732 71.8231 159.002 71.6121 159.65 71.5111C 160.291 71.4211 160.424 71.3931 160.627 71.2921L 160.623 72.0031z"/>
<path style="stroke:none; fill-rule:evenodd; fill:#000000" d="M 163.92 69.2721L 163.322 69.2721L 163.322 68.1631L 162.623 68.1631L 162.623 69.2721L 162.123 69.2721L 162.123 69.7721L 162.623 69.7721L 162.623 72.8311C 162.623 73.2371 162.896 73.4721 163.396 73.4721C 163.549 73.4721 163.701 73.4561 163.916 73.4171L 163.916 72.8621C 163.842 72.8701 163.748 72.8741 163.639 72.8741C 163.389 72.8741 163.318 72.8001 163.318 72.5181L 163.318 69.7801L 163.916 69.7801L 163.92 69.2721z"/>
<path style="stroke:none; fill-rule:evenodd; fill:#000000" d="M 167.822 73.2961L 167.822 69.2761L 167.123 69.2761L 167.123 71.5301C 167.123 72.3391 166.725 72.8741 166.1 72.8741C 165.627 72.8741 165.326 72.5731 165.326 72.0931L 165.326 69.2761L 164.627 69.2761L 164.627 72.3781C 164.627 73.0461 165.119 73.4751 165.893 73.4751C 166.475 73.4751 166.85 73.2721 167.221 72.7411L 167.221 73.3001L 167.822 73.2961z"/>
<path style="stroke:none; fill-rule:evenodd; fill:#000000" d="M 168.92 69.2841L 168.92 73.2681L 169.619 73.2681L 169.619 70.8001C 169.619 70.2291 170.018 69.7721 170.514 69.7721C 170.963 69.7721 171.217 70.0581 171.217 70.5581L 171.217 73.2681L 171.916 73.2681L 171.916 70.8001C 171.916 70.2291 172.338 69.7721 172.865 69.7721C 173.334 69.7721 173.615 70.0651 173.615 70.5581L 173.615 73.2681L 174.314 73.2681L 174.314 70.2801C 174.314 69.5651 173.893 69.1711 173.131 69.1711C 172.588 69.1711 172.26 69.3231 171.877 69.7571C 171.639 69.3471 171.311 69.1711 170.779 69.1711C 170.236 69.1711 169.877 69.3661 169.525 69.8471L 169.525 69.2841L 168.92 69.2841z"/>
<path style="stroke:#ff0000; stroke-dasharray:6,3; stroke-width:1.9133; fill:none" d="M 102.592 110.85L 148.51 198.862"/>
<path style="stroke:none; fill-rule:evenodd; fill:#0000ff" d="M 84.3496 119.272L 82.0206 119.272L 82.0206 116.932L 81.2246 116.932L 81.2246 119.272L 78.7986 119.272L 78.7986 120.069L 81.2246 120.069L 81.2246 122.483L 82.0206 122.483L 82.0206 120.069L 84.3496 120.069L 84.3496 119.272z"/>
<path style="stroke:none; fill-rule:evenodd; fill:#0000ff" d="M 84.6226 113.444L 92.7356 113.202L 88.8846 120.085"/>
<path style="stroke:#0000ff; stroke-width:1.9133; fill:none" d="M 84.6226 113.444L 92.7356 113.202L 88.8846 120.085L 84.6226 113.444z"/>
<path style="stroke:none; fill-rule:evenodd; fill:#ffffff" d="M 11.8336 201.729L 103.67 201.729L 103.67 155.811L 11.8336 155.811L 11.8336 201.729z"/>
<path style="stroke:#000000; stroke-width:0.95664899999999997; fill:none" d="M 11.8336 201.729L 103.67 201.729L 103.67 155.811L 11.8336 155.811L 11.8336 201.729z"/>
<path style="stroke:#ff0000; stroke-dasharray:6,3; stroke-width:1.9133; fill:none" d="M 15.6616 178.768L 36.7046 178.768"/>
<path style="stroke:none; fill-rule:evenodd; fill:#0000ff" d="M 48.3216 166.073C 48.3216 165.155 48.2556 164.604 48.0836 164.159C 47.6966 163.175 46.7826 162.577 45.6656 162.577C 44.0016 162.577 42.9276 163.87 42.9276 165.858C 42.9276 167.847 43.9626 169.073 45.6386 169.073C 47.0016 169.073 47.9466 168.28 48.1886 166.948L 47.2356 166.948C 46.9746 167.753 46.4426 168.171 45.6816 168.171C 45.0796 168.171 44.5676 167.893 44.2516 167.378C 44.0246 167.03 43.9466 166.679 43.9346 166.073L 48.3216 166.073zM 43.8996 165.304C 43.9776 164.19 44.6576 163.468 45.6186 163.468C 46.5566 163.468 47.2826 164.245 47.2826 165.233C 47.2826 165.253 47.2826 165.276 47.2706 165.3L 43.8996 165.304z"/>
<path style="stroke:none; fill-rule:evenodd; fill:#0000ff" d="M 52.1736 165.671L 54.1926 162.776L 53.1146 162.776L 51.6696 164.94L 50.2246 162.776L 49.1346 162.776L 51.1426 165.718L 49.0206 168.772L 50.1106 168.772L 51.6346 166.468L 53.1386 168.772L 54.2516 168.772L 52.1736 165.671z"/>
<path style="stroke:none; fill-rule:evenodd; fill:#0000ff" d="M 60.0286 164.776C 59.9856 164.19 59.8606 163.808 59.6306 163.472C 59.2246 162.909 58.5056 162.573 57.6776 162.573C 56.0756 162.573 55.0286 163.866 55.0286 165.878C 55.0286 167.831 56.0526 169.069 57.6656 169.069C 59.0876 169.069 59.9856 168.198 60.0996 166.706L 59.1456 166.706C 58.9896 167.682 58.5016 168.171 57.6966 168.171C 56.6536 168.171 56.0286 167.308 56.0286 165.882C 56.0286 164.374 56.6386 163.475 57.6736 163.475C 58.4666 163.475 58.9666 163.944 59.0796 164.78L 60.0286 164.776z"/>
<path style="stroke:none; fill-rule:evenodd; fill:#0000ff" d="M 62.0206 162.772L 61.0206 162.772L 61.0206 168.772L 62.0206 168.772L 62.0206 162.772zM 62.0206 160.37L 61.0206 160.37L 61.0206 161.604L 62.0206 161.604L 62.0206 160.37z"/>
<path style="stroke:none; fill-rule:evenodd; fill:#0000ff" d="M 65.7206 162.772L 64.8216 162.772L 64.8216 161.104L 63.8216 161.104L 63.8216 162.772L 62.9236 162.772L 62.9236 163.569L 63.8216 163.569L 63.8216 168.116C 63.8216 168.722 64.2246 169.065 64.9546 169.065C 65.1776 169.065 65.4036 169.042 65.7166 168.983L 65.7166 168.147C 65.6026 168.237 65.4666 168.265 65.2986 168.265C 64.9236 168.265 64.8176 168.151 64.8176 167.722L 64.8176 163.569L 65.7166 163.569L 65.7206 162.772z"/>
<path style="stroke:none; fill-rule:evenodd; fill:#0000ff" d="M 72.1616 168.21C 72.0566 168.268 72.0096 168.268 71.9506 168.268C 71.6106 168.268 71.4236 168.097 71.4236 167.796L 71.4236 164.229C 71.4236 163.155 70.6456 162.573 69.1736 162.573C 68.3066 162.573 67.5876 162.827 67.1846 163.276C 66.9116 163.585 66.7986 163.932 66.7746 164.534L 67.7206 164.534C 67.7986 163.804 68.2246 163.472 69.1066 163.472C 69.9506 163.472 70.4236 163.792 70.4236 164.37L 70.4236 164.624C 70.4236 165.026 70.1886 165.198 69.4466 165.292C 68.1226 165.464 67.9196 165.511 67.5606 165.659C 66.8766 165.944 66.5286 166.487 66.5286 167.272C 66.5286 168.366 67.2826 169.058 68.4936 169.058C 69.2476 169.058 69.8526 168.784 70.5286 168.14C 70.5956 168.772 70.8926 169.058 71.5096 169.058C 71.7006 169.058 71.8496 169.034 72.1576 168.952L 72.1616 168.21zM 70.4196 166.909C 70.4196 167.237 70.3296 167.44 70.0526 167.714C 69.6736 168.077 69.2166 168.268 68.6696 168.268C 67.9466 168.268 67.5206 167.905 67.5206 167.276C 67.5206 166.628 67.9316 166.296 68.9236 166.143C 69.9036 166.003 70.1026 165.956 70.4156 165.804L 70.4196 166.909z"/>
<path style="stroke:none; fill-rule:evenodd; fill:#0000ff" d="M 75.3216 162.772L 74.4236 162.772L 74.4236 161.104L 73.4236 161.104L 73.4236 162.772L 72.5246 162.772L 72.5246 163.569L 73.4236 163.569L 73.4236 168.116C 73.4236 168.722 73.8256 169.065 74.5566 169.065C 74.7786 169.065 75.0056 169.042 75.3176 168.983L 75.3176 168.147C 75.2046 168.237 75.0676 168.265 74.8996 168.265C 74.5246 168.265 74.4196 168.151 74.4196 167.722L 74.4196 163.569L 75.3176 163.569L 75.3216 162.772z"/>
<path style="stroke:none; fill-rule:evenodd; fill:#0000ff" d="M 78.7596 162.573C 77.0566 162.573 76.0246 163.788 76.0246 165.823C 76.0246 167.858 77.0446 169.073 78.7746 169.073C 80.4776 169.073 81.5246 167.862 81.5246 165.874C 81.5246 163.784 80.5176 162.581 78.7676 162.581L 78.7596 162.573zM 78.7706 163.472C 79.8646 163.472 80.5206 164.358 80.5206 165.854C 80.5206 167.268 79.8456 168.167 78.7706 168.167C 77.6886 168.167 77.0206 167.28 77.0206 165.819C 77.0206 164.37 77.6846 163.472 78.7706 163.472z"/>
<path style="stroke:none; fill-rule:evenodd; fill:#0000ff" d="M 82.8216 162.745L 82.8216 168.768L 83.8216 168.768L 83.8216 165.636C 83.8216 164.772 84.0326 164.21 84.4816 163.874C 84.7706 163.655 85.0526 163.589 85.7046 163.577L 85.7046 162.612C 85.5486 162.593 85.4706 162.581 85.3456 162.581C 84.7356 162.581 84.2706 162.948 83.7246 163.843L 83.7246 162.753L 82.8216 162.745z"/>
<path style="stroke:none; fill-rule:evenodd; fill:#0000ff" d="M 90.2746 162.772L 88.6106 167.44L 87.0756 162.772L 86.0566 162.772L 88.0876 168.827L 87.7246 169.78C 87.5756 170.206 87.3606 170.366 86.9586 170.366C 86.8216 170.366 86.6616 170.331 86.4546 170.261L 86.4546 171.116C 86.6456 171.218 86.8416 171.265 87.0956 171.265C 87.4036 171.265 87.7356 171.163 87.9896 170.979C 88.2866 170.765 88.4586 170.511 88.6426 170.03L 91.3136 162.768L 90.2746 162.772z"/>
<path style="stroke:none; fill-rule:evenodd; fill:#ff0000" d="M 38.6226 178.768C 38.6226 176.659 36.9116 174.944 34.7986 174.944C 32.6886 174.944 30.9746 176.655 30.9746 178.768C 30.9746 180.878 32.6846 182.593 34.7986 182.593C 36.9076 182.593 38.6226 180.882 38.6226 178.768"/>
<path style="stroke:#ff0000; stroke-width:1.9133; fill:none" d="M 38.6226 178.768C 38.6226 176.659 36.9116 174.944 34.7986 174.944C 32.6886 174.944 30.9746 176.655 30.9746 178.768C 30.9746 180.878 32.6846 182.593 34.7986 182.593C 36.9076 182.593 38.6226 180.882 38.6226 178.768"/>
<path style="stroke:none; fill-rule:evenodd; fill:#ff0000" d="M 44.1226 176.171L 43.1226 176.171L 43.1226 182.171L 44.1226 182.171L 44.1226 176.171zM 44.1226 173.772L 43.1226 173.772L 43.1226 175.007L 44.1226 175.007L 44.1226 173.772z"/>
<path style="stroke:none; fill-rule:evenodd; fill:#ff0000" d="M 45.8216 176.143L 45.8216 182.167L 46.8216 182.167L 46.8216 178.819C 46.8216 177.581 47.4466 176.768 48.4116 176.768C 49.1496 176.768 49.6186 177.229 49.6186 177.96L 49.6186 182.163L 50.6186 182.163L 50.6186 177.608C 50.6186 176.608 49.8766 175.964 48.7166 175.964C 47.8256 175.964 47.2516 176.308 46.7246 177.147L 46.7246 176.136L 45.8216 176.143z"/>
<path style="stroke:none; fill-rule:evenodd; fill:#ff0000" d="M 52.2206 173.772L 52.2206 182.171L 53.2206 182.171L 53.2206 178.823C 53.2206 177.585 53.8456 176.772 54.8106 176.772C 55.1106 176.772 55.4116 176.874 55.6386 177.05C 55.9036 177.245 56.0176 177.534 56.0176 177.964L 56.0176 182.167L 57.0176 182.167L 57.0176 177.612C 57.0176 176.6 56.2986 175.968 55.1346 175.968C 54.2906 175.968 53.7786 176.233 53.2206 176.975L 53.2206 173.765L 52.2206 173.772z"/>
<path style="stroke:none; fill-rule:evenodd; fill:#ff0000" d="M 59.4196 176.171L 58.4196 176.171L 58.4196 182.171L 59.4196 182.171L 59.4196 176.171zM 59.4196 173.772L 58.4196 173.772L 58.4196 175.007L 59.4196 175.007L 59.4196 173.772z"/>
<path style="stroke:none; fill-rule:evenodd; fill:#ff0000" d="M 60.9196 173.772L 60.9196 182.171L 61.8176 182.171L 61.8176 181.405C 62.2706 182.128 62.8766 182.472 63.7126 182.472C 65.2866 182.472 66.3136 181.167 66.3136 179.155C 66.3136 177.19 65.3336 175.975 63.7636 175.975C 62.9426 175.975 62.3646 176.288 61.9196 176.972L 61.9196 173.772L 60.9196 173.772zM 63.5676 176.882C 64.6346 176.882 65.3216 177.811 65.3216 179.245C 65.3216 180.608 64.6106 181.538 63.5676 181.538C 62.5606 181.538 61.8926 180.62 61.8926 179.21C 61.8926 177.8 62.5566 176.882 63.5676 176.882z"/>
<path style="stroke:none; fill-rule:evenodd; fill:#ff0000" d="M 68.4196 176.171L 67.4196 176.171L 67.4196 182.171L 68.4196 182.171L 68.4196 176.171zM 68.4196 173.772L 67.4196 173.772L 67.4196 175.007L 68.4196 175.007L 68.4196 173.772z"/>
<path style="stroke:none; fill-rule:evenodd; fill:#ff0000" d="M 72.1226 176.171L 71.2246 176.171L 71.2246 174.503L 70.2246 174.503L 70.2246 176.171L 69.3256 176.171L 69.3256 176.968L 70.2246 176.968L 70.2246 181.515C 70.2246 182.12 70.6266 182.464 71.3566 182.464C 71.5796 182.464 71.8066 182.44 72.1186 182.382L 72.1186 181.546C 72.0056 181.636 71.8686 181.663 71.7006 181.663C 71.3256 181.663 71.2206 181.55 71.2206 181.12L 71.2206 176.968L 72.1186 176.968L 72.1226 176.171z"/>
<path style="stroke:none; fill-rule:evenodd; fill:#ff0000" d="M 75.5606 175.972C 73.8566 175.972 72.8256 177.186 72.8256 179.222C 72.8256 181.257 73.8456 182.472 75.5756 182.472C 77.2786 182.472 78.3256 181.261 78.3256 179.272C 78.3256 177.182 77.3176 175.979 75.5676 175.979L 75.5606 175.972zM 75.5716 176.87C 76.6656 176.87 77.3216 177.757 77.3216 179.253C 77.3216 180.667 76.6456 181.565 75.5716 181.565C 74.4896 181.565 73.8216 180.679 73.8216 179.218C 73.8216 177.768 74.4856 176.87 75.5716 176.87z"/>
<path style="stroke:none; fill-rule:evenodd; fill:#ff0000" d="M 79.6226 176.143L 79.6226 182.167L 80.6226 182.167L 80.6226 179.034C 80.6226 178.171 80.8336 177.608 81.2826 177.272C 81.5716 177.054 81.8526 176.987 82.5056 176.975L 82.5056 176.011C 82.3496 175.991 82.2706 175.979 82.1456 175.979C 81.5366 175.979 81.0716 176.347 80.5246 177.241L 80.5246 176.151L 79.6226 176.143z"/>
<path style="stroke:none; fill-rule:evenodd; fill:#ff0000" d="M 87.0756 176.171L 85.4116 180.839L 83.8766 176.171L 82.8566 176.171L 84.8886 182.225L 84.5246 183.179C 84.3766 183.604 84.1616 183.765 83.7596 183.765C 83.6226 183.765 83.4626 183.729 83.2556 183.659L 83.2556 184.515C 83.4466 184.616 83.6426 184.663 83.8956 184.663C 84.2046 184.663 84.5366 184.561 84.7906 184.378C 85.0876 184.163 85.2596 183.909 85.4426 183.429L 88.1146 176.167L 87.0756 176.171z"/>
<path style="stroke:#0000ff; stroke-width:1.9133; fill:none" d="M 15.6616 165.378L 36.7046 165.378"/>
<path style="stroke:#0000ff; stroke-width:1.9133; fill:none" d="M 29.0566 163.464L 36.7086 165.374L 29.0566 167.284"/>
<path style="stroke:none; fill-rule:evenodd; fill:#000000" d="M 92.1226 96.4721L 88.5246 96.4721L 88.5246 97.3701L 91.1226 97.3701L 91.1226 97.6041C 91.1226 99.1471 90.0246 100.265 88.5056 100.265C 87.6616 100.265 86.8956 99.9521 86.4036 99.4051C 85.8566 98.8001 85.5246 97.7881 85.5246 96.7371C 85.5246 94.6511 86.6886 93.2721 88.4506 93.2721C 89.7166 93.2721 90.6306 93.9401 90.8606 95.0381L 91.9466 95.0381C 91.6496 93.3471 90.3606 92.3701 88.4426 92.3701C 87.4236 92.3701 86.5956 92.6361 85.9386 93.1751C 84.9776 93.9791 84.4236 95.2801 84.4236 96.7881C 84.4236 99.3661 85.9936 101.163 88.2596 101.163C 89.3956 101.163 90.3026 100.737 91.1186 99.8271L 91.3956 100.94L 92.1146 100.94L 92.1226 96.4721z"/>
<path style="stroke:none; fill-rule:evenodd; fill:#000000" d="M 95.9586 94.6711C 94.2556 94.6711 93.2246 95.8861 93.2246 97.9211C 93.2246 99.9561 94.2436 101.171 95.9746 101.171C 97.6776 101.171 98.7246 99.9601 98.7246 97.9721C 98.7246 95.8821 97.7166 94.6791 95.9666 94.6791L 95.9586 94.6711zM 95.9706 95.5731C 97.0636 95.5731 97.7206 96.4601 97.7206 97.9561C 97.7206 99.3701 97.0446 100.268 95.9706 100.268C 94.8886 100.268 94.2206 99.3821 94.2206 97.9211C 94.2206 96.4721 94.8846 95.5731 95.9706 95.5731z"/>
<path style="stroke:none; fill-rule:evenodd; fill:#000000" d="M 133.42 92.4721L 132.42 92.4721L 132.42 99.3431L 128.072 92.4721L 126.924 92.4721L 126.924 100.87L 127.924 100.87L 127.924 94.0891L 132.225 100.87L 133.42 100.87L 133.42 92.4721z"/>
<path style="stroke:none; fill-rule:evenodd; fill:#000000" d="M 137.459 94.6711C 135.756 94.6711 134.725 95.8861 134.725 97.9211C 134.725 99.9561 135.744 101.171 137.475 101.171C 139.178 101.171 140.225 99.9601 140.225 97.9721C 140.225 95.8821 139.217 94.6791 137.467 94.6791L 137.459 94.6711zM 137.471 95.5731C 138.564 95.5731 139.221 96.4601 139.221 97.9561C 139.221 99.3701 138.545 100.268 137.471 100.268C 136.389 100.268 135.721 99.3821 135.721 97.9211C 135.721 96.4721 136.385 95.5731 137.471 95.5731z"/>
<path style="stroke:none; fill-rule:evenodd; fill:#000000" d="M 148.92 96.4721L 145.322 96.4721L 145.322 97.3701L 147.92 97.3701L 147.92 97.6041C 147.92 99.1471 146.822 100.265 145.303 100.265C 144.459 100.265 143.693 99.9521 143.201 99.4051C 142.654 98.8001 142.322 97.7881 142.322 96.7371C 142.322 94.6511 143.486 93.2721 145.248 93.2721C 146.514 93.2721 147.428 93.9401 147.658 95.0381L 148.744 95.0381C 148.447 93.3471 147.158 92.3701 145.24 92.3701C 144.221 92.3701 143.393 92.6361 142.736 93.1751C 141.775 93.9791 141.221 95.2801 141.221 96.7881C 141.221 99.3661 142.791 101.163 145.057 101.163C 146.193 101.163 147.1 100.737 147.916 99.8271L 148.193 100.94L 148.912 100.94L 148.92 96.4721z"/>
<path style="stroke:none; fill-rule:evenodd; fill:#000000" d="M 152.76 94.6711C 151.057 94.6711 150.025 95.8861 150.025 97.9211C 150.025 99.9561 151.045 101.171 152.775 101.171C 154.478 101.171 155.525 99.9601 155.525 97.9721C 155.525 95.8821 154.518 94.6791 152.768 94.6791L 152.76 94.6711zM 152.771 95.5731C 153.865 95.5731 154.521 96.4601 154.521 97.9561C 154.521 99.3701 153.846 100.268 152.771 100.268C 151.689 100.268 151.021 99.3821 151.021 97.9211C 151.021 96.4721 151.685 95.5731 152.771 95.5731z"/>
<path style="stroke:#000000; stroke-width:0.95664899999999997; fill:none" d="M 270.986 99.3701C 270.986 88.8081 256.428 80.2371 238.463 80.2371C 220.502 80.2371 205.939 88.8001 205.939 99.3701C 205.939 109.932 220.502 118.503 238.463 118.503C 256.424 118.503 270.986 109.94 270.986 99.3701"/>
<path style="stroke:none; fill-rule:evenodd; fill:#ff0000" d="M 238.463 120.417C 238.463 118.308 236.752 116.593 234.639 116.593C 232.529 116.593 230.814 118.304 230.814 120.417C 230.814 122.526 232.525 124.241 234.639 124.241C 236.748 124.241 238.463 122.53 238.463 120.417"/>
<path style="stroke:#ff0000; stroke-width:1.9133; fill:none" d="M 238.463 120.417C 238.463 118.308 236.752 116.593 234.639 116.593C 232.529 116.593 230.814 118.304 230.814 120.417C 230.814 122.526 232.525 124.241 234.639 124.241C 236.748 124.241 238.463 122.53 238.463 120.417"/>
<path style="stroke:none; fill-rule:evenodd; fill:#000000" d="M 218.42 90.5731L 217.521 90.5731L 217.521 88.9051L 216.521 88.9051L 216.521 90.5731L 215.623 90.5731L 215.623 91.3701L 216.521 91.3701L 216.521 95.9171C 216.521 96.5221 216.924 96.8661 217.654 96.8661C 217.877 96.8661 218.103 96.8431 218.416 96.7841L 218.416 95.9481C 218.303 96.0381 218.166 96.0651 217.998 96.0651C 217.623 96.0651 217.518 95.9521 217.518 95.5221L 217.518 91.3701L 218.416 91.3701L 218.42 90.5731z"/>
<path style="stroke:none; fill-rule:evenodd; fill:#000000" d="M 219.521 88.1711L 219.521 96.5691L 220.521 96.5691L 220.521 93.2221C 220.521 91.9831 221.146 91.1711 222.111 91.1711C 222.412 91.1711 222.713 91.2721 222.939 91.4481C 223.205 91.6431 223.318 91.9321 223.318 92.3621L 223.318 96.5651L 224.318 96.5651L 224.318 92.0111C 224.318 90.9991 223.6 90.3661 222.435 90.3661C 221.592 90.3661 221.08 90.6321 220.521 91.3741L 220.521 88.1631L 219.521 88.1711z"/>
<path style="stroke:none; fill-rule:evenodd; fill:#000000" d="M 231.264 96.0111C 231.158 96.0691 231.111 96.0691 231.053 96.0691C 230.713 96.0691 230.525 95.8971 230.525 95.5971L 230.525 92.0301C 230.525 90.9561 229.748 90.3741 228.275 90.3741C 227.408 90.3741 226.689 90.6281 226.287 91.0771C 226.014 91.3861 225.9 91.7331 225.877 92.3351L 226.822 92.3351C 226.9 91.6041 227.326 91.2721 228.209 91.2721C 229.053 91.2721 229.525 91.5931 229.525 92.1711L 229.525 92.4251C 229.525 92.8271 229.291 92.9991 228.549 93.0931C 227.225 93.2651 227.021 93.3111 226.662 93.4601C 225.978 93.7451 225.631 94.2881 225.631 95.0731C 225.631 96.1671 226.385 96.8581 227.596 96.8581C 228.35 96.8581 228.955 96.5851 229.631 95.9401C 229.697 96.5731 229.994 96.8581 230.611 96.8581C 230.803 96.8581 230.951 96.8351 231.26 96.7531L 231.264 96.0111zM 229.521 94.7101C 229.521 95.0381 229.432 95.2411 229.154 95.5151C 228.775 95.8781 228.318 96.0691 227.771 96.0691C 227.049 96.0691 226.623 95.7061 226.623 95.0771C 226.623 94.4291 227.033 94.0971 228.025 93.9441C 229.006 93.8041 229.205 93.7571 229.518 93.6041L 229.521 94.7101z"/>
<path style="stroke:none; fill-rule:evenodd; fill:#000000" d="M 232.221 96.5731L 233.221 96.5731L 233.221 88.1751L 232.221 88.1751L 232.221 96.5731z"/>
<path style="stroke:none; fill-rule:evenodd; fill:#000000" d="M 240.162 96.0111C 240.057 96.0691 240.01 96.0691 239.951 96.0691C 239.611 96.0691 239.424 95.8971 239.424 95.5971L 239.424 92.0301C 239.424 90.9561 238.646 90.3741 237.174 90.3741C 236.307 90.3741 235.588 90.6281 235.185 91.0771C 234.912 91.3861 234.799 91.7331 234.775 92.3351L 235.721 92.3351C 235.799 91.6041 236.225 91.2721 237.107 91.2721C 237.951 91.2721 238.424 91.5931 238.424 92.1711L 238.424 92.4251C 238.424 92.8271 238.189 92.9991 237.447 93.0931C 236.123 93.2651 235.92 93.3111 235.561 93.4601C 234.877 93.7451 234.529 94.2881 234.529 95.0731C 234.529 96.1671 235.283 96.8581 236.494 96.8581C 237.248 96.8581 237.853 96.5851 238.529 95.9401C 238.596 96.5731 238.893 96.8581 239.51 96.8581C 239.701 96.8581 239.85 96.8351 240.158 96.7531L 240.162 96.0111zM 238.42 94.7101C 238.42 95.0381 238.33 95.2411 238.053 95.5151C 237.674 95.8781 237.217 96.0691 236.67 96.0691C 235.947 96.0691 235.521 95.7061 235.521 95.0771C 235.521 94.4291 235.932 94.0971 236.924 93.9441C 237.904 93.8041 238.103 93.7571 238.416 93.6041L 238.42 94.7101z"/>
<path style="stroke:none; fill-rule:evenodd; fill:#000000" d="M 241.221 90.5461L 241.221 96.5691L 242.221 96.5691L 242.221 92.7611C 242.221 91.8821 242.846 91.1751 243.615 91.1751C 244.318 91.1751 244.717 91.6121 244.717 92.3901L 244.717 96.5691L 245.717 96.5691L 245.717 92.7611C 245.717 91.8821 246.342 91.1751 247.111 91.1751C 247.803 91.1751 248.213 91.6241 248.213 92.3901L 248.213 96.5691L 249.213 96.5691L 249.213 92.0501C 249.213 90.9721 248.592 90.3741 247.459 90.3741C 246.654 90.3741 246.166 90.6161 245.603 91.3041C 245.248 90.6551 244.764 90.3741 243.978 90.3741C 243.174 90.3741 242.643 90.6711 242.123 91.3931L 242.123 90.5461L 241.221 90.5461z"/>
<path style="stroke:none; fill-rule:evenodd; fill:#000000" d="M 255.521 96.6081L 255.521 90.5771L 254.521 90.5771L 254.521 94.0221C 254.521 95.2611 253.877 96.0731 252.869 96.0731C 252.107 96.0731 251.623 95.6121 251.623 94.8821L 251.623 90.5771L 250.623 90.5771L 250.623 95.2291C 250.623 96.2291 251.381 96.8741 252.572 96.8741C 253.471 96.8741 254.045 96.5651 254.619 95.7721L 254.619 96.6121L 255.521 96.6081z"/>
<path style="stroke:none; fill-rule:evenodd; fill:#000000" d="M 261.35 92.2331C 261.338 91.0461 260.553 90.3741 259.15 90.3741C 257.74 90.3741 256.826 91.1001 256.826 92.2221C 256.826 93.1671 257.314 93.6161 258.764 93.9641L 259.674 94.1821C 260.35 94.3431 260.619 94.5851 260.619 95.0221C 260.619 95.5851 260.053 95.9681 259.209 95.9681C 258.689 95.9681 258.252 95.8191 258.01 95.5611C 257.861 95.3901 257.791 95.2141 257.732 94.7801L 256.717 94.7801C 256.76 96.1901 257.545 96.8701 259.127 96.8701C 260.65 96.8701 261.619 96.1201 261.619 94.9561C 261.619 94.0581 261.107 93.5611 259.893 93.2721L 258.959 93.0541C 258.166 92.8701 257.826 92.6161 257.826 92.1901C 257.826 91.6401 258.322 91.2801 259.111 91.2801C 259.885 91.2801 260.303 91.6081 260.326 92.2371L 261.35 92.2331z"/>
<path style="stroke:none; fill-rule:evenodd; fill:#000000" d="M 218.771 107.671L 221.189 100.671L 220.244 100.671L 218.314 106.597L 216.268 100.671L 215.314 100.671L 217.818 107.671L 218.771 107.671z"/>
<path style="stroke:none; fill-rule:evenodd; fill:#000000" d="M 225.955 105.573L 226.67 107.671L 227.662 107.671L 225.217 100.671L 224.072 100.671L 221.588 107.671L 222.533 107.671L 223.268 105.573L 225.955 105.573zM 225.709 104.87L 223.49 104.87L 224.635 101.655L 225.709 104.87z"/>
<path style="stroke:none; fill-rule:evenodd; fill:#000000" d="M 228.623 106.671L 228.623 107.671L 229.221 107.671L 229.221 107.835C 229.221 108.468 229.092 108.651 228.623 108.667L 228.623 109.065C 229.287 109.065 229.623 108.636 229.623 107.815L 229.623 106.671L 228.623 106.671z"/>
<path style="stroke:none; fill-rule:evenodd; fill:#000000" d="M 234.17 107.671L 236.588 100.671L 235.643 100.671L 233.713 106.597L 231.666 100.671L 230.713 100.671L 233.217 107.671L 234.17 107.671z"/>
<path style="stroke:none; fill-rule:evenodd; fill:#000000" d="M 238.521 100.671L 237.623 100.671L 237.623 107.671L 241.92 107.671L 241.92 106.972L 238.521 106.972L 238.521 100.671z"/>
<path style="stroke:none; fill-rule:evenodd; fill:#000000" d="M 242.92 106.671L 242.92 107.671L 243.518 107.671L 243.518 107.835C 243.518 108.468 243.389 108.651 242.92 108.667L 242.92 109.065C 243.584 109.065 243.92 108.636 243.92 107.815L 243.92 106.671L 242.92 106.671z"/>
<path style="stroke:none; fill-rule:evenodd; fill:#000000" d="M 249.311 107.671L 251.318 101.827L 251.318 107.671L 252.115 107.671L 252.115 100.671L 250.877 100.671L 248.842 106.768L 246.768 100.671L 245.529 100.671L 245.529 107.671L 246.326 107.671L 246.326 101.827L 248.353 107.671L 249.311 107.671z"/>
<path style="stroke:none; fill-rule:evenodd; fill:#000000" d="M 253.623 107.671L 256.342 107.671C 258.123 107.671 259.217 106.347 259.217 104.167C 259.217 101.999 258.131 100.675 256.342 100.675L 253.623 100.675L 253.623 107.671zM 254.521 106.972L 254.521 101.374L 256.185 101.374C 257.58 101.374 258.318 102.335 258.318 104.179C 258.318 105.999 257.584 106.972 256.185 106.972L 254.521 106.972z"/>
<path style="stroke:#ff0000; stroke-dasharray:6,3; stroke-width:1.9133; fill:none" d="M 198.041 197.003L 234.369 121.475"/>
<path style="stroke:#0000ff; stroke-width:1.9133; fill:none" d="M 215.248 44.0341L 238.189 78.4521"/>
<path style="stroke:#0000ff; stroke-width:1.9133; fill:none" d="M 217.9 51.4601L 215.248 44.0341L 221.084 49.3391"/>
<path style="stroke:#0000ff; stroke-width:1.9133; fill:none" d="M 235.541 71.0221L 238.193 78.4481L 232.357 73.1431"/>
</g>
</svg>