<?xml version="1.0" encoding="ISO-8859-1" standalone="yes"?>
<svg width="383.074" height="165.334">
  <defs> 
    <marker id="ArrowEnd" viewBox="0 0 10 10" refX="0" refY="5" 
     markerUnits="strokeWidth" 
     markerWidth="4" 
     markerHeight="3" 
     orient="auto"> 
        <path d="M 0 0 L 10 5 L 0 10 z" /> 
    </marker>
    <marker id="ArrowStart" viewBox="0 0 10 10" refX="10" refY="5" 
     markerUnits="strokeWidth" 
     markerWidth="4" 
     markerHeight="3" 
     orient="auto"> 
        <path d="M 10 0 L 0 5 L 10 10 z" /> 
    </marker> </defs>
<g>
<path style="stroke:none; fill-rule:evenodd; fill:#ff0000" d="M 137.993 122.899L 140.723 122.899C 141.665 122.899 142.085 123.356 142.085 124.387L 142.085 125.129C 142.085 125.645 142.171 126.149 142.316 126.493L 143.574 126.493L 143.574 126.231C 143.184 125.957 143.102 125.657 143.083 124.539C 143.07 123.157 142.852 122.743 141.938 122.352C 142.895 121.891 143.281 121.305 143.281 120.348C 143.281 118.899 142.374 118.102 140.738 118.102L 136.887 118.102L 136.887 126.5L 137.984 126.5L 137.993 122.899zM 137.926 121.954L 137.926 119.075L 140.508 119.075C 141.102 119.075 141.445 119.164 141.71 119.395C 141.997 119.633 142.145 120.012 142.145 120.52C 142.145 121.504 141.641 121.954 140.503 121.954L 137.926 121.954z"/>
<path style="stroke:none; fill-rule:evenodd; fill:#ff0000" d="M 149.993 123.801C 149.993 122.883 149.926 122.332 149.753 121.887C 149.368 120.903 148.454 120.305 147.335 120.305C 145.671 120.305 144.598 121.598 144.598 123.586C 144.598 125.575 145.633 126.801 147.309 126.801C 148.671 126.801 149.618 126.008 149.859 124.676L 148.906 124.676C 148.645 125.481 148.113 125.899 147.352 125.899C 146.749 125.899 146.238 125.621 145.921 125.106C 145.695 124.758 145.618 124.407 145.605 123.801L 149.993 123.801zM 145.574 123.032C 145.652 121.918 146.333 121.196 147.292 121.196C 148.23 121.196 148.956 121.973 148.956 122.961C 148.956 122.981 148.956 123.004 148.945 123.028L 145.574 123.032z"/>
<path style="stroke:none; fill-rule:evenodd; fill:#ff0000" d="M 156.191 118.098L 155.191 118.098L 155.191 121.239C 154.792 120.625 154.156 120.297 153.355 120.297C 151.809 120.297 150.792 121.555 150.792 123.489C 150.792 125.536 151.805 126.793 153.445 126.793C 154.281 126.793 154.863 126.473 155.387 125.704L 155.387 126.493L 156.184 126.493L 156.191 118.098zM 153.52 121.2C 154.54 121.2 155.188 122.125 155.188 123.571C 155.188 124.969 154.531 125.895 153.531 125.895C 152.488 125.895 151.792 124.957 151.792 123.547C 151.792 122.137 152.484 121.2 153.52 121.2z"/>
<path style="stroke:#ff0000; stroke-dasharray:6,3; stroke-width:1.9133; fill:none" d="M 123.141 136.258L 168.594 136.258L 168.594 109.879L 123.141 109.879L 123.141 136.258z"/>
<path style="stroke:none; fill-rule:evenodd; fill:#0000ff" d="M 135.792 71L 139.602 71C 140.398 71 140.988 70.782 141.441 70.301C 141.855 69.864 142.09 69.266 142.09 68.61C 142.09 67.598 141.618 66.985 140.516 66.575C 141.281 66.219 141.688 65.598 141.688 64.746C 141.688 64.137 141.46 63.598 141.02 63.203C 140.583 62.801 140.008 62.618 139.199 62.618L 135.79 62.618L 135.792 71zM 136.895 66.301L 136.895 63.504L 138.938 63.504C 139.527 63.504 139.855 63.586 140.137 63.817C 140.43 64.055 140.59 64.418 140.59 64.903C 140.59 65.371 140.434 65.746 140.137 65.989C 139.855 66.215 139.527 66.301 138.938 66.301L 136.895 66.301zM 136.895 70.098L 136.895 67.2L 139.493 67.2C 140.003 67.2 140.348 67.325 140.602 67.602C 140.852 67.868 140.988 68.235 140.988 68.653C 140.988 69.055 140.852 69.426 140.602 69.692C 140.352 69.965 140.008 70.094 139.493 70.094L 136.895 70.098z"/>
<path style="stroke:none; fill-rule:evenodd; fill:#0000ff" d="M 143.292 71L 144.292 71L 144.292 62.602L 143.292 62.602L 143.292 71z"/>
<path style="stroke:none; fill-rule:evenodd; fill:#0000ff" d="M 150.691 71.036L 150.691 65.004L 149.691 65.004L 149.691 68.45C 149.691 69.688 149.046 70.5 148.04 70.5C 147.277 70.5 146.792 70.039 146.792 69.309L 146.792 65.004L 145.792 65.004L 145.792 69.657C 145.792 70.657 146.551 71.301 147.743 71.301C 148.641 71.301 149.215 70.993 149.79 70.2L 149.79 71.039L 150.691 71.036z"/>
<path style="stroke:none; fill-rule:evenodd; fill:#0000ff" d="M 157.395 68.301C 157.395 67.383 157.329 66.832 157.156 66.387C 156.77 65.403 155.855 64.805 154.738 64.805C 153.074 64.805 151.999 66.098 151.999 68.086C 151.999 70.075 153.036 71.301 154.71 71.301C 156.074 71.301 157.02 70.508 157.262 69.176L 156.309 69.176C 156.046 69.981 155.516 70.399 154.753 70.399C 154.152 70.399 153.641 70.121 153.324 69.606C 153.098 69.258 153.02 68.907 153.008 68.301L 157.395 68.301zM 152.973 67.532C 153.051 66.418 153.73 65.696 154.691 65.696C 155.628 65.696 156.355 66.473 156.355 67.461C 156.355 67.481 156.355 67.504 156.344 67.528L 152.973 67.532z"/>
<path style="stroke:#0000ff; stroke-dasharray:6,3; stroke-width:2.8699499999999998; fill:none" d="M 123.622 80.77L 169.074 80.77L 169.074 54.391L 123.622 54.391L 123.622 80.77z"/>
<path style="stroke:#000000; stroke-width:1.9133; fill:none" d="M 188.671 128.602L 234.124 128.602L 234.124 102.223L 188.671 102.223L 188.671 128.602z"/>
<path style="stroke:none; fill-rule:evenodd; fill:#000000" d="M 199.594 112.887C 199.585 111.25 198.465 110.301 196.551 110.301C 194.727 110.301 193.598 111.25 193.598 112.778C 193.598 113.805 194.128 114.457 195.219 114.746L 197.273 115.301C 198.316 115.579 198.792 116.004 198.792 116.664C 198.792 117.114 198.555 117.579 198.206 117.832C 197.878 118.063 197.359 118.188 196.691 118.188C 195.796 118.188 195.188 117.961 194.792 117.461C 194.488 117.082 194.352 116.664 194.402 116.125L 193.402 116.125C 193.411 116.903 193.559 117.414 193.887 117.879C 194.454 118.668 195.406 119.086 196.665 119.086C 197.648 119.086 198.454 118.86 198.988 118.442C 199.542 117.996 199.895 117.246 199.895 116.52C 199.895 115.485 199.262 114.727 198.137 114.414L 196.062 113.852C 195.066 113.579 194.704 113.254 194.704 112.61C 194.704 111.758 195.438 111.192 196.542 111.192C 197.852 111.192 198.585 111.793 198.598 112.879L 199.594 112.887z"/>
<path style="stroke:none; fill-rule:evenodd; fill:#000000" d="M 206.094 121.301L 206.094 112.805L 205.296 112.805L 205.296 113.59C 204.844 112.954 204.156 112.606 203.355 112.606C 201.749 112.606 200.704 113.911 200.704 115.922C 200.704 117.887 201.68 119.102 203.253 119.102C 204.083 119.102 204.652 118.793 205.098 118.114L 205.098 121.301L 206.094 121.301zM 203.445 113.508C 204.465 113.508 205.122 114.426 205.122 115.871C 205.122 117.246 204.456 118.164 203.445 118.164C 202.391 118.164 201.691 117.235 201.691 115.836C 201.691 114.45 202.391 113.508 203.445 113.508z"/>
<path style="stroke:none; fill-rule:evenodd; fill:#000000" d="M 212.395 118.836L 212.395 112.805L 211.395 112.805L 211.395 116.25C 211.395 117.489 210.749 118.301 209.743 118.301C 208.98 118.301 208.497 117.84 208.497 117.11L 208.497 112.805L 207.497 112.805L 207.497 117.457C 207.497 118.457 208.253 119.102 209.445 119.102C 210.344 119.102 210.917 118.793 211.493 118L 211.493 118.84L 212.395 118.836z"/>
<path style="stroke:none; fill-rule:evenodd; fill:#000000" d="M 219.335 118.239C 219.23 118.297 219.184 118.297 219.124 118.297C 218.786 118.297 218.598 118.125 218.598 117.825L 218.598 114.258C 218.598 113.184 217.82 112.602 216.348 112.602C 215.48 112.602 214.762 112.856 214.359 113.305C 214.085 113.614 213.973 113.961 213.949 114.563L 214.895 114.563C 214.973 113.832 215.398 113.5 216.281 113.5C 217.124 113.5 217.598 113.821 217.598 114.399L 217.598 114.653C 217.598 115.055 217.363 115.227 216.622 115.321C 215.296 115.493 215.094 115.539 214.734 115.688C 214.051 115.973 213.704 116.516 213.704 117.301C 213.704 118.395 214.456 119.086 215.667 119.086C 216.421 119.086 217.027 118.813 217.704 118.168C 217.77 118.801 218.066 119.086 218.684 119.086C 218.874 119.086 219.023 119.063 219.333 118.981L 219.335 118.239zM 217.594 116.938C 217.594 117.266 217.503 117.469 217.227 117.743C 216.848 118.106 216.391 118.297 215.844 118.297C 215.122 118.297 214.695 117.934 214.695 117.305C 214.695 116.657 215.105 116.325 216.098 116.172C 217.079 116.032 217.277 115.985 217.59 115.832L 217.594 116.938z"/>
<path style="stroke:none; fill-rule:evenodd; fill:#000000" d="M 220.395 112.774L 220.395 118.797L 221.395 118.797L 221.395 115.664C 221.395 114.801 221.605 114.239 222.055 113.903C 222.344 113.684 222.624 113.618 223.277 113.606L 223.277 112.641C 223.122 112.621 223.042 112.61 222.917 112.61C 222.309 112.61 221.844 112.977 221.296 113.871L 221.296 112.782L 220.395 112.774z"/>
<path style="stroke:none; fill-rule:evenodd; fill:#000000" d="M 229.292 116.098C 229.292 115.18 229.227 114.629 229.055 114.184C 228.667 113.2 227.753 112.602 226.637 112.602C 224.973 112.602 223.898 113.895 223.898 115.883C 223.898 117.871 224.934 119.098 226.609 119.098C 227.973 119.098 228.917 118.305 229.161 116.973L 228.206 116.973C 227.945 117.778 227.415 118.196 226.652 118.196C 226.051 118.196 225.54 117.918 225.223 117.403C 224.997 117.055 224.917 116.704 224.906 116.098L 229.292 116.098zM 224.874 115.332C 224.954 114.219 225.633 113.496 226.594 113.496C 227.531 113.496 228.258 114.274 228.258 115.262C 228.258 115.282 228.258 115.305 228.247 115.329L 224.874 115.332z"/>
<path style="stroke:#0000ff; stroke-dasharray:6,3; stroke-width:1.9133; fill:none" d="M 11.8554 132.223L 49.7578 132.223L 49.7578 94.8714L 11.8554 94.8714L 11.8554 132.223z"/>
<path style="stroke:#000000; stroke-width:1.9133; fill:none" d="M 90.3828 63.321C 90.3828 63.321 90.3828 63.321 88.4726 65.231C 86.5625 67.141 82.7343 70.969 80.8203 77.985C 78.9101 85 78.9101 95.2035 80.8203 102.219C 82.7304 109.235 86.5586 113.059 88.4726 114.973C 90.3828 116.883 90.3828 116.883 90.3828 116.883"/>
<path style="stroke:#000000; stroke-width:1.9133; fill:none" d="M 82.7304 55.668L 113.34 90.1058"/>
<path style="stroke:#000000; stroke-width:1.9133; fill:none" d="M 113.344 90.1097L 82.7343 124.547"/>
<path style="stroke:#000000; stroke-width:1.9133; fill:none" d="M 82.7304 74.801C 82.7304 74.801 82.7304 74.801 83.3672 76.711C 84.0039 78.621 85.2773 82.45 85.9179 85.637C 86.5547 88.825 86.5547 91.3753 85.9179 95.1996C 85.2812 99.0238 84.0078 104.125 83.3672 106.676C 82.7304 109.227 82.7304 109.227 82.7304 109.227"/>
<path style="stroke:#ff0000; stroke-dasharray:6,3; stroke-width:1.9133; fill:none" d="M 32.9843 39.407L 52.1172 78.629"/>
<path style="stroke:#ff0000; stroke-dasharray:6,3; stroke-width:1.9133; fill:none" d="M 52.1172 78.629L 10.0273 78.629"/>
<path style="stroke:#ff0000; stroke-dasharray:6,3; stroke-width:1.9133; fill:none" d="M 10.5039 78.153L 32.9843 39.41"/>
<path style="stroke:#ff0000; stroke-dasharray:6,3; stroke-width:1.9133; fill:none" d="M 260.582 138.918L 298.484 138.918L 298.484 101.567L 260.582 101.567L 260.582 138.918z"/>
<path style="stroke:none; fill-rule:evenodd; fill:#ff0000" d="M 280.293 121.414L 280.293 120.879C 280.293 120.375 280.414 120.184 281.172 119.461C 282.008 118.684 282.289 118.168 282.289 117.411C 282.289 116.071 281.348 115.211 279.875 115.211C 278.242 115.211 277.395 116.125 277.395 117.891L 278.395 117.891C 278.395 117.368 278.449 117.047 278.586 116.774C 278.797 116.352 279.25 116.114 279.848 116.114C 280.715 116.114 281.289 116.641 281.289 117.418C 281.289 117.942 281.047 118.391 280.453 118.93C 279.797 119.536 279.797 119.536 279.605 119.797C 279.375 120.118 279.297 120.379 279.297 120.789L 279.297 121.418L 280.293 121.414zM 280.293 122.5L 279.293 122.5L 279.293 123.7L 280.293 123.7L 280.293 122.5z"/>
<path style="stroke:none; fill-rule:evenodd; fill:#0000ff" d="M 282.691 74.516L 282.691 73.981C 282.691 73.477 282.812 73.286 283.57 72.563C 284.406 71.786 284.688 71.27 284.688 70.512C 284.688 69.172 283.746 68.313 282.273 68.313C 280.641 68.313 279.793 69.227 279.793 70.993L 280.793 70.993C 280.793 70.469 280.848 70.149 280.984 69.875C 281.195 69.453 281.648 69.215 282.246 69.215C 283.113 69.215 283.688 69.743 283.688 70.52C 283.688 71.043 283.445 71.493 282.852 72.032C 282.195 72.637 282.195 72.637 282.004 72.899C 281.773 73.219 281.695 73.481 281.695 73.891L 281.695 74.52L 282.691 74.516zM 282.691 75.598L 281.691 75.598L 281.691 76.797L 282.691 76.797L 282.691 75.598z"/>
<path style="stroke:#0000ff; stroke-dasharray:6,3; stroke-width:1.9133; fill:none" d="M 281.715 49.93L 300.848 89.153"/>
<path style="stroke:#0000ff; stroke-dasharray:6,3; stroke-width:1.9133; fill:none" d="M 300.848 89.153L 258.758 89.153"/>
<path style="stroke:#0000ff; stroke-dasharray:6,3; stroke-width:1.9133; fill:none" d="M 259.234 88.672L 281.715 49.93"/>
<path style="stroke:none; fill-rule:evenodd; fill:#000000" d="M 42.0351 7.83601C 41.9297 7.895 41.8828 7.895 41.8242 7.895C 41.4843 7.895 41.2968 7.72301 41.2968 7.42201L 41.2968 3.856C 41.2968 2.78201 40.5195 2.20001 39.0468 2.20001C 38.1797 2.20001 37.4609 2.453 37.0586 2.903C 36.7851 3.21101 36.6718 3.55901 36.6484 4.16L 37.5937 4.16C 37.6718 3.43001 38.0976 3.09801 38.9804 3.09801C 39.8242 3.09801 40.2968 3.41801 40.2968 3.996L 40.2968 4.25C 40.2968 4.653 40.0625 4.82501 39.3203 4.91801C 37.9961 5.09001 37.7929 5.13701 37.4336 5.28601C 36.75 5.57101 36.4023 6.11401 36.4023 6.899C 36.4023 7.99301 37.1562 8.68401 38.3672 8.68401C 39.1211 8.68401 39.7265 8.41 40.4023 7.76601C 40.4687 8.399 40.7656 8.68401 41.3828 8.68401C 41.5742 8.68401 41.7226 8.66 42.0312 8.578L 42.0351 7.83601zM 40.2929 6.539C 40.2929 6.86801 40.2031 7.07101 39.9257 7.34401C 39.5468 7.707 39.0898 7.899 38.5429 7.899C 37.8203 7.899 37.3945 7.53601 37.3945 6.90701C 37.3945 6.25801 37.8047 5.92601 38.7968 5.774C 39.7773 5.63301 39.9765 5.58601 40.289 5.43401L 40.2929 6.539z"/>
<path style="stroke:none; fill-rule:evenodd; fill:#000000" d="M 43.25 10.832C 44.3789 9.32501 45.0898 7.231 45.0898 5.42601C 45.0898 3.61 44.3789 1.51601 43.25 0.00401306L 42.6328 0.00401306C 43.6367 1.653 44.1953 3.582 44.1953 5.42601C 44.1953 7.25401 43.6367 9.20001 42.6328 10.832L 43.25 10.832z"/>
<path style="stroke:none; fill-rule:evenodd; fill:#000000" d="M 50.3945 8.399L 51.4922 8.399L 51.4922 0L 50.3945 0L 50.3945 8.399z"/>
<path style="stroke:none; fill-rule:evenodd; fill:#000000" d="M 53.1914 2.371L 53.1914 8.395L 54.1914 8.395L 54.1914 5.04701C 54.1914 3.80901 54.8164 2.996 55.7812 2.996C 56.5195 2.996 56.9883 3.457 56.9883 4.188L 56.9883 8.39101L 57.9883 8.39101L 57.9883 3.83601C 57.9883 2.83601 57.2461 2.192 56.0859 2.192C 55.1953 2.192 54.6211 2.53601 54.0937 3.375L 54.0937 2.36401L 53.1914 2.371z"/>
<path style="stroke:none; fill-rule:evenodd; fill:#000000" d="M 59.3945 10.903L 60.3945 10.903L 60.3945 7.80101C 60.8945 8.42201 61.457 8.70001 62.2304 8.70001C 63.7734 8.70001 64.789 7.442 64.789 5.50801C 64.789 3.47701 63.8047 2.203 62.207 2.203C 61.3945 2.203 60.7383 2.57101 60.2929 3.28201L 60.2929 2.375L 59.3945 2.375L 59.3945 10.903zM 62.0586 3.09801C 63.1054 3.09801 63.789 4.03201 63.789 5.481C 63.789 6.856 63.0937 7.79301 62.0586 7.79301C 61.0547 7.79301 60.3945 6.86801 60.3945 5.44601C 60.3945 4.024 61.0547 3.09801 62.0586 3.09801z"/>
<path style="stroke:none; fill-rule:evenodd; fill:#000000" d="M 70.7929 8.43401L 70.7929 2.403L 69.7929 2.403L 69.7929 5.84801C 69.7929 7.08601 69.1484 7.899 68.1406 7.899C 67.3789 7.899 66.8945 7.438 66.8945 6.707L 66.8945 2.403L 65.8945 2.403L 65.8945 7.05501C 65.8945 8.05501 66.6523 8.70001 67.8437 8.70001C 68.7422 8.70001 69.3164 8.39101 69.8906 7.59801L 69.8906 8.438L 70.7929 8.43401z"/>
<path style="stroke:none; fill-rule:evenodd; fill:#000000" d="M 74.4922 2.399L 73.5937 2.399L 73.5937 0.731003L 72.5937 0.731003L 72.5937 2.399L 71.6953 2.399L 71.6953 3.19601L 72.5937 3.19601L 72.5937 7.74301C 72.5937 8.34801 72.9961 8.692 73.7265 8.692C 73.9492 8.692 74.1757 8.66801 74.4883 8.61L 74.4883 7.774C 74.375 7.86401 74.2383 7.89101 74.0703 7.89101C 73.6953 7.89101 73.5898 7.778 73.5898 7.34801L 73.5898 3.19601L 74.4883 3.19601L 74.4922 2.399z"/>
<path style="stroke:none; fill-rule:evenodd; fill:#000000" d="M 84.1328 7.83601C 84.0273 7.895 83.9804 7.895 83.9218 7.895C 83.582 7.895 83.3945 7.72301 83.3945 7.42201L 83.3945 3.856C 83.3945 2.78201 82.6172 2.20001 81.1445 2.20001C 80.2773 2.20001 79.5586 2.453 79.1562 2.903C 78.8828 3.21101 78.7695 3.55901 78.7461 4.16L 79.6914 4.16C 79.7695 3.43001 80.1953 3.09801 81.0781 3.09801C 81.9218 3.09801 82.3945 3.41801 82.3945 3.996L 82.3945 4.25C 82.3945 4.653 82.1601 4.82501 81.4179 4.91801C 80.0937 5.09001 79.8906 5.13701 79.5312 5.28601C 78.8476 5.57101 78.5 6.11401 78.5 6.899C 78.5 7.99301 79.2539 8.68401 80.4648 8.68401C 81.2187 8.68401 81.8242 8.41 82.5 7.76601C 82.5664 8.399 82.8633 8.68401 83.4804 8.68401C 83.6718 8.68401 83.8203 8.66 84.1289 8.578L 84.1328 7.83601zM 82.3945 6.539C 82.3945 6.86801 82.3047 7.07101 82.0273 7.34401C 81.6484 7.707 81.1914 7.899 80.6445 7.899C 79.9218 7.899 79.4961 7.53601 79.4961 6.90701C 79.4961 6.25801 79.9062 5.92601 80.8984 5.774C 81.8789 5.63301 82.0781 5.58601 82.3906 5.43401L 82.3945 6.539z"/>
<path style="stroke:none; fill-rule:evenodd; fill:#000000" d="M 89.8007 4.40701C 89.7578 3.82101 89.6328 3.438 89.4023 3.10201C 88.9961 2.539 88.2773 2.203 87.4492 2.203C 85.8476 2.203 84.8007 3.496 84.8007 5.50801C 84.8007 7.46101 85.8242 8.70001 87.4375 8.70001C 88.8593 8.70001 89.7578 7.828 89.8711 6.33601L 88.9179 6.33601C 88.7617 7.313 88.2734 7.80101 87.4687 7.80101C 86.4257 7.80101 85.8007 6.938 85.8007 5.51201C 85.8007 4.00401 86.4101 3.106 87.4453 3.106C 88.2383 3.106 88.7383 3.57501 88.8515 4.41L 89.8007 4.40701z"/>
<path style="stroke:none; fill-rule:evenodd; fill:#000000" d="M 92.9925 2.399L 92.0935 2.399L 92.0935 0.731003L 91.0935 0.731003L 91.0935 2.399L 90.1953 2.399L 90.1953 3.19601L 91.0935 3.19601L 91.0935 7.74301C 91.0935 8.34801 91.4965 8.692 92.2265 8.692C 92.4495 8.692 92.6755 8.66801 92.9885 8.61L 92.9885 7.774C 92.8745 7.86401 92.7385 7.89101 92.5705 7.89101C 92.1955 7.89101 92.0895 7.778 92.0895 7.34801L 92.0895 3.19601L 92.9885 3.19601L 92.9925 2.399z"/>
<path style="stroke:none; fill-rule:evenodd; fill:#000000" d="M 94.9925 2.399L 93.9925 2.399L 93.9925 8.399L 94.9925 8.399L 94.9925 2.399zM 94.9925 0L 93.9925 0L 93.9925 1.235L 94.9925 1.235L 94.9925 0z"/>
<path style="stroke:none; fill-rule:evenodd; fill:#000000" d="M 99.0665 8.399L 101.372 2.399L 100.293 2.399L 98.5975 7.25801L 96.9925 2.399L 95.9145 2.399L 98.0235 8.399L 99.0665 8.399z"/>
<path style="stroke:none; fill-rule:evenodd; fill:#000000" d="M 107.735 7.83601C 107.629 7.895 107.583 7.895 107.524 7.895C 107.184 7.895 106.997 7.72301 106.997 7.42201L 106.997 3.856C 106.997 2.78201 106.219 2.20001 104.747 2.20001C 103.879 2.20001 103.161 2.453 102.758 2.903C 102.485 3.21101 102.372 3.55901 102.348 4.16L 103.293 4.16C 103.372 3.43001 103.797 3.09801 104.68 3.09801C 105.524 3.09801 105.997 3.41801 105.997 3.996L 105.997 4.25C 105.997 4.653 105.762 4.82501 105.02 4.91801C 103.696 5.09001 103.493 5.13701 103.133 5.28601C 102.45 5.57101 102.102 6.11401 102.102 6.899C 102.102 7.99301 102.856 8.68401 104.067 8.68401C 104.821 8.68401 105.426 8.41 106.102 7.76601C 106.168 8.399 106.465 8.68401 107.083 8.68401C 107.274 8.68401 107.422 8.66 107.731 8.578L 107.735 7.83601zM 105.993 6.539C 105.993 6.86801 105.903 7.07101 105.625 7.34401C 105.247 7.707 104.79 7.899 104.243 7.899C 103.52 7.899 103.094 7.53601 103.094 6.90701C 103.094 6.25801 103.504 5.92601 104.497 5.774C 105.477 5.63301 105.676 5.58601 105.989 5.43401L 105.993 6.539z"/>
<path style="stroke:none; fill-rule:evenodd; fill:#000000" d="M 110.895 2.399L 109.997 2.399L 109.997 0.731003L 108.997 0.731003L 108.997 2.399L 108.098 2.399L 108.098 3.19601L 108.997 3.19601L 108.997 7.74301C 108.997 8.34801 109.399 8.692 110.129 8.692C 110.352 8.692 110.579 8.66801 110.891 8.61L 110.891 7.774C 110.778 7.86401 110.641 7.89101 110.473 7.89101C 110.098 7.89101 109.993 7.778 109.993 7.34801L 109.993 3.19601L 110.891 3.19601L 110.895 2.399z"/>
<path style="stroke:none; fill-rule:evenodd; fill:#000000" d="M 117.094 5.70001C 117.094 4.78201 117.028 4.231 116.856 3.78601C 116.469 2.80101 115.555 2.203 114.438 2.203C 112.774 2.203 111.7 3.496 111.7 5.485C 111.7 7.47301 112.735 8.70001 114.411 8.70001C 115.774 8.70001 116.719 7.90701 116.961 6.57501L 116.008 6.57501C 115.747 7.37901 115.215 7.79701 114.454 7.79701C 113.852 7.79701 113.34 7.52 113.024 7.00401C 112.797 6.65701 112.719 6.30501 112.707 5.70001L 117.094 5.70001zM 112.672 4.93401C 112.75 3.82101 113.43 3.09801 114.391 3.09801C 115.329 3.09801 116.055 3.875 116.055 4.86401C 116.055 4.88301 116.055 4.90701 116.043 4.93001L 112.672 4.93401z"/>
<path style="stroke:none; fill-rule:evenodd; fill:#000000" d="M 122.52 4.063C 122.508 2.875 121.723 2.203 120.321 2.203C 118.911 2.203 117.997 2.93001 117.997 4.05101C 117.997 4.996 118.485 5.44601 119.934 5.79301L 120.844 6.01201C 121.52 6.17201 121.79 6.414 121.79 6.85201C 121.79 7.414 121.223 7.79701 120.379 7.79701C 119.86 7.79701 119.422 7.649 119.18 7.39101C 119.032 7.21901 118.961 7.04301 118.903 6.61L 117.887 6.61C 117.93 8.02 118.715 8.70001 120.297 8.70001C 121.821 8.70001 122.79 7.95001 122.79 6.78601C 122.79 5.88701 122.278 5.39101 121.063 5.10201L 120.129 4.88301C 119.336 4.70001 118.997 4.44601 118.997 4.02C 118.997 3.46901 119.493 3.11 120.282 3.11C 121.055 3.11 121.473 3.438 121.497 4.067L 122.52 4.063z"/>
<path style="stroke:none; fill-rule:evenodd; fill:#000000" d="M 129.493 2.399L 128.493 2.399L 128.493 1.43001C 128.493 1.01601 128.719 0.80101 129.156 0.80101C 129.234 0.80101 129.27 0.80101 129.488 0.80101L 129.488 0.0590057C 129.266 0.0160065 129.137 0.00801086 128.938 0.00801086C 128.036 0.00801086 127.493 0.516006 127.493 1.37901L 127.493 2.403L 126.696 2.403L 126.696 3.20001L 127.493 3.20001L 127.493 8.399L 128.493 8.399L 128.493 3.20001L 129.493 3.20001L 129.493 2.399z"/>
<path style="stroke:none; fill-rule:evenodd; fill:#000000" d="M 135.594 5.70001C 135.594 4.78201 135.527 4.231 135.355 3.78601C 134.969 2.80101 134.055 2.203 132.938 2.203C 131.273 2.203 130.199 3.496 130.199 5.485C 130.199 7.47301 131.234 8.70001 132.911 8.70001C 134.273 8.70001 135.219 7.90701 135.46 6.57501L 134.508 6.57501C 134.247 7.37901 133.715 7.79701 132.954 7.79701C 132.352 7.79701 131.84 7.52 131.523 7.00401C 131.296 6.65701 131.219 6.30501 131.206 5.70001L 135.594 5.70001zM 131.171 4.93401C 131.249 3.82101 131.93 3.09801 132.891 3.09801C 133.829 3.09801 134.555 3.875 134.555 4.86401C 134.555 4.88301 134.555 4.90701 134.542 4.93001L 131.171 4.93401z"/>
<path style="stroke:none; fill-rule:evenodd; fill:#000000" d="M 142.133 7.83601C 142.027 7.895 141.98 7.895 141.921 7.895C 141.583 7.895 141.395 7.72301 141.395 7.42201L 141.395 3.856C 141.395 2.78201 140.618 2.20001 139.145 2.20001C 138.277 2.20001 137.559 2.453 137.156 2.903C 136.883 3.21101 136.77 3.55901 136.747 4.16L 137.691 4.16C 137.77 3.43001 138.195 3.09801 139.079 3.09801C 139.921 3.09801 140.395 3.41801 140.395 3.996L 140.395 4.25C 140.395 4.653 140.161 4.82501 139.417 4.91801C 138.094 5.09001 137.891 5.13701 137.531 5.28601C 136.848 5.57101 136.499 6.11401 136.499 6.899C 136.499 7.99301 137.253 8.68401 138.465 8.68401C 139.219 8.68401 139.824 8.41 140.499 7.76601C 140.566 8.399 140.863 8.68401 141.48 8.68401C 141.671 8.68401 141.82 8.66 142.128 8.578L 142.133 7.83601zM 140.395 6.539C 140.395 6.86801 140.305 7.07101 140.027 7.34401C 139.648 7.707 139.191 7.899 138.645 7.899C 137.921 7.899 137.497 7.53601 137.497 6.90701C 137.497 6.25801 137.906 5.92601 138.898 5.774C 139.878 5.63301 140.079 5.58601 140.391 5.43401L 140.395 6.539z"/>
<path style="stroke:none; fill-rule:evenodd; fill:#000000" d="M 145.292 2.399L 144.395 2.399L 144.395 0.731003L 143.395 0.731003L 143.395 2.399L 142.497 2.399L 142.497 3.19601L 143.395 3.19601L 143.395 7.74301C 143.395 8.34801 143.796 8.692 144.527 8.692C 144.749 8.692 144.977 8.66801 145.29 8.61L 145.29 7.774C 145.176 7.86401 145.04 7.89101 144.872 7.89101C 144.497 7.89101 144.391 7.778 144.391 7.34801L 144.391 3.19601L 145.29 3.19601L 145.292 2.399z"/>
<path style="stroke:none; fill-rule:evenodd; fill:#000000" d="M 151.191 8.43401L 151.191 2.403L 150.191 2.403L 150.191 5.84801C 150.191 7.08601 149.546 7.899 148.54 7.899C 147.777 7.899 147.292 7.438 147.292 6.707L 147.292 2.403L 146.292 2.403L 146.292 7.05501C 146.292 8.05501 147.051 8.70001 148.243 8.70001C 149.141 8.70001 149.715 8.39101 150.29 7.59801L 150.29 8.438L 151.191 8.43401z"/>
<path style="stroke:none; fill-rule:evenodd; fill:#000000" d="M 152.792 2.371L 152.792 8.395L 153.792 8.395L 153.792 5.26201C 153.792 4.399 154.003 3.83601 154.454 3.5C 154.743 3.28201 155.023 3.21501 155.676 3.203L 155.676 2.23901C 155.52 2.21901 155.441 2.207 155.316 2.207C 154.706 2.207 154.243 2.57501 153.695 3.46901L 153.695 2.37901L 152.792 2.371z"/>
<path style="stroke:none; fill-rule:evenodd; fill:#000000" d="M 161.691 5.70001C 161.691 4.78201 161.624 4.231 161.454 3.78601C 161.066 2.80101 160.152 2.203 159.036 2.203C 157.372 2.203 156.296 3.496 156.296 5.485C 156.296 7.47301 157.333 8.70001 159.008 8.70001C 160.372 8.70001 161.316 7.90701 161.559 6.57501L 160.605 6.57501C 160.344 7.37901 159.812 7.79701 159.051 7.79701C 158.449 7.79701 157.938 7.52 157.622 7.00401C 157.395 6.65701 157.316 6.30501 157.305 5.70001L 161.691 5.70001zM 157.273 4.93401C 157.352 3.82101 158.031 3.09801 158.993 3.09801C 159.93 3.09801 160.656 3.875 160.656 4.86401C 160.656 4.88301 160.656 4.90701 160.645 4.93001L 157.273 4.93401z"/>
<path style="stroke:none; fill-rule:evenodd; fill:#000000" d="M 167.219 4.063C 167.206 2.875 166.421 2.203 165.02 2.203C 163.609 2.203 162.695 2.93001 162.695 4.05101C 162.695 4.996 163.184 5.44601 164.633 5.79301L 165.542 6.01201C 166.219 6.17201 166.488 6.414 166.488 6.85201C 166.488 7.414 165.921 7.79701 165.079 7.79701C 164.559 7.79701 164.122 7.649 163.878 7.39101C 163.73 7.21901 163.661 7.04301 163.602 6.61L 162.585 6.61C 162.628 8.02 163.415 8.70001 164.997 8.70001C 166.52 8.70001 167.488 7.95001 167.488 6.78601C 167.488 5.88701 166.977 5.39101 165.762 5.10201L 164.829 4.88301C 164.036 4.70001 163.695 4.44601 163.695 4.02C 163.695 3.46901 164.191 3.11 164.98 3.11C 165.753 3.11 166.171 3.438 166.195 4.067L 167.219 4.063z"/>
<path style="stroke:none; fill-rule:evenodd; fill:#000000" d="M 199.993 0L 199.993 8.399L 200.891 8.399L 200.891 7.63301C 201.344 8.356 201.949 8.70001 202.786 8.70001C 204.359 8.70001 205.387 7.395 205.387 5.38301C 205.387 3.41801 204.406 2.203 202.835 2.203C 202.016 2.203 201.438 2.51601 200.993 3.20001L 200.993 0L 199.993 0zM 202.641 3.11C 203.706 3.11 204.395 4.039 204.395 5.47301C 204.395 6.83601 203.684 7.76601 202.641 7.76601C 201.633 7.76601 200.965 6.84801 200.965 5.438C 200.965 4.028 201.628 3.11 202.641 3.11z"/>
<path style="stroke:none; fill-rule:evenodd; fill:#000000" d="M 206.848 10.832C 207.977 9.32501 208.688 7.231 208.688 5.42601C 208.688 3.61 207.977 1.51601 206.848 0.00401306L 206.23 0.00401306C 207.234 1.653 207.792 3.582 207.792 5.42601C 207.792 7.25401 207.234 9.20001 206.23 10.832L 206.848 10.832z"/>
<path style="stroke:none; fill-rule:evenodd; fill:#000000" d="M 213.691 8.399L 217.499 8.399C 218.296 8.399 218.887 8.18001 219.34 7.70001C 219.753 7.26201 219.988 6.664 219.988 6.00801C 219.988 4.996 219.516 4.38301 218.415 3.97301C 219.18 3.61801 219.585 2.996 219.585 2.145C 219.585 1.53601 219.359 0.996002 218.917 0.602005C 218.48 0.200012 217.906 0.0160065 217.098 0.0160065L 213.688 0.0160065L 213.691 8.399zM 214.792 3.70001L 214.792 0.903L 216.835 0.903C 217.426 0.903 217.753 0.985001 218.036 1.21501C 218.329 1.453 218.488 1.817 218.488 2.30101C 218.488 2.77 218.333 3.145 218.036 3.38701C 217.753 3.61401 217.426 3.70001 216.835 3.70001L 214.792 3.70001zM 214.792 7.5L 214.792 4.60201L 217.391 4.60201C 217.902 4.60201 218.247 4.72701 218.499 5.00401C 218.749 5.27 218.887 5.63701 218.887 6.05501C 218.887 6.457 218.749 6.828 218.499 7.09401C 218.249 7.36801 217.906 7.496 217.391 7.496L 214.792 7.5z"/>
<path style="stroke:none; fill-rule:evenodd; fill:#000000" d="M 226.094 8.43401L 226.094 2.403L 225.094 2.403L 225.094 5.84801C 225.094 7.08601 224.449 7.899 223.441 7.899C 222.68 7.899 222.195 7.438 222.195 6.707L 222.195 2.403L 221.195 2.403L 221.195 7.05501C 221.195 8.05501 221.954 8.70001 223.145 8.70001C 224.042 8.70001 224.618 8.39101 225.191 7.59801L 225.191 8.438L 226.094 8.43401z"/>
<path style="stroke:none; fill-rule:evenodd; fill:#000000" d="M 229.792 2.399L 228.895 2.399L 228.895 0.731003L 227.895 0.731003L 227.895 2.399L 226.997 2.399L 226.997 3.19601L 227.895 3.19601L 227.895 7.74301C 227.895 8.34801 228.296 8.692 229.027 8.692C 229.249 8.692 229.477 8.66801 229.79 8.61L 229.79 7.774C 229.676 7.86401 229.54 7.89101 229.372 7.89101C 228.997 7.89101 228.891 7.778 228.891 7.34801L 228.891 3.19601L 229.79 3.19601L 229.792 2.399z"/>
<path style="stroke:none; fill-rule:evenodd; fill:#000000" d="M 234.094 2.371L 234.094 8.395L 235.094 8.395L 235.094 5.26201C 235.094 4.399 235.305 3.83601 235.753 3.5C 236.042 3.28201 236.324 3.21501 236.977 3.203L 236.977 2.23901C 236.82 2.21901 236.743 2.207 236.618 2.207C 236.008 2.207 235.542 2.57501 234.997 3.46901L 234.997 2.37901L 234.094 2.371z"/>
<path style="stroke:none; fill-rule:evenodd; fill:#000000" d="M 242.993 5.70001C 242.993 4.78201 242.926 4.231 242.753 3.78601C 242.368 2.80101 241.454 2.203 240.335 2.203C 238.671 2.203 237.598 3.496 237.598 5.485C 237.598 7.47301 238.633 8.70001 240.309 8.70001C 241.671 8.70001 242.618 7.90701 242.859 6.57501L 241.906 6.57501C 241.645 7.37901 241.113 7.79701 240.352 7.79701C 239.749 7.79701 239.238 7.52 238.921 7.00401C 238.695 6.65701 238.618 6.30501 238.605 5.70001L 242.993 5.70001zM 238.574 4.93401C 238.652 3.82101 239.333 3.09801 240.292 3.09801C 241.23 3.09801 241.956 3.875 241.956 4.86401C 241.956 4.88301 241.956 4.90701 241.945 4.93001L 238.574 4.93401z"/>
<path style="stroke:none; fill-rule:evenodd; fill:#000000" d="M 248.52 4.063C 248.508 2.875 247.723 2.203 246.32 2.203C 244.911 2.203 243.997 2.93001 243.997 4.05101C 243.997 4.996 244.484 5.44601 245.934 5.79301L 246.844 6.01201C 247.52 6.17201 247.789 6.414 247.789 6.85201C 247.789 7.414 247.223 7.79701 246.378 7.79701C 245.859 7.79701 245.421 7.649 245.18 7.39101C 245.031 7.21901 244.96 7.04301 244.902 6.61L 243.887 6.61C 243.93 8.02 244.715 8.70001 246.296 8.70001C 247.82 8.70001 248.789 7.95001 248.789 6.78601C 248.789 5.88701 248.277 5.39101 247.062 5.10201L 246.128 4.88301C 245.335 4.70001 244.997 4.44601 244.997 4.02C 244.997 3.46901 245.493 3.11 246.281 3.11C 247.055 3.11 247.473 3.438 247.496 4.067L 248.52 4.063z"/>
<path style="stroke:none; fill-rule:evenodd; fill:#000000" d="M 252.094 2.399L 251.195 2.399L 251.195 0.731003L 250.195 0.731003L 250.195 2.399L 249.297 2.399L 249.297 3.19601L 250.195 3.19601L 250.195 7.74301C 250.195 8.34801 250.598 8.692 251.328 8.692C 251.551 8.692 251.777 8.66801 252.09 8.61L 252.09 7.774C 251.977 7.86401 251.84 7.89101 251.672 7.89101C 251.297 7.89101 251.191 7.778 251.191 7.34801L 251.191 3.19601L 252.09 3.19601L 252.094 2.399z"/>
<path style="stroke:none; fill-rule:evenodd; fill:#000000" d="M 258.73 2.20001C 257.027 2.20001 255.996 3.414 255.996 5.45001C 255.996 7.485 257.016 8.70001 258.746 8.70001C 260.449 8.70001 261.496 7.48901 261.496 5.5C 261.496 3.41 260.488 2.207 258.738 2.207L 258.73 2.20001zM 258.742 3.09801C 259.836 3.09801 260.492 3.985 260.492 5.481C 260.492 6.895 259.816 7.79301 258.742 7.79301C 257.66 7.79301 256.992 6.90701 256.992 5.44601C 256.992 3.996 257.656 3.09801 258.742 3.09801z"/>
<path style="stroke:none; fill-rule:evenodd; fill:#000000" d="M 264.992 2.399L 263.992 2.399L 263.992 1.43001C 263.992 1.01601 264.219 0.80101 264.656 0.80101C 264.734 0.80101 264.77 0.80101 264.988 0.80101L 264.988 0.0590057C 264.766 0.0160065 264.637 0.00801086 264.438 0.00801086C 263.535 0.00801086 262.992 0.516006 262.992 1.37901L 262.992 2.403L 262.195 2.403L 262.195 3.20001L 262.992 3.20001L 262.992 8.399L 263.992 8.399L 263.992 3.20001L 264.992 3.20001L 264.992 2.399z"/>
<path style="stroke:none; fill-rule:evenodd; fill:#000000" d="M 268.992 0L 268.992 8.399L 269.891 8.399L 269.891 7.63301C 270.344 8.356 270.949 8.70001 271.785 8.70001C 273.359 8.70001 274.387 7.395 274.387 5.38301C 274.387 3.41801 273.406 2.203 271.836 2.203C 271.016 2.203 270.438 2.51601 269.992 3.20001L 269.992 0L 268.992 0zM 271.641 3.11C 272.707 3.11 273.395 4.039 273.395 5.47301C 273.395 6.83601 272.684 7.76601 271.641 7.76601C 270.633 7.76601 269.965 6.84801 269.965 5.438C 269.965 4.028 270.629 3.11 271.641 3.11z"/>
<path style="stroke:none; fill-rule:evenodd; fill:#000000" d="M 275.492 2.371L 275.492 8.395L 276.492 8.395L 276.492 5.26201C 276.492 4.399 276.703 3.83601 277.152 3.5C 277.441 3.28201 277.723 3.21501 278.375 3.203L 278.375 2.23901C 278.219 2.21901 278.141 2.207 278.016 2.207C 277.406 2.207 276.941 2.57501 276.395 3.46901L 276.395 2.37901L 275.492 2.371z"/>
<path style="stroke:none; fill-rule:evenodd; fill:#000000" d="M 284.734 7.83601C 284.629 7.895 284.582 7.895 284.523 7.895C 284.184 7.895 283.996 7.72301 283.996 7.42201L 283.996 3.856C 283.996 2.78201 283.219 2.20001 281.746 2.20001C 280.879 2.20001 280.16 2.453 279.758 2.903C 279.484 3.21101 279.371 3.55901 279.348 4.16L 280.293 4.16C 280.371 3.43001 280.797 3.09801 281.68 3.09801C 282.523 3.09801 282.996 3.41801 282.996 3.996L 282.996 4.25C 282.996 4.653 282.762 4.82501 282.02 4.91801C 280.695 5.09001 280.492 5.13701 280.133 5.28601C 279.449 5.57101 279.102 6.11401 279.102 6.899C 279.102 7.99301 279.855 8.68401 281.066 8.68401C 281.82 8.68401 282.426 8.41 283.102 7.76601C 283.168 8.399 283.465 8.68401 284.082 8.68401C 284.273 8.68401 284.422 8.66 284.73 8.578L 284.734 7.83601zM 282.992 6.539C 282.992 6.86801 282.902 7.07101 282.625 7.34401C 282.246 7.707 281.789 7.899 281.242 7.899C 280.52 7.899 280.094 7.53601 280.094 6.90701C 280.094 6.25801 280.504 5.92601 281.496 5.774C 282.477 5.63301 282.676 5.58601 282.988 5.43401L 282.992 6.539z"/>
<path style="stroke:none; fill-rule:evenodd; fill:#000000" d="M 286.594 2.399L 285.594 2.399L 285.594 8.399L 286.594 8.399L 286.594 2.399zM 286.594 0L 285.594 0L 285.594 1.235L 286.594 1.235L 286.594 0z"/>
<path style="stroke:none; fill-rule:evenodd; fill:#000000" d="M 288.293 2.371L 288.293 8.395L 289.293 8.395L 289.293 5.04701C 289.293 3.80901 289.918 2.996 290.883 2.996C 291.621 2.996 292.09 3.457 292.09 4.188L 292.09 8.39101L 293.09 8.39101L 293.09 3.83601C 293.09 2.83601 292.348 2.192 291.188 2.192C 290.297 2.192 289.723 2.53601 289.195 3.375L 289.195 2.36401L 288.293 2.371z"/>
<path style="stroke:none; fill-rule:evenodd; fill:#000000" d="M 302.793 0L 301.793 0L 301.793 3.14101C 301.395 2.528 300.758 2.20001 299.957 2.20001C 298.41 2.20001 297.395 3.457 297.395 5.39101C 297.395 7.438 298.406 8.69601 300.047 8.69601C 300.883 8.69601 301.465 8.375 301.988 7.606L 301.988 8.395L 302.785 8.395L 302.793 0zM 300.121 3.09801C 301.141 3.09801 301.789 4.024 301.789 5.46901C 301.789 6.86801 301.133 7.79301 300.133 7.79301C 299.09 7.79301 298.395 6.856 298.395 5.44601C 298.395 4.03601 299.086 3.09801 300.121 3.09801z"/>
<path style="stroke:none; fill-rule:evenodd; fill:#000000" d="M 306.531 2.20001C 304.828 2.20001 303.797 3.414 303.797 5.45001C 303.797 7.485 304.816 8.70001 306.547 8.70001C 308.25 8.70001 309.297 7.48901 309.297 5.5C 309.297 3.41 308.289 2.207 306.539 2.207L 306.531 2.20001zM 306.543 3.09801C 307.637 3.09801 308.293 3.985 308.293 5.481C 308.293 6.895 307.617 7.79301 306.543 7.79301C 305.461 7.79301 304.793 6.90701 304.793 5.44601C 304.793 3.996 305.457 3.09801 306.543 3.09801z"/>
<path style="stroke:none; fill-rule:evenodd; fill:#000000" d="M 315.691 5.70001C 315.691 4.78201 315.625 4.231 315.453 3.78601C 315.066 2.80101 314.152 2.203 313.035 2.203C 311.371 2.203 310.297 3.496 310.297 5.485C 310.297 7.47301 311.332 8.70001 313.008 8.70001C 314.371 8.70001 315.316 7.90701 315.559 6.57501L 314.605 6.57501C 314.344 7.37901 313.812 7.79701 313.051 7.79701C 312.449 7.79701 311.938 7.52 311.621 7.00401C 311.395 6.65701 311.316 6.30501 311.305 5.70001L 315.691 5.70001zM 311.273 4.93401C 311.352 3.82101 312.031 3.09801 312.992 3.09801C 313.93 3.09801 314.656 3.875 314.656 4.86401C 314.656 4.88301 314.656 4.90701 314.645 4.93001L 311.273 4.93401z"/>
<path style="stroke:none; fill-rule:evenodd; fill:#000000" d="M 321.219 4.063C 321.207 2.875 320.422 2.203 319.02 2.203C 317.609 2.203 316.695 2.93001 316.695 4.05101C 316.695 4.996 317.184 5.44601 318.633 5.79301L 319.543 6.01201C 320.219 6.17201 320.488 6.414 320.488 6.85201C 320.488 7.414 319.922 7.79701 319.078 7.79701C 318.559 7.79701 318.121 7.649 317.879 7.39101C 317.73 7.21901 317.66 7.04301 317.602 6.61L 316.586 6.61C 316.629 8.02 317.414 8.70001 318.996 8.70001C 320.52 8.70001 321.488 7.95001 321.488 6.78601C 321.488 5.88701 320.977 5.39101 319.762 5.10201L 318.828 4.88301C 318.035 4.70001 317.695 4.44601 317.695 4.02C 317.695 3.46901 318.191 3.11 318.98 3.11C 319.754 3.11 320.172 3.438 320.195 4.067L 321.219 4.063z"/>
<path style="stroke:none; fill-rule:evenodd; fill:#000000" d="M 322.793 2.371L 322.793 8.395L 323.793 8.395L 323.793 5.04701C 323.793 3.80901 324.418 2.996 325.383 2.996C 326.121 2.996 326.59 3.457 326.59 4.188L 326.59 8.39101L 327.59 8.39101L 327.59 3.83601C 327.59 2.83601 326.848 2.192 325.688 2.192C 324.797 2.192 324.223 2.53601 323.695 3.375L 323.695 2.36401L 322.793 2.371z"/>
<path style="stroke:none; fill-rule:evenodd; fill:#000000" d="M 328.992 0L 328.992 1.20001L 329.59 1.20001C 329.59 1.875 329.418 2.192 328.992 2.25L 328.992 2.692C 329.699 2.63701 330.09 2.10201 330.09 1.17201L 330.09 0L 328.992 0z"/>
<path style="stroke:none; fill-rule:evenodd; fill:#000000" d="M 333.793 2.399L 332.895 2.399L 332.895 0.731003L 331.895 0.731003L 331.895 2.399L 330.996 2.399L 330.996 3.19601L 331.895 3.19601L 331.895 7.74301C 331.895 8.34801 332.297 8.692 333.027 8.692C 333.25 8.692 333.477 8.66801 333.789 8.61L 333.789 7.774C 333.676 7.86401 333.539 7.89101 333.371 7.89101C 332.996 7.89101 332.891 7.778 332.891 7.34801L 332.891 3.19601L 333.789 3.19601L 333.793 2.399z"/>
<path style="stroke:none; fill-rule:evenodd; fill:#000000" d="M 338.895 0L 337.895 0L 337.895 8.399L 338.895 8.399L 338.895 6.05901L 339.828 5.14101L 341.867 8.399L 343.055 8.399L 340.59 4.47301L 342.688 2.403L 341.457 2.403L 338.898 4.93401L 338.895 0z"/>
<path style="stroke:none; fill-rule:evenodd; fill:#000000" d="M 343.793 2.371L 343.793 8.395L 344.793 8.395L 344.793 5.04701C 344.793 3.80901 345.418 2.996 346.383 2.996C 347.121 2.996 347.59 3.457 347.59 4.188L 347.59 8.39101L 348.59 8.39101L 348.59 3.83601C 348.59 2.83601 347.848 2.192 346.688 2.192C 345.797 2.192 345.223 2.53601 344.695 3.375L 344.695 2.36401L 343.793 2.371z"/>
<path style="stroke:none; fill-rule:evenodd; fill:#000000" d="M 352.531 2.20001C 350.828 2.20001 349.797 3.414 349.797 5.45001C 349.797 7.485 350.816 8.70001 352.547 8.70001C 354.25 8.70001 355.297 7.48901 355.297 5.5C 355.297 3.41 354.289 2.207 352.539 2.207L 352.531 2.20001zM 352.543 3.09801C 353.637 3.09801 354.293 3.985 354.293 5.481C 354.293 6.895 353.617 7.79301 352.543 7.79301C 351.461 7.79301 350.793 6.90701 350.793 5.44601C 350.793 3.996 351.457 3.09801 352.543 3.09801z"/>
<path style="stroke:none; fill-rule:evenodd; fill:#000000" d="M 362.152 8.399L 363.918 2.399L 362.84 2.399L 361.648 7.067L 360.469 2.399L 359.301 2.399L 358.156 7.067L 356.93 2.399L 355.875 2.399L 357.617 8.399L 358.695 8.399L 359.852 3.68401L 361.066 8.399L 362.152 8.399z"/>
<path style="stroke:none; fill-rule:evenodd; fill:#000000" d="M 218.551 19.899L 220.316 13.899L 219.238 13.899L 218.046 18.567L 216.868 13.899L 215.699 13.899L 214.555 18.567L 213.329 13.899L 212.273 13.899L 214.016 19.899L 215.094 19.899L 216.249 15.184L 217.465 19.899L 218.551 19.899z"/>
<path style="stroke:none; fill-rule:evenodd; fill:#000000" d="M 221.292 11.5L 221.292 19.899L 222.292 19.899L 222.292 16.551C 222.292 15.313 222.917 14.5 223.883 14.5C 224.184 14.5 224.484 14.602 224.71 14.778C 224.977 14.973 225.09 15.262 225.09 15.692L 225.09 19.895L 226.09 19.895L 226.09 15.34C 226.09 14.328 225.372 13.696 224.206 13.696C 223.363 13.696 222.852 13.961 222.292 14.703L 222.292 11.493L 221.292 11.5z"/>
<path style="stroke:none; fill-rule:evenodd; fill:#000000" d="M 228.594 13.899L 227.594 13.899L 227.594 19.899L 228.594 19.899L 228.594 13.899zM 228.594 11.5L 227.594 11.5L 227.594 12.735L 228.594 12.735L 228.594 11.5z"/>
<path style="stroke:none; fill-rule:evenodd; fill:#000000" d="M 234.801 15.907C 234.758 15.321 234.633 14.938 234.402 14.602C 233.997 14.039 233.277 13.703 232.449 13.703C 230.848 13.703 229.801 14.996 229.801 17.008C 229.801 18.961 230.824 20.2 232.438 20.2C 233.859 20.2 234.758 19.328 234.872 17.836L 233.917 17.836C 233.762 18.813 233.273 19.301 232.469 19.301C 231.426 19.301 230.801 18.438 230.801 17.012C 230.801 15.504 231.411 14.606 232.445 14.606C 233.238 14.606 233.738 15.075 233.852 15.91L 234.801 15.907z"/>
<path style="stroke:none; fill-rule:evenodd; fill:#000000" d="M 235.993 11.5L 235.993 19.899L 236.993 19.899L 236.993 16.551C 236.993 15.313 237.618 14.5 238.583 14.5C 238.883 14.5 239.184 14.602 239.411 14.778C 239.676 14.973 239.79 15.262 239.79 15.692L 239.79 19.895L 240.79 19.895L 240.79 15.34C 240.79 14.328 240.07 13.696 238.906 13.696C 238.062 13.696 237.551 13.961 236.993 14.703L 236.993 11.493L 235.993 11.5z"/>
<path style="stroke:none; fill-rule:evenodd; fill:#000000" d="M 247.691 13.899L 246.691 13.899L 246.691 12.93C 246.691 12.516 246.918 12.301 247.355 12.301C 247.434 12.301 247.469 12.301 247.688 12.301L 247.688 11.559C 247.465 11.516 247.336 11.508 247.137 11.508C 246.234 11.508 245.691 12.016 245.691 12.879L 245.691 13.903L 244.895 13.903L 244.895 14.7L 245.691 14.7L 245.691 19.899L 246.691 19.899L 246.691 14.7L 247.691 14.7L 247.691 13.899z"/>
<path style="stroke:none; fill-rule:evenodd; fill:#000000" d="M 253.793 17.2C 253.793 16.282 253.727 15.731 253.555 15.286C 253.168 14.301 252.254 13.703 251.137 13.703C 249.473 13.703 248.398 14.996 248.398 16.985C 248.398 18.973 249.434 20.2 251.109 20.2C 252.473 20.2 253.418 19.407 253.66 18.075L 252.707 18.075C 252.445 18.879 251.914 19.297 251.152 19.297C 250.551 19.297 250.039 19.02 249.723 18.504C 249.496 18.157 249.418 17.805 249.406 17.2L 253.793 17.2zM 249.375 16.434C 249.453 15.321 250.133 14.598 251.094 14.598C 252.031 14.598 252.758 15.375 252.758 16.364C 252.758 16.383 252.758 16.407 252.746 16.43L 249.375 16.434z"/>
<path style="stroke:none; fill-rule:evenodd; fill:#000000" d="M 260.434 19.336C 260.328 19.395 260.281 19.395 260.223 19.395C 259.883 19.395 259.695 19.223 259.695 18.922L 259.695 15.356C 259.695 14.282 258.918 13.7 257.445 13.7C 256.578 13.7 255.859 13.953 255.457 14.403C 255.184 14.711 255.07 15.059 255.047 15.66L 255.992 15.66C 256.07 14.93 256.496 14.598 257.379 14.598C 258.223 14.598 258.695 14.918 258.695 15.496L 258.695 15.75C 258.695 16.153 258.461 16.325 257.719 16.418C 256.395 16.59 256.191 16.637 255.832 16.786C 255.148 17.071 254.801 17.614 254.801 18.399C 254.801 19.493 255.555 20.184 256.766 20.184C 257.52 20.184 258.125 19.91 258.801 19.266C 258.867 19.899 259.164 20.184 259.781 20.184C 259.973 20.184 260.121 20.16 260.43 20.078L 260.434 19.336zM 258.691 18.039C 258.691 18.368 258.602 18.571 258.324 18.844C 257.945 19.207 257.488 19.399 256.941 19.399C 256.219 19.399 255.793 19.036 255.793 18.407C 255.793 17.758 256.203 17.426 257.195 17.274C 258.176 17.133 258.375 17.086 258.688 16.934L 258.691 18.039z"/>
<path style="stroke:none; fill-rule:evenodd; fill:#000000" d="M 263.594 13.899L 262.695 13.899L 262.695 12.231L 261.695 12.231L 261.695 13.899L 260.797 13.899L 260.797 14.696L 261.695 14.696L 261.695 19.243C 261.695 19.848 262.098 20.192 262.828 20.192C 263.051 20.192 263.277 20.168 263.59 20.11L 263.59 19.274C 263.477 19.364 263.34 19.391 263.172 19.391C 262.797 19.391 262.691 19.278 262.691 18.848L 262.691 14.696L 263.59 14.696L 263.594 13.899z"/>
<path style="stroke:none; fill-rule:evenodd; fill:#000000" d="M 269.492 19.934L 269.492 13.903L 268.492 13.903L 268.492 17.348C 268.492 18.586 267.848 19.399 266.84 19.399C 266.078 19.399 265.594 18.938 265.594 18.207L 265.594 13.903L 264.594 13.903L 264.594 18.555C 264.594 19.555 265.352 20.2 266.543 20.2C 267.441 20.2 268.016 19.891 268.59 19.098L 268.59 19.938L 269.492 19.934z"/>
<path style="stroke:none; fill-rule:evenodd; fill:#000000" d="M 271.094 13.871L 271.094 19.895L 272.094 19.895L 272.094 16.762C 272.094 15.899 272.305 15.336 272.754 15C 273.043 14.782 273.324 14.715 273.977 14.703L 273.977 13.739C 273.82 13.719 273.742 13.707 273.617 13.707C 273.008 13.707 272.543 14.075 271.996 14.969L 271.996 13.879L 271.094 13.871z"/>
<path style="stroke:none; fill-rule:evenodd; fill:#000000" d="M 279.992 17.2C 279.992 16.282 279.926 15.731 279.754 15.286C 279.367 14.301 278.453 13.703 277.336 13.703C 275.672 13.703 274.598 14.996 274.598 16.985C 274.598 18.973 275.633 20.2 277.309 20.2C 278.672 20.2 279.617 19.407 279.859 18.075L 278.906 18.075C 278.645 18.879 278.113 19.297 277.352 19.297C 276.75 19.297 276.238 19.02 275.922 18.504C 275.695 18.157 275.617 17.805 275.605 17.2L 279.992 17.2zM 275.574 16.434C 275.652 15.321 276.332 14.598 277.293 14.598C 278.23 14.598 278.957 15.375 278.957 16.364C 278.957 16.383 278.957 16.407 278.945 16.43L 275.574 16.434z"/>
<path style="stroke:none; fill-rule:evenodd; fill:#000000" d="M 285.52 15.563C 285.508 14.375 284.723 13.703 283.32 13.703C 281.91 13.703 280.996 14.43 280.996 15.551C 280.996 16.496 281.484 16.946 282.934 17.293L 283.844 17.512C 284.52 17.672 284.789 17.914 284.789 18.352C 284.789 18.914 284.223 19.297 283.379 19.297C 282.859 19.297 282.422 19.149 282.18 18.891C 282.031 18.719 281.961 18.543 281.902 18.11L 280.887 18.11C 280.93 19.52 281.715 20.2 283.297 20.2C 284.82 20.2 285.789 19.45 285.789 18.286C 285.789 17.387 285.277 16.891 284.062 16.602L 283.129 16.383C 282.336 16.2 281.996 15.946 281.996 15.52C 281.996 14.969 282.492 14.61 283.281 14.61C 284.055 14.61 284.473 14.938 284.496 15.567L 285.52 15.563z"/>
<path style="stroke:none; fill-rule:evenodd; fill:#000000" d="M 294.094 13.899L 294.094 14.754C 293.613 14.036 293.027 13.7 292.258 13.7C 290.73 13.7 289.699 15.039 289.699 17.004C 289.699 17.996 289.961 18.805 290.453 19.383C 290.898 19.891 291.539 20.192 292.172 20.192C 292.926 20.192 293.453 19.864 293.992 19.078L 293.992 19.387C 293.992 20.2 293.891 20.696 293.652 21.028C 293.402 21.383 292.914 21.586 292.336 21.586C 291.906 21.586 291.52 21.473 291.258 21.266C 291.043 21.094 290.953 20.934 290.895 20.578L 289.93 20.578C 290.031 21.711 290.91 22.387 292.32 22.387C 293.211 22.387 293.977 22.102 294.367 21.621C 294.824 21.075 294.996 20.317 294.996 18.907L 294.996 13.891L 294.094 13.899zM 292.355 14.598C 293.383 14.598 293.992 15.473 293.992 16.981C 293.992 18.418 293.375 19.293 292.367 19.293C 291.324 19.293 290.695 18.407 290.695 16.946C 290.695 15.496 291.336 14.598 292.355 14.598z"/>
<path style="stroke:none; fill-rule:evenodd; fill:#000000" d="M 298.93 13.7C 297.227 13.7 296.195 14.914 296.195 16.95C 296.195 18.985 297.215 20.2 298.945 20.2C 300.648 20.2 301.695 18.989 301.695 17C 301.695 14.91 300.688 13.707 298.938 13.707L 298.93 13.7zM 298.941 14.598C 300.035 14.598 300.691 15.485 300.691 16.981C 300.691 18.395 300.016 19.293 298.941 19.293C 297.859 19.293 297.191 18.407 297.191 16.946C 297.191 15.496 297.855 14.598 298.941 14.598z"/>
<path style="stroke:none; fill-rule:evenodd; fill:#000000" d="M 311.754 19.899L 313.52 13.899L 312.441 13.899L 311.25 18.567L 310.07 13.899L 308.902 13.899L 307.758 18.567L 306.531 13.899L 305.477 13.899L 307.219 19.899L 308.297 19.899L 309.453 15.184L 310.668 19.899L 311.754 19.899z"/>
<path style="stroke:none; fill-rule:evenodd; fill:#000000" d="M 315.395 13.899L 314.395 13.899L 314.395 19.899L 315.395 19.899L 315.395 13.899zM 315.395 11.5L 314.395 11.5L 314.395 12.735L 315.395 12.735L 315.395 11.5z"/>
<path style="stroke:none; fill-rule:evenodd; fill:#000000" d="M 319.094 13.899L 318.195 13.899L 318.195 12.231L 317.195 12.231L 317.195 13.899L 316.297 13.899L 316.297 14.696L 317.195 14.696L 317.195 19.243C 317.195 19.848 317.598 20.192 318.328 20.192C 318.551 20.192 318.777 20.168 319.09 20.11L 319.09 19.274C 318.977 19.364 318.84 19.391 318.672 19.391C 318.297 19.391 318.191 19.278 318.191 18.848L 318.191 14.696L 319.09 14.696L 319.094 13.899z"/>
<path style="stroke:none; fill-rule:evenodd; fill:#000000" d="M 320.191 11.5L 320.191 19.899L 321.191 19.899L 321.191 16.551C 321.191 15.313 321.816 14.5 322.781 14.5C 323.082 14.5 323.383 14.602 323.609 14.778C 323.875 14.973 323.988 15.262 323.988 15.692L 323.988 19.895L 324.988 19.895L 324.988 15.34C 324.988 14.328 324.27 13.696 323.105 13.696C 322.262 13.696 321.75 13.961 321.191 14.703L 321.191 11.493L 320.191 11.5z"/>
<path style="stroke:none; fill-rule:evenodd; fill:#000000" d="M 334.895 17.2C 334.895 16.282 334.828 15.731 334.656 15.286C 334.27 14.301 333.355 13.703 332.238 13.703C 330.574 13.703 329.5 14.996 329.5 16.985C 329.5 18.973 330.535 20.2 332.211 20.2C 333.574 20.2 334.52 19.407 334.762 18.075L 333.809 18.075C 333.547 18.879 333.016 19.297 332.254 19.297C 331.652 19.297 331.141 19.02 330.824 18.504C 330.598 18.157 330.52 17.805 330.508 17.2L 334.895 17.2zM 330.473 16.434C 330.551 15.321 331.23 14.598 332.191 14.598C 333.129 14.598 333.855 15.375 333.855 16.364C 333.855 16.383 333.855 16.407 333.844 16.43L 330.473 16.434z"/>
<path style="stroke:none; fill-rule:evenodd; fill:#000000" d="M 341.535 19.336C 341.43 19.395 341.383 19.395 341.324 19.395C 340.984 19.395 340.797 19.223 340.797 18.922L 340.797 15.356C 340.797 14.282 340.02 13.7 338.547 13.7C 337.68 13.7 336.961 13.953 336.559 14.403C 336.285 14.711 336.172 15.059 336.148 15.66L 337.094 15.66C 337.172 14.93 337.598 14.598 338.48 14.598C 339.324 14.598 339.797 14.918 339.797 15.496L 339.797 15.75C 339.797 16.153 339.562 16.325 338.82 16.418C 337.496 16.59 337.293 16.637 336.934 16.786C 336.25 17.071 335.902 17.614 335.902 18.399C 335.902 19.493 336.656 20.184 337.867 20.184C 338.621 20.184 339.227 19.91 339.902 19.266C 339.969 19.899 340.266 20.184 340.883 20.184C 341.074 20.184 341.223 20.16 341.531 20.078L 341.535 19.336zM 339.793 18.039C 339.793 18.368 339.703 18.571 339.426 18.844C 339.047 19.207 338.59 19.399 338.043 19.399C 337.32 19.399 336.895 19.036 336.895 18.407C 336.895 17.758 337.305 17.426 338.297 17.274C 339.277 17.133 339.477 17.086 339.789 16.934L 339.793 18.039z"/>
<path style="stroke:none; fill-rule:evenodd; fill:#000000" d="M 347.098 15.907C 347.055 15.321 346.93 14.938 346.699 14.602C 346.293 14.039 345.574 13.703 344.746 13.703C 343.145 13.703 342.098 14.996 342.098 17.008C 342.098 18.961 343.121 20.2 344.734 20.2C 346.156 20.2 347.055 19.328 347.168 17.836L 346.215 17.836C 346.059 18.813 345.57 19.301 344.766 19.301C 343.723 19.301 343.098 18.438 343.098 17.012C 343.098 15.504 343.707 14.606 344.742 14.606C 345.535 14.606 346.035 15.075 346.148 15.91L 347.098 15.907z"/>
<path style="stroke:none; fill-rule:evenodd; fill:#000000" d="M 348.293 11.5L 348.293 19.899L 349.293 19.899L 349.293 16.551C 349.293 15.313 349.918 14.5 350.883 14.5C 351.184 14.5 351.484 14.602 351.711 14.778C 351.977 14.973 352.09 15.262 352.09 15.692L 352.09 19.895L 353.09 19.895L 353.09 15.34C 353.09 14.328 352.371 13.696 351.207 13.696C 350.363 13.696 349.852 13.961 349.293 14.703L 349.293 11.493L 348.293 11.5z"/>
<path style="stroke:none; fill-rule:evenodd; fill:#000000" d="M 360.129 13.7C 358.426 13.7 357.395 14.914 357.395 16.95C 357.395 18.985 358.414 20.2 360.145 20.2C 361.848 20.2 362.895 18.989 362.895 17C 362.895 14.91 361.887 13.707 360.137 13.707L 360.129 13.7zM 360.145 14.598C 361.238 14.598 361.895 15.485 361.895 16.981C 361.895 18.395 361.219 19.293 360.145 19.293C 359.062 19.293 358.395 18.407 358.395 16.946C 358.395 15.496 359.059 14.598 360.145 14.598z"/>
<path style="stroke:none; fill-rule:evenodd; fill:#000000" d="M 366.293 13.899L 365.395 13.899L 365.395 12.231L 364.395 12.231L 364.395 13.899L 363.496 13.899L 363.496 14.696L 364.395 14.696L 364.395 19.243C 364.395 19.848 364.797 20.192 365.527 20.192C 365.75 20.192 365.977 20.168 366.289 20.11L 366.289 19.274C 366.176 19.364 366.039 19.391 365.871 19.391C 365.496 19.391 365.391 19.278 365.391 18.848L 365.391 14.696L 366.289 14.696L 366.293 13.899z"/>
<path style="stroke:none; fill-rule:evenodd; fill:#000000" d="M 367.395 11.5L 367.395 19.899L 368.395 19.899L 368.395 16.551C 368.395 15.313 369.02 14.5 369.984 14.5C 370.285 14.5 370.586 14.602 370.812 14.778C 371.078 14.973 371.191 15.262 371.191 15.692L 371.191 19.895L 372.191 19.895L 372.191 15.34C 372.191 14.328 371.473 13.696 370.309 13.696C 369.465 13.696 368.953 13.961 368.395 14.703L 368.395 11.493L 367.395 11.5z"/>
<path style="stroke:none; fill-rule:evenodd; fill:#000000" d="M 378.895 17.2C 378.895 16.282 378.828 15.731 378.656 15.286C 378.27 14.301 377.355 13.703 376.238 13.703C 374.574 13.703 373.5 14.996 373.5 16.985C 373.5 18.973 374.535 20.2 376.211 20.2C 377.574 20.2 378.52 19.407 378.762 18.075L 377.809 18.075C 377.547 18.879 377.016 19.297 376.254 19.297C 375.652 19.297 375.141 19.02 374.824 18.504C 374.598 18.157 374.52 17.805 374.508 17.2L 378.895 17.2zM 374.473 16.434C 374.551 15.321 375.23 14.598 376.191 14.598C 377.129 14.598 377.855 15.375 377.855 16.364C 377.855 16.383 377.855 16.407 377.844 16.43L 374.473 16.434z"/>
<path style="stroke:none; fill-rule:evenodd; fill:#000000" d="M 380.191 13.871L 380.191 19.895L 381.191 19.895L 381.191 16.762C 381.191 15.899 381.402 15.336 381.852 15C 382.141 14.782 382.422 14.715 383.074 14.703L 383.074 13.739C 382.918 13.719 382.84 13.707 382.715 13.707C 382.105 13.707 381.641 14.075 381.094 14.969L 381.094 13.879L 380.191 13.871z"/>
<path style="stroke:none; fill-rule:evenodd; fill:#000000" d="M 193.993 82.899L 196.695 82.899L 196.695 82L 190.133 82L 190.133 82.899L 192.891 82.899L 192.891 90.3988L 193.988 90.3988L 193.993 82.899z"/>
<path style="stroke:none; fill-rule:evenodd; fill:#000000" d="M 197.691 84.371L 197.691 90.3949L 198.691 90.3949L 198.691 87.262C 198.691 86.399 198.902 85.836 199.352 85.5C 199.641 85.282 199.921 85.215 200.574 85.203L 200.574 84.239C 200.417 84.219 200.34 84.207 200.215 84.207C 199.605 84.207 199.141 84.575 198.594 85.469L 198.594 84.379L 197.691 84.371z"/>
<path style="stroke:none; fill-rule:evenodd; fill:#000000" d="M 202.395 84.399L 201.395 84.399L 201.395 90.3988L 202.395 90.3988L 202.395 84.399zM 202.395 82L 201.395 82L 201.395 83.235L 202.395 83.235L 202.395 82z"/>
<path style="stroke:none; fill-rule:evenodd; fill:#000000" d="M 209.434 89.8363C 209.329 89.8949 209.281 89.8949 209.223 89.8949C 208.883 89.8949 208.695 89.723 208.695 89.422L 208.695 85.856C 208.695 84.782 207.917 84.2 206.445 84.2C 205.579 84.2 204.859 84.453 204.456 84.903C 204.184 85.211 204.07 85.559 204.046 86.16L 204.993 86.16C 205.07 85.43 205.497 85.098 206.378 85.098C 207.223 85.098 207.695 85.418 207.695 85.996L 207.695 86.25C 207.695 86.653 207.46 86.825 206.719 86.918C 205.395 87.09 205.191 87.137 204.833 87.286C 204.148 87.571 203.801 88.114 203.801 88.899C 203.801 89.9925 204.555 90.6839 205.766 90.6839C 206.52 90.6839 207.124 90.4105 207.801 89.766C 207.868 90.3988 208.165 90.6839 208.781 90.6839C 208.973 90.6839 209.122 90.6605 209.43 90.5785L 209.434 89.8363zM 207.691 88.539C 207.691 88.868 207.602 89.071 207.324 89.344C 206.945 89.7074 206.488 89.8988 205.941 89.8988C 205.219 89.8988 204.792 89.536 204.792 88.907C 204.792 88.258 205.204 87.926 206.195 87.774C 207.176 87.633 207.374 87.586 207.688 87.434L 207.691 88.539z"/>
<path style="stroke:none; fill-rule:evenodd; fill:#000000" d="M 210.493 84.371L 210.493 90.3949L 211.493 90.3949L 211.493 87.047C 211.493 85.809 212.118 84.996 213.083 84.996C 213.82 84.996 214.29 85.457 214.29 86.188L 214.29 90.391L 215.29 90.391L 215.29 85.836C 215.29 84.836 214.546 84.192 213.387 84.192C 212.497 84.192 211.921 84.536 211.395 85.375L 211.395 84.364L 210.493 84.371z"/>
<path style="stroke:none; fill-rule:evenodd; fill:#000000" d="M 220.691 84.399L 220.691 85.254C 220.21 84.536 219.624 84.2 218.855 84.2C 217.329 84.2 216.296 85.539 216.296 87.504C 216.296 88.496 216.559 89.305 217.051 89.8832C 217.497 90.391 218.137 90.6918 218.77 90.6918C 219.523 90.6918 220.051 90.3636 220.59 89.578L 220.59 89.8871C 220.59 90.6996 220.488 91.1957 220.249 91.5277C 219.999 91.8832 219.512 92.0863 218.934 92.0863C 218.503 92.0863 218.118 91.973 217.855 91.766C 217.641 91.5941 217.551 91.4339 217.493 91.0785L 216.527 91.0785C 216.628 92.2113 217.508 92.8871 218.917 92.8871C 219.809 92.8871 220.574 92.6019 220.965 92.1214C 221.421 91.5746 221.594 90.8168 221.594 89.407L 221.594 84.391L 220.691 84.399zM 218.954 85.098C 219.98 85.098 220.59 85.973 220.59 87.481C 220.59 88.918 219.973 89.7933 218.965 89.7933C 217.921 89.7933 217.292 88.907 217.292 87.446C 217.292 85.996 217.934 85.098 218.954 85.098z"/>
<path style="stroke:none; fill-rule:evenodd; fill:#000000" d="M 223.191 90.3988L 224.191 90.3988L 224.191 82L 223.191 82L 223.191 90.3988z"/>
<path style="stroke:none; fill-rule:evenodd; fill:#000000" d="M 230.895 87.7C 230.895 86.782 230.829 86.231 230.656 85.786C 230.27 84.801 229.355 84.203 228.238 84.203C 226.574 84.203 225.499 85.496 225.499 87.485C 225.499 89.473 226.536 90.6996 228.21 90.6996C 229.574 90.6996 230.52 89.9066 230.762 88.575L 229.809 88.575C 229.546 89.379 229.016 89.7972 228.253 89.7972C 227.652 89.7972 227.141 89.52 226.824 89.004C 226.598 88.657 226.52 88.305 226.508 87.7L 230.895 87.7zM 226.473 86.934C 226.551 85.821 227.23 85.098 228.191 85.098C 229.128 85.098 229.855 85.875 229.855 86.864C 229.855 86.883 229.855 86.907 229.844 86.93L 226.473 86.934z"/>
<path style="stroke:#000000; stroke-width:1.9133; fill:none" d="M 245.359 96.0785L 210.921 61.641L 176.484 96.0785L 245.359 96.0785z"/>
<path style="stroke:#000000; stroke-width:0.95664899999999997; fill:none" d="M 50.2031 99.6761L 187.956 105.414"/>
<path style="stroke:#000000; stroke-width:0.95664899999999997; fill:none" d="M 180.395 103.188L 187.96 105.414L 180.238 107.004"/>
<path style="stroke:#000000; stroke-width:0.95664899999999997; fill:none" d="M 50.2031 99.6761L 122.907 69.067"/>
<path style="stroke:#000000; stroke-width:0.95664899999999997; fill:none" d="M 115.114 70.27L 122.907 69.067L 116.598 73.797"/>
<path style="stroke:#000000; stroke-width:0.95664899999999997; fill:none" d="M 50.2031 74.801L 122.907 120.719"/>
<path style="stroke:#000000; stroke-width:0.95664899999999997; fill:none" d="M 117.461 115.016L 122.907 120.719L 115.418 118.25"/>
<path style="stroke:#000000; stroke-dasharray:6,3; stroke-width:2.8699499999999998; fill:none" d="M 251.102 145.594C 251.102 145.594 251.102 145.594 251.738 143.684C 252.375 141.774 253.648 137.946 252.137 134.676C 250.625 131.411 246.32 128.7 244.727 125.032C 243.133 121.368 244.249 116.743 248.074 112.676C 251.898 108.614 258.438 105.106 256.762 101.516C 255.09 97.93 245.204 94.2621 244.085 90.5941C 242.973 86.93 250.621 83.262 252.297 79.672C 253.969 76.086 249.668 72.578 249.109 68.993C 248.555 65.407 251.738 61.739 250.781 57.594C 249.828 53.45 244.723 48.825 245.68 45.559C 246.633 42.293 253.648 40.379 260.348 36.551C 267.043 32.727 273.418 26.989 275.332 26.989C 277.242 26.989 274.695 32.727 274.695 36.551C 274.695 40.375 277.246 42.289 281.391 40.375C 285.535 38.465 291.273 32.723 293.508 33.68C 295.738 34.633 294.461 42.289 297.41 46.114C 300.359 49.938 307.535 49.938 308.887 51.692C 310.238 53.446 305.781 56.95 305.219 60.141C 304.664 63.328 308.008 66.2 308.008 69.864C 308.008 73.528 304.66 77.993 306.336 81.102C 308.008 84.207 314.703 85.961 316.379 88.196C 318.051 90.4261 314.707 93.1371 311.918 96.3246C 309.129 99.5121 306.898 103.18 305.223 105.493C 303.551 107.801 302.434 108.758 304.109 110.114C 305.781 111.465 310.246 113.219 311.363 115.93C 312.477 118.641 310.25 122.305 311.918 124.141C 313.59 125.973 319.172 125.973 319.172 129.161C 319.172 132.348 313.594 138.727 307.375 142.313C 301.16 145.899 294.305 146.696 289.918 146.137C 285.535 145.582 283.621 143.668 281.707 143.348C 279.797 143.032 277.883 144.301 276.289 145.899C 274.695 147.493 273.422 149.407 271.828 150.043C 270.234 150.68 268.32 150.043 267.047 148.77C 265.773 147.496 265.137 145.582 263.859 145.262C 262.586 144.946 260.672 146.215 258.441 146.536C 256.211 146.852 253.66 146.219 252.383 145.899C 251.109 145.582 251.109 145.582 251.109 145.582"/>
<path style="stroke:#000000; stroke-width:0.95664899999999997; fill:none" d="M 50.2031 74.801L 180.305 92.0199"/>
<path style="stroke:#000000; stroke-width:0.95664899999999997; fill:none" d="M 172.973 89.121L 180.309 92.0199L 172.473 92.9105"/>
<path style="stroke:#000000; stroke-width:0.95664899999999997; fill:none" d="M 170.743 61.41L 277.887 55.672"/>
<path style="stroke:#000000; stroke-width:0.95664899999999997; fill:none" d="M 270.145 54.168L 277.887 55.668L 270.348 57.985"/>
<path style="stroke:#000000; stroke-width:0.95664899999999997; fill:none" d="M 233.878 116.895L 260.664 120.719"/>
<path style="stroke:#000000; stroke-width:0.95664899999999997; fill:none" d="M 253.363 117.746L 260.668 120.719L 252.824 121.528"/>
<path style="stroke:#000000; stroke-width:0.95664899999999997; fill:none" d="M 226.227 76.715L 264.492 76.715"/>
<path style="stroke:#000000; stroke-width:0.95664899999999997; fill:none" d="M 256.84 74.801L 264.492 76.711L 256.84 78.621"/>
<path style="stroke:#000000; stroke-width:0.95664899999999997; fill:none" d="M 168.829 130.286L 260.664 134.11"/>
<path style="stroke:#000000; stroke-width:0.95664899999999997; fill:none" d="M 253.102 131.883L 260.668 134.11L 252.945 135.7"/>
</g>
</svg>