<?xml version="1.0" encoding="ISO-8859-1" standalone="yes"?>
<svg width="112.382" height="79.3213">
  <defs> 
    <marker id="ArrowEnd" viewBox="0 0 10 10" refX="0" refY="5" 
     markerUnits="strokeWidth" 
     markerWidth="4" 
     markerHeight="3" 
     orient="auto"> 
        <path d="M 0 0 L 10 5 L 0 10 z" /> 
    </marker>
    <marker id="ArrowStart" viewBox="0 0 10 10" refX="10" refY="5" 
     markerUnits="strokeWidth" 
     markerWidth="4" 
     markerHeight="3" 
     orient="auto"> 
        <path d="M 10 0 L 0 5 L 10 10 z" /> 
    </marker> </defs>
<g>
<path style="stroke:#000000; stroke-width:1.91229; fill:none" d="M 32.9673 57.8267C 32.9673 51.4907 27.8306 46.354 21.4946 46.354C 15.1587 46.354 10.022 51.4907 10.022 57.8267C 10.022 64.1626 15.1587 69.2993 21.4946 69.2993C 27.8306 69.2993 32.9673 64.1626 32.9673 57.8267"/>
<path style="stroke:none; fill-rule:evenodd; fill:#000000" d="M 15.2837 61.2212L 18.5376 61.2212C 20.6704 61.2212 21.979 59.6314 21.979 57.0181C 21.979 54.4165 20.6821 52.8267 18.5376 52.8267L 15.2837 52.8267L 15.2837 61.2212zM 16.3852 60.3228L 16.3852 53.7251L 18.3579 53.7251C 20.0102 53.7251 20.8813 54.8579 20.8813 57.0298C 20.8813 59.1782 20.0102 60.3228 18.3579 60.3228L 16.3852 60.3228z"/>
<path style="stroke:none; fill-rule:evenodd; fill:#000000" d="M 25.5845 55.4556L 25.5845 61.2212L 26.5845 61.2212L 26.5845 53.1235L 25.9165 53.1235C 25.561 54.3657 25.3306 54.5415 23.7602 54.7329L 23.7602 55.4517L 25.5845 55.4556z"/>
<path style="stroke:#000000; stroke-width:1.91229; fill:none" d="M 52.0884 46.354L 52.0884 32.9712"/>
<path style="stroke:#000000; stroke-width:1.91229; fill:none" d="M 50.1782 40.6157L 52.0884 32.9673L 53.9985 40.6157"/>
<path style="stroke:#000000; stroke-width:1.91229; fill:none" d="M 63.5649 57.8267C 63.5649 51.4907 58.4282 46.354 52.0923 46.354C 45.7563 46.354 40.6196 51.4907 40.6196 57.8267C 40.6196 64.1626 45.7563 69.2993 52.0923 69.2993C 58.4282 69.2993 63.5649 64.1626 63.5649 57.8267"/>
<path style="stroke:none; fill-rule:evenodd; fill:#000000" d="M 45.8852 61.2212L 49.1391 61.2212C 51.272 61.2212 52.5806 59.6314 52.5806 57.0181C 52.5806 54.4165 51.2837 52.8267 49.1391 52.8267L 45.8852 52.8267L 45.8852 61.2212zM 46.9868 60.3228L 46.9868 53.7251L 48.9595 53.7251C 50.6118 53.7251 51.4829 54.8579 51.4829 57.0298C 51.4829 59.1782 50.6118 60.3228 48.9595 60.3228L 46.9868 60.3228z"/>
<path style="stroke:none; fill-rule:evenodd; fill:#000000" d="M 58.9282 60.2212L 54.7016 60.2212C 54.8032 59.561 55.1665 59.1392 56.1509 58.5571L 57.2837 57.9439C 58.4048 57.3306 58.9829 56.4985 58.9829 55.5024C 58.9829 54.8306 58.7134 54.2017 58.2368 53.7681C 57.7641 53.3345 57.1743 53.1314 56.4126 53.1314C 55.393 53.1314 54.6352 53.4907 54.1938 54.1704C 53.9126 54.6001 53.7876 55.0962 53.7641 55.9126L 54.7641 55.9126C 54.7954 55.3774 54.8657 55.0532 55.0024 54.7993C 55.2641 54.3228 55.7876 54.0298 56.3891 54.0298C 57.2993 54.0298 57.9829 54.6782 57.9829 55.5454C 57.9829 56.1821 57.6079 56.729 56.8891 57.1392L 55.8423 57.729C 54.1587 58.6821 53.6665 59.4478 53.5766 61.2212L 58.9282 61.2212L 58.9282 60.2212z"/>
<path style="stroke:#000000; stroke-width:1.91229; fill:none" d="M 63.5649 21.4946C 63.5649 15.1587 58.4282 10.022 52.0923 10.022C 45.7563 10.022 40.6196 15.1587 40.6196 21.4946C 40.6196 27.8306 45.7563 32.9673 52.0923 32.9673C 58.4282 32.9673 63.5649 27.8306 63.5649 21.4946"/>
<path style="stroke:#000000; stroke-width:1.91229; fill:none" d="M 94.1588 57.8267C 94.1588 51.4907 89.0218 46.354 82.686 46.354C 76.3501 46.354 71.2134 51.4907 71.2134 57.8267C 71.2134 64.1626 76.3501 69.2993 82.686 69.2993C 89.0218 69.2993 94.1588 64.1626 94.1588 57.8267"/>
<path style="stroke:none; fill-rule:evenodd; fill:#000000" d="M 76.4868 61.2212L 79.7407 61.2212C 81.8735 61.2212 83.1821 59.6314 83.1821 57.0181C 83.1821 54.4165 81.8852 52.8267 79.7407 52.8267L 76.4868 52.8267L 76.4868 61.2212zM 77.5845 60.3228L 77.5845 53.7251L 79.5571 53.7251C 81.2095 53.7251 82.0806 54.8579 82.0806 57.0298C 82.0806 59.1782 81.2095 60.3228 79.5571 60.3228L 77.5845 60.3228z"/>
<path style="stroke:none; fill-rule:evenodd; fill:#000000" d="M 86.3227 57.522L 86.8774 57.522C 88.0024 57.522 88.5806 58.0259 88.5806 58.9946C 88.5806 60.0103 87.9477 60.6157 86.8852 60.6157C 85.7798 60.6157 85.2368 60.0571 85.1665 58.854L 84.1509 58.854C 84.1938 59.5142 84.311 59.9478 84.5024 60.3189C 84.9126 61.1079 85.7173 61.5142 86.8266 61.5142C 88.4985 61.5142 89.5768 60.5181 89.5768 58.979C 89.5768 57.9478 89.1778 57.3735 88.2095 57.0415C 88.9204 56.7446 89.2798 56.1704 89.2798 55.3579C 89.2798 53.9595 88.3618 53.1235 86.8345 53.1235C 85.2173 53.1235 84.3579 54.0064 84.3227 55.7134L 85.3227 55.7134C 85.3306 55.2368 85.3774 54.9712 85.5024 54.7251C 85.729 54.2915 86.229 54.0259 86.854 54.0259C 87.7407 54.0259 88.2759 54.5415 88.2759 55.3814C 88.2759 55.94 88.0727 56.2759 87.6352 56.4556C 87.3657 56.565 87.018 56.6118 86.3149 56.6235L 86.3227 57.522z"/>
<path style="stroke:#000000; stroke-width:1.91229; fill:none" d="M 21.4946 46.354L 52.0884 32.9712"/>
<path style="stroke:#000000; stroke-width:1.91229; fill:none" d="M 44.3149 34.2837L 52.0884 32.9712L 45.8501 37.7876"/>
<path style="stroke:#000000; stroke-width:1.91229; fill:none" d="M 82.686 46.354L 52.0923 32.9712"/>
<path style="stroke:#000000; stroke-width:1.91229; fill:none" d="M 58.3306 37.7876L 52.0923 32.9712L 59.8657 34.2837"/>
<path style="stroke:none; fill-rule:evenodd; fill:#000000" d="M 46.9868 21.3228L 49.6274 21.3228C 50.2837 21.3228 50.8032 21.1314 51.2524 20.729C 51.7602 20.2759 51.979 19.7368 51.979 18.9712C 51.979 17.4087 51.0415 16.5259 49.3696 16.5259L 45.8813 16.5259L 45.8813 24.9243L 46.979 24.9243L 46.9868 21.3228zM 46.9868 20.4243L 46.9868 17.4243L 49.2368 17.4243C 50.268 17.4243 50.8813 17.9868 50.8813 18.9243C 50.8813 19.8579 50.268 20.4243 49.2368 20.4243L 46.9868 20.4243z"/>
<path style="stroke:none; fill-rule:evenodd; fill:#000000" d="M 59.3852 19.0142C 59.3735 17.3774 58.2563 16.4243 56.3423 16.4243C 54.518 16.4243 53.3891 17.3735 53.3891 18.9009C 53.3891 19.9282 53.9204 20.5806 55.0102 20.8696L 57.061 21.4243C 58.104 21.7017 58.5806 22.1274 58.5806 22.7876C 58.5806 23.2368 58.3462 23.7017 57.9946 23.9556C 57.6665 24.186 57.147 24.311 56.479 24.311C 55.5845 24.311 54.9751 24.0884 54.5766 23.5845C 54.272 23.2056 54.1352 22.7876 54.186 22.2524L 53.186 22.2524C 53.1938 23.0298 53.3423 23.5376 53.6704 24.0064C 54.2368 24.7954 55.1899 25.2134 56.4477 25.2134C 57.4321 25.2134 58.2368 24.9868 58.772 24.5689C 59.3266 24.1235 59.6782 23.3735 59.6782 22.647C 59.6782 21.6118 59.0415 20.854 57.9204 20.5415L 55.8462 19.979C 54.8501 19.7056 54.4868 19.3814 54.4868 18.7368C 54.4868 17.8853 55.2212 17.3189 56.3266 17.3189C 57.6352 17.3189 58.3696 17.9243 58.3813 19.0064L 59.3852 19.0142z"/>
<path style="stroke:none; fill-rule:evenodd; fill:#000000" d="M 68.2095 13.6235C 67.0923 15.1314 66.3891 17.2251 66.3891 19.0337C 66.3891 20.8501 67.0923 22.9439 68.2095 24.4517L 68.8227 24.4517C 67.8384 22.8071 67.2876 20.8735 67.2876 19.0337C 67.2876 17.2056 67.8345 15.2603 68.8227 13.6235L 68.2095 13.6235z"/>
<path style="stroke:none; fill-rule:evenodd; fill:#000000" d="M 69.8852 24.5259L 70.8852 24.5259L 70.8852 21.4243C 71.3852 22.0454 71.9477 22.3228 72.7251 22.3228C 74.268 22.3228 75.2837 21.065 75.2837 19.1353C 75.2837 17.104 74.2993 15.8306 72.7016 15.8306C 71.8891 15.8306 71.2329 16.1978 70.7876 16.9087L 70.7876 16.0024L 69.8891 16.0024L 69.8852 24.5259zM 72.5493 16.7212C 73.5962 16.7212 74.2798 17.6587 74.2798 19.104C 74.2798 20.479 73.5845 21.4165 72.5493 21.4165C 71.5454 21.4165 70.8852 20.4907 70.8852 19.0689C 70.8852 17.647 71.5454 16.7212 72.5493 16.7212z"/>
<path style="stroke:none; fill-rule:evenodd; fill:#000000" d="M 81.8227 21.4595C 81.7212 21.5181 81.6743 21.5181 81.6118 21.5181C 81.272 21.5181 81.0884 21.3462 81.0884 21.0454L 81.0884 17.479C 81.0884 16.4048 80.311 15.8228 78.8384 15.8228C 77.9712 15.8228 77.2524 16.0767 76.8501 16.5259C 76.5766 16.8345 76.4634 17.1821 76.4399 17.7837L 77.3852 17.7837C 77.4634 17.0532 77.8891 16.7212 78.772 16.7212C 79.6157 16.7212 80.0884 17.0415 80.0884 17.6196L 80.0884 17.8735C 80.0884 18.2759 79.854 18.4478 79.1118 18.5415C 77.7876 18.7134 77.5845 18.7603 77.2251 18.9087C 76.5415 19.1939 76.1938 19.7368 76.1938 20.522C 76.1938 21.6157 76.9477 22.3071 78.1587 22.3071C 78.9126 22.3071 79.518 22.0337 80.1938 21.3892C 80.2602 22.022 80.5571 22.3071 81.1743 22.3071C 81.3657 22.3071 81.5141 22.2837 81.8227 22.2017L 81.8227 21.4595zM 80.0845 20.1626C 80.0845 20.4907 79.9946 20.6939 79.7173 20.9634C 79.3384 21.3267 78.8813 21.5181 78.3345 21.5181C 77.6118 21.5181 77.1899 21.1548 77.1899 20.5259C 77.1899 19.8774 77.6001 19.5454 78.5923 19.3931C 79.5727 19.2524 79.772 19.2056 80.0845 19.0532L 80.0845 20.1626z"/>
<path style="stroke:none; fill-rule:evenodd; fill:#000000" d="M 82.8852 15.9946L 82.8852 22.0181L 83.8852 22.0181L 83.8852 18.8853C 83.8852 18.022 84.0962 17.4556 84.5454 17.1235C 84.8345 16.9048 85.1157 16.8384 85.7641 16.8267L 85.7641 15.8618C 85.6079 15.8423 85.5298 15.8306 85.4048 15.8306C 84.7954 15.8306 84.3306 16.1978 83.7876 17.0962L 83.7876 16.0064L 82.8852 15.9946z"/>
<path style="stroke:none; fill-rule:evenodd; fill:#000000" d="M 87.4868 13.6235L 86.4868 13.6235L 86.4868 22.022L 87.4868 22.022L 87.4868 19.6821L 88.4165 18.7642L 90.4518 22.022L 91.6388 22.022L 89.1748 18.0962L 91.2678 16.0259L 90.0378 16.0259L 87.4829 18.5571L 87.4868 13.6235z"/>
<path style="stroke:none; fill-rule:evenodd; fill:#000000" d="M 93.2838 16.022L 92.2838 16.022L 92.2838 22.022L 93.2838 22.022L 93.2838 16.022zM 93.2838 13.6235L 92.2838 13.6235L 92.2838 14.8618L 93.2838 14.8618L 93.2838 13.6235z"/>
<path style="stroke:none; fill-rule:evenodd; fill:#000000" d="M 94.9868 15.9946L 94.9868 22.0181L 95.9868 22.0181L 95.9868 18.6704C 95.9868 17.4321 96.6118 16.6196 97.5768 16.6196C 98.3148 16.6196 98.7838 17.0806 98.7838 17.811L 98.7838 22.0142L 99.7838 22.0142L 99.7838 17.4595C 99.7838 16.4595 99.0418 15.815 97.8818 15.815C 96.9868 15.815 96.4168 16.1587 95.8888 16.9985L 95.8888 15.9868L 94.9868 15.9946z"/>
<path style="stroke:none; fill-rule:evenodd; fill:#000000" d="M 105.284 16.022L 105.284 16.8814C 104.803 16.1626 104.217 15.8228 103.448 15.8228C 101.921 15.8228 100.889 17.1626 100.889 19.1274C 100.889 20.1196 101.151 20.9282 101.643 21.5064C 102.089 22.0142 102.729 22.315 103.362 22.315C 104.116 22.315 104.643 21.9868 105.182 21.2017L 105.182 21.5103C 105.182 22.3228 105.081 22.8189 104.842 23.1509C 104.592 23.5064 104.104 23.7095 103.526 23.7095C 103.096 23.7095 102.71 23.5962 102.448 23.3892C 102.233 23.2173 102.143 23.0571 102.085 22.7017L 101.12 22.7017C 101.221 23.8345 102.104 24.5103 103.51 24.5103C 104.401 24.5103 105.167 24.2251 105.557 23.7446C 106.014 23.1978 106.186 22.44 106.186 21.0337L 106.186 16.0181L 105.284 16.022zM 103.546 16.7212C 104.573 16.7212 105.182 17.5962 105.182 19.104C 105.182 20.5415 104.565 21.4165 103.557 21.4165C 102.514 21.4165 101.885 20.5298 101.885 19.0689C 101.885 17.6196 102.526 16.7212 103.546 16.7212z"/>
<path style="stroke:none; fill-rule:evenodd; fill:#000000" d="M 73.7095 29.186C 73.6977 27.9985 72.9126 27.3267 71.5141 27.3267C 70.104 27.3267 69.1899 28.0532 69.1899 29.1743C 69.1899 30.1196 69.6782 30.5689 71.1274 30.9165L 72.0376 31.1353C 72.7134 31.2954 72.9829 31.5376 72.9829 31.9751C 72.9829 32.5376 72.4165 32.9204 71.5727 32.9204C 71.0532 32.9204 70.6157 32.772 70.3735 32.5142C 70.2251 32.3423 70.1548 32.1665 70.0962 31.7329L 69.0806 31.7329C 69.1235 33.1431 69.9087 33.8189 71.4907 33.8189C 73.0141 33.8189 73.9829 33.0689 73.9829 31.9048C 73.9829 31.0064 73.4712 30.5103 72.2563 30.2212L 71.3227 30.0024C 70.5298 29.8189 70.1899 29.565 70.1899 29.1392C 70.1899 28.5884 70.686 28.229 71.4751 28.229C 72.2485 28.229 72.6665 28.5571 72.6899 29.19L 73.7095 29.186z"/>
<path style="stroke:none; fill-rule:evenodd; fill:#000000" d="M 77.2837 27.522L 76.3852 27.522L 76.3852 25.8618L 75.3852 25.8618L 75.3852 27.522L 74.4868 27.522L 74.4868 28.3189L 75.3852 28.3189L 75.3852 32.8657C 75.3852 33.4712 75.7876 33.815 76.518 33.815C 76.7407 33.815 76.9673 33.7915 77.2798 33.7329L 77.2798 32.897C 77.1665 32.9829 77.0298 33.0142 76.8618 33.0142C 76.4868 33.0142 76.3813 32.9009 76.3813 32.4712L 76.3813 28.3189L 77.2798 28.3189L 77.2837 27.522z"/>
<path style="stroke:none; fill-rule:evenodd; fill:#000000" d="M 78.3852 27.4946L 78.3852 33.5181L 79.3852 33.5181L 79.3852 30.3853C 79.3852 29.522 79.5962 28.9556 80.0454 28.6235C 80.3345 28.4048 80.6157 28.3384 81.2641 28.3267L 81.2641 27.3618C 81.1079 27.3423 81.0298 27.3306 80.9048 27.3306C 80.2954 27.3306 79.8306 27.6978 79.2876 28.5962L 79.2876 27.5064L 78.3852 27.4946z"/>
<path style="stroke:none; fill-rule:evenodd; fill:#000000" d="M 87.522 32.9595C 87.4204 33.0181 87.3735 33.0181 87.311 33.0181C 86.9712 33.0181 86.7876 32.8462 86.7876 32.5454L 86.7876 28.979C 86.7876 27.9048 86.0102 27.3228 84.5376 27.3228C 83.6704 27.3228 82.9516 27.5767 82.5493 28.0259C 82.2759 28.3345 82.1626 28.6821 82.1391 29.2837L 83.0845 29.2837C 83.1626 28.5532 83.5884 28.2212 84.4712 28.2212C 85.3149 28.2212 85.7876 28.5415 85.7876 29.1196L 85.7876 29.3735C 85.7876 29.7759 85.5532 29.9478 84.811 30.0415C 83.4868 30.2134 83.2837 30.2603 82.9243 30.4087C 82.2407 30.6939 81.893 31.2368 81.893 32.022C 81.893 33.1157 82.647 33.8071 83.8579 33.8071C 84.6118 33.8071 85.2173 33.5337 85.893 32.8892C 85.9595 33.522 86.2563 33.8071 86.8735 33.8071C 87.0649 33.8071 87.2134 33.7837 87.522 33.7017L 87.522 32.9595zM 85.7837 31.6626C 85.7837 31.9907 85.6938 32.1939 85.4165 32.4634C 85.0376 32.8267 84.5806 33.0181 84.0337 33.0181C 83.311 33.0181 82.8891 32.6548 82.8891 32.0259C 82.8891 31.3774 83.2993 31.0454 84.2915 30.8931C 85.272 30.7524 85.4712 30.7056 85.7837 30.5532L 85.7837 31.6626z"/>
<path style="stroke:none; fill-rule:evenodd; fill:#000000" d="M 90.6858 27.522L 89.7878 27.522L 89.7878 25.8618L 88.7876 25.8618L 88.7876 27.522L 87.8891 27.522L 87.8891 28.3189L 88.7876 28.3189L 88.7876 32.8657C 88.7876 33.4712 89.1898 33.815 89.9208 33.815C 90.1428 33.815 90.3698 33.7915 90.6818 33.7329L 90.6818 32.897C 90.5688 32.9829 90.4318 33.0142 90.2638 33.0142C 89.8888 33.0142 89.7838 32.9009 89.7838 32.4712L 89.7838 28.3189L 90.6818 28.3189L 90.6858 27.522z"/>
<path style="stroke:none; fill-rule:evenodd; fill:#000000" d="M 96.8848 30.8228C 96.8848 29.9048 96.8188 29.354 96.6468 28.9087C 96.2598 27.9243 95.3458 27.3267 94.2288 27.3267C 92.5648 27.3267 91.4908 28.6196 91.4908 30.6079C 91.4908 32.5962 92.5258 33.8189 94.1978 33.8189C 95.5608 33.8189 96.5068 33.0259 96.7448 31.6978L 95.7918 31.6978C 95.5338 32.4985 94.9988 32.9204 94.2368 32.9204C 93.6348 32.9204 93.1278 32.6431 92.8068 32.1274C 92.5808 31.7798 92.5028 31.4282 92.4908 30.8228L 96.8848 30.8228zM 92.4638 30.0571C 92.5418 28.9478 93.2168 28.2212 94.1818 28.2212C 95.1198 28.2212 95.8418 28.9985 95.8418 29.9868C 95.8418 30.0064 95.8418 30.0298 95.8348 30.0532L 92.4638 30.0571z"/>
<path style="stroke:none; fill-rule:evenodd; fill:#000000" d="M 102.085 27.522L 102.085 28.3814C 101.604 27.6626 101.018 27.3228 100.249 27.3228C 98.7208 27.3228 97.6898 28.6626 97.6898 30.6274C 97.6898 31.6196 97.9518 32.4282 98.4438 33.0064C 98.8888 33.5142 99.5298 33.815 100.163 33.815C 100.917 33.815 101.444 33.4868 101.983 32.7017L 101.983 33.0103C 101.983 33.8228 101.882 34.3189 101.643 34.6509C 101.393 35.0064 100.905 35.2095 100.327 35.2095C 99.8968 35.2095 99.5098 35.0962 99.2488 34.8892C 99.0338 34.7173 98.9438 34.5571 98.8848 34.2017L 97.9208 34.2017C 98.0218 35.3345 98.9048 36.0103 100.311 36.0103C 101.202 36.0103 101.967 35.7251 102.358 35.2446C 102.815 34.6978 102.987 33.94 102.987 32.5337L 102.987 27.5181L 102.085 27.522zM 100.346 28.2212C 101.374 28.2212 101.983 29.0962 101.983 30.604C 101.983 32.0415 101.366 32.9165 100.358 32.9165C 99.3148 32.9165 98.6858 32.0298 98.6858 30.5689C 98.6858 29.1196 99.3268 28.2212 100.346 28.2212z"/>
<path style="stroke:none; fill-rule:evenodd; fill:#000000" d="M 108.237 27.522L 106.577 32.19L 105.042 27.522L 104.022 27.522L 106.049 33.5767L 105.686 34.5298C 105.538 34.9556 105.323 35.1157 104.921 35.1157C 104.784 35.1157 104.624 35.0806 104.417 35.0103L 104.417 35.8657C 104.608 35.9673 104.803 36.0142 105.057 36.0142C 105.366 36.0142 105.698 35.9126 105.952 35.729C 106.249 35.5142 106.421 35.2603 106.604 34.7798L 109.276 27.5181L 108.237 27.522z"/>
<path style="stroke:none; fill-rule:evenodd; fill:#000000" d="M 110.542 35.9556C 111.671 34.4478 112.382 32.354 112.382 30.5493C 112.382 28.7329 111.671 26.6392 110.542 25.1274L 109.921 25.1274C 110.925 26.772 111.483 28.7056 111.483 30.5493C 111.483 32.3774 110.925 34.3228 109.921 35.9556L 110.542 35.9556z"/>
<path style="stroke:none; fill-rule:evenodd; fill:#000000" d="M 98.4868 65.3228L 100.284 65.3228L 100.284 63.5259L 98.4868 63.5259L 98.4868 65.3228z"/>
<path style="stroke:none; fill-rule:evenodd; fill:#000000" d="M 103.284 65.3228L 105.081 65.3228L 105.081 63.5259L 103.284 63.5259L 103.284 65.3228z"/>
<path style="stroke:none; fill-rule:evenodd; fill:#000000" d="M 108.085 65.3228L 109.882 65.3228L 109.882 63.5259L 108.085 63.5259L 108.085 65.3228z"/>
</g>
</svg>