<?xml version="1.0" encoding="ISO-8859-1" standalone="yes"?>
<svg width="493.687" height="374.5">
  <defs> 
    <marker id="ArrowEnd" viewBox="0 0 10 10" refX="0" refY="5" 
     markerUnits="strokeWidth" 
     markerWidth="4" 
     markerHeight="3" 
     orient="auto"> 
        <path d="M 0 0 L 10 5 L 0 10 z" /> 
    </marker>
    <marker id="ArrowStart" viewBox="0 0 10 10" refX="10" refY="5" 
     markerUnits="strokeWidth" 
     markerWidth="4" 
     markerHeight="3" 
     orient="auto"> 
        <path d="M 10 0 L 0 5 L 10 10 z" /> 
    </marker> </defs>
<g>
<path style="stroke:#000000; stroke-width:1.59941; fill:none" d="M 173.422 320.641L 173.422 318.243"/>
<path style="stroke:#000000; stroke-width:1.59941; fill:none" d="M 250.992 320.641L 250.992 318.243"/>
<path style="stroke:#000000; stroke-width:1.59941; fill:none" d="M 329.363 320.641L 329.363 318.243"/>
<path style="stroke:#000000; stroke-width:1.59941; fill:none" d="M 407.734 320.641L 407.734 318.243"/>
<path style="stroke:#000000; stroke-width:1.59941; fill:none" d="M 173.422 36.746L 173.422 39.145"/>
<path style="stroke:#000000; stroke-width:1.59941; fill:none" d="M 250.992 36.746L 250.992 39.145"/>
<path style="stroke:#000000; stroke-width:1.59941; fill:none" d="M 329.363 36.746L 329.363 39.145"/>
<path style="stroke:#000000; stroke-width:1.59941; fill:none" d="M 407.734 36.746L 407.734 39.145"/>
<path style="stroke:#000000; stroke-width:1.59941; fill:none" d="M 173.422 320.641L 173.422 315.844"/>
<path style="stroke:#000000; stroke-width:1.59941; fill:none" d="M 250.992 320.641L 250.992 315.844"/>
<path style="stroke:#000000; stroke-width:1.59941; fill:none" d="M 329.363 320.641L 329.363 315.844"/>
<path style="stroke:#000000; stroke-width:1.59941; fill:none" d="M 407.734 320.641L 407.734 315.844"/>
<path style="stroke:#000000; stroke-width:1.59941; fill:none" d="M 173.422 36.746L 173.422 41.543"/>
<path style="stroke:#000000; stroke-width:1.59941; fill:none" d="M 250.992 36.746L 250.992 41.543"/>
<path style="stroke:#000000; stroke-width:1.59941; fill:none" d="M 329.363 36.746L 329.363 41.543"/>
<path style="stroke:#000000; stroke-width:1.59941; fill:none" d="M 407.734 36.746L 407.734 41.543"/>
<path style="stroke:none; fill-rule:evenodd; fill:#000000" d="M 233.09 340.598L 225.066 340.598C 225.258 339.352 225.945 338.555 227.82 337.453L 229.969 336.293C 232.098 335.133 233.195 333.559 233.195 331.688C 233.195 330.418 232.68 329.235 231.777 328.414C 230.875 327.598 229.758 327.207 228.316 327.207C 226.383 327.207 224.938 327.895 224.102 329.188C 223.566 330.004 223.328 330.953 223.285 332.504L 225.184 332.504C 225.246 331.485 225.375 330.864 225.637 330.375C 226.133 329.461 227.125 328.907 228.273 328.907C 230 328.907 231.297 330.133 231.297 331.77C 231.297 332.973 230.586 334.004 229.223 334.782L 227.238 335.899C 224.043 337.703 223.113 339.145 222.938 342.5L 233.094 342.5L 233.09 340.598z"/>
<path style="stroke:none; fill-rule:evenodd; fill:#000000" d="M 241.695 331.223L 241.695 342.496L 243.492 342.496L 243.492 336.297C 243.492 334.004 244.699 332.5 246.559 332.5C 247.984 332.5 248.891 333.36 248.891 334.711L 248.891 342.496L 250.688 342.496L 250.688 333.977C 250.688 332.106 249.293 330.899 247.125 330.899C 245.453 330.899 244.379 331.543 243.391 333.114L 243.391 331.223L 241.695 331.223z"/>
<path style="stroke:none; fill-rule:evenodd; fill:#000000" d="M 263.297 337.399C 263.297 335.696 263.168 334.672 262.844 333.84C 262.113 332.008 260.387 330.903 258.273 330.903C 255.129 330.903 253.102 333.313 253.102 337.016C 253.102 340.715 255.059 343 258.219 343C 260.797 343 262.582 341.532 263.035 339.067L 261.215 339.067C 260.719 340.532 259.699 341.297 258.242 341.297C 257.094 341.297 256.117 340.778 255.512 339.825C 255.078 339.176 254.926 338.528 254.906 337.399L 263.297 337.399zM 254.984 335.981C 255.133 333.887 256.406 332.528 258.223 332.528C 259.992 332.528 261.352 333.992 261.352 335.852C 261.352 335.895 261.352 335.938 261.332 335.981L 254.984 335.981z"/>
<path style="stroke:none; fill-rule:evenodd; fill:#000000" d="M 276.16 342.5L 279.484 331.203L 277.457 331.203L 275.215 339.996L 272.992 331.203L 270.793 331.203L 268.637 339.996L 266.328 331.203L 264.344 331.203L 267.625 342.5L 269.652 342.5L 271.832 333.629L 274.117 342.5L 276.16 342.5z"/>
<path style="stroke:none; fill-rule:evenodd; fill:#000000" d="M 389.789 340.598L 381.766 340.598C 381.957 339.352 382.645 338.555 384.52 337.453L 386.668 336.293C 388.797 335.133 389.895 333.559 389.895 331.688C 389.895 330.418 389.379 329.235 388.477 328.414C 387.574 327.598 386.457 327.207 385.016 327.207C 383.082 327.207 381.637 327.895 380.801 329.188C 380.266 330.004 380.027 330.953 379.984 332.504L 381.883 332.504C 381.945 331.485 382.074 330.864 382.336 330.375C 382.832 329.461 383.824 328.907 384.973 328.907C 386.699 328.907 387.996 330.133 387.996 331.77C 387.996 332.973 387.285 334.004 385.922 334.782L 383.938 335.899C 380.742 337.703 379.812 339.145 379.637 342.5L 389.793 342.5L 389.789 340.598z"/>
<path style="stroke:none; fill-rule:evenodd; fill:#000000" d="M 398.496 331.223L 398.496 342.496L 400.293 342.496L 400.293 336.297C 400.293 334.004 401.5 332.5 403.359 332.5C 404.785 332.5 405.691 333.36 405.691 334.711L 405.691 342.496L 407.488 342.496L 407.488 333.977C 407.488 332.106 406.094 330.899 403.926 330.899C 402.254 330.899 401.18 331.543 400.191 333.114L 400.191 331.223L 398.496 331.223z"/>
<path style="stroke:none; fill-rule:evenodd; fill:#000000" d="M 420.098 337.399C 420.098 335.696 419.969 334.672 419.645 333.84C 418.914 332.008 417.188 330.903 415.074 330.903C 411.93 330.903 409.902 333.313 409.902 337.016C 409.902 340.715 411.859 343 415.02 343C 417.598 343 419.383 341.532 419.836 339.067L 418.016 339.067C 417.52 340.532 416.5 341.297 415.043 341.297C 413.895 341.297 412.918 340.778 412.312 339.825C 411.879 339.176 411.727 338.528 411.707 337.399L 420.098 337.399zM 411.785 335.981C 411.934 333.887 413.207 332.528 415.023 332.528C 416.793 332.528 418.152 333.992 418.152 335.852C 418.152 335.895 418.152 335.938 418.133 335.981L 411.785 335.981z"/>
<path style="stroke:none; fill-rule:evenodd; fill:#000000" d="M 432.961 342.5L 436.285 331.203L 434.258 331.203L 432.016 339.996L 429.793 331.203L 427.594 331.203L 425.438 339.996L 423.129 331.203L 421.145 331.203L 424.426 342.5L 426.453 342.5L 428.633 333.629L 430.918 342.5L 432.961 342.5z"/>
<path style="stroke:#000000; stroke-width:1.59941; fill:none" d="M 95.051 320.641L 97.449 320.641"/>
<path style="stroke:#000000; stroke-width:1.59941; fill:none" d="M 95.051 249.469L 97.449 249.469"/>
<path style="stroke:#000000; stroke-width:1.59941; fill:none" d="M 95.051 178.293L 97.449 178.293"/>
<path style="stroke:#000000; stroke-width:1.59941; fill:none" d="M 95.051 107.918L 97.449 107.918"/>
<path style="stroke:#000000; stroke-width:1.59941; fill:none" d="M 95.051 36.746L 97.449 36.746"/>
<path style="stroke:#000000; stroke-width:1.59941; fill:none" d="M 485.305 320.641L 482.906 320.641"/>
<path style="stroke:#000000; stroke-width:1.59941; fill:none" d="M 485.305 249.469L 482.906 249.469"/>
<path style="stroke:#000000; stroke-width:1.59941; fill:none" d="M 485.305 178.293L 482.906 178.293"/>
<path style="stroke:#000000; stroke-width:1.59941; fill:none" d="M 485.305 107.918L 482.906 107.918"/>
<path style="stroke:#000000; stroke-width:1.59941; fill:none" d="M 485.305 36.746L 482.906 36.746"/>
<path style="stroke:#000000; stroke-width:1.59941; fill:none" d="M 95.051 320.641L 99.848 320.641"/>
<path style="stroke:#000000; stroke-width:1.59941; fill:none" d="M 95.051 178.293L 99.848 178.293"/>
<path style="stroke:#000000; stroke-width:1.59941; fill:none" d="M 95.051 36.746L 99.848 36.746"/>
<path style="stroke:#000000; stroke-width:1.59941; fill:none" d="M 485.305 320.641L 480.508 320.641"/>
<path style="stroke:#000000; stroke-width:1.59941; fill:none" d="M 485.305 178.293L 480.508 178.293"/>
<path style="stroke:#000000; stroke-width:1.59941; fill:none" d="M 485.305 36.746L 480.508 36.746"/>
<path style="stroke:none; fill-rule:evenodd; fill:#000000" d="M 45.0469 309.602C 43.6406 309.602 42.3594 310.231 41.5703 311.301C 40.5898 312.637 40.1016 314.688 40.1016 317.512C 40.1016 322.66 41.8047 325.399 45.0508 325.399C 48.25 325.399 50 322.664 50 317.641C 50 314.668 49.5312 312.684 48.5273 311.301C 47.7422 310.215 46.4805 309.602 45.0508 309.602L 45.0469 309.602zM 45.0469 311.301C 47.0859 311.301 48.0938 313.364 48.0938 317.453C 48.0938 321.774 47.1055 323.797 45.0039 323.797C 43.0078 323.797 42 321.692 42 317.516C 42 313.344 43.0078 311.301 45.0469 311.301z"/>
<path style="stroke:none; fill-rule:evenodd; fill:#000000" d="M 53 324.899L 55.1992 324.899L 55.1992 322.7L 53 322.7L 53 324.899z"/>
<path style="stroke:none; fill-rule:evenodd; fill:#000000" d="M 63.0469 309.602C 61.6406 309.602 60.3594 310.231 59.5703 311.301C 58.5898 312.637 58.1016 314.688 58.1016 317.512C 58.1016 322.66 59.8047 325.399 63.0508 325.399C 66.25 325.399 68 322.664 68 317.641C 68 314.668 67.531 312.684 66.527 311.301C 65.742 310.215 64.4805 309.602 63.0508 309.602L 63.0469 309.602zM 63.0469 311.301C 65.0859 311.301 66.094 313.364 66.094 317.453C 66.094 321.774 65.1055 323.797 63.0039 323.797C 61.0078 323.797 60 321.692 60 317.516C 60 313.344 61.0078 311.301 63.0469 311.301z"/>
<path style="stroke:none; fill-rule:evenodd; fill:#000000" d="M 75.047 309.602C 73.641 309.602 72.359 310.231 71.57 311.301C 70.59 312.637 70.102 314.688 70.102 317.512C 70.102 322.66 71.805 325.399 75.051 325.399C 78.25 325.399 80 322.664 80 317.641C 80 314.668 79.531 312.684 78.527 311.301C 77.742 310.215 76.48 309.602 75.051 309.602L 75.047 309.602zM 75.047 311.301C 77.086 311.301 78.094 313.364 78.094 317.453C 78.094 321.774 77.105 323.797 75.004 323.797C 73.008 323.797 72 321.692 72 317.516C 72 313.344 73.008 311.301 75.047 311.301z"/>
<path style="stroke:none; fill-rule:evenodd; fill:#000000" d="M 45.0469 168C 43.6406 168 42.3594 168.629 41.5703 169.7C 40.5898 171.036 40.1016 173.086 40.1016 175.91C 40.1016 181.059 41.8047 183.797 45.0508 183.797C 48.25 183.797 50 181.063 50 176.039C 50 173.067 49.5312 171.082 48.5273 169.7C 47.7422 168.614 46.4805 168 45.0508 168L 45.0469 168zM 45.0469 169.7C 47.0859 169.7 48.0938 171.762 48.0938 175.852C 48.0938 180.172 47.1055 182.196 45.0039 182.196C 43.0078 182.196 42 180.09 42 175.914C 42 171.743 43.0078 169.7 45.0469 169.7z"/>
<path style="stroke:none; fill-rule:evenodd; fill:#000000" d="M 53 183.301L 55.1992 183.301L 55.1992 181.102L 53 181.102L 53 183.301z"/>
<path style="stroke:none; fill-rule:evenodd; fill:#000000" d="M 67.988 181.399L 59.9648 181.399C 60.1562 180.153 60.8438 179.356 62.7188 178.254L 64.8672 177.094C 66.996 175.934 68.094 174.36 68.094 172.489C 68.094 171.219 67.578 170.036 66.676 169.215C 65.773 168.399 64.6562 168.008 63.2148 168.008C 61.2812 168.008 59.8359 168.696 59 169.989C 58.4648 170.805 58.2266 171.754 58.1836 173.305L 60.082 173.305C 60.1445 172.286 60.2734 171.664 60.5352 171.176C 61.0312 170.262 62.0234 169.707 63.1719 169.707C 64.8984 169.707 66.195 170.934 66.195 172.571C 66.195 173.774 65.4844 174.805 64.1211 175.582L 62.1367 176.7C 58.9414 178.504 58.0117 179.946 57.8359 183.301L 67.992 183.301L 67.988 181.399z"/>
<path style="stroke:none; fill-rule:evenodd; fill:#000000" d="M 75.047 168C 73.641 168 72.359 168.629 71.57 169.7C 70.59 171.036 70.102 173.086 70.102 175.91C 70.102 181.059 71.805 183.797 75.051 183.797C 78.25 183.797 80 181.063 80 176.039C 80 173.067 79.531 171.082 78.527 169.7C 77.742 168.614 76.48 168 75.051 168L 75.047 168zM 75.047 169.7C 77.086 169.7 78.094 171.762 78.094 175.852C 78.094 180.172 77.105 182.196 75.004 182.196C 73.008 182.196 72 180.09 72 175.914C 72 171.743 73.008 169.7 75.047 169.7z"/>
<path style="stroke:none; fill-rule:evenodd; fill:#000000" d="M 45.0469 25.7C 43.6406 25.7 42.3594 26.328 41.5703 27.399C 40.5898 28.735 40.1016 30.786 40.1016 33.61C 40.1016 38.758 41.8047 41.496 45.0508 41.496C 48.25 41.496 50 38.762 50 33.739C 50 30.766 49.5312 28.782 48.5273 27.399C 47.7422 26.313 46.4805 25.7 45.0508 25.7L 45.0469 25.7zM 45.0469 27.403C 47.0859 27.403 48.0938 29.465 48.0938 33.555C 48.0938 37.875 47.1055 39.899 45.0039 39.899C 43.0078 39.899 42 37.793 42 33.618C 42 29.446 43.0078 27.403 45.0469 27.403z"/>
<path style="stroke:none; fill-rule:evenodd; fill:#000000" d="M 53 41L 55.1992 41L 55.1992 38.801L 53 38.801L 53 41z"/>
<path style="stroke:none; fill-rule:evenodd; fill:#000000" d="M 64.2969 37.301L 64.2969 40.996L 66.094 40.996L 66.094 37.301L 68.32 37.301L 68.32 35.602L 66.094 35.602L 66.094 25.703L 64.6836 25.703L 57.6992 35.301L 57.6992 37.301L 64.2969 37.301zM 64.2969 35.602L 59.3672 35.602L 64.2969 28.934L 64.2969 35.602z"/>
<path style="stroke:none; fill-rule:evenodd; fill:#000000" d="M 75.047 25.7C 73.641 25.7 72.359 26.328 71.57 27.399C 70.59 28.735 70.102 30.786 70.102 33.61C 70.102 38.758 71.805 41.496 75.051 41.496C 78.25 41.496 80 38.762 80 33.739C 80 30.766 79.531 28.782 78.527 27.399C 77.742 26.313 76.48 25.7 75.051 25.7L 75.047 25.7zM 75.047 27.403C 77.086 27.403 78.094 29.465 78.094 33.555C 78.094 37.875 77.105 39.899 75.004 39.899C 73.008 39.899 72 37.793 72 33.618C 72 29.446 73.008 27.403 75.047 27.403z"/>
<path style="stroke:none; fill-rule:evenodd; fill:#000000" d="M 8.8984 251L 8.8984 243.422L 6.1992 243.422L 6.1992 251L 2.6992 251L 2.6992 242.817L 0 242.817L 0 254.2L 15.6992 254.2L 15.6992 242.43L 13 242.43L 13 251L 8.8984 251z"/>
<path style="stroke:none; fill-rule:evenodd; fill:#000000" d="M 4 240.102L 15.6992 240.102L 15.6992 237.102L 9.543 237.102C 7.7852 237.102 6.9023 236.223 6.9023 234.461C 6.9023 234.141 6.9102 233.926 6.9336 233.516L 3.9023 233.516C 3.9023 233.688 3.9023 233.793 3.9023 233.879C 3.9023 235.254 4.7891 236.457 6.3281 237.102L 4 237.102L 4 240.102z"/>
<path style="stroke:none; fill-rule:evenodd; fill:#000000" d="M 4 231.7L 15.6992 231.7L 15.6992 228.7L 9.543 228.7C 7.7852 228.7 6.9023 227.821 6.9023 226.059C 6.9023 225.739 6.9102 225.524 6.9336 225.114L 3.9023 225.114C 3.9023 225.286 3.9023 225.391 3.9023 225.477C 3.9023 226.852 4.7891 228.055 6.3281 228.7L 4 228.7L 4 231.7z"/>
<path style="stroke:none; fill-rule:evenodd; fill:#000000" d="M 3.7969 218.172C 3.7969 221.723 6.1602 223.899 9.9961 223.899C 13.8516 223.899 16.1953 221.727 16.1953 218.149C 16.1953 214.618 13.8359 212.399 10.0859 212.399C 6.1211 212.399 3.8008 214.528 3.8008 218.168L 3.7969 218.172zM 6.1992 218.149C 6.1992 216.485 7.7148 215.399 10.043 215.399C 12.2578 215.399 13.7969 216.524 13.7969 218.149C 13.7969 219.793 12.2617 220.895 10 220.895C 7.7383 220.895 6.2031 219.793 6.2031 218.149L 6.1992 218.149z"/>
<path style="stroke:none; fill-rule:evenodd; fill:#000000" d="M 4 210.102L 15.6992 210.102L 15.6992 207.102L 9.543 207.102C 7.7852 207.102 6.9023 206.223 6.9023 204.461C 6.9023 204.141 6.9102 203.926 6.9336 203.516L 3.9023 203.516C 3.9023 203.688 3.9023 203.793 3.9023 203.879C 3.9023 205.254 4.7891 206.457 6.3281 207.102L 4 207.102L 4 210.102z"/>
<path style="stroke:none; fill-rule:evenodd; fill:#000000" d="M 4.0391 192.598L 4.0391 195.598L 15.6953 195.598L 15.6953 192.598L 4.0391 192.598zM 0 192.598L 0 195.598L 2.6992 195.598L 2.6992 192.598L 0 192.598z"/>
<path style="stroke:none; fill-rule:evenodd; fill:#000000" d="M 4 189.7L 15.6992 189.7L 15.6992 186.7L 8.6211 186.7C 7.2227 186.7 6.3047 185.727 6.3047 184.25C 6.3047 182.953 7.0273 182.301 8.4258 182.301L 15.7031 182.301L 15.7031 179.301L 7.8594 179.301C 5.2812 179.301 3.8047 180.723 3.8047 183.203C 3.8047 184.778 4.3984 185.832 5.7266 186.696L 4.0039 186.696L 4 189.7z"/>
<path style="stroke:none; fill-rule:evenodd; fill:#000000" d="M 4.2969 165.403L 4.2969 167.098L 1.1484 167.098L 1.1484 170.098L 4.2969 170.098L 4.2969 171.594L 6.2969 171.594L 6.2969 170.098L 13.457 170.098C 15.2891 170.098 16.1953 169.129 16.1953 167.149C 16.1953 166.481 16.1328 165.946 15.9609 165.403L 13.8438 165.403C 13.8789 165.707 13.8984 165.879 13.8984 166.098C 13.8984 166.903 13.6641 167.098 12.6289 167.098L 6.3008 167.098L 6.3008 165.403L 4.2969 165.403z"/>
<path style="stroke:none; fill-rule:evenodd; fill:#000000" d="M 10.7969 153.387C 10.5391 153.368 10.4297 153.368 10.2773 153.368C 9.1094 153.368 8.0234 153.539 7.2031 153.821C 5.082 154.594 3.8008 156.473 3.8008 158.828C 3.8008 162.172 6.2305 164.223 10.1523 164.223C 13.9023 164.223 16.1992 162.196 16.1992 158.891C 16.1992 156.282 14.7109 154.164 12.418 153.496L 12.418 156.473C 13.3555 156.836 13.8984 157.68 13.8984 158.782C 13.8984 159.645 13.5312 160.336 12.875 160.766C 12.4414 161.043 11.9141 161.153 10.8008 161.196L 10.7969 153.387zM 8.7969 161.16C 7 160.969 6.0977 160.211 6.0977 158.875C 6.0977 158.121 6.4688 157.43 7.082 156.996C 7.5195 156.719 7.9805 156.586 8.793 156.524L 8.7969 161.16z"/>
<path style="stroke:none; fill-rule:evenodd; fill:#000000" d="M 7.7969 141.797C 5.3086 141.84 3.8008 143.746 3.8008 146.887C 3.8008 149.856 5.293 151.696 7.6953 151.696C 8.4727 151.696 9.1445 151.461 9.5977 151.047C 10.0078 150.637 10.2031 150.27 10.5703 149.141L 11.6953 145.524C 11.9297 144.766 12.168 144.504 12.6445 144.504C 13.3555 144.504 13.7891 145.344 13.7891 146.746C 13.7891 147.52 13.6406 148.145 13.3867 148.536C 13.1562 148.856 12.9219 148.985 12.3008 149.118L 12.3008 152.071C 14.8477 151.985 16.1914 150.114 16.1914 146.582C 16.1914 144.969 15.8477 143.743 15.1562 142.879C 14.4648 142.02 13.3828 141.5 12.2344 141.5C 10.7227 141.5 9.7461 142.258 9.293 143.797L 8.1914 147.633C 7.9336 148.477 7.7617 148.692 7.2852 148.692C 6.6367 148.692 6.2031 147.996 6.2031 146.93C 6.2031 145.473 6.7266 144.754 7.7969 144.735L 7.7969 141.797z"/>
<path style="stroke:none; fill-rule:evenodd; fill:#000000" d="M 4.2969 134.2L 4.2969 135.895L 1.1484 135.895L 1.1484 138.895L 4.2969 138.895L 4.2969 140.391L 6.2969 140.391L 6.2969 138.895L 13.457 138.895C 15.2891 138.895 16.1953 137.926 16.1953 135.946C 16.1953 135.278 16.1328 134.743 15.9609 134.2L 13.8438 134.2C 13.8789 134.504 13.8984 134.676 13.8984 134.895C 13.8984 135.7 13.6641 135.895 12.6289 135.895L 6.3008 135.895L 6.3008 134.2L 4.2969 134.2z"/>
<path style="stroke:none; fill-rule:evenodd; fill:#000000" d="M 4.0391 129L 4.0391 132L 15.6953 132L 15.6953 129L 4.0391 129zM 0 129L 0 132L 2.6992 132L 2.6992 129L 0 129z"/>
<path style="stroke:none; fill-rule:evenodd; fill:#000000" d="M 4 126.102L 15.6992 126.102L 15.6992 123.102L 8.6211 123.102C 7.2227 123.102 6.3047 122.129 6.3047 120.653C 6.3047 119.356 7.0273 118.703 8.4258 118.703L 15.7031 118.703L 15.7031 115.703L 7.8594 115.703C 5.2812 115.703 3.8047 117.125 3.8047 119.606C 3.8047 121.18 4.3984 122.235 5.7266 123.098L 4.0039 123.098L 4 126.102z"/>
<path style="stroke:none; fill-rule:evenodd; fill:#000000" d="M 3.9961 105.5L 5.7891 105.5C 4.4062 106.407 3.7969 107.403 3.7969 108.746C 3.7969 111.516 6.5078 113.594 10.125 113.594C 13.7656 113.594 16.1914 111.692 16.1914 108.809C 16.1914 107.446 15.7812 106.625 14.5039 105.496L 16.0938 105.496C 17.5078 105.496 18.4883 106.551 18.4883 108.059C 18.4883 109.2 18.0039 109.953 17.0938 110.192L 17.0938 113.317C 17.9961 113.297 18.6211 112.95 19.2695 112.172C 20.0234 111.243 20.3867 109.946 20.3867 108.153C 20.3867 104.629 18.8086 102.594 16.0625 102.594L 3.9883 102.594L 3.9961 105.5zM 6.2969 108.11C 6.2969 106.582 7.8945 105.45 10.082 105.45C 12.2266 105.45 13.6914 106.563 13.6914 108.153C 13.6914 109.59 12.2266 110.594 10.082 110.594C 7.8516 110.594 6.2969 109.59 6.2969 108.106L 6.2969 108.11z"/>
<path style="stroke:none; fill-rule:evenodd; fill:#000000" d="M 145.297 15.7L 148.496 15.7L 148.496 0L 145.297 0L 145.297 10.668L 139.035 0L 135.699 0L 135.699 15.7L 138.898 15.7L 138.898 4.82098L 145.297 15.7z"/>
<path style="stroke:none; fill-rule:evenodd; fill:#000000" d="M 161.113 10.801C 161.133 10.543 161.133 10.434 161.133 10.282C 161.133 9.11398 160.961 8.02798 160.68 7.207C 159.906 5.086 158.027 3.80499 155.672 3.80499C 152.328 3.80499 150.277 6.23499 150.277 10.157C 150.277 13.907 152.305 16.203 155.609 16.203C 158.219 16.203 160.336 14.715 161.004 12.422L 158.027 12.422C 157.664 13.356 156.82 13.903 155.719 13.903C 154.855 13.903 154.164 13.536 153.734 12.879C 153.457 12.446 153.348 11.918 153.305 10.805L 161.113 10.801zM 153.34 8.80099C 153.531 7.004 154.289 6.10199 155.625 6.10199C 156.379 6.10199 157.07 6.47299 157.504 7.086C 157.781 7.52399 157.914 7.98499 157.977 8.797L 153.34 8.80099z"/>
<path style="stroke:none; fill-rule:evenodd; fill:#000000" d="M 168.297 4.30099L 166.602 4.30099L 166.602 1.14899L 163.602 1.14899L 163.602 4.30099L 162.105 4.30099L 162.105 6.30099L 163.602 6.30099L 163.602 13.461C 163.602 15.293 164.57 16.2 166.551 16.2C 167.219 16.2 167.754 16.137 168.297 15.965L 168.297 13.848C 167.992 13.883 167.82 13.903 167.602 13.903C 166.797 13.903 166.602 13.668 166.602 12.633L 166.602 6.30499L 168.297 6.30499L 168.297 4.30099z"/>
<path style="stroke:none; fill-rule:evenodd; fill:#000000" d="M 182.234 15.7L 185.535 4L 182.406 4L 180.637 12.2L 178.891 4L 175.871 4L 174.102 12.2L 172.246 4L 169.117 4L 172.398 15.7L 175.504 15.7L 177.359 7.47299L 179.105 15.7L 182.234 15.7z"/>
<path style="stroke:none; fill-rule:evenodd; fill:#000000" d="M 192.324 3.80099C 188.773 3.80099 186.598 6.164 186.598 10C 186.598 13.856 188.77 16.2 192.348 16.2C 195.879 16.2 198.098 13.84 198.098 10.09C 198.098 6.125 195.969 3.80499 192.328 3.80499L 192.324 3.80099zM 192.348 6.19998C 194.012 6.19998 195.098 7.715 195.098 10.043C 195.098 12.258 193.973 13.797 192.348 13.797C 190.703 13.797 189.602 12.262 189.602 10C 189.602 7.73898 190.703 6.203 192.348 6.203L 192.348 6.19998z"/>
<path style="stroke:none; fill-rule:evenodd; fill:#000000" d="M 200.398 4L 200.398 15.7L 203.398 15.7L 203.398 9.543C 203.398 7.78598 204.277 6.90298 206.039 6.90298C 206.359 6.90298 206.574 6.91 206.984 6.93399L 206.984 3.90298C 206.812 3.90298 206.707 3.90298 206.621 3.90298C 205.246 3.90298 204.043 4.789 203.398 6.328L 203.398 4L 200.398 4z"/>
<path style="stroke:none; fill-rule:evenodd; fill:#000000" d="M 211.699 8.59399L 211.699 0L 208.699 0L 208.699 15.7L 211.699 15.7L 211.699 11.879L 212.906 10.563L 215.688 15.7L 219.227 15.7L 214.977 8.465L 218.945 4.07498L 215.516 4.07498L 211.699 8.59399z"/>
<path style="stroke:none; fill-rule:evenodd; fill:#000000" d="M 238.633 15.7L 241.934 4L 238.805 4L 237.035 12.2L 235.289 4L 232.27 4L 230.5 12.2L 228.645 4L 225.516 4L 228.797 15.7L 231.902 15.7L 233.758 7.47299L 235.504 15.7L 238.633 15.7z"/>
<path style="stroke:none; fill-rule:evenodd; fill:#000000" d="M 246.699 4.039L 243.699 4.039L 243.699 15.696L 246.699 15.696L 246.699 4.039zM 246.699 0L 243.699 0L 243.699 2.69998L 246.699 2.69998L 246.699 0z"/>
<path style="stroke:none; fill-rule:evenodd; fill:#000000" d="M 254.695 4.30099L 253 4.30099L 253 1.14899L 250 1.14899L 250 4.30099L 248.504 4.30099L 248.504 6.30099L 250 6.30099L 250 13.461C 250 15.293 250.969 16.2 252.949 16.2C 253.617 16.2 254.152 16.137 254.695 15.965L 254.695 13.848C 254.391 13.883 254.219 13.903 254 13.903C 253.195 13.903 253 13.668 253 12.633L 253 6.30499L 254.695 6.30499L 254.695 4.30099z"/>
<path style="stroke:none; fill-rule:evenodd; fill:#000000" d="M 256.898 0L 256.898 15.7L 259.898 15.7L 259.898 8.621C 259.898 7.26999 260.871 6.30499 262.234 6.30499C 262.883 6.30499 263.402 6.547 263.746 7.02798C 264.004 7.418 264.09 7.72299 264.09 8.48898L 264.09 15.7L 267.09 15.7L 267.09 7.85599C 267.09 6.40698 266.703 5.36798 265.906 4.69598C 265.238 4.133 264.27 3.80499 263.301 3.80499C 261.816 3.80499 260.738 4.422 259.898 5.72699L 259.898 0.0039978L 256.898 0z"/>
<path style="stroke:none; fill-rule:evenodd; fill:#000000" d="M 281.125 3.80099C 277.574 3.80099 275.398 6.164 275.398 10C 275.398 13.856 277.57 16.2 281.148 16.2C 284.68 16.2 286.898 13.84 286.898 10.09C 286.898 6.125 284.77 3.80499 281.129 3.80499L 281.125 3.80099zM 281.148 6.19998C 282.812 6.19998 283.898 7.715 283.898 10.043C 283.898 12.258 282.773 13.797 281.148 13.797C 279.504 13.797 278.402 12.262 278.402 10C 278.402 7.73898 279.504 6.203 281.148 6.203L 281.148 6.19998z"/>
<path style="stroke:none; fill-rule:evenodd; fill:#000000" d="M 289.195 4L 289.195 15.7L 292.195 15.7L 292.195 8.621C 292.195 7.22299 293.168 6.30499 294.645 6.30499C 295.941 6.30499 296.594 7.02798 296.594 8.42599L 296.594 15.703L 299.594 15.703L 299.594 7.85999C 299.594 5.28198 298.172 3.80499 295.691 3.80499C 294.117 3.80499 293.062 4.39899 292.199 5.72699L 292.199 4.004L 289.195 4z"/>
<path style="stroke:none; fill-rule:evenodd; fill:#000000" d="M 312.312 10.801C 312.332 10.543 312.332 10.434 312.332 10.282C 312.332 9.11398 312.16 8.02798 311.879 7.207C 311.105 5.086 309.227 3.80499 306.871 3.80499C 303.527 3.80499 301.477 6.23499 301.477 10.157C 301.477 13.907 303.504 16.203 306.809 16.203C 309.418 16.203 311.535 14.715 312.203 12.422L 309.227 12.422C 308.863 13.356 308.02 13.903 306.918 13.903C 306.055 13.903 305.363 13.536 304.934 12.879C 304.656 12.446 304.547 11.918 304.504 10.805L 312.312 10.801zM 304.539 8.80099C 304.73 7.004 305.488 6.10199 306.824 6.10199C 307.578 6.10199 308.27 6.47299 308.703 7.086C 308.98 7.52399 309.113 7.98499 309.176 8.797L 304.539 8.80099z"/>
<path style="stroke:none; fill-rule:evenodd; fill:#000000" d="M 320.5 0L 320.5 15.7L 323.5 15.7L 323.5 8.621C 323.5 7.26999 324.473 6.30499 325.836 6.30499C 326.484 6.30499 327.004 6.547 327.348 7.02798C 327.605 7.418 327.691 7.72299 327.691 8.48898L 327.691 15.7L 330.691 15.7L 330.691 7.85599C 330.691 6.40698 330.305 5.36798 329.508 4.69598C 328.84 4.133 327.871 3.80499 326.902 3.80499C 325.418 3.80499 324.34 4.422 323.5 5.72699L 323.5 0.0039978L 320.5 0z"/>
<path style="stroke:none; fill-rule:evenodd; fill:#000000" d="M 336.699 4.039L 333.699 4.039L 333.699 15.696L 336.699 15.696L 336.699 4.039zM 336.699 0L 333.699 0L 333.699 2.69998L 336.699 2.69998L 336.699 0z"/>
<path style="stroke:none; fill-rule:evenodd; fill:#000000" d="M 347 15.703L 350 15.703L 350 0L 347 0L 347 5.55099C 346.238 4.35599 345.215 3.80099 343.75 3.80099C 340.941 3.80099 338.805 6.48898 338.805 10.024C 338.805 11.602 339.281 13.207 340.066 14.336C 340.871 15.461 342.309 16.2 343.75 16.2C 345.211 16.2 346.234 15.664 347 14.52L 347 15.703zM 344.398 6.30099C 345.961 6.30099 346.996 7.81299 346.996 10.067C 346.996 12.211 345.941 13.7 344.398 13.7C 342.859 13.7 341.801 12.192 341.801 10.024C 341.801 7.836 342.855 6.30099 344.398 6.30099z"/>
<path style="stroke:none; fill-rule:evenodd; fill:#000000" d="M 360.199 15.703L 363.199 15.703L 363.199 0L 360.199 0L 360.199 5.55099C 359.438 4.35599 358.414 3.80099 356.949 3.80099C 354.141 3.80099 352.004 6.48898 352.004 10.024C 352.004 11.602 352.48 13.207 353.266 14.336C 354.07 15.461 355.508 16.2 356.949 16.2C 358.41 16.2 359.434 15.664 360.199 14.52L 360.199 15.703zM 357.598 6.30099C 359.16 6.30099 360.195 7.81299 360.195 10.067C 360.195 12.211 359.141 13.7 357.598 13.7C 356.059 13.7 355 12.192 355 10.024C 355 7.836 356.055 6.30099 357.598 6.30099z"/>
<path style="stroke:none; fill-rule:evenodd; fill:#000000" d="M 375.91 10.801C 375.93 10.543 375.93 10.434 375.93 10.282C 375.93 9.11398 375.758 8.02798 375.477 7.207C 374.703 5.086 372.824 3.80499 370.469 3.80499C 367.125 3.80499 365.074 6.23499 365.074 10.157C 365.074 13.907 367.102 16.203 370.406 16.203C 373.016 16.203 375.133 14.715 375.801 12.422L 372.824 12.422C 372.461 13.356 371.617 13.903 370.516 13.903C 369.652 13.903 368.961 13.536 368.531 12.879C 368.254 12.446 368.145 11.918 368.102 10.805L 375.91 10.801zM 368.141 8.80099C 368.332 7.004 369.09 6.10199 370.426 6.10199C 371.18 6.10199 371.871 6.47299 372.305 7.086C 372.582 7.52399 372.715 7.98499 372.777 8.797L 368.141 8.80099z"/>
<path style="stroke:none; fill-rule:evenodd; fill:#000000" d="M 377.996 4L 377.996 15.7L 380.996 15.7L 380.996 8.621C 380.996 7.22299 381.969 6.30499 383.445 6.30499C 384.742 6.30499 385.395 7.02798 385.395 8.42599L 385.395 15.703L 388.395 15.703L 388.395 7.85999C 388.395 5.28198 386.973 3.80499 384.492 3.80499C 382.918 3.80499 381.863 4.39899 381 5.72699L 381 4.004L 377.996 4z"/>
<path style="stroke:none; fill-rule:evenodd; fill:#000000" d="M 397.297 15.7L 400.297 15.7L 400.297 0L 397.297 0L 397.297 15.7z"/>
<path style="stroke:none; fill-rule:evenodd; fill:#000000" d="M 413.113 15.332C 412.559 14.836 412.402 14.512 412.402 13.903L 412.402 7.40298C 412.402 5.01999 410.789 3.80499 407.645 3.80499C 404.5 3.80499 402.863 5.15698 402.672 7.88699L 405.555 7.88699C 405.703 6.61398 406.195 6.203 407.668 6.203C 408.82 6.203 409.398 6.59399 409.398 7.379C 409.398 7.76999 409.207 8.11798 408.887 8.293C 408.48 8.508 408.48 8.508 407.004 8.75L 405.809 8.965C 403.52 9.35599 402.406 10.555 402.406 12.668C 402.406 13.668 402.684 14.496 403.215 15.086C 403.875 15.782 404.875 16.196 405.902 16.196C 407.18 16.196 408.355 15.633 409.402 14.528C 409.402 15.133 409.465 15.348 409.754 15.696L 413.113 15.696L 413.113 15.332zM 409.398 11.024C 409.398 12.793 408.543 13.797 407.023 13.797C 406.02 13.797 405.398 13.254 405.398 12.379C 405.398 11.461 405.867 11.028 407.109 10.766L 408.133 10.571C 408.922 10.418 409.051 10.375 409.395 10.2L 409.398 11.024z"/>
<path style="stroke:none; fill-rule:evenodd; fill:#000000" d="M 422.305 4L 419.887 12.524L 417.32 4L 413.996 4L 418.336 16.164L 418.336 16.25C 418.336 17.352 417.516 18.196 416.457 18.196C 416.223 18.196 416.051 18.176 415.66 18.071L 415.66 20.309C 416.109 20.371 416.371 20.391 416.738 20.391C 417.492 20.391 418.398 20.243 418.918 20.024C 419.758 19.68 420.125 19.184 420.621 17.801L 425.414 3.996L 422.305 4z"/>
<path style="stroke:none; fill-rule:evenodd; fill:#000000" d="M 437.113 10.801C 437.133 10.543 437.133 10.434 437.133 10.282C 437.133 9.11398 436.961 8.02798 436.68 7.207C 435.906 5.086 434.027 3.80499 431.672 3.80499C 428.328 3.80499 426.277 6.23499 426.277 10.157C 426.277 13.907 428.305 16.203 431.609 16.203C 434.219 16.203 436.336 14.715 437.004 12.422L 434.027 12.422C 433.664 13.356 432.82 13.903 431.719 13.903C 430.855 13.903 430.164 13.536 429.734 12.879C 429.457 12.446 429.348 11.918 429.305 10.805L 437.113 10.801zM 429.34 8.80099C 429.531 7.004 430.289 6.10199 431.625 6.10199C 432.379 6.10199 433.07 6.47299 433.504 7.086C 433.781 7.52399 433.914 7.98499 433.977 8.797L 429.34 8.80099z"/>
<path style="stroke:none; fill-rule:evenodd; fill:#000000" d="M 439.195 4L 439.195 15.7L 442.195 15.7L 442.195 9.543C 442.195 7.78598 443.074 6.90298 444.836 6.90298C 445.156 6.90298 445.371 6.91 445.781 6.93399L 445.781 3.90298C 445.609 3.90298 445.504 3.90298 445.418 3.90298C 444.043 3.90298 442.84 4.789 442.195 6.328L 442.195 4L 439.195 4z"/>
<path style="stroke:#000000; stroke-width:1.59941; fill:none" d="M 147.828 320.641L 198.207 320.641L 198.207 263.063L 147.828 263.063L 147.828 320.641z"/>
<path style="stroke:#000000; stroke-width:1.59941; fill:none" d="M 226.203 320.641L 275.781 320.641L 275.781 67.938L 226.203 67.938L 226.203 320.641z"/>
<path style="stroke:#000000; stroke-width:1.59941; fill:none" d="M 304.574 320.641L 354.152 320.641L 354.152 300.649L 304.574 300.649L 304.574 320.641z"/>
<path style="stroke:#000000; stroke-width:1.59941; fill:none" d="M 382.945 320.641L 432.523 320.641L 432.523 299.852L 382.945 299.852L 382.945 320.641z"/>
<path style="stroke:#000000; stroke-width:1.59941; fill:none" d="M 95.051 320.641L 485.305 320.641L 485.305 36.746L 95.051 36.746L 95.051 320.641z"/>
<path style="stroke:none; fill-rule:evenodd; fill:#000000" d="M 153.797 369.801L 156.996 369.801L 156.996 354.102L 153.797 354.102L 153.797 364.77L 147.535 354.102L 144.199 354.102L 144.199 369.801L 147.398 369.801L 147.398 358.922L 153.797 369.801z"/>
<path style="stroke:none; fill-rule:evenodd; fill:#000000" d="M 169.613 369.434C 169.059 368.938 168.902 368.614 168.902 368.004L 168.902 361.504C 168.902 359.121 167.289 357.907 164.145 357.907C 161 357.907 159.363 359.258 159.172 361.989L 162.055 361.989C 162.203 360.715 162.695 360.305 164.168 360.305C 165.32 360.305 165.898 360.696 165.898 361.481C 165.898 361.871 165.707 362.219 165.387 362.395C 164.98 362.61 164.98 362.61 163.504 362.852L 162.309 363.067C 160.02 363.457 158.906 364.657 158.906 366.77C 158.906 367.77 159.184 368.598 159.715 369.188C 160.375 369.883 161.375 370.297 162.402 370.297C 163.68 370.297 164.855 369.735 165.902 368.629C 165.902 369.235 165.965 369.45 166.254 369.797L 169.613 369.797L 169.613 369.434zM 165.898 365.125C 165.898 366.895 165.043 367.899 163.523 367.899C 162.52 367.899 161.898 367.356 161.898 366.481C 161.898 365.563 162.367 365.129 163.609 364.867L 164.633 364.672C 165.422 364.52 165.551 364.477 165.895 364.301L 165.898 365.125z"/>
<path style="stroke:none; fill-rule:evenodd; fill:#000000" d="M 171.598 358.098L 171.598 369.797L 174.598 369.797L 174.598 362.719C 174.598 361.278 175.371 360.403 176.66 360.403C 177.668 360.403 178.293 360.992 178.293 361.934L 178.293 369.801L 181.293 369.801L 181.293 362.723C 181.293 361.282 182.086 360.407 183.41 360.407C 184.445 360.407 185.086 360.996 185.086 361.938L 185.086 369.805L 188.086 369.805L 188.086 361.528C 188.086 359.254 186.703 357.91 184.371 357.91C 182.902 357.91 181.867 358.442 180.961 359.68C 180.402 358.551 179.234 357.91 177.789 357.91C 176.453 357.91 175.59 358.375 174.594 359.594L 174.594 358.11L 171.598 358.098z"/>
<path style="stroke:none; fill-rule:evenodd; fill:#000000" d="M 200.812 364.899C 200.832 364.641 200.832 364.532 200.832 364.379C 200.832 363.211 200.66 362.125 200.379 361.305C 199.605 359.184 197.727 357.903 195.371 357.903C 192.027 357.903 189.977 360.332 189.977 364.254C 189.977 368.004 192.004 370.301 195.309 370.301C 197.918 370.301 200.035 368.813 200.703 366.52L 197.727 366.52C 197.363 367.453 196.52 368 195.418 368C 194.555 368 193.863 367.633 193.434 366.977C 193.156 366.543 193.047 366.016 193.004 364.903L 200.812 364.899zM 193.039 362.899C 193.23 361.102 193.988 360.2 195.324 360.2C 196.078 360.2 196.77 360.571 197.203 361.184C 197.48 361.621 197.613 362.082 197.676 362.895L 193.039 362.899z"/>
<path style="stroke:none; fill-rule:evenodd; fill:#000000" d="M 215.926 353.801C 213.734 353.801 211.926 354.532 210.594 355.981C 209.199 357.492 208.402 359.696 208.402 362.047C 208.402 364.399 209.195 366.625 210.594 368.114C 211.945 369.578 213.711 370.293 215.945 370.293C 218.18 370.293 219.945 369.582 221.297 368.114C 222.648 366.668 223.492 364.379 223.492 362.153C 223.492 359.692 222.695 357.489 221.297 355.977C 219.922 354.489 218.18 353.797 215.922 353.797L 215.926 353.801zM 215.945 356.598C 218.605 356.598 220.293 358.742 220.293 362.133C 220.293 365.328 218.539 367.496 215.945 367.496C 213.328 367.496 211.598 365.332 211.598 362.047C 211.598 358.766 213.328 356.598 215.945 356.598z"/>
<path style="stroke:none; fill-rule:evenodd; fill:#000000" d="M 225.598 354.098L 225.598 369.801L 228.598 369.801L 228.598 368.617C 229.328 369.758 230.34 370.297 231.805 370.297C 234.582 370.297 236.691 367.633 236.691 364.098C 236.691 362.52 236.219 360.914 235.441 359.785C 234.645 358.637 233.227 357.899 231.805 357.899C 230.363 357.899 229.328 358.45 228.598 359.649L 228.598 354.098L 225.598 354.098zM 231.148 360.399C 232.637 360.399 233.695 361.93 233.695 364.121C 233.695 366.266 232.637 367.797 231.148 367.797C 229.617 367.797 228.602 366.309 228.602 364.055C 228.602 361.91 229.637 360.399 231.148 360.399z"/>
<path style="stroke:none; fill-rule:evenodd; fill:#000000" d="M 241.996 358.141L 238.996 358.141L 238.996 371.153C 238.996 371.821 238.762 372.059 238.121 372.059C 237.93 372.059 237.801 372.039 237.59 371.973L 237.59 374.387C 238.188 374.45 238.938 374.492 239.367 374.492C 241.227 374.492 242 373.719 242 371.817L 241.996 358.141zM 241.996 354.098L 238.996 354.098L 238.996 356.797L 241.996 356.797L 241.996 354.098z"/>
<path style="stroke:none; fill-rule:evenodd; fill:#000000" d="M 254.812 364.899C 254.832 364.641 254.832 364.532 254.832 364.379C 254.832 363.211 254.66 362.125 254.379 361.305C 253.605 359.184 251.727 357.903 249.371 357.903C 246.027 357.903 243.977 360.332 243.977 364.254C 243.977 368.004 246.004 370.301 249.309 370.301C 251.918 370.301 254.035 368.813 254.703 366.52L 251.727 366.52C 251.363 367.453 250.52 368 249.418 368C 248.555 368 247.863 367.633 247.434 366.977C 247.156 366.543 247.047 366.016 247.004 364.903L 254.812 364.899zM 247.039 362.899C 247.23 361.102 247.988 360.2 249.324 360.2C 250.078 360.2 250.77 360.571 251.203 361.184C 251.48 361.621 251.613 362.082 251.676 362.895L 247.039 362.899z"/>
<path style="stroke:none; fill-rule:evenodd; fill:#000000" d="M 266.77 362.5C 266.555 359.621 264.648 357.899 261.723 357.899C 258.238 357.899 256.203 360.196 256.203 364.184C 256.203 368.039 258.215 370.293 261.68 370.293C 264.516 370.293 266.488 368.543 266.77 365.758L 263.855 365.758C 263.465 367.301 262.855 367.895 261.684 367.895C 260.141 367.895 259.207 366.492 259.207 364.184C 259.207 363.067 259.422 362.012 259.793 361.309C 260.141 360.653 260.812 360.301 261.684 360.301C 262.922 360.301 263.508 360.907 263.855 362.5L 266.77 362.5z"/>
<path style="stroke:none; fill-rule:evenodd; fill:#000000" d="M 273.996 358.403L 272.301 358.403L 272.301 355.25L 269.301 355.25L 269.301 358.403L 267.805 358.403L 267.805 360.403L 269.301 360.403L 269.301 367.563C 269.301 369.395 270.27 370.301 272.25 370.301C 272.918 370.301 273.453 370.239 273.996 370.067L 273.996 367.95C 273.691 367.985 273.52 368.004 273.301 368.004C 272.496 368.004 272.301 367.77 272.301 366.735L 272.301 360.407L 273.996 360.407L 273.996 358.403z"/>
<path style="stroke:none; fill-rule:evenodd; fill:#000000" d="M 312.797 363.598L 316.582 363.598C 318.012 363.598 318.629 364.157 318.629 365.461C 318.629 365.59 318.629 365.801 318.609 366.082C 318.59 366.489 318.59 366.875 318.59 367.11C 318.59 368.567 318.676 369.039 319.098 369.789L 322.516 369.789L 322.516 369.211C 322.02 368.934 321.824 368.61 321.824 367.922C 321.738 363.293 321.652 363.078 319.645 362.219C 321.414 361.532 322.297 360.262 322.297 358.344C 322.297 357.098 321.863 355.957 321.109 355.18C 320.398 354.45 319.402 354.102 318.062 354.102L 309.605 354.102L 309.605 369.801L 312.805 369.801L 312.797 363.598zM 312.797 360.899L 312.797 356.801L 316.77 356.801C 317.711 356.801 318.105 356.887 318.5 357.211C 318.895 357.532 319.09 358.071 319.09 358.805C 319.09 359.559 318.871 360.16 318.5 360.485C 318.152 360.785 317.711 360.891 316.77 360.891L 312.797 360.899z"/>
<path style="stroke:none; fill-rule:evenodd; fill:#000000" d="M 334.711 364.899C 334.73 364.641 334.73 364.532 334.73 364.379C 334.73 363.211 334.559 362.125 334.277 361.305C 333.504 359.184 331.625 357.903 329.27 357.903C 325.926 357.903 323.875 360.332 323.875 364.254C 323.875 368.004 325.902 370.301 329.207 370.301C 331.816 370.301 333.934 368.813 334.602 366.52L 331.625 366.52C 331.262 367.453 330.418 368 329.316 368C 328.453 368 327.762 367.633 327.332 366.977C 327.055 366.543 326.945 366.016 326.902 364.903L 334.711 364.899zM 326.938 362.899C 327.129 361.102 327.887 360.2 329.223 360.2C 329.977 360.2 330.668 360.571 331.102 361.184C 331.379 361.621 331.512 362.082 331.574 362.895L 326.938 362.899z"/>
<path style="stroke:none; fill-rule:evenodd; fill:#000000" d="M 337 369.801L 340 369.801L 340 354.102L 337 354.102L 337 369.801z"/>
<path style="stroke:none; fill-rule:evenodd; fill:#000000" d="M 352.812 369.434C 352.258 368.938 352.102 368.614 352.102 368.004L 352.102 361.504C 352.102 359.121 350.488 357.907 347.344 357.907C 344.199 357.907 342.562 359.258 342.371 361.989L 345.254 361.989C 345.402 360.715 345.895 360.305 347.367 360.305C 348.52 360.305 349.098 360.696 349.098 361.481C 349.098 361.871 348.906 362.219 348.586 362.395C 348.18 362.61 348.18 362.61 346.703 362.852L 345.508 363.067C 343.219 363.457 342.105 364.657 342.105 366.77C 342.105 367.77 342.383 368.598 342.914 369.188C 343.574 369.883 344.574 370.297 345.602 370.297C 346.879 370.297 348.055 369.735 349.102 368.629C 349.102 369.235 349.164 369.45 349.453 369.797L 352.812 369.797L 352.812 369.434zM 349.098 365.125C 349.098 366.895 348.242 367.899 346.723 367.899C 345.719 367.899 345.098 367.356 345.098 366.481C 345.098 365.563 345.566 365.129 346.809 364.867L 347.832 364.672C 348.621 364.52 348.75 364.477 349.094 364.301L 349.098 365.125z"/>
<path style="stroke:none; fill-rule:evenodd; fill:#000000" d="M 359.996 358.403L 358.301 358.403L 358.301 355.25L 355.301 355.25L 355.301 358.403L 353.805 358.403L 353.805 360.403L 355.301 360.403L 355.301 367.563C 355.301 369.395 356.27 370.301 358.25 370.301C 358.918 370.301 359.453 370.239 359.996 370.067L 359.996 367.95C 359.691 367.985 359.52 368.004 359.301 368.004C 358.496 368.004 358.301 367.77 358.301 366.735L 358.301 360.407L 359.996 360.407L 359.996 358.403z"/>
<path style="stroke:none; fill-rule:evenodd; fill:#000000" d="M 365.098 358.141L 362.098 358.141L 362.098 369.797L 365.098 369.797L 365.098 358.141zM 365.098 354.098L 362.098 354.098L 362.098 356.797L 365.098 356.797L 365.098 354.098z"/>
<path style="stroke:none; fill-rule:evenodd; fill:#000000" d="M 373.227 357.899C 369.676 357.899 367.5 360.262 367.5 364.098C 367.5 367.953 369.672 370.297 373.25 370.297C 376.781 370.297 379 367.938 379 364.188C 379 360.223 376.871 357.903 373.23 357.903L 373.227 357.899zM 373.25 360.301C 374.914 360.301 376 361.817 376 364.145C 376 366.36 374.875 367.899 373.25 367.899C 371.605 367.899 370.504 366.364 370.504 364.102C 370.504 361.84 371.605 360.305 373.25 360.305L 373.25 360.301z"/>
<path style="stroke:none; fill-rule:evenodd; fill:#000000" d="M 381.195 358.098L 381.195 369.797L 384.195 369.797L 384.195 362.719C 384.195 361.321 385.168 360.403 386.645 360.403C 387.941 360.403 388.594 361.125 388.594 362.524L 388.594 369.801L 391.594 369.801L 391.594 361.957C 391.594 359.379 390.172 357.903 387.691 357.903C 386.117 357.903 385.062 358.496 384.199 359.825L 384.199 358.102L 381.195 358.098z"/>
<path style="stroke:none; fill-rule:evenodd; fill:#000000" d="M 403.902 361.899C 403.859 359.41 401.953 357.903 398.812 357.903C 395.844 357.903 394.004 359.395 394.004 361.797C 394.004 362.575 394.238 363.246 394.652 363.7C 395.062 364.11 395.43 364.305 396.559 364.672L 400.176 365.797C 400.934 366.032 401.195 366.27 401.195 366.746C 401.195 367.457 400.355 367.891 398.953 367.891C 398.18 367.891 397.555 367.742 397.164 367.489C 396.844 367.258 396.715 367.024 396.582 366.403L 393.629 366.403C 393.715 368.95 395.586 370.293 399.117 370.293C 400.73 370.293 401.957 369.95 402.82 369.258C 403.68 368.567 404.199 367.485 404.199 366.336C 404.199 364.825 403.441 363.848 401.902 363.395L 398.066 362.293C 397.223 362.035 397.008 361.864 397.008 361.387C 397.008 360.739 397.703 360.305 398.77 360.305C 400.227 360.305 400.945 360.828 400.965 361.899L 403.902 361.899z"/>
<path style="stroke:none; fill-rule:evenodd; fill:#000000" d="M 406.5 354.098L 406.5 369.797L 409.5 369.797L 409.5 362.719C 409.5 361.367 410.473 360.403 411.836 360.403C 412.484 360.403 413.004 360.645 413.348 361.125C 413.605 361.516 413.691 361.821 413.691 362.586L 413.691 369.797L 416.691 369.797L 416.691 361.953C 416.691 360.504 416.305 359.465 415.508 358.793C 414.84 358.231 413.871 357.903 412.902 357.903C 411.418 357.903 410.34 358.52 409.5 359.825L 409.5 354.102L 406.5 354.098z"/>
<path style="stroke:none; fill-rule:evenodd; fill:#000000" d="M 422.699 358.141L 419.699 358.141L 419.699 369.797L 422.699 369.797L 422.699 358.141zM 422.699 354.098L 419.699 354.098L 419.699 356.797L 422.699 356.797L 422.699 354.098z"/>
<path style="stroke:none; fill-rule:evenodd; fill:#000000" d="M 428.5 358.098L 425.5 358.098L 425.5 374.5L 428.5 374.5L 428.5 368.422C 429.23 369.703 430.266 370.305 431.73 370.305C 434.531 370.305 436.598 367.668 436.598 364.117C 436.598 362.473 436.125 360.832 435.348 359.75C 434.574 358.649 433.129 357.91 431.73 357.91C 430.266 357.91 429.234 358.539 428.5 359.836L 428.5 358.098zM 431.047 360.399C 432.578 360.399 433.594 361.903 433.594 364.153C 433.594 366.289 432.535 367.797 431.047 367.797C 429.535 367.797 428.5 366.317 428.5 364.11C 428.5 361.907 429.535 360.399 431.047 360.399z"/>
<path style="stroke:none; fill-rule:evenodd; fill:#000000" d="M 143.273 330.899C 140.113 330.899 138.199 333.16 138.199 336.95C 138.199 340.735 140.09 342.996 143.297 342.996C 146.457 342.996 148.395 340.739 148.395 337.035C 148.395 333.141 146.523 330.899 143.273 330.899zM 143.297 332.598C 145.363 332.598 146.594 334.239 146.594 337.012C 146.594 339.633 145.32 341.297 143.297 341.297C 141.254 341.297 140 339.657 140 336.95C 140 334.266 141.254 332.602 143.297 332.602L 143.297 332.598z"/>
<path style="stroke:none; fill-rule:evenodd; fill:#000000" d="M 150.898 342.5L 152.695 342.5L 152.695 326.801L 150.898 326.801L 150.898 342.5z"/>
<path style="stroke:none; fill-rule:evenodd; fill:#000000" d="M 164.898 326.801L 163.102 326.801L 163.102 332.61C 162.348 331.493 161.145 330.899 159.641 330.899C 156.719 330.899 154.805 333.246 154.805 336.84C 154.805 340.649 156.676 342.996 159.707 342.996C 161.254 342.996 162.332 342.414 163.301 341.008L 163.301 342.496L 164.898 342.496L 164.898 326.801zM 159.902 332.598C 161.855 332.598 163.098 334.313 163.098 336.989C 163.098 339.578 161.836 341.293 159.926 341.293C 157.926 341.293 156.602 339.559 156.602 336.946C 156.602 334.332 157.926 332.598 159.902 332.598z"/>
<path style="stroke:none; fill-rule:evenodd; fill:#000000" d="M 178.074 330.899C 174.914 330.899 173 333.16 173 336.95C 173 340.735 174.891 342.996 178.098 342.996C 181.258 342.996 183.195 340.739 183.195 337.035C 183.195 333.141 181.324 330.899 178.074 330.899zM 178.098 332.598C 180.164 332.598 181.395 334.239 181.395 337.012C 181.395 339.633 180.121 341.297 178.098 341.297C 176.055 341.297 174.801 339.657 174.801 336.95C 174.801 334.266 176.055 332.602 178.098 332.602L 178.098 332.598z"/>
<path style="stroke:none; fill-rule:evenodd; fill:#000000" d="M 185.398 326.801L 185.398 342.5L 186.996 342.5L 186.996 341.055C 187.855 342.371 189 343 190.574 343C 193.551 343 195.492 340.571 195.492 336.825C 195.492 333.168 193.645 330.903 190.676 330.903C 189.129 330.903 188.035 331.473 187.195 332.719L 187.195 326.801L 185.398 326.801zM 190.309 332.547C 192.316 332.547 193.609 334.293 193.609 336.992C 193.609 339.559 192.273 341.309 190.309 341.309C 188.41 341.309 187.16 339.582 187.16 336.926C 187.16 334.274 188.41 332.543 190.309 332.543L 190.309 332.547z"/>
<path style="stroke:none; fill-rule:evenodd; fill:#000000" d="M 197.699 331.2L 197.699 344.11C 197.699 345.227 197.336 345.594 196.242 345.594C 196.18 345.594 196.18 345.594 195.816 345.594L 195.816 347.125C 196.031 347.168 196.137 347.188 196.418 347.188C 198.441 347.188 199.5 346.371 199.5 344.84L 199.5 331.192L 197.699 331.2zM 199.5 326.801L 197.703 326.801L 197.703 329.098L 199.5 329.098L 199.5 326.801z"/>
<path style="stroke:none; fill-rule:evenodd; fill:#000000" d="M 306.875 330.899C 303.715 330.899 301.801 333.16 301.801 336.95C 301.801 340.735 303.691 342.996 306.898 342.996C 310.059 342.996 311.996 340.739 311.996 337.035C 311.996 333.141 310.125 330.899 306.875 330.899zM 306.898 332.598C 308.965 332.598 310.195 334.239 310.195 337.012C 310.195 339.633 308.922 341.297 306.898 341.297C 304.855 341.297 303.602 339.657 303.602 336.95C 303.602 334.266 304.855 332.602 306.898 332.602L 306.898 332.598z"/>
<path style="stroke:none; fill-rule:evenodd; fill:#000000" d="M 314.5 342.5L 316.297 342.5L 316.297 326.801L 314.5 326.801L 314.5 342.5z"/>
<path style="stroke:none; fill-rule:evenodd; fill:#000000" d="M 328.5 326.801L 326.703 326.801L 326.703 332.61C 325.949 331.493 324.746 330.899 323.242 330.899C 320.32 330.899 318.406 333.246 318.406 336.84C 318.406 340.649 320.277 342.996 323.309 342.996C 324.855 342.996 325.934 342.414 326.902 341.008L 326.902 342.496L 328.5 342.496L 328.5 326.801zM 323.504 332.598C 325.457 332.598 326.699 334.313 326.699 336.989C 326.699 339.578 325.438 341.293 323.527 341.293C 321.527 341.293 320.203 339.559 320.203 336.946C 320.203 334.332 321.527 332.598 323.504 332.598z"/>
<path style="stroke:none; fill-rule:evenodd; fill:#000000" d="M 341.676 330.899C 338.516 330.899 336.602 333.16 336.602 336.95C 336.602 340.735 338.492 342.996 341.699 342.996C 344.859 342.996 346.797 340.739 346.797 337.035C 346.797 333.141 344.926 330.899 341.676 330.899zM 341.699 332.598C 343.766 332.598 344.996 334.239 344.996 337.012C 344.996 339.633 343.723 341.297 341.699 341.297C 339.656 341.297 338.402 339.657 338.402 336.95C 338.402 334.266 339.656 332.602 341.699 332.602L 341.699 332.598z"/>
<path style="stroke:none; fill-rule:evenodd; fill:#000000" d="M 349 326.801L 349 342.5L 350.598 342.5L 350.598 341.055C 351.457 342.371 352.602 343 354.176 343C 357.152 343 359.094 340.571 359.094 336.825C 359.094 333.168 357.246 330.903 354.277 330.903C 352.73 330.903 351.637 331.473 350.797 332.719L 350.797 326.801L 349 326.801zM 353.91 332.547C 355.918 332.547 357.211 334.293 357.211 336.992C 357.211 339.559 355.875 341.309 353.91 341.309C 352.012 341.309 350.762 339.582 350.762 336.926C 350.762 334.274 352.012 332.543 353.91 332.543L 353.91 332.547z"/>
<path style="stroke:none; fill-rule:evenodd; fill:#000000" d="M 361.297 331.2L 361.297 344.11C 361.297 345.227 360.934 345.594 359.84 345.594C 359.777 345.594 359.777 345.594 359.414 345.594L 359.414 347.125C 359.629 347.168 359.734 347.188 360.016 347.188C 362.039 347.188 363.098 346.371 363.098 344.84L 363.098 331.192L 361.297 331.2zM 363.098 326.801L 361.301 326.801L 361.301 329.098L 363.098 329.098L 363.098 326.801z"/>
</g>
</svg>