<?xml version="1.0" encoding="UTF-8" standalone="no"?>
<svg
   xmlns:dc="http://purl.org/dc/elements/1.1/"
   xmlns:cc="http://creativecommons.org/ns#"
   xmlns:rdf="http://www.w3.org/1999/02/22-rdf-syntax-ns#"
   xmlns:svg="http://www.w3.org/2000/svg"
   xmlns="http://www.w3.org/2000/svg"
   xmlns:sodipodi="http://sodipodi.sourceforge.net/DTD/sodipodi-0.dtd"
   xmlns:inkscape="http://www.inkscape.org/namespaces/inkscape"
   version="1.1"
   width="400px"
   height="400px"
   viewBox="0 0 1000.0 1000.0"
   id="svg2"
   inkscape:version="0.91 r13725"
   sodipodi:docname="interspersed_percent_correct.svg">
  <metadata
     id="metadata118">
    <rdf:RDF>
      <cc:Work
         rdf:about="">
        <dc:format>image/svg+xml</dc:format>
        <dc:type
           rdf:resource="http://purl.org/dc/dcmitype/StillImage" />
      </cc:Work>
    </rdf:RDF>
  </metadata>
  <defs
     id="defs116" />
  <sodipodi:namedview
     pagecolor="#ffffff"
     bordercolor="#666666"
     borderopacity="1"
     objecttolerance="10"
     gridtolerance="10"
     guidetolerance="10"
     inkscape:pageopacity="0"
     inkscape:pageshadow="2"
     inkscape:window-width="2098"
     inkscape:window-height="1061"
     id="namedview114"
     showgrid="false"
     inkscape:zoom="1.7"
     inkscape:cx="3.6e+02"
     inkscape:cy="1.4e+02"
     inkscape:window-x="0"
     inkscape:window-y="0"
     inkscape:window-maximized="0"
     inkscape:current-layer="g72" />
  <path
     stroke="#000000"
     stroke-width="2"
     fill="none"
     d="M 264.4,726.1 L 264.4,171.9 L 818.7,171.9 L 818.7,726.1 L 264.4,726.1 "
     id="path4" />
  <g
     id="g6">
    <text
       x="541.6"
       y="801.0"
       font-family="Arial"
       font-size="27.7"
       fill="#000000"
       text-anchor="middle"
       id="text8">
Degree of Degradation
</text>
    <text
       x="289.6"
       y="773.3"
       font-family="Arial"
       font-size="27.7"
       fill="#000000"
       text-anchor="middle"
       id="text10">
Maximum
</text>
    <text
       x="793.5"
       y="773.3"
       font-family="Arial"
       font-size="27.7"
       fill="#000000"
       text-anchor="middle"
       id="text12">
Minimum
</text>
    <path
       stroke="#000000"
       stroke-width="2"
       fill="none"
       d="M 264.4,726.1 L 818.7,726.1 M 289.6,740.0 L 289.6,712.3 M 415.6,740.0 L 415.6,712.3 M 541.6,740.0 L 541.6,712.3 M 667.5,740.0 L 667.5,712.3 M 793.5,740.0 L 793.5,712.3 "
       id="path14" />
    <path
       stroke="#000000"
       stroke-width="2"
       fill="none"
       d="M 264.4,171.9 L 818.7,171.9 M 289.6,185.7 L 289.6,158.0 M 415.6,185.7 L 415.6,158.0 M 541.6,185.7 L 541.6,158.0 M 667.5,185.7 L 667.5,158.0 M 793.5,185.7 L 793.5,158.0 "
       id="path16" />
    <text
       x="245.0"
       y="737.2"
       font-family="Arial"
       font-size="27.7"
       fill="#000000"
       text-anchor="end"
       id="text18">
10
</text>
    <text
       x="245.0"
       y="667.9"
       font-family="Arial"
       font-size="27.7"
       fill="#000000"
       text-anchor="end"
       id="text20">
20
</text>
    <text
       x="245.0"
       y="598.7"
       font-family="Arial"
       font-size="27.7"
       fill="#000000"
       text-anchor="end"
       id="text22">
30
</text>
    <text
       x="245.0"
       y="529.4"
       font-family="Arial"
       font-size="27.7"
       fill="#000000"
       text-anchor="end"
       id="text24">
40
</text>
    <text
       x="245.0"
       y="460.1"
       font-family="Arial"
       font-size="27.7"
       fill="#000000"
       text-anchor="end"
       id="text26">
50
</text>
    <text
       x="245.0"
       y="390.8"
       font-family="Arial"
       font-size="27.7"
       fill="#000000"
       text-anchor="end"
       id="text28">
60
</text>
    <text
       x="245.0"
       y="321.5"
       font-family="Arial"
       font-size="27.7"
       fill="#000000"
       text-anchor="end"
       id="text30">
70
</text>
    <text
       x="245.0"
       y="252.2"
       font-family="Arial"
       font-size="27.7"
       fill="#000000"
       text-anchor="end"
       id="text32">
80
</text>
    <text
       x="245.0"
       y="183.0"
       font-family="Arial"
       font-size="27.7"
       fill="#000000"
       text-anchor="end"
       id="text34">
90
</text>
    <path
       stroke="#000000"
       stroke-width="2"
       fill="none"
       d="M 264.4,726.1 L 264.4,171.9 M 250.6,726.1 L 278.3,726.1 M 250.6,656.9 L 278.3,656.9 M 250.6,587.6 L 278.3,587.6 M 250.6,518.3 L 278.3,518.3 M 250.6,449.0 L 278.3,449.0 M 250.6,379.7 L 278.3,379.7 M 250.6,310.4 L 278.3,310.4 M 250.6,241.2 L 278.3,241.2 M 250.6,171.9 L 278.3,171.9 "
       id="path36" />
    <path
       stroke="#000000"
       stroke-width="2"
       fill="none"
       d="M 818.7,726.1 L 818.7,171.9 M 804.8,726.1 L 832.6,726.1 M 804.8,656.9 L 832.6,656.9 M 804.8,587.6 L 832.6,587.6 M 804.8,518.3 L 832.6,518.3 M 804.8,449.0 L 832.6,449.0 M 804.8,379.7 L 832.6,379.7 M 804.8,310.4 L 832.6,310.4 M 804.8,241.2 L 832.6,241.2 M 804.8,171.9 L 832.6,171.9 "
       id="path38" />
  </g>
  <g
     id="g72">
    <path
       stroke="#000000"
       stroke-width="1.5"
       fill="none"
       d="M 289.6,684.6  L 415.6,566.8 L 541.6,497.5 L 667.5,414.4 L 793.5,317.4 "
       id="path74"
       style="stroke-width:2.5;stroke-miterlimit:4;stroke-dasharray:none" />
    <path
       stroke="#000000"
       stroke-width="1.5"
       fill="none"
       d=" "
       id="path76" />
    <path
       stroke="#000000"
       stroke-width="1.5"
       fill="#000000"
       d="M 295.2,684.6 L 294.8,682.4 L 293.6,680.7 L 291.8,679.4 L 289.6,679.0 L 287.5,679.4 L 285.7,680.7 L 284.5,682.4 L 284.1,684.6 L 284.5,686.7 L 285.7,688.5 L 287.5,689.7 L 289.6,690.1 L 291.8,689.7 L 293.6,688.5 L 294.8,686.7 L 295.2,684.6 M 421.1,566.8 L 420.7,564.7 L 419.5,562.9 L 417.7,561.7 L 415.6,561.2 L 413.5,561.7 L 411.7,562.9 L 410.5,564.7 L 410.1,566.8 L 410.5,568.9 L 411.7,570.7 L 413.5,571.9 L 415.6,572.3 L 417.7,571.9 L 419.5,570.7 L 420.7,568.9 L 421.1,566.8 M 547.1,497.5 L 546.7,495.4 L 545.5,493.6 L 543.7,492.4 L 541.6,492.0 L 539.4,492.4 L 537.7,493.6 L 536.4,495.4 L 536.0,497.5 L 536.4,499.6 L 537.7,501.4 L 539.4,502.6 L 541.6,503.0 L 543.7,502.6 L 545.5,501.4 L 546.7,499.6 L 547.1,497.5 M 673.1,414.4 L 672.7,412.2 L 671.5,410.4 L 669.7,409.2 L 667.5,408.8 L 665.4,409.2 L 663.6,410.4 L 662.4,412.2 L 662.0,414.4 L 662.4,416.5 L 663.6,418.3 L 665.4,419.5 L 667.5,419.9 L 669.7,419.5 L 671.5,418.3 L 672.7,416.5 L 673.1,414.4 M 799.1,317.4 L 798.6,315.2 L 797.4,313.5 L 795.6,312.2 L 793.5,311.8 L 791.4,312.2 L 789.6,313.5 L 788.4,315.2 L 788.0,317.4 L 788.4,319.5 L 789.6,321.3 L 791.4,322.5 L 793.5,322.9 L 795.6,322.5 L 797.4,321.3 L 798.6,319.5 L 799.1,317.4 "
       id="path78" />
    <path
       stroke="#000000"
       stroke-width="1.5"
       fill="none"
       d=" M 278.5,711.0 L 300.7,711.0 M 278.5,658.1 L 300.7,658.1 M 289.6,711.0 L 289.6,658.1 M 289.6,684.6    M 404.5,607.2 L 426.7,607.2 M 404.5,526.4 L 426.7,526.4 M 415.6,607.2 L 415.6,526.4 M 415.6,566.8   M 530.5,540.3 L 552.7,540.3 M 530.5,454.7 L 552.7,454.7 M 541.6,540.3 L 541.6,454.7 M 541.6,497.5   M 656.5,453.9 L 678.6,453.9 M 656.5,374.8 L 678.6,374.8 M 667.5,453.9 L 667.5,374.8 M 667.5,414.4   M 782.4,349.1 L 804.6,349.1 M 782.4,285.6 L 804.6,285.6 M 793.5,349.1 L 793.5,285.6 M 793.5,317.4  "
       id="path80" />
    <path
       stroke="#ff0000"
       stroke-width="1.5"
       fill="none"
       d=" M 415.6,532.1 L 541.6,455.9 L 667.5,393.6 L 793.5,345.1 "
       id="path82"
       style="stroke-width:2.5;stroke-miterlimit:4;stroke-dasharray:20,10;stroke-dashoffset:0" />
    <path
       stroke="#ff0000"
       stroke-width="1.5"
       fill="none"
       d=" "
       id="path84" />
    <path
       stroke="#ff0000"
       stroke-width="1.5"
       fill="#ff0000"
       d="M 410.1,537.7 L 410.1,526.6 L 421.1,526.6 L 421.1,537.7 L 410.1,537.7 M 536.0,461.5 L 536.0,450.4 L 547.1,450.4 L 547.1,461.5 L 536.0,461.5 M 662.0,399.1 L 662.0,388.0 L 673.1,388.0 L 673.1,399.1 L 662.0,399.1 M 788.0,350.6 L 788.0,339.5 L 799.1,339.5 L 799.1,350.6 L 788.0,350.6 "
       id="path86" />
    <path
       stroke="#ff0000"
       stroke-width="1.5"
       fill="none"
       d="  M 404.5,565.3 L 426.7,565.3 M 404.5,499.0 L 426.7,499.0 M 415.6,565.3 L 415.6,499.0 M 415.6,532.1   M 530.5,490.8 L 552.7,490.8 M 530.5,421.0 L 552.7,421.0 M 541.6,490.8 L 541.6,421.0 M 541.6,455.9   M 656.5,423.7 L 678.6,423.7 M 656.5,363.5 L 678.6,363.5 M 667.5,423.7 L 667.5,363.5 M 667.5,393.6   M 782.4,371.7 L 804.6,371.7 M 782.4,318.5 L 804.6,318.5 M 793.5,371.7 L 793.5,318.5 M 793.5,345.1  "
       id="path88" />
    <path
       stroke="#0000ff"
       stroke-width="1.5"
       fill="none"
       d="M 541.6,393.6 L 667.5,324.3 L 793.5,275.8 "
       id="path90"
       style="stroke-width:2.5;stroke-miterlimit:4;stroke-dasharray:20,5,2.5,5;stroke-dashoffset:0" />
    <path
       stroke="#0000ff"
       stroke-width="1.5"
       fill="none"
       d=""
       id="path92" />
    <path
       stroke="#0000ff"
       stroke-width="1.5"
       fill="#0000ff"
       d="M 536.0,393.6 L 541.6,388.0 L 547.1,393.6 L 541.6,399.1 L 536.0,393.6 M 662.0,324.3 L 667.5,318.8 L 673.1,324.3 L 667.5,329.8 L 662.0,324.3 M 788.0,275.8 L 793.5,270.3 L 799.1,275.8 L 793.5,281.3 L 788.0,275.8 "
       id="path94" />
    <path
       stroke="#0000ff"
       stroke-width="1.5"
       fill="none"
       d=" M 530.5,419.5 L 552.7,419.5 M 530.5,367.6 L 552.7,367.6 M 541.6,419.5 L 541.6,367.6 M 541.6,393.6   M 656.5,355.0 L 678.6,355.0 M 656.5,293.6 L 678.6,293.6 M 667.5,355.0 L 667.5,293.6 M 667.5,324.3   M 782.4,305.1 L 804.6,305.1 M 782.4,246.5 L 804.6,246.5 M 793.5,305.1 L 793.5,246.5 M 793.5,275.8  "
       id="path96" />
    <path
       stroke="#218b21"
       stroke-width="1.5"
       fill="none"
       d="M 667.5,352.0 L 793.5,282.7 "
       id="path98"
       style="stroke-width:2.5;stroke-miterlimit:4;stroke-dasharray:10,5;stroke-dashoffset:0" />
    <path
       stroke="#218b21"
       stroke-width="1.5"
       fill="none"
       d=""
       id="path100" />
    <path
       stroke="#218b21"
       stroke-width="1.5"
       fill="#218b21"
       d="M 662.0,357.6 L 667.5,346.5 L 673.1,357.6 L 662.0,357.6 M 788.0,288.3 L 793.5,277.2 L 799.1,288.3 L 788.0,288.3 "
       id="path102" />
    <path
       stroke="#218b21"
       stroke-width="1.5"
       fill="none"
       d=" M 656.5,374.3 L 678.6,374.3 M 656.5,329.7 L 678.6,329.7 M 667.5,374.3 L 667.5,329.7 M 667.5,352.0   M 782.4,303.2 L 804.6,303.2 M 782.4,262.3 L 804.6,262.3 M 793.5,303.2 L 793.5,262.3 M 793.5,282.7  "
       id="path104" />
    <path
       stroke="#800080"
       stroke-width="1.5"
       fill="none"
       d="M 793.5,255.0 "
       id="path106" />
    <path
       stroke="#800080"
       stroke-width="1.5"
       fill="none"
       d=""
       id="path108" />
    <path
       stroke="#800080"
       stroke-width="1.5"
       fill="#800080"
       d="M 788.0,249.5 L 793.5,260.6 L 799.1,249.5 L 788.0,249.5 "
       id="path110" />
    <path
       stroke="#800080"
       stroke-width="1.5"
       fill="none"
       d=" M 782.4,277.3 L 804.6,277.3 M 782.4,232.7 L 804.6,232.7 M 793.5,277.3 L 793.5,232.7 M 793.5,255.0  "
       id="path112" />
  </g>
  <g
     id="g5622"
     transform="translate(3.8,-19)">
    <path
       d="M 300,230 360,230"
       id="path4314"
       inkscape:connector-curvature="0"
       style="fill:none;stroke:#000000;stroke-width:2.5;stroke-miterlimit:4;stroke-dasharray:none" />
    <text
       x="385.55197"
       y="236.14589"
       font-size="21.0"
       id="text4316"
       style="font-style:normal;font-variant:normal;font-weight:normal;font-stretch:normal;font-size:23.05px;line-height:150%;font-family:Arial;-inkscape-font-specification:'Arial, Normal';text-align:start;writing-mode:lr-tb;text-anchor:start;fill:#000000;stroke-width:2.5;stroke-miterlimit:4;stroke-dasharray:none"
       sodipodi:linespacing="150%">
      <tspan
         style="font-style:normal;font-variant:normal;font-weight:normal;font-stretch:normal;font-size:23.05px;line-height:150%;font-family:Arial;-inkscape-font-specification:'Arial, Normal';text-align:start;writing-mode:lr-tb;text-anchor:start;stroke-width:2.5;stroke-miterlimit:4;stroke-dasharray:none"
         id="tspan4411">series length 5</tspan>
    </text>
    <path
       d="M 300,260 360,260"
       id="path4320"
       inkscape:connector-curvature="0"
       style="fill:none;stroke:#ff0000;stroke-width:2.5;stroke-miterlimit:4;stroke-dasharray:20, 20;stroke-dashoffset:0" />
    <text
       x="384.1864"
       y="265.36578"
       font-size="21.0"
       id="text4322"
       style="font-style:normal;font-variant:normal;font-weight:normal;font-stretch:normal;font-size:23.05px;line-height:150%;font-family:Arial;-inkscape-font-specification:'Arial, Normal';text-align:start;writing-mode:lr-tb;text-anchor:start;fill:#ff0000;stroke-width:2.5;stroke-miterlimit:4;stroke-dasharray:none"
       sodipodi:linespacing="150%">
      <tspan
         style="font-style:normal;font-variant:normal;font-weight:normal;font-stretch:normal;font-size:23.05px;line-height:150%;font-family:Arial;-inkscape-font-specification:'Arial, Normal';text-align:start;writing-mode:lr-tb;text-anchor:start;stroke-width:2.5;stroke-miterlimit:4;stroke-dasharray:none"
         id="tspan4419">series length 4</tspan>
    </text>
    <path
       d="M 300,290 360,290"
       id="path4326"
       inkscape:connector-curvature="0"
       style="fill:none;stroke:#0000ff;stroke-width:2.5;stroke-miterlimit:4;stroke-dasharray:20, 5, 2.5, 5;stroke-dashoffset:0" />
    <text
       x="383.07883"
       y="294.61942"
       font-size="21.0"
       id="text4328"
       style="font-style:normal;font-variant:normal;font-weight:normal;font-stretch:normal;font-size:23.05px;line-height:150%;font-family:Arial;-inkscape-font-specification:'Arial, Normal';text-align:start;writing-mode:lr-tb;text-anchor:start;fill:#0000ff;stroke-width:2.5;stroke-miterlimit:4;stroke-dasharray:none"
       sodipodi:linespacing="150%">
      <tspan
         style="font-style:normal;font-variant:normal;font-weight:normal;font-stretch:normal;font-size:23.05px;line-height:150%;font-family:Arial;-inkscape-font-specification:'Arial, Normal';text-align:start;writing-mode:lr-tb;text-anchor:start;stroke-width:2.5;stroke-miterlimit:4;stroke-dasharray:none"
         id="tspan4413">series length 3</tspan>
    </text>
    <path
       d="M 300,320 360,320"
       id="path4332"
       inkscape:connector-curvature="0"
       style="fill:none;stroke:#218b21;stroke-width:2.5;stroke-miterlimit:4;stroke-dasharray:7.5, 7.5;stroke-dashoffset:0" />
    <text
       x="382.54303"
       y="323.83939"
       font-size="21.0"
       id="text4334"
       style="font-style:normal;font-variant:normal;font-weight:normal;font-stretch:normal;font-size:23.05px;line-height:150%;font-family:Arial;-inkscape-font-specification:'Arial, Normal';text-align:start;writing-mode:lr-tb;text-anchor:start;fill:#218b21;stroke-width:2.5;stroke-miterlimit:4;stroke-dasharray:none"
       sodipodi:linespacing="150%">
      <tspan
         style="font-style:normal;font-variant:normal;font-weight:normal;font-stretch:normal;font-size:23.05px;line-height:150%;font-family:Arial;-inkscape-font-specification:'Arial, Normal';text-align:start;writing-mode:lr-tb;text-anchor:start;stroke-width:2.5;stroke-miterlimit:4;stroke-dasharray:none"
         id="tspan4415">series length 2</tspan>
    </text>
    <path
       d="M 360,350 360,350"
       id="path4338"
       inkscape:connector-curvature="0"
       style="fill:none;stroke:#800080;stroke-width:2.5;stroke-miterlimit:4;stroke-dasharray:none" />
    <text
       x="382.54303"
       y="353.0592"
       font-size="21.0"
       id="text4340"
       style="font-style:normal;font-variant:normal;font-weight:normal;font-stretch:normal;font-size:23.05px;line-height:150%;font-family:Arial;-inkscape-font-specification:'Arial, Normal';text-align:start;writing-mode:lr-tb;text-anchor:start;fill:#800080;stroke-width:2.5;stroke-miterlimit:4;stroke-dasharray:none"
       sodipodi:linespacing="150%">
      <tspan
         style="font-style:normal;font-variant:normal;font-weight:normal;font-stretch:normal;font-size:23.05px;line-height:150%;font-family:Arial;-inkscape-font-specification:'Arial, Normal';text-align:start;writing-mode:lr-tb;text-anchor:start;stroke-width:2.5;stroke-miterlimit:4;stroke-dasharray:none"
         id="tspan4417">series length 1</tspan>
    </text>
  </g>
  <g
     id="g4180"
     transform="matrix(0,-1,1,0,-740,850)">
    <text
       sodipodi:linespacing="125%"
       id="text4176"
       y="925"
       x="127.5"
       style="font-style:normal;font-weight:normal;font-size:100px;line-height:125%;font-family:sans-serif;letter-spacing:3.12px;word-spacing:0px;writing-mode:lr-tb;fill:#000000;fill-opacity:1;stroke:none;stroke-width:1px;stroke-linecap:butt;stroke-linejoin:miter;stroke-opacity:1"
       xml:space="preserve"><tspan
         style="font-style:normal;font-variant:normal;font-weight:normal;font-stretch:normal;font-size:31.25px;line-height:125%;font-family:sans-serif;-inkscape-font-specification:'sans-serif, Normal';text-align:start;writing-mode:lr-tb;text-anchor:start"
         y="925"
         x="127.5"
         id="tspan4178"
         sodipodi:role="line">Percent Correct Identification</tspan></text>
  </g>
</svg>
