<?xml version="1.0" encoding="ISO-8859-1" standalone="yes"?>
<svg width="585.222" height="155.933">
  <defs> 
    <marker id="ArrowEnd" viewBox="0 0 10 10" refX="0" refY="5" 
     markerUnits="strokeWidth" 
     markerWidth="4" 
     markerHeight="3" 
     orient="auto"> 
        <path d="M 0 0 L 10 5 L 0 10 z" /> 
    </marker>
    <marker id="ArrowStart" viewBox="0 0 10 10" refX="10" refY="5" 
     markerUnits="strokeWidth" 
     markerWidth="4" 
     markerHeight="3" 
     orient="auto"> 
        <path d="M 10 0 L 0 5 L 10 10 z" /> 
    </marker> </defs>
<g>
<path style="stroke:#000000; stroke-width:1.9133; fill:none" d="M 10.0273 21.8104C 10.0273 21.8104 10.0273 21.8104 11.2538 33.7394C 12.4804 45.6694 14.9413 69.5364 19.8632 88.6574C 24.7812 107.779 32.164 122.157 38.0663 130.111C 43.9687 138.064 48.3984 139.595 59.9609 140.665C 71.5234 141.736 90.2229 142.345 102.648 141.427C 115.07 140.509 121.223 138.064 127.004 128.427C 132.785 118.79 138.195 101.962 142.258 83.3024C 146.316 64.6424 149.023 44.1424 150.375 33.8924C 151.727 23.6424 151.727 23.6424 151.727 23.6424"/>
<path style="stroke:#000000; stroke-width:1.9133; fill:none" d="M 11.5038 22.7284C 11.5038 22.7284 11.5038 22.7284 13.8398 25.0214C 16.1757 27.3144 20.8515 31.9044 33.6445 34.6574C 46.4374 37.4114 67.3515 38.3254 84.8199 38.1734C 102.289 38.0214 116.313 36.7984 126.891 34.3494C 137.469 31.9044 144.606 28.2324 148.539 24.8684C 152.473 21.5054 153.211 18.4464 146.203 15.8454C 139.191 13.2474 124.43 11.1074 107.574 10.3414C 90.7229 9.57941 71.7773 10.1894 55.539 12.3294C 39.3007 14.4704 25.7695 18.1424 19.0038 19.9784C 12.2382 21.8144 12.2382 21.8144 12.2382 21.8144"/>
<path style="stroke:#000000; stroke-width:1.9133; fill:none" d="M 211.883 48.6734C 211.883 48.6734 211.883 48.6734 213.25 58.3334C 214.617 67.9934 217.352 87.3224 222.824 102.81C 228.293 118.294 236.5 129.939 243.066 136.38C 249.629 142.822 254.555 144.06 267.41 144.927C 280.266 145.79 301.055 146.286 314.871 145.544C 328.684 144.802 335.523 142.822 341.949 135.017C 348.375 127.212 354.395 113.587 358.91 98.4704C 363.422 83.3574 366.43 66.7554 367.934 58.4544C 369.438 50.1544 369.438 50.1544 369.438 50.1544"/>
<path style="stroke:#000000; stroke-width:1.9133; fill:none" d="M 213.523 49.4154C 213.523 49.4154 213.523 49.4154 216.121 51.2714C 218.719 53.1264 223.914 56.8454 238.141 59.0754C 252.363 61.3024 275.617 62.0484 295.039 61.9234C 314.461 61.8024 330.055 60.8104 341.816 58.8294C 353.578 56.8494 361.512 53.8764 365.887 51.1504C 370.262 48.4274 371.082 45.9464 363.289 43.8414C 355.496 41.7364 339.082 40.0014 320.344 39.3844C 301.606 38.7674 280.543 39.2634 262.488 40.9934C 244.434 42.7244 229.391 45.7004 221.867 47.1854C 214.348 48.6694 214.348 48.6694 214.348 48.6694"/>
<path style="stroke:#000000; stroke-width:1.9133; fill:none" d="M 149.699 37.7364C 149.699 37.7364 149.699 37.7364 153.047 35.5054C 156.395 33.2754 163.09 28.8104 168.988 28.3334C 174.887 27.8574 179.988 31.3614 183.016 37.5794C 186.043 43.7944 187 52.7244 183.969 63.7244C 180.941 74.7244 173.926 87.7984 165.633 94.6544C 157.344 101.509 147.777 102.146 142.992 102.462C 138.211 102.779 138.211 102.779 138.211 102.779"/>
<path style="stroke:#000000; stroke-width:1.9133; fill:none" d="M 384.078 71.2984C 384.078 71.2984 384.078 71.2984 385.734 78.3574C 387.391 85.4154 390.711 99.5324 397.348 110.841C 403.984 122.15 413.938 130.657 421.902 135.364C 429.863 140.068 435.836 140.974 451.434 141.607C 467.027 142.239 492.246 142.599 509.004 142.056C 525.758 141.513 534.055 140.068 541.852 134.364C 549.648 128.665 556.949 118.712 562.422 107.669C 567.895 96.6304 571.547 84.5054 573.371 78.4434C 575.195 72.3804 575.195 72.3804 575.195 72.3804"/>
<path style="stroke:#000000; stroke-width:1.9133; fill:none" d="M 386.07 71.8414C 386.07 71.8414 386.07 71.8414 389.219 73.1964C 392.367 74.5524 398.672 77.2674 415.93 78.8964C 433.184 80.5254 461.391 81.0684 484.949 80.9744C 508.508 80.8844 527.422 80.1614 541.691 78.7124C 555.957 77.2674 565.582 75.0954 570.891 73.1034C 576.199 71.1144 577.195 69.3024 567.742 67.7674C 558.289 66.2324 538.379 64.9624 515.645 64.5094C 492.918 64.0604 467.363 64.4194 445.465 65.6854C 423.566 66.9504 405.316 69.1224 396.191 70.2084C 387.066 71.2944 387.066 71.2944 387.066 71.2944"/>
</g>
</svg>