<?xml version="1.0" encoding="UTF-8" standalone="no"?>
<!-- Created with Inkscape (http://www.inkscape.org/) -->

<svg
   xmlns:dc="http://purl.org/dc/elements/1.1/"
   xmlns:cc="http://creativecommons.org/ns#"
   xmlns:rdf="http://www.w3.org/1999/02/22-rdf-syntax-ns#"
   xmlns:svg="http://www.w3.org/2000/svg"
   xmlns="http://www.w3.org/2000/svg"
   xmlns:sodipodi="http://sodipodi.sourceforge.net/DTD/sodipodi-0.dtd"
   xmlns:inkscape="http://www.inkscape.org/namespaces/inkscape"
   width="744.09448819"
   height="1052.3622047"
   id="svg2"
   version="1.1"
   inkscape:version="0.47 r22583"
   sodipodi:docname="fig_fgbg_lines1.svg"
   inkscape:export-filename="/Users/oreilly/svn_docs/figs/fig_fgbg_lines1.png"
   inkscape:export-xdpi="149.95818"
   inkscape:export-ydpi="149.95818">
  <defs
     id="defs4">
    <inkscape:perspective
       sodipodi:type="inkscape:persp3d"
       inkscape:vp_x="0 : 526.18109 : 1"
       inkscape:vp_y="0 : 1000 : 0"
       inkscape:vp_z="744.09448 : 526.18109 : 1"
       inkscape:persp3d-origin="372.04724 : 350.78739 : 1"
       id="perspective10" />
    <inkscape:perspective
       id="perspective10-3"
       inkscape:persp3d-origin="372.04724 : 350.78739 : 1"
       inkscape:vp_z="744.09448 : 526.18109 : 1"
       inkscape:vp_y="0 : 1000 : 0"
       inkscape:vp_x="0 : 526.18109 : 1"
       sodipodi:type="inkscape:persp3d" />
  </defs>
  <sodipodi:namedview
     id="base"
     pagecolor="#ffffff"
     bordercolor="#666666"
     borderopacity="1.0"
     inkscape:pageopacity="0.0"
     inkscape:pageshadow="2"
     inkscape:zoom="2.8"
     inkscape:cx="281.9412"
     inkscape:cy="707.47482"
     inkscape:document-units="px"
     inkscape:current-layer="layer1"
     showgrid="false"
     inkscape:window-width="1512"
     inkscape:window-height="1018"
     inkscape:window-x="73"
     inkscape:window-y="65"
     inkscape:window-maximized="0" />
  <metadata
     id="metadata7">
    <rdf:RDF>
      <cc:Work
         rdf:about="">
        <dc:format>image/svg+xml</dc:format>
        <dc:type
           rdf:resource="http://purl.org/dc/dcmitype/StillImage" />
        <dc:title></dc:title>
      </cc:Work>
    </rdf:RDF>
  </metadata>
  <g
     inkscape:label="Layer 1"
     inkscape:groupmode="layer"
     id="layer1">
    <rect
       style="fill:#cccccc;fill-opacity:1;fill-rule:nonzero;stroke:#cccccc;stroke-width:0.98914182;stroke-miterlimit:4;stroke-opacity:1;stroke-dasharray:none;stroke-dashoffset:0"
       id="rect2813"
       width="403.58231"
       height="225.72514"
       x="61.423141"
       y="233.78532" />
    <g
       id="layer1-2"
       inkscape:label="Layer 1"
       transform="matrix(0.96530161,0,0,0.96528827,-10.862422,14.65554)">
      <path
         sodipodi:nodetypes="ccccccccccccccccccccccccccccccccc"
         id="path2860"
         d="m 134.28571,389.1479 -10.35714,-91.42858 84.64286,29.28572 -130.000001,3.57143 143.928571,19.28571 -37.85714,16.78572 117.5,85.35714 43.21428,-182.5 -105.71428,26.78571 52.85714,30.71429 -35.35714,4.28571 -2.85715,34.28572 6.78572,22.14285 -31.07143,8.21429 -24.64286,22.14286 -21.07143,-0.35715 -52.85714,7.85715 7.14286,-35.35715 50.71428,51.42858 53.92858,16.07142 81.42857,-39.28571 72.85714,-2.14286 0,0 -12.85714,-54.28571 22.5,31.78571 34.28571,-31.42857 -13.92857,-51.78571 -41.07143,3.57143 -32.5,25 15.71429,-73.92858 -6.42857,-32.85714 -72.50001,27.14286 -51.42857,-5.71429"
         style="fill:none;stroke:#000000;stroke-width:1px;stroke-linecap:butt;stroke-linejoin:miter;stroke-opacity:1" />
      <path
         id="path2862"
         d="m 90.357143,247.71932 98.214287,23.92858 -41.07143,20 274.28571,164.64285 33.92858,-48.21428 -10.71429,-2.5 -81.42857,-45.35715 62.14286,-95.35714 63.57143,-23.57143 -17.85715,110 0,0"
         style="fill:none;stroke:#000000;stroke-width:1px;stroke-linecap:butt;stroke-linejoin:miter;stroke-opacity:1" />
    </g>
  </g>
</svg>
