<?xml version="1.0" encoding="ISO-8859-1" standalone="yes"?>
<svg width="345.403" height="161.425">
  <defs> 
    <marker id="ArrowEnd" viewBox="0 0 10 10" refX="0" refY="5" 
     markerUnits="strokeWidth" 
     markerWidth="4" 
     markerHeight="3" 
     orient="auto"> 
        <path d="M 0 0 L 10 5 L 0 10 z" /> 
    </marker>
    <marker id="ArrowStart" viewBox="0 0 10 10" refX="10" refY="5" 
     markerUnits="strokeWidth" 
     markerWidth="4" 
     markerHeight="3" 
     orient="auto"> 
        <path d="M 10 0 L 0 5 L 10 10 z" /> 
    </marker> </defs>
<g>
<path style="stroke:#000000; stroke-dasharray:6,3; stroke-width:2.8699499999999998; fill:none" d="M 237.711 82.0935L 295.109 15.1285"/>
<path style="stroke:none; fill-rule:evenodd; fill:#5f5f5f" d="M 233.914 87.804L 237.738 87.804L 237.738 76.3235L 233.914 76.3235L 233.914 87.804z"/>
<path style="stroke:#000000; stroke-width:0.95664899999999997; fill:none" d="M 233.914 87.804L 237.738 87.804L 237.738 76.3235L 233.914 76.3235L 233.914 87.804z"/>
<path style="stroke:none; fill-rule:evenodd; fill:#ffffff" d="M 262.582 64.8745L 298.933 64.8745L 298.933 26.6086L 262.582 26.6086L 262.582 64.8745z"/>
<path style="stroke:#000000; stroke-width:1.9133; fill:none" d="M 262.582 64.8745L 298.933 64.8745L 298.933 26.6086L 262.582 26.6086L 262.582 64.8745z"/>
<path style="stroke:none; fill-rule:evenodd; fill:#ffffff" d="M 298.933 64.8745L 335.285 64.8745L 335.285 26.6086L 298.933 26.6086L 298.933 64.8745z"/>
<path style="stroke:#000000; stroke-width:1.9133; fill:none" d="M 298.933 64.8745L 335.285 64.8745L 335.285 26.6086L 298.933 26.6086L 298.933 64.8745z"/>
<path style="stroke:#000000; stroke-dasharray:6,3; stroke-width:2.8699499999999998; fill:none" d="M 69.3394 82.0935L 126.738 15.1285"/>
<path style="stroke:none; fill-rule:evenodd; fill:#ffffff" d="M 94.2114 64.8745L 130.562 64.8745L 130.562 26.6086L 94.2114 26.6086L 94.2114 64.8745z"/>
<path style="stroke:#000000; stroke-width:1.9133; fill:none" d="M 94.2114 64.8745L 130.562 64.8745L 130.562 26.6086L 94.2114 26.6086L 94.2114 64.8745z"/>
<path style="stroke:none; fill-rule:evenodd; fill:#ffffff" d="M 130.566 64.8745L 166.918 64.8745L 166.918 26.6086L 130.566 26.6086L 130.566 64.8745z"/>
<path style="stroke:#000000; stroke-width:1.9133; fill:none" d="M 130.566 64.8745L 166.918 64.8745L 166.918 26.6086L 130.566 26.6086L 130.566 64.8745z"/>
<path style="stroke:none; fill-rule:evenodd; fill:#000000" d="M 58.5234 44.3235L 61.4257 35.9256L 60.2929 35.9256L 57.9765 43.0385L 55.5234 35.9256L 54.3789 35.9256L 57.3828 44.3235L 58.5234 44.3235z"/>
<path style="stroke:none; fill-rule:evenodd; fill:#000000" d="M 64.4453 35.9256C 63.3281 37.4325 62.6211 39.5266 62.6211 41.3355C 62.6211 43.1516 63.3242 45.2455 64.4453 46.7535L 65.0586 46.7535C 64.0703 45.1086 63.5195 43.1756 63.5195 41.3355C 63.5195 39.5076 64.0703 37.5616 65.0586 35.9256L 64.4453 35.9256z"/>
<path style="stroke:none; fill-rule:evenodd; fill:#000000" d="M 68.5234 38.5575L 68.5234 44.3235L 69.5234 44.3235L 69.5234 36.2255L 68.8554 36.2255C 68.5004 37.4686 68.2694 37.6395 66.6994 37.8355L 66.6994 38.5535L 68.5234 38.5575z"/>
<path style="stroke:none; fill-rule:evenodd; fill:#000000" d="M 72.9764 46.7616C 74.1054 45.2535 74.8164 43.1595 74.8164 41.3546C 74.8164 39.5385 74.1054 37.4445 72.9764 35.9325L 72.3594 35.9325C 73.3634 37.5815 73.9214 39.5116 73.9214 41.3546C 73.9214 43.1825 73.3634 45.1285 72.3594 46.7616L 72.9764 46.7616z"/>
<path style="stroke:none; fill-rule:evenodd; fill:#000000" d="M 45.5234 132.355L 45.5234 138.12L 46.5234 138.12L 46.5234 130.023L 45.8554 130.023C 45.5 131.265 45.2695 131.437 43.6992 131.632L 43.6992 132.351L 45.5234 132.355z"/>
<path style="stroke:none; fill-rule:evenodd; fill:#000000" d="M 132.464 137.124L 128.238 137.124C 128.339 136.464 128.703 136.042 129.687 135.46L 130.82 134.847C 131.941 134.234 132.519 133.398 132.519 132.406C 132.519 131.734 132.25 131.105 131.773 130.671C 131.3 130.238 130.711 130.034 129.949 130.034C 128.929 130.034 128.171 130.394 127.73 131.074C 127.449 131.503 127.324 131.999 127.3 132.816L 128.3 132.816C 128.332 132.284 128.402 131.96 128.539 131.702C 128.8 131.226 129.324 130.933 129.925 130.933C 130.835 130.933 131.519 131.581 131.519 132.449C 131.519 133.085 131.144 133.632 130.425 134.042L 129.378 134.632C 127.695 135.585 127.203 136.351 127.113 138.128L 132.464 138.128L 132.464 137.124z"/>
<path style="stroke:none; fill-rule:evenodd; fill:#000000" d="M 121.222 153.624L 123.925 153.624L 123.925 152.726L 117.363 152.726L 117.363 153.624L 120.121 153.624L 120.121 161.124L 121.218 161.124L 121.222 153.624z"/>
<path style="stroke:none; fill-rule:evenodd; fill:#000000" d="M 125.921 155.124L 124.921 155.124L 124.921 161.124L 125.921 161.124L 125.921 155.124zM 125.921 152.726L 124.921 152.726L 124.921 153.96L 125.921 153.96L 125.921 152.726z"/>
<path style="stroke:none; fill-rule:evenodd; fill:#000000" d="M 127.523 155.097L 127.523 161.12L 128.523 161.12L 128.523 157.312C 128.523 156.433 129.148 155.726 129.918 155.726C 130.621 155.726 131.019 156.163 131.019 156.941L 131.019 161.12L 132.019 161.12L 132.019 157.312C 132.019 156.433 132.644 155.726 133.414 155.726C 134.105 155.726 134.515 156.175 134.515 156.941L 134.515 161.12L 135.515 161.12L 135.515 156.601C 135.515 155.523 134.894 154.925 133.761 154.925C 132.957 154.925 132.468 155.167 131.906 155.855C 131.55 155.206 131.066 154.925 130.281 154.925C 129.476 154.925 128.945 155.222 128.425 155.945L 128.425 155.097L 127.523 155.097z"/>
<path style="stroke:none; fill-rule:evenodd; fill:#000000" d="M 142.222 158.425C 142.222 157.507 142.156 156.956 141.984 156.511C 141.597 155.527 140.683 154.929 139.566 154.929C 137.902 154.929 136.828 156.222 136.828 158.21C 136.828 160.199 137.863 161.425 139.539 161.425C 140.902 161.425 141.847 160.632 142.089 159.3L 141.136 159.3C 140.875 160.105 140.343 160.523 139.582 160.523C 138.98 160.523 138.468 160.245 138.152 159.73C 137.925 159.382 137.847 159.031 137.835 158.425L 142.222 158.425zM 137.8 157.659C 137.878 156.546 138.558 155.824 139.519 155.824C 140.457 155.824 141.183 156.601 141.183 157.589C 141.183 157.609 141.183 157.632 141.171 157.656L 137.8 157.659z"/>
<path style="stroke:none; fill-rule:evenodd; fill:#000000" d="M 27.7226 101.324L 33.5195 101.324L 33.5195 100.527L 27.7226 100.527L 27.7226 101.324z"/>
<path style="stroke:none; fill-rule:evenodd; fill:#000000" d="M 28.3203 105.456L 28.3203 111.222L 29.3203 111.222L 29.3203 103.124L 28.6523 103.124C 28.2968 104.367 28.0664 104.538 26.4961 104.734L 26.4961 105.452L 28.3203 105.456z"/>
<path style="stroke:none; fill-rule:evenodd; fill:#000000" d="M 21.8828 36.2255L 20.1289 40.5466L 20.9179 40.5466L 22.3046 37.1355L 23.7031 40.5466L 24.4922 40.5466L 22.7148 36.2255L 21.8828 36.2255z"/>
<path style="stroke:#000000; stroke-width:1.9133; fill:none" d="M 10.0429 120.339L 46.4062 120.339L 46.4062 91.6321L 10.0429 91.6321L 10.0429 120.339z"/>
<path style="stroke:#000000; stroke-width:1.9133; fill:none" d="M 65.5078 91.6516L 65.5078 64.8665"/>
<path style="stroke:#000000; stroke-width:1.9133; fill:none" d="M 63.5937 72.5185L 65.5039 64.8665L 67.4144 72.5185"/>
<path style="stroke:#000000; stroke-width:1.9133; fill:none" d="M 94.2534 120.339L 130.617 120.339L 130.617 91.6321L 94.2534 91.6321L 94.2534 120.339z"/>
<path style="stroke:#000000; stroke-width:1.9133; fill:none" d="M 130.617 120.343L 166.98 120.343L 166.98 91.636L 130.617 91.636L 130.617 120.343z"/>
<path style="stroke:#000000; stroke-width:1.9133; fill:none" d="M 149.718 91.6516L 149.718 64.8665"/>
<path style="stroke:#000000; stroke-width:1.9133; fill:none" d="M 147.804 72.5185L 149.714 64.8665L 151.625 72.5185"/>
<path style="stroke:none; fill-rule:evenodd; fill:#000000" d="M 112.023 101.324L 117.82 101.324L 117.82 100.527L 112.023 100.527L 112.023 101.324z"/>
<path style="stroke:none; fill-rule:evenodd; fill:#000000" d="M 115.265 110.226L 111.039 110.226C 111.14 109.566 111.503 109.144 112.488 108.562L 113.621 107.949C 114.742 107.335 115.32 106.499 115.32 105.507C 115.32 104.835 115.05 104.206 114.574 103.773C 114.101 103.339 113.511 103.136 112.75 103.136C 111.73 103.136 110.972 103.495 110.531 104.175C 110.25 104.605 110.125 105.101 110.101 105.917L 111.101 105.917C 111.132 105.386 111.203 105.062 111.339 104.804C 111.601 104.327 112.125 104.034 112.726 104.034C 113.636 104.034 114.32 104.683 114.32 105.55C 114.32 106.187 113.945 106.734 113.226 107.144L 112.179 107.734C 110.496 108.687 110.003 109.452 109.914 111.23L 115.265 111.23L 115.265 110.226z"/>
<path style="stroke:none; fill-rule:evenodd; fill:#000000" d="M 153.953 100.527L 151.625 100.527L 151.625 98.1868L 150.828 98.1868L 150.828 100.527L 148.402 100.527L 148.402 101.324L 150.828 101.324L 150.828 103.738L 151.625 103.738L 151.625 101.324L 153.953 101.324L 153.953 100.527z"/>
<path style="stroke:none; fill-rule:evenodd; fill:#000000" d="M 151.664 110.226L 147.437 110.226C 147.539 109.566 147.902 109.144 148.886 108.562L 150.019 107.949C 151.14 107.335 151.718 106.499 151.718 105.507C 151.718 104.835 151.449 104.206 150.972 103.773C 150.5 103.339 149.91 103.136 149.148 103.136C 148.128 103.136 147.371 103.495 146.929 104.175C 146.648 104.605 146.523 105.101 146.5 105.917L 147.5 105.917C 147.531 105.386 147.601 105.062 147.738 104.804C 148 104.327 148.523 104.034 149.125 104.034C 150.035 104.034 150.718 104.683 150.718 105.55C 150.718 106.187 150.343 106.734 149.625 107.144L 148.578 107.734C 146.894 108.687 146.402 109.452 146.312 111.23L 151.664 111.23L 151.664 110.226z"/>
<path style="stroke:none; fill-rule:evenodd; fill:#000000" d="M 106.082 36.2255L 104.328 40.5466L 105.117 40.5466L 106.503 37.1355L 107.902 40.5466L 108.691 40.5466L 106.914 36.2255L 106.082 36.2255z"/>
<path style="stroke:#000000; stroke-width:1.9133; fill:none" d="M 10.0273 64.8745L 46.3789 64.8745L 46.3789 26.6086L 10.0273 26.6086L 10.0273 64.8745z"/>
<path style="stroke:#000000; stroke-width:1.9133; fill:none" d="M 46.3789 64.8745L 82.7304 64.8745L 82.7304 26.6086L 46.3789 26.6086L 46.3789 64.8745z"/>
<path style="stroke:none; fill-rule:evenodd; fill:#000000" d="M 58.1836 28.6245L 56.4296 32.9445L 57.2187 32.9445L 58.6054 29.5345L 60.0039 32.9445L 60.7929 32.9445L 59.0156 28.6245L 58.1836 28.6245z"/>
<path style="stroke:none; fill-rule:evenodd; fill:#000000" d="M 52.6484 36.6756L 51.375 40.6285L 51.0312 38.8586C 50.6875 37.1005 50.3203 36.5266 49.5507 36.5266C 49.207 36.5266 48.8984 36.6866 48.7148 36.9525C 48.4648 37.3075 48.4062 37.5965 48.3828 38.5656L 48.3828 38.7146L 48.6328 38.7146C 48.6523 38.3936 48.6757 38.2146 48.7226 38.0466C 48.8476 37.6635 49.1211 37.4256 49.4531 37.4256C 49.7617 37.4256 49.9804 37.6205 50.1953 38.0936C 50.4687 38.6906 50.7656 39.7455 50.8828 40.6005L 51.0195 41.5575C 50.9882 41.6716 50.8593 42.0425 50.6406 42.6675C 50.414 43.3006 50.3437 43.6355 50.3437 44.0305C 50.3437 44.5735 50.582 44.9285 50.9492 44.9285C 51.4179 44.9285 51.7265 44.3436 51.7265 43.4256C 51.7265 43.0695 51.6718 42.5186 51.5351 41.6555L 53.8632 36.6716L 52.6484 36.6756z"/>
<path style="stroke:none; fill-rule:evenodd; fill:#7e7e7e" d="M 56.7226 51.6985L 56.7226 57.7215L 57.7226 57.7215L 57.7226 54.5896C 57.7226 53.7255 57.9336 53.1635 58.3828 52.8275C 58.6718 52.6086 58.9531 52.5425 59.6054 52.5305L 59.6054 51.5656C 59.4492 51.5466 59.3711 51.5345 59.2461 51.5345C 58.6367 51.5345 58.1718 51.9016 57.625 52.7966L 57.625 51.7065L 56.7226 51.6985z"/>
<path style="stroke:none; fill-rule:evenodd; fill:#7e7e7e" d="M 62.4453 49.3235C 61.3281 50.8315 60.6211 52.9256 60.6211 54.7336C 60.6211 56.5506 61.3242 58.6436 62.4453 60.1516L 63.0586 60.1516C 62.0703 58.5076 61.5195 56.5735 61.5195 54.7336C 61.5195 52.9055 62.0703 50.9605 63.0586 49.3235L 62.4453 49.3235z"/>
<path style="stroke:none; fill-rule:evenodd; fill:#7e7e7e" d="M 66.6214 51.9565L 66.6214 57.7215L 67.6214 57.7215L 67.6214 49.6245L 66.9534 49.6245C 66.5974 50.8665 66.3674 51.0385 64.7968 51.2336L 64.7968 51.9525L 66.6214 51.9565z"/>
<path style="stroke:none; fill-rule:evenodd; fill:#7e7e7e" d="M 70.9764 60.1595C 72.1054 58.6516 72.8164 56.5575 72.8164 54.7535C 72.8164 52.9366 72.1054 50.8436 70.9764 49.3315L 70.3594 49.3315C 71.3634 50.9796 71.9214 52.9095 71.9214 54.7535C 71.9214 56.5815 71.3634 58.5266 70.3594 60.1595L 70.9764 60.1595z"/>
<path style="stroke:none; fill-rule:evenodd; fill:#000000" d="M 54.4531 54.7255L 52.125 54.7255L 52.125 52.3855L 51.3281 52.3855L 51.3281 54.7255L 48.9023 54.7255L 48.9023 55.5226L 51.3281 55.5226L 51.3281 57.9366L 52.125 57.9366L 52.125 55.5226L 54.4531 55.5226L 54.4531 54.7255z"/>
<path style="stroke:none; fill-rule:evenodd; fill:#000000" d="M 144.281 28.6245L 142.527 32.9445L 143.316 32.9445L 144.703 29.5345L 146.101 32.9445L 146.89 32.9445L 145.113 28.6245L 144.281 28.6245z"/>
<path style="stroke:none; fill-rule:evenodd; fill:#000000" d="M 138.75 34.7766L 137.476 38.7296L 137.132 36.9605C 136.789 35.2025 136.421 34.6285 135.652 34.6285C 135.308 34.6285 135 34.7885 134.816 35.0535C 134.566 35.4095 134.507 35.6985 134.484 36.6675L 134.484 36.8156L 134.734 36.8156C 134.753 36.4955 134.777 36.3156 134.824 36.1476C 134.949 35.7645 135.222 35.5266 135.554 35.5266C 135.863 35.5266 136.082 35.7215 136.296 36.1945C 136.57 36.7925 136.867 37.8465 136.984 38.7025L 137.121 39.6595C 137.089 39.7726 136.961 40.1436 136.742 40.7686C 136.515 41.4016 136.445 41.7375 136.445 42.1326C 136.445 42.6756 136.683 43.0305 137.05 43.0305C 137.519 43.0305 137.828 42.4445 137.828 41.5266C 137.828 41.1716 137.773 40.6205 137.636 39.7576L 139.964 34.7726L 138.75 34.7766z"/>
<path style="stroke:none; fill-rule:evenodd; fill:#000000" d="M 140.55 54.7255L 138.222 54.7255L 138.222 52.3855L 137.425 52.3855L 137.425 54.7255L 135 54.7255L 135 55.5226L 137.425 55.5226L 137.425 57.9366L 138.222 57.9366L 138.222 55.5226L 140.55 55.5226L 140.55 54.7255z"/>
<path style="stroke:none; fill-rule:evenodd; fill:#7e7e7e" d="M 142.82 51.6985L 142.82 57.7215L 143.82 57.7215L 143.82 54.5896C 143.82 53.7255 144.031 53.1635 144.48 52.8275C 144.769 52.6086 145.05 52.5425 145.703 52.5305L 145.703 51.5656C 145.546 51.5466 145.468 51.5345 145.343 51.5345C 144.734 51.5345 144.269 51.9016 143.722 52.7966L 143.722 51.7065L 142.82 51.6985z"/>
<path style="stroke:none; fill-rule:evenodd; fill:#7e7e7e" d="M 148.546 49.3235C 147.429 50.8315 146.722 52.9256 146.722 54.7336C 146.722 56.5506 147.425 58.6436 148.546 60.1516L 149.16 60.1516C 148.171 58.5076 147.621 56.5735 147.621 54.7336C 147.621 52.9055 148.171 50.9605 149.16 49.3235L 148.546 49.3235z"/>
<path style="stroke:none; fill-rule:evenodd; fill:#7e7e7e" d="M 155.464 56.7255L 151.238 56.7255C 151.339 56.0656 151.703 55.6436 152.687 55.0616L 153.82 54.4485C 154.941 53.8355 155.519 52.9995 155.519 52.0076C 155.519 51.3355 155.25 50.7065 154.773 50.2726C 154.3 49.8396 153.711 49.6355 152.949 49.6355C 151.929 49.6355 151.171 49.9955 150.73 50.6756C 150.449 51.1046 150.324 51.6005 150.3 52.4175L 151.3 52.4175C 151.332 51.8855 151.402 51.5616 151.539 51.3035C 151.8 50.8275 152.324 50.5345 152.925 50.5345C 153.835 50.5345 154.519 51.1825 154.519 52.0506C 154.519 52.6866 154.144 53.2336 153.425 53.6436L 152.378 54.2336C 150.695 55.1866 150.203 55.9525 150.113 57.7296L 155.464 57.7296L 155.464 56.7255z"/>
<path style="stroke:none; fill-rule:evenodd; fill:#7e7e7e" d="M 157.078 60.1595C 158.207 58.6516 158.918 56.5575 158.918 54.7535C 158.918 52.9366 158.207 50.8436 157.078 49.3315L 156.461 49.3315C 157.464 50.9796 158.023 52.9095 158.023 54.7535C 158.023 56.5815 157.464 58.5266 156.461 60.1595L 157.078 60.1595z"/>
<path style="stroke:#000000; stroke-width:1.9133; fill:none" d="M 76.9924 40.0035L 101.863 45.7415"/>
<path style="stroke:#000000; stroke-width:1.9133; fill:none" d="M 94.8394 42.1555L 101.863 45.7375L 93.9764 45.8785"/>
<path style="stroke:#000000; stroke-width:1.9133; fill:none" d="M 163.089 40.0035L 187.961 45.7415"/>
<path style="stroke:#000000; stroke-width:1.9133; fill:none" d="M 180.937 42.1555L 187.961 45.7375L 180.074 45.8785"/>
<path style="stroke:none; fill-rule:evenodd; fill:#000000" d="M 22.1211 50.1245L 25.0234 41.7255L 23.8906 41.7255L 21.5742 48.8396L 19.1211 41.7255L 17.9765 41.7255L 20.9804 50.1245L 22.1211 50.1245z"/>
<path style="stroke:none; fill-rule:evenodd; fill:#000000" d="M 28.0468 41.7255C 26.9296 43.2336 26.2226 45.3275 26.2226 47.1355C 26.2226 48.9525 26.9257 51.0466 28.0468 52.5535L 28.6601 52.5535C 27.6718 50.9095 27.1211 48.9755 27.1211 47.1355C 27.1211 45.3075 27.6718 43.3625 28.6601 41.7255L 28.0468 41.7255z"/>
<path style="stroke:none; fill-rule:evenodd; fill:#000000" d="M 32.2734 42.0266C 31.5195 42.0266 30.8359 42.3586 30.414 42.9256C 29.8906 43.6355 29.6289 44.7255 29.6289 46.2255C 29.6289 48.9646 30.539 50.4216 32.2773 50.4216C 33.9882 50.4216 34.9257 48.9686 34.9257 46.2966C 34.9257 44.7186 34.6757 43.6595 34.1406 42.9256C 33.7187 42.3505 33.0468 42.0266 32.2812 42.0266L 32.2734 42.0266zM 32.2734 42.9256C 33.375 42.9256 33.9218 44.0305 33.9218 46.2215C 33.9218 48.5385 33.3906 49.6205 32.25 49.6205C 31.1718 49.6205 30.625 48.4915 30.625 46.2576C 30.625 44.0226 31.1679 42.9256 32.2734 42.9256z"/>
<path style="stroke:none; fill-rule:evenodd; fill:#000000" d="M 36.5781 52.5575C 37.707 51.0506 38.4179 48.9565 38.4179 47.1516C 38.4179 45.3355 37.707 43.2415 36.5781 41.7296L 35.9609 41.7296C 36.9648 43.3785 37.5234 45.3075 37.5234 47.1516C 37.5234 48.9796 36.9648 50.9256 35.9609 52.5575L 36.5781 52.5575z"/>
<path style="stroke:none; fill-rule:evenodd; fill:#000000" d="M 106.421 50.1245L 109.324 41.7255L 108.191 41.7255L 105.875 48.8396L 103.421 41.7255L 102.277 41.7255L 105.281 50.1245L 106.421 50.1245z"/>
<path style="stroke:none; fill-rule:evenodd; fill:#000000" d="M 112.246 41.7255C 111.128 43.2336 110.421 45.3275 110.421 47.1355C 110.421 48.9525 111.125 51.0466 112.246 52.5535L 112.859 52.5535C 111.871 50.9095 111.32 48.9755 111.32 47.1355C 111.32 45.3075 111.871 43.3625 112.859 41.7255L 112.246 41.7255z"/>
<path style="stroke:none; fill-rule:evenodd; fill:#000000" d="M 116.32 44.3546L 116.32 50.1205L 117.32 50.1205L 117.32 42.0226L 116.652 42.0226C 116.296 43.2645 116.066 43.4366 114.496 43.6326L 114.496 44.3505L 116.32 44.3546z"/>
<path style="stroke:none; fill-rule:evenodd; fill:#000000" d="M 120.777 52.5575C 121.906 51.0506 122.617 48.9565 122.617 47.1516C 122.617 45.3355 121.906 43.2415 120.777 41.7296L 120.16 41.7296C 121.164 43.3785 121.722 45.3075 121.722 47.1516C 121.722 48.9796 121.164 50.9256 120.16 52.5575L 120.777 52.5575z"/>
<path style="stroke:none; fill-rule:evenodd; fill:#5f5f5f" d="M 65.5429 87.804L 69.3674 87.804L 69.3674 76.3235L 65.5429 76.3235L 65.5429 87.804z"/>
<path style="stroke:#000000; stroke-width:0.95664899999999997; fill:none" d="M 65.5429 87.804L 69.3674 87.804L 69.3674 76.3235L 65.5429 76.3235L 65.5429 87.804z"/>
<path style="stroke:#000000; stroke-dasharray:6,3; stroke-width:2.8699499999999998; fill:none" d="M 153.523 82.0935L 210.921 15.1285"/>
<path style="stroke:none; fill-rule:evenodd; fill:#5f5f5f" d="M 149.73 87.804L 153.554 87.804L 153.554 76.3235L 149.73 76.3235L 149.73 87.804z"/>
<path style="stroke:#000000; stroke-width:0.95664899999999997; fill:none" d="M 149.73 87.804L 153.554 87.804L 153.554 76.3235L 149.73 76.3235L 149.73 87.804z"/>
<path style="stroke:none; fill-rule:evenodd; fill:#000000" d="M 25.4492 30.1245L 31.4609 30.1245L 31.4609 29.5266L 25.4492 29.5266L 25.4492 30.1245z"/>
<path style="stroke:none; fill-rule:evenodd; fill:#000000" d="M 65.2226 26.7065L 64.625 26.7065L 64.625 29.4256L 61.8437 29.4256L 61.8437 30.0226L 64.625 30.0226L 64.625 32.8195L 65.2226 32.8195L 65.2226 30.0226L 67.9104 30.0226L 67.9104 29.4256L 65.2226 29.4256L 65.2226 26.7065z"/>
<path style="stroke:none; fill-rule:evenodd; fill:#000000" d="M 109.648 125.824L 115.66 125.824L 115.66 125.226L 109.648 125.226L 109.648 125.824z"/>
<path style="stroke:none; fill-rule:evenodd; fill:#000000" d="M 149.421 122.406L 148.824 122.406L 148.824 125.124L 146.043 125.124L 146.043 125.722L 148.824 125.722L 148.824 128.519L 149.421 128.519L 149.421 125.722L 152.109 125.722L 152.109 125.124L 149.421 125.124L 149.421 122.406z"/>
<path style="stroke:#000000; stroke-width:1.9133; fill:none" d="M 65.5117 24.6945C 65.5117 24.6945 65.5117 24.6945 63.9179 22.1436C 62.3242 19.5936 59.1367 14.4915 54.0351 11.9406C 48.9336 9.38954 41.9179 9.38954 36.8164 11.9406C 31.7148 14.4915 28.5273 19.5936 26.9336 22.1436C 25.3398 24.6945 25.3398 24.6945 25.3398 24.6945"/>
<path style="stroke:#000000; stroke-width:1.9133; fill:none" d="M 31.0117 19.2186L 25.3359 24.6906L 27.7695 17.1866"/>
<path style="stroke:none; fill-rule:evenodd; fill:#ffffff" d="M 40.6367 17.0305L 50.2031 17.0305L 50.2031 3.63954L 40.6367 3.63954L 40.6367 17.0305z"/>
<path style="stroke:#ffffff; stroke-width:0.0; fill:none" d="M 40.6367 17.0305L 50.2031 17.0305L 50.2031 3.63954L 40.6367 3.63954L 40.6367 17.0305z"/>
<path style="stroke:none; fill-rule:evenodd; fill:#000000" d="M 45.9492 7.19455C 45.2695 7.40955 44.8789 7.58154 44.4843 7.85054C 43.6211 8.45255 43.125 9.39355 43.125 10.3976C 43.125 11.9915 44.375 13.3195 45.8867 13.3195C 47.5273 13.3195 48.9218 11.8116 48.9218 10.0506C 48.9218 9.19855 48.6328 8.36655 48.0898 7.71455C 47.6289 7.15555 47.4179 6.99554 46.2304 6.27255C 45.0039 5.51454 44.5273 5.04655 44.5273 4.61655C 44.5273 4.17854 44.9531 3.83154 45.4726 3.83154C 45.9492 3.83154 46.2422 3.97154 46.7382 4.46054C 47.2812 4.99954 47.4687 5.11655 47.8007 5.11655C 48.1601 5.11655 48.4257 4.86655 48.4257 4.54655C 48.4257 3.82755 47.2578 3.22955 45.8476 3.22955C 44.5859 3.22955 43.8203 3.73755 43.8203 4.55354C 43.8203 5.03455 44.0351 5.42555 44.625 5.97554L 45.9492 7.19455zM 46.3164 7.52655C 47.1992 8.37854 47.6211 9.32755 47.6211 10.4915C 47.6211 11.8156 47.0039 12.7215 46.0781 12.7215C 45.1562 12.7215 44.5234 11.6675 44.5234 10.1125C 44.5234 8.65155 45.1172 7.78455 46.3164 7.52655z"/>
<path style="stroke:#000000; stroke-width:1.9133; fill:none" d="M 149.699 24.6945C 149.699 24.6945 149.699 24.6945 148.105 22.1436C 146.511 19.5936 143.324 14.4915 138.222 11.9406C 133.121 9.38954 126.105 9.38954 121.003 11.9406C 115.902 14.4915 112.714 19.5936 111.121 22.1436C 109.527 24.6945 109.527 24.6945 109.527 24.6945"/>
<path style="stroke:#000000; stroke-width:1.9133; fill:none" d="M 115.195 19.2186L 109.519 24.6906L 111.953 17.1866"/>
<path style="stroke:none; fill-rule:evenodd; fill:#ffffff" d="M 124.824 17.0305L 134.39 17.0305L 134.39 3.63954L 124.824 3.63954L 124.824 17.0305z"/>
<path style="stroke:#ffffff; stroke-width:0.0; fill:none" d="M 124.824 17.0305L 134.39 17.0305L 134.39 3.63954L 124.824 3.63954L 124.824 17.0305z"/>
<path style="stroke:none; fill-rule:evenodd; fill:#000000" d="M 130.152 7.19455C 129.472 7.40955 129.082 7.58154 128.687 7.85054C 127.824 8.45255 127.328 9.39355 127.328 10.3976C 127.328 11.9915 128.578 13.3195 130.089 13.3195C 131.73 13.3195 133.125 11.8116 133.125 10.0506C 133.125 9.19855 132.835 8.36655 132.293 7.71455C 131.832 7.15555 131.621 6.99554 130.433 6.27255C 129.207 5.51454 128.73 5.04655 128.73 4.61655C 128.73 4.17854 129.156 3.83154 129.675 3.83154C 130.152 3.83154 130.445 3.97154 130.941 4.46054C 131.484 4.99954 131.671 5.11655 132.003 5.11655C 132.363 5.11655 132.628 4.86655 132.628 4.54655C 132.628 3.82755 131.461 3.22955 130.05 3.22955C 128.789 3.22955 128.023 3.73755 128.023 4.55354C 128.023 5.03455 128.238 5.42555 128.828 5.97554L 130.152 7.19455zM 130.515 7.52655C 131.398 8.37854 131.82 9.32755 131.82 10.4915C 131.82 11.8156 131.203 12.7215 130.277 12.7215C 129.355 12.7215 128.722 11.6675 128.722 10.1125C 128.722 8.65155 129.316 7.78455 130.515 7.52655z"/>
<path style="stroke:none; fill-rule:evenodd; fill:#ffffff" d="M 178.398 64.8745L 214.75 64.8745L 214.75 26.6086L 178.398 26.6086L 178.398 64.8745z"/>
<path style="stroke:#000000; stroke-width:1.9133; fill:none" d="M 178.398 64.8745L 214.75 64.8745L 214.75 26.6086L 178.398 26.6086L 178.398 64.8745z"/>
<path style="stroke:none; fill-rule:evenodd; fill:#ffffff" d="M 214.75 64.8745L 251.101 64.8745L 251.101 26.6086L 214.75 26.6086L 214.75 64.8745z"/>
<path style="stroke:#000000; stroke-width:1.9133; fill:none" d="M 214.75 64.8745L 251.101 64.8745L 251.101 26.6086L 214.75 26.6086L 214.75 64.8745z"/>
<path style="stroke:none; fill-rule:evenodd; fill:#000000" d="M 228.82 42.4256L 231.722 34.0266L 230.589 34.0266L 228.273 41.1395L 225.82 34.0266L 224.675 34.0266L 227.679 42.4256L 228.82 42.4256z"/>
<path style="stroke:none; fill-rule:evenodd; fill:#000000" d="M 234.746 34.0266C 233.628 35.5345 232.921 37.6285 232.921 39.4366C 232.921 41.2535 233.625 43.3465 234.746 44.8546L 235.359 44.8546C 234.371 43.2105 233.82 41.2766 233.82 39.4366C 233.82 37.6086 234.371 35.6635 235.359 34.0266L 234.746 34.0266z"/>
<path style="stroke:none; fill-rule:evenodd; fill:#000000" d="M 238.359 38.7255L 238.914 38.7255C 240.039 38.7255 240.617 39.2296 240.617 40.1985C 240.617 41.2146 239.984 41.8195 238.921 41.8195C 237.816 41.8195 237.273 41.2616 237.203 40.0575L 236.187 40.0575C 236.23 40.7186 236.347 41.1516 236.539 41.5226C 236.949 42.3116 237.753 42.7186 238.863 42.7186C 240.535 42.7186 241.613 41.7215 241.613 40.1825C 241.613 39.1516 241.214 38.5775 240.246 38.2455C 241.023 37.9485 241.414 37.3745 241.414 36.5616C 241.414 35.1635 240.48 34.3275 238.921 34.3275C 237.273 34.3275 236.394 35.2065 236.359 36.9135L 237.382 36.9135C 237.394 36.4366 237.437 36.1716 237.566 35.9256C 237.796 35.4915 238.308 35.2255 238.953 35.2255C 239.859 35.2255 240.41 35.7415 240.41 36.5815C 240.41 37.1395 240.199 37.4755 239.734 37.6555C 239.453 37.7645 239.085 37.8116 238.347 37.8235L 238.359 38.7255z"/>
<path style="stroke:none; fill-rule:evenodd; fill:#000000" d="M 243.277 44.8586C 244.406 43.3505 245.117 41.2576 245.117 39.4525C 245.117 37.6355 244.406 35.5425 243.277 34.0305L 242.66 34.0305C 243.664 35.6785 244.222 37.6086 244.222 39.4525C 244.222 41.2805 243.664 43.2255 242.66 44.8586L 243.277 44.8586z"/>
<path style="stroke:none; fill-rule:evenodd; fill:#000000" d="M 213.457 134.425L 214.011 134.425C 215.136 134.425 215.714 134.929 215.714 135.898C 215.714 136.913 215.082 137.519 214.019 137.519C 212.914 137.519 212.371 136.96 212.3 135.757L 211.285 135.757C 211.328 136.417 211.445 136.851 211.636 137.222C 212.046 138.011 212.851 138.417 213.961 138.417C 215.632 138.417 216.711 137.421 216.711 135.882C 216.711 134.851 216.312 134.277 215.343 133.945C 216.121 133.648 216.511 133.074 216.511 132.261C 216.511 130.863 215.578 130.027 214.019 130.027C 212.371 130.027 211.492 130.906 211.457 132.613L 212.48 132.613C 212.492 132.136 212.535 131.87 212.664 131.624C 212.894 131.191 213.406 130.925 214.05 130.925C 214.957 130.925 215.507 131.441 215.507 132.281C 215.507 132.839 215.296 133.175 214.832 133.355C 214.55 133.464 214.183 133.511 213.445 133.523L 213.457 134.425z"/>
<path style="stroke:#000000; stroke-width:1.9133; fill:none" d="M 178.464 120.343L 214.828 120.343L 214.828 91.636L 178.464 91.636L 178.464 120.343z"/>
<path style="stroke:#000000; stroke-width:1.9133; fill:none" d="M 214.828 120.347L 251.191 120.347L 251.191 91.6399L 214.828 91.6399L 214.828 120.347z"/>
<path style="stroke:#000000; stroke-width:1.9133; fill:none" d="M 233.929 91.6555L 233.929 64.8705"/>
<path style="stroke:#000000; stroke-width:1.9133; fill:none" d="M 232.015 72.5225L 233.925 64.8705L 235.835 72.5225"/>
<path style="stroke:none; fill-rule:evenodd; fill:#000000" d="M 196.222 101.324L 202.019 101.324L 202.019 100.527L 196.222 100.527L 196.222 101.324z"/>
<path style="stroke:none; fill-rule:evenodd; fill:#000000" d="M 196.359 107.527L 196.914 107.527C 198.039 107.527 198.617 108.031 198.617 108.999C 198.617 110.015 197.984 110.62 196.921 110.62C 195.816 110.62 195.273 110.062 195.203 108.859L 194.187 108.859C 194.23 109.519 194.347 109.952 194.539 110.324C 194.949 111.113 195.753 111.519 196.863 111.519C 198.535 111.519 199.613 110.523 199.613 108.984C 199.613 107.952 199.214 107.378 198.246 107.046C 199.023 106.749 199.414 106.175 199.414 105.363C 199.414 103.964 198.48 103.128 196.921 103.128C 195.273 103.128 194.394 104.007 194.359 105.714L 195.382 105.714C 195.394 105.238 195.437 104.972 195.566 104.726C 195.796 104.292 196.308 104.027 196.953 104.027C 197.859 104.027 198.41 104.542 198.41 105.382C 198.41 105.941 198.199 106.277 197.734 106.456C 197.453 106.566 197.085 106.613 196.347 106.624L 196.359 107.527z"/>
<path style="stroke:none; fill-rule:evenodd; fill:#000000" d="M 238.152 100.527L 235.824 100.527L 235.824 98.1868L 235.027 98.1868L 235.027 100.527L 232.601 100.527L 232.601 101.324L 235.027 101.324L 235.027 103.738L 235.824 103.738L 235.824 101.324L 238.152 101.324L 238.152 100.527z"/>
<path style="stroke:none; fill-rule:evenodd; fill:#000000" d="M 232.66 107.527L 233.214 107.527C 234.339 107.527 234.918 108.031 234.918 108.999C 234.918 110.015 234.285 110.62 233.222 110.62C 232.117 110.62 231.574 110.062 231.503 108.859L 230.488 108.859C 230.531 109.519 230.648 109.952 230.839 110.324C 231.25 111.113 232.054 111.519 233.164 111.519C 234.835 111.519 235.914 110.523 235.914 108.984C 235.914 107.952 235.515 107.378 234.546 107.046C 235.324 106.749 235.714 106.175 235.714 105.363C 235.714 103.964 234.781 103.128 233.222 103.128C 231.574 103.128 230.695 104.007 230.66 105.714L 231.683 105.714C 231.695 105.238 231.738 104.972 231.867 104.726C 232.097 104.292 232.609 104.027 233.253 104.027C 234.16 104.027 234.711 104.542 234.711 105.382C 234.711 105.941 234.5 106.277 234.035 106.456C 233.753 106.566 233.386 106.613 232.648 106.624L 232.66 107.527z"/>
<path style="stroke:none; fill-rule:evenodd; fill:#000000" d="M 190.281 36.2255L 188.527 40.5466L 189.316 40.5466L 190.703 37.1355L 192.101 40.5466L 192.89 40.5466L 191.113 36.2255L 190.281 36.2255z"/>
<path style="stroke:none; fill-rule:evenodd; fill:#000000" d="M 228.484 28.6245L 226.73 32.9445L 227.519 32.9445L 228.906 29.5345L 230.304 32.9445L 231.093 32.9445L 229.316 28.6245L 228.484 28.6245z"/>
<path style="stroke:none; fill-rule:evenodd; fill:#000000" d="M 222.949 34.7766L 221.675 38.7296L 221.332 36.9605C 220.988 35.2025 220.621 34.6285 219.851 34.6285C 219.507 34.6285 219.199 34.7885 219.015 35.0535C 218.765 35.4095 218.707 35.6985 218.683 36.6675L 218.683 36.8156L 218.933 36.8156C 218.953 36.4955 218.976 36.3156 219.023 36.1476C 219.148 35.7645 219.421 35.5266 219.753 35.5266C 220.062 35.5266 220.281 35.7215 220.496 36.1945C 220.769 36.7925 221.066 37.8465 221.183 38.7025L 221.32 39.6595C 221.289 39.7726 221.16 40.1436 220.941 40.7686C 220.714 41.4016 220.644 41.7375 220.644 42.1326C 220.644 42.6756 220.882 43.0305 221.25 43.0305C 221.718 43.0305 222.027 42.4445 222.027 41.5266C 222.027 41.1716 221.972 40.6205 221.835 39.7576L 224.164 34.7726L 222.949 34.7766z"/>
<path style="stroke:none; fill-rule:evenodd; fill:#000000" d="M 224.75 54.7255L 222.421 54.7255L 222.421 52.3855L 221.625 52.3855L 221.625 54.7255L 219.199 54.7255L 219.199 55.5226L 221.625 55.5226L 221.625 57.9366L 222.421 57.9366L 222.421 55.5226L 224.75 55.5226L 224.75 54.7255z"/>
<path style="stroke:none; fill-rule:evenodd; fill:#7e7e7e" d="M 227.023 51.6985L 227.023 57.7215L 228.023 57.7215L 228.023 54.5896C 228.023 53.7255 228.234 53.1635 228.683 52.8275C 228.972 52.6086 229.253 52.5425 229.906 52.5305L 229.906 51.5656C 229.75 51.5466 229.671 51.5345 229.546 51.5345C 228.937 51.5345 228.472 51.9016 227.925 52.7966L 227.925 51.7065L 227.023 51.6985z"/>
<path style="stroke:none; fill-rule:evenodd; fill:#7e7e7e" d="M 232.746 49.3235C 231.628 50.8315 230.921 52.9256 230.921 54.7336C 230.921 56.5506 231.625 58.6436 232.746 60.1516L 233.359 60.1516C 232.371 58.5076 231.82 56.5735 231.82 54.7336C 231.82 52.9055 232.371 50.9605 233.359 49.3235L 232.746 49.3235z"/>
<path style="stroke:none; fill-rule:evenodd; fill:#7e7e7e" d="M 236.359 54.0266L 236.914 54.0266C 238.039 54.0266 238.617 54.5305 238.617 55.4995C 238.617 56.5145 237.984 57.1205 236.921 57.1205C 235.816 57.1205 235.273 56.5616 235.203 55.3586L 234.187 55.3586C 234.23 56.0186 234.347 56.4525 234.539 56.8235C 234.949 57.6125 235.753 58.0186 236.863 58.0186C 238.535 58.0186 239.613 57.0226 239.613 55.4836C 239.613 54.4525 239.214 53.8785 238.246 53.5466C 239.023 53.2495 239.414 52.6756 239.414 51.8625C 239.414 50.4646 238.48 49.6285 236.921 49.6285C 235.273 49.6285 234.394 50.5076 234.359 52.2146L 235.382 52.2146C 235.394 51.7375 235.437 51.4715 235.566 51.2255C 235.796 50.7925 236.308 50.5266 236.953 50.5266C 237.859 50.5266 238.41 51.0425 238.41 51.8826C 238.41 52.4406 238.199 52.7766 237.734 52.9565C 237.453 53.0656 237.085 53.1125 236.347 53.1245L 236.359 54.0266z"/>
<path style="stroke:none; fill-rule:evenodd; fill:#7e7e7e" d="M 241.277 60.1595C 242.406 58.6516 243.117 56.5575 243.117 54.7535C 243.117 52.9366 242.406 50.8436 241.277 49.3315L 240.66 49.3315C 241.664 50.9796 242.222 52.9095 242.222 54.7535C 242.222 56.5815 241.664 58.5266 240.66 60.1595L 241.277 60.1595z"/>
<path style="stroke:none; fill-rule:evenodd; fill:#ffffff" d="M 176.48 82.0855L 186.046 82.0855L 186.046 68.6945L 176.48 68.6945L 176.48 82.0855z"/>
<path style="stroke:#ffffff; stroke-width:0.0; fill:none" d="M 176.48 82.0855L 186.046 82.0855L 186.046 68.6945L 176.48 68.6945L 176.48 82.0855z"/>
<path style="stroke:none; fill-rule:evenodd; fill:#000000" d="M 193.847 125.824L 199.859 125.824L 199.859 125.226L 193.847 125.226L 193.847 125.824z"/>
<path style="stroke:none; fill-rule:evenodd; fill:#000000" d="M 233.523 122.406L 232.925 122.406L 232.925 125.124L 230.144 125.124L 230.144 125.722L 232.925 125.722L 232.925 128.519L 233.523 128.519L 233.523 125.722L 236.211 125.722L 236.211 125.124L 233.523 125.124L 233.523 122.406z"/>
<path style="stroke:none; fill-rule:evenodd; fill:#000000" d="M 190.621 50.1245L 193.523 41.7255L 192.39 41.7255L 190.074 48.8396L 187.621 41.7255L 186.476 41.7255L 189.48 50.1245L 190.621 50.1245z"/>
<path style="stroke:none; fill-rule:evenodd; fill:#000000" d="M 196.445 41.7255C 195.328 43.2336 194.621 45.3275 194.621 47.1355C 194.621 48.9525 195.324 51.0466 196.445 52.5535L 197.058 52.5535C 196.07 50.9095 195.519 48.9755 195.519 47.1355C 195.519 45.3075 196.07 43.3625 197.058 41.7255L 196.445 41.7255z"/>
<path style="stroke:none; fill-rule:evenodd; fill:#000000" d="M 203.363 49.1245L 199.136 49.1245C 199.238 48.4646 199.601 48.0425 200.585 47.4605L 201.718 46.8465C 202.839 46.2336 203.418 45.3976 203.418 44.4055C 203.418 43.7336 203.148 43.1046 202.671 42.6716C 202.199 42.2375 201.609 42.0345 200.847 42.0345C 199.828 42.0345 199.07 42.3936 198.628 43.0735C 198.347 43.5035 198.222 43.9995 198.199 44.8156L 199.199 44.8156C 199.23 44.2845 199.3 43.9605 199.437 43.7025C 199.699 43.2255 200.222 42.9325 200.824 42.9325C 201.734 42.9325 202.418 43.5815 202.418 44.4485C 202.418 45.0855 202.043 45.6326 201.324 46.0425L 200.277 46.6326C 198.593 47.5855 198.101 48.3505 198.011 50.1285L 203.363 50.1285L 203.363 49.1245z"/>
<path style="stroke:none; fill-rule:evenodd; fill:#000000" d="M 204.976 52.5575C 206.105 51.0506 206.816 48.9565 206.816 47.1516C 206.816 45.3355 206.105 43.2415 204.976 41.7296L 204.359 41.7296C 205.363 43.3785 205.921 45.3075 205.921 47.1516C 205.921 48.9796 205.363 50.9256 204.359 52.5575L 204.976 52.5575z"/>
<path style="stroke:#000000; stroke-width:1.9133; fill:none" d="M 233.882 24.6945C 233.882 24.6945 233.882 24.6945 232.289 22.1436C 230.695 19.5936 227.507 14.4915 222.406 11.9406C 217.304 9.38954 210.289 9.38954 205.187 11.9406C 200.085 14.4915 196.898 19.5936 195.304 22.1436C 193.711 24.6945 193.711 24.6945 193.711 24.6945"/>
<path style="stroke:#000000; stroke-width:1.9133; fill:none" d="M 199.382 19.2186L 193.707 24.6906L 196.14 17.1866"/>
<path style="stroke:none; fill-rule:evenodd; fill:#ffffff" d="M 209.007 17.0305L 218.574 17.0305L 218.574 3.63954L 209.007 3.63954L 209.007 17.0305z"/>
<path style="stroke:#ffffff; stroke-width:0.0; fill:none" d="M 209.007 17.0305L 218.574 17.0305L 218.574 3.63954L 209.007 3.63954L 209.007 17.0305z"/>
<path style="stroke:none; fill-rule:evenodd; fill:#000000" d="M 214.351 7.19455C 213.671 7.40955 213.281 7.58154 212.886 7.85054C 212.023 8.45255 211.527 9.39355 211.527 10.3976C 211.527 11.9915 212.777 13.3195 214.289 13.3195C 215.929 13.3195 217.324 11.8116 217.324 10.0506C 217.324 9.19855 217.035 8.36655 216.492 7.71455C 216.031 7.15555 215.82 6.99554 214.632 6.27255C 213.406 5.51454 212.929 5.04655 212.929 4.61655C 212.929 4.17854 213.355 3.83154 213.875 3.83154C 214.351 3.83154 214.644 3.97154 215.14 4.46054C 215.683 4.99954 215.871 5.11655 216.203 5.11655C 216.562 5.11655 216.828 4.86655 216.828 4.54655C 216.828 3.82755 215.66 3.22955 214.25 3.22955C 212.988 3.22955 212.222 3.73755 212.222 4.55354C 212.222 5.03455 212.437 5.42555 213.027 5.97554L 214.351 7.19455zM 214.714 7.52655C 215.597 8.37854 216.019 9.32755 216.019 10.4915C 216.019 11.8156 215.402 12.7215 214.476 12.7215C 213.554 12.7215 212.921 11.6675 212.921 10.1125C 212.921 8.65155 213.515 7.78455 214.714 7.52655z"/>
<path style="stroke:none; fill-rule:evenodd; fill:#000000" d="M 144.621 42.4256L 147.523 34.0266L 146.39 34.0266L 144.074 41.1395L 141.621 34.0266L 140.476 34.0266L 143.48 42.4256L 144.621 42.4256z"/>
<path style="stroke:none; fill-rule:evenodd; fill:#000000" d="M 150.546 34.0266C 149.429 35.5345 148.722 37.6285 148.722 39.4366C 148.722 41.2535 149.425 43.3465 150.546 44.8546L 151.16 44.8546C 150.171 43.2105 149.621 41.2766 149.621 39.4366C 149.621 37.6086 150.171 35.6635 151.16 34.0266L 150.546 34.0266z"/>
<path style="stroke:none; fill-rule:evenodd; fill:#000000" d="M 157.363 41.4256L 153.136 41.4256C 153.238 40.7645 153.601 40.3436 154.585 39.7616L 155.718 39.1476C 156.839 38.5345 157.418 37.6985 157.418 36.7065C 157.418 36.0345 157.148 35.4055 156.671 34.9715C 156.199 34.5385 155.609 34.3355 154.847 34.3355C 153.828 34.3355 153.07 34.6945 152.628 35.3745C 152.347 35.8035 152.222 36.3006 152.199 37.1165L 153.199 37.1165C 153.23 36.5855 153.3 36.2616 153.437 36.0035C 153.699 35.5266 154.222 35.2336 154.824 35.2336C 155.734 35.2336 156.418 35.8826 156.418 36.7495C 156.418 37.3855 156.043 37.9325 155.324 38.3436L 154.277 38.9325C 152.593 39.8855 152.101 40.6516 152.011 42.4285L 157.363 42.4285L 157.363 41.4256z"/>
<path style="stroke:none; fill-rule:evenodd; fill:#000000" d="M 159.078 44.8586C 160.207 43.3505 160.918 41.2576 160.918 39.4525C 160.918 37.6355 160.207 35.5425 159.078 34.0305L 158.461 34.0305C 159.464 35.6785 160.023 37.6086 160.023 39.4525C 160.023 41.2805 159.464 43.2255 158.461 44.8586L 159.078 44.8586z"/>
<path style="stroke:#000000; stroke-width:1.9133; fill:none" d="M 262.652 120.343L 299.015 120.343L 299.015 91.636L 262.652 91.636L 262.652 120.343z"/>
<path style="stroke:#000000; stroke-width:1.9133; fill:none" d="M 299.011 120.347L 335.375 120.347L 335.375 91.6399L 299.011 91.6399L 299.011 120.347z"/>
<path style="stroke:#000000; stroke-width:1.9133; fill:none" d="M 318.117 91.6555L 318.117 64.8705"/>
<path style="stroke:#000000; stroke-width:1.9133; fill:none" d="M 316.203 72.5225L 318.113 64.8705L 320.023 72.5225"/>
<path style="stroke:none; fill-rule:evenodd; fill:#000000" d="M 280.421 101.324L 286.218 101.324L 286.218 100.527L 280.421 100.527L 280.421 101.324z"/>
<path style="stroke:none; fill-rule:evenodd; fill:#000000" d="M 322.351 100.527L 320.023 100.527L 320.023 98.1868L 319.226 98.1868L 319.226 100.527L 316.8 100.527L 316.8 101.324L 319.226 101.324L 319.226 103.738L 320.023 103.738L 320.023 101.324L 322.351 101.324L 322.351 100.527z"/>
<path style="stroke:none; fill-rule:evenodd; fill:#000000" d="M 274.484 36.2255L 272.73 40.5466L 273.519 40.5466L 274.906 37.1355L 276.304 40.5466L 277.093 40.5466L 275.316 36.2255L 274.484 36.2255z"/>
<path style="stroke:none; fill-rule:evenodd; fill:#7e7e7e" d="M 312.683 28.6245L 310.929 32.9445L 311.718 32.9445L 313.105 29.5345L 314.503 32.9445L 315.293 32.9445L 313.515 28.6245L 312.683 28.6245z"/>
<path style="stroke:none; fill-rule:evenodd; fill:#7e7e7e" d="M 307.05 34.7766L 305.777 38.7296L 305.433 36.9605C 305.089 35.2025 304.722 34.6285 303.953 34.6285C 303.609 34.6285 303.3 34.7885 303.117 35.0535C 302.867 35.4095 302.808 35.6985 302.785 36.6675L 302.785 36.8156L 303.035 36.8156C 303.054 36.4955 303.078 36.3156 303.125 36.1476C 303.25 35.7645 303.523 35.5266 303.855 35.5266C 304.164 35.5266 304.382 35.7215 304.597 36.1945C 304.871 36.7925 305.168 37.8465 305.285 38.7025L 305.421 39.6595C 305.39 39.7726 305.261 40.1436 305.043 40.7686C 304.816 41.4016 304.746 41.7375 304.746 42.1326C 304.746 42.6756 304.984 43.0305 305.351 43.0305C 305.82 43.0305 306.128 42.4445 306.128 41.5266C 306.128 41.1716 306.074 40.6205 305.937 39.7576L 308.265 34.7726L 307.05 34.7766z"/>
<path style="stroke:none; fill-rule:evenodd; fill:#000000" d="M 308.851 54.7255L 306.523 54.7255L 306.523 52.3855L 305.726 52.3855L 305.726 54.7255L 303.3 54.7255L 303.3 55.5226L 305.726 55.5226L 305.726 57.9366L 306.523 57.9366L 306.523 55.5226L 308.851 55.5226L 308.851 54.7255z"/>
<path style="stroke:none; fill-rule:evenodd; fill:#ffffff" d="M 260.668 82.0855L 270.234 82.0855L 270.234 68.6945L 260.668 68.6945L 260.668 82.0855z"/>
<path style="stroke:#ffffff; stroke-width:0.0; fill:none" d="M 260.668 82.0855L 270.234 82.0855L 270.234 68.6945L 260.668 68.6945L 260.668 82.0855z"/>
<path style="stroke:none; fill-rule:evenodd; fill:#000000" d="M 278.046 125.824L 284.058 125.824L 284.058 125.226L 278.046 125.226L 278.046 125.824z"/>
<path style="stroke:none; fill-rule:evenodd; fill:#000000" d="M 317.722 122.406L 317.125 122.406L 317.125 125.124L 314.343 125.124L 314.343 125.722L 317.125 125.722L 317.125 128.519L 317.722 128.519L 317.722 125.722L 320.41 125.722L 320.41 125.124L 317.722 125.124L 317.722 122.406z"/>
<path style="stroke:#000000; stroke-width:1.9133; fill:none" d="M 318.066 24.6945C 318.066 24.6945 318.066 24.6945 316.472 22.1436C 314.878 19.5936 311.691 14.4915 306.589 11.9406C 301.488 9.38954 294.472 9.38954 289.371 11.9406C 284.269 14.4915 281.082 19.5936 279.488 22.1436C 277.894 24.6945 277.894 24.6945 277.894 24.6945"/>
<path style="stroke:#000000; stroke-width:1.9133; fill:none" d="M 283.566 19.2186L 277.89 24.6906L 280.324 17.1866"/>
<path style="stroke:none; fill-rule:evenodd; fill:#ffffff" d="M 293.191 17.0305L 302.757 17.0305L 302.757 3.63954L 293.191 3.63954L 293.191 17.0305z"/>
<path style="stroke:#ffffff; stroke-width:0.0; fill:none" d="M 293.191 17.0305L 302.757 17.0305L 302.757 3.63954L 293.191 3.63954L 293.191 17.0305z"/>
<path style="stroke:none; fill-rule:evenodd; fill:#000000" d="M 298.55 7.19455C 297.871 7.40955 297.48 7.58154 297.085 7.85054C 296.222 8.45255 295.726 9.39355 295.726 10.3976C 295.726 11.9915 296.976 13.3195 298.488 13.3195C 300.128 13.3195 301.523 11.8116 301.523 10.0506C 301.523 9.19855 301.234 8.36655 300.691 7.71455C 300.23 7.15555 300.019 6.99554 298.832 6.27255C 297.605 5.51454 297.128 5.04655 297.128 4.61655C 297.128 4.17854 297.554 3.83154 298.074 3.83154C 298.55 3.83154 298.843 3.97154 299.339 4.46054C 299.882 4.99954 300.07 5.11655 300.402 5.11655C 300.761 5.11655 301.027 4.86655 301.027 4.54655C 301.027 3.82755 299.859 3.22955 298.449 3.22955C 297.187 3.22955 296.421 3.73755 296.421 4.55354C 296.421 5.03455 296.636 5.42555 297.226 5.97554L 298.55 7.19455zM 298.914 7.52655C 299.796 8.37854 300.218 9.32755 300.218 10.4915C 300.218 11.8156 299.601 12.7215 298.675 12.7215C 297.753 12.7215 297.121 11.6675 297.121 10.1125C 297.121 8.65155 297.714 7.78455 298.914 7.52655z"/>
<path style="stroke:none; fill-rule:evenodd; fill:#000000" d="M 274.82 50.1245L 277.722 41.7255L 276.589 41.7255L 274.273 48.8396L 271.82 41.7255L 270.675 41.7255L 273.679 50.1245L 274.82 50.1245z"/>
<path style="stroke:none; fill-rule:evenodd; fill:#000000" d="M 280.648 41.7255C 279.531 43.2336 278.824 45.3275 278.824 47.1355C 278.824 48.9525 279.527 51.0466 280.648 52.5535L 281.261 52.5535C 280.273 50.9095 279.722 48.9755 279.722 47.1355C 279.722 45.3075 280.273 43.3625 281.261 41.7255L 280.648 41.7255z"/>
<path style="stroke:none; fill-rule:evenodd; fill:#000000" d="M 284.257 46.4256L 284.812 46.4256C 285.937 46.4256 286.515 46.9285 286.515 47.8976C 286.515 48.9135 285.882 49.5186 284.82 49.5186C 283.714 49.5186 283.171 48.9605 283.101 47.7576L 282.085 47.7576C 282.128 48.4175 282.246 48.8505 282.437 49.2215C 282.847 50.0116 283.652 50.4175 284.761 50.4175C 286.433 50.4175 287.511 49.4216 287.511 47.8826C 287.511 46.8505 287.113 46.2766 286.144 45.9445C 286.921 45.6476 287.312 45.0735 287.312 44.2616C 287.312 42.8625 286.378 42.0266 284.82 42.0266C 283.171 42.0266 282.293 42.9055 282.257 44.6125L 283.281 44.6125C 283.293 44.1355 283.335 43.8705 283.464 43.6245C 283.695 43.1906 284.207 42.9256 284.851 42.9256C 285.757 42.9256 286.308 43.4406 286.308 44.2805C 286.308 44.8396 286.097 45.1756 285.632 45.3546C 285.351 45.4646 284.984 45.5116 284.246 45.5226L 284.257 46.4256z"/>
<path style="stroke:none; fill-rule:evenodd; fill:#000000" d="M 289.179 52.5575C 290.308 51.0506 291.019 48.9565 291.019 47.1516C 291.019 45.3355 290.308 43.2415 289.179 41.7296L 288.562 41.7296C 289.566 43.3785 290.125 45.3075 290.125 47.1516C 290.125 48.9796 289.566 50.9256 288.562 52.5575L 289.179 52.5575z"/>
<path style="stroke:none; fill-rule:evenodd; fill:#7e7e7e" d="M 313.023 42.4256L 315.925 34.0266L 314.793 34.0266L 312.476 41.1395L 310.023 34.0266L 308.878 34.0266L 311.882 42.4256L 313.023 42.4256z"/>
<path style="stroke:none; fill-rule:evenodd; fill:#7e7e7e" d="M 318.847 34.0266C 317.73 35.5345 317.023 37.6285 317.023 39.4366C 317.023 41.2535 317.726 43.3465 318.847 44.8546L 319.461 44.8546C 318.472 43.2105 317.921 41.2766 317.921 39.4366C 317.921 37.6086 318.472 35.6635 319.461 34.0266L 318.847 34.0266z"/>
<path style="stroke:none; fill-rule:evenodd; fill:#7e7e7e" d="M 323.82 40.4256L 323.82 42.4256L 324.82 42.4256L 324.82 40.4256L 325.988 40.4256L 325.988 39.5266L 324.82 39.5266L 324.82 34.3275L 324.07 34.3275L 320.347 39.3745L 320.347 40.4256L 323.82 40.4256zM 323.82 39.5266L 321.226 39.5266L 323.82 36.0116L 323.82 39.5266z"/>
<path style="stroke:none; fill-rule:evenodd; fill:#7e7e7e" d="M 327.378 44.8586C 328.507 43.3505 329.218 41.2576 329.218 39.4525C 329.218 37.6355 328.507 35.5425 327.378 34.0305L 326.761 34.0305C 327.765 35.6785 328.324 37.6086 328.324 39.4525C 328.324 41.2805 327.765 43.2255 326.761 44.8586L 327.378 44.8586z"/>
<path style="stroke:none; fill-rule:evenodd; fill:#000000" d="M 311.222 51.6985L 311.222 57.7215L 312.222 57.7215L 312.222 54.5896C 312.222 53.7255 312.433 53.1635 312.882 52.8275C 313.171 52.6086 313.453 52.5425 314.105 52.5305L 314.105 51.5656C 313.949 51.5466 313.871 51.5345 313.746 51.5345C 313.136 51.5345 312.671 51.9016 312.125 52.7966L 312.125 51.7065L 311.222 51.6985z"/>
<path style="stroke:none; fill-rule:evenodd; fill:#000000" d="M 316.945 49.3235C 315.828 50.8315 315.121 52.9256 315.121 54.7336C 315.121 56.5506 315.824 58.6436 316.945 60.1516L 317.558 60.1516C 316.57 58.5076 316.019 56.5735 316.019 54.7336C 316.019 52.9055 316.57 50.9605 317.558 49.3235L 316.945 49.3235z"/>
<path style="stroke:none; fill-rule:evenodd; fill:#000000" d="M 321.82 55.7255L 321.82 57.7255L 322.82 57.7255L 322.82 55.7255L 323.988 55.7255L 323.988 54.8275L 322.82 54.8275L 322.82 49.6285L 322.07 49.6285L 318.347 54.6756L 318.347 55.7255L 321.82 55.7255zM 321.82 54.8235L 319.226 54.8235L 321.82 51.3075L 321.82 54.8235z"/>
<path style="stroke:none; fill-rule:evenodd; fill:#000000" d="M 325.476 60.1595C 326.605 58.6516 327.316 56.5575 327.316 54.7535C 327.316 52.9366 326.605 50.8436 325.476 49.3315L 324.859 49.3315C 325.863 50.9796 326.421 52.9095 326.421 54.7535C 326.421 56.5815 325.863 58.5266 324.859 60.1595L 325.476 60.1595z"/>
<path style="stroke:none; fill-rule:evenodd; fill:#000000" d="M 318.121 109.226L 318.121 111.226L 319.121 111.226L 319.121 109.226L 320.289 109.226L 320.289 108.327L 319.121 108.327L 319.121 103.128L 318.371 103.128L 314.648 108.175L 314.648 109.226L 318.121 109.226zM 318.121 108.324L 315.527 108.324L 318.121 104.808L 318.121 108.324z"/>
<path style="stroke:none; fill-rule:evenodd; fill:#000000" d="M 281.722 109.226L 281.722 111.226L 282.722 111.226L 282.722 109.226L 283.89 109.226L 283.89 108.327L 282.722 108.327L 282.722 103.128L 281.972 103.128L 278.25 108.175L 278.25 109.226L 281.722 109.226zM 281.722 108.324L 279.128 108.324L 281.722 104.808L 281.722 108.324z"/>
<path style="stroke:none; fill-rule:evenodd; fill:#000000" d="M 298.921 136.124L 298.921 138.124L 299.921 138.124L 299.921 136.124L 301.089 136.124L 301.089 135.226L 299.921 135.226L 299.921 130.027L 299.171 130.027L 295.449 135.074L 295.449 136.124L 298.921 136.124zM 298.921 135.226L 296.328 135.226L 298.921 131.71L 298.921 135.226z"/>
<path style="stroke:#000000; stroke-width:1.9133; fill:none" d="M 25.332 149.058L 310.41 149.058"/>
<path style="stroke:#000000; stroke-width:1.9133; fill:none" d="M 302.761 147.148L 310.414 149.058L 302.761 150.968"/>
</g>
</svg>