<?xml version="1.0" encoding="UTF-8" standalone="no"?>
<svg
  xmlns="http://www.w3.org/2000/svg" version="1.1"
  width="400px"
  height="400px"
  viewBox="0 0 1000.0 1000.0">
<path stroke="#000000" stroke-width="2" fill="none"
  d="M 236.5,754.9 L 236.5,221.1 L 770.2,221.1 L 770.2,754.9 L 236.5,754.9 "
 />

<g>

<text x="267.9" y="800.2" font-family="Arial" font-size="27.0" fill="#000000" text-anchor="middle">
-3
</text>

<text x="424.8" y="800.2" font-family="Arial" font-size="27.0" fill="#000000" text-anchor="middle">
-2
</text>

<text x="581.8" y="800.2" font-family="Arial" font-size="27.0" fill="#000000" text-anchor="middle">
-1
</text>

<text x="738.8" y="800.2" font-family="Arial" font-size="27.0" fill="#000000" text-anchor="middle">
0
</text>
<path stroke="#000000" stroke-width="2" fill="none"
  d="M 236.5,754.9 L 770.2,754.9 M 267.9,768.2 L 267.9,741.5 M 424.8,768.2 L 424.8,741.5 M 581.8,768.2 L 581.8,741.5 M 738.8,768.2 L 738.8,741.5 "
 />
<path stroke="#000000" stroke-width="2" fill="none"
  d="M 236.5,221.1 L 770.2,221.1 M 267.9,234.5 L 267.9,207.8 M 424.8,234.5 L 424.8,207.8 M 581.8,234.5 L 581.8,207.8 M 738.8,234.5 L 738.8,207.8 "
 />

<text x="217.8" y="765.5" font-family="Arial" font-size="27.0" fill="#000000" text-anchor="end">
0
</text>

<text x="217.8" y="706.2" font-family="Arial" font-size="27.0" fill="#000000" text-anchor="end">
10
</text>

<text x="217.8" y="646.9" font-family="Arial" font-size="27.0" fill="#000000" text-anchor="end">
20
</text>

<text x="217.8" y="587.6" font-family="Arial" font-size="27.0" fill="#000000" text-anchor="end">
30
</text>

<text x="217.8" y="528.3" font-family="Arial" font-size="27.0" fill="#000000" text-anchor="end">
40
</text>

<text x="217.8" y="469.0" font-family="Arial" font-size="27.0" fill="#000000" text-anchor="end">
50
</text>

<text x="217.8" y="409.7" font-family="Arial" font-size="27.0" fill="#000000" text-anchor="end">
60
</text>

<text x="217.8" y="350.4" font-family="Arial" font-size="27.0" fill="#000000" text-anchor="end">
70
</text>

<text x="217.8" y="291.1" font-family="Arial" font-size="27.0" fill="#000000" text-anchor="end">
80
</text>

<text x="217.8" y="231.8" font-family="Arial" font-size="27.0" fill="#000000" text-anchor="end">
90
</text>
<path stroke="#000000" stroke-width="2" fill="none"
  d="M 236.5,754.9 L 236.5,221.1 M 223.1,754.9 L 249.8,754.9 M 223.1,695.6 L 249.8,695.6 M 223.1,636.3 L 249.8,636.3 M 223.1,577.0 L 249.8,577.0 M 223.1,517.6 L 249.8,517.6 M 223.1,458.3 L 249.8,458.3 M 223.1,399.0 L 249.8,399.0 M 223.1,339.7 L 249.8,339.7 M 223.1,280.4 L 249.8,280.4 M 223.1,221.1 L 249.8,221.1 "
 />
<path stroke="#000000" stroke-width="2" fill="none"
  d="M 770.2,754.9 L 770.2,221.1 M 756.9,754.9 L 783.6,754.9 M 756.9,695.6 L 783.6,695.6 M 756.9,636.3 L 783.6,636.3 M 756.9,577.0 L 783.6,577.0 M 756.9,517.6 L 783.6,517.6 M 756.9,458.3 L 783.6,458.3 M 756.9,399.0 L 783.6,399.0 M 756.9,339.7 L 783.6,339.7 M 756.9,280.4 L 783.6,280.4 M 756.9,221.1 L 783.6,221.1 "
 />

</g>

<g transform="translate(0.0,-593.0)">

<g transform="translate(0.0,-0.0)">
<path stroke="#000000" stroke-width="2" fill="none"
  d="M 236.5,754.9 L 268.5,754.9 "
 />

<text x="273.8" y="765.5" font-family="Arial" font-size="21.6" fill="#000000" text-anchor="start">
SS
</text>

</g>

<g transform="translate(80.9,-0.0)">
<path stroke="#ff0000" stroke-width="2" fill="none"
  d="M 236.5,754.9 L 268.5,754.9 "
 />

<text x="273.8" y="765.5" font-family="Arial" font-size="21.6" fill="#ff0000" text-anchor="start">
SC
</text>

</g>

<g transform="translate(161.7,-0.0)">
<path stroke="#0000ff" stroke-width="2" fill="none"
  d="M 236.5,754.9 L 268.5,754.9 "
 />

<text x="273.8" y="765.5" font-family="Arial" font-size="21.6" fill="#0000ff" text-anchor="start">
MS
</text>

</g>

<g transform="translate(242.6,-0.0)">
<path stroke="#218b21" stroke-width="2" fill="none"
  d="M 236.5,754.9 L 268.5,754.9 "
 />

<text x="273.8" y="765.5" font-family="Arial" font-size="21.6" fill="#218b21" text-anchor="start">
MC
</text>

</g>

</g>

<g>
<path stroke="#000000" stroke-width="2" fill="none"
  d=""
 />
<path stroke="#000000" stroke-width="2" fill="none"
  d="M 738.8,316.2 "
 />
<path stroke="#000000" stroke-width="2" fill="none"
  d=""
 />
<path stroke="#000000" stroke-width="2" fill="none"
  d=""
 />
<path stroke="#000000" stroke-width="2" fill="none"
  d="
M 728.1,342.2 L 749.5,342.2 M 728.1,290.3 L 749.5,290.3 M 738.8,342.2 L 738.8,290.3 M 738.8,316.2 
"
 />
<path stroke="#ff0000" stroke-width="2" fill="none"
  d=""
 />
<path stroke="#000000" stroke-width="2" fill="none"
  d="M 738.8,254.4 "
 />
<path stroke="#ff0000" stroke-width="2" fill="none"
  d=""
 />
<path stroke="#ff0000" stroke-width="2" fill="none"
  d=""
 />
<path stroke="#000000" stroke-width="2" fill="none"
  d="
M 728.1,280.9 L 749.5,280.9 M 728.1,227.9 L 749.5,227.9 M 738.8,280.9 L 738.8,227.9 M 738.8,254.4 
"
 />
<path stroke="#0000ff" stroke-width="2" fill="none"
  d=""
 />
<path stroke="#000000" stroke-width="2" fill="none"
  d="M 738.8,390.4 "
 />
<path stroke="#0000ff" stroke-width="2" fill="none"
  d=""
 />
<path stroke="#0000ff" stroke-width="2" fill="none"
  d=""
 />
<path stroke="#000000" stroke-width="2" fill="none"
  d="
M 728.1,422.5 L 749.5,422.5 M 728.1,358.2 L 749.5,358.2 M 738.8,422.5 L 738.8,358.2 M 738.8,390.4 
"
 />
<path stroke="#218b21" stroke-width="2" fill="none"
  d=""
 />
<path stroke="#000000" stroke-width="2" fill="none"
  d="M 738.8,359.5 "
 />
<path stroke="#218b21" stroke-width="2" fill="none"
  d=""
 />
<path stroke="#218b21" stroke-width="2" fill="none"
  d=""
 />
<path stroke="#000000" stroke-width="2" fill="none"
  d="
M 728.1,391.3 L 749.5,391.3 M 728.1,327.7 L 749.5,327.7 M 738.8,391.3 L 738.8,327.7 M 738.8,359.5 
"
 />

</g>
</svg>
