<?xml version="1.0" encoding="UTF-8" standalone="no"?>
<!-- Created with Inkscape (http://www.inkscape.org/) -->

<svg
   xmlns:dc="http://purl.org/dc/elements/1.1/"
   xmlns:cc="http://creativecommons.org/ns#"
   xmlns:rdf="http://www.w3.org/1999/02/22-rdf-syntax-ns#"
   xmlns:svg="http://www.w3.org/2000/svg"
   xmlns="http://www.w3.org/2000/svg"
   xmlns:xlink="http://www.w3.org/1999/xlink"
   xmlns:sodipodi="http://sodipodi.sourceforge.net/DTD/sodipodi-0.dtd"
   xmlns:inkscape="http://www.inkscape.org/namespaces/inkscape"
   id="svg2"
   version="1.1"
   inkscape:version="0.47 r22583"
   width="257.5"
   height="187.5"
   xml:space="preserve"
   sodipodi:docname="fig_on_off_rfields_edge.svg"
   inkscape:export-filename="/Users/oreilly/svn_docs/figs/fig_on_off_rfields_edge.png"
   inkscape:export-xdpi="150"
   inkscape:export-ydpi="150"><metadata
     id="metadata8"><rdf:RDF><cc:Work
         rdf:about=""><dc:format>image/svg+xml</dc:format><dc:type
           rdf:resource="http://purl.org/dc/dcmitype/StillImage" /><dc:title></dc:title></cc:Work></rdf:RDF></metadata><defs
     id="defs6"><linearGradient
   id="linearGradient4087"><stop
     style="stop-color:#8f8fff;stop-opacity:1;"
     offset="0"
     id="stop4089" /><stop
     style="stop-color:#0000eb;stop-opacity:1;"
     offset="1"
     id="stop4091" /></linearGradient><linearGradient
   id="linearGradient4079"><stop
     style="stop-color:#ff8b8b;stop-opacity:1;"
     offset="0"
     id="stop4081" /><stop
     style="stop-color:#eb0000;stop-opacity:1;"
     offset="1"
     id="stop4083" /></linearGradient><linearGradient
   id="linearGradient3996"><stop
     style="stop-color:#202020;stop-opacity:0.796875;"
     offset="0"
     id="stop3998" /><stop
     style="stop-color:#ffffff;stop-opacity:0;"
     offset="1"
     id="stop4000" /></linearGradient><linearGradient
   id="linearGradient3783"><stop
     id="stop3785"
     offset="0"
     style="stop-color:#ff1414;stop-opacity:1;" /><stop
     style="stop-color:#0c04ff;stop-opacity:1;"
     offset="0.58278286"
     id="stop3787" /><stop
     style="stop-color:#fd0a0a;stop-opacity:1;"
     offset="1"
     id="stop3789" /></linearGradient><linearGradient
   id="linearGradient3763"><stop
     style="stop-color:#3114ff;stop-opacity:1;"
     offset="0"
     id="stop3765" /><stop
     id="stop3773"
     offset="0.5129056"
     style="stop-color:#ff0404;stop-opacity:1;" /><stop
     id="stop3771"
     offset="1"
     style="stop-color:#0a0efd;stop-opacity:1;" /></linearGradient><inkscape:perspective
   sodipodi:type="inkscape:persp3d"
   inkscape:vp_x="0 : 0.5 : 1"
   inkscape:vp_y="0 : 1000 : 0"
   inkscape:vp_z="1 : 0.5 : 1"
   inkscape:persp3d-origin="0.5 : 0.33333333 : 1"
   id="perspective10" />



<linearGradient
   inkscape:collect="always"
   xlink:href="#linearGradient3763"
   id="linearGradient3769"
   x1="15.295774"
   y1="98.480453"
   x2="85.241333"
   y2="98.480453"
   gradientUnits="userSpaceOnUse" /><linearGradient
   inkscape:collect="always"
   xlink:href="#linearGradient3783"
   id="linearGradient3781"
   x1="120.10687"
   y1="101.1574"
   x2="181.47223"
   y2="101.1574"
   gradientUnits="userSpaceOnUse" /><linearGradient
   inkscape:collect="always"
   xlink:href="#linearGradient3996"
   id="linearGradient4002"
   x1="312.67691"
   y1="87.195442"
   x2="322.12183"
   y2="91.1679"
   gradientUnits="userSpaceOnUse"
   gradientTransform="matrix(0.58798589,0,0,0.56334403,61.654781,-154.93556)" /><radialGradient
   inkscape:collect="always"
   xlink:href="#linearGradient4079"
   id="radialGradient4085"
   cx="51.1863"
   cy="32.15605"
   fx="51.1863"
   fy="32.15605"
   r="16.26868"
   gradientTransform="matrix(1,0,0,0.99999078,0,2.9648426e-4)"
   gradientUnits="userSpaceOnUse" /><radialGradient
   inkscape:collect="always"
   xlink:href="#linearGradient4087"
   id="radialGradient4093"
   cx="51.18635"
   cy="32.156255"
   fx="51.18635"
   fy="32.156255"
   r="30.35543"
   gradientTransform="translate(0,5.2966232e-6)"
   gradientUnits="userSpaceOnUse" /><radialGradient
   inkscape:collect="always"
   xlink:href="#linearGradient4079"
   id="radialGradient4101"
   cx="155.3625"
   cy="32.155861"
   fx="155.3625"
   fy="32.155861"
   r="30.35548"
   gradientTransform="matrix(1,0,0,0.99999802,0,6.3558593e-5)"
   gradientUnits="userSpaceOnUse" /><radialGradient
   inkscape:collect="always"
   xlink:href="#linearGradient4087"
   id="radialGradient4109"
   cx="155.362"
   cy="32.155849"
   fx="155.362"
   fy="32.155849"
   r="16.26898"
   gradientTransform="matrix(1,0,0,0.99998463,0,4.9412824e-4)"
   gradientUnits="userSpaceOnUse" /><radialGradient
   inkscape:collect="always"
   xlink:href="#linearGradient4079"
   id="radialGradient4133"
   cx="255.52953"
   cy="96.668762"
   fx="255.52953"
   fy="96.668762"
   r="16.268681"
   gradientTransform="matrix(1,0,0,0.99999069,0,9.0021546e-4)"
   gradientUnits="userSpaceOnUse" /><radialGradient
   inkscape:collect="always"
   xlink:href="#linearGradient4087"
   id="radialGradient4141"
   cx="255.52957"
   cy="96.668968"
   fx="255.52957"
   fy="96.668968"
   r="30.355431"
   gradientTransform="translate(0,2.06997e-5)"
   gradientUnits="userSpaceOnUse" /><radialGradient
   inkscape:collect="always"
   xlink:href="#linearGradient4087"
   id="radialGradient4165"
   cx="255.52957"
   cy="24.529137"
   fx="255.52957"
   fy="24.529137"
   r="30.355431"
   gradientTransform="translate(0,4.242337e-6)"
   gradientUnits="userSpaceOnUse" /><radialGradient
   inkscape:collect="always"
   xlink:href="#linearGradient4079"
   id="radialGradient4173"
   cx="255.52953"
   cy="24.528931"
   fx="255.52953"
   fy="24.528931"
   r="16.268681"
   gradientTransform="matrix(1,0,0,0.99999076,0,2.2653786e-4)"
   gradientUnits="userSpaceOnUse" /></defs><sodipodi:namedview
     pagecolor="#ffffff"
     bordercolor="#666666"
     borderopacity="1"
     objecttolerance="10"
     gridtolerance="10"
     guidetolerance="10"
     inkscape:pageopacity="0"
     inkscape:pageshadow="2"
     inkscape:window-width="1237"
     inkscape:window-height="1086"
     id="namedview4"
     showgrid="false"
     inkscape:zoom="2.5173333"
     inkscape:cx="190.63228"
     inkscape:cy="83.393523"
     inkscape:window-x="744"
     inkscape:window-y="0"
     inkscape:window-maximized="0"
     inkscape:current-layer="g12" /><g
     id="g12"
     inkscape:groupmode="layer"
     inkscape:label="fig_on_off_rfields"
     transform="matrix(1.25,0,0,-1.25,0,187.5)"><rect
       style="fill:#ffffff;fill-opacity:1;fill-rule:nonzero;stroke:#ffffff;stroke-width:0.51702285;stroke-miterlimit:4;stroke-opacity:1;stroke-dasharray:none;stroke-dashoffset:0"
       id="rect2856"
       width="335.15842"
       height="165.77281"
       x="-2.4838614"
       y="-153.11946"
       transform="scale(1,-1)" /><path
       id="path42"
       style="fill:url(#radialGradient4101);stroke:#000000;stroke-width:1.91396009999999994;stroke-linecap:butt;stroke-linejoin:miter;stroke-miterlimit:10;stroke-opacity:1;stroke-dasharray:none;fill-opacity:1.0"
       d="m 184.761,32.1559 c 0,16.2359 -13.163,29.3984 -29.399,29.3984 -16.236,0 -29.398,-13.1625 -29.398,-29.3984 0,-16.236 13.162,-29.39848 29.398,-29.39848 16.236,0 29.399,13.16248 29.399,29.39848" /><path
       id="path38"
       style="fill:#808080;fill-opacity:1;fill-rule:evenodd;stroke:none"
       d="m 170.674,32.1559 c 0,8.4562 -6.856,15.3117 -15.312,15.3117 -8.456,0 -15.312,-6.8555 -15.312,-15.3117 0,-8.4563 6.856,-15.3118 15.312,-15.3118 8.456,0 15.312,6.8555 15.312,15.3118" /><path
       id="path40"
       style="fill:url(#radialGradient4109);stroke:#000000;stroke-width:1.91396009999999994;stroke-linecap:butt;stroke-linejoin:miter;stroke-miterlimit:10;stroke-opacity:1;stroke-dasharray:none;fill-opacity:1.0"
       d="m 170.674,32.1559 c 0,8.4562 -6.856,15.3117 -15.312,15.3117 -8.456,0 -15.312,-6.8555 -15.312,-15.3117 0,-8.4563 6.856,-15.3118 15.312,-15.3118 8.456,0 15.312,6.8555 15.312,15.3118" /><path
       id="path68"
       style="fill:none;stroke:#ff0000;stroke-width:1.2;stroke-linecap:butt;stroke-linejoin:miter;stroke-miterlimit:10;stroke-opacity:1;stroke-dasharray:3.6,1.2;stroke-dashoffset:0"
       d="m 2.5875,88.2805 21.1996,0 1.6,0.2 1.6,0.2 1.6,0.4 1.5996,0.6 1.8,1 1.6,1.4 1.6,2 1.6,2.8 1.6,3.3995 1.6,4.2 1.6,5 1.8,5 1.6,5.4 1.5996,4.6 1.6,3.8 1.6,2.6 1.6,0.8 1.6,-0.8 1.8,-2.6 1.6,-3.8 1.6,-4.6 1.6,-5.4 1.6,-5 1.6,-5 1.5996,-4.2 1.6,-3.3995 1.8,-2.8 1.6,-2 1.6,-1.4 1.6,-1 1.6,-0.6 1.6,-0.4 1.6,-0.2 1.6,-0.2 19.5993,0" /><path
       id="path70"
       style="fill:none;stroke:#0000ff;stroke-width:1.2;stroke-linecap:butt;stroke-linejoin:miter;stroke-miterlimit:10;stroke-opacity:1;stroke-dasharray:3.6,1.2;stroke-dashoffset:0"
       d="m 2.5875,86.2805 1.6,-0.4 1.6,-0.2 1.6,-0.4 1.6,-0.4 1.8,-0.4 1.6,-0.2 1.5996,-0.5996 1.6,-0.4 1.6,-0.6 1.6,-0.4 1.6,-0.6 1.8,-0.6 1.6,-0.4 1.6,-0.6 1.6,-0.6 1.6,-0.6 1.5996,-0.6 1.8,-0.6 1.6,-0.6 1.6,-0.6 1.6,-0.4 1.6,-0.4 1.6,-0.4 1.6,-0.4 1.8,-0.4 1.6,-0.4 1.5996,0 1.6,-0.2 1.6,-0.2 3.2,0 1.8,0.2 1.6,0.2 1.6,0 1.6,0.4 1.6,0.4 1.6,0.4 1.5996,0.4 1.6,0.4 1.8,0.4 1.6,0.6 1.6,0.6 1.6,0.6 1.6,0.6 1.6,0.6 1.6,0.6 1.6,0.6 1.7996,0.4 1.6,0.6 1.6,0.6 1.6,0.4 1.6,0.6 1.6,0.4 1.6,0.5996 1.8,0.2 1.6,0.4 1.6,0.4 1.6,0.4 1.5997,0.2" /><path
       id="path72"
       style="fill:none;stroke:url(#linearGradient3769);stroke-width:1.91396009999999994;stroke-linecap:butt;stroke-linejoin:miter;stroke-miterlimit:10;stroke-opacity:1;stroke-dasharray:none"
       d="m 2.5875,86.2805 1.6,-0.4 1.6,-0.2 1.6,-0.4 1.6,-0.4 1.8,-0.4 1.6,-0.2 1.5996,-0.5996 1.6,-0.4 1.6,-0.6 1.6,-0.4 1.6,-0.6 1.8,-0.4 1.6,-0.6 1.6,-0.4 1.6,-0.4 1.6,-0.2 1.5996,0 1.8,0.4 1.6,0.8 1.6,1.6 1.6,2.1996 1.6,3 1.6,3.8 1.6,4.6 1.8,4.7995 1.6,5 1.5996,4.4 1.6,3.6 1.6,2.4 1.6,1 1.6,-1 1.8,-2.4 1.6,-3.6 1.6,-4.4 1.6,-5 1.6,-4.7995 1.6,-4.6 1.5996,-3.8 1.6,-3 1.8,-2.1996 1.6,-1.6 1.6,-0.8 1.6,-0.4 1.6,0 1.6,0.2 1.6,0.4 1.6,0.4 1.7996,0.6 1.6,0.4 1.6,0.6 1.6,0.4 1.6,0.6 1.6,0.4 1.6,0.5996 1.8,0.2 1.6,0.4 1.6,0.4 1.6,0.4 1.5997,0.2" /><path
       id="path74"
       style="fill:none;stroke:#000000;stroke-width:0.95698005;stroke-linecap:butt;stroke-linejoin:miter;stroke-miterlimit:10;stroke-opacity:1;stroke-dasharray:none"
       d="m 2.3875,88.0805 97.5977,0" /><path
       id="path88"
       style="fill:none;stroke:#0000ff;stroke-width:1.2;stroke-linecap:butt;stroke-linejoin:miter;stroke-miterlimit:10;stroke-opacity:1;stroke-dasharray:3.6,1.2;stroke-dashoffset:0"
       d="m 106.763,111.357 21.199,0 1.6,-0.2 1.6,-0.2 1.6,-0.4 1.6,-0.6 1.8,-1 1.6,-1.4 1.6,-2 1.6,-2.8 1.6,-3.3996 1.6,-4.2 1.6,-5 1.8,-5 1.6,-5.3996 1.6,-4.6 1.6,-3.8 1.6,-2.6 1.6,-0.8 1.6,0.8 1.8,2.6 1.6,3.8 1.6,4.6 1.6,5.3996 1.6,5 1.6,5 1.6,4.2 1.6,3.3996 1.8,2.8 1.6,2 1.6,1.4 1.599,1 1.6,0.6 1.6,0.4 1.6,0.2 1.6,0.2 19.6,0" /><path
       id="path90"
       style="fill:none;stroke:#ff0000;stroke-width:1.2;stroke-linecap:butt;stroke-linejoin:miter;stroke-miterlimit:10;stroke-opacity:1;stroke-dasharray:3.6,1.2;stroke-dashoffset:0"
       d="m 106.763,113.357 1.6,0.4 1.6,0.2 1.6,0.4 1.6,0.4 1.8,0.4 1.6,0.2 1.6,0.6 1.6,0.4 1.6,0.6 1.6,0.4 1.6,0.6 1.799,0.6 1.6,0.4 1.6,0.6 1.6,0.6 1.6,0.6 1.6,0.6 1.8,0.6 1.6,0.6 1.6,0.6 1.6,0.4 1.6,0.4 1.6,0.4 1.6,0.4 1.8,0.4 1.6,0.4 1.6,0 1.6,0.2 1.6,0.2 3.2,0 1.8,-0.2 1.6,-0.2 1.6,0 1.6,-0.4 1.6,-0.4 1.6,-0.4 1.6,-0.4 1.6,-0.4 1.8,-0.4 1.6,-0.6 1.6,-0.6 1.599,-0.6 1.6,-0.6 1.6,-0.6 1.6,-0.6 1.6,-0.6 1.8,-0.4 1.6,-0.6 1.6,-0.6 1.6,-0.4 1.6,-0.6 1.6,-0.4 1.6,-0.6 1.8,-0.2 1.6,-0.4 1.6,-0.4 1.6,-0.4 1.6,-0.2" /><path
       id="path92"
       style="fill:none;stroke:url(#linearGradient3781);stroke-width:1.91396009999999994;stroke-linecap:butt;stroke-linejoin:miter;stroke-miterlimit:10;stroke-opacity:1;stroke-dasharray:none"
       d="m 106.763,113.357 1.6,0.4 1.6,0.2 1.6,0.4 1.6,0.4 1.8,0.4 1.6,0.2 1.6,0.6 1.6,0.4 1.6,0.6 1.6,0.4 1.6,0.6 1.799,0.4 1.6,0.6 1.6,0.4 1.6,0.4 1.6,0.2 1.6,0 1.8,-0.4 1.6,-0.8 1.6,-1.6 1.6,-2.2 1.6,-3 1.6,-3.8 1.6,-4.6 1.8,-4.7996 1.6,-5 1.6,-4.4 1.6,-3.6 1.6,-2.3996 1.6,-1 1.6,1 1.8,2.3996 1.6,3.6 1.6,4.4 1.6,5 1.6,4.7996 1.6,4.6 1.6,3.8 1.6,3 1.8,2.2 1.6,1.6 1.6,0.8 1.599,0.4 1.6,0 1.6,-0.2 1.6,-0.4 1.6,-0.4 1.8,-0.6 1.6,-0.4 1.6,-0.6 1.6,-0.4 1.6,-0.6 1.6,-0.4 1.6,-0.6 1.8,-0.2 1.6,-0.4 1.6,-0.4 1.6,-0.4 1.6,-0.2" /><path
       id="path94"
       style="fill:none;stroke:#000000;stroke-width:0.95698005;stroke-linecap:butt;stroke-linejoin:miter;stroke-miterlimit:10;stroke-opacity:1;stroke-dasharray:none"
       d="m 106.563,111.557 97.598,0" /><text
       xml:space="preserve"
       style="font-size:9.60000038px;font-style:normal;font-variant:normal;font-weight:normal;font-stretch:normal;text-indent:0;text-align:start;text-decoration:none;line-height:normal;letter-spacing:normal;word-spacing:normal;text-transform:none;direction:ltr;block-progression:tb;writing-mode:lr-tb;text-anchor:start;color:#000000;fill:#000000;fill-opacity:1;fill-rule:nonzero;stroke:none;stroke-width:1px;marker:none;visibility:visible;display:inline;overflow:visible;enable-background:accumulate;font-family:Arial;-inkscape-font-specification:Arial"
       x="2.5423722"
       y="-141.10168"
       id="text2925"
       transform="scale(1,-1)"><tspan
         sodipodi:role="line"
         id="tspan2927"
         x="2.5423722"
         y="-141.10168"
         style="font-size:11.19999981px">a) On-center</tspan></text>
<text
       xml:space="preserve"
       style="font-size:9.60000038px;font-style:normal;font-variant:normal;font-weight:normal;font-stretch:normal;text-indent:0;text-align:start;text-decoration:none;line-height:normal;letter-spacing:normal;word-spacing:normal;text-transform:none;direction:ltr;block-progression:tb;writing-mode:lr-tb;text-anchor:start;color:#000000;fill:#000000;fill-opacity:1;fill-rule:nonzero;stroke:none;stroke-width:1px;marker:none;visibility:visible;display:inline;overflow:visible;enable-background:accumulate;font-family:Arial;-inkscape-font-specification:Arial"
       x="106.14407"
       y="-141.10168"
       id="text2929"
       transform="scale(1,-1)"><tspan
         sodipodi:role="line"
         id="tspan2931"
         x="106.14407"
         y="-141.10168"
         style="font-size:11.19999981px">b) Off-center</tspan></text>
<path
       id="path16"
       style="fill:#808080;fill-opacity:1;fill-rule:evenodd;stroke:none"
       d="m 80.5848,32.1562 c 0,16.236 -13.1625,29.3985 -29.3985,29.3985 -16.2359,0 -29.3984,-13.1625 -29.3984,-29.3985 0,-16.2359 13.1625,-29.39839 29.3984,-29.39839 16.236,0 29.3985,13.16249 29.3985,29.39839" /><path
       id="path18"
       style="fill:url(#radialGradient4093);stroke:#000000;stroke-width:1.91396009999999994;stroke-linecap:butt;stroke-linejoin:miter;stroke-miterlimit:10;stroke-opacity:1;stroke-dasharray:none;fill-opacity:1"
       d="m 80.5848,32.1562 c 0,16.236 -13.1625,29.3985 -29.3985,29.3985 -16.2359,0 -29.3984,-13.1625 -29.3984,-29.3985 0,-16.2359 13.1625,-29.39839 29.3984,-29.39839 16.236,0 29.3985,13.16249 29.3985,29.39839" /><path
       id="path20"
       style="fill:#ffffff;fill-opacity:1;fill-rule:evenodd;stroke:none"
       d="m 66.498,32.1562 c 0,8.4563 -6.8554,15.3114 -15.3117,15.3114 -8.4562,0 -15.3117,-6.8551 -15.3117,-15.3114 0,-8.4562 6.8555,-15.3117 15.3117,-15.3117 8.4563,0 15.3117,6.8555 15.3117,15.3117" /><path
       id="path22"
       style="fill:url(#radialGradient4085);stroke:#000000;stroke-width:1.91396009999999994;stroke-linecap:butt;stroke-linejoin:miter;stroke-miterlimit:10;stroke-opacity:1;stroke-dasharray:none;fill-opacity:1"
       d="m 66.498,32.1562 c 0,8.4563 -6.8554,15.3114 -15.3117,15.3114 -8.4562,0 -15.3117,-6.8551 -15.3117,-15.3114 0,-8.4562 6.8555,-15.3117 15.3117,-15.3117 8.4563,0 15.3117,6.8555 15.3117,15.3117" /><text
       xml:space="preserve"
       style="font-size:9.60000038px;font-style:normal;font-variant:normal;font-weight:normal;font-stretch:normal;text-indent:0;text-align:start;text-decoration:none;line-height:normal;letter-spacing:normal;word-spacing:normal;text-transform:none;direction:ltr;block-progression:tb;writing-mode:lr-tb;text-anchor:start;color:#000000;fill:#000000;fill-opacity:1;fill-rule:nonzero;stroke:none;stroke-width:1px;marker:none;visibility:visible;display:inline;overflow:visible;enable-background:accumulate;font-family:Arial;-inkscape-font-specification:Arial"
       x="47.915989"
       y="-28.210346"
       id="text3747"
       transform="scale(1,-1)"><tspan
         sodipodi:role="line"
         id="tspan3749"
         x="47.915989"
         y="-28.210346"
         style="font-size:11.19999981px">+</tspan></text>
<text
       xml:space="preserve"
       style="font-size:9.60000038px;font-style:normal;font-variant:normal;font-weight:normal;font-stretch:normal;text-indent:0;text-align:start;text-decoration:none;line-height:normal;letter-spacing:normal;word-spacing:normal;text-transform:none;direction:ltr;block-progression:tb;writing-mode:lr-tb;text-anchor:start;color:#000000;fill:#000000;fill-opacity:1;fill-rule:nonzero;stroke:none;stroke-width:1px;marker:none;visibility:visible;display:inline;overflow:visible;enable-background:accumulate;font-family:Arial;-inkscape-font-specification:Arial"
       x="71.18644"
       y="-28.210346"
       id="text3751"
       transform="scale(1,-1)"><tspan
         sodipodi:role="line"
         id="tspan3753"
         x="71.18644"
         y="-28.210346"
         style="font-size:12.80000019px">-</tspan></text>
<text
       transform="scale(1,-1)"
       id="text3755"
       y="-28.210346"
       x="174.71684"
       style="font-size:9.60000038px;font-style:normal;font-variant:normal;font-weight:normal;font-stretch:normal;text-indent:0;text-align:start;text-decoration:none;line-height:normal;letter-spacing:normal;word-spacing:normal;text-transform:none;direction:ltr;block-progression:tb;writing-mode:lr-tb;text-anchor:start;color:#000000;fill:#000000;fill-opacity:1;fill-rule:nonzero;stroke:none;stroke-width:1px;marker:none;visibility:visible;display:inline;overflow:visible;enable-background:accumulate;font-family:Arial;-inkscape-font-specification:Arial"
       xml:space="preserve"><tspan
         style="font-size:11.19999981px"
         y="-28.210346"
         x="174.71684"
         id="tspan3757"
         sodipodi:role="line">+</tspan></text>
<text
       transform="scale(1,-1)"
       id="text3759"
       y="-28.210346"
       x="153.22763"
       style="font-size:9.60000038px;font-style:normal;font-variant:normal;font-weight:normal;font-stretch:normal;text-indent:0;text-align:start;text-decoration:none;line-height:normal;letter-spacing:normal;word-spacing:normal;text-transform:none;direction:ltr;block-progression:tb;writing-mode:lr-tb;text-anchor:start;color:#000000;fill:#000000;fill-opacity:1;fill-rule:nonzero;stroke:none;stroke-width:1px;marker:none;visibility:visible;display:inline;overflow:visible;enable-background:accumulate;font-family:Arial;-inkscape-font-specification:Arial"
       xml:space="preserve"><tspan
         style="font-size:12.80000019px"
         y="-28.210346"
         x="153.22763"
         id="tspan3761"
         sodipodi:role="line">-</tspan></text>
<text
       transform="scale(1,-1)"
       id="text3962"
       y="-141.10168"
       x="221.50424"
       style="font-size:9.60000038px;font-style:normal;font-variant:normal;font-weight:normal;font-stretch:normal;text-indent:0;text-align:start;text-decoration:none;line-height:normal;letter-spacing:normal;word-spacing:normal;text-transform:none;direction:ltr;block-progression:tb;writing-mode:lr-tb;text-anchor:start;color:#000000;fill:#000000;fill-opacity:1;fill-rule:nonzero;stroke:none;stroke-width:1px;marker:none;visibility:visible;display:inline;overflow:visible;enable-background:accumulate;font-family:Arial;-inkscape-font-specification:Arial"
       xml:space="preserve"><tspan
         style="font-size:11.19999981px"
         y="-141.10168"
         x="221.50424"
         id="tspan3964"
         sodipodi:role="line">c) Contrast sensitive</tspan></text>
<path
       d="m 284.92802,96.668913 c 0,16.235997 -13.1625,29.398497 -29.3985,29.398497 -16.2359,0 -29.3984,-13.1625 -29.3984,-29.398497 0,-16.2359 13.1625,-29.39839 29.3984,-29.39839 16.236,0 29.3985,13.16249 29.3985,29.39839"
       style="fill:#808080;fill-opacity:1;fill-rule:evenodd;stroke:none"
       id="path3978" /><path
       d="m 284.92802,96.668913 c 0,16.235997 -13.1625,29.398497 -29.3985,29.398497 -16.2359,0 -29.3984,-13.1625 -29.3984,-29.398497 0,-16.2359 13.1625,-29.39839 29.3984,-29.39839 16.236,0 29.3985,13.16249 29.3985,29.39839"
       style="fill:url(#radialGradient4141);stroke:#000000;stroke-width:1.91396009999999994;stroke-linecap:butt;stroke-linejoin:miter;stroke-miterlimit:10;stroke-opacity:1;stroke-dasharray:none;fill-opacity:1.0"
       id="path3980" /><path
       d="m 270.84122,96.668913 c 0,8.456297 -6.8554,15.311397 -15.3117,15.311397 -8.4562,0 -15.3117,-6.8551 -15.3117,-15.311397 0,-8.4562 6.8555,-15.3117 15.3117,-15.3117 8.4563,0 15.3117,6.8555 15.3117,15.3117"
       style="fill:#ffffff;fill-opacity:1;fill-rule:evenodd;stroke:none"
       id="path3982" /><path
       d="m 270.84122,96.668913 c 0,8.456297 -6.8554,15.311397 -15.3117,15.311397 -8.4562,0 -15.3117,-6.8551 -15.3117,-15.311397 0,-8.4562 6.8555,-15.3117 15.3117,-15.3117 8.4563,0 15.3117,6.8555 15.3117,15.3117"
       style="fill:url(#radialGradient4133);stroke:#000000;stroke-width:1.91396009999999994;stroke-linecap:butt;stroke-linejoin:miter;stroke-miterlimit:10;stroke-opacity:1;stroke-dasharray:none;fill-opacity:1.0"
       id="path3984" /><text
       transform="scale(1,-1)"
       id="text3986"
       y="-92.723061"
       x="252.25922"
       style="font-size:9.60000038px;font-style:normal;font-variant:normal;font-weight:normal;font-stretch:normal;text-indent:0;text-align:start;text-decoration:none;line-height:normal;letter-spacing:normal;word-spacing:normal;text-transform:none;direction:ltr;block-progression:tb;writing-mode:lr-tb;text-anchor:start;color:#000000;fill:#000000;fill-opacity:1;fill-rule:nonzero;stroke:none;stroke-width:1px;marker:none;visibility:visible;display:inline;overflow:visible;enable-background:accumulate;font-family:Arial;-inkscape-font-specification:Arial"
       xml:space="preserve"><tspan
         style="font-size:11.19999981px"
         y="-92.723061"
         x="252.25922"
         id="tspan3988"
         sodipodi:role="line">+</tspan></text>
<text
       transform="scale(1,-1)"
       id="text3990"
       y="-92.723061"
       x="275.52966"
       style="font-size:9.60000038px;font-style:normal;font-variant:normal;font-weight:normal;font-stretch:normal;text-indent:0;text-align:start;text-decoration:none;line-height:normal;letter-spacing:normal;word-spacing:normal;text-transform:none;direction:ltr;block-progression:tb;writing-mode:lr-tb;text-anchor:start;color:#000000;fill:#000000;fill-opacity:1;fill-rule:nonzero;stroke:none;stroke-width:1px;marker:none;visibility:visible;display:inline;overflow:visible;enable-background:accumulate;font-family:Arial;-inkscape-font-specification:Arial"
       xml:space="preserve"><tspan
         style="font-size:12.80000019px"
         y="-92.723061"
         x="275.52966"
         id="tspan3992"
         sodipodi:role="line">-</tspan></text>
<path
       id="path4012"
       style="fill:#808080;fill-opacity:1;fill-rule:evenodd;stroke:none"
       d="m 284.92802,24.529081 c 0,16.236 -13.1625,29.3985 -29.3985,29.3985 -16.2359,0 -29.3984,-13.1625 -29.3984,-29.3985 0,-16.2358995 13.1625,-29.3983895 29.3984,-29.3983895 16.236,0 29.3985,13.16249 29.3985,29.3983895" /><path
       id="path4014"
       style="fill:url(#radialGradient4165);stroke:#000000;stroke-width:1.91396009999999994;stroke-linecap:butt;stroke-linejoin:miter;stroke-miterlimit:10;stroke-opacity:1;stroke-dasharray:none;fill-opacity:1.0"
       d="m 284.92802,24.529081 c 0,16.236 -13.1625,29.3985 -29.3985,29.3985 -16.2359,0 -29.3984,-13.1625 -29.3984,-29.3985 0,-16.2358995 13.1625,-29.3983895 29.3984,-29.3983895 16.236,0 29.3985,13.16249 29.3985,29.3983895" /><path
       id="path4016"
       style="fill:#ffffff;fill-opacity:1;fill-rule:evenodd;stroke:none"
       d="m 270.84122,24.529081 c 0,8.4563 -6.8554,15.3114 -15.3117,15.3114 -8.4562,0 -15.3117,-6.8551 -15.3117,-15.3114 0,-8.4562 6.8555,-15.3116995 15.3117,-15.3116995 8.4563,0 15.3117,6.8554995 15.3117,15.3116995" /><path
       id="path4018"
       style="fill:url(#radialGradient4173);stroke:#000000;stroke-width:1.91396009999999994;stroke-linecap:butt;stroke-linejoin:miter;stroke-miterlimit:10;stroke-opacity:1;stroke-dasharray:none;fill-opacity:1.0"
       d="m 270.84122,24.529081 c 0,8.4563 -6.8554,15.3114 -15.3117,15.3114 -8.4562,0 -15.3117,-6.8551 -15.3117,-15.3114 0,-8.4562 6.8555,-15.3116995 15.3117,-15.3116995 8.4563,0 15.3117,6.8554995 15.3117,15.3116995" /><text
       xml:space="preserve"
       style="font-size:9.60000038px;font-style:normal;font-variant:normal;font-weight:normal;font-stretch:normal;text-indent:0;text-align:start;text-decoration:none;line-height:normal;letter-spacing:normal;word-spacing:normal;text-transform:none;direction:ltr;block-progression:tb;writing-mode:lr-tb;text-anchor:start;color:#000000;fill:#000000;fill-opacity:1;fill-rule:nonzero;stroke:none;stroke-width:1px;marker:none;visibility:visible;display:inline;overflow:visible;enable-background:accumulate;font-family:Arial;-inkscape-font-specification:Arial"
       x="252.25922"
       y="-20.583227"
       id="text4020"
       transform="scale(1,-1)"><tspan
         sodipodi:role="line"
         id="tspan4022"
         x="252.25922"
         y="-20.583227"
         style="font-size:11.19999981px">+</tspan></text>
<text
       xml:space="preserve"
       style="font-size:9.60000038px;font-style:normal;font-variant:normal;font-weight:normal;font-stretch:normal;text-indent:0;text-align:start;text-decoration:none;line-height:normal;letter-spacing:normal;word-spacing:normal;text-transform:none;direction:ltr;block-progression:tb;writing-mode:lr-tb;text-anchor:start;color:#000000;fill:#000000;fill-opacity:1;fill-rule:nonzero;stroke:none;stroke-width:1px;marker:none;visibility:visible;display:inline;overflow:visible;enable-background:accumulate;font-family:Arial;-inkscape-font-specification:Arial"
       x="275.52966"
       y="-20.583227"
       id="text4024"
       transform="scale(1,-1)"><tspan
         sodipodi:role="line"
         id="tspan4026"
         x="275.52966"
         y="-20.583227"
         style="font-size:12.80000019px">-</tspan></text>
<text
       transform="scale(1,-1)"
       id="text4030"
       y="-27.012711"
       x="293.32626"
       style="font-size:9.60000038px;font-style:normal;font-variant:normal;font-weight:normal;font-stretch:normal;text-indent:0;text-align:start;text-decoration:none;line-height:normal;letter-spacing:normal;word-spacing:normal;text-transform:none;direction:ltr;block-progression:tb;writing-mode:lr-tb;text-anchor:start;color:#000000;fill:#000000;fill-opacity:1;fill-rule:nonzero;stroke:none;stroke-width:1px;marker:none;visibility:visible;display:inline;overflow:visible;enable-background:accumulate;font-family:Arial;-inkscape-font-specification:Arial"
       xml:space="preserve"><tspan
         y="-27.012711"
         x="293.32626"
         id="tspan4032"
         sodipodi:role="line">Uniform</tspan><tspan
         y="-15.012711"
         x="293.32626"
         sodipodi:role="line"
         id="tspan4048">  = net 0</tspan></text>
<text
       transform="scale(1,-1)"
       id="text4038"
       y="-99.788132"
       x="293.32626"
       style="font-size:9.60000038px;font-style:normal;font-variant:normal;font-weight:normal;font-stretch:normal;text-indent:0;text-align:start;text-decoration:none;line-height:normal;letter-spacing:normal;word-spacing:normal;text-transform:none;direction:ltr;block-progression:tb;writing-mode:lr-tb;text-anchor:start;color:#000000;fill:#000000;fill-opacity:1;fill-rule:nonzero;stroke:none;stroke-width:1px;marker:none;visibility:visible;display:inline;overflow:visible;enable-background:accumulate;font-family:Arial;-inkscape-font-specification:Arial"
       xml:space="preserve"><tspan
         id="tspan4042"
         y="-99.788132"
         x="293.32626"
         sodipodi:role="line">Edge = </tspan><tspan
         y="-87.788132"
         x="293.32626"
         sodipodi:role="line"
         id="tspan4046">    net +</tspan></text>
<rect
       style="fill:url(#linearGradient4002);fill-opacity:1;fill-rule:nonzero;stroke:none"
       id="rect3994"
       width="66.101707"
       height="69.59745"
       x="221.18645"
       y="-131.88559"
       transform="scale(1,-1)" /><rect
       transform="scale(1,-1)"
       y="-59.745758"
       x="221.18645"
       height="69.59745"
       width="66.101707"
       id="rect4028"
       style="fill:#000000;fill-opacity:0.43946189;fill-rule:nonzero;stroke:none;stroke-opacity:1" /></g></svg>