<?xml version="1.0" encoding="ISO-8859-1" standalone="yes"?>
<svg width="494.797" height="375.797">
  <defs> 
    <marker id="ArrowEnd" viewBox="0 0 10 10" refX="0" refY="5" 
     markerUnits="strokeWidth" 
     markerWidth="4" 
     markerHeight="3" 
     orient="auto"> 
        <path d="M 0 0 L 10 5 L 0 10 z" /> 
    </marker>
    <marker id="ArrowStart" viewBox="0 0 10 10" refX="10" refY="5" 
     markerUnits="strokeWidth" 
     markerWidth="4" 
     markerHeight="3" 
     orient="auto"> 
        <path d="M 10 0 L 0 5 L 10 10 z" /> 
    </marker> </defs>
<g>
<path style="stroke:#000000; stroke-width:1.59941; fill:none" d="M 193.722 320.949L 193.722 318.551"/>
<path style="stroke:#000000; stroke-width:1.59941; fill:none" d="M 388.851 320.949L 388.851 318.551"/>
<path style="stroke:#000000; stroke-width:1.59941; fill:none" d="M 193.722 37.054L 193.722 39.453"/>
<path style="stroke:#000000; stroke-width:1.59941; fill:none" d="M 388.851 37.054L 388.851 39.453"/>
<path style="stroke:#000000; stroke-width:1.59941; fill:none" d="M 193.722 320.949L 193.722 316.152"/>
<path style="stroke:#000000; stroke-width:1.59941; fill:none" d="M 388.851 320.949L 388.851 316.152"/>
<path style="stroke:#000000; stroke-width:1.59941; fill:none" d="M 193.722 37.054L 193.722 41.851"/>
<path style="stroke:#000000; stroke-width:1.59941; fill:none" d="M 388.851 37.054L 388.851 41.851"/>
<path style="stroke:none; fill-rule:evenodd; fill:#000000" d="M 187.406 331.914L 187.406 342.808L 189.203 342.808L 189.203 327.511L 187.949 327.511C 187.281 329.863 186.847 330.187 183.906 330.554L 183.906 331.91L 187.406 331.914z"/>
<path style="stroke:none; fill-rule:evenodd; fill:#000000" d="M 199.656 327.508C 198.25 327.508 196.968 328.136 196.179 329.207C 195.199 330.543 194.711 332.594 194.711 335.418C 194.711 340.566 196.414 343.304 199.66 343.304C 202.859 343.304 204.609 340.57 204.609 335.547C 204.609 332.574 204.14 330.59 203.136 329.207C 202.351 328.121 201.089 327.508 199.66 327.508L 199.656 327.508zM 199.656 329.211C 201.695 329.211 202.703 331.273 202.703 335.363C 202.703 339.683 201.714 341.707 199.613 341.707C 197.617 341.707 196.609 339.601 196.609 335.426C 196.609 331.254 197.617 329.211 199.656 329.211z"/>
<path style="stroke:none; fill-rule:evenodd; fill:#000000" d="M 387.699 340.906L 379.675 340.906C 379.867 339.66 380.554 338.863 382.429 337.762L 384.578 336.601C 386.707 335.441 387.804 333.867 387.804 331.996C 387.804 330.726 387.289 329.543 386.386 328.722C 385.484 327.906 384.367 327.515 382.925 327.515C 380.992 327.515 379.547 328.203 378.711 329.496C 378.175 330.312 377.937 331.261 377.894 332.812L 379.793 332.812C 379.855 331.793 379.984 331.172 380.246 330.683C 380.742 329.769 381.734 329.215 382.882 329.215C 384.609 329.215 385.906 330.441 385.906 332.078C 385.906 333.281 385.195 334.312 383.832 335.09L 381.847 336.207C 378.652 338.012 377.722 339.453 377.547 342.808L 387.703 342.808L 387.699 340.906z"/>
<path style="stroke:none; fill-rule:evenodd; fill:#000000" d="M 394.859 327.508C 393.453 327.508 392.171 328.136 391.382 329.207C 390.402 330.543 389.914 332.594 389.914 335.418C 389.914 340.566 391.617 343.304 394.863 343.304C 398.062 343.304 399.812 340.57 399.812 335.547C 399.812 332.574 399.343 330.59 398.339 329.207C 397.554 328.121 396.293 327.508 394.863 327.508L 394.859 327.508zM 394.859 329.211C 396.898 329.211 397.906 331.273 397.906 335.363C 397.906 339.683 396.918 341.707 394.816 341.707C 392.82 341.707 391.812 339.601 391.812 335.426C 391.812 331.254 392.82 329.211 394.859 329.211z"/>
<path style="stroke:none; fill-rule:evenodd; fill:#000000" d="M 121.605 371.109L 124.804 371.109L 124.804 355.41L 121.605 355.41L 121.605 366.078L 115.343 355.41L 112.007 355.41L 112.007 371.109L 115.207 371.109L 115.207 360.23L 121.605 371.109z"/>
<path style="stroke:none; fill-rule:evenodd; fill:#000000" d="M 132.636 359.207C 129.086 359.207 126.91 361.57 126.91 365.406C 126.91 369.262 129.082 371.605 132.66 371.605C 136.191 371.605 138.41 369.246 138.41 365.496C 138.41 361.531 136.281 359.211 132.64 359.211L 132.636 359.207zM 132.656 361.609C 134.32 361.609 135.406 363.125 135.406 365.453C 135.406 367.668 134.281 369.207 132.656 369.207C 131.011 369.207 129.91 367.672 129.91 365.41C 129.91 363.148 131.011 361.613 132.656 361.613L 132.656 361.609z"/>
<path style="stroke:none; fill-rule:evenodd; fill:#000000" d="M 140.707 371.109L 143.906 371.109L 143.906 367.91L 140.707 367.91L 140.707 371.109z"/>
<path style="stroke:none; fill-rule:evenodd; fill:#000000" d="M 157.836 359.207C 154.285 359.207 152.109 361.57 152.109 365.406C 152.109 369.262 154.281 371.605 157.859 371.605C 161.39 371.605 163.609 369.246 163.609 365.496C 163.609 361.531 161.48 359.211 157.839 359.211L 157.836 359.207zM 157.859 361.609C 159.523 361.609 160.609 363.125 160.609 365.453C 160.609 367.668 159.484 369.207 157.859 369.207C 156.214 369.207 155.113 367.672 155.113 365.41C 155.113 363.148 156.214 361.613 157.859 361.613L 157.859 361.609z"/>
<path style="stroke:none; fill-rule:evenodd; fill:#000000" d="M 171.265 359.711L 169.507 359.711L 169.507 358.597C 169.507 358.008 169.761 357.715 170.308 357.715C 170.562 357.715 170.898 357.715 171.152 357.707L 171.152 355.48C 170.597 355.437 169.851 355.418 169.449 355.418C 167.468 355.418 166.507 356.363 166.507 358.32L 166.507 359.715L 164.812 359.715L 164.812 361.715L 166.507 361.715L 166.507 371.113L 169.507 371.113L 169.507 361.715L 171.265 361.715L 171.265 359.711z"/>
<path style="stroke:none; fill-rule:evenodd; fill:#000000" d="M 182.609 365.508L 186.605 365.508C 189.468 365.508 191.308 363.465 191.308 360.277C 191.308 357.137 189.539 355.41 186.289 355.41L 179.41 355.41L 179.41 371.109L 182.609 371.109L 182.609 365.508zM 182.609 362.808L 182.609 358.109L 185.601 358.109C 187.312 358.109 188.105 358.859 188.105 360.469C 188.105 362.054 187.316 362.804 185.601 362.804L 182.609 362.808z"/>
<path style="stroke:none; fill-rule:evenodd; fill:#000000" d="M 203.421 370.742C 202.867 370.246 202.711 369.922 202.711 369.312L 202.711 362.812C 202.711 360.429 201.097 359.215 197.953 359.215C 194.808 359.215 193.171 360.566 192.98 363.297L 195.863 363.297C 196.011 362.023 196.504 361.613 197.976 361.613C 199.129 361.613 199.707 362.004 199.707 362.789C 199.707 363.179 199.515 363.527 199.195 363.703C 198.789 363.918 198.789 363.918 197.312 364.16L 196.117 364.375C 193.828 364.765 192.714 365.965 192.714 368.078C 192.714 369.078 192.992 369.906 193.523 370.496C 194.183 371.191 195.183 371.605 196.211 371.605C 197.488 371.605 198.664 371.043 199.711 369.937C 199.711 370.543 199.773 370.758 200.062 371.105L 203.421 371.105L 203.421 370.742zM 199.707 366.433C 199.707 368.203 198.851 369.207 197.332 369.207C 196.328 369.207 195.707 368.664 195.707 367.789C 195.707 366.871 196.175 366.437 197.418 366.176L 198.441 365.98C 199.23 365.828 199.359 365.785 199.703 365.609L 199.707 366.433z"/>
<path style="stroke:none; fill-rule:evenodd; fill:#000000" d="M 210.605 359.711L 208.91 359.711L 208.91 356.558L 205.91 356.558L 205.91 359.711L 204.414 359.711L 204.414 361.711L 205.91 361.711L 205.91 368.871C 205.91 370.703 206.879 371.609 208.859 371.609C 209.527 371.609 210.062 371.547 210.605 371.375L 210.605 369.258C 210.3 369.293 210.129 369.312 209.91 369.312C 209.105 369.312 208.91 369.078 208.91 368.043L 208.91 361.715L 210.605 361.715L 210.605 359.711z"/>
<path style="stroke:none; fill-rule:evenodd; fill:#000000" d="M 215.808 359.449L 212.808 359.449L 212.808 371.105L 215.808 371.105L 215.808 359.449zM 215.808 355.406L 212.808 355.406L 212.808 358.105L 215.808 358.105L 215.808 355.406z"/>
<path style="stroke:none; fill-rule:evenodd; fill:#000000" d="M 228.621 366.207C 228.64 365.949 228.64 365.84 228.64 365.687C 228.64 364.519 228.468 363.433 228.187 362.613C 227.414 360.492 225.535 359.211 223.179 359.211C 219.836 359.211 217.785 361.64 217.785 365.562C 217.785 369.312 219.812 371.609 223.117 371.609C 225.726 371.609 227.843 370.121 228.511 367.828L 225.535 367.828C 225.171 368.762 224.328 369.308 223.226 369.308C 222.363 369.308 221.671 368.941 221.242 368.285C 220.964 367.851 220.855 367.324 220.812 366.211L 228.621 366.207zM 220.847 364.207C 221.039 362.41 221.797 361.508 223.132 361.508C 223.886 361.508 224.578 361.879 225.011 362.492C 225.289 362.929 225.421 363.39 225.484 364.203L 220.847 364.207z"/>
<path style="stroke:none; fill-rule:evenodd; fill:#000000" d="M 230.707 359.406L 230.707 371.105L 233.707 371.105L 233.707 364.027C 233.707 362.629 234.679 361.711 236.156 361.711C 237.453 361.711 238.105 362.433 238.105 363.832L 238.105 371.109L 241.105 371.109L 241.105 363.265C 241.105 360.687 239.683 359.211 237.203 359.211C 235.629 359.211 234.574 359.804 233.711 361.133L 233.711 359.41L 230.707 359.406z"/>
<path style="stroke:none; fill-rule:evenodd; fill:#000000" d="M 249.007 359.711L 247.312 359.711L 247.312 356.558L 244.312 356.558L 244.312 359.711L 242.816 359.711L 242.816 361.711L 244.312 361.711L 244.312 368.871C 244.312 370.703 245.281 371.609 247.261 371.609C 247.929 371.609 248.464 371.547 249.007 371.375L 249.007 369.258C 248.703 369.293 248.531 369.312 248.312 369.312C 247.507 369.312 247.312 369.078 247.312 368.043L 247.312 361.715L 249.007 361.715L 249.007 359.711z"/>
<path style="stroke:none; fill-rule:evenodd; fill:#000000" d="M 260.613 363.207C 260.57 360.719 258.664 359.211 255.523 359.211C 252.554 359.211 250.714 360.703 250.714 363.105C 250.714 363.883 250.949 364.554 251.363 365.008C 251.773 365.418 252.14 365.613 253.269 365.98L 256.886 367.105C 257.644 367.34 257.906 367.578 257.906 368.054C 257.906 368.765 257.066 369.199 255.664 369.199C 254.89 369.199 254.265 369.051 253.875 368.797C 253.554 368.566 253.425 368.332 253.293 367.711L 250.339 367.711C 250.425 370.258 252.297 371.601 255.828 371.601C 257.441 371.601 258.668 371.258 259.531 370.566C 260.39 369.875 260.91 368.793 260.91 367.644C 260.91 366.133 260.152 365.156 258.613 364.703L 254.777 363.601C 253.933 363.344 253.718 363.172 253.718 362.695C 253.718 362.047 254.414 361.613 255.48 361.613C 256.937 361.613 257.656 362.137 257.675 363.207L 260.613 363.207z"/>
<path style="stroke:none; fill-rule:evenodd; fill:#000000" d="M 272.609 365.508L 276.605 365.508C 279.468 365.508 281.308 363.465 281.308 360.277C 281.308 357.137 279.539 355.41 276.289 355.41L 269.41 355.41L 269.41 371.109L 272.609 371.109L 272.609 365.508zM 272.609 362.808L 272.609 358.109L 275.601 358.109C 277.312 358.109 278.105 358.859 278.105 360.469C 278.105 362.054 277.316 362.804 275.601 362.804L 272.609 362.808z"/>
<path style="stroke:none; fill-rule:evenodd; fill:#000000" d="M 293.421 366.207C 293.441 365.949 293.441 365.84 293.441 365.687C 293.441 364.519 293.269 363.433 292.988 362.613C 292.214 360.492 290.336 359.211 287.98 359.211C 284.636 359.211 282.586 361.64 282.586 365.562C 282.586 369.312 284.613 371.609 287.918 371.609C 290.527 371.609 292.644 370.121 293.312 367.828L 290.336 367.828C 289.972 368.762 289.129 369.308 288.027 369.308C 287.164 369.308 286.472 368.941 286.043 368.285C 285.765 367.851 285.656 367.324 285.613 366.211L 293.421 366.207zM 285.648 364.207C 285.839 362.41 286.597 361.508 287.933 361.508C 288.687 361.508 289.379 361.879 289.812 362.492C 290.089 362.929 290.222 363.39 290.285 364.203L 285.648 364.207z"/>
<path style="stroke:none; fill-rule:evenodd; fill:#000000" d="M 295.507 359.406L 295.507 371.105L 298.507 371.105L 298.507 364.949C 298.507 363.191 299.386 362.308 301.148 362.308C 301.468 362.308 301.683 362.316 302.093 362.34L 302.093 359.308C 301.921 359.308 301.816 359.308 301.73 359.308C 300.355 359.308 299.152 360.195 298.507 361.734L 298.507 359.406L 295.507 359.406z"/>
<path style="stroke:none; fill-rule:evenodd; fill:#000000" d="M 319.324 367.906L 320.359 371.105L 323.683 371.105L 318.246 355.406L 314.664 355.406L 309.074 371.105L 312.375 371.105L 313.429 367.906L 319.324 367.906zM 318.437 365.207L 314.336 365.207L 316.386 359.082L 318.437 365.207z"/>
<path style="stroke:none; fill-rule:evenodd; fill:#000000" d="M 332.906 359.406L 332.906 361.199C 332 359.816 331.004 359.207 329.66 359.207C 326.89 359.207 324.812 361.918 324.812 365.535C 324.812 369.176 326.714 371.601 329.597 371.601C 330.961 371.601 331.781 371.191 332.91 369.914L 332.91 371.504C 332.91 372.918 331.855 373.898 330.347 373.898C 329.207 373.898 328.453 373.414 328.214 372.504L 325.089 372.504C 325.109 373.406 325.457 374.031 326.234 374.679C 327.164 375.433 328.461 375.797 330.254 375.797C 333.777 375.797 335.812 374.219 335.812 371.472L 335.812 359.398L 332.906 359.406zM 330.297 361.707C 331.824 361.707 332.957 363.304 332.957 365.492C 332.957 367.637 331.843 369.101 330.254 369.101C 328.816 369.101 327.812 367.637 327.812 365.492C 327.812 363.262 328.816 361.707 330.3 361.707L 330.297 361.707z"/>
<path style="stroke:none; fill-rule:evenodd; fill:#000000" d="M 348.621 366.207C 348.64 365.949 348.64 365.84 348.64 365.687C 348.64 364.519 348.468 363.433 348.187 362.613C 347.414 360.492 345.535 359.211 343.179 359.211C 339.836 359.211 337.785 361.64 337.785 365.562C 337.785 369.312 339.812 371.609 343.117 371.609C 345.726 371.609 347.843 370.121 348.511 367.828L 345.535 367.828C 345.171 368.762 344.328 369.308 343.226 369.308C 342.363 369.308 341.671 368.941 341.242 368.285C 340.964 367.851 340.855 367.324 340.812 366.211L 348.621 366.207zM 340.847 364.207C 341.039 362.41 341.797 361.508 343.132 361.508C 343.886 361.508 344.578 361.879 345.011 362.492C 345.289 362.929 345.421 363.39 345.484 364.203L 340.847 364.207z"/>
<path style="stroke:none; fill-rule:evenodd; fill:#000000" d="M 350.707 359.406L 350.707 371.105L 353.707 371.105L 353.707 364.027C 353.707 362.629 354.679 361.711 356.156 361.711C 357.453 361.711 358.105 362.433 358.105 363.832L 358.105 371.109L 361.105 371.109L 361.105 363.265C 361.105 360.687 359.683 359.211 357.203 359.211C 355.629 359.211 354.574 359.804 353.711 361.133L 353.711 359.41L 350.707 359.406z"/>
<path style="stroke:none; fill-rule:evenodd; fill:#000000" d="M 369.007 359.711L 367.312 359.711L 367.312 356.558L 364.312 356.558L 364.312 359.711L 362.816 359.711L 362.816 361.711L 364.312 361.711L 364.312 368.871C 364.312 370.703 365.281 371.609 367.261 371.609C 367.929 371.609 368.464 371.547 369.007 371.375L 369.007 369.258C 368.703 369.293 368.531 369.312 368.312 369.312C 367.507 369.312 367.312 369.078 367.312 368.043L 367.312 361.715L 369.007 361.715L 369.007 359.711z"/>
<path style="stroke:none; fill-rule:evenodd; fill:#000000" d="M 371.109 367.906L 371.109 371.105L 372.945 371.105L 372.945 371.168C 372.945 372.633 372.371 373.39 371.109 373.648L 371.109 374.855C 371.98 374.75 372.578 374.508 373.156 374.054C 374.007 373.383 374.308 372.578 374.308 370.883L 374.308 367.906L 371.109 367.906z"/>
<path style="stroke:none; fill-rule:evenodd; fill:#000000" d="M 386.609 355.406L 383.41 355.406L 383.41 371.105L 394.211 371.105L 394.211 368.406L 386.609 368.406L 386.609 355.406z"/>
<path style="stroke:none; fill-rule:evenodd; fill:#000000" d="M 401.433 359.207C 397.882 359.207 395.707 361.57 395.707 365.406C 395.707 369.262 397.879 371.605 401.457 371.605C 404.988 371.605 407.207 369.246 407.207 365.496C 407.207 361.531 405.078 359.211 401.437 359.211L 401.433 359.207zM 401.457 361.609C 403.121 361.609 404.207 363.125 404.207 365.453C 404.207 367.668 403.082 369.207 401.457 369.207C 399.812 369.207 398.711 367.672 398.711 365.41C 398.711 363.148 399.812 361.613 401.457 361.613L 401.457 361.609z"/>
<path style="stroke:none; fill-rule:evenodd; fill:#000000" d="M 419.379 363.808C 419.164 360.929 417.257 359.207 414.332 359.207C 410.847 359.207 408.812 361.504 408.812 365.492C 408.812 369.347 410.824 371.601 414.289 371.601C 417.125 371.601 419.097 369.851 419.379 367.066L 416.464 367.066C 416.074 368.609 415.464 369.203 414.293 369.203C 412.75 369.203 411.816 367.801 411.816 365.492C 411.816 364.375 412.031 363.32 412.402 362.617C 412.75 361.961 413.421 361.609 414.293 361.609C 415.531 361.609 416.117 362.215 416.464 363.808L 419.379 363.808z"/>
<path style="stroke:none; fill-rule:evenodd; fill:#000000" d="M 431.421 370.742C 430.867 370.246 430.711 369.922 430.711 369.312L 430.711 362.812C 430.711 360.429 429.097 359.215 425.953 359.215C 422.808 359.215 421.171 360.566 420.98 363.297L 423.863 363.297C 424.011 362.023 424.504 361.613 425.976 361.613C 427.129 361.613 427.707 362.004 427.707 362.789C 427.707 363.179 427.515 363.527 427.195 363.703C 426.789 363.918 426.789 363.918 425.312 364.16L 424.117 364.375C 421.828 364.765 420.714 365.965 420.714 368.078C 420.714 369.078 420.992 369.906 421.523 370.496C 422.183 371.191 423.183 371.605 424.211 371.605C 425.488 371.605 426.664 371.043 427.711 369.937C 427.711 370.543 427.773 370.758 428.062 371.105L 431.421 371.105L 431.421 370.742zM 427.707 366.433C 427.707 368.203 426.851 369.207 425.332 369.207C 424.328 369.207 423.707 368.664 423.707 367.789C 423.707 366.871 424.175 366.437 425.418 366.176L 426.441 365.98C 427.23 365.828 427.359 365.785 427.703 365.609L 427.707 366.433z"/>
<path style="stroke:none; fill-rule:evenodd; fill:#000000" d="M 438.605 359.711L 436.91 359.711L 436.91 356.558L 433.91 356.558L 433.91 359.711L 432.414 359.711L 432.414 361.711L 433.91 361.711L 433.91 368.871C 433.91 370.703 434.879 371.609 436.859 371.609C 437.527 371.609 438.062 371.547 438.605 371.375L 438.605 369.258C 438.3 369.293 438.129 369.312 437.91 369.312C 437.105 369.312 436.91 369.078 436.91 368.043L 436.91 361.715L 438.605 361.715L 438.605 359.711z"/>
<path style="stroke:none; fill-rule:evenodd; fill:#000000" d="M 443.808 359.449L 440.808 359.449L 440.808 371.105L 443.808 371.105L 443.808 359.449zM 443.808 355.406L 440.808 355.406L 440.808 358.105L 443.808 358.105L 443.808 355.406z"/>
<path style="stroke:none; fill-rule:evenodd; fill:#000000" d="M 451.836 359.207C 448.285 359.207 446.109 361.57 446.109 365.406C 446.109 369.262 448.281 371.605 451.859 371.605C 455.39 371.605 457.609 369.246 457.609 365.496C 457.609 361.531 455.48 359.211 451.839 359.211L 451.836 359.207zM 451.859 361.609C 453.523 361.609 454.609 363.125 454.609 365.453C 454.609 367.668 453.484 369.207 451.859 369.207C 450.214 369.207 449.113 367.672 449.113 365.41C 449.113 363.148 450.214 361.613 451.859 361.613L 451.859 361.609z"/>
<path style="stroke:none; fill-rule:evenodd; fill:#000000" d="M 459.906 359.406L 459.906 371.105L 462.906 371.105L 462.906 364.027C 462.906 362.629 463.879 361.711 465.355 361.711C 466.652 361.711 467.304 362.433 467.304 363.832L 467.304 371.109L 470.304 371.109L 470.304 363.265C 470.304 360.687 468.882 359.211 466.402 359.211C 464.828 359.211 463.773 359.804 462.91 361.133L 462.91 359.41L 459.906 359.406z"/>
<path style="stroke:#000000; stroke-width:1.59941; fill:none" d="M 96.1604 320.949L 98.5584 320.949"/>
<path style="stroke:#000000; stroke-width:1.59941; fill:none" d="M 96.1604 313.754L 98.5584 313.754"/>
<path style="stroke:#000000; stroke-width:1.59941; fill:none" d="M 96.1604 306.554L 98.5584 306.554"/>
<path style="stroke:#000000; stroke-width:1.59941; fill:none" d="M 96.1604 299.359L 98.5584 299.359"/>
<path style="stroke:#000000; stroke-width:1.59941; fill:none" d="M 96.1604 292.16L 98.5584 292.16"/>
<path style="stroke:#000000; stroke-width:1.59941; fill:none" d="M 96.1604 284.965L 98.5584 284.965"/>
<path style="stroke:#000000; stroke-width:1.59941; fill:none" d="M 96.1604 277.765L 98.5584 277.765"/>
<path style="stroke:#000000; stroke-width:1.59941; fill:none" d="M 96.1604 270.566L 98.5584 270.566"/>
<path style="stroke:#000000; stroke-width:1.59941; fill:none" d="M 96.1604 263.371L 98.5584 263.371"/>
<path style="stroke:#000000; stroke-width:1.59941; fill:none" d="M 96.1604 256.972L 98.5584 256.972"/>
<path style="stroke:#000000; stroke-width:1.59941; fill:none" d="M 96.1604 249.777L 98.5584 249.777"/>
<path style="stroke:#000000; stroke-width:1.59941; fill:none" d="M 96.1604 242.578L 98.5584 242.578"/>
<path style="stroke:#000000; stroke-width:1.59941; fill:none" d="M 96.1604 235.383L 98.5584 235.383"/>
<path style="stroke:#000000; stroke-width:1.59941; fill:none" d="M 96.1604 228.183L 98.5584 228.183"/>
<path style="stroke:#000000; stroke-width:1.59941; fill:none" d="M 96.1604 220.988L 98.5584 220.988"/>
<path style="stroke:#000000; stroke-width:1.59941; fill:none" d="M 96.1604 214.59L 98.5584 214.59"/>
<path style="stroke:#000000; stroke-width:1.59941; fill:none" d="M 96.1604 207.39L 98.5584 207.39"/>
<path style="stroke:#000000; stroke-width:1.59941; fill:none" d="M 96.1604 200.195L 98.5584 200.195"/>
<path style="stroke:#000000; stroke-width:1.59941; fill:none" d="M 96.1604 192.996L 98.5584 192.996"/>
<path style="stroke:#000000; stroke-width:1.59941; fill:none" d="M 96.1604 185.801L 98.5584 185.801"/>
<path style="stroke:#000000; stroke-width:1.59941; fill:none" d="M 96.1604 178.601L 98.5584 178.601"/>
<path style="stroke:#000000; stroke-width:1.59941; fill:none" d="M 96.1604 171.402L 98.5584 171.402"/>
<path style="stroke:#000000; stroke-width:1.59941; fill:none" d="M 96.1604 164.207L 98.5584 164.207"/>
<path style="stroke:#000000; stroke-width:1.59941; fill:none" d="M 96.1604 157.808L 98.5584 157.808"/>
<path style="stroke:#000000; stroke-width:1.59941; fill:none" d="M 96.1604 150.613L 98.5584 150.613"/>
<path style="stroke:#000000; stroke-width:1.59941; fill:none" d="M 96.1604 143.414L 98.5584 143.414"/>
<path style="stroke:#000000; stroke-width:1.59941; fill:none" d="M 96.1604 136.218L 98.5584 136.218"/>
<path style="stroke:#000000; stroke-width:1.59941; fill:none" d="M 96.1604 129.019L 98.5584 129.019"/>
<path style="stroke:#000000; stroke-width:1.59941; fill:none" d="M 96.1604 121.824L 98.5584 121.824"/>
<path style="stroke:#000000; stroke-width:1.59941; fill:none" d="M 96.1604 114.625L 98.5584 114.625"/>
<path style="stroke:#000000; stroke-width:1.59941; fill:none" d="M 96.1604 108.226L 98.5584 108.226"/>
<path style="stroke:#000000; stroke-width:1.59941; fill:none" d="M 96.1604 101.031L 98.5584 101.031"/>
<path style="stroke:#000000; stroke-width:1.59941; fill:none" d="M 96.1604 93.832L 98.5584 93.832"/>
<path style="stroke:#000000; stroke-width:1.59941; fill:none" d="M 96.1604 86.636L 98.5584 86.636"/>
<path style="stroke:#000000; stroke-width:1.59941; fill:none" d="M 96.1604 79.437L 98.5584 79.437"/>
<path style="stroke:#000000; stroke-width:1.59941; fill:none" d="M 96.1604 72.242L 98.5584 72.242"/>
<path style="stroke:#000000; stroke-width:1.59941; fill:none" d="M 96.1604 65.844L 98.5584 65.844"/>
<path style="stroke:#000000; stroke-width:1.59941; fill:none" d="M 96.1604 58.644L 98.5584 58.644"/>
<path style="stroke:#000000; stroke-width:1.59941; fill:none" d="M 96.1604 51.449L 98.5584 51.449"/>
<path style="stroke:#000000; stroke-width:1.59941; fill:none" d="M 96.1604 44.25L 98.5584 44.25"/>
<path style="stroke:#000000; stroke-width:1.59941; fill:none" d="M 96.1604 37.054L 98.5584 37.054"/>
<path style="stroke:#000000; stroke-width:1.59941; fill:none" d="M 486.414 320.949L 484.015 320.949"/>
<path style="stroke:#000000; stroke-width:1.59941; fill:none" d="M 486.414 313.754L 484.015 313.754"/>
<path style="stroke:#000000; stroke-width:1.59941; fill:none" d="M 486.414 306.554L 484.015 306.554"/>
<path style="stroke:#000000; stroke-width:1.59941; fill:none" d="M 486.414 299.359L 484.015 299.359"/>
<path style="stroke:#000000; stroke-width:1.59941; fill:none" d="M 486.414 292.16L 484.015 292.16"/>
<path style="stroke:#000000; stroke-width:1.59941; fill:none" d="M 486.414 284.965L 484.015 284.965"/>
<path style="stroke:#000000; stroke-width:1.59941; fill:none" d="M 486.414 277.765L 484.015 277.765"/>
<path style="stroke:#000000; stroke-width:1.59941; fill:none" d="M 486.414 270.566L 484.015 270.566"/>
<path style="stroke:#000000; stroke-width:1.59941; fill:none" d="M 486.414 263.371L 484.015 263.371"/>
<path style="stroke:#000000; stroke-width:1.59941; fill:none" d="M 486.414 256.972L 484.015 256.972"/>
<path style="stroke:#000000; stroke-width:1.59941; fill:none" d="M 486.414 249.777L 484.015 249.777"/>
<path style="stroke:#000000; stroke-width:1.59941; fill:none" d="M 486.414 242.578L 484.015 242.578"/>
<path style="stroke:#000000; stroke-width:1.59941; fill:none" d="M 486.414 235.383L 484.015 235.383"/>
<path style="stroke:#000000; stroke-width:1.59941; fill:none" d="M 486.414 228.183L 484.015 228.183"/>
<path style="stroke:#000000; stroke-width:1.59941; fill:none" d="M 486.414 220.988L 484.015 220.988"/>
<path style="stroke:#000000; stroke-width:1.59941; fill:none" d="M 486.414 214.59L 484.015 214.59"/>
<path style="stroke:#000000; stroke-width:1.59941; fill:none" d="M 486.414 207.39L 484.015 207.39"/>
<path style="stroke:#000000; stroke-width:1.59941; fill:none" d="M 486.414 200.195L 484.015 200.195"/>
<path style="stroke:#000000; stroke-width:1.59941; fill:none" d="M 486.414 192.996L 484.015 192.996"/>
<path style="stroke:#000000; stroke-width:1.59941; fill:none" d="M 486.414 185.801L 484.015 185.801"/>
<path style="stroke:#000000; stroke-width:1.59941; fill:none" d="M 486.414 178.601L 484.015 178.601"/>
<path style="stroke:#000000; stroke-width:1.59941; fill:none" d="M 486.414 171.402L 484.015 171.402"/>
<path style="stroke:#000000; stroke-width:1.59941; fill:none" d="M 486.414 164.207L 484.015 164.207"/>
<path style="stroke:#000000; stroke-width:1.59941; fill:none" d="M 486.414 157.808L 484.015 157.808"/>
<path style="stroke:#000000; stroke-width:1.59941; fill:none" d="M 486.414 150.613L 484.015 150.613"/>
<path style="stroke:#000000; stroke-width:1.59941; fill:none" d="M 486.414 143.414L 484.015 143.414"/>
<path style="stroke:#000000; stroke-width:1.59941; fill:none" d="M 486.414 136.218L 484.015 136.218"/>
<path style="stroke:#000000; stroke-width:1.59941; fill:none" d="M 486.414 129.019L 484.015 129.019"/>
<path style="stroke:#000000; stroke-width:1.59941; fill:none" d="M 486.414 121.824L 484.015 121.824"/>
<path style="stroke:#000000; stroke-width:1.59941; fill:none" d="M 486.414 114.625L 484.015 114.625"/>
<path style="stroke:#000000; stroke-width:1.59941; fill:none" d="M 486.414 108.226L 484.015 108.226"/>
<path style="stroke:#000000; stroke-width:1.59941; fill:none" d="M 486.414 101.031L 484.015 101.031"/>
<path style="stroke:#000000; stroke-width:1.59941; fill:none" d="M 486.414 93.832L 484.015 93.832"/>
<path style="stroke:#000000; stroke-width:1.59941; fill:none" d="M 486.414 86.636L 484.015 86.636"/>
<path style="stroke:#000000; stroke-width:1.59941; fill:none" d="M 486.414 79.437L 484.015 79.437"/>
<path style="stroke:#000000; stroke-width:1.59941; fill:none" d="M 486.414 72.242L 484.015 72.242"/>
<path style="stroke:#000000; stroke-width:1.59941; fill:none" d="M 486.414 65.844L 484.015 65.844"/>
<path style="stroke:#000000; stroke-width:1.59941; fill:none" d="M 486.414 58.644L 484.015 58.644"/>
<path style="stroke:#000000; stroke-width:1.59941; fill:none" d="M 486.414 51.449L 484.015 51.449"/>
<path style="stroke:#000000; stroke-width:1.59941; fill:none" d="M 486.414 44.25L 484.015 44.25"/>
<path style="stroke:#000000; stroke-width:1.59941; fill:none" d="M 486.414 37.054L 484.015 37.054"/>
<path style="stroke:#000000; stroke-width:1.59941; fill:none" d="M 96.1604 320.949L 100.957 320.949"/>
<path style="stroke:#000000; stroke-width:1.59941; fill:none" d="M 96.1604 249.777L 100.957 249.777"/>
<path style="stroke:#000000; stroke-width:1.59941; fill:none" d="M 96.1604 178.601L 100.957 178.601"/>
<path style="stroke:#000000; stroke-width:1.59941; fill:none" d="M 96.1604 108.226L 100.957 108.226"/>
<path style="stroke:#000000; stroke-width:1.59941; fill:none" d="M 96.1604 37.054L 100.957 37.054"/>
<path style="stroke:#000000; stroke-width:1.59941; fill:none" d="M 486.414 320.949L 481.617 320.949"/>
<path style="stroke:#000000; stroke-width:1.59941; fill:none" d="M 486.414 249.777L 481.617 249.777"/>
<path style="stroke:#000000; stroke-width:1.59941; fill:none" d="M 486.414 178.601L 481.617 178.601"/>
<path style="stroke:#000000; stroke-width:1.59941; fill:none" d="M 486.414 108.226L 481.617 108.226"/>
<path style="stroke:#000000; stroke-width:1.59941; fill:none" d="M 486.414 37.054L 481.617 37.054"/>
<path style="stroke:none; fill-rule:evenodd; fill:#000000" d="M 46.1563 309.91C 44.75 309.91 43.4688 310.539 42.6797 311.609C 41.6992 312.945 41.211 314.996 41.211 317.82C 41.211 322.968 42.9141 325.707 46.1602 325.707C 49.3594 325.707 51.1094 322.972 51.1094 317.949C 51.1094 314.976 50.6406 312.992 49.6367 311.609C 48.8516 310.523 47.5899 309.91 46.1602 309.91L 46.1563 309.91zM 46.1563 311.609C 48.1953 311.609 49.2032 313.672 49.2032 317.761C 49.2032 322.082 48.2149 324.105 46.1133 324.105C 44.1172 324.105 43.1094 322 43.1094 317.824C 43.1094 313.652 44.1172 311.609 46.1563 311.609z"/>
<path style="stroke:none; fill-rule:evenodd; fill:#000000" d="M 54.1094 325.207L 56.3086 325.207L 56.3086 323.008L 54.1094 323.008L 54.1094 325.207z"/>
<path style="stroke:none; fill-rule:evenodd; fill:#000000" d="M 64.1563 309.91C 62.75 309.91 61.4688 310.539 60.6797 311.609C 59.6992 312.945 59.211 314.996 59.211 317.82C 59.211 322.968 60.9141 325.707 64.1602 325.707C 67.3594 325.707 69.1094 322.972 69.1094 317.949C 69.1094 314.976 68.6404 312.992 67.6364 311.609C 66.8514 310.523 65.5899 309.91 64.1602 309.91L 64.1563 309.91zM 64.1563 311.609C 66.1953 311.609 67.2034 313.672 67.2034 317.761C 67.2034 322.082 66.2149 324.105 64.1133 324.105C 62.1172 324.105 61.1094 322 61.1094 317.824C 61.1094 313.652 62.1172 311.609 64.1563 311.609z"/>
<path style="stroke:none; fill-rule:evenodd; fill:#000000" d="M 76.1564 309.91C 74.7504 309.91 73.4684 310.539 72.6794 311.609C 71.6994 312.945 71.2114 314.996 71.2114 317.82C 71.2114 322.968 72.9144 325.707 76.1604 325.707C 79.3594 325.707 81.1094 322.972 81.1094 317.949C 81.1094 314.976 80.6404 312.992 79.6364 311.609C 78.8514 310.523 77.5894 309.91 76.1604 309.91L 76.1564 309.91zM 76.1564 311.609C 78.1954 311.609 79.2034 313.672 79.2034 317.761C 79.2034 322.082 78.2144 324.105 76.1134 324.105C 74.1174 324.105 73.1094 322 73.1094 317.824C 73.1094 313.652 74.1174 311.609 76.1564 311.609z"/>
<path style="stroke:none; fill-rule:evenodd; fill:#000000" d="M 46.1563 238.711C 44.75 238.711 43.4688 239.34 42.6797 240.41C 41.6992 241.746 41.211 243.797 41.211 246.621C 41.211 251.769 42.9141 254.508 46.1602 254.508C 49.3594 254.508 51.1094 251.773 51.1094 246.75C 51.1094 243.777 50.6406 241.793 49.6367 240.41C 48.8516 239.324 47.5899 238.711 46.1602 238.711L 46.1563 238.711zM 46.1563 240.41C 48.1953 240.41 49.2032 242.472 49.2032 246.562C 49.2032 250.883 48.2149 252.906 46.1133 252.906C 44.1172 252.906 43.1094 250.801 43.1094 246.625C 43.1094 242.453 44.1172 240.41 46.1563 240.41z"/>
<path style="stroke:none; fill-rule:evenodd; fill:#000000" d="M 54.1094 254.008L 56.3086 254.008L 56.3086 251.808L 54.1094 251.808L 54.1094 254.008z"/>
<path style="stroke:none; fill-rule:evenodd; fill:#000000" d="M 63.9063 243.113L 63.9063 254.008L 65.7032 254.008L 65.7032 238.711L 64.4492 238.711C 63.7813 241.062 63.3477 241.386 60.4063 241.754L 60.4063 243.109L 63.9063 243.113z"/>
<path style="stroke:none; fill-rule:evenodd; fill:#000000" d="M 76.1564 238.711C 74.7504 238.711 73.4684 239.34 72.6794 240.41C 71.6994 241.746 71.2114 243.797 71.2114 246.621C 71.2114 251.769 72.9144 254.508 76.1604 254.508C 79.3594 254.508 81.1094 251.773 81.1094 246.75C 81.1094 243.777 80.6404 241.793 79.6364 240.41C 78.8514 239.324 77.5894 238.711 76.1604 238.711L 76.1564 238.711zM 76.1564 240.41C 78.1954 240.41 79.2034 242.472 79.2034 246.562C 79.2034 250.883 78.2144 252.906 76.1134 252.906C 74.1174 252.906 73.1094 250.801 73.1094 246.625C 73.1094 242.453 74.1174 240.41 76.1564 240.41z"/>
<path style="stroke:none; fill-rule:evenodd; fill:#000000" d="M 46.1563 168.308C 44.75 168.308 43.4688 168.937 42.6797 170.008C 41.6992 171.344 41.211 173.394 41.211 176.218C 41.211 181.367 42.9141 184.105 46.1602 184.105C 49.3594 184.105 51.1094 181.371 51.1094 176.347C 51.1094 173.375 50.6406 171.39 49.6367 170.008C 48.8516 168.922 47.5899 168.308 46.1602 168.308L 46.1563 168.308zM 46.1563 170.008C 48.1953 170.008 49.2032 172.07 49.2032 176.16C 49.2032 180.48 48.2149 182.504 46.1133 182.504C 44.1172 182.504 43.1094 180.398 43.1094 176.222C 43.1094 172.051 44.1172 170.008 46.1563 170.008z"/>
<path style="stroke:none; fill-rule:evenodd; fill:#000000" d="M 54.1094 183.609L 56.3086 183.609L 56.3086 181.41L 54.1094 181.41L 54.1094 183.609z"/>
<path style="stroke:none; fill-rule:evenodd; fill:#000000" d="M 69.0974 181.707L 61.0742 181.707C 61.2656 180.461 61.9532 179.664 63.8282 178.562L 65.9766 177.402C 68.1054 176.242 69.2034 174.668 69.2034 172.797C 69.2034 171.527 68.6874 170.344 67.7854 169.523C 66.8824 168.707 65.7656 168.316 64.3242 168.316C 62.3906 168.316 60.9453 169.004 60.1094 170.297C 59.5742 171.113 59.336 172.062 59.293 173.613L 61.1914 173.613C 61.2539 172.594 61.3828 171.972 61.6446 171.484C 62.1406 170.57 63.1328 170.015 64.2813 170.015C 66.0078 170.015 67.3044 171.242 67.3044 172.879C 67.3044 174.082 66.5938 175.113 65.2305 175.89L 63.2461 177.008C 60.0508 178.812 59.1211 180.254 58.9453 183.609L 69.1014 183.609L 69.0974 181.707z"/>
<path style="stroke:none; fill-rule:evenodd; fill:#000000" d="M 76.1564 168.308C 74.7504 168.308 73.4684 168.937 72.6794 170.008C 71.6994 171.344 71.2114 173.394 71.2114 176.218C 71.2114 181.367 72.9144 184.105 76.1604 184.105C 79.3594 184.105 81.1094 181.371 81.1094 176.347C 81.1094 173.375 80.6404 171.39 79.6364 170.008C 78.8514 168.922 77.5894 168.308 76.1604 168.308L 76.1564 168.308zM 76.1564 170.008C 78.1954 170.008 79.2034 172.07 79.2034 176.16C 79.2034 180.48 78.2144 182.504 76.1134 182.504C 74.1174 182.504 73.1094 180.398 73.1094 176.222C 73.1094 172.051 74.1174 170.008 76.1564 170.008z"/>
<path style="stroke:none; fill-rule:evenodd; fill:#000000" d="M 46.1563 97.211C 44.75 97.211 43.4688 97.84 42.6797 98.91C 41.6992 100.246 41.211 102.297 41.211 105.121C 41.211 110.269 42.9141 113.008 46.1602 113.008C 49.3594 113.008 51.1094 110.273 51.1094 105.25C 51.1094 102.277 50.6406 100.293 49.6367 98.91C 48.8516 97.824 47.5899 97.211 46.1602 97.211L 46.1563 97.211zM 46.1563 98.91C 48.1953 98.91 49.2032 100.972 49.2032 105.062C 49.2032 109.383 48.2149 111.406 46.1133 111.406C 44.1172 111.406 43.1094 109.301 43.1094 105.125C 43.1094 100.953 44.1172 98.91 46.1563 98.91z"/>
<path style="stroke:none; fill-rule:evenodd; fill:#000000" d="M 54.1094 112.508L 56.3086 112.508L 56.3086 110.308L 54.1094 110.308L 54.1094 112.508z"/>
<path style="stroke:none; fill-rule:evenodd; fill:#000000" d="M 62.9805 105.508L 64.0196 105.508C 66.1211 105.508 67.2074 106.449 67.2074 108.269C 67.2074 110.172 66.0196 111.304 64.0274 111.304C 61.9532 111.304 60.9336 110.273 60.8047 108.058L 58.9024 108.058C 58.9883 109.289 59.2032 110.09 59.5703 110.781C 60.3438 112.25 61.8516 113.004 63.9375 113.004C 67.0784 113.004 69.1054 111.129 69.1054 108.234C 69.1054 106.293 68.3594 105.215 66.543 104.59C 67.9844 104.031 68.7074 102.953 68.7074 101.418C 68.7074 98.785 66.9534 97.207 64.0313 97.207C 60.9375 97.207 59.2891 98.886 59.2266 102.14L 61.1446 102.14C 61.1641 101.226 61.25 100.715 61.4922 100.25C 61.9258 99.422 62.8867 98.91 64.086 98.91C 65.7852 98.91 66.8084 99.898 66.8084 101.515C 66.8084 102.59 66.4141 103.238 65.5547 103.582C 65.0274 103.797 64.3477 103.883 62.9844 103.902L 62.9805 105.508z"/>
<path style="stroke:none; fill-rule:evenodd; fill:#000000" d="M 76.1564 97.211C 74.7504 97.211 73.4684 97.84 72.6794 98.91C 71.6994 100.246 71.2114 102.297 71.2114 105.121C 71.2114 110.269 72.9144 113.008 76.1604 113.008C 79.3594 113.008 81.1094 110.273 81.1094 105.25C 81.1094 102.277 80.6404 100.293 79.6364 98.91C 78.8514 97.824 77.5894 97.211 76.1604 97.211L 76.1564 97.211zM 76.1564 98.91C 78.1954 98.91 79.2034 100.972 79.2034 105.062C 79.2034 109.383 78.2144 111.406 76.1134 111.406C 74.1174 111.406 73.1094 109.301 73.1094 105.125C 73.1094 100.953 74.1174 98.91 76.1564 98.91z"/>
<path style="stroke:none; fill-rule:evenodd; fill:#000000" d="M 46.1563 26.008C 44.75 26.008 43.4688 26.636 42.6797 27.707C 41.6992 29.043 41.211 31.094 41.211 33.918C 41.211 39.066 42.9141 41.804 46.1602 41.804C 49.3594 41.804 51.1094 39.07 51.1094 34.047C 51.1094 31.074 50.6406 29.09 49.6367 27.707C 48.8516 26.621 47.5899 26.008 46.1602 26.008L 46.1563 26.008zM 46.1563 27.711C 48.1953 27.711 49.2032 29.773 49.2032 33.863C 49.2032 38.183 48.2149 40.207 46.1133 40.207C 44.1172 40.207 43.1094 38.101 43.1094 33.926C 43.1094 29.754 44.1172 27.711 46.1563 27.711z"/>
<path style="stroke:none; fill-rule:evenodd; fill:#000000" d="M 54.1094 41.308L 56.3086 41.308L 56.3086 39.109L 54.1094 39.109L 54.1094 41.308z"/>
<path style="stroke:none; fill-rule:evenodd; fill:#000000" d="M 65.4063 37.609L 65.4063 41.304L 67.2034 41.304L 67.2034 37.609L 69.4294 37.609L 69.4294 35.91L 67.2034 35.91L 67.2034 26.011L 65.793 26.011L 58.8086 35.609L 58.8086 37.609L 65.4063 37.609zM 65.4063 35.91L 60.4766 35.91L 65.4063 29.242L 65.4063 35.91z"/>
<path style="stroke:none; fill-rule:evenodd; fill:#000000" d="M 76.1564 26.008C 74.7504 26.008 73.4684 26.636 72.6794 27.707C 71.6994 29.043 71.2114 31.094 71.2114 33.918C 71.2114 39.066 72.9144 41.804 76.1604 41.804C 79.3594 41.804 81.1094 39.07 81.1094 34.047C 81.1094 31.074 80.6404 29.09 79.6364 27.707C 78.8514 26.621 77.5894 26.008 76.1604 26.008L 76.1564 26.008zM 76.1564 27.711C 78.1954 27.711 79.2034 29.773 79.2034 33.863C 79.2034 38.183 78.2144 40.207 76.1134 40.207C 74.1174 40.207 73.1094 38.101 73.1094 33.926C 73.1094 29.754 74.1174 27.711 76.1564 27.711z"/>
<path style="stroke:none; fill-rule:evenodd; fill:#000000" d="M 7.5078 267.258L 7.5078 273.586L 10.2071 273.586L 10.2071 269.988C 11.0899 270.074 11.6328 270.289 12.1914 270.765C 13.1406 271.543 13.7032 272.738 13.7032 273.992C 13.7032 276.613 11.4297 278.5 8.211 278.5C 4.8438 278.5 2.8047 276.832 2.8047 274.078C 2.8047 272.953 3.1211 272 3.7383 271.285C 4.1211 270.832 4.4805 270.594 5.2891 270.312L 5.2891 267.258C 2.0508 267.648 0 270.281 0 274.082C 0 278.617 3.3477 281.703 8.25 281.703C 13.0196 281.703 16.5 278.594 16.5 274.34C 16.5 272.226 15.7422 270.801 13.9649 269.59L 16.043 269.203L 16.043 267.258L 7.5078 267.258z"/>
<path style="stroke:none; fill-rule:evenodd; fill:#000000" d="M 11.1094 254.496C 10.8516 254.476 10.7422 254.476 10.5899 254.476C 9.4219 254.476 8.336 254.648 7.5156 254.929C 5.3946 255.703 4.1133 257.582 4.1133 259.937C 4.1133 263.281 6.543 265.332 10.4649 265.332C 14.2149 265.332 16.5117 263.304 16.5117 260C 16.5117 257.39 15.0235 255.273 12.7305 254.605L 12.7305 257.582C 13.668 257.945 14.211 258.789 14.211 259.89C 14.211 260.754 13.8438 261.445 13.1875 261.875C 12.7539 262.152 12.2266 262.261 11.1133 262.304L 11.1094 254.496zM 9.1094 262.265C 7.3125 262.074 6.4102 261.316 6.4102 259.98C 6.4102 259.226 6.7813 258.535 7.3946 258.101C 7.8321 257.824 8.293 257.691 9.1055 257.629L 9.1094 262.265z"/>
<path style="stroke:none; fill-rule:evenodd; fill:#000000" d="M 4.3086 252.41L 16.0078 252.41L 16.0078 249.41L 8.9297 249.41C 7.5313 249.41 6.6133 248.437 6.6133 246.961C 6.6133 245.664 7.336 245.011 8.7344 245.011L 16.0117 245.011L 16.0117 242.011L 8.168 242.011C 5.5899 242.011 4.1133 243.433 4.1133 245.914C 4.1133 247.488 4.7071 248.543 6.0352 249.406L 4.3125 249.406L 4.3086 252.41z"/>
<path style="stroke:none; fill-rule:evenodd; fill:#000000" d="M 11.1094 229.293C 10.8516 229.273 10.7422 229.273 10.5899 229.273C 9.4219 229.273 8.336 229.445 7.5156 229.726C 5.3946 230.5 4.1133 232.379 4.1133 234.734C 4.1133 238.078 6.543 240.129 10.4649 240.129C 14.2149 240.129 16.5117 238.101 16.5117 234.797C 16.5117 232.187 15.0235 230.07 12.7305 229.402L 12.7305 232.379C 13.668 232.742 14.211 233.586 14.211 234.687C 14.211 235.551 13.8438 236.242 13.1875 236.672C 12.7539 236.949 12.2266 237.058 11.1133 237.101L 11.1094 229.293zM 9.1094 237.066C 7.3125 236.875 6.4102 236.117 6.4102 234.781C 6.4102 234.027 6.7813 233.336 7.3946 232.902C 7.8321 232.625 8.293 232.492 9.1055 232.429L 9.1094 237.066z"/>
<path style="stroke:none; fill-rule:evenodd; fill:#000000" d="M 4.3086 227.211L 16.0078 227.211L 16.0078 224.211L 9.8516 224.211C 8.0938 224.211 7.211 223.332 7.211 221.57C 7.211 221.25 7.2188 221.035 7.2422 220.625L 4.211 220.625C 4.211 220.797 4.211 220.902 4.211 220.988C 4.211 222.363 5.0977 223.566 6.6367 224.211L 4.3086 224.211L 4.3086 227.211z"/>
<path style="stroke:none; fill-rule:evenodd; fill:#000000" d="M 15.6406 208.894C 15.1446 209.449 14.8203 209.605 14.211 209.605L 7.711 209.605C 5.3282 209.605 4.1133 211.218 4.1133 214.363C 4.1133 217.508 5.4649 219.144 8.1953 219.336L 8.1953 216.453C 6.9219 216.304 6.5117 215.812 6.5117 214.34C 6.5117 213.187 6.9024 212.609 7.6875 212.609C 8.0782 212.609 8.4258 212.801 8.6016 213.121C 8.8164 213.527 8.8164 213.527 9.0547 215.004L 9.2696 216.199C 9.6602 218.488 10.8594 219.601 12.9727 219.601C 13.9727 219.601 14.8008 219.324 15.3906 218.793C 16.086 218.133 16.5 217.133 16.5 216.105C 16.5 214.828 15.9375 213.652 14.8321 212.605C 15.4375 212.605 15.6524 212.543 16 212.254L 16 208.894L 15.6406 208.894zM 11.3321 212.609C 13.1016 212.609 14.1055 213.465 14.1055 214.984C 14.1055 215.988 13.5625 216.609 12.6875 216.609C 11.7696 216.609 11.336 216.14 11.0742 214.898L 10.8789 213.875C 10.7266 213.086 10.6836 212.957 10.5078 212.613L 11.3321 212.609z"/>
<path style="stroke:none; fill-rule:evenodd; fill:#000000" d="M 0.308601 206.609L 16.0078 206.609L 16.0078 203.609L 0.308601 203.609L 0.308601 206.609z"/>
<path style="stroke:none; fill-rule:evenodd; fill:#000000" d="M 4.3477 197.605L 4.3477 200.605L 16.0039 200.605L 16.0039 197.605L 4.3477 197.605zM 0.308601 197.605L 0.308601 200.605L 3.0078 200.605L 3.0078 197.605L 0.308601 197.605z"/>
<path style="stroke:none; fill-rule:evenodd; fill:#000000" d="M 4.3086 186.195L 4.3086 195.261L 6.7071 195.261L 6.7071 189.886L 13.6055 195.648L 16.0039 195.648L 16.0039 186L 13.6055 186L 13.6055 191.914L 6.7071 186.195L 4.3086 186.195z"/>
<path style="stroke:none; fill-rule:evenodd; fill:#000000" d="M 15.6406 173.996C 15.1446 174.551 14.8203 174.707 14.211 174.707L 7.711 174.707C 5.3282 174.707 4.1133 176.32 4.1133 179.465C 4.1133 182.609 5.4649 184.246 8.1953 184.437L 8.1953 181.554C 6.9219 181.406 6.5117 180.914 6.5117 179.441C 6.5117 178.289 6.9024 177.711 7.6875 177.711C 8.0782 177.711 8.4258 177.902 8.6016 178.222C 8.8164 178.629 8.8164 178.629 9.0547 180.105L 9.2696 181.301C 9.6602 183.59 10.8594 184.703 12.9727 184.703C 13.9727 184.703 14.8008 184.426 15.3906 183.894C 16.086 183.234 16.5 182.234 16.5 181.207C 16.5 179.929 15.9375 178.754 14.8321 177.707C 15.4375 177.707 15.6524 177.644 16 177.355L 16 173.996L 15.6406 173.996zM 11.3321 177.707C 13.1016 177.707 14.1055 178.562 14.1055 180.082C 14.1055 181.086 13.5625 181.707 12.6875 181.707C 11.7696 181.707 11.336 181.238 11.0742 179.996L 10.8789 178.972C 10.7266 178.183 10.6836 178.054 10.5078 177.711L 11.3321 177.707z"/>
<path style="stroke:none; fill-rule:evenodd; fill:#000000" d="M 4.6055 166.808L 4.6055 168.504L 1.4571 168.504L 1.4571 171.504L 4.6055 171.504L 4.6055 173L 6.6055 173L 6.6055 171.504L 13.7656 171.504C 15.5977 171.504 16.5039 170.535 16.5039 168.554C 16.5039 167.886 16.4414 167.351 16.2696 166.808L 14.1524 166.808C 14.1875 167.113 14.2071 167.285 14.2071 167.504C 14.2071 168.308 13.9727 168.504 12.9375 168.504L 6.6094 168.504L 6.6094 166.808L 4.6055 166.808z"/>
<path style="stroke:none; fill-rule:evenodd; fill:#000000" d="M 4.3477 161.707L 4.3477 164.707L 16.0039 164.707L 16.0039 161.707L 4.3477 161.707zM 0.308601 161.707L 0.308601 164.707L 3.0078 164.707L 3.0078 161.707L 0.308601 161.707z"/>
<path style="stroke:none; fill-rule:evenodd; fill:#000000" d="M 4.1094 153.679C 4.1094 157.23 6.4727 159.406 10.3086 159.406C 14.1641 159.406 16.5078 157.234 16.5078 153.656C 16.5078 150.125 14.1485 147.906 10.3985 147.906C 6.4336 147.906 4.1133 150.035 4.1133 153.676L 4.1094 153.679zM 6.5078 153.656C 6.5078 151.992 8.0235 150.906 10.3516 150.906C 12.5664 150.906 14.1055 152.031 14.1055 153.656C 14.1055 155.301 12.5703 156.402 10.3086 156.402C 8.0469 156.402 6.5117 155.301 6.5117 153.656L 6.5078 153.656z"/>
<path style="stroke:none; fill-rule:evenodd; fill:#000000" d="M 4.3086 145.609L 16.0078 145.609L 16.0078 142.609L 8.9297 142.609C 7.5313 142.609 6.6133 141.636 6.6133 140.16C 6.6133 138.863 7.336 138.211 8.7344 138.211L 16.0117 138.211L 16.0117 135.211L 8.168 135.211C 5.5899 135.211 4.1133 136.633 4.1133 139.113C 4.1133 140.687 4.7071 141.742 6.0352 142.605L 4.3125 142.605L 4.3086 145.609z"/>
<path style="stroke:none; fill-rule:evenodd; fill:#000000" d="M 9.2071 122.906L 9.2071 115.328L 6.5078 115.328L 6.5078 122.906L 3.0078 122.906L 3.0078 114.722L 0.308601 114.722L 0.308601 126.105L 16.0078 126.105L 16.0078 114.336L 13.3086 114.336L 13.3086 122.906L 9.2071 122.906z"/>
<path style="stroke:none; fill-rule:evenodd; fill:#000000" d="M 4.3086 112.008L 16.0078 112.008L 16.0078 109.008L 9.8516 109.008C 8.0938 109.008 7.211 108.129 7.211 106.367C 7.211 106.047 7.2188 105.832 7.2422 105.422L 4.211 105.422C 4.211 105.594 4.211 105.699 4.211 105.785C 4.211 107.16 5.0977 108.363 6.6367 109.008L 4.3086 109.008L 4.3086 112.008z"/>
<path style="stroke:none; fill-rule:evenodd; fill:#000000" d="M 4.3086 103.609L 16.0078 103.609L 16.0078 100.609L 9.8516 100.609C 8.0938 100.609 7.211 99.73 7.211 97.968C 7.211 97.648 7.2188 97.433 7.2422 97.023L 4.211 97.023C 4.211 97.195 4.211 97.301 4.211 97.386C 4.211 98.761 5.0977 99.965 6.6367 100.609L 4.3086 100.609L 4.3086 103.609z"/>
<path style="stroke:none; fill-rule:evenodd; fill:#000000" d="M 4.1094 90.082C 4.1094 93.633 6.4727 95.808 10.3086 95.808C 14.1641 95.808 16.5078 93.636 16.5078 90.058C 16.5078 86.527 14.1485 84.308 10.3985 84.308C 6.4336 84.308 4.1133 86.437 4.1133 90.078L 4.1094 90.082zM 6.5078 90.058C 6.5078 88.394 8.0235 87.308 10.3516 87.308C 12.5664 87.308 14.1055 88.433 14.1055 90.058C 14.1055 91.703 12.5703 92.804 10.3086 92.804C 8.0469 92.804 6.5117 91.703 6.5117 90.058L 6.5078 90.058z"/>
<path style="stroke:none; fill-rule:evenodd; fill:#000000" d="M 4.3086 82.008L 16.0078 82.008L 16.0078 79.008L 9.8516 79.008C 8.0938 79.008 7.211 78.129 7.211 76.367C 7.211 76.047 7.2188 75.832 7.2422 75.422L 4.211 75.422C 4.211 75.594 4.211 75.699 4.211 75.785C 4.211 77.16 5.0977 78.363 6.6367 79.008L 4.3086 79.008L 4.3086 82.008z"/>
<path style="stroke:none; fill-rule:evenodd; fill:#000000" d="M 124.414 5.06201C 124.414 3.617 124.093 2.668 123.316 1.80402C 122.261 0.640015 120.519 0.0150146 118.257 0.0150146C 114.488 0.0150146 112.316 1.797 112.316 4.883C 112.316 7.336 113.558 8.53101 116.793 9.14001L 119.019 9.57401C 121.203 9.98401 122.011 10.594 122.011 11.879C 122.011 13.203 120.785 14.008 118.793 14.008C 116.562 14.008 115.312 13.047 115.203 11.301L 112.007 11.301C 112.199 14.668 114.515 16.508 118.543 16.508C 122.609 16.508 125.011 14.597 125.011 11.379C 125.011 8.879 123.75 7.578 120.808 7.01102L 118.324 6.535C 115.996 6.082 115.316 5.625 115.316 4.47202C 115.316 3.27701 116.379 2.51901 118.05 2.51901C 120.113 2.51901 121.265 3.414 121.375 5.07001L 124.414 5.06201z"/>
<path style="stroke:none; fill-rule:evenodd; fill:#000000" d="M 130.007 4.30402L 127.007 4.30402L 127.007 20.707L 130.007 20.707L 130.007 14.629C 130.738 15.91 131.773 16.511 133.238 16.511C 136.039 16.511 138.105 13.875 138.105 10.324C 138.105 8.67902 137.632 7.039 136.855 5.957C 136.082 4.85501 134.636 4.117 133.238 4.117C 131.773 4.117 130.742 4.746 130.007 6.043L 130.007 4.30402zM 132.558 6.60901C 134.089 6.60901 135.105 8.11301 135.105 10.363C 135.105 12.5 134.047 14.008 132.558 14.008C 131.047 14.008 130.011 12.527 130.011 10.32C 130.011 8.117 131.047 6.60901 132.558 6.60901z"/>
<path style="stroke:none; fill-rule:evenodd; fill:#000000" d="M 150.222 15.64C 149.668 15.144 149.511 14.82 149.511 14.211L 149.511 7.711C 149.511 5.328 147.898 4.11301 144.754 4.11301C 141.609 4.11301 139.972 5.465 139.781 8.19501L 142.664 8.19501C 142.812 6.922 143.304 6.51102 144.777 6.51102C 145.929 6.51102 146.507 6.90201 146.507 7.68701C 146.507 8.078 146.316 8.42599 145.996 8.60101C 145.589 8.81601 145.589 8.81601 144.113 9.05801L 142.918 9.27301C 140.629 9.664 139.515 10.863 139.515 12.976C 139.515 13.976 139.793 14.804 140.324 15.394C 140.984 16.09 141.984 16.504 143.011 16.504C 144.289 16.504 145.464 15.941 146.511 14.836C 146.511 15.441 146.574 15.656 146.863 16.004L 150.222 16.004L 150.222 15.64zM 146.507 11.332C 146.507 13.101 145.652 14.105 144.132 14.105C 143.129 14.105 142.507 13.562 142.507 12.687C 142.507 11.769 142.976 11.336 144.218 11.074L 145.242 10.879C 146.031 10.726 146.16 10.683 146.504 10.508L 146.507 11.332z"/>
<path style="stroke:none; fill-rule:evenodd; fill:#000000" d="M 157.406 4.60901L 155.711 4.60901L 155.711 1.457L 152.711 1.457L 152.711 4.60901L 151.214 4.60901L 151.214 6.60901L 152.711 6.60901L 152.711 13.769C 152.711 15.601 153.679 16.508 155.66 16.508C 156.328 16.508 156.863 16.445 157.406 16.273L 157.406 14.156C 157.101 14.191 156.929 14.211 156.711 14.211C 155.906 14.211 155.711 13.976 155.711 12.941L 155.711 6.61301L 157.406 6.61301L 157.406 4.60901z"/>
<path style="stroke:none; fill-rule:evenodd; fill:#000000" d="M 169.007 9.80801L 172.793 9.80801C 174.222 9.80801 174.839 10.367 174.839 11.672C 174.839 11.801 174.839 12.011 174.82 12.293C 174.8 12.699 174.8 13.086 174.8 13.32C 174.8 14.777 174.886 15.25 175.308 16L 178.726 16L 178.726 15.422C 178.23 15.144 178.035 14.82 178.035 14.133C 177.949 9.504 177.863 9.289 175.855 8.42902C 177.625 7.742 178.507 6.47202 178.507 4.55402C 178.507 3.30801 178.074 2.168 177.32 1.39001C 176.609 0.660004 175.613 0.312012 174.273 0.312012L 165.816 0.312012L 165.816 16.011L 169.015 16.011L 169.007 9.80801zM 169.007 7.10901L 169.007 3.01102L 172.98 3.01102C 173.921 3.01102 174.316 3.09702 174.711 3.422C 175.105 3.742 175.3 4.28101 175.3 5.01501C 175.3 5.76901 175.082 6.371 174.711 6.69501C 174.363 6.996 173.921 7.10101 172.98 7.10101L 169.007 7.10901z"/>
<path style="stroke:none; fill-rule:evenodd; fill:#000000" d="M 191.019 11.109C 191.039 10.851 191.039 10.742 191.039 10.59C 191.039 9.422 190.867 8.336 190.586 7.51501C 189.812 5.39401 187.933 4.11301 185.578 4.11301C 182.234 4.11301 180.183 6.543 180.183 10.465C 180.183 14.215 182.211 16.511 185.515 16.511C 188.125 16.511 190.242 15.023 190.91 12.73L 187.933 12.73C 187.57 13.664 186.726 14.211 185.625 14.211C 184.761 14.211 184.07 13.844 183.64 13.187C 183.363 12.754 183.254 12.226 183.211 11.113L 191.019 11.109zM 183.25 9.10901C 183.441 7.31201 184.199 6.41 185.535 6.41C 186.289 6.41 186.98 6.78101 187.414 7.39401C 187.691 7.832 187.824 8.293 187.886 9.10501L 183.25 9.10901z"/>
<path style="stroke:none; fill-rule:evenodd; fill:#000000" d="M 193.207 16.008L 196.207 16.008L 196.207 0.308014L 193.207 0.308014L 193.207 16.008z"/>
<path style="stroke:none; fill-rule:evenodd; fill:#000000" d="M 219.058 7.508L 212.73 7.508L 212.73 10.207L 216.328 10.207C 216.242 11.09 216.027 11.633 215.55 12.191C 214.773 13.14 213.578 13.703 212.324 13.703C 209.703 13.703 207.816 11.429 207.816 8.211C 207.816 4.84399 209.484 2.80402 212.238 2.80402C 213.363 2.80402 214.316 3.121 215.031 3.73801C 215.484 4.121 215.722 4.48001 216.004 5.289L 219.058 5.289C 218.668 2.05099 216.035 0 212.234 0C 207.699 0 204.613 3.34702 204.613 8.25C 204.613 13.019 207.722 16.5 211.976 16.5C 214.089 16.5 215.515 15.742 216.726 13.965L 217.113 16.043L 219.058 16.043L 219.058 7.508z"/>
<path style="stroke:none; fill-rule:evenodd; fill:#000000" d="M 231.82 11.109C 231.839 10.851 231.839 10.742 231.839 10.59C 231.839 9.422 231.668 8.336 231.386 7.51501C 230.613 5.39401 228.734 4.11301 226.379 4.11301C 223.035 4.11301 220.984 6.543 220.984 10.465C 220.984 14.215 223.011 16.511 226.316 16.511C 228.925 16.511 231.043 15.023 231.711 12.73L 228.734 12.73C 228.371 13.664 227.527 14.211 226.425 14.211C 225.562 14.211 224.871 13.844 224.441 13.187C 224.164 12.754 224.054 12.226 224.011 11.113L 231.82 11.109zM 224.047 9.10901C 224.238 7.31201 224.996 6.41 226.332 6.41C 227.086 6.41 227.777 6.78101 228.211 7.39401C 228.488 7.832 228.621 8.293 228.683 9.10501L 224.047 9.10901z"/>
<path style="stroke:none; fill-rule:evenodd; fill:#000000" d="M 233.906 4.30801L 233.906 16.008L 236.906 16.008L 236.906 8.92902C 236.906 7.53101 237.879 6.61301 239.355 6.61301C 240.652 6.61301 241.304 7.336 241.304 8.73401L 241.304 16.011L 244.304 16.011L 244.304 8.168C 244.304 5.59 242.882 4.11301 240.402 4.11301C 238.828 4.11301 237.773 4.707 236.91 6.035L 236.91 4.31201L 233.906 4.30801z"/>
<path style="stroke:none; fill-rule:evenodd; fill:#000000" d="M 257.019 11.109C 257.039 10.851 257.039 10.742 257.039 10.59C 257.039 9.422 256.867 8.336 256.586 7.51501C 255.812 5.39401 253.933 4.11301 251.578 4.11301C 248.234 4.11301 246.183 6.543 246.183 10.465C 246.183 14.215 248.211 16.511 251.515 16.511C 254.125 16.511 256.242 15.023 256.91 12.73L 253.933 12.73C 253.57 13.664 252.726 14.211 251.625 14.211C 250.761 14.211 250.07 13.844 249.64 13.187C 249.363 12.754 249.254 12.226 249.211 11.113L 257.019 11.109zM 249.25 9.10901C 249.441 7.31201 250.199 6.41 251.535 6.41C 252.289 6.41 252.98 6.78101 253.414 7.39401C 253.691 7.832 253.824 8.293 253.886 9.10501L 249.25 9.10901z"/>
<path style="stroke:none; fill-rule:evenodd; fill:#000000" d="M 259.105 4.30801L 259.105 16.008L 262.105 16.008L 262.105 9.85101C 262.105 8.09399 262.984 7.211 264.746 7.211C 265.066 7.211 265.281 7.21802 265.691 7.242L 265.691 4.211C 265.519 4.211 265.414 4.211 265.328 4.211C 263.953 4.211 262.75 5.09702 262.105 6.63602L 262.105 4.30801L 259.105 4.30801z"/>
<path style="stroke:none; fill-rule:evenodd; fill:#000000" d="M 277.421 15.64C 276.867 15.144 276.711 14.82 276.711 14.211L 276.711 7.711C 276.711 5.328 275.097 4.11301 271.953 4.11301C 268.808 4.11301 267.171 5.465 266.98 8.19501L 269.863 8.19501C 270.011 6.922 270.504 6.51102 271.976 6.51102C 273.129 6.51102 273.707 6.90201 273.707 7.68701C 273.707 8.078 273.515 8.42599 273.195 8.60101C 272.789 8.81601 272.789 8.81601 271.312 9.05801L 270.117 9.27301C 267.828 9.664 266.714 10.863 266.714 12.976C 266.714 13.976 266.992 14.804 267.523 15.394C 268.183 16.09 269.183 16.504 270.211 16.504C 271.488 16.504 272.664 15.941 273.711 14.836C 273.711 15.441 273.773 15.656 274.062 16.004L 277.421 16.004L 277.421 15.64zM 273.707 11.332C 273.707 13.101 272.851 14.105 271.332 14.105C 270.328 14.105 269.707 13.562 269.707 12.687C 269.707 11.769 270.175 11.336 271.418 11.074L 272.441 10.879C 273.23 10.726 273.359 10.683 273.703 10.508L 273.707 11.332z"/>
<path style="stroke:none; fill-rule:evenodd; fill:#000000" d="M 279.609 16.008L 282.609 16.008L 282.609 0.308014L 279.609 0.308014L 279.609 16.008z"/>
<path style="stroke:none; fill-rule:evenodd; fill:#000000" d="M 288.609 4.34702L 285.609 4.34702L 285.609 16.004L 288.609 16.004L 288.609 4.34702zM 288.609 0.308014L 285.609 0.308014L 285.609 3.008L 288.609 3.008L 288.609 0.308014z"/>
<path style="stroke:none; fill-rule:evenodd; fill:#000000" d="M 300.019 4.30801L 290.953 4.30801L 290.953 6.707L 296.328 6.707L 290.566 13.605L 290.566 16.004L 300.214 16.004L 300.214 13.605L 294.3 13.605L 300.019 6.707L 300.019 4.30801z"/>
<path style="stroke:none; fill-rule:evenodd; fill:#000000" d="M 312.222 15.64C 311.668 15.144 311.511 14.82 311.511 14.211L 311.511 7.711C 311.511 5.328 309.898 4.11301 306.754 4.11301C 303.609 4.11301 301.972 5.465 301.781 8.19501L 304.664 8.19501C 304.812 6.922 305.304 6.51102 306.777 6.51102C 307.929 6.51102 308.507 6.90201 308.507 7.68701C 308.507 8.078 308.316 8.42599 307.996 8.60101C 307.589 8.81601 307.589 8.81601 306.113 9.05801L 304.918 9.27301C 302.629 9.664 301.515 10.863 301.515 12.976C 301.515 13.976 301.793 14.804 302.324 15.394C 302.984 16.09 303.984 16.504 305.011 16.504C 306.289 16.504 307.464 15.941 308.511 14.836C 308.511 15.441 308.574 15.656 308.863 16.004L 312.222 16.004L 312.222 15.64zM 308.507 11.332C 308.507 13.101 307.652 14.105 306.132 14.105C 305.129 14.105 304.507 13.562 304.507 12.687C 304.507 11.769 304.976 11.336 306.218 11.074L 307.242 10.879C 308.031 10.726 308.16 10.683 308.504 10.508L 308.507 11.332z"/>
<path style="stroke:none; fill-rule:evenodd; fill:#000000" d="M 319.406 4.60901L 317.711 4.60901L 317.711 1.457L 314.711 1.457L 314.711 4.60901L 313.214 4.60901L 313.214 6.60901L 314.711 6.60901L 314.711 13.769C 314.711 15.601 315.679 16.508 317.66 16.508C 318.328 16.508 318.863 16.445 319.406 16.273L 319.406 14.156C 319.101 14.191 318.929 14.211 318.711 14.211C 317.906 14.211 317.711 13.976 317.711 12.941L 317.711 6.61301L 319.406 6.61301L 319.406 4.60901z"/>
<path style="stroke:none; fill-rule:evenodd; fill:#000000" d="M 324.609 4.34702L 321.609 4.34702L 321.609 16.004L 324.609 16.004L 324.609 4.34702zM 324.609 0.308014L 321.609 0.308014L 321.609 3.008L 324.609 3.008L 324.609 0.308014z"/>
<path style="stroke:none; fill-rule:evenodd; fill:#000000" d="M 332.636 4.10901C 329.086 4.10901 326.91 6.47202 326.91 10.308C 326.91 14.164 329.082 16.508 332.66 16.508C 336.191 16.508 338.41 14.148 338.41 10.398C 338.41 6.43301 336.281 4.11301 332.64 4.11301L 332.636 4.10901zM 332.656 6.508C 334.32 6.508 335.406 8.02301 335.406 10.351C 335.406 12.566 334.281 14.105 332.656 14.105C 331.011 14.105 329.91 12.57 329.91 10.308C 329.91 8.047 331.011 6.51102 332.656 6.51102L 332.656 6.508z"/>
<path style="stroke:none; fill-rule:evenodd; fill:#000000" d="M 340.707 4.30801L 340.707 16.008L 343.707 16.008L 343.707 8.92902C 343.707 7.53101 344.679 6.61301 346.156 6.61301C 347.453 6.61301 348.105 7.336 348.105 8.73401L 348.105 16.011L 351.105 16.011L 351.105 8.168C 351.105 5.59 349.683 4.11301 347.203 4.11301C 345.629 4.11301 344.574 4.707 343.711 6.035L 343.711 4.31201L 340.707 4.30801z"/>
<path style="stroke:none; fill-rule:evenodd; fill:#000000" d="M 362.867 0.308014C 360.359 4.039 359.312 7.01102 359.312 10.308C 359.312 13.625 360.359 16.597 362.867 20.324L 365.05 20.324C 362.75 15.886 362.011 13.476 362.011 10.308C 362.011 7.164 362.746 4.707 365.05 0.308014L 362.867 0.308014z"/>
<path style="stroke:none; fill-rule:evenodd; fill:#000000" d="M 370.507 9.207L 377.429 9.207L 377.429 6.508L 370.507 6.508L 370.507 3.008L 378.359 3.008L 378.359 0.308014L 367.308 0.308014L 367.308 16.008L 370.507 16.008L 370.507 9.207z"/>
<path style="stroke:none; fill-rule:evenodd; fill:#000000" d="M 390.222 15.64C 389.668 15.144 389.511 14.82 389.511 14.211L 389.511 7.711C 389.511 5.328 387.898 4.11301 384.754 4.11301C 381.609 4.11301 379.972 5.465 379.781 8.19501L 382.664 8.19501C 382.812 6.922 383.304 6.51102 384.777 6.51102C 385.929 6.51102 386.507 6.90201 386.507 7.68701C 386.507 8.078 386.316 8.42599 385.996 8.60101C 385.589 8.81601 385.589 8.81601 384.113 9.05801L 382.918 9.27301C 380.629 9.664 379.515 10.863 379.515 12.976C 379.515 13.976 379.793 14.804 380.324 15.394C 380.984 16.09 381.984 16.504 383.011 16.504C 384.289 16.504 385.464 15.941 386.511 14.836C 386.511 15.441 386.574 15.656 386.863 16.004L 390.222 16.004L 390.222 15.64zM 386.507 11.332C 386.507 13.101 385.652 14.105 384.132 14.105C 383.129 14.105 382.507 13.562 382.507 12.687C 382.507 11.769 382.976 11.336 384.218 11.074L 385.242 10.879C 386.031 10.726 386.16 10.683 386.504 10.508L 386.507 11.332z"/>
<path style="stroke:none; fill-rule:evenodd; fill:#000000" d="M 392.207 4.30801L 392.207 16.008L 395.207 16.008L 395.207 8.92902C 395.207 7.48801 395.98 6.61301 397.269 6.61301C 398.277 6.61301 398.902 7.203 398.902 8.14401L 398.902 16.011L 401.902 16.011L 401.902 8.93301C 401.902 7.492 402.695 6.617 404.019 6.617C 405.054 6.617 405.695 7.207 405.695 8.14801L 405.695 16.015L 408.695 16.015L 408.695 7.73801C 408.695 5.465 407.312 4.121 404.98 4.121C 403.511 4.121 402.476 4.65201 401.57 5.89001C 401.011 4.76102 399.843 4.121 398.398 4.121C 397.062 4.121 396.199 4.586 395.203 5.80402L 395.203 4.32001L 392.207 4.30801z"/>
<path style="stroke:none; fill-rule:evenodd; fill:#000000" d="M 424.535 0.00799561C 422.343 0.00799561 420.535 0.738007 419.203 2.18701C 417.808 3.69901 417.011 5.90201 417.011 8.254C 417.011 10.605 417.804 12.832 419.203 14.32C 420.554 15.785 422.32 16.5 424.554 16.5C 426.789 16.5 428.554 15.789 429.906 14.32C 431.257 12.875 432.101 10.586 432.101 8.35901C 432.101 5.89801 431.304 3.69501 429.906 2.18301C 428.531 0.695007 426.789 0.0039978 424.531 0.0039978L 424.535 0.00799561zM 424.554 2.80801C 427.214 2.80801 428.902 4.953 428.902 8.34399C 428.902 11.539 427.148 13.707 424.554 13.707C 421.937 13.707 420.207 11.543 420.207 8.258C 420.207 4.97601 421.937 2.80801 424.554 2.80801z"/>
<path style="stroke:none; fill-rule:evenodd; fill:#000000" d="M 434.207 0.308014L 434.207 16.011L 437.207 16.011L 437.207 14.828C 437.937 15.968 438.949 16.508 440.414 16.508C 443.191 16.508 445.3 13.844 445.3 10.308C 445.3 8.73001 444.828 7.125 444.05 5.996C 443.254 4.84702 441.836 4.10901 440.414 4.10901C 438.972 4.10901 437.937 4.66 437.207 5.85901L 437.207 0.308014L 434.207 0.308014zM 439.757 6.60901C 441.246 6.60901 442.304 8.14001 442.304 10.332C 442.304 12.476 441.246 14.008 439.757 14.008C 438.226 14.008 437.211 12.519 437.211 10.265C 437.211 8.121 438.246 6.60901 439.757 6.60901z"/>
<path style="stroke:none; fill-rule:evenodd; fill:#000000" d="M 450.605 4.34702L 447.605 4.34702L 447.605 17.359C 447.605 18.027 447.371 18.265 446.73 18.265C 446.539 18.265 446.41 18.246 446.199 18.179L 446.199 20.594C 446.797 20.656 447.547 20.699 447.976 20.699C 449.836 20.699 450.609 19.926 450.609 18.023L 450.605 4.34702zM 450.605 0.308014L 447.605 0.308014L 447.605 3.008L 450.605 3.008L 450.605 0.308014z"/>
<path style="stroke:none; fill-rule:evenodd; fill:#000000" d="M 463.011 8.10501C 462.968 5.617 461.062 4.10901 457.921 4.10901C 454.953 4.10901 453.113 5.60101 453.113 8.004C 453.113 8.78101 453.347 9.453 453.761 9.90601C 454.171 10.316 454.539 10.511 455.668 10.879L 459.285 12.004C 460.043 12.238 460.304 12.476 460.304 12.953C 460.304 13.664 459.464 14.097 458.062 14.097C 457.289 14.097 456.664 13.949 456.273 13.695C 455.953 13.465 455.824 13.23 455.691 12.609L 452.738 12.609C 452.824 15.156 454.695 16.5 458.226 16.5C 459.839 16.5 461.066 16.156 461.929 15.465C 462.789 14.773 463.308 13.691 463.308 12.543C 463.308 11.031 462.55 10.054 461.011 9.60101L 457.175 8.5C 456.332 8.242 456.117 8.07001 456.117 7.59399C 456.117 6.94501 456.812 6.51102 457.879 6.51102C 459.336 6.51102 460.054 7.035 460.074 8.10501L 463.011 8.10501z"/>
<path style="stroke:none; fill-rule:evenodd; fill:#000000" d="M 466.757 20.328C 469.257 16.601 470.304 13.629 470.304 10.336C 470.304 7.01901 469.261 4.047 466.757 0.31601L 464.582 0.31601C 466.871 4.758 467.605 7.168 467.605 10.336C 467.605 13.48 466.871 15.937 464.582 20.328L 466.757 20.328z"/>
<path style="stroke:#000000; stroke-width:1.59941; fill:none" d="M 152.136 320.949L 193.718 320.949L 193.718 206.594L 152.136 206.594L 152.136 320.949z"/>
<path style="stroke:#000000; stroke-width:1.59941; fill:none" d="M 347.265 320.949L 388.847 320.949L 388.847 253.777L 347.265 253.777L 347.265 320.949z"/>
<path style="stroke:#000000; stroke-width:1.59941; fill:none" d="M 172.929 210.59L 172.929 201.797"/>
<path style="stroke:#000000; stroke-width:1.59941; fill:none" d="M 368.058 256.172L 368.058 251.375"/>
<path style="stroke:#000000; stroke-width:1.59941; fill:none" d="M 164.132 210.59L 181.722 210.59"/>
<path style="stroke:#000000; stroke-width:1.59941; fill:none" d="M 164.132 201.793L 181.722 201.793"/>
<path style="stroke:#000000; stroke-width:1.59941; fill:none" d="M 359.261 256.172L 377.652 256.172"/>
<path style="stroke:#000000; stroke-width:1.59941; fill:none" d="M 359.261 251.375L 377.652 251.375"/>
<path style="stroke:none; fill-rule:evenodd; fill:#000000" d="M 193.722 320.949L 235.304 320.949L 235.304 151.414L 193.722 151.414L 193.722 320.949z"/>
<path style="stroke:#000000; stroke-width:0.0; fill:none" d="M 193.722 320.949L 235.304 320.949L 235.304 151.414L 193.722 151.414L 193.722 320.949z"/>
<path style="stroke:#000000; stroke-width:1.59941; fill:none" d="M 193.722 320.949L 235.304 320.949L 235.304 151.414L 193.722 151.414L 193.722 320.949z"/>
<path style="stroke:none; fill-rule:evenodd; fill:#000000" d="M 388.851 320.949L 430.433 320.949L 430.433 202.594L 388.851 202.594L 388.851 320.949z"/>
<path style="stroke:#000000; stroke-width:0.0; fill:none" d="M 388.851 320.949L 430.433 320.949L 430.433 202.594L 388.851 202.594L 388.851 320.949z"/>
<path style="stroke:#000000; stroke-width:1.59941; fill:none" d="M 388.851 320.949L 430.433 320.949L 430.433 202.594L 388.851 202.594L 388.851 320.949z"/>
<path style="stroke:#000000; stroke-width:1.59941; fill:none" d="M 193.722 320.949L 235.304 320.949L 235.304 151.414L 193.722 151.414L 193.722 320.949z"/>
<path style="stroke:#000000; stroke-width:1.59941; fill:none" d="M 388.851 320.949L 430.433 320.949L 430.433 202.594L 388.851 202.594L 388.851 320.949z"/>
<path style="stroke:#000000; stroke-width:1.59941; fill:none" d="M 214.515 161.008L 214.515 141.816"/>
<path style="stroke:#000000; stroke-width:1.59941; fill:none" d="M 409.644 216.988L 409.644 189"/>
<path style="stroke:#000000; stroke-width:1.59941; fill:none" d="M 205.718 161.008L 223.308 161.008"/>
<path style="stroke:#000000; stroke-width:1.59941; fill:none" d="M 205.718 141.816L 223.308 141.816"/>
<path style="stroke:#000000; stroke-width:1.59941; fill:none" d="M 400.847 216.988L 419.238 216.988"/>
<path style="stroke:#000000; stroke-width:1.59941; fill:none" d="M 400.847 189L 419.238 189"/>
<path style="stroke:#000000; stroke-width:1.59941; fill:none" d="M 96.1604 320.949L 486.414 320.949L 486.414 37.054L 96.1604 37.054L 96.1604 320.949z"/>
<path style="stroke:none; fill-rule:evenodd; fill:#ffffff" d="M 337.671 101.832L 462.425 101.832L 462.425 45.054L 337.671 45.054L 337.671 101.832z"/>
<path style="stroke:#ffffff; stroke-width:0.0; fill:none" d="M 337.671 101.832L 462.425 101.832L 462.425 45.054L 337.671 45.054L 337.671 101.832z"/>
<path style="stroke:#ffffff; stroke-width:1.59941; fill:none" d="M 337.671 101.832L 462.425 101.832L 462.425 45.054L 337.671 45.054L 337.671 101.832z"/>
<path style="stroke:#000000; stroke-width:1.59941; fill:none" d="M 337.671 101.832L 462.425 101.832L 462.425 45.054L 337.671 45.054L 337.671 101.832z"/>
<path style="stroke:#000000; stroke-width:1.59941; fill:none" d="M 348.066 73.043L 390.449 73.043L 390.449 50.652L 348.066 50.652L 348.066 73.043z"/>
<path style="stroke:none; fill-rule:evenodd; fill:#000000" d="M 404.007 52.808L 402.308 52.808L 402.308 66.207L 410.605 66.207L 410.605 64.707L 404.007 64.707L 404.007 52.808z"/>
<path style="stroke:none; fill-rule:evenodd; fill:#000000" d="M 420.507 61.906C 420.507 60.437 420.398 59.558 420.121 58.844C 419.496 57.265 418.027 56.312 416.226 56.312C 413.543 56.312 411.816 58.363 411.816 61.515C 411.816 64.664 413.496 66.609 416.211 66.609C 418.425 66.609 419.957 65.371 420.347 63.285L 418.797 63.285C 418.375 64.547 417.504 65.207 416.265 65.207C 415.289 65.207 414.457 64.769 413.937 63.965C 413.57 63.418 413.441 62.867 413.421 61.914L 420.507 61.906zM 413.48 60.652C 413.609 58.871 414.691 57.711 416.238 57.711C 417.746 57.711 418.902 58.961 418.902 60.539C 418.902 60.574 418.902 60.609 418.886 60.648L 413.48 60.652z"/>
<path style="stroke:none; fill-rule:evenodd; fill:#000000" d="M 431.148 65.308C 430.988 65.308 430.914 65.308 430.824 65.308C 430.3 65.308 430.011 65.035 430.011 64.558L 430.011 58.926C 430.011 57.226 428.757 56.312 426.382 56.312C 424.984 56.312 423.82 56.715 423.175 57.426C 422.734 57.918 422.55 58.468 422.515 59.418L 424.07 59.418C 424.199 58.242 424.902 57.707 426.347 57.707C 427.734 57.707 428.515 58.218 428.515 59.136L 428.515 59.539C 428.515 60.179 428.129 60.457 426.914 60.601C 424.738 60.875 424.406 60.949 423.816 61.187C 422.691 61.644 422.121 62.508 422.121 63.754C 422.121 65.496 423.328 66.597 425.273 66.597C 426.48 66.597 427.453 66.183 428.535 65.207C 428.644 66.164 429.121 66.597 430.109 66.597C 430.418 66.597 430.656 66.562 431.152 66.437L 431.148 65.308zM 428.507 63.183C 428.507 63.699 428.359 64.011 427.898 64.437C 427.273 65.008 426.515 65.304 425.613 65.304C 424.414 65.304 423.714 64.734 423.714 63.754C 423.714 62.738 424.394 62.222 426.039 61.98C 427.66 61.761 427.992 61.687 428.511 61.445L 428.507 63.183z"/>
<path style="stroke:none; fill-rule:evenodd; fill:#000000" d="M 432.507 52.808L 432.507 66.207L 433.906 66.207L 433.906 64.976C 434.636 66.082 435.601 66.605 436.937 66.605C 439.457 66.605 441.101 64.535 441.101 61.347C 441.101 58.234 439.523 56.308 436.984 56.308C 435.664 56.308 434.722 56.797 434.007 57.875L 434.007 52.808L 432.507 52.808zM 436.711 57.73C 438.421 57.73 439.523 59.218 439.523 61.515C 439.523 63.703 438.382 65.191 436.711 65.191C 435.093 65.191 434.027 63.722 434.027 61.461C 434.027 59.199 435.093 57.73 436.711 57.73z"/>
<path style="stroke:none; fill-rule:evenodd; fill:#000000" d="M 442.906 56.586L 442.906 66.207L 444.504 66.207L 444.504 61.203C 444.504 59.824 444.851 58.922 445.593 58.39C 446.07 58.043 446.535 57.933 447.605 57.914L 447.605 56.371C 447.351 56.336 447.222 56.316 447.019 56.316C 446.035 56.316 445.281 56.902 444.406 58.336L 444.406 56.594L 442.906 56.586z"/>
<path style="stroke:none; fill-rule:evenodd; fill:#000000" d="M 457.746 65.308C 457.586 65.308 457.511 65.308 457.421 65.308C 456.898 65.308 456.609 65.035 456.609 64.558L 456.609 58.926C 456.609 57.226 455.355 56.312 452.98 56.312C 451.582 56.312 450.418 56.715 449.773 57.426C 449.332 57.918 449.148 58.468 449.113 59.418L 450.668 59.418C 450.797 58.242 451.5 57.707 452.945 57.707C 454.332 57.707 455.113 58.218 455.113 59.136L 455.113 59.539C 455.113 60.179 454.726 60.457 453.511 60.601C 451.336 60.875 451.004 60.949 450.414 61.187C 449.289 61.644 448.718 62.508 448.718 63.754C 448.718 65.496 449.925 66.597 451.871 66.597C 453.078 66.597 454.05 66.183 455.132 65.207C 455.242 66.164 455.718 66.597 456.707 66.597C 457.015 66.597 457.254 66.562 457.75 66.437L 457.746 65.308zM 455.109 63.183C 455.109 63.699 454.961 64.011 454.5 64.437C 453.875 65.008 453.117 65.304 452.214 65.304C 451.015 65.304 450.316 64.734 450.316 63.754C 450.316 62.738 450.996 62.222 452.64 61.98C 454.261 61.761 454.593 61.687 455.113 61.445L 455.109 63.183z"/>
<path style="stroke:none; fill-rule:evenodd; fill:#000000" d="M 348.066 96.23L 390.449 96.23L 390.449 73.043L 348.066 73.043L 348.066 96.23z"/>
<path style="stroke:#000000; stroke-width:0.0; fill:none" d="M 348.066 96.23L 390.449 96.23L 390.449 73.043L 348.066 73.043L 348.066 96.23z"/>
<path style="stroke:#000000; stroke-width:1.59941; fill:none" d="M 348.066 96.23L 390.449 96.23L 390.449 73.043L 348.066 73.043L 348.066 96.23z"/>
<path style="stroke:#000000; stroke-width:1.59941; fill:none" d="M 348.066 96.23L 390.449 96.23L 390.449 73.043L 348.066 73.043L 348.066 96.23z"/>
<path style="stroke:none; fill-rule:evenodd; fill:#000000" d="M 412.984 79.355C 412.453 76.433 410.761 75.008 407.824 75.008C 406.027 75.008 404.574 75.574 403.586 76.676C 402.375 77.992 401.714 79.898 401.714 82.058C 401.714 84.254 402.39 86.144 403.66 87.441C 404.687 88.504 406.007 88.996 407.754 88.996C 411.019 88.996 412.855 87.238 413.261 83.703L 411.5 83.703C 411.355 84.617 411.171 85.238 410.894 85.769C 410.343 86.867 409.207 87.488 407.769 87.488C 405.105 87.488 403.414 85.363 403.414 82.027C 403.414 78.601 405.027 76.492 407.621 76.492C 408.703 76.492 409.714 76.82 410.265 77.332C 410.757 77.785 411.035 78.351 411.238 79.34L 412.984 79.355z"/>
<path style="stroke:none; fill-rule:evenodd; fill:#000000" d="M 424.207 82.508L 424.207 88.605L 425.906 88.605L 425.906 75.207L 424.207 75.207L 424.207 81.004L 417.308 81.004L 417.308 75.207L 415.609 75.207L 415.609 88.605L 417.308 88.605L 417.308 82.508L 424.207 82.508z"/>
<path style="stroke:none; fill-rule:evenodd; fill:#000000" d="M 430.609 75.207L 428.91 75.207L 428.91 88.605L 437.207 88.605L 437.207 87.105L 430.609 87.105L 430.609 75.207z"/>
</g>
</svg>