<?xml version="1.0" encoding="UTF-8" standalone="no"?>
<svg
   xmlns:dc="http://purl.org/dc/elements/1.1/"
   xmlns:cc="http://creativecommons.org/ns#"
   xmlns:rdf="http://www.w3.org/1999/02/22-rdf-syntax-ns#"
   xmlns:svg="http://www.w3.org/2000/svg"
   xmlns="http://www.w3.org/2000/svg"
   xmlns:sodipodi="http://sodipodi.sourceforge.net/DTD/sodipodi-0.dtd"
   xmlns:inkscape="http://www.inkscape.org/namespaces/inkscape"
   width="205.179"
   height="152.075"
   id="svg2"
   version="1.1"
   inkscape:version="0.47 r22583"
   sodipodi:docname="fig_pvlv_da.svg"
   inkscape:export-filename="/Users/oreilly/svn_docs/figs/fig_pvlv_da.png"
   inkscape:export-xdpi="149.87631"
   inkscape:export-ydpi="149.87631">
  <metadata
     id="metadata98">
    <rdf:RDF>
      <cc:Work
         rdf:about="">
        <dc:format>image/svg+xml</dc:format>
        <dc:type
           rdf:resource="http://purl.org/dc/dcmitype/StillImage" />
        <dc:title></dc:title>
      </cc:Work>
    </rdf:RDF>
  </metadata>
  <sodipodi:namedview
     pagecolor="#ffffff"
     bordercolor="#666666"
     borderopacity="1"
     objecttolerance="10"
     gridtolerance="10"
     guidetolerance="10"
     inkscape:pageopacity="0"
     inkscape:pageshadow="2"
     inkscape:window-width="1104"
     inkscape:window-height="852"
     id="namedview96"
     showgrid="false"
     inkscape:zoom="1.5518659"
     inkscape:cx="102.5895"
     inkscape:cy="76.037499"
     inkscape:window-x="667"
     inkscape:window-y="0"
     inkscape:window-maximized="0"
     inkscape:current-layer="svg2" />
  <defs
     id="defs4">
    <inkscape:perspective
       sodipodi:type="inkscape:persp3d"
       inkscape:vp_x="0 : 76.037498 : 1"
       inkscape:vp_y="0 : 1000 : 0"
       inkscape:vp_z="205.179 : 76.037498 : 1"
       inkscape:persp3d-origin="102.5895 : 50.691666 : 1"
       id="perspective100" />
    <marker
       id="ArrowEnd"
       viewBox="0 0 10 10"
       refX="0"
       refY="5"
       markerUnits="strokeWidth"
       markerWidth="4"
       markerHeight="3"
       orient="auto">
      <path
         d="M 0 0 L 10 5 L 0 10 z"
         id="path7" />
    </marker>
    <marker
       id="ArrowStart"
       viewBox="0 0 10 10"
       refX="10"
       refY="5"
       markerUnits="strokeWidth"
       markerWidth="4"
       markerHeight="3"
       orient="auto">
      <path
         d="M 10 0 L 0 5 L 10 10 z"
         id="path10" />
    </marker>
  </defs>
  <rect
     style="fill:#ffffff;fill-opacity:1;fill-rule:nonzero;stroke:#ffffff;stroke-width:1;stroke-miterlimit:4;stroke-opacity:1;stroke-dasharray:none;stroke-dashoffset:0"
     id="rect2857"
     width="212.64725"
     height="157.87447"
     x="-3.2219279"
     y="-3.2219279" />
  <g
     id="g12">
    <path
       style="stroke:#000000; stroke-width:1.9133; fill:none"
       d="M 47.1074 73.1683L 156.162 73.1683L 161.901 55.9493L 167.639 73.1683L 182.944 73.1683"
       id="path14" />
    <path
       style="stroke:#ff0000; stroke-width:0.95664899999999997; fill:none"
       d="M 161.905 75.0783L 161.905 63.6013"
       id="path16" />
    <path
       style="stroke:#ff0000; stroke-width:0.95664899999999997; fill:none"
       d="M 159.991 71.2543L 161.901 63.6013L 163.811 71.2543"
       id="path18" />
    <path
       style="stroke:#000000; stroke-width:1.9133; fill:none"
       d="M 47.1074 50.2073L 156.162 50.2073L 161.901 32.9883L 167.639 50.2073L 182.944 50.2073"
       id="path20" />
    <path
       style="stroke:#000000; stroke-width:1.9133; fill:none"
       d="M 47.1074 96.1253L 64.3261 96.1253L 70.0644 78.9063L 75.8027 96.1253L 156.159 96.1253L 161.897 78.9063L 167.635 96.1253L 181.026 96.1253"
       id="path22" />
    <path
       style="stroke:#ff0000; stroke-width:0.95664899999999997; fill:none"
       d="M 161.905 98.0393L 161.905 86.5623"
       id="path24" />
    <path
       style="stroke:#ff0000; stroke-width:0.95664899999999997; fill:none"
       d="M 159.991 94.2113L 161.901 86.5583L 163.811 94.2113"
       id="path26" />
    <path
       style="stroke:#ff0000; stroke-width:0.95664899999999997; fill:none"
       d="M 70.0684 98.0393L 70.0684 86.5623"
       id="path28" />
    <path
       style="stroke:#ff0000; stroke-width:0.95664899999999997; fill:none"
       d="M 68.1544 94.2113L 70.0644 86.5583L 71.9746 94.2113"
       id="path30" />
    <path
       style="stroke:#000000; stroke-width:1.9133; fill:none"
       d="M 47.1074 119.086L 64.3261 119.086L 70.0644 111.433L 75.8027 119.086L 156.159 119.086L 161.897 111.433L 167.635 119.086L 181.026 119.086"
       id="path32" />
    <path
       style="stroke:#000000; stroke-width:1.9133; fill:none"
       d="M 47.1074 27.2463L 70.0644 27.2463L 70.0644 10.0273L 167.643 10.0273L 167.643 27.2463L 182.948 27.2463"
       id="path34" />
    <path
       style="stroke:none; fill-rule:evenodd; fill:#000000"
       d="M 9.85355 138.82L 13.1074 138.82C 15.2363 138.82 16.5488 137.23 16.5488 134.617C 16.5488 132.015 15.2519 130.425 13.1074 130.425L 9.85355 130.425L 9.85355 138.82zM 10.955 137.922L 10.955 131.324L 12.9277 131.324C 14.58 131.324 15.4511 132.457 15.4511 134.629C 15.4511 136.777 14.58 137.922 12.9277 137.922L 10.955 137.922z"
       id="path36" />
    <path
       style="stroke:none; fill-rule:evenodd; fill:#000000"
       d="M 22.5957 136.32L 23.455 138.82L 24.6464 138.82L 21.7089 130.422L 20.3339 130.422L 17.3496 138.82L 18.4824 138.82L 19.3652 136.32L 22.5957 136.32zM 22.2988 135.422L 19.6386 135.422L 21.0136 131.601L 22.2988 135.422z"
       id="path38" />
    <path
       style="stroke:#000000; stroke-width:1.9133; fill:none"
       d="M 47.1074 142.047L 64.3261 142.047L 70.0644 130.57L 75.8027 142.047L 156.159 142.047L 161.897 138.222L 167.635 142.047L 181.026 142.047"
       id="path40" />
    <path
       style="stroke:#ff0000; stroke-width:0.95664899999999997; fill:none"
       d="M 161.905 126.738L 161.905 138.215"
       id="path42" />
    <path
       style="stroke:#ff0000; stroke-width:0.95664899999999997; fill:none"
       d="M 163.819 130.566L 161.909 138.218L 159.998 130.566"
       id="path44" />
    <path
       style="stroke:#ff0000; stroke-width:0.95664899999999997; fill:none"
       d="M 70.0684 145.871L 70.0684 134.394"
       id="path46" />
    <path
       style="stroke:#ff0000; stroke-width:0.95664899999999997; fill:none"
       d="M 68.1544 142.043L 70.0644 134.39L 71.9746 142.043"
       id="path48" />
    <path
       style="stroke:#000000; stroke-dasharray:6,3; stroke-width:0.95664899999999997; fill:none"
       d="M 5.01365 27.2463L 200.166 27.2463"
       id="path50" />
    <path
       style="stroke:#000000; stroke-dasharray:6,3; stroke-width:0.95664899999999997; fill:none"
       d="M 5.01365 50.2073L 200.166 50.2073"
       id="path52" />
    <path
       style="stroke:#000000; stroke-dasharray:6,3; stroke-width:0.95664899999999997; fill:none"
       d="M 5.01365 73.1683L 200.166 73.1683"
       id="path54" />
    <path
       style="stroke:#000000; stroke-dasharray:6,3; stroke-width:0.95664899999999997; fill:none"
       d="M 5.01365 96.1253L 200.166 96.1253"
       id="path56" />
    <path
       style="stroke:#000000; stroke-dasharray:6,3; stroke-width:0.95664899999999997; fill:none"
       d="M 5.01365 119.086L 200.166 119.086"
       id="path58" />
    <path
       style="stroke:#000000; stroke-dasharray:6,3; stroke-width:0.95664899999999997; fill:none"
       d="M 5.01365 142.043L 200.166 142.043"
       id="path60" />
    <path
       style="stroke:none; fill-rule:evenodd; fill:#000000"
       d="M 16.455 16.2503C 16.1191 14.4223 15.0566 13.5273 13.205 13.5273C 12.0722 13.5273 11.1621 13.8823 10.5371 14.5743C 9.77545 15.4023 9.36135 16.5973 9.36135 17.9573C 9.36135 19.3363 9.78715 20.5233 10.5839 21.3403C 11.2285 22.0083 12.0605 22.3163 13.1582 22.3163C 15.2128 22.3163 16.3691 21.2033 16.6269 18.9653L 15.5214 18.9653C 15.4316 19.5543 15.3183 19.9573 15.1425 20.3003C 14.7988 21.0113 14.0839 21.4143 13.1894 21.4143C 11.5214 21.4143 10.4628 20.0623 10.4628 17.9413C 10.4628 15.7613 11.4746 14.4183 13.0996 14.4183C 13.7754 14.4183 14.4121 14.6293 14.7558 14.9533C 15.0644 15.2463 15.2363 15.6053 15.3652 16.2383L 16.455 16.2503z"
       id="path62" />
    <path
       style="stroke:none; fill-rule:evenodd; fill:#000000"
       d="M 23.955 16.1093C 23.9472 14.4723 22.8261 13.5233 20.9121 13.5233C 19.0878 13.5233 17.9589 14.4723 17.9589 16.0003C 17.9589 17.0273 18.4902 17.6793 19.58 17.9683L 21.6347 18.5233C 22.6777 18.8003 23.1543 19.2263 23.1543 19.8863C 23.1543 20.3363 22.916 20.8003 22.5683 21.0543C 22.2402 21.2853 21.7207 21.4103 21.0527 21.4103C 20.1582 21.4103 19.5488 21.1833 19.1543 20.6833C 18.8496 20.3043 18.7128 19.8863 18.7636 19.3473L 17.7636 19.3473C 17.7714 20.1253 17.9199 20.6363 18.248 21.1013C 18.8144 21.8903 19.7675 22.3083 21.0254 22.3083C 22.0097 22.3083 22.8144 22.0823 23.3496 21.6643C 23.9043 21.2183 24.2558 20.4683 24.2558 19.7423C 24.2558 18.7073 23.623 17.9493 22.498 17.6363L 20.4238 17.0743C 19.4277 16.8003 19.0644 16.4763 19.0644 15.8323C 19.0644 14.9803 19.7988 14.4143 20.9043 14.4143C 22.2128 14.4143 22.9472 15.0153 22.9589 16.1013L 23.955 16.1093z"
       id="path64" />
    <path
       style="stroke:none; fill-rule:evenodd; fill:#000000"
       d="M 29.0566 91.2223C 29.0566 90.4373 29.0019 89.9653 28.8574 89.5823C 28.5371 88.7383 27.7754 88.2263 26.8418 88.2263C 25.455 88.2263 24.5605 89.3003 24.5605 90.9533C 24.5605 92.6013 25.4238 93.6213 26.8261 93.6213C 27.9668 93.6213 28.7597 92.9803 28.9589 91.9023L 28.1543 91.9023C 27.9355 92.5703 27.4824 92.9223 26.8418 92.9223C 26.3339 92.9223 25.9043 92.6953 25.6308 92.2813C 25.4394 92.0003 25.373 91.7183 25.3652 91.2263L 29.0566 91.2223zM 25.3886 90.5353C 25.455 89.6093 26.0175 89.0083 26.8222 89.0083C 27.6035 89.0083 28.2089 89.6563 28.2089 90.4803C 28.2089 90.4963 28.2089 90.5153 28.2011 90.5353L 25.3886 90.5353z"
       id="path66" />
    <path
       style="stroke:none; fill-rule:evenodd; fill:#000000"
       d="M 10.8535 80.6213L 9.75585 80.6213L 9.75585 89.0193L 14.955 89.0193L 14.955 88.1213L 10.8574 88.1213L 10.8535 80.6213z"
       id="path68" />
    <path
       style="stroke:none; fill-rule:evenodd; fill:#000000"
       d="M 19.7558 89.0233L 22.6582 80.6253L 21.5254 80.6253L 19.2089 87.7383L 16.7558 80.6253L 15.6113 80.6253L 18.6152 89.0233L 19.7558 89.0233z"
       id="path70" />
    <path
       style="stroke:none; fill-rule:evenodd; fill:#000000"
       d="M 10.8535 103.621L 9.75585 103.621L 9.75585 112.019L 14.955 112.019L 14.955 111.121L 10.8574 111.121L 10.8535 103.621z"
       id="path72" />
    <path
       style="stroke:none; fill-rule:evenodd; fill:#000000"
       d="M 19.7558 112.023L 22.6582 103.625L 21.5254 103.625L 19.2089 110.738L 16.7558 103.625L 15.6113 103.625L 18.6152 112.023L 19.7558 112.023z"
       id="path74" />
    <path
       style="stroke:none; fill-rule:evenodd; fill:#000000"
       d="M 25.5566 111.32L 24.7597 111.32L 24.7597 116.32L 25.5566 116.32L 25.5566 111.32zM 25.5566 109.32L 24.7597 109.32L 24.7597 110.347L 25.5566 110.347L 25.5566 109.32z"
       id="path76" />
    <path
       style="stroke:none; fill-rule:evenodd; fill:#000000"
       d="M 10.955 62.6213L 13.5957 62.6213C 14.2519 62.6213 14.7714 62.4293 15.2246 62.0273C 15.7324 61.5743 15.9511 61.0353 15.9511 60.2693C 15.9511 58.7073 15.0136 57.8243 13.3418 57.8243L 9.85355 57.8243L 9.85355 66.2223L 10.9511 66.2223L 10.955 62.6213zM 10.955 61.7223L 10.955 58.7223L 13.205 58.7223C 14.2363 58.7223 14.8535 59.2853 14.8535 60.2223C 14.8535 61.1563 14.2402 61.7223 13.205 61.7223L 10.955 61.7223z"
       id="path78" />
    <path
       style="stroke:none; fill-rule:evenodd; fill:#000000"
       d="M 20.955 66.2223L 23.8574 57.8243L 22.7246 57.8243L 20.4082 64.9373L 17.955 57.8243L 16.8105 57.8243L 19.8144 66.2223L 20.955 66.2223z"
       id="path80" />
    <path
       style="stroke:none; fill-rule:evenodd; fill:#000000"
       d="M 27.455 65.4223L 26.6582 65.4223L 26.6582 70.4223L 27.455 70.4223L 27.455 65.4223zM 27.455 63.4223L 26.6582 63.4223L 26.6582 64.4493L 27.455 64.4493L 27.455 63.4223z"
       id="path82" />
    <path
       style="stroke:none; fill-rule:evenodd; fill:#000000"
       d="M 28.1543 41.4223L 30.7949 41.4223C 31.4511 41.4223 31.9707 41.2303 32.4238 40.8283C 32.9316 40.3753 33.1504 39.8363 33.1504 39.0703C 33.1504 37.5083 32.2128 36.6253 30.541 36.6253L 27.0527 36.6253L 27.0527 45.0233L 28.1504 45.0233L 28.1543 41.4223zM 28.1543 40.5233L 28.1543 37.5233L 30.4043 37.5233C 31.4355 37.5233 32.0527 38.0863 32.0527 39.0233C 32.0527 39.9573 31.4394 40.5233 30.4043 40.5233L 28.1543 40.5233z"
       id="path84" />
    <path
       style="stroke:none; fill-rule:evenodd; fill:#000000"
       d="M 38.1543 45.0233L 41.0566 36.6253L 39.9238 36.6253L 37.6074 43.7383L 35.1543 36.6253L 34.0097 36.6253L 37.0136 45.0233L 38.1543 45.0233z"
       id="path86" />
    <path
       style="stroke:none; fill-rule:evenodd; fill:#000000"
       d="M 44.6543 44.2223L 43.8574 44.2223L 43.8574 49.2223L 44.6543 49.2223L 44.6543 44.2223zM 44.6543 42.2223L 43.8574 42.2223L 43.8574 43.2503L 44.6543 43.2503L 44.6543 42.2223z"
       id="path88" />
    <path
       style="stroke:none; fill-rule:evenodd; fill:#000000"
       d="M 13.2558 36.6213L 13.2558 42.5823C 13.2558 43.7223 12.4589 44.4183 11.1464 44.4183C 10.541 44.4183 10.0488 44.2693 9.65435 43.9763C 9.25195 43.6523 9.06055 43.2223 9.06055 42.5823L 9.06055 36.6213L 7.96285 36.6213L 7.96285 42.5433C 7.96285 44.2543 9.17385 45.3163 11.1504 45.3163C 13.1035 45.3163 14.3613 44.2303 14.3613 42.5433L 14.3613 36.6213L 13.2558 36.6213z"
       id="path90" />
    <path
       style="stroke:none; fill-rule:evenodd; fill:#000000"
       d="M 22.0566 39.1093C 22.0488 37.4723 20.9277 36.5233 19.0136 36.5233C 17.1894 36.5233 16.0605 37.4723 16.0605 39.0003C 16.0605 40.0273 16.5918 40.6793 17.6816 40.9683L 19.7363 41.5233C 20.7793 41.8003 21.2558 42.2263 21.2558 42.8863C 21.2558 43.3363 21.0175 43.8003 20.6699 44.0543C 20.3418 44.2853 19.8222 44.4103 19.1543 44.4103C 18.2597 44.4103 17.6504 44.1833 17.2558 43.6833C 16.9511 43.3043 16.8144 42.8863 16.8652 42.3473L 15.8652 42.3473C 15.873 43.1253 16.0214 43.6363 16.3496 44.1013C 16.916 44.8903 17.8691 45.3083 19.1269 45.3083C 20.1113 45.3083 20.916 45.0823 21.4511 44.6643C 22.0058 44.2183 22.3574 43.4683 22.3574 42.7423C 22.3574 41.7073 21.7246 40.9493 20.5996 40.6363L 18.5254 40.0743C 17.5293 39.8003 17.166 39.4763 17.166 38.8323C 17.166 37.9803 17.9004 37.4143 19.0058 37.4143C 20.3144 37.4143 21.0488 38.0153 21.0605 39.1013L 22.0566 39.1093z"
       id="path92" />
    <path
       style="stroke:none; fill-rule:evenodd; fill:#000000"
       d="M 25.4824 36.6213L 22.7636 45.2503L 23.3925 45.2503L 26.1113 36.6213L 25.4824 36.6213z"
       id="path94" />
  </g>
</svg>
