<?xml version="1.0" encoding="ISO-8859-1" standalone="yes"?>
<svg width="418.527" height="169.09">
  <defs> 
    <marker id="ArrowEnd" viewBox="0 0 10 10" refX="0" refY="5" 
     markerUnits="strokeWidth" 
     markerWidth="4" 
     markerHeight="3" 
     orient="auto"> 
        <path d="M 0 0 L 10 5 L 0 10 z" /> 
    </marker>
    <marker id="ArrowStart" viewBox="0 0 10 10" refX="10" refY="5" 
     markerUnits="strokeWidth" 
     markerWidth="4" 
     markerHeight="3" 
     orient="auto"> 
        <path d="M 10 0 L 0 5 L 10 10 z" /> 
    </marker> </defs>
<g>
<path style="stroke:none; fill-rule:evenodd; fill:#ffffff" d="M 337.175 143.758C 337.175 135.309 330.324 128.453 321.871 128.453C 313.422 128.453 306.566 135.305 306.566 143.758C 306.566 152.207 313.418 159.062 321.871 159.062C 330.32 159.062 337.175 152.211 337.175 143.758"/>
<path style="stroke:#000000; stroke-width:1.9133; fill:none" d="M 337.175 143.758C 337.175 135.309 330.324 128.453 321.871 128.453C 313.422 128.453 306.566 135.305 306.566 143.758C 306.566 152.207 313.418 159.062 321.871 159.062C 330.32 159.062 337.175 152.211 337.175 143.758"/>
<path style="stroke:none; fill-rule:evenodd; fill:#ffffff" d="M 311.586 152.367L 332.152 152.367L 332.152 135.148L 311.586 135.148L 311.586 152.367z"/>
<path style="stroke:#000000; stroke-width:1.9133; fill:none" d="M 311.586 152.367L 332.152 152.367L 332.152 135.148L 311.586 135.148L 311.586 152.367z"/>
<path style="stroke:none; fill-rule:evenodd; fill:#000000" d="M 319.261 142.863C 319.25 141.676 318.464 141.004 317.062 141.004C 315.652 141.004 314.738 141.73 314.738 142.852C 314.738 143.797 315.226 144.246 316.675 144.594L 317.586 144.812C 318.261 144.973 318.531 145.215 318.531 145.652C 318.531 146.215 317.964 146.598 317.121 146.598C 316.601 146.598 316.164 146.449 315.922 146.191C 315.773 146.02 315.703 145.844 315.644 145.41L 314.629 145.41C 314.672 146.82 315.457 147.5 317.039 147.5C 318.562 147.5 319.531 146.75 319.531 145.586C 319.531 144.688 319.019 144.191 317.804 143.902L 316.871 143.684C 316.078 143.5 315.738 143.246 315.738 142.82C 315.738 142.27 316.234 141.91 317.023 141.91C 317.796 141.91 318.214 142.238 318.238 142.867L 319.261 142.863z"/>
<path style="stroke:none; fill-rule:evenodd; fill:#000000" d="M 325.632 149.703L 325.632 141.207L 324.836 141.207L 324.836 141.992C 324.382 141.355 323.695 141.008 322.894 141.008C 321.289 141.008 320.242 142.312 320.242 144.324C 320.242 146.289 321.218 147.504 322.793 147.504C 323.621 147.504 324.191 147.195 324.636 146.516L 324.636 149.703L 325.632 149.703zM 322.988 141.91C 324.007 141.91 324.664 142.828 324.664 144.273C 324.664 145.648 324 146.566 322.988 146.566C 321.933 146.566 321.234 145.637 321.234 144.238C 321.234 142.852 321.933 141.91 322.988 141.91z"/>
<path style="stroke:none; fill-rule:evenodd; fill:#000000" d="M 327.132 141.176L 327.132 147.199L 328.132 147.199L 328.132 144.066C 328.132 143.203 328.343 142.641 328.793 142.305C 329.082 142.086 329.363 142.02 330.015 142.008L 330.015 141.043C 329.859 141.023 329.781 141.012 329.656 141.012C 329.046 141.012 328.582 141.379 328.035 142.273L 328.035 141.184L 327.132 141.176z"/>
<path style="stroke:none; fill-rule:evenodd; fill:#ffffff" d="M 295.093 97.8438C 295.093 89.395 288.242 82.539 279.789 82.539C 271.339 82.539 264.484 89.391 264.484 97.8438C 264.484 106.293 271.336 113.148 279.789 113.148C 288.238 113.148 295.093 106.297 295.093 97.8438"/>
<path style="stroke:#000000; stroke-width:1.9133; fill:none" d="M 295.093 97.8438C 295.093 89.395 288.242 82.539 279.789 82.539C 271.339 82.539 264.484 89.391 264.484 97.8438C 264.484 106.293 271.336 113.148 279.789 113.148C 288.238 113.148 295.093 106.297 295.093 97.8438"/>
<path style="stroke:none; fill-rule:evenodd; fill:#ffffff" d="M 337.175 97.8438C 337.175 89.395 330.324 82.539 321.871 82.539C 313.422 82.539 306.566 89.391 306.566 97.8438C 306.566 106.293 313.418 113.148 321.871 113.148C 330.32 113.148 337.175 106.297 337.175 97.8438"/>
<path style="stroke:#000000; stroke-width:1.9133; fill:none" d="M 337.175 97.8438C 337.175 89.395 330.324 82.539 321.871 82.539C 313.422 82.539 306.566 89.391 306.566 97.8438C 306.566 106.293 313.418 113.148 321.871 113.148C 330.32 113.148 337.175 106.297 337.175 97.8438"/>
<path style="stroke:none; fill-rule:evenodd; fill:#000000" d="M 319.261 96.9648C 319.25 95.7773 318.464 95.1055 317.062 95.1055C 315.652 95.1055 314.738 95.832 314.738 96.9531C 314.738 97.8984 315.226 98.3477 316.675 98.6953L 317.586 98.9141C 318.261 99.0742 318.531 99.3164 318.531 99.7539C 318.531 100.316 317.964 100.699 317.121 100.699C 316.601 100.699 316.164 100.551 315.922 100.293C 315.773 100.121 315.703 99.9453 315.644 99.5117L 314.629 99.5117C 314.672 100.922 315.457 101.602 317.039 101.602C 318.562 101.602 319.531 100.852 319.531 99.6875C 319.531 98.7891 319.019 98.293 317.804 98.0039L 316.871 97.7852C 316.078 97.6016 315.738 97.3477 315.738 96.9219C 315.738 96.3711 316.234 96.0117 317.023 96.0117C 317.796 96.0117 318.214 96.3398 318.238 96.9688L 319.261 96.9648z"/>
<path style="stroke:none; fill-rule:evenodd; fill:#000000" d="M 325.632 103.801L 325.632 95.3047L 324.836 95.3047L 324.836 96.0898C 324.382 95.4531 323.695 95.1055 322.894 95.1055C 321.289 95.1055 320.242 96.4102 320.242 98.4219C 320.242 100.387 321.218 101.602 322.793 101.602C 323.621 101.602 324.191 101.293 324.636 100.613L 324.636 103.801L 325.632 103.801zM 322.988 96.0117C 324.007 96.0117 324.664 96.9297 324.664 98.375C 324.664 99.75 324 100.668 322.988 100.668C 321.933 100.668 321.234 99.7383 321.234 98.3398C 321.234 96.9531 321.933 96.0117 322.988 96.0117z"/>
<path style="stroke:none; fill-rule:evenodd; fill:#000000" d="M 327.132 95.2734L 327.132 101.297L 328.132 101.297L 328.132 98.1641C 328.132 97.3008 328.343 96.7383 328.793 96.4023C 329.082 96.1836 329.363 96.1172 330.015 96.1055L 330.015 95.1406C 329.859 95.1211 329.781 95.1094 329.656 95.1094C 329.046 95.1094 328.582 95.4766 328.035 96.3711L 328.035 95.2812L 327.132 95.2734z"/>
<path style="stroke:none; fill-rule:evenodd; fill:#000000" d="M 269.433 92.902L 269.433 101.301L 270.332 101.301L 270.332 100.535C 270.785 101.258 271.39 101.602 272.226 101.602C 273.8 101.602 274.828 100.297 274.828 98.2852C 274.828 96.3203 273.847 95.1055 272.277 95.1055C 271.457 95.1055 270.879 95.418 270.433 96.1016L 270.433 92.902L 269.433 92.902zM 272.082 96.0117C 273.148 96.0117 273.836 96.9414 273.836 98.375C 273.836 99.7383 273.125 100.668 272.082 100.668C 271.074 100.668 270.406 99.75 270.406 98.3398C 270.406 96.9297 271.07 96.0117 272.082 96.0117z"/>
<path style="stroke:none; fill-rule:evenodd; fill:#000000" d="M 275.933 101.301L 276.933 101.301L 276.933 92.902L 275.933 92.902L 275.933 101.301z"/>
<path style="stroke:none; fill-rule:evenodd; fill:#000000" d="M 283.332 101.336L 283.332 95.3047L 282.332 95.3047L 282.332 98.75C 282.332 99.9883 281.687 100.801 280.679 100.801C 279.918 100.801 279.433 100.34 279.433 99.6094L 279.433 95.3047L 278.433 95.3047L 278.433 99.957C 278.433 100.957 279.191 101.602 280.382 101.602C 281.281 101.602 281.855 101.293 282.429 100.5L 282.429 101.34L 283.332 101.336z"/>
<path style="stroke:none; fill-rule:evenodd; fill:#000000" d="M 290.031 98.6016C 290.031 97.6836 289.964 97.1328 289.793 96.6875C 289.406 95.7031 288.492 95.1055 287.375 95.1055C 285.711 95.1055 284.636 96.3984 284.636 98.3867C 284.636 100.375 285.672 101.602 287.347 101.602C 288.711 101.602 289.656 100.809 289.898 99.4766L 288.945 99.4766C 288.683 100.281 288.152 100.699 287.39 100.699C 286.789 100.699 286.277 100.422 285.961 99.9062C 285.734 99.5586 285.656 99.207 285.644 98.6016L 290.031 98.6016zM 285.613 97.8359C 285.691 96.7227 286.371 96 287.332 96C 288.269 96 288.996 96.7773 288.996 97.7656C 288.996 97.7852 288.996 97.8086 288.984 97.832L 285.613 97.8359z"/>
<path style="stroke:none; fill-rule:evenodd; fill:#ffffff" d="M 155.422 143.758C 155.422 135.309 148.57 128.453 140.117 128.453C 131.668 128.453 124.812 135.305 124.812 143.758C 124.812 152.207 131.664 159.062 140.117 159.062C 148.566 159.062 155.422 152.211 155.422 143.758"/>
<path style="stroke:#000000; stroke-width:1.9133; fill:none" d="M 155.422 143.758C 155.422 135.309 148.57 128.453 140.117 128.453C 131.668 128.453 124.812 135.305 124.812 143.758C 124.812 152.207 131.664 159.062 140.117 159.062C 148.566 159.062 155.422 152.211 155.422 143.758"/>
<path style="stroke:none; fill-rule:evenodd; fill:#ffffff" d="M 140.601 130.363L 127.211 150.453L 153.515 150.453L 140.601 129.41"/>
<path style="stroke:#000000; stroke-width:1.9133; fill:none" d="M 140.601 130.363L 127.211 150.453L 153.515 150.453L 140.601 129.41"/>
<path style="stroke:none; fill-rule:evenodd; fill:#ffffff" d="M 119.07 143.758C 119.07 135.309 112.218 128.453 103.765 128.453C 95.3163 128.453 88.4613 135.305 88.4613 143.758C 88.4613 152.207 95.3123 159.062 103.765 159.062C 112.214 159.062 119.07 152.211 119.07 143.758"/>
<path style="stroke:#000000; stroke-width:1.9133; fill:none" d="M 119.07 143.758C 119.07 135.309 112.218 128.453 103.765 128.453C 95.3163 128.453 88.4613 135.305 88.4613 143.758C 88.4613 152.207 95.3123 159.062 103.765 159.062C 112.214 159.062 119.07 152.211 119.07 143.758"/>
<path style="stroke:none; fill-rule:evenodd; fill:#ffffff" d="M 93.4803 152.367L 114.046 152.367L 114.046 135.148L 93.4803 135.148L 93.4803 152.367z"/>
<path style="stroke:#000000; stroke-width:1.9133; fill:none" d="M 93.4803 152.367L 114.046 152.367L 114.046 135.148L 93.4803 135.148L 93.4803 152.367z"/>
<path style="stroke:none; fill-rule:evenodd; fill:#ffff00" d="M 79.8515 48.09C 79.8515 39.641 72.9999 32.785 64.5468 32.785C 56.0976 32.785 49.2421 39.637 49.2421 48.09C 49.2421 56.539 56.0937 63.395 64.5468 63.395C 72.996 63.395 79.8515 56.543 79.8515 48.09"/>
<path style="stroke:#000000; stroke-width:1.9133; fill:none" d="M 79.8515 48.09C 79.8515 39.641 72.9999 32.785 64.5468 32.785C 56.0976 32.785 49.2421 39.637 49.2421 48.09C 49.2421 56.539 56.0937 63.395 64.5468 63.395C 72.996 63.395 79.8515 56.543 79.8515 48.09"/>
<path style="stroke:none; fill-rule:evenodd; fill:#ffffff" d="M 116.207 48.09C 116.207 39.641 109.355 32.785 100.902 32.785C 92.4533 32.785 85.5973 39.637 85.5973 48.09C 85.5973 56.539 92.4493 63.395 100.902 63.395C 109.351 63.395 116.207 56.543 116.207 48.09"/>
<path style="stroke:#000000; stroke-width:1.9133; fill:none" d="M 116.207 48.09C 116.207 39.641 109.355 32.785 100.902 32.785C 92.4533 32.785 85.5973 39.637 85.5973 48.09C 85.5973 56.539 92.4493 63.395 100.902 63.395C 109.351 63.395 116.207 56.543 116.207 48.09"/>
<path style="stroke:none; fill-rule:evenodd; fill:#000000" d="M 66.1718 49L 67.0312 51.5L 68.2226 51.5L 65.2851 43.102L 63.9101 43.102L 60.9257 51.5L 62.0585 51.5L 62.9413 49L 66.1718 49zM 65.8749 48.102L 63.2148 48.102L 64.5898 44.281L 65.8749 48.102z"/>
<path style="stroke:none; fill-rule:evenodd; fill:#000000" d="M 98.4333 51.5L 102.242 51.5C 103.039 51.5 103.629 51.281 104.082 50.801C 104.496 50.363 104.73 49.766 104.73 49.109C 104.73 48.098 104.257 47.484 103.156 47.074C 103.922 46.719 104.328 46.098 104.328 45.246C 104.328 44.637 104.101 44.098 103.66 43.703C 103.222 43.301 102.648 43.117 101.839 43.117L 98.4293 43.117L 98.4333 51.5zM 99.5313 46.801L 99.5313 44.004L 101.574 44.004C 102.164 44.004 102.492 44.086 102.773 44.316C 103.066 44.555 103.226 44.918 103.226 45.402C 103.226 45.871 103.07 46.246 102.773 46.488C 102.492 46.715 102.164 46.801 101.574 46.801L 99.5313 46.801zM 99.5313 50.602L 99.5313 47.703L 102.129 47.703C 102.64 47.703 102.984 47.828 103.238 48.105C 103.488 48.371 103.625 48.738 103.625 49.156C 103.625 49.559 103.488 49.93 103.238 50.195C 102.988 50.469 102.644 50.598 102.129 50.598L 99.5313 50.602z"/>
<path style="stroke:none; fill-rule:evenodd; fill:#000000" d="M 101.16 142.863C 101.148 141.676 100.363 141.004 98.9613 141.004C 97.5503 141.004 96.6363 141.73 96.6363 142.852C 96.6363 143.797 97.1253 144.246 98.5743 144.594L 99.4843 144.812C 100.16 144.973 100.429 145.215 100.429 145.652C 100.429 146.215 99.8633 146.598 99.0193 146.598C 98.5003 146.598 98.0623 146.449 97.8203 146.191C 97.6723 146.02 97.6013 145.844 97.5433 145.41L 96.5273 145.41C 96.5703 146.82 97.3553 147.5 98.9373 147.5C 100.461 147.5 101.429 146.75 101.429 145.586C 101.429 144.688 100.918 144.191 99.7033 143.902L 98.7693 143.684C 97.9763 143.5 97.6363 143.246 97.6363 142.82C 97.6363 142.27 98.1323 141.91 98.9223 141.91C 99.6953 141.91 100.113 142.238 100.136 142.867L 101.16 142.863z"/>
<path style="stroke:none; fill-rule:evenodd; fill:#000000" d="M 107.531 149.703L 107.531 141.207L 106.734 141.207L 106.734 141.992C 106.281 141.355 105.593 141.008 104.793 141.008C 103.187 141.008 102.14 142.312 102.14 144.324C 102.14 146.289 103.117 147.504 104.691 147.504C 105.519 147.504 106.089 147.195 106.535 146.516L 106.535 149.703L 107.531 149.703zM 104.886 141.91C 105.906 141.91 106.562 142.828 106.562 144.273C 106.562 145.648 105.898 146.566 104.886 146.566C 103.832 146.566 103.132 145.637 103.132 144.238C 103.132 142.852 103.832 141.91 104.886 141.91z"/>
<path style="stroke:none; fill-rule:evenodd; fill:#000000" d="M 109.031 141.176L 109.031 147.199L 110.031 147.199L 110.031 144.066C 110.031 143.203 110.242 142.641 110.691 142.305C 110.98 142.086 111.261 142.02 111.914 142.008L 111.914 141.043C 111.757 141.023 111.679 141.012 111.554 141.012C 110.945 141.012 110.48 141.379 109.933 142.273L 109.933 141.184L 109.031 141.176z"/>
<path style="stroke:none; fill-rule:evenodd; fill:#000000" d="M 138.734 141.203L 137.836 141.203L 137.836 139.535L 136.836 139.535L 136.836 141.203L 135.937 141.203L 135.937 142L 136.836 142L 136.836 146.547C 136.836 147.152 137.238 147.496 137.968 147.496C 138.191 147.496 138.418 147.473 138.73 147.414L 138.73 146.578C 138.617 146.668 138.48 146.695 138.312 146.695C 137.937 146.695 137.832 146.582 137.832 146.152L 137.832 142L 138.73 142L 138.734 141.203z"/>
<path style="stroke:none; fill-rule:evenodd; fill:#000000" d="M 139.832 141.176L 139.832 147.199L 140.832 147.199L 140.832 144.066C 140.832 143.203 141.043 142.641 141.492 142.305C 141.781 142.086 142.062 142.02 142.714 142.008L 142.714 141.043C 142.558 141.023 142.48 141.012 142.355 141.012C 141.746 141.012 141.281 141.379 140.734 142.273L 140.734 141.184L 139.832 141.176z"/>
<path style="stroke:none; fill-rule:evenodd; fill:#000000" d="M 144.531 141.203L 143.531 141.203L 143.531 147.203L 144.531 147.203L 144.531 141.203zM 144.531 138.801L 143.531 138.801L 143.531 140.035L 144.531 140.035L 144.531 138.801z"/>
<path style="stroke:none; fill-rule:evenodd; fill:#0000ff" d="M 295.093 143.758C 295.093 135.309 288.242 128.453 279.789 128.453C 271.339 128.453 264.484 135.305 264.484 143.758C 264.484 152.207 271.336 159.062 279.789 159.062C 288.238 159.062 295.093 152.211 295.093 143.758"/>
<path style="stroke:#000000; stroke-width:1.9133; fill:none" d="M 295.093 143.758C 295.093 135.309 288.242 128.453 279.789 128.453C 271.339 128.453 264.484 135.305 264.484 143.758C 264.484 152.207 271.336 159.062 279.789 159.062C 288.238 159.062 295.093 152.211 295.093 143.758"/>
<path style="stroke:none; fill-rule:evenodd; fill:#000000" d="M 269.433 138.801L 269.433 147.199L 270.332 147.199L 270.332 146.434C 270.785 147.156 271.39 147.5 272.226 147.5C 273.8 147.5 274.828 146.195 274.828 144.184C 274.828 142.219 273.847 141.004 272.277 141.004C 271.457 141.004 270.879 141.316 270.433 142L 270.433 138.801L 269.433 138.801zM 272.082 141.91C 273.148 141.91 273.836 142.84 273.836 144.273C 273.836 145.637 273.125 146.566 272.082 146.566C 271.074 146.566 270.406 145.648 270.406 144.238C 270.406 142.828 271.07 141.91 272.082 141.91z"/>
<path style="stroke:none; fill-rule:evenodd; fill:#000000" d="M 275.933 147.203L 276.933 147.203L 276.933 138.805L 275.933 138.805L 275.933 147.203z"/>
<path style="stroke:none; fill-rule:evenodd; fill:#000000" d="M 283.332 147.238L 283.332 141.207L 282.332 141.207L 282.332 144.652C 282.332 145.891 281.687 146.703 280.679 146.703C 279.918 146.703 279.433 146.242 279.433 145.512L 279.433 141.207L 278.433 141.207L 278.433 145.859C 278.433 146.859 279.191 147.504 280.382 147.504C 281.281 147.504 281.855 147.195 282.429 146.402L 282.429 147.242L 283.332 147.238z"/>
<path style="stroke:none; fill-rule:evenodd; fill:#000000" d="M 290.031 144.5C 290.031 143.582 289.964 143.031 289.793 142.586C 289.406 141.602 288.492 141.004 287.375 141.004C 285.711 141.004 284.636 142.297 284.636 144.285C 284.636 146.273 285.672 147.5 287.347 147.5C 288.711 147.5 289.656 146.707 289.898 145.375L 288.945 145.375C 288.683 146.18 288.152 146.598 287.39 146.598C 286.789 146.598 286.277 146.32 285.961 145.805C 285.734 145.457 285.656 145.105 285.644 144.5L 290.031 144.5zM 285.613 143.734C 285.691 142.621 286.371 141.898 287.332 141.898C 288.269 141.898 288.996 142.676 288.996 143.664C 288.996 143.684 288.996 143.707 288.984 143.73L 285.613 143.734z"/>
<path style="stroke:none; fill-rule:evenodd; fill:#ffff00" d="M 212.761 48.09C 212.761 39.641 205.91 32.785 197.457 32.785C 189.007 32.785 182.152 39.637 182.152 48.09C 182.152 56.539 189.004 63.395 197.457 63.395C 205.906 63.395 212.761 56.543 212.761 48.09"/>
<path style="stroke:#000000; stroke-width:1.9133; fill:none" d="M 212.761 48.09C 212.761 39.641 205.91 32.785 197.457 32.785C 189.007 32.785 182.152 39.637 182.152 48.09C 182.152 56.539 189.004 63.395 197.457 63.395C 205.906 63.395 212.761 56.543 212.761 48.09"/>
<path style="stroke:none; fill-rule:evenodd; fill:#000000" d="M 199.074 49L 199.933 51.5L 201.125 51.5L 198.187 43.102L 196.812 43.102L 193.828 51.5L 194.961 51.5L 195.843 49L 199.074 49zM 198.777 48.102L 196.117 48.102L 197.492 44.281L 198.777 48.102z"/>
<path style="stroke:none; fill-rule:evenodd; fill:#ffffff" d="M 249.113 48.102C 249.113 39.652 242.261 32.797 233.808 32.797C 225.359 32.797 218.504 39.648 218.504 48.102C 218.504 56.551 225.355 63.406 233.808 63.406C 242.257 63.406 249.113 56.555 249.113 48.102"/>
<path style="stroke:#000000; stroke-width:1.9133; fill:none" d="M 249.113 48.102C 249.113 39.652 242.261 32.797 233.808 32.797C 225.359 32.797 218.504 39.648 218.504 48.102C 218.504 56.551 225.355 63.406 233.808 63.406C 242.257 63.406 249.113 56.555 249.113 48.102"/>
<path style="stroke:none; fill-rule:evenodd; fill:#000000" d="M 231.332 51.5L 235.14 51.5C 235.937 51.5 236.527 51.281 236.98 50.801C 237.394 50.363 237.629 49.766 237.629 49.109C 237.629 48.098 237.156 47.484 236.054 47.074C 236.82 46.719 237.226 46.098 237.226 45.246C 237.226 44.637 237 44.098 236.558 43.703C 236.121 43.301 235.546 43.117 234.738 43.117L 231.328 43.117L 231.332 51.5zM 232.433 46.801L 232.433 44.004L 234.476 44.004C 235.066 44.004 235.394 44.086 235.675 44.316C 235.968 44.555 236.129 44.918 236.129 45.402C 236.129 45.871 235.972 46.246 235.675 46.488C 235.394 46.715 235.066 46.801 234.476 46.801L 232.433 46.801zM 232.433 50.602L 232.433 47.703L 235.031 47.703C 235.543 47.703 235.886 47.828 236.14 48.105C 236.39 48.371 236.527 48.738 236.527 49.156C 236.527 49.559 236.39 49.93 236.14 50.195C 235.89 50.469 235.546 50.598 235.031 50.598L 232.433 50.602z"/>
<path style="stroke:none; fill-rule:evenodd; fill:#ff0000" d="M 258.742 143.758C 258.742 135.309 251.89 128.453 243.437 128.453C 234.988 128.453 228.132 135.305 228.132 143.758C 228.132 152.207 234.984 159.062 243.437 159.062C 251.886 159.062 258.742 152.211 258.742 143.758"/>
<path style="stroke:#000000; stroke-width:1.9133; fill:none" d="M 258.742 143.758C 258.742 135.309 251.89 128.453 243.437 128.453C 234.988 128.453 228.132 135.305 228.132 143.758C 228.132 152.207 234.984 159.062 243.437 159.062C 251.886 159.062 258.742 152.211 258.742 143.758"/>
<path style="stroke:none; fill-rule:evenodd; fill:#000000" d="M 236.132 141.176L 236.132 147.199L 237.132 147.199L 237.132 144.066C 237.132 143.203 237.343 142.641 237.793 142.305C 238.082 142.086 238.363 142.02 239.015 142.008L 239.015 141.043C 238.859 141.023 238.781 141.012 238.656 141.012C 238.046 141.012 237.582 141.379 237.035 142.273L 237.035 141.184L 236.132 141.176z"/>
<path style="stroke:none; fill-rule:evenodd; fill:#000000" d="M 245.031 144.5C 245.031 143.582 244.964 143.031 244.793 142.586C 244.406 141.602 243.492 141.004 242.375 141.004C 240.711 141.004 239.636 142.297 239.636 144.285C 239.636 146.273 240.672 147.5 242.347 147.5C 243.711 147.5 244.656 146.707 244.898 145.375L 243.945 145.375C 243.683 146.18 243.152 146.598 242.39 146.598C 241.789 146.598 241.277 146.32 240.961 145.805C 240.734 145.457 240.656 145.105 240.644 144.5L 245.031 144.5zM 240.613 143.734C 240.691 142.621 241.371 141.898 242.332 141.898C 243.269 141.898 243.996 142.676 243.996 143.664C 243.996 143.684 243.996 143.707 243.984 143.73L 240.613 143.734z"/>
<path style="stroke:none; fill-rule:evenodd; fill:#000000" d="M 251.234 138.801L 250.234 138.801L 250.234 141.941C 249.836 141.328 249.199 141 248.398 141C 246.851 141 245.836 142.258 245.836 144.191C 245.836 146.238 246.847 147.496 248.488 147.496C 249.324 147.496 249.906 147.176 250.429 146.406L 250.429 147.195L 251.226 147.195L 251.234 138.801zM 248.558 141.902C 249.578 141.902 250.226 142.828 250.226 144.273C 250.226 145.672 249.57 146.598 248.57 146.598C 247.527 146.598 246.832 145.66 246.832 144.25C 246.832 142.84 247.523 141.902 248.558 141.902z"/>
<path style="stroke:none; fill-rule:evenodd; fill:#ffffff" d="M 373.527 97.8438C 373.527 89.395 366.675 82.539 358.222 82.539C 349.773 82.539 342.918 89.391 342.918 97.8438C 342.918 106.293 349.769 113.148 358.222 113.148C 366.672 113.148 373.527 106.297 373.527 97.8438"/>
<path style="stroke:#000000; stroke-width:1.9133; fill:none" d="M 373.527 97.8438C 373.527 89.395 366.675 82.539 358.222 82.539C 349.773 82.539 342.918 89.391 342.918 97.8438C 342.918 106.293 349.769 113.148 358.222 113.148C 366.672 113.148 373.527 106.297 373.527 97.8438"/>
<path style="stroke:none; fill-rule:evenodd; fill:#000000" d="M 356.832 95.3008L 355.933 95.3008L 355.933 93.6328L 354.933 93.6328L 354.933 95.3008L 354.035 95.3008L 354.035 96.0977L 354.933 96.0977L 354.933 100.645C 354.933 101.25 355.336 101.594 356.066 101.594C 356.289 101.594 356.515 101.57 356.828 101.512L 356.828 100.676C 356.714 100.766 356.578 100.793 356.41 100.793C 356.035 100.793 355.929 100.68 355.929 100.25L 355.929 96.0977L 356.828 96.0977L 356.832 95.3008z"/>
<path style="stroke:none; fill-rule:evenodd; fill:#000000" d="M 357.933 95.2734L 357.933 101.297L 358.933 101.297L 358.933 98.1641C 358.933 97.3008 359.144 96.7383 359.593 96.4023C 359.882 96.1836 360.164 96.1172 360.816 96.1055L 360.816 95.1406C 360.66 95.1211 360.582 95.1094 360.457 95.1094C 359.847 95.1094 359.382 95.4766 358.836 96.3711L 358.836 95.2812L 357.933 95.2734z"/>
<path style="stroke:none; fill-rule:evenodd; fill:#000000" d="M 362.632 95.3008L 361.632 95.3008L 361.632 101.301L 362.632 101.301L 362.632 95.3008zM 362.632 92.902L 361.632 92.902L 361.632 94.1367L 362.632 94.1367L 362.632 92.902z"/>
<path style="stroke:none; fill-rule:evenodd; fill:#000000" d="M 236.132 95.2734L 236.132 101.297L 237.132 101.297L 237.132 98.1641C 237.132 97.3008 237.343 96.7383 237.793 96.4023C 238.082 96.1836 238.363 96.1172 239.015 96.1055L 239.015 95.1406C 238.859 95.1211 238.781 95.1094 238.656 95.1094C 238.046 95.1094 237.582 95.4766 237.035 96.3711L 237.035 95.2812L 236.132 95.2734z"/>
<path style="stroke:none; fill-rule:evenodd; fill:#000000" d="M 245.031 98.6016C 245.031 97.6836 244.964 97.1328 244.793 96.6875C 244.406 95.7031 243.492 95.1055 242.375 95.1055C 240.711 95.1055 239.636 96.3984 239.636 98.3867C 239.636 100.375 240.672 101.602 242.347 101.602C 243.711 101.602 244.656 100.809 244.898 99.4766L 243.945 99.4766C 243.683 100.281 243.152 100.699 242.39 100.699C 241.789 100.699 241.277 100.422 240.961 99.9062C 240.734 99.5586 240.656 99.207 240.644 98.6016L 245.031 98.6016zM 240.613 97.8359C 240.691 96.7227 241.371 96 242.332 96C 243.269 96 243.996 96.7773 243.996 97.7656C 243.996 97.7852 243.996 97.8086 243.984 97.832L 240.613 97.8359z"/>
<path style="stroke:none; fill-rule:evenodd; fill:#000000" d="M 251.234 92.902L 250.234 92.902L 250.234 96.043C 249.836 95.4297 249.199 95.1016 248.398 95.1016C 246.851 95.1016 245.836 96.3594 245.836 98.293C 245.836 100.34 246.847 101.598 248.488 101.598C 249.324 101.598 249.906 101.277 250.429 100.508L 250.429 101.297L 251.226 101.297L 251.234 92.902zM 248.558 96C 249.578 96 250.226 96.9258 250.226 98.3711C 250.226 99.7695 249.57 100.695 248.57 100.695C 247.527 100.695 246.832 99.7578 246.832 98.3477C 246.832 96.9375 247.523 96 248.558 96z"/>
<path style="stroke:none; fill-rule:evenodd; fill:#ffff00" d="M 258.742 97.8438C 258.742 89.395 251.89 82.539 243.437 82.539C 234.988 82.539 228.132 89.391 228.132 97.8438C 228.132 106.293 234.984 113.148 243.437 113.148C 251.886 113.148 258.742 106.297 258.742 97.8438"/>
<path style="stroke:#000000; stroke-width:1.9133; fill:none" d="M 258.742 97.8438C 258.742 89.395 251.89 82.539 243.437 82.539C 234.988 82.539 228.132 89.391 228.132 97.8438C 228.132 106.293 234.984 113.148 243.437 113.148C 251.886 113.148 258.742 106.297 258.742 97.8438"/>
<path style="stroke:none; fill-rule:evenodd; fill:#ffff00" d="M 233.867 103.582L 252.996 103.582L 252.996 92.105L 233.867 92.105L 233.867 103.582z"/>
<path style="stroke:none; fill-rule:evenodd; fill:#ff0000" d="M 236.132 95.2734L 236.132 101.297L 237.132 101.297L 237.132 98.1641C 237.132 97.3008 237.343 96.7383 237.793 96.4023C 238.082 96.1836 238.363 96.1172 239.015 96.1055L 239.015 95.1406C 238.859 95.1211 238.781 95.1094 238.656 95.1094C 238.046 95.1094 237.582 95.4766 237.035 96.3711L 237.035 95.2812L 236.132 95.2734z"/>
<path style="stroke:none; fill-rule:evenodd; fill:#ff0000" d="M 245.031 98.6016C 245.031 97.6836 244.964 97.1328 244.793 96.6875C 244.406 95.7031 243.492 95.1055 242.375 95.1055C 240.711 95.1055 239.636 96.3984 239.636 98.3867C 239.636 100.375 240.672 101.602 242.347 101.602C 243.711 101.602 244.656 100.809 244.898 99.4766L 243.945 99.4766C 243.683 100.281 243.152 100.699 242.39 100.699C 241.789 100.699 241.277 100.422 240.961 99.9062C 240.734 99.5586 240.656 99.207 240.644 98.6016L 245.031 98.6016zM 240.613 97.8359C 240.691 96.7227 241.371 96 242.332 96C 243.269 96 243.996 96.7773 243.996 97.7656C 243.996 97.7852 243.996 97.8086 243.984 97.832L 240.613 97.8359z"/>
<path style="stroke:none; fill-rule:evenodd; fill:#ff0000" d="M 251.234 92.902L 250.234 92.902L 250.234 96.043C 249.836 95.4297 249.199 95.1016 248.398 95.1016C 246.851 95.1016 245.836 96.3594 245.836 98.293C 245.836 100.34 246.847 101.598 248.488 101.598C 249.324 101.598 249.906 101.277 250.429 100.508L 250.429 101.297L 251.226 101.297L 251.234 92.902zM 248.558 96C 249.578 96 250.226 96.9258 250.226 98.3711C 250.226 99.7695 249.57 100.695 248.57 100.695C 247.527 100.695 246.832 99.7578 246.832 98.3477C 246.832 96.9375 247.523 96 248.558 96z"/>
<path style="stroke:none; fill-rule:evenodd; fill:#ffffff" d="M 212.781 117.004C 212.781 108.555 205.929 101.699 197.476 101.699C 189.027 101.699 182.172 108.551 182.172 117.004C 182.172 125.453 189.023 132.309 197.476 132.309C 205.925 132.309 212.781 125.457 212.781 117.004"/>
<path style="stroke:#000000; stroke-width:1.9133; fill:none" d="M 212.781 117.004C 212.781 108.555 205.929 101.699 197.476 101.699C 189.027 101.699 182.172 108.551 182.172 117.004C 182.172 125.453 189.023 132.309 197.476 132.309C 205.925 132.309 212.781 125.457 212.781 117.004"/>
<path style="stroke:none; fill-rule:evenodd; fill:#000000" d="M 185.234 114.949L 185.234 120L 186.031 120L 186.031 116.824C 186.031 116.094 186.554 115.504 187.203 115.504C 187.793 115.504 188.129 115.871 188.129 116.516L 188.129 120L 188.925 120L 188.925 116.824C 188.925 116.094 189.449 115.504 190.097 115.504C 190.675 115.504 191.023 115.879 191.023 116.516L 191.023 120L 191.82 120L 191.82 116.211C 191.82 115.305 191.304 114.805 190.363 114.805C 189.695 114.805 189.289 115.016 188.82 115.613C 188.523 115.051 188.121 114.805 187.468 114.805C 186.8 114.805 186.359 115.055 185.925 115.66L 185.925 114.949L 185.234 114.949z"/>
<path style="stroke:none; fill-rule:evenodd; fill:#000000" d="M 197.652 119.531C 197.566 119.504 197.527 119.504 197.476 119.504C 197.195 119.504 197.039 119.363 197.039 119.113L 197.039 116.172C 197.039 115.285 196.394 114.809 195.164 114.809C 194.441 114.809 193.843 115.023 193.507 115.406C 193.281 115.668 193.187 115.965 193.168 116.473L 193.964 116.473C 194.031 115.809 194.39 115.504 195.132 115.504C 195.843 115.504 196.242 115.773 196.242 116.258L 196.242 116.469C 196.242 116.805 196.043 116.949 195.418 117.027C 194.296 117.172 194.125 117.211 193.82 117.336C 193.242 117.574 192.945 118.031 192.945 118.691C 192.945 119.609 193.574 120.191 194.589 120.191C 195.218 120.191 195.726 119.98 196.293 119.477C 196.347 119.969 196.597 120.191 197.113 120.191C 197.273 120.191 197.398 120.176 197.656 120.109L 197.652 119.531zM 196.234 118.414C 196.234 118.676 196.16 118.84 195.918 119.055C 195.593 119.348 195.199 119.496 194.726 119.496C 194.101 119.496 193.738 119.203 193.738 118.703C 193.738 118.184 194.093 117.918 194.949 117.797C 195.793 117.684 195.964 117.648 196.234 117.523L 196.234 118.414z"/>
<path style="stroke:none; fill-rule:evenodd; fill:#000000" d="M 200.234 115L 199.437 115L 199.437 113.609L 198.64 113.609L 198.64 115L 197.941 115L 197.941 115.699L 198.64 115.699L 198.64 119.418C 198.64 119.914 198.98 120.195 199.593 120.195C 199.781 120.195 199.972 120.18 200.234 120.133L 200.234 119.484C 200.132 119.496 200.011 119.5 199.863 119.5C 199.531 119.5 199.437 119.406 199.437 119.062L 199.437 115.703L 200.234 115.703L 200.234 115z"/>
<path style="stroke:none; fill-rule:evenodd; fill:#000000" d="M 205.039 116.672C 205.004 116.145 204.898 115.805 204.707 115.504C 204.363 115.066 203.761 114.805 203.066 114.805C 201.718 114.805 200.839 115.879 200.839 117.551C 200.839 119.172 201.699 120.199 203.054 120.199C 204.246 120.199 205.004 119.492 205.097 118.277L 204.289 118.277C 204.156 119.09 203.742 119.496 203.054 119.496C 202.168 119.496 201.636 118.762 201.636 117.547C 201.636 116.266 202.156 115.5 203.035 115.5C 203.707 115.5 204.132 115.918 204.23 116.668L 205.039 116.672z"/>
<path style="stroke:none; fill-rule:evenodd; fill:#000000" d="M 206.031 113L 206.031 120L 206.828 120L 206.828 117.211C 206.828 116.18 207.363 115.504 208.187 115.504C 208.445 115.504 208.703 115.59 208.894 115.734C 209.121 115.895 209.218 116.137 209.218 116.496L 209.218 120L 210.015 120L 210.015 116.184C 210.015 115.336 209.414 114.805 208.429 114.805C 207.718 114.805 207.289 115.035 206.816 115.68L 206.816 113.008L 206.031 113z"/>
<path style="stroke:none; fill-rule:evenodd; fill:#000000" d="M 255.656 42.203C 254.539 43.711 253.832 45.805 253.832 47.613C 253.832 49.43 254.535 51.523 255.656 53.031L 256.269 53.031C 255.281 51.387 254.73 49.453 254.73 47.613C 254.73 45.785 255.281 43.84 256.269 42.203L 255.656 42.203z"/>
<path style="stroke:none; fill-rule:evenodd; fill:#000000" d="M 257.531 44.574L 257.531 50.598L 258.531 50.598L 258.531 47.25C 258.531 46.012 259.156 45.199 260.121 45.199C 260.859 45.199 261.328 45.66 261.328 46.391L 261.328 50.594L 262.328 50.594L 262.328 46.039C 262.328 45.039 261.586 44.395 260.425 44.395C 259.535 44.395 258.961 44.738 258.433 45.578L 258.433 44.566L 257.531 44.574z"/>
<path style="stroke:none; fill-rule:evenodd; fill:#000000" d="M 266.269 44.402C 264.566 44.402 263.535 45.617 263.535 47.652C 263.535 49.688 264.554 50.902 266.285 50.902C 267.988 50.902 269.035 49.691 269.035 47.703C 269.035 45.613 268.027 44.41 266.277 44.41L 266.269 44.402zM 266.281 45.301C 267.375 45.301 268.031 46.188 268.031 47.684C 268.031 49.098 267.355 49.996 266.281 49.996C 265.199 49.996 264.531 49.109 264.531 47.648C 264.531 46.199 265.195 45.301 266.281 45.301z"/>
<path style="stroke:none; fill-rule:evenodd; fill:#000000" d="M 270.031 48.301L 275.828 48.301L 275.828 47.504L 270.031 47.504L 270.031 48.301z"/>
<path style="stroke:none; fill-rule:evenodd; fill:#000000" d="M 277.031 44.574L 277.031 50.598L 278.031 50.598L 278.031 46.789C 278.031 45.91 278.656 45.203 279.425 45.203C 280.129 45.203 280.527 45.641 280.527 46.418L 280.527 50.598L 281.527 50.598L 281.527 46.789C 281.527 45.91 282.152 45.203 282.922 45.203C 283.613 45.203 284.023 45.652 284.023 46.418L 284.023 50.598L 285.023 50.598L 285.023 46.078C 285.023 45 284.402 44.402 283.269 44.402C 282.464 44.402 281.976 44.645 281.414 45.332C 281.058 44.684 280.574 44.402 279.789 44.402C 278.984 44.402 278.453 44.699 277.933 45.422L 277.933 44.574L 277.031 44.574z"/>
<path style="stroke:none; fill-rule:evenodd; fill:#000000" d="M 291.972 50.039C 291.867 50.098 291.82 50.098 291.761 50.098C 291.422 50.098 291.234 49.926 291.234 49.625L 291.234 46.059C 291.234 44.984 290.457 44.402 288.984 44.402C 288.117 44.402 287.398 44.656 286.996 45.105C 286.722 45.414 286.609 45.762 286.586 46.363L 287.531 46.363C 287.609 45.633 288.035 45.301 288.918 45.301C 289.761 45.301 290.234 45.621 290.234 46.199L 290.234 46.453C 290.234 46.855 290 47.027 289.257 47.121C 287.933 47.293 287.73 47.34 287.371 47.488C 286.687 47.773 286.339 48.316 286.339 49.102C 286.339 50.195 287.093 50.887 288.304 50.887C 289.058 50.887 289.664 50.613 290.339 49.969C 290.406 50.602 290.703 50.887 291.32 50.887C 291.511 50.887 291.66 50.863 291.968 50.781L 291.972 50.039zM 290.234 48.742C 290.234 49.07 290.144 49.273 289.867 49.547C 289.488 49.91 289.031 50.102 288.484 50.102C 287.761 50.102 287.336 49.738 287.336 49.109C 287.336 48.461 287.746 48.129 288.738 47.977C 289.718 47.836 289.918 47.789 290.23 47.637L 290.234 48.742z"/>
<path style="stroke:none; fill-rule:evenodd; fill:#000000" d="M 295.031 44.602L 294.132 44.602L 294.132 42.934L 293.132 42.934L 293.132 44.602L 292.234 44.602L 292.234 45.398L 293.132 45.398L 293.132 49.945C 293.132 50.551 293.535 50.895 294.265 50.895C 294.488 50.895 294.714 50.871 295.027 50.812L 295.027 49.977C 294.914 50.066 294.777 50.094 294.609 50.094C 294.234 50.094 294.129 49.98 294.129 49.551L 294.129 45.398L 295.027 45.398L 295.031 44.602z"/>
<path style="stroke:none; fill-rule:evenodd; fill:#000000" d="M 300.738 46.605C 300.695 46.02 300.57 45.637 300.339 45.301C 299.933 44.738 299.214 44.402 298.386 44.402C 296.785 44.402 295.738 45.695 295.738 47.707C 295.738 49.66 296.761 50.898 298.375 50.898C 299.796 50.898 300.695 50.027 300.808 48.535L 299.855 48.535C 299.699 49.512 299.211 50 298.406 50C 297.363 50 296.738 49.137 296.738 47.711C 296.738 46.203 297.347 45.305 298.382 45.305C 299.175 45.305 299.675 45.773 299.789 46.609L 300.738 46.605z"/>
<path style="stroke:none; fill-rule:evenodd; fill:#000000" d="M 301.933 42.203L 301.933 50.602L 302.933 50.602L 302.933 47.254C 302.933 46.016 303.558 45.203 304.523 45.203C 304.824 45.203 305.125 45.305 305.351 45.48C 305.617 45.676 305.73 45.965 305.73 46.395L 305.73 50.598L 306.73 50.598L 306.73 46.043C 306.73 45.031 306.011 44.398 304.847 44.398C 304.004 44.398 303.492 44.664 302.933 45.406L 302.933 42.195L 301.933 42.203z"/>
<path style="stroke:none; fill-rule:evenodd; fill:#000000" d="M 308.589 53.035C 309.718 51.527 310.429 49.434 310.429 47.629C 310.429 45.812 309.718 43.719 308.589 42.207L 307.972 42.207C 308.976 43.855 309.535 45.785 309.535 47.629C 309.535 49.457 308.976 51.402 307.972 53.035L 308.589 53.035z"/>
<path style="stroke:#000000; stroke-width:1.9133; fill:none" d="M 205.109 34.707C 205.109 34.707 205.109 34.707 206.062 33.113C 207.015 31.52 208.929 28.332 211.8 26.738C 214.668 25.145 218.496 25.145 221.046 26.738C 223.597 28.332 224.871 31.52 225.507 33.113C 226.144 34.707 226.144 34.707 226.144 34.707"/>
<path style="stroke:none; fill-rule:evenodd; fill:#000000" d="M 207.019 34.707C 207.019 33.652 206.164 32.797 205.109 32.797C 204.054 32.797 203.199 33.652 203.199 34.707C 203.199 35.762 204.054 36.617 205.109 36.617C 206.164 36.617 207.019 35.762 207.019 34.707"/>
<path style="stroke:#000000; stroke-width:1.9133; fill:none" d="M 207.019 34.707C 207.019 33.652 206.164 32.797 205.109 32.797C 204.054 32.797 203.199 33.652 203.199 34.707C 203.199 35.762 204.054 36.617 205.109 36.617C 206.164 36.617 207.019 35.762 207.019 34.707"/>
<path style="stroke:none; fill-rule:evenodd; fill:#000000" d="M 228.066 34.707C 228.066 33.652 227.211 32.797 226.156 32.797C 225.101 32.797 224.246 33.652 224.246 34.707C 224.246 35.762 225.101 36.617 226.156 36.617C 227.211 36.617 228.066 35.762 228.066 34.707"/>
<path style="stroke:#000000; stroke-width:1.9133; fill:none" d="M 228.066 34.707C 228.066 33.652 227.211 32.797 226.156 32.797C 225.101 32.797 224.246 33.652 224.246 34.707C 224.246 35.762 225.101 36.617 226.156 36.617C 227.211 36.617 228.066 35.762 228.066 34.707"/>
<path style="stroke:none; fill-rule:evenodd; fill:#000000" d="M 380.433 148.102L 381.531 148.102L 381.531 139.703L 380.433 139.703L 380.433 148.102z"/>
<path style="stroke:none; fill-rule:evenodd; fill:#000000" d="M 383.332 142.074L 383.332 148.098L 384.332 148.098L 384.332 144.75C 384.332 143.512 384.957 142.699 385.922 142.699C 386.66 142.699 387.129 143.16 387.129 143.891L 387.129 148.094L 388.129 148.094L 388.129 143.539C 388.129 142.539 387.386 141.895 386.226 141.895C 385.336 141.895 384.761 142.238 384.234 143.078L 384.234 142.066L 383.332 142.074z"/>
<path style="stroke:none; fill-rule:evenodd; fill:#000000" d="M 389.531 150.605L 390.531 150.605L 390.531 147.504C 391.031 148.125 391.593 148.402 392.367 148.402C 393.91 148.402 394.925 147.145 394.925 145.211C 394.925 143.18 393.941 141.906 392.343 141.906C 391.531 141.906 390.875 142.273 390.429 142.984L 390.429 142.078L 389.531 142.078L 389.531 150.605zM 392.199 142.801C 393.246 142.801 393.929 143.734 393.929 145.184C 393.929 146.559 393.234 147.496 392.199 147.496C 391.195 147.496 390.535 146.57 390.535 145.148C 390.535 143.727 391.195 142.801 392.199 142.801z"/>
<path style="stroke:none; fill-rule:evenodd; fill:#000000" d="M 400.933 148.137L 400.933 142.105L 399.933 142.105L 399.933 145.551C 399.933 146.789 399.289 147.602 398.281 147.602C 397.519 147.602 397.035 147.141 397.035 146.41L 397.035 142.105L 396.035 142.105L 396.035 146.758C 396.035 147.758 396.793 148.402 397.984 148.402C 398.882 148.402 399.457 148.094 400.031 147.301L 400.031 148.141L 400.933 148.137z"/>
<path style="stroke:none; fill-rule:evenodd; fill:#000000" d="M 404.632 142.102L 403.734 142.102L 403.734 140.434L 402.734 140.434L 402.734 142.102L 401.836 142.102L 401.836 142.898L 402.734 142.898L 402.734 147.445C 402.734 148.051 403.136 148.395 403.867 148.395C 404.089 148.395 404.316 148.371 404.629 148.312L 404.629 147.477C 404.515 147.566 404.379 147.594 404.211 147.594C 403.836 147.594 403.73 147.48 403.73 147.051L 403.73 142.898L 404.629 142.898L 404.632 142.102z"/>
<path style="stroke:none; fill-rule:evenodd; fill:#000000" d="M 224.867 84.902L 223.492 84.902C 221.433 84.902 220.234 87.922 220.234 93.145L 220.234 103.648C 220.234 109.496 219.668 111.574 217.91 112.328L 217.91 116.668C 219.668 117.422 220.234 119.559 220.234 125.348L 220.234 135.852C 220.234 141.07 221.429 144.09 223.492 144.09L 224.867 144.09L 224.867 139.992L 224.422 139.992C 222.957 139.992 222.539 139.051 222.539 135.781L 222.539 124.402C 222.539 119.184 221.765 116.105 220.101 114.469C 221.914 112.961 222.539 110.383 222.539 104.598L 222.539 93.219C 222.539 89.949 222.957 89.004 224.422 89.004L 224.867 89.004L 224.867 84.902z"/>
<path style="stroke:none; fill-rule:evenodd; fill:#000000" d="M 382.773 94L 383.632 96.5L 384.824 96.5L 381.886 88.102L 380.511 88.102L 377.527 96.5L 378.66 96.5L 379.543 94L 382.773 94zM 382.476 93.102L 379.816 93.102L 381.191 89.281L 382.476 93.102z"/>
<path style="stroke:none; fill-rule:evenodd; fill:#000000" d="M 390.437 92.508C 390.394 91.922 390.269 91.539 390.039 91.203C 389.632 90.641 388.914 90.305 388.086 90.305C 386.484 90.305 385.437 91.598 385.437 93.6094C 385.437 95.5625 386.461 96.8008 388.074 96.8008C 389.496 96.8008 390.394 95.9297 390.507 94.4375L 389.554 94.4375C 389.398 95.4141 388.91 95.9023 388.105 95.9023C 387.062 95.9023 386.437 95.0391 386.437 93.6133C 386.437 92.105 387.046 91.207 388.082 91.207C 388.875 91.207 389.375 91.676 389.488 92.512L 390.437 92.508z"/>
<path style="stroke:none; fill-rule:evenodd; fill:#000000" d="M 393.632 90.5L 392.734 90.5L 392.734 88.832L 391.734 88.832L 391.734 90.5L 390.836 90.5L 390.836 91.297L 391.734 91.297L 391.734 95.8438C 391.734 96.4492 392.136 96.793 392.867 96.793C 393.089 96.793 393.316 96.7695 393.629 96.7109L 393.629 95.875C 393.515 95.9648 393.379 95.9922 393.211 95.9922C 392.836 95.9922 392.73 95.8789 392.73 95.4492L 392.73 91.297L 393.629 91.297L 393.632 90.5z"/>
<path style="stroke:none; fill-rule:evenodd; fill:#000000" d="M 395.632 90.5L 394.632 90.5L 394.632 96.5L 395.632 96.5L 395.632 90.5zM 395.632 88.102L 394.632 88.102L 394.632 89.336L 395.632 89.336L 395.632 88.102z"/>
<path style="stroke:none; fill-rule:evenodd; fill:#000000" d="M 399.703 96.5L 402.007 90.5L 400.929 90.5L 399.234 95.3594L 397.629 90.5L 396.55 90.5L 398.66 96.5L 399.703 96.5z"/>
<path style="stroke:none; fill-rule:evenodd; fill:#000000" d="M 408.132 93.8008C 408.132 92.883 408.066 92.332 407.894 91.887C 407.507 90.902 406.593 90.305 405.476 90.305C 403.812 90.305 402.738 91.598 402.738 93.5859C 402.738 95.5742 403.773 96.8008 405.449 96.8008C 406.812 96.8008 407.757 96.0078 408 94.6758L 407.046 94.6758C 406.785 95.4805 406.254 95.8984 405.492 95.8984C 404.89 95.8984 404.379 95.6211 404.062 95.1055C 403.836 94.7578 403.757 94.4062 403.746 93.8008L 408.132 93.8008zM 403.714 93.035C 403.793 91.922 404.472 91.199 405.433 91.199C 406.371 91.199 407.097 91.977 407.097 92.965C 407.097 92.984 407.097 93.008 407.086 93.031L 403.714 93.035z"/>
<path style="stroke:none; fill-rule:evenodd; fill:#000000" d="M 378.132 101.977L 378.132 108L 379.132 108L 379.132 104.191C 379.132 103.312 379.757 102.605 380.527 102.605C 381.23 102.605 381.629 103.043 381.629 103.82L 381.629 108L 382.629 108L 382.629 104.191C 382.629 103.312 383.254 102.605 384.023 102.605C 384.714 102.605 385.125 103.055 385.125 103.82L 385.125 108L 386.125 108L 386.125 103.48C 386.125 102.402 385.504 101.805 384.371 101.805C 383.566 101.805 383.078 102.047 382.515 102.734C 382.16 102.086 381.675 101.805 380.89 101.805C 380.086 101.805 379.554 102.102 379.035 102.824L 379.035 101.977L 378.132 101.977z"/>
<path style="stroke:none; fill-rule:evenodd; fill:#000000" d="M 392.832 105.301C 392.832 104.383 392.765 103.832 392.593 103.387C 392.207 102.402 391.293 101.805 390.175 101.805C 388.511 101.805 387.437 103.098 387.437 105.086C 387.437 107.074 388.472 108.301 390.148 108.301C 391.511 108.301 392.457 107.508 392.699 106.176L 391.746 106.176C 391.484 106.98 390.953 107.398 390.191 107.398C 389.589 107.398 389.078 107.121 388.761 106.605C 388.535 106.258 388.457 105.906 388.445 105.301L 392.832 105.301zM 388.414 104.535C 388.492 103.422 389.172 102.699 390.132 102.699C 391.07 102.699 391.796 103.477 391.796 104.465C 391.796 104.484 391.796 104.508 391.785 104.531L 388.414 104.535z"/>
<path style="stroke:none; fill-rule:evenodd; fill:#000000" d="M 394.132 101.977L 394.132 108L 395.132 108L 395.132 104.191C 395.132 103.312 395.757 102.605 396.527 102.605C 397.23 102.605 397.629 103.043 397.629 103.82L 397.629 108L 398.629 108L 398.629 104.191C 398.629 103.312 399.254 102.605 400.023 102.605C 400.714 102.605 401.125 103.055 401.125 103.82L 401.125 108L 402.125 108L 402.125 103.48C 402.125 102.402 401.504 101.805 400.371 101.805C 399.566 101.805 399.078 102.047 398.515 102.734C 398.16 102.086 397.675 101.805 396.89 101.805C 396.086 101.805 395.554 102.102 395.035 102.824L 395.035 101.977L 394.132 101.977z"/>
<path style="stroke:none; fill-rule:evenodd; fill:#000000" d="M 405.968 101.801C 404.265 101.801 403.234 103.016 403.234 105.051C 403.234 107.086 404.254 108.301 405.984 108.301C 407.687 108.301 408.734 107.09 408.734 105.102C 408.734 103.012 407.726 101.809 405.976 101.809L 405.968 101.801zM 405.984 102.703C 407.078 102.703 407.734 103.59 407.734 105.086C 407.734 106.5 407.058 107.398 405.984 107.398C 404.902 107.398 404.234 106.512 404.234 105.051C 404.234 103.602 404.898 102.703 405.984 102.703z"/>
<path style="stroke:none; fill-rule:evenodd; fill:#000000" d="M 410.031 101.977L 410.031 108L 411.031 108L 411.031 104.867C 411.031 104.004 411.242 103.441 411.691 103.105C 411.98 102.887 412.261 102.82 412.914 102.809L 412.914 101.844C 412.757 101.824 412.679 101.812 412.554 101.812C 411.945 101.812 411.48 102.18 410.933 103.074L 410.933 101.984L 410.031 101.977z"/>
<path style="stroke:none; fill-rule:evenodd; fill:#000000" d="M 417.488 102L 415.824 106.668L 414.289 102L 413.269 102L 415.3 108.055L 414.937 109.008C 414.789 109.434 414.574 109.594 414.172 109.594C 414.035 109.594 413.875 109.559 413.668 109.488L 413.668 110.344C 413.859 110.445 414.054 110.492 414.308 110.492C 414.617 110.492 414.949 110.391 415.203 110.207C 415.5 109.992 415.672 109.738 415.855 109.258L 418.527 101.996L 417.488 102z"/>
<path style="stroke:#000000; stroke-width:1.9133; fill:none" d="M 197.593 101.633L 197.593 63.355"/>
<path style="stroke:#000000; stroke-width:1.9133; fill:none" d="M 195.683 71.008L 197.593 63.355L 199.504 71.008"/>
<path style="stroke:none; fill-rule:evenodd; fill:#000000" d="M 16.1991 9.145C 16.0781 9.19901 16.0234 9.19901 15.9531 9.19901C 15.5585 9.19901 15.3359 9 15.3359 8.65199L 15.3359 4.52299C 15.3359 3.27699 14.4296 2.605 12.707 2.605C 11.6952 2.605 10.8554 2.895 10.3866 3.414C 10.0702 3.77 9.93351 4.168 9.91011 4.85899L 11.0312 4.85899C 11.121 3.996 11.6288 3.605 12.6718 3.605C 13.6718 3.605 14.2343 3.98 14.2343 4.64799L 14.2343 4.94099C 14.2343 5.41 13.957 5.60899 13.082 5.715C 11.5195 5.914 11.2812 5.96899 10.8554 6.14101C 10.0468 6.47301 9.63661 7.105 9.63661 8.01601C 9.63661 9.285 10.5155 10.09 11.9257 10.09C 12.8046 10.09 13.5077 9.785 14.2929 9.07001C 14.371 9.77299 14.7187 10.09 15.4374 10.09C 15.664 10.09 15.8359 10.066 16.1952 9.97301L 16.1991 9.145zM 14.2343 7.578C 14.2343 7.94501 14.1288 8.172 13.7929 8.47701C 13.3398 8.88699 12.7851 9.09801 12.1249 9.09801C 11.2499 9.09801 10.7421 8.688 10.7421 7.98801C 10.7421 7.26199 11.2382 6.89101 12.4374 6.71899C 13.621 6.562 13.8632 6.508 14.2382 6.336L 14.2343 7.578z"/>
<path style="stroke:none; fill-rule:evenodd; fill:#000000" d="M 17.7695 12.641C 19.0937 10.883 19.9296 8.438 19.9296 6.332C 19.9296 4.211 19.0937 1.77 17.7695 0.00799561L 17.0429 0.00799561C 18.1913 1.92999 18.832 4.18401 18.832 6.332C 18.832 8.465 18.1913 10.734 17.0429 12.641L 17.7695 12.641z"/>
<path style="stroke:none; fill-rule:evenodd; fill:#000000" d="M 34.6952 9.80099L 37.1718 0.0039978L 35.7812 0.0039978L 33.9882 7.96899L 31.7655 0.0039978L 30.4296 0.0039978L 28.2616 7.96899L 26.4296 0.0039978L 25.039 0.0039978L 27.5429 9.80099L 28.9062 9.80099L 31.0859 1.78101L 33.3359 9.80099L 34.6952 9.80099z"/>
<path style="stroke:none; fill-rule:evenodd; fill:#000000" d="M 44.2343 6.703C 44.2343 5.629 44.1562 4.98399 43.957 4.461C 43.5077 3.30901 42.4413 2.60899 41.1366 2.60899C 39.1952 2.60899 37.9413 4.10201 37.9413 6.39799C 37.9413 8.69099 39.1445 10.105 41.0937 10.105C 42.6835 10.105 43.7812 9.19901 44.0624 7.67999L 42.9374 7.67999C 42.6327 8.617 41.9999 9.105 41.1054 9.105C 40.3984 9.105 39.7968 8.789 39.4218 8.203C 39.1562 7.80499 39.0624 7.40601 39.0468 6.711L 44.2343 6.703zM 39.0585 5.758C 39.1523 4.461 39.9413 3.617 41.0663 3.617C 42.164 3.617 43.0077 4.52699 43.0077 5.67599C 43.0077 5.69901 43.0077 5.72701 42.996 5.754L 39.0585 5.758z"/>
<path style="stroke:none; fill-rule:evenodd; fill:#000000" d="M 46.7343 2.80099L 45.6366 2.80099L 45.6366 9.80099L 46.7343 9.80099L 46.7343 2.80099zM 46.7343 0L 45.6366 0L 45.6366 1.44099L 46.7343 1.44099L 46.7343 0z"/>
<path style="stroke:none; fill-rule:evenodd; fill:#000000" d="M 53.2343 2.80099L 53.2343 3.80099C 52.6757 2.98399 51.996 2.60201 51.1054 2.60201C 49.3359 2.60201 48.1366 4.14799 48.1366 6.418C 48.1366 7.562 48.4413 8.496 49.0155 9.164C 49.5351 9.75 50.2812 10.098 51.0155 10.098C 51.8945 10.098 52.5077 9.72701 53.1327 8.84801L 53.1327 9.211C 53.1327 10.164 53.0155 10.746 52.7343 11.137C 52.4413 11.555 51.8671 11.793 51.1874 11.793C 50.6796 11.793 50.2265 11.66 49.9218 11.414C 49.6679 11.211 49.5624 11.023 49.496 10.602L 48.3632 10.602C 48.4804 11.914 49.5038 12.695 51.1366 12.695C 52.1718 12.695 53.0624 12.363 53.5116 11.805C 54.039 11.168 54.2421 10.285 54.2421 8.645L 54.2421 2.80099L 53.2343 2.80099zM 51.1952 3.60201C 52.414 3.60201 53.1288 4.625 53.1288 6.39101C 53.1288 8.07401 52.3984 9.09801 51.207 9.09801C 49.9765 9.09801 49.2304 8.062 49.2304 6.34801C 49.2304 4.65199 49.9882 3.59801 51.1913 3.59801L 51.1952 3.60201z"/>
<path style="stroke:none; fill-rule:evenodd; fill:#000000" d="M 56.1327 0L 56.1327 9.797L 57.2304 9.797L 57.2304 5.953C 57.2304 4.53101 57.9882 3.60201 59.1601 3.60201C 59.5234 3.60201 59.8905 3.71899 60.164 3.918C 60.4882 4.14101 60.6249 4.47701 60.6249 4.96899L 60.6249 9.797L 61.7226 9.797L 61.7226 4.51199C 61.7226 3.34 60.871 2.605 59.496 2.605C 58.496 2.605 57.8905 2.90601 57.2265 3.75L 57.2265 0.0039978L 56.1327 0z"/>
<path style="stroke:none; fill-rule:evenodd; fill:#000000" d="M 66.0312 2.80099L 64.832 2.80099L 64.832 0.854996L 63.7343 0.854996L 63.7343 2.80099L 62.8359 2.80099L 62.8359 3.69901L 63.7343 3.69901L 63.7343 8.98801C 63.7343 9.69501 64.2226 10.094 65.1054 10.094C 65.3749 10.094 65.6484 10.07 66.0312 10.004L 66.0312 9.07401C 65.8788 9.09 65.6991 9.09399 65.4765 9.09399C 64.9765 9.09399 64.8359 8.961 64.8359 8.46899L 64.8359 3.69501L 66.0351 3.69501L 66.0312 2.80099z"/>
<path style="stroke:none; fill-rule:evenodd; fill:#000000" d="M 66.832 7.203L 73.6288 7.203L 73.6288 6.30499L 66.832 6.30499L 66.832 7.203z"/>
<path style="stroke:none; fill-rule:evenodd; fill:#000000" d="M 74.9335 0L 74.9335 9.797L 75.9335 9.797L 75.9335 8.90199C 76.4687 9.711 77.1835 10.098 78.164 10.098C 80.0195 10.098 81.2304 8.59399 81.2304 6.27C 81.2304 4.004 80.0741 2.60201 78.2148 2.60201C 77.246 2.60201 76.5585 2.957 76.0351 3.73L 76.0351 0L 74.9335 0zM 78.0234 3.629C 79.2655 3.629 80.0702 4.711 80.0702 6.38699C 80.0702 7.98 79.2421 9.062 78.0234 9.062C 76.8476 9.062 76.0702 7.992 76.0702 6.34399C 76.0702 4.69901 76.8437 3.625 78.0234 3.625L 78.0234 3.629z"/>
<path style="stroke:none; fill-rule:evenodd; fill:#000000" d="M 88.7963 9.145C 88.6753 9.19901 88.6213 9.19901 88.5503 9.19901C 88.1563 9.19901 87.9333 9 87.9333 8.65199L 87.9333 4.52299C 87.9333 3.27699 87.0273 2.605 85.3043 2.605C 84.2933 2.605 83.4533 2.895 82.9843 3.414C 82.6679 3.77 82.5312 4.168 82.5077 4.85899L 83.6293 4.85899C 83.7183 3.996 84.2263 3.605 85.2693 3.605C 86.2693 3.605 86.8323 3.98 86.8323 4.64799L 86.8323 4.94099C 86.8323 5.41 86.5543 5.60899 85.6793 5.715C 84.1173 5.914 83.8793 5.96899 83.4533 6.14101C 82.6445 6.47301 82.2343 7.105 82.2343 8.01601C 82.2343 9.285 83.1132 10.09 84.5233 10.09C 85.4023 10.09 86.1053 9.785 86.8903 9.07001C 86.9683 9.77299 87.3163 10.09 88.0353 10.09C 88.2613 10.09 88.4333 10.066 88.7933 9.97301L 88.7963 9.145zM 86.8323 7.578C 86.8323 7.94501 86.7263 8.172 86.3903 8.47701C 85.9373 8.88699 85.3823 9.09801 84.7223 9.09801C 83.8473 9.09801 83.3393 8.688 83.3393 7.98801C 83.3393 7.26199 83.8363 6.89101 85.0353 6.71899C 86.2183 6.562 86.4613 6.508 86.8363 6.336L 86.8323 7.578z"/>
<path style="stroke:none; fill-rule:evenodd; fill:#000000" d="M 95.0003 4.73801C 94.9883 3.375 94.0893 2.60201 92.4923 2.60201C 90.8823 2.60201 89.8393 3.44501 89.8393 4.746C 89.8393 5.84399 90.3943 6.36301 92.0353 6.76601L 93.0663 7.02C 93.8323 7.207 94.1363 7.48801 94.1363 7.996C 94.1363 8.65199 93.4803 9.09399 92.4963 9.09399C 91.8943 9.09399 91.3823 8.918 91.1013 8.617C 90.9293 8.414 90.8473 8.211 90.7813 7.707L 89.6013 7.707C 89.6523 9.32001 90.5543 10.094 92.3753 10.094C 94.1253 10.094 95.2423 9.22701 95.2423 7.871C 95.2423 6.828 94.6603 6.254 93.2853 5.918L 92.2263 5.664C 91.3283 5.453 90.9453 5.15601 90.9453 4.66C 90.9453 4.02 91.5193 3.60201 92.4253 3.60201C 93.3203 3.60201 93.8003 3.992 93.8283 4.73801L 95.0003 4.73801z"/>
<path style="stroke:none; fill-rule:evenodd; fill:#000000" d="M 102.632 6.703C 102.632 5.629 102.554 4.98399 102.355 4.461C 101.906 3.30901 100.839 2.60899 99.5353 2.60899C 97.5933 2.60899 96.3393 4.10201 96.3393 6.39799C 96.3393 8.69099 97.5433 10.105 99.4923 10.105C 101.082 10.105 102.179 9.19901 102.461 7.67999L 101.336 7.67999C 101.031 8.617 100.398 9.105 99.5043 9.105C 98.7963 9.105 98.1953 8.789 97.8203 8.203C 97.5543 7.80499 97.4613 7.40601 97.4453 6.711L 102.632 6.703zM 97.4613 5.758C 97.5543 4.461 98.3433 3.617 99.4683 3.617C 100.566 3.617 101.41 4.52699 101.41 5.67599C 101.41 5.69901 101.41 5.72701 101.398 5.754L 97.4613 5.758z"/>
<path style="stroke:none; fill-rule:evenodd; fill:#000000" d="M 109.832 0L 108.734 0L 108.734 3.664C 108.273 2.96899 107.535 2.60201 106.609 2.60201C 104.812 2.60201 103.636 4.05499 103.636 6.285C 103.636 8.645 104.781 10.098 106.636 10.098C 107.582 10.098 108.242 9.742 108.832 8.875L 108.832 9.797L 109.832 9.797L 109.832 0zM 106.765 3.60201C 107.968 3.60201 108.73 4.68401 108.73 6.375C 108.73 8.01199 107.957 9.09399 106.777 9.09399C 105.55 9.09399 104.734 8 104.734 6.34801C 104.734 4.69901 105.546 3.59801 106.765 3.59801L 106.765 3.60201z"/>
<path style="stroke:none; fill-rule:evenodd; fill:#000000" d="M 181.933 0L 181.933 9.797L 182.933 9.797L 182.933 8.90199C 183.468 9.711 184.183 10.098 185.164 10.098C 187.019 10.098 188.23 8.59399 188.23 6.27C 188.23 4.004 187.074 2.60201 185.214 2.60201C 184.246 2.60201 183.558 2.957 183.035 3.73L 183.035 0L 181.933 0zM 185.023 3.629C 186.265 3.629 187.07 4.711 187.07 6.38699C 187.07 7.98 186.242 9.062 185.023 9.062C 183.847 9.062 183.07 7.992 183.07 6.34399C 183.07 4.69901 183.843 3.625 185.023 3.625L 185.023 3.629z"/>
<path style="stroke:none; fill-rule:evenodd; fill:#000000" d="M 189.968 12.641C 191.293 10.883 192.129 8.438 192.129 6.332C 192.129 4.211 191.293 1.77 189.968 0.00799561L 189.242 0.00799561C 190.39 1.92999 191.031 4.18401 191.031 6.332C 191.031 8.465 190.39 10.734 189.242 12.641L 189.968 12.641z"/>
<path style="stroke:none; fill-rule:evenodd; fill:#000000" d="M 203.179 6.80099L 204.183 9.80099L 205.574 9.80099L 202.148 0.0039978L 200.543 0.0039978L 197.062 9.80099L 198.386 9.80099L 199.414 6.80099L 203.179 6.80099zM 202.832 5.80099L 199.726 5.80099L 201.332 1.379L 202.832 5.80099z"/>
<path style="stroke:none; fill-rule:evenodd; fill:#000000" d="M 212.14 5.14101C 212.089 4.44901 211.941 4 211.672 3.605C 211.191 2.98 210.343 2.605 209.363 2.605C 207.472 2.605 206.238 4.09801 206.238 6.422C 206.238 8.67599 207.445 10.102 209.351 10.102C 211.027 10.102 212.089 9.10201 212.222 7.39101L 211.078 7.39101C 210.89 8.53101 210.304 9.10201 209.336 9.10201C 208.086 9.10201 207.336 8.09399 207.336 6.422C 207.336 4.65601 208.07 3.605 209.308 3.605C 210.257 3.605 210.859 4.15601 210.996 5.14101L 212.14 5.14101z"/>
<path style="stroke:none; fill-rule:evenodd; fill:#000000" d="M 215.933 2.80099L 214.734 2.80099L 214.734 0.854996L 213.636 0.854996L 213.636 2.80099L 212.738 2.80099L 212.738 3.69901L 213.636 3.69901L 213.636 8.98801C 213.636 9.69501 214.125 10.094 215.007 10.094C 215.277 10.094 215.55 10.07 215.933 10.004L 215.933 9.07401C 215.781 9.09 215.601 9.09399 215.379 9.09399C 214.879 9.09399 214.738 8.961 214.738 8.46899L 214.738 3.69501L 215.937 3.69501L 215.933 2.80099z"/>
<path style="stroke:none; fill-rule:evenodd; fill:#000000" d="M 218.234 2.80099L 217.136 2.80099L 217.136 9.80099L 218.234 9.80099L 218.234 2.80099zM 218.234 0L 217.136 0L 217.136 1.44099L 218.234 1.44099L 218.234 0z"/>
<path style="stroke:none; fill-rule:evenodd; fill:#000000" d="M 223.05 9.80099L 225.742 2.80099L 224.484 2.80099L 222.504 8.47301L 220.629 2.80099L 219.371 2.80099L 221.832 9.80099L 223.05 9.80099z"/>
<path style="stroke:none; fill-rule:evenodd; fill:#000000" d="M 233.097 9.145C 232.976 9.19901 232.922 9.19901 232.851 9.19901C 232.457 9.19901 232.234 9 232.234 8.65199L 232.234 4.52299C 232.234 3.27699 231.328 2.605 229.605 2.605C 228.593 2.605 227.754 2.895 227.285 3.414C 226.968 3.77 226.832 4.168 226.808 4.85899L 227.929 4.85899C 228.019 3.996 228.527 3.605 229.57 3.605C 230.57 3.605 231.132 3.98 231.132 4.64799L 231.132 4.94099C 231.132 5.41 230.855 5.60899 229.98 5.715C 228.418 5.914 228.179 5.96899 227.754 6.14101C 226.945 6.47301 226.535 7.105 226.535 8.01601C 226.535 9.285 227.414 10.09 228.824 10.09C 229.703 10.09 230.406 9.785 231.191 9.07001C 231.269 9.77299 231.617 10.09 232.336 10.09C 232.562 10.09 232.734 10.066 233.093 9.97301L 233.097 9.145zM 231.132 7.578C 231.132 7.94501 231.027 8.172 230.691 8.47701C 230.238 8.88699 229.683 9.09801 229.023 9.09801C 228.148 9.09801 227.64 8.688 227.64 7.98801C 227.64 7.26199 228.136 6.89101 229.336 6.71899C 230.519 6.562 230.761 6.508 231.136 6.336L 231.132 7.578z"/>
<path style="stroke:none; fill-rule:evenodd; fill:#000000" d="M 236.734 2.80099L 235.535 2.80099L 235.535 0.854996L 234.437 0.854996L 234.437 2.80099L 233.539 2.80099L 233.539 3.69901L 234.437 3.69901L 234.437 8.98801C 234.437 9.69501 234.925 10.094 235.808 10.094C 236.078 10.094 236.351 10.07 236.734 10.004L 236.734 9.07401C 236.582 9.09 236.402 9.09399 236.179 9.09399C 235.679 9.09399 235.539 8.961 235.539 8.46899L 235.539 3.69501L 236.738 3.69501L 236.734 2.80099z"/>
<path style="stroke:none; fill-rule:evenodd; fill:#000000" d="M 239.031 2.80099L 237.933 2.80099L 237.933 9.80099L 239.031 9.80099L 239.031 2.80099zM 239.031 0L 237.933 0L 237.933 1.44099L 239.031 1.44099L 239.031 0z"/>
<path style="stroke:none; fill-rule:evenodd; fill:#000000" d="M 243.668 2.60201C 241.714 2.60201 240.531 4.004 240.531 6.35201C 240.531 8.69901 241.699 10.098 243.679 10.098C 245.632 10.098 246.828 8.69901 246.828 6.40601C 246.828 3.992 245.672 2.605 243.668 2.605L 243.668 2.60201zM 243.683 3.60201C 244.964 3.60201 245.73 4.63699 245.73 6.39101C 245.73 8.047 244.937 9.09801 243.683 9.09801C 242.414 9.09801 241.636 8.062 241.636 6.34801C 241.636 4.65199 242.414 3.59801 243.683 3.59801L 243.683 3.60201z"/>
<path style="stroke:none; fill-rule:evenodd; fill:#000000" d="M 248.433 2.80499L 248.433 9.80099L 249.531 9.80099L 249.531 5.957C 249.531 4.535 250.269 3.605 251.402 3.605C 252.269 3.605 252.828 4.13699 252.828 4.97301L 252.828 9.80099L 253.925 9.80099L 253.925 4.51601C 253.925 3.355 253.066 2.60899 251.73 2.60899C 250.699 2.60899 250.039 3.008 249.429 3.98399L 249.429 2.812L 248.433 2.80499z"/>
<path style="stroke:none; fill-rule:evenodd; fill:#000000" d="M 255.433 7.203L 262.23 7.203L 262.23 6.30499L 255.433 6.30499L 255.433 7.203z"/>
<path style="stroke:none; fill-rule:evenodd; fill:#000000" d="M 263.433 0L 263.433 9.797L 264.433 9.797L 264.433 8.90199C 264.968 9.711 265.683 10.098 266.664 10.098C 268.519 10.098 269.73 8.59399 269.73 6.27C 269.73 4.004 268.574 2.60201 266.714 2.60201C 265.746 2.60201 265.058 2.957 264.535 3.73L 264.535 0L 263.433 0zM 266.523 3.629C 267.765 3.629 268.57 4.711 268.57 6.38699C 268.57 7.98 267.742 9.062 266.523 9.062C 265.347 9.062 264.57 7.992 264.57 6.34399C 264.57 4.69901 265.343 3.625 266.523 3.625L 266.523 3.629z"/>
<path style="stroke:none; fill-rule:evenodd; fill:#000000" d="M 277.398 9.145C 277.277 9.19901 277.222 9.19901 277.152 9.19901C 276.757 9.19901 276.535 9 276.535 8.65199L 276.535 4.52299C 276.535 3.27699 275.629 2.605 273.906 2.605C 272.894 2.605 272.054 2.895 271.586 3.414C 271.269 3.77 271.132 4.168 271.109 4.85899L 272.23 4.85899C 272.32 3.996 272.828 3.605 273.871 3.605C 274.871 3.605 275.433 3.98 275.433 4.64799L 275.433 4.94099C 275.433 5.41 275.156 5.60899 274.281 5.715C 272.718 5.914 272.48 5.96899 272.054 6.14101C 271.246 6.47301 270.836 7.105 270.836 8.01601C 270.836 9.285 271.714 10.09 273.125 10.09C 274.004 10.09 274.707 9.785 275.492 9.07001C 275.57 9.77299 275.918 10.09 276.636 10.09C 276.863 10.09 277.035 10.066 277.394 9.97301L 277.398 9.145zM 275.433 7.578C 275.433 7.94501 275.328 8.172 274.992 8.47701C 274.539 8.88699 273.984 9.09801 273.324 9.09801C 272.449 9.09801 271.941 8.688 271.941 7.98801C 271.941 7.26199 272.437 6.89101 273.636 6.71899C 274.82 6.562 275.062 6.508 275.437 6.336L 275.433 7.578z"/>
<path style="stroke:none; fill-rule:evenodd; fill:#000000" d="M 283.5 4.73801C 283.488 3.375 282.589 2.60201 280.992 2.60201C 279.382 2.60201 278.339 3.44501 278.339 4.746C 278.339 5.84399 278.894 6.36301 280.535 6.76601L 281.566 7.02C 282.332 7.207 282.636 7.48801 282.636 7.996C 282.636 8.65199 281.98 9.09399 280.996 9.09399C 280.394 9.09399 279.882 8.918 279.601 8.617C 279.429 8.414 279.347 8.211 279.281 7.707L 278.101 7.707C 278.152 9.32001 279.054 10.094 280.875 10.094C 282.625 10.094 283.742 9.22701 283.742 7.871C 283.742 6.828 283.16 6.254 281.785 5.918L 280.726 5.664C 279.828 5.453 279.445 5.15601 279.445 4.66C 279.445 4.02 280.019 3.60201 280.925 3.60201C 281.82 3.60201 282.3 3.992 282.328 4.73801L 283.5 4.73801z"/>
<path style="stroke:none; fill-rule:evenodd; fill:#000000" d="M 291.234 6.703C 291.234 5.629 291.156 4.98399 290.957 4.461C 290.507 3.30901 289.441 2.60899 288.136 2.60899C 286.195 2.60899 284.941 4.10201 284.941 6.39799C 284.941 8.69099 286.144 10.105 288.093 10.105C 289.683 10.105 290.781 9.19901 291.062 7.67999L 289.937 7.67999C 289.632 8.617 289 9.105 288.105 9.105C 287.398 9.105 286.796 8.789 286.422 8.203C 286.156 7.80499 286.062 7.40601 286.046 6.711L 291.234 6.703zM 286.058 5.758C 286.152 4.461 286.941 3.617 288.066 3.617C 289.164 3.617 290.007 4.52699 290.007 5.67599C 290.007 5.69901 290.007 5.72701 289.996 5.754L 286.058 5.758z"/>
<path style="stroke:none; fill-rule:evenodd; fill:#000000" d="M 298.332 0L 297.234 0L 297.234 3.664C 296.773 2.96899 296.035 2.60201 295.109 2.60201C 293.312 2.60201 292.136 4.05499 292.136 6.285C 292.136 8.645 293.281 10.098 295.136 10.098C 296.082 10.098 296.742 9.742 297.332 8.875L 297.332 9.797L 298.332 9.797L 298.332 0zM 295.265 3.60201C 296.468 3.60201 297.23 4.68401 297.23 6.375C 297.23 8.01199 296.457 9.09399 295.277 9.09399C 294.05 9.09399 293.234 8 293.234 6.34801C 293.234 4.69901 294.046 3.59801 295.265 3.59801L 295.265 3.60201z"/>
<path style="stroke:none; fill-rule:evenodd; fill:#0000ff" d="M 76.9882 143.758C 76.9882 135.309 70.1366 128.453 61.6835 128.453C 53.2343 128.453 46.3788 135.305 46.3788 143.758C 46.3788 152.207 53.2304 159.062 61.6835 159.062C 70.1327 159.062 76.9882 152.211 76.9882 143.758"/>
<path style="stroke:#000000; stroke-width:1.9133; fill:none" d="M 76.9882 143.758C 76.9882 135.309 70.1366 128.453 61.6835 128.453C 53.2343 128.453 46.3788 135.305 46.3788 143.758C 46.3788 152.207 53.2304 159.062 61.6835 159.062C 70.1327 159.062 76.9882 152.211 76.9882 143.758"/>
<path style="stroke:none; fill-rule:evenodd; fill:#000000" d="M 51.2343 138.801L 51.2343 147.199L 52.1327 147.199L 52.1327 146.434C 52.5859 147.156 53.1913 147.5 54.0273 147.5C 55.6015 147.5 56.6288 146.195 56.6288 144.184C 56.6288 142.219 55.6484 141.004 54.0781 141.004C 53.2577 141.004 52.6796 141.316 52.2343 142L 52.2343 138.801L 51.2343 138.801zM 53.8827 141.91C 54.9491 141.91 55.6366 142.84 55.6366 144.273C 55.6366 145.637 54.9257 146.566 53.8827 146.566C 52.8749 146.566 52.207 145.648 52.207 144.238C 52.207 142.828 52.871 141.91 53.8827 141.91z"/>
<path style="stroke:none; fill-rule:evenodd; fill:#000000" d="M 57.832 147.203L 58.832 147.203L 58.832 138.805L 57.832 138.805L 57.832 147.203z"/>
<path style="stroke:none; fill-rule:evenodd; fill:#000000" d="M 65.2343 147.238L 65.2343 141.207L 64.2343 141.207L 64.2343 144.652C 64.2343 145.891 63.5898 146.703 62.582 146.703C 61.8202 146.703 61.3359 146.242 61.3359 145.512L 61.3359 141.207L 60.3359 141.207L 60.3359 145.859C 60.3359 146.859 61.0937 147.504 62.2851 147.504C 63.1835 147.504 63.7577 147.195 64.332 146.402L 64.332 147.242L 65.2343 147.238z"/>
<path style="stroke:none; fill-rule:evenodd; fill:#000000" d="M 71.9335 144.5C 71.9335 143.582 71.8671 143.031 71.6952 142.586C 71.3085 141.602 70.3945 141.004 69.2773 141.004C 67.6132 141.004 66.539 142.297 66.539 144.285C 66.539 146.273 67.5741 147.5 69.2499 147.5C 70.6132 147.5 71.5585 146.707 71.8007 145.375L 70.8476 145.375C 70.5859 146.18 70.0546 146.598 69.2929 146.598C 68.6913 146.598 68.1796 146.32 67.8632 145.805C 67.6366 145.457 67.5585 145.105 67.5468 144.5L 71.9335 144.5zM 67.5116 143.734C 67.5898 142.621 68.2695 141.898 69.2304 141.898C 70.1679 141.898 70.8945 142.676 70.8945 143.664C 70.8945 143.684 70.8945 143.707 70.8827 143.73L 67.5116 143.734z"/>
<path style="stroke:none; fill-rule:evenodd; fill:#ff0000" d="M 40.6366 143.758C 40.6366 135.309 33.7851 128.453 25.332 128.453C 16.8827 128.453 10.0273 135.305 10.0273 143.758C 10.0273 152.207 16.8788 159.062 25.332 159.062C 33.7812 159.062 40.6366 152.211 40.6366 143.758"/>
<path style="stroke:#000000; stroke-width:1.9133; fill:none" d="M 40.6366 143.758C 40.6366 135.309 33.7851 128.453 25.332 128.453C 16.8827 128.453 10.0273 135.305 10.0273 143.758C 10.0273 152.207 16.8788 159.062 25.332 159.062C 33.7812 159.062 40.6366 152.211 40.6366 143.758"/>
<path style="stroke:none; fill-rule:evenodd; fill:#000000" d="M 18.0312 141.176L 18.0312 147.199L 19.0312 147.199L 19.0312 144.066C 19.0312 143.203 19.2421 142.641 19.6913 142.305C 19.9804 142.086 20.2616 142.02 20.914 142.008L 20.914 141.043C 20.7577 141.023 20.6796 141.012 20.5546 141.012C 19.9452 141.012 19.4804 141.379 18.9335 142.273L 18.9335 141.184L 18.0312 141.176z"/>
<path style="stroke:none; fill-rule:evenodd; fill:#000000" d="M 26.9335 144.5C 26.9335 143.582 26.8671 143.031 26.6952 142.586C 26.3085 141.602 25.3945 141.004 24.2773 141.004C 22.6132 141.004 21.539 142.297 21.539 144.285C 21.539 146.273 22.5741 147.5 24.2499 147.5C 25.6132 147.5 26.5585 146.707 26.8007 145.375L 25.8476 145.375C 25.5859 146.18 25.0546 146.598 24.2929 146.598C 23.6913 146.598 23.1796 146.32 22.8632 145.805C 22.6366 145.457 22.5585 145.105 22.5468 144.5L 26.9335 144.5zM 22.5116 143.734C 22.5898 142.621 23.2695 141.898 24.2304 141.898C 25.1679 141.898 25.8945 142.676 25.8945 143.664C 25.8945 143.684 25.8945 143.707 25.8827 143.73L 22.5116 143.734z"/>
<path style="stroke:none; fill-rule:evenodd; fill:#000000" d="M 33.1327 138.801L 32.1327 138.801L 32.1327 141.941C 31.7343 141.328 31.0976 141 30.2968 141C 28.7499 141 27.7343 142.258 27.7343 144.191C 27.7343 146.238 28.746 147.496 30.3866 147.496C 31.2226 147.496 31.8046 147.176 32.3281 146.406L 32.3281 147.195L 33.1249 147.195L 33.1327 138.801zM 30.4609 141.902C 31.4804 141.902 32.1288 142.828 32.1288 144.273C 32.1288 145.672 31.4726 146.598 30.4726 146.598C 29.4296 146.598 28.7343 145.66 28.7343 144.25C 28.7343 142.84 29.4257 141.902 30.4609 141.902z"/>
<path style="stroke:#000000; stroke-width:1.9133; fill:none" d="M 140.125 128.449L 65.5077 63.398"/>
<path style="stroke:#000000; stroke-width:1.9133; fill:none" d="M 70.0155 69.867L 65.5038 63.398L 72.5273 66.984"/>
<path style="stroke:#000000; stroke-width:1.9133; fill:none" d="M 103.769 128.449L 101.859 63.398"/>
<path style="stroke:#000000; stroke-width:1.9133; fill:none" d="M 100.168 71.105L 101.855 63.402L 103.992 70.996"/>
<path style="stroke:#000000; stroke-width:1.9133; fill:none" d="M 61.6757 128.449L 65.4999 63.398"/>
<path style="stroke:#000000; stroke-width:1.9133; fill:none" d="M 63.1445 70.926L 65.4999 63.398L 66.9609 71.148"/>
<path style="stroke:#000000; stroke-width:1.9133; fill:none" d="M 25.3241 128.449L 101.855 63.398"/>
<path style="stroke:#000000; stroke-width:1.9133; fill:none" d="M 94.7853 66.898L 101.851 63.402L 97.2613 69.812"/>
<path style="stroke:#000000; stroke-width:1.9133; fill:none" d="M 140.175 128.426L 101.898 63.352"/>
<path style="stroke:#000000; stroke-width:1.9133; fill:none" d="M 104.129 70.918L 101.898 63.355L 107.425 68.98"/>
<path style="stroke:#000000; stroke-width:1.9133; fill:none" d="M 103.812 128.426L 65.5351 63.352"/>
<path style="stroke:#000000; stroke-width:1.9133; fill:none" d="M 67.7616 70.918L 65.5312 63.355L 71.0585 68.98"/>
<path style="stroke:#000000; stroke-width:1.9133; fill:none" d="M 61.7031 128.426L 101.894 63.352"/>
<path style="stroke:#000000; stroke-width:1.9133; fill:none" d="M 96.2503 68.859L 101.898 63.355L 99.5073 70.871"/>
<path style="stroke:#000000; stroke-width:4.7832499999999998; fill:none" d="M 25.3398 128.426L 65.5312 63.352"/>
<path style="stroke:#000000; stroke-width:4.7832499999999998; fill:none" d="M 59.8827 68.859L 65.5312 63.355L 63.1405 70.871"/>
<path style="stroke:none; fill-rule:evenodd; fill:#ffffff" d="M 373.527 143.758C 373.527 135.309 366.675 128.453 358.222 128.453C 349.773 128.453 342.918 135.305 342.918 143.758C 342.918 152.207 349.769 159.062 358.222 159.062C 366.672 159.062 373.527 152.211 373.527 143.758"/>
<path style="stroke:#000000; stroke-width:1.9133; fill:none" d="M 373.527 143.758C 373.527 135.309 366.675 128.453 358.222 128.453C 349.773 128.453 342.918 135.305 342.918 143.758C 342.918 152.207 349.769 159.062 358.222 159.062C 366.672 159.062 373.527 152.211 373.527 143.758"/>
<path style="stroke:none; fill-rule:evenodd; fill:#ffffff" d="M 358.238 130.363L 344.847 150.453L 371.152 150.453L 358.238 129.41"/>
<path style="stroke:#000000; stroke-width:1.9133; fill:none" d="M 358.238 130.363L 344.847 150.453L 371.152 150.453L 358.238 129.41"/>
<path style="stroke:none; fill-rule:evenodd; fill:#000000" d="M 356.832 141.203L 355.933 141.203L 355.933 139.535L 354.933 139.535L 354.933 141.203L 354.035 141.203L 354.035 142L 354.933 142L 354.933 146.547C 354.933 147.152 355.336 147.496 356.066 147.496C 356.289 147.496 356.515 147.473 356.828 147.414L 356.828 146.578C 356.714 146.668 356.578 146.695 356.41 146.695C 356.035 146.695 355.929 146.582 355.929 146.152L 355.929 142L 356.828 142L 356.832 141.203z"/>
<path style="stroke:none; fill-rule:evenodd; fill:#000000" d="M 357.933 141.176L 357.933 147.199L 358.933 147.199L 358.933 144.066C 358.933 143.203 359.144 142.641 359.593 142.305C 359.882 142.086 360.164 142.02 360.816 142.008L 360.816 141.043C 360.66 141.023 360.582 141.012 360.457 141.012C 359.847 141.012 359.382 141.379 358.836 142.273L 358.836 141.184L 357.933 141.176z"/>
<path style="stroke:none; fill-rule:evenodd; fill:#000000" d="M 362.632 141.203L 361.632 141.203L 361.632 147.203L 362.632 147.203L 362.632 141.203zM 362.632 138.801L 361.632 138.801L 361.632 140.035L 362.632 140.035L 362.632 138.801z"/>
</g>
</svg>