<?xml version="1.0" encoding="ISO-8859-1" standalone="yes"?>
<svg width="271.635" height="265.769">
  <defs> 
    <marker id="ArrowEnd" viewBox="0 0 10 10" refX="0" refY="5" 
     markerUnits="strokeWidth" 
     markerWidth="4" 
     markerHeight="3" 
     orient="auto"> 
        <path d="M 0 0 L 10 5 L 0 10 z" /> 
    </marker>
    <marker id="ArrowStart" viewBox="0 0 10 10" refX="10" refY="5" 
     markerUnits="strokeWidth" 
     markerWidth="4" 
     markerHeight="3" 
     orient="auto"> 
        <path d="M 10 0 L 0 5 L 10 10 z" /> 
    </marker> </defs>
<g>
<path style="stroke:none; fill-rule:evenodd; fill:#000000" d="M 154.182 76.2534C 154.171 74.6204 153.053 73.6674 151.139 73.6674C 149.315 73.6674 148.186 74.6174 148.186 76.1444C 148.186 77.1714 148.717 77.8204 149.807 78.1134L 151.862 78.6674C 152.905 78.9454 153.381 79.3704 153.381 80.0314C 153.381 80.4804 153.147 80.9454 152.795 81.1994C 152.467 81.4294 151.948 81.5544 151.28 81.5544C 150.389 81.5544 149.776 81.3274 149.381 80.8274C 149.077 80.4494 148.944 80.0314 148.991 79.4924L 147.991 79.4924C 147.999 80.2694 148.147 80.7814 148.475 81.2454C 149.042 82.0354 149.995 82.4534 151.253 82.4534C 152.237 82.4534 153.042 82.2264 153.577 81.8084C 154.131 81.3634 154.483 80.6134 154.483 79.8864C 154.483 78.8514 153.85 78.0934 152.725 77.7814L 150.651 77.2184C 149.655 76.9454 149.292 76.6204 149.292 75.9764C 149.292 75.1244 150.022 74.5624 151.131 74.5624C 152.44 74.5624 153.174 75.1634 153.186 76.2454L 154.182 76.2534z"/>
<path style="stroke:none; fill-rule:evenodd; fill:#000000" d="M 161.124 81.6054C 161.018 81.6674 160.971 81.6674 160.913 81.6674C 160.573 81.6674 160.385 81.4954 160.385 81.1954L 160.385 77.6284C 160.385 76.5544 159.608 75.9724 158.135 75.9724C 157.268 75.9724 156.549 76.2264 156.147 76.6754C 155.874 76.9844 155.76 77.3314 155.737 77.9334L 156.682 77.9334C 156.76 77.2034 157.186 76.8744 158.069 76.8744C 158.913 76.8744 159.385 77.1954 159.385 77.7734L 159.385 78.0274C 159.385 78.4294 159.151 78.6014 158.409 78.6954C 157.085 78.8674 156.881 78.9134 156.522 79.0624C 155.838 79.3474 155.491 79.8904 155.491 80.6754C 155.491 81.7694 156.245 82.4604 157.46 82.4604C 158.213 82.4604 158.819 82.1874 159.495 81.5424C 159.561 82.1754 159.858 82.4604 160.479 82.4604C 160.671 82.4604 160.819 82.4374 161.128 82.3554L 161.124 81.6054zM 159.381 80.3044C 159.381 80.6324 159.295 80.8354 159.014 81.1094C 158.635 81.4724 158.178 81.6634 157.631 81.6634C 156.909 81.6634 156.487 81.3004 156.487 80.6714C 156.487 80.0234 156.897 79.6914 157.889 79.5384C 158.87 79.3984 159.069 79.3514 159.381 79.1954L 159.381 80.3044z"/>
<path style="stroke:none; fill-rule:evenodd; fill:#000000" d="M 162.182 76.1404L 162.182 82.1634L 163.182 82.1634L 163.182 78.3554C 163.182 77.4764 163.807 76.7694 164.577 76.7694C 165.28 76.7694 165.678 77.2064 165.678 77.9844L 165.678 82.1634L 166.678 82.1634L 166.678 78.3554C 166.678 77.4764 167.303 76.7694 168.073 76.7694C 168.764 76.7694 169.174 77.2184 169.174 77.9844L 169.174 82.1634L 170.174 82.1634L 170.174 77.6444C 170.174 76.5664 169.553 75.9644 168.421 75.9644C 167.616 75.9644 167.128 76.2064 166.565 76.8904C 166.21 76.2424 165.725 75.9644 164.94 75.9644C 164.135 75.9644 163.604 76.2614 163.085 76.9884L 163.085 76.1404L 162.182 76.1404z"/>
<path style="stroke:none; fill-rule:evenodd; fill:#000000" d="M 176.881 79.4684C 176.881 78.5504 176.815 77.9994 176.643 77.5544C 176.256 76.5704 175.342 75.9724 174.225 75.9724C 172.561 75.9724 171.487 77.2654 171.487 79.2534C 171.487 81.2424 172.522 82.4684 174.198 82.4684C 175.561 82.4684 176.51 81.6754 176.749 80.3434L 175.795 80.3434C 175.534 81.1484 175.003 81.5664 174.241 81.5664C 173.639 81.5664 173.128 81.2884 172.811 80.7734C 172.585 80.4254 172.506 80.0744 172.495 79.4684L 176.881 79.4684zM 172.463 78.6994C 172.542 77.5854 173.221 76.8634 174.186 76.8634C 175.128 76.8634 175.85 77.6404 175.85 78.6284C 175.85 78.6484 175.85 78.6714 175.842 78.6954L 172.463 78.6994z"/>
<path style="stroke:none; fill-rule:evenodd; fill:#000000" d="M 137.608 88.0664C 136.491 89.5744 135.784 91.6674 135.784 93.4764C 135.784 95.2924 136.487 97.3864 137.608 98.8984L 138.221 98.8984C 137.233 97.2534 136.682 95.3204 136.682 93.4764C 136.682 91.6484 137.233 89.7034 138.221 88.0664L 137.608 88.0664z"/>
<path style="stroke:none; fill-rule:evenodd; fill:#000000" d="M 140.881 92.8674L 143.612 92.8674C 144.553 92.8674 144.975 93.3244 144.975 94.3554L 144.975 95.0974C 144.975 95.6134 145.061 96.1174 145.21 96.4604L 146.471 96.4604L 146.471 96.1994C 146.077 95.9254 145.999 95.6244 145.975 94.5074C 145.963 93.1284 145.745 92.7104 144.831 92.3204C 145.788 91.8594 146.174 91.2734 146.174 90.3164C 146.174 88.8674 145.268 88.0704 143.628 88.0704L 139.776 88.0704L 139.776 96.4684L 140.874 96.4684L 140.881 92.8674zM 140.819 91.9174L 140.819 89.0384L 143.401 89.0384C 143.995 89.0384 144.338 89.1284 144.604 89.3594C 144.889 89.5974 145.038 89.9764 145.038 90.4844C 145.038 91.4684 144.534 91.9174 143.397 91.9174L 140.819 91.9174z"/>
<path style="stroke:none; fill-rule:evenodd; fill:#000000" d="M 152.881 93.7654C 152.881 92.8474 152.815 92.2964 152.643 91.8514C 152.256 90.8674 151.342 90.2694 150.225 90.2694C 148.561 90.2694 147.487 91.5624 147.487 93.5504C 147.487 95.5384 148.522 96.7654 150.198 96.7654C 151.561 96.7654 152.51 95.9724 152.749 94.6404L 151.795 94.6404C 151.534 95.4454 151.003 95.8634 150.241 95.8634C 149.639 95.8634 149.128 95.5854 148.811 95.0704C 148.585 94.7224 148.506 94.3704 148.495 93.7654L 152.881 93.7654zM 148.463 92.9994C 148.542 91.8864 149.221 91.1634 150.186 91.1634C 151.128 91.1634 151.85 91.9414 151.85 92.9294C 151.85 92.9494 151.85 92.9724 151.842 92.9954L 148.463 92.9994z"/>
<path style="stroke:none; fill-rule:evenodd; fill:#000000" d="M 156.655 96.4684L 158.96 90.4684L 157.881 90.4684L 156.182 95.3314L 154.577 90.4684L 153.499 90.4684L 155.608 96.4684L 156.655 96.4684z"/>
<path style="stroke:none; fill-rule:evenodd; fill:#000000" d="M 165.081 93.7654C 165.081 92.8474 165.014 92.2964 164.842 91.8514C 164.456 90.8674 163.542 90.2694 162.424 90.2694C 160.76 90.2694 159.686 91.5624 159.686 93.5504C 159.686 95.5384 160.721 96.7654 162.397 96.7654C 163.76 96.7654 164.71 95.9724 164.948 94.6404L 163.995 94.6404C 163.733 95.4454 163.202 95.8634 162.44 95.8634C 161.838 95.8634 161.327 95.5854 161.01 95.0704C 160.784 94.7224 160.706 94.3704 160.694 93.7654L 165.081 93.7654zM 160.663 92.9994C 160.741 91.8864 161.421 91.1634 162.385 91.1634C 163.327 91.1634 164.049 91.9414 164.049 92.9294C 164.049 92.9494 164.049 92.9724 164.042 92.9954L 160.663 92.9994z"/>
<path style="stroke:none; fill-rule:evenodd; fill:#000000" d="M 166.28 90.4414L 166.28 96.4644L 167.28 96.4644L 167.28 93.3314C 167.28 92.4684 167.491 91.9064 167.94 91.5704C 168.229 91.3514 168.51 91.2854 169.163 91.2734L 169.163 90.3084C 169.006 90.2884 168.924 90.2774 168.799 90.2774C 168.19 90.2774 167.725 90.6444 167.178 91.5424L 167.178 90.4534L 166.28 90.4414z"/>
<path style="stroke:none; fill-rule:evenodd; fill:#000000" d="M 174.413 92.1244C 174.401 90.9374 173.616 90.2694 172.213 90.2694C 170.803 90.2694 169.885 90.9954 169.885 92.1134C 169.885 93.0584 170.374 93.5074 171.823 93.8554L 172.733 94.0744C 173.409 94.2344 173.678 94.4764 173.678 94.9134C 173.678 95.4764 173.112 95.8594 172.268 95.8594C 171.749 95.8594 171.311 95.7104 171.069 95.4534C 170.921 95.2814 170.85 95.1054 170.795 94.6714L 169.78 94.6714C 169.823 96.0814 170.608 96.7614 172.19 96.7614C 173.713 96.7614 174.682 96.0114 174.682 94.8474C 174.682 93.9494 174.171 93.4534 172.956 93.1634L 172.022 92.9454C 171.229 92.7614 170.889 92.5074 170.889 92.0814C 170.889 91.5314 171.385 91.1714 172.174 91.1714C 172.952 91.1714 173.37 91.4994 173.393 92.1284L 174.413 92.1244z"/>
<path style="stroke:none; fill-rule:evenodd; fill:#000000" d="M 181.225 95.9064C 181.12 95.9684 181.073 95.9684 181.014 95.9684C 180.674 95.9684 180.487 95.7964 180.487 95.4954L 180.487 91.9294C 180.487 90.8554 179.71 90.2734 178.237 90.2734C 177.37 90.2734 176.651 90.5274 176.249 90.9764C 175.975 91.2854 175.862 91.6324 175.838 92.2344L 176.784 92.2344C 176.862 91.5034 177.288 91.1754 178.171 91.1754C 179.014 91.1754 179.487 91.4954 179.487 92.0744L 179.487 92.3274C 179.487 92.7304 179.253 92.9024 178.51 92.9954C 177.186 93.1674 176.983 93.2144 176.624 93.3634C 175.94 93.6484 175.592 94.1914 175.592 94.9764C 175.592 96.0704 176.346 96.7614 177.561 96.7614C 178.315 96.7614 178.921 96.4884 179.596 95.8434C 179.663 96.4764 179.96 96.7614 180.581 96.7614C 180.772 96.7614 180.921 96.7384 181.229 96.6564L 181.225 95.9064zM 179.483 94.6054C 179.483 94.9334 179.397 95.1364 179.116 95.4104C 178.737 95.7734 178.28 95.9644 177.733 95.9644C 177.01 95.9644 176.588 95.6014 176.588 94.9724C 176.588 94.3244 176.999 93.9924 177.991 93.8394C 178.971 93.6994 179.171 93.6524 179.483 93.4954L 179.483 94.6054z"/>
<path style="stroke:none; fill-rule:evenodd; fill:#000000" d="M 182.28 96.4684L 183.28 96.4684L 183.28 88.0704L 182.28 88.0704L 182.28 96.4684z"/>
<path style="stroke:none; fill-rule:evenodd; fill:#000000" d="M 185.038 98.9024C 186.167 97.3944 186.878 95.3004 186.878 93.4954C 186.878 91.6794 186.167 89.5854 185.038 88.0744L 184.421 88.0744C 185.424 89.7184 185.983 91.6524 185.983 93.4954C 185.983 95.3244 185.424 97.2694 184.421 98.9024L 185.038 98.9024z"/>
<path style="stroke:none; fill-rule:evenodd; fill:#000000" d="M 209.182 82.1674L 212.436 82.1674C 214.565 82.1674 215.878 80.5774 215.878 77.9644C 215.878 75.3634 214.581 73.7734 212.436 73.7734L 209.182 73.7734L 209.182 82.1674zM 210.28 81.2654L 210.28 74.6674L 212.253 74.6674C 213.905 74.6674 214.776 75.8004 214.776 77.9724C 214.776 80.1204 213.905 81.2654 212.253 81.2654L 210.28 81.2654z"/>
<path style="stroke:none; fill-rule:evenodd; fill:#000000" d="M 218.182 76.1674L 217.182 76.1674L 217.182 82.1674L 218.182 82.1674L 218.182 76.1674zM 218.182 73.7654L 217.182 73.7654L 217.182 74.9954L 218.182 74.9954L 218.182 73.7654z"/>
<path style="stroke:none; fill-rule:evenodd; fill:#000000" d="M 221.983 76.1674L 220.983 76.1674L 220.983 75.1994C 220.983 74.7854 221.21 74.5744 221.647 74.5744C 221.725 74.5744 221.76 74.5744 221.979 74.5744L 221.979 73.8314C 221.756 73.7884 221.628 73.7814 221.428 73.7814C 220.526 73.7814 219.983 74.2884 219.983 75.1524L 219.983 76.1754L 219.186 76.1754L 219.186 76.9724L 219.983 76.9724L 219.983 82.1714L 220.983 82.1714L 220.983 76.9724L 221.983 76.9724L 221.983 76.1674z"/>
<path style="stroke:none; fill-rule:evenodd; fill:#000000" d="M 225.182 76.1674L 224.182 76.1674L 224.182 75.1994C 224.182 74.7854 224.409 74.5744 224.846 74.5744C 224.924 74.5744 224.96 74.5744 225.178 74.5744L 225.178 73.8314C 224.956 73.7884 224.827 73.7814 224.628 73.7814C 223.725 73.7814 223.182 74.2884 223.182 75.1524L 223.182 76.1754L 222.385 76.1754L 222.385 76.9724L 223.182 76.9724L 223.182 82.1714L 224.182 82.1714L 224.182 76.9724L 225.182 76.9724L 225.182 76.1674z"/>
<path style="stroke:none; fill-rule:evenodd; fill:#000000" d="M 231.28 79.4684C 231.28 78.5504 231.213 77.9994 231.042 77.5544C 230.655 76.5704 229.741 75.9724 228.624 75.9724C 226.96 75.9724 225.885 77.2654 225.885 79.2534C 225.885 81.2424 226.921 82.4684 228.596 82.4684C 229.96 82.4684 230.909 81.6754 231.147 80.3434L 230.194 80.3434C 229.932 81.1484 229.401 81.5664 228.639 81.5664C 228.038 81.5664 227.526 81.2884 227.21 80.7734C 226.983 80.4254 226.905 80.0744 226.893 79.4684L 231.28 79.4684zM 226.862 78.6994C 226.94 77.5854 227.62 76.8634 228.585 76.8634C 229.526 76.8634 230.249 77.6404 230.249 78.6284C 230.249 78.6484 230.249 78.6714 230.241 78.6954L 226.862 78.6994z"/>
<path style="stroke:none; fill-rule:evenodd; fill:#000000" d="M 232.581 76.1404L 232.581 82.1634L 233.581 82.1634L 233.581 79.0314C 233.581 78.1674 233.792 77.6054 234.241 77.2694C 234.53 77.0504 234.811 76.9844 235.463 76.9724L 235.463 76.0074C 235.307 75.9884 235.225 75.9764 235.1 75.9764C 234.491 75.9764 234.026 76.3434 233.479 77.2424L 233.479 76.1524L 232.581 76.1404z"/>
<path style="stroke:none; fill-rule:evenodd; fill:#000000" d="M 241.483 79.4684C 241.483 78.5504 241.417 77.9994 241.245 77.5544C 240.858 76.5704 239.944 75.9724 238.827 75.9724C 237.163 75.9724 236.088 77.2654 236.088 79.2534C 236.088 81.2424 237.124 82.4684 238.799 82.4684C 240.163 82.4684 241.112 81.6754 241.35 80.3434L 240.397 80.3434C 240.135 81.1484 239.604 81.5664 238.842 81.5664C 238.241 81.5664 237.729 81.2884 237.413 80.7734C 237.186 80.4254 237.108 80.0744 237.096 79.4684L 241.483 79.4684zM 237.061 78.6994C 237.139 77.5854 237.819 76.8634 238.784 76.8634C 239.725 76.8634 240.448 77.6404 240.448 78.6284C 240.448 78.6484 240.448 78.6714 240.44 78.6954L 237.061 78.6994z"/>
<path style="stroke:none; fill-rule:evenodd; fill:#000000" d="M 242.78 76.1404L 242.78 82.1634L 243.78 82.1634L 243.78 78.8164C 243.78 77.5774 244.405 76.7654 245.37 76.7654C 246.108 76.7654 246.577 77.2264 246.577 77.9564L 246.577 82.1604L 247.577 82.1604L 247.577 77.6094C 247.577 76.6094 246.835 75.9644 245.674 75.9644C 244.784 75.9644 244.21 76.3084 243.682 77.1484L 243.682 76.1364L 242.78 76.1404z"/>
<path style="stroke:none; fill-rule:evenodd; fill:#000000" d="M 251.28 76.1674L 250.381 76.1674L 250.381 74.4994L 249.381 74.4994L 249.381 76.1674L 248.483 76.1674L 248.483 76.9644L 249.381 76.9644L 249.381 81.5114C 249.381 82.1174 249.784 82.4604 250.514 82.4604C 250.737 82.4604 250.963 82.4374 251.276 82.3784L 251.276 81.5424C 251.163 81.6324 251.026 81.6604 250.858 81.6604C 250.483 81.6604 250.378 81.5464 250.378 81.1174L 250.378 76.9644L 251.276 76.9644L 251.28 76.1674z"/>
<path style="stroke:none; fill-rule:evenodd; fill:#000000" d="M 217.506 88.0664C 216.389 89.5744 215.682 91.6674 215.682 93.4764C 215.682 95.2924 216.385 97.3864 217.506 98.8984L 218.12 98.8984C 217.131 97.2534 216.581 95.3204 216.581 93.4764C 216.581 91.6484 217.131 89.7034 218.12 88.0664L 217.506 88.0664z"/>
<path style="stroke:none; fill-rule:evenodd; fill:#000000" d="M 225.483 90.5544C 225.471 88.9214 224.354 87.9684 222.44 87.9684C 220.616 87.9684 219.487 88.9174 219.487 90.4454C 219.487 91.4724 220.018 92.1204 221.108 92.4134L 223.163 92.9684C 224.206 93.2454 224.682 93.6714 224.682 94.3314C 224.682 94.7814 224.448 95.2454 224.096 95.4994C 223.768 95.7304 223.249 95.8554 222.581 95.8554C 221.69 95.8554 221.077 95.6284 220.682 95.1284C 220.378 94.7494 220.245 94.3314 220.292 93.7924L 219.292 93.7924C 219.299 94.5704 219.448 95.0814 219.776 95.5464C 220.342 96.3354 221.295 96.7534 222.553 96.7534C 223.538 96.7534 224.342 96.5274 224.878 96.1094C 225.432 95.6634 225.784 94.9134 225.784 94.1874C 225.784 93.1524 225.151 92.3944 224.026 92.0814L 221.952 91.5194C 220.956 91.2454 220.592 90.9214 220.592 90.2774C 220.592 89.4254 221.323 88.8634 222.432 88.8634C 223.741 88.8634 224.475 89.4644 224.487 90.5464L 225.483 90.5544z"/>
<path style="stroke:none; fill-rule:evenodd; fill:#000000" d="M 227.081 88.0664L 227.081 96.4644L 228.081 96.4644L 228.081 93.1174C 228.081 91.8784 228.706 91.0664 229.671 91.0664C 229.971 91.0664 230.272 91.1674 230.499 91.3434C 230.764 91.5384 230.878 91.8274 230.878 92.2574L 230.878 96.4604L 231.878 96.4604L 231.878 91.9104C 231.878 90.8984 231.159 90.2654 229.995 90.2654C 229.151 90.2654 228.639 90.5314 228.081 91.2734L 228.081 88.0664L 227.081 88.0664z"/>
<path style="stroke:none; fill-rule:evenodd; fill:#000000" d="M 234.381 90.4684L 233.381 90.4684L 233.381 96.4684L 234.381 96.4684L 234.381 90.4684zM 234.381 88.0664L 233.381 88.0664L 233.381 89.2964L 234.381 89.2964L 234.381 88.0664z"/>
<path style="stroke:none; fill-rule:evenodd; fill:#000000" d="M 238.182 90.4684L 237.182 90.4684L 237.182 89.4994C 237.182 89.0854 237.409 88.8744 237.846 88.8744C 237.924 88.8744 237.96 88.8744 238.178 88.8744L 238.178 88.1324C 237.956 88.0894 237.827 88.0814 237.628 88.0814C 236.725 88.0814 236.182 88.5894 236.182 89.4534L 236.182 90.4764L 235.385 90.4764L 235.385 91.2734L 236.182 91.2734L 236.182 96.4724L 237.182 96.4724L 237.182 91.2734L 238.182 91.2734L 238.182 90.4684z"/>
<path style="stroke:none; fill-rule:evenodd; fill:#000000" d="M 241.28 90.4684L 240.381 90.4684L 240.381 88.8004L 239.381 88.8004L 239.381 90.4684L 238.483 90.4684L 238.483 91.2654L 239.381 91.2654L 239.381 95.8124C 239.381 96.4174 239.784 96.7614 240.514 96.7614C 240.737 96.7614 240.963 96.7384 241.276 96.6794L 241.276 95.8434C 241.163 95.9334 241.026 95.9604 240.858 95.9604C 240.483 95.9604 240.378 95.8474 240.378 95.4174L 240.378 91.2654L 241.276 91.2654L 241.28 90.4684z"/>
<path style="stroke:none; fill-rule:evenodd; fill:#000000" d="M 242.639 98.9024C 243.768 97.3944 244.479 95.3004 244.479 93.4954C 244.479 91.6794 243.768 89.5854 242.639 88.0744L 242.022 88.0744C 243.026 89.7184 243.585 91.6524 243.585 93.4954C 243.585 95.3244 243.026 97.2694 242.022 98.9024L 242.639 98.9024z"/>
<path style="stroke:none; fill-rule:evenodd; fill:#9f9f9f" d="M 150.21 137.179L 184.659 137.179L 184.659 173.542L 173.178 173.542L 173.178 163.976L 161.698 163.976L 161.698 173.542L 150.217 173.542"/>
<path style="stroke:#9f9f9f; stroke-width:1.9139600000000001; fill:none" d="M 150.21 137.179L 184.659 137.179L 184.659 173.542L 173.178 173.542L 173.178 163.976L 161.698 163.976L 161.698 173.542L 150.217 173.542L 150.21 137.179z"/>
<path style="stroke:none; fill-rule:evenodd; fill:#000000" d="M 152.983 118.968L 154.28 118.968L 154.28 109.171L 152.983 109.171L 152.983 118.968z"/>
<path style="stroke:none; fill-rule:evenodd; fill:#000000" d="M 156.581 118.968L 160.323 118.968C 162.772 118.968 164.28 117.117 164.28 114.066C 164.28 111.031 162.788 109.175 160.323 109.175L 156.581 109.175L 156.581 118.968zM 157.78 117.968L 157.78 110.171L 160.104 110.171C 162.049 110.171 163.077 111.507 163.077 114.077C 163.077 116.617 162.049 117.968 160.104 117.968L 157.78 117.968z"/>
<path style="stroke:none; fill-rule:evenodd; fill:#000000" d="M 167.581 114.765L 170.846 114.765C 171.975 114.765 172.479 115.296 172.479 116.503L 172.479 117.37C 172.479 117.972 172.577 118.558 172.745 118.96L 174.174 118.96L 174.174 118.652C 173.702 118.331 173.608 117.98 173.581 116.679C 173.569 115.07 173.315 114.585 172.264 114.128C 173.346 113.593 173.78 112.906 173.78 111.792C 173.78 110.101 172.733 109.171 170.838 109.171L 166.385 109.171L 166.385 118.968L 167.585 118.968L 167.581 114.765zM 167.573 113.663L 167.573 110.304L 170.585 110.304C 171.28 110.304 171.682 110.41 171.991 110.679C 172.323 110.96 172.499 111.402 172.499 111.992C 172.499 113.14 171.913 113.663 170.585 113.663L 167.573 113.663z"/>
<path style="stroke:#000000; stroke-width:3.8279200000000002; fill:none" d="M 146.381 210.804L 192.315 210.804"/>
<path style="stroke:none; fill-rule:evenodd; fill:#000000" d="M 154.081 245.066L 159.448 245.066L 159.448 244.066L 154.081 244.066L 154.081 240.769L 159.678 240.769L 159.678 239.769L 152.881 239.769L 152.881 249.566L 159.881 249.566L 159.881 248.566L 154.085 248.566L 154.081 245.066z"/>
<path style="stroke:none; fill-rule:evenodd; fill:#000000" d="M 161.78 249.566L 165.522 249.566C 167.971 249.566 169.479 247.714 169.479 244.663C 169.479 241.628 167.987 239.773 165.522 239.773L 161.78 239.773L 161.78 249.566zM 162.983 248.566L 162.983 240.769L 165.307 240.769C 167.253 240.769 168.28 242.105 168.28 244.675C 168.28 247.214 167.253 248.566 165.307 248.566L 162.983 248.566z"/>
<path style="stroke:none; fill-rule:evenodd; fill:#000000" d="M 172.78 245.367L 176.045 245.367C 177.174 245.367 177.678 245.898 177.678 247.105L 177.678 247.972C 177.678 248.574 177.776 249.16 177.944 249.562L 179.374 249.562L 179.374 249.253C 178.901 248.933 178.807 248.581 178.78 247.281C 178.768 245.671 178.514 245.187 177.463 244.73C 178.545 244.195 178.979 243.507 178.979 242.394C 178.979 240.703 177.932 239.773 176.038 239.773L 171.585 239.773L 171.585 249.57L 172.784 249.57L 172.78 245.367zM 172.772 244.261L 172.772 240.902L 175.784 240.902C 176.479 240.902 176.881 241.007 177.19 241.277C 177.522 241.558 177.698 241.999 177.698 242.589C 177.698 243.738 177.112 244.261 175.784 244.261L 172.772 244.261z"/>
<path style="stroke:none; fill-rule:evenodd; fill:#000000" d="M 221.28 118.968L 222.577 118.968L 222.577 109.171L 221.28 109.171L 221.28 118.968z"/>
<path style="stroke:none; fill-rule:evenodd; fill:#000000" d="M 224.983 118.968L 228.725 118.968C 231.174 118.968 232.682 117.117 232.682 114.066C 232.682 111.031 231.19 109.175 228.725 109.175L 224.983 109.175L 224.983 118.968zM 226.182 117.968L 226.182 110.171L 228.506 110.171C 230.452 110.171 231.479 111.507 231.479 114.077C 231.479 116.617 230.452 117.968 228.506 117.968L 226.182 117.968z"/>
<path style="stroke:none; fill-rule:evenodd; fill:#000000" d="M 241.28 112.066C 241.268 110.171 239.983 109.066 237.78 109.066C 235.682 109.066 234.385 110.171 234.385 111.953C 234.385 113.152 235.01 113.906 236.288 114.245L 238.694 114.89C 239.917 115.21 240.479 115.71 240.479 116.48C 240.479 117.003 240.198 117.542 239.78 117.839C 239.393 118.109 238.772 118.257 237.979 118.257C 236.917 118.257 236.19 117.995 235.717 117.41C 235.358 116.968 235.194 116.48 235.186 115.851L 234.088 115.851C 234.1 116.745 234.272 117.331 234.655 117.867C 235.315 118.773 236.428 119.253 237.901 119.253C 239.053 119.253 239.995 118.988 240.616 118.503C 241.264 117.984 241.678 117.109 241.678 116.265C 241.678 115.062 240.932 114.175 239.616 113.812L 237.182 113.156C 236.01 112.835 235.585 112.46 235.585 111.71C 235.585 110.718 236.448 110.062 237.756 110.062C 239.299 110.062 240.167 110.777 240.182 112.062L 241.28 112.066z"/>
<path style="stroke:none; fill-rule:evenodd; fill:#000000" d="M 222.381 245.066L 227.749 245.066L 227.749 244.066L 222.381 244.066L 222.381 240.769L 227.979 240.769L 227.979 239.769L 221.182 239.769L 221.182 249.566L 228.182 249.566L 228.182 248.566L 222.385 248.566L 222.381 245.066z"/>
<path style="stroke:none; fill-rule:evenodd; fill:#000000" d="M 230.182 249.566L 233.924 249.566C 236.374 249.566 237.881 247.714 237.881 244.663C 237.881 241.628 236.389 239.773 233.924 239.773L 230.182 239.773L 230.182 249.566zM 231.381 248.566L 231.381 240.769L 233.706 240.769C 235.651 240.769 236.678 242.105 236.678 244.675C 236.678 247.214 235.651 248.566 233.706 248.566L 231.381 248.566z"/>
<path style="stroke:none; fill-rule:evenodd; fill:#000000" d="M 246.581 242.667C 246.569 240.773 245.284 239.667 243.081 239.667C 240.983 239.667 239.686 240.773 239.686 242.554C 239.686 243.753 240.311 244.507 241.588 244.847L 243.995 245.492C 245.217 245.812 245.78 246.312 245.78 247.081C 245.78 247.605 245.499 248.144 245.081 248.441C 244.694 248.71 244.073 248.859 243.28 248.859C 242.217 248.859 241.491 248.597 241.018 248.011C 240.659 247.57 240.495 247.081 240.487 246.453L 239.389 246.453C 239.401 247.347 239.573 247.933 239.956 248.468C 240.616 249.374 241.729 249.855 243.202 249.855C 244.354 249.855 245.295 249.589 245.917 249.105C 246.565 248.585 246.979 247.71 246.979 246.867C 246.979 245.663 246.233 244.777 244.917 244.413L 242.483 243.757C 241.311 243.437 240.885 243.062 240.885 242.312C 240.885 241.32 241.749 240.663 243.057 240.663C 244.6 240.663 245.467 241.378 245.483 242.663L 246.581 242.667z"/>
<path style="stroke:none; fill-rule:evenodd; fill:#9f9f9f" d="M 217.139 133.363L 228.616 133.363L 228.616 160.148L 253.487 160.148L 253.487 173.538L 217.135 173.538"/>
<path style="stroke:#9f9f9f; stroke-width:1.9139600000000001; fill:none" d="M 217.139 133.363L 228.616 133.363L 228.616 160.148L 253.487 160.148L 253.487 173.538L 217.135 173.538L 217.139 133.363z"/>
<path style="stroke:#000000; stroke-width:3.8279200000000002; fill:none" d="M 207.573 188.335L 219.049 209.378L 240.092 209.378L 251.569 188.335"/>
<path style="stroke:#000000; stroke-width:3.8279200000000002; fill:none" d="M 207.577 230.425L 219.053 209.382L 240.096 209.382L 251.573 230.425"/>
<path style="stroke:none; fill-rule:evenodd; fill:#000000" d="M 74.7804 138.667L 75.8784 138.667L 75.8784 130.269L 74.7804 130.269L 74.7804 138.667z"/>
<path style="stroke:none; fill-rule:evenodd; fill:#000000" d="M 77.6824 132.64L 77.6824 138.663L 78.6824 138.663L 78.6824 135.316C 78.6824 134.077 79.3074 133.265 80.2724 133.265C 81.0104 133.265 81.4794 133.726 81.4794 134.456L 81.4794 138.66L 82.4794 138.66L 82.4794 134.109C 82.4794 133.109 81.7374 132.464 80.5774 132.464C 79.6864 132.464 79.1124 132.808 78.5854 133.648L 78.5854 132.636L 77.6824 132.64z"/>
<path style="stroke:none; fill-rule:evenodd; fill:#000000" d="M 86.1824 132.667L 85.2844 132.667L 85.2844 130.999L 84.2844 130.999L 84.2844 132.667L 83.3854 132.667L 83.3854 133.464L 84.2844 133.464L 84.2844 138.011C 84.2844 138.617 84.6864 138.96 85.4174 138.96C 85.6394 138.96 85.8664 138.937 86.1784 138.878L 86.1784 138.042C 86.0654 138.132 85.9284 138.16 85.7604 138.16C 85.3854 138.16 85.2804 138.046 85.2804 137.617L 85.2804 133.464L 86.1784 133.464L 86.1824 132.667z"/>
<path style="stroke:none; fill-rule:evenodd; fill:#000000" d="M 87.2804 132.64L 87.2804 138.663L 88.2804 138.663L 88.2804 135.531C 88.2804 134.667 88.4914 134.105 88.9404 133.769C 89.2294 133.55 89.5104 133.484 90.1634 133.472L 90.1634 132.507C 90.0064 132.488 89.9244 132.476 89.7994 132.476C 89.1904 132.476 88.7254 132.843 88.1784 133.742L 88.1784 132.652L 87.2804 132.64z"/>
<path style="stroke:none; fill-rule:evenodd; fill:#000000" d="M 96.4244 138.105C 96.3194 138.167 96.2724 138.167 96.2134 138.167C 95.8744 138.167 95.6864 137.995 95.6864 137.695L 95.6864 134.128C 95.6864 133.054 94.9094 132.472 93.4364 132.472C 92.5694 132.472 91.8504 132.726 91.4484 133.175C 91.1744 133.484 91.0614 133.831 91.0384 134.433L 91.9834 134.433C 92.0614 133.703 92.4874 133.374 93.3704 133.374C 94.2134 133.374 94.6864 133.695 94.6864 134.273L 94.6864 134.527C 94.6864 134.929 94.4524 135.101 93.7104 135.195C 92.3854 135.367 92.1824 135.413 91.8234 135.562C 91.1394 135.847 90.7924 136.39 90.7924 137.175C 90.7924 138.269 91.5454 138.96 92.7604 138.96C 93.5144 138.96 94.1204 138.687 94.7954 138.042C 94.8624 138.675 95.1594 138.96 95.7804 138.96C 95.9714 138.96 96.1204 138.937 96.4284 138.855L 96.4244 138.105zM 94.6824 136.804C 94.6824 137.132 94.5964 137.335 94.3154 137.609C 93.9364 137.972 93.4794 138.163 92.9324 138.163C 92.2104 138.163 91.7884 137.8 91.7884 137.171C 91.7884 136.523 92.1984 136.191 93.1904 136.038C 94.1714 135.898 94.3704 135.851 94.6824 135.695L 94.6824 136.804z"/>
<path style="stroke:none; fill-rule:evenodd; fill:#000000" d="M 97.1824 136.367L 102.979 136.367L 102.979 135.57L 97.1824 135.57L 97.1824 136.367z"/>
<path style="stroke:none; fill-rule:evenodd; fill:#000000" d="M 79.3814 141.765L 78.3814 141.765L 78.3814 144.902C 77.9834 144.288 77.3464 143.964 76.5454 143.964C 74.9994 143.964 73.9834 145.222 73.9834 147.156C 73.9834 149.203 74.9954 150.46 76.6354 150.46C 77.4714 150.46 78.0534 150.14 78.5814 149.37L 78.5814 150.16L 79.3784 150.16L 79.3814 141.765zM 76.7104 144.867C 77.7294 144.867 78.3814 145.792 78.3814 147.238C 78.3814 148.636 77.7254 149.562 76.7214 149.562C 75.6784 149.562 74.9834 148.624 74.9834 147.214C 74.9834 145.804 75.6744 144.867 76.7104 144.867z"/>
<path style="stroke:none; fill-rule:evenodd; fill:#000000" d="M 81.7804 144.167L 80.7804 144.167L 80.7804 150.167L 81.7804 150.167L 81.7804 144.167zM 81.7804 141.765L 80.7804 141.765L 80.7804 142.995L 81.7804 142.995L 81.7804 141.765z"/>
<path style="stroke:none; fill-rule:evenodd; fill:#000000" d="M 83.3814 144.14L 83.3814 150.163L 84.3814 150.163L 84.3814 146.355C 84.3814 145.476 85.0064 144.769 85.7764 144.769C 86.4794 144.769 86.8784 145.206 86.8784 145.984L 86.8784 150.163L 87.8784 150.163L 87.8784 146.355C 87.8784 145.476 88.5034 144.769 89.2724 144.769C 89.9634 144.769 90.3744 145.218 90.3744 145.984L 90.3744 150.163L 91.3744 150.163L 91.3744 145.644C 91.3744 144.566 90.7534 143.964 89.6204 143.964C 88.8154 143.964 88.3274 144.206 87.7644 144.89C 87.4094 144.242 86.9244 143.964 86.1394 143.964C 85.3354 143.964 84.8034 144.261 84.2844 144.988L 84.2844 144.14L 83.3814 144.14z"/>
<path style="stroke:none; fill-rule:evenodd; fill:#000000" d="M 98.0814 147.468C 98.0814 146.55 98.0144 145.999 97.8424 145.554C 97.4564 144.57 96.5424 143.972 95.4244 143.972C 93.7604 143.972 92.6864 145.265 92.6864 147.253C 92.6864 149.242 93.7214 150.468 95.3974 150.468C 96.7604 150.468 97.7104 149.675 97.9484 148.343L 96.9954 148.343C 96.7334 149.148 96.2024 149.566 95.4404 149.566C 94.8384 149.566 94.3274 149.288 94.0104 148.773C 93.7844 148.425 93.7064 148.074 93.6944 147.468L 98.0814 147.468zM 93.6634 146.699C 93.7414 145.585 94.4214 144.863 95.3854 144.863C 96.3274 144.863 97.0494 145.64 97.0494 146.628C 97.0494 146.648 97.0494 146.671 97.0424 146.695L 93.6634 146.699z"/>
<path style="stroke:none; fill-rule:evenodd; fill:#000000" d="M 99.3814 144.14L 99.3814 150.163L 100.381 150.163L 100.381 146.816C 100.381 145.577 101.006 144.765 101.971 144.765C 102.71 144.765 103.178 145.226 103.178 145.956L 103.178 150.16L 104.178 150.16L 104.178 145.609C 104.178 144.609 103.436 143.964 102.276 143.964C 101.385 143.964 100.811 144.308 100.284 145.148L 100.284 144.136L 99.3814 144.14z"/>
<path style="stroke:none; fill-rule:evenodd; fill:#000000" d="M 110.01 145.827C 109.999 144.64 109.213 143.972 107.811 143.972C 106.401 143.972 105.483 144.699 105.483 145.816C 105.483 146.761 105.971 147.21 107.421 147.558L 108.331 147.777C 109.006 147.937 109.276 148.179 109.276 148.617C 109.276 149.179 108.71 149.562 107.866 149.562C 107.346 149.562 106.909 149.413 106.667 149.156C 106.518 148.984 106.448 148.808 106.393 148.374L 105.378 148.374C 105.421 149.785 106.206 150.464 107.788 150.464C 109.311 150.464 110.28 149.714 110.28 148.55C 110.28 147.652 109.768 147.156 108.553 146.867L 107.62 146.648C 106.827 146.464 106.487 146.21 106.487 145.785C 106.487 145.234 106.983 144.874 107.772 144.874C 108.549 144.874 108.967 145.203 108.991 145.831L 110.01 145.827z"/>
<path style="stroke:none; fill-rule:evenodd; fill:#000000" d="M 112.381 144.167L 111.381 144.167L 111.381 150.167L 112.381 150.167L 112.381 144.167zM 112.381 141.765L 111.381 141.765L 111.381 142.995L 112.381 142.995L 112.381 141.765z"/>
<path style="stroke:none; fill-rule:evenodd; fill:#000000" d="M 116.421 143.968C 114.717 143.968 113.686 145.179 113.686 147.218C 113.686 149.249 114.706 150.468 116.436 150.468C 118.139 150.468 119.186 149.257 119.186 147.265C 119.186 145.175 118.178 143.972 116.424 143.972L 116.421 143.968zM 116.432 144.867C 117.526 144.867 118.182 145.753 118.182 147.249C 118.182 148.663 117.506 149.562 116.432 149.562C 115.35 149.562 114.686 148.675 114.686 147.214C 114.686 145.765 115.35 144.867 116.432 144.867z"/>
<path style="stroke:none; fill-rule:evenodd; fill:#000000" d="M 120.381 144.14L 120.381 150.163L 121.381 150.163L 121.381 146.816C 121.381 145.577 122.006 144.765 122.971 144.765C 123.71 144.765 124.178 145.226 124.178 145.956L 124.178 150.16L 125.178 150.16L 125.178 145.609C 125.178 144.609 124.436 143.964 123.276 143.964C 122.385 143.964 121.811 144.308 121.284 145.148L 121.284 144.136L 120.381 144.14z"/>
<path style="stroke:none; fill-rule:evenodd; fill:#000000" d="M 132.124 149.605C 132.018 149.667 131.971 149.667 131.913 149.667C 131.573 149.667 131.385 149.495 131.385 149.195L 131.385 145.628C 131.385 144.554 130.608 143.972 129.135 143.972C 128.268 143.972 127.549 144.226 127.147 144.675C 126.874 144.984 126.76 145.331 126.737 145.933L 127.682 145.933C 127.76 145.203 128.186 144.874 129.069 144.874C 129.913 144.874 130.385 145.195 130.385 145.773L 130.385 146.027C 130.385 146.429 130.151 146.601 129.409 146.695C 128.085 146.867 127.881 146.913 127.522 147.062C 126.838 147.347 126.491 147.89 126.491 148.675C 126.491 149.769 127.245 150.46 128.46 150.46C 129.213 150.46 129.819 150.187 130.495 149.542C 130.561 150.175 130.858 150.46 131.479 150.46C 131.671 150.46 131.819 150.437 132.128 150.355L 132.124 149.605zM 130.381 148.304C 130.381 148.632 130.295 148.835 130.014 149.109C 129.635 149.472 129.178 149.663 128.631 149.663C 127.909 149.663 127.487 149.3 127.487 148.671C 127.487 148.023 127.897 147.691 128.889 147.538C 129.87 147.398 130.069 147.351 130.381 147.195L 130.381 148.304z"/>
<path style="stroke:none; fill-rule:evenodd; fill:#000000" d="M 133.182 150.167L 134.182 150.167L 134.182 141.769L 133.182 141.769L 133.182 150.167z"/>
<path style="stroke:none; fill-rule:evenodd; fill:#000000" d="M 76.4054 153.265C 75.2884 154.773 74.5814 156.867 74.5814 158.675C 74.5814 160.492 75.2844 162.585 76.4054 164.097L 77.0184 164.097C 76.0304 162.453 75.4794 160.519 75.4794 158.675C 75.4794 156.847 76.0304 154.902 77.0184 153.265L 76.4054 153.265z"/>
<path style="stroke:none; fill-rule:evenodd; fill:#000000" d="M 78.5814 161.667L 79.6784 161.667L 79.6784 153.269L 78.5814 153.269L 78.5814 161.667z"/>
<path style="stroke:none; fill-rule:evenodd; fill:#000000" d="M 81.6824 161.667L 84.9364 161.667C 87.0654 161.667 88.3784 160.077 88.3784 157.464C 88.3784 154.863 87.0814 153.273 84.9364 153.273L 81.6824 153.273L 81.6824 161.667zM 82.7804 160.765L 82.7804 154.167L 84.7534 154.167C 86.4054 154.167 87.2764 155.3 87.2764 157.472C 87.2764 159.62 86.4054 160.765 84.7534 160.765L 82.7804 160.765z"/>
<path style="stroke:none; fill-rule:evenodd; fill:#000000" d="M 90.0384 164.101C 91.1674 162.593 91.8784 160.499 91.8784 158.695C 91.8784 156.878 91.1674 154.785 90.0384 153.273L 89.4214 153.273C 90.4244 154.917 90.9834 156.851 90.9834 158.695C 90.9834 160.523 90.4244 162.468 89.4214 164.101L 90.0384 164.101z"/>
<path style="stroke:none; fill-rule:evenodd; fill:#000000" d="M 77.6824 200.367L 82.2414 200.367L 82.2414 199.468L 77.6824 199.468L 77.6824 196.671L 82.3814 196.671L 82.3814 195.773L 76.5854 195.773L 76.5854 204.171L 82.5854 204.171L 82.5854 203.273L 77.6864 203.273L 77.6824 200.367z"/>
<path style="stroke:none; fill-rule:evenodd; fill:#000000" d="M 86.6354 201.066L 88.6554 198.171L 87.5774 198.171L 86.1314 200.335L 84.6864 198.171L 83.5964 198.171L 85.6044 201.113L 83.4834 204.167L 84.5734 204.167L 86.0964 201.863L 87.6004 204.167L 88.7134 204.167L 86.6354 201.066z"/>
<path style="stroke:none; fill-rule:evenodd; fill:#000000" d="M 91.8814 198.167L 90.9834 198.167L 90.9834 196.499L 89.9834 196.499L 89.9834 198.167L 89.0854 198.167L 89.0854 198.964L 89.9834 198.964L 89.9834 203.511C 89.9834 204.117 90.3854 204.46 91.1164 204.46C 91.3384 204.46 91.5654 204.437 91.8784 204.378L 91.8784 203.542C 91.7644 203.632 91.6284 203.66 91.4604 203.66C 91.0854 203.66 90.9794 203.546 90.9794 203.117L 90.9794 198.964L 91.8784 198.964L 91.8814 198.167z"/>
<path style="stroke:none; fill-rule:evenodd; fill:#000000" d="M 92.9834 198.14L 92.9834 204.163L 93.9834 204.163L 93.9834 201.031C 93.9834 200.167 94.1944 199.605 94.6434 199.269C 94.9324 199.05 95.2134 198.984 95.8664 198.972L 95.8664 198.007C 95.7104 197.988 95.6284 197.976 95.5034 197.976C 94.8934 197.976 94.4284 198.343 93.8814 199.242L 93.8814 198.152L 92.9834 198.14z"/>
<path style="stroke:none; fill-rule:evenodd; fill:#000000" d="M 102.124 203.605C 102.018 203.667 101.971 203.667 101.913 203.667C 101.573 203.667 101.385 203.495 101.385 203.195L 101.385 199.628C 101.385 198.554 100.608 197.972 99.1354 197.972C 98.2684 197.972 97.5494 198.226 97.1474 198.675C 96.8744 198.984 96.7604 199.331 96.7374 199.933L 97.6824 199.933C 97.7604 199.203 98.1864 198.874 99.0694 198.874C 99.9134 198.874 100.385 199.195 100.385 199.773L 100.385 200.027C 100.385 200.429 100.151 200.601 99.4094 200.695C 98.0854 200.867 97.8814 200.913 97.5224 201.062C 96.8384 201.347 96.4914 201.89 96.4914 202.675C 96.4914 203.769 97.2454 204.46 98.4604 204.46C 99.2134 204.46 99.8194 204.187 100.495 203.542C 100.561 204.175 100.858 204.46 101.479 204.46C 101.671 204.46 101.819 204.437 102.128 204.355L 102.124 203.605zM 100.381 202.304C 100.381 202.632 100.295 202.835 100.014 203.109C 99.6354 203.472 99.1784 203.663 98.6314 203.663C 97.9094 203.663 97.4874 203.3 97.4874 202.671C 97.4874 202.023 97.8974 201.691 98.8894 201.538C 99.8704 201.398 100.069 201.351 100.381 201.195L 100.381 202.304z"/>
<path style="stroke:none; fill-rule:evenodd; fill:#000000" d="M 102.881 201.867L 108.678 201.867L 108.678 201.07L 102.881 201.07L 102.881 201.867z"/>
<path style="stroke:none; fill-rule:evenodd; fill:#000000" d="M 81.2804 207.265L 80.2804 207.265L 80.2804 210.402C 79.8814 209.788 79.2454 209.464 78.4444 209.464C 76.8974 209.464 75.8814 210.722 75.8814 212.656C 75.8814 214.703 76.8934 215.96 78.5344 215.96C 79.3704 215.96 79.9524 215.64 80.4794 214.87L 80.4794 215.66L 81.2764 215.66L 81.2804 207.265zM 78.6124 210.367C 79.6314 210.367 80.2844 211.292 80.2844 212.738C 80.2844 214.136 79.6284 215.062 78.6244 215.062C 77.5814 215.062 76.8854 214.124 76.8854 212.714C 76.8854 211.304 77.5774 210.367 78.6124 210.367z"/>
<path style="stroke:none; fill-rule:evenodd; fill:#000000" d="M 83.6824 209.667L 82.6824 209.667L 82.6824 215.667L 83.6824 215.667L 83.6824 209.667zM 83.6824 207.265L 82.6824 207.265L 82.6824 208.495L 83.6824 208.495L 83.6824 207.265z"/>
<path style="stroke:none; fill-rule:evenodd; fill:#000000" d="M 85.2804 209.64L 85.2804 215.663L 86.2804 215.663L 86.2804 211.855C 86.2804 210.976 86.9054 210.269 87.6744 210.269C 88.3784 210.269 88.7764 210.706 88.7764 211.484L 88.7764 215.663L 89.7764 215.663L 89.7764 211.855C 89.7764 210.976 90.4014 210.269 91.1714 210.269C 91.8624 210.269 92.2724 210.718 92.2724 211.484L 92.2724 215.663L 93.2724 215.663L 93.2724 211.144C 93.2724 210.066 92.6514 209.464 91.5184 209.464C 90.7134 209.464 90.2254 209.706 89.6634 210.39C 89.3074 209.742 88.8234 209.464 88.0384 209.464C 87.2334 209.464 86.7024 209.761 86.1824 210.488L 86.1824 209.64L 85.2804 209.64z"/>
<path style="stroke:none; fill-rule:evenodd; fill:#000000" d="M 99.9834 212.968C 99.9834 212.05 99.9174 211.499 99.7454 211.054C 99.3584 210.07 98.4444 209.472 97.3274 209.472C 95.6634 209.472 94.5884 210.765 94.5884 212.753C 94.5884 214.742 95.6244 215.968 97.2994 215.968C 98.6634 215.968 99.6124 215.175 99.8504 213.843L 98.8974 213.843C 98.6354 214.648 98.1044 215.066 97.3424 215.066C 96.7414 215.066 96.2294 214.788 95.9134 214.273C 95.6864 213.925 95.6084 213.574 95.5964 212.968L 99.9834 212.968zM 95.5614 212.199C 95.6394 211.085 96.3194 210.363 97.2844 210.363C 98.2254 210.363 98.9484 211.14 98.9484 212.128C 98.9484 212.148 98.9484 212.171 98.9404 212.195L 95.5614 212.199z"/>
<path style="stroke:none; fill-rule:evenodd; fill:#000000" d="M 101.28 209.64L 101.28 215.663L 102.28 215.663L 102.28 212.316C 102.28 211.077 102.905 210.265 103.87 210.265C 104.608 210.265 105.077 210.726 105.077 211.456L 105.077 215.66L 106.077 215.66L 106.077 211.109C 106.077 210.109 105.335 209.464 104.174 209.464C 103.284 209.464 102.71 209.808 102.182 210.648L 102.182 209.636L 101.28 209.64z"/>
<path style="stroke:none; fill-rule:evenodd; fill:#000000" d="M 111.913 211.327C 111.901 210.14 111.116 209.472 109.713 209.472C 108.303 209.472 107.385 210.199 107.385 211.316C 107.385 212.261 107.874 212.71 109.323 213.058L 110.233 213.277C 110.909 213.437 111.178 213.679 111.178 214.117C 111.178 214.679 110.612 215.062 109.768 215.062C 109.249 215.062 108.811 214.913 108.569 214.656C 108.421 214.484 108.35 214.308 108.295 213.874L 107.28 213.874C 107.323 215.285 108.108 215.964 109.69 215.964C 111.213 215.964 112.182 215.214 112.182 214.05C 112.182 213.152 111.671 212.656 110.456 212.367L 109.522 212.148C 108.729 211.964 108.389 211.71 108.389 211.285C 108.389 210.734 108.885 210.374 109.674 210.374C 110.452 210.374 110.87 210.703 110.893 211.331L 111.913 211.327z"/>
<path style="stroke:none; fill-rule:evenodd; fill:#000000" d="M 114.28 209.667L 113.28 209.667L 113.28 215.667L 114.28 215.667L 114.28 209.667zM 114.28 207.265L 113.28 207.265L 113.28 208.495L 114.28 208.495L 114.28 207.265z"/>
<path style="stroke:none; fill-rule:evenodd; fill:#000000" d="M 118.319 209.468C 116.616 209.468 115.585 210.679 115.585 212.718C 115.585 214.749 116.604 215.968 118.335 215.968C 120.038 215.968 121.085 214.757 121.085 212.765C 121.085 210.675 120.077 209.472 118.323 209.472L 118.319 209.468zM 118.331 210.367C 119.424 210.367 120.081 211.253 120.081 212.749C 120.081 214.163 119.405 215.062 118.331 215.062C 117.249 215.062 116.585 214.175 116.585 212.714C 116.585 211.265 117.249 210.367 118.331 210.367z"/>
<path style="stroke:none; fill-rule:evenodd; fill:#000000" d="M 122.381 209.64L 122.381 215.663L 123.381 215.663L 123.381 212.316C 123.381 211.077 124.006 210.265 124.971 210.265C 125.71 210.265 126.178 210.726 126.178 211.456L 126.178 215.66L 127.178 215.66L 127.178 211.109C 127.178 210.109 126.436 209.464 125.276 209.464C 124.385 209.464 123.811 209.808 123.284 210.648L 123.284 209.636L 122.381 209.64z"/>
<path style="stroke:none; fill-rule:evenodd; fill:#000000" d="M 134.026 215.105C 133.921 215.167 133.874 215.167 133.815 215.167C 133.475 215.167 133.288 214.995 133.288 214.695L 133.288 211.128C 133.288 210.054 132.51 209.472 131.038 209.472C 130.171 209.472 129.452 209.726 129.049 210.175C 128.776 210.484 128.663 210.831 128.639 211.433L 129.585 211.433C 129.663 210.703 130.088 210.374 130.971 210.374C 131.815 210.374 132.288 210.695 132.288 211.273L 132.288 211.527C 132.288 211.929 132.053 212.101 131.311 212.195C 129.987 212.367 129.784 212.413 129.424 212.562C 128.741 212.847 128.393 213.39 128.393 214.175C 128.393 215.269 129.147 215.96 130.362 215.96C 131.116 215.96 131.721 215.687 132.397 215.042C 132.463 215.675 132.76 215.96 133.381 215.96C 133.573 215.96 133.721 215.937 134.03 215.855L 134.026 215.105zM 132.28 213.804C 132.28 214.132 132.194 214.335 131.913 214.609C 131.534 214.972 131.077 215.163 130.53 215.163C 129.807 215.163 129.385 214.8 129.385 214.171C 129.385 213.523 129.795 213.191 130.788 213.038C 131.768 212.898 131.967 212.851 132.28 212.695L 132.28 213.804z"/>
<path style="stroke:none; fill-rule:evenodd; fill:#000000" d="M 135.081 215.667L 136.081 215.667L 136.081 207.269L 135.081 207.269L 135.081 215.667z"/>
<path style="stroke:none; fill-rule:evenodd; fill:#000000" d="M 78.3074 218.765C 77.1904 220.273 76.4834 222.367 76.4834 224.175C 76.4834 225.992 77.1864 228.085 78.3074 229.597L 78.9214 229.597C 77.9324 227.953 77.3814 226.019 77.3814 224.175C 77.3814 222.347 77.9324 220.402 78.9214 218.765L 78.3074 218.765z"/>
<path style="stroke:none; fill-rule:evenodd; fill:#000000" d="M 81.4834 223.367L 86.0424 223.367L 86.0424 222.468L 81.4834 222.468L 81.4834 219.671L 86.1824 219.671L 86.1824 218.773L 80.3854 218.773L 80.3854 227.171L 86.3854 227.171L 86.3854 226.273L 81.4874 226.273L 81.4834 223.367z"/>
<path style="stroke:none; fill-rule:evenodd; fill:#000000" d="M 88.0814 227.167L 91.3354 227.167C 93.4634 227.167 94.7764 225.577 94.7764 222.964C 94.7764 220.363 93.4794 218.773 91.3354 218.773L 88.0814 218.773L 88.0814 227.167zM 89.1824 226.265L 89.1824 219.667L 91.1554 219.667C 92.8074 219.667 93.6784 220.8 93.6784 222.972C 93.6784 225.12 92.8074 226.265 91.1554 226.265L 89.1824 226.265z"/>
<path style="stroke:none; fill-rule:evenodd; fill:#000000" d="M 96.4404 229.601C 97.5694 228.093 98.2804 225.999 98.2804 224.195C 98.2804 222.378 97.5694 220.285 96.4404 218.773L 95.8234 218.773C 96.8274 220.417 97.3854 222.351 97.3854 224.195C 97.3854 226.023 96.8274 227.968 95.8234 229.601L 96.4404 229.601z"/>
<path style="stroke:none; fill-rule:evenodd; fill:#000000" d="M 26.6826 164.968L 29.9248 164.968L 29.9248 163.968L 22.2646 163.968L 22.2646 164.968L 25.4834 164.968L 25.4834 173.765L 26.6826 173.765L 26.6826 164.968z"/>
<path style="stroke:none; fill-rule:evenodd; fill:#000000" d="M 37.3506 173.109C 37.2295 173.163 37.1748 173.163 37.1045 173.163C 36.7061 173.163 36.4873 172.964 36.4873 172.617L 36.4873 168.488C 36.4873 167.242 35.5811 166.57 33.8623 166.57C 32.8506 166.57 32.0107 166.859 31.542 167.378C 31.2256 167.734 31.0889 168.132 31.0654 168.824L 32.1865 168.824C 32.2764 167.96 32.7842 167.57 33.8272 167.57C 34.8272 167.57 35.3896 167.945 35.3896 168.613L 35.3896 168.906C 35.3896 169.374 35.1123 169.574 34.2373 169.679C 32.6748 169.878 32.4365 169.933 32.0107 170.105C 31.2022 170.437 30.792 171.07 30.792 171.98C 30.792 173.249 31.6709 174.054 33.0811 174.054C 33.96 174.054 34.6631 173.749 35.4482 173.035C 35.5264 173.738 35.874 174.054 36.5928 174.054C 36.8193 174.054 36.9912 174.031 37.3506 173.937L 37.3506 173.109zM 35.3818 171.542C 35.3818 171.91 35.2764 172.136 34.9404 172.441C 34.4873 172.851 33.9326 173.062 33.2725 173.062C 32.3975 173.062 31.8896 172.652 31.8896 171.953C 31.8896 171.226 32.3857 170.855 33.585 170.683C 34.7686 170.527 35.0107 170.472 35.3857 170.3L 35.3818 171.542z"/>
<path style="stroke:none; fill-rule:evenodd; fill:#000000" d="M 38.5811 166.769L 38.5811 173.765L 39.6787 173.765L 39.6787 170.148C 39.6787 169.152 39.9365 168.499 40.4834 168.117C 40.8389 167.867 41.1787 167.785 41.9756 167.773L 41.9756 166.617C 41.7842 166.593 41.6904 166.577 41.5381 166.577C 40.7998 166.577 40.2373 167.003 39.5772 168.046L 39.5772 166.781L 38.5811 166.769z"/>
<path style="stroke:none; fill-rule:evenodd; fill:#000000" d="M 47.5811 166.765L 47.5811 167.761C 47.0225 166.949 46.3428 166.566 45.4522 166.566C 43.6826 166.566 42.4834 168.113 42.4834 170.382C 42.4834 171.527 42.7881 172.46 43.3623 173.128C 43.8818 173.714 44.6279 174.062 45.3623 174.062C 46.2412 174.062 46.8545 173.691 47.4795 172.812L 47.4795 173.175C 47.4795 174.128 47.3623 174.71 47.0811 175.101C 46.7881 175.519 46.2139 175.757 45.5342 175.757C 45.0303 175.757 44.5732 175.624 44.2686 175.378C 44.0146 175.175 43.9092 174.988 43.8428 174.566L 42.71 174.566C 42.8272 175.878 43.8506 176.66 45.4834 176.66C 46.5186 176.66 47.4092 176.327 47.8584 175.769C 48.3857 175.132 48.5889 174.249 48.5889 172.609L 48.5889 166.765L 47.5811 166.765zM 45.5459 167.566C 46.7607 167.566 47.4795 168.589 47.4795 170.355C 47.4795 172.038 46.749 173.062 45.5576 173.062C 44.3272 173.062 43.5811 172.027 43.5811 170.316C 43.5811 168.62 44.3389 167.566 45.542 167.566L 45.5459 167.566z"/>
<path style="stroke:none; fill-rule:evenodd; fill:#000000" d="M 56.4834 170.667C 56.4834 169.593 56.4053 168.949 56.2061 168.425C 55.7568 167.273 54.6904 166.574 53.3857 166.574C 51.4443 166.574 50.1904 168.066 50.1904 170.363C 50.1904 172.656 51.3936 174.07 53.3428 174.07C 54.9326 174.07 56.0303 173.163 56.3115 171.64L 55.1865 171.64C 54.8818 172.577 54.249 173.07 53.3506 173.07C 52.6436 173.07 52.0381 172.753 51.6631 172.167C 51.3975 171.769 51.3037 171.37 51.2881 170.675L 56.4834 170.667zM 51.3076 169.722C 51.4014 168.425 52.1904 167.581 53.3154 167.581C 54.4131 167.581 55.2568 168.492 55.2568 169.644C 55.2568 169.667 55.2568 169.695 55.2451 169.722L 51.3076 169.722z"/>
<path style="stroke:none; fill-rule:evenodd; fill:#000000" d="M 60.3814 166.765L 59.1864 166.765L 59.1864 164.82L 58.0884 164.82L 58.0884 166.765L 57.1904 166.765L 57.1904 167.663L 58.0884 167.663L 58.0884 172.953C 58.0884 173.66 58.5774 174.058 59.4604 174.058C 59.7294 174.058 60.0034 174.035 60.3814 173.968L 60.3814 173.038C 60.2294 173.054 60.0494 173.058 59.8274 173.058C 59.3274 173.058 59.1864 172.925 59.1864 172.433L 59.1864 167.66L 60.3814 167.66L 60.3814 166.765z"/>
<path style="stroke:none; fill-rule:evenodd; fill:#000000" d="M 28.292 182.503C 28.2412 181.812 28.0928 181.363 27.8232 180.968C 27.3428 180.343 26.4951 179.968 25.5146 179.968C 23.624 179.968 22.3857 181.46 22.3857 183.785C 22.3857 186.038 23.5928 187.464 25.499 187.464C 27.1748 187.464 28.2373 186.464 28.374 184.753L 27.2295 184.753C 27.042 185.894 26.4561 186.464 25.4873 186.464C 24.2373 186.464 23.4873 185.456 23.4873 183.785C 23.4873 182.023 24.2217 180.968 25.46 180.968C 26.4131 180.968 27.0107 181.519 27.1475 182.503L 28.292 182.503z"/>
<path style="stroke:none; fill-rule:evenodd; fill:#000000" d="M 29.5811 177.367L 29.5811 187.163L 30.6787 187.163L 30.6787 183.32C 30.6787 181.898 31.4404 180.968 32.6084 180.968C 32.9717 180.968 33.3389 181.085 33.6123 181.285C 33.9365 181.507 34.0732 181.843 34.0732 182.335L 34.0732 187.163L 35.1709 187.163L 35.1709 181.878C 35.1709 180.706 34.3193 179.968 32.9443 179.968C 31.9443 179.968 31.3389 180.269 30.6748 181.109L 30.6748 177.367L 29.5811 177.367z"/>
<path style="stroke:none; fill-rule:evenodd; fill:#000000" d="M 43.3506 186.511C 43.2295 186.566 43.1748 186.566 43.1045 186.566C 42.7061 186.566 42.4873 186.367 42.4873 186.019L 42.4873 181.89C 42.4873 180.644 41.5811 179.972 39.8623 179.972C 38.8506 179.972 38.0107 180.261 37.542 180.781C 37.2256 181.136 37.0889 181.535 37.0654 182.226L 38.1865 182.226C 38.2764 181.363 38.7842 180.972 39.8272 180.972C 40.8272 180.972 41.3896 181.347 41.3896 182.015L 41.3896 182.308C 41.3896 182.777 41.1123 182.976 40.2373 183.081C 38.6748 183.281 38.4365 183.335 38.0107 183.507C 37.2022 183.839 36.792 184.472 36.792 185.382C 36.792 186.652 37.6709 187.456 39.0811 187.456C 39.96 187.456 40.6631 187.152 41.4482 186.437C 41.5264 187.14 41.874 187.456 42.5928 187.456C 42.8193 187.456 42.9912 187.433 43.3506 187.339L 43.3506 186.511zM 41.3818 184.945C 41.3818 185.312 41.2764 185.538 40.9404 185.843C 40.4873 186.253 39.9326 186.464 39.2725 186.464C 38.3975 186.464 37.8896 186.054 37.8896 185.355C 37.8896 184.628 38.3857 184.257 39.585 184.085C 40.7686 183.929 41.0107 183.874 41.3857 183.703L 41.3818 184.945z"/>
<path style="stroke:none; fill-rule:evenodd; fill:#000000" d="M 44.5811 180.167L 44.5811 187.163L 45.6787 187.163L 45.6787 183.32C 45.6787 181.898 46.417 180.968 47.5498 180.968C 48.417 180.968 48.9756 181.499 48.9756 182.335L 48.9756 187.163L 50.0732 187.163L 50.0732 181.878C 50.0732 180.718 49.2139 179.968 47.8779 179.968C 46.8467 179.968 46.1865 180.367 45.5772 181.343L 45.5772 180.171L 44.5811 180.167z"/>
<path style="stroke:none; fill-rule:evenodd; fill:#000000" d="M 56.5811 180.167L 56.5811 181.163C 56.0225 180.351 55.3428 179.968 54.4522 179.968C 52.6826 179.968 51.4834 181.515 51.4834 183.785C 51.4834 184.929 51.7881 185.863 52.3623 186.531C 52.8818 187.117 53.6279 187.464 54.3623 187.464C 55.2412 187.464 55.8545 187.093 56.4795 186.214L 56.4795 186.577C 56.4795 187.531 56.3623 188.113 56.0811 188.503C 55.7881 188.921 55.2139 189.16 54.5342 189.16C 54.0303 189.16 53.5732 189.027 53.2686 188.781C 53.0146 188.577 52.9092 188.39 52.8428 187.968L 51.71 187.968C 51.8272 189.281 52.8506 190.062 54.4834 190.062C 55.5186 190.062 56.4092 189.73 56.8584 189.171C 57.3854 188.535 57.5884 187.652 57.5884 186.011L 57.5884 180.167L 56.5811 180.167zM 54.5459 180.968C 55.7607 180.968 56.4795 181.992 56.4795 183.757C 56.4795 185.441 55.749 186.464 54.5576 186.464C 53.3272 186.464 52.5811 185.429 52.5811 183.718C 52.5811 182.023 53.3389 180.968 54.542 180.968L 54.5459 180.968z"/>
<path style="stroke:none; fill-rule:evenodd; fill:#000000" d="M 65.3814 184.066C 65.3814 182.992 65.3034 182.347 65.1044 181.824C 64.6554 180.671 63.5884 179.972 62.2844 179.972C 60.3424 179.972 59.0884 181.464 59.0884 183.761C 59.0884 186.054 60.2924 187.468 62.2414 187.468C 63.8314 187.468 64.9284 186.562 65.2104 185.038L 64.0854 185.038C 63.7804 185.976 63.1474 186.468 62.2494 186.468C 61.5424 186.468 60.9364 186.152 60.5614 185.566C 60.2954 185.167 60.2024 184.769 60.1864 184.074L 65.3814 184.066zM 60.2104 183.12C 60.3034 181.824 61.0924 180.98 62.2174 180.98C 63.3154 180.98 64.1594 181.89 64.1594 183.042C 64.1594 183.066 64.1594 183.093 64.1474 183.12L 60.2104 183.12z"/>
<path style="stroke:none; fill-rule:evenodd; fill:#000000" d="M 186.881 56.4684C 186.87 54.5744 185.585 53.4684 183.381 53.4684C 181.284 53.4684 179.987 54.5744 179.987 56.3554C 179.987 57.5544 180.612 58.3084 181.889 58.6484L 184.295 59.2924C 185.518 59.6134 186.081 60.1134 186.081 60.8824C 186.081 61.4064 185.799 61.9454 185.381 62.2424C 184.995 62.5114 184.374 62.6604 183.581 62.6604C 182.518 62.6604 181.792 62.3984 181.319 61.8124C 180.96 61.3704 180.795 60.8824 180.788 60.2534L 179.69 60.2534C 179.702 61.1484 179.874 61.7344 180.256 62.2694C 180.917 63.1754 182.03 63.6564 183.503 63.6564C 184.655 63.6564 185.596 63.3904 186.217 62.9064C 186.866 62.3864 187.28 61.5114 187.28 60.6674C 187.28 59.4644 186.534 58.5774 185.217 58.2144L 182.784 57.5584C 181.612 57.2384 181.186 56.8634 181.186 56.1134C 181.186 55.1204 182.049 54.4644 183.358 54.4644C 184.901 54.4644 185.768 55.1794 185.784 56.4644L 186.881 56.4684z"/>
<path style="stroke:none; fill-rule:evenodd; fill:#000000" d="M 191.381 56.3674L 190.186 56.3674L 190.186 54.4214L 189.088 54.4214L 189.088 56.3674L 188.19 56.3674L 188.19 57.2654L 189.088 57.2654L 189.088 62.5544C 189.088 63.2614 189.577 63.6604 190.46 63.6604C 190.729 63.6604 191.003 63.6364 191.381 63.5704L 191.381 62.6404C 191.229 62.6564 191.049 62.6604 190.827 62.6604C 190.327 62.6604 190.186 62.5274 190.186 62.0354L 190.186 57.2614L 191.381 57.2614L 191.381 56.3674z"/>
<path style="stroke:none; fill-rule:evenodd; fill:#000000" d="M 193.682 56.3674L 192.585 56.3674L 192.585 63.3674L 193.682 63.3674L 193.682 56.3674zM 193.682 53.5664L 192.585 53.5664L 192.585 55.0034L 193.682 55.0034L 193.682 53.5664z"/>
<path style="stroke:none; fill-rule:evenodd; fill:#000000" d="M 195.682 56.3704L 195.682 63.3674L 196.78 63.3674L 196.78 58.9924C 196.78 57.9844 197.503 57.1714 198.397 57.1714C 199.213 57.1714 199.674 57.6754 199.674 58.5664L 199.674 63.3674L 200.772 63.3674L 200.772 58.9924C 200.772 57.9844 201.522 57.1714 202.448 57.1714C 203.276 57.1714 203.768 57.6874 203.768 58.5664L 203.768 63.3674L 204.866 63.3674L 204.866 58.1204C 204.866 56.8674 204.147 56.1714 202.842 56.1714C 201.909 56.1714 201.35 56.4454 200.698 57.2184C 200.288 56.4844 199.725 56.1714 198.819 56.1714C 197.889 56.1714 197.276 56.5194 196.674 57.3594L 196.674 56.3744L 195.682 56.3704z"/>
<path style="stroke:none; fill-rule:evenodd; fill:#000000" d="M 212.28 63.3594L 212.28 56.3674L 211.182 56.3674L 211.182 60.3124C 211.182 61.7344 210.424 62.6634 209.249 62.6634C 208.358 62.6634 207.788 62.1364 207.788 61.2964L 207.788 56.3674L 206.69 56.3674L 206.69 61.7574C 206.69 62.9174 207.561 63.6634 208.932 63.6634C 209.967 63.6634 210.624 63.3044 211.284 62.3864L 211.284 63.3594L 212.28 63.3594z"/>
<path style="stroke:none; fill-rule:evenodd; fill:#000000" d="M 214.182 63.3674L 215.28 63.3674L 215.28 53.5704L 214.182 53.5704L 214.182 63.3674z"/>
<path style="stroke:none; fill-rule:evenodd; fill:#000000" d="M 218.182 56.3674L 217.085 56.3674L 217.085 63.3674L 218.182 63.3674L 218.182 56.3674zM 218.182 53.5664L 217.085 53.5664L 217.085 55.0034L 218.182 55.0034L 218.182 53.5664z"/>
<path style="stroke:#000000; stroke-width:1.9139600000000001; fill:none" d="M 198.139 75.8274L 198.139 255.738"/>
<path style="stroke:#000000; stroke-width:1.9139600000000001; fill:none" d="M 73.7334 181.097L 261.299 181.097"/>
<path style="stroke:#000000; stroke-width:3.8279200000000002; fill:none" d="M 75.5694 95.9724L 121.503 95.9724"/>
<path style="stroke:none; fill-rule:evenodd; fill:#9f9f9f" d="M 81.3074 28.0814L 115.756 28.0814L 115.756 64.4454L 104.276 64.4454L 104.276 54.8784L 92.7954 54.8784L 92.7954 64.4454L 81.3154 64.4454"/>
<path style="stroke:#9f9f9f; stroke-width:1.9139600000000001; fill:none" d="M 81.3074 28.0814L 115.756 28.0814L 115.756 64.4454L 104.276 64.4454L 104.276 54.8784L 92.7954 54.8784L 92.7954 64.4454L 81.3154 64.4454L 81.3074 28.0814z"/>
<path style="stroke:none; fill-rule:evenodd; fill:#9f9f9f" d="M 60.2564 64.4494L 39.2061 26.1714L 20.0693 64.4494"/>
<path style="stroke:#9f9f9f; stroke-width:1.9139600000000001; fill:none" d="M 60.2564 64.4494L 39.2061 26.1714L 20.0693 64.4494L 60.2564 64.4494z"/>
<path style="stroke:#000000; stroke-width:3.8279200000000002; fill:none" d="M 20.0615 118.937L 62.1674 76.8314"/>
<path style="stroke:#000000; stroke-width:3.8279200000000002; fill:none" d="M 62.1714 118.937L 20.0654 76.8314"/>
<path style="stroke:none; fill-rule:evenodd; fill:#000000" d="M 26.0811 11.5664L 28.7217 11.5664C 29.3779 11.5664 29.8975 11.3744 30.3467 10.9724C 30.8545 10.5194 31.0732 9.98038 31.0732 9.21439C 31.0732 7.65237 30.1357 6.76938 28.4639 6.76938L 24.9756 6.76938L 24.9756 15.1674L 26.0732 15.1674L 26.0811 11.5664zM 26.0811 10.6674L 26.0811 7.67139L 28.3311 7.67139C 29.3623 7.67139 29.9795 8.23038 29.9795 9.17139C 29.9795 10.1054 29.3662 10.6714 28.3311 10.6714L 26.0811 10.6674z"/>
<path style="stroke:none; fill-rule:evenodd; fill:#000000" d="M 32.3818 9.14038L 32.3818 15.1634L 33.3818 15.1634L 33.3818 12.0314C 33.3818 11.1674 33.5928 10.6054 34.042 10.2694C 34.3311 10.0504 34.6123 9.98438 35.2646 9.97238L 35.2646 9.00739C 35.1084 8.98837 35.0264 8.97638 34.9014 8.97638C 34.292 8.97638 33.8272 9.34338 33.2803 10.2424L 33.2803 9.15237L 32.3818 9.14038z"/>
<path style="stroke:none; fill-rule:evenodd; fill:#000000" d="M 41.3818 12.4684C 41.3818 11.5504 41.3154 10.9994 41.1436 10.5544C 40.7568 9.57037 39.8428 8.97238 38.7256 8.97238C 37.0615 8.97238 35.9873 10.2654 35.9873 12.2534C 35.9873 14.2424 37.0225 15.4684 38.6982 15.4684C 40.0615 15.4684 41.0107 14.6754 41.249 13.3434L 40.2959 13.3434C 40.0342 14.1484 39.5029 14.5664 38.7412 14.5664C 38.1396 14.5664 37.6279 14.2884 37.3115 13.7734C 37.085 13.4254 37.0068 13.0744 36.9951 12.4684L 41.3818 12.4684zM 36.9639 11.6994C 37.042 10.5854 37.7217 9.86337 38.6865 9.86337C 39.6279 9.86337 40.3506 10.6404 40.3506 11.6284C 40.3506 11.6484 40.3506 11.6714 40.3428 11.6954L 36.9639 11.6994z"/>
<path style="stroke:none; fill-rule:evenodd; fill:#000000" d="M 45.1553 15.1674L 47.46 9.16739L 46.3818 9.16739L 44.6826 14.0314L 43.0772 9.16739L 41.999 9.16739L 44.1084 15.1674L 45.1553 15.1674z"/>
<path style="stroke:none; fill-rule:evenodd; fill:#000000" d="M 49.2803 9.16739L 48.2803 9.16739L 48.2803 15.1674L 49.2803 15.1674L 49.2803 9.16739zM 49.2803 6.76538L 48.2803 6.76538L 48.2803 7.99539L 49.2803 7.99539L 49.2803 6.76538z"/>
<path style="stroke:none; fill-rule:evenodd; fill:#000000" d="M 53.2178 8.96838C 51.5146 8.96838 50.4834 10.1794 50.4834 12.2184C 50.4834 14.2494 51.5029 15.4684 53.2334 15.4684C 54.9365 15.4684 55.9834 14.2574 55.9834 12.2654C 55.9834 10.1754 54.9756 8.97238 53.2217 8.97238L 53.2178 8.96838zM 53.2334 9.86737C 54.3272 9.86737 54.9834 10.7534 54.9834 12.2494C 54.9834 13.6634 54.3076 14.5624 53.2334 14.5624C 52.1514 14.5624 51.4873 13.6754 51.4873 12.2144C 51.4873 10.7654 52.1514 9.86737 53.2334 9.86737z"/>
<path style="stroke:none; fill-rule:evenodd; fill:#000000" d="M 62.0814 15.2034L 62.0814 9.16739L 61.0814 9.16739L 61.0814 12.6134C 61.0814 13.8514 60.4364 14.6634 59.4324 14.6634C 58.6714 14.6634 58.1864 14.2034 58.1864 13.4724L 58.1864 9.16739L 57.1864 9.16739L 57.1864 13.8204C 57.1864 14.8204 57.9444 15.4644 59.1354 15.4644C 60.0344 15.4644 60.6084 15.1564 61.1784 14.3634L 61.1784 15.2034L 62.0814 15.2034z"/>
<path style="stroke:none; fill-rule:evenodd; fill:#000000" d="M 67.9134 10.8274C 67.9014 9.64038 67.1164 8.97238 65.7134 8.97238C 64.3034 8.97238 63.3854 9.69937 63.3854 10.8164C 63.3854 11.7614 63.8744 12.2104 65.3234 12.5584L 66.2334 12.7774C 66.9094 12.9374 67.1784 13.1794 67.1784 13.6174C 67.1784 14.1794 66.6124 14.5624 65.7684 14.5624C 65.2494 14.5624 64.8114 14.4134 64.5694 14.1564C 64.4214 13.9844 64.3504 13.8084 64.2954 13.3744L 63.2804 13.3744C 63.3234 14.7854 64.1084 15.4644 65.6904 15.4644C 67.2134 15.4644 68.1824 14.7144 68.1824 13.5504C 68.1824 12.6524 67.6714 12.1564 66.4564 11.8674L 65.5224 11.6484C 64.7294 11.4644 64.3894 11.2104 64.3894 10.7854C 64.3894 10.2344 64.8854 9.87439 65.6744 9.87439C 66.4524 9.87439 66.8704 10.2034 66.8934 10.8314L 67.9134 10.8274z"/>
<path style="stroke:none; fill-rule:evenodd; fill:#000000" d="M 78.6824 9.25339C 78.6714 7.62039 77.5534 6.66739 75.6394 6.66739C 73.8154 6.66739 72.6864 7.61737 72.6864 9.14438C 72.6864 10.1714 73.2174 10.8204 74.3074 11.1134L 76.3624 11.6674C 77.4054 11.9454 77.8814 12.3704 77.8814 13.0314C 77.8814 13.4804 77.6474 13.9454 77.2954 14.1994C 76.9674 14.4294 76.4484 14.5544 75.7804 14.5544C 74.8894 14.5544 74.2764 14.3274 73.8814 13.8274C 73.5774 13.4494 73.4444 13.0314 73.4914 12.4924L 72.4914 12.4924C 72.4994 13.2694 72.6474 13.7814 72.9754 14.2454C 73.5424 15.0354 74.4954 15.4534 75.7534 15.4534C 76.7374 15.4534 77.5424 15.2264 78.0774 14.8084C 78.6314 14.3634 78.9834 13.6134 78.9834 12.8864C 78.9834 11.8514 78.3504 11.0934 77.2254 10.7814L 75.1514 10.2184C 74.1554 9.94537 73.7924 9.62039 73.7924 8.97638C 73.7924 8.12439 74.5224 7.56238 75.6314 7.56238C 76.9404 7.56238 77.6744 8.16339 77.6864 9.24539L 78.6824 9.25339z"/>
<path style="stroke:none; fill-rule:evenodd; fill:#000000" d="M 82.3814 9.16739L 81.4834 9.16739L 81.4834 7.49939L 80.4834 7.49939L 80.4834 9.16739L 79.5854 9.16739L 79.5854 9.96439L 80.4834 9.96439L 80.4834 14.5114C 80.4834 15.1174 80.8854 15.4604 81.6164 15.4604C 81.8384 15.4604 82.0654 15.4374 82.3784 15.3784L 82.3784 14.5424C 82.2644 14.6324 82.1284 14.6604 81.9604 14.6604C 81.5854 14.6604 81.4794 14.5464 81.4794 14.1174L 81.4794 9.96439L 82.3784 9.96439L 82.3814 9.16739z"/>
<path style="stroke:none; fill-rule:evenodd; fill:#000000" d="M 84.3814 9.16739L 83.3814 9.16739L 83.3814 15.1674L 84.3814 15.1674L 84.3814 9.16739zM 84.3814 6.76538L 83.3814 6.76538L 83.3814 7.99539L 84.3814 7.99539L 84.3814 6.76538z"/>
<path style="stroke:none; fill-rule:evenodd; fill:#000000" d="M 86.0814 9.14038L 86.0814 15.1634L 87.0814 15.1634L 87.0814 11.3554C 87.0814 10.4764 87.7064 9.76938 88.4754 9.76938C 89.1784 9.76938 89.5774 10.2064 89.5774 10.9844L 89.5774 15.1634L 90.5774 15.1634L 90.5774 11.3554C 90.5774 10.4764 91.2024 9.76938 91.9714 9.76938C 92.6634 9.76938 93.0734 10.2184 93.0734 10.9844L 93.0734 15.1634L 94.0734 15.1634L 94.0734 10.6444C 94.0734 9.56638 93.4524 8.96439 92.3194 8.96439C 91.5144 8.96439 91.0264 9.20639 90.4634 9.89038C 90.1084 9.24237 89.6244 8.96439 88.8384 8.96439C 88.0344 8.96439 87.5034 9.26138 86.9834 9.98837L 86.9834 9.14038L 86.0814 9.14038z"/>
<path style="stroke:none; fill-rule:evenodd; fill:#000000" d="M 100.381 15.2034L 100.381 9.16739L 99.3814 9.16739L 99.3814 12.6134C 99.3814 13.8514 98.7374 14.6634 97.7334 14.6634C 96.9714 14.6634 96.4874 14.2034 96.4874 13.4724L 96.4874 9.16739L 95.4874 9.16739L 95.4874 13.8204C 95.4874 14.8204 96.2454 15.4644 97.4364 15.4644C 98.3354 15.4644 98.9094 15.1564 99.4794 14.3634L 99.4794 15.2034L 100.381 15.2034z"/>
<path style="stroke:none; fill-rule:evenodd; fill:#000000" d="M 101.983 15.1674L 102.983 15.1674L 102.983 6.76938L 101.983 6.76938L 101.983 15.1674z"/>
<path style="stroke:none; fill-rule:evenodd; fill:#000000" d="M 105.483 9.16739L 104.483 9.16739L 104.483 15.1674L 105.483 15.1674L 105.483 9.16739zM 105.483 6.76538L 104.483 6.76538L 104.483 7.99539L 105.483 7.99539L 105.483 6.76538z"/>
<path style="stroke:#000000; stroke-dasharray:6,3; stroke-width:1.9139600000000001; fill:none" d="M 16.3154 70.0854L 66.0774 70.0854L 66.0774 22.2384L 16.3154 22.2384L 16.3154 70.0854z"/>
<path style="stroke:#000000; stroke-width:0.95698000000000005; fill:none" d="M 10.5732 123.679L 125.409 123.679L 125.409 5.01538L 10.5732 5.01538L 10.5732 123.679z"/>
</g>
</svg>