<?xml version="1.0" encoding="UTF-8" standalone="no"?>
<!-- Created with Inkscape (http://www.inkscape.org/) -->

<svg
   xmlns:dc="http://purl.org/dc/elements/1.1/"
   xmlns:cc="http://creativecommons.org/ns#"
   xmlns:rdf="http://www.w3.org/1999/02/22-rdf-syntax-ns#"
   xmlns:svg="http://www.w3.org/2000/svg"
   xmlns="http://www.w3.org/2000/svg"
   xmlns:sodipodi="http://sodipodi.sourceforge.net/DTD/sodipodi-0.dtd"
   xmlns:inkscape="http://www.inkscape.org/namespaces/inkscape"
   id="svg3326"
   version="1.1"
   inkscape:version="0.47 r22583"
   width="673.75"
   height="673.75"
   xml:space="preserve"
   sodipodi:docname="fig_sg_sent_clust.svg"
   inkscape:export-filename="/Users/oreilly/svn_docs/figs/fig_sg_sent_clust.png"
   inkscape:export-xdpi="150"
   inkscape:export-ydpi="150"><metadata
     id="metadata3332"><rdf:RDF><cc:Work
         rdf:about=""><dc:format>image/svg+xml</dc:format><dc:type
           rdf:resource="http://purl.org/dc/dcmitype/StillImage" /><dc:title></dc:title></cc:Work></rdf:RDF></metadata><defs
     id="defs3330"><inkscape:perspective
       sodipodi:type="inkscape:persp3d"
       inkscape:vp_x="0 : 0.5 : 1"
       inkscape:vp_y="0 : 1000 : 0"
       inkscape:vp_z="1 : 0.5 : 1"
       inkscape:persp3d-origin="0.5 : 0.33333333 : 1"
       id="perspective3334" /></defs><sodipodi:namedview
     pagecolor="#ffffff"
     bordercolor="#666666"
     borderopacity="1"
     objecttolerance="10"
     gridtolerance="10"
     guidetolerance="10"
     inkscape:pageopacity="0"
     inkscape:pageshadow="2"
     inkscape:window-width="640"
     inkscape:window-height="480"
     id="namedview3328"
     showgrid="false"
     inkscape:zoom="0.70055659"
     inkscape:cx="439.93117"
     inkscape:cy="268.36279"
     inkscape:current-layer="g3336" /><g
     id="g3336"
     inkscape:groupmode="layer"
     inkscape:label="fig_sg_sent_clust"
     transform="matrix(1.25,0,0,-1.25,0,673.75)"><rect
       style="fill:#ffffff;fill-opacity:1;fill-rule:nonzero;stroke:#ffffff;stroke-width:1;stroke-miterlimit:4;stroke-opacity:1;stroke-dasharray:none;stroke-dashoffset:0"
       id="rect3718"
       width="735.12976"
       height="699.44385"
       x="-8.5646191"
       y="-5.7097459"
       transform="matrix(0.8,0,0,-0.8,0,539)" /><g
       id="g3338"
       transform="scale(0.1,0.1)"><g
         id="g3340"
         transform="scale(10,10)"><text
           transform="matrix(1,0,0,-1,192.791,518.976)"
           id="text3342"><tspan
             style="fill:#000000;fill-opacity:1;fill-rule:nonzero;stroke:none;font-family:Times;font-variant:normal;font-weight:bold;font-size:18;writing-mode:lr;-inkscape-font-specification:Times-Bold"
             x="0 10.008 24.012 28.512 42.516 50.508 57.51 63.504 72.504 77.508 83.502 88.002 99 108 113.994 119.988 127.98 135.972 145.98"
             y="0"
             sodipodi:role="line"
             id="tspan3344">SG Gestalt Patterns</tspan></text>
</g><path
         d="m 5286.6,4791.6 0,0"
         style="fill:none;stroke:#000000;stroke-opacity:1;stroke-width:8.4;stroke-linecap:butt;stroke-linejoin:miter;stroke-miterlimit:10;stroke-dasharray:none"
         id="path3346" /><g
         id="g3348"
         transform="scale(10,10)"><text
           transform="matrix(1,0,0,-1,5.4,497.592)"
           id="text3350"><tspan
             style="fill:#000000;fill-opacity:1;fill-rule:nonzero;stroke:none;font-family:Times;font-variant:normal;font-weight:normal;font-size:18;writing-mode:lr;-inkscape-font-specification:Times-Roman"
             x="0"
             y="0"
             id="tspan3352">Y</tspan><tspan
             style="fill:#000000;fill-opacity:1;fill-rule:nonzero;stroke:none;font-family:Times;font-variant:normal;font-weight:normal;font-size:18;writing-mode:lr;-inkscape-font-specification:Times-Roman"
             x="514.764"
             y="474.75"
             id="tspan3354">X</tspan><tspan
             style="fill:#000000;fill-opacity:1;fill-rule:nonzero;stroke:none;font-family:Times;font-variant:normal;font-weight:normal;font-size:18;writing-mode:lr;-inkscape-font-specification:Times-Roman"
             x="37.801 46.801 51.301 60.301"
             y="467.96992"
             sodipodi:role="line"
             id="tspan3356">0.00</tspan><tspan
             style="fill:#000000;fill-opacity:1;fill-rule:nonzero;stroke:none;font-family:Times;font-variant:normal;font-weight:normal;font-size:18;writing-mode:lr;-inkscape-font-specification:Times-Roman"
             x="37.801 46.801 51.301 60.301"
             y="440.78982"
             sodipodi:role="line"
             id="tspan3358">1.00</tspan><tspan
             style="fill:#000000;fill-opacity:1;fill-rule:nonzero;stroke:none;font-family:Times;font-variant:normal;font-weight:normal;font-size:18;writing-mode:lr;-inkscape-font-specification:Times-Roman"
             x="37.801 46.801 51.301 60.301"
             y="413.60972"
             sodipodi:role="line"
             id="tspan3360">2.00</tspan><tspan
             style="fill:#000000;fill-opacity:1;fill-rule:nonzero;stroke:none;font-family:Times;font-variant:normal;font-weight:normal;font-size:18;writing-mode:lr;-inkscape-font-specification:Times-Roman"
             x="37.801 46.801 51.301 60.301"
             y="386.36992"
             sodipodi:role="line"
             id="tspan3362">3.00</tspan><tspan
             style="fill:#000000;fill-opacity:1;fill-rule:nonzero;stroke:none;font-family:Times;font-variant:normal;font-weight:normal;font-size:18;writing-mode:lr;-inkscape-font-specification:Times-Roman"
             x="37.801 46.801 51.301 60.301"
             y="359.18982"
             sodipodi:role="line"
             id="tspan3364">4.00</tspan><tspan
             style="fill:#000000;fill-opacity:1;fill-rule:nonzero;stroke:none;font-family:Times;font-variant:normal;font-weight:normal;font-size:18;writing-mode:lr;-inkscape-font-specification:Times-Roman"
             x="37.801 46.801 51.301 60.301"
             y="332.00972"
             sodipodi:role="line"
             id="tspan3366">5.00</tspan><tspan
             style="fill:#000000;fill-opacity:1;fill-rule:nonzero;stroke:none;font-family:Times;font-variant:normal;font-weight:normal;font-size:18;writing-mode:lr;-inkscape-font-specification:Times-Roman"
             x="37.801 46.801 51.301 60.301"
             y="304.82962"
             sodipodi:role="line"
             id="tspan3368">6.00</tspan><tspan
             style="fill:#000000;fill-opacity:1;fill-rule:nonzero;stroke:none;font-family:Times;font-variant:normal;font-weight:normal;font-size:18;writing-mode:lr;-inkscape-font-specification:Times-Roman"
             x="37.801 46.801 51.301 60.301"
             y="277.64952"
             sodipodi:role="line"
             id="tspan3370">7.00</tspan><tspan
             style="fill:#000000;fill-opacity:1;fill-rule:nonzero;stroke:none;font-family:Times;font-variant:normal;font-weight:normal;font-size:18;writing-mode:lr;-inkscape-font-specification:Times-Roman"
             x="37.801 46.801 51.301 60.301"
             y="250.46982"
             sodipodi:role="line"
             id="tspan3372">8.00</tspan><tspan
             style="fill:#000000;fill-opacity:1;fill-rule:nonzero;stroke:none;font-family:Times;font-variant:normal;font-weight:normal;font-size:18;writing-mode:lr;-inkscape-font-specification:Times-Roman"
             x="37.801 46.801 51.301 60.301"
             y="223.28972"
             sodipodi:role="line"
             id="tspan3374">9.00</tspan><tspan
             style="fill:#000000;fill-opacity:1;fill-rule:nonzero;stroke:none;font-family:Times;font-variant:normal;font-weight:normal;font-size:18;writing-mode:lr;-inkscape-font-specification:Times-Roman"
             x="28.801 37.801 46.801 51.301 60.301"
             y="196.10962"
             sodipodi:role="line"
             id="tspan3376">10.00</tspan><tspan
             style="fill:#000000;fill-opacity:1;fill-rule:nonzero;stroke:none;font-family:Times;font-variant:normal;font-weight:normal;font-size:18;writing-mode:lr;-inkscape-font-specification:Times-Roman"
             x="28.801 37.801 46.801 51.301 60.301"
             y="168.92952"
             sodipodi:role="line"
             id="tspan3378">11.00</tspan><tspan
             style="fill:#000000;fill-opacity:1;fill-rule:nonzero;stroke:none;font-family:Times;font-variant:normal;font-weight:normal;font-size:18;writing-mode:lr;-inkscape-font-specification:Times-Roman"
             x="28.801 37.801 46.801 51.301 60.301"
             y="141.74982"
             sodipodi:role="line"
             id="tspan3380">12.00</tspan><tspan
             style="fill:#000000;fill-opacity:1;fill-rule:nonzero;stroke:none;font-family:Times;font-variant:normal;font-weight:normal;font-size:18;writing-mode:lr;-inkscape-font-specification:Times-Roman"
             x="28.801 37.801 46.801 51.301 60.301"
             y="114.56972"
             sodipodi:role="line"
             id="tspan3382">13.00</tspan><tspan
             style="fill:#000000;fill-opacity:1;fill-rule:nonzero;stroke:none;font-family:Times;font-variant:normal;font-weight:normal;font-size:18;writing-mode:lr;-inkscape-font-specification:Times-Roman"
             x="28.801 37.801 46.801 51.301 60.301"
             y="87.32952"
             sodipodi:role="line"
             id="tspan3384">14.00</tspan><tspan
             style="fill:#000000;fill-opacity:1;fill-rule:nonzero;stroke:none;font-family:Times;font-variant:normal;font-weight:normal;font-size:18;writing-mode:lr;-inkscape-font-specification:Times-Roman"
             x="28.801 37.801 46.801 51.301 60.301"
             y="60.14982"
             sodipodi:role="line"
             id="tspan3386">15.00</tspan><tspan
             style="fill:#000000;fill-opacity:1;fill-rule:nonzero;stroke:none;font-family:Times;font-variant:normal;font-weight:normal;font-size:18;writing-mode:lr;-inkscape-font-specification:Times-Roman"
             x="28.801 37.801 46.801 51.301 60.301"
             y="32.96972"
             sodipodi:role="line"
             id="tspan3388">16.00</tspan><tspan
             style="fill:#000000;fill-opacity:1;fill-rule:nonzero;stroke:none;font-family:Times;font-variant:normal;font-weight:normal;font-size:18;writing-mode:lr;-inkscape-font-specification:Times-Roman"
             x="83.7299 92.7299 97.2299 106.2299 175.94984 184.94984 189.44984 198.44984 268.2299 277.2299 281.7299 290.7299 360.50996 369.50996 374.00996 383.00996 452.78966 461.78966 466.28966 475.28966"
             y="491.93972"
             sodipodi:role="line"
             id="tspan3390">0.002.004.006.008.00</tspan></text>
</g><path
         d="m 801,355.801 90,0"
         style="fill:none;stroke:#000000;stroke-opacity:1;stroke-width:4.8;stroke-linecap:butt;stroke-linejoin:miter;stroke-miterlimit:10;stroke-dasharray:none"
         id="path3392" /><path
         d="m 5142.6,355.801 90,0"
         style="fill:none;stroke:#000000;stroke-opacity:1;stroke-width:4.8;stroke-linecap:butt;stroke-linejoin:miter;stroke-miterlimit:10;stroke-dasharray:none"
         id="path3394" /><path
         d="m 801,627.602 90,0"
         style="fill:none;stroke:#000000;stroke-opacity:1;stroke-width:1.2;stroke-linecap:butt;stroke-linejoin:miter;stroke-miterlimit:10;stroke-dasharray:none"
         id="path3396" /><path
         d="m 5142.6,627.602 90,0"
         style="fill:none;stroke:#000000;stroke-opacity:1;stroke-width:1.2;stroke-linecap:butt;stroke-linejoin:miter;stroke-miterlimit:10;stroke-dasharray:none"
         id="path3398" /><path
         d="m 801,899.398 90,0"
         style="fill:none;stroke:#000000;stroke-opacity:1;stroke-width:1.2;stroke-linecap:butt;stroke-linejoin:miter;stroke-miterlimit:10;stroke-dasharray:none"
         id="path3400" /><path
         d="m 5142.6,899.398 90,0"
         style="fill:none;stroke:#000000;stroke-opacity:1;stroke-width:1.2;stroke-linecap:butt;stroke-linejoin:miter;stroke-miterlimit:10;stroke-dasharray:none"
         id="path3402" /><path
         d="m 801,1171.8 90,0"
         style="fill:none;stroke:#000000;stroke-opacity:1;stroke-width:1.2;stroke-linecap:butt;stroke-linejoin:miter;stroke-miterlimit:10;stroke-dasharray:none"
         id="path3404" /><path
         d="m 5142.6,1171.8 90,0"
         style="fill:none;stroke:#000000;stroke-opacity:1;stroke-width:1.2;stroke-linecap:butt;stroke-linejoin:miter;stroke-miterlimit:10;stroke-dasharray:none"
         id="path3406" /><path
         d="m 801,1443.6 90,0"
         style="fill:none;stroke:#000000;stroke-opacity:1;stroke-width:1.2;stroke-linecap:butt;stroke-linejoin:miter;stroke-miterlimit:10;stroke-dasharray:none"
         id="path3408" /><path
         d="m 5142.6,1443.6 90,0"
         style="fill:none;stroke:#000000;stroke-opacity:1;stroke-width:1.2;stroke-linecap:butt;stroke-linejoin:miter;stroke-miterlimit:10;stroke-dasharray:none"
         id="path3410" /><path
         d="m 801,1715.4 90,0"
         style="fill:none;stroke:#000000;stroke-opacity:1;stroke-width:1.2;stroke-linecap:butt;stroke-linejoin:miter;stroke-miterlimit:10;stroke-dasharray:none"
         id="path3412" /><path
         d="m 5142.6,1715.4 90,0"
         style="fill:none;stroke:#000000;stroke-opacity:1;stroke-width:1.2;stroke-linecap:butt;stroke-linejoin:miter;stroke-miterlimit:10;stroke-dasharray:none"
         id="path3414" /><path
         d="m 801,1987.2 90,0"
         style="fill:none;stroke:#000000;stroke-opacity:1;stroke-width:1.2;stroke-linecap:butt;stroke-linejoin:miter;stroke-miterlimit:10;stroke-dasharray:none"
         id="path3416" /><path
         d="m 5142.6,1987.2 90,0"
         style="fill:none;stroke:#000000;stroke-opacity:1;stroke-width:1.2;stroke-linecap:butt;stroke-linejoin:miter;stroke-miterlimit:10;stroke-dasharray:none"
         id="path3418" /><path
         d="m 801,2259 90,0"
         style="fill:none;stroke:#000000;stroke-opacity:1;stroke-width:1.2;stroke-linecap:butt;stroke-linejoin:miter;stroke-miterlimit:10;stroke-dasharray:none"
         id="path3420" /><path
         d="m 5142.6,2259 90,0"
         style="fill:none;stroke:#000000;stroke-opacity:1;stroke-width:1.2;stroke-linecap:butt;stroke-linejoin:miter;stroke-miterlimit:10;stroke-dasharray:none"
         id="path3422" /><path
         d="m 801,2530.8 90,0"
         style="fill:none;stroke:#000000;stroke-opacity:1;stroke-width:1.2;stroke-linecap:butt;stroke-linejoin:miter;stroke-miterlimit:10;stroke-dasharray:none"
         id="path3424" /><path
         d="m 5142.6,2530.8 90,0"
         style="fill:none;stroke:#000000;stroke-opacity:1;stroke-width:1.2;stroke-linecap:butt;stroke-linejoin:miter;stroke-miterlimit:10;stroke-dasharray:none"
         id="path3426" /><path
         d="m 801,2802.6 90,0"
         style="fill:none;stroke:#000000;stroke-opacity:1;stroke-width:1.2;stroke-linecap:butt;stroke-linejoin:miter;stroke-miterlimit:10;stroke-dasharray:none"
         id="path3428" /><path
         d="m 5142.6,2802.6 90,0"
         style="fill:none;stroke:#000000;stroke-opacity:1;stroke-width:1.2;stroke-linecap:butt;stroke-linejoin:miter;stroke-miterlimit:10;stroke-dasharray:none"
         id="path3430" /><path
         d="m 801,3074.4 90,0"
         style="fill:none;stroke:#000000;stroke-opacity:1;stroke-width:1.2;stroke-linecap:butt;stroke-linejoin:miter;stroke-miterlimit:10;stroke-dasharray:none"
         id="path3432" /><path
         d="m 5142.6,3074.4 90,0"
         style="fill:none;stroke:#000000;stroke-opacity:1;stroke-width:1.2;stroke-linecap:butt;stroke-linejoin:miter;stroke-miterlimit:10;stroke-dasharray:none"
         id="path3434" /><path
         d="m 801,3346.2 90,0"
         style="fill:none;stroke:#000000;stroke-opacity:1;stroke-width:1.2;stroke-linecap:butt;stroke-linejoin:miter;stroke-miterlimit:10;stroke-dasharray:none"
         id="path3436" /><path
         d="m 5142.6,3346.2 90,0"
         style="fill:none;stroke:#000000;stroke-opacity:1;stroke-width:1.2;stroke-linecap:butt;stroke-linejoin:miter;stroke-miterlimit:10;stroke-dasharray:none"
         id="path3438" /><path
         d="m 801,3618 90,0"
         style="fill:none;stroke:#000000;stroke-opacity:1;stroke-width:1.2;stroke-linecap:butt;stroke-linejoin:miter;stroke-miterlimit:10;stroke-dasharray:none"
         id="path3440" /><path
         d="m 5142.6,3618 90,0"
         style="fill:none;stroke:#000000;stroke-opacity:1;stroke-width:1.2;stroke-linecap:butt;stroke-linejoin:miter;stroke-miterlimit:10;stroke-dasharray:none"
         id="path3442" /><path
         d="m 801,3889.8 90,0"
         style="fill:none;stroke:#000000;stroke-opacity:1;stroke-width:1.2;stroke-linecap:butt;stroke-linejoin:miter;stroke-miterlimit:10;stroke-dasharray:none"
         id="path3444" /><path
         d="m 5142.6,3889.8 90,0"
         style="fill:none;stroke:#000000;stroke-opacity:1;stroke-width:1.2;stroke-linecap:butt;stroke-linejoin:miter;stroke-miterlimit:10;stroke-dasharray:none"
         id="path3446" /><path
         d="m 801,4162.2 90,0"
         style="fill:none;stroke:#000000;stroke-opacity:1;stroke-width:1.2;stroke-linecap:butt;stroke-linejoin:miter;stroke-miterlimit:10;stroke-dasharray:none"
         id="path3448" /><path
         d="m 5142.6,4162.2 90,0"
         style="fill:none;stroke:#000000;stroke-opacity:1;stroke-width:1.2;stroke-linecap:butt;stroke-linejoin:miter;stroke-miterlimit:10;stroke-dasharray:none"
         id="path3450" /><path
         d="m 801,4434 90,0"
         style="fill:none;stroke:#000000;stroke-opacity:1;stroke-width:1.2;stroke-linecap:butt;stroke-linejoin:miter;stroke-miterlimit:10;stroke-dasharray:none"
         id="path3452" /><path
         d="m 5142.6,4434 90,0"
         style="fill:none;stroke:#000000;stroke-opacity:1;stroke-width:1.2;stroke-linecap:butt;stroke-linejoin:miter;stroke-miterlimit:10;stroke-dasharray:none"
         id="path3454" /><path
         d="m 801,4705.8 90,0"
         style="fill:none;stroke:#000000;stroke-opacity:1;stroke-width:1.2;stroke-linecap:butt;stroke-linejoin:miter;stroke-miterlimit:10;stroke-dasharray:none"
         id="path3456" /><path
         d="m 5142.6,4705.8 90,0"
         style="fill:none;stroke:#000000;stroke-opacity:1;stroke-width:1.2;stroke-linecap:butt;stroke-linejoin:miter;stroke-miterlimit:10;stroke-dasharray:none"
         id="path3458" /><path
         d="m 1048.8,4773.6 0,-90"
         style="fill:none;stroke:#000000;stroke-opacity:1;stroke-width:4.8;stroke-linecap:butt;stroke-linejoin:miter;stroke-miterlimit:10;stroke-dasharray:none"
         id="path3460" /><path
         d="m 1048.8,378 0,-90"
         style="fill:none;stroke:#000000;stroke-opacity:1;stroke-width:4.8;stroke-linecap:butt;stroke-linejoin:miter;stroke-miterlimit:10;stroke-dasharray:none"
         id="path3462" /><path
         d="m 1971,4773.6 0,-90"
         style="fill:none;stroke:#000000;stroke-opacity:1;stroke-width:1.2;stroke-linecap:butt;stroke-linejoin:miter;stroke-miterlimit:10;stroke-dasharray:none"
         id="path3464" /><path
         d="m 1971,378 0,-90"
         style="fill:none;stroke:#000000;stroke-opacity:1;stroke-width:1.2;stroke-linecap:butt;stroke-linejoin:miter;stroke-miterlimit:10;stroke-dasharray:none"
         id="path3466" /><path
         d="m 2893.8,4773.6 0,-90"
         style="fill:none;stroke:#000000;stroke-opacity:1;stroke-width:1.2;stroke-linecap:butt;stroke-linejoin:miter;stroke-miterlimit:10;stroke-dasharray:none"
         id="path3468" /><path
         d="m 2893.8,378 0,-90"
         style="fill:none;stroke:#000000;stroke-opacity:1;stroke-width:1.2;stroke-linecap:butt;stroke-linejoin:miter;stroke-miterlimit:10;stroke-dasharray:none"
         id="path3470" /><path
         d="m 3816.6,4773.6 0,-90"
         style="fill:none;stroke:#000000;stroke-opacity:1;stroke-width:1.2;stroke-linecap:butt;stroke-linejoin:miter;stroke-miterlimit:10;stroke-dasharray:none"
         id="path3472" /><path
         d="m 3816.6,378 0,-90"
         style="fill:none;stroke:#000000;stroke-opacity:1;stroke-width:1.2;stroke-linecap:butt;stroke-linejoin:miter;stroke-miterlimit:10;stroke-dasharray:none"
         id="path3474" /><path
         d="m 4739.4,4773.6 0,-90"
         style="fill:none;stroke:#000000;stroke-opacity:1;stroke-width:1.2;stroke-linecap:butt;stroke-linejoin:miter;stroke-miterlimit:10;stroke-dasharray:none"
         id="path3476" /><path
         d="m 4739.4,378 0,-90"
         style="fill:none;stroke:#000000;stroke-opacity:1;stroke-width:1.2;stroke-linecap:butt;stroke-linejoin:miter;stroke-miterlimit:10;stroke-dasharray:none"
         id="path3478" /><g
         id="g3480"
         transform="scale(10,10)"><text
           transform="matrix(1,0,0,-1,399.06,49.452)"
           id="text3482"><tspan
             style="fill:#000000;fill-opacity:1;fill-rule:nonzero;stroke:none;font-family:Times;font-variant:normal;font-weight:normal;font-size:18;writing-mode:lr;-inkscape-font-specification:Times-Roman"
             x="0 7.002 14.994 23.994 31.986 36.99 45.99 52.992 61.992"
             y="0"
             sodipodi:role="line"
             id="tspan3484">sc_at_so.</tspan><tspan
             style="fill:#000000;fill-opacity:1;fill-rule:nonzero;stroke:none;font-family:Times;font-variant:normal;font-weight:normal;font-size:18;writing-mode:lr;-inkscape-font-specification:Times-Roman"
             x="16.0199 25.0199 34.0199 43.0199 51.0119 56.0159 65.0159 72.0179 81.0179"
             y="-27.1801"
             sodipodi:role="line"
             id="tspan3486">bu_at_so.</tspan><tspan
             style="fill:#000000;fill-opacity:1;fill-rule:nonzero;stroke:none;font-family:Times;font-variant:normal;font-weight:normal;font-size:18;writing-mode:lr;-inkscape-font-specification:Times-Roman"
             x="26.2199 31.2239 39.2159 48.2159 56.2079 61.2119 70.2119 77.2139 86.2139"
             y="-54.3602"
             sodipodi:role="line"
             id="tspan3488">te_at_so.</tspan><tspan
             style="fill:#000000;fill-opacity:1;fill-rule:nonzero;stroke:none;font-family:Times;font-variant:normal;font-weight:normal;font-size:18;writing-mode:lr;-inkscape-font-specification:Times-Roman"
             x="26.2199 35.2199 40.2239 49.2239 57.2159 62.2199 71.2199 78.2219 87.2219"
             y="-81.5399"
             sodipodi:role="line"
             id="tspan3490">pi_at_so.</tspan><tspan
             style="fill:#000000;fill-opacity:1;fill-rule:nonzero;stroke:none;font-family:Times;font-variant:normal;font-weight:normal;font-size:18;writing-mode:lr;-inkscape-font-specification:Times-Roman"
             x="8.5199 15.5219 23.5139 32.5139 40.5059 45.5099 54.5099 61.5119 66.5159"
             y="-108.72"
             sodipodi:role="line"
             id="tspan3492">sc_at_st.</tspan><tspan
             style="fill:#000000;fill-opacity:1;fill-rule:nonzero;stroke:none;font-family:Times;font-variant:normal;font-weight:normal;font-size:18;writing-mode:lr;-inkscape-font-specification:Times-Roman"
             x="37.9199 46.9199 55.9199 64.9199 72.9119 77.9159 86.9159 93.9179 98.9219"
             y="-135.9001"
             sodipodi:role="line"
             id="tspan3494">bu_at_st.</tspan><tspan
             style="fill:#000000;fill-opacity:1;fill-rule:nonzero;stroke:none;font-family:Times;font-variant:normal;font-weight:normal;font-size:18;writing-mode:lr;-inkscape-font-specification:Times-Roman"
             x="61.1398 66.1438 74.1358 83.1358 91.1278 96.1318 105.1318 112.1338 117.1378"
             y="-163.0802"
             sodipodi:role="line"
             id="tspan3496">te_at_st.</tspan><tspan
             style="fill:#000000;fill-opacity:1;fill-rule:nonzero;stroke:none;font-family:Times;font-variant:normal;font-weight:normal;font-size:18;writing-mode:lr;-inkscape-font-specification:Times-Roman"
             x="61.1398 70.1398 75.1438 84.1438 92.1358 97.1398 106.1398 113.1418 118.1458"
             y="-190.2603"
             sodipodi:role="line"
             id="tspan3498">pi_at_st.</tspan><tspan
             style="fill:#000000;fill-opacity:1;fill-rule:nonzero;stroke:none;font-family:Times;font-variant:normal;font-weight:normal;font-size:18;writing-mode:lr;-inkscape-font-specification:Times-Roman"
             x="49.1398 58.1398 63.1438 72.1438 81.1438 87.1378 96.1378 101.1418 109.1338"
             y="-217.5001"
             sodipodi:role="line"
             id="tspan3500">pi_dr_ic.</tspan><tspan
             style="fill:#000000;fill-opacity:1;fill-rule:nonzero;stroke:none;font-family:Times;font-variant:normal;font-weight:normal;font-size:18;writing-mode:lr;-inkscape-font-specification:Times-Roman"
             x="86.1 93.102 101.094 110.094 119.094 125.088 134.088 139.092 147.084"
             y="-244.6802"
             sodipodi:role="line"
             id="tspan3502">sc_dr_ic.</tspan><tspan
             style="fill:#000000;fill-opacity:1;fill-rule:nonzero;stroke:none;font-family:Times;font-variant:normal;font-weight:normal;font-size:18;writing-mode:lr;-inkscape-font-specification:Times-Roman"
             x="104.0398 113.0398 122.0398 131.0398 140.0398 146.0338 155.0338 160.0378 168.0298"
             y="-271.8603"
             sodipodi:role="line"
             id="tspan3504">bu_dr_ic.</tspan><tspan
             style="fill:#000000;fill-opacity:1;fill-rule:nonzero;stroke:none;font-family:Times;font-variant:normal;font-weight:normal;font-size:18;writing-mode:lr;-inkscape-font-specification:Times-Roman"
             x="104.0398 109.0438 117.0358 126.0358 135.0358 141.0298 150.0298 155.0338 163.0258"
             y="-299.04"
             sodipodi:role="line"
             id="tspan3506">te_dr_ic.</tspan><tspan
             style="fill:#000000;fill-opacity:1;fill-rule:nonzero;stroke:none;font-family:Times;font-variant:normal;font-weight:normal;font-size:18;writing-mode:lr;-inkscape-font-specification:Times-Roman"
             x="51.6597 60.6597 65.6637 74.6637 81.6657 86.6697 95.6697 104.6697 113.6697"
             y="-326.2201"
             sodipodi:role="line"
             id="tspan3508">pi_st_ko.</tspan><tspan
             style="fill:#000000;fill-opacity:1;fill-rule:nonzero;stroke:none;font-family:Times;font-variant:normal;font-weight:normal;font-size:18;writing-mode:lr;-inkscape-font-specification:Times-Roman"
             x="78.8999 87.8999 96.8999 105.8999 112.9019 117.9059 126.9059 135.9059 144.9059"
             y="-353.4002"
             sodipodi:role="line"
             id="tspan3510">bu_st_ko.</tspan><tspan
             style="fill:#000000;fill-opacity:1;fill-rule:nonzero;stroke:none;font-family:Times;font-variant:normal;font-weight:normal;font-size:18;writing-mode:lr;-inkscape-font-specification:Times-Roman"
             x="103.3796 108.3836 116.3756 125.3756 132.3776 137.3816 146.3816 155.3816 164.3816"
             y="-380.5803"
             sodipodi:role="line"
             id="tspan3512">te_st_ko.</tspan><tspan
             style="fill:#000000;fill-opacity:1;fill-rule:nonzero;stroke:none;font-family:Times;font-variant:normal;font-weight:normal;font-size:18;writing-mode:lr;-inkscape-font-specification:Times-Roman"
             x="103.3796 110.3816 118.3736 127.3736 134.3756 139.3796 148.3796 157.3796 166.3796"
             y="-407.7604"
             sodipodi:role="line"
             id="tspan3514">sc_st_ko.</tspan></text>
</g><path
         d="m 1002.6,2361 46.2,0 0,-1087.8 1678.2,0 0,-543.598 987,0 0,-237.602 276.6,0 -276.6,0 0,475.801 276.6,0 0,-204 160.2,0 -160.2,0 0,407.999 160.2,0 0,-136.2 102,0 -102,0 0,271.8 102,0 -102,0 0,-135.6 -160.2,0 0,-203.999 -276.6,0 0,-238.199 -987,0 0,1087.798 987,0 0,-238.2 361.8,0 -361.8,0 0,475.8 361.8,0 0,-204 294,0 -294,0 0,408 294,0 0,-136.2 232.2,0 -232.2,0 0,271.8 232.2,0 -232.2,0 0,-135.6 -294,0 0,-204 -361.8,0 0,-237.6 -987,0 0,-544.2 -1678.2,0 0,2175 1678.2,0 0,-543.6 1312.8,0 0,-237.6 442.2,0 -442.2,0 0,475.2 442.2,0 0,-203.4 369.6,0 -369.6,0 0,407.4 369.6,0 0,-135.6 179.4,0 -179.4,0 0,271.8 179.4,0 -179.4,0 0,-136.2 -369.6,0 0,-204 -442.2,0 0,-237.6 -1312.8,0 0,1087.2 1312.8,0 0,-237.6 467.4,0 -467.4,0 0,475.8 467.4,0 0,-204 272.4,0 -272.4,0 0,408 272.4,0 0,-136.2 244.8,0 -244.8,0 0,271.8 244.8,0 -244.8,0 0,-135.6 -272.4,0 0,-204 -467.4,0 0,-238.2 -1312.8,0 0,-543.6 -1678.2,0 0,-1087.2 -46.2,0"
         style="fill:none;stroke:#000000;stroke-opacity:1;stroke-width:8.4;stroke-linecap:butt;stroke-linejoin:miter;stroke-miterlimit:10;stroke-dasharray:none"
         id="path3516" /></g></g></svg>