<?xml version="1.0" encoding="ISO-8859-1" standalone="yes"?>
<svg width="163.948" height="115.262">
  <defs> 
    <marker id="ArrowEnd" viewBox="0 0 10 10" refX="0" refY="5" 
     markerUnits="strokeWidth" 
     markerWidth="4" 
     markerHeight="3" 
     orient="auto"> 
        <path d="M 0 0 L 10 5 L 0 10 z" /> 
    </marker>
    <marker id="ArrowStart" viewBox="0 0 10 10" refX="10" refY="5" 
     markerUnits="strokeWidth" 
     markerWidth="4" 
     markerHeight="3" 
     orient="auto"> 
        <path d="M 10 0 L 0 5 L 10 10 z" /> 
    </marker> </defs>
<g>
<path style="stroke:none; fill-rule:evenodd; fill:#000000" d="M 130.659 99.1662C 130.616 98.5803 130.491 98.1974 130.26 97.8615C 129.854 97.299 129.135 96.9631 128.307 96.9631C 126.706 96.9631 125.659 98.256 125.659 100.268C 125.659 102.221 126.682 103.459 128.295 103.459C 129.717 103.459 130.616 102.588 130.729 101.096L 129.776 101.096C 129.62 102.072 129.131 102.561 128.327 102.561C 127.284 102.561 126.659 101.697 126.659 100.272C 126.659 98.7638 127.268 97.8654 128.303 97.8654C 129.096 97.8654 129.596 98.3342 129.709 99.1701L 130.659 99.1662z"/>
<path style="stroke:none; fill-rule:evenodd; fill:#000000" d="M 134.088 96.9592C 132.385 96.9592 131.354 98.174 131.354 100.209C 131.354 102.244 132.374 103.459 134.104 103.459C 135.807 103.459 136.854 102.248 136.854 100.26C 136.854 98.1701 135.846 96.967 134.096 96.967L 134.088 96.9592zM 134.104 97.8576C 135.198 97.8576 135.854 98.7443 135.854 100.24C 135.854 101.655 135.178 102.553 134.104 102.553C 133.022 102.553 132.354 101.666 132.354 100.205C 132.354 98.756 133.018 97.8576 134.104 97.8576z"/>
<path style="stroke:none; fill-rule:evenodd; fill:#000000" d="M 138.151 103.158L 139.151 103.158L 139.151 94.7599L 138.151 94.7599L 138.151 103.158z"/>
<path style="stroke:none; fill-rule:evenodd; fill:#000000" d="M 142.991 96.9592C 141.288 96.9592 140.256 98.174 140.256 100.209C 140.256 102.244 141.276 103.459 143.006 103.459C 144.709 103.459 145.756 102.248 145.756 100.26C 145.756 98.1701 144.749 96.967 142.999 96.967L 142.991 96.9592zM 143.002 97.8576C 144.096 97.8576 144.752 98.7443 144.752 100.24C 144.752 101.655 144.077 102.553 143.002 102.553C 141.92 102.553 141.252 101.666 141.252 100.205C 141.252 98.756 141.916 97.8576 143.002 97.8576z"/>
<path style="stroke:none; fill-rule:evenodd; fill:#000000" d="M 147.053 97.131L 147.053 103.155L 148.053 103.155L 148.053 100.022C 148.053 99.1584 148.264 98.5959 148.713 98.2599C 149.002 98.0412 149.284 97.9748 149.936 97.9631L 149.936 96.9982C 149.78 96.9787 149.702 96.967 149.577 96.967C 148.967 96.967 148.502 97.3342 147.956 98.2287L 147.956 97.1388L 147.053 97.131z"/>
<path style="stroke:none; fill-rule:evenodd; fill:#000000" d="M 130.28 77.7209C 130.268 76.5334 129.483 75.8615 128.081 75.8615C 126.67 75.8615 125.756 76.5881 125.756 77.7092C 125.756 78.6545 126.245 79.1037 127.694 79.4514L 128.604 79.6701C 129.28 79.8303 129.549 80.0724 129.549 80.5099C 129.549 81.0724 128.983 81.4553 128.139 81.4553C 127.62 81.4553 127.182 81.3068 126.94 81.049C 126.792 80.8771 126.721 80.7014 126.663 80.2678L 125.647 80.2678C 125.69 81.6779 126.475 82.3576 128.057 82.3576C 129.581 82.3576 130.549 81.6076 130.549 80.4435C 130.549 79.5451 130.038 79.049 128.823 78.7599L 127.889 78.5412C 127.096 78.3576 126.756 78.1037 126.756 77.6779C 126.756 77.1271 127.252 76.7678 128.042 76.7678C 128.815 76.7678 129.233 77.0959 129.256 77.7248L 130.28 77.7209z"/>
<path style="stroke:none; fill-rule:evenodd; fill:#000000" d="M 132.651 76.0607L 131.651 76.0607L 131.651 82.0607L 132.651 82.0607L 132.651 76.0607zM 132.651 73.6584L 131.651 73.6584L 131.651 74.8928L 132.651 74.8928L 132.651 73.6584z"/>
<path style="stroke:none; fill-rule:evenodd; fill:#000000" d="M 138.553 76.0607L 134.053 76.0607L 134.053 76.8576L 137.401 76.8576L 133.854 81.1896L 133.854 82.0529L 138.752 82.0529L 138.752 81.256L 134.971 81.256L 138.553 76.8576L 138.553 76.0607z"/>
<path style="stroke:none; fill-rule:evenodd; fill:#000000" d="M 145.151 79.3576C 145.151 78.4396 145.084 77.8888 144.913 77.4435C 144.526 76.4592 143.612 75.8615 142.495 75.8615C 140.831 75.8615 139.756 77.1545 139.756 79.1428C 139.756 81.131 140.792 82.3576 142.467 82.3576C 143.831 82.3576 144.776 81.5646 145.018 80.2326L 144.065 80.2326C 143.803 81.0373 143.272 81.4553 142.51 81.4553C 141.909 81.4553 141.397 81.1779 141.081 80.6623C 140.854 80.3146 140.776 79.9631 140.764 79.3576L 145.151 79.3576zM 140.733 78.592C 140.811 77.4787 141.491 76.756 142.452 76.756C 143.389 76.756 144.116 77.5334 144.116 78.5217C 144.116 78.5412 144.116 78.5646 144.104 78.5881L 140.733 78.592z"/>
<path style="stroke:none; fill-rule:evenodd; fill:#000000" d="M 130.28 56.7209C 130.268 55.5334 129.483 54.8615 128.081 54.8615C 126.67 54.8615 125.756 55.5881 125.756 56.7092C 125.756 57.6545 126.245 58.1037 127.694 58.4514L 128.604 58.6701C 129.28 58.8303 129.549 59.0724 129.549 59.5099C 129.549 60.0724 128.983 60.4553 128.139 60.4553C 127.62 60.4553 127.182 60.3068 126.94 60.049C 126.792 59.8771 126.721 59.7014 126.663 59.2678L 125.647 59.2678C 125.69 60.6779 126.475 61.3576 128.057 61.3576C 129.581 61.3576 130.549 60.6076 130.549 59.4435C 130.549 58.5451 130.038 58.049 128.823 57.7599L 127.889 57.5412C 127.096 57.3576 126.756 57.1037 126.756 56.6779C 126.756 56.1271 127.252 55.7678 128.042 55.7678C 128.815 55.7678 129.233 56.0959 129.256 56.7248L 130.28 56.7209z"/>
<path style="stroke:none; fill-rule:evenodd; fill:#000000" d="M 131.752 52.6584L 131.752 61.0568L 132.752 61.0568L 132.752 57.7092C 132.752 56.4709 133.377 55.6584 134.342 55.6584C 134.643 55.6584 134.944 55.7599 135.17 55.9357C 135.436 56.131 135.549 56.4201 135.549 56.8498L 135.549 61.0529L 136.549 61.0529L 136.549 56.4982C 136.549 55.4865 135.831 54.8537 134.666 54.8537C 133.823 54.8537 133.311 55.1193 132.752 55.8615L 132.752 52.6506L 131.752 52.6584z"/>
<path style="stroke:none; fill-rule:evenodd; fill:#000000" d="M 143.495 60.4982C 143.389 60.5568 143.342 60.5568 143.284 60.5568C 142.944 60.5568 142.756 60.3849 142.756 60.0842L 142.756 56.5178C 142.756 55.4435 141.979 54.8615 140.506 54.8615C 139.639 54.8615 138.92 55.1154 138.518 55.5646C 138.245 55.8732 138.131 56.2209 138.108 56.8224L 139.053 56.8224C 139.131 56.092 139.557 55.7599 140.44 55.7599C 141.284 55.7599 141.756 56.0803 141.756 56.6584L 141.756 56.9123C 141.756 57.3146 141.522 57.4865 140.78 57.5803C 139.456 57.7521 139.252 57.799 138.893 57.9474C 138.209 58.2326 137.862 58.7756 137.862 59.5607C 137.862 60.6545 138.616 61.3459 139.827 61.3459C 140.581 61.3459 141.186 61.0724 141.862 60.4279C 141.928 61.0607 142.225 61.3459 142.842 61.3459C 143.034 61.3459 143.182 61.3224 143.491 61.2404L 143.495 60.4982zM 141.752 59.1974C 141.752 59.5256 141.663 59.7287 141.385 60.0021C 141.006 60.3654 140.549 60.5568 140.002 60.5568C 139.28 60.5568 138.854 60.1935 138.854 59.5646C 138.854 58.9162 139.264 58.5842 140.256 58.4318C 141.237 58.2912 141.436 58.2443 141.749 58.092L 141.752 59.1974z"/>
<path style="stroke:none; fill-rule:evenodd; fill:#000000" d="M 144.354 63.5607L 145.354 63.5607L 145.354 60.4592C 145.854 61.0803 146.416 61.3576 147.19 61.3576C 148.733 61.3576 149.749 60.0998 149.749 58.1662C 149.749 56.1349 148.764 54.8615 147.166 54.8615C 146.354 54.8615 145.698 55.2287 145.252 55.9396L 145.252 55.0334L 144.354 55.0334L 144.354 63.5607zM 147.018 55.7599C 148.065 55.7599 148.749 56.6935 148.749 58.1428C 148.749 59.5178 148.053 60.4553 147.018 60.4553C 146.014 60.4553 145.354 59.5295 145.354 58.1076C 145.354 56.6857 146.014 55.7599 147.018 55.7599z"/>
<path style="stroke:none; fill-rule:evenodd; fill:#000000" d="M 155.952 58.3576C 155.952 57.4396 155.885 56.8888 155.713 56.4435C 155.327 55.4592 154.413 54.8615 153.295 54.8615C 151.631 54.8615 150.557 56.1545 150.557 58.1428C 150.557 60.131 151.592 61.3576 153.268 61.3576C 154.631 61.3576 155.577 60.5646 155.819 59.2326L 154.866 59.2326C 154.604 60.0373 154.073 60.4553 153.311 60.4553C 152.709 60.4553 152.198 60.1779 151.881 59.6623C 151.655 59.3146 151.577 58.9631 151.565 58.3576L 155.952 58.3576zM 151.534 57.592C 151.612 56.4787 152.292 55.756 153.252 55.756C 154.19 55.756 154.916 56.5334 154.916 57.5217C 154.916 57.5412 154.916 57.5646 154.905 57.5881L 151.534 57.592z"/>
<path style="stroke:none; fill-rule:evenodd; fill:#000000" d="M 125.854 42.4631L 126.854 42.4631L 126.854 39.3616C 127.354 39.9826 127.916 40.2596 128.69 40.2596C 130.233 40.2596 131.249 39.0026 131.249 37.0686C 131.249 35.0376 130.264 33.7636 128.666 33.7636C 127.854 33.7636 127.198 34.1306 126.752 34.8416L 126.752 33.9356L 125.854 33.9356L 125.854 42.4631zM 128.518 34.6586C 129.565 34.6586 130.249 35.5916 130.249 37.0416C 130.249 38.4166 129.553 39.3536 128.518 39.3536C 127.514 39.3536 126.854 38.4276 126.854 37.0056C 126.854 35.5846 127.514 34.6586 128.518 34.6586z"/>
<path style="stroke:none; fill-rule:evenodd; fill:#000000" d="M 134.69 33.7596C 132.987 33.7596 131.956 34.9746 131.956 37.0096C 131.956 39.0456 132.975 40.2596 134.706 40.2596C 136.409 40.2596 137.456 39.0486 137.456 37.0606C 137.456 34.9706 136.448 33.7676 134.698 33.7676L 134.69 33.7596zM 134.702 34.6586C 135.795 34.6586 136.452 35.5456 136.452 37.0416C 136.452 38.4556 135.776 39.3536 134.702 39.3536C 133.62 39.3536 132.952 38.4666 132.952 37.0056C 132.952 35.5566 133.616 34.6586 134.702 34.6586z"/>
<path style="stroke:none; fill-rule:evenodd; fill:#000000" d="M 142.979 35.6196C 142.967 34.4316 142.182 33.7596 140.78 33.7596C 139.37 33.7596 138.456 34.4866 138.456 35.6076C 138.456 36.5526 138.944 37.0026 140.393 37.3496L 141.303 37.5686C 141.979 37.7286 142.249 37.9706 142.249 38.4086C 142.249 38.9706 141.682 39.3536 140.838 39.3536C 140.319 39.3536 139.881 39.2056 139.639 38.9476C 139.491 38.7756 139.42 38.5996 139.362 38.1666L 138.346 38.1666C 138.389 39.5766 139.174 40.2556 140.756 40.2556C 142.28 40.2556 143.249 39.5056 143.249 38.3416C 143.249 37.4436 142.737 36.9476 141.522 36.6586L 140.588 36.4396C 139.795 36.2556 139.456 36.0026 139.456 35.5766C 139.456 35.0256 139.952 34.6666 140.741 34.6666C 141.514 34.6666 141.932 34.9946 141.956 35.6236L 142.979 35.6196z"/>
<path style="stroke:none; fill-rule:evenodd; fill:#000000" d="M 145.452 33.9596L 144.452 33.9596L 144.452 39.9596L 145.452 39.9596L 145.452 33.9596zM 145.452 31.5606L 144.452 31.5606L 144.452 32.7956L 145.452 32.7956L 145.452 31.5606z"/>
<path style="stroke:none; fill-rule:evenodd; fill:#000000" d="M 149.151 33.9596L 148.252 33.9596L 148.252 32.2916L 147.252 32.2916L 147.252 33.9596L 146.354 33.9596L 146.354 34.7556L 147.252 34.7556L 147.252 39.3026C 147.252 39.9086 147.655 40.2526 148.385 40.2526C 148.608 40.2526 148.834 40.2286 149.147 40.1696L 149.147 39.3346C 149.034 39.4236 148.897 39.4516 148.729 39.4516C 148.354 39.4516 148.249 39.3376 148.249 38.9086L 148.249 34.7556L 149.147 34.7556L 149.151 33.9596z"/>
<path style="stroke:none; fill-rule:evenodd; fill:#000000" d="M 151.151 33.9596L 150.151 33.9596L 150.151 39.9596L 151.151 39.9596L 151.151 33.9596zM 151.151 31.5606L 150.151 31.5606L 150.151 32.7956L 151.151 32.7956L 151.151 31.5606z"/>
<path style="stroke:none; fill-rule:evenodd; fill:#000000" d="M 155.19 33.7596C 153.487 33.7596 152.456 34.9746 152.456 37.0096C 152.456 39.0456 153.475 40.2596 155.206 40.2596C 156.909 40.2596 157.956 39.0486 157.956 37.0606C 157.956 34.9706 156.948 33.7676 155.198 33.7676L 155.19 33.7596zM 155.202 34.6586C 156.295 34.6586 156.952 35.5456 156.952 37.0416C 156.952 38.4556 156.276 39.3536 155.202 39.3536C 154.12 39.3536 153.452 38.4666 153.452 37.0056C 153.452 35.5566 154.116 34.6586 155.202 34.6586z"/>
<path style="stroke:none; fill-rule:evenodd; fill:#000000" d="M 159.151 33.9316L 159.151 39.9556L 160.151 39.9556L 160.151 36.6076C 160.151 35.3696 160.776 34.5566 161.741 34.5566C 162.479 34.5566 162.948 35.0176 162.948 35.7486L 162.948 39.9516L 163.948 39.9516L 163.948 35.3966C 163.948 34.3966 163.206 33.7526 162.045 33.7526C 161.155 33.7526 160.581 34.0956 160.053 34.9356L 160.053 33.9236L 159.151 33.9316z"/>
<path style="stroke:none; fill-rule:evenodd; fill:#000000" d="M 128.151 12.9596L 127.252 12.9596L 127.252 11.2916L 126.252 11.2916L 126.252 12.9596L 125.354 12.9596L 125.354 13.7556L 126.252 13.7556L 126.252 18.3026C 126.252 18.9086 126.655 19.2526 127.385 19.2526C 127.608 19.2526 127.834 19.2286 128.147 19.1696L 128.147 18.3346C 128.034 18.4236 127.897 18.4516 127.729 18.4516C 127.354 18.4516 127.249 18.3376 127.249 17.9086L 127.249 13.7556L 128.147 13.7556L 128.151 12.9596z"/>
<path style="stroke:none; fill-rule:evenodd; fill:#000000" d="M 134.252 16.2596C 134.252 15.3416 134.186 14.7916 134.014 14.3456C 133.627 13.3616 132.713 12.7636 131.596 12.7636C 129.932 12.7636 128.858 14.0566 128.858 16.0456C 128.858 18.0336 129.893 19.2596 131.569 19.2596C 132.932 19.2596 133.877 18.4666 134.12 17.1346L 133.166 17.1346C 132.905 17.9396 132.374 18.3576 131.612 18.3576C 131.01 18.3576 130.499 18.0806 130.182 17.5646C 129.956 17.2166 129.877 16.8656 129.866 16.2596L 134.252 16.2596zM 129.834 15.4946C 129.913 14.3806 130.592 13.6586 131.553 13.6586C 132.491 13.6586 133.217 14.4356 133.217 15.4236C 133.217 15.4436 133.217 15.4666 133.206 15.4906L 129.834 15.4946z"/>
<path style="stroke:none; fill-rule:evenodd; fill:#000000" d="M 138.104 15.8576L 140.124 12.9626L 139.045 12.9626L 137.6 15.1276L 136.155 12.9626L 135.065 12.9626L 137.073 15.9046L 134.952 18.9596L 136.042 18.9596L 137.565 16.6546L 139.069 18.9596L 140.182 18.9596L 138.104 15.8576z"/>
<path style="stroke:none; fill-rule:evenodd; fill:#000000" d="M 143.452 12.9596L 142.553 12.9596L 142.553 11.2916L 141.553 11.2916L 141.553 12.9596L 140.655 12.9596L 140.655 13.7556L 141.553 13.7556L 141.553 18.3026C 141.553 18.9086 141.956 19.2526 142.686 19.2526C 142.909 19.2526 143.135 19.2286 143.448 19.1696L 143.448 18.3346C 143.334 18.4236 143.198 18.4516 143.03 18.4516C 142.655 18.4516 142.549 18.3376 142.549 17.9086L 142.549 13.7556L 143.448 13.7556L 143.452 12.9596z"/>
<path style="stroke:none; fill-rule:evenodd; fill:#000000" d="M 149.354 18.9946L 149.354 12.9626L 148.354 12.9626L 148.354 16.4086C 148.354 17.6466 147.709 18.4596 146.702 18.4596C 145.94 18.4596 145.456 17.9986 145.456 17.2676L 145.456 12.9626L 144.456 12.9626L 144.456 17.6156C 144.456 18.6156 145.213 19.2596 146.405 19.2596C 147.303 19.2596 147.877 18.9516 148.452 18.1586L 148.452 18.9986L 149.354 18.9946z"/>
<path style="stroke:none; fill-rule:evenodd; fill:#000000" d="M 150.854 12.9316L 150.854 18.9556L 151.854 18.9556L 151.854 15.8226C 151.854 14.9596 152.065 14.3966 152.514 14.0606C 152.803 13.8416 153.084 13.7756 153.737 13.7636L 153.737 12.7986C 153.581 12.7796 153.502 12.7676 153.377 12.7676C 152.768 12.7676 152.303 13.1346 151.756 14.0296L 151.756 12.9396L 150.854 12.9316z"/>
<path style="stroke:none; fill-rule:evenodd; fill:#000000" d="M 159.854 16.2596C 159.854 15.3416 159.788 14.7916 159.616 14.3456C 159.229 13.3616 158.315 12.7636 157.198 12.7636C 155.534 12.7636 154.459 14.0566 154.459 16.0456C 154.459 18.0336 155.495 19.2596 157.17 19.2596C 158.534 19.2596 159.479 18.4666 159.721 17.1346L 158.768 17.1346C 158.506 17.9396 157.975 18.3576 157.213 18.3576C 156.612 18.3576 156.1 18.0806 155.784 17.5646C 155.557 17.2166 155.479 16.8656 155.467 16.2596L 159.854 16.2596zM 155.432 15.4946C 155.51 14.3806 156.19 13.6586 157.151 13.6586C 158.088 13.6586 158.815 14.4356 158.815 15.4236C 158.815 15.4436 158.815 15.4666 158.803 15.4906L 155.432 15.4946z"/>
<path style="stroke:none; fill-rule:evenodd; fill:#ff0000" d="M 5.01365 62.424L 12.0136 62.424L 12.0136 55.1506L 5.01365 55.1506L 5.01365 62.424z"/>
<path style="stroke:#000000; stroke-width:0.95664899999999997; fill:none" d="M 5.01365 62.424L 12.0136 62.424L 12.0136 55.1506L 5.01365 55.1506L 5.01365 62.424z"/>
<path style="stroke:none; fill-rule:evenodd; fill:#ffa400" d="M 12.0176 62.424L 19.0176 62.424L 19.0176 55.1506L 12.0176 55.1506L 12.0176 62.424z"/>
<path style="stroke:#000000; stroke-width:0.95664899999999997; fill:none" d="M 12.0176 62.424L 19.0176 62.424L 19.0176 55.1506L 12.0176 55.1506L 12.0176 62.424z"/>
<path style="stroke:none; fill-rule:evenodd; fill:#00ff00" d="M 19.0216 62.424L 26.0216 62.424L 26.0216 55.1506L 19.0216 55.1506L 19.0216 62.424z"/>
<path style="stroke:#000000; stroke-width:0.95664899999999997; fill:none" d="M 19.0216 62.424L 26.0216 62.424L 26.0216 55.1506L 19.0216 55.1506L 19.0216 62.424z"/>
<path style="stroke:none; fill-rule:evenodd; fill:#0000ff" d="M 26.0256 62.424L 33.0256 62.424L 33.0256 55.1506L 26.0256 55.1506L 26.0256 62.424z"/>
<path style="stroke:#000000; stroke-width:0.95664899999999997; fill:none" d="M 26.0256 62.424L 33.0256 62.424L 33.0256 55.1506L 26.0256 55.1506L 26.0256 62.424z"/>
<path style="stroke:#000000; stroke-width:0.95664899999999997; fill:none" d="M 5.01365 55.1506L 12.0136 55.1506L 12.0136 47.8771L 5.01365 47.8771L 5.01365 55.1506z"/>
<path style="stroke:#000000; stroke-width:0.95664899999999997; fill:none" d="M 12.0176 55.1506L 19.0176 55.1506L 19.0176 47.8771L 12.0176 47.8771L 12.0176 55.1506z"/>
<path style="stroke:#000000; stroke-width:0.95664899999999997; fill:none" d="M 19.0216 55.1506L 26.0216 55.1506L 26.0216 47.8771L 19.0216 47.8771L 19.0216 55.1506z"/>
<path style="stroke:#000000; stroke-width:0.95664899999999997; fill:none" d="M 26.0256 55.1506L 33.0256 55.1506L 33.0256 47.8771L 26.0256 47.8771L 26.0256 55.1506z"/>
<path style="stroke:#000000; stroke-width:0.95664899999999997; fill:none" d="M 5.01365 47.8732L 12.0136 47.8732L 12.0136 40.5996L 5.01365 40.5996L 5.01365 47.8732z"/>
<path style="stroke:#000000; stroke-width:0.95664899999999997; fill:none" d="M 12.0176 47.8732L 19.0176 47.8732L 19.0176 40.5996L 12.0176 40.5996L 12.0176 47.8732z"/>
<path style="stroke:#000000; stroke-width:0.95664899999999997; fill:none" d="M 19.0216 47.8732L 26.0216 47.8732L 26.0216 40.5996L 19.0216 40.5996L 19.0216 47.8732z"/>
<path style="stroke:#000000; stroke-width:0.95664899999999997; fill:none" d="M 26.0256 47.8732L 33.0256 47.8732L 33.0256 40.5996L 26.0256 40.5996L 26.0256 47.8732z"/>
<path style="stroke:#000000; stroke-width:0.95664899999999997; fill:none" d="M 5.01365 40.5996L 12.0136 40.5996L 12.0136 33.3266L 5.01365 33.3266L 5.01365 40.5996z"/>
<path style="stroke:#000000; stroke-width:0.95664899999999997; fill:none" d="M 12.0176 40.5996L 19.0176 40.5996L 19.0176 33.3266L 12.0176 33.3266L 12.0176 40.5996z"/>
<path style="stroke:#000000; stroke-width:0.95664899999999997; fill:none" d="M 19.0216 40.5996L 26.0216 40.5996L 26.0216 33.3266L 19.0216 33.3266L 19.0216 40.5996z"/>
<path style="stroke:#000000; stroke-width:0.95664899999999997; fill:none" d="M 26.0256 40.5996L 33.0256 40.5996L 33.0256 33.3266L 26.0256 33.3266L 26.0256 40.5996z"/>
<path style="stroke:#000000; stroke-width:0.95664899999999997; fill:none" d="M 5.01365 33.3306L 12.0136 33.3306L 12.0136 26.0566L 5.01365 26.0566L 5.01365 33.3306z"/>
<path style="stroke:#000000; stroke-width:0.95664899999999997; fill:none" d="M 12.0176 33.3306L 19.0176 33.3306L 19.0176 26.0566L 12.0176 26.0566L 12.0176 33.3306z"/>
<path style="stroke:#000000; stroke-width:0.95664899999999997; fill:none" d="M 19.0216 33.3306L 26.0216 33.3306L 26.0216 26.0566L 19.0216 26.0566L 19.0216 33.3306z"/>
<path style="stroke:#000000; stroke-width:0.95664899999999997; fill:none" d="M 26.0256 33.3306L 33.0256 33.3306L 33.0256 26.0566L 26.0256 26.0566L 26.0256 33.3306z"/>
<path style="stroke:#000000; stroke-width:0.95664899999999997; fill:none" d="M 9.15464 51.5099C 9.15464 51.1467 8.87365 50.8498 8.52164 50.8498C 8.17365 50.8498 7.88865 51.1428 7.88865 51.5099C 7.88865 51.8732 8.16964 52.1701 8.52164 52.1701C 8.86965 52.1701 9.15464 51.8771 9.15464 51.5099"/>
<path style="stroke:#000000; stroke-width:0.95664899999999997; fill:none" d="M 16.7946 51.5099C 16.7946 50.7834 16.2286 50.1896 15.5256 50.1896C 14.8267 50.1896 14.2556 50.7795 14.2556 51.5099C 14.2556 52.2365 14.8226 52.8303 15.5256 52.8303C 16.2246 52.8303 16.7946 52.2404 16.7946 51.5099"/>
<path style="stroke:#000000; stroke-width:0.95664899999999997; fill:none" d="M 24.4316 51.5099C 24.4316 50.4162 23.5807 49.5295 22.5256 49.5295C 21.4706 49.5295 20.6197 50.4162 20.6197 51.5099C 20.6197 52.6037 21.4706 53.4904 22.5256 53.4904C 23.5807 53.4904 24.4316 52.6037 24.4316 51.5099"/>
<path style="stroke:#000000; stroke-width:0.95664899999999997; fill:none" d="M 32.7086 51.5099C 32.7086 49.6857 31.2877 48.2053 29.5296 48.2053C 27.7716 48.2053 26.3496 49.6818 26.3496 51.5099C 26.3496 53.3342 27.7716 54.8146 29.5296 54.8146C 31.2877 54.8146 32.7086 53.3381 32.7086 51.5099"/>
<path style="stroke:#000000; stroke-width:0.95664899999999997; fill:none" d="M 10.4277 44.2404C 10.4277 43.1467 9.57665 42.2599 8.52164 42.2599C 7.46665 42.2599 6.61565 43.1467 6.61565 44.2404C 6.61565 45.3342 7.46665 46.2209 8.52164 46.2209C 9.57665 46.2209 10.4277 45.3342 10.4277 44.2404"/>
<path style="stroke:#000000; stroke-width:0.95664899999999997; fill:none" d="M 13.9277 45.8928L 15.8336 42.5881L 17.7406 45.8928L 13.9237 45.8928"/>
<path style="stroke:#000000; stroke-width:0.95664899999999997; fill:none" d="M 20.9316 45.8928L 24.1116 45.8928L 24.1116 42.5881L 20.9316 42.5881L 20.9316 45.8928z"/>
<path style="stroke:#000000; stroke-width:0.95664899999999997; fill:none" d="M 29.2086 42.5842L 29.8417 42.5842L 29.8417 43.9045L 31.1116 43.9045L 31.1116 44.5646L 29.8417 44.5646L 29.8417 45.8849L 29.2086 45.8849L 29.2086 44.5646L 27.9396 44.5646L 27.9396 43.9045L 29.2086 43.9045L 29.2086 42.5842"/>
<path style="stroke:#000000; stroke-width:0.95664899999999997; fill:none" d="M 8.19764 38.6196L 10.1036 40.5996"/>
<path style="stroke:#000000; stroke-width:0.95664899999999997; fill:none" d="M 8.19764 40.5996L 10.1036 38.6196"/>
<path style="stroke:#000000; stroke-width:0.95664899999999997; fill:none" d="M 14.5646 36.6346L 16.4706 38.6156"/>
<path style="stroke:#000000; stroke-width:0.95664899999999997; fill:none" d="M 14.5646 38.6196L 16.4706 36.6386"/>
<path style="stroke:#000000; stroke-width:0.95664899999999997; fill:none" d="M 21.5686 34.6506L 23.4746 36.6306"/>
<path style="stroke:#000000; stroke-width:0.95664899999999997; fill:none" d="M 21.5686 36.6346L 23.4746 34.6546"/>
<path style="stroke:#000000; stroke-width:0.95664899999999997; fill:none" d="M 28.5726 33.3266L 30.4786 35.3066"/>
<path style="stroke:#000000; stroke-width:0.95664899999999997; fill:none" d="M 28.5726 35.3106L 30.4786 33.3306"/>
<path style="stroke:none; fill-rule:evenodd; fill:#ffffff" d="M 10.4277 29.6896C 10.4277 28.5956 9.57665 27.7096 8.52164 27.7096C 7.46665 27.7096 6.61565 28.5956 6.61565 29.6896C 6.61565 30.7836 7.46665 31.6696 8.52164 31.6696C 9.57665 31.6696 10.4277 30.7836 10.4277 29.6896"/>
<path style="stroke:#000000; stroke-width:0.95664899999999997; fill:none" d="M 10.4277 29.6896C 10.4277 28.5956 9.57665 27.7096 8.52164 27.7096C 7.46665 27.7096 6.61565 28.5956 6.61565 29.6896C 6.61565 30.7836 7.46665 31.6696 8.52164 31.6696C 9.57665 31.6696 10.4277 30.7836 10.4277 29.6896"/>
<path style="stroke:none; fill-rule:evenodd; fill:#ffffff" d="M 17.4316 29.6896C 17.4316 28.5956 16.5807 27.7096 15.5256 27.7096C 14.4706 27.7096 13.6197 28.5956 13.6197 29.6896C 13.6197 30.7836 14.4706 31.6696 15.5256 31.6696C 16.5807 31.6696 17.4316 30.7836 17.4316 29.6896"/>
<path style="stroke:#000000; stroke-width:0.95664899999999997; fill:none" d="M 17.4316 29.6896C 17.4316 28.5956 16.5807 27.7096 15.5256 27.7096C 14.4706 27.7096 13.6197 28.5956 13.6197 29.6896C 13.6197 30.7836 14.4706 31.6696 15.5256 31.6696C 16.5807 31.6696 17.4316 30.7836 17.4316 29.6896"/>
<path style="stroke:none; fill-rule:evenodd; fill:#ffffff" d="M 24.4316 29.6896C 24.4316 28.5956 23.5807 27.7096 22.5256 27.7096C 21.4706 27.7096 20.6197 28.5956 20.6197 29.6896C 20.6197 30.7836 21.4706 31.6696 22.5256 31.6696C 23.5807 31.6696 24.4316 30.7836 24.4316 29.6896"/>
<path style="stroke:#000000; stroke-width:0.95664899999999997; fill:none" d="M 24.4316 29.6896C 24.4316 28.5956 23.5807 27.7096 22.5256 27.7096C 21.4706 27.7096 20.6197 28.5956 20.6197 29.6896C 20.6197 30.7836 21.4706 31.6696 22.5256 31.6696C 23.5807 31.6696 24.4316 30.7836 24.4316 29.6896"/>
<path style="stroke:none; fill-rule:evenodd; fill:#ffffff" d="M 31.4356 29.6896C 31.4356 28.5956 30.5836 27.7096 29.5296 27.7096C 28.4746 27.7096 27.6236 28.5956 27.6236 29.6896C 27.6236 30.7836 28.4746 31.6696 29.5296 31.6696C 30.5836 31.6696 31.4356 30.7836 31.4356 29.6896"/>
<path style="stroke:#000000; stroke-width:0.95664899999999997; fill:none" d="M 31.4356 29.6896C 31.4356 28.5956 30.5836 27.7096 29.5296 27.7096C 28.4746 27.7096 27.6236 28.5956 27.6236 29.6896C 27.6236 30.7836 28.4746 31.6696 29.5296 31.6696C 30.5836 31.6696 31.4356 30.7836 31.4356 29.6896"/>
<path style="stroke:none; fill-rule:evenodd; fill:#ff0000" d="M 46.1896 110.248L 65.1306 110.248L 65.1306 89.2053L 46.1896 89.2053L 46.1896 110.248z"/>
<path style="stroke:#000000; stroke-width:0.95664899999999997; fill:none" d="M 46.1896 110.248L 65.1306 110.248L 65.1306 89.2053L 46.1896 89.2053L 46.1896 110.248z"/>
<path style="stroke:none; fill-rule:evenodd; fill:#ffa400" d="M 65.1306 110.248L 84.0726 110.248L 84.0726 89.2053L 65.1306 89.2053L 65.1306 110.248z"/>
<path style="stroke:#000000; stroke-width:0.95664899999999997; fill:none" d="M 65.1306 110.248L 84.0726 110.248L 84.0726 89.2053L 65.1306 89.2053L 65.1306 110.248z"/>
<path style="stroke:none; fill-rule:evenodd; fill:#00ff00" d="M 84.0726 110.248L 103.014 110.248L 103.014 89.2053L 84.0726 89.2053L 84.0726 110.248z"/>
<path style="stroke:#000000; stroke-width:0.95664899999999997; fill:none" d="M 84.0726 110.248L 103.014 110.248L 103.014 89.2053L 84.0726 89.2053L 84.0726 110.248z"/>
<path style="stroke:none; fill-rule:evenodd; fill:#0000ff" d="M 103.014 110.248L 121.956 110.248L 121.956 89.2053L 103.014 89.2053L 103.014 110.248z"/>
<path style="stroke:#000000; stroke-width:0.95664899999999997; fill:none" d="M 103.014 110.248L 121.956 110.248L 121.956 89.2053L 103.014 89.2053L 103.014 110.248z"/>
<path style="stroke:#000000; stroke-width:0.95664899999999997; fill:none" d="M 46.1896 89.2014L 65.1306 89.2014L 65.1306 68.1584L 46.1896 68.1584L 46.1896 89.2014z"/>
<path style="stroke:#000000; stroke-width:0.95664899999999997; fill:none" d="M 65.1306 89.2014L 84.0726 89.2014L 84.0726 68.1584L 65.1306 68.1584L 65.1306 89.2014z"/>
<path style="stroke:#000000; stroke-width:0.95664899999999997; fill:none" d="M 84.0726 89.2014L 103.014 89.2014L 103.014 68.1584L 84.0726 68.1584L 84.0726 89.2014z"/>
<path style="stroke:#000000; stroke-width:0.95664899999999997; fill:none" d="M 103.014 89.2014L 121.956 89.2014L 121.956 68.1584L 103.014 68.1584L 103.014 89.2014z"/>
<path style="stroke:#000000; stroke-width:0.95664899999999997; fill:none" d="M 46.1896 68.1545L 65.1306 68.1545L 65.1306 47.1115L 46.1896 47.1115L 46.1896 68.1545z"/>
<path style="stroke:#000000; stroke-width:0.95664899999999997; fill:none" d="M 65.1306 68.1545L 84.0726 68.1545L 84.0726 47.1115L 65.1306 47.1115L 65.1306 68.1545z"/>
<path style="stroke:#000000; stroke-width:0.95664899999999997; fill:none" d="M 84.0726 68.1545L 103.014 68.1545L 103.014 47.1115L 84.0726 47.1115L 84.0726 68.1545z"/>
<path style="stroke:#000000; stroke-width:0.95664899999999997; fill:none" d="M 103.014 68.1545L 121.956 68.1545L 121.956 47.1115L 103.014 47.1115L 103.014 68.1545z"/>
<path style="stroke:#000000; stroke-width:0.95664899999999997; fill:none" d="M 46.1896 47.1076L 65.1306 47.1076L 65.1306 26.0646L 46.1896 26.0646L 46.1896 47.1076z"/>
<path style="stroke:#000000; stroke-width:0.95664899999999997; fill:none" d="M 65.1306 47.1076L 84.0726 47.1076L 84.0726 26.0646L 65.1306 26.0646L 65.1306 47.1076z"/>
<path style="stroke:#000000; stroke-width:0.95664899999999997; fill:none" d="M 84.0726 47.1076L 103.014 47.1076L 103.014 26.0646L 84.0726 26.0646L 84.0726 47.1076z"/>
<path style="stroke:#000000; stroke-width:0.95664899999999997; fill:none" d="M 103.014 47.1076L 121.956 47.1076L 121.956 26.0646L 103.014 26.0646L 103.014 47.1076z"/>
<path style="stroke:#000000; stroke-width:0.95664899999999997; fill:none" d="M 46.1896 26.0606L 65.1306 26.0606L 65.1306 5.01764L 46.1896 5.01764L 46.1896 26.0606z"/>
<path style="stroke:#000000; stroke-width:0.95664899999999997; fill:none" d="M 65.1306 26.0606L 84.0726 26.0606L 84.0726 5.01764L 65.1306 5.01764L 65.1306 26.0606z"/>
<path style="stroke:#000000; stroke-width:0.95664899999999997; fill:none" d="M 84.0726 26.0606L 103.014 26.0606L 103.014 5.01764L 84.0726 5.01764L 84.0726 26.0606z"/>
<path style="stroke:#000000; stroke-width:0.95664899999999997; fill:none" d="M 103.014 26.0606L 121.956 26.0606L 121.956 5.01764L 103.014 5.01764L 103.014 26.0606z"/>
<path style="stroke:#000000; stroke-width:0.95664899999999997; fill:none" d="M 57.3847 78.6779C 57.3847 77.6232 56.6156 76.7678 55.6656 76.7678C 54.7167 76.7678 53.9476 77.6232 53.9476 78.6779C 53.9476 79.7326 54.7167 80.5881 55.6656 80.5881C 56.6156 80.5881 57.3847 79.7326 57.3847 78.6779"/>
<path style="stroke:#000000; stroke-width:0.95664899999999997; fill:none" d="M 78.0487 78.6779C 78.0487 76.5685 76.5097 74.8537 74.6076 74.8537C 72.7086 74.8537 71.1656 76.5646 71.1656 78.6779C 71.1656 80.7873 72.7057 82.5021 74.6076 82.5021C 76.5056 82.5021 78.0487 80.7912 78.0487 78.6779"/>
<path style="stroke:#000000; stroke-width:0.95664899999999997; fill:none" d="M 98.7086 78.6779C 98.7086 75.5099 96.3966 72.9396 93.5446 72.9396C 90.6936 72.9396 88.3806 75.506 88.3806 78.6779C 88.3806 81.8459 90.6936 84.4162 93.5446 84.4162C 96.3966 84.4162 98.7086 81.8498 98.7086 78.6779"/>
<path style="stroke:#000000; stroke-width:0.95664899999999997; fill:none" d="M 121.096 78.6779C 121.096 73.3967 117.245 69.1154 112.487 69.1154C 107.733 69.1154 103.877 73.3967 103.877 78.6779C 103.877 83.9592 107.729 88.2404 112.487 88.2404C 117.241 88.2404 121.096 83.9592 121.096 78.6779"/>
<path style="stroke:#000000; stroke-width:0.95664899999999997; fill:none" d="M 60.8267 57.631C 60.8267 54.4631 58.5136 51.8928 55.6627 51.8928C 52.8106 51.8928 50.4986 54.4592 50.4986 57.631C 50.4986 60.799 52.8106 63.3693 55.6627 63.3693C 58.5136 63.3693 60.8267 60.8029 60.8267 57.631"/>
<path style="stroke:#000000; stroke-width:0.95664899999999997; fill:none" d="M 70.2987 62.4162L 75.4626 52.8537L 80.6266 62.4162L 70.2987 62.4162"/>
<path style="stroke:#000000; stroke-width:0.95664899999999997; fill:none" d="M 89.2406 62.4162L 97.8496 62.4162L 97.8496 52.8498L 89.2406 52.8498L 89.2406 62.4162z"/>
<path style="stroke:#000000; stroke-width:0.95664899999999997; fill:none" d="M 111.627 52.8498L 113.346 52.8498L 113.346 56.674L 116.788 56.674L 116.788 58.5842L 113.346 58.5842L 113.346 62.4084L 111.627 62.4084L 111.627 58.5842L 108.186 58.5842L 108.186 56.674L 111.627 56.674L 111.627 52.8498"/>
<path style="stroke:#000000; stroke-width:0.95664899999999997; fill:none" d="M 54.7987 41.3693L 59.9626 47.1076"/>
<path style="stroke:#000000; stroke-width:0.95664899999999997; fill:none" d="M 54.7987 47.1076L 59.9626 41.3693"/>
<path style="stroke:#000000; stroke-width:0.95664899999999997; fill:none" d="M 72.0216 35.6276L 77.1856 41.3654"/>
<path style="stroke:#000000; stroke-width:0.95664899999999997; fill:none" d="M 72.0216 41.3693L 77.1856 35.6306"/>
<path style="stroke:#000000; stroke-width:0.95664899999999997; fill:none" d="M 90.9626 29.8886L 96.1266 35.6276"/>
<path style="stroke:#000000; stroke-width:0.95664899999999997; fill:none" d="M 90.9626 35.6276L 96.1266 29.8886"/>
<path style="stroke:#000000; stroke-width:0.95664899999999997; fill:none" d="M 109.905 26.0606L 115.069 31.7986"/>
<path style="stroke:#000000; stroke-width:0.95664899999999997; fill:none" d="M 109.905 31.8026L 115.069 26.0646"/>
<path style="stroke:none; fill-rule:evenodd; fill:#ffffff" d="M 60.8267 15.5376C 60.8267 12.3696 58.5136 9.79863 55.6627 9.79863C 52.8106 9.79863 50.4986 12.3656 50.4986 15.5376C 50.4986 18.7056 52.8106 21.2756 55.6627 21.2756C 58.5136 21.2756 60.8267 18.7096 60.8267 15.5376"/>
<path style="stroke:#000000; stroke-width:0.95664899999999997; fill:none" d="M 60.8267 15.5376C 60.8267 12.3696 58.5136 9.79863 55.6627 9.79863C 52.8106 9.79863 50.4986 12.3656 50.4986 15.5376C 50.4986 18.7056 52.8106 21.2756 55.6627 21.2756C 58.5136 21.2756 60.8267 18.7096 60.8267 15.5376"/>
<path style="stroke:none; fill-rule:evenodd; fill:#ffffff" d="M 79.7716 15.5376C 79.7716 12.3696 77.4586 9.79863 74.6076 9.79863C 71.7556 9.79863 69.4436 12.3656 69.4436 15.5376C 69.4436 18.7056 71.7556 21.2756 74.6076 21.2756C 77.4586 21.2756 79.7716 18.7096 79.7716 15.5376"/>
<path style="stroke:#000000; stroke-width:0.95664899999999997; fill:none" d="M 79.7716 15.5376C 79.7716 12.3696 77.4586 9.79863 74.6076 9.79863C 71.7556 9.79863 69.4436 12.3656 69.4436 15.5376C 69.4436 18.7056 71.7556 21.2756 74.6076 21.2756C 77.4586 21.2756 79.7716 18.7096 79.7716 15.5376"/>
<path style="stroke:none; fill-rule:evenodd; fill:#ffffff" d="M 98.7086 15.5376C 98.7086 12.3696 96.3966 9.79863 93.5446 9.79863C 90.6936 9.79863 88.3806 12.3656 88.3806 15.5376C 88.3806 18.7056 90.6936 21.2756 93.5446 21.2756C 96.3966 21.2756 98.7086 18.7096 98.7086 15.5376"/>
<path style="stroke:#000000; stroke-width:0.95664899999999997; fill:none" d="M 98.7086 15.5376C 98.7086 12.3696 96.3966 9.79863 93.5446 9.79863C 90.6936 9.79863 88.3806 12.3656 88.3806 15.5376C 88.3806 18.7056 90.6936 21.2756 93.5446 21.2756C 96.3966 21.2756 98.7086 18.7096 98.7086 15.5376"/>
<path style="stroke:none; fill-rule:evenodd; fill:#ffffff" d="M 117.655 15.5376C 117.655 12.3696 115.342 9.79863 112.491 9.79863C 109.639 9.79863 107.327 12.3656 107.327 15.5376C 107.327 18.7056 109.639 21.2756 112.491 21.2756C 115.342 21.2756 117.655 18.7096 117.655 15.5376"/>
<path style="stroke:#000000; stroke-width:0.95664899999999997; fill:none" d="M 117.655 15.5376C 117.655 12.3696 115.342 9.79863 112.491 9.79863C 109.639 9.79863 107.327 12.3656 107.327 15.5376C 107.327 18.7056 109.639 21.2756 112.491 21.2756C 115.342 21.2756 117.655 18.7096 117.655 15.5376"/>
<path style="stroke:#000000; stroke-width:0.95664899999999997; fill:none" d="M 45.8066 5.01364L 5.63065 26.0566"/>
<path style="stroke:#000000; stroke-width:0.95664899999999997; fill:none" d="M 32.4156 26.0606L 45.8066 22.2366"/>
<path style="stroke:#000000; stroke-width:0.95664899999999997; fill:none" d="M 5.62665 62.4162L 45.8027 110.244"/>
<path style="stroke:#000000; stroke-width:0.95664899999999997; fill:none" d="M 32.4156 62.4162L 45.8066 70.0685"/>
</g>
</svg>