<?xml version="1.0" encoding="ISO-8859-1" standalone="yes"?>
<svg width="419.527" height="246.161">
  <defs> 
    <marker id="ArrowEnd" viewBox="0 0 10 10" refX="0" refY="5" 
     markerUnits="strokeWidth" 
     markerWidth="4" 
     markerHeight="3" 
     orient="auto"> 
        <path d="M 0 0 L 10 5 L 0 10 z" /> 
    </marker>
    <marker id="ArrowStart" viewBox="0 0 10 10" refX="10" refY="5" 
     markerUnits="strokeWidth" 
     markerWidth="4" 
     markerHeight="3" 
     orient="auto"> 
        <path d="M 10 0 L 0 5 L 10 10 z" /> 
    </marker> </defs>
<g>
<path style="stroke:#000000; stroke-width:1.9133; fill:none" d="M 350.191 31.5433C 350.191 19.6603 318.063 10.0273 278.426 10.0273C 238.793 10.0273 206.66 19.6603 206.66 31.5433C 206.66 43.4263 238.789 53.0593 278.426 53.0593C 318.059 53.0593 350.191 43.4263 350.191 31.5433"/>
<path style="stroke:none; fill-rule:evenodd; fill:#ffff00" d="M 247.828 102.692C 247.828 93.3133 235.473 85.7073 220.227 85.7073C 204.984 85.7073 192.625 93.3133 192.625 102.692C 192.625 112.07 204.981 119.676 220.227 119.676C 235.469 119.676 247.828 112.07 247.828 102.692"/>
<path style="stroke:#000000; stroke-width:0.95664899999999997; fill:none" d="M 247.828 102.692C 247.828 93.3133 235.473 85.7073 220.227 85.7073C 204.984 85.7073 192.625 93.3133 192.625 102.692C 192.625 112.07 204.981 119.676 220.227 119.676C 235.469 119.676 247.828 112.07 247.828 102.692"/>
<path style="stroke:none; fill-rule:evenodd; fill:#dfdfdf" d="M 184.84 100.754C 184.84 96.2033 178.848 92.5163 171.449 92.5163C 164.055 92.5163 158.059 96.2033 158.059 100.754C 158.059 105.305 164.051 108.992 171.449 108.992C 178.844 108.992 184.84 105.305 184.84 100.754"/>
<path style="stroke:#000000; stroke-width:0.95664899999999997; fill:none" d="M 184.84 100.754C 184.84 96.2033 178.848 92.5163 171.449 92.5163C 164.055 92.5163 158.059 96.2033 158.059 100.754C 158.059 105.305 164.051 108.992 171.449 108.992C 178.844 108.992 184.84 105.305 184.84 100.754"/>
<path style="stroke:#000000; stroke-width:1.9133; fill:none" d="M 252.231 107.426C 252.231 92.7423 225.809 80.8323 193.215 80.8323C 160.621 80.8323 134.199 92.7383 134.199 107.426C 134.199 122.11 160.621 134.02 193.215 134.02C 225.809 134.02 252.231 122.113 252.231 107.426"/>
<path style="stroke:#000000; stroke-width:1.9133; fill:none" d="M 281.469 217.001C 281.469 206.438 266.91 197.868 248.945 197.868C 230.984 197.868 216.422 206.43 216.422 217.001C 216.422 227.563 230.984 236.133 248.945 236.133C 266.906 236.133 281.469 227.571 281.469 217.001"/>
<path style="stroke:#000000; stroke-width:1.9133; fill:none" d="M 279.074 158.153C 279.074 147.59 264.516 139.02 246.551 139.02C 228.59 139.02 214.027 147.582 214.027 158.153C 214.027 168.715 228.59 177.285 246.551 177.285C 264.512 177.285 279.074 168.723 279.074 158.153"/>
<path style="stroke:none; fill-rule:evenodd; fill:#000000" d="M 241.231 158.266L 237.336 158.266L 237.336 159.965L 239.547 159.965C 239.496 160.52 239.363 160.86 239.07 161.215C 238.594 161.809 237.859 162.164 237.086 162.164C 235.473 162.164 234.313 160.746 234.313 158.738C 234.313 156.641 235.336 155.367 237.031 155.367C 237.723 155.367 238.309 155.567 238.75 155.953C 239.027 156.192 239.176 156.418 239.348 156.922L 241.227 156.922C 240.988 154.93 239.359 153.668 237.012 153.668C 234.215 153.668 232.309 155.738 232.309 158.766C 232.309 161.715 234.227 163.863 236.856 163.863C 238.16 163.863 239.039 163.395 239.789 162.285L 240.027 163.578L 241.227 163.578L 241.231 158.266z"/>
<path style="stroke:none; fill-rule:evenodd; fill:#000000" d="M 245.109 160.067L 247.633 160.067C 249.441 160.067 250.606 158.793 250.606 156.805C 250.606 154.844 249.488 153.77 247.441 153.77L 243.109 153.77L 243.109 163.567L 245.109 163.567L 245.109 160.067zM 245.109 158.367L 245.109 155.469L 247.012 155.469C 248.098 155.469 248.602 155.93 248.602 156.922C 248.602 157.899 248.098 158.363 247.012 158.363L 245.109 158.367z"/>
<path style="stroke:none; fill-rule:evenodd; fill:#000000" d="M 258.129 160.567C 258.141 160.406 258.141 160.336 258.141 160.242C 258.141 159.508 258.035 158.828 257.863 158.309C 257.383 156.977 256.219 156.172 254.758 156.172C 252.684 156.172 251.41 157.68 251.41 160.113C 251.41 162.438 252.668 163.867 254.715 163.867C 256.332 163.867 257.645 162.949 258.063 161.531L 256.215 161.531C 255.988 162.121 255.465 162.465 254.785 162.465C 254.25 162.465 253.824 162.238 253.555 161.836C 253.383 161.57 253.316 161.25 253.289 160.567L 258.129 160.567zM 253.305 159.367C 253.422 158.168 253.891 157.57 254.723 157.57C 255.191 157.57 255.617 157.817 255.887 158.227C 256.059 158.52 256.141 158.824 256.18 159.367L 253.305 159.367z"/>
<path style="stroke:#000000; stroke-width:1.9133; fill:none" d="M 409.5 194.129C 409.5 184.524 394.133 176.738 375.168 176.738C 356.207 176.738 340.836 184.524 340.836 194.129C 340.836 203.735 356.203 211.52 375.168 211.52C 394.129 211.52 409.5 203.735 409.5 194.129"/>
<path style="stroke:none; fill-rule:evenodd; fill:#ff0000" d="M 241.492 134.82C 241.492 132.711 239.781 130.996 237.668 130.996C 235.559 130.996 233.844 132.707 233.844 134.82C 233.844 136.93 235.555 138.645 237.668 138.645C 239.777 138.645 241.492 136.934 241.492 134.82"/>
<path style="stroke:#ff0000; stroke-width:1.9133; fill:none" d="M 241.492 134.82C 241.492 132.711 239.781 130.996 237.668 130.996C 235.559 130.996 233.844 132.707 233.844 134.82C 233.844 136.93 235.555 138.645 237.668 138.645C 239.777 138.645 241.492 136.934 241.492 134.82"/>
<path style="stroke:#ff0000; stroke-dasharray:6,3; stroke-width:2.8699499999999998; fill:none" d="M 226.469 117.52L 239.859 138.563"/>
<path style="stroke:none; fill-rule:evenodd; fill:#ff0000" d="M 214.91 112.668C 214.508 112.668 214.262 112.883 214.262 113.266C 214.262 113.445 214.352 113.637 214.5 113.742C 214.602 113.824 214.75 113.86 215.023 113.86L 217.359 113.86C 218.352 113.86 219.039 113.598 219.602 113C 220.125 112.449 220.402 111.738 220.402 110.899L 220.402 110.36C 220.402 108.559 219.121 107.168 217.449 107.168L 215.023 107.168C 214.715 107.168 214.637 107.18 214.535 107.25C 214.363 107.356 214.262 107.559 214.262 107.766C 214.262 108.149 214.492 108.363 214.91 108.363L 214.91 112.668zM 216.109 112.668L 216.109 108.371L 217.344 108.371C 217.938 108.371 218.363 108.551 218.699 108.942C 219.023 109.32 219.203 109.817 219.203 110.344L 219.203 110.86C 219.203 111.43 219.059 111.824 218.742 112.172C 218.395 112.527 218.023 112.664 217.352 112.664L 216.109 112.668z"/>
<path style="stroke:none; fill-rule:evenodd; fill:#ff0000" d="M 223.387 112.668C 224.402 111.809 225.074 111.242 225.387 110.957C 226.531 109.938 226.809 109.508 226.809 108.77C 226.809 107.512 225.762 106.57 224.352 106.57C 223.672 106.57 223.016 106.797 222.555 107.207C 222.164 107.559 221.863 108.113 221.863 108.477C 221.863 108.77 222.125 109.02 222.43 109.02C 222.668 109.02 222.883 108.891 222.941 108.707C 223.066 108.363 223.078 108.34 223.191 108.211C 223.441 107.934 223.84 107.77 224.293 107.77C 225.031 107.77 225.602 108.211 225.602 108.789C 225.602 109.172 225.41 109.422 224.27 110.453C 223.758 110.918 223.543 111.098 221.625 112.672L 221.625 113.86L 226.836 113.86L 226.836 112.852C 226.836 112.578 226.816 112.473 226.758 112.371C 226.656 112.199 226.461 112.098 226.266 112.098C 225.91 112.098 225.731 112.285 225.695 112.664L 223.387 112.668z"/>
<path style="stroke:#000000; stroke-width:0.95664899999999997; fill:none" d="M 5.24211 74.4453L 113.176 74.4453L 113.176 27.5903L 5.24211 27.5903L 5.24211 74.4453z"/>
<path style="stroke:none; fill-rule:evenodd; fill:#0000ff" d="M 43.8281 35.2663C 43.8398 35.1063 43.8398 35.0353 43.8398 34.9423C 43.8398 34.2073 43.7343 33.5273 43.5625 33.0083C 43.082 31.6763 41.9179 30.8713 40.457 30.8713C 38.3828 30.8713 37.1093 32.3793 37.1093 34.8133C 37.1093 37.1373 38.3671 38.5673 40.414 38.5673C 42.0312 38.5673 43.3437 37.6493 43.7617 36.2313L 41.914 36.2313C 41.6875 36.8203 41.164 37.1643 40.4843 37.1643C 39.9492 37.1643 39.5234 36.9383 39.2539 36.5353C 39.082 36.2703 39.0156 35.9493 38.9882 35.2663L 43.8281 35.2663zM 39.0039 34.0673C 39.1211 32.8673 39.5898 32.2703 40.4218 32.2703C 40.8906 32.2703 41.3164 32.5163 41.5859 32.9263C 41.7578 33.2193 41.8398 33.5243 41.8789 34.0673L 39.0039 34.0673z"/>
<path style="stroke:none; fill-rule:evenodd; fill:#0000ff" d="M 49.0625 34.6413L 51.4179 31.0703L 49.1679 31.0703L 48.0039 33.2193L 46.8281 31.0703L 44.5781 31.0703L 46.9336 34.6413L 44.5234 38.2663L 46.7734 38.2663L 48.0039 36.0163L 49.2226 38.2663L 51.4726 38.2663L 49.0625 34.6413z"/>
<path style="stroke:none; fill-rule:evenodd; fill:#0000ff" d="M 58.6992 33.7383C 58.5664 31.9453 57.3789 30.8673 55.5547 30.8673C 53.3828 30.8673 52.1132 32.2933 52.1132 34.7703C 52.1132 37.1643 53.3671 38.5633 55.5273 38.5633C 57.2929 38.5633 58.5234 37.4853 58.6992 35.7623L 56.8945 35.7623C 56.6523 36.6993 56.2773 37.0633 55.5468 37.0633C 54.5937 37.0633 54.0117 36.1953 54.0117 34.7703C 54.0117 34.0783 54.1445 33.4263 54.375 32.9923C 54.5898 32.5863 55.0078 32.3673 55.5468 32.3673C 56.3125 32.3673 56.6757 32.7423 56.8945 33.7383L 58.6992 33.7383z"/>
<path style="stroke:none; fill-rule:evenodd; fill:#0000ff" d="M 61.9101 31.0353L 60.0117 31.0353L 60.0117 38.2663L 61.9101 38.2663L 61.9101 31.0353zM 61.9101 28.4653L 60.0117 28.4653L 60.0117 30.1643L 61.9101 30.1643L 61.9101 28.4653z"/>
<path style="stroke:none; fill-rule:evenodd; fill:#0000ff" d="M 66.9414 31.1683L 65.914 31.1683L 65.914 29.2423L 64.0156 29.2423L 64.0156 31.1683L 63.1054 31.1683L 63.1054 32.3673L 64.0156 32.3673L 64.0156 36.8523C 64.0156 37.9963 64.6171 38.5673 65.8554 38.5673C 66.2695 38.5673 66.6054 38.5273 66.9414 38.4223L 66.9414 37.1173C 66.7578 37.1493 66.6523 37.1683 66.5195 37.1683C 66.0312 37.1683 65.914 37.0203 65.914 36.3673L 65.914 32.3713L 66.9414 32.3713L 66.9414 31.1683z"/>
<path style="stroke:none; fill-rule:evenodd; fill:#0000ff" d="M 74.3279 38.0273C 74.0039 37.7193 73.9099 37.5203 73.9099 37.1413L 73.9099 33.1063C 73.9099 31.6293 72.9059 30.8713 70.9449 30.8713C 68.9879 30.8713 67.9689 31.7153 67.8479 33.4223L 69.6719 33.4223C 69.7659 32.6293 70.0739 32.3713 71.0119 32.3713C 71.7419 32.3713 72.1059 32.6133 72.1059 33.0983C 72.1059 33.3403 71.9879 33.5553 71.7849 33.6643C 71.5309 33.7973 71.5309 33.7973 70.6019 33.9453L 69.8479 34.0783C 68.4099 34.3203 67.7109 35.0633 67.7109 36.3713C 67.7109 36.9883 67.8829 37.5043 68.2189 37.8673C 68.6329 38.2973 69.2619 38.5553 69.9059 38.5553C 70.7109 38.5553 71.4489 38.2073 72.1059 37.5203C 72.1059 37.8953 72.1409 38.0313 72.3159 38.2463L 74.3199 38.2463L 74.3279 38.0273zM 72.1089 35.3633C 72.1089 36.4493 71.5739 37.0673 70.6289 37.0673C 70.0039 37.0673 69.6129 36.7313 69.6129 36.1953C 69.6129 35.6333 69.9059 35.3673 70.6799 35.2033L 71.3199 35.0863C 71.8129 34.9923 71.8949 34.9693 72.1059 34.8603L 72.1089 35.3633z"/>
<path style="stroke:none; fill-rule:evenodd; fill:#0000ff" d="M 78.8399 31.1683L 77.8129 31.1683L 77.8129 29.2423L 75.9139 29.2423L 75.9139 31.1683L 75.0039 31.1683L 75.0039 32.3673L 75.9139 32.3673L 75.9139 36.8523C 75.9139 37.9963 76.5159 38.5673 77.7539 38.5673C 78.1679 38.5673 78.5039 38.5273 78.8399 38.4223L 78.8399 37.1173C 78.6559 37.1493 78.5509 37.1683 78.4179 37.1683C 77.9299 37.1683 77.8129 37.0203 77.8129 36.3673L 77.8129 32.3713L 78.8399 32.3713L 78.8399 31.1683z"/>
<path style="stroke:none; fill-rule:evenodd; fill:#0000ff" d="M 83.2459 30.8673C 81.0549 30.8673 79.7109 32.3323 79.7109 34.7153C 79.7109 37.1103 81.0509 38.5633 83.2579 38.5633C 85.4379 38.5633 86.8049 37.0983 86.8049 34.7703C 86.8049 32.3093 85.4919 30.8673 83.2419 30.8673L 83.2459 30.8673zM 83.2579 32.3673C 84.2579 32.3673 84.9059 33.3053 84.9059 34.7423C 84.9059 36.1103 84.2309 37.0633 83.2579 37.0633C 82.2729 37.0633 81.6089 36.1133 81.6089 34.7153C 81.6089 33.3173 82.2699 32.3673 83.2579 32.3673z"/>
<path style="stroke:none; fill-rule:evenodd; fill:#0000ff" d="M 88.2109 31.0673L 88.2109 38.2663L 90.1089 38.2663L 90.1089 34.4883C 90.1089 33.4103 90.6599 32.8713 91.7699 32.8713C 91.9689 32.8713 92.1059 32.8633 92.3629 32.8363L 92.3629 30.9773C 92.2579 30.9773 92.1879 30.9773 92.1369 30.9773C 91.2729 30.9773 90.5199 31.5203 90.1129 32.4613L 90.1129 31.0743L 88.2109 31.0673z"/>
<path style="stroke:none; fill-rule:evenodd; fill:#0000ff" d="M 97.8869 31.0673L 96.3869 36.2973L 94.7929 31.0673L 92.7339 31.0673L 95.4259 38.5203L 95.4259 38.5703C 95.4259 39.2463 94.9179 39.7623 94.2619 39.7623C 94.1169 39.7623 94.0079 39.7583 93.7699 39.7383L 93.7699 41.1133C 94.0469 41.1493 94.2109 41.1643 94.4379 41.1643C 94.9059 41.1643 95.4649 41.0743 95.7889 40.9423C 96.3089 40.7313 96.5389 40.4263 96.8439 39.5743L 99.8159 31.0703L 97.8869 31.0673z"/>
<path style="stroke:none; fill-rule:evenodd; fill:#ff0000" d="M 32.9843 50.0743C 32.9843 47.9653 31.2734 46.2503 29.1601 46.2503C 27.0507 46.2503 25.3359 47.9613 25.3359 50.0743C 25.3359 52.1843 27.0468 53.8993 29.1601 53.8993C 31.2695 53.8993 32.9843 52.1883 32.9843 50.0743"/>
<path style="stroke:#ff0000; stroke-width:1.9133; fill:none" d="M 32.9843 50.0743C 32.9843 47.9653 31.2734 46.2503 29.1601 46.2503C 27.0507 46.2503 25.3359 47.9613 25.3359 50.0743C 25.3359 52.1843 27.0468 53.8993 29.1601 53.8993C 31.2695 53.8993 32.9843 52.1883 32.9843 50.0743"/>
<path style="stroke:none; fill-rule:evenodd; fill:#ff0000" d="M 40.6093 45.4343L 38.7109 45.4343L 38.7109 52.6643L 40.6093 52.6643L 40.6093 45.4343zM 40.6093 42.8673L 38.7109 42.8673L 38.7109 44.5673L 40.6093 44.5673L 40.6093 42.8673z"/>
<path style="stroke:none; fill-rule:evenodd; fill:#ff0000" d="M 42.3086 45.4653L 42.3086 52.6643L 44.207 52.6643L 44.207 48.2973C 44.207 47.4383 44.8047 46.8673 45.707 46.8673C 46.5039 46.8673 46.9023 47.3133 46.9023 48.1763L 46.9023 52.6643L 48.8007 52.6643L 48.8007 47.7853C 48.8007 46.1843 47.9179 45.2663 46.375 45.2663C 45.3984 45.2663 44.7421 45.6413 44.2031 46.4773L 44.2031 45.4653L 42.3086 45.4653z"/>
<path style="stroke:none; fill-rule:evenodd; fill:#ff0000" d="M 50.6093 42.8673L 50.6093 52.6643L 52.5078 52.6643L 52.5078 48.2973C 52.5078 47.4613 53.1093 46.8673 53.9531 46.8673C 54.3515 46.8673 54.6757 47.0163 54.8906 47.3133C 55.0507 47.5553 55.1054 47.7423 55.1054 48.2153L 55.1054 52.6643L 57.0039 52.6643L 57.0039 47.7853C 57.0039 46.8833 56.7617 46.2383 56.2656 45.8203C 55.8476 45.4733 55.2421 45.2703 54.6367 45.2703C 53.707 45.2703 53.0351 45.6563 52.5078 46.4813L 52.5078 42.8713L 50.6093 42.8673z"/>
<path style="stroke:none; fill-rule:evenodd; fill:#ff0000" d="M 60.6093 45.4343L 58.7109 45.4343L 58.7109 52.6643L 60.6093 52.6643L 60.6093 45.4343zM 60.6093 42.8673L 58.7109 42.8673L 58.7109 44.5673L 60.6093 44.5673L 60.6093 42.8673z"/>
<path style="stroke:none; fill-rule:evenodd; fill:#ff0000" d="M 62.4101 42.8673L 62.4101 52.6563L 64.3086 52.6563L 64.3086 51.9183C 64.7578 52.6293 65.3828 52.9653 66.289 52.9653C 68.0039 52.9653 69.3049 51.3133 69.3049 49.1173C 69.3049 48.1373 69.0119 47.1413 68.5349 46.4423C 68.0469 45.7313 67.1679 45.2703 66.289 45.2703C 65.3984 45.2703 64.7617 45.6173 64.3086 46.3713L 64.3086 42.8673L 62.4101 42.8673zM 65.8593 46.8673C 66.7617 46.8673 67.4059 47.7973 67.4059 49.1293C 67.4059 50.4343 66.7656 51.3633 65.8593 51.3633C 64.9297 51.3633 64.3125 50.4613 64.3125 49.0903C 64.3125 47.7893 64.9414 46.8673 65.8593 46.8673z"/>
<path style="stroke:none; fill-rule:evenodd; fill:#ff0000" d="M 72.6089 45.4343L 70.7109 45.4343L 70.7109 52.6643L 72.6089 52.6643L 72.6089 45.4343zM 72.6089 42.8673L 70.7109 42.8673L 70.7109 44.5673L 72.6089 44.5673L 72.6089 42.8673z"/>
<path style="stroke:none; fill-rule:evenodd; fill:#ff0000" d="M 77.5389 45.5673L 76.5119 45.5673L 76.5119 43.6413L 74.6129 43.6413L 74.6129 45.5673L 73.7029 45.5673L 73.7029 46.7663L 74.6129 46.7663L 74.6129 51.2503C 74.6129 52.3953 75.2149 52.9653 76.4529 52.9653C 76.8669 52.9653 77.2029 52.9263 77.5389 52.8203L 77.5389 51.5163C 77.3559 51.5473 77.2499 51.5673 77.1169 51.5673C 76.6289 51.5673 76.5119 51.4183 76.5119 50.7663L 76.5119 46.7703L 77.5389 46.7703L 77.5389 45.5673z"/>
<path style="stroke:none; fill-rule:evenodd; fill:#ff0000" d="M 81.9449 45.2663C 79.7539 45.2663 78.4099 46.7313 78.4099 49.1133C 78.4099 51.5083 79.7499 52.9613 81.9569 52.9613C 84.1369 52.9613 85.5039 51.4963 85.5039 49.1683C 85.5039 46.7073 84.1909 45.2663 81.9409 45.2663L 81.9449 45.2663zM 81.9609 46.7663C 82.9609 46.7663 83.6089 47.7033 83.6089 49.1413C 83.6089 50.5083 82.9339 51.4613 81.9609 51.4613C 80.9769 51.4613 80.3129 50.5123 80.3129 49.1133C 80.3129 47.7153 80.9729 46.7663 81.9609 46.7663z"/>
<path style="stroke:none; fill-rule:evenodd; fill:#ff0000" d="M 86.9099 45.4653L 86.9099 52.6643L 88.8089 52.6643L 88.8089 48.8873C 88.8089 47.8093 89.3589 47.2703 90.4689 47.2703C 90.6679 47.2703 90.8049 47.2623 91.0629 47.2353L 91.0629 45.3753C 90.9569 45.3753 90.8869 45.3753 90.8359 45.3753C 89.9729 45.3753 89.2189 45.9183 88.8129 46.8603L 88.8129 45.4733L 86.9099 45.4653z"/>
<path style="stroke:none; fill-rule:evenodd; fill:#ff0000" d="M 96.5859 45.4653L 95.0859 50.6953L 93.4919 45.4653L 91.4339 45.4653L 94.1249 52.9183L 94.1249 52.9693C 94.1249 53.6453 93.6169 54.1603 92.9609 54.1603C 92.8159 54.1603 92.7069 54.1563 92.4689 54.1373L 92.4689 55.5123C 92.7459 55.5473 92.9099 55.5633 93.1369 55.5633C 93.6059 55.5633 94.1639 55.4733 94.4879 55.3403C 95.0079 55.1293 95.2379 54.8243 95.5429 53.9733L 98.5159 45.4693L 96.5859 45.4653z"/>
<path style="stroke:#ff0000; stroke-dasharray:6,3; stroke-width:1.9133; fill:none" d="M 10.0273 50.0703L 31.0703 50.0703"/>
<path style="stroke:#bd00ff; stroke-dasharray:6,3; stroke-width:1.9133; fill:none" d="M 10.0273 63.4653L 29.1601 63.4653"/>
<path style="stroke:none; fill-rule:evenodd; fill:#bd00ff" d="M 32.1953 59.3363L 32.6523 67.4383L 25.6718 63.7703"/>
<path style="stroke:#bd00ff; stroke-width:1.9133; fill:none" d="M 32.1953 59.3363L 32.6523 67.4383L 25.6718 63.7703L 32.1953 59.3363z"/>
<path style="stroke:none; fill-rule:evenodd; fill:#bd00ff" d="M 37.1093 59.3673L 37.1093 66.5673L 39.0078 66.5673L 39.0078 62.1993C 39.0078 61.3133 39.4882 60.7703 40.289 60.7703C 40.914 60.7703 41.3047 61.1333 41.3047 61.7113L 41.3047 66.5633L 43.2031 66.5633L 43.2031 62.1953C 43.2031 61.3093 43.664 60.7663 44.4297 60.7663C 45.0273 60.7663 45.3984 61.1293 45.3984 61.7073L 45.3984 66.5593L 47.2968 66.5593L 47.2968 61.4143C 47.2968 60.0003 46.4492 59.1643 45.0156 59.1643C 44.1132 59.1643 43.4765 59.5003 42.9179 60.2813C 42.5742 59.5703 41.8593 59.1643 40.9687 59.1643C 40.1484 59.1643 39.6171 59.4573 39.0039 60.2273L 39.0039 59.3633L 37.1093 59.3673z"/>
<path style="stroke:none; fill-rule:evenodd; fill:#bd00ff" d="M 52.2461 59.1683C 50.0547 59.1683 48.7109 60.6333 48.7109 63.0163C 48.7109 65.4103 50.0507 66.8633 52.2578 66.8633C 54.4375 66.8633 55.8047 65.3993 55.8047 63.0703C 55.8047 60.6103 54.4921 59.1683 52.2421 59.1683L 52.2461 59.1683zM 52.2578 60.6683C 53.2578 60.6683 53.9062 61.6063 53.9062 63.0433C 53.9062 64.4103 53.2304 65.3633 52.2578 65.3633C 51.2734 65.3633 50.6093 64.4143 50.6093 63.0163C 50.6093 61.6173 51.2695 60.6683 52.2578 60.6683z"/>
<path style="stroke:none; fill-rule:evenodd; fill:#bd00ff" d="M 61.8086 66.5593L 63.707 66.5593L 63.707 56.7703L 61.8086 56.7703L 61.8086 60.2743C 61.3437 59.5203 60.7187 59.1723 59.8281 59.1723C 58.1132 59.1723 56.8125 60.8403 56.8125 63.0353C 56.8125 64.0163 57.1054 65.0123 57.582 65.7113C 58.0703 66.4103 58.9492 66.8673 59.8281 66.8673C 60.7187 66.8673 61.3437 66.5313 61.8086 65.8203L 61.8086 66.5593zM 60.2578 60.7663C 61.1875 60.7663 61.8047 61.6843 61.8047 63.0513C 61.8047 64.3563 61.1757 65.2583 60.2578 65.2583C 59.3398 65.2583 58.7109 64.3403 58.7109 63.0243C 58.7109 61.6953 59.3398 60.7623 60.2578 60.7623L 60.2578 60.7663z"/>
<path style="stroke:none; fill-rule:evenodd; fill:#bd00ff" d="M 71.9099 66.5593L 71.9099 59.3673L 70.0119 59.3673L 70.0119 63.8563C 70.0119 64.7033 69.4139 65.2623 68.5119 65.2623C 67.7149 65.2623 67.3159 64.8403 67.3159 63.9773L 67.3159 59.3673L 65.4179 59.3673L 65.4179 64.3753C 65.4179 65.9573 66.3007 66.8633 67.8439 66.8633C 68.8199 66.8633 69.4769 66.5083 70.0159 65.7073L 70.0159 66.5593L 71.9099 66.5593z"/>
<path style="stroke:none; fill-rule:evenodd; fill:#bd00ff" d="M 73.7109 66.5673L 75.6089 66.5673L 75.6089 56.7703L 73.7109 56.7703L 73.7109 66.5673z"/>
<path style="stroke:none; fill-rule:evenodd; fill:#bd00ff" d="M 83.5269 66.3283C 83.2029 66.0203 83.1089 65.8203 83.1089 65.4423L 83.1089 61.4063C 83.1089 59.9303 82.1059 59.1723 80.1449 59.1723C 78.1879 59.1723 77.1679 60.0163 77.0469 61.7233L 78.8709 61.7233C 78.9649 60.9303 79.2729 60.6723 80.2109 60.6723C 80.9409 60.6723 81.3049 60.9143 81.3049 61.3993C 81.3049 61.6413 81.1879 61.8563 80.9839 61.9653C 80.7309 62.0983 80.7309 62.0983 79.8009 62.2463L 79.0469 62.3793C 77.6089 62.6213 76.9099 63.3633 76.9099 64.6723C 76.9099 65.2893 77.0819 65.8053 77.4179 66.1683C 77.8319 66.5983 78.4609 66.8563 79.1059 66.8563C 79.9099 66.8563 80.6489 66.5083 81.3049 65.8203C 81.3049 66.1953 81.3399 66.3323 81.5159 66.5473L 83.5199 66.5473L 83.5269 66.3283zM 81.3089 63.6603C 81.3089 64.7463 80.7729 65.3633 79.8279 65.3633C 79.2029 65.3633 78.8129 65.0273 78.8129 64.4923C 78.8129 63.9303 79.1059 63.6643 79.8789 63.5003L 80.5199 63.3833C 81.0119 63.2893 81.0939 63.2663 81.3049 63.1563L 81.3089 63.6603z"/>
<path style="stroke:none; fill-rule:evenodd; fill:#bd00ff" d="M 88.0389 59.4653L 87.0119 59.4653L 87.0119 57.5393L 85.1129 57.5393L 85.1129 59.4653L 84.2029 59.4653L 84.2029 60.6643L 85.1129 60.6643L 85.1129 65.1493C 85.1129 66.2933 85.7149 66.8633 86.9529 66.8633C 87.3669 66.8633 87.7029 66.8243 88.0389 66.7193L 88.0389 65.4143C 87.8559 65.4453 87.7499 65.4653 87.6169 65.4653C 87.1289 65.4653 87.0119 65.3173 87.0119 64.6643L 87.0119 60.6683L 88.0389 60.6683L 88.0389 59.4653z"/>
<path style="stroke:none; fill-rule:evenodd; fill:#bd00ff" d="M 92.4449 59.1683C 90.2539 59.1683 88.9099 60.6333 88.9099 63.0163C 88.9099 65.4103 90.2499 66.8633 92.4569 66.8633C 94.6369 66.8633 96.0039 65.3993 96.0039 63.0703C 96.0039 60.6103 94.6909 59.1683 92.4409 59.1683L 92.4449 59.1683zM 92.4609 60.6683C 93.4609 60.6683 94.1089 61.6063 94.1089 63.0433C 94.1089 64.4103 93.4339 65.3633 92.4609 65.3633C 91.4769 65.3633 90.8129 64.4143 90.8129 63.0163C 90.8129 61.6173 91.4729 60.6683 92.4609 60.6683z"/>
<path style="stroke:none; fill-rule:evenodd; fill:#bd00ff" d="M 97.4099 59.3673L 97.4099 66.5673L 99.3089 66.5673L 99.3089 62.7893C 99.3089 61.7113 99.8589 61.1723 100.969 61.1723C 101.168 61.1723 101.305 61.1643 101.563 61.1373L 101.563 59.2773C 101.457 59.2773 101.387 59.2773 101.336 59.2773C 100.473 59.2773 99.7189 59.8203 99.3129 60.7623L 99.3129 59.3753L 97.4099 59.3673z"/>
<path style="stroke:none; fill-rule:evenodd; fill:#bd00ff" d="M 107.086 59.3673L 105.586 64.5983L 103.992 59.3673L 101.934 59.3673L 104.625 66.8203L 104.625 66.8713C 104.625 67.5473 104.117 68.0633 103.461 68.0633C 103.316 68.0633 103.207 68.0593 102.969 68.0393L 102.969 69.4143C 103.246 69.4493 103.41 69.4653 103.637 69.4653C 104.106 69.4653 104.664 69.3753 104.988 69.2423C 105.508 69.0313 105.738 68.7273 106.043 67.8753L 109.016 59.3713L 107.086 59.3673z"/>
<path style="stroke:#0000ff; stroke-width:1.9133; fill:none" d="M 10.0273 36.6803L 31.0703 36.6803"/>
<path style="stroke:#0000ff; stroke-width:1.9133; fill:none" d="M 23.4218 34.7663L 31.0742 36.6763L 23.4218 38.5863"/>
<path style="stroke:none; fill-rule:evenodd; fill:#000000" d="M 178.672 122.863C 178.645 121.309 177.461 120.367 175.504 120.367C 173.66 120.367 172.512 121.293 172.512 122.781C 172.512 123.262 172.66 123.68 172.918 123.961C 173.172 124.215 173.402 124.336 174.109 124.563L 176.371 125.258C 176.844 125.403 177.008 125.551 177.008 125.848C 177.008 126.289 176.484 126.559 175.613 126.559C 175.133 126.559 174.742 126.469 174.5 126.317C 174.301 126.176 174.219 126.035 174.141 125.66L 172.305 125.66C 172.356 127.235 173.527 128.059 175.738 128.059C 176.746 128.059 177.512 127.848 178.051 127.418C 178.586 126.992 178.91 126.32 178.91 125.61C 178.91 124.672 178.438 124.067 177.477 123.785L 175.078 123.102C 174.551 122.942 174.418 122.836 174.418 122.539C 174.418 122.141 174.848 121.867 175.504 121.867C 176.402 121.867 176.848 122.192 176.859 122.863L 178.672 122.863z"/>
<path style="stroke:none; fill-rule:evenodd; fill:#000000" d="M 183.441 120.668L 182.414 120.668L 182.414 118.742L 180.516 118.742L 180.516 120.668L 179.606 120.668L 179.606 121.867L 180.516 121.867L 180.516 126.352C 180.516 127.496 181.117 128.067 182.356 128.067C 182.77 128.067 183.106 128.027 183.441 127.922L 183.441 126.617C 183.258 126.649 183.152 126.668 183.02 126.668C 182.531 126.668 182.414 126.52 182.414 125.867L 182.414 121.871L 183.441 121.871L 183.441 120.668z"/>
<path style="stroke:none; fill-rule:evenodd; fill:#000000" d="M 184.609 120.567L 184.609 127.766L 186.508 127.766L 186.508 123.988C 186.508 122.91 187.059 122.371 188.168 122.371C 188.367 122.371 188.504 122.363 188.762 122.336L 188.762 120.477C 188.656 120.477 188.586 120.477 188.535 120.477C 187.672 120.477 186.918 121.02 186.512 121.961L 186.512 120.574L 184.609 120.567z"/>
<path style="stroke:none; fill-rule:evenodd; fill:#000000" d="M 191.809 120.535L 189.91 120.535L 189.91 127.766L 191.809 127.766L 191.809 120.535zM 191.809 117.965L 189.91 117.965L 189.91 119.664L 191.809 119.664L 191.809 117.965z"/>
<path style="stroke:none; fill-rule:evenodd; fill:#000000" d="M 199.727 127.527C 199.402 127.219 199.309 127.02 199.309 126.641L 199.309 122.606C 199.309 121.129 198.305 120.371 196.344 120.371C 194.387 120.371 193.367 121.215 193.246 122.922L 195.07 122.922C 195.164 122.129 195.473 121.871 196.41 121.871C 197.141 121.871 197.504 122.113 197.504 122.598C 197.504 122.84 197.387 123.055 197.184 123.164C 196.93 123.297 196.93 123.297 196 123.445L 195.246 123.578C 193.809 123.82 193.109 124.563 193.109 125.871C 193.109 126.488 193.281 127.004 193.617 127.367C 194.031 127.797 194.66 128.055 195.305 128.055C 196.109 128.055 196.848 127.707 197.504 127.02C 197.504 127.395 197.539 127.531 197.715 127.746L 199.719 127.746L 199.727 127.527zM 197.508 124.863C 197.508 125.949 196.973 126.567 196.027 126.567C 195.402 126.567 195.012 126.231 195.012 125.695C 195.012 125.133 195.305 124.867 196.078 124.703L 196.719 124.586C 197.211 124.492 197.293 124.469 197.504 124.36L 197.508 124.863z"/>
<path style="stroke:none; fill-rule:evenodd; fill:#000000" d="M 204.238 120.668L 203.211 120.668L 203.211 118.742L 201.313 118.742L 201.313 120.668L 200.402 120.668L 200.402 121.867L 201.313 121.867L 201.313 126.352C 201.313 127.496 201.914 128.067 203.152 128.067C 203.566 128.067 203.902 128.027 204.238 127.922L 204.238 126.617C 204.055 126.649 203.949 126.668 203.816 126.668C 203.328 126.668 203.211 126.52 203.211 125.867L 203.211 121.871L 204.238 121.871L 204.238 120.668z"/>
<path style="stroke:none; fill-rule:evenodd; fill:#000000" d="M 212.008 127.762L 212.008 120.57L 210.109 120.57L 210.109 125.059C 210.109 125.906 209.512 126.465 208.609 126.465C 207.813 126.465 207.414 126.043 207.414 125.18L 207.414 120.57L 205.516 120.57L 205.516 125.578C 205.516 127.16 206.399 128.067 207.941 128.067C 208.918 128.067 209.574 127.711 210.113 126.91L 210.113 127.762L 212.008 127.762z"/>
<path style="stroke:none; fill-rule:evenodd; fill:#000000" d="M 213.609 120.567L 213.609 127.766L 215.508 127.766L 215.508 123.399C 215.508 122.512 215.988 121.969 216.789 121.969C 217.414 121.969 217.805 122.332 217.805 122.91L 217.805 127.762L 219.703 127.762L 219.703 123.395C 219.703 122.508 220.164 121.965 220.93 121.965C 221.527 121.965 221.899 122.328 221.899 122.906L 221.899 127.758L 223.797 127.758L 223.797 122.613C 223.797 121.199 222.949 120.363 221.516 120.363C 220.613 120.363 219.977 120.699 219.418 121.481C 219.074 120.77 218.359 120.363 217.469 120.363C 216.649 120.363 216.117 120.656 215.504 121.426L 215.504 120.563L 213.609 120.567z"/>
<path style="stroke:#ff0000; stroke-dasharray:6,3; stroke-width:2.8699499999999998; fill:none" d="M 250.379 178.254L 254.203 193.559"/>
<path style="stroke:none; fill-rule:evenodd; fill:#000000" d="M 264.609 185.168L 266.609 185.168L 266.609 175.371L 264.609 175.371L 264.609 185.168z"/>
<path style="stroke:none; fill-rule:evenodd; fill:#000000" d="M 268.309 177.965L 268.309 185.164L 270.207 185.164L 270.207 180.797C 270.207 179.938 270.805 179.367 271.707 179.367C 272.504 179.367 272.902 179.813 272.902 180.676L 272.902 185.164L 274.801 185.164L 274.801 180.285C 274.801 178.684 273.918 177.766 272.375 177.766C 271.399 177.766 270.742 178.141 270.203 178.977L 270.203 177.965L 268.309 177.965z"/>
<path style="stroke:none; fill-rule:evenodd; fill:#000000" d="M 281.109 185.156L 283.008 185.156L 283.008 175.367L 281.109 175.367L 281.109 178.871C 280.645 178.117 280.02 177.77 279.129 177.77C 277.414 177.77 276.113 179.438 276.113 181.633C 276.113 182.613 276.406 183.61 276.883 184.309C 277.371 185.008 278.25 185.465 279.129 185.465C 280.02 185.465 280.645 185.129 281.109 184.418L 281.109 185.156zM 279.559 179.367C 280.488 179.367 281.106 180.285 281.106 181.653C 281.106 182.957 280.477 183.86 279.559 183.86C 278.641 183.86 278.012 182.942 278.012 181.625C 278.012 180.297 278.641 179.363 279.559 179.363L 279.559 179.367z"/>
<path style="stroke:none; fill-rule:evenodd; fill:#000000" d="M 286.609 177.934L 284.711 177.934L 284.711 185.164L 286.609 185.164L 286.609 177.934zM 286.609 175.367L 284.711 175.367L 284.711 177.067L 286.609 177.067L 286.609 175.367z"/>
<path style="stroke:none; fill-rule:evenodd; fill:#000000" d="M 288.41 177.965L 288.41 185.164L 290.309 185.164L 290.309 181.387C 290.309 180.309 290.859 179.77 291.969 179.77C 292.168 179.77 292.305 179.762 292.563 179.735L 292.563 177.875C 292.457 177.875 292.387 177.875 292.336 177.875C 291.473 177.875 290.719 178.418 290.313 179.36L 290.313 177.973L 288.41 177.965z"/>
<path style="stroke:none; fill-rule:evenodd; fill:#000000" d="M 299.828 182.168C 299.84 182.008 299.84 181.938 299.84 181.844C 299.84 181.11 299.734 180.43 299.563 179.91C 299.082 178.578 297.918 177.774 296.457 177.774C 294.383 177.774 293.109 179.281 293.109 181.715C 293.109 184.039 294.367 185.469 296.414 185.469C 298.031 185.469 299.344 184.551 299.762 183.133L 297.914 183.133C 297.688 183.723 297.164 184.067 296.484 184.067C 295.949 184.067 295.523 183.84 295.254 183.438C 295.082 183.172 295.016 182.852 294.988 182.168L 299.828 182.168zM 295.004 180.965C 295.121 179.766 295.59 179.168 296.422 179.168C 296.891 179.168 297.316 179.414 297.586 179.824C 297.758 180.117 297.84 180.422 297.879 180.965L 295.004 180.965z"/>
<path style="stroke:none; fill-rule:evenodd; fill:#000000" d="M 307.199 180.641C 307.066 178.848 305.879 177.77 304.055 177.77C 301.883 177.77 300.613 179.195 300.613 181.672C 300.613 184.067 301.867 185.465 304.027 185.465C 305.793 185.465 307.023 184.387 307.199 182.664L 305.395 182.664C 305.152 183.602 304.777 183.965 304.047 183.965C 303.094 183.965 302.512 183.098 302.512 181.672C 302.512 180.981 302.645 180.328 302.875 179.895C 303.09 179.488 303.508 179.27 304.047 179.27C 304.813 179.27 305.176 179.645 305.395 180.641L 307.199 180.641z"/>
<path style="stroke:none; fill-rule:evenodd; fill:#000000" d="M 311.738 178.067L 310.711 178.067L 310.711 176.141L 308.813 176.141L 308.813 178.067L 307.902 178.067L 307.902 179.266L 308.813 179.266L 308.813 183.75C 308.813 184.895 309.414 185.465 310.652 185.465C 311.066 185.465 311.402 185.426 311.738 185.32L 311.738 184.016C 311.555 184.047 311.449 184.067 311.316 184.067C 310.828 184.067 310.711 183.918 310.711 183.266L 310.711 179.27L 311.738 179.27L 311.738 178.067z"/>
<path style="stroke:none; fill-rule:evenodd; fill:#000000" d="M 163.809 181.766L 167.629 181.766C 169.117 181.766 170.055 181.418 170.711 180.625C 171.488 179.715 171.902 178.383 171.902 176.863C 171.902 175.36 171.488 174.027 170.711 173.102C 170.055 172.309 169.133 171.973 167.629 171.973L 163.809 171.973L 163.809 181.766zM 165.809 180.067L 165.809 173.668L 167.625 173.668C 169.149 173.668 169.902 174.723 169.902 176.871C 169.902 179.008 169.149 180.063 167.625 180.063L 165.809 180.067z"/>
<path style="stroke:none; fill-rule:evenodd; fill:#000000" d="M 175.309 174.535L 173.41 174.535L 173.41 181.766L 175.309 181.766L 175.309 174.535zM 175.309 171.965L 173.41 171.965L 173.41 173.664L 175.309 173.664L 175.309 171.965z"/>
<path style="stroke:none; fill-rule:evenodd; fill:#000000" d="M 177.008 174.567L 177.008 181.766L 178.906 181.766L 178.906 177.988C 178.906 176.91 179.457 176.371 180.566 176.371C 180.766 176.371 180.902 176.363 181.16 176.336L 181.16 174.477C 181.055 174.477 180.984 174.477 180.934 174.477C 180.07 174.477 179.316 175.02 178.91 175.961L 178.91 174.574L 177.008 174.567z"/>
<path style="stroke:none; fill-rule:evenodd; fill:#000000" d="M 188.426 178.766C 188.438 178.606 188.438 178.535 188.438 178.442C 188.438 177.707 188.332 177.027 188.16 176.508C 187.68 175.176 186.516 174.371 185.055 174.371C 182.981 174.371 181.707 175.879 181.707 178.313C 181.707 180.637 182.965 182.067 185.012 182.067C 186.629 182.067 187.941 181.149 188.359 179.731L 186.512 179.731C 186.285 180.32 185.762 180.664 185.082 180.664C 184.547 180.664 184.121 180.438 183.852 180.035C 183.68 179.77 183.613 179.449 183.586 178.766L 188.426 178.766zM 183.606 177.567C 183.723 176.367 184.191 175.77 185.023 175.77C 185.492 175.77 185.918 176.016 186.188 176.426C 186.359 176.719 186.441 177.024 186.481 177.567L 183.606 177.567z"/>
<path style="stroke:none; fill-rule:evenodd; fill:#000000" d="M 195.899 177.238C 195.766 175.445 194.578 174.367 192.754 174.367C 190.582 174.367 189.313 175.793 189.313 178.27C 189.313 180.664 190.566 182.063 192.727 182.063C 194.492 182.063 195.723 180.985 195.899 179.262L 194.094 179.262C 193.852 180.199 193.477 180.563 192.746 180.563C 191.793 180.563 191.211 179.695 191.211 178.27C 191.211 177.578 191.344 176.926 191.574 176.492C 191.789 176.086 192.207 175.867 192.746 175.867C 193.512 175.867 193.875 176.242 194.094 177.238L 195.899 177.238z"/>
<path style="stroke:none; fill-rule:evenodd; fill:#000000" d="M 200.34 174.668L 199.313 174.668L 199.313 172.742L 197.414 172.742L 197.414 174.668L 196.504 174.668L 196.504 175.867L 197.414 175.867L 197.414 180.352C 197.414 181.496 198.016 182.067 199.254 182.067C 199.668 182.067 200.004 182.027 200.34 181.922L 200.34 180.617C 200.156 180.649 200.051 180.668 199.918 180.668C 199.43 180.668 199.313 180.52 199.313 179.867L 199.313 175.871L 200.34 175.871L 200.34 174.668z"/>
<path style="stroke:none; fill-rule:evenodd; fill:#000000" d="M 349.141 188.067L 348.113 188.067L 348.113 186.141L 346.215 186.141L 346.215 188.067L 345.305 188.067L 345.305 189.266L 346.215 189.266L 346.215 193.75C 346.215 194.895 346.816 195.465 348.055 195.465C 348.469 195.465 348.805 195.426 349.141 195.321L 349.141 194.016C 348.957 194.047 348.852 194.067 348.719 194.067C 348.231 194.067 348.113 193.918 348.113 193.266L 348.113 189.27L 349.141 189.27L 349.141 188.067z"/>
<path style="stroke:none; fill-rule:evenodd; fill:#000000" d="M 350.41 185.367L 350.41 195.165L 352.309 195.165L 352.309 190.797C 352.309 189.961 352.91 189.367 353.754 189.367C 354.152 189.367 354.477 189.516 354.691 189.813C 354.852 190.055 354.906 190.242 354.906 190.715L 354.906 195.165L 356.805 195.165L 356.805 190.285C 356.805 189.383 356.563 188.738 356.066 188.32C 355.649 187.973 355.043 187.77 354.438 187.77C 353.508 187.77 352.836 188.156 352.309 188.981L 352.309 185.371L 350.41 185.367z"/>
<path style="stroke:none; fill-rule:evenodd; fill:#000000" d="M 364.727 194.93C 364.402 194.621 364.309 194.422 364.309 194.043L 364.309 190.008C 364.309 188.531 363.305 187.774 361.344 187.774C 359.387 187.774 358.367 188.617 358.246 190.324L 360.07 190.324C 360.164 189.531 360.473 189.274 361.41 189.274C 362.141 189.274 362.504 189.516 362.504 190C 362.504 190.242 362.387 190.457 362.184 190.567C 361.93 190.699 361.93 190.699 361 190.848L 360.246 190.981C 358.809 191.223 358.109 191.965 358.109 193.274C 358.109 193.891 358.281 194.406 358.617 194.77C 359.031 195.2 359.66 195.458 360.305 195.458C 361.109 195.458 361.848 195.11 362.504 194.422C 362.504 194.797 362.539 194.934 362.715 195.149L 364.719 195.149L 364.727 194.93zM 362.508 192.262C 362.508 193.348 361.973 193.965 361.027 193.965C 360.402 193.965 360.012 193.629 360.012 193.094C 360.012 192.531 360.305 192.266 361.078 192.102L 361.719 191.985C 362.211 191.891 362.293 191.867 362.504 191.758L 362.508 192.262z"/>
<path style="stroke:none; fill-rule:evenodd; fill:#000000" d="M 366.109 195.168L 368.008 195.168L 368.008 185.371L 366.109 185.371L 366.109 195.168z"/>
<path style="stroke:none; fill-rule:evenodd; fill:#000000" d="M 375.926 194.93C 375.602 194.621 375.508 194.422 375.508 194.043L 375.508 190.008C 375.508 188.531 374.504 187.774 372.543 187.774C 370.586 187.774 369.566 188.617 369.445 190.324L 371.27 190.324C 371.363 189.531 371.672 189.274 372.609 189.274C 373.34 189.274 373.703 189.516 373.703 190C 373.703 190.242 373.586 190.457 373.383 190.567C 373.129 190.699 373.129 190.699 372.199 190.848L 371.445 190.981C 370.008 191.223 369.309 191.965 369.309 193.274C 369.309 193.891 369.481 194.406 369.816 194.77C 370.231 195.2 370.859 195.458 371.504 195.458C 372.309 195.458 373.047 195.11 373.703 194.422C 373.703 194.797 373.738 194.934 373.914 195.149L 375.918 195.149L 375.926 194.93zM 373.711 192.262C 373.711 193.348 373.176 193.965 372.231 193.965C 371.606 193.965 371.215 193.629 371.215 193.094C 371.215 192.531 371.508 192.266 372.281 192.102L 372.922 191.985C 373.414 191.891 373.496 191.867 373.707 191.758L 373.711 192.262z"/>
<path style="stroke:none; fill-rule:evenodd; fill:#000000" d="M 377.109 187.965L 377.109 195.165L 379.008 195.165L 379.008 190.797C 379.008 189.91 379.488 189.367 380.289 189.367C 380.914 189.367 381.305 189.731 381.305 190.309L 381.305 195.161L 383.203 195.161L 383.203 190.793C 383.203 189.906 383.664 189.363 384.43 189.363C 385.027 189.363 385.399 189.727 385.399 190.305L 385.399 195.157L 387.297 195.157L 387.297 190.012C 387.297 188.598 386.449 187.762 385.016 187.762C 384.113 187.762 383.477 188.098 382.918 188.879C 382.574 188.168 381.859 187.762 380.969 187.762C 380.149 187.762 379.617 188.055 379.004 188.824L 379.004 187.961L 377.109 187.965z"/>
<path style="stroke:none; fill-rule:evenodd; fill:#000000" d="M 395.508 195.161L 395.508 187.969L 393.609 187.969L 393.609 192.457C 393.609 193.305 393.012 193.863 392.109 193.863C 391.313 193.863 390.914 193.442 390.914 192.578L 390.914 187.969L 389.016 187.969L 389.016 192.977C 389.016 194.559 389.899 195.465 391.441 195.465C 392.418 195.465 393.074 195.11 393.613 194.309L 393.613 195.161L 395.508 195.161z"/>
<path style="stroke:none; fill-rule:evenodd; fill:#000000" d="M 403.172 190.266C 403.145 188.711 401.961 187.77 400.004 187.77C 398.16 187.77 397.012 188.695 397.012 190.184C 397.012 190.664 397.16 191.082 397.418 191.363C 397.672 191.617 397.902 191.738 398.609 191.965L 400.871 192.66C 401.344 192.805 401.508 192.953 401.508 193.25C 401.508 193.692 400.984 193.961 400.113 193.961C 399.633 193.961 399.242 193.871 399 193.719C 398.801 193.578 398.719 193.438 398.641 193.063L 396.805 193.063C 396.856 194.637 398.027 195.461 400.238 195.461C 401.246 195.461 402.012 195.251 402.551 194.82C 403.086 194.395 403.41 193.723 403.41 193.012C 403.41 192.074 402.938 191.469 401.977 191.188L 399.578 190.504C 399.051 190.344 398.918 190.238 398.918 189.942C 398.918 189.543 399.348 189.27 400.004 189.27C 400.902 189.27 401.348 189.594 401.359 190.266L 403.172 190.266z"/>
<path style="stroke:#0000ff; stroke-width:1.9133; fill:none" d="M 240.332 50.0673L 217.375 81.1563"/>
<path style="stroke:#0000ff; stroke-width:1.9133; fill:none" d="M 223.457 76.1373L 217.375 81.1563L 220.379 73.8633"/>
<path style="stroke:#0000ff; stroke-width:0.0; fill:none" d="M 306.34 52.9343L 359.434 174.906"/>
<path style="stroke:#0000ff; stroke-width:0.0; fill:none" d="M 307.641 60.7153L 306.344 52.9383L 311.152 59.1923"/>
<path style="stroke:#0000ff; stroke-width:0.0; fill:none" d="M 358.137 167.125L 359.434 174.903L 354.625 168.649"/>
<path style="stroke:#ff0000; stroke-dasharray:6,3; stroke-width:0.0; fill:none" d="M 165.234 116.551L 223.109 205.04"/>
<path style="stroke:none; fill-rule:evenodd; fill:#000000" d="M 249.508 20.1883L 247.609 20.1883L 247.609 30.3633L 249.508 30.3633L 249.508 26.6103C 249.957 27.3953 250.598 27.7663 251.5 27.7663C 253.227 27.7663 254.504 26.1293 254.504 23.9263C 254.504 22.9063 254.211 21.8873 253.734 21.2153C 253.258 20.5313 252.367 20.0743 251.504 20.0743C 250.602 20.0743 249.965 20.4613 249.512 21.2663L 249.508 20.1883zM 251.059 21.6683C 251.988 21.6683 252.606 22.5823 252.606 23.9493C 252.606 25.2503 251.965 26.1643 251.059 26.1643C 250.141 26.1643 249.512 25.2663 249.512 23.9223C 249.512 22.5823 250.141 21.6683 251.059 21.6683z"/>
<path style="stroke:none; fill-rule:evenodd; fill:#000000" d="M 255.711 20.2663L 255.711 27.4653L 257.609 27.4653L 257.609 23.6883C 257.609 22.6103 258.16 22.0703 259.27 22.0703C 259.469 22.0703 259.606 22.0633 259.863 22.0353L 259.863 20.1763C 259.758 20.1763 259.688 20.1763 259.637 20.1763C 258.773 20.1763 258.02 20.7193 257.613 21.6603L 257.613 20.2743L 255.711 20.2663z"/>
<path style="stroke:none; fill-rule:evenodd; fill:#000000" d="M 267.129 24.4653C 267.141 24.3053 267.141 24.2353 267.141 24.1413C 267.141 23.4063 267.035 22.7273 266.863 22.2073C 266.383 20.8753 265.219 20.0703 263.758 20.0703C 261.684 20.0703 260.41 21.5783 260.41 24.0123C 260.41 26.3363 261.668 27.7663 263.715 27.7663C 265.332 27.7663 266.645 26.8483 267.063 25.4303L 265.215 25.4303C 264.988 26.0203 264.465 26.3633 263.785 26.3633C 263.25 26.3633 262.824 26.1373 262.555 25.7353C 262.383 25.4693 262.316 25.1493 262.289 24.4653L 267.129 24.4653zM 262.305 23.2663C 262.422 22.0673 262.891 21.4693 263.723 21.4693C 264.191 21.4693 264.617 21.7153 264.887 22.1253C 265.059 22.4183 265.141 22.7233 265.18 23.2663L 262.305 23.2663z"/>
<path style="stroke:none; fill-rule:evenodd; fill:#000000" d="M 270.395 17.9033L 267.637 27.6643L 268.531 27.6643L 271.289 17.9033L 270.395 17.9033z"/>
<path style="stroke:none; fill-rule:evenodd; fill:#000000" d="M 272.109 20.2663L 272.109 27.4653L 274.008 27.4653L 274.008 23.0983C 274.008 22.2113 274.488 21.6683 275.289 21.6683C 275.914 21.6683 276.305 22.0313 276.305 22.6103L 276.305 27.4613L 278.203 27.4613L 278.203 23.0943C 278.203 22.2073 278.664 21.6643 279.43 21.6643C 280.027 21.6643 280.399 22.0273 280.399 22.6063L 280.399 27.4573L 282.297 27.4573L 282.297 22.3133C 282.297 20.8993 281.449 20.0633 280.016 20.0633C 279.113 20.0633 278.477 20.3993 277.918 21.1803C 277.574 20.4693 276.859 20.0633 275.969 20.0633C 275.149 20.0633 274.617 20.3563 274.004 21.1253L 274.004 20.2623L 272.109 20.2663z"/>
<path style="stroke:none; fill-rule:evenodd; fill:#000000" d="M 287.246 20.0673C 285.055 20.0673 283.711 21.5313 283.711 23.9143C 283.711 26.3093 285.051 27.7623 287.258 27.7623C 289.438 27.7623 290.805 26.2973 290.805 23.9693C 290.805 21.5083 289.492 20.0673 287.242 20.0673L 287.246 20.0673zM 287.258 21.5673C 288.258 21.5673 288.906 22.5043 288.906 23.9423C 288.906 25.3093 288.231 26.2623 287.258 26.2623C 286.273 26.2623 285.609 25.3133 285.609 23.9143C 285.609 22.5163 286.27 21.5673 287.258 21.5673z"/>
<path style="stroke:none; fill-rule:evenodd; fill:#000000" d="M 295.441 20.3673L 294.414 20.3673L 294.414 18.4423L 292.516 18.4423L 292.516 20.3673L 291.606 20.3673L 291.606 21.5673L 292.516 21.5673L 292.516 26.0513C 292.516 27.1953 293.117 27.7663 294.356 27.7663C 294.77 27.7663 295.106 27.7273 295.441 27.6213L 295.441 26.3173C 295.258 26.3483 295.152 26.3673 295.02 26.3673C 294.531 26.3673 294.414 26.2193 294.414 25.5673L 294.414 21.5703L 295.441 21.5703L 295.441 20.3673z"/>
<path style="stroke:none; fill-rule:evenodd; fill:#000000" d="M 299.945 20.0673C 297.754 20.0673 296.41 21.5313 296.41 23.9143C 296.41 26.3093 297.75 27.7623 299.957 27.7623C 302.137 27.7623 303.504 26.2973 303.504 23.9693C 303.504 21.5083 302.191 20.0673 299.941 20.0673L 299.945 20.0673zM 299.961 21.5673C 300.961 21.5673 301.609 22.5043 301.609 23.9423C 301.609 25.3093 300.934 26.2623 299.961 26.2623C 298.977 26.2623 298.313 25.3133 298.313 23.9143C 298.313 22.5163 298.973 21.5673 299.961 21.5673z"/>
<path style="stroke:none; fill-rule:evenodd; fill:#000000" d="M 304.809 20.2663L 304.809 27.4653L 306.707 27.4653L 306.707 23.6883C 306.707 22.6103 307.258 22.0703 308.367 22.0703C 308.566 22.0703 308.703 22.0633 308.961 22.0353L 308.961 20.1763C 308.856 20.1763 308.785 20.1763 308.734 20.1763C 307.871 20.1763 307.117 20.7193 306.711 21.6603L 306.711 20.2743L 304.809 20.2663z"/>
<path style="stroke:none; fill-rule:evenodd; fill:#000000" d="M 257.5 36.3403C 257.367 34.5473 256.18 33.4693 254.356 33.4693C 252.184 33.4693 250.914 34.8953 250.914 37.3713C 250.914 39.7663 252.168 41.1643 254.328 41.1643C 256.094 41.1643 257.324 40.0863 257.5 38.3633L 255.695 38.3633C 255.453 39.3013 255.078 39.6643 254.348 39.6643C 253.395 39.6643 252.813 38.7973 252.813 37.3713C 252.813 36.6803 252.945 36.0273 253.176 35.5943C 253.391 35.1883 253.809 34.9693 254.348 34.9693C 255.113 34.9693 255.477 35.3443 255.695 36.3403L 257.5 36.3403z"/>
<path style="stroke:none; fill-rule:evenodd; fill:#000000" d="M 261.945 33.4653C 259.754 33.4653 258.41 34.9303 258.41 37.3133C 258.41 39.7073 259.75 41.1603 261.957 41.1603C 264.137 41.1603 265.504 39.6953 265.504 37.3673C 265.504 34.9063 264.191 33.4653 261.941 33.4653L 261.945 33.4653zM 261.961 34.9653C 262.961 34.9653 263.609 35.9033 263.609 37.3403C 263.609 38.7073 262.934 39.6603 261.961 39.6603C 260.977 39.6603 260.313 38.7113 260.313 37.3133C 260.313 35.9143 260.973 34.9653 261.961 34.9653z"/>
<path style="stroke:none; fill-rule:evenodd; fill:#000000" d="M 266.91 33.6683L 266.91 40.8673L 268.809 40.8673L 268.809 37.0903C 268.809 36.0123 269.359 35.4733 270.469 35.4733C 270.668 35.4733 270.805 35.4653 271.063 35.4383L 271.063 33.5783C 270.957 33.5783 270.887 33.5783 270.836 33.5783C 269.973 33.5783 269.219 34.1213 268.813 35.0633L 268.813 33.6763L 266.91 33.6683z"/>
<path style="stroke:none; fill-rule:evenodd; fill:#000000" d="M 275.34 33.7663L 274.313 33.7663L 274.313 31.8403L 272.414 31.8403L 272.414 33.7663L 271.504 33.7663L 271.504 34.9653L 272.414 34.9653L 272.414 39.4493C 272.414 40.5943 273.016 41.1643 274.254 41.1643C 274.668 41.1643 275.004 41.1253 275.34 41.0203L 275.34 39.7153C 275.156 39.7463 275.051 39.7663 274.918 39.7663C 274.43 39.7663 274.313 39.6173 274.313 38.9653L 274.313 34.9693L 275.34 34.9693L 275.34 33.7663z"/>
<path style="stroke:none; fill-rule:evenodd; fill:#000000" d="M 282.828 37.8673C 282.84 37.7073 282.84 37.6373 282.84 37.5433C 282.84 36.8093 282.734 36.1293 282.563 35.6103C 282.082 34.2773 280.918 33.4733 279.457 33.4733C 277.383 33.4733 276.109 34.9813 276.109 37.4143C 276.109 39.7383 277.367 41.1683 279.414 41.1683C 281.031 41.1683 282.344 40.2503 282.762 38.8323L 280.914 38.8323C 280.688 39.4223 280.164 39.7663 279.484 39.7663C 278.949 39.7663 278.523 39.5393 278.254 39.1373C 278.082 38.8713 278.016 38.5513 277.988 37.8673L 282.828 37.8673zM 278.004 36.6683C 278.121 35.4693 278.59 34.8713 279.422 34.8713C 279.891 34.8713 280.316 35.1173 280.586 35.5273C 280.758 35.8203 280.84 36.1253 280.879 36.6683L 278.004 36.6683z"/>
<path style="stroke:none; fill-rule:evenodd; fill:#000000" d="M 287.965 37.2423L 290.32 33.6723L 288.07 33.6723L 286.906 35.8203L 285.731 33.6723L 283.481 33.6723L 285.836 37.2423L 283.426 40.8673L 285.676 40.8673L 286.906 38.6173L 288.125 40.8673L 290.375 40.8673L 287.965 37.2423z"/>
<path style="stroke:none; fill-rule:evenodd; fill:#000000" d="M 243.231 214.766L 239.336 214.766L 239.336 216.465L 241.547 216.465C 241.496 217.02 241.363 217.36 241.07 217.715C 240.594 218.309 239.859 218.665 239.086 218.665C 237.473 218.665 236.313 217.246 236.313 215.239C 236.313 213.141 237.336 211.868 239.031 211.868C 239.723 211.868 240.309 212.067 240.75 212.454C 241.027 212.692 241.176 212.918 241.348 213.422L 243.227 213.422C 242.988 211.43 241.359 210.168 239.012 210.168C 236.215 210.168 234.309 212.239 234.309 215.266C 234.309 218.215 236.227 220.364 238.856 220.364C 240.16 220.364 241.039 219.895 241.789 218.786L 242.027 220.079L 243.227 220.079L 243.231 214.766z"/>
<path style="stroke:none; fill-rule:evenodd; fill:#000000" d="M 247.109 216.567L 249.633 216.567C 251.441 216.567 252.606 215.293 252.606 213.305C 252.606 211.344 251.488 210.27 249.441 210.27L 245.109 210.27L 245.109 220.067L 247.109 220.067L 247.109 216.567zM 247.109 214.868L 247.109 211.969L 249.012 211.969C 250.098 211.969 250.602 212.43 250.602 213.422C 250.602 214.399 250.098 214.864 249.012 214.864L 247.109 214.868z"/>
<path style="stroke:none; fill-rule:evenodd; fill:#000000" d="M 255.91 212.836L 254.012 212.836L 254.012 220.067L 255.91 220.067L 255.91 212.836zM 255.91 210.266L 254.012 210.266L 254.012 211.965L 255.91 211.965L 255.91 210.266z"/>
<path style="stroke:none; fill-rule:evenodd; fill:#ff0000" d="M 223.469 203.004C 223.469 202.161 222.785 201.477 221.941 201.477C 221.098 201.477 220.414 202.161 220.414 203.004C 220.414 203.848 221.098 204.532 221.941 204.532C 222.785 204.532 223.469 203.848 223.469 203.004"/>
<path style="stroke:#ff0000; stroke-width:1.9133; fill:none" d="M 223.469 203.004C 223.469 202.161 222.785 201.477 221.941 201.477C 221.098 201.477 220.414 202.161 220.414 203.004C 220.414 203.848 221.098 204.532 221.941 204.532C 222.785 204.532 223.469 203.848 223.469 203.004"/>
<path style="stroke:none; fill-rule:evenodd; fill:#ff0000" d="M 258.449 194.899C 258.449 192.789 256.738 191.074 254.625 191.074C 252.516 191.074 250.801 192.785 250.801 194.899C 250.801 197.008 252.512 198.723 254.625 198.723C 256.734 198.723 258.449 197.012 258.449 194.899"/>
<path style="stroke:#ff0000; stroke-width:1.9133; fill:none" d="M 258.449 194.899C 258.449 192.789 256.738 191.074 254.625 191.074C 252.516 191.074 250.801 192.785 250.801 194.899C 250.801 197.008 252.512 198.723 254.625 198.723C 256.734 198.723 258.449 197.012 258.449 194.899"/>
<path style="stroke:none; fill-rule:evenodd; fill:#ff0000" d="M 339.266 197.676C 339.266 196.833 338.582 196.149 337.738 196.149C 336.895 196.149 336.211 196.833 336.211 197.676C 336.211 198.52 336.895 199.204 337.738 199.204C 338.582 199.204 339.266 198.52 339.266 197.676"/>
<path style="stroke:#ff0000; stroke-width:1.9133; fill:none" d="M 339.266 197.676C 339.266 196.833 338.582 196.149 337.738 196.149C 336.895 196.149 336.211 196.833 336.211 197.676C 336.211 198.52 336.895 199.204 337.738 199.204C 338.582 199.204 339.266 198.52 339.266 197.676"/>
<path style="stroke:#ff0000; stroke-dasharray:6,3; stroke-width:2.8699499999999998; fill:none" d="M 283.106 211.633L 334.461 199.04"/>
<path style="stroke:none; fill-rule:evenodd; fill:#0000ff" d="M 152.609 113.168C 152.207 113.168 151.961 113.383 151.961 113.766C 151.961 113.945 152.051 114.137 152.199 114.242C 152.301 114.324 152.449 114.36 152.723 114.36L 155.059 114.36C 156.051 114.36 156.738 114.098 157.301 113.5C 157.824 112.949 158.102 112.238 158.102 111.399L 158.102 110.86C 158.102 109.059 156.82 107.668 155.149 107.668L 152.723 107.668C 152.414 107.668 152.336 107.68 152.234 107.75C 152.063 107.856 151.961 108.059 151.961 108.266C 151.961 108.649 152.191 108.863 152.609 108.863L 152.609 113.168zM 153.809 113.168L 153.809 108.871L 155.043 108.871C 155.637 108.871 156.063 109.051 156.399 109.442C 156.723 109.82 156.902 110.317 156.902 110.844L 156.902 111.36C 156.902 111.93 156.758 112.324 156.441 112.672C 156.094 113.027 155.723 113.164 155.051 113.164L 153.809 113.168z"/>
<path style="stroke:none; fill-rule:evenodd; fill:#0000ff" d="M 162.711 107.043L 160.293 107.668C 159.84 107.781 159.691 107.918 159.691 108.246C 159.691 108.574 159.91 108.836 160.199 108.836C 160.309 108.836 160.34 108.828 160.551 108.77L 161.512 108.508L 161.512 113.16L 160.399 113.16C 160.113 113.16 160.035 113.172 159.938 113.242C 159.773 113.348 159.672 113.551 159.672 113.758C 159.672 113.938 159.762 114.129 159.91 114.235C 160 114.317 160.16 114.352 160.426 114.352L 163.891 114.352C 164.117 114.352 164.289 114.317 164.371 114.27C 164.543 114.153 164.645 113.961 164.645 113.754C 164.645 113.563 164.555 113.383 164.402 113.266C 164.289 113.184 164.195 113.16 163.883 113.16L 162.715 113.16L 162.711 107.043z"/>
<path style="stroke:none; fill-rule:evenodd; fill:#ff0000" d="M 341.301 198.774C 341.301 196.665 339.59 194.949 337.477 194.949C 335.367 194.949 333.652 196.661 333.652 198.774C 333.652 200.883 335.363 202.598 337.477 202.598C 339.586 202.598 341.301 200.887 341.301 198.774"/>
<path style="stroke:#ff0000; stroke-width:1.9133; fill:none" d="M 341.301 198.774C 341.301 196.665 339.59 194.949 337.477 194.949C 335.367 194.949 333.652 196.661 333.652 198.774C 333.652 200.883 335.363 202.598 337.477 202.598C 339.586 202.598 341.301 200.887 341.301 198.774"/>
<path style="stroke:none; fill-rule:evenodd; fill:#000000" d="M 206.211 104.067L 208.41 104.067L 208.41 93.4693L 206.211 93.4693L 206.211 100.664L 201.973 93.4693L 199.715 93.4693L 199.715 104.067L 201.914 104.067L 201.914 96.7073L 206.211 104.067z"/>
<path style="stroke:none; fill-rule:evenodd; fill:#000000" d="M 213.594 96.0673C 211.188 96.0673 209.711 97.6453 209.711 100.215C 209.711 102.797 211.184 104.363 213.609 104.363C 216.004 104.363 217.508 102.785 217.508 100.274C 217.508 97.6213 216.063 96.0673 213.598 96.0673L 213.594 96.0673zM 213.609 97.7663C 214.699 97.7663 215.406 98.7423 215.406 100.242C 215.406 101.672 214.672 102.66 213.609 102.66C 212.535 102.66 211.813 101.672 211.813 100.211C 211.813 98.7543 212.535 97.7623 213.609 97.7623L 213.609 97.7663z"/>
<path style="stroke:none; fill-rule:evenodd; fill:#000000" d="M 228.492 98.3673L 224.227 98.3673L 224.227 100.164L 226.652 100.164C 226.594 100.742 226.449 101.098 226.129 101.469C 225.606 102.094 224.801 102.461 223.953 102.461C 222.188 102.461 220.918 100.942 220.918 98.7853C 220.918 96.5313 222.043 95.1643 223.899 95.1643C 224.656 95.1643 225.301 95.3753 225.781 95.7853C 226.086 96.0393 226.246 96.2773 226.438 96.8173L 228.496 96.8173C 228.234 94.6413 226.449 93.2623 223.875 93.2623C 220.805 93.2623 218.715 95.5123 218.715 98.8093C 218.715 102.02 220.82 104.356 223.699 104.356C 225.129 104.356 226.094 103.852 226.914 102.668L 227.176 104.055L 228.492 104.055L 228.492 98.3673z"/>
<path style="stroke:none; fill-rule:evenodd; fill:#000000" d="M 233.895 96.0673C 231.488 96.0673 230.012 97.6453 230.012 100.215C 230.012 102.797 231.484 104.363 233.91 104.363C 236.305 104.363 237.809 102.785 237.809 100.274C 237.809 97.6213 236.363 96.0673 233.899 96.0673L 233.895 96.0673zM 233.91 97.7663C 235 97.7663 235.707 98.7423 235.707 100.242C 235.707 101.672 234.973 102.66 233.91 102.66C 232.836 102.66 232.113 101.672 232.113 100.211C 232.113 98.7543 232.836 97.7623 233.91 97.7623L 233.91 97.7663z"/>
<path style="stroke:none; fill-rule:evenodd; fill:#000000" d="M 170.406 99.0273L 166.992 99.0273L 166.992 99.2703C 167.586 99.3093 167.754 99.3483 167.918 99.4573C 168.125 99.5783 168.207 99.8873 168.207 100.473L 168.207 102.664C 168.207 103.094 167.379 103.461 166.395 103.461C 164.172 103.461 162.809 101.91 162.809 99.3833C 162.809 98.1063 163.184 96.8673 163.777 96.1993C 164.371 95.5353 165.207 95.1683 166.125 95.1683C 166.879 95.1683 167.543 95.4303 168.066 95.9303C 168.469 96.3173 168.684 96.6923 169.023 97.5353L 169.332 97.5353L 169.227 94.6643L 168.934 94.6643C 168.856 94.9183 168.613 95.1063 168.332 95.1063C 168.199 95.1063 167.984 95.0673 167.742 94.9733C 167.141 94.7743 166.52 94.6683 165.918 94.6683C 163.231 94.6683 161.309 96.6493 161.309 99.3993C 161.309 100.719 161.672 101.727 162.426 102.524C 163.328 103.453 164.625 103.965 166.113 103.965C 167.273 103.965 168.961 103.496 169.504 103.027L 169.504 100.305C 169.504 99.5163 169.656 99.3403 170.399 99.2743L 170.406 99.0273z"/>
<path style="stroke:none; fill-rule:evenodd; fill:#000000" d="M 174.016 97.5673C 172.309 97.5673 171.113 98.8523 171.113 100.703C 171.113 102.512 172.336 103.863 173.992 103.863C 175.649 103.863 176.91 102.445 176.91 100.594C 176.91 98.8403 175.703 97.5673 174.02 97.5673L 174.016 97.5673zM 173.836 97.9653C 174.992 97.9653 175.809 99.2383 175.809 101.059C 175.809 102.559 175.191 103.461 174.156 103.461C 173.621 103.461 173.109 103.145 172.82 102.613C 172.438 101.926 172.215 100.996 172.215 100.051C 172.215 98.7893 172.859 97.9653 173.84 97.9653L 173.836 97.9653z"/>
<path style="stroke:none; fill-rule:evenodd; fill:#ed89ed" d="M 237.445 74.1533L 236.449 73.7743L 233.473 81.5943L 238.332 83.4423L 238.664 82.5633L 234.805 81.0943L 237.445 74.1533z"/>
<path style="stroke:none; fill-rule:evenodd; fill:#ed89ed" d="M 245.051 78.0743L 247.613 79.0513L 247.945 78.1723L 241.813 75.8363L 241.481 76.7153L 244.055 77.6953L 241.414 84.6333L 242.41 85.0123L 245.051 78.0743z"/>
<path style="stroke:none; fill-rule:evenodd; fill:#ed89ed" d="M 248.348 83.5043L 250.801 84.4383C 251.41 84.6683 251.961 84.6683 252.523 84.4533C 253.156 84.2073 253.555 83.7773 253.828 83.0593C 254.387 81.5903 253.832 80.4343 252.293 79.8443L 249.066 78.6173L 246.09 86.4383L 247.086 86.8173L 248.348 83.5043zM 248.68 82.6253L 249.723 79.8833L 251.801 80.6763C 252.754 81.0393 253.125 81.7703 252.801 82.6293C 252.477 83.4853 251.711 83.7853 250.758 83.4223L 248.68 82.6253z"/>
<path style="stroke:none; fill-rule:evenodd; fill:#000000" d="M 118.438 170.277C 118.438 169.391 118.238 168.805 117.754 168.274C 117.098 167.559 116.016 167.172 114.609 167.172C 112.266 167.172 110.914 168.266 110.914 170.164C 110.914 171.672 111.684 172.406 113.684 172.777L 115.059 173.043C 116.406 173.297 116.91 173.668 116.91 174.457C 116.91 175.27 116.156 175.762 114.926 175.762C 113.551 175.762 112.781 175.188 112.715 174.145L 110.746 174.145C 110.863 176.227 112.301 177.363 114.801 177.363C 117.324 177.363 118.816 176.192 118.816 174.215C 118.816 172.684 118.035 171.879 116.215 171.535L 114.68 171.242C 113.238 170.965 112.82 170.684 112.82 169.977C 112.82 169.246 113.477 168.774 114.512 168.774C 115.785 168.774 116.496 169.301 116.566 170.281L 118.438 170.277z"/>
<path style="stroke:none; fill-rule:evenodd; fill:#000000" d="M 126.109 177.067L 128.109 177.067L 128.109 167.27L 126.109 167.27L 126.109 173.949L 122.262 167.27L 120.211 167.27L 120.211 177.067L 122.211 177.067L 122.211 170.317L 126.109 177.067z"/>
<path style="stroke:none; fill-rule:evenodd; fill:#000000" d="M 135.899 172.539C 135.766 170.746 134.578 169.668 132.754 169.668C 130.582 169.668 129.313 171.094 129.313 173.57C 129.313 175.965 130.566 177.363 132.727 177.363C 134.492 177.363 135.723 176.285 135.899 174.563L 134.094 174.563C 133.852 175.5 133.477 175.863 132.746 175.863C 131.793 175.863 131.211 174.996 131.211 173.57C 131.211 172.879 131.344 172.227 131.574 171.793C 131.789 171.387 132.207 171.168 132.746 171.168C 133.512 171.168 133.875 171.543 134.094 172.539L 135.899 172.539z"/>
<path style="stroke:none; fill-rule:evenodd; fill:#bd00ff" d="M 158.441 128.309L 151.727 132.863L 151.289 124.988"/>
<path style="stroke:#bd00ff; stroke-width:1.9133; fill:none" d="M 158.441 128.309L 151.727 132.863L 151.289 124.988L 158.441 128.309z"/>
<path style="stroke:#000000; stroke-width:1.9133; fill:none" d="M 140.125 172.281C 140.125 164.988 132.441 159.078 122.965 159.078C 113.488 159.078 105.805 164.988 105.805 172.281C 105.805 179.574 113.488 185.485 122.965 185.485C 132.441 185.485 140.125 179.574 140.125 172.281"/>
<path style="stroke:#bd00ff; stroke-dasharray:6,3; stroke-width:1.9133; fill:none" d="M 129.453 161.992L 151.453 132.817"/>
</g>
</svg>