<?xml version="1.0" encoding="ISO-8859-1" standalone="yes"?>
<svg width="138.726" height="108.104">
  <defs> 
    <marker id="ArrowEnd" viewBox="0 0 10 10" refX="0" refY="5" 
     markerUnits="strokeWidth" 
     markerWidth="4" 
     markerHeight="3" 
     orient="auto"> 
        <path d="M 0 0 L 10 5 L 0 10 z" /> 
    </marker>
    <marker id="ArrowStart" viewBox="0 0 10 10" refX="10" refY="5" 
     markerUnits="strokeWidth" 
     markerWidth="4" 
     markerHeight="3" 
     orient="auto"> 
        <path d="M 10 0 L 0 5 L 10 10 z" /> 
    </marker> </defs>
<g>
<path style="stroke:#000000; stroke-width:1.9139600000000001; fill:none" d="M 10.0308 98.0736L 128.695 98.0736L 128.695 10.0348L 10.0308 10.0348L 10.0308 98.0736z"/>
<path style="stroke:#000000; stroke-width:1.9139600000000001; fill:none" d="M 44.484 10.0308L 52.1363 32.9955L 40.6558 48.304L 25.3472 44.4798L 10.0387 36.8275"/>
<path style="stroke:#000000; stroke-width:1.9139600000000001; fill:none" d="M 40.6558 48.3119L 48.3082 59.7923L 44.484 71.2728L 29.1754 75.097L 10.0387 86.5775"/>
<path style="stroke:#000000; stroke-width:1.9139600000000001; fill:none" d="M 71.2769 71.2806L 86.5855 59.8001L 98.066 59.8001L 109.546 75.1087L 105.722 98.0736"/>
<path style="stroke:#000000; stroke-width:1.9139600000000001; fill:none" d="M 101.902 63.6244L 109.554 55.972L 128.691 59.7962"/>
<path style="stroke:#000000; stroke-width:1.9139600000000001; fill:none" d="M 101.902 10.0308L 86.5933 21.5108L 94.246 32.9916L 109.554 40.6439L 128.691 32.9916"/>
<path style="stroke:#000000; stroke-width:1.9139600000000001; fill:none" d="M 52.1402 32.9994L 63.6207 36.8236L 78.9293 32.9994L 90.41 25.3468"/>
<path style="stroke:#000000; stroke-width:1.9139600000000001; fill:none" d="M 63.6246 36.8275L 75.1051 44.4798L 75.1051 52.1322L 71.2808 71.2689"/>
<path style="stroke:#000000; stroke-width:1.9139600000000001; fill:none" d="M 40.6558 72.7142L 48.3082 78.933L 52.1324 86.5853L 55.9566 98.0658"/>
<path style="stroke:#000000; stroke-width:1.9139600000000001; fill:none" d="M 44.484 70.8001L 63.6207 67.4525L 82.7574 75.1048L 78.9332 86.5853L 86.5855 98.0658"/>
<path style="stroke:#000000; stroke-width:1.9139600000000001; fill:none" d="M 101.421 36.347L 91.855 46.3939L 94.246 59.7884"/>
<path style="stroke:none; fill-rule:evenodd; fill:#000000" d="M 29.1715 29.1708L 32.0387 29.1708L 32.0387 25.8238L 29.1715 25.8238L 29.1715 29.1708z"/>
<path style="stroke:#000000; stroke-width:1.9139600000000001; fill:none" d="M 29.1715 29.1708L 32.0387 29.1708L 32.0387 25.8238L 29.1715 25.8238L 29.1715 29.1708z"/>
<path style="stroke:none; fill-rule:evenodd; fill:#000000" d="M 25.3433 59.7923L 28.2105 59.7923L 28.2105 56.4447L 25.3433 56.4447L 25.3433 59.7923z"/>
<path style="stroke:#000000; stroke-width:1.9139600000000001; fill:none" d="M 25.3433 59.7923L 28.2105 59.7923L 28.2105 56.4447L 25.3433 56.4447L 25.3433 59.7923z"/>
<path style="stroke:none; fill-rule:evenodd; fill:#000000" d="M 67.4488 21.5148L 70.316 21.5148L 70.316 18.1678L 67.4488 18.1678L 67.4488 21.5148z"/>
<path style="stroke:#000000; stroke-width:1.9139600000000001; fill:none" d="M 67.4488 21.5148L 70.316 21.5148L 70.316 18.1678L 67.4488 18.1678L 67.4488 21.5148z"/>
<path style="stroke:none; fill-rule:evenodd; fill:#000000" d="M 109.558 25.3428L 112.425 25.3428L 112.425 21.9958L 109.558 21.9958L 109.558 25.3428z"/>
<path style="stroke:#000000; stroke-width:1.9139600000000001; fill:none" d="M 109.558 25.3428L 112.425 25.3428L 112.425 21.9958L 109.558 21.9958L 109.558 25.3428z"/>
<path style="stroke:none; fill-rule:evenodd; fill:#000000" d="M 82.7613 48.3119L 85.6285 48.3119L 85.6285 44.9642L 82.7613 44.9642L 82.7613 48.3119z"/>
<path style="stroke:#000000; stroke-width:1.9139600000000001; fill:none" d="M 82.7613 48.3119L 85.6285 48.3119L 85.6285 44.9642L 82.7613 44.9642L 82.7613 48.3119z"/>
<path style="stroke:none; fill-rule:evenodd; fill:#000000" d="M 59.7926 52.14L 62.6598 52.14L 62.6598 48.7923L 59.7926 48.7923L 59.7926 52.14z"/>
<path style="stroke:#000000; stroke-width:1.9139600000000001; fill:none" d="M 59.7926 52.14L 62.6598 52.14L 62.6598 48.7923L 59.7926 48.7923L 59.7926 52.14z"/>
<path style="stroke:none; fill-rule:evenodd; fill:#000000" d="M 63.6207 86.5892L 66.4879 86.5892L 66.4879 83.2416L 63.6207 83.2416L 63.6207 86.5892z"/>
<path style="stroke:#000000; stroke-width:1.9139600000000001; fill:none" d="M 63.6207 86.5892L 66.4879 86.5892L 66.4879 83.2416L 63.6207 83.2416L 63.6207 86.5892z"/>
<path style="stroke:none; fill-rule:evenodd; fill:#000000" d="M 32.9996 86.5892L 35.8668 86.5892L 35.8668 83.2416L 32.9996 83.2416L 32.9996 86.5892z"/>
<path style="stroke:#000000; stroke-width:1.9139600000000001; fill:none" d="M 32.9996 86.5892L 35.8668 86.5892L 35.8668 83.2416L 32.9996 83.2416L 32.9996 86.5892z"/>
<path style="stroke:none; fill-rule:evenodd; fill:#000000" d="M 90.418 78.933L 93.285 78.933L 93.285 75.5853L 90.418 75.5853L 90.418 78.933z"/>
<path style="stroke:#000000; stroke-width:1.9139600000000001; fill:none" d="M 90.418 78.933L 93.285 78.933L 93.285 75.5853L 90.418 75.5853L 90.418 78.933z"/>
<path style="stroke:none; fill-rule:evenodd; fill:#000000" d="M 117.214 78.933L 120.082 78.933L 120.082 75.5853L 117.214 75.5853L 117.214 78.933z"/>
<path style="stroke:#000000; stroke-width:1.9139600000000001; fill:none" d="M 117.214 78.933L 120.082 78.933L 120.082 75.5853L 117.214 75.5853L 117.214 78.933z"/>
<path style="stroke:none; fill-rule:evenodd; fill:#000000" d="M 113.386 48.3119L 116.254 48.3119L 116.254 44.9642L 113.386 44.9642L 113.386 48.3119z"/>
<path style="stroke:#000000; stroke-width:1.9139600000000001; fill:none" d="M 113.386 48.3119L 116.254 48.3119L 116.254 44.9642L 113.386 44.9642L 113.386 48.3119z"/>
<path style="stroke:#000000; stroke-width:0.95698000000000005; fill:none" d="M 36.8277 44.4837C 36.8277 44.4837 36.8277 44.4837 37.5426 43.3705C 38.2574 42.2572 39.6949 40.0228 39.8551 38.2689C 40.0113 36.515 38.9019 35.2416 37.5426 33.804C 36.191 32.3708 34.5933 30.7768 33.7965 29.9798C 32.9996 29.1828 32.9996 29.1828 32.9996 29.1828"/>
<path style="stroke:#000000; stroke-width:0.95698000000000005; fill:none" d="M 37.0582 35.9369L 32.9996 29.1708L 39.7652 33.2298"/>
<path style="stroke:#000000; stroke-width:0.95698000000000005; fill:none" d="M 14.3394 33.4759C 14.3394 33.4759 14.3394 33.4759 14.5777 32.3628C 14.816 31.2498 15.2926 29.0148 16.5699 27.4208C 17.8433 25.8278 19.9176 24.8708 21.9098 24.8708C 23.9019 24.8708 25.816 25.8238 26.773 26.3038C 27.7262 26.7808 27.7262 26.7808 27.7262 26.7808"/>
<path style="stroke:#000000; stroke-width:0.95698000000000005; fill:none" d="M 21.7457 21.6438L 27.734 26.7768L 20.0348 25.0658"/>
<path style="stroke:#000000; stroke-width:0.95698000000000005; fill:none" d="M 24.8668 40.1751C 24.8668 40.1751 24.8668 40.1751 25.3433 39.3001C 25.8199 38.4251 26.7769 36.6712 27.4957 34.8353C 28.2105 33.0033 28.691 31.0888 28.9293 30.1318C 29.1676 29.1788 29.1676 29.1788 29.1676 29.1788"/>
<path style="stroke:#000000; stroke-width:0.95698000000000005; fill:none" d="M 25.4566 36.1322L 29.1676 29.1708L 29.1676 37.0619"/>
<path style="stroke:#000000; stroke-width:0.95698000000000005; fill:none" d="M 44.484 13.8588C 44.484 13.8588 44.484 13.8588 42.8902 14.1748C 41.2965 14.4918 38.109 15.1278 35.8746 17.0428C 33.6441 18.9528 32.3668 22.1438 31.7301 23.7378C 31.0933 25.3318 31.0933 25.3318 31.0933 25.3318"/>
<path style="stroke:#000000; stroke-width:0.95698000000000005; fill:none" d="M 35.7066 18.9448L 31.0894 25.3388L 32.1519 17.5228"/>
<path style="stroke:#000000; stroke-width:0.95698000000000005; fill:none" d="M 25.3433 10.0308C 25.3433 10.0308 25.3433 10.0308 25.0269 10.9838C 24.7105 11.9368 24.0738 13.8508 24.7105 16.4058C 25.3472 18.9568 27.2613 22.1438 28.2183 23.7418C 29.1715 25.3348 29.1715 25.3348 29.1715 25.3348"/>
<path style="stroke:#000000; stroke-width:0.95698000000000005; fill:none" d="M 26.8746 17.7958L 29.1715 25.3428L 23.5933 19.7648"/>
<path style="stroke:#000000; stroke-width:0.95698000000000005; fill:none" d="M 46.398 31.0848C 46.398 31.0848 46.398 31.0848 45.7613 30.1318C 45.1246 29.1788 43.8512 27.2648 41.6168 26.6248C 39.3863 25.9878 36.1949 26.6248 34.6012 26.9408C 33.0074 27.2568 33.0074 27.2568 33.0074 27.2568"/>
<path style="stroke:#000000; stroke-width:0.95698000000000005; fill:none" d="M 40.8824 27.6318L 33.0035 27.2568L 40.1324 23.8818"/>
</g>
</svg>