<svg
  width="337.03076px"
  height="228.38275px"
  viewBox="0 0 337.03076 228.38275"
  xmlns:inkscape="http://www.inkscape.org/namespaces/inkscape"
  xmlns:sodipodi="http://sodipodi.sourceforge.net/DTD/sodipodi-0.dtd"
  xmlns:xlink="http://www.w3.org/1999/xlink"
  xmlns="http://www.w3.org/2000/svg">
  <defs
    id="Defs">
    <linearGradient
      id="linearGradient5638">
      <stop
        style="stop-color:#FFFFFF;stop-opacity:1;"
        offset="0" />
      <stop
        style="stop-color:#FFFF00;stop-opacity:1;"
        offset="1" />
    </linearGradient>
    <linearGradient
      id="linearGradient5628">
      <stop
        style="stop-color:#FFFFFF;stop-opacity:1;"
        offset="0" />
      <stop
        style="stop-color:#FF8080;stop-opacity:1;"
        offset="1" />
    </linearGradient>
    <radialGradient
      id="radialGradient6059"
      cx="375.168"
      cy="194.129"
      fx="375.168"
      fy="194.129"
      r="35.288651"
      gradientUnits="userSpaceOnUse"
      gradientTransform="matrix(1,0,0,0.5199306011199951,-73.55345153808594,84.42626953125)"
      xlink:href="#linearGradient5638" />
    <radialGradient
      id="radialGradient6062"
      cx="246.5545"
      cy="158.15649"
      fx="246.5545"
      fy="158.15649"
      r="33.480148"
      gradientUnits="userSpaceOnUse"
      gradientTransform="matrix(1,0,0,0.6000316739082336,-73.55345153808594,54.48846435546875)"
      xlink:href="#linearGradient5638" />
    <radialGradient
      id="radialGradient6065"
      cx="248.94501"
      cy="217.0045"
      fx="248.94501"
      fy="217.0045"
      r="33.479649"
      gradientUnits="userSpaceOnUse"
      gradientTransform="matrix(1,0,0,0.60004061460495,-73.55345153808594,78.02386474609375)"
      xlink:href="#linearGradient5628" />
    <radialGradient
      id="radialGradient6069"
      cx="171.933"
      cy="101.72665"
      fx="171.933"
      fy="101.72665"
      r="25.349325"
      gradientUnits="userSpaceOnUse"
      gradientTransform="matrix(1,0,0,0.6226072907447815,-77.20419311523438,35.358642578125)"
      xlink:href="#linearGradient5638" />
    <radialGradient
      id="radialGradient6078"
      cx="121.574"
      cy="173.0705"
      fx="121.574"
      fy="173.0705"
      r="18.11665"
      gradientUnits="userSpaceOnUse"
      gradientTransform="matrix(1,0,0,0.7816097140312195,-73.55345153808594,29.02783203125)"
      xlink:href="#linearGradient5638" />
    <radialGradient
      id="radialGradient6084"
      cx="171.933"
      cy="101.72665"
      fx="171.933"
      fy="101.72665"
      r="25.349325"
      gradientUnits="userSpaceOnUse"
      gradientTransform="matrix(1,0,0,0.6226072907447815,-25.574966430664062,35.358642578125)"
      xlink:href="#linearGradient5628" />
    <radialGradient
      id="radialGradient3170"
      cx="278.42551"
      cy="31.543301"
      fx="278.42551"
      fy="31.543301"
      r="72.722153"
      gradientUnits="userSpaceOnUse"
      gradientTransform="matrix(1,0,0,0.3090206980705261,-77.97882080078125,13.02667236328125)"
      xlink:href="#linearGradient5638" />
    <marker
      id="Arrow1Mstart3172"
      style="overflow:visible"
      inkscape:stockid="Arrow1Mstart"
      refX="0"
      refY="0"
      orient="auto">
      <path
        id="path847"
        style="stroke-width:1.0pt;fill-rule:evenodd;fill:#0000ff;stroke:#0000ff;"
        transform="scale(0.4) translate(10,0)"
        d="M 0,0 L 5,-5 L -12.5,0 L 5,5 L 0,0 z " />
    </marker>
    <marker
      id="Arrow1Mend3172"
      style="overflow:visible"
      inkscape:stockid="Arrow1Mend"
      refX="0"
      refY="0"
      orient="auto">
      <path
        id="path59"
        style="stroke-width:1.0pt;fill-rule:evenodd;fill:#0000ff;stroke:#0000ff;"
        transform="scale(0.4) rotate(180) translate(10,0)"
        d="M 0,0 L 5,-5 L -12.5,0 L 5,5 L 0,0 z " />
    </marker>
    <marker
      id="Arrow1Mend206"
      style="overflow:visible"
      inkscape:stockid="Arrow1Mend"
      refX="0"
      refY="0"
      orient="auto">
      <path
        id="path81"
        style="fill-rule:evenodd;fill:#0000ff;stroke:#0000ff;stroke-width:1.0pt;"
        transform="scale(0.4) rotate(180) translate(10,0)"
        d="M 0,0 L 5,-5 L -12.5,0 L 5,5 L 0,0 z " />
    </marker>
  </defs>
  <sodipodi:namedview
    id="namedview89"
    inkscape:cx="-0.46073914"
    inkscape:cy="4.1466527"
    inkscape:zoom="4.34085"
    inkscape:document-units="px"
    inkscape:current-layer="svg2">
    <inkscape:grid
      id="grid728"
      spacingx="12"
      spacingy="12"
      type="xygrid"
      units="px" />
  </sodipodi:namedview>
  <rect
    id="rect162"
    style="fill-opacity:1;stroke:none;stroke-opacity:1;stroke-width:0.5px;fill:#FFFFFF;"
    x="-57.7564"
    y="-9.345346"
    width="395.87656"
    height="237.40697" />
  <sodipodi:namedview
    id="namedview296"
    window-width="1635"
    document-rotation="0"
    window-maximized="0"
    inkscape:cy="4.1466527"
    window-x="0"
    inkscape:cx="-0.46073914"
    inkscape:zoom="4.34085"
    inkscape:document-units="px"
    window-height="1041"
    showguides="true"
    guide-bbox="true"
    window-y="0"
    inkscape:current-layer="svg2">
    <inkscape:grid
      id="grid847"
      spacingx="12"
      spacingy="12"
      type="xygrid"
      units="px" />
  </sodipodi:namedview>
  <path
    id="path6082"
    style="stroke-opacity:1;fill:url(#radialGradient6084);fill-opacity:1.0;stroke:#000000;stroke-width:0.95664901000000002;"
    d="m 171.22903,98.69476 c 0,-8.4497 -11.132,-15.3047 -24.871,-15.3047 -13.734,0 -24.871,6.852 -24.871,15.3047 0,8.449 11.133,15.304 24.871,15.304 13.735,0 24.871,-6.851 24.871,-15.304 " />
  <path
    id="path20"
    style="stroke:none;fill:#bd00ff;fill-rule:evenodd;"
    d="m 83.49655,120.32892 -6.714,4.554 -0.438,-7.875 " />
  <path
    id="path22"
    style="fill:none;stroke:#bd00ff;stroke-width:1.91330004;"
    d="m 83.49655,120.32892 -6.714,4.554 -0.438,-7.875 7.152,3.321 z " />
  <path
    id="path24"
    style="fill:url(#radialGradient6078);fill-opacity:1;stroke:#000000;stroke-width:1.91330004;"
    d="m 65.18054,164.3009 c 0,-7.293 -7.684,-13.203 -17.16,-13.203 -9.477,0 -17.16,5.91 -17.16,13.203 0,7.293 7.683,13.204 17.16,13.204 9.476,0 17.16,-5.911 17.16,-13.204 " />
  <path
    id="path26"
    style="stroke:#bd00ff;stroke-width:1.91330004;stroke-dasharray:6, 3;fill:none;"
    d="m 54.508545,154.0119 22,-29.175 " />
  <path
    id="path36"
    style="stroke:#000000;stroke-width:0.95664901;stroke-opacity:1;fill:url(#radialGradient6069);fill-opacity:1;"
    d="m 119.59981,98.69476 c 0,-8.4497 -11.132,-15.3047 -24.871,-15.3047 -13.734,0 -24.871,6.852 -24.871,15.3047 0,8.449 11.133,15.304 24.871,15.304 13.735,0 24.871,-6.851 24.871,-15.304 " />
  <path
    id="path38"
    style="fill:none;stroke:#000000;stroke-width:1.91330004;"
    d="m 178.67654,98.65692 c 0,-14.6837 -26.422,-26.5937 -59.015,-26.5937 -32.594,0 -59.016,11.906 -59.016,26.5937 0,14.683 26.422,26.594 59.016,26.594 32.593,0 59.015,-11.907 59.015,-26.594 " />
  <path
    id="path40"
    style="fill:url(#radialGradient6065);fill-opacity:1;stroke:#000000;stroke-width:1.91330004;"
    d="m 207.91454,208.23492 c 0,-10.562 -14.558,-19.132 -32.523,-19.132 -17.961,0 -32.523,8.562 -32.523,19.132 0,10.563 14.562,19.133 32.523,19.133 17.961,0 32.523,-8.562 32.523,-19.133 " />
  <path
    id="path42"
    style="fill:url(#radialGradient6062);fill-opacity:1;stroke:#000000;stroke-width:1.91330004;"
    d="m 205.52455,149.3869 c 0,-10.562 -14.559,-19.132 -32.524,-19.132 -17.961,0 -32.523,8.562 -32.523,19.132 0,10.563 14.562,19.133 32.523,19.133 17.961,0 32.524,-8.562 32.524,-19.133 " />
  <path
    id="path50"
    style="stroke-width:1.91330004;fill:url(#radialGradient6059);fill-opacity:1;stroke:#000000;"
    d="m 335.94653,185.35992 c 0,-9.605 -15.368,-17.391 -34.332,-17.391 -18.961,0 -34.332,7.786 -34.332,17.391 0,9.606 15.367,17.391 34.332,17.391 18.961,0 34.332,-7.785 34.332,-17.391 " />
  <path
    id="path52"
    style="fill:#ff0000;fill-rule:evenodd;stroke:none;"
    d="m 151.95055,193.88391 c 0,-2.11 -1.711,-3.825 -3.825,-3.825 -2.109,0 -3.824,1.712 -3.824,3.825 0,2.109 1.711,3.824 3.824,3.824 2.11,0 3.825,-1.711 3.825,-3.824 " />
  <path
    id="path54"
    style="stroke-width:1.91330004;fill:none;stroke:#ff0000;"
    d="m 151.95055,193.88391 c 0,-2.11 -1.711,-3.825 -3.825,-3.825 -2.109,0 -3.824,1.712 -3.824,3.825 0,2.109 1.711,3.824 3.824,3.824 2.11,0 3.825,-1.711 3.825,-3.824 " />
  <path
    id="path56"
    style="fill:#ff0000;fill-rule:evenodd;stroke:none;"
    d="m 166.87155,128.83289 c 0,-0.844 -0.683,-1.528 -1.527,-1.528 -0.844,0 -1.527,0.684 -1.527,1.528 0,0.843 0.683,1.527 1.527,1.527 0.844,0 1.527,-0.684 1.527,-1.527 " />
  <path
    id="path58"
    style="fill:none;stroke:#ff0000;stroke-width:1.91330004;"
    d="m 166.87155,128.83289 c 0,-0.844 -0.683,-1.528 -1.527,-1.528 -0.844,0 -1.527,0.684 -1.527,1.528 0,0.843 0.683,1.527 1.527,1.527 0.844,0 1.527,-0.684 1.527,-1.527 " />
  <path
    id="path60"
    style="nodetypes:cc;fill:none;stroke:#ff0000;stroke-width:2;stroke-miterlimit:4;stroke-dasharray:4,2;stroke-dashoffset:0;"
    d="M 154.33372,114.08136 165.81755,128.82892 " />
  <path
    id="path62"
    style="stroke:none;fill:#ff0000;fill-rule:evenodd;"
    d="m 133.52048,112.55841 c -0.402,0 -0.649,0.215 -0.649,0.598 0,0.18 0.09,0.371 0.239,0.477 0.101,0.082 0.25,0.117 0.523,0.117 l 2.336,0 c 0.992,0 1.68,-0.262 2.242,-0.86 0.524,-0.55 0.801,-1.261 0.801,-2.101 l 0,-0.539 c 0,-1.801 -1.281,-3.192 -2.953,-3.192 l -2.426,0 c -0.308,0 -0.387,0.012 -0.488,0.082 -0.172,0.106 -0.274,0.309 -0.274,0.516 0,0.383 0.231,0.598 0.649,0.598 l 0,4.304 z m 1.203,0 0,-4.297 1.234,0 c 0.594,0 1.02,0.18 1.356,0.571 0.324,0.379 0.504,0.875 0.504,1.402 l 0,0.516 c 0,0.57 -0.145,0.965 -0.461,1.312 -0.348,0.356 -0.719,0.492 -1.391,0.492 l -1.242,0.004 z " />
  <path
    id="path64"
    style="fill:#ff0000;fill-rule:evenodd;stroke:none;"
    d="m 141.99648,112.55841 c 1.016,-0.859 1.688,-1.425 2,-1.711 1.145,-1.019 1.422,-1.449 1.422,-2.187 0,-1.258 -1.047,-2.199 -2.457,-2.199 -0.679,0 -1.336,0.226 -1.797,0.636 -0.39,0.352 -0.691,0.907 -0.691,1.27 0,0.293 0.262,0.543 0.566,0.543 0.239,0 0.454,-0.129 0.512,-0.313 0.125,-0.343 0.137,-0.367 0.25,-0.496 0.25,-0.277 0.649,-0.441 1.102,-0.441 0.738,0 1.308,0.441 1.308,1.019 0,0.383 -0.191,0.633 -1.332,1.665 -0.511,0.464 -0.726,0.644 -2.644,2.218 l 0,1.188 5.211,0 0,-1.008 c 0,-0.274 -0.02,-0.379 -0.078,-0.481 -0.102,-0.171 -0.297,-0.273 -0.493,-0.273 -0.355,0 -0.535,0.188 -0.57,0.566 l -2.309,0.004 z " />
  <path
    id="path160"
    style="stroke:#ff0000;stroke-width:2;stroke-dasharray:4,2;stroke-miterlimit:4;stroke-dashoffset:0;fill:none;"
    d="m 176.82555,169.48889 3.824,15.305 " />
  <path
    id="path318"
    style="connector-curvature:0;fill:none;stroke:#0000ff;stroke-width:2;stroke-miterlimit:4;stroke-dasharray:none;marker-end:url(#Arrow1Mend206);nodetypes:cc;"
    d="m 172.67903,41.298218 -28.11992,30.35144 " />
  <path
    id="path216"
    style="stroke:#ff0000;stroke-width:2;stroke-dasharray:6,2;stroke-miterlimit:4;stroke-dashoffset:0;nodetypes:cc;fill:none;"
    d="M 97.41742,117.69501 149.55554,196.27393 " />
  <path
    id="path254"
    style="fill:#ff0000;fill-rule:evenodd;stroke:none;"
    d="m 166.87155,128.83289 c 0,-0.844 -0.683,-1.528 -1.527,-1.528 -0.844,0 -1.527,0.684 -1.527,1.528 0,0.843 0.683,1.527 1.527,1.527 0.844,0 1.527,-0.684 1.527,-1.527 " />
  <path
    id="path256"
    style="fill:none;stroke:#ff0000;stroke-width:1.91330004;"
    d="m 166.87155,128.83289 c 0,-0.844 -0.683,-1.528 -1.527,-1.528 -0.844,0 -1.527,0.684 -1.527,1.528 0,0.843 0.683,1.527 1.527,1.527 0.844,0 1.527,-0.684 1.527,-1.527 " />
  <path
    id="path258"
    style="stroke:none;fill:#ff0000;fill-rule:evenodd;"
    d="m 184.89555,186.13391 c 0,-2.11 -1.711,-3.825 -3.824,-3.825 -2.11,0 -3.825,1.711 -3.825,3.825 0,2.109 1.711,3.824 3.825,3.824 2.109,0 3.824,-1.711 3.824,-3.824 " />
  <path
    id="path260"
    style="stroke:#ff0000;stroke-width:1.91330004;fill:none;"
    d="m 184.89555,186.13391 c 0,-2.11 -1.711,-3.825 -3.824,-3.825 -2.11,0 -3.825,1.711 -3.825,3.825 0,2.109 1.711,3.824 3.825,3.824 2.109,0 3.824,-1.711 3.824,-3.824 " />
  <path
    id="path262"
    style="fill:#ff0000;fill-rule:evenodd;stroke:none;"
    d="m 265.71155,188.91089 c 0,-0.844 -0.683,-1.527 -1.527,-1.527 -0.844,0 -1.527,0.683 -1.527,1.527 0,0.844 0.683,1.528 1.527,1.528 0.844,0 1.527,-0.684 1.527,-1.528 " />
  <path
    id="path264"
    style="stroke:#ff0000;stroke-width:1.91330004;fill:none;"
    d="m 265.71155,188.91089 c 0,-0.844 -0.683,-1.527 -1.527,-1.527 -0.844,0 -1.527,0.683 -1.527,1.527 0,0.844 0.683,1.528 1.527,1.528 0.844,0 1.527,-0.684 1.527,-1.528 " />
  <path
    id="path266"
    style="stroke-dashoffset:0;fill:none;stroke:#ff0000;stroke-width:2;stroke-miterlimit:4;stroke-dasharray:6, 2;"
    d="m 209.55156,202.86792 51.356,-12.594 " />
  <path
    id="path268"
    style="fill:#0000ff;fill-rule:evenodd;stroke:none;"
    d="m 78.692276,110.274414 c -0.403,0 -0.649,0.215 -0.649,0.598 0,0.18 0.09,0.371 0.239,0.477 0.101,0.082 0.25,0.117 0.523,0.117 l 2.336,0 c 0.992,0 1.68,-0.262 2.242,-0.86 0.523,-0.55 0.801,-1.261 0.801,-2.101 l 0,-0.539 c 0,-1.801 -1.281,-3.192 -2.953,-3.192 l -2.426,0 c -0.309,0 -0.387,0.012 -0.488,0.082 -0.172,0.106 -0.274,0.309 -0.274,0.516 0,0.383 0.231,0.598 0.649,0.598 l 0,4.304 z m 1.199,0 0,-4.297 1.234,0 c 0.594,0 1.02,0.18 1.356,0.571 0.324,0.379 0.504,0.875 0.504,1.402 l 0,0.516 c 0,0.57 -0.145,0.965 -0.461,1.312 -0.348,0.356 -0.719,0.492 -1.391,0.492 l -1.242,0.004 z " />
  <path
    id="path270"
    style="stroke:none;fill:#0000ff;fill-rule:evenodd;"
    d="m 88.793274,104.149414 -2.418,0.625 c -0.453,0.114 -0.601,0.25 -0.601,0.578 0,0.329 0.218,0.59 0.508,0.59 0.109,0 0.14,-0.008 0.351,-0.066 l 0.961,-0.262 0,4.653 -1.113,0 c -0.285,0 -0.364,0.011 -0.461,0.082 -0.164,0.105 -0.266,0.308 -0.266,0.515 0,0.18 0.09,0.371 0.238,0.477 0.09,0.082 0.25,0.117 0.516,0.117 l 3.465,0 c 0.226,0 0.398,-0.035 0.48,-0.082 0.172,-0.117 0.274,-0.309 0.274,-0.516 0,-0.191 -0.09,-0.371 -0.242,-0.488 -0.114,-0.082 -0.207,-0.105 -0.52,-0.105 l -1.168,0 -0.004,-6.118 z " />
  <text
    id="text5257"
    style="space:preserve;text-decoration-line:none;text-decoration:none;line-height:0%;overflow:visible;text-indent:0;text-align:start;fill-opacity:1;text-transform:none;fill:#bd00ff;direction:ltr;color:#000000;fill-rule:nonzero;stroke:none;word-spacing:normal;font-variant:normal;font-style:normal;font-family:&#39;Bitstream Vera Sans&#39;;letter-spacing:normal;marker:none;text-anchor:start;-inkscape-font-specification:&#39;Bitstream Vera Sans&#39;;writing-mode:lr-tb;stroke-width:1px;display:inline;font-weight:normal;visibility:visible;enable-background:accumulate;font-stretch:normal;"
    transform="none"
    x="15.628845"
    y="187.84918">
    <tspan
      id="tspan5259"
      style="font-size:12px;line-height:0;role:line;"
      x="15.628845"
      y="187.84918">Dopamine</tspan>
  </text>
  <text
    id="text5302"
    style="stroke-width:1px;overflow:visible;enable-background:accumulate;writing-mode:lr-tb;fill-opacity:1;word-spacing:normal;visibility:visible;font-stretch:normal;text-decoration:none;text-transform:none;text-align:start;fill-rule:nonzero;space:preserve;line-height:0%;font-family:&#39;Bitstream Vera Sans&#39;;marker:none;stroke:none;color:#000000;text-decoration-line:none;direction:ltr;text-anchor:start;fill:#000000;text-indent:0;font-weight:normal;-inkscape-font-specification:&#39;Bitstream Vera Sans&#39;;font-style:normal;font-variant:normal;letter-spacing:normal;display:inline;"
    transform="none"
    x="36.401405"
    y="168.66956">
    <tspan
      id="tspan5304"
      style="line-height:0;role:line;font-size:12px;"
      x="36.401405"
      y="168.66956">SNc</tspan>
  </text>
  <text
    id="text5306"
    style="font-weight:normal;font-family:&#39;Bitstream Vera Sans&#39;;-inkscape-font-specification:&#39;Bitstream Vera Sans&#39;;direction:ltr;writing-mode:lr-tb;text-decoration:none;text-indent:0;fill-opacity:1;font-stretch:normal;marker:none;line-height:0%;fill-rule:nonzero;fill:#000000;font-style:normal;display:inline;stroke-width:1px;stroke:none;text-transform:none;visibility:visible;text-decoration-line:none;enable-background:accumulate;text-align:start;font-variant:normal;letter-spacing:normal;overflow:visible;word-spacing:normal;text-anchor:start;color:#000000;space:preserve;"
    transform="none"
    x="89.68666"
    y="175.85388">
    <tspan
      id="tspan5308"
      style="font-size:12px;line-height:0;role:line;"
      x="89.68666"
      y="175.85388">Direct</tspan>
  </text>
  <text
    id="text5310"
    style="visibility:visible;overflow:visible;font-variant:normal;writing-mode:lr-tb;direction:ltr;line-height:0%;text-transform:none;color:#000000;font-weight:normal;fill-opacity:1;font-stretch:normal;text-decoration:none;text-align:start;fill:#000000;font-family:&#39;Bitstream Vera Sans&#39;;display:inline;text-decoration-line:none;text-indent:0;font-style:normal;stroke:none;space:preserve;marker:none;stroke-width:1px;-inkscape-font-specification:&#39;Bitstream Vera Sans&#39;;word-spacing:normal;fill-rule:nonzero;letter-spacing:normal;text-anchor:start;enable-background:accumulate;"
    transform="none"
    x="195.55803"
    y="175.85388">
    <tspan
      id="tspan5312"
      style="role:line;font-size:12px;line-height:0;"
      x="195.55803"
      y="175.85388">Indirect</tspan>
  </text>
  <text
    id="text5314"
    style="enable-background:accumulate;overflow:visible;fill-rule:nonzero;color:#000000;display:inline;word-spacing:normal;text-transform:none;font-weight:normal;text-indent:0;fill-opacity:1;text-decoration:none;fill:#000000;space:preserve;-inkscape-font-specification:&#39;Bitstream Vera Sans&#39;;font-variant:normal;text-decoration-line:none;font-family:&#39;Bitstream Vera Sans&#39;;text-anchor:start;text-align:start;visibility:visible;stroke:none;marker:none;writing-mode:lr-tb;line-height:0%;font-stretch:normal;font-style:normal;stroke-width:1px;direction:ltr;letter-spacing:normal;"
    transform="none"
    x="165.80562"
    y="212.70905">
    <tspan
      id="tspan5316"
      style="font-size:12px;line-height:0;role:line;"
      x="165.80562"
      y="212.70905">GPi</tspan>
  </text>
  <text
    id="text5318"
    style="direction:ltr;fill-rule:nonzero;line-height:0%;fill:#000000;fill-opacity:1;marker:none;text-indent:0;word-spacing:normal;stroke-width:1px;-inkscape-font-specification:&#39;Bitstream Vera Sans&#39;;font-stretch:normal;color:#000000;stroke:none;text-decoration:none;visibility:visible;font-weight:normal;space:preserve;font-style:normal;enable-background:accumulate;text-align:start;text-transform:none;text-decoration-line:none;font-family:&#39;Bitstream Vera Sans&#39;;letter-spacing:normal;font-variant:normal;text-anchor:start;overflow:visible;writing-mode:lr-tb;display:inline;"
    transform="none"
    x="161.22957"
    y="153.75555">
    <tspan
      id="tspan5320"
      style="line-height:0;role:line;font-size:12px;"
      x="161.22957"
      y="153.75555">GPe</tspan>
  </text>
  <text
    id="text5326"
    style="fill-rule:nonzero;font-stretch:normal;font-family:&#39;Bitstream Vera Sans&#39;;enable-background:accumulate;text-decoration-line:none;visibility:visible;font-style:normal;text-anchor:start;space:preserve;fill-opacity:1;text-align:start;text-transform:none;color:#000000;word-spacing:normal;stroke-width:1px;marker:none;letter-spacing:normal;-inkscape-font-specification:&#39;Bitstream Vera Sans&#39;;font-weight:normal;writing-mode:lr-tb;text-indent:0;direction:ltr;fill:#000000;overflow:visible;text-decoration:none;font-variant:normal;stroke:none;display:inline;line-height:0%;"
    transform="none"
    x="272.64288"
    y="189.83356">
    <tspan
      id="tspan5328"
      style="font-size:12px;line-height:0;role:line;"
      x="272.64288"
      y="189.83356">Thalamus</tspan>
  </text>
  <text
    id="text5334"
    style="fill:#000000;text-decoration-line:none;text-transform:none;font-stretch:normal;visibility:visible;fill-opacity:1;space:preserve;text-decoration:none;font-family:&#39;Bitstream Vera Sans&#39;;stroke:none;font-variant:normal;-inkscape-font-specification:&#39;Bitstream Vera Sans&#39;;direction:ltr;font-style:normal;word-spacing:normal;color:#000000;stroke-width:1px;marker:none;line-height:0%;text-indent:0;overflow:visible;fill-rule:nonzero;text-anchor:start;enable-background:accumulate;display:inline;writing-mode:lr-tb;font-weight:normal;letter-spacing:normal;text-align:start;"
    transform="none"
    x="82.38519"
    y="102.83917">
    <tspan
      id="tspan5336"
      style="line-height:0;-inkscape-font-specification:&#39;Bitstream Vera Sans Bold&#39;;role:line;font-weight:bold;font-size:18px;"
      x="82.38519"
      y="102.83917">Go</tspan>
  </text>
  <text
    id="text5338"
    style="word-spacing:normal;fill:#000000;text-decoration-line:none;marker:none;text-transform:none;text-align:start;visibility:visible;color:#000000;text-decoration:none;direction:ltr;writing-mode:lr-tb;text-indent:0;font-weight:normal;-inkscape-font-specification:&#39;Bitstream Vera Sans&#39;;stroke-width:1px;fill-rule:nonzero;text-anchor:start;line-height:0%;stroke:none;font-family:&#39;Bitstream Vera Sans&#39;;display:inline;overflow:visible;fill-opacity:1;letter-spacing:normal;font-style:normal;font-stretch:normal;enable-background:accumulate;font-variant:normal;space:preserve;"
    transform="none"
    x="135.43834"
    y="102.35126">
    <tspan
      id="tspan5340"
      style="line-height:0;role:line;font-size:8px;"
      x="135.43834"
      y="102.35126">NoGo</tspan>
  </text>
  <text
    id="text5672"
    style="marker:none;font-stretch:normal;stroke:none;-inkscape-font-specification:&#39;Bitstream Vera Sans&#39;;line-height:0%;text-decoration:none;text-decoration-line:none;font-family:&#39;Bitstream Vera Sans&#39;;overflow:visible;font-variant:normal;text-align:start;font-style:normal;text-indent:0;visibility:visible;direction:ltr;letter-spacing:normal;display:inline;color:#000000;fill-opacity:1;font-weight:normal;writing-mode:lr-tb;enable-background:accumulate;text-anchor:start;word-spacing:normal;stroke-width:1px;fill-rule:nonzero;text-transform:none;fill:#000000;space:preserve;"
    transform="none"
    x="3.5186462"
    y="100.475586">
    <tspan
      id="tspan5674"
      style="role:line;font-size:12px;line-height:0;"
      x="3.5186462"
      y="100.475586">Striatum</tspan>
  </text>
  <path
    id="path3164"
    style="stroke-width:1.91330004;connector-curvature:0;fill:url(#radialGradient3170);fill-opacity:1;stroke:#000000;"
    d="m 272.21216,22.77417 c 0,-11.883 -32.129,-21.516 -71.766,-21.516 -39.632,0 -71.765,9.633 -71.765,21.516 0,11.883 32.129,21.516 71.765,21.516 39.633,0 71.766,-9.633 71.766,-21.516 " />
  <text
    id="text5330"
    style="color:#000000;text-decoration-line:none;word-spacing:normal;text-decoration:none;font-variant:normal;font-family:&#39;Bitstream Vera Sans&#39;;line-height:0%;visibility:visible;fill:#000000;text-anchor:start;direction:ltr;text-indent:0;stroke-width:1px;letter-spacing:normal;display:inline;overflow:visible;font-style:normal;-inkscape-font-specification:&#39;Bitstream Vera Sans&#39;;space:preserve;text-align:start;writing-mode:lr-tb;font-stretch:normal;marker:none;enable-background:accumulate;font-weight:normal;fill-opacity:1;fill-rule:nonzero;stroke:none;text-transform:none;"
    transform="none"
    x="156.94669"
    y="27.241943">
    <tspan
      id="tspan5332"
      style="line-height:0;role:line;font-size:12px;"
      x="156.94669"
      y="27.241943">Frontal Cortex</tspan>
  </text>
  <path
    id="path425"
    style="fill:none;connector-curvature:0;stroke-width:2;stroke-dasharray:none;nodetypes:cc;marker-start:url(#Arrow1Mstart3172);stroke-miterlimit:4;stroke:#0000ff;marker-end:url(#Arrow1Mend3172);"
    d="m 245.80373,44.986023 46.55893,121.07136 " />
  <path
    id="path1387"
    style="stroke-opacity:1;nodetypes:czzzzzc;fill:none;stroke:#000000;stroke-width:0.80079px;stroke-linecap:butt;stroke-linejoin:miter;"
    d="m 62.90387,67.9516 c 0,0 5.26989,1.36163 8.96138,-0.40734 3.69149,-1.76897 2.75141,-9.02796 5.29536,-11.49323 2.54394,-2.46528 2.78631,-3.71265 6.9247,-3.65694 4.13839,0.0557 8.62527,4.35334 11.81272,6.79146 3.18745,2.43812 3.41459,6.07634 7.33204,7.57508 3.91744,1.49874 13.44206,0.52242 13.44206,0.52242 " />
  <path
    id="path1391"
    style="stroke:#000000;stroke-width:0.80079px;stroke-linecap:butt;stroke-linejoin:miter;stroke-opacity:1;nodetypes:czzzzzc;fill:none;"
    d="m 82.8633,202.80481 c 0,0 5.26989,-1.36163 8.96138,0.40734 3.69149,1.76897 2.75141,9.02796 5.29536,11.49323 2.54394,2.46528 2.78631,3.71265 6.9247,3.65694 4.13839,-0.0557 8.62527,-4.35334 11.81272,-6.79146 3.18745,-2.43812 3.41459,-6.07634 7.33204,-7.57508 3.91744,-1.49874 13.44206,-0.52242 13.44206,-0.52242 " />
  <path
    id="path1393"
    style="stroke-width:0.80079px;stroke-linecap:butt;stroke-linejoin:miter;stroke-opacity:1;nodetypes:czzzzzc;fill:none;stroke:#000000;"
    d="m 277.97693,221.92432 c 0,0 5.26989,1.36163 8.96138,-0.40734 3.69149,-1.76897 2.75141,-9.02796 5.29536,-11.49323 2.54394,-2.46528 2.78631,-3.71265 6.9247,-3.65694 4.13839,0.0557 8.62527,4.35334 11.81272,6.79146 3.18745,2.43812 3.41459,6.07634 7.33204,7.57508 3.91744,1.49874 13.44206,0.52242 13.44206,0.52242 " />
  <text
    id="text1397"
    style="font-size:10.6667px;line-height:1.25;font-family:Arial;-inkscape-font-specification:Arial;space:preserve;"
    transform="none"
    x="81.23396"
    y="65.06775">
    <tspan
      id="tspan1395"
      style="role:line;"
      x="81.23396"
      y="65.06775">+</tspan>
  </text>
  <text
    id="text1401"
    style="space:preserve;font-size:10.6667px;line-height:1.25;font-family:Arial;-inkscape-font-specification:Arial;"
    transform="none"
    x="99.971375"
    y="214.15247">
    <tspan
      id="tspan1399"
      style="role:line;"
      x="99.971375"
      y="214.15247">-</tspan>
  </text>
  <text
    id="text1405"
    style="-inkscape-font-specification:Arial;space:preserve;font-size:10.6667px;line-height:1.25;font-family:Arial;"
    transform="none"
    x="295.89966"
    y="217.81848">
    <tspan
      id="tspan1403"
      style="role:line;"
      x="295.89966"
      y="217.81848">+</tspan>
  </text>
  <g
    id="g300"
    transform="translate(218.39041,152.15915)">
    <path
      id="path456"
      style="fill-opacity:1;stroke:#000000;stroke-opacity:1;stroke-width:0.5px;fill:#0000FF;"
      d="m 59.599915,72.1057 60.02774,0 " />
    <path
      id="path540"
      style="stroke:#000000;stroke-opacity:1;stroke-width:0.5px;fill:#0000FF;fill-opacity:1;"
      d="m 59.632828,48.180164 0.06581879,23.89262 " />
  </g>
  <g
    id="g511"
    transform="translate(23.03696,148.24286)">
    <path
      id="path456"
      style="stroke-opacity:1;stroke-width:0.5px;fill:#0000FF;fill-opacity:1;stroke:#000000;"
      d="m 59.599915,72.1057 60.02774,0 " />
    <path
      id="path540"
      style="stroke:#000000;stroke-opacity:1;stroke-width:0.5px;fill:#0000FF;fill-opacity:1;"
      d="m 59.632828,48.180164 0.06581879,23.89262 " />
  </g>
  <g
    id="g694"
    transform="translate(3.4555435,-2.3036957)">
    <path
      id="path456"
      style="stroke:#000000;stroke-opacity:1;stroke-width:0.5px;fill:#0000FF;fill-opacity:1;"
      d="m 59.599915,72.1057 60.02774,0 " />
    <path
      id="path540"
      style="stroke-width:0.5px;fill:#0000FF;fill-opacity:1;stroke:#000000;stroke-opacity:1;"
      d="m 59.632828,48.180164 0.06581879,23.89262 " />
  </g>
</svg>
