<?xml version="1.0" encoding="UTF-8" standalone="no"?>
<svg
  xmlns="http://www.w3.org/2000/svg" version="1.1"
  width="400px"
  height="400px"
  viewBox="0 0 1000.0 1000.0">
<path stroke="#000000" stroke-width="2" fill="none"
  d="M 160.0,824.5 L 160.0,101.7 L 882.8,101.7 L 882.8,824.5 L 160.0,824.5 "
 />

<g>

<text x="911.7" y="885.9" font-family="Arial" font-size="36.2" fill="#000000" text-anchor="start">
x 1000
</text>

<text x="521.4" y="922.0" font-family="Arial" font-size="36.2" fill="#000000" text-anchor="middle">
epoch
</text>

<text x="167.1" y="885.9" font-family="Arial" font-size="36.2" fill="#000000" text-anchor="middle">
0
</text>

<text x="308.8" y="885.9" font-family="Arial" font-size="36.2" fill="#000000" text-anchor="middle">
0.2
</text>

<text x="450.6" y="885.9" font-family="Arial" font-size="36.2" fill="#000000" text-anchor="middle">
0.4
</text>

<text x="592.3" y="885.9" font-family="Arial" font-size="36.2" fill="#000000" text-anchor="middle">
0.6
</text>

<text x="734.0" y="885.9" font-family="Arial" font-size="36.2" fill="#000000" text-anchor="middle">
0.8
</text>

<text x="875.7" y="885.9" font-family="Arial" font-size="36.2" fill="#000000" text-anchor="middle">
1
</text>
<path stroke="#000000" stroke-width="2" fill="none"
  d="M 160.0,824.5 L 882.8,824.5 M 167.1,842.5 L 167.1,806.4 M 308.8,842.5 L 308.8,806.4 M 450.6,842.5 L 450.6,806.4 M 592.3,842.5 L 592.3,806.4 M 734.0,842.5 L 734.0,806.4 M 875.7,842.5 L 875.7,806.4 "
 />
<path stroke="#000000" stroke-width="2" fill="none"
  d="M 160.0,101.7 L 882.8,101.7 M 167.1,119.8 L 167.1,83.7 M 308.8,119.8 L 308.8,83.7 M 450.6,119.8 L 450.6,83.7 M 592.3,119.8 L 592.3,83.7 M 734.0,119.8 L 734.0,83.7 M 875.7,119.8 L 875.7,83.7 "
 />

<text x="69.7" y="463.1" font-family="Arial" font-size="36.2" fill="#000080" writing-mode="tb" text-anchor="middle">
V1p lay cos err 3
</text>

<text x="134.7" y="838.9" font-family="Arial" font-size="36.2" fill="#000080" text-anchor="end">
0
</text>

<text x="134.7" y="766.7" font-family="Arial" font-size="36.2" fill="#000080" text-anchor="end">
0.1
</text>

<text x="134.7" y="694.4" font-family="Arial" font-size="36.2" fill="#000080" text-anchor="end">
0.2
</text>

<text x="134.7" y="622.1" font-family="Arial" font-size="36.2" fill="#000080" text-anchor="end">
0.3
</text>

<text x="134.7" y="549.8" font-family="Arial" font-size="36.2" fill="#000080" text-anchor="end">
0.4
</text>

<text x="134.7" y="477.6" font-family="Arial" font-size="36.2" fill="#000080" text-anchor="end">
0.5
</text>

<text x="134.7" y="405.3" font-family="Arial" font-size="36.2" fill="#000080" text-anchor="end">
0.6
</text>

<text x="134.7" y="333.0" font-family="Arial" font-size="36.2" fill="#000080" text-anchor="end">
0.7
</text>

<text x="134.7" y="260.7" font-family="Arial" font-size="36.2" fill="#000080" text-anchor="end">
0.8
</text>

<text x="134.7" y="188.5" font-family="Arial" font-size="36.2" fill="#000080" text-anchor="end">
0.9
</text>

<text x="134.7" y="116.2" font-family="Arial" font-size="36.2" fill="#000080" text-anchor="end">
1
</text>
<path stroke="#000080" stroke-width="2" fill="none"
  d="M 160.0,824.5 L 160.0,101.7 M 142.0,824.5 L 178.1,824.5 M 142.0,752.2 L 178.1,752.2 M 142.0,679.9 L 178.1,679.9 M 142.0,607.7 L 178.1,607.7 M 142.0,535.4 L 178.1,535.4 M 142.0,463.1 L 178.1,463.1 M 142.0,390.8 L 178.1,390.8 M 142.0,318.6 L 178.1,318.6 M 142.0,246.3 L 178.1,246.3 M 142.0,174.0 L 178.1,174.0 M 142.0,101.7 L 178.1,101.7 "
 />
<path stroke="#000080" stroke-width="2" fill="none"
  d="M 882.8,824.5 L 882.8,101.7 M 864.7,824.5 L 900.8,824.5 M 864.7,752.2 L 900.8,752.2 M 864.7,679.9 L 900.8,679.9 M 864.7,607.7 L 900.8,607.7 M 864.7,535.4 L 900.8,535.4 M 864.7,463.1 L 900.8,463.1 M 864.7,390.8 L 900.8,390.8 M 864.7,318.6 L 900.8,318.6 M 864.7,246.3 L 900.8,246.3 M 864.7,174.0 L 900.8,174.0 M 864.7,101.7 L 900.8,101.7 "
 />

</g>

<g transform="translate(0.0,-759.6)">

<g transform="translate(0.0,-0.0)">
<path stroke="#000000" stroke-width="1" fill="none"
  d="M 160.0,824.5 L 181.7,824.5 "
 />

<text x="189.0" y="831.7" font-family="Arial" font-size="14.5" fill="#000000" text-anchor="start">
352300 000: BP 20fg mov4 rot1 tick8 -- encode, sse, lr.05, nobin, meta stats
</text>

</g>

</g>

<g>
<path stroke="#000080" stroke-width="1" fill="none"
  d=""
 />
<path stroke="#000000" stroke-width="1" fill="none"
  d="M 167.1,414.3 
L 167.8,285.0 L 168.5,250.9 L 169.3,229.6 L 170.0,222.5 L 170.7,213.2 L 171.4,205.4 L 172.1,200.3 L 172.8,200.7 L 173.5,189.5 L 174.2,187.5 
L 174.9,184.4 L 175.6,191.7 L 176.3,189.8 L 177.0,184.4 L 177.8,181.4 L 178.5,179.3 L 179.2,178.9 L 179.9,177.1 L 180.6,174.4 L 181.3,172.0 
L 182.0,170.0 L 182.7,169.9 L 183.4,170.5 L 184.1,165.4 L 184.8,167.4 L 185.6,163.9 L 186.3,171.7 L 187.0,162.2 L 187.7,165.6 L 188.4,160.4 
L 189.1,160.2 L 189.8,159.9 L 190.5,157.8 L 191.2,159.8 L 191.9,157.8 L 192.6,163.6 L 193.3,155.9 L 194.1,157.2 L 194.8,158.8 L 195.5,155.1 
L 196.2,158.6 L 196.9,157.2 L 197.6,154.6 L 198.3,155.2 L 199.0,152.3 L 199.7,154.4 L 200.4,153.2 L 201.1,153.6 L 201.8,150.0 L 202.6,151.7 
L 203.3,149.8 L 204.0,151.5 L 204.7,147.7 L 205.4,150.0 L 206.1,150.7 L 206.8,150.0 L 207.5,151.7 L 208.2,148.1 L 208.9,146.2 L 209.6,148.3 
L 210.4,150.5 L 211.1,148.3 L 211.8,150.1 L 212.5,145.4 L 213.2,149.7 L 213.9,145.9 L 214.6,144.0 L 215.3,143.7 L 216.0,147.7 L 216.7,148.1 
L 217.4,145.1 L 218.1,147.9 L 218.9,144.2 L 219.6,146.4 L 220.3,146.2 L 221.0,146.1 L 221.7,144.2 L 222.4,143.1 L 223.1,143.6 L 223.8,138.6 
L 224.5,144.4 L 225.2,145.9 L 225.9,142.7 L 226.6,143.3 L 227.4,143.0 L 228.1,144.8 L 228.8,139.5 L 229.5,142.3 L 230.2,143.6 L 230.9,140.0 
L 231.6,143.3 L 232.3,139.8 L 233.0,140.5 L 233.7,139.1 L 234.4,139.3 L 235.2,139.2 L 235.9,136.4 L 236.6,138.4 L 237.3,138.8 L 238.0,136.8 
L 238.7,141.3 L 239.4,135.8 L 240.1,135.3 L 240.8,135.3 L 241.5,139.2 L 242.2,138.9 L 242.9,135.8 L 243.7,134.2 L 244.4,138.0 L 245.1,134.9 
L 245.8,138.2 L 246.5,134.5 L 247.2,135.2 L 247.9,136.2 L 248.6,136.8 L 249.3,136.5 L 250.0,136.8 L 250.7,136.2 L 251.4,134.9 L 252.2,139.1 
L 252.9,137.2 L 253.6,136.0 L 254.3,136.6 L 255.0,135.1 L 255.7,137.1 L 256.4,134.4 L 257.1,138.2 L 257.8,135.1 L 258.5,134.9 L 259.2,132.9 
L 260.0,134.4 L 260.7,135.1 L 261.4,131.8 L 262.1,135.1 L 262.8,135.9 L 263.5,133.6 L 264.2,136.2 L 264.9,131.6 L 265.6,132.7 L 266.3,132.4 
L 267.0,132.3 L 267.7,132.8 L 268.5,133.1 L 269.2,132.6 L 269.9,134.5 L 270.6,134.3 L 271.3,134.2 L 272.0,135.2 L 272.7,133.6 L 273.4,129.5 
L 274.1,132.1 L 274.8,131.8 L 275.5,132.2 L 276.2,131.1 L 277.0,131.8 L 277.7,132.5 L 278.4,134.4 L 279.1,133.7 L 279.8,133.6 L 280.5,130.8 
L 281.2,132.1 L 281.9,131.6 L 282.6,131.2 L 283.3,130.2 L 284.0,131.3 L 284.8,131.0 L 285.5,130.1 L 286.2,134.3 L 286.9,132.5 L 287.6,130.9 
L 288.3,131.1 L 289.0,131.9 L 289.7,129.3 L 290.4,132.4 L 291.1,131.3 L 291.8,131.8 L 292.5,132.4 L 293.3,129.4 L 294.0,128.8 L 294.7,129.4 
L 295.4,129.5 L 296.1,131.3 L 296.8,129.8 L 297.5,128.5 L 298.2,129.8 L 298.9,129.4 L 299.6,129.2 L 300.3,129.1 L 301.0,129.6 L 301.8,129.3 
L 302.5,129.4 L 303.2,130.0 L 303.9,127.4 L 304.6,128.7 L 305.3,129.6 L 306.0,130.0 L 306.7,129.4 L 307.4,129.9 L 308.1,128.9 L 308.8,127.4 
L 309.6,129.0 L 310.3,127.6 L 311.0,127.6 L 311.7,127.6 L 312.4,129.2 L 313.1,128.7 L 313.8,129.2 L 314.5,127.6 L 315.2,129.9 L 315.9,129.3 
L 316.6,127.2 L 317.3,129.4 L 318.1,126.2 L 318.8,126.6 L 319.5,129.1 L 320.2,126.8 L 320.9,131.5 L 321.6,128.0 L 322.3,127.2 L 323.0,127.9 
L 323.7,126.8 L 324.4,125.9 L 325.1,127.2 L 325.8,126.9 L 326.6,129.0 L 327.3,127.1 L 328.0,127.5 L 328.7,126.2 L 329.4,127.1 L 330.1,126.4 
L 330.8,128.4 L 331.5,126.3 L 332.2,126.3 L 332.9,127.4 L 333.6,127.8 L 334.4,127.0 L 335.1,128.7 L 335.8,126.6 L 336.5,125.2 L 337.2,125.9 
L 337.9,128.8 L 338.6,127.4 L 339.3,125.5 L 340.0,129.0 L 340.7,125.6 L 341.4,124.7 L 342.1,127.0 L 342.9,125.6 L 343.6,126.4 L 344.3,127.2 
L 345.0,127.0 L 345.7,126.9 L 346.4,126.0 L 347.1,123.5 L 347.8,125.8 L 348.5,126.1 L 349.2,126.6 L 349.9,125.6 L 350.6,124.9 L 351.4,124.0 
L 352.1,124.4 L 352.8,124.4 L 353.5,125.6 L 354.2,125.8 L 354.9,123.2 L 355.6,124.6 L 356.3,126.0 L 357.0,124.3 L 357.7,124.2 L 358.4,125.6 
L 359.2,125.5 L 359.9,124.0 L 360.6,125.2 L 361.3,126.9 L 362.0,123.6 L 362.7,123.7 L 363.4,124.2 L 364.1,125.4 L 364.8,124.8 L 365.5,123.3 
L 366.2,124.0 L 366.9,124.1 L 367.7,124.5 L 368.4,126.6 L 369.1,125.9 L 369.8,122.2 L 370.5,123.9 L 371.2,123.9 L 371.9,125.2 L 372.6,125.7 
L 373.3,124.3 L 374.0,124.9 L 374.7,126.1 L 375.4,123.6 L 376.2,122.3 L 376.9,123.3 L 377.6,125.1 L 378.3,123.6 L 379.0,124.2 L 379.7,122.5 
L 380.4,121.5 L 381.1,122.2 L 381.8,123.0 L 382.5,122.4 L 383.2,124.8 L 383.9,123.0 L 384.7,123.4 L 385.4,122.8 L 386.1,123.0 L 386.8,121.5 
L 387.5,123.3 L 388.2,122.0 L 388.9,122.8 L 389.6,124.5 L 390.3,122.8 L 391.0,121.3 L 391.7,121.3 L 392.5,125.0 L 393.2,121.9 L 393.9,122.4 
L 394.6,122.3 L 395.3,124.6 L 396.0,122.6 L 396.7,124.0 L 397.4,122.7 L 398.1,124.2 L 398.8,122.6 L 399.5,122.0 L 400.2,122.2 L 401.0,120.6 
L 401.7,123.7 L 402.4,122.5 L 403.1,123.2 L 403.8,122.0 L 404.5,122.5 L 405.2,120.7 L 405.9,122.3 L 406.6,122.4 L 407.3,123.3 L 408.0,121.3 
L 408.7,120.1 L 409.5,120.5 L 410.2,122.6 L 410.9,121.3 L 411.6,121.1 L 412.3,122.0 L 413.0,121.2 L 413.7,123.1 L 414.4,123.6 L 415.1,121.6 
L 415.8,121.2 L 416.5,123.4 L 417.3,122.7 L 418.0,123.0 L 418.7,121.4 L 419.4,121.6 L 420.1,121.5 L 420.8,120.7 L 421.5,119.8 L 422.2,118.9 
L 422.9,122.7 L 423.6,120.3 L 424.3,121.1 L 425.0,121.8 L 425.8,120.8 L 426.5,121.8 L 427.2,121.2 L 427.9,120.5 L 428.6,120.3 L 429.3,121.3 
L 430.0,122.0 L 430.7,122.6 L 431.4,122.5 L 432.1,119.6 L 432.8,120.2 L 433.5,122.9 L 434.3,123.1 L 435.0,121.7 L 435.7,122.2 L 436.4,120.4 
L 437.1,120.8 L 437.8,120.1 L 438.5,119.1 L 439.2,121.2 L 439.9,120.3 L 440.6,120.4 L 441.3,120.0 L 442.1,120.0 L 442.8,121.1 L 443.5,120.9 
L 444.2,120.1 L 444.9,120.4 L 445.6,120.6 L 446.3,121.2 L 447.0,119.8 L 447.7,120.7 L 448.4,120.4 L 449.1,121.0 L 449.8,120.0 L 450.6,119.1 
L 451.3,121.7 L 452.0,120.0 L 452.7,119.6 L 453.4,120.7 L 454.1,120.0 L 454.8,119.7 L 455.5,121.4 L 456.2,120.3 L 456.9,120.2 L 457.6,119.6 
L 458.3,119.6 L 459.1,119.9 L 459.8,119.1 L 460.5,120.6 L 461.2,120.2 L 461.9,118.2 L 462.6,121.3 L 463.3,120.1 L 464.0,121.4 L 464.7,119.3 
L 465.4,119.2 L 466.1,119.8 L 466.9,118.8 L 467.6,118.5 L 468.3,120.1 L 469.0,119.8 L 469.7,119.5 L 470.4,118.9 L 471.1,120.4 L 471.8,119.4 
L 472.5,120.3 L 473.2,119.1 L 473.9,119.6 L 474.6,119.2 L 475.4,119.6 L 476.1,119.8 L 476.8,119.4 L 477.5,119.3 L 478.2,119.0 L 478.9,119.2 
L 479.6,119.3 L 480.3,119.2 L 481.0,119.7 L 481.7,118.6 L 482.4,121.1 L 483.1,117.6 L 483.9,118.6 L 484.6,118.7 L 485.3,118.4 L 486.0,121.9 
L 486.7,118.9 L 487.4,119.9 L 488.1,118.7 L 488.8,119.3 L 489.5,118.5 L 490.2,117.8 L 490.9,118.6 L 491.7,118.6 L 492.4,117.0 L 493.1,118.8 
L 493.8,117.0 L 494.5,118.1 L 495.2,118.2 L 495.9,118.3 L 496.6,117.5 L 497.3,117.9 L 498.0,118.3 L 498.7,118.5 L 499.4,120.0 L 500.2,118.1 
L 500.9,118.6 L 501.6,119.1 L 502.3,119.3 L 503.0,117.0 L 503.7,120.3 L 504.4,119.5 L 505.1,118.4 L 505.8,118.3 L 506.5,118.5 L 507.2,119.1 
L 507.9,118.5 L 508.7,119.1 L 509.4,119.3 L 510.1,117.3 L 510.8,119.2 L 511.5,117.3 L 512.2,118.1 L 512.9,116.3 L 513.6,118.8 L 514.3,117.8 
L 515.0,118.9 L 515.7,117.8 L 516.5,116.8 L 517.2,119.0 L 517.9,117.8 L 518.6,118.1 L 519.3,117.9 L 520.0,118.2 L 520.7,117.0 L 521.4,117.1 
L 522.1,119.6 L 522.8,119.4 L 523.5,117.2 L 524.2,118.9 L 525.0,117.4 L 525.7,118.6 L 526.4,116.5 L 527.1,117.2 L 527.8,120.4 L 528.5,117.9 
L 529.2,117.9 L 529.9,118.1 L 530.6,117.4 L 531.3,118.5 L 532.0,115.7 L 532.7,117.7 L 533.5,117.0 L 534.2,118.1 L 534.9,117.2 L 535.6,117.2 
L 536.3,117.4 L 537.0,118.0 L 537.7,118.7 L 538.4,118.1 L 539.1,117.7 L 539.8,118.9 L 540.5,118.0 L 541.3,116.6 L 542.0,116.9 L 542.7,115.7 
L 543.4,115.8 L 544.1,118.2 L 544.8,116.9 L 545.5,117.4 L 546.2,116.5 L 546.9,118.8 L 547.6,118.2 L 548.3,118.4 L 549.0,117.0 L 549.8,117.0 
L 550.5,116.6 L 551.2,118.9 L 551.9,116.7 L 552.6,117.7 L 553.3,117.5 L 554.0,118.6 L 554.7,117.0 L 555.4,117.6 L 556.1,116.9 L 556.8,116.6 
L 557.5,117.0 L 558.3,116.3 L 559.0,117.3 L 559.7,117.3 L 560.4,116.7 L 561.1,116.8 L 561.8,116.8 L 562.5,118.2 L 563.2,116.4 L 563.9,115.7 
L 564.6,117.8 L 565.3,116.5 L 566.1,116.5 L 566.8,115.3 L 567.5,118.8 L 568.2,117.3 L 568.9,116.5 L 569.6,117.1 L 570.3,116.9 L 571.0,116.5 
L 571.7,117.1 L 572.4,116.4 L 573.1,118.5 L 573.8,118.3 L 574.6,117.0 L 575.3,116.5 L 576.0,116.9 L 576.7,116.5 L 577.4,116.2 L 578.1,117.0 
L 578.8,116.2 L 579.5,116.1 L 580.2,116.9 L 580.9,117.3 L 581.6,115.5 L 582.3,118.9 L 583.1,116.4 L 583.8,115.1 L 584.5,116.1 L 585.2,116.8 
L 585.9,116.0 L 586.6,115.8 L 587.3,117.6 L 588.0,117.3 L 588.7,116.1 L 589.4,115.9 L 590.1,115.3 L 590.9,117.4 L 591.6,116.1 L 592.3,117.8 
L 593.0,116.5 L 593.7,115.8 L 594.4,117.1 L 595.1,117.2 L 595.8,115.4 L 596.5,116.5 L 597.2,117.0 L 597.9,115.8 L 598.6,117.2 L 599.4,115.6 
L 600.1,116.5 L 600.8,115.7 L 601.5,117.1 L 602.2,116.1 L 602.9,116.0 L 603.6,116.1 L 604.3,115.8 L 605.0,116.8 L 605.7,115.4 L 606.4,115.8 
L 607.1,115.9 L 607.9,116.5 L 608.6,116.6 L 609.3,116.1 L 610.0,114.5 L 610.7,114.8 L 611.4,115.9 L 612.1,116.6 L 612.8,116.1 L 613.5,115.1 
L 614.2,116.4 L 614.9,116.5 L 615.6,115.0 L 616.4,117.0 L 617.1,114.9 L 617.8,116.2 L 618.5,115.6 L 619.2,115.6 L 619.9,117.9 L 620.6,116.4 
L 621.3,114.9 L 622.0,116.1 L 622.7,117.6 L 623.4,116.2 L 624.2,115.5 L 624.9,116.0 L 625.6,116.4 L 626.3,115.4 L 627.0,116.2 L 627.7,115.1 
L 628.4,116.6 L 629.1,115.7 L 629.8,116.8 L 630.5,116.8 L 631.2,115.7 L 631.9,116.0 L 632.7,115.0 L 633.4,116.3 L 634.1,115.0 L 634.8,116.2 
L 635.5,116.5 L 636.2,116.8 L 636.9,115.5 L 637.6,115.6 L 638.3,114.7 L 639.0,115.9 L 639.7,115.6 L 640.4,115.4 L 641.2,115.3 L 641.9,116.4 
L 642.6,114.3 L 643.3,115.5 L 644.0,115.7 L 644.7,116.5 L 645.4,115.9 L 646.1,115.7 L 646.8,116.1 L 647.5,115.6 L 648.2,114.5 L 649.0,115.7 
L 649.7,115.4 L 650.4,114.4 L 651.1,116.0 L 651.8,115.0 L 652.5,115.3 L 653.2,116.1 L 653.9,115.2 L 654.6,116.4 L 655.3,116.5 L 656.0,115.7 
L 656.7,115.9 L 657.5,114.8 L 658.2,113.9 L 658.9,116.3 L 659.6,115.4 L 660.3,115.6 L 661.0,115.0 L 661.7,115.0 L 662.4,115.6 L 663.1,114.9 
L 663.8,115.9 L 664.5,114.1 L 665.2,115.5 L 666.0,114.7 L 666.7,115.3 L 667.4,115.0 L 668.1,114.9 L 668.8,114.6 L 669.5,114.9 L 670.2,116.2 
L 670.9,115.2 L 671.6,115.1 L 672.3,115.0 L 673.0,116.0 L 673.8,114.5 L 674.5,114.4 L 675.2,114.3 L 675.9,114.0 L 676.6,116.0 L 677.3,115.7 
L 678.0,115.3 L 678.7,115.3 L 679.4,116.6 L 680.1,115.3 L 680.8,114.1 L 681.5,115.1 L 682.3,114.9 L 683.0,115.0 L 683.7,114.2 L 684.4,115.0 
L 685.1,115.7 L 685.8,115.3 L 686.5,115.2 L 687.2,116.9 L 687.9,114.9 L 688.6,115.8 L 689.3,115.0 L 690.0,115.2 L 690.8,115.2 L 691.5,115.1 
L 692.2,113.4 L 692.9,114.9 L 693.6,114.7 L 694.3,115.3 L 695.0,114.2 L 695.7,114.4 L 696.4,115.0 L 697.1,115.5 L 697.8,114.4 L 698.6,115.8 
L 699.3,115.7 L 700.0,115.9 L 700.7,114.9 L 701.4,114.5 L 702.1,115.5 L 702.8,114.4 L 703.5,114.8 L 704.2,115.3 L 704.9,114.5 L 705.6,114.0 
L 706.3,114.7 L 707.1,114.2 L 707.8,115.5 L 708.5,114.9 L 709.2,115.5 L 709.9,114.6 L 710.6,115.4 L 711.3,114.3 L 712.0,114.5 L 712.7,114.1 
L 713.4,114.9 L 714.1,114.2 L 714.8,114.0 L 715.6,114.4 L 716.3,114.8 L 717.0,114.6 L 717.7,114.4 L 718.4,114.9 L 719.1,115.0 L 719.8,115.1 
L 720.5,114.9 L 721.2,115.2 L 721.9,115.2 L 722.6,114.8 L 723.4,114.6 L 724.1,113.6 L 724.8,114.1 L 725.5,113.1 L 726.2,113.6 L 726.9,114.0 
L 727.6,114.4 L 728.3,114.7 L 729.0,115.1 L 729.7,114.9 L 730.4,114.2 L 731.1,113.4 L 731.9,113.8 L 732.6,114.4 L 733.3,114.0 L 734.0,115.1 
L 734.7,114.4 L 735.4,114.4 L 736.1,114.8 L 736.8,113.7 L 737.5,113.7 L 738.2,114.5 L 738.9,114.5 L 739.6,114.6 L 740.4,114.8 L 741.1,115.3 
L 741.8,113.6 L 742.5,114.8 L 743.2,114.8 L 743.9,114.0 L 744.6,113.1 L 745.3,112.9 L 746.0,114.3 L 746.7,114.1 L 747.4,113.4 L 748.2,114.2 
L 748.9,113.7 L 749.6,114.8 L 750.3,113.5 L 751.0,112.9 L 751.7,114.2 L 752.4,113.9 L 753.1,113.9 L 753.8,113.2 L 754.5,114.5 L 755.2,114.5 
L 755.9,113.1 L 756.7,114.2 L 757.4,113.8 L 758.1,113.3 L 758.8,113.2 L 759.5,113.1 L 760.2,115.6 L 760.9,114.0 L 761.6,113.7 L 762.3,114.1 
L 763.0,113.9 L 763.7,115.5 L 764.4,115.1 L 765.2,115.2 L 765.9,113.4 L 766.6,114.4 L 767.3,114.6 L 768.0,114.1 L 768.7,113.5 L 769.4,114.3 
L 770.1,113.1 L 770.8,114.2 L 771.5,114.4 L 772.2,114.6 L 773.0,114.3 L 773.7,114.5 L 774.4,115.5 L 775.1,114.9 L 775.8,113.8 L 776.5,113.9 
L 777.2,114.2 L 777.9,114.4 L 778.6,114.0 L 779.3,113.6 L 780.0,113.0 L 780.7,114.4 L 781.5,115.1 L 782.2,114.2 L 782.9,115.1 L 783.6,114.1 
L 784.3,113.7 L 785.0,113.5 L 785.7,113.9 L 786.4,113.3 L 787.1,114.5 L 787.8,114.1 L 788.5,113.8 L 789.2,113.6 L 790.0,113.6 L 790.7,112.6 
L 791.4,112.9 L 792.1,113.4 L 792.8,114.8 L 793.5,115.3 L 794.2,113.4 L 794.9,113.6 L 795.6,113.3 L 796.3,113.6 L 797.0,114.5 L 797.8,113.2 
L 798.5,113.3 L 799.2,114.7 L 799.9,114.1 L 800.6,113.9 L 801.3,113.4 L 802.0,113.6 L 802.7,114.1 L 803.4,113.5 L 804.1,112.6 L 804.8,114.1 
L 805.5,114.3 L 806.3,113.3 L 807.0,113.1 L 807.7,113.4 L 808.4,114.3 L 809.1,112.5 L 809.8,113.6 L 810.5,114.1 L 811.2,113.2 L 811.9,114.4 
L 812.6,113.1 L 813.3,113.6 L 814.0,112.8 L 814.8,113.7 L 815.5,112.9 L 816.2,113.0 L 816.9,114.6 L 817.6,114.3 L 818.3,113.7 L 819.0,113.6 
L 819.7,114.8 L 820.4,113.3 L 821.1,114.9 L 821.8,113.6 L 822.6,113.1 L 823.3,113.5 L 824.0,114.2 L 824.7,113.8 L 825.4,114.0 L 826.1,113.3 
L 826.8,114.0 L 827.5,112.7 L 828.2,113.6 L 828.9,113.4 L 829.6,113.4 L 830.3,113.7 L 831.1,114.5 L 831.8,112.8 L 832.5,113.8 L 833.2,113.9 
L 833.9,113.3 L 834.6,113.1 L 835.3,113.3 L 836.0,114.5 L 836.7,113.0 L 837.4,113.3 L 838.1,112.7 L 838.8,113.3 L 839.6,113.5 L 840.3,112.8 
L 841.0,113.3 L 841.7,113.8 L 842.4,114.0 L 843.1,115.2 L 843.8,113.3 L 844.5,114.8 L 845.2,112.3 L 845.9,113.0 L 846.6,114.3 L 847.3,113.6 
L 848.1,113.8 L 848.8,113.2 L 849.5,114.2 L 850.2,113.5 L 850.9,112.8 L 851.6,113.6 L 852.3,113.6 L 853.0,113.3 L 853.7,113.3 L 854.4,113.8 
L 855.1,113.5 L 855.9,112.3 L 856.6,113.2 L 857.3,112.9 L 858.0,112.9 L 858.7,113.3 L 859.4,113.5 L 860.1,113.4 L 860.8,113.8 L 861.5,114.5 
L 862.2,113.4 L 862.9,113.3 L 863.6,112.5 L 864.4,113.8 L 865.1,113.2 L 865.8,114.2 L 866.5,112.9 L 867.2,114.1 L 867.9,112.8 L 868.6,113.3 
L 869.3,113.1 L 870.0,112.5 L 870.7,113.2 L 871.4,114.2 L 872.1,112.5 L 872.9,114.1 L 873.6,112.3 L 874.3,112.3 L 875.0,112.9 "
 />
<path stroke="#000080" stroke-width="1" fill="none"
  d="



































































































"
 />
<path stroke="#000080" stroke-width="1" fill="none"
  d="



































































































"
 />
<path stroke="#000000" stroke-width="1" fill="none"
  d=""
 />
<path stroke="#000000" stroke-width="1" fill="none"
  d="M 167.1,493.7 
L 167.8,362.1 L 168.5,312.7 L 169.3,281.5 L 170.0,276.6 L 170.7,260.4 L 171.4,248.7 L 172.1,240.1 L 172.8,235.2 L 173.5,224.5 L 174.2,227.2 
L 174.9,219.8 L 175.6,219.7 L 176.3,222.6 L 177.0,216.8 L 177.8,214.1 L 178.5,210.2 L 179.2,211.8 L 179.9,205.5 L 180.6,206.6 L 181.3,204.8 
L 182.0,197.9 L 182.7,200.2 L 183.4,198.1 L 184.1,192.5 L 184.8,194.2 L 185.6,192.6 L 186.3,198.2 L 187.0,191.6 L 187.7,193.3 L 188.4,190.1 
L 189.1,186.3 L 189.8,185.6 L 190.5,188.1 L 191.2,189.0 L 191.9,185.3 L 192.6,190.7 L 193.3,182.0 L 194.1,183.0 L 194.8,182.1 L 195.5,180.2 
L 196.2,184.0 L 196.9,181.9 L 197.6,180.8 L 198.3,181.6 L 199.0,177.9 L 199.7,181.2 L 200.4,178.3 L 201.1,176.4 L 201.8,175.7 L 202.6,175.6 
L 203.3,175.8 L 204.0,175.6 L 204.7,172.8 L 205.4,172.9 L 206.1,174.8 L 206.8,171.3 L 207.5,173.7 L 208.2,171.3 L 208.9,170.7 L 209.6,169.0 
L 210.4,171.6 L 211.1,170.0 L 211.8,171.2 L 212.5,168.8 L 213.2,167.0 L 213.9,169.1 L 214.6,166.1 L 215.3,166.9 L 216.0,168.6 L 216.7,169.2 
L 217.4,166.0 L 218.1,166.6 L 218.9,164.1 L 219.6,167.4 L 220.3,166.1 L 221.0,168.2 L 221.7,165.1 L 222.4,162.0 L 223.1,164.6 L 223.8,161.4 
L 224.5,164.0 L 225.2,165.2 L 225.9,164.6 L 226.6,160.9 L 227.4,162.4 L 228.1,163.6 L 228.8,162.2 L 229.5,160.2 L 230.2,161.8 L 230.9,159.2 
L 231.6,161.2 L 232.3,158.7 L 233.0,159.2 L 233.7,158.3 L 234.4,158.7 L 235.2,158.1 L 235.9,156.6 L 236.6,157.0 L 237.3,155.9 L 238.0,156.0 
L 238.7,158.3 L 239.4,154.7 L 240.1,153.7 L 240.8,154.1 L 241.5,158.5 L 242.2,156.9 L 242.9,155.0 L 243.7,154.6 L 244.4,155.8 L 245.1,153.7 
L 245.8,156.2 L 246.5,152.4 L 247.2,153.3 L 247.9,153.4 L 248.6,155.1 L 249.3,155.0 L 250.0,154.7 L 250.7,155.0 L 251.4,154.2 L 252.2,154.2 
L 252.9,154.2 L 253.6,153.4 L 254.3,152.7 L 255.0,155.1 L 255.7,152.3 L 256.4,151.1 L 257.1,153.8 L 257.8,153.6 L 258.5,153.2 L 259.2,151.3 
L 260.0,149.7 L 260.7,152.7 L 261.4,150.0 L 262.1,150.1 L 262.8,151.2 L 263.5,150.2 L 264.2,151.5 L 264.9,149.3 L 265.6,148.5 L 266.3,149.3 
L 267.0,150.2 L 267.7,149.4 L 268.5,150.3 L 269.2,149.7 L 269.9,150.3 L 270.6,149.9 L 271.3,148.8 L 272.0,148.9 L 272.7,149.4 L 273.4,147.4 
L 274.1,148.4 L 274.8,147.9 L 275.5,148.3 L 276.2,146.0 L 277.0,146.7 L 277.7,148.4 L 278.4,148.2 L 279.1,149.7 L 279.8,147.9 L 280.5,146.3 
L 281.2,148.1 L 281.9,147.3 L 282.6,147.0 L 283.3,146.6 L 284.0,145.8 L 284.8,145.7 L 285.5,145.4 L 286.2,147.2 L 286.9,147.9 L 287.6,146.0 
L 288.3,145.9 L 289.0,145.9 L 289.7,143.7 L 290.4,146.0 L 291.1,145.5 L 291.8,145.0 L 292.5,146.2 L 293.3,144.3 L 294.0,142.9 L 294.7,144.5 
L 295.4,142.8 L 296.1,144.2 L 296.8,144.5 L 297.5,142.8 L 298.2,143.9 L 298.9,143.9 L 299.6,144.3 L 300.3,143.8 L 301.0,143.4 L 301.8,144.1 
L 302.5,143.3 L 303.2,142.8 L 303.9,142.3 L 304.6,144.9 L 305.3,142.9 L 306.0,143.8 L 306.7,143.2 L 307.4,143.0 L 308.1,142.6 L 308.8,141.4 
L 309.6,143.4 L 310.3,140.6 L 311.0,141.7 L 311.7,140.4 L 312.4,142.6 L 313.1,141.7 L 313.8,142.4 L 314.5,141.2 L 315.2,143.1 L 315.9,142.4 
L 316.6,142.2 L 317.3,143.0 L 318.1,139.8 L 318.8,140.2 L 319.5,140.9 L 320.2,140.6 L 320.9,143.7 L 321.6,139.6 L 322.3,139.3 L 323.0,139.1 
L 323.7,138.0 L 324.4,139.2 L 325.1,140.2 L 325.8,140.2 L 326.6,140.6 L 327.3,140.0 L 328.0,140.4 L 328.7,138.6 L 329.4,139.1 L 330.1,138.9 
L 330.8,139.7 L 331.5,138.6 L 332.2,140.1 L 332.9,139.1 L 333.6,140.2 L 334.4,139.6 L 335.1,140.3 L 335.8,138.8 L 336.5,138.2 L 337.2,138.8 
L 337.9,140.5 L 338.6,138.8 L 339.3,138.0 L 340.0,140.4 L 340.7,138.5 L 341.4,137.7 L 342.1,137.7 L 342.9,138.5 L 343.6,138.3 L 344.3,138.0 
L 345.0,138.4 L 345.7,138.4 L 346.4,137.0 L 347.1,136.5 L 347.8,137.5 L 348.5,138.0 L 349.2,137.3 L 349.9,138.2 L 350.6,137.8 L 351.4,135.9 
L 352.1,136.2 L 352.8,135.2 L 353.5,137.4 L 354.2,137.1 L 354.9,134.9 L 355.6,135.4 L 356.3,136.2 L 357.0,135.5 L 357.7,136.3 L 358.4,135.6 
L 359.2,137.1 L 359.9,135.6 L 360.6,136.4 L 361.3,136.3 L 362.0,136.2 L 362.7,135.7 L 363.4,135.4 L 364.1,136.0 L 364.8,136.0 L 365.5,134.0 
L 366.2,133.5 L 366.9,135.2 L 367.7,136.0 L 368.4,137.3 L 369.1,136.0 L 369.8,133.0 L 370.5,134.4 L 371.2,135.3 L 371.9,135.0 L 372.6,135.8 
L 373.3,133.6 L 374.0,135.2 L 374.7,136.3 L 375.4,134.3 L 376.2,133.2 L 376.9,133.6 L 377.6,134.5 L 378.3,134.1 L 379.0,133.7 L 379.7,134.0 
L 380.4,132.8 L 381.1,133.4 L 381.8,133.0 L 382.5,134.5 L 383.2,134.1 L 383.9,134.3 L 384.7,133.4 L 385.4,133.3 L 386.1,135.0 L 386.8,132.9 
L 387.5,132.8 L 388.2,131.9 L 388.9,132.5 L 389.6,132.9 L 390.3,132.9 L 391.0,131.9 L 391.7,131.6 L 392.5,133.2 L 393.2,131.8 L 393.9,131.8 
L 394.6,131.2 L 395.3,133.7 L 396.0,133.0 L 396.7,133.1 L 397.4,131.8 L 398.1,132.3 L 398.8,132.2 L 399.5,131.4 L 400.2,131.6 L 401.0,130.9 
L 401.7,132.4 L 402.4,131.5 L 403.1,132.9 L 403.8,132.1 L 404.5,131.9 L 405.2,130.8 L 405.9,131.4 L 406.6,132.3 L 407.3,131.9 L 408.0,130.4 
L 408.7,130.9 L 409.5,130.5 L 410.2,131.0 L 410.9,130.1 L 411.6,131.3 L 412.3,131.5 L 413.0,130.2 L 413.7,131.8 L 414.4,132.7 L 415.1,131.6 
L 415.8,130.1 L 416.5,131.1 L 417.3,131.7 L 418.0,133.2 L 418.7,131.0 L 419.4,131.8 L 420.1,131.1 L 420.8,130.3 L 421.5,129.2 L 422.2,128.4 
L 422.9,130.7 L 423.6,128.9 L 424.3,129.6 L 425.0,130.5 L 425.8,129.9 L 426.5,130.4 L 427.2,130.4 L 427.9,130.1 L 428.6,129.2 L 429.3,130.0 
L 430.0,131.3 L 430.7,130.3 L 431.4,130.1 L 432.1,129.6 L 432.8,129.4 L 433.5,131.9 L 434.3,131.8 L 435.0,130.7 L 435.7,129.7 L 436.4,129.9 
L 437.1,129.7 L 437.8,129.0 L 438.5,128.2 L 439.2,129.2 L 439.9,130.0 L 440.6,129.4 L 441.3,128.4 L 442.1,129.5 L 442.8,128.5 L 443.5,129.2 
L 444.2,128.1 L 444.9,129.5 L 445.6,128.9 L 446.3,129.1 L 447.0,128.2 L 447.7,129.6 L 448.4,128.5 L 449.1,129.0 L 449.8,128.8 L 450.6,127.6 
L 451.3,130.2 L 452.0,128.6 L 452.7,127.7 L 453.4,128.3 L 454.1,127.6 L 454.8,127.8 L 455.5,129.9 L 456.2,128.7 L 456.9,128.0 L 457.6,127.5 
L 458.3,127.2 L 459.1,128.7 L 459.8,127.6 L 460.5,128.7 L 461.2,127.9 L 461.9,127.1 L 462.6,130.0 L 463.3,128.5 L 464.0,128.9 L 464.7,127.9 
L 465.4,127.9 L 466.1,127.1 L 466.9,127.0 L 467.6,127.0 L 468.3,128.2 L 469.0,127.1 L 469.7,128.0 L 470.4,126.8 L 471.1,128.2 L 471.8,127.0 
L 472.5,128.2 L 473.2,127.0 L 473.9,128.0 L 474.6,127.3 L 475.4,127.8 L 476.1,129.2 L 476.8,127.1 L 477.5,127.0 L 478.2,128.3 L 478.9,126.9 
L 479.6,127.2 L 480.3,127.3 L 481.0,127.5 L 481.7,127.5 L 482.4,127.9 L 483.1,126.0 L 483.9,127.3 L 484.6,125.9 L 485.3,126.0 L 486.0,130.0 
L 486.7,126.6 L 487.4,126.5 L 488.1,126.2 L 488.8,126.9 L 489.5,126.8 L 490.2,125.8 L 490.9,126.7 L 491.7,125.9 L 492.4,124.7 L 493.1,126.2 
L 493.8,124.9 L 494.5,125.8 L 495.2,125.3 L 495.9,126.0 L 496.6,125.3 L 497.3,125.9 L 498.0,125.3 L 498.7,126.4 L 499.4,127.5 L 500.2,126.1 
L 500.9,125.7 L 501.6,126.1 L 502.3,125.9 L 503.0,124.5 L 503.7,127.6 L 504.4,126.6 L 505.1,125.7 L 505.8,125.9 L 506.5,126.2 L 507.2,127.1 
L 507.9,125.6 L 508.7,126.1 L 509.4,126.0 L 510.1,124.8 L 510.8,126.2 L 511.5,125.4 L 512.2,125.4 L 512.9,124.2 L 513.6,125.5 L 514.3,125.1 
L 515.0,125.7 L 515.7,125.5 L 516.5,124.3 L 517.2,126.5 L 517.9,125.7 L 518.6,124.6 L 519.3,124.7 L 520.0,125.4 L 520.7,124.6 L 521.4,124.3 
L 522.1,124.9 L 522.8,126.3 L 523.5,124.6 L 524.2,125.6 L 525.0,125.0 L 525.7,125.7 L 526.4,124.4 L 527.1,124.7 L 527.8,127.3 L 528.5,124.7 
L 529.2,125.2 L 529.9,124.7 L 530.6,124.5 L 531.3,125.1 L 532.0,123.2 L 532.7,124.9 L 533.5,124.9 L 534.2,125.4 L 534.9,124.6 L 535.6,123.6 
L 536.3,124.7 L 537.0,124.4 L 537.7,124.9 L 538.4,124.6 L 539.1,125.1 L 539.8,126.8 L 540.5,124.5 L 541.3,124.7 L 542.0,124.2 L 542.7,123.2 
L 543.4,122.8 L 544.1,124.3 L 544.8,123.4 L 545.5,124.1 L 546.2,123.5 L 546.9,125.4 L 547.6,125.3 L 548.3,125.6 L 549.0,124.2 L 549.8,123.2 
L 550.5,123.8 L 551.2,125.9 L 551.9,123.4 L 552.6,124.7 L 553.3,124.7 L 554.0,124.7 L 554.7,123.7 L 555.4,124.7 L 556.1,123.1 L 556.8,124.4 
L 557.5,124.0 L 558.3,123.3 L 559.0,123.9 L 559.7,124.2 L 560.4,123.2 L 561.1,123.4 L 561.8,124.3 L 562.5,123.6 L 563.2,124.0 L 563.9,122.2 
L 564.6,124.5 L 565.3,123.8 L 566.1,123.6 L 566.8,122.1 L 567.5,124.8 L 568.2,123.5 L 568.9,123.6 L 569.6,122.8 L 570.3,123.9 L 571.0,123.5 
L 571.7,123.7 L 572.4,123.8 L 573.1,123.9 L 573.8,124.6 L 574.6,124.2 L 575.3,123.3 L 576.0,124.2 L 576.7,123.3 L 577.4,122.8 L 578.1,123.8 
L 578.8,122.6 L 579.5,123.3 L 580.2,122.9 L 580.9,123.6 L 581.6,122.2 L 582.3,124.0 L 583.1,123.3 L 583.8,122.0 L 584.5,122.3 L 585.2,123.6 
L 585.9,122.7 L 586.6,122.3 L 587.3,124.2 L 588.0,123.9 L 588.7,123.6 L 589.4,122.9 L 590.1,122.1 L 590.9,124.7 L 591.6,123.3 L 592.3,123.5 
L 593.0,122.1 L 593.7,123.0 L 594.4,123.5 L 595.1,124.1 L 595.8,121.9 L 596.5,123.9 L 597.2,122.9 L 597.9,122.4 L 598.6,123.4 L 599.4,122.3 
L 600.1,122.5 L 600.8,122.1 L 601.5,123.5 L 602.2,122.6 L 602.9,123.0 L 603.6,123.3 L 604.3,122.1 L 605.0,122.9 L 605.7,123.3 L 606.4,122.5 
L 607.1,122.4 L 607.9,123.3 L 608.6,122.8 L 609.3,121.5 L 610.0,121.2 L 610.7,121.7 L 611.4,122.5 L 612.1,122.9 L 612.8,122.6 L 613.5,122.3 
L 614.2,122.1 L 614.9,122.5 L 615.6,121.8 L 616.4,122.4 L 617.1,121.6 L 617.8,123.3 L 618.5,122.2 L 619.2,121.4 L 619.9,124.1 L 620.6,122.1 
L 621.3,121.7 L 622.0,122.0 L 622.7,123.6 L 623.4,122.1 L 624.2,121.2 L 624.9,122.7 L 625.6,122.3 L 626.3,122.1 L 627.0,122.3 L 627.7,122.1 
L 628.4,122.2 L 629.1,122.0 L 629.8,123.2 L 630.5,122.7 L 631.2,122.2 L 631.9,121.7 L 632.7,120.5 L 633.4,122.4 L 634.1,121.7 L 634.8,122.3 
L 635.5,122.2 L 636.2,122.3 L 636.9,121.2 L 637.6,122.0 L 638.3,121.4 L 639.0,121.4 L 639.7,122.1 L 640.4,121.7 L 641.2,120.8 L 641.9,122.5 
L 642.6,120.9 L 643.3,121.9 L 644.0,121.2 L 644.7,123.2 L 645.4,122.4 L 646.1,121.2 L 646.8,121.7 L 647.5,121.9 L 648.2,121.3 L 649.0,122.2 
L 649.7,121.6 L 650.4,120.6 L 651.1,121.8 L 651.8,121.3 L 652.5,121.1 L 653.2,122.0 L 653.9,122.2 L 654.6,122.2 L 655.3,121.9 L 656.0,121.3 
L 656.7,121.6 L 657.5,121.2 L 658.2,120.2 L 658.9,122.3 L 659.6,121.4 L 660.3,121.7 L 661.0,120.7 L 661.7,120.6 L 662.4,120.9 L 663.1,121.8 
L 663.8,122.0 L 664.5,120.6 L 665.2,121.1 L 666.0,120.7 L 666.7,120.9 L 667.4,120.9 L 668.1,121.0 L 668.8,120.8 L 669.5,120.8 L 670.2,121.8 
L 670.9,121.1 L 671.6,121.1 L 672.3,121.5 L 673.0,122.0 L 673.8,121.2 L 674.5,120.3 L 675.2,121.0 L 675.9,121.0 L 676.6,121.4 L 677.3,121.1 
L 678.0,120.9 L 678.7,121.3 L 679.4,123.0 L 680.1,120.5 L 680.8,120.5 L 681.5,121.0 L 682.3,120.9 L 683.0,120.9 L 683.7,120.7 L 684.4,121.0 
L 685.1,121.8 L 685.8,121.0 L 686.5,120.9 L 687.2,121.7 L 687.9,120.9 L 688.6,121.8 L 689.3,120.5 L 690.0,121.0 L 690.8,121.3 L 691.5,120.2 
L 692.2,119.3 L 692.9,120.6 L 693.6,120.3 L 694.3,120.7 L 695.0,120.2 L 695.7,120.0 L 696.4,120.9 L 697.1,120.2 L 697.8,120.5 L 698.6,120.4 
L 699.3,121.7 L 700.0,121.3 L 700.7,120.7 L 701.4,120.6 L 702.1,121.9 L 702.8,119.9 L 703.5,120.8 L 704.2,120.8 L 704.9,120.0 L 705.6,119.5 
L 706.3,121.3 L 707.1,120.2 L 707.8,120.6 L 708.5,120.1 L 709.2,121.2 L 709.9,120.0 L 710.6,120.5 L 711.3,119.5 L 712.0,119.3 L 712.7,119.6 
L 713.4,120.6 L 714.1,119.4 L 714.8,119.8 L 715.6,120.4 L 716.3,119.5 L 717.0,119.9 L 717.7,119.1 L 718.4,120.3 L 719.1,121.0 L 719.8,120.0 
L 720.5,120.2 L 721.2,121.2 L 721.9,120.4 L 722.6,119.5 L 723.4,119.7 L 724.1,119.3 L 724.8,120.3 L 725.5,119.2 L 726.2,119.3 L 726.9,119.7 
L 727.6,119.0 L 728.3,119.8 L 729.0,119.4 L 729.7,120.5 L 730.4,119.6 L 731.1,119.4 L 731.9,119.5 L 732.6,119.5 L 733.3,119.3 L 734.0,120.9 
L 734.7,119.2 L 735.4,119.6 L 736.1,119.9 L 736.8,119.8 L 737.5,119.3 L 738.2,120.5 L 738.9,119.9 L 739.6,120.0 L 740.4,120.8 L 741.1,119.9 
L 741.8,118.9 L 742.5,119.9 L 743.2,120.2 L 743.9,119.1 L 744.6,119.2 L 745.3,118.3 L 746.0,119.6 L 746.7,118.9 L 747.4,120.3 L 748.2,119.6 
L 748.9,119.3 L 749.6,119.8 L 750.3,119.2 L 751.0,118.6 L 751.7,119.8 L 752.4,119.3 L 753.1,119.1 L 753.8,119.0 L 754.5,119.4 L 755.2,120.1 
L 755.9,118.5 L 756.7,119.4 L 757.4,118.8 L 758.1,118.9 L 758.8,118.8 L 759.5,117.8 L 760.2,120.6 L 760.9,119.4 L 761.6,119.4 L 762.3,118.9 
L 763.0,119.0 L 763.7,120.6 L 764.4,119.7 L 765.2,120.2 L 765.9,118.8 L 766.6,118.7 L 767.3,119.8 L 768.0,119.4 L 768.7,119.3 L 769.4,119.2 
L 770.1,118.4 L 770.8,119.4 L 771.5,119.3 L 772.2,120.6 L 773.0,120.0 L 773.7,120.0 L 774.4,119.6 L 775.1,120.6 L 775.8,119.2 L 776.5,119.6 
L 777.2,119.3 L 777.9,119.2 L 778.6,119.8 L 779.3,118.8 L 780.0,118.8 L 780.7,119.2 L 781.5,120.0 L 782.2,118.7 L 782.9,120.0 L 783.6,119.5 
L 784.3,119.3 L 785.0,118.1 L 785.7,119.4 L 786.4,119.4 L 787.1,119.6 L 787.8,119.2 L 788.5,118.7 L 789.2,118.9 L 790.0,118.4 L 790.7,118.3 
L 791.4,118.4 L 792.1,118.5 L 792.8,118.9 L 793.5,120.1 L 794.2,118.7 L 794.9,118.7 L 795.6,119.3 L 796.3,118.3 L 797.0,120.1 L 797.8,118.6 
L 798.5,118.5 L 799.2,119.4 L 799.9,119.5 L 800.6,119.9 L 801.3,118.7 L 802.0,118.6 L 802.7,118.7 L 803.4,118.9 L 804.1,117.5 L 804.8,119.6 
L 805.5,119.3 L 806.3,118.4 L 807.0,118.8 L 807.7,118.9 L 808.4,118.7 L 809.1,118.1 L 809.8,118.5 L 810.5,119.2 L 811.2,118.5 L 811.9,119.2 
L 812.6,118.4 L 813.3,119.4 L 814.0,117.8 L 814.8,119.0 L 815.5,117.7 L 816.2,118.6 L 816.9,119.2 L 817.6,118.5 L 818.3,118.9 L 819.0,119.0 
L 819.7,119.0 L 820.4,118.9 L 821.1,119.4 L 821.8,118.7 L 822.6,118.5 L 823.3,118.5 L 824.0,119.0 L 824.7,118.9 L 825.4,118.6 L 826.1,118.6 
L 826.8,118.9 L 827.5,117.9 L 828.2,118.6 L 828.9,118.0 L 829.6,118.2 L 830.3,118.6 L 831.1,119.3 L 831.8,117.8 L 832.5,118.8 L 833.2,118.4 
L 833.9,118.5 L 834.6,119.0 L 835.3,117.9 L 836.0,119.1 L 836.7,118.1 L 837.4,118.3 L 838.1,117.7 L 838.8,118.5 L 839.6,118.5 L 840.3,118.0 
L 841.0,118.7 L 841.7,118.7 L 842.4,119.1 L 843.1,119.4 L 843.8,118.8 L 844.5,119.1 L 845.2,117.3 L 845.9,118.4 L 846.6,118.5 L 847.3,118.4 
L 848.1,119.2 L 848.8,118.0 L 849.5,119.3 L 850.2,119.1 L 850.9,118.3 L 851.6,118.4 L 852.3,118.1 L 853.0,118.5 L 853.7,118.2 L 854.4,118.3 
L 855.1,117.6 L 855.9,117.8 L 856.6,118.2 L 857.3,117.8 L 858.0,118.3 L 858.7,118.1 L 859.4,118.4 L 860.1,117.8 L 860.8,118.4 L 861.5,119.2 
L 862.2,117.8 L 862.9,118.6 L 863.6,117.8 L 864.4,118.0 L 865.1,118.1 L 865.8,118.6 L 866.5,117.6 L 867.2,118.4 L 867.9,118.0 L 868.6,118.0 
L 869.3,118.4 L 870.0,118.1 L 870.7,118.1 L 871.4,118.6 L 872.1,117.4 L 872.9,118.7 L 873.6,117.7 L 874.3,117.5 L 875.0,117.9 "
 />
<path stroke="#000000" stroke-width="1" fill="none"
  d="



































































































"
 />
<path stroke="#000000" stroke-width="1" fill="none"
  d="



































































































"
 />

</g>
</svg>
