<?xml version="1.0" encoding="ISO-8859-1" standalone="yes"?>
<svg width="205.339" height="152.07">
  <defs> 
    <marker id="ArrowEnd" viewBox="0 0 10 10" refX="0" refY="5" 
     markerUnits="strokeWidth" 
     markerWidth="4" 
     markerHeight="3" 
     orient="auto"> 
        <path d="M 0 0 L 10 5 L 0 10 z" /> 
    </marker>
    <marker id="ArrowStart" viewBox="0 0 10 10" refX="10" refY="5" 
     markerUnits="strokeWidth" 
     markerWidth="4" 
     markerHeight="3" 
     orient="auto"> 
        <path d="M 10 0 L 0 5 L 10 10 z" /> 
    </marker> </defs>
<g>
<path style="stroke:none; fill-rule:evenodd; fill:#ffffff" d="M 1.33785 150.261L 202.108 150.261L 202.108 3.98734L 1.33785 3.98734L 1.33785 150.261z"/>
<path style="stroke:#ffffff; stroke-width:0.10000000000000001; fill:none" d="M 1.33785 150.261L 202.108 150.261L 202.108 3.98734L 1.33785 3.98734L 1.33785 150.261z"/>
<path style="stroke:#000000; stroke-width:1.9133; fill:none" d="M 47.2675 96.6053L 156.322 96.6053L 162.061 79.3863L 167.799 96.6053L 183.104 96.6053"/>
<path style="stroke:#000000; stroke-width:1.9133; fill:none" d="M 47.2675 50.2023L 156.322 50.2023L 162.061 32.9843L 167.799 50.2023L 183.104 50.2023"/>
<path style="stroke:#000000; stroke-width:1.9133; fill:none" d="M 47.2675 119.562L 64.4863 119.562L 70.2245 102.343L 75.9628 119.562L 156.319 119.562L 162.057 102.343L 167.795 119.562L 181.186 119.562"/>
<path style="stroke:#000000; stroke-width:1.9133; fill:none" d="M 47.2675 27.2453L 70.2245 27.2453L 70.2245 10.0273L 167.803 10.0273L 167.803 27.2453L 183.108 27.2453"/>
<path style="stroke:#000000; stroke-dasharray:6,3; stroke-width:0.95664899999999997; fill:none" d="M 5.17375 50.6833L 200.326 50.6833"/>
<path style="stroke:#000000; stroke-dasharray:6,3; stroke-width:0.95664899999999997; fill:none" d="M 5.17375 73.6443L 200.326 73.6443"/>
<path style="stroke:#000000; stroke-dasharray:6,3; stroke-width:0.95664899999999997; fill:none" d="M 5.17375 96.6053L 200.326 96.6053"/>
<path style="stroke:#000000; stroke-dasharray:6,3; stroke-width:0.95664899999999997; fill:none" d="M 5.17375 119.562L 200.326 119.562"/>
<path style="stroke:#000000; stroke-dasharray:6,3; stroke-width:0.95664899999999997; fill:none" d="M 5.17375 142.523L 200.326 142.523"/>
<path style="stroke:#000000; stroke-dasharray:6,3; stroke-width:0.95664899999999997; fill:none" d="M 5.01365 27.4053L 200.166 27.4053"/>
<path style="stroke:none; fill-rule:evenodd; fill:#000000" d="M 12.8144 19.1873C 12.4784 17.3593 11.4159 16.4643 9.56445 16.4643C 8.43155 16.4643 7.52145 16.8193 6.89645 17.5113C 6.13475 18.3393 5.72065 19.5343 5.72065 20.8943C 5.72065 22.2733 6.14645 23.4603 6.94335 24.2773C 7.58785 24.9453 8.41985 25.2533 9.51755 25.2533C 11.5722 25.2533 12.7284 24.1403 12.9862 21.9023L 11.8808 21.9023C 11.7909 22.4913 11.6776 22.8943 11.5019 23.2373C 11.1581 23.9483 10.4433 24.3513 9.54875 24.3513C 7.88085 24.3513 6.82225 22.9993 6.82225 20.8783C 6.82225 18.6983 7.83395 17.3553 9.45895 17.3553C 10.1347 17.3553 10.7714 17.5663 11.1151 17.8903C 11.4237 18.1833 11.5956 18.5423 11.7245 19.1753L 12.8144 19.1873z"/>
<path style="stroke:none; fill-rule:evenodd; fill:#000000" d="M 20.3144 19.0463C 20.3065 17.4093 19.1855 16.4603 17.2714 16.4603C 15.4472 16.4603 14.3183 17.4093 14.3183 18.9373C 14.3183 19.9643 14.8495 20.6163 15.9394 20.9053L 17.994 21.4603C 19.037 21.7373 19.5136 22.1633 19.5136 22.8233C 19.5136 23.2733 19.2753 23.7373 18.9276 23.9913C 18.5995 24.2223 18.08 24.3473 17.412 24.3473C 16.5175 24.3473 15.9081 24.1203 15.5136 23.6203C 15.2089 23.2413 15.0722 22.8233 15.1229 22.2843L 14.1229 22.2843C 14.1308 23.0623 14.2792 23.5733 14.6073 24.0383C 15.1737 24.8273 16.1269 25.2453 17.3847 25.2453C 18.369 25.2453 19.1737 25.0193 19.7089 24.6013C 20.2636 24.1553 20.6151 23.4053 20.6151 22.6793C 20.6151 21.6443 19.9823 20.8863 18.8573 20.5733L 16.7831 20.0113C 15.787 19.7373 15.4237 19.4133 15.4237 18.7693C 15.4237 17.9173 16.1581 17.3513 17.2636 17.3513C 18.5722 17.3513 19.3065 17.9523 19.3183 19.0383L 20.3144 19.0463z"/>
<path style="stroke:none; fill-rule:evenodd; fill:#000000" d="M 9.31445 63.0583L 12.0175 63.0583L 12.0175 62.1593L 5.45505 62.1593L 5.45505 63.0583L 8.21285 63.0583L 8.21285 70.5583L 9.31055 70.5583L 9.31445 63.0583z"/>
<path style="stroke:none; fill-rule:evenodd; fill:#000000" d="M 13.9159 64.5583L 12.9159 64.5583L 12.9159 70.5583L 13.9159 70.5583L 13.9159 64.5583zM 13.9159 62.1593L 12.9159 62.1593L 12.9159 63.3943L 13.9159 63.3943L 13.9159 62.1593z"/>
<path style="stroke:none; fill-rule:evenodd; fill:#000000" d="M 15.5136 64.5303L 15.5136 70.5543L 16.5136 70.5543L 16.5136 66.7453C 16.5136 65.8663 17.1386 65.1593 17.9081 65.1593C 18.6112 65.1593 19.0097 65.5973 19.0097 66.3743L 19.0097 70.5543L 20.0097 70.5543L 20.0097 66.7453C 20.0097 65.8663 20.6347 65.1593 21.4042 65.1593C 22.0956 65.1593 22.5058 65.6093 22.5058 66.3743L 22.5058 70.5543L 23.5058 70.5543L 23.5058 66.0343C 23.5058 64.9563 22.8847 64.3593 21.7519 64.3593C 20.9472 64.3593 20.4589 64.6013 19.8964 65.2883C 19.5409 64.6403 19.0565 64.3593 18.2714 64.3593C 17.4667 64.3593 16.9355 64.6553 16.4159 65.3783L 16.4159 64.5303L 15.5136 64.5303z"/>
<path style="stroke:none; fill-rule:evenodd; fill:#000000" d="M 26.0136 64.5583L 25.0136 64.5583L 25.0136 70.5583L 26.0136 70.5583L 26.0136 64.5583zM 26.0136 62.1593L 25.0136 62.1593L 25.0136 63.3943L 26.0136 63.3943L 26.0136 62.1593z"/>
<path style="stroke:none; fill-rule:evenodd; fill:#000000" d="M 27.6151 64.5303L 27.6151 70.5543L 28.6151 70.5543L 28.6151 67.2063C 28.6151 65.9683 29.2401 65.1553 30.205 65.1553C 30.9433 65.1553 31.412 65.6163 31.412 66.3473L 31.412 70.5503L 32.412 70.5503L 32.412 65.9953C 32.412 64.9953 31.6698 64.3513 30.5097 64.3513C 29.619 64.3513 29.0448 64.6953 28.5175 65.5343L 28.5175 64.5233L 27.6151 64.5303z"/>
<path style="stroke:none; fill-rule:evenodd; fill:#000000" d="M 37.9159 64.5583L 37.9159 65.4133C 37.4355 64.6953 36.8495 64.3593 36.08 64.3593C 34.5526 64.3593 33.5214 65.6983 33.5214 67.6633C 33.5214 68.6553 33.7831 69.4643 34.2753 70.0423C 34.7206 70.5503 35.3612 70.8513 35.994 70.8513C 36.7479 70.8513 37.2753 70.5233 37.8144 69.7373L 37.8144 70.0463C 37.8144 70.8593 37.7128 71.3553 37.4745 71.6873C 37.2245 72.0423 36.7362 72.2453 36.1581 72.2453C 35.7284 72.2453 35.3417 72.1323 35.08 71.9253C 34.8651 71.7533 34.7753 71.5933 34.7167 71.2373L 33.7519 71.2373C 33.8534 72.3703 34.7323 73.0463 36.1425 73.0463C 37.0331 73.0463 37.7987 72.7613 38.1894 72.2803C 38.6464 71.7343 38.8183 70.9763 38.8183 69.5663L 38.8183 64.5503L 37.9159 64.5583zM 36.1776 65.2573C 37.205 65.2573 37.8144 66.1323 37.8144 67.6403C 37.8144 69.0773 37.1972 69.9523 36.1894 69.9523C 35.1464 69.9523 34.5175 69.0663 34.5175 67.6053C 34.5175 66.1553 35.1581 65.2573 36.1776 65.2573z"/>
<path style="stroke:#000000; stroke-width:1.9133; fill:none" d="M 47.162 72.9873L 71.0878 72.9873L 161.916 55.4093L 167.776 72.9873L 182.912 72.9873"/>
<path style="stroke:none; fill-rule:evenodd; fill:#000000" d="M 6.21675 139.757L 9.47065 139.757C 11.5995 139.757 12.912 138.167 12.912 135.554C 12.912 132.952 11.6151 131.362 9.47065 131.362L 6.21675 131.362L 6.21675 139.757zM 7.31445 138.859L 7.31445 132.261L 9.28705 132.261C 10.9394 132.261 11.8105 133.394 11.8105 135.566C 11.8105 137.714 10.9394 138.859 9.28705 138.859L 7.31445 138.859z"/>
<path style="stroke:none; fill-rule:evenodd; fill:#000000" d="M 18.955 137.257L 19.8144 139.757L 21.0058 139.757L 18.0683 131.359L 16.6933 131.359L 13.7089 139.757L 14.8417 139.757L 15.7245 137.257L 18.955 137.257zM 18.6581 136.359L 15.9979 136.359L 17.3729 132.538L 18.6581 136.359z"/>
<path style="stroke:#000000; stroke-width:1.9133; fill:none" d="M 47.2675 142.042L 64.4863 142.042L 70.2245 130.566L 75.9628 142.042L 156.319 142.042L 162.057 138.218L 167.795 142.042L 181.186 142.042"/>
<path style="stroke:#bd00ff; stroke-dasharray:6,3; stroke-width:0.95664899999999997; fill:none" d="M 166.803 38.8083C 166.803 38.8083 166.803 38.8083 169.733 39.6203C 172.662 40.4333 178.522 42.0623 182.752 45.1523C 186.983 48.2413 189.588 52.8003 190.725 58.9873C 191.862 65.1713 191.537 72.9843 187.471 77.8663C 183.405 82.7493 175.588 84.7023 171.686 85.6793C 167.779 86.6553 167.779 86.6553 167.779 86.6553"/>
<path style="stroke:#bd00ff; stroke-dasharray:6,3; stroke-width:0.95664899999999997; fill:none" d="M 175.666 86.6633L 167.779 86.6633L 174.74 82.9523"/>
<path style="stroke:#bd00ff; stroke-dasharray:6,3; stroke-width:0.95664899999999997; fill:none" d="M 191.221 65.1753C 191.221 65.1753 191.221 65.1753 191.061 68.1053C 190.901 71.0343 190.576 76.8943 190.248 82.9173C 189.924 88.9373 189.6 95.1243 188.135 99.3553C 186.67 103.585 184.069 105.862 180.811 107.491C 177.557 109.116 173.651 110.093 171.697 110.581C 169.744 111.069 169.744 111.069 169.744 111.069"/>
<path style="stroke:#bd00ff; stroke-dasharray:6,3; stroke-width:0.95664899999999997; fill:none" d="M 177.619 111.077L 169.733 111.077L 176.694 107.366"/>
<path style="stroke:#ff0000; stroke-width:0.95664899999999997; fill:none" d="M 161.916 109.124L 161.916 120.843"/>
<path style="stroke:#ff0000; stroke-width:0.95664899999999997; fill:none" d="M 161.92 109.124L 159.967 114.007"/>
<path style="stroke:#ff0000; stroke-width:0.95664899999999997; fill:none" d="M 161.92 109.124L 163.869 114.007"/>
<path style="stroke:#ff0000; stroke-width:0.95664899999999997; fill:none" d="M 69.9511 134.679L 69.9511 146.398"/>
<path style="stroke:#ff0000; stroke-width:0.95664899999999997; fill:none" d="M 69.9511 134.679L 67.9979 139.562"/>
<path style="stroke:#ff0000; stroke-width:0.95664899999999997; fill:none" d="M 69.9511 134.679L 71.9003 139.562"/>
<path style="stroke:#ff0000; stroke-width:0.95664899999999997; fill:none" d="M 69.791 109.445L 69.791 121.163"/>
<path style="stroke:#ff0000; stroke-width:0.95664899999999997; fill:none" d="M 69.7948 109.445L 67.8418 114.327"/>
<path style="stroke:#ff0000; stroke-width:0.95664899999999997; fill:none" d="M 69.7948 109.445L 71.744 114.327"/>
<path style="stroke:#ff0000; stroke-width:0.95664899999999997; fill:none" d="M 161.76 85.8473L 161.76 97.5663"/>
<path style="stroke:#ff0000; stroke-width:0.95664899999999997; fill:none" d="M 161.76 85.8473L 159.807 90.7303"/>
<path style="stroke:#ff0000; stroke-width:0.95664899999999997; fill:none" d="M 161.76 85.8473L 163.709 90.7303"/>
<path style="stroke:#ff0000; stroke-width:0.95664899999999997; fill:none" d="M 162.737 137.609L 162.737 125.89"/>
<path style="stroke:#ff0000; stroke-width:0.95664899999999997; fill:none" d="M 162.737 137.609L 164.69 132.726"/>
<path style="stroke:#ff0000; stroke-width:0.95664899999999997; fill:none" d="M 162.737 137.609L 160.787 132.726"/>
<path style="stroke:#bd00ff; stroke-dasharray:6,3; stroke-width:0.95664899999999997; fill:none" d="M 78.1698 50.5273C 78.1698 50.5273 78.1698 50.5273 76.705 51.8273C 75.2401 53.1283 72.3105 55.7343 70.5215 58.6633C 68.7323 61.5933 68.08 64.8473 67.9198 69.4053C 67.7598 73.9603 68.08 79.8233 69.0565 84.2143C 70.0331 88.6093 71.6581 91.5383 72.4745 93.0033C 73.287 94.4683 73.287 94.4683 73.287 94.4683"/>
<path style="stroke:#bd00ff; stroke-dasharray:6,3; stroke-width:0.95664899999999997; fill:none" d="M 71.244 86.8553L 73.287 94.4723L 67.9003 88.7143"/>
<path style="stroke:#bd00ff; stroke-dasharray:6,3; stroke-width:0.95664899999999997; fill:none" d="M 100.475 50.6873C 100.475 50.6873 100.475 50.6873 99.0098 51.9873C 97.5448 53.2883 94.6147 55.8943 92.8257 58.8233C 91.0367 61.7533 90.3848 65.0073 90.2247 69.5663C 90.0647 74.1203 90.3848 79.9843 91.3617 84.3743C 92.3378 88.7693 93.9628 91.6983 94.7787 93.1633C 95.5918 94.6283 95.5918 94.6283 95.5918 94.6283"/>
<path style="stroke:#bd00ff; stroke-dasharray:6,3; stroke-width:0.95664899999999997; fill:none" d="M 93.5448 87.0193L 95.5878 94.6363L 90.2007 88.8783"/>
<path style="stroke:#bd00ff; stroke-dasharray:6,3; stroke-width:0.95664899999999997; fill:none" d="M 122.776 49.8703C 122.776 49.8703 122.776 49.8703 121.311 51.1713C 119.846 52.4723 116.916 55.0773 115.127 58.0073C 113.338 60.9373 112.686 64.1913 112.526 68.7493C 112.365 73.3043 112.686 79.1673 113.662 83.5583C 114.639 87.9523 116.264 90.8823 117.08 92.3473C 117.893 93.8123 117.893 93.8123 117.893 93.8123"/>
<path style="stroke:#bd00ff; stroke-dasharray:6,3; stroke-width:0.95664899999999997; fill:none" d="M 115.85 86.1983L 117.893 93.8163L 112.506 88.0583"/>
<path style="stroke:#bd00ff; stroke-dasharray:6,3; stroke-width:0.95664899999999997; fill:none" d="M 145.08 51.0033C 145.08 51.0033 145.08 51.0033 143.615 52.3043C 142.151 53.6053 139.221 56.2103 137.432 59.1403C 135.643 62.0693 134.99 65.3233 134.83 69.8823C 134.67 74.4373 134.99 80.3003 135.967 84.6913C 136.944 89.0853 138.569 92.0153 139.385 93.4803C 140.197 94.9453 140.197 94.9453 140.197 94.9453"/>
<path style="stroke:#bd00ff; stroke-dasharray:6,3; stroke-width:0.95664899999999997; fill:none" d="M 138.155 87.3353L 140.197 94.9523L 134.811 89.1953"/>
<path style="stroke:none; fill-rule:evenodd; fill:#000000" d="M 7.31445 88.7573L 9.95505 88.7573C 10.6112 88.7573 11.1308 88.5663 11.5839 88.1633C 12.0917 87.7103 12.3105 87.1713 12.3105 86.4053C 12.3105 84.8433 11.3729 83.9603 9.70115 83.9603L 6.21285 83.9603L 6.21285 92.3593L 7.31055 92.3593L 7.31445 88.7573zM 7.31445 87.8593L 7.31445 84.8593L 9.56445 84.8593C 10.5956 84.8593 11.2128 85.4213 11.2128 86.3593C 11.2128 87.2923 10.5995 87.8593 9.56445 87.8593L 7.31445 87.8593z"/>
<path style="stroke:none; fill-rule:evenodd; fill:#000000" d="M 17.3144 92.3593L 20.2167 83.9603L 19.0839 83.9603L 16.7675 91.0733L 14.3144 83.9603L 13.1698 83.9603L 16.1737 92.3593L 17.3144 92.3593z"/>
<path style="stroke:none; fill-rule:evenodd; fill:#000000" d="M 23.8144 88.8593L 23.0175 88.8593L 23.0175 93.8593L 23.8144 93.8593L 23.8144 88.8593zM 23.8144 86.8593L 23.0175 86.8593L 23.0175 87.8863L 23.8144 87.8863L 23.8144 86.8593z"/>
<path style="stroke:none; fill-rule:evenodd; fill:#000000" d="M 7.21675 106.058L 6.11905 106.058L 6.11905 114.456L 11.3183 114.456L 11.3183 113.558L 7.22065 113.558L 7.21675 106.058z"/>
<path style="stroke:none; fill-rule:evenodd; fill:#000000" d="M 16.0136 114.46L 18.9159 106.062L 17.7831 106.062L 15.4667 113.175L 13.0136 106.062L 11.869 106.062L 14.8729 114.46L 16.0136 114.46z"/>
<path style="stroke:none; fill-rule:evenodd; fill:#000000" d="M 25.4159 114.659C 25.4159 113.874 25.3612 113.402 25.2167 113.019C 24.8964 112.175 24.1347 111.663 23.2011 111.663C 21.8144 111.663 20.9198 112.737 20.9198 114.39C 20.9198 116.038 21.7831 117.058 23.1855 117.058C 24.3261 117.058 25.119 116.417 25.3183 115.339L 24.5136 115.339C 24.2948 116.007 23.8417 116.359 23.2011 116.359C 22.6933 116.359 22.2636 116.132 21.9901 115.718C 21.7987 115.437 21.7323 115.155 21.7245 114.663L 25.4159 114.659zM 21.7479 113.972C 21.8144 113.046 22.3769 112.445 23.1815 112.445C 23.9628 112.445 24.5683 113.093 24.5683 113.917C 24.5683 113.933 24.5683 113.952 24.5605 113.972L 21.7479 113.972z"/>
<path style="stroke:none; fill-rule:evenodd; fill:#000000" d="M 11.5136 37.6593L 11.5136 43.6203C 11.5136 44.7613 10.7167 45.4563 9.40425 45.4563C 8.79875 45.4563 8.30655 45.3083 7.91205 45.0153C 7.50975 44.6913 7.31835 44.2613 7.31835 43.6203L 7.31835 37.6593L 6.22065 37.6593L 6.22065 43.5813C 6.22065 45.2923 7.43155 46.3553 9.40815 46.3553C 11.3612 46.3553 12.619 45.2693 12.619 43.5813L 12.619 37.6593L 11.5136 37.6593z"/>
<path style="stroke:none; fill-rule:evenodd; fill:#000000" d="M 20.3144 40.1483C 20.3065 38.5113 19.1855 37.5623 17.2714 37.5623C 15.4472 37.5623 14.3183 38.5113 14.3183 40.0383C 14.3183 41.0663 14.8495 41.7183 15.9394 42.0073L 17.994 42.5623C 19.037 42.8393 19.5136 43.2653 19.5136 43.9253C 19.5136 44.3743 19.2753 44.8393 18.9276 45.0933C 18.5995 45.3233 18.08 45.4483 17.412 45.4483C 16.5175 45.4483 15.9081 45.2223 15.5136 44.7223C 15.2089 44.3433 15.0722 43.9253 15.1229 43.3863L 14.1229 43.3863C 14.1308 44.1633 14.2792 44.6753 14.6073 45.1403C 15.1737 45.9293 16.1269 46.3473 17.3847 46.3473C 18.369 46.3473 19.1737 46.1203 19.7089 45.7023C 20.2636 45.2573 20.6151 44.5073 20.6151 43.7803C 20.6151 42.7453 19.9823 41.9873 18.8573 41.6753L 16.7831 41.1123C 15.787 40.8393 15.4237 40.5153 15.4237 39.8703C 15.4237 39.0193 16.1581 38.4523 17.2636 38.4523C 18.5722 38.4523 19.3065 39.0543 19.3183 40.1403L 20.3144 40.1483z"/>
<path style="stroke:none; fill-rule:evenodd; fill:#000000" d="M 23.744 37.6593L 21.0253 46.2883L 21.6542 46.2883L 24.3729 37.6593L 23.744 37.6593z"/>
<path style="stroke:none; fill-rule:evenodd; fill:#000000" d="M 26.4159 42.4603L 29.0565 42.4603C 29.7128 42.4603 30.2323 42.2693 30.6855 41.8663C 31.1933 41.4133 31.412 40.8743 31.412 40.1093C 31.412 38.5463 30.4745 37.6633 28.8026 37.6633L 25.3144 37.6633L 25.3144 46.0623L 26.412 46.0623L 26.4159 42.4603zM 26.4159 41.5583L 26.4159 38.5583L 28.6659 38.5583C 29.6972 38.5583 30.3144 39.1203 30.3144 40.0583C 30.3144 40.9913 29.7011 41.5583 28.6659 41.5583L 26.4159 41.5583z"/>
<path style="stroke:none; fill-rule:evenodd; fill:#000000" d="M 36.5136 46.0583L 39.4159 37.6593L 38.2831 37.6593L 35.9667 44.7733L 33.5136 37.6593L 32.369 37.6593L 35.3729 46.0583L 36.5136 46.0583z"/>
<path style="stroke:none; fill-rule:evenodd; fill:#000000" d="M 44.5136 45.7573C 44.5136 44.9723 44.4589 44.4993 44.3144 44.1163C 43.994 43.2733 43.2323 42.7613 42.2987 42.7613C 40.912 42.7613 40.0175 43.8353 40.0175 45.4873C 40.0175 47.1363 40.8808 48.1553 42.2831 48.1553C 43.4237 48.1553 44.2167 47.5153 44.4159 46.4373L 43.6112 46.4373C 43.3925 47.1053 42.9394 47.4563 42.2987 47.4563C 41.7909 47.4563 41.3612 47.2303 41.0878 46.8163C 40.8964 46.5343 40.83 46.2533 40.8222 45.7613L 44.5136 45.7573zM 40.8495 45.0693C 40.9159 44.1443 41.4784 43.5423 42.2831 43.5423C 43.0644 43.5423 43.6698 44.1913 43.6698 45.0153C 43.6698 45.0303 43.6698 45.0503 43.662 45.0693L 40.8495 45.0693z"/>
</g>
</svg>