<?xml version="1.0" encoding="UTF-8" standalone="no"?>
<!-- Created with Inkscape (http://www.inkscape.org/) -->

<svg
   xmlns:dc="http://purl.org/dc/elements/1.1/"
   xmlns:cc="http://creativecommons.org/ns#"
   xmlns:rdf="http://www.w3.org/1999/02/22-rdf-syntax-ns#"
   xmlns:svg="http://www.w3.org/2000/svg"
   xmlns="http://www.w3.org/2000/svg"
   xmlns:sodipodi="http://sodipodi.sourceforge.net/DTD/sodipodi-0.dtd"
   xmlns:inkscape="http://www.inkscape.org/namespaces/inkscape"
   id="svg2"
   version="1.1"
   inkscape:version="0.47 r22583"
   width="322.5"
   height="256.25"
   xml:space="preserve"
   sodipodi:docname="fig_ions.svg"
   inkscape:export-filename="/Users/oreilly/svn_docs/figs/fig_ions.png"
   inkscape:export-xdpi="149.95818"
   inkscape:export-ydpi="149.95818"><metadata
     id="metadata8"><rdf:RDF><cc:Work
         rdf:about=""><dc:format>image/svg+xml</dc:format><dc:type
           rdf:resource="http://purl.org/dc/dcmitype/StillImage" /><dc:title></dc:title></cc:Work></rdf:RDF></metadata><defs
     id="defs6"><inkscape:perspective
       sodipodi:type="inkscape:persp3d"
       inkscape:vp_x="0 : 0.5 : 1"
       inkscape:vp_y="0 : 1000 : 0"
       inkscape:vp_z="1 : 0.5 : 1"
       inkscape:persp3d-origin="0.5 : 0.33333333 : 1"
       id="perspective10" /></defs><sodipodi:namedview
     pagecolor="#ffffff"
     bordercolor="#666666"
     borderopacity="1"
     objecttolerance="10"
     gridtolerance="10"
     guidetolerance="10"
     inkscape:pageopacity="0"
     inkscape:pageshadow="2"
     inkscape:window-width="980"
     inkscape:window-height="906"
     id="namedview4"
     showgrid="false"
     inkscape:zoom="1.9980488"
     inkscape:cx="158.2805"
     inkscape:cy="152.60583"
     inkscape:window-x="627"
     inkscape:window-y="0"
     inkscape:window-maximized="0"
     inkscape:current-layer="g12" /><g
     id="g12"
     inkscape:groupmode="layer"
     inkscape:label="fig_ions"
     transform="matrix(1.25,0,0,-1.25,0,256.25)"><rect
       style="fill:#ffffff;fill-opacity:1;fill-rule:nonzero;stroke:#ffffff;stroke-width:1;stroke-miterlimit:10;stroke-opacity:1;stroke-dasharray:none;stroke-dashoffset:0"
       id="rect3274"
       width="329.32129"
       height="263.25684"
       x="-2.0019531"
       y="-2.0019534"
       transform="matrix(0.8,0,0,-0.8,0,205)" /><path
       id="path16"
       style="fill:#dfdfdf;fill-opacity:1;fill-rule:evenodd;stroke:none"
       d="M 146.015,199.273 35.9027,23.0934 l 220.2243,0 -110.112,176.1796" /><path
       id="path18"
       style="fill:none;stroke:#000000;stroke-width:1.91329992;stroke-linecap:butt;stroke-linejoin:miter;stroke-miterlimit:10;stroke-opacity:1;stroke-dasharray:none"
       d="M 146.015,199.273 35.9027,23.0934 l 220.2243,0 -110.112,176.1796" /><path
       id="path20"
       style="fill:#ffffff;fill-opacity:1;fill-rule:evenodd;stroke:none"
       d="m 95.3137,43.9332 c 0,6.3398 -5.1399,11.4797 -11.4797,11.4797 -6.3399,0 -11.4801,-5.1399 -11.4801,-11.4797 0,-6.3398 5.1402,-11.4797 11.4801,-11.4797 6.3398,0 11.4797,5.1399 11.4797,11.4797" /><path
       id="path22"
       style="fill:#ff8080;stroke:#000000;stroke-width:1.91329992000000004;stroke-linecap:butt;stroke-linejoin:miter;stroke-miterlimit:10;stroke-opacity:1;stroke-dasharray:none"
       d="m 95.3137,43.9332 c 0,6.3398 -5.1399,11.4797 -11.4797,11.4797 -6.3399,0 -11.4801,-5.1399 -11.4801,-11.4797 0,-6.3398 5.1402,-11.4797 11.4801,-11.4797 6.3398,0 11.4797,5.1399 11.4797,11.4797" /><path
       id="path24"
       style="fill:none;stroke:#000000;stroke-width:1.91329992;stroke-linecap:butt;stroke-linejoin:miter;stroke-miterlimit:10;stroke-opacity:1;stroke-dasharray:none"
       d="m 56.3559,63.7148 4.0109,6.5176 9.777,-6.0164 -4.011,-6.518 -9.7769,6.0168 z" /><path
       id="path26"
       style="fill:#ffffff;fill-opacity:1;fill-rule:evenodd;stroke:none"
       d="m 56.091,64.8078 3.3961,5.5192 10.9508,-6.7391 -3.3965,-5.5191" /><path
       id="path28"
       style="fill:none;stroke:#ffffff;stroke-width:0.95664901;stroke-linecap:butt;stroke-linejoin:miter;stroke-miterlimit:10;stroke-opacity:1;stroke-dasharray:none"
       d="m 56.091,64.8078 3.3961,5.5192 10.9508,-6.7391 -3.3965,-5.5191 -10.9504,6.739 z" /><path
       id="path30"
       style="fill:none;stroke:#000000;stroke-width:1.91329992;stroke-linecap:butt;stroke-linejoin:miter;stroke-miterlimit:10;stroke-opacity:1;stroke-dasharray:none"
       d="m 48.2242,51.7566 4.0113,6.518 9.7766,-6.0168 -4.0109,-6.5176 -9.777,6.0164 z" /><path
       id="path32"
       style="fill:#ffffff;fill-opacity:1;fill-rule:evenodd;stroke:none"
       d="m 47.9594,52.8496 3.3961,5.5192 10.9507,-6.7391 -3.396,-5.5188" /><path
       id="path34"
       style="fill:none;stroke:#ffffff;stroke-width:0.95664901;stroke-linecap:butt;stroke-linejoin:miter;stroke-miterlimit:10;stroke-opacity:1;stroke-dasharray:none"
       d="m 47.9594,52.8496 3.3961,5.5192 10.9507,-6.7391 -3.396,-5.5188 -10.9508,6.7387 z" /><path
       id="path36"
       style="fill:none;stroke:#000000;stroke-width:1.91329992;stroke-linecap:butt;stroke-linejoin:miter;stroke-miterlimit:10;stroke-opacity:1;stroke-dasharray:none"
       d="m 98.4484,132.593 4.0106,6.518 9.777,-6.016 -4.011,-6.518 -9.7766,6.016 z" /><path
       id="path38"
       style="fill:#ffffff;fill-opacity:1;fill-rule:evenodd;stroke:none"
       d="m 98.1836,133.687 3.3964,5.518 10.95,-6.738 -3.396,-5.519" /><path
       id="path40"
       style="fill:none;stroke:#ffffff;stroke-width:0.95664901;stroke-linecap:butt;stroke-linejoin:miter;stroke-miterlimit:10;stroke-opacity:1;stroke-dasharray:none"
       d="m 98.1836,133.687 3.3964,5.518 10.95,-6.738 -3.396,-5.519 -10.9504,6.739 z" /><path
       id="path42"
       style="fill:#ffffff;fill-opacity:1;fill-rule:evenodd;stroke:none"
       d="m 95.3137,151.078 c 0,12.68 -10.2797,22.96 -22.9598,22.96 -12.6801,0 -22.9594,-10.28 -22.9594,-22.96 0,-12.68 10.2793,-22.96 22.9594,-22.96 12.6801,0 22.9598,10.28 22.9598,22.96" /><path
       id="path44"
       style="fill:#8080ff;stroke:#000000;stroke-width:1.91329992000000004;stroke-linecap:butt;stroke-linejoin:miter;stroke-miterlimit:10;stroke-opacity:1;stroke-dasharray:none"
       d="m 95.3137,151.078 c 0,12.68 -10.2797,22.96 -22.9598,22.96 -12.6801,0 -22.9594,-10.28 -22.9594,-22.96 0,-12.68 10.2793,-22.96 22.9594,-22.96 12.6801,0 22.9598,10.28 22.9598,22.96" /><path
       id="path46"
       style="fill:none;stroke:#000000;stroke-width:1.91329992;stroke-linecap:butt;stroke-linejoin:miter;stroke-miterlimit:10;stroke-opacity:1;stroke-dasharray:none"
       d="m 213.143,101.024 -4.011,6.518 -9.777,-6.017 4.011,-6.5176 9.777,6.0166 z" /><path
       id="path48"
       style="fill:#ffffff;fill-opacity:1;fill-rule:evenodd;stroke:none"
       d="m 213.408,102.117 -3.396,5.519 -10.951,-6.739 3.396,-5.5189" /><path
       id="path50"
       style="fill:none;stroke:#ffffff;stroke-width:0.95664901;stroke-linecap:butt;stroke-linejoin:miter;stroke-miterlimit:10;stroke-opacity:1;stroke-dasharray:none"
       d="m 213.408,102.117 -3.396,5.519 -10.951,-6.739 3.396,-5.5189 10.951,6.7389 z" /><path
       id="path52"
       style="fill:#ffffff;fill-opacity:1;fill-rule:evenodd;stroke:none"
       d="m 148.886,23.8438 8.132,-1.9133 -8.61,-11.95784 4.304,9.56644 -7.653,2.8699 10.523,12.4363" /><path
       id="path54"
       style="fill:none;stroke:#000000;stroke-width:0.95664901;stroke-linecap:butt;stroke-linejoin:miter;stroke-miterlimit:10;stroke-opacity:1;stroke-dasharray:none"
       d="m 148.886,23.8438 8.132,-1.9133 -8.61,-11.95784 4.304,9.56644 -7.653,2.8699 10.523,12.4363 -6.696,-11.0015 z" /><g
       id="g56"><text
   id="text58"
   transform="matrix(1,0,0,-1,87.1984,192.462)"><tspan
     id="tspan60"
     sodipodi:role="line"
     y="0"
     x="0 3.1913843 9.5741529 15.956922 18.505438 24.888206 27.436722 30.628107 37.010876 40.833649"
     style="font-size:11.47980022px;font-variant:normal;font-weight:normal;writing-mode:lr-tb;fill:#000000;fill-opacity:1;fill-rule:nonzero;stroke:none;font-family:Helvetica;-inkscape-font-specification:Helvetica">Inhibitory</tspan><tspan
     id="tspan62"
     sodipodi:role="line"
     y="11.4801"
     x="0 7.6570268 13.396927 19.779696 26.162464 32.545235 35.736618 38.285133"
     style="font-size:11.47980022px;font-variant:normal;font-weight:normal;writing-mode:lr-tb;fill:#000000;fill-opacity:1;fill-rule:nonzero;stroke:none;font-family:Helvetica;-inkscape-font-specification:Helvetica">Synaptic</tspan><tspan
     id="tspan64"
     sodipodi:role="line"
     y="22.960199"
     x="0 3.1913843 9.5741529 15.956922 22.339691"
     style="font-size:11.47980022px;font-variant:normal;font-weight:normal;writing-mode:lr-tb;fill:#000000;fill-opacity:1;fill-rule:nonzero;stroke:none;font-family:Helvetica;-inkscape-font-specification:Helvetica">Input</tspan><tspan
     id="tspan66"
     sodipodi:role="line"
     y="76.542999"
     x="-46.397701 -38.740673 -33.000774 -27.260874 -24.712358 -21.520973 -15.138205 -11.94682 -5.5640516 -1.7412781"
     style="font-size:11.47980022px;font-variant:normal;font-weight:normal;writing-mode:lr-tb;fill:#000000;fill-opacity:1;fill-rule:nonzero;stroke:none;font-family:Helvetica;-inkscape-font-specification:Helvetica">Excitatory</tspan><tspan
     id="tspan68"
     sodipodi:role="line"
     y="88.023102"
     x="-46.397701 -38.740673 -33.000774 -26.618004 -20.235235 -13.852467 -10.661082 -8.1125669"
     style="font-size:11.47980022px;font-variant:normal;font-weight:normal;writing-mode:lr-tb;fill:#000000;fill-opacity:1;fill-rule:nonzero;stroke:none;font-family:Helvetica;-inkscape-font-specification:Helvetica">Synaptic</tspan><tspan
     id="tspan70"
     sodipodi:role="line"
     y="99.503197"
     x="-46.397701 -43.206314 -36.823547 -30.440779 -24.05801"
     style="font-size:11.47980022px;font-variant:normal;font-weight:normal;writing-mode:lr-tb;fill:#000000;fill-opacity:1;fill-rule:nonzero;stroke:none;font-family:Helvetica;-inkscape-font-specification:Helvetica">Input</tspan><tspan
     id="tspan72"
     sodipodi:role="line"
     y="59.333302"
     x="105.6933 112.07607 118.45884 124.84161"
     style="font-size:11.47980022px;font-variant:normal;font-weight:normal;writing-mode:lr-tb;fill:#000000;fill-opacity:1;fill-rule:nonzero;stroke:none;font-family:Helvetica;-inkscape-font-specification:Helvetica">Leak</tspan></text>

</g><path
       id="path74"
       style="fill:#ffffff;fill-opacity:1;fill-rule:evenodd;stroke:none"
       d="m 141.233,116.639 c 0,6.34 -5.14,11.479 -11.48,11.479 -6.34,0 -11.48,-5.139 -11.48,-11.479 0,-6.34 5.14,-11.48 11.48,-11.48 6.34,0 11.48,5.14 11.48,11.48" /><path
       id="path76"
       style="fill:#8080ff;stroke:#000000;stroke-width:1.91329992000000004;stroke-linecap:butt;stroke-linejoin:miter;stroke-miterlimit:10;stroke-opacity:1;stroke-dasharray:none"
       d="m 141.233,116.639 c 0,6.34 -5.14,11.479 -11.48,11.479 -6.34,0 -11.48,-5.139 -11.48,-11.479 0,-6.34 5.14,-11.48 11.48,-11.48 6.34,0 11.48,5.14 11.48,11.48" /><g
       id="g78"><text
   id="text80"
   transform="matrix(1,0,0,-1,122.1,115.539)"><tspan
     id="tspan82"
     sodipodi:role="line"
     y="0"
     x="0 6.9070058 9.0307665"
     style="font-size:9.56649017px;font-variant:normal;font-weight:normal;writing-mode:lr-tb;fill:#000000;fill-opacity:1;fill-rule:nonzero;stroke:none;font-family:Helvetica;-inkscape-font-specification:Helvetica">Cl−</tspan><tspan
     id="tspan84"
     sodipodi:role="line"
     y="72.430496"
     x="-45.452 -38.544994 -33.226025"
     style="font-size:9.56649017px;font-variant:normal;font-weight:normal;writing-mode:lr-tb;fill:#000000;fill-opacity:1;fill-rule:nonzero;stroke:none;font-family:Helvetica;-inkscape-font-specification:Helvetica">Na+</tspan></text>

<text
   id="text86"
   transform="matrix(1,0,0,-1,95.7691,111.1269)"><tspan
     id="tspan88"
     sodipodi:role="line"
     y="0"
     x="0 7.6570268"
     style="font-size:11.47980022px;font-variant:normal;font-weight:normal;writing-mode:lr-tb;fill:#000000;fill-opacity:1;fill-rule:nonzero;stroke:none;font-family:Helvetica;-inkscape-font-specification:Helvetica">Vm</tspan></text>

</g><path
       id="path90"
       style="fill:none;stroke:#000000;stroke-width:0.95664901;stroke-linecap:butt;stroke-linejoin:miter;stroke-miterlimit:10;stroke-opacity:1;stroke-dasharray:none"
       d="m 60.9027,90.698 0,-20.0964" /><path
       id="path92"
       style="fill:none;stroke:#000000;stroke-width:0.95664901;stroke-linecap:butt;stroke-linejoin:miter;stroke-miterlimit:10;stroke-opacity:1;stroke-dasharray:none"
       d="m 62.816,78.2547 -1.9133,-7.6531 -1.9136,7.6531" /><path
       id="path94"
       style="fill:none;stroke:#000000;stroke-width:0.95664901;stroke-linecap:butt;stroke-linejoin:miter;stroke-miterlimit:10;stroke-opacity:1;stroke-dasharray:none"
       d="m 103.967,167.735 0,-25.839" /><path
       id="path96"
       style="fill:none;stroke:#000000;stroke-width:0.95664901;stroke-linecap:butt;stroke-linejoin:miter;stroke-miterlimit:10;stroke-opacity:1;stroke-dasharray:none"
       d="m 105.88,149.55 -1.913,-7.654 -1.913,7.654" /><path
       id="path98"
       style="fill:none;stroke:#000000;stroke-width:0.95664901;stroke-linecap:butt;stroke-linejoin:miter;stroke-miterlimit:10;stroke-opacity:1;stroke-dasharray:none"
       d="m 204.928,130.412 1.914,-18.182" /><path
       id="path100"
       style="fill:none;stroke:#000000;stroke-width:0.95664901;stroke-linecap:butt;stroke-linejoin:miter;stroke-miterlimit:10;stroke-opacity:1;stroke-dasharray:none"
       d="m 207.944,120.041 -1.102,-7.811 -2.704,7.411" /><path
       id="path102"
       style="fill:none;stroke:#000000;stroke-width:0.95664901;stroke-linecap:butt;stroke-linejoin:miter;stroke-miterlimit:10;stroke-opacity:1;stroke-dasharray:none"
       d="M 34.107,36.15 44.634,50.9832" /><path
       id="path104"
       style="fill:none;stroke:#000000;stroke-width:0.95664901;stroke-linecap:butt;stroke-linejoin:miter;stroke-miterlimit:10;stroke-opacity:1;stroke-dasharray:none"
       d="m 38.6441,45.8496 5.9899,5.1336 -2.8692,-7.3484" /><g
       id="g106"><text
   id="text108"
   transform="matrix(1,0,0,-1,4.91406,36.5457)"><tspan
     id="tspan110"
     sodipodi:role="line"
     y="0"
     x="0 8.2884159 14.671185 17.862568"
     style="font-size:11.47980022px;font-variant:normal;font-weight:normal;writing-mode:lr-tb;fill:#000000;fill-opacity:1;fill-rule:nonzero;stroke:none;font-family:Helvetica;-inkscape-font-specification:Helvetica">Na/K</tspan><tspan
     id="tspan112"
     sodipodi:role="line"
     y="11.4797"
     x="0 7.6570268 14.039796 23.602468"
     style="font-size:11.47980022px;font-variant:normal;font-weight:normal;writing-mode:lr-tb;fill:#000000;fill-opacity:1;fill-rule:nonzero;stroke:none;font-family:Helvetica;-inkscape-font-specification:Helvetica">Pump</tspan><tspan
     id="tspan114"
     sodipodi:role="line"
     y="-23.3797"
     x="86.5457 94.202728"
     style="font-size:11.47980022px;font-variant:normal;font-weight:normal;writing-mode:lr-tb;fill:#000000;fill-opacity:1;fill-rule:nonzero;stroke:none;font-family:Helvetica;-inkscape-font-specification:Helvetica">Vm</tspan><tspan
     id="tspan116"
     sodipodi:role="line"
     y="4.3754001"
     x="44.435902 52.092926"
     style="font-size:11.47980022px;font-variant:normal;font-weight:normal;writing-mode:lr-tb;fill:#000000;fill-opacity:1;fill-rule:nonzero;stroke:none;font-family:Helvetica;-inkscape-font-specification:Helvetica">Vm</tspan><tspan
     id="tspan118"
     sodipodi:role="line"
     y="-40.599998"
     x="196.1149 203.77193"
     style="font-size:11.47980022px;font-variant:normal;font-weight:normal;writing-mode:lr-tb;fill:#000000;fill-opacity:1;fill-rule:nonzero;stroke:none;font-family:Helvetica;-inkscape-font-specification:Helvetica">Vm</tspan><tspan
     id="tspan120"
     sodipodi:role="line"
     y="-99.460503"
     x="105.6712 112.3754 118.75817"
     style="font-size:11.47980022px;font-variant:normal;font-weight:normal;writing-mode:lr-tb;fill:#000000;fill-opacity:1;fill-rule:nonzero;stroke:none;font-family:Helvetica;-inkscape-font-specification:Helvetica">−70</tspan><tspan
     id="tspan122"
     sodipodi:role="line"
     y="-30.556999"
     x="61.665699 68.369904 74.75267"
     style="font-size:11.47980022px;font-variant:normal;font-weight:normal;writing-mode:lr-tb;fill:#000000;fill-opacity:1;fill-rule:nonzero;stroke:none;font-family:Helvetica;-inkscape-font-specification:Helvetica">+55</tspan><tspan
     id="tspan124"
     sodipodi:role="line"
     y="-67.877701"
     x="175.5287 182.23291 188.61568"
     style="font-size:11.47980022px;font-variant:normal;font-weight:normal;writing-mode:lr-tb;fill:#000000;fill-opacity:1;fill-rule:nonzero;stroke:none;font-family:Helvetica;-inkscape-font-specification:Helvetica">−70</tspan></text>

</g><path
       id="path126"
       style="fill:none;stroke:#000000;stroke-width:2.86994982;stroke-linecap:butt;stroke-linejoin:miter;stroke-miterlimit:10;stroke-opacity:1;stroke-dasharray:none"
       d="m 114.493,120.364 0,-18.661" /><path
       id="path128"
       style="fill:none;stroke:#000000;stroke-width:2.86994982;stroke-linecap:butt;stroke-linejoin:miter;stroke-miterlimit:10;stroke-opacity:1;stroke-dasharray:none"
       d="m 116.407,109.357 -1.914,-7.654 -1.913,7.654" /><path
       id="path130"
       style="fill:none;stroke:#000000;stroke-width:2.86994982;stroke-linecap:butt;stroke-linejoin:miter;stroke-miterlimit:10;stroke-opacity:1;stroke-dasharray:none"
       d="m 198.708,89.741 0,-18.1824" /><path
       id="path132"
       style="fill:none;stroke:#000000;stroke-width:2.86994982;stroke-linecap:butt;stroke-linejoin:miter;stroke-miterlimit:10;stroke-opacity:1;stroke-dasharray:none"
       d="m 200.621,79.2117 -1.913,-7.6531 -1.913,7.6531" /><path
       id="path134"
       style="fill:none;stroke:#000000;stroke-width:2.86994982;stroke-linecap:butt;stroke-linejoin:miter;stroke-miterlimit:10;stroke-opacity:1;stroke-dasharray:none"
       d="m 88.6551,58.1605 0,17.7043" /><path
       id="path136"
       style="fill:none;stroke:#000000;stroke-width:2.86994982;stroke-linecap:butt;stroke-linejoin:miter;stroke-miterlimit:10;stroke-opacity:1;stroke-dasharray:none"
       d="m 86.7418,68.2117 1.9133,7.6531 1.9133,-7.6531" /><path
       id="path138"
       style="fill:none;stroke:#000000;stroke-width:2.86994982;stroke-linecap:butt;stroke-linejoin:miter;stroke-miterlimit:10;stroke-opacity:1;stroke-dasharray:none"
       d="m 68.5586,39.9781 0,-11.0054" /><path
       id="path140"
       style="fill:none;stroke:#000000;stroke-width:2.86994982;stroke-linecap:butt;stroke-linejoin:miter;stroke-miterlimit:10;stroke-opacity:1;stroke-dasharray:none"
       d="m 70.4719,36.6262 -1.9133,-7.6535 -1.9137,7.6535" /><path
       id="path142"
       style="fill:#ffffff;fill-opacity:1;fill-rule:evenodd;stroke:none"
       d="m 239.289,114.725 c 0,6.34 -5.14,11.48 -11.48,11.48 -6.339,0 -11.479,-5.14 -11.479,-11.48 0,-6.339 5.14,-11.48 11.479,-11.48 6.34,0 11.48,5.141 11.48,11.48" /><path
       id="path144"
       style="fill:#00ffff;stroke:#000000;stroke-width:1.91329992000000004;stroke-linecap:butt;stroke-linejoin:miter;stroke-miterlimit:10;stroke-opacity:1;stroke-dasharray:none"
       d="m 239.289,114.725 c 0,6.34 -5.14,11.48 -11.48,11.48 -6.339,0 -11.479,-5.14 -11.479,-11.48 0,-6.339 5.14,-11.48 11.479,-11.48 6.34,0 11.48,5.141 11.48,11.48" /><g
       id="g146"><text
   id="text148"
   transform="matrix(1,0,0,-1,222.069,111.712)"><tspan
     id="tspan150"
     sodipodi:role="line"
     y="0"
     x="0 6.3808489"
     style="font-size:9.56649017px;font-variant:normal;font-weight:normal;writing-mode:lr-tb;fill:#000000;fill-opacity:1;fill-rule:nonzero;stroke:none;font-family:Helvetica;-inkscape-font-specification:Helvetica">K+</tspan></text>

<text
   id="text152"
   transform="matrix(1,0,0,-1,62.309,149.1554)"><tspan
     id="tspan154"
     sodipodi:role="line"
     y="0"
     x="0 9.6698179 12.643086"
     style="font-size:13.39309978px;font-variant:normal;font-weight:normal;writing-mode:lr-tb;fill:#000000;fill-opacity:1;fill-rule:nonzero;stroke:none;font-family:Helvetica;-inkscape-font-specification:Helvetica">Cl−</tspan></text>

</g><path
       id="path156"
       style="fill:#ff8080;stroke:#000000;stroke-width:1.91329992000000004;stroke-linecap:butt;stroke-linejoin:miter;stroke-miterlimit:10;stroke-opacity:1;stroke-dasharray:none"
       d="m 49.3945,74.5461 c 0,12.6801 -10.2797,22.9594 -22.9597,22.9594 -12.6801,0 -22.95941,-10.2793 -22.95941,-22.9594 0,-12.6801 10.27931,-22.9598 22.95941,-22.9598 12.68,0 22.9597,10.2797 22.9597,22.9598" /><g
       id="g158"><text
   id="text160"
   transform="matrix(1,0,0,-1,13.9984,72.623)"><tspan
     id="tspan162"
     sodipodi:role="line"
     y="0"
     x="0 9.6698179 17.116383"
     style="font-size:13.39309978px;font-variant:normal;font-weight:normal;writing-mode:lr-tb;fill:#000000;fill-opacity:1;fill-rule:nonzero;stroke:none;font-family:Helvetica;-inkscape-font-specification:Helvetica">Na+</tspan></text>

</g><path
       id="path164"
       style="fill:#ffffff;fill-opacity:1;fill-rule:evenodd;stroke:none"
       d="m 190.978,82.1992 c 0,12.6801 -10.279,22.9598 -22.959,22.9598 -12.68,0 -22.96,-10.2797 -22.96,-22.9598 0,-12.6801 10.28,-22.9597 22.96,-22.9597 12.68,0 22.959,10.2796 22.959,22.9597" /><path
       id="path166"
       style="fill:#00ffff;stroke:#000000;stroke-width:1.91329992000000004;stroke-linecap:butt;stroke-linejoin:miter;stroke-miterlimit:10;stroke-opacity:1;stroke-dasharray:none"
       d="m 190.978,82.1992 c 0,12.6801 -10.279,22.9598 -22.959,22.9598 -12.68,0 -22.96,-10.2797 -22.96,-22.9598 0,-12.6801 10.28,-22.9597 22.96,-22.9597 12.68,0 22.959,10.2796 22.959,22.9597" /><g
       id="g168"><text
   id="text170"
   transform="matrix(1,0,0,-1,159.409,80.2762)"><tspan
     id="tspan172"
     sodipodi:role="line"
     y="0"
     x="0 8.933198"
     style="font-size:13.39309978px;font-variant:normal;font-weight:normal;writing-mode:lr-tb;fill:#000000;fill-opacity:1;fill-rule:nonzero;stroke:none;font-family:Helvetica;-inkscape-font-specification:Helvetica">K+</tspan></text>

</g><path
       id="path174"
       style="fill:none;stroke:#000000;stroke-width:1.91329992;stroke-linecap:butt;stroke-linejoin:miter;stroke-miterlimit:10;stroke-opacity:1;stroke-dasharray:none"
       d="M 53.2469,70.6016 75.2574,56.2469" /><path
       id="path176"
       style="fill:none;stroke:#000000;stroke-width:1.91329992;stroke-linecap:butt;stroke-linejoin:miter;stroke-miterlimit:10;stroke-opacity:1;stroke-dasharray:none"
       d="m 69.8922,62.0301 5.3652,-5.7832 -7.4558,2.5781" /><path
       id="path178"
       style="fill:none;stroke:#000000;stroke-width:1.91329992;stroke-linecap:butt;stroke-linejoin:miter;stroke-miterlimit:10;stroke-opacity:1;stroke-dasharray:none"
       d="M 68.5586,43.8059 46.548,58.6391" /><path
       id="path180"
       style="fill:none;stroke:#000000;stroke-width:1.91329992;stroke-linecap:butt;stroke-linejoin:miter;stroke-miterlimit:10;stroke-opacity:1;stroke-dasharray:none"
       d="m 51.825,52.7754 -5.277,5.8637 7.4157,-2.6903" /><path
       id="path182"
       style="fill:none;stroke:#000000;stroke-width:1.91329992;stroke-linecap:butt;stroke-linejoin:miter;stroke-miterlimit:10;stroke-opacity:1;stroke-dasharray:none"
       d="m 192.966,93.0906 21.532,13.8764" /><path
       id="path184"
       style="fill:none;stroke:#000000;stroke-width:1.91329992;stroke-linecap:butt;stroke-linejoin:miter;stroke-miterlimit:10;stroke-opacity:1;stroke-dasharray:none"
       d="m 207.029,104.429 7.469,2.538 -5.397,-5.755" /><path
       id="path186"
       style="fill:none;stroke:#000000;stroke-width:1.91329992;stroke-linecap:butt;stroke-linejoin:miter;stroke-miterlimit:10;stroke-opacity:1;stroke-dasharray:none"
       d="M 95.3539,139.504 116.886,125.149" /><path
       id="path188"
       style="fill:none;stroke:#000000;stroke-width:1.91329992;stroke-linecap:butt;stroke-linejoin:miter;stroke-miterlimit:10;stroke-opacity:1;stroke-dasharray:none"
       d="m 111.579,130.986 5.307,-5.837 -7.429,2.654" /><g
       id="g190"><text
   id="text192"
   transform="matrix(1,0,0,-1,126.406,32.6988)"><tspan
     id="tspan194"
     sodipodi:role="line"
     y="0"
     x="0 7.8215704 15.268134 22.714697 33.871151"
     style="font-size:13.39309978px;font-variant:normal;font-weight:normal;writing-mode:lr-tb;fill:#000000;fill-opacity:1;fill-rule:nonzero;stroke:none;font-family:Helvetica;-inkscape-font-specification:Helvetica">−70mV</tspan><tspan
     id="tspan196"
     sodipodi:role="line"
     y="26.305901"
     x="9.5550804 17.001644 28.158096"
     style="font-size:13.39309978px;font-variant:normal;font-weight:normal;writing-mode:lr-tb;fill:#000000;fill-opacity:1;fill-rule:nonzero;stroke:none;font-family:Helvetica;-inkscape-font-specification:Helvetica">0mV</tspan></text>

</g></g></svg>