<?xml version="1.0" encoding="ISO-8859-1" standalone="yes"?>
<svg width="246.756" height="521.146">
  <defs> 
    <marker id="ArrowEnd" viewBox="0 0 10 10" refX="0" refY="5" 
     markerUnits="strokeWidth" 
     markerWidth="4" 
     markerHeight="3" 
     orient="auto"> 
        <path d="M 0 0 L 10 5 L 0 10 z" /> 
    </marker>
    <marker id="ArrowStart" viewBox="0 0 10 10" refX="10" refY="5" 
     markerUnits="strokeWidth" 
     markerWidth="4" 
     markerHeight="3" 
     orient="auto"> 
        <path d="M 10 0 L 0 5 L 10 10 z" /> 
    </marker> </defs>
<g>
<path style="stroke:none; fill-rule:evenodd; fill:#ffffff" d="M 0.524084 520.622L 246.232 520.622L 246.232 0.524109L 0.524084 0.524109L 0.524084 520.622z"/>
<path style="stroke:#ffffff; stroke-width:0.10000000000000001; fill:none" d="M 0.524084 520.622L 246.232 520.622L 246.232 0.524109L 0.524084 0.524109L 0.524084 520.622z"/>
<path style="stroke:#000000; stroke-width:1.59941; fill:none" d="M 10.9225 178.637L 236.844 178.637L 236.844 77.3871L 10.9225 77.3871L 10.9225 178.637z"/>
<path style="stroke:#000000; stroke-width:1.59941; fill:none" d="M 10.9225 481.141L 236.844 481.141L 236.844 379.891L 10.9225 379.891L 10.9225 481.141z"/>
<path style="stroke:#000000; stroke-width:1.59941; fill:none" d="M 10.9225 333.879L 236.844 333.879L 236.844 232.629L 10.9225 232.629L 10.9225 333.879z"/>
<path style="stroke:none; fill-rule:evenodd; fill:#a45555" d="M 26.153 201.524L 28.1882 207.52L 31.0124 207.52L 24.0514 187.723L 20.7897 187.723L 13.7233 207.52L 16.4147 207.52L 18.5085 201.524L 26.153 201.524zM 25.446 199.422L 19.1413 199.422L 22.403 190.422L 25.446 199.422z"/>
<path style="stroke:none; fill-rule:evenodd; fill:#a45555" d="M 45.3835 187.723C 42.6725 191.282 40.9655 196.227 40.9655 200.493C 40.9655 204.782 42.6725 209.727 45.3835 213.286L 46.8717 213.286C 44.4889 209.403 43.1608 204.84 43.1608 200.493C 43.1608 196.176 44.485 191.586 46.8717 187.723L 45.3835 187.723z"/>
<path style="stroke:none; fill-rule:evenodd; fill:#a45555" d="M 58.5944 197.356C 60.5241 196.161 61.1608 195.184 61.1608 193.364C 61.1608 190.348 58.8132 188.227 55.4108 188.227C 52.0397 188.227 49.6647 190.348 49.6647 193.364C 49.6647 195.157 50.3132 196.133 52.2585 197.356C 50.0553 198.415 48.9616 200.016 48.9616 202.137C 48.9616 205.668 51.6139 208.114 55.4069 208.114C 59.1999 208.114 61.8561 205.668 61.8561 202.165C 61.8561 200.02 60.7858 198.415 58.5905 197.356L 58.5944 197.356zM 55.4108 190.321C 57.4499 190.321 58.7585 191.524 58.7585 193.411C 58.7585 195.215 57.4225 196.418 55.4108 196.418C 53.3991 196.418 52.0632 195.219 52.0632 193.383C 52.0632 191.524 53.3952 190.321 55.4108 190.321zM 55.4108 198.422C 57.8171 198.422 59.4616 199.946 59.4616 202.208C 59.4616 204.493 57.821 206.02 55.36 206.02C 53.0085 206.02 51.3678 204.469 51.3678 202.208C 51.3678 199.95 53.0085 198.422 55.4147 198.422L 55.4108 198.422z"/>
<path style="stroke:none; fill-rule:evenodd; fill:#a45555" d="M 70.5632 188.223C 68.7741 188.223 67.1413 189 66.1374 190.321C 64.8913 192.004 64.2663 194.59 64.2663 198.157C 64.2663 204.661 66.4382 208.118 70.5632 208.118C 74.6335 208.118 76.8639 204.665 76.8639 198.321C 76.8639 194.567 76.2663 192.063 74.9889 190.321C 73.985 188.977 72.3835 188.223 70.5632 188.223zM 70.5632 190.321C 73.1725 190.321 74.4616 192.93 74.4616 198.098C 74.4616 203.563 73.1999 206.118 70.5085 206.118C 67.9538 206.118 66.6647 203.454 66.6647 198.18C 66.6647 192.907 67.9538 190.321 70.5632 190.321z"/>
<path style="stroke:none; fill-rule:evenodd; fill:#a45555" d="M 83.6999 188.922C 81.1647 188.922 79.0671 191.016 79.0671 193.571C 79.0671 196.125 81.1647 198.219 83.7272 198.219C 86.2624 198.219 88.36 196.129 88.36 193.625C 88.36 190.989 86.3171 188.922 83.6999 188.922zM 83.6999 190.821C 85.2428 190.821 86.4616 192.043 86.4616 193.594C 86.4616 195.09 85.2155 196.313 83.7272 196.313C 82.2116 196.313 80.9655 195.063 80.9655 193.567C 80.9655 192.043 82.2077 190.817 83.6999 190.817L 83.6999 190.821zM 94.8205 188.223L 84.0827 208.02L 85.8757 208.02L 96.6135 188.223L 94.8205 188.223zM 97.0005 198.723C 94.4655 198.723 92.3675 200.821 92.3675 203.356C 92.3675 205.918 94.4655 208.016 97.0275 208.016C 99.5355 208.016 101.664 205.918 101.664 203.411C 101.664 200.793 99.6175 198.723 97.0005 198.723zM 97.0005 200.622C 98.5435 200.622 99.7625 201.852 99.7625 203.411C 99.7625 204.887 98.5205 206.118 97.0275 206.118C 95.5125 206.118 94.2665 204.887 94.2665 203.356C 94.2665 201.852 95.5085 200.622 97.0005 200.622z"/>
<path style="stroke:none; fill-rule:evenodd; fill:#a45555" d="M 104.903 213.286C 107.637 209.727 109.363 204.786 109.363 200.52C 109.363 196.231 107.641 191.286 104.903 187.723L 103.399 187.723C 105.817 191.61 107.164 196.172 107.164 200.52C 107.164 204.836 105.82 209.426 103.399 213.286L 104.903 213.286z"/>
<path style="stroke:none; fill-rule:evenodd; fill:#a45555" d="M 144.465 207.52L 153.352 207.52C 155.215 207.52 156.59 207.004 157.645 205.864C 158.613 204.832 159.156 203.422 159.156 201.875C 159.156 199.489 158.083 198.047 155.583 197.071C 157.395 196.231 158.357 194.766 158.357 192.754C 158.357 191.317 157.814 190.04 156.781 189.118C 155.755 188.168 154.395 187.731 152.497 187.731L 144.465 187.731L 144.465 207.52zM 146.965 196.223L 146.965 189.926L 151.876 189.926C 153.294 189.926 154.087 190.118 154.766 190.629C 155.473 191.172 155.857 191.985 155.857 193.071C 155.857 194.129 155.473 194.969 154.766 195.512C 154.087 196.028 153.294 196.215 151.876 196.215L 146.965 196.223zM 146.965 205.321L 146.965 198.422L 153.113 198.422C 154.333 198.422 155.145 198.723 155.738 199.383C 156.333 200.012 156.661 200.891 156.661 201.883C 156.661 202.844 156.337 203.723 155.738 204.356C 155.145 205.012 154.333 205.317 153.113 205.317L 146.965 205.321z"/>
<path style="stroke:none; fill-rule:evenodd; fill:#a45555" d="M 174.383 187.723C 171.673 191.282 169.965 196.227 169.965 200.493C 169.965 204.782 171.673 209.727 174.383 213.286L 175.872 213.286C 173.488 209.403 172.161 204.84 172.161 200.493C 172.161 196.176 173.486 191.586 175.872 187.723L 174.383 187.723z"/>
<path style="stroke:none; fill-rule:evenodd; fill:#a45555" d="M 190.723 205.122L 180.579 205.122C 180.82 203.547 181.693 202.543 184.059 201.157L 186.777 199.692C 189.469 198.227 190.857 196.243 190.857 193.879C 190.857 192.278 190.204 190.786 189.059 189.75C 187.919 188.719 186.505 188.227 184.68 188.227C 182.236 188.227 180.411 189.098 179.352 190.735C 178.673 191.77 178.376 192.969 178.32 194.934L 180.723 194.934C 180.801 193.625 180.965 192.836 181.294 192.208C 181.923 191.036 183.176 190.325 184.626 190.325C 186.809 190.325 188.449 191.875 188.449 193.946C 188.449 195.469 187.548 196.774 185.829 197.754L 183.318 199.168C 179.275 201.454 178.098 203.274 177.883 207.52L 190.719 207.52L 190.723 205.122z"/>
<path style="stroke:none; fill-rule:evenodd; fill:#a45555" d="M 199.564 188.223C 197.775 188.223 196.141 189 195.137 190.321C 193.891 192.004 193.266 194.59 193.266 198.157C 193.266 204.661 195.439 208.118 199.564 208.118C 203.633 208.118 205.863 204.665 205.863 198.321C 205.863 194.567 205.266 192.063 203.988 190.321C 202.986 188.977 201.383 188.223 199.564 188.223zM 199.564 190.321C 202.173 190.321 203.462 192.93 203.462 198.098C 203.462 203.563 202.199 206.118 199.508 206.118C 196.954 206.118 195.665 203.454 195.665 198.18C 195.665 192.907 196.954 190.321 199.564 190.321z"/>
<path style="stroke:none; fill-rule:evenodd; fill:#a45555" d="M 212.598 188.922C 210.064 188.922 207.965 191.016 207.965 193.571C 207.965 196.125 210.064 198.219 212.626 198.219C 215.161 198.219 217.258 196.129 217.258 193.625C 217.258 190.989 215.215 188.922 212.598 188.922zM 212.598 190.821C 214.141 190.821 215.361 192.043 215.361 193.594C 215.361 195.09 214.113 196.313 212.626 196.313C 211.111 196.313 209.863 195.063 209.863 193.567C 209.863 192.043 211.107 190.817 212.598 190.817L 212.598 190.821zM 223.723 188.223L 212.986 208.02L 214.777 208.02L 225.516 188.223L 223.723 188.223zM 225.9 198.723C 223.363 198.723 221.266 200.821 221.266 203.356C 221.266 205.918 223.363 208.016 225.926 208.016C 228.434 208.016 230.564 205.918 230.564 203.411C 230.564 200.793 228.516 198.723 225.9 198.723zM 225.9 200.622C 227.443 200.622 228.661 201.852 228.661 203.411C 228.661 204.887 227.419 206.118 225.926 206.118C 224.411 206.118 223.165 204.887 223.165 203.356C 223.165 201.852 224.406 200.622 225.9 200.622z"/>
<path style="stroke:none; fill-rule:evenodd; fill:#a45555" d="M 233.904 213.286C 236.637 209.727 238.363 204.786 238.363 200.52C 238.363 196.231 236.641 191.286 233.904 187.723L 232.4 187.723C 234.818 191.61 236.165 196.172 236.165 200.52C 236.165 204.836 234.82 209.426 232.4 213.286L 233.904 213.286z"/>
<path style="stroke:none; fill-rule:evenodd; fill:#a45555" d="M 31.2624 348.543C 30.4772 344.227 27.9733 342.122 23.6217 342.122C 20.9577 342.122 18.8093 342.961 17.3405 344.586C 15.5475 346.536 14.5671 349.352 14.5671 352.551C 14.5671 355.801 15.571 358.59 17.4499 360.512C 18.9694 362.082 20.9303 362.813 23.5124 362.813C 28.3522 362.813 31.071 360.211 31.6686 354.985L 29.0514 354.985C 28.8366 356.344 28.5632 357.27 28.153 358.059C 27.3366 359.692 25.6491 360.614 23.5241 360.614C 19.5749 360.614 17.0671 357.465 17.0671 352.52C 17.0671 347.442 19.4616 344.317 23.3053 344.317C 24.9108 344.317 26.4108 344.801 27.2272 345.559C 27.9616 346.235 28.3717 347.075 28.6686 348.536L 31.2624 348.543z"/>
<path style="stroke:none; fill-rule:evenodd; fill:#a45555" d="M 46.8835 342.422C 44.1725 345.981 42.4655 350.926 42.4655 355.192C 42.4655 359.481 44.1725 364.426 46.8835 367.985L 48.3717 367.985C 45.9889 364.102 44.6608 359.54 44.6608 355.192C 44.6608 350.875 45.985 346.286 48.3717 342.422L 46.8835 342.422z"/>
<path style="stroke:none; fill-rule:evenodd; fill:#a45555" d="M 63.5632 342.922L 50.6647 342.922L 50.6647 345.321L 61.0827 345.321C 56.485 351.868 54.61 355.891 53.1647 362.219L 55.7194 362.219C 56.778 356.043 59.1999 350.735 63.5553 344.938L 63.5632 342.922z"/>
<path style="stroke:none; fill-rule:evenodd; fill:#a45555" d="M 72.0632 342.922C 70.2741 342.922 68.6413 343.7 67.6374 345.02C 66.3913 346.704 65.7663 349.29 65.7663 352.856C 65.7663 359.36 67.9382 362.817 72.0632 362.817C 76.1335 362.817 78.3639 359.364 78.3639 353.02C 78.3639 349.266 77.7663 346.762 76.4889 345.02C 75.485 343.676 73.8835 342.922 72.0632 342.922zM 72.0632 345.02C 74.6725 345.02 75.9616 347.629 75.9616 352.797C 75.9616 358.262 74.6999 360.817 72.0085 360.817C 69.4538 360.817 68.1647 358.153 68.1647 352.879C 68.1647 347.606 69.4538 345.02 72.0632 345.02z"/>
<path style="stroke:none; fill-rule:evenodd; fill:#a45555" d="M 85.1999 343.622C 82.6647 343.622 80.5671 345.715 80.5671 348.27C 80.5671 350.825 82.6647 352.918 85.2272 352.918C 87.7624 352.918 89.86 350.829 89.86 348.325C 89.86 345.688 87.8171 343.622 85.1999 343.622zM 85.1999 345.52C 86.7428 345.52 87.9616 346.743 87.9616 348.293C 87.9616 349.79 86.7155 351.012 85.2272 351.012C 83.7116 351.012 82.4655 349.762 82.4655 348.266C 82.4655 346.743 83.7077 345.516 85.1999 345.516L 85.1999 345.52zM 96.3205 342.922L 85.5827 362.719L 87.3757 362.719L 98.1135 342.922L 96.3205 342.922zM 98.5005 353.422C 95.9655 353.422 93.8675 355.52 93.8675 358.055C 93.8675 360.618 95.9655 362.715 98.5275 362.715C 101.035 362.715 103.164 360.618 103.164 358.11C 103.164 355.493 101.117 353.422 98.5005 353.422zM 98.5005 355.325C 100.043 355.325 101.262 356.555 101.262 358.114C 101.262 359.59 100.02 360.821 98.5275 360.821C 97.0125 360.821 95.7665 359.59 95.7665 358.059C 95.7665 356.555 97.0085 355.325 98.5005 355.325z"/>
<path style="stroke:none; fill-rule:evenodd; fill:#a45555" d="M 106.403 367.985C 109.137 364.426 110.863 359.485 110.863 355.219C 110.863 350.93 109.141 345.985 106.403 342.422L 104.899 342.422C 107.317 346.309 108.664 350.872 108.664 355.219C 108.664 359.536 107.32 364.125 104.899 367.985L 106.403 367.985z"/>
<path style="stroke:none; fill-rule:evenodd; fill:#a45555" d="M 144.665 362.223L 152.298 362.223C 157.294 362.223 160.363 358.477 160.363 352.313C 160.363 346.176 157.32 342.426 152.298 342.426L 144.665 342.426L 144.665 362.223zM 147.165 360.02L 147.165 344.622L 151.857 344.622C 155.786 344.622 157.861 347.266 157.861 352.336C 157.861 357.348 155.786 360.02 151.857 360.02L 147.165 360.02z"/>
<path style="stroke:none; fill-rule:evenodd; fill:#a45555" d="M 175.883 342.422C 173.173 345.981 171.465 350.926 171.465 355.192C 171.465 359.481 173.173 364.426 175.883 367.985L 177.372 367.985C 174.988 364.102 173.661 359.54 173.661 355.192C 173.661 350.875 174.986 346.286 177.372 342.422L 175.883 342.422z"/>
<path style="stroke:none; fill-rule:evenodd; fill:#a45555" d="M 184.473 353.321L 185.775 353.321C 188.404 353.321 189.758 354.52 189.758 356.84C 189.758 359.27 188.266 360.715 185.766 360.715C 183.161 360.715 181.883 359.415 181.723 356.618L 179.337 356.618C 179.443 358.161 179.715 359.161 180.173 360.028C 181.145 361.868 183.04 362.813 185.665 362.813C 189.613 362.813 192.156 360.45 192.156 356.805C 192.156 354.36 191.223 353 188.954 352.211C 190.755 351.508 191.656 350.149 191.656 348.219C 191.656 344.907 189.454 342.918 185.777 342.918C 181.887 342.918 179.818 345.047 179.738 349.165L 182.145 349.165C 182.169 347.993 182.281 347.336 182.583 346.739C 183.13 345.676 184.333 345.02 185.837 345.02C 187.969 345.02 189.255 346.27 189.255 348.305C 189.255 349.661 188.762 350.477 187.689 350.911C 187.027 351.18 186.176 351.29 184.469 351.317L 184.473 353.321z"/>
<path style="stroke:none; fill-rule:evenodd; fill:#a45555" d="M 201.064 342.922C 199.275 342.922 197.641 343.7 196.637 345.02C 195.391 346.704 194.766 349.29 194.766 352.856C 194.766 359.36 196.939 362.817 201.064 362.817C 205.133 362.817 207.363 359.364 207.363 353.02C 207.363 349.266 206.766 346.762 205.488 345.02C 204.486 343.676 202.883 342.922 201.064 342.922zM 201.064 345.02C 203.673 345.02 204.962 347.629 204.962 352.797C 204.962 358.262 203.699 360.817 201.008 360.817C 198.454 360.817 197.165 358.153 197.165 352.879C 197.165 347.606 198.454 345.02 201.064 345.02z"/>
<path style="stroke:none; fill-rule:evenodd; fill:#a45555" d="M 214.098 343.622C 211.564 343.622 209.465 345.715 209.465 348.27C 209.465 350.825 211.564 352.918 214.126 352.918C 216.661 352.918 218.758 350.829 218.758 348.325C 218.758 345.688 216.715 343.622 214.098 343.622zM 214.098 345.52C 215.641 345.52 216.861 346.743 216.861 348.293C 216.861 349.79 215.613 351.012 214.126 351.012C 212.611 351.012 211.363 349.762 211.363 348.266C 211.363 346.743 212.607 345.516 214.098 345.516L 214.098 345.52zM 225.223 342.922L 214.486 362.719L 216.277 362.719L 227.016 342.922L 225.223 342.922zM 227.4 353.422C 224.863 353.422 222.766 355.52 222.766 358.055C 222.766 360.618 224.863 362.715 227.426 362.715C 229.934 362.715 232.064 360.618 232.064 358.11C 232.064 355.493 230.016 353.422 227.4 353.422zM 227.4 355.325C 228.943 355.325 230.161 356.555 230.161 358.114C 230.161 359.59 228.919 360.821 227.426 360.821C 225.911 360.821 224.665 359.59 224.665 358.059C 224.665 356.555 225.906 355.325 227.4 355.325z"/>
<path style="stroke:none; fill-rule:evenodd; fill:#a45555" d="M 235.404 367.985C 238.137 364.426 239.863 359.485 239.863 355.219C 239.863 350.93 238.141 345.985 235.404 342.422L 233.9 342.422C 236.318 346.309 237.665 350.872 237.665 355.219C 237.665 359.536 236.32 364.125 233.9 367.985L 235.404 367.985z"/>
<path style="stroke:none; fill-rule:evenodd; fill:#a45555" d="M 18.2624 500.723L 29.0319 500.723L 29.0319 498.524L 18.2624 498.524L 18.2624 492.125L 29.4616 492.125L 29.4616 489.926L 15.7624 489.926L 15.7624 509.723L 29.9616 509.723L 29.9616 507.524L 18.2624 507.524L 18.2624 500.723z"/>
<path style="stroke:none; fill-rule:evenodd; fill:#a45555" d="M 45.3835 489.922C 42.6725 493.481 40.9655 498.426 40.9655 502.692C 40.9655 506.981 42.6725 511.926 45.3835 515.485L 46.8717 515.485C 44.4889 511.602 43.1608 507.04 43.1608 502.692C 43.1608 498.375 44.485 493.786 46.8717 489.922L 45.3835 489.922z"/>
<path style="stroke:none; fill-rule:evenodd; fill:#a45555" d="M 61.5046 495.52C 61.0436 492.325 58.9811 490.422 56.0553 490.422C 53.9421 490.422 52.0436 491.454 50.9069 493.168C 49.7155 495.043 49.1725 497.407 49.1725 500.915C 49.1725 504.149 49.6569 506.215 50.7897 507.926C 51.8132 509.473 53.4889 510.317 55.5983 510.317C 59.2428 510.317 61.8678 507.602 61.8678 503.829C 61.8678 500.247 59.4303 497.719 55.9889 497.719C 54.0944 497.719 52.6022 498.434 51.571 499.817C 51.5944 495.125 53.1217 492.516 55.8717 492.516C 57.5593 492.516 58.7272 493.61 59.11 495.516L 61.5046 495.52zM 55.7116 499.825C 58.0202 499.825 59.4616 501.43 59.4616 504.024C 59.4616 506.45 57.8327 508.223 55.6296 508.223C 53.403 508.223 51.7194 506.372 51.7194 503.887C 51.7194 501.489 53.3483 499.825 55.7116 499.825z"/>
<path style="stroke:none; fill-rule:evenodd; fill:#a45555" d="M 70.5632 490.422C 68.7741 490.422 67.1413 491.2 66.1374 492.52C 64.8913 494.204 64.2663 496.79 64.2663 500.356C 64.2663 506.86 66.4382 510.317 70.5632 510.317C 74.6335 510.317 76.8639 506.864 76.8639 500.52C 76.8639 496.766 76.2663 494.262 74.9889 492.52C 73.985 491.176 72.3835 490.422 70.5632 490.422zM 70.5632 492.52C 73.1725 492.52 74.4616 495.129 74.4616 500.297C 74.4616 505.762 73.1999 508.317 70.5085 508.317C 67.9538 508.317 66.6647 505.653 66.6647 500.379C 66.6647 495.106 67.9538 492.52 70.5632 492.52z"/>
<path style="stroke:none; fill-rule:evenodd; fill:#a45555" d="M 83.6999 491.122C 81.1647 491.122 79.0671 493.215 79.0671 495.77C 79.0671 498.325 81.1647 500.418 83.7272 500.418C 86.2624 500.418 88.36 498.329 88.36 495.825C 88.36 493.188 86.3171 491.122 83.6999 491.122zM 83.6999 493.02C 85.2428 493.02 86.4616 494.243 86.4616 495.793C 86.4616 497.29 85.2155 498.512 83.7272 498.512C 82.2116 498.512 80.9655 497.262 80.9655 495.766C 80.9655 494.243 82.2077 493.016 83.6999 493.016L 83.6999 493.02zM 94.8205 490.422L 84.0827 510.219L 85.8757 510.219L 96.6135 490.422L 94.8205 490.422zM 97.0005 500.922C 94.4655 500.922 92.3675 503.02 92.3675 505.555C 92.3675 508.118 94.4655 510.215 97.0275 510.215C 99.5355 510.215 101.664 508.118 101.664 505.61C 101.664 502.993 99.6175 500.922 97.0005 500.922zM 97.0005 502.825C 98.5435 502.825 99.7625 504.055 99.7625 505.614C 99.7625 507.09 98.5205 508.321 97.0275 508.321C 95.5125 508.321 94.2665 507.09 94.2665 505.559C 94.2665 504.055 95.5085 502.825 97.0005 502.825z"/>
<path style="stroke:none; fill-rule:evenodd; fill:#a45555" d="M 104.903 515.485C 107.637 511.926 109.363 506.985 109.363 502.719C 109.363 498.43 107.641 493.485 104.903 489.922L 103.399 489.922C 105.817 493.809 107.164 498.372 107.164 502.719C 107.164 507.036 105.82 511.625 103.399 515.485L 104.903 515.485z"/>
<path style="stroke:none; fill-rule:evenodd; fill:#a45555" d="M 147.262 500.723L 156.699 500.723L 156.699 498.524L 147.262 498.524L 147.262 492.125L 157.962 492.125L 157.962 489.926L 144.665 489.926L 144.665 509.723L 147.262 509.723L 147.262 500.723z"/>
<path style="stroke:none; fill-rule:evenodd; fill:#a45555" d="M 172.781 489.922C 170.07 493.481 168.363 498.426 168.363 502.692C 168.363 506.981 170.07 511.926 172.781 515.485L 174.27 515.485C 171.887 511.602 170.559 507.04 170.559 502.692C 170.559 498.375 171.883 493.786 174.27 489.922L 172.781 489.922z"/>
<path style="stroke:none; fill-rule:evenodd; fill:#a45555" d="M 184.363 505.122L 184.363 509.719L 186.762 509.719L 186.762 505.122L 189.598 505.122L 189.598 503.024L 186.762 503.024L 186.762 490.426L 184.992 490.426L 176.227 502.586L 176.227 505.122L 184.363 505.122zM 184.363 503.02L 178.32 503.02L 184.363 494.524L 184.363 503.02z"/>
<path style="stroke:none; fill-rule:evenodd; fill:#a45555" d="M 198.064 490.422C 196.275 490.422 194.641 491.2 193.637 492.52C 192.391 494.204 191.766 496.79 191.766 500.356C 191.766 506.86 193.939 510.317 198.064 510.317C 202.133 510.317 204.363 506.864 204.363 500.52C 204.363 496.766 203.766 494.262 202.488 492.52C 201.486 491.176 199.883 490.422 198.064 490.422zM 198.064 492.52C 200.673 492.52 201.962 495.129 201.962 500.297C 201.962 505.762 200.699 508.317 198.008 508.317C 195.454 508.317 194.165 505.653 194.165 500.379C 194.165 495.106 195.454 492.52 198.064 492.52z"/>
<path style="stroke:none; fill-rule:evenodd; fill:#a45555" d="M 211.098 491.122C 208.564 491.122 206.465 493.215 206.465 495.77C 206.465 498.325 208.564 500.418 211.126 500.418C 213.661 500.418 215.758 498.329 215.758 495.825C 215.758 493.188 213.715 491.122 211.098 491.122zM 211.098 493.02C 212.641 493.02 213.861 494.243 213.861 495.793C 213.861 497.29 212.613 498.512 211.126 498.512C 209.611 498.512 208.363 497.262 208.363 495.766C 208.363 494.243 209.607 493.016 211.098 493.016L 211.098 493.02zM 222.223 490.422L 211.486 510.219L 213.277 510.219L 224.016 490.422L 222.223 490.422zM 224.4 500.922C 221.863 500.922 219.766 503.02 219.766 505.555C 219.766 508.118 221.863 510.215 224.426 510.215C 226.934 510.215 229.064 508.118 229.064 505.61C 229.064 502.993 227.016 500.922 224.4 500.922zM 224.4 502.825C 225.943 502.825 227.161 504.055 227.161 505.614C 227.161 507.09 225.919 508.321 224.426 508.321C 222.911 508.321 221.665 507.09 221.665 505.559C 221.665 504.055 222.906 502.825 224.4 502.825z"/>
<path style="stroke:none; fill-rule:evenodd; fill:#a45555" d="M 232.404 515.485C 235.137 511.926 236.863 506.985 236.863 502.719C 236.863 498.43 235.141 493.485 232.404 489.922L 230.9 489.922C 233.318 493.809 234.665 498.372 234.665 502.719C 234.665 507.036 233.32 511.625 230.9 515.485L 232.404 515.485z"/>
<path style="stroke:none; fill-rule:evenodd; fill:#a45555" d="M 45.6647 13.7231L 51.903 13.7231C 53.4538 13.7231 54.6803 13.2621 55.7428 12.3131C 56.9382 11.2311 57.4577 9.9541 57.4577 8.13708C 57.4577 4.42206 55.2546 2.3291 51.3405 2.3291L 43.1608 2.3291L 43.1608 22.1251L 45.6608 22.1251L 45.6647 13.7231zM 45.6647 11.5201L 45.6647 4.52008L 50.9733 4.52008C 53.4069 4.52008 54.86 5.83209 54.86 8.02008C 54.86 10.2041 53.4108 11.5161 50.9733 11.5161L 45.6647 11.5201z"/>
<path style="stroke:none; fill-rule:evenodd; fill:#a45555" d="M 60.6647 7.83209L 60.6647 22.1181L 62.9616 22.1181L 62.9616 14.7041C 62.9616 12.6611 63.4733 11.3251 64.5514 10.5321C 65.2507 10.0161 65.9264 9.85205 67.4889 9.82507L 67.4889 7.50806C 67.11 7.45807 66.9225 7.43005 66.6257 7.43005C 65.1686 7.43005 64.0632 8.30109 62.7663 10.4301L 62.7663 7.84009L 60.6647 7.83209z"/>
<path style="stroke:none; fill-rule:evenodd; fill:#a45555" d="M 75.235 7.42206C 71.2663 7.42206 68.8639 10.2781 68.8639 15.0711C 68.8639 19.8601 71.2389 22.7191 75.2624 22.7191C 79.2311 22.7191 81.6608 19.8641 81.6608 15.1801C 81.6608 10.2541 79.3132 7.42206 75.235 7.42206zM 75.2624 9.52008C 77.8288 9.52008 79.36 11.6141 79.36 15.1491C 79.36 18.4931 77.7741 20.6141 75.2624 20.6141C 72.7233 20.6141 71.1647 18.5201 71.1647 15.0671C 71.1647 11.6411 72.7194 9.52008 75.2624 9.52008z"/>
<path style="stroke:none; fill-rule:evenodd; fill:#a45555" d="M 84.4655 2.32111L 84.4655 22.1181L 86.4655 22.1181L 86.4655 20.2971C 87.5514 21.9381 88.9889 22.7191 90.9695 22.7191C 94.7155 22.7191 97.1605 19.6451 97.1605 14.9071C 97.1605 10.2821 94.8205 7.42206 91.0675 7.42206C 89.11 7.42206 87.7233 8.16809 86.6647 9.80109L 86.6647 2.32111L 84.4655 2.32111zM 90.6569 9.58606C 93.1845 9.58606 94.8135 11.7861 94.8135 15.1841C 94.8135 18.4181 93.1295 20.6221 90.6569 20.6221C 88.2663 20.6221 86.6882 18.4501 86.6882 15.1021C 86.6882 11.7581 88.2624 9.58209 90.6569 9.58209L 90.6569 9.58606z"/>
<path style="stroke:none; fill-rule:evenodd; fill:#a45555" d="M 112.61 20.7901C 112.375 20.8211 112.27 20.8211 112.141 20.8211C 111.387 20.8211 110.969 20.4151 110.969 19.7081L 110.969 11.3211C 110.969 8.7901 109.11 7.42609 105.582 7.42609C 103.504 7.42609 101.781 8.02808 100.824 9.09808C 100.172 9.83606 99.8955 10.6611 99.8405 12.0861L 102.129 12.0861C 102.317 10.3211 103.356 9.52411 105.481 9.52411C 107.524 9.52411 108.668 10.2861 108.668 11.6491L 108.668 12.2471C 108.668 13.1961 108.098 13.6061 106.313 13.8211C 103.117 14.2271 102.629 14.3361 101.766 14.6881C 100.117 15.3681 99.2775 16.6451 99.2775 18.4971C 99.2775 21.0791 101.063 22.7111 103.93 22.7111C 105.715 22.7111 107.149 22.0941 108.746 20.6451C 108.906 22.0671 109.61 22.7111 111.07 22.7111C 111.527 22.7111 111.879 22.6611 112.613 22.4731L 112.61 20.7901zM 108.664 17.6181C 108.664 18.3721 108.445 18.8291 107.766 19.4541C 106.84 20.2901 105.719 20.7191 104.383 20.7191C 102.61 20.7191 101.574 19.8831 101.574 18.4541C 101.574 16.9691 102.582 16.2151 105.012 15.8641C 107.414 15.5431 107.903 15.4341 108.668 15.0821L 108.664 17.6181z"/>
<path style="stroke:none; fill-rule:evenodd; fill:#a45555" d="M 114.664 2.32111L 114.664 22.1181L 116.664 22.1181L 116.664 20.2971C 117.75 21.9381 119.188 22.7191 121.168 22.7191C 124.914 22.7191 127.36 19.6451 127.36 14.9071C 127.36 10.2821 125.02 7.42206 121.266 7.42206C 119.309 7.42206 117.922 8.16809 116.863 9.80109L 116.863 2.32111L 114.664 2.32111zM 120.86 9.58606C 123.387 9.58606 125.016 11.7861 125.016 15.1841C 125.016 18.4181 123.332 20.6221 120.86 20.6221C 118.469 20.6221 116.891 18.4501 116.891 15.1021C 116.891 11.7581 118.465 9.58209 120.86 9.58209L 120.86 9.58606z"/>
<path style="stroke:none; fill-rule:evenodd; fill:#a45555" d="M 132.465 7.92206L 130.169 7.92206L 130.169 22.1221L 132.465 22.1221L 132.465 7.92206zM 132.465 2.32111L 130.169 2.32111L 130.169 5.15308L 132.465 5.15308L 132.465 2.32111z"/>
<path style="stroke:none; fill-rule:evenodd; fill:#a45555" d="M 136.165 22.1221L 138.462 22.1221L 138.462 2.32507L 136.165 2.32507L 136.165 22.1221z"/>
<path style="stroke:none; fill-rule:evenodd; fill:#a45555" d="M 144.465 7.92206L 142.169 7.92206L 142.169 22.1221L 144.465 22.1221L 144.465 7.92206zM 144.465 2.32111L 142.169 2.32111L 142.169 5.15308L 144.465 5.15308L 144.465 2.32111z"/>
<path style="stroke:none; fill-rule:evenodd; fill:#a45555" d="M 158.372 11.8441C 158.344 9.01605 156.501 7.42206 153.219 7.42206C 149.911 7.42206 147.77 9.13708 147.77 11.7781C 147.77 14.0081 148.906 15.0711 152.262 15.8831L 154.372 16.3991C 155.939 16.7781 156.564 17.3481 156.564 18.3831C 156.564 19.7151 155.236 20.6141 153.255 20.6141C 152.036 20.6141 151.005 20.2661 150.434 19.6761C 150.083 19.2741 149.919 18.8721 149.786 17.8751L 147.4 17.8751C 147.505 21.1451 149.34 22.7151 153.04 22.7151C 156.602 22.7151 158.867 20.9501 158.867 18.2001C 158.867 16.0791 157.676 14.9071 154.861 14.2271L 152.695 13.7111C 150.857 13.2781 150.07 12.6801 150.07 11.6721C 150.07 10.3681 151.242 9.52411 153.102 9.52411C 154.93 9.52411 155.915 10.3251 155.969 11.8441L 158.372 11.8441z"/>
<path style="stroke:none; fill-rule:evenodd; fill:#a45555" d="M 166.965 7.92206L 164.669 7.92206L 164.669 3.96106L 162.372 3.96106L 162.372 7.92206L 160.473 7.92206L 160.473 9.71906L 162.372 9.71906L 162.372 20.4651C 162.372 21.9031 163.348 22.7151 165.117 22.7151C 165.661 22.7151 166.204 22.6651 166.969 22.5281L 166.969 20.6491C 166.676 20.7001 166.329 20.7151 165.904 20.7151C 164.943 20.7151 164.676 20.4461 164.676 19.4461L 164.676 9.71906L 166.973 9.71906L 166.965 7.92206z"/>
<path style="stroke:none; fill-rule:evenodd; fill:#a45555" d="M 171.665 7.92206L 169.367 7.92206L 169.367 22.1221L 171.665 22.1221L 171.665 7.92206zM 171.665 2.32111L 169.367 2.32111L 169.367 5.15308L 171.665 5.15308L 171.665 2.32111z"/>
<path style="stroke:none; fill-rule:evenodd; fill:#a45555" d="M 186.469 12.6611C 186.361 11.2471 186.064 10.3321 185.525 9.52411C 184.551 8.20807 182.848 7.42609 180.872 7.42609C 177.059 7.42609 174.57 10.4731 174.57 15.2111C 174.57 19.8091 177.005 22.7231 180.844 22.7231C 184.223 22.7231 186.363 20.6961 186.633 17.2311L 184.348 17.2311C 183.969 19.4931 182.798 20.6221 180.867 20.6221C 178.367 20.6221 176.867 18.5821 176.867 15.2111C 176.867 11.6491 178.337 9.52808 180.809 9.52808C 182.712 9.52808 183.911 10.6571 184.18 12.6651L 186.469 12.6611z"/>
<path style="stroke:none; fill-rule:evenodd; fill:#a45555" d="M 79.5632 35.3211C 79.5358 31.4651 76.8717 29.2231 72.3053 29.2231C 67.9577 29.2231 65.2663 31.4461 65.2663 35.0281C 65.2663 37.4381 66.5475 38.9581 69.1647 39.6371L 74.1022 40.9381C 76.61 41.5861 77.7585 42.5901 77.7585 44.1371C 77.7585 45.1921 77.1843 46.2781 76.3366 46.8751C 75.5475 47.4181 74.2897 47.7151 72.6803 47.7151C 70.5241 47.7151 69.0514 47.2001 68.0944 46.0591C 67.36 45.1921 67.0319 44.2391 67.0593 43.0121L 64.6608 43.0121C 64.6843 44.8251 65.0397 46.0201 65.8288 47.1021C 67.1882 48.9421 69.4733 49.9181 72.4967 49.9181C 74.8639 49.9181 76.7975 49.3791 78.0749 48.4031C 79.4069 47.3481 80.2546 45.5861 80.2546 43.8791C 80.2546 41.4421 78.7272 39.6531 76.0241 38.9181L 71.0319 37.5941C 68.6335 36.9461 67.7585 36.1881 67.7585 34.6681C 67.7585 32.6651 69.528 31.3321 72.196 31.3321C 75.3522 31.3321 77.1257 32.7621 77.153 35.3291L 79.5632 35.3211z"/>
<path style="stroke:none; fill-rule:evenodd; fill:#a45555" d="M 95.4655 42.9221C 95.4655 40.7471 95.3015 39.4421 94.8955 38.3791C 93.9695 36.0401 91.7895 34.6251 89.1178 34.6251C 85.1374 34.6251 82.5749 37.6721 82.5749 42.3561C 82.5749 47.0361 85.0436 49.9221 89.0397 49.9221C 92.2975 49.9221 94.5515 48.0861 95.1215 45.0001L 92.8245 45.0001C 92.1955 46.8521 90.9147 47.8211 89.0827 47.8211C 87.6374 47.8211 86.4069 47.1681 85.6413 45.9731C 85.0983 45.1611 84.9069 44.3401 84.8796 42.9261L 95.4655 42.9221zM 84.9694 41.1101C 85.1569 38.4731 86.7624 36.7621 89.0475 36.7621C 91.2745 36.7621 92.9885 38.6101 92.9885 40.9461C 92.9885 40.9971 92.9885 41.0511 92.9655 41.1061L 84.9694 41.1101z"/>
<path style="stroke:none; fill-rule:evenodd; fill:#a45555" d="M 98.3635 49.3211L 100.66 49.3211L 100.66 29.5241L 98.3635 29.5241L 98.3635 49.3211z"/>
<path style="stroke:none; fill-rule:evenodd; fill:#a45555" d="M 116.664 42.9221C 116.664 40.7471 116.5 39.4421 116.094 38.3791C 115.168 36.0401 112.988 34.6251 110.317 34.6251C 106.336 34.6251 103.774 37.6721 103.774 42.3561C 103.774 47.0361 106.242 49.9221 110.238 49.9221C 113.496 49.9221 115.75 48.0861 116.32 45.0001L 114.024 45.0001C 113.395 46.8521 112.113 47.8211 110.281 47.8211C 108.836 47.8211 107.606 47.1681 106.84 45.9731C 106.297 45.1611 106.106 44.3401 106.078 42.9261L 116.664 42.9221zM 106.168 41.1101C 106.356 38.4731 107.961 36.7621 110.246 36.7621C 112.473 36.7621 114.188 38.6101 114.188 40.9461C 114.188 40.9971 114.188 41.0511 114.164 41.1061L 106.168 41.1101z"/>
<path style="stroke:none; fill-rule:evenodd; fill:#a45555" d="M 130.57 39.8601C 130.462 38.4461 130.165 37.5321 129.626 36.7231C 128.654 35.4071 126.949 34.6251 124.973 34.6251C 121.16 34.6251 118.672 37.6721 118.672 42.4111C 118.672 47.0081 121.106 49.9221 124.945 49.9221C 128.324 49.9221 130.465 47.8951 130.736 44.4301L 128.449 44.4301C 128.07 46.6921 126.899 47.8211 124.969 47.8211C 122.469 47.8211 120.969 45.7821 120.969 42.4111C 120.969 38.8481 122.438 36.7271 124.91 36.7271C 126.813 36.7271 128.012 37.8561 128.281 39.8641L 130.57 39.8601z"/>
<path style="stroke:none; fill-rule:evenodd; fill:#a45555" d="M 138.262 35.1221L 135.965 35.1221L 135.965 31.1611L 133.669 31.1611L 133.669 35.1221L 131.77 35.1221L 131.77 36.9181L 133.669 36.9181L 133.669 47.6651C 133.669 49.1021 134.645 49.9151 136.415 49.9151C 136.958 49.9151 137.501 49.8641 138.266 49.7271L 138.266 47.8481C 137.973 47.8991 137.626 47.9151 137.199 47.9151C 136.238 47.9151 135.973 47.6451 135.973 46.6451L 135.973 36.9181L 138.27 36.9181L 138.262 35.1221z"/>
<path style="stroke:none; fill-rule:evenodd; fill:#a45555" d="M 142.965 35.1221L 140.669 35.1221L 140.669 49.3211L 142.965 49.3211L 142.965 35.1221zM 142.965 29.5201L 140.669 29.5201L 140.669 32.3521L 142.965 32.3521L 142.965 29.5201z"/>
<path style="stroke:none; fill-rule:evenodd; fill:#a45555" d="M 152.337 34.6221C 148.367 34.6221 145.965 37.4771 145.965 42.2701C 145.965 47.0591 148.34 49.9181 152.363 49.9181C 156.333 49.9181 158.762 47.0631 158.762 42.3791C 158.762 37.4541 156.415 34.6221 152.337 34.6221zM 152.361 36.7231C 154.926 36.7231 156.458 38.8171 156.458 42.3521C 156.458 45.6961 154.872 47.8171 152.361 47.8171C 149.82 47.8171 148.262 45.7231 148.262 42.2701C 148.262 38.8441 149.818 36.7231 152.361 36.7231z"/>
<path style="stroke:none; fill-rule:evenodd; fill:#a45555" d="M 161.965 35.0321L 161.965 49.3171L 164.262 49.3171L 164.262 41.4421C 164.262 38.5281 165.781 36.6181 168.122 36.6181C 169.915 36.6181 171.059 37.7081 171.059 39.4221L 171.059 49.3131L 173.357 49.3131L 173.357 38.5161C 173.357 36.1451 171.579 34.6181 168.818 34.6181C 166.684 34.6181 165.318 35.4341 164.059 37.4261L 164.059 35.0281L 161.965 35.0321z"/>
</g>
</svg>