<?xml version="1.0" encoding="ISO-8859-1" standalone="yes"?>
<svg width="342" height="220.807">
  <defs> 
    <marker id="ArrowEnd" viewBox="0 0 10 10" refX="0" refY="5" 
     markerUnits="strokeWidth" 
     markerWidth="4" 
     markerHeight="3" 
     orient="auto"> 
        <path d="M 0 0 L 10 5 L 0 10 z" /> 
    </marker>
    <marker id="ArrowStart" viewBox="0 0 10 10" refX="10" refY="5" 
     markerUnits="strokeWidth" 
     markerWidth="4" 
     markerHeight="3" 
     orient="auto"> 
        <path d="M 10 0 L 0 5 L 10 10 z" /> 
    </marker> </defs>
<g>
<path style="stroke:none; fill-rule:evenodd; fill:#ffffff" d="M 6.20082 217.611L 341.295 217.611L 341.295 5.25513L 6.20082 5.25513L 6.20082 217.611z"/>
<path style="stroke:#ffffff; stroke-width:0.10000000000000001; fill:none" d="M 6.20082 217.611L 341.295 217.611L 341.295 5.25513L 6.20082 5.25513L 6.20082 217.611z"/>
<path style="stroke:#000000; stroke-width:1.91212; fill:none" d="M 247.599 39.1771C 247.599 23.0751 206.295 10.0211 155.342 10.0211C 104.388 10.0211 63.0838 23.0751 63.0838 39.1771C 63.0838 55.2781 104.388 68.3331 155.342 68.3331C 206.295 68.3331 247.599 55.2781 247.599 39.1771"/>
<path style="stroke:none; fill-rule:evenodd; fill:#000000" d="M 280.775 74.3331C 280.775 73.4151 280.709 72.8641 280.537 72.4191C 280.15 71.4351 279.236 70.8371 278.119 70.8371C 276.455 70.8371 275.381 72.1301 275.381 74.1181C 275.381 76.1071 276.416 77.3331 278.088 77.3331C 279.451 77.3331 280.396 76.5401 280.635 75.2121L 279.681 75.2121C 279.424 76.0131 278.888 76.4351 278.127 76.4351C 277.525 76.4351 277.017 76.1571 276.697 75.6421C 276.471 75.2941 276.392 74.9421 276.381 74.3371L 280.775 74.3331zM 276.353 73.5681C 276.431 72.4581 277.107 71.7321 278.072 71.7321C 279.01 71.7321 279.732 72.5091 279.732 73.4971C 279.732 73.5171 279.732 73.5401 279.724 73.5641L 276.353 73.5681z"/>
<path style="stroke:none; fill-rule:evenodd; fill:#000000" d="M 284.525 73.9311L 286.541 71.0361L 285.463 71.0361L 284.021 73.2041L 282.576 71.0361L 281.486 71.0361L 283.494 73.9781L 281.373 77.0321L 282.463 77.0321L 283.986 74.7281L 285.486 77.0321L 286.596 77.0321L 284.525 73.9311z"/>
<path style="stroke:none; fill-rule:evenodd; fill:#000000" d="M 292.377 73.0401C 292.334 72.4501 292.209 72.0711 291.978 71.7351C 291.572 71.1731 290.853 70.8371 290.025 70.8371C 288.424 70.8371 287.377 72.1301 287.377 74.1421C 287.377 76.0951 288.396 77.3331 290.014 77.3331C 291.431 77.3331 292.33 76.4621 292.447 74.9701L 291.494 74.9701C 291.338 75.9461 290.849 76.4351 290.045 76.4351C 289.002 76.4351 288.381 75.5711 288.381 74.1461C 288.381 72.6381 288.99 71.7391 290.025 71.7391C 290.818 71.7391 291.318 72.2081 291.428 73.0441L 292.377 73.0401z"/>
<path style="stroke:none; fill-rule:evenodd; fill:#000000" d="M 294.373 71.0321L 293.373 71.0321L 293.373 77.0321L 294.373 77.0321L 294.373 71.0321zM 294.373 68.6301L 293.373 68.6301L 293.373 69.8681L 294.373 69.8681L 294.373 68.6301z"/>
<path style="stroke:none; fill-rule:evenodd; fill:#000000" d="M 298.174 71.0321L 297.275 71.0321L 297.275 69.3721L 296.275 69.3721L 296.275 71.0321L 295.377 71.0321L 295.377 71.8291L 296.275 71.8291L 296.275 76.3761C 296.275 76.9821 296.678 77.3251 297.408 77.3251C 297.631 77.3251 297.857 77.3021 298.17 77.2431L 298.17 76.4071C 298.056 76.4931 297.92 76.5251 297.752 76.5251C 297.377 76.5251 297.271 76.4111 297.271 75.9821L 297.271 71.8291L 298.17 71.8291L 298.174 71.0321z"/>
<path style="stroke:none; fill-rule:evenodd; fill:#000000" d="M 304.514 76.4701C 304.412 76.5281 304.365 76.5281 304.303 76.5281C 303.967 76.5281 303.779 76.3571 303.779 76.0561L 303.779 72.4891C 303.779 71.4151 303.002 70.8331 301.529 70.8331C 300.662 70.8331 299.943 71.0871 299.541 71.5361C 299.267 71.8451 299.154 72.1921 299.131 72.7941L 300.076 72.7941C 300.154 72.0641 300.58 71.7281 301.463 71.7281C 302.306 71.7281 302.779 72.0481 302.779 72.6261L 302.779 72.8801C 302.779 73.2821 302.545 73.4541 301.803 73.5481C 300.478 73.7201 300.275 73.7671 299.916 73.9151C 299.232 74.2001 298.885 74.7431 298.885 75.5281C 298.885 76.6221 299.638 77.3141 300.849 77.3141C 301.603 77.3141 302.209 77.0401 302.885 76.3961C 302.951 77.0281 303.248 77.3141 303.865 77.3141C 304.056 77.3141 304.205 77.2901 304.514 77.2081L 304.514 76.4701zM 302.775 75.1731C 302.775 75.5011 302.689 75.7041 302.408 75.9741C 302.029 76.3371 301.572 76.5281 301.025 76.5281C 300.303 76.5281 299.877 76.1651 299.877 75.5361C 299.877 74.8881 300.287 74.5561 301.279 74.4031C 302.26 74.2631 302.459 74.2161 302.771 74.0641L 302.775 75.1731z"/>
<path style="stroke:none; fill-rule:evenodd; fill:#000000" d="M 307.674 71.0321L 306.775 71.0321L 306.775 69.3721L 305.775 69.3721L 305.775 71.0321L 304.877 71.0321L 304.877 71.8291L 305.775 71.8291L 305.775 76.3761C 305.775 76.9821 306.178 77.3251 306.908 77.3251C 307.131 77.3251 307.357 77.3021 307.67 77.2431L 307.67 76.4071C 307.556 76.4931 307.42 76.5251 307.252 76.5251C 306.877 76.5251 306.771 76.4111 306.771 75.9821L 306.771 71.8291L 307.67 71.8291L 307.674 71.0321z"/>
<path style="stroke:none; fill-rule:evenodd; fill:#000000" d="M 311.111 70.8331C 309.408 70.8331 308.373 72.0481 308.373 74.0831C 308.373 76.1181 309.392 77.3331 311.123 77.3331C 312.826 77.3331 313.873 76.1221 313.873 74.1301C 313.873 72.0401 312.865 70.8371 311.111 70.8371L 311.111 70.8331zM 311.123 71.7321C 312.217 71.7321 312.873 72.6181 312.873 74.1141C 312.873 75.5281 312.197 76.4271 311.123 76.4271C 310.041 76.4271 309.373 75.5401 309.373 74.0791C 309.373 72.6301 310.037 71.7321 311.123 71.7321z"/>
<path style="stroke:none; fill-rule:evenodd; fill:#000000" d="M 315.174 71.0051L 315.174 77.0281L 316.174 77.0281L 316.174 73.8961C 316.174 73.0321 316.385 72.4701 316.834 72.1341C 317.123 71.9151 317.404 71.8491 318.053 71.8331L 318.053 70.8681C 317.896 70.8491 317.818 70.8371 317.693 70.8371C 317.084 70.8371 316.619 71.2041 316.076 72.1031L 316.076 71.0131L 315.174 71.0051z"/>
<path style="stroke:none; fill-rule:evenodd; fill:#000000" d="M 322.627 71.0321L 320.967 75.7001L 319.431 71.0321L 318.412 71.0321L 320.439 77.0871L 320.076 78.0401C 319.928 78.4661 319.713 78.6261 319.31 78.6261C 319.174 78.6261 319.014 78.5911 318.806 78.5211L 318.806 79.3801C 318.998 79.4821 319.193 79.5281 319.447 79.5281C 319.756 79.5281 320.088 79.4271 320.342 79.2431C 320.638 79.0281 320.81 78.7751 320.994 78.2941L 323.666 71.0321L 322.627 71.0321z"/>
<path style="stroke:none; fill-rule:evenodd; fill:#000000" d="M 276.576 84.4311L 275.576 84.4311L 275.576 90.4311L 276.576 90.4311L 276.576 84.4311zM 276.576 82.0321L 275.576 82.0321L 275.576 83.2711L 276.576 83.2711L 276.576 82.0321z"/>
<path style="stroke:none; fill-rule:evenodd; fill:#000000" d="M 278.174 84.4071L 278.174 90.4311L 279.174 90.4311L 279.174 87.0831C 279.174 85.8451 279.799 85.0321 280.764 85.0321C 281.502 85.0321 281.971 85.4931 281.971 86.2241L 281.971 90.4271L 282.971 90.4271L 282.971 85.8761C 282.971 84.8761 282.228 84.2321 281.068 84.2321C 280.174 84.2321 279.603 84.5751 279.076 85.4151L 279.076 84.4031L 278.174 84.4071z"/>
<path style="stroke:none; fill-rule:evenodd; fill:#000000" d="M 284.576 82.0321L 284.576 90.4311L 285.576 90.4311L 285.576 87.0831C 285.576 85.8451 286.201 85.0321 287.166 85.0321C 287.467 85.0321 287.767 85.1341 287.994 85.3101C 288.26 85.5051 288.373 85.7941 288.373 86.2241L 288.373 90.4271L 289.373 90.4271L 289.373 85.8761C 289.373 84.8641 288.654 84.2321 287.49 84.2321C 286.646 84.2321 286.135 84.4971 285.576 85.2431L 285.576 82.0321L 284.576 82.0321z"/>
<path style="stroke:none; fill-rule:evenodd; fill:#000000" d="M 291.873 84.4311L 290.873 84.4311L 290.873 90.4311L 291.873 90.4311L 291.873 84.4311zM 291.873 82.0321L 290.873 82.0321L 290.873 83.2711L 291.873 83.2711L 291.873 82.0321z"/>
<path style="stroke:none; fill-rule:evenodd; fill:#000000" d="M 293.275 82.0321L 293.275 90.4311L 294.174 90.4311L 294.174 89.6651C 294.627 90.3881 295.232 90.7321 296.068 90.7321C 297.642 90.7321 298.67 89.4271 298.67 87.4151C 298.67 85.4501 297.689 84.2351 296.119 84.2351C 295.299 84.2351 294.721 84.5481 294.275 85.2351L 294.275 82.0361L 293.275 82.0321zM 295.92 85.1421C 296.986 85.1421 297.674 86.0681 297.674 87.5051C 297.674 88.8681 296.963 89.7981 295.92 89.7981C 294.912 89.7981 294.248 88.8801 294.248 87.4701C 294.248 86.0601 294.912 85.1421 295.92 85.1421z"/>
<path style="stroke:none; fill-rule:evenodd; fill:#000000" d="M 300.775 84.4311L 299.775 84.4311L 299.775 90.4311L 300.775 90.4311L 300.775 84.4311zM 300.775 82.0321L 299.775 82.0321L 299.775 83.2711L 300.775 83.2711L 300.775 82.0321z"/>
<path style="stroke:none; fill-rule:evenodd; fill:#000000" d="M 304.474 84.4311L 303.576 84.4311L 303.576 82.7711L 302.576 82.7711L 302.576 84.4311L 301.678 84.4311L 301.678 85.2281L 302.576 85.2281L 302.576 89.7751C 302.576 90.3801 302.978 90.7241 303.709 90.7241C 303.931 90.7241 304.158 90.7001 304.471 90.6421L 304.471 89.8061C 304.357 89.8921 304.221 89.9231 304.053 89.9231C 303.678 89.9231 303.572 89.8101 303.572 89.3801L 303.572 85.2281L 304.471 85.2281L 304.474 84.4311z"/>
<path style="stroke:none; fill-rule:evenodd; fill:#000000" d="M 307.912 84.2321C 306.209 84.2321 305.174 85.4461 305.174 87.4821C 305.174 89.5171 306.193 90.7321 307.924 90.7321C 309.627 90.7321 310.674 89.5211 310.674 87.5281C 310.674 85.4391 309.666 84.2351 307.912 84.2351L 307.912 84.2321zM 307.924 85.1301C 309.017 85.1301 309.674 86.0171 309.674 87.5131C 309.674 88.9271 308.998 89.8251 307.924 89.8251C 306.842 89.8251 306.174 88.9391 306.174 87.4781C 306.174 86.0281 306.838 85.1301 307.924 85.1301z"/>
<path style="stroke:none; fill-rule:evenodd; fill:#000000" d="M 311.974 84.4071L 311.974 90.4311L 312.974 90.4311L 312.974 87.2981C 312.974 86.4351 313.185 85.8721 313.635 85.5361C 313.924 85.3181 314.205 85.2511 314.853 85.2351L 314.853 84.2711C 314.697 84.2511 314.619 84.2391 314.494 84.2391C 313.885 84.2391 313.42 84.6071 312.877 85.5051L 312.877 84.4151L 311.974 84.4071z"/>
<path style="stroke:none; fill-rule:evenodd; fill:#000000" d="M 319.428 84.4311L 317.767 89.0991L 316.232 84.4311L 315.213 84.4311L 317.24 90.4851L 316.877 91.4391C 316.728 91.8641 316.514 92.0251 316.111 92.0251C 315.974 92.0251 315.814 91.9891 315.607 91.9191L 315.607 92.7781C 315.799 92.8801 315.994 92.9271 316.248 92.9271C 316.556 92.9271 316.888 92.8251 317.142 92.6421C 317.439 92.4271 317.611 92.1731 317.795 91.6921L 320.467 84.4311L 319.428 84.4311z"/>
<path style="stroke:none; fill-rule:evenodd; fill:#ff0000" d="M 267.181 87.9891C 267.181 85.8801 265.471 84.1691 263.361 84.1691C 261.252 84.1691 259.541 85.8801 259.541 87.9891C 259.541 90.0991 261.252 91.8101 263.361 91.8101C 265.471 91.8101 267.181 90.0991 267.181 87.9891"/>
<path style="stroke:#ff0000; stroke-width:1.91212; fill:none" d="M 267.181 87.9891C 267.181 85.8801 265.471 84.1691 263.361 84.1691C 261.252 84.1691 259.541 85.8801 259.541 87.9891C 259.541 90.0991 261.252 91.8101 263.361 91.8101C 265.471 91.8101 267.181 90.0991 267.181 87.9891"/>
<path style="stroke:#ff0000; stroke-dasharray:6,3; stroke-width:1.91212; fill:none" d="M 261.447 87.9891L 242.33 87.9891"/>
<path style="stroke:#0000ff; stroke-width:1.91212; fill:none" d="M 240.412 74.6071L 267.181 74.6071"/>
<path style="stroke:#0000ff; stroke-width:1.91212; fill:none" d="M 259.537 72.6921L 267.181 74.6031L 259.537 76.5131"/>
<path style="stroke:#000000; stroke-width:0.95606000000000002; fill:none" d="M 234.678 101.798L 336.99 101.798L 336.99 63.1341L 234.678 63.1341L 234.678 101.798z"/>
<path style="stroke:none; fill-rule:evenodd; fill:#ff0000" d="M 133.111 91.0441C 133.111 88.9351 131.4 87.2241 129.291 87.2241C 127.181 87.2241 125.471 88.9351 125.471 91.0441C 125.471 93.1531 127.181 94.8641 129.291 94.8641C 131.4 94.8641 133.111 93.1531 133.111 91.0441"/>
<path style="stroke:#ff0000; stroke-width:1.91212; fill:none" d="M 133.111 91.0441C 133.111 88.9351 131.4 87.2241 129.291 87.2241C 127.181 87.2241 125.471 88.9351 125.471 91.0441C 125.471 93.1531 127.181 94.8641 129.291 94.8641C 131.4 94.8641 133.111 93.1531 133.111 91.0441"/>
<path style="stroke:none; fill-rule:evenodd; fill:#ff0000" d="M 182.83 92.9541C 182.83 90.8451 181.119 89.1341 179.01 89.1341C 176.9 89.1341 175.189 90.8451 175.189 92.9541C 175.189 95.0641 176.9 96.7751 179.01 96.7751C 181.119 96.7751 182.83 95.0641 182.83 92.9541"/>
<path style="stroke:#ff0000; stroke-width:1.91212; fill:none" d="M 182.83 92.9541C 182.83 90.8451 181.119 89.1341 179.01 89.1341C 176.9 89.1341 175.189 90.8451 175.189 92.9541C 175.189 95.0641 176.9 96.7751 179.01 96.7751C 181.119 96.7751 182.83 95.0641 182.83 92.9541"/>
<path style="stroke:none; fill-rule:evenodd; fill:#000000" d="M 104.275 32.3331L 103.178 32.3331L 103.178 40.7321L 108.377 40.7321L 108.377 39.8331L 104.279 39.8331L 104.275 32.3331z"/>
<path style="stroke:none; fill-rule:evenodd; fill:#000000" d="M 113.17 40.7321L 116.072 32.3331L 114.939 32.3331L 112.623 39.4461L 110.17 32.3331L 109.025 32.3331L 112.029 40.7321L 113.17 40.7321z"/>
<path style="stroke:none; fill-rule:evenodd; fill:#000000" d="M 120.373 39.1301L 119.576 39.1301L 119.576 44.1301L 120.373 44.1301L 120.373 39.1301zM 120.373 37.1301L 119.576 37.1301L 119.576 38.1611L 120.373 38.1611L 120.373 37.1301z"/>
<path style="stroke:#ffa400; stroke-dasharray:6,3; stroke-width:1.91212; fill:none" d="M 145.779 38.7001C 145.779 27.0871 130.373 17.6691 111.361 17.6691C 92.3528 17.6691 76.9428 27.0831 76.9428 38.7001C 76.9428 50.3141 92.3488 59.7321 111.361 59.7321C 130.369 59.7321 145.779 50.3181 145.779 38.7001"/>
<path style="stroke:#ff0000; stroke-dasharray:6,3; stroke-width:1.91212; fill:none" d="M 108.017 59.7321L 130.963 94.1501"/>
<path style="stroke:#ff0000; stroke-dasharray:6,3; stroke-width:1.91212; fill:none" d="M 199.799 59.7321L 178.767 94.1501"/>
<path style="stroke:#0000ff; stroke-width:1.91212; fill:none" d="M 44.9158 124.743L 44.9158 105.626"/>
<path style="stroke:#0000ff; stroke-width:1.91212; fill:none" d="M 43.0055 113.271L 44.9158 105.626L 46.8258 113.271"/>
<path style="stroke:#0000ff; stroke-width:1.91212; fill:none" d="M 111.842 168.724L 136.697 130.485"/>
<path style="stroke:#0000ff; stroke-width:1.91212; fill:none" d="M 130.928 135.853L 136.697 130.485L 134.135 137.939"/>
<path style="stroke:#000000; stroke-width:1.91212; fill:none" d="M 78.8568 84.5911C 78.8568 72.9781 63.4508 63.5601 44.4388 63.5601C 25.4313 63.5601 10.0211 72.9741 10.0211 84.5911C 10.0211 96.2041 25.4274 105.622 44.4388 105.622C 63.4468 105.622 78.8568 96.2081 78.8568 84.5911"/>
<path style="stroke:none; fill-rule:evenodd; fill:#000000" d="M 31.775 80.5321L 34.4781 80.5321L 34.4781 79.6341L 27.9196 79.6341L 27.9196 80.5321L 30.6774 80.5321L 30.6774 88.0321L 31.775 88.0321L 31.775 80.5321z"/>
<path style="stroke:none; fill-rule:evenodd; fill:#000000" d="M 36.3727 82.0321L 35.3727 82.0321L 35.3727 88.0321L 36.3727 88.0321L 36.3727 82.0321zM 36.3727 79.6301L 35.3727 79.6301L 35.3727 80.8681L 36.3727 80.8681L 36.3727 79.6301z"/>
<path style="stroke:none; fill-rule:evenodd; fill:#000000" d="M 38.0758 82.0051L 38.0758 88.0281L 39.0758 88.0281L 39.0758 84.2161C 39.0758 83.3371 39.7008 82.6301 40.4703 82.6301C 41.1735 82.6301 41.5719 83.0681 41.5719 83.8451L 41.5719 88.0251L 42.5719 88.0251L 42.5719 84.2121C 42.5719 83.3331 43.1969 82.6261 43.9668 82.6261C 44.6578 82.6261 45.0678 83.0751 45.0678 83.8411L 45.0678 88.0211L 46.0678 88.0211L 46.0678 83.5011C 46.0678 82.4231 45.4468 81.8211 44.3138 81.8211C 43.5094 81.8211 43.0211 82.0641 42.4586 82.7551C 42.1031 82.1031 41.6188 81.8211 40.8336 81.8211C 40.0289 81.8211 39.4977 82.1181 38.9781 82.8451L 38.9781 81.9971L 38.0758 82.0051z"/>
<path style="stroke:none; fill-rule:evenodd; fill:#000000" d="M 48.4738 82.0321L 47.4738 82.0321L 47.4738 88.0321L 48.4738 88.0321L 48.4738 82.0321zM 48.4738 79.6301L 47.4738 79.6301L 47.4738 80.8681L 48.4738 80.8681L 48.4738 79.6301z"/>
<path style="stroke:none; fill-rule:evenodd; fill:#000000" d="M 50.1738 82.0051L 50.1738 88.0281L 51.1738 88.0281L 51.1738 84.6811C 51.1738 83.4421 51.7988 82.6301 52.7638 82.6301C 53.5018 82.6301 53.9708 83.0911 53.9708 83.8211L 53.9708 88.0251L 54.9708 88.0251L 54.9708 83.4741C 54.9708 82.4741 54.2278 81.8291 53.0678 81.8291C 52.1738 81.8291 51.6028 82.1731 51.0758 83.0131L 51.0758 82.0011L 50.1738 82.0051z"/>
<path style="stroke:none; fill-rule:evenodd; fill:#000000" d="M 60.4738 82.0321L 60.4738 82.8921C 59.9938 82.1731 59.4078 81.8331 58.6378 81.8331C 57.1148 81.8331 56.0798 83.1731 56.0798 85.1381C 56.0798 86.1301 56.3418 86.9391 56.8338 87.5171C 57.2788 88.0251 57.9198 88.3251 58.5528 88.3251C 59.3058 88.3251 59.8338 87.9971 60.3728 87.2121L 60.3728 87.5211C 60.3728 88.3331 60.2708 88.8291 60.0328 89.1611C 59.7828 89.5171 59.2948 89.7201 58.7168 89.7201C 58.2868 89.7201 57.8998 89.6071 57.6378 89.4001C 57.4238 89.2281 57.3338 89.0681 57.2748 88.7121L 56.3098 88.7121C 56.4118 89.8451 57.2908 90.5211 58.7008 90.5211C 59.5918 90.5211 60.3568 90.2351 60.7478 89.7551C 61.2048 89.2081 61.3768 88.4501 61.3768 87.0401L 61.3768 82.0251L 60.4738 82.0321zM 58.7358 82.7321C 59.7638 82.7321 60.3728 83.6071 60.3728 85.1141C 60.3728 86.5521 59.7558 87.4271 58.7478 87.4271C 57.7048 87.4271 57.0758 86.5401 57.0758 85.0791C 57.0758 83.6301 57.7168 82.7321 58.7358 82.7321z"/>
<path style="stroke:#000000; stroke-width:1.91212; fill:none" d="M 78.8568 145.778C 78.8568 134.165 63.4508 124.747 44.4388 124.747C 25.4313 124.747 10.0211 134.161 10.0211 145.778C 10.0211 157.392 25.4274 166.81 44.4388 166.81C 63.4468 166.81 78.8568 157.396 78.8568 145.778"/>
<path style="stroke:none; fill-rule:evenodd; fill:#000000" d="M 44.3688 143.462C 44.0328 141.63 42.9703 140.735 41.1227 140.735C 39.9938 140.735 39.0797 141.091 38.4547 141.782C 37.693 142.61 37.2789 143.806 37.2789 145.165C 37.2789 146.544 37.7047 147.732 38.5016 148.548C 39.1461 149.216 39.9781 149.525 41.0758 149.525C 43.1305 149.525 44.2868 148.415 44.5408 146.177L 43.4352 146.177C 43.3453 146.767 43.232 147.169 43.0563 147.513C 42.7125 148.224 42.0016 148.622 41.1031 148.622C 39.4352 148.622 38.3766 147.271 38.3766 145.15C 38.3766 142.97 39.3883 141.63 41.0094 141.63C 41.6852 141.63 42.318 141.841 42.6656 142.165C 42.9742 142.458 43.1461 142.821 43.275 143.454L 44.3688 143.462z"/>
<path style="stroke:none; fill-rule:evenodd; fill:#000000" d="M 51.8728 143.321C 51.8608 141.685 50.7438 140.732 48.8298 140.732C 47.0058 140.732 45.8768 141.681 45.8768 143.208C 45.8768 144.235 46.4078 144.884 47.4978 145.177L 49.5528 145.732C 50.5958 146.009 51.0718 146.435 51.0718 147.095C 51.0718 147.544 50.8338 148.009 50.4858 148.263C 50.1578 148.493 49.6378 148.618 48.9708 148.618C 48.0758 148.618 47.4668 148.396 47.0678 147.892C 46.7638 147.513 46.6308 147.095 46.6778 146.56L 45.6778 146.56C 45.6848 147.337 45.8338 147.845 46.1618 148.314C 46.7278 149.099 47.6808 149.517 48.9388 149.517C 49.9238 149.517 50.7278 149.29 51.2638 148.872C 51.8178 148.427 52.1698 147.677 52.1698 146.95C 52.1698 145.915 51.5368 145.157 50.4118 144.845L 48.3378 144.282C 47.3418 144.009 46.9778 143.685 46.9778 143.04C 46.9778 142.189 47.7088 141.626 48.8178 141.626C 50.1268 141.626 50.8608 142.232 50.8728 143.314L 51.8728 143.321z"/>
<path style="stroke:#000000; stroke-width:1.91212; fill:none" d="M 187.846 111.36C 187.846 99.7471 172.439 90.3291 153.428 90.3291C 134.42 90.3291 119.01 99.7431 119.01 111.36C 119.01 122.974 134.416 132.392 153.428 132.392C 172.435 132.392 187.846 122.978 187.846 111.36"/>
<path style="stroke:none; fill-rule:evenodd; fill:#000000" d="M 146.275 114.833L 149.529 114.833C 151.662 114.833 152.971 113.243 152.971 110.63C 152.971 108.028 151.674 106.439 149.529 106.439L 146.275 106.439L 146.275 114.833zM 147.373 113.931L 147.373 107.333L 149.346 107.333C 150.998 107.333 151.869 108.466 151.869 110.638C 151.869 112.786 150.998 113.931 149.346 113.931L 147.373 113.931z"/>
<path style="stroke:none; fill-rule:evenodd; fill:#000000" d="M 159.014 112.333L 159.873 114.833L 161.064 114.833L 158.131 106.435L 156.756 106.435L 153.775 114.833L 154.908 114.833L 155.791 112.333L 159.014 112.333zM 158.713 111.431L 156.053 111.431L 157.428 107.618L 158.713 111.431z"/>
<path style="stroke:#bd00ff; stroke-dasharray:6,3; stroke-width:1.91212; fill:none" d="M 233.736 38.7001C 233.736 27.0871 218.33 17.6691 199.318 17.6691C 180.31 17.6691 164.9 27.0831 164.9 38.7001C 164.9 50.3141 180.306 59.7321 199.318 59.7321C 218.326 59.7321 233.736 50.3181 233.736 38.7001"/>
<path style="stroke:none; fill-rule:evenodd; fill:#000000" d="M 191.873 37.1301L 194.514 37.1301C 195.17 37.1301 195.689 36.9391 196.138 36.5361C 196.646 36.0831 196.865 35.5441 196.865 34.7781C 196.865 33.2161 195.928 32.3331 194.26 32.3331L 190.771 32.3331L 190.771 40.7321L 191.869 40.7321L 191.873 37.1301zM 191.873 36.2321L 191.873 33.2321L 194.123 33.2321C 195.154 33.2321 195.767 33.7941 195.767 34.7321C 195.767 35.6651 195.154 36.2321 194.123 36.2321L 191.873 36.2321z"/>
<path style="stroke:none; fill-rule:evenodd; fill:#000000" d="M 201.873 40.7321L 204.775 32.3331L 203.642 32.3331L 201.326 39.4461L 198.873 32.3331L 197.728 32.3331L 200.732 40.7321L 201.873 40.7321z"/>
<path style="stroke:none; fill-rule:evenodd; fill:#000000" d="M 207.873 39.1301L 207.076 39.1301L 207.076 44.1301L 207.873 44.1301L 207.873 39.1301zM 207.873 37.1301L 207.076 37.1301L 207.076 38.1611L 207.873 38.1611L 207.873 37.1301z"/>
<path style="stroke:#ffa400; stroke-dasharray:6,3; stroke-width:1.91212; fill:none" d="M 145.779 189.755C 145.779 178.142 130.373 168.724 111.361 168.724C 92.3528 168.724 76.9428 178.138 76.9428 189.755C 76.9428 201.368 92.3488 210.786 111.361 210.786C 130.369 210.786 145.779 201.372 145.779 189.755"/>
<path style="stroke:none; fill-rule:evenodd; fill:#000000" d="M 121.974 192.931C 121.974 192.146 121.92 191.673 121.775 191.29C 121.455 190.446 120.693 189.935 119.76 189.935C 118.373 189.935 117.478 191.009 117.478 192.661C 117.478 194.31 118.342 195.329 119.744 195.329C 120.885 195.329 121.674 194.689 121.877 193.61L 121.072 193.61C 120.853 194.278 120.4 194.63 119.76 194.63C 119.252 194.63 118.822 194.403 118.553 193.989C 118.361 193.708 118.295 193.427 118.287 192.935L 121.974 192.931zM 118.306 192.243C 118.373 191.318 118.935 190.716 119.74 190.716C 120.521 190.716 121.123 191.364 121.123 192.189C 121.123 192.204 121.123 192.224 121.115 192.243L 118.306 192.243z"/>
<path style="stroke:none; fill-rule:evenodd; fill:#000000" d="M 103.775 183.333L 102.678 183.333L 102.678 191.732L 107.877 191.732L 107.877 190.833L 103.779 190.833L 103.775 183.333z"/>
<path style="stroke:none; fill-rule:evenodd; fill:#000000" d="M 112.67 191.732L 115.572 183.333L 114.439 183.333L 112.123 190.446L 109.67 183.333L 108.525 183.333L 111.529 191.732L 112.67 191.732z"/>
<path style="stroke:#bd00ff; stroke-dasharray:6,3; stroke-width:1.91212; fill:none" d="M 231.826 189.755C 231.826 178.142 216.42 168.724 197.408 168.724C 178.4 168.724 162.99 178.138 162.99 189.755C 162.99 201.368 178.396 210.786 197.408 210.786C 216.416 210.786 231.826 201.372 231.826 189.755"/>
<path style="stroke:none; fill-rule:evenodd; fill:#000000" d="M 208.275 192.931C 208.275 192.146 208.221 191.673 208.076 191.29C 207.756 190.446 206.994 189.935 206.06 189.935C 204.674 189.935 203.779 191.009 203.779 192.661C 203.779 194.31 204.642 195.329 206.045 195.329C 207.185 195.329 207.974 194.689 208.178 193.61L 207.373 193.61C 207.154 194.278 206.701 194.63 206.06 194.63C 205.553 194.63 205.123 194.403 204.853 193.989C 204.662 193.708 204.596 193.427 204.588 192.935L 208.275 192.931zM 204.607 192.243C 204.674 191.318 205.236 190.716 206.041 190.716C 206.822 190.716 207.424 191.364 207.424 192.189C 207.424 192.204 207.424 192.224 207.416 192.243L 204.607 192.243z"/>
<path style="stroke:none; fill-rule:evenodd; fill:#000000" d="M 189.674 188.13L 192.314 188.13C 192.971 188.13 193.49 187.939 193.939 187.536C 194.447 187.083 194.666 186.544 194.666 185.778C 194.666 184.216 193.728 183.333 192.06 183.333L 188.572 183.333L 188.572 191.732L 189.67 191.732L 189.674 188.13zM 189.674 187.232L 189.674 184.232L 191.924 184.232C 192.955 184.232 193.568 184.794 193.568 185.732C 193.568 186.665 192.955 187.232 191.924 187.232L 189.674 187.232z"/>
<path style="stroke:none; fill-rule:evenodd; fill:#000000" d="M 199.771 191.732L 202.674 183.333L 201.541 183.333L 199.224 190.446L 196.771 183.333L 195.627 183.333L 198.631 191.732L 199.771 191.732z"/>
<path style="stroke:#0000ff; stroke-width:1.91212; fill:none" d="M 64.0368 162.985L 83.1538 176.368"/>
<path style="stroke:#0000ff; stroke-width:1.91212; fill:none" d="M 77.9898 170.419L 83.1578 176.368L 75.7988 173.552"/>
<path style="stroke:#000000; stroke-width:1.91212; fill:none" d="M 302.576 145.778C 302.576 134.165 287.17 124.747 268.158 124.747C 249.15 124.747 233.74 134.161 233.74 145.778C 233.74 157.392 249.146 166.81 268.158 166.81C 287.166 166.81 302.576 157.396 302.576 145.778"/>
<path style="stroke:none; fill-rule:evenodd; fill:#000000" d="M 267.275 140.833L 267.275 146.794C 267.275 147.935 266.478 148.63 265.166 148.63C 264.56 148.63 264.068 148.482 263.674 148.189C 263.271 147.864 263.08 147.435 263.08 146.794L 263.08 140.833L 261.982 140.833L 261.982 146.755C 261.982 148.466 263.193 149.528 265.17 149.528C 267.123 149.528 268.381 148.442 268.381 146.755L 268.381 140.833L 267.275 140.833z"/>
<path style="stroke:none; fill-rule:evenodd; fill:#000000" d="M 276.076 143.321C 276.064 141.685 274.947 140.732 273.033 140.732C 271.209 140.732 270.08 141.681 270.08 143.208C 270.08 144.235 270.611 144.884 271.701 145.177L 273.756 145.732C 274.799 146.009 275.275 146.435 275.275 147.095C 275.275 147.544 275.037 148.009 274.689 148.263C 274.361 148.493 273.842 148.618 273.174 148.618C 272.279 148.618 271.67 148.396 271.271 147.892C 270.967 147.513 270.834 147.095 270.881 146.56L 269.881 146.56C 269.888 147.337 270.037 147.845 270.365 148.314C 270.931 149.099 271.885 149.517 273.142 149.517C 274.127 149.517 274.931 149.29 275.467 148.872C 276.021 148.427 276.373 147.677 276.373 146.95C 276.373 145.915 275.74 145.157 274.615 144.845L 272.541 144.282C 271.545 144.009 271.181 143.685 271.181 143.04C 271.181 142.189 271.912 141.626 273.021 141.626C 274.33 141.626 275.064 142.232 275.076 143.314L 276.076 143.321z"/>
<path style="stroke:#0000ff; stroke-width:1.91212; fill:none" d="M 241.865 159.161L 224.658 178.278"/>
<path style="stroke:#0000ff; stroke-width:1.91212; fill:none" d="M 231.193 173.876L 224.658 178.278L 228.349 171.318"/>
<path style="stroke:#0000ff; stroke-width:1.91212; fill:none" d="M 195.974 168.724L 171.119 130.485"/>
<path style="stroke:#0000ff; stroke-width:1.91212; fill:none" d="M 173.681 137.935L 171.119 130.482L 176.888 135.849"/>
<path style="stroke:#0000ff; stroke-width:1.91212; fill:none" d="M 234.217 145.778L 134.787 174.458"/>
<path style="stroke:#0000ff; stroke-width:1.91212; fill:none" d="M 142.666 174.177L 134.787 174.458L 141.603 170.505"/>
<path style="stroke:#0000ff; stroke-width:1.91212; fill:none" d="M 44.9158 64.0361L 63.0798 41.5711"/>
<path style="stroke:#0000ff; stroke-width:1.91212; fill:none" d="M 56.7868 46.3141L 63.0798 41.5711L 59.7598 48.7201"/>
<path style="stroke:#0000ff; stroke-width:1.91212; fill:none" d="M 65.9508 130.482L 99.4118 63.0831"/>
<path style="stroke:#0000ff; stroke-width:1.91212; fill:none" d="M 94.2988 69.0791L 99.4078 63.0791L 97.7208 70.7781"/>
<path style="stroke:#0000ff; stroke-width:1.91212; fill:none" d="M 241.865 132.392L 213.662 61.6461"/>
<path style="stroke:#0000ff; stroke-width:1.91212; fill:none" d="M 214.717 69.4581L 213.662 61.6461L 218.267 68.0401"/>
</g>
</svg>