<?xml version="1.0" encoding="UTF-8" standalone="no"?>
<svg
   xmlns:dc="http://purl.org/dc/elements/1.1/"
   xmlns:cc="http://creativecommons.org/ns#"
   xmlns:rdf="http://www.w3.org/1999/02/22-rdf-syntax-ns#"
   xmlns:svg="http://www.w3.org/2000/svg"
   xmlns="http://www.w3.org/2000/svg"
   xmlns:sodipodi="http://sodipodi.sourceforge.net/DTD/sodipodi-0.dtd"
   xmlns:inkscape="http://www.inkscape.org/namespaces/inkscape"
   width="765"
   height="990"
   id="svg2"
   sodipodi:version="0.32"
   inkscape:version="0.46"
   sodipodi:docname="fig_cortical_fun_org_stroop_cascade.svg"
   inkscape:output_extension="org.inkscape.output.svg.inkscape"
   version="1.0"
   inkscape:export-filename="/Users/oreilly/svn_docs/figs/fig_cortical_fun_org_stroop_cascade.png"
   inkscape:export-xdpi="150"
   inkscape:export-ydpi="150">
  <metadata
     id="metadata231">
    <rdf:RDF>
      <cc:Work
         rdf:about="">
        <dc:format>image/svg+xml</dc:format>
        <dc:type
           rdf:resource="http://purl.org/dc/dcmitype/StillImage" />
      </cc:Work>
    </rdf:RDF>
  </metadata>
  <sodipodi:namedview
     inkscape:window-height="480"
     inkscape:window-width="640"
     inkscape:pageshadow="2"
     inkscape:pageopacity="0.0"
     guidetolerance="10.0"
     gridtolerance="10.0"
     objecttolerance="10.0"
     borderopacity="1.0"
     bordercolor="#666666"
     pagecolor="#ffffff"
     id="base"
     showgrid="false"
     inkscape:zoom="2.9594772"
     inkscape:cx="455.27917"
     inkscape:cy="523.64836"
     inkscape:current-layer="svg2" />
  <defs
     id="defs4">
    <marker
       inkscape:stockid="Arrow2Mend"
       orient="auto"
       refY="0.0"
       refX="0.0"
       id="Arrow2Mend"
       style="overflow:visible;">
      <path
         id="path3826"
         style="font-size:12.0;fill-rule:evenodd;stroke-width:0.62500000;stroke-linejoin:round;"
         d="M 8.7185878,4.0337352 L -2.2072895,0.016013256 L 8.7185884,-4.0017078 C 6.9730900,-1.6296469 6.9831476,1.6157441 8.7185878,4.0337352 z "
         transform="scale(0.6) rotate(180) translate(0,0)" />
    </marker>
    <marker
       inkscape:stockid="Arrow2Mstart"
       orient="auto"
       refY="0.0"
       refX="0.0"
       id="Arrow2Mstart"
       style="overflow:visible">
      <path
         id="path3823"
         style="font-size:12.0;fill-rule:evenodd;stroke-width:0.62500000;stroke-linejoin:round"
         d="M 8.7185878,4.0337352 L -2.2072895,0.016013256 L 8.7185884,-4.0017078 C 6.9730900,-1.6296469 6.9831476,1.6157441 8.7185878,4.0337352 z "
         transform="scale(0.6) translate(0,0)" />
    </marker>
    <marker
       inkscape:stockid="Arrow2Lstart"
       orient="auto"
       refY="0.0"
       refX="0.0"
       id="Arrow2Lstart"
       style="overflow:visible">
      <path
         id="path3817"
         style="font-size:12.0;fill-rule:evenodd;stroke-width:0.62500000;stroke-linejoin:round"
         d="M 8.7185878,4.0337352 L -2.2072895,0.016013256 L 8.7185884,-4.0017078 C 6.9730900,-1.6296469 6.9831476,1.6157441 8.7185878,4.0337352 z "
         transform="scale(1.1) translate(1,0)" />
    </marker>
    <marker
       inkscape:stockid="Arrow2Lend"
       orient="auto"
       refY="0.0"
       refX="0.0"
       id="Arrow2Lend"
       style="overflow:visible;">
      <path
         id="path3820"
         style="font-size:12.0;fill-rule:evenodd;stroke-width:0.62500000;stroke-linejoin:round;"
         d="M 8.7185878,4.0337352 L -2.2072895,0.016013256 L 8.7185884,-4.0017078 C 6.9730900,-1.6296469 6.9831476,1.6157441 8.7185878,4.0337352 z "
         transform="scale(1.1) rotate(180) translate(1,0)" />
    </marker>
    <marker
       inkscape:stockid="Arrow1Lend"
       orient="auto"
       refY="0.0"
       refX="0.0"
       id="Arrow1Lend"
       style="overflow:visible;">
      <path
         id="path3802"
         d="M 0.0,0.0 L 5.0,-5.0 L -12.5,0.0 L 5.0,5.0 L 0.0,0.0 z "
         style="fill-rule:evenodd;stroke:#000000;stroke-width:1.0pt;marker-start:none;"
         transform="scale(0.8) rotate(180) translate(12.5,0)" />
    </marker>
    <inkscape:perspective
       sodipodi:type="inkscape:persp3d"
       inkscape:vp_x="0 : 96.803001 : 1"
       inkscape:vp_y="0 : 1000 : 0"
       inkscape:vp_z="243.504 : 96.803001 : 1"
       inkscape:persp3d-origin="121.752 : 64.535334 : 1"
       id="perspective233" />
    <marker
       id="ArrowEnd"
       viewBox="0 0 10 10"
       refX="0"
       refY="5"
       markerUnits="strokeWidth"
       markerWidth="4"
       markerHeight="3"
       orient="auto">
      <path
         d="M 0,0 L 10,5 L 0,10 L 0,0 z"
         id="path7" />
    </marker>
    <marker
       id="ArrowStart"
       viewBox="0 0 10 10"
       refX="10"
       refY="5"
       markerUnits="strokeWidth"
       markerWidth="4"
       markerHeight="3"
       orient="auto">
      <path
         d="M 10,0 L 0,5 L 10,10 L 10,0 z"
         id="path10" />
    </marker>
  </defs>
  <rect
     style="font-size:8px;opacity:1;fill:#b3b3b3;fill-opacity:1;fill-rule:evenodd;stroke:#999999;stroke-width:0.88558728;stroke-linecap:butt;stroke-linejoin:miter;marker:none;marker-start:none;marker-mid:none;marker-end:none;stroke-miterlimit:4;stroke-dasharray:none;stroke-dashoffset:0;stroke-opacity:1;visibility:visible;display:inline;overflow:visible;enable-background:accumulate"
     id="rect3770"
     width="480.23792"
     height="201.07854"
     x="222.80063"
     y="381.26285" />
  <text
     xml:space="preserve"
     style="font-size:12px;font-style:normal;font-variant:normal;font-weight:normal;font-stretch:normal;text-align:start;line-height:100%;writing-mode:lr-tb;text-anchor:start;fill:#000000;fill-opacity:1;stroke:none;stroke-width:1px;stroke-linecap:butt;stroke-linejoin:miter;stroke-opacity:1;font-family:Arial;-inkscape-font-specification:Arial"
     x="29.2365"
     y="53.431004"
     id="text2934"
     sodipodi:linespacing="100%"><tspan
       sodipodi:role="line"
       id="tspan2936"
       x="29.2365"
       y="53.431004" /></text>
  <text
     sodipodi:linespacing="100%"
     id="text8526"
     y="430.5015"
     x="403.3035"
     style="font-size:8px;font-style:normal;font-variant:normal;font-weight:normal;font-stretch:normal;text-align:start;line-height:100%;writing-mode:lr-tb;text-anchor:start;fill:#ff00ff;fill-opacity:1;stroke:none;stroke-width:1px;stroke-linecap:butt;stroke-linejoin:miter;stroke-opacity:1;font-family:Arial;-inkscape-font-specification:Arial"
     xml:space="preserve"><tspan
       y="430.5015"
       x="403.3035"
       sodipodi:role="line"
       id="tspan8538" /></text>
  <text
     xml:space="preserve"
     style="font-size:14px;font-style:normal;font-variant:normal;font-weight:normal;font-stretch:normal;text-align:start;line-height:100%;writing-mode:lr-tb;text-anchor:start;fill:#000000;fill-opacity:1;stroke:none;stroke-width:1px;stroke-linecap:butt;stroke-linejoin:miter;stroke-opacity:1;font-family:Arial;-inkscape-font-specification:Arial"
     x="416.11951"
     y="444.51901"
     id="text2501"
     sodipodi:linespacing="100%"><tspan
       sodipodi:role="line"
       id="tspan2503"
       x="416.11951"
       y="444.51901" /></text>
  <text
     xml:space="preserve"
     style="font-size:14px;font-style:normal;font-variant:normal;font-weight:normal;font-stretch:normal;text-align:start;line-height:100%;writing-mode:lr-tb;text-anchor:start;fill:#000000;fill-opacity:1;stroke:none;stroke-width:1px;stroke-linecap:butt;stroke-linejoin:miter;stroke-opacity:1;font-family:Arial;-inkscape-font-specification:Arial"
     x="405.306"
     y="471.75299"
     id="text2575"
     sodipodi:linespacing="100%"><tspan
       sodipodi:role="line"
       id="tspan2577"
       x="405.306"
       y="471.75299" /></text>
  <text
     xml:space="preserve"
     style="font-size:14px;font-style:normal;font-variant:normal;font-weight:normal;font-stretch:normal;text-align:start;line-height:100%;writing-mode:lr-tb;text-anchor:start;fill:#000000;fill-opacity:1;stroke:none;stroke-width:1px;stroke-linecap:butt;stroke-linejoin:miter;stroke-opacity:1;font-family:Arial;-inkscape-font-specification:Arial"
     x="226.683"
     y="383.24249"
     id="text3455"
     sodipodi:linespacing="100%"><tspan
       sodipodi:role="line"
       id="tspan3457"
       x="226.683"
       y="383.24249" /></text>
  <path
     id="path208"
     d="M 332.62076,499.69459 C 332.62076,499.69459 332.62076,499.69459 336.04676,501.12859 C 339.47276,502.56159 346.32776,505.43259 351.90976,507.42459 C 357.48876,509.41759 361.79276,510.53059 366.49626,511.17059 C 371.19936,511.80759 376.30096,511.96759 383.07436,514.51859 C 389.84776,517.06959 398.30096,522.01059 405.95326,528.38559 C 413.60566,534.76059 420.46106,542.57359 417.35166,550.70659 C 414.24626,558.83559 401.17206,567.28459 389.05096,571.43259 C 376.93376,575.57759 365.77356,575.41759 354.53476,573.90159 C 343.29676,572.38959 331.97676,569.51859 321.69176,564.33859 C 311.40976,559.15959 302.16376,551.66359 291.63676,548.71359 C 281.11676,545.76459 269.31676,547.36259 258.47676,545.60859 C 247.63676,543.85459 237.74976,538.75359 233.12876,528.71059 C 228.50776,518.66759 229.14476,503.67859 232.25376,490.36639 C 235.35976,477.05429 240.94176,465.41739 249.94876,452.18229 C 258.95676,438.95239 271.39076,424.12429 291.40276,414.15939 C 311.40976,404.19439 338.99176,399.09335 364.66416,402.28439 C 390.33216,405.47129 414.08996,416.95239 428.03916,427.71429 C 441.98846,438.47529 446.13296,448.51829 448.92596,459.12039 C 451.71496,469.72129 453.14856,480.88239 453.23066,488.61639 C 453.30873,496.34659 452.03526,500.65159 448.52746,505.35459 C 445.01966,510.05759 439.28136,515.15959 433.62126,518.34659 C 427.96496,521.53459 422.38296,522.80759 415.68766,522.56959 C 408.99236,522.33159 401.17986,520.57759 397.27356,519.70259 C 393.37126,518.82759 393.37126,518.82759 393.37126,518.82759"
     style="fill:none;stroke:#000000;stroke-width:1;stroke-miterlimit:4;stroke-dasharray:none" />
  <text
     xml:space="preserve"
     style="font-size:12px;font-style:normal;font-variant:normal;font-weight:normal;font-stretch:normal;text-align:start;line-height:100%;writing-mode:lr-tb;text-anchor:start;fill:#fdd209;fill-opacity:1;stroke:none;stroke-width:1px;stroke-linecap:butt;stroke-linejoin:miter;stroke-opacity:1;font-family:Arial;-inkscape-font-specification:Arial"
     x="511.27927"
     y="337.3316"
     id="text3766"
     sodipodi:linespacing="100%"
     transform="matrix(0.9484924,0.3167998,-0.3167998,0.9484924,0,0)"><tspan
       sodipodi:role="line"
       x="511.27927"
       y="337.3316"
       id="tspan3417">Colors' Sem'</tspan><tspan
       sodipodi:role="line"
       x="511.27927"
       y="349.3316"
       id="tspan2472">Words'</tspan></text>
  <text
     xml:space="preserve"
     style="font-size:24px;font-style:normal;font-variant:normal;font-weight:normal;font-stretch:normal;text-align:start;line-height:100%;writing-mode:lr-tb;text-anchor:start;fill:#000080;fill-opacity:1;stroke:none;stroke-width:1px;stroke-linecap:butt;stroke-linejoin:miter;stroke-opacity:1;font-family:Arial;-inkscape-font-specification:Arial"
     x="234.75993"
     y="517.76074"
     id="text2537"
     sodipodi:linespacing="100%"><tspan
       sodipodi:role="line"
       id="tspan2539"
       x="234.75993"
       y="517.76074">S</tspan></text>
  <text
     sodipodi:linespacing="100%"
     id="text2541"
     y="315.46021"
     x="516.5968"
     style="font-size:12px;font-style:normal;font-variant:normal;font-weight:normal;font-stretch:normal;text-align:start;line-height:100%;writing-mode:lr-tb;text-anchor:start;fill:#e100b4;fill-opacity:1;stroke:none;stroke-width:1px;stroke-linecap:butt;stroke-linejoin:miter;stroke-opacity:1;font-family:Arial;-inkscape-font-specification:Arial"
     xml:space="preserve"
     transform="matrix(0.878527,0.4776927,-0.4776927,0.878527,0,0)"><tspan
       y="315.46021"
       x="516.5968"
       sodipodi:role="line"
       id="tspan2603">Colors Semantics</tspan><tspan
       y="327.46021"
       x="516.5968"
       sodipodi:role="line"
       id="tspan2468">Words</tspan></text>
  <text
     sodipodi:linespacing="100%"
     id="text2547"
     y="517.82416"
     x="-131.72165"
     style="font-size:12.00000572px;font-style:normal;font-variant:normal;font-weight:normal;font-stretch:normal;text-align:start;line-height:100%;writing-mode:lr-tb;text-anchor:start;fill:#02ffff;fill-opacity:1;stroke:none;stroke-width:0.5;stroke-linecap:butt;stroke-linejoin:miter;stroke-miterlimit:4;stroke-dasharray:none;stroke-opacity:1;font-family:Arial;-inkscape-font-specification:Arial"
     xml:space="preserve"
     transform="matrix(0.7275593,-0.6860448,0.6860448,0.7275593,0,0)"><tspan
       y="517.82416"
       x="-131.72165"
       sodipodi:role="line"
       id="tspan2597">Word Reading</tspan><tspan
       y="529.82416"
       x="-131.72165"
       sodipodi:role="line"
       id="tspan2464">Color Naming</tspan></text>
  <text
     sodipodi:linespacing="100%"
     id="text3423"
     y="420.02664"
     x="341.22827"
     style="font-size:24px;font-style:normal;font-variant:normal;font-weight:normal;font-stretch:normal;text-align:start;line-height:100%;writing-mode:lr-tb;text-anchor:start;fill:#008000;fill-opacity:1;stroke:none;stroke-width:1px;stroke-linecap:butt;stroke-linejoin:miter;stroke-opacity:1;font-family:Arial;-inkscape-font-specification:Arial"
     xml:space="preserve"><tspan
       y="420.02664"
       x="341.22827"
       id="tspan3425"
       sodipodi:role="line">R</tspan></text>
  <text
     sodipodi:linespacing="100%"
     id="text3427"
     y="217.34326"
     x="567.38214"
     style="font-size:12px;font-style:normal;font-variant:normal;font-weight:normal;font-stretch:normal;text-align:start;line-height:100%;writing-mode:lr-tb;text-anchor:start;fill:#b7ff1e;fill-opacity:1;stroke:none;stroke-width:1px;stroke-linecap:butt;stroke-linejoin:miter;stroke-opacity:1;font-family:Arial;-inkscape-font-specification:Arial"
     xml:space="preserve"
     transform="matrix(0.8943001,0.4474677,-0.4474677,0.8943001,0,0)"><tspan
       y="217.34326"
       x="567.38214"
       sodipodi:role="line"
       id="tspan2509">Task</tspan><tspan
       y="229.34326"
       x="567.38214"
       sodipodi:role="line"
       id="tspan2513">Coord</tspan></text>
  <path
     id="path206"
     d="M 322.09776,404.50739 C 322.09776,404.50739 322.09776,404.50739 324.32776,407.77239 C 326.55876,411.03839 331.02376,417.57739 332.45676,422.51829 C 333.89076,427.46029 332.30076,430.80729 332.61376,434.55439 C 332.92976,438.30039 335.16376,442.44439 336.27776,445.95239 C 337.39076,449.46029 337.39076,452.32739 339.70276,455.99539 C 342.01176,459.65939 346.63676,464.12429 349.18776,468.11239 C 351.73876,472.09739 352.21476,475.60439 353.73076,479.83129 C 355.24176,484.05429 357.79276,488.99919 360.26576,494.26059 C 362.73476,499.51859 365.12516,505.10059 366.32436,507.88959 C 367.51966,510.67859 367.51966,510.67859 367.51966,510.67859"
     style="fill:none;stroke:#000000;stroke-width:1;stroke-miterlimit:4;stroke-dasharray:4, 4;stroke-dashoffset:0" />
  <path
     id="path210"
     d="M 242.21876,465.25339 C 242.21876,465.25339 242.21876,465.25339 244.60976,466.68639 C 246.99976,468.12039 251.78176,470.99139 256.08576,473.06139 C 260.39076,475.13239 264.21476,476.40939 267.16376,479.43639 C 270.11376,482.46439 272.18376,487.24539 273.69876,492.42859 C 275.21076,497.60859 276.16776,503.19059 276.16776,509.00659 C 276.16776,514.82359 275.21476,520.88559 272.18376,526.46359 C 269.15676,532.04259 264.05476,537.14359 260.14876,540.17459 C 256.24576,543.20259 253.53476,544.15959 252.17976,544.63559 C 250.82776,545.11259 250.82776,545.11259 250.82776,545.11259"
     style="fill:none;stroke:#000000;stroke-width:1;stroke-miterlimit:4;stroke-dasharray:3, 3;stroke-dashoffset:0" />
  <path
     id="path212"
     d="M 333.10176,499.69459 C 333.10176,499.69459 333.10176,499.69459 330.71076,499.05759 C 328.32076,498.42059 323.53876,497.14759 314.13276,497.54559 C 304.72676,497.94459 290.69576,500.01459 283.68376,501.05359 C 276.66776,502.08859 276.66776,502.08859 276.66776,502.08859"
     style="fill:none;stroke:#000000;stroke-width:1;stroke-miterlimit:4;stroke-dasharray:4, 4;stroke-dashoffset:0" />
  <path
     sodipodi:nodetypes="cc"
     id="path6304"
     d="M 261.96638,474.08056 C 254.28222,484.94383 247.79879,496.33436 247.79879,496.33436"
     style="fill:none;fill-rule:evenodd;stroke:#000000;stroke-width:1px;stroke-linecap:butt;stroke-linejoin:miter;marker-start:url(#Arrow2Mstart);marker-end:url(#Arrow2Mend);stroke-opacity:1" />
  <path
     sodipodi:nodetypes="cc"
     id="path8514"
     d="M 409.63818,449.7182 C 403.11202,447.56783 395.37218,445.50316 395.37218,445.50316"
     style="fill:none;fill-rule:evenodd;stroke:#000000;stroke-width:1px;stroke-linecap:butt;stroke-linejoin:miter;marker-start:url(#Arrow2Mstart);marker-end:url(#Arrow2Mend);stroke-opacity:1" />
  <path
     sodipodi:nodetypes="cc"
     id="path2545"
     d="M 296.23364,530.60161 C 293.43014,528.99961 256.13387,516.63388 256.13387,516.63388"
     style="fill:none;fill-rule:evenodd;stroke:#000000;stroke-width:1px;stroke-linecap:butt;stroke-linejoin:miter;marker-start:url(#Arrow2Mstart);marker-end:url(#Arrow2Mend);stroke-opacity:1" />
  <path
     sodipodi:nodetypes="cc"
     id="path3419"
     d="M 386.97338,502.71723 C 372.5215,515.76342 351.64453,533.62009 351.64453,533.62009"
     style="fill:none;fill-rule:evenodd;stroke:#000000;stroke-width:1px;stroke-linecap:butt;stroke-linejoin:miter;marker-start:url(#Arrow2Mstart);marker-end:url(#Arrow2Mend);stroke-opacity:1" />
  <path
     style="fill:none;fill-rule:evenodd;stroke:#000000;stroke-width:1px;stroke-linecap:butt;stroke-linejoin:miter;marker-start:url(#Arrow2Mstart);marker-end:url(#Arrow2Mend);stroke-opacity:1"
     d="M 340.79145,419.58976 C 335.15057,421.82245 319.8806,422.05712 319.8806,422.05712"
     id="path3445"
     sodipodi:nodetypes="cc" />
  <path
     sodipodi:nodetypes="cc"
     id="path3451"
     d="M 405.09631,463.70766 C 401.56513,467.62595 392.09,476.44781 392.09,476.44781"
     style="fill:none;fill-rule:evenodd;stroke:#000000;stroke-width:1px;stroke-linecap:butt;stroke-linejoin:miter;marker-start:url(#Arrow2Mstart);marker-end:url(#Arrow2Mend);stroke-opacity:1" />
  <text
     xml:space="preserve"
     style="font-size:7.99999905px;font-style:normal;font-variant:normal;font-weight:normal;font-stretch:normal;text-align:start;line-height:100%;writing-mode:lr-tb;text-anchor:start;fill:#000000;fill-opacity:1;stroke:none;stroke-width:1px;stroke-linecap:butt;stroke-linejoin:miter;stroke-opacity:1;font-family:Arial;-inkscape-font-specification:Arial"
     x="443.54642"
     y="483.86008"
     id="text3535"
     sodipodi:linespacing="100%"
     transform="matrix(0.9795211,0.2013414,-0.2013414,0.9795211,0,0)"><tspan
       sodipodi:role="line"
       id="tspan3537"
       x="443.54642"
       y="483.86008">IT</tspan></text>
  <text
     xml:space="preserve"
     style="font-size:7.99999809px;font-style:normal;font-variant:normal;font-weight:normal;font-stretch:normal;text-align:start;line-height:100%;writing-mode:lr-tb;text-anchor:start;fill:#000000;fill-opacity:1;stroke:none;stroke-width:1px;stroke-linecap:butt;stroke-linejoin:miter;stroke-opacity:1;font-family:Arial;-inkscape-font-specification:Arial"
     x="534.38959"
     y="338.64697"
     id="text3543"
     sodipodi:linespacing="100%"
     transform="matrix(0.955277,0.2957124,-0.2957124,0.955277,0,0)"
     inkscape:transform-center-x="71.880168"
     inkscape:transform-center-y="-8.3259902"><tspan
       sodipodi:role="line"
       id="tspan3545"
       x="534.38959"
       y="338.64697">44/45/47</tspan></text>
  <text
     xml:space="preserve"
     style="font-size:8px;font-style:normal;font-variant:normal;font-weight:normal;font-stretch:normal;text-align:start;line-height:100%;writing-mode:lr-tb;text-anchor:start;fill:#000000;fill-opacity:1;stroke:none;stroke-width:1px;stroke-linecap:butt;stroke-linejoin:miter;stroke-opacity:1;font-family:Arial;-inkscape-font-specification:Arial"
     x="410.86905"
     y="433.88364"
     id="text3547"
     sodipodi:linespacing="100%"><tspan
       sodipodi:role="line"
       id="tspan3549"
       x="410.86905"
       y="433.88364">9/46</tspan></text>
  <text
     xml:space="preserve"
     style="font-size:8px;font-style:normal;font-variant:normal;font-weight:normal;font-stretch:normal;text-align:start;line-height:100%;writing-mode:lr-tb;text-anchor:start;fill:#000000;fill-opacity:1;stroke:none;stroke-width:1px;stroke-linecap:butt;stroke-linejoin:miter;stroke-opacity:1;font-family:Arial;-inkscape-font-specification:Arial"
     x="372.85269"
     y="422.50662"
     id="text3551"
     sodipodi:linespacing="100%"><tspan
       sodipodi:role="line"
       id="tspan3553"
       x="372.85269"
       y="422.50662">8</tspan></text>
  <text
     xml:space="preserve"
     style="font-size:8px;font-style:normal;font-variant:normal;font-weight:normal;font-stretch:normal;text-align:start;line-height:100%;writing-mode:lr-tb;text-anchor:start;fill:#000000;fill-opacity:1;stroke:none;stroke-width:1px;stroke-linecap:butt;stroke-linejoin:miter;stroke-opacity:1;font-family:Arial;-inkscape-font-specification:Arial"
     x="330.39072"
     y="411.20441"
     id="text3555"
     sodipodi:linespacing="100%"><tspan
       sodipodi:role="line"
       id="tspan3557"
       x="330.39072"
       y="411.20441">M1</tspan></text>
  <text
     xml:space="preserve"
     style="font-size:7.99999714px;font-style:normal;font-variant:normal;font-weight:normal;font-stretch:normal;text-align:start;line-height:100%;writing-mode:lr-tb;text-anchor:start;fill:#000000;fill-opacity:1;stroke:none;stroke-width:1px;stroke-linecap:butt;stroke-linejoin:miter;stroke-opacity:1;font-family:Arial;-inkscape-font-specification:Arial"
     x="-84.816597"
     y="512.10718"
     id="text3559"
     sodipodi:linespacing="100%"
     transform="matrix(0.7628501,-0.6465753,0.6465753,0.7628501,0,0)"><tspan
       sodipodi:role="line"
       id="tspan3561"
       x="-84.816597"
       y="512.10718">IPS/PPC</tspan></text>
  <text
     xml:space="preserve"
     style="font-size:12px;font-style:normal;font-variant:normal;font-weight:normal;font-stretch:normal;text-align:start;line-height:100%;writing-mode:lr-tb;text-anchor:start;fill:#81ff1e;fill-opacity:1;stroke:none;stroke-width:1px;stroke-linecap:butt;stroke-linejoin:miter;stroke-opacity:1;font-family:Arial;-inkscape-font-specification:Arial"
     x="432.2565"
     y="355.57474"
     id="text6297"
     sodipodi:linespacing="100%"
     transform="matrix(0.9805737,0.1961511,-0.1961511,0.9805737,0,0)"><tspan
       sodipodi:role="line"
       x="432.2565"
       y="355.57474"
       id="tspan2496">Reading'</tspan><tspan
       sodipodi:role="line"
       x="432.2565"
       y="367.57474"
       id="tspan2500">Naming'</tspan></text>
  <path
     style="fill:none;fill-rule:evenodd;stroke:#000000;stroke-width:1px;stroke-linecap:butt;stroke-linejoin:miter;marker-start:url(#Arrow2Mstart);marker-end:url(#Arrow2Mend);stroke-opacity:1"
     d="M 350.50611,435.18861 C 343.97995,433.03824 316.64205,434.35255 316.64205,434.35255"
     id="path2502"
     sodipodi:nodetypes="cc" />
  <path
     style="fill:none;stroke:#000000;stroke-width:1;stroke-miterlimit:4;stroke-dasharray:none"
     d="M 575.90697,499.69459 C 575.90697,499.69459 575.90697,499.69459 579.33297,501.12859 C 582.75897,502.56159 589.61397,505.43259 595.19597,507.42459 C 600.77497,509.41759 605.07897,510.53059 609.78247,511.17059 C 614.48557,511.80759 619.58717,511.96759 626.36057,514.51859 C 633.13397,517.06959 641.58717,522.01059 649.23947,528.38559 C 656.89187,534.76059 663.74727,542.57359 660.63787,550.70659 C 657.53247,558.83559 644.45827,567.28459 632.33717,571.43259 C 620.21997,575.57759 609.05977,575.41759 597.82097,573.90159 C 586.58297,572.38959 575.26297,569.51859 564.97797,564.33859 C 554.69597,559.15959 545.44997,551.66359 534.92297,548.71359 C 524.40297,545.76459 512.60297,547.36259 501.76297,545.60859 C 490.92297,543.85459 481.03597,538.75359 476.41497,528.71059 C 471.79397,518.66759 472.43097,503.67859 475.53997,490.36639 C 478.64597,477.05429 484.22797,465.41739 493.23497,452.18229 C 502.24297,438.95239 514.67697,424.12429 534.68897,414.15939 C 554.69597,404.19439 582.27797,399.09335 607.95037,402.28439 C 633.61837,405.47129 657.37617,416.95239 671.32537,427.71429 C 685.27467,438.47529 689.41917,448.51829 692.21217,459.12039 C 695.00117,469.72129 696.43477,480.88239 696.51687,488.61639 C 696.59494,496.34659 695.32147,500.65159 691.81367,505.35459 C 688.30587,510.05759 682.56757,515.15959 676.90747,518.34659 C 671.25117,521.53459 665.66917,522.80759 658.97387,522.56959 C 652.27857,522.33159 644.46607,520.57759 640.55977,519.70259 C 636.65747,518.82759 636.65747,518.82759 636.65747,518.82759"
     id="path2562" />
  <text
     transform="matrix(0.9484924,0.3167998,-0.3167998,0.9484924,0,0)"
     sodipodi:linespacing="100%"
     id="text2564"
     y="260.25858"
     x="742.03436"
     style="font-size:12px;font-style:normal;font-variant:normal;font-weight:normal;font-stretch:normal;text-align:start;line-height:100%;writing-mode:lr-tb;text-anchor:start;fill:#fdd209;fill-opacity:1;stroke:none;stroke-width:1px;stroke-linecap:butt;stroke-linejoin:miter;stroke-opacity:1;font-family:Arial;-inkscape-font-specification:Arial"
     xml:space="preserve"><tspan
       id="tspan2566"
       y="260.25858"
       x="742.03436"
       sodipodi:role="line">Colors' Sem'</tspan><tspan
       id="tspan2568"
       y="272.25858"
       x="742.03436"
       sodipodi:role="line">Words'</tspan></text>
  <text
     sodipodi:linespacing="100%"
     id="text2570"
     y="518.77441"
     x="478.72195"
     style="font-size:24px;font-style:normal;font-variant:normal;font-weight:normal;font-stretch:normal;text-align:start;line-height:100%;writing-mode:lr-tb;text-anchor:start;fill:#000080;fill-opacity:1;stroke:none;stroke-width:1px;stroke-linecap:butt;stroke-linejoin:miter;stroke-opacity:1;font-family:Arial;-inkscape-font-specification:Arial"
     xml:space="preserve"><tspan
       y="518.77441"
       x="478.72195"
       id="tspan2572"
       sodipodi:role="line">S</tspan></text>
  <text
     transform="matrix(0.878527,0.4776927,-0.4776927,0.878527,0,0)"
     xml:space="preserve"
     style="font-size:12px;font-style:normal;font-variant:normal;font-weight:normal;font-stretch:normal;text-align:start;line-height:100%;writing-mode:lr-tb;text-anchor:start;fill:#e100b4;fill-opacity:1;stroke:none;stroke-width:1px;stroke-linecap:butt;stroke-linejoin:miter;stroke-opacity:1;font-family:Arial;-inkscape-font-specification:Arial"
     x="730.33032"
     y="199.24416"
     id="text2574"
     sodipodi:linespacing="100%"><tspan
       id="tspan2576"
       sodipodi:role="line"
       x="730.33032"
       y="199.24416">Colors Semantics</tspan><tspan
       id="tspan2578"
       sodipodi:role="line"
       x="730.33032"
       y="211.24416">Words</tspan></text>
  <text
     transform="matrix(0.7275593,-0.6860448,0.6860448,0.7275593,0,0)"
     xml:space="preserve"
     style="font-size:12.00000572px;font-style:normal;font-variant:normal;font-weight:normal;font-stretch:normal;text-align:start;line-height:100%;writing-mode:lr-tb;text-anchor:start;fill:#02ffff;fill-opacity:1;stroke:none;stroke-width:0.5;stroke-linecap:butt;stroke-linejoin:miter;stroke-miterlimit:4;stroke-dasharray:none;stroke-opacity:1;font-family:Arial;-inkscape-font-specification:Arial"
     x="28.804102"
     y="693.34045"
     id="text2580"
     sodipodi:linespacing="100%"><tspan
       id="tspan2584"
       sodipodi:role="line"
       x="28.804102"
       y="693.34045">Word</tspan><tspan
       sodipodi:role="line"
       x="28.804102"
       y="705.34045"
       id="tspan10186">Reading</tspan></text>
  <text
     xml:space="preserve"
     style="font-size:24px;font-style:normal;font-variant:normal;font-weight:normal;font-stretch:normal;text-align:start;line-height:100%;writing-mode:lr-tb;text-anchor:start;fill:#008000;fill-opacity:1;stroke:none;stroke-width:1px;stroke-linecap:butt;stroke-linejoin:miter;stroke-opacity:1;font-family:Arial;-inkscape-font-specification:Arial"
     x="584.51447"
     y="420.02664"
     id="text2586"
     sodipodi:linespacing="100%"><tspan
       sodipodi:role="line"
       id="tspan2588"
       x="584.51447"
       y="420.02664">R</tspan></text>
  <text
     transform="matrix(0.8943001,0.4474677,-0.4474677,0.8943001,0,0)"
     xml:space="preserve"
     style="font-size:12px;font-style:normal;font-variant:normal;font-weight:normal;font-stretch:normal;text-align:start;line-height:100%;writing-mode:lr-tb;text-anchor:start;fill:#b7ff1e;fill-opacity:1;stroke:none;stroke-width:1px;stroke-linecap:butt;stroke-linejoin:miter;stroke-opacity:1;font-family:Arial;-inkscape-font-specification:Arial"
     x="784.953"
     y="108.48055"
     id="text2590"
     sodipodi:linespacing="100%"><tspan
       id="tspan2592"
       sodipodi:role="line"
       x="784.953"
       y="108.48055">Task</tspan><tspan
       id="tspan2594"
       sodipodi:role="line"
       x="784.953"
       y="120.48055">Coord</tspan></text>
  <path
     style="fill:none;stroke:#000000;stroke-width:1;stroke-miterlimit:4;stroke-dasharray:4, 4;stroke-dashoffset:0"
     d="M 565.38397,404.50739 C 565.38397,404.50739 565.38397,404.50739 567.61397,407.77239 C 569.84497,411.03839 574.30997,417.57739 575.74297,422.51829 C 577.17697,427.46029 575.58697,430.80729 575.89997,434.55439 C 576.21597,438.30039 578.44997,442.44439 579.56397,445.95239 C 580.67697,449.46029 580.67697,452.32739 582.98897,455.99539 C 585.29797,459.65939 589.92297,464.12429 592.47397,468.11239 C 595.02497,472.09739 595.50097,475.60439 597.01697,479.83129 C 598.52797,484.05429 601.07897,488.99919 603.55197,494.26059 C 606.02097,499.51859 608.41137,505.10059 609.61057,507.88959 C 610.80587,510.67859 610.80587,510.67859 610.80587,510.67859"
     id="path2596" />
  <path
     style="fill:none;stroke:#000000;stroke-width:1;stroke-miterlimit:4;stroke-dasharray:3, 3;stroke-dashoffset:0"
     d="M 485.50497,465.25339 C 485.50497,465.25339 485.50497,465.25339 487.89597,466.68639 C 490.28597,468.12039 495.06797,470.99139 499.37197,473.06139 C 503.67697,475.13239 507.50097,476.40939 510.44997,479.43639 C 513.39997,482.46439 515.46997,487.24539 516.98497,492.42859 C 518.49697,497.60859 519.45397,503.19059 519.45397,509.00659 C 519.45397,514.82359 518.50097,520.88559 515.46997,526.46359 C 512.44297,532.04259 507.34097,537.14359 503.43497,540.17459 C 499.53197,543.20259 496.82097,544.15959 495.46597,544.63559 C 494.11397,545.11259 494.11397,545.11259 494.11397,545.11259"
     id="path2598" />
  <path
     style="fill:none;stroke:#000000;stroke-width:1;stroke-miterlimit:4;stroke-dasharray:4, 4;stroke-dashoffset:0"
     d="M 576.38797,499.69459 C 576.38797,499.69459 576.38797,499.69459 573.99697,499.05759 C 571.60697,498.42059 566.82497,497.14759 557.41897,497.54559 C 548.01297,497.94459 533.98197,500.01459 526.96997,501.05359 C 519.95397,502.08859 519.95397,502.08859 519.95397,502.08859"
     id="path2600" />
  <path
     style="fill:none;fill-rule:evenodd;stroke:#000000;stroke-width:1px;stroke-linecap:butt;stroke-linejoin:miter;marker-start:none;marker-end:url(#Arrow2Mend);stroke-opacity:1"
     d="M 539.71815,501.78816 C 545.54988,509.27245 548.52758,515.25663 548.52758,515.25663"
     id="path2602"
     sodipodi:nodetypes="cc" />
  <path
     style="fill:none;fill-rule:evenodd;stroke:#000000;stroke-width:1px;stroke-linecap:butt;stroke-linejoin:miter;marker-start:url(#Arrow2Mstart);marker-end:none;stroke-opacity:1"
     d="M 503.00413,490.8245 C 495.19592,496.2228 490.32569,499.85784 490.32569,499.85784"
     id="path2608"
     sodipodi:nodetypes="cc" />
  <path
     style="fill:none;fill-rule:evenodd;stroke:#000000;stroke-width:1px;stroke-linecap:butt;stroke-linejoin:miter;marker-start:url(#Arrow2Mstart);marker-end:none;stroke-opacity:1"
     d="M 630.25959,502.71723 C 615.80771,515.76342 594.93074,533.62009 594.93074,533.62009"
     id="path2610"
     sodipodi:nodetypes="cc" />
  <path
     style="fill:none;fill-rule:evenodd;stroke:#000000;stroke-width:1px;stroke-linecap:butt;stroke-linejoin:miter;marker-start:none;marker-end:url(#Arrow2Mend);stroke-opacity:1"
     d="M 648.38252,463.70766 C 644.85134,467.62595 635.37621,476.44781 635.37621,476.44781"
     id="path2614"
     sodipodi:nodetypes="cc" />
  <text
     transform="matrix(0.9795211,0.2013414,-0.2013414,0.9795211,0,0)"
     sodipodi:linespacing="100%"
     id="text2616"
     y="434.87646"
     x="681.8504"
     style="font-size:7.99999905px;font-style:normal;font-variant:normal;font-weight:normal;font-stretch:normal;text-align:start;line-height:100%;writing-mode:lr-tb;text-anchor:start;fill:#000000;fill-opacity:1;stroke:none;stroke-width:1px;stroke-linecap:butt;stroke-linejoin:miter;stroke-opacity:1;font-family:Arial;-inkscape-font-specification:Arial"
     xml:space="preserve"><tspan
       y="434.87646"
       x="681.8504"
       id="tspan2618"
       sodipodi:role="line">IT</tspan></text>
  <text
     inkscape:transform-center-y="-8.3259902"
     inkscape:transform-center-x="71.880168"
     transform="matrix(0.955277,0.2957124,-0.2957124,0.955277,0,0)"
     sodipodi:linespacing="100%"
     id="text2620"
     y="266.70422"
     x="766.79529"
     style="font-size:7.99999809px;font-style:normal;font-variant:normal;font-weight:normal;font-stretch:normal;text-align:start;line-height:100%;writing-mode:lr-tb;text-anchor:start;fill:#000000;fill-opacity:1;stroke:none;stroke-width:1px;stroke-linecap:butt;stroke-linejoin:miter;stroke-opacity:1;font-family:Arial;-inkscape-font-specification:Arial"
     xml:space="preserve"><tspan
       y="266.70422"
       x="766.79529"
       id="tspan2622"
       sodipodi:role="line">44/45/47</tspan></text>
  <text
     sodipodi:linespacing="100%"
     id="text2624"
     y="433.88364"
     x="654.15527"
     style="font-size:8px;font-style:normal;font-variant:normal;font-weight:normal;font-stretch:normal;text-align:start;line-height:100%;writing-mode:lr-tb;text-anchor:start;fill:#000000;fill-opacity:1;stroke:none;stroke-width:1px;stroke-linecap:butt;stroke-linejoin:miter;stroke-opacity:1;font-family:Arial;-inkscape-font-specification:Arial"
     xml:space="preserve"><tspan
       y="433.88364"
       x="654.15527"
       id="tspan2626"
       sodipodi:role="line">9/46</tspan></text>
  <text
     sodipodi:linespacing="100%"
     id="text2628"
     y="422.50662"
     x="616.13892"
     style="font-size:8px;font-style:normal;font-variant:normal;font-weight:normal;font-stretch:normal;text-align:start;line-height:100%;writing-mode:lr-tb;text-anchor:start;fill:#000000;fill-opacity:1;stroke:none;stroke-width:1px;stroke-linecap:butt;stroke-linejoin:miter;stroke-opacity:1;font-family:Arial;-inkscape-font-specification:Arial"
     xml:space="preserve"><tspan
       y="422.50662"
       x="616.13892"
       id="tspan2630"
       sodipodi:role="line">8</tspan></text>
  <text
     sodipodi:linespacing="100%"
     id="text2632"
     y="411.20441"
     x="573.67694"
     style="font-size:8px;font-style:normal;font-variant:normal;font-weight:normal;font-stretch:normal;text-align:start;line-height:100%;writing-mode:lr-tb;text-anchor:start;fill:#000000;fill-opacity:1;stroke:none;stroke-width:1px;stroke-linecap:butt;stroke-linejoin:miter;stroke-opacity:1;font-family:Arial;-inkscape-font-specification:Arial"
     xml:space="preserve"><tspan
       y="411.20441"
       x="573.67694"
       id="tspan2634"
       sodipodi:role="line">M1</tspan></text>
  <text
     transform="matrix(0.7628501,-0.6465753,0.6465753,0.7628501,0,0)"
     sodipodi:linespacing="100%"
     id="text2636"
     y="669.41003"
     x="100.77432"
     style="font-size:7.99999714px;font-style:normal;font-variant:normal;font-weight:normal;font-stretch:normal;text-align:start;line-height:100%;writing-mode:lr-tb;text-anchor:start;fill:#000000;fill-opacity:1;stroke:none;stroke-width:1px;stroke-linecap:butt;stroke-linejoin:miter;stroke-opacity:1;font-family:Arial;-inkscape-font-specification:Arial"
     xml:space="preserve"><tspan
       y="669.41003"
       x="100.77432"
       id="tspan2638"
       sodipodi:role="line">IPS/PPC</tspan></text>
  <text
     transform="matrix(0.9805737,0.1961511,-0.1961511,0.9805737,0,0)"
     sodipodi:linespacing="100%"
     id="text2640"
     y="307.85388"
     x="670.81659"
     style="font-size:12px;font-style:normal;font-variant:normal;font-weight:normal;font-stretch:normal;text-align:start;line-height:100%;writing-mode:lr-tb;text-anchor:start;fill:#81ff1e;fill-opacity:1;stroke:none;stroke-width:1px;stroke-linecap:butt;stroke-linejoin:miter;stroke-opacity:1;font-family:Arial;-inkscape-font-specification:Arial"
     xml:space="preserve"><tspan
       id="tspan2642"
       y="307.85388"
       x="670.81659"
       sodipodi:role="line">Reading'</tspan><tspan
       id="tspan2644"
       y="319.85388"
       x="670.81659"
       sodipodi:role="line">Naming'</tspan></text>
  <path
     sodipodi:nodetypes="cc"
     id="path2646"
     d="M 593.11652,431.80963 C 586.59036,429.65926 529.51748,455.30219 529.51748,455.30219"
     style="fill:none;fill-rule:evenodd;stroke:#000000;stroke-width:1px;stroke-linecap:butt;stroke-linejoin:miter;marker-start:none;marker-end:url(#Arrow2Mend);stroke-opacity:1" />
  <text
     xml:space="preserve"
     style="font-size:14px;font-style:normal;font-variant:normal;font-weight:normal;font-stretch:normal;text-align:start;line-height:100%;writing-mode:lr-tb;text-anchor:start;fill:#000000;fill-opacity:1;stroke:none;stroke-width:1px;stroke-linecap:butt;stroke-linejoin:miter;stroke-opacity:1;font-family:Arial;-inkscape-font-specification:Arial"
     x="292.61926"
     y="393.94876"
     id="text2648"
     sodipodi:linespacing="100%"><tspan
       sodipodi:role="line"
       id="tspan2650"
       x="292.61926"
       y="393.94876">What/How Stroop</tspan></text>
  <text
     sodipodi:linespacing="100%"
     id="text2652"
     y="395.30035"
     x="533.20227"
     style="font-size:14px;font-style:normal;font-variant:normal;font-weight:normal;font-stretch:normal;text-align:start;line-height:100%;writing-mode:lr-tb;text-anchor:start;fill:#000000;fill-opacity:1;stroke:none;stroke-width:1px;stroke-linecap:butt;stroke-linejoin:miter;stroke-opacity:1;font-family:Arial;-inkscape-font-specification:Arial"
     xml:space="preserve"><tspan
       y="395.30035"
       x="533.20227"
       id="tspan2654"
       sodipodi:role="line">Banich et al Stroop</tspan></text>
  <text
     sodipodi:linespacing="100%"
     id="text7411"
     y="721.67627"
     x="24.377546"
     style="font-size:12.00000572px;font-style:normal;font-variant:normal;font-weight:normal;font-stretch:normal;text-align:start;line-height:100%;writing-mode:lr-tb;text-anchor:start;fill:#02ffff;fill-opacity:1;stroke:none;stroke-width:0.5;stroke-linecap:butt;stroke-linejoin:miter;stroke-miterlimit:4;stroke-dasharray:none;stroke-opacity:1;font-family:Arial;-inkscape-font-specification:Arial"
     xml:space="preserve"
     transform="matrix(0.7275593,-0.6860448,0.6860448,0.7275593,0,0)"><tspan
       y="721.67627"
       x="24.377546"
       sodipodi:role="line"
       id="tspan7415">Color</tspan><tspan
       y="721.67627"
       x="24.377546"
       sodipodi:role="line"
       id="tspan10188">Naming</tspan></text>
  <path
     style="fill:none;fill-rule:evenodd;stroke:#000000;stroke-width:1px;stroke-linecap:butt;stroke-linejoin:miter;marker-start:none;marker-end:url(#Arrow2Mend);stroke-opacity:1"
     d="M 593.96735,441.61194 C 587.28614,443.21705 544.45598,481.01992 544.45598,481.01992"
     id="path7429"
     sodipodi:nodetypes="cc" />
</svg>
