<?xml version="1.0" encoding="ISO-8859-1" standalone="yes"?>
<svg width="192.316" height="124.218">
  <defs> 
    <marker id="ArrowEnd" viewBox="0 0 10 10" refX="0" refY="5" 
     markerUnits="strokeWidth" 
     markerWidth="4" 
     markerHeight="3" 
     orient="auto"> 
        <path d="M 0 0 L 10 5 L 0 10 z" /> 
    </marker>
    <marker id="ArrowStart" viewBox="0 0 10 10" refX="10" refY="5" 
     markerUnits="strokeWidth" 
     markerWidth="4" 
     markerHeight="3" 
     orient="auto"> 
        <path d="M 10 0 L 0 5 L 10 10 z" /> 
    </marker> </defs>
<g>
<path style="stroke:#000000; stroke-width:1.9139600000000001; fill:none" d="M 98.0698 87.3905L 124.863 52.9413"/>
<path style="stroke:#000000; stroke-width:1.9139600000000001; fill:none" d="M 98.0698 87.3905L 82.7608 52.9413"/>
<path style="stroke:#000000; stroke-width:1.9139600000000001; fill:none" d="M 10.0308 60.5937L 182.285 60.5937L 182.285 18.488L 10.0308 18.488L 10.0308 60.5937z"/>
<path style="stroke:none; fill-rule:evenodd; fill:#ffffff" d="M 78.9328 56.7655L 90.4138 56.7655L 90.4138 52.9413L 78.9328 52.9413L 78.9328 56.7655z"/>
<path style="stroke:#000000; stroke-width:1.9139600000000001; fill:none" d="M 78.9328 56.7655L 90.4138 56.7655L 90.4138 52.9413L 78.9328 52.9413L 78.9328 56.7655z"/>
<path style="stroke:none; fill-rule:evenodd; fill:#ffffff" d="M 117.21 56.7655L 128.691 56.7655L 128.691 52.9413L 117.21 52.9413L 117.21 56.7655z"/>
<path style="stroke:#000000; stroke-width:1.9139600000000001; fill:none" d="M 117.21 56.7655L 128.691 56.7655L 128.691 52.9413L 117.21 52.9413L 117.21 56.7655z"/>
<path style="stroke:none; fill-rule:evenodd; fill:#000000" d="M 27.8778 42.996L 30.7808 34.5976L 29.6438 34.5976L 27.3278 41.7069L 24.8748 34.5976L 23.7298 34.5976L 26.7378 42.996L 27.8778 42.996z"/>
<path style="stroke:none; fill-rule:evenodd; fill:#000000" d="M 36.9798 40.2968C 36.9798 39.3788 36.9138 38.828 36.7418 38.3827C 36.3548 37.3983 35.4408 36.8007 34.3238 36.8007C 32.6598 36.8007 31.5848 38.0937 31.5848 40.0819C 31.5848 42.0702 32.6208 43.2968 34.2958 43.2968C 35.6598 43.2968 36.6088 42.5038 36.8468 41.1718L 35.8938 41.1718C 35.6318 41.9765 35.1008 42.3944 34.3388 42.3944C 33.7378 42.3944 33.2258 42.1171 32.9098 41.6015C 32.6828 41.2538 32.6048 40.9022 32.5928 40.2968L 36.9798 40.2968zM 32.5578 39.5312C 32.6358 38.4179 33.3158 37.6952 34.2808 37.6952C 35.2218 37.6952 35.9448 38.4726 35.9448 39.4608C 35.9448 39.4804 35.9448 39.5038 35.9368 39.5272L 32.5578 39.5312z"/>
<path style="stroke:none; fill-rule:evenodd; fill:#000000" d="M 38.2768 36.9726L 38.2768 42.996L 39.2768 42.996L 39.2768 39.6483C 39.2768 38.4101 39.9018 37.5976 40.8668 37.5976C 41.6048 37.5976 42.0738 38.0585 42.0738 38.789L 42.0738 42.9921L 43.0738 42.9921L 43.0738 38.4413C 43.0738 37.4413 42.3318 36.7968 41.1708 36.7968C 40.2808 36.7968 39.7068 37.1405 39.1788 37.9804L 39.1788 36.9687L 38.2768 36.9726z"/>
<path style="stroke:none; fill-rule:evenodd; fill:#000000" d="M 46.7768 36.996L 45.8778 36.996L 45.8778 35.328L 44.8778 35.328L 44.8778 36.996L 43.9798 36.996L 43.9798 37.7929L 44.8778 37.7929L 44.8778 42.3398C 44.8778 42.9452 45.2808 43.289 46.0108 43.289C 46.2338 43.289 46.4598 43.2655 46.7728 43.2069L 46.7728 42.371C 46.6598 42.4608 46.5228 42.4882 46.3548 42.4882C 45.9798 42.4882 45.8748 42.3749 45.8748 41.9452L 45.8748 37.7929L 46.7728 37.7929L 46.7768 36.996z"/>
<path style="stroke:none; fill-rule:evenodd; fill:#000000" d="M 47.8778 36.9726L 47.8778 42.996L 48.8778 42.996L 48.8778 39.8632C 48.8778 38.9999 49.0888 38.4374 49.5388 38.1015C 49.8278 37.8827 50.1088 37.8163 50.7608 37.8046L 50.7608 36.8398C 50.6048 36.8202 50.5228 36.8085 50.3978 36.8085C 49.7888 36.8085 49.3238 37.1757 48.7768 38.0741L 48.7768 36.9843L 47.8778 36.9726z"/>
<path style="stroke:none; fill-rule:evenodd; fill:#000000" d="M 54.0148 36.7968C 52.3118 36.7968 51.2808 38.0077 51.2808 40.0468C 51.2808 42.078 52.2998 43.2968 54.0308 43.2968C 55.7338 43.2968 56.7808 42.0858 56.7808 40.0937C 56.7808 38.0038 55.7728 36.8007 54.0188 36.8007L 54.0148 36.7968zM 54.0268 37.6991C 55.1208 37.6991 55.7768 38.5858 55.7768 40.0819C 55.7768 41.496 55.1008 42.3944 54.0268 42.3944C 52.9448 42.3944 52.2808 41.5077 52.2808 40.0468C 52.2808 38.5976 52.9448 37.6991 54.0268 37.6991z"/>
<path style="stroke:none; fill-rule:evenodd; fill:#000000" d="M 58.0778 36.9726L 58.0778 42.996L 59.0778 42.996L 59.0778 39.1874C 59.0778 38.3085 59.7028 37.6015 60.4718 37.6015C 61.1748 37.6015 61.5738 38.039 61.5738 38.8163L 61.5738 42.996L 62.5738 42.996L 62.5738 39.1874C 62.5738 38.3085 63.1988 37.6015 63.9678 37.6015C 64.6598 37.6015 65.0698 38.0507 65.0698 38.8163L 65.0698 42.996L 66.0698 42.996L 66.0698 38.4765C 66.0698 37.3983 65.4488 36.7968 64.3158 36.7968C 63.5108 36.7968 63.0228 37.039 62.4598 37.7226C 62.1048 37.0741 61.6208 36.7968 60.8348 36.7968C 60.0308 36.7968 59.4998 37.0937 58.9798 37.8202L 58.9798 36.9726L 58.0778 36.9726z"/>
<path style="stroke:none; fill-rule:evenodd; fill:#000000" d="M 72.6788 40.2968C 72.6788 39.3788 72.6128 38.828 72.4408 38.3827C 72.0538 37.3983 71.1398 36.8007 70.0228 36.8007C 68.3588 36.8007 67.2848 38.0937 67.2848 40.0819C 67.2848 42.0702 68.3198 43.2968 69.9958 43.2968C 71.3588 43.2968 72.3078 42.5038 72.5458 41.1718L 71.5928 41.1718C 71.3318 41.9765 70.7998 42.3944 70.0388 42.3944C 69.4368 42.3944 68.9248 42.1171 68.6088 41.6015C 68.3818 41.2538 68.3038 40.9022 68.2918 40.2968L 72.6788 40.2968zM 68.2568 39.5312C 68.3348 38.4179 69.0148 37.6952 69.9798 37.6952C 70.9208 37.6952 71.6438 38.4726 71.6438 39.4608C 71.6438 39.4804 71.6438 39.5038 71.6358 39.5272L 68.2568 39.5312z"/>
<path style="stroke:none; fill-rule:evenodd; fill:#000000" d="M 78.8778 34.5976L 77.8778 34.5976L 77.8778 37.7343C 77.4798 37.121 76.8428 36.7968 76.0418 36.7968C 74.4958 36.7968 73.4798 38.0546 73.4798 39.9882C 73.4798 42.0351 74.4918 43.2929 76.1318 43.2929C 76.9678 43.2929 77.5498 42.9726 78.0778 42.203L 78.0778 42.9921L 78.8748 42.9921L 78.8778 34.5976zM 76.2068 37.6991C 77.2258 37.6991 77.8778 38.6249 77.8778 40.0702C 77.8778 41.4687 77.2218 42.3944 76.2178 42.3944C 75.1748 42.3944 74.4798 41.4569 74.4798 40.0468C 74.4798 38.6366 75.1708 37.6991 76.2068 37.6991z"/>
<path style="stroke:none; fill-rule:evenodd; fill:#000000" d="M 81.2768 36.996L 80.2768 36.996L 80.2768 42.996L 81.2768 42.996L 81.2768 36.996zM 81.2768 34.5976L 80.2768 34.5976L 80.2768 35.828L 81.2768 35.828L 81.2768 34.5976z"/>
<path style="stroke:none; fill-rule:evenodd; fill:#000000" d="M 88.3238 42.4335C 88.2178 42.496 88.1708 42.496 88.1128 42.496C 87.7728 42.496 87.5848 42.3241 87.5848 42.0233L 87.5848 38.4569C 87.5848 37.3827 86.8078 36.8007 85.3348 36.8007C 84.4678 36.8007 83.7498 37.0546 83.3468 37.5038C 83.0738 37.8124 82.9598 38.1601 82.9368 38.7616L 83.8818 38.7616C 83.9598 38.0312 84.3858 37.703 85.2688 37.703C 86.1128 37.703 86.5848 38.0233 86.5848 38.6015L 86.5848 38.8554C 86.5848 39.2577 86.3508 39.4296 85.6088 39.5233C 84.2848 39.6952 84.0818 39.7421 83.7218 39.8905C 83.0388 40.1757 82.6908 40.7187 82.6908 41.5038C 82.6908 42.5976 83.4448 43.289 84.6598 43.289C 85.4138 43.289 86.0188 43.0155 86.6948 42.371C 86.7608 43.0038 87.0578 43.289 87.6788 43.289C 87.8708 43.289 88.0188 43.2655 88.3278 43.1835L 88.3238 42.4335zM 86.5778 41.1366C 86.5778 41.4648 86.4918 41.6679 86.2098 41.9413C 85.8318 42.3046 85.3748 42.496 84.8278 42.496C 84.1048 42.496 83.6828 42.1327 83.6828 41.5038C 83.6828 40.8554 84.0928 40.5233 85.0848 40.371C 86.0658 40.2304 86.2648 40.1835 86.5778 40.0272L 86.5778 41.1366z"/>
<path style="stroke:none; fill-rule:evenodd; fill:#000000" d="M 89.2768 42.996L 90.2768 42.996L 90.2768 34.5976L 89.2768 34.5976L 89.2768 42.996z"/>
<path style="stroke:#000000; stroke-width:1.9139600000000001; fill:none" d="M 17.6828 52.9374L 98.0658 52.9374L 98.0658 26.144L 17.6828 26.144L 17.6828 52.9374z"/>
<path style="stroke:none; fill-rule:evenodd; fill:#000000" d="M 126.378 42.996L 129.632 42.996C 131.761 42.996 133.074 41.4062 133.074 38.7929C 133.074 36.1913 131.777 34.6015 129.632 34.6015L 126.378 34.6015L 126.378 42.996zM 127.48 42.0976L 127.48 35.4999L 129.453 35.4999C 131.105 35.4999 131.976 36.6327 131.976 38.8046C 131.976 40.953 131.105 42.0976 129.453 42.0976L 127.48 42.0976z"/>
<path style="stroke:none; fill-rule:evenodd; fill:#000000" d="M 136.816 36.7968C 135.113 36.7968 134.082 38.0077 134.082 40.0468C 134.082 42.078 135.101 43.2968 136.832 43.2968C 138.535 43.2968 139.582 42.0858 139.582 40.0937C 139.582 38.0038 138.574 36.8007 136.82 36.8007L 136.816 36.7968zM 136.828 37.6991C 137.921 37.6991 138.578 38.5858 138.578 40.0819C 138.578 41.496 137.902 42.3944 136.828 42.3944C 135.746 42.3944 135.082 41.5077 135.082 40.0468C 135.082 38.5976 135.746 37.6991 136.828 37.6991z"/>
<path style="stroke:none; fill-rule:evenodd; fill:#000000" d="M 140.777 36.9726L 140.777 42.996L 141.777 42.996L 141.777 39.8632C 141.777 38.9999 141.988 38.4374 142.437 38.1015C 142.726 37.8827 143.007 37.8163 143.66 37.8046L 143.66 36.8398C 143.503 36.8202 143.421 36.8085 143.296 36.8085C 142.687 36.8085 142.222 37.1757 141.675 38.0741L 141.675 36.9843L 140.777 36.9726z"/>
<path style="stroke:none; fill-rule:evenodd; fill:#000000" d="M 148.91 38.6562C 148.898 37.4687 148.113 36.8007 146.71 36.8007C 145.3 36.8007 144.382 37.5272 144.382 38.6444C 144.382 39.5898 144.871 40.039 146.32 40.3866L 147.23 40.6054C 147.906 40.7655 148.175 41.0077 148.175 41.4452C 148.175 42.0077 147.609 42.3905 146.765 42.3905C 146.246 42.3905 145.808 42.2421 145.566 41.9843C 145.418 41.8124 145.347 41.6366 145.292 41.203L 144.277 41.203C 144.32 42.6132 145.105 43.2929 146.687 43.2929C 148.21 43.2929 149.179 42.5429 149.179 41.3788C 149.179 40.4804 148.668 39.9843 147.453 39.6952L 146.519 39.4765C 145.726 39.2929 145.386 39.039 145.386 38.6132C 145.386 38.0624 145.882 37.703 146.671 37.703C 147.449 37.703 147.867 38.0312 147.89 38.6601L 148.91 38.6562z"/>
<path style="stroke:none; fill-rule:evenodd; fill:#000000" d="M 155.722 42.4335C 155.617 42.496 155.57 42.496 155.511 42.496C 155.171 42.496 154.984 42.3241 154.984 42.0233L 154.984 38.4569C 154.984 37.3827 154.207 36.8007 152.734 36.8007C 151.867 36.8007 151.148 37.0546 150.746 37.5038C 150.472 37.8124 150.359 38.1601 150.335 38.7616L 151.281 38.7616C 151.359 38.0312 151.785 37.703 152.668 37.703C 153.511 37.703 153.984 38.0233 153.984 38.6015L 153.984 38.8554C 153.984 39.2577 153.75 39.4296 153.007 39.5233C 151.683 39.6952 151.48 39.7421 151.121 39.8905C 150.437 40.1757 150.089 40.7187 150.089 41.5038C 150.089 42.5976 150.843 43.289 152.058 43.289C 152.812 43.289 153.418 43.0155 154.093 42.371C 154.16 43.0038 154.457 43.289 155.078 43.289C 155.269 43.289 155.418 43.2655 155.726 43.1835L 155.722 42.4335zM 153.98 41.1366C 153.98 41.4648 153.894 41.6679 153.613 41.9413C 153.234 42.3046 152.777 42.496 152.23 42.496C 151.507 42.496 151.085 42.1327 151.085 41.5038C 151.085 40.8554 151.496 40.5233 152.488 40.371C 153.468 40.2304 153.668 40.1835 153.98 40.0272L 153.98 41.1366z"/>
<path style="stroke:none; fill-rule:evenodd; fill:#000000" d="M 156.777 42.996L 157.777 42.996L 157.777 34.5976L 156.777 34.5976L 156.777 42.996z"/>
<path style="stroke:#000000; stroke-width:1.9139600000000001; fill:none" d="M 109.554 52.9374L 174.628 52.9374L 174.628 26.144L 109.554 26.144L 109.554 52.9374z"/>
<path style="stroke:#000000; stroke-width:1.9139600000000001; fill:none" d="M 63.6208 52.9374L 78.9288 87.3866"/>
<path style="stroke:#000000; stroke-width:1.9139600000000001; fill:none" d="M 77.5738 79.6171L 78.9328 87.3866L 74.0778 81.1679"/>
<path style="stroke:#000000; stroke-width:1.9139600000000001; fill:none" d="M 59.7918 114.187L 132.523 114.187L 132.523 87.3944L 59.7918 87.3944L 59.7918 114.187z"/>
<path style="stroke:none; fill-rule:evenodd; fill:#000000" d="M 89.1788 104.199L 92.0818 95.8007L 90.9448 95.8007L 88.6278 102.91L 86.1748 95.8007L 85.0308 95.8007L 88.0388 104.199L 89.1788 104.199z"/>
<path style="stroke:none; fill-rule:evenodd; fill:#000000" d="M 96.4798 96.6991L 99.1868 96.6991L 99.1868 95.8007L 92.6208 95.8007L 92.6208 96.6991L 95.3778 96.6991L 95.3778 104.199L 96.4758 104.199L 96.4798 96.6991z"/>
<path style="stroke:none; fill-rule:evenodd; fill:#000000" d="M 104.82 101.699L 105.679 104.199L 106.871 104.199L 103.933 95.8007L 102.558 95.8007L 99.5738 104.199L 100.71 104.199L 101.593 101.699L 104.82 101.699zM 104.523 100.797L 101.863 100.797L 103.238 96.9765L 104.523 100.797z"/>
<path style="stroke:none; fill-rule:evenodd; fill:#000000" d="M 60.9798 4.69901L 64.9758 4.69901L 64.9758 3.801L 60.9798 3.801L 60.9798 1.004L 65.4798 1.004L 65.4798 0.104996L 59.8818 0.104996L 59.8818 8.50401L 60.9798 8.50401L 60.9798 4.69901z"/>
<path style="stroke:none; fill-rule:evenodd; fill:#000000" d="M 66.6788 2.473L 66.6788 8.496L 67.6788 8.496L 67.6788 5.363C 67.6788 4.5 67.8898 3.937 68.3388 3.60101C 68.6278 3.383 68.9098 3.316 69.5618 3.305L 69.5618 2.34C 69.4058 2.32 69.3238 2.308 69.1988 2.308C 68.5888 2.308 68.1248 2.676 67.5778 3.57401L 67.5778 2.484L 66.6788 2.473z"/>
<path style="stroke:none; fill-rule:evenodd; fill:#000000" d="M 72.8158 2.297C 71.1128 2.297 70.0818 3.508 70.0818 5.547C 70.0818 7.578 71.1008 8.797 72.8318 8.797C 74.5348 8.797 75.5818 7.586 75.5818 5.594C 75.5818 3.50401 74.5738 2.301 72.8198 2.301L 72.8158 2.297zM 72.8278 3.19901C 73.9208 3.19901 74.5778 4.086 74.5778 5.582C 74.5778 6.996 73.9018 7.894 72.8278 7.894C 71.7458 7.894 71.0818 7.008 71.0818 5.547C 71.0818 4.098 71.7458 3.19901 72.8278 3.19901z"/>
<path style="stroke:none; fill-rule:evenodd; fill:#000000" d="M 76.8778 2.473L 76.8778 8.496L 77.8778 8.496L 77.8778 5.148C 77.8778 3.91 78.5028 3.098 79.4678 3.098C 80.2068 3.098 80.6748 3.558 80.6748 4.289L 80.6748 8.492L 81.6748 8.492L 81.6748 3.941C 81.6748 2.941 80.9328 2.297 79.7728 2.297C 78.8818 2.297 78.3078 2.641 77.7808 3.48L 77.7808 2.469L 76.8778 2.473z"/>
<path style="stroke:none; fill-rule:evenodd; fill:#000000" d="M 85.3778 2.496L 84.4798 2.496L 84.4798 0.828003L 83.4798 0.828003L 83.4798 2.496L 82.5818 2.496L 82.5818 3.293L 83.4798 3.293L 83.4798 7.84C 83.4798 8.445 83.8818 8.789 84.6128 8.789C 84.8348 8.789 85.0618 8.766 85.3748 8.707L 85.3748 7.871C 85.2608 7.961 85.1248 7.988 84.9568 7.988C 84.5818 7.988 84.4758 7.875 84.4758 7.445L 84.4758 3.293L 85.3748 3.293L 85.3778 2.496z"/>
<path style="stroke:none; fill-rule:evenodd; fill:#000000" d="M 91.8238 7.93401C 91.7178 7.996 91.6708 7.996 91.6128 7.996C 91.2728 7.996 91.0848 7.82401 91.0848 7.523L 91.0848 3.957C 91.0848 2.883 90.3078 2.301 88.8348 2.301C 87.9678 2.301 87.2498 2.555 86.8468 3.00401C 86.5738 3.312 86.4598 3.66 86.4368 4.262L 87.3818 4.262C 87.4598 3.53101 87.8858 3.203 88.7688 3.203C 89.6128 3.203 90.0848 3.523 90.0848 4.10101L 90.0848 4.355C 90.0848 4.758 89.8508 4.93 89.1088 5.023C 87.7848 5.195 87.5818 5.242 87.2218 5.391C 86.5388 5.676 86.1908 6.219 86.1908 7.00401C 86.1908 8.098 86.9448 8.789 88.1598 8.789C 88.9138 8.789 89.5188 8.516 90.1948 7.871C 90.2608 8.50401 90.5578 8.789 91.1788 8.789C 91.3708 8.789 91.5188 8.766 91.8278 8.68401L 91.8238 7.93401zM 90.0778 6.637C 90.0778 6.965 89.9918 7.168 89.7098 7.441C 89.3318 7.805 88.8748 7.996 88.3278 7.996C 87.6048 7.996 87.1828 7.633 87.1828 7.00401C 87.1828 6.355 87.5928 6.023 88.5848 5.871C 89.5658 5.73 89.7648 5.68401 90.0778 5.527L 90.0778 6.637z"/>
<path style="stroke:none; fill-rule:evenodd; fill:#000000" d="M 92.7768 8.496L 93.7768 8.496L 93.7768 0.0980072L 92.7768 0.0980072L 92.7768 8.496z"/>
<path style="stroke:none; fill-rule:evenodd; fill:#000000" d="M 105.378 2.723C 105.042 0.893997 103.98 0 102.128 0C 100.996 0 100.082 0.354996 99.4598 1.047C 98.6988 1.875 98.2848 3.07 98.2848 4.43C 98.2848 5.808 98.7098 6.996 99.5068 7.812C 100.152 8.48 100.984 8.789 102.085 8.789C 104.144 8.789 105.3 7.676 105.554 5.437L 104.449 5.437C 104.359 6.027 104.246 6.43 104.07 6.777C 103.726 7.488 103.011 7.891 102.113 7.891C 100.445 7.891 99.3858 6.539 99.3858 4.414C 99.3858 2.234 100.398 0.893997 102.023 0.893997C 102.703 0.893997 103.335 1.105 103.679 1.43001C 103.988 1.719 104.16 2.082 104.289 2.715L 105.378 2.723z"/>
<path style="stroke:none; fill-rule:evenodd; fill:#000000" d="M 109.214 2.297C 107.511 2.297 106.48 3.508 106.48 5.547C 106.48 7.578 107.5 8.797 109.23 8.797C 110.933 8.797 111.98 7.586 111.98 5.594C 111.98 3.50401 110.972 2.301 109.218 2.301L 109.214 2.297zM 109.23 3.19901C 110.324 3.19901 110.98 4.086 110.98 5.582C 110.98 6.996 110.304 7.894 109.23 7.894C 108.148 7.894 107.484 7.008 107.484 5.547C 107.484 4.098 108.148 3.19901 109.23 3.19901z"/>
<path style="stroke:none; fill-rule:evenodd; fill:#000000" d="M 113.277 2.473L 113.277 8.496L 114.277 8.496L 114.277 5.363C 114.277 4.5 114.488 3.937 114.937 3.60101C 115.226 3.383 115.507 3.316 116.16 3.305L 116.16 2.34C 116.003 2.32 115.921 2.308 115.796 2.308C 115.187 2.308 114.722 2.676 114.175 3.57401L 114.175 2.484L 113.277 2.473z"/>
<path style="stroke:none; fill-rule:evenodd; fill:#000000" d="M 119.179 2.496L 118.281 2.496L 118.281 0.828003L 117.281 0.828003L 117.281 2.496L 116.382 2.496L 116.382 3.293L 117.281 3.293L 117.281 7.84C 117.281 8.445 117.683 8.789 118.414 8.789C 118.636 8.789 118.863 8.766 119.175 8.707L 119.175 7.871C 119.062 7.961 118.925 7.988 118.757 7.988C 118.382 7.988 118.277 7.875 118.277 7.445L 118.277 3.293L 119.175 3.293L 119.179 2.496z"/>
<path style="stroke:none; fill-rule:evenodd; fill:#000000" d="M 125.378 5.797C 125.378 4.87901 125.312 4.328 125.14 3.883C 124.753 2.898 123.839 2.301 122.722 2.301C 121.058 2.301 119.984 3.594 119.984 5.582C 119.984 7.57 121.019 8.797 122.695 8.797C 124.058 8.797 125.007 8.00401 125.246 6.672L 124.292 6.672C 124.031 7.47601 123.5 7.894 122.738 7.894C 122.136 7.894 121.625 7.617 121.308 7.10101C 121.082 6.75401 121.003 6.402 120.992 5.797L 125.378 5.797zM 120.96 5.03101C 121.039 3.918 121.718 3.195 122.683 3.195C 123.625 3.195 124.347 3.973 124.347 4.961C 124.347 4.98 124.347 5.00401 124.339 5.027L 120.96 5.03101z"/>
<path style="stroke:none; fill-rule:evenodd; fill:#000000" d="M 129.23 5.394L 131.25 2.5L 130.171 2.5L 128.726 4.664L 127.281 2.5L 126.191 2.5L 128.199 5.441L 126.078 8.496L 127.168 8.496L 128.691 6.191L 130.195 8.496L 131.308 8.496L 129.23 5.394z"/>
</g>
</svg>