<?xml version="1.0" encoding="ISO-8859-1" standalone="yes"?>
<svg width="123.31" height="94.6217">
  <defs> 
    <marker id="ArrowEnd" viewBox="0 0 10 10" refX="0" refY="5" 
     markerUnits="strokeWidth" 
     markerWidth="4" 
     markerHeight="3" 
     orient="auto"> 
        <path d="M 0 0 L 10 5 L 0 10 z" /> 
    </marker>
    <marker id="ArrowStart" viewBox="0 0 10 10" refX="10" refY="5" 
     markerUnits="strokeWidth" 
     markerWidth="4" 
     markerHeight="3" 
     orient="auto"> 
        <path d="M 10 0 L 0 5 L 10 10 z" /> 
    </marker> </defs>
<g>
<path style="stroke:#000000; stroke-width:1.91229; fill:none" d="M 44.4438 69.3028C 44.4438 60.857 36.7407 54.006 27.2329 54.006C 17.729 54.006 10.022 60.854 10.022 69.3028C 10.022 77.7481 17.7251 84.5997 27.2329 84.5997C 36.7368 84.5997 44.4438 77.752 44.4438 69.3028"/>
<path style="stroke:none; fill-rule:evenodd; fill:#000000" d="M 23.397 67.9317C 23.061 66.0997 21.9985 65.2051 20.1509 65.2051C 19.022 65.2051 18.1079 65.5606 17.4829 66.252C 16.7212 67.0801 16.3071 68.2754 16.3071 69.6348C 16.3071 71.0137 16.7329 72.2012 17.5298 73.0176C 18.1743 73.6856 19.0063 73.9942 20.104 73.9942C 22.1587 73.9942 23.3149 72.8848 23.5688 70.6426L 22.4634 70.6426C 22.3735 71.2325 22.2602 71.6348 22.0845 71.9786C 21.7407 72.6895 21.0298 73.0879 20.1313 73.0879C 18.4634 73.0879 17.4048 71.7364 17.4048 69.6153C 17.4048 67.4356 18.4165 66.0918 20.0376 66.0918C 20.7134 66.0918 21.3462 66.3028 21.6938 66.627C 22.0024 66.92 22.1743 67.2793 22.3032 67.9122L 23.397 67.9317z"/>
<path style="stroke:none; fill-rule:evenodd; fill:#000000" d="M 30.1392 73.1426C 30.0376 73.2012 29.9907 73.2012 29.9282 73.2012C 29.5884 73.2012 29.4048 73.0293 29.4048 72.7286L 29.4048 69.1622C 29.4048 68.0879 28.6274 67.5059 27.1548 67.5059C 26.2876 67.5059 25.5688 67.7598 25.1665 68.209C 24.8931 68.5176 24.7798 68.8653 24.7563 69.4668L 25.7017 69.4668C 25.7798 68.7364 26.2056 68.4043 27.0884 68.4043C 27.9321 68.4043 28.4048 68.7247 28.4048 69.3028L 28.4048 69.5567C 28.4048 69.959 28.1704 70.1309 27.4282 70.2247C 26.104 70.3965 25.9009 70.4434 25.5415 70.5918C 24.8579 70.877 24.5102 71.42 24.5102 72.2051C 24.5102 73.2989 25.2642 73.9903 26.4751 73.9903C 27.229 73.9903 27.8345 73.7168 28.5102 73.0723C 28.5767 73.7051 28.8735 73.9903 29.4907 73.9903C 29.6821 73.9903 29.8306 73.9668 30.1392 73.8848L 30.1392 73.1426zM 28.4009 71.8458C 28.4009 72.1739 28.311 72.377 28.0337 72.6465C 27.6548 73.0098 27.1978 73.2012 26.6509 73.2012C 25.9282 73.2012 25.5063 72.8379 25.5063 72.209C 25.5063 71.5606 25.9165 71.2286 26.9087 71.0762C 27.8892 70.9356 28.0884 70.8887 28.4009 70.7364L 28.4009 71.8458z"/>
<path style="stroke:none; fill-rule:evenodd; fill:#000000" d="M 33.3032 67.7051L 32.4048 67.7051L 32.4048 66.045L 31.4048 66.045L 31.4048 67.7051L 30.5063 67.7051L 30.5063 68.502L 31.4048 68.502L 31.4048 73.0489C 31.4048 73.6543 31.8071 73.9981 32.5376 73.9981C 32.7602 73.9981 32.9868 73.9747 33.2993 73.9161L 33.2993 73.0801C 33.186 73.1661 33.0493 73.1973 32.8813 73.1973C 32.5063 73.1973 32.4009 73.084 32.4009 72.6543L 32.4009 68.502L 33.2993 68.502L 33.3032 67.7051z"/>
<path style="stroke:none; fill-rule:evenodd; fill:#000000" d="M 38.6274 69.3653C 38.6157 68.1778 37.8306 67.5059 36.4321 67.5059C 35.022 67.5059 34.1079 68.2325 34.1079 69.3536C 34.1079 70.2989 34.5962 70.7481 36.0454 71.0958L 36.9556 71.3145C 37.6313 71.4747 37.9009 71.7168 37.9009 72.1543C 37.9009 72.7168 37.3345 73.0997 36.4907 73.0997C 35.9712 73.0997 35.5337 72.9512 35.2915 72.6934C 35.1431 72.5215 35.0728 72.3458 35.0142 71.9122L 33.9985 71.9122C 34.0415 73.3223 34.8267 73.9981 36.4087 73.9981C 37.9321 73.9981 38.9009 73.2481 38.9009 72.084C 38.9009 71.1856 38.3892 70.6895 37.1743 70.4004L 36.2407 70.1817C 35.4478 69.9981 35.1079 69.7442 35.1079 69.3184C 35.1079 68.7676 35.604 68.4082 36.3931 68.4082C 37.1665 68.4082 37.5845 68.7364 37.6079 69.3692L 38.6274 69.3653z"/>
<path style="stroke:#000000; stroke-width:1.91229; fill:none" d="M 78.866 25.318C 78.866 16.873 71.1626 10.022 61.6548 10.022C 52.1509 10.022 44.4438 16.869 44.4438 25.318C 44.4438 33.764 52.147 40.615 61.6548 40.615C 71.1587 40.615 78.866 33.768 78.866 25.318"/>
<path style="stroke:#000000; stroke-width:1.91229; fill:none" d="M 113.288 69.3028C 113.288 60.857 105.584 54.006 96.077 54.006C 86.573 54.006 78.866 60.854 78.866 69.3028C 78.866 77.7481 86.569 84.5997 96.077 84.5997C 105.581 84.5997 113.288 77.752 113.288 69.3028"/>
<path style="stroke:none; fill-rule:evenodd; fill:#000000" d="M 89.971 73.7051L 92.299 66.6973L 92.299 73.7051L 93.299 73.7051L 93.299 65.3067L 91.834 65.3067L 89.424 72.627L 86.971 65.3067L 85.506 65.3067L 85.506 73.7051L 86.506 73.7051L 86.506 66.6973L 88.858 73.7051L 89.971 73.7051z"/>
<path style="stroke:none; fill-rule:evenodd; fill:#000000" d="M 95.901 67.7051L 94.901 67.7051L 94.901 73.7051L 95.901 73.7051L 95.901 67.7051zM 95.901 65.3028L 94.901 65.3028L 94.901 66.5411L 95.901 66.5411L 95.901 65.3028z"/>
<path style="stroke:none; fill-rule:evenodd; fill:#000000" d="M 97.502 73.7051L 98.502 73.7051L 98.502 65.3067L 97.502 65.3067L 97.502 73.7051z"/>
<path style="stroke:none; fill-rule:evenodd; fill:#000000" d="M 100.901 65.3028L 99.901 65.3028L 99.901 73.7012L 100.901 73.7012L 100.901 71.3614L 101.831 70.4434L 103.866 73.7012L 105.053 73.7012L 102.588 69.7754L 104.682 67.7051L 103.452 67.7051L 100.897 70.2364L 100.901 65.3028z"/>
<path style="stroke:none; fill-rule:evenodd; fill:#000000" d="M 52.2017 21.303L 51.104 21.303L 51.104 29.701L 56.3032 29.701L 56.3032 28.803L 52.2056 28.803L 52.2017 21.303z"/>
<path style="stroke:none; fill-rule:evenodd; fill:#000000" d="M 58.3032 23.705L 57.3032 23.705L 57.3032 29.705L 58.3032 29.705L 58.3032 23.705zM 58.3032 21.303L 57.3032 21.303L 57.3032 22.541L 58.3032 22.541L 58.3032 21.303z"/>
<path style="stroke:none; fill-rule:evenodd; fill:#000000" d="M 60.7017 21.303L 59.7017 21.303L 59.7017 29.701L 60.7017 29.701L 60.7017 27.361L 61.6313 26.443L 63.6665 29.701L 64.854 29.701L 62.3892 25.775L 64.4829 23.705L 63.2524 23.705L 60.6978 26.236L 60.7017 21.303z"/>
<path style="stroke:none; fill-rule:evenodd; fill:#000000" d="M 70.7017 27.002C 70.7017 26.084 70.6352 25.533 70.4634 25.088C 70.0767 24.104 69.1626 23.506 68.0454 23.506C 66.3813 23.506 65.3071 24.799 65.3071 26.787C 65.3071 28.775 66.3423 29.998 68.0142 29.998C 69.3774 29.998 70.3228 29.205 70.561 27.877L 69.6079 27.877C 69.3501 28.678 68.8149 29.1 68.0532 29.1C 67.4517 29.1 66.9438 28.822 66.6235 28.307C 66.397 27.959 66.3188 27.607 66.3071 27.002L 70.7017 27.002zM 66.2837 26.24C 66.3618 25.131 67.0376 24.404 68.0024 24.404C 68.9399 24.404 69.6626 25.182 69.6626 26.17C 69.6626 26.19 69.6626 26.213 69.6548 26.236L 66.2837 26.24z"/>
<path style="stroke:#000000; stroke-dasharray:6,3; stroke-width:1.91229; fill:none" d="M 27.2329 54.002L 48.2642 32.967"/>
<path style="stroke:#000000; stroke-dasharray:6,3; stroke-width:1.91229; fill:none" d="M 75.0415 32.967L 96.073 54.002"/>
</g>
</svg>