<?xml version="1.0" encoding="ISO-8859-1" standalone="yes"?>
<svg width="268.555" height="249.52">
  <defs> 
    <marker id="ArrowEnd" viewBox="0 0 10 10" refX="0" refY="5" 
     markerUnits="strokeWidth" 
     markerWidth="4" 
     markerHeight="3" 
     orient="auto"> 
        <path d="M 0 0 L 10 5 L 0 10 z" /> 
    </marker>
    <marker id="ArrowStart" viewBox="0 0 10 10" refX="10" refY="5" 
     markerUnits="strokeWidth" 
     markerWidth="4" 
     markerHeight="3" 
     orient="auto"> 
        <path d="M 10 0 L 0 5 L 10 10 z" /> 
    </marker> </defs>
<g>
<path style="stroke:none; fill-rule:evenodd; fill:#000000" d="M 52.8594 220.449L 52.8594 226.215L 53.8594 226.215L 53.8594 218.117L 53.1914 218.117C 52.836 219.359 52.6055 219.531 51.0352 219.727L 51.0352 220.445L 52.8594 220.449z"/>
<path style="stroke:none; fill-rule:evenodd; fill:#000000" d="M 35.0586 193.219L 40.8555 193.219L 40.8555 192.422L 35.0586 192.422L 35.0586 193.219z"/>
<path style="stroke:none; fill-rule:evenodd; fill:#000000" d="M 35.6563 197.449L 35.6563 203.215L 36.6563 203.215L 36.6563 195.117L 35.9883 195.117C 35.6328 196.359 35.4024 196.531 33.8321 196.727L 33.8321 197.445L 35.6563 197.449z"/>
<path style="stroke:none; fill-rule:evenodd; fill:#000000" d="M 77.0864 192.418L 74.7574 192.418L 74.7574 190.078L 73.9614 190.078L 73.9614 192.418L 71.5352 192.418L 71.5352 193.215L 73.9614 193.215L 73.9614 195.629L 74.7574 195.629L 74.7574 193.215L 77.0864 193.215L 77.0864 192.418z"/>
<path style="stroke:none; fill-rule:evenodd; fill:#000000" d="M 72.0586 197.449L 72.0586 203.215L 73.0586 203.215L 73.0586 195.117L 72.3906 195.117C 72.0352 196.359 71.8047 196.531 70.2344 196.727L 70.2344 197.445L 72.0586 197.449z"/>
<path style="stroke:#000000; stroke-width:1.9133; fill:none" d="M 17.3789 212.258L 53.7422 212.258L 53.7422 183.551L 17.3789 183.551L 17.3789 212.258z"/>
<path style="stroke:#000000; stroke-width:1.9133; fill:none" d="M 53.7422 212.262L 90.1054 212.262L 90.1054 183.555L 53.7422 183.555L 53.7422 212.262z"/>
<path style="stroke:#000000; stroke-width:1.9133; fill:none" d="M 101.589 212.262L 137.953 212.262L 137.953 183.555L 101.589 183.555L 101.589 212.262z"/>
<path style="stroke:#000000; stroke-width:1.9133; fill:none" d="M 137.953 212.266L 174.316 212.266L 174.316 183.559L 137.953 183.559L 137.953 212.266z"/>
<path style="stroke:#000000; stroke-width:1.9133; fill:none" d="M 185.8 212.266L 222.164 212.266L 222.164 183.559L 185.8 183.559L 185.8 212.266z"/>
<path style="stroke:#000000; stroke-width:1.9133; fill:none" d="M 222.164 212.266L 258.527 212.266L 258.527 183.559L 222.164 183.559L 222.164 212.266z"/>
<path style="stroke:none; fill-rule:evenodd; fill:#000000" d="M 119.359 193.219L 125.156 193.219L 125.156 192.422L 119.359 192.422L 119.359 193.219z"/>
<path style="stroke:none; fill-rule:evenodd; fill:#000000" d="M 122.601 202.219L 118.375 202.219C 118.476 201.559 118.839 201.137 119.824 200.555L 120.957 199.941C 122.078 199.328 122.656 198.492 122.656 197.5C 122.656 196.828 122.386 196.199 121.91 195.766C 121.437 195.332 120.847 195.129 120.086 195.129C 119.066 195.129 118.308 195.488 117.867 196.168C 117.586 196.598 117.461 197.094 117.437 197.91L 118.437 197.91C 118.468 197.379 118.539 197.055 118.675 196.797C 118.937 196.32 119.461 196.027 120.062 196.027C 120.972 196.027 121.656 196.676 121.656 197.543C 121.656 198.18 121.281 198.727 120.562 199.137L 119.515 199.727C 117.832 200.68 117.339 201.445 117.25 203.223L 122.601 203.223L 122.601 202.219z"/>
<path style="stroke:none; fill-rule:evenodd; fill:#000000" d="M 161.289 192.418L 158.961 192.418L 158.961 190.078L 158.164 190.078L 158.164 192.418L 155.738 192.418L 155.738 193.215L 158.164 193.215L 158.164 195.629L 158.961 195.629L 158.961 193.215L 161.289 193.215L 161.289 192.418z"/>
<path style="stroke:none; fill-rule:evenodd; fill:#000000" d="M 159 202.219L 154.773 202.219C 154.875 201.559 155.238 201.137 156.222 200.555L 157.355 199.941C 158.476 199.328 159.054 198.492 159.054 197.5C 159.054 196.828 158.785 196.199 158.308 195.766C 157.836 195.332 157.246 195.129 156.484 195.129C 155.464 195.129 154.707 195.488 154.265 196.168C 153.984 196.598 153.859 197.094 153.836 197.91L 154.836 197.91C 154.867 197.379 154.937 197.055 155.074 196.797C 155.336 196.32 155.859 196.027 156.461 196.027C 157.371 196.027 158.054 196.676 158.054 197.543C 158.054 198.18 157.679 198.727 156.961 199.137L 155.914 199.727C 154.23 200.68 153.738 201.445 153.648 203.223L 159 203.223L 159 202.219z"/>
<path style="stroke:none; fill-rule:evenodd; fill:#000000" d="M 203.558 193.219L 209.355 193.219L 209.355 192.422L 203.558 192.422L 203.558 193.219z"/>
<path style="stroke:none; fill-rule:evenodd; fill:#000000" d="M 203.695 199.52L 204.25 199.52C 205.375 199.52 205.953 200.023 205.953 200.992C 205.953 202.008 205.32 202.613 204.257 202.613C 203.152 202.613 202.609 202.055 202.539 200.852L 201.523 200.852C 201.566 201.512 201.683 201.945 201.875 202.316C 202.285 203.105 203.089 203.512 204.199 203.512C 205.871 203.512 206.949 202.516 206.949 200.977C 206.949 199.945 206.55 199.371 205.582 199.039C 206.359 198.742 206.75 198.168 206.75 197.355C 206.75 195.957 205.816 195.121 204.257 195.121C 202.609 195.121 201.73 196 201.695 197.707L 202.718 197.707C 202.73 197.23 202.773 196.965 202.902 196.719C 203.132 196.285 203.644 196.02 204.289 196.02C 205.195 196.02 205.746 196.535 205.746 197.375C 205.746 197.934 205.535 198.27 205.07 198.449C 204.789 198.559 204.421 198.605 203.683 198.617L 203.695 199.52z"/>
<path style="stroke:none; fill-rule:evenodd; fill:#000000" d="M 245.488 192.418L 243.16 192.418L 243.16 190.078L 242.363 190.078L 242.363 192.418L 239.937 192.418L 239.937 193.215L 242.363 193.215L 242.363 195.629L 243.16 195.629L 243.16 193.215L 245.488 193.215L 245.488 192.418z"/>
<path style="stroke:none; fill-rule:evenodd; fill:#000000" d="M 239.996 199.52L 240.55 199.52C 241.675 199.52 242.254 200.023 242.254 200.992C 242.254 202.008 241.621 202.613 240.558 202.613C 239.453 202.613 238.91 202.055 238.839 200.852L 237.824 200.852C 237.867 201.512 237.984 201.945 238.175 202.316C 238.586 203.105 239.39 203.512 240.5 203.512C 242.171 203.512 243.25 202.516 243.25 200.977C 243.25 199.945 242.851 199.371 241.882 199.039C 242.66 198.742 243.05 198.168 243.05 197.355C 243.05 195.957 242.117 195.121 240.558 195.121C 238.91 195.121 238.031 196 237.996 197.707L 239.019 197.707C 239.031 197.23 239.074 196.965 239.203 196.719C 239.433 196.285 239.945 196.02 240.589 196.02C 241.496 196.02 242.047 196.535 242.047 197.375C 242.047 197.934 241.836 198.27 241.371 198.449C 241.089 198.559 240.722 198.605 239.984 198.617L 239.996 199.52z"/>
<path style="stroke:none; fill-rule:evenodd; fill:#000000" d="M 220.793 222.52L 221.347 222.52C 222.472 222.52 223.05 223.023 223.05 223.992C 223.05 225.008 222.418 225.613 221.355 225.613C 220.25 225.613 219.707 225.055 219.636 223.852L 218.621 223.852C 218.664 224.512 218.781 224.945 218.972 225.316C 219.382 226.105 220.187 226.512 221.297 226.512C 222.968 226.512 224.047 225.516 224.047 223.977C 224.047 222.945 223.648 222.371 222.679 222.039C 223.457 221.742 223.847 221.168 223.847 220.355C 223.847 218.957 222.914 218.121 221.355 218.121C 219.707 218.121 218.828 219 218.793 220.707L 219.816 220.707C 219.828 220.23 219.871 219.965 220 219.719C 220.23 219.285 220.742 219.02 221.386 219.02C 222.293 219.02 222.843 219.535 222.843 220.375C 222.843 220.934 222.632 221.27 222.168 221.449C 221.886 221.559 221.519 221.605 220.781 221.617L 220.793 222.52z"/>
<path style="stroke:none; fill-rule:evenodd; fill:#000000" d="M 139.8 225.219L 135.574 225.219C 135.675 224.559 136.039 224.137 137.023 223.555L 138.156 222.941C 139.277 222.328 139.855 221.492 139.855 220.5C 139.855 219.828 139.586 219.199 139.109 218.766C 138.636 218.332 138.047 218.129 137.285 218.129C 136.265 218.129 135.507 218.488 135.066 219.168C 134.785 219.598 134.66 220.094 134.636 220.91L 135.636 220.91C 135.668 220.379 135.738 220.055 135.875 219.797C 136.136 219.32 136.66 219.027 137.261 219.027C 138.171 219.027 138.855 219.676 138.855 220.543C 138.855 221.18 138.48 221.727 137.761 222.137L 136.714 222.727C 135.031 223.68 134.539 224.445 134.449 226.223L 139.8 226.223L 139.8 225.219z"/>
<path style="stroke:#000000; stroke-width:1.9133; fill:none" d="M 17.375 156.758L 53.7383 156.758L 53.7383 128.051L 17.375 128.051L 17.375 156.758z"/>
<path style="stroke:#000000; stroke-width:1.9133; fill:none" d="M 53.7383 156.758L 90.1014 156.758L 90.1014 128.051L 53.7383 128.051L 53.7383 156.758z"/>
<path style="stroke:#000000; stroke-width:1.9133; fill:none" d="M 101.586 156.758L 137.949 156.758L 137.949 128.051L 101.586 128.051L 101.586 156.758z"/>
<path style="stroke:#000000; stroke-width:1.9133; fill:none" d="M 137.949 156.762L 174.312 156.762L 174.312 128.055L 137.949 128.055L 137.949 156.762z"/>
<path style="stroke:#000000; stroke-width:1.9133; fill:none" d="M 185.797 156.762L 222.16 156.762L 222.16 128.055L 185.797 128.055L 185.797 156.762z"/>
<path style="stroke:#000000; stroke-width:1.9133; fill:none" d="M 222.16 156.766L 258.523 156.766L 258.523 128.059L 222.16 128.059L 222.16 156.766z"/>
<path style="stroke:none; fill-rule:evenodd; fill:#000000" d="M 113.418 133.918L 111.664 138.238L 112.453 138.238L 113.839 134.828L 115.238 138.238L 116.027 138.238L 114.25 133.918L 113.418 133.918z"/>
<path style="stroke:none; fill-rule:evenodd; fill:#000000" d="M 197.617 133.918L 195.863 138.238L 196.652 138.238L 198.039 134.828L 199.437 138.238L 200.226 138.238L 198.449 133.918L 197.617 133.918z"/>
<path style="stroke:#000000; stroke-width:1.9133; fill:none" d="M 32.6914 237.141L 241.308 237.141"/>
<path style="stroke:#000000; stroke-width:1.9133; fill:none" d="M 233.66 235.227L 241.312 237.137L 233.66 239.047"/>
<path style="stroke:none; fill-rule:evenodd; fill:#000000" d="M 128.558 241.719L 131.261 241.719L 131.261 240.82L 124.699 240.82L 124.699 241.719L 127.457 241.719L 127.457 249.219L 128.554 249.219L 128.558 241.719z"/>
<path style="stroke:none; fill-rule:evenodd; fill:#000000" d="M 133.257 243.219L 132.257 243.219L 132.257 249.219L 133.257 249.219L 133.257 243.219zM 133.257 240.82L 132.257 240.82L 132.257 242.055L 133.257 242.055L 133.257 240.82z"/>
<path style="stroke:none; fill-rule:evenodd; fill:#000000" d="M 134.859 243.191L 134.859 249.215L 135.859 249.215L 135.859 245.406C 135.859 244.527 136.484 243.82 137.254 243.82C 137.957 243.82 138.355 244.258 138.355 245.035L 138.355 249.215L 139.355 249.215L 139.355 245.406C 139.355 244.527 139.98 243.82 140.75 243.82C 141.441 243.82 141.851 244.27 141.851 245.035L 141.851 249.215L 142.851 249.215L 142.851 244.695C 142.851 243.617 142.23 243.02 141.097 243.02C 140.293 243.02 139.804 243.262 139.242 243.949C 138.886 243.301 138.402 243.02 137.617 243.02C 136.812 243.02 136.281 243.316 135.761 244.039L 135.761 243.191L 134.859 243.191z"/>
<path style="stroke:none; fill-rule:evenodd; fill:#000000" d="M 149.558 246.52C 149.558 245.602 149.492 245.051 149.32 244.605C 148.933 243.621 148.019 243.023 146.902 243.023C 145.238 243.023 144.164 244.316 144.164 246.305C 144.164 248.293 145.199 249.52 146.875 249.52C 148.238 249.52 149.183 248.727 149.425 247.395L 148.472 247.395C 148.211 248.199 147.679 248.617 146.918 248.617C 146.316 248.617 145.804 248.34 145.488 247.824C 145.261 247.477 145.183 247.125 145.171 246.52L 149.558 246.52zM 145.136 245.754C 145.214 244.641 145.894 243.918 146.855 243.918C 147.793 243.918 148.519 244.695 148.519 245.684C 148.519 245.703 148.519 245.727 148.507 245.75L 145.136 245.754z"/>
<path style="stroke:none; fill-rule:evenodd; fill:#000000" d="M 35.0586 86.121L 40.8555 86.121L 40.8555 85.324L 35.0586 85.324L 35.0586 86.121z"/>
<path style="stroke:none; fill-rule:evenodd; fill:#000000" d="M 35.6563 90.25L 35.6563 96.016L 36.6563 96.016L 36.6563 87.918L 35.9883 87.918C 35.6328 89.16 35.4024 89.332 33.8321 89.527L 33.8321 90.246L 35.6563 90.25z"/>
<path style="stroke:none; fill-rule:evenodd; fill:#000000" d="M 77.0864 85.32L 74.7574 85.32L 74.7574 82.98L 73.9614 82.98L 73.9614 85.32L 71.5352 85.32L 71.5352 86.117L 73.9614 86.117L 73.9614 88.531L 74.7574 88.531L 74.7574 86.117L 77.0864 86.117L 77.0864 85.32z"/>
<path style="stroke:none; fill-rule:evenodd; fill:#000000" d="M 72.0586 90.25L 72.0586 96.016L 73.0586 96.016L 73.0586 87.918L 72.3906 87.918C 72.0352 89.16 71.8047 89.332 70.2344 89.527L 70.2344 90.246L 72.0586 90.25z"/>
<path style="stroke:none; fill-rule:evenodd; fill:#000000" d="M 29.2188 21.02L 27.4649 25.34L 28.2539 25.34L 29.6406 21.93L 31.0391 25.34L 31.8282 25.34L 30.0508 21.02L 29.2188 21.02z"/>
<path style="stroke:none; fill-rule:evenodd; fill:#000000" d="M 29.4571 34.918L 32.3594 26.52L 31.2266 26.52L 28.9102 33.633L 26.4571 26.52L 25.3125 26.52L 28.3164 34.918L 29.4571 34.918z"/>
<path style="stroke:none; fill-rule:evenodd; fill:#000000" d="M 35.3828 26.52C 34.2656 28.027 33.5586 30.121 33.5586 31.93C 33.5586 33.746 34.2617 35.84 35.3828 37.348L 35.9961 37.348C 35.0078 35.703 34.4571 33.77 34.4571 31.93C 34.4571 30.102 35.0078 28.156 35.9961 26.52L 35.3828 26.52z"/>
<path style="stroke:none; fill-rule:evenodd; fill:#000000" d="M 39.4571 29.152L 39.4571 34.918L 40.4571 34.918L 40.4571 26.82L 39.7891 26.82C 39.4336 28.063 39.2032 28.234 37.6328 28.43L 37.6328 29.148L 39.4571 29.152z"/>
<path style="stroke:none; fill-rule:evenodd; fill:#000000" d="M 43.9141 37.356C 45.043 35.848 45.7539 33.754 45.7539 31.949C 45.7539 30.133 45.043 28.039 43.9141 26.527L 43.2969 26.527C 44.3008 28.176 44.8594 30.106 44.8594 31.949C 44.8594 33.777 44.3008 35.723 43.2969 37.356L 43.9141 37.356z"/>
<path style="stroke:#000000; stroke-width:1.9133; fill:none" d="M 17.3789 105.113L 53.7422 105.113L 53.7422 76.406L 17.3789 76.406L 17.3789 105.113z"/>
<path style="stroke:#000000; stroke-width:1.9133; fill:none" d="M 53.7422 105.117L 90.1054 105.117L 90.1054 76.41L 53.7422 76.41L 53.7422 105.117z"/>
<path style="stroke:#000000; stroke-width:1.9133; fill:none" d="M 72.8438 76.43L 72.8438 49.645"/>
<path style="stroke:#000000; stroke-width:1.9133; fill:none" d="M 70.9297 57.293L 72.8399 49.641L 74.7504 57.293"/>
<path style="stroke:#000000; stroke-width:1.9133; fill:none" d="M 101.589 105.117L 137.953 105.117L 137.953 76.41L 101.589 76.41L 101.589 105.117z"/>
<path style="stroke:#000000; stroke-width:1.9133; fill:none" d="M 137.953 105.121L 174.316 105.121L 174.316 76.414L 137.953 76.414L 137.953 105.121z"/>
<path style="stroke:#000000; stroke-width:1.9133; fill:none" d="M 157.054 76.43L 157.054 49.645"/>
<path style="stroke:#000000; stroke-width:1.9133; fill:none" d="M 155.14 57.297L 157.05 49.645L 158.961 57.297"/>
<path style="stroke:#000000; stroke-width:1.9133; fill:none" d="M 185.8 105.121L 222.164 105.121L 222.164 76.414L 185.8 76.414L 185.8 105.121z"/>
<path style="stroke:#000000; stroke-width:1.9133; fill:none" d="M 222.164 105.121L 258.527 105.121L 258.527 76.414L 222.164 76.414L 222.164 105.121z"/>
<path style="stroke:#000000; stroke-width:1.9133; fill:none" d="M 241.265 76.434L 241.265 49.648"/>
<path style="stroke:#000000; stroke-width:1.9133; fill:none" d="M 239.351 57.301L 241.261 49.648L 243.171 57.301"/>
<path style="stroke:none; fill-rule:evenodd; fill:#000000" d="M 119.359 86.121L 125.156 86.121L 125.156 85.324L 119.359 85.324L 119.359 86.121z"/>
<path style="stroke:none; fill-rule:evenodd; fill:#000000" d="M 122.601 95.02L 118.375 95.02C 118.476 94.359 118.839 93.938 119.824 93.356L 120.957 92.742C 122.078 92.129 122.656 91.293 122.656 90.301C 122.656 89.629 122.386 89 121.91 88.566C 121.437 88.133 120.847 87.93 120.086 87.93C 119.066 87.93 118.308 88.289 117.867 88.969C 117.586 89.398 117.461 89.895 117.437 90.711L 118.437 90.711C 118.468 90.18 118.539 89.856 118.675 89.598C 118.937 89.121 119.461 88.828 120.062 88.828C 120.972 88.828 121.656 89.477 121.656 90.344C 121.656 90.98 121.281 91.527 120.562 91.938L 119.515 92.527C 117.832 93.48 117.339 94.246 117.25 96.023L 122.601 96.023L 122.601 95.02z"/>
<path style="stroke:none; fill-rule:evenodd; fill:#000000" d="M 161.289 85.32L 158.961 85.32L 158.961 82.98L 158.164 82.98L 158.164 85.32L 155.738 85.32L 155.738 86.117L 158.164 86.117L 158.164 88.531L 158.961 88.531L 158.961 86.117L 161.289 86.117L 161.289 85.32z"/>
<path style="stroke:none; fill-rule:evenodd; fill:#000000" d="M 159 95.02L 154.773 95.02C 154.875 94.359 155.238 93.938 156.222 93.356L 157.355 92.742C 158.476 92.129 159.054 91.293 159.054 90.301C 159.054 89.629 158.785 89 158.308 88.566C 157.836 88.133 157.246 87.93 156.484 87.93C 155.464 87.93 154.707 88.289 154.265 88.969C 153.984 89.398 153.859 89.895 153.836 90.711L 154.836 90.711C 154.867 90.18 154.937 89.856 155.074 89.598C 155.336 89.121 155.859 88.828 156.461 88.828C 157.371 88.828 158.054 89.477 158.054 90.344C 158.054 90.98 157.679 91.527 156.961 91.938L 155.914 92.527C 154.23 93.48 153.738 94.246 153.648 96.023L 159 96.023L 159 95.02z"/>
<path style="stroke:none; fill-rule:evenodd; fill:#000000" d="M 203.558 86.121L 209.355 86.121L 209.355 85.324L 203.558 85.324L 203.558 86.121z"/>
<path style="stroke:none; fill-rule:evenodd; fill:#000000" d="M 203.695 92.32L 204.25 92.32C 205.375 92.32 205.953 92.824 205.953 93.793C 205.953 94.809 205.32 95.414 204.257 95.414C 203.152 95.414 202.609 94.856 202.539 93.652L 201.523 93.652C 201.566 94.313 201.683 94.746 201.875 95.117C 202.285 95.906 203.089 96.313 204.199 96.313C 205.871 96.313 206.949 95.316 206.949 93.777C 206.949 92.746 206.55 92.172 205.582 91.84C 206.359 91.543 206.75 90.969 206.75 90.156C 206.75 88.758 205.816 87.922 204.257 87.922C 202.609 87.922 201.73 88.801 201.695 90.508L 202.718 90.508C 202.73 90.031 202.773 89.766 202.902 89.52C 203.132 89.086 203.644 88.82 204.289 88.82C 205.195 88.82 205.746 89.336 205.746 90.176C 205.746 90.734 205.535 91.07 205.07 91.25C 204.789 91.359 204.421 91.406 203.683 91.418L 203.695 92.32z"/>
<path style="stroke:none; fill-rule:evenodd; fill:#000000" d="M 245.488 85.32L 243.16 85.32L 243.16 82.98L 242.363 82.98L 242.363 85.32L 239.937 85.32L 239.937 86.117L 242.363 86.117L 242.363 88.531L 243.16 88.531L 243.16 86.117L 245.488 86.117L 245.488 85.32z"/>
<path style="stroke:none; fill-rule:evenodd; fill:#000000" d="M 239.996 92.32L 240.55 92.32C 241.675 92.32 242.254 92.824 242.254 93.793C 242.254 94.809 241.621 95.414 240.558 95.414C 239.453 95.414 238.91 94.856 238.839 93.652L 237.824 93.652C 237.867 94.313 237.984 94.746 238.175 95.117C 238.586 95.906 239.39 96.313 240.5 96.313C 242.171 96.313 243.25 95.316 243.25 93.777C 243.25 92.746 242.851 92.172 241.882 91.84C 242.66 91.543 243.05 90.969 243.05 90.156C 243.05 88.758 242.117 87.922 240.558 87.922C 238.91 87.922 238.031 88.801 237.996 90.508L 239.019 90.508C 239.031 90.031 239.074 89.766 239.203 89.52C 239.433 89.086 239.945 88.82 240.589 88.82C 241.496 88.82 242.047 89.336 242.047 90.176C 242.047 90.734 241.836 91.07 241.371 91.25C 241.089 91.359 240.722 91.406 239.984 91.418L 239.996 92.32z"/>
<path style="stroke:none; fill-rule:evenodd; fill:#000000" d="M 113.418 21.02L 111.664 25.34L 112.453 25.34L 113.839 21.93L 115.238 25.34L 116.027 25.34L 114.25 21.02L 113.418 21.02z"/>
<path style="stroke:none; fill-rule:evenodd; fill:#000000" d="M 113.757 34.918L 116.66 26.52L 115.527 26.52L 113.211 33.633L 110.757 26.52L 109.613 26.52L 112.617 34.918L 113.757 34.918z"/>
<path style="stroke:none; fill-rule:evenodd; fill:#000000" d="M 119.582 26.52C 118.464 28.027 117.757 30.121 117.757 31.93C 117.757 33.746 118.461 35.84 119.582 37.348L 120.195 37.348C 119.207 35.703 118.656 33.77 118.656 31.93C 118.656 30.102 119.207 28.156 120.195 26.52L 119.582 26.52z"/>
<path style="stroke:none; fill-rule:evenodd; fill:#000000" d="M 126.402 33.918L 122.175 33.918C 122.277 33.258 122.64 32.836 123.625 32.254L 124.757 31.641C 125.879 31.027 126.457 30.191 126.457 29.199C 126.457 28.527 126.187 27.898 125.711 27.465C 125.238 27.031 124.648 26.828 123.886 26.828C 122.867 26.828 122.109 27.188 121.668 27.867C 121.386 28.297 121.261 28.793 121.238 29.609L 122.238 29.609C 122.269 29.078 122.339 28.754 122.476 28.496C 122.738 28.02 123.261 27.727 123.863 27.727C 124.773 27.727 125.457 28.375 125.457 29.242C 125.457 29.879 125.082 30.426 124.363 30.836L 123.316 31.426C 121.632 32.379 121.14 33.145 121.05 34.922L 126.402 34.922L 126.402 33.918z"/>
<path style="stroke:none; fill-rule:evenodd; fill:#000000" d="M 128.113 37.356C 129.242 35.848 129.953 33.754 129.953 31.949C 129.953 30.133 129.242 28.039 128.113 26.527L 127.496 26.527C 128.5 28.176 129.058 30.106 129.058 31.949C 129.058 33.777 128.5 35.723 127.496 37.356L 128.113 37.356z"/>
<path style="stroke:none; fill-rule:evenodd; fill:#000000" d="M 197.617 21.02L 195.863 25.34L 196.652 25.34L 198.039 21.93L 199.437 25.34L 200.226 25.34L 198.449 21.02L 197.617 21.02z"/>
<path style="stroke:none; fill-rule:evenodd; fill:#000000" d="M 197.957 34.918L 200.859 26.52L 199.726 26.52L 197.41 33.633L 194.957 26.52L 193.812 26.52L 196.816 34.918L 197.957 34.918z"/>
<path style="stroke:none; fill-rule:evenodd; fill:#000000" d="M 203.781 26.52C 202.664 28.027 201.957 30.121 201.957 31.93C 201.957 33.746 202.66 35.84 203.781 37.348L 204.394 37.348C 203.406 35.703 202.855 33.77 202.855 31.93C 202.855 30.102 203.406 28.156 204.394 26.52L 203.781 26.52z"/>
<path style="stroke:none; fill-rule:evenodd; fill:#000000" d="M 207.496 31.219L 208.05 31.219C 209.175 31.219 209.754 31.723 209.754 32.691C 209.754 33.707 209.121 34.313 208.058 34.313C 206.953 34.313 206.41 33.754 206.339 32.551L 205.324 32.551C 205.367 33.211 205.484 33.645 205.675 34.016C 206.086 34.805 206.89 35.211 208 35.211C 209.671 35.211 210.75 34.215 210.75 32.676C 210.75 31.645 210.351 31.07 209.382 30.738C 210.16 30.441 210.55 29.867 210.55 29.055C 210.55 27.656 209.617 26.82 208.058 26.82C 206.41 26.82 205.531 27.699 205.496 29.406L 206.519 29.406C 206.531 28.93 206.574 28.664 206.703 28.418C 206.933 27.984 207.445 27.719 208.089 27.719C 208.996 27.719 209.547 28.234 209.547 29.074C 209.547 29.633 209.336 29.969 208.871 30.148C 208.589 30.258 208.222 30.305 207.484 30.316L 207.496 31.219z"/>
<path style="stroke:none; fill-rule:evenodd; fill:#000000" d="M 212.312 37.356C 213.441 35.848 214.152 33.754 214.152 31.949C 214.152 30.133 213.441 28.039 212.312 26.527L 211.695 26.527C 212.699 28.176 213.257 30.106 213.257 31.949C 213.257 33.777 212.699 35.723 211.695 37.356L 212.312 37.356z"/>
<path style="stroke:none; fill-rule:evenodd; fill:#000000" d="M 29.2188 133.918L 27.4649 138.238L 28.2539 138.238L 29.6406 134.828L 31.0391 138.238L 31.8282 138.238L 30.0508 133.918L 29.2188 133.918z"/>
<path style="stroke:none; fill-rule:evenodd; fill:#000000" d="M 25.7578 141.793L 25.7578 147.816L 26.7578 147.816L 26.7578 144.684C 26.7578 143.82 26.9688 143.258 27.418 142.922C 27.7071 142.703 27.9883 142.637 28.6406 142.625L 28.6406 141.66C 28.4844 141.641 28.4063 141.629 28.2813 141.629C 27.6719 141.629 27.2071 141.996 26.6602 142.891L 26.6602 141.801L 25.7578 141.793z"/>
<path style="stroke:none; fill-rule:evenodd; fill:#000000" d="M 31.5821 139.418C 30.4649 140.926 29.7578 143.02 29.7578 144.828C 29.7578 146.645 30.461 148.738 31.5821 150.246L 32.1953 150.246C 31.2071 148.602 30.6563 146.668 30.6563 144.828C 30.6563 143 31.2071 141.055 32.1953 139.418L 31.5821 139.418z"/>
<path style="stroke:none; fill-rule:evenodd; fill:#000000" d="M 35.6563 142.051L 35.6563 147.816L 36.6563 147.816L 36.6563 139.719L 35.9883 139.719C 35.6328 140.961 35.4024 141.133 33.8321 141.328L 33.8321 142.047L 35.6563 142.051z"/>
<path style="stroke:none; fill-rule:evenodd; fill:#000000" d="M 40.1133 150.254C 41.2422 148.746 41.9532 146.652 41.9532 144.848C 41.9532 143.031 41.2422 140.938 40.1133 139.426L 39.4961 139.426C 40.5 141.074 41.0586 143.004 41.0586 144.848C 41.0586 146.676 40.5 148.621 39.4961 150.254L 40.1133 150.254z"/>
<path style="stroke:none; fill-rule:evenodd; fill:#000000" d="M 62.1563 141.793L 62.1563 147.816L 63.1563 147.816L 63.1563 144.684C 63.1563 143.82 63.3672 143.258 63.8164 142.922C 64.1055 142.703 64.3867 142.637 65.0391 142.625L 65.0391 141.66C 64.8828 141.641 64.8047 141.629 64.6797 141.629C 64.0703 141.629 63.6055 141.996 63.0586 142.891L 63.0586 141.801L 62.1563 141.793z"/>
<path style="stroke:none; fill-rule:evenodd; fill:#000000" d="M 67.8828 139.418C 66.7656 140.926 66.0586 143.02 66.0586 144.828C 66.0586 146.645 66.7617 148.738 67.8828 150.246L 68.4961 150.246C 67.5078 148.602 66.9571 146.668 66.9571 144.828C 66.9571 143 67.5078 141.055 68.4961 139.418L 67.8828 139.418z"/>
<path style="stroke:none; fill-rule:evenodd; fill:#000000" d="M 72.0586 142.051L 72.0586 147.816L 73.0586 147.816L 73.0586 139.719L 72.3906 139.719C 72.0352 140.961 71.8047 141.133 70.2344 141.328L 70.2344 142.047L 72.0586 142.051z"/>
<path style="stroke:none; fill-rule:evenodd; fill:#000000" d="M 76.4144 150.254C 77.5434 148.746 78.2544 146.652 78.2544 144.848C 78.2544 143.031 77.5434 140.938 76.4144 139.426L 75.7974 139.426C 76.8004 141.074 77.3594 143.004 77.3594 144.848C 77.3594 146.676 76.8004 148.621 75.7974 150.254L 76.4144 150.254z"/>
<path style="stroke:none; fill-rule:evenodd; fill:#000000" d="M 110.058 141.793L 110.058 147.816L 111.058 147.816L 111.058 144.684C 111.058 143.82 111.269 143.258 111.718 142.922C 112.007 142.703 112.289 142.637 112.941 142.625L 112.941 141.66C 112.785 141.641 112.707 141.629 112.582 141.629C 111.972 141.629 111.507 141.996 110.961 142.891L 110.961 141.801L 110.058 141.793z"/>
<path style="stroke:none; fill-rule:evenodd; fill:#000000" d="M 115.781 139.418C 114.664 140.926 113.957 143.02 113.957 144.828C 113.957 146.645 114.66 148.738 115.781 150.246L 116.394 150.246C 115.406 148.602 114.855 146.668 114.855 144.828C 114.855 143 115.406 141.055 116.394 139.418L 115.781 139.418z"/>
<path style="stroke:none; fill-rule:evenodd; fill:#000000" d="M 122.601 146.82L 118.375 146.82C 118.476 146.16 118.839 145.738 119.824 145.156L 120.957 144.543C 122.078 143.93 122.656 143.094 122.656 142.102C 122.656 141.43 122.386 140.801 121.91 140.367C 121.437 139.934 120.847 139.73 120.086 139.73C 119.066 139.73 118.308 140.09 117.867 140.77C 117.586 141.199 117.461 141.695 117.437 142.512L 118.437 142.512C 118.468 141.98 118.539 141.656 118.675 141.398C 118.937 140.922 119.461 140.629 120.062 140.629C 120.972 140.629 121.656 141.277 121.656 142.145C 121.656 142.781 121.281 143.328 120.562 143.738L 119.515 144.328C 117.832 145.281 117.339 146.047 117.25 147.824L 122.601 147.824L 122.601 146.82z"/>
<path style="stroke:none; fill-rule:evenodd; fill:#000000" d="M 124.312 150.254C 125.441 148.746 126.152 146.652 126.152 144.848C 126.152 143.031 125.441 140.938 124.312 139.426L 123.695 139.426C 124.699 141.074 125.257 143.004 125.257 144.848C 125.257 146.676 124.699 148.621 123.695 150.254L 124.312 150.254z"/>
<path style="stroke:none; fill-rule:evenodd; fill:#000000" d="M 146.359 141.793L 146.359 147.816L 147.359 147.816L 147.359 144.684C 147.359 143.82 147.57 143.258 148.019 142.922C 148.308 142.703 148.589 142.637 149.242 142.625L 149.242 141.66C 149.086 141.641 149.007 141.629 148.882 141.629C 148.273 141.629 147.808 141.996 147.261 142.891L 147.261 141.801L 146.359 141.793z"/>
<path style="stroke:none; fill-rule:evenodd; fill:#000000" d="M 152.082 139.418C 150.964 140.926 150.257 143.02 150.257 144.828C 150.257 146.645 150.961 148.738 152.082 150.246L 152.695 150.246C 151.707 148.602 151.156 146.668 151.156 144.828C 151.156 143 151.707 141.055 152.695 139.418L 152.082 139.418z"/>
<path style="stroke:none; fill-rule:evenodd; fill:#000000" d="M 159 146.82L 154.773 146.82C 154.875 146.16 155.238 145.738 156.222 145.156L 157.355 144.543C 158.476 143.93 159.054 143.094 159.054 142.102C 159.054 141.43 158.785 140.801 158.308 140.367C 157.836 139.934 157.246 139.73 156.484 139.73C 155.464 139.73 154.707 140.09 154.265 140.77C 153.984 141.199 153.859 141.695 153.836 142.512L 154.836 142.512C 154.867 141.98 154.937 141.656 155.074 141.398C 155.336 140.922 155.859 140.629 156.461 140.629C 157.371 140.629 158.054 141.277 158.054 142.145C 158.054 142.781 157.679 143.328 156.961 143.738L 155.914 144.328C 154.23 145.281 153.738 146.047 153.648 147.824L 159 147.824L 159 146.82z"/>
<path style="stroke:none; fill-rule:evenodd; fill:#000000" d="M 160.714 150.254C 161.843 148.746 162.554 146.652 162.554 144.848C 162.554 143.031 161.843 140.938 160.714 139.426L 160.097 139.426C 161.101 141.074 161.66 143.004 161.66 144.848C 161.66 146.676 161.101 148.621 160.097 150.254L 160.714 150.254z"/>
<path style="stroke:#000000; stroke-width:1.9133; fill:none" d="M 34.5782 183.57L 34.5782 156.785"/>
<path style="stroke:#000000; stroke-width:1.9133; fill:none" d="M 32.6641 164.438L 34.5742 156.785L 36.4844 164.438"/>
<path style="stroke:none; fill-rule:evenodd; fill:#5f5f5f" d="M 34.6133 179.727L 38.4375 179.727L 38.4375 168.246L 34.6133 168.246L 34.6133 179.727z"/>
<path style="stroke:#000000; stroke-width:0.95664899999999997; fill:none" d="M 34.6133 179.727L 38.4375 179.727L 38.4375 168.246L 34.6133 168.246L 34.6133 179.727z"/>
<path style="stroke:#000000; stroke-dasharray:6,3; stroke-width:2.8699499999999998; fill:none" d="M 53.7149 156.797L 40.3242 174.016"/>
<path style="stroke:none; fill-rule:evenodd; fill:#ffffff" d="M 42.2344 174.008L 51.8008 174.008L 51.8008 160.617L 42.2344 160.617L 42.2344 174.008z"/>
<path style="stroke:#ffffff; stroke-width:0.0; fill:none" d="M 42.2344 174.008L 51.8008 174.008L 51.8008 160.617L 42.2344 160.617L 42.2344 174.008z"/>
<path style="stroke:none; fill-rule:evenodd; fill:#000000" d="M 47.586 164.191C 46.9063 164.406 46.5156 164.578 46.1211 164.848C 45.2578 165.449 44.7617 166.391 44.7617 167.395C 44.7617 168.988 46.0117 170.316 47.5235 170.316C 49.1641 170.316 50.5586 168.809 50.5586 167.047C 50.5586 166.195 50.2696 165.363 49.7266 164.711C 49.2656 164.152 49.0547 163.992 47.8672 163.27C 46.6406 162.512 46.1641 162.043 46.1641 161.613C 46.1641 161.176 46.5899 160.828 47.1094 160.828C 47.586 160.828 47.8789 160.969 48.375 161.457C 48.918 161.996 49.1055 162.113 49.4375 162.113C 49.7969 162.113 50.0625 161.863 50.0625 161.543C 50.0625 160.824 48.8946 160.227 47.4844 160.227C 46.2227 160.227 45.4571 160.734 45.4571 161.551C 45.4571 162.031 45.6719 162.422 46.2617 162.973L 47.586 164.191zM 47.9532 164.523C 48.836 165.375 49.2578 166.324 49.2578 167.488C 49.2578 168.813 48.6406 169.719 47.7149 169.719C 46.793 169.719 46.1602 168.664 46.1602 167.109C 46.1602 165.648 46.7539 164.781 47.9532 164.523z"/>
<path style="stroke:none; fill-rule:evenodd; fill:#000000" d="M 50.6563 168.492L 50.6563 174.516L 51.6563 174.516L 51.6563 171.383C 51.6563 170.52 51.8672 169.957 52.3164 169.621C 52.6055 169.402 52.8867 169.336 53.5391 169.324L 53.5391 168.359C 53.3828 168.34 53.3047 168.328 53.1797 168.328C 52.5703 168.328 52.1055 168.695 51.5586 169.59L 51.5586 168.5L 50.6563 168.492z"/>
<path style="stroke:#000000; stroke-width:1.9133; fill:none" d="M 118.761 183.57L 118.761 156.785"/>
<path style="stroke:#000000; stroke-width:1.9133; fill:none" d="M 116.847 164.438L 118.757 156.785L 120.668 164.438"/>
<path style="stroke:none; fill-rule:evenodd; fill:#5f5f5f" d="M 118.8 179.727L 122.625 179.727L 122.625 168.246L 118.8 168.246L 118.8 179.727z"/>
<path style="stroke:#000000; stroke-width:0.95664899999999997; fill:none" d="M 118.8 179.727L 122.625 179.727L 122.625 168.246L 118.8 168.246L 118.8 179.727z"/>
<path style="stroke:#000000; stroke-dasharray:6,3; stroke-width:2.8699499999999998; fill:none" d="M 137.902 156.797L 124.511 174.016"/>
<path style="stroke:none; fill-rule:evenodd; fill:#ffffff" d="M 126.418 174.008L 135.984 174.008L 135.984 160.617L 126.418 160.617L 126.418 174.008z"/>
<path style="stroke:#ffffff; stroke-width:0.0; fill:none" d="M 126.418 174.008L 135.984 174.008L 135.984 160.617L 126.418 160.617L 126.418 174.008z"/>
<path style="stroke:none; fill-rule:evenodd; fill:#000000" d="M 131.785 164.191C 131.105 164.406 130.714 164.578 130.32 164.848C 129.457 165.449 128.961 166.391 128.961 167.395C 128.961 168.988 130.211 170.316 131.722 170.316C 133.363 170.316 134.757 168.809 134.757 167.047C 134.757 166.195 134.468 165.363 133.925 164.711C 133.464 164.152 133.254 163.992 132.066 163.27C 130.839 162.512 130.363 162.043 130.363 161.613C 130.363 161.176 130.789 160.828 131.308 160.828C 131.785 160.828 132.078 160.969 132.574 161.457C 133.117 161.996 133.304 162.113 133.636 162.113C 133.996 162.113 134.261 161.863 134.261 161.543C 134.261 160.824 133.093 160.227 131.683 160.227C 130.421 160.227 129.656 160.734 129.656 161.551C 129.656 162.031 129.871 162.422 130.461 162.973L 131.785 164.191zM 132.152 164.523C 133.035 165.375 133.457 166.324 133.457 167.488C 133.457 168.813 132.839 169.719 131.914 169.719C 130.992 169.719 130.359 168.664 130.359 167.109C 130.359 165.648 130.953 164.781 132.152 164.523z"/>
<path style="stroke:none; fill-rule:evenodd; fill:#000000" d="M 134.859 168.492L 134.859 174.516L 135.859 174.516L 135.859 171.383C 135.859 170.52 136.07 169.957 136.519 169.621C 136.808 169.402 137.089 169.336 137.742 169.324L 137.742 168.359C 137.586 168.34 137.507 168.328 137.382 168.328C 136.773 168.328 136.308 168.695 135.761 169.59L 135.761 168.5L 134.859 168.492z"/>
<path style="stroke:#000000; stroke-width:1.9133; fill:none" d="M 202.949 183.57L 202.949 156.785"/>
<path style="stroke:#000000; stroke-width:1.9133; fill:none" d="M 201.035 164.438L 202.945 156.785L 204.855 164.438"/>
<path style="stroke:none; fill-rule:evenodd; fill:#5f5f5f" d="M 202.984 179.727L 206.808 179.727L 206.808 168.246L 202.984 168.246L 202.984 179.727z"/>
<path style="stroke:#000000; stroke-width:0.95664899999999997; fill:none" d="M 202.984 179.727L 206.808 179.727L 206.808 168.246L 202.984 168.246L 202.984 179.727z"/>
<path style="stroke:#000000; stroke-dasharray:6,3; stroke-width:2.8699499999999998; fill:none" d="M 222.086 156.797L 208.695 174.016"/>
<path style="stroke:none; fill-rule:evenodd; fill:#ffffff" d="M 210.601 174.008L 220.168 174.008L 220.168 160.617L 210.601 160.617L 210.601 174.008z"/>
<path style="stroke:#ffffff; stroke-width:0.0; fill:none" d="M 210.601 174.008L 220.168 174.008L 220.168 160.617L 210.601 160.617L 210.601 174.008z"/>
<path style="stroke:none; fill-rule:evenodd; fill:#000000" d="M 215.988 164.191C 215.308 164.406 214.918 164.578 214.523 164.848C 213.66 165.449 213.164 166.391 213.164 167.395C 213.164 168.988 214.414 170.316 215.925 170.316C 217.566 170.316 218.961 168.809 218.961 167.047C 218.961 166.195 218.671 165.363 218.129 164.711C 217.668 164.152 217.457 163.992 216.269 163.27C 215.043 162.512 214.566 162.043 214.566 161.613C 214.566 161.176 214.992 160.828 215.511 160.828C 215.988 160.828 216.281 160.969 216.777 161.457C 217.32 161.996 217.507 162.113 217.839 162.113C 218.199 162.113 218.464 161.863 218.464 161.543C 218.464 160.824 217.297 160.227 215.886 160.227C 214.625 160.227 213.859 160.734 213.859 161.551C 213.859 162.031 214.074 162.422 214.664 162.973L 215.988 164.191zM 216.351 164.523C 217.234 165.375 217.656 166.324 217.656 167.488C 217.656 168.813 217.039 169.719 216.113 169.719C 215.191 169.719 214.558 168.664 214.558 167.109C 214.558 165.648 215.152 164.781 216.351 164.523z"/>
<path style="stroke:none; fill-rule:evenodd; fill:#000000" d="M 219.058 168.492L 219.058 174.516L 220.058 174.516L 220.058 171.383C 220.058 170.52 220.269 169.957 220.718 169.621C 221.007 169.402 221.289 169.336 221.941 169.324L 221.941 168.359C 221.785 168.34 221.707 168.328 221.582 168.328C 220.972 168.328 220.507 168.695 219.961 169.59L 219.961 168.5L 219.058 168.492z"/>
<path style="stroke:none; fill-rule:evenodd; fill:#000000" d="M 194.257 141.793L 194.257 147.816L 195.257 147.816L 195.257 144.684C 195.257 143.82 195.468 143.258 195.918 142.922C 196.207 142.703 196.488 142.637 197.14 142.625L 197.14 141.66C 196.984 141.641 196.906 141.629 196.781 141.629C 196.171 141.629 195.707 141.996 195.16 142.891L 195.16 141.801L 194.257 141.793z"/>
<path style="stroke:none; fill-rule:evenodd; fill:#000000" d="M 199.984 139.418C 198.867 140.926 198.16 143.02 198.16 144.828C 198.16 146.645 198.863 148.738 199.984 150.246L 200.597 150.246C 199.609 148.602 199.058 146.668 199.058 144.828C 199.058 143 199.609 141.055 200.597 139.418L 199.984 139.418z"/>
<path style="stroke:none; fill-rule:evenodd; fill:#000000" d="M 203.593 144.121L 204.148 144.121C 205.273 144.121 205.851 144.625 205.851 145.594C 205.851 146.609 205.218 147.215 204.156 147.215C 203.05 147.215 202.507 146.656 202.437 145.453L 201.421 145.453C 201.464 146.113 201.582 146.547 201.773 146.918C 202.183 147.707 202.988 148.113 204.097 148.113C 205.769 148.113 206.847 147.117 206.847 145.578C 206.847 144.547 206.449 143.973 205.48 143.641C 206.257 143.344 206.648 142.77 206.648 141.957C 206.648 140.559 205.714 139.723 204.156 139.723C 202.507 139.723 201.629 140.602 201.593 142.309L 202.617 142.309C 202.629 141.832 202.671 141.566 202.8 141.32C 203.031 140.887 203.543 140.621 204.187 140.621C 205.093 140.621 205.644 141.137 205.644 141.977C 205.644 142.535 205.433 142.871 204.968 143.051C 204.687 143.16 204.32 143.207 203.582 143.219L 203.593 144.121z"/>
<path style="stroke:none; fill-rule:evenodd; fill:#000000" d="M 208.515 150.254C 209.644 148.746 210.355 146.652 210.355 144.848C 210.355 143.031 209.644 140.938 208.515 139.426L 207.898 139.426C 208.902 141.074 209.461 143.004 209.461 144.848C 209.461 146.676 208.902 148.621 207.898 150.254L 208.515 150.254z"/>
<path style="stroke:none; fill-rule:evenodd; fill:#000000" d="M 232.457 141.793L 232.457 147.816L 233.457 147.816L 233.457 144.684C 233.457 143.82 233.668 143.258 234.117 142.922C 234.406 142.703 234.687 142.637 235.339 142.625L 235.339 141.66C 235.183 141.641 235.105 141.629 234.98 141.629C 234.371 141.629 233.906 141.996 233.359 142.891L 233.359 141.801L 232.457 141.793z"/>
<path style="stroke:none; fill-rule:evenodd; fill:#000000" d="M 238.183 139.418C 237.066 140.926 236.359 143.02 236.359 144.828C 236.359 146.645 237.062 148.738 238.183 150.246L 238.797 150.246C 237.808 148.602 237.257 146.668 237.257 144.828C 237.257 143 237.808 141.055 238.797 139.418L 238.183 139.418z"/>
<path style="stroke:none; fill-rule:evenodd; fill:#000000" d="M 241.793 144.121L 242.347 144.121C 243.472 144.121 244.05 144.625 244.05 145.594C 244.05 146.609 243.418 147.215 242.355 147.215C 241.25 147.215 240.707 146.656 240.636 145.453L 239.621 145.453C 239.664 146.113 239.781 146.547 239.972 146.918C 240.382 147.707 241.187 148.113 242.297 148.113C 243.968 148.113 245.047 147.117 245.047 145.578C 245.047 144.547 244.648 143.973 243.679 143.641C 244.457 143.344 244.847 142.77 244.847 141.957C 244.847 140.559 243.914 139.723 242.355 139.723C 240.707 139.723 239.828 140.602 239.793 142.309L 240.816 142.309C 240.828 141.832 240.871 141.566 241 141.32C 241.23 140.887 241.742 140.621 242.386 140.621C 243.293 140.621 243.843 141.137 243.843 141.977C 243.843 142.535 243.632 142.871 243.168 143.051C 242.886 143.16 242.519 143.207 241.781 143.219L 241.793 144.121z"/>
<path style="stroke:none; fill-rule:evenodd; fill:#000000" d="M 246.714 150.254C 247.843 148.746 248.554 146.652 248.554 144.848C 248.554 143.031 247.843 140.938 246.714 139.426L 246.097 139.426C 247.101 141.074 247.66 143.004 247.66 144.848C 247.66 146.676 247.101 148.621 246.097 150.254L 246.714 150.254z"/>
<path style="stroke:#000000; stroke-width:1.9133; fill:none" d="M 17.3633 49.652L 53.7149 49.652L 53.7149 11.387L 17.3633 11.387L 17.3633 49.652z"/>
<path style="stroke:#000000; stroke-width:1.9133; fill:none" d="M 53.7149 49.652L 90.0664 49.652L 90.0664 11.387L 53.7149 11.387L 53.7149 49.652z"/>
<path style="stroke:none; fill-rule:evenodd; fill:#000000" d="M 65.5196 13.418L 63.7656 17.738L 64.5547 17.738L 65.9414 14.328L 67.3399 17.738L 68.1289 17.738L 66.3516 13.418L 65.5196 13.418z"/>
<path style="stroke:none; fill-rule:evenodd; fill:#000000" d="M 65.8594 27.219L 68.7617 18.82L 67.6289 18.82L 65.3125 25.934L 62.8594 18.82L 61.7149 18.82L 64.7188 27.219L 65.8594 27.219z"/>
<path style="stroke:none; fill-rule:evenodd; fill:#000000" d="M 71.7813 18.82C 70.6641 20.328 69.9571 22.422 69.9571 24.23C 69.9571 26.047 70.6602 28.141 71.7813 29.648L 72.3946 29.648C 71.4063 28.004 70.8555 26.07 70.8555 24.23C 70.8555 22.402 71.4063 20.457 72.3946 18.82L 71.7813 18.82z"/>
<path style="stroke:none; fill-rule:evenodd; fill:#000000" d="M 78.6014 26.219L 74.3754 26.219C 74.4764 25.559 74.8394 25.137 75.8244 24.555L 76.9574 23.941C 78.0784 23.328 78.6564 22.492 78.6564 21.5C 78.6564 20.828 78.3864 20.199 77.9104 19.766C 77.4374 19.332 76.8474 19.129 76.0864 19.129C 75.0664 19.129 74.3084 19.488 73.8674 20.168C 73.5864 20.598 73.4614 21.094 73.4374 21.91L 74.4374 21.91C 74.4684 21.379 74.5394 21.055 74.6754 20.797C 74.9374 20.32 75.4614 20.027 76.0624 20.027C 76.9724 20.027 77.6564 20.676 77.6564 21.543C 77.6564 22.18 77.2814 22.727 76.5624 23.137L 75.5154 23.727C 73.8324 24.68 73.3399 25.445 73.25 27.223L 78.6014 27.223L 78.6014 26.219z"/>
<path style="stroke:none; fill-rule:evenodd; fill:#000000" d="M 80.3124 29.652C 81.4414 28.145 82.1524 26.051 82.1524 24.246C 82.1524 22.43 81.4414 20.336 80.3124 18.824L 79.6954 18.824C 80.6994 20.473 81.2574 22.402 81.2574 24.246C 81.2574 26.074 80.6994 28.02 79.6954 29.652L 80.3124 29.652z"/>
<path style="stroke:none; fill-rule:evenodd; fill:#000000" d="M 59.9844 19.57L 58.711 23.523L 58.3672 21.754C 58.0235 19.996 57.6563 19.422 56.8867 19.422C 56.543 19.422 56.2344 19.582 56.0508 19.848C 55.8008 20.203 55.7422 20.492 55.7188 21.461L 55.7188 21.609L 55.9688 21.609C 55.9883 21.289 56.0117 21.109 56.0586 20.941C 56.1836 20.559 56.4571 20.32 56.7891 20.32C 57.0977 20.32 57.3164 20.516 57.5313 20.988C 57.8047 21.586 58.1016 22.641 58.2188 23.496L 58.3555 24.453C 58.3242 24.566 58.1953 24.938 57.9766 25.563C 57.75 26.195 57.6797 26.531 57.6797 26.926C 57.6797 27.469 57.918 27.824 58.2852 27.824C 58.7539 27.824 59.0625 27.238 59.0625 26.32C 59.0625 25.965 59.0078 25.414 58.8711 24.551L 61.1992 19.566L 59.9844 19.57z"/>
<path style="stroke:none; fill-rule:evenodd; fill:#000000" d="M 67.418 28.719L 65.6641 33.039L 66.4532 33.039L 67.8399 29.629L 69.2383 33.039L 70.0274 33.039L 68.25 28.719L 67.418 28.719z"/>
<path style="stroke:none; fill-rule:evenodd; fill:#000000" d="M 64.0586 36.492L 64.0586 42.516L 65.0586 42.516L 65.0586 39.383C 65.0586 38.52 65.2696 37.957 65.7188 37.621C 66.0078 37.402 66.2891 37.336 66.9414 37.324L 66.9414 36.359C 66.7852 36.34 66.7071 36.328 66.5821 36.328C 65.9727 36.328 65.5078 36.695 64.961 37.59L 64.961 36.5L 64.0586 36.492z"/>
<path style="stroke:none; fill-rule:evenodd; fill:#000000" d="M 69.7813 34.121C 68.6641 35.629 67.9571 37.723 67.9571 39.531C 67.9571 41.348 68.6602 43.441 69.7813 44.949L 70.3946 44.949C 69.4063 43.305 68.8555 41.371 68.8555 39.531C 68.8555 37.703 69.4063 35.758 70.3946 34.121L 69.7813 34.121z"/>
<path style="stroke:none; fill-rule:evenodd; fill:#000000" d="M 73.9574 36.75L 73.9574 42.516L 74.9574 42.516L 74.9574 34.418L 74.2894 34.418C 73.9334 35.66 73.7034 35.832 72.1328 36.027L 72.1328 36.746L 73.9574 36.75z"/>
<path style="stroke:none; fill-rule:evenodd; fill:#000000" d="M 78.3124 44.953C 79.4414 43.445 80.1524 41.352 80.1524 39.547C 80.1524 37.73 79.4414 35.637 78.3124 34.125L 77.6954 34.125C 78.6994 35.773 79.2574 37.703 79.2574 39.547C 79.2574 41.375 78.6994 43.32 77.6954 44.953L 78.3124 44.953z"/>
<path style="stroke:none; fill-rule:evenodd; fill:#000000" d="M 61.7891 39.418L 59.461 39.418L 59.461 37.078L 58.6641 37.078L 58.6641 39.418L 56.2383 39.418L 56.2383 40.215L 58.6641 40.215L 58.6641 42.629L 59.461 42.629L 59.461 40.215L 61.7891 40.215L 61.7891 39.418z"/>
<path style="stroke:#000000; stroke-width:1.9133; fill:none" d="M 101.547 49.652L 137.898 49.652L 137.898 11.387L 101.547 11.387L 101.547 49.652z"/>
<path style="stroke:#000000; stroke-width:1.9133; fill:none" d="M 137.902 49.652L 174.254 49.652L 174.254 11.387L 137.902 11.387L 137.902 49.652z"/>
<path style="stroke:#000000; stroke-width:1.9133; fill:none" d="M 185.734 49.652L 222.086 49.652L 222.086 11.387L 185.734 11.387L 185.734 49.652z"/>
<path style="stroke:#000000; stroke-width:1.9133; fill:none" d="M 222.086 49.652L 258.437 49.652L 258.437 11.387L 222.086 11.387L 222.086 49.652z"/>
<path style="stroke:none; fill-rule:evenodd; fill:#000000" d="M 151.617 13.418L 149.863 17.738L 150.652 17.738L 152.039 14.328L 153.437 17.738L 154.226 17.738L 152.449 13.418L 151.617 13.418z"/>
<path style="stroke:none; fill-rule:evenodd; fill:#000000" d="M 146.086 19.57L 144.812 23.523L 144.468 21.754C 144.125 19.996 143.757 19.422 142.988 19.422C 142.644 19.422 142.336 19.582 142.152 19.848C 141.902 20.203 141.843 20.492 141.82 21.461L 141.82 21.609L 142.07 21.609C 142.089 21.289 142.113 21.109 142.16 20.941C 142.285 20.559 142.558 20.32 142.89 20.32C 143.199 20.32 143.418 20.516 143.632 20.988C 143.906 21.586 144.203 22.641 144.32 23.496L 144.457 24.453C 144.425 24.566 144.297 24.938 144.078 25.563C 143.851 26.195 143.781 26.531 143.781 26.926C 143.781 27.469 144.019 27.824 144.386 27.824C 144.855 27.824 145.164 27.238 145.164 26.32C 145.164 25.965 145.109 25.414 144.972 24.551L 147.3 19.566L 146.086 19.57z"/>
<path style="stroke:none; fill-rule:evenodd; fill:#000000" d="M 153.519 28.719L 151.765 33.039L 152.554 33.039L 153.941 29.629L 155.339 33.039L 156.129 33.039L 154.351 28.719L 153.519 28.719z"/>
<path style="stroke:none; fill-rule:evenodd; fill:#000000" d="M 147.886 39.418L 145.558 39.418L 145.558 37.078L 144.761 37.078L 144.761 39.418L 142.336 39.418L 142.336 40.215L 144.761 40.215L 144.761 42.629L 145.558 42.629L 145.558 40.215L 147.886 40.215L 147.886 39.418z"/>
<path style="stroke:none; fill-rule:evenodd; fill:#000000" d="M 151.957 27.219L 154.859 18.82L 153.726 18.82L 151.41 25.934L 148.957 18.82L 147.812 18.82L 150.816 27.219L 151.957 27.219z"/>
<path style="stroke:none; fill-rule:evenodd; fill:#000000" d="M 157.882 18.82C 156.765 20.328 156.058 22.422 156.058 24.23C 156.058 26.047 156.761 28.141 157.882 29.648L 158.496 29.648C 157.507 28.004 156.957 26.07 156.957 24.23C 156.957 22.402 157.507 20.457 158.496 18.82L 157.882 18.82z"/>
<path style="stroke:none; fill-rule:evenodd; fill:#000000" d="M 161.496 23.52L 162.05 23.52C 163.175 23.52 163.754 24.023 163.754 24.992C 163.754 26.008 163.121 26.613 162.058 26.613C 160.953 26.613 160.41 26.055 160.339 24.852L 159.324 24.852C 159.367 25.512 159.484 25.945 159.675 26.316C 160.086 27.106 160.89 27.512 162 27.512C 163.671 27.512 164.75 26.516 164.75 24.977C 164.75 23.945 164.351 23.371 163.382 23.039C 164.16 22.742 164.55 22.168 164.55 21.356C 164.55 19.957 163.617 19.121 162.058 19.121C 160.41 19.121 159.531 20 159.496 21.707L 160.519 21.707C 160.531 21.23 160.574 20.965 160.703 20.719C 160.933 20.285 161.445 20.02 162.089 20.02C 162.996 20.02 163.547 20.535 163.547 21.375C 163.547 21.934 163.336 22.27 162.871 22.449C 162.589 22.559 162.222 22.606 161.484 22.617L 161.496 23.52z"/>
<path style="stroke:none; fill-rule:evenodd; fill:#000000" d="M 166.414 29.652C 167.543 28.145 168.254 26.051 168.254 24.246C 168.254 22.43 167.543 20.336 166.414 18.824L 165.797 18.824C 166.8 20.473 167.359 22.402 167.359 24.246C 167.359 26.074 166.8 28.02 165.797 29.652L 166.414 29.652z"/>
<path style="stroke:none; fill-rule:evenodd; fill:#000000" d="M 150.156 36.492L 150.156 42.516L 151.156 42.516L 151.156 39.383C 151.156 38.52 151.367 37.957 151.816 37.621C 152.105 37.402 152.386 37.336 153.039 37.324L 153.039 36.359C 152.882 36.34 152.804 36.328 152.679 36.328C 152.07 36.328 151.605 36.695 151.058 37.59L 151.058 36.5L 150.156 36.492z"/>
<path style="stroke:none; fill-rule:evenodd; fill:#000000" d="M 155.882 34.121C 154.765 35.629 154.058 37.723 154.058 39.531C 154.058 41.348 154.761 43.441 155.882 44.949L 156.496 44.949C 155.507 43.305 154.957 41.371 154.957 39.531C 154.957 37.703 155.507 35.758 156.496 34.121L 155.882 34.121z"/>
<path style="stroke:none; fill-rule:evenodd; fill:#000000" d="M 162.8 41.52L 158.574 41.52C 158.675 40.859 159.039 40.438 160.023 39.856L 161.156 39.242C 162.277 38.629 162.855 37.793 162.855 36.801C 162.855 36.129 162.586 35.5 162.109 35.066C 161.636 34.633 161.047 34.43 160.285 34.43C 159.265 34.43 158.507 34.789 158.066 35.469C 157.785 35.898 157.66 36.395 157.636 37.211L 158.636 37.211C 158.668 36.68 158.738 36.356 158.875 36.098C 159.136 35.621 159.66 35.328 160.261 35.328C 161.171 35.328 161.855 35.977 161.855 36.844C 161.855 37.48 161.48 38.027 160.761 38.438L 159.714 39.027C 158.031 39.98 157.539 40.746 157.449 42.523L 162.8 42.523L 162.8 41.52z"/>
<path style="stroke:none; fill-rule:evenodd; fill:#000000" d="M 164.414 44.953C 165.543 43.445 166.254 41.352 166.254 39.547C 166.254 37.73 165.543 35.637 164.414 34.125L 163.797 34.125C 164.8 35.773 165.359 37.703 165.359 39.547C 165.359 41.375 164.8 43.32 163.797 44.953L 164.414 44.953z"/>
<path style="stroke:none; fill-rule:evenodd; fill:#000000" d="M 235.82 13.418L 234.066 17.738L 234.855 17.738L 236.242 14.328L 237.64 17.738L 238.429 17.738L 236.652 13.418L 235.82 13.418z"/>
<path style="stroke:none; fill-rule:evenodd; fill:#000000" d="M 230.285 19.57L 229.011 23.523L 228.668 21.754C 228.324 19.996 227.957 19.422 227.187 19.422C 226.843 19.422 226.535 19.582 226.351 19.848C 226.101 20.203 226.043 20.492 226.019 21.461L 226.019 21.609L 226.269 21.609C 226.289 21.289 226.312 21.109 226.359 20.941C 226.484 20.559 226.757 20.32 227.089 20.32C 227.398 20.32 227.617 20.516 227.832 20.988C 228.105 21.586 228.402 22.641 228.519 23.496L 228.656 24.453C 228.625 24.566 228.496 24.938 228.277 25.563C 228.05 26.195 227.98 26.531 227.98 26.926C 227.98 27.469 228.218 27.824 228.586 27.824C 229.054 27.824 229.363 27.238 229.363 26.32C 229.363 25.965 229.308 25.414 229.171 24.551L 231.5 19.566L 230.285 19.57z"/>
<path style="stroke:none; fill-rule:evenodd; fill:#000000" d="M 237.718 28.719L 235.964 33.039L 236.754 33.039L 238.14 29.629L 239.539 33.039L 240.328 33.039L 238.55 28.719L 237.718 28.719z"/>
<path style="stroke:none; fill-rule:evenodd; fill:#000000" d="M 232.086 39.418L 229.757 39.418L 229.757 37.078L 228.961 37.078L 228.961 39.418L 226.535 39.418L 226.535 40.215L 228.961 40.215L 228.961 42.629L 229.757 42.629L 229.757 40.215L 232.086 40.215L 232.086 39.418z"/>
<path style="stroke:none; fill-rule:evenodd; fill:#000000" d="M 236.156 27.219L 239.058 18.82L 237.925 18.82L 235.609 25.934L 233.156 18.82L 232.011 18.82L 235.015 27.219L 236.156 27.219z"/>
<path style="stroke:none; fill-rule:evenodd; fill:#000000" d="M 242.082 18.82C 240.964 20.328 240.257 22.422 240.257 24.23C 240.257 26.047 240.961 28.141 242.082 29.648L 242.695 29.648C 241.707 28.004 241.156 26.07 241.156 24.23C 241.156 22.402 241.707 20.457 242.695 18.82L 242.082 18.82z"/>
<path style="stroke:none; fill-rule:evenodd; fill:#000000" d="M 246.957 25.219L 246.957 27.219L 247.957 27.219L 247.957 25.219L 249.125 25.219L 249.125 24.32L 247.957 24.32L 247.957 19.121L 247.207 19.121L 243.484 24.168L 243.484 25.219L 246.957 25.219zM 246.957 24.32L 244.363 24.32L 246.957 20.805L 246.957 24.32z"/>
<path style="stroke:none; fill-rule:evenodd; fill:#000000" d="M 250.613 29.652C 251.742 28.145 252.453 26.051 252.453 24.246C 252.453 22.43 251.742 20.336 250.613 18.824L 249.996 18.824C 251 20.473 251.558 22.402 251.558 24.246C 251.558 26.074 251 28.02 249.996 29.652L 250.613 29.652z"/>
<path style="stroke:#000000; stroke-width:1.9133; fill:none" d="M 84.3284 24.777L 109.199 30.516"/>
<path style="stroke:#000000; stroke-width:1.9133; fill:none" d="M 102.175 26.934L 109.199 30.516L 101.312 30.656"/>
<path style="stroke:#000000; stroke-width:1.9133; fill:none" d="M 170.425 24.777L 195.297 30.516"/>
<path style="stroke:#000000; stroke-width:1.9133; fill:none" d="M 188.273 26.934L 195.297 30.516L 187.41 30.656"/>
<path style="stroke:#000000; stroke-dasharray:6,3; stroke-width:1.9133; fill:none" d="M 36.4961 137.664C 36.4961 137.664 36.4961 137.664 31.0782 131.926C 25.6602 126.188 14.8164 114.707 11.3086 101.953C 7.80082 89.199 11.625 75.168 21.1914 65.285C 30.7539 55.402 46.0625 49.66 53.7149 46.793C 61.3672 43.926 61.3672 43.926 61.3672 43.926"/>
<path style="stroke:#000000; stroke-dasharray:6,3; stroke-width:1.9133; fill:none" d="M 53.5313 44.809L 61.3672 43.914L 54.875 48.391"/>
<path style="stroke:#000000; stroke-dasharray:6,3; stroke-width:1.9133; fill:none" d="M 120.679 137.664C 120.679 137.664 120.679 137.664 115.261 131.926C 109.843 126.188 99.0004 114.707 95.4924 101.953C 91.9844 89.199 95.8084 75.168 105.375 65.285C 114.937 55.402 130.246 49.66 137.898 46.793C 145.55 43.926 145.55 43.926 145.55 43.926"/>
<path style="stroke:#000000; stroke-dasharray:6,3; stroke-width:1.9133; fill:none" d="M 137.714 44.809L 145.55 43.914L 139.058 48.391"/>
<path style="stroke:#000000; stroke-dasharray:6,3; stroke-width:1.9133; fill:none" d="M 204.867 137.664C 204.867 137.664 204.867 137.664 199.449 131.926C 194.031 126.188 183.187 114.707 179.679 101.953C 176.171 89.199 179.996 75.168 189.562 65.285C 199.125 55.402 214.433 49.66 222.086 46.793C 229.738 43.926 229.738 43.926 229.738 43.926"/>
<path style="stroke:#000000; stroke-dasharray:6,3; stroke-width:1.9133; fill:none" d="M 221.902 44.809L 229.738 43.914L 223.246 48.391"/>
<path style="stroke:none; fill-rule:evenodd; fill:#000000" d="M 234.359 36.492L 234.359 42.516L 235.359 42.516L 235.359 39.383C 235.359 38.52 235.57 37.957 236.019 37.621C 236.308 37.402 236.589 37.336 237.242 37.324L 237.242 36.359C 237.086 36.34 237.007 36.328 236.882 36.328C 236.273 36.328 235.808 36.695 235.261 37.59L 235.261 36.5L 234.359 36.492z"/>
<path style="stroke:none; fill-rule:evenodd; fill:#000000" d="M 240.082 34.121C 238.964 35.629 238.257 37.723 238.257 39.531C 238.257 41.348 238.961 43.441 240.082 44.949L 240.695 44.949C 239.707 43.305 239.156 41.371 239.156 39.531C 239.156 37.703 239.707 35.758 240.695 34.121L 240.082 34.121z"/>
<path style="stroke:none; fill-rule:evenodd; fill:#000000" d="M 243.695 38.82L 244.25 38.82C 245.375 38.82 245.953 39.324 245.953 40.293C 245.953 41.309 245.32 41.914 244.257 41.914C 243.152 41.914 242.609 41.356 242.539 40.152L 241.523 40.152C 241.566 40.813 241.683 41.246 241.875 41.617C 242.285 42.406 243.089 42.813 244.199 42.813C 245.871 42.813 246.949 41.816 246.949 40.277C 246.949 39.246 246.55 38.672 245.582 38.34C 246.359 38.043 246.75 37.469 246.75 36.656C 246.75 35.258 245.816 34.422 244.257 34.422C 242.609 34.422 241.73 35.301 241.695 37.008L 242.718 37.008C 242.73 36.531 242.773 36.266 242.902 36.02C 243.132 35.586 243.644 35.32 244.289 35.32C 245.195 35.32 245.746 35.836 245.746 36.676C 245.746 37.234 245.535 37.57 245.07 37.75C 244.789 37.859 244.421 37.906 243.683 37.918L 243.695 38.82z"/>
<path style="stroke:none; fill-rule:evenodd; fill:#000000" d="M 248.613 44.953C 249.742 43.445 250.453 41.352 250.453 39.547C 250.453 37.73 249.742 35.637 248.613 34.125L 247.996 34.125C 249 35.773 249.558 37.703 249.558 39.547C 249.558 41.375 249 43.32 247.996 44.953L 248.613 44.953z"/>
<path style="stroke:none; fill-rule:evenodd; fill:#5f5f5f" d="M 69.0547 72.578L 72.8789 72.578L 72.8789 61.098L 69.0547 61.098L 69.0547 72.578z"/>
<path style="stroke:#000000; stroke-width:0.95664899999999997; fill:none" d="M 69.0547 72.578L 72.8789 72.578L 72.8789 61.098L 69.0547 61.098L 69.0547 72.578z"/>
<path style="stroke:#000000; stroke-dasharray:6,3; stroke-width:2.8699499999999998; fill:none" d="M 69.0235 66.871L 53.7188 49.652"/>
<path style="stroke:none; fill-rule:evenodd; fill:#ffffff" d="M 55.625 64.949L 65.1914 64.949L 65.1914 51.559L 55.625 51.559L 55.625 64.949z"/>
<path style="stroke:#ffffff; stroke-width:0.0; fill:none" d="M 55.625 64.949L 65.1914 64.949L 65.1914 51.559L 55.625 51.559L 55.625 64.949z"/>
<path style="stroke:none; fill-rule:evenodd; fill:#000000" d="M 60.9883 55.09C 60.3086 55.305 59.918 55.477 59.5235 55.746C 58.6602 56.348 58.1641 57.289 58.1641 58.293C 58.1641 59.887 59.4141 61.215 60.9258 61.215C 62.5664 61.215 63.961 59.707 63.961 57.945C 63.961 57.094 63.6719 56.262 63.1289 55.609C 62.668 55.051 62.4571 54.891 61.2696 54.168C 60.043 53.41 59.5664 52.941 59.5664 52.512C 59.5664 52.074 59.9922 51.727 60.5117 51.727C 60.9883 51.727 61.2813 51.867 61.7774 52.356C 62.3203 52.895 62.5078 53.012 62.8399 53.012C 63.1992 53.012 63.4649 52.762 63.4649 52.441C 63.4649 51.723 62.2969 51.125 60.8867 51.125C 59.625 51.125 58.8594 51.633 58.8594 52.449C 58.8594 52.93 59.0742 53.32 59.6641 53.871L 60.9883 55.09zM 61.3516 55.422C 62.2344 56.273 62.6563 57.223 62.6563 58.387C 62.6563 59.711 62.0391 60.617 61.1133 60.617C 60.1914 60.617 59.5586 59.563 59.5586 58.008C 59.5586 56.547 60.1524 55.68 61.3516 55.422z"/>
<path style="stroke:none; fill-rule:evenodd; fill:#5f5f5f" d="M 153.238 72.578L 157.062 72.578L 157.062 61.098L 153.238 61.098L 153.238 72.578z"/>
<path style="stroke:#000000; stroke-width:0.95664899999999997; fill:none" d="M 153.238 72.578L 157.062 72.578L 157.062 61.098L 153.238 61.098L 153.238 72.578z"/>
<path style="stroke:#000000; stroke-dasharray:6,3; stroke-width:2.8699499999999998; fill:none" d="M 153.207 66.871L 137.902 49.652"/>
<path style="stroke:none; fill-rule:evenodd; fill:#ffffff" d="M 139.812 64.949L 149.379 64.949L 149.379 51.559L 139.812 51.559L 139.812 64.949z"/>
<path style="stroke:#ffffff; stroke-width:0.0; fill:none" d="M 139.812 64.949L 149.379 64.949L 149.379 51.559L 139.812 51.559L 139.812 64.949z"/>
<path style="stroke:none; fill-rule:evenodd; fill:#000000" d="M 145.187 55.09C 144.507 55.305 144.117 55.477 143.722 55.746C 142.859 56.348 142.363 57.289 142.363 58.293C 142.363 59.887 143.613 61.215 145.125 61.215C 146.765 61.215 148.16 59.707 148.16 57.945C 148.16 57.094 147.871 56.262 147.328 55.609C 146.867 55.051 146.656 54.891 145.468 54.168C 144.242 53.41 143.765 52.941 143.765 52.512C 143.765 52.074 144.191 51.727 144.711 51.727C 145.187 51.727 145.48 51.867 145.976 52.356C 146.519 52.895 146.707 53.012 147.039 53.012C 147.398 53.012 147.664 52.762 147.664 52.441C 147.664 51.723 146.496 51.125 145.086 51.125C 143.824 51.125 143.058 51.633 143.058 52.449C 143.058 52.93 143.273 53.32 143.863 53.871L 145.187 55.09zM 145.55 55.422C 146.433 56.273 146.855 57.223 146.855 58.387C 146.855 59.711 146.238 60.617 145.312 60.617C 144.39 60.617 143.757 59.563 143.757 58.008C 143.757 56.547 144.351 55.68 145.55 55.422z"/>
<path style="stroke:none; fill-rule:evenodd; fill:#5f5f5f" d="M 237.421 72.578L 241.246 72.578L 241.246 61.098L 237.421 61.098L 237.421 72.578z"/>
<path style="stroke:#000000; stroke-width:0.95664899999999997; fill:none" d="M 237.421 72.578L 241.246 72.578L 241.246 61.098L 237.421 61.098L 237.421 72.578z"/>
<path style="stroke:#000000; stroke-dasharray:6,3; stroke-width:2.8699499999999998; fill:none" d="M 237.39 66.871L 222.086 49.652"/>
<path style="stroke:none; fill-rule:evenodd; fill:#ffffff" d="M 223.996 64.949L 233.562 64.949L 233.562 51.559L 223.996 51.559L 223.996 64.949z"/>
<path style="stroke:#ffffff; stroke-width:0.0; fill:none" d="M 223.996 64.949L 233.562 64.949L 233.562 51.559L 223.996 51.559L 223.996 64.949z"/>
<path style="stroke:none; fill-rule:evenodd; fill:#000000" d="M 229.386 55.09C 228.707 55.305 228.316 55.477 227.921 55.746C 227.058 56.348 226.562 57.289 226.562 58.293C 226.562 59.887 227.812 61.215 229.324 61.215C 230.964 61.215 232.359 59.707 232.359 57.945C 232.359 57.094 232.07 56.262 231.527 55.609C 231.066 55.051 230.855 54.891 229.668 54.168C 228.441 53.41 227.964 52.941 227.964 52.512C 227.964 52.074 228.39 51.727 228.91 51.727C 229.386 51.727 229.679 51.867 230.175 52.356C 230.718 52.895 230.906 53.012 231.238 53.012C 231.597 53.012 231.863 52.762 231.863 52.441C 231.863 51.723 230.695 51.125 229.285 51.125C 228.023 51.125 227.257 51.633 227.257 52.449C 227.257 52.93 227.472 53.32 228.062 53.871L 229.386 55.09zM 229.75 55.422C 230.632 56.273 231.054 57.223 231.054 58.387C 231.054 59.711 230.437 60.617 229.511 60.617C 228.589 60.617 227.957 59.563 227.957 58.008C 227.957 56.547 228.55 55.68 229.75 55.422z"/>
<path style="stroke:none; fill-rule:evenodd; fill:#000000" d="M 32.7852 3.418L 38.7969 3.418L 38.7969 2.82001L 32.7852 2.82001L 32.7852 3.418z"/>
<path style="stroke:none; fill-rule:evenodd; fill:#000000" d="M 72.5586 0L 71.961 0L 71.961 2.71899L 69.1797 2.71899L 69.1797 3.31601L 71.961 3.31601L 71.961 6.11301L 72.5586 6.11301L 72.5586 3.31601L 75.2464 3.31601L 75.2464 2.71899L 72.5586 2.71899L 72.5586 0z"/>
<path style="stroke:none; fill-rule:evenodd; fill:#000000" d="M 116.984 3.418L 122.996 3.418L 122.996 2.82001L 116.984 2.82001L 116.984 3.418z"/>
<path style="stroke:none; fill-rule:evenodd; fill:#000000" d="M 156.757 0L 156.16 0L 156.16 2.71899L 153.379 2.71899L 153.379 3.31601L 156.16 3.31601L 156.16 6.11301L 156.757 6.11301L 156.757 3.31601L 159.445 3.31601L 159.445 2.71899L 156.757 2.71899L 156.757 0z"/>
<path style="stroke:none; fill-rule:evenodd; fill:#000000" d="M 201.183 3.418L 207.195 3.418L 207.195 2.82001L 201.183 2.82001L 201.183 3.418z"/>
<path style="stroke:none; fill-rule:evenodd; fill:#000000" d="M 240.859 0L 240.261 0L 240.261 2.71899L 237.48 2.71899L 237.48 3.31601L 240.261 3.31601L 240.261 6.11301L 240.859 6.11301L 240.859 3.31601L 243.547 3.31601L 243.547 2.71899L 240.859 2.71899L 240.859 0z"/>
</g>
</svg>