<?xml version="1.0" encoding="ISO-8859-1" standalone="yes"?>
<svg width="222.719" height="157.474">
  <defs> 
    <marker id="ArrowEnd" viewBox="0 0 10 10" refX="0" refY="5" 
     markerUnits="strokeWidth" 
     markerWidth="4" 
     markerHeight="3" 
     orient="auto"> 
        <path d="M 0 0 L 10 5 L 0 10 z" /> 
    </marker>
    <marker id="ArrowStart" viewBox="0 0 10 10" refX="10" refY="5" 
     markerUnits="strokeWidth" 
     markerWidth="4" 
     markerHeight="3" 
     orient="auto"> 
        <path d="M 10 0 L 0 5 L 10 10 z" /> 
    </marker> </defs>
<g>
<path style="stroke:none; fill-rule:evenodd; fill:#ff0000" d="M 77.906 143.926L 136.203 143.926L 136.203 109.196L 77.906 109.196L 77.906 143.926z"/>
<path style="stroke:#ff0000; stroke-width:0.10000000000000001; fill:none" d="M 77.906 143.926L 136.203 143.926L 136.203 109.196L 77.906 109.196L 77.906 143.926z"/>
<path style="stroke:none; fill-rule:evenodd; fill:#ff0000" d="M 97.75 150.129C 97.75 146.364 94.699 143.309 90.93 143.309C 87.164 143.309 84.109 146.36 84.109 150.129C 84.109 153.895 87.16 156.95 90.93 156.95C 94.695 156.95 97.75 153.899 97.75 150.129"/>
<path style="stroke:#ff0000; stroke-width:0.10000000000000001; fill:none" d="M 97.75 150.129C 97.75 146.364 94.699 143.309 90.93 143.309C 87.164 143.309 84.109 146.36 84.109 150.129C 84.109 153.895 87.16 156.95 90.93 156.95C 94.695 156.95 97.75 153.899 97.75 150.129"/>
<path style="stroke:none; fill-rule:evenodd; fill:#ff0000" d="M 127.519 150.129C 127.519 146.364 124.469 143.309 120.699 143.309C 116.934 143.309 113.879 146.36 113.879 150.129C 113.879 153.895 116.93 156.95 120.699 156.95C 124.465 156.95 127.519 153.899 127.519 150.129"/>
<path style="stroke:#ff0000; stroke-width:0.10000000000000001; fill:none" d="M 127.519 150.129C 127.519 146.364 124.469 143.309 120.699 143.309C 116.934 143.309 113.879 146.36 113.879 150.129C 113.879 153.895 116.93 156.95 120.699 156.95C 124.465 156.95 127.519 153.899 127.519 150.129"/>
<path style="stroke:none; fill-rule:evenodd; fill:#ff0000" d="M 135.586 143.926L 144.887 143.926L 144.887 126.563L 135.586 126.563L 135.586 143.926z"/>
<path style="stroke:#ff0000; stroke-width:0.10000000000000001; fill:none" d="M 135.586 143.926L 144.887 143.926L 144.887 126.563L 135.586 126.563L 135.586 143.926z"/>
<path style="stroke:none; fill-rule:evenodd; fill:#000000" d="M 3.0039 13.5L 10.8125 13.5C 13.5117 13.5 14.7187 14.801 14.7187 17.723L 14.7187 19.832C 14.7187 21.293 14.9765 22.723 15.3984 23.696L 19.0703 23.696L 19.0703 22.95C 17.914 22.172 17.6797 21.325 17.6132 18.172C 17.582 14.274 16.9687 13.1021 14.4258 11.996C 17.1172 10.7 18.1992 9.039 18.1992 6.34003C 18.1992 2.24603 15.6211 0.00402832 10.957 0.00402832L 0 0.00402832L 0 23.7L 3 23.7L 3.0039 13.5zM 3.0508 10.828L 3.0508 2.672L 10.3632 2.672C 12.0508 2.672 13.0273 2.92999 13.7734 3.578C 14.5859 4.258 15.0078 5.33203 15.0078 6.76202C 15.0078 9.55499 13.5781 10.825 10.3632 10.825L 3.0508 10.828z"/>
<path style="stroke:none; fill-rule:evenodd; fill:#000000" d="M 37.1054 16.1021C 37.1054 13.508 36.9101 11.95 36.4218 10.684C 35.3164 7.89502 32.7109 6.20703 29.5234 6.20703C 24.7734 6.20703 21.7109 9.836 21.7109 15.403C 21.7109 20.969 24.6679 24.403 29.4453 24.403C 33.3437 24.403 36.0429 22.211 36.7265 18.536L 33.9882 18.536C 33.2422 20.746 31.7109 21.903 29.5273 21.903C 27.8008 21.903 26.3359 21.133 25.4258 19.715C 24.7773 18.75 24.5468 17.786 24.5156 16.11L 37.1054 16.1021zM 24.5976 13.883C 24.8242 10.731 26.7422 8.68402 29.4726 8.68402C 32.1367 8.68402 34.1836 10.895 34.1836 13.688C 34.1836 13.75 34.1836 13.817 34.1523 13.879L 24.5976 13.883z"/>
<path style="stroke:none; fill-rule:evenodd; fill:#000000" d="M 54.605 0L 51.906 0L 51.906 8.80902C 50.773 7.10205 48.961 6.20001 46.6953 6.20001C 42.2929 6.20001 39.4101 9.73102 39.4101 15.137C 39.4101 20.868 42.2265 24.395 46.7968 24.395C 49.125 24.395 50.746 23.532 52.207 21.453L 52.207 23.696L 54.605 23.696L 54.605 0zM 47.1367 8.70001C 50.055 8.70001 51.902 11.301 51.902 15.364C 51.902 19.297 50.023 21.895 47.1679 21.895C 44.1875 21.895 42.207 19.262 42.207 15.297C 42.207 11.332 44.1836 8.69604 47.1367 8.69604L 47.1367 8.70001z"/>
<path style="stroke:none; fill-rule:evenodd; fill:#000000" d="M 152.805 2.70001L 160.582 2.70001L 160.582 0L 141.988 0L 141.988 2.70001L 149.805 2.70001L 149.805 23.696L 152.805 23.696L 152.805 2.70001z"/>
<path style="stroke:none; fill-rule:evenodd; fill:#000000" d="M 163.406 6.69202L 163.406 23.7L 166.203 23.7L 166.203 14.899C 166.203 12.473 166.816 10.887 168.109 9.95001C 168.949 9.336 169.758 9.14105 171.633 9.10602L 171.633 6.30499C 171.176 6.24304 170.945 6.20703 170.586 6.20703C 168.816 6.20703 167.477 7.24603 165.902 9.77802L 165.902 6.69604L 163.406 6.69202z"/>
<path style="stroke:none; fill-rule:evenodd; fill:#000000" d="M 187.707 23.657L 187.707 6.703L 185.008 6.703L 185.008 16.289C 185.008 19.743 183.18 22 180.336 22C 178.184 22 176.809 20.711 176.809 18.676L 176.809 6.703L 174.109 6.703L 174.109 19.774C 174.109 22.586 176.238 24.399 179.578 24.399C 182.098 24.399 183.703 23.528 185.309 21.293L 185.309 23.653L 187.707 23.657z"/>
<path style="stroke:none; fill-rule:evenodd; fill:#000000" d="M 205.418 12.387C 205.289 10.7271 204.93 9.64905 204.281 8.703C 203.113 7.13702 201.062 6.203 198.687 6.203C 194.102 6.203 191.113 9.83203 191.113 15.465C 191.113 20.934 194.039 24.399 198.656 24.399C 202.719 24.399 205.289 21.981 205.617 17.848L 202.879 17.848C 202.426 20.547 201.023 21.899 198.707 21.899C 195.707 21.899 193.914 19.473 193.914 15.461C 193.914 11.2271 195.672 8.70001 198.641 8.70001C 200.922 8.70001 202.355 10.024 202.684 12.383L 205.418 12.387z"/>
<path style="stroke:none; fill-rule:evenodd; fill:#000000" d="M 211.004 0L 208.305 0L 208.305 23.696L 211.004 23.696L 211.004 17.067L 213.633 14.469L 219.375 23.7L 222.719 23.7L 215.773 12.575L 221.68 6.703L 218.207 6.703L 211.004 13.883L 211.004 0z"/>
<path style="stroke:#000000; stroke-width:1.91229; fill:none" d="M 113.617 98.973L 29.4765 38.739"/>
<path style="stroke:none; fill-rule:evenodd; fill:#000000" d="M 34.6484 46.297L 26.2734 36.446L 38.3008 41.2"/>
<path style="stroke:#000000; stroke-width:1.91229; fill:none" d="M 34.5859 44.746L 29.4804 38.743L 36.8086 41.637"/>
<path style="stroke:#000000; stroke-width:1.91229; fill:none" d="M 115.531 100.887L 185.328 41.61"/>
<path style="stroke:none; fill-rule:evenodd; fill:#000000" d="M 176.738 44.786L 188.332 39.055L 180.801 49.567"/>
<path style="stroke:#000000; stroke-width:1.91229; fill:none" d="M 178.262 45.098L 185.328 41.606L 180.738 48.012"/>
</g>
</svg>