<?xml version="1.0" encoding="UTF-8" standalone="no"?>
<!-- Created with Inkscape (http://www.inkscape.org/) -->

<svg
   xmlns:dc="http://purl.org/dc/elements/1.1/"
   xmlns:cc="http://creativecommons.org/ns#"
   xmlns:rdf="http://www.w3.org/1999/02/22-rdf-syntax-ns#"
   xmlns:svg="http://www.w3.org/2000/svg"
   xmlns="http://www.w3.org/2000/svg"
   xmlns:sodipodi="http://sodipodi.sourceforge.net/DTD/sodipodi-0.dtd"
   xmlns:inkscape="http://www.inkscape.org/namespaces/inkscape"
   id="svg4155"
   version="1.1"
   inkscape:version="0.91 r13725"
   xml:space="preserve"
   width="765"
   height="990"
   viewBox="0 0 765 990"
   sodipodi:docname="fig_ps_pd_data.svg"
   inkscape:export-filename="/Users/oreilly/svn_docs/figs/fig_ps_pd_data.png"
   inkscape:export-xdpi="150"
   inkscape:export-ydpi="150"><metadata
     id="metadata4161"><rdf:RDF><cc:Work
         rdf:about=""><dc:format>image/svg+xml</dc:format><dc:type
           rdf:resource="http://purl.org/dc/dcmitype/StillImage" /><dc:title></dc:title></cc:Work></rdf:RDF></metadata><defs
     id="defs4159"><clipPath
       clipPathUnits="userSpaceOnUse"
       id="clipPath4171"><path
         d="M 0,0 612,0 612,792 0,792 0,0 Z"
         id="path4173"
         inkscape:connector-curvature="0" /></clipPath></defs><sodipodi:namedview
     pagecolor="#ffffff"
     bordercolor="#666666"
     borderopacity="1"
     objecttolerance="10"
     gridtolerance="10"
     guidetolerance="10"
     inkscape:pageopacity="0"
     inkscape:pageshadow="2"
     inkscape:window-width="640"
     inkscape:window-height="480"
     id="namedview4157"
     showgrid="false"
     inkscape:zoom="2.1171717"
     inkscape:cx="231.35496"
     inkscape:cy="287.17557"
     inkscape:current-layer="g4163" /><g
     id="g4163"
     inkscape:groupmode="layer"
     inkscape:label="fig_ps_pd_data"
     transform="matrix(1.25,0,0,-1.25,0,990)"><rect
       style="opacity:1;fill:#ffffff;fill-opacity:1;fill-rule:nonzero;stroke:#ffffff;stroke-width:0.77700263;stroke-linecap:butt;stroke-linejoin:miter;stroke-miterlimit:4;stroke-dasharray:none;stroke-dashoffset:0;stroke-opacity:1"
       id="rect4511"
       width="516.56116"
       height="421.71765"
       x="42.309113"
       y="-465.16037"
       transform="scale(1,-1)" /><g
       id="g4165" /><path
       d="M 443.7,196.636 229.5,220.381"
       style="fill:none;stroke:#000000;stroke-width:2.26399994;stroke-linecap:butt;stroke-linejoin:miter;stroke-miterlimit:10;stroke-dasharray:none;stroke-opacity:1"
       id="path4175"
       inkscape:connector-curvature="0" /><path
       d="m 443.7,196.636 0,38.862 m -6.242,0 12.484,0 m -6.242,-38.862 0,-38.862 m 6.242,0 -12.484,0 m -207.958,62.607 0,37.822 m -6.242,0 12.484,0 m -6.242,-37.822 0,-37.76 m 6.242,0 -12.484,0"
       style="fill:none;stroke:#000000;stroke-width:1.83599997;stroke-linecap:butt;stroke-linejoin:miter;stroke-miterlimit:10;stroke-dasharray:none;stroke-opacity:1"
       id="path4177"
       inkscape:connector-curvature="0" /><path
       d="m 440.212,202.633 0,-11.995 10.404,5.998"
       style="fill:#000000;fill-opacity:1;fill-rule:nonzero;stroke:none"
       id="path4179"
       inkscape:connector-curvature="0" /><path
       d="m 440.212,202.633 0,-11.995 10.404,5.998 -10.404,5.997 z"
       style="fill:none;stroke:#000000;stroke-width:0.91799998;stroke-linecap:butt;stroke-linejoin:miter;stroke-miterlimit:10;stroke-dasharray:none;stroke-opacity:1"
       id="path4181"
       inkscape:connector-curvature="0" /><path
       d="m 226.012,226.379 0,-11.995 10.404,5.997"
       style="fill:#000000;fill-opacity:1;fill-rule:nonzero;stroke:none"
       id="path4183"
       inkscape:connector-curvature="0" /><path
       d="m 226.012,226.379 0,-11.995 10.404,5.997 -10.404,5.998 z"
       style="fill:none;stroke:#000000;stroke-width:0.91799998;stroke-linecap:butt;stroke-linejoin:miter;stroke-miterlimit:10;stroke-dasharray:none;stroke-opacity:1"
       id="path4185"
       inkscape:connector-curvature="0" /><path
       d="M 443.7,298.105 229.5,204.775"
       style="fill:none;stroke:#ff0000;stroke-width:2.26399994;stroke-linecap:butt;stroke-linejoin:miter;stroke-miterlimit:10;stroke-dasharray:2.264, 6.854, 11.444, 6.854, 2.264, 6.854;stroke-dashoffset:0;stroke-opacity:1"
       id="path4187"
       inkscape:connector-curvature="0" /><path
       d="m 443.7,298.105 0,43.207 m -6.242,0 12.484,0 m -6.242,-43.207 0,-43.146 m 6.242,0 -12.484,0 M 229.5,204.775 l 0,36.659 m -6.242,0 12.484,0 m -6.242,-36.659 0,-36.72 m 6.242,0 -12.484,0"
       style="fill:none;stroke:#ff0000;stroke-width:1.83599997;stroke-linecap:butt;stroke-linejoin:miter;stroke-miterlimit:10;stroke-dasharray:none;stroke-opacity:1"
       id="path4189"
       inkscape:connector-curvature="0" /><path
       d="m 449.698,298.08 c 0,3.311 -2.687,5.998 -5.998,5.998 -3.311,0 -5.998,-2.687 -5.998,-5.998 0,-3.311 2.687,-5.998 5.998,-5.998 3.311,0 5.998,2.687 5.998,5.998"
       style="fill:#ff0000;fill-opacity:1;fill-rule:nonzero;stroke:none"
       id="path4191"
       inkscape:connector-curvature="0" /><path
       d="m 449.698,298.08 c 0,3.311 -2.687,5.998 -5.998,5.998 -3.311,0 -5.998,-2.687 -5.998,-5.998 0,-3.311 2.687,-5.998 5.998,-5.998 3.311,0 5.998,2.687 5.998,5.998"
       style="fill:none;stroke:#ff0000;stroke-width:0.91799998;stroke-linecap:butt;stroke-linejoin:miter;stroke-miterlimit:10;stroke-dasharray:none;stroke-opacity:1"
       id="path4193"
       inkscape:connector-curvature="0" /><path
       d="m 235.498,204.72 c 0,3.311 -2.687,5.998 -5.998,5.998 -3.311,0 -5.998,-2.687 -5.998,-5.998 0,-3.311 2.687,-5.998 5.998,-5.998 3.311,0 5.998,2.687 5.998,5.998"
       style="fill:#ff0000;fill-opacity:1;fill-rule:nonzero;stroke:none"
       id="path4195"
       inkscape:connector-curvature="0" /><path
       d="m 235.498,204.72 c 0,3.311 -2.687,5.998 -5.998,5.998 -3.311,0 -5.998,-2.687 -5.998,-5.998 0,-3.311 2.687,-5.998 5.998,-5.998 3.311,0 5.998,2.687 5.998,5.998"
       style="fill:none;stroke:#ff0000;stroke-width:0.91799998;stroke-linecap:butt;stroke-linejoin:miter;stroke-miterlimit:10;stroke-dasharray:none;stroke-opacity:1"
       id="path4197"
       inkscape:connector-curvature="0" /><path
       d="M 443.7,167.504 229.5,281.948"
       style="fill:none;stroke:#008b00;stroke-width:2.26399994;stroke-linecap:butt;stroke-linejoin:miter;stroke-miterlimit:10;stroke-dasharray:11.444, 6.854;stroke-dashoffset:0;stroke-opacity:1"
       id="path4199"
       inkscape:connector-curvature="0" /><path
       d="m 443.7,167.504 0,61.017 m -6.242,0 12.484,0 m -6.242,-61.017 0,-61.016 m 6.242,0 -12.484,0 m -207.958,175.46 0,26.316 m -6.242,0 12.484,0 m -6.242,-26.316 0,-26.377 m 6.242,0 -12.484,0"
       style="fill:none;stroke:#008b00;stroke-width:1.83599997;stroke-linecap:butt;stroke-linejoin:miter;stroke-miterlimit:10;stroke-dasharray:none;stroke-opacity:1"
       id="path4201"
       inkscape:connector-curvature="0" /><path
       d="m 443.7,173.502 -5.998,-5.998 5.998,-5.997 5.998,5.997"
       style="fill:#008b00;fill-opacity:1;fill-rule:nonzero;stroke:none"
       id="path4203"
       inkscape:connector-curvature="0" /><path
       d="m 443.7,173.502 -5.998,-5.998 5.998,-5.997 5.998,5.997 -5.998,5.998 z"
       style="fill:none;stroke:#008b00;stroke-width:0.91799998;stroke-linecap:butt;stroke-linejoin:miter;stroke-miterlimit:10;stroke-dasharray:none;stroke-opacity:1"
       id="path4205"
       inkscape:connector-curvature="0" /><path
       d="m 229.5,287.946 -5.998,-5.998 5.998,-5.997 5.998,5.997"
       style="fill:#008b00;fill-opacity:1;fill-rule:nonzero;stroke:none"
       id="path4207"
       inkscape:connector-curvature="0" /><path
       d="m 229.5,287.946 -5.998,-5.998 5.998,-5.997 5.998,5.997 -5.998,5.998 z"
       style="fill:none;stroke:#008b00;stroke-width:0.91799998;stroke-linecap:butt;stroke-linejoin:miter;stroke-miterlimit:10;stroke-dasharray:none;stroke-opacity:1"
       id="path4209"
       inkscape:connector-curvature="0" /><path
       d="m 229.5,98.96 0,0 m 0,296.882 0,0 M 443.7,98.96 l 0,0 m 0,296.882 0,0"
       style="fill:none;stroke:#000000;stroke-width:0.91799998;stroke-linecap:butt;stroke-linejoin:miter;stroke-miterlimit:10;stroke-dasharray:none;stroke-opacity:1"
       id="path4211"
       inkscape:connector-curvature="0" /><text
       transform="scale(1,-1)"
       style="font-variant:normal;font-weight:normal;font-size:25.70400047px;font-family:Helvetica;-inkscape-font-specification:Helvetica;writing-mode:lr-tb;fill:#000000;fill-opacity:1;fill-rule:nonzero;stroke:none"
       id="text4213"
       x="173.196"
       y="-73.868401"><tspan
         x="173.196 191.75429 206.04572 220.33714 234.62856 247.48056 261.77197 268.91769"
         y="-73.868401"
         sodipodi:role="line"
         id="tspan4215">Choose A</tspan></text>
<text
       transform="scale(1,-1)"
       style="font-variant:normal;font-weight:normal;font-size:25.70400047px;font-family:Helvetica;-inkscape-font-specification:Helvetica;writing-mode:lr-tb;fill:#000000;fill-opacity:1;fill-rule:nonzero;stroke:none"
       id="text4217"
       x="399.87961"
       y="-74.112587"><tspan
         x="399.87961 417.02417 429.87616 444.1676 449.87387 464.16531 471.311"
         y="-74.112587"
         sodipodi:role="line"
         id="tspan4219">Avoid B</tspan></text>
<text
       transform="scale(1,-1)"
       style="font-variant:normal;font-weight:bold;font-size:22.95000076px;font-family:Helvetica;-inkscape-font-specification:Helvetica-Bold;writing-mode:lr-tb;fill:#000000;fill-opacity:1;fill-rule:nonzero;stroke:none"
       id="text4221"
       x="257.04001"
       y="-50.245201"><tspan
         x="257.04001 271.06244 283.82266 296.58286 304.22519 310.60529 327.1752 341.19766 355.22009 369.24255 375.62265 383.26498 389.64511 403.66754"
         y="-50.245201"
         sodipodi:role="line"
         id="tspan4223">Test Condition</tspan></text>
<path
       d="m 122.4,98.96 4.529,0 m 423.871,0 -4.529,0 m -423.871,53.979 4.529,0 m 423.871,0 -4.529,0 m -423.871,53.978 4.529,0 m 423.871,0 -4.529,0 m -423.871,53.979 4.529,0 m 423.871,0 -4.529,0 m -423.871,53.978 4.529,0 m 423.871,0 -4.529,0 m -423.871,53.978 4.529,0 m 423.871,0 -4.529,0 M 122.4,125.95 l 7.344,0 m 421.056,0 -7.344,0 m -421.056,53.978 7.344,0 m 421.056,0 -7.344,0 m -421.056,53.978 7.344,0 m 421.056,0 -7.344,0 m -421.056,53.979 7.344,0 m 421.056,0 -7.344,0 m -421.056,53.978 7.344,0 m 421.056,0 -7.344,0 m -421.056,53.979 7.344,0 m 421.056,0 -7.344,0"
       style="fill:none;stroke:#000000;stroke-width:1.83599997;stroke-linecap:butt;stroke-linejoin:miter;stroke-miterlimit:10;stroke-dasharray:none;stroke-opacity:1"
       id="path4225"
       inkscape:connector-curvature="0" /><text
       transform="scale(1,-1)"
       style="font-variant:normal;font-weight:normal;font-size:25.70400047px;font-family:Helvetica;-inkscape-font-specification:Helvetica;writing-mode:lr-tb;fill:#000000;fill-opacity:1;fill-rule:nonzero;stroke:none"
       id="text4227"
       x="88.923599"
       y="-117.198"><tspan
         x="88.923599 103.21503"
         y="-117.198"
         sodipodi:role="line"
         id="tspan4229">50</tspan></text>
<text
       transform="scale(1,-1)"
       style="font-variant:normal;font-weight:normal;font-size:25.70400047px;font-family:Helvetica;-inkscape-font-specification:Helvetica;writing-mode:lr-tb;fill:#000000;fill-opacity:1;fill-rule:nonzero;stroke:none"
       id="text4231"
       x="88.923599"
       y="-171.17641"><tspan
         x="88.923599 103.21503"
         y="-171.17641"
         sodipodi:role="line"
         id="tspan4233">60</tspan></text>
<text
       transform="scale(1,-1)"
       style="font-variant:normal;font-weight:normal;font-size:25.70400047px;font-family:Helvetica;-inkscape-font-specification:Helvetica;writing-mode:lr-tb;fill:#000000;fill-opacity:1;fill-rule:nonzero;stroke:none"
       id="text4235"
       x="88.923599"
       y="-225.1548"><tspan
         x="88.923599 103.21503"
         y="-225.1548"
         sodipodi:role="line"
         id="tspan4237">70</tspan></text>
<text
       transform="scale(1,-1)"
       style="font-variant:normal;font-weight:normal;font-size:25.70400047px;font-family:Helvetica;-inkscape-font-specification:Helvetica;writing-mode:lr-tb;fill:#000000;fill-opacity:1;fill-rule:nonzero;stroke:none"
       id="text4239"
       x="88.923599"
       y="-279.13321"><tspan
         x="88.923599 103.21503"
         y="-279.13321"
         sodipodi:role="line"
         id="tspan4241">80</tspan></text>
<text
       transform="scale(1,-1)"
       style="font-variant:normal;font-weight:normal;font-size:25.70400047px;font-family:Helvetica;-inkscape-font-specification:Helvetica;writing-mode:lr-tb;fill:#000000;fill-opacity:1;fill-rule:nonzero;stroke:none"
       id="text4243"
       x="88.923599"
       y="-333.1116"><tspan
         x="88.923599 103.21503"
         y="-333.1116"
         sodipodi:role="line"
         id="tspan4245">90</tspan></text>
<text
       transform="scale(1,-1)"
       style="font-variant:normal;font-weight:normal;font-size:25.70400047px;font-family:Helvetica;-inkscape-font-specification:Helvetica;writing-mode:lr-tb;fill:#000000;fill-opacity:1;fill-rule:nonzero;stroke:none"
       id="text4247"
       x="74.7864"
       y="-386.96661"><tspan
         x="74.7864 89.077827 103.36925"
         y="-386.96661"
         sodipodi:role="line"
         id="tspan4249">100</tspan></text>
<text
       transform="matrix(0,1,1,0,0,0)"
       style="font-variant:normal;font-weight:bold;font-size:19.33919907px;font-family:Helvetica;-inkscape-font-specification:Helvetica-Bold;writing-mode:lr-tb;fill:#000000;fill-opacity:1;fill-rule:nonzero;stroke:none"
       id="text4251"
       x="165.7908"
       y="64.321198"><tspan
         x="165.7908 178.69005 189.44264 196.96559 207.71819 218.47078 230.28703 236.72699 242.10329 256.06619 266.81879 277.57138 289.3876 296.91058 307.66318 318.41577"
         y="64.321198"
         sodipodi:role="line"
         id="tspan4253">Percent Accuracy</tspan></text>
<path
       d="m 122.4,395.842 428.4,0 0,-296.881 -428.4,0 0,296.881 z"
       style="fill:none;stroke:#000000;stroke-width:1.83599997;stroke-linecap:butt;stroke-linejoin:miter;stroke-miterlimit:10;stroke-dasharray:none;stroke-opacity:1"
       id="path4255"
       inkscape:connector-curvature="0" /><g
       id="g4486"
       transform="translate(-259.5916,-178.72901)"><path
         inkscape:connector-curvature="0"
         id="path4257"
         style="fill:#ffffff;fill-opacity:1;fill-rule:nonzero;stroke:none"
         d="m 397.8,568.609 151.654,0 0,-73.44 -151.654,0 0,73.44 z" /><path
         inkscape:connector-curvature="0"
         id="path4259"
         style="fill:none;stroke:#000000;stroke-width:0.91799998;stroke-linecap:butt;stroke-linejoin:miter;stroke-miterlimit:10;stroke-dasharray:none;stroke-opacity:1"
         d="m 397.8,495.169 151.654,0 0,73.44 -151.654,0 0,-73.44 z" /><text
         y="-546.63843"
         x="465.36481"
         id="text4261"
         style="font-variant:normal;font-weight:normal;font-size:21.42000008px;font-family:Helvetica;-inkscape-font-specification:Helvetica;writing-mode:lr-tb;fill:#000000;fill-opacity:1;fill-rule:nonzero;stroke:none"
         transform="scale(1,-1)"><tspan
           id="tspan4263"
           sodipodi:role="line"
           y="-546.63843"
           x="465.36481 479.65195 491.56146 503.47098 508.22623 520.13574 527.26862">Seniors</tspan></text>
<path
         inkscape:connector-curvature="0"
         id="path4265"
         style="fill:none;stroke:#000000;stroke-width:2.26399994;stroke-linecap:butt;stroke-linejoin:miter;stroke-miterlimit:10;stroke-dasharray:none;stroke-opacity:1"
         d="m 410.407,554.35 42.84,0" /><path
         inkscape:connector-curvature="0"
         id="path4267"
         style="fill:#000000;fill-opacity:1;fill-rule:nonzero;stroke:none"
         d="m 406.919,560.347 0,-11.995 10.404,5.998" /><path
         inkscape:connector-curvature="0"
         id="path4269"
         style="fill:none;stroke:#000000;stroke-width:0.91799998;stroke-linecap:butt;stroke-linejoin:miter;stroke-miterlimit:10;stroke-dasharray:none;stroke-opacity:1"
         d="m 406.919,560.347 0,-11.995 10.404,5.998 -10.404,5.997 z" /><path
         inkscape:connector-curvature="0"
         id="path4271"
         style="fill:#000000;fill-opacity:1;fill-rule:nonzero;stroke:none"
         d="m 449.759,560.347 0,-11.995 10.404,5.998" /><path
         inkscape:connector-curvature="0"
         id="path4273"
         style="fill:none;stroke:#000000;stroke-width:0.91799998;stroke-linecap:butt;stroke-linejoin:miter;stroke-miterlimit:10;stroke-dasharray:none;stroke-opacity:1"
         d="m 449.759,560.347 0,-11.995 10.404,5.998 -10.404,5.997 z" /><text
         y="-524.23932"
         x="465.36481"
         id="text4275"
         style="font-variant:normal;font-weight:normal;font-size:21.42000008px;font-family:Helvetica;-inkscape-font-specification:Helvetica;writing-mode:lr-tb;fill:#000000;fill-opacity:1;fill-rule:nonzero;stroke:none"
         transform="scale(1,-1)"><tspan
           id="tspan4277"
           sodipodi:role="line"
           y="-524.23932"
           x="465.36481 479.65195 495.11719 501.07193 517.73669 530.82434">PD OFF</tspan></text>
<path
         inkscape:connector-curvature="0"
         id="path4279"
         style="fill:none;stroke:#ff0000;stroke-width:2.26399994;stroke-linecap:butt;stroke-linejoin:miter;stroke-miterlimit:10;stroke-dasharray:2.264, 6.854, 11.444, 6.854, 2.264, 6.854;stroke-dashoffset:0;stroke-opacity:1"
         d="m 410.407,531.889 42.84,0" /><path
         inkscape:connector-curvature="0"
         id="path4281"
         style="fill:#ff0000;fill-opacity:1;fill-rule:nonzero;stroke:none"
         d="m 416.458,531.84 c 0,3.311 -2.687,5.998 -5.998,5.998 -3.311,0 -5.998,-2.687 -5.998,-5.998 0,-3.311 2.687,-5.998 5.998,-5.998 3.311,0 5.998,2.687 5.998,5.998" /><path
         inkscape:connector-curvature="0"
         id="path4283"
         style="fill:none;stroke:#ff0000;stroke-width:0.91799998;stroke-linecap:butt;stroke-linejoin:miter;stroke-miterlimit:10;stroke-dasharray:none;stroke-opacity:1"
         d="m 416.458,531.84 c 0,3.311 -2.687,5.998 -5.998,5.998 -3.311,0 -5.998,-2.687 -5.998,-5.998 0,-3.311 2.687,-5.998 5.998,-5.998 3.311,0 5.998,2.687 5.998,5.998" /><path
         inkscape:connector-curvature="0"
         id="path4285"
         style="fill:#ff0000;fill-opacity:1;fill-rule:nonzero;stroke:none"
         d="m 459.298,531.84 c 0,3.311 -2.687,5.998 -5.998,5.998 -3.311,0 -5.998,-2.687 -5.998,-5.998 0,-3.311 2.687,-5.998 5.998,-5.998 3.311,0 5.998,2.687 5.998,5.998" /><path
         inkscape:connector-curvature="0"
         id="path4287"
         style="fill:none;stroke:#ff0000;stroke-width:0.91799998;stroke-linecap:butt;stroke-linejoin:miter;stroke-miterlimit:10;stroke-dasharray:none;stroke-opacity:1"
         d="m 459.298,531.84 c 0,3.311 -2.687,5.998 -5.998,5.998 -3.311,0 -5.998,-2.687 -5.998,-5.998 0,-3.311 2.687,-5.998 5.998,-5.998 3.311,0 5.998,2.687 5.998,5.998" /><text
         y="-501.77881"
         x="465.36481"
         id="text4289"
         style="font-variant:normal;font-weight:normal;font-size:21.42000008px;font-family:Helvetica;-inkscape-font-specification:Helvetica;writing-mode:lr-tb;fill:#000000;fill-opacity:1;fill-rule:nonzero;stroke:none"
         transform="scale(1,-1)"><tspan
           id="tspan4291"
           sodipodi:role="line"
           y="-501.77881"
           x="465.36481 479.65195 495.11719 501.07193 517.73669 533.20197">PD ON </tspan></text>
<path
         inkscape:connector-curvature="0"
         id="path4293"
         style="fill:none;stroke:#008b00;stroke-width:2.26399994;stroke-linecap:butt;stroke-linejoin:miter;stroke-miterlimit:10;stroke-dasharray:11.444, 6.854;stroke-dashoffset:0;stroke-opacity:1"
         d="m 410.407,509.429 42.84,0" /><path
         inkscape:connector-curvature="0"
         id="path4295"
         style="fill:#008b00;fill-opacity:1;fill-rule:nonzero;stroke:none"
         d="m 410.407,515.426 -5.997,-5.997 5.997,-5.998 5.998,5.998" /><path
         inkscape:connector-curvature="0"
         id="path4297"
         style="fill:none;stroke:#008b00;stroke-width:0.91799998;stroke-linecap:butt;stroke-linejoin:miter;stroke-miterlimit:10;stroke-dasharray:none;stroke-opacity:1"
         d="m 410.407,515.426 -5.997,-5.997 5.997,-5.998 5.998,5.998 -5.998,5.997 z" /><path
         inkscape:connector-curvature="0"
         id="path4299"
         style="fill:#008b00;fill-opacity:1;fill-rule:nonzero;stroke:none"
         d="m 453.247,515.426 -5.997,-5.997 5.997,-5.998 5.998,5.998" /><path
         inkscape:connector-curvature="0"
         id="path4301"
         style="fill:none;stroke:#008b00;stroke-width:0.91799998;stroke-linecap:butt;stroke-linejoin:miter;stroke-miterlimit:10;stroke-dasharray:none;stroke-opacity:1"
         d="m 453.247,515.426 -5.997,-5.997 5.997,-5.998 5.998,5.998 -5.998,5.997 z" /></g><text
       transform="scale(1,-1)"
       style="font-variant:normal;font-weight:bold;font-size:25.33679962px;font-family:Helvetica;-inkscape-font-specification:Helvetica-Bold;writing-mode:lr-tb;fill:#000000;fill-opacity:1;fill-rule:nonzero;stroke:none"
       id="text4303"
       x="201.34801"
       y="-433.05121"><tspan
         x="201.34801 218.24765 228.10367 243.58444 259.06525 273.1525 288.63327 295.67691 302.72055 309.76416 323.85144 332.28857 339.33221 353.41946 360.4631 377.36276 391.45001 398.49365 412.5809 426.66815 435.10532 442.14896 457.62973"
         y="-433.05121"
         sodipodi:role="line"
         id="tspan4305">Probabilistic Selection</tspan></text>
<text
       transform="scale(1,-1)"
       style="font-variant:normal;font-weight:bold;font-size:19.52280045px;font-family:Helvetica;-inkscape-font-specification:Helvetica-Bold;writing-mode:lr-tb;fill:#000000;fill-opacity:1;fill-rule:nonzero;stroke:none"
       id="text4307"
       x="254.4084"
       y="-408.5712"><tspan
         x="254.4084 266.33682 277.1915 288.04617 294.54727 299.97461 312.99631 323.85098 331.44537 337.94647 349.87488 357.46927 374.82504 385.67969 397.60812 408.4628"
         y="-408.5712"
         sodipodi:role="line"
         id="tspan4309">Test Performance</tspan></text>
</g></svg>