<?xml version="1.0" encoding="UTF-8" standalone="no"?>
<svg
   xmlns:dc="http://purl.org/dc/elements/1.1/"
   xmlns:cc="http://creativecommons.org/ns#"
   xmlns:rdf="http://www.w3.org/1999/02/22-rdf-syntax-ns#"
   xmlns:svg="http://www.w3.org/2000/svg"
   xmlns="http://www.w3.org/2000/svg"
   xmlns:sodipodi="http://sodipodi.sourceforge.net/DTD/sodipodi-0.dtd"
   xmlns:inkscape="http://www.inkscape.org/namespaces/inkscape"
   version="1.1"
   width="400px"
   height="400px"
   viewBox="0 0 1000.0 1000.0"
   id="svg2"
   inkscape:version="0.91 r13725"
   sodipodi:docname="fig_gardenpath_series_II_exp_blur_correct.svg"
   inkscape:export-filename="/Users/rohrlich/svn_docs/figs/fig_gardenpath_series_II_exp_blur_correct.png"
   inkscape:export-xdpi="150"
   inkscape:export-ydpi="150">
  <metadata
     id="metadata104">
    <rdf:RDF>
      <cc:Work
         rdf:about="">
        <dc:format>image/svg+xml</dc:format>
        <dc:type
           rdf:resource="http://purl.org/dc/dcmitype/StillImage" />
        <dc:title />
      </cc:Work>
    </rdf:RDF>
  </metadata>
  <defs
     id="defs102">
    <marker
       inkscape:stockid="Arrow2Lstart"
       orient="auto"
       refY="0"
       refX="0"
       id="Arrow2Lstart"
       style="overflow:visible"
       inkscape:isstock="true">
      <path
         inkscape:connector-curvature="0"
         id="path4302"
         style="fill:#008000;fill-opacity:1;fill-rule:evenodd;stroke:#008000;stroke-width:0.62;stroke-linejoin:round;stroke-opacity:1"
         d="M 8.7,4 -2.2,0.02 8.7,-4 C 7,-1.6 7,1.6 8.7,4 Z"
         transform="matrix(1.1,0,0,1.1,1.1,0)" />
    </marker>
  </defs>
  <sodipodi:namedview
     pagecolor="#ffffff"
     bordercolor="#666666"
     borderopacity="1"
     objecttolerance="10"
     gridtolerance="10"
     guidetolerance="10"
     inkscape:pageopacity="0"
     inkscape:pageshadow="2"
     inkscape:window-width="1680"
     inkscape:window-height="1006"
     id="namedview100"
     showgrid="false"
     inkscape:zoom="1.8"
     inkscape:cx="1.8e+02"
     inkscape:cy="2.9e+02"
     inkscape:window-x="-3"
     inkscape:window-y="0"
     inkscape:window-maximized="0"
     inkscape:current-layer="g66" />
  <path
     stroke="#000000"
     stroke-width="2"
     fill="none"
     d="M 264.4,726.1 L 264.4,171.9 L 818.7,171.9 L 818.7,726.1 L 264.4,726.1 "
     id="path4" />
  <g
     id="g6">
    <text
       x="529.09998"
       y="807.25"
       font-size="27.7"
       id="text8"
       style="font-size:27.70000076px;font-family:Arial;text-anchor:middle;fill:#000000">Degree of Degradation</text>
    <text
       x="297.0"
       y="773.3"
       font-size="27.7"
       id="text10"
       style="-inkscape-font-specification:'Arial, Normal';font-family:Arial;font-weight:normal;font-style:normal;font-stretch:normal;font-variant:normal;font-size:27.70000059px;text-anchor:middle;text-align:center;writing-mode:lr;line-height:125%;"
       sodipodi:linespacing="125%"
       text-anchor="middle"
       font-family="Arial"
       fill="#000000">
      <tspan
         sodipodi:role="line"
         id="tspan4297">D7</tspan>
    </text>
    <text
       x="786.1"
       y="773.3"
       font-size="27.7"
       id="text12"
       style="-inkscape-font-specification:'Arial, Normal';font-family:Arial;font-weight:normal;font-style:normal;font-stretch:normal;font-variant:normal;font-size:27.70000059px;text-anchor:middle;text-align:center;writing-mode:lr;line-height:125%;"
       sodipodi:linespacing="125%"
       text-anchor="middle"
       font-family="Arial"
       fill="#000000">
      <tspan
         sodipodi:role="line"
         id="tspan4299">D1</tspan>
    </text>
    <path
       d="M 264.4,726.1 L 818.7,726.1 M 297.0,740.0 L 297.0,712.3 M 460.1,740.0 L 460.1,712.3 M 623.1,740.0 L 623.1,712.3 M 786.1,740.0 L 786.1,712.3 "
       id="path14"
       stroke-width="2"
       stroke="#000000"
       fill="none" />
    <path
       d="M 264.4,171.9 L 818.7,171.9 M 297.0,185.7 L 297.0,158.0 M 460.1,185.7 L 460.1,158.0 M 623.1,185.7 L 623.1,158.0 M 786.1,185.7 L 786.1,158.0 "
       id="path16"
       stroke-width="2"
       stroke="#000000"
       fill="none" />
    <text
       x="245.0"
       y="737.2"
       font-size="27.7"
       id="text18"
       text-anchor="end"
       font-family="Arial"
       fill="#000000">
10
</text>
    <text
       x="245.0"
       y="667.9"
       font-size="27.7"
       id="text20"
       text-anchor="end"
       font-family="Arial"
       fill="#000000">
20
</text>
    <text
       x="245.0"
       y="598.7"
       font-size="27.7"
       id="text22"
       text-anchor="end"
       font-family="Arial"
       fill="#000000">
30
</text>
    <text
       x="245.0"
       y="529.4"
       font-size="27.7"
       id="text24"
       text-anchor="end"
       font-family="Arial"
       fill="#000000">
40
</text>
    <text
       x="245.0"
       y="460.1"
       font-size="27.7"
       id="text26"
       text-anchor="end"
       font-family="Arial"
       fill="#000000">
50
</text>
    <text
       x="245.0"
       y="390.8"
       font-size="27.7"
       id="text28"
       text-anchor="end"
       font-family="Arial"
       fill="#000000">
60
</text>
    <text
       x="245.0"
       y="321.5"
       font-size="27.7"
       id="text30"
       text-anchor="end"
       font-family="Arial"
       fill="#000000">
70
</text>
    <text
       x="245.0"
       y="252.2"
       font-size="27.7"
       id="text32"
       text-anchor="end"
       font-family="Arial"
       fill="#000000">
80
</text>
    <text
       x="245.0"
       y="183.0"
       font-size="27.7"
       id="text34"
       text-anchor="end"
       font-family="Arial"
       fill="#000000">
90
</text>
    <path
       d="M 264.4,726.1 L 264.4,171.9 M 250.6,726.1 L 278.3,726.1 M 250.6,656.9 L 278.3,656.9 M 250.6,587.6 L 278.3,587.6 M 250.6,518.3 L 278.3,518.3 M 250.6,449.0 L 278.3,449.0 M 250.6,379.7 L 278.3,379.7 M 250.6,310.4 L 278.3,310.4 M 250.6,241.2 L 278.3,241.2 M 250.6,171.9 L 278.3,171.9 "
       id="path36"
       stroke-width="2"
       stroke="#000000"
       fill="none" />
    <path
       d="M 818.7,726.1 L 818.7,171.9 M 804.8,726.1 L 832.6,726.1 M 804.8,656.9 L 832.6,656.9 M 804.8,587.6 L 832.6,587.6 M 804.8,518.3 L 832.6,518.3 M 804.8,449.0 L 832.6,449.0 M 804.8,379.7 L 832.6,379.7 M 804.8,310.4 L 832.6,310.4 M 804.8,241.2 L 832.6,241.2 M 804.8,171.9 L 832.6,171.9 "
       id="path38"
       stroke-width="2"
       stroke="#000000"
       fill="none" />
    <text
       sodipodi:linespacing="125%"
       style="font-style:normal;font-variant:normal;font-weight:normal;font-stretch:normal;font-size:27.70000059px;line-height:125%;font-family:Arial;-inkscape-font-specification:'Arial, Normal';text-align:center;writing-mode:lr;text-anchor:middle;fill:#000000;"
       id="text4301"
       font-size="27.7"
       y="771.73749"
       x="459.5">
      <tspan
         sodipodi:role="line"
         id="tspan4305">D5</tspan>
    </text>
    <text
       x="623.5625"
       y="770.17499"
       font-size="27.7"
       id="text4307"
       style="font-style:normal;font-variant:normal;font-weight:normal;font-stretch:normal;font-size:27.70000059px;line-height:125%;font-family:Arial;-inkscape-font-specification:'Arial, Normal';text-align:center;writing-mode:lr;text-anchor:middle;fill:#000000;"
       sodipodi:linespacing="125%">
      <tspan
         sodipodi:role="line"
         id="tspan4311">D3</tspan>
    </text>
  </g>
  <g
     id="g66">
    <path
       stroke="#000000"
       stroke-width="1.5"
       fill="none"
       d="M 297.0,663.8  L 460.1,615.3 L 623.1,552.9 L 786.1,386.7 "
       id="path68"
       style="stroke-width:2.5;stroke-miterlimit:4;stroke-dasharray:none" />
    <path
       stroke="#000000"
       stroke-width="1.5"
       fill="none"
       d=" "
       id="path70" />
    <path
       stroke="#000000"
       stroke-width="1.5"
       fill="#000000"
       d="M 302.6,663.8 L 302.2,661.7 L 301.0,659.9 L 299.2,658.7 L 297.0,658.2 L 294.9,658.7 L 293.1,659.9 L 291.9,661.7 L 291.5,663.8 L 291.9,665.9 L 293.1,667.7 L 294.9,668.9 L 297.0,669.3 L 299.2,668.9 L 301.0,667.7 L 302.2,665.9 L 302.6,663.8 M 465.6,615.3 L 465.2,613.2 L 464.0,611.4 L 462.2,610.2 L 460.1,609.7 L 457.9,610.2 L 456.1,611.4 L 454.9,613.2 L 454.5,615.3 L 454.9,617.4 L 456.1,619.2 L 457.9,620.4 L 460.1,620.8 L 462.2,620.4 L 464.0,619.2 L 465.2,617.4 L 465.6,615.3 M 628.6,552.9 L 628.2,550.8 L 627.0,549.0 L 625.2,547.8 L 623.1,547.4 L 621.0,547.8 L 619.2,549.0 L 618.0,550.8 L 617.5,552.9 L 618.0,555.1 L 619.2,556.9 L 621.0,558.1 L 623.1,558.5 L 625.2,558.1 L 627.0,556.9 L 628.2,555.1 L 628.6,552.9 M 791.6,386.7 L 791.2,384.5 L 790.0,382.7 L 788.2,381.5 L 786.1,381.1 L 784.0,381.5 L 782.2,382.7 L 781.0,384.5 L 780.6,386.7 L 781.0,388.8 L 782.2,390.6 L 784.0,391.8 L 786.1,392.2 L 788.2,391.8 L 790.0,390.6 L 791.2,388.8 L 791.6,386.7 "
       id="path72" />
    <path
       stroke="#000000"
       stroke-width="1.5"
       fill="none"
       d=" M 286.0,681.6 L 308.1,681.6 M 286.0,646.0 L 308.1,646.0 M 297.0,681.6 L 297.0,646.0 M 297.0,663.8    M 449.0,635.1 L 471.1,635.1 M 449.0,595.5 L 471.1,595.5 M 460.1,635.1 L 460.1,595.5 M 460.1,615.3   M 612.0,578.3 L 634.2,578.3 M 612.0,527.5 L 634.2,527.5 M 623.1,578.3 L 623.1,527.5 M 623.1,552.9   M 775.0,409.2 L 797.2,409.2 M 775.0,364.1 L 797.2,364.1 M 786.1,409.2 L 786.1,364.1 M 786.1,386.7  "
       id="path74" />
    <path
       stroke="#ff0000"
       stroke-width="1.5"
       fill="none"
       d=" M 460.1,573.7 L 623.1,490.6 L 786.1,400.5 "
       id="path76"
       style="stroke-width:2.5;stroke-miterlimit:4;stroke-dasharray:20,20;stroke-dashoffset:0" />
    <path
       stroke="#ff0000"
       stroke-width="1.5"
       fill="none"
       d=" "
       id="path78" />
    <path
       stroke="#ff0000"
       stroke-width="1.5"
       fill="#ff0000"
       d="M 454.5,579.3 L 454.5,568.2 L 465.6,568.2 L 465.6,579.3 L 454.5,579.3 M 617.5,496.1 L 617.5,485.0 L 628.6,485.0 L 628.6,496.1 L 617.5,496.1 M 780.6,406.1 L 780.6,395.0 L 791.6,395.0 L 791.6,406.1 L 780.6,406.1 "
       id="path80" />
    <path
       stroke="#ff0000"
       stroke-width="1.5"
       fill="none"
       d="  M 449.0,595.4 L 471.1,595.4 M 449.0,552.1 L 471.1,552.1 M 460.1,595.4 L 460.1,552.1 M 460.1,573.7   M 612.0,513.3 L 634.2,513.3 M 612.0,467.9 L 634.2,467.9 M 623.1,513.3 L 623.1,467.9 M 623.1,490.6   M 775.0,422.6 L 797.2,422.6 M 775.0,378.4 L 797.2,378.4 M 786.1,422.6 L 786.1,378.4 M 786.1,400.5  "
       id="path82" />
    <path
       stroke="#0000ff"
       stroke-width="1.5"
       fill="none"
       d="M 623.1,421.3 L 786.1,303.5 "
       id="path84"
       style="stroke-width:2.5;stroke-miterlimit:4;stroke-dasharray:7.5,7.5;stroke-dashoffset:0" />
    <path
       stroke="#0000ff"
       stroke-width="1.5"
       fill="none"
       d=""
       id="path86" />
    <path
       stroke="#0000ff"
       stroke-width="1.5"
       fill="#0000ff"
       d="M 617.5,421.3 L 623.1,415.8 L 628.6,421.3 L 623.1,426.8 L 617.5,421.3 M 780.6,303.5 L 786.1,298.0 L 791.6,303.5 L 786.1,309.1 L 780.6,303.5 "
       id="path88" />
    <path
       stroke="#0000ff"
       stroke-width="1.5"
       fill="none"
       d=" M 612.0,444.7 L 634.2,444.7 M 612.0,397.9 L 634.2,397.9 M 623.1,444.7 L 623.1,397.9 M 623.1,421.3   M 775.0,323.4 L 797.2,323.4 M 775.0,283.6 L 797.2,283.6 M 786.1,323.4 L 786.1,283.6 M 786.1,303.5  "
       id="path90" />
    <path
       stroke="#218b21"
       stroke-width="1.5"
       fill="none"
       d="M 786.1,289.7 "
       id="path92" />
    <path
       stroke="#218b21"
       stroke-width="1.5"
       fill="none"
       d=""
       id="path94" />
    <path
       stroke="#218b21"
       stroke-width="1.5"
       fill="#218b21"
       d="M 780.6,295.2 L 786.1,284.1 L 791.6,295.2 L 780.6,295.2 "
       id="path96" />
    <path
       stroke="#218b21"
       stroke-width="1.5"
       fill="none"
       d=" M 775.0,309.7 L 797.2,309.7 M 775.0,269.6 L 797.2,269.6 M 786.1,309.7 L 786.1,269.6 M 786.1,289.7  "
       id="path98" />
    <g
       id="g4180"
       transform="matrix(0,-0.9,1,0,-740,810)">
      <text
         sodipodi:linespacing="125%"
         id="text4176"
         y="925"
         x="127.5"
         style="font-style:normal;font-weight:normal;font-size:31.24989153px;line-height:125%;font-family:sans-serif;letter-spacing:3.12px;word-spacing:0px;writing-mode:lr;fill:#000000;fill-opacity:1;stroke:none;stroke-width:1px;stroke-linecap:butt;stroke-linejoin:miter;stroke-opacity:1;-inkscape-font-specification:'sans-serif, Normal';font-stretch:normal;font-variant:normal;text-anchor:start;text-align:start;"
         xml:space="preserve"><tspan
           sodipodi:role="line"
           id="tspan4475"
           style="-inkscape-font-specification:'sans-serif, Normal';font-family:sans-serif;font-weight:normal;font-style:normal;font-stretch:normal;font-variant:normal;font-size:32.9403918px;text-anchor:start;text-align:start;writing-mode:lr;line-height:125%">Percent Correct Recognition</tspan></text>
    </g>
    <text
       sodipodi:linespacing="150%"
       style="font-style:normal;font-variant:normal;font-weight:normal;font-stretch:normal;font-size:27.13749886px;line-height:150%;font-family:Arial;-inkscape-font-specification:'Arial, Normal';text-align:start;writing-mode:lr-tb;text-anchor:start;fill:#218b21;stroke-width:2.5;stroke-miterlimit:4;stroke-dasharray:none"
       id="text4334"
       font-size="21.0"
       y="300.09393"
       x="848.43121">
      <tspan
         sodipodi:role="line"
         id="tspan4193"
         x="848.43121"
         y="300.09393">condition C1</tspan>
    </text>
    <text
       sodipodi:linespacing="150%"
       style="font-style:normal;font-variant:normal;font-weight:normal;font-stretch:normal;font-size:23.05px;line-height:150%;font-family:Arial;-inkscape-font-specification:'Arial, Normal';text-align:start;writing-mode:lr-tb;text-anchor:start;fill:#800080;stroke-width:2.5;stroke-miterlimit:4;stroke-dasharray:none"
       id="text4340"
       font-size="21.0"
       y="352.91965"
       x="441.98218">
      <tspan
         id="tspan4417"
         style="font-style:normal;font-variant:normal;font-weight:normal;font-stretch:normal;font-size:23.05px;line-height:150%;font-family:Arial;-inkscape-font-specification:'Arial, Normal';text-align:start;writing-mode:lr-tb;text-anchor:start;stroke-width:2.5;stroke-miterlimit:4;stroke-dasharray:none" />
    </text>
    <path
       sodipodi:nodetypes="cc"
       inkscape:connector-curvature="0"
       id="path4278"
       d="M 805.625,293.125 845.625,293.125"
       style="fill:none;fill-rule:evenodd;stroke:#008000;stroke-width:1.5;stroke-linecap:butt;stroke-linejoin:miter;stroke-miterlimit:4;stroke-dasharray:none;stroke-opacity:1;marker-start:url(#Arrow2Lstart)" />
    <path
       id="path4229"
       d="M 780.6,295.2 L 786.1,284.1 L 791.6,295.2 L 780.6,295.2 "
       fill="#218b21"
       stroke-width="1.5"
       stroke="#218b21" />
    <g
       id="g4254">
      <path
         d="M 310,350 370,350"
         id="path4314"
         inkscape:connector-curvature="0"
         style="fill:none;stroke:#000000;stroke-width:2.5;stroke-miterlimit:4;stroke-dasharray:none" />
      <text
         x="388.02829"
         y="357.38934"
         font-size="21.0"
         id="text4316"
         style="font-style:normal;font-variant:normal;font-weight:normal;font-stretch:normal;font-size:27.14px;line-height:150%;font-family:Arial;-inkscape-font-specification:'Arial, Normal';text-align:start;writing-mode:lr-tb;text-anchor:start;fill:#000000;stroke-width:2.5;stroke-miterlimit:4;stroke-dasharray:none"
         sodipodi:linespacing="150%">
        <tspan
           y="357.38934"
           x="388.02829"
           id="tspan4195"
           sodipodi:role="line">condition C7</tspan>
      </text>
      <path
         d="M 310,320 370,320"
         id="path4320"
         inkscape:connector-curvature="0"
         style="fill:none;stroke:#ff0000;stroke-width:2.5;stroke-miterlimit:4;stroke-dasharray:20, 20;stroke-dashoffset:0" />
      <text
         x="388.60446"
         y="321.99438"
         font-size="21.0"
         id="text4322"
         style="font-style:normal;font-variant:normal;font-weight:normal;font-stretch:normal;font-size:27.14px;line-height:150%;font-family:Arial;-inkscape-font-specification:'Arial, Normal';text-align:start;writing-mode:lr-tb;text-anchor:start;fill:#ff0000;stroke-width:2.5;stroke-miterlimit:4;stroke-dasharray:none"
         sodipodi:linespacing="150%">
        <tspan
           y="321.99438"
           x="388.60446"
           id="tspan4197"
           sodipodi:role="line">condition C5</tspan>
      </text>
      <text
         x="387.49689"
         y="286.81354"
         font-size="21.0"
         id="text4328"
         style="font-style:normal;font-variant:normal;font-weight:normal;font-stretch:normal;font-size:27.14px;line-height:150%;font-family:Arial;-inkscape-font-specification:'Arial, Normal';text-align:start;writing-mode:lr-tb;text-anchor:start;fill:#0000ff;stroke-width:2.5;stroke-miterlimit:4;stroke-dasharray:none"
         sodipodi:linespacing="150%">
        <tspan
           y="286.81354"
           x="387.49689"
           id="tspan4199"
           sodipodi:role="line">condition C3</tspan>
      </text>
      <path
         d="M 310,280 370,280"
         id="path4332"
         inkscape:connector-curvature="0"
         style="fill:#0000ff;fill-opacity:1;stroke:#0000ff;stroke-width:2.5;stroke-miterlimit:4;stroke-dasharray:7.5, 7.5;stroke-dashoffset:0;stroke-opacity:1" />
      <path
         d="M 420,350 420,350"
         id="path4338"
         inkscape:connector-curvature="0"
         style="fill:none;stroke:#800080;stroke-width:2.5;stroke-miterlimit:4;stroke-dasharray:none" />
      <text
         x="388.64667"
         y="252.4357"
         font-size="21.0"
         id="text4334-1"
         style="font-style:normal;font-variant:normal;font-weight:normal;font-stretch:normal;font-size:27.15px;line-height:150%;font-family:Arial;-inkscape-font-specification:'Arial, Normal';text-align:start;writing-mode:lr-tb;text-anchor:start;fill:#218b21;stroke-width:2.5;stroke-miterlimit:4;stroke-dasharray:none"
         sodipodi:linespacing="150%">
        <tspan
           y="252.4357"
           x="388.64667"
           id="tspan4193-1"
           sodipodi:role="line">condition C1</tspan>
      </text>
      <path
         d="M 360,250 340,250 350,240 360,250"
         id="path4229-3"
         style="fill:#218b21;stroke:#218b21;stroke-width:1.79"
         inkscape:connector-curvature="0" />
    </g>
  </g>
</svg>
