<?xml version="1.0" encoding="UTF-8" standalone="no"?>
<svg
   xmlns:dc="http://purl.org/dc/elements/1.1/"
   xmlns:cc="http://creativecommons.org/ns#"
   xmlns:rdf="http://www.w3.org/1999/02/22-rdf-syntax-ns#"
   xmlns:svg="http://www.w3.org/2000/svg"
   xmlns="http://www.w3.org/2000/svg"
   xmlns:sodipodi="http://sodipodi.sourceforge.net/DTD/sodipodi-0.dtd"
   xmlns:inkscape="http://www.inkscape.org/namespaces/inkscape"
   version="1.1"
   width="400px"
   height="400px"
   viewBox="0 0 1000.0 1000.0"
   id="svg2"
   inkscape:version="0.91 r13725"
   sodipodi:docname="fig_gardenpath_series_II_exp_occlusion_correct.svg"
   inkscape:export-filename="/Users/rohrlich/svn_exp/objrec_interference/series_2/Exp_Deletion_Percent_Correct.png"
   inkscape:export-xdpi="150"
   inkscape:export-ydpi="150">
  <metadata
     id="metadata104">
    <rdf:RDF>
      <cc:Work
         rdf:about="">
        <dc:format>image/svg+xml</dc:format>
        <dc:type
           rdf:resource="http://purl.org/dc/dcmitype/StillImage" />
        <dc:title />
      </cc:Work>
    </rdf:RDF>
  </metadata>
  <defs
     id="defs102">
    <marker
       inkscape:stockid="Arrow2Lstart"
       orient="auto"
       refY="0.0"
       refX="0.0"
       id="Arrow2Lstart"
       style="overflow:visible"
       inkscape:isstock="true">
      <path
         id="path4302"
         style="fill-rule:evenodd;stroke-width:0.62;stroke-linejoin:round;stroke:#008000;stroke-opacity:1;fill:#008000;fill-opacity:1"
         d="M 8.7185878,4.0337352 L -2.2072895,0.016013256 L 8.7185884,-4.0017078 C 6.9730900,-1.6296469 6.9831476,1.6157441 8.7185878,4.0337352 z "
         transform="scale(1.1) translate(1,0)" />
    </marker>
  </defs>
  <sodipodi:namedview
     pagecolor="#ffffff"
     bordercolor="#666666"
     borderopacity="1"
     objecttolerance="10"
     gridtolerance="10"
     guidetolerance="10"
     inkscape:pageopacity="0"
     inkscape:pageshadow="2"
     inkscape:window-width="1680"
     inkscape:window-height="1006"
     id="namedview100"
     showgrid="false"
     inkscape:zoom="1.7"
     inkscape:cx="1.1e+02"
     inkscape:cy="200"
     inkscape:window-x="0"
     inkscape:window-y="0"
     inkscape:window-maximized="0"
     inkscape:current-layer="g5384" />
  <g
     id="g5307">
    <g
       style="stroke-width:2.5;stroke-miterlimit:4;stroke-dasharray:none"
       id="g66">
      <path
         style="stroke-width:2.5;stroke-miterlimit:4;stroke-dasharray:none"
         id="path68"
         d="M 296.7,723.1  L 459.6,618.5 L 622.6,470.7 L 785.5,380.5 "
         stroke-width="1.5"
         stroke="#000000"
         fill="none" />
      <path
         style="stroke-width:2.5;stroke-miterlimit:4;stroke-dasharray:none"
         id="path70"
         d=" "
         stroke-width="1.5"
         stroke="#000000"
         fill="none" />
      <path
         style="stroke-width:2.5;stroke-miterlimit:4;stroke-dasharray:none"
         id="path72"
         d="M 302.3,723.1 L 301.8,721.0 L 300.6,719.2 L 298.8,718.0 L 296.7,717.6 L 294.6,718.0 L 292.8,719.2 L 291.6,721.0 L 291.2,723.1 L 291.6,725.2 L 292.8,727.0 L 294.6,728.2 L 296.7,728.7 L 298.8,728.2 L 300.6,727.0 L 301.8,725.2 L 302.3,723.1 M 465.2,618.5 L 464.8,616.4 L 463.5,614.6 L 461.8,613.4 L 459.6,613.0 L 457.5,613.4 L 455.7,614.6 L 454.5,616.4 L 454.1,618.5 L 454.5,620.7 L 455.7,622.5 L 457.5,623.7 L 459.6,624.1 L 461.8,623.7 L 463.5,622.5 L 464.8,620.7 L 465.2,618.5 M 628.1,470.7 L 627.7,468.6 L 626.5,466.8 L 624.7,465.6 L 622.6,465.1 L 620.4,465.6 L 618.6,466.8 L 617.4,468.6 L 617.0,470.7 L 617.4,472.8 L 618.6,474.6 L 620.4,475.8 L 622.6,476.2 L 624.7,475.8 L 626.5,474.6 L 627.7,472.8 L 628.1,470.7 M 791.0,380.5 L 790.6,378.4 L 789.4,376.6 L 787.6,375.4 L 785.5,375.0 L 783.4,375.4 L 781.6,376.6 L 780.4,378.4 L 779.9,380.5 L 780.4,382.6 L 781.6,384.4 L 783.4,385.6 L 785.5,386.1 L 787.6,385.6 L 789.4,384.4 L 790.6,382.6 L 791.0,380.5 "
         stroke-width="1.5"
         stroke="#000000"
         fill="#000000" />
      <path
         style="stroke-width:2.5;stroke-miterlimit:4;stroke-dasharray:none"
         id="path74"
         d=" M 285.6,739.8 L 307.8,739.8 M 285.6,706.5 L 307.8,706.5 M 296.7,739.8 L 296.7,706.5 M 296.7,723.1    M 448.6,637.9 L 470.7,637.9 M 448.6,599.1 L 470.7,599.1 M 459.6,637.9 L 459.6,599.1 M 459.6,618.5   M 611.5,498.7 L 633.6,498.7 M 611.5,442.6 L 633.6,442.6 M 622.6,498.7 L 622.6,442.6 M 622.6,470.7   M 774.4,411.1 L 796.6,411.1 M 774.4,349.9 L 796.6,349.9 M 785.5,411.1 L 785.5,349.9 M 785.5,380.5  "
         stroke-width="1.5"
         stroke="#000000"
         fill="none" />
      <path
         style="stroke-width:2.5;stroke-miterlimit:4;stroke-dasharray:20,20;stroke-dashoffset:0"
         id="path76"
         d=" M 459.6,589.7 L 622.6,431.0 L 785.5,366.1 "
         stroke-width="1.5"
         stroke="#ff0000"
         fill="none" />
      <path
         style="stroke-width:2.5;stroke-miterlimit:4;stroke-dasharray:none"
         id="path78"
         d=" "
         stroke-width="1.5"
         stroke="#ff0000"
         fill="none" />
      <path
         style="stroke-width:2.5;stroke-miterlimit:4;stroke-dasharray:none"
         id="path80"
         d="M 454.1,595.2 L 454.1,584.1 L 465.2,584.1 L 465.2,595.2 L 454.1,595.2 M 617.0,436.5 L 617.0,425.5 L 628.1,425.5 L 628.1,436.5 L 617.0,436.5 M 779.9,371.6 L 779.9,360.6 L 791.0,360.6 L 791.0,371.6 L 779.9,371.6 "
         stroke-width="1.5"
         stroke="#ff0000"
         fill="#ff0000" />
      <path
         style="stroke-width:2.5;stroke-miterlimit:4;stroke-dasharray:none"
         id="path82"
         d="  M 448.6,618.5 L 470.7,618.5 M 448.6,560.9 L 470.7,560.9 M 459.6,618.5 L 459.6,560.9 M 459.6,589.7   M 611.5,457.5 L 633.6,457.5 M 611.5,404.5 L 633.6,404.5 M 622.6,457.5 L 622.6,404.5 M 622.6,431.0   M 774.4,390.3 L 796.6,390.3 M 774.4,341.9 L 796.6,341.9 M 785.5,390.3 L 785.5,341.9 M 785.5,366.1  "
         stroke-width="1.5"
         stroke="#ff0000"
         fill="none" />
      <path
         style="stroke-width:2.5;stroke-miterlimit:4;stroke-dasharray:7.5,7.5;stroke-dashoffset:0"
         id="path84"
         d="M 622.6,441.8 L 785.5,322.8 "
         stroke-width="1.5"
         stroke="#0000ff"
         fill="none" />
      <path
         style="stroke-width:2.5;stroke-miterlimit:4;stroke-dasharray:none"
         id="path86"
         d=""
         stroke-width="1.5"
         stroke="#0000ff"
         fill="none" />
      <path
         style="stroke-width:2.5;stroke-miterlimit:4;stroke-dasharray:none"
         id="path88"
         d="M 617.0,441.8 L 622.6,436.3 L 628.1,441.8 L 622.6,447.4 L 617.0,441.8 M 779.9,322.8 L 785.5,317.3 L 791.0,322.8 L 785.5,328.4 L 779.9,322.8 "
         stroke-width="1.5"
         stroke="#0000ff"
         fill="#0000ff" />
      <path
         style="stroke-width:2.5;stroke-miterlimit:4;stroke-dasharray:none"
         id="path90"
         d=" M 611.5,474.4 L 633.6,474.4 M 611.5,409.2 L 633.6,409.2 M 622.6,474.4 L 622.6,409.2 M 622.6,441.8   M 774.4,348.8 L 796.6,348.8 M 774.4,296.8 L 796.6,296.8 M 785.5,348.8 L 785.5,296.8 M 785.5,322.8  "
         stroke-width="1.5"
         stroke="#0000ff"
         fill="none" />
      <path
         style="stroke-width:2.5;stroke-miterlimit:4;stroke-dasharray:none"
         id="path92"
         d="M 785.5,376.9 "
         stroke-width="1.5"
         stroke="#218b21"
         fill="none" />
      <path
         style="stroke-width:2.5;stroke-miterlimit:4;stroke-dasharray:none"
         id="path94"
         d=""
         stroke-width="1.5"
         stroke="#218b21"
         fill="none" />
      <path
         style="stroke-width:2.5;stroke-miterlimit:4;stroke-dasharray:none"
         id="path96"
         d="M 779.9,382.5 L 785.5,371.4 L 791.0,382.5 L 779.9,382.5 "
         stroke-width="1.5"
         stroke="#218b21"
         fill="#218b21" />
      <path
         style="stroke-width:2.5;stroke-miterlimit:4;stroke-dasharray:none"
         id="path98"
         d=" M 774.4,406.9 L 796.6,406.9 M 774.4,346.9 L 796.6,346.9 M 785.5,406.9 L 785.5,346.9 M 785.5,376.9  "
         stroke-width="1.5"
         stroke="#218b21"
         fill="none" />
      <path
         sodipodi:nodetypes="cc"
         inkscape:connector-curvature="0"
         id="path4278"
         d="M 840,380 890,380"
         style="fill:none;fill-rule:evenodd;stroke:#008000;stroke-width:1.5;stroke-linecap:butt;stroke-linejoin:miter;stroke-miterlimit:4;stroke-dasharray:none;stroke-opacity:1;marker-start:url(#Arrow2Lstart)" />
    </g>
    <g
       id="g5079"
       transform="translate(-51,-15)" />
    <g
       id="g5384">
      <path
         d="M 264.1,726.0 L 264.1,172.1 L 818.1,172.1 L 818.1,726.0 L 264.1,726.0 "
         id="path4"
         stroke-width="2"
         stroke="#000000"
         fill="none" />
      <g
         id="g6">
        <text
           x="537.52856"
           y="809.1333"
           font-size="27.7"
           id="text8"
           style="font-size:27.70000076px;font-family:Arial;text-anchor:middle;fill:#000000">Degree of Degradation</text>
        <text
           x="296.70001"
           y="768.2569"
           font-size="27.7"
           id="text10"
           style="font-style:normal;font-variant:normal;font-weight:normal;font-stretch:normal;font-size:27.70000076px;line-height:125%;font-family:Arial;-inkscape-font-specification:'Arial, Normal';text-align:center;writing-mode:lr-tb;text-anchor:middle;fill:#000000"
           sodipodi:linespacing="125%">
          <tspan
             sodipodi:role="line"
             id="tspan4200"
             x="296.70001"
             y="768.2569">D7</tspan>
        </text>
        <text
           x="785.5"
           y="768.33807"
           font-size="27.7"
           id="text12"
           style="font-size:27.70000076px;font-family:Arial;text-anchor:middle;fill:#000000">D1</text>
        <path
           d="M 264.1,726.0 L 818.1,726.0 M 296.7,739.9 L 296.7,712.2 M 459.6,739.9 L 459.6,712.2 M 622.6,739.9 L 622.6,712.2 M 785.5,739.9 L 785.5,712.2 "
           id="path14"
           stroke-width="2"
           stroke="#000000"
           fill="none" />
        <path
           d="M 264.1,172.1 L 818.1,172.1 M 296.7,185.9 L 296.7,158.2 M 459.6,185.9 L 459.6,158.2 M 622.6,185.9 L 622.6,158.2 M 785.5,185.9 L 785.5,158.2 "
           id="path16"
           stroke-width="2"
           stroke="#000000"
           fill="none" />
        <text
           x="244.7"
           y="737.1"
           font-size="27.7"
           id="text18"
           text-anchor="end"
           font-family="Arial"
           fill="#000000">
10
</text>
        <text
           x="244.7"
           y="667.8"
           font-size="27.7"
           id="text20"
           text-anchor="end"
           font-family="Arial"
           fill="#000000">
20
</text>
        <text
           x="244.7"
           y="598.6"
           font-size="27.7"
           id="text22"
           text-anchor="end"
           font-family="Arial"
           fill="#000000">
30
</text>
        <text
           x="244.7"
           y="529.4"
           font-size="27.7"
           id="text24"
           text-anchor="end"
           font-family="Arial"
           fill="#000000">
40
</text>
        <text
           x="244.7"
           y="460.1"
           font-size="27.7"
           id="text26"
           text-anchor="end"
           font-family="Arial"
           fill="#000000">
50
</text>
        <text
           x="244.7"
           y="390.9"
           font-size="27.7"
           id="text28"
           text-anchor="end"
           font-family="Arial"
           fill="#000000">
60
</text>
        <text
           x="244.7"
           y="321.6"
           font-size="27.7"
           id="text30"
           text-anchor="end"
           font-family="Arial"
           fill="#000000">
70
</text>
        <text
           x="244.7"
           y="252.4"
           font-size="27.7"
           id="text32"
           text-anchor="end"
           font-family="Arial"
           fill="#000000">
80
</text>
        <text
           x="244.7"
           y="183.2"
           font-size="27.7"
           id="text34"
           text-anchor="end"
           font-family="Arial"
           fill="#000000">
90
</text>
        <path
           d="M 264.1,726.0 L 264.1,172.1 M 250.3,726.0 L 278.0,726.0 M 250.3,656.8 L 278.0,656.8 M 250.3,587.5 L 278.0,587.5 M 250.3,518.3 L 278.0,518.3 M 250.3,449.0 L 278.0,449.0 M 250.3,379.8 L 278.0,379.8 M 250.3,310.6 L 278.0,310.6 M 250.3,241.3 L 278.0,241.3 M 250.3,172.1 L 278.0,172.1 "
           id="path36"
           stroke-width="2"
           stroke="#000000"
           fill="none" />
        <path
           d="M 818.1,726.0 L 818.1,172.1 M 804.2,726.0 L 831.9,726.0 M 804.2,656.8 L 831.9,656.8 M 804.2,587.5 L 831.9,587.5 M 804.2,518.3 L 831.9,518.3 M 804.2,449.0 L 831.9,449.0 M 804.2,379.8 L 831.9,379.8 M 804.2,310.6 L 831.9,310.6 M 804.2,241.3 L 831.9,241.3 M 804.2,172.1 L 831.9,172.1 "
           id="path38"
           stroke-width="2"
           stroke="#000000"
           fill="none" />
        <text
           sodipodi:linespacing="125%"
           style="font-style:normal;font-variant:normal;font-weight:normal;font-stretch:normal;font-size:27.70000076px;line-height:125%;font-family:Arial;-inkscape-font-specification:'Arial, Normal';text-align:center;writing-mode:lr-tb;text-anchor:middle;fill:#000000"
           id="text4202"
           font-size="27.7"
           y="768.2569"
           x="460.98572">
          <tspan
             sodipodi:role="line"
             id="tspan4206"
             x="460.98572"
             y="768.2569">D5</tspan>
        </text>
        <text
           x="625.27142"
           y="768.33807"
           font-size="27.7"
           id="text4208"
           style="font-style:normal;font-variant:normal;font-weight:normal;font-stretch:normal;font-size:27.70000059px;line-height:125%;font-family:Arial;-inkscape-font-specification:'Arial, Normal';text-align:center;writing-mode:lr;text-anchor:middle;fill:#000000;"
           sodipodi:linespacing="125%">
          <tspan
             sodipodi:role="line"
             id="tspan4212">D3</tspan>
        </text>
      </g>
      <text
         x="898.11633"
         y="386.00909"
         font-size="21.0"
         id="text4334"
         style="font-style:normal;font-variant:normal;font-weight:normal;font-stretch:normal;font-size:27.13749965px;line-height:150%;font-family:Arial;-inkscape-font-specification:'Arial, Normal';text-align:start;writing-mode:lr;text-anchor:start;fill:#218b21;stroke-width:2.5;stroke-miterlimit:4;stroke-dasharray:none;"
         sodipodi:linespacing="150%">
        <tspan
           sodipodi:role="line"
           id="tspan4198">condition C1</tspan>
      </text>
      <text
         transform="matrix(0,-0.90954534,1.0994504,0,0,0)"
         sodipodi:linespacing="125%"
         id="text4176"
         y="174.30663"
         x="-752.58649"
         style="font-style:normal;font-variant:normal;font-weight:normal;font-stretch:normal;font-size:31.25px;line-height:125%;font-family:sans-serif;-inkscape-font-specification:'sans-serif, Normal';text-align:start;letter-spacing:3.07153463px;word-spacing:0px;writing-mode:lr-tb;text-anchor:start;fill:#000000;fill-opacity:1;stroke:none;stroke-width:1px;stroke-linecap:butt;stroke-linejoin:miter;stroke-opacity:1"
         xml:space="preserve"><tspan
           sodipodi:role="line"
           id="tspan4214"
           x="-752.58649"
           y="174.30663">Percent Correct Recognition</tspan></text>
      <g
         transform="translate(-1.3,1.6)"
         id="g4254">
        <path
           d="M 310,350 370,350"
           id="path4314"
           inkscape:connector-curvature="0"
           style="fill:none;stroke:#000000;stroke-width:2.5;stroke-miterlimit:4;stroke-dasharray:none" />
        <text
           x="388.02829"
           y="357.38934"
           font-size="21.0"
           id="text4316"
           style="font-style:normal;font-variant:normal;font-weight:normal;font-stretch:normal;font-size:27.14px;line-height:150%;font-family:Arial;-inkscape-font-specification:'Arial, Normal';text-align:start;writing-mode:lr-tb;text-anchor:start;fill:#000000;stroke-width:2.5;stroke-miterlimit:4;stroke-dasharray:none"
           sodipodi:linespacing="150%">
          <tspan
             y="357.38934"
             x="388.02829"
             id="tspan4195"
             sodipodi:role="line">condition C7</tspan>
        </text>
        <path
           d="M 310,320 370,320"
           id="path4320"
           inkscape:connector-curvature="0"
           style="fill:none;stroke:#ff0000;stroke-width:2.5;stroke-miterlimit:4;stroke-dasharray:20, 20;stroke-dashoffset:0" />
        <text
           x="388.60446"
           y="321.99438"
           font-size="21.0"
           id="text4322"
           style="font-style:normal;font-variant:normal;font-weight:normal;font-stretch:normal;font-size:27.14px;line-height:150%;font-family:Arial;-inkscape-font-specification:'Arial, Normal';text-align:start;writing-mode:lr-tb;text-anchor:start;fill:#ff0000;stroke-width:2.5;stroke-miterlimit:4;stroke-dasharray:none"
           sodipodi:linespacing="150%">
          <tspan
             y="321.99438"
             x="388.60446"
             id="tspan4197"
             sodipodi:role="line">condition C5</tspan>
        </text>
        <text
           x="387.49689"
           y="286.81354"
           font-size="21.0"
           id="text4328"
           style="font-style:normal;font-variant:normal;font-weight:normal;font-stretch:normal;font-size:27.14px;line-height:150%;font-family:Arial;-inkscape-font-specification:'Arial, Normal';text-align:start;writing-mode:lr-tb;text-anchor:start;fill:#0000ff;stroke-width:2.5;stroke-miterlimit:4;stroke-dasharray:none"
           sodipodi:linespacing="150%">
          <tspan
             y="286.81354"
             x="387.49689"
             id="tspan4199"
             sodipodi:role="line">condition C3</tspan>
        </text>
        <path
           d="M 310,280 370,280"
           id="path4332"
           inkscape:connector-curvature="0"
           style="fill:#0000ff;fill-opacity:1;stroke:#0000ff;stroke-width:2.5;stroke-miterlimit:4;stroke-dasharray:7.5, 7.5;stroke-dashoffset:0;stroke-opacity:1" />
        <path
           d="M 420,350 420,350"
           id="path4338"
           inkscape:connector-curvature="0"
           style="fill:none;stroke:#800080;stroke-width:2.5;stroke-miterlimit:4;stroke-dasharray:none" />
        <text
           x="388.64667"
           y="252.4357"
           font-size="21.0"
           id="text4334-1"
           style="font-style:normal;font-variant:normal;font-weight:normal;font-stretch:normal;font-size:27.15px;line-height:150%;font-family:Arial;-inkscape-font-specification:'Arial, Normal';text-align:start;writing-mode:lr-tb;text-anchor:start;fill:#218b21;stroke-width:2.5;stroke-miterlimit:4;stroke-dasharray:none"
           sodipodi:linespacing="150%">
          <tspan
             y="252.4357"
             x="388.64667"
             id="tspan4193-1"
             sodipodi:role="line">condition C1</tspan>
        </text>
        <path
           d="M 360,250 340,250 350,240 360,250"
           id="path4229-3"
           style="fill:#218b21;stroke:#218b21;stroke-width:1.79"
           inkscape:connector-curvature="0" />
      </g>
    </g>
  </g>
</svg>
