<?xml version="1.0" encoding="UTF-8" standalone="no"?>
<!-- Created with Inkscape (http://www.inkscape.org/) -->

<svg
   xmlns:dc="http://purl.org/dc/elements/1.1/"
   xmlns:cc="http://creativecommons.org/ns#"
   xmlns:rdf="http://www.w3.org/1999/02/22-rdf-syntax-ns#"
   xmlns:svg="http://www.w3.org/2000/svg"
   xmlns="http://www.w3.org/2000/svg"
   xmlns:xlink="http://www.w3.org/1999/xlink"
   xmlns:sodipodi="http://sodipodi.sourceforge.net/DTD/sodipodi-0.dtd"
   xmlns:inkscape="http://www.inkscape.org/namespaces/inkscape"
   width="744.09448819"
   height="1052.3622047"
   id="svg5093"
   version="1.1"
   inkscape:version="0.48.2 r9819"
   sodipodi:docname="fig_gdpvlv_food.svg"
   inkscape:export-filename="/Users/oreilly/svn_docs/figs/fig_gdpvlv_food.png"
   inkscape:export-xdpi="149.95374"
   inkscape:export-ydpi="149.95374">
  <defs
     id="defs5095"><linearGradient
   id="linearGradient7279">
  <stop
     style="stop-color:#0000ff;stop-opacity:1;"
     offset="0"
     id="stop7281" />
  <stop
     style="stop-color:#f7f7ff;stop-opacity:1;"
     offset="1"
     id="stop7283" />
</linearGradient>
<marker
   inkscape:stockid="Arrow1Mend"
   orient="auto"
   refY="0.0"
   refX="0.0"
   id="Arrow1Mend"
   style="overflow:visible;">
  <path
     id="path6839"
     d="M 0.0,0.0 L 5.0,-5.0 L -12.5,0.0 L 5.0,5.0 L 0.0,0.0 z "
     style="fill-rule:evenodd;stroke:#000000;stroke-width:1.0pt;marker-start:none;"
     transform="scale(0.4) rotate(180) translate(10,0)" />
</marker>
<linearGradient
   id="linearGradient6758">
  <stop
     style="stop-color:#008000;stop-opacity:1;"
     offset="0"
     id="stop6760" />
  <stop
     style="stop-color:#fbfffb;stop-opacity:1;"
     offset="1"
     id="stop6762" />
</linearGradient>
<linearGradient
   id="linearGradient6736">
  <stop
     style="stop-color:#eb9e0c;stop-opacity:1;"
     offset="0"
     id="stop6738" />
  <stop
     style="stop-color:#ffffff;stop-opacity:1;"
     offset="1"
     id="stop6740" />
</linearGradient>
<inkscape:path-effect
   effect="spiro"
   id="path-effect6165"
   is_visible="true" />
<inkscape:path-effect
   effect="spiro"
   id="path-effect6161"
   is_visible="true" />
<inkscape:path-effect
   effect="spiro"
   id="path-effect5123"
   is_visible="true" />
<inkscape:path-effect
   effect="spiro"
   id="path-effect5111"
   is_visible="true" />
<radialGradient
   r="67.16243"
   fy="129.68027"
   fx="20.148344"
   cy="129.68027"
   cx="20.148344"
   gradientTransform="matrix(1,0,0,1.303825,-556.72034,-11.461163)"
   gradientUnits="userSpaceOnUse"
   id="radialGradient4858"
   xlink:href="#linearGradient3982"
   inkscape:collect="always" />
<radialGradient
   r="67.16243"
   fy="129.68027"
   fx="20.148344"
   cy="129.68027"
   cx="20.148344"
   gradientTransform="matrix(1,0,0,1.303825,-556.72034,-11.461163)"
   gradientUnits="userSpaceOnUse"
   id="radialGradient4842"
   xlink:href="#linearGradient3982"
   inkscape:collect="always" />
<radialGradient
   r="67.16243"
   fy="129.68027"
   fx="20.148344"
   cy="129.68027"
   cx="20.148344"
   gradientTransform="matrix(1,0,0,1.303825,-556.72034,-20.562858)"
   gradientUnits="userSpaceOnUse"
   id="radialGradient4832"
   xlink:href="#linearGradient3982"
   inkscape:collect="always" />
<radialGradient
   r="67.16243"
   fy="129.68027"
   fx="20.148344"
   cy="129.68027"
   cx="20.148344"
   gradientTransform="matrix(1,0,0,1.303825,-556.72034,-20.562858)"
   gradientUnits="userSpaceOnUse"
   id="radialGradient4352"
   xlink:href="#linearGradient3982"
   inkscape:collect="always" />
<inkscape:perspective
   id="perspective10"
   inkscape:persp3d-origin="0.5 : 0.33333333 : 1"
   inkscape:vp_z="1 : 0.5 : 1"
   inkscape:vp_y="0 : 1000 : 0"
   inkscape:vp_x="0 : 0.5 : 1"
   sodipodi:type="inkscape:persp3d" />
<linearGradient
   id="linearGradient3982">
  <stop
     id="stop3984"
     offset="0"
     style="stop-color:#ffffff;stop-opacity:1;" />
  <stop
     id="stop3986"
     offset="1"
     style="stop-color:#e3bd60;stop-opacity:1;" />
</linearGradient>
<linearGradient
   id="linearGradient4076">
  <stop
     id="stop4078"
     offset="0"
     style="stop-color:#ffffff;stop-opacity:1;" />
  <stop
     id="stop4080"
     offset="1"
     style="stop-color:#7aff7a;stop-opacity:1;" />
</linearGradient>
<linearGradient
   id="linearGradient4162">
  <stop
     style="stop-color:#ffffff;stop-opacity:1;"
     offset="0"
     id="stop4164" />
  <stop
     style="stop-color:#7affe2;stop-opacity:1;"
     offset="1"
     id="stop4166" />
</linearGradient>
<linearGradient
   id="linearGradient4284">
  <stop
     id="stop4286"
     offset="0"
     style="stop-color:#ffffff;stop-opacity:1;" />
  <stop
     id="stop4288"
     offset="1"
     style="stop-color:#7ac8ff;stop-opacity:1;" />
</linearGradient>
<linearGradient
   id="linearGradient4455">
  <stop
     style="stop-color:#ffffff;stop-opacity:1;"
     offset="0"
     id="stop4457" />
  <stop
     style="stop-color:#ce7aff;stop-opacity:1;"
     offset="1"
     id="stop4459" />
</linearGradient>
<linearGradient
   id="linearGradient4704">
  <stop
     id="stop4706"
     offset="0"
     style="stop-color:#ffffff;stop-opacity:1;" />
  <stop
     id="stop4708"
     offset="1"
     style="stop-color:#ff7a87;stop-opacity:1;" />
</linearGradient>





<linearGradient
   inkscape:collect="always"
   xlink:href="#linearGradient6736"
   id="linearGradient6756"
   gradientUnits="userSpaceOnUse"
   x1="633.92542"
   y1="794.96271"
   x2="643.96057"
   y2="784.86121" />
<linearGradient
   inkscape:collect="always"
   xlink:href="#linearGradient6758"
   id="linearGradient6764"
   x1="361.39221"
   y1="910.05695"
   x2="602.04077"
   y2="834.80054"
   gradientUnits="userSpaceOnUse"
   gradientTransform="matrix(1,0,0,0.86833642,0,122.33011)" />
<linearGradient
   inkscape:collect="always"
   xlink:href="#linearGradient7279"
   id="linearGradient7285"
   x1="592.96466"
   y1="876.75877"
   x2="612.2393"
   y2="876.75877"
   gradientUnits="userSpaceOnUse" />
</defs>
  <sodipodi:namedview
     id="base"
     pagecolor="#ffffff"
     bordercolor="#666666"
     borderopacity="1.0"
     inkscape:pageopacity="0.0"
     inkscape:pageshadow="2"
     inkscape:zoom="1.4"
     inkscape:cx="494.99825"
     inkscape:cy="276.06219"
     inkscape:document-units="px"
     inkscape:current-layer="layer1"
     showgrid="false"
     inkscape:window-width="1714"
     inkscape:window-height="1156"
     inkscape:window-x="131"
     inkscape:window-y="0"
     inkscape:window-maximized="0"
     showguides="true"
     inkscape:guide-bbox="true" />
  <metadata
     id="metadata5098">
    <rdf:RDF>
      <cc:Work
         rdf:about="">
        <dc:format>image/svg+xml</dc:format>
        <dc:type
           rdf:resource="http://purl.org/dc/dcmitype/StillImage" />
        <dc:title></dc:title>
      </cc:Work>
    </rdf:RDF>
  </metadata>
  <g
     inkscape:label="Layer 1"
     inkscape:groupmode="layer"
     id="layer1">
    <rect
       style="fill:#ffffff;fill-opacity:1;fill-rule:nonzero;stroke:#ffffff;stroke-width:0.95868158;stroke-linejoin:round;stroke-miterlimit:4;stroke-opacity:1;stroke-dasharray:none;stroke-dashoffset:0"
       id="rect7277"
       width="410.57642"
       height="196.44273"
       x="272.76959"
       y="768.03619" />
    <path
       style="fill:none;stroke:#000000;stroke-width:2;stroke-linejoin:round;stroke-miterlimit:10;stroke-opacity:1;stroke-dasharray:none;stroke-dashoffset:0"
       d="m 625.53696,776.59054 0,137.12821 -272.48865,0"
       id="path5109"
       inkscape:path-effect="#path-effect5111"
       inkscape:original-d="m 625.53696,776.59054 0,137.12821 -272.48865,0"
       inkscape:connector-curvature="0"
       sodipodi:nodetypes="ccc" />
    <text
       xml:space="preserve"
       style="font-size:12px;font-style:normal;font-variant:normal;font-weight:normal;font-stretch:normal;text-indent:0;text-align:start;text-decoration:none;line-height:125%;letter-spacing:0px;word-spacing:0px;text-transform:none;direction:ltr;block-progression:tb;writing-mode:lr-tb;text-anchor:start;color:#000000;fill:#000000;fill-opacity:1;fill-rule:nonzero;stroke:none;stroke-width:1px;marker:none;visibility:visible;display:inline;overflow:visible;enable-background:accumulate;font-family:Arial;-inkscape-font-specification:Arial"
       x="414.14328"
       y="925.88391"
       id="text5113"
       sodipodi:linespacing="125%"><tspan
         sodipodi:role="line"
         id="tspan5115"
         x="414.14328"
         y="925.88391">time/distance    from goal</tspan></text>
    <path
       style="fill:url(#linearGradient6764);fill-opacity:1;stroke:#000000;stroke-width:1.86369145;stroke-linejoin:round;stroke-miterlimit:10;stroke-opacity:1;stroke-dasharray:none;stroke-dashoffset:0"
       d="m 360.87699,912.45605 c 7.92613,-0.75135 15.84033,-1.62865 23.73859,-2.63145 10.38463,-1.31849 20.7417,-2.85395 31.06219,-4.60505 l 40.15357,-8.99081 37.88072,-11.84156 c 15.83911,-8.02612 31.92773,-15.55986 48.23478,-22.58667 9.93862,-4.28262 19.95836,-8.37697 30.05204,-12.28013 l 30.80965,-7.89437 7.82868,70.39147"
       id="path5121"
       inkscape:path-effect="#path-effect5123"
       inkscape:original-d="m 360.87699,912.45605 23.73859,-2.63145 31.06219,-4.60505 40.15357,-8.99081 37.88072,-11.84156 48.23478,-22.58667 30.05204,-12.28013 30.80965,-7.89437 7.82868,70.39147"
       inkscape:connector-curvature="0"
       sodipodi:nodetypes="ccccccccc" />
    <g
       id="g4848"
       transform="matrix(0.48489607,0,0,-0.48489607,586.36486,925.22441)">
      <path
         inkscape:connector-curvature="0"
         sodipodi:nodetypes="cssssssccscscsssssssssssssssssssssssc"
         d="m -504.63135,152.3519 c 0,0 0,0 0.78096,0.14009 0.7801,0.1411 2.3403,0.42229 3.6006,1.61711 1.26029,1.19481 2.22068,3.30326 0.84076,9.13724 -1.38077,5.83499 -5.10184,15.39452 -8.10262,21.93098 -3.00079,6.53747 -5.28128,10.05187 -7.80273,12.65265 -2.52058,2.60078 -5.28127,4.28793 -10.20283,6.11518 -4.92156,1.82725 -12.00399,3.79559 -21.00634,4.70921 -9.00235,0.91463 -19.92633,0.77353 -31.14936,-1.33491 -11.22303,-2.10944 -22.74682,-6.18622 -30.60935,-14.40984 -7.86254,-8.22362 -12.06295,-20.59507 -14.04353,-35.5673 -1.98144,-14.97123 5.2317,-40.58947 10.21307,-57.10775 4.98137,-16.51829 17.92194,-21.792227 25.48457,-30.859822 7.56177,-9.067495 5.99132,-5.30255 8.6922,-17.002284 1.02228,-4.428335 -0.51706,-8.83069 -0.45725,-11.501995 0.0598,-2.670965 0.18029,-3.373795 4.62165,-4.076616 4.44137,-0.70321 13.20362,-1.40604 22.14616,-1.265314 8.94339,0.140716 18.06536,1.124598 22.74768,2.178829 4.68061,1.05463 4.9207,2.179228 5.10099,5.553013 0.18029,3.374206 0.29991,8.997147 0.66048,13.706665 0.35972,4.709818 0.96039,8.505411 5.34194,11.668472 4.3807,3.163161 12.54314,5.69339 16.80422,8.294367 4.26193,2.600577 4.62165,5.271602 4.38155,8.012875 -0.2401,2.741373 -1.08001,5.552994 -1.14067,8.013274 -0.0598,2.460281 0.66048,4.568722 0.60067,6.115479 -0.0607,1.546457 -0.90058,2.530327 -3.84155,2.600677 -2.94098,0.0704 -7.98216,-0.77323 -10.38312,-0.91393 -2.40012,-0.14029 -2.16002,0.42179 0.60066,1.05463 2.76069,0.63243 8.04197,1.33531 10.92313,2.53022 2.88116,1.19502 3.3605,2.88207 2.88116,4.85021 -0.48019,1.96815 -1.92077,4.21728 -2.34116,5.76374 -0.42038,1.54636 0.18029,2.38983 1.74049,3.23341 1.56106,0.84358 4.08165,1.68705 5.58204,2.88207 1.50039,1.19491 1.98059,2.74127 0.2401,7.029 -1.74049,4.28773 -5.70166,11.31653 -7.86253,15.9557 -2.16088,4.63917 -2.52059,6.88871 -2.70088,8.01348 -0.18029,1.12476 -0.18029,1.12476 -0.18029,1.12476"
         style="fill:url(#radialGradient4858);fill-opacity:1;stroke:#000000;stroke-width:1.45662904;stroke-linecap:butt;stroke-linejoin:miter;stroke-miterlimit:10;stroke-opacity:1;stroke-dasharray:none"
         id="path130" />
      <g
         transform="translate(0,9.1016949)"
         id="g4006">
        <path
           inkscape:connector-curvature="0"
           id="path180"
           style="fill:none;stroke:#000000;stroke-width:1.57528996;stroke-linecap:butt;stroke-linejoin:miter;stroke-miterlimit:10;stroke-opacity:1;stroke-dasharray:none"
           d="m -510.71452,141.18347 c 0,0 0,0 0.458,-0.642 0.458,-0.641 1.375,-1.924 1.741,-3.39 0.367,-1.466 0.184,-3.115 -0.366,-4.306 -0.55,-1.191 -1.466,-1.924 -2.657,-1.832 -1.191,0.091 -2.657,1.008 -4.032,2.015 -1.374,1.008 -2.656,2.108 -2.931,3.024 -0.275,0.916 0.458,1.649 1.923,2.474 1.466,0.824 3.665,1.741 4.765,2.198 1.099,0.459 1.099,0.459 1.099,0.459" />
        <path
           inkscape:connector-curvature="0"
           id="path182"
           style="fill:none;stroke:#000000;stroke-width:1.57528996;stroke-linecap:butt;stroke-linejoin:miter;stroke-miterlimit:10;stroke-opacity:1;stroke-dasharray:none"
           d="m -511.52052,135.68647 c 0,2.125 0.493,3.848 1.1,3.848 0.607,0 1.099,-1.723 1.099,-3.848 0,-2.125 -0.492,-3.848 -1.099,-3.848 -0.607,0 -1.1,1.723 -1.1,3.848" />
      </g>
      <path
         inkscape:connector-curvature="0"
         sodipodi:nodetypes="csaaaaaaa"
         id="path3198"
         d="m -550.27331,144.11016 c 0,0 -1.05591,4.85571 -3.29043,5.38738 -2.23452,0.53167 -6.15702,1.13338 -8.84516,-0.0781 -3.10105,-1.39752 -5.44001,-4.47864 -6.82627,-7.58474 -1.45082,-3.25075 -1.43538,-7.07131 -1.13771,-10.61865 0.35137,-4.18743 1.09232,-8.63247 3.41313,-12.13559 2.23523,-3.37393 5.46701,-7.06708 9.48094,-7.58475 2.46958,-0.31849 5.55054,0.89549 6.82627,3.0339 0.84443,1.41546 -0.37924,4.93009 -0.37924,4.93009"
         style="fill:none;stroke:#000000;stroke-width:0.80000001px;stroke-linecap:butt;stroke-linejoin:miter;stroke-opacity:1" />
      <g
         transform="translate(0,9.1016949)"
         id="g4369">
        <path
           inkscape:connector-curvature="0"
           sodipodi:nodetypes="csaaaaaaa"
           id="path3200"
           d="m -554.55253,124.70279 c 0,0 -0.4715,2.0675 -1.46929,2.29388 -0.9978,0.22638 -2.74934,0.48258 -3.94968,-0.0332 -1.38474,-0.59505 -2.42916,-1.90695 -3.04817,-3.22949 -0.64785,-1.38413 -0.64095,-3.01089 -0.50804,-4.5213 0.15691,-1.78295 0.48777,-3.6756 1.52409,-5.16719 0.99811,-1.43657 2.44121,-3.00907 4.23357,-3.22948 1.10276,-0.13562 2.47851,0.38128 3.04817,1.29178 0.37708,0.60269 -0.16934,2.09918 -0.16934,2.09918"
           style="fill:none;stroke:#000000;stroke-width:0.53924423;stroke-linecap:butt;stroke-linejoin:miter;stroke-miterlimit:4;stroke-opacity:1;stroke-dasharray:none" />
        <path
           inkscape:connector-curvature="0"
           sodipodi:nodetypes="csaaaaaaa"
           id="path4354"
           d="m -550.27331,135.00847 c 0,0 -1.05591,4.85571 -3.29043,5.38738 -2.23452,0.53167 -6.15702,1.13338 -8.84516,-0.0781 -3.10105,-1.39752 -5.44001,-4.47864 -6.82627,-7.58474 -1.45082,-3.25075 -1.43538,-7.07131 -1.13771,-10.61865 0.35137,-4.18743 1.09232,-8.63247 3.41313,-12.13559 2.23523,-3.37393 5.46701,-7.06708 9.48094,-7.58475 2.46958,-0.31849 5.55054,0.89549 6.82627,3.0339 0.84443,1.41546 -0.37924,4.93009 -0.37924,4.93009"
           style="fill:none;stroke:#000000;stroke-width:0.80000001px;stroke-linecap:butt;stroke-linejoin:miter;stroke-opacity:1" />
      </g>
    </g>
    <g
       id="g6685"
       transform="matrix(0.66483171,0,0,0.66483171,386.64672,295.55814)">
      <rect
         y="731.63873"
         x="191.17137"
         height="65.281105"
         width="82.73391"
         id="rect6683"
         style="fill:#d40000;fill-opacity:1;fill-rule:nonzero;stroke:#d40000;stroke-width:4.03782797;stroke-linejoin:round;stroke-miterlimit:4;stroke-opacity:1;stroke-dasharray:none;stroke-dashoffset:0" />
      <g
         style="stroke:#ffcc00;stroke-width:4;stroke-miterlimit:4;stroke-dasharray:none"
         id="g6679">
        <path
           style="fill:none;stroke:#ffcc00;stroke-width:4;stroke-linejoin:round;stroke-miterlimit:4;stroke-opacity:1;stroke-dasharray:none;stroke-dashoffset:0"
           d="m 195.71429,795.93361 c 0,0 2.86995,-29.70236 6.14013,-39.36494 1.61915,-4.7842 3.35301,-12.55836 8.52439,-18.65808 2.6175,-3.08738 7.45851,-2.00214 10.50136,2.52538 4.91942,7.31973 6.7032,17.0563 7.86019,23.91874 2.50741,14.87221 3.01842,22.43655 3.7417,26.82284"
           id="path6675"
           inkscape:connector-curvature="0"
           sodipodi:nodetypes="cssssc" />
        <path
           sodipodi:nodetypes="cssssc"
           inkscape:connector-curvature="0"
           id="path6677"
           d="m 268.97382,795.93361 c 0,0 -2.86995,-29.70236 -6.14013,-39.36494 -1.61915,-4.7842 -3.35301,-12.55836 -8.52439,-18.65808 -2.6175,-3.08738 -7.45851,-2.00214 -10.50136,2.52538 -4.91942,7.31973 -6.7032,17.0563 -7.86019,23.91874 -2.50741,14.87221 -3.01842,22.43655 -3.7417,26.82284"
           style="fill:none;stroke:#ffcc00;stroke-width:4;stroke-linejoin:round;stroke-miterlimit:4;stroke-opacity:1;stroke-dasharray:none;stroke-dashoffset:0" />
      </g>
    </g>
    <path
       style="fill:#008000;fill-opacity:1;fill-rule:nonzero;stroke:#000000;stroke-width:1;stroke-linejoin:round;stroke-miterlimit:4;stroke-opacity:1;stroke-dasharray:none;stroke-dashoffset:0"
       d="M 340.92648,853.36213 509.62196,780.12607"
       id="path6691"
       inkscape:connector-curvature="0"
       sodipodi:nodetypes="cc" />
    <path
       style="fill:#008000;fill-opacity:1;fill-rule:nonzero;stroke:#000000;stroke-width:1;stroke-linejoin:round;stroke-miterlimit:4;stroke-opacity:1;stroke-dasharray:none;stroke-dashoffset:0"
       d="m 341.43156,856.39259 227.7894,-26.76904"
       id="path6693"
       inkscape:connector-curvature="0"
       sodipodi:nodetypes="cc" />
    <g
       id="g6749"
       transform="matrix(1.6739499,0,0,1.7555878,-470.89589,-575.69661)">
      <path
         sodipodi:nodetypes="sssss"
         inkscape:connector-curvature="0"
         id="path6714"
         d="m 650.15943,790.03821 c 0,3.7309 -5.14446,5.74524 -11.49048,5.74524 -6.34602,0 -11.49049,-2.01434 -11.49049,-5.74524 0,-3.7309 5.14447,-6.7554 11.49049,-6.7554 6.34602,0 11.49048,3.0245 11.49048,6.7554 z"
         style="fill:url(#linearGradient6756);fill-opacity:1;fill-rule:nonzero;stroke:#000000;stroke-width:0.20834281;stroke-linejoin:round;stroke-miterlimit:4;stroke-opacity:1;stroke-dashoffset:0"
         transform="matrix(0.92151614,0,0,1,50.444668,0)" />
      <path
         d="m 650.41196,790.92206 c 0,0.94144 -5.17273,1.70463 -11.55362,1.70463 -6.38089,0 -11.55362,-0.76319 -11.55362,-1.70463 0,-0.94144 5.17273,-1.70463 11.55362,-1.70463 6.38089,0 11.55362,0.76319 11.55362,1.70463 z"
         sodipodi:ry="1.7046324"
         sodipodi:rx="11.553619"
         sodipodi:cy="790.92206"
         sodipodi:cx="638.85834"
         id="path6716"
         style="fill:#501616;fill-opacity:1;fill-rule:nonzero;stroke:#000000;stroke-width:0.1;stroke-linejoin:round;stroke-miterlimit:4;stroke-opacity:1;stroke-dasharray:none;stroke-dashoffset:0"
         sodipodi:type="arc" />
      <path
         d="m 647.25522,790.10132 c 0,0.34868 -2.6005,0.63134 -5.80838,0.63134 -3.20788,0 -5.80838,-0.28266 -5.80838,-0.63134 0,-0.34868 2.6005,-0.63135 5.80838,-0.63135 3.20788,0 5.80838,0.28267 5.80838,0.63135 z"
         sodipodi:ry="0.63134533"
         sodipodi:rx="5.8083773"
         sodipodi:cy="790.10132"
         sodipodi:cx="641.44684"
         id="path6718"
         style="fill:#ffff00;fill-opacity:1;fill-rule:nonzero;stroke:#000000;stroke-width:0.1;stroke-linejoin:round;stroke-miterlimit:4;stroke-opacity:1;stroke-dasharray:none;stroke-dashoffset:0"
         sodipodi:type="arc" />
      <path
         transform="translate(-7.0710678,0.37880721)"
         sodipodi:type="arc"
         style="fill:#ff0000;fill-opacity:1;fill-rule:nonzero;stroke:#000000;stroke-width:0.1;stroke-linejoin:round;stroke-miterlimit:4;stroke-opacity:1;stroke-dasharray:none;stroke-dashoffset:0"
         id="path6720"
         sodipodi:cx="641.44684"
         sodipodi:cy="790.10132"
         sodipodi:rx="5.8083773"
         sodipodi:ry="0.63134533"
         d="m 647.25522,790.10132 c 0,0.34868 -2.6005,0.63134 -5.80838,0.63134 -3.20788,0 -5.80838,-0.28266 -5.80838,-0.63134 0,-0.34868 2.6005,-0.63135 5.80838,-0.63135 3.20788,0 5.80838,0.28267 5.80838,0.63135 z" />
      <path
         d="m 647.25522,790.10132 c 0,0.34868 -2.6005,0.63134 -5.80838,0.63134 -3.20788,0 -5.80838,-0.28266 -5.80838,-0.63134 0,-0.34868 2.6005,-0.63135 5.80838,-0.63135 3.20788,0 5.80838,0.28267 5.80838,0.63135 z"
         sodipodi:ry="0.63134533"
         sodipodi:rx="5.8083773"
         sodipodi:cy="790.10132"
         sodipodi:cx="641.44684"
         id="path6722"
         style="fill:#00ff00;fill-opacity:1;fill-rule:nonzero;stroke:#000000;stroke-width:0.1;stroke-linejoin:round;stroke-miterlimit:4;stroke-opacity:1;stroke-dasharray:none;stroke-dashoffset:0"
         sodipodi:type="arc"
         transform="translate(-2.0203051,-1.1364216)" />
    </g>
    <text
       xml:space="preserve"
       style="font-size:12px;font-style:normal;font-variant:normal;font-weight:normal;font-stretch:normal;text-indent:0;text-align:start;text-decoration:none;line-height:125%;letter-spacing:0px;word-spacing:0px;text-transform:none;direction:ltr;block-progression:tb;writing-mode:lr-tb;text-anchor:start;color:#000000;fill:#000000;fill-opacity:1;fill-rule:nonzero;stroke:none;stroke-width:1px;marker:none;visibility:visible;display:inline;overflow:visible;enable-background:accumulate;font-family:Arial;-inkscape-font-specification:Arial"
       x="633.93201"
       y="815.27222"
       id="text6766"
       sodipodi:linespacing="125%"><tspan
         sodipodi:role="line"
         id="tspan6768"
         x="633.93201"
         y="815.27222"
         style="font-size:14px">PV</tspan></text>
    <text
       xml:space="preserve"
       style="font-size:12px;font-style:normal;font-variant:normal;font-weight:normal;font-stretch:normal;text-indent:0;text-align:start;text-decoration:none;line-height:125%;letter-spacing:0px;word-spacing:0px;text-transform:none;direction:ltr;block-progression:tb;writing-mode:lr-tb;text-anchor:start;color:#000000;fill:#000000;fill-opacity:1;fill-rule:nonzero;stroke:none;stroke-width:1px;marker:none;visibility:visible;display:inline;overflow:visible;enable-background:accumulate;font-family:Arial;-inkscape-font-specification:Arial"
       x="526.03687"
       y="880.38367"
       id="text5117"
       sodipodi:linespacing="125%"><tspan
         sodipodi:role="line"
         id="tspan5119"
         x="526.03687"
         y="880.38367"
         style="font-size:14px">LV(t)</tspan></text>
    <rect
       style="fill:url(#linearGradient7285);fill-opacity:1;fill-rule:nonzero;stroke:#000000;stroke-width:1;stroke-linejoin:round;stroke-miterlimit:4;stroke-opacity:1;stroke-dasharray:none;stroke-dashoffset:0"
       id="rect6770"
       width="18.274643"
       height="71.394485"
       x="593.46466"
       y="841.06152" />
    <g
       id="g6774"
       transform="translate(15.657364,8.0812204)">
      <path
         sodipodi:nodetypes="csssssssssccc"
         inkscape:connector-curvature="0"
         id="path6772"
         d="m 313.14729,832.654 c 0,0 -3.8392,-12.21963 -8.58629,-16.66751 -8.41186,-7.88165 -18.79863,-1.79964 -29.29443,-6.56599 -4.34119,-1.97142 -9.05119,-5.08944 -10.6066,-9.59645 -1.61628,-4.68339 -1.02809,-11.19478 2.52538,-14.64722 3.41537,-3.31827 10.9393,-3.901 15.65736,-4.54568 11.6073,-1.58603 21.62398,-1.7103 33.33504,-2.02031 8.77744,-0.23235 17.88473,-0.6038 26.26396,2.02031 5.40081,1.69136 12.02423,3.57137 14.64721,8.58629 2.03474,3.89027 1.06865,9.26508 -1.01015,13.13199 -2.72678,5.07227 -8.07481,9.11507 -13.63706,10.6066 -13.62802,1.60995 -14.79987,-5.25147 -22.72843,2.52538 -4.51938,4.66998 -6.56599,17.17259 -6.56599,17.17259 z"
         style="fill:#ffffff;fill-opacity:1;fill-rule:nonzero;stroke:#000000;stroke-width:1;stroke-linejoin:round;stroke-miterlimit:4;stroke-opacity:1;stroke-dasharray:none;stroke-dashoffset:0" />
      <text
         sodipodi:linespacing="125%"
         id="text5125"
         y="801.5918"
         x="277.2869"
         style="font-size:12px;font-style:normal;font-variant:normal;font-weight:normal;font-stretch:normal;text-indent:0;text-align:start;text-decoration:none;line-height:125%;letter-spacing:0px;word-spacing:0px;text-transform:none;direction:ltr;block-progression:tb;writing-mode:lr-tb;text-anchor:start;color:#000000;fill:#000000;fill-opacity:1;fill-rule:nonzero;stroke:none;stroke-width:1px;marker:none;visibility:visible;display:inline;overflow:visible;enable-background:accumulate;font-family:Arial;-inkscape-font-specification:Arial"
         xml:space="preserve"><tspan
           y="801.5918"
           x="277.2869"
           id="tspan5127"
           sodipodi:role="line">g = get food</tspan></text>
    </g>
    <text
       sodipodi:linespacing="125%"
       id="text6779"
       y="846.79614"
       x="633.5188"
       style="font-size:12px;font-style:normal;font-variant:normal;font-weight:normal;font-stretch:normal;text-indent:0;text-align:start;text-decoration:none;line-height:125%;letter-spacing:0px;word-spacing:0px;text-transform:none;direction:ltr;block-progression:tb;writing-mode:lr-tb;text-anchor:start;color:#000000;fill:#000000;fill-opacity:1;fill-rule:nonzero;stroke:none;stroke-width:1px;marker:none;visibility:visible;display:inline;overflow:visible;enable-background:accumulate;font-family:Arial;-inkscape-font-specification:Arial"
       xml:space="preserve"><tspan
         y="846.79614"
         x="633.5188"
         id="tspan6781"
         sodipodi:role="line"
         style="font-size:14px">PV</tspan></text>
    <path
       style="fill:#ffffff;fill-opacity:1;fill-rule:nonzero;stroke:#000000;stroke-width:1;stroke-linejoin:round;stroke-miterlimit:4;stroke-opacity:1;stroke-dasharray:none;stroke-dashoffset:0"
       d="m 618.81036,841.38824 c 13.13198,0 13.13198,0 13.13198,0"
       id="path6783"
       inkscape:connector-curvature="0" />
    <path
       inkscape:connector-curvature="0"
       id="path6785"
       d="m 618.81035,811.0311 c 13.13198,0 13.13198,0 13.13198,0"
       style="fill:#ffffff;fill-opacity:1;fill-rule:nonzero;stroke:#000000;stroke-width:1;stroke-linejoin:round;stroke-miterlimit:4;stroke-opacity:1;stroke-dasharray:none;stroke-dashoffset:0" />
    <text
       xml:space="preserve"
       style="font-size:15.75662613px;font-style:normal;font-variant:normal;font-weight:normal;font-stretch:normal;text-indent:0;text-align:start;text-decoration:none;line-height:125%;letter-spacing:0px;word-spacing:0px;text-transform:none;direction:ltr;block-progression:tb;writing-mode:lr-tb;text-anchor:start;color:#000000;fill:#000000;fill-opacity:1;fill-rule:nonzero;stroke:none;stroke-width:1px;marker:none;visibility:visible;display:inline;overflow:visible;enable-background:accumulate;font-family:Arial;-inkscape-font-specification:Arial"
       x="280.92975"
       y="1891.4941"
       id="text6787"
       sodipodi:linespacing="125%"
       transform="scale(2.2581382,0.44284269)"><tspan
         sodipodi:role="line"
         id="tspan6789"
         x="280.92975"
         y="1891.4941">^</tspan></text>
    <text
       xml:space="preserve"
       style="font-size:12px;font-style:normal;font-variant:normal;font-weight:normal;font-stretch:normal;text-indent:0;text-align:start;text-decoration:none;line-height:125%;letter-spacing:0px;word-spacing:0px;text-transform:none;direction:ltr;block-progression:tb;writing-mode:lr-tb;text-anchor:start;color:#000000;fill:#000000;fill-opacity:1;fill-rule:nonzero;stroke:none;stroke-width:1px;marker:none;visibility:visible;display:inline;overflow:visible;enable-background:accumulate;font-family:Arial;-inkscape-font-specification:Arial"
       x="657.67859"
       y="830.57648"
       id="text6791"
       sodipodi:linespacing="125%"><tspan
         sodipodi:role="line"
         id="tspan6793"
         x="657.67859"
         y="830.57648"
         style="font-size:18px">δ<tspan
   style="font-size:65%;baseline-shift:sub"
   id="tspan6815">pv</tspan></tspan></text>
    <text
       xml:space="preserve"
       style="font-size:17.23150826px;font-style:normal;font-variant:normal;font-weight:normal;font-stretch:normal;text-indent:0;text-align:start;text-decoration:none;line-height:125%;letter-spacing:0px;word-spacing:0px;text-transform:none;direction:ltr;block-progression:tb;writing-mode:lr-tb;text-anchor:start;color:#000000;fill:#000000;fill-opacity:1;fill-rule:nonzero;stroke:none;stroke-width:1px;marker:none;visibility:visible;display:inline;overflow:visible;enable-background:accumulate;font-family:Arial;-inkscape-font-specification:Arial"
       x="1372.6407"
       y="398.25253"
       id="text6797"
       sodipodi:linespacing="125%"
       transform="scale(0.4764652,2.0987892)"><tspan
         sodipodi:role="line"
         id="tspan6799"
         x="1372.6407"
         y="398.25253">}</tspan></text>
    <text
       sodipodi:linespacing="125%"
       id="text6801"
       y="882.0943"
       x="448.577"
       style="font-size:12px;font-style:normal;font-variant:normal;font-weight:normal;font-stretch:normal;text-indent:0;text-align:start;text-decoration:none;line-height:125%;letter-spacing:0px;word-spacing:0px;text-transform:none;direction:ltr;block-progression:tb;writing-mode:lr-tb;text-anchor:start;color:#000000;fill:#000000;fill-opacity:1;fill-rule:nonzero;stroke:none;stroke-width:1px;marker:none;visibility:visible;display:inline;overflow:visible;enable-background:accumulate;font-family:Arial;-inkscape-font-specification:Arial"
       xml:space="preserve"><tspan
         y="882.0943"
         x="448.577"
         id="tspan6803"
         sodipodi:role="line"
         style="font-size:18px">δ<tspan
   style="font-size:65.00091553%;baseline-shift:sub"
   id="tspan6813">lv</tspan></tspan></text>
    <path
       inkscape:connector-curvature="0"
       id="path6807"
       d="m 479.49866,883.81465 c 15.56801,0 15.56801,0 15.56801,0"
       style="fill:#ffffff;fill-opacity:1;fill-rule:nonzero;stroke:#000000;stroke-width:1;stroke-linejoin:round;stroke-miterlimit:4;stroke-opacity:1;stroke-dasharray:none;stroke-dashoffset:0" />
    <path
       style="fill:#ffffff;fill-opacity:1;fill-rule:nonzero;stroke:#000000;stroke-width:1;stroke-linejoin:round;stroke-miterlimit:4;stroke-opacity:1;stroke-dasharray:none;stroke-dashoffset:0"
       d="m 480.73748,871.64025 c 38.06776,0 38.06776,0 38.06776,0"
       id="path6809"
       inkscape:connector-curvature="0" />
    <text
       sodipodi:linespacing="125%"
       id="text6817"
       y="895.53595"
       x="496.74243"
       style="font-size:12px;font-style:normal;font-variant:normal;font-weight:normal;font-stretch:normal;text-indent:0;text-align:start;text-decoration:none;line-height:125%;letter-spacing:0px;word-spacing:0px;text-transform:none;direction:ltr;block-progression:tb;writing-mode:lr-tb;text-anchor:start;color:#000000;fill:#000000;fill-opacity:1;fill-rule:nonzero;stroke:none;stroke-width:1px;marker:none;visibility:visible;display:inline;overflow:visible;enable-background:accumulate;font-family:Arial;-inkscape-font-specification:Arial"
       xml:space="preserve"><tspan
         style="font-size:14px"
         y="895.53595"
         x="496.74243"
         id="tspan6819"
         sodipodi:role="line">LV(t-1)</tspan></text>
    <path
       style="fill:#ffffff;fill-opacity:1;fill-rule:nonzero;stroke:#ff0000;stroke-width:2;stroke-linejoin:round;stroke-miterlimit:4;stroke-opacity:1;stroke-dasharray:none;stroke-dashoffset:0"
       d="m 353.04831,952.86216 39.90103,0 4.54569,-15.65737 4.28651,15.99748 37.63482,0 4.65427,-15.05997 4.66714,15.02796 53.56059,-0.25253 6.06091,-21.26877 6.31588,21.29834 44.44428,-0.0851 4.85198,-15.957 5.75131,15.85883 23.48936,0 9.90361,-32.85248 9.18798,32.95967 31.41604,0"
       id="path6821"
       inkscape:connector-curvature="0"
       sodipodi:nodetypes="ccccccccccccccccc" />
    <path
       style="fill:#ffffff;fill-opacity:1;fill-rule:nonzero;stroke:#000000;stroke-width:1;stroke-linejoin:round;stroke-miterlimit:4;stroke-opacity:1;stroke-dasharray:1,2;stroke-dashoffset:0"
       d="m 326.27927,952.86216 339.91633,0"
       id="path6823"
       inkscape:connector-curvature="0" />
    <path
       style="fill:#ff0000;fill-opacity:1;fill-rule:nonzero;stroke:#000000;stroke-width:1;stroke-linejoin:round;stroke-miterlimit:4;stroke-opacity:1;stroke-dasharray:none;stroke-dashoffset:0;marker-end:url(#Arrow1Mend)"
       d="m 455.4351,886.00976 48.58014,49.3321"
       id="path6825"
       inkscape:connector-curvature="0"
       sodipodi:nodetypes="cc" />
    <path
       inkscape:connector-curvature="0"
       id="path7271"
       d="m 663.92858,834.86218 -55.00001,89.64286"
       style="fill:#ff0000;fill-opacity:1;fill-rule:nonzero;stroke:#000000;stroke-width:1;stroke-linejoin:round;stroke-miterlimit:4;stroke-opacity:1;stroke-dasharray:none;stroke-dashoffset:0;marker-end:url(#Arrow1Mend)"
       sodipodi:nodetypes="cc" />
    <text
       xml:space="preserve"
       style="font-size:12px;font-style:normal;font-variant:normal;font-weight:normal;font-stretch:normal;text-indent:0;text-align:start;text-decoration:none;line-height:125%;letter-spacing:0px;word-spacing:0px;text-transform:none;direction:ltr;block-progression:tb;writing-mode:lr-tb;text-anchor:start;color:#000000;fill:#000000;fill-opacity:1;fill-rule:nonzero;stroke:none;stroke-width:1px;marker:none;visibility:visible;display:inline;overflow:visible;enable-background:accumulate;font-family:Arial;-inkscape-font-specification:Arial"
       x="326.78436"
       y="946.29614"
       id="text7273"
       sodipodi:linespacing="125%"><tspan
         sodipodi:role="line"
         id="tspan7275"
         x="326.78436"
         y="946.29614">dopamine</tspan></text>
    <text
       transform="scale(-0.82797151,1.207771)"
       sodipodi:linespacing="125%"
       id="text7287"
       y="730.09332"
       x="-571.82959"
       style="font-size:16.13012123px;font-style:normal;font-variant:normal;font-weight:normal;font-stretch:normal;text-indent:0;text-align:start;text-decoration:none;line-height:125%;letter-spacing:0px;word-spacing:0px;text-transform:none;direction:ltr;block-progression:tb;writing-mode:lr-tb;text-anchor:start;color:#000000;fill:#000000;fill-opacity:1;fill-rule:nonzero;stroke:none;stroke-width:1px;marker:none;visibility:visible;display:inline;overflow:visible;enable-background:accumulate;font-family:Arial;-inkscape-font-specification:Arial"
       xml:space="preserve"><tspan
         y="730.09332"
         x="-571.82959"
         id="tspan7289"
         sodipodi:role="line">}</tspan></text>
    <text
       xml:space="preserve"
       style="font-size:12px;font-style:normal;font-variant:normal;font-weight:normal;font-stretch:normal;text-indent:0;text-align:start;text-decoration:none;line-height:125%;letter-spacing:0px;word-spacing:0px;text-transform:none;direction:ltr;block-progression:tb;writing-mode:lr-tb;text-anchor:start;color:#000000;fill:#000000;fill-opacity:1;fill-rule:nonzero;stroke:none;stroke-width:1px;marker:none;visibility:visible;display:inline;overflow:visible;enable-background:accumulate;font-family:Arial;-inkscape-font-specification:Arial"
       x="489.41891"
       y="925.58801"
       id="text7291"
       sodipodi:linespacing="125%"><tspan
         sodipodi:role="line"
         id="tspan7293"
         x="489.41891"
         y="925.58801">  </tspan></text>
  </g>
</svg>
