<svg
  width="251.538"
  height="77.1253"
  viewBox="-36 -36 276 108"
  xmlns:xlink="http://www.w3.org/1999/xlink"
  xmlns="http://www.w3.org/2000/svg">
  <defs
    id="defs">
    <linearGradient
      id="linearGradient3667"
      x1="0"
      y1="0"
      x2="1"
      y2="0"
      gradientUnits="objectBoundingBox">
      <stop
        style="stop-color:#FFFFFF;stop-opacity:1;"
        offset="0" />
      <stop
        style="stop-color:#0000FF;stop-opacity:1;"
        offset="1" />
    </linearGradient>
    <linearGradient
      id="linearGradient3659"
      x1="0"
      y1="0"
      x2="1"
      y2="0"
      gradientUnits="objectBoundingBox">
      <stop
        style="stop-color:#FFFFFF;stop-opacity:1;"
        offset="0" />
      <stop
        style="stop-color:#00FF00;stop-opacity:1;"
        offset="1" />
    </linearGradient>
    <linearGradient
      id="linearGradient3651"
      x1="0"
      y1="0"
      x2="1"
      y2="0"
      gradientUnits="objectBoundingBox">
      <stop
        style="stop-color:#FFFFFF;stop-opacity:1;"
        offset="0" />
      <stop
        style="stop-color:#FF0000;stop-opacity:1;"
        offset="1" />
    </linearGradient>
    <radialGradient
      id="radialGradient3657"
      cx="78.8715"
      cy="17.6798"
      fx="78.8715"
      fy="17.6798"
      r="8.60915"
      gradientUnits="userSpaceOnUse"
      gradientTransform="matrix(1,0,0,1,-25.14731,-28.305534)"
      xlink:href="#linearGradient3651" />
    <radialGradient
      id="radialGradient3665"
      cx="124.7935"
      cy="17.6798"
      fx="124.7935"
      fy="17.6798"
      r="8.60915"
      gradientUnits="userSpaceOnUse"
      gradientTransform="matrix(1,0,0,1,-25.14731,-28.305534)"
      xlink:href="#linearGradient3659" />
    <radialGradient
      id="radialGradient3673"
      cx="173.1015"
      cy="17.6798"
      fx="173.1015"
      fy="17.6798"
      r="8.60915"
      gradientUnits="userSpaceOnUse"
      gradientTransform="matrix(1,0,0,1,-25.14731,-28.305534)"
      xlink:href="#linearGradient3667" />
  </defs>
  <sodipodi:namedview
    id="namedview92"
    style="window-y:0;showgrid:false;window-width:1116;guidetolerance:10;pageshadow:2;pageopacity:0;current-layer:svg2;window-maximized:0;window-x:0;cy:15.141714;zoom:2;window-height:758;objecttolerance:10;borderopacity:1;bordercolor:#666666;pagecolor:#ffffff;document-rotation:0;cx:121.64208;gridtolerance:10;" />
  <rect
    id="rect2945"
    style="stroke-width:1;stroke-opacity:1;fill-opacity:1;fill-rule:nonzero;stroke-miterlimit:10;stroke-dasharray:none;stroke-dashoffset:0;fill:#ffffff;stroke:#ffffff;"
    x="-28.27478"
    y="-31.154129"
    width="259.13327"
    height="97.84515" />
  <path
    id="path14"
    style="fill:#000000;fill-rule:evenodd;stroke:none;"
    d="M-19.24831 29.57777L-16.74831 28.71877V27.52676L-25.14731 30.46476V31.83976L-16.74831 34.82376V33.69077L-19.24831 32.80777zM-20.14731 29.87477V32.53477L-23.96732 31.15977z" />
  <path
    id="path16"
    style="fill:#000000;fill-rule:evenodd;stroke:none;"
    d="M-20.74431 22.01176C-21.33031 22.05476 -21.71332 22.17876 -22.04932 22.40976C-22.61232 22.81576 -22.94832 23.53476 -22.94832 24.36276C-22.94832 25.96476 -21.65532 27.01176 -19.64331 27.01176C-17.69031 27.01176 -16.45131 25.98776 -16.45131 24.37476C-16.45131 22.95276 -17.32332 22.05476 -18.81531 21.94076V22.89376C-17.83832 23.05076 -17.35031 23.53876 -17.35031 24.34376C-17.35031 25.38676 -18.21332 26.01176 -19.63931 26.01176C-21.14731 26.01176 -22.04532 25.40176 -22.04532 24.36676C-22.04532 23.57376 -21.57631 23.07376 -20.74132 22.96076z" />
  <path
    id="path18"
    style="fill:#000000;fill-rule:evenodd;stroke:none;"
    d="M-22.74831 18.71877V19.61676H-24.41632V20.61676H-22.74831V21.51476H-21.95131V20.61676H-17.40532C-16.79932 20.61676 -16.45531 20.21476 -16.45531 19.48376C-16.45531 19.26176 -16.47931 19.03476 -16.53731 18.72176H-17.37331C-17.28432 18.83576 -17.25632 18.97176 -17.25632 19.13976C-17.25632 19.51476 -17.36931 19.62076 -17.79932 19.62076H-21.95131V18.72176L-22.74831 18.71877z" />
  <path
    id="path20"
    style="fill:#000000;fill-rule:evenodd;stroke:none;"
    d="M-22.74831 16.71877V17.71877H-16.74831V16.71877zM-25.14731 16.71877V17.71877H-23.91231V16.71877z" />
  <path
    id="path22"
    style="fill:#000000;fill-rule:evenodd;stroke:none;"
    d="M-16.74831 12.64777L-22.74831 10.34377V11.42176L-17.88532 13.11676L-22.74831 14.72176V15.80076L-16.74831 13.69076V12.64776z" />
  <path
    id="path24"
    style="fill:#000000;fill-rule:evenodd;stroke:none;"
    d="M-17.31131 4.077766C-17.24831 4.182766 -17.24831 4.229767 -17.24831 4.288765C-17.24831 4.628765 -17.42032 4.815765 -17.72132 4.815765H-21.28731C-22.36232 4.815765 -22.94432 5.593765 -22.94432 7.065765C-22.94432 7.932766 -22.69031 8.651764 -22.24132 9.054764C-21.93231 9.327763 -21.58432 9.440765 -20.98331 9.464764V8.518764C-21.71332 8.440765 -22.04532 8.014763 -22.04532 7.132763C-22.04532 6.288761 -21.72531 5.815762 -21.14731 5.815762H-20.89331C-20.49132 5.815762 -20.31932 6.050762 -20.22531 6.792763C-20.05332 8.116764 -20.00632 8.319763 -19.85831 8.678764C-19.57332 9.362762 -19.03032 9.710766 -18.24431 9.710766C-17.15131 9.710766 -16.45932 8.956764 -16.45932 7.745766C-16.45932 6.991764 -16.73331 6.386765 -17.37732 5.710766C-16.74431 5.643764 -16.45932 5.346767 -16.45932 4.729767C-16.45932 4.538765 -16.48331 4.389767 -16.56531 4.081768zM-18.60831 5.819767C-18.28032 5.819767 -18.07631 5.909767 -17.80332 6.186768C-17.44031 6.565769 -17.24831 7.022766 -17.24831 7.569767C-17.24831 8.292767 -17.61232 8.718765 -18.24132 8.718765C-18.88931 8.718765 -19.22132 8.307766 -19.37331 7.315765C-19.51431 6.335766 -19.56131 6.136765 -19.71332 5.823765z" />
  <path
    id="path26"
    style="fill:#000000;fill-rule:evenodd;stroke:none;"
    d="M-22.74831 .9177666V1.815767H-24.41632V2.815767H-22.74831V3.714767H-21.95131V2.815767H-17.40532C-16.79932 2.815767 -16.45531 2.413767 -16.45531 1.682768C-16.45531 1.460768 -16.47931 1.233768 -16.53731 .9217682H-17.37331C-17.28432 1.034769 -17.25632 1.171768 -17.25632 1.339767C-17.25632 1.714767 -17.36931 1.819767 -17.79932 1.819767H-21.95131V.9217663L-22.74831 .9177666z" />
  <path
    id="path28"
    style="stroke:none;fill:#000000;fill-rule:evenodd;"
    d="M-22.74831 -1.082233V-.08223343H-16.74831V-1.082233zM-25.14731 -1.082233V-.08223343H-23.91231V-1.082233z" />
  <path
    id="path30"
    style="fill:#000000;fill-rule:evenodd;stroke:none;"
    d="M-22.94832 -5.117235C-22.94832 -3.414236 -21.73331 -2.383236 -19.69832 -2.383236C-17.66231 -2.383236 -16.44832 -3.403236 -16.44832 -5.133236C-16.44832 -6.836235 -17.65831 -7.883236 -19.64731 -7.883236C-21.73732 -7.883236 -22.94031 -6.875237 -22.94031 -5.125237L-22.94832 -5.117237zM-22.04932 -5.133236C-22.04932 -6.227236 -21.16231 -6.883236 -19.66632 -6.883236C-18.25232 -6.883236 -17.35431 -6.207235 -17.35431 -5.133236C-17.35431 -4.051235 -18.24132 -3.383236 -19.70131 -3.383236C-21.15131 -3.383236 -22.04932 -4.047235 -22.04932 -5.133236z" />
  <path
    id="path32"
    style="fill:#000000;fill-rule:evenodd;stroke:none;"
    d="M-22.77631 -9.082233H-16.75232V-10.08223H-20.10031C-21.33832 -10.08223 -22.15131 -10.70723 -22.15131 -11.67223C-22.15131 -12.41023 -21.69031 -12.87923 -20.95932 -12.87923H-16.75632V-13.87923H-21.31131C-22.31131 -13.87923 -22.95531 -13.13723 -22.95531 -11.97723C-22.95531 -11.08623 -22.61232 -10.51223 -21.77231 -9.985233H-22.78432L-22.77631 -9.082233z" />
  <path
    id="path34"
    style="stroke-miterlimit:4;stroke-dasharray:none;fill:url(#radialGradient3657);stroke:#000000;stroke-width:1;fill-opacity:1;"
    d="M61.37669 -10.62523C61.37669 -14.85223 57.95069 -18.27823 53.72369 -18.27823C49.4977 -18.27823 46.07169 -14.85223 46.07169 -10.62523C46.07169 -6.399235 49.4977 -2.973234 53.72369 -2.973234C57.95069 -2.973234 61.37669 -6.399235 61.37669 -10.62523" />
  <path
    id="path36"
    style="stroke-width:1;fill-opacity:1;stroke-miterlimit:4;stroke-dasharray:none;fill:url(#radialGradient3665);stroke:#000000;"
    d="M107.2987 -10.62523C107.2987 -14.85223 103.8727 -18.27823 99.64569 -18.27823C95.41969 -18.27823 91.99369 -14.85223 91.99369 -10.62523C91.99369 -6.399235 95.41969 -2.973234 99.64569 -2.973234C103.8727 -2.973234 107.2987 -6.399235 107.2987 -10.62523" />
  <path
    id="path38"
    style="fill:url(#radialGradient3673);stroke:#000000;stroke-width:1;fill-opacity:1;stroke-miterlimit:4;stroke-dasharray:none;"
    d="M155.6067 -10.62523C155.6067 -14.85223 152.1807 -18.27823 147.9547 -18.27823C143.7277 -18.27823 140.3017 -14.85223 140.3017 -10.62523C140.3017 -6.399235 143.7277 -2.973234 147.9547 -2.973234C152.1807 -2.973234 155.6067 -6.399235 155.6067 -10.62523" />
  <path
    id="path40"
    style="stroke:none;fill:#000000;fill-rule:evenodd;"
    d="M45.75169 42.74577C45.4157 40.91776 44.35269 40.02277 42.50169 40.02277C41.36869 40.02277 40.45869 40.37877 39.83369 41.06976C39.07169 41.89777 38.65769 43.09377 38.65769 44.45277C38.65769 45.83176 39.08369 47.01877 39.8807 47.83577C40.5247 48.50377 41.3567 48.81177 42.4547 48.81177C44.5087 48.81177 45.6657 47.69877 45.9237 45.46077H44.8177C44.7277 46.05077 44.61469 46.45277 44.4387 46.79677C44.0947 47.50777 43.3807 47.90977 42.48569 47.90977C40.8177 47.90977 39.7587 46.55777 39.7587 44.43677C39.7587 42.25777 40.7707 40.91376 42.3957 40.91376C43.0717 40.91376 43.7087 41.12476 44.0517 41.44877C44.36069 41.74177 44.5327 42.10077 44.6617 42.73377L45.75169 42.74577z" />
  <path
    id="path42"
    style="fill:#000000;fill-rule:evenodd;stroke:none;"
    d="M49.59169 42.31976C47.88769 42.31976 46.85669 43.53476 46.85669 45.56976C46.85669 47.60477 47.87669 48.81976 49.60669 48.81976C51.30969 48.81976 52.35669 47.60876 52.35669 45.62077C52.35669 43.53077 51.34869 42.32777 49.59869 42.32777L49.59168 42.31976zM49.60269 43.21877C50.69669 43.21877 51.35269 44.10477 51.35269 45.60076C51.35269 47.01476 50.67669 47.91376 49.60269 47.91376C48.52069 47.91376 47.85269 47.02676 47.85269 45.56577C47.85269 44.11677 48.51669 43.21877 49.60269 43.21877z" />
  <path
    id="path44"
    style="fill:#000000;fill-rule:evenodd;stroke:none;"
    d="M53.65369 42.49177V48.51477H54.65369V45.16777C54.65369 43.92877 55.27869 43.11677 56.24369 43.11677C56.98169 43.11677 57.45069 43.57777 57.45069 44.30777V48.51177H58.45069V43.95677C58.45069 42.95677 57.70869 42.31178 56.54869 42.31178C55.65769 42.31178 55.08369 42.65578 54.55569 43.49577V42.48377L53.65369 42.49178z" />
  <path
    id="path46"
    style="stroke:none;fill:#000000;fill-rule:evenodd;"
    d="M62.15369 42.51877H61.25569V40.85077H60.25569V42.51877H59.35669V43.31577H60.25569V47.86276C60.25569 48.46877 60.65769 48.81176 61.3877 48.81176C61.61069 48.81176 61.83769 48.78876 62.1497 48.72976V47.89376C62.0367 47.98376 61.8997 48.01176 61.7317 48.01176C61.3567 48.01176 61.25169 47.89776 61.25169 47.46876V43.31576H62.1497L62.15369 42.51876z" />
  <path
    id="path48"
    style="stroke:none;fill:#000000;fill-rule:evenodd;"
    d="M64.15369 42.51877H63.15369V48.51877H64.15369zM64.15369 40.11677H63.15369V41.35077H64.15369z" />
  <path
    id="path50"
    style="fill:#000000;fill-rule:evenodd;stroke:none;"
    d="M65.75169 42.49177V48.51477H66.75169V45.16777C66.75169 43.92877 67.37669 43.11677 68.34169 43.11677C69.07969 43.11677 69.54869 43.57777 69.54869 44.30777V48.51177H70.54869V43.95677C70.54869 42.95677 69.80569 42.31178 68.64569 42.31178C67.75569 42.31178 67.18069 42.65578 66.65369 43.49577V42.48377L65.75169 42.49178z" />
  <path
    id="path52"
    style="fill:#000000;fill-rule:evenodd;stroke:none;"
    d="M76.95069 48.55476V42.52277H75.95069V45.96877C75.95069 47.20676 75.30569 48.01877 74.29869 48.01877C73.53669 48.01877 73.05169 47.55777 73.05169 46.82777V42.52277H72.05169V47.17577C72.05169 48.17577 72.80969 48.81976 74.00169 48.81976C74.89969 48.81976 75.47369 48.51176 76.04868 47.71877V48.55776L76.95068 48.55476z" />
  <path
    id="path54"
    style="fill:#000000;fill-rule:evenodd;stroke:none;"
    d="M80.8877 42.31976C79.18469 42.31976 78.15369 43.53476 78.15369 45.56976C78.15369 47.60477 79.17369 48.81976 80.90369 48.81976C82.6067 48.81976 83.65369 47.60876 83.65369 45.62077C83.65369 43.53077 82.64569 42.32777 80.89569 42.32777L80.88769 42.31976zM80.90369 43.21877C81.9977 43.21877 82.65369 44.10477 82.65369 45.60076C82.65369 47.01476 81.97769 47.91376 80.90369 47.91376C79.82169 47.91376 79.15369 47.02676 79.15369 45.56577C79.15369 44.11677 79.8177 43.21877 80.90369 43.21877z" />
  <path
    id="path56"
    style="fill:#000000;fill-rule:evenodd;stroke:none;"
    d="M89.75169 48.55476V42.52277H88.75169V45.96877C88.75169 47.20676 88.1067 48.01877 87.09869 48.01877C86.33769 48.01877 85.85269 47.55777 85.85269 46.82777V42.52277H84.85269V47.17577C84.85269 48.17577 85.61069 48.81976 86.80169 48.81976C87.70069 48.81976 88.27469 48.51176 88.84869 47.71877V48.55776L89.75169 48.55476z" />
  <path
    id="path58"
    style="fill:#000000;fill-rule:evenodd;stroke:none;"
    d="M95.47769 44.17876C95.46569 42.99177 94.68069 42.31976 93.27869 42.31976C91.86869 42.31976 90.9547 43.04676 90.9547 44.16776C90.9547 45.11276 91.4427 45.56176 92.89169 45.90976L93.8017 46.12876C94.4777 46.28876 94.7477 46.53076 94.7477 46.96876C94.7477 47.53075 94.18069 47.91376 93.33769 47.91376C92.8177 47.91376 92.38069 47.76476 92.1377 47.50776C91.98969 47.33576 91.91969 47.15976 91.86069 46.72576H90.8447C90.8877 48.13676 91.6737 48.81576 93.2557 48.81576C94.7787 48.81576 95.7477 48.06576 95.7477 46.90176C95.7477 46.00375 95.23569 45.50776 94.0207 45.21876L93.0877 44.99976C92.2947 44.81576 91.9547 44.56175 91.9547 44.13676C91.9547 43.58575 92.4507 43.22575 93.2397 43.22575C94.0127 43.22575 94.4307 43.55476 94.4547 44.18275L95.4777 44.17876z" />
  <path
    id="path60"
    style="fill:#000000;fill-rule:evenodd;stroke:none;"
    d="M100.4507 48.51877H103.7047C105.8337 48.51877 107.1457 46.92877 107.1457 44.31577C107.1457 41.71477 105.8487 40.12476 103.7047 40.12476H100.4507V48.51876zM101.5517 47.61677V41.01877H103.5247C105.1767 41.01877 106.0487 42.15177 106.0487 44.32377C106.0487 46.47177 105.1767 47.61677 103.5247 47.61677z" />
  <path
    id="path62"
    style="fill:#000000;fill-rule:evenodd;stroke:none;"
    d="M109.4507 42.51877H108.4507V48.51877H109.4507zM109.4507 40.11677H108.4507V41.35077H109.4507z" />
  <path
    id="path64"
    style="fill-rule:evenodd;stroke:none;fill:#000000;"
    d="M111.0517 42.49177V48.51477H112.0517V44.70677C112.0517 43.82777 112.6767 43.12077 113.4467 43.12077C114.1497 43.12077 114.5487 43.55777 114.5487 44.33577V48.51477H115.5487V44.70677C115.5487 43.82777 116.1737 43.12077 116.9427 43.12077C117.6337 43.12077 118.0447 43.56977 118.0447 44.33577V48.51477H119.0447V43.99577C119.0447 42.91777 118.4237 42.31977 117.2907 42.31977C116.4857 42.31977 115.9977 42.56177 115.4347 43.24977C115.0797 42.60077 114.5947 42.31977 113.8097 42.31977C113.0057 42.31977 112.4737 42.61677 111.9547 43.33977V42.49177z" />
  <path
    id="path66"
    style="fill:#000000;fill-rule:evenodd;stroke:none;"
    d="M125.7517 45.81976C125.7517 44.90176 125.6847 44.35076 125.5127 43.90576C125.1267 42.92176 124.2127 42.32376 123.0947 42.32376C121.4307 42.32376 120.3567 43.61676 120.3567 45.60476C120.3567 47.59376 121.3917 48.81976 123.0677 48.81976C124.4307 48.81976 125.3767 48.02676 125.6187 46.69476H124.6657C124.4037 47.49976 123.8727 47.91776 123.1107 47.91776C122.5087 47.91776 121.9977 47.63976 121.6807 47.12476C121.4547 46.77676 121.3767 46.42576 121.3647 45.81976H125.7517zM121.3337 45.05077C121.4117 43.93677 122.0917 43.21477 123.0517 43.21477C123.9897 43.21477 124.7157 43.99177 124.7157 44.97977C124.7157 44.99976 124.7157 45.02277 124.7047 45.04677z" />
  <path
    id="path68"
    style="fill:#000000;fill-rule:evenodd;stroke:none;"
    d="M127.0517 42.49177V48.51477H128.0517V45.16777C128.0517 43.92877 128.6767 43.11677 129.6417 43.11677C130.3807 43.11677 130.8487 43.57777 130.8487 44.30777V48.51177H131.8487V43.95677C131.8487 42.95677 131.1067 42.31178 129.9467 42.31178C129.0557 42.31178 128.4817 42.65578 127.9547 43.49577V42.48377L127.0517 42.49178z" />
  <path
    id="path70"
    style="fill:#000000;fill-rule:evenodd;stroke:none;"
    d="M137.5797 44.17876C137.5677 42.99177 136.7827 42.31976 135.3807 42.31976C133.9697 42.31976 133.0557 43.04676 133.0557 44.16776C133.0557 45.11276 133.5447 45.56176 134.9937 45.90976L135.9037 46.12876C136.5797 46.28876 136.8487 46.53076 136.8487 46.96876C136.8487 47.53075 136.2827 47.91376 135.4387 47.91376C134.9197 47.91376 134.4817 47.76476 134.2397 47.50776C134.0917 47.33576 134.0207 47.15976 133.9627 46.72576H132.9467C132.9897 48.13676 133.7747 48.81576 135.3567 48.81576C136.8807 48.81576 137.8487 48.06576 137.8487 46.90176C137.8487 46.00375 137.3377 45.50776 136.1227 45.21876L135.1887 44.99976C134.3957 44.81576 134.0557 44.56175 134.0557 44.13676C134.0557 43.58575 134.5517 43.22575 135.3417 43.22575C136.1147 43.22575 136.5327 43.55476 136.5557 44.18275L137.5797 44.17876z" />
  <path
    id="path72"
    style="fill:#000000;fill-rule:evenodd;stroke:none;"
    d="M140.0517 42.51877H139.0517V48.51877H140.0517zM140.0517 40.11677H139.0517V41.35077H140.0517z" />
  <path
    id="path74"
    style="fill:#000000;fill-rule:evenodd;stroke:none;"
    d="M143.9897 42.31976C142.2867 42.31976 141.2557 43.53476 141.2557 45.56976C141.2557 47.60477 142.2747 48.81976 144.0057 48.81976C145.7087 48.81976 146.7557 47.60876 146.7557 45.62077C146.7557 43.53077 145.7477 42.32777 143.9977 42.32777L143.9897 42.31976zM144.0017 43.21877C145.0947 43.21877 145.7517 44.10477 145.7517 45.60076C145.7517 47.01476 145.0757 47.91376 144.0017 47.91376C142.9197 47.91376 142.2517 47.02676 142.2517 45.56577C142.2517 44.11677 142.9157 43.21877 144.0017 43.21877z" />
  <path
    id="path76"
    style="fill:#000000;fill-rule:evenodd;stroke:none;"
    d="M148.0517 42.49177V48.51477H149.0517V45.16777C149.0517 43.92877 149.6767 43.11677 150.6417 43.11677C151.3807 43.11677 151.8487 43.57777 151.8487 44.30777V48.51177H152.8487V43.95677C152.8487 42.95677 152.1067 42.31178 150.9467 42.31178C150.0557 42.31178 149.4817 42.65578 148.9547 43.49577V42.48377L148.0517 42.49178z" />
  <path
    id="path78"
    style="fill:none;stroke:#ff0000;stroke-width:1.91330003999999998;"
    d="M-7.28031 34.36277L-5.295309 34.17176L-3.31131 33.97976L-1.326309 33.78876L.65769 33.59676L2.891689 33.21476L4.87669 32.73776L6.860689 32.26176L8.84469 31.68676L10.82969 31.01876L12.81369 30.15976L15.04869 29.10476L17.03269 27.95676L19.0167 26.71476L21.0017 25.27676L22.9857 23.64775L24.9697 21.92575L26.9547 20.10476L29.1887 18.18676L31.1737 16.17575L33.1577 14.06976L35.1417 12.05775L37.1267 10.04675L39.1107 8.128754L41.0947 6.307755L43.3297 4.776756L45.31371 3.339756L47.29871 2.190756L49.28271 1.425756L51.26671 .9487572L53.25171 .7577572L55.23571 .9487572L57.46971 1.425756L59.45471 2.190756L61.43871 3.339756L63.42371 4.776756L65.40771 6.307755L67.39172 8.128754L69.62672 10.04675L71.61072 12.05775L73.59472 14.06976L75.57972 16.17575L77.56372 18.18676L79.54872 20.10476L81.53272 21.92575L83.76672 23.64775L85.75172 25.27676L87.73573 26.71476L89.71973 27.95676L91.70473 29.10476L93.68873 30.15976L95.67373 31.01876L97.90773 31.68676L99.89173 32.26176L101.8767 32.73776L103.8607 33.21476L105.8447 33.59676L107.8297 33.78876L110.0637 33.97976L112.0487 34.17176" />
  <path
    id="path80"
    style="fill:none;stroke:#008000;stroke-width:1.91330003999999998;stroke-dasharray:6, 3;"
    d="M39.59469 34.36277L41.57969 34.17176L43.56369 33.97976L45.54869 33.78876L47.53269 33.59676L49.76669 33.21476L51.75169 32.73776L53.73569 32.26176L55.7197 31.68676L57.7047 31.01876L59.6887 30.15976L61.9237 29.10476L63.9077 27.95676L65.8917 26.71476L67.8767 25.27676L69.8607 23.64775L71.8447 21.92575L73.8297 20.10476L76.06371 18.18676L78.04871 16.17575L80.03271 14.06976L82.01671 12.05775L84.00171 10.04675L85.98571 8.128754L87.96971 6.307755L90.20471 4.776756L92.18871 3.339756L94.17371 2.190756L96.15771 1.425756L98.14172 .9487572L100.1267 .7577572L102.1107 .9487572L104.3447 1.425756L106.3297 2.190756L108.3137 3.339756L110.2987 4.776756L112.2827 6.307755L114.2667 8.128754L116.5017 10.04675L118.4857 12.05775L120.4697 14.06976L122.4547 16.17575L124.4387 18.18676L126.4237 20.10476L128.4077 21.92575L130.6417 23.64775L132.6267 25.27676L134.6107 26.71476L136.5947 27.95676L138.5797 29.10476L140.5636 30.15976L142.5486 31.01876L144.7826 31.68676L146.7666 32.26176L148.7516 32.73776L150.7356 33.21476L152.7196 33.59676L154.7046 33.78876L156.9386 33.97976L158.9236 34.17176" />
  <path
    id="path82"
    style="fill:none;stroke:#0000ff;stroke-width:1.913;stroke-dasharray:1.913,1.913;stroke-miterlimit:4;stroke-dashoffset:0;"
    d="M87.90769 34.36277L89.89169 34.17176L91.87669 33.97976L93.86069 33.78876L95.8447 33.59676L98.0797 33.21476L100.0637 32.73776L102.0487 32.26176L104.0327 31.68676L106.0167 31.01876L108.0017 30.15976L110.2357 29.10476L112.2197 27.95676L114.2047 26.71476L116.1887 25.27676L118.1737 23.64775L120.1577 21.92575L122.1417 20.10476L124.3767 18.18676L126.3607 16.17575L128.3447 14.06976L130.3297 12.05775L132.3136 10.04675L134.2986 8.128754L136.2826 6.307755L138.5166 4.776756L140.5016 3.339756L142.4856 2.190756L144.4696 1.425756L146.4546 .9487572L148.4386 .7577572L150.4236 .9487572L152.6576 1.425756L154.6416 2.190756L156.6266 3.339756L158.6106 4.776756L160.5946 6.307755L162.5796 8.128754L164.8136 10.04675L166.7986 12.05775L168.7826 14.06976L170.7666 16.17575L172.7516 18.18676L174.7356 20.10476L176.7196 21.92575L178.9546 23.64775L180.9386 25.27676L182.9236 26.71476L184.9075 27.95676L186.8915 29.10476L188.8765 30.15976L190.8605 31.01876L193.0945 31.68676L195.0795 32.26176L197.0635 32.73776L199.0485 33.21476L201.0325 33.59676L203.0165 33.78876L205.2515 33.97976L207.2355 34.17176" />
  <path
    id="path84"
    style="fill:none;stroke:#000000;stroke-width:0.95664901;"
    d="M-11.08831 35.05476L221.3767 36.00777" />
  <path
    id="path86"
    style="fill:none;stroke:#000000;stroke-width:0.95664901;"
    d="M213.7317 34.06577L221.3767 36.00777L213.7157 37.88676" />
  <path
    id="path88"
    style="fill:none;stroke:#000000;stroke-width:0.95664901;"
    d="M-10.61231 35.05476V-18.03924" />
  <path
    id="path90"
    style="fill:none;stroke:#000000;stroke-width:0.95664901;"
    d="M-12.52631 -10.38723L-10.61631 -18.03923L-8.705311 -10.38723" />
  <text
    id="text2941"
    style="text-decoration-line:none;color:#000000;line-height:0%;"
    transform="translate(-25.14731,-28.305534)"
    x="64.33654"
    y="90.975525">
    <tspan
      id="tspan2943"
      style="font-size:12px;line-height:0;role:line;"
      x="64.33654"
      y="90.975525">(Frequency of Light)</tspan>
  </text>
</svg>
