<?xml version="1.0" encoding="ISO-8859-1" standalone="yes"?>
<svg width="184.659" height="116.363">
  <defs> 
    <marker id="ArrowEnd" viewBox="0 0 10 10" refX="0" refY="5" 
     markerUnits="strokeWidth" 
     markerWidth="4" 
     markerHeight="3" 
     orient="auto"> 
        <path d="M 0 0 L 10 5 L 0 10 z" /> 
    </marker>
    <marker id="ArrowStart" viewBox="0 0 10 10" refX="10" refY="5" 
     markerUnits="strokeWidth" 
     markerWidth="4" 
     markerHeight="3" 
     orient="auto"> 
        <path d="M 10 0 L 0 5 L 10 10 z" /> 
    </marker> </defs>
<g>
<path style="stroke:none; fill-rule:evenodd; fill:#ffffff" d="M 13.8589 58.4845L 40.6519 58.4845L 40.6519 35.5194L 13.8589 35.5194L 13.8589 58.4845z"/>
<path style="stroke:#000000; stroke-width:1.9139600000000001; fill:none" d="M 13.8589 58.4845L 40.6519 58.4845L 40.6519 35.5194L 13.8589 35.5194L 13.8589 58.4845z"/>
<path style="stroke:none; fill-rule:evenodd; fill:#000000" d="M 27.3784 44.629L 27.3784 50.3946L 28.3784 50.3946L 28.3784 42.2974L 27.7105 42.2974C 27.355 43.5431 27.1245 43.7149 25.5542 43.9063L 25.5542 44.6251L 27.3784 44.629z"/>
<path style="stroke:none; fill-rule:evenodd; fill:#000000" d="M 29.2769 23.7974L 28.1792 23.7974L 28.1792 32.1954L 33.3784 32.1954L 33.3784 31.2974L 29.2808 31.2974L 29.2769 23.7974z"/>
<path style="stroke:none; fill-rule:evenodd; fill:#ffffff" d="M 32.9995 64.2227L 59.7925 64.2227L 59.7925 41.2574L 32.9995 41.2574L 32.9995 64.2227z"/>
<path style="stroke:#000000; stroke-width:1.9139600000000001; fill:none" d="M 32.9995 64.2227L 59.7925 64.2227L 59.7925 41.2574L 32.9995 41.2574L 32.9995 64.2227z"/>
<path style="stroke:none; fill-rule:evenodd; fill:#000000" d="M 48.023 53.6954L 48.8823 56.1954L 50.0738 56.1954L 47.1362 47.797L 45.7612 47.797L 42.7769 56.1954L 43.9136 56.1954L 44.7964 53.6954L 48.023 53.6954zM 47.7222 52.797L 45.062 52.797L 46.437 48.9766L 47.7222 52.797z"/>
<path style="stroke:none; fill-rule:evenodd; fill:#ffffff" d="M 52.1402 69.9649L 78.9331 69.9649L 78.9331 47.0001L 52.1402 47.0001L 52.1402 69.9649z"/>
<path style="stroke:#000000; stroke-width:1.9139600000000001; fill:none" d="M 52.1402 69.9649L 78.9331 69.9649L 78.9331 47.0001L 52.1402 47.0001L 52.1402 69.9649z"/>
<path style="stroke:none; fill-rule:evenodd; fill:#000000" d="M 66.1675 57.5899L 68.9917 53.5001L 67.7183 53.5001L 65.562 56.8087L 63.4175 53.5001L 62.1206 53.5001L 64.898 57.5899L 61.937 61.8985L 63.2339 61.8985L 65.5269 58.4102L 67.812 61.8985L 69.1323 61.8985L 66.1675 57.5899z"/>
<path style="stroke:none; fill-rule:evenodd; fill:#000000" d="M 46.48 29.5974L 45.3823 29.5974L 45.3823 37.9964L 50.5816 37.9964L 50.5816 37.0974L 46.4839 37.0974L 46.48 29.5974z"/>
<path style="stroke:none; fill-rule:evenodd; fill:#000000" d="M 65.7769 40.0974L 68.5073 40.0974C 69.4488 40.0974 69.8706 40.5544 69.8706 41.5864L 69.8706 42.3284C 69.8706 42.8438 69.9566 43.3477 70.105 43.6915L 71.3667 43.6915L 71.3667 43.4298C 70.9722 43.1563 70.8941 42.8556 70.8706 41.7384C 70.8589 40.3594 70.6402 39.9414 69.7261 39.5504C 70.6831 39.0904 71.0698 38.5044 71.0698 37.5474C 71.0698 36.0974 70.1636 35.3004 68.523 35.3004L 64.6714 35.3004L 64.6714 43.6993L 65.7691 43.6993L 65.7769 40.0974zM 65.7144 39.1484L 65.7144 36.2694L 68.2964 36.2694C 68.8902 36.2694 69.2339 36.3594 69.4995 36.5904C 69.7847 36.8284 69.9331 37.2074 69.9331 37.7154C 69.9331 38.6994 69.4292 39.1484 68.2925 39.1484L 65.7144 39.1484z"/>
<path style="stroke:none; fill-rule:evenodd; fill:#ffffff" d="M 71.2769 75.7071L 98.07 75.7071L 98.07 52.7423L 71.2769 52.7423L 71.2769 75.7071z"/>
<path style="stroke:#000000; stroke-width:1.9139600000000001; fill:none" d="M 71.2769 75.7071L 98.07 75.7071L 98.07 52.7423L 71.2769 52.7423L 71.2769 75.7071z"/>
<path style="stroke:none; fill-rule:evenodd; fill:#000000" d="M 82.1792 67.6954L 85.9878 67.6954C 86.7847 67.6954 87.3745 67.4766 87.8277 66.9962C 88.2417 66.5587 88.4761 65.961 88.4761 65.3048C 88.4761 64.2931 88.0034 63.6798 86.9058 63.2696C 87.6714 62.9142 88.0777 62.2931 88.0777 61.4415C 88.0777 60.8321 87.8511 60.2931 87.4097 59.8985C 86.9722 59.4962 86.398 59.3126 85.5894 59.3126L 82.1792 59.3126L 82.1792 67.6954zM 83.2769 62.9962L 83.2769 60.1993L 85.3159 60.1993C 85.9058 60.1993 86.2339 60.2813 86.5152 60.5118C 86.8081 60.7501 86.9683 61.1134 86.9683 61.5977C 86.9683 62.0665 86.812 62.4415 86.5152 62.6837C 86.2339 62.9102 85.9058 62.9962 85.3159 62.9962L 83.2769 62.9962zM 83.2769 66.797L 83.2769 63.8985L 85.8745 63.8985C 86.3862 63.8985 86.73 64.0235 86.9839 64.3009C 87.2339 64.5665 87.3706 64.9337 87.3706 65.3516C 87.3706 65.754 87.2339 66.1251 86.9839 66.3868C 86.7339 66.6602 86.3902 66.7892 85.8745 66.7892L 83.2769 66.797z"/>
<path style="stroke:none; fill-rule:evenodd; fill:#000000" d="M 84.7769 41.0974L 83.6792 41.0974L 83.6792 49.4962L 88.8784 49.4962L 88.8784 48.5977L 84.7808 48.5977L 84.7769 41.0974z"/>
<path style="stroke:none; fill-rule:evenodd; fill:#ffffff" d="M 90.418 81.4493L 117.21 81.4493L 117.21 58.4845L 90.418 58.4845L 90.418 81.4493z"/>
<path style="stroke:#000000; stroke-width:1.9139600000000001; fill:none" d="M 90.418 81.4493L 117.21 81.4493L 117.21 58.4845L 90.418 58.4845L 90.418 81.4493z"/>
<path style="stroke:none; fill-rule:evenodd; fill:#000000" d="M 104.468 69.0899L 107.292 65.0001L 106.019 65.0001L 103.863 68.3087L 101.718 65.0001L 100.421 65.0001L 103.199 69.0899L 100.238 73.3985L 101.535 73.3985L 103.828 69.9102L 106.113 73.3985L 107.433 73.3985L 104.468 69.0899z"/>
<path style="stroke:none; fill-rule:evenodd; fill:#000000" d="M 103.878 46.797L 102.781 46.797L 102.781 55.1954L 107.98 55.1954L 107.98 54.297L 103.882 54.297L 103.878 46.797z"/>
<path style="stroke:none; fill-rule:evenodd; fill:#ffffff" d="M 109.558 87.1915L 136.351 87.1915L 136.351 64.2266L 109.558 64.2266L 109.558 87.1915z"/>
<path style="stroke:#000000; stroke-width:1.9139600000000001; fill:none" d="M 109.558 87.1915L 136.351 87.1915L 136.351 64.2266L 109.558 64.2266L 109.558 87.1915z"/>
<path style="stroke:none; fill-rule:evenodd; fill:#000000" d="M 123.078 52.5977L 121.98 52.5977L 121.98 60.9962L 127.179 60.9962L 127.179 60.0977L 123.082 60.0977L 123.078 52.5977z"/>
<path style="stroke:none; fill-rule:evenodd; fill:#ffffff" d="M 128.695 92.9337L 155.488 92.9337L 155.488 69.9688L 128.695 69.9688L 128.695 92.9337z"/>
<path style="stroke:#000000; stroke-width:1.9139600000000001; fill:none" d="M 128.695 92.9337L 155.488 92.9337L 155.488 69.9688L 128.695 69.9688L 128.695 92.9337z"/>
<path style="stroke:none; fill-rule:evenodd; fill:#000000" d="M 139.679 84.8985L 143.488 84.8985C 144.285 84.8985 144.875 84.6798 145.328 84.1993C 145.742 83.7618 145.976 83.1642 145.976 82.5079C 145.976 81.4962 145.503 80.8829 144.406 80.4727C 145.171 80.1173 145.578 79.4962 145.578 78.6446C 145.578 78.0352 145.351 77.4962 144.91 77.1016C 144.472 76.6993 143.898 76.5157 143.089 76.5157L 139.679 76.5157L 139.679 84.8985zM 140.777 80.1954L 140.777 77.3985L 142.816 77.3985C 143.406 77.3985 143.734 77.4806 144.015 77.711C 144.308 77.9493 144.468 78.3126 144.468 78.797C 144.468 79.2657 144.312 79.6407 144.015 79.8829C 143.734 80.1095 143.406 80.1954 142.816 80.1954L 140.777 80.1954zM 140.777 83.9962L 140.777 81.0977L 143.375 81.0977C 143.886 81.0977 144.23 81.2227 144.484 81.5001C 144.734 81.7657 144.871 82.1329 144.871 82.5509C 144.871 82.9532 144.734 83.3243 144.484 83.586C 144.234 83.8595 143.89 83.9884 143.375 83.9884L 140.777 83.9962z"/>
<path style="stroke:none; fill-rule:evenodd; fill:#000000" d="M 142.179 58.297L 141.082 58.297L 141.082 66.6954L 146.281 66.6954L 146.281 65.797L 142.183 65.797L 142.179 58.297z"/>
<path style="stroke:none; fill-rule:evenodd; fill:#000000" d="M 125.918 78.0977L 121.613 78.0977C 121.714 77.4376 122.085 77.0157 123.089 76.4337L 124.242 75.8204C 125.382 75.2071 125.972 74.3712 125.972 73.379C 125.972 72.7071 125.695 72.0782 125.21 71.6446C 124.726 71.211 124.125 71.0079 123.351 71.0079C 122.316 71.0079 121.539 71.3673 121.089 72.047C 120.804 72.4766 120.675 72.9727 120.652 73.7852L 121.675 73.7852C 121.707 73.254 121.777 72.9298 121.918 72.672C 122.183 72.1954 122.718 71.9063 123.339 71.9063C 124.269 71.9063 124.968 72.5548 124.968 73.4181C 124.968 74.0548 124.585 74.6016 123.851 75.0118L 122.781 75.6016C 121.058 76.5548 120.558 77.3204 120.464 79.0977L 125.914 79.0977L 125.918 78.0977z"/>
<path style="stroke:none; fill-rule:evenodd; fill:#ffffff" d="M 147.835 98.6759L 174.628 98.6759L 174.628 75.711L 147.835 75.711L 147.835 98.6759z"/>
<path style="stroke:#000000; stroke-width:1.9139600000000001; fill:none" d="M 147.835 98.6759L 174.628 98.6759L 174.628 75.711L 147.835 75.711L 147.835 98.6759z"/>
<path style="stroke:none; fill-rule:evenodd; fill:#000000" d="M 161.48 68.797L 164.21 68.797C 165.152 68.797 165.574 69.254 165.574 70.2852L 165.574 71.0274C 165.574 71.5431 165.66 72.047 165.808 72.3907L 167.07 72.3907L 167.07 72.129C 166.675 71.8556 166.597 71.5548 166.574 70.4376C 166.562 69.0587 166.343 68.6407 165.429 68.2501C 166.386 67.7892 166.773 67.2032 166.773 66.2462C 166.773 64.797 165.867 64.0001 164.226 64.0001L 160.375 64.0001L 160.375 72.3985L 161.472 72.3985L 161.48 68.797zM 161.414 67.8477L 161.414 64.9688L 163.996 64.9688C 164.589 64.9688 164.933 65.0587 165.199 65.2892C 165.484 65.5274 165.632 65.9063 165.632 66.4142C 165.632 67.3985 165.128 67.8477 163.992 67.8477L 161.414 67.8477z"/>
<path style="stroke:none; fill-rule:evenodd; fill:#000000" d="M 161.878 87.3009L 164.968 82.1993L 163.695 82.1993L 161.308 86.3009L 158.855 82.1993L 157.535 82.1993L 160.785 87.3009L 160.785 90.5938L 161.882 90.5938L 161.878 87.3009z"/>
<path style="stroke:none; fill-rule:evenodd; fill:#000000" d="M 65.7105 83.5821L 64.7691 83.297L 65.2456 81.7149L 64.3355 81.4415L 63.8589 83.0235L 63.0816 82.7892L 62.8589 83.5352L 63.6362 83.7696L 62.3198 88.1212C 62.1441 88.7032 62.437 89.1524 63.1519 89.3673C 63.3706 89.4298 63.5972 89.4766 63.9214 89.5157L 64.1519 88.7462C 64.023 88.7423 63.8784 88.711 63.7027 88.6602C 63.3081 88.5431 63.2339 88.3985 63.355 87.9923L 64.5464 84.047L 65.4878 84.3321L 65.7105 83.5821z"/>
<path style="stroke:none; fill-rule:evenodd; fill:#000000" d="M 67.5698 84.1368L 66.6597 83.8634L 64.9175 89.6212L 65.8277 89.8946L 67.5698 84.1368zM 68.2495 81.8829L 67.3277 81.6056L 66.98 82.7579L 67.9019 83.0352L 68.2495 81.8829z"/>
<path style="stroke:none; fill-rule:evenodd; fill:#000000" d="M 69.1909 84.672L 67.4488 90.4298L 68.3706 90.7071L 69.4644 87.0938C 69.7144 86.2618 70.523 85.7735 71.2691 86.0001C 71.9488 86.2032 72.2066 86.7384 71.9839 87.4766L 70.7847 91.4415L 71.7066 91.7188L 72.8003 88.1056C 73.0503 87.2735 73.8589 86.7852 74.605 87.0118C 75.273 87.211 75.5386 87.7618 75.3198 88.4884L 74.1206 92.4532L 75.0425 92.7306L 76.3472 88.4142C 76.6597 87.3829 76.2417 86.6329 75.1636 86.3048C 74.398 86.0743 73.8628 86.1642 73.1284 86.6485C 72.9761 85.9298 72.5933 85.5274 71.8472 85.3009C 71.0816 85.0704 70.4878 85.2032 69.7847 85.7423L 70.0269 84.9298L 69.1909 84.672z"/>
<path style="stroke:none; fill-rule:evenodd; fill:#000000" d="M 82.1948 92.1329C 82.4605 91.254 82.5542 90.7071 82.5191 90.2306C 82.4331 89.1759 81.7261 88.336 80.6519 88.0118C 79.0503 87.5274 77.6441 88.4415 77.0698 90.3321C 76.4995 92.2227 77.1441 93.6876 78.7612 94.1759C 80.0777 94.5743 81.2144 94.1056 81.8277 92.922L 80.9058 92.6446C 80.4253 93.3243 79.7886 93.5626 79.0542 93.3399C 78.4722 93.1642 78.0581 92.7501 77.898 92.1759C 77.7808 91.7813 77.8042 91.4259 77.9605 90.8556L 82.1948 92.1329zM 78.1988 90.1056C 78.5972 89.0626 79.4527 88.5704 80.3784 88.8477C 81.2769 89.1173 81.7456 90.0743 81.4566 91.0196C 81.4527 91.0392 81.4448 91.0626 81.4292 91.0782L 78.1988 90.1056z"/>
<path style="stroke:#000000; stroke-width:1.9139600000000001; fill:none" d="M 10.0308 60.3985L 163.144 106.332"/>
<path style="stroke:#000000; stroke-width:1.9139600000000001; fill:none" d="M 156.367 102.301L 163.148 106.332L 155.269 105.969"/>
<path style="stroke:#000000; stroke-width:0.95698000000000005; fill:none" d="M 23.398 12.6644L 23.398 5.01538L 117.097 33.6994L 117.097 41.3474"/>
<path style="stroke:#000000; stroke-width:0.95698000000000005; fill:none" d="M 38.6988 29.8714L 38.6988 22.2224L 76.9409 33.6954L 76.9409 41.3434"/>
<path style="stroke:#000000; stroke-width:0.95698000000000005; fill:none" d="M 78.8628 41.3404L 78.8628 33.6914L 117.105 45.1642L 117.105 52.8126"/>
<path style="stroke:none; fill-rule:evenodd; fill:#000000" d="M 51.3862 4.00438C 49.7769 3.50737 48.4448 4.35538 47.8472 6.28537C 47.2534 8.21538 47.8589 9.66437 49.4956 10.1684C 51.105 10.6644 52.4488 9.82037 53.0308 7.93338C 53.6402 5.94937 53.0386 4.51137 51.3862 4.00438zM 51.1362 4.85138C 52.1675 5.16838 52.5191 6.20337 52.0816 7.62938C 51.6675 8.97638 50.7652 9.63637 49.7573 9.32437C 48.7378 9.01137 48.3745 7.97237 48.8042 6.58237C 49.23 5.19937 50.1167 4.53937 51.1402 4.85138L 51.1362 4.85138z"/>
<path style="stroke:none; fill-rule:evenodd; fill:#000000" d="M 57.9683 12.5274L 59.7378 6.77737L 58.8277 6.50037L 57.8238 9.75737C 57.4644 10.9294 56.6128 11.5074 55.6558 11.2154C 54.9331 10.9924 54.6089 10.4144 54.8198 9.72237L 56.0738 5.65237L 55.1636 5.37537L 53.8003 9.80437C 53.5073 10.7574 54.0269 11.5904 55.148 11.9374C 55.9917 12.1954 56.6206 12.0664 57.3902 11.4764L 57.1441 12.2774L 57.9683 12.5274z"/>
<path style="stroke:none; fill-rule:evenodd; fill:#000000" d="M 63.3394 7.90637L 62.398 7.61737L 62.8823 6.03937L 61.9722 5.76137L 61.4878 7.34038L 60.7105 7.10138L 60.4839 7.84337L 61.2612 8.08237L 59.9214 12.4254C 59.7456 13.0044 60.0347 13.4574 60.7456 13.6754C 60.9644 13.7424 61.1909 13.7854 61.5152 13.8284L 61.7495 13.0624C 61.6206 13.0584 61.4761 13.0274 61.3003 12.9724C 60.9058 12.8554 60.8316 12.7114 60.9566 12.3044L 62.1714 8.36737L 63.1128 8.65637L 63.3394 7.90637z"/>
<path style="stroke:none; fill-rule:evenodd; fill:#000000" d="M 68.1988 12.8674C 68.4683 11.9924 68.562 11.4454 68.5308 10.9654C 68.4527 9.90637 67.7495 9.06638 66.6753 8.73438C 65.0738 8.24237 63.6636 9.14838 63.0816 11.0354C 62.5034 12.9224 63.1362 14.3904 64.7495 14.8904C 66.0659 15.2934 67.2066 14.8324 67.8198 13.6524L 66.898 13.3714C 66.4136 14.0474 65.7769 14.2854 65.0425 14.0584C 64.4644 13.8794 64.0503 13.4654 63.8902 12.8864C 63.773 12.4924 63.8003 12.1364 63.9605 11.5664L 68.1988 12.8674zM 64.2144 10.8204C 64.6167 9.78137 65.48 9.28937 66.4019 9.57437C 67.3003 9.85138 67.7612 10.8084 67.4683 11.7544C 67.4644 11.7734 67.4566 11.7974 67.4409 11.8124L 64.2144 10.8204z"/>
<path style="stroke:none; fill-rule:evenodd; fill:#000000" d="M 70.4097 10.0824L 68.6402 15.8324L 69.562 16.1134L 70.48 13.1294C 70.7339 12.3084 71.105 11.8364 71.6441 11.6524C 71.9917 11.5354 72.2847 11.5504 72.9253 11.7344L 73.2105 10.8044C 73.0659 10.7384 72.9917 10.7034 72.8706 10.6644C 72.2808 10.4844 71.7222 10.6914 70.9292 11.3864L 71.2495 10.3434L 70.4097 10.0824z"/>
<path style="stroke:none; fill-rule:evenodd; fill:#000000" d="M 78.7144 10.2114L 77.7925 9.92937L 75.3277 17.9294L 76.2495 18.2114L 78.7144 10.2114z"/>
<path style="stroke:none; fill-rule:evenodd; fill:#000000" d="M 81.8862 13.4024C 80.2769 12.9064 78.9448 13.7544 78.3472 15.6834C 77.7534 17.6134 78.3589 19.0624 79.9956 19.5664C 81.605 20.0624 82.9488 19.2184 83.5308 17.3324C 84.1402 15.3474 83.5386 13.9104 81.8862 13.4024zM 81.6362 14.2504C 82.6675 14.5664 83.0191 15.6014 82.5816 17.0274C 82.1675 18.3754 81.2652 19.0354 80.2573 18.7224C 79.2378 18.4104 78.8745 17.3714 79.3042 15.9804C 79.73 14.5974 80.6167 13.9374 81.6402 14.2504L 81.6362 14.2504z"/>
<path style="stroke:none; fill-rule:evenodd; fill:#000000" d="M 87.9878 15.3044C 86.3784 14.8084 85.0464 15.6564 84.4488 17.5864C 83.855 19.5154 84.4605 20.9654 86.0972 21.4684C 87.7066 21.9654 89.05 21.1214 89.632 19.2344C 90.242 17.2504 89.64 15.8124 87.9878 15.3044zM 87.7378 16.1524C 88.7691 16.4684 89.121 17.5044 88.6831 18.9294C 88.2691 20.2774 87.3667 20.9374 86.3589 20.6254C 85.3394 20.3124 84.9761 19.2734 85.4058 17.8834C 85.8316 16.5004 86.7183 15.8404 87.7417 16.1524L 87.7378 16.1524z"/>
<path style="stroke:none; fill-rule:evenodd; fill:#000000" d="M 89.132 24.7734L 90.054 25.0544L 90.976 22.0624C 91.273 22.8004 91.73 23.2304 92.476 23.4614C 93.957 23.9144 95.3 23.0234 95.867 21.1914C 96.46 19.2614 95.89 17.7614 94.367 17.2934C 93.589 17.0544 92.855 17.2154 92.218 17.7574L 92.484 16.8944L 91.64 16.6364L 89.132 24.7734zM 93.957 18.0974C 94.964 18.4064 95.347 19.5004 94.925 20.8714C 94.523 22.1754 93.582 22.8554 92.582 22.5504C 91.617 22.2544 91.253 21.1794 91.668 19.8324C 92.082 18.4844 92.988 17.8004 93.953 18.1014L 93.957 18.0974z"/>
<path style="stroke:none; fill-rule:evenodd; fill:#000000" d="M 46.2573 15.5274L 45.3472 15.2544L 43.6206 21.0154L 44.5308 21.2894L 46.2573 15.5274zM 46.9331 13.2734L 46.0112 13.0004L 45.6675 14.1524L 46.5894 14.4254L 46.9331 13.2734z"/>
<path style="stroke:none; fill-rule:evenodd; fill:#000000" d="M 47.7769 16.0664L 46.0503 21.8284L 46.9722 22.1014L 47.9253 18.9254C 48.2769 17.7504 49.1245 17.1644 50.0698 17.4494C 50.7925 17.6644 51.1245 18.2424 50.9175 18.9374L 49.7222 22.9294L 50.6323 23.2034L 51.937 18.8514C 52.2222 17.8984 51.6948 17.0664 50.5855 16.7344C 49.73 16.4804 49.0816 16.6444 48.3316 17.2934L 48.6206 16.3284L 47.7769 16.0664z"/>
<path style="stroke:none; fill-rule:evenodd; fill:#000000" d="M 53.98 17.8674L 52.2534 23.6294L 53.1753 23.9024L 54.1284 20.7264C 54.48 19.5504 55.3277 18.9654 56.273 19.2504C 56.9956 19.4654 57.3277 20.0434 57.1206 20.7384L 55.9253 24.7304L 56.8355 25.0044L 58.1402 20.6524C 58.4253 19.6994 57.898 18.8674 56.7886 18.5354C 55.9331 18.2814 55.2847 18.4454 54.5347 19.0934L 54.8238 18.1294L 53.98 17.8674z"/>
<path style="stroke:none; fill-rule:evenodd; fill:#000000" d="M 63.9917 24.3164C 64.2534 23.4374 64.3472 22.8904 64.3081 22.4144C 64.2183 21.3594 63.5112 20.5234 62.4331 20.1994C 60.8277 19.7184 59.4253 20.6364 58.8589 22.5274C 58.2925 24.4184 58.9409 25.8834 60.5581 26.3674C 61.8745 26.7614 63.0112 26.2934 63.6206 25.1054L 62.6988 24.8324C 62.2183 25.5114 61.5855 25.7544 60.8472 25.5314C 60.2652 25.3594 59.8511 24.9454 59.687 24.3714C 59.5698 23.9764 59.5894 23.6254 59.7456 23.0504L 63.9917 24.3164zM 59.9956 22.3004C 60.3902 21.2574 61.2495 20.7614 62.1714 21.0394C 63.0698 21.3084 63.5386 22.2654 63.2573 23.2114C 63.2534 23.2304 63.2456 23.2544 63.23 23.2734L 59.9956 22.3004z"/>
<path style="stroke:none; fill-rule:evenodd; fill:#000000" d="M 66.1675 21.5624L 64.4409 27.3244L 65.3628 27.5974L 66.2573 24.6094C 66.5034 23.7854 66.8745 23.3084 67.4097 23.1254C 67.7573 23.0044 68.0503 23.0194 68.6909 23.1954L 68.9683 22.2614C 68.8238 22.1954 68.7495 22.1604 68.6284 22.1254C 68.0347 21.9494 67.48 22.1604 66.6948 22.8594L 67.0073 21.8164L 66.1675 21.5624z"/>
<path style="stroke:none; fill-rule:evenodd; fill:#000000" d="M 74.4566 21.5824L 73.5347 21.3084L 71.1323 29.3244L 72.0542 29.5974L 74.4566 21.5824z"/>
<path style="stroke:none; fill-rule:evenodd; fill:#000000" d="M 77.648 24.7654C 76.0347 24.2814 74.7066 25.1404 74.1284 27.0744C 73.5503 29.0074 74.1675 30.4534 75.8042 30.9454C 77.4175 31.4294 78.7534 30.5744 79.3238 28.6834C 79.9175 26.6954 79.3081 25.2614 77.648 24.7654zM 77.4058 25.6174C 78.437 25.9254 78.8003 26.9574 78.3706 28.3864C 77.9683 29.7384 77.0698 30.4064 76.0581 30.1014C 75.0386 29.7974 74.6636 28.7614 75.0855 27.3634C 75.4995 25.9804 76.3823 25.3084 77.4058 25.6174z"/>
<path style="stroke:none; fill-rule:evenodd; fill:#000000" d="M 83.7495 26.6684C 82.1362 26.1834 80.8081 27.0434 80.23 28.9764C 79.6519 30.9104 80.2691 32.3554 81.9058 32.8474C 83.5191 33.3324 84.855 32.4764 85.4253 30.5864C 86.0191 28.5974 85.4097 27.1644 83.7495 26.6684zM 83.5073 27.5154C 84.5386 27.8244 84.9019 28.8554 84.4722 30.2854C 84.0698 31.6364 83.1714 32.3044 82.1597 32.0004C 81.1402 31.6954 80.7652 30.6604 81.187 29.2614C 81.6011 27.8794 82.4839 27.2074 83.5073 27.5154z"/>
<path style="stroke:none; fill-rule:evenodd; fill:#000000" d="M 84.9527 36.0744L 85.8745 36.3474L 86.773 33.3474C 87.0777 34.0864 87.5347 34.5114 88.2847 34.7344C 89.769 35.1794 91.105 34.2774 91.66 32.4414C 92.238 30.5074 91.66 29.0154 90.132 28.5544C 89.355 28.3244 88.6206 28.4844 87.9878 29.0354L 88.2456 28.1684L 87.4019 27.9144L 84.9527 36.0744zM 89.722 29.3634C 90.734 29.6644 91.125 30.7544 90.71 32.1294C 90.32 33.4374 89.382 34.1254 88.3823 33.8244C 87.4175 33.5354 87.0425 32.4654 87.4488 31.1094C 87.8511 29.7574 88.7534 29.0704 89.722 29.3594L 89.722 29.3634z"/>
<path style="stroke:none; fill-rule:evenodd; fill:#000000" d="M 97.242 32.5864C 97.57 31.4534 97.015 30.5904 95.687 30.1914C 94.347 29.7934 93.269 30.2184 92.949 31.2854C 92.679 32.1834 93.011 32.7544 94.273 33.4924L 95.066 33.9574C 95.656 34.3004 95.839 34.6054 95.714 35.0234C 95.554 35.5584 94.906 35.7614 94.105 35.5194C 93.613 35.3754 93.238 35.1054 93.078 34.7934C 92.988 34.5864 92.968 34.4024 93.035 33.9804L 92.07 33.6914C 91.718 35.0354 92.269 35.8944 93.777 36.3474C 95.226 36.7814 96.367 36.3474 96.699 35.2384C 96.953 34.3834 96.617 33.7654 95.554 33.1444L 94.738 32.6724C 94.046 32.2734 93.8 31.9374 93.921 31.5274C 94.078 31.0004 94.652 30.8004 95.402 31.0274C 96.136 31.2464 96.437 31.6834 96.277 32.2974L 97.242 32.5864z"/>
</g>
</svg>