<?xml version="1.0" encoding="ISO-8859-1" standalone="yes"?>
<svg width="199.183" height="98.6558">
  <defs> 
    <marker id="ArrowEnd" viewBox="0 0 10 10" refX="0" refY="5" 
     markerUnits="strokeWidth" 
     markerWidth="4" 
     markerHeight="3" 
     orient="auto"> 
        <path d="M 0 0 L 10 5 L 0 10 z" /> 
    </marker>
    <marker id="ArrowStart" viewBox="0 0 10 10" refX="10" refY="5" 
     markerUnits="strokeWidth" 
     markerWidth="4" 
     markerHeight="3" 
     orient="auto"> 
        <path d="M 10 0 L 0 5 L 10 10 z" /> 
    </marker> </defs>
<g>
<path style="stroke:none; fill-rule:evenodd; fill:#ffffff" d="M 14.4097 35.664L 41.2027 35.664L 41.2027 12.699L 14.4097 12.699L 14.4097 35.664z"/>
<path style="stroke:#000000; stroke-width:1.9139600000000001; fill:none" d="M 14.4097 35.664L 41.2027 35.664L 41.2027 12.699L 14.4097 12.699L 14.4097 35.664z"/>
<path style="stroke:none; fill-rule:evenodd; fill:#ffffff" d="M 33.5503 40.39L 60.3433 40.39L 60.3433 17.426L 33.5503 17.426L 33.5503 40.39z"/>
<path style="stroke:#000000; stroke-width:1.9139600000000001; fill:none" d="M 33.5503 40.39L 60.3433 40.39L 60.3433 17.426L 33.5503 17.426L 33.5503 40.39z"/>
<path style="stroke:none; fill-rule:evenodd; fill:#ffffff" d="M 52.1519 47.09L 78.9448 47.09L 78.9448 24.125L 52.1519 24.125L 52.1519 47.09z"/>
<path style="stroke:#000000; stroke-width:1.9139600000000001; fill:none" d="M 52.1519 47.09L 78.9448 47.09L 78.9448 24.125L 52.1519 24.125L 52.1519 47.09z"/>
<path style="stroke:none; fill-rule:evenodd; fill:#ff0000" d="M 69.2028 28.699L 66.0148 28.699L 66.0148 28.996C 66.7378 29.019 66.9528 29.113 66.9528 29.422C 66.9528 29.621 66.8078 29.859 66.4178 30.34L 64.9058 32.179L 64.3433 31.39C 63.5269 30.254 63.2066 29.679 63.2066 29.383C 63.2066 29.117 63.4058 29.008 63.8472 28.996L 64.2222 28.996L 64.2222 28.699L 60.1792 28.699L 60.1792 28.996C 61.0464 29.035 61.2886 29.234 62.6011 31.082L 64.0581 33.207L 61.9566 35.773C 60.7652 37.179 60.6988 37.234 60.0152 37.289L 60.0152 37.586L 63.1324 37.586L 63.1324 37.289C 62.3589 37.238 62.1167 37.133 62.1167 36.828C 62.1167 36.633 62.316 36.301 62.812 35.691L 64.4058 33.734L 65.6753 35.597C 66.1168 36.25 66.3548 36.703 66.3548 36.902C 66.3548 37.14 66.1438 37.273 65.687 37.285C 65.6363 37.285 65.4878 37.285 65.3277 37.285L 65.3277 37.582L 69.3038 37.582L 69.3038 37.285C 68.5968 37.207 68.3938 37.074 67.8198 36.304L 65.2496 32.664L 67.2028 30.246C 68.0698 29.211 68.3398 29.051 69.1948 28.996L 69.2028 28.699z"/>
<path style="stroke:none; fill-rule:evenodd; fill:#000000" d="M 70.5778 17.601L 73.3078 17.601C 74.2498 17.601 74.6718 18.058 74.6718 19.09L 74.6718 19.832C 74.6718 20.347 74.7578 20.851 74.9058 21.195L 76.1678 21.195L 76.1678 20.933C 75.7728 20.66 75.6948 20.359 75.6718 19.242C 75.6598 17.863 75.4408 17.445 74.5268 17.054C 75.4838 16.594 75.8708 16.008 75.8708 15.051C 75.8708 13.601 74.9648 12.804 73.3238 12.804L 69.4718 12.804L 69.4718 21.203L 70.5698 21.203L 70.5778 17.601zM 70.5148 16.652L 70.5148 13.773L 73.0968 13.773C 73.6908 13.773 74.0348 13.863 74.3008 14.094C 74.5858 14.332 74.7338 14.711 74.7338 15.219C 74.7338 16.203 74.2298 16.652 73.0928 16.652L 70.5148 16.652z"/>
<path style="stroke:none; fill-rule:evenodd; fill:#ffffff" d="M 71.2928 52.832L 98.0858 52.832L 98.0858 29.867L 71.2928 29.867L 71.2928 52.832z"/>
<path style="stroke:#000000; stroke-width:1.9139600000000001; fill:none" d="M 71.2928 52.832L 98.0858 52.832L 98.0858 29.867L 71.2928 29.867L 71.2928 52.832z"/>
<path style="stroke:none; fill-rule:evenodd; fill:#ff0000" d="M 79.4058 35.101L 79.4058 35.398C 80.5148 35.465 80.6758 35.609 80.6758 36.594L 80.6758 42.496C 80.6758 43.476 80.5038 43.652 79.4058 43.691L 79.4058 43.988L 83.8508 43.988C 84.8858 43.988 85.8318 43.707 86.3278 43.25C 86.8038 42.82 87.0698 42.219 87.0698 41.57C 87.0698 40.98 86.8358 40.441 86.4288 40.054C 86.0388 39.695 85.6828 39.531 84.8278 39.316C 85.5268 39.144 85.8078 39.008 86.1328 38.726C 86.4688 38.433 86.6678 37.933 86.6678 37.383C 86.6678 35.879 85.4758 35.097 83.1518 35.097L 79.4058 35.101zM 82.0778 39.633C 83.3668 39.633 83.9798 39.699 84.4568 39.898C 85.2148 40.219 85.5738 40.754 85.5738 41.597C 85.5738 42.316 85.2968 42.84 84.7648 43.148C 84.3398 43.387 83.7968 43.496 82.9178 43.496C 82.2688 43.496 82.0818 43.379 82.0818 42.949L 82.0778 39.633zM 82.0778 39.097L 82.0778 36.008C 82.0778 35.726 82.1678 35.605 82.3668 35.605L 82.9448 35.605C 84.4648 35.605 85.2688 36.25 85.2688 37.453C 85.2688 38.504 84.5698 39.097 83.3278 39.097L 82.0778 39.097z"/>
<path style="stroke:none; fill-rule:evenodd; fill:#ffffff" d="M 90.4328 58.574L 117.226 58.574L 117.226 35.609L 90.4328 35.609L 90.4328 58.574z"/>
<path style="stroke:#000000; stroke-width:1.9139600000000001; fill:none" d="M 90.4328 58.574L 117.226 58.574L 117.226 35.609L 90.4328 35.609L 90.4328 58.574z"/>
<path style="stroke:none; fill-rule:evenodd; fill:#ff0000" d="M 107.105 40.5L 103.918 40.5L 103.918 40.797C 104.64 40.82 104.855 40.914 104.855 41.222C 104.855 41.422 104.711 41.66 104.32 42.14L 102.808 43.98L 102.246 43.191C 101.429 42.054 101.109 41.48 101.109 41.183C 101.109 40.918 101.308 40.808 101.75 40.797L 102.125 40.797L 102.125 40.5L 98.0818 40.5L 98.0818 40.797C 98.9488 40.836 99.1908 41.035 100.504 42.883L 101.961 45.008L 99.8588 47.574C 98.6678 48.98 98.6008 49.035 97.9178 49.09L 97.9178 49.387L 101.035 49.387L 101.035 49.09C 100.261 49.039 100.019 48.933 100.019 48.629C 100.019 48.433 100.219 48.101 100.715 47.492L 102.308 45.535L 103.578 47.398C 104.019 48.051 104.258 48.504 104.258 48.703C 104.258 48.941 104.047 49.074 103.59 49.086C 103.539 49.086 103.39 49.086 103.23 49.086L 103.23 49.383L 107.207 49.383L 107.207 49.086C 106.5 49.008 106.297 48.875 105.722 48.105L 103.152 44.465L 105.105 42.047C 105.972 41.011 106.242 40.851 107.097 40.797L 107.105 40.5z"/>
<path style="stroke:none; fill-rule:evenodd; fill:#ffffff" d="M 109.574 64.316L 136.367 64.316L 136.367 41.351L 109.574 41.351L 109.574 64.316z"/>
<path style="stroke:#000000; stroke-width:1.9139600000000001; fill:none" d="M 109.574 64.316L 136.367 64.316L 136.367 41.351L 109.574 41.351L 109.574 64.316z"/>
<path style="stroke:none; fill-rule:evenodd; fill:#ffffff" d="M 128.711 70.058L 155.504 70.058L 155.504 47.094L 128.711 47.094L 128.711 70.058z"/>
<path style="stroke:#000000; stroke-width:1.9139600000000001; fill:none" d="M 128.711 70.058L 155.504 70.058L 155.504 47.094L 128.711 47.094L 128.711 70.058z"/>
<path style="stroke:none; fill-rule:evenodd; fill:#000000" d="M 67.1678 57.566L 66.0658 57.234L 66.6248 55.39L 65.562 55.07L 65.0035 56.914L 64.0933 56.64L 63.8316 57.511L 64.7417 57.785L 63.2066 62.863C 63.0035 63.539 63.3433 64.066 64.1792 64.316C 64.4331 64.39 64.6988 64.445 65.0777 64.488L 65.3472 63.594C 65.1949 63.59 65.0269 63.554 64.8199 63.492C 64.3589 63.355 64.2691 63.187 64.4136 62.715L 65.8038 58.113L 66.9058 58.445L 67.1678 57.566z"/>
<path style="stroke:none; fill-rule:evenodd; fill:#000000" d="M 69.4368 58.261L 68.3748 57.941L 66.3428 64.66L 67.4058 64.98L 69.4368 58.261zM 70.2298 55.637L 69.1558 55.312L 68.7498 56.656L 69.8238 56.98L 70.2298 55.637z"/>
<path style="stroke:none; fill-rule:evenodd; fill:#000000" d="M 71.2108 58.754L 69.1788 65.472L 70.2538 65.797L 71.5268 61.578C 71.8198 60.605 72.7608 60.035 73.6328 60.301C 74.4258 60.539 74.7258 61.164 74.4688 62.023L 73.0698 66.652L 74.1438 66.976L 75.4178 62.758C 75.7108 61.785 76.6518 61.215 77.5228 61.48C 78.3038 61.715 78.6128 62.355 78.3588 63.203L 76.9608 67.832L 78.0348 68.156L 79.5578 63.121C 79.9218 61.918 79.4328 61.043 78.1758 60.66C 77.2808 60.39 76.6598 60.496 75.8008 61.058C 75.6208 60.222 75.1758 59.75 74.3038 59.488C 73.4098 59.219 72.7188 59.375 71.8978 60.004L 72.1828 59.058L 71.2108 58.754z"/>
<path style="stroke:none; fill-rule:evenodd; fill:#000000" d="M 86.4648 67.488C 86.7728 66.465 86.8828 65.828 86.8428 65.265C 86.7418 64.031 85.9178 63.054 84.6638 62.676C 82.7928 62.113 81.1518 63.179 80.4838 65.387C 79.8198 67.59 80.5698 69.304 82.4568 69.871C 83.9918 70.336 85.3198 69.789 86.0348 68.406L 84.9608 68.082C 84.3978 68.875 83.6558 69.156 82.8008 68.894C 82.1208 68.691 81.6398 68.207 81.4488 67.535C 81.3118 67.074 81.3398 66.664 81.5228 65.992L 86.4648 67.488zM 81.8038 65.129C 82.2688 63.914 83.2688 63.336 84.3468 63.66C 85.3978 63.976 85.9408 65.094 85.6088 66.195C 85.6048 66.219 85.5968 66.246 85.5738 66.265L 81.8038 65.129z"/>
<path style="stroke:none; fill-rule:evenodd; fill:#ff0000" d="M 125.039 53.601C 124.437 53.562 124.304 53.429 123.836 52.449L 120.5 44.906L 120.234 44.906L 117.449 51.426C 116.593 53.363 116.433 53.574 115.789 53.601L 115.789 53.898L 118.441 53.898L 118.441 53.601C 117.801 53.601 117.531 53.433 117.531 53.062C 117.531 52.906 117.57 52.722 117.636 52.551L 118.25 51.008L 121.758 51.008L 122.304 52.273C 122.465 52.629 122.558 52.972 122.558 53.156C 122.558 53.484 122.332 53.59 121.621 53.601L 121.621 53.898L 125.035 53.898L 125.039 53.601zM 118.472 50.5L 120.011 46.773L 121.562 50.5L 118.472 50.5z"/>
<path style="stroke:none; fill-rule:evenodd; fill:#000000" d="M 181.679 46.902L 180.582 46.902L 180.582 55.301L 185.781 55.301L 185.781 54.402L 181.683 54.402L 181.679 46.902z"/>
<path style="stroke:none; fill-rule:evenodd; fill:#000000" d="M 43.5738 21.801L 41.1714 23.097L 41.1714 23.297C 41.3355 23.222 41.4878 23.156 41.5425 23.125C 41.7925 23.015 42.0269 22.953 42.1636 22.953C 42.4527 22.953 42.5777 23.152 42.5777 23.582L 42.5777 29.648C 42.5777 30.09 42.4683 30.398 42.2456 30.515C 42.0386 30.633 41.8433 30.676 41.2613 30.687L 41.2613 30.887L 44.9566 30.887L 44.9566 30.687C 43.8941 30.676 43.6792 30.543 43.6792 29.894L 43.6792 21.82L 43.5738 21.801z"/>
<path style="stroke:none; fill-rule:evenodd; fill:#000000" d="M 138.23 56.851C 139.011 56.851 139.316 56.875 139.636 56.996C 140.457 57.289 140.976 58.058 140.976 58.988C 140.976 60.117 140.219 60.992 139.234 60.992C 138.879 60.992 138.609 60.902 138.117 60.582C 137.719 60.344 137.492 60.254 137.265 60.254C 136.961 60.254 136.761 60.441 136.761 60.726C 136.761 61.199 137.336 61.496 138.269 61.496C 139.297 61.496 140.351 61.148 140.98 60.594C 141.621 60.043 141.98 59.261 141.98 58.359C 141.98 57.676 141.765 57.039 141.375 56.625C 141.105 56.332 140.851 56.168 140.258 55.914C 141.23 55.281 141.582 54.785 141.582 54.054C 141.582 52.965 140.715 52.211 139.465 52.211C 138.789 52.211 138.191 52.441 137.699 52.879C 137.293 53.246 137.09 53.601 136.789 54.422L 136.988 54.476C 137.539 53.469 138.144 53.011 138.996 53.011C 139.871 53.011 140.48 53.601 140.48 54.449C 140.48 54.933 140.277 55.418 139.937 55.754C 139.531 56.156 139.152 56.359 138.234 56.679L 138.23 56.851z"/>
<path style="stroke:none; fill-rule:evenodd; fill:#ffffff" d="M 147.851 75.801L 174.644 75.801L 174.644 52.836L 147.851 52.836L 147.851 75.801z"/>
<path style="stroke:#000000; stroke-width:1.9139600000000001; fill:none" d="M 147.851 75.801L 174.644 75.801L 174.644 52.836L 147.851 52.836L 147.851 75.801z"/>
<path style="stroke:none; fill-rule:evenodd; fill:#ffffff" d="M 162.359 81.601L 189.152 81.601L 189.152 58.637L 162.359 58.637L 162.359 81.601z"/>
<path style="stroke:#000000; stroke-width:1.9139600000000001; fill:none" d="M 162.359 81.601L 189.152 81.601L 189.152 58.637L 162.359 58.637L 162.359 81.601z"/>
<path style="stroke:none; fill-rule:evenodd; fill:#ff0000" d="M 181.398 66.101L 178.465 66.101L 178.465 66.398C 179.16 66.41 179.386 66.515 179.386 66.836C 179.386 66.969 179.32 67.129 179.203 67.328L 177.289 70.344L 175.308 67.371C 175.164 67.16 175.082 66.929 175.082 66.785C 175.082 66.547 175.269 66.426 175.695 66.398C 175.746 66.398 175.883 66.398 176.027 66.398L 176.027 66.101L 172.277 66.101L 172.277 66.398C 172.914 66.426 173.101 66.609 174.433 68.484L 176.176 71.035L 176.176 73.347C 176.176 74.504 176.047 74.637 174.843 74.687L 174.843 74.984L 178.941 74.984L 178.941 74.687C 177.761 74.664 177.578 74.504 177.578 73.492L 177.578 70.914L 179.551 67.91C 180.363 66.742 180.711 66.449 181.39 66.394L 181.398 66.101z"/>
<path style="stroke:none; fill-rule:evenodd; fill:#000000" d="M 160.144 63.765L 159.972 63.699C 159.48 64.476 159.304 64.597 158.703 64.597L 155.504 64.597L 157.761 62.222C 158.957 60.969 159.484 59.945 159.484 58.89C 159.484 57.543 158.394 56.504 157 56.504C 156.261 56.504 155.562 56.801 155.066 57.347C 154.636 57.808 154.437 58.242 154.207 59.211L 154.492 59.277C 155.035 57.941 155.527 57.504 156.465 57.504C 157.609 57.504 158.386 58.269 158.386 59.398C 158.386 60.445 157.761 61.695 156.617 62.894L 154.195 65.437L 154.195 65.597L 159.418 65.597L 160.144 63.765z"/>
<path style="stroke:#000000; stroke-width:1.9139600000000001; fill:none" d="M 10.0308 37.484L 178.328 88.625"/>
<path style="stroke:#000000; stroke-width:1.9139600000000001; fill:none" d="M 171.562 84.57L 178.328 88.625L 170.449 88.23"/>
<path style="stroke:none; fill-rule:evenodd; fill:#ff0000" d="M 30.0386 23.902C 29.437 23.863 29.3042 23.73 28.8355 22.75L 25.4996 15.207L 25.2339 15.207L 22.4488 21.726C 21.5933 23.664 21.4331 23.875 20.7886 23.902L 20.7886 24.199L 23.441 24.199L 23.441 23.902C 22.8003 23.902 22.5308 23.734 22.5308 23.363C 22.5308 23.207 22.5699 23.023 22.6363 22.851L 23.2496 21.308L 26.7574 21.308L 27.3042 22.574C 27.4644 22.929 27.5581 23.273 27.5581 23.457C 27.5581 23.785 27.3316 23.89 26.6206 23.902L 26.6206 24.199L 30.0347 24.199L 30.0386 23.902zM 23.4722 20.801L 25.0113 17.074L 26.562 20.801L 23.4722 20.801z"/>
<path style="stroke:none; fill-rule:evenodd; fill:#000000" d="M 108.679 23.601L 107.582 23.601L 107.582 32L 112.781 32L 112.781 31.101L 108.683 31.101L 108.679 23.601z"/>
<path style="stroke:none; fill-rule:evenodd; fill:#000000" d="M 164.879 40.301L 163.781 40.301L 163.781 48.699L 168.98 48.699L 168.98 47.801L 164.883 47.801L 164.879 40.301z"/>
<path style="stroke:none; fill-rule:evenodd; fill:#000000" d="M 147.48 34.801L 146.383 34.801L 146.383 43.199L 151.582 43.199L 151.582 42.301L 147.484 42.301L 147.48 34.801z"/>
<path style="stroke:none; fill-rule:evenodd; fill:#000000" d="M 125.679 29L 124.582 29L 124.582 37.398L 129.781 37.398L 129.781 36.5L 125.683 36.5L 125.679 29z"/>
<path style="stroke:none; fill-rule:evenodd; fill:#000000" d="M 89.3788 17.402L 88.2808 17.402L 88.2808 25.801L 93.4798 25.801L 93.4798 24.902L 89.3828 24.902L 89.3788 17.402z"/>
<path style="stroke:none; fill-rule:evenodd; fill:#000000" d="M 51.2808 5.80101L 50.1831 5.80101L 50.1831 14.199L 55.3824 14.199L 55.3824 13.301L 51.2847 13.301L 51.2808 5.80101z"/>
<path style="stroke:none; fill-rule:evenodd; fill:#000000" d="M 33.1792 0L 32.0816 0L 32.0816 8.39801L 37.2808 8.39801L 37.2808 7.5L 33.1831 7.5L 33.1792 0z"/>
</g>
</svg>