<?xml version="1.0" encoding="ISO-8859-1" standalone="yes"?>
<svg width="261.219" height="161.425">
  <defs> 
    <marker id="ArrowEnd" viewBox="0 0 10 10" refX="0" refY="5" 
     markerUnits="strokeWidth" 
     markerWidth="4" 
     markerHeight="3" 
     orient="auto"> 
        <path d="M 0 0 L 10 5 L 0 10 z" /> 
    </marker>
    <marker id="ArrowStart" viewBox="0 0 10 10" refX="10" refY="5" 
     markerUnits="strokeWidth" 
     markerWidth="4" 
     markerHeight="3" 
     orient="auto"> 
        <path d="M 10 0 L 0 5 L 10 10 z" /> 
    </marker> </defs>
<g>
<path style="stroke:#000000; stroke-dasharray:6,3; stroke-width:2.8699499999999998; fill:none" d="M 69.3394 82.0935L 126.738 15.1285"/>
<path style="stroke:none; fill-rule:evenodd; fill:#ffffff" d="M 94.2114 64.8745L 130.562 64.8745L 130.562 26.6086L 94.2114 26.6086L 94.2114 64.8745z"/>
<path style="stroke:#000000; stroke-width:1.9133; fill:none" d="M 94.2114 64.8745L 130.562 64.8745L 130.562 26.6086L 94.2114 26.6086L 94.2114 64.8745z"/>
<path style="stroke:none; fill-rule:evenodd; fill:#ffffff" d="M 130.566 64.8745L 166.918 64.8745L 166.918 26.6086L 130.566 26.6086L 130.566 64.8745z"/>
<path style="stroke:#000000; stroke-width:1.9133; fill:none" d="M 130.566 64.8745L 166.918 64.8745L 166.918 26.6086L 130.566 26.6086L 130.566 64.8745z"/>
<path style="stroke:#000000; stroke-dasharray:6,3; stroke-width:2.8699499999999998; fill:none" d="M 153.523 82.0935L 210.921 15.1285"/>
<path style="stroke:none; fill-rule:evenodd; fill:#ffffff" d="M 178.398 64.8745L 214.75 64.8745L 214.75 26.6086L 178.398 26.6086L 178.398 64.8745z"/>
<path style="stroke:#000000; stroke-width:1.9133; fill:none" d="M 178.398 64.8745L 214.75 64.8745L 214.75 26.6086L 178.398 26.6086L 178.398 64.8745z"/>
<path style="stroke:none; fill-rule:evenodd; fill:#ffffff" d="M 214.75 64.8745L 251.101 64.8745L 251.101 26.6086L 214.75 26.6086L 214.75 64.8745z"/>
<path style="stroke:#000000; stroke-width:1.9133; fill:none" d="M 214.75 64.8745L 251.101 64.8745L 251.101 26.6086L 214.75 26.6086L 214.75 64.8745z"/>
<path style="stroke:none; fill-rule:evenodd; fill:#000000" d="M 45.5234 132.355L 45.5234 138.12L 46.5234 138.12L 46.5234 130.023L 45.8554 130.023C 45.5 131.265 45.2695 131.437 43.6992 131.632L 43.6992 132.351L 45.5234 132.355z"/>
<path style="stroke:none; fill-rule:evenodd; fill:#000000" d="M 213.457 134.425L 214.011 134.425C 215.136 134.425 215.714 134.929 215.714 135.898C 215.714 136.913 215.082 137.519 214.019 137.519C 212.914 137.519 212.371 136.96 212.3 135.757L 211.285 135.757C 211.328 136.417 211.445 136.851 211.636 137.222C 212.046 138.011 212.851 138.417 213.961 138.417C 215.632 138.417 216.711 137.421 216.711 135.882C 216.711 134.851 216.312 134.277 215.343 133.945C 216.121 133.648 216.511 133.074 216.511 132.261C 216.511 130.863 215.578 130.027 214.019 130.027C 212.371 130.027 211.492 130.906 211.457 132.613L 212.48 132.613C 212.492 132.136 212.535 131.87 212.664 131.624C 212.894 131.191 213.406 130.925 214.05 130.925C 214.957 130.925 215.507 131.441 215.507 132.281C 215.507 132.839 215.296 133.175 214.832 133.355C 214.55 133.464 214.183 133.511 213.445 133.523L 213.457 134.425z"/>
<path style="stroke:none; fill-rule:evenodd; fill:#000000" d="M 132.464 137.124L 128.238 137.124C 128.339 136.464 128.703 136.042 129.687 135.46L 130.82 134.847C 131.941 134.234 132.519 133.398 132.519 132.406C 132.519 131.734 132.25 131.105 131.773 130.671C 131.3 130.238 130.711 130.034 129.949 130.034C 128.929 130.034 128.171 130.394 127.73 131.074C 127.449 131.503 127.324 131.999 127.3 132.816L 128.3 132.816C 128.332 132.284 128.402 131.96 128.539 131.702C 128.8 131.226 129.324 130.933 129.925 130.933C 130.835 130.933 131.519 131.581 131.519 132.449C 131.519 133.085 131.144 133.632 130.425 134.042L 129.378 134.632C 127.695 135.585 127.203 136.351 127.113 138.128L 132.464 138.128L 132.464 137.124z"/>
<path style="stroke:#000000; stroke-width:1.9133; fill:none" d="M 25.3554 149.046L 233.972 149.046"/>
<path style="stroke:#000000; stroke-width:1.9133; fill:none" d="M 226.324 147.132L 233.976 149.042L 226.324 150.952"/>
<path style="stroke:none; fill-rule:evenodd; fill:#000000" d="M 121.222 153.624L 123.925 153.624L 123.925 152.726L 117.363 152.726L 117.363 153.624L 120.121 153.624L 120.121 161.124L 121.218 161.124L 121.222 153.624z"/>
<path style="stroke:none; fill-rule:evenodd; fill:#000000" d="M 125.921 155.124L 124.921 155.124L 124.921 161.124L 125.921 161.124L 125.921 155.124zM 125.921 152.726L 124.921 152.726L 124.921 153.96L 125.921 153.96L 125.921 152.726z"/>
<path style="stroke:none; fill-rule:evenodd; fill:#000000" d="M 127.523 155.097L 127.523 161.12L 128.523 161.12L 128.523 157.312C 128.523 156.433 129.148 155.726 129.918 155.726C 130.621 155.726 131.019 156.163 131.019 156.941L 131.019 161.12L 132.019 161.12L 132.019 157.312C 132.019 156.433 132.644 155.726 133.414 155.726C 134.105 155.726 134.515 156.175 134.515 156.941L 134.515 161.12L 135.515 161.12L 135.515 156.601C 135.515 155.523 134.894 154.925 133.761 154.925C 132.957 154.925 132.468 155.167 131.906 155.855C 131.55 155.206 131.066 154.925 130.281 154.925C 129.476 154.925 128.945 155.222 128.425 155.945L 128.425 155.097L 127.523 155.097z"/>
<path style="stroke:none; fill-rule:evenodd; fill:#000000" d="M 142.222 158.425C 142.222 157.507 142.156 156.956 141.984 156.511C 141.597 155.527 140.683 154.929 139.566 154.929C 137.902 154.929 136.828 156.222 136.828 158.21C 136.828 160.199 137.863 161.425 139.539 161.425C 140.902 161.425 141.847 160.632 142.089 159.3L 141.136 159.3C 140.875 160.105 140.343 160.523 139.582 160.523C 138.98 160.523 138.468 160.245 138.152 159.73C 137.925 159.382 137.847 159.031 137.835 158.425L 142.222 158.425zM 137.8 157.659C 137.878 156.546 138.558 155.824 139.519 155.824C 140.457 155.824 141.183 156.601 141.183 157.589C 141.183 157.609 141.183 157.632 141.171 157.656L 137.8 157.659z"/>
<path style="stroke:none; fill-rule:evenodd; fill:#000000" d="M 27.7226 101.324L 33.5195 101.324L 33.5195 100.527L 27.7226 100.527L 27.7226 101.324z"/>
<path style="stroke:none; fill-rule:evenodd; fill:#000000" d="M 28.3203 105.456L 28.3203 111.222L 29.3203 111.222L 29.3203 103.124L 28.6523 103.124C 28.2968 104.367 28.0664 104.538 26.4961 104.734L 26.4961 105.452L 28.3203 105.456z"/>
<path style="stroke:none; fill-rule:evenodd; fill:#000000" d="M 69.7504 100.527L 67.4214 100.527L 67.4214 98.1868L 66.6254 98.1868L 66.6254 100.527L 64.1992 100.527L 64.1992 101.324L 66.6254 101.324L 66.6254 103.738L 67.4214 103.738L 67.4214 101.324L 69.7504 101.324L 69.7504 100.527z"/>
<path style="stroke:none; fill-rule:evenodd; fill:#000000" d="M 64.7226 105.456L 64.7226 111.222L 65.7226 111.222L 65.7226 103.124L 65.0546 103.124C 64.6992 104.367 64.4687 104.538 62.8984 104.734L 62.8984 105.452L 64.7226 105.456z"/>
<path style="stroke:#000000; stroke-width:1.9133; fill:none" d="M 10.0429 120.339L 46.4062 120.339L 46.4062 91.6321L 10.0429 91.6321L 10.0429 120.339z"/>
<path style="stroke:#000000; stroke-width:1.9133; fill:none" d="M 46.4062 120.339L 82.7694 120.339L 82.7694 91.6321L 46.4062 91.6321L 46.4062 120.339z"/>
<path style="stroke:#000000; stroke-width:1.9133; fill:none" d="M 65.5078 91.6516L 65.5078 64.8665"/>
<path style="stroke:#000000; stroke-width:1.9133; fill:none" d="M 63.5937 72.5185L 65.5039 64.8665L 67.4144 72.5185"/>
<path style="stroke:#000000; stroke-width:1.9133; fill:none" d="M 94.2534 120.339L 130.617 120.339L 130.617 91.6321L 94.2534 91.6321L 94.2534 120.339z"/>
<path style="stroke:#000000; stroke-width:1.9133; fill:none" d="M 130.617 120.343L 166.98 120.343L 166.98 91.636L 130.617 91.636L 130.617 120.343z"/>
<path style="stroke:#000000; stroke-width:1.9133; fill:none" d="M 149.718 91.6516L 149.718 64.8665"/>
<path style="stroke:#000000; stroke-width:1.9133; fill:none" d="M 147.804 72.5185L 149.714 64.8665L 151.625 72.5185"/>
<path style="stroke:#000000; stroke-width:1.9133; fill:none" d="M 178.464 120.343L 214.828 120.343L 214.828 91.636L 178.464 91.636L 178.464 120.343z"/>
<path style="stroke:#000000; stroke-width:1.9133; fill:none" d="M 214.828 120.347L 251.191 120.347L 251.191 91.6399L 214.828 91.6399L 214.828 120.347z"/>
<path style="stroke:#000000; stroke-width:1.9133; fill:none" d="M 233.929 91.6555L 233.929 64.8705"/>
<path style="stroke:#000000; stroke-width:1.9133; fill:none" d="M 232.015 72.5225L 233.925 64.8705L 235.835 72.5225"/>
<path style="stroke:none; fill-rule:evenodd; fill:#000000" d="M 112.023 101.324L 117.82 101.324L 117.82 100.527L 112.023 100.527L 112.023 101.324z"/>
<path style="stroke:none; fill-rule:evenodd; fill:#000000" d="M 115.265 110.226L 111.039 110.226C 111.14 109.566 111.503 109.144 112.488 108.562L 113.621 107.949C 114.742 107.335 115.32 106.499 115.32 105.507C 115.32 104.835 115.05 104.206 114.574 103.773C 114.101 103.339 113.511 103.136 112.75 103.136C 111.73 103.136 110.972 103.495 110.531 104.175C 110.25 104.605 110.125 105.101 110.101 105.917L 111.101 105.917C 111.132 105.386 111.203 105.062 111.339 104.804C 111.601 104.327 112.125 104.034 112.726 104.034C 113.636 104.034 114.32 104.683 114.32 105.55C 114.32 106.187 113.945 106.734 113.226 107.144L 112.179 107.734C 110.496 108.687 110.003 109.452 109.914 111.23L 115.265 111.23L 115.265 110.226z"/>
<path style="stroke:none; fill-rule:evenodd; fill:#000000" d="M 153.953 100.527L 151.625 100.527L 151.625 98.1868L 150.828 98.1868L 150.828 100.527L 148.402 100.527L 148.402 101.324L 150.828 101.324L 150.828 103.738L 151.625 103.738L 151.625 101.324L 153.953 101.324L 153.953 100.527z"/>
<path style="stroke:none; fill-rule:evenodd; fill:#000000" d="M 151.664 110.226L 147.437 110.226C 147.539 109.566 147.902 109.144 148.886 108.562L 150.019 107.949C 151.14 107.335 151.718 106.499 151.718 105.507C 151.718 104.835 151.449 104.206 150.972 103.773C 150.5 103.339 149.91 103.136 149.148 103.136C 148.128 103.136 147.371 103.495 146.929 104.175C 146.648 104.605 146.523 105.101 146.5 105.917L 147.5 105.917C 147.531 105.386 147.601 105.062 147.738 104.804C 148 104.327 148.523 104.034 149.125 104.034C 150.035 104.034 150.718 104.683 150.718 105.55C 150.718 106.187 150.343 106.734 149.625 107.144L 148.578 107.734C 146.894 108.687 146.402 109.452 146.312 111.23L 151.664 111.23L 151.664 110.226z"/>
<path style="stroke:none; fill-rule:evenodd; fill:#000000" d="M 196.222 101.324L 202.019 101.324L 202.019 100.527L 196.222 100.527L 196.222 101.324z"/>
<path style="stroke:none; fill-rule:evenodd; fill:#000000" d="M 196.359 107.527L 196.914 107.527C 198.039 107.527 198.617 108.031 198.617 108.999C 198.617 110.015 197.984 110.62 196.921 110.62C 195.816 110.62 195.273 110.062 195.203 108.859L 194.187 108.859C 194.23 109.519 194.347 109.952 194.539 110.324C 194.949 111.113 195.753 111.519 196.863 111.519C 198.535 111.519 199.613 110.523 199.613 108.984C 199.613 107.952 199.214 107.378 198.246 107.046C 199.023 106.749 199.414 106.175 199.414 105.363C 199.414 103.964 198.48 103.128 196.921 103.128C 195.273 103.128 194.394 104.007 194.359 105.714L 195.382 105.714C 195.394 105.238 195.437 104.972 195.566 104.726C 195.796 104.292 196.308 104.027 196.953 104.027C 197.859 104.027 198.41 104.542 198.41 105.382C 198.41 105.941 198.199 106.277 197.734 106.456C 197.453 106.566 197.085 106.613 196.347 106.624L 196.359 107.527z"/>
<path style="stroke:none; fill-rule:evenodd; fill:#000000" d="M 238.152 100.527L 235.824 100.527L 235.824 98.1868L 235.027 98.1868L 235.027 100.527L 232.601 100.527L 232.601 101.324L 235.027 101.324L 235.027 103.738L 235.824 103.738L 235.824 101.324L 238.152 101.324L 238.152 100.527z"/>
<path style="stroke:none; fill-rule:evenodd; fill:#000000" d="M 232.66 107.527L 233.214 107.527C 234.339 107.527 234.918 108.031 234.918 108.999C 234.918 110.015 234.285 110.62 233.222 110.62C 232.117 110.62 231.574 110.062 231.503 108.859L 230.488 108.859C 230.531 109.519 230.648 109.952 230.839 110.324C 231.25 111.113 232.054 111.519 233.164 111.519C 234.835 111.519 235.914 110.523 235.914 108.984C 235.914 107.952 235.515 107.378 234.546 107.046C 235.324 106.749 235.714 106.175 235.714 105.363C 235.714 103.964 234.781 103.128 233.222 103.128C 231.574 103.128 230.695 104.007 230.66 105.714L 231.683 105.714C 231.695 105.238 231.738 104.972 231.867 104.726C 232.097 104.292 232.609 104.027 233.253 104.027C 234.16 104.027 234.711 104.542 234.711 105.382C 234.711 105.941 234.5 106.277 234.035 106.456C 233.753 106.566 233.386 106.613 232.648 106.624L 232.66 107.527z"/>
<path style="stroke:#000000; stroke-width:1.9133; fill:none" d="M 10.0273 64.8745L 46.3789 64.8745L 46.3789 26.6086L 10.0273 26.6086L 10.0273 64.8745z"/>
<path style="stroke:#000000; stroke-width:1.9133; fill:none" d="M 46.3789 64.8745L 82.7304 64.8745L 82.7304 26.6086L 46.3789 26.6086L 46.3789 64.8745z"/>
<path style="stroke:none; fill-rule:evenodd; fill:#000000" d="M 58.5234 50.1245L 61.4257 41.7255L 60.2929 41.7255L 57.9765 48.8396L 55.5234 41.7255L 54.3789 41.7255L 57.3828 50.1245L 58.5234 50.1245z"/>
<path style="stroke:none; fill-rule:evenodd; fill:#000000" d="M 64.4453 41.7255C 63.3281 43.2336 62.6211 45.3275 62.6211 47.1355C 62.6211 48.9525 63.3242 51.0466 64.4453 52.5535L 65.0586 52.5535C 64.0703 50.9095 63.5195 48.9755 63.5195 47.1355C 63.5195 45.3075 64.0703 43.3625 65.0586 41.7255L 64.4453 41.7255z"/>
<path style="stroke:none; fill-rule:evenodd; fill:#000000" d="M 68.5234 44.3546L 68.5234 50.1205L 69.5234 50.1205L 69.5234 42.0226L 68.8554 42.0226C 68.5004 43.2645 68.2694 43.4366 66.6994 43.6326L 66.6994 44.3505L 68.5234 44.3546z"/>
<path style="stroke:none; fill-rule:evenodd; fill:#000000" d="M 72.9764 52.5575C 74.1054 51.0506 74.8164 48.9565 74.8164 47.1516C 74.8164 45.3355 74.1054 43.2415 72.9764 41.7296L 72.3594 41.7296C 73.3634 43.3785 73.9214 45.3075 73.9214 47.1516C 73.9214 48.9796 73.3634 50.9256 72.3594 52.5575L 72.9764 52.5575z"/>
<path style="stroke:none; fill-rule:evenodd; fill:#000000" d="M 58.1836 36.2255L 56.4296 40.5466L 57.2187 40.5466L 58.6054 37.1355L 60.0039 40.5466L 60.7929 40.5466L 59.0156 36.2255L 58.1836 36.2255z"/>
<path style="stroke:none; fill-rule:evenodd; fill:#000000" d="M 52.6484 42.3745L 51.375 46.3275L 51.0312 44.5575C 50.6875 42.8006 50.3203 42.2255 49.5507 42.2255C 49.207 42.2255 48.8984 42.3855 48.7148 42.6516C 48.4648 43.0076 48.4062 43.2966 48.3828 44.2645L 48.3828 44.4135L 48.6328 44.4135C 48.6523 44.0936 48.6757 43.9135 48.7226 43.7455C 48.8476 43.3625 49.1211 43.1245 49.4531 43.1245C 49.7617 43.1245 49.9804 43.3195 50.1953 43.7925C 50.4687 44.3895 50.7656 45.4445 50.8828 46.3006L 51.0195 47.2576C 50.9882 47.3705 50.8593 47.7415 50.6406 48.3665C 50.414 48.9995 50.3437 49.3355 50.3437 49.7296C 50.3437 50.2726 50.582 50.6285 50.9492 50.6285C 51.4179 50.6285 51.7265 50.0425 51.7265 49.1245C 51.7265 48.7686 51.6718 48.2186 51.5351 47.3546L 53.8632 42.3705L 52.6484 42.3745z"/>
<path style="stroke:none; fill-rule:evenodd; fill:#000000" d="M 227.023 44.0965L 227.023 50.1205L 228.023 50.1205L 228.023 46.9875C 228.023 46.1245 228.234 45.5616 228.683 45.2255C 228.972 45.0076 229.253 44.9406 229.906 44.9285L 229.906 43.9646C 229.75 43.9445 229.671 43.9325 229.546 43.9325C 228.937 43.9325 228.472 44.3006 227.925 45.1945L 227.925 44.1046L 227.023 44.0965z"/>
<path style="stroke:none; fill-rule:evenodd; fill:#000000" d="M 232.746 41.7255C 231.628 43.2336 230.921 45.3275 230.921 47.1355C 230.921 48.9525 231.625 51.0466 232.746 52.5535L 233.359 52.5535C 232.371 50.9095 231.82 48.9755 231.82 47.1355C 231.82 45.3075 232.371 43.3625 233.359 41.7255L 232.746 41.7255z"/>
<path style="stroke:none; fill-rule:evenodd; fill:#000000" d="M 236.359 46.4256L 236.914 46.4256C 238.039 46.4256 238.617 46.9285 238.617 47.8976C 238.617 48.9135 237.984 49.5186 236.921 49.5186C 235.816 49.5186 235.273 48.9605 235.203 47.7576L 234.187 47.7576C 234.23 48.4175 234.347 48.8505 234.539 49.2215C 234.949 50.0116 235.753 50.4175 236.863 50.4175C 238.535 50.4175 239.613 49.4216 239.613 47.8826C 239.613 46.8505 239.214 46.2766 238.246 45.9445C 239.023 45.6476 239.414 45.0735 239.414 44.2616C 239.414 42.8625 238.48 42.0266 236.921 42.0266C 235.273 42.0266 234.394 42.9055 234.359 44.6125L 235.382 44.6125C 235.394 44.1355 235.437 43.8705 235.566 43.6245C 235.796 43.1906 236.308 42.9256 236.953 42.9256C 237.859 42.9256 238.41 43.4406 238.41 44.2805C 238.41 44.8396 238.199 45.1756 237.734 45.3546C 237.453 45.4646 237.085 45.5116 236.347 45.5226L 236.359 46.4256z"/>
<path style="stroke:none; fill-rule:evenodd; fill:#000000" d="M 241.277 52.5575C 242.406 51.0506 243.117 48.9565 243.117 47.1516C 243.117 45.3355 242.406 43.2415 241.277 41.7296L 240.66 41.7296C 241.664 43.3785 242.222 45.3075 242.222 47.1516C 242.222 48.9796 241.664 50.9256 240.66 52.5575L 241.277 52.5575z"/>
<path style="stroke:none; fill-rule:evenodd; fill:#000000" d="M 21.8828 36.2255L 20.1289 40.5466L 20.9179 40.5466L 22.3046 37.1355L 23.7031 40.5466L 24.4922 40.5466L 22.7148 36.2255L 21.8828 36.2255z"/>
<path style="stroke:none; fill-rule:evenodd; fill:#000000" d="M 22.1211 50.1245L 25.0234 41.7255L 23.8906 41.7255L 21.5742 48.8396L 19.1211 41.7255L 17.9765 41.7255L 20.9804 50.1245L 22.1211 50.1245z"/>
<path style="stroke:none; fill-rule:evenodd; fill:#000000" d="M 28.0468 41.7255C 26.9296 43.2336 26.2226 45.3275 26.2226 47.1355C 26.2226 48.9525 26.9257 51.0466 28.0468 52.5535L 28.6601 52.5535C 27.6718 50.9095 27.1211 48.9755 27.1211 47.1355C 27.1211 45.3075 27.6718 43.3625 28.6601 41.7255L 28.0468 41.7255z"/>
<path style="stroke:none; fill-rule:evenodd; fill:#000000" d="M 32.2734 42.0266C 31.5195 42.0266 30.8359 42.3586 30.414 42.9256C 29.8906 43.6355 29.6289 44.7255 29.6289 46.2255C 29.6289 48.9646 30.539 50.4216 32.2773 50.4216C 33.9882 50.4216 34.9257 48.9686 34.9257 46.2966C 34.9257 44.7186 34.6757 43.6595 34.1406 42.9256C 33.7187 42.3505 33.0468 42.0266 32.2812 42.0266L 32.2734 42.0266zM 32.2734 42.9256C 33.375 42.9256 33.9218 44.0305 33.9218 46.2215C 33.9218 48.5385 33.3906 49.6205 32.25 49.6205C 31.1718 49.6205 30.625 48.4915 30.625 46.2576C 30.625 44.0226 31.1679 42.9256 32.2734 42.9256z"/>
<path style="stroke:none; fill-rule:evenodd; fill:#000000" d="M 36.5781 52.5575C 37.707 51.0506 38.4179 48.9565 38.4179 47.1516C 38.4179 45.3355 37.707 43.2415 36.5781 41.7296L 35.9609 41.7296C 36.9648 43.3785 37.5234 45.3075 37.5234 47.1516C 37.5234 48.9796 36.9648 50.9256 35.9609 52.5575L 36.5781 52.5575z"/>
<path style="stroke:none; fill-rule:evenodd; fill:#000000" d="M 106.082 36.2255L 104.328 40.5466L 105.117 40.5466L 106.503 37.1355L 107.902 40.5466L 108.691 40.5466L 106.914 36.2255L 106.082 36.2255z"/>
<path style="stroke:none; fill-rule:evenodd; fill:#000000" d="M 106.421 50.1245L 109.324 41.7255L 108.191 41.7255L 105.875 48.8396L 103.421 41.7255L 102.277 41.7255L 105.281 50.1245L 106.421 50.1245z"/>
<path style="stroke:none; fill-rule:evenodd; fill:#000000" d="M 112.246 41.7255C 111.128 43.2336 110.421 45.3275 110.421 47.1355C 110.421 48.9525 111.125 51.0466 112.246 52.5535L 112.859 52.5535C 111.871 50.9095 111.32 48.9755 111.32 47.1355C 111.32 45.3075 111.871 43.3625 112.859 41.7255L 112.246 41.7255z"/>
<path style="stroke:none; fill-rule:evenodd; fill:#000000" d="M 116.32 44.3546L 116.32 50.1205L 117.32 50.1205L 117.32 42.0226L 116.652 42.0226C 116.296 43.2645 116.066 43.4366 114.496 43.6326L 114.496 44.3505L 116.32 44.3546z"/>
<path style="stroke:none; fill-rule:evenodd; fill:#000000" d="M 120.777 52.5575C 121.906 51.0506 122.617 48.9565 122.617 47.1516C 122.617 45.3355 121.906 43.2415 120.777 41.7296L 120.16 41.7296C 121.164 43.3785 121.722 45.3075 121.722 47.1516C 121.722 48.9796 121.164 50.9256 120.16 52.5575L 120.777 52.5575z"/>
<path style="stroke:none; fill-rule:evenodd; fill:#5f5f5f" d="M 65.5429 87.804L 69.3674 87.804L 69.3674 76.3235L 65.5429 76.3235L 65.5429 87.804z"/>
<path style="stroke:#000000; stroke-width:0.95664899999999997; fill:none" d="M 65.5429 87.804L 69.3674 87.804L 69.3674 76.3235L 65.5429 76.3235L 65.5429 87.804z"/>
<path style="stroke:none; fill-rule:evenodd; fill:#5f5f5f" d="M 149.73 87.804L 153.554 87.804L 153.554 76.3235L 149.73 76.3235L 149.73 87.804z"/>
<path style="stroke:#000000; stroke-width:0.95664899999999997; fill:none" d="M 149.73 87.804L 153.554 87.804L 153.554 76.3235L 149.73 76.3235L 149.73 87.804z"/>
<path style="stroke:none; fill-rule:evenodd; fill:#ffffff" d="M 176.48 82.0855L 186.046 82.0855L 186.046 68.6945L 176.48 68.6945L 176.48 82.0855z"/>
<path style="stroke:#ffffff; stroke-width:0.0; fill:none" d="M 176.48 82.0855L 186.046 82.0855L 186.046 68.6945L 176.48 68.6945L 176.48 82.0855z"/>
<path style="stroke:none; fill-rule:evenodd; fill:#000000" d="M 25.4492 125.824L 31.4609 125.824L 31.4609 125.226L 25.4492 125.226L 25.4492 125.824z"/>
<path style="stroke:none; fill-rule:evenodd; fill:#000000" d="M 65.2226 122.406L 64.625 122.406L 64.625 125.124L 61.8437 125.124L 61.8437 125.722L 64.625 125.722L 64.625 128.519L 65.2226 128.519L 65.2226 125.722L 67.9104 125.722L 67.9104 125.124L 65.2226 125.124L 65.2226 122.406z"/>
<path style="stroke:none; fill-rule:evenodd; fill:#000000" d="M 109.648 125.824L 115.66 125.824L 115.66 125.226L 109.648 125.226L 109.648 125.824z"/>
<path style="stroke:none; fill-rule:evenodd; fill:#000000" d="M 149.421 122.406L 148.824 122.406L 148.824 125.124L 146.043 125.124L 146.043 125.722L 148.824 125.722L 148.824 128.519L 149.421 128.519L 149.421 125.722L 152.109 125.722L 152.109 125.124L 149.421 125.124L 149.421 122.406z"/>
<path style="stroke:none; fill-rule:evenodd; fill:#000000" d="M 193.847 125.824L 199.859 125.824L 199.859 125.226L 193.847 125.226L 193.847 125.824z"/>
<path style="stroke:none; fill-rule:evenodd; fill:#000000" d="M 233.523 122.406L 232.925 122.406L 232.925 125.124L 230.144 125.124L 230.144 125.722L 232.925 125.722L 232.925 128.519L 233.523 128.519L 233.523 125.722L 236.211 125.722L 236.211 125.124L 233.523 125.124L 233.523 122.406z"/>
<path style="stroke:none; fill-rule:evenodd; fill:#000000" d="M 190.281 36.2255L 188.527 40.5466L 189.316 40.5466L 190.703 37.1355L 192.101 40.5466L 192.89 40.5466L 191.113 36.2255L 190.281 36.2255z"/>
<path style="stroke:none; fill-rule:evenodd; fill:#000000" d="M 190.621 50.1245L 193.523 41.7255L 192.39 41.7255L 190.074 48.8396L 187.621 41.7255L 186.476 41.7255L 189.48 50.1245L 190.621 50.1245z"/>
<path style="stroke:none; fill-rule:evenodd; fill:#000000" d="M 196.445 41.7255C 195.328 43.2336 194.621 45.3275 194.621 47.1355C 194.621 48.9525 195.324 51.0466 196.445 52.5535L 197.058 52.5535C 196.07 50.9095 195.519 48.9755 195.519 47.1355C 195.519 45.3075 196.07 43.3625 197.058 41.7255L 196.445 41.7255z"/>
<path style="stroke:none; fill-rule:evenodd; fill:#000000" d="M 203.363 49.1245L 199.136 49.1245C 199.238 48.4646 199.601 48.0425 200.585 47.4605L 201.718 46.8465C 202.839 46.2336 203.418 45.3976 203.418 44.4055C 203.418 43.7336 203.148 43.1046 202.671 42.6716C 202.199 42.2375 201.609 42.0345 200.847 42.0345C 199.828 42.0345 199.07 42.3936 198.628 43.0735C 198.347 43.5035 198.222 43.9995 198.199 44.8156L 199.199 44.8156C 199.23 44.2845 199.3 43.9605 199.437 43.7025C 199.699 43.2255 200.222 42.9325 200.824 42.9325C 201.734 42.9325 202.418 43.5815 202.418 44.4485C 202.418 45.0855 202.043 45.6326 201.324 46.0425L 200.277 46.6326C 198.593 47.5855 198.101 48.3505 198.011 50.1285L 203.363 50.1285L 203.363 49.1245z"/>
<path style="stroke:none; fill-rule:evenodd; fill:#000000" d="M 204.976 52.5575C 206.105 51.0506 206.816 48.9565 206.816 47.1516C 206.816 45.3355 206.105 43.2415 204.976 41.7296L 204.359 41.7296C 205.363 43.3785 205.921 45.3075 205.921 47.1516C 205.921 48.9796 205.363 50.9256 204.359 52.5575L 204.976 52.5575z"/>
<path style="stroke:#000000; stroke-width:1.9133; fill:none" d="M 65.5117 24.6945C 65.5117 24.6945 65.5117 24.6945 63.9179 22.1436C 62.3242 19.5936 59.1367 14.4915 54.0351 11.9406C 48.9336 9.38954 41.9179 9.38954 36.8164 11.9406C 31.7148 14.4915 28.5273 19.5936 26.9336 22.1436C 25.3398 24.6945 25.3398 24.6945 25.3398 24.6945"/>
<path style="stroke:#000000; stroke-width:1.9133; fill:none" d="M 31.0117 19.2186L 25.3359 24.6906L 27.7695 17.1866"/>
<path style="stroke:none; fill-rule:evenodd; fill:#ffffff" d="M 40.6367 17.0305L 50.2031 17.0305L 50.2031 3.63954L 40.6367 3.63954L 40.6367 17.0305z"/>
<path style="stroke:#ffffff; stroke-width:0.0; fill:none" d="M 40.6367 17.0305L 50.2031 17.0305L 50.2031 3.63954L 40.6367 3.63954L 40.6367 17.0305z"/>
<path style="stroke:none; fill-rule:evenodd; fill:#000000" d="M 45.9492 7.19455C 45.2695 7.40955 44.8789 7.58154 44.4843 7.85054C 43.6211 8.45255 43.125 9.39355 43.125 10.3976C 43.125 11.9915 44.375 13.3195 45.8867 13.3195C 47.5273 13.3195 48.9218 11.8116 48.9218 10.0506C 48.9218 9.19855 48.6328 8.36655 48.0898 7.71455C 47.6289 7.15555 47.4179 6.99554 46.2304 6.27255C 45.0039 5.51454 44.5273 5.04655 44.5273 4.61655C 44.5273 4.17854 44.9531 3.83154 45.4726 3.83154C 45.9492 3.83154 46.2422 3.97154 46.7382 4.46054C 47.2812 4.99954 47.4687 5.11655 47.8007 5.11655C 48.1601 5.11655 48.4257 4.86655 48.4257 4.54655C 48.4257 3.82755 47.2578 3.22955 45.8476 3.22955C 44.5859 3.22955 43.8203 3.73755 43.8203 4.55354C 43.8203 5.03455 44.0351 5.42555 44.625 5.97554L 45.9492 7.19455zM 46.3164 7.52655C 47.1992 8.37854 47.6211 9.32755 47.6211 10.4915C 47.6211 11.8156 47.0039 12.7215 46.0781 12.7215C 45.1562 12.7215 44.5234 11.6675 44.5234 10.1125C 44.5234 8.65155 45.1172 7.78455 46.3164 7.52655z"/>
<path style="stroke:#000000; stroke-width:1.9133; fill:none" d="M 149.699 24.6945C 149.699 24.6945 149.699 24.6945 148.105 22.1436C 146.511 19.5936 143.324 14.4915 138.222 11.9406C 133.121 9.38954 126.105 9.38954 121.003 11.9406C 115.902 14.4915 112.714 19.5936 111.121 22.1436C 109.527 24.6945 109.527 24.6945 109.527 24.6945"/>
<path style="stroke:#000000; stroke-width:1.9133; fill:none" d="M 115.195 19.2186L 109.519 24.6906L 111.953 17.1866"/>
<path style="stroke:none; fill-rule:evenodd; fill:#ffffff" d="M 124.824 17.0305L 134.39 17.0305L 134.39 3.63954L 124.824 3.63954L 124.824 17.0305z"/>
<path style="stroke:#ffffff; stroke-width:0.0; fill:none" d="M 124.824 17.0305L 134.39 17.0305L 134.39 3.63954L 124.824 3.63954L 124.824 17.0305z"/>
<path style="stroke:none; fill-rule:evenodd; fill:#000000" d="M 130.152 7.19455C 129.472 7.40955 129.082 7.58154 128.687 7.85054C 127.824 8.45255 127.328 9.39355 127.328 10.3976C 127.328 11.9915 128.578 13.3195 130.089 13.3195C 131.73 13.3195 133.125 11.8116 133.125 10.0506C 133.125 9.19855 132.835 8.36655 132.293 7.71455C 131.832 7.15555 131.621 6.99554 130.433 6.27255C 129.207 5.51454 128.73 5.04655 128.73 4.61655C 128.73 4.17854 129.156 3.83154 129.675 3.83154C 130.152 3.83154 130.445 3.97154 130.941 4.46054C 131.484 4.99954 131.671 5.11655 132.003 5.11655C 132.363 5.11655 132.628 4.86655 132.628 4.54655C 132.628 3.82755 131.461 3.22955 130.05 3.22955C 128.789 3.22955 128.023 3.73755 128.023 4.55354C 128.023 5.03455 128.238 5.42555 128.828 5.97554L 130.152 7.19455zM 130.515 7.52655C 131.398 8.37854 131.82 9.32755 131.82 10.4915C 131.82 11.8156 131.203 12.7215 130.277 12.7215C 129.355 12.7215 128.722 11.6675 128.722 10.1125C 128.722 8.65155 129.316 7.78455 130.515 7.52655z"/>
<path style="stroke:#000000; stroke-width:1.9133; fill:none" d="M 233.882 24.6945C 233.882 24.6945 233.882 24.6945 232.289 22.1436C 230.695 19.5936 227.507 14.4915 222.406 11.9406C 217.304 9.38954 210.289 9.38954 205.187 11.9406C 200.085 14.4915 196.898 19.5936 195.304 22.1436C 193.711 24.6945 193.711 24.6945 193.711 24.6945"/>
<path style="stroke:#000000; stroke-width:1.9133; fill:none" d="M 199.382 19.2186L 193.707 24.6906L 196.14 17.1866"/>
<path style="stroke:none; fill-rule:evenodd; fill:#ffffff" d="M 209.007 17.0305L 218.574 17.0305L 218.574 3.63954L 209.007 3.63954L 209.007 17.0305z"/>
<path style="stroke:#ffffff; stroke-width:0.0; fill:none" d="M 209.007 17.0305L 218.574 17.0305L 218.574 3.63954L 209.007 3.63954L 209.007 17.0305z"/>
<path style="stroke:none; fill-rule:evenodd; fill:#000000" d="M 214.351 7.19455C 213.671 7.40955 213.281 7.58154 212.886 7.85054C 212.023 8.45255 211.527 9.39355 211.527 10.3976C 211.527 11.9915 212.777 13.3195 214.289 13.3195C 215.929 13.3195 217.324 11.8116 217.324 10.0506C 217.324 9.19855 217.035 8.36655 216.492 7.71455C 216.031 7.15555 215.82 6.99554 214.632 6.27255C 213.406 5.51454 212.929 5.04655 212.929 4.61655C 212.929 4.17854 213.355 3.83154 213.875 3.83154C 214.351 3.83154 214.644 3.97154 215.14 4.46054C 215.683 4.99954 215.871 5.11655 216.203 5.11655C 216.562 5.11655 216.828 4.86655 216.828 4.54655C 216.828 3.82755 215.66 3.22955 214.25 3.22955C 212.988 3.22955 212.222 3.73755 212.222 4.55354C 212.222 5.03455 212.437 5.42555 213.027 5.97554L 214.351 7.19455zM 214.714 7.52655C 215.597 8.37854 216.019 9.32755 216.019 10.4915C 216.019 11.8156 215.402 12.7215 214.476 12.7215C 213.554 12.7215 212.921 11.6675 212.921 10.1125C 212.921 8.65155 213.515 7.78455 214.714 7.52655z"/>
<path style="stroke:none; fill-rule:evenodd; fill:#000000" d="M 144.281 36.2255L 142.527 40.5466L 143.316 40.5466L 144.703 37.1355L 146.101 40.5466L 146.89 40.5466L 145.113 36.2255L 144.281 36.2255z"/>
<path style="stroke:none; fill-rule:evenodd; fill:#000000" d="M 138.75 42.3745L 137.476 46.3275L 137.132 44.5575C 136.789 42.8006 136.421 42.2255 135.652 42.2255C 135.308 42.2255 135 42.3855 134.816 42.6516C 134.566 43.0076 134.507 43.2966 134.484 44.2645L 134.484 44.4135L 134.734 44.4135C 134.753 44.0936 134.777 43.9135 134.824 43.7455C 134.949 43.3625 135.222 43.1245 135.554 43.1245C 135.863 43.1245 136.082 43.3195 136.296 43.7925C 136.57 44.3895 136.867 45.4445 136.984 46.3006L 137.121 47.2576C 137.089 47.3705 136.961 47.7415 136.742 48.3665C 136.515 48.9995 136.445 49.3355 136.445 49.7296C 136.445 50.2726 136.683 50.6285 137.05 50.6285C 137.519 50.6285 137.828 50.0425 137.828 49.1245C 137.828 48.7686 137.773 48.2186 137.636 47.3546L 139.964 42.3705L 138.75 42.3745z"/>
<path style="stroke:none; fill-rule:evenodd; fill:#000000" d="M 144.621 50.1245L 147.523 41.7255L 146.39 41.7255L 144.074 48.8396L 141.621 41.7255L 140.476 41.7255L 143.48 50.1245L 144.621 50.1245z"/>
<path style="stroke:none; fill-rule:evenodd; fill:#000000" d="M 150.546 41.7255C 149.429 43.2336 148.722 45.3275 148.722 47.1355C 148.722 48.9525 149.425 51.0466 150.546 52.5535L 151.16 52.5535C 150.171 50.9095 149.621 48.9755 149.621 47.1355C 149.621 45.3075 150.171 43.3625 151.16 41.7255L 150.546 41.7255z"/>
<path style="stroke:none; fill-rule:evenodd; fill:#000000" d="M 157.363 49.1245L 153.136 49.1245C 153.238 48.4646 153.601 48.0425 154.585 47.4605L 155.718 46.8465C 156.839 46.2336 157.418 45.3976 157.418 44.4055C 157.418 43.7336 157.148 43.1046 156.671 42.6716C 156.199 42.2375 155.609 42.0345 154.847 42.0345C 153.828 42.0345 153.07 42.3936 152.628 43.0735C 152.347 43.5035 152.222 43.9995 152.199 44.8156L 153.199 44.8156C 153.23 44.2845 153.3 43.9605 153.437 43.7025C 153.699 43.2255 154.222 42.9325 154.824 42.9325C 155.734 42.9325 156.418 43.5815 156.418 44.4485C 156.418 45.0855 156.043 45.6326 155.324 46.0425L 154.277 46.6326C 152.593 47.5855 152.101 48.3505 152.011 50.1285L 157.363 50.1285L 157.363 49.1245z"/>
<path style="stroke:none; fill-rule:evenodd; fill:#000000" d="M 159.078 52.5575C 160.207 51.0506 160.918 48.9565 160.918 47.1516C 160.918 45.3355 160.207 43.2415 159.078 41.7296L 158.461 41.7296C 159.464 43.3785 160.023 45.3075 160.023 47.1516C 160.023 48.9796 159.464 50.9256 158.461 52.5575L 159.078 52.5575z"/>
<path style="stroke:#000000; stroke-width:1.9133; fill:none" d="M 78.9064 45.7415L 101.863 45.7415"/>
<path style="stroke:#000000; stroke-width:1.9133; fill:none" d="M 94.2114 43.8275L 101.863 45.7375L 94.2114 47.6476"/>
<path style="stroke:#000000; stroke-width:1.9133; fill:none" d="M 163.089 45.7415L 187.961 45.7415"/>
<path style="stroke:#000000; stroke-width:1.9133; fill:none" d="M 180.308 43.8275L 187.961 45.7375L 180.308 47.6476"/>
</g>
</svg>