<?xml version="1.0" encoding="ISO-8859-1" standalone="yes"?>
<svg width="291.768" height="151.797">
  <defs> 
    <marker id="ArrowEnd" viewBox="0 0 10 10" refX="0" refY="5" 
     markerUnits="strokeWidth" 
     markerWidth="4" 
     markerHeight="3" 
     orient="auto"> 
        <path d="M 0 0 L 10 5 L 0 10 z" /> 
    </marker>
    <marker id="ArrowStart" viewBox="0 0 10 10" refX="10" refY="5" 
     markerUnits="strokeWidth" 
     markerWidth="4" 
     markerHeight="3" 
     orient="auto"> 
        <path d="M 10 0 L 0 5 L 10 10 z" /> 
    </marker> </defs>
<g>
<path style="stroke:#000000; stroke-width:0.95664899999999997; fill:none" d="M 203.998 96.9536L 209.737 96.9536L 209.737 91.2153L 203.998 91.2153L 203.998 96.9536z"/>
<path style="stroke:#000000; stroke-width:0.95664899999999997; fill:none" d="M 209.737 96.9536L 215.475 96.9536L 215.475 91.2153L 209.737 91.2153L 209.737 96.9536z"/>
<path style="stroke:#000000; stroke-width:0.95664899999999997; fill:none" d="M 215.479 96.9536L 221.217 96.9536L 221.217 91.2153L 215.479 91.2153L 215.479 96.9536z"/>
<path style="stroke:#000000; stroke-width:0.95664899999999997; fill:none" d="M 221.217 96.9536L 226.955 96.9536L 226.955 91.2153L 221.217 91.2153L 221.217 96.9536z"/>
<path style="stroke:#000000; stroke-width:0.95664899999999997; fill:none" d="M 226.959 96.9536L 232.698 96.9536L 232.698 91.2153L 226.959 91.2153L 226.959 96.9536z"/>
<path style="stroke:#000000; stroke-width:0.95664899999999997; fill:none" d="M 232.698 96.9536L 238.436 96.9536L 238.436 91.2153L 232.698 91.2153L 232.698 96.9536z"/>
<path style="stroke:#000000; stroke-width:0.95664899999999997; fill:none" d="M 179.123 52.946L 198.252 52.946L 198.252 26.161L 179.123 26.161L 179.123 52.946z"/>
<path style="stroke:#000000; stroke-width:0.95664899999999997; fill:none" d="M 159.991 52.946L 179.119 52.946L 179.119 26.161L 159.991 26.161L 159.991 52.946z"/>
<path style="stroke:#000000; stroke-width:0.95664899999999997; fill:none" d="M 140.862 52.946L 159.991 52.946L 159.991 26.161L 140.862 26.161L 140.862 52.946z"/>
<path style="stroke:#000000; stroke-width:0.95664899999999997; fill:none" d="M 121.725 52.946L 140.854 52.946L 140.854 26.161L 121.725 26.161L 121.725 52.946z"/>
<path style="stroke:#000000; stroke-width:0.95664899999999997; fill:none" d="M 102.596 52.946L 121.725 52.946L 121.725 26.161L 102.596 26.161L 102.596 52.946z"/>
<path style="stroke:#000000; stroke-width:0.95664899999999997; fill:none" d="M 83.4589 52.946L 102.588 52.946L 102.588 26.161L 83.4589 26.161L 83.4589 52.946z"/>
<path style="stroke:#000000; stroke-width:0.95664899999999997; fill:none" d="M 182.951 129.477L 202.08 129.477L 202.08 102.692L 182.951 102.692L 182.951 129.477z"/>
<path style="stroke:#000000; stroke-width:0.95664899999999997; fill:none" d="M 163.819 129.477L 182.948 129.477L 182.948 102.692L 163.819 102.692L 163.819 129.477z"/>
<path style="stroke:#000000; stroke-width:0.95664899999999997; fill:none" d="M 144.686 129.477L 163.815 129.477L 163.815 102.692L 144.686 102.692L 144.686 129.477z"/>
<path style="stroke:#000000; stroke-width:0.95664899999999997; fill:none" d="M 125.553 129.477L 144.682 129.477L 144.682 102.692L 125.553 102.692L 125.553 129.477z"/>
<path style="stroke:#000000; stroke-width:0.95664899999999997; fill:none" d="M 106.42 129.477L 125.549 129.477L 125.549 102.692L 106.42 102.692L 106.42 129.477z"/>
<path style="stroke:#000000; stroke-width:0.95664899999999997; fill:none" d="M 87.2867 129.477L 106.416 129.477L 106.416 102.692L 87.2867 102.692L 87.2867 129.477z"/>
<path style="stroke:#000000; stroke-width:0.95664899999999997; fill:none" d="M 189.17 52.946L 189.17 102.688"/>
<path style="stroke:#000000; stroke-width:0.95664899999999997; fill:none" d="M 191.084 95.0395L 189.174 102.692L 187.264 95.0395"/>
<path style="stroke:#000000; stroke-width:0.95664899999999997; fill:none" d="M 170.037 52.946L 170.037 102.688"/>
<path style="stroke:#000000; stroke-width:0.95664899999999997; fill:none" d="M 171.951 95.0395L 170.041 102.692L 168.131 95.0395"/>
<path style="stroke:#000000; stroke-width:0.95664899999999997; fill:none" d="M 189.17 52.946L 170.037 102.688"/>
<path style="stroke:#000000; stroke-width:0.95664899999999997; fill:none" d="M 174.569 96.2348L 170.037 102.688L 170.998 94.8598"/>
<path style="stroke:#000000; stroke-width:0.95664899999999997; fill:none" d="M 170.037 52.946L 150.905 102.688"/>
<path style="stroke:#000000; stroke-width:0.95664899999999997; fill:none" d="M 155.436 96.2348L 150.905 102.688L 151.866 94.8598"/>
<path style="stroke:#000000; stroke-width:0.95664899999999997; fill:none" d="M 150.905 52.946L 150.905 102.688"/>
<path style="stroke:#000000; stroke-width:0.95664899999999997; fill:none" d="M 152.819 95.0395L 150.909 102.692L 148.998 95.0395"/>
<path style="stroke:#000000; stroke-width:0.95664899999999997; fill:none" d="M 131.772 52.946L 131.772 102.688"/>
<path style="stroke:#000000; stroke-width:0.95664899999999997; fill:none" d="M 133.686 95.0395L 131.776 102.692L 129.866 95.0395"/>
<path style="stroke:#000000; stroke-width:0.95664899999999997; fill:none" d="M 150.905 52.946L 131.772 102.688"/>
<path style="stroke:#000000; stroke-width:0.95664899999999997; fill:none" d="M 136.303 96.2348L 131.772 102.688L 132.733 94.8598"/>
<path style="stroke:#000000; stroke-width:0.95664899999999997; fill:none" d="M 112.639 52.946L 112.639 102.688"/>
<path style="stroke:#000000; stroke-width:0.95664899999999997; fill:none" d="M 114.549 95.0395L 112.639 102.692L 110.729 95.0395"/>
<path style="stroke:#000000; stroke-width:0.95664899999999997; fill:none" d="M 131.772 52.946L 112.639 102.688"/>
<path style="stroke:#000000; stroke-width:0.95664899999999997; fill:none" d="M 117.17 96.2348L 112.639 102.688L 113.6 94.8598"/>
<path style="stroke:#000000; stroke-width:0.95664899999999997; fill:none" d="M 93.5057 52.946L 93.5057 102.688"/>
<path style="stroke:#000000; stroke-width:0.95664899999999997; fill:none" d="M 95.4156 95.0395L 93.5057 102.692L 91.5956 95.0395"/>
<path style="stroke:#000000; stroke-width:0.95664899999999997; fill:none" d="M 112.639 52.946L 93.5057 102.688"/>
<path style="stroke:#000000; stroke-width:0.95664899999999997; fill:none" d="M 98.0367 96.2348L 93.5057 102.688L 94.4667 94.8598"/>
<path style="stroke:none; fill-rule:evenodd; fill:#000000" d="M 106.569 4.696L 110.561 4.696L 110.561 3.797L 106.569 3.797L 106.569 1L 111.069 1L 111.069 0.102005L 105.471 0.102005L 105.471 8.5L 106.569 8.5L 106.569 4.696z"/>
<path style="stroke:none; fill-rule:evenodd; fill:#000000" d="M 112.369 2.46901L 112.369 8.49301L 113.369 8.49301L 113.369 5.36C 113.369 4.49701 113.58 3.93401 114.03 3.59801C 114.319 3.379 114.6 3.313 115.252 3.30101L 115.252 2.336C 115.096 2.317 115.018 2.30501 114.893 2.30501C 114.283 2.30501 113.819 2.672 113.272 3.567L 113.272 2.47701L 112.369 2.46901z"/>
<path style="stroke:none; fill-rule:evenodd; fill:#000000" d="M 118.506 2.297C 116.803 2.297 115.772 3.51201 115.772 5.547C 115.772 7.58301 116.791 8.797 118.522 8.797C 120.225 8.797 121.272 7.586 121.272 5.59801C 121.272 3.50801 120.264 2.30501 118.514 2.30501L 118.506 2.297zM 118.518 3.196C 119.612 3.196 120.268 4.08301 120.268 5.57901C 120.268 6.99301 119.592 7.89101 118.518 7.89101C 117.436 7.89101 116.768 7.004 116.768 5.543C 116.768 4.09401 117.432 3.196 118.518 3.196z"/>
<path style="stroke:none; fill-rule:evenodd; fill:#000000" d="M 122.569 2.46901L 122.569 8.49301L 123.569 8.49301L 123.569 5.145C 123.569 3.907 124.194 3.09401 125.159 3.09401C 125.897 3.09401 126.366 3.55501 126.366 4.28601L 126.366 8.489L 127.366 8.489L 127.366 3.93401C 127.366 2.93401 126.623 2.29001 125.463 2.29001C 124.573 2.29001 123.998 2.63301 123.471 3.47301L 123.471 2.461L 122.569 2.46901z"/>
<path style="stroke:none; fill-rule:evenodd; fill:#000000" d="M 130.971 2.49701L 130.073 2.49701L 130.073 0.82901L 129.073 0.82901L 129.073 2.49701L 128.174 2.49701L 128.174 3.293L 129.073 3.293L 129.073 7.84001C 129.073 8.446 129.475 8.79001 130.205 8.79001C 130.428 8.79001 130.655 8.76601 130.967 8.707L 130.967 7.87201C 130.854 7.961 130.717 7.989 130.549 7.989C 130.174 7.989 130.069 7.875 130.069 7.446L 130.069 3.293L 130.967 3.293L 130.971 2.49701z"/>
<path style="stroke:none; fill-rule:evenodd; fill:#000000" d="M 137.412 7.93401C 137.307 7.99301 137.26 7.99301 137.201 7.99301C 136.862 7.99301 136.674 7.821 136.674 7.52L 136.674 3.95401C 136.674 2.879 135.897 2.297 134.424 2.297C 133.557 2.297 132.838 2.55101 132.436 3C 132.162 3.30901 132.049 3.657 132.026 4.25801L 132.971 4.25801C 133.049 3.528 133.475 3.196 134.358 3.196C 135.201 3.196 135.674 3.51601 135.674 4.09401L 135.674 4.34801C 135.674 4.75 135.44 4.922 134.698 5.01601C 133.373 5.188 133.17 5.235 132.811 5.38301C 132.127 5.668 131.78 6.211 131.78 6.99701C 131.78 8.09001 132.533 8.782 133.744 8.782C 134.498 8.782 135.104 8.50801 135.78 7.864C 135.846 8.49701 136.143 8.782 136.76 8.782C 136.951 8.782 137.1 8.75801 137.409 8.67601L 137.412 7.93401zM 135.67 6.63701C 135.67 6.96501 135.58 7.168 135.303 7.442C 134.924 7.80501 134.467 7.99701 133.92 7.99701C 133.198 7.99701 132.772 7.63301 132.772 7.004C 132.772 6.356 133.182 6.024 134.174 5.87201C 135.155 5.731 135.354 5.68401 135.666 5.532L 135.67 6.63701z"/>
<path style="stroke:none; fill-rule:evenodd; fill:#000000" d="M 138.471 8.49701L 139.471 8.49701L 139.471 0.0980072L 138.471 0.0980072L 138.471 8.49701z"/>
<path style="stroke:none; fill-rule:evenodd; fill:#000000" d="M 151.069 2.72301C 150.733 0.895004 149.67 0 147.819 0C 146.686 0 145.776 0.356003 145.151 1.047C 144.389 1.875 143.975 3.071 143.975 4.43001C 143.975 5.80901 144.401 6.99701 145.198 7.813C 145.842 8.481 146.674 8.79001 147.772 8.79001C 149.826 8.79001 150.983 7.67601 151.241 5.438L 150.135 5.438C 150.045 6.028 149.932 6.43001 149.756 6.774C 149.412 7.485 148.698 7.88701 147.803 7.88701C 146.135 7.88701 145.076 6.53601 145.076 4.41501C 145.076 2.235 146.088 0.891006 147.713 0.891006C 148.389 0.891006 149.026 1.10201 149.369 1.42601C 149.678 1.71901 149.85 2.07901 149.979 2.711L 151.069 2.72301z"/>
<path style="stroke:none; fill-rule:evenodd; fill:#000000" d="M 154.807 2.297C 153.104 2.297 152.073 3.51201 152.073 5.547C 152.073 7.58301 153.092 8.797 154.823 8.797C 156.526 8.797 157.573 7.586 157.573 5.59801C 157.573 3.50801 156.565 2.30501 154.815 2.30501L 154.807 2.297zM 154.819 3.196C 155.912 3.196 156.569 4.08301 156.569 5.57901C 156.569 6.99301 155.893 7.89101 154.819 7.89101C 153.737 7.89101 153.069 7.004 153.069 5.543C 153.069 4.09401 153.733 3.196 154.819 3.196z"/>
<path style="stroke:none; fill-rule:evenodd; fill:#000000" d="M 158.869 2.46901L 158.869 8.49301L 159.869 8.49301L 159.869 5.36C 159.869 4.49701 160.08 3.93401 160.53 3.59801C 160.819 3.379 161.1 3.313 161.752 3.30101L 161.752 2.336C 161.596 2.317 161.518 2.30501 161.393 2.30501C 160.783 2.30501 160.319 2.672 159.772 3.567L 159.772 2.47701L 158.869 2.46901z"/>
<path style="stroke:none; fill-rule:evenodd; fill:#000000" d="M 164.768 2.49701L 163.869 2.49701L 163.869 0.82901L 162.869 0.82901L 162.869 2.49701L 161.971 2.49701L 161.971 3.293L 162.869 3.293L 162.869 7.84001C 162.869 8.446 163.272 8.79001 164.002 8.79001C 164.225 8.79001 164.451 8.76601 164.764 8.707L 164.764 7.87201C 164.651 7.961 164.514 7.989 164.346 7.989C 163.971 7.989 163.866 7.875 163.866 7.446L 163.866 3.293L 164.764 3.293L 164.768 2.49701z"/>
<path style="stroke:none; fill-rule:evenodd; fill:#000000" d="M 170.971 5.797C 170.971 4.879 170.905 4.32901 170.733 3.88301C 170.346 2.899 169.432 2.30101 168.315 2.30101C 166.651 2.30101 165.576 3.59401 165.576 5.58301C 165.576 7.571 166.612 8.797 168.287 8.797C 169.651 8.797 170.596 8.004 170.838 6.672L 169.885 6.672C 169.623 7.47701 169.092 7.895 168.33 7.895C 167.729 7.895 167.217 7.61801 166.901 7.10201C 166.674 6.754 166.596 6.403 166.584 5.797L 170.971 5.797zM 166.549 5.032C 166.627 3.918 167.307 3.196 168.268 3.196C 169.205 3.196 169.932 3.97301 169.932 4.961C 169.932 4.981 169.932 5.004 169.92 5.028L 166.549 5.032z"/>
<path style="stroke:none; fill-rule:evenodd; fill:#000000" d="M 174.823 5.395L 176.842 2.5L 175.764 2.5L 174.319 4.66501L 172.873 2.5L 171.783 2.5L 173.791 5.442L 171.67 8.49701L 172.76 8.49701L 174.283 6.192L 175.787 8.49701L 176.901 8.49701L 174.823 5.395z"/>
<path style="stroke:none; fill-rule:evenodd; fill:#000000" d="M 50.0684 112.684C 50.0604 111.047 48.9395 110.098 47.0253 110.098C 45.2011 110.098 44.0723 111.047 44.0723 112.575C 44.0723 113.602 44.6034 114.254 45.6933 114.543L 47.7479 115.098C 48.7909 115.376 49.2675 115.801 49.2675 116.461C 49.2675 116.911 49.0293 117.376 48.6815 117.629C 48.3534 117.86 47.8339 117.985 47.1659 117.985C 46.2714 117.985 45.662 117.758 45.2675 117.258C 44.9628 116.879 44.8261 116.461 44.8768 115.922L 43.8768 115.922C 43.8848 116.7 44.0331 117.211 44.3612 117.676C 44.9277 118.465 45.8808 118.883 47.1386 118.883C 48.1229 118.883 48.9277 118.657 49.4629 118.239C 50.0175 117.793 50.369 117.043 50.369 116.317C 50.369 115.282 49.7363 114.524 48.6113 114.211L 46.537 113.649C 45.5409 113.376 45.1777 113.051 45.1777 112.407C 45.1777 111.555 45.912 110.989 47.0175 110.989C 48.3261 110.989 49.0604 111.59 49.0723 112.676L 50.0684 112.684z"/>
<path style="stroke:none; fill-rule:evenodd; fill:#000000" d="M 53.869 112.598L 52.9706 112.598L 52.9706 110.93L 51.9706 110.93L 51.9706 112.598L 51.0723 112.598L 51.0723 113.395L 51.9706 113.395L 51.9706 117.942C 51.9706 118.547 52.3729 118.891 53.1034 118.891C 53.3261 118.891 53.5527 118.868 53.8652 118.809L 53.8652 117.973C 53.7518 118.063 53.6152 118.09 53.4473 118.09C 53.0723 118.09 52.9668 117.977 52.9668 117.547L 52.9668 113.395L 53.8652 113.395L 53.869 112.598z"/>
<path style="stroke:none; fill-rule:evenodd; fill:#000000" d="M 54.9706 112.571L 54.9706 118.594L 55.9706 118.594L 55.9706 115.461C 55.9706 114.598 56.1815 114.036 56.6309 113.7C 56.9199 113.481 57.2011 113.415 57.8534 113.403L 57.8534 112.438C 57.6973 112.418 57.619 112.407 57.494 112.407C 56.8848 112.407 56.4199 112.774 55.8729 113.668L 55.8729 112.579L 54.9706 112.571z"/>
<path style="stroke:none; fill-rule:evenodd; fill:#000000" d="M 59.6699 112.598L 58.6699 112.598L 58.6699 118.598L 59.6699 118.598L 59.6699 112.598zM 59.6699 110.196L 58.6699 110.196L 58.6699 111.43L 59.6699 111.43L 59.6699 110.196z"/>
<path style="stroke:none; fill-rule:evenodd; fill:#000000" d="M 66.6113 118.036C 66.5059 118.094 66.4589 118.094 66.4004 118.094C 66.0604 118.094 65.8729 117.922 65.8729 117.622L 65.8729 114.055C 65.8729 112.981 65.0956 112.399 63.6229 112.399C 62.7559 112.399 62.037 112.653 61.6348 113.102C 61.3613 113.411 61.2479 113.758 61.2245 114.36L 62.1699 114.36C 62.2479 113.629 62.6738 113.297 63.5565 113.297C 64.4004 113.297 64.8729 113.618 64.8729 114.196L 64.8729 114.45C 64.8729 114.852 64.6386 115.024 63.8964 115.118C 62.5723 115.29 62.369 115.336 62.0098 115.485C 61.3261 115.77 60.9784 116.313 60.9784 117.098C 60.9784 118.192 61.7324 118.883 62.9434 118.883C 63.6973 118.883 64.3027 118.61 64.9784 117.965C 65.0449 118.598 65.3418 118.883 65.9589 118.883C 66.1504 118.883 66.2988 118.86 66.6074 118.778L 66.6113 118.036zM 64.869 116.735C 64.869 117.063 64.7793 117.266 64.5018 117.54C 64.1229 117.903 63.6659 118.094 63.119 118.094C 62.3964 118.094 61.9706 117.731 61.9706 117.102C 61.9706 116.454 62.3809 116.122 63.3729 115.969C 64.3534 115.829 64.5527 115.782 64.8652 115.629L 64.869 116.735z"/>
<path style="stroke:none; fill-rule:evenodd; fill:#000000" d="M 69.7675 112.598L 68.869 112.598L 68.869 110.93L 67.869 110.93L 67.869 112.598L 66.9706 112.598L 66.9706 113.395L 67.869 113.395L 67.869 117.942C 67.869 118.547 68.2714 118.891 69.0018 118.891C 69.2245 118.891 69.4511 118.868 69.7636 118.809L 69.7636 117.973C 69.6504 118.063 69.5136 118.09 69.3456 118.09C 68.9706 118.09 68.8652 117.977 68.8652 117.547L 68.8652 113.395L 69.7636 113.395L 69.7675 112.598z"/>
<path style="stroke:none; fill-rule:evenodd; fill:#000000" d="M 75.6699 118.633L 75.6699 112.602L 74.6699 112.602L 74.6699 116.047C 74.6699 117.286 74.0254 118.098 73.0175 118.098C 72.2559 118.098 71.7714 117.637 71.7714 116.907L 71.7714 112.602L 70.7714 112.602L 70.7714 117.254C 70.7714 118.254 71.5293 118.899 72.7206 118.899C 73.619 118.899 74.1934 118.59 74.7675 117.797L 74.7675 118.637L 75.6699 118.633z"/>
<path style="stroke:none; fill-rule:evenodd; fill:#000000" d="M 77.2675 112.571L 77.2675 118.594L 78.2675 118.594L 78.2675 114.786C 78.2675 113.907 78.8925 113.2 79.662 113.2C 80.3652 113.2 80.7636 113.637 80.7636 114.415L 80.7636 118.594L 81.7636 118.594L 81.7636 114.786C 81.7636 113.907 82.3886 113.2 83.1581 113.2C 83.8495 113.2 84.2597 113.649 84.2597 114.415L 84.2597 118.594L 85.2597 118.594L 85.2597 114.075C 85.2597 112.997 84.6386 112.399 83.5059 112.399C 82.7011 112.399 82.2129 112.641 81.6504 113.329C 81.2949 112.68 80.8104 112.399 80.0254 112.399C 79.2206 112.399 78.6895 112.696 78.1699 113.418L 78.1699 112.571L 77.2675 112.571z"/>
<path style="stroke:#000000; stroke-width:0.95664899999999997; fill:none" d="M 5.01365 89.2973L 60.4979 89.2973L 60.4979 62.512L 5.01365 62.512L 5.01365 89.2973z"/>
<path style="stroke:none; fill-rule:evenodd; fill:#000000" d="M 202.768 54.743L 202.768 59.793L 203.565 59.793L 203.565 57.141C 203.565 56.411 203.741 55.934 204.116 55.649C 204.358 55.465 204.592 55.407 205.131 55.395L 205.131 54.625C 204.998 54.61 204.932 54.602 204.826 54.602C 204.315 54.602 203.92 54.911 203.463 55.661L 203.463 54.747L 202.768 54.743z"/>
<path style="stroke:none; fill-rule:evenodd; fill:#000000" d="M 210.17 57.598C 210.17 56.813 210.116 56.34 209.971 55.957C 209.651 55.114 208.889 54.602 207.955 54.602C 206.569 54.602 205.674 55.676 205.674 57.329C 205.674 58.977 206.537 59.997 207.94 59.997C 209.08 59.997 209.873 59.356 210.073 58.278L 209.268 58.278C 209.049 58.946 208.596 59.297 207.955 59.297C 207.448 59.297 207.018 59.071 206.744 58.657C 206.553 58.375 206.487 58.094 206.479 57.602L 210.17 57.598zM 206.502 56.907C 206.569 55.981 207.131 55.379 207.936 55.379C 208.717 55.379 209.323 56.028 209.323 56.852C 209.323 56.868 209.323 56.887 209.315 56.907L 206.502 56.907z"/>
<path style="stroke:none; fill-rule:evenodd; fill:#000000" d="M 213.295 59.797L 215.217 54.797L 214.319 54.797L 212.905 58.848L 211.569 54.797L 210.67 54.797L 212.428 59.797L 213.295 59.797z"/>
<path style="stroke:none; fill-rule:evenodd; fill:#000000" d="M 220.268 57.598C 220.268 56.813 220.213 56.34 220.069 55.957C 219.748 55.114 218.987 54.602 218.053 54.602C 216.666 54.602 215.772 55.676 215.772 57.329C 215.772 58.977 216.635 59.997 218.037 59.997C 219.178 59.997 219.971 59.356 220.17 58.278L 219.366 58.278C 219.147 58.946 218.694 59.297 218.053 59.297C 217.545 59.297 217.116 59.071 216.842 58.657C 216.651 58.375 216.584 58.094 216.576 57.602L 220.268 57.598zM 216.604 56.907C 216.67 55.981 217.233 55.379 218.037 55.379C 218.819 55.379 219.424 56.028 219.424 56.852C 219.424 56.868 219.424 56.887 219.416 56.907L 216.604 56.907z"/>
<path style="stroke:none; fill-rule:evenodd; fill:#000000" d="M 221.369 54.743L 221.369 59.793L 222.166 59.793L 222.166 57.141C 222.166 56.411 222.342 55.934 222.717 55.649C 222.959 55.465 223.194 55.407 223.733 55.395L 223.733 54.625C 223.6 54.61 223.533 54.602 223.428 54.602C 222.916 54.602 222.522 54.911 222.065 55.661L 222.065 54.747L 221.369 54.743z"/>
<path style="stroke:none; fill-rule:evenodd; fill:#000000" d="M 224.369 52.797L 224.369 59.797L 225.069 59.797L 225.069 59.157C 225.451 59.723 225.963 59.997 226.666 59.997C 227.994 59.997 228.862 58.911 228.862 57.239C 228.862 55.606 228.037 54.598 226.717 54.598C 226.03 54.598 225.541 54.868 225.166 55.461L 225.166 52.797L 224.369 52.797zM 226.576 55.387C 227.463 55.387 228.037 56.161 228.037 57.356C 228.037 58.493 227.448 59.266 226.576 59.266C 225.737 59.266 225.182 58.504 225.182 57.325C 225.182 56.149 225.737 55.383 226.576 55.383L 226.576 55.387z"/>
<path style="stroke:none; fill-rule:evenodd; fill:#000000" d="M 234.069 57.598C 234.069 56.813 234.014 56.34 233.869 55.957C 233.549 55.114 232.787 54.602 231.854 54.602C 230.467 54.602 229.573 55.676 229.573 57.329C 229.573 58.977 230.436 59.997 231.838 59.997C 232.979 59.997 233.772 59.356 233.971 58.278L 233.166 58.278C 232.948 58.946 232.494 59.297 231.854 59.297C 231.346 59.297 230.916 59.071 230.643 58.657C 230.451 58.375 230.385 58.094 230.377 57.602L 234.069 57.598zM 230.405 56.907C 230.471 55.981 231.033 55.379 231.838 55.379C 232.619 55.379 233.225 56.028 233.225 56.852C 233.225 56.868 233.225 56.887 233.217 56.907L 230.405 56.907z"/>
<path style="stroke:none; fill-rule:evenodd; fill:#000000" d="M 235.17 54.743L 235.17 59.793L 235.967 59.793L 235.967 57.141C 235.967 56.411 236.143 55.934 236.518 55.649C 236.76 55.465 236.994 55.407 237.533 55.395L 237.533 54.625C 237.401 54.61 237.334 54.602 237.229 54.602C 236.717 54.602 236.323 54.911 235.866 55.661L 235.866 54.747L 235.17 54.743z"/>
<path style="stroke:none; fill-rule:evenodd; fill:#000000" d="M 242.787 59.329C 242.701 59.301 242.662 59.301 242.612 59.301C 242.33 59.301 242.174 59.161 242.174 58.911L 242.174 55.969C 242.174 55.083 241.53 54.606 240.299 54.606C 239.576 54.606 238.979 54.821 238.643 55.204C 238.416 55.465 238.323 55.762 238.303 56.27L 239.1 56.27C 239.166 55.606 239.526 55.301 240.268 55.301C 240.979 55.301 241.377 55.571 241.377 56.055L 241.377 56.266C 241.377 56.602 241.178 56.747 240.553 56.825C 239.432 56.969 239.26 57.008 238.955 57.133C 238.377 57.372 238.08 57.829 238.08 58.489C 238.08 59.407 238.709 59.989 239.725 59.989C 240.354 59.989 240.862 59.778 241.428 59.274C 241.483 59.766 241.733 59.989 242.248 59.989C 242.409 59.989 242.533 59.973 242.791 59.907L 242.787 59.329zM 241.369 58.207C 241.369 58.469 241.295 58.633 241.053 58.848C 240.729 59.141 240.334 59.29 239.862 59.29C 239.237 59.29 238.873 58.997 238.873 58.497C 238.873 57.977 239.229 57.711 240.084 57.59C 240.928 57.477 241.1 57.442 241.369 57.317L 241.369 58.207z"/>
<path style="stroke:none; fill-rule:evenodd; fill:#000000" d="M 245.369 54.797L 244.573 54.797L 244.573 53.407L 243.776 53.407L 243.776 54.797L 243.076 54.797L 243.076 55.497L 243.776 55.497L 243.776 59.215C 243.776 59.711 244.116 59.993 244.729 59.993C 244.916 59.993 245.108 59.977 245.369 59.93L 245.369 59.282C 245.268 59.293 245.147 59.297 244.998 59.297C 244.666 59.297 244.573 59.204 244.573 58.86L 244.573 55.5L 245.369 55.5L 245.369 54.797z"/>
<path style="stroke:none; fill-rule:evenodd; fill:#000000" d="M 248.311 54.598C 246.916 54.598 246.073 55.606 246.073 57.297C 246.073 58.985 246.905 59.997 248.323 59.997C 249.717 59.997 250.573 58.989 250.573 57.336C 250.573 55.598 249.748 54.598 248.315 54.598L 248.311 54.598zM 248.319 55.297C 249.225 55.297 249.768 56.051 249.768 57.325C 249.768 58.528 249.209 59.293 248.319 59.293C 247.42 59.293 246.869 58.54 246.869 57.293C 246.869 56.059 247.42 55.293 248.319 55.293L 248.319 55.297z"/>
<path style="stroke:none; fill-rule:evenodd; fill:#000000" d="M 251.67 54.743L 251.67 59.793L 252.467 59.793L 252.467 57.141C 252.467 56.411 252.643 55.934 253.018 55.649C 253.26 55.465 253.494 55.407 254.033 55.395L 254.033 54.625C 253.901 54.61 253.834 54.602 253.729 54.602C 253.217 54.602 252.823 54.911 252.366 55.661L 252.366 54.747L 251.67 54.743z"/>
<path style="stroke:none; fill-rule:evenodd; fill:#000000" d="M 257.881 54.797L 256.494 58.684L 255.213 54.797L 254.366 54.797L 256.057 59.895L 255.752 60.7C 255.631 61.055 255.448 61.192 255.112 61.192C 254.998 61.192 254.866 61.141 254.694 61.04L 254.694 61.766C 254.854 61.852 255.018 61.891 255.229 61.891C 255.487 61.891 255.764 61.805 255.971 61.653C 256.217 61.473 256.362 61.262 256.514 60.86L 258.741 54.797L 257.881 54.797z"/>
<path style="stroke:none; fill-rule:evenodd; fill:#000000" d="M 218.768 69.395L 219.565 69.395L 219.565 62.399L 218.768 62.399L 218.768 69.395z"/>
<path style="stroke:none; fill-rule:evenodd; fill:#000000" d="M 222.811 64.196C 221.416 64.196 220.573 65.204 220.573 66.895C 220.573 68.583 221.405 69.594 222.823 69.594C 224.217 69.594 225.073 68.586 225.073 66.934C 225.073 65.196 224.248 64.196 222.815 64.196L 222.811 64.196zM 222.819 64.895C 223.725 64.895 224.268 65.649 224.268 66.922C 224.268 68.125 223.709 68.891 222.819 68.891C 221.92 68.891 221.369 68.137 221.369 66.891C 221.369 65.657 221.92 64.891 222.819 64.891L 222.819 64.895z"/>
<path style="stroke:none; fill-rule:evenodd; fill:#000000" d="M 228.108 64.196C 226.713 64.196 225.869 65.204 225.869 66.895C 225.869 68.583 226.701 69.594 228.119 69.594C 229.514 69.594 230.369 68.586 230.369 66.934C 230.369 65.196 229.545 64.196 228.112 64.196L 228.108 64.196zM 228.119 64.895C 229.026 64.895 229.569 65.649 229.569 66.922C 229.569 68.125 229.01 68.891 228.119 68.891C 227.221 68.891 226.67 68.137 226.67 66.891C 226.67 65.657 227.221 64.891 228.119 64.891L 228.119 64.895z"/>
<path style="stroke:none; fill-rule:evenodd; fill:#000000" d="M 231.268 71.485L 232.065 71.485L 232.065 68.903C 232.487 69.383 232.955 69.602 233.612 69.602C 234.909 69.602 235.764 68.555 235.764 66.954C 235.764 65.266 234.932 64.207 233.584 64.207C 232.897 64.207 232.346 64.516 231.967 65.11L 231.967 64.352L 231.268 64.352L 231.268 71.485zM 233.491 64.895C 234.385 64.895 234.967 65.692 234.967 66.922C 234.967 68.094 234.373 68.891 233.491 68.891C 232.635 68.891 232.073 68.106 232.073 66.891C 232.073 65.68 232.635 64.891 233.491 64.891L 233.491 64.895z"/>
<path style="stroke:none; fill-rule:evenodd; fill:#000000" d="M 240.358 65.782C 240.35 64.77 239.709 64.2 238.565 64.2C 237.416 64.2 236.67 64.809 236.67 65.75C 236.67 66.543 237.069 66.922 238.252 67.211L 238.994 67.395C 239.545 67.528 239.764 67.731 239.764 68.098C 239.764 68.571 239.291 68.891 238.584 68.891C 238.151 68.891 237.783 68.766 237.576 68.551C 237.451 68.407 237.393 68.262 237.346 67.903L 236.494 67.903C 236.53 69.043 237.182 69.594 238.498 69.594C 239.764 69.594 240.569 68.965 240.569 67.989C 240.569 67.235 240.151 66.817 239.159 66.575L 238.397 66.391C 237.752 66.239 237.475 66.024 237.475 65.665C 237.475 65.2 237.881 64.899 238.53 64.899C 239.166 64.899 239.506 65.204 239.526 65.782L 240.358 65.782z"/>
<path style="stroke:#000000; stroke-dasharray:6,3; stroke-width:0.95664899999999997; fill:none" d="M 115.916 129.501L 115.916 140.973L 213.44 140.973L 213.44 116.114"/>
<path style="stroke:#000000; stroke-dasharray:6,3; stroke-width:0.95664899999999997; fill:none" d="M 211.53 123.77L 213.44 116.118L 215.35 123.77"/>
<path style="stroke:#000000; stroke-dasharray:6,3; stroke-width:0.95664899999999997; fill:none" d="M 135.041 129.501L 135.041 139.059L 219.182 139.059L 219.182 116.114"/>
<path style="stroke:#000000; stroke-dasharray:6,3; stroke-width:0.95664899999999997; fill:none" d="M 217.268 123.77L 219.178 116.118L 221.088 123.77"/>
<path style="stroke:#000000; stroke-dasharray:6,3; stroke-width:0.95664899999999997; fill:none" d="M 154.162 129.501L 154.162 137.149L 224.916 137.149L 224.916 116.118"/>
<path style="stroke:#000000; stroke-dasharray:6,3; stroke-width:0.95664899999999997; fill:none" d="M 223.002 123.77L 224.912 116.118L 226.823 123.77"/>
<path style="stroke:#000000; stroke-width:0.95664899999999997; fill:none" d="M 205.909 116.071L 211.647 116.071L 211.647 110.333L 205.909 110.333L 205.909 116.071z"/>
<path style="stroke:#000000; stroke-width:0.95664899999999997; fill:none" d="M 211.651 116.071L 217.389 116.071L 217.389 110.333L 211.651 110.333L 211.651 116.071z"/>
<path style="stroke:#000000; stroke-width:0.95664899999999997; fill:none" d="M 217.389 116.071L 223.127 116.071L 223.127 110.333L 217.389 110.333L 217.389 116.071z"/>
<path style="stroke:#000000; stroke-width:0.95664899999999997; fill:none" d="M 223.131 116.071L 228.869 116.071L 228.869 110.333L 223.131 110.333L 223.131 116.071z"/>
<path style="stroke:#000000; stroke-width:0.95664899999999997; fill:none" d="M 228.869 116.071L 234.608 116.071L 234.608 110.333L 228.869 110.333L 228.869 116.071z"/>
<path style="stroke:#000000; stroke-width:0.95664899999999997; fill:none" d="M 234.612 116.071L 240.35 116.071L 240.35 110.333L 234.612 110.333L 234.612 116.071z"/>
<path style="stroke:#000000; stroke-dasharray:6,3; stroke-width:0.95664899999999997; fill:none" d="M 207.705 110.379L 207.705 96.9966"/>
<path style="stroke:#000000; stroke-dasharray:6,3; stroke-width:0.95664899999999997; fill:none" d="M 205.791 104.645L 207.701 96.9927L 209.612 104.645"/>
<path style="stroke:#000000; stroke-dasharray:6,3; stroke-width:0.95664899999999997; fill:none" d="M 213.448 110.376L 213.448 96.9927"/>
<path style="stroke:#000000; stroke-dasharray:6,3; stroke-width:0.95664899999999997; fill:none" d="M 211.533 104.641L 213.444 96.9888L 215.354 104.641"/>
<path style="stroke:#000000; stroke-dasharray:6,3; stroke-width:0.95664899999999997; fill:none" d="M 219.19 110.372L 219.19 96.9888"/>
<path style="stroke:#000000; stroke-dasharray:6,3; stroke-width:0.95664899999999997; fill:none" d="M 217.276 104.637L 219.186 96.9848L 221.096 104.637"/>
<path style="stroke:#000000; stroke-dasharray:6,3; stroke-width:0.95664899999999997; fill:none" d="M 224.928 110.368L 224.928 96.9848"/>
<path style="stroke:#000000; stroke-dasharray:6,3; stroke-width:0.95664899999999997; fill:none" d="M 223.018 104.633L 224.928 96.9809L 226.838 104.633"/>
<path style="stroke:#000000; stroke-dasharray:6,3; stroke-width:0.95664899999999997; fill:none" d="M 230.67 110.364L 230.67 96.9809"/>
<path style="stroke:#000000; stroke-dasharray:6,3; stroke-width:0.95664899999999997; fill:none" d="M 228.756 104.629L 230.666 96.977L 232.576 104.629"/>
<path style="stroke:#000000; stroke-dasharray:6,3; stroke-width:0.95664899999999997; fill:none" d="M 236.412 110.36L 236.412 96.977"/>
<path style="stroke:#000000; stroke-dasharray:6,3; stroke-width:0.95664899999999997; fill:none" d="M 234.498 104.626L 236.409 96.9731L 238.319 104.626"/>
<path style="stroke:#000000; stroke-dasharray:6,3; stroke-width:0.95664899999999997; fill:none" d="M 96.7946 129.501L 96.7946 142.883L 207.705 142.883L 207.705 116.114"/>
<path style="stroke:#000000; stroke-dasharray:6,3; stroke-width:0.95664899999999997; fill:none" d="M 205.791 123.77L 207.701 116.118L 209.612 123.77"/>
<path style="stroke:#000000; stroke-dasharray:6,3; stroke-width:0.95664899999999997; fill:none" d="M 173.287 129.501L 173.287 135.235L 230.655 135.235L 230.655 116.114"/>
<path style="stroke:#000000; stroke-dasharray:6,3; stroke-width:0.95664899999999997; fill:none" d="M 228.741 123.77L 230.651 116.118L 232.561 123.77"/>
<path style="stroke:#000000; stroke-dasharray:6,3; stroke-width:0.95664899999999997; fill:none" d="M 192.409 129.501L 192.409 133.325L 236.389 133.325L 236.389 116.114"/>
<path style="stroke:#000000; stroke-dasharray:6,3; stroke-width:0.95664899999999997; fill:none" d="M 234.479 123.77L 236.389 116.118L 238.299 123.77"/>
<path style="stroke:none; fill-rule:evenodd; fill:#000000" d="M 142.268 146.598L 141.471 146.598L 141.471 151.598L 142.268 151.598L 142.268 146.598zM 142.268 144.598L 141.471 144.598L 141.471 145.626L 142.268 145.626L 142.268 144.598z"/>
<path style="stroke:none; fill-rule:evenodd; fill:#000000" d="M 143.67 146.543L 143.67 151.594L 144.467 151.594L 144.467 148.805C 144.467 147.774 145.002 147.098 145.826 147.098C 146.459 147.098 146.862 147.485 146.862 148.09L 146.862 151.594L 147.659 151.594L 147.659 147.778C 147.659 146.942 147.03 146.399 146.049 146.399C 145.295 146.399 144.807 146.688 144.362 147.391L 144.362 146.543L 143.67 146.543z"/>
<path style="stroke:none; fill-rule:evenodd; fill:#000000" d="M 148.971 144.598L 148.971 151.598L 149.768 151.598L 149.768 148.809C 149.768 147.778 150.303 147.102 151.127 147.102C 151.385 147.102 151.643 147.188 151.834 147.333C 152.061 147.493 152.159 147.735 152.159 148.094L 152.159 151.598L 152.955 151.598L 152.955 147.782C 152.955 146.934 152.354 146.403 151.369 146.403C 150.659 146.403 150.229 146.633 149.756 147.278L 149.756 144.606L 148.971 144.598z"/>
<path style="stroke:none; fill-rule:evenodd; fill:#000000" d="M 155.069 146.598L 154.272 146.598L 154.272 151.598L 155.069 151.598L 155.069 146.598zM 155.069 144.598L 154.272 144.598L 154.272 145.626L 155.069 145.626L 155.069 144.598z"/>
<path style="stroke:none; fill-rule:evenodd; fill:#000000" d="M 156.268 144.598L 156.268 151.598L 156.967 151.598L 156.967 150.958C 157.35 151.524 157.862 151.797 158.565 151.797C 159.893 151.797 160.76 150.711 160.76 149.04C 160.76 147.407 159.936 146.399 158.616 146.399C 157.928 146.399 157.44 146.668 157.065 147.262L 157.065 144.598L 156.268 144.598zM 158.475 147.188C 159.362 147.188 159.936 147.961 159.936 149.157C 159.936 150.293 159.346 151.067 158.475 151.067C 157.635 151.067 157.08 150.305 157.08 149.126C 157.08 147.95 157.635 147.184 158.475 147.184L 158.475 147.188z"/>
<path style="stroke:none; fill-rule:evenodd; fill:#000000" d="M 162.471 146.598L 161.674 146.598L 161.674 151.598L 162.471 151.598L 162.471 146.598zM 162.471 144.598L 161.674 144.598L 161.674 145.626L 162.471 145.626L 162.471 144.598z"/>
<path style="stroke:none; fill-rule:evenodd; fill:#000000" d="M 165.569 146.598L 164.772 146.598L 164.772 145.208L 163.975 145.208L 163.975 146.598L 163.276 146.598L 163.276 147.297L 163.975 147.297L 163.975 151.016C 163.975 151.512 164.315 151.793 164.928 151.793C 165.116 151.793 165.307 151.778 165.569 151.731L 165.569 151.083C 165.467 151.094 165.346 151.098 165.198 151.098C 164.866 151.098 164.772 151.004 164.772 150.661L 164.772 147.301L 165.569 147.301L 165.569 146.598z"/>
<path style="stroke:none; fill-rule:evenodd; fill:#000000" d="M 167.268 146.598L 166.471 146.598L 166.471 151.598L 167.268 151.598L 167.268 146.598zM 167.268 144.598L 166.471 144.598L 166.471 145.626L 167.268 145.626L 167.268 144.598z"/>
<path style="stroke:none; fill-rule:evenodd; fill:#000000" d="M 170.608 146.395C 169.213 146.395 168.369 147.403 168.369 149.094C 168.369 150.782 169.201 151.793 170.619 151.793C 172.014 151.793 172.869 150.786 172.869 149.133C 172.869 147.395 172.045 146.395 170.612 146.395L 170.608 146.395zM 170.619 147.098C 171.526 147.098 172.069 147.852 172.069 149.126C 172.069 150.329 171.51 151.094 170.619 151.094C 169.721 151.094 169.17 150.34 169.17 149.094C 169.17 147.86 169.721 147.094 170.619 147.094L 170.619 147.098z"/>
<path style="stroke:none; fill-rule:evenodd; fill:#000000" d="M 173.971 146.543L 173.971 151.594L 174.768 151.594L 174.768 148.805C 174.768 147.774 175.303 147.098 176.127 147.098C 176.76 147.098 177.162 147.485 177.162 148.09L 177.162 151.594L 177.959 151.594L 177.959 147.778C 177.959 146.942 177.33 146.399 176.35 146.399C 175.596 146.399 175.108 146.688 174.662 147.391L 174.662 146.543L 173.971 146.543z"/>
<path style="stroke:none; fill-rule:evenodd; fill:#000000" d="M 5.16985 44.196L 7.81045 44.196C 8.46675 44.196 8.98625 44.004 9.43945 43.602C 9.94725 43.149 10.1659 42.61 10.1659 41.844C 10.1659 40.282 9.22845 39.399 7.55655 39.399L 4.06835 39.399L 4.06835 47.797L 5.16595 47.797L 5.16985 44.196zM 5.16985 43.297L 5.16985 40.297L 7.41985 40.297C 8.45115 40.297 9.06835 40.86 9.06835 41.797C 9.06835 42.731 8.45505 43.297 7.41985 43.297L 5.16985 43.297z"/>
<path style="stroke:none; fill-rule:evenodd; fill:#000000" d="M 13.9081 41.598C 12.205 41.598 11.1737 42.813 11.1737 44.848C 11.1737 46.883 12.1933 48.098 13.9237 48.098C 15.6268 48.098 16.6737 46.887 16.6737 44.899C 16.6737 42.809 15.6659 41.606 13.9159 41.606L 13.9081 41.598zM 13.9198 42.497C 15.0136 42.497 15.6698 43.383 15.6698 44.879C 15.6698 46.293 14.994 47.192 13.9198 47.192C 12.8378 47.192 12.1698 46.305 12.1698 44.844C 12.1698 43.395 12.8339 42.497 13.9198 42.497z"/>
<path style="stroke:none; fill-rule:evenodd; fill:#000000" d="M 22.1972 43.457C 22.1854 42.27 21.4003 41.598 19.9979 41.598C 18.5878 41.598 17.6737 42.325 17.6737 43.446C 17.6737 44.391 18.162 44.84 19.6112 45.188L 20.5214 45.407C 21.1972 45.567 21.4667 45.809 21.4667 46.247C 21.4667 46.809 20.9003 47.192 20.0565 47.192C 19.537 47.192 19.0995 47.043 18.8573 46.786C 18.7089 46.614 18.6386 46.438 18.58 46.004L 17.5644 46.004C 17.6073 47.415 18.3925 48.094 19.9745 48.094C 21.4979 48.094 22.4667 47.344 22.4667 46.18C 22.4667 45.282 21.955 44.786 20.7401 44.497L 19.8065 44.278C 19.0136 44.094 18.6737 43.84 18.6737 43.415C 18.6737 42.864 19.1698 42.504 19.9589 42.504C 20.7323 42.504 21.1503 42.833 21.1737 43.461L 22.1972 43.457z"/>
<path style="stroke:none; fill-rule:evenodd; fill:#000000" d="M 25.7675 41.797L 24.869 41.797L 24.869 40.129L 23.869 40.129L 23.869 41.797L 22.9706 41.797L 22.9706 42.594L 23.869 42.594L 23.869 47.141C 23.869 47.747 24.2714 48.09 25.0018 48.09C 25.2245 48.09 25.4511 48.067 25.7636 48.008L 25.7636 47.172C 25.6503 47.262 25.5136 47.29 25.3456 47.29C 24.9706 47.29 24.8651 47.176 24.8651 46.747L 24.8651 42.594L 25.7636 42.594L 25.7675 41.797z"/>
<path style="stroke:none; fill-rule:evenodd; fill:#000000" d="M 31.9706 45.098C 31.9706 44.18 31.9042 43.629 31.7323 43.184C 31.3456 42.2 30.4315 41.602 29.3144 41.602C 27.6503 41.602 26.5761 42.895 26.5761 44.883C 26.5761 46.872 27.6112 48.098 29.287 48.098C 30.6503 48.098 31.5956 47.305 31.8378 45.973L 30.8847 45.973C 30.6229 46.778 30.0917 47.196 29.33 47.196C 28.7284 47.196 28.2167 46.918 27.9003 46.403C 27.6737 46.055 27.5956 45.704 27.5839 45.098L 31.9706 45.098zM 27.5487 44.329C 27.6268 43.215 28.3065 42.493 29.2675 42.493C 30.205 42.493 30.9315 43.27 30.9315 44.258C 30.9315 44.278 30.9315 44.301 30.9198 44.325L 27.5487 44.329z"/>
<path style="stroke:none; fill-rule:evenodd; fill:#000000" d="M 33.2675 41.77L 33.2675 47.793L 34.2675 47.793L 34.2675 44.661C 34.2675 43.797 34.4784 43.235 34.9277 42.899C 35.2168 42.68 35.4979 42.614 36.1503 42.602L 36.1503 41.637C 35.994 41.618 35.9159 41.606 35.7909 41.606C 35.1815 41.606 34.7168 41.973 34.1698 42.868L 34.1698 41.778L 33.2675 41.77z"/>
<path style="stroke:none; fill-rule:evenodd; fill:#000000" d="M 37.9706 41.797L 36.9706 41.797L 36.9706 47.797L 37.9706 47.797L 37.9706 41.797zM 37.9706 39.395L 36.9706 39.395L 36.9706 40.629L 37.9706 40.629L 37.9706 39.395z"/>
<path style="stroke:none; fill-rule:evenodd; fill:#000000" d="M 42.0058 41.598C 40.3027 41.598 39.2714 42.813 39.2714 44.848C 39.2714 46.883 40.2909 48.098 42.0214 48.098C 43.7245 48.098 44.7714 46.887 44.7714 44.899C 44.7714 42.809 43.7636 41.606 42.0136 41.606L 42.0058 41.598zM 42.0175 42.497C 43.1112 42.497 43.7675 43.383 43.7675 44.879C 43.7675 46.293 43.0918 47.192 42.0175 47.192C 40.9354 47.192 40.2675 46.305 40.2675 44.844C 40.2675 43.395 40.9315 42.497 42.0175 42.497z"/>
<path style="stroke:none; fill-rule:evenodd; fill:#000000" d="M 45.9706 41.77L 45.9706 47.793L 46.9706 47.793L 46.9706 44.661C 46.9706 43.797 47.1815 43.235 47.6308 42.899C 47.9198 42.68 48.2011 42.614 48.8534 42.602L 48.8534 41.637C 48.6973 41.618 48.619 41.606 48.494 41.606C 47.8848 41.606 47.4198 41.973 46.8729 42.868L 46.8729 41.778L 45.9706 41.77z"/>
<path style="stroke:none; fill-rule:evenodd; fill:#000000" d="M 10.6698 53.422C 10.3339 51.594 9.27145 50.7 7.41985 50.7C 6.28705 50.7 5.37685 51.055 4.75185 51.747C 3.99015 52.575 3.57615 53.77 3.57615 55.129C 3.57615 56.508 4.00185 57.696 4.79875 58.512C 5.44335 59.18 6.27535 59.489 7.37295 59.489C 9.42765 59.489 10.5839 58.375 10.8417 56.137L 9.73625 56.137C 9.64645 56.727 9.53315 57.129 9.35735 57.473C 9.01365 58.184 8.29875 58.586 7.40425 58.586C 5.73625 58.586 4.67765 57.235 4.67765 55.114C 4.67765 52.934 5.68945 51.59 7.31445 51.59C 7.99015 51.59 8.62685 51.801 8.97065 52.125C 9.27925 52.418 9.45115 52.778 9.58005 53.411L 10.6698 53.422z"/>
<path style="stroke:none; fill-rule:evenodd; fill:#000000" d="M 14.5058 52.997C 12.8026 52.997 11.7714 54.211 11.7714 56.247C 11.7714 58.282 12.7909 59.497 14.5214 59.497C 16.2245 59.497 17.2714 58.286 17.2714 56.297C 17.2714 54.207 16.2636 53.004 14.5136 53.004L 14.5058 52.997zM 14.5175 53.895C 15.6112 53.895 16.2675 54.782 16.2675 56.278C 16.2675 57.692 15.5917 58.59 14.5175 58.59C 13.4354 58.59 12.7675 57.704 12.7675 56.243C 12.7675 54.793 13.4315 53.895 14.5175 53.895z"/>
<path style="stroke:none; fill-rule:evenodd; fill:#000000" d="M 18.5683 53.168L 18.5683 59.192L 19.5683 59.192L 19.5683 56.059C 19.5683 55.196 19.7792 54.633 20.2284 54.297C 20.5175 54.079 20.7987 54.012 21.4511 54L 21.4511 53.036C 21.2948 53.016 21.2167 53.004 21.0917 53.004C 20.4823 53.004 20.0175 53.372 19.4706 54.266L 19.4706 53.176L 18.5683 53.168z"/>
<path style="stroke:none; fill-rule:evenodd; fill:#000000" d="M 24.4706 53.196L 23.5722 53.196L 23.5722 51.528L 22.5722 51.528L 22.5722 53.196L 21.6737 53.196L 21.6737 53.993L 22.5722 53.993L 22.5722 58.54C 22.5722 59.145 22.9745 59.489 23.705 59.489C 23.9276 59.489 24.1542 59.465 24.4667 59.407L 24.4667 58.571C 24.3534 58.661 24.2167 58.688 24.0487 58.688C 23.6737 58.688 23.5683 58.575 23.5683 58.145L 23.5683 53.993L 24.4667 53.993L 24.4706 53.196z"/>
<path style="stroke:none; fill-rule:evenodd; fill:#000000" d="M 30.6698 56.497C 30.6698 55.579 30.6034 55.028 30.4315 54.583C 30.0448 53.598 29.1308 53 28.0136 53C 26.3495 53 25.2753 54.293 25.2753 56.282C 25.2753 58.27 26.3104 59.497 27.9862 59.497C 29.3495 59.497 30.2948 58.704 30.537 57.372L 29.5839 57.372C 29.3222 58.176 28.7909 58.594 28.0292 58.594C 27.4276 58.594 26.9159 58.317 26.5995 57.801C 26.3729 57.454 26.2948 57.102 26.2831 56.497L 30.6698 56.497zM 26.2479 55.731C 26.3261 54.618 27.0058 53.895 27.9667 53.895C 28.9042 53.895 29.6308 54.672 29.6308 55.661C 29.6308 55.68 29.6308 55.704 29.619 55.727L 26.2479 55.731z"/>
<path style="stroke:none; fill-rule:evenodd; fill:#000000" d="M 34.5214 56.094L 36.5409 53.2L 35.4628 53.2L 34.0175 55.364L 32.5723 53.2L 31.4823 53.2L 33.4902 56.141L 31.369 59.196L 32.4589 59.196L 33.9823 56.891L 35.4862 59.196L 36.5995 59.196L 34.5214 56.094z"/>
<path style="stroke:none; fill-rule:evenodd; fill:#000000" d="M 250.471 112.196L 246.873 112.196L 246.873 113.094L 249.471 113.094L 249.471 113.329C 249.471 114.872 248.373 115.989 246.854 115.989C 246.01 115.989 245.244 115.676 244.752 115.129C 244.205 114.524 243.873 113.512 243.873 112.461C 243.873 110.376 245.037 108.997 246.799 108.997C 248.065 108.997 248.979 109.665 249.209 110.762L 250.295 110.762C 249.998 109.071 248.709 108.094 246.791 108.094C 245.772 108.094 244.944 108.36 244.287 108.899C 243.326 109.704 242.772 111.004 242.772 112.512C 242.772 115.09 244.342 116.887 246.608 116.887C 247.744 116.887 248.651 116.461 249.467 115.551L 249.744 116.665L 250.463 116.665L 250.471 112.196z"/>
<path style="stroke:none; fill-rule:evenodd; fill:#000000" d="M 253.268 112.997L 255.909 112.997C 256.565 112.997 257.084 112.805 257.537 112.403C 258.045 111.95 258.264 111.411 258.264 110.645C 258.264 109.083 257.326 108.2 255.655 108.2L 252.166 108.2L 252.166 116.598L 253.264 116.598L 253.268 112.997zM 253.268 112.098L 253.268 109.098L 255.518 109.098C 256.549 109.098 257.166 109.661 257.166 110.598C 257.166 111.532 256.553 112.098 255.518 112.098L 253.268 112.098z"/>
<path style="stroke:none; fill-rule:evenodd; fill:#000000" d="M 260.569 110.598L 259.569 110.598L 259.569 116.598L 260.569 116.598L 260.569 110.598zM 260.569 108.196L 259.569 108.196L 259.569 109.43L 260.569 109.43L 260.569 108.196z"/>
<path style="stroke:none; fill-rule:evenodd; fill:#000000" d="M 263.998 108.196L 261.28 116.825L 261.909 116.825L 264.627 108.196L 263.998 108.196z"/>
<path style="stroke:none; fill-rule:evenodd; fill:#000000" d="M 271.369 110.684C 271.362 109.047 270.241 108.098 268.326 108.098C 266.502 108.098 265.373 109.047 265.373 110.575C 265.373 111.602 265.905 112.254 266.994 112.543L 269.049 113.098C 270.092 113.376 270.569 113.801 270.569 114.461C 270.569 114.911 270.33 115.376 269.983 115.629C 269.655 115.86 269.135 115.985 268.467 115.985C 267.573 115.985 266.963 115.758 266.569 115.258C 266.264 114.879 266.127 114.461 266.178 113.922L 265.178 113.922C 265.186 114.7 265.334 115.211 265.662 115.676C 266.229 116.465 267.182 116.883 268.44 116.883C 269.424 116.883 270.229 116.657 270.764 116.239C 271.319 115.793 271.67 115.043 271.67 114.317C 271.67 113.282 271.037 112.524 269.912 112.211L 267.838 111.649C 266.842 111.376 266.479 111.051 266.479 110.407C 266.479 109.555 267.213 108.989 268.319 108.989C 269.627 108.989 270.362 109.59 270.373 110.676L 271.369 110.684z"/>
<path style="stroke:none; fill-rule:evenodd; fill:#000000" d="M 279.67 108.196L 278.67 108.196L 278.67 115.067L 274.323 108.196L 273.174 108.196L 273.174 116.594L 274.174 116.594L 274.174 109.813L 278.475 116.594L 279.67 116.594L 279.67 108.196z"/>
<path style="stroke:none; fill-rule:evenodd; fill:#000000" d="M 281.369 110.571L 281.369 116.594L 282.369 116.594L 282.369 113.461C 282.369 112.598 282.58 112.036 283.03 111.7C 283.319 111.481 283.6 111.415 284.252 111.403L 284.252 110.438C 284.096 110.418 284.018 110.407 283.893 110.407C 283.283 110.407 282.819 110.774 282.272 111.668L 282.272 110.579L 281.369 110.571z"/>
<path style="stroke:none; fill-rule:evenodd; fill:#000000" d="M 245.869 89.4966L 248.573 89.4966L 248.573 88.5981L 242.01 88.5981L 242.01 89.4966L 244.768 89.4966L 244.768 96.9966L 245.866 96.9966L 245.869 89.4966z"/>
<path style="stroke:none; fill-rule:evenodd; fill:#000000" d="M 249.569 88.5981L 249.569 96.9966L 250.569 96.9966L 250.569 93.6489C 250.569 92.4106 251.194 91.5981 252.159 91.5981C 252.459 91.5981 252.76 91.6997 252.987 91.8755C 253.252 92.0708 253.366 92.3598 253.366 92.7895L 253.366 96.9927L 254.366 96.9927L 254.366 92.438C 254.366 91.4262 253.647 90.7934 252.483 90.7934C 251.639 90.7934 251.127 91.0591 250.569 91.8012L 250.569 88.5903L 249.569 88.5981z"/>
<path style="stroke:none; fill-rule:evenodd; fill:#000000" d="M 261.311 96.4341C 261.205 96.4927 261.159 96.4927 261.1 96.4927C 260.76 96.4927 260.573 96.3208 260.573 96.02L 260.573 92.4536C 260.573 91.3794 259.795 90.7973 258.323 90.7973C 257.455 90.7973 256.737 91.0512 256.334 91.5005C 256.061 91.8091 255.948 92.1567 255.924 92.7583L 256.869 92.7583C 256.948 92.0278 257.373 91.6958 258.256 91.6958C 259.1 91.6958 259.573 92.0161 259.573 92.5942L 259.573 92.8481C 259.573 93.2505 259.338 93.4223 258.596 93.5161C 257.272 93.688 257.069 93.7348 256.709 93.8833C 256.026 94.1684 255.678 94.7114 255.678 95.4966C 255.678 96.5903 256.432 97.2817 257.643 97.2817C 258.397 97.2817 259.002 97.0083 259.678 96.3638C 259.744 96.9966 260.041 97.2817 260.659 97.2817C 260.85 97.2817 260.998 97.2583 261.307 97.1762L 261.311 96.4341zM 259.569 95.1372C 259.569 95.4653 259.479 95.6684 259.201 95.9419C 258.823 96.3052 258.366 96.4966 257.819 96.4966C 257.096 96.4966 256.67 96.1333 256.67 95.5044C 256.67 94.8559 257.08 94.5239 258.073 94.3716C 259.053 94.2309 259.252 94.1841 259.565 94.0317L 259.569 95.1372z"/>
<path style="stroke:none; fill-rule:evenodd; fill:#000000" d="M 262.369 96.9966L 263.369 96.9966L 263.369 88.5981L 262.369 88.5981L 262.369 96.9966z"/>
<path style="stroke:none; fill-rule:evenodd; fill:#000000" d="M 270.209 96.4341C 270.104 96.4927 270.057 96.4927 269.998 96.4927C 269.659 96.4927 269.471 96.3208 269.471 96.02L 269.471 92.4536C 269.471 91.3794 268.694 90.7973 267.221 90.7973C 266.354 90.7973 265.635 91.0512 265.233 91.5005C 264.959 91.8091 264.846 92.1567 264.823 92.7583L 265.768 92.7583C 265.846 92.0278 266.272 91.6958 267.155 91.6958C 267.998 91.6958 268.471 92.0161 268.471 92.5942L 268.471 92.8481C 268.471 93.2505 268.237 93.4223 267.494 93.5161C 266.17 93.688 265.967 93.7348 265.608 93.8833C 264.924 94.1684 264.576 94.7114 264.576 95.4966C 264.576 96.5903 265.33 97.2817 266.541 97.2817C 267.295 97.2817 267.901 97.0083 268.576 96.3638C 268.643 96.9966 268.94 97.2817 269.557 97.2817C 269.748 97.2817 269.897 97.2583 270.205 97.1762L 270.209 96.4341zM 268.471 95.1372C 268.471 95.4653 268.381 95.6684 268.104 95.9419C 267.725 96.3052 267.268 96.4966 266.721 96.4966C 265.998 96.4966 265.573 96.1333 265.573 95.5044C 265.573 94.8559 265.983 94.5239 266.975 94.3716C 267.955 94.2309 268.155 94.1841 268.467 94.0317L 268.471 95.1372z"/>
<path style="stroke:none; fill-rule:evenodd; fill:#000000" d="M 271.268 90.9692L 271.268 96.9927L 272.268 96.9927L 272.268 93.1841C 272.268 92.3052 272.893 91.5981 273.662 91.5981C 274.366 91.5981 274.764 92.0356 274.764 92.813L 274.764 96.9927L 275.764 96.9927L 275.764 93.1841C 275.764 92.3052 276.389 91.5981 277.159 91.5981C 277.85 91.5981 278.26 92.0473 278.26 92.813L 278.26 96.9927L 279.26 96.9927L 279.26 92.4731C 279.26 91.395 278.639 90.7973 277.506 90.7973C 276.701 90.7973 276.213 91.0395 275.651 91.727C 275.295 91.0786 274.811 90.7973 274.026 90.7973C 273.221 90.7973 272.69 91.0942 272.17 91.8169L 272.17 90.9692L 271.268 90.9692z"/>
<path style="stroke:none; fill-rule:evenodd; fill:#000000" d="M 285.67 97.0317L 285.67 91.0005L 284.67 91.0005L 284.67 94.4458C 284.67 95.6841 284.026 96.4966 283.018 96.4966C 282.256 96.4966 281.772 96.0356 281.772 95.3052L 281.772 91.0005L 280.772 91.0005L 280.772 95.6528C 280.772 96.6528 281.53 97.2973 282.721 97.2973C 283.619 97.2973 284.194 96.9888 284.768 96.1958L 284.768 97.0356L 285.67 97.0317z"/>
<path style="stroke:none; fill-rule:evenodd; fill:#000000" d="M 291.498 92.6567C 291.487 91.4692 290.701 90.7973 289.299 90.7973C 287.889 90.7973 286.975 91.5239 286.975 92.645C 286.975 93.5903 287.463 94.0395 288.912 94.3872L 289.823 94.6059C 290.498 94.7661 290.768 95.0083 290.768 95.4458C 290.768 96.0083 290.201 96.3911 289.358 96.3911C 288.838 96.3911 288.401 96.2427 288.159 95.9848C 288.01 95.813 287.94 95.6372 287.881 95.2036L 286.866 95.2036C 286.909 96.6138 287.694 97.2934 289.276 97.2934C 290.799 97.2934 291.768 96.5434 291.768 95.3794C 291.768 94.4809 291.256 93.9848 290.041 93.6958L 289.108 93.477C 288.315 93.2934 287.975 93.0395 287.975 92.6138C 287.975 92.063 288.471 91.7036 289.26 91.7036C 290.033 91.7036 290.451 92.0317 290.475 92.6606L 291.498 92.6567z"/>
<path style="stroke:#000000; stroke-width:0.95664899999999997; fill:none" d="M 60.5018 62.993L 74.369 53.907L 71.0214 50.083L 82.0214 53.43L 82.0214 64.43L 79.1543 60.606L 60.9784 70.168"/>
<path style="stroke:#000000; stroke-width:0.95664899999999997; fill:none" d="M 60.9784 89.7778L 74.8456 98.8638L 71.4979 102.688L 82.4979 99.3403L 82.4979 88.3403L 79.6309 92.1645L 61.455 82.602"/>
<path style="stroke:#000000; stroke-width:0.95664899999999997; fill:none" d="M 205.912 91.2114L 94.9436 52.946"/>
<path style="stroke:#000000; stroke-width:0.95664899999999997; fill:none" d="M 199.299 86.9106L 205.909 91.2114L 198.053 90.5278"/>
<path style="stroke:#000000; stroke-width:0.95664899999999997; fill:none" d="M 101.549 57.25L 94.9397 52.95L 102.795 53.633"/>
<path style="stroke:#000000; stroke-width:0.95664899999999997; fill:none" d="M 213.565 91.2114L 114.076 52.946"/>
<path style="stroke:#000000; stroke-width:0.95664899999999997; fill:none" d="M 207.108 86.6802L 213.561 91.2114L 205.733 90.2505"/>
<path style="stroke:#000000; stroke-width:0.95664899999999997; fill:none" d="M 120.53 57.477L 114.076 52.946L 121.905 53.907"/>
<path style="stroke:#000000; stroke-width:0.95664899999999997; fill:none" d="M 219.307 91.2114L 133.209 52.946"/>
<path style="stroke:#000000; stroke-width:0.95664899999999997; fill:none" d="M 213.088 86.3559L 219.303 91.2114L 211.533 89.852"/>
<path style="stroke:#000000; stroke-width:0.95664899999999997; fill:none" d="M 139.424 57.801L 133.209 52.946L 140.979 54.305"/>
<path style="stroke:#000000; stroke-width:0.95664899999999997; fill:none" d="M 225.045 91.2114L 152.342 52.946"/>
<path style="stroke:#000000; stroke-width:0.95664899999999997; fill:none" d="M 219.162 85.9536L 225.041 91.2075L 217.381 89.3403"/>
<path style="stroke:#000000; stroke-width:0.95664899999999997; fill:none" d="M 158.221 58.204L 152.342 52.95L 160.002 54.817"/>
<path style="stroke:#000000; stroke-width:0.95664899999999997; fill:none" d="M 230.783 91.2114L 171.475 52.946"/>
<path style="stroke:#000000; stroke-width:0.95664899999999997; fill:none" d="M 225.389 85.4575L 230.78 91.2114L 223.315 88.6723"/>
<path style="stroke:#000000; stroke-width:0.95664899999999997; fill:none" d="M 176.866 58.704L 171.475 52.95L 178.94 55.489"/>
<path style="stroke:#000000; stroke-width:0.95664899999999997; fill:none" d="M 236.526 91.2114L 190.608 52.946"/>
<path style="stroke:#000000; stroke-width:0.95664899999999997; fill:none" d="M 231.869 84.8442L 236.522 91.2114L 229.42 87.7817"/>
<path style="stroke:#000000; stroke-width:0.95664899999999997; fill:none" d="M 195.26 59.317L 190.608 52.95L 197.709 56.379"/>
<path style="stroke:none; fill-rule:evenodd; fill:#000000" d="M 84.4706 22.684L 85.2676 22.684L 85.2676 20.102C 85.6897 20.583 86.1587 20.801 86.8147 20.801C 88.1116 20.801 88.9667 19.754 88.9667 18.153C 88.9667 16.465 88.1347 15.407 86.7867 15.407C 86.0996 15.407 85.5487 15.715 85.1696 16.309L 85.1696 15.551L 84.4706 15.551L 84.4706 22.684zM 86.6897 16.098C 87.5836 16.098 88.1656 16.895 88.1656 18.125C 88.1656 19.297 87.5726 20.094 86.6897 20.094C 85.8336 20.094 85.2717 19.309 85.2717 18.094C 85.2717 16.883 85.8336 16.094 86.6897 16.094L 86.6897 16.098z"/>
<path style="stroke:none; fill-rule:evenodd; fill:#000000" d="M 91.9087 15.395C 90.5136 15.395 89.6696 16.403 89.6696 18.094C 89.6696 19.782 90.5016 20.793 91.9196 20.793C 93.3147 20.793 94.1696 19.786 94.1696 18.133C 94.1696 16.395 93.3456 15.395 91.9117 15.395L 91.9087 15.395zM 91.9196 16.098C 92.8257 16.098 93.3687 16.852 93.3687 18.125C 93.3687 19.329 92.8106 20.094 91.9196 20.094C 91.0217 20.094 90.4706 19.34 90.4706 18.094C 90.4706 16.86 91.0217 16.094 91.9196 16.094L 91.9196 16.098z"/>
<path style="stroke:none; fill-rule:evenodd; fill:#000000" d="M 98.7597 16.981C 98.7516 15.969 98.1116 15.399 96.9667 15.399C 95.8186 15.399 95.0726 16.008 95.0726 16.95C 95.0726 17.743 95.4706 18.122 96.6546 18.411L 97.3967 18.594C 97.9476 18.727 98.1656 18.93 98.1656 19.297C 98.1656 19.77 97.6936 20.09 96.9866 20.09C 96.5527 20.09 96.1856 19.965 95.9787 19.75C 95.8537 19.606 95.7946 19.461 95.7477 19.102L 94.8967 19.102C 94.9316 20.243 95.5836 20.793 96.9007 20.793C 98.1656 20.793 98.9706 20.165 98.9706 19.188C 98.9706 18.434 98.5527 18.016 97.5606 17.774L 96.7987 17.59C 96.1546 17.438 95.8766 17.223 95.8766 16.864C 95.8766 16.399 96.2826 16.098 96.9316 16.098C 97.5686 16.098 97.9087 16.403 97.9277 16.981L 98.7597 16.981z"/>
<path style="stroke:none; fill-rule:evenodd; fill:#000000" d="M 101.768 15.598L 100.971 15.598L 100.971 14.207L 100.174 14.207L 100.174 15.598L 99.4746 15.598L 99.4746 16.297L 100.174 16.297L 100.174 20.016C 100.174 20.512 100.514 20.793 101.127 20.793C 101.315 20.793 101.506 20.778 101.768 20.731L 101.768 20.083C 101.666 20.094 101.545 20.098 101.397 20.098C 101.065 20.098 100.971 20.004 100.971 19.661L 100.971 16.301L 101.768 16.301L 101.768 15.598z"/>
<path style="stroke:none; fill-rule:evenodd; fill:#000000" d="M 106.869 18.395C 106.869 17.61 106.815 17.137 106.67 16.754C 106.35 15.911 105.588 15.399 104.655 15.399C 103.268 15.399 102.373 16.473 102.373 18.125C 102.373 19.774 103.237 20.793 104.639 20.793C 105.78 20.793 106.573 20.153 106.772 19.075L 105.967 19.075C 105.748 19.743 105.295 20.094 104.655 20.094C 104.147 20.094 103.717 19.868 103.444 19.454C 103.252 19.172 103.186 18.891 103.178 18.399L 106.869 18.395zM 103.201 17.707C 103.268 16.782 103.83 16.18 104.635 16.18C 105.416 16.18 106.022 16.829 106.022 17.653C 106.022 17.668 106.022 17.688 106.014 17.707L 103.201 17.707z"/>
<path style="stroke:none; fill-rule:evenodd; fill:#000000" d="M 108.069 15.543L 108.069 20.594L 108.866 20.594L 108.866 17.942C 108.866 17.211 109.041 16.735 109.416 16.45C 109.659 16.266 109.893 16.207 110.432 16.196L 110.432 15.426C 110.299 15.411 110.233 15.403 110.127 15.403C 109.616 15.403 109.221 15.711 108.764 16.461L 108.764 15.547L 108.069 15.543z"/>
<path style="stroke:none; fill-rule:evenodd; fill:#000000" d="M 111.971 15.598L 111.174 15.598L 111.174 20.598L 111.971 20.598L 111.971 15.598zM 111.971 13.598L 111.174 13.598L 111.174 14.625L 111.971 14.625L 111.971 13.598z"/>
<path style="stroke:none; fill-rule:evenodd; fill:#000000" d="M 115.311 15.395C 113.916 15.395 113.073 16.403 113.073 18.094C 113.073 19.782 113.905 20.793 115.323 20.793C 116.717 20.793 117.573 19.786 117.573 18.133C 117.573 16.395 116.748 15.395 115.315 15.395L 115.311 15.395zM 115.319 16.098C 116.225 16.098 116.768 16.852 116.768 18.125C 116.768 19.329 116.209 20.094 115.319 20.094C 114.42 20.094 113.869 19.34 113.869 18.094C 113.869 16.86 114.42 16.094 115.319 16.094L 115.319 16.098z"/>
<path style="stroke:none; fill-rule:evenodd; fill:#000000" d="M 118.67 15.543L 118.67 20.594L 119.467 20.594L 119.467 17.942C 119.467 17.211 119.643 16.735 120.018 16.45C 120.26 16.266 120.494 16.207 121.033 16.196L 121.033 15.426C 120.901 15.411 120.834 15.403 120.729 15.403C 120.217 15.403 119.823 15.711 119.366 16.461L 119.366 15.547L 118.67 15.543z"/>
<path style="stroke:none; fill-rule:evenodd; fill:#000000" d="M 169.389 20.129C 169.303 20.102 169.264 20.102 169.213 20.102C 168.932 20.102 168.776 19.961 168.776 19.711L 168.776 16.77C 168.776 15.883 168.131 15.407 166.901 15.407C 166.178 15.407 165.58 15.622 165.244 16.004C 165.018 16.266 164.924 16.563 164.905 17.071L 165.701 17.071C 165.768 16.407 166.127 16.102 166.869 16.102C 167.58 16.102 167.979 16.372 167.979 16.856L 167.979 17.067C 167.979 17.403 167.78 17.547 167.155 17.625C 166.033 17.77 165.862 17.809 165.557 17.934C 164.979 18.172 164.682 18.629 164.682 19.29C 164.682 20.207 165.311 20.79 166.326 20.79C 166.955 20.79 167.463 20.579 168.03 20.075C 168.084 20.567 168.334 20.79 168.85 20.79C 169.01 20.79 169.135 20.774 169.393 20.707L 169.389 20.129zM 167.971 19.008C 167.971 19.27 167.897 19.434 167.655 19.649C 167.33 19.942 166.936 20.09 166.463 20.09C 165.838 20.09 165.475 19.797 165.475 19.297C 165.475 18.778 165.83 18.512 166.686 18.391C 167.53 18.278 167.701 18.243 167.971 18.118L 167.971 19.008z"/>
<path style="stroke:none; fill-rule:evenodd; fill:#000000" d="M 170.268 15.543L 170.268 20.594L 171.065 20.594L 171.065 17.805C 171.065 16.774 171.6 16.098 172.424 16.098C 173.057 16.098 173.459 16.485 173.459 17.09L 173.459 20.594L 174.256 20.594L 174.256 16.778C 174.256 15.942 173.627 15.399 172.647 15.399C 171.893 15.399 171.405 15.688 170.959 16.391L 170.959 15.543L 170.268 15.543z"/>
<path style="stroke:none; fill-rule:evenodd; fill:#000000" d="M 177.369 15.598L 176.573 15.598L 176.573 14.207L 175.776 14.207L 175.776 15.598L 175.076 15.598L 175.076 16.297L 175.776 16.297L 175.776 20.016C 175.776 20.512 176.116 20.793 176.729 20.793C 176.916 20.793 177.108 20.778 177.369 20.731L 177.369 20.083C 177.268 20.094 177.147 20.098 176.998 20.098C 176.666 20.098 176.573 20.004 176.573 19.661L 176.573 16.301L 177.369 16.301L 177.369 15.598z"/>
<path style="stroke:none; fill-rule:evenodd; fill:#000000" d="M 182.471 18.395C 182.471 17.61 182.416 17.137 182.272 16.754C 181.951 15.911 181.19 15.399 180.256 15.399C 178.869 15.399 177.975 16.473 177.975 18.125C 177.975 19.774 178.838 20.793 180.241 20.793C 181.381 20.793 182.174 20.153 182.373 19.075L 181.569 19.075C 181.35 19.743 180.897 20.094 180.256 20.094C 179.748 20.094 179.319 19.868 179.045 19.454C 178.854 19.172 178.787 18.891 178.78 18.399L 182.471 18.395zM 178.803 17.707C 178.869 16.782 179.432 16.18 180.237 16.18C 181.018 16.18 181.623 16.829 181.623 17.653C 181.623 17.668 181.623 17.688 181.616 17.707L 178.803 17.707z"/>
<path style="stroke:none; fill-rule:evenodd; fill:#000000" d="M 183.569 15.543L 183.569 20.594L 184.366 20.594L 184.366 17.942C 184.366 17.211 184.541 16.735 184.916 16.45C 185.159 16.266 185.393 16.207 185.932 16.196L 185.932 15.426C 185.799 15.411 185.733 15.403 185.627 15.403C 185.116 15.403 184.721 15.711 184.264 16.461L 184.264 15.547L 183.569 15.543z"/>
<path style="stroke:none; fill-rule:evenodd; fill:#000000" d="M 187.471 15.598L 186.674 15.598L 186.674 20.598L 187.471 20.598L 187.471 15.598zM 187.471 13.598L 186.674 13.598L 186.674 14.625L 187.471 14.625L 187.471 13.598z"/>
<path style="stroke:none; fill-rule:evenodd; fill:#000000" d="M 190.909 15.395C 189.514 15.395 188.67 16.403 188.67 18.094C 188.67 19.782 189.502 20.793 190.92 20.793C 192.315 20.793 193.17 19.786 193.17 18.133C 193.17 16.395 192.346 15.395 190.912 15.395L 190.909 15.395zM 190.92 16.098C 191.826 16.098 192.369 16.852 192.369 18.125C 192.369 19.329 191.811 20.094 190.92 20.094C 190.022 20.094 189.471 19.34 189.471 18.094C 189.471 16.86 190.022 16.094 190.92 16.094L 190.92 16.098z"/>
<path style="stroke:none; fill-rule:evenodd; fill:#000000" d="M 194.268 15.543L 194.268 20.594L 195.065 20.594L 195.065 17.942C 195.065 17.211 195.241 16.735 195.616 16.45C 195.858 16.266 196.092 16.207 196.631 16.196L 196.631 15.426C 196.498 15.411 196.432 15.403 196.326 15.403C 195.815 15.403 195.42 15.711 194.963 16.461L 194.963 15.547L 194.268 15.543z"/>
</g>
</svg>