<?xml version="1.0" encoding="UTF-8" standalone="no"?>
<svg
   xmlns:dc="http://purl.org/dc/elements/1.1/"
   xmlns:cc="http://creativecommons.org/ns#"
   xmlns:rdf="http://www.w3.org/1999/02/22-rdf-syntax-ns#"
   xmlns:svg="http://www.w3.org/2000/svg"
   xmlns="http://www.w3.org/2000/svg"
   xmlns:xlink="http://www.w3.org/1999/xlink"
   xmlns:sodipodi="http://sodipodi.sourceforge.net/DTD/sodipodi-0.dtd"
   xmlns:inkscape="http://www.inkscape.org/namespaces/inkscape"
   width="480.625"
   height="150.156"
   id="svg2"
   version="1.1"
   inkscape:version="0.48.1 r9760"
   sodipodi:docname="fig_fear_cond_illus.svg"
   inkscape:export-filename="/Users/oreilly/svn_docs/figs/fig_fear_cond_illus.png"
   inkscape:export-xdpi="150"
   inkscape:export-ydpi="150">
  <metadata
     id="metadata236">
    <rdf:RDF>
      <cc:Work
         rdf:about="">
        <dc:format>image/svg+xml</dc:format>
        <dc:type
           rdf:resource="http://purl.org/dc/dcmitype/StillImage" />
        <dc:title></dc:title>
      </cc:Work>
    </rdf:RDF>
  </metadata>
  <sodipodi:namedview
     pagecolor="#ffffff"
     bordercolor="#666666"
     borderopacity="1"
     objecttolerance="10"
     gridtolerance="10"
     guidetolerance="10"
     inkscape:pageopacity="0"
     inkscape:pageshadow="2"
     inkscape:window-width="1376"
     inkscape:window-height="947"
     id="namedview234"
     showgrid="false"
     inkscape:zoom="1.4977055"
     inkscape:cx="262.33084"
     inkscape:cy="78.345822"
     inkscape:window-x="0"
     inkscape:window-y="0"
     inkscape:window-maximized="0"
     inkscape:current-layer="svg2" />
  <defs
     id="defs4">
    <linearGradient
       id="linearGradient4133">
      <stop
         style="stop-color:#ffffff;stop-opacity:1;"
         offset="0"
         id="stop4135" />
      <stop
         style="stop-color:#7564ca;stop-opacity:1;"
         offset="1"
         id="stop4137" />
    </linearGradient>
    <linearGradient
       id="linearGradient4127">
      <stop
         id="stop4129"
         offset="0"
         style="stop-color:#ffffff;stop-opacity:1;" />
      <stop
         id="stop4131"
         offset="1"
         style="stop-color:#a584aa;stop-opacity:1;" />
    </linearGradient>
    <linearGradient
       id="linearGradient4103">
      <stop
         style="stop-color:#ffffff;stop-opacity:1;"
         offset="0"
         id="stop4105" />
      <stop
         style="stop-color:#979797;stop-opacity:1;"
         offset="1"
         id="stop4107" />
    </linearGradient>
    <marker
       id="ArrowEnd"
       viewBox="0 0 10 10"
       refX="0"
       refY="5"
       markerUnits="strokeWidth"
       markerWidth="4"
       markerHeight="3"
       orient="auto">
      <path
         d="M 0 0 L 10 5 L 0 10 z"
         id="path7" />
    </marker>
    <marker
       id="ArrowStart"
       viewBox="0 0 10 10"
       refX="10"
       refY="5"
       markerUnits="strokeWidth"
       markerWidth="4"
       markerHeight="3"
       orient="auto">
      <path
         d="M 10 0 L 0 5 L 10 10 z"
         id="path10" />
    </marker>
    <linearGradient
       inkscape:collect="always"
       xlink:href="#linearGradient4103"
       id="linearGradient4109"
       x1="40.226675"
       y1="92.849296"
       x2="161.62374"
       y2="92.849296"
       gradientUnits="userSpaceOnUse" />
    <linearGradient
       inkscape:collect="always"
       xlink:href="#linearGradient4127"
       id="linearGradient4117"
       x1="216.73068"
       y1="84.50042"
       x2="313.93781"
       y2="84.50042"
       gradientUnits="userSpaceOnUse" />
    <linearGradient
       inkscape:collect="always"
       xlink:href="#linearGradient4133"
       id="linearGradient4125"
       x1="375.53568"
       y1="84.50042"
       x2="472.7424"
       y2="84.50042"
       gradientUnits="userSpaceOnUse" />
  </defs>
  <rect
     style="fill:#ffffff;fill-opacity:1;fill-rule:nonzero;stroke:#ffffff;stroke-width:0.981978;stroke-linejoin:round;stroke-miterlimit:10;stroke-opacity:1;stroke-dasharray:none;stroke-dashoffset:0"
     id="rect4139"
     width="488.74762"
     height="148.72675"
     x="-4.0061278"
     y="-0.74148428" />
  <path
     inkscape:connector-curvature="0"
     id="path172"
     d="m 41.6699,98.0388 c 0,0 0,0 1.6719,-0.9531 1.6718,-0.9532 5.0195,-2.8672 8.289,-5.418 3.2657,-2.5504 6.4532,-5.7384 11.5586,-7.8124 5.1016,-2.07 12.1172,-3.027 18.0154,-2.469 5.8991,0.555 10.68,2.629 14.348,5.418 3.664,2.789 6.2152,6.297 8.1292,8.129 1.91,1.8321 3.187,1.9922 7.172,2.9492 3.984,0.9532 10.679,2.7115 16.5,3.1875 5.816,0.477 10.761,-0.316 13.55,-2.4687 2.79,-2.1484 3.426,-5.6562 6.536,-7.332 3.105,-1.672 8.687,-1.512 11.476,-0.6368 2.789,0.875 2.789,2.4688 0.953,2.8672 -1.832,0.3946 -5.5,-0.3945 -8.211,-0.3164 -2.711,0.0782 -4.461,1.0352 -5.816,3.2657 -1.352,2.2304 -2.309,5.738 -7.891,6.855 -5.578,1.114 -15.781,-0.156 -23.117,-0.554 -7.332,-0.399 -11.797,0.078 -18.6521,0.554 -6.856,0.477 -16.1019,0.953 -23.7542,1.114 -7.6522,0.156 -13.7109,0 -18.7305,-1.114 -5.0195,-1.113 -9.0078,-3.187 -11,-4.2222 C 40.705,98.0466 40.705,98.0466 40.705,98.0466"
     style="fill:url(#linearGradient4109);stroke:#000000;stroke-width:0.95664901000000002;fill-opacity:1" />
  <path
     inkscape:connector-curvature="0"
     id="path14"
     d="m 75.1505,65.5113 74.6175,11.477"
     style="fill:none;stroke:#7e7e7e;stroke-width:0.95664901" />
  <path
     inkscape:connector-curvature="0"
     id="path16"
     d="m 75.1505,65.5113 -42.09,26.7853"
     style="fill:none;stroke:#7e7e7e;stroke-width:0.95664901" />
  <path
     inkscape:connector-curvature="0"
     id="path18"
     d="m 102.256,33.6213 c -4.7811,0 -7.3322,4.46 -5.4182,7.652 1.91,3.187 8.2892,5.101 9.5632,7.012 1.273,1.91 -2.551,3.824 -2.231,6.058 0.316,2.231 4.781,4.781 12.754,5.102 7.969,0.316 19.449,-1.594 22.957,-6.696 3.504,-5.101 -0.953,-13.39 -5.418,-14.347 -4.461,-0.953 -8.926,5.418 -9.562,4.461 -0.637,-0.953 2.55,-9.246 7.332,-12.754 4.781,-3.508 11.16,-2.231 10.519,-4.145 -0.637,-1.91 -8.289,-7.011 -13.711,-8.609 -5.418,-1.594 -8.609,0.316 -10.519,3.508 -1.91,3.187 -2.551,7.652 -1.91,11.476 0.636,3.824 2.55,7.016 0,6.375 -2.551,-0.636 -9.563,-5.101 -14.348,-5.101"
     style="fill:#ffffff;fill-rule:evenodd;stroke:none" />
  <path
     inkscape:connector-curvature="0"
     id="path20"
     d="m 102.256,33.6213 c -4.7811,0 -7.3322,4.46 -5.4182,7.652 1.91,3.187 8.2892,5.101 9.5632,7.012 1.273,1.91 -2.551,3.824 -2.231,6.058 0.316,2.231 4.781,4.781 12.754,5.102 7.969,0.316 19.449,-1.594 22.957,-6.696 3.504,-5.101 -0.953,-13.39 -5.418,-14.347 -4.461,-0.953 -8.926,5.418 -9.562,4.461 -0.637,-0.953 2.55,-9.246 7.332,-12.754 4.781,-3.508 11.16,-2.231 10.519,-4.145 -0.637,-1.91 -8.289,-7.011 -13.711,-8.609 -5.418,-1.594 -8.609,0.316 -10.519,3.508 -1.91,3.187 -2.551,7.652 -1.91,11.476 0.636,3.824 2.55,7.016 0,6.375 -2.551,-0.636 -9.563,-5.101 -14.348,-5.101"
     style="fill:none;stroke:#7e7e7e;stroke-width:0.95664901" />
  <path
     inkscape:connector-curvature="0"
     id="path22"
     d="m 30.5097,37.7653 c -2.5507,-2.23 1.9102,-7.332 5.418,-8.289 3.5039,-0.953 6.0586,2.23 6.0586,7.016 0,4.781 -2.5508,11.16 -6.375,12.754 -3.8242,1.593 -8.9258,-1.594 -11.7969,-3.188 -2.8672,-1.594 -3.5078,-1.594 -5.7383,1.594 -2.2304,3.187 -6.0585,9.566 -7.9687,13.711 -1.91015,4.144 -1.91015,6.058 -2.23045,7.968 -0.3164,1.911 -0.9531,3.825 -1.2734,5.102 -0.3164,1.273 -0.3164,1.91 -0.6367,2.867 -0.3164,0.953 -0.9532,2.231 -0.9532,3.188 0,0.953 0.6368,1.593 1.9102,1.91 1.2734,0.316 3.18745,0.316 4.78115,-1.91 1.5938,-2.231 2.8672,-6.696 4.1446,-10.52 1.2734,-3.824 2.5508,-7.012 4.1445,-9.883 1.5938,-2.867 3.5039,-5.418 5.418,-6.375 1.9101,-0.953 3.8242,-0.316 5.4179,0 1.5938,0.317 2.8672,0.317 4.1446,0.637 1.2734,0.316 2.5508,0.953 5.418,2.551 2.8671,1.594 7.332,4.144 10.8398,4.781 3.5078,0.637 6.0586,-0.637 7.9687,-1.594 1.9102,-0.953 3.1875,-1.593 3.8243,-3.824 0.6367,-2.23 0.6367,-6.058 -1.2735,-9.246 -1.9101,-3.187 -5.7383,-5.738 -12.4336,-6.695 -6.6953,-0.953 -16.2617,-0.317 -18.8125,-2.551"
     style="fill:#ffffff;fill-rule:evenodd;stroke:none" />
  <path
     inkscape:connector-curvature="0"
     id="path24"
     d="m 30.5097,37.7653 c -2.5507,-2.23 1.9102,-7.332 5.418,-8.289 3.5039,-0.953 6.0586,2.23 6.0586,7.016 0,4.781 -2.5508,11.16 -6.375,12.754 -3.8242,1.593 -8.9258,-1.594 -11.7969,-3.188 -2.8672,-1.594 -3.5078,-1.594 -5.7383,1.594 -2.2304,3.187 -6.0585,9.566 -7.9687,13.711 -1.91015,4.144 -1.91015,6.058 -2.23045,7.968 -0.3164,1.911 -0.9531,3.825 -1.2734,5.102 -0.3164,1.273 -0.3164,1.91 -0.6367,2.867 -0.3164,0.953 -0.9532,2.231 -0.9532,3.188 0,0.953 0.6368,1.593 1.9102,1.91 1.2734,0.316 3.18745,0.316 4.78115,-1.91 1.5938,-2.231 2.8672,-6.696 4.1446,-10.52 1.2734,-3.824 2.5508,-7.012 4.1445,-9.883 1.5938,-2.867 3.5039,-5.418 5.418,-6.375 1.9101,-0.953 3.8242,-0.316 5.4179,0 1.5938,0.317 2.8672,0.317 4.1446,0.637 1.2734,0.316 2.5508,0.953 5.418,2.551 2.8671,1.594 7.332,4.144 10.8398,4.781 3.5078,0.637 6.0586,-0.637 7.9687,-1.594 1.9102,-0.953 3.1875,-1.593 3.8243,-3.824 0.6367,-2.23 0.6367,-6.058 -1.2735,-9.246 -1.9101,-3.187 -5.7383,-5.738 -12.4336,-6.695 -6.6953,-0.953 -16.2617,-0.317 -18.8125,-2.551"
     style="fill:none;stroke:#7e7e7e;stroke-width:0.95664901" />
  <path
     inkscape:connector-curvature="0"
     id="path26"
     d="m 75.1505,17.6793 0,49.742"
     style="fill:none;stroke:#7e7e7e;stroke-width:0.95664901" />
  <path
     inkscape:connector-curvature="0"
     id="path28"
     d="m 241.608,65.5113 74.617,11.477"
     style="fill:none;stroke:#7e7e7e;stroke-width:0.95664901" />
  <path
     inkscape:connector-curvature="0"
     id="path30"
     d="m 241.608,65.5113 -42.09,26.7853"
     style="fill:none;stroke:#7e7e7e;stroke-width:0.95664901" />
  <path
     inkscape:connector-curvature="0"
     id="path32"
     d="m 268.713,33.6213 c -4.781,0 -7.332,4.46 -5.418,7.652 1.91,3.187 8.289,5.101 9.563,7.012 1.273,1.91 -2.551,3.824 -2.231,6.058 0.317,2.231 4.781,4.781 12.754,5.102 7.969,0.316 19.449,-1.594 22.957,-6.696 3.504,-5.101 -0.953,-13.39 -5.418,-14.347 -4.461,-0.953 -8.926,5.418 -9.562,4.461 -0.637,-0.953 2.55,-9.246 7.332,-12.754 4.781,-3.508 11.16,-2.231 10.519,-4.145 -0.637,-1.91 -8.289,-7.011 -13.711,-8.609 -5.418,-1.594 -8.609,0.316 -10.519,3.508 -1.91,3.187 -2.551,7.652 -1.91,11.476 0.636,3.824 2.55,7.016 0,6.375 -2.551,-0.636 -9.563,-5.101 -14.348,-5.101"
     style="fill:#ffffff;fill-rule:evenodd;stroke:none" />
  <path
     inkscape:connector-curvature="0"
     id="path34"
     d="m 268.713,33.6213 c -4.781,0 -7.332,4.46 -5.418,7.652 1.91,3.187 8.289,5.101 9.563,7.012 1.273,1.91 -2.551,3.824 -2.231,6.058 0.317,2.231 4.781,4.781 12.754,5.102 7.969,0.316 19.449,-1.594 22.957,-6.696 3.504,-5.101 -0.953,-13.39 -5.418,-14.347 -4.461,-0.953 -8.926,5.418 -9.562,4.461 -0.637,-0.953 2.55,-9.246 7.332,-12.754 4.781,-3.508 11.16,-2.231 10.519,-4.145 -0.637,-1.91 -8.289,-7.011 -13.711,-8.609 -5.418,-1.594 -8.609,0.316 -10.519,3.508 -1.91,3.187 -2.551,7.652 -1.91,11.476 0.636,3.824 2.55,7.016 0,6.375 -2.551,-0.636 -9.563,-5.101 -14.348,-5.101"
     style="fill:none;stroke:#7e7e7e;stroke-width:0.95664901" />
  <path
     inkscape:connector-curvature="0"
     id="path36"
     d="m 196.967,37.7653 c -2.551,-2.23 1.91,-7.332 5.418,-8.289 3.504,-0.953 6.059,2.23 6.059,7.016 0,4.781 -2.551,11.16 -6.375,12.754 -3.825,1.593 -8.926,-1.594 -11.797,-3.188 -2.868,-1.594 -3.508,-1.594 -5.739,1.594 -2.23,3.187 -6.058,9.566 -7.968,13.711 -1.911,4.144 -1.911,6.058 -2.231,7.968 -0.316,1.911 -0.953,3.825 -1.273,5.102 -0.317,1.273 -0.317,1.91 -0.637,2.867 -0.316,0.953 -0.953,2.231 -0.953,3.188 0,0.953 0.637,1.593 1.91,1.91 1.273,0.316 3.188,0.316 4.781,-1.91 1.594,-2.231 2.867,-6.696 4.145,-10.52 1.273,-3.824 2.551,-7.012 4.144,-9.883 1.594,-2.867 3.504,-5.418 5.418,-6.375 1.91,-0.953 3.825,-0.316 5.418,0 1.594,0.317 2.867,0.317 4.145,0.637 1.273,0.316 2.551,0.953 5.418,2.551 2.867,1.594 7.332,4.144 10.84,4.781 3.507,0.637 6.058,-0.637 7.968,-1.594 1.911,-0.953 3.188,-1.593 3.825,-3.824 0.636,-2.23 0.636,-6.058 -1.274,-9.246 -1.91,-3.187 -5.738,-5.738 -12.433,-6.695 -6.696,-0.953 -16.262,-0.317 -18.813,-2.551"
     style="fill:#ffffff;fill-rule:evenodd;stroke:none" />
  <path
     inkscape:connector-curvature="0"
     id="path38"
     d="m 196.967,37.7653 c -2.551,-2.23 1.91,-7.332 5.418,-8.289 3.504,-0.953 6.059,2.23 6.059,7.016 0,4.781 -2.551,11.16 -6.375,12.754 -3.825,1.593 -8.926,-1.594 -11.797,-3.188 -2.868,-1.594 -3.508,-1.594 -5.739,1.594 -2.23,3.187 -6.058,9.566 -7.968,13.711 -1.911,4.144 -1.911,6.058 -2.231,7.968 -0.316,1.911 -0.953,3.825 -1.273,5.102 -0.317,1.273 -0.317,1.91 -0.637,2.867 -0.316,0.953 -0.953,2.231 -0.953,3.188 0,0.953 0.637,1.593 1.91,1.91 1.273,0.316 3.188,0.316 4.781,-1.91 1.594,-2.231 2.867,-6.696 4.145,-10.52 1.273,-3.824 2.551,-7.012 4.144,-9.883 1.594,-2.867 3.504,-5.418 5.418,-6.375 1.91,-0.953 3.825,-0.316 5.418,0 1.594,0.317 2.867,0.317 4.145,0.637 1.273,0.316 2.551,0.953 5.418,2.551 2.867,1.594 7.332,4.144 10.84,4.781 3.507,0.637 6.058,-0.637 7.968,-1.594 1.911,-0.953 3.188,-1.593 3.825,-3.824 0.636,-2.23 0.636,-6.058 -1.274,-9.246 -1.91,-3.187 -5.738,-5.738 -12.433,-6.695 -6.696,-0.953 -16.262,-0.317 -18.813,-2.551"
     style="fill:none;stroke:#7e7e7e;stroke-width:0.95664901" />
  <path
     inkscape:connector-curvature="0"
     id="path40"
     d="m 241.608,17.6793 0,49.742"
     style="fill:none;stroke:#7e7e7e;stroke-width:0.95664901" />
  <path
     inkscape:connector-curvature="0"
     id="path42"
     d="m 396.584,65.5113 74.617,11.477"
     style="fill:none;stroke:#7e7e7e;stroke-width:0.95664901" />
  <path
     inkscape:connector-curvature="0"
     id="path44"
     d="m 396.584,65.5113 -42.09,26.7853"
     style="fill:none;stroke:#7e7e7e;stroke-width:0.95664901" />
  <path
     inkscape:connector-curvature="0"
     id="path46"
     d="m 423.69,33.6213 c -4.782,0 -7.332,4.46 -5.418,7.652 1.91,3.187 8.289,5.101 9.562,7.012 1.274,1.91 -2.551,3.824 -2.23,6.058 0.316,2.231 4.781,4.781 12.754,5.102 7.968,0.316 19.449,-1.594 22.957,-6.696 3.504,-5.101 -0.953,-13.39 -5.418,-14.347 -4.461,-0.953 -8.926,5.418 -9.563,4.461 -0.637,-0.953 2.551,-9.246 7.332,-12.754 4.781,-3.508 11.16,-2.231 10.52,-4.145 -0.637,-1.91 -8.289,-7.011 -13.711,-8.609 -5.418,-1.594 -8.61,0.316 -10.52,3.508 -1.91,3.187 -2.551,7.652 -1.91,11.476 0.637,3.824 2.551,7.016 0,6.375 -2.551,-0.636 -9.562,-5.101 -14.348,-5.101"
     style="fill:#ffffff;fill-rule:evenodd;stroke:none" />
  <path
     inkscape:connector-curvature="0"
     id="path48"
     d="m 423.69,33.6213 c -4.782,0 -7.332,4.46 -5.418,7.652 1.91,3.187 8.289,5.101 9.562,7.012 1.274,1.91 -2.551,3.824 -2.23,6.058 0.316,2.231 4.781,4.781 12.754,5.102 7.968,0.316 19.449,-1.594 22.957,-6.696 3.504,-5.101 -0.953,-13.39 -5.418,-14.347 -4.461,-0.953 -8.926,5.418 -9.563,4.461 -0.637,-0.953 2.551,-9.246 7.332,-12.754 4.781,-3.508 11.16,-2.231 10.52,-4.145 -0.637,-1.91 -8.289,-7.011 -13.711,-8.609 -5.418,-1.594 -8.61,0.316 -10.52,3.508 -1.91,3.187 -2.551,7.652 -1.91,11.476 0.637,3.824 2.551,7.016 0,6.375 -2.551,-0.636 -9.562,-5.101 -14.348,-5.101"
     style="fill:none;stroke:#7e7e7e;stroke-width:0.95664901" />
  <path
     inkscape:connector-curvature="0"
     id="path50"
     d="m 351.944,37.7653 c -2.551,-2.23 1.91,-7.332 5.418,-8.289 3.503,-0.953 6.058,2.23 6.058,7.016 0,4.781 -2.551,11.16 -6.375,12.754 -3.824,1.593 -8.926,-1.594 -11.797,-3.188 -2.867,-1.594 -3.508,-1.594 -5.738,1.594 -2.231,3.187 -6.059,9.566 -7.969,13.711 -1.91,4.144 -1.91,6.058 -2.23,7.968 -0.317,1.911 -0.953,3.825 -1.274,5.102 -0.316,1.273 -0.316,1.91 -0.636,2.867 -0.317,0.953 -0.954,2.231 -0.954,3.188 0,0.953 0.637,1.593 1.911,1.91 1.273,0.316 3.187,0.316 4.781,-1.91 1.594,-2.231 2.867,-6.696 4.144,-10.52 1.274,-3.824 2.551,-7.012 4.145,-9.883 1.594,-2.867 3.504,-5.418 5.418,-6.375 1.91,-0.953 3.824,-0.316 5.418,0 1.594,0.317 2.867,0.317 4.144,0.637 1.274,0.316 2.551,0.953 5.418,2.551 2.868,1.594 7.332,4.144 10.84,4.781 3.508,0.637 6.059,-0.637 7.969,-1.594 1.91,-0.953 3.187,-1.593 3.824,-3.824 0.637,-2.23 0.637,-6.058 -1.273,-9.246 -1.91,-3.187 -5.739,-5.738 -12.434,-6.695 -6.695,-0.953 -16.262,-0.317 -18.812,-2.551"
     style="fill:#ffffff;fill-rule:evenodd;stroke:none" />
  <path
     inkscape:connector-curvature="0"
     id="path52"
     d="m 351.944,37.7653 c -2.551,-2.23 1.91,-7.332 5.418,-8.289 3.503,-0.953 6.058,2.23 6.058,7.016 0,4.781 -2.551,11.16 -6.375,12.754 -3.824,1.593 -8.926,-1.594 -11.797,-3.188 -2.867,-1.594 -3.508,-1.594 -5.738,1.594 -2.231,3.187 -6.059,9.566 -7.969,13.711 -1.91,4.144 -1.91,6.058 -2.23,7.968 -0.317,1.911 -0.953,3.825 -1.274,5.102 -0.316,1.273 -0.316,1.91 -0.636,2.867 -0.317,0.953 -0.954,2.231 -0.954,3.188 0,0.953 0.637,1.593 1.911,1.91 1.273,0.316 3.187,0.316 4.781,-1.91 1.594,-2.231 2.867,-6.696 4.144,-10.52 1.274,-3.824 2.551,-7.012 4.145,-9.883 1.594,-2.867 3.504,-5.418 5.418,-6.375 1.91,-0.953 3.824,-0.316 5.418,0 1.594,0.317 2.867,0.317 4.144,0.637 1.274,0.316 2.551,0.953 5.418,2.551 2.868,1.594 7.332,4.144 10.84,4.781 3.508,0.637 6.059,-0.637 7.969,-1.594 1.91,-0.953 3.187,-1.593 3.824,-3.824 0.637,-2.23 0.637,-6.058 -1.273,-9.246 -1.91,-3.187 -5.739,-5.738 -12.434,-6.695 -6.695,-0.953 -16.262,-0.317 -18.812,-2.551"
     style="fill:none;stroke:#7e7e7e;stroke-width:0.95664901" />
  <path
     inkscape:connector-curvature="0"
     id="path54"
     d="m 396.584,17.6793 0,49.742"
     style="fill:none;stroke:#7e7e7e;stroke-width:0.95664901" />
  <path
     inkscape:connector-curvature="0"
     id="path56"
     d="m 236.123,127.785 c -0.019,-2.484 -1.711,-3.93 -4.617,-3.93 -2.766,0 -4.477,1.43 -4.477,3.735 0,1.55 0.809,2.527 2.465,2.964 l 3.118,0.836 c 1.585,0.418 2.312,1.063 2.312,2.059 0,0.68 -0.359,1.379 -0.895,1.762 -0.5,0.347 -1.293,0.539 -2.308,0.539 -1.359,0 -2.293,-0.34 -2.895,-1.09 -0.464,-0.57 -0.672,-1.195 -0.695,-2.004 l -1.5,0 c 0.016,1.152 0.238,1.91 0.742,2.602 0.863,1.171 2.313,1.793 4.231,1.793 1.5,0 2.726,-0.344 3.539,-0.969 0.843,-0.676 1.383,-1.801 1.383,-2.895 0,-1.558 -0.965,-2.703 -2.672,-3.172 l -3.153,-0.847 c -1.515,-0.414 -2.066,-0.899 -2.066,-1.871 0,-1.282 1.129,-2.133 2.832,-2.133 2.016,0 3.145,0.941 3.164,2.629 l 1.492,-0.008 z"
     style="fill:#000000;fill-rule:evenodd;stroke:none" />
  <path
     inkscape:connector-curvature="0"
     id="path58"
     d="m 238.522,124.054 0,12.598 1.5,0 0,-5.019 c 0,-1.856 0.937,-3.075 2.382,-3.075 0.454,0 0.907,0.157 1.243,0.418 0.402,0.293 0.57,0.727 0.57,1.371 l 0,6.309 1.5,0 0,-6.828 c 0,-1.516 -1.078,-2.465 -2.824,-2.465 -1.266,0 -2.035,0.399 -2.875,1.516 l 0,-4.813 -1.496,-0.012 z"
     style="fill:#000000;fill-rule:evenodd;stroke:none" />
  <path
     inkscape:connector-curvature="0"
     id="path60"
     d="m 251.604,127.351 c -2.543,0 -4.082,1.813 -4.082,4.848 0,3.035 1.519,4.848 4.097,4.848 2.543,0 4.098,-1.809 4.098,-4.778 0,-3.121 -1.504,-4.918 -4.117,-4.918 l 0.004,0 z m 0.019,1.301 c 1.629,0 2.598,1.34 2.598,3.602 0,2.136 -1.004,3.496 -2.598,3.496 -1.609,0 -2.597,-1.34 -2.597,-3.547 0,-2.191 0.984,-3.547 2.597,-3.547 l 0,-0.004 z"
     style="fill:#000000;fill-rule:evenodd;stroke:none" />
  <path
     inkscape:connector-curvature="0"
     id="path62"
     d="m 264.533,130.66 c -0.066,-0.902 -0.257,-1.488 -0.605,-2.004 -0.621,-0.812 -1.711,-1.297 -2.973,-1.297 -2.437,0 -4.027,1.934 -4.027,4.934 0,2.914 1.555,4.761 4.012,4.761 2.16,0 3.527,-1.292 3.699,-3.5 l -1.453,0 c -0.242,1.465 -0.985,2.2 -2.215,2.2 -1.59,0 -2.543,-1.305 -2.543,-3.461 0,-2.278 0.934,-3.637 2.508,-3.637 1.211,0 1.972,0.719 2.144,2.004 l 1.453,0 z"
     style="fill:#000000;fill-rule:evenodd;stroke:none" />
  <path
     inkscape:connector-curvature="0"
     id="path64"
     d="m 267.522,124.054 -1.5,0 0,12.598 1.5,0 0,-3.512 1.375,-1.375 3.011,4.887 1.754,0 -3.64,-5.89 3.093,-3.106 -1.82,0 -3.777,3.797 0.004,-7.399 z"
     style="fill:#000000;fill-rule:evenodd;stroke:none" />
  <path
     inkscape:connector-curvature="0"
     id="path66"
     d="m 362.022,130.953 5.941,0 0,-1.297 -5.941,0 0,-4.297 6.8,0 0,-1.297 -8.398,0 0,12.598 1.598,0 0,-5.707 z"
     style="fill:#000000;fill-rule:evenodd;stroke:none" />
  <path
     inkscape:connector-curvature="0"
     id="path68"
     d="m 370.522,127.613 0,9.039 1.5,0 0,-4.699 c 0,-1.297 0.316,-2.141 0.992,-2.645 0.437,-0.328 0.855,-0.429 1.832,-0.449 l 0,-1.445 c -0.238,-0.031 -0.36,-0.051 -0.551,-0.051 -0.933,0 -1.641,0.551 -2.473,1.895 l 0,-1.637 -1.3,-0.008 z"
     style="fill:#000000;fill-rule:evenodd;stroke:none" />
  <path
     inkscape:connector-curvature="0"
     id="path70"
     d="m 383.822,132.652 c 0,-1.387 -0.101,-2.223 -0.359,-2.898 -0.578,-1.492 -1.949,-2.395 -3.629,-2.395 -2.5,0 -4.105,1.934 -4.105,4.899 0,2.964 1.562,4.796 4.09,4.796 2.062,0 3.488,-1.171 3.851,-3.136 l -1.441,0 c -0.395,1.207 -1.2,1.836 -2.352,1.836 -0.91,0 -1.683,-0.41 -2.164,-1.168 -0.34,-0.516 -0.461,-1.032 -0.48,-1.93 l 6.589,-0.004 z m -6.578,-1.199 c 0.118,-1.668 1.133,-2.754 2.582,-2.754 1.41,0 2.496,1.168 2.496,2.648 0,0.032 0,0.067 -0.015,0.102 l -5.063,0.004 z"
     style="fill:#000000;fill-rule:evenodd;stroke:none" />
  <path
     inkscape:connector-curvature="0"
     id="path72"
     d="m 393.424,132.652 c 0,-1.387 -0.102,-2.223 -0.359,-2.898 -0.579,-1.492 -1.95,-2.395 -3.629,-2.395 -2.5,0 -4.106,1.934 -4.106,4.899 0,2.964 1.563,4.796 4.09,4.796 2.063,0 3.488,-1.171 3.852,-3.136 l -1.442,0 c -0.394,1.207 -1.199,1.836 -2.351,1.836 -0.91,0 -1.684,-0.41 -2.164,-1.168 -0.34,-0.516 -0.461,-1.032 -0.481,-1.93 l 6.59,-0.004 z m -6.582,-1.199 c 0.117,-1.668 1.133,-2.754 2.582,-2.754 1.41,0 2.496,1.168 2.496,2.648 0,0.032 0,0.067 -0.016,0.102 l -5.062,0.004 z"
     style="fill:#000000;fill-rule:evenodd;stroke:none" />
  <path
     inkscape:connector-curvature="0"
     id="path74"
     d="m 401.822,127.652 -6.699,0 0,1.297 5.024,0 -5.321,6.418 0,1.277 7.297,0 0,-1.297 -5.625,0 5.324,-6.398 0,-1.297 z"
     style="fill:#000000;fill-rule:evenodd;stroke:none" />
  <path
     inkscape:connector-curvature="0"
     id="path76"
     d="m 405.424,127.652 -1.5,0 0,9 1.5,0 0,-9 z m 0,-3.598 -1.5,0 0,1.852 1.5,0 0,-1.852 z"
     style="fill:#000000;fill-rule:evenodd;stroke:none" />
  <path
     inkscape:connector-curvature="0"
     id="path78"
     d="m 407.822,127.613 0,9.039 1.5,0 0,-4.961 c 0,-1.836 0.938,-3.035 2.383,-3.035 1.106,0 1.813,0.684 1.813,1.766 l 0,6.23 1.5,0 0,-6.828 c 0,-1.5 -1.129,-2.465 -2.879,-2.465 -1.352,0 -2.219,0.516 -3.016,1.774 l 0,-1.516 -1.301,-0.004 z"
     style="fill:#000000;fill-rule:evenodd;stroke:none" />
  <path
     inkscape:connector-curvature="0"
     id="path80"
     d="m 423.322,127.652 0,1.281 c -0.722,-1.078 -1.601,-1.582 -2.757,-1.582 -2.289,0 -3.84,2 -3.84,4.934 0,1.48 0.394,2.691 1.14,3.555 0.676,0.757 1.645,1.207 2.598,1.207 1.141,0 1.938,-0.481 2.754,-1.621 l 0,0.468 c 0,1.239 -0.156,1.989 -0.52,2.493 -0.378,0.539 -1.125,0.851 -2.007,0.851 -0.657,0 -1.246,-0.176 -1.645,-0.496 -0.328,-0.266 -0.465,-0.516 -0.555,-1.066 l -1.472,0 c 0.152,1.73 1.476,2.765 3.586,2.765 1.336,0 2.488,-0.429 3.07,-1.152 0.684,-0.824 0.945,-1.965 0.945,-4.086 l 0,-7.555 -1.297,0.004 z m -2.582,1 c 1.559,0 2.481,1.32 2.481,3.602 0,2.172 -0.934,3.496 -2.465,3.496 -1.578,0 -2.531,-1.34 -2.531,-3.547 0,-2.191 0.969,-3.547 2.515,-3.547 l 0,-0.004 z"
     style="fill:#000000;fill-rule:evenodd;stroke:none" />
  <path
     inkscape:connector-curvature="0"
     id="path82"
     d="m 436.623,125.355 4.11,0 0,-1.297 -9.848,0 0,1.297 4.137,0 0,11.297 1.597,0 0.004,-11.297 z"
     style="fill:#000000;fill-rule:evenodd;stroke:none" />
  <path
     inkscape:connector-curvature="0"
     id="path84"
     d="m 449.924,132.652 c 0,-1.387 -0.102,-2.223 -0.359,-2.898 -0.579,-1.492 -1.95,-2.395 -3.629,-2.395 -2.5,0 -4.106,1.934 -4.106,4.899 0,2.964 1.563,4.796 4.09,4.796 2.063,0 3.488,-1.171 3.852,-3.136 l -1.442,0 c -0.394,1.207 -1.199,1.836 -2.351,1.836 -0.91,0 -1.684,-0.41 -2.164,-1.168 -0.34,-0.516 -0.461,-1.032 -0.481,-1.93 l 6.59,-0.004 z m -6.582,-1.199 c 0.117,-1.668 1.133,-2.754 2.582,-2.754 1.41,0 2.496,1.168 2.496,2.648 0,0.032 0,0.067 -0.016,0.102 l -5.062,0.004 z"
     style="fill:#000000;fill-rule:evenodd;stroke:none" />
  <path
     inkscape:connector-curvature="0"
     id="path86"
     d="m 458.162,130.144 c -0.015,-1.781 -1.187,-2.789 -3.273,-2.789 -2.102,0 -3.465,1.09 -3.465,2.77 0,1.418 0.723,2.094 2.859,2.613 l 1.344,0.328 c 0.996,0.238 1.395,0.606 1.395,1.262 0,0.848 -0.844,1.418 -2.098,1.418 -0.773,0 -1.426,-0.227 -1.785,-0.609 -0.223,-0.262 -0.324,-0.524 -0.41,-1.172 l -1.512,0 c 0.066,2.086 1.238,3.086 3.594,3.086 2.269,0 3.715,-1.125 3.715,-2.875 0,-1.348 -0.758,-2.094 -2.547,-2.528 l -1.375,-0.328 c -1.168,-0.273 -1.668,-0.656 -1.668,-1.297 0,-0.828 0.738,-1.367 1.91,-1.367 1.152,0 1.773,0.512 1.808,1.488 l 1.508,0 z"
     style="fill:#000000;fill-rule:evenodd;stroke:none" />
  <path
     inkscape:connector-curvature="0"
     id="path88"
     d="m 463.721,127.652 -1.496,0 0,-2.5 -1.5,0 0,2.5 -1.098,0 0,1.199 1.098,0 0,6.778 c 0,0.906 0.637,1.418 1.789,1.418 0.351,0 0.707,-0.032 1.203,-0.118 l 0,-1.207 c -0.191,0.02 -0.418,0.028 -0.695,0.028 -0.625,0 -0.801,-0.168 -0.801,-0.797 l 0,-6.098 1.496,0 0.004,-1.203 z"
     style="fill:#000000;fill-rule:evenodd;stroke:none" />
  <path
     inkscape:connector-curvature="0"
     id="path90"
     d="m 166.99,10.0273 0,130.1017"
     style="fill:none;stroke:#7e7e7e;stroke-width:1.91330004;stroke-dasharray:6, 3" />
  <path
     inkscape:connector-curvature="0"
     id="path92"
     d="m 320.053,10.0273 0,130.1017"
     style="fill:none;stroke:#7e7e7e;stroke-width:1.91330004;stroke-dasharray:6, 3" />
  <path
     inkscape:connector-curvature="0"
     id="path94"
     d="m 34.0215,124.054 -3.1993,0 0,16.297 3.1993,0 0,-1.199 -1.6993,0 0,-13.898 1.6993,0 0,-1.2 z"
     style="fill:#000000;fill-rule:evenodd;stroke:none" />
  <path
     inkscape:connector-curvature="0"
     id="path96"
     d="m 37.7207,131.351 3.9101,0 c 0.9727,0 1.7422,-0.293 2.4063,-0.902 0.75,-0.691 1.0742,-1.512 1.0742,-2.676 0,-2.379 -1.3828,-3.719 -3.8477,-3.719 l -5.1484,0 0,12.598 1.5977,0 0.0078,-5.301 z m 0,-1.297 0,-4.695 3.289,0 c 1.5079,0 2.4063,0.879 2.4063,2.348 0,1.465 -0.8984,2.347 -2.4063,2.347 l -3.289,0 z"
     style="fill:#000000;fill-rule:evenodd;stroke:none" />
  <path
     inkscape:connector-curvature="0"
     id="path98"
     d="m 47.2207,127.613 0,9.039 1.5,0 0,-4.699 c 0,-1.297 0.3164,-2.141 0.9922,-2.645 0.4375,-0.328 0.8554,-0.429 1.832,-0.449 l 0,-1.445 c -0.2383,-0.031 -0.3593,-0.051 -0.5508,-0.051 -0.9335,0 -1.6406,0.551 -2.4726,1.895 l 0,-1.637 -1.3008,-0.008 z"
     style="fill:#000000;fill-rule:evenodd;stroke:none" />
  <path
     inkscape:connector-curvature="0"
     id="path100"
     d="m 60.5215,132.652 c 0,-1.387 -0.1016,-2.223 -0.3594,-2.898 -0.5781,-1.492 -1.9492,-2.395 -3.6289,-2.395 -2.5,0 -4.1055,1.934 -4.1055,4.899 0,2.964 1.5625,4.796 4.09,4.796 2.0623,0 3.4881,-1.171 3.8514,-3.136 l -1.4414,0 c -0.3945,1.207 -1.1992,1.836 -2.3516,1.836 -0.9101,0 -1.6834,-0.41 -2.164,-1.168 -0.3399,-0.516 -0.461,-1.032 -0.4805,-1.93 l 6.5899,-0.004 z m -6.5782,-1.199 c 0.1173,-1.668 1.1328,-2.754 2.5821,-2.754 1.4102,0 2.4961,1.168 2.4961,2.648 0,0.032 0,0.067 -0.0157,0.102 l -5.0625,0.004 z"
     style="fill:#000000;fill-rule:evenodd;stroke:none" />
  <path
     inkscape:connector-curvature="0"
     id="path102"
     d="m 70.123,132.652 c 0,-1.387 -0.1015,-2.223 -0.3594,-2.898 -0.5781,-1.492 -1.9491,-2.395 -3.6288,-2.395 -2.5001,0 -4.1055,1.934 -4.1055,4.899 0,2.964 1.5625,4.796 4.0898,4.796 2.0625,0 3.4884,-1.171 3.8516,-3.136 l -1.4414,0 c -0.3945,1.207 -1.1993,1.836 -2.3516,1.836 -0.91,0 -1.6836,-0.41 -2.1641,-1.168 -0.3398,-0.516 -0.4609,-1.032 -0.4804,-1.93 l 6.5898,-0.004 z m -6.582,-1.199 c 0.1172,-1.668 1.1328,-2.754 2.582,-2.754 1.4102,0 2.4961,1.168 2.4961,2.648 0,0.032 0,0.067 -0.0156,0.102 l -5.0625,0.004 z"
     style="fill:#000000;fill-rule:evenodd;stroke:none" />
  <path
     inkscape:connector-curvature="0"
     id="path104"
     d="m 75.8496,132 3.0274,-4.344 -1.6172,0 -2.168,3.246 -2.168,-3.246 -1.6328,0 3.0117,4.41 -3.1836,4.582 1.6329,0 2.289,-3.461 2.254,3.461 1.668,0 L 75.8496,132 z"
     style="fill:#000000;fill-rule:evenodd;stroke:none" />
  <path
     inkscape:connector-curvature="0"
     id="path106"
     d="m 80.4238,140.406 1.5,0 0,-4.652 c 0.754,0.898 1.5941,1.297 2.7581,1.297 2.312,0 3.84,-1.879 3.84,-4.762 0,-3.035 -1.489,-4.934 -3.903,-4.934 -1.2301,0 -2.2181,0.551 -2.894,1.621 l 0,-1.359 -1.2972,0 -0.0039,12.789 z m 3.996,-11.754 c 1.5701,0 2.6021,1.418 2.6021,3.602 0,2.078 -1.043,3.496 -2.6021,3.496 -1.504,0 -2.496,-1.399 -2.496,-3.547 0,-2.149 0.988,-3.551 2.496,-3.551 z"
     style="fill:#000000;fill-rule:evenodd;stroke:none" />
  <path
     inkscape:connector-curvature="0"
     id="path108"
     d="m 93.7048,127.351 c -2.543,0 -4.082,1.813 -4.082,4.848 0,3.035 1.5201,4.848 4.098,4.848 2.543,0 4.098,-1.809 4.098,-4.778 0,-3.121 -1.504,-4.918 -4.1179,-4.918 l 0.0039,0 z m 0.016,1.301 c 1.6291,0 2.598,1.34 2.598,3.602 0,2.136 -1.004,3.496 -2.598,3.496 -1.609,0 -2.598,-1.34 -2.598,-3.547 0,-2.191 0.985,-3.547 2.598,-3.547 l 0,-0.004 z"
     style="fill:#000000;fill-rule:evenodd;stroke:none" />
  <path
     inkscape:connector-curvature="0"
     id="path110"
     d="m 106.162,130.144 c -0.015,-1.781 -1.187,-2.789 -3.273,-2.789 -2.102,0 -3.4652,1.09 -3.4652,2.77 0,1.418 0.7232,2.094 2.8592,2.613 l 1.344,0.328 c 0.996,0.238 1.395,0.606 1.395,1.262 0,0.848 -0.844,1.418 -2.098,1.418 -0.773,0 -1.426,-0.227 -1.785,-0.609 -0.223,-0.262 -0.324,-0.524 -0.41,-1.172 l -1.5122,0 c 0.0661,2.086 1.2382,3.086 3.5942,3.086 2.269,0 3.715,-1.125 3.715,-2.875 0,-1.348 -0.758,-2.094 -2.547,-2.528 l -1.375,-0.328 c -1.168,-0.273 -1.668,-0.656 -1.668,-1.297 0,-0.828 0.738,-1.367 1.91,-1.367 1.152,0 1.773,0.512 1.808,1.488 l 1.508,0 z"
     style="fill:#000000;fill-rule:evenodd;stroke:none" />
  <path
     inkscape:connector-curvature="0"
     id="path112"
     d="m 115.522,136.66 0,-9.004 -1.5,0 0,5.074 c 0,1.824 -0.934,3.024 -2.391,3.024 -1.102,0 -1.805,-0.684 -1.805,-1.758 l 0,-6.34 -1.5,0 0,6.941 c 0,1.493 1.118,2.454 2.879,2.454 1.324,0 2.172,-0.461 3.02,-1.649 l 0,1.254 1.297,0.004 z"
     style="fill:#000000;fill-rule:evenodd;stroke:none" />
  <path
     inkscape:connector-curvature="0"
     id="path114"
     d="m 118.022,127.613 0,9.039 1.5,0 0,-4.699 c 0,-1.297 0.316,-2.141 0.992,-2.645 0.437,-0.328 0.855,-0.429 1.832,-0.449 l 0,-1.445 c -0.238,-0.031 -0.36,-0.051 -0.551,-0.051 -0.933,0 -1.641,0.551 -2.473,1.895 l 0,-1.637 -1.3,-0.008 z"
     style="fill:#000000;fill-rule:evenodd;stroke:none" />
  <path
     inkscape:connector-curvature="0"
     id="path116"
     d="m 131.322,132.652 c 0,-1.387 -0.101,-2.223 -0.359,-2.898 -0.578,-1.492 -1.949,-2.395 -3.629,-2.395 -2.5,0 -4.105,1.934 -4.105,4.899 0,2.964 1.562,4.796 4.09,4.796 2.062,0 3.488,-1.171 3.851,-3.136 l -1.441,0 c -0.395,1.207 -1.2,1.836 -2.352,1.836 -0.91,0 -1.683,-0.41 -2.164,-1.168 -0.34,-0.516 -0.461,-1.032 -0.48,-1.93 l 6.589,-0.004 z m -6.578,-1.199 c 0.118,-1.668 1.133,-2.754 2.582,-2.754 1.41,0 2.496,1.168 2.496,2.648 0,0.032 0,0.067 -0.015,0.102 l -5.063,0.004 z"
     style="fill:#000000;fill-rule:evenodd;stroke:none" />
  <path
     inkscape:connector-curvature="0"
     id="path118"
     d="m 132.518,140.351 3.203,0 0,-16.297 -3.203,0 0,1.2 1.703,0 0,13.898 -1.703,0 0,1.199 z"
     style="fill:#000000;fill-rule:evenodd;stroke:none" />
  <path
     inkscape:connector-curvature="0"
     id="path120"
     d="m 380.322,98.9919 c 0,0 0,0 1.672,-0.9531 1.672,-0.9531 5.02,-2.8672 8.289,-5.418 3.266,-2.5505 6.453,-5.7385 11.559,-7.8125 5.102,-2.07 12.117,-3.027 18.016,-2.469 5.898,0.555 10.679,2.629 14.347,5.418 3.664,2.7893 6.215,6.2971 8.129,8.1292 1.91,1.832 3.188,1.9921 6.297,0.5546 3.105,-1.4336 8.051,-4.4609 11.238,-8.1288 3.188,-3.664 4.621,-7.969 7.094,-12.516 2.469,-4.543 5.977,-9.324 7.57,-10.761 1.594,-1.434 1.274,0.476 0,3.105 -1.273,2.629 -3.504,5.977 -5.5,9.723 -1.992,3.746 -3.746,7.89 -6.613,11.558 -2.867,3.6644 -6.855,6.8558 -10.203,8.9261 -3.348,2.0706 -6.059,3.0276 -8.449,3.8246 -2.391,0.797 -4.461,1.433 -10.125,1.992 -5.657,0.555 -14.907,1.035 -22.559,1.195 -7.652,0.156 -13.711,0 -18.73,-1.113 -5.02,-1.114 -9.008,-3.188 -11,-4.223 -1.992,-1.035 -1.992,-1.035 -1.992,-1.035"
     style="fill:#ffffff;fill-rule:evenodd;stroke:none" />
  <path
     inkscape:connector-curvature="0"
     id="path122"
     d="m 380.322,98.9919 c 0,0 0,0 1.672,-0.9531 1.672,-0.9531 5.02,-2.8672 8.289,-5.418 3.266,-2.5505 6.453,-5.7385 11.559,-7.8125 5.102,-2.07 12.117,-3.027 18.016,-2.469 5.898,0.555 10.679,2.629 14.347,5.418 3.664,2.7893 6.215,6.2971 8.129,8.1292 1.91,1.832 3.188,1.9921 6.297,0.5546 3.105,-1.4336 8.051,-4.4609 11.238,-8.1288 3.188,-3.664 4.621,-7.969 7.094,-12.516 2.469,-4.543 5.977,-9.324 7.57,-10.761 1.594,-1.434 1.274,0.476 0,3.105 -1.273,2.629 -3.504,5.977 -5.5,9.723 -1.992,3.746 -3.746,7.89 -6.613,11.558 -2.867,3.6644 -6.855,6.8558 -10.203,8.9261 -3.348,2.0706 -6.059,3.0276 -8.449,3.8246 -2.391,0.797 -4.461,1.433 -10.125,1.992 -5.657,0.555 -14.907,1.035 -22.559,1.195 -7.652,0.156 -13.711,0 -18.73,-1.113 -5.02,-1.114 -9.008,-3.188 -11,-4.223 -1.992,-1.035 -1.992,-1.035 -1.992,-1.035"
     style="fill:none;stroke:#000000;stroke-width:0.95664901" />
  <path
     inkscape:connector-curvature="0"
     id="path124"
     d="m 393.236,94.6872 c 0,-0.5273 -0.425,-0.9531 -0.953,-0.9531 -0.527,0 -0.953,0.4258 -0.953,0.9531 0,0.5274 0.426,0.9532 0.953,0.9532 0.528,0 0.953,-0.4258 0.953,-0.9532"
     style="fill:#ffffff;fill-rule:evenodd;stroke:none" />
  <path
     inkscape:connector-curvature="0"
     id="path126"
     d="m 393.236,94.6872 c 0,-0.5273 -0.425,-0.9531 -0.953,-0.9531 -0.527,0 -0.953,0.4258 -0.953,0.9531 0,0.5274 0.426,0.9532 0.953,0.9532 0.528,0 0.953,-0.4258 0.953,-0.9532"
     style="fill:none;stroke:#000000;stroke-width:0.95664901" />
  <path
     inkscape:connector-curvature="0"
     id="path128"
     d="m 387.498,103.297 c 0,0 0,0 0.555,-0.637 0.555,-0.637 1.672,-1.91 3.348,-2.148 1.671,-0.239 3.902,0.554 5.019,0.953 1.113,0.394 1.113,0.394 1.113,0.394"
     style="fill:#ffffff;fill-rule:evenodd;stroke:none" />
  <path
     inkscape:connector-curvature="0"
     id="path130"
     d="m 387.498,103.297 c 0,0 0,0 0.555,-0.637 0.555,-0.637 1.672,-1.91 3.348,-2.148 1.671,-0.239 3.902,0.554 5.019,0.953 1.113,0.394 1.113,0.394 1.113,0.394"
     style="fill:none;stroke:#000000;stroke-width:0.95664901" />
  <path
     inkscape:connector-curvature="0"
     id="path132"
     d="m 374.584,98.5154 c 0,0 0,0 1.672,-0.9532 1.672,-0.9531 5.02,-2.8671 8.289,-5.4179 3.266,-2.551 6.453,-5.738 11.559,-7.813 5.101,-2.07 12.117,-3.027 18.015,-2.468 5.899,0.554 10.68,2.629 14.348,5.418 3.664,2.789 6.215,6.2966 8.129,8.1286 1.91,1.832 3.187,1.9922 6.297,0.5547 3.105,-1.4336 8.051,-4.461 11.238,-8.1293 3.188,-3.664 4.621,-7.968 7.094,-12.515 2.469,-4.543 5.976,-9.324 7.57,-10.762 1.594,-1.434 1.274,0.477 0,3.105 -1.273,2.629 -3.504,5.977 -5.5,9.723 -1.992,3.746 -3.746,7.891 -6.613,11.559 -2.867,3.6638 -6.856,6.8552 -10.203,8.9255 -3.348,2.0703 -6.059,3.0272 -8.45,3.8242 -2.39,0.797 -4.46,1.434 -10.125,1.992 -5.656,0.555 -14.906,1.035 -22.558,1.195 -7.652,0.157 -13.711,0 -18.731,-1.113 -5.019,-1.113 -9.007,-3.187 -11,-4.2224 -1.992,-1.0351 -1.992,-1.0351 -1.992,-1.0351"
     style="fill:#ffffff;fill-rule:evenodd;stroke:none" />
  <path
     inkscape:connector-curvature="0"
     id="path134"
     d="m 374.584,98.5154 c 0,0 0,0 1.672,-0.9532 1.672,-0.9531 5.02,-2.8671 8.289,-5.4179 3.266,-2.551 6.453,-5.738 11.559,-7.813 5.101,-2.07 12.117,-3.027 18.015,-2.468 5.899,0.554 10.68,2.629 14.348,5.418 3.664,2.789 6.215,6.2966 8.129,8.1286 1.91,1.832 3.187,1.9922 6.297,0.5547 3.105,-1.4336 8.051,-4.461 11.238,-8.1293 3.188,-3.664 4.621,-7.968 7.094,-12.515 2.469,-4.543 5.976,-9.324 7.57,-10.762 1.594,-1.434 1.274,0.477 0,3.105 -1.273,2.629 -3.504,5.977 -5.5,9.723 -1.992,3.746 -3.746,7.891 -6.613,11.559 -2.867,3.6638 -6.856,6.8552 -10.203,8.9255 -3.348,2.0703 -6.059,3.0272 -8.45,3.8242 -2.39,0.797 -4.46,1.434 -10.125,1.992 -5.656,0.555 -14.906,1.035 -22.558,1.195 -7.652,0.157 -13.711,0 -18.731,-1.113 -5.019,-1.113 -9.007,-3.187 -11,-4.2224 -1.992,-1.0351 -1.992,-1.0351 -1.992,-1.0351"
     style="fill:none;stroke:#000000;stroke-width:0.95664901" />
  <path
     inkscape:connector-curvature="0"
     id="path136"
     d="m 387.498,94.2107 c 0,-0.5274 -0.426,-0.9532 -0.953,-0.9532 -0.527,0 -0.953,0.4258 -0.953,0.9532 0,0.5273 0.426,0.9531 0.953,0.9531 0.527,0 0.953,-0.4258 0.953,-0.9531"
     style="fill:#ffffff;fill-rule:evenodd;stroke:none" />
  <path
     inkscape:connector-curvature="0"
     id="path138"
     d="m 387.498,94.2107 c 0,-0.5274 -0.426,-0.9532 -0.953,-0.9532 -0.527,0 -0.953,0.4258 -0.953,0.9532 0,0.5273 0.426,0.9531 0.953,0.9531 0.527,0 0.953,-0.4258 0.953,-0.9531"
     style="fill:none;stroke:#000000;stroke-width:0.95664901" />
  <path
     inkscape:connector-curvature="0"
     id="path140"
     d="m 381.76,102.82 c 0,0 0,0 0.555,-0.637 0.554,-0.636 1.671,-1.91 3.347,-2.148 1.672,-0.2384 3.903,0.555 5.02,0.953 1.113,0.394 1.113,0.394 1.113,0.394"
     style="fill:#ffffff;fill-rule:evenodd;stroke:none" />
  <path
     inkscape:connector-curvature="0"
     id="path142"
     d="m 381.76,102.82 c 0,0 0,0 0.555,-0.637 0.554,-0.636 1.671,-1.91 3.347,-2.148 1.672,-0.2384 3.903,0.555 5.02,0.953 1.113,0.394 1.113,0.394 1.113,0.394"
     style="fill:none;stroke:#000000;stroke-width:0.95664901" />
  <path
     inkscape:connector-curvature="0"
     id="path144"
     d="m 376.975,98.5154 c 0,0 0,0 1.672,-0.9532 1.672,-0.9531 5.019,-2.8671 8.289,-5.4179 3.265,-2.551 6.453,-5.738 11.558,-7.813 5.102,-2.07 12.118,-3.027 18.016,-2.468 5.898,0.554 10.68,2.629 14.348,5.418 3.664,2.789 6.214,6.2966 8.128,8.1286 1.911,1.832 3.188,1.9922 6.297,0.5547 3.106,-1.4336 8.051,-4.461 11.239,-8.1293 3.187,-3.664 4.621,-7.968 7.093,-12.515 2.469,-4.543 5.977,-9.324 7.571,-10.762 1.593,-1.434 1.273,0.477 0,3.105 -1.274,2.629 -3.504,5.977 -5.5,9.723 -1.992,3.746 -3.746,7.891 -6.614,11.559 -2.867,3.6638 -6.855,6.8552 -10.203,8.9255 -3.347,2.0703 -6.058,3.0272 -8.449,3.8242 -2.391,0.797 -4.461,1.434 -10.125,1.992 -5.656,0.555 -14.906,1.035 -22.559,1.195 -7.652,0.157 -13.71,0 -18.73,-1.113 -5.02,-1.113 -9.008,-3.187 -11,-4.2224 -1.992,-1.0351 -1.992,-1.0351 -1.992,-1.0351"
     style="fill:#ffffff;fill-rule:evenodd;stroke:none" />
  <path
     inkscape:connector-curvature="0"
     id="path146"
     d="m 376.975,98.5154 c 0,0 0,0 1.672,-0.9532 1.672,-0.9531 5.019,-2.8671 8.289,-5.4179 3.265,-2.551 6.453,-5.738 11.558,-7.813 5.102,-2.07 12.118,-3.027 18.016,-2.468 5.898,0.554 10.68,2.629 14.348,5.418 3.664,2.789 6.214,6.2966 8.128,8.1286 1.911,1.832 3.188,1.9922 6.297,0.5547 3.106,-1.4336 8.051,-4.461 11.239,-8.1293 3.187,-3.664 4.621,-7.968 7.093,-12.515 2.469,-4.543 5.977,-9.324 7.571,-10.762 1.593,-1.434 1.273,0.477 0,3.105 -1.274,2.629 -3.504,5.977 -5.5,9.723 -1.992,3.746 -3.746,7.891 -6.614,11.559 -2.867,3.6638 -6.855,6.8552 -10.203,8.9255 -3.347,2.0703 -6.058,3.0272 -8.449,3.8242 -2.391,0.797 -4.461,1.434 -10.125,1.992 -5.656,0.555 -14.906,1.035 -22.559,1.195 -7.652,0.157 -13.71,0 -18.73,-1.113 -5.02,-1.113 -9.008,-3.187 -11,-4.2224 -1.992,-1.0351 -1.992,-1.0351 -1.992,-1.0351"
     style="fill:url(#linearGradient4125);stroke:#000000;stroke-width:0.95664901000000002;fill-opacity:1.0" />
  <path
     inkscape:connector-curvature="0"
     id="path148"
     d="m 389.889,94.2107 c 0,-0.5274 -0.426,-0.9532 -0.953,-0.9532 -0.528,0 -0.953,0.4258 -0.953,0.9532 0,0.5273 0.425,0.9531 0.953,0.9531 0.527,0 0.953,-0.4258 0.953,-0.9531"
     style="fill:#ffffff;fill-rule:evenodd;stroke:none" />
  <path
     inkscape:connector-curvature="0"
     id="path150"
     d="m 389.889,94.2107 c 0,-0.5274 -0.426,-0.9532 -0.953,-0.9532 -0.528,0 -0.953,0.4258 -0.953,0.9532 0,0.5273 0.425,0.9531 0.953,0.9531 0.527,0 0.953,-0.4258 0.953,-0.9531"
     style="fill:none;stroke:#000000;stroke-width:0.95664901" />
  <path
     inkscape:connector-curvature="0"
     id="path152"
     d="m 384.151,102.82 c 0,0 0,0 0.554,-0.637 0.555,-0.636 1.672,-1.91 3.348,-2.148 1.672,-0.2384 3.902,0.555 5.019,0.953 1.114,0.394 1.114,0.394 1.114,0.394"
     style="fill:#ffffff;fill-rule:evenodd;stroke:none" />
  <path
     inkscape:connector-curvature="0"
     id="path154"
     d="m 384.151,102.82 c 0,0 0,0 0.554,-0.637 0.555,-0.636 1.672,-1.91 3.348,-2.148 1.672,-0.2384 3.902,0.555 5.019,0.953 1.114,0.394 1.114,0.394 1.114,0.394"
     style="fill:none;stroke:#000000;stroke-width:0.95664901" />
  <path
     inkscape:connector-curvature="0"
     id="path156"
     d="m 394.194,86.0783 -2.391,-3.348"
     style="fill:none;stroke:#000000;stroke-width:0.95664901" />
  <path
     inkscape:connector-curvature="0"
     id="path158"
     d="m 402.803,84.6443 0.476,-5.738"
     style="fill:none;stroke:#000000;stroke-width:0.95664901" />
  <path
     inkscape:connector-curvature="0"
     id="path160"
     d="m 413.326,84.1633 0.953,-3.824"
     style="fill:none;stroke:#000000;stroke-width:0.95664901" />
  <path
     inkscape:connector-curvature="0"
     id="path162"
     d="m 420.026,86.0783 2.867,-6.696"
     style="fill:none;stroke:#000000;stroke-width:0.95664901" />
  <path
     inkscape:connector-curvature="0"
     id="path164"
     d="m 426.721,87.5113 5.262,-4.305"
     style="fill:none;stroke:#000000;stroke-width:0.95664901" />
  <path
     inkscape:connector-curvature="0"
     id="path166"
     d="m 431.983,91.3396 6.695,-4.7813"
     style="fill:none;stroke:#000000;stroke-width:0.95664901" />
  <path
     inkscape:connector-curvature="0"
     id="path168"
     d="m 54.584,93.7341 c 0,-0.5273 -0.4258,-0.9531 -0.9532,-0.9531 -0.5273,0 -0.9531,0.4258 -0.9531,0.9531 0,0.5274 0.4258,0.9531 0.9531,0.9531 0.5274,0 0.9532,-0.4257 0.9532,-0.9531"
     style="fill:none;stroke:#000000;stroke-width:0.95664901" />
  <path
     inkscape:connector-curvature="0"
     id="path170"
     d="m 47.8886,101.863 c 0,0 0,0 1.1133,-0.156 1.1133,-0.156 3.3477,-0.477 4.9414,-1.352 1.5938,-0.8748 2.5508,-2.3084 3.0274,-3.0271 0.4765,-0.7149 0.4765,-0.7149 0.4765,-0.7149"
     style="fill:none;stroke:#000000;stroke-width:0.95664901" />
  <path
     inkscape:connector-curvature="0"
     id="path174"
     d="m 66.0645,100.429 c 0,0 0,0 -0.7968,1.352 -0.797,1.351 -2.3908,4.063 -4.1446,5.976 -1.754,1.911 -3.6641,3.028 -3.9845,3.903 -0.3164,0.875 0.9532,1.512 2.5508,1.035 1.5938,-0.476 3.5078,-2.07 5.1797,-4.383 1.6719,-2.308 3.1055,-5.34 3.8242,-6.855 0.7149,-1.5119 0.7149,-1.5119 0.7149,-1.5119"
     style="fill:#ffffff;fill-rule:evenodd;stroke:none" />
  <path
     inkscape:connector-curvature="0"
     id="path176"
     d="m 66.0645,100.429 c 0,0 0,0 -0.7968,1.352 -0.797,1.351 -2.3908,4.063 -4.1446,5.976 -1.754,1.911 -3.6641,3.028 -3.9845,3.903 -0.3164,0.875 0.9532,1.512 2.5508,1.035 1.5938,-0.476 3.5078,-2.07 5.1797,-4.383 1.6719,-2.308 3.1055,-5.34 3.8242,-6.855 0.7149,-1.5119 0.7149,-1.5119 0.7149,-1.5119"
     style="fill:none;stroke:#000000;stroke-width:0.95664901" />
  <path
     inkscape:connector-curvature="0"
     id="path178"
     d="m 91.8929,98.9919 c 0,0 0,0 0.7969,1.3521 0.796,1.351 2.39,4.062 4.144,5.976 1.754,1.91 3.6642,3.027 3.9852,3.902 0.316,0.875 -0.9541,1.512 -2.5511,1.035 -1.5941,-0.476 -3.5081,-2.07 -5.1801,-4.382 -1.672,-2.309 -3.105,-5.34 -3.824,-6.856 -0.715,-1.5115 -0.715,-1.5115 -0.715,-1.5115"
     style="fill:#ffffff;fill-rule:evenodd;stroke:none" />
  <path
     inkscape:connector-curvature="0"
     id="path180"
     d="m 91.8929,98.9919 c 0,0 0,0 0.7969,1.3521 0.796,1.351 2.39,4.062 4.144,5.976 1.754,1.91 3.6642,3.027 3.9852,3.902 0.316,0.875 -0.9541,1.512 -2.5511,1.035 -1.5941,-0.476 -3.5081,-2.07 -5.1801,-4.382 -1.672,-2.309 -3.105,-5.34 -3.824,-6.856 -0.715,-1.5115 -0.715,-1.5115 -0.715,-1.5115"
     style="fill:none;stroke:#000000;stroke-width:0.95664901" />
  <path
     inkscape:connector-curvature="0"
     id="path182"
     d="m 400.412,101.387 c 0,0 0,0 -0.797,1.351 -0.796,1.352 -2.39,4.063 -4.144,5.977 -1.754,1.91 -3.664,3.027 -3.985,3.902 -0.316,0.875 0.954,1.512 2.551,1.035 1.594,-0.476 3.508,-2.07 5.18,-4.383 1.672,-2.308 3.105,-5.34 3.824,-6.855 0.715,-1.512 0.715,-1.512 0.715,-1.512"
     style="fill:#ffffff;fill-rule:evenodd;stroke:none" />
  <path
     inkscape:connector-curvature="0"
     id="path184"
     d="m 400.412,101.387 c 0,0 0,0 -0.797,1.351 -0.796,1.352 -2.39,4.063 -4.144,5.977 -1.754,1.91 -3.664,3.027 -3.985,3.902 -0.316,0.875 0.954,1.512 2.551,1.035 1.594,-0.476 3.508,-2.07 5.18,-4.383 1.672,-2.308 3.105,-5.34 3.824,-6.855 0.715,-1.512 0.715,-1.512 0.715,-1.512"
     style="fill:none;stroke:#000000;stroke-width:0.95664901" />
  <path
     inkscape:connector-curvature="0"
     id="path186"
     d="m 426.24,99.949 c 0,0 0,0 0.797,1.352 0.797,1.351 2.391,4.062 4.145,5.976 1.754,1.91 3.664,3.027 3.984,3.902 0.317,0.875 -0.953,1.512 -2.551,1.036 -1.593,-0.477 -3.507,-2.071 -5.179,-4.383 -1.672,-2.309 -3.106,-5.34 -3.824,-6.856 -0.715,-1.5114 -0.715,-1.5114 -0.715,-1.5114"
     style="fill:#ffffff;fill-rule:evenodd;stroke:none" />
  <path
     inkscape:connector-curvature="0"
     id="path188"
     d="m 426.24,99.949 c 0,0 0,0 0.797,1.352 0.797,1.351 2.391,4.062 4.145,5.976 1.754,1.91 3.664,3.027 3.984,3.902 0.317,0.875 -0.953,1.512 -2.551,1.036 -1.593,-0.477 -3.507,-2.071 -5.179,-4.383 -1.672,-2.309 -3.106,-5.34 -3.824,-6.856 -0.715,-1.5114 -0.715,-1.5114 -0.715,-1.5114"
     style="fill:none;stroke:#000000;stroke-width:0.95664901" />
  <path
     inkscape:connector-curvature="0"
     id="path190"
     d="m 235.389,86.0783 -2.391,-3.348"
     style="fill:none;stroke:#000000;stroke-width:0.95664901" />
  <path
     inkscape:connector-curvature="0"
     id="path192"
     d="m 243.998,84.6443 0.477,-5.738"
     style="fill:none;stroke:#000000;stroke-width:0.95664901" />
  <path
     inkscape:connector-curvature="0"
     id="path194"
     d="m 254.522,84.1633 0.953,-3.824"
     style="fill:none;stroke:#000000;stroke-width:0.95664901" />
  <path
     inkscape:connector-curvature="0"
     id="path196"
     d="m 261.221,86.0783 2.867,-6.696"
     style="fill:none;stroke:#000000;stroke-width:0.95664901" />
  <path
     inkscape:connector-curvature="0"
     id="path198"
     d="m 267.916,87.5113 5.262,-4.305"
     style="fill:none;stroke:#000000;stroke-width:0.95664901" />
  <path
     inkscape:connector-curvature="0"
     id="path200"
     d="m 273.178,91.3396 6.695,-4.7813"
     style="fill:none;stroke:#000000;stroke-width:0.95664901" />
  <path
     inkscape:connector-curvature="0"
     id="path202"
     d="m 218.17,98.5154 c 0,0 0,0 1.672,-0.9532 1.672,-0.9531 5.02,-2.8671 8.289,-5.4179 3.266,-2.551 6.453,-5.738 11.559,-7.813 5.101,-2.07 12.117,-3.027 18.015,-2.468 5.899,0.554 10.68,2.629 14.348,5.418 3.664,2.789 6.215,6.2966 8.129,8.1286 1.91,1.832 3.187,1.9922 6.297,0.5547 3.105,-1.4336 8.05,-4.461 11.238,-8.1293 3.187,-3.664 4.621,-7.968 7.094,-12.515 2.468,-4.543 5.976,-9.324 7.57,-10.762 1.594,-1.434 1.273,0.477 0,3.105 -1.273,2.629 -3.504,5.977 -5.5,9.723 -1.992,3.746 -3.746,7.891 -6.613,11.559 -2.867,3.6638 -6.856,6.8552 -10.203,8.9255 -3.348,2.0703 -6.059,3.0272 -8.45,3.8242 -2.39,0.797 -4.461,1.434 -10.125,1.992 -5.656,0.555 -14.906,1.035 -22.558,1.195 -7.653,0.157 -13.711,0 -18.731,-1.113 -5.019,-1.113 -9.007,-3.187 -11,-4.2224 -1.992,-1.0351 -1.992,-1.0351 -1.992,-1.0351"
     style="fill:#ffffff;fill-rule:evenodd;stroke:none" />
  <path
     inkscape:connector-curvature="0"
     id="path204"
     d="m 218.17,98.5154 c 0,0 0,0 1.672,-0.9532 1.672,-0.9531 5.02,-2.8671 8.289,-5.4179 3.266,-2.551 6.453,-5.738 11.559,-7.813 5.101,-2.07 12.117,-3.027 18.015,-2.468 5.899,0.554 10.68,2.629 14.348,5.418 3.664,2.789 6.215,6.2966 8.129,8.1286 1.91,1.832 3.187,1.9922 6.297,0.5547 3.105,-1.4336 8.05,-4.461 11.238,-8.1293 3.187,-3.664 4.621,-7.968 7.094,-12.515 2.468,-4.543 5.976,-9.324 7.57,-10.762 1.594,-1.434 1.273,0.477 0,3.105 -1.273,2.629 -3.504,5.977 -5.5,9.723 -1.992,3.746 -3.746,7.891 -6.613,11.559 -2.867,3.6638 -6.856,6.8552 -10.203,8.9255 -3.348,2.0703 -6.059,3.0272 -8.45,3.8242 -2.39,0.797 -4.461,1.434 -10.125,1.992 -5.656,0.555 -14.906,1.035 -22.558,1.195 -7.653,0.157 -13.711,0 -18.731,-1.113 -5.019,-1.113 -9.007,-3.187 -11,-4.2224 -1.992,-1.0351 -1.992,-1.0351 -1.992,-1.0351"
     style="fill:url(#linearGradient4117);stroke:#000000;stroke-width:0.95664901000000002;fill-opacity:1.0" />
  <path
     inkscape:connector-curvature="0"
     id="path206"
     d="m 231.084,94.2107 c 0,-0.5274 -0.426,-0.9532 -0.953,-0.9532 -0.527,0 -0.953,0.4258 -0.953,0.9532 0,0.5273 0.426,0.9531 0.953,0.9531 0.527,0 0.953,-0.4258 0.953,-0.9531"
     style="fill:#ffffff;fill-rule:evenodd;stroke:none" />
  <path
     inkscape:connector-curvature="0"
     id="path208"
     d="m 231.084,94.2107 c 0,-0.5274 -0.426,-0.9532 -0.953,-0.9532 -0.527,0 -0.953,0.4258 -0.953,0.9532 0,0.5273 0.426,0.9531 0.953,0.9531 0.527,0 0.953,-0.4258 0.953,-0.9531"
     style="fill:none;stroke:#000000;stroke-width:0.95664901" />
  <path
     inkscape:connector-curvature="0"
     id="path210"
     d="m 225.346,102.82 c 0,0 0,0 0.555,-0.637 0.554,-0.636 1.671,-1.91 3.347,-2.148 1.672,-0.2384 3.903,0.555 5.02,0.953 1.113,0.394 1.113,0.394 1.113,0.394"
     style="fill:#ffffff;fill-rule:evenodd;stroke:none" />
  <path
     inkscape:connector-curvature="0"
     id="path212"
     d="m 225.346,102.82 c 0,0 0,0 0.555,-0.637 0.554,-0.636 1.671,-1.91 3.347,-2.148 1.672,-0.2384 3.903,0.555 5.02,0.953 1.113,0.394 1.113,0.394 1.113,0.394"
     style="fill:none;stroke:#000000;stroke-width:0.95664901" />
  <path
     inkscape:connector-curvature="0"
     id="path214"
     d="m 268.397,98.9919 c 0,0 0,0 0.797,1.3521 0.796,1.351 2.39,4.062 4.144,5.976 1.754,1.91 3.664,3.027 3.984,3.902 0.317,0.875 -0.953,1.512 -2.55,1.035 -1.594,-0.476 -3.508,-2.07 -5.18,-4.382 -1.672,-2.309 -3.106,-5.34 -3.824,-6.856 -0.715,-1.5115 -0.715,-1.5115 -0.715,-1.5115"
     style="fill:#ffffff;fill-rule:evenodd;stroke:none" />
  <path
     inkscape:connector-curvature="0"
     id="path216"
     d="m 268.397,98.9919 c 0,0 0,0 0.797,1.3521 0.796,1.351 2.39,4.062 4.144,5.976 1.754,1.91 3.664,3.027 3.984,3.902 0.317,0.875 -0.953,1.512 -2.55,1.035 -1.594,-0.476 -3.508,-2.07 -5.18,-4.382 -1.672,-2.309 -3.106,-5.34 -3.824,-6.856 -0.715,-1.5115 -0.715,-1.5115 -0.715,-1.5115"
     style="fill:none;stroke:#000000;stroke-width:0.95664901" />
  <path
     inkscape:connector-curvature="0"
     id="path218"
     d="m 243.522,100.906 c 0,0 0,0 -0.797,1.351 -0.797,1.352 -2.391,4.063 -4.145,5.977 -1.754,1.91 -3.664,3.028 -3.984,3.903 -0.317,0.875 0.953,1.511 2.551,1.035 1.593,-0.477 3.507,-2.071 5.179,-4.383 1.672,-2.309 3.106,-5.34 3.825,-6.856 0.714,-1.511 0.714,-1.511 0.714,-1.511"
     style="fill:#ffffff;fill-rule:evenodd;stroke:none" />
  <path
     inkscape:connector-curvature="0"
     id="path220"
     d="m 243.522,100.906 c 0,0 0,0 -0.797,1.351 -0.797,1.352 -2.391,4.063 -4.145,5.977 -1.754,1.91 -3.664,3.028 -3.984,3.903 -0.317,0.875 0.953,1.511 2.551,1.035 1.593,-0.477 3.507,-2.071 5.179,-4.383 1.672,-2.309 3.106,-5.34 3.825,-6.856 0.714,-1.511 0.714,-1.511 0.714,-1.511"
     style="fill:none;stroke:#000000;stroke-width:0.95664901" />
  <path
     inkscape:connector-curvature="0"
     id="path222"
     d="m 258.947,97.0818 -5.019,10.7622 3.105,0.714 -3.586,12.672 7.411,-15.543 -4.063,0 2.149,-8.8474"
     style="fill:#ffffff;fill-rule:evenodd;stroke:none" />
  <path
     inkscape:connector-curvature="0"
     id="path224"
     d="m 258.947,97.0818 -5.019,10.7622 3.105,0.714 -3.586,12.672 7.411,-15.543 -4.063,0 2.149,-8.8474"
     style="fill:none;stroke:#000000;stroke-width:0.95664901" />
  <path
     inkscape:connector-curvature="0"
     id="path226"
     d="m 243.643,97.0818 -5.02,10.7622 3.106,0.714 -3.586,12.672 7.41,-15.543 -4.063,0 2.149,-8.8474"
     style="fill:#ffffff;fill-rule:evenodd;stroke:none" />
  <path
     inkscape:connector-curvature="0"
     id="path228"
     d="m 243.643,97.0818 -5.02,10.7622 3.106,0.714 -3.586,12.672 7.41,-15.543 -4.063,0 2.149,-8.8474"
     style="fill:none;stroke:#000000;stroke-width:0.95664901" />
  <path
     inkscape:connector-curvature="0"
     id="path230"
     d="m 273.299,95.6443 -5.02,10.7617 3.106,0.715 -3.586,12.672 7.41,-15.543 -4.062,0 2.148,-8.8479"
     style="fill:#ffffff;fill-rule:evenodd;stroke:none" />
  <path
     inkscape:connector-curvature="0"
     id="path232"
     d="m 273.299,95.6443 -5.02,10.7617 3.106,0.715 -3.586,12.672 7.41,-15.543 -4.062,0 2.148,-8.8479"
     style="fill:none;stroke:#000000;stroke-width:0.95664901" />
</svg>
