<?xml version="1.0" encoding="ISO-8859-1" standalone="yes"?>
<svg width="104.181" height="79.3213">
  <defs> 
    <marker id="ArrowEnd" viewBox="0 0 10 10" refX="0" refY="5" 
     markerUnits="strokeWidth" 
     markerWidth="4" 
     markerHeight="3" 
     orient="auto"> 
        <path d="M 0 0 L 10 5 L 0 10 z" /> 
    </marker>
    <marker id="ArrowStart" viewBox="0 0 10 10" refX="10" refY="5" 
     markerUnits="strokeWidth" 
     markerWidth="4" 
     markerHeight="3" 
     orient="auto"> 
        <path d="M 10 0 L 0 5 L 10 10 z" /> 
    </marker> </defs>
<g>
<path style="stroke:#000000; stroke-width:1.91229; fill:none" d="M 44.4477 57.8267C 44.4477 51.4907 39.311 46.354 32.9751 46.354C 26.6391 46.354 21.5024 51.4907 21.5024 57.8267C 21.5024 64.1626 26.6391 69.2993 32.9751 69.2993C 39.311 69.2993 44.4477 64.1626 44.4477 57.8267"/>
<path style="stroke:none; fill-rule:evenodd; fill:#000000" d="M 26.7837 61.2212L 30.0376 61.2212C 32.1704 61.2212 33.479 59.6314 33.479 57.0181C 33.479 54.4165 32.1821 52.8267 30.0376 52.8267L 26.7837 52.8267L 26.7837 61.2212zM 27.8852 60.3228L 27.8852 53.7251L 29.8579 53.7251C 31.5102 53.7251 32.3813 54.8579 32.3813 57.0298C 32.3813 59.1782 31.5102 60.3228 29.8579 60.3228L 27.8852 60.3228z"/>
<path style="stroke:none; fill-rule:evenodd; fill:#000000" d="M 37.0845 55.4556L 37.0845 61.2212L 38.0845 61.2212L 38.0845 53.1235L 37.4165 53.1235C 37.061 54.3657 36.8306 54.5415 35.2602 54.7329L 35.2602 55.4517L 37.0845 55.4556z"/>
<path style="stroke:#000000; stroke-width:1.91229; fill:none" d="M 32.9673 21.4946C 32.9673 15.1587 27.8306 10.022 21.4946 10.022C 15.1587 10.022 10.022 15.1587 10.022 21.4946C 10.022 27.8306 15.1587 32.9673 21.4946 32.9673C 27.8306 32.9673 32.9673 27.8306 32.9673 21.4946"/>
<path style="stroke:none; fill-rule:evenodd; fill:#000000" d="M 15.2837 24.9243L 18.5376 24.9243C 20.6704 24.9243 21.979 23.3345 21.979 20.7212C 21.979 18.1196 20.6821 16.5298 18.5376 16.5298L 15.2837 16.5298L 15.2837 24.9243zM 16.3852 24.022L 16.3852 17.4243L 18.3579 17.4243C 20.0102 17.4243 20.8813 18.5571 20.8813 20.729C 20.8813 22.8774 20.0102 24.022 18.3579 24.022L 16.3852 24.022z"/>
<path style="stroke:none; fill-rule:evenodd; fill:#000000" d="M 25.5845 19.1548L 25.5845 24.9204L 26.5845 24.9204L 26.5845 16.8228L 25.9165 16.8228C 25.561 18.065 25.3306 18.2407 23.7602 18.4321L 23.7602 19.1509L 25.5845 19.1548z"/>
<path style="stroke:#000000; stroke-width:1.91229; fill:none" d="M 52.0884 46.354L 52.0884 32.9712"/>
<path style="stroke:#000000; stroke-width:1.91229; fill:none" d="M 50.1782 40.6157L 52.0884 32.9673L 53.9985 40.6157"/>
<path style="stroke:#000000; stroke-width:1.91229; fill:none" d="M 63.5649 57.8267C 63.5649 51.4907 58.4282 46.354 52.0923 46.354C 45.7563 46.354 40.6196 51.4907 40.6196 57.8267C 40.6196 64.1626 45.7563 69.2993 52.0923 69.2993C 58.4282 69.2993 63.5649 64.1626 63.5649 57.8267"/>
<path style="stroke:none; fill-rule:evenodd; fill:#000000" d="M 45.8852 61.2212L 49.1391 61.2212C 51.272 61.2212 52.5806 59.6314 52.5806 57.0181C 52.5806 54.4165 51.2837 52.8267 49.1391 52.8267L 45.8852 52.8267L 45.8852 61.2212zM 46.9868 60.3228L 46.9868 53.7251L 48.9595 53.7251C 50.6118 53.7251 51.4829 54.8579 51.4829 57.0298C 51.4829 59.1782 50.6118 60.3228 48.9595 60.3228L 46.9868 60.3228z"/>
<path style="stroke:none; fill-rule:evenodd; fill:#000000" d="M 58.9282 60.2212L 54.7016 60.2212C 54.8032 59.561 55.1665 59.1392 56.1509 58.5571L 57.2837 57.9439C 58.4048 57.3306 58.9829 56.4985 58.9829 55.5024C 58.9829 54.8306 58.7134 54.2017 58.2368 53.7681C 57.7641 53.3345 57.1743 53.1314 56.4126 53.1314C 55.393 53.1314 54.6352 53.4907 54.1938 54.1704C 53.9126 54.6001 53.7876 55.0962 53.7641 55.9126L 54.7641 55.9126C 54.7954 55.3774 54.8657 55.0532 55.0024 54.7993C 55.2641 54.3228 55.7876 54.0298 56.3891 54.0298C 57.2993 54.0298 57.9829 54.6782 57.9829 55.5454C 57.9829 56.1821 57.6079 56.729 56.8891 57.1392L 55.8423 57.729C 54.1587 58.6821 53.6665 59.4478 53.5766 61.2212L 58.9282 61.2212L 58.9282 60.2212z"/>
<path style="stroke:#000000; stroke-width:1.91229; fill:none" d="M 63.5649 21.4946C 63.5649 15.1587 58.4282 10.022 52.0923 10.022C 45.7563 10.022 40.6196 15.1587 40.6196 21.4946C 40.6196 27.8306 45.7563 32.9673 52.0923 32.9673C 58.4282 32.9673 63.5649 27.8306 63.5649 21.4946"/>
<path style="stroke:none; fill-rule:evenodd; fill:#000000" d="M 45.8852 24.9243L 49.1391 24.9243C 51.272 24.9243 52.5806 23.3345 52.5806 20.7212C 52.5806 18.1196 51.2837 16.5298 49.1391 16.5298L 45.8852 16.5298L 45.8852 24.9243zM 46.9868 24.022L 46.9868 17.4243L 48.9595 17.4243C 50.6118 17.4243 51.4829 18.5571 51.4829 20.729C 51.4829 22.8774 50.6118 24.022 48.9595 24.022L 46.9868 24.022z"/>
<path style="stroke:none; fill-rule:evenodd; fill:#000000" d="M 58.9282 23.9243L 54.7016 23.9243C 54.8032 23.2642 55.1665 22.8423 56.1509 22.2603L 57.2837 21.647C 58.4048 21.0337 58.9829 20.2017 58.9829 19.2056C 58.9829 18.5337 58.7134 17.9048 58.2368 17.4712C 57.7641 17.0376 57.1743 16.8345 56.4126 16.8345C 55.393 16.8345 54.6352 17.1939 54.1938 17.8735C 53.9126 18.3032 53.7876 18.7993 53.7641 19.6157L 54.7641 19.6157C 54.7954 19.0806 54.8657 18.7564 55.0024 18.5024C 55.2641 18.0259 55.7876 17.7329 56.3891 17.7329C 57.2993 17.7329 57.9829 18.3814 57.9829 19.2485C 57.9829 19.8853 57.6079 20.4321 56.8891 20.8423L 55.8423 21.4321C 54.1587 22.3853 53.6665 23.1509 53.5766 24.9243L 58.9282 24.9243L 58.9282 23.9243z"/>
<path style="stroke:#000000; stroke-width:1.91229; fill:none" d="M 94.1588 21.4946C 94.1588 15.1587 89.0218 10.022 82.686 10.022C 76.3501 10.022 71.2134 15.1587 71.2134 21.4946C 71.2134 27.8306 76.3501 32.9673 82.686 32.9673C 89.0218 32.9673 94.1588 27.8306 94.1588 21.4946"/>
<path style="stroke:none; fill-rule:evenodd; fill:#000000" d="M 76.4868 24.9243L 79.7407 24.9243C 81.8735 24.9243 83.1821 23.3345 83.1821 20.7212C 83.1821 18.1196 81.8852 16.5298 79.7407 16.5298L 76.4868 16.5298L 76.4868 24.9243zM 77.5845 24.022L 77.5845 17.4243L 79.5571 17.4243C 81.2095 17.4243 82.0806 18.5571 82.0806 20.729C 82.0806 22.8774 81.2095 24.022 79.5571 24.022L 77.5845 24.022z"/>
<path style="stroke:none; fill-rule:evenodd; fill:#000000" d="M 86.3227 21.2212L 86.8774 21.2212C 88.0024 21.2212 88.5806 21.7251 88.5806 22.6939C 88.5806 23.7095 87.9477 24.315 86.8852 24.315C 85.7798 24.315 85.2368 23.7564 85.1665 22.5532L 84.1509 22.5532C 84.1938 23.2134 84.311 23.647 84.5024 24.0181C 84.9126 24.8071 85.7173 25.2134 86.8266 25.2134C 88.4985 25.2134 89.5768 24.2173 89.5768 22.6782C 89.5768 21.647 89.1778 21.0728 88.2095 20.7407C 88.9204 20.4439 89.2798 19.8696 89.2798 19.0571C 89.2798 17.6587 88.3618 16.8228 86.8345 16.8228C 85.2173 16.8228 84.3579 17.7056 84.3227 19.4126L 85.3227 19.4126C 85.3306 18.936 85.3774 18.6704 85.5024 18.4243C 85.729 17.9907 86.229 17.7251 86.854 17.7251C 87.7407 17.7251 88.2759 18.2407 88.2759 19.0806C 88.2759 19.6392 88.0727 19.9751 87.6352 20.1548C 87.3657 20.2642 87.018 20.311 86.3149 20.3228L 86.3227 21.2212z"/>
<path style="stroke:#000000; stroke-width:1.91229; fill:none" d="M 82.6821 57.8267C 82.6821 51.4907 77.5454 46.354 71.2095 46.354C 64.8735 46.354 59.7368 51.4907 59.7368 57.8267C 59.7368 64.1626 64.8735 69.2993 71.2095 69.2993C 77.5454 69.2993 82.6821 64.1626 82.6821 57.8267"/>
<path style="stroke:none; fill-rule:evenodd; fill:#000000" d="M 65.0845 61.2212L 68.3384 61.2212C 70.4712 61.2212 71.7798 59.6314 71.7798 57.0181C 71.7798 54.4165 70.4829 52.8267 68.3384 52.8267L 65.0845 52.8267L 65.0845 61.2212zM 66.186 60.3228L 66.186 53.7251L 68.1587 53.7251C 69.811 53.7251 70.6821 54.8579 70.6821 57.0298C 70.6821 59.1782 69.811 60.3228 68.1587 60.3228L 66.186 60.3228z"/>
<path style="stroke:none; fill-rule:evenodd; fill:#000000" d="M 74.8227 57.522L 75.3774 57.522C 76.5024 57.522 77.0806 58.0259 77.0806 58.9946C 77.0806 60.0103 76.4477 60.6157 75.3852 60.6157C 74.2798 60.6157 73.7368 60.0571 73.6665 58.854L 72.6509 58.854C 72.6938 59.5142 72.811 59.9478 73.0024 60.3189C 73.4126 61.1079 74.2173 61.5142 75.3266 61.5142C 76.9985 61.5142 78.0766 60.5181 78.0766 58.979C 78.0766 57.9478 77.6782 57.3735 76.7095 57.0415C 77.4204 56.7446 77.7798 56.1704 77.7798 55.3579C 77.7798 53.9595 76.8618 53.1235 75.3345 53.1235C 73.7173 53.1235 72.8579 54.0064 72.8227 55.7134L 73.8227 55.7134C 73.8306 55.2368 73.8774 54.9712 74.0024 54.7251C 74.229 54.2915 74.729 54.0259 75.354 54.0259C 76.2407 54.0259 76.7759 54.5415 76.7759 55.3814C 76.7759 55.94 76.5727 56.2759 76.1352 56.4556C 75.8657 56.565 75.518 56.6118 74.8149 56.6235L 74.8227 57.522z"/>
<path style="stroke:none; fill-rule:evenodd; fill:#000000" d="M 87.0845 68.2212L 88.8813 68.2212L 88.8813 66.4243L 87.0845 66.4243L 87.0845 68.2212z"/>
<path style="stroke:none; fill-rule:evenodd; fill:#000000" d="M 91.7838 68.2212L 93.5808 68.2212L 93.5808 66.4243L 91.7838 66.4243L 91.7838 68.2212z"/>
<path style="stroke:none; fill-rule:evenodd; fill:#000000" d="M 96.5848 68.2212L 98.3818 68.2212L 98.3818 66.4243L 96.5848 66.4243L 96.5848 68.2212z"/>
<path style="stroke:#000000; stroke-width:1.91229; fill:none" d="M 71.2563 46.3228L 82.7329 32.9321"/>
<path style="stroke:#000000; stroke-width:1.91229; fill:none" d="M 76.3071 37.4946L 82.7329 32.9321L 79.2095 39.9829"/>
<path style="stroke:#000000; stroke-width:1.91229; fill:none" d="M 32.9907 46.3228L 21.5141 32.9321"/>
<path style="stroke:#000000; stroke-width:1.91229; fill:none" d="M 25.0376 39.9829L 21.5141 32.9321L 27.9399 37.4946"/>
</g>
</svg>