<?xml version="1.0" encoding="UTF-8" standalone="no"?>
<!-- Created with Inkscape (http://www.inkscape.org/) -->

<svg
   xmlns:dc="http://purl.org/dc/elements/1.1/"
   xmlns:cc="http://creativecommons.org/ns#"
   xmlns:rdf="http://www.w3.org/1999/02/22-rdf-syntax-ns#"
   xmlns:svg="http://www.w3.org/2000/svg"
   xmlns="http://www.w3.org/2000/svg"
   xmlns:xlink="http://www.w3.org/1999/xlink"
   xmlns:sodipodi="http://sodipodi.sourceforge.net/DTD/sodipodi-0.dtd"
   xmlns:inkscape="http://www.inkscape.org/namespaces/inkscape"
   width="744.09448819"
   height="1052.3622047"
   id="svg2195"
   sodipodi:version="0.32"
   inkscape:version="0.48.2 r9819"
   sodipodi:docname="fig_brain_puzzle_blue_sky.svg"
   inkscape:output_extension="org.inkscape.output.svg.inkscape"
   inkscape:export-filename="/Users/oreilly/svn_docs/figs/fig_brain_puzzle_blue_sky.png"
   inkscape:export-xdpi="235.88"
   inkscape:export-ydpi="235.88"
   sodipodi:modified="TRUE"
   version="1.1">
  <defs
     id="defs2197">
    <inkscape:perspective
       sodipodi:type="inkscape:persp3d"
       inkscape:vp_x="0 : 526.18109 : 1"
       inkscape:vp_y="0 : 1000 : 0"
       inkscape:vp_z="744.09448 : 526.18109 : 1"
       inkscape:persp3d-origin="372.04724 : 350.78739 : 1"
       id="perspective55" />
    <linearGradient
       id="linearGradient4206">
      <stop
         id="stop4208"
         offset="0"
         style="stop-color:#ffffff;stop-opacity:1;" />
      <stop
         style="stop-color:#eae5fd;stop-opacity:1;"
         offset="1"
         id="stop4212" />
    </linearGradient>
    <linearGradient
       id="linearGradient7812">
      <stop
         id="stop7814"
         offset="0"
         style="stop-color:#280997;stop-opacity:1;" />
      <stop
         id="stop7816"
         offset="1"
         style="stop-color:#c39bf6;stop-opacity:1;" />
    </linearGradient>
    <linearGradient
       id="linearGradient4810">
      <stop
         style="stop-color:#653ff2;stop-opacity:1;"
         offset="0"
         id="stop4812" />
      <stop
         style="stop-color:#f4dbff;stop-opacity:1;"
         offset="1"
         id="stop4814" />
    </linearGradient>
    <linearGradient
       inkscape:collect="always"
       xlink:href="#linearGradient4810"
       id="linearGradient5799"
       gradientUnits="userSpaceOnUse"
       x1="312.85715"
       y1="650.57648"
       x2="493.57144"
       y2="650.57648" />
    <linearGradient
       inkscape:collect="always"
       xlink:href="#linearGradient4810"
       id="linearGradient5803"
       gradientUnits="userSpaceOnUse"
       x1="312.85715"
       y1="650.57648"
       x2="493.57144"
       y2="650.57648" />
    <linearGradient
       inkscape:collect="always"
       xlink:href="#linearGradient7812"
       id="linearGradient6838"
       x1="311.35715"
       y1="650.57648"
       x2="495.07144"
       y2="650.57648"
       gradientUnits="userSpaceOnUse" />
    <linearGradient
       inkscape:collect="always"
       xlink:href="#linearGradient7812"
       id="linearGradient7824"
       x1="311.35715"
       y1="650.57648"
       x2="495.07144"
       y2="650.57648"
       gradientUnits="userSpaceOnUse" />
    <marker
       orient="auto"
       markerHeight="3"
       markerWidth="4"
       markerUnits="strokeWidth"
       refY="5"
       refX="10"
       viewBox="0 0 10 10"
       id="ArrowStart">
      <path
         id="path8137"
         d="M 10 0 L 0 5 L 10 10 z" />
    </marker>
    <marker
       orient="auto"
       markerHeight="3"
       markerWidth="4"
       markerUnits="strokeWidth"
       refY="5"
       refX="0"
       viewBox="0 0 10 10"
       id="ArrowEnd">
      <path
         id="path8134"
         d="M 0 0 L 10 5 L 0 10 z" />
    </marker>
    <linearGradient
       inkscape:collect="always"
       xlink:href="#linearGradient4810"
       id="linearGradient10594"
       x1="106.98521"
       y1="393.43359"
       x2="547.3006"
       y2="393.43359"
       gradientUnits="userSpaceOnUse"
       gradientTransform="matrix(0.7695344,-0.132254,0.1356897,0.7500495,183.68476,233.80728)" />
    <linearGradient
       inkscape:collect="always"
       xlink:href="#linearGradient7812"
       id="linearGradient11577"
       gradientUnits="userSpaceOnUse"
       x1="311.35715"
       y1="650.57648"
       x2="495.07144"
       y2="650.57648"
       gradientTransform="matrix(0.7695344,-0.132254,0.1356897,0.7500495,183.68476,233.80728)" />
    <linearGradient
       inkscape:collect="always"
       xlink:href="#linearGradient4810"
       id="linearGradient2182"
       gradientUnits="userSpaceOnUse"
       x1="312.85715"
       y1="650.57648"
       x2="493.57144"
       y2="650.57648" />
    <linearGradient
       inkscape:collect="always"
       xlink:href="#linearGradient7812"
       id="linearGradient2184"
       gradientUnits="userSpaceOnUse"
       x1="311.35715"
       y1="650.57648"
       x2="495.07144"
       y2="650.57648" />
    <linearGradient
       inkscape:collect="always"
       xlink:href="#linearGradient4810"
       id="linearGradient2475"
       gradientUnits="userSpaceOnUse"
       gradientTransform="matrix(0.7695344,-0.132254,0.1356897,0.7500495,183.68476,233.80728)"
       x1="106.98521"
       y1="393.43359"
       x2="547.3006"
       y2="393.43359" />
    <linearGradient
       inkscape:collect="always"
       xlink:href="#linearGradient7812"
       id="linearGradient2477"
       gradientUnits="userSpaceOnUse"
       gradientTransform="matrix(0.7695344,-0.132254,0.1356897,0.7500495,183.68476,233.80728)"
       x1="311.35715"
       y1="650.57648"
       x2="495.07144"
       y2="650.57648" />
    <linearGradient
       inkscape:collect="always"
       xlink:href="#linearGradient4810"
       id="linearGradient2488"
       gradientUnits="userSpaceOnUse"
       gradientTransform="matrix(0.7695344,-0.132254,0.1356897,0.7500495,183.68476,233.80728)"
       x1="106.98521"
       y1="393.43359"
       x2="547.3006"
       y2="393.43359" />
    <linearGradient
       inkscape:collect="always"
       xlink:href="#linearGradient7812"
       id="linearGradient2490"
       gradientUnits="userSpaceOnUse"
       gradientTransform="matrix(0.7695344,-0.132254,0.1356897,0.7500495,183.68476,233.80728)"
       x1="311.35715"
       y1="650.57648"
       x2="495.07144"
       y2="650.57648" />
    <linearGradient
       inkscape:collect="always"
       xlink:href="#linearGradient4810"
       id="linearGradient2504"
       gradientUnits="userSpaceOnUse"
       gradientTransform="matrix(0.7695344,-0.132254,0.1356897,0.7500495,183.68476,233.80728)"
       x1="106.98521"
       y1="393.43359"
       x2="547.3006"
       y2="393.43359" />
    <linearGradient
       inkscape:collect="always"
       xlink:href="#linearGradient7812"
       id="linearGradient2506"
       gradientUnits="userSpaceOnUse"
       gradientTransform="matrix(0.7695344,-0.132254,0.1356897,0.7500495,183.68476,233.80728)"
       x1="311.35715"
       y1="650.57648"
       x2="495.07144"
       y2="650.57648" />
    <linearGradient
       inkscape:collect="always"
       xlink:href="#linearGradient4810"
       id="linearGradient2517"
       gradientUnits="userSpaceOnUse"
       gradientTransform="matrix(0.7695344,-0.132254,0.1356897,0.7500495,183.68476,233.80728)"
       x1="106.98521"
       y1="393.43359"
       x2="547.3006"
       y2="393.43359" />
    <linearGradient
       inkscape:collect="always"
       xlink:href="#linearGradient7812"
       id="linearGradient2519"
       gradientUnits="userSpaceOnUse"
       gradientTransform="matrix(0.7695344,-0.132254,0.1356897,0.7500495,183.68476,233.80728)"
       x1="311.35715"
       y1="650.57648"
       x2="495.07144"
       y2="650.57648" />
    <linearGradient
       inkscape:collect="always"
       xlink:href="#linearGradient4810"
       id="linearGradient2521"
       gradientUnits="userSpaceOnUse"
       gradientTransform="matrix(0.7695344,-0.132254,0.1356897,0.7500495,183.68476,233.80728)"
       x1="106.98521"
       y1="393.43359"
       x2="547.3006"
       y2="393.43359" />
    <linearGradient
       inkscape:collect="always"
       xlink:href="#linearGradient7812"
       id="linearGradient2523"
       gradientUnits="userSpaceOnUse"
       gradientTransform="matrix(0.7695344,-0.132254,0.1356897,0.7500495,183.68476,233.80728)"
       x1="311.35715"
       y1="650.57648"
       x2="495.07144"
       y2="650.57648" />
    <linearGradient
       inkscape:collect="always"
       xlink:href="#linearGradient4810"
       id="linearGradient3507"
       gradientUnits="userSpaceOnUse"
       gradientTransform="matrix(0.7695344,-0.132254,0.1356897,0.7500495,-84.88667,142.37871)"
       x1="106.98521"
       y1="393.43359"
       x2="547.3006"
       y2="393.43359" />
    <linearGradient
       inkscape:collect="always"
       xlink:href="#linearGradient7812"
       id="linearGradient3509"
       gradientUnits="userSpaceOnUse"
       gradientTransform="matrix(0.7695344,-0.132254,0.1356897,0.7500495,-84.88667,142.37871)"
       x1="311.35715"
       y1="650.57648"
       x2="495.07144"
       y2="650.57648" />
    <linearGradient
       inkscape:collect="always"
       xlink:href="#linearGradient4810"
       id="linearGradient3512"
       gradientUnits="userSpaceOnUse"
       gradientTransform="matrix(0.7695344,-0.132254,0.1356897,0.7500495,-84.88667,142.37871)"
       x1="106.98521"
       y1="393.43359"
       x2="547.3006"
       y2="393.43359" />
    <linearGradient
       inkscape:collect="always"
       xlink:href="#linearGradient7812"
       id="linearGradient3514"
       gradientUnits="userSpaceOnUse"
       gradientTransform="matrix(0.7695344,-0.132254,0.1356897,0.7500495,-84.88667,142.37871)"
       x1="311.35715"
       y1="650.57648"
       x2="495.07144"
       y2="650.57648" />
    <linearGradient
       inkscape:collect="always"
       xlink:href="#linearGradient4810"
       id="linearGradient3517"
       gradientUnits="userSpaceOnUse"
       gradientTransform="matrix(0.7695344,-0.132254,0.1356897,0.7500495,-84.88667,142.37871)"
       x1="106.98521"
       y1="393.43359"
       x2="547.3006"
       y2="393.43359" />
    <linearGradient
       inkscape:collect="always"
       xlink:href="#linearGradient7812"
       id="linearGradient3519"
       gradientUnits="userSpaceOnUse"
       gradientTransform="matrix(0.7695344,-0.132254,0.1356897,0.7500495,-84.88667,142.37871)"
       x1="311.35715"
       y1="650.57648"
       x2="495.07144"
       y2="650.57648" />
    <linearGradient
       inkscape:collect="always"
       xlink:href="#linearGradient4810"
       id="linearGradient3522"
       gradientUnits="userSpaceOnUse"
       gradientTransform="matrix(0.7695344,-0.132254,0.1356897,0.7500495,-84.88667,142.37871)"
       x1="106.98521"
       y1="393.43359"
       x2="547.3006"
       y2="393.43359" />
    <linearGradient
       inkscape:collect="always"
       xlink:href="#linearGradient7812"
       id="linearGradient3524"
       gradientUnits="userSpaceOnUse"
       gradientTransform="matrix(0.7695344,-0.132254,0.1356897,0.7500495,-84.88667,142.37871)"
       x1="311.35715"
       y1="650.57648"
       x2="495.07144"
       y2="650.57648" />
    <linearGradient
       inkscape:collect="always"
       xlink:href="#linearGradient4810"
       id="linearGradient3527"
       gradientUnits="userSpaceOnUse"
       gradientTransform="matrix(0.7695344,-0.132254,0.1356897,0.7500495,-84.88667,142.37871)"
       x1="106.98521"
       y1="393.43359"
       x2="547.3006"
       y2="393.43359" />
    <linearGradient
       inkscape:collect="always"
       xlink:href="#linearGradient7812"
       id="linearGradient3529"
       gradientUnits="userSpaceOnUse"
       gradientTransform="matrix(0.7695344,-0.132254,0.1356897,0.7500495,-84.88667,142.37871)"
       x1="311.35715"
       y1="650.57648"
       x2="495.07144"
       y2="650.57648" />
    <linearGradient
       inkscape:collect="always"
       xlink:href="#linearGradient4810"
       id="linearGradient4688"
       gradientUnits="userSpaceOnUse"
       gradientTransform="matrix(0.7695344,-0.12935241,0.1356897,0.73359377,-10.644827,514.15029)"
       x1="106.98521"
       y1="393.43359"
       x2="547.3006"
       y2="393.43359" />
  </defs>
  <sodipodi:namedview
     id="base"
     pagecolor="#ffffff"
     bordercolor="#666666"
     borderopacity="1.0"
     gridtolerance="10000"
     guidetolerance="10"
     objecttolerance="10"
     inkscape:pageopacity="0.0"
     inkscape:pageshadow="2"
     inkscape:zoom="2.8"
     inkscape:cx="270.96322"
     inkscape:cy="289.25476"
     inkscape:document-units="px"
     inkscape:current-layer="layer1"
     inkscape:window-width="1748"
     inkscape:window-height="1119"
     inkscape:window-x="121"
     inkscape:window-y="22"
     showgrid="false"
     inkscape:window-maximized="0" />
  <metadata
     id="metadata2200">
    <rdf:RDF>
      <cc:Work
         rdf:about="">
        <dc:format>image/svg+xml</dc:format>
        <dc:type
           rdf:resource="http://purl.org/dc/dcmitype/StillImage" />
        <dc:title></dc:title>
      </cc:Work>
    </rdf:RDF>
  </metadata>
  <g
     inkscape:label="Layer 1"
     inkscape:groupmode="layer"
     id="layer1">
    <rect
       style="fill:#ffffff;stroke:#ffffff;stroke-width:1.91688704;stroke-linejoin:round;stroke-miterlimit:4;stroke-opacity:1;stroke-dasharray:none;stroke-dashoffset:0"
       id="rect5031"
       width="345.84229"
       height="273.33182"
       x="122.97443"
       y="618.56409" />
    <path
       inkscape:connector-curvature="0"
       style="color:#000000;fill:url(#linearGradient4688);fill-opacity:1;fill-rule:nonzero;stroke:#000000;stroke-width:2;stroke-linecap:butt;stroke-linejoin:miter;stroke-miterlimit:4;stroke-opacity:1;stroke-dasharray:none;stroke-dashoffset:0;marker:none;visibility:visible;display:inline;overflow:visible;enable-background:accumulate"
       d="m 395.40703,800.42352 c 0,0 8.73577,1.64154 13.26313,-0.0238 8.54202,-3.14198 13.02264,-4.95851 26.38691,-13.63171 4.95424,-3.21523 -43.20733,-22.83183 -39.82844,-25.12485 3.17512,-2.15474 43.17806,23.49026 46.38012,20.88224 7.63984,-6.21708 19.15151,-18.12308 20.98599,-31.65992 0.73909,-5.45389 -20.59818,-4.89236 -20.57711,-8.97042 0.0172,-3.33119 21.72666,5.89792 20.87028,1.51595 -1.13554,-5.79451 -3.01784,-23.26885 -5.50926,-30.71626 -2.49142,-7.4474 -5.59197,-15.34709 -9.16397,-22.95076 -3.57517,-7.60407 -19.23717,-21.33472 -25.38825,-28.32019 -3.07554,-3.49274 3.56981,33.1712 1.11134,31.26329 -2.4208,-1.8787 -2.83082,-33.24672 -8.83009,-36.4023 -12.31871,-15.30528 -36.50334,-21.42494 -45.06298,-24.81138 -8.55965,-3.38643 2.00526,21.28348 0.19962,20.73379 -1.83811,-0.55959 -4.32404,-18.90109 -14.12703,-22.92206 -9.80299,-4.02097 -26.92302,-3.60132 -31.76536,-4.18221 -4.84234,-0.58089 4.81211,23.51134 2.82055,21.05968 -2.76936,-3.40916 -7.25786,-21.12959 -11.63711,-21.29564 -17.517,-0.66424 -33.82312,-1.26682 -39.36255,0.69351 -3.83935,1.3587 4.17074,3.74004 12.18389,20.34956 3.92868,8.14331 17.4797,45.68943 14.79813,45.89973 -3.68647,0.28911 -10.36167,-38.5347 -21.30978,-50.51039 -15.41124,-16.85773 -10.403,-15.59219 -17.87861,-14.58268 -11.18728,1.51074 -23.39588,6.06602 -32.19978,11.7515 -4.0568,2.61985 12.3668,20.78409 10.5348,23.46944 -3.0707,1.31104 -12.9377,-22.10109 -19.2801,-18.80544 -4.0413,2.09996 -28.4093,18.57919 -34.7176,24.6616 -4.3092,4.15487 22.4932,23.45494 21.1131,25.01802 -2.937,3.32644 -22.8258,-21.27653 -26.0876,-18.06118 -3.2618,3.21536 -5.635,5.76111 -6.6139,7.06692 -10.0588,12.93896 -14.6076,19.37521 -21.919,29.79024 -1.0156,1.44662 17.8899,9.37727 17.0474,11.39944 -0.6698,1.6078 -18.3308,-8.24043 -19.1882,-6.48774 -0.8574,1.75269 -7.8378,17.4857 -8.8012,19.66249 -4.0192,9.08174 41.8692,23.35715 40.6325,26.1247 -1.4625,3.06703 -42.5314,-21.73382 -44.4229,-16.52456 -1.8915,5.20925 -3.4964,10.2949 -4.8229,15.33746 -0.6633,2.52129 -5.2976,21.33365 -5.8227,23.84347 -0.525,2.50982 23.7672,8.47689 23.3783,10.99538 -0.3889,2.51848 -22.9337,-7.30356 -23.1885,-4.75628 -0.2548,2.54727 0.5671,9.55995 0.4444,12.15615 -0.4931,10.38528 3.7803,27.20217 8.1762,38.25013 2.1772,5.47208 9.422,-7.60177 11.4678,-6.14957 3.2316,2.29401 -9.2346,10.44325 -7.1745,13.38203 2.0111,2.86881 5.849,5.70152 10.1834,8.25119 6.1708,3.62988 13.348,6.68603 17.6931,8.45582 3.6985,1.50645 40.4477,-15.70296 44.4932,-15.01813 4.0455,0.68485 -44.8158,15.31197 -36.0668,18.24812 7.9517,2.66859 23.5081,-2.41801 32.0247,-3.55802 8.5167,-1.14002 17.0145,-2.04566 25.3461,-1.16388 8.337,0.88164 16.5072,3.55042 24.70862,6.64519 8.20143,3.09478 16.43411,6.61556 24.89604,9.20123 16.92864,5.1721 34.775,6.61604 52.12051,6.0407 17.34787,-0.56955 49.35307,-9.57667 69.48253,-24.3005 3.5614,-1.93548 -43.59766,-12.22736 -42.45434,-13.50595 2.64764,-2.96089 42.74283,12.06099 46.6975,8.10225 6.77682,-6.78381 13.23337,-14.5233 14.44336,-21.01778 1.21243,-6.49797 -1.30493,-12.24518 -5.78733,-17.32194 -4.4824,-5.07677 -10.92984,-9.48309 -17.57753,-13.29931 -6.64766,-3.81624 -13.49734,-7.04363 -20.04883,-9.58128 -6.55149,-2.53765 -12.80479,-4.38558 -18.25969,-5.44288 -10.90986,-2.11461 -33.04223,-2.54812 -36.76728,-2.86206 -3.72505,-0.31395 -12.54907,-1.93828 -18.82118,-3.22207 -3.53811,-1.35845 -7.2458,-3.23961 -10.04397,-4.7657 -2.72735,-1.48747 6.83793,2.95131 6.83793,2.95131"
       id="path8335"
       sodipodi:nodetypes="cssscsscscsscsssssssssssscsssscsssscssssscsssssssscscccsscssssscsc" />
    <path
       sodipodi:type="arc"
       style="opacity:0.77837836;fill:#000000;fill-opacity:1;stroke:#00d100;stroke-opacity:1"
       id="path3218"
       sodipodi:cx="499.28571"
       sodipodi:cy="645.2193"
       sodipodi:rx="13.571428"
       sodipodi:ry="0"
       d="M 512.85713 645.2193 A 13.571428 0 0 1 1  485.71428,645.2193 A 13.571428 0 0 1 1  512.85713 645.2193 z" />
    <path
       style="fill:none;stroke:#000000;stroke-width:2;stroke-linejoin:round;stroke-miterlimit:4;stroke-opacity:1;stroke-dasharray:none;stroke-dashoffset:0"
       d="m 224.28571,863.79075 c 0,0 -1.43651,-4.79439 -0.35714,-6.78571 1.24549,-2.29779 4.1869,-4.20642 6.78572,-3.92857 1.75974,0.18814 2.15888,3.58826 3.92857,3.57143 2.94735,-0.028 6.20343,-3.13256 6.42857,-6.07143 0.20736,-2.70677 -2.64017,-5.08663 -5,-6.42857 -1.66866,-0.94889 -3.9529,-1.47738 -5.71429,-0.71429 -1.48578,0.64369 -1.23803,3.94739 -2.85714,3.92857 -1.88218,-0.0219 -2.30851,-2.99281 -3.21429,-4.64285 -1.181,-2.15139 -3.54715,-4.43048 -2.85714,-6.78572 0.64988,-2.21825 4.57855,-1.91534 5.71429,-3.92857 0.99611,-1.76572 1.63438,-4.49706 0.35714,-6.07143 -1.51682,-1.86969 -4.73528,-1.07878 -7.14286,-1.07143 -3.85573,0.0118 -8.11169,-0.18026 -11.42857,1.78572 -1.67965,0.99556 -1.21077,3.25209 -0.89286,5.17856 0.27955,1.69402 3.88719,2.38689 4.64286,3.92858 0.73542,1.50037 -1.81284,1.7185 -3.03572,2.85715 -1.21977,1.13575 -3.70574,0.76081 -5.35714,0.53571 -2.20362,-0.30037 -4.30322,-1.13061 -6.42857,-1.78572 -3.7967,-1.17028 -2.92997,-1.41312 -3.75,-3.39286 -0.38657,-0.93326 2.82405,-1.39694 2.50001,-5.17857 -0.15876,-1.8528 -2.66458,-3.81764 -4.46429,-4.28571 -3.20951,-0.83473 -6.43234,1.88146 -9.28572,3.57143 -1.74432,1.03311 -4.51813,1.9051 -4.64285,3.92857 -0.25915,4.20435 6.45344,0.63764 8.21428,4.46428 0.85183,1.85119 2.47717,9.4176 1.07143,10.89286 -2.38726,2.50532 -7.40424,-2.51872 -10.35714,-0.71428 -1.54726,0.9455 -1.84671,3.21107 -2.14286,5 -0.25351,1.53135 -0.70014,3.50643 0.35714,4.64285 1.63994,1.76269 5.68123,-0.84171 7.14286,1.07143 1.23712,1.61927 -0.71429,6.07143 -0.71429,6.07143"
       id="path4860"
       inkscape:connector-curvature="0"
       sodipodi:nodetypes="csssssssssssssssssssssssssssssc" />
    <path
       style="fill:none;stroke:#000000;stroke-width:2;stroke-linejoin:round;stroke-miterlimit:4;stroke-opacity:1;stroke-dasharray:none;stroke-dashoffset:0"
       d="m 150.71429,836.29075 c 0,0 3.63989,0.48817 4.64285,-0.71428 1.37309,-1.6462 1.30389,-4.88012 -0.17857,-6.42857 -1.15552,-1.20695 -3.97731,0.96423 -5,-0.35715 -1.40771,-1.81884 -0.17685,-4.98185 1.25,-6.78571 1.0086,-1.2751 2.87331,-1.62975 4.46429,-1.96429 1.5145,-0.31846 3.47107,-1.01097 4.64285,0 1.23013,1.06131 0.98901,3.22014 0.71429,4.82143 -0.19361,1.12848 -1.68642,1.8935 -1.60714,3.03572 0.0915,1.31847 1.00401,3.10872 2.32143,3.21428 2.51731,0.2017 3.99264,-3.23212 5.35714,-5.35714 1.47558,-2.29801 3.37349,-4.99686 2.85714,-7.67857 -0.65333,-3.39313 -7.01324,-4.22346 -6.96428,-7.67857 0.0292,-2.06262 2.29115,-3.93801 4.28571,-4.46429 3.42338,-0.90329 8.19671,0.10184 10.17857,3.03572 1.43891,2.13012 -0.69767,5.10805 -0.71428,7.67857 -0.01,1.49282 -1.00209,3.84695 0.35714,4.46428 2.09199,0.95014 3.2412,-3.98701 5.53571,-4.10714 1.51898,-0.0795 3.15592,1.01122 3.92857,2.32143 1.0587,1.79526 0.17858,6.25 0.17858,6.25"
       id="path4862"
       inkscape:connector-curvature="0"
       sodipodi:nodetypes="cssssssssssssssssssc" />
    <path
       style="fill:none;stroke:#000000;stroke-width:2;stroke-linejoin:round;stroke-miterlimit:4;stroke-opacity:1;stroke-dasharray:none;stroke-dashoffset:0"
       d="m 148.92857,792.8979 c 0,0 1.32953,-5.16769 0,-7.14286 -1.14804,-1.70555 -4.77669,-0.49172 -5.71428,-2.32143 -0.92174,-1.79877 -0.17883,-4.66752 1.42857,-5.89286 1.56287,-1.19139 3.94039,-0.0447 5.89285,0.17858 2.11084,0.24135 4.34816,0.30295 6.25,1.25 1.28323,0.639 3.04135,1.43409 3.21429,2.85714 0.13943,1.1473 -1.1596,2.02755 -1.96429,2.85714 -0.7709,0.79475 -2.53322,0.86666 -2.67857,1.96429 -0.20013,1.51136 2.08292,2.2581 2.85715,3.57143 0.55574,0.94271 0.241,2.61206 1.25,3.03571 2.19118,0.92001 4.35223,-1.92821 6.60714,-2.67857 2.21926,-0.7385 4.47354,-1.43302 6.78571,-1.78572 2.59177,-0.39535 6.08126,1.57154 7.85715,-0.35714 1.08937,-1.1831 0.91599,-3.64314 -0.17858,-4.82143 -1.10055,-1.18473 -3.66248,0.59196 -4.82142,-0.53571 -1.55055,-1.50871 -1.40531,-4.32671 -0.89286,-6.42857 0.41468,-1.70083 1.48068,-3.48158 3.03571,-4.28572 2.11491,-1.09366 5.14259,-1.29145 7.14286,0 1.70097,1.09821 2.0035,3.57285 2.5,5.53572 0.40975,1.61989 0.57659,3.34356 0.35714,5 -0.19037,1.43694 -1.51027,2.65995 -1.42857,4.10714 0.093,1.64802 1.32059,3.03303 2.14286,4.46429 1.11026,1.93254 1.56719,5.08543 3.75,5.53571 2.49042,0.51374 3.88573,-4.11712 6.42857,-4.10714 2.83971,0.0111 5.83854,2.12039 7.14286,4.64285 0.68405,1.3229 -0.0261,2.98283 -0.17857,4.46429 -0.25949,2.52117 0.68386,5.86177 -1.25,7.5 -0.95377,0.80797 -2.71219,0.69674 -3.75,0 -1.17469,-0.78863 -0.68559,-2.85499 -1.60715,-3.92857 -0.6782,-0.79008 -1.67511,-1.3292 -2.67857,-1.60714 -1.20464,-0.33367 -2.59515,-0.47835 -3.75,0 -1.55543,0.64428 -2.88174,2.03559 -3.57143,3.57142 -0.41525,0.9247 -0.519,2.08094 -0.17857,3.03572 0.67909,1.90461 2.5396,3.18697 4.10714,4.46428 0.53813,0.43849 1.52008,0.43011 1.78572,1.07143 0.56352,1.36045 -0.21042,3.09113 -1.07143,4.28572 -1.36137,1.8888 -5.89286,3.75 -5.89286,3.75"
       id="path4864"
       inkscape:connector-curvature="0"
       sodipodi:nodetypes="cssssssssssssssssssssssssssssssssssssc" />
    <path
       style="fill:none;stroke:#000000;stroke-width:2;stroke-linejoin:round;stroke-miterlimit:4;stroke-opacity:1;stroke-dasharray:none;stroke-dashoffset:0"
       d="m 185,762.18361 c 0,0 0.33785,-2.13643 0.35714,-3.21428 0.0427,-2.38726 -0.17015,-4.78337 -0.53571,-7.14286 -0.35589,-2.29708 -2.8568,-4.82573 -1.60714,-6.78572 1.11083,-1.74226 4.00685,-1.16649 6.07142,-1.25 3.41556,-0.13815 7.91354,-1.31022 10.17858,1.25 1.18324,1.33744 0.79254,3.75694 0,5.35715 -0.69746,1.40822 -2.91342,1.52686 -3.75,2.85714 -1.09999,1.74913 -1.6154,4.03774 -1.25,6.07143 0.59583,3.31618 2.89894,6.26724 5.35714,8.57143 1.92363,1.8031 4.32825,3.80333 6.96428,3.75 3.38851,-0.0686 6.54478,-2.60492 8.75,-5.17857 0.83427,-0.97365 1.90039,-2.37921 1.42858,-3.57143 -0.36257,-0.91616 -2.00514,-0.53077 -2.67858,-1.25 -1.57147,-1.67832 -3.81472,-4.54236 -2.5,-6.42857 1.94041,-2.78386 7.31586,-1.64348 10.17858,0.17857 2.51528,1.60092 2.90663,5.23478 3.92857,8.03571 0.67296,1.84445 1.55415,3.75493 1.42857,5.71429 -0.094,1.46712 -0.25104,3.53944 -1.60714,4.10714 -1.67263,0.7002 -3.18711,-2.18022 -5,-2.14286 -1.51725,0.0313 -3.15541,0.78226 -4.10715,1.96429 -0.65195,0.80969 -0.93288,2.01942 -0.71428,3.03571 0.88377,4.10868 4.04611,7.88636 7.67857,10 1.86991,1.08805 4.52079,1.91306 6.42857,0.89286 1.80767,-0.96666 0.86903,-4.57257 2.67857,-5.53571 2.22927,-1.18655 5.87129,-0.85857 7.5,1.07142 2.84183,3.36751 1.42516,9.18446 -0.35714,13.21429 -0.83438,1.88655 -2.40954,4.1034 -4.46429,4.28571 -2.13776,0.18968 -3.83958,-2.05386 -5.35714,-3.57142 -1.21405,-1.21405 -1.20029,-3.83551 -2.85714,-4.28572 -2.23504,-0.60732 -4.74068,1.27896 -6.25,3.03572 -1.17783,1.37093 -1.89098,3.39359 -1.60715,5.17857 0.27491,1.72893 1.98251,2.88731 3.03572,4.28571 1.14649,1.52224 1.83552,3.67798 3.57143,4.46429 1.19409,0.54088 2.76437,0.42396 3.92857,-0.17857 1.20547,-0.62389 1.14462,-3.28738 2.5,-3.21429 2.37527,0.12809 3.13669,3.77314 3.75,6.07143 0.96736,3.62504 2.59524,8.93481 -0.35714,11.25 -1.5801,1.23908 -4.52144,0.21671 -5.89286,-1.25 -1.14986,-1.22975 0.20909,-3.59222 -0.71429,-5 -0.99665,-1.51949 -2.83985,-2.63055 -4.64285,-2.85714 -2.78332,-0.34979 -6.62351,0.0762 -8.03572,2.5 -1.41062,2.42108 1.78572,8.21428 1.78572,8.21428"
       id="path4866"
       inkscape:connector-curvature="0"
       sodipodi:nodetypes="csssssssssssssssssssssssssssssssssssssssssc" />
    <path
       style="fill:none;stroke:#000000;stroke-width:2;stroke-linejoin:round;stroke-miterlimit:4;stroke-opacity:1;stroke-dasharray:none;stroke-dashoffset:0"
       d="m 203.75,795.93361 c 0,0 4.24757,-0.78731 4.64286,-2.5 0.52752,-2.28564 -2.01983,-4.644 -4.10715,-5.71428 -1.16527,-0.59749 -3.16743,1.0656 -3.92857,0 -1.28011,-1.79215 0.53648,-4.74334 2.14286,-6.25 1.98006,-1.85714 5.74158,-3.84404 7.85714,-2.14286 1.85779,1.4939 -0.68011,4.78091 -0.35714,7.14286 0.17851,1.30547 0.0436,3.22018 1.25,3.75 1.73203,0.76066 3.75241,-1.07862 5.17857,-2.32143 0.84671,-0.73785 0.98097,-2.07374 1.78572,-2.85715 0.84122,-0.81891 3.03571,-1.78571 3.03571,-1.78571"
       id="path4868"
       inkscape:connector-curvature="0"
       sodipodi:nodetypes="csssssssssc" />
    <path
       style="fill:none;stroke:#000000;stroke-width:2;stroke-linejoin:round;stroke-miterlimit:4;stroke-opacity:1;stroke-dasharray:none;stroke-dashoffset:0"
       d="m 171.97847,723.30499 c 0,0 1.44909,-5.0039 3.53553,-6.06091 2.86929,-1.45361 6.53526,0.0228 9.59645,1.01015 1.93772,0.62501 4.49368,1.16233 5.3033,3.03046 0.7226,1.66733 0.16332,4.17695 -1.26269,5.3033 -1.5854,1.25225 -4.32645,-1.03598 -6.06091,0 -1.06704,0.63734 -0.80247,2.50007 -1.76777,3.28299 -1.15851,0.93963 -3.92458,-0.18272 -4.29315,1.26269 -0.76479,2.99927 4.68213,4.11007 6.566,6.56599 1.53789,2.00488 3.78807,6.566 3.78807,6.566"
       id="path4870"
       inkscape:connector-curvature="0"
       sodipodi:nodetypes="cssssssssc" />
    <path
       style="fill:none;stroke:#000000;stroke-width:2;stroke-linejoin:round;stroke-miterlimit:4;stroke-opacity:1;stroke-dasharray:none;stroke-dashoffset:0"
       d="m 209.85919,693.75803 c 0,0 -1.99621,4.87702 -4.04061,6.31345 -1.55395,1.09183 -4.20484,-0.0721 -5.55584,1.26269 -1.53956,1.52109 -2.65616,4.47437 -1.51523,6.31346 1.59326,2.56819 5.83479,2.35164 8.83884,2.0203 1.94616,-0.21466 3.56715,-3.43059 5.3033,-2.52538 3.17824,1.65711 2.72982,7.15382 1.76777,10.6066 -0.62493,2.24285 -2.43041,4.33041 -4.54569,5.3033 -2.06491,0.94972 -5.14021,1.53266 -6.81853,0 -1.37316,-1.25399 -0.14152,-3.73214 -0.50508,-5.55584 -0.27588,-1.38387 -0.21845,-3.09152 -1.26269,-4.04061 -1.20953,-1.09933 -3.16551,-0.93449 -4.79822,-1.01015 -2.20082,-0.10199 -4.87183,-0.65088 -6.56599,0.75762 -1.76086,1.46395 -2.02031,6.56599 -2.02031,6.56599"
       id="path4872"
       inkscape:connector-curvature="0"
       sodipodi:nodetypes="cssssssssssssc" />
    <path
       style="fill:none;stroke:#000000;stroke-width:2;stroke-linejoin:round;stroke-miterlimit:4;stroke-opacity:1;stroke-dasharray:none;stroke-dashoffset:0"
       d="m 241.679,661.68569 c 0,0 -5.75529,5.27951 -6.06092,8.83883 -0.19013,2.21425 0.6878,5.30564 2.77792,6.06092 2.19542,0.79333 3.98206,-3.14833 6.31345,-3.03046 1.7735,0.0897 3.67706,1.2291 4.54569,2.77792 0.98825,1.7621 0.51855,4.10829 0,6.06091 -0.52258,1.96782 -1.28177,4.26048 -3.03046,5.3033 -3.03744,1.81136 -7.24632,1.35508 -10.6066,0.25254 -2.22379,-0.72965 -5.03452,-2.01152 -5.55584,-4.29315 -0.33542,-1.46802 1.9948,-2.53498 2.02031,-4.04061 0.0377,-2.22208 -0.76896,-5.11057 -2.77792,-6.06091 -1.49503,-0.70722 -3.41476,0.35645 -4.79823,1.26269 -1.70461,1.1166 -3.21649,2.84226 -3.78807,4.79822 -0.71189,2.43609 -0.47557,5.35791 0.75762,7.57615 1.34169,2.41342 3.87265,4.44196 6.56599,5.05076 1.17561,0.26573 2.60982,-1.52944 3.53553,-0.75761 2.13457,1.77975 1.49079,6.16933 -0.25254,8.33375 -1.08858,1.35152 -3.31927,1.14623 -5.05076,1.26269 -1.52112,0.10231 -3.37132,0.4671 -4.54569,-0.50507 -1.76394,-1.46023 -2.04692,-4.27622 -2.0203,-6.56599 0.009,-0.79854 0.82109,-1.47678 0.75761,-2.27285 -0.17358,-2.17689 -1.02068,-4.95408 -3.03045,-5.80837 -1.37279,-0.58353 -3.17286,0.2778 -4.29315,1.26269 -1.72677,1.51807 -2.77792,6.31345 -2.77792,6.31345"
       id="path4874"
       inkscape:connector-curvature="0"
       sodipodi:nodetypes="cssssssssssssssssssssssc" />
    <path
       style="fill:none;stroke:#000000;stroke-width:2;stroke-linejoin:round;stroke-miterlimit:4;stroke-opacity:1;stroke-dasharray:none;stroke-dashoffset:0"
       d="m 212.63711,721.78976 c 0,0 5.46321,0.94495 6.81853,3.03046 1.92656,2.96452 -3.0075,8.74786 0,10.6066 3.84285,2.37501 7.60819,-6.24865 12.12183,-6.06091 2.26464,0.0942 4.69792,1.55959 5.80838,3.53553 2.22705,3.96277 3.21429,10.42277 0,13.63706 -1.13095,1.13095 -3.50638,0.94299 -4.79823,0 -1.78471,-1.30275 -0.23559,-5.0107 -2.0203,-6.31345 -1.35984,-0.99262 -3.37141,-0.11935 -5.05076,0 -1.18748,0.0844 -2.75554,-0.39428 -3.53554,0.50507 -1.43402,1.65343 0.41389,4.41682 0,6.56599 -0.51436,2.67084 -3.03046,7.57615 -3.03046,7.57615"
       id="path4876"
       inkscape:connector-curvature="0"
       sodipodi:nodetypes="cssssssssssc" />
    <path
       style="fill:none;stroke:#000000;stroke-width:2;stroke-linejoin:round;stroke-miterlimit:4;stroke-opacity:1;stroke-dasharray:none;stroke-dashoffset:0"
       d="m 238.396,737.9522 c 0,0 15.98182,5.66636 19.69798,0.25254 1.28272,-1.86871 -2.05564,-4.09606 -2.52539,-6.31345 -0.47137,-2.22502 -1.75716,-5.11296 -0.25253,-6.81853 1.90078,-2.15463 5.71308,-0.76548 8.58629,-0.75762 2.70554,0.007 6.25958,-1.24279 8.08122,0.75762 1.13355,1.2448 0.41884,3.42011 0,5.05076 -0.47802,1.86102 -1.7284,3.44129 -2.77792,5.05076 -0.98402,1.50903 -3.4712,2.50149 -3.28299,4.29315 0.16216,1.5437 2.69403,1.72617 3.53553,3.03046 1.14092,1.76837 2.06718,3.97784 1.76777,6.06091 -0.35548,2.47317 -2.65584,4.23372 -4.04061,6.31346 -1.47533,2.21575 -1.89446,6.32693 -4.54569,6.56599 -2.4899,0.22451 -4.76184,-2.86264 -5.3033,-5.3033 -0.4268,-1.92382 2.92944,-3.8075 2.02031,-5.55584 -1.04569,-2.01097 -4.34344,-2.2124 -6.566,-1.76777 -2.29495,0.45911 -4.50706,2.20086 -5.55583,4.29315 -2.30133,4.59115 -4.00314,11.89659 -0.25254,15.40483 2.22084,2.07733 6.05669,-0.56227 9.09137,-0.75762 1.85003,-0.11909 4.23396,-1.55232 5.55584,-0.25254 2.10168,2.06654 0.2611,5.93646 -0.25254,8.83884 -0.27833,1.57275 -0.61297,3.22775 -1.51523,4.54569 -2.16144,3.15724 -5.11721,8.21218 -8.83883,7.3236 -4.10698,-0.98059 -1.89886,-8.80707 -5.05077,-11.61675 -1.51071,-1.34668 -3.97324,-2.62105 -5.80837,-1.76777 -2.3253,1.08119 -3.03046,7.07107 -3.03046,7.07107"
       id="path4878"
       inkscape:connector-curvature="0"
       sodipodi:nodetypes="cssssssssssssssssssssssssc" />
    <path
       style="fill:none;stroke:#000000;stroke-width:2;stroke-linejoin:round;stroke-miterlimit:4;stroke-opacity:1;stroke-dasharray:none;stroke-dashoffset:0"
       d="m 231.83001,699.31387 c 0,0 3.38313,2.32178 4.79822,3.78807 2.17471,2.25341 2.42788,7.42408 5.55584,7.57614 2.14363,0.10421 3.80006,-2.70947 4.29315,-4.79822 0.44103,-1.86823 -2.07876,-3.72084 -1.51523,-5.55584 0.68351,-2.2257 2.98187,-4.72426 5.3033,-4.54569 2.32143,0.17857 3.63355,3.16112 4.54569,5.3033 1.02711,2.41218 1.69022,5.37842 0.75761,7.82869 -1.10185,2.89493 -4.89139,3.88842 -6.81853,6.31345 -0.84448,1.06266 -2.1517,2.18456 -2.0203,3.53553 0.39864,4.09857 8.08122,9.34392 8.08122,9.34392"
       id="path4880"
       inkscape:connector-curvature="0"
       sodipodi:nodetypes="csssssssssc" />
    <path
       style="fill:none;stroke:#000000;stroke-width:2;stroke-linejoin:round;stroke-miterlimit:4;stroke-opacity:1;stroke-dasharray:none;stroke-dashoffset:0"
       d="m 285.87317,647.79609 c 0,0 -4.2234,1.99076 -6.31345,3.03046 -2.7978,1.39177 -6.49245,1.7684 -8.33376,4.29314 -1.81032,2.48224 -3.45183,6.70635 -1.51523,9.09138 2.5492,3.13949 9.36316,-2.45206 12.12183,0.50507 2.06801,2.21678 1.43055,6.56987 -0.25254,9.09138 -1.48524,2.2251 -4.73701,2.59993 -7.3236,3.28299 -3.43382,0.9068 -7.90784,3.31884 -10.60661,1.01015 -2.11478,-1.80911 -0.19777,-5.56775 -0.50507,-8.33375 -0.34842,-3.13603 1.34944,-8.02114 -1.51523,-9.34391 -2.94906,-1.36174 -5.2584,4.00506 -8.33376,5.05076 -2.16509,0.73618 -4.67164,1.54531 -6.81853,0.75761 -1.95664,-0.7179 -4.29315,-4.54568 -4.29315,-4.54568"
       id="path4882"
       inkscape:connector-curvature="0"
       sodipodi:nodetypes="csssssssssssc" />
    <path
       style="fill:none;stroke:#000000;stroke-width:2;stroke-linejoin:round;stroke-miterlimit:4;stroke-opacity:1;stroke-dasharray:none;stroke-dashoffset:0"
       d="m 255.56859,708.91032 c 0,0 7.19262,4.13028 10.10153,2.27284 2.68578,-1.71496 2.31829,-6.17127 2.0203,-9.34391 -0.22223,-2.36607 -3.52416,-4.30971 -2.77791,-6.56599 1.04269,-3.15259 5.32053,-4.45003 8.58629,-5.05076 4.9543,-0.91133 13.4492,-2.29867 14.89975,2.52538 1.02898,3.42205 -5.29808,4.80064 -7.82868,7.3236 -1.3917,1.38749 -3.31615,2.46637 -4.04061,4.29315 -0.58962,1.48676 -1.13095,3.66728 0,4.79823 4.10714,4.10714 11.82751,1.55045 17.42513,0 2.36518,-0.65512 4.861,-1.80979 6.31345,-3.78808 2.76707,-3.76884 3.283,-13.63706 3.283,-13.63706"
       id="path4884"
       inkscape:connector-curvature="0"
       sodipodi:nodetypes="cssssssssssc" />
    <path
       style="fill:none;stroke:#000000;stroke-width:2;stroke-linejoin:round;stroke-miterlimit:4;stroke-opacity:1;stroke-dasharray:none;stroke-dashoffset:0"
       d="m 300.77292,677.09051 c 0,0 2.53238,-6.82576 5.55584,-7.3236 3.11007,-0.5121 4.68639,5.54995 7.82868,5.3033 3.56245,-0.27963 6.22227,-4.13163 7.82868,-7.32361 1.33311,-2.64892 2.82259,-6.4917 1.01016,-8.83883 -2.91039,-3.769 -11.36843,1.85038 -14.14214,-2.02031 -2.39459,-3.34163 -1.55853,-10.63149 2.27284,-12.12183 2.74586,-1.06809 4.16478,4.81954 7.07107,5.3033 3.22991,0.53763 6.07149,-2.9181 9.34391,-3.03046 3.46876,-0.1191 7.96555,-0.21032 10.10153,2.52539 1.39873,1.79147 1.09711,4.828 0,6.81852 -0.91313,1.65672 -3.75502,1.45241 -4.79823,3.03046 -1.74006,2.63216 -2.17702,6.25877 -1.51523,9.34391 1.05771,4.93087 3.36275,11.77762 8.33376,12.62691 3.02041,0.51603 6.25235,-2.68502 7.32361,-5.55584 1.14284,-3.06265 -2.50817,-6.36412 -2.02031,-9.59645 0.25869,-1.71395 1.16451,-3.47212 2.52539,-4.54568 2.95047,-2.32755 7.72016,-5.09675 10.85914,-3.03046 2.62522,1.7281 1.5568,6.21475 1.26269,9.34391 -0.17437,1.85521 -2.52553,3.60094 -1.76777,5.3033 2.05423,4.61492 9.4254,8.42487 13.8896,6.06092 2.42206,-1.28257 2.03817,-5.3909 1.51523,-8.08123 -0.47674,-2.45268 -2.75984,-4.1681 -4.04061,-6.31345 -0.88852,-1.48831 -3.32891,-3.00981 -2.52539,-4.54568 1.96086,-3.74802 11.12106,2.69015 12.62691,-1.2627 1.50584,-3.95285 -8.5863,-9.34391 -8.5863,-9.34391"
       id="path4886"
       inkscape:connector-curvature="0"
       sodipodi:nodetypes="cssssssssssssssssssssssssc" />
    <path
       style="fill:none;stroke:#000000;stroke-width:2;stroke-linejoin:round;stroke-miterlimit:4;stroke-opacity:1;stroke-dasharray:none;stroke-dashoffset:0"
       d="m 300.01531,705.62732 c 0,0 8.32737,-0.89382 12.12183,0.50508 3.71303,1.36888 5.51016,8.30482 9.34391,7.3236 2.48428,-0.63584 3.18573,-4.5114 3.03046,-7.07106 -0.18271,-3.01204 -5.41014,-4.93759 -4.54569,-7.82869 0.4853,-1.62308 2.92339,-1.78495 4.54569,-2.27284 2.67969,-0.80589 5.71662,-2.00052 8.33375,-1.01015 1.89609,0.71752 3.39737,2.62313 4.04061,4.54568 0.99149,2.9634 1.02621,6.77823 -0.75761,9.34392 -0.79543,1.14407 -2.93146,0.66875 -3.78807,1.76776 -1.37015,1.75786 -2.49758,4.7106 -1.26269,6.56599 2.04902,3.07861 7.16221,2.17795 10.85914,2.27285 2.72553,0.07 5.5994,-0.13399 8.08122,-1.26269 2.50185,-1.13781 5.24661,-2.77038 6.31345,-5.3033 1.31069,-3.11187 0.40964,-6.93307 -0.75761,-10.10153 -0.93708,-2.54367 -5.27249,-3.89701 -4.79823,-6.56599 0.8496,-4.78131 7.56024,-9.74695 12.12183,-8.08122 2.55246,0.93206 2.3261,5.11189 2.27285,7.82868 -0.0417,2.12918 -1.54368,3.98535 -2.02031,6.06092 -0.437,1.90299 -1.72996,4.11518 -0.75761,5.80837 0.86422,1.50491 3.07019,1.86048 4.79822,2.02031 1.97293,0.18248 4.07743,-0.29855 5.80838,-1.26269 3.06851,-1.70917 6.53274,-4.15393 7.3236,-7.57615 0.79719,-3.44962 -1.96797,-6.81425 -3.28299,-10.10152 -1.66415,-4.16001 -5.80838,-12.12183 -5.80838,-12.12183"
       id="path4888"
       inkscape:connector-curvature="0"
       sodipodi:nodetypes="csssssssssssssssssssssssc" />
    <path
       style="fill:none;stroke:#000000;stroke-width:2;stroke-linejoin:round;stroke-miterlimit:4;stroke-opacity:1;stroke-dasharray:none;stroke-dashoffset:0"
       d="m 271.4785,748.05373 c 0,0 9.28497,0.57891 13.63706,-0.75762 2.81531,-0.86458 5.25482,-2.73325 7.57614,-4.54568 2.06435,-1.61179 6.07242,-2.98824 5.55584,-5.55584 -0.39466,-1.96161 -3.82296,-1.27244 -5.55584,-2.27284 -2.85813,-1.65001 -7.51044,-2.77608 -7.82868,-6.06092 -0.0863,-0.89067 1.15642,-1.36686 1.76776,-2.02031 2.19594,-2.34722 3.8134,-5.67799 6.81853,-6.81852 3.94217,-1.49616 10.74957,-3.01794 12.62691,0.75761 0.94594,1.90239 -2.67602,3.36033 -3.53553,5.3033 -0.56165,1.26964 -1.01873,2.65231 -1.01016,4.04061 0.0204,3.30766 0.30807,7.14196 2.52539,9.59645 1.92853,2.13481 5.23285,2.62616 8.08122,3.03046 5.43336,0.77122 13.0311,3.05767 16.41498,-1.26269 1.89441,-2.41868 -0.20428,-6.31285 -1.51523,-9.09138 -1.47664,-3.12972 -5.67141,-4.56376 -6.81853,-7.82868 -1.36843,-3.89482 0.50507,-12.37437 0.50507,-12.37437"
       id="path4890"
       inkscape:connector-curvature="0"
       sodipodi:nodetypes="csssssssssssssssc" />
    <path
       style="fill:none;stroke:#000000;stroke-width:2;stroke-linejoin:round;stroke-miterlimit:4;stroke-opacity:1;stroke-dasharray:none;stroke-dashoffset:0"
       d="m 236.12316,823.56263 c 0,0 9.53704,7.6368 13.63706,5.05076 2.35928,-1.48809 1.56693,-5.66437 0.75761,-8.33375 -0.81629,-2.69238 -6.27733,-3.92658 -5.3033,-6.566 1.74912,-4.73972 10.13847,-4.46746 14.89975,-2.77792 2.08239,0.73894 3.90512,2.8755 4.29315,5.05077 0.47235,2.64799 -0.57274,6.03596 -2.77792,7.57614 -1.0352,0.72302 -2.94324,-0.93843 -3.78807,0 -1.07603,1.19524 0.42078,3.19219 0.50507,4.79823 0.10589,2.01753 -0.82559,4.21699 0,6.06091 1.29125,2.88394 6.38605,3.22878 7.07107,6.31345 0.27796,1.25169 -1.84294,2.29594 -1.51523,3.53554 0.78316,2.9624 4.33534,6.23366 7.32361,5.55584 3.04745,-0.69124 3.80989,-5.2465 4.29315,-8.33376 0.23756,-1.51765 -1.60447,-3.26407 -0.75762,-4.54569 1.57579,-2.38479 5.67138,-3.06054 8.33376,-2.0203 1.4135,0.55228 2.01553,2.35871 2.52538,3.78807 1.16503,3.26618 0.97813,6.88647 1.01015,10.35406 0.0296,3.20863 1.99969,7.95526 -0.75761,9.59645 -1.42484,0.84809 -3.07441,-1.2556 -4.54569,-2.0203 -1.30659,-0.6791 -2.31624,-2.31839 -3.78807,-2.27285 -1.63369,0.0505 -2.48699,2.27022 -4.04061,2.77792 -2.7217,0.88941 -6.51423,-1.72363 -8.58629,0.25254 -0.79426,0.7575 -0.28315,2.18586 -0.25254,3.283 0.0711,2.54674 0.84142,5.034 1.01015,7.57614 0.0948,1.42791 0,4.29315 0,4.29315"
       id="path4892"
       inkscape:connector-curvature="0"
       sodipodi:nodetypes="cssssssssssssssssssssssssc" />
    <path
       style="fill:none;stroke:#000000;stroke-width:2;stroke-linejoin:round;stroke-miterlimit:4;stroke-opacity:1;stroke-dasharray:none;stroke-dashoffset:0"
       d="m 260.61936,780.37861 c 0,0 1.58638,6.1036 4.04061,7.57614 2.88733,1.7324 7.72057,2.38095 10.10152,0 1.42857,-1.42857 -1.42857,-4.63234 0,-6.06091 1.54762,-1.54762 4.66551,-1.08556 6.56599,0 3.30953,1.89041 4.84493,6.16139 5.80838,9.84899 0.97906,3.74738 2.80059,9.23351 -0.25254,11.61675 -2.99415,2.3372 -7.42514,-1.61057 -11.11168,-2.52538 -2.19988,-0.5459 -4.89804,-3.30251 -6.56599,-1.76777 -2.07774,1.91179 0.15878,5.85748 1.51523,8.33376 0.77264,1.41049 2.57608,1.99231 3.53554,3.283 2.96471,3.9882 9.49733,9.37172 6.56599,13.38452 -1.35532,1.85534 -4.58372,-0.47648 -6.81853,-1.01016 -2.07135,-0.49465 -4.30198,-0.81977 -6.06092,-2.0203 -1.6291,-1.11191 -3.78807,-4.54569 -3.78807,-4.54569"
       id="path4894"
       inkscape:connector-curvature="0"
       sodipodi:nodetypes="csssssssssssssc" />
    <path
       style="fill:none;stroke:#000000;stroke-width:2;stroke-linejoin:round;stroke-miterlimit:4;stroke-opacity:1;stroke-dasharray:none;stroke-dashoffset:0"
       d="m 287.3884,793.00552 c 0,0 7.16048,0.4857 9.09137,3.03045 3.10764,4.0956 -1.97457,11.04977 0.75762,15.40483 2.24216,3.57396 9.1925,2.30363 11.11167,6.06092 1.81431,3.552 -4.18073,8.90222 -1.51522,11.86929 2.81338,3.13167 12.6269,2.0203 12.6269,-0.25254 0,-2.27284 -1.30571,-7.36428 1.01016,-9.59645 2.67298,-2.57638 8.25507,-3.12877 11.11167,-0.75761 2.21745,1.84062 0.84151,5.70939 1.01016,8.58629 0.27587,4.70597 2.71946,10.29158 0,14.14214 -1.59738,2.26177 -5.09392,3.21185 -7.82869,2.77792 -2.72717,-0.43272 -4.10704,-3.79446 -6.56599,-5.05076 -2.89359,-1.47836 -6.13079,-3.26194 -9.34391,-2.77792 -3.3014,0.49731 -5.07248,4.84127 -8.33376,5.55584 -1.5817,0.34656 -3.21538,-1.09894 -4.79822,-0.75762 -3.44628,0.74316 -8.83884,5.80838 -8.83884,5.80838"
       id="path4896"
       inkscape:connector-curvature="0"
       sodipodi:nodetypes="cssssssssssssssc" />
    <path
       style="fill:none;stroke:#000000;stroke-width:2;stroke-linejoin:round;stroke-miterlimit:4;stroke-opacity:1;stroke-dasharray:none;stroke-dashoffset:0"
       d="m 299.00515,778.61084 c 0,0 1.36595,-3.33833 2.77792,-4.29315 2.91293,-1.96982 7.94711,0.54328 10.35407,-2.0203 1.33648,-1.42344 0.63108,-3.85996 0.75761,-5.80838 0.24003,-3.69611 3.10569,-9.09338 0,-11.11168 -2.78068,-1.80709 -6.25169,2.32773 -9.09137,4.04061 -3.02828,1.82664 -4.92261,7.49934 -8.33376,6.566 -2.69905,-0.7385 -2.51665,-5.07801 -3.03046,-7.82869 -0.18548,-0.99297 -0.63208,-2.24249 0,-3.03045 1.45687,-1.81616 5.80892,0.58277 6.81853,-1.51523 1.91002,-3.9691 -5.80838,-11.8693 -5.80838,-11.8693"
       id="path4898"
       inkscape:connector-curvature="0"
       sodipodi:nodetypes="csssssssssc" />
    <path
       style="fill:none;stroke:#000000;stroke-width:2;stroke-linejoin:round;stroke-miterlimit:4;stroke-opacity:1;stroke-dasharray:none;stroke-dashoffset:0"
       d="m 299.25769,779.621 -2.77792,16.66751"
       id="path4900"
       inkscape:connector-curvature="0"
       sodipodi:nodetypes="cc" />
    <path
       style="fill:none;stroke:#000000;stroke-width:2;stroke-linejoin:round;stroke-miterlimit:4;stroke-opacity:1;stroke-dasharray:none;stroke-dashoffset:0"
       d="m 341.6841,787.70222 c 0,0 -4.64952,4.11841 -7.07107,6.06091 -1.31327,1.05347 -3.53862,1.42345 -4.04061,3.03046 -0.63497,2.03272 0.20877,4.94132 2.02031,6.06091 3.03804,1.87761 7.04515,-1.78204 10.6066,-1.51522 1.7528,0.13132 4.00153,0.10502 5.05076,1.51522 1.35673,1.82349 0.21558,4.55593 0,6.81853 -0.2114,2.21872 0.52593,5.23624 -1.26269,6.566 -2.64847,1.96902 -7.08294,0.78995 -9.84899,-1.01016 -1.70648,-1.11056 -1.29555,-4.2377 -3.03046,-5.3033 -1.43638,-0.88224 -3.64438,-1.18186 -5.05076,-0.25254 -2.84415,1.87939 -3.53553,9.59645 -3.53553,9.59645"
       id="path4902"
       inkscape:connector-curvature="0"
       sodipodi:nodetypes="cssssssssssc" />
    <path
       style="fill:none;stroke:#000000;stroke-width:2;stroke-linejoin:round;stroke-miterlimit:4;stroke-opacity:1;stroke-dasharray:none;stroke-dashoffset:0"
       d="m 325.01658,844.27076 c 0,0 -0.36778,8.46076 -3.53553,10.10152 -2.17669,1.12743 -5.06806,-0.60713 -7.07107,-2.0203 -1.77509,-1.25237 -1.61623,-5.3532 -3.78807,-5.3033 -3.4081,0.0783 -5.91498,5.19626 -5.55584,8.58629 0.26338,2.48609 3.2162,3.92708 5.3033,5.30331 1.89225,1.24774 4.04687,2.51686 6.31345,2.52538 2.07906,0.008 3.81539,-2.86493 5.80838,-2.27285 2.08246,0.61867 3.1251,3.23452 3.78807,5.3033 0.66793,2.08426 1.38198,4.86883 0,6.566 -1.57408,1.93309 -4.83618,1.68045 -7.3236,1.51522 -3.55961,-0.23645 -6.59996,-4.218 -10.10153,-3.53553 -2.75154,0.53628 -6.07989,2.76227 -6.31345,5.55584 -0.28917,3.45874 6.56599,8.08122 6.56599,8.08122"
       id="path4904"
       inkscape:connector-curvature="0"
       sodipodi:nodetypes="cssssssssssssc" />
    <path
       style="fill:none;stroke:#000000;stroke-width:2;stroke-linejoin:round;stroke-miterlimit:4;stroke-opacity:1;stroke-dasharray:none;stroke-dashoffset:0"
       d="m 381.83766,795.27836 c 0,0 -9.38667,0.67847 -11.86929,4.04061 -1.70086,2.30342 -2.24724,6.53207 -0.25254,8.5863 2.16977,2.23452 6.90969,-1.94307 9.34391,0 1.48429,1.1848 1.1716,3.65885 1.26269,5.55584 0.15876,3.30605 0.42086,6.99927 -1.26269,9.84898 -1.37883,2.33392 -3.85538,4.8288 -6.56599,4.79823 -4.98336,-0.0562 -6.93665,-8.38 -11.86929,-9.09138 -1.16048,-0.16736 -2.70988,0.23984 -3.283,1.2627 -1.58992,2.83757 2.4712,6.42078 1.76777,9.59644 -1.00524,4.5382 -3.47264,10.75862 -8.08122,11.36422 -3.14176,0.41285 -5.48473,-3.48029 -7.32361,-6.06091 -1.66952,-2.34294 -0.80428,-6.25891 -3.03045,-8.08122 -2.04539,-1.67432 -7.82869,-1.2627 -7.82869,-1.2627"
       id="path4906"
       inkscape:connector-curvature="0"
       sodipodi:nodetypes="cssssssssssssc" />
    <path
       style="fill:none;stroke:#000000;stroke-width:2;stroke-linejoin:round;stroke-miterlimit:4;stroke-opacity:1;stroke-dasharray:none;stroke-dashoffset:0"
       d="m 378.30213,822.0474 c 0,0 6.13396,2.73203 7.3236,5.55584 1.31745,3.1272 1.6308,8.32875 -1.26269,10.10153 -3.5875,2.19798 -7.78448,-5.30091 -11.86929,-4.29315 -2.54543,0.62798 -4.1795,3.4397 -5.3033,5.80838 -1.24002,2.61364 -1.26269,8.58629 -1.26269,8.58629"
       id="path4908"
       inkscape:connector-curvature="0"
       sodipodi:nodetypes="cssssc" />
    <path
       style="fill:none;stroke:#000000;stroke-width:2;stroke-linejoin:round;stroke-miterlimit:4;stroke-opacity:1;stroke-dasharray:none;stroke-dashoffset:0"
       d="m 350.52293,841.49284 c 0,0 0.7426,7.69527 -1.51523,10.35406 -1.25797,1.48136 -4.2355,0.34171 -5.55583,1.76777 -1.99755,2.15753 -3.09958,5.85128 -2.02031,8.5863 1.00268,2.54094 4.08691,4.54568 6.81853,4.54568 2.42811,0 4.13297,-2.56456 6.06092,-4.04061 0.71051,-0.54397 1.18264,-1.45302 2.0203,-1.76776 2.04881,-0.76981 5.12192,-1.64466 6.56599,0 1.28827,1.46721 -0.63108,3.85995 -0.75761,5.80837 -0.10365,1.59605 0.50578,3.2809 0,4.79823 -0.6655,1.99649 -2.52002,3.3712 -3.78807,5.05076 -1.5927,2.10957 -4.79823,6.31345 -4.79823,6.31345"
       id="path4910"
       inkscape:connector-curvature="0"
       sodipodi:nodetypes="cssssssssssc" />
    <path
       style="fill:none;stroke:#000000;stroke-width:2;stroke-linejoin:round;stroke-miterlimit:4;stroke-opacity:1;stroke-dasharray:none;stroke-dashoffset:0"
       d="m 380.0699,823.31009 c 0,0 5.2443,-4.04747 8.33375,-5.05076 1.92818,-0.62617 4.17861,-1.25801 6.06092,-0.50508 0.94115,0.37646 1.69077,1.31425 2.0203,2.27285 0.85011,2.47295 1.4026,6.04012 -0.50507,7.82868 -1.16679,1.09394 -3.63794,-1.10083 -4.79823,0 -1.1619,1.10235 -1.11527,3.44882 -0.25253,4.79822 1.46513,2.29158 4.87198,2.73815 7.57614,3.03046 2.54539,0.27515 5.501,0.23681 7.57614,-1.26269 1.46496,-1.05858 2.66894,-2.99652 2.52538,-4.79822 -0.10029,-1.2587 -1.87354,-1.83257 -2.27284,-3.03046 -0.47916,-1.43747 -0.83412,-3.28071 0,-4.54569 0.70583,-1.07042 2.28733,-1.80842 3.53554,-1.51523 2.15107,0.50526 3.53081,2.97683 4.29314,5.05077 0.9584,2.60735 -0.90153,5.70619 0,8.33375 1.24595,3.63137 7.07107,9.09138 7.07107,9.09138"
       id="path4912"
       inkscape:connector-curvature="0"
       sodipodi:nodetypes="cssssssssssssssc" />
    <path
       style="fill:none;stroke:#000000;stroke-width:2;stroke-linejoin:round;stroke-miterlimit:4;stroke-opacity:1;stroke-dasharray:none;stroke-dashoffset:0"
       d="m 313.39983,764.46871 c 0,0 4.82507,0.71487 7.07107,0 2.35917,-0.75089 5.02768,-2.04327 6.06091,-4.29315 1.12912,-2.45868 -2.6299,-6.12813 -0.75761,-8.08122 2.27487,-2.37305 7.11711,-1.32339 9.84898,0.50507 2.94148,1.96876 4.61672,6.05762 4.54569,9.59645 -0.0401,1.9952 -1.07054,4.27021 -2.77792,5.3033 -1.15234,0.69725 -3.03309,-0.89385 -4.04061,0 -1.58555,1.40666 -2.05856,4.64009 -0.75761,6.31346 1.19841,1.54148 3.85995,0.63108 5.80837,0.75761 2.35207,0.15275 5.00489,1.13422 7.07107,0 1.92426,-1.05632 1.5307,-4.66184 3.53553,-5.55584 0.93531,-0.41708 2.10204,0.0729 3.03046,0.50508 3.41039,1.58756 8.69223,3.56331 8.5863,7.32361 -0.0744,2.64224 -4.28905,3.09858 -6.31345,4.79822 -2.37228,1.99172 -6.81853,6.31345 -6.81853,6.31345"
       id="path4914"
       inkscape:connector-curvature="0"
       sodipodi:nodetypes="cssssssssssssssc" />
    <path
       style="fill:none;stroke:#000000;stroke-width:2;stroke-linejoin:round;stroke-miterlimit:4;stroke-opacity:1;stroke-dasharray:none;stroke-dashoffset:0"
       d="m 348.75517,719.76946 c 0,0 1.34623,7.49908 0,10.85914 -0.95219,2.37656 -5.6293,3.01646 -5.3033,5.55584 0.42834,3.33663 5.29714,6.00907 8.58629,5.3033 3.37856,-0.72496 2.4104,-7.95864 5.80838,-8.5863 2.02089,-0.37329 3.9383,1.80759 5.05076,3.53553 1.99305,3.09574 3.68469,7.57498 2.02031,10.85914 -1.14033,2.25012 -4.32826,2.88061 -6.81853,3.283 -2.5975,0.41972 -6.13741,-3.02579 -7.82868,-1.01015 -1.81405,2.16196 0.41754,6.20456 2.52538,8.08122 2.36751,2.10786 7.36539,-0.70886 9.34391,1.76776 1.4721,1.8427 0.92133,5.02543 -0.25254,7.07107 -1.4878,2.5927 -7.57614,4.79823 -7.57614,4.79823"
       id="path4916"
       inkscape:connector-curvature="0"
       sodipodi:nodetypes="csssssssssssc" />
    <path
       style="fill:none;stroke:#000000;stroke-width:2;stroke-linejoin:round;stroke-miterlimit:4;stroke-opacity:1;stroke-dasharray:none;stroke-dashoffset:0"
       d="m 375.52421,686.9395 c 0,0 5.4941,-0.58184 7.07107,-2.52538 1.17766,-1.45141 0.42085,-3.71734 0.75761,-5.55584 0.4047,-2.20943 -0.0272,-4.93309 1.51523,-6.56599 1.44509,-1.52989 4.166,-2.68327 6.06092,-1.76777 2.20983,1.06765 2.38931,4.39526 2.77791,6.81853 0.38746,2.41613 0.9932,5.38893 -0.50507,7.32361 -0.97794,1.26279 -3.80744,0.0989 -4.54569,1.51522 -1.0957,2.10209 0.32593,5.1607 2.02031,6.81853 2.74414,2.68495 7.38571,3.9559 11.11167,3.03046 1.79176,-0.44503 3.24223,-2.12343 4.04062,-3.78807 0.94928,-1.97925 1.33475,-4.5337 0.50507,-6.56599 -0.67644,-1.65692 -3.30109,-1.9058 -4.04061,-3.53554 -0.97396,-2.14638 -1.99635,-5.81801 0,-7.07106 2.29598,-1.44112 5.04848,2.06171 7.32361,3.53553 1.75492,1.13684 3.94417,2.13201 4.79822,4.04061 1.16952,2.61361 -0.97621,5.81592 -0.25254,8.5863 0.74433,2.84946 1.60725,7.3785 4.54569,7.57614 2.68898,0.18086 5.05076,-6.31345 5.05076,-6.31345"
       id="path4918"
       inkscape:connector-curvature="0"
       sodipodi:nodetypes="csssssssssssssssssc" />
    <path
       style="fill:none;stroke:#000000;stroke-width:2;stroke-linejoin:round;stroke-miterlimit:4;stroke-opacity:1;stroke-dasharray:none;stroke-dashoffset:0"
       d="m 380.82751,701.58671 c 0,0 -2.01461,8.30984 0,11.61676 1.52784,2.5079 5.2735,2.59322 7.82868,4.04061 1.80901,1.02472 3.23297,3.47349 5.3033,3.28299 2.4923,-0.22932 3.6633,-3.41294 5.55584,-5.05076 1.40182,-1.21314 2.47532,-3.89928 4.29315,-3.53554 3.1755,0.6354 3.52768,5.51202 4.54569,8.5863 1.04416,3.15324 3.27573,7.03229 1.51523,9.84899 -1.35474,2.16752 -4.78358,1.98697 -7.32361,2.27284 -2.18136,0.2455 -4.95538,-1.99655 -6.56599,-0.50507 -0.92646,0.85793 -0.14288,2.53349 0,3.78807 0.25417,2.23176 -0.0711,4.97577 1.51523,6.56599 1.83145,1.83591 4.983,1.78819 7.57614,1.76777 2.42949,-0.0191 5.41274,0.008 7.07107,-1.76777 1.63426,-1.74983 -0.38369,-5.33264 1.26269,-7.07107 1.01089,-1.06742 2.82316,-0.98954 4.29315,-1.01015 2.92184,-0.041 6.77358,-0.52415 8.58629,1.76777 1.77624,2.24581 -1.1283,5.86017 -0.25253,8.58629 0.67973,2.1159 1.92456,4.62405 4.04061,5.3033 2.18035,0.69989 4.66246,-0.74737 6.56599,-2.0203 2.08756,-1.39599 4.79822,-5.80838 4.79822,-5.80838"
       id="path4920"
       inkscape:connector-curvature="0"
       sodipodi:nodetypes="csssssssssssssssssssc" />
    <path
       style="fill:none;stroke:#000000;stroke-width:2;stroke-linejoin:round;stroke-miterlimit:4;stroke-opacity:1;stroke-dasharray:none;stroke-dashoffset:0"
       d="m 425.27422,691.99026 c 0,0 2.46219,6.65537 2.27284,10.10153 -0.15627,2.84416 -0.45937,6.42652 -2.77791,8.08122 -1.30186,0.92912 -3.21515,0.22798 -4.79823,0 -1.47643,-0.21262 -3.09881,-2.15634 -4.29315,-1.26269 -1.68501,1.26079 -0.9682,4.44491 0,6.31345 0.80587,1.55527 2.62357,2.50055 4.29315,3.03046 2.88846,0.91676 6.27618,1.12178 9.09137,0 2.04668,-0.81555 2.64989,-5.03425 4.79823,-4.54569 2.98789,0.67948 3.17003,5.52421 3.28299,8.5863 0.0972,2.63478 -0.3419,5.78087 -2.27284,7.57614 -1.13677,1.0569 -3.57444,-0.20062 -4.54569,1.01016 -1.00079,1.2476 -0.81529,3.42221 0,4.79822 2.05477,3.46793 10.60661,5.80838 10.60661,5.80838"
       id="path4922"
       inkscape:connector-curvature="0"
       sodipodi:nodetypes="cssssssssssssc" />
    <path
       style="fill:none;stroke:#000000;stroke-width:2;stroke-linejoin:round;stroke-miterlimit:4;stroke-opacity:1;stroke-dasharray:none;stroke-dashoffset:0"
       d="m 364.91761,747.29611 c 0,0 3.99181,0.92766 5.80837,0.25254 1.84209,-0.6846 3.68267,-2.17265 4.29315,-4.04061 1.14375,-3.49967 -3.03426,-7.31969 -2.0203,-10.85914 0.75477,-2.6347 2.81534,-6.02933 5.55584,-6.06091 2.91708,-0.0336 5.0436,3.5793 6.06091,6.31345 1.11704,3.00217 0.091,6.44915 -0.50507,9.59645 -0.4458,2.35395 -3.20617,4.61201 -2.27285,6.81853 0.98271,2.32329 4.34707,2.77775 6.81853,3.28299 1.81629,0.3713 3.96995,-1.21261 5.55584,-0.25253 1.192,0.72163 1.5477,2.41214 1.76777,3.78807 0.33476,2.09298 -0.75762,6.31345 -0.75762,6.31345"
       id="path4924"
       inkscape:connector-curvature="0"
       sodipodi:nodetypes="cssssssssssc" />
    <path
       style="fill:none;stroke:#000000;stroke-width:2;stroke-linejoin:round;stroke-miterlimit:4;stroke-opacity:1;stroke-dasharray:none;stroke-dashoffset:0"
       d="m 411.8897,743.2555 c 0,0 0.0759,3.87849 0.25254,5.80838 0.38738,4.23233 4.91436,9.77006 1.76777,12.62691 -1.60235,1.4548 -4.50034,-0.33346 -6.31346,-1.51523 -1.86183,-1.21352 -2.71,-3.52327 -4.04061,-5.3033 -0.93751,-1.25415 -1.22377,-3.97896 -2.77792,-3.78807 -1.98599,0.24393 -1.41048,3.75028 -2.27284,5.55583 -0.8281,1.73382 -1.668,3.48234 -2.77792,5.05077 -1.82527,2.5793 -3.30192,6.11445 -6.31345,7.07107 -3.21117,1.02003 -7.21226,-4.3704 -9.84899,-2.27285 -1.84456,1.46737 -1.61547,5.35473 0,7.07107 1.90744,2.02654 5.55202,0.42086 8.33376,0.50508 3.61806,0.10954 8.40379,-2.65962 10.85914,0 1.43209,1.55123 0.46114,4.43632 -0.50508,6.31345 -0.95696,1.85913 -2.83398,3.32373 -4.79822,4.04061 -1.89786,0.69266 -4.11212,0.53275 -6.06092,0 -2.07497,-0.56724 -3.40474,-3.29022 -5.55584,-3.283 -2.45422,0.008 -5.69963,1.41185 -6.31345,3.78808 -0.92445,3.57876 5.55584,9.59645 5.55584,9.59645"
       id="path4926"
       inkscape:connector-curvature="0"
       sodipodi:nodetypes="csssssssssssssssssc" />
  </g>
</svg>
