<?xml version="1.0" encoding="ISO-8859-1" standalone="yes"?>
<svg width="201.881" height="60.2529">
  <defs> 
    <marker id="ArrowEnd" viewBox="0 0 10 10" refX="0" refY="5" 
     markerUnits="strokeWidth" 
     markerWidth="4" 
     markerHeight="3" 
     orient="auto"> 
        <path d="M 0 0 L 10 5 L 0 10 z" /> 
    </marker>
    <marker id="ArrowStart" viewBox="0 0 10 10" refX="10" refY="5" 
     markerUnits="strokeWidth" 
     markerWidth="4" 
     markerHeight="3" 
     orient="auto"> 
        <path d="M 10 0 L 0 5 L 10 10 z" /> 
    </marker> </defs>
<g>
<path style="stroke:none; fill-rule:evenodd; fill:#5f5f5f" d="M 10.0308 15.773L 15.7691 15.773L 15.7691 10.0308L 10.0308 10.0308L 10.0308 15.773z"/>
<path style="stroke:#000000; stroke-width:1.9139600000000001; fill:none" d="M 10.0308 15.773L 15.7691 15.773L 15.7691 10.0308L 10.0308 10.0308L 10.0308 15.773z"/>
<path style="stroke:none; fill-rule:evenodd; fill:#5f5f5f" d="M 15.773 21.5151L 21.5113 21.5151L 21.5113 15.773L 15.773 15.773L 15.773 21.5151z"/>
<path style="stroke:#000000; stroke-width:1.9139600000000001; fill:none" d="M 15.773 21.5151L 21.5113 21.5151L 21.5113 15.773L 15.773 15.773L 15.773 21.5151z"/>
<path style="stroke:none; fill-rule:evenodd; fill:#5f5f5f" d="M 21.5152 21.5151L 27.2535 21.5151L 27.2535 15.773L 21.5152 15.773L 21.5152 21.5151z"/>
<path style="stroke:#000000; stroke-width:1.9139600000000001; fill:none" d="M 21.5152 21.5151L 27.2535 21.5151L 27.2535 15.773L 21.5152 15.773L 21.5152 21.5151z"/>
<path style="stroke:none; fill-rule:evenodd; fill:#5f5f5f" d="M 27.2574 21.5151L 32.9956 21.5151L 32.9956 15.773L 27.2574 15.773L 27.2574 21.5151z"/>
<path style="stroke:#000000; stroke-width:1.9139600000000001; fill:none" d="M 27.2574 21.5151L 32.9956 21.5151L 32.9956 15.773L 27.2574 15.773L 27.2574 21.5151z"/>
<path style="stroke:none; fill-rule:evenodd; fill:#5f5f5f" d="M 32.9995 15.773L 38.7378 15.773L 38.7378 10.0308L 32.9995 10.0308L 32.9995 15.773z"/>
<path style="stroke:#000000; stroke-width:1.9139600000000001; fill:none" d="M 32.9995 15.773L 38.7378 15.773L 38.7378 10.0308L 32.9995 10.0308L 32.9995 15.773z"/>
<path style="stroke:none; fill-rule:evenodd; fill:#5f5f5f" d="M 10.0308 32.9995L 15.7691 32.9995L 15.7691 27.2573L 10.0308 27.2573L 10.0308 32.9995z"/>
<path style="stroke:#000000; stroke-width:1.9139600000000001; fill:none" d="M 10.0308 32.9995L 15.7691 32.9995L 15.7691 27.2573L 10.0308 27.2573L 10.0308 32.9995z"/>
<path style="stroke:none; fill-rule:evenodd; fill:#5f5f5f" d="M 15.773 27.2573L 21.5113 27.2573L 21.5113 21.5151L 15.773 21.5151L 15.773 27.2573z"/>
<path style="stroke:#000000; stroke-width:1.9139600000000001; fill:none" d="M 15.773 27.2573L 21.5113 27.2573L 21.5113 21.5151L 15.773 21.5151L 15.773 27.2573z"/>
<path style="stroke:none; fill-rule:evenodd; fill:#5f5f5f" d="M 21.5152 27.2573L 27.2535 27.2573L 27.2535 21.5151L 21.5152 21.5151L 21.5152 27.2573z"/>
<path style="stroke:#000000; stroke-width:1.9139600000000001; fill:none" d="M 21.5152 27.2573L 27.2535 27.2573L 27.2535 21.5151L 21.5152 21.5151L 21.5152 27.2573z"/>
<path style="stroke:none; fill-rule:evenodd; fill:#5f5f5f" d="M 27.2574 27.2573L 32.9956 27.2573L 32.9956 21.5151L 27.2574 21.5151L 27.2574 27.2573z"/>
<path style="stroke:#000000; stroke-width:1.9139600000000001; fill:none" d="M 27.2574 27.2573L 32.9956 27.2573L 32.9956 21.5151L 27.2574 21.5151L 27.2574 27.2573z"/>
<path style="stroke:none; fill-rule:evenodd; fill:#5f5f5f" d="M 32.9995 32.9995L 38.7378 32.9995L 38.7378 27.2573L 32.9995 27.2573L 32.9995 32.9995z"/>
<path style="stroke:#000000; stroke-width:1.9139600000000001; fill:none" d="M 32.9995 32.9995L 38.7378 32.9995L 38.7378 27.2573L 32.9995 27.2573L 32.9995 32.9995z"/>
<path style="stroke:none; fill-rule:evenodd; fill:#5f5f5f" d="M 15.773 38.7417L 21.5113 38.7417L 21.5113 32.9995L 15.773 32.9995L 15.773 38.7417z"/>
<path style="stroke:#000000; stroke-width:1.9139600000000001; fill:none" d="M 15.773 38.7417L 21.5113 38.7417L 21.5113 32.9995L 15.773 32.9995L 15.773 38.7417z"/>
<path style="stroke:none; fill-rule:evenodd; fill:#5f5f5f" d="M 21.5152 38.7417L 27.2535 38.7417L 27.2535 32.9995L 21.5152 32.9995L 21.5152 38.7417z"/>
<path style="stroke:#000000; stroke-width:1.9139600000000001; fill:none" d="M 21.5152 38.7417L 27.2535 38.7417L 27.2535 32.9995L 21.5152 32.9995L 21.5152 38.7417z"/>
<path style="stroke:none; fill-rule:evenodd; fill:#5f5f5f" d="M 27.2574 38.7417L 32.9956 38.7417L 32.9956 32.9995L 27.2574 32.9995L 27.2574 38.7417z"/>
<path style="stroke:#000000; stroke-width:1.9139600000000001; fill:none" d="M 27.2574 38.7417L 32.9956 38.7417L 32.9956 32.9995L 27.2574 32.9995L 27.2574 38.7417z"/>
<path style="stroke:none; fill-rule:evenodd; fill:#5f5f5f" d="M 10.0308 50.2222L 15.7691 50.2222L 15.7691 44.48L 10.0308 44.48L 10.0308 50.2222z"/>
<path style="stroke:#000000; stroke-width:1.9139600000000001; fill:none" d="M 10.0308 50.2222L 15.7691 50.2222L 15.7691 44.48L 10.0308 44.48L 10.0308 50.2222z"/>
<path style="stroke:none; fill-rule:evenodd; fill:#5f5f5f" d="M 32.9995 50.2222L 38.7378 50.2222L 38.7378 44.48L 32.9995 44.48L 32.9995 50.2222z"/>
<path style="stroke:#000000; stroke-width:1.9139600000000001; fill:none" d="M 32.9995 50.2222L 38.7378 50.2222L 38.7378 44.48L 32.9995 44.48L 32.9995 50.2222z"/>
<path style="stroke:none; fill-rule:evenodd; fill:#5f5f5f" d="M 15.773 44.48L 21.5113 44.48L 21.5113 38.7378L 15.773 38.7378L 15.773 44.48z"/>
<path style="stroke:#000000; stroke-width:1.9139600000000001; fill:none" d="M 15.773 44.48L 21.5113 44.48L 21.5113 38.7378L 15.773 38.7378L 15.773 44.48z"/>
<path style="stroke:none; fill-rule:evenodd; fill:#5f5f5f" d="M 21.5152 44.48L 27.2535 44.48L 27.2535 38.7378L 21.5152 38.7378L 21.5152 44.48z"/>
<path style="stroke:#000000; stroke-width:1.9139600000000001; fill:none" d="M 21.5152 44.48L 27.2535 44.48L 27.2535 38.7378L 21.5152 38.7378L 21.5152 44.48z"/>
<path style="stroke:none; fill-rule:evenodd; fill:#5f5f5f" d="M 27.2574 44.48L 32.9956 44.48L 32.9956 38.7378L 27.2574 38.7378L 27.2574 44.48z"/>
<path style="stroke:#000000; stroke-width:1.9139600000000001; fill:none" d="M 27.2574 44.48L 32.9956 44.48L 32.9956 38.7378L 27.2574 38.7378L 27.2574 44.48z"/>
<path style="stroke:none; fill-rule:evenodd; fill:#ffffff" d="M 10.0308 21.5151L 15.7691 21.5151L 15.7691 15.773L 10.0308 15.773L 10.0308 21.5151z"/>
<path style="stroke:#000000; stroke-width:1.9139600000000001; fill:none" d="M 10.0308 21.5151L 15.7691 21.5151L 15.7691 15.773L 10.0308 15.773L 10.0308 21.5151z"/>
<path style="stroke:none; fill-rule:evenodd; fill:#ffffff" d="M 15.773 15.773L 21.5113 15.773L 21.5113 10.0308L 15.773 10.0308L 15.773 15.773z"/>
<path style="stroke:#000000; stroke-width:1.9139600000000001; fill:none" d="M 15.773 15.773L 21.5113 15.773L 21.5113 10.0308L 15.773 10.0308L 15.773 15.773z"/>
<path style="stroke:none; fill-rule:evenodd; fill:#ffffff" d="M 21.5152 15.773L 27.2535 15.773L 27.2535 10.0308L 21.5152 10.0308L 21.5152 15.773z"/>
<path style="stroke:#000000; stroke-width:1.9139600000000001; fill:none" d="M 21.5152 15.773L 27.2535 15.773L 27.2535 10.0308L 21.5152 10.0308L 21.5152 15.773z"/>
<path style="stroke:none; fill-rule:evenodd; fill:#ffffff" d="M 27.2574 15.773L 32.9956 15.773L 32.9956 10.0308L 27.2574 10.0308L 27.2574 15.773z"/>
<path style="stroke:#000000; stroke-width:1.9139600000000001; fill:none" d="M 27.2574 15.773L 32.9956 15.773L 32.9956 10.0308L 27.2574 10.0308L 27.2574 15.773z"/>
<path style="stroke:none; fill-rule:evenodd; fill:#ffffff" d="M 32.9995 21.5151L 38.7378 21.5151L 38.7378 15.773L 32.9995 15.773L 32.9995 21.5151z"/>
<path style="stroke:#000000; stroke-width:1.9139600000000001; fill:none" d="M 32.9995 21.5151L 38.7378 21.5151L 38.7378 15.773L 32.9995 15.773L 32.9995 21.5151z"/>
<path style="stroke:none; fill-rule:evenodd; fill:#ffffff" d="M 10.0308 27.2573L 15.7691 27.2573L 15.7691 21.5151L 10.0308 21.5151L 10.0308 27.2573z"/>
<path style="stroke:#000000; stroke-width:1.9139600000000001; fill:none" d="M 10.0308 27.2573L 15.7691 27.2573L 15.7691 21.5151L 10.0308 21.5151L 10.0308 27.2573z"/>
<path style="stroke:none; fill-rule:evenodd; fill:#ffffff" d="M 15.773 32.9995L 21.5113 32.9995L 21.5113 27.2573L 15.773 27.2573L 15.773 32.9995z"/>
<path style="stroke:#000000; stroke-width:1.9139600000000001; fill:none" d="M 15.773 32.9995L 21.5113 32.9995L 21.5113 27.2573L 15.773 27.2573L 15.773 32.9995z"/>
<path style="stroke:none; fill-rule:evenodd; fill:#ffffff" d="M 21.5152 32.9995L 27.2535 32.9995L 27.2535 27.2573L 21.5152 27.2573L 21.5152 32.9995z"/>
<path style="stroke:#000000; stroke-width:1.9139600000000001; fill:none" d="M 21.5152 32.9995L 27.2535 32.9995L 27.2535 27.2573L 21.5152 27.2573L 21.5152 32.9995z"/>
<path style="stroke:none; fill-rule:evenodd; fill:#ffffff" d="M 27.2574 32.9995L 32.9956 32.9995L 32.9956 27.2573L 27.2574 27.2573L 27.2574 32.9995z"/>
<path style="stroke:#000000; stroke-width:1.9139600000000001; fill:none" d="M 27.2574 32.9995L 32.9956 32.9995L 32.9956 27.2573L 27.2574 27.2573L 27.2574 32.9995z"/>
<path style="stroke:none; fill-rule:evenodd; fill:#ffffff" d="M 32.9995 27.2573L 38.7378 27.2573L 38.7378 21.5151L 32.9995 21.5151L 32.9995 27.2573z"/>
<path style="stroke:#000000; stroke-width:1.9139600000000001; fill:none" d="M 32.9995 27.2573L 38.7378 27.2573L 38.7378 21.5151L 32.9995 21.5151L 32.9995 27.2573z"/>
<path style="stroke:none; fill-rule:evenodd; fill:#ffffff" d="M 10.0308 38.7417L 15.7691 38.7417L 15.7691 32.9995L 10.0308 32.9995L 10.0308 38.7417z"/>
<path style="stroke:#000000; stroke-width:1.9139600000000001; fill:none" d="M 10.0308 38.7417L 15.7691 38.7417L 15.7691 32.9995L 10.0308 32.9995L 10.0308 38.7417z"/>
<path style="stroke:none; fill-rule:evenodd; fill:#ffffff" d="M 32.9995 38.7417L 38.7378 38.7417L 38.7378 32.9995L 32.9995 32.9995L 32.9995 38.7417z"/>
<path style="stroke:#000000; stroke-width:1.9139600000000001; fill:none" d="M 32.9995 38.7417L 38.7378 38.7417L 38.7378 32.9995L 32.9995 32.9995L 32.9995 38.7417z"/>
<path style="stroke:none; fill-rule:evenodd; fill:#ffffff" d="M 15.773 50.2222L 21.5113 50.2222L 21.5113 44.48L 15.773 44.48L 15.773 50.2222z"/>
<path style="stroke:#000000; stroke-width:1.9139600000000001; fill:none" d="M 15.773 50.2222L 21.5113 50.2222L 21.5113 44.48L 15.773 44.48L 15.773 50.2222z"/>
<path style="stroke:none; fill-rule:evenodd; fill:#ffffff" d="M 21.5152 50.2222L 27.2535 50.2222L 27.2535 44.48L 21.5152 44.48L 21.5152 50.2222z"/>
<path style="stroke:#000000; stroke-width:1.9139600000000001; fill:none" d="M 21.5152 50.2222L 27.2535 50.2222L 27.2535 44.48L 21.5152 44.48L 21.5152 50.2222z"/>
<path style="stroke:none; fill-rule:evenodd; fill:#ffffff" d="M 27.2574 50.2222L 32.9956 50.2222L 32.9956 44.48L 27.2574 44.48L 27.2574 50.2222z"/>
<path style="stroke:#000000; stroke-width:1.9139600000000001; fill:none" d="M 27.2574 50.2222L 32.9956 50.2222L 32.9956 44.48L 27.2574 44.48L 27.2574 50.2222z"/>
<path style="stroke:none; fill-rule:evenodd; fill:#ffffff" d="M 10.0308 44.48L 15.7691 44.48L 15.7691 38.7378L 10.0308 38.7378L 10.0308 44.48z"/>
<path style="stroke:#000000; stroke-width:1.9139600000000001; fill:none" d="M 10.0308 44.48L 15.7691 44.48L 15.7691 38.7378L 10.0308 38.7378L 10.0308 44.48z"/>
<path style="stroke:none; fill-rule:evenodd; fill:#ffffff" d="M 32.9995 44.48L 38.7378 44.48L 38.7378 38.7378L 32.9995 38.7378L 32.9995 44.48z"/>
<path style="stroke:#000000; stroke-width:1.9139600000000001; fill:none" d="M 32.9995 44.48L 38.7378 44.48L 38.7378 38.7378L 32.9995 38.7378L 32.9995 44.48z"/>
<path style="stroke:none; fill-rule:evenodd; fill:#5f5f5f" d="M 48.3081 15.773L 54.0464 15.773L 54.0464 10.0308L 48.3081 10.0308L 48.3081 15.773z"/>
<path style="stroke:#000000; stroke-width:1.9139600000000001; fill:none" d="M 48.3081 15.773L 54.0464 15.773L 54.0464 10.0308L 48.3081 10.0308L 48.3081 15.773z"/>
<path style="stroke:none; fill-rule:evenodd; fill:#5f5f5f" d="M 54.0503 21.5151L 59.7886 21.5151L 59.7886 15.773L 54.0503 15.773L 54.0503 21.5151z"/>
<path style="stroke:#000000; stroke-width:1.9139600000000001; fill:none" d="M 54.0503 21.5151L 59.7886 21.5151L 59.7886 15.773L 54.0503 15.773L 54.0503 21.5151z"/>
<path style="stroke:none; fill-rule:evenodd; fill:#5f5f5f" d="M 59.7925 21.5151L 65.5308 21.5151L 65.5308 15.773L 59.7925 15.773L 59.7925 21.5151z"/>
<path style="stroke:#000000; stroke-width:1.9139600000000001; fill:none" d="M 59.7925 21.5151L 65.5308 21.5151L 65.5308 15.773L 59.7925 15.773L 59.7925 21.5151z"/>
<path style="stroke:none; fill-rule:evenodd; fill:#5f5f5f" d="M 65.5347 21.5151L 71.273 21.5151L 71.273 15.773L 65.5347 15.773L 65.5347 21.5151z"/>
<path style="stroke:#000000; stroke-width:1.9139600000000001; fill:none" d="M 65.5347 21.5151L 71.273 21.5151L 71.273 15.773L 65.5347 15.773L 65.5347 21.5151z"/>
<path style="stroke:none; fill-rule:evenodd; fill:#5f5f5f" d="M 71.2769 15.773L 77.0152 15.773L 77.0152 10.0308L 71.2769 10.0308L 71.2769 15.773z"/>
<path style="stroke:#000000; stroke-width:1.9139600000000001; fill:none" d="M 71.2769 15.773L 77.0152 15.773L 77.0152 10.0308L 71.2769 10.0308L 71.2769 15.773z"/>
<path style="stroke:none; fill-rule:evenodd; fill:#5f5f5f" d="M 48.3081 32.9995L 54.0464 32.9995L 54.0464 27.2573L 48.3081 27.2573L 48.3081 32.9995z"/>
<path style="stroke:#000000; stroke-width:1.9139600000000001; fill:none" d="M 48.3081 32.9995L 54.0464 32.9995L 54.0464 27.2573L 48.3081 27.2573L 48.3081 32.9995z"/>
<path style="stroke:none; fill-rule:evenodd; fill:#5f5f5f" d="M 54.0503 27.2573L 59.7886 27.2573L 59.7886 21.5151L 54.0503 21.5151L 54.0503 27.2573z"/>
<path style="stroke:#000000; stroke-width:1.9139600000000001; fill:none" d="M 54.0503 27.2573L 59.7886 27.2573L 59.7886 21.5151L 54.0503 21.5151L 54.0503 27.2573z"/>
<path style="stroke:none; fill-rule:evenodd; fill:#5f5f5f" d="M 59.7925 27.2573L 65.5308 27.2573L 65.5308 21.5151L 59.7925 21.5151L 59.7925 27.2573z"/>
<path style="stroke:#000000; stroke-width:1.9139600000000001; fill:none" d="M 59.7925 27.2573L 65.5308 27.2573L 65.5308 21.5151L 59.7925 21.5151L 59.7925 27.2573z"/>
<path style="stroke:none; fill-rule:evenodd; fill:#5f5f5f" d="M 71.2769 32.9995L 77.0152 32.9995L 77.0152 27.2573L 71.2769 27.2573L 71.2769 32.9995z"/>
<path style="stroke:#000000; stroke-width:1.9139600000000001; fill:none" d="M 71.2769 32.9995L 77.0152 32.9995L 77.0152 27.2573L 71.2769 27.2573L 71.2769 32.9995z"/>
<path style="stroke:none; fill-rule:evenodd; fill:#5f5f5f" d="M 59.7925 38.7417L 65.5308 38.7417L 65.5308 32.9995L 59.7925 32.9995L 59.7925 38.7417z"/>
<path style="stroke:#000000; stroke-width:1.9139600000000001; fill:none" d="M 59.7925 38.7417L 65.5308 38.7417L 65.5308 32.9995L 59.7925 32.9995L 59.7925 38.7417z"/>
<path style="stroke:none; fill-rule:evenodd; fill:#5f5f5f" d="M 65.5347 38.7417L 71.273 38.7417L 71.273 32.9995L 65.5347 32.9995L 65.5347 38.7417z"/>
<path style="stroke:#000000; stroke-width:1.9139600000000001; fill:none" d="M 65.5347 38.7417L 71.273 38.7417L 71.273 32.9995L 65.5347 32.9995L 65.5347 38.7417z"/>
<path style="stroke:none; fill-rule:evenodd; fill:#5f5f5f" d="M 48.3081 50.2222L 54.0464 50.2222L 54.0464 44.48L 48.3081 44.48L 48.3081 50.2222z"/>
<path style="stroke:#000000; stroke-width:1.9139600000000001; fill:none" d="M 48.3081 50.2222L 54.0464 50.2222L 54.0464 44.48L 48.3081 44.48L 48.3081 50.2222z"/>
<path style="stroke:none; fill-rule:evenodd; fill:#5f5f5f" d="M 71.2769 50.2222L 77.0152 50.2222L 77.0152 44.48L 71.2769 44.48L 71.2769 50.2222z"/>
<path style="stroke:#000000; stroke-width:1.9139600000000001; fill:none" d="M 71.2769 50.2222L 77.0152 50.2222L 77.0152 44.48L 71.2769 44.48L 71.2769 50.2222z"/>
<path style="stroke:none; fill-rule:evenodd; fill:#5f5f5f" d="M 54.0503 44.48L 59.7886 44.48L 59.7886 38.7378L 54.0503 38.7378L 54.0503 44.48z"/>
<path style="stroke:#000000; stroke-width:1.9139600000000001; fill:none" d="M 54.0503 44.48L 59.7886 44.48L 59.7886 38.7378L 54.0503 38.7378L 54.0503 44.48z"/>
<path style="stroke:none; fill-rule:evenodd; fill:#5f5f5f" d="M 59.7925 44.48L 65.5308 44.48L 65.5308 38.7378L 59.7925 38.7378L 59.7925 44.48z"/>
<path style="stroke:#000000; stroke-width:1.9139600000000001; fill:none" d="M 59.7925 44.48L 65.5308 44.48L 65.5308 38.7378L 59.7925 38.7378L 59.7925 44.48z"/>
<path style="stroke:none; fill-rule:evenodd; fill:#5f5f5f" d="M 65.5347 44.48L 71.273 44.48L 71.273 38.7378L 65.5347 38.7378L 65.5347 44.48z"/>
<path style="stroke:#000000; stroke-width:1.9139600000000001; fill:none" d="M 65.5347 44.48L 71.273 44.48L 71.273 38.7378L 65.5347 38.7378L 65.5347 44.48z"/>
<path style="stroke:none; fill-rule:evenodd; fill:#ffffff" d="M 48.3081 21.5151L 54.0464 21.5151L 54.0464 15.773L 48.3081 15.773L 48.3081 21.5151z"/>
<path style="stroke:#000000; stroke-width:1.9139600000000001; fill:none" d="M 48.3081 21.5151L 54.0464 21.5151L 54.0464 15.773L 48.3081 15.773L 48.3081 21.5151z"/>
<path style="stroke:none; fill-rule:evenodd; fill:#ffffff" d="M 54.0503 15.773L 59.7886 15.773L 59.7886 10.0308L 54.0503 10.0308L 54.0503 15.773z"/>
<path style="stroke:#000000; stroke-width:1.9139600000000001; fill:none" d="M 54.0503 15.773L 59.7886 15.773L 59.7886 10.0308L 54.0503 10.0308L 54.0503 15.773z"/>
<path style="stroke:none; fill-rule:evenodd; fill:#ffffff" d="M 59.7925 15.773L 65.5308 15.773L 65.5308 10.0308L 59.7925 10.0308L 59.7925 15.773z"/>
<path style="stroke:#000000; stroke-width:1.9139600000000001; fill:none" d="M 59.7925 15.773L 65.5308 15.773L 65.5308 10.0308L 59.7925 10.0308L 59.7925 15.773z"/>
<path style="stroke:none; fill-rule:evenodd; fill:#ffffff" d="M 65.5347 15.773L 71.273 15.773L 71.273 10.0308L 65.5347 10.0308L 65.5347 15.773z"/>
<path style="stroke:#000000; stroke-width:1.9139600000000001; fill:none" d="M 65.5347 15.773L 71.273 15.773L 71.273 10.0308L 65.5347 10.0308L 65.5347 15.773z"/>
<path style="stroke:none; fill-rule:evenodd; fill:#ffffff" d="M 71.2769 21.5151L 77.0152 21.5151L 77.0152 15.773L 71.2769 15.773L 71.2769 21.5151z"/>
<path style="stroke:#000000; stroke-width:1.9139600000000001; fill:none" d="M 71.2769 21.5151L 77.0152 21.5151L 77.0152 15.773L 71.2769 15.773L 71.2769 21.5151z"/>
<path style="stroke:none; fill-rule:evenodd; fill:#ffffff" d="M 48.3081 27.2573L 54.0464 27.2573L 54.0464 21.5151L 48.3081 21.5151L 48.3081 27.2573z"/>
<path style="stroke:#000000; stroke-width:1.9139600000000001; fill:none" d="M 48.3081 27.2573L 54.0464 27.2573L 54.0464 21.5151L 48.3081 21.5151L 48.3081 27.2573z"/>
<path style="stroke:none; fill-rule:evenodd; fill:#ffffff" d="M 54.0503 32.9995L 59.7886 32.9995L 59.7886 27.2573L 54.0503 27.2573L 54.0503 32.9995z"/>
<path style="stroke:#000000; stroke-width:1.9139600000000001; fill:none" d="M 54.0503 32.9995L 59.7886 32.9995L 59.7886 27.2573L 54.0503 27.2573L 54.0503 32.9995z"/>
<path style="stroke:none; fill-rule:evenodd; fill:#ffffff" d="M 59.7925 32.9995L 65.5308 32.9995L 65.5308 27.2573L 59.7925 27.2573L 59.7925 32.9995z"/>
<path style="stroke:#000000; stroke-width:1.9139600000000001; fill:none" d="M 59.7925 32.9995L 65.5308 32.9995L 65.5308 27.2573L 59.7925 27.2573L 59.7925 32.9995z"/>
<path style="stroke:none; fill-rule:evenodd; fill:#ffffff" d="M 65.5347 27.2573L 71.273 27.2573L 71.273 21.5151L 65.5347 21.5151L 65.5347 27.2573z"/>
<path style="stroke:#000000; stroke-width:1.9139600000000001; fill:none" d="M 65.5347 27.2573L 71.273 27.2573L 71.273 21.5151L 65.5347 21.5151L 65.5347 27.2573z"/>
<path style="stroke:none; fill-rule:evenodd; fill:#ffffff" d="M 65.5347 32.9995L 71.273 32.9995L 71.273 27.2573L 65.5347 27.2573L 65.5347 32.9995z"/>
<path style="stroke:#000000; stroke-width:1.9139600000000001; fill:none" d="M 65.5347 32.9995L 71.273 32.9995L 71.273 27.2573L 65.5347 27.2573L 65.5347 32.9995z"/>
<path style="stroke:none; fill-rule:evenodd; fill:#ffffff" d="M 71.2769 27.2573L 77.0152 27.2573L 77.0152 21.5151L 71.2769 21.5151L 71.2769 27.2573z"/>
<path style="stroke:#000000; stroke-width:1.9139600000000001; fill:none" d="M 71.2769 27.2573L 77.0152 27.2573L 77.0152 21.5151L 71.2769 21.5151L 71.2769 27.2573z"/>
<path style="stroke:none; fill-rule:evenodd; fill:#ffffff" d="M 48.3081 38.7417L 54.0464 38.7417L 54.0464 32.9995L 48.3081 32.9995L 48.3081 38.7417z"/>
<path style="stroke:#000000; stroke-width:1.9139600000000001; fill:none" d="M 48.3081 38.7417L 54.0464 38.7417L 54.0464 32.9995L 48.3081 32.9995L 48.3081 38.7417z"/>
<path style="stroke:none; fill-rule:evenodd; fill:#ffffff" d="M 54.0503 38.7417L 59.7886 38.7417L 59.7886 32.9995L 54.0503 32.9995L 54.0503 38.7417z"/>
<path style="stroke:#000000; stroke-width:1.9139600000000001; fill:none" d="M 54.0503 38.7417L 59.7886 38.7417L 59.7886 32.9995L 54.0503 32.9995L 54.0503 38.7417z"/>
<path style="stroke:none; fill-rule:evenodd; fill:#ffffff" d="M 71.2769 38.7417L 77.0152 38.7417L 77.0152 32.9995L 71.2769 32.9995L 71.2769 38.7417z"/>
<path style="stroke:#000000; stroke-width:1.9139600000000001; fill:none" d="M 71.2769 38.7417L 77.0152 38.7417L 77.0152 32.9995L 71.2769 32.9995L 71.2769 38.7417z"/>
<path style="stroke:none; fill-rule:evenodd; fill:#ffffff" d="M 54.0503 50.2222L 59.7886 50.2222L 59.7886 44.48L 54.0503 44.48L 54.0503 50.2222z"/>
<path style="stroke:#000000; stroke-width:1.9139600000000001; fill:none" d="M 54.0503 50.2222L 59.7886 50.2222L 59.7886 44.48L 54.0503 44.48L 54.0503 50.2222z"/>
<path style="stroke:none; fill-rule:evenodd; fill:#ffffff" d="M 59.7925 50.2222L 65.5308 50.2222L 65.5308 44.48L 59.7925 44.48L 59.7925 50.2222z"/>
<path style="stroke:#000000; stroke-width:1.9139600000000001; fill:none" d="M 59.7925 50.2222L 65.5308 50.2222L 65.5308 44.48L 59.7925 44.48L 59.7925 50.2222z"/>
<path style="stroke:none; fill-rule:evenodd; fill:#ffffff" d="M 65.5347 50.2222L 71.273 50.2222L 71.273 44.48L 65.5347 44.48L 65.5347 50.2222z"/>
<path style="stroke:#000000; stroke-width:1.9139600000000001; fill:none" d="M 65.5347 50.2222L 71.273 50.2222L 71.273 44.48L 65.5347 44.48L 65.5347 50.2222z"/>
<path style="stroke:none; fill-rule:evenodd; fill:#ffffff" d="M 48.3081 44.48L 54.0464 44.48L 54.0464 38.7378L 48.3081 38.7378L 48.3081 44.48z"/>
<path style="stroke:#000000; stroke-width:1.9139600000000001; fill:none" d="M 48.3081 44.48L 54.0464 44.48L 54.0464 38.7378L 48.3081 38.7378L 48.3081 44.48z"/>
<path style="stroke:none; fill-rule:evenodd; fill:#ffffff" d="M 71.2769 44.48L 77.0152 44.48L 77.0152 38.7378L 71.2769 38.7378L 71.2769 44.48z"/>
<path style="stroke:#000000; stroke-width:1.9139600000000001; fill:none" d="M 71.2769 44.48L 77.0152 44.48L 77.0152 38.7378L 71.2769 38.7378L 71.2769 44.48z"/>
<path style="stroke:none; fill-rule:evenodd; fill:#5f5f5f" d="M 86.5897 15.773L 92.3277 15.773L 92.3277 10.0308L 86.5897 10.0308L 86.5897 15.773z"/>
<path style="stroke:#000000; stroke-width:1.9139600000000001; fill:none" d="M 86.5897 15.773L 92.3277 15.773L 92.3277 10.0308L 86.5897 10.0308L 86.5897 15.773z"/>
<path style="stroke:none; fill-rule:evenodd; fill:#5f5f5f" d="M 92.3317 21.5151L 98.0697 21.5151L 98.0697 15.773L 92.3317 15.773L 92.3317 21.5151z"/>
<path style="stroke:#000000; stroke-width:1.9139600000000001; fill:none" d="M 92.3317 21.5151L 98.0697 21.5151L 98.0697 15.773L 92.3317 15.773L 92.3317 21.5151z"/>
<path style="stroke:none; fill-rule:evenodd; fill:#5f5f5f" d="M 98.0737 21.5151L 103.812 21.5151L 103.812 15.773L 98.0737 15.773L 98.0737 21.5151z"/>
<path style="stroke:#000000; stroke-width:1.9139600000000001; fill:none" d="M 98.0737 21.5151L 103.812 21.5151L 103.812 15.773L 98.0737 15.773L 98.0737 21.5151z"/>
<path style="stroke:none; fill-rule:evenodd; fill:#5f5f5f" d="M 103.816 21.5151L 109.555 21.5151L 109.555 15.773L 103.816 15.773L 103.816 21.5151z"/>
<path style="stroke:#000000; stroke-width:1.9139600000000001; fill:none" d="M 103.816 21.5151L 109.555 21.5151L 109.555 15.773L 103.816 15.773L 103.816 21.5151z"/>
<path style="stroke:none; fill-rule:evenodd; fill:#5f5f5f" d="M 109.558 15.773L 115.297 15.773L 115.297 10.0308L 109.558 10.0308L 109.558 15.773z"/>
<path style="stroke:#000000; stroke-width:1.9139600000000001; fill:none" d="M 109.558 15.773L 115.297 15.773L 115.297 10.0308L 109.558 10.0308L 109.558 15.773z"/>
<path style="stroke:none; fill-rule:evenodd; fill:#5f5f5f" d="M 86.5897 32.9995L 92.3277 32.9995L 92.3277 27.2573L 86.5897 27.2573L 86.5897 32.9995z"/>
<path style="stroke:#000000; stroke-width:1.9139600000000001; fill:none" d="M 86.5897 32.9995L 92.3277 32.9995L 92.3277 27.2573L 86.5897 27.2573L 86.5897 32.9995z"/>
<path style="stroke:none; fill-rule:evenodd; fill:#5f5f5f" d="M 98.0737 27.2573L 103.812 27.2573L 103.812 21.5151L 98.0737 21.5151L 98.0737 27.2573z"/>
<path style="stroke:#000000; stroke-width:1.9139600000000001; fill:none" d="M 98.0737 27.2573L 103.812 27.2573L 103.812 21.5151L 98.0737 21.5151L 98.0737 27.2573z"/>
<path style="stroke:none; fill-rule:evenodd; fill:#5f5f5f" d="M 103.816 27.2573L 109.555 27.2573L 109.555 21.5151L 103.816 21.5151L 103.816 27.2573z"/>
<path style="stroke:#000000; stroke-width:1.9139600000000001; fill:none" d="M 103.816 27.2573L 109.555 27.2573L 109.555 21.5151L 103.816 21.5151L 103.816 27.2573z"/>
<path style="stroke:none; fill-rule:evenodd; fill:#5f5f5f" d="M 109.558 32.9995L 115.297 32.9995L 115.297 27.2573L 109.558 27.2573L 109.558 32.9995z"/>
<path style="stroke:#000000; stroke-width:1.9139600000000001; fill:none" d="M 109.558 32.9995L 115.297 32.9995L 115.297 27.2573L 109.558 27.2573L 109.558 32.9995z"/>
<path style="stroke:none; fill-rule:evenodd; fill:#5f5f5f" d="M 92.3317 38.7417L 98.0697 38.7417L 98.0697 32.9995L 92.3317 32.9995L 92.3317 38.7417z"/>
<path style="stroke:#000000; stroke-width:1.9139600000000001; fill:none" d="M 92.3317 38.7417L 98.0697 38.7417L 98.0697 32.9995L 92.3317 32.9995L 92.3317 38.7417z"/>
<path style="stroke:none; fill-rule:evenodd; fill:#5f5f5f" d="M 98.0737 38.7417L 103.812 38.7417L 103.812 32.9995L 98.0737 32.9995L 98.0737 38.7417z"/>
<path style="stroke:#000000; stroke-width:1.9139600000000001; fill:none" d="M 98.0737 38.7417L 103.812 38.7417L 103.812 32.9995L 98.0737 32.9995L 98.0737 38.7417z"/>
<path style="stroke:none; fill-rule:evenodd; fill:#5f5f5f" d="M 86.5897 50.2222L 92.3277 50.2222L 92.3277 44.48L 86.5897 44.48L 86.5897 50.2222z"/>
<path style="stroke:#000000; stroke-width:1.9139600000000001; fill:none" d="M 86.5897 50.2222L 92.3277 50.2222L 92.3277 44.48L 86.5897 44.48L 86.5897 50.2222z"/>
<path style="stroke:none; fill-rule:evenodd; fill:#5f5f5f" d="M 109.558 50.2222L 115.297 50.2222L 115.297 44.48L 109.558 44.48L 109.558 50.2222z"/>
<path style="stroke:#000000; stroke-width:1.9139600000000001; fill:none" d="M 109.558 50.2222L 115.297 50.2222L 115.297 44.48L 109.558 44.48L 109.558 50.2222z"/>
<path style="stroke:none; fill-rule:evenodd; fill:#5f5f5f" d="M 92.3317 44.48L 98.0697 44.48L 98.0697 38.7378L 92.3317 38.7378L 92.3317 44.48z"/>
<path style="stroke:#000000; stroke-width:1.9139600000000001; fill:none" d="M 92.3317 44.48L 98.0697 44.48L 98.0697 38.7378L 92.3317 38.7378L 92.3317 44.48z"/>
<path style="stroke:none; fill-rule:evenodd; fill:#5f5f5f" d="M 98.0737 44.48L 103.812 44.48L 103.812 38.7378L 98.0737 38.7378L 98.0737 44.48z"/>
<path style="stroke:#000000; stroke-width:1.9139600000000001; fill:none" d="M 98.0737 44.48L 103.812 44.48L 103.812 38.7378L 98.0737 38.7378L 98.0737 44.48z"/>
<path style="stroke:none; fill-rule:evenodd; fill:#5f5f5f" d="M 103.816 44.48L 109.555 44.48L 109.555 38.7378L 103.816 38.7378L 103.816 44.48z"/>
<path style="stroke:#000000; stroke-width:1.9139600000000001; fill:none" d="M 103.816 44.48L 109.555 44.48L 109.555 38.7378L 103.816 38.7378L 103.816 44.48z"/>
<path style="stroke:none; fill-rule:evenodd; fill:#ffffff" d="M 86.5897 21.5151L 92.3277 21.5151L 92.3277 15.773L 86.5897 15.773L 86.5897 21.5151z"/>
<path style="stroke:#000000; stroke-width:1.9139600000000001; fill:none" d="M 86.5897 21.5151L 92.3277 21.5151L 92.3277 15.773L 86.5897 15.773L 86.5897 21.5151z"/>
<path style="stroke:none; fill-rule:evenodd; fill:#ffffff" d="M 92.3317 15.773L 98.0697 15.773L 98.0697 10.0308L 92.3317 10.0308L 92.3317 15.773z"/>
<path style="stroke:#000000; stroke-width:1.9139600000000001; fill:none" d="M 92.3317 15.773L 98.0697 15.773L 98.0697 10.0308L 92.3317 10.0308L 92.3317 15.773z"/>
<path style="stroke:none; fill-rule:evenodd; fill:#ffffff" d="M 98.0737 15.773L 103.812 15.773L 103.812 10.0308L 98.0737 10.0308L 98.0737 15.773z"/>
<path style="stroke:#000000; stroke-width:1.9139600000000001; fill:none" d="M 98.0737 15.773L 103.812 15.773L 103.812 10.0308L 98.0737 10.0308L 98.0737 15.773z"/>
<path style="stroke:none; fill-rule:evenodd; fill:#ffffff" d="M 103.816 15.773L 109.555 15.773L 109.555 10.0308L 103.816 10.0308L 103.816 15.773z"/>
<path style="stroke:#000000; stroke-width:1.9139600000000001; fill:none" d="M 103.816 15.773L 109.555 15.773L 109.555 10.0308L 103.816 10.0308L 103.816 15.773z"/>
<path style="stroke:none; fill-rule:evenodd; fill:#ffffff" d="M 109.558 21.5151L 115.297 21.5151L 115.297 15.773L 109.558 15.773L 109.558 21.5151z"/>
<path style="stroke:#000000; stroke-width:1.9139600000000001; fill:none" d="M 109.558 21.5151L 115.297 21.5151L 115.297 15.773L 109.558 15.773L 109.558 21.5151z"/>
<path style="stroke:none; fill-rule:evenodd; fill:#ffffff" d="M 86.5897 27.2573L 92.3277 27.2573L 92.3277 21.5151L 86.5897 21.5151L 86.5897 27.2573z"/>
<path style="stroke:#000000; stroke-width:1.9139600000000001; fill:none" d="M 86.5897 27.2573L 92.3277 27.2573L 92.3277 21.5151L 86.5897 21.5151L 86.5897 27.2573z"/>
<path style="stroke:none; fill-rule:evenodd; fill:#ffffff" d="M 92.3317 27.2573L 98.0697 27.2573L 98.0697 21.5151L 92.3317 21.5151L 92.3317 27.2573z"/>
<path style="stroke:#000000; stroke-width:1.9139600000000001; fill:none" d="M 92.3317 27.2573L 98.0697 27.2573L 98.0697 21.5151L 92.3317 21.5151L 92.3317 27.2573z"/>
<path style="stroke:none; fill-rule:evenodd; fill:#ffffff" d="M 92.3317 32.9995L 98.0697 32.9995L 98.0697 27.2573L 92.3317 27.2573L 92.3317 32.9995z"/>
<path style="stroke:#000000; stroke-width:1.9139600000000001; fill:none" d="M 92.3317 32.9995L 98.0697 32.9995L 98.0697 27.2573L 92.3317 27.2573L 92.3317 32.9995z"/>
<path style="stroke:none; fill-rule:evenodd; fill:#ffffff" d="M 98.0737 32.9995L 103.812 32.9995L 103.812 27.2573L 98.0737 27.2573L 98.0737 32.9995z"/>
<path style="stroke:#000000; stroke-width:1.9139600000000001; fill:none" d="M 98.0737 32.9995L 103.812 32.9995L 103.812 27.2573L 98.0737 27.2573L 98.0737 32.9995z"/>
<path style="stroke:none; fill-rule:evenodd; fill:#ffffff" d="M 103.816 32.9995L 109.555 32.9995L 109.555 27.2573L 103.816 27.2573L 103.816 32.9995z"/>
<path style="stroke:#000000; stroke-width:1.9139600000000001; fill:none" d="M 103.816 32.9995L 109.555 32.9995L 109.555 27.2573L 103.816 27.2573L 103.816 32.9995z"/>
<path style="stroke:none; fill-rule:evenodd; fill:#ffffff" d="M 109.558 27.2573L 115.297 27.2573L 115.297 21.5151L 109.558 21.5151L 109.558 27.2573z"/>
<path style="stroke:#000000; stroke-width:1.9139600000000001; fill:none" d="M 109.558 27.2573L 115.297 27.2573L 115.297 21.5151L 109.558 21.5151L 109.558 27.2573z"/>
<path style="stroke:none; fill-rule:evenodd; fill:#ffffff" d="M 86.5897 38.7417L 92.3277 38.7417L 92.3277 32.9995L 86.5897 32.9995L 86.5897 38.7417z"/>
<path style="stroke:#000000; stroke-width:1.9139600000000001; fill:none" d="M 86.5897 38.7417L 92.3277 38.7417L 92.3277 32.9995L 86.5897 32.9995L 86.5897 38.7417z"/>
<path style="stroke:none; fill-rule:evenodd; fill:#ffffff" d="M 103.816 38.7417L 109.555 38.7417L 109.555 32.9995L 103.816 32.9995L 103.816 38.7417z"/>
<path style="stroke:#000000; stroke-width:1.9139600000000001; fill:none" d="M 103.816 38.7417L 109.555 38.7417L 109.555 32.9995L 103.816 32.9995L 103.816 38.7417z"/>
<path style="stroke:none; fill-rule:evenodd; fill:#ffffff" d="M 109.558 38.7417L 115.297 38.7417L 115.297 32.9995L 109.558 32.9995L 109.558 38.7417z"/>
<path style="stroke:#000000; stroke-width:1.9139600000000001; fill:none" d="M 109.558 38.7417L 115.297 38.7417L 115.297 32.9995L 109.558 32.9995L 109.558 38.7417z"/>
<path style="stroke:none; fill-rule:evenodd; fill:#ffffff" d="M 92.3317 50.2222L 98.0697 50.2222L 98.0697 44.48L 92.3317 44.48L 92.3317 50.2222z"/>
<path style="stroke:#000000; stroke-width:1.9139600000000001; fill:none" d="M 92.3317 50.2222L 98.0697 50.2222L 98.0697 44.48L 92.3317 44.48L 92.3317 50.2222z"/>
<path style="stroke:none; fill-rule:evenodd; fill:#ffffff" d="M 98.0737 50.2222L 103.812 50.2222L 103.812 44.48L 98.0737 44.48L 98.0737 50.2222z"/>
<path style="stroke:#000000; stroke-width:1.9139600000000001; fill:none" d="M 98.0737 50.2222L 103.812 50.2222L 103.812 44.48L 98.0737 44.48L 98.0737 50.2222z"/>
<path style="stroke:none; fill-rule:evenodd; fill:#ffffff" d="M 103.816 50.2222L 109.555 50.2222L 109.555 44.48L 103.816 44.48L 103.816 50.2222z"/>
<path style="stroke:#000000; stroke-width:1.9139600000000001; fill:none" d="M 103.816 50.2222L 109.555 50.2222L 109.555 44.48L 103.816 44.48L 103.816 50.2222z"/>
<path style="stroke:none; fill-rule:evenodd; fill:#ffffff" d="M 86.5897 44.48L 92.3277 44.48L 92.3277 38.7378L 86.5897 38.7378L 86.5897 44.48z"/>
<path style="stroke:#000000; stroke-width:1.9139600000000001; fill:none" d="M 86.5897 44.48L 92.3277 44.48L 92.3277 38.7378L 86.5897 38.7378L 86.5897 44.48z"/>
<path style="stroke:none; fill-rule:evenodd; fill:#ffffff" d="M 109.558 44.48L 115.297 44.48L 115.297 38.7378L 109.558 38.7378L 109.558 44.48z"/>
<path style="stroke:#000000; stroke-width:1.9139600000000001; fill:none" d="M 109.558 44.48L 115.297 44.48L 115.297 38.7378L 109.558 38.7378L 109.558 44.48z"/>
<path style="stroke:none; fill-rule:evenodd; fill:#5f5f5f" d="M 130.609 21.5151L 136.348 21.5151L 136.348 15.773L 130.609 15.773L 130.609 21.5151z"/>
<path style="stroke:#000000; stroke-width:1.9139600000000001; fill:none" d="M 130.609 21.5151L 136.348 21.5151L 136.348 15.773L 130.609 15.773L 130.609 21.5151z"/>
<path style="stroke:none; fill-rule:evenodd; fill:#5f5f5f" d="M 136.351 21.5151L 142.09 21.5151L 142.09 15.773L 136.351 15.773L 136.351 21.5151z"/>
<path style="stroke:#000000; stroke-width:1.9139600000000001; fill:none" d="M 136.351 21.5151L 142.09 21.5151L 142.09 15.773L 136.351 15.773L 136.351 21.5151z"/>
<path style="stroke:none; fill-rule:evenodd; fill:#5f5f5f" d="M 142.094 21.5151L 147.832 21.5151L 147.832 15.773L 142.094 15.773L 142.094 21.5151z"/>
<path style="stroke:#000000; stroke-width:1.9139600000000001; fill:none" d="M 142.094 21.5151L 147.832 21.5151L 147.832 15.773L 142.094 15.773L 142.094 21.5151z"/>
<path style="stroke:none; fill-rule:evenodd; fill:#5f5f5f" d="M 147.836 15.773L 153.574 15.773L 153.574 10.0308L 147.836 10.0308L 147.836 15.773z"/>
<path style="stroke:#000000; stroke-width:1.9139600000000001; fill:none" d="M 147.836 15.773L 153.574 15.773L 153.574 10.0308L 147.836 10.0308L 147.836 15.773z"/>
<path style="stroke:none; fill-rule:evenodd; fill:#5f5f5f" d="M 124.871 32.9995L 130.609 32.9995L 130.609 27.2573L 124.871 27.2573L 124.871 32.9995z"/>
<path style="stroke:#000000; stroke-width:1.9139600000000001; fill:none" d="M 124.871 32.9995L 130.609 32.9995L 130.609 27.2573L 124.871 27.2573L 124.871 32.9995z"/>
<path style="stroke:none; fill-rule:evenodd; fill:#5f5f5f" d="M 130.609 27.2573L 136.348 27.2573L 136.348 21.5151L 130.609 21.5151L 130.609 27.2573z"/>
<path style="stroke:#000000; stroke-width:1.9139600000000001; fill:none" d="M 130.609 27.2573L 136.348 27.2573L 136.348 21.5151L 130.609 21.5151L 130.609 27.2573z"/>
<path style="stroke:none; fill-rule:evenodd; fill:#5f5f5f" d="M 136.351 27.2573L 142.09 27.2573L 142.09 21.5151L 136.351 21.5151L 136.351 27.2573z"/>
<path style="stroke:#000000; stroke-width:1.9139600000000001; fill:none" d="M 136.351 27.2573L 142.09 27.2573L 142.09 21.5151L 136.351 21.5151L 136.351 27.2573z"/>
<path style="stroke:none; fill-rule:evenodd; fill:#5f5f5f" d="M 142.094 27.2573L 147.832 27.2573L 147.832 21.5151L 142.094 21.5151L 142.094 27.2573z"/>
<path style="stroke:#000000; stroke-width:1.9139600000000001; fill:none" d="M 142.094 27.2573L 147.832 27.2573L 147.832 21.5151L 142.094 21.5151L 142.094 27.2573z"/>
<path style="stroke:none; fill-rule:evenodd; fill:#5f5f5f" d="M 147.836 32.9995L 153.574 32.9995L 153.574 27.2573L 147.836 27.2573L 147.836 32.9995z"/>
<path style="stroke:#000000; stroke-width:1.9139600000000001; fill:none" d="M 147.836 32.9995L 153.574 32.9995L 153.574 27.2573L 147.836 27.2573L 147.836 32.9995z"/>
<path style="stroke:none; fill-rule:evenodd; fill:#5f5f5f" d="M 130.609 38.7417L 136.348 38.7417L 136.348 32.9995L 130.609 32.9995L 130.609 38.7417z"/>
<path style="stroke:#000000; stroke-width:1.9139600000000001; fill:none" d="M 130.609 38.7417L 136.348 38.7417L 136.348 32.9995L 130.609 32.9995L 130.609 38.7417z"/>
<path style="stroke:none; fill-rule:evenodd; fill:#5f5f5f" d="M 142.094 38.7417L 147.832 38.7417L 147.832 32.9995L 142.094 32.9995L 142.094 38.7417z"/>
<path style="stroke:#000000; stroke-width:1.9139600000000001; fill:none" d="M 142.094 38.7417L 147.832 38.7417L 147.832 32.9995L 142.094 32.9995L 142.094 38.7417z"/>
<path style="stroke:none; fill-rule:evenodd; fill:#5f5f5f" d="M 124.871 50.2222L 130.609 50.2222L 130.609 44.48L 124.871 44.48L 124.871 50.2222z"/>
<path style="stroke:#000000; stroke-width:1.9139600000000001; fill:none" d="M 124.871 50.2222L 130.609 50.2222L 130.609 44.48L 124.871 44.48L 124.871 50.2222z"/>
<path style="stroke:none; fill-rule:evenodd; fill:#5f5f5f" d="M 147.836 50.2222L 153.574 50.2222L 153.574 44.48L 147.836 44.48L 147.836 50.2222z"/>
<path style="stroke:#000000; stroke-width:1.9139600000000001; fill:none" d="M 147.836 50.2222L 153.574 50.2222L 153.574 44.48L 147.836 44.48L 147.836 50.2222z"/>
<path style="stroke:none; fill-rule:evenodd; fill:#5f5f5f" d="M 130.609 44.48L 136.348 44.48L 136.348 38.7378L 130.609 38.7378L 130.609 44.48z"/>
<path style="stroke:#000000; stroke-width:1.9139600000000001; fill:none" d="M 130.609 44.48L 136.348 44.48L 136.348 38.7378L 130.609 38.7378L 130.609 44.48z"/>
<path style="stroke:none; fill-rule:evenodd; fill:#5f5f5f" d="M 136.351 44.48L 142.09 44.48L 142.09 38.7378L 136.351 38.7378L 136.351 44.48z"/>
<path style="stroke:#000000; stroke-width:1.9139600000000001; fill:none" d="M 136.351 44.48L 142.09 44.48L 142.09 38.7378L 136.351 38.7378L 136.351 44.48z"/>
<path style="stroke:none; fill-rule:evenodd; fill:#5f5f5f" d="M 142.094 44.48L 147.832 44.48L 147.832 38.7378L 142.094 38.7378L 142.094 44.48z"/>
<path style="stroke:#000000; stroke-width:1.9139600000000001; fill:none" d="M 142.094 44.48L 147.832 44.48L 147.832 38.7378L 142.094 38.7378L 142.094 44.48z"/>
<path style="stroke:none; fill-rule:evenodd; fill:#ffffff" d="M 124.871 15.773L 130.609 15.773L 130.609 10.0308L 124.871 10.0308L 124.871 15.773z"/>
<path style="stroke:#000000; stroke-width:1.9139600000000001; fill:none" d="M 124.871 15.773L 130.609 15.773L 130.609 10.0308L 124.871 10.0308L 124.871 15.773z"/>
<path style="stroke:none; fill-rule:evenodd; fill:#ffffff" d="M 124.871 21.5151L 130.609 21.5151L 130.609 15.773L 124.871 15.773L 124.871 21.5151z"/>
<path style="stroke:#000000; stroke-width:1.9139600000000001; fill:none" d="M 124.871 21.5151L 130.609 21.5151L 130.609 15.773L 124.871 15.773L 124.871 21.5151z"/>
<path style="stroke:none; fill-rule:evenodd; fill:#ffffff" d="M 130.609 15.773L 136.348 15.773L 136.348 10.0308L 130.609 10.0308L 130.609 15.773z"/>
<path style="stroke:#000000; stroke-width:1.9139600000000001; fill:none" d="M 130.609 15.773L 136.348 15.773L 136.348 10.0308L 130.609 10.0308L 130.609 15.773z"/>
<path style="stroke:none; fill-rule:evenodd; fill:#ffffff" d="M 136.351 15.773L 142.09 15.773L 142.09 10.0308L 136.351 10.0308L 136.351 15.773z"/>
<path style="stroke:#000000; stroke-width:1.9139600000000001; fill:none" d="M 136.351 15.773L 142.09 15.773L 142.09 10.0308L 136.351 10.0308L 136.351 15.773z"/>
<path style="stroke:none; fill-rule:evenodd; fill:#ffffff" d="M 142.094 15.773L 147.832 15.773L 147.832 10.0308L 142.094 10.0308L 142.094 15.773z"/>
<path style="stroke:#000000; stroke-width:1.9139600000000001; fill:none" d="M 142.094 15.773L 147.832 15.773L 147.832 10.0308L 142.094 10.0308L 142.094 15.773z"/>
<path style="stroke:none; fill-rule:evenodd; fill:#ffffff" d="M 147.836 21.5151L 153.574 21.5151L 153.574 15.773L 147.836 15.773L 147.836 21.5151z"/>
<path style="stroke:#000000; stroke-width:1.9139600000000001; fill:none" d="M 147.836 21.5151L 153.574 21.5151L 153.574 15.773L 147.836 15.773L 147.836 21.5151z"/>
<path style="stroke:none; fill-rule:evenodd; fill:#ffffff" d="M 124.871 27.2573L 130.609 27.2573L 130.609 21.5151L 124.871 21.5151L 124.871 27.2573z"/>
<path style="stroke:#000000; stroke-width:1.9139600000000001; fill:none" d="M 124.871 27.2573L 130.609 27.2573L 130.609 21.5151L 124.871 21.5151L 124.871 27.2573z"/>
<path style="stroke:none; fill-rule:evenodd; fill:#ffffff" d="M 130.609 32.9995L 136.348 32.9995L 136.348 27.2573L 130.609 27.2573L 130.609 32.9995z"/>
<path style="stroke:#000000; stroke-width:1.9139600000000001; fill:none" d="M 130.609 32.9995L 136.348 32.9995L 136.348 27.2573L 130.609 27.2573L 130.609 32.9995z"/>
<path style="stroke:none; fill-rule:evenodd; fill:#ffffff" d="M 136.351 32.9995L 142.09 32.9995L 142.09 27.2573L 136.351 27.2573L 136.351 32.9995z"/>
<path style="stroke:#000000; stroke-width:1.9139600000000001; fill:none" d="M 136.351 32.9995L 142.09 32.9995L 142.09 27.2573L 136.351 27.2573L 136.351 32.9995z"/>
<path style="stroke:none; fill-rule:evenodd; fill:#ffffff" d="M 142.094 32.9995L 147.832 32.9995L 147.832 27.2573L 142.094 27.2573L 142.094 32.9995z"/>
<path style="stroke:#000000; stroke-width:1.9139600000000001; fill:none" d="M 142.094 32.9995L 147.832 32.9995L 147.832 27.2573L 142.094 27.2573L 142.094 32.9995z"/>
<path style="stroke:none; fill-rule:evenodd; fill:#ffffff" d="M 147.836 27.2573L 153.574 27.2573L 153.574 21.5151L 147.836 21.5151L 147.836 27.2573z"/>
<path style="stroke:#000000; stroke-width:1.9139600000000001; fill:none" d="M 147.836 27.2573L 153.574 27.2573L 153.574 21.5151L 147.836 21.5151L 147.836 27.2573z"/>
<path style="stroke:none; fill-rule:evenodd; fill:#ffffff" d="M 124.871 38.7417L 130.609 38.7417L 130.609 32.9995L 124.871 32.9995L 124.871 38.7417z"/>
<path style="stroke:#000000; stroke-width:1.9139600000000001; fill:none" d="M 124.871 38.7417L 130.609 38.7417L 130.609 32.9995L 124.871 32.9995L 124.871 38.7417z"/>
<path style="stroke:none; fill-rule:evenodd; fill:#ffffff" d="M 136.351 38.7417L 142.09 38.7417L 142.09 32.9995L 136.351 32.9995L 136.351 38.7417z"/>
<path style="stroke:#000000; stroke-width:1.9139600000000001; fill:none" d="M 136.351 38.7417L 142.09 38.7417L 142.09 32.9995L 136.351 32.9995L 136.351 38.7417z"/>
<path style="stroke:none; fill-rule:evenodd; fill:#ffffff" d="M 147.836 38.7417L 153.574 38.7417L 153.574 32.9995L 147.836 32.9995L 147.836 38.7417z"/>
<path style="stroke:#000000; stroke-width:1.9139600000000001; fill:none" d="M 147.836 38.7417L 153.574 38.7417L 153.574 32.9995L 147.836 32.9995L 147.836 38.7417z"/>
<path style="stroke:none; fill-rule:evenodd; fill:#ffffff" d="M 130.609 50.2222L 136.348 50.2222L 136.348 44.48L 130.609 44.48L 130.609 50.2222z"/>
<path style="stroke:#000000; stroke-width:1.9139600000000001; fill:none" d="M 130.609 50.2222L 136.348 50.2222L 136.348 44.48L 130.609 44.48L 130.609 50.2222z"/>
<path style="stroke:none; fill-rule:evenodd; fill:#ffffff" d="M 136.351 50.2222L 142.09 50.2222L 142.09 44.48L 136.351 44.48L 136.351 50.2222z"/>
<path style="stroke:#000000; stroke-width:1.9139600000000001; fill:none" d="M 136.351 50.2222L 142.09 50.2222L 142.09 44.48L 136.351 44.48L 136.351 50.2222z"/>
<path style="stroke:none; fill-rule:evenodd; fill:#ffffff" d="M 142.094 50.2222L 147.832 50.2222L 147.832 44.48L 142.094 44.48L 142.094 50.2222z"/>
<path style="stroke:#000000; stroke-width:1.9139600000000001; fill:none" d="M 142.094 50.2222L 147.832 50.2222L 147.832 44.48L 142.094 44.48L 142.094 50.2222z"/>
<path style="stroke:none; fill-rule:evenodd; fill:#ffffff" d="M 124.871 44.48L 130.609 44.48L 130.609 38.7378L 124.871 38.7378L 124.871 44.48z"/>
<path style="stroke:#000000; stroke-width:1.9139600000000001; fill:none" d="M 124.871 44.48L 130.609 44.48L 130.609 38.7378L 124.871 38.7378L 124.871 44.48z"/>
<path style="stroke:none; fill-rule:evenodd; fill:#ffffff" d="M 147.836 44.48L 153.574 44.48L 153.574 38.7378L 147.836 38.7378L 147.836 44.48z"/>
<path style="stroke:#000000; stroke-width:1.9139600000000001; fill:none" d="M 147.836 44.48L 153.574 44.48L 153.574 38.7378L 147.836 38.7378L 147.836 44.48z"/>
<path style="stroke:none; fill-rule:evenodd; fill:#5f5f5f" d="M 163.148 15.773L 168.887 15.773L 168.887 10.0308L 163.148 10.0308L 163.148 15.773z"/>
<path style="stroke:#000000; stroke-width:1.9139600000000001; fill:none" d="M 163.148 15.773L 168.887 15.773L 168.887 10.0308L 163.148 10.0308L 163.148 15.773z"/>
<path style="stroke:none; fill-rule:evenodd; fill:#5f5f5f" d="M 168.89 21.5151L 174.629 21.5151L 174.629 15.773L 168.89 15.773L 168.89 21.5151z"/>
<path style="stroke:#000000; stroke-width:1.9139600000000001; fill:none" d="M 168.89 21.5151L 174.629 21.5151L 174.629 15.773L 168.89 15.773L 168.89 21.5151z"/>
<path style="stroke:none; fill-rule:evenodd; fill:#5f5f5f" d="M 174.633 21.5151L 180.371 21.5151L 180.371 15.773L 174.633 15.773L 174.633 21.5151z"/>
<path style="stroke:#000000; stroke-width:1.9139600000000001; fill:none" d="M 174.633 21.5151L 180.371 21.5151L 180.371 15.773L 174.633 15.773L 174.633 21.5151z"/>
<path style="stroke:none; fill-rule:evenodd; fill:#5f5f5f" d="M 180.375 21.5151L 186.113 21.5151L 186.113 15.773L 180.375 15.773L 180.375 21.5151z"/>
<path style="stroke:#000000; stroke-width:1.9139600000000001; fill:none" d="M 180.375 21.5151L 186.113 21.5151L 186.113 15.773L 180.375 15.773L 180.375 21.5151z"/>
<path style="stroke:none; fill-rule:evenodd; fill:#5f5f5f" d="M 186.113 15.773L 191.851 15.773L 191.851 10.0308L 186.113 10.0308L 186.113 15.773z"/>
<path style="stroke:#000000; stroke-width:1.9139600000000001; fill:none" d="M 186.113 15.773L 191.851 15.773L 191.851 10.0308L 186.113 10.0308L 186.113 15.773z"/>
<path style="stroke:none; fill-rule:evenodd; fill:#5f5f5f" d="M 163.148 27.2573L 168.887 27.2573L 168.887 21.5151L 163.148 21.5151L 163.148 27.2573z"/>
<path style="stroke:#000000; stroke-width:1.9139600000000001; fill:none" d="M 163.148 27.2573L 168.887 27.2573L 168.887 21.5151L 163.148 21.5151L 163.148 27.2573z"/>
<path style="stroke:none; fill-rule:evenodd; fill:#5f5f5f" d="M 163.148 32.9995L 168.887 32.9995L 168.887 27.2573L 163.148 27.2573L 163.148 32.9995z"/>
<path style="stroke:#000000; stroke-width:1.9139600000000001; fill:none" d="M 163.148 32.9995L 168.887 32.9995L 168.887 27.2573L 163.148 27.2573L 163.148 32.9995z"/>
<path style="stroke:none; fill-rule:evenodd; fill:#5f5f5f" d="M 180.375 27.2573L 186.113 27.2573L 186.113 21.5151L 180.375 21.5151L 180.375 27.2573z"/>
<path style="stroke:#000000; stroke-width:1.9139600000000001; fill:none" d="M 180.375 27.2573L 186.113 27.2573L 186.113 21.5151L 180.375 21.5151L 180.375 27.2573z"/>
<path style="stroke:none; fill-rule:evenodd; fill:#5f5f5f" d="M 186.113 32.9995L 191.851 32.9995L 191.851 27.2573L 186.113 27.2573L 186.113 32.9995z"/>
<path style="stroke:#000000; stroke-width:1.9139600000000001; fill:none" d="M 186.113 32.9995L 191.851 32.9995L 191.851 27.2573L 186.113 27.2573L 186.113 32.9995z"/>
<path style="stroke:none; fill-rule:evenodd; fill:#5f5f5f" d="M 168.89 38.7417L 174.629 38.7417L 174.629 32.9995L 168.89 32.9995L 168.89 38.7417z"/>
<path style="stroke:#000000; stroke-width:1.9139600000000001; fill:none" d="M 168.89 38.7417L 174.629 38.7417L 174.629 32.9995L 168.89 32.9995L 168.89 38.7417z"/>
<path style="stroke:none; fill-rule:evenodd; fill:#5f5f5f" d="M 174.633 38.7417L 180.371 38.7417L 180.371 32.9995L 174.633 32.9995L 174.633 38.7417z"/>
<path style="stroke:#000000; stroke-width:1.9139600000000001; fill:none" d="M 174.633 38.7417L 180.371 38.7417L 180.371 32.9995L 174.633 32.9995L 174.633 38.7417z"/>
<path style="stroke:none; fill-rule:evenodd; fill:#5f5f5f" d="M 180.375 38.7417L 186.113 38.7417L 186.113 32.9995L 180.375 32.9995L 180.375 38.7417z"/>
<path style="stroke:#000000; stroke-width:1.9139600000000001; fill:none" d="M 180.375 38.7417L 186.113 38.7417L 186.113 32.9995L 180.375 32.9995L 180.375 38.7417z"/>
<path style="stroke:none; fill-rule:evenodd; fill:#5f5f5f" d="M 163.148 50.2222L 168.887 50.2222L 168.887 44.48L 163.148 44.48L 163.148 50.2222z"/>
<path style="stroke:#000000; stroke-width:1.9139600000000001; fill:none" d="M 163.148 50.2222L 168.887 50.2222L 168.887 44.48L 163.148 44.48L 163.148 50.2222z"/>
<path style="stroke:none; fill-rule:evenodd; fill:#5f5f5f" d="M 174.633 50.2222L 180.371 50.2222L 180.371 44.48L 174.633 44.48L 174.633 50.2222z"/>
<path style="stroke:#000000; stroke-width:1.9139600000000001; fill:none" d="M 174.633 50.2222L 180.371 50.2222L 180.371 44.48L 174.633 44.48L 174.633 50.2222z"/>
<path style="stroke:none; fill-rule:evenodd; fill:#5f5f5f" d="M 186.113 50.2222L 191.851 50.2222L 191.851 44.48L 186.113 44.48L 186.113 50.2222z"/>
<path style="stroke:#000000; stroke-width:1.9139600000000001; fill:none" d="M 186.113 50.2222L 191.851 50.2222L 191.851 44.48L 186.113 44.48L 186.113 50.2222z"/>
<path style="stroke:none; fill-rule:evenodd; fill:#5f5f5f" d="M 168.89 44.48L 174.629 44.48L 174.629 38.7378L 168.89 38.7378L 168.89 44.48z"/>
<path style="stroke:#000000; stroke-width:1.9139600000000001; fill:none" d="M 168.89 44.48L 174.629 44.48L 174.629 38.7378L 168.89 38.7378L 168.89 44.48z"/>
<path style="stroke:none; fill-rule:evenodd; fill:#5f5f5f" d="M 174.633 44.48L 180.371 44.48L 180.371 38.7378L 174.633 38.7378L 174.633 44.48z"/>
<path style="stroke:#000000; stroke-width:1.9139600000000001; fill:none" d="M 174.633 44.48L 180.371 44.48L 180.371 38.7378L 174.633 38.7378L 174.633 44.48z"/>
<path style="stroke:none; fill-rule:evenodd; fill:#5f5f5f" d="M 180.375 44.48L 186.113 44.48L 186.113 38.7378L 180.375 38.7378L 180.375 44.48z"/>
<path style="stroke:#000000; stroke-width:1.9139600000000001; fill:none" d="M 180.375 44.48L 186.113 44.48L 186.113 38.7378L 180.375 38.7378L 180.375 44.48z"/>
<path style="stroke:none; fill-rule:evenodd; fill:#ffffff" d="M 163.148 21.5151L 168.887 21.5151L 168.887 15.773L 163.148 15.773L 163.148 21.5151z"/>
<path style="stroke:#000000; stroke-width:1.9139600000000001; fill:none" d="M 163.148 21.5151L 168.887 21.5151L 168.887 15.773L 163.148 15.773L 163.148 21.5151z"/>
<path style="stroke:none; fill-rule:evenodd; fill:#ffffff" d="M 168.89 15.773L 174.629 15.773L 174.629 10.0308L 168.89 10.0308L 168.89 15.773z"/>
<path style="stroke:#000000; stroke-width:1.9139600000000001; fill:none" d="M 168.89 15.773L 174.629 15.773L 174.629 10.0308L 168.89 10.0308L 168.89 15.773z"/>
<path style="stroke:none; fill-rule:evenodd; fill:#ffffff" d="M 174.633 15.773L 180.371 15.773L 180.371 10.0308L 174.633 10.0308L 174.633 15.773z"/>
<path style="stroke:#000000; stroke-width:1.9139600000000001; fill:none" d="M 174.633 15.773L 180.371 15.773L 180.371 10.0308L 174.633 10.0308L 174.633 15.773z"/>
<path style="stroke:none; fill-rule:evenodd; fill:#ffffff" d="M 180.375 15.773L 186.113 15.773L 186.113 10.0308L 180.375 10.0308L 180.375 15.773z"/>
<path style="stroke:#000000; stroke-width:1.9139600000000001; fill:none" d="M 180.375 15.773L 186.113 15.773L 186.113 10.0308L 180.375 10.0308L 180.375 15.773z"/>
<path style="stroke:none; fill-rule:evenodd; fill:#ffffff" d="M 186.113 21.5151L 191.851 21.5151L 191.851 15.773L 186.113 15.773L 186.113 21.5151z"/>
<path style="stroke:#000000; stroke-width:1.9139600000000001; fill:none" d="M 186.113 21.5151L 191.851 21.5151L 191.851 15.773L 186.113 15.773L 186.113 21.5151z"/>
<path style="stroke:none; fill-rule:evenodd; fill:#ffffff" d="M 168.89 27.2573L 174.629 27.2573L 174.629 21.5151L 168.89 21.5151L 168.89 27.2573z"/>
<path style="stroke:#000000; stroke-width:1.9139600000000001; fill:none" d="M 168.89 27.2573L 174.629 27.2573L 174.629 21.5151L 168.89 21.5151L 168.89 27.2573z"/>
<path style="stroke:none; fill-rule:evenodd; fill:#ffffff" d="M 168.89 32.9995L 174.629 32.9995L 174.629 27.2573L 168.89 27.2573L 168.89 32.9995z"/>
<path style="stroke:#000000; stroke-width:1.9139600000000001; fill:none" d="M 168.89 32.9995L 174.629 32.9995L 174.629 27.2573L 168.89 27.2573L 168.89 32.9995z"/>
<path style="stroke:none; fill-rule:evenodd; fill:#ffffff" d="M 174.633 27.2573L 180.371 27.2573L 180.371 21.5151L 174.633 21.5151L 174.633 27.2573z"/>
<path style="stroke:#000000; stroke-width:1.9139600000000001; fill:none" d="M 174.633 27.2573L 180.371 27.2573L 180.371 21.5151L 174.633 21.5151L 174.633 27.2573z"/>
<path style="stroke:none; fill-rule:evenodd; fill:#ffffff" d="M 174.633 32.9995L 180.371 32.9995L 180.371 27.2573L 174.633 27.2573L 174.633 32.9995z"/>
<path style="stroke:#000000; stroke-width:1.9139600000000001; fill:none" d="M 174.633 32.9995L 180.371 32.9995L 180.371 27.2573L 174.633 27.2573L 174.633 32.9995z"/>
<path style="stroke:none; fill-rule:evenodd; fill:#ffffff" d="M 180.375 32.9995L 186.113 32.9995L 186.113 27.2573L 180.375 27.2573L 180.375 32.9995z"/>
<path style="stroke:#000000; stroke-width:1.9139600000000001; fill:none" d="M 180.375 32.9995L 186.113 32.9995L 186.113 27.2573L 180.375 27.2573L 180.375 32.9995z"/>
<path style="stroke:none; fill-rule:evenodd; fill:#ffffff" d="M 186.113 27.2573L 191.851 27.2573L 191.851 21.5151L 186.113 21.5151L 186.113 27.2573z"/>
<path style="stroke:#000000; stroke-width:1.9139600000000001; fill:none" d="M 186.113 27.2573L 191.851 27.2573L 191.851 21.5151L 186.113 21.5151L 186.113 27.2573z"/>
<path style="stroke:none; fill-rule:evenodd; fill:#ffffff" d="M 163.148 38.7417L 168.887 38.7417L 168.887 32.9995L 163.148 32.9995L 163.148 38.7417z"/>
<path style="stroke:#000000; stroke-width:1.9139600000000001; fill:none" d="M 163.148 38.7417L 168.887 38.7417L 168.887 32.9995L 163.148 32.9995L 163.148 38.7417z"/>
<path style="stroke:none; fill-rule:evenodd; fill:#ffffff" d="M 186.113 38.7417L 191.851 38.7417L 191.851 32.9995L 186.113 32.9995L 186.113 38.7417z"/>
<path style="stroke:#000000; stroke-width:1.9139600000000001; fill:none" d="M 186.113 38.7417L 191.851 38.7417L 191.851 32.9995L 186.113 32.9995L 186.113 38.7417z"/>
<path style="stroke:none; fill-rule:evenodd; fill:#ffffff" d="M 168.89 50.2222L 174.629 50.2222L 174.629 44.48L 168.89 44.48L 168.89 50.2222z"/>
<path style="stroke:#000000; stroke-width:1.9139600000000001; fill:none" d="M 168.89 50.2222L 174.629 50.2222L 174.629 44.48L 168.89 44.48L 168.89 50.2222z"/>
<path style="stroke:none; fill-rule:evenodd; fill:#ffffff" d="M 180.375 50.2222L 186.113 50.2222L 186.113 44.48L 180.375 44.48L 180.375 50.2222z"/>
<path style="stroke:#000000; stroke-width:1.9139600000000001; fill:none" d="M 180.375 50.2222L 186.113 50.2222L 186.113 44.48L 180.375 44.48L 180.375 50.2222z"/>
<path style="stroke:none; fill-rule:evenodd; fill:#ffffff" d="M 163.148 44.48L 168.887 44.48L 168.887 38.7378L 163.148 38.7378L 163.148 44.48z"/>
<path style="stroke:#000000; stroke-width:1.9139600000000001; fill:none" d="M 163.148 44.48L 168.887 44.48L 168.887 38.7378L 163.148 38.7378L 163.148 44.48z"/>
<path style="stroke:none; fill-rule:evenodd; fill:#ffffff" d="M 186.113 44.48L 191.851 44.48L 191.851 38.7378L 186.113 38.7378L 186.113 44.48z"/>
<path style="stroke:#000000; stroke-width:1.9139600000000001; fill:none" d="M 186.113 44.48L 191.851 44.48L 191.851 38.7378L 186.113 38.7378L 186.113 44.48z"/>
</g>
</svg>