<?xml version="1.0" encoding="ISO-8859-1" standalone="yes"?>
<svg width="510.093" height="425.106">
  <defs> 
    <marker id="ArrowEnd" viewBox="0 0 10 10" refX="0" refY="5" 
     markerUnits="strokeWidth" 
     markerWidth="4" 
     markerHeight="3" 
     orient="auto"> 
        <path d="M 0 0 L 10 5 L 0 10 z" /> 
    </marker>
    <marker id="ArrowStart" viewBox="0 0 10 10" refX="10" refY="5" 
     markerUnits="strokeWidth" 
     markerWidth="4" 
     markerHeight="3" 
     orient="auto"> 
        <path d="M 10 0 L 0 5 L 10 10 z" /> 
    </marker> </defs>
<g>
<path style="stroke:none; fill-rule:evenodd; fill:#dcdcdc" d="M 98.852 329.192L 122.84 329.192L 122.84 112.473L 98.852 112.473L 98.852 329.192z"/>
<path style="stroke:#dcdcdc; stroke-width:0.10000000000000001; fill:none" d="M 98.852 329.192L 122.84 329.192L 122.84 112.473L 98.852 112.473L 98.852 329.192z"/>
<path style="stroke:none; fill-rule:evenodd; fill:#dcdcdc" d="M 154.832 329.192L 178.82 329.192L 178.82 114.075L 154.832 114.075L 154.832 329.192z"/>
<path style="stroke:#dcdcdc; stroke-width:0.10000000000000001; fill:none" d="M 154.832 329.192L 178.82 329.192L 178.82 114.075L 154.832 114.075L 154.832 329.192z"/>
<path style="stroke:none; fill-rule:evenodd; fill:#dcdcdc" d="M 210.812 329.192L 234 329.192L 234 119.672L 210.812 119.672L 210.812 329.192z"/>
<path style="stroke:#dcdcdc; stroke-width:0.10000000000000001; fill:none" d="M 210.812 329.192L 234 329.192L 234 119.672L 210.812 119.672L 210.812 329.192z"/>
<path style="stroke:none; fill-rule:evenodd; fill:#dcdcdc" d="M 266.793 329.192L 289.98 329.192L 289.98 131.668L 266.793 131.668L 266.793 329.192z"/>
<path style="stroke:#dcdcdc; stroke-width:0.10000000000000001; fill:none" d="M 266.793 329.192L 289.98 329.192L 289.98 131.668L 266.793 131.668L 266.793 329.192z"/>
<path style="stroke:none; fill-rule:evenodd; fill:#dcdcdc" d="M 328.367 329.192L 351.555 329.192L 351.555 113.274L 328.367 113.274L 328.367 329.192z"/>
<path style="stroke:#dcdcdc; stroke-width:0.10000000000000001; fill:none" d="M 328.367 329.192L 351.555 329.192L 351.555 113.274L 328.367 113.274L 328.367 329.192z"/>
<path style="stroke:none; fill-rule:evenodd; fill:#dcdcdc" d="M 384.348 329.192L 407.535 329.192L 407.535 144.461L 384.348 144.461L 384.348 329.192z"/>
<path style="stroke:#dcdcdc; stroke-width:0.10000000000000001; fill:none" d="M 384.348 329.192L 407.535 329.192L 407.535 144.461L 384.348 144.461L 384.348 329.192z"/>
<path style="stroke:none; fill-rule:evenodd; fill:#dcdcdc" d="M 440.328 329.192L 463.516 329.192L 463.516 134.067L 440.328 134.067L 440.328 329.192z"/>
<path style="stroke:#dcdcdc; stroke-width:0.10000000000000001; fill:none" d="M 440.328 329.192L 463.516 329.192L 463.516 134.067L 440.328 134.067L 440.328 329.192z"/>
<path style="stroke:#000000; stroke-width:0.799705; fill:none" d="M 98.852 329.192L 122.84 329.192L 122.84 112.473L 98.852 112.473L 98.852 329.192z"/>
<path style="stroke:#000000; stroke-width:0.799705; fill:none" d="M 154.832 329.192L 178.82 329.192L 178.82 114.075L 154.832 114.075L 154.832 329.192z"/>
<path style="stroke:#000000; stroke-width:0.799705; fill:none" d="M 210.812 329.192L 234 329.192L 234 119.672L 210.812 119.672L 210.812 329.192z"/>
<path style="stroke:#000000; stroke-width:0.799705; fill:none" d="M 266.793 329.192L 289.98 329.192L 289.98 131.668L 266.793 131.668L 266.793 329.192z"/>
<path style="stroke:#000000; stroke-width:0.799705; fill:none" d="M 328.367 329.192L 351.555 329.192L 351.555 113.274L 328.367 113.274L 328.367 329.192z"/>
<path style="stroke:#000000; stroke-width:0.799705; fill:none" d="M 384.348 329.192L 407.535 329.192L 407.535 144.461L 384.348 144.461L 384.348 329.192z"/>
<path style="stroke:#000000; stroke-width:0.799705; fill:none" d="M 440.328 329.192L 463.516 329.192L 463.516 134.067L 440.328 134.067L 440.328 329.192z"/>
<path style="stroke:#000000; stroke-width:0.799705; fill:none" d="M 110.848 112.473L 110.848 110.875"/>
<path style="stroke:#000000; stroke-width:0.799705; fill:none" d="M 104.449 110.872L 117.242 110.872"/>
<path style="stroke:#000000; stroke-width:0.799705; fill:none" d="M 110.848 112.473L 110.848 113.27"/>
<path style="stroke:#000000; stroke-width:0.799705; fill:none" d="M 117.246 113.27L 104.453 113.27"/>
<path style="stroke:#000000; stroke-width:0.799705; fill:none" d="M 166.828 114.071L 166.828 112.473"/>
<path style="stroke:#000000; stroke-width:0.799705; fill:none" d="M 160.43 112.473L 173.223 112.473"/>
<path style="stroke:#000000; stroke-width:0.799705; fill:none" d="M 166.828 114.071L 166.828 114.868"/>
<path style="stroke:#000000; stroke-width:0.799705; fill:none" d="M 173.227 114.872L 160.434 114.872"/>
<path style="stroke:#000000; stroke-width:0.799705; fill:none" d="M 222.809 119.668L 222.809 114.872"/>
<path style="stroke:#000000; stroke-width:0.799705; fill:none" d="M 216.41 114.872L 228.402 114.872"/>
<path style="stroke:#000000; stroke-width:0.799705; fill:none" d="M 222.809 119.668L 222.809 123.664"/>
<path style="stroke:#000000; stroke-width:0.799705; fill:none" d="M 228.406 123.668L 216.414 123.668"/>
<path style="stroke:#000000; stroke-width:0.799705; fill:none" d="M 278.785 131.664L 278.785 110.075"/>
<path style="stroke:#000000; stroke-width:0.799705; fill:none" d="M 272.391 110.071L 284.383 110.071"/>
<path style="stroke:#000000; stroke-width:0.799705; fill:none" d="M 278.785 131.664L 278.785 154.055"/>
<path style="stroke:#000000; stroke-width:0.799705; fill:none" d="M 284.387 154.055L 272.395 154.055"/>
<path style="stroke:#000000; stroke-width:0.799705; fill:none" d="M 340.363 113.27L 340.363 106.075"/>
<path style="stroke:#000000; stroke-width:0.799705; fill:none" d="M 333.969 106.075L 345.961 106.075"/>
<path style="stroke:#000000; stroke-width:0.799705; fill:none" d="M 340.363 113.27L 340.363 119.664"/>
<path style="stroke:#000000; stroke-width:0.799705; fill:none" d="M 345.961 119.668L 333.969 119.668"/>
<path style="stroke:#000000; stroke-width:0.799705; fill:none" d="M 396.344 144.461L 396.344 124.469"/>
<path style="stroke:#000000; stroke-width:0.799705; fill:none" d="M 389.945 124.465L 401.937 124.465"/>
<path style="stroke:#000000; stroke-width:0.799705; fill:none" d="M 396.344 144.461L 396.344 164.454"/>
<path style="stroke:#000000; stroke-width:0.799705; fill:none" d="M 401.941 164.454L 389.949 164.454"/>
<path style="stroke:#000000; stroke-width:0.799705; fill:none" d="M 451.523 134.063L 451.523 112.473"/>
<path style="stroke:#000000; stroke-width:0.799705; fill:none" d="M 445.926 112.473L 457.918 112.473"/>
<path style="stroke:#000000; stroke-width:0.799705; fill:none" d="M 451.523 134.063L 451.523 154.852"/>
<path style="stroke:#000000; stroke-width:0.799705; fill:none" d="M 457.922 154.856L 445.93 154.856"/>
<path style="stroke:none; fill-rule:evenodd; fill:#000000" d="M 123.645 329.192L 146.832 329.192L 146.832 131.668L 123.645 131.668L 123.645 329.192z"/>
<path style="stroke:#000000; stroke-width:0.0; fill:none" d="M 123.645 329.192L 146.832 329.192L 146.832 131.668L 123.645 131.668L 123.645 329.192z"/>
<path style="stroke:none; fill-rule:evenodd; fill:#000000" d="M 179.625 329.192L 202.812 329.192L 202.812 175.649L 179.625 175.649L 179.625 329.192z"/>
<path style="stroke:#000000; stroke-width:0.0; fill:none" d="M 179.625 329.192L 202.812 329.192L 202.812 175.649L 179.625 175.649L 179.625 329.192z"/>
<path style="stroke:none; fill-rule:evenodd; fill:#000000" d="M 235.602 329.192L 258.789 329.192L 258.789 168.454L 235.602 168.454L 235.602 329.192z"/>
<path style="stroke:#000000; stroke-width:0.0; fill:none" d="M 235.602 329.192L 258.789 329.192L 258.789 168.454L 235.602 168.454L 235.602 329.192z"/>
<path style="stroke:none; fill-rule:evenodd; fill:#000000" d="M 290.781 329.192L 314.769 329.192L 314.769 197.243L 290.781 197.243L 290.781 329.192z"/>
<path style="stroke:#000000; stroke-width:0.0; fill:none" d="M 290.781 329.192L 314.769 329.192L 314.769 197.243L 290.781 197.243L 290.781 329.192z"/>
<path style="stroke:none; fill-rule:evenodd; fill:#000000" d="M 352.359 329.192L 376.348 329.192L 376.348 169.254L 352.359 169.254L 352.359 329.192z"/>
<path style="stroke:#000000; stroke-width:0.0; fill:none" d="M 352.359 329.192L 376.348 329.192L 376.348 169.254L 352.359 169.254L 352.359 329.192z"/>
<path style="stroke:none; fill-rule:evenodd; fill:#000000" d="M 408.34 329.192L 432.328 329.192L 432.328 204.438L 408.34 204.438L 408.34 329.192z"/>
<path style="stroke:#000000; stroke-width:0.0; fill:none" d="M 408.34 329.192L 432.328 329.192L 432.328 204.438L 408.34 204.438L 408.34 329.192z"/>
<path style="stroke:none; fill-rule:evenodd; fill:#000000" d="M 464.32 329.192L 487.508 329.192L 487.508 284.411L 464.32 284.411L 464.32 329.192z"/>
<path style="stroke:#000000; stroke-width:0.0; fill:none" d="M 464.32 329.192L 487.508 329.192L 487.508 284.411L 464.32 284.411L 464.32 329.192z"/>
<path style="stroke:#000000; stroke-width:0.799705; fill:none" d="M 123.645 329.192L 146.832 329.192L 146.832 131.668L 123.645 131.668L 123.645 329.192z"/>
<path style="stroke:#000000; stroke-width:0.799705; fill:none" d="M 179.625 329.192L 202.812 329.192L 202.812 175.649L 179.625 175.649L 179.625 329.192z"/>
<path style="stroke:#000000; stroke-width:0.799705; fill:none" d="M 235.602 329.192L 258.789 329.192L 258.789 168.454L 235.602 168.454L 235.602 329.192z"/>
<path style="stroke:#000000; stroke-width:0.799705; fill:none" d="M 290.781 329.192L 314.769 329.192L 314.769 197.243L 290.781 197.243L 290.781 329.192z"/>
<path style="stroke:#000000; stroke-width:0.799705; fill:none" d="M 352.359 329.192L 376.348 329.192L 376.348 169.254L 352.359 169.254L 352.359 329.192z"/>
<path style="stroke:#000000; stroke-width:0.799705; fill:none" d="M 408.34 329.192L 432.328 329.192L 432.328 204.438L 408.34 204.438L 408.34 329.192z"/>
<path style="stroke:#000000; stroke-width:0.799705; fill:none" d="M 464.32 329.192L 487.508 329.192L 487.508 284.411L 464.32 284.411L 464.32 329.192z"/>
<path style="stroke:#000000; stroke-width:0.799705; fill:none" d="M 134.84 131.664L 134.84 129.266"/>
<path style="stroke:#000000; stroke-width:0.799705; fill:none" d="M 129.242 129.266L 141.234 129.266"/>
<path style="stroke:#000000; stroke-width:0.799705; fill:none" d="M 134.84 131.664L 134.84 134.86"/>
<path style="stroke:#000000; stroke-width:0.799705; fill:none" d="M 141.238 134.864L 129.246 134.864"/>
<path style="stroke:#000000; stroke-width:0.799705; fill:none" d="M 190.82 175.649L 190.82 166.055"/>
<path style="stroke:#000000; stroke-width:0.799705; fill:none" d="M 185.223 166.051L 197.215 166.051"/>
<path style="stroke:#000000; stroke-width:0.799705; fill:none" d="M 190.82 175.649L 190.82 185.243"/>
<path style="stroke:#000000; stroke-width:0.799705; fill:none" d="M 197.219 185.247L 185.227 185.247"/>
<path style="stroke:#000000; stroke-width:0.799705; fill:none" d="M 246.801 168.45L 246.801 162.852"/>
<path style="stroke:#000000; stroke-width:0.799705; fill:none" d="M 241.199 162.852L 253.191 162.852"/>
<path style="stroke:#000000; stroke-width:0.799705; fill:none" d="M 246.801 168.45L 246.801 174.047"/>
<path style="stroke:#000000; stroke-width:0.799705; fill:none" d="M 253.195 174.047L 241.203 174.047"/>
<path style="stroke:#000000; stroke-width:0.799705; fill:none" d="M 302.777 197.239L 302.777 192.442"/>
<path style="stroke:#000000; stroke-width:0.799705; fill:none" d="M 297.18 192.442L 309.172 192.442"/>
<path style="stroke:#000000; stroke-width:0.799705; fill:none" d="M 302.777 197.239L 302.777 202.836"/>
<path style="stroke:#000000; stroke-width:0.799705; fill:none" d="M 309.176 202.836L 297.184 202.836"/>
<path style="stroke:#000000; stroke-width:0.799705; fill:none" d="M 364.355 169.25L 364.355 158.856"/>
<path style="stroke:#000000; stroke-width:0.799705; fill:none" d="M 357.957 158.852L 370.75 158.852"/>
<path style="stroke:#000000; stroke-width:0.799705; fill:none" d="M 364.355 169.25L 364.355 179.645"/>
<path style="stroke:#000000; stroke-width:0.799705; fill:none" d="M 370.754 179.649L 357.961 179.649"/>
<path style="stroke:#000000; stroke-width:0.799705; fill:none" d="M 420.336 204.438L 420.336 195.641"/>
<path style="stroke:#000000; stroke-width:0.799705; fill:none" d="M 413.937 195.641L 426.73 195.641"/>
<path style="stroke:#000000; stroke-width:0.799705; fill:none" d="M 420.336 204.438L 420.336 214.032"/>
<path style="stroke:#000000; stroke-width:0.799705; fill:none" d="M 426.734 214.036L 413.941 214.036"/>
<path style="stroke:#000000; stroke-width:0.799705; fill:none" d="M 476.312 284.407L 476.312 276.411"/>
<path style="stroke:#000000; stroke-width:0.799705; fill:none" d="M 469.918 276.411L 481.91 276.411"/>
<path style="stroke:#000000; stroke-width:0.799705; fill:none" d="M 476.312 284.407L 476.312 291.602"/>
<path style="stroke:#000000; stroke-width:0.799705; fill:none" d="M 481.91 291.606L 469.918 291.606"/>
<path style="stroke:#000000; stroke-width:0.799705; fill:none" d="M 122.844 329.192L 122.844 317.2"/>
<path style="stroke:#000000; stroke-width:0.799705; fill:none" d="M 122.844 34.899L 122.844 46.891"/>
<path style="stroke:#000000; stroke-width:0.799705; fill:none" d="M 178.824 329.192L 178.824 317.2"/>
<path style="stroke:#000000; stroke-width:0.799705; fill:none" d="M 178.824 34.899L 178.824 46.891"/>
<path style="stroke:#000000; stroke-width:0.799705; fill:none" d="M 234.805 329.192L 234.805 317.2"/>
<path style="stroke:#000000; stroke-width:0.799705; fill:none" d="M 234.805 34.899L 234.805 46.891"/>
<path style="stroke:#000000; stroke-width:0.799705; fill:none" d="M 290.781 329.192L 290.781 317.2"/>
<path style="stroke:#000000; stroke-width:0.799705; fill:none" d="M 290.781 34.899L 290.781 46.891"/>
<path style="stroke:#000000; stroke-width:0.799705; fill:none" d="M 352.359 329.192L 352.359 317.2"/>
<path style="stroke:#000000; stroke-width:0.799705; fill:none" d="M 352.359 34.899L 352.359 46.891"/>
<path style="stroke:#000000; stroke-width:0.799705; fill:none" d="M 408.34 329.192L 408.34 317.2"/>
<path style="stroke:#000000; stroke-width:0.799705; fill:none" d="M 408.34 34.899L 408.34 46.891"/>
<path style="stroke:#000000; stroke-width:0.799705; fill:none" d="M 464.32 329.192L 464.32 317.2"/>
<path style="stroke:#000000; stroke-width:0.799705; fill:none" d="M 464.32 34.899L 464.32 46.891"/>
<path style="stroke:none; fill-rule:evenodd; fill:#000000" d="M 61.125 393.528L 65.922 390.168C 67.113 389.332 67.809 388.317 68.113 387.012C 68.445 385.532 68.156 384.266 67.176 382.86C 65.164 379.993 62.336 379.567 59.3203 381.68L 53.0117 386.098L 63.715 401.375L 65.66 400.012L 61.125 393.528zM 59.922 391.809L 56.164 386.446L 60.227 383.598C 62.09 382.293 63.906 382.52 65.082 384.196C 66.254 385.871 65.848 387.657 63.988 388.961L 59.922 391.809z"/>
<path style="stroke:none; fill-rule:evenodd; fill:#000000" d="M 73.594 377.614C 70.516 379.77 70.191 383.278 72.777 386.965C 75.359 390.653 78.746 391.559 81.867 389.371C 84.945 387.215 85.293 383.692 82.766 380.086C 80.109 376.293 76.758 375.391 73.594 377.61L 73.594 377.614zM 74.742 379.211C 76.711 377.832 79.016 378.625 80.922 381.344C 82.727 383.918 82.656 386.407 80.73 387.758C 78.785 389.121 76.457 388.344 74.594 385.688C 72.746 383.047 72.793 380.579 74.738 379.211L 74.742 379.211z"/>
<path style="stroke:none; fill-rule:evenodd; fill:#000000" d="M 91.035 370.348C 89.504 368.207 87.227 367.989 84.691 369.766C 82.137 371.555 81.406 374.036 82.832 376.071C 84.035 377.789 85.488 377.989 88.527 376.797L 90.437 376.051C 91.855 375.496 92.648 375.598 93.207 376.391C 93.926 377.414 93.383 378.829 91.855 379.899C 90.914 380.559 89.926 380.844 89.164 380.692C 88.672 380.571 88.328 380.344 87.68 379.641L 85.836 380.93C 87.695 383.407 89.973 383.621 92.844 381.61C 95.609 379.672 96.414 377.079 94.93 374.961C 93.785 373.329 92.234 373.075 89.687 374.075L 87.734 374.848C 86.078 375.508 85.145 375.473 84.602 374.704C 83.898 373.7 84.344 372.418 85.766 371.418C 87.168 370.438 88.348 370.516 89.199 371.637L 91.035 370.348z"/>
<path style="stroke:none; fill-rule:evenodd; fill:#000000" d="M 95.535 362.692L 93.734 363.954L 91.621 360.938L 89.883 362.157L 91.996 365.172L 90.512 366.215L 91.508 367.637L 92.992 366.594L 98.805 374.891C 99.582 376 100.777 376.102 102.141 375.145C 102.559 374.852 102.949 374.516 103.461 374L 102.434 372.536C 102.25 372.758 101.992 372.969 101.656 373.204C 100.902 373.731 100.547 373.668 100.004 372.895L 94.734 365.372L 96.535 364.11L 95.535 362.692z"/>
<path style="stroke:none; fill-rule:evenodd; fill:#000000" d="M 111.019 360.868C 109.848 359.192 109.016 358.274 108.129 357.676C 106.156 356.375 103.715 356.461 101.66 357.895C 98.602 360.036 98.277 363.762 100.801 367.368C 103.324 370.969 106.789 371.856 109.867 369.696C 112.379 367.934 113.121 365.293 111.887 362.594L 110.129 363.825C 110.656 365.606 110.203 367.051 108.801 368.036C 107.691 368.813 106.398 368.969 105.164 368.457C 104.305 368.125 103.719 367.598 102.934 366.524L 111.019 360.868zM 101.977 365.079C 100.699 362.946 101.012 360.758 102.769 359.524C 104.484 358.321 106.805 358.821 108.066 360.622C 108.094 360.661 108.125 360.704 108.133 360.762L 101.977 365.079z"/>
<path style="stroke:none; fill-rule:evenodd; fill:#000000" d="M 109.156 353.207L 116.848 364.188L 118.605 362.957L 114.613 357.258C 113.516 355.688 113.191 354.383 113.605 353.188C 113.871 352.411 114.305 351.918 115.508 351.043L 114.262 349.262C 113.941 349.422 113.781 349.504 113.551 349.668C 112.422 350.461 112.031 351.731 112.172 354.071L 110.777 352.082L 109.156 353.207z"/>
<path style="stroke:none; fill-rule:evenodd; fill:#000000" d="M 117.855 347.118L 116.117 348.336L 123.809 359.317L 125.547 358.098L 117.855 347.118zM 114.844 342.821L 113.086 344.051L 114.625 346.25L 116.383 345.02L 114.844 342.821z"/>
<path style="stroke:none; fill-rule:evenodd; fill:#000000" d="M 124.793 341.711C 121.715 343.868 121.391 347.375 123.977 351.063C 126.559 354.75 129.945 355.657 133.066 353.469C 136.145 351.313 136.492 347.79 133.965 344.184C 131.309 340.391 127.957 339.489 124.793 341.707L 124.793 341.711zM 125.941 343.313C 127.91 341.934 130.215 342.727 132.121 345.446C 133.926 348.02 133.855 350.508 131.93 351.86C 129.984 353.223 127.656 352.446 125.793 349.79C 123.945 347.149 123.992 344.68 125.937 343.313L 125.941 343.313z"/>
<path style="stroke:none; fill-rule:evenodd; fill:#000000" d="M 132.457 336.809L 140.148 347.79L 141.906 346.559L 137.914 340.86C 136.816 339.29 136.492 337.985 136.906 336.79C 137.172 336.012 137.605 335.52 138.809 334.645L 137.562 332.864C 137.242 333.024 137.082 333.106 136.852 333.27C 135.723 334.063 135.332 335.332 135.473 337.672L 134.078 335.684L 132.457 336.809z"/>
<path style="stroke:none; fill-rule:evenodd; fill:#000000" d="M 133.426 377.528L 138.223 374.168C 139.414 373.332 140.109 372.317 140.414 371.012C 140.746 369.532 140.457 368.266 139.477 366.86C 137.465 363.993 134.637 363.567 131.621 365.68L 125.312 370.098L 136.016 385.375L 137.961 384.012L 133.426 377.528zM 132.219 375.809L 128.461 370.446L 132.523 367.598C 134.387 366.293 136.203 366.52 137.379 368.196C 138.551 369.872 138.145 371.657 136.285 372.961L 132.219 375.809z"/>
<path style="stroke:none; fill-rule:evenodd; fill:#000000" d="M 155.277 363.465L 150.941 366.5L 147.906 362.164L 146.441 363.192L 149.477 367.528L 145.141 370.563L 146.168 372.028L 150.504 368.993L 153.539 373.329L 155.004 372.301L 151.969 367.965L 156.305 364.93L 155.277 363.465z"/>
<path style="stroke:none; fill-rule:evenodd; fill:#000000" d="M 159.594 358.993L 164.621 355.469C 166.359 354.25 167.723 354.547 169.043 356.43L 169.977 357.805C 170.637 358.747 171.449 359.551 172.164 359.989L 174.531 358.332L 174.195 357.852C 173.109 357.86 172.582 357.422 171.117 355.418C 169.336 352.918 168.41 352.446 166.254 352.891C 167.383 350.852 167.324 349.297 166.109 347.559C 164.262 344.918 161.594 344.633 158.594 346.735L 151.555 351.668L 162.258 366.946L 164.203 365.582L 159.594 358.993zM 158.391 357.274L 154.707 352.016L 159.422 348.715C 160.512 347.954 161.258 347.68 162.031 347.762C 162.859 347.832 163.617 348.332 164.266 349.254C 165.527 351.055 165.176 352.52 163.105 353.973L 158.391 357.274z"/>
<path style="stroke:none; fill-rule:evenodd; fill:#000000" d="M 182.723 345.266C 181.551 343.59 180.719 342.672 179.832 342.075C 177.859 340.774 175.418 340.86 173.363 342.293C 170.305 344.434 169.98 348.161 172.504 351.766C 175.027 355.368 178.492 356.254 181.57 354.094C 184.082 352.332 184.824 349.692 183.59 346.993L 181.832 348.223C 182.359 350.004 181.906 351.45 180.504 352.434C 179.395 353.211 178.102 353.368 176.867 352.856C 176.008 352.524 175.422 351.997 174.637 350.922L 182.723 345.266zM 173.676 349.481C 172.398 347.348 172.711 345.161 174.469 343.926C 176.184 342.723 178.504 343.223 179.766 345.024C 179.793 345.063 179.824 345.106 179.832 345.164L 173.676 349.481z"/>
<path style="stroke:none; fill-rule:evenodd; fill:#000000" d="M 191.867 335.395C 191.039 334.387 190.32 333.856 189.477 333.543C 188.004 333.047 186.258 333.364 184.727 334.434C 181.773 336.504 181.488 340.2 184.043 343.848C 186.523 347.387 189.98 348.309 192.957 346.223C 195.574 344.387 196.129 341.657 194.461 338.829L 192.703 340.059C 193.641 342.024 193.355 343.536 191.875 344.579C 189.949 345.926 187.695 345.164 185.875 342.567C 183.953 339.825 183.941 337.395 185.848 336.059C 187.312 335.032 188.836 335.247 190.117 336.625L 191.867 335.395z"/>
<path style="stroke:none; fill-rule:evenodd; fill:#000000" d="M 195.125 382.325L 199.922 378.965C 201.113 378.129 201.809 377.114 202.113 375.809C 202.445 374.329 202.156 373.063 201.176 371.657C 199.164 368.79 196.336 368.364 193.32 370.477L 187.012 374.895L 197.715 390.172L 199.66 388.809L 195.125 382.325zM 193.922 380.61L 190.164 375.246L 194.227 372.399C 196.09 371.094 197.906 371.321 199.082 372.996C 200.254 374.672 199.848 376.457 197.988 377.762L 193.922 380.61z"/>
<path style="stroke:none; fill-rule:evenodd; fill:#000000" d="M 217.074 368.266L 212.738 371.301L 209.703 366.965L 208.238 367.993L 211.273 372.329L 206.937 375.364L 207.965 376.829L 212.301 373.793L 215.336 378.129L 216.801 377.102L 213.766 372.766L 218.102 369.731L 217.074 368.266z"/>
<path style="stroke:none; fill-rule:evenodd; fill:#000000" d="M 226.934 353.559C 224.816 350.579 221.543 350.278 218.023 352.747C 214.672 355.094 213.801 358.266 215.738 361.032C 217.043 362.895 218.852 363.379 221.23 362.493L 225.727 360.844C 228.004 359.997 229.43 360.157 230.266 361.348C 230.836 362.164 230.984 363.309 230.656 364.227C 230.344 365.071 229.543 365.977 228.305 366.84C 226.652 367.997 225.242 368.395 223.891 368.028C 222.855 367.754 222.09 367.2 221.453 366.243L 219.609 367.532C 220.613 368.918 221.531 369.649 222.727 370.063C 224.769 370.75 227.062 370.274 229.387 368.645C 231.207 367.372 232.402 365.907 232.859 364.461C 233.312 362.926 233.008 361.11 232.086 359.79C 230.766 357.907 228.625 357.344 226.152 358.231L 221.598 359.887C 219.402 360.672 218.32 360.559 217.5 359.387C 216.414 357.836 217.059 355.856 219.109 354.418C 221.539 352.715 223.68 352.872 225.094 354.844L 226.934 353.559z"/>
<path style="stroke:none; fill-rule:evenodd; fill:#000000" d="M 243.32 350.868C 242.148 349.192 241.316 348.274 240.43 347.676C 238.457 346.375 236.016 346.461 233.961 347.895C 230.902 350.036 230.578 353.762 233.102 357.368C 235.625 360.969 239.09 361.856 242.168 359.696C 244.68 357.934 245.422 355.293 244.187 352.594L 242.43 353.825C 242.957 355.606 242.504 357.051 241.102 358.036C 239.992 358.813 238.699 358.969 237.465 358.457C 236.605 358.125 236.019 357.598 235.234 356.524L 243.32 350.868zM 234.273 355.079C 232.996 352.946 233.309 350.758 235.066 349.524C 236.781 348.321 239.102 348.821 240.363 350.622C 240.391 350.661 240.422 350.704 240.43 350.762L 234.273 355.079z"/>
<path style="stroke:none; fill-rule:evenodd; fill:#000000" d="M 240.086 337.692L 238.328 338.922L 249.031 354.2L 250.789 352.969L 240.086 337.692z"/>
<path style="stroke:none; fill-rule:evenodd; fill:#000000" d="M 250.019 337.133L 248.199 338.407L 246.996 336.688C 246.484 335.957 246.641 335.286 247.434 334.727C 247.578 334.625 247.641 334.582 248.055 334.325L 247.043 332.879C 246.59 333.071 246.344 333.215 245.984 333.461C 244.371 334.59 244.055 336.188 245.156 337.758L 246.461 339.622L 244.996 340.649L 245.992 342.071L 247.457 341.043L 254.152 350.598L 255.891 349.379L 249.195 339.825L 251.016 338.547L 250.019 337.133z"/>
<path style="stroke:none; fill-rule:evenodd; fill:#000000" d="M 276.137 358.36C 274.019 355.379 270.746 355.079 267.227 357.547C 263.875 359.895 263.004 363.067 264.941 365.832C 266.246 367.696 268.055 368.18 270.434 367.293L 274.93 365.645C 277.207 364.797 278.633 364.957 279.469 366.149C 280.039 366.965 280.187 368.11 279.859 369.028C 279.547 369.872 278.746 370.778 277.508 371.641C 275.855 372.797 274.445 373.196 273.094 372.829C 272.059 372.555 271.293 372 270.656 371.043L 268.812 372.332C 269.816 373.719 270.734 374.45 271.93 374.864C 273.973 375.551 276.266 375.075 278.59 373.446C 280.41 372.172 281.605 370.707 282.062 369.262C 282.516 367.727 282.211 365.911 281.289 364.59C 279.969 362.707 277.828 362.145 275.355 363.032L 270.801 364.688C 268.605 365.473 267.523 365.36 266.703 364.188C 265.617 362.637 266.262 360.657 268.312 359.219C 270.742 357.516 272.883 357.672 274.297 359.645L 276.137 358.36z"/>
<path style="stroke:none; fill-rule:evenodd; fill:#000000" d="M 284.492 358.793L 289.519 355.27C 291.258 354.051 292.621 354.348 293.941 356.231L 294.875 357.606C 295.535 358.547 296.348 359.352 297.062 359.79L 299.43 358.133L 299.094 357.653C 298.008 357.661 297.48 357.223 296.016 355.219C 294.234 352.719 293.309 352.247 291.152 352.692C 292.281 350.653 292.223 349.098 291.008 347.36C 289.16 344.719 286.492 344.434 283.492 346.536L 276.453 351.469L 287.156 366.747L 289.102 365.383L 284.492 358.793zM 283.289 357.075L 279.605 351.817L 284.32 348.516C 285.41 347.754 286.156 347.481 286.93 347.563C 287.758 347.633 288.516 348.133 289.164 349.055C 290.426 350.856 290.074 352.321 288.004 353.774L 283.289 357.075z"/>
<path style="stroke:none; fill-rule:evenodd; fill:#000000" d="M 303.141 332.739L 301.297 334.028L 310.047 346.516L 293.312 339.622L 291.199 341.102L 301.902 356.379L 303.746 355.09L 295.07 342.704L 311.648 349.551L 313.848 348.012L 303.141 332.739z"/>
<path style="stroke:none; fill-rule:evenodd; fill:#000000" d="M 290.637 393.258C 288.519 390.278 285.246 389.977 281.727 392.446C 278.375 394.793 277.504 397.965 279.441 400.731C 280.746 402.594 282.555 403.079 284.934 402.192L 289.43 400.543C 291.707 399.696 293.133 399.856 293.969 401.047C 294.539 401.864 294.687 403.008 294.359 403.926C 294.047 404.77 293.246 405.676 292.008 406.539C 290.355 407.696 288.945 408.094 287.594 407.727C 286.559 407.454 285.793 406.899 285.156 405.942L 283.312 407.231C 284.316 408.618 285.234 409.348 286.43 409.762C 288.473 410.45 290.766 409.973 293.09 408.344C 294.91 407.071 296.105 405.606 296.562 404.161C 297.016 402.625 296.711 400.809 295.789 399.489C 294.469 397.606 292.328 397.043 289.855 397.93L 285.301 399.586C 283.105 400.371 282.023 400.258 281.203 399.086C 280.117 397.536 280.762 395.555 282.812 394.118C 285.242 392.414 287.383 392.571 288.797 394.543L 290.637 393.258z"/>
<path style="stroke:none; fill-rule:evenodd; fill:#000000" d="M 298.992 393.692L 304.019 390.168C 305.758 388.95 307.121 389.246 308.441 391.129L 309.375 392.504C 310.035 393.446 310.848 394.25 311.562 394.688L 313.93 393.032L 313.594 392.551C 312.508 392.559 311.98 392.121 310.516 390.118C 308.734 387.618 307.809 387.145 305.652 387.59C 306.781 385.551 306.723 383.996 305.508 382.258C 303.66 379.618 300.992 379.332 297.992 381.434L 290.953 386.368L 301.656 401.645L 303.602 400.282L 298.992 393.692zM 297.789 391.973L 294.105 386.715L 298.82 383.414C 299.91 382.653 300.656 382.379 301.43 382.461C 302.258 382.532 303.016 383.032 303.664 383.954C 304.926 385.754 304.574 387.219 302.504 388.672L 297.789 391.973z"/>
<path style="stroke:none; fill-rule:evenodd; fill:#000000" d="M 317.641 367.641L 315.797 368.93L 324.547 381.418L 307.812 374.524L 305.699 376.004L 316.402 391.282L 318.246 389.993L 309.57 377.606L 326.148 384.454L 328.348 382.914L 317.641 367.641z"/>
<path style="stroke:none; fill-rule:evenodd; fill:#000000" d="M 337.387 368.219L 326.824 375.618L 327.852 377.082L 338.414 369.684L 337.387 368.219z"/>
<path style="stroke:none; fill-rule:evenodd; fill:#000000" d="M 341.523 364.028L 346.32 360.668C 347.512 359.832 348.207 358.817 348.512 357.512C 348.844 356.032 348.555 354.766 347.574 353.36C 345.562 350.493 342.734 350.067 339.719 352.18L 333.41 356.598L 344.113 371.875L 346.059 370.512L 341.523 364.028zM 340.32 362.309L 336.562 356.946L 340.625 354.098C 342.488 352.793 344.305 353.02 345.48 354.696C 346.652 356.372 346.246 358.157 344.387 359.461L 340.32 362.309z"/>
<path style="stroke:none; fill-rule:evenodd; fill:#000000" d="M 355.168 353.758L 362.461 348.649L 361.258 346.93L 353.965 352.04L 350.547 347.157L 358.844 341.344L 357.641 339.625L 347.395 346.805L 358.098 362.082L 360.043 360.719L 355.168 353.758z"/>
<path style="stroke:none; fill-rule:evenodd; fill:#000000" d="M 375.492 334.141C 372.539 331.215 369.465 330.93 366.109 333.282C 364.059 334.719 362.855 336.528 362.605 338.579C 362.281 341.055 363.051 343.762 364.781 346.235C 366.543 348.747 368.828 350.364 371.316 350.836C 373.34 351.227 375.246 350.739 377.238 349.344C 380.969 346.731 381.652 343.25 379.281 338.883L 377.269 340.29C 377.832 341.454 378.125 342.313 378.234 343.141C 378.484 344.836 377.687 346.461 376.055 347.606C 373.019 349.735 369.387 348.653 366.715 344.84C 363.973 340.922 364.125 337.223 367.078 335.149C 368.312 334.286 369.73 333.856 370.769 334C 371.699 334.125 372.469 334.555 373.492 335.524L 375.492 334.141z"/>
<path style="stroke:none; fill-rule:evenodd; fill:#000000" d="M 361.441 367.54L 359.598 368.829L 368.348 381.317L 351.613 374.422L 349.5 375.903L 360.203 391.18L 362.047 389.891L 353.371 377.504L 369.949 384.352L 372.148 382.813L 361.441 367.54z"/>
<path style="stroke:none; fill-rule:evenodd; fill:#000000" d="M 371.492 366.414C 368.414 368.571 368.09 372.079 370.676 375.766C 373.258 379.454 376.645 380.36 379.766 378.172C 382.844 376.016 383.191 372.493 380.664 368.887C 378.008 365.094 374.656 364.192 371.492 366.411L 371.492 366.414zM 372.645 368.012C 374.613 366.633 376.918 367.426 378.824 370.145C 380.629 372.719 380.559 375.207 378.633 376.559C 376.687 377.922 374.359 377.145 372.496 374.489C 370.648 371.848 370.695 369.379 372.641 368.012L 372.645 368.012z"/>
<path style="stroke:none; fill-rule:evenodd; fill:#000000" d="M 394.613 355.024L 388.246 359.485L 389.449 361.204L 394.102 357.946L 394.395 358.364C 396.301 361.086 395.668 364.465 392.887 366.418C 391.336 367.504 389.535 367.922 387.945 367.567C 386.176 367.184 384.293 365.786 382.969 363.899C 380.344 360.149 380.746 356.18 383.973 353.918C 386.297 352.29 388.812 352.309 390.609 353.981L 392.598 352.586C 389.883 349.868 386.285 349.731 382.785 352.184C 380.922 353.489 379.75 355.028 379.246 356.852C 378.516 359.551 379.168 362.625 381.09 365.368C 384.375 370.059 389.539 371.317 393.668 368.426C 395.742 366.973 396.855 365.04 397.184 362.34L 399.086 364.032L 400.32 363.168L 394.613 355.024z"/>
<path style="stroke:none; fill-rule:evenodd; fill:#000000" d="M 412.199 353.223C 412.043 353.395 411.957 353.454 411.852 353.528C 411.246 353.954 410.691 353.872 410.309 353.332L 405.789 346.879C 404.426 344.934 402.266 344.883 399.562 346.778C 397.973 347.891 396.973 349.278 396.812 350.61C 396.707 351.528 396.934 352.301 397.656 353.422L 399.414 352.192C 398.621 350.75 398.992 349.582 400.625 348.438C 402.195 347.34 403.484 347.309 404.219 348.356L 404.539 348.817C 405.051 349.547 404.832 350.172 403.57 351.309C 401.32 353.356 401 353.704 400.519 354.446C 399.609 355.864 399.652 357.305 400.645 358.727C 402.039 360.715 404.301 361.004 406.523 359.45C 407.906 358.481 408.676 357.223 409.121 355.223C 410.023 356.243 410.922 356.364 412.051 355.571C 412.406 355.321 412.648 355.09 413.113 354.547L 412.199 353.223zM 407.434 352.934C 407.844 353.52 407.926 353.993 407.738 354.84C 407.484 355.989 406.859 356.926 405.832 357.645C 404.473 358.598 403.219 358.504 402.441 357.399C 401.637 356.247 402 355.118 403.672 353.54C 405.34 351.997 405.656 351.649 406.055 350.965L 407.434 352.934z"/>
<path style="stroke:none; fill-rule:evenodd; fill:#000000" d="M 411.035 339.192L 409.234 340.454L 407.121 337.438L 405.383 338.657L 407.496 341.672L 406.012 342.715L 407.008 344.137L 408.492 343.094L 414.305 351.391C 415.082 352.5 416.277 352.602 417.641 351.645C 418.059 351.352 418.449 351.016 418.961 350.5L 417.934 349.036C 417.75 349.258 417.492 349.469 417.156 349.704C 416.402 350.231 416.047 350.168 415.504 349.395L 410.234 341.872L 412.035 340.61L 411.035 339.192z"/>
<path style="stroke:none; fill-rule:evenodd; fill:#000000" d="M 426.519 337.465C 425.348 335.79 424.516 334.872 423.629 334.274C 421.656 332.973 419.215 333.059 417.16 334.493C 414.102 336.633 413.777 340.36 416.301 343.965C 418.824 347.567 422.289 348.454 425.367 346.293C 427.879 344.532 428.621 341.891 427.387 339.192L 425.629 340.422C 426.156 342.204 425.703 343.649 424.301 344.633C 423.191 345.411 421.898 345.567 420.664 345.055C 419.805 344.723 419.219 344.196 418.434 343.122L 426.519 337.465zM 417.477 341.68C 416.199 339.547 416.512 337.36 418.269 336.125C 419.984 334.922 422.305 335.422 423.566 337.223C 423.594 337.262 423.625 337.305 423.633 337.364L 417.477 341.68z"/>
<path style="stroke:none; fill-rule:evenodd; fill:#000000" d="M 449.367 361.059L 456.66 355.95L 455.457 354.231L 448.164 359.34L 444.746 354.457L 453.043 348.645L 451.84 346.926L 441.594 354.106L 452.297 369.383L 454.242 368.02L 449.367 361.059z"/>
<path style="stroke:none; fill-rule:evenodd; fill:#000000" d="M 473.309 354.625L 465.617 343.645L 463.879 344.864L 468.238 351.086C 469.809 353.329 469.66 355.618 467.844 356.895C 466.461 357.864 464.996 357.641 464.07 356.325L 458.625 348.551L 456.887 349.77L 462.816 358.235C 464.09 360.055 466.277 360.278 468.414 358.778C 470.027 357.649 470.656 356.364 470.672 354.2L 471.742 355.727L 473.309 354.625z"/>
<path style="stroke:none; fill-rule:evenodd; fill:#000000" d="M 467.285 336.094L 465.527 337.325L 476.23 352.602L 477.988 351.372L 467.285 336.094z"/>
<path style="stroke:none; fill-rule:evenodd; fill:#000000" d="M 471.988 332.793L 470.23 334.024L 480.934 349.301L 482.691 348.071L 471.988 332.793z"/>
<path style="stroke:none; fill-rule:evenodd; fill:#000000" d="M 158.004 424.504L 161.801 424.504L 161.801 405.805L 158.004 405.805L 158.004 418.539L 150.633 405.805L 146.707 405.805L 146.707 424.504L 150.504 424.504L 150.504 411.61L 158.004 424.504z"/>
<path style="stroke:none; fill-rule:evenodd; fill:#000000" d="M 171.129 410.504C 166.898 410.504 164.309 413.286 164.309 417.801C 164.309 422.344 166.898 425.098 171.156 425.098C 175.359 425.098 178.004 422.317 178.004 417.903C 178.004 413.235 175.461 410.504 171.129 410.504zM 171.156 413.403C 173.125 413.403 174.406 415.157 174.406 417.852C 174.406 420.418 173.078 422.2 171.156 422.2C 169.215 422.2 167.91 420.422 167.91 417.801C 167.91 415.184 169.215 413.403 171.156 413.403z"/>
<path style="stroke:none; fill-rule:evenodd; fill:#000000" d="M 192.004 417.805L 196.781 417.805C 200.203 417.805 202.402 415.375 202.402 411.59C 202.402 407.856 200.285 405.809 196.41 405.809L 188.203 405.809L 188.203 424.508L 192 424.508L 192.004 417.805zM 192.004 414.602L 192.004 409.004L 195.598 409.004C 197.652 409.004 198.602 409.899 198.602 411.817C 198.602 413.707 197.652 414.602 195.598 414.602L 192.004 414.602z"/>
<path style="stroke:none; fill-rule:evenodd; fill:#000000" d="M 208.906 416.504L 217.102 416.504L 217.102 413.305L 208.906 413.305L 208.906 409.008L 218.199 409.008L 218.199 405.809L 205.105 405.809L 205.105 424.508L 208.902 424.508L 208.906 416.504z"/>
<path style="stroke:none; fill-rule:evenodd; fill:#000000" d="M 236.359 412.168C 236.23 410.551 235.898 409.52 235.105 408.465C 233.672 406.563 231.367 405.508 228.574 405.508C 223.297 405.508 220.016 409.278 220.016 415.332C 220.016 421.332 223.269 425.106 228.469 425.106C 233.105 425.106 236.207 422.418 236.437 418.137L 232.684 418.137C 232.453 420.536 230.937 421.907 228.547 421.907C 225.566 421.907 223.816 419.496 223.816 415.411C 223.816 411.278 225.641 408.813 228.676 408.813C 230.012 408.813 231.117 409.274 231.836 410.172C 232.246 410.684 232.453 411.172 232.684 412.172L 236.359 412.168z"/>
<path style="stroke:none; fill-rule:evenodd; fill:#000000" d="M 385.406 417.805L 390.184 417.805C 393.605 417.805 395.805 415.375 395.805 411.59C 395.805 407.856 393.687 405.809 389.812 405.809L 381.605 405.809L 381.605 424.508L 385.402 424.508L 385.406 417.805zM 385.406 414.602L 385.406 409.004L 389 409.004C 391.055 409.004 392.004 409.899 392.004 411.817C 392.004 413.707 391.055 414.602 389 414.602L 385.406 414.602z"/>
<path style="stroke:none; fill-rule:evenodd; fill:#000000" d="M 402.406 416.504L 410.602 416.504L 410.602 413.305L 402.406 413.305L 402.406 409.008L 411.699 409.008L 411.699 405.809L 398.605 405.809L 398.605 424.508L 402.402 424.508L 402.406 416.504z"/>
<path style="stroke:none; fill-rule:evenodd; fill:#000000" d="M 429.758 412.168C 429.629 410.551 429.297 409.52 428.504 408.465C 427.07 406.563 424.766 405.508 421.973 405.508C 416.695 405.508 413.414 409.278 413.414 415.332C 413.414 421.332 416.668 425.106 421.867 425.106C 426.504 425.106 429.605 422.418 429.836 418.137L 426.082 418.137C 425.852 420.536 424.336 421.907 421.945 421.907C 418.965 421.907 417.215 419.496 417.215 415.411C 417.215 411.278 419.039 408.813 422.074 408.813C 423.41 408.813 424.516 409.274 425.234 410.172C 425.645 410.684 425.852 411.172 426.082 412.172L 429.758 412.168z"/>
<path style="stroke:#000000; stroke-width:0.799705; fill:none" d="M 81.262 317.196L 86.859 317.196"/>
<path style="stroke:#000000; stroke-width:0.799705; fill:none" d="M 505.902 317.196L 499.508 317.196"/>
<path style="stroke:#000000; stroke-width:0.799705; fill:none" d="M 81.262 305.2L 86.859 305.2"/>
<path style="stroke:#000000; stroke-width:0.799705; fill:none" d="M 505.902 305.2L 499.508 305.2"/>
<path style="stroke:#000000; stroke-width:0.799705; fill:none" d="M 81.262 292.407L 86.859 292.407"/>
<path style="stroke:#000000; stroke-width:0.799705; fill:none" d="M 505.902 292.407L 499.508 292.407"/>
<path style="stroke:#000000; stroke-width:0.799705; fill:none" d="M 81.262 280.411L 86.859 280.411"/>
<path style="stroke:#000000; stroke-width:0.799705; fill:none" d="M 505.902 280.411L 499.508 280.411"/>
<path style="stroke:#000000; stroke-width:0.799705; fill:none" d="M 81.262 268.414L 86.859 268.414"/>
<path style="stroke:#000000; stroke-width:0.799705; fill:none" d="M 505.902 268.414L 499.508 268.414"/>
<path style="stroke:#000000; stroke-width:0.799705; fill:none" d="M 81.262 243.622L 86.859 243.622"/>
<path style="stroke:#000000; stroke-width:0.799705; fill:none" d="M 505.902 243.622L 499.508 243.622"/>
<path style="stroke:#000000; stroke-width:0.799705; fill:none" d="M 81.262 231.629L 86.859 231.629"/>
<path style="stroke:#000000; stroke-width:0.799705; fill:none" d="M 505.902 231.629L 499.508 231.629"/>
<path style="stroke:#000000; stroke-width:0.799705; fill:none" d="M 81.262 218.832L 86.859 218.832"/>
<path style="stroke:#000000; stroke-width:0.799705; fill:none" d="M 505.902 218.832L 499.508 218.832"/>
<path style="stroke:#000000; stroke-width:0.799705; fill:none" d="M 81.262 206.836L 86.859 206.836"/>
<path style="stroke:#000000; stroke-width:0.799705; fill:none" d="M 505.902 206.836L 499.508 206.836"/>
<path style="stroke:#000000; stroke-width:0.799705; fill:none" d="M 81.262 194.84L 86.859 194.84"/>
<path style="stroke:#000000; stroke-width:0.799705; fill:none" d="M 505.902 194.84L 499.508 194.84"/>
<path style="stroke:#000000; stroke-width:0.799705; fill:none" d="M 81.262 170.051L 86.859 170.051"/>
<path style="stroke:#000000; stroke-width:0.799705; fill:none" d="M 505.902 170.051L 499.508 170.051"/>
<path style="stroke:#000000; stroke-width:0.799705; fill:none" d="M 81.262 157.254L 86.859 157.254"/>
<path style="stroke:#000000; stroke-width:0.799705; fill:none" d="M 505.902 157.254L 499.508 157.254"/>
<path style="stroke:#000000; stroke-width:0.799705; fill:none" d="M 81.262 145.258L 86.859 145.258"/>
<path style="stroke:#000000; stroke-width:0.799705; fill:none" d="M 505.902 145.258L 499.508 145.258"/>
<path style="stroke:#000000; stroke-width:0.799705; fill:none" d="M 81.262 133.262L 86.859 133.262"/>
<path style="stroke:#000000; stroke-width:0.799705; fill:none" d="M 505.902 133.262L 499.508 133.262"/>
<path style="stroke:#000000; stroke-width:0.799705; fill:none" d="M 81.262 120.469L 86.859 120.469"/>
<path style="stroke:#000000; stroke-width:0.799705; fill:none" d="M 505.902 120.469L 499.508 120.469"/>
<path style="stroke:#000000; stroke-width:0.799705; fill:none" d="M 81.262 96.477L 86.859 96.477"/>
<path style="stroke:#000000; stroke-width:0.799705; fill:none" d="M 505.902 96.477L 499.508 96.477"/>
<path style="stroke:#000000; stroke-width:0.799705; fill:none" d="M 81.262 83.68L 86.859 83.68"/>
<path style="stroke:#000000; stroke-width:0.799705; fill:none" d="M 505.902 83.68L 499.508 83.68"/>
<path style="stroke:#000000; stroke-width:0.799705; fill:none" d="M 81.262 71.688L 86.859 71.688"/>
<path style="stroke:#000000; stroke-width:0.799705; fill:none" d="M 505.902 71.688L 499.508 71.688"/>
<path style="stroke:#000000; stroke-width:0.799705; fill:none" d="M 81.262 59.692L 86.859 59.692"/>
<path style="stroke:#000000; stroke-width:0.799705; fill:none" d="M 505.902 59.692L 499.508 59.692"/>
<path style="stroke:#000000; stroke-width:0.799705; fill:none" d="M 81.262 46.895L 86.859 46.895"/>
<path style="stroke:#000000; stroke-width:0.799705; fill:none" d="M 505.902 46.895L 499.508 46.895"/>
<path style="stroke:#000000; stroke-width:0.799705; fill:none" d="M 81.262 329.192L 93.254 329.192"/>
<path style="stroke:#000000; stroke-width:0.799705; fill:none" d="M 505.902 329.192L 493.91 329.192"/>
<path style="stroke:#000000; stroke-width:0.799705; fill:none" d="M 81.262 255.618L 93.254 255.618"/>
<path style="stroke:#000000; stroke-width:0.799705; fill:none" d="M 505.902 255.618L 493.91 255.618"/>
<path style="stroke:#000000; stroke-width:0.799705; fill:none" d="M 81.262 182.047L 93.254 182.047"/>
<path style="stroke:#000000; stroke-width:0.799705; fill:none" d="M 505.902 182.047L 493.91 182.047"/>
<path style="stroke:#000000; stroke-width:0.799705; fill:none" d="M 81.262 108.473L 93.254 108.473"/>
<path style="stroke:#000000; stroke-width:0.799705; fill:none" d="M 505.902 108.473L 493.91 108.473"/>
<path style="stroke:#000000; stroke-width:0.799705; fill:none" d="M 81.262 34.899L 93.254 34.899"/>
<path style="stroke:#000000; stroke-width:0.799705; fill:none" d="M 505.902 34.899L 493.91 34.899"/>
<path style="stroke:none; fill-rule:evenodd; fill:#000000" d="M 69.152 317.403C 67.461 317.403 65.926 318.145 64.977 319.403C 63.801 320.985 63.211 323.411 63.211 326.754C 63.211 332.856 65.262 336.098 69.156 336.098C 73 336.098 75.105 332.856 75.105 326.907C 75.105 323.383 74.543 321.036 73.336 319.399C 72.391 318.118 70.875 317.399 69.156 317.399L 69.152 317.403zM 69.156 319.403C 71.598 319.403 72.805 321.848 72.805 326.688C 72.805 331.805 71.625 334.2 69.105 334.2C 66.715 334.2 65.508 331.707 65.508 326.762C 65.508 321.825 66.715 319.403 69.156 319.403z"/>
<path style="stroke:none; fill-rule:evenodd; fill:#000000" d="M 60.676 259.704L 51.1172 259.704C 51.3476 258.223 52.1679 257.278 54.3945 255.973L 56.957 254.594C 59.4922 253.215 60.801 251.352 60.801 249.125C 60.801 247.618 60.184 246.215 59.1093 245.243C 58.0351 244.274 56.7031 243.809 54.9843 243.809C 52.6797 243.809 50.9609 244.622 49.9609 246.145C 49.3203 247.11 49.039 248.227 48.9882 250.055L 51.2461 250.055C 51.3203 248.848 51.4765 248.122 51.7812 247.54C 52.3711 246.461 53.5508 245.805 54.9101 245.805C 56.9609 245.805 58.5 247.258 58.5 249.192C 58.5 250.618 57.6523 251.84 56.039 252.754L 53.6797 254.079C 49.8828 256.215 48.7812 257.922 48.5781 261.895L 60.676 261.895L 60.676 259.704z"/>
<path style="stroke:none; fill-rule:evenodd; fill:#000000" d="M 74.059 243.805L 64.719 243.805L 63.367 253.637L 65.434 253.637C 66.477 252.352 67.344 251.907 68.75 251.907C 71.172 251.907 72.703 253.579 72.703 256.282C 72.703 258.907 71.199 260.5 68.75 260.5C 66.785 260.5 65.59 259.5 65.051 257.45L 62.809 257.45C 63.113 258.934 63.367 259.653 63.906 260.321C 64.926 261.704 66.762 262.5 68.805 262.5C 72.453 262.5 75.008 259.829 75.008 255.973C 75.008 252.375 72.633 249.907 69.164 249.907C 67.891 249.907 66.867 250.254 65.824 251.055L 66.539 246.008L 74.066 246.008L 74.059 243.805z"/>
<path style="stroke:none; fill-rule:evenodd; fill:#000000" d="M 59.855 170.204L 50.5156 170.204L 49.164 180.036L 51.2304 180.036C 52.2734 178.75 53.1406 178.305 54.5468 178.305C 56.9687 178.305 58.5 179.977 58.5 182.68C 58.5 185.305 56.9961 186.899 54.5468 186.899C 52.582 186.899 51.3867 185.899 50.8476 183.848L 48.6054 183.848C 48.9101 185.332 49.164 186.051 49.7031 186.719C 50.7226 188.102 52.5586 188.899 54.6015 188.899C 58.25 188.899 60.805 186.227 60.805 182.372C 60.805 178.774 58.4297 176.305 54.9609 176.305C 53.6875 176.305 52.664 176.653 51.6211 177.454L 52.3359 172.407L 59.863 172.407L 59.855 170.204z"/>
<path style="stroke:none; fill-rule:evenodd; fill:#000000" d="M 68.953 170.204C 67.262 170.204 65.727 170.946 64.777 172.204C 63.602 173.786 63.012 176.211 63.012 179.555C 63.012 185.657 65.062 188.899 68.957 188.899C 72.801 188.899 74.906 185.657 74.906 179.707C 74.906 176.184 74.344 173.836 73.137 172.2C 72.191 170.918 70.676 170.2 68.957 170.2L 68.953 170.204zM 68.957 172.204C 71.398 172.204 72.605 174.649 72.605 179.489C 72.605 184.606 71.426 187 68.906 187C 66.516 187 65.309 184.508 65.309 179.563C 65.309 174.625 66.516 172.204 68.957 172.204z"/>
<path style="stroke:none; fill-rule:evenodd; fill:#000000" d="M 61.008 96.704L 48.9101 96.704L 48.9101 98.903L 58.6836 98.903C 54.3711 105.063 52.6132 108.844 51.2578 114.801L 53.6562 114.801C 54.6484 109.008 56.9218 104.032 61.008 98.59L 61.008 96.704z"/>
<path style="stroke:none; fill-rule:evenodd; fill:#000000" d="M 74.059 96.704L 64.719 96.704L 63.367 106.536L 65.434 106.536C 66.477 105.25 67.344 104.805 68.75 104.805C 71.172 104.805 72.703 106.477 72.703 109.18C 72.703 111.805 71.199 113.399 68.75 113.399C 66.785 113.399 65.59 112.399 65.051 110.348L 62.809 110.348C 63.113 111.832 63.367 112.551 63.906 113.219C 64.926 114.602 66.762 115.399 68.805 115.399C 72.453 115.399 75.008 112.727 75.008 108.872C 75.008 105.274 72.633 102.805 69.164 102.805C 67.891 102.805 66.867 103.153 65.824 103.954L 66.539 98.907L 74.066 98.907L 74.059 96.704z"/>
<path style="stroke:none; fill-rule:evenodd; fill:#000000" d="M 40.707 28.313L 40.707 41.204L 43.0039 41.204L 43.0039 23.106L 41.5156 23.106C 40.7226 25.887 40.207 26.27 36.7148 26.704L 36.7148 28.309L 40.707 28.313z"/>
<path style="stroke:none; fill-rule:evenodd; fill:#000000" d="M 55.3554 23.102C 53.664 23.102 52.1289 23.844 51.1797 25.102C 50.0039 26.684 49.414 29.11 49.414 32.454C 49.414 38.555 51.4648 41.797 55.3593 41.797C 59.2031 41.797 61.309 38.555 61.309 32.606C 61.309 29.082 60.746 26.735 59.539 25.098C 58.5937 23.817 57.0781 23.098 55.3593 23.098L 55.3554 23.102zM 55.3554 25.102C 57.7968 25.102 59.0039 27.547 59.0039 32.387C 59.0039 37.504 57.8242 39.899 55.3047 39.899C 52.914 39.899 51.707 37.407 51.707 32.461C 51.707 27.524 52.914 25.102 55.3554 25.102z"/>
<path style="stroke:none; fill-rule:evenodd; fill:#000000" d="M 69.555 23.102C 67.863 23.102 66.328 23.844 65.379 25.102C 64.203 26.684 63.613 29.11 63.613 32.454C 63.613 38.555 65.664 41.797 69.559 41.797C 73.402 41.797 75.508 38.555 75.508 32.606C 75.508 29.082 74.945 26.735 73.738 25.098C 72.793 23.817 71.277 23.098 69.559 23.098L 69.555 23.102zM 69.555 25.102C 71.996 25.102 73.203 27.547 73.203 32.387C 73.203 37.504 72.023 39.899 69.504 39.899C 67.113 39.899 65.906 37.407 65.906 32.461C 65.906 27.524 67.113 25.102 69.555 25.102z"/>
<path style="stroke:none; fill-rule:evenodd; fill:#000000" d="M 9.0039 309.411L 9.0039 316.891L 12.2031 316.891L 12.2031 312.641C 13.2382 312.743 13.8711 312.997 14.5273 313.563C 15.6367 314.485 16.2968 315.891 16.2968 317.375C 16.2968 320.473 13.5859 322.7 9.75 322.7C 5.7343 322.7 3.3008 320.731 3.3008 317.477C 3.3008 316.149 3.6836 315.02 4.4297 314.176C 4.8906 313.641 5.3281 313.36 6.3047 313.028L 6.3047 309.414C 2.4453 309.875 0 312.993 0 317.489C 0 322.852 3.9765 326.504 9.7968 326.504C 15.4648 326.504 19.5937 322.829 19.5937 317.793C 19.5937 315.29 18.7031 313.606 16.6093 312.176L 19.0586 311.719L 19.0586 309.418L 9.0039 309.411z"/>
<path style="stroke:none; fill-rule:evenodd; fill:#000000" d="M 13.207 294.293C 12.9062 294.27 12.7773 294.27 12.6015 294.27C 11.2343 294.27 9.9648 294.473 9 294.805C 6.5156 295.723 5.0156 297.95 5.0156 300.739C 5.0156 304.704 7.8711 307.133 12.4922 307.133C 16.9062 307.133 19.6093 304.731 19.6093 300.813C 19.6093 297.719 17.8398 295.211 15.1211 294.418L 15.1211 297.95C 16.25 298.383 16.9062 299.379 16.9062 300.684C 16.9062 301.704 16.4648 302.524 15.6836 303.036C 15.164 303.364 14.539 303.497 13.2109 303.547L 13.207 294.293zM 10.8047 303.508C 8.7422 303.282 7.707 302.383 7.707 300.797C 7.707 299.903 8.1328 299.082 8.8398 298.571C 9.3437 298.243 9.8711 298.086 10.8047 298.008L 10.8047 303.508z"/>
<path style="stroke:none; fill-rule:evenodd; fill:#000000" d="M 5.207 291.903L 19.0039 291.903L 19.0039 288.305L 10.7187 288.305C 9.082 288.305 8.0078 287.157 8.0078 285.414C 8.0078 283.879 8.8515 283.11 10.4882 283.11L 19.0039 283.11L 19.0039 279.512L 9.7773 279.512C 6.7461 279.512 5.0078 281.204 5.0078 284.153C 5.0078 286.024 5.6836 287.282 7.1836 288.305L 5.207 288.305L 5.207 291.903z"/>
<path style="stroke:none; fill-rule:evenodd; fill:#000000" d="M 13.207 264.395C 12.9062 264.372 12.7773 264.372 12.6015 264.372C 11.2343 264.372 9.9648 264.575 9 264.907C 6.5156 265.825 5.0156 268.051 5.0156 270.84C 5.0156 274.805 7.8711 277.235 12.4922 277.235C 16.9062 277.235 19.6093 274.832 19.6093 270.914C 19.6093 267.821 17.8398 265.313 15.1211 264.52L 15.1211 268.051C 16.25 268.485 16.9062 269.481 16.9062 270.786C 16.9062 271.805 16.4648 272.625 15.6836 273.137C 15.164 273.465 14.539 273.598 13.2109 273.649L 13.207 264.395zM 10.8047 273.606C 8.7422 273.379 7.707 272.481 7.707 270.895C 7.707 270 8.1328 269.18 8.8398 268.668C 9.3437 268.34 9.8711 268.184 10.8047 268.106L 10.8047 273.606z"/>
<path style="stroke:none; fill-rule:evenodd; fill:#000000" d="M 5.207 262.004L 19.0039 262.004L 19.0039 258.407L 11.7265 258.407C 9.6484 258.407 8.6093 257.36 8.6093 255.266C 8.6093 254.883 8.6093 254.629 8.6172 254.141L 5.0078 254.141C 5.0078 254.344 5.0078 254.469 5.0078 254.575C 5.0078 256.207 6.0625 257.641 7.8984 258.407L 5.207 258.407L 5.207 262.004z"/>
<path style="stroke:none; fill-rule:evenodd; fill:#000000" d="M 18.5859 240.196C 18 240.825 17.6172 241.004 16.9023 241.004L 9.2461 241.004C 6.4414 241.004 5.0117 242.926 5.0117 246.664C 5.0117 250.403 6.582 252.348 9.7461 252.579L 9.7461 249.118C 8.3593 248.942 7.9101 248.352 7.9101 246.582C 7.9101 245.2 8.3711 244.508 9.2851 244.508C 9.7422 244.508 10.1484 244.739 10.3515 245.122C 10.6054 245.606 10.6054 245.606 10.8867 247.379L 11.1406 248.817C 11.5976 251.563 13 252.899 15.4687 252.899C 16.6406 252.899 17.6093 252.567 18.2968 251.926C 19.1093 251.133 19.5937 249.93 19.5937 248.7C 19.5937 247.164 18.9336 245.758 17.6289 244.5C 18.3398 244.5 18.5976 244.426 19.0039 244.09L 19.0039 240.192L 18.5859 240.196zM 13.4531 244.504C 15.5234 244.504 16.7031 245.528 16.7031 247.352C 16.7031 248.555 16.0664 249.301 15.0429 249.301C 13.9687 249.301 13.457 248.739 13.1484 247.25L 12.9218 246.02C 12.7461 245.071 12.6953 244.918 12.4882 244.508L 13.4531 244.504z"/>
<path style="stroke:none; fill-rule:evenodd; fill:#000000" d="M 0.304699 237.704L 19.0039 237.704L 19.0039 234.106L 0.304699 234.106L 0.304699 237.704z"/>
<path style="stroke:none; fill-rule:evenodd; fill:#000000" d="M 5.1875 227.004L 5.1875 230.602L 19.0039 230.602L 19.0039 227.004L 5.1875 227.004zM 0.304699 227.004L 0.304699 230.602L 3.5039 230.602L 3.5039 227.004L 0.304699 227.004z"/>
<path style="stroke:none; fill-rule:evenodd; fill:#000000" d="M 5.207 213.457L 5.207 224.204L 8.1054 224.204L 8.1054 217.832L 16.1054 224.661L 19.0039 224.661L 19.0039 213.223L 16.1054 213.223L 16.1054 220.235L 8.1054 213.454L 5.207 213.457z"/>
<path style="stroke:none; fill-rule:evenodd; fill:#000000" d="M 18.5859 198.997C 18 199.625 17.6172 199.805 16.9023 199.805L 9.2461 199.805C 6.4414 199.805 5.0117 201.727 5.0117 205.465C 5.0117 209.204 6.582 211.149 9.7461 211.379L 9.7461 207.918C 8.3593 207.743 7.9101 207.153 7.9101 205.383C 7.9101 204 8.3711 203.309 9.2851 203.309C 9.7422 203.309 10.1484 203.54 10.3515 203.922C 10.6054 204.407 10.6054 204.407 10.8867 206.18L 11.1406 207.618C 11.5976 210.364 13 211.7 15.4687 211.7C 16.6406 211.7 17.6093 211.368 18.2968 210.727C 19.1093 209.934 19.5937 208.731 19.5937 207.5C 19.5937 205.965 18.9336 204.559 17.6289 203.301C 18.3398 203.301 18.5976 203.227 19.0039 202.891L 19.0039 198.993L 18.5859 198.997zM 13.4531 203.305C 15.5234 203.305 16.7031 204.329 16.7031 206.153C 16.7031 207.356 16.0664 208.102 15.0429 208.102C 13.9687 208.102 13.457 207.54 13.1484 206.051L 12.9218 204.821C 12.7461 203.872 12.6953 203.719 12.4882 203.309L 13.4531 203.305z"/>
<path style="stroke:none; fill-rule:evenodd; fill:#000000" d="M 5.5039 190.5L 5.5039 192.5L 1.7578 192.5L 1.7578 196.098L 5.5039 196.098L 5.5039 197.836L 7.9023 197.836L 7.9023 196.098L 16.3632 196.098C 18.5273 196.098 19.5976 194.946 19.5976 192.579C 19.5976 191.786 19.5234 191.141 19.3164 190.5L 16.8008 190.5C 16.8672 190.856 16.8984 191.063 16.8984 191.321C 16.8984 192.27 16.6211 192.5 15.3945 192.5L 7.9023 192.5L 7.9023 190.5L 5.5039 190.5z"/>
<path style="stroke:none; fill-rule:evenodd; fill:#000000" d="M 5.1875 184.305L 5.1875 187.903L 19.0039 187.903L 19.0039 184.305L 5.1875 184.305zM 0.304699 184.305L 0.304699 187.903L 3.5039 187.903L 3.5039 184.305L 0.304699 184.305z"/>
<path style="stroke:none; fill-rule:evenodd; fill:#000000" d="M 5.0039 174.782C 5.0039 179.012 7.7851 181.602 12.3008 181.602C 16.8437 181.602 19.5976 179.012 19.5976 174.754C 19.5976 170.551 16.8164 167.907 12.4023 167.907C 7.7343 167.907 5.0039 170.45 5.0039 174.782zM 7.9062 174.754C 7.9062 172.786 9.6601 171.504 12.3554 171.504C 14.9218 171.504 16.7031 172.832 16.7031 174.754C 16.7031 176.696 14.9258 178 12.3047 178C 9.6875 178 7.9062 176.696 7.9062 174.754z"/>
<path style="stroke:none; fill-rule:evenodd; fill:#000000" d="M 5.207 165.305L 19.0039 165.305L 19.0039 161.707L 10.7187 161.707C 9.082 161.707 8.0078 160.559 8.0078 158.817C 8.0078 157.282 8.8515 156.512 10.4882 156.512L 19.0039 156.512L 19.0039 152.914L 9.7773 152.914C 6.7461 152.914 5.0078 154.606 5.0078 157.555C 5.0078 159.426 5.6836 160.684 7.1836 161.707L 5.207 161.707L 5.207 165.305z"/>
<path style="stroke:none; fill-rule:evenodd; fill:#000000" d="M 11.0039 138.305L 11.0039 129.317L 7.8047 129.317L 7.8047 138.305L 3.5078 138.305L 3.5078 128.598L 0.308601 128.598L 0.308601 142.106L 19.0078 142.106L 19.0078 128.137L 15.8086 128.137L 15.8086 138.305L 11.0039 138.305z"/>
<path style="stroke:none; fill-rule:evenodd; fill:#000000" d="M 5.207 125.504L 19.0039 125.504L 19.0039 121.907L 11.7265 121.907C 9.6484 121.907 8.6093 120.86 8.6093 118.766C 8.6093 118.383 8.6093 118.129 8.6172 117.641L 5.0078 117.641C 5.0078 117.844 5.0078 117.969 5.0078 118.075C 5.0078 119.707 6.0625 121.141 7.8984 121.907L 5.207 121.907L 5.207 125.504z"/>
<path style="stroke:none; fill-rule:evenodd; fill:#000000" d="M 5.207 115.504L 19.0039 115.504L 19.0039 111.907L 11.7265 111.907C 9.6484 111.907 8.6093 110.86 8.6093 108.766C 8.6093 108.383 8.6093 108.129 8.6172 107.641L 5.0078 107.641C 5.0078 107.844 5.0078 107.969 5.0078 108.075C 5.0078 109.707 6.0625 111.141 7.8984 111.907L 5.207 111.907L 5.207 115.504z"/>
<path style="stroke:none; fill-rule:evenodd; fill:#000000" d="M 5.0039 99.481C 5.0039 103.711 7.7851 106.301 12.3008 106.301C 16.8437 106.301 19.5976 103.711 19.5976 99.454C 19.5976 95.25 16.8164 92.606 12.4023 92.606C 7.7343 92.606 5.0039 95.149 5.0039 99.481zM 7.9062 99.454C 7.9062 97.485 9.6601 96.204 12.3554 96.204C 14.9218 96.204 16.7031 97.532 16.7031 99.454C 16.7031 101.395 14.9258 102.7 12.3047 102.7C 9.6875 102.7 7.9062 101.395 7.9062 99.454z"/>
<path style="stroke:none; fill-rule:evenodd; fill:#000000" d="M 5.207 89.903L 19.0039 89.903L 19.0039 86.305L 11.7265 86.305C 9.6484 86.305 8.6093 85.258 8.6093 83.164C 8.6093 82.782 8.6093 82.528 8.6172 82.04L 5.0078 82.04C 5.0078 82.243 5.0078 82.368 5.0078 82.473C 5.0078 84.106 6.0625 85.54 7.8984 86.305L 5.207 86.305L 5.207 89.903z"/>
<path style="stroke:none; fill-rule:evenodd; fill:#000000" d="M 0.304699 69.219C 4.7422 72.168 8.2812 73.403 12.1992 73.403C 16.1445 73.403 19.6836 72.172 24.1172 69.219L 24.1172 66.653C 18.8398 69.418 15.9687 70.305 12.1992 70.305C 8.457 70.305 5.5351 69.418 0.304699 66.653L 0.304699 69.219z"/>
<path style="stroke:none; fill-rule:evenodd; fill:#000000" d="M 1.1054 60.606C 1.1054 63.184 3.1992 65.305 5.7539 65.305C 8.3086 65.305 10.4023 63.188 10.4023 60.606C 10.4023 58.055 8.3086 55.907 5.8047 55.907C 3.1758 55.907 1.1054 57.973 1.1054 60.606zM 3.6054 60.606C 3.6054 59.391 4.5586 58.407 5.7656 58.407C 6.9218 58.407 7.9023 59.414 7.9023 60.606C 7.9023 61.821 6.9258 62.805 5.7422 62.805C 4.5859 62.805 3.6054 61.825 3.6054 60.606zM 0.859303 50.395L 19.5039 60.528L 19.5039 58.559L 0.859303 48.454L 0.859303 50.395zM 10.0039 48.504C 10.0039 51.082 12.0937 53.204 14.6406 53.204C 17.2109 53.204 19.3008 51.086 19.3008 48.504C 19.3008 45.95 17.2148 43.805 14.7148 43.805C 12.0664 43.805 10 45.872 10 48.504L 10.0039 48.504zM 12.5312 48.528C 12.5312 47.329 13.5 46.356 14.7031 46.356C 15.8515 46.356 16.8242 47.352 16.8242 48.528C 16.8242 49.727 15.8515 50.7 14.6758 50.7C 13.5 50.7 12.5273 49.727 12.5273 48.528L 12.5312 48.528z"/>
<path style="stroke:none; fill-rule:evenodd; fill:#000000" d="M 24.125 40.079C 19.6914 37.137 16.1562 35.903 12.2343 35.903C 8.289 35.903 4.75 37.129 0.3125 40.079L 0.3125 42.637C 5.5937 39.887 8.4648 39 12.2343 39C 15.9765 39 18.8984 39.883 24.125 42.637L 24.125 40.079z"/>
<path style="stroke:#000000; stroke-width:0.799705; fill:none" d="M 81.262 329.192L 505.902 329.192L 505.902 34.903L 81.262 34.903L 81.262 329.192z"/>
<path style="stroke:none; fill-rule:evenodd; fill:#ffffff" d="M 93.254 98.875L 260.391 98.875L 260.391 48.497L 93.254 48.497L 93.254 98.875z"/>
<path style="stroke:#ffffff; stroke-width:0.0; fill:none" d="M 93.254 98.875L 260.391 98.875L 260.391 48.497L 93.254 48.497L 93.254 98.875z"/>
<path style="stroke:#000000; stroke-width:0.799705; fill:none" d="M 93.254 98.875L 260.391 98.875L 260.391 48.497L 93.254 48.497L 93.254 98.875z"/>
<path style="stroke:none; fill-rule:evenodd; fill:#000000" d="M 161.605 53.204L 166.809 53.204L 166.809 51.407L 154.461 51.407L 154.461 53.204L 159.605 53.204L 159.605 67.102L 161.605 67.102L 161.605 53.204z"/>
<path style="stroke:none; fill-rule:evenodd; fill:#000000" d="M 178.758 66.047C 178.566 66.106 178.48 66.106 178.375 66.106C 177.754 66.106 177.41 65.786 177.41 65.223L 177.41 58.59C 177.41 56.586 175.941 55.512 173.152 55.512C 171.512 55.512 170.148 55.981 169.395 56.813C 168.879 57.387 168.66 58.028 168.617 59.141L 170.43 59.141C 170.578 57.813 171.398 57.211 173.082 57.211C 174.699 57.211 175.605 57.809 175.605 58.883L 175.605 59.352C 175.605 60.102 175.152 60.422 173.727 60.594C 171.18 60.914 170.789 61 170.098 61.278C 168.781 61.813 168.113 62.821 168.113 64.278C 168.113 66.313 169.539 67.598 171.828 67.598C 173.254 67.598 174.398 67.102 175.672 65.934C 175.801 67.079 176.359 67.598 177.527 67.598C 177.891 67.598 178.172 67.555 178.758 67.407L 178.758 66.047zM 175.605 63.532C 175.605 64.133 175.43 64.497 174.883 64.993C 174.141 65.657 173.242 66 172.168 66C 170.746 66 169.91 65.336 169.91 64.196C 169.91 63.016 170.719 62.414 172.672 62.133C 174.598 61.875 174.992 61.79 175.609 61.512L 175.605 63.532z"/>
<path style="stroke:none; fill-rule:evenodd; fill:#000000" d="M 188.66 58.942C 188.641 56.743 187.187 55.504 184.602 55.504C 181.996 55.504 180.309 56.856 180.309 58.934C 180.309 60.692 181.211 61.528 183.883 62.168L 185.562 62.575C 186.809 62.872 187.305 63.325 187.305 64.137C 187.305 65.188 186.238 65.895 184.648 65.895C 183.668 65.895 182.84 65.622 182.383 65.153C 182.102 64.836 181.973 64.516 181.863 63.731L 179.945 63.731C 180.031 66.344 181.496 67.598 184.449 67.598C 187.293 67.598 189.105 66.207 189.105 64.04C 189.105 62.368 188.16 61.446 185.918 60.911L 184.195 60.504C 182.734 60.164 182.109 59.692 182.109 58.899C 182.109 57.872 183.035 57.207 184.5 57.207C 185.941 57.207 186.719 57.805 186.762 58.946L 188.66 58.942z"/>
<path style="stroke:none; fill-rule:evenodd; fill:#000000" d="M 193.004 51.403L 191.207 51.403L 191.207 67.102L 193.004 67.102L 193.004 62.7L 194.762 60.973L 198.602 67.102L 200.836 67.102L 196.191 59.707L 200.141 55.805L 197.82 55.805L 193.004 60.582L 193.004 51.403z"/>
<path style="stroke:none; fill-rule:evenodd; fill:#000000" d="M 210.805 60.403L 215.723 60.403C 216.945 60.403 217.91 60.04 218.75 59.29C 219.691 58.434 220.102 57.426 220.102 55.993C 220.102 53.059 218.363 51.407 215.269 51.407L 208.805 51.407L 208.805 67.106L 210.805 67.106L 210.805 60.403zM 210.805 58.602L 210.805 53.204L 214.957 53.204C 216.863 53.204 218 54.215 218 55.903C 218 57.586 216.867 58.602 214.957 58.602L 210.805 58.602z"/>
<path style="stroke:none; fill-rule:evenodd; fill:#000000" d="M 232.758 66.047C 232.566 66.106 232.48 66.106 232.375 66.106C 231.754 66.106 231.41 65.786 231.41 65.223L 231.41 58.59C 231.41 56.586 229.941 55.512 227.152 55.512C 225.512 55.512 224.148 55.981 223.395 56.813C 222.879 57.387 222.66 58.028 222.617 59.141L 224.43 59.141C 224.578 57.813 225.398 57.211 227.082 57.211C 228.699 57.211 229.605 57.809 229.605 58.883L 229.605 59.352C 229.605 60.102 229.152 60.422 227.727 60.594C 225.18 60.914 224.789 61 224.098 61.278C 222.781 61.813 222.113 62.821 222.113 64.278C 222.113 66.313 223.539 67.598 225.828 67.598C 227.254 67.598 228.398 67.102 229.672 65.934C 229.801 67.079 230.359 67.598 231.527 67.598C 231.891 67.598 232.172 67.555 232.758 67.407L 232.758 66.047zM 229.605 63.532C 229.605 64.133 229.43 64.497 228.883 64.993C 228.141 65.657 227.242 66 226.168 66C 224.746 66 223.91 65.336 223.91 64.196C 223.91 63.016 224.719 62.414 226.672 62.133C 228.598 61.875 228.992 61.79 229.609 61.512L 229.605 63.532z"/>
<path style="stroke:none; fill-rule:evenodd; fill:#000000" d="M 236.406 55.805L 234.609 55.805L 234.609 67.102L 236.406 67.102L 236.406 55.805zM 236.406 51.403L 234.609 51.403L 234.609 53.629L 236.406 53.629L 236.406 51.403z"/>
<path style="stroke:none; fill-rule:evenodd; fill:#000000" d="M 239.504 55.829L 239.504 67.102L 241.301 67.102L 241.301 61.254C 241.301 59.645 241.711 58.59 242.574 57.965C 243.133 57.559 243.676 57.43 244.93 57.407L 244.93 55.575C 244.633 55.532 244.484 55.512 244.25 55.512C 243.102 55.512 242.227 56.2 241.203 57.879L 241.203 55.836L 239.504 55.829z"/>
<path style="stroke:none; fill-rule:evenodd; fill:#000000" d="M 254.66 58.942C 254.641 56.743 253.187 55.504 250.602 55.504C 247.996 55.504 246.309 56.856 246.309 58.934C 246.309 60.692 247.211 61.528 249.883 62.168L 251.562 62.575C 252.809 62.872 253.305 63.325 253.305 64.137C 253.305 65.188 252.238 65.895 250.648 65.895C 249.668 65.895 248.84 65.622 248.383 65.153C 248.102 64.836 247.973 64.516 247.863 63.731L 245.945 63.731C 246.031 66.344 247.496 67.598 250.449 67.598C 253.293 67.598 255.105 66.207 255.105 64.04C 255.105 62.368 254.16 61.446 251.918 60.911L 250.195 60.504C 248.734 60.164 248.109 59.692 248.109 58.899C 248.109 57.872 249.035 57.207 250.5 57.207C 251.941 57.207 252.719 57.805 252.762 58.946L 254.66 58.942z"/>
<path style="stroke:none; fill-rule:evenodd; fill:#dcdcdc" d="M 111.133 70.086L 135.121 70.086L 135.121 54.895L 111.133 54.895L 111.133 70.086z"/>
<path style="stroke:#dcdcdc; stroke-width:0.0; fill:none" d="M 111.133 70.086L 135.121 70.086L 135.121 54.895L 111.133 54.895L 111.133 70.086z"/>
<path style="stroke:#000000; stroke-width:0.799705; fill:none" d="M 111.133 70.086L 135.121 70.086L 135.121 54.895L 111.133 54.895L 111.133 70.086z"/>
<path style="stroke:none; fill-rule:evenodd; fill:#000000" d="M 164.238 84.805L 165.855 89.5L 168.098 89.5L 162.57 73.801L 159.98 73.801L 154.367 89.5L 156.504 89.5L 158.164 84.805L 164.238 84.805zM 163.68 83.106L 158.672 83.106L 161.262 75.926L 163.68 83.106z"/>
<path style="stroke:none; fill-rule:evenodd; fill:#000000" d="M 169.906 89.504L 171.703 89.504L 171.703 73.805L 169.906 73.805L 169.906 89.504z"/>
<path style="stroke:none; fill-rule:evenodd; fill:#000000" d="M 174.707 89.504L 176.504 89.504L 176.504 73.805L 174.707 73.805L 174.707 89.504z"/>
<path style="stroke:none; fill-rule:evenodd; fill:#000000" d="M 191.605 75.602L 196.809 75.602L 196.809 73.805L 184.461 73.805L 184.461 75.602L 189.605 75.602L 189.605 89.5L 191.605 89.5L 191.605 75.602z"/>
<path style="stroke:none; fill-rule:evenodd; fill:#000000" d="M 208.758 88.446C 208.566 88.504 208.48 88.504 208.375 88.504C 207.754 88.504 207.41 88.184 207.41 87.622L 207.41 80.989C 207.41 78.985 205.941 77.911 203.152 77.911C 201.512 77.911 200.148 78.379 199.395 79.211C 198.879 79.786 198.66 80.426 198.617 81.54L 200.43 81.54C 200.578 80.211 201.398 79.61 203.082 79.61C 204.699 79.61 205.605 80.207 205.605 81.282L 205.605 81.75C 205.605 82.5 205.152 82.821 203.727 82.993C 201.18 83.313 200.789 83.399 200.098 83.676C 198.781 84.211 198.113 85.219 198.113 86.676C 198.113 88.711 199.539 89.997 201.828 89.997C 203.254 89.997 204.398 89.5 205.672 88.332C 205.801 89.477 206.359 89.997 207.527 89.997C 207.891 89.997 208.172 89.954 208.758 89.805L 208.758 88.446zM 205.605 85.934C 205.605 86.536 205.43 86.899 204.883 87.395C 204.141 88.059 203.242 88.403 202.168 88.403C 200.746 88.403 199.91 87.739 199.91 86.598C 199.91 85.418 200.719 84.817 202.672 84.536C 204.598 84.278 204.992 84.192 205.609 83.914L 205.605 85.934z"/>
<path style="stroke:none; fill-rule:evenodd; fill:#000000" d="M 218.66 81.34C 218.641 79.141 217.187 77.903 214.602 77.903C 211.996 77.903 210.309 79.254 210.309 81.332C 210.309 83.09 211.211 83.926 213.883 84.567L 215.562 84.973C 216.809 85.27 217.305 85.723 217.305 86.536C 217.305 87.586 216.238 88.293 214.648 88.293C 213.668 88.293 212.84 88.02 212.383 87.551C 212.102 87.235 211.973 86.914 211.863 86.129L 209.945 86.129C 210.031 88.743 211.496 89.997 214.449 89.997C 217.293 89.997 219.105 88.606 219.105 86.438C 219.105 84.766 218.16 83.844 215.918 83.309L 214.195 82.903C 212.734 82.563 212.109 82.09 212.109 81.297C 212.109 80.27 213.035 79.606 214.5 79.606C 215.941 79.606 216.719 80.204 216.762 81.344L 218.66 81.34z"/>
<path style="stroke:none; fill-rule:evenodd; fill:#000000" d="M 223.004 73.805L 221.207 73.805L 221.207 89.504L 223.004 89.504L 223.004 85.102L 224.762 83.375L 228.602 89.504L 230.836 89.504L 226.191 82.11L 230.141 78.207L 227.82 78.207L 223.004 82.985L 223.004 73.805z"/>
<path style="stroke:none; fill-rule:evenodd; fill:#000000" d="M 240.262 81.34C 240.242 79.141 238.789 77.903 236.203 77.903C 233.598 77.903 231.91 79.254 231.91 81.332C 231.91 83.09 232.812 83.926 235.484 84.567L 237.164 84.973C 238.41 85.27 238.906 85.723 238.906 86.536C 238.906 87.586 237.84 88.293 236.25 88.293C 235.269 88.293 234.441 88.02 233.984 87.551C 233.703 87.235 233.574 86.914 233.465 86.129L 231.547 86.129C 231.633 88.743 233.098 89.997 236.051 89.997C 238.895 89.997 240.707 88.606 240.707 86.438C 240.707 84.766 239.762 83.844 237.519 83.309L 235.797 82.903C 234.336 82.563 233.711 82.09 233.711 81.297C 233.711 80.27 234.637 79.606 236.102 79.606C 237.543 79.606 238.32 80.204 238.363 81.344L 240.262 81.34z"/>
<path style="stroke:none; fill-rule:evenodd; fill:#000000" d="M 111.133 91.68L 135.121 91.68L 135.121 76.489L 111.133 76.489L 111.133 91.68z"/>
<path style="stroke:#000000; stroke-width:0.0; fill:none" d="M 111.133 91.68L 135.121 91.68L 135.121 76.489L 111.133 76.489L 111.133 91.68z"/>
<path style="stroke:#000000; stroke-width:0.799705; fill:none" d="M 111.133 91.68L 135.121 91.68L 135.121 76.489L 111.133 76.489L 111.133 91.68z"/>
<path style="stroke:none; fill-rule:evenodd; fill:#000000" d="M 150.656 6.668C 150.527 5.05099 150.195 4.01999 149.402 2.965C 147.969 1.06299 145.664 0.00799561 142.871 0.00799561C 137.594 0.00799561 134.312 3.77798 134.312 9.832C 134.312 15.832 137.566 19.606 142.766 19.606C 147.402 19.606 150.504 16.918 150.734 12.637L 146.98 12.637C 146.75 15.036 145.234 16.407 142.844 16.407C 139.863 16.407 138.113 13.997 138.113 9.91098C 138.113 5.77798 139.937 3.31299 142.973 3.31299C 144.309 3.31299 145.414 3.77399 146.133 4.672C 146.543 5.18399 146.75 5.672 146.98 6.672L 150.656 6.668z"/>
<path style="stroke:none; fill-rule:evenodd; fill:#000000" d="M 153.305 5.20398L 153.305 19L 156.902 19L 156.902 11.723C 156.902 9.64499 157.949 8.60599 160.043 8.60599C 160.426 8.60599 160.68 8.60599 161.168 8.61398L 161.168 5.004C 160.965 5.004 160.84 5.004 160.734 5.004C 159.102 5.004 157.668 6.05899 156.902 7.89499L 156.902 5.20398L 153.305 5.20398z"/>
<path style="stroke:none; fill-rule:evenodd; fill:#000000" d="M 169.43 5.004C 165.199 5.004 162.609 7.78598 162.609 12.301C 162.609 16.844 165.199 19.598 169.457 19.598C 173.66 19.598 176.305 16.817 176.305 12.403C 176.305 7.73499 173.762 5.004 169.43 5.004zM 169.457 7.90298C 171.426 7.90298 172.707 9.65698 172.707 12.352C 172.707 14.918 171.379 16.7 169.457 16.7C 167.516 16.7 166.211 14.922 166.211 12.301C 166.211 9.68399 167.516 7.90298 169.457 7.90298z"/>
<path style="stroke:none; fill-rule:evenodd; fill:#000000" d="M 190.227 9.63699C 190.176 6.754 187.918 5.004 184.199 5.004C 180.687 5.004 178.508 6.76599 178.508 9.60199C 178.508 10.52 178.789 11.313 179.273 11.848C 179.758 12.332 180.191 12.563 181.523 12.997L 185.797 14.321C 186.691 14.598 187 14.879 187 15.442C 187 16.282 186.008 16.793 184.348 16.793C 183.43 16.793 182.691 16.614 182.23 16.301C 181.848 16.016 181.695 15.731 181.543 14.981L 178.051 14.981C 178.152 18.004 180.375 19.594 184.57 19.594C 186.488 19.594 187.945 19.188 188.965 18.372C 189.984 17.555 190.602 16.278 190.602 14.926C 190.602 13.141 189.707 11.993 187.887 11.454L 183.355 10.153C 182.359 9.84799 182.102 9.64499 182.102 9.082C 182.102 8.31699 182.918 7.80499 184.176 7.80499C 185.891 7.80499 186.738 8.40698 186.762 9.63699L 190.227 9.63699z"/>
<path style="stroke:none; fill-rule:evenodd; fill:#000000" d="M 204.43 9.63699C 204.379 6.754 202.121 5.004 198.402 5.004C 194.891 5.004 192.711 6.76599 192.711 9.60199C 192.711 10.52 192.992 11.313 193.477 11.848C 193.961 12.332 194.395 12.563 195.727 12.997L 200 14.321C 200.895 14.598 201.203 14.879 201.203 15.442C 201.203 16.282 200.211 16.793 198.551 16.793C 197.633 16.793 196.895 16.614 196.434 16.301C 196.051 16.016 195.898 15.731 195.746 14.981L 192.254 14.981C 192.355 18.004 194.578 19.594 198.773 19.594C 200.691 19.594 202.148 19.188 203.168 18.372C 204.187 17.555 204.805 16.278 204.805 14.926C 204.805 13.141 203.91 11.993 202.09 11.454L 197.559 10.153C 196.562 9.84799 196.305 9.64499 196.305 9.082C 196.305 8.31699 197.121 7.80499 198.379 7.80499C 200.094 7.80499 200.941 8.40698 200.965 9.63699L 204.43 9.63699z"/>
<path style="stroke:none; fill-rule:evenodd; fill:#000000" d="M 206.828 14.602L 219.723 14.602L 219.723 11.602L 206.828 11.602L 206.828 14.602z"/>
<path style="stroke:none; fill-rule:evenodd; fill:#000000" d="M 230.504 3.504L 236.008 3.504L 236.008 0.304993L 221.066 0.304993L 221.066 3.504L 226.707 3.504L 226.707 19.004L 230.504 19.004L 230.504 3.504z"/>
<path style="stroke:none; fill-rule:evenodd; fill:#000000" d="M 249.715 18.582C 249.086 17.997 248.906 17.614 248.906 16.899L 248.906 9.24298C 248.906 6.43799 246.984 5.008 243.246 5.008C 239.508 5.008 237.562 6.57898 237.332 9.74298L 240.793 9.74298C 240.969 8.35599 241.559 7.90698 243.328 7.90698C 244.711 7.90698 245.402 8.36798 245.402 9.28198C 245.402 9.73898 245.172 10.145 244.789 10.348C 244.305 10.602 244.305 10.602 242.531 10.879L 241.094 11.133C 238.348 11.59 237.012 12.993 237.012 15.461C 237.012 16.633 237.344 17.602 237.984 18.29C 238.777 19.102 239.98 19.586 241.211 19.586C 242.746 19.586 244.152 18.926 245.41 17.622C 245.41 18.332 245.484 18.59 245.82 18.997L 249.719 18.997L 249.715 18.582zM 245.406 13.454C 245.406 15.524 244.383 16.704 242.559 16.704C 241.355 16.704 240.609 16.067 240.609 15.043C 240.609 13.969 241.172 13.457 242.66 13.149L 243.891 12.922C 244.84 12.747 244.992 12.696 245.402 12.489L 245.406 13.454z"/>
<path style="stroke:none; fill-rule:evenodd; fill:#000000" d="M 263.527 9.63699C 263.477 6.754 261.219 5.004 257.5 5.004C 253.988 5.004 251.809 6.76599 251.809 9.60199C 251.809 10.52 252.09 11.313 252.574 11.848C 253.059 12.332 253.492 12.563 254.824 12.997L 259.098 14.321C 259.992 14.598 260.301 14.879 260.301 15.442C 260.301 16.282 259.309 16.793 257.648 16.793C 256.73 16.793 255.992 16.614 255.531 16.301C 255.148 16.016 254.996 15.731 254.844 14.981L 251.352 14.981C 251.453 18.004 253.676 19.594 257.871 19.594C 259.789 19.594 261.246 19.188 262.266 18.372C 263.285 17.555 263.902 16.278 263.902 14.926C 263.902 13.141 263.008 11.993 261.187 11.454L 256.656 10.153C 255.66 9.84799 255.402 9.64499 255.402 9.082C 255.402 8.31699 256.219 7.80499 257.477 7.80499C 259.191 7.80499 260.039 8.40698 260.062 9.63699L 263.527 9.63699z"/>
<path style="stroke:none; fill-rule:evenodd; fill:#000000" d="M 269.906 10.54L 269.906 0.304993L 266.309 0.304993L 266.309 19.004L 269.906 19.004L 269.906 14.477L 271.336 12.918L 274.633 19.008L 278.824 19.008L 273.789 10.395L 278.492 5.164L 274.43 5.164L 269.906 10.54z"/>
<path style="stroke:none; fill-rule:evenodd; fill:#000000" d="M 304.301 9.004L 296.82 9.004L 296.82 12.204L 301.07 12.204C 300.969 13.239 300.715 13.872 300.148 14.528C 299.227 15.637 297.82 16.297 296.336 16.297C 293.238 16.297 291.012 13.586 291.012 9.75C 291.012 5.73499 292.98 3.30099 296.234 3.30099C 297.562 3.30099 298.691 3.68399 299.535 4.42999C 300.07 4.89099 300.352 5.32898 300.684 6.30499L 304.297 6.30499C 303.836 2.44598 300.719 0 296.223 0C 290.859 0 287.207 3.97699 287.207 9.797C 287.207 15.465 290.883 19.594 295.918 19.594C 298.422 19.594 300.105 18.704 301.535 16.61L 301.992 19.059L 304.293 19.059L 304.301 9.004z"/>
<path style="stroke:none; fill-rule:evenodd; fill:#000000" d="M 319.414 13.204C 319.437 12.903 319.437 12.774 319.437 12.598C 319.437 11.231 319.234 9.961 318.902 8.99698C 317.984 6.51199 315.758 5.01199 312.969 5.01199C 309.004 5.01199 306.574 7.86798 306.574 12.489C 306.574 16.903 308.977 19.606 312.895 19.606C 315.988 19.606 318.496 17.836 319.289 15.118L 315.758 15.118C 315.324 16.247 314.328 16.903 313.023 16.903C 312.004 16.903 311.184 16.461 310.672 15.68C 310.344 15.161 310.211 14.536 310.16 13.207L 319.414 13.204zM 310.203 10.805C 310.43 8.74298 311.328 7.707 312.914 7.707C 313.809 7.707 314.629 8.133 315.141 8.84C 315.469 9.34399 315.625 9.87198 315.703 10.805L 310.203 10.805z"/>
<path style="stroke:none; fill-rule:evenodd; fill:#000000" d="M 321.906 5.20398L 321.906 19L 325.504 19L 325.504 10.715C 325.504 9.07898 326.652 8.004 328.395 8.004C 329.93 8.004 330.699 8.84799 330.699 10.485L 330.699 19L 334.297 19L 334.297 9.77399C 334.297 6.74298 332.605 5.004 329.656 5.004C 327.785 5.004 326.527 5.67999 325.504 7.17999L 325.504 5.20398L 321.906 5.20398z"/>
<path style="stroke:none; fill-rule:evenodd; fill:#000000" d="M 349.312 13.204C 349.336 12.903 349.336 12.774 349.336 12.598C 349.336 11.231 349.133 9.961 348.801 8.99698C 347.883 6.51199 345.656 5.01199 342.867 5.01199C 338.902 5.01199 336.473 7.86798 336.473 12.489C 336.473 16.903 338.875 19.606 342.793 19.606C 345.887 19.606 348.395 17.836 349.187 15.118L 345.656 15.118C 345.223 16.247 344.227 16.903 342.922 16.903C 341.902 16.903 341.082 16.461 340.57 15.68C 340.242 15.161 340.109 14.536 340.059 13.207L 349.312 13.204zM 340.102 10.805C 340.328 8.74298 341.227 7.707 342.812 7.707C 343.707 7.707 344.527 8.133 345.039 8.84C 345.367 9.34399 345.523 9.87198 345.602 10.805L 340.102 10.805z"/>
<path style="stroke:none; fill-rule:evenodd; fill:#000000" d="M 351.707 5.20398L 351.707 19L 355.305 19L 355.305 11.723C 355.305 9.64499 356.352 8.60599 358.445 8.60599C 358.828 8.60599 359.082 8.60599 359.57 8.61398L 359.57 5.004C 359.367 5.004 359.242 5.004 359.137 5.004C 357.504 5.004 356.07 6.05899 355.305 7.89499L 355.305 5.20398L 351.707 5.20398z"/>
<path style="stroke:none; fill-rule:evenodd; fill:#000000" d="M 373.516 18.582C 372.887 17.997 372.707 17.614 372.707 16.899L 372.707 9.24298C 372.707 6.43799 370.785 5.008 367.047 5.008C 363.309 5.008 361.363 6.57898 361.133 9.74298L 364.594 9.74298C 364.769 8.35599 365.359 7.90698 367.129 7.90698C 368.512 7.90698 369.203 8.36798 369.203 9.28198C 369.203 9.73898 368.973 10.145 368.59 10.348C 368.105 10.602 368.105 10.602 366.332 10.879L 364.895 11.133C 362.148 11.59 360.812 12.993 360.812 15.461C 360.812 16.633 361.145 17.602 361.785 18.29C 362.578 19.102 363.781 19.586 365.012 19.586C 366.547 19.586 367.953 18.926 369.211 17.622C 369.211 18.332 369.285 18.59 369.621 18.997L 373.519 18.997L 373.516 18.582zM 369.207 13.454C 369.207 15.524 368.184 16.704 366.359 16.704C 365.156 16.704 364.41 16.067 364.41 15.043C 364.41 13.969 364.973 13.457 366.461 13.149L 367.691 12.922C 368.641 12.747 368.793 12.696 369.203 12.489L 369.207 13.454z"/>
<path style="stroke:none; fill-rule:evenodd; fill:#000000" d="M 376.004 19.004L 379.602 19.004L 379.602 0.304993L 376.004 0.304993L 376.004 19.004z"/>
<path style="stroke:none; fill-rule:evenodd; fill:#000000" d="M 386.707 5.18399L 383.109 5.18399L 383.109 19L 386.707 19L 386.707 5.18399zM 386.707 0.304993L 383.109 0.304993L 383.109 3.504L 386.707 3.504L 386.707 0.304993z"/>
<path style="stroke:none; fill-rule:evenodd; fill:#000000" d="M 400.25 5.20398L 389.504 5.20398L 389.504 8.10199L 395.875 8.10199L 389.047 16.102L 389.047 19L 400.484 19L 400.484 16.102L 393.473 16.102L 400.254 8.10199L 400.25 5.20398z"/>
<path style="stroke:none; fill-rule:evenodd; fill:#000000" d="M 414.715 18.582C 414.086 17.997 413.906 17.614 413.906 16.899L 413.906 9.24298C 413.906 6.43799 411.984 5.008 408.246 5.008C 404.508 5.008 402.562 6.57898 402.332 9.74298L 405.793 9.74298C 405.969 8.35599 406.559 7.90698 408.328 7.90698C 409.711 7.90698 410.402 8.36798 410.402 9.28198C 410.402 9.73898 410.172 10.145 409.789 10.348C 409.305 10.602 409.305 10.602 407.531 10.879L 406.094 11.133C 403.348 11.59 402.012 12.993 402.012 15.461C 402.012 16.633 402.344 17.602 402.984 18.29C 403.777 19.102 404.98 19.586 406.211 19.586C 407.746 19.586 409.152 18.926 410.41 17.622C 410.41 18.332 410.484 18.59 410.82 18.997L 414.719 18.997L 414.715 18.582zM 410.406 13.454C 410.406 15.524 409.383 16.704 407.559 16.704C 406.355 16.704 405.609 16.067 405.609 15.043C 405.609 13.969 406.172 13.457 407.66 13.149L 408.891 12.922C 409.84 12.747 409.992 12.696 410.402 12.489L 410.406 13.454z"/>
<path style="stroke:none; fill-rule:evenodd; fill:#000000" d="M 423.309 5.504L 421.309 5.504L 421.309 1.758L 417.711 1.758L 417.711 5.504L 415.973 5.504L 415.973 7.90298L 417.711 7.90298L 417.711 16.364C 417.711 18.528 418.863 19.598 421.23 19.598C 422.023 19.598 422.668 19.524 423.309 19.317L 423.309 16.801C 422.953 16.868 422.746 16.899 422.488 16.899C 421.539 16.899 421.309 16.622 421.309 15.395L 421.309 7.90298L 423.309 7.90298L 423.309 5.504z"/>
<path style="stroke:none; fill-rule:evenodd; fill:#000000" d="M 429.406 5.18399L 425.809 5.18399L 425.809 19L 429.406 19L 429.406 5.18399zM 429.406 0.304993L 425.809 0.304993L 425.809 3.504L 429.406 3.504L 429.406 0.304993z"/>
<path style="stroke:none; fill-rule:evenodd; fill:#000000" d="M 438.93 5.004C 434.699 5.004 432.109 7.78598 432.109 12.301C 432.109 16.844 434.699 19.598 438.957 19.598C 443.16 19.598 445.805 16.817 445.805 12.403C 445.805 7.73499 443.262 5.004 438.93 5.004zM 438.957 7.90298C 440.926 7.90298 442.207 9.65698 442.207 12.352C 442.207 14.918 440.879 16.7 438.957 16.7C 437.016 16.7 435.711 14.922 435.711 12.301C 435.711 9.68399 437.016 7.90298 438.957 7.90298z"/>
<path style="stroke:none; fill-rule:evenodd; fill:#000000" d="M 448.406 5.20398L 448.406 19L 452.004 19L 452.004 10.715C 452.004 9.07898 453.152 8.004 454.895 8.004C 456.43 8.004 457.199 8.84799 457.199 10.485L 457.199 19L 460.797 19L 460.797 9.77399C 460.797 6.74298 459.105 5.004 456.156 5.004C 454.285 5.004 453.027 5.67999 452.004 7.17999L 452.004 5.20398L 448.406 5.20398z"/>
</g>
</svg>