<?xml version="1.0" encoding="UTF-8" standalone="no"?>
<svg
   xmlns:dc="http://purl.org/dc/elements/1.1/"
   xmlns:cc="http://creativecommons.org/ns#"
   xmlns:rdf="http://www.w3.org/1999/02/22-rdf-syntax-ns#"
   xmlns:svg="http://www.w3.org/2000/svg"
   xmlns="http://www.w3.org/2000/svg"
   xmlns:sodipodi="http://sodipodi.sourceforge.net/DTD/sodipodi-0.dtd"
   xmlns:inkscape="http://www.inkscape.org/namespaces/inkscape"
   version="1.1"
   width="400px"
   height="400px"
   viewBox="0 0 1000.0 1000.0"
   id="svg2"
   inkscape:version="0.91 r13725"
   sodipodi:docname="fig_gardenpath_series_II_multiplicity.svg"
   inkscape:export-filename="/Users/rohrlich/svn_docs/figs/fig_gardenpath_series_II_multiplicity.png"
   inkscape:export-xdpi="150"
   inkscape:export-ydpi="150">
  <metadata
     id="metadata70">
    <rdf:RDF>
      <cc:Work
         rdf:about="">
        <dc:format>image/svg+xml</dc:format>
        <dc:type
           rdf:resource="http://purl.org/dc/dcmitype/StillImage" />
      </cc:Work>
    </rdf:RDF>
  </metadata>
  <defs
     id="defs68" />
  <sodipodi:namedview
     pagecolor="#ffffff"
     bordercolor="#666666"
     borderopacity="1"
     objecttolerance="10"
     gridtolerance="10"
     guidetolerance="10"
     inkscape:pageopacity="0"
     inkscape:pageshadow="2"
     inkscape:window-width="1680"
     inkscape:window-height="1005"
     id="namedview66"
     showgrid="false"
     inkscape:zoom="2"
     inkscape:cx="200"
     inkscape:cy="2e+02"
     inkscape:window-x="0"
     inkscape:window-y="1"
     inkscape:window-maximized="1"
     inkscape:current-layer="svg2" />
  <path
     stroke="#000000"
     stroke-width="2"
     fill="none"
     d="M 256.8,712.1 L 256.8,192.2 L 776.7,192.2 L 776.7,712.1 L 256.8,712.1 "
     id="path4" />
  <g
     id="g6">
    <text
       x="516.8"
       y="782.3"
       font-family="Arial"
       font-size="26.2"
       fill="#000000"
       text-anchor="middle"
       id="text8">
Initial Degradation
</text>
    <text
       x="300.1"
       y="756.3"
       font-family="Arial"
       font-size="26.2"
       fill="#000000"
       text-anchor="middle"
       id="text10">
Severe
</text>
    <text
       x="733.4"
       y="756.3"
       font-family="Arial"
       font-size="26.2"
       fill="#000000"
       text-anchor="middle"
       id="text12">
Minimal
</text>
    <path
       stroke="#000000"
       stroke-width="2"
       fill="none"
       d="M 256.8,712.1 L 776.7,712.1 M 300.1,725.1 L 300.1,699.1 M 386.8,725.1 L 386.8,699.1 M 473.4,725.1 L 473.4,699.1 M 560.1,725.1 L 560.1,699.1 M 646.7,725.1 L 646.7,699.1 M 733.4,725.1 L 733.4,699.1 "
       id="path14" />
    <path
       stroke="#000000"
       stroke-width="2"
       fill="none"
       d="M 256.8,192.2 L 776.7,192.2 M 300.1,205.2 L 300.1,179.2 M 386.8,205.2 L 386.8,179.2 M 473.4,205.2 L 473.4,179.2 M 560.1,205.2 L 560.1,179.2 M 646.7,205.2 L 646.7,179.2 M 733.4,205.2 L 733.4,179.2 "
       id="path16" />
    <text
       x="191.8"
       y="452.2"
       font-family="Arial"
       font-size="26.2"
       fill="#000000"
       writing-mode="tb"
       text-anchor="middle"
       id="text18" />
    <text
       x="238.6"
       y="722.5"
       font-family="Arial"
       font-size="26.2"
       fill="#000000"
       text-anchor="end"
       id="text20">
10
</text>
    <text
       x="238.6"
       y="657.5"
       font-family="Arial"
       font-size="26.2"
       fill="#000000"
       text-anchor="end"
       id="text22">
20
</text>
    <text
       x="238.6"
       y="592.5"
       font-family="Arial"
       font-size="26.2"
       fill="#000000"
       text-anchor="end"
       id="text24">
30
</text>
    <text
       x="238.6"
       y="527.6"
       font-family="Arial"
       font-size="26.2"
       fill="#000000"
       text-anchor="end"
       id="text26">
40
</text>
    <text
       x="238.6"
       y="462.6"
       font-family="Arial"
       font-size="26.2"
       fill="#000000"
       text-anchor="end"
       id="text28">
50
</text>
    <text
       x="238.6"
       y="397.6"
       font-family="Arial"
       font-size="26.2"
       fill="#000000"
       text-anchor="end"
       id="text30">
60
</text>
    <text
       x="238.6"
       y="332.6"
       font-family="Arial"
       font-size="26.2"
       fill="#000000"
       text-anchor="end"
       id="text32">
70
</text>
    <text
       x="238.6"
       y="267.6"
       font-family="Arial"
       font-size="26.2"
       fill="#000000"
       text-anchor="end"
       id="text34">
80
</text>
    <text
       x="238.6"
       y="202.6"
       font-family="Arial"
       font-size="26.2"
       fill="#000000"
       text-anchor="end"
       id="text36">
90
</text>
    <path
       stroke="#000000"
       stroke-width="2"
       fill="none"
       d="M 256.8,712.1 L 256.8,192.2 M 243.8,712.1 L 269.8,712.1 M 243.8,647.1 L 269.8,647.1 M 243.8,582.1 L 269.8,582.1 M 243.8,517.2 L 269.8,517.2 M 243.8,452.2 L 269.8,452.2 M 243.8,387.2 L 269.8,387.2 M 243.8,322.2 L 269.8,322.2 M 243.8,257.2 L 269.8,257.2 M 243.8,192.2 L 269.8,192.2 "
       id="path38" />
    <path
       stroke="#000000"
       stroke-width="2"
       fill="none"
       d="M 776.7,712.1 L 776.7,192.2 M 763.7,712.1 L 789.7,712.1 M 763.7,647.1 L 789.7,647.1 M 763.7,582.1 L 789.7,582.1 M 763.7,517.2 L 789.7,517.2 M 763.7,452.2 L 789.7,452.2 M 763.7,387.2 L 789.7,387.2 M 763.7,322.2 L 789.7,322.2 M 763.7,257.2 L 789.7,257.2 M 763.7,192.2 L 789.7,192.2 "
       id="path40" />
  </g>
  <g
     transform="translate(0.0,-577.4)"
     id="g42">
    <g
       transform="translate(0.0,-0.0)"
       id="g44">
      <path
         stroke="#000000"
         stroke-width="2"
         fill="none"
         d="M 256.8,712.1 L 288.0,712.1 "
         id="path46" />
      <text
         x="293.2"
         y="722.5"
         font-family="Arial"
         font-size="21.0"
         fill="#000000"
         text-anchor="start"
         id="text48">
Single
</text>
    </g>
    <g
       transform="translate(157.5,-0.0)"
       id="g50">
      <path
         stroke="#ff0000"
         stroke-width="2"
         fill="none"
         d="M 256.8,712.1 L 288.0,712.1 "
         id="path52" />
      <text
         x="293.2"
         y="722.5"
         font-family="Arial"
         font-size="21.0"
         fill="#ff0000"
         text-anchor="start"
         id="text54">
Multiple
</text>
    </g>
  </g>
  <g
     id="g56"
     style="stroke-width:2.5;stroke-miterlimit:4;stroke-dasharray:none">
    <path
       stroke="#000000"
       stroke-width="2"
       fill="none"
       d="M 300.1,335.2  L 733.4,263.7 "
       id="path58"
       style="stroke-width:2.5;stroke-miterlimit:4;stroke-dasharray:none" />
    <path
       stroke="#000000"
       stroke-width="2"
       fill="none"
       d="M 305.3,335.2 L 304.9,333.2 L 303.8,331.5 L 302.1,330.4 L 300.1,330.0 L 298.2,330.4 L 296.5,331.5 L 295.3,333.2 L 294.9,335.2 L 295.3,337.2 L 296.5,338.9 L 298.2,340.0 L 300.1,340.4 L 302.1,340.0 L 303.8,338.9 L 304.9,337.2 L 305.3,335.2 M 738.6,263.7 L 738.2,261.7 L 737.1,260.0 L 735.4,258.9 L 733.4,258.5 L 731.4,258.9 L 729.7,260.0 L 728.6,261.7 L 728.2,263.7 L 728.6,265.7 L 729.7,267.4 L 731.4,268.5 L 733.4,268.9 L 735.4,268.5 L 737.1,267.4 L 738.2,265.7 L 738.6,263.7 "
       id="path60"
       style="stroke-width:2.5;stroke-miterlimit:4;stroke-dasharray:none" />
    <path
       stroke="#ff0000"
       stroke-width="2"
       fill="none"
       d="M 300.1,484.7  L 733.4,380.7 "
       id="path62"
       style="stroke-width:2.5;stroke-miterlimit:4;stroke-dasharray:none" />
    <path
       stroke="#ff0000"
       stroke-width="2"
       fill="none"
       d="M 294.9,489.9 L 294.9,479.5 L 305.3,479.5 L 305.3,489.9 L 294.9,489.9 M 728.2,385.9 L 728.2,375.5 L 738.6,375.5 L 738.6,385.9 L 728.2,385.9 "
       id="path64"
       style="stroke-width:2.5;stroke-miterlimit:4;stroke-dasharray:none" />
  </g>
</svg>
