<?xml version="1.0" encoding="ISO-8859-1" standalone="yes"?>
<svg width="386.598" height="158.836">
  <defs> 
    <marker id="ArrowEnd" viewBox="0 0 10 10" refX="0" refY="5" 
     markerUnits="strokeWidth" 
     markerWidth="4" 
     markerHeight="3" 
     orient="auto"> 
        <path d="M 0 0 L 10 5 L 0 10 z" /> 
    </marker>
    <marker id="ArrowStart" viewBox="0 0 10 10" refX="10" refY="5" 
     markerUnits="strokeWidth" 
     markerWidth="4" 
     markerHeight="3" 
     orient="auto"> 
        <path d="M 10 0 L 0 5 L 10 10 z" /> 
    </marker> </defs>
<g>
<path style="stroke:none; fill-rule:evenodd; fill:#000000" d="M 178.254 29.102C 177.117 30.629 176.399 32.746 176.399 34.578C 176.399 36.418 177.113 38.539 178.254 40.062L 178.879 40.062C 177.863 38.398 177.297 36.441 177.297 34.578C 177.297 32.727 177.86 30.758 178.879 29.102L 178.254 29.102z"/>
<path style="stroke:none; fill-rule:evenodd; fill:#000000" d="M 184.492 33.207C 184.481 31.992 183.699 31.305 182.309 31.305C 180.91 31.305 180 32.043 180 33.184C 180 34.145 180.477 34.605 181.887 34.957L 182.774 35.18C 183.43 35.34 183.696 35.59 183.696 36.035C 183.696 36.609 183.129 36.996 182.289 36.996C 181.77 36.996 181.332 36.844 181.09 36.582C 180.942 36.406 180.871 36.227 180.817 35.785L 179.801 35.785C 179.844 37.211 180.629 37.898 182.211 37.898C 183.731 37.898 184.703 37.137 184.703 35.949C 184.703 35.035 184.203 34.527 183.02 34.234L 182.11 34.012C 181.336 33.824 181.008 33.566 181.008 33.133C 181.008 32.57 181.5 32.207 182.281 32.207C 183.051 32.207 183.465 32.551 183.485 33.211L 184.492 33.207z"/>
<path style="stroke:none; fill-rule:evenodd; fill:#000000" d="M 191.199 34.902C 191.199 33.961 191.133 33.395 190.957 32.934C 190.563 31.922 189.633 31.305 188.492 31.305C 186.797 31.305 185.703 32.621 185.703 34.641C 185.703 36.66 186.754 37.902 188.449 37.902C 189.832 37.902 190.793 37.102 191.035 35.754L 190.067 35.754C 189.801 36.574 189.258 37 188.485 37C 187.875 37 187.352 36.723 187.031 36.207C 186.801 35.859 186.723 35.508 186.711 34.902L 191.199 34.902zM 186.699 34.09C 186.778 32.965 187.465 32.23 188.442 32.23C 189.395 32.23 190.125 33.02 190.125 34.02C 190.125 34.039 190.125 34.062 190.113 34.086L 186.699 34.09z"/>
<path style="stroke:none; fill-rule:evenodd; fill:#000000" d="M 192.5 31.477L 192.5 37.598L 193.5 37.598L 193.5 34.188C 193.5 32.926 194.149 32.098 195.145 32.098C 195.91 32.098 196.395 32.57 196.395 33.312L 196.395 37.594L 197.395 37.594L 197.395 32.969C 197.395 31.953 196.633 31.297 195.446 31.297C 194.528 31.297 193.942 31.648 193.399 32.5L 193.399 31.473L 192.5 31.477z"/>
<path style="stroke:none; fill-rule:evenodd; fill:#000000" d="M 203.293 33.207C 203.281 31.992 202.5 31.305 201.11 31.305C 199.711 31.305 198.801 32.043 198.801 33.184C 198.801 34.145 199.278 34.605 200.688 34.957L 201.574 35.18C 202.231 35.34 202.496 35.59 202.496 36.035C 202.496 36.609 201.93 36.996 201.09 36.996C 200.571 36.996 200.133 36.844 199.891 36.582C 199.742 36.406 199.672 36.227 199.617 35.785L 198.602 35.785C 198.645 37.211 199.43 37.898 201.012 37.898C 202.531 37.898 203.504 37.137 203.504 35.949C 203.504 35.035 203.004 34.527 201.821 34.234L 200.91 34.012C 200.137 33.824 199.809 33.566 199.809 33.133C 199.809 32.57 200.301 32.207 201.082 32.207C 201.852 32.207 202.266 32.551 202.285 33.211L 203.293 33.207z"/>
<path style="stroke:none; fill-rule:evenodd; fill:#000000" d="M 207.137 31.301C 205.434 31.301 204.403 32.535 204.403 34.602C 204.403 36.664 205.422 37.898 207.153 37.898C 208.856 37.898 209.903 36.668 209.903 34.648C 209.903 32.523 208.895 31.301 207.141 31.301L 207.137 31.301zM 207.149 32.203C 208.242 32.203 208.899 33.109 208.899 34.637C 208.899 36.082 208.223 37 207.149 37C 206.067 37 205.399 36.098 205.399 34.602C 205.399 33.121 206.063 32.203 207.149 32.203z"/>
<path style="stroke:none; fill-rule:evenodd; fill:#000000" d="M 211.199 31.477L 211.199 37.598L 212.199 37.598L 212.199 34.402C 212.199 33.523 212.418 32.949 212.875 32.605C 213.172 32.383 213.461 32.312 214.129 32.301L 214.129 31.336C 213.969 31.316 213.887 31.305 213.758 31.305C 213.133 31.305 212.656 31.68 212.098 32.59L 212.098 31.48L 211.199 31.477z"/>
<path style="stroke:none; fill-rule:evenodd; fill:#000000" d="M 218.813 31.5L 217.129 36.25L 215.574 31.5L 214.543 31.5L 216.598 37.637L 216.227 38.602C 216.078 39.031 215.856 39.195 215.449 39.195C 215.313 39.195 215.149 39.168 214.938 39.109L 214.938 39.949C 215.133 40.047 215.332 40.094 215.586 40.094C 215.899 40.094 216.235 39.992 216.492 39.805C 216.793 39.586 216.969 39.332 217.153 38.844L 219.86 31.496L 218.813 31.5z"/>
<path style="stroke:none; fill-rule:evenodd; fill:#000000" d="M 184.801 46.5C 184.801 45.559 184.735 44.992 184.559 44.531C 184.164 43.52 183.235 42.902 182.094 42.902C 180.399 42.902 179.305 44.219 179.305 46.238C 179.305 48.258 180.356 49.5 182.051 49.5C 183.434 49.5 184.395 48.699 184.637 47.352L 183.668 47.352C 183.403 48.172 182.86 48.598 182.086 48.598C 181.477 48.598 180.953 48.32 180.633 47.805C 180.403 47.457 180.324 47.105 180.313 46.5L 184.801 46.5zM 180.301 45.691C 180.379 44.566 181.067 43.832 182.043 43.832C 182.996 43.832 183.727 44.621 183.727 45.621C 183.727 45.641 183.727 45.664 183.715 45.688L 180.301 45.691z"/>
<path style="stroke:none; fill-rule:evenodd; fill:#000000" d="M 186 49.203L 187 49.203L 187 40.703L 186 40.703L 186 49.203z"/>
<path style="stroke:none; fill-rule:evenodd; fill:#000000" d="M 193.801 46.5C 193.801 45.559 193.735 44.992 193.559 44.531C 193.164 43.52 192.235 42.902 191.094 42.902C 189.399 42.902 188.305 44.219 188.305 46.238C 188.305 48.258 189.356 49.5 191.051 49.5C 192.434 49.5 193.395 48.699 193.637 47.352L 192.668 47.352C 192.403 48.172 191.86 48.598 191.086 48.598C 190.477 48.598 189.953 48.32 189.633 47.805C 189.403 47.457 189.324 47.105 189.313 46.5L 193.801 46.5zM 189.301 45.691C 189.379 44.566 190.067 43.832 191.043 43.832C 191.996 43.832 192.727 44.621 192.727 45.621C 192.727 45.641 192.727 45.664 192.715 45.688L 189.301 45.691z"/>
<path style="stroke:none; fill-rule:evenodd; fill:#000000" d="M 195.098 43.078L 195.098 49.199L 196.098 49.199L 196.098 45.32C 196.098 44.426 196.723 43.703 197.492 43.703C 198.196 43.703 198.594 44.152 198.594 44.941L 198.594 49.199L 199.594 49.199L 199.594 45.32C 199.594 44.426 200.242 43.703 201.043 43.703C 201.762 43.703 202.188 44.164 202.188 44.941L 202.188 49.199L 203.188 49.199L 203.188 44.609C 203.188 43.512 202.555 42.906 201.41 42.906C 200.594 42.906 200.102 43.156 199.528 43.867C 199.168 43.195 198.676 42.906 197.879 42.906C 197.063 42.906 196.524 43.211 195.996 43.945L 195.996 43.082L 195.098 43.078z"/>
<path style="stroke:none; fill-rule:evenodd; fill:#000000" d="M 210 46.5C 210 45.559 209.934 44.992 209.758 44.531C 209.363 43.52 208.434 42.902 207.293 42.902C 205.598 42.902 204.504 44.219 204.504 46.238C 204.504 48.258 205.555 49.5 207.25 49.5C 208.633 49.5 209.594 48.699 209.836 47.352L 208.867 47.352C 208.602 48.172 208.059 48.598 207.285 48.598C 206.676 48.598 206.153 48.32 205.832 47.805C 205.602 47.457 205.524 47.105 205.512 46.5L 210 46.5zM 205.5 45.691C 205.578 44.566 206.266 43.832 207.242 43.832C 208.196 43.832 208.926 44.621 208.926 45.621C 208.926 45.641 208.926 45.664 208.914 45.688L 205.5 45.691z"/>
<path style="stroke:none; fill-rule:evenodd; fill:#000000" d="M 211.199 43.078L 211.199 49.199L 212.199 49.199L 212.199 45.789C 212.199 44.527 212.848 43.699 213.844 43.699C 214.61 43.699 215.094 44.172 215.094 44.914L 215.094 49.195L 216.094 49.195L 216.094 44.57C 216.094 43.555 215.332 42.898 214.145 42.898C 213.227 42.898 212.641 43.25 212.098 44.102L 212.098 43.074L 211.199 43.078z"/>
<path style="stroke:none; fill-rule:evenodd; fill:#000000" d="M 219.899 43.102L 218.899 43.102L 218.899 41.434L 217.899 41.434L 217.899 43.102L 217.102 43.102L 217.102 43.898L 217.899 43.898L 217.899 48.527C 217.899 49.145 218.324 49.496 219.09 49.496C 219.324 49.496 219.563 49.473 219.895 49.414L 219.895 48.574C 219.77 48.668 219.617 48.699 219.43 48.699C 219.012 48.699 218.899 48.582 218.899 48.145L 218.899 43.902L 219.899 43.902L 219.899 43.102z"/>
<path style="stroke:none; fill-rule:evenodd; fill:#000000" d="M 225.192 44.809C 225.18 43.594 224.399 42.906 223.008 42.906C 221.61 42.906 220.699 43.645 220.699 44.785C 220.699 45.746 221.176 46.207 222.586 46.559L 223.473 46.781C 224.129 46.941 224.395 47.191 224.395 47.637C 224.395 48.211 223.828 48.598 222.989 48.598C 222.469 48.598 222.031 48.445 221.789 48.184C 221.641 48.008 221.571 47.828 221.516 47.387L 220.5 47.387C 220.543 48.812 221.328 49.5 222.91 49.5C 224.43 49.5 225.403 48.738 225.403 47.551C 225.403 46.637 224.903 46.129 223.719 45.836L 222.809 45.613C 222.035 45.426 221.707 45.168 221.707 44.734C 221.707 44.172 222.199 43.809 222.981 43.809C 223.75 43.809 224.164 44.152 224.184 44.812L 225.192 44.809z"/>
<path style="stroke:none; fill-rule:evenodd; fill:#000000" d="M 226.985 51.668C 228.156 50.145 228.895 48.023 228.895 46.195C 228.895 44.355 228.156 42.234 226.985 40.707L 226.34 40.707C 227.403 42.375 227.996 44.332 227.996 46.195C 227.996 48.047 227.406 50.016 226.34 51.668L 226.985 51.668z"/>
<path style="stroke:none; fill-rule:evenodd; fill:#000000" d="M 248.055 0C 246.918 1.52699 246.199 3.645 246.199 5.47701C 246.199 7.31599 246.914 9.438 248.055 10.961L 248.68 10.961C 247.664 9.297 247.098 7.34 247.098 5.47701C 247.098 3.625 247.66 1.65601 248.68 0L 248.055 0z"/>
<path style="stroke:none; fill-rule:evenodd; fill:#000000" d="M 254.293 4.105C 254.281 2.89101 253.5 2.203 252.11 2.203C 250.711 2.203 249.801 2.94099 249.801 4.082C 249.801 5.043 250.278 5.504 251.688 5.855L 252.574 6.078C 253.231 6.23801 253.496 6.48801 253.496 6.93401C 253.496 7.508 252.93 7.895 252.09 7.895C 251.571 7.895 251.133 7.742 250.891 7.48C 250.742 7.30499 250.672 7.125 250.617 6.68401L 249.602 6.68401C 249.645 8.10899 250.43 8.797 252.012 8.797C 253.531 8.797 254.504 8.035 254.504 6.84801C 254.504 5.93401 254.004 5.42599 252.821 5.133L 251.91 4.91C 251.137 4.72301 250.809 4.465 250.809 4.03101C 250.809 3.46899 251.301 3.105 252.082 3.105C 252.852 3.105 253.266 3.44901 253.285 4.10899L 254.293 4.105z"/>
<path style="stroke:none; fill-rule:evenodd; fill:#000000" d="M 261 5.80099C 261 4.85899 260.934 4.293 260.758 3.832C 260.363 2.82001 259.434 2.203 258.293 2.203C 256.598 2.203 255.504 3.52 255.504 5.539C 255.504 7.55901 256.555 8.80099 258.25 8.80099C 259.633 8.80099 260.594 8 260.836 6.65199L 259.867 6.65199C 259.602 7.47301 259.059 7.89799 258.285 7.89799C 257.676 7.89799 257.153 7.621 256.832 7.105C 256.602 6.758 256.524 6.40601 256.512 5.80099L 261 5.80099zM 256.5 4.98801C 256.578 3.86301 257.266 3.129 258.242 3.129C 259.196 3.129 259.926 3.918 259.926 4.918C 259.926 4.938 259.926 4.961 259.914 4.98399L 256.5 4.98801z"/>
<path style="stroke:none; fill-rule:evenodd; fill:#000000" d="M 262.301 2.379L 262.301 8.5L 263.301 8.5L 263.301 5.09C 263.301 3.828 263.949 3 264.946 3C 265.711 3 266.196 3.47301 266.196 4.215L 266.196 8.496L 267.196 8.496L 267.196 3.871C 267.196 2.855 266.434 2.19901 265.246 2.19901C 264.328 2.19901 263.742 2.55099 263.199 3.40199L 263.199 2.375L 262.301 2.379z"/>
<path style="stroke:none; fill-rule:evenodd; fill:#000000" d="M 272.992 4.105C 272.981 2.89101 272.199 2.203 270.809 2.203C 269.41 2.203 268.5 2.94099 268.5 4.082C 268.5 5.043 268.977 5.504 270.387 5.855L 271.274 6.078C 271.93 6.23801 272.196 6.48801 272.196 6.93401C 272.196 7.508 271.629 7.895 270.789 7.895C 270.27 7.895 269.832 7.742 269.59 7.48C 269.442 7.30499 269.371 7.125 269.317 6.68401L 268.301 6.68401C 268.344 8.10899 269.129 8.797 270.711 8.797C 272.231 8.797 273.203 8.035 273.203 6.84801C 273.203 5.93401 272.703 5.42599 271.52 5.133L 270.61 4.91C 269.836 4.72301 269.508 4.465 269.508 4.03101C 269.508 3.46899 270 3.105 270.781 3.105C 271.551 3.105 271.965 3.44901 271.985 4.10899L 272.992 4.105z"/>
<path style="stroke:none; fill-rule:evenodd; fill:#000000" d="M 276.836 2.203C 275.133 2.203 274.102 3.438 274.102 5.504C 274.102 7.56599 275.121 8.80099 276.852 8.80099C 278.555 8.80099 279.602 7.57001 279.602 5.55099C 279.602 3.42599 278.594 2.203 276.84 2.203L 276.836 2.203zM 276.848 3.10201C 277.942 3.10201 278.598 4.008 278.598 5.535C 278.598 6.98 277.922 7.89799 276.848 7.89799C 275.766 7.89799 275.098 6.996 275.098 5.5C 275.098 4.02 275.762 3.10201 276.848 3.10201z"/>
<path style="stroke:none; fill-rule:evenodd; fill:#000000" d="M 281 2.379L 281 8.5L 282 8.5L 282 5.30499C 282 4.42599 282.219 3.85201 282.676 3.508C 282.973 3.285 283.262 3.215 283.93 3.203L 283.93 2.23801C 283.77 2.21899 283.688 2.207 283.559 2.207C 282.934 2.207 282.457 2.582 281.899 3.492L 281.899 2.383L 281 2.379z"/>
<path style="stroke:none; fill-rule:evenodd; fill:#000000" d="M 288.61 2.40199L 286.926 7.15199L 285.371 2.40199L 284.34 2.40199L 286.395 8.539L 286.024 9.504C 285.875 9.93401 285.653 10.098 285.246 10.098C 285.11 10.098 284.946 10.07 284.735 10.012L 284.735 10.852C 284.93 10.949 285.129 10.996 285.383 10.996C 285.696 10.996 286.031 10.895 286.289 10.707C 286.59 10.488 286.766 10.234 286.949 9.746L 289.656 2.39799L 288.61 2.40199z"/>
<path style="stroke:none; fill-rule:evenodd; fill:#000000" d="M 253.977 16.055C 253.93 15.445 253.805 15.051 253.574 14.703C 253.16 14.141 252.434 13.805 251.594 13.805C 249.969 13.805 248.906 15.121 248.906 17.164C 248.906 19.145 249.942 20.402 251.582 20.402C 253.024 20.402 253.934 19.52 254.051 18.012L 253.082 18.012C 252.922 19.004 252.426 19.504 251.606 19.504C 250.547 19.504 249.91 18.625 249.91 17.164C 249.91 15.625 250.531 14.707 251.582 14.707C 252.391 14.707 252.895 15.191 253.012 16.059L 253.977 16.055z"/>
<path style="stroke:none; fill-rule:evenodd; fill:#000000" d="M 257.535 13.801C 255.832 13.801 254.801 15.035 254.801 17.102C 254.801 19.164 255.821 20.398 257.551 20.398C 259.254 20.398 260.301 19.168 260.301 17.148C 260.301 15.023 259.293 13.801 257.539 13.801L 257.535 13.801zM 257.551 14.703C 258.645 14.703 259.301 15.609 259.301 17.137C 259.301 18.582 258.625 19.5 257.551 19.5C 256.469 19.5 255.801 18.598 255.801 17.102C 255.801 15.621 256.465 14.703 257.551 14.703z"/>
<path style="stroke:none; fill-rule:evenodd; fill:#000000" d="M 261.598 13.977L 261.598 20.098L 262.598 20.098L 262.598 16.688C 262.598 15.426 263.246 14.598 264.242 14.598C 265.008 14.598 265.492 15.07 265.492 15.812L 265.492 20.094L 266.492 20.094L 266.492 15.469C 266.492 14.453 265.731 13.797 264.543 13.797C 263.625 13.797 263.039 14.148 262.496 15L 262.496 13.973L 261.598 13.977z"/>
<path style="stroke:none; fill-rule:evenodd; fill:#000000" d="M 268.098 14L 268.098 20.992C 268.098 21.598 267.906 21.793 267.321 21.793C 267.289 21.793 267.289 21.793 267.094 21.793L 267.094 22.559C 267.211 22.578 267.27 22.59 267.422 22.59C 268.524 22.59 269.102 22.152 269.102 21.328L 269.102 13.992L 268.098 14zM 269.098 11.602L 268.098 11.602L 268.098 12.801L 269.098 12.801L 269.098 11.602z"/>
<path style="stroke:none; fill-rule:evenodd; fill:#000000" d="M 275.5 20.133L 275.5 14.004L 274.5 14.004L 274.5 17.512C 274.5 18.773 273.856 19.602 272.852 19.602C 272.09 19.602 271.606 19.133 271.606 18.387L 271.606 14.004L 270.606 14.004L 270.606 18.73C 270.606 19.746 271.363 20.402 272.555 20.402C 273.453 20.402 274.028 20.09 274.602 19.281L 274.602 20.133L 275.5 20.133z"/>
<path style="stroke:none; fill-rule:evenodd; fill:#000000" d="M 277.098 13.977L 277.098 20.098L 278.098 20.098L 278.098 16.688C 278.098 15.426 278.746 14.598 279.742 14.598C 280.508 14.598 280.992 15.07 280.992 15.812L 280.992 20.094L 281.992 20.094L 281.992 15.469C 281.992 14.453 281.231 13.797 280.043 13.797C 279.125 13.797 278.539 14.148 277.996 15L 277.996 13.973L 277.098 13.977z"/>
<path style="stroke:none; fill-rule:evenodd; fill:#000000" d="M 288.278 16.055C 288.231 15.445 288.106 15.051 287.875 14.703C 287.461 14.141 286.735 13.805 285.895 13.805C 284.27 13.805 283.207 15.121 283.207 17.164C 283.207 19.145 284.242 20.402 285.883 20.402C 287.324 20.402 288.235 19.52 288.352 18.012L 287.383 18.012C 287.223 19.004 286.727 19.504 285.906 19.504C 284.848 19.504 284.211 18.625 284.211 17.164C 284.211 15.625 284.832 14.707 285.883 14.707C 286.692 14.707 287.196 15.191 287.313 16.059L 288.278 16.055z"/>
<path style="stroke:none; fill-rule:evenodd; fill:#000000" d="M 291.598 14L 290.598 14L 290.598 12.332L 289.598 12.332L 289.598 14L 288.801 14L 288.801 14.797L 289.598 14.797L 289.598 19.426C 289.598 20.043 290.024 20.395 290.789 20.395C 291.024 20.395 291.262 20.371 291.594 20.312L 291.594 19.473C 291.469 19.566 291.317 19.598 291.129 19.598C 290.711 19.598 290.598 19.48 290.598 19.043L 290.598 14.801L 291.598 14.801L 291.598 14z"/>
<path style="stroke:none; fill-rule:evenodd; fill:#000000" d="M 293.598 14L 292.598 14L 292.598 20.098L 293.598 20.098L 293.598 14zM 293.598 11.602L 292.598 11.602L 292.598 12.844L 293.598 12.844L 293.598 11.602z"/>
<path style="stroke:none; fill-rule:evenodd; fill:#000000" d="M 297.535 13.801C 295.832 13.801 294.801 15.035 294.801 17.102C 294.801 19.164 295.821 20.398 297.551 20.398C 299.254 20.398 300.301 19.168 300.301 17.148C 300.301 15.023 299.293 13.801 297.539 13.801L 297.535 13.801zM 297.551 14.703C 298.645 14.703 299.301 15.609 299.301 17.137C 299.301 18.582 298.625 19.5 297.551 19.5C 296.469 19.5 295.801 18.598 295.801 17.102C 295.801 15.621 296.465 14.703 297.551 14.703z"/>
<path style="stroke:none; fill-rule:evenodd; fill:#000000" d="M 301.699 13.977L 301.699 20.098L 302.699 20.098L 302.699 16.688C 302.699 15.426 303.348 14.598 304.344 14.598C 305.11 14.598 305.594 15.07 305.594 15.812L 305.594 20.094L 306.594 20.094L 306.594 15.469C 306.594 14.453 305.832 13.797 304.645 13.797C 303.727 13.797 303.141 14.148 302.598 15L 302.598 13.973L 301.699 13.977z"/>
<path style="stroke:none; fill-rule:evenodd; fill:#000000" d="M 312.492 15.707C 312.481 14.492 311.699 13.805 310.309 13.805C 308.91 13.805 308 14.543 308 15.684C 308 16.645 308.477 17.105 309.887 17.457L 310.774 17.68C 311.43 17.84 311.696 18.09 311.696 18.535C 311.696 19.109 311.129 19.496 310.289 19.496C 309.77 19.496 309.332 19.344 309.09 19.082C 308.942 18.906 308.871 18.727 308.817 18.285L 307.801 18.285C 307.844 19.711 308.629 20.398 310.211 20.398C 311.731 20.398 312.703 19.637 312.703 18.449C 312.703 17.535 312.203 17.027 311.02 16.734L 310.11 16.512C 309.336 16.324 309.008 16.066 309.008 15.633C 309.008 15.07 309.5 14.707 310.281 14.707C 311.051 14.707 311.465 15.051 311.485 15.711L 312.492 15.707z"/>
<path style="stroke:none; fill-rule:evenodd; fill:#000000" d="M 314.285 22.566C 315.457 21.043 316.196 18.922 316.196 17.094C 316.196 15.254 315.457 13.133 314.285 11.605L 313.641 11.605C 314.703 13.273 315.297 15.23 315.297 17.094C 315.297 18.945 314.707 20.914 313.641 22.566L 314.285 22.566z"/>
<path style="stroke:none; fill-rule:evenodd; fill:#000000" d="M 253 104.703L 252 104.703L 252 107.875C 251.594 107.238 250.942 106.902 250.125 106.902C 248.543 106.902 247.504 108.184 247.504 110.145C 247.504 112.219 248.516 113.5 250.156 113.5C 250.992 113.5 251.574 113.18 252.098 112.398L 252.098 113.199L 252.996 113.199L 253 104.703zM 250.278 107.801C 251.328 107.801 251.996 108.746 251.996 110.223C 251.996 111.652 251.321 112.598 250.289 112.598C 249.215 112.598 248.5 111.645 248.5 110.199C 248.5 108.758 249.211 107.801 250.278 107.801z"/>
<path style="stroke:none; fill-rule:evenodd; fill:#000000" d="M 254.598 113.203L 258.465 113.203C 259.274 113.203 259.875 112.984 260.332 112.492C 260.754 112.051 260.989 111.445 260.989 110.781C 260.989 109.758 260.508 109.141 259.387 108.719C 260.172 108.359 260.586 107.73 260.586 106.867C 260.586 106.25 260.352 105.703 259.906 105.305C 259.465 104.898 258.879 104.711 258.055 104.711L 254.586 104.711L 254.598 113.203zM 255.699 108.402L 255.699 105.605L 257.797 105.605C 258.403 105.605 258.739 105.688 259.031 105.918C 259.332 106.156 259.496 106.52 259.496 107.004C 259.496 107.473 259.336 107.848 259.031 108.09C 258.742 108.316 258.403 108.402 257.797 108.402L 255.699 108.402zM 255.699 112.301L 255.699 109.301L 258.36 109.301C 258.887 109.301 259.239 109.43 259.496 109.719C 259.754 109.992 259.895 110.375 259.895 110.805C 259.895 111.223 259.754 111.602 259.496 111.879C 259.239 112.164 258.887 112.297 258.36 112.297L 255.699 112.301z"/>
<path style="stroke:none; fill-rule:evenodd; fill:#000000" d="M 269.801 108.703L 266.203 108.703L 266.203 109.602L 268.801 109.602L 268.801 109.844C 268.801 111.441 267.684 112.598 266.141 112.598C 265.281 112.598 264.504 112.281 264.004 111.723C 263.449 111.109 263.11 110.078 263.11 109.016C 263.11 106.898 264.293 105.504 266.082 105.504C 267.367 105.504 268.297 106.18 268.531 107.297L 269.633 107.297C 269.332 105.59 268.028 104.605 266.082 104.605C 265.047 104.605 264.207 104.871 263.547 105.418C 262.571 106.23 262.012 107.547 262.012 109.074C 262.012 111.68 263.61 113.5 265.906 113.5C 267.059 113.5 267.981 113.066 268.809 112.137L 269.086 113.277L 269.805 113.277L 269.801 108.703z"/>
<path style="stroke:none; fill-rule:evenodd; fill:#000000" d="M 318.414 113.203L 320.75 107.105L 319.66 107.105L 317.942 112.051L 316.317 107.105L 315.227 107.105L 317.363 113.203L 318.414 113.203z"/>
<path style="stroke:none; fill-rule:evenodd; fill:#000000" d="M 321.801 113.203L 325.668 113.203C 326.477 113.203 327.078 112.984 327.535 112.492C 327.957 112.051 328.192 111.445 328.192 110.781C 328.192 109.758 327.711 109.141 326.59 108.719C 327.375 108.359 327.789 107.73 327.789 106.867C 327.789 106.25 327.555 105.703 327.11 105.305C 326.668 104.898 326.082 104.711 325.258 104.711L 321.789 104.711L 321.801 113.203zM 322.899 108.402L 322.899 105.605L 324.996 105.605C 325.602 105.605 325.938 105.688 326.231 105.918C 326.531 106.156 326.696 106.52 326.696 107.004C 326.696 107.473 326.535 107.848 326.231 108.09C 325.942 108.316 325.602 108.402 324.996 108.402L 322.899 108.402zM 322.899 112.301L 322.899 109.301L 325.559 109.301C 326.086 109.301 326.438 109.43 326.696 109.719C 326.953 109.992 327.094 110.375 327.094 110.805C 327.094 111.223 326.953 111.602 326.696 111.879C 326.438 112.164 326.086 112.297 325.559 112.297L 322.899 112.301z"/>
<path style="stroke:none; fill-rule:evenodd; fill:#000000" d="M 336.899 108.703L 333.301 108.703L 333.301 109.602L 335.899 109.602L 335.899 109.844C 335.899 111.441 334.781 112.598 333.239 112.598C 332.379 112.598 331.602 112.281 331.102 111.723C 330.547 111.109 330.207 110.078 330.207 109.016C 330.207 106.898 331.391 105.504 333.18 105.504C 334.465 105.504 335.395 106.18 335.629 107.297L 336.731 107.297C 336.43 105.59 335.125 104.605 333.18 104.605C 332.145 104.605 331.305 104.871 330.645 105.418C 329.668 106.23 329.11 107.547 329.11 109.074C 329.11 111.68 330.707 113.5 333.004 113.5C 334.156 113.5 335.078 113.066 335.906 112.137L 336.184 113.277L 336.903 113.277L 336.899 108.703z"/>
<path style="stroke:none; fill-rule:evenodd; fill:#000000" d="M 197 66.902L 199.696 66.902C 200.363 66.902 200.895 66.707 201.356 66.297C 201.871 65.832 202.098 65.285 202.098 64.504C 202.098 62.906 201.145 62.008 199.446 62.008L 195.899 62.008L 195.899 70.508L 196.996 70.508L 197 66.902zM 197 66L 197 62.902L 199.309 62.902C 200.367 62.902 200.996 63.48 200.996 64.449C 200.996 65.414 200.367 65.996 199.309 65.996L 197 66z"/>
<path style="stroke:none; fill-rule:evenodd; fill:#000000" d="M 210.399 64.652C 210.059 62.805 208.981 61.902 207.106 61.902C 205.961 61.902 205.031 62.262 204.403 62.961C 203.629 63.797 203.207 65.008 203.207 66.383C 203.207 67.777 203.641 68.98 204.446 69.805C 205.098 70.477 205.946 70.793 207.055 70.793C 209.141 70.793 210.313 69.668 210.571 67.402L 209.449 67.402C 209.356 68.004 209.239 68.414 209.067 68.762C 208.719 69.48 207.992 69.891 207.078 69.891C 205.383 69.891 204.309 68.52 204.309 66.367C 204.309 64.156 205.336 62.797 206.989 62.797C 207.676 62.797 208.321 63.008 208.672 63.34C 208.985 63.633 209.16 64 209.289 64.645L 210.399 64.652z"/>
<path style="stroke:#000000; stroke-width:1.93801; fill:none" d="M 220.113 68.035C 220.113 59.473 212.305 52.531 202.672 52.531C 193.039 52.531 185.231 59.469 185.231 68.035C 185.231 76.594 193.039 83.5391 202.672 83.5391C 212.305 83.5391 220.113 76.602 220.113 68.035"/>
<path style="stroke:none; fill-rule:evenodd; fill:#000000" d="M 280.301 40.5L 280.301 44.398L 281.399 44.398L 281.399 35.898L 280.301 35.898L 280.301 39.598L 276.004 39.598L 276.004 35.898L 274.906 35.898L 274.906 44.398L 276.004 44.398L 276.004 40.5L 280.301 40.5z"/>
<path style="stroke:none; fill-rule:evenodd; fill:#000000" d="M 289.996 38.555C 289.656 36.707 288.578 35.805 286.703 35.805C 285.559 35.805 284.629 36.164 284 36.863C 283.227 37.699 282.805 38.91 282.805 40.285C 282.805 41.68 283.239 42.883 284.043 43.707C 284.696 44.379 285.543 44.695 286.653 44.695C 288.739 44.695 289.91 43.57 290.168 41.305L 289.047 41.305C 288.953 41.906 288.836 42.316 288.664 42.664C 288.317 43.383 287.59 43.793 286.676 43.793C 284.981 43.793 283.906 42.422 283.906 40.27C 283.906 38.059 284.934 36.699 286.586 36.699C 287.274 36.699 287.918 36.91 288.27 37.242C 288.582 37.535 288.758 37.902 288.887 38.547L 289.996 38.555z"/>
<path style="stroke:#000000; stroke-width:1.93801; fill:none" d="M 299.571 40.902C 299.571 32.34 291.762 25.398 282.129 25.398C 272.496 25.398 264.688 32.336 264.688 40.902C 264.688 49.461 272.496 56.406 282.129 56.406C 291.762 56.406 299.571 49.469 299.571 40.902"/>
<path style="stroke:#000000; stroke-width:1.93801; fill:none" d="M 276.313 110.672C 276.313 102.109 268.504 95.168 258.871 95.168C 249.239 95.168 241.43 102.105 241.43 110.672C 241.43 119.23 249.239 126.176 258.871 126.176C 268.504 126.176 276.313 119.238 276.313 110.672"/>
<path style="stroke:#000000; stroke-width:1.93801; fill:none" d="M 344.145 110.672C 344.145 102.109 336.336 95.168 326.703 95.168C 317.071 95.168 309.262 102.105 309.262 110.672C 309.262 119.23 317.071 126.176 326.703 126.176C 336.336 126.176 344.145 119.238 344.145 110.672"/>
<path style="stroke:#000000; stroke-width:1.93801; fill:none" d="M 371.278 68.035C 371.278 59.473 363.469 52.531 353.836 52.531C 344.203 52.531 336.395 59.469 336.395 68.035C 336.395 76.594 344.203 83.5391 353.836 83.5391C 363.469 83.5391 371.278 76.602 371.278 68.035"/>
<path style="stroke:none; fill-rule:evenodd; fill:#000000" d="M 348.199 66.602L 352.27 66.602L 352.27 65.703L 348.199 65.703L 348.199 62.906L 352.797 62.906L 352.797 62.008L 347.098 62.008L 347.098 70.508L 348.196 70.508L 348.199 66.602z"/>
<path style="stroke:none; fill-rule:evenodd; fill:#000000" d="M 360.899 64.652C 360.559 62.805 359.481 61.902 357.606 61.902C 356.461 61.902 355.531 62.262 354.903 62.961C 354.129 63.797 353.707 65.008 353.707 66.383C 353.707 67.777 354.141 68.98 354.946 69.805C 355.598 70.477 356.446 70.793 357.555 70.793C 359.641 70.793 360.813 69.668 361.071 67.402L 359.949 67.402C 359.856 68.004 359.739 68.414 359.567 68.762C 359.219 69.48 358.492 69.891 357.578 69.891C 355.883 69.891 354.809 68.52 354.809 66.367C 354.809 64.156 355.836 62.797 357.489 62.797C 358.176 62.797 358.821 63.008 359.172 63.34C 359.485 63.633 359.66 64 359.789 64.645L 360.899 64.652z"/>
<path style="stroke:none; fill-rule:evenodd; fill:#000000" d="M 335.254 29.102C 334.117 30.629 333.399 32.746 333.399 34.578C 333.399 36.418 334.113 38.539 335.254 40.062L 335.879 40.062C 334.863 38.398 334.297 36.441 334.297 34.578C 334.297 32.727 334.86 30.758 335.879 29.102L 335.254 29.102z"/>
<path style="stroke:none; fill-rule:evenodd; fill:#000000" d="M 337.199 31.477L 337.199 37.598L 338.199 37.598L 338.199 33.719C 338.199 32.824 338.824 32.102 339.594 32.102C 340.297 32.102 340.696 32.551 340.696 33.34L 340.696 37.598L 341.696 37.598L 341.696 33.719C 341.696 32.824 342.344 32.102 343.145 32.102C 343.863 32.102 344.289 32.562 344.289 33.34L 344.289 37.598L 345.289 37.598L 345.289 33.008C 345.289 31.91 344.656 31.305 343.512 31.305C 342.696 31.305 342.203 31.555 341.629 32.266C 341.27 31.594 340.778 31.305 339.981 31.305C 339.164 31.305 338.625 31.609 338.098 32.344L 338.098 31.48L 337.199 31.477z"/>
<path style="stroke:none; fill-rule:evenodd; fill:#000000" d="M 349.239 31.301C 347.535 31.301 346.504 32.535 346.504 34.602C 346.504 36.664 347.524 37.898 349.254 37.898C 350.957 37.898 352.004 36.668 352.004 34.648C 352.004 32.523 350.996 31.301 349.242 31.301L 349.239 31.301zM 349.25 32.203C 350.344 32.203 351 33.109 351 34.637C 351 36.082 350.324 37 349.25 37C 348.168 37 347.5 36.098 347.5 34.602C 347.5 33.121 348.164 32.203 349.25 32.203z"/>
<path style="stroke:none; fill-rule:evenodd; fill:#000000" d="M 355.5 31.5L 354.5 31.5L 354.5 29.832L 353.5 29.832L 353.5 31.5L 352.703 31.5L 352.703 32.297L 353.5 32.297L 353.5 36.926C 353.5 37.543 353.926 37.895 354.692 37.895C 354.926 37.895 355.164 37.871 355.496 37.812L 355.496 36.973C 355.371 37.066 355.219 37.098 355.031 37.098C 354.613 37.098 354.5 36.98 354.5 36.543L 354.5 32.301L 355.5 32.301L 355.5 31.5z"/>
<path style="stroke:none; fill-rule:evenodd; fill:#000000" d="M 358.938 31.301C 357.235 31.301 356.203 32.535 356.203 34.602C 356.203 36.664 357.223 37.898 358.953 37.898C 360.656 37.898 361.703 36.668 361.703 34.648C 361.703 32.523 360.696 31.301 358.942 31.301L 358.938 31.301zM 358.949 32.203C 360.043 32.203 360.699 33.109 360.699 34.637C 360.699 36.082 360.024 37 358.949 37C 357.867 37 357.199 36.098 357.199 34.602C 357.199 33.121 357.863 32.203 358.949 32.203z"/>
<path style="stroke:none; fill-rule:evenodd; fill:#000000" d="M 363 31.477L 363 37.598L 364 37.598L 364 34.402C 364 33.523 364.219 32.949 364.676 32.605C 364.973 32.383 365.262 32.312 365.93 32.301L 365.93 31.336C 365.77 31.316 365.688 31.305 365.559 31.305C 364.934 31.305 364.457 31.68 363.899 32.59L 363.899 31.48L 363 31.477z"/>
<path style="stroke:none; fill-rule:evenodd; fill:#000000" d="M 336.5 43.078L 336.5 49.199L 337.5 49.199L 337.5 46.004C 337.5 45.125 337.719 44.551 338.176 44.207C 338.473 43.984 338.762 43.914 339.43 43.902L 339.43 42.938C 339.27 42.918 339.188 42.906 339.059 42.906C 338.434 42.906 337.957 43.281 337.399 44.191L 337.399 43.082L 336.5 43.078z"/>
<path style="stroke:none; fill-rule:evenodd; fill:#000000" d="M 345.598 46.5C 345.598 45.559 345.531 44.992 345.356 44.531C 344.961 43.52 344.031 42.902 342.891 42.902C 341.196 42.902 340.102 44.219 340.102 46.238C 340.102 48.258 341.153 49.5 342.848 49.5C 344.231 49.5 345.192 48.699 345.434 47.352L 344.465 47.352C 344.199 48.172 343.656 48.598 342.883 48.598C 342.274 48.598 341.75 48.32 341.43 47.805C 341.199 47.457 341.121 47.105 341.11 46.5L 345.598 46.5zM 341.098 45.691C 341.176 44.566 341.863 43.832 342.84 43.832C 343.793 43.832 344.524 44.621 344.524 45.621C 344.524 45.641 344.524 45.664 344.512 45.688L 341.098 45.691z"/>
<path style="stroke:none; fill-rule:evenodd; fill:#000000" d="M 351.192 44.809C 351.18 43.594 350.399 42.906 349.008 42.906C 347.61 42.906 346.699 43.645 346.699 44.785C 346.699 45.746 347.176 46.207 348.586 46.559L 349.473 46.781C 350.129 46.941 350.395 47.191 350.395 47.637C 350.395 48.211 349.828 48.598 348.989 48.598C 348.469 48.598 348.031 48.445 347.789 48.184C 347.641 48.008 347.571 47.828 347.516 47.387L 346.5 47.387C 346.543 48.812 347.328 49.5 348.91 49.5C 350.43 49.5 351.403 48.738 351.403 47.551C 351.403 46.637 350.903 46.129 349.719 45.836L 348.809 45.613C 348.035 45.426 347.707 45.168 347.707 44.734C 347.707 44.172 348.199 43.809 348.981 43.809C 349.75 43.809 350.164 44.152 350.184 44.812L 351.192 44.809z"/>
<path style="stroke:none; fill-rule:evenodd; fill:#000000" d="M 352.5 51.738L 353.5 51.738L 353.5 48.605C 354.012 49.227 354.586 49.504 355.379 49.504C 356.953 49.504 357.996 48.227 357.996 46.266C 357.996 44.203 356.989 42.906 355.36 42.906C 354.528 42.906 353.86 43.277 353.403 44.004L 353.403 43.082L 352.504 43.082L 352.5 51.738zM 355.211 43.801C 356.289 43.801 356.992 44.758 356.992 46.234C 356.992 47.641 356.278 48.598 355.211 48.598C 354.18 48.598 353.5 47.652 353.5 46.199C 353.5 44.746 354.18 43.801 355.211 43.801z"/>
<path style="stroke:none; fill-rule:evenodd; fill:#000000" d="M 361.535 42.902C 359.832 42.902 358.801 44.137 358.801 46.203C 358.801 48.266 359.821 49.5 361.551 49.5C 363.254 49.5 364.301 48.27 364.301 46.25C 364.301 44.125 363.293 42.902 361.539 42.902L 361.535 42.902zM 361.551 43.801C 362.645 43.801 363.301 44.707 363.301 46.234C 363.301 47.68 362.625 48.598 361.551 48.598C 360.469 48.598 359.801 47.695 359.801 46.199C 359.801 44.719 360.465 43.801 361.551 43.801z"/>
<path style="stroke:none; fill-rule:evenodd; fill:#000000" d="M 365.598 43.078L 365.598 49.199L 366.598 49.199L 366.598 45.789C 366.598 44.527 367.246 43.699 368.242 43.699C 369.008 43.699 369.492 44.172 369.492 44.914L 369.492 49.195L 370.492 49.195L 370.492 44.57C 370.492 43.555 369.731 42.898 368.543 42.898C 367.625 42.898 367.039 43.25 366.496 44.102L 366.496 43.074L 365.598 43.078z"/>
<path style="stroke:none; fill-rule:evenodd; fill:#000000" d="M 376.391 44.809C 376.379 43.594 375.598 42.906 374.207 42.906C 372.809 42.906 371.899 43.645 371.899 44.785C 371.899 45.746 372.375 46.207 373.785 46.559L 374.672 46.781C 375.328 46.941 375.594 47.191 375.594 47.637C 375.594 48.211 375.028 48.598 374.188 48.598C 373.668 48.598 373.231 48.445 372.989 48.184C 372.84 48.008 372.77 47.828 372.715 47.387L 371.699 47.387C 371.742 48.812 372.528 49.5 374.11 49.5C 375.629 49.5 376.602 48.738 376.602 47.551C 376.602 46.637 376.102 46.129 374.918 45.836L 374.008 45.613C 373.235 45.426 372.906 45.168 372.906 44.734C 372.906 44.172 373.399 43.809 374.18 43.809C 374.949 43.809 375.363 44.152 375.383 44.812L 376.391 44.809z"/>
<path style="stroke:none; fill-rule:evenodd; fill:#000000" d="M 383.098 46.5C 383.098 45.559 383.031 44.992 382.856 44.531C 382.461 43.52 381.531 42.902 380.391 42.902C 378.696 42.902 377.602 44.219 377.602 46.238C 377.602 48.258 378.653 49.5 380.348 49.5C 381.731 49.5 382.692 48.699 382.934 47.352L 381.965 47.352C 381.699 48.172 381.156 48.598 380.383 48.598C 379.774 48.598 379.25 48.32 378.93 47.805C 378.699 47.457 378.621 47.105 378.61 46.5L 383.098 46.5zM 378.598 45.691C 378.676 44.566 379.363 43.832 380.34 43.832C 381.293 43.832 382.024 44.621 382.024 45.621C 382.024 45.641 382.024 45.664 382.012 45.688L 378.598 45.691z"/>
<path style="stroke:none; fill-rule:evenodd; fill:#000000" d="M 384.688 51.668C 385.86 50.145 386.598 48.023 386.598 46.195C 386.598 44.355 385.86 42.234 384.688 40.707L 384.043 40.707C 385.106 42.375 385.699 44.332 385.699 46.195C 385.699 48.047 385.11 50.016 384.043 51.668L 384.688 51.668z"/>
<path style="stroke:#000000; stroke-width:1.93801; fill:none" d="M 218.176 62.223L 264.688 42.844"/>
<path style="stroke:#000000; stroke-width:1.93801; fill:none" d="M 226.074 61.027L 218.176 62.219L 224.582 57.449"/>
<path style="stroke:#000000; stroke-width:1.93801; fill:none" d="M 256.785 44.035L 264.684 42.844L 258.278 47.613"/>
<path style="stroke:#000000; stroke-width:1.93801; fill:none" d="M 220.113 69.973L 336.391 69.973"/>
<path style="stroke:#000000; stroke-width:1.93801; fill:none" d="M 328.641 68.035L 336.391 69.973L 328.641 71.91"/>
<path style="stroke:#000000; stroke-width:1.93801; fill:none" d="M 299.571 44.777L 338.328 60.281"/>
<path style="stroke:#000000; stroke-width:1.93801; fill:none" d="M 331.852 55.605L 338.328 60.281L 330.414 59.203"/>
<path style="stroke:#000000; stroke-width:1.93801; fill:none" d="M 284.067 56.406L 318.949 97.1016"/>
<path style="stroke:#000000; stroke-width:1.93801; fill:none" d="M 315.375 89.957L 318.946 97.1016L 312.43 92.4766"/>
<path style="stroke:#000000; stroke-width:1.93801; fill:none" d="M 214.297 79.6641L 245.305 100.98"/>
<path style="stroke:#000000; stroke-width:1.93801; fill:none" d="M 240.016 94.9922L 245.305 100.977L 237.821 98.1836"/>
<path style="stroke:#000000; stroke-width:1.93801; fill:none" d="M 272.438 100.98L 340.266 77.727"/>
<path style="stroke:#000000; stroke-width:1.93801; fill:none" d="M 332.309 78.406L 340.27 77.727L 333.567 82.0703"/>
<path style="stroke:#000000; stroke-width:1.93801; fill:none" d="M 332.516 95.168L 340.266 77.727"/>
<path style="stroke:#000000; stroke-width:1.93801; fill:none" d="M 335.348 84.0234L 340.266 77.727L 338.891 85.5938"/>
<path style="stroke:#000000; stroke-dasharray:6,3; stroke-width:1.93801; fill:none" d="M 264.688 126.176C 264.688 126.176 264.688 126.176 266.946 127.789C 269.203 129.402 273.727 132.633 278.895 134.57C 284.063 136.508 289.875 137.152 295.367 136.828C 300.856 136.508 306.024 135.215 310.223 133.277C 314.418 131.34 317.649 128.758 319.266 127.465C 320.879 126.176 320.879 126.176 320.879 126.176"/>
<path style="stroke:none; fill-rule:evenodd; fill:#000000" d="M 295.598 130.188L 295.598 129.645C 295.598 129.137 295.727 128.941 296.524 128.207C 297.403 127.422 297.696 126.898 297.696 126.133C 297.696 124.777 296.735 123.906 295.231 123.906C 293.567 123.906 292.699 124.828 292.699 126.609L 293.699 126.609C 293.699 126.078 293.758 125.754 293.895 125.477C 294.113 125.051 294.582 124.809 295.199 124.809C 296.098 124.809 296.692 125.34 296.692 126.129C 296.692 126.66 296.434 127.113 295.813 127.66C 295.121 128.273 295.121 128.273 294.922 128.539C 294.68 128.863 294.594 129.129 294.594 129.547L 294.594 130.184L 295.598 130.188zM 295.598 131.301L 294.598 131.301L 294.598 132.5L 295.598 132.5L 295.598 131.301z"/>
<path style="stroke:none; fill-rule:evenodd; fill:#000000" d="M 344.098 89.5898L 344.098 89.0469C 344.098 88.5391 344.227 88.3438 345.024 87.6094C 345.903 86.8242 346.196 86.3008 346.196 85.5352C 346.196 84.1797 345.235 83.3086 343.731 83.3086C 342.067 83.3086 341.199 84.2305 341.199 86.0117L 342.199 86.0117C 342.199 85.4805 342.258 85.1562 342.395 84.8789C 342.613 84.4531 343.082 84.2109 343.699 84.2109C 344.598 84.2109 345.192 84.7422 345.192 85.5312C 345.192 86.0625 344.934 86.5156 344.313 87.0625C 343.621 87.6758 343.621 87.6758 343.422 87.9414C 343.18 88.2656 343.094 88.5312 343.094 88.9492L 343.094 89.5859L 344.098 89.5898zM 344.098 90.7031L 343.098 90.7031L 343.098 91.9023L 344.098 91.9023L 344.098 90.7031z"/>
<path style="stroke:#000000; stroke-width:1.93801; fill:none" d="M 45.6914 68.035C 45.6914 59.473 37.8828 52.531 28.25 52.531C 18.6172 52.531 10.8086 59.469 10.8086 68.035C 10.8086 76.594 18.6172 83.5391 28.25 83.5391C 37.8828 83.5391 45.6914 76.602 45.6914 68.035"/>
<path style="stroke:none; fill-rule:evenodd; fill:#000000" d="M 100.098 67.602L 100.098 71.5L 101.196 71.5L 101.196 63L 100.098 63L 100.098 66.699L 95.8008 66.699L 95.8008 63L 94.7028 63L 94.7028 71.5L 95.8008 71.5L 95.8008 67.602L 100.098 67.602z"/>
<path style="stroke:none; fill-rule:evenodd; fill:#000000" d="M 109.797 65.652C 109.457 63.805 108.379 62.902 106.504 62.902C 105.36 62.902 104.43 63.262 103.801 63.961C 103.028 64.797 102.606 66.008 102.606 67.383C 102.606 68.777 103.039 69.98 103.844 70.805C 104.496 71.477 105.344 71.793 106.453 71.793C 108.539 71.793 109.711 70.668 109.969 68.402L 108.848 68.402C 108.754 69.004 108.637 69.414 108.465 69.762C 108.117 70.48 107.391 70.891 106.477 70.891C 104.781 70.891 103.707 69.52 103.707 67.367C 103.707 65.156 104.735 63.797 106.387 63.797C 107.074 63.797 107.719 64.008 108.071 64.34C 108.383 64.633 108.559 65 108.688 65.645L 109.797 65.652z"/>
<path style="stroke:#000000; stroke-width:1.93801; fill:none" d="M 119.336 68.035C 119.336 59.473 111.528 52.531 101.895 52.531C 92.2618 52.531 84.4528 59.469 84.4528 68.035C 84.4528 76.594 92.2618 83.5391 101.895 83.5391C 111.528 83.5391 119.336 76.602 119.336 68.035"/>
<path style="stroke:#000000; stroke-dasharray:6,3; stroke-width:1.93801; fill:none" d="M 45.6914 68.035L 84.4488 68.035"/>
<path style="stroke:none; fill-rule:evenodd; fill:#000000" d="M 51.5039 68.035C 51.5039 65.895 49.7696 64.16 47.6289 64.16C 45.4883 64.16 43.7539 65.895 43.7539 68.035C 43.7539 70.176 45.4883 71.91 47.6289 71.91C 49.7696 71.91 51.5039 70.176 51.5039 68.035"/>
<path style="stroke:#000000; stroke-width:1.93801; fill:none" d="M 51.5039 68.035C 51.5039 65.895 49.7696 64.16 47.6289 64.16C 45.4883 64.16 43.7539 65.895 43.7539 68.035C 43.7539 70.176 45.4883 71.91 47.6289 71.91C 49.7696 71.91 51.5039 70.176 51.5039 68.035"/>
<path style="stroke:none; fill-rule:evenodd; fill:#000000" d="M 86.3908 68.035C 86.3908 65.895 84.6558 64.16 82.5158 64.16C 80.3748 64.16 78.6406 65.895 78.6406 68.035C 78.6406 70.176 80.3748 71.91 82.5158 71.91C 84.6558 71.91 86.3908 70.176 86.3908 68.035"/>
<path style="stroke:#000000; stroke-width:1.93801; fill:none" d="M 86.3908 68.035C 86.3908 65.895 84.6558 64.16 82.5158 64.16C 80.3748 64.16 78.6406 65.895 78.6406 68.035C 78.6406 70.176 80.3748 71.91 82.5158 71.91C 84.6558 71.91 86.3908 70.176 86.3908 68.035"/>
<path style="stroke:none; fill-rule:evenodd; fill:#000000" d="M 13.1211 7.93401C 13.0196 8 12.9727 8 12.918 8C 12.5899 8 12.4063 7.82401 12.4063 7.52L 12.4063 3.89101C 12.4063 2.797 11.6133 2.207 10.1133 2.207C 9.2305 2.207 8.4961 2.465 8.086 2.92599C 7.8086 3.242 7.6914 3.59801 7.668 4.211L 8.6367 4.211C 8.7149 3.44901 9.1563 3.10201 10.0547 3.10201C 10.918 3.10201 11.4063 3.42999 11.4063 4.01601L 11.4063 4.27299C 11.4063 4.68401 11.1641 4.85899 10.4063 4.953C 9.0469 5.129 8.8399 5.17599 8.4727 5.328C 7.7735 5.621 7.4141 6.172 7.4141 6.97301C 7.4141 8.086 8.1797 8.793 9.4063 8.793C 10.1719 8.793 10.7852 8.52 11.4688 7.867C 11.5352 8.504 11.836 8.793 12.4649 8.793C 12.6602 8.793 12.8125 8.77 13.125 8.688L 13.1211 7.93401zM 11.3985 6.621C 11.3985 6.957 11.3086 7.16 11.0196 7.438C 10.6289 7.80901 10.1563 8 9.5899 8C 8.8399 8 8.4024 7.629 8.4024 6.992C 8.4024 6.332 8.8281 5.996 9.8555 5.84C 10.8711 5.69901 11.0781 5.64799 11.3985 5.492L 11.3985 6.621z"/>
<path style="stroke:none; fill-rule:evenodd; fill:#000000" d="M 14.4844 10.969C 15.6563 9.44501 16.3946 7.32401 16.3946 5.496C 16.3946 3.65601 15.6563 1.535 14.4844 0.00799561L 13.8399 0.00799561C 14.9024 1.67599 15.4961 3.633 15.4961 5.496C 15.4961 7.34801 14.9063 9.31599 13.8399 10.969L 14.4844 10.969z"/>
<path style="stroke:none; fill-rule:evenodd; fill:#000000" d="M 172.301 0L 172.301 8.5L 173.199 8.5L 173.199 7.72301C 173.664 8.453 174.285 8.80099 175.137 8.80099C 176.746 8.80099 177.797 7.47701 177.797 5.43401C 177.797 3.44099 176.797 2.203 175.188 2.203C 174.352 2.203 173.754 2.52699 173.301 3.23399L 173.301 0.0039978L 172.301 0zM 174.989 3.14101C 176.067 3.14101 176.766 4.082 176.766 5.535C 176.766 6.918 176.047 7.85899 174.989 7.85899C 173.969 7.85899 173.293 6.92999 173.293 5.5C 173.293 4.07001 173.965 3.14101 174.989 3.14101z"/>
<path style="stroke:none; fill-rule:evenodd; fill:#000000" d="M 179.188 10.969C 180.36 9.44501 181.098 7.32401 181.098 5.496C 181.098 3.65601 180.36 1.535 179.188 0.00799561L 178.543 0.00799561C 179.606 1.67599 180.199 3.633 180.199 5.496C 180.199 7.34801 179.61 9.31599 178.543 10.969L 179.188 10.969z"/>
<path style="stroke:#000000; stroke-width:1.93801; fill:none" d="M 80.5548 117.684C 80.5548 109.121 72.7461 102.18 63.1133 102.18C 53.4805 102.18 45.6719 109.117 45.6719 117.684C 45.6719 126.242 53.4805 133.188 63.1133 133.188C 72.7461 133.188 80.5548 126.25 80.5548 117.684"/>
<path style="stroke:none; fill-rule:evenodd; fill:#000000" d="M 57.5 116.301L 61.5703 116.301L 61.5703 115.402L 57.5 115.402L 57.5 112.605L 62.0977 112.605L 62.0977 111.707L 56.3985 111.707L 56.3985 120.207L 57.4961 120.207L 57.5 116.301z"/>
<path style="stroke:none; fill-rule:evenodd; fill:#000000" d="M 70.1953 114.352C 69.8555 112.504 68.7774 111.602 66.9024 111.602C 65.7578 111.602 64.8281 111.961 64.1992 112.66C 63.4258 113.496 63.0039 114.707 63.0039 116.082C 63.0039 117.477 63.4375 118.68 64.2422 119.504C 64.8946 120.176 65.7422 120.492 66.8516 120.492C 68.9375 120.492 70.1094 119.367 70.3672 117.102L 69.2461 117.102C 69.1524 117.703 69.0352 118.113 68.8633 118.461C 68.5156 119.18 67.7891 119.59 66.875 119.59C 65.1797 119.59 64.1055 118.219 64.1055 116.066C 64.1055 113.855 65.1328 112.496 66.7852 112.496C 67.4727 112.496 68.1172 112.707 68.4688 113.039C 68.7813 113.332 68.957 113.699 69.086 114.344L 70.1953 114.352z"/>
<path style="stroke:none; fill-rule:evenodd; fill:#000000" d="M 44.5547 136.102C 43.418 137.629 42.6992 139.746 42.6992 141.578C 42.6992 143.418 43.4141 145.539 44.5547 147.062L 45.1797 147.062C 44.1641 145.398 43.5977 143.441 43.5977 141.578C 43.5977 139.727 44.1602 137.758 45.1797 136.102L 44.5547 136.102z"/>
<path style="stroke:none; fill-rule:evenodd; fill:#000000" d="M 46.5 138.477L 46.5 144.598L 47.5 144.598L 47.5 140.719C 47.5 139.824 48.125 139.102 48.8946 139.102C 49.5977 139.102 49.9961 139.551 49.9961 140.34L 49.9961 144.598L 50.9961 144.598L 50.9961 140.719C 50.9961 139.824 51.6446 139.102 52.4453 139.102C 53.1641 139.102 53.5899 139.562 53.5899 140.34L 53.5899 144.598L 54.5899 144.598L 54.5899 140.008C 54.5899 138.91 53.957 138.305 52.8125 138.305C 51.9961 138.305 51.5039 138.555 50.9297 139.266C 50.5703 138.594 50.0781 138.305 49.2813 138.305C 48.4649 138.305 47.9258 138.609 47.3985 139.344L 47.3985 138.48L 46.5 138.477z"/>
<path style="stroke:none; fill-rule:evenodd; fill:#000000" d="M 58.5352 138.301C 56.832 138.301 55.8008 139.535 55.8008 141.602C 55.8008 143.664 56.8203 144.898 58.5508 144.898C 60.2539 144.898 61.3008 143.668 61.3008 141.648C 61.3008 139.523 60.293 138.301 58.5391 138.301L 58.5352 138.301zM 58.5508 139.203C 59.6446 139.203 60.3008 140.109 60.3008 141.637C 60.3008 143.082 59.625 144 58.5508 144C 57.4688 144 56.8008 143.098 56.8008 141.602C 56.8008 140.121 57.4649 139.203 58.5508 139.203z"/>
<path style="stroke:none; fill-rule:evenodd; fill:#000000" d="M 64.8008 138.5L 63.8008 138.5L 63.8008 136.832L 62.8008 136.832L 62.8008 138.5L 62.0039 138.5L 62.0039 139.297L 62.8008 139.297L 62.8008 143.926C 62.8008 144.543 63.2266 144.895 63.9922 144.895C 64.2266 144.895 64.4649 144.871 64.7969 144.812L 64.7969 143.973C 64.6719 144.066 64.5196 144.098 64.332 144.098C 63.9141 144.098 63.8008 143.98 63.8008 143.543L 63.8008 139.301L 64.8008 139.301L 64.8008 138.5z"/>
<path style="stroke:none; fill-rule:evenodd; fill:#000000" d="M 68.2383 138.301C 66.5352 138.301 65.5039 139.535 65.5039 141.602C 65.5039 143.664 66.5235 144.898 68.2539 144.898C 69.957 144.898 71.0039 143.668 71.0039 141.648C 71.0039 139.523 69.9961 138.301 68.2422 138.301L 68.2383 138.301zM 68.25 139.203C 69.3438 139.203 70 140.109 70 141.637C 70 143.082 69.3242 144 68.25 144C 67.168 144 66.5 143.098 66.5 141.602C 66.5 140.121 67.1641 139.203 68.25 139.203z"/>
<path style="stroke:none; fill-rule:evenodd; fill:#000000" d="M 72.3008 138.477L 72.3008 144.598L 73.3008 144.598L 73.3008 141.402C 73.3008 140.523 73.5196 139.949 73.9766 139.605C 74.2735 139.383 74.5625 139.312 75.2305 139.301L 75.2305 138.336C 75.0703 138.316 74.9883 138.305 74.8594 138.305C 74.2344 138.305 73.7578 138.68 73.1992 139.59L 73.1992 138.48L 72.3008 138.477z"/>
<path style="stroke:none; fill-rule:evenodd; fill:#000000" d="M 45.8008 150.18L 45.8008 156.301L 46.8008 156.301L 46.8008 153.105C 46.8008 152.227 47.0196 151.652 47.4766 151.309C 47.7735 151.086 48.0625 151.016 48.7305 151.004L 48.7305 150.039C 48.5703 150.02 48.4883 150.008 48.3594 150.008C 47.7344 150.008 47.2578 150.383 46.6992 151.293L 46.6992 150.184L 45.8008 150.18z"/>
<path style="stroke:none; fill-rule:evenodd; fill:#000000" d="M 54.8985 153.602C 54.8985 152.66 54.832 152.094 54.6563 151.633C 54.2617 150.621 53.332 150.004 52.1914 150.004C 50.4961 150.004 49.4024 151.32 49.4024 153.34C 49.4024 155.359 50.4531 156.602 52.1485 156.602C 53.5313 156.602 54.4922 155.801 54.7344 154.453L 53.7656 154.453C 53.5 155.273 52.957 155.699 52.1836 155.699C 51.5742 155.699 51.0508 155.422 50.7305 154.906C 50.5 154.559 50.4219 154.207 50.4102 153.602L 54.8985 153.602zM 50.3985 152.789C 50.4766 151.664 51.1641 150.93 52.1406 150.93C 53.0938 150.93 53.8242 151.719 53.8242 152.719C 53.8242 152.738 53.8242 152.762 53.8125 152.785L 50.3985 152.789z"/>
<path style="stroke:none; fill-rule:evenodd; fill:#000000" d="M 60.4922 151.906C 60.4805 150.691 59.6992 150.004 58.3086 150.004C 56.9102 150.004 56 150.742 56 151.883C 56 152.844 56.4766 153.305 57.8867 153.656L 58.7735 153.879C 59.4297 154.039 59.6953 154.289 59.6953 154.734C 59.6953 155.309 59.1289 155.695 58.2891 155.695C 57.7696 155.695 57.332 155.543 57.0899 155.281C 56.9414 155.105 56.8711 154.926 56.8164 154.484L 55.8008 154.484C 55.8438 155.91 56.6289 156.598 58.211 156.598C 59.7305 156.598 60.7031 155.836 60.7031 154.648C 60.7031 153.734 60.2031 153.227 59.0196 152.934L 58.1094 152.711C 57.336 152.523 57.0078 152.266 57.0078 151.832C 57.0078 151.27 57.5 150.906 58.2813 150.906C 59.0508 150.906 59.4649 151.25 59.4844 151.91L 60.4922 151.906z"/>
<path style="stroke:none; fill-rule:evenodd; fill:#000000" d="M 61.8008 158.836L 62.8008 158.836L 62.8008 155.703C 63.3125 156.324 63.8867 156.602 64.6797 156.602C 66.2539 156.602 67.2969 155.324 67.2969 153.363C 67.2969 151.301 66.2891 150.004 64.6602 150.004C 63.8281 150.004 63.1602 150.375 62.7031 151.102L 62.7031 150.18L 61.8047 150.18L 61.8008 158.836zM 64.5117 150.902C 65.5899 150.902 66.293 151.859 66.293 153.336C 66.293 154.742 65.5781 155.699 64.5117 155.699C 63.4805 155.699 62.8008 154.754 62.8008 153.301C 62.8008 151.848 63.4805 150.902 64.5117 150.902z"/>
<path style="stroke:none; fill-rule:evenodd; fill:#000000" d="M 70.7383 150C 69.0352 150 68.0039 151.234 68.0039 153.301C 68.0039 155.363 69.0235 156.598 70.7539 156.598C 72.457 156.598 73.5039 155.367 73.5039 153.348C 73.5039 151.223 72.4961 150 70.7422 150L 70.7383 150zM 70.75 150.902C 71.8438 150.902 72.5 151.809 72.5 153.336C 72.5 154.781 71.8242 155.699 70.75 155.699C 69.668 155.699 69 154.797 69 153.301C 69 151.82 69.6641 150.902 70.75 150.902z"/>
<path style="stroke:none; fill-rule:evenodd; fill:#000000" d="M 74.8985 150.18L 74.8985 156.301L 75.8985 156.301L 75.8985 152.891C 75.8985 151.629 76.5469 150.801 77.543 150.801C 78.3086 150.801 78.793 151.273 78.793 152.016L 78.793 156.297L 79.793 156.297L 79.793 151.672C 79.793 150.656 79.0313 150 77.8438 150C 76.9258 150 76.3399 150.352 75.7969 151.203L 75.7969 150.176L 74.8985 150.18z"/>
<path style="stroke:none; fill-rule:evenodd; fill:#000000" d="M 85.6918 151.906C 85.6798 150.691 84.8988 150.004 83.5078 150.004C 82.1098 150.004 81.1988 150.742 81.1988 151.883C 81.1988 152.844 81.6758 153.305 83.0858 153.656L 83.9728 153.879C 84.6288 154.039 84.8948 154.289 84.8948 154.734C 84.8948 155.309 84.3278 155.695 83.4888 155.695C 82.9688 155.695 82.5308 155.543 82.2888 155.281C 82.1408 155.105 82.0708 154.926 82.0158 154.484L 80.9998 154.484C 81.0428 155.91 81.8278 156.598 83.4098 156.598C 84.9298 156.598 85.9028 155.836 85.9028 154.648C 85.9028 153.734 85.4028 153.227 84.2188 152.934L 83.3088 152.711C 82.5348 152.523 82.2068 152.266 82.2068 151.832C 82.2068 151.27 82.6988 150.906 83.4808 150.906C 84.2498 150.906 84.6638 151.25 84.6838 151.91L 85.6918 151.906z"/>
<path style="stroke:none; fill-rule:evenodd; fill:#000000" d="M 92.3988 153.602C 92.3988 152.66 92.3318 152.094 92.1558 151.633C 91.7618 150.621 90.8318 150.004 89.6918 150.004C 87.9958 150.004 86.9028 151.32 86.9028 153.34C 86.9028 155.359 87.9528 156.602 89.6488 156.602C 91.0308 156.602 91.9918 155.801 92.2348 154.453L 91.2658 154.453C 90.9998 155.273 90.4568 155.699 89.6838 155.699C 89.0738 155.699 88.5508 155.422 88.2308 154.906C 87.9998 154.559 87.9218 154.207 87.9098 153.602L 92.3988 153.602zM 87.8988 152.789C 87.9768 151.664 88.6638 150.93 89.6408 150.93C 90.5938 150.93 91.3238 151.719 91.3238 152.719C 91.3238 152.738 91.3238 152.762 91.3128 152.785L 87.8988 152.789z"/>
<path style="stroke:none; fill-rule:evenodd; fill:#000000" d="M 93.9848 158.766C 95.1558 157.242 95.8948 155.121 95.8948 153.293C 95.8948 151.453 95.1558 149.332 93.9848 147.805L 93.3398 147.805C 94.4028 149.473 94.9958 151.43 94.9958 153.293C 94.9958 155.145 94.4058 157.113 93.3398 158.766L 93.9848 158.766z"/>
<path style="stroke:#000000; stroke-width:1.93801; fill:none" d="M 96.5118 82.8359L 75.4688 105.793"/>
<path style="stroke:#000000; stroke-width:1.93801; fill:none" d="M 82.1288 101.391L 75.4649 105.793L 79.2735 98.7734"/>
<path style="stroke:#000000; stroke-width:1.93801; fill:none" d="M 37.1992 80.9258L 54.418 103.883"/>
<path style="stroke:#000000; stroke-width:1.93801; fill:none" d="M 51.3164 96.5195L 54.4141 103.883L 48.2149 98.8477"/>
<path style="stroke:none; fill-rule:evenodd; fill:#000000" d="M 78.457 27.102C 77.3203 28.629 76.6016 30.746 76.6016 32.578C 76.6016 34.418 77.3164 36.539 78.457 38.062L 79.082 38.062C 78.0664 36.398 77.5 34.441 77.5 32.578C 77.5 30.727 78.0625 28.758 79.082 27.102L 78.457 27.102z"/>
<path style="stroke:none; fill-rule:evenodd; fill:#000000" d="M 85.3008 27.102L 84.3008 27.102L 84.3008 30.273C 83.8948 29.637 83.2418 29.301 82.4258 29.301C 80.8438 29.301 79.8048 30.582 79.8048 32.543C 79.8048 34.617 80.8168 35.898 82.4568 35.898C 83.2928 35.898 83.8748 35.578 84.3988 34.797L 84.3988 35.598L 85.2968 35.598L 85.3008 27.102zM 82.5778 30.203C 83.6288 30.203 84.2968 31.148 84.2968 32.625C 84.2968 34.055 83.6208 35 82.5898 35C 81.5158 35 80.8008 34.047 80.8008 32.602C 80.8008 31.16 81.5118 30.203 82.5778 30.203z"/>
<path style="stroke:none; fill-rule:evenodd; fill:#000000" d="M 91.9998 32.902C 91.9998 31.961 91.9338 31.395 91.7578 30.934C 91.3628 29.922 90.4338 29.305 89.2928 29.305C 87.5978 29.305 86.5038 30.621 86.5038 32.641C 86.5038 34.66 87.5548 35.902 89.2498 35.902C 90.6328 35.902 91.5938 35.102 91.8358 33.754L 90.8668 33.754C 90.6018 34.574 90.0588 35 89.2848 35C 88.6758 35 88.1528 34.723 87.8318 34.207C 87.6018 33.859 87.5238 33.508 87.5118 32.902L 91.9998 32.902zM 87.4998 32.09C 87.5778 30.965 88.2658 30.23 89.2418 30.23C 90.1958 30.23 90.9258 31.02 90.9258 32.02C 90.9258 32.039 90.9258 32.062 90.9138 32.086L 87.4998 32.09z"/>
<path style="stroke:none; fill-rule:evenodd; fill:#000000" d="M 97.9768 31.555C 97.9298 30.945 97.8048 30.551 97.5738 30.203C 97.1598 29.641 96.4338 29.305 95.5938 29.305C 93.9688 29.305 92.9058 30.621 92.9058 32.664C 92.9058 34.645 93.9418 35.902 95.5818 35.902C 97.0238 35.902 97.9338 35.02 98.0508 33.512L 97.0818 33.512C 96.9218 34.504 96.4258 35.004 95.6058 35.004C 94.5468 35.004 93.9098 34.125 93.9098 32.664C 93.9098 31.125 94.5308 30.207 95.5818 30.207C 96.3908 30.207 96.8948 30.691 97.0118 31.559L 97.9768 31.555z"/>
<path style="stroke:none; fill-rule:evenodd; fill:#000000" d="M 99.0978 35.602L 100.098 35.602L 100.098 27.102L 99.0978 27.102L 99.0978 35.602z"/>
<path style="stroke:none; fill-rule:evenodd; fill:#000000" d="M 107.121 35.031C 107.02 35.098 106.973 35.098 106.918 35.098C 106.59 35.098 106.406 34.922 106.406 34.617L 106.406 30.988C 106.406 29.895 105.613 29.305 104.113 29.305C 103.231 29.305 102.496 29.562 102.086 30.023C 101.809 30.34 101.692 30.695 101.668 31.309L 102.637 31.309C 102.715 30.547 103.156 30.199 104.055 30.199C 104.918 30.199 105.406 30.527 105.406 31.113L 105.406 31.371C 105.406 31.781 105.164 31.957 104.406 32.051C 103.047 32.227 102.84 32.273 102.473 32.426C 101.774 32.719 101.414 33.27 101.414 34.07C 101.414 35.184 102.18 35.891 103.406 35.891C 104.172 35.891 104.785 35.617 105.469 34.965C 105.535 35.602 105.836 35.891 106.465 35.891C 106.66 35.891 106.813 35.867 107.125 35.785L 107.121 35.031zM 105.399 33.719C 105.399 34.055 105.309 34.258 105.02 34.535C 104.629 34.906 104.156 35.098 103.59 35.098C 102.84 35.098 102.403 34.727 102.403 34.09C 102.403 33.43 102.828 33.094 103.856 32.938C 104.871 32.797 105.078 32.746 105.399 32.59L 105.399 33.719z"/>
<path style="stroke:none; fill-rule:evenodd; fill:#000000" d="M 108.098 29.477L 108.098 35.598L 109.098 35.598L 109.098 32.402C 109.098 31.523 109.317 30.949 109.774 30.605C 110.071 30.383 110.36 30.312 111.028 30.301L 111.028 29.336C 110.867 29.316 110.785 29.305 110.656 29.305C 110.031 29.305 109.555 29.68 108.996 30.59L 108.996 29.48L 108.098 29.477z"/>
<path style="stroke:none; fill-rule:evenodd; fill:#000000" d="M 117.418 35.031C 117.317 35.098 117.27 35.098 117.215 35.098C 116.887 35.098 116.703 34.922 116.703 34.617L 116.703 30.988C 116.703 29.895 115.91 29.305 114.41 29.305C 113.528 29.305 112.793 29.562 112.383 30.023C 112.106 30.34 111.989 30.695 111.965 31.309L 112.934 31.309C 113.012 30.547 113.453 30.199 114.352 30.199C 115.215 30.199 115.703 30.527 115.703 31.113L 115.703 31.371C 115.703 31.781 115.461 31.957 114.703 32.051C 113.344 32.227 113.137 32.273 112.77 32.426C 112.071 32.719 111.711 33.27 111.711 34.07C 111.711 35.184 112.477 35.891 113.703 35.891C 114.469 35.891 115.082 35.617 115.766 34.965C 115.832 35.602 116.133 35.891 116.762 35.891C 116.957 35.891 117.11 35.867 117.422 35.785L 117.418 35.031zM 115.699 33.719C 115.699 34.055 115.61 34.258 115.321 34.535C 114.93 34.906 114.457 35.098 113.891 35.098C 113.141 35.098 112.703 34.727 112.703 34.09C 112.703 33.43 113.129 33.094 114.156 32.938C 115.172 32.797 115.379 32.746 115.699 32.59L 115.699 33.719z"/>
<path style="stroke:none; fill-rule:evenodd; fill:#000000" d="M 120.699 29.5L 119.699 29.5L 119.699 27.832L 118.699 27.832L 118.699 29.5L 117.903 29.5L 117.903 30.297L 118.699 30.297L 118.699 34.926C 118.699 35.543 119.125 35.895 119.891 35.895C 120.125 35.895 120.363 35.871 120.696 35.812L 120.696 34.973C 120.571 35.066 120.418 35.098 120.231 35.098C 119.813 35.098 119.699 34.98 119.699 34.543L 119.699 30.301L 120.699 30.301L 120.699 29.5z"/>
<path style="stroke:none; fill-rule:evenodd; fill:#000000" d="M 122.699 29.5L 121.699 29.5L 121.699 35.598L 122.699 35.598L 122.699 29.5zM 122.699 27.102L 121.699 27.102L 121.699 28.344L 122.699 28.344L 122.699 27.102z"/>
<path style="stroke:none; fill-rule:evenodd; fill:#000000" d="M 126.813 35.602L 129.149 29.504L 128.059 29.504L 126.34 34.449L 124.715 29.504L 123.625 29.504L 125.762 35.602L 126.813 35.602z"/>
<path style="stroke:none; fill-rule:evenodd; fill:#000000" d="M 135.301 32.902C 135.301 31.961 135.235 31.395 135.059 30.934C 134.664 29.922 133.735 29.305 132.594 29.305C 130.899 29.305 129.805 30.621 129.805 32.641C 129.805 34.66 130.856 35.902 132.551 35.902C 133.934 35.902 134.895 35.102 135.137 33.754L 134.168 33.754C 133.903 34.574 133.36 35 132.586 35C 131.977 35 131.453 34.723 131.133 34.207C 130.903 33.859 130.824 33.508 130.813 32.902L 135.301 32.902zM 130.801 32.09C 130.879 30.965 131.567 30.23 132.543 30.23C 133.496 30.23 134.227 31.02 134.227 32.02C 134.227 32.039 134.227 32.062 134.215 32.086L 130.801 32.09z"/>
<path style="stroke:none; fill-rule:evenodd; fill:#000000" d="M 79.6992 41.078L 79.6992 47.199L 80.6988 47.199L 80.6988 43.32C 80.6988 42.426 81.3238 41.703 82.0938 41.703C 82.7968 41.703 83.1958 42.152 83.1958 42.941L 83.1958 47.199L 84.1958 47.199L 84.1958 43.32C 84.1958 42.426 84.8438 41.703 85.6448 41.703C 86.3628 41.703 86.7888 42.164 86.7888 42.941L 86.7888 47.199L 87.7888 47.199L 87.7888 42.609C 87.7888 41.512 87.1558 40.906 86.0118 40.906C 85.1958 40.906 84.7028 41.156 84.1288 41.867C 83.7698 41.195 83.2778 40.906 82.4808 40.906C 81.6638 40.906 81.1248 41.211 80.5978 41.945L 80.5978 41.082L 79.6992 41.078z"/>
<path style="stroke:none; fill-rule:evenodd; fill:#000000" d="M 94.5978 44.5C 94.5978 43.559 94.5308 42.992 94.3558 42.531C 93.9608 41.52 93.0308 40.902 91.8908 40.902C 90.1958 40.902 89.1018 42.219 89.1018 44.238C 89.1018 46.258 90.1528 47.5 91.8478 47.5C 93.2308 47.5 94.1918 46.699 94.4338 45.352L 93.4648 45.352C 93.1988 46.172 92.6558 46.598 91.8828 46.598C 91.2738 46.598 90.7498 46.32 90.4298 45.805C 90.1988 45.457 90.1208 45.105 90.1098 44.5L 94.5978 44.5zM 90.0978 43.691C 90.1758 42.566 90.8628 41.832 91.8398 41.832C 92.7928 41.832 93.5238 42.621 93.5238 43.621C 93.5238 43.641 93.5238 43.664 93.5118 43.688L 90.0978 43.691z"/>
<path style="stroke:none; fill-rule:evenodd; fill:#000000" d="M 95.8008 41.078L 95.8008 47.199L 96.8008 47.199L 96.8008 43.32C 96.8008 42.426 97.4258 41.703 98.1958 41.703C 98.8988 41.703 99.2968 42.152 99.2968 42.941L 99.2968 47.199L 100.297 47.199L 100.297 43.32C 100.297 42.426 100.946 41.703 101.746 41.703C 102.465 41.703 102.891 42.164 102.891 42.941L 102.891 47.199L 103.891 47.199L 103.891 42.609C 103.891 41.512 103.258 40.906 102.113 40.906C 101.297 40.906 100.805 41.156 100.231 41.867C 99.8708 41.195 99.3788 40.906 98.5818 40.906C 97.7658 40.906 97.2268 41.211 96.6988 41.945L 96.6988 41.082L 95.8008 41.078z"/>
<path style="stroke:none; fill-rule:evenodd; fill:#000000" d="M 107.836 40.902C 106.133 40.902 105.102 42.137 105.102 44.203C 105.102 46.266 106.121 47.5 107.852 47.5C 109.555 47.5 110.602 46.27 110.602 44.25C 110.602 42.125 109.594 40.902 107.84 40.902L 107.836 40.902zM 107.848 41.801C 108.942 41.801 109.598 42.707 109.598 44.234C 109.598 45.68 108.922 46.598 107.848 46.598C 106.766 46.598 106.098 45.695 106.098 44.199C 106.098 42.719 106.762 41.801 107.848 41.801z"/>
<path style="stroke:none; fill-rule:evenodd; fill:#000000" d="M 112 41.078L 112 47.199L 113 47.199L 113 44.004C 113 43.125 113.219 42.551 113.676 42.207C 113.973 41.984 114.262 41.914 114.93 41.902L 114.93 40.938C 114.77 40.918 114.688 40.906 114.559 40.906C 113.934 40.906 113.457 41.281 112.899 42.191L 112.899 41.082L 112 41.078z"/>
<path style="stroke:none; fill-rule:evenodd; fill:#000000" d="M 119.61 41.102L 117.926 45.852L 116.371 41.102L 115.34 41.102L 117.395 47.238L 117.024 48.203C 116.875 48.633 116.653 48.797 116.246 48.797C 116.11 48.797 115.946 48.77 115.735 48.711L 115.735 49.551C 115.93 49.648 116.129 49.695 116.383 49.695C 116.696 49.695 117.031 49.594 117.289 49.406C 117.59 49.188 117.766 48.934 117.949 48.445L 120.656 41.098L 119.61 41.102z"/>
<path style="stroke:none; fill-rule:evenodd; fill:#000000" d="M 121.985 49.668C 123.156 48.145 123.895 46.023 123.895 44.195C 123.895 42.355 123.156 40.234 121.985 38.707L 121.34 38.707C 122.403 40.375 122.996 42.332 122.996 44.195C 122.996 46.047 122.406 48.016 121.34 49.668L 121.985 49.668z"/>
<path style="stroke:none; fill-rule:evenodd; fill:#000000" d="M 21.3985 70.5L 25.2656 70.5C 26.0742 70.5 26.6758 70.281 27.1328 69.789C 27.5547 69.348 27.7891 68.742 27.7891 68.078C 27.7891 67.055 27.3086 66.438 26.1875 66.016C 26.9727 65.656 27.3867 65.027 27.3867 64.164C 27.3867 63.547 27.1524 63 26.707 62.602C 26.2656 62.195 25.6797 62.008 24.8555 62.008L 21.3867 62.008L 21.3985 70.5zM 22.5 65.703L 22.5 62.906L 24.5977 62.906C 25.2031 62.906 25.5391 62.988 25.832 63.219C 26.1328 63.457 26.2969 63.82 26.2969 64.305C 26.2969 64.773 26.1367 65.148 25.832 65.391C 25.543 65.617 25.2031 65.703 24.5977 65.703L 22.5 65.703zM 22.5 69.602L 22.5 66.602L 25.1602 66.602C 25.6875 66.602 26.0391 66.73 26.2969 67.02C 26.5547 67.293 26.6953 67.676 26.6953 68.105C 26.6953 68.523 26.5547 68.902 26.2969 69.18C 26.0391 69.465 25.6875 69.598 25.1602 69.598L 22.5 69.602z"/>
<path style="stroke:none; fill-rule:evenodd; fill:#000000" d="M 36.5977 66L 33 66L 33 66.898L 35.5977 66.898L 35.5977 67.141C 35.5977 68.738 34.4805 69.895 32.9375 69.895C 32.0781 69.895 31.3008 69.578 30.8008 69.02C 30.2461 68.406 29.9063 67.375 29.9063 66.312C 29.9063 64.195 31.0899 62.801 32.8789 62.801C 34.1641 62.801 35.0938 63.477 35.3281 64.594L 36.4297 64.594C 36.1289 62.887 34.8242 61.902 32.8789 61.902C 31.8438 61.902 31.0039 62.168 30.3438 62.715C 29.3672 63.527 28.8086 64.844 28.8086 66.371C 28.8086 68.977 30.4063 70.797 32.7031 70.797C 33.8555 70.797 34.7774 70.363 35.6055 69.434L 35.8828 70.574L 36.6016 70.574L 36.5977 66z"/>
<path style="stroke:none; fill-rule:evenodd; fill:#000000" d="M 1.8555 27.102C 0.7188 28.629 0 30.746 0 32.578C 0 34.418 0.714901 36.539 1.8555 38.062L 2.4805 38.062C 1.4649 36.398 0.8985 34.441 0.8985 32.578C 0.8985 30.727 1.461 28.758 2.4805 27.102L 1.8555 27.102z"/>
<path style="stroke:none; fill-rule:evenodd; fill:#000000" d="M 3.5 38.137L 4.5 38.137L 4.5 35.004C 5.0117 35.625 5.586 35.902 6.3789 35.902C 7.9531 35.902 8.9961 34.625 8.9961 32.664C 8.9961 30.602 7.9883 29.305 6.3594 29.305C 5.5274 29.305 4.8594 29.676 4.4024 30.402L 4.4024 29.48L 3.5039 29.48L 3.5 38.137zM 6.211 30.203C 7.2891 30.203 7.9922 31.16 7.9922 32.637C 7.9922 34.043 7.2774 35 6.211 35C 5.1797 35 4.5 34.055 4.5 32.602C 4.5 31.148 5.1797 30.203 6.211 30.203z"/>
<path style="stroke:none; fill-rule:evenodd; fill:#000000" d="M 10.1992 29.477L 10.1992 35.598L 11.1992 35.598L 11.1992 32.402C 11.1992 31.523 11.418 30.949 11.875 30.605C 12.1719 30.383 12.461 30.312 13.1289 30.301L 13.1289 29.336C 12.9688 29.316 12.8867 29.305 12.7578 29.305C 12.1328 29.305 11.6563 29.68 11.0977 30.59L 11.0977 29.48L 10.1992 29.477z"/>
<path style="stroke:none; fill-rule:evenodd; fill:#000000" d="M 16.4375 29.301C 14.7344 29.301 13.7031 30.535 13.7031 32.602C 13.7031 34.664 14.7227 35.898 16.4531 35.898C 18.1563 35.898 19.2031 34.668 19.2031 32.648C 19.2031 30.523 18.1953 29.301 16.4414 29.301L 16.4375 29.301zM 16.4492 30.203C 17.543 30.203 18.1992 31.109 18.1992 32.637C 18.1992 34.082 17.5235 35 16.4492 35C 15.3672 35 14.6992 34.098 14.6992 32.602C 14.6992 31.121 15.3633 30.203 16.4492 30.203z"/>
<path style="stroke:none; fill-rule:evenodd; fill:#000000" d="M 25.1758 31.555C 25.1289 30.945 25.0039 30.551 24.7735 30.203C 24.3594 29.641 23.6328 29.305 22.793 29.305C 21.168 29.305 20.1055 30.621 20.1055 32.664C 20.1055 34.645 21.1406 35.902 22.7813 35.902C 24.2227 35.902 25.1328 35.02 25.25 33.512L 24.2813 33.512C 24.1211 34.504 23.625 35.004 22.8047 35.004C 21.7461 35.004 21.1094 34.125 21.1094 32.664C 21.1094 31.125 21.7305 30.207 22.7813 30.207C 23.5899 30.207 24.0938 30.691 24.211 31.559L 25.1758 31.555z"/>
<path style="stroke:none; fill-rule:evenodd; fill:#000000" d="M 31.5 32.902C 31.5 31.961 31.4336 31.395 31.2578 30.934C 30.8633 29.922 29.9336 29.305 28.793 29.305C 27.0977 29.305 26.0039 30.621 26.0039 32.641C 26.0039 34.66 27.0547 35.902 28.75 35.902C 30.1328 35.902 31.0938 35.102 31.336 33.754L 30.3672 33.754C 30.1016 34.574 29.5586 35 28.7852 35C 28.1758 35 27.6524 34.723 27.332 34.207C 27.1016 33.859 27.0235 33.508 27.0117 32.902L 31.5 32.902zM 27 32.09C 27.0781 30.965 27.7656 30.23 28.7422 30.23C 29.6953 30.23 30.4258 31.02 30.4258 32.02C 30.4258 32.039 30.4258 32.062 30.4141 32.086L 27 32.09z"/>
<path style="stroke:none; fill-rule:evenodd; fill:#000000" d="M 37.8008 27.102L 36.8008 27.102L 36.8008 30.273C 36.3946 29.637 35.7422 29.301 34.9258 29.301C 33.3438 29.301 32.3047 30.582 32.3047 32.543C 32.3047 34.617 33.3164 35.898 34.957 35.898C 35.793 35.898 36.375 35.578 36.8985 34.797L 36.8985 35.598L 37.7969 35.598L 37.8008 27.102zM 35.0781 30.203C 36.1289 30.203 36.7969 31.148 36.7969 32.625C 36.7969 34.055 36.1211 35 35.0899 35C 34.0156 35 33.3008 34.047 33.3008 32.602C 33.3008 31.16 34.0117 30.203 35.0781 30.203z"/>
<path style="stroke:none; fill-rule:evenodd; fill:#000000" d="M 44.0977 35.633L 44.0977 29.504L 43.0977 29.504L 43.0977 33.012C 43.0977 34.273 42.4531 35.102 41.4492 35.102C 40.6875 35.102 40.2031 34.633 40.2031 33.887L 40.2031 29.504L 39.2031 29.504L 39.2031 34.23C 39.2031 35.246 39.961 35.902 41.1524 35.902C 42.0508 35.902 42.625 35.59 43.1992 34.781L 43.1992 35.633L 44.0977 35.633z"/>
<path style="stroke:none; fill-rule:evenodd; fill:#000000" d="M 45.6992 29.477L 45.6992 35.598L 46.6992 35.598L 46.6992 32.402C 46.6992 31.523 46.918 30.949 47.375 30.605C 47.6719 30.383 47.961 30.312 48.6289 30.301L 48.6289 29.336C 48.4688 29.316 48.3867 29.305 48.2578 29.305C 47.6328 29.305 47.1563 29.68 46.5977 30.59L 46.5977 29.48L 45.6992 29.477z"/>
<path style="stroke:none; fill-rule:evenodd; fill:#000000" d="M 55.0196 35.031C 54.918 35.098 54.8711 35.098 54.8164 35.098C 54.4883 35.098 54.3047 34.922 54.3047 34.617L 54.3047 30.988C 54.3047 29.895 53.5117 29.305 52.0117 29.305C 51.1289 29.305 50.3946 29.562 49.9844 30.023C 49.707 30.34 49.5899 30.695 49.5664 31.309L 50.5352 31.309C 50.6133 30.547 51.0547 30.199 51.9531 30.199C 52.8164 30.199 53.3047 30.527 53.3047 31.113L 53.3047 31.371C 53.3047 31.781 53.0625 31.957 52.3047 32.051C 50.9453 32.227 50.7383 32.273 50.3711 32.426C 49.6719 32.719 49.3125 33.27 49.3125 34.07C 49.3125 35.184 50.0781 35.891 51.3047 35.891C 52.0703 35.891 52.6836 35.617 53.3672 34.965C 53.4336 35.602 53.7344 35.891 54.3633 35.891C 54.5586 35.891 54.711 35.867 55.0235 35.785L 55.0196 35.031zM 53.3008 33.719C 53.3008 34.055 53.211 34.258 52.9219 34.535C 52.5313 34.906 52.0586 35.098 51.4922 35.098C 50.7422 35.098 50.3047 34.727 50.3047 34.09C 50.3047 33.43 50.7305 33.094 51.7578 32.938C 52.7735 32.797 52.9805 32.746 53.3008 32.59L 53.3008 33.719z"/>
<path style="stroke:none; fill-rule:evenodd; fill:#000000" d="M 56.0977 35.602L 57.0977 35.602L 57.0977 27.102L 56.0977 27.102L 56.0977 35.602z"/>
<path style="stroke:none; fill-rule:evenodd; fill:#000000" d="M 3.0977 41.078L 3.0977 47.199L 4.0977 47.199L 4.0977 43.32C 4.0977 42.426 4.7227 41.703 5.4922 41.703C 6.1953 41.703 6.5938 42.152 6.5938 42.941L 6.5938 47.199L 7.5938 47.199L 7.5938 43.32C 7.5938 42.426 8.2422 41.703 9.043 41.703C 9.7617 41.703 10.1875 42.164 10.1875 42.941L 10.1875 47.199L 11.1875 47.199L 11.1875 42.609C 11.1875 41.512 10.5547 40.906 9.4102 40.906C 8.5938 40.906 8.1016 41.156 7.5274 41.867C 7.168 41.195 6.6758 40.906 5.8789 40.906C 5.0625 40.906 4.5235 41.211 3.9961 41.945L 3.9961 41.082L 3.0977 41.078z"/>
<path style="stroke:none; fill-rule:evenodd; fill:#000000" d="M 18 44.5C 18 43.559 17.9336 42.992 17.7578 42.531C 17.3633 41.52 16.4336 40.902 15.293 40.902C 13.5977 40.902 12.5039 42.219 12.5039 44.238C 12.5039 46.258 13.5547 47.5 15.25 47.5C 16.6328 47.5 17.5938 46.699 17.836 45.352L 16.8672 45.352C 16.6016 46.172 16.0586 46.598 15.2852 46.598C 14.6758 46.598 14.1524 46.32 13.832 45.805C 13.6016 45.457 13.5235 45.105 13.5117 44.5L 18 44.5zM 13.5 43.691C 13.5781 42.566 14.2656 41.832 15.2422 41.832C 16.1953 41.832 16.9258 42.621 16.9258 43.621C 16.9258 43.641 16.9258 43.664 16.9141 43.688L 13.5 43.691z"/>
<path style="stroke:none; fill-rule:evenodd; fill:#000000" d="M 19.1992 41.078L 19.1992 47.199L 20.1992 47.199L 20.1992 43.32C 20.1992 42.426 20.8242 41.703 21.5938 41.703C 22.2969 41.703 22.6953 42.152 22.6953 42.941L 22.6953 47.199L 23.6953 47.199L 23.6953 43.32C 23.6953 42.426 24.3438 41.703 25.1446 41.703C 25.8633 41.703 26.2891 42.164 26.2891 42.941L 26.2891 47.199L 27.2891 47.199L 27.2891 42.609C 27.2891 41.512 26.6563 40.906 25.5117 40.906C 24.6953 40.906 24.2031 41.156 23.6289 41.867C 23.2696 41.195 22.7774 40.906 21.9805 40.906C 21.1641 40.906 20.625 41.211 20.0977 41.945L 20.0977 41.082L 19.1992 41.078z"/>
<path style="stroke:none; fill-rule:evenodd; fill:#000000" d="M 31.2383 40.902C 29.5352 40.902 28.5039 42.137 28.5039 44.203C 28.5039 46.266 29.5235 47.5 31.2539 47.5C 32.957 47.5 34.0039 46.27 34.0039 44.25C 34.0039 42.125 32.9961 40.902 31.2422 40.902L 31.2383 40.902zM 31.25 41.801C 32.3438 41.801 33 42.707 33 44.234C 33 45.68 32.3242 46.598 31.25 46.598C 30.168 46.598 29.5 45.695 29.5 44.199C 29.5 42.719 30.1641 41.801 31.25 41.801z"/>
<path style="stroke:none; fill-rule:evenodd; fill:#000000" d="M 35.3985 41.078L 35.3985 47.199L 36.3985 47.199L 36.3985 44.004C 36.3985 43.125 36.6172 42.551 37.0742 42.207C 37.3711 41.984 37.6602 41.914 38.3281 41.902L 38.3281 40.938C 38.168 40.918 38.086 40.906 37.957 40.906C 37.332 40.906 36.8555 41.281 36.2969 42.191L 36.2969 41.082L 35.3985 41.078z"/>
<path style="stroke:none; fill-rule:evenodd; fill:#000000" d="M 43.0117 41.102L 41.3281 45.852L 39.7735 41.102L 38.7422 41.102L 40.7969 47.238L 40.4258 48.203C 40.2774 48.633 40.0547 48.797 39.6485 48.797C 39.5117 48.797 39.3477 48.77 39.1367 48.711L 39.1367 49.551C 39.332 49.648 39.5313 49.695 39.7852 49.695C 40.0977 49.695 40.4336 49.594 40.6914 49.406C 40.9922 49.188 41.168 48.934 41.3516 48.445L 44.0586 41.098L 43.0117 41.102z"/>
<path style="stroke:none; fill-rule:evenodd; fill:#000000" d="M 45.3867 49.668C 46.5586 48.145 47.2969 46.023 47.2969 44.195C 47.2969 42.355 46.5586 40.234 45.3867 38.707L 44.7422 38.707C 45.8047 40.375 46.3985 42.332 46.3985 44.195C 46.3985 46.047 45.8086 48.016 44.7422 49.668L 45.3867 49.668z"/>
</g>
</svg>