<?xml version="1.0" encoding="ISO-8859-1" standalone="yes"?>
<svg width="165.734" height="143.957">
  <defs> 
    <marker id="ArrowEnd" viewBox="0 0 10 10" refX="0" refY="5" 
     markerUnits="strokeWidth" 
     markerWidth="4" 
     markerHeight="3" 
     orient="auto"> 
        <path d="M 0 0 L 10 5 L 0 10 z" /> 
    </marker>
    <marker id="ArrowStart" viewBox="0 0 10 10" refX="10" refY="5" 
     markerUnits="strokeWidth" 
     markerWidth="4" 
     markerHeight="3" 
     orient="auto"> 
        <path d="M 10 0 L 0 5 L 10 10 z" /> 
    </marker> </defs>
<g>
<path style="stroke:#000000; stroke-width:0.95664899999999997; fill:none" d="M 160.721 71.9786C 160.721 34.9986 129.885 5.01364 91.8416 5.01364C 53.8029 5.01364 22.963 34.9946 22.963 71.9786C 22.963 108.959 53.799 138.943 91.8416 138.943C 129.881 138.943 160.721 108.963 160.721 71.9786"/>
<path style="stroke:none; fill-rule:evenodd; fill:#ffa400" d="M 79.213 58.5836C 79.213 56.0486 77.1584 53.9946 74.6232 53.9946C 72.088 53.9946 70.0334 56.0486 70.0334 58.5836C 70.0334 61.1196 72.088 63.1736 74.6232 63.1736C 77.1584 63.1736 79.213 61.1196 79.213 58.5836"/>
<path style="stroke:#000000; stroke-width:0.95664899999999997; fill:none" d="M 79.213 58.5836C 79.213 56.0486 77.1584 53.9946 74.6232 53.9946C 72.088 53.9946 70.0334 56.0486 70.0334 58.5836C 70.0334 61.1196 72.088 63.1736 74.6232 63.1736C 77.1584 63.1736 79.213 61.1196 79.213 58.5836"/>
<path style="stroke:none; fill-rule:evenodd; fill:#ffa400" d="M 79.213 85.3731C 79.213 82.838 77.1584 80.7833 74.6232 80.7833C 72.088 80.7833 70.0334 82.838 70.0334 85.3731C 70.0334 87.9083 72.088 89.963 74.6232 89.963C 77.1584 89.963 79.213 87.9083 79.213 85.3731"/>
<path style="stroke:#000000; stroke-width:0.95664899999999997; fill:none" d="M 79.213 85.3731C 79.213 82.838 77.1584 80.7833 74.6232 80.7833C 72.088 80.7833 70.0334 82.838 70.0334 85.3731C 70.0334 87.9083 72.088 89.963 74.6232 89.963C 77.1584 89.963 79.213 87.9083 79.213 85.3731"/>
<path style="stroke:none; fill-rule:evenodd; fill:#ffa400" d="M 90.6936 98.7638C 90.6936 96.2286 88.6388 94.1739 86.1037 94.1739C 83.5685 94.1739 81.5138 96.2286 81.5138 98.7638C 81.5138 101.299 83.5685 103.354 86.1037 103.354C 88.6388 103.354 90.6936 101.299 90.6936 98.7638"/>
<path style="stroke:#000000; stroke-width:0.95664899999999997; fill:none" d="M 90.6936 98.7638C 90.6936 96.2286 88.6388 94.1739 86.1037 94.1739C 83.5685 94.1739 81.5138 96.2286 81.5138 98.7638C 81.5138 101.299 83.5685 103.354 86.1037 103.354C 88.6388 103.354 90.6936 101.299 90.6936 98.7638"/>
<path style="stroke:none; fill-rule:evenodd; fill:#ffff00" d="M 67.7365 45.1936C 67.7365 42.6586 65.6818 40.6036 63.1466 40.6036C 60.6115 40.6036 58.5568 42.6586 58.5568 45.1936C 58.5568 47.7286 60.6115 49.7836 63.1466 49.7836C 65.6818 49.7836 67.7365 47.7286 67.7365 45.1936"/>
<path style="stroke:#000000; stroke-width:0.95664899999999997; fill:none" d="M 67.7365 45.1936C 67.7365 42.6586 65.6818 40.6036 63.1466 40.6036C 60.6115 40.6036 58.5568 42.6586 58.5568 45.1936C 58.5568 47.7286 60.6115 49.7836 63.1466 49.7836C 65.6818 49.7836 67.7365 47.7286 67.7365 45.1936"/>
<path style="stroke:none; fill-rule:evenodd; fill:#ffff00" d="M 67.7365 98.7638C 67.7365 96.2286 65.6818 94.1739 63.1466 94.1739C 60.6115 94.1739 58.5568 96.2286 58.5568 98.7638C 58.5568 101.299 60.6115 103.354 63.1466 103.354C 65.6818 103.354 67.7365 101.299 67.7365 98.7638"/>
<path style="stroke:#000000; stroke-width:0.95664899999999997; fill:none" d="M 67.7365 98.7638C 67.7365 96.2286 65.6818 94.1739 63.1466 94.1739C 60.6115 94.1739 58.5568 96.2286 58.5568 98.7638C 58.5568 101.299 60.6115 103.354 63.1466 103.354C 65.6818 103.354 67.7365 101.299 67.7365 98.7638"/>
<path style="stroke:none; fill-rule:evenodd; fill:#ffff00" d="M 79.213 112.158C 79.213 109.623 77.1584 107.568 74.6232 107.568C 72.088 107.568 70.0334 109.623 70.0334 112.158C 70.0334 114.693 72.088 116.748 74.6232 116.748C 77.1584 116.748 79.213 114.693 79.213 112.158"/>
<path style="stroke:#000000; stroke-width:0.95664899999999997; fill:none" d="M 79.213 112.158C 79.213 109.623 77.1584 107.568 74.6232 107.568C 72.088 107.568 70.0334 109.623 70.0334 112.158C 70.0334 114.693 72.088 116.748 74.6232 116.748C 77.1584 116.748 79.213 114.693 79.213 112.158"/>
<path style="stroke:none; fill-rule:evenodd; fill:#ffff00" d="M 79.213 31.7986C 79.213 29.2636 77.1584 27.2086 74.6232 27.2086C 72.088 27.2086 70.0334 29.2636 70.0334 31.7986C 70.0334 34.3336 72.088 36.3886 74.6232 36.3886C 77.1584 36.3886 79.213 34.3336 79.213 31.7986"/>
<path style="stroke:#000000; stroke-width:0.95664899999999997; fill:none" d="M 79.213 31.7986C 79.213 29.2636 77.1584 27.2086 74.6232 27.2086C 72.088 27.2086 70.0334 29.2636 70.0334 31.7986C 70.0334 34.3336 72.088 36.3886 74.6232 36.3886C 77.1584 36.3886 79.213 34.3336 79.213 31.7986"/>
<path style="stroke:none; fill-rule:evenodd; fill:#ffff00" d="M 90.6936 112.158C 90.6936 109.623 88.6388 107.568 86.1037 107.568C 83.5685 107.568 81.5138 109.623 81.5138 112.158C 81.5138 114.693 83.5685 116.748 86.1037 116.748C 88.6388 116.748 90.6936 114.693 90.6936 112.158"/>
<path style="stroke:#000000; stroke-width:0.95664899999999997; fill:none" d="M 90.6936 112.158C 90.6936 109.623 88.6388 107.568 86.1037 107.568C 83.5685 107.568 81.5138 109.623 81.5138 112.158C 81.5138 114.693 83.5685 116.748 86.1037 116.748C 88.6388 116.748 90.6936 114.693 90.6936 112.158"/>
<path style="stroke:none; fill-rule:evenodd; fill:#ffff00" d="M 90.6936 31.7986C 90.6936 29.2636 88.6388 27.2086 86.1037 27.2086C 83.5685 27.2086 81.5138 29.2636 81.5138 31.7986C 81.5138 34.3336 83.5685 36.3886 86.1037 36.3886C 88.6388 36.3886 90.6936 34.3336 90.6936 31.7986"/>
<path style="stroke:#000000; stroke-width:0.95664899999999997; fill:none" d="M 90.6936 31.7986C 90.6936 29.2636 88.6388 27.2086 86.1037 27.2086C 83.5685 27.2086 81.5138 29.2636 81.5138 31.7986C 81.5138 34.3336 83.5685 36.3886 86.1037 36.3886C 88.6388 36.3886 90.6936 34.3336 90.6936 31.7986"/>
<path style="stroke:none; fill-rule:evenodd; fill:#ffff00" d="M 56.256 58.5836C 56.256 56.0486 54.2013 53.9946 51.6662 53.9946C 49.131 53.9946 47.0763 56.0486 47.0763 58.5836C 47.0763 61.1196 49.131 63.1736 51.6662 63.1736C 54.2013 63.1736 56.256 61.1196 56.256 58.5836"/>
<path style="stroke:#000000; stroke-width:0.95664899999999997; fill:none" d="M 56.256 58.5836C 56.256 56.0486 54.2013 53.9946 51.6662 53.9946C 49.131 53.9946 47.0763 56.0486 47.0763 58.5836C 47.0763 61.1196 49.131 63.1736 51.6662 63.1736C 54.2013 63.1736 56.256 61.1196 56.256 58.5836"/>
<path style="stroke:none; fill-rule:evenodd; fill:#ffff00" d="M 56.256 71.9786C 56.256 69.4434 54.2013 67.3888 51.6662 67.3888C 49.131 67.3888 47.0763 69.4434 47.0763 71.9786C 47.0763 74.5138 49.131 76.5684 51.6662 76.5684C 54.2013 76.5684 56.256 74.5138 56.256 71.9786"/>
<path style="stroke:#000000; stroke-width:0.95664899999999997; fill:none" d="M 56.256 71.9786C 56.256 69.4434 54.2013 67.3888 51.6662 67.3888C 49.131 67.3888 47.0763 69.4434 47.0763 71.9786C 47.0763 74.5138 49.131 76.5684 51.6662 76.5684C 54.2013 76.5684 56.256 74.5138 56.256 71.9786"/>
<path style="stroke:none; fill-rule:evenodd; fill:#ffff00" d="M 56.256 85.3731C 56.256 82.838 54.2013 80.7833 51.6662 80.7833C 49.131 80.7833 47.0763 82.838 47.0763 85.3731C 47.0763 87.9083 49.131 89.963 51.6662 89.963C 54.2013 89.963 56.256 87.9083 56.256 85.3731"/>
<path style="stroke:#000000; stroke-width:0.95664899999999997; fill:none" d="M 56.256 85.3731C 56.256 82.838 54.2013 80.7833 51.6662 80.7833C 49.131 80.7833 47.0763 82.838 47.0763 85.3731C 47.0763 87.9083 49.131 89.963 51.6662 89.963C 54.2013 89.963 56.256 87.9083 56.256 85.3731"/>
<path style="stroke:none; fill-rule:evenodd; fill:#5f5f5f" d="M 102.174 98.7638C 102.174 96.2286 100.12 94.1739 97.5846 94.1739C 95.0486 94.1739 92.9946 96.2286 92.9946 98.7638C 92.9946 101.299 95.0486 103.354 97.5846 103.354C 100.12 103.354 102.174 101.299 102.174 98.7638"/>
<path style="stroke:#000000; stroke-width:0.95664899999999997; fill:none" d="M 102.174 98.7638C 102.174 96.2286 100.12 94.1739 97.5846 94.1739C 95.0486 94.1739 92.9946 96.2286 92.9946 98.7638C 92.9946 101.299 95.0486 103.354 97.5846 103.354C 100.12 103.354 102.174 101.299 102.174 98.7638"/>
<path style="stroke:none; fill-rule:evenodd; fill:#5f5f5f" d="M 113.655 58.5836C 113.655 56.0486 111.6 53.9946 109.065 53.9946C 106.53 53.9946 104.475 56.0486 104.475 58.5836C 104.475 61.1196 106.53 63.1736 109.065 63.1736C 111.6 63.1736 113.655 61.1196 113.655 58.5836"/>
<path style="stroke:#000000; stroke-width:0.95664899999999997; fill:none" d="M 113.655 58.5836C 113.655 56.0486 111.6 53.9946 109.065 53.9946C 106.53 53.9946 104.475 56.0486 104.475 58.5836C 104.475 61.1196 106.53 63.1736 109.065 63.1736C 111.6 63.1736 113.655 61.1196 113.655 58.5836"/>
<path style="stroke:none; fill-rule:evenodd; fill:#5f5f5f" d="M 113.655 85.3731C 113.655 82.838 111.6 80.7833 109.065 80.7833C 106.53 80.7833 104.475 82.838 104.475 85.3731C 104.475 87.9083 106.53 89.963 109.065 89.963C 111.6 89.963 113.655 87.9083 113.655 85.3731"/>
<path style="stroke:#000000; stroke-width:0.95664899999999997; fill:none" d="M 113.655 85.3731C 113.655 82.838 111.6 80.7833 109.065 80.7833C 106.53 80.7833 104.475 82.838 104.475 85.3731C 104.475 87.9083 106.53 89.963 109.065 89.963C 111.6 89.963 113.655 87.9083 113.655 85.3731"/>
<path style="stroke:none; fill-rule:evenodd; fill:#5f5f5f" d="M 102.174 112.158C 102.174 109.623 100.12 107.568 97.5846 107.568C 95.0486 107.568 92.9946 109.623 92.9946 112.158C 92.9946 114.693 95.0486 116.748 97.5846 116.748C 100.12 116.748 102.174 114.693 102.174 112.158"/>
<path style="stroke:#000000; stroke-width:0.95664899999999997; fill:none" d="M 102.174 112.158C 102.174 109.623 100.12 107.568 97.5846 107.568C 95.0486 107.568 92.9946 109.623 92.9946 112.158C 92.9946 114.693 95.0486 116.748 97.5846 116.748C 100.12 116.748 102.174 114.693 102.174 112.158"/>
<path style="stroke:none; fill-rule:evenodd; fill:#5f5f5f" d="M 102.174 31.7986C 102.174 29.2636 100.12 27.2086 97.5846 27.2086C 95.0486 27.2086 92.9946 29.2636 92.9946 31.7986C 92.9946 34.3336 95.0486 36.3886 97.5846 36.3886C 100.12 36.3886 102.174 34.3336 102.174 31.7986"/>
<path style="stroke:#000000; stroke-width:0.95664899999999997; fill:none" d="M 102.174 31.7986C 102.174 29.2636 100.12 27.2086 97.5846 27.2086C 95.0486 27.2086 92.9946 29.2636 92.9946 31.7986C 92.9946 34.3336 95.0486 36.3886 97.5846 36.3886C 100.12 36.3886 102.174 34.3336 102.174 31.7986"/>
<path style="stroke:none; fill-rule:evenodd; fill:#5f5f5f" d="M 113.655 112.158C 113.655 109.623 111.6 107.568 109.065 107.568C 106.53 107.568 104.475 109.623 104.475 112.158C 104.475 114.693 106.53 116.748 109.065 116.748C 111.6 116.748 113.655 114.693 113.655 112.158"/>
<path style="stroke:#000000; stroke-width:0.95664899999999997; fill:none" d="M 113.655 112.158C 113.655 109.623 111.6 107.568 109.065 107.568C 106.53 107.568 104.475 109.623 104.475 112.158C 104.475 114.693 106.53 116.748 109.065 116.748C 111.6 116.748 113.655 114.693 113.655 112.158"/>
<path style="stroke:none; fill-rule:evenodd; fill:#5f5f5f" d="M 113.655 31.7986C 113.655 29.2636 111.6 27.2086 109.065 27.2086C 106.53 27.2086 104.475 29.2636 104.475 31.7986C 104.475 34.3336 106.53 36.3886 109.065 36.3886C 111.6 36.3886 113.655 34.3336 113.655 31.7986"/>
<path style="stroke:#000000; stroke-width:0.95664899999999997; fill:none" d="M 113.655 31.7986C 113.655 29.2636 111.6 27.2086 109.065 27.2086C 106.53 27.2086 104.475 29.2636 104.475 31.7986C 104.475 34.3336 106.53 36.3886 109.065 36.3886C 111.6 36.3886 113.655 34.3336 113.655 31.7986"/>
<path style="stroke:none; fill-rule:evenodd; fill:#5f5f5f" d="M 125.135 45.1936C 125.135 42.6586 123.081 40.6036 120.545 40.6036C 118.01 40.6036 115.956 42.6586 115.956 45.1936C 115.956 47.7286 118.01 49.7836 120.545 49.7836C 123.081 49.7836 125.135 47.7286 125.135 45.1936"/>
<path style="stroke:#000000; stroke-width:0.95664899999999997; fill:none" d="M 125.135 45.1936C 125.135 42.6586 123.081 40.6036 120.545 40.6036C 118.01 40.6036 115.956 42.6586 115.956 45.1936C 115.956 47.7286 118.01 49.7836 120.545 49.7836C 123.081 49.7836 125.135 47.7286 125.135 45.1936"/>
<path style="stroke:none; fill-rule:evenodd; fill:#5f5f5f" d="M 125.135 98.7638C 125.135 96.2286 123.081 94.1739 120.545 94.1739C 118.01 94.1739 115.956 96.2286 115.956 98.7638C 115.956 101.299 118.01 103.354 120.545 103.354C 123.081 103.354 125.135 101.299 125.135 98.7638"/>
<path style="stroke:#000000; stroke-width:0.95664899999999997; fill:none" d="M 125.135 98.7638C 125.135 96.2286 123.081 94.1739 120.545 94.1739C 118.01 94.1739 115.956 96.2286 115.956 98.7638C 115.956 101.299 118.01 103.354 120.545 103.354C 123.081 103.354 125.135 101.299 125.135 98.7638"/>
<path style="stroke:none; fill-rule:evenodd; fill:#5f5f5f" d="M 136.616 58.5836C 136.616 56.0486 134.561 53.9946 132.026 53.9946C 129.491 53.9946 127.436 56.0486 127.436 58.5836C 127.436 61.1196 129.491 63.1736 132.026 63.1736C 134.561 63.1736 136.616 61.1196 136.616 58.5836"/>
<path style="stroke:#000000; stroke-width:0.95664899999999997; fill:none" d="M 136.616 58.5836C 136.616 56.0486 134.561 53.9946 132.026 53.9946C 129.491 53.9946 127.436 56.0486 127.436 58.5836C 127.436 61.1196 129.491 63.1736 132.026 63.1736C 134.561 63.1736 136.616 61.1196 136.616 58.5836"/>
<path style="stroke:none; fill-rule:evenodd; fill:#5f5f5f" d="M 136.616 71.9786C 136.616 69.4434 134.561 67.3888 132.026 67.3888C 129.491 67.3888 127.436 69.4434 127.436 71.9786C 127.436 74.5138 129.491 76.5684 132.026 76.5684C 134.561 76.5684 136.616 74.5138 136.616 71.9786"/>
<path style="stroke:#000000; stroke-width:0.95664899999999997; fill:none" d="M 136.616 71.9786C 136.616 69.4434 134.561 67.3888 132.026 67.3888C 129.491 67.3888 127.436 69.4434 127.436 71.9786C 127.436 74.5138 129.491 76.5684 132.026 76.5684C 134.561 76.5684 136.616 74.5138 136.616 71.9786"/>
<path style="stroke:none; fill-rule:evenodd; fill:#5f5f5f" d="M 136.616 85.3731C 136.616 82.838 134.561 80.7833 132.026 80.7833C 129.491 80.7833 127.436 82.838 127.436 85.3731C 127.436 87.9083 129.491 89.963 132.026 89.963C 134.561 89.963 136.616 87.9083 136.616 85.3731"/>
<path style="stroke:#000000; stroke-width:0.95664899999999997; fill:none" d="M 136.616 85.3731C 136.616 82.838 134.561 80.7833 132.026 80.7833C 129.491 80.7833 127.436 82.838 127.436 85.3731C 127.436 87.9083 129.491 89.963 132.026 89.963C 134.561 89.963 136.616 87.9083 136.616 85.3731"/>
<path style="stroke:none; fill-rule:evenodd; fill:#5f5f5f" d="M 67.7365 58.5836C 67.7365 56.0486 65.6818 53.9946 63.1466 53.9946C 60.6115 53.9946 58.5568 56.0486 58.5568 58.5836C 58.5568 61.1196 60.6115 63.1736 63.1466 63.1736C 65.6818 63.1736 67.7365 61.1196 67.7365 58.5836"/>
<path style="stroke:#000000; stroke-width:0.95664899999999997; fill:none" d="M 67.7365 58.5836C 67.7365 56.0486 65.6818 53.9946 63.1466 53.9946C 60.6115 53.9946 58.5568 56.0486 58.5568 58.5836C 58.5568 61.1196 60.6115 63.1736 63.1466 63.1736C 65.6818 63.1736 67.7365 61.1196 67.7365 58.5836"/>
<path style="stroke:none; fill-rule:evenodd; fill:#5f5f5f" d="M 67.7365 71.9786C 67.7365 69.4434 65.6818 67.3888 63.1466 67.3888C 60.6115 67.3888 58.5568 69.4434 58.5568 71.9786C 58.5568 74.5138 60.6115 76.5684 63.1466 76.5684C 65.6818 76.5684 67.7365 74.5138 67.7365 71.9786"/>
<path style="stroke:#000000; stroke-width:0.95664899999999997; fill:none" d="M 67.7365 71.9786C 67.7365 69.4434 65.6818 67.3888 63.1466 67.3888C 60.6115 67.3888 58.5568 69.4434 58.5568 71.9786C 58.5568 74.5138 60.6115 76.5684 63.1466 76.5684C 65.6818 76.5684 67.7365 74.5138 67.7365 71.9786"/>
<path style="stroke:none; fill-rule:evenodd; fill:#5f5f5f" d="M 67.7365 85.3731C 67.7365 82.838 65.6818 80.7833 63.1466 80.7833C 60.6115 80.7833 58.5568 82.838 58.5568 85.3731C 58.5568 87.9083 60.6115 89.963 63.1466 89.963C 65.6818 89.963 67.7365 87.9083 67.7365 85.3731"/>
<path style="stroke:#000000; stroke-width:0.95664899999999997; fill:none" d="M 67.7365 85.3731C 67.7365 82.838 65.6818 80.7833 63.1466 80.7833C 60.6115 80.7833 58.5568 82.838 58.5568 85.3731C 58.5568 87.9083 60.6115 89.963 63.1466 89.963C 65.6818 89.963 67.7365 87.9083 67.7365 85.3731"/>
<path style="stroke:none; fill-rule:evenodd; fill:#5f5f5f" d="M 67.7365 112.158C 67.7365 109.623 65.6818 107.568 63.1466 107.568C 60.6115 107.568 58.5568 109.623 58.5568 112.158C 58.5568 114.693 60.6115 116.748 63.1466 116.748C 65.6818 116.748 67.7365 114.693 67.7365 112.158"/>
<path style="stroke:#000000; stroke-width:0.95664899999999997; fill:none" d="M 67.7365 112.158C 67.7365 109.623 65.6818 107.568 63.1466 107.568C 60.6115 107.568 58.5568 109.623 58.5568 112.158C 58.5568 114.693 60.6115 116.748 63.1466 116.748C 65.6818 116.748 67.7365 114.693 67.7365 112.158"/>
<path style="stroke:none; fill-rule:evenodd; fill:#5f5f5f" d="M 67.7365 31.7986C 67.7365 29.2636 65.6818 27.2086 63.1466 27.2086C 60.6115 27.2086 58.5568 29.2636 58.5568 31.7986C 58.5568 34.3336 60.6115 36.3886 63.1466 36.3886C 65.6818 36.3886 67.7365 34.3336 67.7365 31.7986"/>
<path style="stroke:#000000; stroke-width:0.95664899999999997; fill:none" d="M 67.7365 31.7986C 67.7365 29.2636 65.6818 27.2086 63.1466 27.2086C 60.6115 27.2086 58.5568 29.2636 58.5568 31.7986C 58.5568 34.3336 60.6115 36.3886 63.1466 36.3886C 65.6818 36.3886 67.7365 34.3336 67.7365 31.7986"/>
<path style="stroke:none; fill-rule:evenodd; fill:#5f5f5f" d="M 79.213 45.1936C 79.213 42.6586 77.1584 40.6036 74.6232 40.6036C 72.088 40.6036 70.0334 42.6586 70.0334 45.1936C 70.0334 47.7286 72.088 49.7836 74.6232 49.7836C 77.1584 49.7836 79.213 47.7286 79.213 45.1936"/>
<path style="stroke:#000000; stroke-width:0.95664899999999997; fill:none" d="M 79.213 45.1936C 79.213 42.6586 77.1584 40.6036 74.6232 40.6036C 72.088 40.6036 70.0334 42.6586 70.0334 45.1936C 70.0334 47.7286 72.088 49.7836 74.6232 49.7836C 77.1584 49.7836 79.213 47.7286 79.213 45.1936"/>
<path style="stroke:none; fill-rule:evenodd; fill:#5f5f5f" d="M 79.213 71.9786C 79.213 69.4434 77.1584 67.3888 74.6232 67.3888C 72.088 67.3888 70.0334 69.4434 70.0334 71.9786C 70.0334 74.5138 72.088 76.5684 74.6232 76.5684C 77.1584 76.5684 79.213 74.5138 79.213 71.9786"/>
<path style="stroke:#000000; stroke-width:0.95664899999999997; fill:none" d="M 79.213 71.9786C 79.213 69.4434 77.1584 67.3888 74.6232 67.3888C 72.088 67.3888 70.0334 69.4434 70.0334 71.9786C 70.0334 74.5138 72.088 76.5684 74.6232 76.5684C 77.1584 76.5684 79.213 74.5138 79.213 71.9786"/>
<path style="stroke:none; fill-rule:evenodd; fill:#5f5f5f" d="M 79.213 98.7638C 79.213 96.2286 77.1584 94.1739 74.6232 94.1739C 72.088 94.1739 70.0334 96.2286 70.0334 98.7638C 70.0334 101.299 72.088 103.354 74.6232 103.354C 77.1584 103.354 79.213 101.299 79.213 98.7638"/>
<path style="stroke:#000000; stroke-width:0.95664899999999997; fill:none" d="M 79.213 98.7638C 79.213 96.2286 77.1584 94.1739 74.6232 94.1739C 72.088 94.1739 70.0334 96.2286 70.0334 98.7638C 70.0334 101.299 72.088 103.354 74.6232 103.354C 77.1584 103.354 79.213 101.299 79.213 98.7638"/>
<path style="stroke:none; fill-rule:evenodd; fill:#5f5f5f" d="M 90.6936 45.1936C 90.6936 42.6586 88.6388 40.6036 86.1037 40.6036C 83.5685 40.6036 81.5138 42.6586 81.5138 45.1936C 81.5138 47.7286 83.5685 49.7836 86.1037 49.7836C 88.6388 49.7836 90.6936 47.7286 90.6936 45.1936"/>
<path style="stroke:#000000; stroke-width:0.95664899999999997; fill:none" d="M 90.6936 45.1936C 90.6936 42.6586 88.6388 40.6036 86.1037 40.6036C 83.5685 40.6036 81.5138 42.6586 81.5138 45.1936C 81.5138 47.7286 83.5685 49.7836 86.1037 49.7836C 88.6388 49.7836 90.6936 47.7286 90.6936 45.1936"/>
<path style="stroke:none; fill-rule:evenodd; fill:#5f5f5f" d="M 90.6936 58.5836C 90.6936 56.0486 88.6388 53.9946 86.1037 53.9946C 83.5685 53.9946 81.5138 56.0486 81.5138 58.5836C 81.5138 61.1196 83.5685 63.1736 86.1037 63.1736C 88.6388 63.1736 90.6936 61.1196 90.6936 58.5836"/>
<path style="stroke:#000000; stroke-width:0.95664899999999997; fill:none" d="M 90.6936 58.5836C 90.6936 56.0486 88.6388 53.9946 86.1037 53.9946C 83.5685 53.9946 81.5138 56.0486 81.5138 58.5836C 81.5138 61.1196 83.5685 63.1736 86.1037 63.1736C 88.6388 63.1736 90.6936 61.1196 90.6936 58.5836"/>
<path style="stroke:none; fill-rule:evenodd; fill:#5f5f5f" d="M 90.6936 71.9786C 90.6936 69.4434 88.6388 67.3888 86.1037 67.3888C 83.5685 67.3888 81.5138 69.4434 81.5138 71.9786C 81.5138 74.5138 83.5685 76.5684 86.1037 76.5684C 88.6388 76.5684 90.6936 74.5138 90.6936 71.9786"/>
<path style="stroke:#000000; stroke-width:0.95664899999999997; fill:none" d="M 90.6936 71.9786C 90.6936 69.4434 88.6388 67.3888 86.1037 67.3888C 83.5685 67.3888 81.5138 69.4434 81.5138 71.9786C 81.5138 74.5138 83.5685 76.5684 86.1037 76.5684C 88.6388 76.5684 90.6936 74.5138 90.6936 71.9786"/>
<path style="stroke:none; fill-rule:evenodd; fill:#5f5f5f" d="M 90.6936 85.3731C 90.6936 82.838 88.6388 80.7833 86.1037 80.7833C 83.5685 80.7833 81.5138 82.838 81.5138 85.3731C 81.5138 87.9083 83.5685 89.963 86.1037 89.963C 88.6388 89.963 90.6936 87.9083 90.6936 85.3731"/>
<path style="stroke:#000000; stroke-width:0.95664899999999997; fill:none" d="M 90.6936 85.3731C 90.6936 82.838 88.6388 80.7833 86.1037 80.7833C 83.5685 80.7833 81.5138 82.838 81.5138 85.3731C 81.5138 87.9083 83.5685 89.963 86.1037 89.963C 88.6388 89.963 90.6936 87.9083 90.6936 85.3731"/>
<path style="stroke:none; fill-rule:evenodd; fill:#5f5f5f" d="M 102.174 45.1936C 102.174 42.6586 100.12 40.6036 97.5846 40.6036C 95.0486 40.6036 92.9946 42.6586 92.9946 45.1936C 92.9946 47.7286 95.0486 49.7836 97.5846 49.7836C 100.12 49.7836 102.174 47.7286 102.174 45.1936"/>
<path style="stroke:#000000; stroke-width:0.95664899999999997; fill:none" d="M 102.174 45.1936C 102.174 42.6586 100.12 40.6036 97.5846 40.6036C 95.0486 40.6036 92.9946 42.6586 92.9946 45.1936C 92.9946 47.7286 95.0486 49.7836 97.5846 49.7836C 100.12 49.7836 102.174 47.7286 102.174 45.1936"/>
<path style="stroke:none; fill-rule:evenodd; fill:#5f5f5f" d="M 102.174 58.5836C 102.174 56.0486 100.12 53.9946 97.5846 53.9946C 95.0486 53.9946 92.9946 56.0486 92.9946 58.5836C 92.9946 61.1196 95.0486 63.1736 97.5846 63.1736C 100.12 63.1736 102.174 61.1196 102.174 58.5836"/>
<path style="stroke:#000000; stroke-width:0.95664899999999997; fill:none" d="M 102.174 58.5836C 102.174 56.0486 100.12 53.9946 97.5846 53.9946C 95.0486 53.9946 92.9946 56.0486 92.9946 58.5836C 92.9946 61.1196 95.0486 63.1736 97.5846 63.1736C 100.12 63.1736 102.174 61.1196 102.174 58.5836"/>
<path style="stroke:none; fill-rule:evenodd; fill:#5f5f5f" d="M 102.174 71.9786C 102.174 69.4434 100.12 67.3888 97.5846 67.3888C 95.0486 67.3888 92.9946 69.4434 92.9946 71.9786C 92.9946 74.5138 95.0486 76.5684 97.5846 76.5684C 100.12 76.5684 102.174 74.5138 102.174 71.9786"/>
<path style="stroke:#000000; stroke-width:0.95664899999999997; fill:none" d="M 102.174 71.9786C 102.174 69.4434 100.12 67.3888 97.5846 67.3888C 95.0486 67.3888 92.9946 69.4434 92.9946 71.9786C 92.9946 74.5138 95.0486 76.5684 97.5846 76.5684C 100.12 76.5684 102.174 74.5138 102.174 71.9786"/>
<path style="stroke:none; fill-rule:evenodd; fill:#5f5f5f" d="M 102.174 85.3731C 102.174 82.838 100.12 80.7833 97.5846 80.7833C 95.0486 80.7833 92.9946 82.838 92.9946 85.3731C 92.9946 87.9083 95.0486 89.963 97.5846 89.963C 100.12 89.963 102.174 87.9083 102.174 85.3731"/>
<path style="stroke:#000000; stroke-width:0.95664899999999997; fill:none" d="M 102.174 85.3731C 102.174 82.838 100.12 80.7833 97.5846 80.7833C 95.0486 80.7833 92.9946 82.838 92.9946 85.3731C 92.9946 87.9083 95.0486 89.963 97.5846 89.963C 100.12 89.963 102.174 87.9083 102.174 85.3731"/>
<path style="stroke:none; fill-rule:evenodd; fill:#5f5f5f" d="M 113.655 45.1936C 113.655 42.6586 111.6 40.6036 109.065 40.6036C 106.53 40.6036 104.475 42.6586 104.475 45.1936C 104.475 47.7286 106.53 49.7836 109.065 49.7836C 111.6 49.7836 113.655 47.7286 113.655 45.1936"/>
<path style="stroke:#000000; stroke-width:0.95664899999999997; fill:none" d="M 113.655 45.1936C 113.655 42.6586 111.6 40.6036 109.065 40.6036C 106.53 40.6036 104.475 42.6586 104.475 45.1936C 104.475 47.7286 106.53 49.7836 109.065 49.7836C 111.6 49.7836 113.655 47.7286 113.655 45.1936"/>
<path style="stroke:none; fill-rule:evenodd; fill:#5f5f5f" d="M 113.655 71.9786C 113.655 69.4434 111.6 67.3888 109.065 67.3888C 106.53 67.3888 104.475 69.4434 104.475 71.9786C 104.475 74.5138 106.53 76.5684 109.065 76.5684C 111.6 76.5684 113.655 74.5138 113.655 71.9786"/>
<path style="stroke:#000000; stroke-width:0.95664899999999997; fill:none" d="M 113.655 71.9786C 113.655 69.4434 111.6 67.3888 109.065 67.3888C 106.53 67.3888 104.475 69.4434 104.475 71.9786C 104.475 74.5138 106.53 76.5684 109.065 76.5684C 111.6 76.5684 113.655 74.5138 113.655 71.9786"/>
<path style="stroke:none; fill-rule:evenodd; fill:#5f5f5f" d="M 113.655 98.7638C 113.655 96.2286 111.6 94.1739 109.065 94.1739C 106.53 94.1739 104.475 96.2286 104.475 98.7638C 104.475 101.299 106.53 103.354 109.065 103.354C 111.6 103.354 113.655 101.299 113.655 98.7638"/>
<path style="stroke:#000000; stroke-width:0.95664899999999997; fill:none" d="M 113.655 98.7638C 113.655 96.2286 111.6 94.1739 109.065 94.1739C 106.53 94.1739 104.475 96.2286 104.475 98.7638C 104.475 101.299 106.53 103.354 109.065 103.354C 111.6 103.354 113.655 101.299 113.655 98.7638"/>
<path style="stroke:none; fill-rule:evenodd; fill:#5f5f5f" d="M 125.135 58.5836C 125.135 56.0486 123.081 53.9946 120.545 53.9946C 118.01 53.9946 115.956 56.0486 115.956 58.5836C 115.956 61.1196 118.01 63.1736 120.545 63.1736C 123.081 63.1736 125.135 61.1196 125.135 58.5836"/>
<path style="stroke:#000000; stroke-width:0.95664899999999997; fill:none" d="M 125.135 58.5836C 125.135 56.0486 123.081 53.9946 120.545 53.9946C 118.01 53.9946 115.956 56.0486 115.956 58.5836C 115.956 61.1196 118.01 63.1736 120.545 63.1736C 123.081 63.1736 125.135 61.1196 125.135 58.5836"/>
<path style="stroke:none; fill-rule:evenodd; fill:#5f5f5f" d="M 125.135 71.9786C 125.135 69.4434 123.081 67.3888 120.545 67.3888C 118.01 67.3888 115.956 69.4434 115.956 71.9786C 115.956 74.5138 118.01 76.5684 120.545 76.5684C 123.081 76.5684 125.135 74.5138 125.135 71.9786"/>
<path style="stroke:#000000; stroke-width:0.95664899999999997; fill:none" d="M 125.135 71.9786C 125.135 69.4434 123.081 67.3888 120.545 67.3888C 118.01 67.3888 115.956 69.4434 115.956 71.9786C 115.956 74.5138 118.01 76.5684 120.545 76.5684C 123.081 76.5684 125.135 74.5138 125.135 71.9786"/>
<path style="stroke:none; fill-rule:evenodd; fill:#5f5f5f" d="M 125.135 85.3731C 125.135 82.838 123.081 80.7833 120.545 80.7833C 118.01 80.7833 115.956 82.838 115.956 85.3731C 115.956 87.9083 118.01 89.963 120.545 89.963C 123.081 89.963 125.135 87.9083 125.135 85.3731"/>
<path style="stroke:#000000; stroke-width:0.95664899999999997; fill:none" d="M 125.135 85.3731C 125.135 82.838 123.081 80.7833 120.545 80.7833C 118.01 80.7833 115.956 82.838 115.956 85.3731C 115.956 87.9083 118.01 89.963 120.545 89.963C 123.081 89.963 125.135 87.9083 125.135 85.3731"/>
<path style="stroke:none; fill-rule:evenodd; fill:#5f5f5f" d="M 125.135 112.158C 125.135 109.623 123.081 107.568 120.545 107.568C 118.01 107.568 115.956 109.623 115.956 112.158C 115.956 114.693 118.01 116.748 120.545 116.748C 123.081 116.748 125.135 114.693 125.135 112.158"/>
<path style="stroke:#000000; stroke-width:0.95664899999999997; fill:none" d="M 125.135 112.158C 125.135 109.623 123.081 107.568 120.545 107.568C 118.01 107.568 115.956 109.623 115.956 112.158C 115.956 114.693 118.01 116.748 120.545 116.748C 123.081 116.748 125.135 114.693 125.135 112.158"/>
<path style="stroke:none; fill-rule:evenodd; fill:#5f5f5f" d="M 125.135 31.7986C 125.135 29.2636 123.081 27.2086 120.545 27.2086C 118.01 27.2086 115.956 29.2636 115.956 31.7986C 115.956 34.3336 118.01 36.3886 120.545 36.3886C 123.081 36.3886 125.135 34.3336 125.135 31.7986"/>
<path style="stroke:#000000; stroke-width:0.95664899999999997; fill:none" d="M 125.135 31.7986C 125.135 29.2636 123.081 27.2086 120.545 27.2086C 118.01 27.2086 115.956 29.2636 115.956 31.7986C 115.956 34.3336 118.01 36.3886 120.545 36.3886C 123.081 36.3886 125.135 34.3336 125.135 31.7986"/>
<path style="stroke:none; fill-rule:evenodd; fill:#5f5f5f" d="M 136.616 45.1936C 136.616 42.6586 134.561 40.6036 132.026 40.6036C 129.491 40.6036 127.436 42.6586 127.436 45.1936C 127.436 47.7286 129.491 49.7836 132.026 49.7836C 134.561 49.7836 136.616 47.7286 136.616 45.1936"/>
<path style="stroke:#000000; stroke-width:0.95664899999999997; fill:none" d="M 136.616 45.1936C 136.616 42.6586 134.561 40.6036 132.026 40.6036C 129.491 40.6036 127.436 42.6586 127.436 45.1936C 127.436 47.7286 129.491 49.7836 132.026 49.7836C 134.561 49.7836 136.616 47.7286 136.616 45.1936"/>
<path style="stroke:none; fill-rule:evenodd; fill:#5f5f5f" d="M 136.616 98.7638C 136.616 96.2286 134.561 94.1739 132.026 94.1739C 129.491 94.1739 127.436 96.2286 127.436 98.7638C 127.436 101.299 129.491 103.354 132.026 103.354C 134.561 103.354 136.616 101.299 136.616 98.7638"/>
<path style="stroke:#000000; stroke-width:0.95664899999999997; fill:none" d="M 136.616 98.7638C 136.616 96.2286 134.561 94.1739 132.026 94.1739C 129.491 94.1739 127.436 96.2286 127.436 98.7638C 127.436 101.299 129.491 103.354 132.026 103.354C 134.561 103.354 136.616 101.299 136.616 98.7638"/>
<path style="stroke:none; fill-rule:evenodd; fill:#5f5f5f" d="M 136.616 112.158C 136.616 109.623 134.561 107.568 132.026 107.568C 129.491 107.568 127.436 109.623 127.436 112.158C 127.436 114.693 129.491 116.748 132.026 116.748C 134.561 116.748 136.616 114.693 136.616 112.158"/>
<path style="stroke:#000000; stroke-width:0.95664899999999997; fill:none" d="M 136.616 112.158C 136.616 109.623 134.561 107.568 132.026 107.568C 129.491 107.568 127.436 109.623 127.436 112.158C 127.436 114.693 129.491 116.748 132.026 116.748C 134.561 116.748 136.616 114.693 136.616 112.158"/>
<path style="stroke:none; fill-rule:evenodd; fill:#5f5f5f" d="M 136.616 31.7986C 136.616 29.2636 134.561 27.2086 132.026 27.2086C 129.491 27.2086 127.436 29.2636 127.436 31.7986C 127.436 34.3336 129.491 36.3886 132.026 36.3886C 134.561 36.3886 136.616 34.3336 136.616 31.7986"/>
<path style="stroke:#000000; stroke-width:0.95664899999999997; fill:none" d="M 136.616 31.7986C 136.616 29.2636 134.561 27.2086 132.026 27.2086C 129.491 27.2086 127.436 29.2636 127.436 31.7986C 127.436 34.3336 129.491 36.3886 132.026 36.3886C 134.561 36.3886 136.616 34.3336 136.616 31.7986"/>
<path style="stroke:none; fill-rule:evenodd; fill:#5f5f5f" d="M 56.256 45.1936C 56.256 42.6586 54.2013 40.6036 51.6662 40.6036C 49.131 40.6036 47.0763 42.6586 47.0763 45.1936C 47.0763 47.7286 49.131 49.7836 51.6662 49.7836C 54.2013 49.7836 56.256 47.7286 56.256 45.1936"/>
<path style="stroke:#000000; stroke-width:0.95664899999999997; fill:none" d="M 56.256 45.1936C 56.256 42.6586 54.2013 40.6036 51.6662 40.6036C 49.131 40.6036 47.0763 42.6586 47.0763 45.1936C 47.0763 47.7286 49.131 49.7836 51.6662 49.7836C 54.2013 49.7836 56.256 47.7286 56.256 45.1936"/>
<path style="stroke:none; fill-rule:evenodd; fill:#5f5f5f" d="M 56.256 98.7638C 56.256 96.2286 54.2013 94.1739 51.6662 94.1739C 49.131 94.1739 47.0763 96.2286 47.0763 98.7638C 47.0763 101.299 49.131 103.354 51.6662 103.354C 54.2013 103.354 56.256 101.299 56.256 98.7638"/>
<path style="stroke:#000000; stroke-width:0.95664899999999997; fill:none" d="M 56.256 98.7638C 56.256 96.2286 54.2013 94.1739 51.6662 94.1739C 49.131 94.1739 47.0763 96.2286 47.0763 98.7638C 47.0763 101.299 49.131 103.354 51.6662 103.354C 54.2013 103.354 56.256 101.299 56.256 98.7638"/>
<path style="stroke:none; fill-rule:evenodd; fill:#5f5f5f" d="M 56.256 112.158C 56.256 109.623 54.2013 107.568 51.6662 107.568C 49.131 107.568 47.0763 109.623 47.0763 112.158C 47.0763 114.693 49.131 116.748 51.6662 116.748C 54.2013 116.748 56.256 114.693 56.256 112.158"/>
<path style="stroke:#000000; stroke-width:0.95664899999999997; fill:none" d="M 56.256 112.158C 56.256 109.623 54.2013 107.568 51.6662 107.568C 49.131 107.568 47.0763 109.623 47.0763 112.158C 47.0763 114.693 49.131 116.748 51.6662 116.748C 54.2013 116.748 56.256 114.693 56.256 112.158"/>
<path style="stroke:none; fill-rule:evenodd; fill:#5f5f5f" d="M 56.256 31.7986C 56.256 29.2636 54.2013 27.2086 51.6662 27.2086C 49.131 27.2086 47.0763 29.2636 47.0763 31.7986C 47.0763 34.3336 49.131 36.3886 51.6662 36.3886C 54.2013 36.3886 56.256 34.3336 56.256 31.7986"/>
<path style="stroke:#000000; stroke-width:0.95664899999999997; fill:none" d="M 56.256 31.7986C 56.256 29.2636 54.2013 27.2086 51.6662 27.2086C 49.131 27.2086 47.0763 29.2636 47.0763 31.7986C 47.0763 34.3336 49.131 36.3886 51.6662 36.3886C 54.2013 36.3886 56.256 34.3336 56.256 31.7986"/>
<path style="stroke:#000000; stroke-width:0.95664899999999997; fill:none" d="M 28.7052 98.7638C 28.7052 98.7638 28.7052 98.7638 26.1544 98.7638C 23.6037 98.7638 18.5021 98.7638 14.0373 93.9825C 9.5763 89.2013 5.7482 79.6348 5.1115 70.3888C 4.4748 61.1426 7.0216 52.2126 10.5294 46.1546C 14.0373 40.0956 18.4982 36.9086 22.6466 35.6346C 26.7912 34.3616 30.6154 34.9986 32.5294 35.3186C 34.4396 35.6346 34.4396 35.6346 34.4396 35.6346"/>
<path style="stroke:#000000; stroke-width:0.95664899999999997; fill:none" d="M 27.2091 32.4826L 34.4396 35.6266L 26.5802 36.2556"/>
</g>
</svg>