<?xml version="1.0" encoding="ISO-8859-1" standalone="yes"?>
<svg width="375.481" height="402.801">
  <defs> 
    <marker id="ArrowEnd" viewBox="0 0 10 10" refX="0" refY="5" 
     markerUnits="strokeWidth" 
     markerWidth="4" 
     markerHeight="3" 
     orient="auto"> 
        <path d="M 0 0 L 10 5 L 0 10 z" /> 
    </marker>
    <marker id="ArrowStart" viewBox="0 0 10 10" refX="10" refY="5" 
     markerUnits="strokeWidth" 
     markerWidth="4" 
     markerHeight="3" 
     orient="auto"> 
        <path d="M 10 0 L 0 5 L 10 10 z" /> 
    </marker> </defs>
<g>
<path style="stroke:#000000; stroke-width:0.10000000000000001; fill:none" d="M 344.532 102.582L 361.325 102.582L 357.328 110.578L 340.536 110.578"/>
<path style="stroke:none; fill-rule:evenodd; fill:#000000" d="M 347.731 103.383L 347.731 117.778L 340.536 110.582"/>
<path style="stroke:#000000; stroke-width:0.10000000000000001; fill:none" d="M 347.731 103.383L 347.731 117.778L 340.536 110.582L 347.731 103.383z"/>
<path style="stroke:#000000; stroke-width:0.10000000000000001; fill:none" d="M 290.153 119.375L 303.746 226.536L 290.153 119.375z"/>
<path style="stroke:none; fill-rule:evenodd; fill:#000000" d="M 298.149 124.973L 283.754 127.371L 290.149 119.375"/>
<path style="stroke:#000000; stroke-width:0.10000000000000001; fill:none" d="M 298.149 124.973L 283.754 127.371L 290.149 119.375L 298.149 124.973z"/>
<path style="stroke:#000000; stroke-width:0.10000000000000001; fill:none" d="M 293.352 226.536L 281.36 119.375L 293.352 226.536z"/>
<path style="stroke:none; fill-rule:evenodd; fill:#000000" d="M 285.352 220.938L 299.746 219.34L 293.352 226.536"/>
<path style="stroke:#000000; stroke-width:0.10000000000000001; fill:none" d="M 285.352 220.938L 299.746 219.34L 293.352 226.536L 285.352 220.938z"/>
<path style="stroke:#000000; stroke-width:0.10000000000000001; fill:none" d="M 262.961 232.934L 223.778 226.539L 262.961 232.934z"/>
<path style="stroke:none; fill-rule:evenodd; fill:#000000" d="M 254.164 239.332L 256.563 224.938L 262.957 232.934"/>
<path style="stroke:#000000; stroke-width:0.10000000000000001; fill:none" d="M 254.164 239.332L 256.563 224.938L 262.957 232.934L 254.164 239.332z"/>
<path style="stroke:#000000; stroke-width:0.10000000000000001; fill:none" d="M 217.379 108.18L 258.16 110.578L 217.379 108.18z"/>
<path style="stroke:none; fill-rule:evenodd; fill:#000000" d="M 225.375 101.782L 224.578 116.176L 217.383 108.18"/>
<path style="stroke:#000000; stroke-width:0.10000000000000001; fill:none" d="M 225.375 101.782L 224.578 116.176L 217.383 108.18L 225.375 101.782z"/>
<path style="stroke:#000000; stroke-width:0.10000000000000001; fill:none" d="M 240.571 51.403L 258.16 51.403L 244.567 85.789L 227.774 85.789"/>
<path style="stroke:none; fill-rule:evenodd; fill:#000000" d="M 234.172 78.59L 234.172 92.184L 227.778 85.789"/>
<path style="stroke:#000000; stroke-width:0.10000000000000001; fill:none" d="M 234.172 78.59L 234.172 92.184L 227.778 85.789L 234.172 78.59z"/>
<path style="stroke:#000000; stroke-width:0.10000000000000001; fill:none" d="M 279.754 226.536L 197.387 119.375L 279.754 226.536z"/>
<path style="stroke:none; fill-rule:evenodd; fill:#000000" d="M 270.16 225.739L 281.356 216.942L 279.758 226.536"/>
<path style="stroke:#000000; stroke-width:0.10000000000000001; fill:none" d="M 270.16 225.739L 281.356 216.942L 279.758 226.536L 270.16 225.739z"/>
<path style="stroke:#000000; stroke-width:0.10000000000000001; fill:none" d="M 180.59 119.375L 268.555 226.536L 180.59 119.375z"/>
<path style="stroke:none; fill-rule:evenodd; fill:#000000" d="M 190.989 120.176L 179.793 128.973L 180.59 119.379"/>
<path style="stroke:#000000; stroke-width:0.10000000000000001; fill:none" d="M 190.989 120.176L 179.793 128.973L 180.59 119.379L 190.989 120.176z"/>
<path style="stroke:#000000; stroke-width:0.10000000000000001; fill:none" d="M 270.16 119.375L 244.571 151.36L 270.16 119.375z"/>
<path style="stroke:none; fill-rule:evenodd; fill:#000000" d="M 270.957 128.973L 259.762 120.176L 270.157 119.379"/>
<path style="stroke:#000000; stroke-width:0.10000000000000001; fill:none" d="M 270.957 128.973L 259.762 120.176L 270.157 119.379L 270.957 128.973z"/>
<path style="stroke:#000000; stroke-width:0.10000000000000001; fill:none" d="M 226.977 151.364L 256.563 119.379L 226.977 151.364z"/>
<path style="stroke:none; fill-rule:evenodd; fill:#000000" d="M 226.977 140.969L 237.371 150.563L 226.977 151.36"/>
<path style="stroke:#000000; stroke-width:0.10000000000000001; fill:none" d="M 226.977 140.969L 237.371 150.563L 226.977 151.36L 226.977 140.969z"/>
<path style="stroke:#000000; stroke-width:0.10000000000000001; fill:none" d="M 337.332 360.086L 214.981 247.328L 337.332 360.086z"/>
<path style="stroke:none; fill-rule:evenodd; fill:#000000" d="M 326.938 360.086L 336.532 349.692L 337.328 360.086"/>
<path style="stroke:#000000; stroke-width:0.10000000000000001; fill:none" d="M 326.938 360.086L 336.532 349.692L 337.328 360.086L 326.938 360.086z"/>
<path style="stroke:#000000; stroke-width:0.10000000000000001; fill:none" d="M 201.383 252.129L 322.938 360.086L 201.383 252.129z"/>
<path style="stroke:none; fill-rule:evenodd; fill:#000000" d="M 211.782 251.328L 202.188 261.723L 201.391 252.129"/>
<path style="stroke:#000000; stroke-width:0.10000000000000001; fill:none" d="M 211.782 251.328L 202.188 261.723L 201.391 252.129L 211.782 251.328z"/>
<path style="stroke:#000000; stroke-width:0.10000000000000001; fill:none" d="M 164.598 119.375L 139.008 151.36L 164.598 119.375z"/>
<path style="stroke:none; fill-rule:evenodd; fill:#000000" d="M 165.399 128.973L 154.203 120.176L 164.598 119.379"/>
<path style="stroke:#000000; stroke-width:0.10000000000000001; fill:none" d="M 165.399 128.973L 154.203 120.176L 164.598 119.379L 165.399 128.973z"/>
<path style="stroke:#000000; stroke-width:0.10000000000000001; fill:none" d="M 123.012 151.364L 147.801 119.379L 123.012 151.364z"/>
<path style="stroke:none; fill-rule:evenodd; fill:#000000" d="M 121.414 140.969L 132.61 149.762L 123.016 151.36"/>
<path style="stroke:#000000; stroke-width:0.10000000000000001; fill:none" d="M 121.414 140.969L 132.61 149.762L 123.016 151.36L 121.414 140.969z"/>
<path style="stroke:#000000; stroke-width:0.10000000000000001; fill:none" d="M 131.008 252.129L 171.789 284.114L 131.008 252.129z"/>
<path style="stroke:none; fill-rule:evenodd; fill:#000000" d="M 140.606 250.528L 131.813 261.723L 131.016 252.129"/>
<path style="stroke:#000000; stroke-width:0.10000000000000001; fill:none" d="M 140.606 250.528L 131.813 261.723L 131.016 252.129L 140.606 250.528z"/>
<path style="stroke:none; fill-rule:evenodd; fill:#7a7a7a" d="M 88.625 288.114L 125.41 288.114L 116.614 309.703L 79.828 309.703"/>
<path style="stroke:#7a7a7a; stroke-width:0.10000000000000001; fill:none" d="M 88.625 288.114L 125.41 288.114L 116.614 309.703L 79.828 309.703L 88.625 288.114z"/>
<path style="stroke:#000000; stroke-width:0.10000000000000001; fill:none" d="M 88.625 288.114L 125.41 288.114L 116.614 309.703L 79.828 309.703L 88.625 288.114z"/>
<path style="stroke:none; fill-rule:evenodd; fill:#ffff00" d="M 90.024 289.196L 123.129 289.196L 115.215 308.625L 82.11 308.625"/>
<path style="stroke:#ffff00; stroke-width:0.10000000000000001; fill:none" d="M 90.024 289.196L 123.129 289.196L 115.215 308.625L 82.11 308.625L 90.024 289.196z"/>
<path style="stroke:none; fill-rule:evenodd; fill:#7a7a7a" d="M 129.41 288.114L 166.196 288.114L 158.2 309.703L 120.614 309.703"/>
<path style="stroke:#7a7a7a; stroke-width:0.10000000000000001; fill:none" d="M 129.41 288.114L 166.196 288.114L 158.2 309.703L 120.614 309.703L 129.41 288.114z"/>
<path style="stroke:#000000; stroke-width:0.10000000000000001; fill:none" d="M 129.41 288.114L 166.196 288.114L 158.2 309.703L 120.614 309.703L 129.41 288.114z"/>
<path style="stroke:#ffffff; stroke-width:0.10000000000000001; fill:none" d="M 143.004 299.309L 143.004 299.309z"/>
<path style="stroke:none; fill-rule:evenodd; fill:#7a7a7a" d="M 78.231 312.907L 115.016 312.907L 106.219 334.496L 69.434 334.496"/>
<path style="stroke:#7a7a7a; stroke-width:0.10000000000000001; fill:none" d="M 78.231 312.907L 115.016 312.907L 106.219 334.496L 69.434 334.496L 78.231 312.907z"/>
<path style="stroke:#000000; stroke-width:0.10000000000000001; fill:none" d="M 78.231 312.907L 115.016 312.907L 106.219 334.496L 69.434 334.496L 78.231 312.907z"/>
<path style="stroke:none; fill-rule:evenodd; fill:#ffff00" d="M 80.348 314.746L 112.016 314.746L 104.102 333.457L 72.434 333.457"/>
<path style="stroke:#ffff00; stroke-width:0.10000000000000001; fill:none" d="M 80.348 314.746L 112.016 314.746L 104.102 333.457L 72.434 333.457L 80.348 314.746z"/>
<path style="stroke:none; fill-rule:evenodd; fill:#7a7a7a" d="M 119.016 312.907L 156.602 312.907L 147.809 334.496L 111.024 334.496"/>
<path style="stroke:#7a7a7a; stroke-width:0.10000000000000001; fill:none" d="M 119.016 312.907L 156.602 312.907L 147.809 334.496L 111.024 334.496L 119.016 312.907z"/>
<path style="stroke:#000000; stroke-width:0.10000000000000001; fill:none" d="M 119.016 312.907L 156.602 312.907L 147.809 334.496L 111.024 334.496L 119.016 312.907z"/>
<path style="stroke:#ffffff; stroke-width:0.10000000000000001; fill:none" d="M 132.61 323.301L 132.61 323.301z"/>
<path style="stroke:none; fill-rule:evenodd; fill:#7a7a7a" d="M 67.832 338.496L 104.618 338.496L 96.621 360.086L 59.036 360.086"/>
<path style="stroke:#7a7a7a; stroke-width:0.10000000000000001; fill:none" d="M 67.832 338.496L 104.618 338.496L 96.621 360.086L 59.036 360.086L 67.832 338.496z"/>
<path style="stroke:#000000; stroke-width:0.10000000000000001; fill:none" d="M 67.832 338.496L 104.618 338.496L 96.621 360.086L 59.036 360.086L 67.832 338.496z"/>
<path style="stroke:#ffffff; stroke-width:0.10000000000000001; fill:none" d="M 81.426 348.891L 81.426 348.891z"/>
<path style="stroke:none; fill-rule:evenodd; fill:#7a7a7a" d="M 109.418 338.496L 146.203 338.496L 137.407 360.086L 100.621 360.086"/>
<path style="stroke:#7a7a7a; stroke-width:0.10000000000000001; fill:none" d="M 109.418 338.496L 146.203 338.496L 137.407 360.086L 100.621 360.086L 109.418 338.496z"/>
<path style="stroke:#000000; stroke-width:0.10000000000000001; fill:none" d="M 109.418 338.496L 146.203 338.496L 137.407 360.086L 100.621 360.086L 109.418 338.496z"/>
<path style="stroke:none; fill-rule:evenodd; fill:#ffff00" d="M 111.536 339.575L 143.203 339.575L 135.289 359.004L 103.621 359.004"/>
<path style="stroke:#ffff00; stroke-width:0.10000000000000001; fill:none" d="M 111.536 339.575L 143.203 339.575L 135.289 359.004L 103.621 359.004L 111.536 339.575z"/>
<path style="stroke:none; fill-rule:evenodd; fill:#7a7a7a" d="M 57.438 363.286L 95.024 363.286L 86.231 384.875L 49.446 384.875"/>
<path style="stroke:#7a7a7a; stroke-width:0.10000000000000001; fill:none" d="M 57.438 363.286L 95.024 363.286L 86.231 384.875L 49.446 384.875L 57.438 363.286z"/>
<path style="stroke:#000000; stroke-width:0.10000000000000001; fill:none" d="M 57.438 363.286L 95.024 363.286L 86.231 384.875L 49.446 384.875L 57.438 363.286z"/>
<path style="stroke:none; fill-rule:evenodd; fill:#ffffff" d="M 71.832 375.282L 71.036 375.282"/>
<path style="stroke:#ffffff; stroke-width:0.10000000000000001; fill:none" d="M 71.832 375.282L 71.036 375.282L 71.832 375.282z"/>
<path style="stroke:none; fill-rule:evenodd; fill:#7a7a7a" d="M 99.024 363.286L 135.809 363.286L 127.012 384.875L 90.227 384.875"/>
<path style="stroke:#7a7a7a; stroke-width:0.10000000000000001; fill:none" d="M 99.024 363.286L 135.809 363.286L 127.012 384.875L 90.227 384.875L 99.024 363.286z"/>
<path style="stroke:#000000; stroke-width:0.10000000000000001; fill:none" d="M 99.024 363.286L 135.809 363.286L 127.012 384.875L 90.227 384.875L 99.024 363.286z"/>
<path style="stroke:none; fill-rule:evenodd; fill:#ffff00" d="M 100.422 365.125L 133.528 365.125L 125.614 383.836L 92.508 383.836"/>
<path style="stroke:#ffff00; stroke-width:0.10000000000000001; fill:none" d="M 100.422 365.125L 133.528 365.125L 125.614 383.836L 92.508 383.836L 100.422 365.125z"/>
<path style="stroke:#000000; stroke-width:0.10000000000000001; fill:none" d="M 89.426 284.118L 171.793 284.118L 131.809 384.879L 49.442 384.879L 89.426 284.118z"/>
<path style="stroke:none; fill-rule:evenodd; fill:#7a7a7a" d="M 170.996 288.114L 207.782 288.114L 198.985 309.703L 162.2 309.703"/>
<path style="stroke:#7a7a7a; stroke-width:0.10000000000000001; fill:none" d="M 170.996 288.114L 207.782 288.114L 198.985 309.703L 162.2 309.703L 170.996 288.114z"/>
<path style="stroke:#000000; stroke-width:0.10000000000000001; fill:none" d="M 170.996 288.114L 207.782 288.114L 198.985 309.703L 162.2 309.703L 170.996 288.114z"/>
<path style="stroke:none; fill-rule:evenodd; fill:#ffff00" d="M 172.395 289.196L 205.5 289.196L 197.586 308.625L 164.481 308.625"/>
<path style="stroke:#ffff00; stroke-width:0.10000000000000001; fill:none" d="M 172.395 289.196L 205.5 289.196L 197.586 308.625L 164.481 308.625L 172.395 289.196z"/>
<path style="stroke:none; fill-rule:evenodd; fill:#7a7a7a" d="M 211.782 288.114L 248.567 288.114L 240.571 309.703L 202.985 309.703"/>
<path style="stroke:#7a7a7a; stroke-width:0.10000000000000001; fill:none" d="M 211.782 288.114L 248.567 288.114L 240.571 309.703L 202.985 309.703L 211.782 288.114z"/>
<path style="stroke:#000000; stroke-width:0.10000000000000001; fill:none" d="M 211.782 288.114L 248.567 288.114L 240.571 309.703L 202.985 309.703L 211.782 288.114z"/>
<path style="stroke:#ffffff; stroke-width:0.10000000000000001; fill:none" d="M 225.375 299.309L 225.375 299.309z"/>
<path style="stroke:none; fill-rule:evenodd; fill:#7a7a7a" d="M 160.602 312.907L 197.387 312.907L 188.59 334.496L 151.805 334.496"/>
<path style="stroke:#7a7a7a; stroke-width:0.10000000000000001; fill:none" d="M 160.602 312.907L 197.387 312.907L 188.59 334.496L 151.805 334.496L 160.602 312.907z"/>
<path style="stroke:#000000; stroke-width:0.10000000000000001; fill:none" d="M 160.602 312.907L 197.387 312.907L 188.59 334.496L 151.805 334.496L 160.602 312.907z"/>
<path style="stroke:none; fill-rule:evenodd; fill:#ffff00" d="M 162.719 314.746L 194.387 314.746L 186.473 333.457L 154.805 333.457"/>
<path style="stroke:#ffff00; stroke-width:0.10000000000000001; fill:none" d="M 162.719 314.746L 194.387 314.746L 186.473 333.457L 154.805 333.457L 162.719 314.746z"/>
<path style="stroke:none; fill-rule:evenodd; fill:#7a7a7a" d="M 201.383 312.907L 238.969 312.907L 230.172 334.496L 192.586 334.496"/>
<path style="stroke:#7a7a7a; stroke-width:0.10000000000000001; fill:none" d="M 201.383 312.907L 238.969 312.907L 230.172 334.496L 192.586 334.496L 201.383 312.907z"/>
<path style="stroke:#000000; stroke-width:0.10000000000000001; fill:none" d="M 201.383 312.907L 238.969 312.907L 230.172 334.496L 192.586 334.496L 201.383 312.907z"/>
<path style="stroke:#ffffff; stroke-width:0.10000000000000001; fill:none" d="M 214.981 323.301L 214.981 323.301z"/>
<path style="stroke:none; fill-rule:evenodd; fill:#7a7a7a" d="M 150.203 338.496L 186.989 338.496L 178.993 360.086L 141.407 360.086"/>
<path style="stroke:#7a7a7a; stroke-width:0.10000000000000001; fill:none" d="M 150.203 338.496L 186.989 338.496L 178.993 360.086L 141.407 360.086L 150.203 338.496z"/>
<path style="stroke:#000000; stroke-width:0.10000000000000001; fill:none" d="M 150.203 338.496L 186.989 338.496L 178.993 360.086L 141.407 360.086L 150.203 338.496z"/>
<path style="stroke:#ffffff; stroke-width:0.10000000000000001; fill:none" d="M 163.797 348.891L 163.797 348.891z"/>
<path style="stroke:none; fill-rule:evenodd; fill:#7a7a7a" d="M 191.789 338.496L 228.575 338.496L 219.782 360.086L 182.996 360.086"/>
<path style="stroke:#7a7a7a; stroke-width:0.10000000000000001; fill:none" d="M 191.789 338.496L 228.575 338.496L 219.782 360.086L 182.996 360.086L 191.789 338.496z"/>
<path style="stroke:#000000; stroke-width:0.10000000000000001; fill:none" d="M 191.789 338.496L 228.575 338.496L 219.782 360.086L 182.996 360.086L 191.789 338.496z"/>
<path style="stroke:none; fill-rule:evenodd; fill:#ffff00" d="M 193.907 339.575L 225.575 339.575L 217.66 359.004L 185.993 359.004"/>
<path style="stroke:#ffff00; stroke-width:0.10000000000000001; fill:none" d="M 193.907 339.575L 225.575 339.575L 217.66 359.004L 185.993 359.004L 193.907 339.575z"/>
<path style="stroke:none; fill-rule:evenodd; fill:#7a7a7a" d="M 139.809 363.286L 177.395 363.286L 168.598 384.875L 131.813 384.875"/>
<path style="stroke:#7a7a7a; stroke-width:0.10000000000000001; fill:none" d="M 139.809 363.286L 177.395 363.286L 168.598 384.875L 131.813 384.875L 139.809 363.286z"/>
<path style="stroke:#000000; stroke-width:0.10000000000000001; fill:none" d="M 139.809 363.286L 177.395 363.286L 168.598 384.875L 131.813 384.875L 139.809 363.286z"/>
<path style="stroke:none; fill-rule:evenodd; fill:#ffffff" d="M 154.203 375.282L 153.407 375.282"/>
<path style="stroke:#ffffff; stroke-width:0.10000000000000001; fill:none" d="M 154.203 375.282L 153.407 375.282L 154.203 375.282z"/>
<path style="stroke:none; fill-rule:evenodd; fill:#7a7a7a" d="M 181.391 363.286L 218.176 363.286L 209.383 384.875L 172.598 384.875"/>
<path style="stroke:#7a7a7a; stroke-width:0.10000000000000001; fill:none" d="M 181.391 363.286L 218.176 363.286L 209.383 384.875L 172.598 384.875L 181.391 363.286z"/>
<path style="stroke:#000000; stroke-width:0.10000000000000001; fill:none" d="M 181.391 363.286L 218.176 363.286L 209.383 384.875L 172.598 384.875L 181.391 363.286z"/>
<path style="stroke:none; fill-rule:evenodd; fill:#ffff00" d="M 182.789 365.125L 215.895 365.125L 207.981 383.836L 174.875 383.836"/>
<path style="stroke:#ffff00; stroke-width:0.10000000000000001; fill:none" d="M 182.789 365.125L 215.895 365.125L 207.981 383.836L 174.875 383.836L 182.789 365.125z"/>
<path style="stroke:#000000; stroke-width:0.10000000000000001; fill:none" d="M 171.793 284.118L 254.16 284.118L 214.176 384.879L 131.809 384.879L 171.793 284.118z"/>
<path style="stroke:#000000; stroke-width:0.10000000000000001; fill:none" d="M 89.426 284.118L 254.164 284.118L 214.18 384.879L 49.442 384.879L 89.426 284.118z"/>
<path style="stroke:#000000; stroke-width:0.10000000000000001; fill:none" d="M 89.426 284.118L 171.793 284.118L 131.809 384.879L 49.442 384.879L 89.426 284.118z"/>
<path style="stroke:none; fill-rule:evenodd; fill:#7a7a7a" d="M 88.625 154.563L 125.41 154.563L 116.614 176.153L 79.828 176.153"/>
<path style="stroke:#7a7a7a; stroke-width:0.10000000000000001; fill:none" d="M 88.625 154.563L 125.41 154.563L 116.614 176.153L 79.828 176.153L 88.625 154.563z"/>
<path style="stroke:#000000; stroke-width:0.10000000000000001; fill:none" d="M 88.625 154.563L 125.41 154.563L 116.614 176.153L 79.828 176.153L 88.625 154.563z"/>
<path style="stroke:none; fill-rule:evenodd; fill:#ffffff" d="M 100.621 164.961L 104.618 164.961L 103.02 167.36L 99.024 167.36"/>
<path style="stroke:#ffffff; stroke-width:0.10000000000000001; fill:none" d="M 100.621 164.961L 104.618 164.961L 103.02 167.36L 99.024 167.36L 100.621 164.961z"/>
<path style="stroke:none; fill-rule:evenodd; fill:#7a7a7a" d="M 129.41 154.563L 166.196 154.563L 158.2 176.153L 120.614 176.153"/>
<path style="stroke:#7a7a7a; stroke-width:0.10000000000000001; fill:none" d="M 129.41 154.563L 166.196 154.563L 158.2 176.153L 120.614 176.153L 129.41 154.563z"/>
<path style="stroke:#000000; stroke-width:0.10000000000000001; fill:none" d="M 129.41 154.563L 166.196 154.563L 158.2 176.153L 120.614 176.153L 129.41 154.563z"/>
<path style="stroke:#ffffff; stroke-width:0.10000000000000001; fill:none" d="M 143.004 166.559L 143.004 166.559z"/>
<path style="stroke:none; fill-rule:evenodd; fill:#7a7a7a" d="M 78.231 180.153L 115.016 180.153L 106.219 201.743L 69.434 201.743"/>
<path style="stroke:#7a7a7a; stroke-width:0.10000000000000001; fill:none" d="M 78.231 180.153L 115.016 180.153L 106.219 201.743L 69.434 201.743L 78.231 180.153z"/>
<path style="stroke:#000000; stroke-width:0.10000000000000001; fill:none" d="M 78.231 180.153L 115.016 180.153L 106.219 201.743L 69.434 201.743L 78.231 180.153z"/>
<path style="stroke:none; fill-rule:evenodd; fill:#ffff00" d="M 87.028 187.352L 100.621 187.352L 97.426 194.547L 83.832 194.547"/>
<path style="stroke:#ffff00; stroke-width:0.10000000000000001; fill:none" d="M 87.028 187.352L 100.621 187.352L 97.426 194.547L 83.832 194.547L 87.028 187.352z"/>
<path style="stroke:none; fill-rule:evenodd; fill:#7a7a7a" d="M 119.016 180.153L 156.602 180.153L 147.809 201.743L 111.024 201.743"/>
<path style="stroke:#7a7a7a; stroke-width:0.10000000000000001; fill:none" d="M 119.016 180.153L 156.602 180.153L 147.809 201.743L 111.024 201.743L 119.016 180.153z"/>
<path style="stroke:#000000; stroke-width:0.10000000000000001; fill:none" d="M 119.016 180.153L 156.602 180.153L 147.809 201.743L 111.024 201.743L 119.016 180.153z"/>
<path style="stroke:#ffffff; stroke-width:0.10000000000000001; fill:none" d="M 132.61 190.551L 132.61 190.551z"/>
<path style="stroke:none; fill-rule:evenodd; fill:#7a7a7a" d="M 67.832 205.746L 104.618 205.746L 96.621 226.536L 59.036 226.536"/>
<path style="stroke:#7a7a7a; stroke-width:0.10000000000000001; fill:none" d="M 67.832 205.746L 104.618 205.746L 96.621 226.536L 59.036 226.536L 67.832 205.746z"/>
<path style="stroke:#000000; stroke-width:0.10000000000000001; fill:none" d="M 67.832 205.746L 104.618 205.746L 96.621 226.536L 59.036 226.536L 67.832 205.746z"/>
<path style="stroke:#ffffff; stroke-width:0.10000000000000001; fill:none" d="M 81.426 216.141L 81.426 216.141z"/>
<path style="stroke:none; fill-rule:evenodd; fill:#7a7a7a" d="M 109.418 205.746L 146.203 205.746L 137.407 226.536L 100.621 226.536"/>
<path style="stroke:#7a7a7a; stroke-width:0.10000000000000001; fill:none" d="M 109.418 205.746L 146.203 205.746L 137.407 226.536L 100.621 226.536L 109.418 205.746z"/>
<path style="stroke:#000000; stroke-width:0.10000000000000001; fill:none" d="M 109.418 205.746L 146.203 205.746L 137.407 226.536L 100.621 226.536L 109.418 205.746z"/>
<path style="stroke:none; fill-rule:evenodd; fill:#ffff00" d="M 112.215 207.465L 139.563 207.465L 133.086 224.016L 106.457 224.016"/>
<path style="stroke:#ffff00; stroke-width:0.10000000000000001; fill:none" d="M 112.215 207.465L 139.563 207.465L 133.086 224.016L 106.457 224.016L 112.215 207.465z"/>
<path style="stroke:none; fill-rule:evenodd; fill:#7a7a7a" d="M 57.438 230.536L 95.024 230.536L 86.231 252.125L 49.446 252.125"/>
<path style="stroke:#7a7a7a; stroke-width:0.10000000000000001; fill:none" d="M 57.438 230.536L 95.024 230.536L 86.231 252.125L 49.446 252.125L 57.438 230.536z"/>
<path style="stroke:#000000; stroke-width:0.10000000000000001; fill:none" d="M 57.438 230.536L 95.024 230.536L 86.231 252.125L 49.446 252.125L 57.438 230.536z"/>
<path style="stroke:none; fill-rule:evenodd; fill:#ffffff" d="M 71.832 242.532L 71.036 242.532"/>
<path style="stroke:#ffffff; stroke-width:0.10000000000000001; fill:none" d="M 71.832 242.532L 71.036 242.532L 71.832 242.532z"/>
<path style="stroke:none; fill-rule:evenodd; fill:#7a7a7a" d="M 99.024 230.536L 135.809 230.536L 127.012 252.125L 90.227 252.125"/>
<path style="stroke:#7a7a7a; stroke-width:0.10000000000000001; fill:none" d="M 99.024 230.536L 135.809 230.536L 127.012 252.125L 90.227 252.125L 99.024 230.536z"/>
<path style="stroke:#000000; stroke-width:0.10000000000000001; fill:none" d="M 99.024 230.536L 135.809 230.536L 127.012 252.125L 90.227 252.125L 99.024 230.536z"/>
<path style="stroke:none; fill-rule:evenodd; fill:#ffff00" d="M 101.102 233.094L 131.328 233.094L 124.133 250.364L 93.907 250.364"/>
<path style="stroke:#ffff00; stroke-width:0.10000000000000001; fill:none" d="M 101.102 233.094L 131.328 233.094L 124.133 250.364L 93.907 250.364L 101.102 233.094z"/>
<path style="stroke:#000000; stroke-width:0.10000000000000001; fill:none" d="M 89.426 151.364L 171.793 151.364L 131.809 252.125L 49.442 252.125L 89.426 151.364z"/>
<path style="stroke:none; fill-rule:evenodd; fill:#7a7a7a" d="M 170.996 154.563L 207.782 154.563L 198.985 176.153L 162.2 176.153"/>
<path style="stroke:#7a7a7a; stroke-width:0.10000000000000001; fill:none" d="M 170.996 154.563L 207.782 154.563L 198.985 176.153L 162.2 176.153L 170.996 154.563z"/>
<path style="stroke:#000000; stroke-width:0.10000000000000001; fill:none" d="M 170.996 154.563L 207.782 154.563L 198.985 176.153L 162.2 176.153L 170.996 154.563z"/>
<path style="stroke:none; fill-rule:evenodd; fill:#ffffff" d="M 184.59 166.559L 183.793 166.559"/>
<path style="stroke:#ffffff; stroke-width:0.10000000000000001; fill:none" d="M 184.59 166.559L 183.793 166.559L 184.59 166.559z"/>
<path style="stroke:none; fill-rule:evenodd; fill:#7a7a7a" d="M 211.782 154.563L 248.567 154.563L 240.571 176.153L 202.985 176.153"/>
<path style="stroke:#7a7a7a; stroke-width:0.10000000000000001; fill:none" d="M 211.782 154.563L 248.567 154.563L 240.571 176.153L 202.985 176.153L 211.782 154.563z"/>
<path style="stroke:#000000; stroke-width:0.10000000000000001; fill:none" d="M 211.782 154.563L 248.567 154.563L 240.571 176.153L 202.985 176.153L 211.782 154.563z"/>
<path style="stroke:#ffffff; stroke-width:0.10000000000000001; fill:none" d="M 225.375 166.559L 225.375 166.559z"/>
<path style="stroke:none; fill-rule:evenodd; fill:#7a7a7a" d="M 160.602 180.153L 197.387 180.153L 188.59 201.743L 151.805 201.743"/>
<path style="stroke:#7a7a7a; stroke-width:0.10000000000000001; fill:none" d="M 160.602 180.153L 197.387 180.153L 188.59 201.743L 151.805 201.743L 160.602 180.153z"/>
<path style="stroke:#000000; stroke-width:0.10000000000000001; fill:none" d="M 160.602 180.153L 197.387 180.153L 188.59 201.743L 151.805 201.743L 160.602 180.153z"/>
<path style="stroke:#ffffff; stroke-width:0.10000000000000001; fill:none" d="M 174.196 190.551L 174.196 190.551z"/>
<path style="stroke:none; fill-rule:evenodd; fill:#7a7a7a" d="M 201.383 180.153L 238.969 180.153L 230.172 201.743L 192.586 201.743"/>
<path style="stroke:#7a7a7a; stroke-width:0.10000000000000001; fill:none" d="M 201.383 180.153L 238.969 180.153L 230.172 201.743L 192.586 201.743L 201.383 180.153z"/>
<path style="stroke:#000000; stroke-width:0.10000000000000001; fill:none" d="M 201.383 180.153L 238.969 180.153L 230.172 201.743L 192.586 201.743L 201.383 180.153z"/>
<path style="stroke:#ffffff; stroke-width:0.10000000000000001; fill:none" d="M 214.981 190.551L 214.981 190.551z"/>
<path style="stroke:none; fill-rule:evenodd; fill:#7a7a7a" d="M 150.203 205.746L 186.989 205.746L 178.993 226.536L 141.407 226.536"/>
<path style="stroke:#7a7a7a; stroke-width:0.10000000000000001; fill:none" d="M 150.203 205.746L 186.989 205.746L 178.993 226.536L 141.407 226.536L 150.203 205.746z"/>
<path style="stroke:#000000; stroke-width:0.10000000000000001; fill:none" d="M 150.203 205.746L 186.989 205.746L 178.993 226.536L 141.407 226.536L 150.203 205.746z"/>
<path style="stroke:#ffffff; stroke-width:0.10000000000000001; fill:none" d="M 163.797 216.141L 163.797 216.141z"/>
<path style="stroke:none; fill-rule:evenodd; fill:#7a7a7a" d="M 191.789 205.746L 228.575 205.746L 219.782 226.536L 182.996 226.536"/>
<path style="stroke:#7a7a7a; stroke-width:0.10000000000000001; fill:none" d="M 191.789 205.746L 228.575 205.746L 219.782 226.536L 182.996 226.536L 191.789 205.746z"/>
<path style="stroke:#000000; stroke-width:0.10000000000000001; fill:none" d="M 191.789 205.746L 228.575 205.746L 219.782 226.536L 182.996 226.536L 191.789 205.746z"/>
<path style="stroke:#ffffff; stroke-width:0.10000000000000001; fill:none" d="M 205.383 216.141L 205.383 216.141z"/>
<path style="stroke:none; fill-rule:evenodd; fill:#7a7a7a" d="M 139.809 230.536L 177.395 230.536L 168.598 252.125L 131.813 252.125"/>
<path style="stroke:#7a7a7a; stroke-width:0.10000000000000001; fill:none" d="M 139.809 230.536L 177.395 230.536L 168.598 252.125L 131.813 252.125L 139.809 230.536z"/>
<path style="stroke:#000000; stroke-width:0.10000000000000001; fill:none" d="M 139.809 230.536L 177.395 230.536L 168.598 252.125L 131.813 252.125L 139.809 230.536z"/>
<path style="stroke:none; fill-rule:evenodd; fill:#ffffff" d="M 154.203 242.532L 153.407 242.532"/>
<path style="stroke:#ffffff; stroke-width:0.10000000000000001; fill:none" d="M 154.203 242.532L 153.407 242.532L 154.203 242.532z"/>
<path style="stroke:none; fill-rule:evenodd; fill:#7a7a7a" d="M 181.391 230.536L 218.176 230.536L 209.383 252.125L 172.598 252.125"/>
<path style="stroke:#7a7a7a; stroke-width:0.10000000000000001; fill:none" d="M 181.391 230.536L 218.176 230.536L 209.383 252.125L 172.598 252.125L 181.391 230.536z"/>
<path style="stroke:#000000; stroke-width:0.10000000000000001; fill:none" d="M 181.391 230.536L 218.176 230.536L 209.383 252.125L 172.598 252.125L 181.391 230.536z"/>
<path style="stroke:#ffffff; stroke-width:0.10000000000000001; fill:none" d="M 194.989 242.532L 194.989 242.532z"/>
<path style="stroke:#000000; stroke-width:0.10000000000000001; fill:none" d="M 171.793 151.364L 254.16 151.364L 214.176 252.125L 131.809 252.125L 171.793 151.364z"/>
<path style="stroke:#000000; stroke-width:0.10000000000000001; fill:none" d="M 89.426 151.364L 254.164 151.364L 214.18 252.125L 49.442 252.125L 89.426 151.364z"/>
<path style="stroke:#000000; stroke-width:0.10000000000000001; fill:none" d="M 89.426 151.364L 171.793 151.364L 131.809 252.125L 49.442 252.125L 89.426 151.364z"/>
<path style="stroke:none; fill-rule:evenodd; fill:#7a7a7a" d="M 170.996 21.813L 207.782 21.813L 198.985 43.403L 162.2 43.403"/>
<path style="stroke:#7a7a7a; stroke-width:0.10000000000000001; fill:none" d="M 170.996 21.813L 207.782 21.813L 198.985 43.403L 162.2 43.403L 170.996 21.813z"/>
<path style="stroke:#000000; stroke-width:0.10000000000000001; fill:none" d="M 170.996 21.813L 207.782 21.813L 198.985 43.403L 162.2 43.403L 170.996 21.813z"/>
<path style="stroke:none; fill-rule:evenodd; fill:#ffffff" d="M 184.59 33.008L 183.793 33.008"/>
<path style="stroke:#ffffff; stroke-width:0.10000000000000001; fill:none" d="M 184.59 33.008L 183.793 33.008L 184.59 33.008z"/>
<path style="stroke:none; fill-rule:evenodd; fill:#7a7a7a" d="M 160.602 47.403L 197.387 47.403L 188.59 68.993L 151.805 68.993"/>
<path style="stroke:#7a7a7a; stroke-width:0.10000000000000001; fill:none" d="M 160.602 47.403L 197.387 47.403L 188.59 68.993L 151.805 68.993L 160.602 47.403z"/>
<path style="stroke:#000000; stroke-width:0.10000000000000001; fill:none" d="M 160.602 47.403L 197.387 47.403L 188.59 68.993L 151.805 68.993L 160.602 47.403z"/>
<path style="stroke:#ffffff; stroke-width:0.10000000000000001; fill:none" d="M 174.196 57.797L 174.196 57.797z"/>
<path style="stroke:none; fill-rule:evenodd; fill:#7a7a7a" d="M 150.203 72.196L 186.989 72.196L 178.993 93.786L 141.407 93.786"/>
<path style="stroke:#7a7a7a; stroke-width:0.10000000000000001; fill:none" d="M 150.203 72.196L 186.989 72.196L 178.993 93.786L 141.407 93.786L 150.203 72.196z"/>
<path style="stroke:#000000; stroke-width:0.10000000000000001; fill:none" d="M 150.203 72.196L 186.989 72.196L 178.993 93.786L 141.407 93.786L 150.203 72.196z"/>
<path style="stroke:none; fill-rule:evenodd; fill:#ffff00" d="M 151.602 73.274L 184.707 73.274L 177.512 92.703L 143.688 92.703"/>
<path style="stroke:#ffff00; stroke-width:0.10000000000000001; fill:none" d="M 151.602 73.274L 184.707 73.274L 177.512 92.703L 143.688 92.703L 151.602 73.274z"/>
<path style="stroke:none; fill-rule:evenodd; fill:#7a7a7a" d="M 139.809 97.786L 177.395 97.786L 168.598 119.375L 131.813 119.375"/>
<path style="stroke:#7a7a7a; stroke-width:0.10000000000000001; fill:none" d="M 139.809 97.786L 177.395 97.786L 168.598 119.375L 131.813 119.375L 139.809 97.786z"/>
<path style="stroke:#000000; stroke-width:0.10000000000000001; fill:none" d="M 139.809 97.786L 177.395 97.786L 168.598 119.375L 131.813 119.375L 139.809 97.786z"/>
<path style="stroke:none; fill-rule:evenodd; fill:#ffff00" d="M 141.286 98.864L 175.11 98.864L 167.196 118.293L 134.09 118.293"/>
<path style="stroke:#ffff00; stroke-width:0.10000000000000001; fill:none" d="M 141.286 98.864L 175.11 98.864L 167.196 118.293L 134.09 118.293L 141.286 98.864z"/>
<path style="stroke:#000000; stroke-width:0.10000000000000001; fill:none" d="M 171.793 17.813L 213.375 17.813L 172.594 119.371L 131.813 119.371L 171.793 17.813z"/>
<path style="stroke:none; fill-rule:evenodd; fill:#7a7a7a" d="M 211.782 21.813L 248.567 21.813L 240.571 43.403L 202.985 43.403"/>
<path style="stroke:#7a7a7a; stroke-width:0.10000000000000001; fill:none" d="M 211.782 21.813L 248.567 21.813L 240.571 43.403L 202.985 43.403L 211.782 21.813z"/>
<path style="stroke:#000000; stroke-width:0.10000000000000001; fill:none" d="M 211.782 21.813L 248.567 21.813L 240.571 43.403L 202.985 43.403L 211.782 21.813z"/>
<path style="stroke:#ffffff; stroke-width:0.10000000000000001; fill:none" d="M 225.375 33.008L 225.375 33.008z"/>
<path style="stroke:none; fill-rule:evenodd; fill:#7a7a7a" d="M 201.383 47.403L 238.969 47.403L 230.172 68.993L 192.586 68.993"/>
<path style="stroke:#7a7a7a; stroke-width:0.10000000000000001; fill:none" d="M 201.383 47.403L 238.969 47.403L 230.172 68.993L 192.586 68.993L 201.383 47.403z"/>
<path style="stroke:#000000; stroke-width:0.10000000000000001; fill:none" d="M 201.383 47.403L 238.969 47.403L 230.172 68.993L 192.586 68.993L 201.383 47.403z"/>
<path style="stroke:#ffffff; stroke-width:0.10000000000000001; fill:none" d="M 214.981 57.797L 214.981 57.797z"/>
<path style="stroke:none; fill-rule:evenodd; fill:#7a7a7a" d="M 191.789 72.196L 228.575 72.196L 219.782 93.786L 182.996 93.786"/>
<path style="stroke:#7a7a7a; stroke-width:0.10000000000000001; fill:none" d="M 191.789 72.196L 228.575 72.196L 219.782 93.786L 182.996 93.786L 191.789 72.196z"/>
<path style="stroke:#000000; stroke-width:0.10000000000000001; fill:none" d="M 191.789 72.196L 228.575 72.196L 219.782 93.786L 182.996 93.786L 191.789 72.196z"/>
<path style="stroke:#ffffff; stroke-width:0.10000000000000001; fill:none" d="M 205.383 82.59L 205.383 82.59z"/>
<path style="stroke:none; fill-rule:evenodd; fill:#7a7a7a" d="M 181.391 97.786L 218.176 97.786L 209.383 119.375L 172.598 119.375"/>
<path style="stroke:#7a7a7a; stroke-width:0.10000000000000001; fill:none" d="M 181.391 97.786L 218.176 97.786L 209.383 119.375L 172.598 119.375L 181.391 97.786z"/>
<path style="stroke:#000000; stroke-width:0.10000000000000001; fill:none" d="M 181.391 97.786L 218.176 97.786L 209.383 119.375L 172.598 119.375L 181.391 97.786z"/>
<path style="stroke:#ffffff; stroke-width:0.10000000000000001; fill:none" d="M 194.989 108.981L 194.989 108.981z"/>
<path style="stroke:#000000; stroke-width:0.10000000000000001; fill:none" d="M 213.379 17.813L 254.16 17.813L 214.176 119.371L 172.594 119.371L 213.379 17.813z"/>
<path style="stroke:#000000; stroke-width:0.10000000000000001; fill:none" d="M 171.793 17.813L 254.16 17.813L 214.176 119.371L 131.809 119.371L 171.793 17.813z"/>
<path style="stroke:#000000; stroke-width:0.10000000000000001; fill:none" d="M 171.793 17.813L 213.375 17.813L 172.594 119.371L 131.813 119.371L 171.793 17.813z"/>
<path style="stroke:none; fill-rule:evenodd; fill:#7a7a7a" d="M 263.762 363.286L 300.547 363.286L 291.754 384.875L 254.969 384.875"/>
<path style="stroke:#7a7a7a; stroke-width:0.10000000000000001; fill:none" d="M 263.762 363.286L 300.547 363.286L 291.754 384.875L 254.969 384.875L 263.762 363.286z"/>
<path style="stroke:#000000; stroke-width:0.10000000000000001; fill:none" d="M 263.762 363.286L 300.547 363.286L 291.754 384.875L 254.969 384.875L 263.762 363.286z"/>
<path style="stroke:#ffffff; stroke-width:0.10000000000000001; fill:none" d="M 277.356 375.282L 277.356 375.282z"/>
<path style="stroke:none; fill-rule:evenodd; fill:#7a7a7a" d="M 304.547 363.286L 342.133 363.286L 333.336 384.875L 296.551 384.875"/>
<path style="stroke:#7a7a7a; stroke-width:0.10000000000000001; fill:none" d="M 304.547 363.286L 342.133 363.286L 333.336 384.875L 296.551 384.875L 304.547 363.286z"/>
<path style="stroke:#000000; stroke-width:0.10000000000000001; fill:none" d="M 304.547 363.286L 342.133 363.286L 333.336 384.875L 296.551 384.875L 304.547 363.286z"/>
<path style="stroke:none; fill-rule:evenodd; fill:#ffff00" d="M 306.024 365.125L 339.848 365.125L 331.934 383.836L 298.828 383.836"/>
<path style="stroke:#ffff00; stroke-width:0.10000000000000001; fill:none" d="M 306.024 365.125L 339.848 365.125L 331.934 383.836L 298.828 383.836L 306.024 365.125z"/>
<path style="stroke:#000000; stroke-width:0.10000000000000001; fill:none" d="M 265.36 360.086L 347.727 360.086L 337.332 384.875L 254.965 384.875L 265.36 360.086z"/>
<path style="stroke:#000000; stroke-width:0.10000000000000001; fill:none" d="M 265.36 360.086L 347.727 360.086L 337.332 384.875L 254.965 384.875L 265.36 360.086z"/>
<path style="stroke:none; fill-rule:evenodd; fill:#7a7a7a" d="M 263.762 230.536L 300.547 230.536L 291.754 252.125L 254.969 252.125"/>
<path style="stroke:#7a7a7a; stroke-width:0.10000000000000001; fill:none" d="M 263.762 230.536L 300.547 230.536L 291.754 252.125L 254.969 252.125L 263.762 230.536z"/>
<path style="stroke:#000000; stroke-width:0.10000000000000001; fill:none" d="M 263.762 230.536L 300.547 230.536L 291.754 252.125L 254.969 252.125L 263.762 230.536z"/>
<path style="stroke:none; fill-rule:evenodd; fill:#ffff00" d="M 265.16 232.375L 298.266 232.375L 290.352 251.086L 257.246 251.086"/>
<path style="stroke:#ffff00; stroke-width:0.10000000000000001; fill:none" d="M 265.16 232.375L 298.266 232.375L 290.352 251.086L 257.246 251.086L 265.16 232.375z"/>
<path style="stroke:#000000; stroke-width:0.10000000000000001; fill:none" d="M 265.36 226.536L 306.141 226.536L 296.547 252.125L 254.965 252.125L 265.36 226.536z"/>
<path style="stroke:#000000; stroke-width:0.10000000000000001; fill:none" d="M 265.36 226.536L 306.141 226.536L 296.547 252.125L 254.965 252.125L 265.36 226.536z"/>
<path style="stroke:none; fill-rule:evenodd; fill:#7a7a7a" d="M 263.762 97.786L 300.547 97.786L 291.754 119.375L 254.969 119.375"/>
<path style="stroke:#7a7a7a; stroke-width:0.10000000000000001; fill:none" d="M 263.762 97.786L 300.547 97.786L 291.754 119.375L 254.969 119.375L 263.762 97.786z"/>
<path style="stroke:#000000; stroke-width:0.10000000000000001; fill:none" d="M 263.762 97.786L 300.547 97.786L 291.754 119.375L 254.969 119.375L 263.762 97.786z"/>
<path style="stroke:none; fill-rule:evenodd; fill:#ffff00" d="M 265.16 98.864L 298.266 98.864L 290.352 118.293L 257.246 118.293"/>
<path style="stroke:#ffff00; stroke-width:0.10000000000000001; fill:none" d="M 265.16 98.864L 298.266 98.864L 290.352 118.293L 257.246 118.293L 265.16 98.864z"/>
<path style="stroke:none; fill-rule:evenodd; fill:#7a7a7a" d="M 304.547 97.786L 342.133 97.786L 333.336 119.375L 296.551 119.375"/>
<path style="stroke:#7a7a7a; stroke-width:0.10000000000000001; fill:none" d="M 304.547 97.786L 342.133 97.786L 333.336 119.375L 296.551 119.375L 304.547 97.786z"/>
<path style="stroke:#000000; stroke-width:0.10000000000000001; fill:none" d="M 304.547 97.786L 342.133 97.786L 333.336 119.375L 296.551 119.375L 304.547 97.786z"/>
<path style="stroke:none; fill-rule:evenodd; fill:#ffffff" d="M 318.942 108.981L 318.145 108.981"/>
<path style="stroke:#ffffff; stroke-width:0.10000000000000001; fill:none" d="M 318.942 108.981L 318.145 108.981L 318.942 108.981z"/>
<path style="stroke:#000000; stroke-width:0.10000000000000001; fill:none" d="M 265.36 93.786L 347.727 93.786L 337.332 119.375L 254.965 119.375L 265.36 93.786z"/>
<path style="stroke:#000000; stroke-width:0.10000000000000001; fill:none" d="M 265.36 93.786L 347.727 93.786L 337.332 119.375L 254.965 119.375L 265.36 93.786z"/>
<path style="stroke:none; fill-rule:evenodd; fill:#000000" d="M 17.996 341.301L 19.793 341.301L 19.793 327.301L 17.996 327.301L 17.996 341.301z"/>
<path style="stroke:none; fill-rule:evenodd; fill:#000000" d="M 22.696 331.289L 22.696 341.297L 24.293 341.297L 24.293 335.782C 24.293 333.739 25.387 332.403 27.075 332.403C 28.368 332.403 29.188 333.164 29.188 334.368L 29.188 341.297L 30.786 341.297L 30.786 333.735C 30.786 332.075 29.524 331.004 27.563 331.004C 26.051 331.004 25.082 331.578 24.188 332.973L 24.188 331.293L 22.696 331.289z"/>
<path style="stroke:none; fill-rule:evenodd; fill:#000000" d="M 33.098 345.485L 34.696 345.485L 34.696 340.203C 35.539 341.239 36.481 341.703 37.789 341.703C 40.383 341.703 42.094 339.629 42.094 336.45C 42.094 333.102 40.45 331.008 37.789 331.008C 36.434 331.008 35.344 331.618 34.598 332.805L 34.598 331.297L 33.098 331.297L 33.098 345.485zM 37.536 332.5C 39.325 332.5 40.493 334.036 40.493 336.407C 40.493 338.66 39.305 340.196 37.536 340.196C 35.825 340.196 34.696 338.68 34.696 336.348C 34.696 334.02 35.825 332.5 37.536 332.5z"/>
<path style="stroke:none; fill-rule:evenodd; fill:#000000" d="M 52.098 341.258L 52.098 331.2L 50.5 331.2L 50.5 336.899C 50.5 338.95 49.407 340.293 47.711 340.293C 46.426 340.293 45.606 339.528 45.606 338.317L 45.606 331.196L 44.008 331.196L 44.008 338.95C 44.008 340.618 45.262 341.692 47.231 341.692C 48.715 341.692 49.66 341.176 50.606 339.852L 50.606 341.25L 52.098 341.258z"/>
<path style="stroke:none; fill-rule:evenodd; fill:#000000" d="M 58.297 331.2L 56.598 331.2L 56.598 328.481L 55 328.481L 55 331.2L 53.703 331.2L 53.703 332.496L 55 332.496L 55 340.102C 55 341.118 55.7 341.696 56.969 341.696C 57.36 341.696 57.746 341.66 58.297 341.567L 58.297 340.262C 58.082 340.286 57.825 340.297 57.508 340.297C 56.797 340.297 56.602 340.106 56.602 339.395L 56.602 332.5L 58.301 332.5L 58.297 331.2z"/>
<path style="stroke:none; fill-rule:evenodd; fill:#000000" d="M 8.996 199L 8.996 205.399L 10.793 205.399L 10.793 191.399L 8.996 191.399L 8.996 197.399L 1.797 197.399L 1.797 191.399L 0 191.399L 0 205.399L 1.797 205.399L 1.797 199L 8.996 199z"/>
<path style="stroke:none; fill-rule:evenodd; fill:#000000" d="M 15.098 195.301L 13.5 195.301L 13.5 205.399L 15.098 205.399L 15.098 195.301zM 15.098 191.399L 13.5 191.399L 13.5 193.418L 15.098 193.418L 15.098 191.399z"/>
<path style="stroke:none; fill-rule:evenodd; fill:#000000" d="M 25.996 191.399L 24.399 191.399L 24.399 196.606C 23.727 195.621 22.657 195.098 21.313 195.098C 18.707 195.098 17 197.172 17 200.352C 17 203.719 18.672 205.793 21.383 205.793C 22.766 205.793 23.727 205.289 24.594 204.071L 24.594 205.391L 25.993 205.391L 25.996 191.399zM 21.543 196.598C 23.286 196.598 24.395 198.114 24.395 200.485C 24.395 202.778 23.27 204.293 21.563 204.293C 19.782 204.293 18.598 202.758 18.598 200.446C 18.598 198.133 19.778 196.598 21.543 196.598z"/>
<path style="stroke:none; fill-rule:evenodd; fill:#000000" d="M 36.696 191.399L 35.098 191.399L 35.098 196.606C 34.426 195.621 33.356 195.098 32.012 195.098C 29.407 195.098 27.7 197.172 27.7 200.352C 27.7 203.719 29.371 205.793 32.082 205.793C 33.465 205.793 34.426 205.289 35.293 204.071L 35.293 205.391L 36.692 205.391L 36.696 191.399zM 32.243 196.598C 33.985 196.598 35.094 198.114 35.094 200.485C 35.094 202.778 33.969 204.293 32.262 204.293C 30.481 204.293 29.297 202.758 29.297 200.446C 29.297 198.133 30.477 196.598 32.243 196.598z"/>
<path style="stroke:none; fill-rule:evenodd; fill:#000000" d="M 47.696 200.899C 47.696 199.379 47.582 198.465 47.293 197.727C 46.641 196.094 45.102 195.106 43.219 195.106C 40.414 195.106 38.606 197.239 38.606 200.512C 38.606 203.786 40.344 205.801 43.157 205.801C 45.45 205.801 47.036 204.516 47.438 202.352L 45.821 202.352C 45.379 203.633 44.473 204.301 43.18 204.301C 42.16 204.301 41.289 203.852 40.75 203.02C 40.368 202.457 40.231 201.887 40.211 200.907L 47.696 200.899zM 40.274 199.606C 40.407 197.746 41.539 196.536 43.153 196.536C 44.723 196.536 45.934 197.84 45.934 199.489C 45.934 199.524 45.934 199.563 45.918 199.602L 40.274 199.606z"/>
<path style="stroke:none; fill-rule:evenodd; fill:#000000" d="M 49.797 195.387L 49.797 205.395L 51.395 205.395L 51.395 199.879C 51.395 197.836 52.489 196.5 54.176 196.5C 55.469 196.5 56.289 197.262 56.289 198.465L 56.289 205.395L 57.887 205.395L 57.887 197.832C 57.887 196.172 56.625 195.102 54.664 195.102C 53.153 195.102 52.184 195.676 51.289 197.071L 51.289 195.391L 49.797 195.387z"/>
<path style="stroke:none; fill-rule:evenodd; fill:#000000" d="M 262.598 28L 267.036 28C 268.137 28 269.012 27.676 269.766 27C 270.618 26.231 270.989 25.325 270.989 24.032C 270.989 21.3911 269.418 19.907 266.629 19.907L 260.793 19.907L 260.793 33.907L 262.59 33.907L 262.598 28zM 262.598 26.399L 262.598 21.5L 266.348 21.5C 268.067 21.5 269.094 22.418 269.094 23.95C 269.094 25.4771 268.071 26.399 266.348 26.399L 262.598 26.399z"/>
<path style="stroke:none; fill-rule:evenodd; fill:#000000" d="M 275.395 27.5L 282.082 27.5L 282.082 25.903L 275.395 25.903L 275.395 21.504L 282.993 21.504L 282.993 19.907L 273.594 19.907L 273.594 33.907L 275.395 33.907L 275.395 27.5z"/>
<path style="stroke:none; fill-rule:evenodd; fill:#000000" d="M 296.403 24.246C 295.844 21.192 294.078 19.703 291 19.703C 289.118 19.703 287.598 20.293 286.563 21.442C 285.297 22.817 284.602 24.801 284.602 27.059C 284.602 29.3521 285.313 31.317 286.637 32.676C 287.711 33.782 289.098 34.297 290.922 34.297C 294.344 34.297 296.266 32.473 296.688 28.793L 294.844 28.793C 294.692 29.735 294.5 30.375 294.211 30.922C 293.637 32.051 292.446 32.692 290.95 32.692C 288.168 32.692 286.399 30.489 286.399 27.032C 286.399 23.481 288.086 21.293 290.793 21.293C 291.926 21.293 292.981 21.633 293.555 22.16C 294.071 22.629 294.36 23.215 294.571 24.235L 296.403 24.246z"/>
<path style="stroke:none; fill-rule:evenodd; fill:#000000" d="M 297.098 37.301L 308.598 37.301L 308.598 36.301L 297.098 36.301L 297.098 37.301z"/>
<path style="stroke:none; fill-rule:evenodd; fill:#000000" d="M 311.696 27.5L 318.383 27.5L 318.383 25.903L 311.696 25.903L 311.696 21.504L 319.293 21.504L 319.293 19.907L 309.895 19.907L 309.895 33.907L 311.696 33.907L 311.696 27.5z"/>
<path style="stroke:none; fill-rule:evenodd; fill:#000000" d="M 329.797 29.399C 329.797 27.879 329.684 26.965 329.395 26.2271C 328.743 24.594 327.203 23.606 325.321 23.606C 322.516 23.606 320.707 25.739 320.707 29.012C 320.707 32.286 322.446 34.301 325.258 34.301C 327.551 34.301 329.137 33.0161 329.539 30.8521L 327.922 30.8521C 327.481 32.133 326.575 32.801 325.282 32.801C 324.262 32.801 323.391 32.3521 322.852 31.52C 322.469 30.957 322.332 30.387 322.313 29.407L 329.797 29.399zM 322.371 28.106C 322.504 26.246 323.637 25.036 325.25 25.036C 326.821 25.036 328.032 26.34 328.032 27.989C 328.032 28.024 328.032 28.063 328.016 28.1021L 322.371 28.106z"/>
<path style="stroke:none; fill-rule:evenodd; fill:#000000" d="M 340.864 32.957C 340.7 32.996 340.625 32.996 340.532 32.996C 339.996 32.996 339.7 32.711 339.7 32.215L 339.7 26.336C 339.7 24.563 338.391 23.606 335.899 23.606C 334.434 23.606 333.219 24.02 332.543 24.758C 332.082 25.2661 331.891 25.836 331.852 26.817L 333.469 26.817C 333.602 25.637 334.336 25.1021 335.84 25.1021C 337.286 25.1021 338.098 25.633 338.098 26.582L 338.098 27C 338.098 27.66 337.696 27.946 336.418 28.098C 334.141 28.379 333.793 28.457 333.176 28.703C 332 29.176 331.403 30.067 331.403 31.356C 331.403 33.157 332.668 34.293 334.703 34.293C 335.969 34.293 336.985 33.868 338.121 32.86C 338.235 33.844 338.735 34.293 339.77 34.293C 340.094 34.293 340.344 34.258 340.864 34.125L 340.864 32.957zM 338.098 30.715C 338.098 31.246 337.942 31.567 337.453 32.004C 336.789 32.59 335.985 32.895 335.024 32.895C 333.75 32.895 333.004 32.309 333.004 31.301C 333.004 30.258 333.727 29.7271 335.473 29.481C 337.196 29.254 337.551 29.18 338.102 28.93L 338.098 30.715z"/>
<path style="stroke:none; fill-rule:evenodd; fill:#000000" d="M 346.098 23.801L 344.399 23.801L 344.399 21.082L 342.801 21.082L 342.801 23.801L 341.504 23.801L 341.504 25.098L 342.801 25.098L 342.801 32.703C 342.801 33.719 343.5 34.297 344.77 34.297C 345.16 34.297 345.547 34.262 346.098 34.168L 346.098 32.864C 345.883 32.887 345.625 32.899 345.309 32.899C 344.598 32.899 344.403 32.707 344.403 31.996L 344.403 25.1021L 346.102 25.1021L 346.098 23.801z"/>
<path style="stroke:none; fill-rule:evenodd; fill:#000000" d="M 258.926 341.399C 254.922 341.399 252.2 344.34 252.2 348.696C 252.2 353.051 254.922 355.993 258.946 355.993C 260.629 355.993 262.145 355.477 263.278 354.524C 264.789 353.246 265.696 351.086 265.696 348.813C 265.696 344.325 263.032 341.399 258.926 341.399zM 258.926 343C 261.946 343 263.895 345.282 263.895 348.774C 263.895 352.114 261.887 354.395 258.946 354.395C 255.985 354.395 254 352.118 254 348.7C 254 345.282 255.985 343 258.93 343L 258.926 343z"/>
<path style="stroke:none; fill-rule:evenodd; fill:#000000" d="M 275.696 355.559L 275.696 345.5L 274.098 345.5L 274.098 351.2C 274.098 353.25 273.004 354.594 271.309 354.594C 270.024 354.594 269.203 353.828 269.203 352.618L 269.203 345.496L 267.606 345.496L 267.606 353.25C 267.606 354.918 268.86 355.993 270.828 355.993C 272.313 355.993 273.258 355.477 274.203 354.153L 274.203 355.551L 275.696 355.559z"/>
<path style="stroke:none; fill-rule:evenodd; fill:#000000" d="M 281.996 345.5L 280.297 345.5L 280.297 342.782L 278.7 342.782L 278.7 345.5L 277.403 345.5L 277.403 346.797L 278.7 346.797L 278.7 354.403C 278.7 355.418 279.399 355.996 280.668 355.996C 281.059 355.996 281.446 355.961 281.996 355.868L 281.996 354.563C 281.782 354.586 281.524 354.598 281.207 354.598C 280.496 354.598 280.301 354.407 280.301 353.696L 280.301 346.801L 282 346.801L 281.996 345.5z"/>
<path style="stroke:none; fill-rule:evenodd; fill:#000000" d="M 283.395 359.786L 284.993 359.786L 284.993 354.504C 285.836 355.539 286.778 356.004 288.086 356.004C 290.68 356.004 292.391 353.93 292.391 350.75C 292.391 347.403 290.746 345.309 288.086 345.309C 286.731 345.309 285.641 345.918 284.895 347.106L 284.895 345.598L 283.395 345.598L 283.395 359.786zM 287.836 346.801C 289.625 346.801 290.793 348.336 290.793 350.707C 290.793 352.961 289.606 354.496 287.836 354.496C 286.125 354.496 284.996 352.981 284.996 350.649C 284.996 348.321 286.125 346.801 287.836 346.801z"/>
<path style="stroke:none; fill-rule:evenodd; fill:#000000" d="M 302.395 355.559L 302.395 345.5L 300.797 345.5L 300.797 351.2C 300.797 353.25 299.703 354.594 298.008 354.594C 296.723 354.594 295.903 353.828 295.903 352.618L 295.903 345.496L 294.305 345.496L 294.305 353.25C 294.305 354.918 295.559 355.993 297.528 355.993C 299.012 355.993 299.957 355.477 300.903 354.153L 300.903 355.551L 302.395 355.559z"/>
<path style="stroke:none; fill-rule:evenodd; fill:#000000" d="M 308.696 345.5L 306.996 345.5L 306.996 342.782L 305.399 342.782L 305.399 345.5L 304.102 345.5L 304.102 346.797L 305.399 346.797L 305.399 354.403C 305.399 355.418 306.098 355.996 307.368 355.996C 307.758 355.996 308.145 355.961 308.696 355.868L 308.696 354.563C 308.481 354.586 308.223 354.598 307.907 354.598C 307.196 354.598 307 354.407 307 353.696L 307 346.801L 308.7 346.801L 308.696 345.5z"/>
<path style="stroke:none; fill-rule:evenodd; fill:#000000" d="M 270.793 267.098L 272.231 271.297L 274.223 271.297L 269.313 257.297L 267.012 257.297L 262.024 271.297L 263.922 271.297L 265.399 267.098L 270.793 267.098zM 270.293 265.598L 265.844 265.598L 268.145 259.227L 270.293 265.598z"/>
<path style="stroke:none; fill-rule:evenodd; fill:#000000" d="M 287.203 261.645C 286.645 258.59 284.879 257.102 281.801 257.102C 279.918 257.102 278.399 257.692 277.364 258.84C 276.098 260.215 275.403 262.2 275.403 264.457C 275.403 266.75 276.114 268.715 277.438 270.075C 278.512 271.18 279.899 271.696 281.723 271.696C 285.145 271.696 287.067 269.871 287.489 266.192L 285.645 266.192C 285.493 267.133 285.301 267.774 285.012 268.321C 284.438 269.45 283.246 270.09 281.75 270.09C 278.969 270.09 277.2 267.887 277.2 264.43C 277.2 260.879 278.887 258.692 281.594 258.692C 282.727 258.692 283.782 259.032 284.356 259.559C 284.871 260.028 285.16 260.614 285.371 261.633L 287.203 261.645z"/>
<path style="stroke:none; fill-rule:evenodd; fill:#000000" d="M 297.196 132L 301.633 132C 302.735 132 303.61 131.676 304.364 131C 305.215 130.231 305.586 129.325 305.586 128.032C 305.586 125.391 304.016 123.907 301.227 123.907L 295.391 123.907L 295.391 137.907L 297.188 137.907L 297.196 132zM 297.196 130.399L 297.196 125.5L 300.946 125.5C 302.664 125.5 303.692 126.418 303.692 127.95C 303.692 129.477 302.668 130.399 300.946 130.399L 297.196 130.399z"/>
<path style="stroke:none; fill-rule:evenodd; fill:#000000" d="M 309.996 131.5L 316.684 131.5L 316.684 129.903L 309.996 129.903L 309.996 125.504L 317.594 125.504L 317.594 123.907L 308.196 123.907L 308.196 137.907L 309.996 137.907L 309.996 131.5z"/>
<path style="stroke:none; fill-rule:evenodd; fill:#000000" d="M 330.903 128.246C 330.344 125.192 328.578 123.703 325.5 123.703C 323.618 123.703 322.098 124.293 321.063 125.442C 319.797 126.817 319.102 128.801 319.102 131.059C 319.102 133.352 319.813 135.317 321.137 136.676C 322.211 137.782 323.598 138.297 325.422 138.297C 328.844 138.297 330.766 136.473 331.188 132.793L 329.344 132.793C 329.192 133.735 329 134.375 328.711 134.922C 328.137 136.051 326.946 136.692 325.45 136.692C 322.668 136.692 320.899 134.489 320.899 131.032C 320.899 127.481 322.586 125.293 325.293 125.293C 326.426 125.293 327.481 125.633 328.055 126.16C 328.571 126.629 328.86 127.215 329.071 128.235L 330.903 128.246z"/>
<path style="stroke:none; fill-rule:evenodd; fill:#000000" d="M 331.696 141.301L 343.196 141.301L 343.196 140.301L 331.696 140.301L 331.696 141.301z"/>
<path style="stroke:none; fill-rule:evenodd; fill:#000000" d="M 344.496 137.899L 349.891 137.899C 353.422 137.899 355.594 135.25 355.594 130.891C 355.594 126.555 353.446 123.903 349.891 123.903L 344.496 123.903L 344.496 137.899zM 346.297 136.301L 346.297 125.504L 349.586 125.504C 352.34 125.504 353.793 127.356 353.793 130.91C 353.793 134.426 352.34 136.297 349.586 136.297L 346.297 136.301z"/>
<path style="stroke:none; fill-rule:evenodd; fill:#000000" d="M 359.496 127.801L 357.899 127.801L 357.899 137.899L 359.496 137.899L 359.496 127.801zM 359.496 123.899L 357.899 123.899L 357.899 125.918L 359.496 125.918L 359.496 123.899z"/>
<path style="stroke:none; fill-rule:evenodd; fill:#000000" d="M 362.196 127.887L 362.196 137.895L 363.793 137.895L 363.793 131.614C 363.793 130.164 364.868 129 366.196 129C 367.407 129 368.09 129.727 368.09 131.004L 368.09 137.895L 369.688 137.895L 369.688 131.614C 369.688 130.164 370.735 129 372.032 129C 373.192 129 373.883 129.743 373.883 131.004L 373.883 137.895L 375.481 137.895L 375.481 130.387C 375.481 128.594 374.446 127.598 372.563 127.598C 371.223 127.598 370.418 127.989 369.477 129.086C 368.883 128.043 368.078 127.598 366.774 127.598C 365.434 127.598 364.551 128.094 363.688 129.297L 363.688 127.887L 362.196 127.887z"/>
<path style="stroke:none; fill-rule:evenodd; fill:#000000" d="M 104.797 281.5L 110.192 281.5C 113.723 281.5 115.895 278.852 115.895 274.493C 115.895 270.157 113.746 267.504 110.192 267.504L 104.797 267.504L 104.797 281.5zM 106.598 279.899L 106.598 269.102L 109.887 269.102C 112.641 269.102 114.094 270.953 114.094 274.508C 114.094 278.024 112.641 279.895 109.887 279.895L 106.598 279.899z"/>
<path style="stroke:none; fill-rule:evenodd; fill:#000000" d="M 119.797 271.399L 118.2 271.399L 118.2 281.496L 119.797 281.496L 119.797 271.399zM 119.797 267.5L 118.2 267.5L 118.2 269.52L 119.797 269.52L 119.797 267.5z"/>
<path style="stroke:none; fill-rule:evenodd; fill:#000000" d="M 122.496 271.489L 122.496 281.496L 124.094 281.496L 124.094 275.215C 124.094 273.766 125.168 272.602 126.496 272.602C 127.707 272.602 128.391 273.328 128.391 274.606L 128.391 281.496L 129.989 281.496L 129.989 275.215C 129.989 273.766 131.036 272.602 132.332 272.602C 133.493 272.602 134.184 273.344 134.184 274.606L 134.184 281.496L 135.782 281.496L 135.782 273.989C 135.782 272.196 134.746 271.2 132.864 271.2C 131.524 271.2 130.719 271.59 129.778 272.688C 129.184 271.645 128.379 271.2 127.075 271.2C 125.735 271.2 124.852 271.696 123.989 272.899L 123.989 271.489L 122.496 271.489z"/>
<path style="stroke:none; fill-rule:evenodd; fill:#000000" d="M 151.594 277.301L 153.032 281.5L 155.024 281.5L 150.114 267.5L 147.813 267.5L 142.825 281.5L 144.723 281.5L 146.2 277.301L 151.594 277.301zM 151.094 275.801L 146.645 275.801L 148.946 269.43L 151.094 275.801z"/>
<path style="stroke:none; fill-rule:evenodd; fill:#000000" d="M 184.996 280.598L 190.391 280.598C 193.922 280.598 196.094 277.95 196.094 273.59C 196.094 269.254 193.946 266.602 190.391 266.602L 184.996 266.602L 184.996 280.598zM 186.797 279L 186.797 268.203L 190.086 268.203C 192.84 268.203 194.293 270.055 194.293 273.61C 194.293 277.125 192.84 278.996 190.086 278.996L 186.797 279z"/>
<path style="stroke:none; fill-rule:evenodd; fill:#000000" d="M 200.098 270.5L 198.5 270.5L 198.5 280.598L 200.098 280.598L 200.098 270.5zM 200.098 266.598L 198.5 266.598L 198.5 268.618L 200.098 268.618L 200.098 266.598z"/>
<path style="stroke:none; fill-rule:evenodd; fill:#000000" d="M 202.797 270.59L 202.797 280.598L 204.395 280.598L 204.395 274.317C 204.395 272.868 205.469 271.703 206.797 271.703C 208.008 271.703 208.692 272.43 208.692 273.707L 208.692 280.598L 210.289 280.598L 210.289 274.317C 210.289 272.868 211.336 271.703 212.633 271.703C 213.793 271.703 214.485 272.446 214.485 273.707L 214.485 280.598L 216.082 280.598L 216.082 273.09C 216.082 271.297 215.047 270.301 213.164 270.301C 211.825 270.301 211.02 270.692 210.078 271.789C 209.485 270.746 208.68 270.301 207.375 270.301C 206.036 270.301 205.153 270.797 204.289 272L 204.289 270.59L 202.797 270.59z"/>
<path style="stroke:none; fill-rule:evenodd; fill:#000000" d="M 224.297 280.598L 230.645 280.598C 231.973 280.598 232.957 280.235 233.711 279.43C 234.403 278.703 234.789 277.703 234.789 276.61C 234.789 274.922 234.012 273.907 232.196 273.211C 233.496 272.618 234.188 271.582 234.188 270.16C 234.188 269.145 233.801 268.243 233.067 267.59C 232.332 266.918 231.368 266.61 230.012 266.61L 224.289 266.61L 224.297 280.598zM 226.098 272.598L 226.098 268.2L 229.575 268.2C 230.578 268.2 231.137 268.332 231.621 268.692C 232.121 269.071 232.391 269.637 232.391 270.395C 232.391 271.133 232.121 271.719 231.621 272.098C 231.141 272.457 230.578 272.59 229.575 272.59L 226.098 272.598zM 226.098 279L 226.098 274.203L 230.473 274.203C 231.336 274.203 231.914 274.414 232.34 274.871C 232.762 275.309 232.993 275.922 232.993 276.61C 232.993 277.278 232.762 277.887 232.34 278.328C 231.918 278.786 231.34 278.996 230.473 278.996L 226.098 279z"/>
<path style="stroke:none; fill-rule:evenodd; fill:#000000" d="M 66.996 387.801L 65.2 387.801L 65.2 401.801L 73.899 401.801L 73.899 400.203L 67 400.203L 66.996 387.801z"/>
<path style="stroke:none; fill-rule:evenodd; fill:#000000" d="M 102.996 395.801L 107.594 395.801C 109.184 395.801 109.895 396.563 109.895 398.282L 109.895 399.52C 109.895 400.379 110.043 401.219 110.289 401.793L 112.422 401.793L 112.422 401.356C 111.762 400.895 111.629 400.395 111.594 398.536C 111.575 396.235 111.207 395.543 109.684 394.891C 111.258 394.125 111.895 393.145 111.895 391.551C 111.895 389.133 110.379 387.809 107.637 387.809L 101.2 387.809L 101.2 401.809L 102.996 401.809L 102.996 395.801zM 102.965 394.2L 102.965 389.383L 107.282 389.383C 108.278 389.383 108.852 389.536 109.293 389.918C 109.77 390.321 110.02 390.953 110.02 391.797C 110.02 393.446 109.176 394.196 107.278 394.196L 102.965 394.2z"/>
<path style="stroke:none; fill-rule:evenodd; fill:#000000" d="M 147.297 387.801L 145.5 387.801L 145.5 401.801L 154.2 401.801L 154.2 400.203L 147.301 400.203L 147.297 387.801z"/>
<path style="stroke:none; fill-rule:evenodd; fill:#000000" d="M 186.395 395.801L 190.993 395.801C 192.582 395.801 193.293 396.563 193.293 398.282L 193.293 399.52C 193.293 400.379 193.442 401.219 193.688 401.793L 195.821 401.793L 195.821 401.356C 195.16 400.895 195.028 400.395 194.993 398.536C 194.973 396.235 194.606 395.543 193.082 394.891C 194.657 394.125 195.293 393.145 195.293 391.551C 195.293 389.133 193.778 387.809 191.036 387.809L 184.598 387.809L 184.598 401.809L 186.395 401.809L 186.395 395.801zM 186.368 394.2L 186.368 389.383L 190.684 389.383C 191.68 389.383 192.254 389.536 192.696 389.918C 193.172 390.321 193.422 390.953 193.422 391.797C 193.422 393.446 192.578 394.196 190.68 394.196L 186.368 394.2z"/>
<path style="stroke:none; fill-rule:evenodd; fill:#000000" d="M 253.696 89.801L 259.09 89.801C 262.621 89.801 264.793 87.153 264.793 82.793C 264.793 78.457 262.645 75.805 259.09 75.805L 253.696 75.805L 253.696 89.801zM 255.496 88.2L 255.496 77.403L 258.786 77.403C 261.539 77.403 262.993 79.254 262.993 82.809C 262.993 86.325 261.539 88.196 258.786 88.196L 255.496 88.2z"/>
<path style="stroke:none; fill-rule:evenodd; fill:#000000" d="M 268.696 79.7L 267.098 79.7L 267.098 89.797L 268.696 89.797L 268.696 79.7zM 268.696 75.801L 267.098 75.801L 267.098 77.821L 268.696 77.821L 268.696 75.801z"/>
<path style="stroke:none; fill-rule:evenodd; fill:#000000" d="M 271.395 79.789L 271.395 89.797L 272.993 89.797L 272.993 83.5161C 272.993 82.067 274.067 80.903 275.395 80.903C 276.606 80.903 277.289 81.629 277.289 82.907L 277.289 89.797L 278.887 89.797L 278.887 83.5161C 278.887 82.067 279.934 80.903 281.231 80.903C 282.391 80.903 283.082 81.645 283.082 82.907L 283.082 89.797L 284.68 89.797L 284.68 82.289C 284.68 80.496 283.645 79.5 281.762 79.5C 280.422 79.5 279.618 79.8911 278.676 80.989C 278.082 79.946 277.278 79.5 275.973 79.5C 274.633 79.5 273.75 79.996 272.887 81.2L 272.887 79.789L 271.395 79.789z"/>
<path style="stroke:none; fill-rule:evenodd; fill:#000000" d="M 300.493 85.598L 301.93 89.797L 303.922 89.797L 299.012 75.797L 296.711 75.797L 291.723 89.797L 293.621 89.797L 295.098 85.598L 300.493 85.598zM 299.993 84.098L 295.543 84.098L 297.844 77.7271L 299.993 84.098z"/>
<path style="stroke:none; fill-rule:evenodd; fill:#000000" d="M 312.797 89.801L 318.192 89.801C 321.723 89.801 323.895 87.153 323.895 82.793C 323.895 78.457 321.746 75.805 318.192 75.805L 312.797 75.805L 312.797 89.801zM 314.598 88.2L 314.598 77.403L 317.887 77.403C 320.641 77.403 322.094 79.254 322.094 82.809C 322.094 86.325 320.641 88.196 317.887 88.196L 314.598 88.2z"/>
<path style="stroke:none; fill-rule:evenodd; fill:#000000" d="M 327.895 79.7L 326.297 79.7L 326.297 89.797L 327.895 89.797L 327.895 79.7zM 327.895 75.801L 326.297 75.801L 326.297 77.821L 327.895 77.821L 327.895 75.801z"/>
<path style="stroke:none; fill-rule:evenodd; fill:#000000" d="M 330.496 79.789L 330.496 89.797L 332.094 89.797L 332.094 83.5161C 332.094 82.067 333.168 80.903 334.496 80.903C 335.707 80.903 336.391 81.629 336.391 82.907L 336.391 89.797L 337.989 89.797L 337.989 83.5161C 337.989 82.067 339.036 80.903 340.332 80.903C 341.493 80.903 342.184 81.645 342.184 82.907L 342.184 89.797L 343.782 89.797L 343.782 82.289C 343.782 80.496 342.746 79.5 340.864 79.5C 339.524 79.5 338.719 79.8911 337.778 80.989C 337.184 79.946 336.379 79.5 335.075 79.5C 333.735 79.5 332.852 79.996 331.989 81.2L 331.989 79.789L 330.496 79.789z"/>
<path style="stroke:none; fill-rule:evenodd; fill:#000000" d="M 351.996 89.801L 358.344 89.801C 359.672 89.801 360.657 89.438 361.41 88.633C 362.102 87.907 362.489 86.907 362.489 85.813C 362.489 84.125 361.711 83.11 359.895 82.414C 361.196 81.821 361.887 80.786 361.887 79.364C 361.887 78.348 361.5 77.446 360.766 76.793C 360.032 76.121 359.067 75.813 357.711 75.813L 351.989 75.813L 351.996 89.801zM 353.797 81.801L 353.797 77.403L 357.274 77.403C 358.278 77.403 358.836 77.536 359.321 77.895C 359.821 78.274 360.09 78.84 360.09 79.598C 360.09 80.336 359.821 80.922 359.321 81.301C 358.84 81.66 358.278 81.793 357.274 81.793L 353.797 81.801zM 353.797 88.2L 353.797 83.403L 358.172 83.403C 359.036 83.403 359.614 83.614 360.039 84.071C 360.461 84.508 360.692 85.121 360.692 85.809C 360.692 86.477 360.461 87.086 360.039 87.528C 359.618 87.985 359.039 88.196 358.172 88.196L 353.797 88.2z"/>
<path style="stroke:none; fill-rule:evenodd; fill:#000000" d="M 152.297 14L 157.692 14C 161.223 14 163.395 11.3521 163.395 6.99304C 163.395 2.65704 161.246 0.00402832 157.692 0.00402832L 152.297 0.00402832L 152.297 14zM 154.098 12.399L 154.098 1.60205L 157.387 1.60205C 160.141 1.60205 161.594 3.453 161.594 7.008C 161.594 10.524 160.141 12.395 157.387 12.395L 154.098 12.399z"/>
<path style="stroke:none; fill-rule:evenodd; fill:#000000" d="M 167.395 3.89905L 165.797 3.89905L 165.797 13.996L 167.395 13.996L 167.395 3.89905zM 167.395 0L 165.797 0L 165.797 2.02002L 167.395 2.02002L 167.395 0z"/>
<path style="stroke:none; fill-rule:evenodd; fill:#000000" d="M 169.996 3.98901L 169.996 13.996L 171.594 13.996L 171.594 7.71503C 171.594 6.26605 172.668 5.10205 173.996 5.10205C 175.207 5.10205 175.891 5.828 175.891 7.10602L 175.891 13.996L 177.489 13.996L 177.489 7.71503C 177.489 6.26605 178.536 5.10205 179.832 5.10205C 180.993 5.10205 181.684 5.84399 181.684 7.10602L 181.684 13.996L 183.282 13.996L 183.282 6.48901C 183.282 4.69604 182.246 3.70001 180.364 3.70001C 179.024 3.70001 178.219 4.09003 177.278 5.18805C 176.684 4.14502 175.879 3.70001 174.575 3.70001C 173.235 3.70001 172.352 4.19604 171.489 5.39905L 171.489 3.98901L 169.996 3.98901z"/>
<path style="stroke:none; fill-rule:evenodd; fill:#000000" d="M 199.094 9.80103L 200.532 14L 202.524 14L 197.614 0L 195.313 0L 190.325 14L 192.223 14L 193.7 9.80103L 199.094 9.80103zM 198.594 8.30103L 194.145 8.30103L 196.446 1.92999L 198.594 8.30103z"/>
<path style="stroke:none; fill-rule:evenodd; fill:#000000" d="M 213.996 14L 219.391 14C 222.922 14 225.094 11.3521 225.094 6.99304C 225.094 2.65704 222.946 0.00402832 219.391 0.00402832L 213.996 0.00402832L 213.996 14zM 215.797 12.399L 215.797 1.60205L 219.086 1.60205C 221.84 1.60205 223.293 3.453 223.293 7.008C 223.293 10.524 221.84 12.395 219.086 12.395L 215.797 12.399z"/>
<path style="stroke:none; fill-rule:evenodd; fill:#000000" d="M 228.996 3.89905L 227.399 3.89905L 227.399 13.996L 228.996 13.996L 228.996 3.89905zM 228.996 0L 227.399 0L 227.399 2.02002L 228.996 2.02002L 228.996 0z"/>
<path style="stroke:none; fill-rule:evenodd; fill:#000000" d="M 231.696 3.98901L 231.696 13.996L 233.293 13.996L 233.293 7.71503C 233.293 6.26605 234.368 5.10205 235.696 5.10205C 236.907 5.10205 237.59 5.828 237.59 7.10602L 237.59 13.996L 239.188 13.996L 239.188 7.71503C 239.188 6.26605 240.235 5.10205 241.532 5.10205C 242.692 5.10205 243.383 5.84399 243.383 7.10602L 243.383 13.996L 244.981 13.996L 244.981 6.48901C 244.981 4.69604 243.946 3.70001 242.063 3.70001C 240.723 3.70001 239.918 4.09003 238.977 5.18805C 238.383 4.14502 237.578 3.70001 236.274 3.70001C 234.934 3.70001 234.051 4.19604 233.188 5.39905L 233.188 3.98901L 231.696 3.98901z"/>
<path style="stroke:none; fill-rule:evenodd; fill:#000000" d="M 253.196 14L 259.543 14C 260.871 14 261.856 13.637 262.61 12.832C 263.301 12.106 263.688 11.106 263.688 10.012C 263.688 8.32501 262.91 7.30902 261.094 6.61401C 262.395 6.02002 263.086 4.98505 263.086 3.56305C 263.086 2.547 262.7 1.64502 261.965 0.993042C 261.231 0.321045 260.266 0.0120239 258.91 0.0120239L 253.188 0.0120239L 253.196 14zM 254.996 6L 254.996 1.60205L 258.473 1.60205C 259.477 1.60205 260.036 1.73505 260.52 2.09399C 261.02 2.47302 261.289 3.039 261.289 3.797C 261.289 4.53601 261.02 5.12103 260.52 5.5C 260.039 5.86005 259.477 5.99304 258.473 5.99304L 254.996 6zM 254.996 12.399L 254.996 7.60205L 259.371 7.60205C 260.235 7.60205 260.813 7.81305 261.239 8.27002C 261.66 8.70703 261.891 9.32104 261.891 10.008C 261.891 10.676 261.66 11.286 261.239 11.7271C 260.817 12.184 260.239 12.395 259.371 12.395L 254.996 12.399z"/>
<path style="stroke:none; fill-rule:evenodd; fill:#000000" d="M 270.598 388.801L 268.801 388.801L 268.801 402.801L 277.5 402.801L 277.5 401.203L 270.602 401.203L 270.598 388.801z"/>
<path style="stroke:none; fill-rule:evenodd; fill:#000000" d="M 310.996 395.801L 315.594 395.801C 317.184 395.801 317.895 396.563 317.895 398.282L 317.895 399.52C 317.895 400.379 318.043 401.219 318.289 401.793L 320.422 401.793L 320.422 401.356C 319.762 400.895 319.629 400.395 319.594 398.536C 319.575 396.235 319.207 395.543 317.684 394.891C 319.258 394.125 319.895 393.145 319.895 391.551C 319.895 389.133 318.379 387.809 315.637 387.809L 309.2 387.809L 309.2 401.809L 310.996 401.809L 310.996 395.801zM 310.965 394.2L 310.965 389.383L 315.282 389.383C 316.278 389.383 316.852 389.536 317.293 389.918C 317.77 390.321 318.02 390.953 318.02 391.797C 318.02 393.446 317.176 394.196 315.278 394.196L 310.965 394.2z"/>
</g>
</svg>