<?xml version="1.0" encoding="ISO-8859-1" standalone="yes"?>
<svg width="268.676" height="143.863">
  <defs> 
    <marker id="ArrowEnd" viewBox="0 0 10 10" refX="0" refY="5" 
     markerUnits="strokeWidth" 
     markerWidth="4" 
     markerHeight="3" 
     orient="auto"> 
        <path d="M 0 0 L 10 5 L 0 10 z" /> 
    </marker>
    <marker id="ArrowStart" viewBox="0 0 10 10" refX="10" refY="5" 
     markerUnits="strokeWidth" 
     markerWidth="4" 
     markerHeight="3" 
     orient="auto"> 
        <path d="M 10 0 L 0 5 L 10 10 z" /> 
    </marker> </defs>
<g>
<path style="stroke:#000000; stroke-width:1.9133; fill:none" d="M 10.0273 91.1873L 29.1601 91.1873L 29.1601 66.3163L 10.0273 66.3163L 10.0273 91.1873z"/>
<path style="stroke:none; fill-rule:evenodd; fill:#000000" d="M 21.2148 79.6713L 22.0741 82.1713L 23.2655 82.1713L 20.328 73.7733L 18.953 73.7733L 15.9687 82.1713L 17.1015 82.1713L 17.9843 79.6713L 21.2148 79.6713zM 20.9179 78.7693L 18.2577 78.7693L 19.6327 74.9483L 20.9179 78.7693z"/>
<path style="stroke:#000000; stroke-width:1.9133; fill:none" d="M 36.8124 91.1873L 55.9452 91.1873L 55.9452 66.3163L 36.8124 66.3163L 36.8124 91.1873z"/>
<path style="stroke:#000000; stroke-width:1.9133; fill:none" d="M 63.5976 131.366L 82.7307 131.366L 82.7307 106.495L 63.5976 106.495L 63.5976 131.366z"/>
<path style="stroke:#000000; stroke-width:1.9133; fill:none" d="M 90.3867 131.366L 109.52 131.366L 109.52 106.495L 90.3867 106.495L 90.3867 131.366z"/>
<path style="stroke:none; fill-rule:evenodd; fill:#000000" d="M 46.4726 76.2573C 46.4648 74.6203 45.3437 73.6713 43.4296 73.6713C 41.6054 73.6713 40.4765 74.6203 40.4765 76.1483C 40.4765 77.1753 41.0077 77.8273 42.0976 78.1163L 44.1523 78.6713C 45.1952 78.9483 45.6718 79.3743 45.6718 80.0343C 45.6718 80.4843 45.4335 80.9483 45.0859 81.2023C 44.7577 81.4333 44.2382 81.5583 43.5702 81.5583C 42.6757 81.5583 42.0663 81.3313 41.6718 80.8313C 41.3671 80.4523 41.2304 80.0343 41.2812 79.4953L 40.2812 79.4953C 40.289 80.2733 40.4374 80.7843 40.7655 81.2493C 41.3319 82.0383 42.2851 82.4563 43.5429 82.4563C 44.5273 82.4563 45.3319 82.2303 45.8671 81.8123C 46.4218 81.3663 46.7734 80.6163 46.7734 79.8903C 46.7734 78.8553 46.1405 78.0973 45.0155 77.7843L 42.9413 77.2223C 41.9452 76.9483 41.5819 76.6243 41.5819 75.9803C 41.5819 75.1283 42.3163 74.5623 43.4218 74.5623C 44.7304 74.5623 45.4648 75.1633 45.4765 76.2493L 46.4726 76.2573z"/>
<path style="stroke:none; fill-rule:evenodd; fill:#000000" d="M 50.3749 76.4023L 50.3749 82.1673L 51.3749 82.1673L 51.3749 74.0703L 50.7069 74.0703C 50.3515 75.3123 50.121 75.4843 48.5507 75.6793L 48.5507 76.3983L 50.3749 76.4023z"/>
<path style="stroke:#000000; stroke-width:1.9133; fill:none" d="M 63.5976 52.9213L 82.7307 52.9213L 82.7307 28.0503L 63.5976 28.0503L 63.5976 52.9213z"/>
<path style="stroke:#000000; stroke-width:1.9133; fill:none" d="M 90.3867 52.9213L 109.52 52.9213L 109.52 28.0503L 90.3867 28.0503L 90.3867 52.9213z"/>
<path style="stroke:#000000; stroke-width:1.9133; fill:none" d="M 46.3788 91.1873L 63.5976 117.972"/>
<path style="stroke:#000000; stroke-width:1.9133; fill:none" d="M 61.0702 110.499L 63.5976 117.968L 57.8515 112.566"/>
<path style="stroke:#000000; stroke-width:1.9133; fill:none" d="M 19.5937 66.3163L 63.5976 39.5303"/>
<path style="stroke:#000000; stroke-width:1.9133; fill:none" d="M 56.0663 41.8743L 63.5976 39.5303L 58.0546 45.1403"/>
<path style="stroke:#000000; stroke-width:1.9133; fill:none" d="M 73.164 106.491L 73.164 52.9213"/>
<path style="stroke:#000000; stroke-width:1.9133; fill:none" d="M 71.2499 60.5733L 73.1601 52.9213L 75.0707 60.5733"/>
<path style="stroke:none; fill-rule:evenodd; fill:#000000" d="M 74.8167 41.3703L 75.6757 43.8703L 76.8667 43.8703L 73.9297 35.4723L 72.5546 35.4723L 69.5702 43.8703L 70.703 43.8703L 71.5859 41.3703L 74.8167 41.3703zM 74.5157 40.4683L 71.8554 40.4683L 73.2304 36.6483L 74.5157 40.4683z"/>
<path style="stroke:#000000; stroke-width:1.9133; fill:none" d="M 99.9487 106.491L 99.9487 52.9213"/>
<path style="stroke:#000000; stroke-width:1.9133; fill:none" d="M 98.0387 60.5733L 99.9487 52.9213L 101.86 60.5733"/>
<path style="stroke:none; fill-rule:evenodd; fill:#000000" d="M 73.6757 117.968L 70.078 117.968L 70.078 118.866L 72.6757 118.866L 72.6757 119.101C 72.6757 120.644 71.578 121.761 70.0585 121.761C 69.2148 121.761 68.4491 121.448 67.9569 120.902C 67.4101 120.296 67.078 119.284 67.078 118.234C 67.078 116.148 68.2421 114.769 70.0038 114.769C 71.2695 114.769 72.1835 115.437 72.414 116.534L 73.4999 116.534C 73.203 114.843 71.914 113.866 69.996 113.866C 68.9765 113.866 68.1484 114.132 67.4921 114.671C 66.5312 115.476 65.9765 116.777 65.9765 118.284C 65.9765 120.863 67.5468 122.659 69.8124 122.659C 70.9491 122.659 71.8554 122.234 72.6718 121.323L 72.9491 122.437L 73.6679 122.437L 73.6757 117.968z"/>
<path style="stroke:none; fill-rule:evenodd; fill:#000000" d="M 77.6137 116.171C 75.9097 116.171 74.8787 117.386 74.8787 119.421C 74.8787 121.456 75.8987 122.671 77.6287 122.671C 79.3317 122.671 80.3787 121.46 80.3787 119.472C 80.3787 117.382 79.3707 116.179 77.6207 116.179L 77.6137 116.171zM 77.6247 117.07C 78.7187 117.07 79.3747 117.956 79.3747 119.452C 79.3747 120.866 78.6987 121.765 77.6247 121.765C 76.5427 121.765 75.8747 120.878 75.8747 119.417C 75.8747 117.968 76.5387 117.07 77.6247 117.07z"/>
<path style="stroke:#000000; stroke-width:1.9133; fill:none" d="M 46.3788 91.1873L 90.3827 106.491"/>
<path style="stroke:#000000; stroke-width:1.9133; fill:none" d="M 83.7847 102.171L 90.3827 106.491L 82.5277 105.788"/>
<path style="stroke:none; fill-rule:evenodd; fill:#000000" d="M 99.6757 113.968L 98.6757 113.968L 98.6757 120.839L 94.3277 113.968L 93.1797 113.968L 93.1797 122.366L 94.1797 122.366L 94.1797 115.585L 98.4807 122.366L 99.6757 122.366L 99.6757 113.968z"/>
<path style="stroke:none; fill-rule:evenodd; fill:#000000" d="M 103.711 116.171C 102.008 116.171 100.977 117.386 100.977 119.421C 100.977 121.456 101.996 122.671 103.727 122.671C 105.43 122.671 106.477 121.46 106.477 119.472C 106.477 117.382 105.469 116.179 103.719 116.179L 103.711 116.171zM 103.723 117.07C 104.817 117.07 105.473 117.956 105.473 119.452C 105.473 120.866 104.797 121.765 103.723 121.765C 102.641 121.765 101.973 120.878 101.973 119.417C 101.973 117.968 102.637 117.07 103.723 117.07z"/>
<path style="stroke:none; fill-rule:evenodd; fill:#000000" d="M 62.2734 10.9683L 62.2734 12.2343L 62.5898 13.7613L 63.0507 13.7613L 63.3671 12.2343L 63.3671 10.9683L 62.2734 10.9683zM 64.0741 10.9683L 64.0741 12.2343L 64.3905 13.7613L 64.8515 13.7613L 65.1679 12.2343L 65.1679 10.9683L 64.0741 10.9683z"/>
<path style="stroke:none; fill-rule:evenodd; fill:#000000" d="M 72.5741 13.1593C 72.5663 11.5233 71.4452 10.5733 69.5312 10.5733C 67.7069 10.5733 66.578 11.5233 66.578 13.0503C 66.578 14.0773 67.1093 14.7303 68.1991 15.0193L 70.2538 15.5733C 71.2968 15.8513 71.7734 16.2773 71.7734 16.9373C 71.7734 17.3863 71.5351 17.8513 71.1874 18.1053C 70.8593 18.3353 70.3398 18.4603 69.6718 18.4603C 68.7773 18.4603 68.1679 18.2343 67.7734 17.7343C 67.4687 17.3553 67.3319 16.9373 67.3827 16.3983L 66.3827 16.3983C 66.3905 17.1753 66.539 17.6873 66.8671 18.1523C 67.4335 18.9413 68.3866 19.3593 69.6445 19.3593C 70.6288 19.3593 71.4335 19.1323 71.9687 18.7143C 72.5234 18.2693 72.8749 17.5193 72.8749 16.7923C 72.8749 15.7573 72.2421 14.9993 71.1171 14.6873L 69.0429 14.1243C 68.0468 13.8513 67.6835 13.5273 67.6835 12.8823C 67.6835 12.0303 68.4179 11.4643 69.5234 11.4643C 70.8319 11.4643 71.5663 12.0663 71.578 13.1523L 72.5741 13.1593z"/>
<path style="stroke:none; fill-rule:evenodd; fill:#000000" d="M 76.3747 13.3003L 76.3747 19.0663L 77.3747 19.0663L 77.3747 10.9683L 76.7067 10.9683C 76.3517 12.2103 76.1207 12.3823 74.5507 12.5773L 74.5507 13.2963L 76.3747 13.3003z"/>
<path style="stroke:none; fill-rule:evenodd; fill:#000000" d="M 80.3747 10.9683L 80.3747 12.2343L 80.6917 13.7613L 81.1527 13.7613L 81.4687 12.2343L 81.4687 10.9683L 80.3747 10.9683zM 82.1757 10.9683L 82.1757 12.2343L 82.4917 13.7613L 82.9527 13.7613L 83.2697 12.2343L 83.2697 10.9683L 82.1757 10.9683z"/>
<path style="stroke:none; fill-rule:evenodd; fill:#000000" d="M 89.0737 10.9683L 89.0737 12.2343L 89.3907 13.7613L 89.8517 13.7613L 90.1677 12.2343L 90.1677 10.9683L 89.0737 10.9683zM 90.8747 10.9683L 90.8747 12.2343L 91.1917 13.7613L 91.6527 13.7613L 91.9687 12.2343L 91.9687 10.9683L 90.8747 10.9683z"/>
<path style="stroke:none; fill-rule:evenodd; fill:#000000" d="M 99.3747 13.1593C 99.3667 11.5233 98.2457 10.5733 96.3317 10.5733C 94.5077 10.5733 93.3787 11.5233 93.3787 13.0503C 93.3787 14.0773 93.9097 14.7303 94.9997 15.0193L 97.0547 15.5733C 98.0977 15.8513 98.5737 16.2773 98.5737 16.9373C 98.5737 17.3863 98.3357 17.8513 97.9877 18.1053C 97.6597 18.3353 97.1407 18.4603 96.4727 18.4603C 95.5777 18.4603 94.9687 18.2343 94.5737 17.7343C 94.2697 17.3553 94.1327 16.9373 94.1837 16.3983L 93.1837 16.3983C 93.1917 17.1753 93.3397 17.6873 93.6677 18.1523C 94.2347 18.9413 95.1877 19.3593 96.4457 19.3593C 97.4297 19.3593 98.2347 19.1323 98.7697 18.7143C 99.3237 18.2693 99.6757 17.5193 99.6757 16.7923C 99.6757 15.7573 99.0427 14.9993 97.9177 14.6873L 95.8437 14.1243C 94.8477 13.8513 94.4847 13.5273 94.4847 12.8823C 94.4847 12.0303 95.2187 11.4643 96.3237 11.4643C 97.6327 11.4643 98.3667 12.0663 98.3787 13.1523L 99.3747 13.1593z"/>
<path style="stroke:none; fill-rule:evenodd; fill:#000000" d="M 105.918 18.0703L 101.692 18.0703C 101.793 17.4093 102.156 16.9883 103.141 16.4063L 104.274 15.7923C 105.395 15.1793 105.973 14.3433 105.973 13.3513C 105.973 12.6793 105.703 12.0503 105.227 11.6163C 104.754 11.1833 104.164 10.9803 103.403 10.9803C 102.383 10.9803 101.625 11.3393 101.184 12.0193C 100.903 12.4483 100.778 12.9453 100.754 13.7613L 101.754 13.7613C 101.785 13.2303 101.856 12.9063 101.992 12.6483C 102.254 12.1713 102.778 11.8783 103.379 11.8783C 104.289 11.8783 104.973 12.5273 104.973 13.3943C 104.973 14.0303 104.598 14.5773 103.879 14.9883L 102.832 15.5773C 101.149 16.5303 100.656 17.2963 100.567 19.0733L 105.918 19.0733L 105.918 18.0703z"/>
<path style="stroke:none; fill-rule:evenodd; fill:#000000" d="M 107.176 10.9683L 107.176 12.2343L 107.492 13.7613L 107.953 13.7613L 108.27 12.2343L 108.27 10.9683L 107.176 10.9683zM 108.973 10.9683L 108.973 12.2343L 109.289 13.7613L 109.75 13.7613L 110.067 12.2343L 110.067 10.9683L 108.973 10.9683z"/>
<path style="stroke:#000000; stroke-width:1.9133; fill:none" d="M 134.391 91.1873L 153.524 91.1873L 153.524 66.3163L 134.391 66.3163L 134.391 91.1873z"/>
<path style="stroke:none; fill-rule:evenodd; fill:#000000" d="M 145.614 79.6713L 146.473 82.1713L 147.664 82.1713L 144.727 73.7733L 143.352 73.7733L 140.367 82.1713L 141.5 82.1713L 142.383 79.6713L 145.614 79.6713zM 145.317 78.7693L 142.656 78.7693L 144.031 74.9483L 145.317 78.7693z"/>
<path style="stroke:#000000; stroke-width:1.9133; fill:none" d="M 161.176 91.1873L 180.309 91.1873L 180.309 66.3163L 161.176 66.3163L 161.176 91.1873z"/>
<path style="stroke:#000000; stroke-width:1.9133; fill:none" d="M 187.961 131.366L 207.094 131.366L 207.094 106.495L 187.961 106.495L 187.961 131.366z"/>
<path style="stroke:#000000; stroke-width:1.9133; fill:none" d="M 214.75 131.366L 233.883 131.366L 233.883 106.495L 214.75 106.495L 214.75 131.366z"/>
<path style="stroke:#000000; stroke-width:1.9133; fill:none" d="M 187.961 52.9213L 207.094 52.9213L 207.094 28.0503L 187.961 28.0503L 187.961 52.9213z"/>
<path style="stroke:#000000; stroke-width:1.9133; fill:none" d="M 214.75 52.9213L 233.883 52.9213L 233.883 28.0503L 214.75 28.0503L 214.75 52.9213z"/>
<path style="stroke:#000000; stroke-width:1.9133; fill:none" d="M 170.742 91.1873L 187.961 117.972"/>
<path style="stroke:#000000; stroke-width:1.9133; fill:none" d="M 185.434 110.499L 187.961 117.968L 182.215 112.566"/>
<path style="stroke:#000000; stroke-width:1.9133; fill:none" d="M 143.957 66.3163L 187.961 39.5303"/>
<path style="stroke:#000000; stroke-width:1.9133; fill:none" d="M 180.43 41.8743L 187.961 39.5303L 182.418 45.1403"/>
<path style="stroke:#000000; stroke-width:1.9133; fill:none" d="M 197.528 106.491L 197.528 52.9213"/>
<path style="stroke:#000000; stroke-width:1.9133; fill:none" d="M 195.617 60.5733L 197.528 52.9213L 199.438 60.5733"/>
<path style="stroke:none; fill-rule:evenodd; fill:#000000" d="M 225.914 41.3703L 226.774 43.8703L 227.965 43.8703L 225.028 35.4723L 223.653 35.4723L 220.668 43.8703L 221.801 43.8703L 222.684 41.3703L 225.914 41.3703zM 225.617 40.4683L 222.957 40.4683L 224.332 36.6483L 225.617 40.4683z"/>
<path style="stroke:#000000; stroke-width:1.9133; fill:none" d="M 224.317 106.491L 224.317 52.9213"/>
<path style="stroke:#000000; stroke-width:1.9133; fill:none" d="M 222.403 60.5733L 224.313 52.9213L 226.223 60.5733"/>
<path style="stroke:#000000; stroke-width:1.9133; fill:none" d="M 170.742 91.1873L 214.746 106.491"/>
<path style="stroke:#000000; stroke-width:1.9133; fill:none" d="M 208.149 102.171L 214.746 106.491L 206.891 105.788"/>
<path style="stroke:none; fill-rule:evenodd; fill:#000000" d="M 186.676 10.9683L 186.676 12.2343L 186.992 13.7613L 187.453 13.7613L 187.77 12.2343L 187.77 10.9683L 186.676 10.9683zM 188.473 10.9683L 188.473 12.2343L 188.789 13.7613L 189.25 13.7613L 189.567 12.2343L 189.567 10.9683L 188.473 10.9683z"/>
<path style="stroke:none; fill-rule:evenodd; fill:#000000" d="M 196.973 13.1593C 196.965 11.5233 195.844 10.5733 193.93 10.5733C 192.106 10.5733 190.977 11.5233 190.977 13.0503C 190.977 14.0773 191.508 14.7303 192.598 15.0193L 194.653 15.5733C 195.696 15.8513 196.172 16.2773 196.172 16.9373C 196.172 17.3863 195.934 17.8513 195.586 18.1053C 195.258 18.3353 194.738 18.4603 194.071 18.4603C 193.176 18.4603 192.567 18.2343 192.172 17.7343C 191.867 17.3553 191.731 16.9373 191.781 16.3983L 190.781 16.3983C 190.789 17.1753 190.938 17.6873 191.266 18.1523C 191.832 18.9413 192.785 19.3593 194.043 19.3593C 195.028 19.3593 195.832 19.1323 196.367 18.7143C 196.922 18.2693 197.274 17.5193 197.274 16.7923C 197.274 15.7573 196.641 14.9993 195.516 14.6873L 193.442 14.1243C 192.446 13.8513 192.082 13.5273 192.082 12.8823C 192.082 12.0303 192.817 11.4643 193.922 11.4643C 195.231 11.4643 195.965 12.0663 195.977 13.1523L 196.973 13.1593z"/>
<path style="stroke:none; fill-rule:evenodd; fill:#000000" d="M 200.774 13.3003L 200.774 19.0663L 201.774 19.0663L 201.774 10.9683L 201.106 10.9683C 200.75 12.2103 200.52 12.3823 198.949 12.5773L 198.949 13.2963L 200.774 13.3003z"/>
<path style="stroke:none; fill-rule:evenodd; fill:#000000" d="M 204.774 10.9683L 204.774 12.2343L 205.09 13.7613L 205.551 13.7613L 205.867 12.2343L 205.867 10.9683L 204.774 10.9683zM 206.574 10.9683L 206.574 12.2343L 206.891 13.7613L 207.352 13.7613L 207.668 12.2343L 207.668 10.9683L 206.574 10.9683z"/>
<path style="stroke:none; fill-rule:evenodd; fill:#000000" d="M 213.473 10.9683L 213.473 12.2343L 213.789 13.7613L 214.25 13.7613L 214.567 12.2343L 214.567 10.9683L 213.473 10.9683zM 215.274 10.9683L 215.274 12.2343L 215.59 13.7613L 216.051 13.7613L 216.367 12.2343L 216.367 10.9683L 215.274 10.9683z"/>
<path style="stroke:none; fill-rule:evenodd; fill:#000000" d="M 223.676 13.1593C 223.668 11.5233 222.547 10.5733 220.633 10.5733C 218.809 10.5733 217.68 11.5233 217.68 13.0503C 217.68 14.0773 218.211 14.7303 219.301 15.0193L 221.356 15.5733C 222.399 15.8513 222.875 16.2773 222.875 16.9373C 222.875 17.3863 222.637 17.8513 222.289 18.1053C 221.961 18.3353 221.442 18.4603 220.774 18.4603C 219.879 18.4603 219.27 18.2343 218.875 17.7343C 218.571 17.3553 218.434 16.9373 218.485 16.3983L 217.485 16.3983C 217.492 17.1753 217.641 17.6873 217.969 18.1523C 218.535 18.9413 219.488 19.3593 220.746 19.3593C 221.731 19.3593 222.535 19.1323 223.071 18.7143C 223.625 18.2693 223.977 17.5193 223.977 16.7923C 223.977 15.7573 223.344 14.9993 222.219 14.6873L 220.145 14.1243C 219.149 13.8513 218.785 13.5273 218.785 12.8823C 218.785 12.0303 219.52 11.4643 220.625 11.4643C 221.934 11.4643 222.668 12.0663 222.68 13.1523L 223.676 13.1593z"/>
<path style="stroke:none; fill-rule:evenodd; fill:#000000" d="M 230.317 18.0703L 226.09 18.0703C 226.192 17.4093 226.555 16.9883 227.539 16.4063L 228.672 15.7923C 229.793 15.1793 230.371 14.3433 230.371 13.3513C 230.371 12.6793 230.102 12.0503 229.625 11.6163C 229.153 11.1833 228.563 10.9803 227.801 10.9803C 226.781 10.9803 226.024 11.3393 225.582 12.0193C 225.301 12.4483 225.176 12.9453 225.153 13.7613L 226.153 13.7613C 226.184 13.2303 226.254 12.9063 226.391 12.6483C 226.653 12.1713 227.176 11.8783 227.778 11.8783C 228.688 11.8783 229.371 12.5273 229.371 13.3943C 229.371 14.0303 228.996 14.5773 228.278 14.9883L 227.231 15.5773C 225.547 16.5303 225.055 17.2963 224.965 19.0733L 230.317 19.0733L 230.317 18.0703z"/>
<path style="stroke:none; fill-rule:evenodd; fill:#000000" d="M 231.574 10.9683L 231.574 12.2343L 231.891 13.7613L 232.352 13.7613L 232.668 12.2343L 232.668 10.9683L 231.574 10.9683zM 233.375 10.9683L 233.375 12.2343L 233.692 13.7613L 234.153 13.7613L 234.469 12.2343L 234.469 10.9683L 233.375 10.9683z"/>
<path style="stroke:none; fill-rule:evenodd; fill:#000000" d="M 170.875 76.2573C 170.867 74.6203 169.746 73.6713 167.832 73.6713C 166.008 73.6713 164.879 74.6203 164.879 76.1483C 164.879 77.1753 165.41 77.8273 166.5 78.1163L 168.555 78.6713C 169.598 78.9483 170.074 79.3743 170.074 80.0343C 170.074 80.4843 169.836 80.9483 169.488 81.2023C 169.16 81.4333 168.641 81.5583 167.973 81.5583C 167.078 81.5583 166.469 81.3313 166.074 80.8313C 165.77 80.4523 165.633 80.0343 165.684 79.4953L 164.684 79.4953C 164.692 80.2733 164.84 80.7843 165.168 81.2493C 165.735 82.0383 166.688 82.4563 167.946 82.4563C 168.93 82.4563 169.735 82.2303 170.27 81.8123C 170.824 81.3663 171.176 80.6163 171.176 79.8903C 171.176 78.8553 170.543 78.0973 169.418 77.7843L 167.344 77.2223C 166.348 76.9483 165.985 76.6243 165.985 75.9803C 165.985 75.1283 166.719 74.5623 167.824 74.5623C 169.133 74.5623 169.867 75.1633 169.879 76.2493L 170.875 76.2573z"/>
<path style="stroke:none; fill-rule:evenodd; fill:#000000" d="M 177.418 81.1713L 173.192 81.1713C 173.293 80.5113 173.656 80.0893 174.641 79.5073L 175.774 78.8943C 176.895 78.2803 177.473 77.4453 177.473 76.4523C 177.473 75.7803 177.203 75.1523 176.727 74.7183C 176.254 74.2843 175.664 74.0813 174.903 74.0813C 173.883 74.0813 173.125 74.4413 172.684 75.1203C 172.403 75.5503 172.278 76.0463 172.254 76.8633L 173.254 76.8633C 173.285 76.3313 173.356 76.0073 173.492 75.7493C 173.754 75.2733 174.278 74.9803 174.879 74.9803C 175.789 74.9803 176.473 75.6283 176.473 76.4953C 176.473 77.1323 176.098 77.6793 175.379 78.0893L 174.332 78.6793C 172.649 79.6323 172.156 80.3983 172.067 82.1753L 177.418 82.1753L 177.418 81.1713z"/>
<path style="stroke:none; fill-rule:evenodd; fill:#000000" d="M 197.274 113.968L 196.274 113.968L 196.274 120.839L 191.926 113.968L 190.778 113.968L 190.778 122.366L 191.778 122.366L 191.778 115.585L 196.078 122.366L 197.274 122.366L 197.274 113.968z"/>
<path style="stroke:none; fill-rule:evenodd; fill:#000000" d="M 201.313 116.171C 199.61 116.171 198.578 117.386 198.578 119.421C 198.578 121.456 199.598 122.671 201.328 122.671C 203.031 122.671 204.078 121.46 204.078 119.472C 204.078 117.382 203.071 116.179 201.321 116.179L 201.313 116.171zM 201.324 117.07C 202.418 117.07 203.074 117.956 203.074 119.452C 203.074 120.866 202.399 121.765 201.324 121.765C 200.242 121.765 199.574 120.878 199.574 119.417C 199.574 117.968 200.238 117.07 201.324 117.07z"/>
<path style="stroke:none; fill-rule:evenodd; fill:#000000" d="M 224.875 117.968L 221.278 117.968L 221.278 118.866L 223.875 118.866L 223.875 119.101C 223.875 120.644 222.778 121.761 221.258 121.761C 220.414 121.761 219.649 121.448 219.156 120.902C 218.61 120.296 218.278 119.284 218.278 118.234C 218.278 116.148 219.442 114.769 221.203 114.769C 222.469 114.769 223.383 115.437 223.614 116.534L 224.699 116.534C 224.403 114.843 223.114 113.866 221.196 113.866C 220.176 113.866 219.348 114.132 218.692 114.671C 217.731 115.476 217.176 116.777 217.176 118.284C 217.176 120.863 218.746 122.659 221.012 122.659C 222.149 122.659 223.055 122.234 223.871 121.323L 224.149 122.437L 224.867 122.437L 224.875 117.968z"/>
<path style="stroke:none; fill-rule:evenodd; fill:#000000" d="M 228.711 116.171C 227.008 116.171 225.977 117.386 225.977 119.421C 225.977 121.456 226.996 122.671 228.727 122.671C 230.43 122.671 231.477 121.46 231.477 119.472C 231.477 117.382 230.469 116.179 228.719 116.179L 228.711 116.171zM 228.723 117.07C 229.817 117.07 230.473 117.956 230.473 119.452C 230.473 120.866 229.797 121.765 228.723 121.765C 227.641 121.765 226.973 120.878 226.973 119.417C 226.973 117.968 227.637 117.07 228.723 117.07z"/>
<path style="stroke:#000000; stroke-width:1.9133; fill:none" d="M 21.5038 66.3163L 90.3827 52.9253"/>
<path style="stroke:#000000; stroke-width:1.9133; fill:none" d="M 82.5077 52.5033L 90.3827 52.9173L 83.2377 56.2533"/>
<path style="stroke:#000000; stroke-width:1.9133; fill:none" d="M 145.871 66.3163L 214.75 52.9253"/>
<path style="stroke:#000000; stroke-width:1.9133; fill:none" d="M 206.871 52.5033L 214.746 52.9173L 207.602 56.2533"/>
<path style="stroke:none; fill-rule:evenodd; fill:#000000" d="M 15.2148 18.5073C 15.1093 18.5663 15.0624 18.5663 15.0038 18.5663C 14.664 18.5663 14.4765 18.3943 14.4765 18.0933L 14.4765 14.5273C 14.4765 13.4523 13.6991 12.8703 12.2265 12.8703C 11.3593 12.8703 10.6405 13.1243 10.2382 13.5733C 9.96481 13.8823 9.85151 14.2303 9.82801 14.8313L 10.7734 14.8313C 10.8515 14.1013 11.2773 13.7693 12.1601 13.7693C 13.0038 13.7693 13.4765 14.0893 13.4765 14.6673L 13.4765 14.9213C 13.4765 15.3233 13.2421 15.4953 12.4999 15.5893C 11.1757 15.7613 10.9726 15.8083 10.6132 15.9563C 9.9296 16.2413 9.58191 16.7843 9.58191 17.5703C 9.58191 18.6633 10.3359 19.3553 11.5468 19.3553C 12.3007 19.3553 12.9062 19.0813 13.5819 18.4373C 13.6484 19.0703 13.9452 19.3553 14.5624 19.3553C 14.7538 19.3553 14.9023 19.3313 15.2109 19.2493L 15.2148 18.5073zM 13.4726 17.2103C 13.4726 17.5383 13.3827 17.7413 13.1054 18.0153C 12.7265 18.3783 12.2695 18.5703 11.7226 18.5703C 10.9999 18.5703 10.5741 18.2063 10.5741 17.5773C 10.5741 16.9293 10.9843 16.5973 11.9765 16.4453C 12.9569 16.3043 13.1562 16.2573 13.4687 16.1053L 13.4726 17.2103z"/>
<path style="stroke:none; fill-rule:evenodd; fill:#000000" d="M 16.5312 21.5033C 17.6601 19.9953 18.371 17.9023 18.371 16.0973C 18.371 14.2803 17.6601 12.1873 16.5312 10.6753L 15.914 10.6753C 16.9179 12.3233 17.4765 14.2533 17.4765 16.0973C 17.4765 17.9253 16.9179 19.8703 15.914 21.5033L 16.5312 21.5033z"/>
<path style="stroke:none; fill-rule:evenodd; fill:#000000" d="M 134.074 10.6713L 134.074 19.0703L 134.973 19.0703L 134.973 18.3043C 135.426 19.0273 136.031 19.3703 136.867 19.3703C 138.442 19.3703 139.469 18.0663 139.469 16.0543C 139.469 14.0893 138.488 12.8743 136.918 12.8743C 136.098 12.8743 135.52 13.1873 135.074 13.8703L 135.074 10.6713L 134.074 10.6713zM 136.723 13.7773C 137.789 13.7773 138.477 14.7063 138.477 16.1403C 138.477 17.5033 137.766 18.4333 136.723 18.4333C 135.715 18.4333 135.047 17.5153 135.047 16.1053C 135.047 14.6953 135.711 13.7773 136.723 13.7773z"/>
<path style="stroke:none; fill-rule:evenodd; fill:#000000" d="M 140.832 21.5033C 141.961 19.9953 142.672 17.9023 142.672 16.0973C 142.672 14.2803 141.961 12.1873 140.832 10.6753L 140.215 10.6753C 141.219 12.3233 141.778 14.2533 141.778 16.0973C 141.778 17.9253 141.219 19.8703 140.215 21.5033L 140.832 21.5033z"/>
<path style="stroke:none; fill-rule:evenodd; fill:#000000" d="M 245.574 40.2693L 248.215 40.2693C 248.871 40.2693 249.391 40.0773 249.844 39.6753C 250.352 39.2223 250.571 38.6833 250.571 37.9173C 250.571 36.3553 249.633 35.4723 247.961 35.4723L 244.473 35.4723L 244.473 43.8703L 245.571 43.8703L 245.574 40.2693zM 245.574 39.3703L 245.574 36.3703L 247.824 36.3703C 248.856 36.3703 249.473 36.9333 249.473 37.8703C 249.473 38.8043 248.86 39.3703 247.824 39.3703L 245.574 39.3703z"/>
<path style="stroke:none; fill-rule:evenodd; fill:#000000" d="M 253.176 40.0703L 257.168 40.0703L 257.168 39.1713L 253.176 39.1713L 253.176 36.3743L 257.676 36.3743L 257.676 35.4763L 252.078 35.4763L 252.078 43.8743L 253.176 43.8743L 253.176 40.0703z"/>
<path style="stroke:none; fill-rule:evenodd; fill:#000000" d="M 265.676 38.0973C 265.34 36.2693 264.278 35.3743 262.426 35.3743C 261.293 35.3743 260.383 35.7303 259.758 36.4213C 258.996 37.2493 258.582 38.4453 258.582 39.8043C 258.582 41.1833 259.008 42.3703 259.805 43.1873C 260.449 43.8553 261.281 44.1633 262.379 44.1633C 264.434 44.1633 265.59 43.0503 265.848 40.8123L 264.742 40.8123C 264.653 41.4023 264.539 41.8043 264.364 42.1483C 264.02 42.8593 263.305 43.2613 262.41 43.2613C 260.742 43.2613 259.684 41.9093 259.684 39.7883C 259.684 37.6093 260.696 36.2653 262.321 36.2653C 262.996 36.2653 263.633 36.4763 263.977 36.8003C 264.285 37.0933 264.457 37.4523 264.586 38.0853L 265.676 38.0973z"/>
<path style="stroke:none; fill-rule:evenodd; fill:#000000" d="M 244.574 82.1713L 245.672 82.1713L 245.672 73.7733L 244.574 73.7733L 244.574 82.1713z"/>
<path style="stroke:none; fill-rule:evenodd; fill:#000000" d="M 247.473 76.1443L 247.473 82.1673L 248.473 82.1673L 248.473 78.8203C 248.473 77.5813 249.098 76.7693 250.063 76.7693C 250.801 76.7693 251.27 77.2303 251.27 77.9603L 251.27 82.1633L 252.27 82.1633L 252.27 77.6093C 252.27 76.6093 251.528 75.9643 250.367 75.9643C 249.477 75.9643 248.903 76.3083 248.375 77.1483L 248.375 76.1363L 247.473 76.1443z"/>
<path style="stroke:none; fill-rule:evenodd; fill:#000000" d="M 253.676 84.6713L 254.676 84.6713L 254.676 81.5703C 255.176 82.1913 255.738 82.4683 256.512 82.4683C 258.055 82.4683 259.071 81.2103 259.071 79.2773C 259.071 77.2453 258.086 75.9723 256.488 75.9723C 255.676 75.9723 255.02 76.3393 254.574 77.0503L 254.574 76.1443L 253.676 76.1443L 253.676 84.6713zM 256.34 76.8703C 257.387 76.8703 258.071 77.8043 258.071 79.2533C 258.071 80.6283 257.375 81.5663 256.34 81.5663C 255.336 81.5663 254.676 80.6403 254.676 79.2183C 254.676 77.7963 255.336 76.8703 256.34 76.8703z"/>
<path style="stroke:none; fill-rule:evenodd; fill:#000000" d="M 264.973 82.2063L 264.973 76.1753L 263.973 76.1753L 263.973 79.6203C 263.973 80.8593 263.328 81.6713 262.321 81.6713C 261.559 81.6713 261.074 81.2103 261.074 80.4803L 261.074 76.1753L 260.074 76.1753L 260.074 80.8273C 260.074 81.8273 260.832 82.4723 262.024 82.4723C 262.922 82.4723 263.496 82.1633 264.071 81.3703L 264.071 82.2103L 264.973 82.2063z"/>
<path style="stroke:none; fill-rule:evenodd; fill:#000000" d="M 268.676 76.1713L 267.778 76.1713L 267.778 74.5033L 266.778 74.5033L 266.778 76.1713L 265.879 76.1713L 265.879 76.9683L 266.778 76.9683L 266.778 81.5153C 266.778 82.1203 267.18 82.4643 267.91 82.4643C 268.133 82.4643 268.36 82.4413 268.672 82.3823L 268.672 81.5463C 268.559 81.6363 268.422 81.6633 268.254 81.6633C 267.879 81.6633 267.774 81.5503 267.774 81.1203L 267.774 76.9683L 268.672 76.9683L 268.676 76.1713z"/>
<path style="stroke:none; fill-rule:evenodd; fill:#000000" d="M 244.375 122.37L 248.184 122.37C 248.981 122.37 249.571 122.152 250.024 121.671C 250.438 121.234 250.672 120.636 250.672 119.98C 250.672 118.968 250.199 118.355 249.098 117.945C 249.864 117.589 250.27 116.968 250.27 116.116C 250.27 115.507 250.043 114.968 249.602 114.573C 249.164 114.171 248.59 113.988 247.781 113.988L 244.371 113.988L 244.375 122.37zM 245.473 117.671L 245.473 114.874L 247.516 114.874C 248.106 114.874 248.434 114.956 248.715 115.187C 249.008 115.425 249.168 115.788 249.168 116.273C 249.168 116.741 249.012 117.116 248.715 117.359C 248.434 117.585 248.106 117.671 247.516 117.671L 245.473 117.671zM 245.473 121.468L 245.473 118.57L 248.071 118.57C 248.582 118.57 248.926 118.695 249.18 118.972C 249.43 119.238 249.567 119.605 249.567 120.023C 249.567 120.425 249.43 120.796 249.18 121.062C 248.93 121.335 248.586 121.464 248.071 121.464L 245.473 121.468z"/>
<path style="stroke:none; fill-rule:evenodd; fill:#000000" d="M 259.274 117.968L 255.676 117.968L 255.676 118.866L 258.274 118.866L 258.274 119.101C 258.274 120.644 257.176 121.761 255.656 121.761C 254.813 121.761 254.047 121.448 253.555 120.902C 253.008 120.296 252.676 119.284 252.676 118.234C 252.676 116.148 253.84 114.769 255.602 114.769C 256.867 114.769 257.781 115.437 258.012 116.534L 259.098 116.534C 258.801 114.843 257.512 113.866 255.594 113.866C 254.574 113.866 253.746 114.132 253.09 114.671C 252.129 115.476 251.574 116.777 251.574 118.284C 251.574 120.863 253.145 122.659 255.41 122.659C 256.547 122.659 257.453 122.234 258.27 121.323L 258.547 122.437L 259.266 122.437L 259.274 117.968z"/>
<path style="stroke:#000000; stroke-dasharray:6,3; stroke-width:1.9133; fill:none" d="M 122.34 10.0273L 122.34 133.835"/>
</g>
</svg>