<?xml version="1.0" encoding="ISO-8859-1" standalone="yes"?>
<svg width="273.803" height="232.384">
  <defs> 
    <marker id="ArrowEnd" viewBox="0 0 10 10" refX="0" refY="5" 
     markerUnits="strokeWidth" 
     markerWidth="4" 
     markerHeight="3" 
     orient="auto"> 
        <path d="M 0 0 L 10 5 L 0 10 z" /> 
    </marker>
    <marker id="ArrowStart" viewBox="0 0 10 10" refX="10" refY="5" 
     markerUnits="strokeWidth" 
     markerWidth="4" 
     markerHeight="3" 
     orient="auto"> 
        <path d="M 10 0 L 0 5 L 10 10 z" /> 
    </marker> </defs>
<g>
<path style="stroke:#000000; stroke-width:1.91229; fill:none" d="M 91.52 199.416C 91.52 186.745 81.2461 176.471 68.5742 176.471C 55.9023 176.471 45.6289 186.745 45.6289 199.416C 45.6289 212.088 55.9023 222.362 68.5742 222.362C 81.2461 222.362 91.52 212.088 91.52 199.416"/>
<path style="stroke:none; fill-rule:evenodd; fill:#000000" d="M 60.7227 198.534C 60.7109 197.346 59.9258 196.674 58.5273 196.674C 57.1172 196.674 56.2031 197.401 56.2031 198.522C 56.2031 199.467 56.6914 199.916 58.1406 200.264L 59.0508 200.483C 59.7266 200.643 59.9961 200.885 59.9961 201.323C 59.9961 201.885 59.4297 202.268 58.5859 202.268C 58.0664 202.268 57.6289 202.12 57.3867 201.862C 57.2383 201.69 57.168 201.514 57.1094 201.08L 56.0938 201.08C 56.1367 202.491 56.9219 203.166 58.5039 203.166C 60.0273 203.166 60.9961 202.416 60.9961 201.252C 60.9961 200.354 60.4844 199.858 59.2695 199.569L 58.3359 199.35C 57.543 199.166 57.2031 198.913 57.2031 198.487C 57.2031 197.936 57.6992 197.577 58.4883 197.577C 59.2617 197.577 59.6797 197.905 59.7031 198.538L 60.7227 198.534z"/>
<path style="stroke:none; fill-rule:evenodd; fill:#000000" d="M 62.1992 196.842L 62.1992 202.866L 63.1992 202.866L 63.1992 199.057C 63.1992 198.178 63.8242 197.471 64.5938 197.471C 65.2969 197.471 65.6953 197.909 65.6953 198.686L 65.6953 202.866L 66.6953 202.866L 66.6953 199.057C 66.6953 198.178 67.3203 197.471 68.0898 197.471C 68.7812 197.471 69.1914 197.92 69.1914 198.686L 69.1914 202.866L 70.1914 202.866L 70.1914 198.346C 70.1914 197.268 69.5703 196.666 68.4375 196.666C 67.6328 196.666 67.1445 196.909 66.582 197.6C 66.2266 196.948 65.7422 196.666 64.957 196.666C 64.1523 196.666 63.6211 196.963 63.1016 197.69L 63.1016 196.842L 62.1992 196.842z"/>
<path style="stroke:none; fill-rule:evenodd; fill:#000000" d="M 77.1367 202.307C 77.0352 202.366 76.9883 202.366 76.9258 202.366C 76.5859 202.366 76.4023 202.194 76.4023 201.893L 76.4023 198.327C 76.4023 197.252 75.625 196.67 74.1523 196.67C 73.2852 196.67 72.5664 196.924 72.1641 197.373C 71.8906 197.682 71.7773 198.03 71.7539 198.631L 72.6992 198.631C 72.7773 197.901 73.2031 197.569 74.0859 197.569C 74.9297 197.569 75.4023 197.889 75.4023 198.467L 75.4023 198.721C 75.4023 199.123 75.168 199.295 74.4258 199.389C 73.1016 199.561 72.8984 199.608 72.5391 199.756C 71.8555 200.041 71.5078 200.584 71.5078 201.37C 71.5078 202.463 72.2617 203.155 73.4727 203.155C 74.2266 203.155 74.832 202.881 75.5078 202.237C 75.5742 202.87 75.8711 203.155 76.4883 203.155C 76.6797 203.155 76.8281 203.131 77.1367 203.049L 77.1367 202.307zM 75.3984 201.01C 75.3984 201.338 75.3086 201.541 75.0312 201.811C 74.6523 202.174 74.1953 202.366 73.6484 202.366C 72.9258 202.366 72.5039 202.002 72.5039 201.373C 72.5039 200.725 72.9141 200.393 73.9062 200.241C 74.8867 200.1 75.0859 200.053 75.3984 199.901L 75.3984 201.01z"/>
<path style="stroke:none; fill-rule:evenodd; fill:#000000" d="M 78.0977 202.87L 79.0977 202.87L 79.0977 194.471L 78.0977 194.471L 78.0977 202.87z"/>
<path style="stroke:none; fill-rule:evenodd; fill:#000000" d="M 80.6992 202.87L 81.6992 202.87L 81.6992 194.471L 80.6992 194.471L 80.6992 202.87z"/>
<path style="stroke:#000000; stroke-width:1.91229; fill:none" d="M 148.914 199.416C 148.914 186.745 138.641 176.471 125.969 176.471C 113.297 176.471 103.023 186.745 103.023 199.416C 103.023 212.088 113.297 222.362 125.969 222.362C 138.641 222.362 148.914 212.088 148.914 199.416"/>
<path style="stroke:#000000; stroke-width:1.91229; fill:none" d="M 206.312 199.416C 206.312 186.745 196.039 176.471 183.367 176.471C 170.695 176.471 160.422 186.745 160.422 199.416C 160.422 212.088 170.695 222.362 183.367 222.362C 196.039 222.362 206.312 212.088 206.312 199.416"/>
<path style="stroke:#000000; stroke-width:1.91229; fill:none" d="M 263.711 199.416C 263.711 186.745 253.438 176.471 240.766 176.471C 228.094 176.471 217.82 186.745 217.82 199.416C 217.82 212.088 228.094 222.362 240.766 222.362C 253.438 222.362 263.711 212.088 263.711 199.416"/>
<path style="stroke:none; fill-rule:evenodd; fill:#000000" d="M 113.898 202.87L 114.898 202.87L 114.898 194.471L 113.898 194.471L 113.898 202.87z"/>
<path style="stroke:none; fill-rule:evenodd; fill:#000000" d="M 121.734 202.307C 121.633 202.366 121.586 202.366 121.523 202.366C 121.184 202.366 121 202.194 121 201.893L 121 198.327C 121 197.252 120.223 196.67 118.75 196.67C 117.883 196.67 117.164 196.924 116.762 197.373C 116.488 197.682 116.375 198.03 116.352 198.631L 117.297 198.631C 117.375 197.901 117.801 197.569 118.684 197.569C 119.527 197.569 120 197.889 120 198.467L 120 198.721C 120 199.123 119.766 199.295 119.023 199.389C 117.699 199.561 117.496 199.608 117.137 199.756C 116.453 200.041 116.105 200.584 116.105 201.37C 116.105 202.463 116.859 203.155 118.07 203.155C 118.824 203.155 119.43 202.881 120.105 202.237C 120.172 202.87 120.469 203.155 121.086 203.155C 121.277 203.155 121.426 203.131 121.734 203.049L 121.734 202.307zM 120 201.01C 120 201.338 119.91 201.541 119.633 201.811C 119.254 202.174 118.797 202.366 118.25 202.366C 117.527 202.366 117.105 202.002 117.105 201.373C 117.105 200.725 117.516 200.393 118.508 200.241C 119.488 200.1 119.688 200.053 120 199.901L 120 201.01z"/>
<path style="stroke:none; fill-rule:evenodd; fill:#000000" d="M 122.797 196.842L 122.797 202.866L 123.797 202.866L 123.797 199.733C 123.797 198.87 124.008 198.303 124.457 197.971C 124.746 197.752 125.027 197.686 125.676 197.674L 125.676 196.709C 125.52 196.69 125.441 196.678 125.316 196.678C 124.707 196.678 124.242 197.045 123.699 197.944L 123.699 196.854L 122.797 196.842z"/>
<path style="stroke:none; fill-rule:evenodd; fill:#000000" d="M 130.5 196.87L 130.5 197.729C 130.02 197.01 129.434 196.67 128.664 196.67C 127.137 196.67 126.105 198.01 126.105 199.975C 126.105 200.967 126.367 201.776 126.859 202.354C 127.305 202.862 127.945 203.163 128.578 203.163C 129.332 203.163 129.859 202.834 130.398 202.049L 130.398 202.358C 130.398 203.17 130.297 203.666 130.059 203.998C 129.809 204.354 129.32 204.557 128.742 204.557C 128.312 204.557 127.926 204.444 127.664 204.237C 127.449 204.065 127.359 203.905 127.301 203.549L 126.336 203.549C 126.438 204.682 127.32 205.358 128.727 205.358C 129.617 205.358 130.383 205.073 130.773 204.592C 131.23 204.045 131.402 203.288 131.402 201.881L 131.402 196.866L 130.5 196.87zM 128.758 197.569C 129.785 197.569 130.395 198.444 130.395 199.952C 130.395 201.389 129.777 202.264 128.77 202.264C 127.727 202.264 127.098 201.377 127.098 199.916C 127.098 198.467 127.738 197.569 128.758 197.569z"/>
<path style="stroke:none; fill-rule:evenodd; fill:#000000" d="M 138.098 200.17C 138.098 199.252 138.031 198.702 137.859 198.256C 137.473 197.272 136.559 196.674 135.441 196.674C 133.777 196.674 132.703 197.967 132.703 199.956C 132.703 201.944 133.738 203.166 135.41 203.166C 136.773 203.166 137.719 202.373 137.957 201.045L 137.004 201.045C 136.746 201.846 136.211 202.268 135.449 202.268C 134.848 202.268 134.34 201.991 134.02 201.475C 133.793 201.127 133.715 200.776 133.703 200.17L 138.098 200.17zM 133.68 199.405C 133.758 198.295 134.434 197.569 135.398 197.569C 136.336 197.569 137.059 198.346 137.059 199.334C 137.059 199.354 137.059 199.377 137.051 199.401L 133.68 199.405z"/>
<path style="stroke:none; fill-rule:evenodd; fill:#000000" d="M 170.098 194.471L 170.098 202.87L 170.996 202.87L 170.996 202.104C 171.449 202.827 172.055 203.17 172.891 203.17C 174.465 203.17 175.492 201.866 175.492 199.854C 175.492 197.889 174.516 196.674 172.941 196.674C 172.121 196.674 171.543 196.987 171.098 197.674L 171.098 194.475L 170.098 194.471zM 172.746 197.58C 173.812 197.58 174.5 198.506 174.5 199.944C 174.5 201.307 173.789 202.237 172.746 202.237C 171.738 202.237 171.074 201.319 171.074 199.909C 171.074 198.498 171.738 197.58 172.746 197.58z"/>
<path style="stroke:none; fill-rule:evenodd; fill:#000000" d="M 176.699 202.87L 177.699 202.87L 177.699 194.471L 176.699 194.471L 176.699 202.87z"/>
<path style="stroke:none; fill-rule:evenodd; fill:#000000" d="M 184.535 202.307C 184.434 202.366 184.387 202.366 184.324 202.366C 183.984 202.366 183.801 202.194 183.801 201.893L 183.801 198.327C 183.801 197.252 183.023 196.67 181.551 196.67C 180.684 196.67 179.965 196.924 179.562 197.373C 179.289 197.682 179.176 198.03 179.152 198.631L 180.098 198.631C 180.176 197.901 180.602 197.569 181.484 197.569C 182.328 197.569 182.801 197.889 182.801 198.467L 182.801 198.721C 182.801 199.123 182.566 199.295 181.824 199.389C 180.5 199.561 180.297 199.608 179.938 199.756C 179.254 200.041 178.906 200.584 178.906 201.37C 178.906 202.463 179.66 203.155 180.871 203.155C 181.625 203.155 182.23 202.881 182.906 202.237C 182.973 202.87 183.27 203.155 183.887 203.155C 184.078 203.155 184.227 203.131 184.535 203.049L 184.535 202.307zM 182.797 201.01C 182.797 201.338 182.707 201.541 182.43 201.811C 182.051 202.174 181.594 202.366 181.047 202.366C 180.324 202.366 179.902 202.002 179.902 201.373C 179.902 200.725 180.312 200.393 181.305 200.241C 182.285 200.1 182.484 200.053 182.797 199.901L 182.797 201.01z"/>
<path style="stroke:none; fill-rule:evenodd; fill:#000000" d="M 190.203 198.877C 190.156 198.288 190.031 197.909 189.805 197.573C 189.398 197.01 188.68 196.674 187.852 196.674C 186.25 196.674 185.203 197.967 185.203 199.979C 185.203 201.932 186.227 203.166 187.84 203.166C 189.258 203.166 190.156 202.295 190.273 200.803L 189.324 200.803C 189.168 201.78 188.68 202.268 187.875 202.268C 186.832 202.268 186.207 201.405 186.207 199.979C 186.207 198.471 186.816 197.573 187.852 197.573C 188.645 197.573 189.145 198.041 189.254 198.877L 190.203 198.877z"/>
<path style="stroke:none; fill-rule:evenodd; fill:#000000" d="M 192.098 194.471L 191.098 194.471L 191.098 202.87L 192.098 202.87L 192.098 200.53L 193.027 199.612L 195.062 202.87L 196.25 202.87L 193.785 198.944L 195.879 196.873L 194.648 196.873L 192.094 199.405L 192.098 194.471z"/>
<path style="stroke:none; fill-rule:evenodd; fill:#000000" d="M 233.754 202.87L 235.52 196.87L 234.441 196.87L 233.25 201.538L 232.07 196.87L 230.902 196.87L 229.758 201.538L 228.531 196.87L 227.477 196.87L 229.219 202.87L 230.297 202.87L 231.453 198.155L 232.668 202.87L 233.754 202.87z"/>
<path style="stroke:none; fill-rule:evenodd; fill:#000000" d="M 236.5 194.471L 236.5 202.87L 237.5 202.87L 237.5 199.522C 237.5 198.284 238.125 197.471 239.09 197.471C 239.391 197.471 239.691 197.573 239.918 197.748C 240.184 197.944 240.297 198.233 240.297 198.663L 240.297 202.866L 241.297 202.866L 241.297 198.311C 241.297 197.299 240.578 196.666 239.414 196.666C 238.57 196.666 238.059 196.932 237.5 197.678L 237.5 194.467L 236.5 194.471z"/>
<path style="stroke:none; fill-rule:evenodd; fill:#000000" d="M 243.699 196.87L 242.699 196.87L 242.699 202.87L 243.699 202.87L 243.699 196.87zM 243.699 194.471L 242.699 194.471L 242.699 195.709L 243.699 195.709L 243.699 194.471z"/>
<path style="stroke:none; fill-rule:evenodd; fill:#000000" d="M 247.5 196.87L 246.602 196.87L 246.602 195.209L 245.602 195.209L 245.602 196.87L 244.703 196.87L 244.703 197.666L 245.602 197.666L 245.602 202.213C 245.602 202.819 246.004 203.163 246.734 203.163C 246.957 203.163 247.184 203.139 247.496 203.08L 247.496 202.245C 247.383 202.33 247.246 202.362 247.078 202.362C 246.703 202.362 246.598 202.248 246.598 201.819L 246.598 197.666L 247.496 197.666L 247.5 196.87z"/>
<path style="stroke:none; fill-rule:evenodd; fill:#000000" d="M 253.699 200.17C 253.699 199.252 253.633 198.702 253.461 198.256C 253.074 197.272 252.16 196.674 251.043 196.674C 249.379 196.674 248.305 197.967 248.305 199.956C 248.305 201.944 249.34 203.166 251.012 203.166C 252.375 203.166 253.32 202.373 253.559 201.045L 252.605 201.045C 252.348 201.846 251.812 202.268 251.051 202.268C 250.449 202.268 249.941 201.991 249.621 201.475C 249.395 201.127 249.316 200.776 249.305 200.17L 253.699 200.17zM 249.277 199.405C 249.355 198.295 250.031 197.569 250.996 197.569C 251.934 197.569 252.656 198.346 252.656 199.334C 252.656 199.354 252.656 199.377 252.648 199.401L 249.277 199.405z"/>
<path style="stroke:#000000; stroke-width:1.91229; fill:none" d="M 91.594 117.151C 91.594 104.479 81.3203 94.206 68.6484 94.206C 55.9766 94.206 45.7031 104.479 45.7031 117.151C 45.7031 129.823 55.9766 140.096 68.6484 140.096C 81.3203 140.096 91.594 129.823 91.594 117.151"/>
<path style="stroke:#000000; stroke-width:1.91229; fill:none" d="M 148.988 117.151C 148.988 104.479 138.715 94.206 126.043 94.206C 113.371 94.206 103.098 104.479 103.098 117.151C 103.098 129.823 113.371 140.096 126.043 140.096C 138.715 140.096 148.988 129.823 148.988 117.151"/>
<path style="stroke:#000000; stroke-width:1.91229; fill:none" d="M 206.387 117.151C 206.387 104.479 196.113 94.206 183.441 94.206C 170.77 94.206 160.496 104.479 160.496 117.151C 160.496 129.823 170.77 140.096 183.441 140.096C 196.113 140.096 206.387 129.823 206.387 117.151"/>
<path style="stroke:#000000; stroke-width:1.91229; fill:none" d="M 263.781 117.151C 263.781 104.479 253.508 94.206 240.836 94.206C 228.164 94.206 217.891 104.479 217.891 117.151C 217.891 129.823 228.164 140.096 240.836 140.096C 253.508 140.096 263.781 129.823 263.781 117.151"/>
<path style="stroke:none; fill-rule:evenodd; fill:#000000" d="M 57 114.541L 57 120.565L 58 120.565L 58 117.217C 58 115.979 58.625 115.166 59.5898 115.166C 60.3281 115.166 60.7969 115.627 60.7969 116.358L 60.7969 120.561L 61.7969 120.561L 61.7969 116.006C 61.7969 115.006 61.0547 114.362 59.8945 114.362C 59 114.362 58.4297 114.706 57.9023 115.545L 57.9023 114.534L 57 114.541z"/>
<path style="stroke:none; fill-rule:evenodd; fill:#000000" d="M 68.5 117.87C 68.5 116.952 68.4336 116.401 68.2617 115.956C 67.875 114.971 66.9609 114.373 65.8438 114.373C 64.1797 114.373 63.1055 115.666 63.1055 117.655C 63.1055 119.643 64.1406 120.866 65.8125 120.866C 67.1758 120.866 68.1211 120.073 68.3594 118.745L 67.4062 118.745C 67.1484 119.545 66.6133 119.967 65.8516 119.967C 65.25 119.967 64.7422 119.69 64.4219 119.174C 64.1953 118.827 64.1172 118.475 64.1055 117.87L 68.5 117.87zM 64.0781 117.104C 64.1562 115.995 64.832 115.268 65.7969 115.268C 66.7344 115.268 67.457 116.045 67.457 117.034C 67.457 117.053 67.457 117.077 67.4492 117.1L 64.0781 117.104z"/>
<path style="stroke:none; fill-rule:evenodd; fill:#000000" d="M 70.5977 112.17L 69.5977 112.17L 69.5977 120.569L 70.5977 120.569L 70.5977 118.229L 71.5273 117.311L 73.5625 120.569L 74.75 120.569L 72.2852 116.643L 74.3789 114.573L 73.1484 114.573L 70.5938 117.104L 70.5977 112.17z"/>
<path style="stroke:none; fill-rule:evenodd; fill:#000000" d="M 77.8359 114.37C 76.1328 114.37 75.1016 115.584 75.1016 117.62C 75.1016 119.651 76.1211 120.866 77.8516 120.866C 79.5547 120.866 80.6016 119.655 80.6016 117.666C 80.6016 115.577 79.5938 114.37 77.8398 114.37L 77.8359 114.37zM 77.8477 115.268C 78.9414 115.268 79.5977 116.155 79.5977 117.651C 79.5977 119.065 78.9219 119.963 77.8477 119.963C 76.7656 119.963 76.0977 119.077 76.0977 117.616C 76.0977 116.166 76.7617 115.268 77.8477 115.268z"/>
<path style="stroke:none; fill-rule:evenodd; fill:#000000" d="M 115.324 110.534C 115.312 109.346 114.527 108.674 113.129 108.674C 111.719 108.674 110.805 109.401 110.805 110.522C 110.805 111.467 111.293 111.916 112.742 112.264L 113.652 112.483C 114.328 112.643 114.598 112.885 114.598 113.323C 114.598 113.885 114.031 114.268 113.188 114.268C 112.668 114.268 112.23 114.12 111.988 113.862C 111.84 113.69 111.77 113.514 111.711 113.08L 110.695 113.08C 110.738 114.491 111.523 115.166 113.105 115.166C 114.629 115.166 115.598 114.416 115.598 113.252C 115.598 112.354 115.086 111.858 113.871 111.569L 112.938 111.35C 112.145 111.166 111.805 110.913 111.805 110.487C 111.805 109.936 112.301 109.577 113.09 109.577C 113.863 109.577 114.281 109.905 114.305 110.538L 115.324 110.534z"/>
<path style="stroke:none; fill-rule:evenodd; fill:#000000" d="M 120.449 108.87L 118.789 113.538L 117.254 108.87L 116.234 108.87L 118.262 114.924L 117.898 115.877C 117.75 116.303 117.535 116.463 117.133 116.463C 116.996 116.463 116.836 116.428 116.629 116.358L 116.629 117.213C 116.82 117.315 117.016 117.362 117.27 117.362C 117.578 117.362 117.91 117.26 118.164 117.077C 118.461 116.862 118.633 116.608 118.816 116.127L 121.488 108.866L 120.449 108.87z"/>
<path style="stroke:none; fill-rule:evenodd; fill:#000000" d="M 122.5 114.87L 123.5 114.87L 123.5 106.471L 122.5 106.471L 122.5 114.87z"/>
<path style="stroke:none; fill-rule:evenodd; fill:#000000" d="M 124.797 112.569L 130.594 112.569L 130.594 111.772L 124.797 111.772L 124.797 112.569z"/>
<path style="stroke:none; fill-rule:evenodd; fill:#000000" d="M 113.566 126.268L 115.871 120.268L 114.793 120.268L 113.098 125.131L 111.492 120.268L 110.414 120.268L 112.523 126.268L 113.566 126.268z"/>
<path style="stroke:none; fill-rule:evenodd; fill:#000000" d="M 121.898 123.569C 121.898 122.651 121.832 122.1 121.66 121.655C 121.273 120.67 120.359 120.073 119.242 120.073C 117.578 120.073 116.504 121.366 116.504 123.354C 116.504 125.342 117.539 126.565 119.211 126.565C 120.574 126.565 121.52 125.772 121.758 124.444L 120.805 124.444C 120.547 125.245 120.012 125.666 119.25 125.666C 118.648 125.666 118.141 125.389 117.82 124.873C 117.594 124.526 117.516 124.174 117.504 123.569L 121.898 123.569zM 117.477 122.803C 117.555 121.694 118.23 120.967 119.195 120.967C 120.133 120.967 120.855 121.745 120.855 122.733C 120.855 122.752 120.855 122.776 120.848 122.799L 117.477 122.803z"/>
<path style="stroke:none; fill-rule:evenodd; fill:#000000" d="M 127.422 121.932C 127.41 120.745 126.625 120.073 125.227 120.073C 123.816 120.073 122.902 120.799 122.902 121.92C 122.902 122.866 123.391 123.315 124.84 123.663L 125.75 123.881C 126.426 124.041 126.695 124.284 126.695 124.721C 126.695 125.284 126.129 125.666 125.285 125.666C 124.766 125.666 124.328 125.518 124.086 125.26C 123.938 125.088 123.867 124.913 123.809 124.479L 122.793 124.479C 122.836 125.889 123.621 126.565 125.203 126.565C 126.727 126.565 127.695 125.815 127.695 124.651C 127.695 123.752 127.184 123.256 125.969 122.967L 125.035 122.748C 124.242 122.565 123.902 122.311 123.902 121.885C 123.902 121.334 124.398 120.975 125.188 120.975C 125.961 120.975 126.379 121.303 126.402 121.936L 127.422 121.932z"/>
<path style="stroke:none; fill-rule:evenodd; fill:#000000" d="M 131 120.268L 130.102 120.268L 130.102 118.608L 129.102 118.608L 129.102 120.268L 128.203 120.268L 128.203 121.065L 129.102 121.065L 129.102 125.612C 129.102 126.217 129.504 126.561 130.234 126.561C 130.457 126.561 130.684 126.538 130.996 126.479L 130.996 125.643C 130.883 125.729 130.746 125.76 130.578 125.76C 130.203 125.76 130.098 125.647 130.098 125.217L 130.098 121.065L 130.996 121.065L 131 120.268z"/>
<path style="stroke:none; fill-rule:evenodd; fill:#000000" d="M 137.199 123.569C 137.199 122.651 137.133 122.1 136.961 121.655C 136.574 120.67 135.66 120.073 134.543 120.073C 132.879 120.073 131.805 121.366 131.805 123.354C 131.805 125.342 132.84 126.565 134.512 126.565C 135.875 126.565 136.82 125.772 137.059 124.444L 136.105 124.444C 135.848 125.245 135.312 125.666 134.551 125.666C 133.949 125.666 133.441 125.389 133.121 124.873C 132.895 124.526 132.816 124.174 132.805 123.569L 137.199 123.569zM 132.777 122.803C 132.855 121.694 133.531 120.967 134.496 120.967C 135.434 120.967 136.156 121.745 136.156 122.733C 136.156 122.752 136.156 122.776 136.148 122.799L 132.777 122.803z"/>
<path style="stroke:none; fill-rule:evenodd; fill:#000000" d="M 138.5 120.245L 138.5 126.268L 139.5 126.268L 139.5 123.135C 139.5 122.272 139.711 121.706 140.16 121.373C 140.449 121.155 140.73 121.088 141.379 121.077L 141.379 120.112C 141.223 120.092 141.145 120.08 141.02 120.08C 140.41 120.08 139.945 120.448 139.402 121.346L 139.402 120.256L 138.5 120.245z"/>
<path style="stroke:#000000; stroke-width:1.91229; fill:none" d="M 68.6836 176.424L 68.6836 138.159"/>
<path style="stroke:#000000; stroke-width:1.91229; fill:none" d="M 66.7695 145.807L 68.6797 138.159L 70.5898 145.807"/>
<path style="stroke:#000000; stroke-width:1.91229; fill:none" d="M 183.48 176.424L 70.5977 140.073"/>
<path style="stroke:#000000; stroke-width:1.91229; fill:none" d="M 77.293 144.237L 70.6016 140.077L 78.4648 140.6"/>
<path style="stroke:#000000; stroke-width:1.91229; fill:none" d="M 68.6836 176.424L 126.082 140.073"/>
<path style="stroke:#000000; stroke-width:1.91229; fill:none" d="M 118.598 142.549L 126.082 140.073L 120.645 145.78"/>
<path style="stroke:#000000; stroke-width:1.91229; fill:none" d="M 183.48 176.424L 127.996 140.073"/>
<path style="stroke:#000000; stroke-width:1.91229; fill:none" d="M 133.344 145.866L 127.996 140.077L 135.441 142.666"/>
<path style="stroke:#000000; stroke-width:1.91229; fill:none" d="M 240.879 176.424L 135.648 138.159"/>
<path style="stroke:#000000; stroke-width:1.91229; fill:none" d="M 142.184 142.573L 135.652 138.163L 143.492 138.979"/>
<path style="stroke:#000000; stroke-width:1.91229; fill:none" d="M 126.082 176.424L 183.48 140.073"/>
<path style="stroke:#000000; stroke-width:1.91229; fill:none" d="M 175.996 142.549L 183.48 140.073L 178.043 145.78"/>
<path style="stroke:#000000; stroke-width:1.91229; fill:none" d="M 183.48 176.424L 183.48 140.073"/>
<path style="stroke:#000000; stroke-width:1.91229; fill:none" d="M 181.566 147.721L 183.477 140.073L 185.387 147.721"/>
<path style="stroke:#000000; stroke-width:1.91229; fill:none" d="M 240.879 176.424L 240.879 140.073"/>
<path style="stroke:#000000; stroke-width:1.91229; fill:none" d="M 238.969 147.721L 240.879 140.073L 242.789 147.721"/>
<path style="stroke:none; fill-rule:evenodd; fill:#000000" d="M 226.723 116.233C 226.711 115.045 225.926 114.373 224.527 114.373C 223.117 114.373 222.203 115.1 222.203 116.221C 222.203 117.166 222.691 117.616 224.141 117.963L 225.051 118.182C 225.727 118.342 225.996 118.584 225.996 119.022C 225.996 119.584 225.43 119.967 224.586 119.967C 224.066 119.967 223.629 119.819 223.387 119.561C 223.238 119.389 223.168 119.213 223.109 118.78L 222.094 118.78C 222.137 120.19 222.922 120.866 224.504 120.866C 226.027 120.866 226.996 120.116 226.996 118.952C 226.996 118.053 226.484 117.557 225.27 117.268L 224.336 117.049C 223.543 116.866 223.203 116.612 223.203 116.186C 223.203 115.635 223.699 115.276 224.488 115.276C 225.262 115.276 225.68 115.604 225.703 116.237L 226.723 116.233z"/>
<path style="stroke:none; fill-rule:evenodd; fill:#000000" d="M 228.199 114.541L 228.199 120.565L 229.199 120.565L 229.199 117.217C 229.199 115.979 229.824 115.166 230.789 115.166C 231.527 115.166 231.996 115.627 231.996 116.358L 231.996 120.561L 232.996 120.561L 232.996 116.006C 232.996 115.006 232.254 114.362 231.094 114.362C 230.199 114.362 229.629 114.706 229.102 115.545L 229.102 114.534L 228.199 114.541z"/>
<path style="stroke:none; fill-rule:evenodd; fill:#000000" d="M 236.938 114.37C 235.234 114.37 234.203 115.584 234.203 117.62C 234.203 119.651 235.223 120.866 236.953 120.866C 238.656 120.866 239.703 119.655 239.703 117.666C 239.703 115.577 238.695 114.37 236.941 114.37L 236.938 114.37zM 236.949 115.268C 238.043 115.268 238.699 116.155 238.699 117.651C 238.699 119.065 238.023 119.963 236.949 119.963C 235.867 119.963 235.199 119.077 235.199 117.616C 235.199 116.166 235.863 115.268 236.949 115.268z"/>
<path style="stroke:none; fill-rule:evenodd; fill:#000000" d="M 243.336 114.37C 241.633 114.37 240.602 115.584 240.602 117.62C 240.602 119.651 241.621 120.866 243.352 120.866C 245.055 120.866 246.102 119.655 246.102 117.666C 246.102 115.577 245.094 114.37 243.34 114.37L 243.336 114.37zM 243.348 115.268C 244.441 115.268 245.098 116.155 245.098 117.651C 245.098 119.065 244.422 119.963 243.348 119.963C 242.266 119.963 241.598 119.077 241.598 117.616C 241.598 116.166 242.262 115.268 243.348 115.268z"/>
<path style="stroke:none; fill-rule:evenodd; fill:#000000" d="M 247.199 123.073L 248.199 123.073L 248.199 119.971C 248.699 120.592 249.262 120.87 250.039 120.87C 251.582 120.87 252.598 119.612 252.598 117.682C 252.598 115.651 251.613 114.377 250.016 114.377C 249.203 114.377 248.547 114.745 248.102 115.456L 248.102 114.549L 247.203 114.549L 247.199 123.073zM 249.863 115.268C 250.91 115.268 251.594 116.206 251.594 117.651C 251.594 119.026 250.898 119.963 249.863 119.963C 248.859 119.963 248.199 119.038 248.199 117.616C 248.199 116.194 248.859 115.268 249.863 115.268z"/>
<path style="stroke:none; fill-rule:evenodd; fill:#000000" d="M 257.449 114.569L 255.789 119.237L 254.254 114.569L 253.234 114.569L 255.262 120.623L 254.898 121.577C 254.75 122.002 254.535 122.163 254.133 122.163C 253.996 122.163 253.836 122.127 253.629 122.057L 253.629 122.913C 253.82 123.014 254.016 123.061 254.27 123.061C 254.578 123.061 254.91 122.959 255.164 122.776C 255.461 122.561 255.633 122.307 255.816 121.827L 258.488 114.565L 257.449 114.569z"/>
<path style="stroke:#000000; stroke-width:1.91229; fill:none" d="M 183.48 176.424L 238.965 140.073"/>
<path style="stroke:#000000; stroke-width:1.91229; fill:none" d="M 231.52 142.666L 238.965 140.077L 233.617 145.866"/>
<path style="stroke:#000000; stroke-width:1.91229; fill:none" d="M 126.082 176.424L 231.312 138.159"/>
<path style="stroke:#000000; stroke-width:1.91229; fill:none" d="M 223.473 138.975L 231.312 138.159L 224.781 142.569"/>
<path style="stroke:none; fill-rule:evenodd; fill:#000000" d="M 172.598 114.569L 171.598 114.569L 171.598 113.6C 171.598 113.186 171.824 112.971 172.262 112.971C 172.34 112.971 172.375 112.971 172.594 112.971L 172.594 112.229C 172.371 112.186 172.242 112.178 172.043 112.178C 171.141 112.178 170.598 112.686 170.598 113.549L 170.598 114.573L 169.801 114.573L 169.801 115.37L 170.598 115.37L 170.598 120.569L 171.598 120.569L 171.598 115.37L 172.598 115.37L 172.598 114.569z"/>
<path style="stroke:none; fill-rule:evenodd; fill:#000000" d="M 178.938 120.006C 178.836 120.065 178.789 120.065 178.727 120.065C 178.387 120.065 178.203 119.893 178.203 119.592L 178.203 116.026C 178.203 114.952 177.426 114.37 175.953 114.37C 175.086 114.37 174.367 114.623 173.965 115.073C 173.691 115.381 173.578 115.729 173.555 116.33L 174.5 116.33C 174.578 115.6 175.004 115.268 175.887 115.268C 176.73 115.268 177.203 115.588 177.203 116.166L 177.203 116.42C 177.203 116.823 176.969 116.995 176.227 117.088C 174.902 117.26 174.699 117.307 174.34 117.456C 173.656 117.741 173.309 118.284 173.309 119.069C 173.309 120.163 174.062 120.854 175.273 120.854C 176.027 120.854 176.633 120.58 177.309 119.936C 177.375 120.569 177.672 120.854 178.289 120.854C 178.48 120.854 178.629 120.83 178.938 120.748L 178.938 120.006zM 177.199 118.709C 177.199 119.038 177.109 119.241 176.832 119.51C 176.453 119.873 175.996 120.065 175.449 120.065C 174.727 120.065 174.305 119.702 174.305 119.073C 174.305 118.424 174.715 118.092 175.707 117.94C 176.688 117.799 176.887 117.752 177.199 117.6L 177.199 118.709z"/>
<path style="stroke:none; fill-rule:evenodd; fill:#000000" d="M 179.898 114.541L 179.898 120.565L 180.898 120.565L 180.898 117.217C 180.898 115.979 181.523 115.166 182.488 115.166C 183.227 115.166 183.695 115.627 183.695 116.358L 183.695 120.561L 184.695 120.561L 184.695 116.006C 184.695 115.006 183.953 114.362 182.793 114.362C 181.898 114.362 181.328 114.706 180.801 115.545L 180.801 114.534L 179.898 114.541z"/>
<path style="stroke:none; fill-rule:evenodd; fill:#000000" d="M 190.199 114.569L 190.199 115.428C 189.719 114.709 189.133 114.37 188.363 114.37C 186.836 114.37 185.805 115.709 185.805 117.674C 185.805 118.666 186.066 119.475 186.559 120.053C 187.004 120.561 187.645 120.862 188.277 120.862C 189.031 120.862 189.559 120.534 190.098 119.748L 190.098 120.057C 190.098 120.87 189.996 121.366 189.758 121.698C 189.508 122.053 189.02 122.256 188.441 122.256C 188.012 122.256 187.625 122.143 187.363 121.936C 187.148 121.764 187.059 121.604 187 121.248L 186.035 121.248C 186.137 122.381 187.02 123.057 188.426 123.057C 189.316 123.057 190.082 122.772 190.473 122.291C 190.93 121.745 191.102 120.987 191.102 119.58L 191.102 114.565L 190.199 114.569zM 188.461 115.268C 189.488 115.268 190.098 116.143 190.098 117.651C 190.098 119.088 189.48 119.963 188.473 119.963C 187.43 119.963 186.801 119.077 186.801 117.616C 186.801 116.166 187.441 115.268 188.461 115.268z"/>
<path style="stroke:#000000; stroke-width:1.91229; fill:none" d="M 122.203 32.967C 122.203 20.295 111.93 10.022 99.258 10.022C 86.586 10.022 76.3125 20.295 76.3125 32.967C 76.3125 45.639 86.586 55.913 99.258 55.913C 111.93 55.913 122.203 45.639 122.203 32.967"/>
<path style="stroke:none; fill-rule:evenodd; fill:#000000" d="M 97.004 32.377C 96.957 31.788 96.832 31.409 96.605 31.073C 96.199 30.51 95.48 30.174 94.652 30.174C 93.051 30.174 92.004 31.467 92.004 33.479C 92.004 35.432 93.027 36.666 94.641 36.666C 96.059 36.666 96.957 35.795 97.074 34.303L 96.125 34.303C 95.969 35.28 95.48 35.768 94.676 35.768C 93.633 35.768 93.008 34.905 93.008 33.479C 93.008 31.971 93.617 31.073 94.652 31.073C 95.445 31.073 95.945 31.541 96.055 32.377L 97.004 32.377z"/>
<path style="stroke:none; fill-rule:evenodd; fill:#000000" d="M 103.438 35.807C 103.336 35.866 103.289 35.866 103.227 35.866C 102.887 35.866 102.703 35.694 102.703 35.393L 102.703 31.827C 102.703 30.752 101.926 30.17 100.453 30.17C 99.586 30.17 98.867 30.424 98.465 30.873C 98.191 31.182 98.078 31.53 98.055 32.131L 99 32.131C 99.078 31.401 99.504 31.069 100.387 31.069C 101.23 31.069 101.703 31.389 101.703 31.967L 101.703 32.221C 101.703 32.623 101.469 32.795 100.727 32.889C 99.402 33.061 99.199 33.108 98.84 33.256C 98.156 33.541 97.809 34.084 97.809 34.87C 97.809 35.963 98.562 36.655 99.773 36.655C 100.527 36.655 101.133 36.381 101.809 35.737C 101.875 36.37 102.172 36.655 102.789 36.655C 102.98 36.655 103.129 36.631 103.438 36.549L 103.438 35.807zM 101.699 34.51C 101.699 34.838 101.609 35.041 101.332 35.311C 100.953 35.674 100.496 35.866 99.949 35.866C 99.227 35.866 98.805 35.502 98.805 34.873C 98.805 34.225 99.215 33.893 100.207 33.741C 101.188 33.6 101.387 33.553 101.699 33.401L 101.699 34.51z"/>
<path style="stroke:none; fill-rule:evenodd; fill:#000000" d="M 106.598 30.37L 105.699 30.37L 105.699 28.709L 104.699 28.709L 104.699 30.37L 103.801 30.37L 103.801 31.166L 104.699 31.166L 104.699 35.713C 104.699 36.319 105.102 36.663 105.832 36.663C 106.055 36.663 106.281 36.639 106.594 36.58L 106.594 35.745C 106.48 35.83 106.344 35.862 106.176 35.862C 105.801 35.862 105.695 35.748 105.695 35.319L 105.695 31.166L 106.594 31.166L 106.598 30.37z"/>
<path style="stroke:#000000; stroke-width:1.91229; fill:none" d="M 229.344 32.967C 229.344 20.295 219.07 10.022 206.398 10.022C 193.727 10.022 183.453 20.295 183.453 32.967C 183.453 45.639 193.727 55.913 206.398 55.913C 219.07 55.913 229.344 45.639 229.344 32.967"/>
<path style="stroke:none; fill-rule:evenodd; fill:#000000" d="M 202.5 27.971L 201.5 27.971L 201.5 31.116C 201.102 30.498 200.465 30.174 199.664 30.174C 198.117 30.174 197.102 31.436 197.102 33.366C 197.102 35.413 198.113 36.67 199.754 36.67C 200.59 36.67 201.172 36.354 201.699 35.58L 201.699 36.37L 202.496 36.37L 202.5 27.971zM 199.828 31.069C 200.848 31.069 201.5 31.995 201.5 33.44C 201.5 34.838 200.844 35.764 199.84 35.764C 198.797 35.764 198.102 34.827 198.102 33.416C 198.102 32.006 198.793 31.069 199.828 31.069z"/>
<path style="stroke:none; fill-rule:evenodd; fill:#000000" d="M 206.336 30.17C 204.633 30.17 203.602 31.385 203.602 33.42C 203.602 35.452 204.621 36.666 206.352 36.666C 208.055 36.666 209.102 35.456 209.102 33.467C 209.102 31.377 208.094 30.17 206.34 30.17L 206.336 30.17zM 206.348 31.069C 207.441 31.069 208.098 31.956 208.098 33.452C 208.098 34.866 207.422 35.764 206.348 35.764C 205.266 35.764 204.598 34.877 204.598 33.416C 204.598 31.967 205.262 31.069 206.348 31.069z"/>
<path style="stroke:none; fill-rule:evenodd; fill:#000000" d="M 214.297 30.37L 214.297 31.229C 213.816 30.51 213.23 30.17 212.461 30.17C 210.934 30.17 209.902 31.51 209.902 33.475C 209.902 34.467 210.164 35.276 210.656 35.854C 211.102 36.362 211.742 36.663 212.375 36.663C 213.129 36.663 213.656 36.334 214.195 35.549L 214.195 35.858C 214.195 36.67 214.094 37.166 213.855 37.498C 213.605 37.854 213.117 38.057 212.539 38.057C 212.109 38.057 211.723 37.944 211.461 37.737C 211.246 37.565 211.156 37.405 211.098 37.049L 210.133 37.049C 210.234 38.182 211.117 38.858 212.523 38.858C 213.414 38.858 214.18 38.573 214.57 38.092C 215.027 37.545 215.199 36.788 215.199 35.381L 215.199 30.366L 214.297 30.37zM 212.559 31.069C 213.586 31.069 214.195 31.944 214.195 33.452C 214.195 34.889 213.578 35.764 212.57 35.764C 211.527 35.764 210.898 34.877 210.898 33.416C 210.898 31.967 211.539 31.069 212.559 31.069z"/>
<path style="stroke:#000000; stroke-width:1.91229; fill:none" d="M 68.6836 94.155L 95.469 53.979"/>
<path style="stroke:#000000; stroke-width:1.91229; fill:none" d="M 89.637 59.28L 95.469 53.979L 92.82 61.401"/>
<path style="stroke:#000000; stroke-width:1.91229; fill:none" d="M 127.996 94.155L 105.039 53.979"/>
<path style="stroke:#000000; stroke-width:1.91229; fill:none" d="M 107.172 61.565L 105.039 53.979L 110.492 59.67"/>
<path style="stroke:#000000; stroke-width:1.91229; fill:none" d="M 183.48 94.155L 202.613 53.979"/>
<path style="stroke:#000000; stroke-width:1.91229; fill:none" d="M 197.598 60.057L 202.609 53.975L 201.051 61.702"/>
<path style="stroke:#000000; stroke-width:1.91229; fill:none" d="M 240.879 94.155L 210.27 53.979"/>
<path style="stroke:#000000; stroke-width:1.91229; fill:none" d="M 213.383 61.217L 210.27 53.975L 216.426 58.901"/>
<path style="stroke:none; fill-rule:evenodd; fill:#000000" d="M 2.7969 196.87L 1.7969 196.87L 1.7969 195.901C 1.7969 195.487 2.0234 195.272 2.4609 195.272C 2.5391 195.272 2.5742 195.272 2.793 195.272L 2.793 194.53C 2.5703 194.487 2.4414 194.479 2.2422 194.479C 1.3398 194.479 0.7969 194.987 0.7969 195.85L 0.7969 196.873L 0 196.873L 0 197.67L 0.7969 197.67L 0.7969 202.87L 1.7969 202.87L 1.7969 197.67L 2.7969 197.67L 2.7969 196.87z"/>
<path style="stroke:none; fill-rule:evenodd; fill:#000000" d="M 8.8984 200.17C 8.8984 199.252 8.832 198.702 8.6602 198.256C 8.2734 197.272 7.3594 196.674 6.2422 196.674C 4.5781 196.674 3.5039 197.967 3.5039 199.956C 3.5039 201.944 4.5391 203.166 6.2109 203.166C 7.5742 203.166 8.5195 202.373 8.7578 201.045L 7.8047 201.045C 7.5469 201.846 7.0117 202.268 6.25 202.268C 5.6484 202.268 5.1406 201.991 4.8203 201.475C 4.5938 201.127 4.5156 200.776 4.5039 200.17L 8.8984 200.17zM 4.4766 199.405C 4.5547 198.295 5.2305 197.569 6.1953 197.569C 7.1328 197.569 7.8555 198.346 7.8555 199.334C 7.8555 199.354 7.8555 199.377 7.8477 199.401L 4.4766 199.405z"/>
<path style="stroke:none; fill-rule:evenodd; fill:#000000" d="M 15.5352 202.307C 15.4336 202.366 15.3867 202.366 15.3242 202.366C 14.9844 202.366 14.8008 202.194 14.8008 201.893L 14.8008 198.327C 14.8008 197.252 14.0234 196.67 12.5508 196.67C 11.6836 196.67 10.9648 196.924 10.5625 197.373C 10.2891 197.682 10.1758 198.03 10.1523 198.631L 11.0977 198.631C 11.1758 197.901 11.6016 197.569 12.4844 197.569C 13.3281 197.569 13.8008 197.889 13.8008 198.467L 13.8008 198.721C 13.8008 199.123 13.5664 199.295 12.8242 199.389C 11.5 199.561 11.2969 199.608 10.9375 199.756C 10.2539 200.041 9.9062 200.584 9.9062 201.37C 9.9062 202.463 10.6602 203.155 11.8711 203.155C 12.625 203.155 13.2305 202.881 13.9062 202.237C 13.9727 202.87 14.2695 203.155 14.8867 203.155C 15.0781 203.155 15.2266 203.131 15.5352 203.049L 15.5352 202.307zM 13.7969 201.01C 13.7969 201.338 13.707 201.541 13.4297 201.811C 13.0508 202.174 12.5938 202.366 12.0469 202.366C 11.3242 202.366 10.9023 202.002 10.9023 201.373C 10.9023 200.725 11.3125 200.393 12.3047 200.241C 13.2852 200.1 13.4844 200.053 13.7969 199.901L 13.7969 201.01z"/>
<path style="stroke:none; fill-rule:evenodd; fill:#000000" d="M 18.5977 196.87L 17.6992 196.87L 17.6992 195.209L 16.6992 195.209L 16.6992 196.87L 15.8008 196.87L 15.8008 197.666L 16.6992 197.666L 16.6992 202.213C 16.6992 202.819 17.1016 203.163 17.832 203.163C 18.0547 203.163 18.2812 203.139 18.5938 203.08L 18.5938 202.245C 18.4805 202.33 18.3438 202.362 18.1758 202.362C 17.8008 202.362 17.6953 202.248 17.6953 201.819L 17.6953 197.666L 18.5938 197.666L 18.5977 196.87z"/>
<path style="stroke:none; fill-rule:evenodd; fill:#000000" d="M 24.5 202.905L 24.5 196.873L 23.5 196.873L 23.5 200.319C 23.5 201.557 22.8555 202.37 21.8516 202.37C 21.0898 202.37 20.6055 201.909 20.6055 201.178L 20.6055 196.873L 19.6055 196.873L 19.6055 201.526C 19.6055 202.526 20.3438 203.17 21.5078 203.17C 22.3828 203.17 22.9414 202.862 23.5 202.069L 23.5 202.909L 24.5 202.905z"/>
<path style="stroke:none; fill-rule:evenodd; fill:#000000" d="M 26.0977 196.842L 26.0977 202.866L 27.0977 202.866L 27.0977 199.733C 27.0977 198.87 27.3086 198.303 27.7578 197.971C 28.0469 197.752 28.3281 197.686 28.9766 197.674L 28.9766 196.709C 28.8203 196.69 28.7422 196.678 28.6172 196.678C 28.0078 196.678 27.543 197.045 27 197.944L 27 196.854L 26.0977 196.842z"/>
<path style="stroke:none; fill-rule:evenodd; fill:#000000" d="M 35 200.17C 35 199.252 34.9336 198.702 34.7617 198.256C 34.375 197.272 33.4609 196.674 32.3438 196.674C 30.6797 196.674 29.6055 197.967 29.6055 199.956C 29.6055 201.944 30.6406 203.166 32.3125 203.166C 33.6758 203.166 34.6211 202.373 34.8594 201.045L 33.9062 201.045C 33.6484 201.846 33.1133 202.268 32.3516 202.268C 31.75 202.268 31.2422 201.991 30.9219 201.475C 30.6953 201.127 30.6172 200.776 30.6055 200.17L 35 200.17zM 30.5781 199.405C 30.6562 198.295 31.332 197.569 32.2969 197.569C 33.2344 197.569 33.957 198.346 33.957 199.334C 33.957 199.354 33.957 199.377 33.9492 199.401L 30.5781 199.405z"/>
<path style="stroke:none; fill-rule:evenodd; fill:#000000" d="M 1.5 114.569L 0.5 114.569L 0.5 120.569L 1.5 120.569L 1.5 114.569zM 1.5 112.17L 0.5 112.17L 0.5 113.409L 1.5 113.409L 1.5 112.17z"/>
<path style="stroke:none; fill-rule:evenodd; fill:#000000" d="M 8 112.17L 7 112.17L 7 115.315C 6.6016 114.698 5.9648 114.373 5.1641 114.373C 3.6172 114.373 2.6016 115.635 2.6016 117.565C 2.6016 119.612 3.6133 120.87 5.2539 120.87C 6.0898 120.87 6.6719 120.553 7.1992 119.78L 7.1992 120.569L 7.9961 120.569L 8 112.17zM 5.3281 115.268C 6.3477 115.268 7 116.194 7 117.639C 7 119.038 6.3438 119.963 5.3398 119.963C 4.2969 119.963 3.6016 119.026 3.6016 117.616C 3.6016 116.206 4.293 115.268 5.3281 115.268z"/>
<path style="stroke:none; fill-rule:evenodd; fill:#000000" d="M 14.5977 117.87C 14.5977 116.952 14.5312 116.401 14.3594 115.956C 13.9727 114.971 13.0586 114.373 11.9414 114.373C 10.2773 114.373 9.2031 115.666 9.2031 117.655C 9.2031 119.643 10.2383 120.866 11.9102 120.866C 13.2734 120.866 14.2188 120.073 14.457 118.745L 13.5039 118.745C 13.2461 119.545 12.7109 119.967 11.9492 119.967C 11.3477 119.967 10.8398 119.69 10.5195 119.174C 10.293 118.827 10.2148 118.475 10.2031 117.87L 14.5977 117.87zM 10.1797 117.104C 10.2578 115.995 10.9336 115.268 11.8984 115.268C 12.8359 115.268 13.5586 116.045 13.5586 117.034C 13.5586 117.053 13.5586 117.077 13.5508 117.1L 10.1797 117.104z"/>
<path style="stroke:none; fill-rule:evenodd; fill:#000000" d="M 15.8984 114.541L 15.8984 120.565L 16.8984 120.565L 16.8984 117.217C 16.8984 115.979 17.5234 115.166 18.4883 115.166C 19.2266 115.166 19.6953 115.627 19.6953 116.358L 19.6953 120.561L 20.6953 120.561L 20.6953 116.006C 20.6953 115.006 19.9531 114.362 18.793 114.362C 17.8984 114.362 17.3281 114.706 16.8008 115.545L 16.8008 114.534L 15.8984 114.541z"/>
<path style="stroke:none; fill-rule:evenodd; fill:#000000" d="M 24.3984 114.569L 23.5 114.569L 23.5 112.909L 22.5 112.909L 22.5 114.569L 21.6016 114.569L 21.6016 115.366L 22.5 115.366L 22.5 119.913C 22.5 120.518 22.9023 120.862 23.6328 120.862C 23.8555 120.862 24.082 120.838 24.3945 120.78L 24.3945 119.944C 24.2812 120.03 24.1445 120.061 23.9766 120.061C 23.6016 120.061 23.4961 119.948 23.4961 119.518L 23.4961 115.366L 24.3945 115.366L 24.3984 114.569z"/>
<path style="stroke:none; fill-rule:evenodd; fill:#000000" d="M 26.3984 114.569L 25.3984 114.569L 25.3984 120.569L 26.3984 120.569L 26.3984 114.569zM 26.3984 112.17L 25.3984 112.17L 25.3984 113.409L 26.3984 113.409L 26.3984 112.17z"/>
<path style="stroke:none; fill-rule:evenodd; fill:#000000" d="M 30.0977 114.569L 29.1992 114.569L 29.1992 112.909L 28.1992 112.909L 28.1992 114.569L 27.3008 114.569L 27.3008 115.366L 28.1992 115.366L 28.1992 119.913C 28.1992 120.518 28.6016 120.862 29.332 120.862C 29.5547 120.862 29.7812 120.838 30.0938 120.78L 30.0938 119.944C 29.9805 120.03 29.8438 120.061 29.6758 120.061C 29.3008 120.061 29.1953 119.948 29.1953 119.518L 29.1953 115.366L 30.0938 115.366L 30.0977 114.569z"/>
<path style="stroke:none; fill-rule:evenodd; fill:#000000" d="M 34.8516 114.569L 33.1914 119.237L 31.6562 114.569L 30.6367 114.569L 32.6641 120.623L 32.3008 121.577C 32.1523 122.002 31.9375 122.163 31.5352 122.163C 31.3984 122.163 31.2383 122.127 31.0312 122.057L 31.0312 122.913C 31.2227 123.014 31.418 123.061 31.6719 123.061C 31.9805 123.061 32.3125 122.959 32.5664 122.776C 32.8633 122.561 33.0352 122.307 33.2188 121.827L 35.8906 114.565L 34.8516 114.569z"/>
<path style="stroke:none; fill-rule:evenodd; fill:#000000" d="M 5.2031 32.377C 5.1562 31.788 5.0312 31.409 4.8047 31.073C 4.3984 30.51 3.6797 30.174 2.8516 30.174C 1.25 30.174 0.2031 31.467 0.2031 33.479C 0.2031 35.432 1.2266 36.666 2.8398 36.666C 4.2578 36.666 5.1562 35.795 5.2734 34.303L 4.3242 34.303C 4.168 35.28 3.6797 35.768 2.875 35.768C 1.832 35.768 1.207 34.905 1.207 33.479C 1.207 31.971 1.8164 31.073 2.8516 31.073C 3.6445 31.073 4.1445 31.541 4.2539 32.377L 5.2031 32.377z"/>
<path style="stroke:none; fill-rule:evenodd; fill:#000000" d="M 11.6367 35.807C 11.5352 35.866 11.4883 35.866 11.4258 35.866C 11.0859 35.866 10.9023 35.694 10.9023 35.393L 10.9023 31.827C 10.9023 30.752 10.125 30.17 8.6523 30.17C 7.7852 30.17 7.0664 30.424 6.6641 30.873C 6.3906 31.182 6.2773 31.53 6.2539 32.131L 7.1992 32.131C 7.2773 31.401 7.7031 31.069 8.5859 31.069C 9.4297 31.069 9.9023 31.389 9.9023 31.967L 9.9023 32.221C 9.9023 32.623 9.668 32.795 8.9258 32.889C 7.6016 33.061 7.3984 33.108 7.0391 33.256C 6.3555 33.541 6.0078 34.084 6.0078 34.87C 6.0078 35.963 6.7617 36.655 7.9727 36.655C 8.7266 36.655 9.332 36.381 10.0078 35.737C 10.0742 36.37 10.3711 36.655 10.9883 36.655C 11.1797 36.655 11.3281 36.631 11.6367 36.549L 11.6367 35.807zM 9.8984 34.51C 9.8984 34.838 9.8086 35.041 9.5312 35.311C 9.1523 35.674 8.6953 35.866 8.1484 35.866C 7.4258 35.866 7.0039 35.502 7.0039 34.873C 7.0039 34.225 7.4141 33.893 8.4062 33.741C 9.3867 33.6 9.5859 33.553 9.8984 33.401L 9.8984 34.51z"/>
<path style="stroke:none; fill-rule:evenodd; fill:#000000" d="M 14.7969 30.37L 13.8984 30.37L 13.8984 28.709L 12.8984 28.709L 12.8984 30.37L 12 30.37L 12 31.166L 12.8984 31.166L 12.8984 35.713C 12.8984 36.319 13.3008 36.663 14.0312 36.663C 14.2539 36.663 14.4805 36.639 14.793 36.58L 14.793 35.745C 14.6797 35.83 14.543 35.862 14.375 35.862C 14 35.862 13.8945 35.748 13.8945 35.319L 13.8945 31.166L 14.793 31.166L 14.7969 30.37z"/>
<path style="stroke:none; fill-rule:evenodd; fill:#000000" d="M 21 33.67C 21 32.752 20.9336 32.202 20.7617 31.756C 20.375 30.772 19.4609 30.174 18.3438 30.174C 16.6797 30.174 15.6055 31.467 15.6055 33.456C 15.6055 35.444 16.6406 36.666 18.3125 36.666C 19.6758 36.666 20.6211 35.873 20.8594 34.545L 19.9062 34.545C 19.6484 35.346 19.1133 35.768 18.3516 35.768C 17.75 35.768 17.2422 35.491 16.9219 34.975C 16.6953 34.627 16.6172 34.276 16.6055 33.67L 21 33.67zM 16.5781 32.905C 16.6562 31.795 17.332 31.069 18.2969 31.069C 19.2344 31.069 19.957 31.846 19.957 32.834C 19.957 32.854 19.957 32.877 19.9492 32.901L 16.5781 32.905z"/>
<path style="stroke:none; fill-rule:evenodd; fill:#000000" d="M 26.1992 30.37L 26.1992 31.229C 25.7188 30.51 25.1328 30.17 24.3633 30.17C 22.8359 30.17 21.8047 31.51 21.8047 33.475C 21.8047 34.467 22.0664 35.276 22.5586 35.854C 23.0039 36.362 23.6445 36.663 24.2773 36.663C 25.0312 36.663 25.5586 36.334 26.0977 35.549L 26.0977 35.858C 26.0977 36.67 25.9961 37.166 25.7578 37.498C 25.5078 37.854 25.0195 38.057 24.4414 38.057C 24.0117 38.057 23.625 37.944 23.3633 37.737C 23.1484 37.565 23.0586 37.405 23 37.049L 22.0352 37.049C 22.1367 38.182 23.0195 38.858 24.4258 38.858C 25.3164 38.858 26.082 38.573 26.4727 38.092C 26.9297 37.545 27.1016 36.788 27.1016 35.381L 27.1016 30.366L 26.1992 30.37zM 24.4609 31.069C 25.4883 31.069 26.0977 31.944 26.0977 33.452C 26.0977 34.889 25.4805 35.764 24.4727 35.764C 23.4297 35.764 22.8008 34.877 22.8008 33.416C 22.8008 31.967 23.4414 31.069 24.4609 31.069z"/>
<path style="stroke:none; fill-rule:evenodd; fill:#000000" d="M 31.0352 30.17C 29.332 30.17 28.3008 31.385 28.3008 33.42C 28.3008 35.452 29.3203 36.666 31.0508 36.666C 32.7539 36.666 33.8008 35.456 33.8008 33.467C 33.8008 31.377 32.793 30.17 31.0391 30.17L 31.0352 30.17zM 31.0469 31.069C 32.1406 31.069 32.7969 31.956 32.7969 33.452C 32.7969 34.866 32.1211 35.764 31.0469 35.764C 29.9648 35.764 29.2969 34.877 29.2969 33.416C 29.2969 31.967 29.9609 31.069 31.0469 31.069z"/>
<path style="stroke:none; fill-rule:evenodd; fill:#000000" d="M 35 30.342L 35 36.366L 36 36.366L 36 33.233C 36 32.37 36.2109 31.803 36.6602 31.471C 36.9492 31.252 37.2305 31.186 37.8789 31.174L 37.8789 30.209C 37.7227 30.19 37.6445 30.178 37.5195 30.178C 36.9102 30.178 36.4453 30.545 35.9023 31.444L 35.9023 30.354L 35 30.342z"/>
<path style="stroke:none; fill-rule:evenodd; fill:#000000" d="M 42.5508 30.37L 40.8906 35.038L 39.3555 30.37L 38.3359 30.37L 40.3633 36.424L 40 37.377C 39.8516 37.803 39.6367 37.963 39.2344 37.963C 39.0977 37.963 38.9375 37.928 38.7305 37.858L 38.7305 38.713C 38.9219 38.815 39.1172 38.862 39.3711 38.862C 39.6797 38.862 40.0117 38.76 40.2656 38.577C 40.5625 38.362 40.7344 38.108 40.918 37.627L 43.5898 30.366L 42.5508 30.37z"/>
</g>
</svg>