<?xml version="1.0" encoding="UTF-8" standalone="no"?>
<svg
   xmlns:dc="http://purl.org/dc/elements/1.1/"
   xmlns:cc="http://creativecommons.org/ns#"
   xmlns:rdf="http://www.w3.org/1999/02/22-rdf-syntax-ns#"
   xmlns:svg="http://www.w3.org/2000/svg"
   xmlns="http://www.w3.org/2000/svg"
   xmlns:sodipodi="http://sodipodi.sourceforge.net/DTD/sodipodi-0.dtd"
   xmlns:inkscape="http://www.inkscape.org/namespaces/inkscape"
   version="1.1"
   width="8.5in"
   height="11in"
   viewBox="0 0 1912.5 2475"
   id="svg2"
   inkscape:version="0.91 r13725"
   sodipodi:docname="fig_deepleabra_wwi_teo_epc1.svg"
   inkscape:export-filename="/Users/oreilly/svn_docs/figs/fig_deepleabra_wwi_teo_epc1.png"
   inkscape:export-xdpi="149.95799"
   inkscape:export-ydpi="149.95799">
  <metadata
     id="metadata80">
    <rdf:RDF>
      <cc:Work
         rdf:about="">
        <dc:format>image/svg+xml</dc:format>
        <dc:type
           rdf:resource="http://purl.org/dc/dcmitype/StillImage" />
        <dc:title></dc:title>
      </cc:Work>
    </rdf:RDF>
  </metadata>
  <defs
     id="defs78">
    <marker
       inkscape:isstock="true"
       style="overflow:visible"
       id="marker6416"
       refX="0"
       refY="0"
       orient="auto"
       inkscape:stockid="Arrow1Mend">
      <path
         inkscape:connector-curvature="0"
         transform="matrix(-0.4,0,0,-0.4,-4,0)"
         style="fill:#000000;fill-opacity:1;fill-rule:evenodd;stroke:#000000;stroke-width:1pt;stroke-opacity:1"
         d="M 0,0 5,-5 -12.5,0 5,5 0,0 Z"
         id="path6418" />
    </marker>
    <marker
       inkscape:isstock="true"
       style="overflow:visible"
       id="marker6499"
       refX="0"
       refY="0"
       orient="auto"
       inkscape:stockid="Arrow1Mend">
      <path
         transform="matrix(-0.4,0,0,-0.4,-4,0)"
         style="fill:#000000;fill-opacity:1;fill-rule:evenodd;stroke:#000000;stroke-width:1pt;stroke-opacity:1"
         d="M 0,0 5,-5 -12.5,0 5,5 0,0 Z"
         id="path6501"
         inkscape:connector-curvature="0" />
    </marker>
    <marker
       inkscape:stockid="Arrow1Mend"
       orient="auto"
       refY="0"
       refX="0"
       id="marker5623"
       style="overflow:visible"
       inkscape:isstock="true">
      <path
         id="path5625"
         d="M 0,0 5,-5 -12.5,0 5,5 0,0 Z"
         style="fill:#000000;fill-opacity:1;fill-rule:evenodd;stroke:#000000;stroke-width:1pt;stroke-opacity:1"
         transform="matrix(-0.4,0,0,-0.4,-4,0)"
         inkscape:connector-curvature="0" />
    </marker>
    <marker
       inkscape:stockid="Arrow1Mend"
       orient="auto"
       refY="0"
       refX="0"
       id="marker5211"
       style="overflow:visible"
       inkscape:isstock="true">
      <path
         id="path5213"
         d="M 0,0 5,-5 -12.5,0 5,5 0,0 Z"
         style="fill:#000000;fill-opacity:1;fill-rule:evenodd;stroke:#000000;stroke-width:1pt;stroke-opacity:1"
         transform="matrix(-0.4,0,0,-0.4,-4,0)"
         inkscape:connector-curvature="0" />
    </marker>
    <marker
       inkscape:isstock="true"
       style="overflow:visible"
       id="marker4949"
       refX="0"
       refY="0"
       orient="auto"
       inkscape:stockid="Arrow1Mend">
      <path
         transform="matrix(-0.4,0,0,-0.4,-4,0)"
         style="fill:#000000;fill-opacity:1;fill-rule:evenodd;stroke:#000000;stroke-width:1pt;stroke-opacity:1"
         d="M 0,0 5,-5 -12.5,0 5,5 0,0 Z"
         id="path4951"
         inkscape:connector-curvature="0" />
    </marker>
    <marker
       inkscape:isstock="true"
       style="overflow:visible"
       id="marker4907"
       refX="0"
       refY="0"
       orient="auto"
       inkscape:stockid="Arrow1Mend">
      <path
         transform="matrix(-0.4,0,0,-0.4,-4,0)"
         style="fill:#000000;fill-opacity:1;fill-rule:evenodd;stroke:#000000;stroke-width:1pt;stroke-opacity:1"
         d="M 0,0 5,-5 -12.5,0 5,5 0,0 Z"
         id="path4909"
         inkscape:connector-curvature="0" />
    </marker>
  </defs>
  <sodipodi:namedview
     pagecolor="#ffffff"
     bordercolor="#666666"
     borderopacity="1"
     objecttolerance="10"
     gridtolerance="10"
     guidetolerance="10"
     inkscape:pageopacity="0"
     inkscape:pageshadow="2"
     inkscape:window-width="640"
     inkscape:window-height="480"
     id="namedview76"
     showgrid="false"
     units="in"
     inkscape:zoom="1.9725"
     inkscape:cx="192.22328"
     inkscape:cy="200.93983"
     inkscape:current-layer="svg2" />
  <rect
     style="opacity:1;fill:#ffffff;fill-opacity:1;fill-rule:nonzero;stroke:#ffffff;stroke-width:1.26840985;stroke-linecap:butt;stroke-linejoin:miter;stroke-miterlimit:4;stroke-dasharray:none;stroke-dashoffset:0;stroke-opacity:1"
     id="rect6498"
     width="992.95184"
     height="921.28168"
     x="43.040272"
     y="1519.6532" />
  <path
     d="m 215.15417,2304.6655 0,-747.4999 747.5,0 0,747.4999 -747.5,0"
     id="path4-0"
     inkscape:connector-curvature="0"
     style="fill:none;stroke:#000000;stroke-width:2" />
  <path
     style="fill:none;stroke:#000000;stroke-width:2"
     inkscape:connector-curvature="0"
     id="path34-8"
     d="m 215.15417,2304.6655 747.5,0 m -747.5,18.7 0,-37.3 m 74.7,37.3 0,-37.3 m 74.8,37.3 0,-37.3 m 74.7,37.3 0,-37.3 m 74.8,37.3 0,-37.3 m 74.7,37.3 0,-37.3 m 74.8,37.3 0,-37.3 m 74.8,37.3 0,-37.3 m 74.7,37.3 0,-37.3 m 74.8,37.3 0,-37.3 m 74.7,37.3 0,-37.3" />
  <path
     style="fill:none;stroke:#000000;stroke-width:2"
     inkscape:connector-curvature="0"
     id="path36-9"
     d="m 215.15417,1557.1656 747.5,0 m -747.5,18.7 0,-37.4 m 74.7,37.4 0,-37.4 m 74.8,37.4 0,-37.4 m 74.7,37.4 0,-37.4 m 74.8,37.4 0,-37.4 m 74.7,37.4 0,-37.4 m 74.8,37.4 0,-37.4 m 74.8,37.4 0,-37.4 m 74.7,37.4 0,-37.4 m 74.8,37.4 0,-37.4 m 74.7,37.4 0,-37.4" />
  <text
     style="font-size:37.90000153px;font-family:Arial;text-anchor:end;fill:#000000"
     id="text40-2"
     font-size="37.9"
     y="2319.6655"
     x="188.95416">0.75</text>
  <text
     style="font-size:37.90000153px;font-family:Arial;text-anchor:end;fill:#000000"
     id="text42-7"
     font-size="37.9"
     y="2170.1655"
     x="188.95416">0.8</text>
  <text
     style="font-size:37.90000153px;font-family:Arial;text-anchor:end;fill:#000000"
     id="text44-7"
     font-size="37.9"
     y="2020.6655"
     x="188.95416">0.85</text>
  <text
     style="font-size:37.90000153px;font-family:Arial;text-anchor:end;fill:#000000"
     id="text46-2"
     font-size="37.9"
     y="1871.1655"
     x="188.95416">0.9</text>
  <text
     style="font-size:37.90000153px;font-family:Arial;text-anchor:end;fill:#000000"
     id="text48-2"
     font-size="37.9"
     y="1721.5656"
     x="188.95416">0.95</text>
  <text
     style="font-size:37.90000153px;font-family:Arial;text-anchor:end;fill:#000000"
     id="text50-0"
     font-size="37.9"
     y="1572.0656"
     x="188.95416">1</text>
  <path
     style="fill:none;stroke:#000000;stroke-width:2"
     inkscape:connector-curvature="0"
     id="path52-1"
     d="m 215.15417,2304.6655 0,-747.4999 m -18.7,747.4999 37.3,0 m -37.3,-149.5 37.3,0 m -37.3,-149.4999 37.3,0 m -37.3,-149.5 37.3,0 m -37.3,-149.5 37.3,0 m -37.3,-149.5 37.3,0" />
  <path
     style="fill:none;stroke:#000000;stroke-width:2"
     inkscape:connector-curvature="0"
     id="path54-4"
     d="m 962.65417,2304.6655 0,-747.4999 m -18.7,747.4999 37.4,0 m -37.4,-149.5 37.4,0 m -37.4,-149.4999 37.4,0 m -37.4,-149.5 37.4,0 m -37.4,-149.5 37.4,0 m -37.4,-149.5 37.4,0" />
  <text
     style="font-size:37.90000153px;font-family:Arial;text-anchor:start;fill:#000000"
     id="text8-4"
     font-size="37.9"
     y="2359.1831"
     x="930.56134">1000</text>
  <text
     style="font-size:37.90000153px;font-family:Arial;text-anchor:middle;fill:#000000"
     id="text10-4"
     font-size="37.9"
     y="2419.8843"
     x="589.64227">
    <tspan
       style="font-size:50px"
       id="tspan4303">epoch</tspan>
  </text>
  <text
     style="font-size:37.90000153px;font-family:Arial;text-anchor:middle;fill:#000000"
     id="text12-5"
     font-size="37.9"
     y="2359.1831"
     x="214.99962">0</text>
  <text
     style="font-size:37.90000153px;font-family:Arial;text-anchor:middle;fill:#000000"
     id="text14-7"
     font-size="37.9"
     y="2359.1831"
     x="289.69962">100</text>
  <text
     style="font-size:37.90000153px;font-family:Arial;text-anchor:middle;fill:#000000"
     id="text16-9"
     font-size="37.9"
     y="2359.1831"
     x="364.49966">200</text>
  <text
     style="font-size:37.90000153px;font-family:Arial;text-anchor:middle;fill:#000000"
     id="text18-4"
     font-size="37.9"
     y="2359.1831"
     x="439.19968">300</text>
  <text
     style="font-size:37.90000153px;font-family:Arial;text-anchor:middle;fill:#000000"
     id="text20-0"
     font-size="37.9"
     y="2359.1831"
     x="513.99963">400</text>
  <text
     style="font-size:37.90000153px;font-family:Arial;text-anchor:middle;fill:#000000"
     id="text22-0"
     font-size="37.9"
     y="2359.1831"
     x="588.69958">500</text>
  <text
     style="font-size:37.90000153px;font-family:Arial;text-anchor:middle;fill:#000000"
     id="text24-4"
     font-size="37.9"
     y="2359.1831"
     x="663.49963">600</text>
  <text
     style="font-size:37.90000153px;font-family:Arial;text-anchor:middle;fill:#000000"
     id="text26-4"
     font-size="37.9"
     y="2359.1831"
     x="738.29962">700</text>
  <text
     style="font-size:37.90000153px;font-family:Arial;text-anchor:middle;fill:#000000"
     id="text28-1"
     font-size="37.9"
     y="2359.1831"
     x="812.99963">800</text>
  <text
     style="font-size:37.90000153px;font-family:Arial;text-anchor:middle;fill:#000000"
     id="text30-0"
     font-size="37.9"
     y="2359.1831"
     x="887.79962">900</text>
  <text
     sodipodi:linespacing="100%"
     id="text4305"
     y="100.57059"
     x="-2228.1667"
     style="color:#000000;font-style:normal;font-variant:normal;font-weight:normal;font-stretch:normal;font-size:37.5px;line-height:100%;font-family:Arial;-inkscape-font-specification:Arial;text-indent:0;text-align:start;text-decoration:none;text-decoration-line:none;letter-spacing:0px;word-spacing:0px;text-transform:none;direction:ltr;block-progression:tb;writing-mode:lr-tb;text-anchor:start;display:inline;overflow:visible;visibility:visible;fill:#000000;fill-opacity:1;fill-rule:nonzero;stroke:none;stroke-width:1px;stroke-linecap:butt;stroke-linejoin:miter;stroke-opacity:1;marker:none;enable-background:accumulate"
     xml:space="preserve"
     transform="matrix(0,-1,1,0,0,0)"><tspan
       style="font-size:50px"
       y="100.57059"
       x="-2228.1667"
       id="tspan4307"
       sodipodi:role="line">V1p minus-plus cosine</tspan></text>
  <text
     xml:space="preserve"
     style="color:#000000;font-style:normal;font-variant:normal;font-weight:normal;font-stretch:normal;font-size:37.5px;line-height:100%;font-family:Arial;-inkscape-font-specification:Arial;text-indent:0;text-align:start;text-decoration:none;text-decoration-line:none;letter-spacing:0px;word-spacing:0px;text-transform:none;direction:ltr;block-progression:tb;writing-mode:lr-tb;text-anchor:start;display:inline;overflow:visible;visibility:visible;fill:#000000;fill-opacity:1;fill-rule:nonzero;stroke:none;stroke-width:1px;stroke-linecap:butt;stroke-linejoin:miter;stroke-opacity:1;marker:none;enable-background:accumulate"
     x="438.13858"
     y="1743.329"
     id="text4818"
     sodipodi:linespacing="100%"><tspan
       sodipodi:role="line"
       id="tspan4820"
       x="438.13858"
       y="1743.329">Std (TEO @ 200)</tspan></text>
  <text
     xml:space="preserve"
     style="color:#000000;font-style:normal;font-variant:normal;font-weight:normal;font-stretch:normal;font-size:37.5px;line-height:100%;font-family:Arial;-inkscape-font-specification:Arial;text-indent:0;text-align:start;text-decoration:none;text-decoration-line:none;letter-spacing:0px;word-spacing:0px;text-transform:none;direction:ltr;block-progression:tb;writing-mode:lr-tb;text-anchor:start;display:inline;overflow:visible;visibility:visible;fill:#ff0000;fill-opacity:1;fill-rule:nonzero;stroke:none;stroke-width:1px;stroke-linecap:butt;stroke-linejoin:miter;stroke-opacity:1;marker:none;enable-background:accumulate"
     x="436.85684"
     y="1999.5786"
     id="text4826"
     sodipodi:linespacing="100%"><tspan
       sodipodi:role="line"
       id="tspan4828"
       x="436.85684"
       y="1999.5786">Early TEO top-down</tspan></text>
  <path
     style="fill:none;stroke:#000000;stroke-width:2.5;stroke-miterlimit:4;stroke-dasharray:none"
     d="m 215.85418,2304.6655 0.8,0 0.7,0 0.69999,0 0.80001,0 0.69999,0 0.80001,0 0.69999,0 0.80001,0 0.69999,0 0.80001,0 0.69999,0 0.80001,0 0.69999,0 0.80001,0 0.69999,0 0.80001,0 0.69999,0 0.80001,0 0.69999,0 0.80001,0 0.69999,0 0.80001,0 0.69999,0 0.7,0 0.8,0 0.7,-4.5999 0.8,-14.7 0.7,-13.2 0.8,-9.9 0.7,-8.7 0.8,-7.7 0.7,-7.7 0.8,-7.2 0.7,-8.7 0.8,-8.7 0.7,-8.9 0.8,-8.5 0.7,-6.4 0.8,-7.6 0.7,-8.1 0.8,-7.4 0.7,-7.6 0.8,-6.6 0.7,-8.3 0.7,-8.2 0.8,-8.4 0.7,-8.1 0.8,-7.2 0.7,-6.2 0.8,-6.1 0.7,-4.2 0.8,-2.3 0.7,-2.4 0.8,-0.6 0.7,-1.3 0.8,1 0.7,0.1 0.8,0 0.7,0.6 0.8,-0.5 0.7,-0.4 0.8,0 0.7,-0.7 0.8,-1 0.7,-2.7 0.7,-2.4 0.8,-2.8 0.7,-4.2 0.8,-5 0.7,-3.8 0.8,-6.9 0.7,-5.2 0.8,-5.5 0.7,-4.9 0.8,-4.8 0.7,-4.7 0.8,-4.5 0.7,-5.1 0.8,-5.7 0.7,-6.1 0.8,-6.7 0.7,-7.1 0.8,-8.9 0.7,-7.6 0.8,-7.5 0.7,-7.2 0.7,-7.3 0.8,-4.1 0.7,-4.5 0.8,-3.3 0.7,-1.9 0.8,-1.4 0.7,-0.4 0.8,-0.2 0.7,0.8 0.8,0.4 0.7,1.1 0.8,1.8 0.7,2.2 0.8,3 0.7,1.4 0.8,2.6 0.7,3.5 0.8,3.1 0.7,3.3 0.8,2.4 0.7,2.3 0.7,1.6 0.8,0.1 0.7,-0.4 0.8,-1.5 0.7,-3 0.8,-3.2 0.7,-3.3 0.8,-5 0.7,-3.5 0.8,-3.1 0.7,-1.8 0.8,-0.5 0.7,-0.3 0.8,0.2 0.7,0 0.8,0.6 0.7,0 0.8,-0.1 0.7,-1.2 0.7,-2.1 0.8,-1.9 0.7,-1.3 0.8,-2.1 0.7,-1.8 0.8,-0.4 0.7,-0.8 0.8,0.6 0.7,0.5 0.8,0.5 0.7,1.1 0.8,2.1 0.7,2 0.8,2.1 0.7,1.9 0.8,2.1 0.7,2.4 0.8,1.6 0.7,1.7 0.8,0.1 0.7,1.3 0.7,0.4 0.8,-0.3 0.7,0.6 0.8,1 0.7,0.4 0.8,1.2 0.7,0.4 0.8,1 0.7,0.2 0.8,0.3 0.7,0 0.8,-0.6 0.7,-0.9 0.8,-2.1 0.7,-3.3 0.8,-2 0.7,-3.8 0.8,-2.5 0.7,-2.6 0.8,-3.8 0.7,-4.3 0.7,-2.5 0.8,-2.7 0.7,-2.3 0.8,-3 0.7,-1.6 0.8,-2.3 0.7,-1.1 0.8,-0.6 0.7,0.6 0.8,2.9 0.7,3.7 0.8,3.5 0.7,5.2 0.8,4.4 0.7,3.9 0.8,3.5 0.7,2.9 0.8,-0.1 0.7,-1.4 0.8,-1.5 0.7,-3.2 0.7,-3.8 0.8,-4.5 0.7,-6 0.8,-6.9 0.7,-8.6 0.8,-10.8 0.7,-12.7 0.8,-14 0.7,-15.6 0.8,-15.7 0.7,-14.9 0.8,-14.6 0.7,-13.4 0.8,-9.9 0.7,-8.7 0.8,-6.7 0.7,-4.9 0.8,-4.2 0.7,-3.1 0.8,-2.6 0.7,-2.9 0.7,-2.6 0.8,-2 0.7,-0.8 0.8,-0.9 0.7,0.1 0.8,0.5 0.7,1.3 0.8,1.7 0.7,2.5 0.8,2 0.7,1.3 0.8,1.1 0.7,1.1 0.8,0.9 0.7,1 0.8,0.6 0.7,1.3 0.8,1.8 0.7,1.3 0.7,1.2 0.8,1 0.7,1 0.8,0.8 0.7,0.1 0.8,-0.1 0.7,-1.8 0.8,-1 0.7,-0.3 0.8,-1.2 0.7,-0.3 0.8,-0.6 0.7,-0.3 0.8,0.5 0.7,0.3 0.8,0.4 0.7,0.4 0.8,-0.2 0.7,0.3 0.8,-1.6 0.7,-1.4 0.7,-1.7 0.8,-2.6 0.7,-1.8 0.8,-3.1 0.7,-2.1 0.8,-1 0.7,-0.5 0.8,0.7 0.7,2 0.8,1.8 0.7,2.6 0.8,2.9 0.7,2.2 0.8,2.7 0.7,0.7 0.8,2.2 0.7,0.5 0.8,0.7 0.7,0.8 0.8,0.7 0.7,0.9 0.7,0.7 0.8,0.6 0.7,0.2 0.8,1 0.7,-1.1 0.8,-0.2 0.7,-0.5 0.8,-1.1 0.7,0.4 0.8,0.3 0.7,1.9 0.8,1.1 0.7,2.5 0.8,3.5 0.7,2.9 0.8,3.2 0.7,3.5 0.8,2.1 0.7,1.6 0.8,0.6 0.7,-0.3 0.7,-0.1 0.8,-1 0.7,-1.2 0.8,-1 0.7,-2.4 0.8,-2.2 0.7,-2 0.8,-1.8 0.7,-2 0.8,-2.6 0.7,-2.2 0.8,-2.2 0.7,-2.4 0.8,-1.2 0.7,0.1 0.8,0.8 0.7,0 0.8,1 0.7,1.2 0.8,1.2 0.7,1.4 0.7,0.4 0.8,-0.3 0.7,-0.8 0.8,-1.4 0.7,-2.1 0.8,-2.2 0.7,-2 0.8,-1.9 0.7,-1.2 0.8,-1 0.7,-1 0.8,0.3 0.7,1.2 0.8,1 0.7,1.5 0.8,1.8 0.7,2.3 0.8,3.2 0.7,2 0.7,2.1 0.8,2.1 0.7,1.5 0.8,1.7 0.7,0.8 0.8,0 0.7,-0.7 0.8,-0.4 0.7,-1.2 0.8,-1.4 0.7,-0.6 0.8,-0.7 0.7,-0.8 0.8,-0.8 0.7,-0.2 0.8,-0.2 0.7,0.1 0.8,-0.3 0.7,0.3 0.8,0.4 0.7,-0.2 0.7,0.9 0.8,0.7 0.7,1.8 0.8,1.1 0.7,1.6 0.8,1.8 0.7,1 0.8,0.5 0.7,0.2 0.8,0.7 0.7,-1.3 0.8,-1.3 0.7,-1.6 0.8,-2.5 0.7,-2.4 0.8,-2.6 0.7,-2.6 0.8,-1.9 0.7,-1.7 0.8,-1.9 0.7,-1.3 0.7,0.4 0.8,-0.2 0.7,1 0.8,2.2 0.7,1.7 0.8,2.2 0.7,2 0.8,1.8 0.7,1.3 0.8,1.2 0.7,-0.4 0.8,0 0.7,-1.2 0.8,-2 0.7,-1.4 0.8,-1.1 0.7,-0.6 0.8,-0.7 0.7,0.7 0.8,1.1 0.7,1 0.7,1 0.8,0.8 0.7,1.5 0.8,0.6 0.7,1 0.8,0.7 0.7,1.3 0.8,1.4 0.7,2.5 0.8,2.6 0.7,3.1 0.8,3.3 0.7,3.4 0.8,3.1 0.7,2.1 0.8,0.7 0.7,0.6 0.8,0.7 0.7,-0.8 0.8,-1.4 0.7,-1.6 0.7,-2.8 0.8,-2.9 0.7,-3.1 0.8,-3.2 0.7,-3.1 0.8,-2.9 0.7,-2.7 0.8,-3.1 0.7,-2.3 0.8,-1.9 0.7,-0.8 0.8,0.3 0.7,-0.7 0.8,-1.7 0.7,-0.6 0.8,0.4 0.7,0.9 0.8,1.2 0.7,1.2 0.7,2.3 0.8,2.4 0.7,2.6 0.8,3 0.7,2.6 0.8,2.3 0.7,0.5 0.8,-0.1 0.7,-1.5 0.8,-2.1 0.7,-1.5 0.8,-1.7 0.7,-2.2 0.8,-2 0.7,-1.8 0.8,0.2 0.7,-0.1 0.8,-0.7 0.7,-0.4 0.8,-0.9 0.7,-1.6 0.7,-1.7 0.8,-1.6 0.7,-1.1 0.8,-2.2 0.7,-0.8 0.8,-0.6 0.7,-0.4 0.8,1.4 0.7,1.3 0.8,1 0.7,1.7 0.8,0.2 0.7,0.8 0.8,1.1 0.7,0.4 0.8,0.2 0.7,0.8 0.8,0 0.7,0.3 0.8,0.8 0.7,1.3 0.7,1 0.8,1.6 0.7,1.7 0.8,0.9 0.7,1.4 0.8,1.8 0.7,0.4 0.8,1 0.7,0 0.8,-0.6 0.7,-1 0.8,-1.3 0.7,-2.3 0.8,-1.7 0.7,-1 0.8,-1.5 0.7,-0.9 0.8,-0.1 0.7,0.4 0.8,1.2 0.7,1.7 0.7,1.6 0.8,2 0.7,2.9 0.8,2.2 0.7,2.4 0.8,1 0.7,1.3 0.8,0 0.7,-0.8 0.8,-2.2 0.7,-3.5 0.8,-3.7 0.7,-4 0.8,-4 0.7,-3.5 0.8,-2.5 0.7,-1.3 0.8,-0.4 0.7,0.6 0.8,1.6 0.7,1.9 0.7,2.6 0.8,2.1 0.7,1.5 0.8,1.6 0.7,2.5 0.8,2 0.7,2.3 0.8,1.4 0.7,2.6 0.8,2 0.7,2 0.8,0.6 0.7,0.3 0.8,-0.9 0.7,-1.4 0.8,-2.2 0.7,-2.5 0.8,-2.6 0.7,-1.7 0.70001,-1.2 0.79999,-0.8 0.70001,-0.7 0.79999,1.3 0.70001,2.4 0.79999,1.9 0.70001,1.2 0.79999,2 0.70001,2 0.79999,2 0.70001,1.6 0.79999,0.4 0.70001,0 0.79999,-0.6 0.70001,-0.9 0.79999,-1.4 0.70001,-0.5 0.79999,-1.4 0.70001,-0.7 0.79999,0 0.70001,-0.8 0.7,-0.3 0.8,0.8 0.7,0.4 0.8,-0.3 0.7,0 0.8,-0.9 0.7,-1.5 0.8,-0.9 0.7,-1.7 0.8,-0.9 0.7,-1.2 0.8,-1.3 0.7,-1 0.8,-0.4 0.7,-0.1 0.8,-0.6 0.7,0.7 0.8,-0.1 0.7,0.1 0.8,-0.6 0.7,0.4 0.7,0 0.8,0.6 0.7,0.1 0.8,0.4 0.7,1.1 0.8,1 0.7,1.2 0.8,0.9 0.7,0 0.8,0.7 0.7,-0.6 0.8,-1.1 0.7,-1.5 0.8,-1.8 0.7,-2 0.8,-1.8 0.7,-2.3 0.8,-2.1 0.7,-0.7 0.8,-0.7 0.7,-0.5 0.7,-0.1 0.8,0.1 0.7,0.5 0.8,0.9 0.7,1.1 0.8,0.5 0.7,0.7 0.8,0.8 0.7,0.9 0.8,1.2 0.7,0.7 0.8,0.9 0.7,1.7 0.8,1.1 0.7,0.7 0.8,2.6 0.7,1.2 0.8,1.2 0.7,0.8 0.8,0.5 0.7,-0.6 0.7,-0.6 0.8,-0.5 0.7,-1.6 0.8,-2 0.7,-2.6 0.8,-2.6 0.7,-2 0.8,-2.1 0.7,-2.1 0.8,0.1 0.7,-0.8 0.8,-0.1 0.7,1 0.8,1.1 0.7,1.7 0.8,1.3 0.7,0.9 0.8,0.3 0.7,-0.3 0.8,-0.4 0.7,-1.2 0.7,-1.4 0.8,-1.3 0.7,-1.1 0.8,-0.7 0.7,0.1 0.8,-0.7 0.7,1.1 0.8,0.7 0.7,1.5 0.8,0.9 0.7,0.8 0.8,1.3 0.7,0.9 0.8,0.1 0.7,0 0.8,0 0.7,0.4 0.8,0.1 0.7,0.8 0.7,1.2 0.8,1.4 0.7,1.7 0.8,2.6 0.7,1.5 0.8,1.9 0.7,1 0.8,1 0.7,0 0.8,-1.1 0.7,-1.3 0.8,-1.9 0.7,-2.2 0.8,-2.4 0.7,-2.1 0.8,-2.3 0.7,-2.4 0.8,-2.1 0.7,-2.3 0.8,-2.1 0.7,-1.3 0.7,-1.1 0.8,-0.6 0.7,-0.5 0.8,0.4 0.7,0.9 0.8,1.2 0.7,1.7 0.8,1.7 0.7,1.5 0.8,1.4 0.7,1.5 0.8,1.1 0.7,0.7 0.8,1.1 0.7,0.1 0.8,-0.2 0.7,-0.8 0.8,-0.8 0.7,-1.3 0.8,-1.3 0.7,-1.4 0.7,-1.3 0.8,-1.8 0.7,-1 0.8,-0.4 0.7,-0.4 0.8,0.3 0.7,-0.6 0.8,0.7 0.7,0.1 0.8,-0.2 0.7,0.5 0.8,0.7 0.7,0.4 0.8,0.7 0.7,0.6 0.8,1.6 0.7,-0.3 0.8,2.1 0.7,2.4 0.8,1.5 0.7,1.7 0.7,1.6 0.8,1.7 0.7,1.7 0.8,0.7 0.7,0.6 0.8,0 0.7,-1 0.8,-1.7 0.7,-1.2 0.8,-1.2 0.7,-0.6 0.8,-1 0.7,1.8 0.8,-0.1 0.7,1.4 0.8,1.7 0.7,2 0.8,1.5 0.7,0.2 0.8,0.3 0.7,-1 0.7,-1.3 0.8,-2 0.7,-1.4 0.8,-2.2 0.7,-2.3 0.8,-1 0.7,-1.6 0.8,-0.4 0.7,-0.8 0.8,-0.1 0.7,-0.4 0.8,0.5 0.7,-0.5 0.8,-0.4 0.7,-0.9 0.8,-1.1 0.7,-0.9 0.8,-1.2 0.7,-1.1 0.7,-1.9 0.8,-1.2 0.7,-1.3 0.8,-1.7 0.7,-1.1 0.8,-1 0.7,-1.3 0.8,-0.4 0.7,0.1 0.8,-0.7 0.7,0.5 0.8,1 0.7,1.7 0.8,1.2 0.7,1.6 0.8,1.6 0.7,1.1 0.8,1 0.7,0.8 0.8,0 0.7,-0.5 0.7,-0.1 0.8,-0.9 0.7,-0.3 0.8,-0.8 0.7,-0.2 0.8,0.8 0.7,0.7 0.8,1 0.7,1.1 0.8,1.3 0.7,1.2 0.8,0.2 0.7,0.9 0.8,-0.1 0.7,-0.2 0.8,-0.2 0.7,0 0.8,-1.1 0.7,1.1 0.8,1.3 0.7,2.3 0.7,2.4 0.8,2.8 0.7,2.7 0.8,2.4 0.7,2.2 0.8,0.9 0.7,-0.1 0.8,0 0.7,-2.2 0.8,-2.4 0.7,-3.4 0.8,-2.2 0.7,-1.4 0.8,-0.7 0.7,-1 0.8,0.2 0.7,0.3 0.8,0.8 0.7,1.2 0.8,1.2 0.7,-0.2 0.7,-0.8 0.8,-1.7 0.7,-1.4 0.8,-2.6 0.7,-2.1 0.8,-1.7 0.7,-1.2 0.8,-1.7 0.7,-1.1 0.8,0.7 0.7,1.2 0.8,1.2 0.7,1.4 0.8,1.5 0.7,0.9 0.8,1.3 0.7,1.1 0.8,1 0.7,1 0.8,0.9 0.7,1.1 0.7,1.1 0.8,1.2 0.7,1 0.8,1.6 0.7,0.3 0.8,-0.5 0.7,-0.6 0.8,-1.5 0.7,-1.3 0.8,-2.4 0.7,-1.9 0.8,-1.1 0.7,-1.2 0.8,-0.4 0.7,-0.1 0.8,0.1 0.7,0.6 0.8,0.9 0.7,0.5 0.7,0.1 0.8,-1 0.7,-0.5 0.8,-0.8 0.7,-1.4 0.8,-1.1 0.7,-1.1 0.8,-0.5 0.7,-0.4 0.8,-0.8 0.7,0.2 0.8,-0.2 0.7,0.1 0.8,-0.7 0.7,-1 0.8,-1.8 0.7,-1.8 0.8,-1.6 0.7,-1.1 0.8,-2.1 0.7,-0.3 0.7,1.3 0.8,1.3 0.7,2.5 0.8,3.6 0.7,3.9 0.8,4 0.7,3.8 0.8,2.8 0.7,2.4 0.8,1.7 0.7,0.7 0.8,-0.3 0.7,-1 0.8,-1.1 0.7,-1.3 0.8,-0.1 0.7,-2 0.8,-1.8 0.7,-0.7 0.8,-1.5 0.7,-2.4 0.7,-1.8 0.8,-2.3 0.7,-1.9 0.8,-1.9 0.7,-2.5 0.8,-1 0.7,-0.4 0.8,0.6 0.7,0.9 0.8,1.9 0.7,1.9 0.8,1.8 0.7,2.1 0.8,1.7 0.7,1 0.8,1.1 0.7,0.5 0.8,-0.1 0.7,0.1 0.8,-0.9 0.7,-0.1 0.7,0.5 0.8,-0.5 0.7,0.6 0.8,0.4 0.7,0.3 0.8,-0.1 0.7,1.4 0.8,0.3 0.7,0.8 0.8,0.2 0.7,-0.2 0.8,-0.2 0.7,-0.3 0.8,-0.4 0.7,-0.3 0.8,-0.6 0.7,-0.3 0.8,0.2 0.7,0.7 0.8,0.5 0.7,0.8 0.7,2 0.8,1.4 0.7,0.4 0.8,0.8 0.7,0.1 0.8,0.1 0.7,0 0.8,-0.9 0.7,-0.6 0.8,-1.8 0.7,-1.5 0.8,-0.3 0.7,-1.3 0.8,-1.2 0.7,-0.6 0.8,-0.8 0.7,-0.6 0.8,-0.9 0.7,-1.4 0.7,-0.1 0.8,-0.2 0.7,-0.6 0.8,-0.9 0.7,-1.3 0.8,-0.8 0.7,-0.7 0.8,-0.3 0.7,-0.5 0.8,-1.8 0.7,-0.3 0.8,-0.1 0.7,0.1 0.8,-0.3 0.7,0.2 0.8,0.6 0.7,1.4 0.8,1.2 0.7,0.9 0.8,0.5 0.7,0.9 0.7,0.5 0.8,0 0.7,-0.5 0.8,-0.6 0.7,-1 0.8,-0.3 0.7,-2.1"
     id="path4857"
     inkscape:connector-curvature="0" />
  <path
     style="fill:none;stroke:#000000;stroke-width:2.49999996;stroke-miterlimit:4;stroke-dasharray:7.49999989,7.49999989;stroke-dashoffset:0"
     d="m 218.85418,2304.6655 3.69999,0 3.80001,0 3.69999,0 3.7,0 3.8,0 3.7,0 3.8,0 3.7,0 3.7,0 3.8,-27.6999 3.7,-33 3.8,-26.4 3.7,-21.7 3.7,-18.4 3.8,-16.2 3.7,-12.9 3.7,-9.6 3.8,-7.7 3.7,-5.9 3.8,-5.2 3.7,-3.5 3.7,-3.3 3.8,-2.2 3.7,-2.4 3.7,-2.6 3.8,-3.1 3.7,-4.4 3.8,-5.1 3.7,-3.4 3.7,-5.3 3.8,-8.1 3.7,-9.1 3.7,-10.9 3.8,-13.7 3.7,-16.2 3.8,-17.2 3.7,-18.7 3.7,-19.6 3.8,-18 3.7,-16.4 3.8,-14.4 3.7,-10.8 3.7,-7.1 3.8,-6 3.7,-3.3 3.7,-2.5 3.8,-0.7 3.7,0 3.8,-1.1 3.7,-1.8 3.7,-1.1 3.8,-1.4 3.7,-1.9 3.7,-1.4 3.8,-0.9 3.7,-0.9 3.8,-0.2 3.7,0.8 3.7,0.5 3.8,1 3.7,1.8 3.7,1.4 3.8,1.6 3.7,0.4 3.8,1.4 3.7,0.4 3.7,-0.6 3.8,-1.2 3.7,-0.3 3.7,-0.9 3.8,-0.7 3.7,-0.2 3.8,-0.5 3.7,0.4 3.7,0.5 3.8,0.2 3.7,-0.2 3.8,0.5 3.7,-0.7 3.7,-1.5 3.8,-0.3 3.7,-1.9 3.7,-0.7 3.8,-0.4 3.7,0.1 3.8,-0.1 3.7,0.5 3.7,1 3.8,0.9 3.7,1.1 3.7,0.4 3.8,0.7 3.7,0.9 3.8,0.6 3.7,0.5 3.7,0.9 3.8,1 3.7,0.4 3.7,0.6 3.8,0.5 3.7,0 3.8,-0.7 3.7,-0.5 3.7,-1.3 3.8,-1.8 3.7,-2.1 3.70001,-1.8 3.79999,-1.7 3.70001,-1.6 3.79999,-0.9 3.70001,-0.6 3.7,-0.8 3.8,0.7 3.7,1.8 3.8,1.8 3.7,1.5 3.7,1.2 3.8,1.2 3.7,0.2 3.7,-0.7 3.8,-1 3.7,-1.9 3.8,-2.6 3.7,-2.7 3.7,-1.4 3.8,-1.2 3.7,-0.8 3.7,1.1 3.8,2.2 3.7,1.6 3.8,2.2 3.7,2.6 3.7,1.9 3.8,0.4 3.7,-0.2 3.7,-0.4 3.8,-1.3 3.7,-2 3.8,-1.8 3.7,-2.3 3.7,-1.8 3.8,-1.8 3.7,-0.8 3.8,0.2 3.7,-0.3 3.7,-0.2 3.8,0.1 3.7,1.1 3.7,0.7 3.8,1.1 3.7,1.4 3.8,1.4 3.7,1.1 3.7,0.8 3.8,1.1 3.7,0.3 3.7,0.4 3.8,-0.5 3.7,-1.2 3.8,-1.8 3.7,-1.7 3.7,-1.7 3.8,-1.8 3.7,-0.8 3.7,-1.7 3.8,0.3 3.7,1.3 3.8,1.5 3.7,1.9 3.7,2.6 3.8,3.2 3.7,2.6 3.7,3.2 3.8,2 3.7,2.1 3.8,1.5 3.7,1.6 3.7,0.9 3.8,-0.2 3.7,0.2 3.8,-0.4 3.7,-0.4 3.7,-1.1 3.8,-1.7 3.7,-2.1 3.7,-2.5 3.8,-2.6 3.7,-3.2 3.8,-2.5 3.7,-3.2 3.7,-2.9 3.8,-2.7 3.7,-2.2 3.7,-2.2 3.8,-1.8 3.7,-0.7 3.8,-1.1 3.7,-1.1 3.7,-1.1"
     id="path4855"
     inkscape:connector-curvature="0" />
  <path
     style="fill:none;stroke:#ff0000;stroke-width:2.5;stroke-miterlimit:4;stroke-dasharray:none"
     d="m 215.86737,2304.2174 0.8,0 0.7,0 0.7,0 0.8,0 0.7,0 0.8,0 0.7,0 0.8,0 0.7,0 0.8,0 0.7,0 0.8,0 0.7,0 0.8,0 0.7,0 0.8,0 0.7,0 0.8,0 0.7,0 0.8,0 0.7,0 0.8,0 0.7,0 0.7,0 0.8,-19.4 0.7,-20.1 0.8,-16.3 0.7,-14.8 0.8,-12.7 0.7,-11.1 0.8,-8.8 0.7,-7.4 0.8,-5.7 0.7,-4.7 0.8,-3.6 0.7,-2.3 0.8,-1.6 0.7,0.7 0.8,-0.2 0.7,-1.7 0.8,-2.1 0.7,-3.5 0.8,-4 0.7,-6.7 0.7,-7.8 0.8,-9.3 0.7,-9.8 0.8,-10.3 0.7,-10.3 0.8,-10.9 0.7,-9.9 0.8,-8.7 0.7,-9 0.8,-7.2 0.7,-7.5 0.8,-5.2 0.7,-5.1 0.8,-3.7 0.7,-2.4 0.8,-2.7 0.7,-1.3 0.8,-0.3 0.7,-0.1 0.8,-0.2 0.7,-1.2 0.7,-0.8 0.8,-1.4 0.7,-2.8 0.8,-3.7 0.7,-3 0.8,-5.6 0.7,-3.8 0.8,-3.7999 0.7,-2.5 0.8,-1.8 0.7,-0.3 0.8,1 0.7,1.2 0.8,2.2 0.7,2.2999 0.8,2.1 0.7,0.9 0.8,-1.2 0.7,-0.7 0.8,-2.3 0.7,-3.1999 0.7,-4.5 0.8,-3.2 0.7,-4 0.8,-3.8 0.7,-2.5 0.8,-2.2 0.7,-1.2 0.8,-0.9 0.7,-0.2 0.8,-0.8 0.7,-0.1 0.8,-0.5 0.7,-0.2 0.8,0 0.7,-1.4 0.8,-0.7 0.7,0.7 0.8,0.5 0.7,2 0.8,2 0.7,2.5 0.7,2.1 0.8,0.7 0.7,0.1 0.8,-1.2 0.7,-3.5 0.8,-4.9 0.7,-6.2 0.8,-8 0.7,-7.6 0.8,-7.7 0.7,-6.7 0.8,-4.8 0.7,-4.8 0.8,-3.9 0.7,-3.9 0.8,-3.4 0.7,-3.3 0.8,-3.2 0.7,-4.2 0.7,-5 0.8,-4.7 0.7,-4 0.8,-4 0.7,-3.1 0.8,-2.2 0.7,-2 0.8,-0.6 0.7,-0.6 0.8,-0.6 0.7,0.8 0.8,1.3 0.7,1.3 0.8,1.3 0.7,1.6 0.8,2.2 0.7,3.3 0.8,2.7 0.7,2.7 0.8,1.7 0.7,2.4 0.7,1.9 0.8,1.6 0.7,2.1 0.8,2 0.7,1.7 0.8,1.9 0.7,0.6 0.8,1.2 0.7,0.5 0.8,0.4 0.7,-1 0.8,-2.1 0.7,-2.3 0.8,-3.3 0.7,-3.8 0.8,-3.1 0.7,-3.8 0.8,-2.4 0.7,-1.7 0.8,-2.6 0.7,-2.4 0.7,-0.8 0.8,-1.2 0.7,-0.8 0.8,-1.8 0.7,-1.1 0.8,-1.9 0.7,-0.8 0.8,-0.9 0.7,-0.2 0.8,2.4 0.7,3.1 0.8,3.1 0.7,5.1 0.8,4.2 0.7,4 0.8,3.7 0.7,3 0.8,0.2 0.7,-0.4 0.8,-1 0.7,-2.3 0.7,-2.8 0.8,-1.7 0.7,-1.6 0.8,-0.4 0.7,-0.3 0.8,-0.8 0.7,-0.6 0.8,-0.6 0.7,-1.3 0.8,-1.3 0.7,-1.7 0.8,-3.1 0.7,-3.4 0.8,-2 0.7,-2.3 0.8,-2.1 0.7,-1.1 0.8,-0.8 0.7,-1.4 0.8,-0.6 0.7,-1 0.7,-0.4 0.8,-0.2 0.7,0.5 0.8,0.4 0.7,0.4 0.8,1.3 0.7,2.1 0.8,2.4 0.7,3.1 0.8,2.2 0.7,2.1 0.8,2.7 0.7,2.4 0.8,2.5 0.7,2.4 0.8,1.8 0.7,2.2 0.8,2.7 0.7,2 0.7,0.9 0.8,0.2 0.7,-0.1 0.8,-0.9 0.7,-1.7 0.8,-1.9 0.7,-3.8 0.8,-2.4 0.7,-1.8 0.8,-2.4 0.7,-0.8 0.8,-1.6 0.7,-0.4 0.8,0.2 0.7,-0.1 0.8,-0.3 0.7,-0.1 0.8,-0.1 0.7,-0.1 0.8,-1.8 0.7,-1.5 0.7,-1.1 0.8,-1.9 0.7,-0.7 0.8,-2.2 0.7,-2 0.8,-0.2 0.7,-0.5 0.8,0.4 0.7,0.5 0.8,0.2 0.7,0.9 0.8,0.7 0.7,-0.1 0.8,0.8 0.7,-1.1 0.8,0.8 0.7,-0.8 0.8,-0.6 0.7,0.2 0.8,0.3 0.7,0.5 0.7,0.5 0.8,0.2 0.7,0.1 0.8,0.9 0.7,-0.8 0.8,0.2 0.7,-0.1 0.8,-0.1 0.7,1.2 0.8,1.3 0.7,3.5 0.8,2.2 0.7,3.5 0.8,4.1 0.7,2.8 0.8,2.7 0.7,2.2 0.8,0.8 0.7,-0.9 0.8,-1.9 0.7,-2.5 0.7,-2.3 0.8,-2.8 0.7,-2.4 0.8,-1.8 0.7,-2.5 0.8,-2 0.7,-1.9 0.8,-1.5 0.7,-2 0.8,-2.4 0.7,-2.6 0.8,-3.3 0.7,-3.5 0.8,-2.4 0.7,-1.3 0.8,-0.1 0.7,-0.7 0.8,0.1 0.7,0.9 0.8,1 0.7,1.4 0.7,0.4 0.8,-0.1 0.7,-0.3 0.8,-1.3 0.7,-2.1 0.8,-1.8 0.7,-1.7 0.8,-1.3 0.7,-0.7 0.8,-1 0.7,-0.6 0.8,0.7 0.7,1.2 0.8,1.6 0.7,1.7 0.8,2.5 0.7,3.1 0.8,4.1 0.7,3 0.7,2.8 0.8,3 0.7,2.4 0.8,1.5 0.7,0.5 0.8,-0.5 0.7,-1.4 0.8,-1.3 0.7,-2.2 0.8,-2.7 0.7,-1.5 0.8,-1.7 0.7,-1.4 0.8,-1.7 0.7,-1.5 0.8,-1.2 0.7,-1.2 0.8,-1.4 0.7,-0.8 0.8,-1 0.7,-0.8 0.7,0.5 0.8,0.2 0.7,1.6 0.8,1 0.7,1.4 0.8,1.8 0.7,1 0.8,0.3 0.7,-0.3 0.8,0 0.7,-1.8 0.8,-1.7 0.7,-2 0.8,-3.2 0.7,-2.8 0.8,-2.8 0.7,-3 0.8,-2.1 0.7,-1.5 0.8,-1.5 0.7,-0.8 0.7,0.8 0.8,0.3 0.7,1.9 0.8,2.7 0.7,2.6 0.8,2.6 0.7,2.1 0.8,1.4 0.7,1.3 0.8,1 0.7,-0.7 0.8,-0.6 0.7,-1.1 0.8,-2 0.7,-1.5 0.8,-0.9 0.7,-0.1 0.8,-0.4 0.7,0.6 0.8,0.4 0.7,0.8 0.7,0 0.8,-0.1 0.7,0.4 0.8,-0.3 0.7,0.5 0.8,1 0.7,1.6 0.8,2.2 0.7,3.3 0.8,3.7 0.7,4.2 0.8,4.1 0.7,4.2 0.8,3.2 0.7,1.9 0.8,0.3 0.7,-0.3 0.8,0.1 0.7,-1 0.8,-1.8 0.7,-2.1 0.7,-3.2 0.8,-3.2 0.7,-3.1 0.8,-3.3 0.7,-3.1 0.8,-3.1 0.7,-3.2 0.8,-3.7 0.7,-2.9 0.8,-2.6 0.7,-1.6 0.8,-0.6 0.7,-1.5 0.8,-2.7 0.7,-1.5 0.8,0 0.7,0.6 0.8,1.3 0.7,1.7 0.7,3.1 0.8,3.6 0.7,3.7 0.8,4.3 0.7,3.7 0.8,3 0.7,0.7 0.8,0.3 0.7,-1.5 0.8,-2.3 0.7,-1.8 0.8,-1.6 0.7,-1.9 0.8,-1.3 0.7,-1 0.8,1.1 0.7,1.1 0.8,-0.2 0.7,0.2 0.8,-0.7 0.7,-1.7 0.7,-2.7 0.8,-3 0.7,-2.8 0.8,-4.4 0.7,-2.9 0.8,-2.5 0.7,-2.2 0.8,-0.6 0.7,-0.3 0.8,-0.1 0.7,1.7 0.8,0.3 0.7,1.1 0.8,1.8 0.7,0.9 0.8,1.2 0.7,1.8 0.8,1.1 0.7,0.7 0.8,0.6 0.7,0.9 0.7,0.2 0.8,0.8 0.7,0.9 0.8,-0.3 0.7,1 0.8,0.9 0.7,-0.2 0.8,2.1 0.7,0.9 0.8,1 0.7,0.3 0.8,0.7 0.7,-1 0.8,-0.2 0.7,-0.2 0.8,-1.1 0.7,-1.2 0.8,-1.2 0.7,-1.4 0.8,-1.1 0.7,-0.2 0.7,-1.4 0.8,-0.3 0.7,0.9 0.8,-0.1 0.7,1.1 0.8,0.1 0.7,0.9 0.8,-0.1 0.7,-0.1 0.8,-1.3 0.7,-2.4 0.8,-2.6 0.7,-2.5 0.8,-2.5 0.7,-1.5 0.8,-1.1 0.7,0.1 0.8,1.5 0.7,2.2 0.8,3 0.7,3.1 0.7,4 0.8,3.2 0.7,2.1 0.8,1.7 0.7,2.5 0.8,1.7 0.7,2 0.8,0.2 0.7,0.9 0.8,0 0.7,-0.3 0.8,-1.4 0.7,-1.9 0.8,-3.2 0.7,-3.5 0.8,-3.9 0.7,-4.3 0.8,-3.8 0.7,-2.3 0.7,-1.5 0.8,-0.7 0.7,-0.9 0.8,1.4 0.7,2.7 0.8,2.6 0.7,1.3 0.8,2.1 0.7,1.6 0.8,1.5 0.7,0.7 0.8,-0.4 0.7,-0.9 0.8,-0.9 0.7,-0.9 0.8,-1.4 0.7,-0.2 0.8,-0.7 0.7,0.1 0.8,1.2 0.7,-0.2 0.7,0.4 0.8,0.9 0.7,1.2 0.8,-0.4 0.7,0.1 0.8,-0.6 0.7,-1.1 0.8,-0.4 0.7,-1.6 0.8,-1.4 0.7,-1.1 0.8,-1.8 0.7,-1.5 0.8,-1.2 0.7,-1.1 0.8,-1 0.7,0.3 0.8,0 0.7,0.9 0.8,-0.2 0.7,1.4 0.7,1.1 0.8,1.2 0.7,0.7 0.8,0.4 0.7,0.9 0.8,0.3 0.7,0.1 0.8,-0.2 0.7,-1.1 0.8,-0.5 0.7,-1.3 0.8,-2.2 0.7,-1.9 0.8,-2.6 0.7,-2.4 0.8,-2.3 0.7,-2.6 0.8,-2.8 0.7,-1 0.8,-1.6 0.7,-0.5 0.7,-0.1 0.8,0.2 0.7,0.2 0.8,1.2 0.7,1.3 0.8,0.8 0.7,0.5 0.8,0.4 0.7,0 0.8,0.9 0.7,0.3 0.8,0.8 0.7,1.9 0.8,1.8 0.7,1.7 0.8,3.7 0.7,2.4 0.8,2.2 0.7,2.4 0.8,1.4 0.7,-0.2 0.7,0 0.8,-0.5 0.7,-1.1 0.8,-1.4 0.7,-1.7 0.8,-2 0.7,-1.1 0.8,-1.2 0.7,-2.3 0.8,-0.2 0.7,-1.4 0.8,-1.4 0.7,-0.9 0.8,-1.1 0.7,-1.2 0.8,-0.5 0.7,-1 0.8,-1.1 0.7,-0.5 0.8,-0.4 0.7,-0.4 0.7,-0.5 0.8,0.2 0.7,0.2 0.8,0.4 0.7,1 0.8,-0.4 0.7,1.3 0.8,0.2 0.7,1.4 0.8,0.6 0.7,0.1 0.8,0.5 0.7,0.4 0.8,-0.1 0.7,-0.2 0.8,0 0.7,0.1 0.8,0.5 0.7,1.1 0.7,1.7 0.8,2.5 0.7,3.1 0.8,3.6 0.7,2.1 0.8,2.8 0.7,1.3 0.8,1.5 0.7,0.5 0.8,-1.3 0.7,-0.9 0.8,-1.8 0.7,-1.7 0.8,-1.7 0.7,-1.1 0.8,-1.7 0.7,-1.7 0.8,-1.9 0.7,-2.9 0.8,-3 0.7,-3 0.7,-3.1 0.8,-3.1 0.7,-3.3 0.8,-1.7 0.7,-1.3 0.8,-0.6 0.7,0 0.8,0.6 0.7,1.2 0.8,1.1 0.7,1.5 0.8,0.9 0.7,0.5 0.8,1.5 0.7,0.7 0.8,0.6 0.7,0.2 0.8,0.5 0.7,0.3 0.8,0.2 0.7,-0.2 0.7,0.1 0.8,-1 0.7,-0.7 0.8,-0.6 0.7,-1.2 0.8,-0.1 0.7,-1.7 0.8,-0.2 0.7,-0.3 0.8,-1.1 0.7,-0.1 0.8,0.2 0.7,0.2 0.8,0.3 0.7,-0.2 0.8,0.9 0.7,-1.4 0.8,1.1 0.7,2 0.8,1.4 0.7,1.9 0.7,2.2 0.8,2.6 0.7,3.8 0.8,2.6 0.7,2.4 0.8,2.2 0.7,0.9 0.8,-0.4 0.7,-0.6 0.8,-0.6 0.7,-0.1 0.8,-1.1 0.7,1.7 0.8,-0.3 0.7,0.7 0.8,1.5 0.7,1.7 0.8,1.1 0.7,-0.6 0.8,-1 0.7,-1.8 0.7,-3.1 0.8,-3.8 0.7,-3.6 0.8,-4.5 0.7,-4.7 0.8,-4.4 0.7,-4.5 0.8,-3.2 0.7,-3.4 0.8,-2.1 0.7,-1.7 0.8,-0.3 0.7,-0.1 0.8,1.3 0.7,1.5 0.8,1.6 0.7,1.5 0.8,1.5 0.7,0.7 0.7,-0.7 0.8,-1.1 0.7,-2.3 0.8,-2.9 0.7,-3.3 0.8,-3.3 0.7,-3.6 0.8,-2.4 0.7,-0.9 0.8,-1.6 0.7,0.3 0.8,0.6 0.7,2.1 0.8,2 0.7,2.2 0.8,2.1 0.7,2 0.8,1.3 0.7,1.9 0.8,0.5 0.7,0.2 0.7,0.8 0.8,0.5 0.7,1.2 0.8,0.8 0.7,0.7 0.8,2.4 0.7,1.4 0.8,1.6 0.7,1.1 0.8,0.9 0.7,0.7 0.8,-0.3 0.7,0.2 0.8,-0.5 0.7,-1 0.8,0 0.7,0 0.8,-0.7 0.7,1.1 0.8,1 0.7,2.2 0.7,2.4 0.8,1.9 0.7,2.3 0.8,2.2 0.7,1.9 0.8,1.1 0.7,0 0.8,-0.1 0.7,-2 0.8,-1.9 0.7,-3 0.8,-2.5 0.7,-1.6 0.8,-0.8 0.7,-1.2 0.8,0.1 0.7,-0.2 0.8,1 0.7,1.7 0.8,2.1 0.7,0.5 0.7,0.5 0.8,-0.5 0.7,-0.6 0.8,-1.2 0.7,-1.2 0.8,-1.6 0.7,-1.7 0.8,-2.3 0.7,-2.2 0.8,-1 0.7,-0.3 0.8,-0.1 0.7,1 0.8,0.5 0.7,0.7 0.8,1 0.7,1.6 0.8,1 0.7,0.8 0.8,0.5 0.7,-0.2 0.7,-0.4 0.8,0 0.7,-0.5 0.8,0 0.7,-1.1 0.8,-1 0.7,-0.4 0.8,-1 0.7,-0.4 0.8,-0.7 0.7,-0.3 0.8,0.9 0.7,0.4 0.8,1.1 0.7,1.4 0.8,0.7 0.7,1.1 0.8,0.9 0.7,0.2 0.7,-0.1 0.8,-1.5 0.7,-0.7 0.8,-0.9 0.7,-1.2 0.8,-0.7 0.7,-0.4 0.8,-0.1 0.7,0.3 0.8,-0.4 0.7,0.8 0.8,0.1 0.7,0.1 0.8,-1 0.7,-2 0.8,-2.5 0.7,-2.7 0.8,-2.7 0.7,-2.5 0.8,-3.7 0.7,-2 0.7,-0.3 0.8,0.2 0.7,1.4 0.8,3.2 0.7,3.8 0.8,4.1 0.7,4.2 0.8,3.8 0.7,3.3 0.8,3 0.7,1.8 0.8,0.4 0.7,0.3 0.8,0.1 0.7,-0.2 0.8,0.6 0.7,-1.2 0.8,-1.2 0.7,-0.3 0.8,-1.3 0.7,-2.9 0.7,-2.2 0.8,-3 0.7,-2.8 0.8,-2.3 0.7,-2.6 0.8,-0.6 0.7,0.2 0.8,1.6 0.7,1.3 0.8,3.1 0.7,2.8 0.8,1.9 0.7,2.2 0.8,0.2 0.7,-0.4 0.8,-1.3 0.7,-1.6 0.8,-2.2 0.7,-1.7 0.8,-2.7 0.7,-1.7 0.7,-0.2 0.8,-0.8 0.7,0.7 0.8,0.8 0.7,1.2 0.8,1 0.7,2.8 0.8,1.6 0.7,1.8 0.8,2 0.7,1.3 0.8,1.4 0.7,1.4 0.8,0.6 0.7,0.9 0.8,0.3 0.7,0.3 0.8,0.1 0.7,0.8 0.8,0.2 0.7,-0.3 0.7,0.1 0.8,-0.9 0.7,-1.5 0.8,-0.5 0.7,-1.7 0.8,-1.5 0.7,-0.6 0.8,-0.9 0.7,-0.6 0.8,-0.9 0.7,-0.8 0.8,1 0.7,-0.3 0.8,-0.3 0.7,-0.4 0.8,-0.3 0.7,0.4 0.8,-0.5 0.7,-0.9 0.7,0.3 0.8,0.4 0.7,1.2 0.8,0.5 0.7,-0.4 0.8,0.3 0.7,0.6 0.8,1 0.7,0.6 0.8,-1.6 0.7,-0.8 0.8,-1.1 0.7,-1.3 0.8,-2.5 0.7,-2.8 0.8,-2.3 0.7,-1.7 0.8,-2.4 0.7,-2.6 0.8,-2.9 0.7,-1.7 0.7,-1.5 0.8,-1.8 0.7,-2.2 0.8,-2.5 0.7,-2.4 0.8,-1.7 0.7,-2.9"
     id="path4904"
     inkscape:connector-curvature="0" />
  <path
     style="fill:none;stroke:#ff0000;stroke-width:2.49999996;stroke-miterlimit:4;stroke-dasharray:7.49999989,7.49999989;stroke-dashoffset:0"
     d="m 218.86737,2304.2174 3.7,0 3.8,0 3.7,0 3.7,0 3.8,0 3.7,0 3.8,0 3.7,0 3.7,-35.5 3.8,-41.6 3.7,-30.2 3.8,-23.3 3.7,-17.3 3.7,-13.8 3.8,-11.4 3.7,-9.3 3.7,-7.9 3.8,-8 3.7,-7.7 3.8,-9.5 3.7,-10 3.7,-11.1 3.8,-10.7 3.7,-11 3.7,-10.5 3.8,-9.6 3.7,-9.1 3.8,-7.7999 3.7,-5.1 3.7,-6.2 3.8,-5.6 3.7,-5 3.7,-5 3.8,-4.8 3.7,-5.1 3.8,-4.1 3.7,-3 3.7,-1.9 3.8,0.5 3.7,1.7 3.8,2.8 3.7,4.5 3.7,6.2 3.8,4.5 3.7,4.6 3.7,3.5 3.8,3.1 3.7,0.7 3.8,-1.4 3.7,-2.7 3.7,-3.2 3.8,-3.8 3.7,-4.5 3.7,-4.3 3.8,-3.9 3.7,-3.6 3.8,-1.9 3.7,-1.1 3.7,-1 3.8,-0.5 3.7,0.3 3.7,0.2 3.8,0.2 3.7,-1 3.8,-0.2 3.7,-1 3.7,-1.5 3.8,-2.3 3.7,-1.4 3.7,-1.6 3.8,-1.5 3.7,-1.3 3.8,-1.7 3.7,-1.4 3.7,-1.3 3.8,-1.6 3.7,-1.4 3.8,-1.1 3.7,-2.4 3.7,-2.3 3.8,-0.7 3.7,-1.4 3.7,-0.5 3.8,0.3 3.7,0.9 3.8,0.5 3.7,0.9 3.7,0.8 3.8,0.4 3.7,0 3.7,-1.3 3.8,-0.9 3.7,-1.5 3.8,-2 3.7,-1 3.7,-0.4 3.8,-0.5 3.7,0 3.7,0.4 3.8,0.5 3.7,0.1 3.8,-0.7 3.7,-0.9 3.7,-1.9 3.8,-2.2 3.7,-2.8 3.7,-2.6 3.8,-2.4 3.7,-2.4 3.8,-1.1 3.7,-1.3 3.7,-1.3 3.8,0.3 3.7,0.9 3.8,0.7 3.7,0.8 3.7,0.8 3.8,0.8 3.7,0 3.7,-0.7 3.8,-0.9 3.7,-1.5 3.8,-1.6 3.7,-1.6 3.7,-1.1 3.8,-0.7 3.7,-0.2 3.7,2.2 3.8,2.8 3.7,2.4 3.8,3 3.7,3.5 3.7,2 3.8,0.7 3.7,-0.6 3.7,-1.1 3.8,-2.4 3.7,-3.6 3.8,-4.2 3.7,-4.6 3.7,-3.7 3.8,-3.6 3.7,-3.2 3.8,-1.5 3.7,-1.5 3.7,-1.1 3.8,-0.5 3.7,0.3 3.7,-0.1 3.8,0.8 3.7,0.4 3.8,1.1 3.7,0.6 3.7,0.3 3.8,0.9 3.7,0.5 3.7,1.1 3.8,0.4 3.7,0.2 3.8,0.3 3.7,-0.4 3.7,-0.1 3.8,-0.3 3.7,0.2 3.7,-0.8 3.8,0.5 3.7,1.2 3.8,1.3 3.7,1.4 3.7,1.7 3.8,2.2 3.7,1.7 3.7,2.2 3.8,0.8 3.7,0.6 3.8,0.5 3.7,0.1 3.7,-0.6 3.8,-1.7 3.7,-1.2 3.8,-1.6 3.7,-1 3.7,-1.6 3.8,-1.9 3.7,-1.7 3.7,-1.9 3.8,-1 3.7,-1.7 3.8,-1.3 3.7,-1.6 3.7,-2 3.8,-1.9 3.7,-2.2 3.7,-2.6 3.8,-2.4 3.7,-1.6 3.8,-2.3 3.7,-2.7 3.7,-3.2"
     id="path72"
     inkscape:connector-curvature="0" />
  <path
     style="opacity:1;fill:none;fill-opacity:1;fill-rule:nonzero;stroke:#000000;stroke-width:2.49999996;stroke-linecap:butt;stroke-linejoin:miter;stroke-miterlimit:4;stroke-dasharray:2.49999996,2.49999996;stroke-dashoffset:0;stroke-opacity:1"
     d="m 363.75157,1583.9987 0,690.7478"
     id="path5057"
     inkscape:connector-curvature="0" />
  <text
     xml:space="preserve"
     style="color:#000000;font-style:normal;font-variant:normal;font-weight:normal;font-stretch:normal;font-size:37.5px;line-height:100%;font-family:Arial;-inkscape-font-specification:Arial;text-indent:0;text-align:start;text-decoration:none;text-decoration-line:none;letter-spacing:0px;word-spacing:0px;text-transform:none;direction:ltr;block-progression:tb;writing-mode:lr-tb;text-anchor:start;display:inline;overflow:visible;visibility:visible;fill:#000000;fill-opacity:1;fill-rule:nonzero;stroke:none;stroke-width:1px;stroke-linecap:butt;stroke-linejoin:miter;stroke-opacity:1;marker:none;enable-background:accumulate"
     x="369.23575"
     y="2222.782"
     id="text5059"
     sodipodi:linespacing="100%"><tspan
       sodipodi:role="line"
       id="tspan5061"
       x="369.23575"
       y="2222.782">TEO top-down</tspan><tspan
       sodipodi:role="line"
       x="369.23575"
       y="2260.282"
       id="tspan4376"> turn-on @ 200</tspan></text>
  <g
     id="layer1"
     inkscape:label="Layer 1"
     transform="matrix(2.5,0,0,2.5,-1.2525491,28.188173)">
    <g
       id="g4940"
       transform="matrix(0.40000001,0,0,0.40000001,1.7218354,-81.033728)">
      <text
         xml:space="preserve"
         style="color:#000000;font-style:normal;font-variant:normal;font-weight:normal;font-stretch:normal;font-size:37.5px;line-height:100%;font-family:Arial;-inkscape-font-specification:Arial;text-indent:0;text-align:start;text-decoration:none;text-decoration-line:none;letter-spacing:0px;word-spacing:0px;text-transform:none;direction:ltr;block-progression:tb;writing-mode:lr-tb;text-anchor:start;display:inline;overflow:visible;visibility:visible;fill:#000000;fill-opacity:1;fill-rule:nonzero;stroke:none;stroke-width:1px;stroke-linecap:butt;stroke-linejoin:miter;stroke-opacity:1;marker:none;enable-background:accumulate"
         x="832.57562"
         y="1861.0986"
         id="text4830-3"
         sodipodi:linespacing="100%"><tspan
           sodipodi:role="line"
           id="tspan4832-6"
           x="832.57562"
           y="1861.0986">test</tspan></text>
      <text
         xml:space="preserve"
         style="color:#000000;font-style:normal;font-variant:normal;font-weight:normal;font-stretch:normal;font-size:37.5px;line-height:100%;font-family:Arial;-inkscape-font-specification:Arial;text-indent:0;text-align:start;text-decoration:none;text-decoration-line:none;letter-spacing:0px;word-spacing:0px;text-transform:none;direction:ltr;block-progression:tb;writing-mode:lr-tb;text-anchor:start;display:inline;overflow:visible;visibility:visible;fill:#000000;fill-opacity:1;fill-rule:nonzero;stroke:none;stroke-width:1px;stroke-linecap:butt;stroke-linejoin:miter;stroke-opacity:1;marker:none;enable-background:accumulate"
         x="832.57562"
         y="1818.9769"
         id="text6242-1"
         sodipodi:linespacing="100%"><tspan
           sodipodi:role="line"
           id="tspan6244-5"
           x="832.57562"
           y="1818.9769">train</tspan></text>
      <path
         style="opacity:1;fill:none;fill-opacity:1;fill-rule:nonzero;stroke:#000000;stroke-width:2.5;stroke-linecap:butt;stroke-linejoin:miter;stroke-miterlimit:4;stroke-dasharray:none;stroke-dashoffset:0;stroke-opacity:1"
         d="m 819.13256,1810.0149 -34.95205,0"
         id="path4884"
         inkscape:connector-curvature="0" />
      <path
         inkscape:connector-curvature="0"
         id="path4886"
         d="m 819.13256,1847.6556 -34.95205,0"
         style="opacity:1;fill:none;fill-opacity:1;fill-rule:nonzero;stroke:#000000;stroke-width:2.5;stroke-linecap:butt;stroke-linejoin:miter;stroke-miterlimit:4;stroke-dasharray:7.49999989, 7.49999989;stroke-dashoffset:0;stroke-opacity:1" />
    </g>
  </g>
</svg>
