<?xml version="1.0" encoding="ISO-8859-1" standalone="yes"?>
<svg width="498.08" height="424.602">
  <defs> 
    <marker id="ArrowEnd" viewBox="0 0 10 10" refX="0" refY="5" 
     markerUnits="strokeWidth" 
     markerWidth="4" 
     markerHeight="3" 
     orient="auto"> 
        <path d="M 0 0 L 10 5 L 0 10 z" /> 
    </marker>
    <marker id="ArrowStart" viewBox="0 0 10 10" refX="10" refY="5" 
     markerUnits="strokeWidth" 
     markerWidth="4" 
     markerHeight="3" 
     orient="auto"> 
        <path d="M 10 0 L 0 5 L 10 10 z" /> 
    </marker> </defs>
<g>
<path style="stroke:none; fill-rule:evenodd; fill:#000000" d="M 41.7227 395.926L 46.5195 392.567C 47.7109 391.731 48.4063 390.715 48.7109 389.41C 49.043 387.93 48.7539 386.664 47.7735 385.258C 45.7617 382.391 42.9336 381.965 39.918 384.078L 33.6094 388.496L 44.3125 403.774L 46.2578 402.41L 41.7227 395.926zM 40.5195 394.207L 36.7617 388.844L 40.8242 385.996C 42.6875 384.692 44.5039 384.918 45.6797 386.594C 46.8516 388.27 46.4453 390.055 44.5859 391.36L 40.5195 394.207z"/>
<path style="stroke:none; fill-rule:evenodd; fill:#000000" d="M 54.0897 380.012C 51.0117 382.168 50.6875 385.676 53.2737 389.363C 55.8557 393.051 59.2427 393.957 62.3637 391.77C 65.4417 389.613 65.7887 386.09 63.2617 382.485C 60.6057 378.692 57.2537 377.789 54.0897 380.008L 54.0897 380.012zM 55.2427 381.613C 57.2107 380.235 59.5157 381.028 61.4217 383.746C 63.2267 386.321 63.1567 388.809 61.2307 390.16C 59.2847 391.524 56.9567 390.746 55.0937 388.09C 53.2457 385.449 53.2927 382.981 55.2387 381.613L 55.2427 381.613z"/>
<path style="stroke:none; fill-rule:evenodd; fill:#000000" d="M 71.6327 372.75C 70.1017 370.61 67.8247 370.391 65.2887 372.168C 62.7347 373.957 62.0037 376.438 63.4297 378.473C 64.6327 380.192 66.0857 380.391 69.1247 379.199L 71.0347 378.453C 72.4527 377.899 73.2457 378 73.8047 378.793C 74.5237 379.817 73.9807 381.231 72.4527 382.301C 71.5117 382.961 70.5237 383.246 69.7617 383.094C 69.2697 382.973 68.9257 382.746 68.2777 382.043L 66.4337 383.332C 68.2927 385.809 70.5707 386.024 73.4417 384.012C 76.2067 382.074 77.0117 379.481 75.5277 377.363C 74.3827 375.731 72.8317 375.477 70.2847 376.477L 68.3317 377.25C 66.6757 377.91 65.7427 377.875 65.1997 377.106C 64.4957 376.102 64.9417 374.821 66.3637 373.821C 67.7657 372.84 68.9457 372.918 69.7967 374.039L 71.6327 372.75z"/>
<path style="stroke:none; fill-rule:evenodd; fill:#000000" d="M 76.1327 365.09L 74.3317 366.352L 72.2187 363.336L 70.4807 364.555L 72.5937 367.571L 71.1097 368.613L 72.1057 370.035L 73.5897 368.992L 79.4027 377.289C 80.1797 378.399 81.3747 378.5 82.7387 377.543C 83.1567 377.25 83.5467 376.914 84.0587 376.399L 83.0317 374.934C 82.8477 375.156 82.5897 375.367 82.2537 375.602C 81.4997 376.129 81.1447 376.067 80.6017 375.293L 75.3317 367.77L 77.1327 366.508L 76.1327 365.09z"/>
<path style="stroke:none; fill-rule:evenodd; fill:#000000" d="M 91.6167 363.266C 90.4457 361.59 89.6137 360.672 88.7267 360.074C 86.7537 358.774 84.3127 358.86 82.2577 360.293C 79.1997 362.434 78.8747 366.16 81.3987 369.766C 83.9217 373.367 87.3867 374.254 90.4647 372.094C 92.9767 370.332 93.7187 367.692 92.4847 364.992L 90.7267 366.223C 91.2537 368.004 90.8007 369.449 89.3987 370.434C 88.2887 371.211 86.9957 371.367 85.7617 370.856C 84.9027 370.524 84.3167 369.996 83.5317 368.922L 91.6167 363.266zM 82.5747 367.481C 81.2967 365.348 81.6097 363.16 83.3667 361.926C 85.0817 360.723 87.4027 361.223 88.6637 363.024C 88.6917 363.063 88.7227 363.106 88.7307 363.164L 82.5747 367.481z"/>
<path style="stroke:none; fill-rule:evenodd; fill:#000000" d="M 89.6567 355.508L 97.3477 366.489L 99.1057 365.258L 95.1137 359.559C 94.0157 357.989 93.6917 356.684 94.1057 355.489C 94.3707 354.711 94.8047 354.219 96.0077 353.344L 94.7617 351.563C 94.4417 351.723 94.2817 351.805 94.0507 351.969C 92.9217 352.762 92.5317 354.031 92.6717 356.371L 91.2777 354.383L 89.6567 355.508z"/>
<path style="stroke:none; fill-rule:evenodd; fill:#000000" d="M 98.3517 349.418L 96.6137 350.637L 104.305 361.617L 106.043 360.399L 98.3517 349.418zM 95.3437 345.121L 93.5857 346.352L 95.1247 348.551L 96.8827 347.321L 95.3437 345.121z"/>
<path style="stroke:none; fill-rule:evenodd; fill:#000000" d="M 105.391 344.113C 102.313 346.27 101.989 349.778 104.575 353.465C 107.157 357.153 110.543 358.059 113.664 355.871C 116.743 353.715 117.09 350.192 114.563 346.586C 111.907 342.793 108.555 341.891 105.391 344.11L 105.391 344.113zM 106.539 345.711C 108.508 344.332 110.813 345.125 112.719 347.844C 114.524 350.418 114.453 352.906 112.528 354.258C 110.582 355.621 108.254 354.844 106.391 352.188C 104.543 349.547 104.59 347.078 106.535 345.711L 106.539 345.711z"/>
<path style="stroke:none; fill-rule:evenodd; fill:#000000" d="M 112.953 339.207L 120.645 350.188L 122.403 348.957L 118.41 343.258C 117.313 341.688 116.989 340.383 117.403 339.188C 117.668 338.41 118.102 337.918 119.305 337.043L 118.059 335.262C 117.739 335.422 117.578 335.504 117.348 335.668C 116.219 336.461 115.828 337.731 115.969 340.071L 114.575 338.082L 112.953 339.207z"/>
<path style="stroke:none; fill-rule:evenodd; fill:#000000" d="M 117.723 379.125L 122.52 375.766C 123.711 374.93 124.407 373.914 124.711 372.61C 125.043 371.129 124.754 369.863 123.774 368.457C 121.762 365.59 118.934 365.164 115.918 367.278L 109.61 371.696L 120.313 386.973L 122.258 385.61L 117.723 379.125zM 116.52 377.406L 112.762 372.043L 116.825 369.196C 118.688 367.891 120.504 368.117 121.68 369.793C 122.852 371.469 122.446 373.254 120.586 374.559L 116.52 377.406z"/>
<path style="stroke:none; fill-rule:evenodd; fill:#000000" d="M 139.672 365.067L 135.336 368.102L 132.301 363.766L 130.836 364.793L 133.871 369.129L 129.535 372.164L 130.563 373.629L 134.899 370.594L 137.934 374.93L 139.399 373.903L 136.364 369.567L 140.7 366.531L 139.672 365.067z"/>
<path style="stroke:none; fill-rule:evenodd; fill:#000000" d="M 143.993 360.59L 149.02 357.067C 150.758 355.848 152.121 356.145 153.442 358.028L 154.375 359.403C 155.035 360.344 155.848 361.149 156.563 361.586L 158.93 359.93L 158.594 359.449C 157.508 359.457 156.981 359.02 155.516 357.016C 153.735 354.516 152.809 354.043 150.653 354.489C 151.782 352.449 151.723 350.895 150.508 349.156C 148.66 346.516 145.993 346.231 142.993 348.332L 135.953 353.266L 146.657 368.543L 148.602 367.18L 143.993 360.59zM 142.785 358.871L 139.102 353.613L 143.817 350.313C 144.907 349.551 145.653 349.278 146.426 349.36C 147.254 349.43 148.012 349.93 148.66 350.852C 149.922 352.653 149.571 354.117 147.5 355.571L 142.785 358.871z"/>
<path style="stroke:none; fill-rule:evenodd; fill:#000000" d="M 167.117 346.867C 165.946 345.192 165.114 344.274 164.227 343.676C 162.254 342.375 159.813 342.461 157.758 343.895C 154.7 346.035 154.375 349.762 156.899 353.367C 159.422 356.969 162.887 357.856 165.965 355.696C 168.477 353.934 169.219 351.293 167.985 348.594L 166.227 349.824C 166.754 351.606 166.301 353.051 164.899 354.035C 163.789 354.813 162.496 354.969 161.262 354.457C 160.403 354.125 159.817 353.598 159.032 352.524L 167.117 346.867zM 158.075 351.078C 156.797 348.946 157.11 346.758 158.867 345.524C 160.582 344.321 162.903 344.821 164.164 346.621C 164.192 346.66 164.223 346.703 164.231 346.762L 158.075 351.078z"/>
<path style="stroke:none; fill-rule:evenodd; fill:#000000" d="M 176.266 336.992C 175.438 335.985 174.719 335.453 173.875 335.141C 172.403 334.645 170.657 334.961 169.125 336.031C 166.172 338.102 165.887 341.797 168.442 345.446C 170.922 348.985 174.379 349.906 177.356 347.821C 179.973 345.985 180.528 343.254 178.86 340.426L 177.102 341.656C 178.039 343.621 177.754 345.133 176.274 346.176C 174.348 347.524 172.094 346.762 170.274 344.164C 168.352 341.422 168.34 338.992 170.246 337.656C 171.711 336.629 173.235 336.844 174.516 338.223L 176.266 336.992z"/>
<path style="stroke:none; fill-rule:evenodd; fill:#000000" d="M 180.121 384.727L 184.918 381.367C 186.11 380.531 186.805 379.516 187.11 378.211C 187.442 376.731 187.153 375.465 186.172 374.059C 184.16 371.192 181.332 370.766 178.317 372.879L 172.008 377.297L 182.711 392.574L 184.657 391.211L 180.121 384.727zM 178.918 383.008L 175.16 377.645L 179.223 374.797C 181.086 373.492 182.903 373.719 184.078 375.395C 185.25 377.071 184.844 378.856 182.985 380.16L 178.918 383.008z"/>
<path style="stroke:none; fill-rule:evenodd; fill:#000000" d="M 202.075 370.664L 197.739 373.699L 194.703 369.363L 193.239 370.391L 196.274 374.727L 191.938 377.762L 192.965 379.227L 197.301 376.192L 200.336 380.528L 201.801 379.5L 198.766 375.164L 203.102 372.129L 202.075 370.664z"/>
<path style="stroke:none; fill-rule:evenodd; fill:#000000" d="M 211.934 355.957C 209.817 352.977 206.543 352.676 203.024 355.145C 199.672 357.492 198.801 360.664 200.739 363.43C 202.043 365.293 203.852 365.778 206.231 364.891L 210.727 363.242C 213.004 362.395 214.43 362.555 215.266 363.746C 215.836 364.563 215.985 365.707 215.657 366.625C 215.344 367.469 214.543 368.375 213.305 369.239C 211.653 370.395 210.243 370.793 208.891 370.426C 207.856 370.153 207.09 369.598 206.453 368.641L 204.61 369.93C 205.614 371.317 206.532 372.047 207.727 372.461C 209.77 373.149 212.063 372.672 214.387 371.043C 216.207 369.77 217.403 368.305 217.86 366.86C 218.313 365.324 218.008 363.508 217.086 362.188C 215.766 360.305 213.625 359.742 211.153 360.629L 206.598 362.285C 204.403 363.071 203.321 362.957 202.5 361.785C 201.414 360.235 202.059 358.254 204.11 356.817C 206.539 355.113 208.68 355.27 210.094 357.242L 211.934 355.957z"/>
<path style="stroke:none; fill-rule:evenodd; fill:#000000" d="M 228.321 353.266C 227.149 351.59 226.317 350.672 225.43 350.074C 223.457 348.774 221.016 348.86 218.961 350.293C 215.903 352.434 215.578 356.16 218.102 359.766C 220.625 363.367 224.09 364.254 227.168 362.094C 229.68 360.332 230.422 357.692 229.188 354.992L 227.43 356.223C 227.957 358.004 227.504 359.449 226.102 360.434C 224.993 361.211 223.7 361.367 222.465 360.856C 221.606 360.524 221.02 359.996 220.235 358.922L 228.321 353.266zM 219.274 357.481C 217.996 355.348 218.309 353.16 220.067 351.926C 221.782 350.723 224.102 351.223 225.364 353.024C 225.391 353.063 225.422 353.106 225.43 353.164L 219.274 357.481z"/>
<path style="stroke:none; fill-rule:evenodd; fill:#000000" d="M 225.184 340.09L 223.426 341.321L 234.129 356.598L 235.887 355.367L 225.184 340.09z"/>
<path style="stroke:none; fill-rule:evenodd; fill:#000000" d="M 235.016 339.531L 233.196 340.805L 231.993 339.086C 231.481 338.356 231.637 337.684 232.43 337.125C 232.575 337.024 232.637 336.981 233.051 336.723L 232.039 335.278C 231.586 335.469 231.34 335.613 230.981 335.86C 229.367 336.989 229.051 338.586 230.153 340.156L 231.457 342.02L 229.993 343.047L 230.989 344.469L 232.453 343.442L 239.149 352.996L 240.887 351.778L 234.192 342.223L 236.012 340.946L 235.016 339.531z"/>
<path style="stroke:none; fill-rule:evenodd; fill:#000000" d="M 259.934 360.758C 257.817 357.778 254.543 357.477 251.024 359.946C 247.672 362.293 246.801 365.465 248.739 368.231C 250.043 370.094 251.852 370.578 254.231 369.692L 258.727 368.043C 261.004 367.196 262.43 367.356 263.266 368.547C 263.836 369.363 263.985 370.508 263.657 371.426C 263.344 372.27 262.543 373.176 261.305 374.039C 259.653 375.196 258.243 375.594 256.891 375.227C 255.856 374.953 255.09 374.399 254.453 373.442L 252.61 374.731C 253.614 376.117 254.532 376.848 255.727 377.262C 257.77 377.949 260.063 377.473 262.387 375.844C 264.207 374.571 265.403 373.106 265.86 371.66C 266.313 370.125 266.008 368.309 265.086 366.989C 263.766 365.106 261.625 364.543 259.153 365.43L 254.598 367.086C 252.403 367.871 251.321 367.758 250.5 366.586C 249.414 365.035 250.059 363.055 252.11 361.617C 254.539 359.914 256.68 360.071 258.094 362.043L 259.934 360.758z"/>
<path style="stroke:none; fill-rule:evenodd; fill:#000000" d="M 268.289 361.192L 273.317 357.668C 275.055 356.449 276.418 356.746 277.739 358.629L 278.672 360.004C 279.332 360.946 280.145 361.75 280.86 362.188L 283.227 360.531L 282.891 360.051C 281.805 360.059 281.278 359.621 279.813 357.617C 278.032 355.117 277.106 354.645 274.95 355.09C 276.078 353.051 276.02 351.496 274.805 349.758C 272.957 347.117 270.289 346.832 267.289 348.934L 260.25 353.867L 270.953 369.145L 272.899 367.781L 268.289 361.192zM 267.086 359.473L 263.403 354.215L 268.117 350.914C 269.207 350.153 269.953 349.879 270.727 349.961C 271.555 350.031 272.313 350.531 272.961 351.453C 274.223 353.254 273.871 354.719 271.801 356.172L 267.086 359.473z"/>
<path style="stroke:none; fill-rule:evenodd; fill:#000000" d="M 286.938 335.141L 285.094 336.43L 293.844 348.918L 277.11 342.024L 274.996 343.504L 285.7 358.781L 287.543 357.492L 278.867 345.106L 295.446 351.953L 297.645 350.414L 286.938 335.141z"/>
<path style="stroke:none; fill-rule:evenodd; fill:#000000" d="M 271.633 392.758C 269.516 389.778 266.243 389.477 262.723 391.946C 259.371 394.293 258.5 397.465 260.438 400.231C 261.743 402.094 263.551 402.578 265.93 401.692L 270.426 400.043C 272.703 399.196 274.129 399.356 274.965 400.547C 275.535 401.363 275.684 402.508 275.356 403.426C 275.043 404.27 274.243 405.176 273.004 406.039C 271.352 407.196 269.942 407.594 268.59 407.227C 267.555 406.953 266.789 406.399 266.153 405.442L 264.309 406.731C 265.313 408.117 266.231 408.848 267.426 409.262C 269.469 409.949 271.762 409.473 274.086 407.844C 275.907 406.571 277.102 405.106 277.559 403.66C 278.012 402.125 277.707 400.309 276.785 398.989C 275.465 397.106 273.325 396.543 270.852 397.43L 266.297 399.086C 264.102 399.871 263.02 399.758 262.2 398.586C 261.114 397.035 261.758 395.055 263.809 393.617C 266.239 391.914 268.379 392.071 269.793 394.043L 271.633 392.758z"/>
<path style="stroke:none; fill-rule:evenodd; fill:#000000" d="M 279.993 393.192L 285.02 389.668C 286.758 388.449 288.121 388.746 289.442 390.629L 290.375 392.004C 291.035 392.946 291.848 393.75 292.563 394.188L 294.93 392.531L 294.594 392.051C 293.508 392.059 292.981 391.621 291.516 389.617C 289.735 387.117 288.809 386.645 286.653 387.09C 287.782 385.051 287.723 383.496 286.508 381.758C 284.66 379.117 281.993 378.832 278.993 380.934L 271.953 385.867L 282.657 401.145L 284.602 399.781L 279.993 393.192zM 278.785 391.473L 275.102 386.215L 279.817 382.914C 280.907 382.153 281.653 381.879 282.426 381.961C 283.254 382.031 284.012 382.531 284.66 383.453C 285.922 385.254 285.571 386.719 283.5 388.172L 278.785 391.473z"/>
<path style="stroke:none; fill-rule:evenodd; fill:#000000" d="M 298.739 367.141L 296.895 368.43L 305.645 380.918L 288.91 374.024L 286.797 375.504L 297.5 390.781L 299.344 389.492L 290.668 377.106L 307.246 383.953L 309.446 382.414L 298.739 367.141z"/>
<path style="stroke:none; fill-rule:evenodd; fill:#000000" d="M 318.485 367.719L 307.922 375.117L 308.95 376.582L 319.512 369.184L 318.485 367.719z"/>
<path style="stroke:none; fill-rule:evenodd; fill:#000000" d="M 322.524 363.524L 327.321 360.164C 328.512 359.328 329.207 358.313 329.512 357.008C 329.844 355.528 329.555 354.262 328.575 352.856C 326.563 349.989 323.735 349.563 320.719 351.676L 314.41 356.094L 325.114 371.371L 327.059 370.008L 322.524 363.524zM 321.317 361.809L 317.559 356.446L 321.621 353.598C 323.485 352.293 325.301 352.52 326.477 354.196C 327.649 355.871 327.243 357.656 325.383 358.961L 321.317 361.809z"/>
<path style="stroke:none; fill-rule:evenodd; fill:#000000" d="M 336.164 353.258L 343.457 348.149L 342.254 346.43L 334.961 351.539L 331.543 346.656L 339.84 340.844L 338.637 339.125L 328.391 346.305L 339.094 361.582L 341.039 360.219L 336.164 353.258z"/>
<path style="stroke:none; fill-rule:evenodd; fill:#000000" d="M 356.493 333.641C 353.539 330.715 350.465 330.43 347.11 332.781C 345.059 334.219 343.856 336.028 343.606 338.078C 343.282 340.555 344.051 343.262 345.782 345.735C 347.543 348.246 349.828 349.863 352.317 350.336C 354.34 350.727 356.246 350.239 358.239 348.844C 361.969 346.231 362.653 342.75 360.282 338.383L 358.27 339.789C 358.832 340.953 359.125 341.813 359.235 342.641C 359.485 344.336 358.688 345.961 357.055 347.106C 354.02 349.235 350.387 348.153 347.715 344.34C 344.973 340.422 345.125 336.723 348.078 334.649C 349.313 333.785 350.731 333.356 351.77 333.5C 352.7 333.625 353.469 334.055 354.493 335.024L 356.493 333.641z"/>
<path style="stroke:none; fill-rule:evenodd; fill:#000000" d="M 343.34 369.141L 341.496 370.43L 350.246 382.918L 333.512 376.024L 331.399 377.504L 342.102 392.781L 343.946 391.492L 335.27 379.106L 351.848 385.953L 354.047 384.414L 343.34 369.141z"/>
<path style="stroke:none; fill-rule:evenodd; fill:#000000" d="M 353.391 368.012C 350.313 370.168 349.989 373.676 352.575 377.363C 355.157 381.051 358.543 381.957 361.664 379.77C 364.743 377.613 365.09 374.09 362.563 370.485C 359.907 366.692 356.555 365.789 353.391 368.008L 353.391 368.012zM 354.539 369.613C 356.508 368.235 358.813 369.028 360.719 371.746C 362.524 374.321 362.453 376.809 360.528 378.16C 358.582 379.524 356.254 378.746 354.391 376.09C 352.543 373.449 352.59 370.981 354.535 369.613L 354.539 369.613z"/>
<path style="stroke:none; fill-rule:evenodd; fill:#000000" d="M 376.41 356.621L 370.043 361.082L 371.246 362.801L 375.899 359.543L 376.192 359.961C 378.098 362.684 377.465 366.063 374.684 368.016C 373.133 369.102 371.332 369.52 369.743 369.164C 367.973 368.781 366.09 367.383 364.766 365.496C 362.141 361.746 362.543 357.778 365.77 355.516C 368.094 353.887 370.61 353.906 372.407 355.578L 374.395 354.184C 371.68 351.465 368.082 351.328 364.582 353.781C 362.719 355.086 361.547 356.625 361.043 358.449C 360.313 361.149 360.965 364.223 362.887 366.965C 366.172 371.656 371.336 372.914 375.465 370.024C 377.539 368.571 378.653 366.637 378.981 363.938L 380.883 365.629L 382.117 364.766L 376.41 356.621z"/>
<path style="stroke:none; fill-rule:evenodd; fill:#000000" d="M 393.996 354.821C 393.84 354.992 393.754 355.051 393.649 355.125C 393.043 355.551 392.489 355.469 392.106 354.93L 387.586 348.477C 386.223 346.531 384.063 346.481 381.36 348.375C 379.77 349.489 378.77 350.875 378.61 352.207C 378.504 353.125 378.731 353.899 379.453 355.02L 381.211 353.789C 380.418 352.348 380.789 351.18 382.422 350.035C 383.993 348.938 385.282 348.906 386.016 349.953L 386.336 350.414C 386.848 351.145 386.629 351.77 385.367 352.906C 383.117 354.953 382.797 355.301 382.317 356.043C 381.407 357.461 381.45 358.903 382.442 360.324C 383.836 362.313 386.098 362.602 388.321 361.047C 389.703 360.078 390.473 358.821 390.918 356.821C 391.821 357.84 392.719 357.961 393.848 357.168C 394.203 356.918 394.446 356.688 394.91 356.145L 393.996 354.821zM 389.235 354.531C 389.645 355.117 389.727 355.59 389.539 356.438C 389.285 357.586 388.66 358.524 387.633 359.242C 386.274 360.196 385.02 360.102 384.243 358.996C 383.438 357.844 383.801 356.715 385.473 355.137C 387.141 353.594 387.457 353.246 387.856 352.563L 389.235 354.531z"/>
<path style="stroke:none; fill-rule:evenodd; fill:#000000" d="M 392.832 340.789L 391.032 342.051L 388.918 339.035L 387.18 340.254L 389.293 343.27L 387.809 344.313L 388.805 345.735L 390.289 344.692L 396.102 352.989C 396.879 354.098 398.075 354.199 399.438 353.242C 399.856 352.949 400.246 352.613 400.758 352.098L 399.731 350.633C 399.547 350.856 399.289 351.067 398.953 351.301C 398.2 351.828 397.844 351.766 397.301 350.992L 392.032 343.469L 393.832 342.207L 392.832 340.789z"/>
<path style="stroke:none; fill-rule:evenodd; fill:#000000" d="M 408.321 339.067C 407.149 337.391 406.317 336.473 405.43 335.875C 403.457 334.574 401.016 334.66 398.961 336.094C 395.903 338.235 395.578 341.961 398.102 345.567C 400.625 349.168 404.09 350.055 407.168 347.895C 409.68 346.133 410.422 343.492 409.188 340.793L 407.43 342.024C 407.957 343.805 407.504 345.25 406.102 346.235C 404.993 347.012 403.7 347.168 402.465 346.656C 401.606 346.324 401.02 345.797 400.235 344.723L 408.321 339.067zM 399.274 343.278C 397.996 341.145 398.309 338.957 400.067 337.723C 401.782 336.52 404.102 337.02 405.364 338.821C 405.391 338.86 405.422 338.903 405.43 338.961L 399.274 343.278z"/>
<path style="stroke:none; fill-rule:evenodd; fill:#000000" d="M 429.766 363.457L 437.059 358.348L 435.856 356.629L 428.563 361.739L 425.145 356.856L 433.442 351.043L 432.239 349.324L 421.993 356.504L 432.696 371.781L 434.641 370.418L 429.766 363.457z"/>
<path style="stroke:none; fill-rule:evenodd; fill:#000000" d="M 453.703 357.028L 446.012 346.047L 444.274 347.266L 448.633 353.489C 450.203 355.731 450.055 358.02 448.239 359.297C 446.856 360.266 445.391 360.043 444.465 358.727L 439.02 350.953L 437.282 352.172L 443.211 360.637C 444.485 362.457 446.672 362.68 448.809 361.18C 450.422 360.051 451.051 358.766 451.067 356.602L 452.137 358.129L 453.703 357.028z"/>
<path style="stroke:none; fill-rule:evenodd; fill:#000000" d="M 447.684 338.492L 445.926 339.723L 456.629 355L 458.387 353.77L 447.684 338.492z"/>
<path style="stroke:none; fill-rule:evenodd; fill:#000000" d="M 452.383 335.192L 450.625 336.422L 461.328 351.699L 463.086 350.469L 452.383 335.192z"/>
<path style="stroke:none; fill-rule:evenodd; fill:#000000" d="M 148.301 424.004L 152.098 424.004L 152.098 405.305L 148.301 405.305L 148.301 418.039L 140.93 405.305L 137.004 405.305L 137.004 424.004L 140.801 424.004L 140.801 411.11L 148.301 424.004z"/>
<path style="stroke:none; fill-rule:evenodd; fill:#000000" d="M 161.426 410.004C 157.196 410.004 154.606 412.785 154.606 417.301C 154.606 421.844 157.196 424.598 161.453 424.598C 165.657 424.598 168.301 421.817 168.301 417.403C 168.301 412.735 165.762 410.004 161.426 410.004zM 161.453 412.903C 163.422 412.903 164.703 414.656 164.703 417.352C 164.703 419.918 163.375 421.699 161.453 421.699C 159.512 421.699 158.203 419.922 158.203 417.301C 158.203 414.684 159.508 412.903 161.453 412.903z"/>
<path style="stroke:none; fill-rule:evenodd; fill:#000000" d="M 182.305 417.301L 187.082 417.301C 190.504 417.301 192.703 414.871 192.703 411.086C 192.703 407.352 190.586 405.305 186.711 405.305L 178.504 405.305L 178.504 424.004L 182.301 424.004L 182.305 417.301zM 182.305 414.102L 182.305 408.504L 185.899 408.504C 187.953 408.504 188.903 409.399 188.903 411.317C 188.903 413.207 187.953 414.102 185.899 414.102L 182.305 414.102z"/>
<path style="stroke:none; fill-rule:evenodd; fill:#000000" d="M 199.203 416L 207.399 416L 207.399 412.801L 199.203 412.801L 199.203 408.504L 208.496 408.504L 208.496 405.305L 195.403 405.305L 195.403 424.004L 199.2 424.004L 199.203 416z"/>
<path style="stroke:none; fill-rule:evenodd; fill:#000000" d="M 226.657 411.668C 226.528 410.051 226.196 409.02 225.403 407.965C 223.969 406.063 221.664 405.008 218.871 405.008C 213.594 405.008 210.313 408.778 210.313 414.832C 210.313 420.832 213.567 424.602 218.766 424.602C 223.403 424.602 226.504 421.914 226.735 417.633L 222.981 417.633C 222.75 420.031 221.235 421.403 218.844 421.403C 215.864 421.403 214.114 418.992 214.114 414.906C 214.114 410.774 215.938 408.309 218.973 408.309C 220.309 408.309 221.414 408.77 222.133 409.668C 222.543 410.18 222.75 410.668 222.981 411.668L 226.657 411.668z"/>
<path style="stroke:none; fill-rule:evenodd; fill:#000000" d="M 375.703 417.301L 380.481 417.301C 383.903 417.301 386.102 414.871 386.102 411.086C 386.102 407.352 383.985 405.305 380.11 405.305L 371.903 405.305L 371.903 424.004L 375.7 424.004L 375.703 417.301zM 375.703 414.102L 375.703 408.504L 379.297 408.504C 381.352 408.504 382.301 409.399 382.301 411.317C 382.301 413.207 381.352 414.102 379.297 414.102L 375.703 414.102z"/>
<path style="stroke:none; fill-rule:evenodd; fill:#000000" d="M 392.703 416L 400.899 416L 400.899 412.801L 392.703 412.801L 392.703 408.504L 401.996 408.504L 401.996 405.305L 388.903 405.305L 388.903 424.004L 392.7 424.004L 392.703 416z"/>
<path style="stroke:none; fill-rule:evenodd; fill:#000000" d="M 420.055 411.668C 419.926 410.051 419.594 409.02 418.801 407.965C 417.367 406.063 415.063 405.008 412.27 405.008C 406.993 405.008 403.711 408.778 403.711 414.832C 403.711 420.832 406.965 424.602 412.164 424.602C 416.801 424.602 419.903 421.914 420.133 417.633L 416.379 417.633C 416.149 420.031 414.633 421.403 412.243 421.403C 409.262 421.403 407.512 418.992 407.512 414.906C 407.512 410.774 409.336 408.309 412.371 408.309C 413.707 408.309 414.813 408.77 415.532 409.668C 415.942 410.18 416.149 410.668 416.379 411.668L 420.055 411.668z"/>
<path style="stroke:#000000; stroke-width:0.95664899999999997; fill:none" d="M 493.012 331.578L 481.02 331.578"/>
<path style="stroke:none; fill-rule:evenodd; fill:#000000" d="M 86.0157 329.899L 109.203 329.899L 109.203 71.594L 86.0157 71.594L 86.0157 329.899z"/>
<path style="stroke:#000000; stroke-width:0.0; fill:none" d="M 86.0157 329.899L 109.203 329.899L 109.203 71.594L 86.0157 71.594L 86.0157 329.899z"/>
<path style="stroke:none; fill-rule:evenodd; fill:#000000" d="M 142.797 329.899L 165.985 329.899L 165.985 69.196L 142.797 69.196L 142.797 329.899z"/>
<path style="stroke:#000000; stroke-width:0.0; fill:none" d="M 142.797 329.899L 165.985 329.899L 165.985 69.196L 142.797 69.196L 142.797 329.899z"/>
<path style="stroke:none; fill-rule:evenodd; fill:#000000" d="M 199.575 329.899L 222.762 329.899L 222.762 85.192L 199.575 85.192L 199.575 329.899z"/>
<path style="stroke:#000000; stroke-width:0.0; fill:none" d="M 199.575 329.899L 222.762 329.899L 222.762 85.192L 199.575 85.192L 199.575 329.899z"/>
<path style="stroke:none; fill-rule:evenodd; fill:#000000" d="M 256.356 329.899L 279.543 329.899L 279.543 101.985L 256.356 101.985L 256.356 329.899z"/>
<path style="stroke:#000000; stroke-width:0.0; fill:none" d="M 256.356 329.899L 279.543 329.899L 279.543 101.985L 256.356 101.985L 256.356 329.899z"/>
<path style="stroke:none; fill-rule:evenodd; fill:#000000" d="M 313.133 329.899L 336.321 329.899L 336.321 113.981L 313.133 113.981L 313.133 329.899z"/>
<path style="stroke:#000000; stroke-width:0.0; fill:none" d="M 313.133 329.899L 336.321 329.899L 336.321 113.981L 313.133 113.981L 313.133 329.899z"/>
<path style="stroke:none; fill-rule:evenodd; fill:#000000" d="M 369.91 329.899L 393.102 329.899L 393.102 171.559L 369.91 171.559L 369.91 329.899z"/>
<path style="stroke:#000000; stroke-width:0.0; fill:none" d="M 369.91 329.899L 393.102 329.899L 393.102 171.559L 369.91 171.559L 369.91 329.899z"/>
<path style="stroke:none; fill-rule:evenodd; fill:#000000" d="M 426.692 329.899L 449.879 329.899L 449.879 250.731L 426.692 250.731L 426.692 329.899z"/>
<path style="stroke:#000000; stroke-width:0.0; fill:none" d="M 426.692 329.899L 449.879 329.899L 449.879 250.731L 426.692 250.731L 426.692 329.899z"/>
<path style="stroke:#000000; stroke-width:0.95664899999999997; fill:none" d="M 86.0157 329.899L 109.203 329.899L 109.203 71.594L 86.0157 71.594L 86.0157 329.899z"/>
<path style="stroke:#000000; stroke-width:0.95664899999999997; fill:none" d="M 142.797 329.899L 165.985 329.899L 165.985 69.196L 142.797 69.196L 142.797 329.899z"/>
<path style="stroke:#000000; stroke-width:0.95664899999999997; fill:none" d="M 199.575 329.899L 222.762 329.899L 222.762 85.192L 199.575 85.192L 199.575 329.899z"/>
<path style="stroke:#000000; stroke-width:0.95664899999999997; fill:none" d="M 256.356 329.899L 279.543 329.899L 279.543 101.985L 256.356 101.985L 256.356 329.899z"/>
<path style="stroke:#000000; stroke-width:0.95664899999999997; fill:none" d="M 313.133 329.899L 336.321 329.899L 336.321 113.981L 313.133 113.981L 313.133 329.899z"/>
<path style="stroke:#000000; stroke-width:0.95664899999999997; fill:none" d="M 369.91 329.899L 393.102 329.899L 393.102 171.559L 369.91 171.559L 369.91 329.899z"/>
<path style="stroke:#000000; stroke-width:0.95664899999999997; fill:none" d="M 426.692 329.899L 449.879 329.899L 449.879 250.731L 426.692 250.731L 426.692 329.899z"/>
<path style="stroke:#000000; stroke-width:0.95664899999999997; fill:none" d="M 97.2107 71.594L 97.2107 69.196"/>
<path style="stroke:#000000; stroke-width:0.95664899999999997; fill:none" d="M 91.6137 69.196L 103.606 69.196"/>
<path style="stroke:#000000; stroke-width:0.95664899999999997; fill:none" d="M 97.2107 71.594L 97.2107 74.789"/>
<path style="stroke:#000000; stroke-width:0.95664899999999997; fill:none" d="M 103.61 74.793L 91.6167 74.793"/>
<path style="stroke:#000000; stroke-width:0.95664899999999997; fill:none" d="M 153.993 69.196L 153.993 66.797"/>
<path style="stroke:#000000; stroke-width:0.95664899999999997; fill:none" d="M 148.395 66.797L 160.387 66.797"/>
<path style="stroke:#000000; stroke-width:0.95664899999999997; fill:none" d="M 153.993 69.196L 153.993 72.391"/>
<path style="stroke:#000000; stroke-width:0.95664899999999997; fill:none" d="M 160.391 72.395L 148.399 72.395"/>
<path style="stroke:#000000; stroke-width:0.95664899999999997; fill:none" d="M 210.77 85.192L 210.77 79.594"/>
<path style="stroke:#000000; stroke-width:0.95664899999999997; fill:none" d="M 205.172 79.59L 217.164 79.59"/>
<path style="stroke:#000000; stroke-width:0.95664899999999997; fill:none" d="M 210.77 85.192L 210.77 90.789"/>
<path style="stroke:#000000; stroke-width:0.95664899999999997; fill:none" d="M 217.168 90.789L 205.176 90.789"/>
<path style="stroke:#000000; stroke-width:0.95664899999999997; fill:none" d="M 268.352 101.985L 268.352 96.387"/>
<path style="stroke:#000000; stroke-width:0.95664899999999997; fill:none" d="M 261.953 96.387L 273.946 96.387"/>
<path style="stroke:#000000; stroke-width:0.95664899999999997; fill:none" d="M 268.352 101.985L 268.352 108.379"/>
<path style="stroke:#000000; stroke-width:0.95664899999999997; fill:none" d="M 273.95 108.379L 261.957 108.379"/>
<path style="stroke:#000000; stroke-width:0.95664899999999997; fill:none" d="M 325.129 113.981L 325.129 102.785"/>
<path style="stroke:#000000; stroke-width:0.95664899999999997; fill:none" d="M 318.731 102.781L 330.723 102.781"/>
<path style="stroke:#000000; stroke-width:0.95664899999999997; fill:none" d="M 325.129 113.981L 325.129 125.176"/>
<path style="stroke:#000000; stroke-width:0.95664899999999997; fill:none" d="M 330.727 125.176L 318.735 125.176"/>
<path style="stroke:#000000; stroke-width:0.95664899999999997; fill:none" d="M 381.907 171.559L 381.907 152.367"/>
<path style="stroke:#000000; stroke-width:0.95664899999999997; fill:none" d="M 375.508 152.363L 387.5 152.363"/>
<path style="stroke:#000000; stroke-width:0.95664899999999997; fill:none" d="M 381.907 171.559L 381.907 190.75"/>
<path style="stroke:#000000; stroke-width:0.95664899999999997; fill:none" d="M 387.504 190.75L 375.512 190.75"/>
<path style="stroke:#000000; stroke-width:0.95664899999999997; fill:none" d="M 438.688 250.731L 438.688 240.336"/>
<path style="stroke:#000000; stroke-width:0.95664899999999997; fill:none" d="M 432.289 240.332L 444.282 240.332"/>
<path style="stroke:#000000; stroke-width:0.95664899999999997; fill:none" d="M 438.688 250.731L 438.688 260.324"/>
<path style="stroke:#000000; stroke-width:0.95664899999999997; fill:none" d="M 444.285 260.324L 432.293 260.324"/>
<path style="stroke:none; fill-rule:evenodd; fill:#dcdcdc" d="M 110.008 329.899L 133.196 329.899L 133.196 75.594L 110.008 75.594L 110.008 329.899z"/>
<path style="stroke:#dcdcdc; stroke-width:0.0; fill:none" d="M 110.008 329.899L 133.196 329.899L 133.196 75.594L 110.008 75.594L 110.008 329.899z"/>
<path style="stroke:none; fill-rule:evenodd; fill:#dcdcdc" d="M 166.785 329.899L 190.774 329.899L 190.774 109.981L 166.785 109.981L 166.785 329.899z"/>
<path style="stroke:#dcdcdc; stroke-width:0.0; fill:none" d="M 166.785 329.899L 190.774 329.899L 190.774 109.981L 166.785 109.981L 166.785 329.899z"/>
<path style="stroke:none; fill-rule:evenodd; fill:#dcdcdc" d="M 223.567 329.899L 247.555 329.899L 247.555 127.574L 223.567 127.574L 223.567 329.899z"/>
<path style="stroke:#dcdcdc; stroke-width:0.0; fill:none" d="M 223.567 329.899L 247.555 329.899L 247.555 127.574L 223.567 127.574L 223.567 329.899z"/>
<path style="stroke:none; fill-rule:evenodd; fill:#dcdcdc" d="M 280.348 329.899L 304.336 329.899L 304.336 159.563L 280.348 159.563L 280.348 329.899z"/>
<path style="stroke:#dcdcdc; stroke-width:0.0; fill:none" d="M 280.348 329.899L 304.336 329.899L 304.336 159.563L 280.348 159.563L 280.348 329.899z"/>
<path style="stroke:none; fill-rule:evenodd; fill:#dcdcdc" d="M 337.125 329.899L 361.114 329.899L 361.114 116.379L 337.125 116.379L 337.125 329.899z"/>
<path style="stroke:#dcdcdc; stroke-width:0.0; fill:none" d="M 337.125 329.899L 361.114 329.899L 361.114 116.379L 337.125 116.379L 337.125 329.899z"/>
<path style="stroke:none; fill-rule:evenodd; fill:#dcdcdc" d="M 393.903 329.899L 417.891 329.899L 417.891 147.567L 393.903 147.567L 393.903 329.899z"/>
<path style="stroke:#dcdcdc; stroke-width:0.0; fill:none" d="M 393.903 329.899L 417.891 329.899L 417.891 147.567L 393.903 147.567L 393.903 329.899z"/>
<path style="stroke:none; fill-rule:evenodd; fill:#dcdcdc" d="M 451.481 329.899L 474.672 329.899L 474.672 304.309L 451.481 304.309L 451.481 329.899z"/>
<path style="stroke:#dcdcdc; stroke-width:0.0; fill:none" d="M 451.481 329.899L 474.672 329.899L 474.672 304.309L 451.481 304.309L 451.481 329.899z"/>
<path style="stroke:#000000; stroke-width:0.95664899999999997; fill:none" d="M 110.008 329.899L 133.196 329.899L 133.196 75.594L 110.008 75.594L 110.008 329.899z"/>
<path style="stroke:#000000; stroke-width:0.95664899999999997; fill:none" d="M 166.785 329.899L 190.774 329.899L 190.774 109.981L 166.785 109.981L 166.785 329.899z"/>
<path style="stroke:#000000; stroke-width:0.95664899999999997; fill:none" d="M 223.567 329.899L 247.555 329.899L 247.555 127.574L 223.567 127.574L 223.567 329.899z"/>
<path style="stroke:#000000; stroke-width:0.95664899999999997; fill:none" d="M 280.348 329.899L 304.336 329.899L 304.336 159.563L 280.348 159.563L 280.348 329.899z"/>
<path style="stroke:#000000; stroke-width:0.95664899999999997; fill:none" d="M 337.125 329.899L 361.114 329.899L 361.114 116.379L 337.125 116.379L 337.125 329.899z"/>
<path style="stroke:#000000; stroke-width:0.95664899999999997; fill:none" d="M 393.903 329.899L 417.891 329.899L 417.891 147.567L 393.903 147.567L 393.903 329.899z"/>
<path style="stroke:#000000; stroke-width:0.95664899999999997; fill:none" d="M 451.481 329.899L 474.672 329.899L 474.672 304.309L 451.481 304.309L 451.481 329.899z"/>
<path style="stroke:#000000; stroke-width:0.95664899999999997; fill:none" d="M 122.004 75.594L 122.004 71.598"/>
<path style="stroke:#000000; stroke-width:0.95664899999999997; fill:none" d="M 115.606 71.594L 127.598 71.594"/>
<path style="stroke:#000000; stroke-width:0.95664899999999997; fill:none" d="M 122.004 75.594L 122.004 78.789"/>
<path style="stroke:#000000; stroke-width:0.95664899999999997; fill:none" d="M 127.602 78.793L 115.61 78.793"/>
<path style="stroke:#000000; stroke-width:0.95664899999999997; fill:none" d="M 178.782 109.981L 178.782 98.785"/>
<path style="stroke:#000000; stroke-width:0.95664899999999997; fill:none" d="M 172.383 98.785L 184.375 98.785"/>
<path style="stroke:#000000; stroke-width:0.95664899999999997; fill:none" d="M 178.782 109.981L 178.782 121.176"/>
<path style="stroke:#000000; stroke-width:0.95664899999999997; fill:none" d="M 184.379 121.176L 172.387 121.176"/>
<path style="stroke:#000000; stroke-width:0.95664899999999997; fill:none" d="M 235.563 127.574L 235.563 120.379"/>
<path style="stroke:#000000; stroke-width:0.95664899999999997; fill:none" d="M 229.164 120.375L 241.957 120.375"/>
<path style="stroke:#000000; stroke-width:0.95664899999999997; fill:none" d="M 235.563 127.574L 235.563 134.77"/>
<path style="stroke:#000000; stroke-width:0.95664899999999997; fill:none" d="M 241.961 134.77L 229.168 134.77"/>
<path style="stroke:#000000; stroke-width:0.95664899999999997; fill:none" d="M 292.34 159.563L 292.34 149.969"/>
<path style="stroke:#000000; stroke-width:0.95664899999999997; fill:none" d="M 285.946 149.965L 298.739 149.965"/>
<path style="stroke:#000000; stroke-width:0.95664899999999997; fill:none" d="M 292.34 159.563L 292.34 169.156"/>
<path style="stroke:#000000; stroke-width:0.95664899999999997; fill:none" d="M 298.739 169.16L 285.946 169.16"/>
<path style="stroke:#000000; stroke-width:0.95664899999999997; fill:none" d="M 349.121 116.379L 349.121 101.985"/>
<path style="stroke:#000000; stroke-width:0.95664899999999997; fill:none" d="M 342.723 101.985L 355.516 101.985"/>
<path style="stroke:#000000; stroke-width:0.95664899999999997; fill:none" d="M 349.121 116.379L 349.121 130.774"/>
<path style="stroke:#000000; stroke-width:0.95664899999999997; fill:none" d="M 355.52 130.774L 342.727 130.774"/>
<path style="stroke:#000000; stroke-width:0.95664899999999997; fill:none" d="M 405.899 147.567L 405.899 137.973"/>
<path style="stroke:#000000; stroke-width:0.95664899999999997; fill:none" d="M 400.301 137.969L 412.293 137.969"/>
<path style="stroke:#000000; stroke-width:0.95664899999999997; fill:none" d="M 405.899 147.567L 405.899 157.16"/>
<path style="stroke:#000000; stroke-width:0.95664899999999997; fill:none" d="M 412.297 157.164L 400.305 157.164"/>
<path style="stroke:#000000; stroke-width:0.95664899999999997; fill:none" d="M 462.68 304.309L 462.68 297.914"/>
<path style="stroke:#000000; stroke-width:0.95664899999999997; fill:none" d="M 457.078 297.91L 469.071 297.91"/>
<path style="stroke:#000000; stroke-width:0.95664899999999997; fill:none" d="M 462.68 304.309L 462.68 311.504"/>
<path style="stroke:#000000; stroke-width:0.95664899999999997; fill:none" d="M 469.075 311.508L 457.082 311.508"/>
<path style="stroke:#000000; stroke-width:0.95664899999999997; fill:none" d="M 110.008 330.699L 110.008 318.707"/>
<path style="stroke:#000000; stroke-width:0.95664899999999997; fill:none" d="M 110.008 35.61L 110.008 47.602"/>
<path style="stroke:#000000; stroke-width:0.95664899999999997; fill:none" d="M 166.785 330.699L 166.785 318.707"/>
<path style="stroke:#000000; stroke-width:0.95664899999999997; fill:none" d="M 166.785 35.61L 166.785 47.602"/>
<path style="stroke:#000000; stroke-width:0.95664899999999997; fill:none" d="M 223.567 330.699L 223.567 318.707"/>
<path style="stroke:#000000; stroke-width:0.95664899999999997; fill:none" d="M 223.567 35.61L 223.567 47.602"/>
<path style="stroke:#000000; stroke-width:0.95664899999999997; fill:none" d="M 280.348 330.699L 280.348 318.707"/>
<path style="stroke:#000000; stroke-width:0.95664899999999997; fill:none" d="M 280.348 35.61L 280.348 47.602"/>
<path style="stroke:#000000; stroke-width:0.95664899999999997; fill:none" d="M 337.125 330.699L 337.125 318.707"/>
<path style="stroke:#000000; stroke-width:0.95664899999999997; fill:none" d="M 337.125 35.61L 337.125 47.602"/>
<path style="stroke:#000000; stroke-width:0.95664899999999997; fill:none" d="M 393.903 330.699L 393.903 318.707"/>
<path style="stroke:#000000; stroke-width:0.95664899999999997; fill:none" d="M 393.903 35.61L 393.903 47.602"/>
<path style="stroke:#000000; stroke-width:0.95664899999999997; fill:none" d="M 450.684 330.699L 450.684 318.707"/>
<path style="stroke:#000000; stroke-width:0.95664899999999997; fill:none" d="M 450.684 35.61L 450.684 47.602"/>
<path style="stroke:#000000; stroke-width:0.95664899999999997; fill:none" d="M 66.8247 313.906L 73.2187 313.906"/>
<path style="stroke:#000000; stroke-width:0.95664899999999997; fill:none" d="M 493.067 313.906L 487.469 313.906"/>
<path style="stroke:#000000; stroke-width:0.95664899999999997; fill:none" d="M 66.8247 297.91L 73.2187 297.91"/>
<path style="stroke:#000000; stroke-width:0.95664899999999997; fill:none" d="M 493.067 297.91L 487.469 297.91"/>
<path style="stroke:#000000; stroke-width:0.95664899999999997; fill:none" d="M 66.8247 281.117L 73.2187 281.117"/>
<path style="stroke:#000000; stroke-width:0.95664899999999997; fill:none" d="M 493.067 281.117L 487.469 281.117"/>
<path style="stroke:#000000; stroke-width:0.95664899999999997; fill:none" d="M 66.8247 265.121L 73.2187 265.121"/>
<path style="stroke:#000000; stroke-width:0.95664899999999997; fill:none" d="M 493.067 265.121L 487.469 265.121"/>
<path style="stroke:#000000; stroke-width:0.95664899999999997; fill:none" d="M 66.8247 248.328L 73.2187 248.328"/>
<path style="stroke:#000000; stroke-width:0.95664899999999997; fill:none" d="M 493.067 248.328L 487.469 248.328"/>
<path style="stroke:#000000; stroke-width:0.95664899999999997; fill:none" d="M 66.8247 215.543L 73.2187 215.543"/>
<path style="stroke:#000000; stroke-width:0.95664899999999997; fill:none" d="M 493.067 215.543L 487.469 215.543"/>
<path style="stroke:#000000; stroke-width:0.95664899999999997; fill:none" d="M 66.8247 199.547L 73.2187 199.547"/>
<path style="stroke:#000000; stroke-width:0.95664899999999997; fill:none" d="M 493.067 199.547L 487.469 199.547"/>
<path style="stroke:#000000; stroke-width:0.95664899999999997; fill:none" d="M 66.8247 182.754L 73.2187 182.754"/>
<path style="stroke:#000000; stroke-width:0.95664899999999997; fill:none" d="M 493.067 182.754L 487.469 182.754"/>
<path style="stroke:#000000; stroke-width:0.95664899999999997; fill:none" d="M 66.8247 166.758L 73.2187 166.758"/>
<path style="stroke:#000000; stroke-width:0.95664899999999997; fill:none" d="M 493.067 166.758L 487.469 166.758"/>
<path style="stroke:#000000; stroke-width:0.95664899999999997; fill:none" d="M 66.8247 149.965L 73.2187 149.965"/>
<path style="stroke:#000000; stroke-width:0.95664899999999997; fill:none" d="M 493.067 149.965L 487.469 149.965"/>
<path style="stroke:#000000; stroke-width:0.95664899999999997; fill:none" d="M 66.8247 117.176L 73.2187 117.176"/>
<path style="stroke:#000000; stroke-width:0.95664899999999997; fill:none" d="M 493.067 117.176L 487.469 117.176"/>
<path style="stroke:#000000; stroke-width:0.95664899999999997; fill:none" d="M 66.8247 101.184L 73.2187 101.184"/>
<path style="stroke:#000000; stroke-width:0.95664899999999997; fill:none" d="M 493.067 101.184L 487.469 101.184"/>
<path style="stroke:#000000; stroke-width:0.95664899999999997; fill:none" d="M 66.8247 84.391L 73.2187 84.391"/>
<path style="stroke:#000000; stroke-width:0.95664899999999997; fill:none" d="M 493.067 84.391L 487.469 84.391"/>
<path style="stroke:#000000; stroke-width:0.95664899999999997; fill:none" d="M 66.8247 68.395L 73.2187 68.395"/>
<path style="stroke:#000000; stroke-width:0.95664899999999997; fill:none" d="M 493.067 68.395L 487.469 68.395"/>
<path style="stroke:#000000; stroke-width:0.95664899999999997; fill:none" d="M 66.8247 51.602L 73.2187 51.602"/>
<path style="stroke:#000000; stroke-width:0.95664899999999997; fill:none" d="M 493.067 51.602L 487.469 51.602"/>
<path style="stroke:#000000; stroke-width:0.95664899999999997; fill:none" d="M 66.8247 330.699L 79.6167 330.699"/>
<path style="stroke:#000000; stroke-width:0.95664899999999997; fill:none" d="M 493.067 330.699L 481.075 330.699"/>
<path style="stroke:#000000; stroke-width:0.95664899999999997; fill:none" d="M 66.8247 232.336L 79.6167 232.336"/>
<path style="stroke:#000000; stroke-width:0.95664899999999997; fill:none" d="M 493.067 232.336L 481.075 232.336"/>
<path style="stroke:#000000; stroke-width:0.95664899999999997; fill:none" d="M 66.8247 133.973L 79.6167 133.973"/>
<path style="stroke:#000000; stroke-width:0.95664899999999997; fill:none" d="M 493.067 133.973L 481.075 133.973"/>
<path style="stroke:#000000; stroke-width:0.95664899999999997; fill:none" d="M 66.8247 35.61L 79.6167 35.61"/>
<path style="stroke:#000000; stroke-width:0.95664899999999997; fill:none" d="M 493.067 35.61L 481.075 35.61"/>
<path style="stroke:none; fill-rule:evenodd; fill:#000000" d="M 54.6527 318.102C 52.9607 318.102 51.4257 318.844 50.4766 320.102C 49.3008 321.684 48.7109 324.11 48.7109 327.453C 48.7109 333.555 50.7617 336.797 54.6567 336.797C 58.4997 336.797 60.6057 333.555 60.6057 327.606C 60.6057 324.086 60.0427 321.735 58.8357 320.098C 57.8907 318.817 56.3747 318.098 54.6567 318.098L 54.6527 318.102zM 54.6527 320.102C 57.0897 320.102 58.3007 322.547 58.3007 327.387C 58.3007 332.504 57.1167 334.899 54.6017 334.899C 52.2147 334.899 51.0039 332.406 51.0039 327.461C 51.0039 322.524 52.2107 320.102 54.6527 320.102z"/>
<path style="stroke:none; fill-rule:evenodd; fill:#000000" d="M 46.1758 235.602L 36.6133 235.602C 36.8399 234.121 37.6641 233.176 39.8945 231.871L 42.457 230.492C 44.9922 229.113 46.3008 227.25 46.3008 225.024C 46.3008 223.516 45.6875 222.113 44.6094 221.141C 43.5352 220.172 42.2031 219.707 40.4844 219.707C 38.1797 219.707 36.4609 220.52 35.4609 222.043C 34.8203 223.008 34.5391 224.125 34.4883 225.953L 36.7461 225.953C 36.8203 224.746 36.9766 224.02 37.2813 223.438C 37.8711 222.36 39.0508 221.703 40.4102 221.703C 42.4609 221.703 44.0039 223.156 44.0039 225.09C 44.0039 226.516 43.1602 227.739 41.543 228.653L 39.1836 229.973C 35.3867 232.11 34.2852 233.817 34.0781 237.789L 46.1797 237.789L 46.1758 235.602z"/>
<path style="stroke:none; fill-rule:evenodd; fill:#000000" d="M 59.6567 219.703L 50.3164 219.703L 48.9649 229.535L 51.0313 229.535C 52.0747 228.25 52.9417 227.805 54.3477 227.805C 56.7697 227.805 58.3007 229.477 58.3007 232.18C 58.3007 234.805 56.7967 236.399 54.3477 236.399C 52.3827 236.399 51.1836 235.399 50.6485 233.348L 48.4063 233.348C 48.7109 234.832 48.9649 235.551 49.5039 236.219C 50.5235 237.602 52.3597 238.399 54.4027 238.399C 58.0507 238.399 60.6057 235.727 60.6057 231.871C 60.6057 228.274 58.2307 225.805 54.7617 225.805C 53.4887 225.805 52.4647 226.153 51.4217 226.953L 52.1367 221.906L 59.6637 221.906L 59.6567 219.703z"/>
<path style="stroke:none; fill-rule:evenodd; fill:#000000" d="M 46.1563 121.403L 36.8164 121.403L 35.4649 131.235L 37.5313 131.235C 38.5742 129.949 39.4414 129.504 40.8477 129.504C 43.2695 129.504 44.8008 131.176 44.8008 133.879C 44.8008 136.504 43.2969 138.098 40.8477 138.098C 38.8828 138.098 37.6836 137.098 37.1485 135.047L 34.9063 135.047C 35.2109 136.531 35.4649 137.25 36.0039 137.918C 37.0235 139.301 38.8594 140.098 40.9024 140.098C 44.5508 140.098 47.1055 137.426 47.1055 133.571C 47.1055 129.973 44.7305 127.504 41.2617 127.504C 39.9883 127.504 38.9649 127.852 37.9219 128.653L 38.6367 123.606L 46.1641 123.606L 46.1563 121.403z"/>
<path style="stroke:none; fill-rule:evenodd; fill:#000000" d="M 55.3517 121.403C 53.6597 121.403 52.1247 122.145 51.1758 123.403C 50 124.985 49.4102 127.41 49.4102 130.754C 49.4102 136.856 51.4607 140.098 55.3557 140.098C 59.1997 140.098 61.3047 136.856 61.3047 130.906C 61.3047 127.387 60.7427 125.035 59.5347 123.399C 58.5897 122.117 57.0747 121.399 55.3557 121.399L 55.3517 121.403zM 55.3517 123.403C 57.7887 123.403 58.9997 125.848 58.9997 130.688C 58.9997 135.805 57.8167 138.199 55.3007 138.199C 52.9137 138.199 51.7027 135.707 51.7027 130.762C 51.7027 125.824 52.9097 123.403 55.3517 123.403z"/>
<path style="stroke:none; fill-rule:evenodd; fill:#000000" d="M 46.5039 23.004L 34.4063 23.004L 34.4063 25.203L 44.1797 25.203C 39.8672 31.363 38.1094 35.145 36.7539 41.102L 39.1524 41.102C 40.1445 35.309 42.418 30.332 46.5039 24.895L 46.5039 23.004z"/>
<path style="stroke:none; fill-rule:evenodd; fill:#000000" d="M 59.6567 23.004L 50.3164 23.004L 48.9649 32.836L 51.0313 32.836C 52.0747 31.551 52.9417 31.106 54.3477 31.106C 56.7697 31.106 58.3007 32.778 58.3007 35.481C 58.3007 38.106 56.7967 39.699 54.3477 39.699C 52.3827 39.699 51.1836 38.699 50.6485 36.649L 48.4063 36.649C 48.7109 38.133 48.9649 38.852 49.5039 39.52C 50.5235 40.903 52.3597 41.699 54.4027 41.699C 58.0507 41.699 60.6057 39.028 60.6057 35.172C 60.6057 31.574 58.2307 29.106 54.7617 29.106C 53.4887 29.106 52.4647 29.453 51.4217 30.254L 52.1367 25.207L 59.6637 25.207L 59.6567 23.004z"/>
<path style="stroke:none; fill-rule:evenodd; fill:#000000" d="M 9.0039 310.11L 9.0039 317.59L 12.2031 317.59L 12.2031 313.34C 13.2383 313.442 13.8711 313.696 14.5274 314.262C 15.6367 315.184 16.2969 316.59 16.2969 318.074C 16.2969 321.172 13.5859 323.399 9.75 323.399C 5.7344 323.399 3.3008 321.43 3.3008 318.176C 3.3008 316.848 3.6836 315.719 4.4297 314.875C 4.8906 314.34 5.3281 314.059 6.3047 313.727L 6.3047 310.113C 2.4453 310.574 0 313.692 0 318.188C 0 323.551 3.9766 327.203 9.7969 327.203C 15.4649 327.203 19.5938 323.528 19.5938 318.492C 19.5938 315.989 18.7031 314.305 16.6094 312.875L 19.0586 312.418L 19.0586 310.117L 9.0039 310.11z"/>
<path style="stroke:none; fill-rule:evenodd; fill:#000000" d="M 13.2031 294.992C 12.9024 294.969 12.7735 294.969 12.5977 294.969C 11.2305 294.969 9.9609 295.172 8.9961 295.504C 6.5117 296.422 5.0117 298.649 5.0117 301.438C 5.0117 305.403 7.8672 307.832 12.4883 307.832C 16.9024 307.832 19.6055 305.43 19.6055 301.512C 19.6055 298.418 17.8359 295.91 15.1172 295.117L 15.1172 298.649C 16.2461 299.082 16.9024 300.078 16.9024 301.383C 16.9024 302.403 16.4609 303.223 15.6797 303.735C 15.1602 304.067 14.5352 304.196 13.207 304.246L 13.2031 294.992zM 10.8047 304.207C 8.7422 303.981 7.707 303.082 7.707 301.496C 7.707 300.602 8.1328 299.785 8.8399 299.27C 9.3438 298.942 9.8711 298.785 10.8047 298.707L 10.8047 304.207z"/>
<path style="stroke:none; fill-rule:evenodd; fill:#000000" d="M 5.2031 292.602L 19 292.602L 19 289.004L 10.7149 289.004C 9.0781 289.004 8.0039 287.856 8.0039 286.113C 8.0039 284.578 8.8477 283.809 10.4844 283.809L 19 283.809L 19 280.211L 9.7735 280.211C 6.7422 280.211 5.0039 281.903 5.0039 284.852C 5.0039 286.723 5.6797 287.981 7.1797 289.004L 5.2031 289.004L 5.2031 292.602z"/>
<path style="stroke:none; fill-rule:evenodd; fill:#000000" d="M 13.2031 265.094C 12.9024 265.071 12.7735 265.071 12.5977 265.071C 11.2305 265.071 9.9609 265.274 8.9961 265.606C 6.5117 266.524 5.0117 268.75 5.0117 271.539C 5.0117 275.504 7.8672 277.934 12.4883 277.934C 16.9024 277.934 19.6055 275.531 19.6055 271.613C 19.6055 268.52 17.8359 266.012 15.1172 265.219L 15.1172 268.75C 16.2461 269.184 16.9024 270.18 16.9024 271.485C 16.9024 272.504 16.4609 273.324 15.6797 273.836C 15.1602 274.168 14.5352 274.297 13.207 274.348L 13.2031 265.094zM 10.8047 274.305C 8.7422 274.078 7.707 273.18 7.707 271.594C 7.707 270.699 8.1328 269.883 8.8399 269.367C 9.3438 269.039 9.8711 268.883 10.8047 268.805L 10.8047 274.305z"/>
<path style="stroke:none; fill-rule:evenodd; fill:#000000" d="M 5.2031 262.703L 19 262.703L 19 259.106L 11.7227 259.106C 9.6445 259.106 8.6055 258.059 8.6055 255.965C 8.6055 255.582 8.6055 255.328 8.6133 254.84L 5.0039 254.84C 5.0039 255.043 5.0039 255.172 5.0039 255.274C 5.0039 256.906 6.0586 258.34 7.8945 259.106L 5.2031 259.106L 5.2031 262.703z"/>
<path style="stroke:none; fill-rule:evenodd; fill:#000000" d="M 18.582 240.895C 17.9961 241.524 17.6133 241.703 16.8985 241.703L 9.2422 241.703C 6.4375 241.703 5.0078 243.625 5.0078 247.363C 5.0078 251.102 6.5781 253.047 9.7422 253.278L 9.7422 249.817C 8.3555 249.641 7.9063 249.051 7.9063 247.281C 7.9063 245.899 8.3672 245.207 9.2852 245.207C 9.7422 245.207 10.1485 245.438 10.3516 245.821C 10.6055 246.305 10.6055 246.305 10.8828 248.078L 11.1367 249.516C 11.5938 252.262 12.9961 253.598 15.4649 253.598C 16.6367 253.598 17.6055 253.266 18.293 252.625C 19.1055 251.832 19.5899 250.629 19.5899 249.399C 19.5899 247.863 18.9297 246.457 17.625 245.199C 18.3359 245.199 18.5938 245.125 19 244.789L 19 240.891L 18.582 240.895zM 13.4492 245.203C 15.5195 245.203 16.6992 246.227 16.6992 248.051C 16.6992 249.254 16.0625 250 15.0391 250C 13.9649 250 13.4531 249.438 13.1445 247.949L 12.918 246.719C 12.7422 245.77 12.6914 245.617 12.4844 245.207L 13.4492 245.203z"/>
<path style="stroke:none; fill-rule:evenodd; fill:#000000" d="M 0.3008 238.403L 19 238.403L 19 234.805L 0.3008 234.805L 0.3008 238.403z"/>
<path style="stroke:none; fill-rule:evenodd; fill:#000000" d="M 5.1836 227.703L 5.1836 231.301L 19 231.301L 19 227.703L 5.1836 227.703zM 0.304699 227.703L 0.304699 231.301L 3.5039 231.301L 3.5039 227.703L 0.304699 227.703z"/>
<path style="stroke:none; fill-rule:evenodd; fill:#000000" d="M 5.2031 214.156L 5.2031 224.903L 8.1016 224.903L 8.1016 218.531L 16.1016 225.36L 19 225.36L 19 213.922L 16.1016 213.922L 16.1016 220.934L 8.1016 214.153L 5.2031 214.156z"/>
<path style="stroke:none; fill-rule:evenodd; fill:#000000" d="M 18.582 199.696C 17.9961 200.324 17.6133 200.504 16.8985 200.504L 9.2422 200.504C 6.4375 200.504 5.0078 202.426 5.0078 206.164C 5.0078 209.903 6.5781 211.848 9.7422 212.078L 9.7422 208.617C 8.3555 208.442 7.9063 207.852 7.9063 206.082C 7.9063 204.699 8.3672 204.008 9.2852 204.008C 9.7422 204.008 10.1485 204.239 10.3516 204.621C 10.6055 205.106 10.6055 205.106 10.8828 206.879L 11.1367 208.317C 11.5938 211.063 12.9961 212.399 15.4649 212.399C 16.6367 212.399 17.6055 212.067 18.293 211.426C 19.1055 210.633 19.5899 209.43 19.5899 208.199C 19.5899 206.664 18.9297 205.258 17.625 204C 18.3359 204 18.5938 203.926 19 203.59L 19 199.692L 18.582 199.696zM 13.4492 204.004C 15.5195 204.004 16.6992 205.028 16.6992 206.852C 16.6992 208.055 16.0625 208.801 15.0391 208.801C 13.9649 208.801 13.4531 208.239 13.1445 206.75L 12.918 205.52C 12.7422 204.571 12.6914 204.418 12.4844 204.008L 13.4492 204.004z"/>
<path style="stroke:none; fill-rule:evenodd; fill:#000000" d="M 5.5039 191.199L 5.5039 193.199L 1.7578 193.199L 1.7578 196.797L 5.5039 196.797L 5.5039 198.535L 7.9024 198.535L 7.9024 196.797L 16.3633 196.797C 18.5274 196.797 19.5977 195.645 19.5977 193.278C 19.5977 192.485 19.5235 191.84 19.3164 191.199L 16.8008 191.199C 16.8672 191.555 16.8985 191.762 16.8985 192.02C 16.8985 192.969 16.6211 193.199 15.3945 193.199L 7.9024 193.199L 7.9024 191.199L 5.5039 191.199z"/>
<path style="stroke:none; fill-rule:evenodd; fill:#000000" d="M 5.1836 185.004L 5.1836 188.602L 19 188.602L 19 185.004L 5.1836 185.004zM 0.304699 185.004L 0.304699 188.602L 3.5039 188.602L 3.5039 185.004L 0.304699 185.004z"/>
<path style="stroke:none; fill-rule:evenodd; fill:#000000" d="M 5.0039 175.481C 5.0039 179.711 7.7852 182.301 12.3008 182.301C 16.8438 182.301 19.5977 179.711 19.5977 175.453C 19.5977 171.25 16.8164 168.606 12.4024 168.606C 7.7344 168.606 5.0039 171.145 5.0039 175.481zM 7.9024 175.453C 7.9024 173.485 9.6563 172.203 12.3516 172.203C 14.918 172.203 16.6992 173.531 16.6992 175.453C 16.6992 177.395 14.9219 178.703 12.3008 178.703C 9.6836 178.703 7.9024 177.399 7.9024 175.453z"/>
<path style="stroke:none; fill-rule:evenodd; fill:#000000" d="M 5.2031 166.004L 19 166.004L 19 162.406L 10.7149 162.406C 9.0781 162.406 8.0039 161.258 8.0039 159.516C 8.0039 157.981 8.8477 157.211 10.4844 157.211L 19 157.211L 19 153.613L 9.7735 153.613C 6.7422 153.613 5.0039 155.305 5.0039 158.254C 5.0039 160.125 5.6797 161.383 7.1797 162.406L 5.2031 162.406L 5.2031 166.004z"/>
<path style="stroke:none; fill-rule:evenodd; fill:#000000" d="M 11 139.004L 11 130.016L 7.8008 130.016L 7.8008 139.004L 3.5039 139.004L 3.5039 129.297L 0.304699 129.297L 0.304699 142.805L 19.0039 142.805L 19.0039 128.836L 15.8047 128.836L 15.8047 139.004L 11 139.004z"/>
<path style="stroke:none; fill-rule:evenodd; fill:#000000" d="M 5.2031 126.203L 19 126.203L 19 122.606L 11.7227 122.606C 9.6445 122.606 8.6055 121.559 8.6055 119.465C 8.6055 119.082 8.6055 118.828 8.6133 118.34L 5.0039 118.34C 5.0039 118.543 5.0039 118.672 5.0039 118.774C 5.0039 120.406 6.0586 121.84 7.8945 122.606L 5.2031 122.606L 5.2031 126.203z"/>
<path style="stroke:none; fill-rule:evenodd; fill:#000000" d="M 5.2031 116.203L 19 116.203L 19 112.606L 11.7227 112.606C 9.6445 112.606 8.6055 111.559 8.6055 109.465C 8.6055 109.082 8.6055 108.828 8.6133 108.34L 5.0039 108.34C 5.0039 108.543 5.0039 108.672 5.0039 108.774C 5.0039 110.406 6.0586 111.84 7.8945 112.606L 5.2031 112.606L 5.2031 116.203z"/>
<path style="stroke:none; fill-rule:evenodd; fill:#000000" d="M 5.0039 100.18C 5.0039 104.41 7.7852 107 12.3008 107C 16.8438 107 19.5977 104.41 19.5977 100.153C 19.5977 95.949 16.8164 93.305 12.4024 93.305C 7.7344 93.305 5.0039 95.844 5.0039 100.18zM 7.9024 100.153C 7.9024 98.184 9.6563 96.903 12.3516 96.903C 14.918 96.903 16.6992 98.231 16.6992 100.153C 16.6992 102.094 14.9219 103.403 12.3008 103.403C 9.6836 103.403 7.9024 102.098 7.9024 100.153z"/>
<path style="stroke:none; fill-rule:evenodd; fill:#000000" d="M 5.2031 90.602L 19 90.602L 19 87.004L 11.7227 87.004C 9.6445 87.004 8.6055 85.957 8.6055 83.863C 8.6055 83.481 8.6055 83.227 8.6133 82.739L 5.0039 82.739C 5.0039 82.942 5.0039 83.071 5.0039 83.172C 5.0039 84.805 6.0586 86.239 7.8945 87.004L 5.2031 87.004L 5.2031 90.602z"/>
<path style="stroke:none; fill-rule:evenodd; fill:#000000" d="M 0.304699 70.02C 4.7422 72.969 8.2813 74.203 12.2031 74.203C 16.1485 74.203 19.6875 72.973 24.1211 70.02L 24.1211 67.453C 18.8438 70.219 15.9727 71.106 12.2031 71.106C 8.4609 71.106 5.5391 70.219 0.304699 67.453L 0.304699 70.02z"/>
<path style="stroke:none; fill-rule:evenodd; fill:#000000" d="M 1.1016 61.305C 1.1016 63.883 3.1953 66.004 5.75 66.004C 8.3047 66.004 10.3985 63.887 10.3985 61.305C 10.3985 58.754 8.3047 56.606 5.8008 56.606C 3.1719 56.606 1.1016 58.672 1.1016 61.305zM 3.6016 61.305C 3.6016 60.09 4.5547 59.106 5.7617 59.106C 6.918 59.106 7.8985 60.113 7.8985 61.305C 7.8985 62.52 6.9219 63.504 5.7383 63.504C 4.582 63.504 3.6016 62.524 3.6016 61.305zM 0.859398 51.094L 19.5039 61.227L 19.5039 59.258L 0.859398 49.153L 0.859398 51.094zM 10.0039 49.203C 10.0039 51.781 12.0938 53.903 14.6406 53.903C 17.2109 53.903 19.3008 51.785 19.3008 49.203C 19.3008 46.649 17.2149 44.504 14.7149 44.504C 12.0664 44.504 10 46.571 10 49.203L 10.0039 49.203zM 12.5274 49.227C 12.5274 48.028 13.4961 47.055 14.6992 47.055C 15.8477 47.055 16.8203 48.051 16.8203 49.227C 16.8203 50.426 15.8477 51.399 14.6719 51.399C 13.4961 51.399 12.5235 50.43 12.5235 49.227L 12.5274 49.227z"/>
<path style="stroke:none; fill-rule:evenodd; fill:#000000" d="M 24.1211 40.778C 19.6875 37.836 16.1524 36.602 12.2305 36.602C 8.2852 36.602 4.7461 37.828 0.308598 40.778L 0.308598 43.336C 5.5899 40.586 8.4609 39.699 12.2305 39.699C 15.9727 39.699 18.8945 40.582 24.1211 43.336L 24.1211 40.778z"/>
<path style="stroke:#000000; stroke-width:0.95664899999999997; fill:none" d="M 66.8247 330.699L 493.067 330.699L 493.067 35.61L 66.8247 35.61L 66.8247 330.699z"/>
<path style="stroke:none; fill-rule:evenodd; fill:#000000" d="M 137.055 6.66803C 136.926 5.05103 136.594 4.02002 135.801 2.96503C 134.367 1.06305 132.063 0.00799561 129.27 0.00799561C 123.993 0.00799561 120.711 3.77802 120.711 9.83203C 120.711 15.832 123.965 19.602 129.164 19.602C 133.801 19.602 136.903 16.914 137.133 12.633L 133.379 12.633C 133.149 15.031 131.633 16.403 129.243 16.403C 126.262 16.403 124.512 13.992 124.512 9.90601C 124.512 5.77405 126.336 3.30902 129.371 3.30902C 130.707 3.30902 131.813 3.77002 132.532 4.66803C 132.942 5.18005 133.149 5.66803 133.379 6.66803L 137.055 6.66803z"/>
<path style="stroke:none; fill-rule:evenodd; fill:#000000" d="M 139.703 5.203L 139.703 19L 143.301 19L 143.301 11.723C 143.301 9.64502 144.348 8.60602 146.442 8.60602C 146.825 8.60602 147.078 8.60602 147.567 8.61304L 147.567 5.00403C 147.364 5.00403 147.235 5.00403 147.133 5.00403C 145.5 5.00403 144.067 6.05902 143.301 7.89502L 143.301 5.203L 139.703 5.203z"/>
<path style="stroke:none; fill-rule:evenodd; fill:#000000" d="M 155.727 5.00403C 151.496 5.00403 148.907 7.78503 148.907 12.301C 148.907 16.844 151.496 19.598 155.754 19.598C 159.957 19.598 162.602 16.817 162.602 12.403C 162.602 7.73505 160.063 5.00403 155.727 5.00403zM 155.754 7.90302C 157.723 7.90302 159.004 9.65601 159.004 12.3521C 159.004 14.918 157.676 16.699 155.754 16.699C 153.813 16.699 152.504 14.922 152.504 12.301C 152.504 9.68402 153.809 7.90302 155.754 7.90302z"/>
<path style="stroke:none; fill-rule:evenodd; fill:#000000" d="M 176.625 9.63702C 176.575 6.75403 174.317 5.00403 170.598 5.00403C 167.086 5.00403 164.907 6.76605 164.907 9.60205C 164.907 10.52 165.188 11.313 165.672 11.848C 166.157 12.332 166.59 12.563 167.922 12.996L 172.196 14.321C 173.09 14.598 173.399 14.879 173.399 15.442C 173.399 16.281 172.407 16.793 170.746 16.793C 169.828 16.793 169.09 16.613 168.629 16.301C 168.246 16.016 168.094 15.731 167.942 14.981L 164.45 14.981C 164.551 18.004 166.774 19.594 170.969 19.594C 172.887 19.594 174.344 19.188 175.364 18.371C 176.383 17.555 177 16.278 177 14.926C 177 13.1411 176.106 11.992 174.285 11.453L 169.754 10.153C 168.758 9.84802 168.5 9.64502 168.5 9.08203C 168.5 8.31702 169.317 7.80505 170.575 7.80505C 172.289 7.80505 173.133 8.40601 173.16 9.63702L 176.625 9.63702z"/>
<path style="stroke:none; fill-rule:evenodd; fill:#000000" d="M 190.825 9.63702C 190.774 6.75403 188.516 5.00403 184.797 5.00403C 181.285 5.00403 179.106 6.76605 179.106 9.60205C 179.106 10.52 179.387 11.313 179.871 11.848C 180.356 12.332 180.789 12.563 182.121 12.996L 186.395 14.321C 187.289 14.598 187.598 14.879 187.598 15.442C 187.598 16.281 186.606 16.793 184.946 16.793C 184.028 16.793 183.289 16.613 182.828 16.301C 182.446 16.016 182.293 15.731 182.141 14.981L 178.649 14.981C 178.75 18.004 180.973 19.594 185.168 19.594C 187.086 19.594 188.543 19.188 189.563 18.371C 190.582 17.555 191.2 16.278 191.2 14.926C 191.2 13.1411 190.305 11.992 188.485 11.453L 183.953 10.153C 182.957 9.84802 182.7 9.64502 182.7 9.08203C 182.7 8.31702 183.516 7.80505 184.774 7.80505C 186.489 7.80505 187.332 8.40601 187.36 9.63702L 190.825 9.63702z"/>
<path style="stroke:none; fill-rule:evenodd; fill:#000000" d="M 193.125 14.602L 206.02 14.602L 206.02 11.6021L 193.125 11.6021L 193.125 14.602z"/>
<path style="stroke:none; fill-rule:evenodd; fill:#000000" d="M 216.903 3.50403L 222.407 3.50403L 222.407 0.305054L 207.465 0.305054L 207.465 3.50403L 213.106 3.50403L 213.106 19.004L 216.903 19.004L 216.903 3.50403z"/>
<path style="stroke:none; fill-rule:evenodd; fill:#000000" d="M 236.114 18.582C 235.485 17.996 235.305 17.613 235.305 16.899L 235.305 9.242C 235.305 6.43805 233.383 5.008 229.645 5.008C 225.907 5.008 223.961 6.578 223.731 9.742L 227.192 9.742C 227.367 8.35602 227.957 7.90601 229.727 7.90601C 231.11 7.90601 231.801 8.367 231.801 9.28101C 231.801 9.73901 231.571 10.145 231.188 10.348C 230.703 10.6021 230.703 10.6021 228.93 10.883L 227.493 11.137C 224.746 11.5941 223.41 12.996 223.41 15.465C 223.41 16.637 223.743 17.606 224.383 18.293C 225.176 19.106 226.379 19.59 227.61 19.59C 229.145 19.59 230.551 18.93 231.809 17.625C 231.809 18.336 231.883 18.594 232.219 19L 236.117 19L 236.114 18.582zM 231.805 13.449C 231.805 15.52 230.782 16.699 228.957 16.699C 227.754 16.699 227.008 16.063 227.008 15.039C 227.008 13.965 227.571 13.453 229.059 13.145L 230.289 12.918C 231.239 12.742 231.391 12.692 231.801 12.485L 231.805 13.449z"/>
<path style="stroke:none; fill-rule:evenodd; fill:#000000" d="M 249.825 9.63702C 249.774 6.75403 247.516 5.00403 243.797 5.00403C 240.285 5.00403 238.106 6.76605 238.106 9.60205C 238.106 10.52 238.387 11.313 238.871 11.848C 239.356 12.332 239.789 12.563 241.121 12.996L 245.395 14.321C 246.289 14.598 246.598 14.879 246.598 15.442C 246.598 16.281 245.606 16.793 243.946 16.793C 243.028 16.793 242.289 16.613 241.828 16.301C 241.446 16.016 241.293 15.731 241.141 14.981L 237.649 14.981C 237.75 18.004 239.973 19.594 244.168 19.594C 246.086 19.594 247.543 19.188 248.563 18.371C 249.582 17.555 250.2 16.278 250.2 14.926C 250.2 13.1411 249.305 11.992 247.485 11.453L 242.953 10.153C 241.957 9.84802 241.7 9.64502 241.7 9.08203C 241.7 8.31702 242.516 7.80505 243.774 7.80505C 245.489 7.80505 246.332 8.40601 246.36 9.63702L 249.825 9.63702z"/>
<path style="stroke:none; fill-rule:evenodd; fill:#000000" d="M 256.305 10.539L 256.305 0.305054L 252.707 0.305054L 252.707 19.004L 256.305 19.004L 256.305 14.477L 257.735 12.918L 261.032 19.008L 265.223 19.008L 260.188 10.395L 264.891 5.164L 260.828 5.164L 256.305 10.539z"/>
<path style="stroke:none; fill-rule:evenodd; fill:#000000" d="M 290.7 9.00403L 283.219 9.00403L 283.219 12.203L 287.469 12.203C 287.367 13.239 287.114 13.871 286.547 14.528C 285.625 15.637 284.219 16.297 282.735 16.297C 279.637 16.297 277.41 13.586 277.41 9.75C 277.41 5.73505 279.379 3.30103 282.633 3.30103C 283.961 3.30103 285.09 3.68402 285.934 4.43005C 286.469 4.89105 286.75 5.328 287.082 6.30505L 290.696 6.30505C 290.235 2.44604 287.117 0 282.621 0C 277.258 0 273.606 3.97705 273.606 9.797C 273.606 15.465 277.282 19.594 282.317 19.594C 284.821 19.594 286.504 18.703 287.934 16.61L 288.391 19.059L 290.692 19.059L 290.7 9.00403z"/>
<path style="stroke:none; fill-rule:evenodd; fill:#000000" d="M 305.813 13.203C 305.836 12.903 305.836 12.774 305.836 12.598C 305.836 11.231 305.633 9.961 305.301 8.99603C 304.383 6.51202 302.157 5.01202 299.367 5.01202C 295.403 5.01202 292.973 7.867 292.973 12.489C 292.973 16.903 295.375 19.606 299.293 19.606C 302.387 19.606 304.895 17.836 305.688 15.117L 302.157 15.117C 301.723 16.246 300.727 16.903 299.422 16.903C 298.403 16.903 297.582 16.461 297.071 15.68C 296.739 15.16 296.61 14.535 296.559 13.207L 305.813 13.203zM 296.602 10.801C 296.828 8.73901 297.727 7.703 299.313 7.703C 300.207 7.703 301.024 8.12903 301.539 8.836C 301.867 9.34003 302.024 9.867 302.102 10.801L 296.602 10.801z"/>
<path style="stroke:none; fill-rule:evenodd; fill:#000000" d="M 308.203 5.203L 308.203 19L 311.801 19L 311.801 10.715C 311.801 9.078 312.95 8.00403 314.692 8.00403C 316.227 8.00403 316.996 8.84802 316.996 10.485L 316.996 19L 320.594 19L 320.594 9.77405C 320.594 6.742 318.903 5.00403 315.953 5.00403C 314.082 5.00403 312.825 5.68005 311.801 7.18005L 311.801 5.203L 308.203 5.203z"/>
<path style="stroke:none; fill-rule:evenodd; fill:#000000" d="M 335.711 13.203C 335.735 12.903 335.735 12.774 335.735 12.598C 335.735 11.231 335.532 9.961 335.2 8.99603C 334.282 6.51202 332.055 5.01202 329.266 5.01202C 325.301 5.01202 322.871 7.867 322.871 12.489C 322.871 16.903 325.274 19.606 329.192 19.606C 332.285 19.606 334.793 17.836 335.586 15.117L 332.055 15.117C 331.621 16.246 330.625 16.903 329.321 16.903C 328.301 16.903 327.481 16.461 326.969 15.68C 326.637 15.16 326.508 14.535 326.457 13.207L 335.711 13.203zM 326.5 10.801C 326.727 8.73901 327.625 7.703 329.211 7.703C 330.106 7.703 330.922 8.12903 331.438 8.836C 331.766 9.34003 331.922 9.867 332 10.801L 326.5 10.801z"/>
<path style="stroke:none; fill-rule:evenodd; fill:#000000" d="M 338.102 5.203L 338.102 19L 341.7 19L 341.7 11.723C 341.7 9.64502 342.746 8.60602 344.84 8.60602C 345.223 8.60602 345.477 8.60602 345.965 8.61304L 345.965 5.00403C 345.762 5.00403 345.633 5.00403 345.532 5.00403C 343.899 5.00403 342.465 6.05902 341.7 7.89502L 341.7 5.203L 338.102 5.203z"/>
<path style="stroke:none; fill-rule:evenodd; fill:#000000" d="M 359.91 18.582C 359.282 17.996 359.102 17.613 359.102 16.899L 359.102 9.242C 359.102 6.43805 357.18 5.008 353.442 5.008C 349.703 5.008 347.758 6.578 347.528 9.742L 350.989 9.742C 351.164 8.35602 351.754 7.90601 353.524 7.90601C 354.907 7.90601 355.598 8.367 355.598 9.28101C 355.598 9.73901 355.367 10.145 354.985 10.348C 354.5 10.6021 354.5 10.6021 352.727 10.883L 351.289 11.137C 348.543 11.5941 347.207 12.996 347.207 15.465C 347.207 16.637 347.539 17.606 348.18 18.293C 348.973 19.106 350.176 19.59 351.407 19.59C 352.942 19.59 354.348 18.93 355.606 17.625C 355.606 18.336 355.68 18.594 356.016 19L 359.914 19L 359.91 18.582zM 355.602 13.449C 355.602 15.52 354.578 16.699 352.754 16.699C 351.551 16.699 350.805 16.063 350.805 15.039C 350.805 13.965 351.367 13.453 352.856 13.145L 354.086 12.918C 355.035 12.742 355.188 12.692 355.598 12.485L 355.602 13.449z"/>
<path style="stroke:none; fill-rule:evenodd; fill:#000000" d="M 362.403 19.004L 366 19.004L 366 0.305054L 362.403 0.305054L 362.403 19.004z"/>
<path style="stroke:none; fill-rule:evenodd; fill:#000000" d="M 373.102 5.18402L 369.504 5.18402L 369.504 19L 373.102 19L 373.102 5.18402zM 373.102 0.301025L 369.504 0.301025L 369.504 3.5L 373.102 3.5L 373.102 0.301025z"/>
<path style="stroke:none; fill-rule:evenodd; fill:#000000" d="M 386.649 5.203L 375.903 5.203L 375.903 8.10205L 382.274 8.10205L 375.446 16.102L 375.446 19L 386.883 19L 386.883 16.102L 379.871 16.102L 386.653 8.10205L 386.649 5.203z"/>
<path style="stroke:none; fill-rule:evenodd; fill:#000000" d="M 401.114 18.582C 400.485 17.996 400.305 17.613 400.305 16.899L 400.305 9.242C 400.305 6.43805 398.383 5.008 394.645 5.008C 390.907 5.008 388.961 6.578 388.731 9.742L 392.192 9.742C 392.367 8.35602 392.957 7.90601 394.727 7.90601C 396.11 7.90601 396.801 8.367 396.801 9.28101C 396.801 9.73901 396.571 10.145 396.188 10.348C 395.703 10.6021 395.703 10.6021 393.93 10.883L 392.493 11.137C 389.746 11.5941 388.41 12.996 388.41 15.465C 388.41 16.637 388.743 17.606 389.383 18.293C 390.176 19.106 391.379 19.59 392.61 19.59C 394.145 19.59 395.551 18.93 396.809 17.625C 396.809 18.336 396.883 18.594 397.219 19L 401.117 19L 401.114 18.582zM 396.805 13.449C 396.805 15.52 395.782 16.699 393.957 16.699C 392.754 16.699 392.008 16.063 392.008 15.039C 392.008 13.965 392.571 13.453 394.059 13.145L 395.289 12.918C 396.239 12.742 396.391 12.692 396.801 12.485L 396.805 13.449z"/>
<path style="stroke:none; fill-rule:evenodd; fill:#000000" d="M 409.606 5.5L 407.606 5.5L 407.606 1.75403L 404.008 1.75403L 404.008 5.5L 402.27 5.5L 402.27 7.89905L 404.008 7.89905L 404.008 16.36C 404.008 18.524 405.16 19.594 407.528 19.594C 408.321 19.594 408.965 19.52 409.606 19.313L 409.606 16.797C 409.25 16.863 409.043 16.895 408.785 16.895C 407.836 16.895 407.606 16.617 407.606 15.391L 407.606 7.89905L 409.606 7.89905L 409.606 5.5z"/>
<path style="stroke:none; fill-rule:evenodd; fill:#000000" d="M 415.805 5.18402L 412.207 5.18402L 412.207 19L 415.805 19L 415.805 5.18402zM 415.805 0.301025L 412.207 0.301025L 412.207 3.5L 415.805 3.5L 415.805 0.301025z"/>
<path style="stroke:none; fill-rule:evenodd; fill:#000000" d="M 425.328 5.00403C 421.098 5.00403 418.508 7.78503 418.508 12.301C 418.508 16.844 421.098 19.598 425.356 19.598C 429.559 19.598 432.203 16.817 432.203 12.403C 432.203 7.73505 429.664 5.00403 425.328 5.00403zM 425.352 7.90302C 427.321 7.90302 428.602 9.65601 428.602 12.3521C 428.602 14.918 427.274 16.699 425.352 16.699C 423.41 16.699 422.102 14.922 422.102 12.301C 422.102 9.68402 423.407 7.90302 425.352 7.90302z"/>
<path style="stroke:none; fill-rule:evenodd; fill:#000000" d="M 434.805 5.203L 434.805 19L 438.403 19L 438.403 10.715C 438.403 9.078 439.551 8.00403 441.293 8.00403C 442.828 8.00403 443.598 8.84802 443.598 10.485L 443.598 19L 447.196 19L 447.196 9.77405C 447.196 6.742 445.504 5.00403 442.555 5.00403C 440.684 5.00403 439.426 5.68005 438.403 7.18005L 438.403 5.203L 434.805 5.203z"/>
<path style="stroke:none; fill-rule:evenodd; fill:#ffffff" d="M 310.68 97.938L 477.817 97.938L 477.817 47.559L 310.68 47.559L 310.68 97.938z"/>
<path style="stroke:#ffffff; stroke-width:0.0; fill:none" d="M 310.68 97.938L 477.817 97.938L 477.817 47.559L 310.68 47.559L 310.68 97.938z"/>
<path style="stroke:#000000; stroke-width:0.95664899999999997; fill:none" d="M 310.68 97.938L 477.817 97.938L 477.817 47.559L 310.68 47.559L 310.68 97.938z"/>
<path style="stroke:none; fill-rule:evenodd; fill:#000000" d="M 372.403 53.102L 377.606 53.102L 377.606 51.305L 365.258 51.305L 365.258 53.102L 370.403 53.102L 370.403 67L 372.403 67L 372.403 53.102z"/>
<path style="stroke:none; fill-rule:evenodd; fill:#000000" d="M 389.453 65.946C 389.262 66.004 389.176 66.004 389.071 66.004C 388.45 66.004 388.106 65.684 388.106 65.121L 388.106 58.489C 388.106 56.485 386.637 55.41 383.848 55.41C 382.207 55.41 380.844 55.879 380.09 56.711C 379.575 57.285 379.356 57.926 379.313 59.039L 381.125 59.039C 381.274 57.711 382.094 57.11 383.778 57.11C 385.395 57.11 386.301 57.707 386.301 58.781L 386.301 59.25C 386.301 60 385.848 60.321 384.422 60.492C 381.875 60.813 381.485 60.899 380.793 61.176C 379.477 61.711 378.809 62.719 378.809 64.176C 378.809 66.211 380.235 67.496 382.524 67.496C 383.95 67.496 385.094 67 386.367 65.832C 386.496 66.977 387.055 67.496 388.223 67.496C 388.586 67.496 388.867 67.453 389.453 67.305L 389.453 65.946zM 386.301 63.434C 386.301 64.035 386.125 64.399 385.578 64.895C 384.836 65.559 383.938 65.903 382.864 65.903C 381.442 65.903 380.606 65.239 380.606 64.098C 380.606 62.918 381.414 62.317 383.367 62.035C 385.293 61.778 385.688 61.692 386.305 61.414L 386.301 63.434z"/>
<path style="stroke:none; fill-rule:evenodd; fill:#000000" d="M 399.461 58.84C 399.442 56.641 397.989 55.403 395.403 55.403C 392.797 55.403 391.11 56.754 391.11 58.832C 391.11 60.59 392.012 61.426 394.684 62.067L 396.364 62.473C 397.61 62.77 398.106 63.223 398.106 64.035C 398.106 65.086 397.039 65.793 395.45 65.793C 394.469 65.793 393.641 65.52 393.184 65.051C 392.903 64.735 392.774 64.414 392.664 63.629L 390.746 63.629C 390.832 66.242 392.297 67.496 395.25 67.496C 398.094 67.496 399.907 66.106 399.907 63.938C 399.907 62.266 398.961 61.344 396.719 60.809L 394.996 60.403C 393.535 60.063 392.91 59.59 392.91 58.797C 392.91 57.77 393.836 57.106 395.301 57.106C 396.743 57.106 397.52 57.703 397.563 58.844L 399.461 58.84z"/>
<path style="stroke:none; fill-rule:evenodd; fill:#000000" d="M 403.703 51.301L 401.907 51.301L 401.907 67L 403.703 67L 403.703 62.598L 405.461 60.871L 409.301 67L 411.535 67L 406.891 59.606L 410.84 55.703L 408.52 55.703L 403.703 60.481L 403.703 51.301z"/>
<path style="stroke:none; fill-rule:evenodd; fill:#000000" d="M 421.504 60.301L 426.422 60.301C 427.645 60.301 428.61 59.938 429.45 59.188C 430.391 58.332 430.801 57.324 430.801 55.891C 430.801 52.957 429.063 51.305 425.969 51.305L 419.504 51.305L 419.504 67.004L 421.504 67.004L 421.504 60.301zM 421.504 58.504L 421.504 53.106L 425.657 53.106C 427.563 53.106 428.7 54.117 428.7 55.805C 428.7 57.489 427.567 58.504 425.657 58.504L 421.504 58.504z"/>
<path style="stroke:none; fill-rule:evenodd; fill:#000000" d="M 443.453 65.946C 443.262 66.004 443.176 66.004 443.071 66.004C 442.45 66.004 442.106 65.684 442.106 65.121L 442.106 58.489C 442.106 56.485 440.637 55.41 437.848 55.41C 436.207 55.41 434.844 55.879 434.09 56.711C 433.575 57.285 433.356 57.926 433.313 59.039L 435.125 59.039C 435.274 57.711 436.094 57.11 437.778 57.11C 439.395 57.11 440.301 57.707 440.301 58.781L 440.301 59.25C 440.301 60 439.848 60.321 438.422 60.492C 435.875 60.813 435.485 60.899 434.793 61.176C 433.477 61.711 432.809 62.719 432.809 64.176C 432.809 66.211 434.235 67.496 436.524 67.496C 437.95 67.496 439.094 67 440.367 65.832C 440.496 66.977 441.055 67.496 442.223 67.496C 442.586 67.496 442.867 67.453 443.453 67.305L 443.453 65.946zM 440.301 63.434C 440.301 64.035 440.125 64.399 439.578 64.895C 438.836 65.559 437.938 65.903 436.864 65.903C 435.442 65.903 434.606 65.239 434.606 64.098C 434.606 62.918 435.414 62.317 437.367 62.035C 439.293 61.778 439.688 61.692 440.305 61.414L 440.301 63.434z"/>
<path style="stroke:none; fill-rule:evenodd; fill:#000000" d="M 447.203 55.703L 445.407 55.703L 445.407 67L 447.203 67L 447.203 55.703zM 447.203 51.301L 445.407 51.301L 445.407 53.528L 447.203 53.528L 447.203 51.301z"/>
<path style="stroke:none; fill-rule:evenodd; fill:#000000" d="M 450.203 55.727L 450.203 67L 452 67L 452 61.153C 452 59.543 452.41 58.489 453.274 57.863C 453.832 57.457 454.375 57.328 455.629 57.305L 455.629 55.473C 455.332 55.43 455.184 55.41 454.95 55.41C 453.801 55.41 452.926 56.098 451.903 57.778L 451.903 55.735L 450.203 55.727z"/>
<path style="stroke:none; fill-rule:evenodd; fill:#000000" d="M 465.36 58.84C 465.34 56.641 463.887 55.403 461.301 55.403C 458.696 55.403 457.008 56.754 457.008 58.832C 457.008 60.59 457.91 61.426 460.582 62.067L 462.262 62.473C 463.508 62.77 464.004 63.223 464.004 64.035C 464.004 65.086 462.938 65.793 461.348 65.793C 460.367 65.793 459.539 65.52 459.082 65.051C 458.801 64.735 458.672 64.414 458.563 63.629L 456.645 63.629C 456.731 66.242 458.196 67.496 461.149 67.496C 463.993 67.496 465.805 66.106 465.805 63.938C 465.805 62.266 464.86 61.344 462.617 60.809L 460.895 60.403C 459.434 60.063 458.809 59.59 458.809 58.797C 458.809 57.77 459.735 57.106 461.2 57.106C 462.641 57.106 463.418 57.703 463.461 58.844L 465.36 58.84z"/>
<path style="stroke:none; fill-rule:evenodd; fill:#000000" d="M 375.039 83.903L 376.657 88.598L 378.899 88.598L 373.371 72.899L 370.782 72.899L 365.168 88.598L 367.305 88.598L 368.965 83.903L 375.039 83.903zM 374.477 82.203L 369.469 82.203L 372.059 75.024L 374.477 82.203z"/>
<path style="stroke:none; fill-rule:evenodd; fill:#000000" d="M 380.703 88.602L 382.5 88.602L 382.5 72.903L 380.703 72.903L 380.703 88.602z"/>
<path style="stroke:none; fill-rule:evenodd; fill:#000000" d="M 385.504 88.602L 387.301 88.602L 387.301 72.903L 385.504 72.903L 385.504 88.602z"/>
<path style="stroke:none; fill-rule:evenodd; fill:#000000" d="M 402.305 74.703L 407.508 74.703L 407.508 72.906L 395.16 72.906L 395.16 74.703L 400.305 74.703L 400.305 88.602L 402.305 88.602L 402.305 74.703z"/>
<path style="stroke:none; fill-rule:evenodd; fill:#000000" d="M 419.453 87.543C 419.262 87.602 419.176 87.602 419.071 87.602C 418.45 87.602 418.106 87.281 418.106 86.719L 418.106 80.086C 418.106 78.082 416.637 77.008 413.848 77.008C 412.207 77.008 410.844 77.477 410.09 78.309C 409.575 78.883 409.356 79.524 409.313 80.637L 411.125 80.637C 411.274 79.309 412.094 78.707 413.778 78.707C 415.395 78.707 416.301 79.305 416.301 80.379L 416.301 80.848C 416.301 81.598 415.848 81.918 414.422 82.09C 411.875 82.41 411.485 82.496 410.793 82.774C 409.477 83.309 408.809 84.317 408.809 85.774C 408.809 87.809 410.235 89.094 412.524 89.094C 413.95 89.094 415.094 88.598 416.367 87.43C 416.496 88.574 417.055 89.094 418.223 89.094C 418.586 89.094 418.867 89.051 419.453 88.903L 419.453 87.543zM 416.301 85.031C 416.301 85.633 416.125 85.996 415.578 86.492C 414.836 87.156 413.938 87.5 412.864 87.5C 411.442 87.5 410.606 86.836 410.606 85.696C 410.606 84.516 411.414 83.914 413.367 83.633C 415.293 83.375 415.688 83.289 416.305 83.012L 416.301 85.031z"/>
<path style="stroke:none; fill-rule:evenodd; fill:#000000" d="M 429.36 80.442C 429.34 78.242 427.887 77.004 425.301 77.004C 422.696 77.004 421.008 78.356 421.008 80.434C 421.008 82.192 421.91 83.028 424.582 83.668L 426.262 84.074C 427.508 84.371 428.004 84.824 428.004 85.637C 428.004 86.688 426.938 87.395 425.348 87.395C 424.367 87.395 423.539 87.121 423.082 86.653C 422.801 86.336 422.672 86.016 422.563 85.231L 420.645 85.231C 420.731 87.844 422.196 89.098 425.149 89.098C 427.993 89.098 429.805 87.707 429.805 85.539C 429.805 83.867 428.86 82.946 426.617 82.41L 424.895 82.004C 423.434 81.664 422.809 81.192 422.809 80.399C 422.809 79.371 423.735 78.707 425.2 78.707C 426.641 78.707 427.418 79.305 427.461 80.446L 429.36 80.442z"/>
<path style="stroke:none; fill-rule:evenodd; fill:#000000" d="M 433.703 72.903L 431.907 72.903L 431.907 88.602L 433.703 88.602L 433.703 84.199L 435.461 82.473L 439.301 88.602L 441.535 88.602L 436.891 81.207L 440.84 77.305L 438.52 77.305L 433.703 82.082L 433.703 72.903z"/>
<path style="stroke:none; fill-rule:evenodd; fill:#000000" d="M 450.961 80.442C 450.942 78.242 449.489 77.004 446.903 77.004C 444.297 77.004 442.61 78.356 442.61 80.434C 442.61 82.192 443.512 83.028 446.184 83.668L 447.864 84.074C 449.11 84.371 449.606 84.824 449.606 85.637C 449.606 86.688 448.539 87.395 446.95 87.395C 445.969 87.395 445.141 87.121 444.684 86.653C 444.403 86.336 444.274 86.016 444.164 85.231L 442.246 85.231C 442.332 87.844 443.797 89.098 446.75 89.098C 449.594 89.098 451.407 87.707 451.407 85.539C 451.407 83.867 450.461 82.946 448.219 82.41L 446.496 82.004C 445.035 81.664 444.41 81.192 444.41 80.399C 444.41 79.371 445.336 78.707 446.801 78.707C 448.243 78.707 449.02 79.305 449.063 80.446L 450.961 80.442z"/>
<path style="stroke:none; fill-rule:evenodd; fill:#000000" d="M 327.598 69.149L 351.586 69.149L 351.586 53.957L 327.598 53.957L 327.598 69.149z"/>
<path style="stroke:#000000; stroke-width:0.0; fill:none" d="M 327.598 69.149L 351.586 69.149L 351.586 53.957L 327.598 53.957L 327.598 69.149z"/>
<path style="stroke:#000000; stroke-width:0.95664899999999997; fill:none" d="M 327.598 69.149L 351.586 69.149L 351.586 53.957L 327.598 53.957L 327.598 69.149z"/>
<path style="stroke:none; fill-rule:evenodd; fill:#dcdcdc" d="M 327.598 91.539L 351.586 91.539L 351.586 76.348L 327.598 76.348L 327.598 91.539z"/>
<path style="stroke:#dcdcdc; stroke-width:0.0; fill:none" d="M 327.598 91.539L 351.586 91.539L 351.586 76.348L 327.598 76.348L 327.598 91.539z"/>
<path style="stroke:#000000; stroke-width:0.95664899999999997; fill:none" d="M 327.598 91.539L 351.586 91.539L 351.586 76.348L 327.598 76.348L 327.598 91.539z"/>
</g>
</svg>