<?xml version="1.0" encoding="UTF-8" standalone="no"?>
<svg
   xmlns:dc="http://purl.org/dc/elements/1.1/"
   xmlns:cc="http://creativecommons.org/ns#"
   xmlns:rdf="http://www.w3.org/1999/02/22-rdf-syntax-ns#"
   xmlns:svg="http://www.w3.org/2000/svg"
   xmlns="http://www.w3.org/2000/svg"
   xmlns:sodipodi="http://sodipodi.sourceforge.net/DTD/sodipodi-0.dtd"
   xmlns:inkscape="http://www.inkscape.org/namespaces/inkscape"
   version="1.1"
   width="8.5in"
   height="11in"
   viewBox="0 0 1912.5 2475"
   id="svg2"
   inkscape:version="0.91 r13725"
   sodipodi:docname="fig_deepleabra_wwi_pred_remap_untraj.svg"
   inkscape:export-filename="/Users/oreilly/svn_docs/figs/fig_deepleabra_wwi_pred_remap_untraj.png"
   inkscape:export-xdpi="149.95799"
   inkscape:export-ydpi="149.95799">
  <metadata
     id="metadata104">
    <rdf:RDF>
      <cc:Work
         rdf:about="">
        <dc:format>image/svg+xml</dc:format>
        <dc:type
           rdf:resource="http://purl.org/dc/dcmitype/StillImage" />
        <dc:title></dc:title>
      </cc:Work>
    </rdf:RDF>
  </metadata>
  <defs
     id="defs102">
    <marker
       inkscape:isstock="true"
       style="overflow:visible;"
       id="marker4699"
       refX="0.0"
       refY="0.0"
       orient="auto"
       inkscape:stockid="Arrow2Mend">
      <path
         transform="scale(0.6) rotate(180) translate(0,0)"
         d="M 8.7185878,4.0337352 L -2.2072895,0.016013256 L 8.7185884,-4.0017078 C 6.9730900,-1.6296469 6.9831476,1.6157441 8.7185878,4.0337352 z "
         style="fill-rule:evenodd;stroke-width:0.625;stroke-linejoin:round;stroke:#000000;stroke-opacity:1;fill:#000000;fill-opacity:1"
         id="path4701" />
    </marker>
    <marker
       inkscape:stockid="Arrow2Mend"
       orient="auto"
       refY="0.0"
       refX="0.0"
       id="Arrow2Mend"
       style="overflow:visible;"
       inkscape:isstock="true"
       inkscape:collect="always">
      <path
         id="path4418"
         style="fill-rule:evenodd;stroke-width:0.625;stroke-linejoin:round;stroke:#000000;stroke-opacity:1;fill:#000000;fill-opacity:1"
         d="M 8.7185878,4.0337352 L -2.2072895,0.016013256 L 8.7185884,-4.0017078 C 6.9730900,-1.6296469 6.9831476,1.6157441 8.7185878,4.0337352 z "
         transform="scale(0.6) rotate(180) translate(0,0)" />
    </marker>
  </defs>
  <sodipodi:namedview
     pagecolor="#ffffff"
     bordercolor="#666666"
     borderopacity="1"
     objecttolerance="10"
     gridtolerance="10"
     guidetolerance="10"
     inkscape:pageopacity="0"
     inkscape:pageshadow="2"
     inkscape:window-width="640"
     inkscape:window-height="480"
     id="namedview100"
     showgrid="false"
     units="in"
     inkscape:zoom="1.97125"
     inkscape:cx="358.37622"
     inkscape:cy="154.14439"
     inkscape:current-layer="svg2" />
  <rect
     style="opacity:1;fill:#ffffff;fill-opacity:1;fill-rule:nonzero;stroke:#ffffff;stroke-width:2.45590353;stroke-linecap:butt;stroke-linejoin:miter;stroke-miterlimit:4;stroke-dasharray:none;stroke-dashoffset:0;stroke-opacity:1"
     id="rect4733"
     width="1676.6453"
     height="944.87598"
     x="30.415489"
     y="1506.0497" />
  <path
     d="m 193.03933,2291.2799 0,-737.8 1475.59997,0 0,737.8 -1475.59998,0"
     id="path4"
     inkscape:connector-curvature="0"
     style="fill:none;stroke:#000000;stroke-width:4" />
  <text
     style="font-size:37.20000076px;font-family:Arial;text-anchor:middle;fill:#000000"
     id="text8"
     font-size="18.6"
     y="2410.6089"
     x="336.56445">
    <tspan
       style="font-size:50px"
       id="tspan4348">Cycles (msec)</tspan>
  </text>
  <text
     style="font-size:37.20000076px;font-family:Arial;text-anchor:middle;fill:#000000"
     id="text10"
     font-size="18.6"
     y="2354.0798"
     x="182.89349">0</text>
  <text
     style="font-size:37.20000076px;font-family:Arial;text-anchor:middle;fill:#000000"
     id="text12"
     font-size="18.6"
     y="2354.0798"
     x="330.4935">20</text>
  <text
     style="font-size:37.20000076px;font-family:Arial;text-anchor:middle;fill:#000000"
     id="text14"
     font-size="18.6"
     y="2354.0798"
     x="477.89346">40</text>
  <text
     style="font-size:37.20000076px;font-family:Arial;text-anchor:middle;fill:#000000"
     id="text16"
     font-size="18.6"
     y="2354.0798"
     x="625.49347">60</text>
  <text
     style="font-size:37.20000076px;font-family:Arial;text-anchor:middle;fill:#000000"
     id="text18"
     font-size="18.6"
     y="2354.0798"
     x="773.09344">80</text>
  <text
     style="font-size:37.20000076px;font-family:Arial;text-anchor:middle;fill:#000000"
     id="text20"
     font-size="18.6"
     y="2354.0798"
     x="920.69348">100</text>
  <text
     style="font-size:37.20000076px;font-family:Arial;text-anchor:middle;fill:#000000"
     id="text22"
     font-size="18.6"
     y="2354.0798"
     x="1068.2935">120</text>
  <text
     style="font-size:37.20000076px;font-family:Arial;text-anchor:middle;fill:#000000"
     id="text24"
     font-size="18.6"
     y="2354.0798"
     x="1215.6935">140</text>
  <text
     style="font-size:37.20000076px;font-family:Arial;text-anchor:middle;fill:#000000"
     id="text26"
     font-size="18.6"
     y="2354.0798"
     x="1363.2935">160</text>
  <text
     style="font-size:37.20000076px;font-family:Arial;text-anchor:middle;fill:#000000"
     id="text28"
     font-size="18.6"
     y="2354.0798"
     x="1510.8934">180</text>
  <text
     style="font-size:37.20000076px;font-family:Arial;text-anchor:middle;fill:#000000"
     id="text30"
     font-size="18.6"
     y="2354.0798"
     x="1658.4934">200</text>
  <path
     style="fill:none;stroke:#000000;stroke-width:4"
     inkscape:connector-curvature="0"
     id="path32"
     d="m 189.23464,2291.2799 1475.59996,0 m -1475.59997,18.4 0,-36.8 m 147.6,36.8 0,-36.8 m 147.4,36.8 0,-36.8 m 147.6,36.8 0,-36.8 m 147.6,36.8 0,-36.8 m 147.6,36.8 0,-36.8 m 147.59997,36.8 0,-36.8 m 147.4,36.8 0,-36.8 m 147.6,36.8 0,-36.8 m 147.6,36.8 0,-36.8 m 147.6,36.8 0,-36.8" />
  <path
     style="fill:none;stroke:#000000;stroke-width:4"
     inkscape:connector-curvature="0"
     id="path34"
     d="m 189.23466,1554.7481 1475.59994,0 m -1475.59995,18.4 0,-36.8 m 147.6,36.8 0,-36.8 m 147.4,36.8 0,-36.8 m 147.6,36.8 0,-36.8 m 147.6,36.8 0,-36.8 m 147.6,36.8 0,-36.8 m 147.59995,36.8 0,-36.8 m 147.4,36.8 0,-36.8 m 147.6,36.8 0,-36.8 m 147.6,36.8 0,-36.8 m 147.6,36.8 0,-36.8" />
  <text
     style="font-size:37.20000076px;font-family:Arial;text-anchor:end;fill:#000000"
     id="text38"
     font-size="18.6"
     y="2306.0798"
     x="167.23933">0</text>
  <text
     style="font-size:37.20000076px;font-family:Arial;text-anchor:end;fill:#000000"
     id="text40"
     font-size="18.6"
     y="2232.2798"
     x="167.23933">0.1</text>
  <text
     style="font-size:37.20000076px;font-family:Arial;text-anchor:end;fill:#000000"
     id="text42"
     font-size="18.6"
     y="2158.4797"
     x="167.23933">0.2</text>
  <text
     style="font-size:37.20000076px;font-family:Arial;text-anchor:end;fill:#000000"
     id="text44"
     font-size="18.6"
     y="2084.6799"
     x="167.23933">0.3</text>
  <text
     style="font-size:37.20000076px;font-family:Arial;text-anchor:end;fill:#000000"
     id="text46"
     font-size="18.6"
     y="2010.8799"
     x="167.23933">0.4</text>
  <text
     style="font-size:37.20000076px;font-family:Arial;text-anchor:end;fill:#000000"
     id="text48"
     font-size="18.6"
     y="1937.0798"
     x="167.23933">0.5</text>
  <text
     style="font-size:37.20000076px;font-family:Arial;text-anchor:end;fill:#000000"
     id="text50"
     font-size="18.6"
     y="1863.2799"
     x="167.23933">0.6</text>
  <text
     style="font-size:37.20000076px;font-family:Arial;text-anchor:end;fill:#000000"
     id="text52"
     font-size="18.6"
     y="1789.6799"
     x="167.23933">0.7</text>
  <text
     style="font-size:37.20000076px;font-family:Arial;text-anchor:end;fill:#000000"
     id="text54"
     font-size="18.6"
     y="1715.8799"
     x="167.23933">0.8</text>
  <text
     style="font-size:37.20000076px;font-family:Arial;text-anchor:end;fill:#000000"
     id="text56"
     font-size="18.6"
     y="1642.0798"
     x="167.23933">0.9</text>
  <text
     style="font-size:37.20000076px;font-family:Arial;text-anchor:end;fill:#000000"
     id="text58"
     font-size="18.6"
     y="1568.2799"
     x="167.23933">1</text>
  <path
     style="fill:none;stroke:#000000;stroke-width:4"
     inkscape:connector-curvature="0"
     id="path60"
     d="m 193.03933,2291.2799 0,-737.8 m -18.4,737.8 36.79999,0 m -36.8,-73.8 36.8,0 m -36.8,-73.8 36.8,0 m -36.8,-73.8 36.8,0 m -36.8,-73.6 36.8,0 m -36.8,-73.8 36.8,0 m -36.8,-73.8 36.8,0 m -36.8,-73.8 36.8,0 m -36.8,-73.8 36.8,0 m -36.8,-73.8 36.8,0 m -36.8,-73.8 36.8,0" />
  <path
     style="fill:none;stroke:#000000;stroke-width:4"
     inkscape:connector-curvature="0"
     id="path62"
     d="m 1668.6393,2291.2799 0,-737.8 m -18.4,737.8 36.8,0 m -36.8,-73.8 36.8,0 m -36.8,-73.8 36.8,0 m -36.8,-73.8 36.8,0 m -36.8,-73.6 36.8,0 m -36.8,-73.8 36.8,0 m -36.8,-73.8 36.8,0 m -36.8,-73.8 36.8,0 m -36.8,-73.8 36.8,0 m -36.8,-73.8 36.8,0 m -36.8,-73.8 36.8,0" />
  <path
     style="fill:none;stroke:#000000;stroke-width:3.74999994;stroke-miterlimit:4;stroke-dasharray:none"
     inkscape:connector-curvature="0"
     id="path92"
     d="m 193.03933,2291.2799 7.39999,0 7.4,0 7.2,0 7.4,0 7.4,0 7.4,0 7.4,0 7.4,0 7.4,0 7.4,0 7.4,0 7.2,0 7.4,0 7.4,0 7.4,0 7.4,0 7.4,0 7.4,0 7.4,0 7.4,0 7.2,0 7.4,0 7.4,0 7.4,0 7.4,0 7.4,0 7.4,0 7.4,0 7.4,0 7.2,0 7.4,0 7.4,0 7.4,0 7.4,0 7.4,0 7.4,0 7.4,0 7.4,0 7.4,0 7.2,0 7.4,0 7.4,0 7.4,0 7.4,0 7.4,0 7.4,0 7.4,0 7.4,0 7.2,0 7.4,0 7.4,0 7.4,0 7.4,0 7.4,0 7.4,0 7.4,0 7.4,0 7.2,0 7.4,0 7.4,0 7.4,0 7.4,0 7.4,0 7.4,0 7.4,0 7.4,0 7.2,0 7.4,0 7.4,0 7.4,0 7.4,0 7.4,0 7.4,0 7.4,0 7.4,0 7.2,0 7.4,0 7.4,0 7.4,0 7.4,0 7.4,0 7.4,0 7.4,0 7.4,0 7.2,0 7.4,0 7.4,0 7.4,0 7.4,0 7.4,0 7.4,0 7.4,0 7.4,0 7.2,0 7.4,0 7.4,0 7.4,0 7.4,0 7.4,0 7.4,0 7.4,0 7.4,-0.4 7.4,-11 7.2,-158.2 7.4,-106.8 7.4,-72.2 7.4,-50.8 7.4,-36 7.4,-22.4 7.39998,-11.4 7.4,-20 7.4,-23.6 7.2,-22.8 7.4,-19.8 7.4,-16.2 7.4,-12.6 7.4,-9.2 7.4,-6.8 7.4,-5.2 7.4,-3.4 7.4,-2.6 7.2,-1.6 7.4,-1.4 7.4,-1 7.4,-1.2 7.4,-0.6 7.4,-0.8 7.4,-0.2 7.4,0 7.4,0.2 7.2,0 7.4,0.4 7.4,0.2 7.4,0.4 7.4,0 7.4,0.2 7.4,0 7.4,-0.2 7.4,0 7.2,-0.4 7.4,-0.2 7.4,-0.4 7.4,-0.4 7.4,-0.4 7.4,-0.4 7.4,-0.2 7.4,-0.4 7.4,-0.2 7.2,-0.2 7.4,-0.2 7.4,0 7.4,-0.2 7.4,0 7.4,0 7.4,0 7.4,0 7.4,0 7.4,0 7.2,-0.2 7.4,0 7.4,-0.2 7.4,0 7.4,0 7.4,0 7.4,0 7.4,0 7.4,0 7.2,0 7.4,0 7.4,0 7.4,0 7.4,0 7.4,0 7.4,-0.2 7.4,0 7.4,5.8 7.2,3 7.4,0.8 7.4,-0.4 7.4,-1 7.4,-1.2 7.4,-1.4 7.4,-1.2 7.4,-1.2 7.4,-0.8 7.2,-0.8 7.4,-0.4 7.4,-0.6 7.4,-0.2 7.4,-0.4 7.4,-0.2 7.4,-0.2 7.4,0 7.4,-0.2 7.2,0 7.4,0 7.4,-0.2 7.4,0 7.4,0" />
  <path
     style="fill:none;stroke:#ff0000;stroke-width:3.74999994;stroke-miterlimit:4;stroke-dasharray:none"
     inkscape:connector-curvature="0"
     id="path94"
     d="m 193.03933,2291.2799 7.39999,0 7.4,0 7.2,0 7.4,0 7.4,0 7.4,0 7.4,0 7.4,0 7.4,-0.2 7.4,-0.2 7.4,-0.8 7.2,-3 7.4,-9 7.4,-17 7.4,-86.8 7.4,-55 7.4,-53.6 7.4,-46.4 7.4,-42.6 7.4,-35 7.2,-32.2 7.4,-26 7.4,-22 7.4,-16.8 7.4,-13.6 7.4,-10.4 7.4,-8.2 7.4,-6.2 7.4,-4.8 7.2,-3.6 7.4,-3.2 7.4,-2.4 7.4,-2.4 7.4,-1.8 7.4,-1.8 7.4,-1.6 7.4,-1.2 7.4,-1.2 7.4,-1 7.2,-0.8 7.4,-0.6 7.4,-0.4 7.4,-0.2 7.4,-0.2 7.4,-0.2 7.4,0 7.4,-0.2 7.4,0 7.2,0 7.4,0 7.4,0 7.4,0 7.4,0 7.4,0 7.4,0 7.4,-0.2 7.4,0 7.2,0 7.4,0 7.4,0 7.4,0 7.4,0 7.4,0 7.4,0 7.4,0 7.4,0 7.2,0 7.4,0 7.4,0 7.4,0 7.4,0 7.4,0 7.4,0 7.4,0 7.4,0 7.2,24.8 7.4,9.8 7.4,0.6 7.4,-4.4 7.4,-6.4 7.4,-6.4 7.4,-5.8 7.4,-4.6 7.4,-3.8 7.2,-2.6 7.4,-2.2 7.4,-1.6 7.4,-1 7.4,-0.8 7.4,-0.8 7.4,-0.6 7.4,-0.4 7.4,-0.4 7.2,-0.2 7.4,-0.2 7.4,0 7.4,0 7.4,-0.2 7.4,0 7.4,4.8 7.4,35.4 7.4,27.2 7.4,13.8 7.2,59.2 7.4,83.2 7.4,75 7.4,65.8 7.4,43.6 7.4,29 7.39998,6.6 7.4,8.2 7.4,7.8 7.2,6.6 7.4,5.8 7.4,4.6 7.4,3.6 7.4,2.8 7.4,2.2 7.4,1.8 7.4,1.4 7.4,1.2 7.2,1.4 7.4,1.6 7.4,2 7.4,2.4 7.4,3.8 7.4,4 7.4,3.8 7.4,3.2 7.4,2.6 7.2,1.6 7.4,1.2 7.4,0.8 7.4,0.6 7.4,0.4 7.4,0.4 7.4,0.2 7.4,0.2 7.4,0 7.2,0 7.4,0.2 7.4,0 7.4,0 7.4,0 7.4,0 7.4,0 7.4,0 7.4,0 7.2,0 7.4,0 7.4,0 7.4,0 7.4,0 7.4,0 7.4,0 7.4,0 7.4,0 7.4,0 7.2,0 7.4,0 7.4,0 7.4,0 7.4,0 7.4,0 7.4,0 7.4,0 7.4,0 7.2,0 7.4,0 7.4,0 7.4,0 7.4,0 7.4,0 7.4,0 7.4,0 7.4,0 7.2,0 7.4,0 7.4,0 7.4,0 7.4,0 7.4,0 7.4,0 7.4,0 7.4,0 7.2,0 7.4,0 7.4,0 7.4,0 7.4,0 7.4,0 7.4,0 7.4,0 7.4,0 7.2,0 7.4,0 7.4,0 7.4,0 7.4,0" />
  <path
     style="fill:none;stroke:#0000ff;stroke-width:3.74999994;stroke-miterlimit:4;stroke-dasharray:none"
     inkscape:connector-curvature="0"
     id="path96"
     d="m 193.03933,2291.2799 7.39999,0 7.4,0 7.2,0 7.4,0 7.4,0 7.4,0 7.4,0 7.4,0 7.4,0 7.4,0 7.4,0 7.2,0 7.4,0 7.4,0 7.4,0 7.4,0 7.4,0 7.4,0 7.4,0 7.4,0 7.2,0 7.4,0 7.4,0 7.4,0 7.4,0 7.4,0 7.4,0 7.4,0 7.4,0 7.2,0 7.4,0 7.4,0 7.4,0 7.4,0 7.4,0 7.4,0 7.4,0 7.4,0 7.4,0 7.2,0 7.4,0 7.4,0 7.4,0 7.4,0 7.4,0 7.4,0 7.4,0 7.4,0 7.2,0 7.4,0 7.4,0 7.4,0 7.4,0 7.4,0 7.4,0 7.4,0 7.4,0 7.2,0 7.4,0 7.4,0 7.4,0 7.4,0 7.4,0 7.4,0 7.4,0 7.4,0 7.2,0 7.4,0 7.4,0 7.4,0 7.4,0 7.4,0 7.4,0 7.4,0 7.4,0 7.2,0 7.4,0 7.4,0 7.4,0 7.4,0 7.4,0 7.4,0 7.4,0 7.4,0 7.2,0 7.4,0 7.4,0 7.4,0 7.4,0 7.4,0 7.4,0 7.4,0 7.4,0 7.2,0 7.4,0 7.4,0 7.4,0 7.4,0 7.4,0 7.4,0 7.4,0 7.4,0 7.4,0 7.2,0 7.4,0 7.4,0 7.4,0 7.4,0 7.4,0 7.39998,0 7.4,0 7.4,0 7.2,0 7.4,0 7.4,0 7.4,0 7.4,0 7.4,-0.4 7.4,-17.2 7.4,-173.6 7.4,-107.4 7.2,-59 7.4,-38.6 7.4,-38.4 7.4,-38 7.4,-17.8 7.4,-15.6 7.4,-18.8 7.4,-13 7.4,-9.4 7.2,-17.8 7.4,-11.2 7.4,-3 7.4,-4.4 7.4,-3.8 7.4,-3.8 7.4,-3 7.4,-2.6 7.4,-2.2 7.2,-1.8 7.4,-1.8 7.4,-4.4 7.4,-1.8 7.4,-0.4 7.4,0.8 7.4,-1 7.4,-0.4 7.4,-0.6 7.2,-0.2 7.4,-0.6 7.4,-0.8 7.4,-1.6 7.4,-2.4 7.4,-2.8 7.4,-2.6 7.4,-2.4 7.4,-2.4 7.4,-2.4 7.2,-2.4 7.4,-2.6 7.4,-2.2 7.4,-1.6 7.4,-1.4 7.4,-1 7.4,-0.4 7.4,-0.4 7.4,0.4 7.2,0.8 7.4,1 7.4,1 7.4,1 7.4,1 7.4,1 7.4,1 7.4,0.8 7.4,14 7.2,30 7.4,-1.2 7.4,-10.2 7.4,-9.8 7.4,-7.6 7.4,-5.4 7.4,-3.8 7.4,-2.2 7.4,-1.2 7.2,-1 7.4,-0.6 7.4,-0.2 7.4,-0.4 7.4,-0.2 7.4,-0.2 7.4,0 7.4,-0.2 7.4,0 7.2,0 7.4,0 7.4,0 7.4,0 7.4,0" />
  <path
     style="fill:none;stroke:#228b22;stroke-width:3.74999994;stroke-miterlimit:4;stroke-dasharray:none"
     inkscape:connector-curvature="0"
     id="path98"
     d="m 193.03933,2291.2799 7.39999,0 7.4,0 7.2,0 7.4,0 7.4,0 7.4,0 7.4,0 7.4,0 7.4,0 7.4,0 7.4,0 7.2,0 7.4,0 7.4,0 7.4,0 7.4,0 7.4,0 7.4,0 7.4,0 7.4,0 7.2,0 7.4,0 7.4,0 7.4,0 7.4,0 7.4,0 7.4,0 7.4,0 7.4,0 7.2,0 7.4,0 7.4,0 7.4,0 7.4,0 7.4,0 7.4,0 7.4,0 7.4,0 7.4,0 7.2,0 7.4,0 7.4,0 7.4,0 7.4,0 7.4,0 7.4,0 7.4,0 7.4,0 7.2,0 7.4,0 7.4,0 7.4,0 7.4,0 7.4,0 7.4,-0.2 7.4,-0.2 7.4,0 7.2,0 7.4,0.2 7.4,0 7.4,0.2 7.4,0 7.4,0 7.4,0 7.4,0 7.4,0 7.2,0 7.4,0 7.4,0 7.4,0 7.4,0 7.4,0 7.4,0 7.4,0 7.4,0 7.2,0 7.4,0 7.4,0 7.4,0 7.4,0 7.4,0 7.4,0 7.4,0 7.4,0 7.2,0 7.4,0 7.4,0 7.4,0 7.4,0 7.4,0 7.4,0 7.4,0 7.4,0 7.2,0 7.4,0 7.4,0 7.4,0 7.4,0 7.4,0 7.4,0 7.4,0 7.4,0 7.4,0 7.2,0 7.4,0 7.4,0 7.4,0 7.4,0 7.4,0 7.39998,0 7.4,0 7.4,0 7.2,0 7.4,0 7.4,0 7.4,0 7.4,0 7.4,-0.2 7.4,-0.2 7.4,-0.2 7.4,-1 7.2,-2.6 7.4,-14.4 7.4,-149.4 7.4,48.8 7.4,-39.8 7.4,-73 7.4,-19.4 7.4,8 7.4,-58.8 7.2,18.6 7.4,-42.4 7.4,13.2 7.4,-31.8 7.4,12.2 7.4,-24 7.4,14 7.4,-20.2 7.4,13 7.2,-17.2 7.4,13.4 7.4,-15.6 7.4,16 7.4,-14.8 7.4,16.2 7.4,-13.8 7.4,16 7.4,-19.6 7.2,6.4 7.4,-100 7.4,-70.6 7.4,-48.4 7.4,-33.8 7.4,-23.8 7.4,-16.6 7.4,-11.6 7.4,-8 7.4,-5.6 7.2,-4 7.4,-2.8 7.4,-2 7.4,-1.4 7.4,-1 7.4,-0.6 7.4,-0.4 7.4,-0.4 7.4,-0.2 7.2,0 7.4,0 7.4,0 7.4,0 7.4,0 7.4,0.2 7.4,0 7.4,0 7.4,0.2 7.2,0.8 7.4,0.4 7.4,0.2 7.4,0 7.4,-0.2 7.4,-0.2 7.4,-0.2 7.4,-0.2 7.4,0 7.2,-0.2 7.4,0 7.4,-0.2 7.4,0 7.4,0 7.4,0 7.4,0 7.4,0 7.4,0 7.2,0 7.4,0 7.4,0 7.4,0 7.4,0" />
  <text
     xml:space="preserve"
     style="color:#000000;font-style:normal;font-variant:normal;font-weight:normal;font-stretch:normal;font-size:37.5px;line-height:100%;font-family:Arial;-inkscape-font-specification:Arial;text-indent:0;text-align:start;text-decoration:none;text-decoration-line:none;letter-spacing:0px;word-spacing:0px;text-transform:none;direction:ltr;block-progression:tb;writing-mode:lr-tb;text-anchor:start;display:inline;overflow:visible;visibility:visible;fill:#000000;fill-opacity:1;fill-rule:nonzero;stroke:none;stroke-width:1px;stroke-linecap:butt;stroke-linejoin:miter;stroke-opacity:1;marker:none;enable-background:accumulate"
     x="-2227.3237"
     y="91.805969"
     id="text4350"
     sodipodi:linespacing="100%"
     transform="matrix(0,-1,1,0,0,0)"><tspan
       sodipodi:role="line"
       id="tspan4352"
       x="-2227.3237"
       y="91.805969"
       style="font-size:50px">Activation (mean firing rate)</tspan></text>
  <text
     xml:space="preserve"
     style="color:#000000;font-style:normal;font-variant:normal;font-weight:normal;font-stretch:normal;font-size:37.5px;line-height:100%;font-family:Arial;-inkscape-font-specification:Arial;text-indent:0;text-align:start;text-decoration:none;text-decoration-line:none;letter-spacing:0px;word-spacing:0px;text-transform:none;direction:ltr;block-progression:tb;writing-mode:lr-tb;text-anchor:start;display:inline;overflow:visible;visibility:visible;fill:#ff0000;fill-opacity:1;fill-rule:nonzero;stroke:none;stroke-width:1px;stroke-linecap:butt;stroke-linejoin:miter;stroke-opacity:1;marker:none;enable-background:accumulate"
     x="479.39124"
     y="1755.913"
     id="text4359"
     sodipodi:linespacing="100%"><tspan
       sodipodi:role="line"
       id="tspan4361"
       x="479.39124"
       y="1755.913">LIPd (old pos)</tspan></text>
  <text
     xml:space="preserve"
     style="color:#000000;font-style:normal;font-variant:normal;font-weight:normal;font-stretch:normal;font-size:37.5px;line-height:100%;font-family:Arial;-inkscape-font-specification:Arial;text-indent:0;text-align:start;text-decoration:none;text-decoration-line:none;letter-spacing:0px;word-spacing:0px;text-transform:none;direction:ltr;block-progression:tb;writing-mode:lr-tb;text-anchor:start;display:inline;overflow:visible;visibility:visible;fill:#000000;fill-opacity:1;fill-rule:nonzero;stroke:none;stroke-width:1px;stroke-linecap:butt;stroke-linejoin:miter;stroke-opacity:1;marker:none;enable-background:accumulate"
     x="990.48834"
     y="1651.9181"
     id="text4363"
     sodipodi:linespacing="100%"><tspan
       sodipodi:role="line"
       id="tspan4365"
       x="990.48834"
       y="1651.9181">LIPd (new pos)</tspan></text>
  <text
     xml:space="preserve"
     style="color:#000000;font-style:normal;font-variant:normal;font-weight:normal;font-stretch:normal;font-size:37.5px;line-height:100%;font-family:Arial;-inkscape-font-specification:Arial;text-indent:0;text-align:start;text-decoration:none;text-decoration-line:none;letter-spacing:0px;word-spacing:0px;text-transform:none;direction:ltr;block-progression:tb;writing-mode:lr-tb;text-anchor:start;display:inline;overflow:visible;visibility:visible;fill:#0000ff;fill-opacity:1;fill-rule:nonzero;stroke:none;stroke-width:1px;stroke-linecap:butt;stroke-linejoin:miter;stroke-opacity:1;marker:none;enable-background:accumulate"
     x="1145.2124"
     y="1821.8612"
     id="text4367"
     sodipodi:linespacing="100%"><tspan
       sodipodi:role="line"
       id="tspan4369"
       x="1145.2124"
       y="1821.8612">V2d</tspan></text>
  <text
     xml:space="preserve"
     style="color:#000000;font-style:normal;font-variant:normal;font-weight:normal;font-stretch:normal;font-size:37.5px;line-height:100%;font-family:Arial;-inkscape-font-specification:Arial;text-indent:0;text-align:start;text-decoration:none;text-decoration-line:none;letter-spacing:0px;word-spacing:0px;text-transform:none;direction:ltr;block-progression:tb;writing-mode:lr-tb;text-anchor:start;display:inline;overflow:visible;visibility:visible;fill:#008000;fill-opacity:1;fill-rule:nonzero;stroke:none;stroke-width:1px;stroke-linecap:butt;stroke-linejoin:miter;stroke-opacity:1;marker:none;enable-background:accumulate"
     x="1315.1555"
     y="1818.0564"
     id="text4371"
     sodipodi:linespacing="100%"><tspan
       sodipodi:role="line"
       id="tspan4373"
       x="1315.1555"
       y="1818.0564">V2s</tspan></text>
  <path
     style="opacity:1;fill:#008000;fill-opacity:1;fill-rule:nonzero;stroke:#000000;stroke-width:2.5;stroke-linecap:butt;stroke-linejoin:miter;stroke-miterlimit:4;stroke-dasharray:2.49999996, 2.49999996;stroke-dashoffset:0;stroke-opacity:1"
     d="m 925.80849,1579.6291 0,683.5764"
     id="path4375"
     inkscape:connector-curvature="0" />
  <text
     xml:space="preserve"
     style="color:#000000;font-style:normal;font-variant:normal;font-weight:normal;font-stretch:normal;font-size:37.5px;line-height:100%;font-family:Arial;-inkscape-font-specification:Arial;text-indent:0;text-align:start;text-decoration:none;text-decoration-line:none;letter-spacing:0px;word-spacing:0px;text-transform:none;direction:ltr;block-progression:tb;writing-mode:lr-tb;text-anchor:start;display:inline;overflow:visible;visibility:visible;fill:#000000;fill-opacity:1;fill-rule:nonzero;stroke:none;stroke-width:1px;stroke-linecap:butt;stroke-linejoin:miter;stroke-opacity:1;marker:none;enable-background:accumulate"
     x="914.39441"
     y="2435.6851"
     id="text4377"
     sodipodi:linespacing="100%"><tspan
       sodipodi:role="line"
       x="914.39441"
       y="2435.6851"
       id="tspan4381">Saccade</tspan></text>
  <path
     inkscape:connector-curvature="0"
     id="path4383"
     d="m 1292.3272,1579.6291 0,683.5764"
     style="opacity:1;fill:#008000;fill-opacity:1;fill-rule:nonzero;stroke:#000000;stroke-width:2.5;stroke-linecap:butt;stroke-linejoin:miter;stroke-miterlimit:4;stroke-dasharray:2.49999996, 2.49999996;stroke-dashoffset:0;stroke-opacity:1" />
  <path
     style="opacity:1;fill:#000000;fill-opacity:1;fill-rule:nonzero;stroke:#000000;stroke-width:2.49999996;stroke-linecap:butt;stroke-linejoin:miter;stroke-miterlimit:4;stroke-dasharray:none;stroke-dashoffset:0;stroke-opacity:1;marker-end:url(#Arrow2Mend)"
     d="m 925.8085,2401.4426 0,-36.7787"
     id="path4385"
     inkscape:connector-curvature="0" />
  <text
     sodipodi:linespacing="100%"
     id="text4685"
     y="2435.4653"
     x="1280.9131"
     style="color:#000000;font-style:normal;font-variant:normal;font-weight:normal;font-stretch:normal;font-size:37.5px;line-height:100%;font-family:Arial;-inkscape-font-specification:Arial;text-indent:0;text-align:start;text-decoration:none;text-decoration-line:none;letter-spacing:0px;word-spacing:0px;text-transform:none;direction:ltr;block-progression:tb;writing-mode:lr-tb;text-anchor:start;display:inline;overflow:visible;visibility:visible;fill:#000000;fill-opacity:1;fill-rule:nonzero;stroke:none;stroke-width:1px;stroke-linecap:butt;stroke-linejoin:miter;stroke-opacity:1;marker:none;enable-background:accumulate"
     xml:space="preserve"><tspan
       id="tspan4689"
       y="2435.4653"
       x="1280.9131"
       sodipodi:role="line">Fixation</tspan></text>
  <path
     inkscape:connector-curvature="0"
     id="path4691"
     d="m 1292.3272,2401.4426 0,-36.7787"
     style="opacity:1;fill:#000000;fill-opacity:1;fill-rule:nonzero;stroke:#000000;stroke-width:2.5;stroke-linecap:butt;stroke-linejoin:miter;stroke-miterlimit:4;stroke-dasharray:none;stroke-dashoffset:0;stroke-opacity:1;marker-end:url(#marker4699)" />
  <path
     style="opacity:1;fill:#008000;fill-opacity:1;fill-rule:nonzero;stroke:#000000;stroke-width:2.5;stroke-linecap:butt;stroke-linejoin:miter;stroke-miterlimit:4;stroke-dasharray:2.49999996, 2.49999996;stroke-dashoffset:0;stroke-opacity:1"
     d="m 1482.5618,1579.6291 0,683.5764"
     id="path4697"
     inkscape:connector-curvature="0" />
  <text
     xml:space="preserve"
     style="color:#000000;font-style:normal;font-variant:normal;font-weight:normal;font-stretch:normal;font-size:37.5px;line-height:100%;font-family:Arial;-inkscape-font-specification:Arial;text-indent:0;text-align:start;text-decoration:none;text-decoration-line:none;letter-spacing:0px;word-spacing:0px;text-transform:none;direction:ltr;block-progression:tb;writing-mode:lr-tb;text-anchor:start;display:inline;overflow:visible;visibility:visible;fill:#000000;fill-opacity:1;fill-rule:nonzero;stroke:none;stroke-width:1px;stroke-linecap:butt;stroke-linejoin:miter;stroke-opacity:1;marker:none;enable-background:accumulate"
     x="1473.6842"
     y="2435.4653"
     id="text4727"
     sodipodi:linespacing="100%"><tspan
       sodipodi:role="line"
       x="1473.6842"
       y="2435.4653"
       id="tspan4729">Plus phase</tspan></text>
  <path
     style="opacity:1;fill:#000000;fill-opacity:1;fill-rule:nonzero;stroke:#000000;stroke-width:2.5;stroke-linecap:butt;stroke-linejoin:miter;stroke-miterlimit:4;stroke-dasharray:none;stroke-dashoffset:0;stroke-opacity:1;marker-end:url(#marker4699)"
     d="m 1485.0983,2401.4426 0,-36.7787"
     id="path4731"
     inkscape:connector-curvature="0" />
</svg>
