<?xml version="1.0" encoding="ISO-8859-1" standalone="yes"?>
<svg width="115.713" height="105.944">
  <defs> 
    <marker id="ArrowEnd" viewBox="0 0 10 10" refX="0" refY="5" 
     markerUnits="strokeWidth" 
     markerWidth="4" 
     markerHeight="3" 
     orient="auto"> 
        <path d="M 0 0 L 10 5 L 0 10 z" /> 
    </marker>
    <marker id="ArrowStart" viewBox="0 0 10 10" refX="10" refY="5" 
     markerUnits="strokeWidth" 
     markerWidth="4" 
     markerHeight="3" 
     orient="auto"> 
        <path d="M 10 0 L 0 5 L 10 10 z" /> 
    </marker> </defs>
<g>
<path style="stroke:#000000; stroke-width:0.97665199999999996; fill:none" d="M 45.1618 74.4585L 45.1618 5.11848"/>
<path style="stroke:#000000; stroke-width:0.97665199999999996; fill:none" d="M 45.1618 74.4585L 110.595 74.4585"/>
<path style="stroke:#000000; stroke-width:0.97665199999999996; fill:none" d="M 45.1618 74.4585L 77.3878 47.1145"/>
<path style="stroke:#000000; stroke-width:0.97665199999999996; fill:none" d="M 45.1618 74.4585L 58.8338 34.4155"/>
<path style="stroke:#000000; stroke-width:0.97665199999999996; fill:none" d="M 45.1618 73.4815L 87.1538 63.7155"/>
<path style="stroke:#000000; stroke-width:0.97665199999999996; fill:none" d="M 46.1378 73.4815L 82.2708 53.9505"/>
<path style="stroke:#000000; stroke-width:0.97665199999999996; fill:none" d="M 46.1378 73.4815L 65.6688 41.2555"/>
<path style="stroke:#000000; stroke-width:0.97665199999999996; fill:none" d="M 45.1618 73.4815L 18.7943 39.3015"/>
<path style="stroke:#000000; stroke-width:0.97665199999999996; fill:none" d="M 45.1618 72.5055L 32.4658 31.4855"/>
<path style="stroke:#000000; stroke-width:0.97665199999999996; fill:none" d="M 45.1618 73.4815L 14.888 93.9894"/>
<path style="stroke:#000000; stroke-width:0.97665199999999996; fill:none" d="M 45.1618 73.4815L 5.11848 60.7865"/>
<path style="stroke:#000000; stroke-width:0.97665199999999996; fill:none" d="M 45.1618 73.4815L 41.2548 100.825"/>
<path style="stroke:#000000; stroke-width:0.97665199999999996; fill:none" d="M 45.1618 73.4815L 73.4818 94.9659"/>
<path style="stroke:#000000; stroke-width:0.97665199999999996; fill:none" d="M 46.1378 73.4815L 88.1298 84.2235"/>
<path style="stroke:#ff0000; stroke-width:0.97665199999999996; fill:none" d="M 41.5018 48.8215C 41.5018 48.1495 41.0678 47.6025 40.5248 47.6025C 39.9898 47.6025 39.5478 48.1495 39.5478 48.8215C 39.5478 49.4935 39.9858 50.0405 40.5248 50.0405C 41.0598 50.0405 41.5018 49.4935 41.5018 48.8215"/>
<path style="stroke:#0000ff; stroke-width:0.97665199999999996; fill:none" d="M 59.8138 57.8565C 59.8138 57.1845 59.3798 56.6375 58.8368 56.6375C 58.3018 56.6375 57.8608 57.1845 57.8608 57.8565C 57.8608 58.5285 58.2978 59.0755 58.8368 59.0755C 59.3728 59.0755 59.8138 58.5285 59.8138 57.8565"/>
<path style="stroke:#a45555; stroke-width:0.97665199999999996; fill:none" d="M 28.0718 73.9695C 28.0718 73.2975 27.6378 72.7515 27.0948 72.7515C 26.5598 72.7515 26.1188 73.2975 26.1188 73.9695C 26.1188 74.6415 26.5558 75.1885 27.0948 75.1885C 27.6298 75.1885 28.0718 74.6415 28.0718 73.9695"/>
<path style="stroke:#bd00ff; stroke-width:0.97665199999999996; fill:none" d="M 67.6268 85.6886C 67.6268 85.0167 67.1928 84.4695 66.6498 84.4695C 66.1148 84.4695 65.6728 85.0167 65.6728 85.6886C 65.6728 86.3605 66.1108 86.9073 66.6498 86.9073C 67.1848 86.9073 67.6268 86.3605 67.6268 85.6886"/>
<path style="stroke:#00ffff; stroke-width:0.97665199999999996; fill:none" d="M 49.3138 85.6886C 49.3138 85.0167 48.8798 84.4695 48.3368 84.4695C 47.8018 84.4695 47.3608 85.0167 47.3608 85.6886C 47.3608 86.3605 47.7978 86.9073 48.3368 86.9073C 48.8728 86.9073 49.3138 86.3605 49.3138 85.6886"/>
</g>
</svg>