<?xml version="1.0" encoding="UTF-8" standalone="no"?>
<svg
   xmlns:dc="http://purl.org/dc/elements/1.1/"
   xmlns:cc="http://creativecommons.org/ns#"
   xmlns:rdf="http://www.w3.org/1999/02/22-rdf-syntax-ns#"
   xmlns:svg="http://www.w3.org/2000/svg"
   xmlns="http://www.w3.org/2000/svg"
   xmlns:sodipodi="http://sodipodi.sourceforge.net/DTD/sodipodi-0.dtd"
   xmlns:inkscape="http://www.inkscape.org/namespaces/inkscape"
   version="1.1"
   width="400px"
   height="400px"
   viewBox="0 0 1000.0 1000.0"
   id="svg2"
   inkscape:version="0.91 r13725"
   sodipodi:docname="fig_gardenpath_series_II_exp_blur_mult_comp_C5.svg">
  <metadata
     id="metadata116">
    <rdf:RDF>
      <cc:Work
         rdf:about="">
        <dc:format>image/svg+xml</dc:format>
        <dc:type
           rdf:resource="http://purl.org/dc/dcmitype/StillImage" />
      </cc:Work>
    </rdf:RDF>
  </metadata>
  <defs
     id="defs114">
    <marker
       inkscape:stockid="TriangleInM"
       orient="auto"
       refY="0.0"
       refX="0.0"
       id="TriangleInM"
       style="overflow:visible"
       inkscape:isstock="true">
      <path
         id="path4454"
         d="M 5.77,0.0 L -2.88,5.0 L -2.88,-5.0 L 5.77,0.0 z "
         style="fill-rule:evenodd;stroke:#000000;stroke-width:1pt;stroke-opacity:1;fill:#000000;fill-opacity:1"
         transform="scale(-0.4)" />
    </marker>
    <marker
       inkscape:stockid="Arrow2Mstart"
       orient="auto"
       refY="0.0"
       refX="0.0"
       id="marker5244"
       style="overflow:visible"
       inkscape:isstock="true">
      <path
         id="path5246"
         style="fill-rule:evenodd;stroke-width:0.625;stroke-linejoin:round;stroke:#000000;stroke-opacity:1;fill:#000000;fill-opacity:1"
         d="M 8.7185878,4.0337352 L -2.2072895,0.016013256 L 8.7185884,-4.0017078 C 6.9730900,-1.6296469 6.9831476,1.6157441 8.7185878,4.0337352 z "
         transform="scale(0.6) translate(0,0)" />
    </marker>
    <marker
       inkscape:stockid="TriangleInL"
       orient="auto"
       refY="0.0"
       refX="0.0"
       id="TriangleInL"
       style="overflow:visible"
       inkscape:isstock="true">
      <path
         id="path4451"
         d="M 5.77,0.0 L -2.88,5.0 L -2.88,-5.0 L 5.77,0.0 z "
         style="fill-rule:evenodd;stroke:#000000;stroke-width:1pt;stroke-opacity:1;fill:#000000;fill-opacity:1"
         transform="scale(-0.8)" />
    </marker>
    <marker
       inkscape:stockid="EmptyTriangleInS"
       orient="auto"
       refY="0.0"
       refX="0.0"
       id="EmptyTriangleInS"
       style="overflow:visible"
       inkscape:isstock="true">
      <path
         id="path4475"
         d="M 5.77,0.0 L -2.88,5.0 L -2.88,-5.0 L 5.77,0.0 z "
         style="fill-rule:evenodd;fill:#ffffff;stroke:#000000;stroke-width:1pt;stroke-opacity:1"
         transform="scale(-0.2) translate(-3.0,0)" />
    </marker>
    <marker
       inkscape:stockid="DotS"
       orient="auto"
       refY="0.0"
       refX="0.0"
       id="DotS"
       style="overflow:visible"
       inkscape:isstock="true">
      <path
         id="path4385"
         d="M -2.5,-1.0 C -2.5,1.7600000 -4.7400000,4.0 -7.5,4.0 C -10.260000,4.0 -12.5,1.7600000 -12.5,-1.0 C -12.5,-3.7600000 -10.260000,-6.0 -7.5,-6.0 C -4.7400000,-6.0 -2.5,-3.7600000 -2.5,-1.0 z "
         style="fill-rule:evenodd;stroke:#000000;stroke-width:1pt;stroke-opacity:1;fill:#000000;fill-opacity:1"
         transform="scale(0.2) translate(7.4, 1)" />
    </marker>
    <marker
       inkscape:stockid="Arrow2Mstart"
       orient="auto"
       refY="0.0"
       refX="0.0"
       id="marker4958"
       style="overflow:visible"
       inkscape:isstock="true">
      <path
         id="path4960"
         style="fill-rule:evenodd;stroke-width:0.625;stroke-linejoin:round;stroke:#000000;stroke-opacity:1;fill:#000000;fill-opacity:1"
         d="M 8.7185878,4.0337352 L -2.2072895,0.016013256 L 8.7185884,-4.0017078 C 6.9730900,-1.6296469 6.9831476,1.6157441 8.7185878,4.0337352 z "
         transform="scale(0.6) translate(0,0)" />
    </marker>
    <marker
       inkscape:stockid="Arrow2Lstart"
       orient="auto"
       refY="0.0"
       refX="0.0"
       id="Arrow2Lstart"
       style="overflow:visible"
       inkscape:isstock="true">
      <path
         id="path4336"
         style="fill-rule:evenodd;stroke-width:0.625;stroke-linejoin:round;stroke:#000000;stroke-opacity:1;fill:#000000;fill-opacity:1"
         d="M 8.7185878,4.0337352 L -2.2072895,0.016013256 L 8.7185884,-4.0017078 C 6.9730900,-1.6296469 6.9831476,1.6157441 8.7185878,4.0337352 z "
         transform="scale(1.1) translate(1,0)" />
    </marker>
    <marker
       inkscape:stockid="Arrow2Mstart"
       orient="auto"
       refY="0.0"
       refX="0.0"
       id="marker4850"
       style="overflow:visible"
       inkscape:isstock="true">
      <path
         id="path4852"
         style="fill-rule:evenodd;stroke-width:0.625;stroke-linejoin:round;stroke:#000000;stroke-opacity:1;fill:#000000;fill-opacity:1"
         d="M 8.7185878,4.0337352 L -2.2072895,0.016013256 L 8.7185884,-4.0017078 C 6.9730900,-1.6296469 6.9831476,1.6157441 8.7185878,4.0337352 z "
         transform="scale(0.6) translate(0,0)" />
    </marker>
    <marker
       inkscape:stockid="Arrow2Mstart"
       orient="auto"
       refY="0.0"
       refX="0.0"
       id="Arrow2Mstart"
       style="overflow:visible"
       inkscape:isstock="true">
      <path
         id="path4342"
         style="fill-rule:evenodd;stroke-width:0.625;stroke-linejoin:round;stroke:#000000;stroke-opacity:1;fill:#000000;fill-opacity:1"
         d="M 8.7185878,4.0337352 L -2.2072895,0.016013256 L 8.7185884,-4.0017078 C 6.9730900,-1.6296469 6.9831476,1.6157441 8.7185878,4.0337352 z "
         transform="scale(0.6) translate(0,0)" />
    </marker>
    <marker
       inkscape:stockid="DiamondM"
       orient="auto"
       refY="0.0"
       refX="0.0"
       id="DiamondM"
       style="overflow:visible"
       inkscape:isstock="true">
      <path
         id="path4400"
         d="M 0,-7.0710768 L -7.0710894,0 L 0,7.0710589 L 7.0710462,0 L 0,-7.0710768 z "
         style="fill-rule:evenodd;stroke:#ff0000;stroke-width:1pt;stroke-opacity:1;fill:#ff0000;fill-opacity:1"
         transform="scale(0.4)" />
    </marker>
    <marker
       inkscape:stockid="SquareM"
       orient="auto"
       refY="0.0"
       refX="0.0"
       id="marker4662"
       style="overflow:visible"
       inkscape:isstock="true">
      <path
         id="path4664"
         d="M -5.0,-5.0 L -5.0,5.0 L 5.0,5.0 L 5.0,-5.0 L -5.0,-5.0 z "
         style="fill-rule:evenodd;stroke:#0000ff;stroke-width:1pt;stroke-opacity:1;fill:#0000ff;fill-opacity:1"
         transform="scale(0.4)" />
    </marker>
    <marker
       inkscape:stockid="SquareM"
       orient="auto"
       refY="0.0"
       refX="0.0"
       id="SquareM"
       style="overflow:visible"
       inkscape:isstock="true">
      <path
         id="path4391"
         d="M -5.0,-5.0 L -5.0,5.0 L 5.0,5.0 L 5.0,-5.0 L -5.0,-5.0 z "
         style="fill-rule:evenodd;stroke:#0000ff;stroke-width:1pt;stroke-opacity:1;fill:#0000ff;fill-opacity:1"
         transform="scale(0.4)" />
    </marker>
    <marker
       inkscape:stockid="DotM"
       orient="auto"
       refY="0.0"
       refX="0.0"
       id="DotM"
       style="overflow:visible"
       inkscape:isstock="true">
      <path
         id="path4382"
         d="M -2.5,-1.0 C -2.5,1.7600000 -4.7400000,4.0 -7.5,4.0 C -10.260000,4.0 -12.5,1.7600000 -12.5,-1.0 C -12.5,-3.7600000 -10.260000,-6.0 -7.5,-6.0 C -4.7400000,-6.0 -2.5,-3.7600000 -2.5,-1.0 z "
         style="fill-rule:evenodd;stroke:#007b00;stroke-width:1pt;stroke-opacity:1;fill:#007b00;fill-opacity:1"
         transform="scale(0.4) translate(7.4, 1)" />
    </marker>
  </defs>
  <sodipodi:namedview
     pagecolor="#ffffff"
     bordercolor="#666666"
     borderopacity="1"
     objecttolerance="10"
     gridtolerance="10"
     guidetolerance="10"
     inkscape:pageopacity="0"
     inkscape:pageshadow="2"
     inkscape:window-width="2560"
     inkscape:window-height="1395"
     id="namedview112"
     showgrid="false"
     inkscape:zoom="2"
     inkscape:cx="266.12438"
     inkscape:cy="200"
     inkscape:window-x="29"
     inkscape:window-y="0"
     inkscape:window-maximized="0"
     inkscape:current-layer="svg2" />
  <path
     stroke="#000000"
     stroke-width="2"
     fill="none"
     d="M 300.9,687.9 L 300.9,227.3 L 761.5,227.3 L 761.5,687.9 L 300.9,687.9 "
     id="path4" />
  <path
     style="fill:none;stroke:#000000;stroke-width:2"
     inkscape:connector-curvature="0"
     id="path16"
     d="M 300.9,687.9 761.5,687.9 M 328,699.4 328,676.4 M 463.5,699.4 463.5,676.4 M 598.9,699.4 598.9,676.4 M 734.4,699.4 734.4,676.4" />
  <path
     style="fill:none;stroke:#000000;stroke-width:2"
     inkscape:connector-curvature="0"
     id="path18"
     d="M 300.9,227.3 761.5,227.3 M 328,238.8 328,215.8 M 463.5,238.8 463.5,215.8 M 598.9,238.8 598.9,215.8 M 734.4,238.8 734.4,215.8" />
  <text
     style="font-size:23.20000076px;font-family:Arial;text-anchor:end;fill:#000000"
     id="text20"
     font-size="23.2"
     y="697.09998"
     x="284.79999">0</text>
  <text
     style="font-size:23.20000076px;font-family:Arial;text-anchor:end;fill:#000000"
     id="text22"
     font-size="23.2"
     y="646"
     x="284.79999">10</text>
  <text
     style="font-size:23.20000076px;font-family:Arial;text-anchor:end;fill:#000000"
     id="text24"
     font-size="23.2"
     y="594.79999"
     x="284.79999">20</text>
  <text
     style="font-size:23.20000076px;font-family:Arial;text-anchor:end;fill:#000000"
     id="text26"
     font-size="23.2"
     y="543.59998"
     x="284.79999">30</text>
  <text
     style="font-size:23.20000076px;font-family:Arial;text-anchor:end;fill:#000000"
     id="text28"
     font-size="23.2"
     y="492.39999"
     x="284.79999">40</text>
  <text
     style="font-size:23.20000076px;font-family:Arial;text-anchor:end;fill:#000000"
     id="text30"
     font-size="23.2"
     y="441.20001"
     x="284.79999">50</text>
  <text
     style="font-size:23.20000076px;font-family:Arial;text-anchor:end;fill:#000000"
     id="text32"
     font-size="23.2"
     y="390.10001"
     x="284.79999">60</text>
  <text
     style="font-size:23.20000076px;font-family:Arial;text-anchor:end;fill:#000000"
     id="text34"
     font-size="23.2"
     y="338.89999"
     x="284.79999">70</text>
  <text
     style="font-size:23.20000076px;font-family:Arial;text-anchor:end;fill:#000000"
     id="text36"
     font-size="23.2"
     y="287.70001"
     x="284.79999">80</text>
  <text
     style="font-size:23.20000076px;font-family:Arial;text-anchor:end;fill:#000000"
     id="text38"
     font-size="23.2"
     y="236.5"
     x="284.79999">90</text>
  <path
     style="fill:none;stroke:#000000;stroke-width:2"
     inkscape:connector-curvature="0"
     id="path40"
     d="M 300.9,687.9 300.9,227.3 M 289.4,687.9 312.4,687.9 M 289.4,636.8 312.4,636.8 M 289.4,585.6 312.4,585.6 M 289.4,534.4 312.4,534.4 M 289.4,483.2 312.4,483.2 M 289.4,432 312.4,432 M 289.4,380.9 312.4,380.9 M 289.4,329.7 312.4,329.7 M 289.4,278.5 312.4,278.5 M 289.4,227.3 312.4,227.3" />
  <path
     style="fill:none;stroke:#000000;stroke-width:2"
     inkscape:connector-curvature="0"
     id="path42"
     d="M 761.5,687.9 761.5,227.3 M 750,687.9 773,687.9 M 750,636.8 773,636.8 M 750,585.6 773,585.6 M 750,534.4 773,534.4 M 750,483.2 773,483.2 M 750,432 773,432 M 750,380.9 773,380.9 M 750,329.7 773,329.7 M 750,278.5 773,278.5 M 750,227.3 773,227.3" />
  <path
     style="fill:none;stroke:#000000;stroke-width:2"
     inkscape:connector-curvature="0"
     id="path72"
     d="" />
  <path
     style="fill:none;stroke:#0000ff;stroke-width:2;stroke-opacity:1;stroke-miterlimit:4;stroke-dasharray:16.00000001, 3.99999999000000006, 2, 3.99999999000000006;stroke-dashoffset:0;marker-start:url(#SquareM);marker-mid:url(#marker4662);marker-end:url(#marker4662)"
     inkscape:connector-curvature="0"
     id="path74"
     d="M 463.5,469.3 598.9,416 734.4,357.4" />
  <path
     style="fill:none;stroke:#000000;stroke-width:2"
     inkscape:connector-curvature="0"
     id="path76"
     d="" />
  <path
     style="fill:none;stroke:#000000;stroke-width:2"
     inkscape:connector-curvature="0"
     id="path78"
     d="" />
  <path
     style="fill:none;stroke:#0000ff;stroke-width:2;stroke-opacity:1"
     inkscape:connector-curvature="0"
     id="path80"
     d="M 454.3,496.6 472.7,496.6 M 454.3,442.1 472.7,442.1 M 463.5,496.6 463.5,442.1 M 463.5,469.3 M 589.7,441.9 608.2,441.9 M 589.7,390.1 608.2,390.1 M 598.9,441.9 598.9,390.1 M 598.9,416 M 725.2,381.7 743.6,381.7 M 725.2,333.2 743.6,333.2 M 734.4,381.7 734.4,333.2 M 734.4,357.4" />
  <path
     style="fill:none;stroke:#ff0000;stroke-width:2"
     inkscape:connector-curvature="0"
     id="path82"
     d="" />
  <path
     style="fill:none;stroke:#007b00;stroke-width:2;stroke-opacity:1;stroke-miterlimit:4;stroke-dasharray:8.00000001, 2;stroke-dashoffset:0;marker-start:url(#DotM);marker-mid:url(#DotM);marker-end:url(#DotM)"
     inkscape:connector-curvature="0"
     id="path84"
     d="M 463.5,453.4 598.9,384 734.4,320.1" />
  <path
     style="fill:none;stroke:#ff0000;stroke-width:2"
     inkscape:connector-curvature="0"
     id="path86"
     d="" />
  <path
     style="fill:none;stroke:#ff0000;stroke-width:2"
     inkscape:connector-curvature="0"
     id="path88"
     d="" />
  <path
     style="fill:#008000;stroke:#008600;stroke-width:1.99999997;stroke-miterlimit:4;stroke-dasharray:none;stroke-opacity:1"
     inkscape:connector-curvature="0"
     id="path90"
     d="M 454.3,482.9 472.7,482.9 M 454.3,423.9 472.7,423.9 M 463.5,482.9 463.5,423.9 M 463.5,453.4 M 589.7,413.7 608.2,413.7 M 589.7,354.4 608.2,354.4 M 598.9,413.7 598.9,354.4 M 598.9,384 M 725.2,343.5 743.6,343.5 M 725.2,296.6 743.6,296.6 M 734.4,343.5 734.4,296.6 M 734.4,320.1" />
  <path
     style="fill:none;stroke:#0000ff;stroke-width:2"
     inkscape:connector-curvature="0"
     id="path92"
     d="" />
  <path
     style="fill:none;stroke:#000000;stroke-width:2;marker-start:url(#TriangleInM);marker-mid:url(#TriangleInM);marker-end:url(#TriangleInM)"
     inkscape:connector-curvature="0"
     id="path94"
     d="M 463.5,618.6 598.9,575.9 734.4,517.3" />
  <path
     style="fill:none;stroke:#0000ff;stroke-width:2"
     inkscape:connector-curvature="0"
     id="path96"
     d="" />
  <path
     style="fill:none;stroke:#0000ff;stroke-width:2"
     inkscape:connector-curvature="0"
     id="path98"
     d="" />
  <path
     style="fill:none;stroke:#000000;stroke-width:2"
     inkscape:connector-curvature="0"
     id="path100"
     d="M 454.3,635.8 472.7,635.8 M 454.3,601.4 472.7,601.4 M 463.5,635.8 463.5,601.4 M 463.5,618.6 M 589.7,599.4 608.2,599.4 M 589.7,552.5 608.2,552.5 M 598.9,599.4 598.9,552.5 M 598.9,575.9 M 725.2,542.5 743.6,542.5 M 725.2,492.2 743.6,492.2 M 734.4,542.5 734.4,492.2 M 734.4,517.3" />
  <path
     style="fill:none;stroke:#218b21;stroke-width:2"
     inkscape:connector-curvature="0"
     id="path102"
     d="" />
  <path
     style="fill:none;stroke:#ff0000;stroke-width:2;stroke-opacity:1;stroke-miterlimit:4;stroke-dasharray:16.00000001, 8.00000001000000083;stroke-dashoffset:0;marker-start:url(#DiamondM);marker-mid:url(#DiamondM);marker-end:url(#DiamondM)"
     inkscape:connector-curvature="0"
     id="path104"
     d="M 463.5,581.3 598.9,506.7 734.4,432" />
  <path
     style="fill:none;stroke:#218b21;stroke-width:2"
     inkscape:connector-curvature="0"
     id="path106"
     d="" />
  <path
     style="fill:none;stroke:#218b21;stroke-width:2"
     inkscape:connector-curvature="0"
     id="path108"
     d="" />
  <path
     style="fill:none;stroke:#ff0000;stroke-width:2;stroke-opacity:1"
     inkscape:connector-curvature="0"
     id="path110"
     d="M 454.3,602.7 472.7,602.7 M 454.3,560 472.7,560 M 463.5,602.7 463.5,560 M 463.5,581.3 M 589.7,533.2 608.2,533.2 M 589.7,480.1 608.2,480.1 M 598.9,533.2 598.9,480.1 M 598.9,506.7 M 725.2,456.4 743.6,456.4 M 725.2,407.7 743.6,407.7 M 734.4,456.4 734.4,407.7 M 734.4,432" />
  <g
     transform="translate(25.104219,16.630688)"
     id="g4306">
    <g
       transform="matrix(0.98789968,0,0,-1,3.6177483,590.7815)"
       id="g6336">
      <path
         style="fill:none;stroke:#000000;stroke-width:2.579319;stroke-miterlimit:4;stroke-dasharray:none"
         inkscape:connector-curvature="0"
         id="path4314"
         d="M 298.97963,248.96301 360.88328,248.96301" />
      <path
         style="fill:none;stroke:#ff0000;stroke-width:2.579319;stroke-miterlimit:4;stroke-dasharray:20.634552, 20.634552;stroke-dashoffset:0"
         inkscape:connector-curvature="0"
         id="path4320"
         d="M 298.97963,279.91484 360.88328,279.91484" />
      <path
         style="fill:none;stroke:#0000ff;stroke-width:2.579319;stroke-miterlimit:4;stroke-dasharray:20.634552, 5.158638, 2.579319, 5.158638;stroke-dashoffset:0"
         inkscape:connector-curvature="0"
         id="path4326"
         d="M 298.97963,310.86667 360.88328,310.86667" />
      <path
         style="fill:none;stroke:#218b21;stroke-width:2.579319;stroke-miterlimit:4;stroke-dasharray:7.737957, 7.737957;stroke-dashoffset:0"
         inkscape:connector-curvature="0"
         id="path4332"
         d="M 298.97963,341.81849 360.88328,341.81849" />
    </g>
    <text
       xml:space="preserve"
       style="font-style:normal;font-weight:normal;font-size:100px;line-height:125%;font-family:sans-serif;letter-spacing:-5px;word-spacing:0px;fill:#0000f9;fill-opacity:1;stroke:none;stroke-width:1px;stroke-linecap:butt;stroke-linejoin:miter;stroke-opacity:1"
       x="371.53067"
       y="285.40265"
       id="text6484"
       sodipodi:linespacing="125%"><tspan
         sodipodi:role="line"
         id="tspan6486"
         x="371.53067"
         y="285.40265"
         style="font-style:normal;font-variant:normal;font-weight:normal;font-stretch:normal;font-size:23.78125px;line-height:125%;font-family:Arial;-inkscape-font-specification:'Arial, Normal';text-align:start;letter-spacing:0px;writing-mode:lr-tb;text-anchor:start;fill:#0000f9;fill-opacity:1">single-simple</tspan></text>
    <text
       x="370.02234"
       y="256.46158"
       font-size="21.0"
       id="text6404-7"
       style="font-style:normal;font-variant:normal;font-weight:normal;font-stretch:normal;font-size:23.78132057px;line-height:150%;font-family:Arial;-inkscape-font-specification:'Arial, Normal';text-align:start;writing-mode:lr-tb;text-anchor:start;fill:#218b21;stroke-width:2.5;stroke-miterlimit:4;stroke-dasharray:none"
       sodipodi:linespacing="150%">
      <tspan
         style="font-style:normal;font-variant:normal;font-weight:normal;font-stretch:normal;font-size:23.78132057px;line-height:150%;font-family:Arial;-inkscape-font-specification:'Arial, Normal';text-align:start;writing-mode:lr-tb;text-anchor:start;stroke-width:2.5;stroke-miterlimit:4;stroke-dasharray:none"
         id="tspan6406-4">single-complex</tspan>
    </text>
    <text
       sodipodi:linespacing="125%"
       id="text4244"
       y="316.86292"
       x="368.53448"
       style="font-style:normal;font-variant:normal;font-weight:normal;font-stretch:normal;font-size:100px;line-height:125%;font-family:Arial;-inkscape-font-specification:'Arial, Normal';text-align:start;letter-spacing:-5px;word-spacing:0px;writing-mode:lr-tb;text-anchor:start;fill:#000000;fill-opacity:1;stroke:none;stroke-width:1px;stroke-linecap:butt;stroke-linejoin:miter;stroke-opacity:1"
       xml:space="preserve"><tspan
         style="font-style:normal;font-variant:normal;font-weight:normal;font-stretch:normal;font-size:23.78125px;line-height:125%;font-family:Arial;-inkscape-font-specification:'Arial, Normal';text-align:start;letter-spacing:0px;writing-mode:lr-tb;text-anchor:start;fill:#ff0000;fill-opacity:1"
         y="316.86292"
         x="368.53448"
         id="tspan4246"
         sodipodi:role="line">multiple-complex</tspan></text>
    <text
       sodipodi:linespacing="125%"
       id="text4272"
       y="347.57413"
       x="367.78543"
       style="font-style:normal;font-weight:normal;font-size:100px;line-height:125%;font-family:sans-serif;letter-spacing:-5px;word-spacing:0px;fill:#000000;fill-opacity:1;stroke:none;stroke-width:1px;stroke-linecap:butt;stroke-linejoin:miter;stroke-opacity:1"
       xml:space="preserve"><tspan
         style="font-style:normal;font-variant:normal;font-weight:normal;font-stretch:normal;font-size:23.78125px;line-height:125%;font-family:Arial;-inkscape-font-specification:'Arial, Normal';text-align:start;letter-spacing:0px;writing-mode:lr-tb;text-anchor:start"
         y="347.57413"
         x="367.78543"
         id="tspan4274"
         sodipodi:role="line">multiple-simple</tspan></text>
  </g>
  <text
     style="font-style:normal;font-variant:normal;font-weight:normal;font-stretch:normal;font-size:25px;line-height:125%;font-family:Arial;-inkscape-font-specification:'Arial, Normal';text-align:center;writing-mode:lr-tb;text-anchor:middle;fill:#000000"
     id="text12"
     font-size="27.7"
     y="726.80695"
     x="736.46991"
     sodipodi:linespacing="125%">D1</text>
  <text
     x="455.60892"
     y="727.55597"
     font-size="27.7"
     id="text4299"
     style="font-style:normal;font-variant:normal;font-weight:normal;font-stretch:normal;font-size:25px;line-height:125%;font-family:Arial;-inkscape-font-specification:'Arial, Normal';text-align:center;writing-mode:lr-tb;text-anchor:middle;fill:#000000"
     sodipodi:linespacing="125%">D3</text>
  <text
     x="595.35132"
     y="727.55591"
     font-size="27.7"
     id="text4317"
     style="font-style:normal;font-variant:normal;font-weight:normal;font-stretch:normal;font-size:25px;line-height:125%;font-family:Arial;-inkscape-font-specification:'Arial, Normal';text-align:center;writing-mode:lr-tb;text-anchor:middle;fill:#000000"
     sodipodi:linespacing="125%">
    <tspan
       sodipodi:role="line"
       id="tspan4319"
       x="595.35132"
       y="727.55591">D2</tspan>
  </text>
  <text
     style="font-style:normal;font-variant:normal;font-weight:normal;font-stretch:normal;font-size:25px;line-height:125%;font-family:Arial;-inkscape-font-specification:'Arial, Normal';text-align:center;writing-mode:lr-tb;text-anchor:middle;fill:#000000"
     id="text8"
     font-size="27.7"
     y="760.03101"
     x="524.98901"
     sodipodi:linespacing="125%">Degree of Degradation</text>
</svg>
