<?xml version="1.0" encoding="UTF-8" standalone="no"?>
<!-- Created with Inkscape (http://www.inkscape.org/) -->

<svg
   xmlns:dc="http://purl.org/dc/elements/1.1/"
   xmlns:cc="http://creativecommons.org/ns#"
   xmlns:rdf="http://www.w3.org/1999/02/22-rdf-syntax-ns#"
   xmlns:svg="http://www.w3.org/2000/svg"
   xmlns="http://www.w3.org/2000/svg"
   xmlns:xlink="http://www.w3.org/1999/xlink"
   xmlns:sodipodi="http://sodipodi.sourceforge.net/DTD/sodipodi-0.dtd"
   xmlns:inkscape="http://www.inkscape.org/namespaces/inkscape"
   id="svg2"
   version="1.1"
   inkscape:version="0.47 r22583"
   width="455"
   height="160"
   xml:space="preserve"
   sodipodi:docname="fig_inhib_types.svg"
   inkscape:export-filename="/Users/oreilly/svn_docs/figs/fig_inhib_types.png"
   inkscape:export-xdpi="149.95818"
   inkscape:export-ydpi="149.95818"><metadata
     id="metadata8"><rdf:RDF><cc:Work
         rdf:about=""><dc:format>image/svg+xml</dc:format><dc:type
           rdf:resource="http://purl.org/dc/dcmitype/StillImage" /><dc:title></dc:title></cc:Work></rdf:RDF></metadata><defs
     id="defs6"><linearGradient
   id="linearGradient3750"><stop
     style="stop-color:#ffffff;stop-opacity:1;"
     offset="0"
     id="stop3752" /><stop
     style="stop-color:#ff5555;stop-opacity:1;"
     offset="1"
     id="stop3754" /></linearGradient><linearGradient
   id="linearGradient3718"><stop
     style="stop-color:#ffffff;stop-opacity:1;"
     offset="0"
     id="stop3720" /><stop
     style="stop-color:#27ff27;stop-opacity:1;"
     offset="1"
     id="stop3722" /></linearGradient><inkscape:perspective
   sodipodi:type="inkscape:persp3d"
   inkscape:vp_x="0 : 0.5 : 1"
   inkscape:vp_y="0 : 1000 : 0"
   inkscape:vp_z="1 : 0.5 : 1"
   inkscape:persp3d-origin="0.5 : 0.33333333 : 1"
   id="perspective10" /><radialGradient
   inkscape:collect="always"
   xlink:href="#linearGradient3718"
   id="radialGradient3724"
   cx="924.047"
   cy="195.26"
   fx="924.047"
   fy="195.26"
   r="411.3595"
   gradientTransform="matrix(1,0,0,0.44186168,0,108.98209)"
   gradientUnits="userSpaceOnUse" /><radialGradient
   inkscape:collect="always"
   xlink:href="#linearGradient3718"
   id="radialGradient3732"
   cx="2799.0811"
   cy="195.25999"
   fx="2799.0811"
   fy="195.25999"
   r="411.35751"
   gradientTransform="matrix(1,0,0,0.44186383,0,108.98167)"
   gradientUnits="userSpaceOnUse" /><radialGradient
   inkscape:collect="always"
   xlink:href="#linearGradient3718"
   id="radialGradient3740"
   cx="598.78748"
   cy="807.5155"
   fx="598.78748"
   fy="807.5155"
   r="353.95901"
   gradientTransform="matrix(1,0,0,0.51351145,0,392.84704)"
   gradientUnits="userSpaceOnUse" /><radialGradient
   inkscape:collect="always"
   xlink:href="#linearGradient3718"
   id="radialGradient3748"
   cx="2512.0845"
   cy="807.5155"
   fx="2512.0845"
   fy="807.5155"
   r="353.961"
   gradientTransform="matrix(1,0,0,0.51350855,0,392.84939)"
   gradientUnits="userSpaceOnUse" /><radialGradient
   inkscape:collect="always"
   xlink:href="#linearGradient3750"
   id="radialGradient3756"
   cx="1344.973"
   cy="807.5155"
   fx="1344.973"
   fy="807.5155"
   r="220.0295"
   gradientTransform="matrix(1,0,0,0.82608014,0,140.44298)"
   gradientUnits="userSpaceOnUse" /><radialGradient
   inkscape:collect="always"
   xlink:href="#linearGradient3750"
   id="radialGradient3764"
   cx="3258.2729"
   cy="807.5155"
   fx="3258.2729"
   fy="807.5155"
   r="220.0295"
   gradientTransform="matrix(1,0,0,0.82608014,0,140.44298)"
   gradientUnits="userSpaceOnUse" />
</defs><sodipodi:namedview
     pagecolor="#ffffff"
     bordercolor="#666666"
     borderopacity="1"
     objecttolerance="10"
     gridtolerance="10"
     guidetolerance="10"
     inkscape:pageopacity="0"
     inkscape:pageshadow="2"
     inkscape:window-width="1512"
     inkscape:window-height="1018"
     id="namedview4"
     showgrid="false"
     inkscape:zoom="1.749895"
     inkscape:cx="188.26512"
     inkscape:cy="79.257998"
     inkscape:window-x="73"
     inkscape:window-y="65"
     inkscape:window-maximized="0"
     inkscape:current-layer="g14" /><g
     id="g12"
     inkscape:groupmode="layer"
     inkscape:label="fig_inhib_types"
     transform="matrix(1.25,0,0,-1.25,0,160)"><g
       id="g14"
       transform="scale(0.1,0.1)"><rect
         style="fill:#ffffff;fill-opacity:1;fill-rule:nonzero;stroke:#ffffff;stroke-width:1;stroke-miterlimit:10;stroke-opacity:1;stroke-dasharray:none;stroke-dashoffset:0"
         id="rect3766"
         width="466.88516"
         height="168.01007"
         x="-4.0002398"
         y="-2.8669128"
         transform="matrix(8,0,0,-8,0,1280)" /><g
         id="g2896"
         transform="translate(1659.5282,0)"><path
           id="path34"
           style="fill:url(#radialGradient3756);fill-opacity:1;stroke:#000000;stroke-width:19.13299942;stroke-linecap:butt;stroke-linejoin:miter;stroke-miterlimit:10;stroke-opacity:1;stroke-dasharray:none"
           d="m 1134.51,635.32 420.926,0 0,344.391 -420.926,0 0,-344.391 z" /><path
           id="path42"
           style="fill:url(#radialGradient3740);fill-opacity:1;stroke:#000000;stroke-width:19.13299942;stroke-linecap:butt;stroke-linejoin:miter;stroke-miterlimit:10;stroke-opacity:1;stroke-dasharray:none"
           d="m 254.395,635.32 688.785,0 0,344.391 -688.785,0 0,-344.391 z" /><path
           id="path16"
           style="fill:url(#radialGradient3724);fill-opacity:1;stroke:#000000;stroke-width:19.13299942;stroke-linecap:butt;stroke-linejoin:miter;stroke-miterlimit:10;stroke-opacity:1;stroke-dasharray:none"
           d="m 522.254,23.0625 803.586,0 0,344.395 -803.586,0 0,-344.395 z" /><g
           transform="scale(10,10)"
           id="g18"><text
   id="text20"
   transform="matrix(1,0,0,-1,79.9684,16.1012)"><tspan
     id="tspan22"
     sodipodi:role="line"
     y="0"
     x="0 3.1913843 9.5741529 15.956922 22.339691"
     style="font-size:11.47980022px;font-variant:normal;font-weight:normal;writing-mode:lr-tb;fill:#000000;fill-opacity:1;fill-rule:nonzero;stroke:none;font-family:Helvetica;-inkscape-font-specification:Helvetica">Input</tspan></text>

</g><path
           id="path24"
           style="fill:none;stroke:#000000;stroke-width:19.13299942;stroke-linecap:butt;stroke-linejoin:miter;stroke-miterlimit:10;stroke-opacity:1;stroke-dasharray:none"
           d="m 675.32,635.32 -76.531,0 38.266,-38.265 38.265,38.265 -76.531,0 38.266,-38.265 0,-229.598" /><path
           id="path26"
           style="fill:none;stroke:#000000;stroke-width:19.13299942;stroke-linecap:butt;stroke-linejoin:miter;stroke-miterlimit:10;stroke-opacity:1;stroke-dasharray:none"
           d="m 1287.57,635.32 -76.53,0 38.27,-38.265 38.26,38.265 -76.53,0 38.27,-38.265 0,-229.598" /><g
           transform="scale(10,10)"
           id="g28"><text
   id="text30"
   transform="matrix(1,0,0,-1,122.061,77.327)"><tspan
     id="tspan32"
     sodipodi:role="line"
     y="0"
     x="0 3.1913843 9.5741529 15.956922 18.505438"
     style="font-size:11.47980022px;font-variant:normal;font-weight:normal;writing-mode:lr-tb;fill:#000000;fill-opacity:1;fill-rule:nonzero;stroke:none;font-family:Helvetica;-inkscape-font-specification:Helvetica">Inhib</tspan></text>

</g><g
           transform="scale(10,10)"
           id="g36"><text
   y="-77.327003"
   x="31.202885"
   id="text38"
   transform="scale(1,-1)"><tspan
     y="-77.327003"
     x="31.202885"
     id="tspan40"
     sodipodi:role="line"
     style="font-size:11.47980022px;font-variant:normal;font-weight:normal;writing-mode:lr-tb;fill:#000000;fill-opacity:1;fill-rule:nonzero;stroke:none;font-family:Helvetica;-inkscape-font-specification:Helvetica">Excitatory</tspan></text>

</g><path
           id="path44"
           style="fill:none;stroke:#000000;stroke-width:19.13299942;stroke-linecap:butt;stroke-linejoin:miter;stroke-miterlimit:10;stroke-opacity:1;stroke-dasharray:none"
           d="m 1134.51,788.383 -114.8,0" /><path
           id="path46"
           style="fill:#000000;fill-opacity:1;fill-rule:evenodd;stroke:none"
           d="m 1019.71,788.383 c 0,21.133 -17.13,38.265 -38.265,38.265 -21.133,0 -38.265,-17.132 -38.265,-38.265 0,-21.133 17.132,-38.266 38.265,-38.266 21.135,0 38.265,17.133 38.265,38.266" /><path
           id="path48"
           style="fill:#ff0000;stroke:#000000;stroke-width:8;stroke-linecap:butt;stroke-linejoin:miter;stroke-miterlimit:10;stroke-opacity:1;stroke-dasharray:none"
           d="m 1019.71,788.383 c 0,21.133 -17.13,38.265 -38.265,38.265 -21.133,0 -38.265,-17.132 -38.265,-38.265 0,-21.133 17.132,-38.266 38.265,-38.266 21.135,0 38.265,17.133 38.265,38.266" /><g
           transform="scale(10,10)"
           id="g50"><text
   id="text52"
   transform="matrix(1,0,0,-1,151.717,47.6707)"><tspan
     id="tspan54"
     sodipodi:role="line"
     y="0"
     x="0 7.0141578 13.396927 19.779696 26.162464"
     style="font-size:11.47980022px;font-variant:normal;font-weight:normal;writing-mode:lr-tb;fill:#000000;fill-opacity:1;fill-rule:nonzero;stroke:none;font-family:Helvetica;-inkscape-font-specification:Helvetica">Feed−</tspan><tspan
     id="tspan56"
     sodipodi:role="line"
     y="11.4797"
     x="0 7.0141578 13.396927 17.2197 25.508116 31.890884 35.713657"
     style="font-size:11.47980022px;font-variant:normal;font-weight:normal;writing-mode:lr-tb;fill:#000000;fill-opacity:1;fill-rule:nonzero;stroke:none;font-family:Helvetica;-inkscape-font-specification:Helvetica">Forward</tspan></text>

</g><path
           id="path58"
           style="fill:none;stroke:#000000;stroke-width:9.56649017;stroke-linecap:butt;stroke-linejoin:miter;stroke-miterlimit:10;stroke-opacity:1;stroke-dasharray:none"
           d="M 1478.91,482.254 1287.57,520.52" /><path
           id="path60"
           style="fill:#000000;fill-opacity:1;fill-rule:evenodd;stroke:none"
           d="m 1362.36,479.805 -94.13,44.586 104.04,4.953" /><path
           id="path62"
           style="fill:none;stroke:#000000;stroke-width:9.56649017;stroke-linecap:butt;stroke-linejoin:miter;stroke-miterlimit:10;stroke-opacity:1;stroke-dasharray:none"
           d="m 1358.87,486.75 -71.3,33.77 78.8,3.753" /><path
           id="path116"
           style="fill:none;stroke:#000000;stroke-width:19.13299942;stroke-linecap:butt;stroke-linejoin:miter;stroke-miterlimit:10;stroke-opacity:1;stroke-dasharray:none"
           d="m 1555.44,941.445 153.06,0 0,-191.328 -76.53,0" /><path
           id="path118"
           style="fill:#000000;fill-opacity:1;fill-rule:evenodd;stroke:none"
           d="m 1631.97,750.117 c 0,21.133 -17.13,38.266 -38.27,38.266 -21.13,0 -38.26,-17.133 -38.26,-38.266 0,-21.133 17.13,-38.265 38.26,-38.265 21.14,0 38.27,17.132 38.27,38.265" /><path
           id="path120"
           style="fill:#ff0000;stroke:#000000;stroke-width:8;stroke-linecap:butt;stroke-linejoin:miter;stroke-miterlimit:10;stroke-opacity:1;stroke-dasharray:none"
           d="m 1631.97,750.117 c 0,21.133 -17.13,38.266 -38.27,38.266 -21.13,0 -38.26,-17.133 -38.26,-38.266 0,-21.133 17.13,-38.265 38.26,-38.265 21.14,0 38.27,17.132 38.27,38.265" /><path
           sodipodi:nodetypes="cccc"
           transform="matrix(8,0,0,-8,0,1280)"
           id="path2938"
           d="m 73.543517,80.597247 6.061279,6.869449 6.465364,-6.869449 -12.526643,0 z"
           style="fill:#008000;stroke:#000000;stroke-width:1px;stroke-linecap:butt;stroke-linejoin:miter;stroke-opacity:1" /><path
           style="fill:#008000;stroke:#000000;stroke-width:8px;stroke-linecap:butt;stroke-linejoin:miter;stroke-opacity:1"
           d="m 1202.5577,635.22202 48.4903,-54.95559 51.7229,54.95559 -100.2132,0 z"
           id="path3712"
           sodipodi:nodetypes="cccc" /></g><g
         id="g2927"
         transform="translate(-1997.8341,0)"><path
           id="path80"
           style="fill:url(#radialGradient3764);fill-opacity:1;stroke:#000000;stroke-width:19.13299942;stroke-linecap:butt;stroke-linejoin:miter;stroke-miterlimit:10;stroke-opacity:1;stroke-dasharray:none"
           d="m 3047.81,635.32 420.926,0 0,344.391 -420.926,0 0,-344.391 z" /><path
           id="path64"
           style="fill:url(#radialGradient3732);fill-opacity:1;stroke:#000000;stroke-width:19.13299942;stroke-linecap:butt;stroke-linejoin:miter;stroke-miterlimit:10;stroke-opacity:1;stroke-dasharray:none"
           d="m 2397.29,23.0625 803.582,0 0,344.395 -803.582,0 0,-344.395 z" /><g
           transform="scale(10,10)"
           id="g66"><text
   id="text68"
   transform="matrix(1,0,0,-1,267.471,16.1012)"><tspan
     id="tspan70"
     sodipodi:role="line"
     y="0"
     x="0 3.1913843 9.5741529 15.956922 22.339691"
     style="font-size:11.47980022px;font-variant:normal;font-weight:normal;writing-mode:lr-tb;fill:#000000;fill-opacity:1;fill-rule:nonzero;stroke:none;font-family:Helvetica;-inkscape-font-specification:Helvetica">Input</tspan></text>

</g><path
           id="path72"
           style="fill:none;stroke:#000000;stroke-width:19.13299942;stroke-linecap:butt;stroke-linejoin:miter;stroke-miterlimit:10;stroke-opacity:1;stroke-dasharray:none"
           d="m 2588.62,635.32 -76.53,0 38.26,-38.265 38.27,38.265 -76.53,0 38.26,-38.265 0,-229.598" /><g
           transform="scale(10,10)"
           id="g74"><text
   id="text76"
   transform="matrix(1,0,0,-1,313.391,77.327)"><tspan
     id="tspan78"
     sodipodi:role="line"
     y="0"
     x="0 3.1913843 9.5741529 15.956922 18.505438"
     style="font-size:11.47980022px;font-variant:normal;font-weight:normal;writing-mode:lr-tb;fill:#000000;fill-opacity:1;fill-rule:nonzero;stroke:none;font-family:Helvetica;-inkscape-font-specification:Helvetica">Inhib</tspan></text>

</g><path
           id="path88"
           style="fill:url(#radialGradient3748);fill-opacity:1;stroke:#000000;stroke-width:19.13299942;stroke-linecap:butt;stroke-linejoin:miter;stroke-miterlimit:10;stroke-opacity:1;stroke-dasharray:none"
           d="m 2167.69,635.32 688.789,0 0,344.391 -688.789,0 0,-344.391 z" /><path
           id="path90"
           style="fill:none;stroke:#000000;stroke-width:19.13299942;stroke-linecap:butt;stroke-linejoin:miter;stroke-miterlimit:10;stroke-opacity:1;stroke-dasharray:none"
           d="m 3047.81,788.383 -114.8,0" /><path
           id="path92"
           style="fill:#000000;fill-opacity:1;fill-rule:evenodd;stroke:none"
           d="m 2933.01,788.383 c 0,21.133 -17.13,38.265 -38.26,38.265 -21.14,0 -38.27,-17.132 -38.27,-38.265 0,-21.133 17.13,-38.266 38.27,-38.266 21.13,0 38.26,17.133 38.26,38.266" /><path
           id="path94"
           style="fill:#ff0000;stroke:#000000;stroke-width:8;stroke-linecap:butt;stroke-linejoin:miter;stroke-miterlimit:10;stroke-opacity:1;stroke-dasharray:none"
           d="m 2933.01,788.383 c 0,21.133 -17.13,38.265 -38.26,38.265 -21.14,0 -38.27,-17.132 -38.27,-38.265 0,-21.133 17.13,-38.266 38.27,-38.266 21.13,0 38.26,17.133 38.26,38.266" /><path
           id="path102"
           style="fill:none;stroke:#000000;stroke-width:19.13299942;stroke-linecap:butt;stroke-linejoin:miter;stroke-miterlimit:10;stroke-opacity:1;stroke-dasharray:none"
           d="m 3047.81,864.914 0,76.531 -38.27,-38.265 38.27,-38.266 0,76.531 -38.27,-38.265 -153.06,0" /><path
           id="path104"
           style="fill:none;stroke:#000000;stroke-width:9.56649017;stroke-linecap:butt;stroke-linejoin:miter;stroke-miterlimit:10;stroke-opacity:1;stroke-dasharray:none"
           d="m 2933.01,1132.78 38.27,-191.335" /><path
           id="path106"
           style="fill:#000000;fill-opacity:1;fill-rule:evenodd;stroke:none"
           d="m 2980.1,1026.14 -4.96,-104.031 -44.58,94.121" /><path
           id="path108"
           style="fill:none;stroke:#000000;stroke-width:9.56649017;stroke-linecap:butt;stroke-linejoin:miter;stroke-miterlimit:10;stroke-opacity:1;stroke-dasharray:none"
           d="m 2975.03,1020.25 -3.75,-78.805 -33.77,71.295" /><g
           transform="scale(10,10)"
           id="g110"><text
   id="text112"
   transform="matrix(1,0,0,-1,258.862,116.549)"><tspan
     id="tspan114"
     sodipodi:role="line"
     y="0"
     x="0 7.0141578 13.396927 19.779696 26.162464 32.545235 38.928001 44.6679"
     style="font-size:11.47980022px;font-variant:normal;font-weight:normal;writing-mode:lr-tb;fill:#000000;fill-opacity:1;fill-rule:nonzero;stroke:none;font-family:Helvetica;-inkscape-font-specification:Helvetica">Feedback</tspan></text>

</g><path
           id="path122"
           style="fill:none;stroke:#000000;stroke-width:19.13299942;stroke-linecap:butt;stroke-linejoin:miter;stroke-miterlimit:10;stroke-opacity:1;stroke-dasharray:none"
           d="m 3468.73,941.445 153.07,0 0,-191.328 -76.53,0" /><path
           id="path124"
           style="fill:#000000;fill-opacity:1;fill-rule:evenodd;stroke:none"
           d="m 3545.27,750.117 c 0,21.133 -17.14,38.266 -38.27,38.266 -21.13,0 -38.27,-17.133 -38.27,-38.266 0,-21.133 17.14,-38.265 38.27,-38.265 21.13,0 38.27,17.132 38.27,38.265" /><path
           id="path126"
           style="fill:#ff0000;stroke:#000000;stroke-width:8;stroke-linecap:butt;stroke-linejoin:miter;stroke-miterlimit:10;stroke-opacity:1;stroke-dasharray:none"
           d="m 3545.27,750.117 c 0,21.133 -17.14,38.266 -38.27,38.266 -21.13,0 -38.27,-17.133 -38.27,-38.266 0,-21.133 17.14,-38.265 38.27,-38.265 21.13,0 38.27,17.132 38.27,38.265" /><g
           id="g2932"
           transform="matrix(10,0,0,10,1897.5844,0)"><text
   transform="scale(1,-1)"
   id="text2934"
   x="31.202885"
   y="-77.327003"><tspan
     style="font-size:11.47980022px;font-variant:normal;font-weight:normal;writing-mode:lr-tb;fill:#000000;fill-opacity:1;fill-rule:nonzero;stroke:none;font-family:Helvetica;-inkscape-font-specification:Helvetica"
     sodipodi:role="line"
     id="tspan2936"
     x="31.202885"
     y="-77.327003">Excitatory</tspan></text>

</g><path
           inkscape:transform-center-y="12.526643"
           inkscape:transform-center-x="158.40142"
           sodipodi:nodetypes="cccc"
           id="path3714"
           d="m 2503.0427,635.22202 48.4903,-54.95559 51.7229,54.95559 -100.2132,0 z"
           style="fill:#008000;stroke:#000000;stroke-width:8px;stroke-linecap:butt;stroke-linejoin:miter;stroke-opacity:1" /><path
           inkscape:transform-center-y="6.763325"
           inkscape:transform-center-x="3.934725"
           sodipodi:nodetypes="cccc"
           id="path3716"
           d="m 3044.6434,952.1623 -54.9556,-48.4903 54.9556,-51.7229 0,100.2132 z"
           style="fill:#008000;stroke:#000000;stroke-width:8px;stroke-linecap:butt;stroke-linejoin:miter;stroke-opacity:1" /></g><text
         xml:space="preserve"
         style="font-size:128px;font-style:normal;font-variant:normal;font-weight:normal;font-stretch:normal;text-indent:0;text-align:start;text-decoration:none;line-height:normal;letter-spacing:normal;word-spacing:normal;text-transform:none;direction:ltr;block-progression:tb;writing-mode:lr-tb;text-anchor:start;color:#000000;fill:#000000;fill-opacity:1;fill-rule:nonzero;stroke:none;stroke-width:1px;marker:none;visibility:visible;display:inline;overflow:visible;enable-background:accumulate;font-family:Arial;-inkscape-font-specification:Arial"
         x="41.145325"
         y="-1069.7784"
         id="text2959"
         transform="scale(1,-1)"><tspan
           sodipodi:role="line"
           id="tspan2961"
           x="41.145325"
           y="-1069.7784"
           style="font-size:112px">a)</tspan></text>
<text
         xml:space="preserve"
         style="font-size:128px;font-style:normal;font-variant:normal;font-weight:normal;font-stretch:normal;text-indent:0;text-align:start;text-decoration:none;line-height:normal;letter-spacing:normal;word-spacing:normal;text-transform:none;direction:ltr;block-progression:tb;writing-mode:lr-tb;text-anchor:start;color:#000000;fill:#000000;fill-opacity:1;fill-rule:nonzero;stroke:none;stroke-width:1px;marker:none;visibility:visible;display:inline;overflow:visible;enable-background:accumulate;font-family:Arial;-inkscape-font-specification:Arial"
         x="1787.5359"
         y="-1069.7784"
         id="text2963"
         transform="scale(1,-1)"><tspan
           sodipodi:role="line"
           id="tspan2965"
           x="1787.5359"
           y="-1069.7784"
           style="font-size:112px">b)</tspan></text>
</g></g></svg>