<?xml version="1.0" encoding="ISO-8859-1" standalone="yes"?>
<svg width="235.496" height="241.446">
  <defs> 
    <marker id="ArrowEnd" viewBox="0 0 10 10" refX="0" refY="5" 
     markerUnits="strokeWidth" 
     markerWidth="4" 
     markerHeight="3" 
     orient="auto"> 
        <path d="M 0 0 L 10 5 L 0 10 z" /> 
    </marker>
    <marker id="ArrowStart" viewBox="0 0 10 10" refX="10" refY="5" 
     markerUnits="strokeWidth" 
     markerWidth="4" 
     markerHeight="3" 
     orient="auto"> 
        <path d="M 10 0 L 0 5 L 10 10 z" /> 
    </marker> </defs>
<g>
<path style="stroke:#000000; stroke-dasharray:6,3; stroke-width:0.95664899999999997; fill:none" d="M 5.1562 222.141L 200.308 222.141"/>
<path style="stroke:#000000; stroke-width:1.9133; fill:none" d="M 47.25 199.18L 156.304 199.18L 162.043 181.961L 167.781 199.18L 183.086 199.18"/>
<path style="stroke:#000000; stroke-width:1.9133; fill:none" d="M 47.25 153.262L 70.207 153.262L 70.207 136.043L 167.785 136.043L 167.785 153.262L 183.09 153.262"/>
<path style="stroke:#000000; stroke-dasharray:6,3; stroke-width:0.95664899999999997; fill:none" d="M 5.1562 176.219L 200.308 176.219"/>
<path style="stroke:#000000; stroke-dasharray:6,3; stroke-width:0.95664899999999997; fill:none" d="M 5.1562 199.18L 200.308 199.18"/>
<path style="stroke:none; fill-rule:evenodd; fill:#000000" d="M 9.9961 218.895L 13.25 218.895C 15.3789 218.895 16.6914 217.305 16.6914 214.691C 16.6914 212.09 15.3945 210.5 13.25 210.5L 9.9961 210.5L 9.9961 218.895zM 11.0976 217.996L 11.0976 211.398L 13.0703 211.398C 14.7226 211.398 15.5937 212.531 15.5937 214.703C 15.5937 216.852 14.7226 217.996 13.0703 217.996L 11.0976 217.996z"/>
<path style="stroke:none; fill-rule:evenodd; fill:#000000" d="M 22.7383 216.395L 23.5976 218.895L 24.789 218.895L 21.8515 210.496L 20.4765 210.496L 17.4922 218.895L 18.625 218.895L 19.5078 216.395L 22.7383 216.395zM 22.4414 215.496L 19.7812 215.496L 21.1562 211.676L 22.4414 215.496z"/>
<path style="stroke:#000000; stroke-dasharray:6,3; stroke-width:0.95664899999999997; fill:none" d="M 5.1562 199.18L 200.308 199.18"/>
<path style="stroke:#000000; stroke-dasharray:6,3; stroke-width:0.95664899999999997; fill:none" d="M 5.1562 153.262L 200.308 153.262"/>
<path style="stroke:none; fill-rule:evenodd; fill:#000000" d="M 11.0976 144.496L 13.7383 144.496C 14.3945 144.496 14.914 144.305 15.3672 143.902C 15.875 143.449 16.0937 142.91 16.0937 142.145C 16.0937 140.582 15.1562 139.699 13.4844 139.699L 9.9961 139.699L 9.9961 148.098L 11.0937 148.098L 11.0976 144.496zM 11.0976 143.594L 11.0976 140.594L 13.3476 140.594C 14.3789 140.594 14.9961 141.156 14.9961 142.094C 14.9961 143.027 14.3828 143.594 13.3476 143.594L 11.0976 143.594z"/>
<path style="stroke:none; fill-rule:evenodd; fill:#000000" d="M 18.6992 144.293L 22.6914 144.293L 22.6914 143.395L 18.6992 143.395L 18.6992 140.598L 23.1992 140.598L 23.1992 139.699L 17.6015 139.699L 17.6015 148.098L 18.6992 148.098L 18.6992 144.293z"/>
<path style="stroke:none; fill-rule:evenodd; fill:#000000" d="M 31.2969 142.32C 30.9609 140.492 29.8984 139.598 28.0469 139.598C 26.914 139.598 26.0039 139.953 25.3789 140.645C 24.6172 141.473 24.2031 142.668 24.2031 144.027C 24.2031 145.406 24.6289 146.594 25.4258 147.41C 26.0703 148.078 26.9023 148.387 28 148.387C 30.0547 148.387 31.2109 147.273 31.4687 145.035L 30.3633 145.035C 30.2734 145.625 30.1601 146.027 29.9844 146.371C 29.6406 147.082 28.9258 147.484 28.0312 147.484C 26.3633 147.484 25.3047 146.133 25.3047 144.012C 25.3047 141.832 26.3164 140.488 27.9414 140.488C 28.6172 140.488 29.2539 140.699 29.5976 141.023C 29.9062 141.316 30.0781 141.676 30.207 142.309L 31.2969 142.32z"/>
<path style="stroke:#000000; stroke-dasharray:6,3; stroke-width:0.95664899999999997; fill:none" d="M 5.1562 130.301L 200.308 130.301"/>
<path style="stroke:#000000; stroke-width:1.9133; fill:none" d="M 47.25 130.301L 64.4687 130.301L 64.4687 113.082L 77.8594 113.082L 77.8594 130.301L 183.09 130.301"/>
<path style="stroke:#000000; stroke-width:1.9133; fill:none" d="M 47.25 176.219L 64.4687 176.219L 64.4687 159L 77.8594 159L 77.8594 176.219L 183.09 176.219"/>
<path style="stroke:#000000; stroke-width:1.9133; fill:none" d="M 47.25 222.141L 64.4687 222.141L 70.207 210.664L 75.9453 222.141L 156.301 222.141L 162.039 218.316L 167.777 222.141L 183.082 222.141"/>
<path style="stroke:#000000; stroke-width:0.95664899999999997; fill:none" d="M 74.0351 212.57C 74.0351 212.57 74.0351 212.57 74.6719 209.383C 75.3086 206.195 76.582 199.82 76.582 194.078C 76.582 188.34 75.3086 183.238 74.6719 180.688C 74.0351 178.137 74.0351 178.137 74.0351 178.137"/>
<path style="stroke:none; fill-rule:evenodd; fill:#000000" d="M 179.187 139.695C 178.398 140.699 177.898 142.098 177.898 143.301C 177.898 144.512 178.394 145.906 179.187 146.914L 179.621 146.914C 178.965 145.816 178.597 144.527 178.597 143.301C 178.597 142.082 178.961 140.785 179.621 139.695L 179.187 139.695z"/>
<path style="stroke:none; fill-rule:evenodd; fill:#000000" d="M 183.25 142.402C 183.242 141.633 182.715 141.199 181.769 141.199C 180.82 141.199 180.203 141.68 180.203 142.418C 180.203 143.043 180.523 143.34 181.476 143.566L 182.074 143.711C 182.519 143.816 182.695 143.977 182.695 144.266C 182.695 144.637 182.328 144.891 181.781 144.891C 181.445 144.891 181.16 144.793 181 144.621C 180.902 144.508 180.859 144.391 180.82 144.102L 180.16 144.102C 180.187 145.043 180.707 145.492 181.75 145.492C 182.754 145.492 183.394 145 183.394 144.227C 183.394 143.633 183.058 143.305 182.258 143.113L 181.644 142.969C 181.125 142.848 180.902 142.68 180.902 142.398C 180.902 142.035 181.234 141.797 181.758 141.797C 182.273 141.797 182.551 142.004 182.566 142.402L 183.25 142.402z"/>
<path style="stroke:none; fill-rule:evenodd; fill:#000000" d="M 184.097 146.965L 184.797 146.965L 184.797 144.898C 185.125 145.313 185.496 145.496 186.008 145.496C 187.023 145.496 187.691 144.664 187.691 143.387C 187.691 142.043 187.035 141.199 185.972 141.199C 185.429 141.199 184.996 141.441 184.695 141.914L 184.695 141.313L 184.097 141.313L 184.097 146.965zM 185.875 141.793C 186.551 141.793 186.996 142.41 186.996 143.363C 186.996 144.27 186.547 144.887 185.875 144.887C 185.226 144.887 184.801 144.277 184.801 143.34C 184.801 142.402 185.226 141.793 185.875 141.793z"/>
<path style="stroke:none; fill-rule:evenodd; fill:#000000" d="M 192.094 144.918C 192.023 144.992 191.992 144.992 191.953 144.992C 191.726 144.992 191.601 144.879 191.601 144.676L 191.601 142.297C 191.601 141.582 191.086 141.195 190.101 141.195C 189.523 141.195 189.043 141.359 188.777 141.652C 188.597 141.852 188.519 142.078 188.504 142.469L 189.125 142.469C 189.176 142.004 189.457 141.793 190.035 141.793C 190.59 141.793 190.902 142.004 190.902 142.387L 190.902 142.555C 190.902 142.82 190.746 142.934 190.254 142.996C 189.371 143.109 189.238 143.141 188.996 143.238C 188.543 143.426 188.308 143.785 188.308 144.305C 188.308 145.027 188.816 145.484 189.629 145.484C 190.137 145.484 190.543 145.305 190.996 144.875C 191.039 145.297 191.238 145.484 191.656 145.484C 191.785 145.484 191.887 145.469 192.094 145.414L 192.094 144.918zM 190.898 144.023C 190.898 144.234 190.84 144.363 190.66 144.535C 190.414 144.77 190.113 144.891 189.758 144.891C 189.285 144.891 189.008 144.656 189.008 144.258C 189.008 143.844 189.277 143.633 189.926 143.531C 190.566 143.441 190.699 143.414 190.902 143.313L 190.898 144.023z"/>
<path style="stroke:none; fill-rule:evenodd; fill:#000000" d="M 192.699 141.309L 192.699 145.293L 193.398 145.293L 193.398 143.125C 193.398 142.324 193.824 141.797 194.476 141.797C 194.976 141.797 195.297 142.098 195.297 142.57L 195.297 145.293L 195.996 145.293L 195.996 142.281C 195.996 141.621 195.48 141.195 194.679 141.195C 194.062 141.195 193.664 141.422 193.301 141.977L 193.301 141.309L 192.699 141.309z"/>
<path style="stroke:none; fill-rule:evenodd; fill:#000000" d="M 199.847 142.402C 199.84 141.633 199.312 141.199 198.367 141.199C 197.418 141.199 196.801 141.68 196.801 142.418C 196.801 143.043 197.121 143.34 198.074 143.566L 198.672 143.711C 199.117 143.816 199.293 143.977 199.293 144.266C 199.293 144.637 198.926 144.891 198.379 144.891C 198.043 144.891 197.758 144.793 197.597 144.621C 197.5 144.508 197.457 144.391 197.418 144.102L 196.758 144.102C 196.785 145.043 197.304 145.492 198.347 145.492C 199.351 145.492 199.992 145 199.992 144.227C 199.992 143.633 199.656 143.305 198.855 143.113L 198.242 142.969C 197.722 142.848 197.5 142.68 197.5 142.398C 197.5 142.035 197.832 141.797 198.355 141.797C 198.871 141.797 199.148 142.004 199.164 142.402L 199.847 142.402z"/>
<path style="stroke:none; fill-rule:evenodd; fill:#000000" d="M 204.398 141.293L 203.801 141.293L 203.801 140.184L 203.101 140.184L 203.101 141.293L 202.601 141.293L 202.601 141.793L 203.101 141.793L 203.101 144.852C 203.101 145.258 203.375 145.492 203.875 145.492C 204.027 145.492 204.179 145.477 204.394 145.438L 204.394 144.883C 204.32 144.891 204.226 144.895 204.117 144.895C 203.867 144.895 203.797 144.82 203.797 144.539L 203.797 141.801L 204.394 141.801L 204.398 141.293z"/>
<path style="stroke:none; fill-rule:evenodd; fill:#000000" d="M 205.097 139.695L 205.097 145.293L 205.797 145.293L 205.797 143.125C 205.797 142.324 206.222 141.797 206.875 141.797C 207.078 141.797 207.281 141.863 207.433 141.977C 207.613 142.102 207.691 142.289 207.691 142.566L 207.691 145.289L 208.39 145.289L 208.39 142.277C 208.39 141.609 207.902 141.191 207.105 141.191C 206.531 141.191 206.179 141.359 205.797 141.832L 205.797 139.691L 205.097 139.695z"/>
<path style="stroke:none; fill-rule:evenodd; fill:#000000" d="M 212.699 143.496C 212.699 142.895 212.656 142.531 212.543 142.238C 212.285 141.594 211.676 141.199 210.929 141.199C 209.82 141.199 209.105 142.055 209.105 143.371C 209.105 144.684 209.801 145.496 210.929 145.496C 211.847 145.496 212.484 144.969 212.644 144.082L 212.008 144.082C 211.836 144.617 211.48 144.898 210.972 144.898C 210.574 144.898 210.23 144.715 210.019 144.371C 209.871 144.141 209.816 143.906 209.808 143.504L 212.699 143.496zM 209.785 142.984C 209.836 142.246 210.289 141.762 210.929 141.762C 211.554 141.762 212.039 142.281 212.039 142.938C 212.039 142.949 212.039 142.965 212.031 142.981L 209.785 142.984z"/>
<path style="stroke:none; fill-rule:evenodd; fill:#000000" d="M 218.996 139.695L 218.297 139.695L 218.297 141.789C 218.035 141.402 217.613 141.195 217.09 141.195C 216.07 141.195 215.402 142.027 215.402 143.305C 215.402 144.656 216.062 145.492 217.133 145.492C 217.679 145.492 218.058 145.281 218.398 144.766L 218.398 145.293L 218.996 145.293L 218.996 139.695zM 217.215 141.793C 217.875 141.793 218.293 142.402 218.293 143.355C 218.293 144.277 217.867 144.887 217.219 144.887C 216.543 144.887 216.094 144.27 216.094 143.34C 216.094 142.41 216.539 141.793 217.211 141.793L 217.215 141.793z"/>
<path style="stroke:none; fill-rule:evenodd; fill:#000000" d="M 223.398 143.496C 223.398 142.895 223.355 142.531 223.242 142.238C 222.984 141.594 222.375 141.199 221.629 141.199C 220.519 141.199 219.804 142.055 219.804 143.371C 219.804 144.684 220.5 145.496 221.629 145.496C 222.547 145.496 223.183 144.969 223.344 144.082L 222.707 144.082C 222.535 144.617 222.179 144.898 221.672 144.898C 221.273 144.898 220.929 144.715 220.719 144.371C 220.57 144.141 220.515 143.906 220.508 143.504L 223.398 143.496zM 220.484 142.984C 220.535 142.246 220.988 141.762 221.629 141.762C 222.254 141.762 222.738 142.281 222.738 142.938C 222.738 142.949 222.738 142.965 222.73 142.981L 220.484 142.984z"/>
<path style="stroke:none; fill-rule:evenodd; fill:#000000" d="M 224.199 145.293L 224.898 145.293L 224.898 139.695L 224.199 139.695L 224.199 145.293z"/>
<path style="stroke:none; fill-rule:evenodd; fill:#000000" d="M 229.492 144.918C 229.422 144.992 229.39 144.992 229.351 144.992C 229.125 144.992 229 144.879 229 144.676L 229 142.297C 229 141.582 228.484 141.195 227.5 141.195C 226.922 141.195 226.441 141.359 226.176 141.652C 225.996 141.852 225.918 142.078 225.902 142.469L 226.523 142.469C 226.574 142.004 226.855 141.793 227.433 141.793C 227.988 141.793 228.301 142.004 228.301 142.387L 228.301 142.555C 228.301 142.82 228.144 142.934 227.652 142.996C 226.769 143.109 226.637 143.141 226.394 143.238C 225.941 143.426 225.707 143.785 225.707 144.305C 225.707 145.027 226.215 145.484 227.027 145.484C 227.535 145.484 227.941 145.305 228.394 144.875C 228.437 145.297 228.637 145.484 229.054 145.484C 229.183 145.484 229.285 145.469 229.492 145.414L 229.492 144.918zM 228.297 144.023C 228.297 144.234 228.238 144.363 228.058 144.535C 227.812 144.77 227.511 144.891 227.156 144.891C 226.683 144.891 226.406 144.656 226.406 144.258C 226.406 143.844 226.676 143.633 227.324 143.531C 227.965 143.441 228.097 143.414 228.301 143.313L 228.297 144.023z"/>
<path style="stroke:none; fill-rule:evenodd; fill:#000000" d="M 232.668 141.293L 231.558 144.402L 230.535 141.293L 229.855 141.293L 231.207 145.355L 230.965 145.996C 230.867 146.281 230.722 146.387 230.453 146.387C 230.363 146.387 230.258 146.355 230.117 146.285L 230.117 146.883C 230.246 146.953 230.375 146.984 230.543 146.984C 230.746 146.984 230.969 146.918 231.137 146.793C 231.332 146.648 231.449 146.481 231.57 146.156L 233.351 141.289L 232.668 141.293z"/>
<path style="stroke:none; fill-rule:evenodd; fill:#000000" d="M 234.219 146.918C 235 145.914 235.496 144.52 235.496 143.313C 235.496 142.102 235.004 140.707 234.219 139.699L 233.789 139.699C 234.433 140.797 234.797 142.086 234.797 143.313C 234.797 144.531 234.437 145.828 233.789 146.918L 234.219 146.918z"/>
<path style="stroke:#000000; stroke-width:0.95664899999999997; fill:none" d="M 162.047 222.141C 162.047 222.141 162.047 222.141 162.047 223.414C 162.047 224.688 162.047 227.238 159.496 228.832C 156.945 230.426 151.844 231.063 142.597 231.063C 133.351 231.063 119.957 230.426 108.16 230.746C 96.3632 231.063 86.1602 232.34 80.418 231.383C 74.6797 230.43 73.4023 227.238 72.7656 225.645C 72.1289 224.051 72.1289 224.051 72.1289 224.051"/>
<path style="stroke:#000000; stroke-width:0.95664899999999997; fill:none" d="M 209.879 149.434C 209.879 149.434 209.879 149.434 208.605 163.781C 207.332 178.129 204.781 206.828 199.996 221.18C 195.215 235.527 188.199 235.527 177.996 235.527C 167.793 235.527 154.402 235.527 145.472 235.844C 136.547 236.16 132.082 236.797 129.531 236.16C 126.98 235.523 126.344 233.609 126.023 232.652C 125.707 231.699 125.707 231.699 125.707 231.699"/>
<path style="stroke:#000000; stroke-width:1.9133; fill:none" d="M 48.207 59.27L 157.261 59.27L 163 42.051L 168.738 59.27L 184.043 59.27"/>
<path style="stroke:#000000; stroke-width:1.9133; fill:none" d="M 48.207 36.309L 71.164 36.309L 71.164 19.09L 168.742 19.09L 168.742 36.309L 184.047 36.309"/>
<path style="stroke:#000000; stroke-dasharray:6,3; stroke-width:0.95664899999999997; fill:none" d="M 6.1133 36.309L 201.265 36.309"/>
<path style="stroke:#000000; stroke-dasharray:6,3; stroke-width:0.95664899999999997; fill:none" d="M 6.1133 59.27L 201.265 59.27"/>
<path style="stroke:none; fill-rule:evenodd; fill:#000000" d="M 10.8984 78.996L 14.1523 78.996C 16.2812 78.996 17.5937 77.406 17.5937 74.793C 17.5937 72.191 16.2969 70.602 14.1523 70.602L 10.8984 70.602L 10.8984 78.996zM 11.9961 78.094L 11.9961 71.496L 13.9687 71.496C 15.6211 71.496 16.4922 72.629 16.4922 74.801C 16.4922 76.949 15.6211 78.094 13.9687 78.094L 11.9961 78.094z"/>
<path style="stroke:none; fill-rule:evenodd; fill:#000000" d="M 23.6367 76.496L 24.4961 78.996L 25.6875 78.996L 22.75 70.598L 21.375 70.598L 18.3906 78.996L 19.5234 78.996L 20.4062 76.496L 23.6367 76.496zM 23.3398 75.594L 20.6797 75.594L 22.0547 71.773L 23.3398 75.594z"/>
<path style="stroke:#000000; stroke-width:1.9133; fill:none" d="M 48.207 82.231L 65.4258 82.231L 71.164 70.754L 76.9023 82.231L 157.258 82.231L 162.996 78.406L 168.734 82.231L 182.125 82.231"/>
<path style="stroke:#000000; stroke-dasharray:6,3; stroke-width:0.95664899999999997; fill:none" d="M 6.1133 59.27L 201.265 59.27"/>
<path style="stroke:#000000; stroke-dasharray:6,3; stroke-width:0.95664899999999997; fill:none" d="M 6.1133 82.231L 201.265 82.231"/>
<path style="stroke:none; fill-rule:evenodd; fill:#000000" d="M 6.5625 9.14099C 6.4414 9.19501 6.3867 9.19501 6.3164 9.19501C 5.9219 9.19501 5.6992 8.996 5.6992 8.64801L 5.6992 4.51999C 5.6992 3.27301 4.793 2.60199 3.0703 2.60199C 2.0586 2.60199 1.2187 2.89099 0.75 3.41C 0.433599 3.76599 0.2969 4.164 0.273399 4.85501L 1.3945 4.85501C 1.4844 3.992 1.9922 3.60199 3.0351 3.60199C 4.0351 3.60199 4.5976 3.97699 4.5976 4.64499L 4.5976 4.93799C 4.5976 5.40601 4.3203 5.60501 3.4453 5.711C 1.8828 5.91 1.6445 5.965 1.2187 6.13699C 0.410099 6.46899 0 7.10199 0 8.01199C 0 9.28101 0.878901 10.086 2.289 10.086C 3.168 10.086 3.8711 9.78101 4.6562 9.06601C 4.7344 9.76999 5.082 10.086 5.8008 10.086C 6.0273 10.086 6.1992 10.063 6.5586 9.96899L 6.5625 9.14099zM 4.5976 7.57001C 4.5976 7.93799 4.4922 8.164 4.1562 8.46899C 3.7031 8.879 3.1484 9.09 2.4883 9.09C 1.6133 9.09 1.1054 8.67999 1.1054 7.98099C 1.1054 7.254 1.6015 6.883 2.8008 6.711C 3.9844 6.55499 4.2265 6.5 4.6015 6.328L 4.5976 7.57001z"/>
<path style="stroke:none; fill-rule:evenodd; fill:#000000" d="M 8.1367 12.633C 9.4609 10.875 10.2969 8.42999 10.2969 6.32401C 10.2969 4.203 9.4609 1.76199 8.1367 0L 7.4101 0C 8.5586 1.922 9.1992 4.17599 9.1992 6.32401C 9.1992 8.457 8.5586 10.727 7.4101 12.633L 8.1367 12.633z"/>
<path style="stroke:none; fill-rule:evenodd; fill:#000000" d="M 0.097599 95.594L 0.097599 105.391L 1.0976 105.391L 1.0976 104.496C 1.6328 105.305 2.3476 105.691 3.3281 105.691C 5.1836 105.691 6.3945 104.188 6.3945 101.863C 6.3945 99.598 5.2383 98.195 3.3789 98.195C 2.4101 98.195 1.7226 98.551 1.1992 99.324L 1.1992 95.594L 0.097599 95.594zM 3.1875 99.223C 4.4297 99.223 5.2344 100.305 5.2344 101.981C 5.2344 103.574 4.4062 104.656 3.1875 104.656C 2.0117 104.656 1.2344 103.586 1.2344 101.938C 1.2344 100.293 2.0078 99.219 3.1875 99.219L 3.1875 99.223z"/>
<path style="stroke:none; fill-rule:evenodd; fill:#000000" d="M 8.1367 108.234C 9.4609 106.477 10.2969 104.031 10.2969 101.926C 10.2969 99.805 9.4609 97.363 8.1367 95.602L 7.4101 95.602C 8.5586 97.523 9.1992 99.777 9.1992 101.926C 9.1992 104.059 8.5586 106.328 7.4101 108.234L 8.1367 108.234z"/>
<path style="stroke:#000000; stroke-width:0.95664899999999997; fill:none" d="M 72.1211 157.086C 72.1211 157.086 72.1211 157.086 72.7578 156.133C 73.3945 155.18 74.668 153.266 74.668 150.715C 74.668 148.164 73.3945 144.977 72.7578 143.383C 72.1211 141.789 72.1211 141.789 72.1211 141.789"/>
<path style="stroke:none; fill-rule:evenodd; fill:#000000" d="M 78.6875 144.496C 77.8984 145.5 77.3984 146.898 77.3984 148.102C 77.3984 149.313 77.8945 150.707 78.6875 151.715L 79.1211 151.715C 78.4648 150.617 78.0976 149.328 78.0976 148.102C 78.0976 146.883 78.4609 145.586 79.1211 144.496L 78.6875 144.496z"/>
<path style="stroke:none; fill-rule:evenodd; fill:#000000" d="M 83.1012 147.434C 83.0742 147.059 82.9882 146.813 82.8322 146.598C 82.5542 146.223 82.0664 146 81.5039 146C 80.414 146 79.7031 146.855 79.7031 148.188C 79.7031 149.481 80.3984 150.297 81.4961 150.297C 82.4612 150.297 83.0702 149.715 83.1482 148.723L 82.5082 148.723C 82.4022 149.371 82.0742 149.699 81.5273 149.699C 80.8242 149.699 80.4023 149.133 80.4023 148.188C 80.4023 147.195 80.8125 146.602 81.5117 146.602C 82.0469 146.602 82.3832 146.902 82.4612 147.438L 83.1012 147.434z"/>
<path style="stroke:none; fill-rule:evenodd; fill:#000000" d="M 87.3902 149.719C 87.3202 149.793 87.2892 149.793 87.2502 149.793C 87.0232 149.793 86.8982 149.68 86.8982 149.477L 86.8982 147.098C 86.8982 146.383 86.3832 145.996 85.3982 145.996C 84.8202 145.996 84.3402 146.16 84.0742 146.453C 83.8942 146.652 83.8162 146.879 83.8012 147.27L 84.4222 147.27C 84.4722 146.805 84.7542 146.594 85.3322 146.594C 85.8872 146.594 86.1992 146.805 86.1992 147.188L 86.1992 147.355C 86.1992 147.621 86.0432 147.734 85.5512 147.797C 84.6682 147.91 84.5352 147.941 84.2932 148.039C 83.8402 148.227 83.6052 148.586 83.6052 149.105C 83.6052 149.828 84.1132 150.285 84.9262 150.285C 85.4332 150.285 85.8402 150.105 86.2932 149.676C 86.3362 150.098 86.5352 150.285 86.9532 150.285C 87.0822 150.285 87.1832 150.27 87.3902 150.215L 87.3902 149.719zM 86.1992 148.824C 86.1992 149.035 86.1402 149.164 85.9612 149.336C 85.7152 149.57 85.4142 149.691 85.0582 149.691C 84.5862 149.691 84.3082 149.457 84.3082 149.059C 84.3082 148.645 84.5782 148.434 85.2262 148.332C 85.8672 148.242 86.0002 148.215 86.2032 148.113L 86.1992 148.824z"/>
<path style="stroke:none; fill-rule:evenodd; fill:#000000" d="M 91.1992 150.117L 91.1992 146.098L 90.5002 146.098L 90.5002 148.352C 90.5002 149.16 90.1012 149.695 89.4762 149.695C 89.0042 149.695 88.7032 149.395 88.7032 148.914L 88.7032 146.098L 88.0042 146.098L 88.0042 149.199C 88.0042 149.867 88.4962 150.297 89.2692 150.297C 89.8512 150.297 90.2262 150.094 90.5972 149.563L 90.5972 150.121L 91.1992 150.117z"/>
<path style="stroke:none; fill-rule:evenodd; fill:#000000" d="M 95.1482 147.203C 95.1402 146.434 94.6132 146 93.6682 146C 92.7192 146 92.1012 146.481 92.1012 147.219C 92.1012 147.844 92.4222 148.141 93.3752 148.367L 93.9722 148.512C 94.4182 148.617 94.5942 148.777 94.5942 149.066C 94.5942 149.438 94.2262 149.691 93.6792 149.691C 93.3442 149.691 93.0582 149.594 92.8982 149.422C 92.8012 149.309 92.7582 149.191 92.7192 148.902L 92.0582 148.902C 92.0862 149.844 92.6052 150.293 93.6482 150.293C 94.6522 150.293 95.2932 149.801 95.2932 149.027C 95.2932 148.434 94.9572 148.105 94.1562 147.914L 93.5432 147.77C 93.0232 147.648 92.8012 147.481 92.8012 147.199C 92.8012 146.836 93.1332 146.598 93.6562 146.598C 94.1722 146.598 94.4492 146.805 94.4652 147.203L 95.1482 147.203z"/>
<path style="stroke:none; fill-rule:evenodd; fill:#000000" d="M 99.4962 148.293C 99.4962 147.691 99.4532 147.328 99.3402 147.035C 99.0822 146.391 98.4722 145.996 97.7262 145.996C 96.6172 145.996 95.9022 146.852 95.9022 148.168C 95.9022 149.481 96.5972 150.293 97.7262 150.293C 98.6442 150.293 99.2812 149.766 99.4412 148.879L 98.8042 148.879C 98.6332 149.414 98.2772 149.695 97.7692 149.695C 97.3712 149.695 97.0272 149.512 96.8162 149.168C 96.6682 148.938 96.6132 148.703 96.6052 148.301L 99.4962 148.293zM 96.5862 147.785C 96.6372 147.047 97.0902 146.563 97.7302 146.563C 98.3552 146.563 98.8402 147.082 98.8402 147.738C 98.8402 147.75 98.8402 147.766 98.8322 147.781L 96.5862 147.785z"/>
<path style="stroke:none; fill-rule:evenodd; fill:#000000" d="M 103.25 147.203C 103.242 146.434 102.715 146 101.769 146C 100.82 146 100.203 146.481 100.203 147.219C 100.203 147.844 100.523 148.141 101.476 148.367L 102.074 148.512C 102.519 148.617 102.695 148.777 102.695 149.066C 102.695 149.438 102.328 149.691 101.781 149.691C 101.445 149.691 101.16 149.594 101 149.422C 100.902 149.309 100.859 149.191 100.82 148.902L 100.16 148.902C 100.187 149.844 100.707 150.293 101.75 150.293C 102.754 150.293 103.394 149.801 103.394 149.027C 103.394 148.434 103.058 148.105 102.258 147.914L 101.644 147.77C 101.125 147.648 100.902 147.481 100.902 147.199C 100.902 146.836 101.234 146.598 101.758 146.598C 102.273 146.598 102.551 146.805 102.566 147.203L 103.25 147.203z"/>
<path style="stroke:none; fill-rule:evenodd; fill:#000000" d="M 109.496 150.117L 109.496 146.098L 108.797 146.098L 108.797 148.352C 108.797 149.16 108.398 149.695 107.773 149.695C 107.301 149.695 107 149.395 107 148.914L 107 146.098L 106.301 146.098L 106.301 149.199C 106.301 149.867 106.793 150.297 107.566 150.297C 108.148 150.297 108.523 150.094 108.894 149.563L 108.894 150.121L 109.496 150.117z"/>
<path style="stroke:none; fill-rule:evenodd; fill:#000000" d="M 110.496 151.762L 111.195 151.762L 111.195 149.695C 111.523 150.109 111.894 150.293 112.406 150.293C 113.422 150.293 114.09 149.461 114.09 148.184C 114.09 146.84 113.433 145.996 112.371 145.996C 111.828 145.996 111.394 146.238 111.094 146.711L 111.094 146.109L 110.496 146.109L 110.496 151.762zM 112.273 146.594C 112.949 146.594 113.394 147.211 113.394 148.164C 113.394 149.07 112.945 149.688 112.273 149.688C 111.625 149.688 111.199 149.078 111.199 148.141C 111.199 147.203 111.625 146.594 112.273 146.594z"/>
<path style="stroke:none; fill-rule:evenodd; fill:#000000" d="M 118.097 144.496L 117.398 144.496L 117.398 146.59C 117.137 146.203 116.715 145.996 116.191 145.996C 115.172 145.996 114.504 146.828 114.504 148.105C 114.504 149.457 115.164 150.293 116.234 150.293C 116.781 150.293 117.16 150.082 117.5 149.566L 117.5 150.094L 118.097 150.094L 118.097 144.496zM 116.316 146.594C 116.976 146.594 117.394 147.203 117.394 148.156C 117.394 149.078 116.969 149.688 116.32 149.688C 115.644 149.688 115.195 149.07 115.195 148.141C 115.195 147.211 115.64 146.594 116.312 146.594L 116.316 146.594z"/>
<path style="stroke:none; fill-rule:evenodd; fill:#000000" d="M 122.691 149.719C 122.621 149.793 122.59 149.793 122.551 149.793C 122.324 149.793 122.199 149.68 122.199 149.477L 122.199 147.098C 122.199 146.383 121.683 145.996 120.699 145.996C 120.121 145.996 119.64 146.16 119.375 146.453C 119.195 146.652 119.117 146.879 119.101 147.27L 119.722 147.27C 119.773 146.805 120.054 146.594 120.633 146.594C 121.187 146.594 121.5 146.805 121.5 147.188L 121.5 147.355C 121.5 147.621 121.344 147.734 120.851 147.797C 119.969 147.91 119.836 147.941 119.594 148.039C 119.14 148.227 118.906 148.586 118.906 149.105C 118.906 149.828 119.414 150.285 120.226 150.285C 120.734 150.285 121.14 150.105 121.594 149.676C 121.637 150.098 121.836 150.285 122.254 150.285C 122.383 150.285 122.484 150.27 122.691 150.215L 122.691 149.719zM 121.496 148.824C 121.496 149.035 121.437 149.164 121.258 149.336C 121.011 149.57 120.711 149.691 120.355 149.691C 119.883 149.691 119.605 149.457 119.605 149.059C 119.605 148.645 119.875 148.434 120.523 148.332C 121.164 148.242 121.297 148.215 121.5 148.113L 121.496 148.824z"/>
<path style="stroke:none; fill-rule:evenodd; fill:#000000" d="M 124.699 146.094L 124.101 146.094L 124.101 144.984L 123.402 144.984L 123.402 146.094L 122.902 146.094L 122.902 146.594L 123.402 146.594L 123.402 149.652C 123.402 150.059 123.676 150.293 124.176 150.293C 124.328 150.293 124.48 150.277 124.695 150.238L 124.695 149.684C 124.621 149.691 124.527 149.695 124.418 149.695C 124.168 149.695 124.097 149.621 124.097 149.34L 124.097 146.602L 124.695 146.602L 124.699 146.094z"/>
<path style="stroke:none; fill-rule:evenodd; fill:#000000" d="M 126.199 146.094L 125.5 146.094L 125.5 150.094L 126.199 150.094L 126.199 146.094zM 126.199 144.496L 125.5 144.496L 125.5 145.32L 126.199 145.32L 126.199 144.496z"/>
<path style="stroke:none; fill-rule:evenodd; fill:#000000" d="M 127.199 146.109L 127.199 150.094L 127.898 150.094L 127.898 147.926C 127.898 147.125 128.324 146.598 128.976 146.598C 129.476 146.598 129.797 146.898 129.797 147.371L 129.797 150.094L 130.496 150.094L 130.496 147.082C 130.496 146.422 129.98 145.996 129.179 145.996C 128.562 145.996 128.164 146.223 127.801 146.777L 127.801 146.109L 127.199 146.109z"/>
<path style="stroke:none; fill-rule:evenodd; fill:#000000" d="M 133.996 146.094L 133.996 146.664C 133.679 146.211 133.293 145.992 132.785 145.992C 131.781 145.992 131.097 146.879 131.097 148.18C 131.097 148.836 131.273 149.371 131.605 149.754C 131.906 150.09 132.336 150.289 132.761 150.289C 133.269 150.289 133.625 150.07 133.988 149.547L 133.988 149.762C 133.988 150.324 133.922 150.668 133.761 150.898C 133.594 151.145 133.265 151.285 132.875 151.285C 132.586 151.285 132.324 151.203 132.148 151.051C 132.004 150.926 131.945 150.809 131.906 150.547L 131.258 150.547C 131.324 151.32 131.906 151.785 132.836 151.785C 133.422 151.785 133.929 151.594 134.187 151.273C 134.488 150.906 134.601 150.398 134.601 149.457L 134.601 146.094L 133.996 146.094zM 132.906 146.594C 133.594 146.594 133.996 147.168 133.996 148.164C 133.996 149.113 133.586 149.688 132.914 149.688C 132.222 149.688 131.801 149.105 131.801 148.141C 131.801 147.188 132.226 146.594 132.906 146.594z"/>
<path style="stroke:none; fill-rule:evenodd; fill:#000000" d="M 135.918 151.719C 136.699 150.715 137.195 149.32 137.195 148.113C 137.195 146.902 136.703 145.508 135.918 144.5L 135.488 144.5C 136.133 145.598 136.496 146.887 136.496 148.113C 136.496 149.332 136.137 150.629 135.488 151.719L 135.918 151.719z"/>
<path style="stroke:none; fill-rule:evenodd; fill:#000000" d="M 86.3872 119.195C 85.5972 120.199 85.0972 121.598 85.0972 122.801C 85.0972 124.012 85.5942 125.406 86.3872 126.414L 86.8202 126.414C 86.1642 125.316 85.7972 124.027 85.7972 122.801C 85.7972 121.582 86.1602 120.285 86.8202 119.195L 86.3872 119.195z"/>
<path style="stroke:none; fill-rule:evenodd; fill:#000000" d="M 87.5972 120.809L 87.5972 124.793L 88.2972 124.793L 88.2972 122.324C 88.2972 121.754 88.6952 121.297 89.1912 121.297C 89.6402 121.297 89.8942 121.582 89.8942 122.082L 89.8942 124.793L 90.5942 124.793L 90.5942 122.324C 90.5942 121.754 91.0152 121.297 91.5432 121.297C 92.0112 121.297 92.2932 121.59 92.2932 122.082L 92.2932 124.793L 92.9922 124.793L 92.9922 121.805C 92.9922 121.09 92.5702 120.695 91.8082 120.695C 91.2652 120.695 90.9372 120.848 90.5542 121.281C 90.3162 120.871 89.9882 120.695 89.4572 120.695C 88.9142 120.695 88.5542 120.891 88.2032 121.371L 88.2032 120.809L 87.5972 120.809z"/>
<path style="stroke:none; fill-rule:evenodd; fill:#000000" d="M 97.5942 124.418C 97.5232 124.492 97.4922 124.492 97.4532 124.492C 97.2262 124.492 97.1012 124.379 97.1012 124.176L 97.1012 121.797C 97.1012 121.082 96.5862 120.695 95.6012 120.695C 95.0232 120.695 94.5432 120.859 94.2772 121.152C 94.0972 121.352 94.0192 121.578 94.0042 121.969L 94.6252 121.969C 94.6762 121.504 94.9572 121.293 95.5352 121.293C 96.0902 121.293 96.4022 121.504 96.4022 121.887L 96.4022 122.055C 96.4022 122.32 96.2462 122.434 95.7542 122.496C 94.8712 122.609 94.7382 122.641 94.4962 122.738C 94.0432 122.926 93.8082 123.285 93.8082 123.805C 93.8082 124.527 94.3162 124.984 95.1292 124.984C 95.6372 124.984 96.0432 124.805 96.4962 124.375C 96.5392 124.797 96.7382 124.984 97.1562 124.984C 97.2852 124.984 97.3872 124.969 97.5942 124.914L 97.5942 124.418zM 96.3982 123.523C 96.3982 123.734 96.3402 123.863 96.1602 124.035C 95.9142 124.27 95.6132 124.391 95.2582 124.391C 94.7852 124.391 94.5082 124.156 94.5082 123.758C 94.5082 123.344 94.7772 123.133 95.4262 123.031C 96.0662 122.941 96.1992 122.914 96.4022 122.813L 96.3982 123.523z"/>
<path style="stroke:none; fill-rule:evenodd; fill:#000000" d="M 98.8982 120.793L 98.1992 120.793L 98.1992 124.793L 98.8982 124.793L 98.8982 120.793zM 98.8982 119.195L 98.1992 119.195L 98.1992 120.02L 98.8982 120.02L 98.8982 119.195z"/>
<path style="stroke:none; fill-rule:evenodd; fill:#000000" d="M 99.8982 120.809L 99.8982 124.793L 100.597 124.793L 100.597 122.625C 100.597 121.824 101.023 121.297 101.676 121.297C 102.176 121.297 102.496 121.598 102.496 122.07L 102.496 124.793L 103.195 124.793L 103.195 121.781C 103.195 121.121 102.679 120.695 101.879 120.695C 101.261 120.695 100.863 120.922 100.5 121.477L 100.5 120.809L 99.8982 120.809z"/>
<path style="stroke:none; fill-rule:evenodd; fill:#000000" d="M 105.597 120.793L 105 120.793L 105 119.684L 104.301 119.684L 104.301 120.793L 103.801 120.793L 103.801 121.293L 104.301 121.293L 104.301 124.352C 104.301 124.758 104.574 124.992 105.074 124.992C 105.226 124.992 105.379 124.977 105.594 124.938L 105.594 124.383C 105.519 124.391 105.426 124.395 105.316 124.395C 105.066 124.395 104.996 124.32 104.996 124.039L 104.996 121.301L 105.594 121.301L 105.597 120.793z"/>
<path style="stroke:none; fill-rule:evenodd; fill:#000000" d="M 109.097 120.793L 108.398 120.793L 108.398 124.793L 109.097 124.793L 109.097 120.793zM 109.097 119.195L 108.398 119.195L 108.398 120.02L 109.097 120.02L 109.097 119.195z"/>
<path style="stroke:none; fill-rule:evenodd; fill:#000000" d="M 110.097 120.809L 110.097 124.793L 110.797 124.793L 110.797 122.625C 110.797 121.824 111.222 121.297 111.875 121.297C 112.375 121.297 112.695 121.598 112.695 122.07L 112.695 124.793L 113.394 124.793L 113.394 121.781C 113.394 121.121 112.879 120.695 112.078 120.695C 111.461 120.695 111.062 120.922 110.699 121.477L 110.699 120.809L 110.097 120.809z"/>
<path style="stroke:none; fill-rule:evenodd; fill:#000000" d="M 117.398 122.395L 119.14 122.395C 119.574 122.395 119.914 122.266 120.215 122C 120.547 121.695 120.691 121.34 120.691 120.828C 120.691 119.785 120.078 119.199 118.98 119.199L 116.695 119.199L 116.695 124.797L 117.394 124.797L 117.398 122.395zM 117.398 121.793L 117.398 119.793L 118.898 119.793C 119.586 119.793 119.996 120.168 119.996 120.793C 119.996 121.418 119.59 121.793 118.898 121.793L 117.398 121.793z"/>
<path style="stroke:none; fill-rule:evenodd; fill:#000000" d="M 122.496 122.195L 125.156 122.195L 125.156 121.598L 122.496 121.598L 122.496 119.801L 125.496 119.801L 125.496 119.203L 121.797 119.203L 121.797 124.801L 122.496 124.801L 122.496 122.195z"/>
<path style="stroke:none; fill-rule:evenodd; fill:#000000" d="M 130.863 120.945C 130.644 119.703 129.945 119.098 128.73 119.098C 127.988 119.098 127.387 119.336 126.976 119.797C 126.476 120.352 126.203 121.152 126.203 122.066C 126.203 122.992 126.48 123.785 127.008 124.336C 127.433 124.781 127.98 124.988 128.699 124.988C 130.051 124.988 130.808 124.246 130.976 122.754L 130.246 122.754C 130.187 123.148 130.109 123.414 129.996 123.645C 129.769 124.117 129.297 124.387 128.703 124.387C 127.601 124.387 126.902 123.481 126.902 122.055C 126.902 120.59 127.57 119.691 128.644 119.691C 129.09 119.691 129.511 119.832 129.738 120.059C 129.941 120.258 130.054 120.504 130.14 120.938L 130.863 120.945z"/>
<path style="stroke:none; fill-rule:evenodd; fill:#000000" d="M 132.019 126.418C 132.801 125.414 133.297 124.02 133.297 122.813C 133.297 121.602 132.804 120.207 132.019 119.199L 131.59 119.199C 132.234 120.297 132.597 121.586 132.597 122.813C 132.597 124.031 132.238 125.328 131.59 126.418L 132.019 126.418z"/>
<path style="stroke:#000000; stroke-width:0.95664899999999997; fill:none" d="M 78.8164 119.301C 78.8164 119.301 78.8164 119.301 79.4531 119.938C 80.0898 120.574 81.3633 121.848 81.9219 123.922C 82.4762 125.992 82.3162 128.863 81.8437 131.016C 81.3672 133.164 80.5703 134.602 80.1719 135.32C 79.7734 136.035 79.7734 136.035 79.7734 136.035"/>
<path style="stroke:none; fill-rule:evenodd; fill:#000000" d="M 17.4961 25.32C 17.1601 23.492 16.0976 22.598 14.2461 22.598C 13.1133 22.598 12.2031 22.953 11.5781 23.645C 10.8164 24.473 10.4023 25.668 10.4023 27.027C 10.4023 28.406 10.8281 29.594 11.625 30.41C 12.2695 31.078 13.1015 31.387 14.1992 31.387C 16.2539 31.387 17.4101 30.273 17.668 28.035L 16.5625 28.035C 16.4726 28.625 16.3594 29.027 16.1836 29.371C 15.8398 30.082 15.125 30.484 14.2304 30.484C 12.5625 30.484 11.5039 29.133 11.5039 27.012C 11.5039 24.832 12.5156 23.488 14.1406 23.488C 14.8164 23.488 15.4531 23.699 15.7969 24.023C 16.1054 24.316 16.2773 24.676 16.4062 25.309L 17.4961 25.32z"/>
<path style="stroke:none; fill-rule:evenodd; fill:#000000" d="M 24.9961 25.184C 24.9883 23.547 23.8672 22.598 21.9531 22.598C 20.1289 22.598 19 23.547 19 25.074C 19 26.102 19.5312 26.754 20.6211 27.043L 22.6758 27.598C 23.7187 27.875 24.1953 28.301 24.1953 28.961C 24.1953 29.41 23.957 29.875 23.6094 30.129C 23.2812 30.359 22.7617 30.484 22.0937 30.484C 21.1992 30.484 20.5898 30.258 20.1953 29.758C 19.8906 29.379 19.7539 28.961 19.8047 28.422L 18.8047 28.422C 18.8125 29.199 18.9609 29.711 19.289 30.176C 19.8554 30.965 20.8086 31.383 22.0664 31.383C 23.0508 31.383 23.8554 31.156 24.3906 30.738C 24.9453 30.293 25.2969 29.543 25.2969 28.816C 25.2969 27.781 24.664 27.023 23.539 26.711L 21.4648 26.148C 20.4687 25.875 20.1054 25.551 20.1054 24.906C 20.1054 24.055 20.8398 23.488 21.9453 23.488C 23.2539 23.488 23.9883 24.09 24 25.176L 24.9961 25.184z"/>
<path style="stroke:none; fill-rule:evenodd; fill:#000000" d="M 16.5976 119.32C 16.2617 117.492 15.1992 116.598 13.3476 116.598C 12.2148 116.598 11.3047 116.953 10.6797 117.645C 9.918 118.473 9.5039 119.668 9.5039 121.027C 9.5039 122.406 9.9297 123.594 10.7265 124.41C 11.3711 125.078 12.2031 125.387 13.3008 125.387C 15.3554 125.387 16.5117 124.273 16.7695 122.035L 15.664 122.035C 15.5742 122.625 15.4609 123.027 15.2851 123.371C 14.9414 124.082 14.2265 124.484 13.332 124.484C 11.664 124.484 10.6054 123.133 10.6054 121.012C 10.6054 118.832 11.6172 117.488 13.2422 117.488C 13.918 117.488 14.5547 117.699 14.8984 118.023C 15.207 118.316 15.3789 118.676 15.5078 119.309L 16.5976 119.32z"/>
<path style="stroke:none; fill-rule:evenodd; fill:#000000" d="M 24.0976 119.184C 24.0898 117.547 22.9687 116.598 21.0547 116.598C 19.2304 116.598 18.1015 117.547 18.1015 119.074C 18.1015 120.102 18.6328 120.754 19.7226 121.043L 21.7773 121.598C 22.8203 121.875 23.2969 122.301 23.2969 122.961C 23.2969 123.41 23.0586 123.875 22.7109 124.129C 22.3828 124.359 21.8633 124.484 21.1953 124.484C 20.3008 124.484 19.6914 124.258 19.2969 123.758C 18.9922 123.379 18.8554 122.961 18.9062 122.422L 17.9062 122.422C 17.914 123.199 18.0625 123.711 18.3906 124.176C 18.957 124.965 19.9101 125.383 21.168 125.383C 22.1523 125.383 22.957 125.156 23.4922 124.738C 24.0469 124.293 24.3984 123.543 24.3984 122.816C 24.3984 121.781 23.7656 121.023 22.6406 120.711L 20.5664 120.148C 19.5703 119.875 19.207 119.551 19.207 118.906C 19.207 118.055 19.9414 117.488 21.0469 117.488C 22.3554 117.488 23.0898 118.09 23.1015 119.176L 24.0976 119.184z"/>
<path style="stroke:none; fill-rule:evenodd; fill:#000000" d="M 9.8984 170.996L 13.707 170.996C 14.5039 170.996 15.0937 170.777 15.5469 170.297C 15.9609 169.859 16.1953 169.262 16.1953 168.605C 16.1953 167.594 15.7226 166.981 14.6211 166.57C 15.3867 166.215 15.793 165.594 15.793 164.742C 15.793 164.133 15.5664 163.594 15.125 163.199C 14.6875 162.797 14.1133 162.613 13.3047 162.613L 9.8945 162.613L 9.8984 170.996zM 10.9961 166.293L 10.9961 163.496L 13.039 163.496C 13.6289 163.496 13.957 163.578 14.2383 163.809C 14.5312 164.047 14.6914 164.41 14.6914 164.895C 14.6914 165.363 14.5351 165.738 14.2383 165.981C 13.957 166.207 13.6289 166.293 13.039 166.293L 10.9961 166.293zM 10.9961 170.094L 10.9961 167.195L 13.5937 167.195C 14.1054 167.195 14.4492 167.32 14.7031 167.598C 14.9531 167.863 15.0898 168.231 15.0898 168.648C 15.0898 169.051 14.9531 169.422 14.7031 169.688C 14.4531 169.961 14.1094 170.09 13.5937 170.09L 10.9961 170.094z"/>
<path style="stroke:none; fill-rule:evenodd; fill:#000000" d="M 24.7969 166.594L 21.1992 166.594L 21.1992 167.492L 23.7969 167.492L 23.7969 167.727C 23.7969 169.27 22.6992 170.387 21.1797 170.387C 20.3359 170.387 19.5703 170.074 19.0781 169.527C 18.5312 168.922 18.1992 167.91 18.1992 166.859C 18.1992 164.773 19.3633 163.395 21.125 163.395C 22.3906 163.395 23.3047 164.063 23.5351 165.16L 24.6211 165.16C 24.3242 163.469 23.0351 162.492 21.1172 162.492C 20.0976 162.492 19.2695 162.758 18.6133 163.297C 17.6523 164.102 17.0976 165.402 17.0976 166.91C 17.0976 169.488 18.668 171.285 20.9336 171.285C 22.0703 171.285 22.9765 170.859 23.793 169.949L 24.0703 171.063L 24.789 171.063L 24.7969 166.594z"/>
<path style="stroke:none; fill-rule:evenodd; fill:#000000" d="M 26.0976 168.695L 31.8945 168.695L 31.8945 167.898L 26.0976 167.898L 26.0976 168.695z"/>
<path style="stroke:none; fill-rule:evenodd; fill:#000000" d="M 40.4961 166.594L 36.8984 166.594L 36.8984 167.492L 39.4961 167.492L 39.4961 167.727C 39.4961 169.27 38.3984 170.387 36.8789 170.387C 36.0351 170.387 35.2695 170.074 34.7773 169.527C 34.2304 168.922 33.8984 167.91 33.8984 166.859C 33.8984 164.773 35.0625 163.395 36.8242 163.395C 38.0898 163.395 39.0039 164.063 39.2344 165.16L 40.3203 165.16C 40.0234 163.469 38.7344 162.492 36.8164 162.492C 35.7969 162.492 34.9687 162.758 34.3125 163.297C 33.3515 164.102 32.7969 165.402 32.7969 166.91C 32.7969 169.488 34.3672 171.285 36.6328 171.285C 37.7695 171.285 38.6758 170.859 39.4922 169.949L 39.7695 171.063L 40.4883 171.063L 40.4961 166.594z"/>
<path style="stroke:none; fill-rule:evenodd; fill:#000000" d="M 44.3359 164.793C 42.6328 164.793 41.6015 166.008 41.6015 168.043C 41.6015 170.078 42.6211 171.293 44.3515 171.293C 46.0547 171.293 47.1015 170.082 47.1015 168.094C 47.1015 166.004 46.0937 164.801 44.3437 164.801L 44.3359 164.793zM 44.3476 165.695C 45.4414 165.695 46.0976 166.582 46.0976 168.078C 46.0976 169.492 45.4219 170.391 44.3476 170.391C 43.2656 170.391 42.5976 169.504 42.5976 168.043C 42.5976 166.594 43.2617 165.695 44.3476 165.695z"/>
<path style="stroke:none; fill-rule:evenodd; fill:#000000" d="M 79.1875 203.395C 78.3984 204.398 77.8984 205.797 77.8984 207C 77.8984 208.211 78.3945 209.605 79.1875 210.613L 79.6211 210.613C 78.9648 209.516 78.5976 208.227 78.5976 207C 78.5976 205.781 78.9609 204.484 79.6211 203.395L 79.1875 203.395z"/>
<path style="stroke:none; fill-rule:evenodd; fill:#000000" d="M 80.3984 205.008L 80.3984 208.992L 81.0976 208.992L 81.0976 206.941C 81.0976 206.379 81.2383 206.008 81.5351 205.789C 81.7265 205.648 81.914 205.602 82.3472 205.594L 82.3472 204.918C 82.2422 204.902 82.1875 204.895 82.1015 204.895C 81.6836 204.895 81.3672 205.137 80.9961 205.731L 80.9961 205.008L 80.3984 205.008z"/>
<path style="stroke:none; fill-rule:evenodd; fill:#000000" d="M 86.3982 207.195C 86.3982 206.594 86.3552 206.231 86.2422 205.938C 85.9842 205.293 85.3752 204.898 84.6292 204.898C 83.5192 204.898 82.8042 205.754 82.8042 207.07C 82.8042 208.383 83.5002 209.195 84.6292 209.195C 85.5472 209.195 86.1832 208.668 86.3442 207.781L 85.7072 207.781C 85.5352 208.316 85.1792 208.598 84.6722 208.598C 84.2732 208.598 83.9292 208.414 83.7192 208.07C 83.5702 207.84 83.5152 207.605 83.5082 207.203L 86.3982 207.195zM 83.4842 206.684C 83.5352 205.945 83.9882 205.461 84.6292 205.461C 85.2542 205.461 85.7382 205.981 85.7382 206.637C 85.7382 206.648 85.7382 206.664 85.7302 206.68L 83.4842 206.684z"/>
<path style="stroke:none; fill-rule:evenodd; fill:#000000" d="M 87.8982 204.996L 87.1992 204.996L 87.1992 208.996L 87.8982 208.996L 87.8982 204.996zM 87.8982 203.395L 87.1992 203.395L 87.1992 204.219L 87.8982 204.219L 87.8982 203.395z"/>
<path style="stroke:none; fill-rule:evenodd; fill:#000000" d="M 88.8982 205.008L 88.8982 208.992L 89.5972 208.992L 89.5972 206.824C 89.5972 206.023 90.0232 205.496 90.6762 205.496C 91.1762 205.496 91.4962 205.797 91.4962 206.27L 91.4962 208.992L 92.1952 208.992L 92.1952 205.981C 92.1952 205.32 91.6792 204.895 90.8792 204.895C 90.2612 204.895 89.8632 205.121 89.5002 205.676L 89.5002 205.008L 88.8982 205.008z"/>
<path style="stroke:none; fill-rule:evenodd; fill:#000000" d="M 94.6992 204.996L 94.0002 204.996L 94.0002 204.391C 94.0002 204.133 94.1602 204 94.4652 204C 94.5192 204 94.5432 204 94.6952 204L 94.6952 203.441C 94.5392 203.41 94.4492 203.402 94.3082 203.402C 93.6762 203.402 93.2972 203.738 93.2972 204.316L 93.2972 205L 92.8982 205L 92.8982 205.5L 93.2972 205.5L 93.2972 209L 93.9962 209L 93.9962 205.5L 94.6952 205.5L 94.6992 204.996z"/>
<path style="stroke:none; fill-rule:evenodd; fill:#000000" d="M 96.8902 204.895C 95.7772 204.895 95.1012 205.695 95.1012 207.043C 95.1012 208.387 95.7692 209.191 96.8982 209.191C 98.0112 209.191 98.6952 208.391 98.6952 207.074C 98.6952 205.691 98.0352 204.895 96.8902 204.895zM 96.8982 205.496C 97.5862 205.496 97.9962 206.082 97.9962 207.066C 97.9962 208 97.5742 208.59 96.8982 208.59C 96.2192 208.59 95.8012 208.008 95.8012 207.043C 95.8012 206.09 96.2192 205.496 96.8982 205.496z"/>
<path style="stroke:none; fill-rule:evenodd; fill:#000000" d="M 99.5972 205.008L 99.5972 208.992L 100.297 208.992L 100.297 206.941C 100.297 206.379 100.437 206.008 100.734 205.789C 100.926 205.648 101.113 205.602 101.547 205.594L 101.547 204.918C 101.441 204.902 101.387 204.895 101.301 204.895C 100.883 204.895 100.566 205.137 100.195 205.731L 100.195 205.008L 99.5972 205.008z"/>
<path style="stroke:none; fill-rule:evenodd; fill:#000000" d="M 105.203 206.332C 105.176 205.957 105.09 205.711 104.933 205.496C 104.656 205.121 104.168 204.898 103.605 204.898C 102.515 204.898 101.804 205.754 101.804 207.086C 101.804 208.379 102.5 209.195 103.597 209.195C 104.562 209.195 105.172 208.613 105.25 207.621L 104.609 207.621C 104.504 208.27 104.176 208.598 103.629 208.598C 102.926 208.598 102.504 208.031 102.504 207.086C 102.504 206.094 102.914 205.5 103.613 205.5C 104.148 205.5 104.484 205.801 104.562 206.336L 105.203 206.332z"/>
<path style="stroke:none; fill-rule:evenodd; fill:#000000" d="M 109.297 207.195C 109.297 206.594 109.254 206.231 109.14 205.938C 108.883 205.293 108.273 204.898 107.527 204.898C 106.418 204.898 105.703 205.754 105.703 207.07C 105.703 208.383 106.398 209.195 107.527 209.195C 108.445 209.195 109.082 208.668 109.242 207.781L 108.605 207.781C 108.433 208.316 108.078 208.598 107.57 208.598C 107.172 208.598 106.828 208.414 106.617 208.07C 106.469 207.84 106.414 207.605 106.406 207.203L 109.297 207.195zM 106.383 206.684C 106.433 205.945 106.887 205.461 107.527 205.461C 108.152 205.461 108.637 205.981 108.637 206.637C 108.637 206.648 108.637 206.664 108.629 206.68L 106.383 206.684z"/>
<path style="stroke:none; fill-rule:evenodd; fill:#000000" d="M 113.051 206.102C 113.043 205.332 112.515 204.898 111.57 204.898C 110.621 204.898 110.004 205.379 110.004 206.117C 110.004 206.742 110.324 207.039 111.277 207.266L 111.875 207.41C 112.32 207.516 112.496 207.676 112.496 207.965C 112.496 208.336 112.129 208.59 111.582 208.59C 111.246 208.59 110.961 208.492 110.801 208.32C 110.703 208.207 110.66 208.09 110.621 207.801L 109.961 207.801C 109.988 208.742 110.508 209.191 111.551 209.191C 112.554 209.191 113.195 208.699 113.195 207.926C 113.195 207.332 112.859 207.004 112.058 206.813L 111.445 206.668C 110.926 206.547 110.703 206.379 110.703 206.098C 110.703 205.734 111.035 205.496 111.558 205.496C 112.074 205.496 112.351 205.703 112.367 206.102L 113.051 206.102z"/>
<path style="stroke:none; fill-rule:evenodd; fill:#000000" d="M 121.199 206.094L 118.801 206.094L 118.801 206.691L 120.5 206.691L 120.5 206.844C 120.5 207.855 119.758 208.586 118.726 208.586C 118.156 208.586 117.637 208.375 117.301 208.008C 116.929 207.602 116.707 206.922 116.707 206.215C 116.707 204.816 117.492 203.891 118.687 203.891C 119.543 203.891 120.164 204.344 120.32 205.102L 121.054 205.102C 120.855 203.953 119.992 203.293 118.703 203.293C 118.019 203.293 117.465 203.469 117.023 203.832C 116.379 204.371 116.008 205.242 116.008 206.254C 116.008 207.981 117.062 209.188 118.582 209.188C 119.344 209.188 119.953 208.91 120.504 208.309L 120.699 209.043L 121.203 209.043L 121.199 206.094z"/>
<path style="stroke:none; fill-rule:evenodd; fill:#000000" d="M 123.687 204.895C 122.574 204.895 121.898 205.695 121.898 207.043C 121.898 208.387 122.566 209.191 123.695 209.191C 124.808 209.191 125.492 208.391 125.492 207.074C 125.492 205.691 124.832 204.895 123.687 204.895zM 123.699 205.496C 124.387 205.496 124.797 206.082 124.797 207.066C 124.797 208 124.375 208.59 123.699 208.59C 123.019 208.59 122.601 208.008 122.601 207.043C 122.601 206.09 123.019 205.496 123.699 205.496z"/>
<path style="stroke:none; fill-rule:evenodd; fill:#000000" d="M 126.621 210.617C 127.402 209.613 127.898 208.219 127.898 207.012C 127.898 205.801 127.406 204.406 126.621 203.398L 126.191 203.398C 126.836 204.496 127.199 205.785 127.199 207.012C 127.199 208.231 126.84 209.527 126.191 210.617L 126.621 210.617z"/>
<path style="stroke:#ff0000; stroke-width:0.95664899999999997; fill:none" d="M 71.5156 76.641L 71.5156 88.117"/>
<path style="stroke:#ff0000; stroke-width:0.95664899999999997; fill:none" d="M 71.5156 76.641L 69.6054 81.422"/>
<path style="stroke:#ff0000; stroke-width:0.95664899999999997; fill:none" d="M 71.5156 76.641L 73.4258 81.422"/>
<path style="stroke:#ff0000; stroke-width:0.95664899999999997; fill:none" d="M 162.887 77.066L 162.887 65.59"/>
<path style="stroke:#ff0000; stroke-width:0.95664899999999997; fill:none" d="M 162.887 77.066L 164.797 72.285"/>
<path style="stroke:#ff0000; stroke-width:0.95664899999999997; fill:none" d="M 162.887 77.066L 160.976 72.285"/>
<path style="stroke:#ff0000; stroke-width:0.95664899999999997; fill:none" d="M 70.8672 163.723L 70.8672 175.199"/>
<path style="stroke:#ff0000; stroke-width:0.95664899999999997; fill:none" d="M 70.8672 163.723L 68.957 168.504"/>
<path style="stroke:#ff0000; stroke-width:0.95664899999999997; fill:none" d="M 70.8672 163.723L 72.7773 168.504"/>
<path style="stroke:#ff0000; stroke-width:0.95664899999999997; fill:none" d="M 162.234 215.914L 162.234 204.438"/>
<path style="stroke:#ff0000; stroke-width:0.95664899999999997; fill:none" d="M 162.234 215.914L 164.144 211.133"/>
<path style="stroke:#ff0000; stroke-width:0.95664899999999997; fill:none" d="M 162.234 215.914L 160.324 211.133"/>
<path style="stroke:#ff0000; stroke-width:0.95664899999999997; fill:none" d="M 70.2187 215.645L 70.2187 227.121"/>
<path style="stroke:#ff0000; stroke-width:0.95664899999999997; fill:none" d="M 70.2187 215.645L 68.3086 220.426"/>
<path style="stroke:#ff0000; stroke-width:0.95664899999999997; fill:none" d="M 70.2187 215.645L 72.1289 220.426"/>
<path style="stroke:#000000; stroke-width:0.95664899999999997; fill:none" d="M 71.8047 156.527L 70.5859 150.914"/>
<path style="stroke:#000000; stroke-width:0.95664899999999997; fill:none" d="M 73.0273 156.527L 77.4219 155.063"/>
<path style="stroke:#000000; stroke-width:0.95664899999999997; fill:none" d="M 77.1758 131.137L 79.8594 135.773"/>
<path style="stroke:#000000; stroke-width:0.95664899999999997; fill:none" d="M 79.8633 135.773L 85.7222 133.09"/>
<path style="stroke:#000000; stroke-width:0.95664899999999997; fill:none" d="M 73.5156 178.262L 71.8086 182.656"/>
<path style="stroke:#000000; stroke-width:0.95664899999999997; fill:none" d="M 73.5156 178.016L 78.1523 180.945"/>
<path style="stroke:none; fill-rule:evenodd; fill:#000000" d="M 16.1992 45.695L 16.1992 51.656C 16.1992 52.797 15.4023 53.492 14.0898 53.492C 13.4844 53.492 12.9922 53.344 12.5976 53.051C 12.1953 52.727 12.0039 52.297 12.0039 51.656L 12.0039 45.695L 10.9062 45.695L 10.9062 51.617C 10.9062 53.328 12.1172 54.391 14.0937 54.391C 16.0469 54.391 17.3047 53.305 17.3047 51.617L 17.3047 45.695L 16.1992 45.695z"/>
<path style="stroke:none; fill-rule:evenodd; fill:#000000" d="M 24.9961 48.184C 24.9883 46.547 23.8672 45.598 21.9531 45.598C 20.1289 45.598 19 46.547 19 48.074C 19 49.102 19.5312 49.754 20.6211 50.043L 22.6758 50.598C 23.7187 50.875 24.1953 51.301 24.1953 51.961C 24.1953 52.41 23.957 52.875 23.6094 53.129C 23.2812 53.359 22.7617 53.484 22.0937 53.484C 21.1992 53.484 20.5898 53.258 20.1953 52.758C 19.8906 52.379 19.7539 51.961 19.8047 51.422L 18.8047 51.422C 18.8125 52.199 18.9609 52.711 19.289 53.176C 19.8554 53.965 20.8086 54.383 22.0664 54.383C 23.0508 54.383 23.8554 54.156 24.3906 53.738C 24.9453 53.293 25.2969 52.543 25.2969 51.816C 25.2969 50.781 24.664 50.023 23.539 49.711L 21.4648 49.148C 20.4687 48.875 20.1054 48.551 20.1054 47.906C 20.1054 47.055 20.8398 46.488 21.9453 46.488C 23.2539 46.488 23.9883 47.09 24 48.176L 24.9961 48.184z"/>
<path style="stroke:none; fill-rule:evenodd; fill:#000000" d="M 28.5273 45.695L 25.8086 54.324L 26.4375 54.324L 29.1562 45.695L 28.5273 45.695z"/>
<path style="stroke:none; fill-rule:evenodd; fill:#000000" d="M 29.8984 48.066L 29.8984 54.09L 30.8984 54.09L 30.8984 50.957C 30.8984 50.094 31.1094 49.531 31.5586 49.195C 31.8476 48.977 32.1289 48.91 32.7812 48.898L 32.7812 47.934C 32.625 47.914 32.5469 47.902 32.4219 47.902C 31.8125 47.902 31.3476 48.27 30.8008 49.164L 30.8008 48.074L 29.8984 48.066z"/>
<path style="stroke:none; fill-rule:evenodd; fill:#000000" d="M 15.2969 185.594L 15.2969 191.555C 15.2969 192.695 14.5 193.391 13.1875 193.391C 12.582 193.391 12.0898 193.242 11.6953 192.949C 11.293 192.625 11.1015 192.195 11.1015 191.555L 11.1015 185.594L 10.0039 185.594L 10.0039 191.516C 10.0039 193.227 11.2148 194.289 13.1914 194.289C 15.1445 194.289 16.4023 193.203 16.4023 191.516L 16.4023 185.594L 15.2969 185.594z"/>
<path style="stroke:none; fill-rule:evenodd; fill:#000000" d="M 24.0976 188.082C 24.0898 186.445 22.9687 185.496 21.0547 185.496C 19.2304 185.496 18.1015 186.445 18.1015 187.973C 18.1015 189 18.6328 189.652 19.7226 189.941L 21.7773 190.496C 22.8203 190.773 23.2969 191.199 23.2969 191.859C 23.2969 192.309 23.0586 192.773 22.7109 193.027C 22.3828 193.258 21.8633 193.383 21.1953 193.383C 20.3008 193.383 19.6914 193.156 19.2969 192.656C 18.9922 192.277 18.8554 191.859 18.9062 191.32L 17.9062 191.32C 17.914 192.098 18.0625 192.609 18.3906 193.074C 18.957 193.863 19.9101 194.281 21.168 194.281C 22.1523 194.281 22.957 194.055 23.4922 193.637C 24.0469 193.191 24.3984 192.441 24.3984 191.715C 24.3984 190.68 23.7656 189.922 22.6406 189.609L 20.5664 189.047C 19.5703 188.773 19.207 188.449 19.207 187.805C 19.207 186.953 19.9414 186.387 21.0469 186.387C 22.3554 186.387 23.0898 186.988 23.1015 188.074L 24.0976 188.082z"/>
<path style="stroke:none; fill-rule:evenodd; fill:#000000" d="M 27.5273 185.594L 24.8086 194.223L 25.4375 194.223L 28.1562 185.594L 27.5273 185.594z"/>
<path style="stroke:none; fill-rule:evenodd; fill:#000000" d="M 28.8984 187.969L 28.8984 193.992L 29.8984 193.992L 29.8984 190.859C 29.8984 189.996 30.1094 189.434 30.5586 189.098C 30.8476 188.879 31.1289 188.813 31.7812 188.801L 31.7812 187.836C 31.625 187.816 31.5469 187.805 31.4219 187.805C 30.8125 187.805 30.3476 188.172 29.8008 189.066L 29.8008 187.977L 28.8984 187.969z"/>
</g>
</svg>