<?xml version="1.0" encoding="ISO-8859-1" standalone="yes"?>
<svg width="491.016" height="218.347">
  <defs> 
    <marker id="ArrowEnd" viewBox="0 0 10 10" refX="0" refY="5" 
     markerUnits="strokeWidth" 
     markerWidth="4" 
     markerHeight="3" 
     orient="auto"> 
        <path d="M 0 0 L 10 5 L 0 10 z" /> 
    </marker>
    <marker id="ArrowStart" viewBox="0 0 10 10" refX="10" refY="5" 
     markerUnits="strokeWidth" 
     markerWidth="4" 
     markerHeight="3" 
     orient="auto"> 
        <path d="M 10 0 L 0 5 L 10 10 z" /> 
    </marker> </defs>
<g>
<path style="stroke:none; fill-rule:evenodd; fill:#000000" d="M 8.5 59.6053C 8.3554 59.6483 8.2929 59.6483 8.2148 59.6483C 7.75 59.6483 7.4922 59.3903 7.4922 58.9413L 7.4922 53.6213C 7.4922 52.0153 6.3086 51.1523 4.0664 51.1523C 2.7461 51.1523 1.6484 51.5313 1.0429 52.2073C 0.628901 52.6713 0.4531 53.1913 0.4179 54.0933L 1.8633 54.0933C 1.9804 52.9603 2.6367 52.4493 3.9804 52.4493C 5.2695 52.4493 5.9961 52.9333 5.9961 53.8003L 5.9961 54.1793C 5.9961 54.7853 5.6328 55.0433 4.4922 55.1833C 2.4531 55.4413 2.1445 55.5113 1.5898 55.7343C 0.5351 56.1643 0 56.9763 0 58.1563C 0 59.8003 1.1367 60.8393 2.9687 60.8393C 4.1054 60.8393 5.0234 60.4453 6.039 59.5113C 6.1406 60.4253 6.5898 60.8393 7.5234 60.8393C 7.8164 60.8393 8.039 60.8083 8.5078 60.6873L 8.5 59.6053zM 5.9883 57.5933C 5.9883 58.0703 5.8515 58.3593 5.4179 58.7503C 4.832 59.2773 4.1211 59.5463 3.2734 59.5463C 2.1484 59.5463 1.4922 59.0193 1.4922 58.1173C 1.4922 57.1833 2.1289 56.7073 3.6718 56.4843C 5.1914 56.2813 5.5039 56.2143 5.9883 55.9923L 5.9883 57.5933z"/>
<path style="stroke:none; fill-rule:evenodd; fill:#000000" d="M 10.4883 64.1013C 12.2031 61.8393 13.2851 58.6993 13.2851 55.9883C 13.2851 53.2613 12.2031 50.1213 10.4883 47.8553L 9.5468 47.8553C 11.0508 50.3243 11.8906 53.2263 11.8906 55.9883C 11.8906 58.7303 11.0547 61.6483 9.5468 64.1013L 10.4883 64.1013z"/>
<path style="stroke:none; fill-rule:evenodd; fill:#000000" d="M 241.391 48.8513L 241.391 61.4493L 242.688 61.4493L 242.688 60.2963C 243.375 61.3473 244.289 61.8473 245.551 61.8473C 247.93 61.8473 249.485 59.8983 249.485 56.8983C 249.485 53.9643 248.016 52.1523 245.657 52.1523C 244.43 52.1523 243.555 52.6213 242.891 53.6483L 242.891 48.8513L 241.391 48.8513zM 245.364 53.5113C 246.965 53.5113 247.996 54.9063 247.996 57.0583C 247.996 59.1053 246.93 60.5003 245.364 60.5003C 243.852 60.5003 242.852 59.1253 242.852 57.0073C 242.852 54.8903 243.848 53.5153 245.364 53.5153L 245.364 53.5113z"/>
<path style="stroke:none; fill-rule:evenodd; fill:#000000" d="M 251.688 65.1013C 253.403 62.8393 254.485 59.6993 254.485 56.9883C 254.485 54.2613 253.403 51.1213 251.688 48.8553L 250.746 48.8553C 252.25 51.3243 253.09 54.2263 253.09 56.9883C 253.09 59.7303 252.254 62.6483 250.746 65.1013L 251.688 65.1013z"/>
<path style="stroke:#000000; stroke-width:1.9133; fill:none" d="M 334.293 207.507L 334.293 206.312"/>
<path style="stroke:#000000; stroke-width:1.9133; fill:none" d="M 432.223 207.507L 432.223 206.312"/>
<path style="stroke:#000000; stroke-width:1.9133; fill:none" d="M 334.293 65.6093L 334.293 66.8043"/>
<path style="stroke:#000000; stroke-width:1.9133; fill:none" d="M 432.223 65.6093L 432.223 66.8043"/>
<path style="stroke:#000000; stroke-width:1.9133; fill:none" d="M 334.293 207.507L 334.293 205.113"/>
<path style="stroke:#000000; stroke-width:1.9133; fill:none" d="M 432.223 207.507L 432.223 205.113"/>
<path style="stroke:#000000; stroke-width:1.9133; fill:none" d="M 334.293 65.6093L 334.293 68.0033"/>
<path style="stroke:#000000; stroke-width:1.9133; fill:none" d="M 432.223 65.6093L 432.223 68.0033"/>
<path style="stroke:none; fill-rule:evenodd; fill:#000000" d="M 320.59 218.148L 322.188 218.148L 322.188 210.25L 320.59 210.25L 320.59 218.148z"/>
<path style="stroke:none; fill-rule:evenodd; fill:#000000" d="M 323.59 212.351L 323.59 218.148L 325.09 218.148L 325.09 214.683C 325.09 214 325.575 213.55 326.313 213.55C 326.961 213.55 327.286 213.902 327.286 214.586L 327.286 218.144L 328.786 218.144L 328.786 214.257C 328.786 212.98 328.075 212.25 326.836 212.25C 326.051 212.25 325.524 212.531 325.09 213.16L 325.09 212.347L 323.59 212.351z"/>
<path style="stroke:none; fill-rule:evenodd; fill:#000000" d="M 332.739 212.449L 331.891 212.449L 331.891 210.878L 330.391 210.878L 330.391 212.449L 329.645 212.449L 329.645 213.449L 330.391 213.449L 330.391 216.992C 330.391 217.898 330.871 218.343 331.864 218.343C 332.196 218.343 332.465 218.316 332.735 218.23L 332.735 217.218C 332.586 217.234 332.496 217.246 332.387 217.246C 331.985 217.246 331.887 217.128 331.887 216.613L 331.887 213.449L 332.735 213.449L 332.739 212.449z"/>
<path style="stroke:none; fill-rule:evenodd; fill:#000000" d="M 338.743 217.925C 338.465 217.683 338.391 217.523 338.391 217.222L 338.391 214.027C 338.391 212.855 337.586 212.257 336.012 212.257C 334.442 212.257 333.621 212.918 333.528 214.25L 334.969 214.25C 335.043 213.652 335.289 213.457 336.028 213.457C 336.602 213.457 336.891 213.648 336.891 214.031C 336.891 214.222 336.797 214.39 336.637 214.476C 336.438 214.582 336.438 214.582 335.7 214.699L 335.102 214.804C 333.957 214.996 333.403 215.582 333.403 216.617C 333.403 217.105 333.539 217.511 333.805 217.8C 334.133 218.14 334.633 218.343 335.149 218.343C 335.786 218.343 336.375 218.07 336.899 217.523C 336.899 217.82 336.93 217.925 337.075 218.097L 338.75 218.097L 338.743 217.925zM 336.891 215.8C 336.891 216.66 336.465 217.148 335.707 217.148C 335.207 217.148 334.895 216.882 334.895 216.46C 334.895 216.015 335.129 215.804 335.746 215.675L 336.258 215.582C 336.653 215.511 336.715 215.488 336.887 215.402L 336.891 215.8z"/>
<path style="stroke:none; fill-rule:evenodd; fill:#000000" d="M 344.723 214.503C 344.618 213.097 343.672 212.253 342.227 212.253C 340.5 212.253 339.493 213.382 339.493 215.343C 339.493 217.238 340.489 218.347 342.203 218.347C 343.606 218.347 344.582 217.496 344.723 216.132L 343.286 216.132C 343.094 216.867 342.793 217.148 342.215 217.148C 341.453 217.148 340.993 216.464 340.993 215.343C 340.993 214.8 341.098 214.285 341.282 213.945C 341.45 213.625 341.786 213.453 342.211 213.453C 342.821 213.453 343.11 213.742 343.282 214.503L 344.723 214.503z"/>
<path style="stroke:none; fill-rule:evenodd; fill:#000000" d="M 348.336 212.449L 347.489 212.449L 347.489 210.878L 345.989 210.878L 345.989 212.449L 345.243 212.449L 345.243 213.449L 345.989 213.449L 345.989 216.992C 345.989 217.898 346.469 218.343 347.461 218.343C 347.793 218.343 348.063 218.316 348.332 218.23L 348.332 217.218C 348.184 217.234 348.094 217.246 347.985 217.246C 347.582 217.246 347.485 217.128 347.485 216.613L 347.485 213.449L 348.332 213.449L 348.336 212.449z"/>
<path style="stroke:none; fill-rule:evenodd; fill:#000000" d="M 430.489 214.55L 430.489 218.148L 432.086 218.148L 432.086 210.25L 430.489 210.25L 430.489 213.25L 427.289 213.25L 427.289 210.25L 425.692 210.25L 425.692 218.148L 427.289 218.148L 427.289 214.55L 430.489 214.55z"/>
<path style="stroke:none; fill-rule:evenodd; fill:#000000" d="M 435.289 210.25L 433.692 210.25L 433.692 218.148L 439.039 218.148L 439.039 216.851L 435.293 216.851L 435.289 210.25z"/>
<path style="stroke:#000000; stroke-width:1.9133; fill:none" d="M 285.528 207.507L 286.723 207.507"/>
<path style="stroke:#000000; stroke-width:1.9133; fill:none" d="M 285.528 200.312L 286.723 200.312"/>
<path style="stroke:#000000; stroke-width:1.9133; fill:none" d="M 285.528 193.918L 286.723 193.918"/>
<path style="stroke:#000000; stroke-width:1.9133; fill:none" d="M 285.528 187.125L 286.723 187.125"/>
<path style="stroke:#000000; stroke-width:1.9133; fill:none" d="M 285.528 180.328L 286.723 180.328"/>
<path style="stroke:#000000; stroke-width:1.9133; fill:none" d="M 285.528 173.531L 286.723 173.531"/>
<path style="stroke:#000000; stroke-width:1.9133; fill:none" d="M 285.528 166.738L 286.723 166.738"/>
<path style="stroke:#000000; stroke-width:1.9133; fill:none" d="M 285.528 159.941L 286.723 159.941"/>
<path style="stroke:#000000; stroke-width:1.9133; fill:none" d="M 285.528 153.148L 286.723 153.148"/>
<path style="stroke:#000000; stroke-width:1.9133; fill:none" d="M 285.528 146.351L 286.723 146.351"/>
<path style="stroke:#000000; stroke-width:1.9133; fill:none" d="M 285.528 139.957L 286.723 139.957"/>
<path style="stroke:#000000; stroke-width:1.9133; fill:none" d="M 285.528 133.16L 286.723 133.16"/>
<path style="stroke:#000000; stroke-width:1.9133; fill:none" d="M 285.528 126.367L 286.723 126.367"/>
<path style="stroke:#000000; stroke-width:1.9133; fill:none" d="M 285.528 119.57L 286.723 119.57"/>
<path style="stroke:#000000; stroke-width:1.9133; fill:none" d="M 285.528 112.777L 286.723 112.777"/>
<path style="stroke:#000000; stroke-width:1.9133; fill:none" d="M 285.528 105.98L 286.723 105.98"/>
<path style="stroke:#000000; stroke-width:1.9133; fill:none" d="M 285.528 99.1873L 286.723 99.1873"/>
<path style="stroke:#000000; stroke-width:1.9133; fill:none" d="M 285.528 92.3903L 286.723 92.3903"/>
<path style="stroke:#000000; stroke-width:1.9133; fill:none" d="M 285.528 85.9963L 286.723 85.9963"/>
<path style="stroke:#000000; stroke-width:1.9133; fill:none" d="M 285.528 79.1993L 286.723 79.1993"/>
<path style="stroke:#000000; stroke-width:1.9133; fill:none" d="M 285.528 72.4063L 286.723 72.4063"/>
<path style="stroke:#000000; stroke-width:1.9133; fill:none" d="M 285.528 65.6093L 286.723 65.6093"/>
<path style="stroke:#000000; stroke-width:1.9133; fill:none" d="M 480.989 207.507L 479.793 207.507"/>
<path style="stroke:#000000; stroke-width:1.9133; fill:none" d="M 480.989 200.312L 479.793 200.312"/>
<path style="stroke:#000000; stroke-width:1.9133; fill:none" d="M 480.989 193.918L 479.793 193.918"/>
<path style="stroke:#000000; stroke-width:1.9133; fill:none" d="M 480.989 187.125L 479.793 187.125"/>
<path style="stroke:#000000; stroke-width:1.9133; fill:none" d="M 480.989 180.328L 479.793 180.328"/>
<path style="stroke:#000000; stroke-width:1.9133; fill:none" d="M 480.989 173.531L 479.793 173.531"/>
<path style="stroke:#000000; stroke-width:1.9133; fill:none" d="M 480.989 166.738L 479.793 166.738"/>
<path style="stroke:#000000; stroke-width:1.9133; fill:none" d="M 480.989 159.941L 479.793 159.941"/>
<path style="stroke:#000000; stroke-width:1.9133; fill:none" d="M 480.989 153.148L 479.793 153.148"/>
<path style="stroke:#000000; stroke-width:1.9133; fill:none" d="M 480.989 146.351L 479.793 146.351"/>
<path style="stroke:#000000; stroke-width:1.9133; fill:none" d="M 480.989 139.957L 479.793 139.957"/>
<path style="stroke:#000000; stroke-width:1.9133; fill:none" d="M 480.989 133.16L 479.793 133.16"/>
<path style="stroke:#000000; stroke-width:1.9133; fill:none" d="M 480.989 126.367L 479.793 126.367"/>
<path style="stroke:#000000; stroke-width:1.9133; fill:none" d="M 480.989 119.57L 479.793 119.57"/>
<path style="stroke:#000000; stroke-width:1.9133; fill:none" d="M 480.989 112.777L 479.793 112.777"/>
<path style="stroke:#000000; stroke-width:1.9133; fill:none" d="M 480.989 105.98L 479.793 105.98"/>
<path style="stroke:#000000; stroke-width:1.9133; fill:none" d="M 480.989 99.1873L 479.793 99.1873"/>
<path style="stroke:#000000; stroke-width:1.9133; fill:none" d="M 480.989 92.3903L 479.793 92.3903"/>
<path style="stroke:#000000; stroke-width:1.9133; fill:none" d="M 480.989 85.9963L 479.793 85.9963"/>
<path style="stroke:#000000; stroke-width:1.9133; fill:none" d="M 480.989 79.1993L 479.793 79.1993"/>
<path style="stroke:#000000; stroke-width:1.9133; fill:none" d="M 480.989 72.4063L 479.793 72.4063"/>
<path style="stroke:#000000; stroke-width:1.9133; fill:none" d="M 480.989 65.6093L 479.793 65.6093"/>
<path style="stroke:#000000; stroke-width:1.9133; fill:none" d="M 285.528 207.507L 287.922 207.507"/>
<path style="stroke:#000000; stroke-width:1.9133; fill:none" d="M 285.528 180.328L 287.922 180.328"/>
<path style="stroke:#000000; stroke-width:1.9133; fill:none" d="M 285.528 153.148L 287.922 153.148"/>
<path style="stroke:#000000; stroke-width:1.9133; fill:none" d="M 285.528 126.367L 287.922 126.367"/>
<path style="stroke:#000000; stroke-width:1.9133; fill:none" d="M 285.528 99.1873L 287.922 99.1873"/>
<path style="stroke:#000000; stroke-width:1.9133; fill:none" d="M 285.528 72.4063L 287.922 72.4063"/>
<path style="stroke:#000000; stroke-width:1.9133; fill:none" d="M 480.989 207.507L 478.594 207.507"/>
<path style="stroke:#000000; stroke-width:1.9133; fill:none" d="M 480.989 180.328L 478.594 180.328"/>
<path style="stroke:#000000; stroke-width:1.9133; fill:none" d="M 480.989 153.148L 478.594 153.148"/>
<path style="stroke:#000000; stroke-width:1.9133; fill:none" d="M 480.989 126.367L 478.594 126.367"/>
<path style="stroke:#000000; stroke-width:1.9133; fill:none" d="M 480.989 99.1873L 478.594 99.1873"/>
<path style="stroke:#000000; stroke-width:1.9133; fill:none" d="M 480.989 72.4063L 478.594 72.4063"/>
<path style="stroke:none; fill-rule:evenodd; fill:#000000" d="M 266.539 201.949C 265.844 201.949 265.211 202.246 264.821 202.746C 264.336 203.418 264.094 204.449 264.094 205.871C 264.094 208.464 264.938 209.843 266.539 209.843C 268.121 209.843 268.989 208.464 268.989 205.937C 268.989 204.441 268.758 203.445 268.262 202.746C 267.871 202.234 267.25 201.949 266.543 201.949L 266.539 201.949zM 266.539 202.75C 267.575 202.75 268.086 203.789 268.086 205.851C 268.086 208.027 267.586 209.046 266.516 209.046C 265.504 209.046 264.993 207.984 264.993 205.882C 264.993 203.781 265.504 202.75 266.539 202.75z"/>
<path style="stroke:none; fill-rule:evenodd; fill:#000000" d="M 270.59 209.648L 271.688 209.648L 271.688 208.55L 270.59 208.55L 270.59 209.648z"/>
<path style="stroke:none; fill-rule:evenodd; fill:#000000" d="M 275.539 201.949C 274.844 201.949 274.211 202.246 273.821 202.746C 273.336 203.418 273.094 204.449 273.094 205.871C 273.094 208.464 273.938 209.843 275.539 209.843C 277.121 209.843 277.989 208.464 277.989 205.937C 277.989 204.441 277.758 203.445 277.262 202.746C 276.871 202.234 276.25 201.949 275.543 201.949L 275.539 201.949zM 275.539 202.75C 276.575 202.75 277.086 203.789 277.086 205.851C 277.086 208.027 276.586 209.046 275.516 209.046C 274.504 209.046 273.993 207.984 273.993 205.882C 273.993 203.781 274.504 202.75 275.539 202.75z"/>
<path style="stroke:none; fill-rule:evenodd; fill:#000000" d="M 266.539 174.75C 265.844 174.75 265.211 175.046 264.821 175.546C 264.336 176.218 264.094 177.25 264.094 178.671C 264.094 181.265 264.938 182.644 266.539 182.644C 268.121 182.644 268.989 181.265 268.989 178.738C 268.989 177.242 268.758 176.246 268.262 175.546C 267.871 175.035 267.25 174.75 266.543 174.75L 266.539 174.75zM 266.539 175.55C 267.575 175.55 268.086 176.589 268.086 178.652C 268.086 180.828 267.586 181.847 266.516 181.847C 265.504 181.847 264.993 180.785 264.993 178.683C 264.993 176.582 265.504 175.55 266.539 175.55z"/>
<path style="stroke:none; fill-rule:evenodd; fill:#000000" d="M 270.59 182.449L 271.688 182.449L 271.688 181.351L 270.59 181.351L 270.59 182.449z"/>
<path style="stroke:none; fill-rule:evenodd; fill:#000000" d="M 278.036 181.55L 274.024 181.55C 274.118 180.918 274.461 180.515 275.399 179.957L 276.473 179.367C 277.536 178.777 278.086 177.98 278.086 177.031C 278.086 176.386 277.829 175.789 277.375 175.371C 276.926 174.957 276.368 174.761 275.645 174.761C 274.68 174.761 273.957 175.113 273.539 175.769C 273.274 176.187 273.153 176.668 273.133 177.46L 274.094 177.46C 274.125 176.921 274.192 176.597 274.321 176.336C 274.571 175.855 275.075 175.562 275.653 175.562C 276.528 175.562 277.184 176.183 277.184 177.011C 277.184 177.621 276.825 178.144 276.137 178.539L 275.133 179.105C 273.516 180.019 273.047 180.75 272.957 182.453L 278.036 182.453L 278.036 181.55z"/>
<path style="stroke:none; fill-rule:evenodd; fill:#000000" d="M 266.539 147.949C 265.844 147.949 265.211 148.246 264.821 148.746C 264.336 149.418 264.094 150.449 264.094 151.871C 264.094 154.464 264.938 155.843 266.539 155.843C 268.121 155.843 268.989 154.464 268.989 151.937C 268.989 150.441 268.758 149.445 268.262 148.746C 267.871 148.234 267.25 147.949 266.543 147.949L 266.539 147.949zM 266.539 148.75C 267.575 148.75 268.086 149.789 268.086 151.851C 268.086 154.027 267.586 155.046 266.516 155.046C 265.504 155.046 264.993 153.984 264.993 151.882C 264.993 149.781 265.504 148.75 266.539 148.75z"/>
<path style="stroke:none; fill-rule:evenodd; fill:#000000" d="M 270.59 155.648L 271.688 155.648L 271.688 154.55L 270.59 154.55L 270.59 155.648z"/>
<path style="stroke:none; fill-rule:evenodd; fill:#000000" d="M 276.188 153.75L 276.188 155.648L 277.086 155.648L 277.086 153.75L 278.196 153.75L 278.196 152.953L 277.086 152.953L 277.086 147.953L 276.383 147.953L 272.895 152.75L 272.895 153.75L 276.188 153.75zM 276.188 152.949L 273.723 152.949L 276.188 149.617L 276.188 152.949z"/>
<path style="stroke:none; fill-rule:evenodd; fill:#000000" d="M 266.539 120.75C 265.844 120.75 265.211 121.046 264.821 121.546C 264.336 122.218 264.094 123.25 264.094 124.671C 264.094 127.265 264.938 128.644 266.539 128.644C 268.121 128.644 268.989 127.265 268.989 124.738C 268.989 123.242 268.758 122.246 268.262 121.546C 267.871 121.035 267.25 120.75 266.543 120.75L 266.539 120.75zM 266.539 121.55C 267.575 121.55 268.086 122.589 268.086 124.652C 268.086 126.828 267.586 127.847 266.516 127.847C 265.504 127.847 264.993 126.785 264.993 124.683C 264.993 122.582 265.504 121.55 266.539 121.55z"/>
<path style="stroke:none; fill-rule:evenodd; fill:#000000" d="M 270.59 128.449L 271.688 128.449L 271.688 127.351L 270.59 127.351L 270.59 128.449z"/>
<path style="stroke:none; fill-rule:evenodd; fill:#000000" d="M 277.965 122.75C 277.786 121.496 276.973 120.75 275.813 120.75C 274.977 120.75 274.227 121.16 273.778 121.839C 273.309 122.582 273.094 123.523 273.094 124.914C 273.094 126.195 273.282 127.015 273.731 127.695C 274.133 128.308 274.793 128.644 275.621 128.644C 277.055 128.644 278.09 127.589 278.09 126.121C 278.09 124.73 277.121 123.746 275.75 123.746C 274.996 123.746 274.403 124.015 273.993 124.543C 274 122.613 274.61 121.543 275.711 121.543C 276.383 121.543 276.852 121.98 277.004 122.742L 277.965 122.75zM 275.684 124.55C 276.61 124.55 277.188 125.183 277.188 126.199C 277.188 127.152 276.536 127.847 275.653 127.847C 274.758 127.847 274.082 127.121 274.082 126.144C 274.082 125.203 274.735 124.55 275.684 124.55z"/>
<path style="stroke:none; fill-rule:evenodd; fill:#000000" d="M 266.539 94.0503C 265.844 94.0503 265.211 94.3473 264.821 94.8473C 264.336 95.5193 264.094 96.5503 264.094 97.9723C 264.094 100.566 264.938 101.945 266.539 101.945C 268.121 101.945 268.989 100.566 268.989 98.0393C 268.989 96.5433 268.758 95.5463 268.262 94.8473C 267.871 94.3363 267.25 94.0503 266.543 94.0503L 266.539 94.0503zM 266.539 94.8513C 267.575 94.8513 268.086 95.8903 268.086 97.9533C 268.086 100.128 267.586 101.148 266.516 101.148C 265.504 101.148 264.993 100.086 264.993 97.9843C 264.993 95.8823 265.504 94.8513 266.539 94.8513z"/>
<path style="stroke:none; fill-rule:evenodd; fill:#000000" d="M 270.59 101.75L 271.688 101.75L 271.688 100.652L 270.59 100.652L 270.59 101.75z"/>
<path style="stroke:none; fill-rule:evenodd; fill:#000000" d="M 276.809 97.6753C 277.543 97.2033 277.786 96.8163 277.786 96.0893C 277.786 94.8943 276.868 94.0503 275.536 94.0503C 274.219 94.0503 273.286 94.8903 273.286 96.0893C 273.286 96.8003 273.536 97.1873 274.289 97.6753C 273.418 98.0933 272.985 98.7303 272.985 99.5743C 272.985 100.976 274.032 101.945 275.532 101.945C 277.032 101.945 278.082 100.976 278.082 99.5823C 278.082 98.7303 277.664 98.0933 276.805 97.6753L 276.809 97.6753zM 275.539 94.8513C 276.36 94.8513 276.887 95.3433 276.887 96.1173C 276.887 96.8553 276.352 97.3473 275.539 97.3473C 274.731 97.3473 274.192 96.8553 274.192 96.1053C 274.192 95.3433 274.727 94.8513 275.539 94.8513zM 275.539 98.1483C 276.52 98.1483 277.188 98.7503 277.188 99.6403C 277.188 100.543 276.52 101.144 275.516 101.144C 274.559 101.144 273.891 100.535 273.891 99.6403C 273.891 98.7503 274.559 98.1483 275.539 98.1483z"/>
<path style="stroke:none; fill-rule:evenodd; fill:#000000" d="M 266.391 69.0663L 266.391 74.5463L 267.289 74.5463L 267.289 66.8473L 266.676 66.8473C 266.348 68.0313 266.137 68.1953 264.696 68.3783L 264.696 69.0623L 266.391 69.0663z"/>
<path style="stroke:none; fill-rule:evenodd; fill:#000000" d="M 270.59 74.5503L 271.688 74.5503L 271.688 73.4533L 270.59 73.4533L 270.59 74.5503z"/>
<path style="stroke:none; fill-rule:evenodd; fill:#000000" d="M 275.539 66.8513C 274.844 66.8513 274.211 67.1483 273.821 67.6483C 273.336 68.3203 273.094 69.3513 273.094 70.7733C 273.094 73.3673 273.938 74.7463 275.539 74.7463C 277.121 74.7463 277.989 73.3673 277.989 70.8393C 277.989 69.3433 277.758 68.3473 277.262 67.6483C 276.871 67.1363 276.25 66.8513 275.543 66.8513L 275.539 66.8513zM 275.539 67.6483C 276.575 67.6483 277.086 68.6873 277.086 70.7503C 277.086 72.9253 276.586 73.9453 275.516 73.9453C 274.504 73.9453 273.993 72.8823 273.993 70.7813C 273.993 68.6793 274.504 67.6483 275.539 67.6483z"/>
<path style="stroke:none; fill-rule:evenodd; fill:#000000" d="M 250.989 182.351L 250.989 180.332C 250.989 178.886 249.957 177.953 248.348 177.953C 246.762 177.953 245.891 178.847 245.891 180.484L 245.891 183.949L 253.789 183.949L 253.789 182.351L 250.989 182.351zM 249.688 182.351L 247.188 182.351L 247.188 180.828C 247.188 179.96 247.586 179.554 248.442 179.554C 249.286 179.554 249.684 179.957 249.684 180.828L 249.688 182.351z"/>
<path style="stroke:none; fill-rule:evenodd; fill:#000000" d="M 247.989 176.851L 253.786 176.851L 253.786 175.351L 250.707 175.351C 249.829 175.351 249.391 174.914 249.391 174.035C 249.391 173.875 249.395 173.769 249.407 173.566L 247.891 173.566C 247.891 173.652 247.891 173.703 247.891 173.746C 247.891 174.429 248.332 175.031 249.106 175.355L 247.993 175.355L 247.989 176.851z"/>
<path style="stroke:none; fill-rule:evenodd; fill:#000000" d="M 247.891 170.113C 247.891 171.871 249.051 172.949 250.942 172.949C 252.836 172.949 253.989 171.875 253.989 170.101C 253.989 168.351 252.829 167.253 250.985 167.253C 249.036 167.253 247.895 168.308 247.895 170.113L 247.891 170.113zM 249.09 170.101C 249.09 169.285 249.829 168.753 250.961 168.753C 252.039 168.753 252.789 169.304 252.789 170.101C 252.789 170.906 252.043 171.449 250.942 171.449C 249.844 171.449 249.094 170.91 249.094 170.101L 249.09 170.101z"/>
<path style="stroke:none; fill-rule:evenodd; fill:#000000" d="M 247.985 164.648L 247.985 166.148L 256.184 166.148L 256.184 164.648L 253.094 164.648C 253.766 164.281 254.082 163.757 254.082 163.015C 254.082 161.597 252.766 160.554 250.989 160.554C 250.168 160.554 249.344 160.793 248.805 161.183C 248.254 161.574 247.887 162.304 247.887 163.011C 247.887 163.75 248.2 164.273 248.848 164.644L 247.985 164.648zM 249.188 163.351C 249.188 162.57 249.918 162.054 251.012 162.054C 252.051 162.054 252.782 162.593 252.782 163.351C 252.782 164.121 252.063 164.648 250.989 164.648C 249.918 164.648 249.184 164.121 249.184 163.351L 249.188 163.351z"/>
<path style="stroke:none; fill-rule:evenodd; fill:#000000" d="M 247.891 156.91C 247.891 158.668 249.051 159.746 250.942 159.746C 252.836 159.746 253.989 158.671 253.989 156.898C 253.989 155.148 252.829 154.05 250.985 154.05C 249.036 154.05 247.895 155.105 247.895 156.91L 247.891 156.91zM 249.09 156.898C 249.09 156.082 249.829 155.55 250.961 155.55C 252.039 155.55 252.789 156.101 252.789 156.898C 252.789 157.703 252.043 158.246 250.942 158.246C 249.844 158.246 249.094 157.707 249.094 156.898L 249.09 156.898z"/>
<path style="stroke:none; fill-rule:evenodd; fill:#000000" d="M 247.989 152.851L 253.786 152.851L 253.786 151.351L 250.707 151.351C 249.829 151.351 249.391 150.914 249.391 150.035C 249.391 149.875 249.395 149.769 249.407 149.566L 247.891 149.566C 247.891 149.652 247.891 149.703 247.891 149.746C 247.891 150.429 248.332 151.031 249.106 151.355L 247.993 151.355L 247.989 152.851z"/>
<path style="stroke:none; fill-rule:evenodd; fill:#000000" d="M 248.09 146.101L 248.09 146.949L 246.52 146.949L 246.52 148.449L 248.09 148.449L 248.09 149.195L 249.09 149.195L 249.09 148.449L 252.633 148.449C 253.539 148.449 253.985 147.968 253.985 146.976C 253.985 146.644 253.957 146.375 253.871 146.105L 252.86 146.105C 252.875 146.253 252.887 146.343 252.887 146.453C 252.887 146.855 252.77 146.953 252.254 146.953L 249.09 146.953L 249.09 146.105L 248.09 146.101z"/>
<path style="stroke:none; fill-rule:evenodd; fill:#000000" d="M 247.961 143.55L 247.961 145.05L 253.786 145.05L 253.786 143.55L 247.961 143.55zM 245.891 143.55L 245.891 145.05L 247.188 145.05L 247.188 143.55L 245.891 143.55z"/>
<path style="stroke:none; fill-rule:evenodd; fill:#000000" d="M 247.891 139.511C 247.891 141.269 249.051 142.347 250.942 142.347C 252.836 142.347 253.989 141.273 253.989 139.5C 253.989 137.75 252.829 136.652 250.985 136.652C 249.036 136.652 247.895 137.707 247.895 139.511L 247.891 139.511zM 249.09 139.5C 249.09 138.683 249.829 138.152 250.961 138.152C 252.039 138.152 252.789 138.703 252.789 139.5C 252.789 140.304 252.043 140.847 250.942 140.847C 249.844 140.847 249.094 140.308 249.094 139.5L 249.09 139.5z"/>
<path style="stroke:none; fill-rule:evenodd; fill:#000000" d="M 247.989 135.449L 253.786 135.449L 253.786 133.949L 250.321 133.949C 249.637 133.949 249.188 133.464 249.188 132.726C 249.188 132.078 249.539 131.753 250.223 131.753L 253.782 131.753L 253.782 130.253L 249.895 130.253C 248.618 130.253 247.887 130.964 247.887 132.203C 247.887 132.988 248.168 133.515 248.797 133.949L 247.985 133.949L 247.989 135.449z"/>
<path style="stroke:none; fill-rule:evenodd; fill:#000000" d="M 248.586 119.191C 247.907 119.242 247.477 119.382 247.032 119.714C 246.235 120.316 245.789 121.281 245.789 122.453C 245.789 124.668 247.368 126.043 249.899 126.043C 252.407 126.043 253.985 124.679 253.985 122.496C 253.985 120.55 252.871 119.25 251.098 119.152L 251.098 120.722C 252.043 120.816 252.582 121.453 252.582 122.457C 252.582 123.707 251.59 124.437 249.907 124.437C 248.203 124.437 247.188 123.671 247.188 122.402C 247.188 121.843 247.379 121.378 247.75 121.078C 247.961 120.906 248.164 120.82 248.579 120.722L 248.586 119.191z"/>
<path style="stroke:none; fill-rule:evenodd; fill:#000000" d="M 247.891 115.511C 247.891 117.269 249.051 118.347 250.942 118.347C 252.836 118.347 253.989 117.273 253.989 115.5C 253.989 113.75 252.829 112.652 250.985 112.652C 249.036 112.652 247.895 113.707 247.895 115.511L 247.891 115.511zM 249.09 115.5C 249.09 114.683 249.829 114.152 250.961 114.152C 252.039 114.152 252.789 114.703 252.789 115.5C 252.789 116.304 252.043 116.847 250.942 116.847C 249.844 116.847 249.094 116.308 249.094 115.5L 249.09 115.5z"/>
<path style="stroke:none; fill-rule:evenodd; fill:#000000" d="M 247.989 111.449L 253.786 111.449L 253.786 109.949L 250.707 109.949C 249.829 109.949 249.391 109.511 249.391 108.632C 249.391 108.472 249.395 108.367 249.407 108.164L 247.891 108.164C 247.891 108.25 247.891 108.3 247.891 108.343C 247.891 109.027 248.332 109.628 249.106 109.953L 247.993 109.953L 247.989 111.449z"/>
<path style="stroke:none; fill-rule:evenodd; fill:#000000" d="M 247.989 107.25L 253.786 107.25L 253.786 105.75L 250.707 105.75C 249.829 105.75 249.391 105.312 249.391 104.433C 249.391 104.273 249.395 104.168 249.407 103.964L 247.891 103.964C 247.891 104.05 247.891 104.101 247.891 104.144C 247.891 104.828 248.332 105.429 249.106 105.753L 247.993 105.753L 247.989 107.25z"/>
<path style="stroke:none; fill-rule:evenodd; fill:#000000" d="M 251.391 98.0933C 251.262 98.0863 251.207 98.0863 251.133 98.0863C 250.551 98.0863 250.008 98.1713 249.598 98.3123C 248.539 98.6993 247.899 99.6363 247.899 100.816C 247.899 102.488 249.09 103.511 251.024 103.511C 252.868 103.511 253.996 102.5 253.996 100.847C 253.996 99.5433 253.274 98.4843 252.157 98.1523L 252.157 99.6403C 252.559 99.8203 252.797 100.242 252.797 100.793C 252.797 101.222 252.629 101.566 252.336 101.785C 252.141 101.921 251.903 101.976 251.403 102L 251.391 98.0933zM 250.391 101.98C 249.528 101.886 249.094 101.507 249.094 100.839C 249.094 100.464 249.274 100.117 249.567 99.9023C 249.778 99.7653 249.996 99.6993 250.387 99.6683L 250.391 101.98z"/>
<path style="stroke:none; fill-rule:evenodd; fill:#000000" d="M 250.141 92.1173C 248.735 92.2223 247.891 93.1683 247.891 94.6133C 247.891 96.3393 249.02 97.3473 250.981 97.3473C 252.875 97.3473 253.985 96.3513 253.985 94.6363C 253.985 93.2343 253.133 92.2573 251.77 92.1173L 251.77 93.5543C 252.504 93.7463 252.786 94.0463 252.786 94.6253C 252.786 95.3863 252.102 95.8473 250.981 95.8473C 250.438 95.8473 249.922 95.7423 249.582 95.5583C 249.262 95.3903 249.09 95.0543 249.09 94.6283C 249.09 94.0193 249.379 93.7303 250.141 93.5583L 250.141 92.1173z"/>
<path style="stroke:none; fill-rule:evenodd; fill:#000000" d="M 248.09 88.5033L 248.09 89.3513L 246.52 89.3513L 246.52 90.8513L 248.09 90.8513L 248.09 91.5973L 249.09 91.5973L 249.09 90.8513L 252.633 90.8513C 253.539 90.8513 253.985 90.3713 253.985 89.3783C 253.985 89.0463 253.957 88.7773 253.871 88.5073L 252.86 88.5073C 252.875 88.6563 252.887 88.7463 252.887 88.8553C 252.887 89.2573 252.77 89.3553 252.254 89.3553L 249.09 89.3553L 249.09 88.5073L 248.09 88.5033z"/>
<path style="stroke:none; fill-rule:evenodd; fill:#000000" d="M 318.188 55.1483L 319.786 55.1483L 319.786 47.2503L 318.188 47.2503L 318.188 55.1483z"/>
<path style="stroke:none; fill-rule:evenodd; fill:#000000" d="M 321.188 49.3513L 321.188 55.1483L 322.688 55.1483L 322.688 51.6833C 322.688 51.0003 323.172 50.5503 323.911 50.5503C 324.559 50.5503 324.883 50.9023 324.883 51.5863L 324.883 55.1443L 326.383 55.1443L 326.383 51.2573C 326.383 49.9803 325.672 49.2503 324.434 49.2503C 323.649 49.2503 323.121 49.5313 322.688 50.1603L 322.688 49.3473L 321.188 49.3513z"/>
<path style="stroke:none; fill-rule:evenodd; fill:#000000" d="M 332.723 51.5033C 332.618 50.0973 331.672 49.2533 330.227 49.2533C 328.5 49.2533 327.493 50.3823 327.493 52.3433C 327.493 54.2383 328.489 55.3473 330.203 55.3473C 331.606 55.3473 332.582 54.4963 332.723 53.1323L 331.286 53.1323C 331.094 53.8673 330.793 54.1483 330.215 54.1483C 329.453 54.1483 328.993 53.4643 328.993 52.3433C 328.993 51.8003 329.098 51.2853 329.282 50.9453C 329.45 50.6253 329.786 50.4533 330.211 50.4533C 330.821 50.4533 331.11 50.7423 331.282 51.5033L 332.723 51.5033z"/>
<path style="stroke:none; fill-rule:evenodd; fill:#000000" d="M 335.289 49.3243L 333.789 49.3243L 333.789 55.1483L 335.289 55.1483L 335.289 49.3243zM 335.289 47.2503L 333.789 47.2503L 333.789 48.5463L 335.289 48.5463L 335.289 47.2503z"/>
<path style="stroke:none; fill-rule:evenodd; fill:#000000" d="M 340.489 55.1013L 341.989 55.1013L 341.989 47.2503L 340.489 47.2503L 340.489 50.0743C 340.11 49.5113 339.594 49.2503 338.864 49.2503C 337.461 49.2503 336.391 50.5703 336.391 52.3083C 336.391 53.0863 336.629 53.8753 337.02 54.4293C 337.422 54.9843 338.141 55.3433 338.86 55.3433C 339.586 55.3433 340.102 55.0783 340.485 54.5033L 340.489 55.1013zM 339.188 50.5503C 339.969 50.5503 340.485 51.2653 340.485 52.3283C 340.485 53.3393 339.957 54.0463 339.188 54.0463C 338.418 54.0463 337.891 53.3363 337.891 52.3083C 337.891 51.2773 338.418 50.5503 339.188 50.5503z"/>
<path style="stroke:none; fill-rule:evenodd; fill:#000000" d="M 348.344 52.7503C 348.352 52.6213 348.352 52.5663 348.352 52.4923C 348.352 51.9103 348.266 51.3673 348.125 50.9573C 347.739 49.8983 346.801 49.2573 345.621 49.2573C 343.95 49.2573 342.926 50.4493 342.926 52.3823C 342.926 54.2263 343.938 55.3553 345.59 55.3553C 346.895 55.3553 347.953 54.6323 348.286 53.5153L 346.797 53.5153C 346.618 53.9183 346.196 54.1563 345.645 54.1563C 345.215 54.1563 344.871 53.9883 344.653 53.6953C 344.516 53.5003 344.461 53.2613 344.438 52.7613L 348.344 52.7503zM 344.457 51.7503C 344.551 50.8863 344.93 50.4533 345.598 50.4533C 345.973 50.4533 346.321 50.6323 346.536 50.9253C 346.672 51.1363 346.739 51.3553 346.77 51.7463L 344.457 51.7503z"/>
<path style="stroke:none; fill-rule:evenodd; fill:#000000" d="M 349.391 49.3513L 349.391 55.1483L 350.891 55.1483L 350.891 51.6833C 350.891 51.0003 351.375 50.5503 352.114 50.5503C 352.762 50.5503 353.086 50.9023 353.086 51.5863L 353.086 55.1443L 354.586 55.1443L 354.586 51.2573C 354.586 49.9803 353.875 49.2503 352.637 49.2503C 351.852 49.2503 351.325 49.5313 350.891 50.1603L 350.891 49.3473L 349.391 49.3513z"/>
<path style="stroke:none; fill-rule:evenodd; fill:#000000" d="M 358.536 49.4493L 357.688 49.4493L 357.688 47.8783L 356.188 47.8783L 356.188 49.4493L 355.442 49.4493L 355.442 50.4493L 356.188 50.4493L 356.188 53.9923C 356.188 54.8983 356.668 55.3433 357.661 55.3433C 357.993 55.3433 358.262 55.3163 358.532 55.2303L 358.532 54.2183C 358.383 54.2343 358.293 54.2463 358.184 54.2463C 357.782 54.2463 357.684 54.1283 357.684 53.6133L 357.684 50.4493L 358.532 50.4493L 358.536 49.4493z"/>
<path style="stroke:none; fill-rule:evenodd; fill:#000000" d="M 364.543 54.9253C 364.266 54.6833 364.192 54.5233 364.192 54.2223L 364.192 51.0273C 364.192 49.8553 363.387 49.2573 361.813 49.2573C 360.243 49.2573 359.422 49.9183 359.329 51.2503L 360.77 51.2503C 360.844 50.6523 361.09 50.4573 361.829 50.4573C 362.403 50.4573 362.692 50.6483 362.692 51.0313C 362.692 51.2223 362.598 51.3903 362.438 51.4763C 362.239 51.5823 362.239 51.5823 361.5 51.6993L 360.903 51.8043C 359.758 51.9963 359.203 52.5823 359.203 53.6173C 359.203 54.1053 359.34 54.5113 359.606 54.8003C 359.934 55.1403 360.434 55.3433 360.95 55.3433C 361.586 55.3433 362.176 55.0703 362.7 54.5233C 362.7 54.8203 362.731 54.9253 362.875 55.0973L 364.551 55.0973L 364.543 54.9253zM 362.688 52.8003C 362.688 53.6603 362.262 54.1483 361.504 54.1483C 361.004 54.1483 360.692 53.8823 360.692 53.4603C 360.692 53.0153 360.926 52.8043 361.543 52.6753L 362.055 52.5823C 362.45 52.5113 362.512 52.4883 362.684 52.4023L 362.688 52.8003z"/>
<path style="stroke:none; fill-rule:evenodd; fill:#000000" d="M 365.59 55.1483L 367.09 55.1483L 367.09 47.2503L 365.59 47.2503L 365.59 55.1483z"/>
<path style="stroke:none; fill-rule:evenodd; fill:#000000" d="M 378.25 49.9493C 378.2 49.2693 378.059 48.8393 377.727 48.3943C 377.125 47.5973 376.161 47.1523 374.989 47.1523C 372.774 47.1523 371.399 48.7303 371.399 51.2613C 371.399 53.7693 372.762 55.3473 374.946 55.3473C 376.891 55.3473 378.192 54.2343 378.289 52.4603L 376.719 52.4603C 376.625 53.4063 375.989 53.9453 374.985 53.9453C 373.735 53.9453 373.004 52.9533 373.004 51.2693C 373.004 49.5663 373.77 48.5503 375.039 48.5503C 375.598 48.5503 376.063 48.7423 376.364 49.1133C 376.536 49.3243 376.621 49.5273 376.719 49.9413L 378.25 49.9493z"/>
<path style="stroke:none; fill-rule:evenodd; fill:#000000" d="M 381.926 49.2503C 380.168 49.2503 379.09 50.4103 379.09 52.3003C 379.09 54.1953 380.164 55.3473 381.938 55.3473C 383.688 55.3473 384.786 54.1873 384.786 52.3433C 384.786 50.3943 383.731 49.2533 381.926 49.2533L 381.926 49.2503zM 381.938 50.4493C 382.754 50.4493 383.286 51.1873 383.286 52.3203C 383.286 53.3983 382.735 54.1483 381.938 54.1483C 381.133 54.1483 380.59 53.4023 380.59 52.3003C 380.59 51.2033 381.129 50.4533 381.938 50.4533L 381.938 50.4493z"/>
<path style="stroke:none; fill-rule:evenodd; fill:#000000" d="M 385.989 49.3513L 385.989 55.1483L 387.489 55.1483L 387.489 51.6833C 387.489 51.0003 387.973 50.5503 388.711 50.5503C 389.36 50.5503 389.684 50.9023 389.684 51.5863L 389.684 55.1443L 391.184 55.1443L 391.184 51.2573C 391.184 49.9803 390.473 49.2503 389.235 49.2503C 388.45 49.2503 387.922 49.5313 387.489 50.1603L 387.489 49.3473L 385.989 49.3513z"/>
<path style="stroke:none; fill-rule:evenodd; fill:#000000" d="M 395.137 49.4493L 394.289 49.4493L 394.289 47.8783L 392.789 47.8783L 392.789 49.4493L 392.043 49.4493L 392.043 50.4493L 392.789 50.4493L 392.789 53.9923C 392.789 54.8983 393.27 55.3433 394.262 55.3433C 394.594 55.3433 394.864 55.3163 395.133 55.2303L 395.133 54.2183C 394.985 54.2343 394.895 54.2463 394.786 54.2463C 394.383 54.2463 394.286 54.1283 394.286 53.6133L 394.286 50.4493L 395.133 50.4493L 395.137 49.4493z"/>
<path style="stroke:none; fill-rule:evenodd; fill:#000000" d="M 401.145 52.7503C 401.153 52.6213 401.153 52.5663 401.153 52.4923C 401.153 51.9103 401.067 51.3673 400.926 50.9573C 400.539 49.8983 399.602 49.2573 398.422 49.2573C 396.75 49.2573 395.727 50.4493 395.727 52.3823C 395.727 54.2263 396.739 55.3553 398.391 55.3553C 399.696 55.3553 400.754 54.6323 401.086 53.5153L 399.598 53.5153C 399.418 53.9183 398.996 54.1563 398.446 54.1563C 398.016 54.1563 397.672 53.9883 397.453 53.6953C 397.317 53.5003 397.262 53.2613 397.239 52.7613L 401.145 52.7503zM 397.258 51.7503C 397.352 50.8863 397.731 50.4533 398.399 50.4533C 398.774 50.4533 399.121 50.6323 399.336 50.9253C 399.473 51.1363 399.539 51.3553 399.571 51.7463L 397.258 51.7503z"/>
<path style="stroke:none; fill-rule:evenodd; fill:#000000" d="M 405.321 52.2303L 407.219 49.3513L 405.407 49.3513L 404.469 51.0823L 403.52 49.3513L 401.707 49.3513L 403.606 52.2303L 401.664 55.1483L 403.477 55.1483L 404.469 53.3363L 405.45 55.1483L 407.262 55.1483L 405.321 52.2303z"/>
<path style="stroke:none; fill-rule:evenodd; fill:#000000" d="M 410.739 49.4493L 409.891 49.4493L 409.891 47.8783L 408.391 47.8783L 408.391 49.4493L 407.645 49.4493L 407.645 50.4493L 408.391 50.4493L 408.391 53.9923C 408.391 54.8983 408.871 55.3433 409.864 55.3433C 410.196 55.3433 410.465 55.3163 410.735 55.2303L 410.735 54.2183C 410.586 54.2343 410.496 54.2463 410.387 54.2463C 409.985 54.2463 409.887 54.1283 409.887 53.6133L 409.887 50.4493L 410.735 50.4493L 410.739 49.4493z"/>
<path style="stroke:none; fill-rule:evenodd; fill:#000000" d="M 413.891 53.5503L 412.293 53.5503L 412.293 55.1483L 413.891 55.1483L 413.891 53.5503zM 413.891 49.5503L 412.293 49.5503L 412.293 51.1483L 413.891 51.1483L 413.891 49.5503z"/>
<path style="stroke:none; fill-rule:evenodd; fill:#000000" d="M 419.989 49.0193L 421.426 55.1483L 423.071 55.1483L 424.485 49.0193L 424.485 55.1483L 426.082 55.1483L 426.082 47.2503L 423.633 47.2503L 422.246 53.5393L 420.817 47.2503L 418.391 47.2503L 418.391 55.1483L 419.989 55.1483L 419.989 49.0193z"/>
<path style="stroke:none; fill-rule:evenodd; fill:#000000" d="M 429.829 49.2503C 428.071 49.2503 426.993 50.4103 426.993 52.3003C 426.993 54.1953 428.067 55.3473 429.84 55.3473C 431.59 55.3473 432.688 54.1873 432.688 52.3433C 432.688 50.3943 431.633 49.2533 429.829 49.2533L 429.829 49.2503zM 429.84 50.4493C 430.657 50.4493 431.188 51.1873 431.188 52.3203C 431.188 53.3983 430.637 54.1483 429.84 54.1483C 429.036 54.1483 428.493 53.4023 428.493 52.3003C 428.493 51.2033 429.032 50.4533 429.84 50.4533L 429.84 50.4493z"/>
<path style="stroke:none; fill-rule:evenodd; fill:#000000" d="M 437.59 55.1013L 439.09 55.1013L 439.09 47.2503L 437.59 47.2503L 437.59 50.0743C 437.211 49.5113 436.696 49.2503 435.965 49.2503C 434.563 49.2503 433.493 50.5703 433.493 52.3083C 433.493 53.0863 433.731 53.8753 434.121 54.4293C 434.524 54.9843 435.243 55.3433 435.961 55.3433C 436.688 55.3433 437.203 55.0783 437.586 54.5033L 437.59 55.1013zM 436.289 50.5503C 437.071 50.5503 437.586 51.2653 437.586 52.3283C 437.586 53.3393 437.059 54.0463 436.289 54.0463C 435.52 54.0463 434.993 53.3363 434.993 52.3083C 434.993 51.2773 435.52 50.5503 436.289 50.5503z"/>
<path style="stroke:none; fill-rule:evenodd; fill:#000000" d="M 445.446 52.7503C 445.453 52.6213 445.453 52.5663 445.453 52.4923C 445.453 51.9103 445.368 51.3673 445.227 50.9573C 444.84 49.8983 443.903 49.2573 442.723 49.2573C 441.051 49.2573 440.028 50.4493 440.028 52.3823C 440.028 54.2263 441.039 55.3553 442.692 55.3553C 443.996 55.3553 445.055 54.6323 445.387 53.5153L 443.899 53.5153C 443.719 53.9183 443.297 54.1563 442.746 54.1563C 442.317 54.1563 441.973 53.9883 441.754 53.6953C 441.618 53.5003 441.563 53.2613 441.539 52.7613L 445.446 52.7503zM 441.559 51.7503C 441.653 50.8863 442.032 50.4533 442.7 50.4533C 443.075 50.4533 443.422 50.6323 443.637 50.9253C 443.774 51.1363 443.84 51.3553 443.871 51.7463L 441.559 51.7503z"/>
<path style="stroke:none; fill-rule:evenodd; fill:#000000" d="M 446.489 55.1483L 447.989 55.1483L 447.989 47.2503L 446.489 47.2503L 446.489 55.1483z"/>
<path style="stroke:none; fill-rule:evenodd; fill:#ffffff" d="M 313.508 207.507L 334.293 207.507L 334.293 77.6013L 313.508 77.6013L 313.508 207.507z"/>
<path style="stroke:#ffffff; stroke-width:0.0; fill:none" d="M 313.508 207.507L 334.293 207.507L 334.293 77.6013L 313.508 77.6013L 313.508 207.507z"/>
<path style="stroke:#ffffff; stroke-width:1.9133; fill:none" d="M 313.508 207.507L 334.293 207.507L 334.293 77.6013L 313.508 77.6013L 313.508 207.507z"/>
<path style="stroke:none; fill-rule:evenodd; fill:#ffffff" d="M 411.438 207.507L 432.223 207.507L 432.223 93.9923L 411.438 93.9923L 411.438 207.507z"/>
<path style="stroke:#ffffff; stroke-width:0.0; fill:none" d="M 411.438 207.507L 432.223 207.507L 432.223 93.9923L 411.438 93.9923L 411.438 207.507z"/>
<path style="stroke:#ffffff; stroke-width:1.9133; fill:none" d="M 411.438 207.507L 432.223 207.507L 432.223 93.9923L 411.438 93.9923L 411.438 207.507z"/>
<path style="stroke:#000000; stroke-width:1.9133; fill:none" d="M 313.508 207.507L 334.293 207.507L 334.293 77.6013L 313.508 77.6013L 313.508 207.507z"/>
<path style="stroke:#000000; stroke-width:1.9133; fill:none" d="M 411.438 207.507L 432.223 207.507L 432.223 93.9923L 411.438 93.9923L 411.438 207.507z"/>
<path style="stroke:#000000; stroke-width:1.9133; fill:none" d="M 323.903 83.1993L 323.903 72.4103"/>
<path style="stroke:#000000; stroke-width:1.9133; fill:none" d="M 421.832 103.98L 421.832 83.9963"/>
<path style="stroke:#000000; stroke-width:1.9133; fill:none" d="M 319.504 83.1993L 328.696 83.1993"/>
<path style="stroke:#000000; stroke-width:1.9133; fill:none" d="M 319.504 72.4063L 328.696 72.4063"/>
<path style="stroke:#000000; stroke-width:1.9133; fill:none" d="M 417.036 103.98L 426.227 103.98"/>
<path style="stroke:#000000; stroke-width:1.9133; fill:none" d="M 417.036 83.9963L 426.227 83.9963"/>
<path style="stroke:none; fill-rule:evenodd; fill:#000000" d="M 334.293 207.507L 355.079 207.507L 355.079 147.953L 334.293 147.953L 334.293 207.507z"/>
<path style="stroke:#000000; stroke-width:0.0; fill:none" d="M 334.293 207.507L 355.079 207.507L 355.079 147.953L 334.293 147.953L 334.293 207.507z"/>
<path style="stroke:#000000; stroke-width:1.9133; fill:none" d="M 334.293 207.507L 355.079 207.507L 355.079 147.953L 334.293 147.953L 334.293 207.507z"/>
<path style="stroke:none; fill-rule:evenodd; fill:#000000" d="M 432.223 207.507L 453.008 207.507L 453.008 109.98L 432.223 109.98L 432.223 207.507z"/>
<path style="stroke:#000000; stroke-width:0.0; fill:none" d="M 432.223 207.507L 453.008 207.507L 453.008 109.98L 432.223 109.98L 432.223 207.507z"/>
<path style="stroke:#000000; stroke-width:1.9133; fill:none" d="M 432.223 207.507L 453.008 207.507L 453.008 109.98L 432.223 109.98L 432.223 207.507z"/>
<path style="stroke:#000000; stroke-width:1.9133; fill:none" d="M 334.293 207.507L 355.079 207.507L 355.079 147.953L 334.293 147.953L 334.293 207.507z"/>
<path style="stroke:#000000; stroke-width:1.9133; fill:none" d="M 432.223 207.507L 453.008 207.507L 453.008 109.98L 432.223 109.98L 432.223 207.507z"/>
<path style="stroke:#000000; stroke-width:1.9133; fill:none" d="M 344.688 163.539L 344.688 131.964"/>
<path style="stroke:#000000; stroke-width:1.9133; fill:none" d="M 442.618 124.765L 442.618 95.5893"/>
<path style="stroke:#000000; stroke-width:1.9133; fill:none" d="M 340.289 163.539L 349.481 163.539"/>
<path style="stroke:#000000; stroke-width:1.9133; fill:none" d="M 340.289 131.96L 349.481 131.96"/>
<path style="stroke:#000000; stroke-width:1.9133; fill:none" d="M 437.821 124.765L 447.012 124.765"/>
<path style="stroke:#000000; stroke-width:1.9133; fill:none" d="M 437.821 95.5893L 447.012 95.5893"/>
<path style="stroke:#000000; stroke-width:1.9133; fill:none" d="M 285.528 207.507L 480.989 207.507L 480.989 65.6093L 285.528 65.6093L 285.528 207.507z"/>
<path style="stroke:#000000; stroke-width:1.9133; fill:none" d="M 86.8206 207.5L 86.8206 206.304"/>
<path style="stroke:#000000; stroke-width:1.9133; fill:none" d="M 184.75 207.5L 184.75 206.304"/>
<path style="stroke:#000000; stroke-width:1.9133; fill:none" d="M 86.8206 65.6013L 86.8206 66.7963"/>
<path style="stroke:#000000; stroke-width:1.9133; fill:none" d="M 184.75 65.6013L 184.75 66.7963"/>
<path style="stroke:#000000; stroke-width:1.9133; fill:none" d="M 86.8206 207.5L 86.8206 205.105"/>
<path style="stroke:#000000; stroke-width:1.9133; fill:none" d="M 184.75 207.5L 184.75 205.105"/>
<path style="stroke:#000000; stroke-width:1.9133; fill:none" d="M 86.8206 65.6013L 86.8206 67.9963"/>
<path style="stroke:#000000; stroke-width:1.9133; fill:none" d="M 184.75 65.6013L 184.75 67.9963"/>
<path style="stroke:none; fill-rule:evenodd; fill:#000000" d="M 73.0898 218.148L 74.6875 218.148L 74.6875 210.25L 73.0898 210.25L 73.0898 218.148z"/>
<path style="stroke:none; fill-rule:evenodd; fill:#000000" d="M 76.0898 212.351L 76.0898 218.148L 77.5898 218.148L 77.5898 214.683C 77.5898 214 78.0742 213.55 78.8125 213.55C 79.4609 213.55 79.7851 213.902 79.7851 214.586L 79.7851 218.144L 81.2851 218.144L 81.2851 214.257C 81.2851 212.98 80.5742 212.25 79.3359 212.25C 78.5508 212.25 78.0234 212.531 77.5898 213.16L 77.5898 212.347L 76.0898 212.351z"/>
<path style="stroke:none; fill-rule:evenodd; fill:#000000" d="M 85.2383 212.449L 84.3906 212.449L 84.3906 210.878L 82.8906 210.878L 82.8906 212.449L 82.1445 212.449L 82.1445 213.449L 82.8906 213.449L 82.8906 216.992C 82.8906 217.898 83.3711 218.343 84.3633 218.343C 84.6953 218.343 84.9648 218.316 85.2344 218.23L 85.2344 217.218C 85.0859 217.234 84.9961 217.246 84.8867 217.246C 84.4844 217.246 84.3867 217.128 84.3867 216.613L 84.3867 213.449L 85.2344 213.449L 85.2383 212.449z"/>
<path style="stroke:none; fill-rule:evenodd; fill:#000000" d="M 91.2426 217.925C 90.9646 217.683 90.8906 217.523 90.8906 217.222L 90.8906 214.027C 90.8906 212.855 90.0856 212.257 88.5116 212.257C 86.9416 212.257 86.1206 212.918 86.0276 214.25L 87.4686 214.25C 87.5426 213.652 87.7886 213.457 88.5276 213.457C 89.1016 213.457 89.3906 213.648 89.3906 214.031C 89.3906 214.222 89.2966 214.39 89.1366 214.476C 88.9376 214.582 88.9376 214.582 88.1996 214.699L 87.6016 214.804C 86.4566 214.996 85.9026 215.582 85.9026 216.617C 85.9026 217.105 86.0386 217.511 86.3046 217.8C 86.6326 218.14 87.1326 218.343 87.6486 218.343C 88.2856 218.343 88.8746 218.07 89.3986 217.523C 89.3986 217.82 89.4296 217.925 89.5746 218.097L 91.2496 218.097L 91.2426 217.925zM 89.3906 215.8C 89.3906 216.66 88.9646 217.148 88.2066 217.148C 87.7066 217.148 87.3946 216.882 87.3946 216.46C 87.3946 216.015 87.6286 215.804 88.2456 215.675L 88.7576 215.582C 89.1526 215.511 89.2146 215.488 89.3866 215.402L 89.3906 215.8z"/>
<path style="stroke:none; fill-rule:evenodd; fill:#000000" d="M 97.2226 214.503C 97.1176 213.097 96.1716 212.253 94.7266 212.253C 92.9996 212.253 91.9926 213.382 91.9926 215.343C 91.9926 217.238 92.9886 218.347 94.7026 218.347C 96.1056 218.347 97.0816 217.496 97.2226 216.132L 95.7856 216.132C 95.5936 216.867 95.2926 217.148 94.7146 217.148C 93.9526 217.148 93.4926 216.464 93.4926 215.343C 93.4926 214.8 93.5976 214.285 93.7816 213.945C 93.9496 213.625 94.2856 213.453 94.7106 213.453C 95.3206 213.453 95.6096 213.742 95.7816 214.503L 97.2226 214.503z"/>
<path style="stroke:none; fill-rule:evenodd; fill:#000000" d="M 100.836 212.449L 99.9886 212.449L 99.9886 210.878L 98.4886 210.878L 98.4886 212.449L 97.7426 212.449L 97.7426 213.449L 98.4886 213.449L 98.4886 216.992C 98.4886 217.898 98.9686 218.343 99.9606 218.343C 100.293 218.343 100.563 218.316 100.832 218.23L 100.832 217.218C 100.684 217.234 100.594 217.246 100.485 217.246C 100.082 217.246 99.9846 217.128 99.9846 216.613L 99.9846 213.449L 100.832 213.449L 100.836 212.449z"/>
<path style="stroke:none; fill-rule:evenodd; fill:#000000" d="M 183.09 214.55L 183.09 218.148L 184.688 218.148L 184.688 210.25L 183.09 210.25L 183.09 213.25L 179.891 213.25L 179.891 210.25L 178.293 210.25L 178.293 218.148L 179.891 218.148L 179.891 214.55L 183.09 214.55z"/>
<path style="stroke:none; fill-rule:evenodd; fill:#000000" d="M 187.891 210.25L 186.293 210.25L 186.293 218.148L 191.641 218.148L 191.641 216.851L 187.895 216.851L 187.891 210.25z"/>
<path style="stroke:#000000; stroke-width:1.9133; fill:none" d="M 38.0547 207.5L 39.25 207.5"/>
<path style="stroke:#000000; stroke-width:1.9133; fill:none" d="M 38.0547 195.507L 39.25 195.507"/>
<path style="stroke:#000000; stroke-width:1.9133; fill:none" d="M 38.0547 183.515L 39.25 183.515"/>
<path style="stroke:#000000; stroke-width:1.9133; fill:none" d="M 38.0547 171.925L 39.25 171.925"/>
<path style="stroke:#000000; stroke-width:1.9133; fill:none" d="M 38.0547 159.933L 39.25 159.933"/>
<path style="stroke:#000000; stroke-width:1.9133; fill:none" d="M 38.0547 148.339L 39.25 148.339"/>
<path style="stroke:#000000; stroke-width:1.9133; fill:none" d="M 38.0547 136.351L 39.25 136.351"/>
<path style="stroke:#000000; stroke-width:1.9133; fill:none" d="M 38.0547 124.757L 39.25 124.757"/>
<path style="stroke:#000000; stroke-width:1.9133; fill:none" d="M 38.0547 112.765L 39.25 112.765"/>
<path style="stroke:#000000; stroke-width:1.9133; fill:none" d="M 38.0547 101.175L 39.25 101.175"/>
<path style="stroke:#000000; stroke-width:1.9133; fill:none" d="M 38.0547 89.1833L 39.25 89.1833"/>
<path style="stroke:#000000; stroke-width:1.9133; fill:none" d="M 38.0547 77.5933L 39.25 77.5933"/>
<path style="stroke:#000000; stroke-width:1.9133; fill:none" d="M 38.0547 65.6013L 39.25 65.6013"/>
<path style="stroke:#000000; stroke-width:1.9133; fill:none" d="M 233.516 207.5L 232.321 207.5"/>
<path style="stroke:#000000; stroke-width:1.9133; fill:none" d="M 233.516 195.507L 232.321 195.507"/>
<path style="stroke:#000000; stroke-width:1.9133; fill:none" d="M 233.516 183.515L 232.321 183.515"/>
<path style="stroke:#000000; stroke-width:1.9133; fill:none" d="M 233.516 171.925L 232.321 171.925"/>
<path style="stroke:#000000; stroke-width:1.9133; fill:none" d="M 233.516 159.933L 232.321 159.933"/>
<path style="stroke:#000000; stroke-width:1.9133; fill:none" d="M 233.516 148.339L 232.321 148.339"/>
<path style="stroke:#000000; stroke-width:1.9133; fill:none" d="M 233.516 136.351L 232.321 136.351"/>
<path style="stroke:#000000; stroke-width:1.9133; fill:none" d="M 233.516 124.757L 232.321 124.757"/>
<path style="stroke:#000000; stroke-width:1.9133; fill:none" d="M 233.516 112.765L 232.321 112.765"/>
<path style="stroke:#000000; stroke-width:1.9133; fill:none" d="M 233.516 101.175L 232.321 101.175"/>
<path style="stroke:#000000; stroke-width:1.9133; fill:none" d="M 233.516 89.1833L 232.321 89.1833"/>
<path style="stroke:#000000; stroke-width:1.9133; fill:none" d="M 233.516 77.5933L 232.321 77.5933"/>
<path style="stroke:#000000; stroke-width:1.9133; fill:none" d="M 233.516 65.6013L 232.321 65.6013"/>
<path style="stroke:#000000; stroke-width:1.9133; fill:none" d="M 38.0547 207.5L 40.4492 207.5"/>
<path style="stroke:#000000; stroke-width:1.9133; fill:none" d="M 38.0547 183.515L 40.4492 183.515"/>
<path style="stroke:#000000; stroke-width:1.9133; fill:none" d="M 38.0547 159.933L 40.4492 159.933"/>
<path style="stroke:#000000; stroke-width:1.9133; fill:none" d="M 38.0547 136.351L 40.4492 136.351"/>
<path style="stroke:#000000; stroke-width:1.9133; fill:none" d="M 38.0547 112.765L 40.4492 112.765"/>
<path style="stroke:#000000; stroke-width:1.9133; fill:none" d="M 38.0547 89.1833L 40.4492 89.1833"/>
<path style="stroke:#000000; stroke-width:1.9133; fill:none" d="M 38.0547 65.6013L 40.4492 65.6013"/>
<path style="stroke:#000000; stroke-width:1.9133; fill:none" d="M 233.516 207.5L 231.121 207.5"/>
<path style="stroke:#000000; stroke-width:1.9133; fill:none" d="M 233.516 183.515L 231.121 183.515"/>
<path style="stroke:#000000; stroke-width:1.9133; fill:none" d="M 233.516 159.933L 231.121 159.933"/>
<path style="stroke:#000000; stroke-width:1.9133; fill:none" d="M 233.516 136.351L 231.121 136.351"/>
<path style="stroke:#000000; stroke-width:1.9133; fill:none" d="M 233.516 112.765L 231.121 112.765"/>
<path style="stroke:#000000; stroke-width:1.9133; fill:none" d="M 233.516 89.1833L 231.121 89.1833"/>
<path style="stroke:#000000; stroke-width:1.9133; fill:none" d="M 233.516 65.6013L 231.121 65.6013"/>
<path style="stroke:none; fill-rule:evenodd; fill:#000000" d="M 28.2383 201.949C 27.5429 201.949 26.9101 202.246 26.5195 202.746C 26.0351 203.418 25.7929 204.449 25.7929 205.871C 25.7929 208.464 26.6367 209.843 28.2383 209.843C 29.8203 209.843 30.6875 208.464 30.6875 205.937C 30.6875 204.441 30.457 203.445 29.9609 202.746C 29.5703 202.234 28.9492 201.949 28.2422 201.949L 28.2383 201.949zM 28.2383 202.75C 29.2734 202.75 29.7851 203.789 29.7851 205.851C 29.7851 208.027 29.2851 209.046 28.2148 209.046C 27.2031 209.046 26.6914 207.984 26.6914 205.882C 26.6914 203.781 27.2031 202.75 28.2383 202.75z"/>
<path style="stroke:none; fill-rule:evenodd; fill:#000000" d="M 30.7344 185.148L 26.7226 185.148C 26.8164 184.515 27.1601 184.113 28.0976 183.554L 29.1718 182.964C 30.2344 182.375 30.7851 181.578 30.7851 180.628C 30.7851 179.984 30.5273 179.386 30.0742 178.968C 29.625 178.554 29.0664 178.359 28.3437 178.359C 27.3789 178.359 26.6562 178.71 26.2383 179.367C 25.9726 179.785 25.8515 180.265 25.832 181.058L 26.7929 181.058C 26.8242 180.519 26.8906 180.195 27.0195 179.933C 27.2695 179.453 27.7734 179.16 28.3515 179.16C 29.2265 179.16 29.8828 179.781 29.8828 180.609C 29.8828 181.218 29.5234 181.742 28.8359 182.136L 27.832 182.703C 26.2148 183.617 25.7461 184.347 25.6562 186.05L 30.7344 186.05L 30.7344 185.148z"/>
<path style="stroke:none; fill-rule:evenodd; fill:#000000" d="M 28.8906 160.55L 28.8906 162.449L 29.789 162.449L 29.789 160.55L 30.8984 160.55L 30.8984 159.753L 29.789 159.753L 29.789 154.753L 29.0859 154.753L 25.5976 159.55L 25.5976 160.55L 28.8906 160.55zM 28.8906 159.75L 26.4258 159.75L 28.8906 156.418L 28.8906 159.75z"/>
<path style="stroke:none; fill-rule:evenodd; fill:#000000" d="M 30.664 133.148C 30.4844 131.894 29.6718 131.148 28.5117 131.148C 27.6758 131.148 26.9258 131.558 26.4765 132.238C 26.0078 132.98 25.7929 133.921 25.7929 135.312C 25.7929 136.593 25.9804 137.414 26.4297 138.093C 26.832 138.707 27.4922 139.043 28.3203 139.043C 29.7539 139.043 30.789 137.988 30.789 136.519C 30.789 135.128 29.8203 134.144 28.4492 134.144C 27.6953 134.144 27.1015 134.414 26.6914 134.941C 26.6992 133.011 27.3086 131.941 28.4101 131.941C 29.082 131.941 29.5508 132.378 29.7031 133.14L 30.664 133.148zM 28.3828 134.949C 29.3086 134.949 29.8867 135.582 29.8867 136.597C 29.8867 137.55 29.2344 138.246 28.3515 138.246C 27.457 138.246 26.7812 137.519 26.7812 136.543C 26.7812 135.601 27.4336 134.949 28.3828 134.949z"/>
<path style="stroke:none; fill-rule:evenodd; fill:#000000" d="M 29.5078 110.777C 30.2422 110.304 30.4844 109.918 30.4844 109.191C 30.4844 107.996 29.5664 107.152 28.2344 107.152C 26.9179 107.152 25.9844 107.992 25.9844 109.191C 25.9844 109.902 26.2344 110.289 26.9883 110.777C 26.1172 111.195 25.6836 111.832 25.6836 112.675C 25.6836 114.078 26.7304 115.046 28.2304 115.046C 29.7304 115.046 30.7812 114.078 30.7812 112.683C 30.7812 111.832 30.3633 111.195 29.5039 110.777L 29.5078 110.777zM 28.2383 107.949C 29.0586 107.949 29.5859 108.441 29.5859 109.214C 29.5859 109.953 29.0508 110.445 28.2383 110.445C 27.4297 110.445 26.8906 109.953 26.8906 109.203C 26.8906 108.441 27.4258 107.949 28.2383 107.949zM 28.2383 111.25C 29.2187 111.25 29.8867 111.851 29.8867 112.742C 29.8867 113.644 29.2187 114.246 28.2148 114.246C 27.2578 114.246 26.5898 113.636 26.5898 112.742C 26.5898 111.851 27.2578 111.25 28.2383 111.25z"/>
<path style="stroke:none; fill-rule:evenodd; fill:#000000" d="M 22.0898 85.8673L 22.0898 91.3473L 22.9883 91.3473L 22.9883 83.6483L 22.375 83.6483C 22.0468 84.8323 21.8359 84.9963 20.3945 85.1793L 20.3945 85.8633L 22.0898 85.8673z"/>
<path style="stroke:none; fill-rule:evenodd; fill:#000000" d="M 28.2383 83.6483C 27.5429 83.6483 26.9101 83.9453 26.5195 84.4453C 26.0351 85.1173 25.7929 86.1483 25.7929 87.5703C 25.7929 90.1643 26.6367 91.5433 28.2383 91.5433C 29.8203 91.5433 30.6875 90.1643 30.6875 87.6363C 30.6875 86.1403 30.457 85.1443 29.9609 84.4453C 29.5703 83.9333 28.9492 83.6483 28.2422 83.6483L 28.2383 83.6483zM 28.2383 84.4493C 29.2734 84.4493 29.7851 85.4883 29.7851 87.5503C 29.7851 89.7263 29.2851 90.7463 28.2148 90.7463C 27.2031 90.7463 26.6914 89.6833 26.6914 87.5823C 26.6914 85.4803 27.2031 84.4493 28.2383 84.4493z"/>
<path style="stroke:none; fill-rule:evenodd; fill:#000000" d="M 22.0898 62.2653L 22.0898 67.7463L 22.9883 67.7463L 22.9883 60.0463L 22.375 60.0463C 22.0468 61.2303 21.8359 61.3943 20.3945 61.5783L 20.3945 62.2613L 22.0898 62.2653z"/>
<path style="stroke:none; fill-rule:evenodd; fill:#000000" d="M 30.7344 66.8513L 26.7226 66.8513C 26.8164 66.2183 27.1601 65.8163 28.0976 65.2573L 29.1718 64.6683C 30.2344 64.0783 30.7851 63.2813 30.7851 62.3323C 30.7851 61.6873 30.5273 61.0893 30.0742 60.6713C 29.625 60.2573 29.0664 60.0623 28.3437 60.0623C 27.3789 60.0623 26.6562 60.4143 26.2383 61.0703C 25.9726 61.4883 25.8515 61.9683 25.832 62.7613L 26.7929 62.7613C 26.8242 62.2223 26.8906 61.8983 27.0195 61.6363C 27.2695 61.1563 27.7734 60.8633 28.3515 60.8633C 29.2265 60.8633 29.8828 61.4843 29.8828 62.3123C 29.8828 62.9213 29.5234 63.4453 28.8359 63.8393L 27.832 64.4063C 26.2148 65.3203 25.7461 66.0503 25.6562 67.7533L 30.7344 67.7533L 30.7344 66.8513z"/>
<path style="stroke:none; fill-rule:evenodd; fill:#000000" d="M 74.6875 55.0503L 76.2851 55.0503L 76.2851 47.1523L 74.6875 47.1523L 74.6875 55.0503z"/>
<path style="stroke:none; fill-rule:evenodd; fill:#000000" d="M 77.6875 49.2503L 77.6875 55.0463L 79.1875 55.0463L 79.1875 51.5823C 79.1875 50.8983 79.6718 50.4493 80.4101 50.4493C 81.0586 50.4493 81.3828 50.8003 81.3828 51.4843L 81.3828 55.0433L 82.8828 55.0433L 82.8828 51.1563C 82.8828 49.8783 82.1718 49.1483 80.9336 49.1483C 80.1484 49.1483 79.6211 49.4293 79.1875 50.0583L 79.1875 49.2463L 77.6875 49.2503z"/>
<path style="stroke:none; fill-rule:evenodd; fill:#000000" d="M 89.2226 51.4023C 89.1176 49.9963 88.1716 49.1523 86.7266 49.1523C 85 49.1523 83.9922 50.2813 83.9922 52.2423C 83.9922 54.1363 84.9883 55.2463 86.7026 55.2463C 88.1056 55.2463 89.0816 54.3943 89.2226 53.0313L 87.7856 53.0313C 87.5936 53.7653 87.2926 54.0463 86.7146 54.0463C 85.9526 54.0463 85.4922 53.3633 85.4922 52.2423C 85.4922 51.6993 85.5976 51.1833 85.7812 50.8433C 85.9496 50.5233 86.2856 50.3513 86.7106 50.3513C 87.3206 50.3513 87.6096 50.6403 87.7816 51.4023L 89.2226 51.4023z"/>
<path style="stroke:none; fill-rule:evenodd; fill:#000000" d="M 91.7886 49.2223L 90.2886 49.2223L 90.2886 55.0463L 91.7886 55.0463L 91.7886 49.2223zM 91.7886 47.1483L 90.2886 47.1483L 90.2886 48.4453L 91.7886 48.4453L 91.7886 47.1483z"/>
<path style="stroke:none; fill-rule:evenodd; fill:#000000" d="M 96.9886 55.0033L 98.4886 55.0033L 98.4886 47.1523L 96.9886 47.1523L 96.9886 49.9763C 96.6096 49.4143 96.0936 49.1523 95.3636 49.1523C 93.9606 49.1523 92.8906 50.4723 92.8906 52.2103C 92.8906 52.9883 93.1286 53.7773 93.5196 54.3323C 93.9216 54.8863 94.6406 55.2463 95.3596 55.2463C 96.0856 55.2463 96.6016 54.9803 96.9846 54.4063L 96.9886 55.0033zM 95.6876 50.4493C 96.4686 50.4493 96.9846 51.1643 96.9846 52.2263C 96.9846 53.2383 96.4566 53.9453 95.6876 53.9453C 94.9176 53.9453 94.3906 53.2343 94.3906 52.2073C 94.3906 51.1753 94.9176 50.4493 95.6876 50.4493z"/>
<path style="stroke:none; fill-rule:evenodd; fill:#000000" d="M 104.844 52.6483C 104.852 52.5193 104.852 52.4643 104.852 52.3903C 104.852 51.8083 104.766 51.2653 104.625 50.8553C 104.239 49.7963 103.301 49.1563 102.121 49.1563C 100.45 49.1563 99.4256 50.3473 99.4256 52.2813C 99.4256 54.1253 100.438 55.2533 102.09 55.2533C 103.395 55.2533 104.453 54.5313 104.786 53.4143L 103.297 53.4143C 103.118 53.8163 102.696 54.0543 102.145 54.0543C 101.715 54.0543 101.371 53.8863 101.153 53.5933C 101.016 53.3983 100.961 53.1603 100.938 52.6603L 104.844 52.6483zM 100.957 51.6483C 101.051 50.7853 101.43 50.3513 102.098 50.3513C 102.473 50.3513 102.821 50.5313 103.036 50.8243C 103.172 51.0353 103.239 51.2533 103.27 51.6443L 100.957 51.6483z"/>
<path style="stroke:none; fill-rule:evenodd; fill:#000000" d="M 105.891 49.2503L 105.891 55.0463L 107.391 55.0463L 107.391 51.5823C 107.391 50.8983 107.875 50.4493 108.614 50.4493C 109.262 50.4493 109.586 50.8003 109.586 51.4843L 109.586 55.0433L 111.086 55.0433L 111.086 51.1563C 111.086 49.8783 110.375 49.1483 109.137 49.1483C 108.352 49.1483 107.825 49.4293 107.391 50.0583L 107.391 49.2463L 105.891 49.2503z"/>
<path style="stroke:none; fill-rule:evenodd; fill:#000000" d="M 115.036 49.3513L 114.188 49.3513L 114.188 47.7813L 112.688 47.7813L 112.688 49.3513L 111.942 49.3513L 111.942 50.3513L 112.688 50.3513L 112.688 53.8943C 112.688 54.8003 113.168 55.2463 114.161 55.2463C 114.493 55.2463 114.762 55.2183 115.032 55.1323L 115.032 54.1213C 114.883 54.1363 114.793 54.1483 114.684 54.1483C 114.282 54.1483 114.184 54.0313 114.184 53.5153L 114.184 50.3513L 115.032 50.3513L 115.036 49.3513z"/>
<path style="stroke:none; fill-rule:evenodd; fill:#000000" d="M 121.043 54.8243C 120.766 54.5823 120.692 54.4213 120.692 54.1213L 120.692 50.9253C 120.692 49.7533 119.887 49.1563 118.313 49.1563C 116.743 49.1563 115.922 49.8163 115.829 51.1483L 117.27 51.1483C 117.344 50.5503 117.59 50.3553 118.329 50.3553C 118.903 50.3553 119.192 50.5463 119.192 50.9293C 119.192 51.1213 119.098 51.2893 118.938 51.3753C 118.739 51.4803 118.739 51.4803 118 51.5973L 117.403 51.7033C 116.258 51.8943 115.703 52.4803 115.703 53.5153C 115.703 54.0033 115.84 54.4103 116.106 54.6993C 116.434 55.0393 116.934 55.2423 117.45 55.2423C 118.086 55.2423 118.676 54.9683 119.2 54.4213C 119.2 54.7183 119.231 54.8243 119.375 54.9963L 121.051 54.9963L 121.043 54.8243zM 119.188 52.7033C 119.188 53.5623 118.762 54.0503 118.004 54.0503C 117.504 54.0503 117.192 53.7853 117.192 53.3633C 117.192 52.9183 117.426 52.7073 118.043 52.5783L 118.555 52.4843C 118.95 52.4143 119.012 52.3903 119.184 52.3043L 119.188 52.7033z"/>
<path style="stroke:none; fill-rule:evenodd; fill:#000000" d="M 122.09 55.0503L 123.59 55.0503L 123.59 47.1523L 122.09 47.1523L 122.09 55.0503z"/>
<path style="stroke:none; fill-rule:evenodd; fill:#000000" d="M 134.75 49.8473C 134.7 49.1683 134.559 48.7383 134.227 48.2933C 133.625 47.4963 132.661 47.0503 131.489 47.0503C 129.274 47.0503 127.899 48.6283 127.899 51.1603C 127.899 53.6683 129.262 55.2463 131.446 55.2463C 133.391 55.2463 134.692 54.1323 134.789 52.3593L 133.219 52.3593C 133.125 53.3043 132.489 53.8433 131.485 53.8433C 130.235 53.8433 129.504 52.8513 129.504 51.1683C 129.504 49.4643 130.27 48.4493 131.539 48.4493C 132.098 48.4493 132.563 48.6403 132.864 49.0113C 133.036 49.2223 133.121 49.4253 133.219 49.8393L 134.75 49.8473z"/>
<path style="stroke:none; fill-rule:evenodd; fill:#000000" d="M 138.426 49.1483C 136.668 49.1483 135.59 50.3083 135.59 52.1993C 135.59 54.0933 136.664 55.2463 138.438 55.2463C 140.188 55.2463 141.286 54.0863 141.286 52.2423C 141.286 50.2933 140.231 49.1523 138.426 49.1523L 138.426 49.1483zM 138.438 50.3513C 139.254 50.3513 139.786 51.0893 139.786 52.2223C 139.786 53.3003 139.235 54.0503 138.438 54.0503C 137.633 54.0503 137.09 53.3043 137.09 52.2033C 137.09 51.1053 137.629 50.3553 138.438 50.3553L 138.438 50.3513z"/>
<path style="stroke:none; fill-rule:evenodd; fill:#000000" d="M 142.489 49.2503L 142.489 55.0463L 143.989 55.0463L 143.989 51.5823C 143.989 50.8983 144.473 50.4493 145.211 50.4493C 145.86 50.4493 146.184 50.8003 146.184 51.4843L 146.184 55.0433L 147.684 55.0433L 147.684 51.1563C 147.684 49.8783 146.973 49.1483 145.735 49.1483C 144.95 49.1483 144.422 49.4293 143.989 50.0583L 143.989 49.2463L 142.489 49.2503z"/>
<path style="stroke:none; fill-rule:evenodd; fill:#000000" d="M 151.637 49.3513L 150.789 49.3513L 150.789 47.7813L 149.289 47.7813L 149.289 49.3513L 148.543 49.3513L 148.543 50.3513L 149.289 50.3513L 149.289 53.8943C 149.289 54.8003 149.77 55.2463 150.762 55.2463C 151.094 55.2463 151.364 55.2183 151.633 55.1323L 151.633 54.1213C 151.485 54.1363 151.395 54.1483 151.286 54.1483C 150.883 54.1483 150.786 54.0313 150.786 53.5153L 150.786 50.3513L 151.633 50.3513L 151.637 49.3513z"/>
<path style="stroke:none; fill-rule:evenodd; fill:#000000" d="M 157.645 52.6483C 157.653 52.5193 157.653 52.4643 157.653 52.3903C 157.653 51.8083 157.567 51.2653 157.426 50.8553C 157.039 49.7963 156.102 49.1563 154.922 49.1563C 153.25 49.1563 152.227 50.3473 152.227 52.2813C 152.227 54.1253 153.239 55.2533 154.891 55.2533C 156.196 55.2533 157.254 54.5313 157.586 53.4143L 156.098 53.4143C 155.918 53.8163 155.496 54.0543 154.946 54.0543C 154.516 54.0543 154.172 53.8863 153.953 53.5933C 153.817 53.3983 153.762 53.1603 153.739 52.6603L 157.645 52.6483zM 153.758 51.6483C 153.852 50.7853 154.231 50.3513 154.899 50.3513C 155.274 50.3513 155.621 50.5313 155.836 50.8243C 155.973 51.0353 156.039 51.2533 156.071 51.6443L 153.758 51.6483z"/>
<path style="stroke:none; fill-rule:evenodd; fill:#000000" d="M 161.821 52.1283L 163.719 49.2503L 161.907 49.2503L 160.969 50.9803L 160.02 49.2503L 158.207 49.2503L 160.106 52.1283L 158.164 55.0463L 159.977 55.0463L 160.969 53.2343L 161.95 55.0463L 163.762 55.0463L 161.821 52.1283z"/>
<path style="stroke:none; fill-rule:evenodd; fill:#000000" d="M 167.239 49.3513L 166.391 49.3513L 166.391 47.7813L 164.891 47.7813L 164.891 49.3513L 164.145 49.3513L 164.145 50.3513L 164.891 50.3513L 164.891 53.8943C 164.891 54.8003 165.371 55.2463 166.364 55.2463C 166.696 55.2463 166.965 55.2183 167.235 55.1323L 167.235 54.1213C 167.086 54.1363 166.996 54.1483 166.887 54.1483C 166.485 54.1483 166.387 54.0313 166.387 53.5153L 166.387 50.3513L 167.235 50.3513L 167.239 49.3513z"/>
<path style="stroke:none; fill-rule:evenodd; fill:#000000" d="M 170.391 53.4493L 168.793 53.4493L 168.793 55.0463L 170.391 55.0463L 170.391 53.4493zM 170.391 49.4493L 168.793 49.4493L 168.793 51.0463L 170.391 51.0463L 170.391 49.4493z"/>
<path style="stroke:none; fill-rule:evenodd; fill:#000000" d="M 176.688 51.9493L 178.551 51.9493C 179.254 51.9493 179.559 52.2263 179.559 52.8783C 179.559 52.9413 179.559 53.0503 179.551 53.1873C 179.543 53.3903 179.543 53.5823 179.543 53.6993C 179.543 54.4253 179.586 54.6643 179.793 55.0393L 181.496 55.0393L 181.496 54.7463C 181.25 54.6053 181.153 54.4453 181.153 54.0973C 181.11 51.7693 181.067 51.6603 180.063 51.2303C 180.946 50.8863 181.387 50.2463 181.387 49.2813C 181.387 48.6563 181.172 48.0823 180.797 47.6913C 180.446 47.3243 179.95 47.1483 179.286 47.1483L 175.09 47.1483L 175.09 55.0463L 176.688 55.0463L 176.688 51.9493zM 176.688 50.6483L 176.688 48.4493L 178.641 48.4493C 179.102 48.4493 179.297 48.4923 179.493 48.6683C 179.684 48.8393 179.782 49.1283 179.782 49.5233C 179.782 49.9253 179.676 50.2503 179.493 50.4253C 179.321 50.5863 179.106 50.6443 178.641 50.6443L 176.688 50.6483z"/>
<path style="stroke:none; fill-rule:evenodd; fill:#000000" d="M 187.645 54.8243C 187.368 54.5823 187.293 54.4213 187.293 54.1213L 187.293 50.9253C 187.293 49.7533 186.489 49.1563 184.914 49.1563C 183.344 49.1563 182.524 49.8163 182.43 51.1483L 183.871 51.1483C 183.946 50.5503 184.192 50.3553 184.93 50.3553C 185.504 50.3553 185.793 50.5463 185.793 50.9293C 185.793 51.1213 185.7 51.2893 185.539 51.3753C 185.34 51.4803 185.34 51.4803 184.602 51.5973L 184.004 51.7033C 182.86 51.8943 182.305 52.4803 182.305 53.5153C 182.305 54.0033 182.442 54.4103 182.707 54.6993C 183.036 55.0393 183.536 55.2423 184.051 55.2423C 184.688 55.2423 185.278 54.9683 185.801 54.4213C 185.801 54.7183 185.832 54.8243 185.977 54.9963L 187.653 54.9963L 187.645 54.8243zM 185.789 52.7033C 185.789 53.5623 185.364 54.0503 184.606 54.0503C 184.106 54.0503 183.793 53.7853 183.793 53.3633C 183.793 52.9183 184.028 52.7073 184.645 52.5783L 185.157 52.4843C 185.551 52.4143 185.614 52.3903 185.786 52.3043L 185.789 52.7033z"/>
<path style="stroke:none; fill-rule:evenodd; fill:#000000" d="M 191.239 49.3513L 190.391 49.3513L 190.391 47.7813L 188.891 47.7813L 188.891 49.3513L 188.145 49.3513L 188.145 50.3513L 188.891 50.3513L 188.891 53.8943C 188.891 54.8003 189.371 55.2463 190.364 55.2463C 190.696 55.2463 190.965 55.2183 191.235 55.1323L 191.235 54.1213C 191.086 54.1363 190.996 54.1483 190.887 54.1483C 190.485 54.1483 190.387 54.0313 190.387 53.5153L 190.387 50.3513L 191.235 50.3513L 191.239 49.3513z"/>
<path style="stroke:none; fill-rule:evenodd; fill:#000000" d="M 197.039 51.1013C 197.02 49.8863 196.067 49.1523 194.496 49.1523C 193.016 49.1523 192.094 49.8823 192.094 51.0583C 192.094 51.4373 192.211 51.7693 192.418 51.9883C 192.621 52.1873 192.805 52.2853 193.371 52.4643L 195.18 53.0153C 195.559 53.1283 195.688 53.2463 195.688 53.4803C 195.688 53.8283 195.27 54.0393 194.567 54.0393C 194.18 54.0393 193.868 53.9723 193.672 53.8513C 193.512 53.7463 193.446 53.6363 193.383 53.3473L 191.907 53.3473C 191.95 54.5863 192.883 55.2423 194.649 55.2423C 195.453 55.2423 196.067 55.0743 196.5 54.7343C 196.93 54.3983 197.188 53.8673 197.188 53.3043C 197.188 52.5623 196.809 52.0863 196.039 51.8633L 194.121 51.3243C 193.7 51.1993 193.594 51.1133 193.594 50.8783C 193.594 50.5623 193.942 50.3513 194.473 50.3513C 195.2 50.3513 195.559 50.5933 195.571 51.1013L 197.039 51.1013z"/>
<path style="stroke:none; fill-rule:evenodd; fill:#ffffff" d="M 66.0351 207.5L 86.8206 207.5L 86.8206 89.1873L 66.0351 89.1873L 66.0351 207.5z"/>
<path style="stroke:#ffffff; stroke-width:0.0; fill:none" d="M 66.0351 207.5L 86.8206 207.5L 86.8206 89.1873L 66.0351 89.1873L 66.0351 207.5z"/>
<path style="stroke:#ffffff; stroke-width:1.9133; fill:none" d="M 66.0351 207.5L 86.8206 207.5L 86.8206 89.1873L 66.0351 89.1873L 66.0351 207.5z"/>
<path style="stroke:none; fill-rule:evenodd; fill:#ffffff" d="M 163.965 207.5L 184.75 207.5L 184.75 112.769L 163.965 112.769L 163.965 207.5z"/>
<path style="stroke:#ffffff; stroke-width:0.0; fill:none" d="M 163.965 207.5L 184.75 207.5L 184.75 112.769L 163.965 112.769L 163.965 207.5z"/>
<path style="stroke:#ffffff; stroke-width:1.9133; fill:none" d="M 163.965 207.5L 184.75 207.5L 184.75 112.769L 163.965 112.769L 163.965 207.5z"/>
<path style="stroke:#000000; stroke-width:1.9133; fill:none" d="M 66.0351 207.5L 86.8206 207.5L 86.8206 89.1873L 66.0351 89.1873L 66.0351 207.5z"/>
<path style="stroke:#000000; stroke-width:1.9133; fill:none" d="M 163.965 207.5L 184.75 207.5L 184.75 112.769L 163.965 112.769L 163.965 207.5z"/>
<path style="stroke:none; fill-rule:evenodd; fill:#000000" d="M 86.8206 207.5L 107.606 207.5L 107.606 118.765L 86.8206 118.765L 86.8206 207.5z"/>
<path style="stroke:#000000; stroke-width:0.0; fill:none" d="M 86.8206 207.5L 107.606 207.5L 107.606 118.765L 86.8206 118.765L 86.8206 207.5z"/>
<path style="stroke:#000000; stroke-width:1.9133; fill:none" d="M 86.8206 207.5L 107.606 207.5L 107.606 118.765L 86.8206 118.765L 86.8206 207.5z"/>
<path style="stroke:none; fill-rule:evenodd; fill:#000000" d="M 184.75 207.5L 205.536 207.5L 205.536 89.1873L 184.75 89.1873L 184.75 207.5z"/>
<path style="stroke:#000000; stroke-width:0.0; fill:none" d="M 184.75 207.5L 205.536 207.5L 205.536 89.1873L 184.75 89.1873L 184.75 207.5z"/>
<path style="stroke:#000000; stroke-width:1.9133; fill:none" d="M 184.75 207.5L 205.536 207.5L 205.536 89.1873L 184.75 89.1873L 184.75 207.5z"/>
<path style="stroke:#000000; stroke-width:1.9133; fill:none" d="M 86.8206 207.5L 107.606 207.5L 107.606 118.765L 86.8206 118.765L 86.8206 207.5z"/>
<path style="stroke:#000000; stroke-width:1.9133; fill:none" d="M 184.75 207.5L 205.536 207.5L 205.536 89.1873L 184.75 89.1873L 184.75 207.5z"/>
<path style="stroke:#000000; stroke-width:1.9133; fill:none" d="M 38.0547 207.5L 233.516 207.5L 233.516 65.6013L 38.0547 65.6013L 38.0547 207.5z"/>
<path style="stroke:none; fill-rule:evenodd; fill:#ffffff" d="M 85.2226 38.0193L 167.961 38.0193L 167.961 10.0433L 85.2226 10.0433L 85.2226 38.0193z"/>
<path style="stroke:#ffffff; stroke-width:0.0; fill:none" d="M 85.2226 38.0193L 167.961 38.0193L 167.961 10.0433L 85.2226 10.0433L 85.2226 38.0193z"/>
<path style="stroke:#ffffff; stroke-width:1.9133; fill:none" d="M 85.2226 38.0193L 167.961 38.0193L 167.961 10.0433L 85.2226 10.0433L 85.2226 38.0193z"/>
<path style="stroke:#000000; stroke-width:1.9133; fill:none" d="M 85.2734 37.5313L 172.688 37.5313L 172.688 10.0273L 85.2734 10.0273L 85.2734 37.5313z"/>
<path style="stroke:none; fill-rule:evenodd; fill:#ffffff" d="M 90.4176 24.0313L 111.602 24.0313L 111.602 12.8393L 90.4176 12.8393L 90.4176 24.0313z"/>
<path style="stroke:#ffffff; stroke-width:0.0; fill:none" d="M 90.4176 24.0313L 111.602 24.0313L 111.602 12.8393L 90.4176 12.8393L 90.4176 24.0313z"/>
<path style="stroke:#ffffff; stroke-width:1.9133; fill:none" d="M 90.4176 24.0313L 111.602 24.0313L 111.602 12.8393L 90.4176 12.8393L 90.4176 24.0313z"/>
<path style="stroke:#000000; stroke-width:1.9133; fill:none" d="M 90.4176 24.0313L 111.602 24.0313L 111.602 12.8393L 90.4176 12.8393L 90.4176 24.0313z"/>
<path style="stroke:none; fill-rule:evenodd; fill:#000000" d="M 120.329 13.8513C 118.403 13.8513 117.09 15.2613 117.09 17.3513C 117.09 19.4373 118.399 20.8473 120.34 20.8473C 121.153 20.8473 121.879 20.6013 122.426 20.1443C 123.153 19.5313 123.586 18.4963 123.586 17.4063C 123.586 15.2573 122.305 13.8513 120.329 13.8513zM 120.329 14.5503C 121.762 14.5503 122.684 15.6683 122.684 17.3863C 122.684 19.0273 121.735 20.1483 120.336 20.1483C 118.934 20.1483 117.989 19.0313 117.989 17.3513C 117.989 15.6713 118.93 14.5543 120.329 14.5543L 120.329 14.5503z"/>
<path style="stroke:none; fill-rule:evenodd; fill:#000000" d="M 124.59 15.7893L 124.59 20.6483L 125.387 20.6483L 125.387 18.1173C 125.387 17.4213 125.559 16.9643 125.93 16.6953C 126.168 16.5193 126.399 16.4643 126.934 16.4573L 126.934 15.6873C 126.805 15.6713 126.739 15.6643 126.633 15.6643C 126.125 15.6643 125.739 15.9603 125.286 16.6833L 125.286 15.8043L 124.59 15.7893z"/>
<path style="stroke:none; fill-rule:evenodd; fill:#000000" d="M 128.391 15.8513L 127.594 15.8513L 127.594 20.6483L 128.391 20.6483L 128.391 15.8513zM 128.391 13.9493L 127.594 13.9493L 127.594 14.9103L 128.391 14.9103L 128.391 13.9493z"/>
<path style="stroke:none; fill-rule:evenodd; fill:#000000" d="M 132.891 15.8513L 132.891 16.5313C 132.508 15.9333 132.043 15.6523 131.43 15.6523C 130.215 15.6523 129.395 16.7223 129.395 18.2963C 129.395 19.0893 129.602 19.7383 129.993 20.1993C 130.344 20.6053 130.852 20.8433 131.352 20.8433C 131.95 20.8433 132.364 20.5893 132.793 19.9923L 132.793 20.2423C 132.793 20.9063 132.715 21.3083 132.52 21.5823C 132.321 21.8713 131.926 22.0393 131.461 22.0393C 131.114 22.0393 130.805 21.9453 130.594 21.7693C 130.422 21.6253 130.348 21.4923 130.301 21.1913L 129.524 21.1913C 129.606 22.0973 130.313 22.6363 131.446 22.6363C 132.161 22.6363 132.778 22.4103 133.09 22.0233C 133.457 21.5863 133.594 20.9803 133.594 19.8513L 133.594 15.8393L 132.891 15.8513zM 131.496 16.3513C 132.309 16.3513 132.786 17.0583 132.786 18.2773C 132.786 19.4373 132.301 20.1483 131.504 20.1483C 130.684 20.1483 130.188 19.4333 130.188 18.2503C 130.188 17.0783 130.692 16.3513 131.496 16.3513z"/>
<path style="stroke:none; fill-rule:evenodd; fill:#000000" d="M 135.59 15.8513L 134.793 15.8513L 134.793 20.6483L 135.59 20.6483L 135.59 15.8513zM 135.59 13.9493L 134.793 13.9493L 134.793 14.9103L 135.59 14.9103L 135.59 13.9493z"/>
<path style="stroke:none; fill-rule:evenodd; fill:#000000" d="M 136.789 15.7893L 136.789 20.6483L 137.586 20.6483L 137.586 17.9843C 137.586 17.0003 138.098 16.3513 138.891 16.3513C 139.496 16.3513 139.883 16.7183 139.883 17.3003L 139.883 20.6483L 140.68 20.6483L 140.68 16.9763C 140.68 16.1713 140.071 15.6523 139.121 15.6523C 138.391 15.6523 137.918 15.9293 137.485 16.6053L 137.485 15.7933L 136.789 15.7893z"/>
<path style="stroke:none; fill-rule:evenodd; fill:#000000" d="M 146.207 20.1993C 146.137 20.2463 146.102 20.2463 146.063 20.2463C 145.825 20.2463 145.696 20.1093 145.696 19.8633L 145.696 16.9843C 145.696 16.1173 145.063 15.6483 143.856 15.6483C 143.149 15.6483 142.559 15.8553 142.231 16.2223C 142.008 16.4763 141.914 16.7573 141.895 17.2503L 142.672 17.2503C 142.735 16.6253 143.086 16.3433 143.809 16.3433C 144.5 16.3433 144.891 16.6013 144.891 17.0663L 144.891 17.2693C 144.891 17.5933 144.7 17.7303 144.09 17.8043C 143.004 17.9413 142.836 17.9803 142.543 18.1013C 141.985 18.3323 141.696 18.7693 141.696 19.3983C 141.696 20.2773 142.297 20.8363 143.27 20.8363C 143.871 20.8363 144.36 20.6283 144.899 20.1403C 144.953 20.6173 145.192 20.8363 145.684 20.8363C 145.836 20.8363 145.957 20.8203 146.203 20.7573L 146.207 20.1993zM 144.891 19.1173C 144.891 19.3673 144.817 19.5193 144.586 19.7263C 144.274 20.0033 143.895 20.1483 143.442 20.1483C 142.844 20.1483 142.493 19.8713 142.493 19.3943C 142.493 18.9023 142.832 18.6483 143.653 18.5313C 144.465 18.4253 144.629 18.3903 144.887 18.2693L 144.891 19.1173z"/>
<path style="stroke:none; fill-rule:evenodd; fill:#000000" d="M 146.989 20.6483L 147.786 20.6483L 147.786 13.9493L 146.989 13.9493L 146.989 20.6483z"/>
<path style="stroke:none; fill-rule:evenodd; fill:#000000" d="M 90.4176 35.2223L 111.602 35.2223L 111.602 24.0313L 90.4176 24.0313L 90.4176 35.2223z"/>
<path style="stroke:#000000; stroke-width:0.0; fill:none" d="M 90.4176 35.2223L 111.602 35.2223L 111.602 24.0313L 90.4176 24.0313L 90.4176 35.2223z"/>
<path style="stroke:#000000; stroke-width:1.9133; fill:none" d="M 90.4176 35.2223L 111.602 35.2223L 111.602 24.0313L 90.4176 24.0313L 90.4176 35.2223z"/>
<path style="stroke:#000000; stroke-width:1.9133; fill:none" d="M 90.4176 35.2223L 111.602 35.2223L 111.602 24.0313L 90.4176 24.0313L 90.4176 35.2223z"/>
<path style="stroke:none; fill-rule:evenodd; fill:#000000" d="M 118.489 28.9493L 120.688 28.9493C 121.45 28.9493 121.789 29.3163 121.789 30.1483L 121.789 30.7463C 121.789 31.1603 121.86 31.5663 121.981 31.8433L 123.024 31.8433L 123.024 31.6323C 122.676 31.4143 122.606 31.1753 122.59 30.2853C 122.582 29.1833 122.414 28.8513 121.715 28.5433C 122.477 28.1793 122.786 27.7073 122.786 26.9453C 122.786 25.7893 122.051 25.1523 120.719 25.1523L 117.59 25.1523L 117.59 31.8513L 118.489 31.8513L 118.489 28.9493zM 118.5 28.2103L 118.5 25.9063L 120.567 25.9063C 121.043 25.9063 121.321 25.9763 121.532 26.1603C 121.758 26.3513 121.879 26.6523 121.879 27.0583C 121.879 27.8473 121.477 28.2073 120.567 28.2073L 118.5 28.2103z"/>
<path style="stroke:none; fill-rule:evenodd; fill:#000000" d="M 128.09 29.6483C 128.09 28.9183 128.036 28.4763 127.903 28.1173C 127.594 27.3323 126.868 26.8513 125.977 26.8513C 124.653 26.8513 123.797 27.8863 123.797 29.4763C 123.797 31.0663 124.625 32.0463 125.965 32.0463C 127.059 32.0463 127.817 31.4293 128.008 30.3863L 127.243 30.3863C 127.036 31.0153 126.606 31.3473 125.996 31.3473C 125.516 31.3473 125.106 31.1213 124.852 30.7073C 124.672 30.4253 124.61 30.1403 124.598 29.6523L 128.09 29.6483zM 124.575 29.0743C 124.637 28.1833 125.18 27.6053 125.953 27.6053C 126.707 27.6053 127.286 28.2303 127.286 29.0193C 127.286 29.0353 127.286 29.0543 127.278 29.0743L 124.575 29.0743z"/>
<path style="stroke:none; fill-rule:evenodd; fill:#000000" d="M 132.918 28.6523C 132.883 28.1563 132.782 27.8363 132.598 27.5543C 132.27 27.1173 131.692 26.8553 131.024 26.8553C 129.735 26.8553 128.891 27.8903 128.891 29.5003C 128.891 31.0623 129.715 32.0503 131.016 32.0503C 132.161 32.0503 132.883 31.3673 132.973 30.1993L 132.207 30.1993C 132.082 30.9683 131.688 31.3513 131.039 31.3513C 130.2 31.3513 129.696 30.6563 129.696 29.5003C 129.696 28.2813 130.188 27.5543 131.02 27.5543C 131.661 27.5543 132.063 27.9493 132.153 28.6523L 132.918 28.6523z"/>
<path style="stroke:none; fill-rule:evenodd; fill:#000000" d="M 135.68 26.8513C 134.317 26.8513 133.493 27.8203 133.493 29.4493C 133.493 31.0743 134.309 32.0463 135.692 32.0463C 137.055 32.0463 137.891 31.0783 137.891 29.4843C 137.891 27.8123 137.086 26.8473 135.684 26.8473L 135.68 26.8513zM 135.688 27.5503C 136.563 27.5503 137.086 28.2653 137.086 29.4763C 137.086 30.6213 136.547 31.3473 135.688 31.3473C 134.821 31.3473 134.289 30.6323 134.289 29.4493C 134.289 28.2773 134.821 27.5503 135.688 27.5503z"/>
<path style="stroke:none; fill-rule:evenodd; fill:#000000" d="M 138.891 26.9883L 138.891 31.8473L 139.688 31.8473L 139.688 28.8123C 139.688 28.1133 140.188 27.5503 140.805 27.5503C 141.368 27.5503 141.684 27.8983 141.684 28.5193L 141.684 31.8473L 142.481 31.8473L 142.481 28.8123C 142.481 28.1133 142.981 27.5503 143.598 27.5503C 144.149 27.5503 144.477 27.9103 144.477 28.5193L 144.477 31.8473L 145.274 31.8473L 145.274 28.2033C 145.274 27.3323 144.774 26.8513 143.868 26.8513C 143.219 26.8513 142.832 27.0543 142.379 27.6283C 142.094 27.0863 141.703 26.8513 141.075 26.8513C 140.43 26.8513 140 27.0893 139.586 27.6753L 139.586 26.9923L 138.891 26.9883z"/>
<path style="stroke:none; fill-rule:evenodd; fill:#000000" d="M 146.391 25.1483L 146.391 31.8473L 147.09 31.8473L 147.09 31.2343C 147.453 31.7853 147.938 32.0463 148.606 32.0463C 149.864 32.0463 150.688 31.0033 150.688 29.3943C 150.688 27.8243 149.911 26.8513 148.661 26.8513C 148.008 26.8513 147.547 27.1133 147.192 27.6873L 147.192 25.1563L 146.391 25.1483zM 148.493 27.6133C 149.344 27.6133 149.899 28.3553 149.899 29.5033C 149.899 30.5973 149.332 31.3393 148.493 31.3393C 147.684 31.3393 147.153 30.6053 147.153 29.4763C 147.153 28.3473 147.684 27.6133 148.493 27.6133z"/>
<path style="stroke:none; fill-rule:evenodd; fill:#000000" d="M 152.391 27.0503L 151.594 27.0503L 151.594 31.8473L 152.391 31.8473L 152.391 27.0503zM 152.391 25.1483L 151.594 25.1483L 151.594 26.1093L 152.391 26.1093L 152.391 25.1483z"/>
<path style="stroke:none; fill-rule:evenodd; fill:#000000" d="M 153.688 26.9883L 153.688 31.8473L 154.485 31.8473L 154.485 29.1833C 154.485 28.1993 154.996 27.5503 155.789 27.5503C 156.395 27.5503 156.782 27.9183 156.782 28.5003L 156.782 31.8473L 157.579 31.8473L 157.579 28.1753C 157.579 27.3713 156.969 26.8513 156.02 26.8513C 155.289 26.8513 154.817 27.1283 154.383 27.8043L 154.383 26.9923L 153.688 26.9883z"/>
<path style="stroke:none; fill-rule:evenodd; fill:#000000" d="M 162.891 29.6483C 162.891 28.9183 162.836 28.4763 162.703 28.1173C 162.395 27.3323 161.668 26.8513 160.778 26.8513C 159.453 26.8513 158.598 27.8863 158.598 29.4763C 158.598 31.0663 159.426 32.0463 160.766 32.0463C 161.86 32.0463 162.618 31.4293 162.809 30.3863L 162.043 30.3863C 161.836 31.0153 161.407 31.3473 160.797 31.3473C 160.317 31.3473 159.907 31.1213 159.653 30.7073C 159.473 30.4253 159.411 30.1403 159.399 29.6523L 162.891 29.6483zM 159.375 29.0743C 159.438 28.1833 159.981 27.6053 160.754 27.6053C 161.508 27.6053 162.086 28.2303 162.086 29.0193C 162.086 29.0353 162.086 29.0543 162.079 29.0743L 159.375 29.0743z"/>
<path style="stroke:none; fill-rule:evenodd; fill:#000000" d="M 167.891 25.1483L 167.094 25.1483L 167.094 27.6363C 166.77 27.1213 166.246 26.8513 165.594 26.8513C 164.329 26.8513 163.496 27.8593 163.496 29.4023C 163.496 31.0393 164.309 32.0463 165.629 32.0463C 166.301 32.0463 166.77 31.8043 167.192 31.2143L 167.192 31.8473L 167.891 31.8473L 167.891 25.1483zM 165.711 27.5503C 166.551 27.5503 167.086 28.2963 167.086 29.4683C 167.086 30.5973 166.543 31.3473 165.723 31.3473C 164.864 31.3473 164.293 30.5893 164.293 29.4493C 164.293 28.3083 164.864 27.5503 165.715 27.5503L 165.711 27.5503z"/>
<path style="stroke:none; fill-rule:evenodd; fill:#000000" d="M 6.4883 175.789C 5.8086 175.839 5.3789 175.98 4.9336 176.312C 4.1367 176.914 3.6914 177.878 3.6914 179.05C 3.6914 181.265 5.2695 182.64 7.8008 182.64C 10.3086 182.64 11.8867 181.277 11.8867 179.093C 11.8867 177.148 10.7734 175.847 9 175.75L 9 177.32C 9.9453 177.414 10.4844 178.05 10.4844 179.054C 10.4844 180.304 9.4922 181.035 7.8086 181.035C 6.1054 181.035 5.0898 180.269 5.0898 179C 5.0898 178.441 5.2812 177.976 5.6523 177.675C 5.8633 177.503 6.0664 177.418 6.4804 177.32L 6.4883 175.789z"/>
<path style="stroke:none; fill-rule:evenodd; fill:#000000" d="M 5.789 172.113C 5.789 173.871 6.9492 174.949 8.8398 174.949C 10.7344 174.949 11.8867 173.875 11.8867 172.101C 11.8867 170.351 10.7265 169.253 8.8828 169.253C 6.9336 169.253 5.7929 170.308 5.7929 172.113L 5.789 172.113zM 6.9883 172.101C 6.9883 171.285 7.7265 170.753 8.8594 170.753C 9.9375 170.753 10.6875 171.304 10.6875 172.101C 10.6875 172.906 9.9414 173.449 8.8398 173.449C 7.7422 173.449 6.9922 172.91 6.9922 172.101L 6.9883 172.101z"/>
<path style="stroke:none; fill-rule:evenodd; fill:#000000" d="M 5.8906 168.05L 11.6875 168.05L 11.6875 166.55L 8.6094 166.55C 7.7304 166.55 7.2929 166.113 7.2929 165.234C 7.2929 165.074 7.2968 164.968 7.3086 164.765L 5.7929 164.765C 5.7929 164.851 5.7929 164.902 5.7929 164.945C 5.7929 165.628 6.2344 166.23 7.0078 166.554L 5.8945 166.554L 5.8906 168.05z"/>
<path style="stroke:none; fill-rule:evenodd; fill:#000000" d="M 5.8906 163.851L 11.6875 163.851L 11.6875 162.351L 8.6094 162.351C 7.7304 162.351 7.2929 161.914 7.2929 161.035C 7.2929 160.875 7.2968 160.769 7.3086 160.566L 5.7929 160.566C 5.7929 160.652 5.7929 160.703 5.7929 160.746C 5.7929 161.429 6.2344 162.031 7.0078 162.355L 5.8945 162.355L 5.8906 163.851z"/>
<path style="stroke:none; fill-rule:evenodd; fill:#000000" d="M 9.289 154.695C 9.1601 154.687 9.1054 154.687 9.0312 154.687C 8.4492 154.687 7.9062 154.773 7.4961 154.914C 6.4375 155.3 5.7968 156.238 5.7968 157.418C 5.7968 159.089 6.9883 160.113 8.9218 160.113C 10.7656 160.113 11.8945 159.101 11.8945 157.449C 11.8945 156.144 11.1718 155.086 10.0547 154.753L 10.0547 156.242C 10.457 156.421 10.6953 156.843 10.6953 157.394C 10.6953 157.824 10.5273 158.168 10.2344 158.386C 10.039 158.523 9.8008 158.578 9.3008 158.601L 9.289 154.695zM 8.289 158.582C 7.4258 158.488 6.9922 158.109 6.9922 157.441C 6.9922 157.066 7.1718 156.718 7.4648 156.503C 7.6758 156.367 7.8945 156.3 8.2851 156.269L 8.289 158.582z"/>
<path style="stroke:none; fill-rule:evenodd; fill:#000000" d="M 8.039 148.714C 6.6328 148.82 5.789 149.765 5.789 151.21C 5.789 152.937 6.9179 153.945 8.8789 153.945C 10.7734 153.945 11.8828 152.949 11.8828 151.234C 11.8828 149.832 11.0312 148.855 9.6679 148.714L 9.6679 150.152C 10.4023 150.343 10.6836 150.644 10.6836 151.222C 10.6836 151.984 10 152.445 8.8789 152.445C 8.3359 152.445 7.8203 152.339 7.4804 152.156C 7.1601 151.988 6.9883 151.652 6.9883 151.226C 6.9883 150.617 7.2773 150.328 8.039 150.156L 8.039 148.714z"/>
<path style="stroke:none; fill-rule:evenodd; fill:#000000" d="M 5.9883 145.101L 5.9883 145.949L 4.4179 145.949L 4.4179 147.449L 5.9883 147.449L 5.9883 148.195L 6.9883 148.195L 6.9883 147.449L 10.5312 147.449C 11.4375 147.449 11.8828 146.968 11.8828 145.976C 11.8828 145.644 11.8554 145.375 11.7695 145.105L 10.7578 145.105C 10.7734 145.253 10.7851 145.343 10.7851 145.453C 10.7851 145.855 10.6679 145.953 10.1523 145.953L 6.9883 145.953L 6.9883 145.105L 5.9883 145.101z"/>
<path style="stroke:none; fill-rule:evenodd; fill:#000000" d="M 8.5898 139.25L 8.5898 137.386C 8.5898 136.683 8.8672 136.378 9.5195 136.378C 9.582 136.378 9.6914 136.378 9.8281 136.386C 10.0312 136.394 10.2226 136.394 10.3398 136.394C 11.0664 136.394 11.3047 136.351 11.6797 136.144L 11.6797 134.441L 11.3867 134.441C 11.2461 134.687 11.0859 134.785 10.7383 134.785C 8.4101 134.828 8.3008 134.871 7.8711 135.875C 7.5273 134.992 6.8867 134.55 5.9218 134.55C 5.2968 134.55 4.7226 134.765 4.332 135.14C 3.9648 135.492 3.789 135.988 3.789 136.652L 3.789 140.847L 11.6875 140.847L 11.6875 139.25L 8.5898 139.25zM 7.289 139.25L 5.0898 139.25L 5.0898 137.296C 5.0898 136.836 5.1328 136.64 5.3086 136.445C 5.4804 136.253 5.7695 136.156 6.164 136.156C 6.5664 136.156 6.8906 136.261 7.0664 136.445C 7.2265 136.617 7.2851 136.832 7.2851 137.296L 7.289 139.25z"/>
<path style="stroke:none; fill-rule:evenodd; fill:#000000" d="M 9.289 128.394C 9.1601 128.386 9.1054 128.386 9.0312 128.386C 8.4492 128.386 7.9062 128.472 7.4961 128.613C 6.4375 129 5.7968 129.937 5.7968 131.117C 5.7968 132.789 6.9883 133.812 8.9218 133.812C 10.7656 133.812 11.8945 132.8 11.8945 131.148C 11.8945 129.843 11.1718 128.785 10.0547 128.453L 10.0547 129.941C 10.457 130.121 10.6953 130.543 10.6953 131.093C 10.6953 131.523 10.5273 131.867 10.2344 132.086C 10.039 132.222 9.8008 132.277 9.3008 132.3L 9.289 128.394zM 8.289 132.281C 7.4258 132.187 6.9922 131.808 6.9922 131.14C 6.9922 130.765 7.1718 130.418 7.4648 130.203C 7.6758 130.066 7.8945 130 8.2851 129.968L 8.289 132.281z"/>
<path style="stroke:none; fill-rule:evenodd; fill:#000000" d="M 7.7383 122.601C 6.5234 122.621 5.789 123.574 5.789 125.144C 5.789 126.625 6.5195 127.546 7.6953 127.546C 8.0742 127.546 8.4062 127.429 8.625 127.222C 8.8242 127.019 8.9218 126.836 9.1015 126.269L 9.6523 124.46C 9.7656 124.082 9.8828 123.953 10.1172 123.953C 10.4648 123.953 10.6758 124.371 10.6758 125.074C 10.6758 125.46 10.6094 125.773 10.4883 125.968C 10.3828 126.128 10.2734 126.195 9.9844 126.257L 9.9844 127.734C 11.2226 127.691 11.8789 126.757 11.8789 124.992C 11.8789 124.187 11.7109 123.574 11.3711 123.14C 11.0351 122.71 10.5039 122.453 9.9414 122.453C 9.1992 122.453 8.7226 122.832 8.5 123.601L 7.9609 125.519C 7.8359 125.941 7.75 126.046 7.5156 126.046C 7.1992 126.046 6.9883 125.699 6.9883 125.168C 6.9883 124.441 7.2304 124.082 7.7383 124.07L 7.7383 122.601z"/>
<path style="stroke:none; fill-rule:evenodd; fill:#000000" d="M 5.8867 119.949L 5.8867 121.449L 14.0859 121.449L 14.0859 119.949L 10.9961 119.949C 11.6679 119.582 11.9844 119.058 11.9844 118.316C 11.9844 116.898 10.6679 115.855 8.8906 115.855C 8.0703 115.855 7.2461 116.093 6.707 116.484C 6.1562 116.875 5.789 117.605 5.789 118.312C 5.789 119.05 6.1015 119.574 6.75 119.945L 5.8867 119.949zM 7.0898 118.648C 7.0898 117.867 7.8203 117.351 8.914 117.351C 9.9531 117.351 10.6836 117.89 10.6836 118.648C 10.6836 119.418 9.9648 119.945 8.8906 119.945C 7.8203 119.945 7.0859 119.418 7.0859 118.648L 7.0898 118.648z"/>
<path style="stroke:none; fill-rule:evenodd; fill:#000000" d="M 5.789 112.21C 5.789 113.968 6.9492 115.046 8.8398 115.046C 10.7344 115.046 11.8867 113.972 11.8867 112.199C 11.8867 110.449 10.7265 109.351 8.8828 109.351C 6.9336 109.351 5.7929 110.406 5.7929 112.21L 5.789 112.21zM 6.9883 112.199C 6.9883 111.382 7.7265 110.851 8.8594 110.851C 9.9375 110.851 10.6875 111.402 10.6875 112.199C 10.6875 113.003 9.9414 113.546 8.8398 113.546C 7.7422 113.546 6.9922 113.007 6.9922 112.199L 6.9883 112.199z"/>
<path style="stroke:none; fill-rule:evenodd; fill:#000000" d="M 5.8906 108.148L 11.6875 108.148L 11.6875 106.648L 8.2226 106.648C 7.539 106.648 7.0898 106.164 7.0898 105.425C 7.0898 104.777 7.4414 104.453 8.125 104.453L 11.6836 104.453L 11.6836 102.953L 7.7968 102.953C 6.5195 102.953 5.789 103.664 5.789 104.902C 5.789 105.687 6.0703 106.214 6.6992 106.648L 5.8867 106.648L 5.8906 108.148z"/>
<path style="stroke:none; fill-rule:evenodd; fill:#000000" d="M 7.7383 96.8003C 6.5234 96.8203 5.789 97.7733 5.789 99.3433C 5.789 100.824 6.5195 101.746 7.6953 101.746C 8.0742 101.746 8.4062 101.628 8.625 101.421C 8.8242 101.218 8.9218 101.035 9.1015 100.468L 9.6523 98.6603C 9.7656 98.2813 9.8828 98.1523 10.1172 98.1523C 10.4648 98.1523 10.6758 98.5703 10.6758 99.2733C 10.6758 99.6603 10.6094 99.9723 10.4883 100.168C 10.3828 100.328 10.2734 100.394 9.9844 100.457L 9.9844 101.933C 11.2226 101.89 11.8789 100.957 11.8789 99.1913C 11.8789 98.3863 11.7109 97.7733 11.3711 97.3393C 11.0351 96.9103 10.5039 96.6523 9.9414 96.6523C 9.1992 96.6523 8.7226 97.0313 8.5 97.8003L 7.9609 99.7183C 7.8359 100.14 7.75 100.246 7.5156 100.246C 7.1992 100.246 6.9883 99.8983 6.9883 99.3673C 6.9883 98.6403 7.2304 98.2813 7.7383 98.2693L 7.7383 96.8003z"/>
<path style="stroke:none; fill-rule:evenodd; fill:#000000" d="M 9.289 90.5933C 9.1601 90.5863 9.1054 90.5863 9.0312 90.5863C 8.4492 90.5863 7.9062 90.6713 7.4961 90.8123C 6.4375 91.1993 5.7968 92.1363 5.7968 93.3163C 5.7968 94.9883 6.9883 96.0113 8.9218 96.0113C 10.7656 96.0113 11.8945 95.0003 11.8945 93.3473C 11.8945 92.0433 11.1718 90.9843 10.0547 90.6523L 10.0547 92.1403C 10.457 92.3203 10.6953 92.7423 10.6953 93.2933C 10.6953 93.7223 10.5273 94.0663 10.2344 94.2853C 10.039 94.4213 9.8008 94.4763 9.3008 94.5003L 9.289 90.5933zM 8.289 94.4803C 7.4258 94.3863 6.9922 94.0073 6.9922 93.3393C 6.9922 92.9643 7.1718 92.6173 7.4648 92.4023C 7.6758 92.2653 7.8945 92.1993 8.2851 92.1683L 8.289 94.4803z"/>
<path style="stroke:none; fill-rule:evenodd; fill:#000000" d="M 7.7383 84.8003C 6.5234 84.8203 5.789 85.7733 5.789 87.3433C 5.789 88.8243 6.5195 89.7463 7.6953 89.7463C 8.0742 89.7463 8.4062 89.6283 8.625 89.4213C 8.8242 89.2183 8.9218 89.0353 9.1015 88.4683L 9.6523 86.6603C 9.7656 86.2813 9.8828 86.1523 10.1172 86.1523C 10.4648 86.1523 10.6758 86.5703 10.6758 87.2733C 10.6758 87.6603 10.6094 87.9723 10.4883 88.1683C 10.3828 88.3283 10.2734 88.3943 9.9844 88.4573L 9.9844 89.9333C 11.2226 89.8903 11.8789 88.9573 11.8789 87.1913C 11.8789 86.3863 11.7109 85.7733 11.3711 85.3393C 11.0351 84.9103 10.5039 84.6523 9.9414 84.6523C 9.1992 84.6523 8.7226 85.0313 8.5 85.8003L 7.9609 87.7183C 7.8359 88.1403 7.75 88.2463 7.5156 88.2463C 7.1992 88.2463 6.9883 87.8983 6.9883 87.3673C 6.9883 86.6403 7.2304 86.2813 7.7383 86.2693L 7.7383 84.8003z"/>
</g>
</svg>