<?xml version="1.0" encoding="ISO-8859-1" standalone="yes"?>
<svg width="295.281" height="142.309">
  <defs> 
    <marker id="ArrowEnd" viewBox="0 0 10 10" refX="0" refY="5" 
     markerUnits="strokeWidth" 
     markerWidth="4" 
     markerHeight="3" 
     orient="auto"> 
        <path d="M 0 0 L 10 5 L 0 10 z" /> 
    </marker>
    <marker id="ArrowStart" viewBox="0 0 10 10" refX="10" refY="5" 
     markerUnits="strokeWidth" 
     markerWidth="4" 
     markerHeight="3" 
     orient="auto"> 
        <path d="M 10 0 L 0 5 L 10 10 z" /> 
    </marker> </defs>
<g>
<path style="stroke:#000000; stroke-width:1.9133; fill:none" d="M 209.011 86.3516L 214.75 86.3516L 214.75 80.6133L 209.011 80.6133L 209.011 86.3516z"/>
<path style="stroke:#000000; stroke-width:1.9133; fill:none" d="M 214.75 86.3516L 220.488 86.3516L 220.488 80.6133L 214.75 80.6133L 214.75 86.3516z"/>
<path style="stroke:#000000; stroke-width:1.9133; fill:none" d="M 220.492 86.3516L 226.23 86.3516L 226.23 80.6133L 220.492 80.6133L 220.492 86.3516z"/>
<path style="stroke:#000000; stroke-width:1.9133; fill:none" d="M 226.23 86.3516L 231.968 86.3516L 231.968 80.6133L 226.23 80.6133L 226.23 86.3516z"/>
<path style="stroke:#000000; stroke-width:1.9133; fill:none" d="M 231.972 86.3516L 237.711 86.3516L 237.711 80.6133L 231.972 80.6133L 231.972 86.3516z"/>
<path style="stroke:#000000; stroke-width:1.9133; fill:none" d="M 237.711 86.3516L 243.449 86.3516L 243.449 80.6133L 237.711 80.6133L 237.711 86.3516z"/>
<path style="stroke:#000000; stroke-width:1.9133; fill:none" d="M 184.136 42.344L 203.265 42.344L 203.265 15.559L 184.136 15.559L 184.136 42.344z"/>
<path style="stroke:#000000; stroke-width:1.9133; fill:none" d="M 165.004 42.344L 184.132 42.344L 184.132 15.559L 165.004 15.559L 165.004 42.344z"/>
<path style="stroke:#000000; stroke-width:1.9133; fill:none" d="M 145.875 42.344L 165.004 42.344L 165.004 15.559L 145.875 15.559L 145.875 42.344z"/>
<path style="stroke:#000000; stroke-width:1.9133; fill:none" d="M 126.738 42.344L 145.867 42.344L 145.867 15.559L 126.738 15.559L 126.738 42.344z"/>
<path style="stroke:#000000; stroke-width:1.9133; fill:none" d="M 107.609 42.344L 126.738 42.344L 126.738 15.559L 107.609 15.559L 107.609 42.344z"/>
<path style="stroke:#000000; stroke-width:1.9133; fill:none" d="M 88.4726 42.344L 107.601 42.344L 107.601 15.559L 88.4726 15.559L 88.4726 42.344z"/>
<path style="stroke:#000000; stroke-width:1.9133; fill:none" d="M 187.964 118.875L 207.093 118.875L 207.093 92.0899L 187.964 92.0899L 187.964 118.875z"/>
<path style="stroke:#000000; stroke-width:1.9133; fill:none" d="M 168.832 118.875L 187.961 118.875L 187.961 92.0899L 168.832 92.0899L 168.832 118.875z"/>
<path style="stroke:#000000; stroke-width:1.9133; fill:none" d="M 149.699 118.875L 168.828 118.875L 168.828 92.0899L 149.699 92.0899L 149.699 118.875z"/>
<path style="stroke:#000000; stroke-width:1.9133; fill:none" d="M 130.566 118.875L 149.695 118.875L 149.695 92.0899L 130.566 92.0899L 130.566 118.875z"/>
<path style="stroke:#000000; stroke-width:1.9133; fill:none" d="M 111.433 118.875L 130.562 118.875L 130.562 92.0899L 111.433 92.0899L 111.433 118.875z"/>
<path style="stroke:#000000; stroke-width:1.9133; fill:none" d="M 92.3003 118.875L 111.429 118.875L 111.429 92.0899L 92.3003 92.0899L 92.3003 118.875z"/>
<path style="stroke:#ffff00; stroke-width:1.9133; fill:none" d="M 197.531 42.344L 197.531 92.086"/>
<path style="stroke:#ffff00; stroke-width:1.9133; fill:none" d="M 178.398 42.344L 178.398 92.086"/>
<path style="stroke:#ffff00; stroke-width:1.9133; fill:none" d="M 197.531 42.344L 178.398 92.086"/>
<path style="stroke:#ffff00; stroke-width:1.9133; fill:none" d="M 178.398 42.344L 159.265 92.086"/>
<path style="stroke:#ffff00; stroke-width:1.9133; fill:none" d="M 159.265 42.344L 159.265 92.086"/>
<path style="stroke:#ffff00; stroke-width:1.9133; fill:none" d="M 140.132 42.344L 140.132 92.086"/>
<path style="stroke:#ffff00; stroke-width:1.9133; fill:none" d="M 159.265 42.344L 140.132 92.086"/>
<path style="stroke:#ffff00; stroke-width:1.9133; fill:none" d="M 121 42.344L 121 92.086"/>
<path style="stroke:#ffff00; stroke-width:1.9133; fill:none" d="M 140.132 42.344L 121 92.086"/>
<path style="stroke:#ffff00; stroke-width:1.9133; fill:none" d="M 101.867 42.344L 101.867 92.086"/>
<path style="stroke:#ffff00; stroke-width:1.9133; fill:none" d="M 121 42.344L 101.867 92.086"/>
<path style="stroke:none; fill-rule:evenodd; fill:#000000" d="M 90.5823 4.69499L 94.5743 4.69499L 94.5743 3.797L 90.5823 3.797L 90.5823 1L 95.0823 1L 95.0823 0.102005L 89.4843 0.102005L 89.4843 8.5L 90.5823 8.5L 90.5823 4.69499z"/>
<path style="stroke:none; fill-rule:evenodd; fill:#000000" d="M 96.2813 2.46899L 96.2813 8.492L 97.2813 8.492L 97.2813 5.35899C 97.2813 4.496 97.4923 3.93401 97.9413 3.59799C 98.2303 3.379 98.5113 3.313 99.1643 3.30099L 99.1643 2.336C 99.0073 2.31599 98.9293 2.30499 98.8043 2.30499C 98.1953 2.30499 97.7303 2.672 97.1833 3.56599L 97.1833 2.47701L 96.2813 2.46899z"/>
<path style="stroke:none; fill-rule:evenodd; fill:#000000" d="M 102.422 2.293C 100.718 2.293 99.6873 3.508 99.6873 5.543C 99.6873 7.578 100.707 8.793 102.437 8.793C 104.14 8.793 105.187 7.582 105.187 5.59399C 105.187 3.504 104.179 2.30099 102.429 2.30099L 102.422 2.293zM 102.433 3.19499C 103.527 3.19499 104.183 4.082 104.183 5.578C 104.183 6.992 103.507 7.89101 102.433 7.89101C 101.351 7.89101 100.683 7.004 100.683 5.543C 100.683 4.09399 101.347 3.19499 102.433 3.19499z"/>
<path style="stroke:none; fill-rule:evenodd; fill:#000000" d="M 106.484 2.46899L 106.484 8.492L 107.484 8.492L 107.484 5.145C 107.484 3.90601 108.109 3.09399 109.074 3.09399C 109.812 3.09399 110.281 3.55499 110.281 4.285L 110.281 8.48801L 111.281 8.48801L 111.281 3.93401C 111.281 2.93401 110.539 2.289 109.379 2.289C 108.488 2.289 107.914 2.633 107.386 3.47299L 107.386 2.461L 106.484 2.46899z"/>
<path style="stroke:none; fill-rule:evenodd; fill:#000000" d="M 114.984 2.496L 114.086 2.496L 114.086 0.828003L 113.086 0.828003L 113.086 2.496L 112.187 2.496L 112.187 3.293L 113.086 3.293L 113.086 7.84C 113.086 8.44499 113.488 8.789 114.218 8.789C 114.441 8.789 114.668 8.76601 114.98 8.707L 114.98 7.871C 114.867 7.961 114.73 7.98801 114.562 7.98801C 114.187 7.98801 114.082 7.875 114.082 7.44499L 114.082 3.293L 114.98 3.293L 114.984 2.496z"/>
<path style="stroke:none; fill-rule:evenodd; fill:#000000" d="M 121.425 7.93401C 121.32 7.992 121.273 7.992 121.214 7.992C 120.875 7.992 120.687 7.81999 120.687 7.52L 120.687 3.953C 120.687 2.879 119.91 2.297 118.437 2.297C 117.57 2.297 116.851 2.55099 116.449 3C 116.175 3.30901 116.062 3.65601 116.039 4.258L 116.984 4.258C 117.062 3.52699 117.488 3.19499 118.371 3.19499C 119.214 3.19499 119.687 3.51601 119.687 4.09399L 119.687 4.34799C 119.687 4.75 119.453 4.922 118.711 5.01601C 117.386 5.188 117.183 5.23399 116.824 5.383C 116.14 5.668 115.793 6.211 115.793 6.996C 115.793 8.09 116.546 8.78101 117.757 8.78101C 118.511 8.78101 119.117 8.508 119.793 7.86301C 119.859 8.496 120.156 8.78101 120.773 8.78101C 120.964 8.78101 121.113 8.758 121.422 8.67599L 121.425 7.93401zM 119.683 6.633C 119.683 6.961 119.593 7.164 119.316 7.438C 118.937 7.80099 118.48 7.992 117.933 7.992C 117.211 7.992 116.785 7.629 116.785 7C 116.785 6.35201 117.195 6.02 118.187 5.867C 119.168 5.72701 119.367 5.67999 119.679 5.52699L 119.683 6.633z"/>
<path style="stroke:none; fill-rule:evenodd; fill:#000000" d="M 122.484 8.496L 123.484 8.496L 123.484 0.0979919L 122.484 0.0979919L 122.484 8.496z"/>
<path style="stroke:none; fill-rule:evenodd; fill:#000000" d="M 134.984 2.72299C 134.648 0.895004 133.586 0 131.734 0C 130.601 0 129.691 0.354996 129.066 1.047C 128.304 1.875 127.89 3.06999 127.89 4.42999C 127.89 5.80901 128.316 6.996 129.113 7.813C 129.757 8.481 130.589 8.789 131.687 8.789C 133.742 8.789 134.898 7.67599 135.156 5.438L 134.05 5.438C 133.961 6.02699 133.847 6.42999 133.672 6.77299C 133.328 7.48399 132.613 7.88699 131.718 7.88699C 130.05 7.88699 128.992 6.535 128.992 4.414C 128.992 2.23399 130.004 0.891006 131.629 0.891006C 132.304 0.891006 132.941 1.10201 133.285 1.42599C 133.593 1.71899 133.765 2.078 133.894 2.711L 134.984 2.72299z"/>
<path style="stroke:none; fill-rule:evenodd; fill:#000000" d="M 138.82 2.293C 137.117 2.293 136.086 3.508 136.086 5.543C 136.086 7.578 137.105 8.793 138.836 8.793C 140.539 8.793 141.586 7.582 141.586 5.59399C 141.586 3.504 140.578 2.30099 138.828 2.30099L 138.82 2.293zM 138.832 3.19499C 139.925 3.19499 140.582 4.082 140.582 5.578C 140.582 6.992 139.906 7.89101 138.832 7.89101C 137.75 7.89101 137.082 7.004 137.082 5.543C 137.082 4.09399 137.746 3.19499 138.832 3.19499z"/>
<path style="stroke:none; fill-rule:evenodd; fill:#000000" d="M 142.882 2.46899L 142.882 8.492L 143.882 8.492L 143.882 5.35899C 143.882 4.496 144.093 3.93401 144.543 3.59799C 144.832 3.379 145.113 3.313 145.765 3.30099L 145.765 2.336C 145.609 2.31599 145.531 2.30499 145.406 2.30499C 144.796 2.30499 144.332 2.672 143.785 3.56599L 143.785 2.47701L 142.882 2.46899z"/>
<path style="stroke:none; fill-rule:evenodd; fill:#000000" d="M 148.781 2.496L 147.882 2.496L 147.882 0.828003L 146.882 0.828003L 146.882 2.496L 145.984 2.496L 145.984 3.293L 146.882 3.293L 146.882 7.84C 146.882 8.44499 147.285 8.789 148.015 8.789C 148.238 8.789 148.464 8.76601 148.777 8.707L 148.777 7.871C 148.664 7.961 148.527 7.98801 148.359 7.98801C 147.984 7.98801 147.879 7.875 147.879 7.44499L 147.879 3.293L 148.777 3.293L 148.781 2.496z"/>
<path style="stroke:none; fill-rule:evenodd; fill:#000000" d="M 154.984 5.793C 154.984 4.875 154.918 4.32401 154.746 3.879C 154.359 2.895 153.445 2.297 152.328 2.297C 150.664 2.297 149.589 3.59 149.589 5.578C 149.589 7.56599 150.625 8.793 152.3 8.793C 153.664 8.793 154.609 8 154.851 6.668L 153.898 6.668C 153.636 7.47299 153.105 7.89101 152.343 7.89101C 151.742 7.89101 151.23 7.61301 150.914 7.09799C 150.687 6.75 150.609 6.39799 150.597 5.793L 154.984 5.793zM 150.562 5.02699C 150.64 3.914 151.32 3.19099 152.281 3.19099C 153.218 3.19099 153.945 3.96899 153.945 4.957C 153.945 4.97701 153.945 5 153.933 5.02299L 150.562 5.02699z"/>
<path style="stroke:none; fill-rule:evenodd; fill:#000000" d="M 158.836 5.39101L 160.855 2.496L 159.777 2.496L 158.332 4.66L 156.886 2.496L 155.796 2.496L 157.804 5.438L 155.683 8.492L 156.773 8.492L 158.296 6.188L 159.8 8.492L 160.914 8.492L 158.836 5.39101z"/>
<path style="stroke:none; fill-rule:evenodd; fill:#000000" d="M 55.082 102.082C 55.0741 100.445 53.9531 99.4961 52.039 99.4961C 50.2148 99.4961 49.0859 100.445 49.0859 101.973C 49.0859 103 49.6171 103.652 50.707 103.941L 52.7616 104.496C 53.8046 104.773 54.2812 105.199 54.2812 105.859C 54.2812 106.309 54.0429 106.773 53.6952 107.027C 53.3671 107.258 52.8476 107.383 52.1796 107.383C 51.2851 107.383 50.6757 107.156 50.2812 106.656C 49.9765 106.277 49.8398 105.859 49.8905 105.32L 48.8905 105.32C 48.8984 106.098 49.0468 106.609 49.3749 107.074C 49.9413 107.863 50.8945 108.281 52.1523 108.281C 53.1366 108.281 53.9413 108.055 54.4765 107.637C 55.0312 107.191 55.3827 106.441 55.3827 105.715C 55.3827 104.68 54.7499 103.922 53.6249 103.609L 51.5507 103.047C 50.5546 102.773 50.1913 102.449 50.1913 101.805C 50.1913 100.953 50.9257 100.387 52.0312 100.387C 53.3398 100.387 54.0741 100.988 54.0859 102.074L 55.082 102.082z"/>
<path style="stroke:none; fill-rule:evenodd; fill:#000000" d="M 58.8827 101.996L 57.9843 101.996L 57.9843 100.328L 56.9843 100.328L 56.9843 101.996L 56.0859 101.996L 56.0859 102.793L 56.9843 102.793L 56.9843 107.34C 56.9843 107.945 57.3866 108.289 58.1171 108.289C 58.3398 108.289 58.5663 108.266 58.8788 108.207L 58.8788 107.371C 58.7655 107.461 58.6288 107.488 58.4609 107.488C 58.0859 107.488 57.9804 107.375 57.9804 106.945L 57.9804 102.793L 58.8788 102.793L 58.8827 101.996z"/>
<path style="stroke:none; fill-rule:evenodd; fill:#000000" d="M 59.9843 101.969L 59.9843 107.992L 60.9843 107.992L 60.9843 104.859C 60.9843 103.996 61.1952 103.434 61.6445 103.098C 61.9335 102.879 62.2148 102.812 62.8671 102.801L 62.8671 101.836C 62.7109 101.816 62.6327 101.805 62.5077 101.805C 61.8984 101.805 61.4335 102.172 60.8866 103.066L 60.8866 101.977L 59.9843 101.969z"/>
<path style="stroke:none; fill-rule:evenodd; fill:#000000" d="M 64.6835 101.996L 63.6835 101.996L 63.6835 107.996L 64.6835 107.996L 64.6835 101.996zM 64.6835 99.5938L 63.6835 99.5938L 63.6835 100.828L 64.6835 100.828L 64.6835 99.5938z"/>
<path style="stroke:none; fill-rule:evenodd; fill:#000000" d="M 71.6249 107.434C 71.5195 107.492 71.4726 107.492 71.414 107.492C 71.0741 107.492 70.8866 107.32 70.8866 107.02L 70.8866 103.453C 70.8866 102.379 70.1093 101.797 68.6366 101.797C 67.7695 101.797 67.0507 102.051 66.6484 102.5C 66.3749 102.809 66.2616 103.156 66.2382 103.758L 67.1835 103.758C 67.2616 103.027 67.6874 102.695 68.5702 102.695C 69.414 102.695 69.8866 103.016 69.8866 103.594L 69.8866 103.848C 69.8866 104.25 69.6523 104.422 68.9101 104.516C 67.5859 104.688 67.3827 104.734 67.0234 104.883C 66.3398 105.168 65.9921 105.711 65.9921 106.496C 65.9921 107.59 66.746 108.281 67.957 108.281C 68.7109 108.281 69.3163 108.008 69.9921 107.363C 70.0585 107.996 70.3554 108.281 70.9726 108.281C 71.164 108.281 71.3124 108.258 71.621 108.176L 71.6249 107.434zM 69.8827 106.133C 69.8827 106.461 69.7929 106.664 69.5155 106.938C 69.1366 107.301 68.6796 107.492 68.1327 107.492C 67.4101 107.492 66.9843 107.129 66.9843 106.5C 66.9843 105.852 67.3945 105.52 68.3866 105.367C 69.3671 105.227 69.5663 105.18 69.8788 105.027L 69.8827 106.133z"/>
<path style="stroke:none; fill-rule:evenodd; fill:#000000" d="M 74.7812 101.996L 73.8827 101.996L 73.8827 100.328L 72.8827 100.328L 72.8827 101.996L 71.9843 101.996L 71.9843 102.793L 72.8827 102.793L 72.8827 107.34C 72.8827 107.945 73.2851 108.289 74.0155 108.289C 74.2382 108.289 74.4648 108.266 74.7773 108.207L 74.7773 107.371C 74.664 107.461 74.5273 107.488 74.3593 107.488C 73.9843 107.488 73.8788 107.375 73.8788 106.945L 73.8788 102.793L 74.7773 102.793L 74.7812 101.996z"/>
<path style="stroke:none; fill-rule:evenodd; fill:#000000" d="M 80.6835 108.031L 80.6835 102L 79.6835 102L 79.6835 105.445C 79.6835 106.684 79.039 107.496 78.0312 107.496C 77.2695 107.496 76.7851 107.035 76.7851 106.305L 76.7851 102L 75.7851 102L 75.7851 106.652C 75.7851 107.652 76.5429 108.297 77.7343 108.297C 78.6327 108.297 79.207 107.988 79.7812 107.195L 79.7812 108.035L 80.6835 108.031z"/>
<path style="stroke:none; fill-rule:evenodd; fill:#000000" d="M 82.2812 101.969L 82.2812 107.992L 83.2812 107.992L 83.2812 104.184C 83.2812 103.305 83.9062 102.598 84.6757 102.598C 85.3788 102.598 85.7773 103.035 85.7773 103.812L 85.7773 107.992L 86.7773 107.992L 86.7773 104.184C 86.7773 103.305 87.4023 102.598 88.1718 102.598C 88.8632 102.598 89.2733 103.047 89.2733 103.812L 89.2733 107.992L 90.2733 107.992L 90.2733 103.473C 90.2733 102.395 89.6523 101.797 88.5195 101.797C 87.7148 101.797 87.2265 102.039 86.664 102.727C 86.3085 102.078 85.8241 101.797 85.039 101.797C 84.2343 101.797 83.7031 102.094 83.1835 102.816L 83.1835 101.969L 82.2812 101.969z"/>
<path style="stroke:#000000; stroke-width:1.9133; fill:none" d="M 10.0273 78.6953L 65.5116 78.6953L 65.5116 51.91L 10.0273 51.91L 10.0273 78.6953z"/>
<path style="stroke:#00ff00; stroke-width:1.9133; fill:none" d="M 218.578 80.6094L 113.347 42.344"/>
<path style="stroke:#00ff00; stroke-width:1.9133; fill:none" d="M 210.925 80.6094L 94.2143 42.344"/>
<path style="stroke:#00ff00; stroke-width:1.9133; fill:none" d="M 230.058 80.6094L 151.617 42.344"/>
<path style="stroke:#00ff00; stroke-width:1.9133; fill:none" d="M 235.796 80.6094L 170.746 42.344"/>
<path style="stroke:#00ff00; stroke-width:1.9133; fill:none" d="M 241.539 80.6094L 191.796 42.344"/>
<path style="stroke:#00ff00; stroke-width:1.9133; fill:none" d="M 224.32 80.6094L 130.57 42.344"/>
<path style="stroke:none; fill-rule:evenodd; fill:#000000" d="M 207.781 44.141L 207.781 49.191L 208.578 49.191L 208.578 46.539C 208.578 45.809 208.754 45.332 209.129 45.047C 209.371 44.863 209.605 44.805 210.144 44.793L 210.144 44.023C 210.011 44.008 209.945 44 209.839 44C 209.328 44 208.933 44.309 208.476 45.059L 208.476 44.145L 207.781 44.141z"/>
<path style="stroke:none; fill-rule:evenodd; fill:#000000" d="M 215.183 46.996C 215.183 46.211 215.129 45.738 214.984 45.355C 214.664 44.512 213.902 44 212.968 44C 211.582 44 210.687 45.074 210.687 46.727C 210.687 48.375 211.55 49.395 212.953 49.395C 214.093 49.395 214.886 48.754 215.086 47.676L 214.281 47.676C 214.062 48.344 213.609 48.695 212.968 48.695C 212.461 48.695 212.031 48.469 211.757 48.055C 211.566 47.773 211.5 47.492 211.492 47L 215.183 46.996zM 211.515 46.305C 211.582 45.379 212.144 44.777 212.949 44.777C 213.73 44.777 214.336 45.426 214.336 46.25C 214.336 46.266 214.336 46.285 214.328 46.305L 211.515 46.305z"/>
<path style="stroke:none; fill-rule:evenodd; fill:#000000" d="M 218.308 49.195L 220.23 44.195L 219.332 44.195L 217.918 48.246L 216.582 44.195L 215.683 44.195L 217.441 49.195L 218.308 49.195z"/>
<path style="stroke:none; fill-rule:evenodd; fill:#000000" d="M 225.281 46.996C 225.281 46.211 225.226 45.738 225.082 45.355C 224.761 44.512 224 44 223.066 44C 221.679 44 220.785 45.074 220.785 46.727C 220.785 48.375 221.648 49.395 223.05 49.395C 224.191 49.395 224.984 48.754 225.183 47.676L 224.379 47.676C 224.16 48.344 223.707 48.695 223.066 48.695C 222.558 48.695 222.129 48.469 221.855 48.055C 221.664 47.773 221.597 47.492 221.589 47L 225.281 46.996zM 221.617 46.305C 221.683 45.379 222.246 44.777 223.05 44.777C 223.832 44.777 224.437 45.426 224.437 46.25C 224.437 46.266 224.437 46.285 224.429 46.305L 221.617 46.305z"/>
<path style="stroke:none; fill-rule:evenodd; fill:#000000" d="M 226.382 44.141L 226.382 49.191L 227.179 49.191L 227.179 46.539C 227.179 45.809 227.355 45.332 227.73 45.047C 227.972 44.863 228.207 44.805 228.746 44.793L 228.746 44.023C 228.613 44.008 228.546 44 228.441 44C 227.929 44 227.535 44.309 227.078 45.059L 227.078 44.145L 226.382 44.141z"/>
<path style="stroke:none; fill-rule:evenodd; fill:#000000" d="M 229.382 42.195L 229.382 49.195L 230.082 49.195L 230.082 48.555C 230.464 49.121 230.976 49.395 231.679 49.395C 233.007 49.395 233.875 48.309 233.875 46.637C 233.875 45.004 233.05 43.996 231.73 43.996C 231.043 43.996 230.554 44.266 230.179 44.859L 230.179 42.195L 229.382 42.195zM 231.589 44.785C 232.476 44.785 233.05 45.559 233.05 46.754C 233.05 47.891 232.461 48.664 231.589 48.664C 230.75 48.664 230.195 47.902 230.195 46.723C 230.195 45.547 230.75 44.781 231.589 44.781L 231.589 44.785z"/>
<path style="stroke:none; fill-rule:evenodd; fill:#000000" d="M 239.082 46.996C 239.082 46.211 239.027 45.738 238.882 45.355C 238.562 44.512 237.8 44 236.867 44C 235.48 44 234.586 45.074 234.586 46.727C 234.586 48.375 235.449 49.395 236.851 49.395C 237.992 49.395 238.785 48.754 238.984 47.676L 238.179 47.676C 237.961 48.344 237.507 48.695 236.867 48.695C 236.359 48.695 235.929 48.469 235.656 48.055C 235.464 47.773 235.398 47.492 235.39 47L 239.082 46.996zM 235.418 46.305C 235.484 45.379 236.046 44.777 236.851 44.777C 237.632 44.777 238.238 45.426 238.238 46.25C 238.238 46.266 238.238 46.285 238.23 46.305L 235.418 46.305z"/>
<path style="stroke:none; fill-rule:evenodd; fill:#000000" d="M 240.183 44.141L 240.183 49.191L 240.98 49.191L 240.98 46.539C 240.98 45.809 241.156 45.332 241.531 45.047C 241.773 44.863 242.007 44.805 242.546 44.793L 242.546 44.023C 242.414 44.008 242.347 44 242.242 44C 241.73 44 241.336 44.309 240.879 45.059L 240.879 44.145L 240.183 44.141z"/>
<path style="stroke:none; fill-rule:evenodd; fill:#000000" d="M 247.8 48.727C 247.714 48.699 247.675 48.699 247.625 48.699C 247.343 48.699 247.187 48.559 247.187 48.309L 247.187 45.367C 247.187 44.481 246.543 44.004 245.312 44.004C 244.589 44.004 243.992 44.219 243.656 44.602C 243.429 44.863 243.336 45.16 243.316 45.668L 244.113 45.668C 244.179 45.004 244.539 44.699 245.281 44.699C 245.992 44.699 246.39 44.969 246.39 45.453L 246.39 45.664C 246.39 46 246.191 46.145 245.566 46.223C 244.445 46.367 244.273 46.406 243.968 46.531C 243.39 46.77 243.093 47.227 243.093 47.887C 243.093 48.805 243.722 49.387 244.738 49.387C 245.367 49.387 245.875 49.176 246.441 48.672C 246.496 49.164 246.746 49.387 247.261 49.387C 247.422 49.387 247.546 49.371 247.804 49.305L 247.8 48.727zM 246.382 47.605C 246.382 47.867 246.308 48.031 246.066 48.246C 245.742 48.539 245.347 48.688 244.875 48.688C 244.25 48.688 243.886 48.395 243.886 47.895C 243.886 47.375 244.242 47.109 245.097 46.988C 245.941 46.875 246.113 46.84 246.382 46.715L 246.382 47.605z"/>
<path style="stroke:none; fill-rule:evenodd; fill:#000000" d="M 250.382 44.195L 249.586 44.195L 249.586 42.805L 248.789 42.805L 248.789 44.195L 248.089 44.195L 248.089 44.895L 248.789 44.895L 248.789 48.613C 248.789 49.109 249.129 49.391 249.742 49.391C 249.929 49.391 250.121 49.375 250.382 49.328L 250.382 48.68C 250.281 48.691 250.16 48.695 250.011 48.695C 249.679 48.695 249.586 48.602 249.586 48.258L 249.586 44.898L 250.382 44.898L 250.382 44.195z"/>
<path style="stroke:none; fill-rule:evenodd; fill:#000000" d="M 253.324 43.996C 251.929 43.996 251.086 45.004 251.086 46.695C 251.086 48.383 251.918 49.395 253.336 49.395C 254.73 49.395 255.586 48.387 255.586 46.734C 255.586 44.996 254.761 43.996 253.328 43.996L 253.324 43.996zM 253.332 44.695C 254.238 44.695 254.781 45.449 254.781 46.723C 254.781 47.926 254.222 48.691 253.332 48.691C 252.433 48.691 251.882 47.938 251.882 46.691C 251.882 45.457 252.433 44.691 253.332 44.691L 253.332 44.695z"/>
<path style="stroke:none; fill-rule:evenodd; fill:#000000" d="M 256.683 44.141L 256.683 49.191L 257.48 49.191L 257.48 46.539C 257.48 45.809 257.656 45.332 258.031 45.047C 258.273 44.863 258.507 44.805 259.046 44.793L 259.046 44.023C 258.914 44.008 258.847 44 258.742 44C 258.23 44 257.836 44.309 257.379 45.059L 257.379 44.145L 256.683 44.141z"/>
<path style="stroke:none; fill-rule:evenodd; fill:#000000" d="M 262.894 44.195L 261.507 48.082L 260.226 44.195L 259.379 44.195L 261.07 49.293L 260.765 50.098C 260.644 50.453 260.461 50.59 260.125 50.59C 260.011 50.59 259.879 50.539 259.707 50.438L 259.707 51.164C 259.867 51.25 260.031 51.289 260.242 51.289C 260.5 51.289 260.777 51.203 260.984 51.051C 261.23 50.871 261.375 50.66 261.527 50.258L 263.754 44.195L 262.894 44.195z"/>
<path style="stroke:none; fill-rule:evenodd; fill:#000000" d="M 223.781 58.793L 224.578 58.793L 224.578 51.797L 223.781 51.797L 223.781 58.793z"/>
<path style="stroke:none; fill-rule:evenodd; fill:#000000" d="M 227.824 53.594C 226.429 53.594 225.586 54.602 225.586 56.293C 225.586 57.981 226.418 58.992 227.836 58.992C 229.23 58.992 230.086 57.984 230.086 56.332C 230.086 54.594 229.261 53.594 227.828 53.594L 227.824 53.594zM 227.832 54.293C 228.738 54.293 229.281 55.047 229.281 56.32C 229.281 57.523 228.722 58.289 227.832 58.289C 226.933 58.289 226.382 57.535 226.382 56.289C 226.382 55.055 226.933 54.289 227.832 54.289L 227.832 54.293z"/>
<path style="stroke:none; fill-rule:evenodd; fill:#000000" d="M 233.121 53.594C 231.726 53.594 230.882 54.602 230.882 56.293C 230.882 57.981 231.714 58.992 233.132 58.992C 234.527 58.992 235.382 57.984 235.382 56.332C 235.382 54.594 234.558 53.594 233.125 53.594L 233.121 53.594zM 233.132 54.293C 234.039 54.293 234.582 55.047 234.582 56.32C 234.582 57.523 234.023 58.289 233.132 58.289C 232.234 58.289 231.683 57.535 231.683 56.289C 231.683 55.055 232.234 54.289 233.132 54.289L 233.132 54.293z"/>
<path style="stroke:none; fill-rule:evenodd; fill:#000000" d="M 236.281 60.883L 237.078 60.883L 237.078 58.301C 237.5 58.781 237.968 59 238.625 59C 239.922 59 240.777 57.953 240.777 56.352C 240.777 54.664 239.945 53.605 238.597 53.605C 237.91 53.605 237.359 53.914 236.98 54.508L 236.98 53.75L 236.281 53.75L 236.281 60.883zM 238.504 54.293C 239.398 54.293 239.98 55.09 239.98 56.32C 239.98 57.492 239.386 58.289 238.504 58.289C 237.648 58.289 237.086 57.504 237.086 56.289C 237.086 55.078 237.648 54.289 238.504 54.289L 238.504 54.293z"/>
<path style="stroke:none; fill-rule:evenodd; fill:#000000" d="M 245.371 55.18C 245.363 54.168 244.722 53.598 243.578 53.598C 242.429 53.598 241.683 54.207 241.683 55.148C 241.683 55.941 242.082 56.32 243.265 56.609L 244.007 56.793C 244.558 56.926 244.777 57.129 244.777 57.496C 244.777 57.969 244.304 58.289 243.597 58.289C 243.164 58.289 242.796 58.164 242.589 57.949C 242.464 57.805 242.406 57.66 242.359 57.301L 241.507 57.301C 241.543 58.441 242.195 58.992 243.511 58.992C 244.777 58.992 245.582 58.363 245.582 57.387C 245.582 56.633 245.164 56.215 244.172 55.973L 243.41 55.789C 242.765 55.637 242.488 55.422 242.488 55.063C 242.488 54.598 242.894 54.297 243.543 54.297C 244.179 54.297 244.519 54.602 244.539 55.18L 245.371 55.18z"/>
<path style="stroke:#ff0000; stroke-width:1.9133; fill:none" d="M 120.929 118.898L 120.929 130.371L 218.453 130.371L 218.453 105.512"/>
<path style="stroke:#ff0000; stroke-width:1.9133; fill:none" d="M 216.543 113.168L 218.453 105.516L 220.363 113.168"/>
<path style="stroke:#ff0000; stroke-width:1.9133; fill:none" d="M 140.054 118.898L 140.054 128.457L 224.195 128.457L 224.195 105.512"/>
<path style="stroke:#ff0000; stroke-width:1.9133; fill:none" d="M 222.281 113.168L 224.191 105.516L 226.101 113.168"/>
<path style="stroke:#ff0000; stroke-width:1.9133; fill:none" d="M 159.175 118.898L 159.175 126.547L 229.929 126.547L 229.929 105.516"/>
<path style="stroke:#ff0000; stroke-width:1.9133; fill:none" d="M 228.015 113.168L 229.925 105.516L 231.836 113.168"/>
<path style="stroke:#000000; stroke-width:1.9133; fill:none" d="M 210.922 105.469L 216.66 105.469L 216.66 99.7305L 210.922 99.7305L 210.922 105.469z"/>
<path style="stroke:#000000; stroke-width:1.9133; fill:none" d="M 216.664 105.469L 222.402 105.469L 222.402 99.7305L 216.664 99.7305L 216.664 105.469z"/>
<path style="stroke:#000000; stroke-width:1.9133; fill:none" d="M 222.402 105.469L 228.14 105.469L 228.14 99.7305L 222.402 99.7305L 222.402 105.469z"/>
<path style="stroke:#000000; stroke-width:1.9133; fill:none" d="M 228.144 105.469L 233.882 105.469L 233.882 99.7305L 228.144 99.7305L 228.144 105.469z"/>
<path style="stroke:#000000; stroke-width:1.9133; fill:none" d="M 233.882 105.469L 239.621 105.469L 239.621 99.7305L 233.882 99.7305L 233.882 105.469z"/>
<path style="stroke:#000000; stroke-width:1.9133; fill:none" d="M 239.625 105.469L 245.363 105.469L 245.363 99.7305L 239.625 99.7305L 239.625 105.469z"/>
<path style="stroke:#ff0000; stroke-width:1.9133; fill:none" d="M 212.718 99.7774L 212.718 86.3946"/>
<path style="stroke:#ff0000; stroke-width:1.9133; fill:none" d="M 210.804 94.043L 212.714 86.3907L 214.625 94.043"/>
<path style="stroke:#ff0000; stroke-width:1.9133; fill:none" d="M 218.461 99.7735L 218.461 86.3907"/>
<path style="stroke:#ff0000; stroke-width:1.9133; fill:none" d="M 216.546 94.0391L 218.457 86.3868L 220.367 94.0391"/>
<path style="stroke:#ff0000; stroke-width:1.9133; fill:none" d="M 224.203 99.7696L 224.203 86.3868"/>
<path style="stroke:#ff0000; stroke-width:1.9133; fill:none" d="M 222.289 94.0352L 224.199 86.3828L 226.109 94.0352"/>
<path style="stroke:#ff0000; stroke-width:1.9133; fill:none" d="M 229.941 99.7657L 229.941 86.3828"/>
<path style="stroke:#ff0000; stroke-width:1.9133; fill:none" d="M 228.031 94.0313L 229.941 86.3789L 231.851 94.0313"/>
<path style="stroke:#ff0000; stroke-width:1.9133; fill:none" d="M 235.683 99.7618L 235.683 86.3789"/>
<path style="stroke:#ff0000; stroke-width:1.9133; fill:none" d="M 233.769 94.0274L 235.679 86.375L 237.589 94.0274"/>
<path style="stroke:#ff0000; stroke-width:1.9133; fill:none" d="M 241.425 99.7578L 241.425 86.375"/>
<path style="stroke:#ff0000; stroke-width:1.9133; fill:none" d="M 239.511 94.0235L 241.422 86.3711L 243.332 94.0235"/>
<path style="stroke:#ff0000; stroke-width:1.9133; fill:none" d="M 101.808 118.898L 101.808 132.281L 212.718 132.281L 212.718 105.512"/>
<path style="stroke:#ff0000; stroke-width:1.9133; fill:none" d="M 210.804 113.168L 212.714 105.516L 214.625 113.168"/>
<path style="stroke:#ff0000; stroke-width:1.9133; fill:none" d="M 178.3 118.898L 178.3 124.633L 235.668 124.633L 235.668 105.512"/>
<path style="stroke:#ff0000; stroke-width:1.9133; fill:none" d="M 233.754 113.168L 235.664 105.516L 237.574 113.168"/>
<path style="stroke:#ff0000; stroke-width:1.9133; fill:none" d="M 197.422 118.898L 197.422 122.723L 241.402 122.723L 241.402 105.512"/>
<path style="stroke:#ff0000; stroke-width:1.9133; fill:none" d="M 239.492 113.168L 241.402 105.516L 243.312 113.168"/>
<path style="stroke:none; fill-rule:evenodd; fill:#000000" d="M 255.484 101.594L 251.886 101.594L 251.886 102.492L 254.484 102.492L 254.484 102.727C 254.484 104.27 253.386 105.387 251.867 105.387C 251.023 105.387 250.257 105.074 249.765 104.527C 249.218 103.922 248.886 102.91 248.886 101.859C 248.886 99.7735 250.05 98.3946 251.812 98.3946C 253.078 98.3946 253.992 99.0625 254.222 100.16L 255.308 100.16C 255.011 98.4688 253.722 97.4922 251.804 97.4922C 250.785 97.4922 249.957 97.7578 249.3 98.2969C 248.339 99.1016 247.785 100.402 247.785 101.91C 247.785 104.488 249.355 106.285 251.621 106.285C 252.757 106.285 253.664 105.859 254.48 104.949L 254.757 106.062L 255.476 106.062L 255.484 101.594z"/>
<path style="stroke:none; fill-rule:evenodd; fill:#000000" d="M 258.281 102.395L 260.922 102.395C 261.578 102.395 262.097 102.203 262.55 101.801C 263.058 101.348 263.277 100.809 263.277 100.043C 263.277 98.4805 262.339 97.5977 260.668 97.5977L 257.179 97.5977L 257.179 105.996L 258.277 105.996L 258.281 102.395zM 258.281 101.496L 258.281 98.4961L 260.531 98.4961C 261.562 98.4961 262.179 99.0586 262.179 99.9961C 262.179 100.93 261.566 101.496 260.531 101.496L 258.281 101.496z"/>
<path style="stroke:none; fill-rule:evenodd; fill:#000000" d="M 249.484 79.3946L 252.187 79.3946L 252.187 78.4961L 245.625 78.4961L 245.625 79.3946L 248.382 79.3946L 248.382 86.8946L 249.48 86.8946L 249.484 79.3946z"/>
<path style="stroke:none; fill-rule:evenodd; fill:#000000" d="M 253.183 78.4961L 253.183 86.8946L 254.183 86.8946L 254.183 83.5469C 254.183 82.3086 254.808 81.4961 255.773 81.4961C 256.074 81.4961 256.375 81.5977 256.601 81.7735C 256.867 81.9688 256.98 82.2578 256.98 82.6875L 256.98 86.8907L 257.98 86.8907L 257.98 82.336C 257.98 81.3242 257.261 80.6914 256.097 80.6914C 255.254 80.6914 254.742 80.9571 254.183 81.6992L 254.183 78.4883L 253.183 78.4961z"/>
<path style="stroke:none; fill-rule:evenodd; fill:#000000" d="M 264.925 86.3321C 264.82 86.3907 264.773 86.3907 264.714 86.3907C 264.375 86.3907 264.187 86.2188 264.187 85.918L 264.187 82.3516C 264.187 81.2774 263.41 80.6953 261.937 80.6953C 261.07 80.6953 260.351 80.9492 259.949 81.3985C 259.675 81.7071 259.562 82.0547 259.539 82.6563L 260.484 82.6563C 260.562 81.9258 260.988 81.5938 261.871 81.5938C 262.714 81.5938 263.187 81.9141 263.187 82.4922L 263.187 82.7461C 263.187 83.1485 262.953 83.3203 262.211 83.4141C 260.886 83.586 260.683 83.6328 260.324 83.7813C 259.64 84.0664 259.293 84.6094 259.293 85.3946C 259.293 86.4883 260.046 87.1797 261.257 87.1797C 262.011 87.1797 262.617 86.9063 263.293 86.2618C 263.359 86.8946 263.656 87.1797 264.273 87.1797C 264.464 87.1797 264.613 87.1563 264.922 87.0742L 264.925 86.3321zM 263.183 85.0352C 263.183 85.3633 263.093 85.5664 262.816 85.8399C 262.437 86.2032 261.98 86.3946 261.433 86.3946C 260.711 86.3946 260.285 86.0313 260.285 85.4024C 260.285 84.7539 260.695 84.4219 261.687 84.2696C 262.668 84.1289 262.867 84.0821 263.179 83.9297L 263.183 85.0352z"/>
<path style="stroke:none; fill-rule:evenodd; fill:#000000" d="M 265.984 86.8946L 266.984 86.8946L 266.984 78.4961L 265.984 78.4961L 265.984 86.8946z"/>
<path style="stroke:none; fill-rule:evenodd; fill:#000000" d="M 273.824 86.3321C 273.718 86.3907 273.672 86.3907 273.613 86.3907C 273.273 86.3907 273.086 86.2188 273.086 85.918L 273.086 82.3516C 273.086 81.2774 272.308 80.6953 270.836 80.6953C 269.968 80.6953 269.25 80.9492 268.847 81.3985C 268.574 81.7071 268.461 82.0547 268.437 82.6563L 269.382 82.6563C 269.461 81.9258 269.886 81.5938 270.769 81.5938C 271.613 81.5938 272.086 81.9141 272.086 82.4922L 272.086 82.7461C 272.086 83.1485 271.851 83.3203 271.109 83.4141C 269.785 83.586 269.582 83.6328 269.222 83.7813C 268.539 84.0664 268.191 84.6094 268.191 85.3946C 268.191 86.4883 268.945 87.1797 270.156 87.1797C 270.91 87.1797 271.515 86.9063 272.191 86.2618C 272.257 86.8946 272.554 87.1797 273.172 87.1797C 273.363 87.1797 273.511 87.1563 273.82 87.0742L 273.824 86.3321zM 272.082 85.0352C 272.082 85.3633 271.992 85.5664 271.714 85.8399C 271.336 86.2032 270.879 86.3946 270.332 86.3946C 269.609 86.3946 269.183 86.0313 269.183 85.4024C 269.183 84.7539 269.593 84.4219 270.586 84.2696C 271.566 84.1289 271.765 84.0821 272.078 83.9297L 272.082 85.0352z"/>
<path style="stroke:none; fill-rule:evenodd; fill:#000000" d="M 274.882 80.8672L 274.882 86.8907L 275.882 86.8907L 275.882 83.0821C 275.882 82.2032 276.507 81.4961 277.277 81.4961C 277.98 81.4961 278.379 81.9336 278.379 82.711L 278.379 86.8907L 279.379 86.8907L 279.379 83.0821C 279.379 82.2032 280.004 81.4961 280.773 81.4961C 281.464 81.4961 281.875 81.9453 281.875 82.711L 281.875 86.8907L 282.875 86.8907L 282.875 82.3711C 282.875 81.293 282.254 80.6953 281.121 80.6953C 280.316 80.6953 279.828 80.9375 279.265 81.625C 278.91 80.9766 278.425 80.6953 277.64 80.6953C 276.836 80.6953 276.304 80.9922 275.785 81.7149L 275.785 80.8672L 274.882 80.8672z"/>
<path style="stroke:none; fill-rule:evenodd; fill:#000000" d="M 289.281 86.9297L 289.281 80.8985L 288.281 80.8985L 288.281 84.3438C 288.281 85.5821 287.636 86.3946 286.629 86.3946C 285.867 86.3946 285.382 85.9336 285.382 85.2032L 285.382 80.8985L 284.382 80.8985L 284.382 85.5508C 284.382 86.5508 285.14 87.1953 286.332 87.1953C 287.23 87.1953 287.804 86.8868 288.379 86.0938L 288.379 86.9336L 289.281 86.9297z"/>
<path style="stroke:none; fill-rule:evenodd; fill:#000000" d="M 295.011 82.5547C 295 81.3672 294.214 80.6953 292.812 80.6953C 291.402 80.6953 290.488 81.4219 290.488 82.543C 290.488 83.4883 290.976 83.9375 292.425 84.2852L 293.336 84.5039C 294.011 84.6641 294.281 84.9063 294.281 85.3438C 294.281 85.9063 293.714 86.2891 292.871 86.2891C 292.351 86.2891 291.914 86.1407 291.672 85.8828C 291.523 85.711 291.453 85.5352 291.394 85.1016L 290.379 85.1016C 290.422 86.5118 291.207 87.1914 292.789 87.1914C 294.312 87.1914 295.281 86.4414 295.281 85.2774C 295.281 84.3789 294.769 83.8828 293.554 83.5938L 292.621 83.375C 291.828 83.1914 291.488 82.9375 291.488 82.5118C 291.488 81.961 291.984 81.6016 292.773 81.6016C 293.546 81.6016 293.964 81.9297 293.988 82.5586L 295.011 82.5547z"/>
<path style="stroke:none; fill-rule:evenodd; fill:#000000" d="M 147.281 135.996L 146.484 135.996L 146.484 140.996L 147.281 140.996L 147.281 135.996zM 147.281 133.996L 146.484 133.996L 146.484 135.023L 147.281 135.023L 147.281 133.996z"/>
<path style="stroke:none; fill-rule:evenodd; fill:#000000" d="M 148.683 135.941L 148.683 140.992L 149.48 140.992L 149.48 138.203C 149.48 137.172 150.015 136.496 150.839 136.496C 151.472 136.496 151.875 136.883 151.875 137.488L 151.875 140.992L 152.672 140.992L 152.672 137.176C 152.672 136.34 152.043 135.797 151.062 135.797C 150.308 135.797 149.82 136.086 149.375 136.789L 149.375 135.941L 148.683 135.941z"/>
<path style="stroke:none; fill-rule:evenodd; fill:#000000" d="M 153.984 133.996L 153.984 140.996L 154.781 140.996L 154.781 138.207C 154.781 137.176 155.316 136.5 156.14 136.5C 156.398 136.5 156.656 136.586 156.847 136.73C 157.074 136.891 157.172 137.133 157.172 137.492L 157.172 140.996L 157.968 140.996L 157.968 137.18C 157.968 136.332 157.367 135.801 156.382 135.801C 155.672 135.801 155.242 136.031 154.769 136.676L 154.769 134.004L 153.984 133.996z"/>
<path style="stroke:none; fill-rule:evenodd; fill:#000000" d="M 160.082 135.996L 159.285 135.996L 159.285 140.996L 160.082 140.996L 160.082 135.996zM 160.082 133.996L 159.285 133.996L 159.285 135.023L 160.082 135.023L 160.082 133.996z"/>
<path style="stroke:none; fill-rule:evenodd; fill:#000000" d="M 161.281 133.996L 161.281 140.996L 161.98 140.996L 161.98 140.355C 162.363 140.922 162.875 141.195 163.578 141.195C 164.906 141.195 165.773 140.109 165.773 138.438C 165.773 136.805 164.949 135.797 163.629 135.797C 162.941 135.797 162.453 136.066 162.078 136.66L 162.078 133.996L 161.281 133.996zM 163.488 136.586C 164.375 136.586 164.949 137.359 164.949 138.555C 164.949 139.691 164.359 140.465 163.488 140.465C 162.648 140.465 162.093 139.703 162.093 138.523C 162.093 137.348 162.648 136.582 163.488 136.582L 163.488 136.586z"/>
<path style="stroke:none; fill-rule:evenodd; fill:#000000" d="M 167.484 135.996L 166.687 135.996L 166.687 140.996L 167.484 140.996L 167.484 135.996zM 167.484 133.996L 166.687 133.996L 166.687 135.023L 167.484 135.023L 167.484 133.996z"/>
<path style="stroke:none; fill-rule:evenodd; fill:#000000" d="M 170.582 135.996L 169.785 135.996L 169.785 134.605L 168.988 134.605L 168.988 135.996L 168.289 135.996L 168.289 136.695L 168.988 136.695L 168.988 140.414C 168.988 140.91 169.328 141.191 169.941 141.191C 170.129 141.191 170.32 141.176 170.582 141.129L 170.582 140.48C 170.48 140.492 170.359 140.496 170.211 140.496C 169.879 140.496 169.785 140.402 169.785 140.059L 169.785 136.699L 170.582 136.699L 170.582 135.996z"/>
<path style="stroke:none; fill-rule:evenodd; fill:#000000" d="M 172.281 135.996L 171.484 135.996L 171.484 140.996L 172.281 140.996L 172.281 135.996zM 172.281 133.996L 171.484 133.996L 171.484 135.023L 172.281 135.023L 172.281 133.996z"/>
<path style="stroke:none; fill-rule:evenodd; fill:#000000" d="M 175.621 135.793C 174.226 135.793 173.382 136.801 173.382 138.492C 173.382 140.18 174.214 141.191 175.632 141.191C 177.027 141.191 177.882 140.184 177.882 138.531C 177.882 136.793 177.058 135.793 175.625 135.793L 175.621 135.793zM 175.632 136.496C 176.539 136.496 177.082 137.25 177.082 138.523C 177.082 139.727 176.523 140.492 175.632 140.492C 174.734 140.492 174.183 139.738 174.183 138.492C 174.183 137.258 174.734 136.492 175.632 136.492L 175.632 136.496z"/>
<path style="stroke:none; fill-rule:evenodd; fill:#000000" d="M 178.984 135.941L 178.984 140.992L 179.781 140.992L 179.781 138.203C 179.781 137.172 180.316 136.496 181.14 136.496C 181.773 136.496 182.175 136.883 182.175 137.488L 182.175 140.992L 182.972 140.992L 182.972 137.176C 182.972 136.34 182.343 135.797 181.363 135.797C 180.609 135.797 180.121 136.086 179.675 136.789L 179.675 135.941L 178.984 135.941z"/>
<path style="stroke:none; fill-rule:evenodd; fill:#000000" d="M 10.1835 33.594L 12.8241 33.594C 13.4804 33.594 13.9999 33.402 14.4531 33C 14.9609 32.547 15.1796 32.008 15.1796 31.242C 15.1796 29.68 14.2421 28.797 12.5702 28.797L 9.08201 28.797L 9.08201 37.195L 10.1796 37.195L 10.1835 33.594zM 10.1835 32.695L 10.1835 29.695L 12.4335 29.695C 13.4648 29.695 14.082 30.258 14.082 31.195C 14.082 32.129 13.4687 32.695 12.4335 32.695L 10.1835 32.695z"/>
<path style="stroke:none; fill-rule:evenodd; fill:#000000" d="M 18.9218 30.996C 17.2187 30.996 16.1874 32.211 16.1874 34.246C 16.1874 36.281 17.207 37.496 18.9374 37.496C 20.6405 37.496 21.6874 36.285 21.6874 34.297C 21.6874 32.207 20.6796 31.004 18.9296 31.004L 18.9218 30.996zM 18.9335 31.895C 20.0273 31.895 20.6835 32.781 20.6835 34.277C 20.6835 35.691 20.0077 36.59 18.9335 36.59C 17.8515 36.59 17.1835 35.703 17.1835 34.242C 17.1835 32.793 17.8476 31.895 18.9335 31.895z"/>
<path style="stroke:none; fill-rule:evenodd; fill:#000000" d="M 27.2109 32.855C 27.1991 31.668 26.414 30.996 25.0116 30.996C 23.6015 30.996 22.6874 31.723 22.6874 32.844C 22.6874 33.789 23.1757 34.238 24.6249 34.586L 25.5351 34.805C 26.2109 34.965 26.4804 35.207 26.4804 35.645C 26.4804 36.207 25.914 36.59 25.0702 36.59C 24.5507 36.59 24.1132 36.441 23.871 36.184C 23.7226 36.012 23.6523 35.836 23.5937 35.402L 22.5781 35.402C 22.621 36.813 23.4062 37.492 24.9882 37.492C 26.5116 37.492 27.4804 36.742 27.4804 35.578C 27.4804 34.68 26.9687 34.184 25.7538 33.895L 24.8202 33.676C 24.0273 33.492 23.6874 33.238 23.6874 32.813C 23.6874 32.262 24.1835 31.902 24.9726 31.902C 25.746 31.902 26.164 32.231 26.1874 32.859L 27.2109 32.855z"/>
<path style="stroke:none; fill-rule:evenodd; fill:#000000" d="M 30.7812 31.195L 29.8827 31.195L 29.8827 29.527L 28.8827 29.527L 28.8827 31.195L 27.9843 31.195L 27.9843 31.992L 28.8827 31.992L 28.8827 36.539C 28.8827 37.145 29.2851 37.488 30.0155 37.488C 30.2382 37.488 30.4648 37.465 30.7773 37.406L 30.7773 36.57C 30.664 36.66 30.5273 36.688 30.3593 36.688C 29.9843 36.688 29.8788 36.574 29.8788 36.145L 29.8788 31.992L 30.7773 31.992L 30.7812 31.195z"/>
<path style="stroke:none; fill-rule:evenodd; fill:#000000" d="M 36.9843 34.496C 36.9843 33.578 36.9179 33.027 36.746 32.582C 36.3593 31.598 35.4452 31 34.3281 31C 32.664 31 31.5898 32.293 31.5898 34.281C 31.5898 36.27 32.6249 37.496 34.3007 37.496C 35.664 37.496 36.6093 36.703 36.8515 35.371L 35.8984 35.371C 35.6366 36.176 35.1054 36.594 34.3437 36.594C 33.7421 36.594 33.2304 36.316 32.914 35.801C 32.6874 35.453 32.6093 35.102 32.5976 34.496L 36.9843 34.496zM 32.5624 33.727C 32.6405 32.613 33.3202 31.891 34.2812 31.891C 35.2187 31.891 35.9452 32.668 35.9452 33.656C 35.9452 33.676 35.9452 33.699 35.9335 33.723L 32.5624 33.727z"/>
<path style="stroke:none; fill-rule:evenodd; fill:#000000" d="M 38.2812 31.168L 38.2812 37.191L 39.2812 37.191L 39.2812 34.059C 39.2812 33.195 39.4921 32.633 39.9413 32.297C 40.2304 32.078 40.5116 32.012 41.164 32L 41.164 31.035C 41.0077 31.016 40.9296 31.004 40.8046 31.004C 40.1952 31.004 39.7304 31.371 39.1835 32.266L 39.1835 31.176L 38.2812 31.168z"/>
<path style="stroke:none; fill-rule:evenodd; fill:#000000" d="M 42.9843 31.195L 41.9843 31.195L 41.9843 37.195L 42.9843 37.195L 42.9843 31.195zM 42.9843 28.793L 41.9843 28.793L 41.9843 30.027L 42.9843 30.027L 42.9843 28.793z"/>
<path style="stroke:none; fill-rule:evenodd; fill:#000000" d="M 47.0195 30.996C 45.3163 30.996 44.2851 32.211 44.2851 34.246C 44.2851 36.281 45.3046 37.496 47.0351 37.496C 48.7382 37.496 49.7851 36.285 49.7851 34.297C 49.7851 32.207 48.7773 31.004 47.0273 31.004L 47.0195 30.996zM 47.0312 31.895C 48.1249 31.895 48.7812 32.781 48.7812 34.277C 48.7812 35.691 48.1054 36.59 47.0312 36.59C 45.9491 36.59 45.2812 35.703 45.2812 34.242C 45.2812 32.793 45.9452 31.895 47.0312 31.895z"/>
<path style="stroke:none; fill-rule:evenodd; fill:#000000" d="M 50.9843 31.168L 50.9843 37.191L 51.9843 37.191L 51.9843 34.059C 51.9843 33.195 52.1952 32.633 52.6445 32.297C 52.9335 32.078 53.2148 32.012 53.8671 32L 53.8671 31.035C 53.7109 31.016 53.6327 31.004 53.5077 31.004C 52.8984 31.004 52.4335 31.371 51.8866 32.266L 51.8866 31.176L 50.9843 31.168z"/>
<path style="stroke:none; fill-rule:evenodd; fill:#000000" d="M 15.6835 42.82C 15.3476 40.992 14.2851 40.098 12.4335 40.098C 11.3007 40.098 10.3905 40.453 9.76551 41.145C 9.00381 41.973 8.5898 43.168 8.5898 44.527C 8.5898 45.906 9.01551 47.094 9.81241 47.91C 10.457 48.578 11.289 48.887 12.3866 48.887C 14.4413 48.887 15.5976 47.773 15.8554 45.535L 14.7499 45.535C 14.6601 46.125 14.5468 46.527 14.371 46.871C 14.0273 47.582 13.3124 47.984 12.4179 47.984C 10.7499 47.984 9.69131 46.633 9.69131 44.512C 9.69131 42.332 10.7031 40.988 12.3281 40.988C 13.0038 40.988 13.6405 41.199 13.9843 41.523C 14.2929 41.816 14.4648 42.176 14.5937 42.809L 15.6835 42.82z"/>
<path style="stroke:none; fill-rule:evenodd; fill:#000000" d="M 19.5195 42.395C 17.8163 42.395 16.7851 43.609 16.7851 45.645C 16.7851 47.68 17.8046 48.895 19.5351 48.895C 21.2382 48.895 22.2851 47.684 22.2851 45.695C 22.2851 43.605 21.2773 42.402 19.5273 42.402L 19.5195 42.395zM 19.5312 43.293C 20.6249 43.293 21.2812 44.18 21.2812 45.676C 21.2812 47.09 20.6054 47.988 19.5312 47.988C 18.4491 47.988 17.7812 47.102 17.7812 45.641C 17.7812 44.191 18.4452 43.293 19.5312 43.293z"/>
<path style="stroke:none; fill-rule:evenodd; fill:#000000" d="M 23.582 42.566L 23.582 48.59L 24.582 48.59L 24.582 45.457C 24.582 44.594 24.7929 44.031 25.2421 43.695C 25.5312 43.477 25.8124 43.41 26.4648 43.398L 26.4648 42.434C 26.3085 42.414 26.2304 42.402 26.1054 42.402C 25.496 42.402 25.0312 42.77 24.4843 43.664L 24.4843 42.574L 23.582 42.566z"/>
<path style="stroke:none; fill-rule:evenodd; fill:#000000" d="M 29.4843 42.594L 28.5859 42.594L 28.5859 40.926L 27.5859 40.926L 27.5859 42.594L 26.6874 42.594L 26.6874 43.391L 27.5859 43.391L 27.5859 47.938C 27.5859 48.543 27.9882 48.887 28.7187 48.887C 28.9413 48.887 29.1679 48.863 29.4804 48.805L 29.4804 47.969C 29.3671 48.059 29.2304 48.086 29.0624 48.086C 28.6874 48.086 28.582 47.973 28.582 47.543L 28.582 43.391L 29.4804 43.391L 29.4843 42.594z"/>
<path style="stroke:none; fill-rule:evenodd; fill:#000000" d="M 35.6835 45.895C 35.6835 44.977 35.6171 44.426 35.4452 43.981C 35.0585 42.996 34.1445 42.398 33.0273 42.398C 31.3632 42.398 30.289 43.691 30.289 45.68C 30.289 47.668 31.3241 48.895 32.9999 48.895C 34.3632 48.895 35.3085 48.102 35.5507 46.77L 34.5976 46.77C 34.3359 47.574 33.8046 47.992 33.0429 47.992C 32.4413 47.992 31.9296 47.715 31.6132 47.199C 31.3866 46.852 31.3085 46.5 31.2968 45.895L 35.6835 45.895zM 31.2616 45.129C 31.3398 44.016 32.0195 43.293 32.9804 43.293C 33.9179 43.293 34.6445 44.07 34.6445 45.059C 34.6445 45.078 34.6445 45.102 34.6327 45.125L 31.2616 45.129z"/>
<path style="stroke:none; fill-rule:evenodd; fill:#000000" d="M 39.5351 45.492L 41.5546 42.598L 40.4765 42.598L 39.0312 44.762L 37.5859 42.598L 36.496 42.598L 38.5038 45.539L 36.3827 48.594L 37.4726 48.594L 38.996 46.289L 40.4999 48.594L 41.6132 48.594L 39.5351 45.492z"/>
<path style="stroke:#000000; stroke-width:1.9133; fill:none" d="M 65.5155 52.629L 79.3827 43.543L 76.0351 39.719L 87.0351 43.066L 87.0351 54.066L 84.1679 50.242L 65.9921 59.805"/>
<path style="stroke:#000000; stroke-width:1.9133; fill:none" d="M 65.9921 79.4141L 79.8593 88.5L 76.5116 92.3242L 87.5116 88.9766L 87.5116 77.9766L 84.6445 81.8008L 66.4687 72.2383"/>
</g>
</svg>