<?xml version="1.0" encoding="UTF-8" standalone="no"?>
<svg
   xmlns:dc="http://purl.org/dc/elements/1.1/"
   xmlns:cc="http://creativecommons.org/ns#"
   xmlns:rdf="http://www.w3.org/1999/02/22-rdf-syntax-ns#"
   xmlns:svg="http://www.w3.org/2000/svg"
   xmlns="http://www.w3.org/2000/svg"
   xmlns:sodipodi="http://sodipodi.sourceforge.net/DTD/sodipodi-0.dtd"
   xmlns:inkscape="http://www.inkscape.org/namespaces/inkscape"
   version="1.1"
   width="8.5in"
   height="11in"
   viewBox="0 0 1912.5 2475"
   id="svg2"
   inkscape:version="0.91 r13725"
   sodipodi:docname="fig_deepleabra_wwi_it_ctxt.svg"
   inkscape:export-filename="/Users/oreilly/svn_docs/figs/fig_deepleabra_wwi_it_ctxt.png"
   inkscape:export-xdpi="149.95799"
   inkscape:export-ydpi="149.95799">
  <metadata
     id="metadata94">
    <rdf:RDF>
      <cc:Work
         rdf:about="">
        <dc:format>image/svg+xml</dc:format>
        <dc:type
           rdf:resource="http://purl.org/dc/dcmitype/StillImage" />
        <dc:title></dc:title>
      </cc:Work>
    </rdf:RDF>
  </metadata>
  <defs
     id="defs92">
    <marker
       inkscape:stockid="Arrow1Mend"
       orient="auto"
       refY="0"
       refX="0"
       id="marker4937"
       style="overflow:visible"
       inkscape:isstock="true">
      <path
         inkscape:connector-curvature="0"
         id="path4939"
         d="M 0,0 5,-5 -12.5,0 5,5 0,0 Z"
         style="fill:#000000;fill-opacity:1;fill-rule:evenodd;stroke:#000000;stroke-width:1pt;stroke-opacity:1"
         transform="matrix(-0.4,0,0,-0.4,-4,0)" />
    </marker>
    <marker
       inkscape:isstock="true"
       style="overflow:visible"
       id="marker8240"
       refX="0"
       refY="0"
       orient="auto"
       inkscape:stockid="Arrow1Mend">
      <path
         inkscape:connector-curvature="0"
         transform="matrix(-0.4,0,0,-0.4,-4,0)"
         style="fill:#000000;fill-opacity:1;fill-rule:evenodd;stroke:#000000;stroke-width:1pt;stroke-opacity:1"
         d="M 0,0 5,-5 -12.5,0 5,5 0,0 Z"
         id="path8242" />
    </marker>
    <marker
       inkscape:stockid="Arrow1Mend"
       orient="auto"
       refY="0"
       refX="0"
       id="marker6905"
       style="overflow:visible"
       inkscape:isstock="true">
      <path
         id="path6907"
         d="M 0,0 5,-5 -12.5,0 5,5 0,0 Z"
         style="fill:#000000;fill-opacity:1;fill-rule:evenodd;stroke:#000000;stroke-width:1pt;stroke-opacity:1"
         transform="matrix(-0.4,0,0,-0.4,-4,0)"
         inkscape:connector-curvature="0" />
    </marker>
    <marker
       inkscape:isstock="true"
       style="overflow:visible"
       id="marker6499"
       refX="0"
       refY="0"
       orient="auto"
       inkscape:stockid="Arrow1Mend">
      <path
         transform="matrix(-0.4,0,0,-0.4,-4,0)"
         style="fill:#000000;fill-opacity:1;fill-rule:evenodd;stroke:#000000;stroke-width:1pt;stroke-opacity:1"
         d="M 0,0 5,-5 -12.5,0 5,5 0,0 Z"
         id="path6501"
         inkscape:connector-curvature="0" />
    </marker>
    <marker
       inkscape:stockid="Arrow1Mend"
       orient="auto"
       refY="0"
       refX="0"
       id="marker5211"
       style="overflow:visible"
       inkscape:isstock="true">
      <path
         id="path5213"
         d="M 0,0 5,-5 -12.5,0 5,5 0,0 Z"
         style="fill:#000000;fill-opacity:1;fill-rule:evenodd;stroke:#000000;stroke-width:1pt;stroke-opacity:1"
         transform="matrix(-0.4,0,0,-0.4,-4,0)"
         inkscape:connector-curvature="0" />
    </marker>
    <marker
       inkscape:isstock="true"
       style="overflow:visible"
       id="marker4949"
       refX="0"
       refY="0"
       orient="auto"
       inkscape:stockid="Arrow1Mend">
      <path
         transform="matrix(-0.4,0,0,-0.4,-4,0)"
         style="fill:#000000;fill-opacity:1;fill-rule:evenodd;stroke:#000000;stroke-width:1pt;stroke-opacity:1"
         d="M 0,0 5,-5 -12.5,0 5,5 0,0 Z"
         id="path4951"
         inkscape:connector-curvature="0" />
    </marker>
  </defs>
  <sodipodi:namedview
     pagecolor="#ffffff"
     bordercolor="#666666"
     borderopacity="1"
     objecttolerance="10"
     gridtolerance="10"
     guidetolerance="10"
     inkscape:pageopacity="0"
     inkscape:pageshadow="2"
     inkscape:window-width="640"
     inkscape:window-height="480"
     id="namedview90"
     showgrid="false"
     units="in"
     inkscape:zoom="1.9725"
     inkscape:cx="126.94219"
     inkscape:cy="210.99387"
     inkscape:current-layer="svg2" />
  <rect
     style="opacity:1;fill:#ffffff;fill-opacity:1;fill-rule:nonzero;stroke:#ffffff;stroke-width:1.20903897;stroke-linecap:butt;stroke-linejoin:miter;stroke-miterlimit:4;stroke-dasharray:none;stroke-dashoffset:0;stroke-opacity:1"
     id="rect7432"
     width="1000.2071"
     height="933.88794"
     x="44.110352"
     y="1497.7347" />
  <path
     d="m 211.35116,2289.9463 0,-747.5 747.50004,0 0,747.5 -747.50004,0"
     id="path4-3"
     inkscape:connector-curvature="0"
     style="fill:none;stroke:#000000;stroke-width:2" />
  <text
     style="font-size:37.90000153px;font-family:Arial;text-anchor:start;fill:#000000"
     id="text8-5"
     font-size="37.9"
     y="2353.5466"
     x="926.9129">1000</text>
  <text
     style="font-size:37.90000153px;font-family:Arial;text-anchor:middle;fill:#000000"
     id="text10-5"
     font-size="37.9"
     y="2414.2478"
     x="585.99384">
    <tspan
       style="font-size:50px"
       id="tspan4303">epoch</tspan>
  </text>
  <text
     style="font-size:37.90000153px;font-family:Arial;text-anchor:middle;fill:#000000"
     id="text12-3"
     font-size="37.9"
     y="2353.5466"
     x="211.35117">0</text>
  <text
     style="font-size:37.90000153px;font-family:Arial;text-anchor:middle;fill:#000000"
     id="text14-3"
     font-size="37.9"
     y="2353.5466"
     x="286.05115">100</text>
  <text
     style="font-size:37.90000153px;font-family:Arial;text-anchor:middle;fill:#000000"
     id="text16-7"
     font-size="37.9"
     y="2353.5466"
     x="360.85114">200</text>
  <text
     style="font-size:37.90000153px;font-family:Arial;text-anchor:middle;fill:#000000"
     id="text18-7"
     font-size="37.9"
     y="2353.5466"
     x="435.55115">300</text>
  <text
     style="font-size:37.90000153px;font-family:Arial;text-anchor:middle;fill:#000000"
     id="text20-9"
     font-size="37.9"
     y="2353.5466"
     x="510.35114">400</text>
  <text
     style="font-size:37.90000153px;font-family:Arial;text-anchor:middle;fill:#000000"
     id="text22-9"
     font-size="37.9"
     y="2353.5466"
     x="585.05115">500</text>
  <text
     style="font-size:37.90000153px;font-family:Arial;text-anchor:middle;fill:#000000"
     id="text24-5"
     font-size="37.9"
     y="2353.5466"
     x="659.8512">600</text>
  <text
     style="font-size:37.90000153px;font-family:Arial;text-anchor:middle;fill:#000000"
     id="text26-6"
     font-size="37.9"
     y="2353.5466"
     x="734.65118">700</text>
  <text
     style="font-size:37.90000153px;font-family:Arial;text-anchor:middle;fill:#000000"
     id="text28-6"
     font-size="37.9"
     y="2353.5466"
     x="809.3512">800</text>
  <text
     style="font-size:37.90000153px;font-family:Arial;text-anchor:middle;fill:#000000"
     id="text30-3"
     font-size="37.9"
     y="2353.5466"
     x="884.15118">900</text>
  <path
     style="fill:none;stroke:#000000;stroke-width:2"
     inkscape:connector-curvature="0"
     id="path34-3"
     d="m 211.35116,2289.9463 747.50004,0 m -747.50004,18.7 0,-37.3 m 74.7,37.3 0,-37.3 m 74.8,37.3 0,-37.3 m 74.7,37.3 0,-37.3 m 74.8,37.3 0,-37.3 m 74.7,37.3 0,-37.3 m 74.8,37.3 0,-37.3 m 74.8,37.3 0,-37.3 m 74.7,37.3 0,-37.3 m 74.8,37.3 0,-37.3 m 74.70004,37.3 0,-37.3" />
  <path
     style="fill:none;stroke:#000000;stroke-width:2"
     inkscape:connector-curvature="0"
     id="path36-6"
     d="m 211.35116,1542.4463 747.50004,0 m -747.50004,18.7 0,-37.4 m 74.7,37.4 0,-37.4 m 74.8,37.4 0,-37.4 m 74.7,37.4 0,-37.4 m 74.8,37.4 0,-37.4 m 74.7,37.4 0,-37.4 m 74.8,37.4 0,-37.4 m 74.8,37.4 0,-37.4 m 74.7,37.4 0,-37.4 m 74.8,37.4 0,-37.4 m 74.70004,37.4 0,-37.4" />
  <text
     style="font-size:37.90000153px;font-family:Arial;text-anchor:end;fill:#000000"
     id="text40-4"
     font-size="37.9"
     y="2304.9465"
     x="185.15115">0</text>
  <text
     style="font-size:37.90000153px;font-family:Arial;text-anchor:end;fill:#000000"
     id="text42-4"
     font-size="37.9"
     y="2230.1467"
     x="185.15115">0.1</text>
  <text
     style="font-size:37.90000153px;font-family:Arial;text-anchor:end;fill:#000000"
     id="text44-6"
     font-size="37.9"
     y="2155.4465"
     x="185.15115">0.2</text>
  <text
     style="font-size:37.90000153px;font-family:Arial;text-anchor:end;fill:#000000"
     id="text46-2"
     font-size="37.9"
     y="2080.6467"
     x="185.15115">0.3</text>
  <text
     style="font-size:37.90000153px;font-family:Arial;text-anchor:end;fill:#000000"
     id="text48-5"
     font-size="37.9"
     y="2005.9463"
     x="185.15115">0.4</text>
  <text
     style="font-size:37.90000153px;font-family:Arial;text-anchor:end;fill:#000000"
     id="text50-6"
     font-size="37.9"
     y="1931.1464"
     x="185.15115">0.5</text>
  <text
     style="font-size:37.90000153px;font-family:Arial;text-anchor:end;fill:#000000"
     id="text52-3"
     font-size="37.9"
     y="1856.4464"
     x="185.15115">0.6</text>
  <text
     style="font-size:37.90000153px;font-family:Arial;text-anchor:end;fill:#000000"
     id="text54-8"
     font-size="37.9"
     y="1781.6464"
     x="185.15115">0.7</text>
  <text
     style="font-size:37.90000153px;font-family:Arial;text-anchor:end;fill:#000000"
     id="text56-3"
     font-size="37.9"
     y="1706.8464"
     x="185.15115">0.8</text>
  <text
     style="font-size:37.90000153px;font-family:Arial;text-anchor:end;fill:#000000"
     id="text58-3"
     font-size="37.9"
     y="1632.1464"
     x="185.15115">0.9</text>
  <text
     style="font-size:37.90000153px;font-family:Arial;text-anchor:end;fill:#000000"
     id="text60-9"
     font-size="37.9"
     y="1557.3464"
     x="185.15115">1</text>
  <path
     style="fill:none;stroke:#000000;stroke-width:2"
     inkscape:connector-curvature="0"
     id="path62-2"
     d="m 211.35116,2289.9463 0,-747.5 m -18.7,747.5 37.3,0 m -37.3,-74.7 37.3,0 m -37.3,-74.8 37.3,0 m -37.3,-74.7 37.3,0 m -37.3,-74.8 37.3,0 m -37.3,-74.7 37.3,0 m -37.3,-74.8 37.3,0 m -37.3,-74.8 37.3,0 m -37.3,-74.7 37.3,0 m -37.3,-74.8 37.3,0 m -37.3,-74.7 37.3,0" />
  <path
     style="fill:none;stroke:#000080;stroke-width:2"
     inkscape:connector-curvature="0"
     id="path88-5"
     d="m 958.8512,2289.9463 0,-747.5 m -18.70004,747.5 37.40004,0 m -37.40004,-74.7 37.40004,0 m -37.40004,-74.8 37.40004,0 m -37.40004,-74.7 37.40004,0 m -37.40004,-74.8 37.40004,0 m -37.40004,-74.7 37.40004,0 m -37.40004,-74.8 37.40004,0 m -37.40004,-74.8 37.40004,0 m -37.40004,-74.7 37.40004,0 m -37.40004,-74.8 37.40004,0 m -37.40004,-74.7 37.40004,0" />
  <text
     xml:space="preserve"
     style="color:#000000;font-style:normal;font-variant:normal;font-weight:normal;font-stretch:normal;font-size:37.5px;line-height:100%;font-family:Arial;-inkscape-font-specification:Arial;text-indent:0;text-align:start;text-decoration:none;text-decoration-line:none;letter-spacing:0px;word-spacing:0px;text-transform:none;direction:ltr;block-progression:tb;writing-mode:lr-tb;text-anchor:start;display:inline;overflow:visible;visibility:visible;fill:#000000;fill-opacity:1;fill-rule:nonzero;stroke:none;stroke-width:1px;stroke-linecap:butt;stroke-linejoin:miter;stroke-opacity:1;marker:none;enable-background:accumulate"
     x="-2216.8677"
     y="101.43361"
     id="text4299"
     sodipodi:linespacing="100%"
     transform="matrix(0,-1,1,0,0,0)"><tspan
       sodipodi:role="line"
       id="tspan4301"
       x="-2216.8677"
       y="101.43361"
       style="font-size:50px">TEO Obj feat decode err %</tspan></text>
  <text
     sodipodi:linespacing="100%"
     id="text4865"
     y="1803.0792"
     x="348.35468"
     style="color:#000000;font-style:normal;font-variant:normal;font-weight:normal;font-stretch:normal;font-size:37.5px;line-height:100%;font-family:Arial;-inkscape-font-specification:Arial;text-indent:0;text-align:start;text-decoration:none;text-decoration-line:none;letter-spacing:0px;word-spacing:0px;text-transform:none;direction:ltr;block-progression:tb;writing-mode:lr-tb;text-anchor:start;display:inline;overflow:visible;visibility:visible;fill:#ff0000;fill-opacity:1;fill-rule:nonzero;stroke:none;stroke-width:1px;stroke-linecap:butt;stroke-linejoin:miter;stroke-opacity:1;marker:none;enable-background:accumulate"
     xml:space="preserve"><tspan
       y="1803.0792"
       x="348.35468"
       id="tspan4867"
       sodipodi:role="line">TEO no ctxt</tspan></text>
  <text
     xml:space="preserve"
     style="color:#000000;font-style:normal;font-variant:normal;font-weight:normal;font-stretch:normal;font-size:37.5px;line-height:100%;font-family:Arial;-inkscape-font-specification:Arial;text-indent:0;text-align:end;text-decoration:none;text-decoration-line:none;letter-spacing:0px;word-spacing:0px;text-transform:none;direction:ltr;block-progression:tb;writing-mode:lr-tb;text-anchor:end;display:inline;overflow:visible;visibility:visible;fill:#0000ff;fill-opacity:1;fill-rule:nonzero;stroke:none;stroke-width:1px;stroke-linecap:butt;stroke-linejoin:miter;stroke-opacity:1;marker:none;enable-background:accumulate"
     x="896.08771"
     y="1693.045"
     id="text4883"
     sodipodi:linespacing="100%"><tspan
       sodipodi:role="line"
       id="tspan4885"
       x="896.08771"
       y="1693.045">TEO,V4 no ctxt</tspan></text>
  <text
     xml:space="preserve"
     style="color:#000000;font-style:normal;font-variant:normal;font-weight:normal;font-stretch:normal;font-size:37.5px;line-height:100%;font-family:Arial;-inkscape-font-specification:Arial;text-indent:0;text-align:start;text-decoration:none;text-decoration-line:none;letter-spacing:0px;word-spacing:0px;text-transform:none;direction:ltr;block-progression:tb;writing-mode:lr-tb;text-anchor:start;display:inline;overflow:visible;visibility:visible;fill:#000000;fill-opacity:1;fill-rule:nonzero;stroke:none;stroke-width:1px;stroke-linecap:butt;stroke-linejoin:miter;stroke-opacity:1;marker:none;enable-background:accumulate"
     x="263.52481"
     y="2234.5012"
     id="text5980"
     sodipodi:linespacing="100%"><tspan
       sodipodi:role="line"
       id="tspan5982"
       x="263.52481"
       y="2234.5012">Std</tspan></text>
  <path
     style="fill:none;stroke:#000000;stroke-width:2.5;stroke-miterlimit:4;stroke-dasharray:none"
     d="m 212.97919,1633.6427 0.8,8.8 0.7,10.5 0.7,11.6 0.8,14.3 0.7,14.8 0.8,17 0.7,16.8 0.8,16.5 0.7,17.3 0.8,15.6 0.7,13.8 0.8,10.8 0.7,8.6 0.8,7.2 0.7,6.2 0.8,4.6 0.7,3.4 0.8,4.3 0.7,4.8 0.8,5.1 0.7,5.2 0.8,5.7 0.7,5.1 0.7,5.6 0.8,4.9 0.7,4.2 0.8,4.7 0.7,3.5 0.8,4.4 0.7,4 0.8,4.4 0.7,4.7 0.8,6.2 0.7,6.9 0.8,6.3 0.7,6.2 0.8,6.1 0.7,4.8 0.8,4.8 0.7,4.4 0.8,4.4 0.7,4.3 0.8,4.7 0.7,4.9 0.7,5.6 0.8,6 0.7,7.6 0.8,7.3 0.7,7 0.8,5.8 0.7,5.4 0.8,4.2 0.7,3 0.8,2.2 0.7,0.9 0.8,0.1 0.7,-0.5 0.8,-0.5 0.7,0.6 0.8,0.4 0.7,1.6 0.8,2.9 0.7,3.7 0.8,4.2 0.7,5.8 0.7,6.8 0.8,6.9 0.7,6.5 0.8,6.9 0.7,6.4 0.8,6.1 0.7,5.7 0.8,4.7 0.7,3.8 0.8,2.2 0.7,1.6 0.8,1.2 0.7,0.3 0.8,0.4 0.7,-0.3 0.8,0.6 0.7,0.7 0.8,0.4 0.7,1.5 0.8,2.2 0.7,2.4 0.7,3.1 0.8,3 0.7,3 0.8,3.4 0.7,2.7 0.8,3.3 0.7,1.4 0.8,2.4 0.7,1.6 0.8,0.7 0.7,0.6 0.8,0.2 0.7,0.1 0.8,1 0.7,1.7 0.8,2 0.7,1.7 0.8,2.7 0.7,2.9 0.8,3 0.7,2.9 0.7,3.1 0.8,2.9 0.7,3.4 0.8,2 0.7,2.7 0.8,3.1 0.7,2.6 0.8,2.6 0.7,2.6 0.8,1.7 0.7,0.6 0.8,0.4 0.7,0.4 0.8,-0.7 0.7,-0.7 0.8,-0.6 0.7,-1.3 0.8,-1 0.7,-0.7 0.7,-0.1 0.8,0 0.7,-0.3 0.8,0.8 0.7,0.9 0.8,1.3 0.7,1.6 0.8,1.7 0.7,2.1 0.8,1.9 0.7,1.7 0.8,1.6 0.7,0.8 0.8,0.1 0.7,0 0.8,-0.5 0.7,-0.8 0.8,-1 0.7,-0.3 0.8,0.8 0.7,0 0.7,1.1 0.8,1.2 0.7,2.3 0.8,2.4 0.7,2.4 0.8,2 0.7,2.2 0.8,2.2 0.7,2.3 0.8,2.2 0.7,1.7 0.8,1.8 0.7,1 0.8,1.5 0.7,1.1 0.8,0 0.7,0.3 0.8,0 0.7,-0.2 0.8,-0.4 0.7,0.2 0.7,0.2 0.8,0.3 0.7,-0.1 0.8,0.1 0.7,0.1 0.8,0 0.7,-0.2 0.8,-0.4 0.7,-1.3 0.8,-1.5 0.7,-1.4 0.8,-1.1 0.7,-0.8 0.8,-0.5 0.7,-0.3 0.8,0.6 0.7,0.7 0.8,1.8 0.7,1.8 0.8,2.4 0.7,1.9 0.7,2.1 0.8,1.2 0.7,1.4 0.8,0.2 0.7,0.7 0.8,0 0.7,-0.1 0.8,-0.1 0.7,0.1 0.8,0.5 0.7,0.5 0.8,0.9 0.7,1.8 0.8,1.5 0.7,2.4 0.8,1.8 0.7,2.5 0.8,2.3 0.7,2.7 0.8,1.9 0.7,2.5 0.7,1.8 0.8,1.6 0.7,1.1 0.8,0.5 0.7,0.6 0.8,-0.2 0.7,-0.1 0.8,-1.1 0.7,-1.7 0.8,-1.5 0.7,-1.5 0.8,-1.8 0.7,-1.8 0.8,-1.8 0.7,-1.1 0.8,-1.1 0.7,-0.6 0.8,0.1 0.7,0.4 0.7,0.7 0.8,1.3 0.7,1 0.8,0.8 0.7,0.6 0.8,0.9 0.7,0 0.8,-0.2 0.7,-0.3 0.8,0.1 0.7,0 0.8,0.6 0.7,0.4 0.8,1.6 0.7,1.4 0.8,1.6 0.7,1.6 0.8,1.1 0.7,0.4 0.8,0 0.7,0 0.7,-0.7 0.8,-1 0.7,-0.3 0.8,-0.3 0.7,-0.3 0.8,-0.1 0.7,0.8 0.8,0.6 0.7,0.6 0.8,0.2 0.7,0.4 0.8,-0.2 0.7,-0.1 0.8,-0.3 0.7,0.1 0.8,0.2 0.7,0.5 0.8,0.9 0.7,1.3 0.8,1.2 0.7,1.4 0.7,1.3 0.8,1.4 0.7,0.2 0.8,-0.4 0.7,-0.6 0.8,-1.1 0.7,-1.7 0.8,-1.3 0.7,-1.7 0.8,-1.5 0.7,-1.4 0.8,-1.4 0.7,-0.7 0.8,-0.3 0.7,-0.4 0.8,-0.4 0.7,-0.3 0.8,0.1 0.7,-0.1 0.8,0.3 0.7,0.9 0.7,0.5 0.8,0.9 0.7,1.2 0.8,1.1 0.7,1.7 0.8,1.5 0.7,1.4 0.8,1.3 0.7,0.8 0.8,1 0.7,1.3 0.8,0.9 0.7,0.4 0.8,-0.2 0.7,-0.1 0.8,-0.2 0.7,-0.3 0.8,-0.4 0.7,-0.9 0.8,-0.9 0.7,-0.4 0.7,-0.5 0.8,0.1 0.7,0.3 0.8,1.1 0.7,0.5 0.8,1 0.7,0.9 0.8,0.8 0.7,0.7 0.8,0.5 0.7,-0.2 0.8,-0.2 0.7,-0.4 0.8,-0.5 0.7,-0.1 0.8,0 0.7,-0.4 0.8,-0.1 0.7,0.5 0.7,0.3 0.8,0.3 0.7,0.4 0.8,-0.3 0.7,-0.6 0.8,-0.1 0.7,-0.4 0.8,-0.6 0.7,-0.6 0.8,-0.6 0.7,-1 0.8,-0.4 0.7,-0.3 0.8,-0.2 0.7,0.5 0.8,0.6 0.7,0.3 0.8,0.5 0.7,0.8 0.8,0.5 0.7,0.5 0.7,0.9 0.8,-0.4 0.7,-0.5 0.8,-0.5 0.7,-0.5 0.8,-0.5 0.7,-0.2 0.8,-0.2 0.7,0.1 0.8,-0.1 0.7,0 0.8,0 0.7,0.3 0.8,0.4 0.7,0 0.8,0.4 0.7,0.2 0.8,-0.4 0.7,0.8 0.8,0.4 0.7,0 0.7,-0.1 0.8,-0.3 0.7,-0.4 0.8,-0.8 0.7,-0.5 0.8,-0.4 0.7,-0.3 0.8,-0.1 0.7,0.4 0.8,0.7 0.7,0.9 0.8,0.9 0.7,1 0.8,0.9 0.7,0 0.8,0 0.7,0.1 0.8,0 0.7,-0.5 0.8,-0.4 0.7,-0.3 0.7,-0.4 0.8,-0.3 0.7,-0.1 0.8,-0.6 0.7,-1.4 0.8,-1.3 0.7,-1.3 0.8,-1.5 0.7,-1.5 0.8,-1.6 0.7,-0.5 0.8,-0.1 0.7,0.1 0.8,1.2 0.7,1.9 0.8,2.1 0.7,2.4 0.8,2.1 0.7,1.9 0.8,1.4 0.7,1.3 0.7,1 0.8,0.2 0.7,0.2 0.8,-0.3 0.7,0 0.8,0.3 0.7,-0.2 0.8,-0.6 0.7,-0.1 0.8,-0.5 0.7,-0.6 0.8,-0.6 0.7,-0.7 0.8,-0.3 0.7,0.1 0.8,-0.1 0.7,0.2 0.8,0.2 0.7,0.1 0.7,0.1 0.8,0.1 0.7,-0.9 0.8,-0.9 0.7,-1.1 0.8,-0.7 0.7,-0.9 0.8,-0.4 0.7,0.3 0.8,0.4 0.7,0.8 0.8,0.8 0.7,0.4 0.8,0.9 0.7,0.5 0.8,0 0.7,-0.4 0.8,-0.8 0.7,-0.7 0.8,-0.5 0.7,-0.7 0.7,0 0.8,0.1 0.7,0.4 0.8,0.7 0.7,0.5 0.8,1.2 0.7,0.3 0.8,0.3 0.7,0.4 0.8,-0.2 0.7,-0.5 0.8,-0.8 0.7,-0.5 0.8,-0.9 0.7,-1 0.8,-0.9 0.7,-0.6 0.8,-0.2 0.7,-0.4 0.8,-0.5 0.7,-0.1 0.7,0.1 0.8,-0.1 0.7,0.2 0.8,0.1 0.7,-0.2 0.8,0.1 0.7,0.2 0.8,-0.2 0.7,0.1 0.8,0.4 0.7,0.8 0.8,0.6 0.7,0.9 0.8,0.8 0.7,1.1 0.8,1.1 0.7,0.6 0.8,0.7 0.7,0.5 0.8,0.1 0.7,-0.3 0.7,-0.3 0.8,-0.8 0.7,-0.5 0.8,-0.8 0.7,-1.2 0.8,-0.6 0.7,-0.5 0.8,-0.2 0.7,-0.1 0.8,0.5 0.7,0.9 0.8,1.3 0.7,1.1 0.8,1.5 0.7,1.4 0.8,0.9 0.7,0.5 0.8,0.1 0.7,-0.2 0.8,-0.9 0.7,-0.7 0.7,-1.2 0.8,-1.1 0.7,-1.2 0.8,-0.5 0.7,-0.5 0.8,0 0.7,0.3 0.8,0.8 0.7,0.9 0.8,0.9 0.7,1.1 0.8,1.7 0.7,1.1 0.8,0.9 0.7,0.5 0.8,0.2 0.7,0.1 0.8,-0.4 0.7,-0.7 0.7,-0.4 0.8,-0.5 0.7,-0.4 0.8,-0.2 0.7,0 0.8,0.4 0.7,0.6 0.8,0.3 0.7,0.2 0.8,-0.1 0.7,-0.5 0.8,-0.2 0.7,-0.6 0.8,-0.6 0.7,-0.7 0.8,-0.6 0.7,-0.5 0.8,-0.3 0.7,-0.3 0.8,0.2 0.7,0 0.7,-0.2 0.8,-0.3 0.7,-0.1 0.8,0.2 0.7,-0.3 0.8,0 0.7,-0.2 0.8,-0.4 0.7,0.1 0.8,-0.1 0.7,-0.2 0.8,0.3 0.7,0.2 0.8,0.3 0.7,0.2 0.8,-0.2 0.7,0 0.8,-0.3 0.7,-0.4 0.8,-1.1 0.7,-0.9 0.7,-0.6 0.8,-0.6 0.7,0.2 0.8,0.3 0.7,0.6 0.8,1.2 0.7,1.4 0.8,1 0.7,1.1 0.8,0.5 0.7,0.6 0.8,0.2 0.7,-0.4 0.8,-0.1 0.7,-0.7 0.8,-0.1 0.7,-0.3 0.8,0 0.7,-0.1 0.8,-0.7 0.7,-0.5 0.7,-0.5 0.8,-0.4 0.7,-0.3 0.8,-0.2 0.7,0.2 0.8,0.4 0.7,1 0.8,1.5 0.7,1.7 0.8,1.6 0.7,1.8 0.8,1.3 0.7,0.8 0.8,0.3 0.7,-0.1 0.8,-0.6 0.7,-1.1 0.8,-1.2 0.7,-1.4 0.8,-1.4 0.7,-1.1 0.7,-0.8 0.8,-0.4 0.7,0 0.8,0.6 0.7,0.9 0.8,1.1 0.7,1 0.8,1 0.7,1 0.8,0.6 0.7,0.5 0.8,0.3 0.7,-0.1 0.8,-0.3 0.7,-0.3 0.8,-0.1 0.7,0.2 0.8,-0.3 0.7,0.2 0.8,-0.2 0.7,-0.4 0.7,-0.2 0.8,-0.8 0.7,-1 0.8,-1 0.7,-1.1 0.8,-0.8 0.7,-1.1 0.8,-1 0.7,-0.7 0.8,-0.2 0.7,0 0.8,-0.3 0.7,-0.3 0.8,0.2 0.7,0.2 0.8,0.2 0.7,0.4 0.8,0.3 0.7,0.9 0.7,0.4 0.8,0.6 0.7,0.5 0.8,0.2 0.7,0.6 0.8,0.5 0.7,0.4 0.8,0.2 0.7,0.5 0.8,0.9 0.7,0.9 0.8,0.6 0.7,0.2 0.8,0.5 0.7,-0.2 0.8,-0.1 0.7,-1 0.8,-0.7 0.7,-1 0.8,-0.9 0.7,-0.6 0.7,-0.1 0.8,0.2 0.7,0.8 0.8,1.1 0.7,1 0.8,1 0.7,0.5 0.8,0.5 0.7,0.1 0.8,-0.5 0.7,-0.7 0.8,-1.2 0.7,-1.2 0.8,-1.4 0.7,-1 0.8,-0.6 0.7,0.1 0.8,-0.3 0.7,0.5 0.8,0.4 0.7,0.7 0.7,0.7 0.8,0.8 0.7,0.9 0.8,0.3 0.7,0.1 0.8,0.2 0.7,0.2 0.8,0.2 0.7,0.3 0.8,0.1 0.7,-0.1 0.8,0.2 0.7,0 0.8,-0.1 0.7,-0.2 0.8,-0.2 0.7,0.1 0.8,-0.4 0.7,-0.1 0.8,0 0.7,0 0.7,-0.2 0.8,0 0.7,-0.1 0.8,0.1 0.7,0 0.8,0.3 0.7,-0.1 0.8,-0.1 0.7,-0.1 0.8,0.1 0.7,-0.3 0.8,-0.3 0.7,-1 0.8,-0.7 0.7,-0.9 0.8,-0.8 0.7,-0.5 0.8,-0.3 0.7,-0.2 0.8,0.1 0.7,0.4 0.7,0.6 0.8,0.4 0.7,0.8 0.8,0.6 0.7,0.4 0.8,0.2 0.7,0.3 0.8,-0.4 0.7,0 0.8,-0.5 0.7,-0.3 0.8,-0.2 0.7,-0.1 0.8,0.3 0.7,0.3 0.8,0.5 0.7,1.1 0.8,1.4 0.7,1.4 0.7,1.5 0.8,1.4 0.7,1.4 0.8,1.2 0.7,0.9 0.8,1 0.7,0.3 0.8,0.3 0.7,-0.1 0.8,-0.1 0.7,-0.3 0.8,-0.7 0.7,-1 0.8,-1 0.7,-1.2 0.8,-1.6 0.7,-1.1 0.8,-1.5 0.7,-1.1 0.8,-0.9 0.7,-0.6 0.7,-0.4 0.8,-0.1 0.7,0.2 0.8,0 0.7,0.1 0.8,-0.2 0.7,-0.3 0.8,-0.3 0.7,-0.1 0.8,-0.4 0.7,-0.5 0.8,0 0.7,0 0.8,0.4 0.7,0.4 0.8,0.2 0.7,-0.1 0.8,-0.1 0.7,-0.3 0.8,-1 0.7,-1 0.7,-1 0.8,-0.6 0.7,-0.3 0.8,-0.3 0.7,0.4 0.8,1 0.7,1.4 0.8,1.5 0.7,1.3 0.8,1.4 0.7,1.3 0.8,0.9 0.7,0.6 0.8,0.2 0.7,-0.4 0.8,0 0.7,-0.2 0.8,-0.4 0.7,-0.4 0.8,-0.6 0.7,-0.2 0.7,0 0.8,0.2 0.7,0.5 0.8,0.9 0.7,1.1 0.8,1.1 0.7,1 0.8,1.3 0.7,1.1 0.8,0.4 0.7,0.1 0.8,-0.7 0.7,-1.2 0.8,-1.5 0.7,-1.6 0.8,-1.7 0.7,-1.6 0.8,-1.7 0.7,-1.5 0.8,-0.8 0.7,-0.7 0.7,-0.5 0.8,-0.2 0.7,0.1 0.8,-0.3 0.7,-0.2 0.8,0.2 0.7,0.1 0.8,0.5 0.7,0.2 0.8,0.6 0.7,0.6 0.8,0.8 0.7,1 0.8,1.1 0.7,1.3 0.8,1.1 0.7,1.2 0.8,1.1 0.7,1 0.7,1 0.8,0.6 0.7,0.4 0.8,-0.2 0.7,-0.1 0.8,-0.5 0.7,-0.6 0.8,-1 0.7,-1 0.8,-1 0.7,-1 0.8,-0.5 0.7,-0.4 0.8,-0.1 0.7,-0.1 0.8,0.3 0.7,0 0.8,0.1 0.7,0.2 0.8,-0.4 0.7,-0.4 0.7,-1.2 0.8,-1 0.7,-1 0.8,-1 0.7,-0.9 0.8,-0.8 0.7,-0.6 0.8,-0.3 0.7,-0.1 0.8,0.1 0.7,0.4 0.8,0.3 0.7,0.3 0.8,0.5 0.7,0.6 0.8,0.3 0.7,0.5 0.8,0.6 0.7,0.1 0.8,0.5 0.7,0.5 0.7,0.4 0.8,0.3 0.7,0.7 0.8,0.4 0.7,0.5 0.8,0.7 0.7,0.6 0.8,0.3 0.7,0.1 0.8,-0.4 0.7,-0.5 0.8,-0.2 0.7,-0.5 0.8,-0.4 0.7,-0.1 0.8,-0.3 0.7,0.3 0.8,0.9 0.7,1 0.8,0.8 0.7,0.7 0.7,0.7 0.8,0.3 0.7,0 0.8,-0.1 0.7,-0.3 0.8,-0.4 0.7,-0.6 0.8,-0.7 0.7,-0.7 0.8,-0.5 0.7,-0.3 0.8,-0.6 0.7,-0.7 0.8,-0.8 0.7,-0.6 0.8,-0.4 0.7,-0.4 0.8,-0.3 0.7,-0.1 0.8,0.4 0.7,0.8 0.7,0.6 0.8,0.8 0.7,1.3 0.8,1.1 0.7,0.7 0.8,0.4 0.7,-0.3 0.8,0 0.7,-0.6 0.8,-0.6 0.7,-0.5 0.8,-0.6 0.7,-0.5 0.8,-0.5 0.7,-0.3 0.8,-0.4 0.7,-0.5 0.8,-0.7 0.7,-0.8 0.7,-1.7 0.8,-1.8 0.7,-1.5 0.8,-1.6 0.7,-1 0.8,-0.6 0.7,0 0.8,0.6 0.7,0.9 0.8,1.7 0.7,1.9 0.8,2.2 0.7,1.8 0.8,1.9 0.7,1.2 0.8,1 0.7,0.6 0.80001,0.6 0.7,0.6 0.8,0.3 0.7,0.3 0.7,0.5 0.8,0.3 0.7,0.5 0.8,0.6 0.7,0.7 0.8,0.3 0.7,0.6"
     id="path4700"
     inkscape:connector-curvature="0" />
  <path
     style="fill:none;stroke:#000000;stroke-width:2.49999996;stroke-miterlimit:4;stroke-dasharray:7.49999989,7.49999989;stroke-dashoffset:0"
     d="m 215.97919,1710.0427 3.7,7.1 3.8,7.5 3.7,7.2 3.7,6.2 3.8,5.6 3.7,5.9 3.8,4.8 3.7,3.7 3.7,3.4 3.8,3.2 3.7,3.5 3.8,4.7 3.7,4.2 3.7,5.6 3.8,6.9 3.7,6.7 3.7,8.7 3.8,8.3 3.7,7.9 3.8,8.1 3.7,7.9 3.7,6.4 3.8,5 3.7,4.7 3.7,4.7 3.8,4.9 3.7,2.4 3.8,3 3.7,3.4 3.7,4.3 3.8,3.9 3.7,3.9 3.7,5.4 3.8,6.1 3.7,6.4 3.8,6.1 3.7,6 3.7,5.6 3.8,5.3 3.7,4.5 3.8,3.4 3.7,3.4 3.7,1.7 3.8,1.1 3.7,0.9 3.7,-0.4 3.8,0.5 3.7,0.7 3.8,1 3.7,0.9 3.7,0.8 3.8,2.1 3.7,2.2 3.7,2.8 3.8,3.4 3.7,4.1 3.8,3.9 3.7,4.2 3.7,4.8 3.8,5.2 3.7,5.2 3.7,3.5 3.8,4.1 3.7,3.5 3.8,2.4 3.7,1.9 3.7,1.5 3.8,2 3.7,1.5 3.7,1.9 3.8,2.3 3.7,3.3 3.8,3.4 3.7,3.2 3.7,3.5 3.8,1.9 3.7,2.1 3.8,0.9 3.7,0.8 3.7,0 3.8,-0.6 3.7,0.5 3.7,-0.4 3.8,0.3 3.7,0.8 3.8,2 3.7,2.4 3.7,2.6 3.8,2.7 3.7,3 3.7,4.1 3.8,3.1 3.7,4 3.8,3.9 3.7,3.5 3.7,2.3 3.8,2.3 3.7,2.4 3.7,1.5 3.8,2.3 3.7,0.8 3.8,0.6 3.7,0.4 3.7,0.7 3.8,-0.4 3.7,-0.5 3.7,-0.7 3.8,-1 3.7,-0.9 3.8,-1.1 3.7,-0.2 3.7,0.9 3.8,1.6 3.7,1.6 3.8,2.2 3.7,1.8 3.7,1.3 3.8,1.7 3.7,0.1 3.7,-0.8 3.8,-1.4 3.7,-1.4 3.8,-2.3 3.7,-1.8 3.7,-2.2 3.8,-0.5 3.7,-0.1 3.7,-0.2 3.8,0.2 3.7,0.1 3.8,0.8 3.7,-0.5 3.7,0.3 3.8,-0.9 3.7,-1.4 3.7,-1.2 3.8,-1.1 3.7,-1.5 3.8,-1.4 3.7,0.7 3.7,0.6 3.8,2 3.7,1.8 3.8,2.5 3.7,2.4 3.7,2.6 3.8,2.2 3.7,0.8 3.7,1.3 3.8,0.3 3.7,0.7 3.8,0.3 3.7,-0.1 3.7,0.9 3.8,1.5 3.7,1.6 3.7,-0.2 3.8,0.2 3.7,-0.4 3.8,-0.4 3.7,-0.9 3.7,-1.7 3.8,-1.8 3.7,-2 3.7,-1.1 3.8,-1.7 3.7,-1.1 3.8,-1 3.7,-2 3.7,-1.3 3.8,-2.4 3.7,-2.9 3.7,-2.6 3.8,-2.2 3.7,-2.7 3.8,-2.1 3.7,-1.7 3.7,-1.1 3.8,0.6 3.7,0.9 3.8,2 3.7,2.3 3.7,2.9 3.8,3.8 3.7,3.5 3.7,3.6 3.8,3 3.7,2.1 3.8,2.1 3.7,1.7 3.7,1.1 3.8,0.8 3.7,0.3 3.7,0.5 3.8,0.7 3.7,0.7 3.80001,0.8 3.7,1.5 3.7,1.6"
     id="path4698"
     inkscape:connector-curvature="0" />
  <path
     style="fill:none;stroke:#ff0000;stroke-width:2.5;stroke-miterlimit:4;stroke-dasharray:none"
     d="m 212.14197,1605.4263 0.8,10.8 0.7,10.7 0.7,12.1 0.8,13 0.7,13.9 0.8,13.5 0.7,13.2 0.8,12.2 0.7,13.1 0.8,10.4 0.7,8.1 0.8,6.8 0.7,5.4 0.8,4.8 0.7,4.8 0.8,4.1 0.7,3.9 0.8,4.1 0.7,4.9 0.8,4.4 0.7,4.3 0.8,3.7 0.7,3.9 0.7,3 0.8,2.5 0.7,1.6 0.8,1.8 0.7,2.3 0.8,1.6 0.7,2.8 0.8,2.2 0.7,3.1 0.8,3.1 0.7,3.7 0.8,3.5 0.7,3.4 0.8,2.9 0.7,2.3 0.8,2.8 0.7,2.9 0.8,3 0.7,3.8 0.8,3.8 0.7,4.9 0.7,3.9 0.8,5.3 0.7,4.9 0.8,5 0.7,4.2 0.8,4.1 0.7,2.7 0.8,3.2 0.7,2.9 0.8,2.6 0.7,2.2 0.8,0.4 0.7,0.5 0.8,0.7 0.7,-0.2 0.8,-0.2 0.7,-0.9 0.8,0.5 0.7,-0.1 0.8,1.6 0.7,3.2 0.7,4.3 0.8,4.9 0.7,6.2 0.8,6.9 0.7,6.4 0.8,7.3 0.7,7.5 0.8,7.8 0.7,6.7 0.8,6.2 0.7,5.1 0.8,4.4 0.7,4.5 0.8,3.7 0.7,3.2 0.8,2 0.7,2.1 0.8,2.4 0.7,2 0.8,2.3 0.7,2.9 0.7,4.5 0.8,4 0.7,3.3 0.8,3.4 0.7,4.1 0.8,3.2 0.7,3.6 0.8,4.5 0.7,2.6 0.8,3 0.7,3.9 0.8,3.5 0.7,2.8 0.8,3.3 0.7,3.8 0.8,2.5 0.7,0.9 0.8,0 0.7,-0.7 0.8,-1.3 0.7,-1.5 0.7,-3 0.8,-1.7 0.7,-2.5 0.8,-2.5 0.7,0.1 0.8,1 0.7,0.1 0.8,2.9 0.7,3.5 0.8,3.4 0.7,3.7 0.8,3.8 0.7,4.5 0.8,4.5 0.7,4.1 0.8,4.3 0.7,2.8 0.8,2.7 0.7,2 0.7,1.9 0.8,0.6 0.7,-0.4 0.8,0.3 0.7,0.5 0.8,0.1 0.7,1 0.8,1.6 0.7,2.8 0.8,2.6 0.7,2.2 0.8,2.2 0.7,1.9 0.8,0.5 0.7,0.8 0.8,-0.2 0.7,-0.5 0.8,-0.5 0.7,0.4 0.8,0.9 0.7,0.9 0.7,1.9 0.8,1.7 0.7,1.4 0.8,1.2 0.7,1.2 0.8,0.6 0.7,0.1 0.8,-0.7 0.7,-0.4 0.8,-0.2 0.7,-0.2 0.8,0.6 0.7,0.6 0.8,1.5 0.7,1.3 0.8,2 0.7,2.9 0.8,2.5 0.7,2.1 0.8,2.5 0.7,2.4 0.7,1.7 0.8,1.6 0.7,1.1 0.8,1.1 0.7,0.2 0.8,0.8 0.7,0.2 0.8,0.1 0.7,0.2 0.8,-1.4 0.7,-0.8 0.8,-1 0.7,-1.6 0.8,-1 0.7,-0.8 0.8,-1.2 0.7,-0.6 0.8,0 0.7,1.1 0.8,1.1 0.7,1.6 0.7,2.2 0.8,-0.2 0.7,0.1 0.8,-1.6 0.7,-3 0.8,-3.6 0.7,-4.5 0.8,-6.4 0.7,-6.3 0.8,-6.4 0.7,-5.7 0.8,-3.6 0.7,-1.9 0.8,-0.1 0.7,1.7 0.8,3.6 0.7,4.2 0.8,4.7 0.7,7.2 0.8,6.2 0.7,6.5 0.7,5.9 0.8,4.8 0.7,3.7 0.8,4.9 0.7,3.7 0.8,3.4 0.7,3 0.8,3 0.7,1.6 0.8,1.9 0.7,1.5 0.8,0.6 0.7,1 0.8,0.8 0.7,0.2 0.8,0.4 0.7,0.7 0.8,0.5 0.7,1.5 0.7,1.6 0.8,1.9 0.7,2.2 0.8,1.4 0.7,1.1 0.8,0.3 0.7,1 0.8,0.3 0.7,-0.4 0.8,0.5 0.7,0.2 0.8,0.9 0.7,1.9 0.8,2.2 0.7,3.3 0.8,3.9 0.7,2.9 0.8,3.4 0.7,2.1 0.8,2.3 0.7,1.9 0.7,1.2 0.8,0.9 0.7,-0.4 0.8,0.3 0.7,0.3 0.8,-0.4 0.7,-0.2 0.8,-0.8 0.7,-1.4 0.8,-1.2 0.7,-2 0.8,-2.2 0.7,-1.5 0.8,-2.4 0.7,-1.1 0.8,-1.4 0.7,-0.1 0.8,0.1 0.7,0.6 0.8,1.4 0.7,1.4 0.7,1.3 0.8,1.5 0.7,1.5 0.8,1.2 0.7,1.5 0.8,1.4 0.7,1.2 0.8,1.3 0.7,0.9 0.8,1.2 0.7,0.1 0.8,0 0.7,-0.7 0.8,-1 0.7,-1.6 0.8,-1.7 0.7,-2.3 0.8,-1.7 0.7,-1.5 0.8,-0.9 0.7,-0.6 0.7,-0.6 0.8,-0.2 0.7,0.6 0.8,0.5 0.7,0.5 0.8,0.6 0.7,1.4 0.8,0.4 0.7,0.3 0.8,0.7 0.7,1 0.8,0.5 0.7,0.7 0.8,0.4 0.7,-0.1 0.8,0.1 0.7,0.9 0.8,0.6 0.7,0.8 0.8,0.4 0.7,0.4 0.7,0.7 0.8,-0.1 0.7,-0.1 0.8,-0.2 0.7,-0.4 0.8,-0.4 0.7,-1 0.8,-0.2 0.7,-0.2 0.8,0.4 0.7,1.1 0.8,1 0.7,1.3 0.8,1.2 0.7,1.4 0.8,0.9 0.7,0.6 0.8,-0.6 0.7,0.1 0.7,-0.8 0.8,-0.9 0.7,-1.3 0.8,-1.8 0.7,-1.2 0.8,-1.3 0.7,-0.8 0.8,-0.7 0.7,-0.1 0.8,0.3 0.7,0.3 0.8,1 0.7,0.7 0.8,1.3 0.7,1.4 0.8,1.2 0.7,0.4 0.8,0.4 0.7,0.2 0.8,-0.2 0.7,0.2 0.7,0.3 0.8,-0.2 0.7,-0.1 0.8,0 0.7,0.2 0.8,0.5 0.7,0.3 0.8,0.7 0.7,0.6 0.8,0.3 0.7,0.8 0.8,1.2 0.7,1 0.8,1.3 0.7,1.1 0.8,1.5 0.7,1 0.8,0.5 0.7,0.3 0.8,-0.1 0.7,-0.5 0.7,-1.7 0.8,-1.9 0.7,-2.2 0.8,-2.9 0.7,-2.4 0.8,-2.4 0.7,-1.7 0.8,-1.1 0.7,-0.1 0.8,0.6 0.7,1.7 0.8,1.5 0.7,2.3 0.8,2.5 0.7,1.9 0.8,1.3 0.7,1.1 0.8,1.4 0.7,0 0.8,0.1 0.7,0.4 0.7,0.2 0.8,0.1 0.7,-0.2 0.8,0.1 0.7,-0.6 0.8,-0.6 0.7,-1.4 0.8,-1.5 0.7,-1.8 0.8,-2 0.7,-1.8 0.8,-2 0.7,-2 0.8,-1.8 0.7,-1.2 0.8,-0.3 0.7,-1.1 0.8,-0.8 0.7,0 0.8,0.6 0.7,0.8 0.7,1.6 0.8,1.4 0.7,2.2 0.8,2.4 0.7,2.2 0.8,2.6 0.7,2.3 0.8,2.3 0.7,1.5 0.8,1.2 0.7,1 0.8,-0.4 0.7,0.5 0.8,1.1 0.7,-0.3 0.8,-1 0.7,-1.2 0.8,-0.7 0.7,-1 0.7,-1.7 0.8,-1.6 0.7,-1.7 0.8,-2 0.7,-1.4 0.8,-1 0.7,-0.3 0.8,-0.1 0.7,0.4 0.8,0.8 0.7,0.3 0.8,0.4 0.7,0.8 0.8,1.2 0.7,1 0.8,0.7 0.7,1.1 0.8,1.8 0.7,1.5 0.8,1.3 0.7,1.6 0.7,1.1 0.8,0.6 0.7,0.1 0.8,-0.6 0.7,-1.2 0.8,-0.6 0.7,-1 0.8,-1.6 0.7,-0.6 0.8,-0.6 0.7,-0.8 0.8,-0.4 0.7,-0.5 0.8,-1 0.7,-0.6 0.8,-0.8 0.7,-1.7 0.8,-1 0.7,-1 0.8,-0.9 0.7,-0.4 0.7,-0.3 0.8,-0.1 0.7,-0.3 0.8,0.5 0.7,-0.4 0.8,-0.2 0.7,0.3 0.8,-0.4 0.7,0.1 0.8,0.7 0.7,0.7 0.8,0.8 0.7,1.9 0.8,1.6 0.7,1.7 0.8,1.8 0.7,1.7 0.8,0.8 0.7,0.4 0.8,1 0.7,0.2 0.7,-0.1 0.8,-0.2 0.7,-0.8 0.8,-0.6 0.7,-0.8 0.8,-1 0.7,-1.1 0.8,-0.8 0.7,-1.1 0.8,-0.2 0.7,0.2 0.8,-0.2 0.7,0.1 0.8,0.7 0.7,0.4 0.8,0.1 0.7,-0.4 0.8,-0.1 0.7,-0.7 0.8,-1 0.7,-0.4 0.7,-0.7 0.8,-0.6 0.7,0.1 0.8,0.5 0.7,0.2 0.8,-0.4 0.7,0.4 0.8,1 0.7,0.3 0.8,0 0.7,0.3 0.8,0.4 0.7,0.3 0.8,0.5 0.7,0.4 0.8,0.4 0.7,0 0.8,0.4 0.7,0.2 0.7,0.2 0.8,-0.2 0.7,0.7 0.8,0.1 0.7,-0.3 0.8,0.3 0.7,0.1 0.8,0.1 0.7,-0.2 0.8,-0.7 0.7,-0.2 0.8,-0.2 0.7,-0.4 0.8,-0.1 0.7,-0.2 0.8,-0.1 0.7,-0.3 0.8,0.2 0.7,0 0.8,-0.3 0.7,0.5 0.7,0 0.8,-0.4 0.7,0.4 0.8,0.6 0.7,0 0.8,0.8 0.7,0.2 0.8,-0.4 0.7,0.5 0.8,-0.3 0.7,-0.9 0.8,-0.4 0.7,-0.7 0.8,-0.7 0.7,-0.8 0.8,-0.5 0.7,-0.8 0.8,-0.1 0.7,-0.2 0.8,0.1 0.7,-0.4 0.7,0 0.8,-0.5 0.7,-0.2 0.8,-0.1 0.7,-0.2 0.8,-0.3 0.7,0.5 0.8,0.4 0.7,0.8 0.8,0.9 0.7,1.7 0.8,1.6 0.7,1.9 0.8,1.6 0.7,1.6 0.8,1.5 0.7,1.5 0.8,1.2 0.7,0 0.8,0.4 0.7,-0.3 0.7,-0.7 0.8,-0.4 0.7,-1.1 0.8,-1 0.7,-0.8 0.8,-1 0.7,-0.6 0.8,-0.1 0.7,-0.3 0.8,-0.7 0.7,-0.3 0.8,-0.5 0.7,-1.1 0.8,-0.8 0.7,-0.6 0.8,-1.8 0.7,-1.2 0.8,-0.8 0.7,-0.7 0.8,-0.5 0.7,0.2 0.7,0.4 0.8,0.6 0.7,0.9 0.8,1.1 0.7,1.7 0.8,1.6 0.7,1.4 0.8,0.9 0.7,1.5 0.8,0.3 0.7,0.7 0.8,0.7 0.7,0.4 0.8,0.1 0.7,-0.2 0.8,0.5 0.7,0.3 0.8,0.3 0.7,0.4 0.8,0.4 0.7,0 0.7,0.1 0.8,0.1 0.7,-0.2 0.8,-0.1 0.7,0.1 0.8,0.9 0.7,0.6 0.8,0.8 0.7,1.1 0.8,1.6 0.7,1.6 0.8,0.8 0.7,0.8 0.8,0.7 0.7,-0.1 0.8,-0.7 0.7,-1.4 0.8,-1.7 0.7,-2.3 0.7,-2.8 0.8,-2.7 0.7,-2.8 0.8,-2.6 0.7,-1.5 0.8,-0.9 0.7,-0.7 0.8,-0.2 0.7,0.6 0.8,1.3 0.7,1.3 0.8,1.2 0.7,1.3 0.8,0.8 0.7,0.4 0.8,0.6 0.7,0.1 0.8,0.5 0.7,0.4 0.8,0.3 0.7,0.4 0.7,0.2 0.8,0.1 0.7,1 0.8,0.4 0.7,0.5 0.8,0.2 0.7,0 0.8,0.1 0.7,0 0.8,-0.1 0.7,-0.5 0.8,-0.8 0.7,-0.2 0.8,-0.8 0.7,-0.5 0.8,-0.7 0.7,0 0.8,0.4 0.7,0.6 0.8,0.1 0.7,0.6 0.7,0.4 0.8,1 0.7,0.9 0.8,0.6 0.7,0.5 0.8,0.8 0.7,1.1 0.8,0.4 0.7,0.4 0.8,0.8 0.7,0.5 0.8,0.4 0.7,-0.1 0.8,-0.7 0.7,-0.1 0.8,-0.5 0.7,0.3 0.8,-0.6 0.7,-1.4 0.8,-0.9 0.7,-1 0.7,-1.1 0.8,-1.5 0.7,-1.8 0.8,-1.4 0.7,-1.5 0.8,-1.2 0.7,-0.7 0.8,-0.2 0.7,0.3 0.8,0.7 0.7,0 0.8,0.6 0.7,-0.8 0.8,0.3 0.7,-0.2 0.8,-0.8 0.7,-1.6 0.8,-1 0.7,-0.2 0.8,-0.3 0.7,0.4 0.7,1.2 0.8,1.3 0.7,1.3 0.8,1.9 0.7,1.8 0.8,1.4 0.7,1.5 0.8,0.2 0.7,0.3 0.8,-0.1 0.7,0 0.8,-0.5 0.7,0.1 0.8,-0.4 0.7,-0.2 0.8,0.4 0.7,0.3 0.8,0.2 0.7,0.9 0.7,1.1 0.8,1.1 0.7,0.8 0.8,1.3 0.7,1.2 0.8,1.6 0.7,1.6 0.8,1.1 0.7,0.8 0.8,0.9 0.7,0.5 0.8,-0.1 0.7,-0.7 0.8,-1 0.7,-1.2 0.8,-2 0.7,-1.7 0.8,-1.6 0.7,-1.7 0.8,-0.9 0.7,-0.5 0.7,-0.2 0.8,0.3 0.7,0.1 0.8,0.5 0.7,0.5 0.8,-0.3 0.7,-0.5 0.8,-1 0.7,-1.1 0.8,-1.5 0.7,-1.7 0.8,-0.8 0.7,-1.1 0.8,-0.4 0.7,-0.2 0.8,0.7 0.7,0.6 0.8,1.5 0.7,1.3 0.8,1.4 0.7,1 0.7,0.8 0.8,0.9 0.7,0.1 0.8,0.1 0.7,-0.1 0.8,-0.1 0.7,-0.2 0.8,-0.2 0.7,-0.2 0.8,-0.1 0.7,0.4 0.8,-0.1 0.7,0 0.8,-0.2 0.7,-0.3 0.8,-1.1 0.7,-0.1 0.8,-0.6 0.7,-0.6 0.8,-0.7 0.7,-0.6 0.7,-0.3 0.8,0.4 0.7,0.6 0.8,0.9 0.7,1.3 0.8,1.7 0.7,1.4 0.8,1.4 0.7,1.7 0.8,1.1 0.7,0.9 0.8,0.3 0.7,-0.6 0.8,-1 0.7,-1.1 0.8,-1.5 0.7,-1.8 0.8,-2.2 0.7,-2.5 0.8,-2.3 0.7,-1.7 0.7,-1 0.8,-1.1 0.7,0 0.8,0.1 0.7,1 0.8,1.7 0.7,2.2 0.8,1.7 0.7,1.5 0.8,1.5 0.7,0.9 0.8,0.2 0.7,-0.3 0.8,-0.4 0.7,-0.6 0.8,-0.7 0.7,-0.5 0.8,-0.4 0.7,0.4 0.7,0.4 0.8,0.6 0.7,0.5 0.8,-0.1 0.7,0.3 0.8,0.4 0.7,-0.3 0.8,-0.8 0.7,-1.3 0.8,-0.4 0.7,-0.6 0.8,-0.6 0.7,0 0.8,0.3 0.7,0.1 0.8,0.5 0.7,0.7 0.8,0.4 0.7,0.4 0.8,0.1 0.7,-0.5 0.7,-1 0.8,-1.1 0.7,-1 0.8,-1 0.7,-0.8 0.8,-0.7 0.7,-0.6 0.8,-0.2 0.7,0 0.8,0.6 0.7,0.7 0.8,1 0.7,0.8 0.8,0.8 0.7,0.8 0.8,0.5 0.7,0.9 0.8,0.5 0.7,0 0.8,0 0.7,0.3 0.7,-0.1 0.8,0.4 0.7,0.4 0.8,0.3 0.7,0.5 0.8,0.1 0.7,0.3 0.8,-0.2 0.7,0 0.8,-0.3 0.7,-0.4 0.8,-0.1 0.7,-0.3 0.8,0 0.7,0.2 0.8,0.2 0.7,0.3 0.8,0.4 0.7,-0.2 0.8,0.5 0.7,0 0.7,-0.1 0.8,0.4 0.7,0.2 0.8,0.2 0.7,0.5 0.8,0.2 0.7,0.2 0.8,0.4 0.7,0 0.8,0 0.7,0 0.8,-0.5 0.7,-0.8 0.8,-0.4 0.7,-0.7 0.8,-0.6 0.7,-1.2 0.8,-1.2 0.7,-1.2 0.8,-1 0.7,-0.1 0.7,-0.3 0.8,0.3 0.7,0.2 0.8,0.9 0.7,1 0.8,1.1 0.7,0.4 0.8,0.5 0.7,-0.5 0.8,-0.4 0.7,-0.7 0.8,-1.3 0.7,-0.6 0.8,-0.8 0.7,-0.2 0.8,0.1 0.7,0.1 0.8,0.6 0.7,1.1 0.7,0.4 0.8,0 0.7,0.4 0.8,-0.1 0.7,0.2 0.8,0.1 0.7,0.2 0.8,0 0.7,0.4 0.8,1.4 0.7,1.4 0.8,1.2 0.7,1.2 0.8,1.2 0.7,0.9 0.8,0.6 0.7,-0.1 0.8,0.3 0.7,0 0.8,-0.2 0.7,-0.2 0.7,-0.2 0.8,-0.1 0.7,0.4 0.8,0.2 0.7,0.4 0.8,0 0.7,0.2"
     id="path4660"
     inkscape:connector-curvature="0" />
  <path
     style="fill:none;stroke:#ff0000;stroke-width:2.49999996;stroke-miterlimit:4;stroke-dasharray:7.49999989,7.49999989;stroke-dashoffset:0"
     d="m 215.14197,1697.4263 3.7,6 3.8,6.1 3.7,6.2 3.7,5.3 3.8,5 3.7,4.8 3.8,4.1 3.7,3 3.7,2.6 3.8,2.5 3.7,2.3 3.8,3.4 3.7,2.3 3.7,3.4 3.8,4.1 3.7,3.3 3.7,5 3.8,4.5 3.7,4.1 3.8,3.7 3.7,3.3 3.7,1.7 3.8,0.4 3.7,-0.2 3.7,0.1 3.8,-0.4 3.7,-2.6 3.8,-2.4 3.7,-2.7 3.7,-0.7 3.8,-2.5 3.7,-3.5 3.7,-2.7 3.8,-4.5 3.7,-5.5 3.8,-7.7 3.7,-9.7 3.7,-10 3.8,-10.7 3.7,-10.5 3.8,-9.1 3.7,-8.4 3.7,-5.3 3.8,-1.8 3.7,0 3.7,1.5 3.8,3 3.7,5.7 3.8,5.5 3.7,4.7 3.7,3.7 3.8,2.7 3.7,2.3 3.7,2.3 3.8,0.7 3.7,0.7 3.8,-0.4 3.7,0.6 3.7,1.4 3.8,2 3.7,2.3 3.7,3 3.8,3.8 3.7,4.4 3.8,3.3 3.7,3.8 3.7,3.4 3.8,3.6 3.7,2 3.7,1.5 3.8,0.2 3.7,0.8 3.8,0 3.7,0.5 3.7,-0.4 3.8,0.1 3.7,-1 3.8,-0.9 3.7,-0.3 3.7,-0.8 3.8,-1.8 3.7,-0.5 3.7,-1.3 3.8,-1.3 3.7,-1.4 3.8,-0.3 3.7,-0.6 3.7,0 3.8,0 3.7,1.5 3.7,1.3 3.8,1.2 3.7,2.6 3.8,3.8 3.7,3.4 3.7,3.4 3.8,3.9 3.7,3.8 3.7,3.1 3.8,2.9 3.7,1.2 3.8,1.4 3.7,0.4 3.7,0.4 3.8,-0.7 3.7,-0.4 3.7,-0.1 3.8,0.9 3.7,1.8 3.8,1.5 3.7,2 3.7,3.1 3.8,3.1 3.7,2.9 3.8,2.9 3.7,2.5 3.7,1.8 3.8,2.8 3.7,1.7 3.7,1 3.8,0.6 3.7,0.8 3.8,-0.2 3.7,-0.5 3.7,-2.1 3.8,-1.8 3.7,-1.8 3.7,-2.4 3.8,-2.7 3.7,-2.9 3.8,-2.8 3.7,-1.9 3.7,-2.1 3.8,-1.1 3.7,-1.9 3.7,-1 3.8,-0.1 3.7,0.2 3.8,0.6 3.7,1.7 3.7,1.8 3.8,2.1 3.7,2.1 3.8,2.3 3.7,2.2 3.7,2.4 3.8,1.9 3.7,1.1 3.7,0.3 3.8,0.9 3.7,0.1 3.8,0.1 3.7,-0.4 3.7,0 3.8,-0.1 3.7,0.4 3.7,-0.6 3.8,0.3 3.7,1 3.8,0.4 3.7,-0.1 3.7,0.7 3.8,0.8 3.7,0.6 3.7,1 3.8,0.4 3.7,0.3 3.8,0.5 3.7,0.5 3.7,0.3 3.8,-0.5 3.7,-1.2 3.7,-1.2 3.8,-1.7 3.7,-2 3.8,-2.1 3.7,-2.3 3.7,-1.7 3.8,-1.3 3.7,-1.9 3.8,-0.9 3.7,-0.1 3.7,0.1 3.8,0.7 3.7,0.6 3.7,0.9 3.8,1.3 3.7,1.4 3.8,1.7 3.7,1.8 3.7,2.1 3.8,1.6 3.7,1.5 3.7,1.7 3.8,1.5 3.7,0.8 3.8,1.3 3.7,1.3 3.7,0"
     id="path4658"
     inkscape:connector-curvature="0" />
  <path
     style="fill:none;stroke:#0000ff;stroke-width:2.49999996;stroke-miterlimit:4;stroke-dasharray:7.49999989,7.49999989;stroke-dashoffset:0"
     d="m 215.14197,1665.8263 3.7,1.3 3.8,0.8 3.7,0.1 3.7,-0.2 3.8,-1.4 3.7,-1.6 3.8,-2.8 3.7,-2.5 3.7,-3.1 3.8,-2.7 3.7,-2.4 3.8,-2.4 3.7,-2.4 3.7,-1.3 3.8,-1.1 3.7,-2 3.7,-0.8 3.8,-0.6 3.7,-0.7 3.8,-0.5 3.7,-0.2 3.7,0.3 3.8,0.3 3.7,0.9 3.7,0.5 3.8,0.8 3.7,-0.1 3.8,0.2 3.7,0.3 3.7,0.9 3.8,0.2 3.7,0.6 3.7,1.1 3.8,0.1 3.7,0.1 3.8,0.2 3.7,-0.5 3.7,-1.4 3.8,-1.8 3.7,-2.1 3.8,-2.2 3.7,-1.8 3.7,-1.1 3.8,0 3.7,0.4 3.7,0.2 3.8,1.4 3.7,2.1 3.8,1.5 3.7,1.2 3.7,0.8 3.8,-0.3 3.7,-1.2 3.7,-1.4 3.8,-1.6 3.7,-1.9 3.8,-2.5 3.7,-1.6 3.7,-1.3 3.8,-0.8 3.7,-0.6 3.7,-0.5 3.8,0.4 3.7,-0.5 3.8,-0.3 3.7,-0.6 3.7,-0.4 3.8,-0.3 3.7,-0.4 3.7,0.5 3.8,0.9 3.7,1.3 3.8,2 3.7,2.3 3.7,1.7 3.8,1.6 3.7,1.3 3.8,1.2 3.7,0.3 3.7,-0.5 3.8,-0.9 3.7,-1.3 3.7,-1.6 3.8,-1.2 3.7,-1.6 3.8,-1.5 3.7,-1.8 3.7,-1.6 3.8,-1.3 3.7,-0.9 3.7,0.1 3.8,0.2 3.7,1.3 3.8,2.1 3.7,2.1 3.7,3.5 3.8,4.3 3.7,4.1 3.7,4 3.8,4.3 3.7,2.5 3.8,1.8 3.7,1.3 3.7,0.1 3.8,-1 3.7,-1.7 3.7,-1.9 3.8,-2.3 3.7,-1 3.8,-0.6 3.7,-0.1 3.7,1 3.8,0.8 3.7,0.4 3.8,0.8 3.7,0.8 3.7,-1.3 3.8,-1.4 3.7,-1.8 3.7,-2.7 3.8,-2.6 3.7,-2.5 3.8,-1.9 3.7,-2 3.7,-1.2 3.8,-1.1 3.7,-1.3 3.7,-0.3 3.8,0 3.7,-0.1 3.8,0.4 3.7,0.5 3.7,0.6 3.8,1.5 3.7,1.2 3.7,0.9 3.8,0.9 3.7,0.6 3.8,0.8 3.7,0.9 3.7,0 3.8,-0.5 3.7,-0.4 3.8,0.3 3.7,-0.5 3.7,-0.7 3.8,-0.2 3.7,-0.1 3.7,-0.2 3.8,0.2 3.7,0.8 3.8,1 3.7,1.1 3.7,1.9 3.8,1.2 3.7,1.2 3.7,0.8 3.8,0.8 3.7,0.6 3.8,-0.5 3.7,-0.5 3.7,-0.5 3.8,-0.1 3.7,-0.7 3.7,-0.5 3.8,-0.9 3.7,-0.9 3.8,-0.3 3.7,-1.1 3.7,-0.9 3.8,-1.8 3.7,-1.6 3.7,-1.7 3.8,-1.5 3.7,-1.5 3.8,-1.2 3.7,-0.9 3.7,-0.7 3.8,-0.4 3.7,-0.3 3.8,0.6 3.7,0.8 3.7,1.1 3.8,1.5 3.7,0.9 3.7,1.6 3.8,1.2 3.7,0.8 3.8,0.6 3.7,0.6 3.7,0 3.8,0.1 3.7,-0.7 3.7,-0.4 3.8,-0.4 3.7,0.1 3.8,0.1 3.7,0.1 3.7,0.5"
     id="path4656"
     inkscape:connector-curvature="0" />
  <path
     style="fill:none;stroke:#0000ff;stroke-width:2.5;stroke-miterlimit:4;stroke-dasharray:none"
     d="m 212.14197,1608.9263 0.8,9.1 0.7,9.3 0.7,10.5 0.8,11 0.7,11 0.8,11.1 0.7,10.2 0.8,9.4 0.7,10.3 0.8,7.7 0.7,6.2 0.8,4.1 0.7,3.5 0.8,2.8 0.7,2.2 0.8,1.6 0.7,2.3 0.8,2.2 0.7,2.6 0.8,2.4 0.7,3 0.8,2.9 0.7,2.4 0.7,2.7 0.8,1.9 0.7,1.4 0.8,2.3 0.7,2.1 0.8,2.7 0.7,3.2 0.8,3 0.7,4.1 0.8,4.1 0.7,4.1 0.8,4.3 0.7,3.4 0.8,2.8 0.7,1.7 0.8,2 0.7,2.1 0.8,1.2 0.7,2.4 0.8,1.9 0.7,2.9 0.7,3.7 0.8,4.7 0.7,5.2 0.8,6 0.7,5.2 0.8,5.3 0.7,5.5 0.8,4.7 0.7,5.3 0.8,4.1 0.7,3.4 0.8,2.4 0.7,2 0.8,2.5 0.7,1.2 0.8,1.4 0.7,0.6 0.8,1 0.7,0.3 0.8,0.6 0.7,2.7 0.7,2.8 0.8,3.4 0.7,2.8 0.8,4.6 0.7,4.5 0.8,5.3 0.7,5.1 0.8,4 0.7,4.3 0.8,3.6 0.7,2.6 0.8,3.5 0.7,2.6 0.8,1.9 0.7,2.9 0.8,2.8 0.7,2.2 0.8,3.9 0.7,4 0.8,4.9 0.7,4.3 0.7,5.2 0.8,4.7 0.7,4.5 0.8,4.1 0.7,2.9 0.8,2.1 0.7,1.7 0.8,0.2 0.7,-0.3 0.8,0.3 0.7,0.6 0.8,0.8 0.7,0.8 0.8,2 0.7,2.8 0.8,2.5 0.7,2.1 0.8,1.8 0.7,1.4 0.8,1.3 0.7,1 0.7,-0.6 0.8,0.4 0.7,1.1 0.8,1.8 0.7,2.8 0.8,3.6 0.7,3.3 0.8,4.1 0.7,4.8 0.8,3.3 0.7,2.2 0.8,1.3 0.7,0.6 0.8,-0.1 0.7,-1.1 0.8,-1 0.7,-1.1 0.8,-0.1 0.7,-0.1 0.7,0.5 0.8,0.3 0.7,0.4 0.8,0.7 0.7,1.1 0.8,0.2 0.7,-1.5 0.8,-1.1 0.7,-0.9 0.8,-1.3 0.7,-2.1 0.8,-1.5 0.7,-0.9 0.8,-1 0.7,0.5 0.8,1.3 0.7,2.2 0.8,3.7 0.7,4 0.8,4.8 0.7,3.9 0.7,3.6 0.8,3.6 0.7,2.2 0.8,0 0.7,0.4 0.8,-0.7 0.7,-1 0.8,-1.4 0.7,-0.4 0.8,-0.4 0.7,0.2 0.8,1.4 0.7,1.1 0.8,1.9 0.7,2.1 0.8,0.7 0.7,0.8 0.8,0.9 0.7,0.1 0.8,1.1 0.7,1.5 0.7,0.8 0.8,2 0.7,2.7 0.8,3.4 0.7,3.3 0.8,3.5 0.7,2.3 0.8,1.8 0.7,0.2 0.8,-1.8 0.7,-2.4 0.8,-2.2 0.7,-3.6 0.8,-3.7 0.7,-2.3 0.8,-0.9 0.7,-0.5 0.8,1.3 0.7,1.6 0.8,2.5 0.7,1.3 0.7,2.2 0.8,0.8 0.7,-0.7 0.8,-2.1 0.7,-1.7 0.8,-2.2 0.7,-1.6 0.8,-1.8 0.7,0 0.8,0.3 0.7,1 0.8,2.5 0.7,3.1 0.8,2.6 0.7,3.9 0.8,3.2 0.7,2.8 0.8,1.5 0.7,2.5 0.8,2.7 0.7,2.4 0.7,1.5 0.8,1 0.7,1.2 0.8,1.7 0.7,1.8 0.8,1.1 0.7,1.6 0.8,1.4 0.7,1.7 0.8,1.2 0.7,1 0.8,0.4 0.7,1.4 0.8,0.8 0.7,0 0.8,-0.5 0.7,-0.8 0.8,-0.2 0.7,-0.1 0.7,-0.2 0.8,-0.2 0.7,0 0.8,0.7 0.7,0 0.8,0.2 0.7,1.9 0.8,1.8 0.7,1.6 0.8,2.7 0.7,1.2 0.8,2.2 0.7,1.9 0.8,1.2 0.7,1.1 0.8,0.4 0.7,-0.1 0.8,-1.2 0.7,-1.1 0.8,-0.3 0.7,-0.6 0.7,-0.4 0.8,0.5 0.7,-0.1 0.8,0.9 0.7,0.7 0.8,0.6 0.7,1.4 0.8,-0.2 0.7,0.3 0.8,0.5 0.7,0 0.8,-0.5 0.7,0.7 0.8,0.4 0.7,0.6 0.8,0.1 0.7,1.3 0.8,0.9 0.7,0.9 0.8,0.3 0.7,0.3 0.7,-0.4 0.8,-0.3 0.7,-0.4 0.8,-0.8 0.7,-0.3 0.8,-0.8 0.7,-0.1 0.8,0.5 0.7,-0.1 0.8,1.1 0.7,0.6 0.8,0.8 0.7,0.2 0.8,-0.1 0.7,-0.2 0.8,0.9 0.7,-0.4 0.8,0 0.7,-0.3 0.8,0.5 0.7,0 0.7,-0.3 0.8,0.1 0.7,-1 0.8,-1.1 0.7,-1.4 0.8,-1.8 0.7,-0.4 0.8,-0.7 0.7,0.6 0.8,1.3 0.7,2.5 0.8,3.1 0.7,4.1 0.8,3.9 0.7,3.3 0.8,2 0.7,2.5 0.8,0.9 0.7,0.2 0.8,0 0.7,-1 0.7,0 0.8,0.6 0.7,0.2 0.8,1.1 0.7,1.5 0.8,1.8 0.7,1.5 0.8,1.1 0.7,0.7 0.8,1.1 0.7,0.5 0.8,0.6 0.7,-0.4 0.8,-0.1 0.7,0.6 0.8,-0.3 0.7,0.2 0.8,-0.8 0.7,-0.9 0.7,-0.7 0.8,-1.2 0.7,-1.5 0.8,-2.1 0.7,-1.8 0.8,-0.9 0.7,-0.6 0.8,-0.7 0.7,0.1 0.8,1 0.7,1.1 0.8,1.7 0.7,1.4 0.8,2.9 0.7,2 0.8,2.2 0.7,1.4 0.8,1.5 0.7,1.4 0.8,0.8 0.7,0.8 0.7,-0.1 0.8,-0.4 0.7,-1.4 0.8,-1.7 0.7,-1.7 0.8,-2.4 0.7,-2.3 0.8,-2 0.7,-1.9 0.8,-2.2 0.7,-0.8 0.8,-0.2 0.7,1.3 0.8,2 0.7,2.7 0.8,3.5 0.7,3.8 0.8,3.1 0.7,2.6 0.8,2.8 0.7,1 0.7,-1.5 0.8,-1.7 0.7,-3 0.8,-4.3 0.7,-4.1 0.8,-3.7 0.7,-2.9 0.8,-1.6 0.7,-0.6 0.8,0.5 0.7,1.6 0.8,2.7 0.7,2.5 0.8,2.6 0.7,2 0.8,0.4 0.7,1 0.8,1.1 0.7,-0.5 0.8,0 0.7,0 0.7,0.2 0.8,1 0.7,0.4 0.8,0 0.7,-0.1 0.8,-0.2 0.7,-1.4 0.8,-1.8 0.7,-1 0.8,-1.3 0.7,-1.2 0.8,-0.5 0.7,-0.1 0.8,0.8 0.7,1.6 0.8,2 0.7,2.2 0.8,1.2 0.7,0.2 0.8,0.5 0.7,0.4 0.7,-0.4 0.8,-1.1 0.7,-0.9 0.8,-1.3 0.7,-0.5 0.8,0.4 0.7,0.6 0.8,1.5 0.7,0.8 0.8,1.6 0.7,2 0.8,1.5 0.7,1.4 0.8,2.1 0.7,1.2 0.8,-0.2 0.7,-0.9 0.8,-1.1 0.7,-1.1 0.7,-1.8 0.8,-2.3 0.7,-3.4 0.8,-2.4 0.7,-2 0.8,-1.6 0.7,-0.1 0.8,-0.6 0.7,0.2 0.8,0.6 0.7,0.2 0.8,0.4 0.7,0.4 0.8,0.4 0.7,0.2 0.8,-0.5 0.7,0 0.8,1 0.7,1.1 0.8,2.2 0.7,1.4 0.7,2.1 0.8,2.3 0.7,1.5 0.8,2.3 0.7,1 0.8,0.6 0.7,0.1 0.8,-1.4 0.7,-1.1 0.8,-1.9 0.7,-2.6 0.8,-2.1 0.7,-2.9 0.8,-2.3 0.7,-1.8 0.8,-1 0.7,0 0.8,0.7 0.7,0.9 0.8,1.2 0.7,1.2 0.7,1.8 0.8,0.4 0.7,0.2 0.8,-0.3 0.7,-1 0.8,-1.4 0.7,-1.7 0.8,-2 0.7,-1.4 0.8,-1.7 0.7,-0.8 0.8,-1.2 0.7,-0.3 0.8,0 0.7,-0.3 0.8,0.2 0.7,0 0.8,-0.7 0.7,0.1 0.8,-0.6 0.7,-0.3 0.7,-1 0.8,-0.2 0.7,-0.9 0.8,-0.4 0.7,-0.5 0.8,0.4 0.7,0 0.8,0.4 0.7,0.8 0.8,1.2 0.7,2.7 0.8,2.3 0.7,2.5 0.8,3 0.7,3.4 0.8,2.9 0.7,1.4 0.8,1.9 0.7,0.8 0.8,0.1 0.7,-0.8 0.7,-1.3 0.8,-1.1 0.7,-1 0.8,-0.1 0.7,-0.6 0.8,-0.4 0.7,-0.7 0.8,0.8 0.7,0.6 0.8,-0.1 0.7,-0.8 0.8,0.4 0.7,-0.3 0.8,-0.6 0.7,0.3 0.8,0.3 0.7,0 0.8,0.5 0.7,-0.3 0.7,0.1 0.8,-0.5 0.7,0.2 0.8,-0.2 0.7,-0.5 0.8,-0.3 0.7,-0.8 0.8,0.1 0.7,0.4 0.8,0 0.7,0.2 0.8,0.6 0.7,0.2 0.8,0.7 0.7,1.1 0.8,0.9 0.7,0.8 0.8,1.2 0.7,0.3 0.8,0.6 0.7,1.2 0.7,0.9 0.8,-0.3 0.7,0.1 0.8,-0.8 0.7,-1.2 0.8,-1.1 0.7,-1.3 0.8,-2.5 0.7,-1.8 0.8,-2.4 0.7,-2 0.8,-1.1 0.7,-0.7 0.8,0.1 0.7,1.1 0.8,0.7 0.7,1.2 0.8,0.9 0.7,1.7 0.8,0.8 0.7,-0.1 0.7,-0.8 0.8,-1 0.7,-0.9 0.8,-1.5 0.7,-0.4 0.8,-0.1 0.7,0.1 0.8,0.5 0.7,2.1 0.8,1.7 0.7,2.3 0.8,1.9 0.7,0.9 0.8,1.1 0.7,-0.7 0.8,-0.7 0.7,-0.9 0.8,-1.6 0.7,-2.8 0.8,-2.1 0.7,-2.1 0.7,-2.8 0.8,-1.5 0.7,-1.5 0.8,-0.8 0.7,-1.5 0.8,-1 0.7,-0.3 0.8,0.6 0.7,0.8 0.8,0.9 0.7,1.4 0.8,0.8 0.7,0.7 0.8,0.8 0.7,1.2 0.8,-0.9 0.7,-0.9 0.8,-0.5 0.7,-0.9 0.8,-0.2 0.7,-0.2 0.7,0.9 0.8,1.6 0.7,1.8 0.8,2.9 0.7,3.5 0.8,3.2 0.7,2.6 0.8,2.4 0.7,2 0.8,0.3 0.7,0.1 0.8,0.5 0.7,-0.8 0.8,-1.5 0.7,-1 0.8,-1.1 0.7,-0.2 0.8,-0.3 0.7,0.2 0.8,-0.3 0.7,-0.4 0.7,-0.5 0.8,-0.1 0.7,-0.5 0.8,-1 0.7,-1.5 0.8,-0.4 0.7,-0.6 0.8,-0.9 0.7,0.3 0.8,1 0.7,0.6 0.8,0.7 0.7,1.1 0.8,0.8 0.7,0.2 0.8,0.1 0.7,-0.8 0.8,-2 0.7,-3.2 0.7,-3.2 0.8,-4.2 0.7,-3.7 0.8,-4.4 0.7,-3.6 0.8,-2.3 0.7,-1.3 0.8,-0.7 0.7,0.5 0.8,1.6 0.7,1.9 0.8,2.8 0.7,2.4 0.8,2.2 0.7,2 0.8,2.2 0.7,1.7 0.8,1.7 0.7,2.4 0.8,2.4 0.7,2.4 0.7,2.7 0.8,2.4 0.7,1.9 0.8,1.8 0.7,1.2 0.8,0.5 0.7,-1 0.8,-1.1 0.7,-1.8 0.8,-2.3 0.7,-2.8 0.8,-2.5 0.7,-1.8 0.8,-1.8 0.7,-0.8 0.8,-0.5 0.7,0.6 0.8,0.8 0.7,1.7 0.8,1.6 0.7,1.5 0.7,1.1 0.8,1.2 0.7,0.5 0.8,-0.5 0.7,-0.7 0.8,-0.3 0.7,-0.9 0.8,-1 0.7,-0.8 0.8,-0.2 0.7,-0.2 0.8,-0.2 0.7,0.1 0.8,-0.1 0.7,0.1 0.8,0.6 0.7,0.2 0.8,-0.4 0.7,-1 0.8,-0.7 0.7,-0.2 0.7,-0.2 0.8,-0.7 0.7,-0.3 0.8,0.1 0.7,0.1 0.8,-0.1 0.7,0.6 0.8,0.7 0.7,0.4 0.8,0.1 0.7,-0.4 0.8,-0.7 0.7,-0.7 0.8,-0.8 0.7,-1.3 0.8,-1.1 0.7,-2 0.8,-1.5 0.7,-0.9 0.8,-1 0.7,-0.5 0.7,-0.2 0.8,0.8 0.7,1.1 0.8,1.7 0.7,1.9 0.8,2.3 0.7,2.4 0.8,2.4 0.7,1.2 0.8,1.9 0.7,0.6 0.8,-0.2 0.7,-0.3 0.8,-1.4 0.7,-1.1 0.8,-1.4 0.7,-0.6 0.8,-0.1 0.7,0.1 0.7,1.6 0.8,2.1 0.7,3 0.8,2.7 0.7,3.2 0.8,2.2 0.7,2.3 0.8,0.6 0.7,-0.2 0.8,-0.7 0.7,-1.5 0.8,-2 0.7,-3.1 0.8,-2.7 0.7,-2.9 0.8,-3.1 0.7,-2.4 0.8,-2.2 0.7,-1.4 0.8,-0.7 0.7,0.5 0.7,0.2 0.8,2.3 0.7,2 0.8,2 0.7,1.9 0.8,0.7 0.7,0 0.8,-0.5 0.7,-0.8 0.8,-1.6 0.7,-1.6 0.8,-0.4 0.7,-1.1 0.8,0.2 0.7,0.4 0.8,1.1 0.7,0.2 0.8,0.9 0.7,-1 0.8,-1.7 0.7,-1.8 0.7,-2 0.8,-2 0.7,-2.2 0.8,-1.7 0.7,-1.1 0.8,0.4 0.7,0 0.8,0.7 0.7,1 0.8,0.6 0.7,0.6 0.8,0 0.7,-0.4 0.8,-1.4 0.7,-0.7 0.8,-1 0.7,-0.7 0.8,-0.5 0.7,0.2 0.8,0.5 0.7,1.1 0.7,1.9 0.8,1.8 0.7,3 0.8,2.3 0.7,2.4 0.8,1.5 0.7,1.9 0.8,1.1 0.7,1 0.8,0.1 0.7,-0.8 0.8,-1.3 0.7,-2.6 0.8,-2 0.7,-2 0.8,-1.9 0.7,-1.9 0.8,-2.7 0.7,-1.2 0.8,-1.4 0.7,-0.4 0.7,-0.4 0.8,-0.4 0.7,0.1 0.8,0.6 0.7,0.5 0.8,0.7 0.7,1.4 0.8,1.3 0.7,1.6 0.8,1.2 0.7,0.8 0.8,-0.3 0.7,-0.2 0.8,-0.2 0.7,-1.7 0.8,-0.7 0.7,-0.3 0.8,-0.1 0.7,0.4 0.7,0.7 0.8,1.1 0.7,1.7 0.8,0.8 0.7,0.4 0.8,0.6 0.7,-0.4 0.8,-1 0.7,-1 0.8,-0.1 0.7,-0.2 0.8,0.4 0.7,1.1 0.8,1.4 0.7,1.1 0.8,1.6 0.7,1.4 0.8,1.1 0.7,0.4 0.8,0.6 0.7,0.1 0.7,-0.9 0.8,-0.6 0.7,-0.6 0.8,-0.5 0.7,-0.4 0.8,-0.1 0.7,-0.6 0.8,0 0.7,0.4 0.8,-0.1 0.7,0.2 0.8,0.3 0.7,-0.1 0.8,-0.1 0.7,-0.5 0.8,-1 0.7,0 0.8,0.5 0.7,-0.6 0.8,0.8 0.7,1 0.7,1.2 0.8,1.9 0.7,1.8 0.8,1.8 0.7,0.9 0.8,0.9 0.7,0.3 0.8,-0.9 0.7,-0.9 0.8,-1.8 0.7,-2 0.8,-2.3 0.7,-2.6 0.8,-2.3 0.7,-1.4 0.8,-2.4 0.7,-0.8 0.8,-0.8 0.7,-0.4 0.8,0.2 0.7,-0.2 0.7,0.3 0.8,0.7 0.7,0.7 0.8,0.5 0.7,0.7 0.8,0.8 0.7,1.1 0.8,1.2 0.7,1.5 0.8,2.2 0.7,2.3 0.8,2.1 0.7,1.6 0.8,1.5 0.7,0.5 0.8,0.7 0.7,-0.5 0.8,-0.9 0.7,-1.8 0.8,-1.5 0.7,-1.2 0.7,-1.2 0.8,-0.5 0.7,0.1 0.8,0 0.7,-0.3 0.8,-0.1 0.7,-0.7 0.8,-1 0.7,-2.5 0.8,-1.8 0.7,-1.5 0.8,-1.9 0.7,-0.6 0.8,-0.1 0.7,1.1 0.8,1.8 0.7,2.5 0.8,2.4 0.7,2.4 0.7,1 0.8,0.5 0.7,0 0.8,-1.7 0.7,-1.2 0.8,-1.7 0.7,-1.2 0.8,-1.6 0.7,-0.6 0.8,0.6 0.7,1.3 0.8,0.8 0.7,0.9 0.8,0.5 0.7,0.7 0.8,-0.3 0.7,-1.1 0.8,-1.1 0.7,-1.5 0.8,-1.6 0.7,-1 0.7,-1.3 0.8,-0.5 0.7,-0.1 0.8,0.6 0.7,0.6 0.8,0.4 0.7,0.7"
     id="path88"
     inkscape:connector-curvature="0" />
  <g
     id="layer1"
     inkscape:label="Layer 1"
     transform="matrix(2.5,0,0,2.5,-11.391972,291.81301)">
    <g
       id="g4940"
       transform="matrix(0.40000001,0,0,0.40000001,1.7218354,-81.033728)">
      <text
         xml:space="preserve"
         style="color:#000000;font-style:normal;font-variant:normal;font-weight:normal;font-stretch:normal;font-size:37.5px;line-height:100%;font-family:Arial;-inkscape-font-specification:Arial;text-indent:0;text-align:start;text-decoration:none;text-decoration-line:none;letter-spacing:0px;word-spacing:0px;text-transform:none;direction:ltr;block-progression:tb;writing-mode:lr-tb;text-anchor:start;display:inline;overflow:visible;visibility:visible;fill:#000000;fill-opacity:1;fill-rule:nonzero;stroke:none;stroke-width:1px;stroke-linecap:butt;stroke-linejoin:miter;stroke-opacity:1;marker:none;enable-background:accumulate"
         x="832.57562"
         y="1861.0986"
         id="text4830"
         sodipodi:linespacing="100%"><tspan
           sodipodi:role="line"
           id="tspan4832"
           x="832.57562"
           y="1861.0986">test</tspan></text>
      <text
         xml:space="preserve"
         style="color:#000000;font-style:normal;font-variant:normal;font-weight:normal;font-stretch:normal;font-size:37.5px;line-height:100%;font-family:Arial;-inkscape-font-specification:Arial;text-indent:0;text-align:start;text-decoration:none;text-decoration-line:none;letter-spacing:0px;word-spacing:0px;text-transform:none;direction:ltr;block-progression:tb;writing-mode:lr-tb;text-anchor:start;display:inline;overflow:visible;visibility:visible;fill:#000000;fill-opacity:1;fill-rule:nonzero;stroke:none;stroke-width:1px;stroke-linecap:butt;stroke-linejoin:miter;stroke-opacity:1;marker:none;enable-background:accumulate"
         x="832.57562"
         y="1818.9769"
         id="text6242"
         sodipodi:linespacing="100%"><tspan
           sodipodi:role="line"
           id="tspan6244"
           x="832.57562"
           y="1818.9769">train</tspan></text>
      <path
         style="opacity:1;fill:none;fill-opacity:1;fill-rule:nonzero;stroke:#000000;stroke-width:2.5;stroke-linecap:butt;stroke-linejoin:miter;stroke-miterlimit:4;stroke-dasharray:none;stroke-dashoffset:0;stroke-opacity:1"
         d="m 819.13256,1810.0149 -34.95205,0"
         id="path4884"
         inkscape:connector-curvature="0" />
      <path
         inkscape:connector-curvature="0"
         id="path4886"
         d="m 819.13256,1847.6556 -34.95205,0"
         style="opacity:1;fill:none;fill-opacity:1;fill-rule:nonzero;stroke:#000000;stroke-width:2.5;stroke-linecap:butt;stroke-linejoin:miter;stroke-miterlimit:4;stroke-dasharray:7.49999989, 7.49999989;stroke-dashoffset:0;stroke-opacity:1" />
    </g>
  </g>
</svg>
