<?xml version="1.0" encoding="UTF-8" standalone="no"?>
<!-- Created with Inkscape (http://www.inkscape.org/) -->

<svg
   xmlns:dc="http://purl.org/dc/elements/1.1/"
   xmlns:cc="http://creativecommons.org/ns#"
   xmlns:rdf="http://www.w3.org/1999/02/22-rdf-syntax-ns#"
   xmlns:svg="http://www.w3.org/2000/svg"
   xmlns="http://www.w3.org/2000/svg"
   xmlns:sodipodi="http://sodipodi.sourceforge.net/DTD/sodipodi-0.dtd"
   xmlns:inkscape="http://www.inkscape.org/namespaces/inkscape"
   id="svg2"
   version="1.1"
   inkscape:version="0.91 r13725"
   width="638.03925"
   height="498.38342"
   xml:space="preserve"
   sodipodi:docname="fig_stroop_data.svg"
   inkscape:export-filename="/Users/oreilly/svn_docs/figs/fig_stroop_data.png"
   inkscape:export-xdpi="150"
   inkscape:export-ydpi="150"><metadata
     id="metadata8"><rdf:RDF><cc:Work
         rdf:about=""><dc:format>image/svg+xml</dc:format><dc:type
           rdf:resource="http://purl.org/dc/dcmitype/StillImage" /><dc:title /></cc:Work></rdf:RDF></metadata><defs
     id="defs6"><marker
       inkscape:isstock="true"
       style="overflow:visible;"
       id="marker4558"
       refX="0.0"
       refY="0.0"
       orient="auto"
       inkscape:stockid="Arrow1Mend"><path
         transform="scale(0.4) rotate(180) translate(10,0)"
         style="fill-rule:evenodd;stroke:#000000;stroke-width:1pt;stroke-opacity:1;fill:#0000ff;fill-opacity:1"
         d="M 0.0,0.0 L 5.0,-5.0 L -12.5,0.0 L 5.0,5.0 L 0.0,0.0 z "
         id="path4560" /></marker><marker
       inkscape:stockid="Arrow1Mend"
       orient="auto"
       refY="0.0"
       refX="0.0"
       id="Arrow1Mend"
       style="overflow:visible;"
       inkscape:isstock="true"
       inkscape:collect="always"><path
         id="path4229"
         d="M 0.0,0.0 L 5.0,-5.0 L -12.5,0.0 L 5.0,5.0 L 0.0,0.0 z "
         style="fill-rule:evenodd;stroke:#000000;stroke-width:1pt;stroke-opacity:1;fill:#0000ff;fill-opacity:1"
         transform="scale(0.4) rotate(180) translate(10,0)" /></marker><inkscape:perspective
       id="perspective10"
       inkscape:persp3d-origin="0.5 : 0.33333333 : 1"
       inkscape:vp_z="1 : 0.5 : 1"
       inkscape:vp_y="0 : 1000 : 0"
       inkscape:vp_x="0 : 0.5 : 1"
       sodipodi:type="inkscape:persp3d" /></defs><sodipodi:namedview
     pagecolor="#ffffff"
     bordercolor="#666666"
     borderopacity="1"
     objecttolerance="10"
     gridtolerance="10"
     guidetolerance="10"
     inkscape:pageopacity="0"
     inkscape:pageshadow="2"
     inkscape:window-width="640"
     inkscape:window-height="480"
     id="namedview4"
     showgrid="false"
     inkscape:zoom="1.3390071"
     inkscape:cx="239.74265"
     inkscape:cy="255.16628"
     inkscape:current-layer="g10"
     fit-margin-top="0"
     fit-margin-left="0"
     fit-margin-right="0"
     fit-margin-bottom="0" /><g
     id="g10"
     inkscape:groupmode="layer"
     inkscape:label="fig_stroop"
     transform="matrix(1.25,0,0,-1.25,291.01384,331.34216)"><flowRoot
       xml:space="preserve"
       id="flowRoot3041"
       style="color:#000000;font-style:normal;font-variant:normal;font-weight:normal;font-stretch:normal;font-size:12px;line-height:125%;font-family:Arial;-inkscape-font-specification:Arial;text-indent:0;text-align:start;text-decoration:none;text-decoration-line:none;letter-spacing:0px;word-spacing:0px;text-transform:none;direction:ltr;block-progression:tb;writing-mode:lr-tb;text-anchor:start;display:inline;overflow:visible;visibility:visible;fill:#000000;fill-opacity:1;fill-rule:nonzero;stroke:none;stroke-width:1px;stroke-linecap:butt;stroke-linejoin:miter;stroke-opacity:1;marker:none;enable-background:accumulate"><flowRegion
         id="flowRegion3043"><rect
           id="rect3045"
           width="164.30084"
           height="251.67903"
           x="130.69386"
           y="-27.632416" /></flowRegion><flowPara
         id="flowPara3047" /></flowRoot><rect
       style="opacity:1;fill:#ffffff;fill-opacity:1;fill-rule:nonzero;stroke:#ffffff;stroke-width:0.80940872;stroke-linecap:butt;stroke-linejoin:miter;stroke-miterlimit:4;stroke-dasharray:none;stroke-dashoffset:0;stroke-opacity:1"
       id="rect4539"
       width="509.62198"
       height="397.89734"
       x="-232.40637"
       y="-264.66904"
       transform="scale(1,-1)" /><path
       id="path16"
       style="fill:none;stroke:#000000;stroke-width:1.43999994;stroke-linecap:round;stroke-linejoin:miter;stroke-miterlimit:10;stroke-dasharray:none;stroke-opacity:1"
       d="m -99.41985,-63.858075 0,2.4 m 156.24,-2.4 0,2.4 m 156.48,-2.4 0,2.4 m -312.72,281.280095 0,-2.39999 m 156.24,2.39999 0,-2.39999 m 156.48,2.39999 0,-2.39999"
       inkscape:connector-curvature="0" /><path
       id="path18"
       style="fill:none;stroke:#000000;stroke-width:1.43999994;stroke-linecap:round;stroke-linejoin:miter;stroke-miterlimit:10;stroke-dasharray:none;stroke-opacity:1"
       d="m -99.41985,-63.858075 0,4.8 m 156.24,-4.8 0,4.8 m 156.48,-4.8 0,4.8 m -312.72,278.880105 0,-4.8 m 156.24,4.8 0,-4.8 m 156.48,4.8 0,-4.8"
       inkscape:connector-curvature="0" /><text
       transform="scale(1,-1)"
       id="text22"
       x="-134.22736"
       y="89.058075"><tspan
         style="font-variant:normal;font-weight:normal;font-size:21.60000038px;font-family:Helvetica;-inkscape-font-specification:Helvetica;writing-mode:lr-tb;fill:#000000;fill-opacity:1;fill-rule:nonzero;stroke:none"
         x="-134.22736 -118.63216 -106.62255 -94.612938 -88.608147 -81.415337 -69.405754 20.814003 36.409203 48.4188 60.428398 66.433189 71.228401 76.023598 86.823601 162.87567 178.47089 190.48048 202.49008 214.49966 221.69247 233.70209 245.71167 257.72128"
         y="89.058075"
         sodipodi:role="line"
         id="tspan24">ControlConflictCongruent</tspan></text>
<path
       id="path30"
       style="fill:none;stroke:#000000;stroke-width:1.43999994;stroke-linecap:round;stroke-linejoin:miter;stroke-miterlimit:10;stroke-dasharray:none;stroke-opacity:1"
       d="m -138.53985,-63.858075 2.4,0 m -2.4,15.8403 2.4,0 m -2.4,15.8398 2.4,0 m -2.4,15.6 2.4,0 m -2.4,15.84 2.4,0 m -2.4,15.6 2.4,0 m -2.4,15.84 2.4,0 m -2.4,15.84 2.4,0 m -2.4,15.6 2.4,0 m -2.4,15.84 2.4,0 m -2.4,15.84 2.4,0 m -2.4,15.599995 2.4,0 m -2.4,15.84 2.4,0 m -2.4,15.6 2.4,0 m -2.4,15.84 2.4,0 m -2.4,15.84 2.4,0 m -2.4,15.6 2.4,0 m -2.4,15.84 2.4,0 m -2.4,15.84 2.4,0 m 388.56,-283.680095 -2.4,0 m 2.4,15.8403 -2.4,0 m 2.4,15.8398 -2.4,0 m 2.4,15.6 -2.4,0 m 2.4,15.84 -2.4,0 m 2.4,15.6 -2.4,0 m 2.4,15.84 -2.4,0 m 2.4,15.84 -2.4,0 m 2.4,15.6 -2.4,0 m 2.4,15.84 -2.4,0 m 2.4,15.84 -2.4,0 m 2.4,15.599995 -2.4,0 m 2.4,15.84 -2.4,0 m 2.4,15.6 -2.4,0 m 2.4,15.84 -2.4,0 m 2.4,15.84 -2.4,0 m 2.4,15.6 -2.4,0 m 2.4,15.84 -2.4,0 m 2.4,15.84 -2.4,0"
       inkscape:connector-curvature="0" /><path
       id="path32"
       style="fill:none;stroke:#000000;stroke-width:1.43999994;stroke-linecap:round;stroke-linejoin:miter;stroke-miterlimit:10;stroke-dasharray:none;stroke-opacity:1"
       d="m -138.53985,-32.177975 4.8,0 m -4.8,62.88 4.8,0 m -4.8,63.12 4.8,0 m -4.8,62.879995 4.8,0 m -4.8,63.12 4.8,0 m 386.16,-251.999995 -4.8,0 m 4.8,62.88 -4.8,0 m 4.8,63.12 -4.8,0 m 4.8,62.879995 -4.8,0 m 4.8,63.12 -4.8,0"
       inkscape:connector-curvature="0" /><g
       transform="translate(-225.13985,-134.17797)"
       id="g34"><text
         id="text36"
         transform="matrix(1,0,0,-1,36.652,94.8)"><tspan
           id="tspan38"
           sodipodi:role="line"
           y="0"
           x="0 12.0096 24.019199"
           style="font-variant:normal;font-weight:normal;font-size:21.60000038px;font-family:Helvetica;-inkscape-font-specification:Helvetica;writing-mode:lr-tb;fill:#000000;fill-opacity:1;fill-rule:nonzero;stroke:none">500</tspan><tspan
           id="tspan40"
           sodipodi:role="line"
           y="-62.8801"
           x="0 12.0096 24.019199"
           style="font-variant:normal;font-weight:normal;font-size:21.60000038px;font-family:Helvetica;-inkscape-font-specification:Helvetica;writing-mode:lr-tb;fill:#000000;fill-opacity:1;fill-rule:nonzero;stroke:none">600</tspan><tspan
           id="tspan42"
           sodipodi:role="line"
           y="-126"
           x="0 12.0096 24.019199"
           style="font-variant:normal;font-weight:normal;font-size:21.60000038px;font-family:Helvetica;-inkscape-font-specification:Helvetica;writing-mode:lr-tb;fill:#000000;fill-opacity:1;fill-rule:nonzero;stroke:none">700</tspan><tspan
           id="tspan44"
           sodipodi:role="line"
           y="-188.8801"
           x="0 12.0096 24.019199"
           style="font-variant:normal;font-weight:normal;font-size:21.60000038px;font-family:Helvetica;-inkscape-font-specification:Helvetica;writing-mode:lr-tb;fill:#000000;fill-opacity:1;fill-rule:nonzero;stroke:none">800</tspan><tspan
           id="tspan46"
           sodipodi:role="line"
           y="-252"
           x="0 12.0096 24.019199"
           style="font-variant:normal;font-weight:normal;font-size:21.60000038px;font-family:Helvetica;-inkscape-font-specification:Helvetica;writing-mode:lr-tb;fill:#000000;fill-opacity:1;fill-rule:nonzero;stroke:none">900</tspan></text>
<text
         id="text48"
         transform="matrix(0,1,1,0,18.4398,100.533)"><tspan
           id="tspan50"
           sodipodi:role="line"
           y="0"
           x="0 15.5952 27.604799 39.614399 51.624001 58.816799 64.821602 78.019203 91.216797 97.221603 110.4192 116.424 135.6264 147.636 153.64079 160.8336 180.036 192.04559 204.05521 216.0648"
           style="font-variant:normal;font-weight:bold;font-size:21.60000038px;font-family:Helvetica;-inkscape-font-specification:Helvetica-Bold;writing-mode:lr-tb;fill:#000000;fill-opacity:1;fill-rule:nonzero;stroke:none">Reaction Time (msec)</tspan></text>
<text
         id="text52"
         transform="matrix(1,0,0,-1,94.141,372)"><tspan
           id="tspan54"
           sodipodi:role="line"
           y="0"
           x="0 14.4072 21.6 30.002399 43.200001 56.397598 69.5952 75.599998 91.195198 103.2048 110.3976 122.4072 128.412 135.6048 151.2 164.3976 177.5952 190.7928 202.8024 211.2048 217.20959 232.80479 238.8096 256.8024 268.81201 280.82159 294.0192 306.02881 319.22641 332.42401 338.4288 344.43359 356.44321 368.45279"
           style="font-variant:normal;font-weight:bold;font-size:21.60000038px;font-family:Helvetica;-inkscape-font-specification:Helvetica-Bold;writing-mode:lr-tb;fill:#000000;fill-opacity:1;fill-rule:nonzero;stroke:none">Stroop Data (Dunbar &amp; MacLeod, 84)</tspan></text>
</g><path
       id="path56"
       style="fill:none;stroke:#000000;stroke-width:1.43999994;stroke-linecap:round;stroke-linejoin:miter;stroke-miterlimit:10;stroke-dasharray:none;stroke-opacity:1"
       d="m -99.41985,62.142025 156.24,125.999995 156.48,-173.279995"
       inkscape:connector-curvature="0" /><path
       id="path58"
       style="fill:#ffffff;fill-opacity:1;fill-rule:nonzero;stroke:none"
       d="m -103.25985,58.302025 7.68008,0 0,7.68008 -7.68008,0 0,-7.68008 z"
       inkscape:connector-curvature="0" /><path
       id="path60"
       style="fill:none;stroke:#000000;stroke-width:1.43999994;stroke-linecap:round;stroke-linejoin:miter;stroke-miterlimit:10;stroke-dasharray:none;stroke-opacity:1"
       d="m -103.25985,58.302025 7.68008,0 0,7.68008 -7.68008,0 0,-7.68008 z"
       inkscape:connector-curvature="0" /><path
       id="path62"
       style="fill:#ffffff;fill-opacity:1;fill-rule:nonzero;stroke:none"
       d="m 52.98015,184.30203 7.68008,0 0,7.68007 -7.68008,0 0,-7.68007 z"
       inkscape:connector-curvature="0" /><path
       id="path64"
       style="fill:none;stroke:#000000;stroke-width:1.43999994;stroke-linecap:round;stroke-linejoin:miter;stroke-miterlimit:10;stroke-dasharray:none;stroke-opacity:1"
       d="m 52.98015,184.30203 7.68008,0 0,7.68007 -7.68008,0 0,-7.68007 z"
       inkscape:connector-curvature="0" /><path
       id="path66"
       style="fill:#ffffff;fill-opacity:1;fill-rule:nonzero;stroke:none"
       d="m 209.46015,11.022025 7.68008,0 0,7.68008 -7.68008,0 0,-7.68008 z"
       inkscape:connector-curvature="0" /><path
       id="path68"
       style="fill:none;stroke:#000000;stroke-width:1.43999994;stroke-linecap:round;stroke-linejoin:miter;stroke-miterlimit:10;stroke-dasharray:none;stroke-opacity:1"
       d="m 209.46015,11.022025 7.68008,0 0,7.68008 -7.68008,0 0,-7.68008 z"
       inkscape:connector-curvature="0" /><path
       id="path70"
       style="fill:none;stroke:#000000;stroke-width:1.43999994;stroke-linecap:round;stroke-linejoin:miter;stroke-miterlimit:10;stroke-dasharray:none;stroke-opacity:1"
       d="m -99.41985,-30.497975 156.24,10.8 156.48,-12.48"
       inkscape:connector-curvature="0" /><path
       id="path72"
       style="fill:#000000;fill-opacity:1;fill-rule:nonzero;stroke:none"
       d="m -94.61985,-30.497975 c 0,2.651 -2.149,4.8 -4.8,4.8 -2.651,0 -4.8,-2.149 -4.8,-4.8 0,-2.651 2.149,-4.7999 4.8,-4.7999 2.651,0 4.8,2.1489 4.8,4.7999"
       inkscape:connector-curvature="0" /><path
       id="path74"
       style="fill:none;stroke:#000000;stroke-width:1.43999994;stroke-linecap:round;stroke-linejoin:miter;stroke-miterlimit:10;stroke-dasharray:none;stroke-opacity:1"
       d="m -94.61985,-30.497975 c 0,2.651 -2.149,4.8 -4.8,4.8 -2.651,0 -4.8,-2.149 -4.8,-4.8 0,-2.651 2.149,-4.7999 4.8,-4.7999 2.651,0 4.8,2.1489 4.8,4.7999"
       inkscape:connector-curvature="0" /><path
       id="path76"
       style="fill:#000000;fill-opacity:1;fill-rule:nonzero;stroke:none"
       d="m 61.62015,-19.697975 c 0,2.651 -2.149,4.8 -4.8,4.8 -2.651,0 -4.8,-2.149 -4.8,-4.8 0,-2.651 2.149,-4.8 4.8,-4.8 2.651,0 4.8,2.149 4.8,4.8"
       inkscape:connector-curvature="0" /><path
       id="path78"
       style="fill:none;stroke:#000000;stroke-width:1.43999994;stroke-linecap:round;stroke-linejoin:miter;stroke-miterlimit:10;stroke-dasharray:none;stroke-opacity:1"
       d="m 61.62015,-19.697975 c 0,2.651 -2.149,4.8 -4.8,4.8 -2.651,0 -4.8,-2.149 -4.8,-4.8 0,-2.651 2.149,-4.8 4.8,-4.8 2.651,0 4.8,2.149 4.8,4.8"
       inkscape:connector-curvature="0" /><path
       id="path80"
       style="fill:#000000;fill-opacity:1;fill-rule:nonzero;stroke:none"
       d="m 218.10015,-32.177975 c 0,2.651 -2.149,4.8 -4.8,4.8 -2.651,0 -4.8,-2.149 -4.8,-4.8 0,-2.6508 2.149,-4.8 4.8,-4.8 2.651,0 4.8,2.1492 4.8,4.8"
       inkscape:connector-curvature="0" /><path
       id="path82"
       style="fill:none;stroke:#000000;stroke-width:1.43999994;stroke-linecap:round;stroke-linejoin:miter;stroke-miterlimit:10;stroke-dasharray:none;stroke-opacity:1"
       d="m 218.10015,-32.177975 c 0,2.651 -2.149,4.8 -4.8,4.8 -2.651,0 -4.8,-2.149 -4.8,-4.8 0,-2.6508 2.149,-4.8 4.8,-4.8 2.651,0 4.8,2.1492 4.8,4.8"
       inkscape:connector-curvature="0" /><path
       id="path84"
       style="fill:none;stroke:#000000;stroke-width:1.43999994;stroke-linecap:round;stroke-linejoin:miter;stroke-miterlimit:10;stroke-dasharray:none;stroke-opacity:1"
       d="m -138.53985,-63.858075 0,283.680095 390.96,0 0,-283.680095 -390.96,0"
       inkscape:connector-curvature="0" /><text
       xml:space="preserve"
       style="color:#000000;font-style:normal;font-variant:normal;font-weight:normal;font-stretch:normal;font-size:9.60000038px;line-height:125%;font-family:Arial;-inkscape-font-specification:Arial;text-indent:0;text-align:start;text-decoration:none;text-decoration-line:none;letter-spacing:0px;word-spacing:0px;text-transform:none;direction:ltr;block-progression:tb;writing-mode:lr-tb;text-anchor:start;display:inline;overflow:visible;visibility:visible;fill:#be00fe;fill-opacity:1;fill-rule:nonzero;stroke:#be00fe;stroke-width:0.80000001px;stroke-opacity:1;marker:none;enable-background:accumulate"
       x="179.83472"
       y="117.89832"
       id="text3025"
       sodipodi:linespacing="125%"
       transform="scale(1,-1)"><tspan
         sodipodi:role="line"
         id="tspan3027"
         x="179.83472"
         y="117.89832"
         style="font-size:25.60000038px;fill:#be00fe;fill-opacity:1;stroke:#be00fe;stroke-width:0.80000001;stroke-opacity:1">Purple</tspan></text>
<text
       xml:space="preserve"
       style="color:#000000;font-style:normal;font-variant:normal;font-weight:normal;font-stretch:normal;font-size:9.60000038px;line-height:125%;font-family:Arial;-inkscape-font-specification:Arial;text-indent:0;text-align:start;text-decoration:none;text-decoration-line:none;letter-spacing:0px;word-spacing:0px;text-transform:none;direction:ltr;block-progression:tb;writing-mode:lr-tb;text-anchor:start;display:inline;overflow:visible;visibility:visible;fill:#ff0000;fill-opacity:1;fill-rule:nonzero;stroke:#ff0000;stroke-width:1px;stroke-opacity:1;marker:none;enable-background:accumulate"
       x="21.541267"
       y="117.89832"
       id="text3033"
       sodipodi:linespacing="125%"
       transform="scale(1,-1)"><tspan
         sodipodi:role="line"
         id="tspan3035"
         x="21.541267"
         y="117.89832"
         style="font-size:25.60000038px;fill:#ff0000;fill-opacity:1;stroke:#ff0000;stroke-opacity:1">Green</tspan></text>
<path
       id="path94"
       style="fill:#ffffff;fill-opacity:1;fill-rule:nonzero;stroke:none"
       d="m -31.13985,55.863891 7.68008,0 0,7.68008 -7.68008,0 0,-7.68008 z"
       inkscape:connector-curvature="0" /><path
       id="path98"
       style="fill:#ffffff;fill-opacity:1;fill-rule:nonzero;stroke:none"
       d="m 11.10015,55.863891 7.68008,0 0,7.68008 -7.68008,0 0,-7.68008 z"
       inkscape:connector-curvature="0" /><text
       xml:space="preserve"
       style="color:#000000;font-style:normal;font-variant:normal;font-weight:normal;font-stretch:normal;font-size:24px;line-height:100%;font-family:Arial;-inkscape-font-specification:'Arial, Normal';text-indent:0;text-align:start;text-decoration:none;text-decoration-line:none;letter-spacing:0px;word-spacing:0px;text-transform:none;direction:ltr;block-progression:tb;writing-mode:lr-tb;text-anchor:start;display:inline;overflow:visible;visibility:visible;fill:#000000;fill-opacity:1;fill-rule:nonzero;stroke:none;stroke-width:1px;stroke-linecap:butt;stroke-linejoin:miter;stroke-opacity:1;marker:none;enable-background:accumulate"
       x="-115.30933"
       y="-173.94797"
       id="text4512"
       sodipodi:linespacing="100%"
       transform="scale(1,-1)"><tspan
         sodipodi:role="line"
         id="tspan4514"
         x="-115.30933"
         y="-173.94797">Name Color</tspan></text>
<text
       xml:space="preserve"
       style="color:#000000;font-style:normal;font-variant:normal;font-weight:normal;font-stretch:normal;font-size:24px;line-height:100%;font-family:Arial;-inkscape-font-specification:'Arial, Normal';text-indent:0;text-align:start;text-decoration:none;text-decoration-line:none;letter-spacing:0px;word-spacing:0px;text-transform:none;direction:ltr;block-progression:tb;writing-mode:lr-tb;text-anchor:start;display:inline;overflow:visible;visibility:visible;fill:#000000;fill-opacity:1;fill-rule:nonzero;stroke:none;stroke-width:1px;stroke-linecap:butt;stroke-linejoin:miter;stroke-opacity:1;marker:none;enable-background:accumulate"
       x="-111.76852"
       y="-2.1290133"
       id="text4516"
       sodipodi:linespacing="100%"
       transform="scale(1,-1)"><tspan
         sodipodi:role="line"
         id="tspan4518"
         x="-111.76852"
         y="-2.1290133">Read Word</tspan></text>
<g
       id="g4767"
       transform="translate(15.533898,97.369921)"><text
         transform="scale(1,-1)"
         sodipodi:linespacing="125%"
         id="text3029"
         y="212.89409"
         x="-187.86165"
         style="color:#000000;font-style:normal;font-variant:normal;font-weight:normal;font-stretch:normal;font-size:9.60000038px;line-height:125%;font-family:Arial;-inkscape-font-specification:Arial;text-indent:0;text-align:start;text-decoration:none;text-decoration-line:none;letter-spacing:0px;word-spacing:0px;text-transform:none;direction:ltr;block-progression:tb;writing-mode:lr-tb;text-anchor:start;display:inline;overflow:visible;visibility:visible;fill:#000000;fill-opacity:1;fill-rule:nonzero;stroke:#000000;stroke-width:1px;stroke-opacity:1;marker:none;enable-background:accumulate"
         xml:space="preserve"><tspan
           style="font-size:25.60000038px;fill:#000000;fill-opacity:1;stroke:#000000;stroke-opacity:1"
           y="212.89409"
           x="-187.86165"
           id="tspan3031"
           sodipodi:role="line">Garden / </tspan></text>
<rect
         transform="scale(1,-1)"
         y="191.78244"
         x="-81.654297"
         height="23.898304"
         width="43.614407"
         id="rect4700"
         style="opacity:1;fill:#0000ff;fill-opacity:1;fill-rule:nonzero;stroke:#ffffff;stroke-width:0.80000001;stroke-linecap:butt;stroke-linejoin:miter;stroke-miterlimit:4;stroke-dasharray:none;stroke-dashoffset:0;stroke-opacity:1" /></g><path
       style="opacity:1;fill:#0000ff;fill-opacity:1;fill-rule:nonzero;stroke:#000000;stroke-width:0.80000001;stroke-linecap:butt;stroke-linejoin:miter;stroke-miterlimit:4;stroke-dasharray:none;stroke-dashoffset:0;stroke-opacity:1;marker-end:url(#Arrow1Mend)"
       d="m -52.378872,169.87546 30.470344,-32.86017"
       id="path4214"
       inkscape:connector-curvature="0" /><path
       inkscape:connector-curvature="0"
       id="path4556"
       d="M -48.794126,-3.3872509 -32.662765,-20.116065"
       style="opacity:1;fill:#0000ff;fill-opacity:1;fill-rule:nonzero;stroke:#000000;stroke-width:0.80000001;stroke-linecap:butt;stroke-linejoin:miter;stroke-miterlimit:4;stroke-dasharray:none;stroke-dashoffset:0;stroke-opacity:1;marker-end:url(#marker4558)"
       sodipodi:nodetypes="cc" /></g></svg>