<?xml version="1.0" encoding="UTF-8" standalone="no"?>
<svg
   xmlns:dc="http://purl.org/dc/elements/1.1/"
   xmlns:cc="http://creativecommons.org/ns#"
   xmlns:rdf="http://www.w3.org/1999/02/22-rdf-syntax-ns#"
   xmlns:svg="http://www.w3.org/2000/svg"
   xmlns="http://www.w3.org/2000/svg"
   xmlns:sodipodi="http://sodipodi.sourceforge.net/DTD/sodipodi-0.dtd"
   xmlns:inkscape="http://www.inkscape.org/namespaces/inkscape"
   version="1.1"
   width="8.5in"
   height="11in"
   viewBox="0 0 1912.5 2475"
   id="svg2"
   inkscape:version="0.91 r13725"
   sodipodi:docname="fig_deepleabra_wwi_noteo_mtdecode.svg"
   inkscape:export-filename="/Users/oreilly/svn_docs/figs/fig_deepleabra_wwi_noteo_mtdecode.png"
   inkscape:export-xdpi="149.95799"
   inkscape:export-ydpi="149.95799">
  <metadata
     id="metadata88">
    <rdf:RDF>
      <cc:Work
         rdf:about="">
        <dc:format>image/svg+xml</dc:format>
        <dc:type
           rdf:resource="http://purl.org/dc/dcmitype/StillImage" />
        <dc:title></dc:title>
      </cc:Work>
    </rdf:RDF>
  </metadata>
  <defs
     id="defs86">
    <marker
       inkscape:stockid="Arrow1Mend"
       orient="auto"
       refY="0"
       refX="0"
       id="marker4937"
       style="overflow:visible"
       inkscape:isstock="true">
      <path
         inkscape:connector-curvature="0"
         id="path4939"
         d="M 0,0 5,-5 -12.5,0 5,5 0,0 Z"
         style="fill:#000000;fill-opacity:1;fill-rule:evenodd;stroke:#000000;stroke-width:1pt;stroke-opacity:1"
         transform="matrix(-0.4,0,0,-0.4,-4,0)" />
    </marker>
    <marker
       inkscape:isstock="true"
       style="overflow:visible"
       id="marker8240"
       refX="0"
       refY="0"
       orient="auto"
       inkscape:stockid="Arrow1Mend">
      <path
         inkscape:connector-curvature="0"
         transform="matrix(-0.4,0,0,-0.4,-4,0)"
         style="fill:#000000;fill-opacity:1;fill-rule:evenodd;stroke:#000000;stroke-width:1pt;stroke-opacity:1"
         d="M 0,0 5,-5 -12.5,0 5,5 0,0 Z"
         id="path8242" />
    </marker>
    <marker
       inkscape:stockid="Arrow1Mend"
       orient="auto"
       refY="0"
       refX="0"
       id="marker6905"
       style="overflow:visible"
       inkscape:isstock="true">
      <path
         id="path6907"
         d="M 0,0 5,-5 -12.5,0 5,5 0,0 Z"
         style="fill:#000000;fill-opacity:1;fill-rule:evenodd;stroke:#000000;stroke-width:1pt;stroke-opacity:1"
         transform="matrix(-0.4,0,0,-0.4,-4,0)"
         inkscape:connector-curvature="0" />
    </marker>
    <marker
       inkscape:isstock="true"
       style="overflow:visible"
       id="marker6499"
       refX="0"
       refY="0"
       orient="auto"
       inkscape:stockid="Arrow1Mend">
      <path
         transform="matrix(-0.4,0,0,-0.4,-4,0)"
         style="fill:#000000;fill-opacity:1;fill-rule:evenodd;stroke:#000000;stroke-width:1pt;stroke-opacity:1"
         d="M 0,0 5,-5 -12.5,0 5,5 0,0 Z"
         id="path6501"
         inkscape:connector-curvature="0" />
    </marker>
    <marker
       inkscape:stockid="Arrow1Mend"
       orient="auto"
       refY="0"
       refX="0"
       id="marker5211"
       style="overflow:visible"
       inkscape:isstock="true">
      <path
         id="path5213"
         d="M 0,0 5,-5 -12.5,0 5,5 0,0 Z"
         style="fill:#000000;fill-opacity:1;fill-rule:evenodd;stroke:#000000;stroke-width:1pt;stroke-opacity:1"
         transform="matrix(-0.4,0,0,-0.4,-4,0)"
         inkscape:connector-curvature="0" />
    </marker>
    <marker
       inkscape:isstock="true"
       style="overflow:visible"
       id="marker4949"
       refX="0"
       refY="0"
       orient="auto"
       inkscape:stockid="Arrow1Mend">
      <path
         transform="matrix(-0.4,0,0,-0.4,-4,0)"
         style="fill:#000000;fill-opacity:1;fill-rule:evenodd;stroke:#000000;stroke-width:1pt;stroke-opacity:1"
         d="M 0,0 5,-5 -12.5,0 5,5 0,0 Z"
         id="path4951"
         inkscape:connector-curvature="0" />
    </marker>
  </defs>
  <sodipodi:namedview
     pagecolor="#ffffff"
     bordercolor="#666666"
     borderopacity="1"
     objecttolerance="10"
     gridtolerance="10"
     guidetolerance="10"
     inkscape:pageopacity="0"
     inkscape:pageshadow="2"
     inkscape:window-width="640"
     inkscape:window-height="480"
     id="namedview84"
     showgrid="false"
     units="in"
     inkscape:zoom="1.9725"
     inkscape:cx="167.39164"
     inkscape:cy="188.26518"
     inkscape:current-layer="svg2" />
  <rect
     style="opacity:1;fill:#ffffff;fill-opacity:1;fill-rule:nonzero;stroke:#ffffff;stroke-width:1.20903897;stroke-linecap:butt;stroke-linejoin:miter;stroke-miterlimit:4;stroke-dasharray:none;stroke-dashoffset:0;stroke-opacity:1"
     id="rect7432"
     width="1000.2072"
     height="933.88794"
     x="37.172108"
     y="1493.6335" />
  <path
     d="m 204.41292,2285.8451 0,-747.5 747.50004,0 0,747.5 -747.50004,0"
     id="path4-3"
     inkscape:connector-curvature="0"
     style="fill:none;stroke:#000000;stroke-width:2" />
  <text
     style="font-size:37.90000153px;font-family:Arial;text-anchor:start;fill:#000000"
     id="text8-5"
     font-size="37.9"
     y="2349.4453"
     x="919.97467">1000</text>
  <text
     style="font-size:37.90000153px;font-family:Arial;text-anchor:middle;fill:#000000"
     id="text10-5"
     font-size="37.9"
     y="2410.1465"
     x="579.0556">
    <tspan
       style="font-size:50px"
       id="tspan4303">epoch</tspan>
  </text>
  <text
     style="font-size:37.90000153px;font-family:Arial;text-anchor:middle;fill:#000000"
     id="text12-3"
     font-size="37.9"
     y="2349.4453"
     x="204.4129">0</text>
  <text
     style="font-size:37.90000153px;font-family:Arial;text-anchor:middle;fill:#000000"
     id="text14-3"
     font-size="37.9"
     y="2349.4453"
     x="279.11288">100</text>
  <text
     style="font-size:37.90000153px;font-family:Arial;text-anchor:middle;fill:#000000"
     id="text16-7"
     font-size="37.9"
     y="2349.4453"
     x="353.9129">200</text>
  <text
     style="font-size:37.90000153px;font-family:Arial;text-anchor:middle;fill:#000000"
     id="text18-7"
     font-size="37.9"
     y="2349.4453"
     x="428.61292">300</text>
  <text
     style="font-size:37.90000153px;font-family:Arial;text-anchor:middle;fill:#000000"
     id="text20-9"
     font-size="37.9"
     y="2349.4453"
     x="503.4129">400</text>
  <text
     style="font-size:37.90000153px;font-family:Arial;text-anchor:middle;fill:#000000"
     id="text22-9"
     font-size="37.9"
     y="2349.4453"
     x="578.11292">500</text>
  <text
     style="font-size:37.90000153px;font-family:Arial;text-anchor:middle;fill:#000000"
     id="text24-5"
     font-size="37.9"
     y="2349.4453"
     x="652.91296">600</text>
  <text
     style="font-size:37.90000153px;font-family:Arial;text-anchor:middle;fill:#000000"
     id="text26-6"
     font-size="37.9"
     y="2349.4453"
     x="727.71295">700</text>
  <text
     style="font-size:37.90000153px;font-family:Arial;text-anchor:middle;fill:#000000"
     id="text28-6"
     font-size="37.9"
     y="2349.4453"
     x="802.41296">800</text>
  <text
     style="font-size:37.90000153px;font-family:Arial;text-anchor:middle;fill:#000000"
     id="text30-3"
     font-size="37.9"
     y="2349.4453"
     x="877.21295">900</text>
  <path
     style="fill:none;stroke:#000000;stroke-width:2"
     inkscape:connector-curvature="0"
     id="path34-3"
     d="m 204.41292,2285.8451 747.50004,0 m -747.50004,18.7 0,-37.3 m 74.7,37.3 0,-37.3 m 74.8,37.3 0,-37.3 m 74.7,37.3 0,-37.3 m 74.8,37.3 0,-37.3 m 74.7,37.3 0,-37.3 m 74.8,37.3 0,-37.3 m 74.8,37.3 0,-37.3 m 74.7,37.3 0,-37.3 m 74.8,37.3 0,-37.3 m 74.70004,37.3 0,-37.3" />
  <path
     style="fill:none;stroke:#000000;stroke-width:2"
     inkscape:connector-curvature="0"
     id="path36-6"
     d="m 204.41292,1538.3451 747.50004,0 m -747.50004,18.7 0,-37.4 m 74.7,37.4 0,-37.4 m 74.8,37.4 0,-37.4 m 74.7,37.4 0,-37.4 m 74.8,37.4 0,-37.4 m 74.7,37.4 0,-37.4 m 74.8,37.4 0,-37.4 m 74.8,37.4 0,-37.4 m 74.7,37.4 0,-37.4 m 74.8,37.4 0,-37.4 m 74.70004,37.4 0,-37.4" />
  <text
     style="font-size:37.90000153px;font-family:Arial;text-anchor:end;fill:#000000"
     id="text40-4"
     font-size="37.9"
     y="2300.8452"
     x="178.21289">0</text>
  <text
     style="font-size:37.90000153px;font-family:Arial;text-anchor:end;fill:#000000"
     id="text42-4"
     font-size="37.9"
     y="2226.0454"
     x="178.21289">0.1</text>
  <text
     style="font-size:37.90000153px;font-family:Arial;text-anchor:end;fill:#000000"
     id="text44-6"
     font-size="37.9"
     y="2151.3452"
     x="178.21289">0.2</text>
  <text
     style="font-size:37.90000153px;font-family:Arial;text-anchor:end;fill:#000000"
     id="text46-2"
     font-size="37.9"
     y="2076.5454"
     x="178.21289">0.3</text>
  <text
     style="font-size:37.90000153px;font-family:Arial;text-anchor:end;fill:#000000"
     id="text48-5"
     font-size="37.9"
     y="2001.8451"
     x="178.21289">0.4</text>
  <text
     style="font-size:37.90000153px;font-family:Arial;text-anchor:end;fill:#000000"
     id="text50-6"
     font-size="37.9"
     y="1927.0452"
     x="178.21289">0.5</text>
  <text
     style="font-size:37.90000153px;font-family:Arial;text-anchor:end;fill:#000000"
     id="text52-3"
     font-size="37.9"
     y="1852.3452"
     x="178.21289">0.6</text>
  <text
     style="font-size:37.90000153px;font-family:Arial;text-anchor:end;fill:#000000"
     id="text54-8"
     font-size="37.9"
     y="1777.5452"
     x="178.21289">0.7</text>
  <text
     style="font-size:37.90000153px;font-family:Arial;text-anchor:end;fill:#000000"
     id="text56-3"
     font-size="37.9"
     y="1702.7452"
     x="178.21289">0.8</text>
  <text
     style="font-size:37.90000153px;font-family:Arial;text-anchor:end;fill:#000000"
     id="text58-3"
     font-size="37.9"
     y="1628.0452"
     x="178.21289">0.9</text>
  <text
     style="font-size:37.90000153px;font-family:Arial;text-anchor:end;fill:#000000"
     id="text60-9"
     font-size="37.9"
     y="1553.2452"
     x="178.21289">1</text>
  <path
     style="fill:none;stroke:#000000;stroke-width:2"
     inkscape:connector-curvature="0"
     id="path62-2"
     d="m 204.41292,2285.8451 0,-747.5 m -18.7,747.5 37.3,0 m -37.3,-74.7 37.3,0 m -37.3,-74.8 37.3,0 m -37.3,-74.7 37.3,0 m -37.3,-74.8 37.3,0 m -37.3,-74.7 37.3,0 m -37.3,-74.8 37.3,0 m -37.3,-74.8 37.3,0 m -37.3,-74.7 37.3,0 m -37.3,-74.8 37.3,0 m -37.3,-74.7 37.3,0" />
  <path
     style="fill:none;stroke:#000000;stroke-width:2"
     inkscape:connector-curvature="0"
     id="path88-5"
     d="m 951.91296,2285.8451 0,-747.5 m -18.70004,747.5 37.40004,0 m -37.40004,-74.7 37.40004,0 m -37.40004,-74.8 37.40004,0 m -37.40004,-74.7 37.40004,0 m -37.40004,-74.8 37.40004,0 m -37.40004,-74.7 37.40004,0 m -37.40004,-74.8 37.40004,0 m -37.40004,-74.8 37.40004,0 m -37.40004,-74.7 37.40004,0 m -37.40004,-74.8 37.40004,0 m -37.40004,-74.7 37.40004,0" />
  <text
     xml:space="preserve"
     style="color:#000000;font-style:normal;font-variant:normal;font-weight:normal;font-stretch:normal;font-size:37.5px;line-height:100%;font-family:Arial;-inkscape-font-specification:Arial;text-indent:0;text-align:start;text-decoration:none;text-decoration-line:none;letter-spacing:0px;word-spacing:0px;text-transform:none;direction:ltr;block-progression:tb;writing-mode:lr-tb;text-anchor:start;display:inline;overflow:visible;visibility:visible;fill:#000000;fill-opacity:1;fill-rule:nonzero;stroke:none;stroke-width:1px;stroke-linecap:butt;stroke-linejoin:miter;stroke-opacity:1;marker:none;enable-background:accumulate"
     x="-2212.7664"
     y="94.495361"
     id="text4299"
     sodipodi:linespacing="100%"
     transform="matrix(0,-1,1,0,0,0)"><tspan
       sodipodi:role="line"
       id="tspan4301"
       x="-2212.7664"
       y="94.495361"
       style="font-size:50px">MT Obj feat decode err %</tspan></text>
  <text
     sodipodi:linespacing="100%"
     id="text4865"
     y="2043.6425"
     x="573.5448"
     style="color:#000000;font-style:normal;font-variant:normal;font-weight:normal;font-stretch:normal;font-size:37.5px;line-height:100%;font-family:Arial;-inkscape-font-specification:Arial;text-indent:0;text-align:start;text-decoration:none;text-decoration-line:none;letter-spacing:0px;word-spacing:0px;text-transform:none;direction:ltr;block-progression:tb;writing-mode:lr-tb;text-anchor:start;display:inline;overflow:visible;visibility:visible;fill:#ff0000;fill-opacity:1;fill-rule:nonzero;stroke:none;stroke-width:1px;stroke-linecap:butt;stroke-linejoin:miter;stroke-opacity:1;marker:none;enable-background:accumulate"
     xml:space="preserve"><tspan
       y="2043.6425"
       x="573.5448"
       id="tspan4867"
       sodipodi:role="line">no TEO</tspan></text>
  <text
     xml:space="preserve"
     style="color:#000000;font-style:normal;font-variant:normal;font-weight:normal;font-stretch:normal;font-size:37.5px;line-height:100%;font-family:Arial;-inkscape-font-specification:Arial;text-indent:0;text-align:start;text-decoration:none;text-decoration-line:none;letter-spacing:0px;word-spacing:0px;text-transform:none;direction:ltr;block-progression:tb;writing-mode:lr-tb;text-anchor:start;display:inline;overflow:visible;visibility:visible;fill:#000000;fill-opacity:1;fill-rule:nonzero;stroke:none;stroke-width:1px;stroke-linecap:butt;stroke-linejoin:miter;stroke-opacity:1;marker:none;enable-background:accumulate"
     x="571.46252"
     y="1928.9208"
     id="text5980"
     sodipodi:linespacing="100%"><tspan
       sodipodi:role="line"
       id="tspan5982"
       x="571.46252"
       y="1928.9208">Intact</tspan></text>
  <path
     style="fill:none;stroke:#000000;stroke-width:2.5;stroke-miterlimit:4;stroke-dasharray:none"
     d="m 204.66479,1572.6376 0.8,5.8 0.7,6.8 0.7,7.6 0.8,8.5 0.7,9.5 0.8,10.4 0.7,9.4 0.8,8.6 0.7,9.8 0.8,7.9 0.7,6.9 0.8,5.7 0.7,5.1 0.8,4.2 0.7,3.9 0.8,4 0.7,3.5 0.8,4.9 0.7,4.8 0.8,5.4 0.7,5.4 0.8,4.8 0.7,4.9 0.7,5.2 0.8,4.5 0.7,3.4 0.8,3.6 0.7,2.8 0.8,2.2 0.7,1.9 0.8,2.4 0.7,2.3 0.8,2.9 0.7,4 0.8,3.5 0.7,5.3 0.8,4.9 0.7,4.8 0.8,5.2 0.7,4.4 0.8,4.2 0.7,3.6 0.8,2.9 0.7,1.7 0.7,1.3 0.8,1 0.7,1.7 0.8,0.9 0.7,0.8 0.8,0.6 0.7,0.4 0.8,0.5 0.7,-0.7 0.8,0.2 0.7,0.1 0.8,-0.8 0.7,-1 0.8,-0.4 0.7,0.1 0.8,0.1 0.7,1.9 0.8,2 0.7,2.7 0.8,2 0.7,4.1 0.7,4.6 0.8,4.5 0.7,4.1 0.8,4.6 0.7,4.5 0.8,3.6 0.7,3 0.8,3.4 0.7,3.3 0.8,2.1 0.7,2 0.8,1.2 0.7,1 0.8,0.2 0.7,0.4 0.8,0.3 0.7,-0.3 0.8,0.2 0.7,-0.3 0.8,0.1 0.7,0.2 0.7,1.1 0.8,1.6 0.7,2.5 0.8,1.8 0.7,1.3 0.8,1.7 0.7,1.4 0.8,2.2 0.7,1 0.8,1.6 0.7,1.1 0.8,1.7 0.7,1.4 0.8,1.2 0.7,3.3 0.8,2.6 0.7,1.5 0.8,0.9 0.7,0.7 0.8,-0.7 0.7,-0.8 0.7,-1.3 0.8,-1.5 0.7,-1.9 0.8,-1.2 0.7,-0.1 0.8,0.2 0.7,1.6 0.8,2.2 0.7,2.9 0.8,3.2 0.7,2.3 0.8,2.7 0.7,2.1 0.8,0.9 0.7,0 0.8,1 0.7,0.2 0.8,0.1 0.7,0.9 0.7,0.9 0.8,0.9 0.7,1.2 0.8,1.5 0.7,0.6 0.8,0.9 0.7,0.2 0.8,-1.3 0.7,-1.4 0.8,-2.5 0.7,-1.5 0.8,-0.8 0.7,-1.5 0.8,-0.2 0.7,0.6 0.8,1.2 0.7,1.7 0.8,2.4 0.7,3.2 0.8,3 0.7,2.6 0.7,1.9 0.8,1.2 0.7,1.1 0.8,1.2 0.7,0.5 0.8,0.5 0.7,0.2 0.8,-0.5 0.7,0.4 0.8,-0.3 0.7,0 0.8,0.5 0.7,0.1 0.8,0.7 0.7,-0.3 0.8,0.3 0.7,0.2 0.8,1.6 0.7,0.8 0.8,1.4 0.7,1.1 0.7,2.2 0.8,2.1 0.7,1.6 0.8,1.8 0.7,1.1 0.8,0.2 0.7,-0.1 0.8,-2.2 0.7,-3.2 0.8,-4.6 0.7,-4.5 0.8,-5.4 0.7,-4.6 0.8,-4.1 0.7,-2 0.8,-0.9 0.7,0.5 0.8,1.5 0.7,3.1 0.8,4 0.7,2.9 0.7,2.7 0.8,2.4 0.7,1.3 0.8,0.7 0.7,0.4 0.8,0.5 0.7,0.3 0.8,1.3 0.7,1.2 0.8,0.6 0.7,1.7 0.8,1.7 0.7,1.3 0.8,0.7 0.7,0.6 0.8,0.7 0.7,1.5 0.8,0.3 0.7,0.7 0.8,1.3 0.7,1.9 0.7,2.5 0.8,1.8 0.7,1.4 0.8,1.2 0.7,1.1 0.8,0.6 0.7,-1.6 0.8,-2.1 0.7,-2.1 0.8,-3.3 0.7,-3.4 0.8,-4 0.7,-2.7 0.8,-1.9 0.7,-1.8 0.8,0.1 0.7,0.2 0.8,1.2 0.7,3 0.7,2.6 0.8,1.9 0.7,0.1 0.8,0.1 0.7,-0.2 0.8,-1 0.7,-2.9 0.8,-2.4 0.7,-2.9 0.8,-2.6 0.7,-1.8 0.8,0.1 0.7,1.4 0.8,1.1 0.7,3.9 0.8,2.7 0.7,3.2 0.8,3.4 0.7,3.5 0.8,3.7 0.7,1.4 0.7,1.4 0.8,1.1 0.7,1 0.8,0.3 0.7,-0.7 0.8,-0.1 0.7,-0.8 0.8,-0.8 0.7,-0.9 0.8,0.4 0.7,-1.5 0.8,0.4 0.7,0 0.8,0.3 0.7,0.5 0.8,0.7 0.7,1.3 0.8,0.2 0.7,-0.3 0.8,0.6 0.7,0.9 0.7,0.4 0.8,0.1 0.7,0 0.8,-0.6 0.7,-0.8 0.8,-1.4 0.7,-1.2 0.8,-2.3 0.7,-2 0.8,-1.7 0.7,-2.2 0.8,-1.4 0.7,-0.4 0.8,-0.1 0.7,0.1 0.8,0.1 0.7,0.6 0.8,1.9 0.7,2.1 0.8,2.2 0.7,1.7 0.7,2.1 0.8,1.6 0.7,2.4 0.8,1.3 0.7,0.9 0.8,0.3 0.7,-0.5 0.8,-1.1 0.7,-1.3 0.8,-1 0.7,0.7 0.8,0.3 0.7,0.8 0.8,0.6 0.7,0.8 0.8,1.4 0.7,1.5 0.8,0.4 0.7,-0.2 0.8,-2 0.7,-1.1 0.7,-2.3 0.8,-2.9 0.7,-2.1 0.8,-1.3 0.7,-1 0.8,0.1 0.7,0.4 0.8,1.5 0.7,2.6 0.8,3.3 0.7,3.1 0.8,2.9 0.7,2.6 0.8,1.9 0.7,1.4 0.8,0.5 0.7,-0.5 0.8,-0.6 0.7,-0.6 0.7,-0.8 0.8,-1.6 0.7,-0.7 0.8,-1 0.7,-0.4 0.8,-0.3 0.7,-0.5 0.8,-0.5 0.7,-0.8 0.8,-0.8 0.7,-1.6 0.8,-1.2 0.7,-2.5 0.8,-1.8 0.7,-1.1 0.8,-1.8 0.7,-1.2 0.8,-1.3 0.7,-0.7 0.8,0.1 0.7,1 0.7,0.8 0.8,1 0.7,1 0.8,1.9 0.7,2.2 0.8,1 0.7,0.7 0.8,0.9 0.7,0.7 0.8,-0.3 0.7,-1.2 0.8,-0.4 0.7,-0.9 0.8,-0.8 0.7,-0.1 0.8,-0.6 0.7,0.2 0.8,0.7 0.7,1.1 0.8,0.3 0.7,-1 0.7,-1 0.8,-1.1 0.7,-2.1 0.8,-2.3 0.7,-2.8 0.8,-2.5 0.7,-1.6 0.8,-1.1 0.7,0.6 0.8,1.7 0.7,2.5 0.8,3.4 0.7,3.7 0.8,3 0.7,3.2 0.8,2.7 0.7,2.9 0.8,2.7 0.7,1.4 0.8,1.7 0.7,0.2 0.7,1.1 0.8,1.7 0.7,1.1 0.8,0.7 0.7,-1 0.8,-1.3 0.7,-2.3 0.8,-3.4 0.7,-4 0.8,-4.2 0.7,-4.5 0.8,-3.4 0.7,-3 0.8,-1.5 0.7,1.3 0.8,2.2 0.7,3.9 0.8,4.3 0.7,4.2 0.8,4.7 0.7,3.8 0.7,2.4 0.8,1 0.7,0.1 0.8,-0.6 0.7,-0.3 0.8,0 0.7,-1.2 0.8,-0.6 0.7,0.1 0.8,0.2 0.7,0.9 0.8,-0.3 0.7,0.8 0.8,0 0.7,-1.4 0.8,-1.4 0.7,-1.2 0.8,-1.3 0.7,-2.9 0.7,-3.1 0.8,-3.3 0.7,-4.3 0.8,-3.3 0.7,-2.5 0.8,-2 0.7,-1.7 0.8,-0.7 0.7,1 0.8,2.3 0.7,1.3 0.8,2.7 0.7,2.5 0.8,1.4 0.7,0 0.8,0.3 0.7,0.3 0.8,0 0.7,0.5 0.8,0.9 0.7,0.8 0.7,2.2 0.8,3.2 0.7,3.7 0.8,3.9 0.7,2.3 0.8,1.3 0.7,0.5 0.8,-1.3 0.7,-2.2 0.8,-2.3 0.7,-2.8 0.8,-3.4 0.7,-2.7 0.8,-1 0.7,-0.9 0.8,0.6 0.7,2.2 0.8,2.5 0.7,2.1 0.8,2 0.7,1.8 0.7,1.1 0.8,1.5 0.7,0.7 0.8,0 0.7,-0.1 0.8,-0.2 0.7,0.3 0.8,-0.2 0.7,0.1 0.8,-0.7 0.7,0.7 0.8,0 0.7,0.4 0.8,0.6 0.7,0.4 0.8,1.6 0.7,1.7 0.8,2.2 0.7,2.1 0.8,1.5 0.7,2.3 0.7,1.1 0.8,0.3 0.7,-0.2 0.8,-1.5 0.7,-1.6 0.8,-1.2 0.7,-1.7 0.8,-2.1 0.7,-1.7 0.8,-0.6 0.7,-0.2 0.8,-0.7 0.7,-1 0.8,0.3 0.7,-1.3 0.8,-2.2 0.7,-3 0.8,-3 0.7,-2.9 0.8,-3.8 0.7,-2.4 0.7,-2.5 0.8,-1.3 0.7,-0.3 0.8,0.1 0.7,-0.2 0.8,0.5 0.7,0.7 0.8,0.4 0.7,-0.4 0.8,-2.6 0.7,-1 0.8,-0.6 0.7,-1.6 0.8,-0.9 0.7,0.6 0.8,2 0.7,2.9 0.8,4.2 0.7,4.3 0.7,5 0.8,5.7 0.7,4.9 0.8,3.2 0.7,2.2 0.8,1.1 0.7,-0.5 0.8,-0.1 0.7,-2.3 0.8,-2.1 0.7,-1 0.8,-0.3 0.7,-0.8 0.8,0.6 0.7,0.3 0.8,0.9 0.7,1 0.8,1.6 0.7,1.1 0.8,0.5 0.7,0.6 0.7,1 0.8,-0.1 0.7,0.8 0.8,0 0.7,-0.4 0.8,-1.3 0.7,-1.9 0.8,-2 0.7,-2.3 0.8,-1.9 0.7,-1.3 0.8,-0.1 0.7,0.7 0.8,1 0.7,1.5 0.8,2.8 0.7,2 0.8,2.2 0.7,1.3 0.8,0.3 0.7,-0.6 0.7,-0.7 0.8,0.3 0.7,0.4 0.8,0.7 0.7,2 0.8,2.3 0.7,2.6 0.8,1.9 0.7,2 0.8,1.1 0.7,0 0.8,-1.9 0.7,-2.3 0.8,-3.7 0.7,-3 0.8,-3.2 0.7,-2.3 0.8,-1.3 0.7,-2.1 0.8,-0.4 0.7,-0.8 0.7,-0.4 0.8,-0.6 0.7,-0.9 0.8,-0.6 0.7,-1.8 0.8,-1.3 0.7,0.1 0.8,0.2 0.7,0.9 0.8,2.6 0.7,2.3 0.8,3.2 0.7,3.4 0.8,2.6 0.7,2.3 0.8,1.3 0.7,0.3 0.8,-1.3 0.7,-2.6 0.8,-2.6 0.7,-3.2 0.7,-3.6 0.8,-3.5 0.7,-3.6 0.8,-1.9 0.7,-1.3 0.8,-1.9 0.7,-1.1 0.8,-1.1 0.7,-1 0.8,-0.5 0.7,-0.3 0.8,-0.8 0.7,-0.1 0.8,0.3 0.7,1.1 0.8,0.4 0.7,1.7 0.8,2.3 0.7,2 0.8,0.9 0.7,0.2 0.7,0.5 0.8,0.2 0.7,0 0.8,-0.3 0.7,-0.3 0.8,-0.1 0.7,1.3 0.8,2 0.7,2.9 0.8,3.4 0.7,3 0.8,3.7 0.7,2.4 0.8,2.5 0.7,1.1 0.8,0.5 0.7,-1.1 0.8,-2.2 0.7,-2.7 0.7,-3.8 0.8,-4.3 0.7,-3.2 0.8,-2.6 0.7,-2.6 0.8,-1.8 0.7,-0.1 0.8,-0.2 0.7,2.1 0.8,1.4 0.7,2.7 0.8,2 0.7,1.5 0.8,2 0.7,0.4 0.8,-0.3 0.7,-0.3 0.8,-0.5 0.7,-1.1 0.8,-2.4 0.7,-2 0.7,-1.8 0.8,-1.3 0.7,-1.4 0.8,-0.7 0.7,-1.5 0.8,0.8 0.7,-0.2 0.8,0.9 0.7,1 0.8,-0.1 0.7,1 0.8,0.4 0.7,-1 0.8,0 0.7,-0.1 0.8,0.6 0.7,1.1 0.8,1 0.7,2.8 0.8,2.7 0.7,4.8 0.7,3.6 0.8,2.7 0.7,1.7 0.8,1.8 0.7,0.4 0.8,-0.3 0.7,-1 0.8,-2.5 0.7,-1.1 0.8,-1.9 0.7,-2.1 0.8,-1.4 0.7,-1.5 0.8,-1.4 0.7,-2.4 0.8,-1.9 0.7,-2.1 0.8,-1.6 0.7,-1.9 0.8,-1.1 0.7,-1.3 0.7,0.7 0.8,0.6 0.7,1.4 0.8,2.6 0.7,2.3 0.8,2.8 0.7,3.1 0.8,0.9 0.7,1.5 0.8,-0.1 0.7,-0.7 0.8,-2.2 0.7,-3.3 0.8,-2.7 0.7,-2.5 0.8,-1.2 0.7,-0.8 0.8,-0.2 0.7,1.6 0.8,1.5 0.7,3 0.7,2.3 0.8,1.3 0.7,1 0.8,0 0.7,-1.1 0.8,-0.8 0.7,-1.2 0.8,-1.2 0.7,-1.4 0.8,-0.4 0.7,-0.3 0.8,-0.7 0.7,-0.4 0.8,-0.6 0.7,-0.4 0.8,-0.7 0.7,-1.6 0.8,-1.2 0.7,-0.4 0.7,0.3 0.8,0.7 0.7,0.6 0.8,1.7 0.7,2.1 0.8,2.6 0.7,2.5 0.8,2.5 0.7,1.8 0.8,3.2 0.7,2 0.8,2 0.7,0.7 0.8,1.2 0.7,1 0.8,0.4 0.7,-0.2 0.8,-1.2 0.7,-0.7 0.8,-1.2 0.7,-1.9 0.7,-2.5 0.8,-1.6 0.7,-1.6 0.8,-1.7 0.7,-1.4 0.8,-2.2 0.7,-1 0.8,-1.3 0.7,-0.9 0.8,-1.3 0.7,-1.1 0.8,-0.6 0.7,-0.4 0.8,-0.6 0.7,-1.1 0.8,-0.3 0.7,0.2 0.8,0.5 0.7,-0.3 0.8,-0.8 0.7,-0.7 0.7,0.5 0.8,0.6 0.7,1.4 0.8,0.8 0.7,2.2 0.8,2.7 0.7,2.7 0.8,2.5 0.7,1.6 0.8,1 0.7,-0.1 0.8,-2.2 0.7,-2.9 0.8,-3.9 0.7,-4.1 0.8,-4.2 0.7,-3.6 0.8,-2.8 0.7,-1.8 0.8,-0.7 0.7,1.1 0.7,0.7 0.8,1.9 0.7,2.1 0.8,1.4 0.7,1.7 0.8,2 0.7,2.3 0.8,2.4 0.7,1.6 0.8,2.4 0.7,2.4 0.8,2 0.7,1.6 0.8,1.2 0.7,0.9 0.8,0.1 0.7,0 0.8,-1.6 0.7,-1.7 0.8,-1.2 0.7,-1 0.7,-1 0.8,-1.5 0.7,-1.6 0.8,-0.4 0.7,0.4 0.8,-0.2 0.7,0.7 0.8,0.6 0.7,0.9 0.8,1.7 0.7,1.4 0.8,1.4 0.7,0.3 0.8,1 0.7,-0.9 0.8,-1.6 0.7,-1.4 0.8,-2.3 0.7,-1.8 0.7,-2.2 0.8,-2.5 0.7,-1 0.8,-0.6 0.7,0.5 0.8,1.1 0.7,0.5 0.8,0.1 0.7,0.2 0.8,0.3 0.7,0.2 0.8,0.5 0.7,0.7 0.8,1.6 0.7,0.7 0.8,2.4 0.7,2.6 0.8,3 0.7,3.1 0.8,1.5 0.7,0.7 0.7,-0.9 0.8,-0.9 0.7,-1.6 0.8,-1.9 0.7,-2.6 0.8,-2.5 0.7,-1.8 0.8,-1.3 0.7,-0.4 0.8,-0.6 0.7,0.8 0.8,1.1 0.7,0.6 0.8,1.6 0.7,0.9 0.8,1 0.7,1.2 0.8,0.9 0.7,0 0.8,-0.7 0.7,-0.2 0.7,0.2 0.8,-1 0.7,0.1 0.8,-0.1 0.7,1.5 0.8,2.7 0.7,2.1 0.8,2.2 0.7,3.3 0.8,3 0.7,2.6 0.8,2.3 0.7,1.2 0.8,-0.4 0.7,-0.5 0.8,-1.1 0.7,-1.5 0.8,-2.8 0.7,-2.3 0.8,-2.8 0.7,-2.3 0.7,-3.2 0.8,-1.4 0.7,-0.8 0.8,-0.3 0.7,0.3 0.8,-0.7 0.7,0.9 0.8,0.9 0.7,0.9 0.8,1.1 0.7,0.1 0.8,-0.7 0.7,-0.7 0.8,0.6 0.7,0.2 0.8,0.3 0.7,0.7 0.8,0.9 0.7,0.3 0.8,1.1 0.7,0.7 0.7,-0.1 0.8,-0.3 0.7,-1.8 0.8,-2.6 0.7,-3.2 0.8,-3.7 0.7,-3.6 0.8,-2.9 0.7,-3.8 0.8,-2.8 0.7,-1.1 0.8,-0.8 0.7,0.6 0.8,1.5 0.7,1.6 0.8,1.6 0.7,1.6 0.8,1.7 0.7,1 0.7,-0.5 0.8,-0.8 0.7,-1.6 0.8,-1.8 0.7,-1.8 0.8,-1.3 0.7,-1 0.8,-0.1 0.7,-0.2 0.8,1.9 0.7,1.5 0.8,2.7 0.7,2.3 0.8,3.6 0.7,2.9 0.8,2.2 0.7,2.6 0.8,3.4 0.7,2.8 0.8,2.6 0.7,2.1 0.7,2.2 0.8,1.8 0.7,2.2 0.8,1.2 0.7,1.6 0.8,0.2 0.7,1"
     id="path4644" />
  <path
     style="fill:none;stroke:#000000;stroke-width:2.49999996;stroke-miterlimit:4;stroke-dasharray:7.49999989,7.49999989;stroke-dashoffset:0"
     d="m 207.66479,1636.4376 3.7,5.5 3.8,5.7 3.7,6.4 3.7,6.8 3.8,6.5 3.7,6.9 3.8,6.1 3.7,6.5 3.7,6.9 3.8,6.5 3.7,7 3.8,7.6 3.7,6.6 3.7,7.1 3.8,7.3 3.7,6.4 3.7,7.3 3.8,6 3.7,4.8 3.8,4.2 3.7,2.3 3.7,2.5 3.8,1.7 3.7,1.5 3.7,1 3.8,1.9 3.7,1.2 3.8,1.9 3.7,2 3.7,3.9 3.8,2.7 3.7,2.9 3.7,3.9 3.8,2.6 3.7,3.3 3.8,2.6 3.7,1 3.7,1.3 3.8,-1.4 3.7,-1.8 3.8,-3 3.7,-4.4 3.7,-5.2 3.8,-4.4 3.7,-5.1 3.7,-3.9 3.8,-3 3.7,-1.2 3.8,-0.1 3.7,0.4 3.7,2 3.8,1.4 3.7,1.2 3.7,0.2 3.8,-1.1 3.7,-0.9 3.8,-2.5 3.7,-2.7 3.7,-3.2 3.8,-3.1 3.7,-2.8 3.7,-1.8 3.8,-0.6 3.7,-1.2 3.8,0.9 3.7,0.6 3.7,1.6 3.8,1.8 3.7,2.7 3.7,2.2 3.8,3.2 3.7,3.3 3.8,2.9 3.7,3.1 3.7,2 3.8,1.8 3.7,1.6 3.8,0.4 3.7,0.1 3.7,-1 3.8,-0.4 3.7,-1.4 3.7,-1 3.8,-0.5 3.7,-0.8 3.8,0.5 3.7,0.6 3.7,0.1 3.8,-0.4 3.7,0.4 3.7,0.6 3.8,0.6 3.7,0.7 3.8,0 3.7,0.3 3.7,0 3.8,0.7 3.7,0.4 3.7,0.7 3.8,0.4 3.7,0 3.8,-0.6 3.7,-1.1 3.7,-0.2 3.8,-0.1 3.7,-0.9 3.7,-0.7 3.8,0.1 3.7,-0.1 3.8,0.1 3.7,0.3 3.7,0.7 3.8,0.7 3.7,0.8 3.8,0.6 3.7,0.2 3.7,0 3.8,0.3 3.7,1.4 3.7,-0.4 3.8,-0.7 3.7,0 3.8,0.7 3.7,-0.2 3.7,-1 3.8,0 3.7,-0.7 3.7,-0.5 3.8,-0.7 3.7,-0.8 3.8,-0.9 3.7,-0.4 3.7,0.3 3.8,0.4 3.7,0 3.7,0.6 3.8,1.6 3.7,2.4 3.8,1.3 3.7,2.2 3.7,2.1 3.8,3.1 3.7,1.3 3.8,1.7 3.7,2.1 3.7,1.1 3.8,0.4 3.7,-0.6 3.7,-0.8 3.8,-1.1 3.7,-1.6 3.8,-1.2 3.7,-1.4 3.7,-1 3.8,-1.6 3.7,0.2 3.7,-1.2 3.8,-0.9 3.7,-0.6 3.8,-0.1 3.7,-0.9 3.7,-1.3 3.8,0.2 3.7,0.4 3.7,0.7 3.8,1.2 3.7,1.3 3.8,2.1 3.7,1.5 3.7,1.1 3.8,1.2 3.7,0.2 3.7,-0.4 3.8,-0.4 3.7,-0.4 3.8,-1.6 3.7,-0.8 3.7,-0.9 3.8,-0.2 3.7,-0.7 3.8,-0.5 3.7,0.1 3.7,-0.1 3.8,-0.3 3.7,0 3.7,0.5 3.8,0 3.7,-0.7 3.8,0.2 3.7,0.1 3.7,1.1 3.8,0.5 3.7,1.4 3.7,1.6 3.8,2 3.7,1.8 3.8,2.7 3.7,3 3.7,2.7"
     id="path4642" />
  <path
     style="fill:none;stroke:#ff0000;stroke-width:2.5;stroke-miterlimit:4;stroke-dasharray:none"
     d="m 204.66479,1575.6376 0.8,6.8 0.7,6.8 0.7,8.1 0.8,8.4 0.7,9.1 0.8,9.2 0.7,9 0.8,8.5 0.7,8.6 0.8,7.7 0.7,6.4 0.8,6.2 0.7,4.4 0.8,4.4 0.7,4.8 0.8,4.7 0.7,4 0.8,4.9 0.7,4.7 0.8,4.2 0.7,4.8 0.8,4.4 0.7,4.4 0.7,4.1 0.8,4.5 0.7,4.4 0.8,4.2 0.7,5.1 0.8,4.4 0.7,6.1 0.8,5.5 0.7,5.8 0.8,5.8 0.7,7.1 0.8,6.8 0.7,6.7 0.8,6.5 0.7,5 0.8,5.3 0.7,5.2 0.8,4.2 0.7,3.3 0.8,2.6 0.7,1.3 0.7,0.4 0.8,0.3 0.7,-0.5 0.8,-0.6 0.7,-1.4 0.8,-0.9 0.7,-1.9 0.8,-1.4 0.7,0.5 0.8,1 0.7,1.7 0.8,1.2 0.7,1.7 0.8,2.5 0.7,2.2 0.8,2.3 0.7,2.9 0.8,2.8 0.7,2.4 0.8,2.4 0.7,4.1 0.7,4.9 0.8,3.6 0.7,4.6 0.8,3.6 0.7,2 0.8,1.7 0.7,1.1 0.8,0.7 0.7,-0.3 0.8,-0.6 0.7,-0.1 0.8,0.9 0.7,1.2 0.8,2.3 0.7,3.6 0.8,2.6 0.7,1.8 0.8,1.8 0.7,2 0.8,0.2 0.7,-0.3 0.7,0.2 0.8,-0.2 0.7,-0.6 0.8,-0.6 0.7,0.5 0.8,0.9 0.7,0.3 0.8,0.7 0.7,0.4 0.8,0.2 0.7,0.2 0.8,0.9 0.7,0.3 0.8,0.7 0.7,1.2 0.8,0.9 0.7,1.1 0.8,0.6 0.7,0.6 0.8,0.7 0.7,0.1 0.7,-1 0.8,0.2 0.7,1.3 0.8,1 0.7,2.6 0.8,3.4 0.7,3.6 0.8,4.6 0.7,4.9 0.8,4.3 0.7,3.4 0.8,2.8 0.7,0.9 0.8,-0.2 0.7,-0.7 0.8,-0.8 0.7,-1.6 0.8,-1.8 0.7,-2 0.7,-1.8 0.8,-0.8 0.7,-1.2 0.8,-0.9 0.7,-0.8 0.8,-0.8 0.7,-0.1 0.8,-0.4 0.7,0.7 0.8,1.1 0.7,1.3 0.8,0.6 0.7,0.7 0.8,1.1 0.7,0.7 0.8,-0.9 0.7,-0.6 0.8,-1.2 0.7,0 0.8,-0.2 0.7,0.2 0.7,1.1 0.8,2.1 0.7,2.2 0.8,3 0.7,2.5 0.8,1.8 0.7,2 0.8,0.8 0.7,-0.2 0.8,-1.4 0.7,-0.9 0.8,-0.1 0.7,-1.7 0.8,0.1 0.7,-1.1 0.8,0.8 0.7,1.2 0.8,2.2 0.7,0.8 0.8,1.7 0.7,1.8 0.7,0.8 0.8,0.7 0.7,-0.7 0.8,-0.6 0.7,-0.9 0.8,-1.1 0.7,-0.9 0.8,-1.8 0.7,-1.7 0.8,-2.1 0.7,0.5 0.8,-0.2 0.7,-0.1 0.8,-0.1 0.7,0.4 0.8,1 0.7,-0.1 0.8,0.8 0.7,0.9 0.8,0 0.7,0.1 0.7,-0.5 0.8,-0.1 0.7,-0.3 0.8,0.5 0.7,1.6 0.8,1.5 0.7,0.5 0.8,3 0.7,2.3 0.8,2.8 0.7,2.6 0.8,2.5 0.7,2.7 0.8,0.2 0.7,1.6 0.8,0.9 0.7,0.2 0.8,0 0.7,0.1 0.8,-0.2 0.7,1 0.7,0.3 0.8,1.2 0.7,1.5 0.8,0.7 0.7,2.4 0.8,1.3 0.7,1 0.8,-0.3 0.7,0.1 0.8,0 0.7,-2.3 0.8,-2.2 0.7,-2.5 0.8,-2.6 0.7,-2.7 0.8,-2.5 0.7,-2.3 0.8,-0.7 0.7,0.2 0.7,1.2 0.8,2.1 0.7,2.9 0.8,3.5 0.7,4.3 0.8,3.9 0.7,2.6 0.8,3.3 0.7,1.6 0.8,0.9 0.7,-0.1 0.8,-0.7 0.7,-0.5 0.8,-0.4 0.7,-0.4 0.8,-0.6 0.7,-0.2 0.8,0.2 0.7,0.2 0.8,0.5 0.7,0.6 0.7,-1 0.8,0.3 0.7,0.1 0.8,-2.1 0.7,0.4 0.8,-0.8 0.7,0.1 0.8,-0.2 0.7,-0.8 0.8,-0.6 0.7,0.4 0.8,-0.1 0.7,0.5 0.8,0.2 0.7,1.1 0.8,0.3 0.7,1.6 0.8,2.9 0.7,1.7 0.8,2.8 0.7,3.9 0.7,1.9 0.8,2.7 0.7,1.7 0.8,0.6 0.7,-0.4 0.8,-0.2 0.7,-3.3 0.8,-2.3 0.7,-1.7 0.8,-1.8 0.7,-2.2 0.8,-0.5 0.7,0.7 0.8,1 0.7,1.4 0.8,1.3 0.7,0.8 0.8,0.8 0.7,-0.7 0.8,-1.3 0.7,-1.7 0.7,-1.7 0.8,-1.8 0.7,-0.5 0.8,-1.3 0.7,-0.3 0.8,1.3 0.7,1.6 0.8,2.4 0.7,0.7 0.8,1.2 0.7,1.7 0.8,0.2 0.7,0.5 0.8,-0.5 0.7,-0.5 0.8,-0.9 0.7,1 0.8,-0.6 0.7,-0.8 0.8,-0.5 0.7,0.1 0.7,-1.2 0.8,-1.2 0.7,-0.5 0.8,-1.5 0.7,-0.5 0.8,-0.4 0.7,0.5 0.8,0.9 0.7,1 0.8,2.5 0.7,2.3 0.8,2.6 0.7,1.1 0.8,1.6 0.7,1.4 0.8,1 0.7,0.8 0.8,0.7 0.7,-0.2 0.7,-0.1 0.8,-0.4 0.7,-0.8 0.8,-1.7 0.7,-2.7 0.8,-2.2 0.7,-3 0.8,-3.6 0.7,-2.3 0.8,-2.1 0.7,-0.5 0.8,0.4 0.7,0.8 0.8,1.1 0.7,2.1 0.8,1.5 0.7,2.3 0.8,1.2 0.7,0.7 0.8,-0.4 0.7,0.3 0.7,0 0.8,-0.9 0.7,-0.6 0.8,-0.3 0.7,-1.6 0.8,-1.9 0.7,-1.6 0.8,-0.6 0.7,-0.9 0.8,-0.4 0.7,-0.3 0.8,2.4 0.7,2.6 0.8,4 0.7,4.3 0.8,4.9 0.7,4.6 0.8,3.6 0.7,3.3 0.8,1.4 0.7,-0.1 0.7,-0.7 0.8,-1.6 0.7,-3.1 0.8,-4.1 0.7,-3.5 0.8,-3.4 0.7,-3.1 0.8,-3 0.7,-1.6 0.8,-1.3 0.7,-0.2 0.8,0.1 0.7,-1 0.8,-0.3 0.7,-0.3 0.8,-0.5 0.7,-1.2 0.8,-0.8 0.7,-0.9 0.8,-0.2 0.7,1.4 0.7,2.3 0.8,4.2 0.7,4.4 0.8,5 0.7,5 0.8,5.2 0.7,4.1 0.8,2.7 0.7,1.7 0.8,0 0.7,-2 0.8,-1.8 0.7,-2.3 0.8,-3.6 0.7,-2.8 0.8,-2.7 0.7,-2.6 0.8,-2.1 0.7,-1.8 0.8,-1 0.7,-0.1 0.7,-0.2 0.8,0.3 0.7,0.4 0.8,1.2 0.7,1.4 0.8,1.8 0.7,1.1 0.8,0.5 0.7,-0.8 0.8,-0.5 0.7,-1.5 0.8,-3.1 0.7,-2.6 0.8,-3 0.7,-3.4 0.8,-2.6 0.7,-2.9 0.8,-0.7 0.7,0.2 0.7,0.2 0.8,0.2 0.7,0.7 0.8,0.9 0.7,1 0.8,-0.4 0.7,0.6 0.8,-0.9 0.7,-0.4 0.8,0.1 0.7,-0.8 0.8,0.1 0.7,0.5 0.8,0.6 0.7,0.8 0.8,0.1 0.7,0.5 0.8,1.9 0.7,2.2 0.8,1.2 0.7,2 0.7,2.7 0.8,3.3 0.7,2.7 0.8,2.3 0.7,2.4 0.8,1.8 0.7,1.3 0.8,0.2 0.7,0.4 0.8,-0.4 0.7,-0.6 0.8,-0.8 0.7,-0.4 0.8,0.2 0.7,-0.5 0.8,-0.2 0.7,-0.2 0.8,0.1 0.7,1.4 0.8,1.3 0.7,2 0.7,0.3 0.8,2.9 0.7,1.9 0.8,2.2 0.7,1.4 0.8,2.3 0.7,1.4 0.8,1.1 0.7,-0.3 0.8,-0.6 0.7,-0.5 0.8,-0.3 0.7,-1.4 0.8,-2 0.7,-3.6 0.8,-2.1 0.7,-2.8 0.8,-1.2 0.7,-2.7 0.8,-0.7 0.7,0 0.7,0.7 0.8,1 0.7,2.3 0.8,2.3 0.7,2.8 0.8,2.6 0.7,1.8 0.8,-0.3 0.7,-0.1 0.8,-1.8 0.7,-1.5 0.8,-3.7 0.7,-3.8 0.8,-4.9 0.7,-4 0.8,-3.8 0.7,-3.5 0.8,-2.4 0.7,-2 0.8,-1.3 0.7,0.7 0.7,0.1 0.8,-0.4 0.7,0.7 0.8,0.8 0.7,-0.6 0.8,1.2 0.7,0 0.8,0.1 0.7,0.4 0.8,-0.3 0.7,0.2 0.8,1.1 0.7,1.7 0.8,1.9 0.7,3 0.8,3 0.7,2.6 0.8,4.2 0.7,4.3 0.7,4 0.8,3.6 0.7,2.6 0.8,1.2 0.7,1.5 0.8,0.4 0.7,-0.2 0.8,0.1 0.7,-0.9 0.8,-0.9 0.7,-1.2 0.8,-0.8 0.7,-1 0.8,-0.1 0.7,-0.8 0.8,-1.1 0.7,-1.4 0.8,-1.3 0.7,-0.9 0.8,-1.2 0.7,-1.8 0.7,-1.9 0.8,-1.9 0.7,-1.7 0.8,-1.7 0.7,-1.1 0.8,-1.3 0.7,-0.9 0.8,-0.6 0.7,-0.2 0.8,0.5 0.7,0.7 0.8,1.1 0.7,1.6 0.8,0.5 0.7,0.7 0.8,1 0.7,1 0.8,0.1 0.7,0 0.8,-0.7 0.7,-1 0.7,-0.8 0.8,-0.6 0.7,0.1 0.8,0 0.7,0.2 0.8,0.4 0.7,1.8 0.8,0.7 0.7,0.1 0.8,0.2 0.7,-0.7 0.8,-1.5 0.7,-2.6 0.8,-2.8 0.7,-3.2 0.8,-3.4 0.7,-3.1 0.8,-2.8 0.7,-1.4 0.8,-1.2 0.7,-0.8 0.7,0.1 0.8,0.7 0.7,0.7 0.8,2.1 0.7,1.5 0.8,1.8 0.7,2 0.8,1.1 0.7,1.6 0.8,1.4 0.7,0.5 0.8,0.4 0.7,-0.1 0.8,-0.1 0.7,-0.6 0.8,0.3 0.7,0.1 0.8,0 0.7,1.4 0.8,1.5 0.7,1.2 0.7,1.4 0.8,1.4 0.7,0.6 0.8,1.7 0.7,1.1 0.8,0.6 0.7,1.1 0.8,1.2 0.7,0.8 0.8,1 0.7,1.1 0.8,0.6 0.7,1 0.8,0.3 0.7,-1 0.8,-0.5 0.7,-0.6 0.8,-0.9 0.7,-0.8 0.8,-0.1 0.7,-1.1 0.7,0 0.8,0.2 0.7,-0.1 0.8,0.4 0.7,0.8 0.8,0.6 0.7,0.1 0.8,0.3 0.7,0.5 0.8,-0.1 0.7,0.3 0.8,-0.7 0.7,-1.1 0.8,-1.2 0.7,-2.5 0.8,-3 0.7,-1.7 0.8,-1.7 0.7,-2.6 0.7,-1.4 0.8,-1.5 0.7,1.2 0.8,0.7 0.7,2.2 0.8,2.4 0.7,2.1 0.8,2.8 0.7,1.9 0.8,1.9 0.7,1.2 0.8,0.3 0.7,0.5 0.8,-0.7 0.7,-1.6 0.8,-2.2 0.7,-1.9 0.8,-2.3 0.7,-1.5 0.8,-3 0.7,-1.1 0.7,-1.6 0.8,-0.3 0.7,1 0.8,0.8 0.7,1.4 0.8,3.4 0.7,1.8 0.8,2 0.7,1.1 0.8,0.9 0.7,0.7 0.8,1.1 0.7,0.8 0.8,0.6 0.7,0.5 0.8,1.3 0.7,1.9 0.8,2.4 0.7,1.6 0.8,1.4 0.7,1.3 0.7,0.3 0.8,-0.3 0.7,0 0.8,-0.3 0.7,-0.3 0.8,0.1 0.7,0.5 0.8,0.4 0.7,1.2 0.8,0.7 0.7,1.2 0.8,0.4 0.7,-0.1 0.8,-0.1 0.7,-1.1 0.8,-1.5 0.7,-0.7 0.8,-1.6 0.7,-2 0.8,-1.3 0.7,-1.4 0.7,-1.2 0.8,-0.9 0.7,-1.3 0.8,0 0.7,-0.8 0.8,-0.4 0.7,-1.4 0.8,-1.1 0.7,-1.5 0.8,-2.3 0.7,-2 0.8,-2.6 0.7,-2.9 0.8,-1.7 0.7,-0.7 0.8,0.8 0.7,1.8 0.8,3 0.7,3.9 0.8,4.9 0.7,4.8 0.7,5.2 0.8,3.5 0.7,3 0.8,2.5 0.7,1.2 0.8,1.4 0.7,0.6 0.8,0.6 0.7,0.8 0.8,0.9 0.7,1.2 0.8,0 0.7,-0.8 0.8,-1.2 0.7,-2.5 0.8,-4.5 0.7,-4.2 0.8,-5.6 0.7,-4.8 0.7,-4.1 0.8,-3.6 0.7,-2 0.8,0.2 0.7,1.1 0.8,2.6 0.7,3.5 0.8,4.3 0.7,3.9 0.8,4.4 0.7,3.2 0.8,2.8 0.7,1.2 0.8,0.7 0.7,-0.5 0.8,-0.7 0.7,-2 0.8,-3.3 0.7,-3.3 0.8,-3.2 0.7,-4.4 0.7,-2.9 0.8,-2.8 0.7,-2.4 0.8,-2.2 0.7,-0.7 0.8,-0.2 0.7,1.2 0.8,1.1 0.7,2.6 0.8,3.1 0.7,2.7 0.8,3.1 0.7,3.8 0.8,3.4 0.7,2.5 0.8,1.9 0.7,0.2 0.8,0.2 0.7,-1.2 0.8,-2.3 0.7,-3.6 0.7,-4.2 0.8,-3.8 0.7,-3.6 0.8,-3.3 0.7,-1.6 0.8,-0.8 0.7,0.8 0.8,0.9 0.7,1.6 0.8,2.7 0.7,2 0.8,1.8 0.7,2.1 0.8,-1 0.7,-0.7 0.8,-1.1 0.7,-1.2 0.8,-1.3 0.7,-1.7 0.8,-1.8 0.7,-0.2 0.7,-0.5 0.8,1.3 0.7,1.2 0.8,1.5 0.7,2 0.8,2.3 0.7,2.1 0.8,2.2 0.7,1.3 0.8,1.5 0.7,1.2 0.8,0.8 0.7,0.4 0.8,0 0.7,0.7 0.8,1.8 0.7,0.5 0.8,1.4 0.7,0.5 0.8,1.3 0.7,1 0.7,-0.6 0.8,-0.7 0.7,-0.6 0.8,-1.3 0.7,-1.7 0.8,-1.4 0.7,-1.8 0.8,-0.4 0.7,0.1 0.8,1.2 0.7,1.6 0.8,1.4 0.7,2.9 0.8,1.5 0.7,1.2 0.8,0.5 0.7,-0.5 0.8,-0.3 0.7,-1.5 0.7,-2.1 0.8,-2.4 0.7,-1.1 0.8,-1.3 0.7,0 0.8,0.4 0.7,0.3 0.8,0.7 0.7,-0.8 0.8,-0.4 0.7,-1.5 0.8,-1.2 0.7,-2 0.8,-2.5 0.7,-1.7 0.8,-2.2 0.7,-1.2 0.8,0 0.7,-0.1 0.8,-0.1 0.7,-0.4 0.7,-0.6 0.8,-0.4 0.7,-0.8 0.8,-0.7 0.7,0.8 0.8,-0.2 0.7,0.7 0.8,1.3 0.7,1.1 0.8,1.7 0.7,1.2 0.8,2.1 0.7,0.2 0.8,0.1 0.7,0.1 0.8,0 0.7,1.1 0.8,0 0.7,-0.2 0.8,0.5 0.7,-0.3 0.7,-0.9 0.8,-1.1 0.7,-1.5 0.8,-1.4 0.7,-0.7 0.8,-1.4 0.7,-1.1 0.8,-0.9 0.7,0.8 0.8,1.5 0.7,1.1 0.8,0.8 0.7,1.1 0.8,1.4 0.7,1.4 0.8,0.8 0.7,0.7 0.8,0.6 0.7,0.6 0.8,-0.4 0.7,-0.9 0.7,-1.3 0.8,-0.5 0.7,-0.8 0.8,-0.5 0.7,0 0.8,-0.1 0.7,2 0.8,1.7 0.7,1.5 0.8,2.2 0.7,0.5 0.8,0.8 0.7,-0.7 0.8,-1 0.7,-1.8 0.8,-1 0.7,-1.7 0.8,-0.8 0.7,-0.7 0.8,0.4 0.7,0.6 0.7,0.7 0.8,0.7 0.7,0.9 0.8,1 0.7,0.3 0.8,0.5 0.7,0.4 0.8,0 0.7,-0.3 0.8,-0.3 0.7,-0.5 0.8,-0.5 0.7,-0.4 0.8,-0.8 0.7,-0.6 0.8,-1.3 0.7,-0.6 0.8,0 0.7,-0.3 0.7,-1.2 0.8,-1 0.7,-0.8 0.8,-2.5 0.7,-1.4 0.8,-2.3 0.7,-1.8 0.8,-1.9 0.7,-1.4 0.8,-1.4 0.7,-0.9 0.8,-0.7 0.7,-0.2 0.8,1.6 0.7,1 0.8,1.2 0.7,2.2 0.8,2.1 0.7,2.4 0.8,3.2 0.7,3.4 0.7,2.4 0.8,2.8 0.7,2.7 0.8,1.9 0.7,2 0.8,2.1 0.7,2.6"
     id="path4640" />
  <path
     style="fill:none;stroke:#ff0000;stroke-width:2.49999996;stroke-miterlimit:4;stroke-dasharray:7.49999989,7.49999989;stroke-dashoffset:0"
     d="m 207.66479,1654.3376 3.7,6.2 3.8,6.3 3.7,6.2 3.7,6.2 3.8,6.1 3.7,6.3 3.8,6.3 3.7,6.1 3.7,6.3 3.8,6.5 3.7,6.9 3.8,6.4 3.7,5.7 3.7,6.4 3.8,6 3.7,5.2 3.7,5.2 3.8,3.5 3.7,2.8 3.8,3 3.7,2.5 3.7,2 3.8,1.7 3.7,1.9 3.7,2.6 3.8,2.9 3.7,1.5 3.8,1.1 3.7,0.9 3.7,1.2 3.8,-0.2 3.7,-0.6 3.7,-0.6 3.8,-0.6 3.7,0.5 3.8,1 3.7,0.8 3.7,1.8 3.8,2.3 3.7,2 3.8,1.9 3.7,1 3.7,0.7 3.8,0.6 3.7,-0.1 3.7,-1 3.8,-1.3 3.7,-0.6 3.8,-0.5 3.7,0.1 3.7,-0.2 3.8,0.9 3.7,1 3.7,0.6 3.8,0.6 3.7,0.4 3.8,-0.6 3.7,-0.5 3.7,-1.3 3.8,-2.6 3.7,-3.7 3.7,-4 3.8,-3.5 3.7,-2.6 3.8,-2.4 3.7,-1.3 3.7,0 3.8,2.4 3.7,3.9 3.7,4.6 3.8,6.2 3.7,6.2 3.8,5.5 3.7,4.9 3.7,2.2 3.8,1.5 3.7,0 3.8,-1.1 3.7,-2.7 3.7,-3.1 3.8,-3.9 3.7,-3.1 3.7,-2.5 3.8,-2.3 3.7,-1.4 3.8,0.1 3.7,0.7 3.7,0.8 3.8,1.7 3.7,3.1 3.7,3.5 3.8,3.1 3.7,2.9 3.8,3.8 3.7,2.5 3.7,1.8 3.8,1.4 3.7,2.3 3.7,1.6 3.8,1.5 3.7,1.2 3.8,1.5 3.7,1.1 3.7,1.9 3.8,1.5 3.7,0.7 3.7,-0.1 3.8,-0.1 3.7,-0.1 3.8,-0.8 3.7,-1.6 3.7,-0.1 3.8,0.7 3.7,0 3.8,0 3.7,0.8 3.7,1 3.8,1.9 3.7,0.6 3.7,0.5 3.8,0 3.7,0.1 3.8,0.3 3.7,-0.4 3.7,-0.6 3.8,0 3.7,-0.3 3.7,-0.2 3.8,-0.7 3.7,-1.4 3.8,-1.7 3.7,-2.5 3.7,-2.2 3.8,-3.1 3.7,-3.1 3.7,-1.6 3.8,-0.6 3.7,0.7 3.8,1.3 3.7,2.9 3.7,4.1 3.8,4.7 3.7,4 3.8,2.9 3.7,2.5 3.7,1.2 3.8,1.1 3.7,0 3.7,-0.9 3.8,-1.3 3.7,-1 3.8,-0.5 3.7,-0.6 3.7,-0.2 3.8,-0.5 3.7,0 3.7,-0.8 3.8,-0.8 3.7,-1 3.8,-0.9 3.7,-1 3.7,-1.3 3.8,-0.2 3.7,-1.2 3.7,-0.7 3.8,-0.8 3.7,-0.9 3.8,-0.6 3.7,-1.6 3.7,-1 3.8,-0.3 3.7,-0.6 3.7,-1.3 3.8,0.1 3.7,1.6 3.8,1.3 3.7,2.5 3.7,2.5 3.8,1.5 3.7,0.9 3.8,1.6 3.7,1.2 3.7,0 3.8,-0.5 3.7,-1.1 3.7,-0.8 3.8,-1.5 3.7,-1.5 3.8,0.1 3.7,0.7 3.7,-0.2 3.8,-0.2 3.7,0.7 3.7,0.4 3.8,1 3.7,1.3 3.8,1.2 3.7,1 3.7,0.5"
     id="path82" />
  <g
     id="layer1"
     inkscape:label="Layer 1"
     transform="matrix(2.5,0,0,2.5,-16.060657,29.860716)">
    <g
       id="g4940"
       transform="matrix(0.40000001,0,0,0.40000001,1.7218354,-81.033728)">
      <text
         xml:space="preserve"
         style="color:#000000;font-style:normal;font-variant:normal;font-weight:normal;font-stretch:normal;font-size:37.5px;line-height:100%;font-family:Arial;-inkscape-font-specification:Arial;text-indent:0;text-align:start;text-decoration:none;text-decoration-line:none;letter-spacing:0px;word-spacing:0px;text-transform:none;direction:ltr;block-progression:tb;writing-mode:lr-tb;text-anchor:start;display:inline;overflow:visible;visibility:visible;fill:#000000;fill-opacity:1;fill-rule:nonzero;stroke:none;stroke-width:1px;stroke-linecap:butt;stroke-linejoin:miter;stroke-opacity:1;marker:none;enable-background:accumulate"
         x="832.57562"
         y="1861.0986"
         id="text4830"
         sodipodi:linespacing="100%"><tspan
           sodipodi:role="line"
           id="tspan4832"
           x="832.57562"
           y="1861.0986">test</tspan></text>
      <text
         xml:space="preserve"
         style="color:#000000;font-style:normal;font-variant:normal;font-weight:normal;font-stretch:normal;font-size:37.5px;line-height:100%;font-family:Arial;-inkscape-font-specification:Arial;text-indent:0;text-align:start;text-decoration:none;text-decoration-line:none;letter-spacing:0px;word-spacing:0px;text-transform:none;direction:ltr;block-progression:tb;writing-mode:lr-tb;text-anchor:start;display:inline;overflow:visible;visibility:visible;fill:#000000;fill-opacity:1;fill-rule:nonzero;stroke:none;stroke-width:1px;stroke-linecap:butt;stroke-linejoin:miter;stroke-opacity:1;marker:none;enable-background:accumulate"
         x="832.57562"
         y="1818.9769"
         id="text6242"
         sodipodi:linespacing="100%"><tspan
           sodipodi:role="line"
           id="tspan6244"
           x="832.57562"
           y="1818.9769">train</tspan></text>
      <path
         style="opacity:1;fill:none;fill-opacity:1;fill-rule:nonzero;stroke:#000000;stroke-width:2.5;stroke-linecap:butt;stroke-linejoin:miter;stroke-miterlimit:4;stroke-dasharray:none;stroke-dashoffset:0;stroke-opacity:1"
         d="m 819.13256,1810.0149 -34.95205,0"
         id="path4884"
         inkscape:connector-curvature="0" />
      <path
         inkscape:connector-curvature="0"
         id="path4886"
         d="m 819.13256,1847.6556 -34.95205,0"
         style="opacity:1;fill:none;fill-opacity:1;fill-rule:nonzero;stroke:#000000;stroke-width:2.5;stroke-linecap:butt;stroke-linejoin:miter;stroke-miterlimit:4;stroke-dasharray:7.49999989, 7.49999989;stroke-dashoffset:0;stroke-opacity:1" />
    </g>
  </g>
</svg>
