<?xml version="1.0"?>
<!-- Generated by SVGo and Plotinum VG -->
<svg width="329.62pt" height="346.88pt" viewBox="0 0 329.62 346.88"
	xmlns="http://www.w3.org/2000/svg"
	xmlns:xlink="http://www.w3.org/1999/xlink">
<g transform="scale(1, -1) translate(0, -346.88)">
<text x="78.439" y="-335.36" transform="scale(1, -1)"
	style="font-family:Helvetica;font-weight:normal;font-style:normal;font-size:12px">Face Emotion / Gender Prjn Plot</text>
<text x="158.51" y="-3.8789" transform="scale(1, -1)"
	style="font-family:Helvetica;font-weight:normal;font-style:normal;font-size:12px">GendPrjn</text>
<text x="36.428" y="-15.599" transform="scale(1, -1)"
	style="font-family:Helvetica;font-weight:normal;font-style:normal;font-size:10px">-1</text>
<text x="181.08" y="-15.599" transform="scale(1, -1)"
	style="font-family:Helvetica;font-weight:normal;font-style:normal;font-size:10px">0</text>
<text x="324.06" y="-15.599" transform="scale(1, -1)"
	style="font-family:Helvetica;font-weight:normal;font-style:normal;font-size:10px">1</text>
<path d="M40.874,25.198L40.874,33.198" style="fill:none;stroke:#000000;stroke-width:0.5" />
<path d="M183.86,25.198L183.86,33.198" style="fill:none;stroke:#000000;stroke-width:0.5" />
<path d="M326.84,25.198L326.84,33.198" style="fill:none;stroke:#000000;stroke-width:0.5" />
<path d="M69.471,29.198L69.471,33.198" style="fill:none;stroke:#000000;stroke-width:0.5" />
<path d="M98.068,29.198L98.068,33.198" style="fill:none;stroke:#000000;stroke-width:0.5" />
<path d="M126.67,29.198L126.67,33.198" style="fill:none;stroke:#000000;stroke-width:0.5" />
<path d="M155.26,29.198L155.26,33.198" style="fill:none;stroke:#000000;stroke-width:0.5" />
<path d="M212.46,29.198L212.46,33.198" style="fill:none;stroke:#000000;stroke-width:0.5" />
<path d="M241.05,29.198L241.05,33.198" style="fill:none;stroke:#000000;stroke-width:0.5" />
<path d="M269.65,29.198L269.65,33.198" style="fill:none;stroke:#000000;stroke-width:0.5" />
<path d="M298.25,29.198L298.25,33.198" style="fill:none;stroke:#000000;stroke-width:0.5" />
<path d="M40.874,33.198L326.84,33.198" style="fill:none;stroke:#000000;stroke-width:0.5" />
<g transform="rotate(90)">
<text x="155.06" y="11.52" transform="scale(1, -1)"
	style="font-family:Helvetica;font-weight:normal;font-style:normal;font-size:12px">TrialName</text>
</g>
<text x="15.398" y="-33.749" transform="scale(1, -1)"
	style="font-family:Helvetica;font-weight:normal;font-style:normal;font-size:10px">-1</text>
<text x="18.729" y="-177.81" transform="scale(1, -1)"
	style="font-family:Helvetica;font-weight:normal;font-style:normal;font-size:10px">0</text>
<text x="18.729" y="-321.88" transform="scale(1, -1)"
	style="font-family:Helvetica;font-weight:normal;font-style:normal;font-size:10px">1</text>
<path d="M27.068,38.448L35.068,38.448" style="fill:none;stroke:#000000;stroke-width:0.5" />
<path d="M27.068,182.51L35.068,182.51" style="fill:none;stroke:#000000;stroke-width:0.5" />
<path d="M27.068,326.58L35.068,326.58" style="fill:none;stroke:#000000;stroke-width:0.5" />
<path d="M31.068,67.261L35.068,67.261" style="fill:none;stroke:#000000;stroke-width:0.5" />
<path d="M31.068,96.074L35.068,96.074" style="fill:none;stroke:#000000;stroke-width:0.5" />
<path d="M31.068,124.89L35.068,124.89" style="fill:none;stroke:#000000;stroke-width:0.5" />
<path d="M31.068,153.7L35.068,153.7" style="fill:none;stroke:#000000;stroke-width:0.5" />
<path d="M31.068,211.33L35.068,211.33" style="fill:none;stroke:#000000;stroke-width:0.5" />
<path d="M31.068,240.14L35.068,240.14" style="fill:none;stroke:#000000;stroke-width:0.5" />
<path d="M31.068,268.95L35.068,268.95" style="fill:none;stroke:#000000;stroke-width:0.5" />
<path d="M31.068,297.76L35.068,297.76" style="fill:none;stroke:#000000;stroke-width:0.5" />
<path d="M35.068,38.448L35.068,326.58" style="fill:none;stroke:#000000;stroke-width:0.5" />
<path d="M108.44,239.91A3,3 0 1 1 102.44,239.91A3,3 0 1 1 108.44,239.91Z" style="fill:none;stroke:#0000FF;stroke-width:0.5" />
<path d="M128.28,133.53A3,3 0 1 1 122.28,133.53A3,3 0 1 1 128.28,133.53Z" style="fill:none;stroke:#0000FF;stroke-width:0.5" />
<path d="M262.76,248.84A3,3 0 1 1 256.76,248.84A3,3 0 1 1 262.76,248.84Z" style="fill:none;stroke:#0000FF;stroke-width:0.5" />
<path d="M265.96,124.17A3,3 0 1 1 259.96,124.17A3,3 0 1 1 265.96,124.17Z" style="fill:none;stroke:#0000FF;stroke-width:0.5" />
<text x="105.44" y="-240.09" transform="scale(1, -1)"
	style="font-family:Times;font-weight:normal;font-style:normal;font-size:10px">Alberto_happy</text>
<text x="125.28" y="-133.72" transform="scale(1, -1)"
	style="font-family:Times;font-weight:normal;font-style:normal;font-size:10px">Alberto_sad</text>
<text x="259.76" y="-249.02" transform="scale(1, -1)"
	style="font-family:Times;font-weight:normal;font-style:normal;font-size:10px">Betty_happy</text>
<text x="262.96" y="-124.36" transform="scale(1, -1)"
	style="font-family:Times;font-weight:normal;font-style:normal;font-size:10px">Betty_sad</text>
<path d="M254.35,232.54A3,3 0 1 1 248.35,232.54A3,3 0 1 1 254.35,232.54Z" style="fill:none;stroke:#0000FF;stroke-width:0.5" />
<path d="M270.03,117.44A3,3 0 1 1 264.03,117.44A3,3 0 1 1 270.03,117.44Z" style="fill:none;stroke:#0000FF;stroke-width:0.5" />
<text x="251.35" y="-232.72" transform="scale(1, -1)"
	style="font-family:Times;font-weight:normal;font-style:normal;font-size:10px">Lisa_happy</text>
<text x="267.03" y="-117.63" transform="scale(1, -1)"
	style="font-family:Times;font-weight:normal;font-style:normal;font-size:10px">Lisa_sad</text>
<path d="M122.06,242.3A3,3 0 1 1 116.06,242.3A3,3 0 1 1 122.06,242.3Z" style="fill:none;stroke:#0000FF;stroke-width:0.5" />
<path d="M129.24,105.98A3,3 0 1 1 123.24,105.98A3,3 0 1 1 129.24,105.98Z" style="fill:none;stroke:#0000FF;stroke-width:0.5" />
<path d="M266.32,226.72A3,3 0 1 1 260.32,226.72A3,3 0 1 1 266.32,226.72Z" style="fill:none;stroke:#0000FF;stroke-width:0.5" />
<text x="119.06" y="-242.49" transform="scale(1, -1)"
	style="font-family:Times;font-weight:normal;font-style:normal;font-size:10px">Mark_happy</text>
<text x="126.24" y="-106.16" transform="scale(1, -1)"
	style="font-family:Times;font-weight:normal;font-style:normal;font-size:10px">Mark_sad</text>
<text x="263.32" y="-226.91" transform="scale(1, -1)"
	style="font-family:Times;font-weight:normal;font-style:normal;font-size:10px">Wendy_happy</text>
<path d="M258.28,141.33A3,3 0 1 1 252.28,141.33A3,3 0 1 1 258.28,141.33Z" style="fill:none;stroke:#0000FF;stroke-width:0.5" />
<text x="255.28" y="-141.51" transform="scale(1, -1)"
	style="font-family:Times;font-weight:normal;font-style:normal;font-size:10px">Wendy_sad</text>
<path d="M104.78,260.12A3,3 0 1 1 98.778,260.12A3,3 0 1 1 104.78,260.12Z" style="fill:none;stroke:#0000FF;stroke-width:0.5" />
<path d="M122.03,111.4A3,3 0 1 1 116.03,111.4A3,3 0 1 1 122.03,111.4Z" style="fill:none;stroke:#0000FF;stroke-width:0.5" />
<text x="101.78" y="-260.31" transform="scale(1, -1)"
	style="font-family:Times;font-weight:normal;font-style:normal;font-size:10px">Zane_happy</text>
<text x="119.03" y="-111.59" transform="scale(1, -1)"
	style="font-family:Times;font-weight:normal;font-style:normal;font-size:10px">Zane_sad</text>
<path d="M322.62,325.6A3,3 0 1 1 316.62,325.6A3,3 0 1 1 322.62,325.6Z" style="fill:none;stroke:#0000FF;stroke-width:0.5" />
<text x="250.27" y="-319.96" transform="scale(1, -1)"
	style="font-family:Helvetica;font-weight:normal;font-style:normal;font-size:12px">EmotePrjn</text>
</g>
</svg>
