<?xml version="1.0" encoding="ISO-8859-1" standalone="yes"?>
<svg width="462.031" height="168.73">
  <defs> 
    <marker id="ArrowEnd" viewBox="0 0 10 10" refX="0" refY="5" 
     markerUnits="strokeWidth" 
     markerWidth="4" 
     markerHeight="3" 
     orient="auto"> 
        <path d="M 0 0 L 10 5 L 0 10 z" /> 
    </marker>
    <marker id="ArrowStart" viewBox="0 0 10 10" refX="10" refY="5" 
     markerUnits="strokeWidth" 
     markerWidth="4" 
     markerHeight="3" 
     orient="auto"> 
        <path d="M 10 0 L 0 5 L 10 10 z" /> 
    </marker> </defs>
<g>
<path style="stroke:#000000; stroke-width:1.9133; fill:none" d="M 10.0273 127.353L 67.4258 127.353L 67.4258 102.482L 10.0273 102.482L 10.0273 127.353z"/>
<path style="stroke:none; fill-rule:evenodd; fill:#000000" d="M 28.0312 112.365L 27.0312 112.365L 27.0312 118.365L 28.0312 118.365L 28.0312 112.365zM 28.0312 109.962L 27.0312 109.962L 27.0312 111.197L 28.0312 111.197L 28.0312 109.962z"/>
<path style="stroke:none; fill-rule:evenodd; fill:#000000" d="M 29.6289 112.337L 29.6289 118.361L 30.6289 118.361L 30.6289 115.013C 30.6289 113.775 31.2539 112.962 32.2187 112.962C 32.957 112.962 33.4258 113.423 33.4258 114.154L 33.4258 118.357L 34.4258 118.357L 34.4258 113.802C 34.4258 112.802 33.6836 112.158 32.5234 112.158C 31.6328 112.158 31.0586 112.501 30.5312 113.341L 30.5312 112.33L 29.6289 112.337z"/>
<path style="stroke:none; fill-rule:evenodd; fill:#000000" d="M 35.832 120.865L 36.832 120.865L 36.832 117.763C 37.332 118.384 37.8945 118.662 38.6679 118.662C 40.2109 118.662 41.2265 117.404 41.2265 115.47C 41.2265 113.439 40.2422 112.166 38.6445 112.166C 37.832 112.166 37.1758 112.533 36.7304 113.244L 36.7304 112.337L 35.832 112.337L 35.832 120.865zM 38.4961 113.064C 39.5429 113.064 40.2265 113.998 40.2265 115.447C 40.2265 116.822 39.5312 117.759 38.4961 117.759C 37.4922 117.759 36.832 116.834 36.832 115.412C 36.832 113.99 37.4922 113.064 38.4961 113.064z"/>
<path style="stroke:none; fill-rule:evenodd; fill:#000000" d="M 47.2304 118.4L 47.2304 112.369L 46.2304 112.369L 46.2304 115.814C 46.2304 117.052 45.5859 117.865 44.5781 117.865C 43.8164 117.865 43.332 117.404 43.332 116.673L 43.332 112.369L 42.332 112.369L 42.332 117.021C 42.332 118.021 43.0898 118.666 44.2812 118.666C 45.1797 118.666 45.7539 118.357 46.3281 117.564L 46.3281 118.404L 47.2304 118.4z"/>
<path style="stroke:none; fill-rule:evenodd; fill:#000000" d="M 50.9297 112.365L 50.0312 112.365L 50.0312 110.697L 49.0312 110.697L 49.0312 112.365L 48.1328 112.365L 48.1328 113.162L 49.0312 113.162L 49.0312 117.709C 49.0312 118.314 49.4336 118.658 50.164 118.658C 50.3867 118.658 50.6132 118.634 50.9258 118.576L 50.9258 117.74C 50.8125 117.83 50.6758 117.857 50.5078 117.857C 50.1328 117.857 50.0273 117.744 50.0273 117.314L 50.0273 113.162L 50.9258 113.162L 50.9297 112.365z"/>
<path style="stroke:#000000; stroke-width:1.9133; fill:none" d="M 38.7265 102.478L 38.7265 81.4346"/>
<path style="stroke:#000000; stroke-width:1.9133; fill:none" d="M 36.8125 89.0874L 38.7226 81.4346L 40.6328 89.0874"/>
<path style="stroke:#000000; stroke-width:1.9133; fill:none" d="M 38.7265 56.5596L 38.7265 35.5166"/>
<path style="stroke:#000000; stroke-width:1.9133; fill:none" d="M 36.8125 43.1656L 38.7226 35.5136L 40.6328 43.1656"/>
<path style="stroke:#000000; stroke-dasharray:6,3; stroke-width:1.9133; fill:none" d="M 67.4258 73.7786L 86.559 73.7786"/>
<path style="stroke:#000000; stroke-dasharray:6,3; stroke-width:1.9133; fill:none" d="M 78.9062 71.8646L 86.559 73.7746L 78.9062 75.6846"/>
<path style="stroke:#000000; stroke-width:1.9133; fill:none" d="M 10.0273 35.5136L 67.4258 35.5136L 67.4258 10.6416L 10.0273 10.6416L 10.0273 35.5136z"/>
<path style="stroke:none; fill-rule:evenodd; fill:#000000" d="M 26.0664 20.2636C 24.3632 20.2636 23.332 21.4776 23.332 23.5136C 23.332 25.5486 24.3515 26.7636 26.082 26.7636C 27.7851 26.7636 28.832 25.5526 28.832 23.5636C 28.832 21.4736 27.8242 20.2706 26.0742 20.2706L 26.0664 20.2636zM 26.082 21.1616C 27.1758 21.1616 27.832 22.0486 27.832 23.5446C 27.832 24.9586 27.1562 25.8566 26.082 25.8566C 25 25.8566 24.332 24.9706 24.332 23.5096C 24.332 22.0596 24.9961 21.1616 26.082 21.1616z"/>
<path style="stroke:none; fill-rule:evenodd; fill:#000000" d="M 34.9297 26.4976L 34.9297 20.4666L 33.9297 20.4666L 33.9297 23.9116C 33.9297 25.1496 33.2851 25.9626 32.2773 25.9626C 31.5156 25.9626 31.0312 25.5016 31.0312 24.7706L 31.0312 20.4666L 30.0312 20.4666L 30.0312 25.1186C 30.0312 26.1186 30.789 26.7636 31.9804 26.7636C 32.8789 26.7636 33.4531 26.4546 34.0273 25.6616L 34.0273 26.5016L 34.9297 26.4976z"/>
<path style="stroke:none; fill-rule:evenodd; fill:#000000" d="M 38.6289 20.4626L 37.7304 20.4626L 37.7304 18.7946L 36.7304 18.7946L 36.7304 20.4626L 35.832 20.4626L 35.832 21.2596L 36.7304 21.2596L 36.7304 25.8066C 36.7304 26.4116 37.1328 26.7556 37.8632 26.7556C 38.0859 26.7556 38.3125 26.7316 38.625 26.6736L 38.625 25.8376C 38.5117 25.9276 38.375 25.9546 38.207 25.9546C 37.832 25.9546 37.7265 25.8416 37.7265 25.4116L 37.7265 21.2596L 38.625 21.2596L 38.6289 20.4626z"/>
<path style="stroke:none; fill-rule:evenodd; fill:#000000" d="M 39.5312 28.9666L 40.5312 28.9666L 40.5312 25.8646C 41.0312 26.4856 41.5937 26.7636 42.3672 26.7636C 43.9101 26.7636 44.9258 25.5056 44.9258 23.5716C 44.9258 21.5406 43.9414 20.2666 42.3437 20.2666C 41.5312 20.2666 40.875 20.6346 40.4297 21.3456L 40.4297 20.4386L 39.5312 20.4386L 39.5312 28.9666zM 42.1953 21.1616C 43.2422 21.1616 43.9258 22.0956 43.9258 23.5446C 43.9258 24.9196 43.2304 25.8566 42.1953 25.8566C 41.1914 25.8566 40.5312 24.9316 40.5312 23.5096C 40.5312 22.0876 41.1914 21.1616 42.1953 21.1616z"/>
<path style="stroke:none; fill-rule:evenodd; fill:#000000" d="M 50.9297 26.4976L 50.9297 20.4666L 49.9297 20.4666L 49.9297 23.9116C 49.9297 25.1496 49.2851 25.9626 48.2773 25.9626C 47.5156 25.9626 47.0312 25.5016 47.0312 24.7706L 47.0312 20.4666L 46.0312 20.4666L 46.0312 25.1186C 46.0312 26.1186 46.789 26.7636 47.9804 26.7636C 48.8789 26.7636 49.4531 26.4546 50.0273 25.6616L 50.0273 26.5016L 50.9297 26.4976z"/>
<path style="stroke:none; fill-rule:evenodd; fill:#000000" d="M 54.5312 20.4626L 53.6328 20.4626L 53.6328 18.7946L 52.6328 18.7946L 52.6328 20.4626L 51.7343 20.4626L 51.7343 21.2596L 52.6328 21.2596L 52.6328 25.8066C 52.6328 26.4116 53.0351 26.7556 53.7656 26.7556C 53.9882 26.7556 54.2148 26.7316 54.5273 26.6736L 54.5273 25.8376C 54.414 25.9276 54.2773 25.9546 54.1093 25.9546C 53.7343 25.9546 53.6289 25.8416 53.6289 25.4116L 53.6289 21.2596L 54.5273 21.2596L 54.5312 20.4626z"/>
<path style="stroke:#000000; stroke-width:1.9133; fill:none" d="M 10.0273 81.4316L 67.4258 81.4316L 67.4258 56.5596L 10.0273 56.5596L 10.0273 81.4316z"/>
<path style="stroke:none; fill-rule:evenodd; fill:#000000" d="M 21.832 64.0636L 21.832 72.4626L 22.832 72.4626L 22.832 69.1146C 22.832 67.8766 23.457 67.0636 24.4218 67.0636C 24.7226 67.0636 25.0234 67.1656 25.25 67.3416C 25.5156 67.5366 25.6289 67.8256 25.6289 68.2556L 25.6289 72.4586L 26.6289 72.4586L 26.6289 67.9036C 26.6289 66.8916 25.9101 66.2596 24.7461 66.2596C 23.9023 66.2596 23.3906 66.5246 22.832 67.2666L 22.832 64.0566L 21.832 64.0636z"/>
<path style="stroke:none; fill-rule:evenodd; fill:#000000" d="M 29.1289 66.4626L 28.1289 66.4626L 28.1289 72.4626L 29.1289 72.4626L 29.1289 66.4626zM 29.1289 64.0636L 28.1289 64.0636L 28.1289 65.2986L 29.1289 65.2986L 29.1289 64.0636z"/>
<path style="stroke:none; fill-rule:evenodd; fill:#000000" d="M 35.6289 64.0636L 34.6289 64.0636L 34.6289 67.2046C 34.2304 66.5916 33.5937 66.2636 32.7929 66.2636C 31.2461 66.2636 30.2304 67.5206 30.2304 69.4546C 30.2304 71.5016 31.2422 72.7596 32.8828 72.7596C 33.7187 72.7596 34.3008 72.4386 34.8242 71.6696L 34.8242 72.4586L 35.6211 72.4586L 35.6289 64.0636zM 32.957 67.1616C 33.9765 67.1616 34.625 68.0876 34.625 69.5326C 34.625 70.9316 33.9687 71.8566 32.9687 71.8566C 31.9258 71.8566 31.2304 70.9196 31.2304 69.5096C 31.2304 68.0996 31.9218 67.1616 32.957 67.1616z"/>
<path style="stroke:none; fill-rule:evenodd; fill:#000000" d="M 42.0312 64.0636L 41.0312 64.0636L 41.0312 67.2046C 40.6328 66.5916 39.9961 66.2636 39.1953 66.2636C 37.6484 66.2636 36.6328 67.5206 36.6328 69.4546C 36.6328 71.5016 37.6445 72.7596 39.2851 72.7596C 40.1211 72.7596 40.7031 72.4386 41.2265 71.6696L 41.2265 72.4586L 42.0234 72.4586L 42.0312 64.0636zM 39.3593 67.1616C 40.3789 67.1616 41.0273 68.0876 41.0273 69.5326C 41.0273 70.9316 40.3711 71.8566 39.3711 71.8566C 38.3281 71.8566 37.6328 70.9196 37.6328 69.5096C 37.6328 68.0996 38.3242 67.1616 39.3593 67.1616z"/>
<path style="stroke:none; fill-rule:evenodd; fill:#000000" d="M 48.6289 69.7636C 48.6289 68.8456 48.5625 68.2946 48.3906 67.8496C 48.0039 66.8646 47.0898 66.2666 45.9726 66.2666C 44.3086 66.2666 43.2343 67.5596 43.2343 69.5486C 43.2343 71.5366 44.2695 72.7636 45.9453 72.7636C 47.3086 72.7636 48.2539 71.9706 48.4961 70.6386L 47.5429 70.6386C 47.2812 71.4426 46.75 71.8606 45.9882 71.8606C 45.3867 71.8606 44.875 71.5836 44.5586 71.0676C 44.332 70.7206 44.2539 70.3686 44.2422 69.7636L 48.6289 69.7636zM 44.2109 68.9976C 44.289 67.8846 44.9687 67.1616 45.9297 67.1616C 46.8672 67.1616 47.5937 67.9386 47.5937 68.9276C 47.5937 68.9466 47.5937 68.9706 47.582 68.9936L 44.2109 68.9976z"/>
<path style="stroke:none; fill-rule:evenodd; fill:#000000" d="M 49.9297 66.4346L 49.9297 72.4586L 50.9297 72.4586L 50.9297 69.1106C 50.9297 67.8726 51.5547 67.0596 52.5195 67.0596C 53.2578 67.0596 53.7265 67.5206 53.7265 68.2516L 53.7265 72.4546L 54.7265 72.4546L 54.7265 67.8996C 54.7265 66.8996 53.9843 66.2556 52.8242 66.2556C 51.9336 66.2556 51.3593 66.5996 50.832 67.4386L 50.832 66.4276L 49.9297 66.4346z"/>
<path style="stroke:#000000; stroke-width:1.9133; fill:none" d="M 86.559 81.4316L 143.957 81.4316L 143.957 56.5596L 86.559 56.5596L 86.559 81.4316z"/>
<path style="stroke:none; fill-rule:evenodd; fill:#000000" d="M 102.035 68.4706C 101.992 67.8846 101.867 67.5016 101.637 67.1656C 101.23 66.6026 100.512 66.2666 99.684 66.2666C 98.082 66.2666 97.035 67.5596 97.035 69.5716C 97.035 71.5246 98.059 72.7636 99.672 72.7636C 101.094 72.7636 101.992 71.8916 102.105 70.3996L 101.152 70.3996C 100.996 71.3766 100.508 71.8646 99.703 71.8646C 98.66 71.8646 98.035 71.0016 98.035 69.5756C 98.035 68.0676 98.644 67.1696 99.68 67.1696C 100.473 67.1696 100.973 67.6386 101.086 68.4736L 102.035 68.4706z"/>
<path style="stroke:none; fill-rule:evenodd; fill:#000000" d="M 105.469 66.2636C 103.766 66.2636 102.734 67.4776 102.734 69.5136C 102.734 71.5486 103.754 72.7636 105.484 72.7636C 107.187 72.7636 108.234 71.5526 108.234 69.5636C 108.234 67.4736 107.227 66.2706 105.477 66.2706L 105.469 66.2636zM 105.48 67.1616C 106.574 67.1616 107.23 68.0486 107.23 69.5446C 107.23 70.9586 106.555 71.8566 105.48 71.8566C 104.398 71.8566 103.73 70.9706 103.73 69.5096C 103.73 68.0596 104.394 67.1616 105.48 67.1616z"/>
<path style="stroke:none; fill-rule:evenodd; fill:#000000" d="M 109.531 66.4346L 109.531 72.4586L 110.531 72.4586L 110.531 69.1106C 110.531 67.8726 111.156 67.0596 112.121 67.0596C 112.859 67.0596 113.328 67.5206 113.328 68.2516L 113.328 72.4546L 114.328 72.4546L 114.328 67.8996C 114.328 66.8996 113.586 66.2556 112.426 66.2556C 111.535 66.2556 110.961 66.5996 110.434 67.4386L 110.434 66.4276L 109.531 66.4346z"/>
<path style="stroke:none; fill-rule:evenodd; fill:#000000" d="M 118.031 66.4626L 117.133 66.4626L 117.133 64.7946L 116.133 64.7946L 116.133 66.4626L 115.234 66.4626L 115.234 67.2596L 116.133 67.2596L 116.133 71.8066C 116.133 72.4116 116.535 72.7556 117.266 72.7556C 117.488 72.7556 117.715 72.7316 118.027 72.6736L 118.027 71.8376C 117.914 71.9276 117.777 71.9546 117.609 71.9546C 117.234 71.9546 117.129 71.8416 117.129 71.4116L 117.129 67.2596L 118.027 67.2596L 118.031 66.4626z"/>
<path style="stroke:none; fill-rule:evenodd; fill:#000000" d="M 124.23 69.7636C 124.23 68.8456 124.164 68.2946 123.992 67.8496C 123.605 66.8646 122.691 66.2666 121.574 66.2666C 119.91 66.2666 118.836 67.5596 118.836 69.5486C 118.836 71.5366 119.871 72.7636 121.547 72.7636C 122.91 72.7636 123.855 71.9706 124.098 70.6386L 123.144 70.6386C 122.883 71.4426 122.352 71.8606 121.59 71.8606C 120.988 71.8606 120.477 71.5836 120.16 71.0676C 119.934 70.7206 119.855 70.3686 119.844 69.7636L 124.23 69.7636zM 119.812 68.9976C 119.891 67.8846 120.57 67.1616 121.531 67.1616C 122.469 67.1616 123.195 67.9386 123.195 68.9276C 123.195 68.9466 123.195 68.9706 123.184 68.9936L 119.812 68.9976z"/>
<path style="stroke:none; fill-rule:evenodd; fill:#000000" d="M 128.082 69.3606L 130.102 66.4666L 129.023 66.4666L 127.578 68.6306L 126.133 66.4666L 125.043 66.4666L 127.051 69.4076L 124.93 72.4626L 126.02 72.4626L 127.543 70.1576L 129.047 72.4626L 130.16 72.4626L 128.082 69.3606z"/>
<path style="stroke:none; fill-rule:evenodd; fill:#000000" d="M 133.332 66.4626L 132.434 66.4626L 132.434 64.7946L 131.434 64.7946L 131.434 66.4626L 130.535 66.4626L 130.535 67.2596L 131.434 67.2596L 131.434 71.8066C 131.434 72.4116 131.836 72.7556 132.566 72.7556C 132.789 72.7556 133.016 72.7316 133.328 72.6736L 133.328 71.8376C 133.215 71.9276 133.078 71.9546 132.91 71.9546C 132.535 71.9546 132.43 71.8416 132.43 71.4116L 132.43 67.2596L 133.328 67.2596L 133.332 66.4626z"/>
<path style="stroke:#0000ff; stroke-width:1.9133; fill:none" d="M 67.4258 64.2126L 86.559 64.2126"/>
<path style="stroke:#0000ff; stroke-width:1.9133; fill:none" d="M 75.082 66.1266L 67.4297 64.2166L 75.082 62.3066"/>
<path style="stroke:#000000; stroke-width:1.9133; fill:none" d="M 163.094 127.353L 220.492 127.353L 220.492 102.482L 163.094 102.482L 163.094 127.353z"/>
<path style="stroke:none; fill-rule:evenodd; fill:#000000" d="M 181.031 112.365L 180.031 112.365L 180.031 118.365L 181.031 118.365L 181.031 112.365zM 181.031 109.962L 180.031 109.962L 180.031 111.197L 181.031 111.197L 181.031 109.962z"/>
<path style="stroke:none; fill-rule:evenodd; fill:#000000" d="M 182.73 112.337L 182.73 118.361L 183.73 118.361L 183.73 115.013C 183.73 113.775 184.355 112.962 185.32 112.962C 186.059 112.962 186.527 113.423 186.527 114.154L 186.527 118.357L 187.527 118.357L 187.527 113.802C 187.527 112.802 186.785 112.158 185.625 112.158C 184.734 112.158 184.16 112.501 183.633 113.341L 183.633 112.33L 182.73 112.337z"/>
<path style="stroke:none; fill-rule:evenodd; fill:#000000" d="M 188.93 120.865L 189.93 120.865L 189.93 117.763C 190.43 118.384 190.992 118.662 191.766 118.662C 193.309 118.662 194.324 117.404 194.324 115.47C 194.324 113.439 193.34 112.166 191.742 112.166C 190.93 112.166 190.273 112.533 189.828 113.244L 189.828 112.337L 188.93 112.337L 188.93 120.865zM 191.594 113.064C 192.641 113.064 193.324 113.998 193.324 115.447C 193.324 116.822 192.629 117.759 191.594 117.759C 190.59 117.759 189.93 116.834 189.93 115.412C 189.93 113.99 190.59 113.064 191.594 113.064z"/>
<path style="stroke:none; fill-rule:evenodd; fill:#000000" d="M 200.23 118.4L 200.23 112.369L 199.23 112.369L 199.23 115.814C 199.23 117.052 198.586 117.865 197.578 117.865C 196.816 117.865 196.332 117.404 196.332 116.673L 196.332 112.369L 195.332 112.369L 195.332 117.021C 195.332 118.021 196.09 118.666 197.281 118.666C 198.18 118.666 198.754 118.357 199.328 117.564L 199.328 118.404L 200.23 118.4z"/>
<path style="stroke:none; fill-rule:evenodd; fill:#000000" d="M 203.93 112.365L 203.031 112.365L 203.031 110.697L 202.031 110.697L 202.031 112.365L 201.133 112.365L 201.133 113.162L 202.031 113.162L 202.031 117.709C 202.031 118.314 202.434 118.658 203.164 118.658C 203.387 118.658 203.613 118.634 203.926 118.576L 203.926 117.74C 203.812 117.83 203.676 117.857 203.508 117.857C 203.133 117.857 203.027 117.744 203.027 117.314L 203.027 113.162L 203.926 113.162L 203.93 112.365z"/>
<path style="stroke:#000000; stroke-width:1.9133; fill:none" d="M 191.793 102.478L 191.793 81.4346"/>
<path style="stroke:#000000; stroke-width:1.9133; fill:none" d="M 189.879 89.0874L 191.789 81.4346L 193.699 89.0874"/>
<path style="stroke:#000000; stroke-width:1.9133; fill:none" d="M 191.793 56.5596L 191.793 35.5166"/>
<path style="stroke:#000000; stroke-width:1.9133; fill:none" d="M 189.879 43.1656L 191.789 35.5136L 193.699 43.1656"/>
<path style="stroke:#0000ff; stroke-width:1.9133; fill:none" d="M 220.492 73.7786L 239.625 73.7786"/>
<path style="stroke:#0000ff; stroke-width:1.9133; fill:none" d="M 231.973 71.8646L 239.625 73.7746L 231.973 75.6846"/>
<path style="stroke:#000000; stroke-width:1.9133; fill:none" d="M 163.094 35.5136L 220.492 35.5136L 220.492 10.6416L 163.094 10.6416L 163.094 35.5136z"/>
<path style="stroke:none; fill-rule:evenodd; fill:#000000" d="M 179.168 20.2636C 177.465 20.2636 176.434 21.4776 176.434 23.5136C 176.434 25.5486 177.453 26.7636 179.184 26.7636C 180.887 26.7636 181.934 25.5526 181.934 23.5636C 181.934 21.4736 180.926 20.2706 179.176 20.2706L 179.168 20.2636zM 179.18 21.1616C 180.273 21.1616 180.93 22.0486 180.93 23.5446C 180.93 24.9586 180.254 25.8566 179.18 25.8566C 178.098 25.8566 177.43 24.9706 177.43 23.5096C 177.43 22.0596 178.094 21.1616 179.18 21.1616z"/>
<path style="stroke:none; fill-rule:evenodd; fill:#000000" d="M 188.031 26.4976L 188.031 20.4666L 187.031 20.4666L 187.031 23.9116C 187.031 25.1496 186.387 25.9626 185.379 25.9626C 184.617 25.9626 184.133 25.5016 184.133 24.7706L 184.133 20.4666L 183.133 20.4666L 183.133 25.1186C 183.133 26.1186 183.891 26.7636 185.082 26.7636C 185.98 26.7636 186.555 26.4546 187.129 25.6616L 187.129 26.5016L 188.031 26.4976z"/>
<path style="stroke:none; fill-rule:evenodd; fill:#000000" d="M 191.629 20.4626L 190.73 20.4626L 190.73 18.7946L 189.73 18.7946L 189.73 20.4626L 188.832 20.4626L 188.832 21.2596L 189.73 21.2596L 189.73 25.8066C 189.73 26.4116 190.133 26.7556 190.863 26.7556C 191.086 26.7556 191.312 26.7316 191.625 26.6736L 191.625 25.8376C 191.512 25.9276 191.375 25.9546 191.207 25.9546C 190.832 25.9546 190.727 25.8416 190.727 25.4116L 190.727 21.2596L 191.625 21.2596L 191.629 20.4626z"/>
<path style="stroke:none; fill-rule:evenodd; fill:#000000" d="M 192.531 28.9666L 193.531 28.9666L 193.531 25.8646C 194.031 26.4856 194.594 26.7636 195.367 26.7636C 196.91 26.7636 197.926 25.5056 197.926 23.5716C 197.926 21.5406 196.941 20.2666 195.344 20.2666C 194.531 20.2666 193.875 20.6346 193.43 21.3456L 193.43 20.4386L 192.531 20.4386L 192.531 28.9666zM 195.195 21.1616C 196.242 21.1616 196.926 22.0956 196.926 23.5446C 196.926 24.9196 196.23 25.8566 195.195 25.8566C 194.191 25.8566 193.531 24.9316 193.531 23.5096C 193.531 22.0876 194.191 21.1616 195.195 21.1616z"/>
<path style="stroke:none; fill-rule:evenodd; fill:#000000" d="M 203.93 26.4976L 203.93 20.4666L 202.93 20.4666L 202.93 23.9116C 202.93 25.1496 202.285 25.9626 201.277 25.9626C 200.516 25.9626 200.031 25.5016 200.031 24.7706L 200.031 20.4666L 199.031 20.4666L 199.031 25.1186C 199.031 26.1186 199.789 26.7636 200.98 26.7636C 201.879 26.7636 202.453 26.4546 203.027 25.6616L 203.027 26.5016L 203.93 26.4976z"/>
<path style="stroke:none; fill-rule:evenodd; fill:#000000" d="M 207.629 20.4626L 206.73 20.4626L 206.73 18.7946L 205.73 18.7946L 205.73 20.4626L 204.832 20.4626L 204.832 21.2596L 205.73 21.2596L 205.73 25.8066C 205.73 26.4116 206.133 26.7556 206.863 26.7556C 207.086 26.7556 207.312 26.7316 207.625 26.6736L 207.625 25.8376C 207.512 25.9276 207.375 25.9546 207.207 25.9546C 206.832 25.9546 206.727 25.8416 206.727 25.4116L 206.727 21.2596L 207.625 21.2596L 207.629 20.4626z"/>
<path style="stroke:#000000; stroke-width:1.9133; fill:none" d="M 163.094 81.4316L 220.492 81.4316L 220.492 56.5596L 163.094 56.5596L 163.094 81.4316z"/>
<path style="stroke:none; fill-rule:evenodd; fill:#000000" d="M 174.93 64.0636L 174.93 72.4626L 175.93 72.4626L 175.93 69.1146C 175.93 67.8766 176.555 67.0636 177.52 67.0636C 177.82 67.0636 178.121 67.1656 178.348 67.3416C 178.613 67.5366 178.727 67.8256 178.727 68.2556L 178.727 72.4586L 179.727 72.4586L 179.727 67.9036C 179.727 66.8916 179.008 66.2596 177.844 66.2596C 177 66.2596 176.488 66.5246 175.93 67.2666L 175.93 64.0566L 174.93 64.0636z"/>
<path style="stroke:none; fill-rule:evenodd; fill:#000000" d="M 182.129 66.4626L 181.129 66.4626L 181.129 72.4626L 182.129 72.4626L 182.129 66.4626zM 182.129 64.0636L 181.129 64.0636L 181.129 65.2986L 182.129 65.2986L 182.129 64.0636z"/>
<path style="stroke:none; fill-rule:evenodd; fill:#000000" d="M 188.73 64.0636L 187.73 64.0636L 187.73 67.2046C 187.332 66.5916 186.695 66.2636 185.894 66.2636C 184.348 66.2636 183.332 67.5206 183.332 69.4546C 183.332 71.5016 184.344 72.7596 185.984 72.7596C 186.82 72.7596 187.402 72.4386 187.926 71.6696L 187.926 72.4586L 188.723 72.4586L 188.73 64.0636zM 186.059 67.1616C 187.078 67.1616 187.727 68.0876 187.727 69.5326C 187.727 70.9316 187.07 71.8566 186.07 71.8566C 185.027 71.8566 184.332 70.9196 184.332 69.5096C 184.332 68.0996 185.023 67.1616 186.059 67.1616z"/>
<path style="stroke:none; fill-rule:evenodd; fill:#000000" d="M 195.129 64.0636L 194.129 64.0636L 194.129 67.2046C 193.73 66.5916 193.094 66.2636 192.293 66.2636C 190.746 66.2636 189.73 67.5206 189.73 69.4546C 189.73 71.5016 190.742 72.7596 192.383 72.7596C 193.219 72.7596 193.801 72.4386 194.324 71.6696L 194.324 72.4586L 195.121 72.4586L 195.129 64.0636zM 192.457 67.1616C 193.477 67.1616 194.125 68.0876 194.125 69.5326C 194.125 70.9316 193.469 71.8566 192.469 71.8566C 191.426 71.8566 190.73 70.9196 190.73 69.5096C 190.73 68.0996 191.422 67.1616 192.457 67.1616z"/>
<path style="stroke:none; fill-rule:evenodd; fill:#000000" d="M 201.73 69.7636C 201.73 68.8456 201.664 68.2946 201.492 67.8496C 201.105 66.8646 200.191 66.2666 199.074 66.2666C 197.41 66.2666 196.336 67.5596 196.336 69.5486C 196.336 71.5366 197.371 72.7636 199.047 72.7636C 200.41 72.7636 201.355 71.9706 201.598 70.6386L 200.644 70.6386C 200.383 71.4426 199.852 71.8606 199.09 71.8606C 198.488 71.8606 197.977 71.5836 197.66 71.0676C 197.434 70.7206 197.355 70.3686 197.344 69.7636L 201.73 69.7636zM 197.312 68.9976C 197.391 67.8846 198.07 67.1616 199.031 67.1616C 199.969 67.1616 200.695 67.9386 200.695 68.9276C 200.695 68.9466 200.695 68.9706 200.684 68.9936L 197.312 68.9976z"/>
<path style="stroke:none; fill-rule:evenodd; fill:#000000" d="M 202.93 66.4346L 202.93 72.4586L 203.93 72.4586L 203.93 69.1106C 203.93 67.8726 204.555 67.0596 205.52 67.0596C 206.258 67.0596 206.727 67.5206 206.727 68.2516L 206.727 72.4546L 207.727 72.4546L 207.727 67.8996C 207.727 66.8996 206.984 66.2556 205.824 66.2556C 204.934 66.2556 204.359 66.5996 203.832 67.4386L 203.832 66.4276L 202.93 66.4346z"/>
<path style="stroke:#000000; stroke-width:1.9133; fill:none" d="M 239.625 81.4316L 297.023 81.4316L 297.023 56.5596L 239.625 56.5596L 239.625 81.4316z"/>
<path style="stroke:none; fill-rule:evenodd; fill:#000000" d="M 255.035 68.4706C 254.992 67.8846 254.867 67.5016 254.637 67.1656C 254.23 66.6026 253.512 66.2666 252.684 66.2666C 251.082 66.2666 250.035 67.5596 250.035 69.5716C 250.035 71.5246 251.059 72.7636 252.672 72.7636C 254.094 72.7636 254.992 71.8916 255.105 70.3996L 254.152 70.3996C 253.996 71.3766 253.508 71.8646 252.703 71.8646C 251.66 71.8646 251.035 71.0016 251.035 69.5756C 251.035 68.0676 251.644 67.1696 252.68 67.1696C 253.473 67.1696 253.973 67.6386 254.086 68.4736L 255.035 68.4706z"/>
<path style="stroke:none; fill-rule:evenodd; fill:#000000" d="M 258.566 66.2636C 256.863 66.2636 255.832 67.4776 255.832 69.5136C 255.832 71.5486 256.852 72.7636 258.582 72.7636C 260.285 72.7636 261.332 71.5526 261.332 69.5636C 261.332 67.4736 260.324 66.2706 258.574 66.2706L 258.566 66.2636zM 258.582 67.1616C 259.676 67.1616 260.332 68.0486 260.332 69.5446C 260.332 70.9586 259.656 71.8566 258.582 71.8566C 257.5 71.8566 256.832 70.9706 256.832 69.5096C 256.832 68.0596 257.496 67.1616 258.582 67.1616z"/>
<path style="stroke:none; fill-rule:evenodd; fill:#000000" d="M 262.629 66.4346L 262.629 72.4586L 263.629 72.4586L 263.629 69.1106C 263.629 67.8726 264.254 67.0596 265.219 67.0596C 265.957 67.0596 266.426 67.5206 266.426 68.2516L 266.426 72.4546L 267.426 72.4546L 267.426 67.8996C 267.426 66.8996 266.684 66.2556 265.523 66.2556C 264.633 66.2556 264.059 66.5996 263.531 67.4386L 263.531 66.4276L 262.629 66.4346z"/>
<path style="stroke:none; fill-rule:evenodd; fill:#000000" d="M 271.031 66.4626L 270.133 66.4626L 270.133 64.7946L 269.133 64.7946L 269.133 66.4626L 268.234 66.4626L 268.234 67.2596L 269.133 67.2596L 269.133 71.8066C 269.133 72.4116 269.535 72.7556 270.266 72.7556C 270.488 72.7556 270.715 72.7316 271.027 72.6736L 271.027 71.8376C 270.914 71.9276 270.777 71.9546 270.609 71.9546C 270.234 71.9546 270.129 71.8416 270.129 71.4116L 270.129 67.2596L 271.027 67.2596L 271.031 66.4626z"/>
<path style="stroke:none; fill-rule:evenodd; fill:#000000" d="M 277.23 69.7636C 277.23 68.8456 277.164 68.2946 276.992 67.8496C 276.605 66.8646 275.691 66.2666 274.574 66.2666C 272.91 66.2666 271.836 67.5596 271.836 69.5486C 271.836 71.5366 272.871 72.7636 274.547 72.7636C 275.91 72.7636 276.855 71.9706 277.098 70.6386L 276.144 70.6386C 275.883 71.4426 275.352 71.8606 274.59 71.8606C 273.988 71.8606 273.477 71.5836 273.16 71.0676C 272.934 70.7206 272.855 70.3686 272.844 69.7636L 277.23 69.7636zM 272.812 68.9976C 272.891 67.8846 273.57 67.1616 274.531 67.1616C 275.469 67.1616 276.195 67.9386 276.195 68.9276C 276.195 68.9466 276.195 68.9706 276.184 68.9936L 272.812 68.9976z"/>
<path style="stroke:none; fill-rule:evenodd; fill:#000000" d="M 281.082 69.3606L 283.102 66.4666L 282.023 66.4666L 280.578 68.6306L 279.133 66.4666L 278.043 66.4666L 280.051 69.4076L 277.93 72.4626L 279.02 72.4626L 280.543 70.1576L 282.047 72.4626L 283.16 72.4626L 281.082 69.3606z"/>
<path style="stroke:none; fill-rule:evenodd; fill:#000000" d="M 286.43 66.4626L 285.531 66.4626L 285.531 64.7946L 284.531 64.7946L 284.531 66.4626L 283.633 66.4626L 283.633 67.2596L 284.531 67.2596L 284.531 71.8066C 284.531 72.4116 284.934 72.7556 285.664 72.7556C 285.887 72.7556 286.113 72.7316 286.426 72.6736L 286.426 71.8376C 286.312 71.9276 286.176 71.9546 286.008 71.9546C 285.633 71.9546 285.527 71.8416 285.527 71.4116L 285.527 67.2596L 286.426 67.2596L 286.43 66.4626z"/>
<path style="stroke:#000000; stroke-dasharray:6,3; stroke-width:1.9133; fill:none" d="M 220.492 64.2126L 239.625 64.2126"/>
<path style="stroke:#000000; stroke-dasharray:6,3; stroke-width:1.9133; fill:none" d="M 228.144 66.1266L 220.492 64.2166L 228.144 62.3066"/>
<path style="stroke:#000000; stroke-width:1.9133; fill:none" d="M 318.074 127.353L 375.473 127.353L 375.473 102.482L 318.074 102.482L 318.074 127.353z"/>
<path style="stroke:none; fill-rule:evenodd; fill:#000000" d="M 336.031 112.365L 335.031 112.365L 335.031 118.365L 336.031 118.365L 336.031 112.365zM 336.031 109.962L 335.031 109.962L 335.031 111.197L 336.031 111.197L 336.031 109.962z"/>
<path style="stroke:none; fill-rule:evenodd; fill:#000000" d="M 337.73 112.337L 337.73 118.361L 338.73 118.361L 338.73 115.013C 338.73 113.775 339.355 112.962 340.32 112.962C 341.059 112.962 341.527 113.423 341.527 114.154L 341.527 118.357L 342.527 118.357L 342.527 113.802C 342.527 112.802 341.785 112.158 340.625 112.158C 339.734 112.158 339.16 112.501 338.633 113.341L 338.633 112.33L 337.73 112.337z"/>
<path style="stroke:none; fill-rule:evenodd; fill:#000000" d="M 343.832 120.865L 344.832 120.865L 344.832 117.763C 345.332 118.384 345.894 118.662 346.668 118.662C 348.211 118.662 349.227 117.404 349.227 115.47C 349.227 113.439 348.242 112.166 346.644 112.166C 345.832 112.166 345.176 112.533 344.73 113.244L 344.73 112.337L 343.832 112.337L 343.832 120.865zM 346.496 113.064C 347.543 113.064 348.227 113.998 348.227 115.447C 348.227 116.822 347.531 117.759 346.496 117.759C 345.492 117.759 344.832 116.834 344.832 115.412C 344.832 113.99 345.492 113.064 346.496 113.064z"/>
<path style="stroke:none; fill-rule:evenodd; fill:#000000" d="M 355.23 118.4L 355.23 112.369L 354.23 112.369L 354.23 115.814C 354.23 117.052 353.586 117.865 352.578 117.865C 351.816 117.865 351.332 117.404 351.332 116.673L 351.332 112.369L 350.332 112.369L 350.332 117.021C 350.332 118.021 351.09 118.666 352.281 118.666C 353.18 118.666 353.754 118.357 354.328 117.564L 354.328 118.404L 355.23 118.4z"/>
<path style="stroke:none; fill-rule:evenodd; fill:#000000" d="M 358.93 112.365L 358.031 112.365L 358.031 110.697L 357.031 110.697L 357.031 112.365L 356.133 112.365L 356.133 113.162L 357.031 113.162L 357.031 117.709C 357.031 118.314 357.434 118.658 358.164 118.658C 358.387 118.658 358.613 118.634 358.926 118.576L 358.926 117.74C 358.812 117.83 358.676 117.857 358.508 117.857C 358.133 117.857 358.027 117.744 358.027 117.314L 358.027 113.162L 358.926 113.162L 358.93 112.365z"/>
<path style="stroke:#000000; stroke-width:1.9133; fill:none" d="M 346.773 102.478L 346.773 81.4346"/>
<path style="stroke:#000000; stroke-width:1.9133; fill:none" d="M 344.859 89.0874L 346.77 81.4346L 348.68 89.0874"/>
<path style="stroke:#000000; stroke-width:1.9133; fill:none" d="M 346.773 56.5596L 346.773 35.5166"/>
<path style="stroke:#000000; stroke-width:1.9133; fill:none" d="M 344.859 43.1656L 346.77 35.5136L 348.68 43.1656"/>
<path style="stroke:#000000; stroke-dasharray:6,3; stroke-width:1.9133; fill:none" d="M 375.473 73.7786L 394.605 73.7786"/>
<path style="stroke:#000000; stroke-dasharray:6,3; stroke-width:1.9133; fill:none" d="M 386.953 71.8646L 394.605 73.7746L 386.953 75.6846"/>
<path style="stroke:#000000; stroke-width:1.9133; fill:none" d="M 318.074 35.5136L 375.473 35.5136L 375.473 10.6416L 318.074 10.6416L 318.074 35.5136z"/>
<path style="stroke:none; fill-rule:evenodd; fill:#000000" d="M 334.168 20.2636C 332.465 20.2636 331.434 21.4776 331.434 23.5136C 331.434 25.5486 332.453 26.7636 334.184 26.7636C 335.887 26.7636 336.934 25.5526 336.934 23.5636C 336.934 21.4736 335.926 20.2706 334.176 20.2706L 334.168 20.2636zM 334.18 21.1616C 335.273 21.1616 335.93 22.0486 335.93 23.5446C 335.93 24.9586 335.254 25.8566 334.18 25.8566C 333.098 25.8566 332.43 24.9706 332.43 23.5096C 332.43 22.0596 333.094 21.1616 334.18 21.1616z"/>
<path style="stroke:none; fill-rule:evenodd; fill:#000000" d="M 342.93 26.4976L 342.93 20.4666L 341.93 20.4666L 341.93 23.9116C 341.93 25.1496 341.285 25.9626 340.277 25.9626C 339.516 25.9626 339.031 25.5016 339.031 24.7706L 339.031 20.4666L 338.031 20.4666L 338.031 25.1186C 338.031 26.1186 338.789 26.7636 339.98 26.7636C 340.879 26.7636 341.453 26.4546 342.027 25.6616L 342.027 26.5016L 342.93 26.4976z"/>
<path style="stroke:none; fill-rule:evenodd; fill:#000000" d="M 346.629 20.4626L 345.73 20.4626L 345.73 18.7946L 344.73 18.7946L 344.73 20.4626L 343.832 20.4626L 343.832 21.2596L 344.73 21.2596L 344.73 25.8066C 344.73 26.4116 345.133 26.7556 345.863 26.7556C 346.086 26.7556 346.312 26.7316 346.625 26.6736L 346.625 25.8376C 346.512 25.9276 346.375 25.9546 346.207 25.9546C 345.832 25.9546 345.727 25.8416 345.727 25.4116L 345.727 21.2596L 346.625 21.2596L 346.629 20.4626z"/>
<path style="stroke:none; fill-rule:evenodd; fill:#000000" d="M 347.531 28.9666L 348.531 28.9666L 348.531 25.8646C 349.031 26.4856 349.594 26.7636 350.367 26.7636C 351.91 26.7636 352.926 25.5056 352.926 23.5716C 352.926 21.5406 351.941 20.2666 350.344 20.2666C 349.531 20.2666 348.875 20.6346 348.43 21.3456L 348.43 20.4386L 347.531 20.4386L 347.531 28.9666zM 350.195 21.1616C 351.242 21.1616 351.926 22.0956 351.926 23.5446C 351.926 24.9196 351.23 25.8566 350.195 25.8566C 349.191 25.8566 348.531 24.9316 348.531 23.5096C 348.531 22.0876 349.191 21.1616 350.195 21.1616z"/>
<path style="stroke:none; fill-rule:evenodd; fill:#000000" d="M 358.93 26.4976L 358.93 20.4666L 357.93 20.4666L 357.93 23.9116C 357.93 25.1496 357.285 25.9626 356.277 25.9626C 355.516 25.9626 355.031 25.5016 355.031 24.7706L 355.031 20.4666L 354.031 20.4666L 354.031 25.1186C 354.031 26.1186 354.789 26.7636 355.98 26.7636C 356.879 26.7636 357.453 26.4546 358.027 25.6616L 358.027 26.5016L 358.93 26.4976z"/>
<path style="stroke:none; fill-rule:evenodd; fill:#000000" d="M 362.629 20.4626L 361.73 20.4626L 361.73 18.7946L 360.73 18.7946L 360.73 20.4626L 359.832 20.4626L 359.832 21.2596L 360.73 21.2596L 360.73 25.8066C 360.73 26.4116 361.133 26.7556 361.863 26.7556C 362.086 26.7556 362.312 26.7316 362.625 26.6736L 362.625 25.8376C 362.512 25.9276 362.375 25.9546 362.207 25.9546C 361.832 25.9546 361.727 25.8416 361.727 25.4116L 361.727 21.2596L 362.625 21.2596L 362.629 20.4626z"/>
<path style="stroke:#000000; stroke-width:1.9133; fill:none" d="M 318.074 81.4316L 375.473 81.4316L 375.473 56.5596L 318.074 56.5596L 318.074 81.4316z"/>
<path style="stroke:none; fill-rule:evenodd; fill:#000000" d="M 329.832 64.0636L 329.832 72.4626L 330.832 72.4626L 330.832 69.1146C 330.832 67.8766 331.457 67.0636 332.422 67.0636C 332.723 67.0636 333.023 67.1656 333.25 67.3416C 333.516 67.5366 333.629 67.8256 333.629 68.2556L 333.629 72.4586L 334.629 72.4586L 334.629 67.9036C 334.629 66.8916 333.91 66.2596 332.746 66.2596C 331.902 66.2596 331.391 66.5246 330.832 67.2666L 330.832 64.0566L 329.832 64.0636z"/>
<path style="stroke:none; fill-rule:evenodd; fill:#000000" d="M 337.129 66.4626L 336.129 66.4626L 336.129 72.4626L 337.129 72.4626L 337.129 66.4626zM 337.129 64.0636L 336.129 64.0636L 336.129 65.2986L 337.129 65.2986L 337.129 64.0636z"/>
<path style="stroke:none; fill-rule:evenodd; fill:#000000" d="M 343.73 64.0636L 342.73 64.0636L 342.73 67.2046C 342.332 66.5916 341.695 66.2636 340.894 66.2636C 339.348 66.2636 338.332 67.5206 338.332 69.4546C 338.332 71.5016 339.344 72.7596 340.984 72.7596C 341.82 72.7596 342.402 72.4386 342.926 71.6696L 342.926 72.4586L 343.723 72.4586L 343.73 64.0636zM 341.059 67.1616C 342.078 67.1616 342.727 68.0876 342.727 69.5326C 342.727 70.9316 342.07 71.8566 341.07 71.8566C 340.027 71.8566 339.332 70.9196 339.332 69.5096C 339.332 68.0996 340.023 67.1616 341.059 67.1616z"/>
<path style="stroke:none; fill-rule:evenodd; fill:#000000" d="M 350.129 64.0636L 349.129 64.0636L 349.129 67.2046C 348.73 66.5916 348.094 66.2636 347.293 66.2636C 345.746 66.2636 344.73 67.5206 344.73 69.4546C 344.73 71.5016 345.742 72.7596 347.383 72.7596C 348.219 72.7596 348.801 72.4386 349.324 71.6696L 349.324 72.4586L 350.121 72.4586L 350.129 64.0636zM 347.457 67.1616C 348.477 67.1616 349.125 68.0876 349.125 69.5326C 349.125 70.9316 348.469 71.8566 347.469 71.8566C 346.426 71.8566 345.73 70.9196 345.73 69.5096C 345.73 68.0996 346.422 67.1616 347.457 67.1616z"/>
<path style="stroke:none; fill-rule:evenodd; fill:#000000" d="M 356.629 69.7636C 356.629 68.8456 356.562 68.2946 356.391 67.8496C 356.004 66.8646 355.09 66.2666 353.973 66.2666C 352.309 66.2666 351.234 67.5596 351.234 69.5486C 351.234 71.5366 352.27 72.7636 353.945 72.7636C 355.309 72.7636 356.254 71.9706 356.496 70.6386L 355.543 70.6386C 355.281 71.4426 354.75 71.8606 353.988 71.8606C 353.387 71.8606 352.875 71.5836 352.559 71.0676C 352.332 70.7206 352.254 70.3686 352.242 69.7636L 356.629 69.7636zM 352.211 68.9976C 352.289 67.8846 352.969 67.1616 353.93 67.1616C 354.867 67.1616 355.594 67.9386 355.594 68.9276C 355.594 68.9466 355.594 68.9706 355.582 68.9936L 352.211 68.9976z"/>
<path style="stroke:none; fill-rule:evenodd; fill:#000000" d="M 357.93 66.4346L 357.93 72.4586L 358.93 72.4586L 358.93 69.1106C 358.93 67.8726 359.555 67.0596 360.52 67.0596C 361.258 67.0596 361.727 67.5206 361.727 68.2516L 361.727 72.4546L 362.727 72.4546L 362.727 67.8996C 362.727 66.8996 361.984 66.2556 360.824 66.2556C 359.934 66.2556 359.359 66.5996 358.832 67.4386L 358.832 66.4276L 357.93 66.4346z"/>
<path style="stroke:#000000; stroke-width:1.9133; fill:none" d="M 394.605 81.4316L 452.004 81.4316L 452.004 56.5596L 394.605 56.5596L 394.605 81.4316z"/>
<path style="stroke:none; fill-rule:evenodd; fill:#000000" d="M 410.035 68.4706C 409.992 67.8846 409.867 67.5016 409.637 67.1656C 409.23 66.6026 408.512 66.2666 407.684 66.2666C 406.082 66.2666 405.035 67.5596 405.035 69.5716C 405.035 71.5246 406.059 72.7636 407.672 72.7636C 409.094 72.7636 409.992 71.8916 410.105 70.3996L 409.152 70.3996C 408.996 71.3766 408.508 71.8646 407.703 71.8646C 406.66 71.8646 406.035 71.0016 406.035 69.5756C 406.035 68.0676 406.644 67.1696 407.68 67.1696C 408.473 67.1696 408.973 67.6386 409.086 68.4736L 410.035 68.4706z"/>
<path style="stroke:none; fill-rule:evenodd; fill:#000000" d="M 413.566 66.2636C 411.863 66.2636 410.832 67.4776 410.832 69.5136C 410.832 71.5486 411.852 72.7636 413.582 72.7636C 415.285 72.7636 416.332 71.5526 416.332 69.5636C 416.332 67.4736 415.324 66.2706 413.574 66.2706L 413.566 66.2636zM 413.582 67.1616C 414.676 67.1616 415.332 68.0486 415.332 69.5446C 415.332 70.9586 414.656 71.8566 413.582 71.8566C 412.5 71.8566 411.832 70.9706 411.832 69.5096C 411.832 68.0596 412.496 67.1616 413.582 67.1616z"/>
<path style="stroke:none; fill-rule:evenodd; fill:#000000" d="M 417.531 66.4346L 417.531 72.4586L 418.531 72.4586L 418.531 69.1106C 418.531 67.8726 419.156 67.0596 420.121 67.0596C 420.859 67.0596 421.328 67.5206 421.328 68.2516L 421.328 72.4546L 422.328 72.4546L 422.328 67.8996C 422.328 66.8996 421.586 66.2556 420.426 66.2556C 419.535 66.2556 418.961 66.5996 418.434 67.4386L 418.434 66.4276L 417.531 66.4346z"/>
<path style="stroke:none; fill-rule:evenodd; fill:#000000" d="M 426.031 66.4626L 425.133 66.4626L 425.133 64.7946L 424.133 64.7946L 424.133 66.4626L 423.234 66.4626L 423.234 67.2596L 424.133 67.2596L 424.133 71.8066C 424.133 72.4116 424.535 72.7556 425.266 72.7556C 425.488 72.7556 425.715 72.7316 426.027 72.6736L 426.027 71.8376C 425.914 71.9276 425.777 71.9546 425.609 71.9546C 425.234 71.9546 425.129 71.8416 425.129 71.4116L 425.129 67.2596L 426.027 67.2596L 426.031 66.4626z"/>
<path style="stroke:none; fill-rule:evenodd; fill:#000000" d="M 432.23 69.7636C 432.23 68.8456 432.164 68.2946 431.992 67.8496C 431.605 66.8646 430.691 66.2666 429.574 66.2666C 427.91 66.2666 426.836 67.5596 426.836 69.5486C 426.836 71.5366 427.871 72.7636 429.547 72.7636C 430.91 72.7636 431.855 71.9706 432.098 70.6386L 431.144 70.6386C 430.883 71.4426 430.352 71.8606 429.59 71.8606C 428.988 71.8606 428.477 71.5836 428.16 71.0676C 427.934 70.7206 427.855 70.3686 427.844 69.7636L 432.23 69.7636zM 427.812 68.9976C 427.891 67.8846 428.57 67.1616 429.531 67.1616C 430.469 67.1616 431.195 67.9386 431.195 68.9276C 431.195 68.9466 431.195 68.9706 431.184 68.9936L 427.812 68.9976z"/>
<path style="stroke:none; fill-rule:evenodd; fill:#000000" d="M 436.082 69.3606L 438.102 66.4666L 437.023 66.4666L 435.578 68.6306L 434.133 66.4666L 433.043 66.4666L 435.051 69.4076L 432.93 72.4626L 434.02 72.4626L 435.543 70.1576L 437.047 72.4626L 438.16 72.4626L 436.082 69.3606z"/>
<path style="stroke:none; fill-rule:evenodd; fill:#000000" d="M 441.332 66.4626L 440.434 66.4626L 440.434 64.7946L 439.434 64.7946L 439.434 66.4626L 438.535 66.4626L 438.535 67.2596L 439.434 67.2596L 439.434 71.8066C 439.434 72.4116 439.836 72.7556 440.566 72.7556C 440.789 72.7556 441.016 72.7316 441.328 72.6736L 441.328 71.8376C 441.215 71.9276 441.078 71.9546 440.91 71.9546C 440.535 71.9546 440.43 71.8416 440.43 71.4116L 440.43 67.2596L 441.328 67.2596L 441.332 66.4626z"/>
<path style="stroke:#0000ff; stroke-width:1.9133; fill:none" d="M 375.473 64.2126L 394.605 64.2126"/>
<path style="stroke:#0000ff; stroke-width:1.9133; fill:none" d="M 383.125 66.1266L 375.473 64.2166L 383.125 62.3066"/>
<path style="stroke:#ff0000; stroke-width:1.9133; fill:none" d="M 73.1679 68.0406L 73.1679 79.5166"/>
<path style="stroke:#ff0000; stroke-width:1.9133; fill:none" d="M 235.801 79.5166L 226.234 79.5166"/>
<path style="stroke:#ff0000; stroke-width:1.9133; fill:none" d="M 381.215 68.0406L 381.215 79.5166"/>
<path style="stroke:none; fill-rule:evenodd; fill:#000000" d="M 26.9297 153.365L 27.9297 153.365L 27.9297 150.263C 28.4297 150.884 28.9922 151.162 29.7656 151.162C 31.3086 151.162 32.3242 149.904 32.3242 147.97C 32.3242 145.939 31.3398 144.666 29.7422 144.666C 28.9297 144.666 28.2734 145.033 27.8281 145.744L 27.8281 144.837L 26.9297 144.837L 26.9297 153.365zM 29.5937 145.564C 30.6406 145.564 31.3242 146.498 31.3242 147.947C 31.3242 149.322 30.6289 150.259 29.5937 150.259C 28.5898 150.259 27.9297 149.334 27.9297 147.912C 27.9297 146.49 28.5898 145.564 29.5937 145.564z"/>
<path style="stroke:none; fill-rule:evenodd; fill:#000000" d="M 33.4297 144.837L 33.4297 150.861L 34.4297 150.861L 34.4297 147.728C 34.4297 146.865 34.6406 146.302 35.0898 145.966C 35.3789 145.748 35.6601 145.681 36.3125 145.669L 36.3125 144.705C 36.1562 144.685 36.0781 144.673 35.9531 144.673C 35.3437 144.673 34.8789 145.041 34.332 145.935L 34.332 144.845L 33.4297 144.837z"/>
<path style="stroke:none; fill-rule:evenodd; fill:#000000" d="M 39.6679 144.662C 37.9648 144.662 36.9336 145.876 36.9336 147.912C 36.9336 149.947 37.9531 151.162 39.6836 151.162C 41.3867 151.162 42.4336 149.951 42.4336 147.962C 42.4336 145.873 41.4258 144.669 39.6758 144.669L 39.6679 144.662zM 39.6797 145.564C 40.7734 145.564 41.4297 146.451 41.4297 147.947C 41.4297 149.361 40.7539 150.259 39.6797 150.259C 38.5976 150.259 37.9297 149.373 37.9297 147.912C 37.9297 146.462 38.5937 145.564 39.6797 145.564z"/>
<path style="stroke:none; fill-rule:evenodd; fill:#000000" d="M 48.2382 146.869C 48.1953 146.283 48.0703 145.9 47.8398 145.564C 47.4336 145.001 46.7148 144.666 45.8867 144.666C 44.2851 144.666 43.2382 145.959 43.2382 147.97C 43.2382 149.923 44.2617 151.162 45.875 151.162C 47.2968 151.162 48.1953 150.291 48.3086 148.798L 47.3554 148.798C 47.1992 149.775 46.7109 150.263 45.9062 150.263C 44.8632 150.263 44.2382 149.4 44.2382 147.974C 44.2382 146.466 44.8476 145.568 45.8828 145.568C 46.6758 145.568 47.1758 146.037 47.289 146.873L 48.2382 146.869z"/>
<path style="stroke:none; fill-rule:evenodd; fill:#000000" d="M 54.5312 148.162C 54.5312 147.244 54.4648 146.693 54.2929 146.248C 53.9062 145.263 52.9922 144.666 51.875 144.666C 50.2109 144.666 49.1367 145.959 49.1367 147.947C 49.1367 149.935 50.1718 151.162 51.8476 151.162C 53.2109 151.162 54.1562 150.369 54.3984 149.037L 53.4453 149.037C 53.1836 149.841 52.6523 150.259 51.8906 150.259C 51.289 150.259 50.7773 149.982 50.4609 149.466C 50.2343 149.119 50.1562 148.767 50.1445 148.162L 54.5312 148.162zM 50.1093 147.396C 50.1875 146.283 50.8672 145.56 51.8281 145.56C 52.7656 145.56 53.4922 146.337 53.4922 147.326C 53.4922 147.345 53.4922 147.369 53.4804 147.392L 50.1093 147.396z"/>
<path style="stroke:none; fill-rule:evenodd; fill:#000000" d="M 60.0586 146.525C 60.0468 145.337 59.2617 144.666 57.8593 144.666C 56.4492 144.666 55.5351 145.392 55.5351 146.513C 55.5351 147.459 56.0234 147.908 57.4726 148.255L 58.3828 148.474C 59.0586 148.634 59.3281 148.876 59.3281 149.314C 59.3281 149.876 58.7617 150.259 57.9179 150.259C 57.3984 150.259 56.9609 150.111 56.7187 149.853C 56.5703 149.681 56.5 149.505 56.4414 149.072L 55.4258 149.072C 55.4687 150.482 56.2539 151.162 57.8359 151.162C 59.3593 151.162 60.3281 150.412 60.3281 149.248C 60.3281 148.349 59.8164 147.853 58.6015 147.564L 57.6679 147.345C 56.875 147.162 56.5351 146.908 56.5351 146.482C 56.5351 145.931 57.0312 145.572 57.8203 145.572C 58.5937 145.572 59.0117 145.9 59.0351 146.529L 60.0586 146.525z"/>
<path style="stroke:none; fill-rule:evenodd; fill:#000000" d="M 65.7578 146.525C 65.7461 145.337 64.9609 144.666 63.5586 144.666C 62.1484 144.666 61.2343 145.392 61.2343 146.513C 61.2343 147.459 61.7226 147.908 63.1718 148.255L 64.082 148.474C 64.7578 148.634 65.0273 148.876 65.0273 149.314C 65.0273 149.876 64.4609 150.259 63.6172 150.259C 63.0976 150.259 62.6601 150.111 62.4179 149.853C 62.2695 149.681 62.1992 149.505 62.1406 149.072L 61.125 149.072C 61.1679 150.482 61.9531 151.162 63.5351 151.162C 65.0586 151.162 66.0273 150.412 66.0273 149.248C 66.0273 148.349 65.5156 147.853 64.3008 147.564L 63.3672 147.345C 62.5742 147.162 62.2343 146.908 62.2343 146.482C 62.2343 145.931 62.7304 145.572 63.5195 145.572C 64.2929 145.572 64.7109 145.9 64.7343 146.529L 65.7578 146.525z"/>
<path style="stroke:none; fill-rule:evenodd; fill:#000000" d="M 75.5312 148.162C 75.5312 147.244 75.4648 146.693 75.2929 146.248C 74.9062 145.263 73.9922 144.666 72.875 144.666C 71.2109 144.666 70.1367 145.959 70.1367 147.947C 70.1367 149.935 71.1718 151.162 72.8476 151.162C 74.2109 151.162 75.1562 150.369 75.3984 149.037L 74.4453 149.037C 74.1836 149.841 73.6523 150.259 72.8906 150.259C 72.289 150.259 71.7773 149.982 71.4609 149.466C 71.2343 149.119 71.1562 148.767 71.1445 148.162L 75.5312 148.162zM 71.1093 147.396C 71.1875 146.283 71.8672 145.56 72.8281 145.56C 73.7656 145.56 74.4922 146.337 74.4922 147.326C 74.4922 147.345 74.4922 147.369 74.4804 147.392L 71.1093 147.396z"/>
<path style="stroke:none; fill-rule:evenodd; fill:#000000" d="M 79.3008 150.865L 81.605 144.865L 80.5273 144.865L 78.832 149.724L 77.2265 144.865L 76.1484 144.865L 78.2578 150.865L 79.3008 150.865z"/>
<path style="stroke:none; fill-rule:evenodd; fill:#000000" d="M 87.73 148.162C 87.73 147.244 87.664 146.693 87.492 146.248C 87.105 145.263 86.191 144.666 85.074 144.666C 83.41 144.666 82.336 145.959 82.336 147.947C 82.336 149.935 83.371 151.162 85.047 151.162C 86.41 151.162 87.355 150.369 87.598 149.037L 86.644 149.037C 86.383 149.841 85.852 150.259 85.09 150.259C 84.488 150.259 83.977 149.982 83.66 149.466C 83.434 149.119 83.355 148.767 83.344 148.162L 87.73 148.162zM 83.312 147.396C 83.391 146.283 84.07 145.56 85.031 145.56C 85.969 145.56 86.695 146.337 86.695 147.326C 86.695 147.345 86.695 147.369 86.684 147.392L 83.312 147.396z"/>
<path style="stroke:none; fill-rule:evenodd; fill:#000000" d="M 88.93 144.837L 88.93 150.861L 89.93 150.861L 89.93 147.513C 89.93 146.275 90.555 145.462 91.52 145.462C 92.258 145.462 92.727 145.923 92.727 146.654L 92.727 150.857L 93.727 150.857L 93.727 146.302C 93.727 145.302 92.984 144.658 91.824 144.658C 90.934 144.658 90.359 145.001 89.832 145.841L 89.832 144.83L 88.93 144.837z"/>
<path style="stroke:none; fill-rule:evenodd; fill:#000000" d="M 97.43 144.865L 96.531 144.865L 96.531 143.197L 95.531 143.197L 95.531 144.865L 94.633 144.865L 94.633 145.662L 95.531 145.662L 95.531 150.209C 95.531 150.814 95.934 151.158 96.664 151.158C 96.887 151.158 97.113 151.134 97.426 151.076L 97.426 150.24C 97.312 150.33 97.176 150.357 97.008 150.357C 96.633 150.357 96.527 150.244 96.527 149.814L 96.527 145.662L 97.426 145.662L 97.43 144.865z"/>
<path style="stroke:none; fill-rule:evenodd; fill:#000000" d="M 103.93 145.095L 103.93 150.861L 104.93 150.861L 104.93 142.763L 104.262 142.763C 103.906 144.005 103.676 144.177 102.105 144.373L 102.105 145.091L 103.93 145.095z"/>
<path style="stroke:none; fill-rule:evenodd; fill:#000000" d="M 29.0547 153.962C 27.9375 155.47 27.2304 157.564 27.2304 159.373C 27.2304 161.189 27.9336 163.283 29.0547 164.791L 29.6679 164.791C 28.6797 163.146 28.1289 161.212 28.1289 159.373C 28.1289 157.544 28.6797 155.599 29.6679 153.962L 29.0547 153.962z"/>
<path style="stroke:none; fill-rule:evenodd; fill:#000000" d="M 35.5351 158.369C 35.4922 157.783 35.3672 157.4 35.1367 157.064C 34.7304 156.501 34.0117 156.166 33.1836 156.166C 31.582 156.166 30.5351 157.459 30.5351 159.47C 30.5351 161.423 31.5586 162.662 33.1718 162.662C 34.5937 162.662 35.4922 161.791 35.6054 160.298L 34.6523 160.298C 34.4961 161.275 34.0078 161.763 33.2031 161.763C 32.1601 161.763 31.5351 160.9 31.5351 159.474C 31.5351 157.966 32.1445 157.068 33.1797 157.068C 33.9726 157.068 34.4726 157.537 34.5859 158.373L 35.5351 158.369z"/>
<path style="stroke:none; fill-rule:evenodd; fill:#000000" d="M 38.9687 156.162C 37.2656 156.162 36.2343 157.376 36.2343 159.412C 36.2343 161.447 37.2539 162.662 38.9843 162.662C 40.6875 162.662 41.7343 161.451 41.7343 159.462C 41.7343 157.373 40.7265 156.169 38.9765 156.169L 38.9687 156.162zM 38.9804 157.064C 40.0742 157.064 40.7304 157.951 40.7304 159.447C 40.7304 160.861 40.0547 161.759 38.9804 161.759C 37.8984 161.759 37.2304 160.873 37.2304 159.412C 37.2304 157.962 37.8945 157.064 38.9804 157.064z"/>
<path style="stroke:none; fill-rule:evenodd; fill:#000000" d="M 43.0312 156.337L 43.0312 162.361L 44.0312 162.361L 44.0312 159.013C 44.0312 157.775 44.6562 156.962 45.6211 156.962C 46.3593 156.962 46.8281 157.423 46.8281 158.154L 46.8281 162.357L 47.8281 162.357L 47.8281 157.802C 47.8281 156.802 47.0859 156.158 45.9258 156.158C 45.0351 156.158 44.4609 156.501 43.9336 157.341L 43.9336 156.33L 43.0312 156.337z"/>
<path style="stroke:none; fill-rule:evenodd; fill:#000000" d="M 51.5312 156.365L 50.6328 156.365L 50.6328 154.697L 49.6328 154.697L 49.6328 156.365L 48.7343 156.365L 48.7343 157.162L 49.6328 157.162L 49.6328 161.709C 49.6328 162.314 50.0351 162.658 50.7656 162.658C 50.9882 162.658 51.2148 162.634 51.5273 162.576L 51.5273 161.74C 51.414 161.83 51.2773 161.857 51.1093 161.857C 50.7343 161.857 50.6289 161.744 50.6289 161.314L 50.6289 157.162L 51.5273 157.162L 51.5312 156.365z"/>
<path style="stroke:none; fill-rule:evenodd; fill:#000000" d="M 57.7304 159.662C 57.7304 158.744 57.664 158.193 57.4922 157.748C 57.1054 156.763 56.1914 156.166 55.0742 156.166C 53.4101 156.166 52.3359 157.459 52.3359 159.447C 52.3359 161.435 53.3711 162.662 55.0468 162.662C 56.4101 162.662 57.3554 161.869 57.5976 160.537L 56.6445 160.537C 56.3828 161.341 55.8515 161.759 55.0898 161.759C 54.4882 161.759 53.9765 161.482 53.6601 160.966C 53.4336 160.619 53.3554 160.267 53.3437 159.662L 57.7304 159.662zM 53.3125 158.896C 53.3906 157.783 54.0703 157.06 55.0312 157.06C 55.9687 157.06 56.6953 157.837 56.6953 158.826C 56.6953 158.845 56.6953 158.869 56.6836 158.892L 53.3125 158.896z"/>
<path style="stroke:none; fill-rule:evenodd; fill:#000000" d="M 61.582 159.259L 63.6015 156.365L 62.5234 156.365L 61.0781 158.529L 59.6328 156.365L 58.5429 156.365L 60.5508 159.306L 58.4297 162.361L 59.5195 162.361L 61.0429 160.056L 62.5468 162.361L 63.6601 162.361L 61.582 159.259z"/>
<path style="stroke:none; fill-rule:evenodd; fill:#000000" d="M 66.832 156.365L 65.9336 156.365L 65.9336 154.697L 64.9336 154.697L 64.9336 156.365L 64.0351 156.365L 64.0351 157.162L 64.9336 157.162L 64.9336 161.709C 64.9336 162.314 65.3359 162.658 66.0664 162.658C 66.289 162.658 66.5156 162.634 66.8281 162.576L 66.8281 161.74C 66.7148 161.83 66.5781 161.857 66.4101 161.857C 66.0351 161.857 65.9297 161.744 65.9297 161.314L 65.9297 157.162L 66.8281 157.162L 66.832 156.365z"/>
<path style="stroke:none; fill-rule:evenodd; fill:#000000" d="M 75.0312 156.365L 75.0312 157.22C 74.5508 156.501 73.9648 156.166 73.1953 156.166C 71.6679 156.166 70.6367 157.505 70.6367 159.47C 70.6367 160.462 70.8984 161.271 71.3906 161.849C 71.8359 162.357 72.4765 162.658 73.1093 162.658C 73.8632 162.658 74.3906 162.33 74.9297 161.544L 74.9297 161.853C 74.9297 162.666 74.8281 163.162 74.5898 163.494C 74.3398 163.849 73.8515 164.052 73.2734 164.052C 72.8437 164.052 72.457 163.939 72.1953 163.732C 71.9804 163.56 71.8906 163.4 71.832 163.044L 70.8672 163.044C 70.9687 164.177 71.8476 164.853 73.2578 164.853C 74.1484 164.853 74.914 164.568 75.3047 164.087C 75.7617 163.541 75.9336 162.783 75.9336 161.373L 75.9336 156.357L 75.0312 156.365zM 73.2929 157.064C 74.3203 157.064 74.9297 157.939 74.9297 159.447C 74.9297 160.884 74.3125 161.759 73.3047 161.759C 72.2617 161.759 71.6328 160.873 71.6328 159.412C 71.6328 157.962 72.2734 157.064 73.2929 157.064z"/>
<path style="stroke:none; fill-rule:evenodd; fill:#000000" d="M 82.871 161.802C 82.766 161.861 82.719 161.861 82.66 161.861C 82.32 161.861 82.133 161.689 82.133 161.388L 82.133 157.822C 82.133 156.748 81.355 156.166 79.8828 156.166C 79.0156 156.166 78.2968 156.419 77.8945 156.869C 77.6211 157.177 77.5078 157.525 77.4843 158.126L 78.4297 158.126C 78.5078 157.396 78.9336 157.064 79.8164 157.064C 80.6601 157.064 81.1328 157.384 81.1328 157.962L 81.1328 158.216C 81.1328 158.619 80.8984 158.791 80.1562 158.884C 78.832 159.056 78.6289 159.103 78.2695 159.251C 77.5859 159.537 77.2382 160.08 77.2382 160.865C 77.2382 161.959 77.9922 162.65 79.2031 162.65C 79.957 162.65 80.5625 162.376 81.2382 161.732C 81.3047 162.365 81.602 162.65 82.219 162.65C 82.41 162.65 82.559 162.626 82.867 162.544L 82.871 161.802zM 81.1289 160.501C 81.1289 160.83 81.039 161.033 80.7617 161.306C 80.3828 161.669 79.9258 161.861 79.3789 161.861C 78.6562 161.861 78.2304 161.498 78.2304 160.869C 78.2304 160.22 78.6406 159.888 79.6328 159.736C 80.6132 159.595 80.8125 159.548 81.125 159.396L 81.1289 160.501z"/>
<path style="stroke:none; fill-rule:evenodd; fill:#000000" d="M 85.93 156.365L 85.031 156.365L 85.031 154.697L 84.031 154.697L 84.031 156.365L 83.133 156.365L 83.133 157.162L 84.031 157.162L 84.031 161.709C 84.031 162.314 84.434 162.658 85.164 162.658C 85.387 162.658 85.613 162.634 85.926 162.576L 85.926 161.74C 85.812 161.83 85.676 161.857 85.508 161.857C 85.133 161.857 85.027 161.744 85.027 161.314L 85.027 157.162L 85.926 157.162L 85.93 156.365z"/>
<path style="stroke:none; fill-rule:evenodd; fill:#000000" d="M 92.129 159.662C 92.129 158.744 92.062 158.193 91.891 157.748C 91.504 156.763 90.59 156.166 89.473 156.166C 87.809 156.166 86.734 157.459 86.734 159.447C 86.734 161.435 87.77 162.662 89.445 162.662C 90.809 162.662 91.754 161.869 91.996 160.537L 91.043 160.537C 90.781 161.341 90.25 161.759 89.488 161.759C 88.887 161.759 88.375 161.482 88.059 160.966C 87.832 160.619 87.754 160.267 87.742 159.662L 92.129 159.662zM 87.711 158.896C 87.789 157.783 88.469 157.06 89.43 157.06C 90.367 157.06 91.094 157.837 91.094 158.826C 91.094 158.845 91.094 158.869 91.082 158.892L 87.711 158.896z"/>
<path style="stroke:none; fill-rule:evenodd; fill:#000000" d="M 101.238 158.369C 101.195 157.783 101.07 157.4 100.84 157.064C 100.434 156.501 99.715 156.166 98.887 156.166C 97.285 156.166 96.238 157.459 96.238 159.47C 96.238 161.423 97.262 162.662 98.875 162.662C 100.297 162.662 101.195 161.791 101.309 160.298L 100.355 160.298C 100.199 161.275 99.711 161.763 98.906 161.763C 97.863 161.763 97.238 160.9 97.238 159.474C 97.238 157.966 97.848 157.068 98.883 157.068C 99.676 157.068 100.176 157.537 100.289 158.373L 101.238 158.369z"/>
<path style="stroke:none; fill-rule:evenodd; fill:#000000" d="M 102.43 162.365L 103.43 162.365L 103.43 153.966L 102.43 153.966L 102.43 162.365z"/>
<path style="stroke:none; fill-rule:evenodd; fill:#000000" d="M 107.27 156.162C 105.566 156.162 104.535 157.376 104.535 159.412C 104.535 161.447 105.555 162.662 107.285 162.662C 108.988 162.662 110.035 161.451 110.035 159.462C 110.035 157.373 109.027 156.169 107.277 156.169L 107.27 156.162zM 107.281 157.064C 108.375 157.064 109.031 157.951 109.031 159.447C 109.031 160.861 108.355 161.759 107.281 161.759C 106.199 161.759 105.531 160.873 105.531 159.412C 105.531 157.962 106.195 157.064 107.281 157.064z"/>
<path style="stroke:none; fill-rule:evenodd; fill:#000000" d="M 115.559 158.025C 115.547 156.837 114.762 156.166 113.359 156.166C 111.949 156.166 111.035 156.892 111.035 158.013C 111.035 158.959 111.523 159.408 112.973 159.755L 113.883 159.974C 114.559 160.134 114.828 160.376 114.828 160.814C 114.828 161.376 114.262 161.759 113.418 161.759C 112.898 161.759 112.461 161.611 112.219 161.353C 112.07 161.181 112 161.005 111.941 160.572L 110.926 160.572C 110.969 161.982 111.754 162.662 113.336 162.662C 114.859 162.662 115.828 161.912 115.828 160.748C 115.828 159.849 115.316 159.353 114.102 159.064L 113.168 158.845C 112.375 158.662 112.035 158.408 112.035 157.982C 112.035 157.431 112.531 157.072 113.32 157.072C 114.094 157.072 114.512 157.4 114.535 158.029L 115.559 158.025z"/>
<path style="stroke:none; fill-rule:evenodd; fill:#000000" d="M 122.129 159.662C 122.129 158.744 122.062 158.193 121.891 157.748C 121.504 156.763 120.59 156.166 119.473 156.166C 117.809 156.166 116.734 157.459 116.734 159.447C 116.734 161.435 117.77 162.662 119.445 162.662C 120.809 162.662 121.754 161.869 121.996 160.537L 121.043 160.537C 120.781 161.341 120.25 161.759 119.488 161.759C 118.887 161.759 118.375 161.482 118.059 160.966C 117.832 160.619 117.754 160.267 117.742 159.662L 122.129 159.662zM 117.711 158.896C 117.789 157.783 118.469 157.06 119.43 157.06C 120.367 157.06 121.094 157.837 121.094 158.826C 121.094 158.845 121.094 158.869 121.082 158.892L 117.711 158.896z"/>
<path style="stroke:none; fill-rule:evenodd; fill:#000000" d="M 128.332 153.962L 127.332 153.962L 127.332 157.103C 126.934 156.49 126.297 156.162 125.496 156.162C 123.949 156.162 122.934 157.419 122.934 159.353C 122.934 161.4 123.945 162.658 125.586 162.658C 126.422 162.658 127.004 162.337 127.527 161.568L 127.527 162.357L 128.324 162.357L 128.332 153.962zM 125.656 157.064C 126.676 157.064 127.324 157.99 127.324 159.435C 127.324 160.834 126.668 161.759 125.668 161.759C 124.625 161.759 123.93 160.822 123.93 159.412C 123.93 158.001 124.621 157.064 125.656 157.064z"/>
<path style="stroke:none; fill-rule:evenodd; fill:#000000" d="M 130.086 164.798C 131.215 163.291 131.926 161.197 131.926 159.392C 131.926 157.576 131.215 155.482 130.086 153.97L 129.469 153.97C 130.473 155.619 131.031 157.548 131.031 159.392C 131.031 161.22 130.473 163.166 129.469 164.798L 130.086 164.798z"/>
<path style="stroke:none; fill-rule:evenodd; fill:#000000" d="M 184.93 150.9L 184.93 144.869L 183.93 144.869L 183.93 148.314C 183.93 149.552 183.285 150.365 182.277 150.365C 181.516 150.365 181.031 149.904 181.031 149.173L 181.031 144.869L 180.031 144.869L 180.031 149.521C 180.031 150.521 180.789 151.166 181.98 151.166C 182.879 151.166 183.453 150.857 184.027 150.064L 184.027 150.904L 184.93 150.9z"/>
<path style="stroke:none; fill-rule:evenodd; fill:#000000" d="M 186.332 153.365L 187.332 153.365L 187.332 150.263C 187.832 150.884 188.394 151.162 189.168 151.162C 190.711 151.162 191.727 149.904 191.727 147.97C 191.727 145.939 190.742 144.666 189.144 144.666C 188.332 144.666 187.676 145.033 187.23 145.744L 187.23 144.837L 186.332 144.837L 186.332 153.365zM 188.996 145.564C 190.043 145.564 190.727 146.498 190.727 147.947C 190.727 149.322 190.031 150.259 188.996 150.259C 187.992 150.259 187.332 149.334 187.332 147.912C 187.332 146.49 187.992 145.564 188.996 145.564z"/>
<path style="stroke:none; fill-rule:evenodd; fill:#000000" d="M 197.832 142.462L 196.832 142.462L 196.832 145.603C 196.434 144.99 195.797 144.662 194.996 144.662C 193.449 144.662 192.434 145.919 192.434 147.853C 192.434 149.9 193.445 151.158 195.086 151.158C 195.922 151.158 196.504 150.837 197.027 150.068L 197.027 150.857L 197.824 150.857L 197.832 142.462zM 195.156 145.564C 196.176 145.564 196.824 146.49 196.824 147.935C 196.824 149.334 196.168 150.259 195.168 150.259C 194.125 150.259 193.43 149.322 193.43 147.912C 193.43 146.501 194.121 145.564 195.156 145.564z"/>
<path style="stroke:none; fill-rule:evenodd; fill:#000000" d="M 204.672 150.302C 204.566 150.361 204.52 150.361 204.461 150.361C 204.121 150.361 203.934 150.189 203.934 149.888L 203.934 146.322C 203.934 145.248 203.156 144.666 201.684 144.666C 200.816 144.666 200.098 144.919 199.695 145.369C 199.422 145.677 199.309 146.025 199.285 146.626L 200.23 146.626C 200.309 145.896 200.734 145.564 201.617 145.564C 202.461 145.564 202.934 145.884 202.934 146.462L 202.934 146.716C 202.934 147.119 202.699 147.291 201.957 147.384C 200.633 147.556 200.43 147.603 200.07 147.751C 199.387 148.037 199.039 148.58 199.039 149.365C 199.039 150.459 199.793 151.15 201.004 151.15C 201.758 151.15 202.363 150.876 203.039 150.232C 203.105 150.865 203.402 151.15 204.02 151.15C 204.211 151.15 204.359 151.126 204.668 151.044L 204.672 150.302zM 202.93 149.001C 202.93 149.33 202.84 149.533 202.562 149.806C 202.184 150.169 201.727 150.361 201.18 150.361C 200.457 150.361 200.031 149.998 200.031 149.369C 200.031 148.72 200.441 148.388 201.434 148.236C 202.414 148.095 202.613 148.048 202.926 147.896L 202.93 149.001z"/>
<path style="stroke:none; fill-rule:evenodd; fill:#000000" d="M 207.832 144.865L 206.934 144.865L 206.934 143.197L 205.934 143.197L 205.934 144.865L 205.035 144.865L 205.035 145.662L 205.934 145.662L 205.934 150.209C 205.934 150.814 206.336 151.158 207.066 151.158C 207.289 151.158 207.516 151.134 207.828 151.076L 207.828 150.24C 207.715 150.33 207.578 150.357 207.41 150.357C 207.035 150.357 206.93 150.244 206.93 149.814L 206.93 145.662L 207.828 145.662L 207.832 144.865z"/>
<path style="stroke:none; fill-rule:evenodd; fill:#000000" d="M 213.93 148.162C 213.93 147.244 213.863 146.693 213.691 146.248C 213.305 145.263 212.391 144.666 211.273 144.666C 209.609 144.666 208.535 145.959 208.535 147.947C 208.535 149.935 209.57 151.162 211.246 151.162C 212.609 151.162 213.555 150.369 213.797 149.037L 212.844 149.037C 212.582 149.841 212.051 150.259 211.289 150.259C 210.687 150.259 210.176 149.982 209.859 149.466C 209.633 149.119 209.555 148.767 209.543 148.162L 213.93 148.162zM 209.512 147.396C 209.59 146.283 210.27 145.56 211.23 145.56C 212.168 145.56 212.894 146.337 212.894 147.326C 212.894 147.345 212.894 147.369 212.883 147.392L 209.512 147.396z"/>
<path style="stroke:none; fill-rule:evenodd; fill:#000000" d="M 223.035 146.869C 222.992 146.283 222.867 145.9 222.637 145.564C 222.23 145.001 221.512 144.666 220.684 144.666C 219.082 144.666 218.035 145.959 218.035 147.97C 218.035 149.923 219.059 151.162 220.672 151.162C 222.094 151.162 222.992 150.291 223.105 148.798L 222.152 148.798C 221.996 149.775 221.508 150.263 220.703 150.263C 219.66 150.263 219.035 149.4 219.035 147.974C 219.035 146.466 219.644 145.568 220.68 145.568C 221.473 145.568 221.973 146.037 222.086 146.873L 223.035 146.869z"/>
<path style="stroke:none; fill-rule:evenodd; fill:#000000" d="M 226.566 144.662C 224.863 144.662 223.832 145.876 223.832 147.912C 223.832 149.947 224.852 151.162 226.582 151.162C 228.285 151.162 229.332 149.951 229.332 147.962C 229.332 145.873 228.324 144.669 226.574 144.669L 226.566 144.662zM 226.582 145.564C 227.676 145.564 228.332 146.451 228.332 147.947C 228.332 149.361 227.656 150.259 226.582 150.259C 225.5 150.259 224.832 149.373 224.832 147.912C 224.832 146.462 225.496 145.564 226.582 145.564z"/>
<path style="stroke:none; fill-rule:evenodd; fill:#000000" d="M 230.531 144.837L 230.531 150.861L 231.531 150.861L 231.531 147.513C 231.531 146.275 232.156 145.462 233.121 145.462C 233.859 145.462 234.328 145.923 234.328 146.654L 234.328 150.857L 235.328 150.857L 235.328 146.302C 235.328 145.302 234.586 144.658 233.426 144.658C 232.535 144.658 231.961 145.001 231.434 145.841L 231.434 144.83L 230.531 144.837z"/>
<path style="stroke:none; fill-rule:evenodd; fill:#000000" d="M 239.031 144.865L 238.133 144.865L 238.133 143.197L 237.133 143.197L 237.133 144.865L 236.234 144.865L 236.234 145.662L 237.133 145.662L 237.133 150.209C 237.133 150.814 237.535 151.158 238.266 151.158C 238.488 151.158 238.715 151.134 239.027 151.076L 239.027 150.24C 238.914 150.33 238.777 150.357 238.609 150.357C 238.234 150.357 238.129 150.244 238.129 149.814L 238.129 145.662L 239.027 145.662L 239.031 144.865z"/>
<path style="stroke:none; fill-rule:evenodd; fill:#000000" d="M 245.23 148.162C 245.23 147.244 245.164 146.693 244.992 146.248C 244.605 145.263 243.691 144.666 242.574 144.666C 240.91 144.666 239.836 145.959 239.836 147.947C 239.836 149.935 240.871 151.162 242.547 151.162C 243.91 151.162 244.855 150.369 245.098 149.037L 244.144 149.037C 243.883 149.841 243.352 150.259 242.59 150.259C 241.988 150.259 241.477 149.982 241.16 149.466C 240.934 149.119 240.855 148.767 240.844 148.162L 245.23 148.162zM 240.812 147.396C 240.891 146.283 241.57 145.56 242.531 145.56C 243.469 145.56 244.195 146.337 244.195 147.326C 244.195 147.345 244.195 147.369 244.184 147.392L 240.812 147.396z"/>
<path style="stroke:none; fill-rule:evenodd; fill:#000000" d="M 249.082 147.759L 251.102 144.865L 250.023 144.865L 248.578 147.029L 247.133 144.865L 246.043 144.865L 248.051 147.806L 245.93 150.861L 247.02 150.861L 248.543 148.556L 250.047 150.861L 251.16 150.861L 249.082 147.759z"/>
<path style="stroke:none; fill-rule:evenodd; fill:#000000" d="M 254.332 144.865L 253.434 144.865L 253.434 143.197L 252.434 143.197L 252.434 144.865L 251.535 144.865L 251.535 145.662L 252.434 145.662L 252.434 150.209C 252.434 150.814 252.836 151.158 253.566 151.158C 253.789 151.158 254.016 151.134 254.328 151.076L 254.328 150.24C 254.215 150.33 254.078 150.357 253.91 150.357C 253.535 150.357 253.43 150.244 253.43 149.814L 253.43 145.662L 254.328 145.662L 254.332 144.865z"/>
<path style="stroke:none; fill-rule:evenodd; fill:#000000" d="M 182.055 153.962C 180.937 155.47 180.23 157.564 180.23 159.373C 180.23 161.189 180.934 163.283 182.055 164.791L 182.668 164.791C 181.68 163.146 181.129 161.212 181.129 159.373C 181.129 157.544 181.68 155.599 182.668 153.962L 182.055 153.962z"/>
<path style="stroke:none; fill-rule:evenodd; fill:#000000" d="M 188.535 158.369C 188.492 157.783 188.367 157.4 188.137 157.064C 187.73 156.501 187.012 156.166 186.184 156.166C 184.582 156.166 183.535 157.459 183.535 159.47C 183.535 161.423 184.559 162.662 186.172 162.662C 187.594 162.662 188.492 161.791 188.605 160.298L 187.652 160.298C 187.496 161.275 187.008 161.763 186.203 161.763C 185.16 161.763 184.535 160.9 184.535 159.474C 184.535 157.966 185.144 157.068 186.18 157.068C 186.973 157.068 187.473 157.537 187.586 158.373L 188.535 158.369z"/>
<path style="stroke:none; fill-rule:evenodd; fill:#000000" d="M 192.066 156.162C 190.363 156.162 189.332 157.376 189.332 159.412C 189.332 161.447 190.352 162.662 192.082 162.662C 193.785 162.662 194.832 161.451 194.832 159.462C 194.832 157.373 193.824 156.169 192.074 156.169L 192.066 156.162zM 192.082 157.064C 193.176 157.064 193.832 157.951 193.832 159.447C 193.832 160.861 193.156 161.759 192.082 161.759C 191 161.759 190.332 160.873 190.332 159.412C 190.332 157.962 190.996 157.064 192.082 157.064z"/>
<path style="stroke:none; fill-rule:evenodd; fill:#000000" d="M 196.129 156.337L 196.129 162.361L 197.129 162.361L 197.129 159.013C 197.129 157.775 197.754 156.962 198.719 156.962C 199.457 156.962 199.926 157.423 199.926 158.154L 199.926 162.357L 200.926 162.357L 200.926 157.802C 200.926 156.802 200.184 156.158 199.023 156.158C 198.133 156.158 197.559 156.501 197.031 157.341L 197.031 156.33L 196.129 156.337z"/>
<path style="stroke:none; fill-rule:evenodd; fill:#000000" d="M 204.629 156.365L 203.73 156.365L 203.73 154.697L 202.73 154.697L 202.73 156.365L 201.832 156.365L 201.832 157.162L 202.73 157.162L 202.73 161.709C 202.73 162.314 203.133 162.658 203.863 162.658C 204.086 162.658 204.312 162.634 204.625 162.576L 204.625 161.74C 204.512 161.83 204.375 161.857 204.207 161.857C 203.832 161.857 203.727 161.744 203.727 161.314L 203.727 157.162L 204.625 157.162L 204.629 156.365z"/>
<path style="stroke:none; fill-rule:evenodd; fill:#000000" d="M 210.73 159.662C 210.73 158.744 210.664 158.193 210.492 157.748C 210.105 156.763 209.191 156.166 208.074 156.166C 206.41 156.166 205.336 157.459 205.336 159.447C 205.336 161.435 206.371 162.662 208.047 162.662C 209.41 162.662 210.355 161.869 210.598 160.537L 209.644 160.537C 209.383 161.341 208.852 161.759 208.09 161.759C 207.488 161.759 206.977 161.482 206.66 160.966C 206.434 160.619 206.355 160.267 206.344 159.662L 210.73 159.662zM 206.312 158.896C 206.391 157.783 207.07 157.06 208.031 157.06C 208.969 157.06 209.695 157.837 209.695 158.826C 209.695 158.845 209.695 158.869 209.684 158.892L 206.312 158.896z"/>
<path style="stroke:none; fill-rule:evenodd; fill:#000000" d="M 214.582 159.259L 216.602 156.365L 215.523 156.365L 214.078 158.529L 212.633 156.365L 211.543 156.365L 213.551 159.306L 211.43 162.361L 212.52 162.361L 214.043 160.056L 215.547 162.361L 216.66 162.361L 214.582 159.259z"/>
<path style="stroke:none; fill-rule:evenodd; fill:#000000" d="M 219.93 156.365L 219.031 156.365L 219.031 154.697L 218.031 154.697L 218.031 156.365L 217.133 156.365L 217.133 157.162L 218.031 157.162L 218.031 161.709C 218.031 162.314 218.434 162.658 219.164 162.658C 219.387 162.658 219.613 162.634 219.926 162.576L 219.926 161.74C 219.812 161.83 219.676 161.857 219.508 161.857C 219.133 161.857 219.027 161.744 219.027 161.314L 219.027 157.162L 219.926 157.162L 219.93 156.365z"/>
<path style="stroke:none; fill-rule:evenodd; fill:#000000" d="M 228.031 156.365L 228.031 157.22C 227.551 156.501 226.965 156.166 226.195 156.166C 224.668 156.166 223.637 157.505 223.637 159.47C 223.637 160.462 223.898 161.271 224.391 161.849C 224.836 162.357 225.477 162.658 226.109 162.658C 226.863 162.658 227.391 162.33 227.93 161.544L 227.93 161.853C 227.93 162.666 227.828 163.162 227.59 163.494C 227.34 163.849 226.852 164.052 226.273 164.052C 225.844 164.052 225.457 163.939 225.195 163.732C 224.98 163.56 224.891 163.4 224.832 163.044L 223.867 163.044C 223.969 164.177 224.848 164.853 226.258 164.853C 227.148 164.853 227.914 164.568 228.305 164.087C 228.762 163.541 228.934 162.783 228.934 161.373L 228.934 156.357L 228.031 156.365zM 226.293 157.064C 227.32 157.064 227.93 157.939 227.93 159.447C 227.93 160.884 227.312 161.759 226.305 161.759C 225.262 161.759 224.633 160.873 224.633 159.412C 224.633 157.962 225.273 157.064 226.293 157.064z"/>
<path style="stroke:none; fill-rule:evenodd; fill:#000000" d="M 235.871 161.802C 235.766 161.861 235.719 161.861 235.66 161.861C 235.32 161.861 235.133 161.689 235.133 161.388L 235.133 157.822C 235.133 156.748 234.355 156.166 232.883 156.166C 232.016 156.166 231.297 156.419 230.894 156.869C 230.621 157.177 230.508 157.525 230.484 158.126L 231.43 158.126C 231.508 157.396 231.934 157.064 232.816 157.064C 233.66 157.064 234.133 157.384 234.133 157.962L 234.133 158.216C 234.133 158.619 233.898 158.791 233.156 158.884C 231.832 159.056 231.629 159.103 231.27 159.251C 230.586 159.537 230.238 160.08 230.238 160.865C 230.238 161.959 230.992 162.65 232.203 162.65C 232.957 162.65 233.562 162.376 234.238 161.732C 234.305 162.365 234.602 162.65 235.219 162.65C 235.41 162.65 235.559 162.626 235.867 162.544L 235.871 161.802zM 234.129 160.501C 234.129 160.83 234.039 161.033 233.762 161.306C 233.383 161.669 232.926 161.861 232.379 161.861C 231.656 161.861 231.23 161.498 231.23 160.869C 231.23 160.22 231.641 159.888 232.633 159.736C 233.613 159.595 233.812 159.548 234.125 159.396L 234.129 160.501z"/>
<path style="stroke:none; fill-rule:evenodd; fill:#000000" d="M 239.031 156.365L 238.133 156.365L 238.133 154.697L 237.133 154.697L 237.133 156.365L 236.234 156.365L 236.234 157.162L 237.133 157.162L 237.133 161.709C 237.133 162.314 237.535 162.658 238.266 162.658C 238.488 162.658 238.715 162.634 239.027 162.576L 239.027 161.74C 238.914 161.83 238.777 161.857 238.609 161.857C 238.234 161.857 238.129 161.744 238.129 161.314L 238.129 157.162L 239.027 157.162L 239.031 156.365z"/>
<path style="stroke:none; fill-rule:evenodd; fill:#000000" d="M 245.23 159.662C 245.23 158.744 245.164 158.193 244.992 157.748C 244.605 156.763 243.691 156.166 242.574 156.166C 240.91 156.166 239.836 157.459 239.836 159.447C 239.836 161.435 240.871 162.662 242.547 162.662C 243.91 162.662 244.855 161.869 245.098 160.537L 244.144 160.537C 243.883 161.341 243.352 161.759 242.59 161.759C 241.988 161.759 241.477 161.482 241.16 160.966C 240.934 160.619 240.855 160.267 240.844 159.662L 245.23 159.662zM 240.812 158.896C 240.891 157.783 241.57 157.06 242.531 157.06C 243.469 157.06 244.195 157.837 244.195 158.826C 244.195 158.845 244.195 158.869 244.184 158.892L 240.812 158.896z"/>
<path style="stroke:none; fill-rule:evenodd; fill:#000000" d="M 252.066 156.162C 250.363 156.162 249.332 157.376 249.332 159.412C 249.332 161.447 250.352 162.662 252.082 162.662C 253.785 162.662 254.832 161.451 254.832 159.462C 254.832 157.373 253.824 156.169 252.074 156.169L 252.066 156.162zM 252.082 157.064C 253.176 157.064 253.832 157.951 253.832 159.447C 253.832 160.861 253.156 161.759 252.082 161.759C 251 161.759 250.332 160.873 250.332 159.412C 250.332 157.962 250.996 157.064 252.082 157.064z"/>
<path style="stroke:none; fill-rule:evenodd; fill:#000000" d="M 255.93 164.865L 256.93 164.865L 256.93 161.763C 257.43 162.384 257.992 162.662 258.766 162.662C 260.309 162.662 261.324 161.404 261.324 159.47C 261.324 157.439 260.34 156.166 258.742 156.166C 257.93 156.166 257.273 156.533 256.828 157.244L 256.828 156.337L 255.93 156.337L 255.93 164.865zM 258.594 157.064C 259.641 157.064 260.324 157.998 260.324 159.447C 260.324 160.822 259.629 161.759 258.594 161.759C 257.59 161.759 256.93 160.834 256.93 159.412C 256.93 157.99 257.59 157.064 258.594 157.064z"/>
<path style="stroke:none; fill-rule:evenodd; fill:#000000" d="M 267.531 159.662C 267.531 158.744 267.465 158.193 267.293 157.748C 266.906 156.763 265.992 156.166 264.875 156.166C 263.211 156.166 262.137 157.459 262.137 159.447C 262.137 161.435 263.172 162.662 264.848 162.662C 266.211 162.662 267.156 161.869 267.398 160.537L 266.445 160.537C 266.184 161.341 265.652 161.759 264.891 161.759C 264.289 161.759 263.777 161.482 263.461 160.966C 263.234 160.619 263.156 160.267 263.144 159.662L 267.531 159.662zM 263.109 158.896C 263.187 157.783 263.867 157.06 264.828 157.06C 265.766 157.06 266.492 157.837 266.492 158.826C 266.492 158.845 266.492 158.869 266.48 158.892L 263.109 158.896z"/>
<path style="stroke:none; fill-rule:evenodd; fill:#000000" d="M 268.832 156.337L 268.832 162.361L 269.832 162.361L 269.832 159.013C 269.832 157.775 270.457 156.962 271.422 156.962C 272.16 156.962 272.629 157.423 272.629 158.154L 272.629 162.357L 273.629 162.357L 273.629 157.802C 273.629 156.802 272.887 156.158 271.727 156.158C 270.836 156.158 270.262 156.501 269.734 157.341L 269.734 156.33L 268.832 156.337z"/>
<path style="stroke:none; fill-rule:evenodd; fill:#000000" d="M 275.488 164.798C 276.617 163.291 277.328 161.197 277.328 159.392C 277.328 157.576 276.617 155.482 275.488 153.97L 274.871 153.97C 275.875 155.619 276.434 157.548 276.434 159.392C 276.434 161.22 275.875 163.166 274.871 164.798L 275.488 164.798z"/>
<path style="stroke:none; fill-rule:evenodd; fill:#000000" d="M 334.93 153.365L 335.93 153.365L 335.93 150.263C 336.43 150.884 336.992 151.162 337.766 151.162C 339.309 151.162 340.324 149.904 340.324 147.97C 340.324 145.939 339.34 144.666 337.742 144.666C 336.93 144.666 336.273 145.033 335.828 145.744L 335.828 144.837L 334.93 144.837L 334.93 153.365zM 337.594 145.564C 338.641 145.564 339.324 146.498 339.324 147.947C 339.324 149.322 338.629 150.259 337.594 150.259C 336.59 150.259 335.93 149.334 335.93 147.912C 335.93 146.49 336.59 145.564 337.594 145.564z"/>
<path style="stroke:none; fill-rule:evenodd; fill:#000000" d="M 341.531 144.837L 341.531 150.861L 342.531 150.861L 342.531 147.728C 342.531 146.865 342.742 146.302 343.191 145.966C 343.48 145.748 343.762 145.681 344.414 145.669L 344.414 144.705C 344.258 144.685 344.18 144.673 344.055 144.673C 343.445 144.673 342.98 145.041 342.434 145.935L 342.434 144.845L 341.531 144.837z"/>
<path style="stroke:none; fill-rule:evenodd; fill:#000000" d="M 347.668 144.662C 345.965 144.662 344.934 145.876 344.934 147.912C 344.934 149.947 345.953 151.162 347.684 151.162C 349.387 151.162 350.434 149.951 350.434 147.962C 350.434 145.873 349.426 144.669 347.676 144.669L 347.668 144.662zM 347.68 145.564C 348.773 145.564 349.43 146.451 349.43 147.947C 349.43 149.361 348.754 150.259 347.68 150.259C 346.598 150.259 345.93 149.373 345.93 147.912C 345.93 146.462 346.594 145.564 347.68 145.564z"/>
<path style="stroke:none; fill-rule:evenodd; fill:#000000" d="M 356.336 146.869C 356.293 146.283 356.168 145.9 355.937 145.564C 355.531 145.001 354.812 144.666 353.984 144.666C 352.383 144.666 351.336 145.959 351.336 147.97C 351.336 149.923 352.359 151.162 353.973 151.162C 355.394 151.162 356.293 150.291 356.406 148.798L 355.453 148.798C 355.297 149.775 354.809 150.263 354.004 150.263C 352.961 150.263 352.336 149.4 352.336 147.974C 352.336 146.466 352.945 145.568 353.98 145.568C 354.773 145.568 355.273 146.037 355.387 146.873L 356.336 146.869z"/>
<path style="stroke:none; fill-rule:evenodd; fill:#000000" d="M 362.531 148.162C 362.531 147.244 362.465 146.693 362.293 146.248C 361.906 145.263 360.992 144.666 359.875 144.666C 358.211 144.666 357.137 145.959 357.137 147.947C 357.137 149.935 358.172 151.162 359.848 151.162C 361.211 151.162 362.156 150.369 362.398 149.037L 361.445 149.037C 361.184 149.841 360.652 150.259 359.891 150.259C 359.289 150.259 358.777 149.982 358.461 149.466C 358.234 149.119 358.156 148.767 358.144 148.162L 362.531 148.162zM 358.109 147.396C 358.187 146.283 358.867 145.56 359.828 145.56C 360.766 145.56 361.492 146.337 361.492 147.326C 361.492 147.345 361.492 147.369 361.48 147.392L 358.109 147.396z"/>
<path style="stroke:none; fill-rule:evenodd; fill:#000000" d="M 368.059 146.525C 368.047 145.337 367.262 144.666 365.859 144.666C 364.449 144.666 363.535 145.392 363.535 146.513C 363.535 147.459 364.023 147.908 365.473 148.255L 366.383 148.474C 367.059 148.634 367.328 148.876 367.328 149.314C 367.328 149.876 366.762 150.259 365.918 150.259C 365.398 150.259 364.961 150.111 364.719 149.853C 364.57 149.681 364.5 149.505 364.441 149.072L 363.426 149.072C 363.469 150.482 364.254 151.162 365.836 151.162C 367.359 151.162 368.328 150.412 368.328 149.248C 368.328 148.349 367.816 147.853 366.602 147.564L 365.668 147.345C 364.875 147.162 364.535 146.908 364.535 146.482C 364.535 145.931 365.031 145.572 365.82 145.572C 366.594 145.572 367.012 145.9 367.035 146.529L 368.059 146.525z"/>
<path style="stroke:none; fill-rule:evenodd; fill:#000000" d="M 373.859 146.525C 373.848 145.337 373.062 144.666 371.66 144.666C 370.25 144.666 369.336 145.392 369.336 146.513C 369.336 147.459 369.824 147.908 371.273 148.255L 372.184 148.474C 372.859 148.634 373.129 148.876 373.129 149.314C 373.129 149.876 372.562 150.259 371.719 150.259C 371.199 150.259 370.762 150.111 370.52 149.853C 370.371 149.681 370.301 149.505 370.242 149.072L 369.227 149.072C 369.27 150.482 370.055 151.162 371.637 151.162C 373.16 151.162 374.129 150.412 374.129 149.248C 374.129 148.349 373.617 147.853 372.402 147.564L 371.469 147.345C 370.676 147.162 370.336 146.908 370.336 146.482C 370.336 145.931 370.832 145.572 371.621 145.572C 372.394 145.572 372.812 145.9 372.836 146.529L 373.859 146.525z"/>
<path style="stroke:none; fill-rule:evenodd; fill:#000000" d="M 383.629 148.162C 383.629 147.244 383.562 146.693 383.391 146.248C 383.004 145.263 382.09 144.666 380.973 144.666C 379.309 144.666 378.234 145.959 378.234 147.947C 378.234 149.935 379.27 151.162 380.945 151.162C 382.309 151.162 383.254 150.369 383.496 149.037L 382.543 149.037C 382.281 149.841 381.75 150.259 380.988 150.259C 380.387 150.259 379.875 149.982 379.559 149.466C 379.332 149.119 379.254 148.767 379.242 148.162L 383.629 148.162zM 379.211 147.396C 379.289 146.283 379.969 145.56 380.93 145.56C 381.867 145.56 382.594 146.337 382.594 147.326C 382.594 147.345 382.594 147.369 382.582 147.392L 379.211 147.396z"/>
<path style="stroke:none; fill-rule:evenodd; fill:#000000" d="M 387.402 150.865L 389.707 144.865L 388.629 144.865L 386.934 149.724L 385.328 144.865L 384.25 144.865L 386.359 150.865L 387.402 150.865z"/>
<path style="stroke:none; fill-rule:evenodd; fill:#000000" d="M 395.73 148.162C 395.73 147.244 395.664 146.693 395.492 146.248C 395.105 145.263 394.191 144.666 393.074 144.666C 391.41 144.666 390.336 145.959 390.336 147.947C 390.336 149.935 391.371 151.162 393.047 151.162C 394.41 151.162 395.355 150.369 395.598 149.037L 394.644 149.037C 394.383 149.841 393.852 150.259 393.09 150.259C 392.488 150.259 391.977 149.982 391.66 149.466C 391.434 149.119 391.355 148.767 391.344 148.162L 395.73 148.162zM 391.312 147.396C 391.391 146.283 392.07 145.56 393.031 145.56C 393.969 145.56 394.695 146.337 394.695 147.326C 394.695 147.345 394.695 147.369 394.684 147.392L 391.312 147.396z"/>
<path style="stroke:none; fill-rule:evenodd; fill:#000000" d="M 397.031 144.837L 397.031 150.861L 398.031 150.861L 398.031 147.513C 398.031 146.275 398.656 145.462 399.621 145.462C 400.359 145.462 400.828 145.923 400.828 146.654L 400.828 150.857L 401.828 150.857L 401.828 146.302C 401.828 145.302 401.086 144.658 399.926 144.658C 399.035 144.658 398.461 145.001 397.934 145.841L 397.934 144.83L 397.031 144.837z"/>
<path style="stroke:none; fill-rule:evenodd; fill:#000000" d="M 405.531 144.865L 404.633 144.865L 404.633 143.197L 403.633 143.197L 403.633 144.865L 402.734 144.865L 402.734 145.662L 403.633 145.662L 403.633 150.209C 403.633 150.814 404.035 151.158 404.766 151.158C 404.988 151.158 405.215 151.134 405.527 151.076L 405.527 150.24C 405.414 150.33 405.277 150.357 405.109 150.357C 404.734 150.357 404.629 150.244 404.629 149.814L 404.629 145.662L 405.527 145.662L 405.531 144.865z"/>
<path style="stroke:none; fill-rule:evenodd; fill:#000000" d="M 414.773 149.865L 410.547 149.865C 410.648 149.205 411.012 148.783 411.996 148.201L 413.129 147.587C 414.25 146.974 414.828 146.138 414.828 145.146C 414.828 144.474 414.559 143.845 414.082 143.412C 413.609 142.978 413.02 142.775 412.258 142.775C 411.238 142.775 410.48 143.134 410.039 143.814C 409.758 144.244 409.633 144.74 409.609 145.556L 410.609 145.556C 410.641 145.025 410.711 144.701 410.848 144.443C 411.109 143.966 411.633 143.673 412.234 143.673C 413.144 143.673 413.828 144.322 413.828 145.189C 413.828 145.826 413.453 146.373 412.734 146.783L 411.687 147.373C 410.004 148.326 409.512 149.091 409.422 150.869L 414.773 150.869L 414.773 149.865z"/>
<path style="stroke:none; fill-rule:evenodd; fill:#000000" d="M 337.055 153.962C 335.937 155.47 335.23 157.564 335.23 159.373C 335.23 161.189 335.934 163.283 337.055 164.791L 337.668 164.791C 336.68 163.146 336.129 161.212 336.129 159.373C 336.129 157.544 336.68 155.599 337.668 153.962L 337.055 153.962z"/>
<path style="stroke:none; fill-rule:evenodd; fill:#000000" d="M 343.535 158.369C 343.492 157.783 343.367 157.4 343.137 157.064C 342.73 156.501 342.012 156.166 341.184 156.166C 339.582 156.166 338.535 157.459 338.535 159.47C 338.535 161.423 339.559 162.662 341.172 162.662C 342.594 162.662 343.492 161.791 343.605 160.298L 342.652 160.298C 342.496 161.275 342.008 161.763 341.203 161.763C 340.16 161.763 339.535 160.9 339.535 159.474C 339.535 157.966 340.144 157.068 341.18 157.068C 341.973 157.068 342.473 157.537 342.586 158.373L 343.535 158.369z"/>
<path style="stroke:none; fill-rule:evenodd; fill:#000000" d="M 347.066 156.162C 345.363 156.162 344.332 157.376 344.332 159.412C 344.332 161.447 345.352 162.662 347.082 162.662C 348.785 162.662 349.832 161.451 349.832 159.462C 349.832 157.373 348.824 156.169 347.074 156.169L 347.066 156.162zM 347.082 157.064C 348.176 157.064 348.832 157.951 348.832 159.447C 348.832 160.861 348.156 161.759 347.082 161.759C 346 161.759 345.332 160.873 345.332 159.412C 345.332 157.962 345.996 157.064 347.082 157.064z"/>
<path style="stroke:none; fill-rule:evenodd; fill:#000000" d="M 351.129 156.337L 351.129 162.361L 352.129 162.361L 352.129 159.013C 352.129 157.775 352.754 156.962 353.719 156.962C 354.457 156.962 354.926 157.423 354.926 158.154L 354.926 162.357L 355.926 162.357L 355.926 157.802C 355.926 156.802 355.184 156.158 354.023 156.158C 353.133 156.158 352.559 156.501 352.031 157.341L 352.031 156.33L 351.129 156.337z"/>
<path style="stroke:none; fill-rule:evenodd; fill:#000000" d="M 359.531 156.365L 358.633 156.365L 358.633 154.697L 357.633 154.697L 357.633 156.365L 356.734 156.365L 356.734 157.162L 357.633 157.162L 357.633 161.709C 357.633 162.314 358.035 162.658 358.766 162.658C 358.988 162.658 359.215 162.634 359.527 162.576L 359.527 161.74C 359.414 161.83 359.277 161.857 359.109 161.857C 358.734 161.857 358.629 161.744 358.629 161.314L 358.629 157.162L 359.527 157.162L 359.531 156.365z"/>
<path style="stroke:none; fill-rule:evenodd; fill:#000000" d="M 365.73 159.662C 365.73 158.744 365.664 158.193 365.492 157.748C 365.105 156.763 364.191 156.166 363.074 156.166C 361.41 156.166 360.336 157.459 360.336 159.447C 360.336 161.435 361.371 162.662 363.047 162.662C 364.41 162.662 365.355 161.869 365.598 160.537L 364.644 160.537C 364.383 161.341 363.852 161.759 363.09 161.759C 362.488 161.759 361.977 161.482 361.66 160.966C 361.434 160.619 361.355 160.267 361.344 159.662L 365.73 159.662zM 361.312 158.896C 361.391 157.783 362.07 157.06 363.031 157.06C 363.969 157.06 364.695 157.837 364.695 158.826C 364.695 158.845 364.695 158.869 364.684 158.892L 361.312 158.896z"/>
<path style="stroke:none; fill-rule:evenodd; fill:#000000" d="M 369.582 159.259L 371.602 156.365L 370.523 156.365L 369.078 158.529L 367.633 156.365L 366.543 156.365L 368.551 159.306L 366.43 162.361L 367.52 162.361L 369.043 160.056L 370.547 162.361L 371.66 162.361L 369.582 159.259z"/>
<path style="stroke:none; fill-rule:evenodd; fill:#000000" d="M 374.832 156.365L 373.934 156.365L 373.934 154.697L 372.934 154.697L 372.934 156.365L 372.035 156.365L 372.035 157.162L 372.934 157.162L 372.934 161.709C 372.934 162.314 373.336 162.658 374.066 162.658C 374.289 162.658 374.516 162.634 374.828 162.576L 374.828 161.74C 374.715 161.83 374.578 161.857 374.41 161.857C 374.035 161.857 373.93 161.744 373.93 161.314L 373.93 157.162L 374.828 157.162L 374.832 156.365z"/>
<path style="stroke:none; fill-rule:evenodd; fill:#000000" d="M 383.031 156.365L 383.031 157.22C 382.551 156.501 381.965 156.166 381.195 156.166C 379.668 156.166 378.637 157.505 378.637 159.47C 378.637 160.462 378.898 161.271 379.391 161.849C 379.836 162.357 380.477 162.658 381.109 162.658C 381.863 162.658 382.391 162.33 382.93 161.544L 382.93 161.853C 382.93 162.666 382.828 163.162 382.59 163.494C 382.34 163.849 381.852 164.052 381.273 164.052C 380.844 164.052 380.457 163.939 380.195 163.732C 379.98 163.56 379.891 163.4 379.832 163.044L 378.867 163.044C 378.969 164.177 379.848 164.853 381.258 164.853C 382.148 164.853 382.914 164.568 383.305 164.087C 383.762 163.541 383.934 162.783 383.934 161.373L 383.934 156.357L 383.031 156.365zM 381.293 157.064C 382.32 157.064 382.93 157.939 382.93 159.447C 382.93 160.884 382.312 161.759 381.305 161.759C 380.262 161.759 379.633 160.873 379.633 159.412C 379.633 157.962 380.273 157.064 381.293 157.064z"/>
<path style="stroke:none; fill-rule:evenodd; fill:#000000" d="M 390.871 161.802C 390.766 161.861 390.719 161.861 390.66 161.861C 390.32 161.861 390.133 161.689 390.133 161.388L 390.133 157.822C 390.133 156.748 389.355 156.166 387.883 156.166C 387.016 156.166 386.297 156.419 385.894 156.869C 385.621 157.177 385.508 157.525 385.484 158.126L 386.43 158.126C 386.508 157.396 386.934 157.064 387.816 157.064C 388.66 157.064 389.133 157.384 389.133 157.962L 389.133 158.216C 389.133 158.619 388.898 158.791 388.156 158.884C 386.832 159.056 386.629 159.103 386.27 159.251C 385.586 159.537 385.238 160.08 385.238 160.865C 385.238 161.959 385.992 162.65 387.203 162.65C 387.957 162.65 388.562 162.376 389.238 161.732C 389.305 162.365 389.602 162.65 390.219 162.65C 390.41 162.65 390.559 162.626 390.867 162.544L 390.871 161.802zM 389.129 160.501C 389.129 160.83 389.039 161.033 388.762 161.306C 388.383 161.669 387.926 161.861 387.379 161.861C 386.656 161.861 386.23 161.498 386.23 160.869C 386.23 160.22 386.641 159.888 387.633 159.736C 388.613 159.595 388.812 159.548 389.125 159.396L 389.129 160.501z"/>
<path style="stroke:none; fill-rule:evenodd; fill:#000000" d="M 394.031 156.365L 393.133 156.365L 393.133 154.697L 392.133 154.697L 392.133 156.365L 391.234 156.365L 391.234 157.162L 392.133 157.162L 392.133 161.709C 392.133 162.314 392.535 162.658 393.266 162.658C 393.488 162.658 393.715 162.634 394.027 162.576L 394.027 161.74C 393.914 161.83 393.777 161.857 393.609 161.857C 393.234 161.857 393.129 161.744 393.129 161.314L 393.129 157.162L 394.027 157.162L 394.031 156.365z"/>
<path style="stroke:none; fill-rule:evenodd; fill:#000000" d="M 400.23 159.662C 400.23 158.744 400.164 158.193 399.992 157.748C 399.605 156.763 398.691 156.166 397.574 156.166C 395.91 156.166 394.836 157.459 394.836 159.447C 394.836 161.435 395.871 162.662 397.547 162.662C 398.91 162.662 399.855 161.869 400.098 160.537L 399.144 160.537C 398.883 161.341 398.352 161.759 397.59 161.759C 396.988 161.759 396.477 161.482 396.16 160.966C 395.934 160.619 395.855 160.267 395.844 159.662L 400.23 159.662zM 395.812 158.896C 395.891 157.783 396.57 157.06 397.531 157.06C 398.469 157.06 399.195 157.837 399.195 158.826C 399.195 158.845 399.195 158.869 399.184 158.892L 395.812 158.896z"/>
<path style="stroke:none; fill-rule:evenodd; fill:#000000" d="M 409.336 158.369C 409.293 157.783 409.168 157.4 408.937 157.064C 408.531 156.501 407.812 156.166 406.984 156.166C 405.383 156.166 404.336 157.459 404.336 159.47C 404.336 161.423 405.359 162.662 406.973 162.662C 408.394 162.662 409.293 161.791 409.406 160.298L 408.453 160.298C 408.297 161.275 407.809 161.763 407.004 161.763C 405.961 161.763 405.336 160.9 405.336 159.474C 405.336 157.966 405.945 157.068 406.98 157.068C 407.773 157.068 408.273 157.537 408.387 158.373L 409.336 158.369z"/>
<path style="stroke:none; fill-rule:evenodd; fill:#000000" d="M 410.43 162.365L 411.43 162.365L 411.43 153.966L 410.43 153.966L 410.43 162.365z"/>
<path style="stroke:none; fill-rule:evenodd; fill:#000000" d="M 415.27 156.162C 413.566 156.162 412.535 157.376 412.535 159.412C 412.535 161.447 413.555 162.662 415.285 162.662C 416.988 162.662 418.035 161.451 418.035 159.462C 418.035 157.373 417.027 156.169 415.277 156.169L 415.27 156.162zM 415.281 157.064C 416.375 157.064 417.031 157.951 417.031 159.447C 417.031 160.861 416.355 161.759 415.281 161.759C 414.199 161.759 413.531 160.873 413.531 159.412C 413.531 157.962 414.195 157.064 415.281 157.064z"/>
<path style="stroke:none; fill-rule:evenodd; fill:#000000" d="M 423.559 158.025C 423.547 156.837 422.762 156.166 421.359 156.166C 419.949 156.166 419.035 156.892 419.035 158.013C 419.035 158.959 419.523 159.408 420.973 159.755L 421.883 159.974C 422.559 160.134 422.828 160.376 422.828 160.814C 422.828 161.376 422.262 161.759 421.418 161.759C 420.898 161.759 420.461 161.611 420.219 161.353C 420.07 161.181 420 161.005 419.941 160.572L 418.926 160.572C 418.969 161.982 419.754 162.662 421.336 162.662C 422.859 162.662 423.828 161.912 423.828 160.748C 423.828 159.849 423.316 159.353 422.102 159.064L 421.168 158.845C 420.375 158.662 420.035 158.408 420.035 157.982C 420.035 157.431 420.531 157.072 421.32 157.072C 422.094 157.072 422.512 157.4 422.535 158.029L 423.559 158.025z"/>
<path style="stroke:none; fill-rule:evenodd; fill:#000000" d="M 430.23 159.662C 430.23 158.744 430.164 158.193 429.992 157.748C 429.605 156.763 428.691 156.166 427.574 156.166C 425.91 156.166 424.836 157.459 424.836 159.447C 424.836 161.435 425.871 162.662 427.547 162.662C 428.91 162.662 429.855 161.869 430.098 160.537L 429.144 160.537C 428.883 161.341 428.352 161.759 427.59 161.759C 426.988 161.759 426.477 161.482 426.16 160.966C 425.934 160.619 425.855 160.267 425.844 159.662L 430.23 159.662zM 425.812 158.896C 425.891 157.783 426.57 157.06 427.531 157.06C 428.469 157.06 429.195 157.837 429.195 158.826C 429.195 158.845 429.195 158.869 429.184 158.892L 425.812 158.896z"/>
<path style="stroke:none; fill-rule:evenodd; fill:#000000" d="M 436.43 153.962L 435.43 153.962L 435.43 157.103C 435.031 156.49 434.394 156.162 433.594 156.162C 432.047 156.162 431.031 157.419 431.031 159.353C 431.031 161.4 432.043 162.658 433.684 162.658C 434.52 162.658 435.102 162.337 435.625 161.568L 435.625 162.357L 436.422 162.357L 436.43 153.962zM 433.758 157.064C 434.777 157.064 435.426 157.99 435.426 159.435C 435.426 160.834 434.77 161.759 433.77 161.759C 432.727 161.759 432.031 160.822 432.031 159.412C 432.031 158.001 432.723 157.064 433.758 157.064z"/>
<path style="stroke:none; fill-rule:evenodd; fill:#000000" d="M 438.086 164.798C 439.215 163.291 439.926 161.197 439.926 159.392C 439.926 157.576 439.215 155.482 438.086 153.97L 437.469 153.97C 438.473 155.619 439.031 157.548 439.031 159.392C 439.031 161.22 438.473 163.166 437.469 164.798L 438.086 164.798z"/>
<path style="stroke:#000000; stroke-dasharray:6,3; stroke-width:0.95664899999999997; fill:none" d="M 153.422 5.01364L 153.422 163.716"/>
<path style="stroke:#000000; stroke-dasharray:6,3; stroke-width:0.95664899999999997; fill:none" d="M 306.394 5.01364L 306.394 163.716"/>
<path style="stroke:none; fill-rule:evenodd; fill:#000000" d="M 16.1953 151.607C 16.0742 151.662 16.0195 151.662 15.9492 151.662C 15.5547 151.662 15.332 151.462 15.332 151.115L 15.332 146.986C 15.332 145.74 14.4258 145.068 12.7031 145.068C 11.6914 145.068 10.8515 145.357 10.3828 145.876C 10.0664 146.232 9.92971 146.63 9.90621 147.322L 11.0273 147.322C 11.1172 146.459 11.625 146.068 12.6679 146.068C 13.6679 146.068 14.2304 146.443 14.2304 147.111L 14.2304 147.404C 14.2304 147.873 13.9531 148.072 13.0781 148.177C 11.5156 148.376 11.2773 148.431 10.8515 148.603C 10.0429 148.935 9.63281 149.568 9.63281 150.478C 9.63281 151.748 10.5117 152.552 11.9218 152.552C 12.8008 152.552 13.5039 152.248 14.289 151.533C 14.3672 152.236 14.7148 152.552 15.4336 152.552C 15.6601 152.552 15.832 152.529 16.1914 152.435L 16.1953 151.607zM 14.2304 150.041C 14.2304 150.408 14.125 150.634 13.789 150.939C 13.3359 151.349 12.7812 151.56 12.1211 151.56C 11.2461 151.56 10.7382 151.15 10.7382 150.451C 10.7382 149.724 11.2343 149.353 12.4336 149.181C 13.6172 149.025 13.8593 148.97 14.2343 148.798L 14.2304 150.041z"/>
<path style="stroke:none; fill-rule:evenodd; fill:#000000" d="M 17.7695 155.103C 19.0937 153.345 19.9297 150.9 19.9297 148.794C 19.9297 146.673 19.0937 144.232 17.7695 142.47L 17.0429 142.47C 18.1914 144.392 18.832 146.646 18.832 148.794C 18.832 150.927 18.1914 153.197 17.0429 155.103L 17.7695 155.103z"/>
<path style="stroke:none; fill-rule:evenodd; fill:#000000" d="M 162.832 142.462L 162.832 152.259L 163.832 152.259L 163.832 151.365C 164.367 152.173 165.082 152.56 166.062 152.56C 167.918 152.56 169.129 151.056 169.129 148.732C 169.129 146.466 167.973 145.064 166.113 145.064C 165.144 145.064 164.457 145.419 163.934 146.193L 163.934 142.462L 162.832 142.462zM 165.922 146.091C 167.164 146.091 167.969 147.173 167.969 148.849C 167.969 150.443 167.141 151.525 165.922 151.525C 164.746 151.525 163.969 150.455 163.969 148.806C 163.969 147.162 164.742 146.087 165.922 146.087L 165.922 146.091z"/>
<path style="stroke:none; fill-rule:evenodd; fill:#000000" d="M 170.867 155.103C 172.191 153.345 173.027 150.9 173.027 148.794C 173.027 146.673 172.191 144.232 170.867 142.47L 170.141 142.47C 171.289 144.392 171.93 146.646 171.93 148.794C 171.93 150.927 171.289 153.197 170.141 155.103L 170.867 155.103z"/>
<path style="stroke:none; fill-rule:evenodd; fill:#000000" d="M 323.437 147.603C 323.387 146.912 323.238 146.462 322.969 146.068C 322.488 145.443 321.641 145.068 320.66 145.068C 318.77 145.068 317.535 146.56 317.535 148.884C 317.535 151.138 318.742 152.564 320.648 152.564C 322.324 152.564 323.387 151.564 323.52 149.853L 322.375 149.853C 322.187 150.994 321.602 151.564 320.633 151.564C 319.383 151.564 318.633 150.556 318.633 148.884C 318.633 147.119 319.367 146.068 320.605 146.068C 321.555 146.068 322.156 146.619 322.293 147.603L 323.437 147.603z"/>
<path style="stroke:none; fill-rule:evenodd; fill:#000000" d="M 325.066 155.103C 326.391 153.345 327.227 150.9 327.227 148.794C 327.227 146.673 326.391 144.232 325.066 142.47L 324.34 142.47C 325.488 144.392 326.129 146.646 326.129 148.794C 326.129 150.927 325.488 153.197 324.34 155.103L 325.066 155.103z"/>
</g>
</svg>