<?xml version="1.0" encoding="UTF-8" standalone="no"?>
<svg
   xmlns:dc="http://purl.org/dc/elements/1.1/"
   xmlns:cc="http://creativecommons.org/ns#"
   xmlns:rdf="http://www.w3.org/1999/02/22-rdf-syntax-ns#"
   xmlns:svg="http://www.w3.org/2000/svg"
   xmlns="http://www.w3.org/2000/svg"
   xmlns:sodipodi="http://sodipodi.sourceforge.net/DTD/sodipodi-0.dtd"
   xmlns:inkscape="http://www.inkscape.org/namespaces/inkscape"
   version="1.1"
   width="8.5in"
   height="11in"
   viewBox="0 0 1912.5 2475"
   id="svg2"
   inkscape:version="0.91 r13725"
   sodipodi:docname="fig_deepleabra_wwi_noteo_v1p.svg"
   inkscape:export-filename="/Users/oreilly/svn_docs/figs/fig_deepleabra_wwi_noteo_v1p.png"
   inkscape:export-xdpi="149.95799"
   inkscape:export-ydpi="149.95799">
  <metadata
     id="metadata80">
    <rdf:RDF>
      <cc:Work
         rdf:about="">
        <dc:format>image/svg+xml</dc:format>
        <dc:type
           rdf:resource="http://purl.org/dc/dcmitype/StillImage" />
        <dc:title></dc:title>
      </cc:Work>
    </rdf:RDF>
  </metadata>
  <defs
     id="defs78">
    <marker
       inkscape:stockid="Arrow1Mend"
       orient="auto"
       refY="0"
       refX="0"
       id="marker6416"
       style="overflow:visible"
       inkscape:isstock="true">
      <path
         id="path6418"
         d="M 0,0 5,-5 -12.5,0 5,5 0,0 Z"
         style="fill:#000000;fill-opacity:1;fill-rule:evenodd;stroke:#000000;stroke-width:1pt;stroke-opacity:1"
         transform="matrix(-0.4,0,0,-0.4,-4,0)"
         inkscape:connector-curvature="0" />
    </marker>
    <marker
       inkscape:stockid="Arrow1Mend"
       orient="auto"
       refY="0"
       refX="0"
       id="marker6499"
       style="overflow:visible"
       inkscape:isstock="true">
      <path
         inkscape:connector-curvature="0"
         id="path6501"
         d="M 0,0 5,-5 -12.5,0 5,5 0,0 Z"
         style="fill:#000000;fill-opacity:1;fill-rule:evenodd;stroke:#000000;stroke-width:1pt;stroke-opacity:1"
         transform="matrix(-0.4,0,0,-0.4,-4,0)" />
    </marker>
    <marker
       inkscape:isstock="true"
       style="overflow:visible"
       id="marker5623"
       refX="0"
       refY="0"
       orient="auto"
       inkscape:stockid="Arrow1Mend">
      <path
         inkscape:connector-curvature="0"
         transform="matrix(-0.4,0,0,-0.4,-4,0)"
         style="fill:#000000;fill-opacity:1;fill-rule:evenodd;stroke:#000000;stroke-width:1pt;stroke-opacity:1"
         d="M 0,0 5,-5 -12.5,0 5,5 0,0 Z"
         id="path5625" />
    </marker>
    <marker
       inkscape:isstock="true"
       style="overflow:visible"
       id="marker5211"
       refX="0"
       refY="0"
       orient="auto"
       inkscape:stockid="Arrow1Mend">
      <path
         inkscape:connector-curvature="0"
         transform="matrix(-0.4,0,0,-0.4,-4,0)"
         style="fill:#000000;fill-opacity:1;fill-rule:evenodd;stroke:#000000;stroke-width:1pt;stroke-opacity:1"
         d="M 0,0 5,-5 -12.5,0 5,5 0,0 Z"
         id="path5213" />
    </marker>
    <marker
       inkscape:stockid="Arrow1Mend"
       orient="auto"
       refY="0"
       refX="0"
       id="marker4949"
       style="overflow:visible"
       inkscape:isstock="true">
      <path
         inkscape:connector-curvature="0"
         id="path4951"
         d="M 0,0 5,-5 -12.5,0 5,5 0,0 Z"
         style="fill:#000000;fill-opacity:1;fill-rule:evenodd;stroke:#000000;stroke-width:1pt;stroke-opacity:1"
         transform="matrix(-0.4,0,0,-0.4,-4,0)" />
    </marker>
    <marker
       inkscape:stockid="Arrow1Mend"
       orient="auto"
       refY="0"
       refX="0"
       id="marker4907"
       style="overflow:visible"
       inkscape:isstock="true">
      <path
         inkscape:connector-curvature="0"
         id="path4909"
         d="M 0,0 5,-5 -12.5,0 5,5 0,0 Z"
         style="fill:#000000;fill-opacity:1;fill-rule:evenodd;stroke:#000000;stroke-width:1pt;stroke-opacity:1"
         transform="matrix(-0.4,0,0,-0.4,-4,0)" />
    </marker>
  </defs>
  <sodipodi:namedview
     pagecolor="#ffffff"
     bordercolor="#666666"
     borderopacity="1"
     objecttolerance="10"
     gridtolerance="10"
     guidetolerance="10"
     inkscape:pageopacity="0"
     inkscape:pageshadow="2"
     inkscape:window-width="640"
     inkscape:window-height="480"
     id="namedview76"
     showgrid="false"
     units="in"
     inkscape:zoom="1.9725"
     inkscape:cx="216.79793"
     inkscape:cy="269.70148"
     inkscape:current-layer="svg2" />
  <rect
     style="opacity:1;fill:#ffffff;fill-opacity:1;fill-rule:nonzero;stroke:#ffffff;stroke-width:1.26840985;stroke-linecap:butt;stroke-linejoin:miter;stroke-miterlimit:4;stroke-dasharray:none;stroke-dashoffset:0;stroke-opacity:1"
     id="rect6498"
     width="992.95184"
     height="921.28168"
     x="39.657455"
     y="1482.261" />
  <path
     d="m 211.77136,2267.2733 0,-747.5 747.5,0 0,747.5 -747.5,0"
     id="path4"
     inkscape:connector-curvature="0"
     style="fill:none;stroke:#000000;stroke-width:2" />
  <path
     style="fill:none;stroke:#000000;stroke-width:2"
     inkscape:connector-curvature="0"
     id="path34"
     d="m 211.77136,2267.2733 747.5,0 m -747.5,18.7 0,-37.3 m 74.7,37.3 0,-37.3 m 74.8,37.3 0,-37.3 m 74.7,37.3 0,-37.3 m 74.8,37.3 0,-37.3 m 74.7,37.3 0,-37.3 m 74.8,37.3 0,-37.3 m 74.8,37.3 0,-37.3 m 74.7,37.3 0,-37.3 m 74.8,37.3 0,-37.3 m 74.7,37.3 0,-37.3" />
  <path
     style="fill:none;stroke:#000000;stroke-width:2"
     inkscape:connector-curvature="0"
     id="path36"
     d="m 211.77136,1519.7733 747.5,0 m -747.5,18.7 0,-37.4 m 74.7,37.4 0,-37.4 m 74.8,37.4 0,-37.4 m 74.7,37.4 0,-37.4 m 74.8,37.4 0,-37.4 m 74.7,37.4 0,-37.4 m 74.8,37.4 0,-37.4 m 74.8,37.4 0,-37.4 m 74.7,37.4 0,-37.4 m 74.8,37.4 0,-37.4 m 74.7,37.4 0,-37.4" />
  <text
     style="font-size:37.90000153px;font-family:Arial;text-anchor:end;fill:#000000"
     id="text40"
     font-size="37.9"
     y="2282.2732"
     x="185.57135">0.75</text>
  <text
     style="font-size:37.90000153px;font-family:Arial;text-anchor:end;fill:#000000"
     id="text42"
     font-size="37.9"
     y="2132.7732"
     x="185.57135">0.8</text>
  <text
     style="font-size:37.90000153px;font-family:Arial;text-anchor:end;fill:#000000"
     id="text44"
     font-size="37.9"
     y="1983.2732"
     x="185.57135">0.85</text>
  <text
     style="font-size:37.90000153px;font-family:Arial;text-anchor:end;fill:#000000"
     id="text46"
     font-size="37.9"
     y="1833.7733"
     x="185.57135">0.9</text>
  <text
     style="font-size:37.90000153px;font-family:Arial;text-anchor:end;fill:#000000"
     id="text48"
     font-size="37.9"
     y="1684.1733"
     x="185.57135">0.95</text>
  <text
     style="font-size:37.90000153px;font-family:Arial;text-anchor:end;fill:#000000"
     id="text50"
     font-size="37.9"
     y="1534.6733"
     x="185.57135">1</text>
  <path
     style="fill:none;stroke:#000000;stroke-width:2"
     inkscape:connector-curvature="0"
     id="path52"
     d="m 211.77136,2267.2733 0,-747.5 m -18.7,747.5 37.3,0 m -37.3,-149.5 37.3,0 m -37.3,-149.5 37.3,0 m -37.3,-149.5 37.3,0 m -37.3,-149.5 37.3,0 m -37.3,-149.5 37.3,0" />
  <path
     style="fill:none;stroke:#000000;stroke-width:2"
     inkscape:connector-curvature="0"
     id="path54"
     d="m 959.27136,2267.2733 0,-747.5 m -18.7,747.5 37.4,0 m -37.4,-149.5 37.4,0 m -37.4,-149.5 37.4,0 m -37.4,-149.5 37.4,0 m -37.4,-149.5 37.4,0 m -37.4,-149.5 37.4,0" />
  <text
     style="font-size:37.90000153px;font-family:Arial;text-anchor:start;fill:#000000"
     id="text8-4"
     font-size="37.9"
     y="2321.7908"
     x="927.17853">1000</text>
  <text
     style="font-size:37.90000153px;font-family:Arial;text-anchor:middle;fill:#000000"
     id="text10-4"
     font-size="37.9"
     y="2382.4919"
     x="586.25946">
    <tspan
       style="font-size:50px"
       id="tspan4303">epoch</tspan>
  </text>
  <text
     style="font-size:37.90000153px;font-family:Arial;text-anchor:middle;fill:#000000"
     id="text12-5"
     font-size="37.9"
     y="2321.7908"
     x="211.61681">0</text>
  <text
     style="font-size:37.90000153px;font-family:Arial;text-anchor:middle;fill:#000000"
     id="text14-7"
     font-size="37.9"
     y="2321.7908"
     x="286.3168">100</text>
  <text
     style="font-size:37.90000153px;font-family:Arial;text-anchor:middle;fill:#000000"
     id="text16-9"
     font-size="37.9"
     y="2321.7908"
     x="361.11685">200</text>
  <text
     style="font-size:37.90000153px;font-family:Arial;text-anchor:middle;fill:#000000"
     id="text18-4"
     font-size="37.9"
     y="2321.7908"
     x="435.81686">300</text>
  <text
     style="font-size:37.90000153px;font-family:Arial;text-anchor:middle;fill:#000000"
     id="text20-0"
     font-size="37.9"
     y="2321.7908"
     x="510.61682">400</text>
  <text
     style="font-size:37.90000153px;font-family:Arial;text-anchor:middle;fill:#000000"
     id="text22-0"
     font-size="37.9"
     y="2321.7908"
     x="585.31677">500</text>
  <text
     style="font-size:37.90000153px;font-family:Arial;text-anchor:middle;fill:#000000"
     id="text24-4"
     font-size="37.9"
     y="2321.7908"
     x="660.11682">600</text>
  <text
     style="font-size:37.90000153px;font-family:Arial;text-anchor:middle;fill:#000000"
     id="text26-4"
     font-size="37.9"
     y="2321.7908"
     x="734.91681">700</text>
  <text
     style="font-size:37.90000153px;font-family:Arial;text-anchor:middle;fill:#000000"
     id="text28-1"
     font-size="37.9"
     y="2321.7908"
     x="809.61682">800</text>
  <text
     style="font-size:37.90000153px;font-family:Arial;text-anchor:middle;fill:#000000"
     id="text30-0"
     font-size="37.9"
     y="2321.7908"
     x="884.41681">900</text>
  <text
     sodipodi:linespacing="100%"
     id="text4305"
     y="97.187767"
     x="-2144.2922"
     style="color:#000000;font-style:normal;font-variant:normal;font-weight:normal;font-stretch:normal;font-size:37.5px;line-height:100%;font-family:Arial;-inkscape-font-specification:Arial;text-indent:0;text-align:start;text-decoration:none;text-decoration-line:none;letter-spacing:0px;word-spacing:0px;text-transform:none;direction:ltr;block-progression:tb;writing-mode:lr-tb;text-anchor:start;display:inline;overflow:visible;visibility:visible;fill:#000000;fill-opacity:1;fill-rule:nonzero;stroke:none;stroke-width:1px;stroke-linecap:butt;stroke-linejoin:miter;stroke-opacity:1;marker:none;enable-background:accumulate"
     xml:space="preserve"
     transform="matrix(0,-1,1,0,0,0)"><tspan
       style="font-size:50px"
       y="97.187767"
       x="-2144.2922"
       id="tspan4307"
       sodipodi:role="line">V1p minus-plus cosine</tspan></text>
  <text
     xml:space="preserve"
     style="color:#000000;font-style:normal;font-variant:normal;font-weight:normal;font-stretch:normal;font-size:37.5px;line-height:100%;font-family:Arial;-inkscape-font-specification:Arial;text-indent:0;text-align:start;text-decoration:none;text-decoration-line:none;letter-spacing:0px;word-spacing:0px;text-transform:none;direction:ltr;block-progression:tb;writing-mode:lr-tb;text-anchor:start;display:inline;overflow:visible;visibility:visible;fill:#000000;fill-opacity:1;fill-rule:nonzero;stroke:none;stroke-width:1px;stroke-linecap:butt;stroke-linejoin:miter;stroke-opacity:1;marker:none;enable-background:accumulate"
     x="435.40665"
     y="1711.0066"
     id="text4818"
     sodipodi:linespacing="100%"><tspan
       sodipodi:role="line"
       id="tspan4820"
       x="435.40665"
       y="1711.0066">Intact</tspan></text>
  <text
     xml:space="preserve"
     style="color:#000000;font-style:normal;font-variant:normal;font-weight:normal;font-stretch:normal;font-size:37.5px;line-height:100%;font-family:Arial;-inkscape-font-specification:Arial;text-indent:0;text-align:start;text-decoration:none;text-decoration-line:none;letter-spacing:0px;word-spacing:0px;text-transform:none;direction:ltr;block-progression:tb;writing-mode:lr-tb;text-anchor:start;display:inline;overflow:visible;visibility:visible;fill:#ff0000;fill-opacity:1;fill-rule:nonzero;stroke:none;stroke-width:1px;stroke-linecap:butt;stroke-linejoin:miter;stroke-opacity:1;marker:none;enable-background:accumulate"
     x="433.47403"
     y="1962.1864"
     id="text4826"
     sodipodi:linespacing="100%"><tspan
       sodipodi:role="line"
       id="tspan4828"
       x="433.47403"
       y="1962.1864">no TEO</tspan></text>
  <path
     style="fill:none;stroke:#000000;stroke-width:2.5;stroke-miterlimit:4;stroke-dasharray:none"
     d="m 212.47136,2267.2733 0.8,0 0.7,0 0.7,0 0.8,0 0.7,0 0.8,0 0.7,0 0.8,0 0.7,0 0.8,0 0.7,0 0.8,0 0.7,0 0.8,0 0.7,0 0.8,0 0.7,0 0.8,0 0.7,0 0.8,0 0.7,0 0.8,0 0.7,0 0.7,0 0.8,0 0.7,-4.6 0.8,-14.7 0.7,-13.2 0.8,-9.9 0.7,-8.7 0.8,-7.7 0.7,-7.7 0.8,-7.2 0.7,-8.7 0.8,-8.7 0.7,-8.9 0.8,-8.5 0.7,-6.4 0.8,-7.6 0.7,-8.1 0.8,-7.4 0.7,-7.6 0.8,-6.6 0.7,-8.3 0.7,-8.2 0.8,-8.4 0.7,-8.1 0.8,-7.2 0.7,-6.2 0.8,-6.1 0.7,-4.2 0.8,-2.3 0.7,-2.4 0.8,-0.6 0.7,-1.3 0.8,1 0.7,0.1 0.8,0 0.7,0.6 0.8,-0.5 0.7,-0.4 0.8,0 0.7,-0.7 0.8,-1 0.7,-2.7 0.7,-2.4 0.8,-2.8 0.7,-4.2 0.8,-5 0.7,-3.8 0.8,-6.9 0.7,-5.2 0.8,-5.5 0.7,-4.9 0.8,-4.8 0.7,-4.7 0.8,-4.5 0.7,-5.1 0.8,-5.7 0.7,-6.1 0.8,-6.7 0.7,-7.1 0.8,-8.9 0.7,-7.6 0.8,-7.5 0.7,-7.2 0.7,-7.3 0.8,-4.1 0.7,-4.5 0.8,-3.3 0.7,-1.9 0.8,-1.4 0.7,-0.4 0.8,-0.2 0.7,0.8 0.8,0.4 0.7,1.1 0.8,1.8 0.7,2.2 0.8,3 0.7,1.4 0.8,2.6 0.7,3.5 0.8,3.1 0.7,3.3 0.8,2.4 0.7,2.3 0.7,1.6 0.8,0.1 0.7,-0.4 0.8,-1.5 0.7,-3 0.8,-3.2 0.7,-3.3 0.8,-5 0.7,-3.5 0.8,-3.1 0.7,-1.8 0.8,-0.5 0.7,-0.3 0.8,0.2 0.7,0 0.8,0.6 0.7,0 0.8,-0.1 0.7,-1.2 0.7,-2.1 0.8,-1.9 0.7,-1.3 0.8,-2.1 0.7,-1.8 0.8,-0.4 0.7,-0.8 0.8,0.6 0.7,0.5 0.8,0.5 0.7,1.1 0.8,2.1 0.7,2 0.8,2.1 0.7,1.9 0.8,2.1 0.7,2.4 0.8,1.6 0.7,1.7 0.8,0.1 0.7,1.3 0.7,0.4 0.8,-0.3 0.7,0.6 0.8,1 0.7,0.4 0.8,1.2 0.7,0.4 0.8,1 0.7,0.2 0.8,0.3 0.7,0 0.8,-0.6 0.7,-0.9 0.8,-2.1 0.7,-3.3 0.8,-2 0.7,-3.8 0.8,-2.5 0.7,-2.6 0.8,-3.8 0.7,-4.3 0.7,-2.5 0.8,-2.7 0.7,-2.3 0.8,-3 0.7,-1.6 0.8,-2.3 0.7,-1.1 0.8,-0.6 0.7,0.6 0.8,2.9 0.7,3.7 0.8,3.5 0.7,5.2 0.8,4.4 0.7,3.9 0.8,3.5 0.7,2.9 0.8,-0.1 0.7,-1.4 0.8,-1.5 0.7,-3.2 0.7,-3.8 0.8,-4.5 0.7,-6 0.8,-6.9 0.7,-8.6 0.8,-10.8 0.7,-12.7 0.8,-14 0.7,-15.6 0.8,-15.7 0.7,-14.9 0.8,-14.6 0.7,-13.4 0.8,-9.9 0.7,-8.7 0.8,-6.7 0.7,-4.9 0.8,-4.2 0.7,-3.1 0.8,-2.6 0.7,-2.9 0.7,-2.6 0.8,-2 0.7,-0.8 0.8,-0.9 0.7,0.1 0.8,0.5 0.7,1.3 0.8,1.7 0.7,2.5 0.8,2 0.7,1.3 0.8,1.1 0.7,1.1 0.8,0.9 0.7,1 0.8,0.6 0.7,1.3 0.8,1.8 0.7,1.3 0.7,1.2 0.8,1 0.7,1 0.8,0.8 0.7,0.1 0.8,-0.1 0.7,-1.8 0.8,-1 0.7,-0.3 0.8,-1.2 0.7,-0.3 0.8,-0.6 0.7,-0.3 0.8,0.5 0.7,0.3 0.8,0.4 0.7,0.4 0.8,-0.2 0.7,0.3 0.8,-1.6 0.7,-1.4 0.7,-1.7 0.8,-2.6 0.7,-1.8 0.8,-3.1 0.7,-2.1 0.8,-1 0.7,-0.5 0.8,0.7 0.7,2 0.8,1.8 0.7,2.6 0.8,2.9 0.7,2.2 0.8,2.7 0.7,0.7 0.8,2.2 0.7,0.5 0.8,0.7 0.7,0.8 0.8,0.7 0.7,0.9 0.7,0.7 0.8,0.6 0.7,0.2 0.8,1 0.7,-1.1 0.8,-0.2 0.7,-0.5 0.8,-1.1 0.7,0.4 0.8,0.3 0.7,1.9 0.8,1.1 0.7,2.5 0.8,3.5 0.7,2.9 0.8,3.2 0.7,3.5 0.8,2.1 0.7,1.6 0.8,0.6 0.7,-0.3 0.7,-0.1 0.8,-1 0.7,-1.2 0.8,-1 0.7,-2.4 0.8,-2.2 0.7,-2 0.8,-1.8 0.7,-2 0.8,-2.6 0.7,-2.2 0.8,-2.2 0.7,-2.4 0.8,-1.2 0.7,0.1 0.8,0.8 0.7,0 0.8,1 0.7,1.2 0.8,1.2 0.7,1.4 0.7,0.4 0.8,-0.3 0.7,-0.8 0.8,-1.4 0.7,-2.1 0.8,-2.2 0.7,-2 0.8,-1.9 0.7,-1.2 0.8,-1 0.7,-1 0.8,0.3 0.7,1.2 0.8,1 0.7,1.5 0.8,1.8 0.7,2.3 0.8,3.2 0.7,2 0.7,2.1 0.8,2.1 0.7,1.5 0.8,1.7 0.7,0.8 0.8,0 0.7,-0.7 0.8,-0.4 0.7,-1.2 0.8,-1.4 0.7,-0.6 0.8,-0.7 0.7,-0.8 0.8,-0.8 0.7,-0.2 0.8,-0.2 0.7,0.1 0.8,-0.3 0.7,0.3 0.8,0.4 0.7,-0.2 0.7,0.9 0.8,0.7 0.7,1.8 0.8,1.1 0.7,1.6 0.8,1.8 0.7,1 0.8,0.5 0.7,0.2 0.8,0.7 0.7,-1.3 0.8,-1.3 0.7,-1.6 0.8,-2.5 0.7,-2.4 0.8,-2.6 0.7,-2.6 0.8,-1.9 0.7,-1.7 0.8,-1.9 0.7,-1.3 0.7,0.4 0.8,-0.2 0.7,1 0.8,2.2 0.7,1.7 0.8,2.2 0.7,2 0.8,1.8 0.7,1.3 0.8,1.2 0.7,-0.4 0.8,0 0.7,-1.2 0.8,-2 0.7,-1.4 0.8,-1.1 0.7,-0.6 0.8,-0.7 0.7,0.7 0.8,1.1 0.7,1 0.7,1 0.8,0.8 0.7,1.5 0.8,0.6 0.7,1 0.8,0.7 0.7,1.3 0.8,1.4 0.7,2.5 0.8,2.6 0.7,3.1 0.8,3.3 0.7,3.4 0.8,3.1 0.7,2.1 0.8,0.7 0.7,0.6 0.8,0.7 0.7,-0.8 0.8,-1.4 0.7,-1.6 0.7,-2.8 0.8,-2.9 0.7,-3.1 0.8,-3.2 0.7,-3.1 0.8,-2.9 0.7,-2.7 0.8,-3.1 0.7,-2.3 0.8,-1.9 0.7,-0.8 0.8,0.3 0.7,-0.7 0.8,-1.7 0.7,-0.6 0.8,0.4 0.7,0.9 0.8,1.2 0.7,1.2 0.7,2.3 0.8,2.4 0.7,2.6 0.8,3 0.7,2.6 0.8,2.3 0.7,0.5 0.8,-0.1 0.7,-1.5 0.8,-2.1 0.7,-1.5 0.8,-1.7 0.7,-2.2 0.8,-2 0.7,-1.8 0.8,0.2 0.7,-0.1 0.8,-0.7 0.7,-0.4 0.8,-0.9 0.7,-1.6 0.7,-1.7 0.8,-1.6 0.7,-1.1 0.8,-2.2 0.7,-0.8 0.8,-0.6 0.7,-0.4 0.8,1.4 0.7,1.3 0.8,1 0.7,1.7 0.8,0.2 0.7,0.8 0.8,1.1 0.7,0.4 0.8,0.2 0.7,0.8 0.8,0 0.7,0.3 0.8,0.8 0.7,1.3 0.7,1 0.8,1.6 0.7,1.7 0.8,0.9 0.7,1.4 0.8,1.8 0.7,0.4 0.8,1 0.7,0 0.8,-0.6 0.7,-1 0.8,-1.3 0.7,-2.3 0.8,-1.7 0.7,-1 0.8,-1.5 0.7,-0.9 0.8,-0.1 0.7,0.4 0.8,1.2 0.7,1.7 0.7,1.6 0.8,2 0.7,2.9 0.8,2.2 0.7,2.4 0.8,1 0.7,1.3 0.8,0 0.7,-0.8 0.8,-2.2 0.7,-3.5 0.8,-3.7 0.7,-4 0.8,-4 0.7,-3.5 0.8,-2.5 0.7,-1.3 0.8,-0.4 0.7,0.6 0.8,1.6 0.7,1.9 0.7,2.6 0.8,2.1 0.7,1.5 0.8,1.6 0.7,2.5 0.8,2 0.7,2.3 0.8,1.4 0.7,2.6 0.8,2 0.7,2 0.8,0.6 0.7,0.3 0.8,-0.9 0.7,-1.4 0.8,-2.2 0.7,-2.5 0.8,-2.6 0.7,-1.7 0.7,-1.2 0.8,-0.8 0.7,-0.7 0.8,1.3 0.7,2.4 0.8,1.9 0.7,1.2 0.8,2 0.7,2 0.8,2 0.7,1.6 0.8,0.4 0.7,0 0.8,-0.6 0.7,-0.9 0.8,-1.4 0.7,-0.5 0.8,-1.4 0.7,-0.7 0.8,0 0.7,-0.8 0.7,-0.3 0.8,0.8 0.7,0.4 0.8,-0.3 0.7,0 0.8,-0.9 0.7,-1.5 0.8,-0.9 0.7,-1.7 0.8,-0.9 0.7,-1.2 0.8,-1.3 0.7,-1 0.8,-0.4 0.7,-0.1 0.8,-0.6 0.7,0.7 0.8,-0.1 0.7,0.1 0.8,-0.6 0.7,0.4 0.7,0 0.8,0.6 0.7,0.1 0.8,0.4 0.7,1.1 0.8,1 0.7,1.2 0.8,0.9 0.7,0 0.8,0.7 0.7,-0.6 0.8,-1.1 0.7,-1.5 0.8,-1.8 0.7,-2 0.8,-1.8 0.7,-2.3 0.8,-2.1 0.7,-0.7 0.8,-0.7 0.7,-0.5 0.7,-0.1 0.8,0.1 0.7,0.5 0.8,0.9 0.7,1.1 0.8,0.5 0.7,0.7 0.8,0.8 0.7,0.9 0.8,1.2 0.7,0.7 0.8,0.9 0.7,1.7 0.8,1.1 0.7,0.7 0.8,2.6 0.7,1.2 0.8,1.2 0.7,0.8 0.8,0.5 0.7,-0.6 0.7,-0.6 0.8,-0.5 0.7,-1.6 0.8,-2 0.7,-2.6 0.8,-2.6 0.7,-2 0.8,-2.1 0.7,-2.1 0.8,0.1 0.7,-0.8 0.8,-0.1 0.7,1 0.8,1.1 0.7,1.7 0.8,1.3 0.7,0.9 0.8,0.3 0.7,-0.3 0.8,-0.4 0.7,-1.2 0.7,-1.4 0.8,-1.3 0.7,-1.1 0.8,-0.7 0.7,0.1 0.8,-0.7 0.7,1.1 0.8,0.7 0.7,1.5 0.8,0.9 0.7,0.8 0.8,1.3 0.7,0.9 0.8,0.1 0.7,0 0.8,0 0.7,0.4 0.8,0.1 0.7,0.8 0.7,1.2 0.8,1.4 0.7,1.7 0.8,2.6 0.7,1.5 0.8,1.9 0.7,1 0.8,1 0.7,0 0.8,-1.1 0.7,-1.3 0.8,-1.9 0.7,-2.2 0.8,-2.4 0.7,-2.1 0.8,-2.3 0.7,-2.4 0.8,-2.1 0.7,-2.3 0.8,-2.1 0.7,-1.3 0.7,-1.1 0.8,-0.6 0.7,-0.5 0.8,0.4 0.7,0.9 0.8,1.2 0.7,1.7 0.8,1.7 0.7,1.5 0.8,1.4 0.7,1.5 0.8,1.1 0.7,0.7 0.8,1.1 0.7,0.1 0.8,-0.2 0.7,-0.8 0.8,-0.8 0.7,-1.3 0.8,-1.3 0.7,-1.4 0.7,-1.3 0.8,-1.8 0.7,-1 0.8,-0.4 0.7,-0.4 0.8,0.3 0.7,-0.6 0.8,0.7 0.7,0.1 0.8,-0.2 0.7,0.5 0.8,0.7 0.7,0.4 0.8,0.7 0.7,0.6 0.8,1.6 0.7,-0.3 0.8,2.1 0.7,2.4 0.8,1.5 0.7,1.7 0.7,1.6 0.8,1.7 0.7,1.7 0.8,0.7 0.7,0.6 0.8,0 0.7,-1 0.8,-1.7 0.7,-1.2 0.8,-1.2 0.7,-0.6 0.8,-1 0.7,1.8 0.8,-0.1 0.7,1.4 0.8,1.7 0.7,2 0.8,1.5 0.7,0.2 0.8,0.3 0.7,-1 0.7,-1.3 0.8,-2 0.7,-1.4 0.8,-2.2 0.7,-2.3 0.8,-1 0.7,-1.6 0.8,-0.4 0.7,-0.8 0.8,-0.1 0.7,-0.4 0.8,0.5 0.7,-0.5 0.8,-0.4 0.7,-0.9 0.8,-1.1 0.7,-0.9 0.8,-1.2 0.7,-1.1 0.7,-1.9 0.8,-1.2 0.7,-1.3 0.8,-1.7 0.7,-1.1 0.8,-1 0.7,-1.3 0.8,-0.4 0.7,0.1 0.8,-0.7 0.7,0.5 0.8,1 0.7,1.7 0.8,1.2 0.7,1.6 0.8,1.6 0.7,1.1 0.8,1 0.7,0.8 0.8,0 0.7,-0.5 0.7,-0.1 0.8,-0.9 0.7,-0.3 0.8,-0.8 0.7,-0.2 0.8,0.8 0.7,0.7 0.8,1 0.7,1.1 0.8,1.3 0.7,1.2 0.8,0.2 0.7,0.9 0.8,-0.1 0.7,-0.2 0.8,-0.2 0.7,0 0.8,-1.1 0.7,1.1 0.8,1.3 0.7,2.3 0.7,2.4 0.8,2.8 0.7,2.7 0.8,2.4 0.7,2.2 0.8,0.9 0.7,-0.1 0.8,0 0.7,-2.2 0.8,-2.4 0.7,-3.4 0.8,-2.2 0.7,-1.4 0.8,-0.7 0.7,-1 0.8,0.2 0.7,0.3 0.8,0.8 0.7,1.2 0.8,1.2 0.7,-0.2 0.7,-0.8 0.8,-1.7 0.7,-1.4 0.8,-2.6 0.7,-2.1 0.8,-1.7 0.7,-1.2 0.8,-1.7 0.7,-1.1 0.8,0.7 0.7,1.2 0.8,1.2 0.7,1.4 0.8,1.5 0.7,0.9 0.8,1.3 0.7,1.1 0.8,1 0.7,1 0.8,0.9 0.7,1.1 0.7,1.1 0.8,1.2 0.7,1 0.8,1.6 0.7,0.3 0.8,-0.5 0.7,-0.6 0.8,-1.5 0.7,-1.3 0.8,-2.4 0.7,-1.9 0.8,-1.1 0.7,-1.2 0.8,-0.4 0.7,-0.1 0.8,0.1 0.7,0.6 0.8,0.9 0.7,0.5 0.7,0.1 0.8,-1 0.7,-0.5 0.8,-0.8 0.7,-1.4 0.8,-1.1 0.7,-1.1 0.8,-0.5 0.7,-0.4 0.8,-0.8 0.7,0.2 0.8,-0.2 0.7,0.1 0.8,-0.7 0.7,-1 0.8,-1.8 0.7,-1.8 0.8,-1.6 0.7,-1.1 0.8,-2.1 0.7,-0.3 0.7,1.3 0.8,1.3 0.7,2.5 0.8,3.6 0.7,3.9 0.8,4 0.7,3.8 0.8,2.8 0.7,2.4 0.8,1.7 0.7,0.7 0.8,-0.3 0.7,-1 0.8,-1.1 0.7,-1.3 0.8,-0.1 0.7,-2 0.8,-1.8 0.7,-0.7 0.8,-1.5 0.7,-2.4 0.7,-1.8 0.8,-2.3 0.7,-1.9 0.8,-1.9 0.7,-2.5 0.8,-1 0.7,-0.4 0.8,0.6 0.7,0.9 0.8,1.9 0.7,1.9 0.8,1.8 0.7,2.1 0.8,1.7 0.7,1 0.8,1.1 0.7,0.5 0.8,-0.1 0.7,0.1 0.8,-0.9 0.7,-0.1 0.7,0.5 0.8,-0.5 0.7,0.6 0.8,0.4 0.7,0.3 0.8,-0.1 0.7,1.4 0.8,0.3 0.7,0.8 0.8,0.2 0.7,-0.2 0.8,-0.2 0.7,-0.3 0.8,-0.4 0.7,-0.3 0.8,-0.6 0.7,-0.3 0.8,0.2 0.7,0.7 0.8,0.5 0.7,0.8 0.7,2 0.8,1.4 0.7,0.4 0.8,0.8 0.7,0.1 0.8,0.1 0.7,0 0.8,-0.9 0.7,-0.6 0.8,-1.8 0.7,-1.5 0.8,-0.3 0.7,-1.3 0.8,-1.2 0.7,-0.6 0.8,-0.8 0.7,-0.6 0.8,-0.9 0.7,-1.4 0.7,-0.1 0.8,-0.2 0.7,-0.6 0.8,-0.9 0.7,-1.3 0.8,-0.8 0.7,-0.7 0.8,-0.3 0.7,-0.5 0.8,-1.8 0.7,-0.3 0.8,-0.1 0.7,0.1 0.8,-0.3 0.7,0.2 0.8,0.6 0.7,1.4 0.8,1.2 0.7,0.9 0.8,0.5 0.7,0.9 0.7,0.5 0.8,0 0.7,-0.5 0.8,-0.6 0.7,-1 0.8,-0.3 0.7,-2.1"
     id="path4857"
     inkscape:connector-curvature="0" />
  <path
     style="fill:none;stroke:#000000;stroke-width:2.49999996;stroke-miterlimit:4;stroke-dasharray:7.49999989,7.49999989;stroke-dashoffset:0"
     d="m 215.47136,2267.2733 3.7,0 3.8,0 3.7,0 3.7,0 3.8,0 3.7,0 3.8,0 3.7,0 3.7,0 3.8,-27.7 3.7,-33 3.8,-26.4 3.7,-21.7 3.7,-18.4 3.8,-16.2 3.7,-12.9 3.7,-9.6 3.8,-7.7 3.7,-5.9 3.8,-5.2 3.7,-3.5 3.7,-3.3 3.8,-2.2 3.7,-2.4 3.7,-2.6 3.8,-3.1 3.7,-4.4 3.8,-5.1 3.7,-3.4 3.7,-5.3 3.8,-8.1 3.7,-9.1 3.7,-10.9 3.8,-13.7 3.7,-16.2 3.8,-17.2 3.7,-18.7 3.7,-19.6 3.8,-18 3.7,-16.4 3.8,-14.4 3.7,-10.8 3.7,-7.1 3.8,-6 3.7,-3.3 3.7,-2.5 3.8,-0.7 3.7,0 3.8,-1.1 3.7,-1.8 3.7,-1.1 3.8,-1.4 3.7,-1.9 3.7,-1.4 3.8,-0.9 3.7,-0.9 3.8,-0.2 3.7,0.8 3.7,0.5 3.8,1 3.7,1.8 3.7,1.4 3.8,1.6 3.7,0.4 3.8,1.4 3.7,0.4 3.7,-0.6 3.8,-1.2 3.7,-0.3 3.7,-0.9 3.8,-0.7 3.7,-0.2 3.8,-0.5 3.7,0.4 3.7,0.5 3.8,0.2 3.7,-0.2 3.8,0.5 3.7,-0.7 3.7,-1.5 3.8,-0.3 3.7,-1.9 3.7,-0.7 3.8,-0.4 3.7,0.1 3.8,-0.1 3.7,0.5 3.7,1 3.8,0.9 3.7,1.1 3.7,0.4 3.8,0.7 3.7,0.9 3.8,0.6 3.7,0.5 3.7,0.9 3.8,1 3.7,0.4 3.7,0.6 3.8,0.5 3.7,0 3.8,-0.7 3.7,-0.5 3.7,-1.3 3.8,-1.8 3.7,-2.1 3.7,-1.8 3.8,-1.7 3.7,-1.6 3.8,-0.9 3.7,-0.6 3.7,-0.8 3.8,0.7 3.7,1.8 3.8,1.8 3.7,1.5 3.7,1.2 3.8,1.2 3.7,0.2 3.7,-0.7 3.8,-1 3.7,-1.9 3.8,-2.6 3.7,-2.7 3.7,-1.4 3.8,-1.2 3.7,-0.8 3.7,1.1 3.8,2.2 3.7,1.6 3.8,2.2 3.7,2.6 3.7,1.9 3.8,0.4 3.7,-0.2 3.7,-0.4 3.8,-1.3 3.7,-2 3.8,-1.8 3.7,-2.3 3.7,-1.8 3.8,-1.8 3.7,-0.8 3.8,0.2 3.7,-0.3 3.7,-0.2 3.8,0.1 3.7,1.1 3.7,0.7 3.8,1.1 3.7,1.4 3.8,1.4 3.7,1.1 3.7,0.8 3.8,1.1 3.7,0.3 3.7,0.4 3.8,-0.5 3.7,-1.2 3.8,-1.8 3.7,-1.7 3.7,-1.7 3.8,-1.8 3.7,-0.8 3.7,-1.7 3.8,0.3 3.7,1.3 3.8,1.5 3.7,1.9 3.7,2.6 3.8,3.2 3.7,2.6 3.7,3.2 3.8,2 3.7,2.1 3.8,1.5 3.7,1.6 3.7,0.9 3.8,-0.2 3.7,0.2 3.8,-0.4 3.7,-0.4 3.7,-1.1 3.8,-1.7 3.7,-2.1 3.7,-2.5 3.8,-2.6 3.7,-3.2 3.8,-2.5 3.7,-3.2 3.7,-2.9 3.8,-2.7 3.7,-2.2 3.7,-2.2 3.8,-1.8 3.7,-0.7 3.8,-1.1 3.7,-1.1 3.7,-1.1"
     id="path4855"
     inkscape:connector-curvature="0" />
  <path
     style="fill:none;stroke:#ff0000;stroke-width:2.5;stroke-miterlimit:4;stroke-dasharray:none"
     d="m 212.47136,2267.2733 0.8,0 0.7,0 0.7,0 0.8,0 0.7,0 0.8,0 0.7,0 0.8,0 0.7,0 0.8,0 0.7,0 0.8,0 0.7,0 0.8,0 0.7,0 0.8,0 0.7,0 0.8,0 0.7,0 0.8,0 0.7,0 0.8,0 0.7,0 0.7,0 0.8,-7.5 0.7,-22.2 0.8,-17.5 0.7,-14.9 0.8,-12.4 0.7,-11.4 0.8,-9.5 0.7,-9.6 0.8,-8.6 0.7,-9 0.8,-9.1 0.7,-9.3 0.8,-9.5 0.7,-8 0.8,-9.5 0.7,-10.3 0.8,-9 0.7,-9 0.8,-8.2 0.7,-8 0.7,-7.4 0.8,-5.4 0.7,-4.3 0.8,-3.1 0.7,-1.4 0.8,-0.9 0.7,0.1 0.8,1.1 0.7,0.2 0.8,-0.1 0.7,-1.7 0.8,-1 0.7,-1.7 0.8,-3.5 0.7,-3 0.8,-3.8 0.7,-3.7 0.8,-2.6 0.7,-3.1 0.8,-3.2 0.7,-2.7 0.7,-2.5 0.8,-2.5 0.7,-3.8 0.8,-4.7 0.7,-3.3 0.8,-5.2 0.7,-5.1 0.8,-4.7 0.7,-4.7 0.8,-3.6 0.7,-2.5 0.8,-1.7 0.7,-1.1 0.8,0.2 0.7,0.6 0.8,1.2 0.7,-0.6 0.8,-1.3 0.7,-2.3 0.8,-3.6 0.7,-5.7 0.7,-7.6 0.8,-7.2 0.7,-8.3 0.8,-9 0.7,-7.6 0.8,-7.3 0.7,-6 0.8,-5.1 0.7,-3.7 0.8,-4.1 0.7,-2.4 0.8,-1.8 0.7,-1.4 0.8,-1.3 0.7,-1.4 0.8,0.3 0.7,2 0.8,2.1 0.7,3.1 0.8,3.1 0.7,4 0.7,3.7 0.8,2.3 0.7,1.5 0.8,0 0.7,-1.7 0.8,-1.9 0.7,-2.5 0.8,-4.5 0.7,-3.5 0.8,-3.5 0.7,-1.7 0.8,-2.4 0.7,-1.7 0.8,-1.4 0.7,-1.5 0.8,-1.4 0.7,-1.3 0.8,-1.5 0.7,0.2 0.7,-0.6 0.8,-0.1 0.7,1 0.8,0.7 0.7,1.6 0.8,2.8 0.7,1.9 0.8,1.6 0.7,0.8 0.8,1.5 0.7,1 0.8,0.9 0.7,0.6 0.8,0.6 0.7,-0.7 0.8,0.4 0.7,-0.1 0.8,0.7 0.7,0.5 0.8,-1 0.7,1.9 0.7,1.7 0.8,2.1 0.7,3.5 0.8,3 0.7,3 0.8,2.6 0.7,1.9 0.8,1.1 0.7,0.2 0.8,-0.2 0.7,-1.7 0.8,-2.1 0.7,-2.5 0.8,-3 0.7,-2.4 0.8,-0.8 0.7,-3.2 0.8,-1.6 0.7,-0.8 0.8,-1.9 0.7,-1.3 0.7,-1.3 0.8,-1.9 0.7,-1.8 0.8,-2.5 0.7,-2.3 0.8,-2.8 0.7,-1.4 0.8,-1.9 0.7,-0.1 0.8,1.9 0.7,2.4 0.8,2.3 0.7,4.2 0.8,3.9 0.7,3.4 0.8,3.2 0.7,2.3 0.8,0.5 0.7,0.5 0.8,0.6 0.7,0.1 0.7,-0.7 0.8,1.5 0.7,0.6 0.8,1.7 0.7,1.3 0.8,0.2 0.7,0.3 0.8,0 0.7,-1 0.8,-1.4 0.7,-1.8 0.8,-2.9 0.7,-3 0.8,-2.2 0.7,-2.7 0.8,-2.8 0.7,-2 0.8,-1.9 0.7,-2.8 0.8,-2.1 0.7,-2.6 0.7,-1.2 0.8,-1 0.7,-0.9 0.8,0.3 0.7,0.1 0.8,0.5 0.7,2.1 0.8,2.6 0.7,2.9 0.8,1.8 0.7,2.4 0.8,2 0.7,1.5 0.8,0.8 0.7,0.8 0.8,-0.2 0.7,-0.4 0.8,-1.8 0.7,-2.2 0.7,-2.3 0.8,-4.3 0.7,-3.5 0.8,-3.4 0.7,-5 0.8,-4.2 0.7,-5.1 0.8,-4 0.7,-3.7 0.8,-3.9 0.7,-3.2 0.8,-3.4 0.7,-3.8 0.8,-1.8 0.7,-2.9 0.8,-1.8 0.7,-1.5 0.8,-2.2 0.7,-1 0.8,-2.5 0.7,-2.7 0.7,-1.6 0.8,-3.6 0.7,-2.7 0.8,-2.9 0.7,-2.8 0.8,-1.7 0.7,-0.8 0.8,-0.2 0.7,0.6 0.8,0.6 0.7,1.7 0.8,0.6 0.7,-0.2 0.8,-0.5 0.7,-1.7 0.8,-1.3 0.7,-2.2 0.8,-2.9 0.7,-1.7 0.8,-1.1 0.7,-1.8 0.7,-1.2 0.8,-0.6 0.7,-0.7 0.8,0.3 0.7,-1 0.8,-0.8 0.7,-0.7 0.8,0.2 0.7,0.2 0.8,0.7 0.7,1.2 0.8,1.6 0.7,1.8 0.8,2.9 0.7,2.2 0.8,1.8 0.7,2.5 0.8,2.1 0.7,1.2 0.8,0.7 0.7,0.6 0.7,1.1 0.8,0.3 0.7,0 0.8,0.1 0.7,-0.4 0.8,-1.5 0.7,-2 0.8,-2.1 0.7,-2.5 0.8,-3.3 0.7,-3.2 0.8,-2.9 0.7,-2.8 0.8,-1.1 0.7,0 0.8,1.1 0.7,0.6 0.8,1.2 0.7,1.3 0.8,1.2 0.7,0.5 0.7,-0.6 0.8,-1.9 0.7,-2 0.8,-2.7 0.7,-3.3 0.8,-2.9 0.7,-2.5 0.8,-1.6 0.7,-1 0.8,-1.6 0.7,-0.5 0.8,0.8 0.7,1.6 0.8,2.1 0.7,3.1 0.8,2.9 0.7,3.1 0.8,4.9 0.7,4.5 0.7,2.9 0.8,2.6 0.7,1.3 0.8,1.3 0.7,-0.5 0.8,-2.1 0.7,-1.9 0.8,-2.3 0.7,-2.5 0.8,-2.9 0.7,-1.7 0.8,-1.2 0.7,-0.9 0.8,0.7 0.7,0.1 0.8,-0.8 0.7,0.2 0.8,0.3 0.7,-0.6 0.8,-1 0.7,-2.8 0.7,-1.4 0.8,-1.5 0.7,-1.8 0.8,-0.9 0.7,-0.1 0.8,0.9 0.7,1.3 0.8,0.9 0.7,1.8 0.8,0.8 0.7,0.6 0.8,-0.4 0.7,-1.1 0.8,-1.6 0.7,-2.1 0.8,-1.4 0.7,-1.3 0.8,-0.8 0.7,0.1 0.8,1.6 0.7,1.3 0.7,2.7 0.8,2.3 0.7,2 0.8,2.3 0.7,1.3 0.8,0.8 0.7,-0.7 0.8,-0.9 0.7,-1.8 0.8,-1.7 0.7,-2.3 0.8,-2.1 0.7,-1.4 0.8,-0.6 0.7,-0.1 0.8,0.9 0.7,1.5 0.8,1.5 0.7,1.5 0.8,2.3 0.7,0.9 0.7,1 0.8,0.1 0.7,0.5 0.8,-0.7 0.7,-0.2 0.8,0.6 0.7,1.8 0.8,2.1 0.7,3.2 0.8,2.9 0.7,5.2 0.8,4.2 0.7,4.9 0.8,4.4 0.7,3.8 0.8,1.6 0.7,2 0.8,0.5 0.7,0.1 0.8,-1.1 0.7,-1.7 0.7,-3.3 0.8,-3 0.7,-3.6 0.8,-3.5 0.7,-3.8 0.8,-2.9 0.7,-3.6 0.8,-2.8 0.7,-1.8 0.8,-1.3 0.7,0.4 0.8,1 0.7,0.5 0.8,0.6 0.7,0.8 0.8,1.3 0.7,1.5 0.8,1.9 0.7,1 0.7,1.7 0.8,0.7 0.7,0.5 0.8,0.6 0.7,0.2 0.8,-0.6 0.7,-1.8 0.8,-2.5 0.7,-3.3 0.8,-3.9 0.7,-2.9 0.8,-2.5 0.7,-2.3 0.8,-2.1 0.7,-2 0.8,-0.7 0.7,-0.3 0.8,-1.4 0.7,-0.5 0.8,-0.8 0.7,-1.3 0.7,-1.6 0.8,-0.5 0.7,-1.1 0.8,-0.6 0.7,0.2 0.8,0.9 0.7,0.2 0.8,1.7 0.7,1.3 0.8,1.7 0.7,1.7 0.8,1 0.7,2 0.8,2.9 0.7,2 0.8,2.3 0.7,2.7 0.8,2.9 0.7,1.9 0.8,1.7 0.7,1.1 0.7,0.4 0.8,0.9 0.7,0.4 0.8,-1 0.7,0 0.8,-0.6 0.7,-0.9 0.8,-0.5 0.7,-1.5 0.8,-0.7 0.7,-1.5 0.8,-1.8 0.7,-2.3 0.8,-2.3 0.7,-0.6 0.8,-1.1 0.7,-0.3 0.8,-0.1 0.7,-0.1 0.8,0.9 0.7,2.1 0.7,1.7 0.8,2 0.7,2.9 0.8,2.7 0.7,3.9 0.8,2.2 0.7,2.8 0.8,1.7 0.7,0.3 0.8,-0.2 0.7,-2.2 0.8,-2.8 0.7,-3.6 0.8,-3.3 0.7,-3.2 0.8,-2.6 0.7,-2.1 0.8,-0.8 0.7,0.8 0.8,0.3 0.7,0.4 0.7,1.1 0.8,1.4 0.7,0.6 0.8,-0.2 0.7,2.4 0.8,1.5 0.7,2.1 0.8,1.8 0.7,2.4 0.8,1.2 0.7,0.7 0.8,-0.5 0.7,-0.6 0.8,-2.8 0.7,-3.9 0.8,-3.6 0.7,-3.6 0.8,-3 0.7,-1.7 0.7,-0.4 0.8,0.5 0.7,-0.8 0.8,1 0.7,1.3 0.8,0.3 0.7,-0.6 0.8,-0.8 0.7,-0.7 0.8,-1.1 0.7,-1.1 0.8,-0.2 0.7,-0.6 0.8,-0.8 0.7,0.1 0.8,-0.3 0.7,0.5 0.8,0.1 0.7,-0.2 0.8,1 0.7,0.5 0.7,1.6 0.8,2.3 0.7,2.4 0.8,2.9 0.7,3 0.8,2.5 0.7,1.6 0.8,1.8 0.7,1 0.8,0.3 0.7,-1 0.8,-1.5 0.7,-1.6 0.8,-2.2 0.7,-1.5 0.8,-2.7 0.7,-1.3 0.8,-1.6 0.7,-1.1 0.8,-1.8 0.7,-0.7 0.7,0.1 0.8,-0.1 0.7,0.2 0.8,-0.4 0.7,0.4 0.8,-0.1 0.7,-0.7 0.8,-0.2 0.7,-1.4 0.8,-1.1 0.7,-2.1 0.8,-1.3 0.7,-1.5 0.8,-1.1 0.7,0.3 0.8,0.7 0.7,0.8 0.8,0.5 0.7,2.3 0.8,1.7 0.7,2.8 0.7,2.1 0.8,1.5 0.7,1.3 0.8,0.4 0.7,1.4 0.8,0.3 0.7,0.3 0.8,-1.2 0.7,-0.8 0.8,-0.3 0.7,-0.9 0.8,-0.3 0.7,0.8 0.8,1.1 0.7,1 0.8,2.9 0.7,1.9 0.8,1.7 0.7,2.3 0.8,1.2 0.7,0.3 0.7,-1 0.8,-1.3 0.7,-2.3 0.8,-1.9 0.7,-2.9 0.8,-3.3 0.7,-2.1 0.8,-0.9 0.7,-1.5 0.8,0.8 0.7,0.9 0.8,0.6 0.7,1.6 0.8,1.6 0.7,1.2 0.8,-0.2 0.7,-1 0.8,-1.7 0.7,-2.1 0.8,-2.9 0.7,-3.2 0.7,-2.1 0.8,-1.4 0.7,-1.4 0.8,-0.7 0.7,1.8 0.8,0.5 0.7,2.2 0.8,1.7 0.7,1.5 0.8,1.5 0.7,0.8 0.8,1.6 0.7,0.5 0.8,0.4 0.7,0.3 0.8,0.1 0.7,0.3 0.8,0.4 0.7,1.2 0.7,1.2 0.8,1 0.7,0.4 0.8,2.5 0.7,1.1 0.8,0.7 0.7,0.6 0.8,-0.4 0.7,-0.6 0.8,-1.8 0.7,-1.5 0.8,-2.3 0.7,-2.7 0.8,-2 0.7,-1.6 0.8,-2 0.7,-0.9 0.8,-0.5 0.7,-0.1 0.8,0.3 0.7,-0.1 0.7,1.1 0.8,1 0.7,0.3 0.8,0.6 0.7,0.9 0.8,0.4 0.7,1 0.8,0.1 0.7,0.7 0.8,1 0.7,0.3 0.8,1.5 0.7,0.1 0.8,1.1 0.7,0.1 0.8,-0.6 0.7,-1.1 0.8,-1.3 0.7,-1 0.8,-1.6 0.7,-1.8 0.7,-1.8 0.8,-1.7 0.7,-1.4 0.8,-0.8 0.7,-1 0.8,-0.9 0.7,-0.9 0.8,-1.2 0.7,0.2 0.8,-0.7 0.7,0 0.8,0.4 0.7,0.2 0.8,0.1 0.7,0 0.8,0.6 0.7,-0.4 0.8,0.9 0.7,1.7 0.8,1.6 0.7,1.8 0.7,2 0.8,2.4 0.7,2.8 0.8,1.9 0.7,1 0.8,0.7 0.7,0 0.8,-0.2 0.7,0 0.8,0.8 0.7,2.1 0.8,2.2 0.7,4.5 0.8,3.3 0.7,3.9 0.8,3.3 0.7,3.3 0.8,0.9 0.7,-0.7 0.8,-1.9 0.7,-3.2 0.7,-4.1 0.8,-4.3 0.7,-2.6 0.8,-4 0.7,-2 0.8,-1.3 0.7,-0.6 0.8,0.1 0.7,0 0.8,1.3 0.7,0.6 0.8,0.6 0.7,-0.3 0.8,0.8 0.7,-0.6 0.8,-0.2 0.7,-0.3 0.8,-0.2 0.7,-0.8 0.7,-1.9 0.8,-0.4 0.7,-1.6 0.8,-2.2 0.7,-2.1 0.8,-0.9 0.7,-2.2 0.8,-2.6 0.7,-1.2 0.8,-1.8 0.7,-1 0.8,-2.1 0.7,-0.3 0.8,-0.7 0.7,0.2 0.8,0.1 0.7,1.5 0.8,1.3 0.7,2.4 0.8,2.1 0.7,2.5 0.7,1.9 0.8,0.9 0.7,1.5 0.8,0.9 0.7,0 0.8,0.1 0.7,-0.7 0.8,0 0.7,-0.9 0.8,-1.1 0.7,-1 0.8,-1.4 0.7,-1.5 0.8,-1.8 0.7,-2 0.8,-1.2 0.7,-0.4 0.8,-0.1 0.7,1.6 0.8,2 0.7,2.4 0.7,3.6 0.8,3.4 0.7,3.8 0.8,2.5 0.7,1.6 0.8,1 0.7,-0.5 0.8,-1.1 0.7,-1.7 0.8,-1.7 0.7,-3 0.8,-2.3 0.7,-1.6 0.8,-0.5 0.7,-0.6 0.8,0.5 0.7,0.6 0.8,0.6 0.7,1.3 0.8,0.5 0.7,0.4 0.7,0.2 0.8,-1.5 0.7,-1.5 0.8,-2 0.7,-2 0.8,-2 0.7,-1 0.8,-1.5 0.7,-1 0.8,-0.6 0.7,0.2 0.8,0.3 0.7,0.5 0.8,0.3 0.7,-0.5 0.8,-0.5 0.7,-0.3 0.8,0.2 0.7,0.2 0.8,1.3 0.7,1 0.7,1.5 0.8,2.5 0.7,1.7 0.8,2.2 0.7,0.7 0.8,0.9 0.7,0.2 0.8,-1 0.7,-0.8 0.8,-1.7 0.7,-1 0.8,-0.7 0.7,-1.1 0.8,-0.5 0.7,-0.1 0.8,-0.7 0.7,0.6 0.8,0.2 0.7,0.1 0.7,0.8 0.8,0.4 0.7,0.5 0.8,-0.2 0.7,-0.7 0.8,-0.5 0.7,-1.2 0.8,-1.6 0.7,-1.6 0.8,-2.3 0.7,-1.9 0.8,-1.1 0.7,-0.1 0.8,-0.2 0.7,0.2 0.8,1.3 0.7,1.3 0.8,1.2 0.7,0.9 0.8,0.6 0.7,1.1 0.7,0.8 0.8,-0.2 0.7,-0.1 0.8,0.8 0.7,0.1 0.8,0.6 0.7,1.2 0.8,0.8 0.7,1.7 0.8,2 0.7,2 0.8,1.4 0.7,1.9 0.8,1.9 0.7,1.7 0.8,1.4 0.7,0.3 0.8,-0.8 0.7,-0.6 0.8,-1.6 0.7,-3.6 0.7,-3.1 0.8,-4 0.7,-3.3 0.8,-3.6 0.7,-3.6 0.8,-1.9 0.7,-1.1 0.8,1.4 0.7,1.2 0.8,2.1 0.7,3 0.8,2.5 0.7,2 0.8,2 0.7,0.9 0.8,-0.2 0.7,-0.1 0.8,-1.1 0.7,-0.8 0.8,-1.9 0.7,-0.4 0.7,0.2 0.8,0 0.7,0.3 0.8,0.5 0.7,0.5 0.8,0.5 0.7,0.7 0.8,0.4 0.7,0.6 0.8,0.2 0.7,0.1 0.8,0.9 0.7,0.4 0.8,0.8 0.7,1 0.8,0.5 0.7,0.2 0.8,0.3 0.7,0 0.8,0.2 0.7,-0.5 0.7,0.8 0.8,-0.5 0.7,-0.9 0.8,-0.1 0.7,-0.4 0.8,-1 0.7,-0.8 0.8,-1.5 0.7,-1.3 0.8,-2.4 0.7,-2.1 0.8,-1.2 0.7,-1.7 0.8,-1.5 0.7,-1.5 0.8,-0.9 0.7,-0.4 0.8,-0.5 0.7,0.4 0.7,0.9 0.8,1.6 0.7,2 0.8,2.1 0.7,1.9 0.8,1.8 0.7,1.4 0.8,0.7 0.7,-0.3 0.8,-2.1 0.7,-2.6 0.8,-2.2 0.7,-2.7 0.8,-3.2 0.7,-2.5 0.8,-1.7 0.7,-1.3 0.8,-0.2 0.7,-0.1 0.8,0.2 0.7,0.6 0.7,0.5 0.8,0.5 0.7,0.1 0.8,0.4 0.7,0.2 0.8,0.9 0.7,0.6"
     id="path4853"
     inkscape:connector-curvature="0" />
  <path
     style="fill:none;stroke:#ff0000;stroke-width:2.49999996;stroke-miterlimit:4;stroke-dasharray:7.49999989,7.49999989;stroke-dashoffset:0"
     d="m 215.47136,2267.2733 3.7,0 3.8,0 3.7,0 3.7,0 3.8,0 3.7,0 3.8,0 3.7,0 3.7,-20.5 3.8,-39.9 3.7,-28 3.8,-23.2 3.7,-19.3 3.7,-17.2 3.8,-14.6 3.7,-13.2 3.7,-10.7 3.8,-9.7 3.7,-8.2 3.8,-6.6 3.7,-5.9 3.7,-3.1 3.8,-1.4 3.7,-2.1 3.7,-1 3.8,-1 3.7,-0.9 3.8,-1.4 3.7,-1.4 3.7,-2.9 3.8,-3.5 3.7,-4 3.7,-4.2 3.8,-5 3.7,-5.3 3.8,-3.2 3.7,-3 3.7,-2.4 3.8,-0.3 3.7,0 3.8,1.6 3.7,1.1 3.7,1.8 3.8,-1.3 3.7,-2.2 3.7,-3.7 3.8,-5.9 3.7,-8.1 3.8,-11.1 3.7,-11.1 3.7,-12.2 3.8,-10.9 3.7,-11.2 3.7,-8.8 3.8,-6.6 3.7,-5.5 3.8,-2.5 3.7,-0.9 3.7,0.8 3.8,1.1 3.7,2.6 3.7,2.5 3.8,2.8 3.7,1.2 3.8,0.9 3.7,0.6 3.7,0.4 3.8,-0.9 3.7,-0.9 3.7,-1.4 3.8,-1.1 3.7,-1 3.8,-1.1 3.7,-0.8 3.7,-1.3 3.8,-0.6 3.7,-0.6 3.8,-0.1 3.7,-1.6 3.7,-1.9 3.8,0.2 3.7,-0.8 3.7,-0.3 3.8,-0.3 3.7,2.1 3.8,1.4 3.7,2.7 3.7,2.4 3.8,3 3.7,2 3.7,1.4 3.8,0.7 3.7,-0.3 3.8,-1.1 3.7,-2.3 3.7,-1.5 3.8,-2.4 3.7,-2.6 3.7,-1.6 3.8,-1.4 3.7,-1.7 3.8,-1.5 3.7,-1 3.7,-0.9 3.8,-1.4 3.7,-1.4 3.7,-0.5 3.8,0 3.7,0.8 3.8,1.3 3.7,1.3 3.7,1.5 3.8,1.3 3.7,2.2 3.8,1.2 3.7,0.8 3.7,0.1 3.8,-0.7 3.7,-2 3.7,-1.9 3.8,-2.4 3.7,-2.1 3.8,-2.4 3.7,-2.8 3.7,-2.6 3.8,-2 3.7,-1.9 3.7,0.5 3.8,0.6 3.7,0.9 3.8,1.1 3.7,2.7 3.7,1.8 3.8,1.3 3.7,1.6 3.7,0.1 3.8,-1 3.7,-2 3.8,-2.6 3.7,-3.5 3.7,-3.2 3.8,-3.2 3.7,-2.7 3.8,-1 3.7,-0.6 3.7,0.5 3.8,1.9 3.7,2.4 3.7,2.3 3.8,3 3.7,2.9 3.8,2 3.7,1.7 3.7,1 3.8,0.1 3.7,-0.3 3.7,-0.5 3.8,-1.4 3.7,-1.5 3.8,-1.6 3.7,-1.3 3.7,-1.2 3.8,-0.8 3.7,-0.1 3.7,0.5 3.8,1.8 3.7,3.5 3.8,3.6 3.7,4.1 3.7,4.3 3.8,3.7 3.7,3.8 3.7,2.6 3.8,1 3.7,0.3 3.8,-0.8 3.7,-1.3 3.7,-2.2 3.8,-2.4 3.7,-1.2 3.8,-1.2 3.7,-0.2 3.7,0.2 3.8,0.3 3.7,0.6 3.7,0 3.8,-0.3 3.7,-0.7 3.8,-1.9 3.7,-2 3.7,-2.8 3.8,-3.2 3.7,-3.3 3.7,-3.2 3.8,-2.4 3.7,-1.5 3.8,-2 3.7,-1.3 3.7,-0.9"
     id="path72"
     inkscape:connector-curvature="0" />
  <path
     style="fill:none;stroke:#000000;stroke-width:2.5;stroke-miterlimit:4;stroke-dasharray:none"
     d="m 204.97136,2267.2733 15,0 -7.5,0 0,7.5 0,-14.9 0,7.4 -7.5,-7.4 15,14.9 -7.5,-7.5 7.5,-7.4 -15,14.9"
     id="path4849"
     inkscape:connector-curvature="0" />
  <path
     style="fill:none;stroke:#000000;stroke-width:2.5;stroke-miterlimit:4;stroke-dasharray:none"
     d="m 205.77136,2267.2733 14.9,0 -7.4,0 0,7.5 0,-14.9 0,7.4 -7.5,-7.4 14.9,14.9 -7.4,-7.5 7.4,-7.4 -14.9,14.9"
     id="path4847"
     inkscape:connector-curvature="0" />
  <path
     style="fill:none;stroke:#000000;stroke-width:2.5;stroke-miterlimit:4;stroke-dasharray:none"
     d="m 206.47136,2267.2733 15,0 -7.5,0 0,7.5 0,-14.9 0,7.4 -7.5,-7.4 15,14.9 -7.5,-7.5 7.5,-7.4 -15,14.9"
     id="path4845"
     inkscape:connector-curvature="0" />
  <path
     style="fill:none;stroke:#000000;stroke-width:2.5;stroke-miterlimit:4;stroke-dasharray:none"
     d="m 207.27136,2267.2733 14.9,0 -7.5,0 0,7.5 0,-14.9 0,7.4 -7.4,-7.4 14.9,14.9 -7.5,-7.5 7.5,-7.4 -14.9,14.9"
     id="path4843"
     inkscape:connector-curvature="0" />
  <path
     style="fill:none;stroke:#000000;stroke-width:2.5;stroke-miterlimit:4;stroke-dasharray:none"
     d="m 207.97136,2267.2733 15,0 -7.5,0 0,7.5 0,-14.9 0,7.4 -7.5,-7.4 15,14.9 -7.5,-7.5 7.5,-7.4 -15,14.9"
     id="path4841"
     inkscape:connector-curvature="0" />
  <path
     style="fill:none;stroke:#000000;stroke-width:2.5;stroke-miterlimit:4;stroke-dasharray:none"
     d="m 208.77136,2267.2733 14.9,0 -7.5,0 0,7.5 0,-14.9 0,7.4 -7.4,-7.4 14.9,14.9 -7.5,-7.5 7.5,-7.4 -14.9,14.9"
     id="path4839"
     inkscape:connector-curvature="0" />
  <path
     style="fill:none;stroke:#000000;stroke-width:2.5;stroke-miterlimit:4;stroke-dasharray:none"
     d="m 209.47136,2267.2733 15,0 -7.5,0 0,7.5 0,-14.9 0,7.4 -7.5,-7.4 15,14.9 -7.5,-7.5 7.5,-7.4 -15,14.9"
     id="path4837"
     inkscape:connector-curvature="0" />
  <path
     style="fill:none;stroke:#000000;stroke-width:2.5;stroke-miterlimit:4;stroke-dasharray:none"
     d="m 210.27136,2267.2733 14.9,0 -7.5,0 0,7.5 0,-14.9 0,7.4 -7.4,-7.4 14.9,14.9 -7.5,-7.5 7.5,-7.4 -14.9,14.9"
     id="path4835"
     inkscape:connector-curvature="0" />
  <path
     style="fill:none;stroke:#000000;stroke-width:2.5;stroke-miterlimit:4;stroke-dasharray:none"
     d="m 210.97136,2267.2733 15,0 -7.5,0 0,7.5 0,-14.9 0,7.4 -7.5,-7.4 15,14.9 -7.5,-7.5 7.5,-7.4 -15,14.9"
     id="path4833"
     inkscape:connector-curvature="0" />
  <path
     style="fill:none;stroke:#000000;stroke-width:2.5;stroke-miterlimit:4;stroke-dasharray:none"
     d="m 211.77136,2267.2733 14.9,0 -7.5,0 0,7.5 0,-14.9 0,7.4 -7.4,-7.4 14.9,14.9 -7.5,-7.5 7.5,-7.4 -14.9,14.9"
     id="path4831"
     inkscape:connector-curvature="0" />
  <path
     style="fill:none;stroke:#000000;stroke-width:2.5;stroke-miterlimit:4;stroke-dasharray:none"
     d="m 212.47136,2267.2733 15,0 -7.5,0 0,7.5 0,-14.9 0,7.4 -7.5,-7.4 15,14.9 -7.5,-7.5 7.5,-7.4 -15,14.9"
     id="path4829"
     inkscape:connector-curvature="0" />
  <path
     style="fill:none;stroke:#000000;stroke-width:2.5;stroke-miterlimit:4;stroke-dasharray:none"
     d="m 213.27136,2267.2733 14.9,0 -7.5,0 0,7.5 0,-14.9 0,7.4 -7.4,-7.4 14.9,14.9 -7.5,-7.5 7.5,-7.4 -14.9,14.9"
     id="path4827"
     inkscape:connector-curvature="0" />
  <path
     style="fill:none;stroke:#000000;stroke-width:2.5;stroke-miterlimit:4;stroke-dasharray:none"
     d="m 213.97136,2267.2733 15,0 -7.5,0 0,7.5 0,-14.9 0,7.4 -7.5,-7.4 15,14.9 -7.5,-7.5 7.5,-7.4 -15,14.9"
     id="path4825"
     inkscape:connector-curvature="0" />
  <path
     style="fill:none;stroke:#000000;stroke-width:2.5;stroke-miterlimit:4;stroke-dasharray:none"
     d="m 214.67136,2267.2733 15,0 -7.5,0 0,7.5 0,-14.9 0,7.4 -7.5,-7.4 15,14.9 -7.5,-7.5 7.5,-7.4 -15,14.9"
     id="path4823"
     inkscape:connector-curvature="0" />
  <path
     style="fill:none;stroke:#000000;stroke-width:2.5;stroke-miterlimit:4;stroke-dasharray:none"
     d="m 215.47136,2267.2733 14.9,0 -7.4,0 0,7.5 0,-14.9 0,7.4 -7.5,-7.4 14.9,14.9 -7.4,-7.5 7.4,-7.4 -14.9,14.9"
     id="path4821"
     inkscape:connector-curvature="0" />
  <path
     style="fill:none;stroke:#000000;stroke-width:2.5;stroke-miterlimit:4;stroke-dasharray:none"
     d="m 216.17136,2267.2733 15,0 -7.5,0 0,7.5 0,-14.9 0,7.4 -7.5,-7.4 15,14.9 -7.5,-7.5 7.5,-7.4 -15,14.9"
     id="path4819"
     inkscape:connector-curvature="0" />
  <path
     style="fill:none;stroke:#000000;stroke-width:2.5;stroke-miterlimit:4;stroke-dasharray:none"
     d="m 216.97136,2267.2733 14.9,0 -7.4,0 0,7.5 0,-14.9 0,7.4 -7.5,-7.4 14.9,14.9 -7.4,-7.5 7.4,-7.4 -14.9,14.9"
     id="path4817"
     inkscape:connector-curvature="0" />
  <path
     style="fill:none;stroke:#000000;stroke-width:2.5;stroke-miterlimit:4;stroke-dasharray:none"
     d="m 217.67136,2267.2733 15,0 -7.5,0 0,7.5 0,-14.9 0,7.4 -7.5,-7.4 15,14.9 -7.5,-7.5 7.5,-7.4 -15,14.9"
     id="path4815"
     inkscape:connector-curvature="0" />
  <path
     style="fill:none;stroke:#000000;stroke-width:2.5;stroke-miterlimit:4;stroke-dasharray:none"
     d="m 218.47136,2267.2733 14.9,0 -7.4,0 0,7.5 0,-14.9 0,7.4 -7.5,-7.4 14.9,14.9 -7.4,-7.5 7.4,-7.4 -14.9,14.9"
     id="path4813"
     inkscape:connector-curvature="0" />
  <path
     style="fill:none;stroke:#000000;stroke-width:2.5;stroke-miterlimit:4;stroke-dasharray:none"
     d="m 219.17136,2267.2733 15,0 -7.5,0 0,7.5 0,-14.9 0,7.4 -7.5,-7.4 15,14.9 -7.5,-7.5 7.5,-7.4 -15,14.9"
     id="path4811"
     inkscape:connector-curvature="0" />
  <path
     style="fill:none;stroke:#000000;stroke-width:2.5;stroke-miterlimit:4;stroke-dasharray:none"
     d="m 219.97136,2267.2733 14.9,0 -7.4,0 0,7.5 0,-14.9 0,7.4 -7.5,-7.4 14.9,14.9 -7.4,-7.5 7.4,-7.4 -14.9,14.9"
     id="path4809"
     inkscape:connector-curvature="0" />
  <path
     style="fill:none;stroke:#000000;stroke-width:2.5;stroke-miterlimit:4;stroke-dasharray:none"
     d="m 220.67136,2267.2733 15,0 -7.5,0 0,7.5 0,-14.9 0,7.4 -7.5,-7.4 15,14.9 -7.5,-7.5 7.5,-7.4 -15,14.9"
     id="path4807"
     inkscape:connector-curvature="0" />
  <path
     style="fill:none;stroke:#000000;stroke-width:2.5;stroke-miterlimit:4;stroke-dasharray:none"
     d="m 221.47136,2267.2733 14.9,0 -7.4,0 0,7.5 0,-14.9 0,7.4 -7.5,-7.4 14.9,14.9 -7.4,-7.5 7.4,-7.4 -14.9,14.9"
     id="path4805"
     inkscape:connector-curvature="0" />
  <path
     style="fill:none;stroke:#000000;stroke-width:2.5;stroke-miterlimit:4;stroke-dasharray:none"
     d="m 222.17136,2267.2733 15,0 -7.5,0 0,7.5 0,-14.9 0,7.4 -7.5,-7.4 15,14.9 -7.5,-7.5 7.5,-7.4 -15,14.9"
     id="path4803"
     inkscape:connector-curvature="0" />
  <path
     style="fill:none;stroke:#000000;stroke-width:2.5;stroke-miterlimit:4;stroke-dasharray:none"
     d="m 222.97136,2267.2733 14.9,0 -7.5,0 0,7.5 0,-14.9 0,7.4 -7.4,-7.4 14.9,14.9 -7.5,-7.5 7.5,-7.4 -14.9,14.9"
     id="path4801"
     inkscape:connector-curvature="0" />
  <path
     style="fill:none;stroke:#000000;stroke-width:2.5;stroke-miterlimit:4;stroke-dasharray:none"
     d="m 223.67136,2267.2733 15,0 -7.5,0 0,7.5 0,-14.9 0,7.4 -7.5,-7.4 15,14.9 -7.5,-7.5 7.5,-7.4 -15,14.9"
     id="path4799"
     inkscape:connector-curvature="0" />
  <path
     style="fill:none;stroke:#000000;stroke-width:2.5;stroke-miterlimit:4;stroke-dasharray:none"
     d="m 207.97136,2267.2733 15,0 -7.5,0 0,7.5 0,-14.9 0,7.4 -7.5,-7.4 15,14.9 -7.5,-7.5 7.5,-7.4 -15,14.9"
     id="path4797"
     inkscape:connector-curvature="0" />
  <path
     style="fill:none;stroke:#000000;stroke-width:2.5;stroke-miterlimit:4;stroke-dasharray:none"
     d="m 211.77136,2267.2733 14.9,0 -7.5,0 0,7.5 0,-14.9 0,7.4 -7.4,-7.4 14.9,14.9 -7.5,-7.5 7.5,-7.4 -14.9,14.9"
     id="path4795"
     inkscape:connector-curvature="0" />
  <path
     style="fill:none;stroke:#000000;stroke-width:2.5;stroke-miterlimit:4;stroke-dasharray:none"
     d="m 215.47136,2267.2733 14.9,0 -7.4,0 0,7.5 0,-14.9 0,7.4 -7.5,-7.4 14.9,14.9 -7.4,-7.5 7.4,-7.4 -14.9,14.9"
     id="path4793"
     inkscape:connector-curvature="0" />
  <path
     style="fill:none;stroke:#000000;stroke-width:2.5;stroke-miterlimit:4;stroke-dasharray:none"
     d="m 219.17136,2267.2733 15,0 -7.5,0 0,7.5 0,-14.9 0,7.4 -7.5,-7.4 15,14.9 -7.5,-7.5 7.5,-7.4 -15,14.9"
     id="path4791"
     inkscape:connector-curvature="0" />
  <path
     style="fill:none;stroke:#000000;stroke-width:2.5;stroke-miterlimit:4;stroke-dasharray:none"
     d="m 222.97136,2267.2733 14.9,0 -7.5,0 0,7.5 0,-14.9 0,7.4 -7.4,-7.4 14.9,14.9 -7.5,-7.5 7.5,-7.4 -14.9,14.9"
     id="path4789"
     inkscape:connector-curvature="0" />
  <path
     style="fill:none;stroke:#000000;stroke-width:2.5;stroke-miterlimit:4;stroke-dasharray:none"
     d="m 226.67136,2267.2733 15,0 -7.5,0 0,7.5 0,-14.9 0,7.4 -7.5,-7.4 15,14.9 -7.5,-7.5 7.5,-7.4 -15,14.9"
     id="path4787"
     inkscape:connector-curvature="0" />
  <path
     style="fill:none;stroke:#000000;stroke-width:2.5;stroke-miterlimit:4;stroke-dasharray:none"
     d="m 230.37136,2267.2733 15,0 -7.5,0 0,7.5 0,-14.9 0,7.4 -7.5,-7.4 15,14.9 -7.5,-7.5 7.5,-7.4 -15,14.9"
     id="path4785"
     inkscape:connector-curvature="0" />
  <path
     style="fill:none;stroke:#000000;stroke-width:2.5;stroke-miterlimit:4;stroke-dasharray:none"
     d="m 234.17136,2267.2733 14.9,0 -7.4,0 0,7.5 0,-14.9 0,7.4 -7.5,-7.4 14.9,14.9 -7.4,-7.5 7.4,-7.4 -14.9,14.9"
     id="path4783"
     inkscape:connector-curvature="0" />
  <path
     style="fill:none;stroke:#000000;stroke-width:2.5;stroke-miterlimit:4;stroke-dasharray:none"
     d="m 237.87136,2267.2733 15,0 -7.5,0 0,7.5 0,-14.9 0,7.4 -7.5,-7.4 15,14.9 -7.5,-7.5 7.5,-7.4 -15,14.9"
     id="path4781"
     inkscape:connector-curvature="0" />
  <path
     style="fill:none;stroke:#000000;stroke-width:2.5;stroke-miterlimit:4;stroke-dasharray:none"
     d="m 241.67136,2267.2733 14.9,0 -7.5,0 0,7.5 0,-14.9 0,7.4 -7.4,-7.4 14.9,14.9 -7.5,-7.5 7.5,-7.4 -14.9,14.9"
     id="path4779"
     inkscape:connector-curvature="0" />
  <path
     style="fill:none;stroke:#000000;stroke-width:2.5;stroke-miterlimit:4;stroke-dasharray:none"
     d="m 204.97136,2267.2733 15,0 -7.5,0 0,7.5 0,-14.9 0,7.4 -7.5,-7.4 15,14.9 -7.5,-7.5 7.5,-7.4 -15,14.9"
     id="path4777"
     inkscape:connector-curvature="0" />
  <path
     style="fill:none;stroke:#000000;stroke-width:2.5;stroke-miterlimit:4;stroke-dasharray:none"
     d="m 205.77136,2267.2733 14.9,0 -7.4,0 0,7.5 0,-14.9 0,7.4 -7.5,-7.4 14.9,14.9 -7.4,-7.5 7.4,-7.4 -14.9,14.9"
     id="path4775"
     inkscape:connector-curvature="0" />
  <path
     style="fill:none;stroke:#000000;stroke-width:2.5;stroke-miterlimit:4;stroke-dasharray:none"
     d="m 206.47136,2267.2733 15,0 -7.5,0 0,7.5 0,-14.9 0,7.4 -7.5,-7.4 15,14.9 -7.5,-7.5 7.5,-7.4 -15,14.9"
     id="path4773"
     inkscape:connector-curvature="0" />
  <path
     style="fill:none;stroke:#000000;stroke-width:2.5;stroke-miterlimit:4;stroke-dasharray:none"
     d="m 207.27136,2267.2733 14.9,0 -7.5,0 0,7.5 0,-14.9 0,7.4 -7.4,-7.4 14.9,14.9 -7.5,-7.5 7.5,-7.4 -14.9,14.9"
     id="path4771"
     inkscape:connector-curvature="0" />
  <path
     style="fill:none;stroke:#000000;stroke-width:2.5;stroke-miterlimit:4;stroke-dasharray:none"
     d="m 207.97136,2267.2733 15,0 -7.5,0 0,7.5 0,-14.9 0,7.4 -7.5,-7.4 15,14.9 -7.5,-7.5 7.5,-7.4 -15,14.9"
     id="path4769"
     inkscape:connector-curvature="0" />
  <path
     style="fill:none;stroke:#000000;stroke-width:2.5;stroke-miterlimit:4;stroke-dasharray:none"
     d="m 208.77136,2267.2733 14.9,0 -7.5,0 0,7.5 0,-14.9 0,7.4 -7.4,-7.4 14.9,14.9 -7.5,-7.5 7.5,-7.4 -14.9,14.9"
     id="path4767"
     inkscape:connector-curvature="0" />
  <path
     style="fill:none;stroke:#000000;stroke-width:2.5;stroke-miterlimit:4;stroke-dasharray:none"
     d="m 209.47136,2267.2733 15,0 -7.5,0 0,7.5 0,-14.9 0,7.4 -7.5,-7.4 15,14.9 -7.5,-7.5 7.5,-7.4 -15,14.9"
     id="path4765"
     inkscape:connector-curvature="0" />
  <path
     style="fill:none;stroke:#000000;stroke-width:2.5;stroke-miterlimit:4;stroke-dasharray:none"
     d="m 210.27136,2267.2733 14.9,0 -7.5,0 0,7.5 0,-14.9 0,7.4 -7.4,-7.4 14.9,14.9 -7.5,-7.5 7.5,-7.4 -14.9,14.9"
     id="path4763"
     inkscape:connector-curvature="0" />
  <path
     style="fill:none;stroke:#000000;stroke-width:2.5;stroke-miterlimit:4;stroke-dasharray:none"
     d="m 210.97136,2267.2733 15,0 -7.5,0 0,7.5 0,-14.9 0,7.4 -7.5,-7.4 15,14.9 -7.5,-7.5 7.5,-7.4 -15,14.9"
     id="path4761"
     inkscape:connector-curvature="0" />
  <path
     style="fill:none;stroke:#000000;stroke-width:2.5;stroke-miterlimit:4;stroke-dasharray:none"
     d="m 211.77136,2267.2733 14.9,0 -7.5,0 0,7.5 0,-14.9 0,7.4 -7.4,-7.4 14.9,14.9 -7.5,-7.5 7.5,-7.4 -14.9,14.9"
     id="path4759"
     inkscape:connector-curvature="0" />
  <path
     style="fill:none;stroke:#000000;stroke-width:2.5;stroke-miterlimit:4;stroke-dasharray:none"
     d="m 212.47136,2267.2733 15,0 -7.5,0 0,7.5 0,-14.9 0,7.4 -7.5,-7.4 15,14.9 -7.5,-7.5 7.5,-7.4 -15,14.9"
     id="path4757"
     inkscape:connector-curvature="0" />
  <path
     style="fill:none;stroke:#000000;stroke-width:2.5;stroke-miterlimit:4;stroke-dasharray:none"
     d="m 213.27136,2267.2733 14.9,0 -7.5,0 0,7.5 0,-14.9 0,7.4 -7.4,-7.4 14.9,14.9 -7.5,-7.5 7.5,-7.4 -14.9,14.9"
     id="path4755"
     inkscape:connector-curvature="0" />
  <path
     style="fill:none;stroke:#000000;stroke-width:2.5;stroke-miterlimit:4;stroke-dasharray:none"
     d="m 213.97136,2267.2733 15,0 -7.5,0 0,7.5 0,-14.9 0,7.4 -7.5,-7.4 15,14.9 -7.5,-7.5 7.5,-7.4 -15,14.9"
     id="path4753"
     inkscape:connector-curvature="0" />
  <path
     style="fill:none;stroke:#000000;stroke-width:2.5;stroke-miterlimit:4;stroke-dasharray:none"
     d="m 214.67136,2267.2733 15,0 -7.5,0 0,7.5 0,-14.9 0,7.4 -7.5,-7.4 15,14.9 -7.5,-7.5 7.5,-7.4 -15,14.9"
     id="path4751"
     inkscape:connector-curvature="0" />
  <path
     style="fill:none;stroke:#000000;stroke-width:2.5;stroke-miterlimit:4;stroke-dasharray:none"
     d="m 215.47136,2267.2733 14.9,0 -7.4,0 0,7.5 0,-14.9 0,7.4 -7.5,-7.4 14.9,14.9 -7.4,-7.5 7.4,-7.4 -14.9,14.9"
     id="path4749"
     inkscape:connector-curvature="0" />
  <path
     style="fill:none;stroke:#000000;stroke-width:2.5;stroke-miterlimit:4;stroke-dasharray:none"
     d="m 216.17136,2267.2733 15,0 -7.5,0 0,7.5 0,-14.9 0,7.4 -7.5,-7.4 15,14.9 -7.5,-7.5 7.5,-7.4 -15,14.9"
     id="path4747"
     inkscape:connector-curvature="0" />
  <path
     style="fill:none;stroke:#000000;stroke-width:2.5;stroke-miterlimit:4;stroke-dasharray:none"
     d="m 216.97136,2267.2733 14.9,0 -7.4,0 0,7.5 0,-14.9 0,7.4 -7.5,-7.4 14.9,14.9 -7.4,-7.5 7.4,-7.4 -14.9,14.9"
     id="path4745"
     inkscape:connector-curvature="0" />
  <path
     style="fill:none;stroke:#000000;stroke-width:2.5;stroke-miterlimit:4;stroke-dasharray:none"
     d="m 217.67136,2267.2733 15,0 -7.5,0 0,7.5 0,-14.9 0,7.4 -7.5,-7.4 15,14.9 -7.5,-7.5 7.5,-7.4 -15,14.9"
     id="path4743"
     inkscape:connector-curvature="0" />
  <path
     style="fill:none;stroke:#000000;stroke-width:2.5;stroke-miterlimit:4;stroke-dasharray:none"
     d="m 218.47136,2267.2733 14.9,0 -7.4,0 0,7.5 0,-14.9 0,7.4 -7.5,-7.4 14.9,14.9 -7.4,-7.5 7.4,-7.4 -14.9,14.9"
     id="path4741"
     inkscape:connector-curvature="0" />
  <path
     style="fill:none;stroke:#000000;stroke-width:2.5;stroke-miterlimit:4;stroke-dasharray:none"
     d="m 219.17136,2267.2733 15,0 -7.5,0 0,7.5 0,-14.9 0,7.4 -7.5,-7.4 15,14.9 -7.5,-7.5 7.5,-7.4 -15,14.9"
     id="path4739"
     inkscape:connector-curvature="0" />
  <path
     style="fill:none;stroke:#000000;stroke-width:2.5;stroke-miterlimit:4;stroke-dasharray:none"
     d="m 219.97136,2267.2733 14.9,0 -7.4,0 0,7.5 0,-14.9 0,7.4 -7.5,-7.4 14.9,14.9 -7.4,-7.5 7.4,-7.4 -14.9,14.9"
     id="path4737"
     inkscape:connector-curvature="0" />
  <path
     style="fill:none;stroke:#000000;stroke-width:2.5;stroke-miterlimit:4;stroke-dasharray:none"
     d="m 220.67136,2267.2733 15,0 -7.5,0 0,7.5 0,-14.9 0,7.4 -7.5,-7.4 15,14.9 -7.5,-7.5 7.5,-7.4 -15,14.9"
     id="path4735"
     inkscape:connector-curvature="0" />
  <path
     style="fill:none;stroke:#000000;stroke-width:2.5;stroke-miterlimit:4;stroke-dasharray:none"
     d="m 221.47136,2267.2733 14.9,0 -7.4,0 0,7.5 0,-14.9 0,7.4 -7.5,-7.4 14.9,14.9 -7.4,-7.5 7.4,-7.4 -14.9,14.9"
     id="path4733"
     inkscape:connector-curvature="0" />
  <path
     style="fill:none;stroke:#000000;stroke-width:2.5;stroke-miterlimit:4;stroke-dasharray:none"
     d="m 222.17136,2267.2733 15,0 -7.5,0 0,7.5 0,-14.9 0,7.4 -7.5,-7.4 15,14.9 -7.5,-7.5 7.5,-7.4 -15,14.9"
     id="path4731"
     inkscape:connector-curvature="0" />
  <path
     style="fill:none;stroke:#000000;stroke-width:2.5;stroke-miterlimit:4;stroke-dasharray:none"
     d="m 222.97136,2267.2733 14.9,0 -7.5,0 0,7.5 0,-14.9 0,7.4 -7.4,-7.4 14.9,14.9 -7.5,-7.5 7.5,-7.4 -14.9,14.9"
     id="path4729"
     inkscape:connector-curvature="0" />
  <path
     style="fill:none;stroke:#000000;stroke-width:2.5;stroke-miterlimit:4;stroke-dasharray:none"
     d="m 207.97136,2267.2733 15,0 -7.5,0 0,7.5 0,-14.9 0,7.4 -7.5,-7.4 15,14.9 -7.5,-7.5 7.5,-7.4 -15,14.9"
     id="path4727"
     inkscape:connector-curvature="0" />
  <path
     style="fill:none;stroke:#000000;stroke-width:2.5;stroke-miterlimit:4;stroke-dasharray:none"
     d="m 211.77136,2267.2733 14.9,0 -7.5,0 0,7.5 0,-14.9 0,7.4 -7.4,-7.4 14.9,14.9 -7.5,-7.5 7.5,-7.4 -14.9,14.9"
     id="path4725"
     inkscape:connector-curvature="0" />
  <path
     style="fill:none;stroke:#000000;stroke-width:2.5;stroke-miterlimit:4;stroke-dasharray:none"
     d="m 215.47136,2267.2733 14.9,0 -7.4,0 0,7.5 0,-14.9 0,7.4 -7.5,-7.4 14.9,14.9 -7.4,-7.5 7.4,-7.4 -14.9,14.9"
     id="path4723"
     inkscape:connector-curvature="0" />
  <path
     style="fill:none;stroke:#000000;stroke-width:2.5;stroke-miterlimit:4;stroke-dasharray:none"
     d="m 219.17136,2267.2733 15,0 -7.5,0 0,7.5 0,-14.9 0,7.4 -7.5,-7.4 15,14.9 -7.5,-7.5 7.5,-7.4 -15,14.9"
     id="path4721"
     inkscape:connector-curvature="0" />
  <path
     style="fill:none;stroke:#000000;stroke-width:2.5;stroke-miterlimit:4;stroke-dasharray:none"
     d="m 222.97136,2267.2733 14.9,0 -7.5,0 0,7.5 0,-14.9 0,7.4 -7.4,-7.4 14.9,14.9 -7.5,-7.5 7.5,-7.4 -14.9,14.9"
     id="path4719"
     inkscape:connector-curvature="0" />
  <path
     style="fill:none;stroke:#000000;stroke-width:2.5;stroke-miterlimit:4;stroke-dasharray:none"
     d="m 226.67136,2267.2733 15,0 -7.5,0 0,7.5 0,-14.9 0,7.4 -7.5,-7.4 15,14.9 -7.5,-7.5 7.5,-7.4 -15,14.9"
     id="path4717"
     inkscape:connector-curvature="0" />
  <path
     style="fill:none;stroke:#000000;stroke-width:2.5;stroke-miterlimit:4;stroke-dasharray:none"
     d="m 230.37136,2267.2733 15,0 -7.5,0 0,7.5 0,-14.9 0,7.4 -7.5,-7.4 15,14.9 -7.5,-7.5 7.5,-7.4 -15,14.9"
     id="path4715"
     inkscape:connector-curvature="0" />
  <path
     style="fill:none;stroke:#000000;stroke-width:2.5;stroke-miterlimit:4;stroke-dasharray:none"
     d="m 234.17136,2267.2733 14.9,0 -7.4,0 0,7.5 0,-14.9 0,7.4 -7.5,-7.4 14.9,14.9 -7.4,-7.5 7.4,-7.4 -14.9,14.9"
     id="path4713"
     inkscape:connector-curvature="0" />
  <path
     style="fill:none;stroke:#000000;stroke-width:2.5;stroke-miterlimit:4;stroke-dasharray:none"
     d="m 237.87136,2267.2733 15,0 -7.5,0 0,7.5 0,-14.9 0,7.4 -7.5,-7.4 15,14.9 -7.5,-7.5 7.5,-7.4 -15,14.9"
     id="path74"
     inkscape:connector-curvature="0" />
  <g
     id="layer1"
     inkscape:label="Layer 1"
     transform="matrix(2.5,0,0,2.5,-6.322264,-0.9626542)">
    <g
       id="g4940"
       transform="matrix(0.40000001,0,0,0.40000001,1.7218354,-81.033728)">
      <text
         xml:space="preserve"
         style="color:#000000;font-style:normal;font-variant:normal;font-weight:normal;font-stretch:normal;font-size:37.5px;line-height:100%;font-family:Arial;-inkscape-font-specification:Arial;text-indent:0;text-align:start;text-decoration:none;text-decoration-line:none;letter-spacing:0px;word-spacing:0px;text-transform:none;direction:ltr;block-progression:tb;writing-mode:lr-tb;text-anchor:start;display:inline;overflow:visible;visibility:visible;fill:#000000;fill-opacity:1;fill-rule:nonzero;stroke:none;stroke-width:1px;stroke-linecap:butt;stroke-linejoin:miter;stroke-opacity:1;marker:none;enable-background:accumulate"
         x="832.57562"
         y="1861.0986"
         id="text4830-8"
         sodipodi:linespacing="100%"><tspan
           sodipodi:role="line"
           id="tspan4832-7"
           x="832.57562"
           y="1861.0986">test</tspan></text>
      <text
         xml:space="preserve"
         style="color:#000000;font-style:normal;font-variant:normal;font-weight:normal;font-stretch:normal;font-size:37.5px;line-height:100%;font-family:Arial;-inkscape-font-specification:Arial;text-indent:0;text-align:start;text-decoration:none;text-decoration-line:none;letter-spacing:0px;word-spacing:0px;text-transform:none;direction:ltr;block-progression:tb;writing-mode:lr-tb;text-anchor:start;display:inline;overflow:visible;visibility:visible;fill:#000000;fill-opacity:1;fill-rule:nonzero;stroke:none;stroke-width:1px;stroke-linecap:butt;stroke-linejoin:miter;stroke-opacity:1;marker:none;enable-background:accumulate"
         x="832.57562"
         y="1818.9769"
         id="text6242-1"
         sodipodi:linespacing="100%"><tspan
           sodipodi:role="line"
           id="tspan6244-7"
           x="832.57562"
           y="1818.9769">train</tspan></text>
      <path
         style="opacity:1;fill:none;fill-opacity:1;fill-rule:nonzero;stroke:#000000;stroke-width:2.5;stroke-linecap:butt;stroke-linejoin:miter;stroke-miterlimit:4;stroke-dasharray:none;stroke-dashoffset:0;stroke-opacity:1"
         d="m 819.13256,1810.0149 -34.95205,0"
         id="path4884"
         inkscape:connector-curvature="0" />
      <path
         inkscape:connector-curvature="0"
         id="path4886"
         d="m 819.13256,1847.6556 -34.95205,0"
         style="opacity:1;fill:none;fill-opacity:1;fill-rule:nonzero;stroke:#000000;stroke-width:2.5;stroke-linecap:butt;stroke-linejoin:miter;stroke-miterlimit:4;stroke-dasharray:7.49999989, 7.49999989;stroke-dashoffset:0;stroke-opacity:1" />
    </g>
  </g>
</svg>
