<?xml version="1.0" encoding="ISO-8859-1" standalone="yes"?>
<svg width="315.054" height="333.518">
  <defs> 
    <marker id="ArrowEnd" viewBox="0 0 10 10" refX="0" refY="5" 
     markerUnits="strokeWidth" 
     markerWidth="4" 
     markerHeight="3" 
     orient="auto"> 
        <path d="M 0 0 L 10 5 L 0 10 z" /> 
    </marker>
    <marker id="ArrowStart" viewBox="0 0 10 10" refX="10" refY="5" 
     markerUnits="strokeWidth" 
     markerWidth="4" 
     markerHeight="3" 
     orient="auto"> 
        <path d="M 10 0 L 0 5 L 10 10 z" /> 
    </marker> </defs>
<g>
<path style="stroke:#000000; stroke-width:1.59941; fill:none" d="M 176.32 119.542L 97.1523 50.7683L 176.32 119.542z"/>
<path style="stroke:none; fill-rule:evenodd; fill:#000000" d="M 165.921 120.343L 175.515 109.147L 176.312 119.542"/>
<path style="stroke:#000000; stroke-width:1.59941; fill:none" d="M 165.921 120.343L 175.515 109.147L 176.312 119.542L 165.921 120.343z"/>
<path style="stroke:#000000; stroke-width:1.59941; fill:none" d="M 171.519 127.538L 147.531 144.331L 171.519 127.538z"/>
<path style="stroke:none; fill-rule:evenodd; fill:#000000" d="M 169.921 137.136L 161.925 125.94L 171.519 127.538"/>
<path style="stroke:#000000; stroke-width:1.59941; fill:none" d="M 169.921 137.136L 161.925 125.94L 171.519 127.538L 169.921 137.136z"/>
<path style="stroke:#000000; stroke-width:1.59941; fill:none" d="M 188.316 50.7653L 115.546 141.128L 188.316 50.7653z"/>
<path style="stroke:none; fill-rule:evenodd; fill:#000000" d="M 189.113 60.3623L 178.718 51.5653L 188.312 50.7683"/>
<path style="stroke:#000000; stroke-width:1.59941; fill:none" d="M 189.113 60.3623L 178.718 51.5653L 188.312 50.7683L 189.113 60.3623z"/>
<path style="stroke:#000000; stroke-width:1.59941; fill:none" d="M 229.898 183.518L 205.91 274.682L 229.898 183.518z"/>
<path style="stroke:none; fill-rule:evenodd; fill:#000000" d="M 234.699 192.315L 221.105 188.319L 229.898 183.522"/>
<path style="stroke:#000000; stroke-width:1.59941; fill:none" d="M 234.699 192.315L 221.105 188.319L 229.898 183.522L 234.699 192.315z"/>
<path style="stroke:#000000; stroke-width:1.59941; fill:none" d="M 185.913 274.682L 214.699 183.518L 185.913 274.682z"/>
<path style="stroke:none; fill-rule:evenodd; fill:#000000" d="M 181.917 265.886L 194.71 269.882L 185.913 274.679"/>
<path style="stroke:#000000; stroke-width:1.59941; fill:none" d="M 181.917 265.886L 194.71 269.882L 185.913 274.679L 181.917 265.886z"/>
<path style="stroke:#000000; stroke-width:1.59941; fill:none" d="M 143.531 22.7762L 159.523 22.7762L 153.925 36.3703L 137.933 36.3703"/>
<path style="stroke:none; fill-rule:evenodd; fill:#000000" d="M 145.128 29.1753L 145.128 43.5693L 137.933 36.3743"/>
<path style="stroke:#000000; stroke-width:1.59941; fill:none" d="M 145.128 29.1753L 145.128 43.5693L 137.933 36.3743L 145.128 29.1753z"/>
<path style="stroke:#000000; stroke-width:1.59941; fill:none" d="M 189.913 36.3743L 136.335 41.1713L 189.913 36.3743z"/>
<path style="stroke:none; fill-rule:evenodd; fill:#000000" d="M 183.515 44.3703L 182.718 29.9753L 189.913 36.3703"/>
<path style="stroke:#000000; stroke-width:1.59941; fill:none" d="M 183.515 44.3703L 182.718 29.9753L 189.913 36.3703L 183.515 44.3703z"/>
<path style="stroke:#000000; stroke-width:1.59941; fill:none" d="M 134.734 49.9683L 191.511 45.1713L 134.734 49.9683z"/>
<path style="stroke:none; fill-rule:evenodd; fill:#000000" d="M 141.132 41.9723L 142.73 56.3663L 134.734 49.9723"/>
<path style="stroke:#000000; stroke-width:1.59941; fill:none" d="M 141.132 41.9723L 142.73 56.3663L 134.734 49.9723L 141.132 41.9723z"/>
<path style="stroke:#000000; stroke-width:1.59941; fill:none" d="M 67.5583 50.7653L 103.542 141.128L 67.5583 50.7653z"/>
<path style="stroke:none; fill-rule:evenodd; fill:#000000" d="M 77.1563 54.7653L 63.5623 59.5613L 67.5583 50.7653"/>
<path style="stroke:#000000; stroke-width:1.59941; fill:none" d="M 77.1563 54.7653L 63.5623 59.5613L 67.5583 50.7653L 77.1563 54.7653z"/>
<path style="stroke:#000000; stroke-width:1.59941; fill:none" d="M 63.5583 141.132L 37.9683 50.7683L 63.5583 141.132z"/>
<path style="stroke:none; fill-rule:evenodd; fill:#000000" d="M 54.7653 136.335L 68.3593 133.139L 63.5623 141.136"/>
<path style="stroke:#000000; stroke-width:1.59941; fill:none" d="M 54.7653 136.335L 68.3593 133.139L 63.5623 141.136L 54.7653 136.335z"/>
<path style="stroke:#000000; stroke-width:1.59941; fill:none" d="M 70.7573 183.518L 86.7493 274.682L 70.7573 183.518z"/>
<path style="stroke:none; fill-rule:evenodd; fill:#000000" d="M 78.7533 189.116L 65.1603 191.515L 70.7573 183.518"/>
<path style="stroke:#000000; stroke-width:1.59941; fill:none" d="M 78.7533 189.116L 65.1603 191.515L 70.7573 183.518L 78.7533 189.116z"/>
<path style="stroke:none; fill-rule:evenodd; fill:#848584" d="M 21.9763 281.081L 37.9683 281.081L 24.3743 316.265L 8.38226 316.265"/>
<path style="stroke:#848584; stroke-width:1.59941; fill:none" d="M 21.9763 281.081L 37.9683 281.081L 24.3743 316.265L 8.38226 316.265L 21.9763 281.081z"/>
<path style="stroke:#000000; stroke-width:1.59941; fill:none" d="M 21.9763 281.081L 37.9683 281.081L 24.3743 316.265L 8.38226 316.265L 21.9763 281.081z"/>
<path style="stroke:none; fill-rule:evenodd; fill:#848584" d="M 39.5703 281.081L 55.5623 281.081L 42.7693 316.265L 26.7773 316.265"/>
<path style="stroke:#848584; stroke-width:1.59941; fill:none" d="M 39.5703 281.081L 55.5623 281.081L 42.7693 316.265L 26.7773 316.265L 39.5703 281.081z"/>
<path style="stroke:#000000; stroke-width:1.59941; fill:none" d="M 39.5703 281.081L 55.5623 281.081L 42.7693 316.265L 26.7773 316.265L 39.5703 281.081z"/>
<path style="stroke:none; fill-rule:evenodd; fill:#ffff00" d="M 57.1633 281.081L 73.1563 281.081L 60.3633 316.265L 44.3703 316.265"/>
<path style="stroke:#ffff00; stroke-width:1.59941; fill:none" d="M 57.1633 281.081L 73.1563 281.081L 60.3633 316.265L 44.3703 316.265L 57.1633 281.081z"/>
<path style="stroke:#000000; stroke-width:1.59941; fill:none" d="M 57.1633 281.081L 73.1563 281.081L 60.3633 316.265L 44.3703 316.265L 57.1633 281.081z"/>
<path style="stroke:none; fill-rule:evenodd; fill:#848584" d="M 75.5543 281.081L 91.5463 281.081L 77.9523 316.265L 61.9603 316.265"/>
<path style="stroke:#848584; stroke-width:1.59941; fill:none" d="M 75.5543 281.081L 91.5463 281.081L 77.9523 316.265L 61.9603 316.265L 75.5543 281.081z"/>
<path style="stroke:#000000; stroke-width:1.59941; fill:none" d="M 75.5543 281.081L 91.5463 281.081L 77.9523 316.265L 61.9603 316.265L 75.5543 281.081z"/>
<path style="stroke:none; fill-rule:evenodd; fill:#848584" d="M 93.1483 281.081L 109.14 281.081L 95.5463 316.265L 79.5543 316.265"/>
<path style="stroke:#848584; stroke-width:1.59941; fill:none" d="M 93.1483 281.081L 109.14 281.081L 95.5463 316.265L 79.5543 316.265L 93.1483 281.081z"/>
<path style="stroke:#000000; stroke-width:1.59941; fill:none" d="M 93.1483 281.081L 109.14 281.081L 95.5463 316.265L 79.5543 316.265L 93.1483 281.081z"/>
<path style="stroke:none; fill-rule:evenodd; fill:#848584" d="M 110.742 281.081L 126.734 281.081L 113.14 316.265L 97.1483 316.265"/>
<path style="stroke:#848584; stroke-width:1.59941; fill:none" d="M 110.742 281.081L 126.734 281.081L 113.14 316.265L 97.1483 316.265L 110.742 281.081z"/>
<path style="stroke:#000000; stroke-width:1.59941; fill:none" d="M 110.742 281.081L 126.734 281.081L 113.14 316.265L 97.1483 316.265L 110.742 281.081z"/>
<path style="stroke:none; fill-rule:evenodd; fill:#848584" d="M 128.335 281.081L 144.328 281.081L 131.535 316.265L 115.542 316.265"/>
<path style="stroke:#848584; stroke-width:1.59941; fill:none" d="M 128.335 281.081L 144.328 281.081L 131.535 316.265L 115.542 316.265L 128.335 281.081z"/>
<path style="stroke:#000000; stroke-width:1.59941; fill:none" d="M 128.335 281.081L 144.328 281.081L 131.535 316.265L 115.542 316.265L 128.335 281.081z"/>
<path style="stroke:none; fill-rule:evenodd; fill:#000000" d="M 29.2383 286.667C 29.2263 284.589 27.8283 283.382 25.4333 283.382C 23.1563 283.382 21.7423 284.569 21.7423 286.487C 21.7423 287.776 22.4173 288.589 23.8003 288.952L 26.4063 289.647C 27.7303 289.995 28.3353 290.53 28.3353 291.358C 28.3353 291.921 28.0353 292.503 27.5893 292.823C 27.1713 293.112 26.5113 293.272 25.6633 293.272C 24.5273 293.272 23.7533 292.995 23.2453 292.378C 22.8593 291.909 22.6873 291.397 22.6443 290.737L 21.4453 290.737C 21.4563 291.69 21.6443 292.319 22.0583 292.889C 22.7733 293.858 23.9763 294.37 25.5623 294.37C 26.8043 294.37 27.8203 294.085 28.4953 293.565C 29.1953 293.003 29.6403 292.065 29.6403 291.159C 29.6403 289.862 28.8353 288.909 27.4103 288.518L 24.7733 287.815C 23.5073 287.472 23.0463 287.065 23.0463 286.261C 23.0463 285.194 23.9883 284.487 25.4063 284.487C 27.0853 284.487 28.0273 285.268 28.0423 286.671L 29.2383 286.667z"/>
<path style="stroke:none; fill-rule:evenodd; fill:#000000" d="M 39.7383 294.077L 41.1363 294.077L 41.1363 283.577L 39.7383 283.577L 39.7383 294.077z"/>
<path style="stroke:none; fill-rule:evenodd; fill:#000000" d="M 58.6403 289.577L 62.1053 289.577C 63.3003 289.577 63.8353 290.147 63.8353 291.436L 63.8353 292.366C 63.8353 293.011 63.9453 293.639 64.1283 294.069L 65.7063 294.069L 65.7063 293.741C 65.1713 293.397 65.0663 293.022 65.0353 291.628C 65.0233 289.901 64.7573 289.386 63.6523 288.893C 64.8513 288.319 65.3353 287.585 65.3353 286.389C 65.3353 284.577 64.2023 283.581 62.1563 283.581L 57.3433 283.581L 57.3433 294.081L 58.6403 294.081L 58.6403 289.577zM 58.6173 288.378L 58.6173 284.768L 61.8553 284.768C 62.6013 284.768 63.0353 284.882 63.3633 285.171C 63.7223 285.472 63.9103 285.944 63.9103 286.581C 63.9103 287.815 63.2773 288.378 61.8553 288.378L 58.6173 288.378z"/>
<path style="stroke:none; fill-rule:evenodd; fill:#000000" d="M 81.0623 290.878L 82.1403 294.077L 83.6363 294.077L 79.9523 283.577L 78.2263 283.577L 74.4843 294.077L 75.9063 294.077L 77.0113 290.878L 81.0623 290.878zM 80.6873 289.78L 77.3513 289.78L 79.0783 285.026L 80.6873 289.78z"/>
<path style="stroke:none; fill-rule:evenodd; fill:#000000" d="M 93.0383 294.077L 97.6913 294.077C 98.6673 294.077 99.3863 293.807 99.9413 293.198C 100.449 292.651 100.734 291.905 100.734 291.085C 100.734 289.819 100.179 289.057 98.8903 288.538C 99.8313 288.093 100.335 287.315 100.335 286.249C 100.335 285.487 100.054 284.811 99.5113 284.319C 98.9723 283.815 98.2573 283.585 97.2613 283.585L 93.0423 283.585L 93.0383 294.077zM 94.3393 288.179L 94.3393 284.679L 96.9333 284.679C 97.6833 284.679 98.1013 284.784 98.4603 285.069C 98.8353 285.37 99.0353 285.823 99.0353 286.425C 99.0353 287.011 98.8353 287.479 98.4603 287.78C 98.1013 288.065 97.6833 288.171 96.9333 288.171L 94.3393 288.179zM 94.3393 292.979L 94.3393 289.28L 97.5703 289.28C 98.2103 289.28 98.6363 289.44 98.9493 289.796C 99.2613 290.132 99.4333 290.604 99.4333 291.136C 99.4333 291.651 99.2613 292.12 98.9493 292.46C 98.6363 292.811 98.2103 292.975 97.5703 292.975L 94.3393 292.979z"/>
<path style="stroke:none; fill-rule:evenodd; fill:#000000" d="M 118.968 286.839C 118.55 284.515 117.23 283.382 114.929 283.382C 113.523 283.382 112.386 283.827 111.609 284.69C 110.663 285.725 110.144 287.222 110.144 288.921C 110.144 290.647 110.675 292.128 111.667 293.151C 112.472 293.983 113.507 294.374 114.87 294.374C 117.429 294.374 118.867 293.007 119.183 290.245L 117.796 290.245C 117.683 290.975 117.538 291.472 117.32 291.897C 116.886 292.772 115.992 293.272 114.867 293.272C 112.773 293.272 111.445 291.573 111.445 288.905C 111.445 286.163 112.714 284.479 114.753 284.479C 115.605 284.479 116.398 284.749 116.831 285.175C 117.218 285.55 117.437 286.018 117.597 286.835L 118.968 286.839z"/>
<path style="stroke:none; fill-rule:evenodd; fill:#000000" d="M 128.339 294.077L 132.37 294.077C 135.011 294.077 136.632 292.093 136.632 288.823C 136.632 285.569 135.027 283.581 132.37 283.581L 128.339 283.581L 128.339 294.077zM 129.64 292.979L 129.64 284.682L 132.14 284.682C 134.23 284.682 135.339 286.104 135.339 288.839C 135.339 291.538 134.234 292.979 132.14 292.979L 129.64 292.979z"/>
<path style="stroke:#000000; stroke-width:1.59941; fill:none" d="M 24.3743 274.682L 149.128 274.682L 133.136 316.265L 8.38226 316.265L 24.3743 274.682z"/>
<path style="stroke:none; fill-rule:evenodd; fill:#000000" d="M 11.5383 329.378L 12.9373 329.378L 12.9373 318.878L 11.5383 318.878L 11.5383 329.378z"/>
<path style="stroke:none; fill-rule:evenodd; fill:#000000" d="M 15.1403 321.796L 15.1403 329.374L 16.3393 329.374L 16.3393 325.222C 16.3393 323.686 17.1443 322.679 18.3823 322.679C 19.3313 322.679 19.9373 323.253 19.9373 324.159L 19.9373 329.378L 21.1363 329.378L 21.1363 323.651C 21.1363 322.393 20.2023 321.581 18.7453 321.581C 17.6243 321.581 16.9023 322.015 16.2383 323.069L 16.2383 321.8L 15.1403 321.796z"/>
<path style="stroke:none; fill-rule:evenodd; fill:#000000" d="M 22.9373 332.518L 24.1363 332.518L 24.1363 328.581C 24.7653 329.343 25.4643 329.679 26.4333 329.679C 28.3593 329.679 29.6323 328.108 29.6323 325.702C 29.6323 323.167 28.4063 321.581 26.4213 321.581C 25.4103 321.581 24.5933 322.042 24.0383 322.936L 24.0383 321.796L 22.9413 321.796L 22.9373 332.518zM 26.2453 322.679C 27.5703 322.679 28.4373 323.854 28.4373 325.671C 28.4373 327.397 27.5583 328.573 26.2453 328.573C 24.9763 328.573 24.1403 327.413 24.1403 325.628C 24.1403 323.843 24.9763 322.679 26.2453 322.679z"/>
<path style="stroke:none; fill-rule:evenodd; fill:#000000" d="M 37.0383 329.35L 37.0383 321.882L 35.8393 321.882L 35.8393 326.077C 35.8393 327.589 35.0383 328.577 33.7883 328.577C 32.8433 328.577 32.2423 328.015 32.2423 327.124L 32.2423 321.882L 31.0423 321.882L 31.0423 327.639C 31.0423 328.878 31.9723 329.675 33.4333 329.675C 34.5353 329.675 35.2383 329.292 35.9373 328.307L 35.9373 329.347L 37.0383 329.35z"/>
<path style="stroke:none; fill-rule:evenodd; fill:#000000" d="M 41.8393 321.878L 40.5423 321.878L 40.5423 319.765L 39.3433 319.765L 39.3433 321.878L 38.3433 321.878L 38.3433 322.878L 39.3433 322.878L 39.3433 328.495C 39.3433 329.245 39.8743 329.671 40.8353 329.671C 41.1283 329.671 41.4253 329.643 41.8393 329.573L 41.8393 328.597C 41.6753 328.581 41.4803 328.577 41.2383 328.577C 40.6953 328.577 40.5463 328.44 40.5463 327.921L 40.5463 322.886L 41.8433 322.886L 41.8393 321.878z"/>
<path style="stroke:#000000; stroke-width:1.59941; fill:none" d="M 24.3743 274.682L 149.128 274.682L 133.136 316.265L 8.38226 316.265L 24.3743 274.682z"/>
<path style="stroke:none; fill-rule:evenodd; fill:#ffff00" d="M 21.9763 147.53L 37.9683 147.53L 24.3743 183.515L 8.38226 183.515"/>
<path style="stroke:#ffff00; stroke-width:1.59941; fill:none" d="M 21.9763 147.53L 37.9683 147.53L 24.3743 183.515L 8.38226 183.515L 21.9763 147.53z"/>
<path style="stroke:#000000; stroke-width:1.59941; fill:none" d="M 21.9763 147.53L 37.9683 147.53L 24.3743 183.515L 8.38226 183.515L 21.9763 147.53z"/>
<path style="stroke:none; fill-rule:evenodd; fill:#000000" d="M 29.2383 151.065C 29.2263 148.987 27.8283 147.78 25.4333 147.78C 23.1563 147.78 21.7423 148.968 21.7423 150.886C 21.7423 152.175 22.4173 152.987 23.8003 153.35L 26.4063 154.046C 27.7303 154.393 28.3353 154.929 28.3353 155.757C 28.3353 156.319 28.0353 156.901 27.5893 157.222C 27.1713 157.511 26.5113 157.671 25.6633 157.671C 24.5273 157.671 23.7533 157.393 23.2453 156.776C 22.8593 156.307 22.6873 155.796 22.6443 155.136L 21.4453 155.136C 21.4563 156.089 21.6443 156.718 22.0583 157.288C 22.7733 158.257 23.9763 158.768 25.5623 158.768C 26.8043 158.768 27.8203 158.483 28.4953 157.964C 29.1953 157.401 29.6403 156.464 29.6403 155.557C 29.6403 154.261 28.8353 153.307 27.4103 152.917L 24.7733 152.214C 23.5073 151.87 23.0463 151.464 23.0463 150.659C 23.0463 149.593 23.9883 148.886 25.4063 148.886C 27.0853 148.886 28.0273 149.667 28.0423 151.069L 29.2383 151.065z"/>
<path style="stroke:none; fill-rule:evenodd; fill:#848584" d="M 39.5703 147.53L 55.5623 147.53L 42.7693 183.515L 26.7773 183.515"/>
<path style="stroke:#848584; stroke-width:1.59941; fill:none" d="M 39.5703 147.53L 55.5623 147.53L 42.7693 183.515L 26.7773 183.515L 39.5703 147.53z"/>
<path style="stroke:#000000; stroke-width:1.59941; fill:none" d="M 39.5703 147.53L 55.5623 147.53L 42.7693 183.515L 26.7773 183.515L 39.5703 147.53z"/>
<path style="stroke:none; fill-rule:evenodd; fill:#000000" d="M 39.7383 158.479L 41.1363 158.479L 41.1363 147.979L 39.7383 147.979L 39.7383 158.479z"/>
<path style="stroke:none; fill-rule:evenodd; fill:#848584" d="M 57.1633 147.53L 73.1563 147.53L 60.3633 183.515L 44.3703 183.515"/>
<path style="stroke:#848584; stroke-width:1.59941; fill:none" d="M 57.1633 147.53L 73.1563 147.53L 60.3633 183.515L 44.3703 183.515L 57.1633 147.53z"/>
<path style="stroke:#000000; stroke-width:1.59941; fill:none" d="M 57.1633 147.53L 73.1563 147.53L 60.3633 183.515L 44.3703 183.515L 57.1633 147.53z"/>
<path style="stroke:none; fill-rule:evenodd; fill:#000000" d="M 58.6403 153.979L 62.1053 153.979C 63.3003 153.979 63.8353 154.55 63.8353 155.839L 63.8353 156.768C 63.8353 157.413 63.9453 158.042 64.1283 158.472L 65.7063 158.472L 65.7063 158.143C 65.1713 157.8 65.0663 157.425 65.0353 156.03C 65.0233 154.304 64.7573 153.788 63.6523 153.296C 64.8513 152.722 65.3353 151.987 65.3353 150.792C 65.3353 148.979 64.2023 147.983 62.1563 147.983L 57.3433 147.983L 57.3433 158.483L 58.6403 158.483L 58.6403 153.979zM 58.6173 152.78L 58.6173 149.171L 61.8553 149.171C 62.6013 149.171 63.0353 149.284 63.3633 149.573C 63.7223 149.874 63.9103 150.347 63.9103 150.983C 63.9103 152.218 63.2773 152.78 61.8553 152.78L 58.6173 152.78z"/>
<path style="stroke:none; fill-rule:evenodd; fill:#848584" d="M 75.5543 147.53L 91.5463 147.53L 77.9523 183.515L 61.9603 183.515"/>
<path style="stroke:#848584; stroke-width:1.59941; fill:none" d="M 75.5543 147.53L 91.5463 147.53L 77.9523 183.515L 61.9603 183.515L 75.5543 147.53z"/>
<path style="stroke:#000000; stroke-width:1.59941; fill:none" d="M 75.5543 147.53L 91.5463 147.53L 77.9523 183.515L 61.9603 183.515L 75.5543 147.53z"/>
<path style="stroke:none; fill-rule:evenodd; fill:#000000" d="M 81.0623 155.28L 82.1403 158.479L 83.6363 158.479L 79.9523 147.979L 78.2263 147.979L 74.4843 158.479L 75.9063 158.479L 77.0113 155.28L 81.0623 155.28zM 80.6873 154.179L 77.3513 154.179L 79.0783 149.425L 80.6873 154.179z"/>
<path style="stroke:none; fill-rule:evenodd; fill:#848584" d="M 93.1483 147.53L 109.14 147.53L 95.5463 183.515L 79.5543 183.515"/>
<path style="stroke:#848584; stroke-width:1.59941; fill:none" d="M 93.1483 147.53L 109.14 147.53L 95.5463 183.515L 79.5543 183.515L 93.1483 147.53z"/>
<path style="stroke:#000000; stroke-width:1.59941; fill:none" d="M 93.1483 147.53L 109.14 147.53L 95.5463 183.515L 79.5543 183.515L 93.1483 147.53z"/>
<path style="stroke:none; fill-rule:evenodd; fill:#000000" d="M 93.0383 158.479L 97.6913 158.479C 98.6673 158.479 99.3863 158.21 99.9413 157.6C 100.449 157.054 100.734 156.307 100.734 155.487C 100.734 154.222 100.179 153.46 98.8903 152.94C 99.8313 152.495 100.335 151.718 100.335 150.651C 100.335 149.889 100.054 149.214 99.5113 148.722C 98.9723 148.218 98.2573 147.987 97.2613 147.987L 93.0423 147.987L 93.0383 158.479zM 94.3393 152.577L 94.3393 149.077L 96.9333 149.077C 97.6833 149.077 98.1013 149.182 98.4603 149.468C 98.8353 149.768 99.0353 150.222 99.0353 150.823C 99.0353 151.409 98.8353 151.878 98.4603 152.179C 98.1013 152.464 97.6833 152.569 96.9333 152.569L 94.3393 152.577zM 94.3393 157.378L 94.3393 153.679L 97.5703 153.679C 98.2103 153.679 98.6363 153.839 98.9493 154.194C 99.2613 154.53 99.4333 155.003 99.4333 155.534C 99.4333 156.05 99.2613 156.518 98.9493 156.858C 98.6363 157.21 98.2103 157.374 97.5703 157.374L 94.3393 157.378z"/>
<path style="stroke:none; fill-rule:evenodd; fill:#ffff00" d="M 110.742 147.53L 126.734 147.53L 113.14 183.515L 97.1483 183.515"/>
<path style="stroke:#ffff00; stroke-width:1.59941; fill:none" d="M 110.742 147.53L 126.734 147.53L 113.14 183.515L 97.1483 183.515L 110.742 147.53z"/>
<path style="stroke:#000000; stroke-width:1.59941; fill:none" d="M 110.742 147.53L 126.734 147.53L 113.14 183.515L 97.1483 183.515L 110.742 147.53z"/>
<path style="stroke:none; fill-rule:evenodd; fill:#000000" d="M 118.968 151.237C 118.55 148.913 117.23 147.78 114.929 147.78C 113.523 147.78 112.386 148.225 111.609 149.089C 110.663 150.124 110.144 151.62 110.144 153.319C 110.144 155.046 110.675 156.526 111.667 157.55C 112.472 158.382 113.507 158.772 114.87 158.772C 117.429 158.772 118.867 157.405 119.183 154.643L 117.796 154.643C 117.683 155.374 117.538 155.87 117.32 156.296C 116.886 157.171 115.992 157.671 114.867 157.671C 112.773 157.671 111.445 155.972 111.445 153.304C 111.445 150.561 112.714 148.878 114.753 148.878C 115.605 148.878 116.398 149.147 116.831 149.573C 117.218 149.948 117.437 150.417 117.597 151.233L 118.968 151.237z"/>
<path style="stroke:none; fill-rule:evenodd; fill:#848584" d="M 128.335 147.53L 144.328 147.53L 131.535 183.515L 115.542 183.515"/>
<path style="stroke:#848584; stroke-width:1.59941; fill:none" d="M 128.335 147.53L 144.328 147.53L 131.535 183.515L 115.542 183.515L 128.335 147.53z"/>
<path style="stroke:#000000; stroke-width:1.59941; fill:none" d="M 128.335 147.53L 144.328 147.53L 131.535 183.515L 115.542 183.515L 128.335 147.53z"/>
<path style="stroke:none; fill-rule:evenodd; fill:#000000" d="M 128.339 158.479L 132.37 158.479C 135.011 158.479 136.632 156.495 136.632 153.225C 136.632 149.972 135.027 147.983 132.37 147.983L 128.339 147.983L 128.339 158.479zM 129.64 157.378L 129.64 149.081L 132.14 149.081C 134.23 149.081 135.339 150.503 135.339 153.237C 135.339 155.936 134.234 157.378 132.14 157.378L 129.64 157.378z"/>
<path style="stroke:#000000; stroke-width:1.59941; fill:none" d="M 24.3743 141.132L 149.128 141.132L 133.136 183.515L 8.38226 183.515L 24.3743 141.132z"/>
<path style="stroke:none; fill-rule:evenodd; fill:#000000" d="M 19.1403 190.878L 19.1403 195.675L 20.4373 195.675L 20.4373 185.175L 19.1403 185.175L 19.1403 189.772L 13.6403 189.772L 13.6403 185.175L 12.3433 185.175L 12.3433 195.675L 13.6403 195.675L 13.6403 190.878L 19.1403 190.878z"/>
<path style="stroke:none; fill-rule:evenodd; fill:#000000" d="M 23.7383 188.179L 22.5383 188.179L 22.5383 195.679L 23.7383 195.679L 23.7383 188.179zM 23.7383 185.179L 22.5383 185.179L 22.5383 186.694L 23.7383 186.694L 23.7383 185.179z"/>
<path style="stroke:none; fill-rule:evenodd; fill:#000000" d="M 31.8393 185.179L 30.6403 185.179L 30.6403 189.085C 30.1443 188.296 29.3433 187.882 28.3473 187.882C 26.4133 187.882 25.1443 189.452 25.1443 191.858C 25.1443 194.409 26.3743 195.979 28.3743 195.979C 29.3943 195.979 30.1013 195.6 30.7423 194.686L 30.7423 195.679L 31.8393 195.679L 31.8393 185.179zM 28.5233 188.979C 29.8163 188.979 30.6363 190.139 30.6363 191.956C 30.6363 193.714 29.8043 194.874 28.5383 194.874C 27.2183 194.874 26.3393 193.698 26.3393 191.929C 26.3393 190.159 27.2143 188.979 28.5233 188.979z"/>
<path style="stroke:none; fill-rule:evenodd; fill:#000000" d="M 39.8393 185.179L 38.6403 185.179L 38.6403 189.085C 38.1443 188.296 37.3433 187.882 36.3473 187.882C 34.4133 187.882 33.1443 189.452 33.1443 191.858C 33.1443 194.409 34.3743 195.979 36.3743 195.979C 37.3943 195.979 38.1013 195.6 38.7423 194.686L 38.7423 195.679L 39.8393 195.679L 39.8393 185.179zM 36.5233 188.979C 37.8163 188.979 38.6363 190.139 38.6363 191.956C 38.6363 193.714 37.8043 194.874 36.5383 194.874C 35.2183 194.874 34.3393 193.698 34.3393 191.929C 34.3393 190.159 35.2143 188.979 36.5233 188.979z"/>
<path style="stroke:none; fill-rule:evenodd; fill:#000000" d="M 48.1403 192.28C 48.1403 191.128 48.0543 190.436 47.8393 189.874C 47.3513 188.636 46.2023 187.886 44.7923 187.886C 42.6953 187.886 41.3433 189.499 41.3433 191.975C 41.3433 194.452 42.6483 195.979 44.7533 195.979C 46.4723 195.979 47.6633 195.015 47.9643 193.393L 46.7493 193.393C 46.4173 194.37 45.7383 194.878 44.7693 194.878C 44.0033 194.878 43.3513 194.534 42.9493 193.897C 42.6633 193.468 42.5583 193.034 42.5463 192.28L 48.1403 192.28zM 42.5933 191.331C 42.6913 189.936 43.5423 189.03 44.7493 189.03C 45.9293 189.03 46.8353 190.007 46.8353 191.245C 46.8353 191.272 46.8353 191.3 46.8243 191.331L 42.5933 191.331z"/>
<path style="stroke:none; fill-rule:evenodd; fill:#000000" d="M 49.7383 188.097L 49.7383 195.675L 50.9373 195.675L 50.9373 191.522C 50.9373 189.987 51.7423 188.979 52.9803 188.979C 53.9293 188.979 54.5353 189.554 54.5353 190.46L 54.5353 195.679L 55.7343 195.679L 55.7343 189.952C 55.7343 188.694 54.8003 187.882 53.3433 187.882C 52.2223 187.882 51.4993 188.315 50.8353 189.37L 50.8353 188.1L 49.7383 188.097z"/>
<path style="stroke:#000000; stroke-width:1.59941; fill:none" d="M 24.3743 141.132L 149.128 141.132L 133.136 183.515L 8.38226 183.515L 24.3743 141.132z"/>
<path style="stroke:none; fill-rule:evenodd; fill:#ffff00" d="M 21.9763 14.7803L 37.9683 14.7803L 24.3743 50.7653L 8.38226 50.7653"/>
<path style="stroke:#ffff00; stroke-width:1.59941; fill:none" d="M 21.9763 14.7803L 37.9683 14.7803L 24.3743 50.7653L 8.38226 50.7653L 21.9763 14.7803z"/>
<path style="stroke:#000000; stroke-width:1.59941; fill:none" d="M 21.9763 14.7803L 37.9683 14.7803L 24.3743 50.7653L 8.38226 50.7653L 21.9763 14.7803z"/>
<path style="stroke:none; fill-rule:evenodd; fill:#848584" d="M 39.5703 14.7803L 55.5623 14.7803L 42.7693 50.7653L 26.7773 50.7653"/>
<path style="stroke:#848584; stroke-width:1.59941; fill:none" d="M 39.5703 14.7803L 55.5623 14.7803L 42.7693 50.7653L 26.7773 50.7653L 39.5703 14.7803z"/>
<path style="stroke:#000000; stroke-width:1.59941; fill:none" d="M 39.5703 14.7803L 55.5623 14.7803L 42.7693 50.7653L 26.7773 50.7653L 39.5703 14.7803z"/>
<path style="stroke:none; fill-rule:evenodd; fill:#848584" d="M 57.1633 14.7803L 73.1563 14.7803L 60.3633 50.7653L 44.3703 50.7653"/>
<path style="stroke:#848584; stroke-width:1.59941; fill:none" d="M 57.1633 14.7803L 73.1563 14.7803L 60.3633 50.7653L 44.3703 50.7653L 57.1633 14.7803z"/>
<path style="stroke:#000000; stroke-width:1.59941; fill:none" d="M 57.1633 14.7803L 73.1563 14.7803L 60.3633 50.7653L 44.3703 50.7653L 57.1633 14.7803z"/>
<path style="stroke:none; fill-rule:evenodd; fill:#848584" d="M 75.5543 14.7803L 91.5463 14.7803L 77.9523 50.7653L 61.9603 50.7653"/>
<path style="stroke:#848584; stroke-width:1.59941; fill:none" d="M 75.5543 14.7803L 91.5463 14.7803L 77.9523 50.7653L 61.9603 50.7653L 75.5543 14.7803z"/>
<path style="stroke:#000000; stroke-width:1.59941; fill:none" d="M 75.5543 14.7803L 91.5463 14.7803L 77.9523 50.7653L 61.9603 50.7653L 75.5543 14.7803z"/>
<path style="stroke:none; fill-rule:evenodd; fill:#848584" d="M 93.1483 14.7803L 109.14 14.7803L 95.5463 50.7653L 79.5543 50.7653"/>
<path style="stroke:#848584; stroke-width:1.59941; fill:none" d="M 93.1483 14.7803L 109.14 14.7803L 95.5463 50.7653L 79.5543 50.7653L 93.1483 14.7803z"/>
<path style="stroke:#000000; stroke-width:1.59941; fill:none" d="M 93.1483 14.7803L 109.14 14.7803L 95.5463 50.7653L 79.5543 50.7653L 93.1483 14.7803z"/>
<path style="stroke:none; fill-rule:evenodd; fill:#ffff00" d="M 110.742 14.7803L 126.734 14.7803L 113.14 50.7653L 97.1483 50.7653"/>
<path style="stroke:#ffff00; stroke-width:1.59941; fill:none" d="M 110.742 14.7803L 126.734 14.7803L 113.14 50.7653L 97.1483 50.7653L 110.742 14.7803z"/>
<path style="stroke:#000000; stroke-width:1.59941; fill:none" d="M 110.742 14.7803L 126.734 14.7803L 113.14 50.7653L 97.1483 50.7653L 110.742 14.7803z"/>
<path style="stroke:none; fill-rule:evenodd; fill:#848584" d="M 128.335 14.7803L 144.328 14.7803L 131.535 50.7653L 115.542 50.7653"/>
<path style="stroke:#848584; stroke-width:1.59941; fill:none" d="M 128.335 14.7803L 144.328 14.7803L 131.535 50.7653L 115.542 50.7653L 128.335 14.7803z"/>
<path style="stroke:#000000; stroke-width:1.59941; fill:none" d="M 128.335 14.7803L 144.328 14.7803L 131.535 50.7653L 115.542 50.7653L 128.335 14.7803z"/>
<path style="stroke:none; fill-rule:evenodd; fill:#000000" d="M 30.1403 19.3663C 30.1283 17.2883 28.7303 16.0813 26.3353 16.0813C 24.0583 16.0813 22.6443 17.2682 22.6443 19.1863C 22.6443 20.4753 23.3203 21.2883 24.7023 21.6512L 27.3083 22.3473C 28.6323 22.6943 29.2383 23.2292 29.2383 24.0573C 29.2383 24.6203 28.9373 25.2023 28.4923 25.5223C 28.0743 25.8113 27.4133 25.9723 26.5663 25.9723C 25.4293 25.9723 24.6563 25.6943 24.1483 25.0773C 23.7613 24.6083 23.5893 24.0973 23.5463 23.4363L 22.3473 23.4363C 22.3593 24.3893 22.5463 25.0182 22.9603 25.5893C 23.6753 26.5573 24.8783 27.0693 26.4643 27.0693C 27.7063 27.0693 28.7223 26.7842 29.3983 26.2653C 30.0973 25.7023 30.5423 24.7653 30.5423 23.8583C 30.5423 22.5613 29.7383 21.6083 28.3123 21.2183L 25.6753 20.5153C 24.4103 20.1713 23.9493 19.7653 23.9493 18.9603C 23.9493 17.8932 24.8903 17.1863 26.3083 17.1863C 27.9883 17.1863 28.9293 17.9683 28.9453 19.3703L 30.1403 19.3663z"/>
<path style="stroke:none; fill-rule:evenodd; fill:#000000" d="M 40.6403 26.7803L 42.0383 26.7803L 42.0383 16.2803L 40.6403 16.2803L 40.6403 26.7803z"/>
<path style="stroke:none; fill-rule:evenodd; fill:#000000" d="M 59.5383 22.2803L 63.0033 22.2803C 64.1993 22.2803 64.7343 22.8503 64.7343 24.1393L 64.7343 25.0693C 64.7343 25.7143 64.8433 26.3433 65.0273 26.7723L 66.6053 26.7723L 66.6053 26.4443C 66.0703 26.1003 65.9643 25.7253 65.9333 24.3313C 65.9213 22.6042 65.6563 22.0893 64.5503 21.5973C 65.7493 21.0223 66.2343 20.2883 66.2343 19.0933C 66.2343 17.2803 65.1013 16.2842 63.0543 16.2842L 58.2423 16.2842L 58.2423 26.7842L 59.5383 26.7842L 59.5383 22.2803zM 59.5153 21.0773L 59.5153 17.4683L 62.7533 17.4683C 63.4993 17.4683 63.9333 17.5813 64.2613 17.8703C 64.6203 18.1713 64.8083 18.6432 64.8083 19.2803C 64.8083 20.5153 64.1753 21.0773 62.7533 21.0773L 59.5153 21.0773z"/>
<path style="stroke:none; fill-rule:evenodd; fill:#000000" d="M 82.0623 23.5773L 83.1403 26.7762L 84.6363 26.7762L 80.9523 16.2762L 79.2263 16.2762L 75.4843 26.7762L 76.9063 26.7762L 78.0113 23.5773L 82.0623 23.5773zM 81.6873 22.4792L 78.3513 22.4792L 80.0783 17.7253L 81.6873 22.4792z"/>
<path style="stroke:none; fill-rule:evenodd; fill:#000000" d="M 94.0383 26.7803L 98.6913 26.7803C 99.6673 26.7803 100.386 26.5113 100.941 25.9012C 101.449 25.3542 101.734 24.6083 101.734 23.7883C 101.734 22.5223 101.179 21.7613 99.8903 21.2413C 100.831 20.7963 101.335 20.0182 101.335 18.9523C 101.335 18.1902 101.054 17.5153 100.511 17.0223C 99.9723 16.5182 99.2573 16.2883 98.2613 16.2883L 94.0423 16.2883L 94.0383 26.7803zM 95.3393 20.8783L 95.3393 17.3783L 97.9333 17.3783C 98.6833 17.3783 99.1013 17.4833 99.4603 17.7682C 99.8353 18.0693 100.035 18.5223 100.035 19.1243C 100.035 19.7103 99.8353 20.1793 99.4603 20.4792C 99.1013 20.7653 98.6833 20.8703 97.9333 20.8703L 95.3393 20.8783zM 95.3393 25.6793L 95.3393 21.9792L 98.5703 21.9792C 99.2103 21.9792 99.6363 22.1393 99.9493 22.4953C 100.261 22.8313 100.433 23.3043 100.433 23.8353C 100.433 24.3503 100.261 24.8193 99.9493 25.1592C 99.6363 25.5113 99.2103 25.6753 98.5703 25.6753L 95.3393 25.6793z"/>
<path style="stroke:none; fill-rule:evenodd; fill:#000000" d="M 119.968 19.5383C 119.55 17.2143 118.23 16.0813 115.929 16.0813C 114.523 16.0813 113.386 16.5262 112.609 17.3893C 111.663 18.4253 111.144 19.9213 111.144 21.6203C 111.144 23.3473 111.675 24.8273 112.667 25.8503C 113.472 26.6823 114.507 27.0732 115.87 27.0732C 118.429 27.0732 119.867 25.7063 120.183 22.9443L 118.796 22.9443C 118.683 23.6753 118.538 24.1713 118.32 24.5973C 117.886 25.4723 116.992 25.9723 115.867 25.9723C 113.773 25.9723 112.445 24.2723 112.445 21.6042C 112.445 18.8622 113.714 17.1793 115.753 17.1793C 116.605 17.1793 117.398 17.4482 117.831 17.8743C 118.218 18.2493 118.437 18.7183 118.597 19.5342L 119.968 19.5383z"/>
<path style="stroke:none; fill-rule:evenodd; fill:#000000" d="M 129.339 26.7803L 133.37 26.7803C 136.011 26.7803 137.632 24.7963 137.632 21.5262C 137.632 18.2723 136.027 16.2842 133.37 16.2842L 129.339 16.2842L 129.339 26.7803zM 130.64 25.6793L 130.64 17.3823L 133.14 17.3823C 135.23 17.3823 136.339 18.8043 136.339 21.5383C 136.339 24.2372 135.234 25.6793 133.14 25.6793L 130.64 25.6793z"/>
<path style="stroke:#000000; stroke-width:1.59941; fill:none" d="M 24.3743 8.38226L 149.128 8.38226L 133.136 50.7653L 8.38226 50.7653L 24.3743 8.38226z"/>
<path style="stroke:none; fill-rule:evenodd; fill:#000000" d="M 9.83926 57.6793L 13.1673 57.6793C 13.9953 57.6793 14.6483 57.4363 15.2183 56.9363C 15.8553 56.3663 16.1363 55.6943 16.1363 54.7373C 16.1363 52.7843 14.9683 51.6823 12.8863 51.6823L 8.53825 51.6823L 8.53825 62.1823L 9.83527 62.1823L 9.83926 57.6793zM 9.83926 56.5773L 9.83926 52.7803L 12.6673 52.7803C 13.9643 52.7803 14.7383 53.4913 14.7383 54.6793C 14.7383 55.8623 13.9683 56.5773 12.6673 56.5773L 9.83926 56.5773z"/>
<path style="stroke:none; fill-rule:evenodd; fill:#000000" d="M 19.4373 57.3783L 24.4803 57.3783L 24.4803 56.2803L 19.4373 56.2803L 19.4373 52.7803L 25.1363 52.7803L 25.1363 51.6823L 18.1363 51.6823L 18.1363 62.1823L 19.4333 62.1823L 19.4373 57.3783z"/>
<path style="stroke:none; fill-rule:evenodd; fill:#000000" d="M 35.1673 54.9363C 34.7493 52.6123 33.4293 51.4793 31.1283 51.4793C 29.7223 51.4793 28.5853 51.9253 27.8083 52.7883C 26.8633 53.8233 26.3433 55.3193 26.3433 57.0183C 26.3433 58.7453 26.8743 60.2253 27.8673 61.2493C 28.6713 62.0813 29.7063 62.4723 31.0703 62.4723C 33.6283 62.4723 35.0663 61.1043 35.3823 58.3433L 33.9953 58.3433C 33.8823 59.0733 33.7383 59.5693 33.5193 59.9953C 33.0853 60.8703 32.1913 61.3703 31.0663 61.3703C 28.9723 61.3703 27.6443 59.6713 27.6443 57.0033C 27.6443 54.2613 28.9133 52.5773 30.9523 52.5773C 31.8043 52.5773 32.5973 52.8473 33.0313 53.2723C 33.4173 53.6473 33.6363 54.1163 33.7963 54.9323L 35.1673 54.9363z"/>
<path style="stroke:#000000; stroke-width:1.59941; fill:none" d="M 24.3743 8.38226L 149.128 8.38226L 133.136 50.7653L 8.38226 50.7653L 24.3743 8.38226z"/>
<path style="stroke:none; fill-rule:evenodd; fill:#848584" d="M 164.324 281.081L 180.316 281.081L 166.722 316.265L 150.73 316.265"/>
<path style="stroke:#848584; stroke-width:1.59941; fill:none" d="M 164.324 281.081L 180.316 281.081L 166.722 316.265L 150.73 316.265L 164.324 281.081z"/>
<path style="stroke:#000000; stroke-width:1.59941; fill:none" d="M 164.324 281.081L 180.316 281.081L 166.722 316.265L 150.73 316.265L 164.324 281.081z"/>
<path style="stroke:none; fill-rule:evenodd; fill:#848584" d="M 181.917 281.081L 197.91 281.081L 184.316 316.265L 168.324 316.265"/>
<path style="stroke:#848584; stroke-width:1.59941; fill:none" d="M 181.917 281.081L 197.91 281.081L 184.316 316.265L 168.324 316.265L 181.917 281.081z"/>
<path style="stroke:#000000; stroke-width:1.59941; fill:none" d="M 181.917 281.081L 197.91 281.081L 184.316 316.265L 168.324 316.265L 181.917 281.081z"/>
<path style="stroke:none; fill-rule:evenodd; fill:#ffff00" d="M 199.507 281.081L 215.499 281.081L 202.706 316.265L 186.714 316.265"/>
<path style="stroke:#ffff00; stroke-width:1.59941; fill:none" d="M 199.507 281.081L 215.499 281.081L 202.706 316.265L 186.714 316.265L 199.507 281.081z"/>
<path style="stroke:#000000; stroke-width:1.59941; fill:none" d="M 199.507 281.081L 215.499 281.081L 202.706 316.265L 186.714 316.265L 199.507 281.081z"/>
<path style="stroke:none; fill-rule:evenodd; fill:#848584" d="M 217.105 281.081L 233.097 281.081L 220.304 316.265L 204.312 316.265"/>
<path style="stroke:#848584; stroke-width:1.59941; fill:none" d="M 217.105 281.081L 233.097 281.081L 220.304 316.265L 204.312 316.265L 217.105 281.081z"/>
<path style="stroke:#000000; stroke-width:1.59941; fill:none" d="M 217.105 281.081L 233.097 281.081L 220.304 316.265L 204.312 316.265L 217.105 281.081z"/>
<path style="stroke:#000000; stroke-width:1.59941; fill:none" d="M 166.722 274.682L 237.894 274.682L 221.902 316.265L 150.73 316.265L 166.722 274.682z"/>
<path style="stroke:none; fill-rule:evenodd; fill:#000000" d="M 157.374 319.679C 154.378 319.679 152.343 321.893 152.343 325.179C 152.343 328.46 154.378 330.675 157.39 330.675C 158.652 330.675 159.785 330.288 160.628 329.569C 161.761 328.608 162.433 326.979 162.433 325.268C 162.433 321.886 160.441 319.682 157.37 319.682L 157.374 319.679zM 157.374 320.78C 159.66 320.78 161.136 322.538 161.136 325.237C 161.136 327.815 159.617 329.577 157.386 329.577C 155.144 329.577 153.64 327.819 153.64 325.179C 153.64 322.542 155.144 320.78 157.374 320.78z"/>
<path style="stroke:none; fill-rule:evenodd; fill:#000000" d="M 169.839 330.35L 169.839 322.882L 168.64 322.882L 168.64 327.077C 168.64 328.589 167.839 329.577 166.589 329.577C 165.644 329.577 165.042 329.015 165.042 328.124L 165.042 322.882L 163.843 322.882L 163.843 328.639C 163.843 329.878 164.773 330.675 166.234 330.675C 167.335 330.675 168.038 330.292 168.738 329.307L 168.738 330.347L 169.839 330.35z"/>
<path style="stroke:none; fill-rule:evenodd; fill:#000000" d="M 174.64 322.878L 173.343 322.878L 173.343 320.765L 172.144 320.765L 172.144 322.878L 171.144 322.878L 171.144 323.878L 172.144 323.878L 172.144 329.495C 172.144 330.245 172.675 330.671 173.636 330.671C 173.929 330.671 174.226 330.643 174.64 330.573L 174.64 329.597C 174.476 329.581 174.281 329.577 174.038 329.577C 173.495 329.577 173.347 329.44 173.347 328.921L 173.347 323.886L 174.644 323.886L 174.64 322.878z"/>
<path style="stroke:none; fill-rule:evenodd; fill:#000000" d="M 175.738 333.518L 176.937 333.518L 176.937 329.581C 177.566 330.343 178.265 330.679 179.234 330.679C 181.16 330.679 182.433 329.108 182.433 326.702C 182.433 324.167 181.206 322.581 179.222 322.581C 178.21 322.581 177.394 323.042 176.839 323.936L 176.839 322.796L 175.742 322.796L 175.738 333.518zM 179.046 323.679C 180.37 323.679 181.238 324.854 181.238 326.671C 181.238 328.397 180.359 329.573 179.046 329.573C 177.777 329.573 176.941 328.413 176.941 326.628C 176.941 324.843 177.777 323.679 179.046 323.679z"/>
<path style="stroke:none; fill-rule:evenodd; fill:#000000" d="M 189.839 330.35L 189.839 322.882L 188.64 322.882L 188.64 327.077C 188.64 328.589 187.839 329.577 186.589 329.577C 185.644 329.577 185.042 329.015 185.042 328.124L 185.042 322.882L 183.843 322.882L 183.843 328.639C 183.843 329.878 184.773 330.675 186.234 330.675C 187.335 330.675 188.038 330.292 188.738 329.307L 188.738 330.347L 189.839 330.35z"/>
<path style="stroke:none; fill-rule:evenodd; fill:#000000" d="M 194.64 322.878L 193.343 322.878L 193.343 320.765L 192.144 320.765L 192.144 322.878L 191.144 322.878L 191.144 323.878L 192.144 323.878L 192.144 329.495C 192.144 330.245 192.675 330.671 193.636 330.671C 193.929 330.671 194.226 330.643 194.64 330.573L 194.64 329.597C 194.476 329.581 194.281 329.577 194.038 329.577C 193.495 329.577 193.347 329.44 193.347 328.921L 193.347 323.886L 194.644 323.886L 194.64 322.878z"/>
<path style="stroke:#000000; stroke-width:1.59941; fill:none" d="M 166.722 274.682L 237.894 274.682L 221.902 316.265L 150.73 316.265L 166.722 274.682z"/>
<path style="stroke:none; fill-rule:evenodd; fill:#ffff00" d="M 199.507 14.7803L 215.499 14.7803L 202.706 50.7653L 186.714 50.7653"/>
<path style="stroke:#ffff00; stroke-width:1.59941; fill:none" d="M 199.507 14.7803L 215.499 14.7803L 202.706 50.7653L 186.714 50.7653L 199.507 14.7803z"/>
<path style="stroke:#000000; stroke-width:1.59941; fill:none" d="M 199.507 14.7803L 215.499 14.7803L 202.706 50.7653L 186.714 50.7653L 199.507 14.7803z"/>
<path style="stroke:#000000; stroke-width:1.59941; fill:none" d="M 201.91 8.38226L 219.499 8.38226L 204.308 50.7653L 186.718 50.7653L 201.91 8.38226z"/>
<path style="stroke:none; fill-rule:evenodd; fill:#000000" d="M 198.363 57.9793L 199.441 61.1793L 200.937 61.1793L 197.253 50.6793L 195.527 50.6793L 191.785 61.1793L 193.206 61.1793L 194.312 57.9793L 198.363 57.9793zM 197.988 56.8783L 194.652 56.8783L 196.378 52.1243L 197.988 56.8783z"/>
<path style="stroke:none; fill-rule:evenodd; fill:#000000" d="M 210.667 53.9363C 210.249 51.6123 208.929 50.4793 206.628 50.4793C 205.222 50.4793 204.085 50.9253 203.308 51.7883C 202.363 52.8233 201.843 54.3193 201.843 56.0183C 201.843 57.7453 202.374 59.2253 203.367 60.2493C 204.171 61.0813 205.206 61.4723 206.57 61.4723C 209.128 61.4723 210.566 60.1043 210.882 57.3433L 209.495 57.3433C 209.382 58.0733 209.238 58.5693 209.019 58.9953C 208.585 59.8703 207.691 60.3703 206.566 60.3703C 204.472 60.3703 203.144 58.6713 203.144 56.0033C 203.144 53.2613 204.413 51.5773 206.452 51.5773C 207.304 51.5773 208.097 51.8473 208.531 52.2723C 208.917 52.6473 209.136 53.1163 209.296 53.9323L 210.667 53.9363z"/>
<path style="stroke:#000000; stroke-width:1.59941; fill:none" d="M 201.91 8.38226L 219.499 8.38226L 204.308 50.7653L 186.718 50.7653L 201.91 8.38226z"/>
<path style="stroke:none; fill-rule:evenodd; fill:#848584" d="M 179.519 105.944L 195.511 105.944L 182.718 141.128L 166.726 141.128"/>
<path style="stroke:#848584; stroke-width:1.59941; fill:none" d="M 179.519 105.944L 195.511 105.944L 182.718 141.128L 166.726 141.128L 179.519 105.944z"/>
<path style="stroke:#000000; stroke-width:1.59941; fill:none" d="M 179.519 105.944L 195.511 105.944L 182.718 141.128L 166.726 141.128L 179.519 105.944z"/>
<path style="stroke:none; fill-rule:evenodd; fill:#848584" d="M 197.91 105.944L 213.902 105.944L 200.308 141.128L 184.316 141.128"/>
<path style="stroke:#848584; stroke-width:1.59941; fill:none" d="M 197.91 105.944L 213.902 105.944L 200.308 141.128L 184.316 141.128L 197.91 105.944z"/>
<path style="stroke:#000000; stroke-width:1.59941; fill:none" d="M 197.91 105.944L 213.902 105.944L 200.308 141.128L 184.316 141.128L 197.91 105.944z"/>
<path style="stroke:none; fill-rule:evenodd; fill:#848584" d="M 215.503 105.944L 231.495 105.944L 217.902 141.128L 201.91 141.128"/>
<path style="stroke:#848584; stroke-width:1.59941; fill:none" d="M 215.503 105.944L 231.495 105.944L 217.902 141.128L 201.91 141.128L 215.503 105.944z"/>
<path style="stroke:#000000; stroke-width:1.59941; fill:none" d="M 215.503 105.944L 231.495 105.944L 217.902 141.128L 201.91 141.128L 215.503 105.944z"/>
<path style="stroke:none; fill-rule:evenodd; fill:#ffff00" d="M 233.097 105.944L 249.089 105.944L 235.495 141.128L 219.503 141.128"/>
<path style="stroke:#ffff00; stroke-width:1.59941; fill:none" d="M 233.097 105.944L 249.089 105.944L 235.495 141.128L 219.503 141.128L 233.097 105.944z"/>
<path style="stroke:#000000; stroke-width:1.59941; fill:none" d="M 233.097 105.944L 249.089 105.944L 235.495 141.128L 219.503 141.128L 233.097 105.944z"/>
<path style="stroke:none; fill-rule:evenodd; fill:#848584" d="M 250.691 105.944L 266.683 105.944L 253.89 141.128L 237.898 141.128"/>
<path style="stroke:#848584; stroke-width:1.59941; fill:none" d="M 250.691 105.944L 266.683 105.944L 253.89 141.128L 237.898 141.128L 250.691 105.944z"/>
<path style="stroke:#000000; stroke-width:1.59941; fill:none" d="M 250.691 105.944L 266.683 105.944L 253.89 141.128L 237.898 141.128L 250.691 105.944z"/>
<path style="stroke:none; fill-rule:evenodd; fill:#848584" d="M 269.085 105.944L 285.078 105.944L 271.484 141.128L 255.492 141.128"/>
<path style="stroke:#848584; stroke-width:1.59941; fill:none" d="M 269.085 105.944L 285.078 105.944L 271.484 141.128L 255.492 141.128L 269.085 105.944z"/>
<path style="stroke:#000000; stroke-width:1.59941; fill:none" d="M 269.085 105.944L 285.078 105.944L 271.484 141.128L 255.492 141.128L 269.085 105.944z"/>
<path style="stroke:none; fill-rule:evenodd; fill:#848584" d="M 286.675 105.944L 302.667 105.944L 289.074 141.128L 273.081 141.128"/>
<path style="stroke:#848584; stroke-width:1.59941; fill:none" d="M 286.675 105.944L 302.667 105.944L 289.074 141.128L 273.081 141.128L 286.675 105.944z"/>
<path style="stroke:#000000; stroke-width:1.59941; fill:none" d="M 286.675 105.944L 302.667 105.944L 289.074 141.128L 273.081 141.128L 286.675 105.944z"/>
<path style="stroke:none; fill-rule:evenodd; fill:#848584" d="M 164.324 147.53L 180.316 147.53L 166.722 183.515L 150.73 183.515"/>
<path style="stroke:#848584; stroke-width:1.59941; fill:none" d="M 164.324 147.53L 180.316 147.53L 166.722 183.515L 150.73 183.515L 164.324 147.53z"/>
<path style="stroke:#000000; stroke-width:1.59941; fill:none" d="M 164.324 147.53L 180.316 147.53L 166.722 183.515L 150.73 183.515L 164.324 147.53z"/>
<path style="stroke:none; fill-rule:evenodd; fill:#848584" d="M 181.917 147.53L 197.91 147.53L 184.316 183.515L 168.324 183.515"/>
<path style="stroke:#848584; stroke-width:1.59941; fill:none" d="M 181.917 147.53L 197.91 147.53L 184.316 183.515L 168.324 183.515L 181.917 147.53z"/>
<path style="stroke:#000000; stroke-width:1.59941; fill:none" d="M 181.917 147.53L 197.91 147.53L 184.316 183.515L 168.324 183.515L 181.917 147.53z"/>
<path style="stroke:none; fill-rule:evenodd; fill:#848584" d="M 199.507 147.53L 215.499 147.53L 202.706 183.515L 186.714 183.515"/>
<path style="stroke:#848584; stroke-width:1.59941; fill:none" d="M 199.507 147.53L 215.499 147.53L 202.706 183.515L 186.714 183.515L 199.507 147.53z"/>
<path style="stroke:#000000; stroke-width:1.59941; fill:none" d="M 199.507 147.53L 215.499 147.53L 202.706 183.515L 186.714 183.515L 199.507 147.53z"/>
<path style="stroke:none; fill-rule:evenodd; fill:#848584" d="M 217.105 147.53L 233.097 147.53L 220.304 183.515L 204.312 183.515"/>
<path style="stroke:#848584; stroke-width:1.59941; fill:none" d="M 217.105 147.53L 233.097 147.53L 220.304 183.515L 204.312 183.515L 217.105 147.53z"/>
<path style="stroke:#000000; stroke-width:1.59941; fill:none" d="M 217.105 147.53L 233.097 147.53L 220.304 183.515L 204.312 183.515L 217.105 147.53z"/>
<path style="stroke:none; fill-rule:evenodd; fill:#848584" d="M 235.495 147.53L 251.488 147.53L 237.894 183.515L 221.902 183.515"/>
<path style="stroke:#848584; stroke-width:1.59941; fill:none" d="M 235.495 147.53L 251.488 147.53L 237.894 183.515L 221.902 183.515L 235.495 147.53z"/>
<path style="stroke:#000000; stroke-width:1.59941; fill:none" d="M 235.495 147.53L 251.488 147.53L 237.894 183.515L 221.902 183.515L 235.495 147.53z"/>
<path style="stroke:none; fill-rule:evenodd; fill:#848584" d="M 253.089 147.53L 269.081 147.53L 255.488 183.515L 239.495 183.515"/>
<path style="stroke:#848584; stroke-width:1.59941; fill:none" d="M 253.089 147.53L 269.081 147.53L 255.488 183.515L 239.495 183.515L 253.089 147.53z"/>
<path style="stroke:#000000; stroke-width:1.59941; fill:none" d="M 253.089 147.53L 269.081 147.53L 255.488 183.515L 239.495 183.515L 253.089 147.53z"/>
<path style="stroke:none; fill-rule:evenodd; fill:#ffff00" d="M 270.683 147.53L 286.675 147.53L 273.081 183.515L 257.089 183.515"/>
<path style="stroke:#ffff00; stroke-width:1.59941; fill:none" d="M 270.683 147.53L 286.675 147.53L 273.081 183.515L 257.089 183.515L 270.683 147.53z"/>
<path style="stroke:#000000; stroke-width:1.59941; fill:none" d="M 270.683 147.53L 286.675 147.53L 273.081 183.515L 257.089 183.515L 270.683 147.53z"/>
<path style="stroke:#000000; stroke-width:1.59941; fill:none" d="M 181.917 99.5503L 306.671 99.5503L 275.484 183.518L 150.73 183.518L 181.917 99.5503z"/>
<path style="stroke:none; fill-rule:evenodd; fill:#000000" d="M 160.64 189.979L 160.64 194.776L 161.937 194.776L 161.937 184.276L 160.64 184.276L 160.64 188.874L 155.14 188.874L 155.14 184.276L 153.843 184.276L 153.843 194.776L 155.14 194.776L 155.14 189.979L 160.64 189.979z"/>
<path style="stroke:none; fill-rule:evenodd; fill:#000000" d="M 165.238 187.28L 164.038 187.28L 164.038 194.78L 165.238 194.78L 165.238 187.28zM 165.238 184.28L 164.038 184.28L 164.038 185.796L 165.238 185.796L 165.238 184.28z"/>
<path style="stroke:none; fill-rule:evenodd; fill:#000000" d="M 173.339 184.28L 172.14 184.28L 172.14 188.186C 171.644 187.397 170.843 186.983 169.847 186.983C 167.913 186.983 166.644 188.554 166.644 190.96C 166.644 193.511 167.874 195.081 169.874 195.081C 170.894 195.081 171.601 194.702 172.242 193.788L 172.242 194.78L 173.339 194.78L 173.339 184.28zM 170.023 188.077C 171.316 188.077 172.136 189.237 172.136 191.054C 172.136 192.811 171.304 193.972 170.038 193.972C 168.718 193.972 167.839 192.796 167.839 191.026C 167.839 189.257 168.714 188.077 170.023 188.077z"/>
<path style="stroke:none; fill-rule:evenodd; fill:#000000" d="M 181.339 184.28L 180.14 184.28L 180.14 188.186C 179.644 187.397 178.843 186.983 177.847 186.983C 175.913 186.983 174.644 188.554 174.644 190.96C 174.644 193.511 175.874 195.081 177.874 195.081C 178.894 195.081 179.601 194.702 180.242 193.788L 180.242 194.78L 181.339 194.78L 181.339 184.28zM 178.023 188.077C 179.316 188.077 180.136 189.237 180.136 191.054C 180.136 192.811 179.304 193.972 178.038 193.972C 176.718 193.972 175.839 192.796 175.839 191.026C 175.839 189.257 176.714 188.077 178.023 188.077z"/>
<path style="stroke:none; fill-rule:evenodd; fill:#000000" d="M 189.64 191.378C 189.64 190.225 189.554 189.534 189.339 188.972C 188.851 187.733 187.702 186.983 186.292 186.983C 184.195 186.983 182.843 188.597 182.843 191.073C 182.843 193.55 184.148 195.077 186.253 195.077C 187.972 195.077 189.163 194.112 189.464 192.491L 188.249 192.491C 187.917 193.468 187.238 193.975 186.269 193.975C 185.503 193.975 184.851 193.632 184.449 192.995C 184.163 192.565 184.058 192.132 184.046 191.378L 189.64 191.378zM 184.093 190.432C 184.191 189.038 185.042 188.132 186.249 188.132C 187.429 188.132 188.335 189.108 188.335 190.347C 188.335 190.374 188.335 190.401 188.324 190.432L 184.093 190.432z"/>
<path style="stroke:none; fill-rule:evenodd; fill:#000000" d="M 191.238 187.198L 191.238 194.776L 192.437 194.776L 192.437 190.624C 192.437 189.089 193.242 188.081 194.48 188.081C 195.429 188.081 196.035 188.655 196.035 189.561L 196.035 194.78L 197.234 194.78L 197.234 189.054C 197.234 187.796 196.3 186.983 194.843 186.983C 193.722 186.983 192.999 187.417 192.335 188.472L 192.335 187.202L 191.238 187.198z"/>
<path style="stroke:none; fill-rule:evenodd; fill:#000000" d="M 205.566 193.479L 200.163 193.479C 200.292 192.651 200.757 192.124 202.015 191.393L 203.46 190.624C 204.894 189.854 205.632 188.807 205.632 187.565C 205.632 186.722 205.285 185.936 204.679 185.393C 204.074 184.85 203.32 184.593 202.347 184.593C 201.046 184.593 200.074 185.054 199.507 185.913C 199.148 186.456 198.988 187.089 198.96 188.124L 200.234 188.124C 200.277 187.436 200.363 187.018 200.538 186.686C 200.87 186.069 201.538 185.694 202.304 185.694C 203.46 185.694 204.331 186.515 204.331 187.608C 204.331 188.413 203.855 189.104 202.941 189.62L 201.609 190.366C 199.464 191.573 198.843 192.538 198.726 194.784L 205.562 194.784L 205.566 193.479z"/>
<path style="stroke:#000000; stroke-width:1.59941; fill:none" d="M 181.917 99.5503L 306.671 99.5503L 275.484 183.518L 150.73 183.518L 181.917 99.5503z"/>
<path style="stroke:none; fill-rule:evenodd; fill:#000000" d="M 170.761 291.179L 171.839 294.378L 173.335 294.378L 169.652 283.878L 167.925 283.878L 164.183 294.378L 165.605 294.378L 166.71 291.179L 170.761 291.179zM 170.386 290.077L 167.05 290.077L 168.777 285.323L 170.386 290.077z"/>
<path style="stroke:none; fill-rule:evenodd; fill:#000000" d="M 182.738 294.378L 187.39 294.378C 188.367 294.378 189.085 294.108 189.64 293.499C 190.148 292.952 190.433 292.206 190.433 291.386C 190.433 290.12 189.878 289.358 188.589 288.839C 189.531 288.393 190.035 287.616 190.035 286.55C 190.035 285.788 189.753 285.112 189.21 284.62C 188.671 284.116 187.956 283.886 186.96 283.886L 182.742 283.886L 182.738 294.378zM 184.038 288.479L 184.038 284.979L 186.632 284.979C 187.382 284.979 187.8 285.085 188.16 285.37C 188.535 285.671 188.734 286.124 188.734 286.725C 188.734 287.311 188.535 287.78 188.16 288.081C 187.8 288.366 187.382 288.472 186.632 288.472L 184.038 288.479zM 184.038 293.28L 184.038 289.581L 187.269 289.581C 187.91 289.581 188.335 289.741 188.648 290.097C 188.96 290.432 189.132 290.905 189.132 291.436C 189.132 291.952 188.96 292.421 188.648 292.761C 188.335 293.112 187.91 293.276 187.269 293.276L 184.038 293.28z"/>
<path style="stroke:none; fill-rule:evenodd; fill:#000000" d="M 208.667 287.139C 208.249 284.815 206.929 283.682 204.628 283.682C 203.222 283.682 202.085 284.128 201.308 284.991C 200.363 286.026 199.843 287.522 199.843 289.222C 199.843 290.948 200.374 292.429 201.367 293.452C 202.171 294.284 203.206 294.675 204.57 294.675C 207.128 294.675 208.566 293.307 208.882 290.546L 207.495 290.546C 207.382 291.276 207.238 291.772 207.019 292.198C 206.585 293.073 205.691 293.573 204.566 293.573C 202.472 293.573 201.144 291.874 201.144 289.206C 201.144 286.464 202.413 284.78 204.452 284.78C 205.304 284.78 206.097 285.05 206.531 285.475C 206.917 285.85 207.136 286.319 207.296 287.136L 208.667 287.139z"/>
<path style="stroke:none; fill-rule:evenodd; fill:#000000" d="M 218.038 294.378L 222.07 294.378C 224.71 294.378 226.331 292.393 226.331 289.124C 226.331 285.87 224.726 283.882 222.07 283.882L 218.038 283.882L 218.038 294.378zM 219.339 293.28L 219.339 284.983L 221.839 284.983C 223.929 284.983 225.038 286.405 225.038 289.139C 225.038 291.839 223.933 293.28 221.839 293.28L 219.339 293.28z"/>
</g>
</svg>