<?xml version="1.0" encoding="UTF-8" standalone="no"?>
<svg
   xmlns:dc="http://purl.org/dc/elements/1.1/"
   xmlns:cc="http://creativecommons.org/ns#"
   xmlns:rdf="http://www.w3.org/1999/02/22-rdf-syntax-ns#"
   xmlns:svg="http://www.w3.org/2000/svg"
   xmlns="http://www.w3.org/2000/svg"
   xmlns:xlink="http://www.w3.org/1999/xlink"
   xmlns:sodipodi="http://sodipodi.sourceforge.net/DTD/sodipodi-0.dtd"
   xmlns:inkscape="http://www.inkscape.org/namespaces/inkscape"
   width="235.543"
   height="141.219"
   id="svg2"
   version="1.1"
   inkscape:version="0.48.1 r9760"
   sodipodi:docname="fig_elem_conj.svg"
   inkscape:export-filename="/Users/oreilly/svn_docs/figs/fig_elem_conj.png"
   inkscape:export-xdpi="150"
   inkscape:export-ydpi="150">
  <metadata
     id="metadata194">
    <rdf:RDF>
      <cc:Work
         rdf:about="">
        <dc:format>image/svg+xml</dc:format>
        <dc:type
           rdf:resource="http://purl.org/dc/dcmitype/StillImage" />
        <dc:title></dc:title>
      </cc:Work>
    </rdf:RDF>
  </metadata>
  <sodipodi:namedview
     pagecolor="#ffffff"
     bordercolor="#666666"
     borderopacity="1"
     objecttolerance="10"
     gridtolerance="10"
     guidetolerance="10"
     inkscape:pageopacity="0"
     inkscape:pageshadow="2"
     inkscape:window-width="1363"
     inkscape:window-height="858"
     id="namedview192"
     showgrid="false"
     inkscape:zoom="1.8552745"
     inkscape:cx="106.62486"
     inkscape:cy="70.609497"
     inkscape:window-x="394"
     inkscape:window-y="13"
     inkscape:window-maximized="0"
     inkscape:current-layer="svg2" />
  <defs
     id="defs4">
    <linearGradient
       id="linearGradient4102">
      <stop
         style="stop-color:#ffffff;stop-opacity:1;"
         offset="0"
         id="stop4104" />
      <stop
         style="stop-color:#ff204a;stop-opacity:1;"
         offset="1"
         id="stop4106" />
    </linearGradient>
    <linearGradient
       id="linearGradient4078">
      <stop
         id="stop4080"
         offset="0"
         style="stop-color:#ffffff;stop-opacity:1;" />
      <stop
         id="stop4082"
         offset="1"
         style="stop-color:#5120ff;stop-opacity:1;" />
    </linearGradient>
    <linearGradient
       id="linearGradient4040">
      <stop
         style="stop-color:#ffffff;stop-opacity:1;"
         offset="0"
         id="stop4042" />
      <stop
         style="stop-color:#00a722;stop-opacity:1;"
         offset="1"
         id="stop4044" />
    </linearGradient>
    <marker
       id="ArrowEnd"
       viewBox="0 0 10 10"
       refX="0"
       refY="5"
       markerUnits="strokeWidth"
       markerWidth="4"
       markerHeight="3"
       orient="auto">
      <path
         d="M 0 0 L 10 5 L 0 10 z"
         id="path7" />
    </marker>
    <marker
       id="ArrowStart"
       viewBox="0 0 10 10"
       refX="10"
       refY="5"
       markerUnits="strokeWidth"
       markerWidth="4"
       markerHeight="3"
       orient="auto">
      <path
         d="M 10 0 L 0 5 L 10 10 z"
         id="path10" />
    </marker>
    <radialGradient
       inkscape:collect="always"
       xlink:href="#linearGradient4040"
       id="radialGradient4046"
       cx="21.50385"
       cy="113.3005"
       fx="21.50385"
       fy="113.3005"
       r="12.4332"
       gradientTransform="matrix(1,0,0,0.99999598,0,4.5563692e-4)"
       gradientUnits="userSpaceOnUse" />
    <radialGradient
       inkscape:collect="always"
       xlink:href="#linearGradient4040"
       id="radialGradient4054"
       cx="50.210899"
       cy="113.3005"
       fx="50.210899"
       fy="113.3005"
       r="12.43325"
       gradientTransform="matrix(1,0,0,0.99999196,0,9.1127018e-4)"
       gradientUnits="userSpaceOnUse" />
    <radialGradient
       inkscape:collect="always"
       xlink:href="#linearGradient4040"
       id="radialGradient4062"
       cx="184.0735"
       cy="113.2965"
       fx="184.0735"
       fy="113.2965"
       r="12.43315"
       gradientUnits="userSpaceOnUse" />
    <radialGradient
       inkscape:collect="always"
       xlink:href="#linearGradient4040"
       id="radialGradient4064"
       cx="155.3905"
       cy="113.2965"
       fx="155.3905"
       fy="113.2965"
       r="12.43315"
       gradientUnits="userSpaceOnUse" />
    <radialGradient
       inkscape:collect="always"
       xlink:href="#linearGradient4040"
       id="radialGradient4066"
       cx="126.6835"
       cy="113.2965"
       fx="126.6835"
       fy="113.2965"
       r="12.43315"
       gradientUnits="userSpaceOnUse" />
    <radialGradient
       inkscape:collect="always"
       xlink:href="#linearGradient4040"
       id="radialGradient4068"
       cx="78.894653"
       cy="113.3005"
       fx="78.894653"
       fy="113.3005"
       r="12.4334"
       gradientTransform="matrix(1,0,0,0.99997989,0,0.00227815)"
       gradientUnits="userSpaceOnUse" />
    <radialGradient
       inkscape:collect="always"
       xlink:href="#linearGradient4078"
       id="radialGradient4076"
       cx="50.238251"
       cy="67.401947"
       fx="50.238251"
       fy="67.401947"
       r="12.4332"
       gradientTransform="matrix(1,0,0,1.000008,0,-5.4211265e-4)"
       gradientUnits="userSpaceOnUse" />
    <radialGradient
       inkscape:collect="always"
       xlink:href="#linearGradient4078"
       id="radialGradient4090"
       cx="155.4175"
       cy="21.503799"
       fx="155.4175"
       fy="21.503799"
       r="12.43315"
       gradientUnits="userSpaceOnUse" />
    <radialGradient
       inkscape:collect="always"
       xlink:href="#linearGradient4102"
       id="radialGradient4098"
       cx="184.0775"
       cy="67.398003"
       fx="184.0775"
       fy="67.398003"
       r="12.43315"
       gradientTransform="matrix(1,0,0,1.0000161,0,-0.00108417)"
       gradientUnits="userSpaceOnUse" />
    <radialGradient
       inkscape:collect="always"
       xlink:href="#linearGradient4102"
       id="radialGradient4100"
       cx="126.687"
       cy="67.398003"
       fx="126.687"
       fy="67.398003"
       r="12.43365"
       gradientTransform="matrix(1,0,0,0.99997587,0,0.00162618)"
       gradientUnits="userSpaceOnUse" />
  </defs>
  <rect
     style="fill:#ffffff;stroke:#ffffff;stroke-width:0.96902579;stroke-linejoin:round;stroke-miterlimit:10;stroke-opacity:1;stroke-dasharray:none;stroke-dashoffset:0"
     id="rect4108"
     width="239.81769"
     height="142.74176"
     x="1.1170113"
     y="3.2775016" />
  <path
     inkscape:connector-curvature="0"
     id="path14"
     d="m 32.9804,113.301 c 0,-6.34 -5.1367,-11.477 -11.4765,-11.477 -6.3399,0 -11.4766,5.137 -11.4766,11.477 0,6.339 5.1367,11.476 11.4766,11.476 6.3398,0 11.4765,-5.137 11.4765,-11.476"
     style="fill:url(#radialGradient4046);stroke:#000000;stroke-width:1.91330003999999998;fill-opacity:1" />
  <path
     inkscape:connector-curvature="0"
     id="path16"
     d="m 23.0859,114.226 0.8594,2.5 1.1914,0 -2.9375,-8.398 -1.375,0 -2.9844,8.398 1.1328,0 0.8828,-2.5 3.2305,0 z m -0.2969,-0.898 -2.6601,0 1.375,-3.82 1.2851,3.82 z"
     style="fill:#000000;fill-rule:evenodd;stroke:none" />
  <path
     inkscape:connector-curvature="0"
     id="path18"
     d="m 61.6875,113.301 c 0,-6.34 -5.1368,-11.477 -11.4766,-11.477 -6.3398,0 -11.4766,5.137 -11.4766,11.477 0,6.339 5.1368,11.476 11.4766,11.476 6.3398,0 11.4766,-5.137 11.4766,-11.476"
     style="fill:url(#radialGradient4054);stroke:#000000;stroke-width:1.91330003999999998;fill-opacity:1.0" />
  <path
     inkscape:connector-curvature="0"
     id="path20"
     d="m 47.2461,116.726 3.8085,0 c 0.7969,0 1.3868,-0.218 1.8399,-0.699 0.4141,-0.437 0.6484,-1.035 0.6484,-1.691 0,-1.012 -0.4726,-1.625 -1.5742,-2.035 0.7656,-0.356 1.1719,-0.977 1.1719,-1.829 0,-0.609 -0.2266,-1.148 -0.668,-1.543 -0.4375,-0.402 -1.0117,-0.585 -1.8203,-0.585 l -3.4101,0 0.0039,8.382 z m 1.1015,-4.699 0,-2.797 2.043,0 c 0.5898,0 0.918,0.082 1.1992,0.313 0.293,0.238 0.4531,0.601 0.4531,1.086 0,0.468 -0.1562,0.843 -0.4531,1.086 -0.2812,0.226 -0.6094,0.312 -1.1992,0.312 l -2.043,0 z m 0,3.801 0,-2.899 2.5977,0 c 0.5117,0 0.8554,0.125 1.1093,0.403 0.25,0.265 0.3868,0.633 0.3868,1.051 0,0.402 -0.1368,0.773 -0.3868,1.039 -0.25,0.273 -0.5937,0.402 -1.1093,0.402 l -2.5977,0.004 z"
     style="fill:#000000;fill-rule:evenodd;stroke:none" />
  <path
     inkscape:connector-curvature="0"
     id="path22"
     d="m 90.3714,113.301 c 0,-6.34 -5.137,-11.477 -11.4769,-11.477 -6.3399,0 -11.4766,5.137 -11.4766,11.477 0,6.339 5.1367,11.476 11.4766,11.476 6.3399,0 11.4769,-5.137 11.4769,-11.476"
     style="fill:url(#radialGradient4068);stroke:#000000;stroke-width:1.91330003999999998;fill-opacity:1.0" />
  <path
     inkscape:connector-curvature="0"
     id="path24"
     d="m 82.6484,110.953 c -0.3359,-1.828 -1.3984,-2.723 -3.25,-2.723 -1.1328,0 -2.043,0.356 -2.668,1.047 -0.7617,0.828 -1.1758,2.024 -1.1758,3.383 0,1.379 0.4258,2.566 1.2227,3.383 0.6445,0.668 1.4766,0.976 2.5742,0.976 2.0547,0 3.211,-1.113 3.4688,-3.351 l -1.1055,0 c -0.0898,0.59 -0.2031,0.992 -0.3789,1.336 -0.3437,0.711 -1.0586,1.113 -1.9531,1.113 -1.668,0 -2.7266,-1.352 -2.7266,-3.473 0,-2.179 1.0117,-3.523 2.6367,-3.523 0.6758,0 1.3125,0.211 1.6563,0.535 0.3086,0.293 0.4804,0.652 0.6094,1.285 l 1.0898,0.012 z"
     style="fill:#000000;fill-rule:evenodd;stroke:none" />
  <path
     inkscape:connector-curvature="0"
     id="path26"
     d="m 61.7148,67.4021 c 0,-6.3399 -5.1367,-11.4768 -11.4766,-11.4768 -6.3398,0 -11.4765,5.1369 -11.4765,11.4768 0,6.3398 5.1367,11.4765 11.4765,11.4765 6.3399,0 11.4766,-5.1367 11.4766,-11.4765"
     style="fill:url(#radialGradient4076);stroke:#000000;stroke-width:1.91330003999999998;fill-opacity:1.0" />
  <path
     inkscape:connector-curvature="0"
     id="path28"
     d="m 48.6484,67.2263 2.7305,0 c 0.9414,0 1.3633,0.457 1.3633,1.4883 l 0,0.7422 c 0,0.5156 0.0859,1.0195 0.2304,1.3633 l 1.2578,0 0,-0.2618 c -0.3906,-0.2734 -0.4726,-0.5742 -0.4922,-1.6914 -0.0117,-1.3828 -0.2304,-1.7968 -1.1445,-2.1875 0.957,-0.4609 1.3438,-1.0469 1.3438,-2.0039 0,-1.4492 -0.9063,-2.2461 -2.543,-2.2461 l -3.8516,0 0,8.3985 1.0977,0 0.0078,-3.6016 z m -0.0664,-0.9453 0,-2.8789 2.582,0 c 0.5938,0 0.9375,0.0898 1.2032,0.3203 0.2851,0.2383 0.4335,0.6172 0.4335,1.125 0,0.9844 -0.5039,1.4336 -1.6406,1.4336 l -2.5781,0 z"
     style="fill:#000000;fill-rule:evenodd;stroke:none" />
  <path
     inkscape:connector-curvature="0"
     id="path30"
     d="M 21.4804,101.859 50.164,78.9138"
     style="fill:none;stroke:#000000;stroke-width:1.91330004" />
  <path
     inkscape:connector-curvature="0"
     id="path32"
     d="m 42.9922,82.199 7.1679,-3.2852 -4.7773,6.2734"
     style="fill:none;stroke:#000000;stroke-width:1.91330004" />
  <path
     inkscape:connector-curvature="0"
     id="path34"
     d="m 50.164,101.859 0,-22.9452"
     style="fill:none;stroke:#000000;stroke-width:1.91330004" />
  <path
     inkscape:connector-curvature="0"
     id="path36"
     d="m 48.25,86.5661 1.9101,-7.6523 1.9102,7.6523"
     style="fill:none;stroke:#000000;stroke-width:1.91330004" />
  <path
     inkscape:connector-curvature="0"
     id="path38"
     d="M 78.8476,101.859 50.164,78.9138"
     style="fill:none;stroke:#000000;stroke-width:1.91330004" />
  <path
     inkscape:connector-curvature="0"
     id="path40"
     d="m 54.9453,85.1872 -4.7774,-6.2734 7.168,3.2852"
     style="fill:none;stroke:#000000;stroke-width:1.91330004" />
  <path
     inkscape:connector-curvature="0"
     id="path42"
     d="m 71.6757,59.1283 -2.3281,0 0,-2.34 -0.7969,0 0,2.34 -2.4257,0 0,0.7972 2.4257,0 0,2.4141 0.7969,0 0,-2.4141 2.3281,0 0,-0.7972 z"
     style="fill:#000000;fill-rule:evenodd;stroke:none" />
  <path
     inkscape:connector-curvature="0"
     id="path44"
     d="m 65.2461,77.6286 6.8984,0 0,-0.5976 -6.8984,0 0,0.5976 z"
     style="fill:#000000;fill-rule:evenodd;stroke:none" />
  <path
     inkscape:connector-curvature="0"
     id="path46"
     d="m 138.16,113.297 c 0,-6.34 -5.137,-11.477 -11.477,-11.477 -6.34,0 -11.476,5.137 -11.476,11.477 0,6.34 5.136,11.476 11.476,11.476 6.34,0 11.477,-5.136 11.477,-11.476"
     style="fill:url(#radialGradient4066);stroke:#000000;stroke-width:1.91330003999999998;fill-opacity:1.0" />
  <path
     inkscape:connector-curvature="0"
     id="path48"
     d="m 128.289,114.226 0.859,2.5 1.191,0 -2.937,-8.398 -1.375,0 -2.984,8.398 1.132,0 0.883,-2.5 3.231,0 z m -0.301,-0.898 -2.66,0 1.375,-3.82 1.285,3.82 z"
     style="fill:#000000;fill-rule:evenodd;stroke:none" />
  <path
     inkscape:connector-curvature="0"
     id="path50"
     d="m 166.867,113.297 c 0,-6.34 -5.137,-11.477 -11.477,-11.477 -6.34,0 -11.476,5.137 -11.476,11.477 0,6.34 5.136,11.476 11.476,11.476 6.34,0 11.477,-5.136 11.477,-11.476"
     style="fill:url(#radialGradient4064);stroke:#000000;stroke-width:1.91330003999999998;fill-opacity:1.0" />
  <path
     inkscape:connector-curvature="0"
     id="path52"
     d="m 152.445,116.726 3.808,0 c 0.797,0 1.387,-0.218 1.84,-0.699 0.414,-0.437 0.649,-1.035 0.649,-1.691 0,-1.012 -0.473,-1.625 -1.574,-2.035 0.765,-0.356 1.171,-0.977 1.171,-1.829 0,-0.609 -0.226,-1.148 -0.668,-1.543 -0.437,-0.402 -1.011,-0.585 -1.82,-0.585 l -3.41,0 0.004,8.382 z m 1.101,-4.699 0,-2.797 2.043,0 c 0.59,0 0.918,0.082 1.2,0.313 0.293,0.238 0.453,0.601 0.453,1.086 0,0.468 -0.156,0.843 -0.453,1.086 -0.282,0.226 -0.61,0.312 -1.2,0.312 l -2.043,0 z m 0,3.801 0,-2.899 2.598,0 c 0.512,0 0.856,0.125 1.109,0.403 0.25,0.265 0.387,0.633 0.387,1.051 0,0.402 -0.137,0.773 -0.387,1.039 -0.25,0.273 -0.593,0.402 -1.109,0.402 l -2.598,0.004 z"
     style="fill:#000000;fill-rule:evenodd;stroke:none" />
  <path
     inkscape:connector-curvature="0"
     id="path54"
     d="m 195.55,113.297 c 0,-6.34 -5.136,-11.477 -11.476,-11.477 -6.34,0 -11.477,5.137 -11.477,11.477 0,6.34 5.137,11.476 11.477,11.476 6.34,0 11.476,-5.136 11.476,-11.476"
     style="fill:url(#radialGradient4062);stroke:#000000;stroke-width:1.91330003999999998;fill-opacity:1.0" />
  <path
     inkscape:connector-curvature="0"
     id="path56"
     d="m 187.847,110.953 c -0.336,-1.828 -1.398,-2.723 -3.25,-2.723 -1.133,0 -2.043,0.356 -2.668,1.047 -0.761,0.828 -1.176,2.024 -1.176,3.383 0,1.379 0.426,2.566 1.223,3.383 0.645,0.668 1.477,0.976 2.574,0.976 2.055,0 3.211,-1.113 3.469,-3.351 l -1.105,0 c -0.09,0.59 -0.204,0.992 -0.379,1.336 -0.344,0.711 -1.059,1.113 -1.953,1.113 -1.668,0 -2.727,-1.352 -2.727,-3.473 0,-2.179 1.012,-3.523 2.637,-3.523 0.676,0 1.312,0.211 1.656,0.535 0.309,0.293 0.48,0.652 0.609,1.285 l 1.09,0.012 z"
     style="fill:#000000;fill-rule:evenodd;stroke:none" />
  <path
     inkscape:connector-curvature="0"
     id="path58"
     d="m 166.894,21.5033 c 0,-6.339 -5.137,-11.476 -11.476,-11.476 -6.34,0 -11.477,5.137 -11.477,11.476 0,6.34 5.137,11.477 11.477,11.477 6.339,0 11.476,-5.137 11.476,-11.477"
     style="fill:url(#radialGradient4090);stroke:#000000;stroke-width:1.91330003999999998;fill-opacity:1.0" />
  <path
     inkscape:connector-curvature="0"
     id="path60"
     d="m 153.746,21.3283 2.73,0 c 0.942,0 1.363,0.457 1.363,1.488 l 0,0.742 c 0,0.516 0.086,1.02 0.231,1.363 l 1.258,0 0,-0.261 c -0.391,-0.274 -0.473,-0.575 -0.492,-1.692 -0.012,-1.383 -0.231,-1.797 -1.145,-2.187 0.957,-0.461 1.344,-1.047 1.344,-2.004 0,-1.449 -0.907,-2.246 -2.543,-2.246 l -3.852,0 0,8.398 1.098,0 0.008,-3.601 z m -0.067,-0.946 0,-2.879 2.582,0 c 0.594,0 0.938,0.09 1.203,0.321 0.286,0.238 0.434,0.617 0.434,1.125 0,0.984 -0.504,1.433 -1.641,1.433 l -2.578,0 z"
     style="fill:#000000;fill-rule:evenodd;stroke:none" />
  <path
     inkscape:connector-curvature="0"
     id="path62"
     d="m 176.777,13.2263 -2.328,0 0,-2.34 -0.797,0 0,2.34 -2.426,0 0,0.797 2.426,0 0,2.414 0.797,0 0,-2.414 2.328,0 0,-0.797 z"
     style="fill:#000000;fill-rule:evenodd;stroke:none" />
  <path
     inkscape:connector-curvature="0"
     id="path64"
     d="m 170.347,31.7263 6.899,0 0,-0.598 -6.899,0 0,0.598 z"
     style="fill:#000000;fill-rule:evenodd;stroke:none" />
  <path
     inkscape:connector-curvature="0"
     id="path66"
     d="m 138.164,67.3982 c 0,-6.3399 -5.137,-11.4769 -11.477,-11.4769 -6.34,0 -11.477,5.137 -11.477,11.4769 0,6.3398 5.137,11.4765 11.477,11.4765 6.34,0 11.477,-5.1367 11.477,-11.4765"
     style="fill:url(#radialGradient4100);stroke:#000000;stroke-width:1.91330003999999998;fill-opacity:1.0" />
  <path
     inkscape:connector-curvature="0"
     id="path68"
     d="M 155.347,101.851 126.664,78.906"
     style="fill:none;stroke:#000000;stroke-width:1.91330004" />
  <path
     inkscape:connector-curvature="0"
     id="path70"
     d="m 131.445,85.1794 -4.777,-6.2734 7.168,3.2851"
     style="fill:none;stroke:#000000;stroke-width:1.91330004" />
  <path
     inkscape:connector-curvature="0"
     id="path72"
     d="M 155.347,101.851 184.031,78.906"
     style="fill:none;stroke:#000000;stroke-width:1.91330004" />
  <path
     inkscape:connector-curvature="0"
     id="path74"
     d="m 176.863,82.1911 7.168,-3.2851 -4.778,6.2734"
     style="fill:none;stroke:#000000;stroke-width:1.91330004" />
  <path
     inkscape:connector-curvature="0"
     id="path76"
     d="m 126.664,101.851 0,-22.945"
     style="fill:none;stroke:#000000;stroke-width:1.91330004" />
  <path
     inkscape:connector-curvature="0"
     id="path78"
     d="m 124.75,86.5583 1.91,-7.6523 1.91,7.6523"
     style="fill:none;stroke:#000000;stroke-width:1.91330004" />
  <path
     inkscape:connector-curvature="0"
     id="path80"
     d="m 184.035,101.847 0,-22.9449"
     style="fill:none;stroke:#000000;stroke-width:1.91330004" />
  <path
     inkscape:connector-curvature="0"
     id="path82"
     d="m 182.125,86.5544 1.91,-7.6523 1.91,7.6523"
     style="fill:none;stroke:#000000;stroke-width:1.91330004" />
  <path
     inkscape:connector-curvature="0"
     id="path84"
     d="m 126.664,55.9563 28.683,-22.945"
     style="fill:none;stroke:#000000;stroke-width:1.91330004" />
  <path
     inkscape:connector-curvature="0"
     id="path86"
     d="m 148.175,36.2963 7.168,-3.285 -4.777,6.274"
     style="fill:none;stroke:#000000;stroke-width:1.91330004" />
  <path
     inkscape:connector-curvature="0"
     id="path88"
     d="M 184.031,55.9563 155.347,33.0113"
     style="fill:none;stroke:#000000;stroke-width:1.91330004" />
  <path
     inkscape:connector-curvature="0"
     id="path90"
     d="m 160.128,39.2853 -4.777,-6.274 7.168,3.285"
     style="fill:none;stroke:#000000;stroke-width:1.91330004" />
  <path
     inkscape:connector-curvature="0"
     id="path92"
     d="m 124.488,68.3279 0.859,2.5 1.192,0 -2.938,-8.3985 -1.375,0 -2.984,8.3985 1.133,0 0.882,-2.5 3.231,0 z m -0.297,-0.8985 -2.66,0 1.375,-3.8203 1.285,3.8203 z"
     style="fill:#000000;fill-rule:evenodd;stroke:none" />
  <path
     inkscape:connector-curvature="0"
     id="path94"
     d="m 127.546,70.8279 3.809,0 c 0.797,0 1.387,-0.2188 1.84,-0.6993 0.414,-0.4375 0.648,-1.0351 0.648,-1.6914 0,-1.0117 -0.472,-1.625 -1.574,-2.0351 0.766,-0.3555 1.172,-0.9766 1.172,-1.8281 0,-0.6094 -0.227,-1.1485 -0.668,-1.543 -0.437,-0.4024 -1.012,-0.5859 -1.82,-0.5859 l -3.41,0 0.003,8.3828 z m 1.102,-4.6993 0,-2.7968 2.043,0 c 0.59,0 0.918,0.082 1.199,0.3125 0.293,0.2382 0.453,0.6015 0.453,1.0859 0,0.4688 -0.156,0.8438 -0.453,1.0859 -0.281,0.2266 -0.609,0.3125 -1.199,0.3125 l -2.043,0 z m 0,3.8008 0,-2.8984 2.598,0 c 0.511,0 0.855,0.125 1.109,0.4023 0.25,0.2657 0.387,0.6328 0.387,1.0508 0,0.4024 -0.137,0.7734 -0.387,1.0391 -0.25,0.2734 -0.594,0.4023 -1.109,0.4023 l -2.598,0.0039 z"
     style="fill:#000000;fill-rule:evenodd;stroke:none" />
  <path
     inkscape:connector-curvature="0"
     id="path96"
     d="m 195.554,67.3982 c 0,-6.3399 -5.136,-11.4769 -11.476,-11.4769 -6.34,0 -11.477,5.137 -11.477,11.4769 0,6.3398 5.137,11.4765 11.477,11.4765 6.34,0 11.476,-5.1367 11.476,-11.4765"
     style="fill:url(#radialGradient4098);stroke:#000000;stroke-width:1.91330003999999998;fill-opacity:1.0" />
  <path
     inkscape:connector-curvature="0"
     id="path98"
     d="m 177.347,70.8279 3.809,0 c 0.797,0 1.387,-0.2188 1.84,-0.6993 0.414,-0.4375 0.648,-1.0351 0.648,-1.6914 0,-1.0117 -0.473,-1.625 -1.574,-2.0351 0.766,-0.3555 1.172,-0.9766 1.172,-1.8281 0,-0.6094 -0.227,-1.1485 -0.668,-1.543 -0.438,-0.4024 -1.012,-0.5859 -1.821,-0.5859 l -3.41,0 0.004,8.3828 z m 1.098,-4.6993 0,-2.7968 2.043,0 c 0.59,0 0.918,0.082 1.199,0.3125 0.293,0.2382 0.453,0.6015 0.453,1.0859 0,0.4688 -0.156,0.8438 -0.453,1.0859 -0.281,0.2266 -0.609,0.3125 -1.199,0.3125 l -2.043,0 z m 0,3.8008 0,-2.8984 2.598,0 c 0.511,0 0.855,0.125 1.109,0.4023 0.25,0.2657 0.387,0.6328 0.387,1.0508 0,0.4024 -0.137,0.7734 -0.387,1.0391 -0.25,0.2734 -0.594,0.4023 -1.109,0.4023 l -2.598,0.0039 z"
     style="fill:#000000;fill-rule:evenodd;stroke:none" />
  <path
     inkscape:connector-curvature="0"
     id="path100"
     d="m 191.648,65.0544 c -0.336,-1.8281 -1.398,-2.7226 -3.25,-2.7226 -1.133,0 -2.043,0.3554 -2.668,1.0468 -0.762,0.8282 -1.176,2.0235 -1.176,3.3829 0,1.3789 0.426,2.5664 1.223,3.3828 0.644,0.6679 1.476,0.9765 2.574,0.9765 2.055,0 3.211,-1.1133 3.469,-3.3515 l -1.106,0 c -0.089,0.5898 -0.203,0.9922 -0.378,1.3359 -0.344,0.7109 -1.059,1.1133 -1.954,1.1133 -1.668,0 -2.726,-1.3516 -2.726,-3.4727 0,-2.1797 1.012,-3.5234 2.637,-3.5234 0.675,0 1.312,0.2109 1.656,0.5351 0.308,0.293 0.48,0.6524 0.609,1.2852 l 1.09,0.0117 z"
     style="fill:#000000;fill-rule:evenodd;stroke:none" />
  <path
     inkscape:connector-curvature="0"
     id="path102"
     d="m 15.1875,138.164 c -0.1055,0.058 -0.1524,0.058 -0.211,0.058 -0.3398,0 -0.5273,-0.171 -0.5273,-0.472 l 0,-3.567 c 0,-1.074 -0.7774,-1.656 -2.25,-1.656 -0.8672,0 -1.586,0.254 -1.9883,0.703 -0.2734,0.309 -0.3867,0.657 -0.4102,1.258 l 0.9454,0 c 0.0781,-0.73 0.5039,-1.062 1.3867,-1.062 0.8437,0 1.3164,0.32 1.3164,0.898 l 0,0.254 c 0,0.402 -0.2344,0.574 -0.9766,0.668 -1.3242,0.172 -1.5273,0.219 -1.8867,0.367 -0.6836,0.285 -1.0313,0.828 -1.0313,1.613 0,1.094 0.754,1.786 1.9649,1.786 0.7539,0 1.3594,-0.274 2.0351,-0.918 0.0665,0.632 0.3633,0.918 0.9805,0.918 0.1914,0 0.3399,-0.024 0.6485,-0.106 l 0.0039,-0.742 z m -1.7422,-1.297 c 0,0.328 -0.0899,0.531 -0.3672,0.805 -0.3789,0.363 -0.8359,0.554 -1.3828,0.554 -0.7227,0 -1.1485,-0.363 -1.1485,-0.992 0,-0.648 0.4102,-0.98 1.4024,-1.133 0.9804,-0.14 1.1797,-0.187 1.4922,-0.339 l 0.0039,1.105 z"
     style="fill:#000000;fill-rule:evenodd;stroke:none" />
  <path
     inkscape:connector-curvature="0"
     id="path104"
     d="m 16.5039,141.164 c 1.1289,-1.508 1.8398,-3.602 1.8398,-5.406 0,-1.817 -0.7109,-3.911 -1.8398,-5.422 l -0.6172,0 c 1.0039,1.648 1.5625,3.578 1.5625,5.422 0,1.828 -0.5586,3.773 -1.5625,5.406 l 0.6172,0 z"
     style="fill:#000000;fill-rule:evenodd;stroke:none" />
  <path
     inkscape:connector-curvature="0"
     id="path106"
     d="m 24.5468,134.929 4.5547,0 0,-0.898 -4.5547,0 0,-2.797 4.6993,0 0,-0.898 -5.7969,0 0,8.398 6,0 0,-0.898 -4.8985,0 -0.0039,-2.907 z"
     style="fill:#000000;fill-rule:evenodd;stroke:none" />
  <path
     inkscape:connector-curvature="0"
     id="path108"
     d="m 30.9453,138.726 1,0 0,-8.398 -1,0 0,8.398 z"
     style="fill:#000000;fill-rule:evenodd;stroke:none" />
  <path
     inkscape:connector-curvature="0"
     id="path110"
     d="m 38.5468,136.027 c 0,-0.918 -0.0664,-1.469 -0.2382,-1.914 -0.3868,-0.984 -1.3008,-1.582 -2.418,-1.582 -1.6641,0 -2.7383,1.293 -2.7383,3.281 0,1.989 1.0352,3.215 2.7109,3.215 1.3633,0 2.3086,-0.793 2.5508,-2.125 l -0.9531,0 c -0.2617,0.805 -0.793,1.223 -1.5547,1.223 -0.6016,0 -1.1133,-0.278 -1.4297,-0.793 -0.2265,-0.348 -0.3047,-0.699 -0.3164,-1.305 l 4.3867,0 z m -4.4179,-0.765 c 0.0781,-1.114 0.7578,-1.836 1.7187,-1.836 0.9375,0 1.6641,0.777 1.6641,1.765 0,0.02 0,0.043 -0.0117,0.067 l -3.3711,0.004 z"
     style="fill:#000000;fill-rule:evenodd;stroke:none" />
  <path
     inkscape:connector-curvature="0"
     id="path112"
     d="m 39.8476,132.703 0,6.023 1,0 0,-3.808 c 0,-0.879 0.625,-1.586 1.3946,-1.586 0.7031,0 1.1015,0.437 1.1015,1.215 l 0,4.179 1,0 0,-3.808 c 0,-0.879 0.625,-1.586 1.3945,-1.586 0.6914,0 1.1016,0.449 1.1016,1.215 l 0,4.179 1,0 0,-4.519 c 0,-1.078 -0.6211,-1.676 -1.7539,-1.676 -0.8047,0 -1.293,0.242 -1.8555,0.93 -0.3554,-0.649 -0.8398,-0.93 -1.625,-0.93 -0.8047,0 -1.3359,0.297 -1.8554,1.02 l 0,-0.848 -0.9024,0 z"
     style="fill:#000000;fill-rule:evenodd;stroke:none" />
  <path
     inkscape:connector-curvature="0"
     id="path114"
     d="m 54.5468,136.027 c 0,-0.918 -0.0664,-1.469 -0.2382,-1.914 -0.3868,-0.984 -1.3008,-1.582 -2.418,-1.582 -1.6641,0 -2.7383,1.293 -2.7383,3.281 0,1.989 1.0352,3.215 2.7109,3.215 1.3633,0 2.3086,-0.793 2.5508,-2.125 l -0.9531,0 c -0.2617,0.805 -0.793,1.223 -1.5547,1.223 -0.6016,0 -1.1133,-0.278 -1.4297,-0.793 -0.2265,-0.348 -0.3047,-0.699 -0.3164,-1.305 l 4.3867,0 z m -4.4179,-0.765 c 0.0781,-1.114 0.7578,-1.836 1.7187,-1.836 0.9375,0 1.6641,0.777 1.6641,1.765 0,0.02 0,0.043 -0.0117,0.067 l -3.3711,0.004 z"
     style="fill:#000000;fill-rule:evenodd;stroke:none" />
  <path
     inkscape:connector-curvature="0"
     id="path116"
     d="m 55.7461,132.703 0,6.023 1,0 0,-3.347 c 0,-1.239 0.625,-2.051 1.5898,-2.051 0.7383,0 1.207,0.461 1.207,1.191 l 0,4.203 1,0 0,-4.554 c 0,-1 -0.7422,-1.645 -1.9023,-1.645 -0.8906,0 -1.4649,0.344 -1.9922,1.184 l 0,-1.012 -0.9023,0.008 z"
     style="fill:#000000;fill-rule:evenodd;stroke:none" />
  <path
     inkscape:connector-curvature="0"
     id="path118"
     d="m 64.2461,132.726 -0.8985,0 0,-1.668 -1,0 0,1.668 -0.8984,0 0,0.797 0.8984,0 0,4.547 c 0,0.606 0.4024,0.949 1.1328,0.949 0.2227,0 0.4492,-0.023 0.7618,-0.082 l 0,-0.836 c -0.1133,0.09 -0.25,0.118 -0.418,0.118 -0.375,0 -0.4805,-0.114 -0.4805,-0.543 l 0,-4.153 0.8985,0 0.0039,-0.797 z"
     style="fill:#000000;fill-rule:evenodd;stroke:none" />
  <path
     inkscape:connector-curvature="0"
     id="path120"
     d="m 70.6875,138.164 c -0.1055,0.058 -0.1524,0.058 -0.211,0.058 -0.3398,0 -0.5273,-0.171 -0.5273,-0.472 l 0,-3.567 c 0,-1.074 -0.7774,-1.656 -2.25,-1.656 -0.8672,0 -1.586,0.254 -1.9883,0.703 -0.2734,0.309 -0.3867,0.657 -0.4102,1.258 l 0.9454,0 c 0.0781,-0.73 0.5039,-1.062 1.3867,-1.062 0.8437,0 1.3164,0.32 1.3164,0.898 l 0,0.254 c 0,0.402 -0.2344,0.574 -0.9766,0.668 -1.3242,0.172 -1.5273,0.219 -1.8867,0.367 -0.6836,0.285 -1.0313,0.828 -1.0313,1.613 0,1.094 0.754,1.786 1.9649,1.786 0.7539,0 1.3594,-0.274 2.0351,-0.918 0.0665,0.632 0.3633,0.918 0.9805,0.918 0.1914,0 0.3399,-0.024 0.6485,-0.106 l 0.0039,-0.742 z m -1.7422,-1.297 c 0,0.328 -0.0899,0.531 -0.3672,0.805 -0.3789,0.363 -0.8359,0.554 -1.3828,0.554 -0.7227,0 -1.1485,-0.363 -1.1485,-0.992 0,-0.648 0.4102,-0.98 1.4024,-1.133 0.9804,-0.14 1.1797,-0.187 1.4922,-0.339 l 0.0039,1.105 z"
     style="fill:#000000;fill-rule:evenodd;stroke:none" />
  <path
     inkscape:connector-curvature="0"
     id="path122"
     d="m 71.7461,138.726 1,0 0,-8.398 -1,0 0,8.398 z"
     style="fill:#000000;fill-rule:evenodd;stroke:none" />
  <path
     inkscape:connector-curvature="0"
     id="path124"
     d="m 114.847,130.328 0,8.398 0.899,0 0,-0.765 c 0.453,0.722 1.058,1.066 1.894,1.066 1.574,0 2.602,-1.305 2.602,-3.316 0,-1.965 -0.981,-3.18 -2.551,-3.18 -0.82,0 -1.398,0.313 -1.844,0.996 l 0,-3.199 -1,0 z m 2.649,3.109 c 1.066,0 1.754,0.93 1.754,2.364 0,1.363 -0.711,2.293 -1.754,2.293 -1.008,0 -1.676,-0.918 -1.676,-2.329 0,-1.41 0.664,-2.328 1.676,-2.328 z"
     style="fill:#000000;fill-rule:evenodd;stroke:none" />
  <path
     inkscape:connector-curvature="0"
     id="path126"
     d="m 121.703,141.164 c 1.129,-1.508 1.84,-3.602 1.84,-5.406 0,-1.817 -0.711,-3.911 -1.84,-5.422 l -0.617,0 c 1.003,1.648 1.562,3.578 1.562,5.422 0,1.828 -0.559,3.773 -1.562,5.406 l 0.617,0 z"
     style="fill:#000000;fill-rule:evenodd;stroke:none" />
  <path
     inkscape:connector-curvature="0"
     id="path128"
     d="m 135.246,132.953 c -0.336,-1.828 -1.399,-2.723 -3.25,-2.723 -1.133,0 -2.043,0.356 -2.668,1.047 -0.762,0.828 -1.176,2.024 -1.176,3.383 0,1.379 0.426,2.566 1.223,3.383 0.644,0.668 1.476,0.976 2.574,0.976 2.054,0 3.211,-1.113 3.469,-3.351 l -1.106,0 c -0.09,0.59 -0.203,0.992 -0.379,1.336 -0.344,0.711 -1.058,1.113 -1.953,1.113 -1.668,0 -2.727,-1.352 -2.727,-3.473 0,-2.179 1.012,-3.523 2.637,-3.523 0.676,0 1.313,0.211 1.656,0.535 0.309,0.293 0.481,0.652 0.61,1.285 l 1.09,0.012 z"
     style="fill:#000000;fill-rule:evenodd;stroke:none" />
  <path
     inkscape:connector-curvature="0"
     id="path130"
     d="m 139.086,132.527 c -1.704,0 -2.735,1.215 -2.735,3.25 0,2.035 1.02,3.25 2.75,3.25 1.703,0 2.75,-1.211 2.75,-3.199 0,-2.09 -1.008,-3.293 -2.758,-3.293 l -0.007,-0.008 z m 0.011,0.902 c 1.094,0 1.75,0.887 1.75,2.383 0,1.414 -0.676,2.313 -1.75,2.313 -1.082,0 -1.75,-0.887 -1.75,-2.348 0,-1.449 0.664,-2.348 1.75,-2.348 z"
     style="fill:#000000;fill-rule:evenodd;stroke:none" />
  <path
     inkscape:connector-curvature="0"
     id="path132"
     d="m 143.148,132.703 0,6.023 1,0 0,-3.347 c 0,-1.239 0.625,-2.051 1.59,-2.051 0.738,0 1.207,0.461 1.207,1.191 l 0,4.203 1,0 0,-4.554 c 0,-1 -0.742,-1.645 -1.902,-1.645 -0.891,0 -1.465,0.344 -1.993,1.184 l 0,-1.012 -0.902,0.008 z"
     style="fill:#000000;fill-rule:evenodd;stroke:none" />
  <path
     inkscape:connector-curvature="0"
     id="path134"
     d="m 149.445,132.726 0,6.903 c 0,0.597 -0.192,0.793 -0.777,0.793 -0.032,0 -0.032,0 -0.227,0 l 0,0.765 c 0.113,0.02 0.176,0.032 0.328,0.032 1.102,0 1.676,-0.434 1.676,-1.247 l 0,-7.25 -1,0.004 z m 1,-2.398 -1,0 0,1.199 1,0 0,-1.199 z"
     style="fill:#000000;fill-rule:evenodd;stroke:none" />
  <path
     inkscape:connector-curvature="0"
     id="path136"
     d="m 156.847,138.762 0,-6.032 -1,0 0,3.446 c 0,1.238 -0.644,2.05 -1.652,2.05 -0.762,0 -1.246,-0.461 -1.246,-1.191 l 0,-4.305 -1,0 0,4.653 c 0,1 0.758,1.644 1.949,1.644 0.898,0 1.473,-0.308 2.047,-1.101 l 0,0.839 0.902,-0.003 z"
     style="fill:#000000;fill-rule:evenodd;stroke:none" />
  <path
     inkscape:connector-curvature="0"
     id="path138"
     d="m 158.445,132.703 0,6.023 1,0 0,-3.347 c 0,-1.239 0.625,-2.051 1.59,-2.051 0.738,0 1.207,0.461 1.207,1.191 l 0,4.203 1,0 0,-4.554 c 0,-1 -0.742,-1.645 -1.903,-1.645 -0.89,0 -1.464,0.344 -1.992,1.184 l 0,-1.012 -0.902,0.008 z"
     style="fill:#000000;fill-rule:evenodd;stroke:none" />
  <path
     inkscape:connector-curvature="0"
     id="path140"
     d="m 169.453,134.734 c -0.043,-0.586 -0.168,-0.969 -0.399,-1.305 -0.406,-0.562 -1.125,-0.898 -1.953,-0.898 -1.601,0 -2.648,1.293 -2.648,3.305 0,1.953 1.023,3.191 2.636,3.191 1.422,0 2.321,-0.871 2.434,-2.363 l -0.953,0 c -0.156,0.976 -0.645,1.465 -1.449,1.465 -1.043,0 -1.668,-0.864 -1.668,-2.289 0,-1.508 0.609,-2.407 1.644,-2.407 0.793,0 1.293,0.469 1.406,1.305 l 0.95,-0.004 z"
     style="fill:#000000;fill-rule:evenodd;stroke:none" />
  <path
     inkscape:connector-curvature="0"
     id="path142"
     d="m 172.648,132.726 -0.898,0 0,-1.668 -1,0 0,1.668 -0.899,0 0,0.797 0.899,0 0,4.547 c 0,0.606 0.402,0.949 1.132,0.949 0.223,0 0.45,-0.023 0.762,-0.082 l 0,-0.836 c -0.113,0.09 -0.25,0.118 -0.418,0.118 -0.375,0 -0.48,-0.114 -0.48,-0.543 l 0,-4.153 0.898,0 0.004,-0.797 z"
     style="fill:#000000;fill-rule:evenodd;stroke:none" />
  <path
     inkscape:connector-curvature="0"
     id="path144"
     d="m 174.648,132.726 -1,0 0,6 1,0 0,-6 z m 0,-2.398 -1,0 0,1.234 1,0 0,-1.234 z"
     style="fill:#000000;fill-rule:evenodd;stroke:none" />
  <path
     inkscape:connector-curvature="0"
     id="path146"
     d="m 178.718,138.726 2.305,-6 -1.078,0 -1.695,4.86 -1.606,-4.86 -1.078,0 2.109,6 1.043,0 z"
     style="fill:#000000;fill-rule:evenodd;stroke:none" />
  <path
     inkscape:connector-curvature="0"
     id="path148"
     d="m 187.148,136.027 c 0,-0.918 -0.066,-1.469 -0.238,-1.914 -0.387,-0.984 -1.301,-1.582 -2.418,-1.582 -1.664,0 -2.739,1.293 -2.739,3.281 0,1.989 1.036,3.215 2.711,3.215 1.364,0 2.309,-0.793 2.551,-2.125 l -0.953,0 c -0.262,0.805 -0.793,1.223 -1.555,1.223 -0.601,0 -1.113,-0.278 -1.429,-0.793 -0.227,-0.348 -0.305,-0.699 -0.317,-1.305 l 4.387,0 z m -4.422,-0.765 c 0.078,-1.114 0.758,-1.836 1.719,-1.836 0.937,0 1.664,0.777 1.664,1.765 0,0.02 0,0.043 -0.012,0.067 l -3.371,0.004 z"
     style="fill:#000000;fill-rule:evenodd;stroke:none" />
  <path
     inkscape:connector-curvature="0"
     id="path150"
     d="m 155.339,101.859 0,-68.8397"
     style="fill:none;stroke:#000000;stroke-width:1.91330004" />
  <path
     inkscape:connector-curvature="0"
     id="path152"
     d="m 153.425,40.6713 1.911,-7.652 1.91,7.652"
     style="fill:none;stroke:#000000;stroke-width:1.91330004" />
  <path
     inkscape:connector-curvature="0"
     id="path154"
     d="m 200.273,61.4294 c -1.117,1.5078 -1.824,3.6016 -1.824,5.4102 0,1.8164 0.703,3.9101 1.824,5.4179 l 0.613,0 c -0.988,-1.6445 -1.539,-3.5781 -1.539,-5.4179 0,-1.8281 0.551,-3.7735 1.539,-5.4102 l -0.613,0 z"
     style="fill:#000000;fill-rule:evenodd;stroke:none" />
  <path
     inkscape:connector-curvature="0"
     id="path156"
     d="m 202.148,61.4294 0,8.3985 1,0 0,-3.3477 c 0,-1.2383 0.625,-2.0508 1.59,-2.0508 0.301,0 0.601,0.1016 0.828,0.2774 0.266,0.1953 0.379,0.4843 0.379,0.914 l 0,4.2032 1,0 0,-4.5547 c 0,-1.0118 -0.719,-1.6446 -1.883,-1.6446 -0.844,0 -1.355,0.2657 -1.914,1.0078 l 0,-3.2109 -1,0.0078 z"
     style="fill:#000000;fill-rule:evenodd;stroke:none" />
  <path
     inkscape:connector-curvature="0"
     id="path158"
     d="m 209.445,63.8279 -1,0 0,6 1,0 0,-6 z m 0,-2.3985 -1,0 0,1.2344 1,0 0,-1.2344 z"
     style="fill:#000000;fill-rule:evenodd;stroke:none" />
  <path
     inkscape:connector-curvature="0"
     id="path160"
     d="m 210.847,72.3318 1,0 0,-3.1016 c 0.5,0.6211 1.063,0.8984 1.836,0.8984 1.543,0 2.559,-1.2578 2.559,-3.1914 0,-2.0312 -0.985,-3.3047 -2.582,-3.3047 -0.813,0 -1.469,0.3672 -1.914,1.0782 l 0,-0.9063 -0.899,0 0,8.5274 z m 2.664,-7.8047 c 1.047,0 1.731,0.9336 1.731,2.3828 0,1.375 -0.696,2.3125 -1.731,2.3125 -1.004,0 -1.664,-0.9258 -1.664,-2.3477 0,-1.4218 0.66,-2.3476 1.664,-2.3476 z"
     style="fill:#000000;fill-rule:evenodd;stroke:none" />
  <path
     inkscape:connector-curvature="0"
     id="path162"
     d="m 217.246,72.3318 1,0 0,-3.1016 c 0.5,0.6211 1.062,0.8984 1.836,0.8984 1.543,0 2.558,-1.2578 2.558,-3.1914 0,-2.0312 -0.984,-3.3047 -2.582,-3.3047 -0.812,0 -1.469,0.3672 -1.914,1.0782 l 0,-0.9063 -0.898,0 0,8.5274 z m 2.664,-7.8047 c 1.047,0 1.73,0.9336 1.73,2.3828 0,1.375 -0.695,2.3125 -1.73,2.3125 -1.004,0 -1.664,-0.9258 -1.664,-2.3477 0,-1.4218 0.66,-2.3476 1.664,-2.3476 z"
     style="fill:#000000;fill-rule:evenodd;stroke:none" />
  <path
     inkscape:connector-curvature="0"
     id="path164"
     d="m 226.183,63.6286 c -1.703,0 -2.734,1.2149 -2.734,3.25 0,2.0352 1.019,3.25 2.75,3.25 1.703,0 2.75,-1.2109 2.75,-3.1992 0,-2.0898 -1.008,-3.2929 -2.758,-3.2929 l -0.008,-0.0079 z m 0.012,0.8985 c 1.094,0 1.75,0.8867 1.75,2.3828 0,1.4141 -0.676,2.3125 -1.75,2.3125 -1.082,0 -1.75,-0.8867 -1.75,-2.3477 0,-1.4492 0.664,-2.3476 1.75,-2.3476 z"
     style="fill:#000000;fill-rule:evenodd;stroke:none" />
  <path
     inkscape:connector-curvature="0"
     id="path166"
     d="m 230.503,72.2615 c 1.129,-1.5079 1.84,-3.6016 1.84,-5.4063 0,-1.8164 -0.711,-3.9101 -1.84,-5.4219 l -0.617,0 c 1.004,1.6485 1.563,3.5782 1.563,5.4219 0,1.8281 -0.559,3.7734 -1.563,5.4063 l 0.617,0 z"
     style="fill:#000000;fill-rule:evenodd;stroke:none" />
  <path
     inkscape:connector-curvature="0"
     id="path168"
     d="m 200.273,107.328 c -1.117,1.508 -1.824,3.601 -1.824,5.41 0,1.816 0.703,3.91 1.824,5.418 l 0.613,0 c -0.988,-1.644 -1.539,-3.578 -1.539,-5.418 0,-1.828 0.551,-3.773 1.539,-5.41 l -0.613,0 z"
     style="fill:#000000;fill-rule:evenodd;stroke:none" />
  <path
     inkscape:connector-curvature="0"
     id="path170"
     d="m 206.753,111.734 c -0.043,-0.586 -0.167,-0.969 -0.398,-1.305 -0.406,-0.562 -1.125,-0.898 -1.953,-0.898 -1.602,0 -2.649,1.293 -2.649,3.305 0,1.953 1.024,3.191 2.637,3.191 1.422,0 2.32,-0.871 2.434,-2.363 l -0.953,0 c -0.157,0.976 -0.645,1.465 -1.45,1.465 -1.043,0 -1.668,-0.864 -1.668,-2.289 0,-1.508 0.61,-2.407 1.645,-2.407 0.793,0 1.293,0.469 1.406,1.305 l 0.949,-0.004 z"
     style="fill:#000000;fill-rule:evenodd;stroke:none" />
  <path
     inkscape:connector-curvature="0"
     id="path172"
     d="m 210.183,109.527 c -1.703,0 -2.734,1.215 -2.734,3.25 0,2.035 1.019,3.25 2.75,3.25 1.703,0 2.75,-1.211 2.75,-3.199 0,-2.09 -1.008,-3.293 -2.758,-3.293 l -0.008,-0.008 z m 0.012,0.902 c 1.094,0 1.75,0.887 1.75,2.383 0,1.414 -0.676,2.313 -1.75,2.313 -1.082,0 -1.75,-0.887 -1.75,-2.348 0,-1.449 0.664,-2.348 1.75,-2.348 z"
     style="fill:#000000;fill-rule:evenodd;stroke:none" />
  <path
     inkscape:connector-curvature="0"
     id="path174"
     d="m 214.246,109.703 0,6.023 1,0 0,-3.132 c 0,-0.864 0.211,-1.426 0.66,-1.762 0.289,-0.219 0.57,-0.285 1.222,-0.297 l 0,-0.965 c -0.156,-0.019 -0.234,-0.031 -0.359,-0.031 -0.609,0 -1.074,0.367 -1.621,1.262 l 0,-1.09 -0.902,-0.008 z"
     style="fill:#000000;fill-rule:evenodd;stroke:none" />
  <path
     inkscape:connector-curvature="0"
     id="path176"
     d="m 220.148,109.726 -0.898,0 0,-1.668 -1,0 0,1.668 -0.899,0 0,0.797 0.899,0 0,4.547 c 0,0.606 0.402,0.949 1.132,0.949 0.223,0 0.45,-0.023 0.762,-0.082 l 0,-0.836 c -0.113,0.09 -0.25,0.118 -0.418,0.118 -0.375,0 -0.48,-0.114 -0.48,-0.543 l 0,-4.153 0.898,0 0.004,-0.797 z"
     style="fill:#000000;fill-rule:evenodd;stroke:none" />
  <path
     inkscape:connector-curvature="0"
     id="path178"
     d="m 226.347,113.027 c 0,-0.918 -0.066,-1.469 -0.238,-1.914 -0.387,-0.984 -1.301,-1.582 -2.418,-1.582 -1.664,0 -2.738,1.293 -2.738,3.281 0,1.989 1.035,3.215 2.711,3.215 1.363,0 2.308,-0.793 2.55,-2.125 l -0.953,0 c -0.261,0.805 -0.793,1.223 -1.554,1.223 -0.602,0 -1.114,-0.278 -1.43,-0.793 -0.227,-0.348 -0.305,-0.699 -0.317,-1.305 l 4.387,0 z m -4.422,-0.765 c 0.078,-1.114 0.758,-1.836 1.719,-1.836 0.938,0 1.664,0.777 1.664,1.765 0,0.02 0,0.043 -0.012,0.067 l -3.371,0.004 z"
     style="fill:#000000;fill-rule:evenodd;stroke:none" />
  <path
     inkscape:connector-curvature="0"
     id="path180"
     d="m 230.199,112.625 2.019,-2.895 -1.078,0 -1.445,2.164 -1.445,-2.164 -1.09,0 2.008,2.942 -2.122,3.054 1.09,0 1.524,-2.304 1.504,2.304 1.113,0 -2.078,-3.101 z"
     style="fill:#000000;fill-rule:evenodd;stroke:none" />
  <path
     inkscape:connector-curvature="0"
     id="path182"
     d="m 233.703,118.164 c 1.129,-1.508 1.84,-3.602 1.84,-5.406 0,-1.817 -0.711,-3.911 -1.84,-5.422 l -0.617,0 c 1.003,1.648 1.562,3.578 1.562,5.422 0,1.828 -0.559,3.773 -1.562,5.406 l 0.617,0 z"
     style="fill:#000000;fill-rule:evenodd;stroke:none" />
  <path
     inkscape:connector-curvature="0"
     id="path184"
     d="M 132.39,103.773 155.336,33.0193"
     style="fill:none;stroke:#000000;stroke-width:1.91330004" />
  <path
     inkscape:connector-curvature="0"
     id="path186"
     d="m 151.16,39.7063 4.179,-6.687 -0.539,7.867"
     style="fill:none;stroke:#000000;stroke-width:1.91330004" />
  <path
     inkscape:connector-curvature="0"
     id="path188"
     d="M 178.289,103.773 155.343,33.0193"
     style="fill:none;stroke:#000000;stroke-width:1.91330004" />
  <path
     inkscape:connector-curvature="0"
     id="path190"
     d="m 155.878,40.8863 -0.539,-7.867 4.18,6.687"
     style="fill:none;stroke:#000000;stroke-width:1.91330004" />
</svg>
