<?xml version="1.0" encoding="ISO-8859-1" standalone="yes"?>
<svg width="378.151" height="445.491">
  <defs> 
    <marker id="ArrowEnd" viewBox="0 0 10 10" refX="0" refY="5" 
     markerUnits="strokeWidth" 
     markerWidth="4" 
     markerHeight="3" 
     orient="auto"> 
        <path d="M 0 0 L 10 5 L 0 10 z" /> 
    </marker>
    <marker id="ArrowStart" viewBox="0 0 10 10" refX="10" refY="5" 
     markerUnits="strokeWidth" 
     markerWidth="4" 
     markerHeight="3" 
     orient="auto"> 
        <path d="M 10 0 L 0 5 L 10 10 z" /> 
    </marker> </defs>
<g>
<path style="stroke:none; fill-rule:evenodd; fill:#000000" d="M 7.7969 168.956L 14.1953 168.956L 14.1953 167.159L 0.195301 167.159L 0.195301 168.956L 6.1953 168.956L 6.1953 176.155L 0.195301 176.155L 0.195301 177.952L 14.1953 177.952L 14.1953 176.155L 7.7969 176.155L 7.7969 168.956z"/>
<path style="stroke:none; fill-rule:evenodd; fill:#000000" d="M 4.0976 162.757L 4.0976 164.354L 14.1953 164.354L 14.1953 162.757L 4.0976 162.757zM 0.1992 162.757L 0.1992 164.354L 2.2226 164.354L 2.2226 162.757L 0.1992 162.757z"/>
<path style="stroke:none; fill-rule:evenodd; fill:#000000" d="M 18.3828 160.456L 18.3828 158.858L 13.1015 158.858C 14.1367 158.015 14.6015 157.073 14.6015 155.765C 14.6015 153.171 12.5273 151.46 9.3476 151.46C 6 151.46 3.9062 153.104 3.9062 155.765C 3.9062 157.12 4.5156 158.21 5.7031 158.956L 4.1953 158.956L 4.1953 160.456L 18.3828 160.456zM 5.3984 156.018C 5.3984 154.229 6.9336 153.061 9.3047 153.061C 11.5586 153.061 13.0937 154.249 13.0937 156.018C 13.0937 157.729 11.5781 158.858 9.2461 158.858C 6.918 158.858 5.3984 157.729 5.3984 156.018z"/>
<path style="stroke:none; fill-rule:evenodd; fill:#000000" d="M 18.3828 149.757L 18.3828 148.159L 13.1015 148.159C 14.1367 147.315 14.6015 146.374 14.6015 145.065C 14.6015 142.472 12.5273 140.761 9.3476 140.761C 6 140.761 3.9062 142.405 3.9062 145.065C 3.9062 146.421 4.5156 147.511 5.7031 148.257L 4.1953 148.257L 4.1953 149.757L 18.3828 149.757zM 5.3984 145.315C 5.3984 143.526 6.9336 142.358 9.3047 142.358C 11.5586 142.358 13.0937 143.546 13.0937 145.315C 13.0937 147.026 11.5781 148.155 9.2461 148.155C 6.918 148.155 5.3984 147.026 5.3984 145.315z"/>
<path style="stroke:none; fill-rule:evenodd; fill:#000000" d="M 3.8984 134.827C 3.8984 137.647 5.8984 139.354 9.2461 139.354C 12.5937 139.354 14.5937 137.667 14.5937 134.808C 14.5937 131.987 12.5976 130.261 9.3242 130.261C 5.8828 130.261 3.8984 131.929 3.8984 134.827zM 5.3984 134.808C 5.3984 132.96 6.8476 131.858 9.3008 131.858C 11.6211 131.858 13.0937 132.999 13.0937 134.808C 13.0937 136.636 11.6445 137.757 9.2461 137.757C 6.8711 137.757 5.3984 136.64 5.3984 134.808z"/>
<path style="stroke:none; fill-rule:evenodd; fill:#000000" d="M 7.5195 120.417C 6.5664 120.491 5.9453 120.702 5.4023 121.089C 4.4609 121.776 3.9023 122.987 3.9023 124.386C 3.9023 127.089 6.0351 128.854 9.3437 128.854C 12.5586 128.854 14.5976 127.132 14.5976 124.405C 14.5976 122.011 13.1758 120.495 10.7461 120.3L 10.7461 121.925C 12.3125 122.194 13.0976 123.026 13.0976 124.401C 13.0976 126.183 11.6836 127.249 9.3437 127.249C 6.875 127.249 5.4023 126.206 5.4023 124.44C 5.4023 123.085 6.164 122.233 7.5195 122.042L 7.5195 120.417z"/>
<path style="stroke:none; fill-rule:evenodd; fill:#000000" d="M 13.2578 109.589C 13.2969 109.753 13.2969 109.827 13.2969 109.921C 13.2969 110.456 13.0117 110.753 12.5156 110.753L 6.6367 110.753C 4.8633 110.753 3.9062 112.061 3.9062 114.554C 3.9062 116.018 4.3203 117.233 5.0586 117.909C 5.5664 118.37 6.1367 118.561 7.1211 118.601L 7.1211 116.983C 5.9414 116.851 5.4062 116.116 5.4062 114.612C 5.4062 113.167 5.9375 112.354 6.8828 112.354L 7.3008 112.354C 7.9609 112.354 8.2461 112.757 8.3984 114.034C 8.6797 116.311 8.7578 116.659 9.0039 117.276C 9.4765 118.452 10.3672 119.05 11.6562 119.05C 13.457 119.05 14.5937 117.784 14.5937 115.749C 14.5937 114.483 14.168 113.468 13.1601 112.331C 14.1445 112.218 14.5937 111.718 14.5937 110.683C 14.5937 110.358 14.5586 110.108 14.4258 109.589L 13.2578 109.589zM 11.0117 112.358C 11.543 112.358 11.8633 112.515 12.3008 113.003C 12.8867 113.667 13.1914 114.472 13.1914 115.433C 13.1914 116.706 12.6054 117.452 11.5976 117.452C 10.5547 117.452 10.0234 116.729 9.7773 114.983C 9.5508 113.261 9.4765 112.905 9.2265 112.354L 11.0117 112.358z"/>
<path style="stroke:none; fill-rule:evenodd; fill:#000000" d="M 4.1875 107.858L 14.1953 107.858L 14.1953 106.261L 7.914 106.261C 6.4648 106.261 5.3008 105.186 5.3008 103.858C 5.3008 102.647 6.0273 101.964 7.3047 101.964L 14.1953 101.964L 14.1953 100.366L 7.914 100.366C 6.4648 100.366 5.3008 99.3193 5.3008 98.0223C 5.3008 96.8623 6.043 96.1713 7.3047 96.1713L 14.1953 96.1713L 14.1953 94.5733L 6.6875 94.5733C 4.8945 94.5733 3.8984 95.6083 3.8984 97.4913C 3.8984 98.8313 4.289 99.6363 5.3867 100.577C 4.3437 101.171 3.8984 101.976 3.8984 103.28C 3.8984 104.62 4.3945 105.503 5.5976 106.366L 4.1875 106.366L 4.1875 107.858z"/>
<path style="stroke:none; fill-rule:evenodd; fill:#000000" d="M 18.3828 92.1593L 18.3828 90.5613L 13.1015 90.5613C 14.1367 89.7183 14.6015 88.7763 14.6015 87.4683C 14.6015 84.8743 12.5273 83.1633 9.3476 83.1633C 6 83.1633 3.9062 84.8083 3.9062 87.4683C 3.9062 88.8233 4.5156 89.9133 5.7031 90.6593L 4.1953 90.6593L 4.1953 92.1593L 18.3828 92.1593zM 5.3984 87.7183C 5.3984 85.9293 6.9336 84.7613 9.3047 84.7613C 11.5586 84.7613 13.0937 85.9483 13.0937 87.7183C 13.0937 89.4293 11.5781 90.5583 9.2461 90.5583C 6.918 90.5583 5.3984 89.4293 5.3984 87.7183z"/>
<path style="stroke:none; fill-rule:evenodd; fill:#000000" d="M 14.1562 73.1593L 4.0976 73.1593L 4.0976 74.7573L 9.7969 74.7573C 11.8476 74.7573 13.1914 75.8513 13.1914 77.5463C 13.1914 78.8313 12.4258 79.6513 11.2148 79.6513L 4.0937 79.6513L 4.0937 81.2493L 11.8476 81.2493C 13.5156 81.2493 14.5898 79.9953 14.5898 78.0263C 14.5898 76.5423 14.0742 75.5973 12.75 74.6513L 14.1484 74.6513L 14.1562 73.1593z"/>
<path style="stroke:none; fill-rule:evenodd; fill:#000000" d="M 6.9414 63.4523C 4.9961 63.4723 3.8984 64.7763 3.8984 67.0973C 3.8984 69.4363 5.0937 70.9523 6.9336 70.9523C 8.4883 70.9523 9.2265 70.1403 9.7969 67.7373L 10.1562 66.2263C 10.4219 65.1043 10.8164 64.6593 11.539 64.6593C 12.4648 64.6593 13.0937 65.6043 13.0937 67.0183C 13.0937 67.8903 12.8554 68.6243 12.4453 69.0303C 12.168 69.2803 11.8906 69.3973 11.2031 69.4953L 11.2031 71.1983C 13.4961 71.1243 14.5937 69.8193 14.5937 67.1943C 14.5937 64.6673 13.3633 63.0543 11.4492 63.0543C 9.9726 63.0543 9.1562 63.9053 8.6836 65.9213L 8.3242 67.4723C 8.0234 68.7883 7.6054 69.3513 6.9023 69.3513C 5.9961 69.3513 5.4023 68.5153 5.4023 67.1983C 5.4023 65.8973 5.9336 65.1983 6.9453 65.1593L 6.9414 63.4523z"/>
<path style="stroke:none; fill-rule:evenodd; fill:#000000" d="M 4.543 349.952C 1.4883 350.511 0 352.276 0 355.354C 0 357.237 0.589798 358.757 1.7383 359.792C 3.1133 361.058 5.0976 361.753 7.3554 361.753C 9.6484 361.753 11.6133 361.042 12.9726 359.718C 14.0781 358.644 14.5937 357.257 14.5937 355.433C 14.5937 352.011 12.7695 350.089 9.0898 349.667L 9.0898 351.511C 10.0312 351.663 10.6719 351.854 11.2187 352.144C 12.3476 352.718 12.9883 353.909 12.9883 355.405C 12.9883 358.186 10.7851 359.956 7.3281 359.956C 3.7773 359.956 1.5898 358.268 1.5898 355.561C 1.5898 354.429 1.9297 353.374 2.457 352.8C 2.9258 352.284 3.5117 351.995 4.5312 351.784L 4.543 349.952z"/>
<path style="stroke:none; fill-rule:evenodd; fill:#000000" d="M 3.8984 343.526C 3.8984 346.347 5.8984 348.054 9.2461 348.054C 12.5937 348.054 14.5937 346.366 14.5937 343.507C 14.5937 340.686 12.5976 338.96 9.3242 338.96C 5.8828 338.96 3.8984 340.628 3.8984 343.526zM 5.3984 343.507C 5.3984 341.659 6.8476 340.558 9.3008 340.558C 11.6211 340.558 13.0937 341.698 13.0937 343.507C 13.0937 345.335 11.6445 346.456 9.2461 346.456C 6.8711 346.456 5.3984 345.339 5.3984 343.507z"/>
<path style="stroke:none; fill-rule:evenodd; fill:#000000" d="M 4.1875 336.757L 14.1953 336.757L 14.1953 335.159L 9.0117 335.159C 7.582 335.159 6.6484 334.792 6.0976 334.015C 5.7383 333.511 5.6211 333.026 5.6054 331.901L 3.9648 331.901C 3.9297 332.171 3.9101 332.304 3.9101 332.515C 3.9101 333.55 4.5234 334.335 6.0117 335.257L 4.1992 335.257L 4.1875 336.757z"/>
<path style="stroke:none; fill-rule:evenodd; fill:#000000" d="M 4.0976 326.858L 4.0976 328.558L 1.3789 328.558L 1.3789 330.155L 4.0976 330.155L 4.0976 331.452L 5.3945 331.452L 5.3945 330.155L 13 330.155C 14.0156 330.155 14.5937 329.456 14.5937 328.186C 14.5937 327.796 14.5586 327.409 14.4648 326.858L 13.1601 326.858C 13.1836 327.073 13.1953 327.331 13.1953 327.647C 13.1953 328.358 13.0039 328.554 12.293 328.554L 5.3984 328.554L 5.3984 326.854L 4.0976 326.858z"/>
<path style="stroke:none; fill-rule:evenodd; fill:#000000" d="M 9.6992 316.456C 8.1797 316.456 7.2656 316.569 6.5273 316.858C 4.8945 317.511 3.9062 319.05 3.9062 320.933C 3.9062 323.737 6.039 325.546 9.3125 325.546C 12.5859 325.546 14.6015 323.808 14.6015 320.995C 14.6015 318.702 13.3164 317.116 11.1523 316.714L 11.1523 318.331C 12.4336 318.772 13.1015 319.679 13.1015 320.972C 13.1015 321.991 12.6523 322.862 11.8203 323.401C 11.2578 323.784 10.6875 323.921 9.707 323.94L 9.6992 316.456zM 8.4023 323.882C 6.543 323.749 5.332 322.616 5.332 321.003C 5.332 319.433 6.6367 318.222 8.2851 318.222C 8.3203 318.222 8.3594 318.222 8.3984 318.237L 8.4023 323.882z"/>
<path style="stroke:none; fill-rule:evenodd; fill:#000000" d="M 8.9726 310.054L 4.0976 306.679L 4.0976 308.479L 7.7851 310.897L 4.0976 313.315L 4.0976 315.136L 9.0508 311.78L 14.1953 315.331L 14.1953 313.511L 10.3398 310.96L 14.1953 308.448L 14.1953 306.589L 8.9726 310.054z"/>
<path style="stroke:#000000; stroke-width:1.59941; fill:none" d="M 212.058 412.105L 194.015 410.101L 212.058 412.105z"/>
<path style="stroke:#000000; stroke-width:1.59941; fill:none" d="M 205.375 417.448L 207.379 405.421L 212.054 412.101L 205.375 417.448z"/>
<path style="stroke:#000000; stroke-width:1.59941; fill:none" d="M 191.34 400.741L 222.746 255.726L 191.34 400.741z"/>
<path style="stroke:#000000; stroke-width:1.59941; fill:none" d="M 186.664 393.39L 198.691 396.062L 191.344 400.737L 186.664 393.39z"/>
<path style="stroke:#000000; stroke-width:1.59941; fill:none" d="M 187.652 303.151L 198.996 307.362L 191.219 310.925L 187.652 303.151z"/>
<path style="stroke:#000000; stroke-width:1.59941; fill:none" d="M 172.629 400.741L 181.984 337.257L 172.629 400.741z"/>
<path style="stroke:#000000; stroke-width:1.59941; fill:none" d="M 167.953 394.058L 179.312 395.394L 172.633 400.737L 167.953 394.058z"/>
<path style="stroke:#000000; stroke-width:1.59941; fill:none" d="M 188 337.257L 181.988 400.741L 188 337.257z"/>
<path style="stroke:#000000; stroke-width:1.59941; fill:none" d="M 193.344 343.936L 181.316 342.601L 187.996 337.257L 193.344 343.936z"/>
<path style="stroke:#000000; stroke-width:1.59941; fill:none" d="M 123.844 282.456L 149.906 255.726L 123.844 282.456z"/>
<path style="stroke:#000000; stroke-width:1.59941; fill:none" d="M 123.844 273.768L 131.859 282.452L 123.844 282.452L 123.844 273.768z"/>
<path style="stroke:#000000; stroke-width:1.59941; fill:none" d="M 154.586 407.425L 99.7892 325.229L 154.586 407.425z"/>
<path style="stroke:#000000; stroke-width:1.59941; fill:none" d="M 146.566 405.421L 156.59 398.741L 154.586 407.425L 146.566 405.421z"/>
<path style="stroke:#000000; stroke-width:1.59941; fill:none" d="M 103.797 319.214L 158.594 400.741L 103.797 319.214z"/>
<path style="stroke:#000000; stroke-width:1.59941; fill:none" d="M 111.816 321.218L 101.793 327.897L 103.797 319.21L 111.816 321.218z"/>
<path style="stroke:#000000; stroke-width:1.59941; fill:none" d="M 161.937 317.874L 113.824 303.175L 161.937 317.874z"/>
<path style="stroke:#000000; stroke-width:1.59941; fill:none" d="M 154.586 321.886L 157.926 310.526L 161.933 317.874L 154.586 321.886z"/>
<path style="stroke:#000000; stroke-width:1.59941; fill:none" d="M 108.472 309.186L 157.922 324.554L 108.472 309.186z"/>
<path style="stroke:#000000; stroke-width:1.59941; fill:none" d="M 115.824 305.179L 112.484 316.538L 108.476 309.19L 115.824 305.179z"/>
<path style="stroke:#000000; stroke-width:1.59941; fill:none" d="M 85.0862 337.257L 107.137 363.987L 85.0862 337.257z"/>
<path style="stroke:#000000; stroke-width:1.59941; fill:none" d="M 93.1052 337.925L 84.4222 345.272L 85.0902 337.253L 93.1052 337.925z"/>
<path style="stroke:#000000; stroke-width:1.59941; fill:none" d="M 228.765 200.257L 275.543 91.9993L 228.765 200.257z"/>
<path style="stroke:#000000; stroke-width:1.59941; fill:none" d="M 225.422 192.905L 236.113 197.581L 228.765 200.253L 225.422 192.905z"/>
<path style="stroke:#000000; stroke-width:1.59941; fill:none" d="M 173.297 83.9793L 155.254 83.3113L 173.297 83.9793z"/>
<path style="stroke:#000000; stroke-width:1.59941; fill:none" d="M 167.285 89.3233L 167.285 77.9643L 173.297 83.9763L 167.285 89.3233z"/>
<path style="stroke:#000000; stroke-width:1.59941; fill:none" d="M 222.75 91.9953L 144.562 200.253L 222.75 91.9953z"/>
<path style="stroke:#000000; stroke-width:1.59941; fill:none" d="M 224.086 100.018L 214.73 93.3393L 222.75 92.0033L 224.086 100.018z"/>
<path style="stroke:#000000; stroke-width:1.59941; fill:none" d="M 140.551 91.9953L 148.57 128.081L 140.551 91.9953z"/>
<path style="stroke:#000000; stroke-width:1.59941; fill:none" d="M 147.902 96.6753L 135.875 98.6793L 140.551 91.9993L 147.902 96.6753z"/>
<path style="stroke:#000000; stroke-width:1.59941; fill:none" d="M 179.98 43.2143L 196.015 43.2143L 180.648 67.2683L 164.613 67.2683"/>
<path style="stroke:#000000; stroke-width:1.59941; fill:none" d="M 170.625 61.2573L 170.625 73.2843L 164.613 67.2723L 170.625 61.2573z"/>
<path style="stroke:#000000; stroke-width:1.59941; fill:none" d="M 103.129 91.9953L 129.191 200.253L 103.129 91.9953z"/>
<path style="stroke:#000000; stroke-width:1.59941; fill:none" d="M 109.812 96.0073L 98.4532 98.6793L 103.129 91.9993L 109.812 96.0073z"/>
<path style="stroke:#000000; stroke-width:1.59941; fill:none" d="M 98.4492 173.526L 113.148 200.257L 98.4492 173.526z"/>
<path style="stroke:#000000; stroke-width:1.59941; fill:none" d="M 106.469 176.202L 95.7772 181.546L 98.4492 173.53L 106.469 176.202z"/>
<path style="stroke:#000000; stroke-width:1.59941; fill:none" d="M 118.5 255.726L 164.609 400.741L 118.5 255.726z"/>
<path style="stroke:#000000; stroke-width:1.59941; fill:none" d="M 125.847 259.065L 114.488 263.073L 118.496 255.726L 125.847 259.065z"/>
<path style="stroke:#000000; stroke-width:1.59941; fill:none" d="M 131.195 255.726L 164.605 311.19L 131.195 255.726z"/>
<path style="stroke:#000000; stroke-width:1.59941; fill:none" d="M 139.215 257.729L 129.191 263.741L 131.195 255.726L 139.215 257.729z"/>
<path style="stroke:#000000; stroke-width:1.59941; fill:none" d="M 86.4222 255.726L 99.7852 282.456L 86.4222 255.726z"/>
<path style="stroke:#000000; stroke-width:1.59941; fill:none" d="M 94.4412 257.729L 83.7502 263.073L 86.4222 255.726L 94.4412 257.729z"/>
<path style="stroke:#000000; stroke-width:1.59941; fill:none" d="M 165.945 230.331L 143.226 235.007L 165.945 230.331z"/>
<path style="stroke:#000000; stroke-width:1.59941; fill:none" d="M 161.269 237.015L 158.597 225.655L 165.945 230.331L 161.269 237.015z"/>
<path style="stroke:#000000; stroke-width:1.59941; fill:none" d="M 154.586 217.636L 173.297 214.964L 154.586 217.636z"/>
<path style="stroke:#000000; stroke-width:1.59941; fill:none" d="M 159.261 210.952L 161.265 222.311L 154.586 217.636L 159.261 210.952z"/>
<path style="stroke:#000000; stroke-width:1.59941; fill:none" d="M 55.6792 414.109L 94.4372 414.109L 91.7652 418.784L 52.3398 418.784L 55.6792 414.109z"/>
<path style="stroke:#000000; stroke-width:1.59941; fill:none" d="M 58.3512 410.097L 97.1092 410.097L 94.4372 414.105L 55.6792 414.105L 58.3512 410.097z"/>
<path style="stroke:#000000; stroke-width:1.59941; fill:none" d="M 61.0272 405.421L 99.7852 405.421L 97.1132 410.097L 58.3552 410.097L 61.0272 405.421z"/>
<path style="stroke:#000000; stroke-width:1.59941; fill:none" d="M 63.6992 400.741L 102.457 400.741L 99.7852 405.417L 61.0272 405.417L 63.6992 400.741z"/>
<path style="stroke:#000000; stroke-width:1.59941; fill:none" d="M 67.0432 396.066L 105.801 396.066L 102.461 400.741L 63.7032 400.741L 67.0432 396.066z"/>
<path style="stroke:#000000; stroke-width:1.59941; fill:none" d="M 69.7152 391.386L 108.472 391.386L 105.801 396.062L 67.0432 396.062L 69.7152 391.386z"/>
<path style="stroke:#000000; stroke-width:1.59941; fill:none" d="M 72.3872 386.706L 111.144 386.706L 108.472 391.382L 69.7152 391.382L 72.3872 386.706z"/>
<path style="stroke:#000000; stroke-width:1.59941; fill:none" d="M 75.0582 382.698L 113.816 382.698L 111.144 386.706L 72.3872 386.706L 75.0582 382.698z"/>
<path style="stroke:#000000; stroke-width:1.59941; fill:none" d="M 77.7342 378.018L 117.16 378.018L 113.82 382.694L 75.0622 382.694L 77.7342 378.018z"/>
<path style="stroke:#000000; stroke-width:1.59941; fill:none" d="M 81.0742 373.343L 119.832 373.343L 117.16 378.018L 77.7342 378.018L 81.0742 373.343z"/>
<path style="stroke:#000000; stroke-width:1.59941; fill:none" d="M 83.7502 368.663L 122.508 368.663L 119.836 373.339L 81.0782 373.339L 83.7502 368.663z"/>
<path style="stroke:#000000; stroke-width:1.59941; fill:none" d="M 86.4222 363.987L 125.179 363.987L 122.508 368.663L 83.7502 368.663L 86.4222 363.987z"/>
<path style="stroke:#000000; stroke-width:1.59941; fill:none" d="M 86.4222 363.987L 125.179 363.987L 91.7692 418.784L 52.3437 418.784L 86.4222 363.987z"/>
<path style="stroke:none; fill-rule:evenodd; fill:#000000" d="M 52.8982 429.859L 54.3982 429.859L 54.3982 418.159L 52.8982 418.159L 52.8982 429.859z"/>
<path style="stroke:none; fill-rule:evenodd; fill:#000000" d="M 56.7972 421.499L 56.7972 429.855L 58.1952 429.855L 58.1952 425.269C 58.1952 423.573 59.0662 422.46 60.4102 422.46C 61.4372 422.46 62.0942 423.093 62.0942 424.093L 62.0942 429.855L 63.4922 429.855L 63.4922 423.538C 63.4922 422.152 62.4412 421.257 60.8082 421.257C 59.5472 421.257 58.7422 421.734 57.9962 422.902L 57.9962 421.499L 56.7972 421.499z"/>
<path style="stroke:none; fill-rule:evenodd; fill:#000000" d="M 65.4962 433.355L 66.8942 433.355L 66.8942 428.96C 67.6012 429.859 68.3902 430.257 69.4842 430.257C 71.6562 430.257 73.0902 428.515 73.0902 425.839C 73.0902 423.023 71.7112 421.261 69.4762 421.261C 68.3362 421.261 67.4222 421.773 66.7932 422.765L 66.7932 421.503L 65.4962 421.503L 65.4962 433.355zM 69.2502 422.558C 70.7302 422.558 71.6952 423.831 71.6952 425.804C 71.6952 427.679 70.7152 428.952 69.2502 428.952C 67.8362 428.952 66.9022 427.695 66.9022 425.753C 66.9022 423.816 67.8362 422.554 69.2502 422.554L 69.2502 422.558z"/>
<path style="stroke:none; fill-rule:evenodd; fill:#000000" d="M 81.3982 429.89L 81.3982 421.46L 80.0002 421.46L 80.0002 426.222C 80.0002 427.937 79.1092 429.058 77.7222 429.058C 76.6722 429.058 76.0042 428.417 76.0042 427.409L 76.0042 421.464L 74.6052 421.464L 74.6052 427.964C 74.6052 429.362 75.6482 430.261 77.2892 430.261C 78.5232 430.261 79.3122 429.827 80.1012 428.718L 80.1012 429.89L 81.3982 429.89z"/>
<path style="stroke:none; fill-rule:evenodd; fill:#000000" d="M 86.4962 421.456L 85.1992 421.456L 85.1992 419.144L 83.8012 419.144L 83.8012 421.456L 82.7032 421.456L 82.7032 422.554L 83.8012 422.554L 83.8012 428.917C 83.8012 429.769 84.3752 430.249 85.4102 430.249C 85.7262 430.249 86.0472 430.218 86.4962 430.136L 86.4962 428.987C 86.3322 429.034 86.1372 429.05 85.8942 429.05C 85.3512 429.05 85.2032 428.894 85.2032 428.3L 85.2032 422.554L 86.5002 422.554L 86.4962 421.456z"/>
<path style="stroke:#000000; stroke-width:1.59941; fill:none" d="M 55.6792 414.109L 94.4372 414.109L 91.7652 418.784L 52.3398 418.784L 55.6792 414.109z"/>
<path style="stroke:#000000; stroke-width:1.59941; fill:none" d="M 61.0272 241.69L 99.7852 241.69L 91.7692 255.722L 52.3437 255.722L 61.0272 241.69z"/>
<path style="stroke:#000000; stroke-width:1.59941; fill:none" d="M 99.7852 241.69L 138.543 241.69L 130.527 255.722L 91.7692 255.722L 99.7852 241.69z"/>
<path style="stroke:#000000; stroke-width:1.59941; fill:none" d="M 69.7152 227.659L 108.472 227.659L 99.7852 241.69L 61.0272 241.69L 69.7152 227.659z"/>
<path style="stroke:#000000; stroke-width:1.59941; fill:none" d="M 108.472 227.659L 147.23 227.659L 138.547 241.69L 99.7892 241.69L 108.472 227.659z"/>
<path style="stroke:#000000; stroke-width:1.59941; fill:none" d="M 77.7342 214.292L 117.16 214.292L 108.476 227.655L 69.7192 227.655L 77.7342 214.292z"/>
<path style="stroke:#000000; stroke-width:1.59941; fill:none" d="M 117.164 214.292L 155.922 214.292L 147.234 227.655L 108.476 227.655L 117.164 214.292z"/>
<path style="stroke:#000000; stroke-width:1.59941; fill:none" d="M 86.4222 200.257L 125.179 200.257L 117.164 214.288L 77.7382 214.288L 86.4222 200.257z"/>
<path style="stroke:#000000; stroke-width:1.59941; fill:none" d="M 125.179 200.257L 163.937 200.257L 155.922 214.288L 117.164 214.288L 125.179 200.257z"/>
<path style="stroke:#000000; stroke-width:1.59941; fill:none" d="M 86.4222 200.257L 163.941 200.257L 130.531 255.722L 52.3437 255.722L 86.4222 200.257z"/>
<path style="stroke:none; fill-rule:evenodd; fill:#000000" d="M 37.8984 260.858L 44.2969 260.858L 44.2969 259.561L 37.8984 259.561L 37.8984 255.765L 44.4961 255.765L 44.4961 254.468L 36.3984 254.468L 36.3984 266.167L 44.7969 266.167L 44.7969 264.87L 37.8984 264.87L 37.8984 260.858z"/>
<path style="stroke:none; fill-rule:evenodd; fill:#000000" d="M 56.3162 258.089C 55.8512 255.515 54.3832 254.261 51.8242 254.261C 50.2578 254.261 48.9961 254.761 48.1328 255.726C 47.0781 256.882 46.5039 258.558 46.5039 260.456C 46.5039 262.386 47.0937 264.042 48.1953 265.186C 49.0898 266.12 50.2383 266.554 51.7578 266.554C 54.6012 266.554 56.1992 265.007 56.5542 261.89L 55.0232 261.89C 54.8982 262.702 54.7382 263.253 54.5002 263.726C 54.0232 264.698 53.0312 265.253 51.789 265.253C 49.4765 265.253 48.0078 263.378 48.0078 260.436C 48.0078 257.417 49.4101 255.554 51.6601 255.554C 52.6015 255.554 53.4762 255.847 53.9572 256.3C 54.3872 256.702 54.6252 257.206 54.8012 258.081L 56.3162 258.089z"/>
<path style="stroke:none; fill-rule:evenodd; fill:#000000" d="M 56.9962 268.956L 66.5942 268.956L 66.5942 268.159L 56.9962 268.159L 56.9962 268.956z"/>
<path style="stroke:none; fill-rule:evenodd; fill:#000000" d="M 68.5972 257.757L 67.1992 257.757L 67.1992 266.155L 68.5972 266.155L 68.5972 257.757zM 68.5972 254.456L 67.1992 254.456L 67.1992 256.147L 68.5972 256.147L 68.5972 254.456z"/>
<path style="stroke:none; fill-rule:evenodd; fill:#000000" d="M 70.8982 257.8L 70.8982 266.155L 72.2972 266.155L 72.2972 261.569C 72.2972 259.874 73.1682 258.761 74.5112 258.761C 75.5392 258.761 76.1952 259.394 76.1952 260.394L 76.1952 266.155L 77.5942 266.155L 77.5942 259.839C 77.5942 258.452 76.5432 257.558 74.9102 257.558C 73.6482 257.558 72.8442 258.034 72.0972 259.202L 72.0972 257.8L 70.8982 257.8z"/>
<path style="stroke:#000000; stroke-width:1.59941; fill:none" d="M 61.0272 241.69L 99.7852 241.69L 91.7692 255.722L 52.3437 255.722L 61.0272 241.69z"/>
<path style="stroke:#000000; stroke-width:1.59941; fill:none" d="M 81.0742 128.085L 323.656 128.085L 295.59 173.526L 52.3398 173.526L 81.0742 128.085z"/>
<path style="stroke:none; fill-rule:evenodd; fill:#000000" d="M 52.6992 184.659L 57.2192 184.659C 60.1792 184.659 61.9962 182.448 61.9962 178.804C 61.9962 175.179 60.1952 172.964 57.2192 172.964L 52.6992 172.964L 52.6992 184.659zM 54.1992 183.358L 54.1992 174.261L 56.9612 174.261C 59.2732 174.261 60.4962 175.823 60.4962 178.815C 60.4962 181.776 59.2772 183.354 56.9612 183.354L 54.1992 183.358z"/>
<path style="stroke:none; fill-rule:evenodd; fill:#000000" d="M 74.2972 178.456L 69.3982 178.456L 69.3982 179.753L 72.9962 179.753L 72.9962 180.081C 72.9962 182.21 71.4492 183.749 69.3042 183.749C 68.1132 183.749 67.0352 183.315 66.3402 182.554C 65.5662 181.714 65.1012 180.308 65.1012 178.854C 65.1012 175.964 66.7342 174.054 69.2032 174.054C 70.9802 174.054 72.2612 174.979 72.5822 176.503L 74.1052 176.503C 73.6872 174.12 71.8942 172.753 69.2112 172.753C 67.7852 172.753 66.6292 173.12 65.7152 173.878C 64.3672 175.003 63.5972 176.823 63.5972 178.929C 63.5972 182.534 65.8042 185.042 68.9802 185.042C 70.5742 185.042 71.8472 184.444 72.9922 183.167L 73.3552 184.733L 74.2892 184.733L 74.2972 178.456z"/>
<path style="stroke:#000000; stroke-width:1.59941; fill:none" d="M 81.0742 128.085L 323.656 128.085L 295.59 173.526L 52.3398 173.526L 81.0742 128.085z"/>
<path style="stroke:#000000; stroke-width:1.59941; fill:none" d="M 97.7812 18.4873L 194.679 18.4873L 149.906 91.9953L 52.3398 91.9953L 97.7812 18.4873z"/>
<path style="stroke:none; fill-rule:evenodd; fill:#000000" d="M 60.9142 95.2883C 60.4492 92.7143 58.9802 91.4603 56.4222 91.4603C 54.8552 91.4603 53.5942 91.9603 52.7302 92.9253C 51.6758 94.0813 51.1015 95.7573 51.1015 97.6553C 51.1015 99.5853 51.6914 101.241 52.7932 102.386C 53.6872 103.319 54.8362 103.753 56.3552 103.753C 59.1992 103.753 60.7972 102.206 61.1522 99.0893L 59.6212 99.0893C 59.4962 99.9013 59.3362 100.452 59.0972 100.925C 58.6212 101.897 57.6292 102.452 56.3872 102.452C 54.0742 102.452 52.6054 100.577 52.6054 97.6363C 52.6054 94.6163 54.0082 92.7533 56.2582 92.7533C 57.1992 92.7533 58.0742 93.0463 58.5542 93.4993C 58.9842 93.9013 59.2222 94.4053 59.3982 95.2803L 60.9142 95.2883z"/>
<path style="stroke:none; fill-rule:evenodd; fill:#000000" d="M 69.5002 99.8583L 70.6992 103.358L 72.3672 103.358L 68.2612 91.6593L 66.3402 91.6593L 62.1722 103.358L 63.7582 103.358L 64.9922 99.8583L 69.5002 99.8583zM 69.0822 98.5583L 65.3632 98.5583L 67.2852 93.2723L 69.0822 98.5583z"/>
<path style="stroke:none; fill-rule:evenodd; fill:#000000" d="M 76.1402 98.1593L 76.9142 98.1593C 78.4802 98.1593 79.2932 98.8543 79.2932 100.206C 79.2932 101.616 78.4102 102.456 76.9262 102.456C 75.3832 102.456 74.6252 101.694 74.5272 100.054L 73.1092 100.054C 73.1722 100.976 73.3322 101.573 73.6012 102.089C 74.1762 103.186 75.2972 103.753 76.8472 103.753C 79.1832 103.753 80.6872 102.354 80.6872 100.194C 80.6872 98.7453 80.1332 97.9403 78.7812 97.4723C 79.8512 97.0543 80.3872 96.2493 80.3872 95.1043C 80.3872 93.1403 79.0862 91.9603 76.9142 91.9603C 74.6172 91.9603 73.3942 93.2183 73.3442 95.6593L 74.7692 95.6593C 74.7852 94.9833 74.8472 94.6043 75.0272 94.2573C 75.3472 93.6443 76.0622 93.2653 76.9572 93.2653C 78.2192 93.2653 78.9842 93.9953 78.9842 95.1943C 78.9842 95.9913 78.6912 96.4683 78.0512 96.7223C 77.6602 96.8783 77.1522 96.9443 76.1332 96.9603L 76.1402 98.1593z"/>
<path style="stroke:#000000; stroke-width:1.59941; fill:none" d="M 97.7812 18.4873L 194.679 18.4873L 149.906 91.9953L 52.3398 91.9953L 97.7812 18.4873z"/>
<path style="stroke:#000000; stroke-width:1.59941; fill:none" d="M 180.648 73.2843L 258.168 73.2843L 246.808 91.9953L 169.289 91.9953L 180.648 73.2843z"/>
<path style="stroke:#000000; stroke-width:1.59941; fill:none" d="M 258.168 73.2843L 335.687 73.2843L 324.328 91.9953L 246.808 91.9953L 258.168 73.2843z"/>
<path style="stroke:#000000; stroke-width:1.59941; fill:none" d="M 192.008 55.2413L 269.527 55.2413L 258.168 73.2843L 180.648 73.2843L 192.008 55.2413z"/>
<path style="stroke:#000000; stroke-width:1.59941; fill:none" d="M 269.527 55.2413L 347.047 55.2413L 335.687 73.2843L 258.168 73.2843L 269.527 55.2413z"/>
<path style="stroke:#000000; stroke-width:1.59941; fill:none" d="M 202.703 37.1983L 280.89 37.1983L 269.531 55.2413L 192.011 55.2413L 202.703 37.1983z"/>
<path style="stroke:#000000; stroke-width:1.59941; fill:none" d="M 280.89 37.1983L 358.41 37.1983L 347.051 55.2413L 269.531 55.2413L 280.89 37.1983z"/>
<path style="stroke:#000000; stroke-width:1.59941; fill:none" d="M 214.062 18.4873L 292.25 18.4873L 280.89 37.1983L 202.703 37.1983L 214.062 18.4873z"/>
<path style="stroke:#000000; stroke-width:1.59941; fill:none" d="M 292.25 18.4873L 369.769 18.4873L 358.41 37.1983L 280.89 37.1983L 292.25 18.4873z"/>
<path style="stroke:#000000; stroke-width:1.59941; fill:none" d="M 214.062 18.4873L 369.769 18.4873L 324.328 91.9953L 169.289 91.9953L 214.062 18.4873z"/>
<path style="stroke:none; fill-rule:evenodd; fill:#000000" d="M 181.015 95.2883C 180.551 92.7143 179.082 91.4603 176.523 91.4603C 174.957 91.4603 173.695 91.9603 172.832 92.9253C 171.777 94.0813 171.203 95.7573 171.203 97.6553C 171.203 99.5853 171.793 101.241 172.894 102.386C 173.789 103.319 174.937 103.753 176.457 103.753C 179.301 103.753 180.898 102.206 181.254 99.0893L 179.722 99.0893C 179.597 99.9013 179.437 100.452 179.199 100.925C 178.722 101.897 177.73 102.452 176.488 102.452C 174.176 102.452 172.707 100.577 172.707 97.6363C 172.707 94.6163 174.109 92.7533 176.359 92.7533C 177.301 92.7533 178.176 93.0463 178.656 93.4993C 179.086 93.9013 179.324 94.4053 179.5 95.2803L 181.015 95.2883z"/>
<path style="stroke:none; fill-rule:evenodd; fill:#000000" d="M 189.597 99.8583L 190.797 103.358L 192.465 103.358L 188.359 91.6593L 186.437 91.6593L 182.269 103.358L 183.855 103.358L 185.09 99.8583L 189.597 99.8583zM 189.183 98.5583L 185.465 98.5583L 187.387 93.2723L 189.183 98.5583z"/>
<path style="stroke:none; fill-rule:evenodd; fill:#000000" d="M 196.898 95.2373L 196.898 103.354L 198.297 103.354L 198.297 91.9563L 197.359 91.9563C 196.859 93.7063 196.535 93.9483 194.336 94.2223L 194.336 95.2333L 196.898 95.2373z"/>
<path style="stroke:#000000; stroke-width:1.59941; fill:none" d="M 180.648 73.2843L 258.168 73.2843L 246.808 91.9953L 169.289 91.9953L 180.648 73.2843z"/>
<path style="stroke:#000000; stroke-width:1.59941; fill:none" d="M 157.926 241.69L 197.351 241.69L 188.664 255.722L 149.906 255.722L 157.926 241.69z"/>
<path style="stroke:#000000; stroke-width:1.59941; fill:none" d="M 197.355 241.69L 236.113 241.69L 227.429 255.722L 188.672 255.722L 197.355 241.69z"/>
<path style="stroke:#000000; stroke-width:1.59941; fill:none" d="M 166.613 227.659L 205.371 227.659L 197.355 241.69L 157.929 241.69L 166.613 227.659z"/>
<path style="stroke:#000000; stroke-width:1.59941; fill:none" d="M 205.375 227.659L 244.133 227.659L 236.113 241.69L 197.355 241.69L 205.375 227.659z"/>
<path style="stroke:#000000; stroke-width:1.59941; fill:none" d="M 175.301 214.292L 214.058 214.292L 205.375 227.655L 166.617 227.655L 175.301 214.292z"/>
<path style="stroke:#000000; stroke-width:1.59941; fill:none" d="M 214.062 214.292L 252.82 214.292L 244.137 227.655L 205.379 227.655L 214.062 214.292z"/>
<path style="stroke:#000000; stroke-width:1.59941; fill:none" d="M 183.32 200.257L 222.746 200.257L 214.058 214.288L 175.301 214.288L 183.32 200.257z"/>
<path style="stroke:#000000; stroke-width:1.59941; fill:none" d="M 222.75 200.257L 261.508 200.257L 252.82 214.288L 214.062 214.288L 222.75 200.257z"/>
<path style="stroke:#000000; stroke-width:1.59941; fill:none" d="M 183.32 200.257L 261.508 200.257L 227.429 255.722L 149.91 255.722L 183.32 200.257z"/>
<path style="stroke:#000000; stroke-width:1.59941; fill:none" d="M 157.926 241.69L 197.351 241.69L 188.664 255.722L 149.906 255.722L 157.926 241.69z"/>
<path style="stroke:#000000; stroke-width:1.59941; fill:none" d="M 55.6792 332.577L 94.4372 332.577L 91.7652 337.253L 52.3398 337.253L 55.6792 332.577z"/>
<path style="stroke:#000000; stroke-width:1.59941; fill:none" d="M 58.3512 327.897L 97.1092 327.897L 94.4372 332.573L 55.6792 332.573L 58.3512 327.897z"/>
<path style="stroke:#000000; stroke-width:1.59941; fill:none" d="M 61.0272 323.222L 99.7852 323.222L 97.1132 327.897L 58.3552 327.897L 61.0272 323.222z"/>
<path style="stroke:#000000; stroke-width:1.59941; fill:none" d="M 63.6992 319.214L 102.457 319.214L 99.7852 323.222L 61.0272 323.222L 63.6992 319.214z"/>
<path style="stroke:#000000; stroke-width:1.59941; fill:none" d="M 67.0432 314.534L 105.801 314.534L 102.461 319.21L 63.7032 319.21L 67.0432 314.534z"/>
<path style="stroke:#000000; stroke-width:1.59941; fill:none" d="M 69.7152 309.854L 108.472 309.854L 105.801 314.53L 67.0432 314.53L 69.7152 309.854z"/>
<path style="stroke:#000000; stroke-width:1.59941; fill:none" d="M 72.3872 305.179L 111.144 305.179L 108.472 309.854L 69.7152 309.854L 72.3872 305.179z"/>
<path style="stroke:#000000; stroke-width:1.59941; fill:none" d="M 75.0582 300.499L 113.816 300.499L 111.144 305.175L 72.3872 305.175L 75.0582 300.499z"/>
<path style="stroke:#000000; stroke-width:1.59941; fill:none" d="M 77.7342 295.823L 117.16 295.823L 113.82 300.499L 75.0622 300.499L 77.7342 295.823z"/>
<path style="stroke:#000000; stroke-width:1.59941; fill:none" d="M 81.0742 291.811L 119.832 291.811L 117.16 295.819L 77.7342 295.819L 81.0742 291.811z"/>
<path style="stroke:#000000; stroke-width:1.59941; fill:none" d="M 83.7502 287.136L 122.508 287.136L 119.836 291.811L 81.0782 291.811L 83.7502 287.136z"/>
<path style="stroke:#000000; stroke-width:1.59941; fill:none" d="M 86.4222 282.456L 125.179 282.456L 122.508 287.132L 83.7502 287.132L 86.4222 282.456z"/>
<path style="stroke:#000000; stroke-width:1.59941; fill:none" d="M 86.4222 282.456L 125.179 282.456L 91.7692 337.253L 52.3437 337.253L 86.4222 282.456z"/>
<path style="stroke:none; fill-rule:evenodd; fill:#000000" d="M 47.4961 341.456L 53.8942 341.456L 53.8942 340.159L 47.4961 340.159L 47.4961 336.362L 54.0942 336.362L 54.0942 335.065L 45.9961 335.065L 45.9961 346.765L 54.3942 346.765L 54.3942 345.468L 47.4961 345.468L 47.4961 341.456z"/>
<path style="stroke:none; fill-rule:evenodd; fill:#000000" d="M 56.3982 346.757L 57.7972 346.757L 57.7972 335.058L 56.3982 335.058L 56.3982 346.757z"/>
<path style="stroke:none; fill-rule:evenodd; fill:#000000" d="M 66.9962 342.956C 66.9962 341.698 66.9022 340.944 66.6602 340.331C 66.1172 338.979 64.8322 338.159 63.2582 338.159C 60.9142 338.159 59.4022 339.952 59.4022 342.706C 59.4022 345.46 60.8672 347.155 63.2382 347.155C 65.1722 347.155 66.5112 346.054 66.8472 344.206L 65.4922 344.206C 65.1252 345.288 64.3632 345.854 63.2812 345.854C 62.4292 345.854 61.7032 345.468 61.2502 344.761C 60.9292 344.28 60.8162 343.796 60.8012 342.956L 66.9962 342.956zM 60.8672 341.913C 60.9762 340.358 61.9222 339.351 63.2692 339.351C 64.5822 339.351 65.5942 340.44 65.5942 341.819C 65.5942 341.851 65.5942 341.882 65.5782 341.913L 60.8672 341.913z"/>
<path style="stroke:none; fill-rule:evenodd; fill:#000000" d="M 68.8982 338.397L 68.8982 346.753L 70.2972 346.753L 70.2972 341.53C 70.2972 340.327 71.1722 339.354 72.2502 339.354C 73.2342 339.354 73.7932 339.956 73.7932 341.022L 73.7932 346.753L 75.1912 346.753L 75.1912 341.53C 75.1912 340.327 76.0392 339.354 77.0902 339.354C 78.0312 339.354 78.5902 339.972 78.5902 341.022L 78.5902 346.753L 79.9882 346.753L 79.9882 340.487C 79.9882 338.987 79.1212 338.159 77.5432 338.159C 76.4182 338.159 75.7422 338.483 74.9532 339.394C 74.4572 338.53 73.7812 338.159 72.6832 338.159C 71.5582 338.159 70.8202 338.573 70.0942 339.577L 70.0942 338.397L 68.8982 338.397z"/>
<path style="stroke:#000000; stroke-width:1.59941; fill:none" d="M 55.6792 332.577L 94.4372 332.577L 91.7652 337.253L 52.3398 337.253L 55.6792 332.577z"/>
<path style="stroke:#000000; stroke-width:1.59941; fill:none" d="M 152.582 332.577L 191.34 332.577L 188.668 337.253L 149.91 337.253L 152.582 332.577z"/>
<path style="stroke:#000000; stroke-width:1.59941; fill:none" d="M 155.254 327.897L 194.011 327.897L 191.34 332.573L 152.582 332.573L 155.254 327.897z"/>
<path style="stroke:#000000; stroke-width:1.59941; fill:none" d="M 157.926 323.222L 197.351 323.222L 194.011 327.897L 155.254 327.897L 157.926 323.222z"/>
<path style="stroke:#000000; stroke-width:1.59941; fill:none" d="M 161.269 319.214L 200.027 319.214L 197.355 323.222L 157.929 323.222L 161.269 319.214z"/>
<path style="stroke:#000000; stroke-width:1.59941; fill:none" d="M 163.941 314.534L 202.699 314.534L 200.027 319.21L 161.269 319.21L 163.941 314.534z"/>
<path style="stroke:#000000; stroke-width:1.59941; fill:none" d="M 166.613 309.854L 205.371 309.854L 202.699 314.53L 163.941 314.53L 166.613 309.854z"/>
<path style="stroke:#000000; stroke-width:1.59941; fill:none" d="M 166.613 309.854L 205.371 309.854L 188.668 337.253L 149.91 337.253L 166.613 309.854z"/>
<path style="stroke:#000000; stroke-width:1.59941; fill:none" d="M 152.582 332.577L 191.34 332.577L 188.668 337.253L 149.91 337.253L 152.582 332.577z"/>
<path style="stroke:#000000; stroke-width:1.59941; fill:none" d="M 152.582 414.109L 191.34 414.109L 188.668 418.784L 149.91 418.784L 152.582 414.109z"/>
<path style="stroke:#000000; stroke-width:1.59941; fill:none" d="M 155.254 410.097L 194.011 410.097L 191.34 414.105L 152.582 414.105L 155.254 410.097z"/>
<path style="stroke:#000000; stroke-width:1.59941; fill:none" d="M 157.926 405.421L 197.351 405.421L 194.011 410.097L 155.254 410.097L 157.926 405.421z"/>
<path style="stroke:#000000; stroke-width:1.59941; fill:none" d="M 161.269 400.741L 200.027 400.741L 197.355 405.417L 157.929 405.417L 161.269 400.741z"/>
<path style="stroke:#000000; stroke-width:1.59941; fill:none" d="M 161.269 400.741L 200.027 400.741L 188.668 418.784L 149.91 418.784L 161.269 400.741z"/>
<path style="stroke:none; fill-rule:evenodd; fill:#000000" d="M 150.633 417.956C 147.281 417.956 145 420.433 145 424.105C 145 427.773 147.277 430.253 150.648 430.253C 152.058 430.253 153.328 429.82 154.273 429.015C 155.539 427.937 156.293 426.12 156.293 424.202C 156.293 420.421 154.062 417.956 150.629 417.956L 150.633 417.956zM 150.629 419.257C 153.156 419.257 154.793 421.195 154.793 424.171C 154.793 427.015 153.109 428.952 150.644 428.952C 148.164 428.952 146.496 427.015 146.496 424.105C 146.496 421.198 148.16 419.257 150.629 419.257z"/>
<path style="stroke:none; fill-rule:evenodd; fill:#000000" d="M 164.597 429.89L 164.597 421.46L 163.199 421.46L 163.199 426.222C 163.199 427.937 162.308 429.058 160.922 429.058C 159.871 429.058 159.203 428.417 159.203 427.409L 159.203 421.464L 157.804 421.464L 157.804 427.964C 157.804 429.362 158.847 430.261 160.488 430.261C 161.722 430.261 162.511 429.827 163.301 428.718L 163.301 429.89L 164.597 429.89z"/>
<path style="stroke:none; fill-rule:evenodd; fill:#000000" d="M 169.699 421.456L 168.402 421.456L 168.402 419.144L 167.004 419.144L 167.004 421.456L 165.906 421.456L 165.906 422.554L 167.004 422.554L 167.004 428.917C 167.004 429.769 167.578 430.249 168.613 430.249C 168.929 430.249 169.25 430.218 169.699 430.136L 169.699 428.987C 169.535 429.034 169.34 429.05 169.097 429.05C 168.554 429.05 168.406 428.894 168.406 428.3L 168.406 422.554L 169.703 422.554L 169.699 421.456z"/>
<path style="stroke:none; fill-rule:evenodd; fill:#000000" d="M 170.996 433.355L 172.394 433.355L 172.394 428.96C 173.101 429.859 173.89 430.257 174.984 430.257C 177.156 430.257 178.59 428.515 178.59 425.839C 178.59 423.023 177.211 421.261 174.976 421.261C 173.836 421.261 172.922 421.773 172.293 422.765L 172.293 421.503L 170.996 421.503L 170.996 433.355zM 174.75 422.558C 176.23 422.558 177.195 423.831 177.195 425.804C 177.195 427.679 176.215 428.952 174.75 428.952C 173.336 428.952 172.402 427.695 172.402 425.753C 172.402 423.816 173.336 422.554 174.75 422.554L 174.75 422.558z"/>
<path style="stroke:none; fill-rule:evenodd; fill:#000000" d="M 186.898 429.89L 186.898 421.46L 185.5 421.46L 185.5 426.222C 185.5 427.937 184.609 429.058 183.222 429.058C 182.172 429.058 181.504 428.417 181.504 427.409L 181.504 421.464L 180.105 421.464L 180.105 427.964C 180.105 429.362 181.148 430.261 182.789 430.261C 184.023 430.261 184.812 429.827 185.601 428.718L 185.601 429.89L 186.898 429.89z"/>
<path style="stroke:none; fill-rule:evenodd; fill:#000000" d="M 191.996 421.456L 190.699 421.456L 190.699 419.144L 189.301 419.144L 189.301 421.456L 188.203 421.456L 188.203 422.554L 189.301 422.554L 189.301 428.917C 189.301 429.769 189.875 430.249 190.91 430.249C 191.226 430.249 191.547 430.218 191.996 430.136L 191.996 428.987C 191.832 429.034 191.637 429.05 191.394 429.05C 190.851 429.05 190.703 428.894 190.703 428.3L 190.703 422.554L 192 422.554L 191.996 421.456z"/>
<path style="stroke:#000000; stroke-width:1.59941; fill:none" d="M 152.582 414.109L 191.34 414.109L 188.668 418.784L 149.91 418.784L 152.582 414.109z"/>
<path style="stroke:#000000; stroke-width:1.59941; fill:none" d="M 213.394 410.097L 252.152 410.097L 249.48 414.105L 210.722 414.105L 213.394 410.097z"/>
<path style="stroke:none; fill-rule:evenodd; fill:#000000" d="M 213.898 422.159L 217.761 422.159C 219.097 422.159 219.695 422.796 219.695 424.226L 219.695 425.257C 219.695 425.972 219.82 426.671 220.019 427.152L 221.781 427.152L 221.781 426.784C 221.234 426.402 221.125 425.984 221.094 424.429C 221.078 422.503 220.773 421.925 219.492 421.382C 220.777 420.741 221.293 419.921 221.293 418.593C 221.293 416.573 220.035 415.464 217.754 415.464L 212.398 415.464L 212.398 427.163L 213.898 427.163L 213.898 422.159zM 213.879 420.808L 213.879 416.784L 217.484 416.784C 218.316 416.784 218.797 416.909 219.168 417.23C 219.566 417.566 219.777 418.093 219.777 418.8C 219.777 420.179 219.074 420.804 217.484 420.804L 213.879 420.808z"/>
<path style="stroke:none; fill-rule:evenodd; fill:#000000" d="M 230.699 423.359C 230.699 422.101 230.605 421.347 230.363 420.734C 229.82 419.382 228.535 418.562 226.961 418.562C 224.617 418.562 223.105 420.355 223.105 423.109C 223.105 425.862 224.57 427.558 226.941 427.558C 228.875 427.558 230.215 426.456 230.551 424.609L 229.195 424.609C 228.828 425.691 228.066 426.257 226.984 426.257C 226.133 426.257 225.406 425.87 224.953 425.163C 224.633 424.683 224.519 424.198 224.504 423.359L 230.699 423.359zM 224.566 422.316C 224.676 420.761 225.621 419.753 226.969 419.753C 228.281 419.753 229.293 420.843 229.293 422.222C 229.293 422.253 229.293 422.284 229.277 422.316L 224.566 422.316z"/>
<path style="stroke:none; fill-rule:evenodd; fill:#000000" d="M 238.422 421.097C 238.406 419.476 237.324 418.562 235.398 418.562C 233.457 418.562 232.203 419.562 232.203 421.101C 232.203 422.402 232.875 423.019 234.855 423.495L 236.101 423.796C 237.027 424.015 237.394 424.351 237.394 424.952C 237.394 425.73 236.605 426.253 235.426 426.253C 234.703 426.253 234.09 426.05 233.75 425.706C 233.543 425.472 233.445 425.237 233.363 424.655L 231.945 424.655C 232.008 426.616 233.105 427.554 235.312 427.554C 237.441 427.554 238.793 426.523 238.793 424.921C 238.793 423.687 238.09 423.003 236.426 422.605L 235.148 422.304C 234.062 422.05 233.597 421.702 233.597 421.116C 233.597 420.355 234.277 419.862 235.355 419.862C 236.418 419.862 236.988 420.288 237.019 421.097L 238.422 421.097z"/>
<path style="stroke:none; fill-rule:evenodd; fill:#000000" d="M 240.199 430.655L 241.597 430.655L 241.597 426.261C 242.304 427.159 243.094 427.558 244.187 427.558C 246.359 427.558 247.793 425.816 247.793 423.14C 247.793 420.323 246.414 418.562 244.179 418.562C 243.039 418.562 242.125 419.073 241.496 420.066L 241.496 418.804L 240.199 418.804L 240.199 430.655zM 243.949 419.859C 245.429 419.859 246.394 421.132 246.394 423.105C 246.394 424.98 245.414 426.253 243.949 426.253C 242.535 426.253 241.601 424.995 241.601 423.054C 241.601 421.116 242.535 419.855 243.949 419.855L 243.949 419.859z"/>
<path style="stroke:none; fill-rule:evenodd; fill:#000000" d="M 252.679 418.558C 250.324 418.558 248.898 420.237 248.898 423.058C 248.898 425.874 250.308 427.554 252.695 427.554C 255.051 427.554 256.496 425.874 256.496 423.12C 256.496 420.226 255.101 418.558 252.679 418.558zM 252.699 419.859C 254.203 419.859 255.097 421.066 255.097 423.105C 255.097 425.03 254.172 426.253 252.699 426.253C 251.215 426.253 250.301 425.05 250.301 423.058C 250.301 421.085 251.211 419.859 252.699 419.859z"/>
<path style="stroke:none; fill-rule:evenodd; fill:#000000" d="M 258.398 418.8L 258.398 427.155L 259.797 427.155L 259.797 422.57C 259.797 420.874 260.668 419.761 262.011 419.761C 263.039 419.761 263.695 420.394 263.695 421.394L 263.695 427.155L 265.094 427.155L 265.094 420.839C 265.094 419.452 264.043 418.558 262.41 418.558C 261.148 418.558 260.344 419.034 259.597 420.202L 259.597 418.8L 258.398 418.8z"/>
<path style="stroke:none; fill-rule:evenodd; fill:#000000" d="M 273.222 421.097C 273.207 419.476 272.125 418.562 270.199 418.562C 268.258 418.562 267.004 419.562 267.004 421.101C 267.004 422.402 267.676 423.019 269.656 423.495L 270.902 423.796C 271.828 424.015 272.195 424.351 272.195 424.952C 272.195 425.73 271.406 426.253 270.226 426.253C 269.504 426.253 268.89 426.05 268.551 425.706C 268.344 425.472 268.246 425.237 268.164 424.655L 266.746 424.655C 266.808 426.616 267.906 427.554 270.113 427.554C 272.242 427.554 273.594 426.523 273.594 424.921C 273.594 423.687 272.89 423.003 271.226 422.605L 269.949 422.304C 268.863 422.05 268.398 421.702 268.398 421.116C 268.398 420.355 269.078 419.862 270.156 419.862C 271.219 419.862 271.789 420.288 271.82 421.097L 273.222 421.097z"/>
<path style="stroke:none; fill-rule:evenodd; fill:#000000" d="M 282.398 423.359C 282.398 422.101 282.304 421.347 282.062 420.734C 281.519 419.382 280.234 418.562 278.66 418.562C 276.316 418.562 274.804 420.355 274.804 423.109C 274.804 425.862 276.269 427.558 278.64 427.558C 280.574 427.558 281.914 426.456 282.25 424.609L 280.894 424.609C 280.527 425.691 279.765 426.257 278.683 426.257C 277.832 426.257 277.105 425.87 276.652 425.163C 276.332 424.683 276.219 424.198 276.203 423.359L 282.398 423.359zM 276.265 422.316C 276.375 420.761 277.32 419.753 278.668 419.753C 279.98 419.753 280.992 420.843 280.992 422.222C 280.992 422.253 280.992 422.284 280.976 422.316L 276.265 422.316z"/>
<path style="stroke:#000000; stroke-width:1.59941; fill:none" d="M 213.394 410.097L 252.152 410.097L 249.48 414.105L 210.722 414.105L 213.394 410.097z"/>
<path style="stroke:none; fill-rule:evenodd; fill:#ffffff" d="M 128.265 358.151L 179.922 358.151L 179.922 339.976L 128.265 339.976L 128.265 358.151z"/>
<path style="stroke:#ffffff; stroke-width:1.59941; fill:none" d="M 128.265 358.151L 179.922 358.151L 179.922 339.976L 128.265 339.976L 128.265 358.151z"/>
<path style="stroke:none; fill-rule:evenodd; fill:#000000" d="M 138.82 347.858L 139.898 351.058L 141.394 351.058L 137.711 340.558L 135.984 340.558L 132.242 351.058L 133.664 351.058L 134.769 347.858L 138.82 347.858zM 138.445 346.757L 135.109 346.757L 136.836 342.003L 138.445 346.757z"/>
<path style="stroke:none; fill-rule:evenodd; fill:#000000" d="M 147.902 345.616C 147.887 344.108 146.914 343.261 145.179 343.261C 143.433 343.261 142.301 344.167 142.301 345.569C 142.301 346.753 142.906 347.311 144.699 347.745L 145.824 348.018C 146.66 348.218 146.992 348.522 146.992 349.069C 146.992 349.772 146.281 350.249 145.222 350.249C 144.57 350.249 144.019 350.065 143.715 349.757C 143.527 349.546 143.441 349.335 143.367 348.808L 142.09 348.808C 142.144 350.526 143.121 351.351 145.094 351.351C 146.988 351.351 148.199 350.413 148.199 348.956C 148.199 347.831 147.566 347.214 146.062 346.851L 144.906 346.577C 143.926 346.347 143.504 346.03 143.504 345.499C 143.504 344.808 144.125 344.358 145.109 344.358C 146.078 344.358 146.601 344.792 146.629 345.616L 147.902 345.616z"/>
<path style="stroke:none; fill-rule:evenodd; fill:#000000" d="M 155.101 345.616C 155.086 344.108 154.113 343.261 152.379 343.261C 150.633 343.261 149.5 344.167 149.5 345.569C 149.5 346.753 150.105 347.311 151.898 347.745L 153.023 348.018C 153.859 348.218 154.191 348.522 154.191 349.069C 154.191 349.772 153.48 350.249 152.422 350.249C 151.769 350.249 151.219 350.065 150.914 349.757C 150.726 349.546 150.64 349.335 150.566 348.808L 149.289 348.808C 149.344 350.526 150.32 351.351 152.293 351.351C 154.187 351.351 155.398 350.413 155.398 348.956C 155.398 347.831 154.765 347.214 153.261 346.851L 152.105 346.577C 151.125 346.347 150.703 346.03 150.703 345.499C 150.703 344.808 151.324 344.358 152.308 344.358C 153.277 344.358 153.801 344.792 153.828 345.616L 155.101 345.616z"/>
<path style="stroke:none; fill-rule:evenodd; fill:#000000" d="M 159.883 343.257C 157.777 343.257 156.5 344.768 156.5 347.304C 156.5 349.839 157.761 351.351 159.898 351.351C 162.004 351.351 163.297 349.839 163.297 347.362C 163.297 344.757 162.051 343.257 159.883 343.257zM 159.898 344.358C 161.273 344.358 162.097 345.472 162.097 347.351C 162.097 349.128 161.25 350.253 159.898 350.253C 158.535 350.253 157.703 349.144 157.703 347.304C 157.703 345.483 158.539 344.354 159.898 344.354L 159.898 344.358z"/>
<path style="stroke:none; fill-rule:evenodd; fill:#000000" d="M 170.777 346.05C 170.719 345.288 170.562 344.796 170.277 344.362C 169.765 343.675 168.867 343.265 167.824 343.265C 165.812 343.265 164.5 344.878 164.5 347.386C 164.5 349.819 165.781 351.362 167.808 351.362C 169.59 351.362 170.719 350.296 170.863 348.472L 169.656 348.472C 169.457 349.663 168.84 350.261 167.816 350.261C 166.496 350.261 165.703 349.179 165.703 347.386C 165.703 345.495 166.476 344.366 167.789 344.366C 168.793 344.366 169.426 344.972 169.57 346.054L 170.777 346.05z"/>
<path style="stroke:none; fill-rule:evenodd; fill:#000000" d="M 154.898 260.858L 161.297 260.858L 161.297 259.561L 154.898 259.561L 154.898 255.765L 161.496 255.765L 161.496 254.468L 153.398 254.468L 153.398 266.167L 161.797 266.167L 161.797 264.87L 154.898 264.87L 154.898 260.858z"/>
<path style="stroke:none; fill-rule:evenodd; fill:#000000" d="M 173.316 258.089C 172.851 255.515 171.383 254.261 168.824 254.261C 167.258 254.261 165.996 254.761 165.133 255.726C 164.078 256.882 163.504 258.558 163.504 260.456C 163.504 262.386 164.094 264.042 165.195 265.186C 166.09 266.12 167.238 266.554 168.758 266.554C 171.601 266.554 173.199 265.007 173.554 261.89L 172.023 261.89C 171.898 262.702 171.738 263.253 171.5 263.726C 171.023 264.698 170.031 265.253 168.789 265.253C 166.476 265.253 165.008 263.378 165.008 260.436C 165.008 257.417 166.41 255.554 168.66 255.554C 169.601 255.554 170.476 255.847 170.957 256.3C 171.387 256.702 171.625 257.206 171.801 258.081L 173.316 258.089z"/>
<path style="stroke:none; fill-rule:evenodd; fill:#000000" d="M 173.996 268.956L 183.594 268.956L 183.594 268.159L 173.996 268.159L 173.996 268.956z"/>
<path style="stroke:none; fill-rule:evenodd; fill:#000000" d="M 187.582 257.558C 185.226 257.558 183.801 259.237 183.801 262.058C 183.801 264.874 185.211 266.554 187.597 266.554C 189.953 266.554 191.398 264.874 191.398 262.12C 191.398 259.226 190.004 257.558 187.582 257.558zM 187.597 258.858C 189.101 258.858 189.996 260.065 189.996 262.104C 189.996 264.03 189.07 265.253 187.597 265.253C 186.113 265.253 185.199 264.05 185.199 262.058C 185.199 260.085 186.109 258.858 187.597 258.858z"/>
<path style="stroke:none; fill-rule:evenodd; fill:#000000" d="M 199.898 266.186L 199.898 257.757L 198.5 257.757L 198.5 262.518C 198.5 264.233 197.609 265.354 196.222 265.354C 195.172 265.354 194.504 264.714 194.504 263.706L 194.504 257.761L 193.105 257.761L 193.105 264.261C 193.105 265.659 194.148 266.558 195.789 266.558C 197.023 266.558 197.812 266.124 198.601 265.015L 198.601 266.186L 199.898 266.186z"/>
<path style="stroke:none; fill-rule:evenodd; fill:#000000" d="M 204.996 257.757L 203.699 257.757L 203.699 255.444L 202.301 255.444L 202.301 257.757L 201.203 257.757L 201.203 258.854L 202.301 258.854L 202.301 265.218C 202.301 266.069 202.875 266.55 203.91 266.55C 204.226 266.55 204.547 266.518 204.996 266.436L 204.996 265.288C 204.832 265.335 204.637 265.351 204.394 265.351C 203.851 265.351 203.703 265.194 203.703 264.601L 203.703 258.854L 205 258.854L 204.996 257.757z"/>
<path style="stroke:#000000; stroke-width:1.59941; fill:none" d="M 192.457 311.179L 214.465 255.675L 192.457 311.179z"/>
<path style="stroke:#000000; stroke-width:1.59941; fill:none" d="M 42.6523 226.573L 23.5156 226.573L 23.5156 437.109L 42.6523 437.109"/>
<path style="stroke:#000000; stroke-width:1.59941; fill:none" d="M 42.6523 8.38226L 23.5156 8.38226L 23.5156 222.745L 42.6523 222.745"/>
</g>
</svg>