<?xml version="1.0" encoding="UTF-8" standalone="no"?>
<svg
   xmlns:dc="http://purl.org/dc/elements/1.1/"
   xmlns:cc="http://creativecommons.org/ns#"
   xmlns:rdf="http://www.w3.org/1999/02/22-rdf-syntax-ns#"
   xmlns:svg="http://www.w3.org/2000/svg"
   xmlns="http://www.w3.org/2000/svg"
   xmlns:sodipodi="http://sodipodi.sourceforge.net/DTD/sodipodi-0.dtd"
   xmlns:inkscape="http://www.inkscape.org/namespaces/inkscape"
   version="1.1"
   width="400px"
   height="400px"
   viewBox="0 0 1000.0 1000.0"
   id="svg4219"
   inkscape:version="0.91 r13725"
   sodipodi:docname="fig_gardenpath_series_II_exp_no_mask_correct.svg"
   inkscape:export-filename="/Users/rohrlich/svn_docs/figs/fig_gardenpath_series_II_exp_no_mask_correct.png"
   inkscape:export-xdpi="150"
   inkscape:export-ydpi="150">
  <metadata
     id="metadata4321">
    <rdf:RDF>
      <cc:Work
         rdf:about="">
        <dc:format>image/svg+xml</dc:format>
        <dc:type
           rdf:resource="http://purl.org/dc/dcmitype/StillImage" />
        <dc:title />
      </cc:Work>
    </rdf:RDF>
  </metadata>
  <defs
     id="defs4319">
    <marker
       inkscape:stockid="Arrow2Lstart"
       orient="auto"
       refY="0"
       refX="0"
       id="Arrow2Lstart"
       style="overflow:visible"
       inkscape:isstock="true">
      <path
         inkscape:connector-curvature="0"
         id="path4302"
         style="fill:#008000;fill-opacity:1;fill-rule:evenodd;stroke:#008000;stroke-width:0.62;stroke-linejoin:round;stroke-opacity:1"
         d="M 8.7,4 -2.2,0.02 8.7,-4 C 7,-1.6 7,1.6 8.7,4 Z"
         transform="matrix(1.1,0,0,1.1,1.1,0)" />
    </marker>
  </defs>
  <sodipodi:namedview
     pagecolor="#ffffff"
     bordercolor="#666666"
     borderopacity="1"
     objecttolerance="10"
     gridtolerance="10"
     guidetolerance="10"
     inkscape:pageopacity="0"
     inkscape:pageshadow="2"
     inkscape:window-width="1650"
     inkscape:window-height="1005"
     id="namedview4317"
     showgrid="false"
     inkscape:zoom="1.8"
     inkscape:cx="84"
     inkscape:cy="2e+02"
     inkscape:window-x="0"
     inkscape:window-y="1"
     inkscape:window-maximized="1"
     inkscape:current-layer="svg4219" />
  <path
     stroke="#000000"
     stroke-width="2"
     fill="none"
     d="M 229.1,731.8 L 229.1,163.6 L 797.3,163.6 L 797.3,731.8 L 229.1,731.8 "
     id="path4221" />
  <g
     id="g4223">
    <text
       x="506.97888"
       y="814.72113"
       font-size="28.4"
       id="text4225"
       style="font-size:28.4px;font-family:Arial;text-anchor:middle;fill:#000000">Degree of Degradation</text>
    <text
       x="262.5"
       y="780.09998"
       font-size="28.4"
       id="text4227"
       style="font-size:28.4px;font-family:Arial;text-anchor:middle;fill:#000000">D7</text>
    <text
       x="763.90002"
       y="780.09998"
       font-size="28.4"
       id="text4229"
       style="font-size:28.4px;font-family:Arial;text-anchor:middle;fill:#000000">D1</text>
    <path
       stroke="#000000"
       stroke-width="2"
       fill="none"
       d="M 229.1,731.8 L 797.3,731.8 M 262.5,746.0 L 262.5,717.6 M 429.6,746.0 L 429.6,717.6 M 596.8,746.0 L 596.8,717.6 M 763.9,746.0 L 763.9,717.6 "
       id="path4231" />
    <path
       stroke="#000000"
       stroke-width="2"
       fill="none"
       d="M 229.1,163.6 L 797.3,163.6 M 262.5,177.8 L 262.5,149.4 M 429.6,177.8 L 429.6,149.4 M 596.8,177.8 L 596.8,149.4 M 763.9,177.8 L 763.9,149.4 "
       id="path4233" />
    <text
       x="209.2"
       y="743.2"
       font-family="Arial"
       font-size="28.4"
       fill="#000000"
       text-anchor="end"
       id="text4235">
10
</text>
    <text
       x="209.2"
       y="672.2"
       font-family="Arial"
       font-size="28.4"
       fill="#000000"
       text-anchor="end"
       id="text4237">
20
</text>
    <text
       x="209.2"
       y="601.1"
       font-family="Arial"
       font-size="28.4"
       fill="#000000"
       text-anchor="end"
       id="text4239">
30
</text>
    <text
       x="209.2"
       y="530.1"
       font-family="Arial"
       font-size="28.4"
       fill="#000000"
       text-anchor="end"
       id="text4241">
40
</text>
    <text
       x="209.2"
       y="459.1"
       font-family="Arial"
       font-size="28.4"
       fill="#000000"
       text-anchor="end"
       id="text4243">
50
</text>
    <text
       x="209.2"
       y="388.1"
       font-family="Arial"
       font-size="28.4"
       fill="#000000"
       text-anchor="end"
       id="text4245">
60
</text>
    <text
       x="209.2"
       y="317.0"
       font-family="Arial"
       font-size="28.4"
       fill="#000000"
       text-anchor="end"
       id="text4247">
70
</text>
    <text
       x="209.2"
       y="246.0"
       font-family="Arial"
       font-size="28.4"
       fill="#000000"
       text-anchor="end"
       id="text4249">
80
</text>
    <text
       x="209.2"
       y="175.0"
       font-family="Arial"
       font-size="28.4"
       fill="#000000"
       text-anchor="end"
       id="text4251">
90
</text>
    <path
       stroke="#000000"
       stroke-width="2"
       fill="none"
       d="M 229.1,731.8 L 229.1,163.6 M 214.9,731.8 L 243.3,731.8 M 214.9,660.8 L 243.3,660.8 M 214.9,589.8 L 243.3,589.8 M 214.9,518.8 L 243.3,518.8 M 214.9,447.7 L 243.3,447.7 M 214.9,376.7 L 243.3,376.7 M 214.9,305.7 L 243.3,305.7 M 214.9,234.6 L 243.3,234.6 M 214.9,163.6 L 243.3,163.6 "
       id="path4253" />
    <path
       stroke="#000000"
       stroke-width="2"
       fill="none"
       d="M 797.3,731.8 L 797.3,163.6 M 783.1,731.8 L 811.5,731.8 M 783.1,660.8 L 811.5,660.8 M 783.1,589.8 L 811.5,589.8 M 783.1,518.8 L 811.5,518.8 M 783.1,447.7 L 811.5,447.7 M 783.1,376.7 L 811.5,376.7 M 783.1,305.7 L 811.5,305.7 M 783.1,234.6 L 811.5,234.6 M 783.1,163.6 L 811.5,163.6 "
       id="path4255" />
    <text
       x="427.25977"
       y="778.42706"
       font-size="28.4"
       id="text4227-0"
       style="font-size:28.4px;font-family:Arial;text-anchor:middle;fill:#000000;-inkscape-font-specification:'Arial, Normal';font-weight:normal;font-style:normal;font-stretch:normal;font-variant:normal;text-align:center;writing-mode:lr;line-height:125%;"
       sodipodi:linespacing="125%">
      <tspan
         sodipodi:role="line"
         id="tspan4210">D5</tspan>
    </text>
    <text
       x="598.26489"
       y="776.69843"
       font-size="28.4"
       id="text4227-0-2"
       style="font-style:normal;font-variant:normal;font-weight:normal;font-stretch:normal;font-size:28.4px;line-height:125%;font-family:Arial;-inkscape-font-specification:'Arial, Normal';text-align:center;writing-mode:lr;text-anchor:middle;fill:#000000;"
       sodipodi:linespacing="125%">
      <tspan
         sodipodi:role="line"
         id="tspan4230">D3</tspan>
    </text>
  </g>
  <path
     inkscape:connector-curvature="0"
     style="fill:none;stroke:#000000;stroke-width:2.5;stroke-miterlimit:4;stroke-dasharray:none"
     id="path4285"
     d="M 260,700 430,600 600,530 760,450" />
  <path
     inkscape:connector-curvature="0"
     style="fill:none;stroke:#000000;stroke-width:2.5;stroke-miterlimit:4;stroke-dasharray:none"
     id="path4287"
     d="" />
  <path
     inkscape:connector-curvature="0"
     style="fill:#000000;stroke:#000000;stroke-width:2.5;stroke-miterlimit:4;stroke-dasharray:none"
     id="path4289"
     d="M 270,700 270,700 270,700 270,700 260,700 260,700 260,700 260,700 260,700 260,710 260,710 260,710 260,710 270,710 270,710 270,710 270,700 M 440,600 440,600 430,600 430,600 430,600 430,600 430,600 420,600 420,600 420,610 430,610 430,610 430,610 430,610 430,610 440,610 440,600 M 600,530 600,520 600,520 600,520 600,520 600,520 590,520 590,520 590,530 590,530 590,530 600,530 600,530 600,530 600,530 600,530 600,530 M 770,450 770,450 770,440 770,440 760,440 760,440 760,440 760,450 760,450 760,450 760,450 760,450 760,450 770,450 770,450 770,450 770,450" />
  <path
     inkscape:connector-curvature="0"
     style="fill:none;stroke:#000000;stroke-width:2.5;stroke-miterlimit:4;stroke-dasharray:none"
     id="path4291"
     d="M 250,730 270,730 M 250,680 270,680 M 260,730 260,680 M 260,700 M 420,630 440,630 M 420,580 440,580 M 430,630 430,580 M 430,600 M 590,550 610,550 M 590,500 610,500 M 600,550 600,500 M 600,530 M 750,480 780,480 M 750,420 780,420 M 760,480 760,420 M 760,450" />
  <path
     inkscape:connector-curvature="0"
     style="fill:none;stroke:#ff0000;stroke-width:2.5;stroke-miterlimit:4;stroke-dasharray:20, 20;stroke-dashoffset:0"
     id="path4293"
     d="M 430,580 600,430 760,360" />
  <path
     inkscape:connector-curvature="0"
     style="fill:none;stroke:#ff0000;stroke-width:2.5;stroke-miterlimit:4;stroke-dasharray:none"
     id="path4295"
     d="" />
  <path
     inkscape:connector-curvature="0"
     style="fill:#ff0000;stroke:#ff0000;stroke-width:2.5;stroke-miterlimit:4;stroke-dasharray:none"
     id="path4297"
     d="M 420,580 420,570 440,570 440,580 420,580 M 590,430 590,420 600,420 600,430 590,430 M 760,360 760,350 770,350 770,360 760,360" />
  <path
     inkscape:connector-curvature="0"
     style="fill:none;stroke:#ff0000;stroke-width:2.5;stroke-miterlimit:4;stroke-dasharray:none"
     id="path4299"
     d="M 420,600 440,600 M 420,550 440,550 M 430,600 430,550 M 430,580 M 590,450 610,450 M 590,400 610,400 M 600,450 600,400 M 600,430 M 750,380 780,380 M 750,330 780,330 M 760,380 760,330 M 760,360" />
  <path
     inkscape:connector-curvature="0"
     style="fill:none;stroke:#0000ff;stroke-width:2.5;stroke-miterlimit:4;stroke-dasharray:7.5, 7.5;stroke-dashoffset:0"
     id="path4301"
     d="M 600,440 760,310" />
  <path
     inkscape:connector-curvature="0"
     style="fill:none;stroke:#0000ff;stroke-width:2.5;stroke-miterlimit:4;stroke-dasharray:none"
     id="path4303"
     d="" />
  <path
     inkscape:connector-curvature="0"
     style="fill:#0000ff;stroke:#0000ff;stroke-width:2.5;stroke-miterlimit:4;stroke-dasharray:none"
     id="path4305"
     d="M 590,440 600,440 600,440 600,450 590,440 M 760,310 760,310 770,310 760,320 760,310" />
  <path
     inkscape:connector-curvature="0"
     style="fill:none;stroke:#0000ff;stroke-width:2.5;stroke-miterlimit:4;stroke-dasharray:none"
     id="path4307"
     d="M 590,470 610,470 M 590,420 610,420 M 600,470 600,420 M 600,440 M 750,340 780,340 M 750,290 780,290 M 760,340 760,290 M 760,310" />
  <path
     inkscape:connector-curvature="0"
     style="fill:none;stroke:#218b21;stroke-width:2.5;stroke-miterlimit:4;stroke-dasharray:none"
     id="path4309"
     d="M 760,360" />
  <path
     inkscape:connector-curvature="0"
     style="fill:none;stroke:#218b21;stroke-width:2.5;stroke-miterlimit:4;stroke-dasharray:none"
     id="path4311"
     d="" />
  <path
     inkscape:connector-curvature="0"
     style="fill:#218b21;stroke:#218b21;stroke-width:2.5;stroke-miterlimit:4;stroke-dasharray:none"
     id="path4313"
     d="M 760,360 760,350 770,360 760,360" />
  <path
     inkscape:connector-curvature="0"
     style="fill:none;stroke:#218b21;stroke-width:2.5;stroke-miterlimit:4;stroke-dasharray:none"
     id="path4315"
     d="M 750,370 780,370 M 750,340 780,340 M 760,370 760,340 M 760,360" />
  <text
     transform="matrix(0,-0.9,1.1,0,0,0)"
     sodipodi:linespacing="125%"
     id="text4176"
     y="132.17157"
     x="-757.23645"
     style="font-style:normal;font-weight:normal;font-size:31.41px;line-height:125%;font-family:sans-serif;letter-spacing:2.93px;word-spacing:0px;writing-mode:lr;fill:#000000;fill-opacity:1;stroke:none;stroke-width:1px;stroke-linecap:butt;stroke-linejoin:miter;stroke-miterlimit:4;stroke-dasharray:none;stroke-opacity:1;-inkscape-font-specification:'sans-serif, Normal';font-stretch:normal;font-variant:normal;text-anchor:start;text-align:start;"
     xml:space="preserve"><tspan
       sodipodi:role="line"
       id="tspan4189">Percent Correct Recognition</tspan></text>
  <g
     transform="translate(150,-240)"
     id="g4951">
    <path
       sodipodi:nodetypes="cc"
       inkscape:connector-curvature="0"
       id="path4278"
       d="M 840,380 890,380"
       style="fill:none;fill-rule:evenodd;stroke:#008000;stroke-width:1.5;stroke-linecap:butt;stroke-linejoin:miter;stroke-miterlimit:4;stroke-dasharray:none;stroke-opacity:1;marker-start:url(#Arrow2Lstart)" />
    <text
       x="898.11633"
       y="386.00909"
       font-size="21.0"
       id="text4334"
       style="font-style:normal;font-variant:normal;font-weight:normal;font-stretch:normal;font-size:27.15px;line-height:150%;font-family:Arial;-inkscape-font-specification:'Arial, Normal';text-align:start;writing-mode:lr-tb;text-anchor:start;fill:#218b21;stroke-width:2.5;stroke-miterlimit:4;stroke-dasharray:none"
       sodipodi:linespacing="150%">
      <tspan
         y="386.00909"
         x="898.11633"
         id="tspan4968"
         sodipodi:role="line"
         style="font-style:normal;font-variant:normal;font-weight:normal;font-stretch:normal;font-size:27.15px;line-height:150%;font-family:Arial;-inkscape-font-specification:'Arial, Normal';text-align:start;writing-mode:lr-tb;text-anchor:start">condition C1</tspan>
    </text>
    <g
       transform="translate(-190,230)"
       id="g4254">
      <path
         d="M 310,350 370,350"
         id="path4314-4"
         inkscape:connector-curvature="0"
         style="fill:none;stroke:#000000;stroke-width:2.5;stroke-miterlimit:4;stroke-dasharray:none" />
      <text
         x="388.02829"
         y="357.38934"
         font-size="21.0"
         id="text4316-8"
         style="font-style:normal;font-variant:normal;font-weight:normal;font-stretch:normal;font-size:27.14px;line-height:150%;font-family:Arial;-inkscape-font-specification:'Arial, Normal';text-align:start;writing-mode:lr-tb;text-anchor:start;fill:#000000;stroke-width:2.5;stroke-miterlimit:4;stroke-dasharray:none"
         sodipodi:linespacing="150%">
        <tspan
           y="357.38934"
           x="388.02829"
           id="tspan4195"
           sodipodi:role="line">condition C7</tspan>
      </text>
      <path
         d="M 310,320 370,320"
         id="path4320-0"
         inkscape:connector-curvature="0"
         style="fill:none;stroke:#ff0000;stroke-width:2.5;stroke-miterlimit:4;stroke-dasharray:20, 20;stroke-dashoffset:0" />
      <text
         x="388.60446"
         y="321.99438"
         font-size="21.0"
         id="text4322-8"
         style="font-style:normal;font-variant:normal;font-weight:normal;font-stretch:normal;font-size:27.14px;line-height:150%;font-family:Arial;-inkscape-font-specification:'Arial, Normal';text-align:start;writing-mode:lr-tb;text-anchor:start;fill:#ff0000;stroke-width:2.5;stroke-miterlimit:4;stroke-dasharray:none"
         sodipodi:linespacing="150%">
        <tspan
           y="321.99438"
           x="388.60446"
           id="tspan4197"
           sodipodi:role="line">condition C5</tspan>
      </text>
      <text
         x="387.49689"
         y="286.81354"
         font-size="21.0"
         id="text4328-7"
         style="font-style:normal;font-variant:normal;font-weight:normal;font-stretch:normal;font-size:27.14px;line-height:150%;font-family:Arial;-inkscape-font-specification:'Arial, Normal';text-align:start;writing-mode:lr-tb;text-anchor:start;fill:#0000ff;stroke-width:2.5;stroke-miterlimit:4;stroke-dasharray:none"
         sodipodi:linespacing="150%">
        <tspan
           y="286.81354"
           x="387.49689"
           id="tspan4199"
           sodipodi:role="line">condition C3</tspan>
      </text>
      <path
         d="M 310,280 370,280"
         id="path4332-8"
         inkscape:connector-curvature="0"
         style="fill:#0000ff;fill-opacity:1;stroke:#0000ff;stroke-width:2.5;stroke-miterlimit:4;stroke-dasharray:7.5, 7.5;stroke-dashoffset:0;stroke-opacity:1" />
      <path
         d="M 420,350 420,350"
         id="path4338"
         inkscape:connector-curvature="0"
         style="fill:none;stroke:#800080;stroke-width:2.5;stroke-miterlimit:4;stroke-dasharray:none" />
      <text
         x="388.64667"
         y="252.4357"
         font-size="21.0"
         id="text4334-1"
         style="font-style:normal;font-variant:normal;font-weight:normal;font-stretch:normal;font-size:27.15px;line-height:150%;font-family:Arial;-inkscape-font-specification:'Arial, Normal';text-align:start;writing-mode:lr-tb;text-anchor:start;fill:#218b21;stroke-width:2.5;stroke-miterlimit:4;stroke-dasharray:none"
         sodipodi:linespacing="150%">
        <tspan
           y="252.4357"
           x="388.64667"
           id="tspan4193-1"
           sodipodi:role="line">condition C1</tspan>
      </text>
      <path
         d="M 360,250 340,250 350,240 360,250"
         id="path4229-3"
         style="fill:#218b21;stroke:#218b21;stroke-width:1.79"
         inkscape:connector-curvature="0" />
    </g>
  </g>
</svg>
