<?xml version="1.0" encoding="UTF-8" standalone="no"?>
<svg
   xmlns:dc="http://purl.org/dc/elements/1.1/"
   xmlns:cc="http://creativecommons.org/ns#"
   xmlns:rdf="http://www.w3.org/1999/02/22-rdf-syntax-ns#"
   xmlns:svg="http://www.w3.org/2000/svg"
   xmlns="http://www.w3.org/2000/svg"
   xmlns:sodipodi="http://sodipodi.sourceforge.net/DTD/sodipodi-0.dtd"
   xmlns:inkscape="http://www.inkscape.org/namespaces/inkscape"
   width="255.867"
   height="231.95"
   id="svg2"
   version="1.1"
   inkscape:version="0.91 r13725"
   sodipodi:docname="fig_ravens.svg"
   inkscape:export-filename="/Users/oreilly/svn_docs/figs/fig_ravens.png"
   inkscape:export-xdpi="149.58"
   inkscape:export-ydpi="149.58">
  <metadata
     id="metadata220">
    <rdf:RDF>
      <cc:Work
         rdf:about="">
        <dc:format>image/svg+xml</dc:format>
        <dc:type
           rdf:resource="http://purl.org/dc/dcmitype/StillImage" />
        <dc:title></dc:title>
      </cc:Work>
    </rdf:RDF>
  </metadata>
  <sodipodi:namedview
     pagecolor="#ffffff"
     bordercolor="#666666"
     borderopacity="1"
     objecttolerance="10"
     gridtolerance="10"
     guidetolerance="10"
     inkscape:pageopacity="0"
     inkscape:pageshadow="2"
     inkscape:window-width="640"
     inkscape:window-height="480"
     id="namedview218"
     showgrid="false"
     inkscape:zoom="3.0222031"
     inkscape:cx="129.0916"
     inkscape:cy="115.975"
     inkscape:current-layer="svg2" />
  <defs
     id="defs4">
    <marker
       id="ArrowEnd"
       viewBox="0 0 10 10"
       refX="0"
       refY="5"
       markerUnits="strokeWidth"
       markerWidth="4"
       markerHeight="3"
       orient="auto">
      <path
         d="M 0 0 L 10 5 L 0 10 z"
         id="path7" />
    </marker>
    <marker
       id="ArrowStart"
       viewBox="0 0 10 10"
       refX="10"
       refY="5"
       markerUnits="strokeWidth"
       markerWidth="4"
       markerHeight="3"
       orient="auto">
      <path
         d="M 10 0 L 0 5 L 10 10 z"
         id="path10" />
    </marker>
  </defs>
  <g
     id="g12">
    <path
       style="stroke:#000000; stroke-width:1.9133; fill:none"
       d="M 76.9961 48.8123L 76.9961 74.1603"
       id="path14" />
    <path
       style="stroke:#000000; stroke-width:1.9133; fill:none"
       d="M 65.0391 54.5553L 89.4336 54.5553"
       id="path16" />
    <path
       style="stroke:#000000; stroke-width:1.9133; fill:none"
       d="M 65.0391 61.2503L 89.4336 61.2503"
       id="path18" />
    <path
       style="stroke:#000000; stroke-width:1.9133; fill:none"
       d="M 65.0391 67.4693L 89.4336 67.4693"
       id="path20" />
    <path
       style="stroke:#000000; stroke-width:1.9133; fill:none"
       d="M 143.004 22.5083L 167.398 22.5083"
       id="path22" />
    <path
       style="stroke:#000000; stroke-width:1.9133; fill:none"
       d="M 143.004 32.0743L 167.398 32.0743"
       id="path24" />
    <path
       style="stroke:#000000; stroke-width:1.9133; fill:none"
       d="M 153.051 39.9653L 156.398 39.9653L 156.398 14.1373L 153.051 14.1373L 153.051 39.9653z"
       id="path26" />
    <path
       style="stroke:#000000; stroke-width:1.9133; fill:none"
       d="M 57.1836 118.691L 193.453 118.691L 193.453 10.0273L 57.1836 10.0273L 57.1836 118.691z"
       id="path28" />
    <path
       style="stroke:#000000; stroke-width:1.9133; fill:none"
       d="M 135.113 78.2303L 135.113 113.148L 175.289 113.148L 186.766 94.9733L 175.527 78.2343L 135.109 78.2343"
       id="path30" />
    <path
       style="stroke:#000000; stroke-width:1.9133; fill:none"
       d="M 71.2578 184.899L 71.2578 219.817L 111.434 219.817L 122.91 201.641L 111.672 184.903L 71.2539 184.903"
       id="path32" />
    <path
       style="stroke:#000000; stroke-width:1.9133; fill:none"
       d="M 91.8242 189.922L 91.8242 215.27"
       id="path34" />
    <path
       style="stroke:#000000; stroke-width:1.9133; fill:none"
       d="M 133.438 138.024L 133.438 172.942L 173.613 172.942L 185.09 154.766L 173.852 138.028L 133.434 138.028"
       id="path36" />
    <path
       style="stroke:#000000; stroke-width:1.9133; fill:none"
       d="M 140.137 150.219L 164.531 150.219"
       id="path38" />
    <path
       style="stroke:#000000; stroke-width:1.9133; fill:none"
       d="M 140.137 156.438L 164.531 156.438"
       id="path40" />
    <path
       style="stroke:#000000; stroke-width:1.9133; fill:none"
       d="M 140.137 163.133L 164.531 163.133"
       id="path42" />
    <path
       style="stroke:#000000; stroke-width:1.9133; fill:none"
       d="M 145.875 169.352L 149.223 169.352L 149.223 143.524L 145.875 143.524L 145.875 169.352z"
       id="path44" />
    <path
       style="stroke:#000000; stroke-width:1.9133; fill:none"
       d="M 155.922 169.352L 159.27 169.352L 159.27 143.524L 155.922 143.524L 155.922 169.352z"
       id="path46" />
    <path
       style="stroke:#000000; stroke-width:1.9133; fill:none"
       d="M 194.188 137.543L 194.188 172.461L 234.363 172.461L 245.84 154.286L 234.602 137.547L 194.184 137.547"
       id="path48" />
    <path
       style="stroke:#000000; stroke-width:1.9133; fill:none"
       d="M 206.621 168.875L 209.969 168.875L 209.969 143.047L 206.621 143.047L 206.621 168.875z"
       id="path50" />
    <path
       style="stroke:#000000; stroke-width:1.9133; fill:none"
       d="M 216.188 168.875L 219.535 168.875L 219.535 143.047L 216.188 143.047L 216.188 168.875z"
       id="path52" />
    <path
       style="stroke:#000000; stroke-width:1.9133; fill:none"
       d="M 200.402 149.743L 224.797 149.743L 224.797 147.352L 200.402 147.352L 200.402 149.743z"
       id="path54" />
    <path
       style="stroke:#000000; stroke-width:1.9133; fill:none"
       d="M 200.402 157.395L 224.797 157.395L 224.797 155.004L 200.402 155.004L 200.402 157.395z"
       id="path56" />
    <path
       style="stroke:#000000; stroke-width:1.9133; fill:none"
       d="M 200.402 164.567L 224.797 164.567L 224.797 162.176L 200.402 162.176L 200.402 164.567z"
       id="path58" />
    <path
       style="stroke:#000000; stroke-width:1.9133; fill:none"
       d="M 194.188 184.899L 194.188 219.817L 234.363 219.817L 245.84 201.641L 234.602 184.903L 194.184 184.903"
       id="path60" />
    <path
       style="stroke:#000000; stroke-width:1.9133; fill:none"
       d="M 201.84 195.899L 226.234 195.899L 226.234 193.508L 201.84 193.508L 201.84 195.899z"
       id="path62" />
    <path
       style="stroke:#000000; stroke-width:1.9133; fill:none"
       d="M 201.84 203.789L 226.234 203.789L 226.234 201.399L 201.84 201.399L 201.84 203.789z"
       id="path64" />
    <path
       style="stroke:#000000; stroke-width:1.9133; fill:none"
       d="M 201.84 211.446L 226.234 211.446L 226.234 209.055L 201.84 209.055L 201.84 211.446z"
       id="path66" />
    <path
       style="stroke:#000000; stroke-width:1.9133; fill:none"
       d="M 10.0312 185.375L 10.0312 220.293L 50.207 220.293L 61.6836 202.118L 50.4453 185.379L 10.0273 185.379"
       id="path68" />
    <path
       style="stroke:#000000; stroke-width:1.9133; fill:none"
       d="M 27.25 190.399L 27.25 215.746"
       id="path70" />
    <path
       style="stroke:#000000; stroke-width:1.9133; fill:none"
       d="M 36.3398 190.399L 36.3398 215.746"
       id="path72" />
    <path
       style="stroke:#000000; stroke-width:1.9133; fill:none"
       d="M 19.5977 197.094L 43.9922 197.094L 43.9922 194.703L 19.5977 194.703L 19.5977 197.094z"
       id="path74" />
    <path
       style="stroke:#000000; stroke-width:1.9133; fill:none"
       d="M 19.5977 204.746L 43.9922 204.746L 43.9922 202.356L 19.5977 202.356L 19.5977 204.746z"
       id="path76" />
    <path
       style="stroke:#000000; stroke-width:1.9133; fill:none"
       d="M 19.5977 212.403L 43.9922 212.403L 43.9922 210.012L 19.5977 210.012L 19.5977 212.403z"
       id="path78" />
    <path
       style="stroke:#000000; stroke-width:1.9133; fill:none"
       d="M 65.0391 27.7703L 89.4336 27.7703L 89.4336 25.3793L 65.0391 25.3793L 65.0391 27.7703z"
       id="path80" />
    <path
       style="stroke:none; fill-rule:evenodd; fill:#000000"
       d="M 75.8008 13.6563C 75.8008 13.6563 75.8008 13.6563 75.3633 14.3323C 74.9258 15.0083 74.0508 16.3633 73.293 18.2343C 72.5391 20.1053 71.8984 22.4963 71.6992 24.6093C 71.5039 26.7193 71.7383 28.5553 72.2148 30.6253C 72.6914 32.6953 73.4102 35.0083 74.1641 36.7233C 74.918 38.4343 75.7148 39.5513 76.4727 39.7113C 77.2266 39.8673 77.9453 39.0743 77.8672 38.0393C 77.7891 37.0043 76.9141 35.7303 76.2344 34.2543C 75.5586 32.7813 75.082 31.1053 74.8398 29.1953C 74.6016 27.2853 74.6016 25.1333 74.918 23.2973C 75.2344 21.4653 75.8711 19.9493 76.5898 18.4773C 77.3047 17.0043 78.1016 15.5703 77.9414 14.7303C 77.7852 13.8953 76.668 13.6563 76.1094 13.5353C 75.5547 13.4183 75.5547 13.4183 75.5547 13.4183"
       id="path82" />
    <path
       style="stroke:#000000; stroke-width:0.95664899999999997; fill:none"
       d="M 75.8008 13.6563C 75.8008 13.6563 75.8008 13.6563 75.3633 14.3323C 74.9258 15.0083 74.0508 16.3633 73.293 18.2343C 72.5391 20.1053 71.8984 22.4963 71.6992 24.6093C 71.5039 26.7193 71.7383 28.5553 72.2148 30.6253C 72.6914 32.6953 73.4102 35.0083 74.1641 36.7233C 74.918 38.4343 75.7148 39.5513 76.4727 39.7113C 77.2266 39.8673 77.9453 39.0743 77.8672 38.0393C 77.7891 37.0043 76.9141 35.7303 76.2344 34.2543C 75.5586 32.7813 75.082 31.1053 74.8398 29.1953C 74.6016 27.2853 74.6016 25.1333 74.918 23.2973C 75.2344 21.4653 75.8711 19.9493 76.5898 18.4773C 77.3047 17.0043 78.1016 15.5703 77.9414 14.7303C 77.7852 13.8953 76.668 13.6563 76.1094 13.5353C 75.5547 13.4183 75.5547 13.4183 75.5547 13.4183"
       id="path84" />
    <path
       style="stroke:none; fill-rule:evenodd; fill:#000000"
       d="M 83.4531 13.6563C 83.4531 13.6563 83.4531 13.6563 83.0156 14.3323C 82.5781 15.0083 81.7031 16.3633 80.9453 18.2343C 80.1914 20.1053 79.5508 22.4963 79.3516 24.6093C 79.1562 26.7193 79.3906 28.5553 79.8672 30.6253C 80.3438 32.6953 81.0625 35.0083 81.8164 36.7233C 82.5703 38.4343 83.3672 39.5513 84.125 39.7113C 84.8789 39.8673 85.5977 39.0743 85.5195 38.0393C 85.4414 37.0043 84.5664 35.7303 83.8867 34.2543C 83.2109 32.7813 82.7344 31.1053 82.4922 29.1953C 82.2539 27.2853 82.2539 25.1333 82.5703 23.2973C 82.8867 21.4653 83.5234 19.9493 84.2422 18.4773C 84.957 17.0043 85.7539 15.5703 85.5938 14.7303C 85.4375 13.8953 84.3203 13.6563 83.7617 13.5353C 83.207 13.4183 83.207 13.4183 83.207 13.4183"
       id="path86" />
    <path
       style="stroke:#000000; stroke-width:0.95664899999999997; fill:none"
       d="M 83.4531 13.6563C 83.4531 13.6563 83.4531 13.6563 83.0156 14.3323C 82.5781 15.0083 81.7031 16.3633 80.9453 18.2343C 80.1914 20.1053 79.5508 22.4963 79.3516 24.6093C 79.1562 26.7193 79.3906 28.5553 79.8672 30.6253C 80.3438 32.6953 81.0625 35.0083 81.8164 36.7233C 82.5703 38.4343 83.3672 39.5513 84.125 39.7113C 84.8789 39.8673 85.5977 39.0743 85.5195 38.0393C 85.4414 37.0043 84.5664 35.7303 83.8867 34.2543C 83.2109 32.7813 82.7344 31.1053 82.4922 29.1953C 82.2539 27.2853 82.2539 25.1333 82.5703 23.2973C 82.8867 21.4653 83.5234 19.9493 84.2422 18.4773C 84.957 17.0043 85.7539 15.5703 85.5938 14.7303C 85.4375 13.8953 84.3203 13.6563 83.7617 13.5353C 83.207 13.4183 83.207 13.4183 83.207 13.4183"
       id="path88" />
    <path
       style="stroke:none; fill-rule:evenodd; fill:#000000"
       d="M 151.137 48.0983C 151.137 48.0983 151.137 48.0983 150.699 48.7733C 150.262 49.4493 149.387 50.8053 148.629 52.6763C 147.875 54.5473 147.234 56.9383 147.035 59.0513C 146.84 61.1603 147.074 62.9963 147.551 65.0663C 148.027 67.1373 148.746 69.4493 149.5 71.1643C 150.254 72.8753 151.051 73.9923 151.809 74.1523C 152.562 74.3093 153.281 73.5163 153.203 72.4803C 153.125 71.4453 152.25 70.1723 151.57 68.6953C 150.895 67.2233 150.418 65.5473 150.176 63.6373C 149.938 61.7273 149.938 59.5743 150.254 57.7383C 150.57 55.9063 151.207 54.3913 151.926 52.9183C 152.641 51.4453 153.438 50.0123 153.277 49.1723C 153.121 48.3363 152.004 48.0983 151.445 47.9773C 150.891 47.8593 150.891 47.8593 150.891 47.8593"
       id="path90" />
    <path
       style="stroke:#000000; stroke-width:0.95664899999999997; fill:none"
       d="M 151.137 48.0983C 151.137 48.0983 151.137 48.0983 150.699 48.7733C 150.262 49.4493 149.387 50.8053 148.629 52.6763C 147.875 54.5473 147.234 56.9383 147.035 59.0513C 146.84 61.1603 147.074 62.9963 147.551 65.0663C 148.027 67.1373 148.746 69.4493 149.5 71.1643C 150.254 72.8753 151.051 73.9923 151.809 74.1523C 152.562 74.3093 153.281 73.5163 153.203 72.4803C 153.125 71.4453 152.25 70.1723 151.57 68.6953C 150.895 67.2233 150.418 65.5473 150.176 63.6373C 149.938 61.7273 149.938 59.5743 150.254 57.7383C 150.57 55.9063 151.207 54.3913 151.926 52.9183C 152.641 51.4453 153.438 50.0123 153.277 49.1723C 153.121 48.3363 152.004 48.0983 151.445 47.9773C 150.891 47.8593 150.891 47.8593 150.891 47.8593"
       id="path92" />
    <path
       style="stroke:none; fill-rule:evenodd; fill:#000000"
       d="M 157.355 48.0983C 157.355 48.0983 157.355 48.0983 156.918 48.7733C 156.48 49.4493 155.605 50.8053 154.848 52.6763C 154.094 54.5473 153.453 56.9383 153.254 59.0513C 153.059 61.1603 153.293 62.9963 153.77 65.0663C 154.246 67.1373 154.965 69.4493 155.719 71.1643C 156.473 72.8753 157.27 73.9923 158.027 74.1523C 158.781 74.3093 159.5 73.5163 159.422 72.4803C 159.344 71.4453 158.469 70.1723 157.789 68.6953C 157.113 67.2233 156.637 65.5473 156.395 63.6373C 156.156 61.7273 156.156 59.5743 156.473 57.7383C 156.789 55.9063 157.426 54.3913 158.145 52.9183C 158.859 51.4453 159.656 50.0123 159.496 49.1723C 159.34 48.3363 158.223 48.0983 157.664 47.9773C 157.109 47.8593 157.109 47.8593 157.109 47.8593"
       id="path94" />
    <path
       style="stroke:#000000; stroke-width:0.95664899999999997; fill:none"
       d="M 157.355 48.0983C 157.355 48.0983 157.355 48.0983 156.918 48.7733C 156.48 49.4493 155.605 50.8053 154.848 52.6763C 154.094 54.5473 153.453 56.9383 153.254 59.0513C 153.059 61.1603 153.293 62.9963 153.77 65.0663C 154.246 67.1373 154.965 69.4493 155.719 71.1643C 156.473 72.8753 157.27 73.9923 158.027 74.1523C 158.781 74.3093 159.5 73.5163 159.422 72.4803C 159.344 71.4453 158.469 70.1723 157.789 68.6953C 157.113 67.2233 156.637 65.5473 156.395 63.6373C 156.156 61.7273 156.156 59.5743 156.473 57.7383C 156.789 55.9063 157.426 54.3913 158.145 52.9183C 158.859 51.4453 159.656 50.0123 159.496 49.1723C 159.34 48.3363 158.223 48.0983 157.664 47.9773C 157.109 47.8593 157.109 47.8593 157.109 47.8593"
       id="path96" />
    <path
       style="stroke:none; fill-rule:evenodd; fill:#000000"
       d="M 163.336 48.0983C 163.336 48.0983 163.336 48.0983 162.898 48.7733C 162.461 49.4493 161.586 50.8053 160.828 52.6763C 160.074 54.5473 159.434 56.9383 159.234 59.0513C 159.039 61.1603 159.273 62.9963 159.75 65.0663C 160.227 67.1373 160.945 69.4493 161.699 71.1643C 162.453 72.8753 163.25 73.9923 164.008 74.1523C 164.762 74.3093 165.48 73.5163 165.402 72.4803C 165.324 71.4453 164.449 70.1723 163.77 68.6953C 163.094 67.2233 162.617 65.5473 162.375 63.6373C 162.137 61.7273 162.137 59.5743 162.453 57.7383C 162.77 55.9063 163.406 54.3913 164.125 52.9183C 164.84 51.4453 165.637 50.0123 165.477 49.1723C 165.32 48.3363 164.203 48.0983 163.645 47.9773C 163.09 47.8593 163.09 47.8593 163.09 47.8593"
       id="path98" />
    <path
       style="stroke:#000000; stroke-width:0.95664899999999997; fill:none"
       d="M 163.336 48.0983C 163.336 48.0983 163.336 48.0983 162.898 48.7733C 162.461 49.4493 161.586 50.8053 160.828 52.6763C 160.074 54.5473 159.434 56.9383 159.234 59.0513C 159.039 61.1603 159.273 62.9963 159.75 65.0663C 160.227 67.1373 160.945 69.4493 161.699 71.1643C 162.453 72.8753 163.25 73.9923 164.008 74.1523C 164.762 74.3093 165.48 73.5163 165.402 72.4803C 165.324 71.4453 164.449 70.1723 163.77 68.6953C 163.094 67.2233 162.617 65.5473 162.375 63.6373C 162.137 61.7273 162.137 59.5743 162.453 57.7383C 162.77 55.9063 163.406 54.3913 164.125 52.9183C 164.84 51.4453 165.637 50.0123 165.477 49.1723C 165.32 48.3363 164.203 48.0983 163.645 47.9773C 163.09 47.8593 163.09 47.8593 163.09 47.8593"
       id="path100" />
    <path
       style="stroke:none; fill-rule:evenodd; fill:#000000"
       d="M 168.598 63.1643C 168.598 63.1643 168.598 63.1643 167.922 62.7273C 167.246 62.2893 165.891 61.4143 164.02 60.6563C 162.148 59.9023 159.758 59.2623 157.645 59.0623C 155.535 58.8673 153.699 59.1023 151.629 59.5783C 149.559 60.0553 147.246 60.7733 145.531 61.5273C 143.82 62.2813 142.703 63.0783 142.543 63.8363C 142.387 64.5903 143.18 65.3093 144.215 65.2303C 145.25 65.1523 146.523 64.2773 148 63.5983C 149.473 62.9223 151.148 62.4453 153.059 62.2033C 154.969 61.9653 157.121 61.9653 158.957 62.2813C 160.789 62.5983 162.305 63.2343 163.777 63.9533C 165.25 64.6683 166.684 65.4653 167.523 65.3053C 168.359 65.1483 168.598 64.0313 168.719 63.4733C 168.836 62.9183 168.836 62.9183 168.836 62.9183"
       id="path102" />
    <path
       style="stroke:#000000; stroke-width:0.95664899999999997; fill:none"
       d="M 168.598 63.1643C 168.598 63.1643 168.598 63.1643 167.922 62.7273C 167.246 62.2893 165.891 61.4143 164.02 60.6563C 162.148 59.9023 159.758 59.2623 157.645 59.0623C 155.535 58.8673 153.699 59.1023 151.629 59.5783C 149.559 60.0553 147.246 60.7733 145.531 61.5273C 143.82 62.2813 142.703 63.0783 142.543 63.8363C 142.387 64.5903 143.18 65.3093 144.215 65.2303C 145.25 65.1523 146.523 64.2773 148 63.5983C 149.473 62.9223 151.148 62.4453 153.059 62.2033C 154.969 61.9653 157.121 61.9653 158.957 62.2813C 160.789 62.5983 162.305 63.2343 163.777 63.9533C 165.25 64.6683 166.684 65.4653 167.523 65.3053C 168.359 65.1483 168.598 64.0313 168.719 63.4733C 168.836 62.9183 168.836 62.9183 168.836 62.9183"
       id="path104" />
    <path
       style="stroke:#000000; stroke-width:1.9133; fill:none"
       d="M 109.523 14.2583L 109.523 39.6053"
       id="path106" />
    <path
       style="stroke:#000000; stroke-width:1.9133; fill:none"
       d="M 116.219 14.2583L 116.219 39.6053"
       id="path108" />
    <path
       style="stroke:#000000; stroke-width:1.9133; fill:none"
       d="M 122.918 14.4963L 122.918 39.8443"
       id="path110" />
    <path
       style="stroke:none; fill-rule:evenodd; fill:#000000"
       d="M 129.133 22.8633C 129.133 22.8633 129.133 22.8633 128.457 22.4263C 127.781 21.9883 126.426 21.1133 124.555 20.3553C 122.684 19.6023 120.293 18.9613 118.18 18.7623C 116.07 18.5663 114.234 18.8013 112.164 19.2773C 110.094 19.7543 107.781 20.4733 106.066 21.2273C 104.355 21.9803 103.238 22.7773 103.078 23.5353C 102.922 24.2893 103.715 25.0083 104.75 24.9303C 105.785 24.8523 107.059 23.9773 108.535 23.2973C 110.008 22.6213 111.684 22.1453 113.594 21.9023C 115.504 21.6643 117.656 21.6643 119.492 21.9803C 121.324 22.2973 122.84 22.9343 124.312 23.6523C 125.785 24.3673 127.219 25.1643 128.059 25.0043C 128.895 24.8483 129.133 23.7303 129.254 23.1723C 129.371 22.6173 129.371 22.6173 129.371 22.6173"
       id="path112" />
    <path
       style="stroke:#000000; stroke-width:0.95664899999999997; fill:none"
       d="M 129.133 22.8633C 129.133 22.8633 129.133 22.8633 128.457 22.4263C 127.781 21.9883 126.426 21.1133 124.555 20.3553C 122.684 19.6023 120.293 18.9613 118.18 18.7623C 116.07 18.5663 114.234 18.8013 112.164 19.2773C 110.094 19.7543 107.781 20.4733 106.066 21.2273C 104.355 21.9803 103.238 22.7773 103.078 23.5353C 102.922 24.2893 103.715 25.0083 104.75 24.9303C 105.785 24.8523 107.059 23.9773 108.535 23.2973C 110.008 22.6213 111.684 22.1453 113.594 21.9023C 115.504 21.6643 117.656 21.6643 119.492 21.9803C 121.324 22.2973 122.84 22.9343 124.312 23.6523C 125.785 24.3673 127.219 25.1643 128.059 25.0043C 128.895 24.8483 129.133 23.7303 129.254 23.1723C 129.371 22.6173 129.371 22.6173 129.371 22.6173"
       id="path114" />
    <path
       style="stroke:none; fill-rule:evenodd; fill:#000000"
       d="M 129.133 29.5623C 129.133 29.5623 129.133 29.5623 128.457 29.1253C 127.781 28.6883 126.426 27.8123 124.555 27.0553C 122.684 26.3013 120.293 25.6603 118.18 25.4613C 116.07 25.2663 114.234 25.5003 112.164 25.9773C 110.094 26.4533 107.781 27.1723 106.066 27.9263C 104.355 28.6803 103.238 29.4773 103.078 30.2343C 102.922 30.9883 103.715 31.7073 104.75 31.6293C 105.785 31.5513 107.059 30.6763 108.535 29.9963C 110.008 29.3203 111.684 28.8443 113.594 28.6023C 115.504 28.3633 117.656 28.3633 119.492 28.6803C 121.324 28.9963 122.84 29.6333 124.312 30.3523C 125.785 31.0663 127.219 31.8633 128.059 31.7033C 128.895 31.5473 129.133 30.4303 129.254 29.8713C 129.371 29.3163 129.371 29.3163 129.371 29.3163"
       id="path116" />
    <path
       style="stroke:#000000; stroke-width:0.95664899999999997; fill:none"
       d="M 129.133 29.5623C 129.133 29.5623 129.133 29.5623 128.457 29.1253C 127.781 28.6883 126.426 27.8123 124.555 27.0553C 122.684 26.3013 120.293 25.6603 118.18 25.4613C 116.07 25.2663 114.234 25.5003 112.164 25.9773C 110.094 26.4533 107.781 27.1723 106.066 27.9263C 104.355 28.6803 103.238 29.4773 103.078 30.2343C 102.922 30.9883 103.715 31.7073 104.75 31.6293C 105.785 31.5513 107.059 30.6763 108.535 29.9963C 110.008 29.3203 111.684 28.8443 113.594 28.6023C 115.504 28.3633 117.656 28.3633 119.492 28.6803C 121.324 28.9963 122.84 29.6333 124.312 30.3523C 125.785 31.0663 127.219 31.8633 128.059 31.7033C 128.895 31.5473 129.133 30.4303 129.254 29.8713C 129.371 29.3163 129.371 29.3163 129.371 29.3163"
       id="path118" />
    <path
       style="stroke:none; fill-rule:evenodd; fill:#000000"
       d="M 129.133 36.2583C 129.133 36.2583 129.133 36.2583 128.457 35.8203C 127.781 35.3833 126.426 34.5083 124.555 33.7503C 122.684 32.9963 120.293 32.3553 118.18 32.1563C 116.07 31.9613 114.234 32.1953 112.164 32.6723C 110.094 33.1483 107.781 33.8673 106.066 34.6213C 104.355 35.3753 103.238 36.1723 103.078 36.9303C 102.922 37.6843 103.715 38.4023 104.75 38.3243C 105.785 38.2463 107.059 37.3713 108.535 36.6913C 110.008 36.0163 111.684 35.5393 113.594 35.2973C 115.504 35.0593 117.656 35.0593 119.492 35.3753C 121.324 35.6913 122.84 36.3283 124.312 37.0473C 125.785 37.7623 127.219 38.5593 128.059 38.3983C 128.895 38.2423 129.133 37.1253 129.254 36.5663C 129.371 36.0123 129.371 36.0123 129.371 36.0123"
       id="path120" />
    <path
       style="stroke:#000000; stroke-width:0.95664899999999997; fill:none"
       d="M 129.133 36.2583C 129.133 36.2583 129.133 36.2583 128.457 35.8203C 127.781 35.3833 126.426 34.5083 124.555 33.7503C 122.684 32.9963 120.293 32.3553 118.18 32.1563C 116.07 31.9613 114.234 32.1953 112.164 32.6723C 110.094 33.1483 107.781 33.8673 106.066 34.6213C 104.355 35.3753 103.238 36.1723 103.078 36.9303C 102.922 37.6843 103.715 38.4023 104.75 38.3243C 105.785 38.2463 107.059 37.3713 108.535 36.6913C 110.008 36.0163 111.684 35.5393 113.594 35.2973C 115.504 35.0593 117.656 35.0593 119.492 35.3753C 121.324 35.6913 122.84 36.3283 124.312 37.0473C 125.785 37.7623 127.219 38.5593 128.059 38.3983C 128.895 38.2423 129.133 37.1253 129.254 36.5663C 129.371 36.0123 129.371 36.0123 129.371 36.0123"
       id="path122" />
    <path
       style="stroke:#000000; stroke-width:1.9133; fill:none"
       d="M 68.1484 108.605L 71.4961 108.605L 71.4961 82.7773L 68.1484 82.7773L 68.1484 108.605z"
       id="path124" />
    <path
       style="stroke:#000000; stroke-width:1.9133; fill:none"
       d="M 75.8008 108.605L 79.1484 108.605L 79.1484 82.7773L 75.8008 82.7773L 75.8008 108.605z"
       id="path126" />
    <path
       style="stroke:#000000; stroke-width:1.9133; fill:none"
       d="M 83.2148 108.605L 86.5625 108.605L 86.5625 82.7773L 83.2148 82.7773L 83.2148 108.605z"
       id="path128" />
    <path
       style="stroke:none; fill-rule:evenodd; fill:#000000"
       d="M 90.6289 94.2543C 90.6289 94.2543 90.6289 94.2543 89.9531 93.8163C 89.2773 93.3793 87.9219 92.5043 86.0508 91.7463C 84.1797 90.9923 81.7891 90.3523 79.6758 90.1523C 77.5664 89.9573 75.7305 90.1913 73.6602 90.6683C 71.5898 91.1453 69.2773 91.8633 67.5625 92.6173C 65.8516 93.3713 64.7344 94.1683 64.5742 94.9263C 64.418 95.6803 65.2109 96.3983 66.2461 96.3203C 67.2812 96.2423 68.5547 95.3673 70.0312 94.6883C 71.5039 94.0123 73.1797 93.5353 75.0898 93.2933C 77 93.0553 79.1523 93.0553 80.9883 93.3713C 82.8203 93.6883 84.3359 94.3243 85.8086 95.0433C 87.2812 95.7583 88.7148 96.5553 89.5547 96.3953C 90.3906 96.2383 90.6289 95.1213 90.75 94.5623C 90.8672 94.0083 90.8672 94.0083 90.8672 94.0083"
       id="path130" />
    <path
       style="stroke:#000000; stroke-width:0.95664899999999997; fill:none"
       d="M 90.6289 94.2543C 90.6289 94.2543 90.6289 94.2543 89.9531 93.8163C 89.2773 93.3793 87.9219 92.5043 86.0508 91.7463C 84.1797 90.9923 81.7891 90.3523 79.6758 90.1523C 77.5664 89.9573 75.7305 90.1913 73.6602 90.6683C 71.5898 91.1453 69.2773 91.8633 67.5625 92.6173C 65.8516 93.3713 64.7344 94.1683 64.5742 94.9263C 64.418 95.6803 65.2109 96.3983 66.2461 96.3203C 67.2812 96.2423 68.5547 95.3673 70.0312 94.6883C 71.5039 94.0123 73.1797 93.5353 75.0898 93.2933C 77 93.0553 79.1523 93.0553 80.9883 93.3713C 82.8203 93.6883 84.3359 94.3243 85.8086 95.0433C 87.2812 95.7583 88.7148 96.5553 89.5547 96.3953C 90.3906 96.2383 90.6289 95.1213 90.75 94.5623C 90.8672 94.0083 90.8672 94.0083 90.8672 94.0083"
       id="path132" />
    <path
       style="stroke:none; fill-rule:evenodd; fill:#000000"
       d="M 90.6289 101.906C 90.6289 101.906 90.6289 101.906 89.9531 101.469C 89.2773 101.031 87.9219 100.156 86.0508 99.3983C 84.1797 98.6453 81.7891 98.0043 79.6758 97.8053C 77.5664 97.6093 75.7305 97.8443 73.6602 98.3203C 71.5898 98.7973 69.2773 99.5163 67.5625 100.27C 65.8516 101.023 64.7344 101.82 64.5742 102.578C 64.418 103.332 65.2109 104.051 66.2461 103.973C 67.2812 103.895 68.5547 103.02 70.0312 102.34C 71.5039 101.664 73.1797 101.188 75.0898 100.945C 77 100.707 79.1523 100.707 80.9883 101.023C 82.8203 101.34 84.3359 101.977 85.8086 102.695C 87.2812 103.41 88.7148 104.207 89.5547 104.047C 90.3906 103.891 90.6289 102.773 90.75 102.215C 90.8672 101.66 90.8672 101.66 90.8672 101.66"
       id="path134" />
    <path
       style="stroke:#000000; stroke-width:0.95664899999999997; fill:none"
       d="M 90.6289 101.906C 90.6289 101.906 90.6289 101.906 89.9531 101.469C 89.2773 101.031 87.9219 100.156 86.0508 99.3983C 84.1797 98.6453 81.7891 98.0043 79.6758 97.8053C 77.5664 97.6093 75.7305 97.8443 73.6602 98.3203C 71.5898 98.7973 69.2773 99.5163 67.5625 100.27C 65.8516 101.023 64.7344 101.82 64.5742 102.578C 64.418 103.332 65.2109 104.051 66.2461 103.973C 67.2812 103.895 68.5547 103.02 70.0312 102.34C 71.5039 101.664 73.1797 101.188 75.0898 100.945C 77 100.707 79.1523 100.707 80.9883 101.023C 82.8203 101.34 84.3359 101.977 85.8086 102.695C 87.2812 103.41 88.7148 104.207 89.5547 104.047C 90.3906 103.891 90.6289 102.773 90.75 102.215C 90.8672 101.66 90.8672 101.66 90.8672 101.66"
       id="path136" />
    <path
       style="stroke:#000000; stroke-width:1.9133; fill:none"
       d="M 103.543 94.9733L 127.938 94.9733"
       id="path138" />
    <path
       style="stroke:none; fill-rule:evenodd; fill:#000000"
       d="M 117.652 82.2973C 117.652 82.2973 117.652 82.2973 117.215 82.9733C 116.777 83.6483 115.902 85.0043 115.145 86.8753C 114.391 88.7463 113.75 91.1373 113.551 93.2503C 113.355 95.3593 113.59 97.1953 114.066 99.2663C 114.543 101.336 115.262 103.648 116.016 105.363C 116.77 107.074 117.566 108.191 118.324 108.352C 119.078 108.508 119.797 107.715 119.719 106.68C 119.641 105.645 118.766 104.371 118.086 102.895C 117.41 101.422 116.934 99.7463 116.691 97.8363C 116.453 95.9263 116.453 93.7733 116.77 91.9383C 117.086 90.1053 117.723 88.5903 118.441 87.1173C 119.156 85.6453 119.953 84.2113 119.793 83.3713C 119.637 82.5353 118.52 82.2973 117.961 82.1763C 117.406 82.0593 117.406 82.0593 117.406 82.0593"
       id="path140" />
    <path
       style="stroke:#000000; stroke-width:0.95664899999999997; fill:none"
       d="M 117.652 82.2973C 117.652 82.2973 117.652 82.2973 117.215 82.9733C 116.777 83.6483 115.902 85.0043 115.145 86.8753C 114.391 88.7463 113.75 91.1373 113.551 93.2503C 113.355 95.3593 113.59 97.1953 114.066 99.2663C 114.543 101.336 115.262 103.648 116.016 105.363C 116.77 107.074 117.566 108.191 118.324 108.352C 119.078 108.508 119.797 107.715 119.719 106.68C 119.641 105.645 118.766 104.371 118.086 102.895C 117.41 101.422 116.934 99.7463 116.691 97.8363C 116.453 95.9263 116.453 93.7733 116.77 91.9383C 117.086 90.1053 117.723 88.5903 118.441 87.1173C 119.156 85.6453 119.953 84.2113 119.793 83.3713C 119.637 82.5353 118.52 82.2973 117.961 82.1763C 117.406 82.0593 117.406 82.0593 117.406 82.0593"
       id="path142" />
    <path
       style="stroke:#000000; stroke-width:1.9133; fill:none"
       d="M 10.0312 138.981L 10.0312 173.899L 50.207 173.899L 61.6836 155.723L 50.4453 138.985L 10.0273 138.985"
       id="path144" />
    <path
       style="stroke:#000000; stroke-width:1.9133; fill:none"
       d="M 22.4688 169.828L 25.8164 169.828L 25.8164 144L 22.4688 144L 22.4688 169.828z"
       id="path146" />
    <path
       style="stroke:#000000; stroke-width:1.9133; fill:none"
       d="M 30.1211 169.828L 33.4688 169.828L 33.4688 144L 30.1211 144L 30.1211 169.828z"
       id="path148" />
    <path
       style="stroke:#000000; stroke-width:1.9133; fill:none"
       d="M 37.5352 169.828L 40.8828 169.828L 40.8828 144L 37.5352 144L 37.5352 169.828z"
       id="path150" />
    <path
       style="stroke:none; fill-rule:evenodd; fill:#000000"
       d="M 44.9492 154.047C 44.9492 154.047 44.9492 154.047 44.2734 153.61C 43.5977 153.172 42.2422 152.297 40.3711 151.539C 38.5 150.786 36.1094 150.145 33.9961 149.946C 31.8867 149.75 30.0508 149.985 27.9805 150.461C 25.9102 150.938 23.5977 151.656 21.8828 152.411C 20.1719 153.164 19.0547 153.961 18.8945 154.719C 18.7383 155.473 19.5312 156.192 20.5664 156.114C 21.6016 156.036 22.875 155.161 24.3516 154.481C 25.8242 153.805 27.5 153.328 29.4102 153.086C 31.3203 152.848 33.4727 152.848 35.3086 153.164C 37.1406 153.481 38.6562 154.118 40.1289 154.836C 41.6016 155.551 43.0352 156.348 43.875 156.188C 44.7109 156.031 44.9492 154.914 45.0703 154.356C 45.1875 153.801 45.1875 153.801 45.1875 153.801"
       id="path152" />
    <path
       style="stroke:#000000; stroke-width:0.95664899999999997; fill:none"
       d="M 44.9492 154.047C 44.9492 154.047 44.9492 154.047 44.2734 153.61C 43.5977 153.172 42.2422 152.297 40.3711 151.539C 38.5 150.786 36.1094 150.145 33.9961 149.946C 31.8867 149.75 30.0508 149.985 27.9805 150.461C 25.9102 150.938 23.5977 151.656 21.8828 152.411C 20.1719 153.164 19.0547 153.961 18.8945 154.719C 18.7383 155.473 19.5312 156.192 20.5664 156.114C 21.6016 156.036 22.875 155.161 24.3516 154.481C 25.8242 153.805 27.5 153.328 29.4102 153.086C 31.3203 152.848 33.4727 152.848 35.3086 153.164C 37.1406 153.481 38.6562 154.118 40.1289 154.836C 41.6016 155.551 43.0352 156.348 43.875 156.188C 44.7109 156.031 44.9492 154.914 45.0703 154.356C 45.1875 153.801 45.1875 153.801 45.1875 153.801"
       id="path154" />
    <path
       style="stroke:none; fill-rule:evenodd; fill:#000000"
       d="M 44.9492 162.176C 44.9492 162.176 44.9492 162.176 44.2734 161.739C 43.5977 161.301 42.2422 160.426 40.3711 159.668C 38.5 158.914 36.1094 158.274 33.9961 158.075C 31.8867 157.879 30.0508 158.114 27.9805 158.59C 25.9102 159.067 23.5977 159.786 21.8828 160.539C 20.1719 161.293 19.0547 162.09 18.8945 162.848C 18.7383 163.602 19.5312 164.321 20.5664 164.243C 21.6016 164.164 22.875 163.289 24.3516 162.61C 25.8242 161.934 27.5 161.457 29.4102 161.215C 31.3203 160.977 33.4727 160.977 35.3086 161.293C 37.1406 161.61 38.6562 162.246 40.1289 162.965C 41.6016 163.68 43.0352 164.477 43.875 164.317C 44.7109 164.161 44.9492 163.043 45.0703 162.485C 45.1875 161.93 45.1875 161.93 45.1875 161.93"
       id="path156" />
    <path
       style="stroke:#000000; stroke-width:0.95664899999999997; fill:none"
       d="M 44.9492 162.176C 44.9492 162.176 44.9492 162.176 44.2734 161.739C 43.5977 161.301 42.2422 160.426 40.3711 159.668C 38.5 158.914 36.1094 158.274 33.9961 158.075C 31.8867 157.879 30.0508 158.114 27.9805 158.59C 25.9102 159.067 23.5977 159.786 21.8828 160.539C 20.1719 161.293 19.0547 162.09 18.8945 162.848C 18.7383 163.602 19.5312 164.321 20.5664 164.243C 21.6016 164.164 22.875 163.289 24.3516 162.61C 25.8242 161.934 27.5 161.457 29.4102 161.215C 31.3203 160.977 33.4727 160.977 35.3086 161.293C 37.1406 161.61 38.6562 162.246 40.1289 162.965C 41.6016 163.68 43.0352 164.477 43.875 164.317C 44.7109 164.161 44.9492 163.043 45.0703 162.485C 45.1875 161.93 45.1875 161.93 45.1875 161.93"
       id="path158" />
    <path
       style="stroke:#000000; stroke-width:1.9133; fill:none"
       d="M 71.2578 138.5L 71.2578 173.418L 111.434 173.418L 122.91 155.243L 111.672 138.504L 71.2539 138.504"
       id="path160" />
    <path
       style="stroke:#000000; stroke-width:1.9133; fill:none"
       d="M 89.1953 143.043L 89.1953 168.391"
       id="path162" />
    <path
       style="stroke:#000000; stroke-width:1.9133; fill:none"
       d="M 98.5195 143.043L 98.5195 168.391"
       id="path164" />
    <path
       style="stroke:none; fill-rule:evenodd; fill:#000000"
       d="M 106.652 151.653C 106.652 151.653 106.652 151.653 105.977 151.215C 105.301 150.778 103.945 149.903 102.074 149.145C 100.203 148.391 97.8125 147.75 95.6992 147.551C 93.5898 147.356 91.7539 147.59 89.6836 148.067C 87.6133 148.543 85.3008 149.262 83.5859 150.016C 81.875 150.77 80.7578 151.567 80.5977 152.325C 80.4414 153.078 81.2344 153.797 82.2695 153.719C 83.3047 153.641 84.5781 152.766 86.0547 152.086C 87.5273 151.411 89.2031 150.934 91.1133 150.692C 93.0234 150.453 95.1758 150.453 97.0117 150.77C 98.8438 151.086 100.359 151.723 101.832 152.442C 103.305 153.156 104.738 153.953 105.578 153.793C 106.414 153.637 106.652 152.52 106.773 151.961C 106.891 151.406 106.891 151.406 106.891 151.406"
       id="path166" />
    <path
       style="stroke:#000000; stroke-width:0.95664899999999997; fill:none"
       d="M 106.652 151.653C 106.652 151.653 106.652 151.653 105.977 151.215C 105.301 150.778 103.945 149.903 102.074 149.145C 100.203 148.391 97.8125 147.75 95.6992 147.551C 93.5898 147.356 91.7539 147.59 89.6836 148.067C 87.6133 148.543 85.3008 149.262 83.5859 150.016C 81.875 150.77 80.7578 151.567 80.5977 152.325C 80.4414 153.078 81.2344 153.797 82.2695 153.719C 83.3047 153.641 84.5781 152.766 86.0547 152.086C 87.5273 151.411 89.2031 150.934 91.1133 150.692C 93.0234 150.453 95.1758 150.453 97.0117 150.77C 98.8438 151.086 100.359 151.723 101.832 152.442C 103.305 153.156 104.738 153.953 105.578 153.793C 106.414 153.637 106.652 152.52 106.773 151.961C 106.891 151.406 106.891 151.406 106.891 151.406"
       id="path168" />
    <path
       style="stroke:none; fill-rule:evenodd; fill:#000000"
       d="M 106.652 158.352C 106.652 158.352 106.652 158.352 105.977 157.914C 105.301 157.477 103.945 156.602 102.074 155.844C 100.203 155.09 97.8125 154.45 95.6992 154.25C 93.5898 154.055 91.7539 154.289 89.6836 154.766C 87.6133 155.243 85.3008 155.961 83.5859 156.715C 81.875 157.469 80.7578 158.266 80.5977 159.024C 80.4414 159.778 81.2344 160.496 82.2695 160.418C 83.3047 160.34 84.5781 159.465 86.0547 158.786C 87.5273 158.11 89.2031 157.633 91.1133 157.391C 93.0234 157.153 95.1758 157.153 97.0117 157.469C 98.8438 157.786 100.359 158.422 101.832 159.141C 103.305 159.856 104.738 160.653 105.578 160.493C 106.414 160.336 106.652 159.219 106.773 158.661C 106.891 158.106 106.891 158.106 106.891 158.106"
       id="path170" />
    <path
       style="stroke:#000000; stroke-width:0.95664899999999997; fill:none"
       d="M 106.652 158.352C 106.652 158.352 106.652 158.352 105.977 157.914C 105.301 157.477 103.945 156.602 102.074 155.844C 100.203 155.09 97.8125 154.45 95.6992 154.25C 93.5898 154.055 91.7539 154.289 89.6836 154.766C 87.6133 155.243 85.3008 155.961 83.5859 156.715C 81.875 157.469 80.7578 158.266 80.5977 159.024C 80.4414 159.778 81.2344 160.496 82.2695 160.418C 83.3047 160.34 84.5781 159.465 86.0547 158.786C 87.5273 158.11 89.2031 157.633 91.1133 157.391C 93.0234 157.153 95.1758 157.153 97.0117 157.469C 98.8438 157.786 100.359 158.422 101.832 159.141C 103.305 159.856 104.738 160.653 105.578 160.493C 106.414 160.336 106.652 159.219 106.773 158.661C 106.891 158.106 106.891 158.106 106.891 158.106"
       id="path172" />
    <path
       style="stroke:none; fill-rule:evenodd; fill:#000000"
       d="M 106.652 165.047C 106.652 165.047 106.652 165.047 105.977 164.61C 105.301 164.172 103.945 163.297 102.074 162.539C 100.203 161.786 97.8125 161.145 95.6992 160.946C 93.5898 160.75 91.7539 160.985 89.6836 161.461C 87.6133 161.938 85.3008 162.656 83.5859 163.411C 81.875 164.164 80.7578 164.961 80.5977 165.719C 80.4414 166.473 81.2344 167.192 82.2695 167.114C 83.3047 167.036 84.5781 166.161 86.0547 165.481C 87.5273 164.805 89.2031 164.328 91.1133 164.086C 93.0234 163.848 95.1758 163.848 97.0117 164.164C 98.8438 164.481 100.359 165.118 101.832 165.836C 103.305 166.551 104.738 167.348 105.578 167.188C 106.414 167.031 106.652 165.914 106.773 165.356C 106.891 164.801 106.891 164.801 106.891 164.801"
       id="path174" />
    <path
       style="stroke:#000000; stroke-width:0.95664899999999997; fill:none"
       d="M 106.652 165.047C 106.652 165.047 106.652 165.047 105.977 164.61C 105.301 164.172 103.945 163.297 102.074 162.539C 100.203 161.786 97.8125 161.145 95.6992 160.946C 93.5898 160.75 91.7539 160.985 89.6836 161.461C 87.6133 161.938 85.3008 162.656 83.5859 163.411C 81.875 164.164 80.7578 164.961 80.5977 165.719C 80.4414 166.473 81.2344 167.192 82.2695 167.114C 83.3047 167.036 84.5781 166.161 86.0547 165.481C 87.5273 164.805 89.2031 164.328 91.1133 164.086C 93.0234 163.848 95.1758 163.848 97.0117 164.164C 98.8438 164.481 100.359 165.118 101.832 165.836C 103.305 166.551 104.738 167.348 105.578 167.188C 106.414 167.031 106.652 165.914 106.773 165.356C 106.891 164.801 106.891 164.801 106.891 164.801"
       id="path176" />
    <path
       style="stroke:#000000; stroke-width:1.9133; fill:none"
       d="M 133.438 185.375L 133.438 220.293L 173.613 220.293L 185.09 202.118L 173.852 185.379L 133.434 185.379"
       id="path178" />
    <path
       style="stroke:#000000; stroke-width:1.9133; fill:none"
       d="M 139.18 204.27L 163.574 204.27L 163.574 201.879L 139.18 201.879L 139.18 204.27z"
       id="path180" />
    <path
       style="stroke:none; fill-rule:evenodd; fill:#000000"
       d="M 147.07 189.68C 147.07 189.68 147.07 189.68 146.633 190.356C 146.195 191.032 145.32 192.387 144.562 194.258C 143.809 196.129 143.168 198.52 142.969 200.633C 142.773 202.743 143.008 204.578 143.484 206.649C 143.961 208.719 144.68 211.032 145.434 212.746C 146.188 214.457 146.984 215.575 147.742 215.735C 148.496 215.891 149.215 215.098 149.137 214.063C 149.059 213.028 148.184 211.754 147.504 210.278C 146.828 208.805 146.352 207.129 146.109 205.219C 145.871 203.309 145.871 201.157 146.188 199.321C 146.504 197.489 147.141 195.973 147.859 194.5C 148.574 193.028 149.371 191.594 149.211 190.754C 149.055 189.918 147.938 189.68 147.379 189.559C 146.824 189.442 146.824 189.442 146.824 189.442"
       id="path182" />
    <path
       style="stroke:#000000; stroke-width:0.95664899999999997; fill:none"
       d="M 147.07 189.68C 147.07 189.68 147.07 189.68 146.633 190.356C 146.195 191.032 145.32 192.387 144.562 194.258C 143.809 196.129 143.168 198.52 142.969 200.633C 142.773 202.743 143.008 204.578 143.484 206.649C 143.961 208.719 144.68 211.032 145.434 212.746C 146.188 214.457 146.984 215.575 147.742 215.735C 148.496 215.891 149.215 215.098 149.137 214.063C 149.059 213.028 148.184 211.754 147.504 210.278C 146.828 208.805 146.352 207.129 146.109 205.219C 145.871 203.309 145.871 201.157 146.188 199.321C 146.504 197.489 147.141 195.973 147.859 194.5C 148.574 193.028 149.371 191.594 149.211 190.754C 149.055 189.918 147.938 189.68 147.379 189.559C 146.824 189.442 146.824 189.442 146.824 189.442"
       id="path184" />
    <path
       style="stroke:none; fill-rule:evenodd; fill:#000000"
       d="M 153.766 189.68C 153.766 189.68 153.766 189.68 153.328 190.356C 152.891 191.032 152.016 192.387 151.258 194.258C 150.504 196.129 149.863 198.52 149.664 200.633C 149.469 202.743 149.703 204.578 150.18 206.649C 150.656 208.719 151.375 211.032 152.129 212.746C 152.883 214.457 153.68 215.575 154.438 215.735C 155.191 215.891 155.91 215.098 155.832 214.063C 155.754 213.028 154.879 211.754 154.199 210.278C 153.523 208.805 153.047 207.129 152.805 205.219C 152.566 203.309 152.566 201.157 152.883 199.321C 153.199 197.489 153.836 195.973 154.555 194.5C 155.27 193.028 156.066 191.594 155.906 190.754C 155.75 189.918 154.633 189.68 154.074 189.559C 153.52 189.442 153.52 189.442 153.52 189.442"
       id="path186" />
    <path
       style="stroke:#000000; stroke-width:0.95664899999999997; fill:none"
       d="M 153.766 189.68C 153.766 189.68 153.766 189.68 153.328 190.356C 152.891 191.032 152.016 192.387 151.258 194.258C 150.504 196.129 149.863 198.52 149.664 200.633C 149.469 202.743 149.703 204.578 150.18 206.649C 150.656 208.719 151.375 211.032 152.129 212.746C 152.883 214.457 153.68 215.575 154.438 215.735C 155.191 215.891 155.91 215.098 155.832 214.063C 155.754 213.028 154.879 211.754 154.199 210.278C 153.523 208.805 153.047 207.129 152.805 205.219C 152.566 203.309 152.566 201.157 152.883 199.321C 153.199 197.489 153.836 195.973 154.555 194.5C 155.27 193.028 156.066 191.594 155.906 190.754C 155.75 189.918 154.633 189.68 154.074 189.559C 153.52 189.442 153.52 189.442 153.52 189.442"
       id="path188" />
    <path
       style="stroke:none; fill-rule:evenodd; fill:#000000"
       d="M 160.465 189.68C 160.465 189.68 160.465 189.68 160.027 190.356C 159.59 191.032 158.715 192.387 157.957 194.258C 157.203 196.129 156.562 198.52 156.363 200.633C 156.168 202.743 156.402 204.578 156.879 206.649C 157.355 208.719 158.074 211.032 158.828 212.746C 159.582 214.457 160.379 215.575 161.137 215.735C 161.891 215.891 162.609 215.098 162.531 214.063C 162.453 213.028 161.578 211.754 160.898 210.278C 160.223 208.805 159.746 207.129 159.504 205.219C 159.266 203.309 159.266 201.157 159.582 199.321C 159.898 197.489 160.535 195.973 161.254 194.5C 161.969 193.028 162.766 191.594 162.605 190.754C 162.449 189.918 161.332 189.68 160.773 189.559C 160.219 189.442 160.219 189.442 160.219 189.442"
       id="path190" />
    <path
       style="stroke:#000000; stroke-width:0.95664899999999997; fill:none"
       d="M 160.465 189.68C 160.465 189.68 160.465 189.68 160.027 190.356C 159.59 191.032 158.715 192.387 157.957 194.258C 157.203 196.129 156.562 198.52 156.363 200.633C 156.168 202.743 156.402 204.578 156.879 206.649C 157.355 208.719 158.074 211.032 158.828 212.746C 159.582 214.457 160.379 215.575 161.137 215.735C 161.891 215.891 162.609 215.098 162.531 214.063C 162.453 213.028 161.578 211.754 160.898 210.278C 160.223 208.805 159.746 207.129 159.504 205.219C 159.266 203.309 159.266 201.157 159.582 199.321C 159.898 197.489 160.535 195.973 161.254 194.5C 161.969 193.028 162.766 191.594 162.605 190.754C 162.449 189.918 161.332 189.68 160.773 189.559C 160.219 189.442 160.219 189.442 160.219 189.442"
       id="path192" />
    <path
       style="stroke:#000000; stroke-width:1.9133; fill:none"
       d="M 109.043 74.4023L 112.391 74.4023L 112.391 48.5743L 109.043 48.5743L 109.043 74.4023z"
       id="path194" />
    <path
       style="stroke:#000000; stroke-width:1.9133; fill:none"
       d="M 103.305 67.9453L 128.176 67.9453L 128.176 65.0783L 103.305 65.0783L 103.305 67.9453z"
       id="path196" />
    <path
       style="stroke:#000000; stroke-width:1.9133; fill:none"
       d="M 118.609 74.4023L 121.957 74.4023L 121.957 48.5743L 118.609 48.5743L 118.609 74.4023z"
       id="path198" />
    <path
       style="stroke:#000000; stroke-width:1.9133; fill:none"
       d="M 103.305 57.9023L 128.176 57.9023L 128.176 55.0353L 103.305 55.0353L 103.305 57.9023z"
       id="path200" />
    <path
       style="stroke:none; fill-rule:evenodd; fill:#000000"
       d="M 31.6484 128.281L 31.6484 134.047L 32.6484 134.047L 32.6484 125.949L 31.9805 125.949C 31.625 127.191 31.3945 127.363 29.8242 127.559L 29.8242 128.277L 31.6484 128.281z"
       id="path202" />
    <path
       style="stroke:none; fill-rule:evenodd; fill:#000000"
       d="M 95.6914 133.051L 91.4648 133.051C 91.5664 132.391 91.9297 131.969 92.9141 131.387L 94.0469 130.773C 95.168 130.16 95.7461 129.324 95.7461 128.332C 95.7461 127.66 95.4766 127.031 95 126.598C 94.5273 126.164 93.9375 125.961 93.1758 125.961C 92.1562 125.961 91.3984 126.32 90.957 127C 90.6758 127.43 90.5508 127.926 90.5273 128.742L 91.5273 128.742C 91.5586 128.211 91.6289 127.887 91.7656 127.629C 92.0273 127.152 92.5508 126.859 93.1523 126.859C 94.0625 126.859 94.7461 127.508 94.7461 128.375C 94.7461 129.012 94.3711 129.559 93.6523 129.969L 92.6055 130.559C 90.9219 131.512 90.4297 132.277 90.3398 134.055L 95.6914 134.055L 95.6914 133.051z"
       id="path204" />
    <path
       style="stroke:none; fill-rule:evenodd; fill:#000000"
       d="M 152.285 130.352L 152.84 130.352C 153.965 130.352 154.543 130.855 154.543 131.824C 154.543 132.84 153.91 133.445 152.848 133.445C 151.742 133.445 151.199 132.887 151.129 131.684L 150.113 131.684C 150.156 132.344 150.273 132.777 150.465 133.148C 150.875 133.938 151.68 134.344 152.789 134.344C 154.461 134.344 155.539 133.348 155.539 131.809C 155.539 130.777 155.141 130.203 154.172 129.871C 154.949 129.574 155.34 129 155.34 128.188C 155.34 126.789 154.406 125.953 152.848 125.953C 151.199 125.953 150.32 126.832 150.285 128.539L 151.309 128.539C 151.32 128.062 151.363 127.797 151.492 127.551C 151.723 127.117 152.234 126.852 152.879 126.852C 153.785 126.852 154.336 127.367 154.336 128.207C 154.336 128.766 154.125 129.102 153.66 129.281C 153.379 129.391 153.012 129.438 152.273 129.449L 152.285 130.352z"
       id="path206" />
    <path
       style="stroke:none; fill-rule:evenodd; fill:#000000"
       d="M 214.25 132.051L 214.25 134.051L 215.25 134.051L 215.25 132.051L 216.418 132.051L 216.418 131.152L 215.25 131.152L 215.25 125.953L 214.5 125.953L 210.777 131L 210.777 132.051L 214.25 132.051zM 214.25 131.152L 211.656 131.152L 214.25 127.637L 214.25 131.152z"
       id="path208" />
    <path
       style="stroke:none; fill-rule:evenodd; fill:#000000"
       d="M 34.1211 223.551L 29.9141 223.551L 29.3047 227.942L 30.2422 227.942C 30.7148 227.356 31.1094 227.153 31.75 227.153C 32.8516 227.153 33.5469 227.91 33.5469 229.137C 33.5469 230.325 32.8633 231.051 31.75 231.051C 30.8594 231.051 30.3164 230.594 30.0703 229.657L 29.0508 229.657C 29.1875 230.332 29.3008 230.66 29.543 230.961C 30 231.59 30.8281 231.95 31.75 231.95C 33.3945 231.95 34.543 230.742 34.543 228.996C 34.543 227.368 33.4766 226.254 31.9102 226.254C 31.3359 226.254 30.8789 226.414 30.4062 226.786L 30.7266 224.555L 34.1172 224.555L 34.1211 223.551z"
       id="path210" />
    <path
       style="stroke:none; fill-rule:evenodd; fill:#000000"
       d="M 95.6641 225.653C 95.4688 224.336 94.5977 223.555 93.3594 223.555C 92.4688 223.555 91.6641 223.989 91.1836 224.711C 90.6797 225.5 90.4531 226.5 90.4531 227.981C 90.4531 229.344 90.6562 230.215 91.1406 230.942C 91.5742 231.594 92.2891 231.95 93.1836 231.95C 94.7344 231.95 95.8477 230.789 95.8477 229.172C 95.8477 227.637 94.8086 226.555 93.3359 226.555C 92.5273 226.555 91.8906 226.86 91.4492 227.453C 91.4609 225.528 92.1055 224.453 93.2734 224.453C 93.9883 224.453 94.4844 224.887 94.6484 225.653L 95.6641 225.653zM 93.2422 227.453C 94.2305 227.453 94.8438 228.141 94.8438 229.25C 94.8438 230.289 94.1484 231.047 93.2031 231.047C 92.25 231.047 91.5312 230.254 91.5312 229.192C 91.5312 228.164 92.2266 227.453 93.2383 227.453L 93.2422 227.453z"
       id="path212" />
    <path
       style="stroke:none; fill-rule:evenodd; fill:#000000"
       d="M 155.648 223.551L 150.25 223.551L 150.25 224.551L 154.609 224.551C 152.688 227.301 151.898 228.989 151.297 231.649L 152.367 231.649C 152.809 229.059 153.824 226.828 155.645 224.395L 155.648 223.551z"
       id="path214" />
    <path
       style="stroke:none; fill-rule:evenodd; fill:#000000"
       d="M 214.938 227.407C 215.773 226.903 216.047 226.489 216.047 225.723C 216.047 224.45 215.047 223.555 213.598 223.555C 212.164 223.555 211.152 224.45 211.152 225.723C 211.152 226.477 211.43 226.891 212.262 227.407C 211.316 227.852 210.852 228.528 210.852 229.426C 210.852 230.914 211.98 231.95 213.602 231.95C 215.215 231.95 216.352 230.918 216.352 229.438C 216.352 228.532 215.891 227.856 214.941 227.411L 214.938 227.407zM 213.598 224.453C 214.48 224.453 215.047 224.946 215.047 225.719C 215.047 226.457 214.473 226.95 213.598 226.95C 212.727 226.95 212.148 226.457 212.148 225.707C 212.148 224.946 212.723 224.453 213.598 224.453zM 213.598 227.75C 214.637 227.75 215.348 228.41 215.348 229.395C 215.348 230.387 214.641 231.047 213.574 231.047C 212.559 231.047 211.848 230.375 211.848 229.395C 211.848 228.414 212.555 227.75 213.598 227.75z"
       id="path216" />
  </g>
</svg>
