<?xml version="1.0" encoding="UTF-8" standalone="no"?>
<!-- Created with Inkscape (http://www.inkscape.org/) -->

<svg
   xmlns:dc="http://purl.org/dc/elements/1.1/"
   xmlns:cc="http://creativecommons.org/ns#"
   xmlns:rdf="http://www.w3.org/1999/02/22-rdf-syntax-ns#"
   xmlns:svg="http://www.w3.org/2000/svg"
   xmlns="http://www.w3.org/2000/svg"
   xmlns:xlink="http://www.w3.org/1999/xlink"
   xmlns:sodipodi="http://sodipodi.sourceforge.net/DTD/sodipodi-0.dtd"
   xmlns:inkscape="http://www.inkscape.org/namespaces/inkscape"
   id="svg2"
   version="1.1"
   inkscape:version="0.47 r22583"
   width="347.5"
   height="287.5"
   xml:space="preserve"
   sodipodi:docname="fig_vm_as_tug_of_war_cases.svg"
   inkscape:export-filename="/Users/oreilly/svn_docs/figs/fig_vm_as_tug_of_war_cases.png"
   inkscape:export-xdpi="149.95049"
   inkscape:export-ydpi="149.95049"><metadata
     id="metadata8"><rdf:RDF><cc:Work
         rdf:about=""><dc:format>image/svg+xml</dc:format><dc:type
           rdf:resource="http://purl.org/dc/dcmitype/StillImage" /><dc:title></dc:title></cc:Work></rdf:RDF></metadata><defs
     id="defs6"><linearGradient
       inkscape:collect="always"
       id="linearGradient4170"><stop
         style="stop-color:#ff0000;stop-opacity:1;"
         offset="0"
         id="stop4172" /><stop
         style="stop-color:#ff0000;stop-opacity:0;"
         offset="1"
         id="stop4174" /></linearGradient><linearGradient
       inkscape:collect="always"
       id="linearGradient4162"><stop
         style="stop-color:#0000ff;stop-opacity:1;"
         offset="0"
         id="stop4164" /><stop
         style="stop-color:#0000ff;stop-opacity:0;"
         offset="1"
         id="stop4166" /></linearGradient><inkscape:perspective
       sodipodi:type="inkscape:persp3d"
       inkscape:vp_x="0 : 0.5 : 1"
       inkscape:vp_y="0 : 1000 : 0"
       inkscape:vp_z="1 : 0.5 : 1"
       inkscape:persp3d-origin="0.5 : 0.33333333 : 1"
       id="perspective10" /><linearGradient
       inkscape:collect="always"
       xlink:href="#linearGradient4162"
       id="linearGradient4168"
       x1="76.92757"
       y1="46.725947"
       x2="113.5342"
       y2="46.725947"
       gradientUnits="userSpaceOnUse" /><linearGradient
       inkscape:collect="always"
       xlink:href="#linearGradient4170"
       id="linearGradient4176"
       x1="76.92757"
       y1="46.725947"
       x2="113.5342"
       y2="46.725947"
       gradientUnits="userSpaceOnUse" /><linearGradient
       inkscape:collect="always"
       xlink:href="#linearGradient4170"
       id="linearGradient4302"
       gradientUnits="userSpaceOnUse"
       x1="76.92757"
       y1="46.725947"
       x2="113.5342"
       y2="46.725947" /><linearGradient
       inkscape:collect="always"
       xlink:href="#linearGradient4170"
       id="linearGradient4304"
       gradientUnits="userSpaceOnUse"
       x1="76.92757"
       y1="46.725947"
       x2="113.5342"
       y2="46.725947" /><linearGradient
       inkscape:collect="always"
       xlink:href="#linearGradient4170"
       id="linearGradient4306"
       gradientUnits="userSpaceOnUse"
       x1="76.92757"
       y1="46.725947"
       x2="113.5342"
       y2="46.725947" /><linearGradient
       inkscape:collect="always"
       xlink:href="#linearGradient4162"
       id="linearGradient4308"
       gradientUnits="userSpaceOnUse"
       x1="76.92757"
       y1="46.725947"
       x2="113.5342"
       y2="46.725947" /><linearGradient
       inkscape:collect="always"
       xlink:href="#linearGradient4162"
       id="linearGradient4310"
       gradientUnits="userSpaceOnUse"
       x1="76.92757"
       y1="46.725947"
       x2="113.5342"
       y2="46.725947" /><linearGradient
       inkscape:collect="always"
       xlink:href="#linearGradient4162"
       id="linearGradient4312"
       gradientUnits="userSpaceOnUse"
       x1="76.92757"
       y1="46.725947"
       x2="113.5342"
       y2="46.725947" /><linearGradient
       inkscape:collect="always"
       xlink:href="#linearGradient4170"
       id="linearGradient4397"
       gradientUnits="userSpaceOnUse"
       x1="76.92757"
       y1="46.725947"
       x2="113.5342"
       y2="46.725947" /><linearGradient
       inkscape:collect="always"
       xlink:href="#linearGradient4162"
       id="linearGradient4399"
       gradientUnits="userSpaceOnUse"
       x1="76.92757"
       y1="46.725947"
       x2="113.5342"
       y2="46.725947" /><linearGradient
       inkscape:collect="always"
       xlink:href="#linearGradient4170"
       id="linearGradient4487"
       gradientUnits="userSpaceOnUse"
       x1="76.92757"
       y1="46.725947"
       x2="113.5342"
       y2="46.725947" /><linearGradient
       inkscape:collect="always"
       xlink:href="#linearGradient4162"
       id="linearGradient4489"
       gradientUnits="userSpaceOnUse"
       x1="76.92757"
       y1="46.725947"
       x2="113.5342"
       y2="46.725947" /><linearGradient
       inkscape:collect="always"
       xlink:href="#linearGradient4162"
       id="linearGradient4491"
       gradientUnits="userSpaceOnUse"
       x1="76.92757"
       y1="46.725947"
       x2="113.5342"
       y2="46.725947" /><linearGradient
       inkscape:collect="always"
       xlink:href="#linearGradient4162"
       id="linearGradient4493"
       gradientUnits="userSpaceOnUse"
       x1="76.92757"
       y1="46.725947"
       x2="113.5342"
       y2="46.725947" /><linearGradient
       inkscape:collect="always"
       xlink:href="#linearGradient4170"
       id="linearGradient4577"
       gradientUnits="userSpaceOnUse"
       x1="76.92757"
       y1="46.725947"
       x2="113.5342"
       y2="46.725947" /><linearGradient
       inkscape:collect="always"
       xlink:href="#linearGradient4170"
       id="linearGradient4579"
       gradientUnits="userSpaceOnUse"
       x1="76.92757"
       y1="46.725947"
       x2="113.5342"
       y2="46.725947" /><linearGradient
       inkscape:collect="always"
       xlink:href="#linearGradient4170"
       id="linearGradient4581"
       gradientUnits="userSpaceOnUse"
       x1="76.92757"
       y1="46.725947"
       x2="113.5342"
       y2="46.725947" /><linearGradient
       inkscape:collect="always"
       xlink:href="#linearGradient4162"
       id="linearGradient4583"
       gradientUnits="userSpaceOnUse"
       x1="76.92757"
       y1="46.725947"
       x2="113.5342"
       y2="46.725947" /><linearGradient
       inkscape:collect="always"
       xlink:href="#linearGradient4162"
       id="linearGradient4585"
       gradientUnits="userSpaceOnUse"
       x1="76.92757"
       y1="46.725947"
       x2="113.5342"
       y2="46.725947" /><linearGradient
       inkscape:collect="always"
       xlink:href="#linearGradient4162"
       id="linearGradient4587"
       gradientUnits="userSpaceOnUse"
       x1="76.92757"
       y1="46.725947"
       x2="113.5342"
       y2="46.725947" /><linearGradient
       inkscape:collect="always"
       xlink:href="#linearGradient4170"
       id="linearGradient4733"
       gradientUnits="userSpaceOnUse"
       x1="76.92757"
       y1="46.725947"
       x2="113.5342"
       y2="46.725947" /><linearGradient
       inkscape:collect="always"
       xlink:href="#linearGradient4170"
       id="linearGradient4735"
       gradientUnits="userSpaceOnUse"
       x1="76.92757"
       y1="46.725947"
       x2="113.5342"
       y2="46.725947" /><linearGradient
       inkscape:collect="always"
       xlink:href="#linearGradient4170"
       id="linearGradient4737"
       gradientUnits="userSpaceOnUse"
       x1="76.92757"
       y1="46.725947"
       x2="113.5342"
       y2="46.725947" /><linearGradient
       inkscape:collect="always"
       xlink:href="#linearGradient4162"
       id="linearGradient4818"
       gradientUnits="userSpaceOnUse"
       x1="76.92757"
       y1="46.725947"
       x2="113.5342"
       y2="46.725947" /><linearGradient
       inkscape:collect="always"
       xlink:href="#linearGradient4170"
       id="linearGradient4820"
       gradientUnits="userSpaceOnUse"
       x1="76.92757"
       y1="46.725947"
       x2="113.5342"
       y2="46.725947" /><linearGradient
       inkscape:collect="always"
       xlink:href="#linearGradient4162"
       id="linearGradient5725"
       gradientUnits="userSpaceOnUse"
       x1="76.92757"
       y1="46.725947"
       x2="113.5342"
       y2="46.725947" /><linearGradient
       inkscape:collect="always"
       xlink:href="#linearGradient4162"
       id="linearGradient5727"
       gradientUnits="userSpaceOnUse"
       x1="76.92757"
       y1="46.725947"
       x2="113.5342"
       y2="46.725947" /><linearGradient
       inkscape:collect="always"
       xlink:href="#linearGradient4170"
       id="linearGradient5729"
       gradientUnits="userSpaceOnUse"
       x1="76.92757"
       y1="46.725947"
       x2="113.5342"
       y2="46.725947" /></defs><sodipodi:namedview
     pagecolor="#ffffff"
     bordercolor="#666666"
     borderopacity="1"
     objecttolerance="10"
     gridtolerance="10"
     guidetolerance="10"
     inkscape:pageopacity="0"
     inkscape:pageshadow="2"
     inkscape:window-width="1848"
     inkscape:window-height="1146"
     id="namedview4"
     showgrid="false"
     inkscape:zoom="2.5185299"
     inkscape:cx="146.02771"
     inkscape:cy="120.53317"
     inkscape:window-x="64"
     inkscape:window-y="23"
     inkscape:window-maximized="0"
     inkscape:current-layer="g12" /><g
     id="g12"
     inkscape:groupmode="layer"
     inkscape:label="fig.tug_of_war_e_i"
     transform="matrix(1.25,0,0,-1.25,0,287.5)"><rect
       style="fill:#ffffff;fill-opacity:1;fill-rule:nonzero;stroke:#ffffff;stroke-width:0.78998238;stroke-miterlimit:10;stroke-opacity:1;stroke-dasharray:none;stroke-dashoffset:0"
       id="rect5723"
       width="253.49121"
       height="235.70308"
       x="7.6184869"
       y="-233.47455"
       transform="scale(1,-1)" /><path
       id="path28"
       style="fill:#ffffff;fill-opacity:1;fill-rule:evenodd;stroke:none"
       d="m 225.47649,118.06806 0,3.82422 -112.81498,0 0,-3.82422 112.81498,0 z" /><path
       id="path164"
       style="fill:none;stroke:#000000;stroke-width:0.40000001;stroke-linecap:butt;stroke-linejoin:miter;stroke-miterlimit:10;stroke-opacity:1;stroke-dasharray:none"
       d="m 131.78251,93.210589 0,53.539471" /><path
       id="path172"
       style="fill:none;stroke:#000000;stroke-width:0.40000001;stroke-linecap:butt;stroke-linejoin:miter;stroke-miterlimit:10;stroke-opacity:1;stroke-dasharray:none"
       d="m 208.26719,93.210589 0,53.539471" /><g
       id="g4124"
       transform="translate(143.82953,-63.868199)"><text
         transform="matrix(0.8,0,0,-0.8,0,230)"
         id="text3287"
         y="105.00488"
         x="74.682617"
         style="font-size:12px;font-style:normal;font-variant:normal;font-weight:normal;font-stretch:normal;text-indent:0;text-align:start;text-decoration:none;line-height:normal;letter-spacing:normal;word-spacing:normal;text-transform:none;direction:ltr;block-progression:tb;writing-mode:lr-tb;text-anchor:start;color:#000000;fill:#000000;fill-opacity:1;fill-rule:nonzero;stroke:none;stroke-width:1px;marker:none;visibility:visible;display:inline;overflow:visible;enable-background:accumulate;font-family:Arial;-inkscape-font-specification:Arial"
         xml:space="preserve"><tspan
           y="105.00488"
           x="74.682617"
           id="tspan3289"
           sodipodi:role="line">E</tspan></text>
<text
         transform="scale(1,-1)"
         id="text3291"
         y="-143.30078"
         x="66.035156"
         style="font-size:9.60000038px;font-style:normal;font-variant:normal;font-weight:normal;font-stretch:normal;text-indent:0;text-align:start;text-decoration:none;line-height:normal;letter-spacing:normal;word-spacing:normal;text-transform:none;direction:ltr;block-progression:tb;writing-mode:lr-tb;text-anchor:start;color:#000000;fill:#000000;fill-opacity:1;fill-rule:nonzero;stroke:none;stroke-width:1px;marker:none;visibility:visible;display:inline;overflow:visible;enable-background:accumulate;font-family:Arial;-inkscape-font-specification:Arial"
         xml:space="preserve"><tspan
           y="-143.30078"
           x="66.035156"
           id="tspan3293"
           sodipodi:role="line">e</tspan></text>
</g><g
       id="g4130"
       transform="translate(61.991916,-8.6722963)"><text
         transform="matrix(0.8,0,0,-0.8,0,230)"
         id="text3295"
         y="171.82617"
         x="80.859375"
         style="font-size:12px;font-style:normal;font-variant:normal;font-weight:normal;font-stretch:normal;text-indent:0;text-align:start;text-decoration:none;line-height:normal;letter-spacing:normal;word-spacing:normal;text-transform:none;direction:ltr;block-progression:tb;writing-mode:lr-tb;text-anchor:start;color:#000000;fill:#000000;fill-opacity:1;fill-rule:nonzero;stroke:none;stroke-width:1px;marker:none;visibility:visible;display:inline;overflow:visible;enable-background:accumulate;font-family:Arial;-inkscape-font-specification:Arial"
         xml:space="preserve"><tspan
           y="171.82617"
           x="80.859375"
           id="tspan3297"
           sodipodi:role="line">E</tspan></text>
<text
         transform="scale(1,-1)"
         id="text3299"
         y="-87.992378"
         x="71.239708"
         style="font-size:9.60000038px;font-style:normal;font-variant:normal;font-weight:normal;font-stretch:normal;text-indent:0;text-align:start;text-decoration:none;line-height:normal;letter-spacing:normal;word-spacing:normal;text-transform:none;direction:ltr;block-progression:tb;writing-mode:lr-tb;text-anchor:start;color:#000000;fill:#000000;fill-opacity:1;fill-rule:nonzero;stroke:none;stroke-width:1px;marker:none;visibility:visible;display:inline;overflow:visible;enable-background:accumulate;font-family:Arial;-inkscape-font-specification:Arial"
         xml:space="preserve"><tspan
           y="-87.992378"
           x="71.239708"
           id="tspan3301"
           sodipodi:role="line">i</tspan></text>
</g><g
       id="g4118"
       transform="translate(169.77521,-113.73148)"><text
         transform="matrix(0.8,0,0,-0.8,0,230)"
         id="text3311"
         y="40.429688"
         x="70.19043"
         style="font-size:12px;font-style:normal;font-variant:normal;font-weight:normal;font-stretch:normal;text-indent:0;text-align:start;text-decoration:none;line-height:normal;letter-spacing:normal;word-spacing:normal;text-transform:none;direction:ltr;block-progression:tb;writing-mode:lr-tb;text-anchor:start;color:#000000;fill:#000000;fill-opacity:1;fill-rule:nonzero;stroke:none;stroke-width:1px;marker:none;visibility:visible;display:inline;overflow:visible;enable-background:accumulate;font-family:Arial;-inkscape-font-specification:Arial"
         xml:space="preserve"><tspan
           y="40.429688"
           x="70.19043"
           id="tspan3313"
           sodipodi:role="line">g</tspan></text>
<text
         transform="scale(1,-1)"
         id="text3315"
         y="-193.16406"
         x="61.09375"
         style="font-size:9.60000038px;font-style:normal;font-variant:normal;font-weight:normal;font-stretch:normal;text-indent:0;text-align:start;text-decoration:none;line-height:normal;letter-spacing:normal;word-spacing:normal;text-transform:none;direction:ltr;block-progression:tb;writing-mode:lr-tb;text-anchor:start;color:#000000;fill:#000000;fill-opacity:1;fill-rule:nonzero;stroke:none;stroke-width:1px;marker:none;visibility:visible;display:inline;overflow:visible;enable-background:accumulate;font-family:Arial;-inkscape-font-specification:Arial"
         xml:space="preserve"><tspan
           y="-193.16406"
           x="61.09375"
           id="tspan3317"
           sodipodi:role="line">e</tspan></text>
</g><g
       id="g4136"
       transform="translate(49.021808,45.636656)"><text
         transform="scale(1,-1)"
         id="text3303"
         y="-39.082031"
         x="53.007812"
         style="font-size:9.60000038px;font-style:normal;font-variant:normal;font-weight:normal;font-stretch:normal;text-indent:0;text-align:start;text-decoration:none;line-height:normal;letter-spacing:normal;word-spacing:normal;text-transform:none;direction:ltr;block-progression:tb;writing-mode:lr-tb;text-anchor:start;color:#000000;fill:#000000;fill-opacity:1;fill-rule:nonzero;stroke:none;stroke-width:1px;marker:none;visibility:visible;display:inline;overflow:visible;enable-background:accumulate;font-family:Arial;-inkscape-font-specification:Arial"
         xml:space="preserve"><tspan
           y="-39.082031"
           x="53.007812"
           id="tspan3305"
           sodipodi:role="line">g</tspan></text>
<text
         transform="scale(1,-1)"
         id="text3307"
         y="-33.683426"
         x="58.17794"
         style="font-size:9.60000038px;font-style:normal;font-variant:normal;font-weight:normal;font-stretch:normal;text-indent:0;text-align:start;text-decoration:none;line-height:normal;letter-spacing:normal;word-spacing:normal;text-transform:none;direction:ltr;block-progression:tb;writing-mode:lr-tb;text-anchor:start;color:#000000;fill:#000000;fill-opacity:1;fill-rule:nonzero;stroke:none;stroke-width:1px;marker:none;visibility:visible;display:inline;overflow:visible;enable-background:accumulate;font-family:Arial;-inkscape-font-specification:Arial"
         xml:space="preserve"><tspan
           y="-33.683426"
           x="58.17794"
           id="tspan3309"
           sodipodi:role="line">i</tspan></text>
</g><path
       style="fill:none;stroke:#000000;stroke-width:1.39771152;stroke-linecap:butt;stroke-linejoin:miter;stroke-miterlimit:4;stroke-opacity:1;stroke-dasharray:none"
       d="m 212.9849,120.02491 -86.29545,0"
       id="path4154" /><g
       id="g4108"
       transform="translate(133.88816,68.856712)"
       style="fill:url(#linearGradient5729);fill-opacity:1"><path
         sodipodi:nodetypes="csssssssssssssssssssssssssssssssssssssssssssssssssssssssssssssssssssssssssssssssssssssssssssssssssc"
         id="path4093"
         d="m 108.07967,69.656487 c -0.4836,0.0065 -1.39344,0.119612 -1.79716,0.05159 -0.71966,-0.121254 -0.95651,-0.268633 -1.32393,-0.576141 -0.1118,-0.09357 -0.57944,-0.630455 -0.86758,-1.038716 -0.30449,-0.431432 -0.5981,-1.424673 -0.67019,-1.63254 -0.20187,-0.582066 -0.22291,-0.914048 -0.1528,-1.24912 0.0184,-0.08815 0.43657,-1.630453 0.0416,-1.542141 -0.14808,0.03311 -0.42908,-0.476521 -0.77273,-0.934234 -0.37258,-0.496244 -0.96294,-1.154809 -0.68528,-1.186913 0.22697,-0.0262 0.55272,-0.218466 0.95861,-0.295014 0.15013,-0.02834 -0.003,-1.141066 0.14459,-1.192054 0.59108,-0.204454 2.63963,-0.33926 1.72921,-0.314048 -0.45949,0.01273 -1.15366,-4.82e-4 -1.55836,-0.05928 -0.21442,-0.03115 -0.23171,-0.307608 -0.3093,-0.961923 -0.008,-0.06921 0.003,-0.770259 0.0579,-0.945403 0.0894,-0.286616 0.36937,-0.349492 0.51319,-0.558165 0.114,-0.165402 0.58256,-0.133289 0.63506,-0.189389 0.20454,-0.218568 1.51528,-0.216977 1.78091,-0.310073 0.30058,-0.105333 0.32908,-0.968721 0.10937,-1.077996 -0.0591,-0.0294 -0.18743,-0.598227 -0.17799,-0.696793 0.0557,-0.58195 -0.2417,-0.891266 -0.8058,-1.170006 -0.6129,-0.302852 -0.71877,-0.373762 -1.71782,-0.240253 -1.59173,0.212711 -2.29663,-0.90081 -3.335115,-0.842327 -1.703648,0.09594 -3.428355,-1.152209 -5.067523,-1.301204 -0.874853,-0.07952 -1.774046,-0.193239 -2.288614,-0.176649 -0.903043,0.0291 -1.991426,0.08653 -2.963835,0.207822 -1.350955,0.168512 -2.292186,0.475865 -3.575221,0.853864 -1.923676,0.566743 -2.844821,0.61043 -4.849913,0.600358 -0.597248,-0.003 -3.155408,0.487192 -3.497058,0.490734 -0.56799,0.0059 1.147234,-0.623874 1.574197,-0.782318 0.561486,-0.208364 1.384194,-0.381331 0.742242,-0.42503 -0.643462,-0.0438 -3.202514,0.62844 -2.314297,0.04404 0.548458,-0.360859 2.836562,-0.813153 2.698534,-1.020281 -0.164406,-0.246711 -2.792211,0.417786 -3.172548,-0.03606 -0.349172,-0.416657 2.054549,-0.452191 2.761737,-0.587983 1.395046,-0.267873 -1.62331,-0.162437 -2.018082,-0.398564 -0.756756,-0.452644 -0.09075,-0.341746 1.398394,-0.35661 0.917871,-0.0092 1.320619,-0.168991 2.157022,-0.02191 1.415468,0.248893 1.401886,-0.189857 2.728452,-0.342839 1.162487,-0.134077 2.305354,-0.714629 3.513847,-0.83776 1.388356,-0.141456 2.856225,-1.115293 4.230052,-1.05079 1.136208,0.05335 1.715281,0.299531 2.733078,0.355013 1.620853,0.08836 2.388626,0.97542 4.008205,0.731044 0.88965,-0.134233 0.944983,0.143427 2.039856,-0.125812 0.50327,-0.123757 1.44885,-0.185409 1.64921,-0.31615 0.361,-0.235567 -0.0398,-0.334408 -0.0799,-0.984326 -0.012,-0.194534 -0.45151,-0.82654 -0.45642,-1.714012 -0.003,-0.602967 -0.0212,-1.674891 -0.0979,-2.521194 -0.13395,-1.478374 -0.4649,-2.587791 -0.68357,-4.013878 -0.15077,-0.979918 -0.01,-2.166537 -0.10708,-2.190412 -0.79624,-0.194904 -1.219672,0.423948 -1.911529,0.949902 -1.029931,0.78296 -1.94624,1.137845 -3.098204,1.637778 -0.692528,0.300545 -1.925923,0.932222 -2.472636,1.263972 -0.672684,0.408192 -1.326559,0.683318 -2.216164,1.038019 -1.090645,0.43486 -2.225889,0.537836 -3.434436,0.722745 -0.758214,0.115991 -0.987071,-0.114136 -1.299846,-0.459254 -0.27688,-0.305509 -0.874207,-0.517334 -0.727068,-1.181215 0.14746,-0.665331 0.278203,-0.722136 0.419414,-1.582592 0.238246,-1.451734 1.558696,-3.115076 2.486902,-4.278385 1.005872,-1.260646 0.966079,-1.246778 1.414165,-1.922632 0.969569,-1.462417 1.93774,-2.24208 2.522743,-2.880171 0.980198,-1.069151 0.94983,-1.183368 1.679098,-2.32055 0.193614,-0.301911 0.933741,-0.933636 1.083868,-1.13184 0.204873,-0.270484 0.06913,-0.789181 -0.792045,-0.753753 -0.900305,0.03704 -4.760676,-0.905119 -5.543128,-1.058095 -0.631245,-0.123423 -0.03636,-0.663317 1.069111,-1.007431 0.809041,-0.25184 3.408872,0.440241 3.818966,0.452788 1.804964,0.05523 3.383506,-0.258828 5.741229,-0.464335 0.110534,-0.0097 1.56125,-0.411148 1.5435,0.71325 -0.0127,0.80536 -0.42603,0.506382 -0.90277,1.282053 -0.695591,1.13176 -0.882511,1.112369 -1.420373,1.601403 -0.928593,0.844291 -1.173694,1.474479 -1.745706,2.354374 -0.348694,0.536379 -0.851598,1.014389 -1.109894,1.519018 -0.319979,0.625141 -0.624354,1.147093 -1.488315,2.422414 -0.313077,0.462144 -1.930197,2.357272 -1.10507,1.727773 1.090482,-0.831941 2.194213,-2.147992 3.421622,-3.046297 1.366389,-1.000017 2.215308,-1.412305 3.245146,-2.019279 1.52393,-0.898183 2.80347,-1.289902 3.73282,-1.686769 0.87025,-0.371624 2.28843,-0.431049 3.46512,-0.165435 0.41304,0.09323 1.24292,0.732165 1.69155,1.767545 0.47163,1.088453 0.34497,2.329416 0.60271,3.369888 0.42173,1.702494 0.36975,1.828534 0.48814,2.972662 0.0809,0.781738 0.0292,1.522212 0.19179,2.223498 0.28009,1.208379 0.13665,2.729412 0.59233,3.720869 0.19866,0.432226 0.77453,1.448887 0.89711,2.319955 0.24325,1.72855 0.6913,3.507512 0.64968,5.201401 -0.0263,1.068676 -0.24258,1.498907 -0.55618,2.323459 -0.41041,1.079074 0.0617,0.529649 -0.86726,1.124131 -0.86454,0.553249 -0.82205,0.497646 -0.88509,1.246889 -0.0241,0.28661 -0.1749,1.484735 0.14219,1.583917 0.65044,0.203445 0.64139,1.083658 1.09083,1.77165 0.65384,1.000891 1.37297,1.23256 1.5833,2.995528 0.15513,1.300251 0.56102,2.435533 0.32618,3.753204 -0.13468,0.7557 -0.14421,0.857413 -0.43758,2.026106 -0.11022,0.439078 -0.31277,1.023202 -0.57624,1.32394 -0.34435,0.393053 -0.60877,0.736349 -1.11982,0.879053 -1.23008,0.343486 -1.31745,0.336626 -1.97461,0.438782 -0.50299,0.07816 -0.84907,0.108919 -1.07477,0.111943 l -1e-5,-3e-5 z"
         style="fill:url(#linearGradient4302);fill-opacity:1;stroke:#000000;stroke-width:0.40000001;stroke-linecap:butt;stroke-linejoin:miter;stroke-miterlimit:4;stroke-opacity:1;stroke-dasharray:none" /><path
         id="path4096"
         d="m 103.88594,64.567214 c 2.65183,0.08217 0.40839,-1.771352 -0.16845,-0.617672 -0.17493,0.349848 -0.41144,0.02552 0.16845,0.617672 z"
         style="fill:url(#linearGradient4304);fill-opacity:1;stroke:#000000;stroke-width:0.40000001;stroke-linecap:butt;stroke-linejoin:miter;stroke-miterlimit:4;stroke-opacity:1;stroke-dasharray:none" /></g><g
       style="fill:url(#linearGradient5727);fill-opacity:1"
       transform="matrix(-1,0,0,1,205.98078,68.856712)"
       id="g4156"><path
         style="fill:url(#linearGradient4308);fill-opacity:1;stroke:#000000;stroke-width:0.40000001;stroke-linecap:butt;stroke-linejoin:miter;stroke-miterlimit:4;stroke-opacity:1;stroke-dasharray:none"
         d="m 108.07967,69.656487 c -0.4836,0.0065 -1.39344,0.119612 -1.79716,0.05159 -0.71966,-0.121254 -0.95651,-0.268633 -1.32393,-0.576141 -0.1118,-0.09357 -0.57944,-0.630455 -0.86758,-1.038716 -0.30449,-0.431432 -0.5981,-1.424673 -0.67019,-1.63254 -0.20187,-0.582066 -0.22291,-0.914048 -0.1528,-1.24912 0.0184,-0.08815 0.43657,-1.630453 0.0416,-1.542141 -0.14808,0.03311 -0.42908,-0.476521 -0.77273,-0.934234 -0.37258,-0.496244 -0.96294,-1.154809 -0.68528,-1.186913 0.22697,-0.0262 0.55272,-0.218466 0.95861,-0.295014 0.15013,-0.02834 -0.003,-1.141066 0.14459,-1.192054 0.59108,-0.204454 2.63963,-0.33926 1.72921,-0.314048 -0.45949,0.01273 -1.15366,-4.82e-4 -1.55836,-0.05928 -0.21442,-0.03115 -0.23171,-0.307608 -0.3093,-0.961923 -0.008,-0.06921 0.003,-0.770259 0.0579,-0.945403 0.0894,-0.286616 0.36937,-0.349492 0.51319,-0.558165 0.114,-0.165402 0.58256,-0.133289 0.63506,-0.189389 0.20454,-0.218568 1.51528,-0.216977 1.78091,-0.310073 0.30058,-0.105333 0.32908,-0.968721 0.10937,-1.077996 -0.0591,-0.0294 -0.18743,-0.598227 -0.17799,-0.696793 0.0557,-0.58195 -0.2417,-0.891266 -0.8058,-1.170006 -0.6129,-0.302852 -0.71877,-0.373762 -1.71782,-0.240253 -1.59173,0.212711 -2.29663,-0.90081 -3.335115,-0.842327 -1.703648,0.09594 -3.428355,-1.152209 -5.067523,-1.301204 -0.874853,-0.07952 -1.774046,-0.193239 -2.288614,-0.176649 -0.903043,0.0291 -1.991426,0.08653 -2.963835,0.207822 -1.350955,0.168512 -2.292186,0.475865 -3.575221,0.853864 -1.923676,0.566743 -2.844821,0.61043 -4.849913,0.600358 -0.597248,-0.003 -3.155408,0.487192 -3.497058,0.490734 -0.56799,0.0059 1.147234,-0.623874 1.574197,-0.782318 0.561486,-0.208364 1.384194,-0.381331 0.742242,-0.42503 -0.643462,-0.0438 -3.202514,0.62844 -2.314297,0.04404 0.548458,-0.360859 2.836562,-0.813153 2.698534,-1.020281 -0.164406,-0.246711 -2.792211,0.417786 -3.172548,-0.03606 -0.349172,-0.416657 2.054549,-0.452191 2.761737,-0.587983 1.395046,-0.267873 -1.62331,-0.162437 -2.018082,-0.398564 -0.756756,-0.452644 -0.09075,-0.341746 1.398394,-0.35661 0.917871,-0.0092 1.320619,-0.168991 2.157022,-0.02191 1.415468,0.248893 1.401886,-0.189857 2.728452,-0.342839 1.162487,-0.134077 2.305354,-0.714629 3.513847,-0.83776 1.388356,-0.141456 2.856225,-1.115293 4.230052,-1.05079 1.136208,0.05335 1.715281,0.299531 2.733078,0.355013 1.620853,0.08836 2.388626,0.97542 4.008205,0.731044 0.88965,-0.134233 0.944983,0.143427 2.039856,-0.125812 0.50327,-0.123757 1.44885,-0.185409 1.64921,-0.31615 0.361,-0.235567 -0.0398,-0.334408 -0.0799,-0.984326 -0.012,-0.194534 -0.45151,-0.82654 -0.45642,-1.714012 -0.003,-0.602967 -0.0212,-1.674891 -0.0979,-2.521194 -0.13395,-1.478374 -0.4649,-2.587791 -0.68357,-4.013878 -0.15077,-0.979918 -0.01,-2.166537 -0.10708,-2.190412 -0.79624,-0.194904 -1.219672,0.423948 -1.911529,0.949902 -1.029931,0.78296 -1.94624,1.137845 -3.098204,1.637778 -0.692528,0.300545 -1.925923,0.932222 -2.472636,1.263972 -0.672684,0.408192 -1.326559,0.683318 -2.216164,1.038019 -1.090645,0.43486 -2.225889,0.537836 -3.434436,0.722745 -0.758214,0.115991 -0.987071,-0.114136 -1.299846,-0.459254 -0.27688,-0.305509 -0.874207,-0.517334 -0.727068,-1.181215 0.14746,-0.665331 0.278203,-0.722136 0.419414,-1.582592 0.238246,-1.451734 1.558696,-3.115076 2.486902,-4.278385 1.005872,-1.260646 0.966079,-1.246778 1.414165,-1.922632 0.969569,-1.462417 1.93774,-2.24208 2.522743,-2.880171 0.980198,-1.069151 0.94983,-1.183368 1.679098,-2.32055 0.193614,-0.301911 0.933741,-0.933636 1.083868,-1.13184 0.204873,-0.270484 0.06913,-0.789181 -0.792045,-0.753753 -0.900305,0.03704 -4.760676,-0.905119 -5.543128,-1.058095 -0.631245,-0.123423 -0.03636,-0.663317 1.069111,-1.007431 0.809041,-0.25184 3.408872,0.440241 3.818966,0.452788 1.804964,0.05523 3.383506,-0.258828 5.741229,-0.464335 0.110534,-0.0097 1.56125,-0.411148 1.5435,0.71325 -0.0127,0.80536 -0.42603,0.506382 -0.90277,1.282053 -0.695591,1.13176 -0.882511,1.112369 -1.420373,1.601403 -0.928593,0.844291 -1.173694,1.474479 -1.745706,2.354374 -0.348694,0.536379 -0.851598,1.014389 -1.109894,1.519018 -0.319979,0.625141 -0.624354,1.147093 -1.488315,2.422414 -0.313077,0.462144 -1.930197,2.357272 -1.10507,1.727773 1.090482,-0.831941 2.194213,-2.147992 3.421622,-3.046297 1.366389,-1.000017 2.215308,-1.412305 3.245146,-2.019279 1.52393,-0.898183 2.80347,-1.289902 3.73282,-1.686769 0.87025,-0.371624 2.28843,-0.431049 3.46512,-0.165435 0.41304,0.09323 1.24292,0.732165 1.69155,1.767545 0.47163,1.088453 0.34497,2.329416 0.60271,3.369888 0.42173,1.702494 0.36975,1.828534 0.48814,2.972662 0.0809,0.781738 0.0292,1.522212 0.19179,2.223498 0.28009,1.208379 0.13665,2.729412 0.59233,3.720869 0.19866,0.432226 0.77453,1.448887 0.89711,2.319955 0.24325,1.72855 0.6913,3.507512 0.64968,5.201401 -0.0263,1.068676 -0.24258,1.498907 -0.55618,2.323459 -0.41041,1.079074 0.0617,0.529649 -0.86726,1.124131 -0.86454,0.553249 -0.82205,0.497646 -0.88509,1.246889 -0.0241,0.28661 -0.1749,1.484735 0.14219,1.583917 0.65044,0.203445 0.64139,1.083658 1.09083,1.77165 0.65384,1.000891 1.37297,1.23256 1.5833,2.995528 0.15513,1.300251 0.56102,2.435533 0.32618,3.753204 -0.13468,0.7557 -0.14421,0.857413 -0.43758,2.026106 -0.11022,0.439078 -0.31277,1.023202 -0.57624,1.32394 -0.34435,0.393053 -0.60877,0.736349 -1.11982,0.879053 -1.23008,0.343486 -1.31745,0.336626 -1.97461,0.438782 -0.50299,0.07816 -0.84907,0.108919 -1.07477,0.111943 l -1e-5,-3e-5 z"
         id="path4158"
         sodipodi:nodetypes="csssssssssssssssssssssssssssssssssssssssssssssssssssssssssssssssssssssssssssssssssssssssssssssssssc" /><path
         style="fill:url(#linearGradient4310);fill-opacity:1;stroke:#000000;stroke-width:0.40000001;stroke-linecap:butt;stroke-linejoin:miter;stroke-miterlimit:4;stroke-opacity:1;stroke-dasharray:none"
         d="m 103.88594,64.567214 c 2.65183,0.08217 0.40839,-1.771352 -0.16845,-0.617672 -0.17493,0.349848 -0.41144,0.02552 0.16845,0.617672 z"
         id="path4160" /></g><path
       d="m 225.47649,196.3677 0,3.82422 -112.81498,0 0,-3.82422 112.81498,0 z"
       style="fill:#ffffff;fill-opacity:1;fill-rule:evenodd;stroke:none"
       id="path4403" /><path
       id="path4469"
       d="m 212.9849,198.32455 -86.29545,0"
       style="fill:none;stroke:#000000;stroke-width:1.39771152;stroke-linecap:butt;stroke-linejoin:miter;stroke-miterlimit:4;stroke-opacity:1;stroke-dasharray:none" /><path
       d="m 131.78251,171.51023 0,53.53947"
       style="fill:none;stroke:#000000;stroke-width:0.40000001;stroke-linecap:butt;stroke-linejoin:miter;stroke-miterlimit:10;stroke-opacity:1;stroke-dasharray:none"
       id="path4407" /><path
       d="m 208.26719,171.51023 0,53.53947"
       style="fill:none;stroke:#000000;stroke-width:0.40000001;stroke-linecap:butt;stroke-linejoin:miter;stroke-miterlimit:10;stroke-opacity:1;stroke-dasharray:none"
       id="path4409" /><text
       transform="scale(1,-1)"
       id="text4411"
       y="-222.70398"
       x="215.61244"
       style="font-size:9.60000038px;font-style:normal;font-variant:normal;font-weight:normal;font-stretch:normal;text-indent:0;text-align:start;text-decoration:none;line-height:normal;letter-spacing:normal;word-spacing:normal;text-transform:none;direction:ltr;block-progression:tb;writing-mode:lr-tb;text-anchor:start;color:#000000;fill:#000000;fill-opacity:1;fill-rule:nonzero;stroke:none;stroke-width:1px;marker:none;visibility:visible;display:inline;overflow:visible;enable-background:accumulate;font-family:Arial;-inkscape-font-specification:Arial"
       xml:space="preserve"><tspan
         y="-222.70398"
         x="215.61244"
         id="tspan4413"
         sodipodi:role="line">Excitation</tspan></text>
<text
       transform="scale(1,-1)"
       id="text4415"
       y="-222.70398"
       x="86.588158"
       style="font-size:9.60000038px;font-style:normal;font-variant:normal;font-weight:normal;font-stretch:normal;text-indent:0;text-align:start;text-decoration:none;line-height:normal;letter-spacing:normal;word-spacing:normal;text-transform:none;direction:ltr;block-progression:tb;writing-mode:lr-tb;text-anchor:start;color:#000000;fill:#000000;fill-opacity:1;fill-rule:nonzero;stroke:none;stroke-width:1px;marker:none;visibility:visible;display:inline;overflow:visible;enable-background:accumulate;font-family:Arial;-inkscape-font-specification:Arial"
       xml:space="preserve"><tspan
         y="-222.70398"
         x="86.588158"
         id="tspan4417"
         sodipodi:role="line">Inhibition</tspan></text>
<g
       id="g4828"
       transform="translate(40.340994,9.5293687)"><path
         id="path4405"
         style="fill:#7f2aff;stroke:#7f2aff;stroke-width:0.80000001;stroke-linecap:butt;stroke-linejoin:miter;stroke-miterlimit:10;stroke-opacity:1;stroke-dasharray:none"
         d="m 98.236583,183.01403 0,11.4727" /><g
         id="g4419"
         transform="translate(164.18576,25.542087)"
         style="fill:#7137c8"><text
           transform="scale(1,-1)"
           id="text4421"
           y="-149.27768"
           x="-72.661507"
           style="font-size:9.60000038px;font-style:normal;font-variant:normal;font-weight:normal;font-stretch:normal;text-indent:0;text-align:start;text-decoration:none;line-height:normal;letter-spacing:normal;word-spacing:normal;text-transform:none;direction:ltr;block-progression:tb;writing-mode:lr-tb;text-anchor:start;color:#000000;fill:#7137c8;fill-opacity:1;fill-rule:nonzero;stroke:none;stroke-width:1px;marker:none;visibility:visible;display:inline;overflow:visible;enable-background:accumulate;font-family:Arial;-inkscape-font-specification:Arial"
           xml:space="preserve"><tspan
             y="-149.27768"
             x="-72.661507"
             id="tspan4423"
             sodipodi:role="line">V</tspan></text>
<text
           transform="scale(1,-1)"
           id="text4425"
           y="-147.08609"
           x="-67.7201"
           style="font-size:9.60000038px;font-style:normal;font-variant:normal;font-weight:normal;font-stretch:normal;text-indent:0;text-align:start;text-decoration:none;line-height:normal;letter-spacing:normal;word-spacing:normal;text-transform:none;direction:ltr;block-progression:tb;writing-mode:lr-tb;text-anchor:start;color:#000000;fill:#7137c8;fill-opacity:1;fill-rule:nonzero;stroke:none;stroke-width:1px;marker:none;visibility:visible;display:inline;overflow:visible;enable-background:accumulate;font-family:Arial;-inkscape-font-specification:Arial"
           xml:space="preserve"><tspan
             y="-147.08609"
             x="-67.7201"
             id="tspan4427"
             sodipodi:role="line">m</tspan></text>
</g></g><g
       transform="translate(143.82953,14.431437)"
       id="g4429"><text
         xml:space="preserve"
         style="font-size:12px;font-style:normal;font-variant:normal;font-weight:normal;font-stretch:normal;text-indent:0;text-align:start;text-decoration:none;line-height:normal;letter-spacing:normal;word-spacing:normal;text-transform:none;direction:ltr;block-progression:tb;writing-mode:lr-tb;text-anchor:start;color:#000000;fill:#000000;fill-opacity:1;fill-rule:nonzero;stroke:none;stroke-width:1px;marker:none;visibility:visible;display:inline;overflow:visible;enable-background:accumulate;font-family:Arial;-inkscape-font-specification:Arial"
         x="74.682617"
         y="105.00488"
         id="text4431"
         transform="matrix(0.8,0,0,-0.8,0,230)"><tspan
           sodipodi:role="line"
           id="tspan4433"
           x="74.682617"
           y="105.00488">E</tspan></text>
<text
         xml:space="preserve"
         style="font-size:9.60000038px;font-style:normal;font-variant:normal;font-weight:normal;font-stretch:normal;text-indent:0;text-align:start;text-decoration:none;line-height:normal;letter-spacing:normal;word-spacing:normal;text-transform:none;direction:ltr;block-progression:tb;writing-mode:lr-tb;text-anchor:start;color:#000000;fill:#000000;fill-opacity:1;fill-rule:nonzero;stroke:none;stroke-width:1px;marker:none;visibility:visible;display:inline;overflow:visible;enable-background:accumulate;font-family:Arial;-inkscape-font-specification:Arial"
         x="66.035156"
         y="-143.30078"
         id="text4435"
         transform="scale(1,-1)"><tspan
           sodipodi:role="line"
           id="tspan4437"
           x="66.035156"
           y="-143.30078">e</tspan></text>
</g><g
       transform="translate(61.991916,69.62734)"
       id="g4439"><text
         xml:space="preserve"
         style="font-size:12px;font-style:normal;font-variant:normal;font-weight:normal;font-stretch:normal;text-indent:0;text-align:start;text-decoration:none;line-height:normal;letter-spacing:normal;word-spacing:normal;text-transform:none;direction:ltr;block-progression:tb;writing-mode:lr-tb;text-anchor:start;color:#000000;fill:#000000;fill-opacity:1;fill-rule:nonzero;stroke:none;stroke-width:1px;marker:none;visibility:visible;display:inline;overflow:visible;enable-background:accumulate;font-family:Arial;-inkscape-font-specification:Arial"
         x="80.859375"
         y="171.82617"
         id="text4441"
         transform="matrix(0.8,0,0,-0.8,0,230)"><tspan
           sodipodi:role="line"
           id="tspan4443"
           x="80.859375"
           y="171.82617">E</tspan></text>
<text
         xml:space="preserve"
         style="font-size:9.60000038px;font-style:normal;font-variant:normal;font-weight:normal;font-stretch:normal;text-indent:0;text-align:start;text-decoration:none;line-height:normal;letter-spacing:normal;word-spacing:normal;text-transform:none;direction:ltr;block-progression:tb;writing-mode:lr-tb;text-anchor:start;color:#000000;fill:#000000;fill-opacity:1;fill-rule:nonzero;stroke:none;stroke-width:1px;marker:none;visibility:visible;display:inline;overflow:visible;enable-background:accumulate;font-family:Arial;-inkscape-font-specification:Arial"
         x="71.239708"
         y="-87.992378"
         id="text4445"
         transform="scale(1,-1)"><tspan
           sodipodi:role="line"
           id="tspan4447"
           x="71.239708"
           y="-87.992378">i</tspan></text>
</g><g
       transform="translate(158.33997,-13.514294)"
       id="g4449"><text
         xml:space="preserve"
         style="font-size:12px;font-style:normal;font-variant:normal;font-weight:normal;font-stretch:normal;text-indent:0;text-align:start;text-decoration:none;line-height:normal;letter-spacing:normal;word-spacing:normal;text-transform:none;direction:ltr;block-progression:tb;writing-mode:lr-tb;text-anchor:start;color:#000000;fill:#000000;fill-opacity:1;fill-rule:nonzero;stroke:none;stroke-width:1px;marker:none;visibility:visible;display:inline;overflow:visible;enable-background:accumulate;font-family:Arial;-inkscape-font-specification:Arial"
         x="70.19043"
         y="40.429688"
         id="text4451"
         transform="matrix(0.8,0,0,-0.8,0,230)"><tspan
           sodipodi:role="line"
           id="tspan4453"
           x="70.19043"
           y="40.429688">g</tspan></text>
<text
         xml:space="preserve"
         style="font-size:9.60000038px;font-style:normal;font-variant:normal;font-weight:normal;font-stretch:normal;text-indent:0;text-align:start;text-decoration:none;line-height:normal;letter-spacing:normal;word-spacing:normal;text-transform:none;direction:ltr;block-progression:tb;writing-mode:lr-tb;text-anchor:start;color:#000000;fill:#000000;fill-opacity:1;fill-rule:nonzero;stroke:none;stroke-width:1px;marker:none;visibility:visible;display:inline;overflow:visible;enable-background:accumulate;font-family:Arial;-inkscape-font-specification:Arial"
         x="61.09375"
         y="-193.16406"
         id="text4455"
         transform="scale(1,-1)"><tspan
           sodipodi:role="line"
           id="tspan4457"
           x="61.09375"
           y="-193.16406">e</tspan></text>
</g><g
       transform="translate(49.021808,123.93629)"
       id="g4459"><text
         xml:space="preserve"
         style="font-size:9.60000038px;font-style:normal;font-variant:normal;font-weight:normal;font-stretch:normal;text-indent:0;text-align:start;text-decoration:none;line-height:normal;letter-spacing:normal;word-spacing:normal;text-transform:none;direction:ltr;block-progression:tb;writing-mode:lr-tb;text-anchor:start;color:#000000;fill:#000000;fill-opacity:1;fill-rule:nonzero;stroke:none;stroke-width:1px;marker:none;visibility:visible;display:inline;overflow:visible;enable-background:accumulate;font-family:Arial;-inkscape-font-specification:Arial"
         x="53.007812"
         y="-39.082031"
         id="text4461"
         transform="scale(1,-1)"><tspan
           sodipodi:role="line"
           id="tspan4463"
           x="53.007812"
           y="-39.082031">g</tspan></text>
<text
         xml:space="preserve"
         style="font-size:9.60000038px;font-style:normal;font-variant:normal;font-weight:normal;font-stretch:normal;text-indent:0;text-align:start;text-decoration:none;line-height:normal;letter-spacing:normal;word-spacing:normal;text-transform:none;direction:ltr;block-progression:tb;writing-mode:lr-tb;text-anchor:start;color:#000000;fill:#000000;fill-opacity:1;fill-rule:nonzero;stroke:none;stroke-width:1px;marker:none;visibility:visible;display:inline;overflow:visible;enable-background:accumulate;font-family:Arial;-inkscape-font-specification:Arial"
         x="58.17794"
         y="-33.683426"
         id="text4465"
         transform="scale(1,-1)"><tspan
           sodipodi:role="line"
           id="tspan4467"
           x="58.17794"
           y="-33.683426">i</tspan></text>
</g><g
       style="fill:url(#linearGradient4737);fill-opacity:1"
       transform="matrix(0.23640018,0,0,0.23640018,194.21826,186.08245)"
       id="g4471"><path
         style="fill:url(#linearGradient4733);fill-opacity:1;stroke:#000000;stroke-width:0.40000001;stroke-linecap:butt;stroke-linejoin:miter;stroke-miterlimit:4;stroke-opacity:1;stroke-dasharray:none"
         d="m 108.07967,69.656487 c -0.4836,0.0065 -1.39344,0.119612 -1.79716,0.05159 -0.71966,-0.121254 -0.95651,-0.268633 -1.32393,-0.576141 -0.1118,-0.09357 -0.57944,-0.630455 -0.86758,-1.038716 -0.30449,-0.431432 -0.5981,-1.424673 -0.67019,-1.63254 -0.20187,-0.582066 -0.22291,-0.914048 -0.1528,-1.24912 0.0184,-0.08815 0.43657,-1.630453 0.0416,-1.542141 -0.14808,0.03311 -0.42908,-0.476521 -0.77273,-0.934234 -0.37258,-0.496244 -0.96294,-1.154809 -0.68528,-1.186913 0.22697,-0.0262 0.55272,-0.218466 0.95861,-0.295014 0.15013,-0.02834 -0.003,-1.141066 0.14459,-1.192054 0.59108,-0.204454 2.63963,-0.33926 1.72921,-0.314048 -0.45949,0.01273 -1.15366,-4.82e-4 -1.55836,-0.05928 -0.21442,-0.03115 -0.23171,-0.307608 -0.3093,-0.961923 -0.008,-0.06921 0.003,-0.770259 0.0579,-0.945403 0.0894,-0.286616 0.36937,-0.349492 0.51319,-0.558165 0.114,-0.165402 0.58256,-0.133289 0.63506,-0.189389 0.20454,-0.218568 1.51528,-0.216977 1.78091,-0.310073 0.30058,-0.105333 0.32908,-0.968721 0.10937,-1.077996 -0.0591,-0.0294 -0.18743,-0.598227 -0.17799,-0.696793 0.0557,-0.58195 -0.2417,-0.891266 -0.8058,-1.170006 -0.6129,-0.302852 -0.71877,-0.373762 -1.71782,-0.240253 -1.59173,0.212711 -2.29663,-0.90081 -3.335115,-0.842327 -1.703648,0.09594 -3.428355,-1.152209 -5.067523,-1.301204 -0.874853,-0.07952 -1.774046,-0.193239 -2.288614,-0.176649 -0.903043,0.0291 -1.991426,0.08653 -2.963835,0.207822 -1.350955,0.168512 -2.292186,0.475865 -3.575221,0.853864 -1.923676,0.566743 -2.844821,0.61043 -4.849913,0.600358 -0.597248,-0.003 -3.155408,0.487192 -3.497058,0.490734 -0.56799,0.0059 1.147234,-0.623874 1.574197,-0.782318 0.561486,-0.208364 1.384194,-0.381331 0.742242,-0.42503 -0.643462,-0.0438 -3.202514,0.62844 -2.314297,0.04404 0.548458,-0.360859 2.836562,-0.813153 2.698534,-1.020281 -0.164406,-0.246711 -2.792211,0.417786 -3.172548,-0.03606 -0.349172,-0.416657 2.054549,-0.452191 2.761737,-0.587983 1.395046,-0.267873 -1.62331,-0.162437 -2.018082,-0.398564 -0.756756,-0.452644 -0.09075,-0.341746 1.398394,-0.35661 0.917871,-0.0092 1.320619,-0.168991 2.157022,-0.02191 1.415468,0.248893 1.401886,-0.189857 2.728452,-0.342839 1.162487,-0.134077 2.305354,-0.714629 3.513847,-0.83776 1.388356,-0.141456 2.856225,-1.115293 4.230052,-1.05079 1.136208,0.05335 1.715281,0.299531 2.733078,0.355013 1.620853,0.08836 2.388626,0.97542 4.008205,0.731044 0.88965,-0.134233 0.944983,0.143427 2.039856,-0.125812 0.50327,-0.123757 1.44885,-0.185409 1.64921,-0.31615 0.361,-0.235567 -0.0398,-0.334408 -0.0799,-0.984326 -0.012,-0.194534 -0.45151,-0.82654 -0.45642,-1.714012 -0.003,-0.602967 -0.0212,-1.674891 -0.0979,-2.521194 -0.13395,-1.478374 -0.4649,-2.587791 -0.68357,-4.013878 -0.15077,-0.979918 -0.01,-2.166537 -0.10708,-2.190412 -0.79624,-0.194904 -1.219672,0.423948 -1.911529,0.949902 -1.029931,0.78296 -1.94624,1.137845 -3.098204,1.637778 -0.692528,0.300545 -1.925923,0.932222 -2.472636,1.263972 -0.672684,0.408192 -1.326559,0.683318 -2.216164,1.038019 -1.090645,0.43486 -2.225889,0.537836 -3.434436,0.722745 -0.758214,0.115991 -0.987071,-0.114136 -1.299846,-0.459254 -0.27688,-0.305509 -0.874207,-0.517334 -0.727068,-1.181215 0.14746,-0.665331 0.278203,-0.722136 0.419414,-1.582592 0.238246,-1.451734 1.558696,-3.115076 2.486902,-4.278385 1.005872,-1.260646 0.966079,-1.246778 1.414165,-1.922632 0.969569,-1.462417 1.93774,-2.24208 2.522743,-2.880171 0.980198,-1.069151 0.94983,-1.183368 1.679098,-2.32055 0.193614,-0.301911 0.933741,-0.933636 1.083868,-1.13184 0.204873,-0.270484 0.06913,-0.789181 -0.792045,-0.753753 -0.900305,0.03704 -4.760676,-0.905119 -5.543128,-1.058095 -0.631245,-0.123423 -0.03636,-0.663317 1.069111,-1.007431 0.809041,-0.25184 3.408872,0.440241 3.818966,0.452788 1.804964,0.05523 3.383506,-0.258828 5.741229,-0.464335 0.110534,-0.0097 1.56125,-0.411148 1.5435,0.71325 -0.0127,0.80536 -0.42603,0.506382 -0.90277,1.282053 -0.695591,1.13176 -0.882511,1.112369 -1.420373,1.601403 -0.928593,0.844291 -1.173694,1.474479 -1.745706,2.354374 -0.348694,0.536379 -0.851598,1.014389 -1.109894,1.519018 -0.319979,0.625141 -0.624354,1.147093 -1.488315,2.422414 -0.313077,0.462144 -1.930197,2.357272 -1.10507,1.727773 1.090482,-0.831941 2.194213,-2.147992 3.421622,-3.046297 1.366389,-1.000017 2.215308,-1.412305 3.245146,-2.019279 1.52393,-0.898183 2.80347,-1.289902 3.73282,-1.686769 0.87025,-0.371624 2.28843,-0.431049 3.46512,-0.165435 0.41304,0.09323 1.24292,0.732165 1.69155,1.767545 0.47163,1.088453 0.34497,2.329416 0.60271,3.369888 0.42173,1.702494 0.36975,1.828534 0.48814,2.972662 0.0809,0.781738 0.0292,1.522212 0.19179,2.223498 0.28009,1.208379 0.13665,2.729412 0.59233,3.720869 0.19866,0.432226 0.77453,1.448887 0.89711,2.319955 0.24325,1.72855 0.6913,3.507512 0.64968,5.201401 -0.0263,1.068676 -0.24258,1.498907 -0.55618,2.323459 -0.41041,1.079074 0.0617,0.529649 -0.86726,1.124131 -0.86454,0.553249 -0.82205,0.497646 -0.88509,1.246889 -0.0241,0.28661 -0.1749,1.484735 0.14219,1.583917 0.65044,0.203445 0.64139,1.083658 1.09083,1.77165 0.65384,1.000891 1.37297,1.23256 1.5833,2.995528 0.15513,1.300251 0.56102,2.435533 0.32618,3.753204 -0.13468,0.7557 -0.14421,0.857413 -0.43758,2.026106 -0.11022,0.439078 -0.31277,1.023202 -0.57624,1.32394 -0.34435,0.393053 -0.60877,0.736349 -1.11982,0.879053 -1.23008,0.343486 -1.31745,0.336626 -1.97461,0.438782 -0.50299,0.07816 -0.84907,0.108919 -1.07477,0.111943 l -1e-5,-3e-5 z"
         id="path4473"
         sodipodi:nodetypes="csssssssssssssssssssssssssssssssssssssssssssssssssssssssssssssssssssssssssssssssssssssssssssssssssc" /><path
         style="fill:url(#linearGradient4735);fill-opacity:1;stroke:#000000;stroke-width:0.40000001;stroke-linecap:butt;stroke-linejoin:miter;stroke-miterlimit:4;stroke-opacity:1;stroke-dasharray:none"
         d="m 103.88594,64.567214 c 2.65183,0.08217 0.40839,-1.771352 -0.16845,-0.617672 -0.17493,0.349848 -0.41144,0.02552 0.16845,0.617672 z"
         id="path4475" /></g><g
       id="g4477"
       transform="matrix(-1,0,0,1,205.98078,147.15635)"
       style="fill:url(#linearGradient5725);fill-opacity:1"><path
         sodipodi:nodetypes="csssssssssssssssssssssssssssssssssssssssssssssssssssssssssssssssssssssssssssssssssssssssssssssssssc"
         id="path4479"
         d="m 108.07967,69.656487 c -0.4836,0.0065 -1.39344,0.119612 -1.79716,0.05159 -0.71966,-0.121254 -0.95651,-0.268633 -1.32393,-0.576141 -0.1118,-0.09357 -0.57944,-0.630455 -0.86758,-1.038716 -0.30449,-0.431432 -0.5981,-1.424673 -0.67019,-1.63254 -0.20187,-0.582066 -0.22291,-0.914048 -0.1528,-1.24912 0.0184,-0.08815 0.43657,-1.630453 0.0416,-1.542141 -0.14808,0.03311 -0.42908,-0.476521 -0.77273,-0.934234 -0.37258,-0.496244 -0.96294,-1.154809 -0.68528,-1.186913 0.22697,-0.0262 0.55272,-0.218466 0.95861,-0.295014 0.15013,-0.02834 -0.003,-1.141066 0.14459,-1.192054 0.59108,-0.204454 2.63963,-0.33926 1.72921,-0.314048 -0.45949,0.01273 -1.15366,-4.82e-4 -1.55836,-0.05928 -0.21442,-0.03115 -0.23171,-0.307608 -0.3093,-0.961923 -0.008,-0.06921 0.003,-0.770259 0.0579,-0.945403 0.0894,-0.286616 0.36937,-0.349492 0.51319,-0.558165 0.114,-0.165402 0.58256,-0.133289 0.63506,-0.189389 0.20454,-0.218568 1.51528,-0.216977 1.78091,-0.310073 0.30058,-0.105333 0.32908,-0.968721 0.10937,-1.077996 -0.0591,-0.0294 -0.18743,-0.598227 -0.17799,-0.696793 0.0557,-0.58195 -0.2417,-0.891266 -0.8058,-1.170006 -0.6129,-0.302852 -0.71877,-0.373762 -1.71782,-0.240253 -1.59173,0.212711 -2.29663,-0.90081 -3.335115,-0.842327 -1.703648,0.09594 -3.428355,-1.152209 -5.067523,-1.301204 -0.874853,-0.07952 -1.774046,-0.193239 -2.288614,-0.176649 -0.903043,0.0291 -1.991426,0.08653 -2.963835,0.207822 -1.350955,0.168512 -2.292186,0.475865 -3.575221,0.853864 -1.923676,0.566743 -2.844821,0.61043 -4.849913,0.600358 -0.597248,-0.003 -3.155408,0.487192 -3.497058,0.490734 -0.56799,0.0059 1.147234,-0.623874 1.574197,-0.782318 0.561486,-0.208364 1.384194,-0.381331 0.742242,-0.42503 -0.643462,-0.0438 -3.202514,0.62844 -2.314297,0.04404 0.548458,-0.360859 2.836562,-0.813153 2.698534,-1.020281 -0.164406,-0.246711 -2.792211,0.417786 -3.172548,-0.03606 -0.349172,-0.416657 2.054549,-0.452191 2.761737,-0.587983 1.395046,-0.267873 -1.62331,-0.162437 -2.018082,-0.398564 -0.756756,-0.452644 -0.09075,-0.341746 1.398394,-0.35661 0.917871,-0.0092 1.320619,-0.168991 2.157022,-0.02191 1.415468,0.248893 1.401886,-0.189857 2.728452,-0.342839 1.162487,-0.134077 2.305354,-0.714629 3.513847,-0.83776 1.388356,-0.141456 2.856225,-1.115293 4.230052,-1.05079 1.136208,0.05335 1.715281,0.299531 2.733078,0.355013 1.620853,0.08836 2.388626,0.97542 4.008205,0.731044 0.88965,-0.134233 0.944983,0.143427 2.039856,-0.125812 0.50327,-0.123757 1.44885,-0.185409 1.64921,-0.31615 0.361,-0.235567 -0.0398,-0.334408 -0.0799,-0.984326 -0.012,-0.194534 -0.45151,-0.82654 -0.45642,-1.714012 -0.003,-0.602967 -0.0212,-1.674891 -0.0979,-2.521194 -0.13395,-1.478374 -0.4649,-2.587791 -0.68357,-4.013878 -0.15077,-0.979918 -0.01,-2.166537 -0.10708,-2.190412 -0.79624,-0.194904 -1.219672,0.423948 -1.911529,0.949902 -1.029931,0.78296 -1.94624,1.137845 -3.098204,1.637778 -0.692528,0.300545 -1.925923,0.932222 -2.472636,1.263972 -0.672684,0.408192 -1.326559,0.683318 -2.216164,1.038019 -1.090645,0.43486 -2.225889,0.537836 -3.434436,0.722745 -0.758214,0.115991 -0.987071,-0.114136 -1.299846,-0.459254 -0.27688,-0.305509 -0.874207,-0.517334 -0.727068,-1.181215 0.14746,-0.665331 0.278203,-0.722136 0.419414,-1.582592 0.238246,-1.451734 1.558696,-3.115076 2.486902,-4.278385 1.005872,-1.260646 0.966079,-1.246778 1.414165,-1.922632 0.969569,-1.462417 1.93774,-2.24208 2.522743,-2.880171 0.980198,-1.069151 0.94983,-1.183368 1.679098,-2.32055 0.193614,-0.301911 0.933741,-0.933636 1.083868,-1.13184 0.204873,-0.270484 0.06913,-0.789181 -0.792045,-0.753753 -0.900305,0.03704 -4.760676,-0.905119 -5.543128,-1.058095 -0.631245,-0.123423 -0.03636,-0.663317 1.069111,-1.007431 0.809041,-0.25184 3.408872,0.440241 3.818966,0.452788 1.804964,0.05523 3.383506,-0.258828 5.741229,-0.464335 0.110534,-0.0097 1.56125,-0.411148 1.5435,0.71325 -0.0127,0.80536 -0.42603,0.506382 -0.90277,1.282053 -0.695591,1.13176 -0.882511,1.112369 -1.420373,1.601403 -0.928593,0.844291 -1.173694,1.474479 -1.745706,2.354374 -0.348694,0.536379 -0.851598,1.014389 -1.109894,1.519018 -0.319979,0.625141 -0.624354,1.147093 -1.488315,2.422414 -0.313077,0.462144 -1.930197,2.357272 -1.10507,1.727773 1.090482,-0.831941 2.194213,-2.147992 3.421622,-3.046297 1.366389,-1.000017 2.215308,-1.412305 3.245146,-2.019279 1.52393,-0.898183 2.80347,-1.289902 3.73282,-1.686769 0.87025,-0.371624 2.28843,-0.431049 3.46512,-0.165435 0.41304,0.09323 1.24292,0.732165 1.69155,1.767545 0.47163,1.088453 0.34497,2.329416 0.60271,3.369888 0.42173,1.702494 0.36975,1.828534 0.48814,2.972662 0.0809,0.781738 0.0292,1.522212 0.19179,2.223498 0.28009,1.208379 0.13665,2.729412 0.59233,3.720869 0.19866,0.432226 0.77453,1.448887 0.89711,2.319955 0.24325,1.72855 0.6913,3.507512 0.64968,5.201401 -0.0263,1.068676 -0.24258,1.498907 -0.55618,2.323459 -0.41041,1.079074 0.0617,0.529649 -0.86726,1.124131 -0.86454,0.553249 -0.82205,0.497646 -0.88509,1.246889 -0.0241,0.28661 -0.1749,1.484735 0.14219,1.583917 0.65044,0.203445 0.64139,1.083658 1.09083,1.77165 0.65384,1.000891 1.37297,1.23256 1.5833,2.995528 0.15513,1.300251 0.56102,2.435533 0.32618,3.753204 -0.13468,0.7557 -0.14421,0.857413 -0.43758,2.026106 -0.11022,0.439078 -0.31277,1.023202 -0.57624,1.32394 -0.34435,0.393053 -0.60877,0.736349 -1.11982,0.879053 -1.23008,0.343486 -1.31745,0.336626 -1.97461,0.438782 -0.50299,0.07816 -0.84907,0.108919 -1.07477,0.111943 l -1e-5,-3e-5 z"
         style="fill:url(#linearGradient4489);fill-opacity:1;stroke:#000000;stroke-width:0.40000001;stroke-linecap:butt;stroke-linejoin:miter;stroke-miterlimit:4;stroke-opacity:1;stroke-dasharray:none" /><path
         id="path4481"
         d="m 103.88594,64.567214 c 2.65183,0.08217 0.40839,-1.771352 -0.16845,-0.617672 -0.17493,0.349848 -0.41144,0.02552 0.16845,0.617672 z"
         style="fill:url(#linearGradient4491);fill-opacity:1;stroke:#000000;stroke-width:0.40000001;stroke-linecap:butt;stroke-linejoin:miter;stroke-miterlimit:4;stroke-opacity:1;stroke-dasharray:none" /></g><path
       d="m 225.47649,39.768399 0,3.82422 -112.81498,0 0,-3.82422 112.81498,0 z"
       style="fill:#ffffff;fill-opacity:1;fill-rule:evenodd;stroke:none"
       id="path4497" /><path
       d="m 131.78251,14.910929 0,53.53947"
       style="fill:none;stroke:#000000;stroke-width:0.40000001;stroke-linecap:butt;stroke-linejoin:miter;stroke-miterlimit:10;stroke-opacity:1;stroke-dasharray:none"
       id="path4501" /><path
       d="m 208.26719,14.910929 0,53.53947"
       style="fill:none;stroke:#000000;stroke-width:0.40000001;stroke-linecap:butt;stroke-linejoin:miter;stroke-miterlimit:10;stroke-opacity:1;stroke-dasharray:none"
       id="path4503" /><g
       transform="translate(143.82953,-142.16786)"
       id="g4523"><text
         xml:space="preserve"
         style="font-size:12px;font-style:normal;font-variant:normal;font-weight:normal;font-stretch:normal;text-indent:0;text-align:start;text-decoration:none;line-height:normal;letter-spacing:normal;word-spacing:normal;text-transform:none;direction:ltr;block-progression:tb;writing-mode:lr-tb;text-anchor:start;color:#000000;fill:#000000;fill-opacity:1;fill-rule:nonzero;stroke:none;stroke-width:1px;marker:none;visibility:visible;display:inline;overflow:visible;enable-background:accumulate;font-family:Arial;-inkscape-font-specification:Arial"
         x="74.682617"
         y="105.00488"
         id="text4525"
         transform="matrix(0.8,0,0,-0.8,0,230)"><tspan
           sodipodi:role="line"
           id="tspan4527"
           x="74.682617"
           y="105.00488">E</tspan></text>
<text
         xml:space="preserve"
         style="font-size:9.60000038px;font-style:normal;font-variant:normal;font-weight:normal;font-stretch:normal;text-indent:0;text-align:start;text-decoration:none;line-height:normal;letter-spacing:normal;word-spacing:normal;text-transform:none;direction:ltr;block-progression:tb;writing-mode:lr-tb;text-anchor:start;color:#000000;fill:#000000;fill-opacity:1;fill-rule:nonzero;stroke:none;stroke-width:1px;marker:none;visibility:visible;display:inline;overflow:visible;enable-background:accumulate;font-family:Arial;-inkscape-font-specification:Arial"
         x="66.035156"
         y="-143.30078"
         id="text4529"
         transform="scale(1,-1)"><tspan
           sodipodi:role="line"
           id="tspan4531"
           x="66.035156"
           y="-143.30078">e</tspan></text>
</g><g
       transform="translate(61.991916,-86.971956)"
       id="g4533"><text
         xml:space="preserve"
         style="font-size:12px;font-style:normal;font-variant:normal;font-weight:normal;font-stretch:normal;text-indent:0;text-align:start;text-decoration:none;line-height:normal;letter-spacing:normal;word-spacing:normal;text-transform:none;direction:ltr;block-progression:tb;writing-mode:lr-tb;text-anchor:start;color:#000000;fill:#000000;fill-opacity:1;fill-rule:nonzero;stroke:none;stroke-width:1px;marker:none;visibility:visible;display:inline;overflow:visible;enable-background:accumulate;font-family:Arial;-inkscape-font-specification:Arial"
         x="80.859375"
         y="171.82617"
         id="text4535"
         transform="matrix(0.8,0,0,-0.8,0,230)"><tspan
           sodipodi:role="line"
           id="tspan4537"
           x="80.859375"
           y="171.82617">E</tspan></text>
<text
         xml:space="preserve"
         style="font-size:9.60000038px;font-style:normal;font-variant:normal;font-weight:normal;font-stretch:normal;text-indent:0;text-align:start;text-decoration:none;line-height:normal;letter-spacing:normal;word-spacing:normal;text-transform:none;direction:ltr;block-progression:tb;writing-mode:lr-tb;text-anchor:start;color:#000000;fill:#000000;fill-opacity:1;fill-rule:nonzero;stroke:none;stroke-width:1px;marker:none;visibility:visible;display:inline;overflow:visible;enable-background:accumulate;font-family:Arial;-inkscape-font-specification:Arial"
         x="71.239708"
         y="-87.992378"
         id="text4539"
         transform="scale(1,-1)"><tspan
           sodipodi:role="line"
           id="tspan4541"
           x="71.239708"
           y="-87.992378">i</tspan></text>
</g><g
       transform="translate(165.32817,-179.64296)"
       id="g4543"><text
         xml:space="preserve"
         style="font-size:12px;font-style:normal;font-variant:normal;font-weight:normal;font-stretch:normal;text-indent:0;text-align:start;text-decoration:none;line-height:normal;letter-spacing:normal;word-spacing:normal;text-transform:none;direction:ltr;block-progression:tb;writing-mode:lr-tb;text-anchor:start;color:#000000;fill:#000000;fill-opacity:1;fill-rule:nonzero;stroke:none;stroke-width:1px;marker:none;visibility:visible;display:inline;overflow:visible;enable-background:accumulate;font-family:Arial;-inkscape-font-specification:Arial"
         x="70.19043"
         y="40.429688"
         id="text4545"
         transform="matrix(0.8,0,0,-0.8,0,230)"><tspan
           sodipodi:role="line"
           id="tspan4547"
           x="70.19043"
           y="40.429688">g</tspan></text>
<text
         xml:space="preserve"
         style="font-size:9.60000038px;font-style:normal;font-variant:normal;font-weight:normal;font-stretch:normal;text-indent:0;text-align:start;text-decoration:none;line-height:normal;letter-spacing:normal;word-spacing:normal;text-transform:none;direction:ltr;block-progression:tb;writing-mode:lr-tb;text-anchor:start;color:#000000;fill:#000000;fill-opacity:1;fill-rule:nonzero;stroke:none;stroke-width:1px;marker:none;visibility:visible;display:inline;overflow:visible;enable-background:accumulate;font-family:Arial;-inkscape-font-specification:Arial"
         x="61.09375"
         y="-193.16406"
         id="text4549"
         transform="scale(1,-1)"><tspan
           sodipodi:role="line"
           id="tspan4551"
           x="61.09375"
           y="-193.16406">e</tspan></text>
</g><g
       transform="translate(56.645303,-21.863053)"
       id="g4553"><text
         xml:space="preserve"
         style="font-size:9.60000038px;font-style:normal;font-variant:normal;font-weight:normal;font-stretch:normal;text-indent:0;text-align:start;text-decoration:none;line-height:normal;letter-spacing:normal;word-spacing:normal;text-transform:none;direction:ltr;block-progression:tb;writing-mode:lr-tb;text-anchor:start;color:#000000;fill:#000000;fill-opacity:1;fill-rule:nonzero;stroke:none;stroke-width:1px;marker:none;visibility:visible;display:inline;overflow:visible;enable-background:accumulate;font-family:Arial;-inkscape-font-specification:Arial"
         x="53.007812"
         y="-39.082031"
         id="text4555"
         transform="scale(1,-1)"><tspan
           sodipodi:role="line"
           id="tspan4557"
           x="53.007812"
           y="-39.082031">g</tspan></text>
<text
         xml:space="preserve"
         style="font-size:9.60000038px;font-style:normal;font-variant:normal;font-weight:normal;font-stretch:normal;text-indent:0;text-align:start;text-decoration:none;line-height:normal;letter-spacing:normal;word-spacing:normal;text-transform:none;direction:ltr;block-progression:tb;writing-mode:lr-tb;text-anchor:start;color:#000000;fill:#000000;fill-opacity:1;fill-rule:nonzero;stroke:none;stroke-width:1px;marker:none;visibility:visible;display:inline;overflow:visible;enable-background:accumulate;font-family:Arial;-inkscape-font-specification:Arial"
         x="58.17794"
         y="-33.683426"
         id="text4559"
         transform="scale(1,-1)"><tspan
           sodipodi:role="line"
           id="tspan4561"
           x="58.17794"
           y="-33.683426">i</tspan></text>
</g><path
       id="path4563"
       d="m 212.9849,41.725249 -86.29545,0"
       style="fill:none;stroke:#000000;stroke-width:1.39771152;stroke-linecap:butt;stroke-linejoin:miter;stroke-miterlimit:4;stroke-opacity:1;stroke-dasharray:none" /><g
       style="fill:url(#linearGradient4820);fill-opacity:1"
       transform="matrix(0.59216828,0,0,0.59216828,166.2146,11.267718)"
       id="g4565"><path
         style="fill:url(#linearGradient4577);fill-opacity:1;stroke:#000000;stroke-width:0.40000001;stroke-linecap:butt;stroke-linejoin:miter;stroke-miterlimit:4;stroke-opacity:1;stroke-dasharray:none"
         d="m 108.07967,69.656487 c -0.4836,0.0065 -1.39344,0.119612 -1.79716,0.05159 -0.71966,-0.121254 -0.95651,-0.268633 -1.32393,-0.576141 -0.1118,-0.09357 -0.57944,-0.630455 -0.86758,-1.038716 -0.30449,-0.431432 -0.5981,-1.424673 -0.67019,-1.63254 -0.20187,-0.582066 -0.22291,-0.914048 -0.1528,-1.24912 0.0184,-0.08815 0.43657,-1.630453 0.0416,-1.542141 -0.14808,0.03311 -0.42908,-0.476521 -0.77273,-0.934234 -0.37258,-0.496244 -0.96294,-1.154809 -0.68528,-1.186913 0.22697,-0.0262 0.55272,-0.218466 0.95861,-0.295014 0.15013,-0.02834 -0.003,-1.141066 0.14459,-1.192054 0.59108,-0.204454 2.63963,-0.33926 1.72921,-0.314048 -0.45949,0.01273 -1.15366,-4.82e-4 -1.55836,-0.05928 -0.21442,-0.03115 -0.23171,-0.307608 -0.3093,-0.961923 -0.008,-0.06921 0.003,-0.770259 0.0579,-0.945403 0.0894,-0.286616 0.36937,-0.349492 0.51319,-0.558165 0.114,-0.165402 0.58256,-0.133289 0.63506,-0.189389 0.20454,-0.218568 1.51528,-0.216977 1.78091,-0.310073 0.30058,-0.105333 0.32908,-0.968721 0.10937,-1.077996 -0.0591,-0.0294 -0.18743,-0.598227 -0.17799,-0.696793 0.0557,-0.58195 -0.2417,-0.891266 -0.8058,-1.170006 -0.6129,-0.302852 -0.71877,-0.373762 -1.71782,-0.240253 -1.59173,0.212711 -2.29663,-0.90081 -3.335115,-0.842327 -1.703648,0.09594 -3.428355,-1.152209 -5.067523,-1.301204 -0.874853,-0.07952 -1.774046,-0.193239 -2.288614,-0.176649 -0.903043,0.0291 -1.991426,0.08653 -2.963835,0.207822 -1.350955,0.168512 -2.292186,0.475865 -3.575221,0.853864 -1.923676,0.566743 -2.844821,0.61043 -4.849913,0.600358 -0.597248,-0.003 -3.155408,0.487192 -3.497058,0.490734 -0.56799,0.0059 1.147234,-0.623874 1.574197,-0.782318 0.561486,-0.208364 1.384194,-0.381331 0.742242,-0.42503 -0.643462,-0.0438 -3.202514,0.62844 -2.314297,0.04404 0.548458,-0.360859 2.836562,-0.813153 2.698534,-1.020281 -0.164406,-0.246711 -2.792211,0.417786 -3.172548,-0.03606 -0.349172,-0.416657 2.054549,-0.452191 2.761737,-0.587983 1.395046,-0.267873 -1.62331,-0.162437 -2.018082,-0.398564 -0.756756,-0.452644 -0.09075,-0.341746 1.398394,-0.35661 0.917871,-0.0092 1.320619,-0.168991 2.157022,-0.02191 1.415468,0.248893 1.401886,-0.189857 2.728452,-0.342839 1.162487,-0.134077 2.305354,-0.714629 3.513847,-0.83776 1.388356,-0.141456 2.856225,-1.115293 4.230052,-1.05079 1.136208,0.05335 1.715281,0.299531 2.733078,0.355013 1.620853,0.08836 2.388626,0.97542 4.008205,0.731044 0.88965,-0.134233 0.944983,0.143427 2.039856,-0.125812 0.50327,-0.123757 1.44885,-0.185409 1.64921,-0.31615 0.361,-0.235567 -0.0398,-0.334408 -0.0799,-0.984326 -0.012,-0.194534 -0.45151,-0.82654 -0.45642,-1.714012 -0.003,-0.602967 -0.0212,-1.674891 -0.0979,-2.521194 -0.13395,-1.478374 -0.4649,-2.587791 -0.68357,-4.013878 -0.15077,-0.979918 -0.01,-2.166537 -0.10708,-2.190412 -0.79624,-0.194904 -1.219672,0.423948 -1.911529,0.949902 -1.029931,0.78296 -1.94624,1.137845 -3.098204,1.637778 -0.692528,0.300545 -1.925923,0.932222 -2.472636,1.263972 -0.672684,0.408192 -1.326559,0.683318 -2.216164,1.038019 -1.090645,0.43486 -2.225889,0.537836 -3.434436,0.722745 -0.758214,0.115991 -0.987071,-0.114136 -1.299846,-0.459254 -0.27688,-0.305509 -0.874207,-0.517334 -0.727068,-1.181215 0.14746,-0.665331 0.278203,-0.722136 0.419414,-1.582592 0.238246,-1.451734 1.558696,-3.115076 2.486902,-4.278385 1.005872,-1.260646 0.966079,-1.246778 1.414165,-1.922632 0.969569,-1.462417 1.93774,-2.24208 2.522743,-2.880171 0.980198,-1.069151 0.94983,-1.183368 1.679098,-2.32055 0.193614,-0.301911 0.933741,-0.933636 1.083868,-1.13184 0.204873,-0.270484 0.06913,-0.789181 -0.792045,-0.753753 -0.900305,0.03704 -4.760676,-0.905119 -5.543128,-1.058095 -0.631245,-0.123423 -0.03636,-0.663317 1.069111,-1.007431 0.809041,-0.25184 3.408872,0.440241 3.818966,0.452788 1.804964,0.05523 3.383506,-0.258828 5.741229,-0.464335 0.110534,-0.0097 1.56125,-0.411148 1.5435,0.71325 -0.0127,0.80536 -0.42603,0.506382 -0.90277,1.282053 -0.695591,1.13176 -0.882511,1.112369 -1.420373,1.601403 -0.928593,0.844291 -1.173694,1.474479 -1.745706,2.354374 -0.348694,0.536379 -0.851598,1.014389 -1.109894,1.519018 -0.319979,0.625141 -0.624354,1.147093 -1.488315,2.422414 -0.313077,0.462144 -1.930197,2.357272 -1.10507,1.727773 1.090482,-0.831941 2.194213,-2.147992 3.421622,-3.046297 1.366389,-1.000017 2.215308,-1.412305 3.245146,-2.019279 1.52393,-0.898183 2.80347,-1.289902 3.73282,-1.686769 0.87025,-0.371624 2.28843,-0.431049 3.46512,-0.165435 0.41304,0.09323 1.24292,0.732165 1.69155,1.767545 0.47163,1.088453 0.34497,2.329416 0.60271,3.369888 0.42173,1.702494 0.36975,1.828534 0.48814,2.972662 0.0809,0.781738 0.0292,1.522212 0.19179,2.223498 0.28009,1.208379 0.13665,2.729412 0.59233,3.720869 0.19866,0.432226 0.77453,1.448887 0.89711,2.319955 0.24325,1.72855 0.6913,3.507512 0.64968,5.201401 -0.0263,1.068676 -0.24258,1.498907 -0.55618,2.323459 -0.41041,1.079074 0.0617,0.529649 -0.86726,1.124131 -0.86454,0.553249 -0.82205,0.497646 -0.88509,1.246889 -0.0241,0.28661 -0.1749,1.484735 0.14219,1.583917 0.65044,0.203445 0.64139,1.083658 1.09083,1.77165 0.65384,1.000891 1.37297,1.23256 1.5833,2.995528 0.15513,1.300251 0.56102,2.435533 0.32618,3.753204 -0.13468,0.7557 -0.14421,0.857413 -0.43758,2.026106 -0.11022,0.439078 -0.31277,1.023202 -0.57624,1.32394 -0.34435,0.393053 -0.60877,0.736349 -1.11982,0.879053 -1.23008,0.343486 -1.31745,0.336626 -1.97461,0.438782 -0.50299,0.07816 -0.84907,0.108919 -1.07477,0.111943 l -1e-5,-3e-5 z"
         id="path4567"
         sodipodi:nodetypes="csssssssssssssssssssssssssssssssssssssssssssssssssssssssssssssssssssssssssssssssssssssssssssssssssc" /><path
         style="fill:url(#linearGradient4579);fill-opacity:1;stroke:#000000;stroke-width:0.40000001;stroke-linecap:butt;stroke-linejoin:miter;stroke-miterlimit:4;stroke-opacity:1;stroke-dasharray:none"
         d="m 103.88594,64.567214 c 2.65183,0.08217 0.40839,-1.771352 -0.16845,-0.617672 -0.17493,0.349848 -0.41144,0.02552 0.16845,0.617672 z"
         id="path4569" /></g><g
       id="g4571"
       transform="matrix(-0.61820009,0,0,0.61820009,175.33926,9.9503812)"
       style="fill:url(#linearGradient4818);fill-opacity:1"><path
         sodipodi:nodetypes="csssssssssssssssssssssssssssssssssssssssssssssssssssssssssssssssssssssssssssssssssssssssssssssssssc"
         id="path4573"
         d="m 108.07967,69.656487 c -0.4836,0.0065 -1.39344,0.119612 -1.79716,0.05159 -0.71966,-0.121254 -0.95651,-0.268633 -1.32393,-0.576141 -0.1118,-0.09357 -0.57944,-0.630455 -0.86758,-1.038716 -0.30449,-0.431432 -0.5981,-1.424673 -0.67019,-1.63254 -0.20187,-0.582066 -0.22291,-0.914048 -0.1528,-1.24912 0.0184,-0.08815 0.43657,-1.630453 0.0416,-1.542141 -0.14808,0.03311 -0.42908,-0.476521 -0.77273,-0.934234 -0.37258,-0.496244 -0.96294,-1.154809 -0.68528,-1.186913 0.22697,-0.0262 0.55272,-0.218466 0.95861,-0.295014 0.15013,-0.02834 -0.003,-1.141066 0.14459,-1.192054 0.59108,-0.204454 2.63963,-0.33926 1.72921,-0.314048 -0.45949,0.01273 -1.15366,-4.82e-4 -1.55836,-0.05928 -0.21442,-0.03115 -0.23171,-0.307608 -0.3093,-0.961923 -0.008,-0.06921 0.003,-0.770259 0.0579,-0.945403 0.0894,-0.286616 0.36937,-0.349492 0.51319,-0.558165 0.114,-0.165402 0.58256,-0.133289 0.63506,-0.189389 0.20454,-0.218568 1.51528,-0.216977 1.78091,-0.310073 0.30058,-0.105333 0.32908,-0.968721 0.10937,-1.077996 -0.0591,-0.0294 -0.18743,-0.598227 -0.17799,-0.696793 0.0557,-0.58195 -0.2417,-0.891266 -0.8058,-1.170006 -0.6129,-0.302852 -0.71877,-0.373762 -1.71782,-0.240253 -1.59173,0.212711 -2.29663,-0.90081 -3.335115,-0.842327 -1.703648,0.09594 -3.428355,-1.152209 -5.067523,-1.301204 -0.874853,-0.07952 -1.774046,-0.193239 -2.288614,-0.176649 -0.903043,0.0291 -1.991426,0.08653 -2.963835,0.207822 -1.350955,0.168512 -2.292186,0.475865 -3.575221,0.853864 -1.923676,0.566743 -2.844821,0.61043 -4.849913,0.600358 -0.597248,-0.003 -3.155408,0.487192 -3.497058,0.490734 -0.56799,0.0059 1.147234,-0.623874 1.574197,-0.782318 0.561486,-0.208364 1.384194,-0.381331 0.742242,-0.42503 -0.643462,-0.0438 -3.202514,0.62844 -2.314297,0.04404 0.548458,-0.360859 2.836562,-0.813153 2.698534,-1.020281 -0.164406,-0.246711 -2.792211,0.417786 -3.172548,-0.03606 -0.349172,-0.416657 2.054549,-0.452191 2.761737,-0.587983 1.395046,-0.267873 -1.62331,-0.162437 -2.018082,-0.398564 -0.756756,-0.452644 -0.09075,-0.341746 1.398394,-0.35661 0.917871,-0.0092 1.320619,-0.168991 2.157022,-0.02191 1.415468,0.248893 1.401886,-0.189857 2.728452,-0.342839 1.162487,-0.134077 2.305354,-0.714629 3.513847,-0.83776 1.388356,-0.141456 2.856225,-1.115293 4.230052,-1.05079 1.136208,0.05335 1.715281,0.299531 2.733078,0.355013 1.620853,0.08836 2.388626,0.97542 4.008205,0.731044 0.88965,-0.134233 0.944983,0.143427 2.039856,-0.125812 0.50327,-0.123757 1.44885,-0.185409 1.64921,-0.31615 0.361,-0.235567 -0.0398,-0.334408 -0.0799,-0.984326 -0.012,-0.194534 -0.45151,-0.82654 -0.45642,-1.714012 -0.003,-0.602967 -0.0212,-1.674891 -0.0979,-2.521194 -0.13395,-1.478374 -0.4649,-2.587791 -0.68357,-4.013878 -0.15077,-0.979918 -0.01,-2.166537 -0.10708,-2.190412 -0.79624,-0.194904 -1.219672,0.423948 -1.911529,0.949902 -1.029931,0.78296 -1.94624,1.137845 -3.098204,1.637778 -0.692528,0.300545 -1.925923,0.932222 -2.472636,1.263972 -0.672684,0.408192 -1.326559,0.683318 -2.216164,1.038019 -1.090645,0.43486 -2.225889,0.537836 -3.434436,0.722745 -0.758214,0.115991 -0.987071,-0.114136 -1.299846,-0.459254 -0.27688,-0.305509 -0.874207,-0.517334 -0.727068,-1.181215 0.14746,-0.665331 0.278203,-0.722136 0.419414,-1.582592 0.238246,-1.451734 1.558696,-3.115076 2.486902,-4.278385 1.005872,-1.260646 0.966079,-1.246778 1.414165,-1.922632 0.969569,-1.462417 1.93774,-2.24208 2.522743,-2.880171 0.980198,-1.069151 0.94983,-1.183368 1.679098,-2.32055 0.193614,-0.301911 0.933741,-0.933636 1.083868,-1.13184 0.204873,-0.270484 0.06913,-0.789181 -0.792045,-0.753753 -0.900305,0.03704 -4.760676,-0.905119 -5.543128,-1.058095 -0.631245,-0.123423 -0.03636,-0.663317 1.069111,-1.007431 0.809041,-0.25184 3.408872,0.440241 3.818966,0.452788 1.804964,0.05523 3.383506,-0.258828 5.741229,-0.464335 0.110534,-0.0097 1.56125,-0.411148 1.5435,0.71325 -0.0127,0.80536 -0.42603,0.506382 -0.90277,1.282053 -0.695591,1.13176 -0.882511,1.112369 -1.420373,1.601403 -0.928593,0.844291 -1.173694,1.474479 -1.745706,2.354374 -0.348694,0.536379 -0.851598,1.014389 -1.109894,1.519018 -0.319979,0.625141 -0.624354,1.147093 -1.488315,2.422414 -0.313077,0.462144 -1.930197,2.357272 -1.10507,1.727773 1.090482,-0.831941 2.194213,-2.147992 3.421622,-3.046297 1.366389,-1.000017 2.215308,-1.412305 3.245146,-2.019279 1.52393,-0.898183 2.80347,-1.289902 3.73282,-1.686769 0.87025,-0.371624 2.28843,-0.431049 3.46512,-0.165435 0.41304,0.09323 1.24292,0.732165 1.69155,1.767545 0.47163,1.088453 0.34497,2.329416 0.60271,3.369888 0.42173,1.702494 0.36975,1.828534 0.48814,2.972662 0.0809,0.781738 0.0292,1.522212 0.19179,2.223498 0.28009,1.208379 0.13665,2.729412 0.59233,3.720869 0.19866,0.432226 0.77453,1.448887 0.89711,2.319955 0.24325,1.72855 0.6913,3.507512 0.64968,5.201401 -0.0263,1.068676 -0.24258,1.498907 -0.55618,2.323459 -0.41041,1.079074 0.0617,0.529649 -0.86726,1.124131 -0.86454,0.553249 -0.82205,0.497646 -0.88509,1.246889 -0.0241,0.28661 -0.1749,1.484735 0.14219,1.583917 0.65044,0.203445 0.64139,1.083658 1.09083,1.77165 0.65384,1.000891 1.37297,1.23256 1.5833,2.995528 0.15513,1.300251 0.56102,2.435533 0.32618,3.753204 -0.13468,0.7557 -0.14421,0.857413 -0.43758,2.026106 -0.11022,0.439078 -0.31277,1.023202 -0.57624,1.32394 -0.34435,0.393053 -0.60877,0.736349 -1.11982,0.879053 -1.23008,0.343486 -1.31745,0.336626 -1.97461,0.438782 -0.50299,0.07816 -0.84907,0.108919 -1.07477,0.111943 l -1e-5,-3e-5 z"
         style="fill:url(#linearGradient4583);fill-opacity:1;stroke:#000000;stroke-width:0.40000001;stroke-linecap:butt;stroke-linejoin:miter;stroke-miterlimit:4;stroke-opacity:1;stroke-dasharray:none" /><path
         id="path4575"
         d="m 103.88594,64.567214 c 2.65183,0.08217 0.40839,-1.771352 -0.16845,-0.617672 -0.17493,0.349848 -0.41144,0.02552 0.16845,0.617672 z"
         style="fill:url(#linearGradient4585);fill-opacity:1;stroke:#000000;stroke-width:0.40000001;stroke-linecap:butt;stroke-linejoin:miter;stroke-miterlimit:4;stroke-opacity:1;stroke-dasharray:none" /></g><g
       id="g4797"
       transform="translate(35.57631,9.5293687)"><path
         d="m 121.10707,161.63157 0,42.16709"
         style="fill:none;stroke:#000000;stroke-width:0.80000001;stroke-linecap:butt;stroke-linejoin:miter;stroke-miterlimit:10;stroke-opacity:1;stroke-dasharray:0.8, 0.8;stroke-dashoffset:0"
         id="path4741" /><text
         sodipodi:linespacing="125%"
         transform="scale(1,-1)"
         id="text4753"
         y="-152.15227"
         x="118.48182"
         style="font-size:9.60000038px;font-style:normal;font-variant:normal;font-weight:normal;font-stretch:normal;text-indent:0;text-align:start;text-decoration:none;line-height:125%;letter-spacing:normal;word-spacing:normal;text-transform:none;direction:ltr;block-progression:tb;writing-mode:lr-tb;text-anchor:start;color:#000000;fill:#000000;fill-opacity:1;fill-rule:nonzero;stroke:none;stroke-width:1px;marker:none;visibility:visible;display:inline;overflow:visible;enable-background:accumulate;font-family:Arial;-inkscape-font-specification:Arial"
         xml:space="preserve"><tspan
           y="-152.15227"
           x="118.48182"
           id="tspan4757"
           sodipodi:role="line"></tspan></text>
</g><text
       xml:space="preserve"
       style="font-size:9.60000038px;font-style:normal;font-variant:normal;font-weight:normal;font-stretch:normal;text-indent:0;text-align:start;text-decoration:none;line-height:normal;letter-spacing:normal;word-spacing:normal;text-transform:none;direction:ltr;block-progression:tb;writing-mode:lr-tb;text-anchor:start;color:#000000;fill:#000000;fill-opacity:1;fill-rule:nonzero;stroke:none;stroke-width:1px;marker:none;visibility:visible;display:inline;overflow:visible;enable-background:accumulate;font-family:Arial;-inkscape-font-specification:Arial"
       x="13.02347"
       y="-195.84018"
       id="text4765"
       transform="scale(1,-1)"><tspan
         sodipodi:role="line"
         id="tspan4767"
         x="13.02347"
         y="-195.84018">a) Resting state</tspan></text>
<text
       xml:space="preserve"
       style="font-size:9.60000038px;font-style:normal;font-variant:normal;font-weight:normal;font-stretch:normal;text-indent:0;text-align:start;text-decoration:none;line-height:normal;letter-spacing:normal;word-spacing:normal;text-transform:none;direction:ltr;block-progression:tb;writing-mode:lr-tb;text-anchor:start;color:#000000;fill:#000000;fill-opacity:1;fill-rule:nonzero;stroke:none;stroke-width:1px;marker:none;visibility:visible;display:inline;overflow:visible;enable-background:accumulate;font-family:Arial;-inkscape-font-specification:Arial"
       x="12.74222"
       y="-117.53819"
       id="text4782"
       transform="scale(1,-1)"><tspan
         sodipodi:role="line"
         id="tspan4784"
         x="12.74222"
         y="-117.53819">b) Over Threshold</tspan></text>
<g
       id="g4802"
       transform="translate(35.57631,-67.658518)"><path
         id="path4804"
         style="fill:none;stroke:#000000;stroke-width:0.80000001;stroke-linecap:butt;stroke-linejoin:miter;stroke-miterlimit:10;stroke-opacity:1;stroke-dasharray:0.8, 0.8;stroke-dashoffset:0"
         d="m 121.10707,161.63157 0,42.16709" /><text
         xml:space="preserve"
         style="font-size:9.60000038px;font-style:normal;font-variant:normal;font-weight:normal;font-stretch:normal;text-indent:0;text-align:start;text-decoration:none;line-height:125%;letter-spacing:normal;word-spacing:normal;text-transform:none;direction:ltr;block-progression:tb;writing-mode:lr-tb;text-anchor:start;color:#000000;fill:#000000;fill-opacity:1;fill-rule:nonzero;stroke:none;stroke-width:1px;marker:none;visibility:visible;display:inline;overflow:visible;enable-background:accumulate;font-family:Arial;-inkscape-font-specification:Arial"
         x="118.48182"
         y="-152.15227"
         id="text4806"
         transform="scale(1,-1)"
         sodipodi:linespacing="125%"><tspan
           sodipodi:role="line"
           id="tspan4808"
           x="118.48182"
           y="-152.15227"></tspan></text>
</g><g
       transform="translate(35.57631,-146.43463)"
       id="g4810"><path
         d="m 121.10707,161.63157 0,42.16709"
         style="fill:none;stroke:#000000;stroke-width:0.80000001;stroke-linecap:butt;stroke-linejoin:miter;stroke-miterlimit:10;stroke-opacity:1;stroke-dasharray:0.8, 0.8;stroke-dashoffset:0"
         id="path4812" /><text
         sodipodi:linespacing="125%"
         transform="scale(1,-1)"
         id="text4814"
         y="-152.15227"
         x="118.48182"
         style="font-size:9.60000038px;font-style:normal;font-variant:normal;font-weight:normal;font-stretch:normal;text-indent:0;text-align:start;text-decoration:none;line-height:125%;letter-spacing:normal;word-spacing:normal;text-transform:none;direction:ltr;block-progression:tb;writing-mode:lr-tb;text-anchor:start;color:#000000;fill:#000000;fill-opacity:1;fill-rule:nonzero;stroke:none;stroke-width:1px;marker:none;visibility:visible;display:inline;overflow:visible;enable-background:accumulate;font-family:Arial;-inkscape-font-specification:Arial"
         xml:space="preserve"><tspan
           y="-152.15227"
           x="118.48182"
           id="tspan4816"
           sodipodi:role="line"></tspan></text>
</g><g
       id="g4836"
       transform="translate(73.376139,-68.9291)"><path
         d="m 98.236583,183.01403 0,11.4727"
         style="fill:#7f2aff;stroke:#7f2aff;stroke-width:0.80000001;stroke-linecap:butt;stroke-linejoin:miter;stroke-miterlimit:10;stroke-opacity:1;stroke-dasharray:none"
         id="path4838" /><g
         style="fill:#7137c8"
         transform="translate(164.18576,25.542087)"
         id="g4840"><text
           xml:space="preserve"
           style="font-size:9.60000038px;font-style:normal;font-variant:normal;font-weight:normal;font-stretch:normal;text-indent:0;text-align:start;text-decoration:none;line-height:normal;letter-spacing:normal;word-spacing:normal;text-transform:none;direction:ltr;block-progression:tb;writing-mode:lr-tb;text-anchor:start;color:#000000;fill:#7137c8;fill-opacity:1;fill-rule:nonzero;stroke:none;stroke-width:1px;marker:none;visibility:visible;display:inline;overflow:visible;enable-background:accumulate;font-family:Arial;-inkscape-font-specification:Arial"
           x="-72.661507"
           y="-149.27768"
           id="text4842"
           transform="scale(1,-1)"><tspan
             sodipodi:role="line"
             id="tspan4844"
             x="-72.661507"
             y="-149.27768">V</tspan></text>
<text
           xml:space="preserve"
           style="font-size:9.60000038px;font-style:normal;font-variant:normal;font-weight:normal;font-stretch:normal;text-indent:0;text-align:start;text-decoration:none;line-height:normal;letter-spacing:normal;word-spacing:normal;text-transform:none;direction:ltr;block-progression:tb;writing-mode:lr-tb;text-anchor:start;color:#000000;fill:#7137c8;fill-opacity:1;fill-rule:nonzero;stroke:none;stroke-width:1px;marker:none;visibility:visible;display:inline;overflow:visible;enable-background:accumulate;font-family:Arial;-inkscape-font-specification:Arial"
           x="-67.7201"
           y="-147.08609"
           id="text4846"
           transform="scale(1,-1)"><tspan
             sodipodi:role="line"
             id="tspan4848"
             x="-67.7201"
             y="-147.08609">m</tspan></text>
</g></g><g
       transform="translate(73.376139,-147.06992)"
       id="g4850"><path
         id="path4852"
         style="fill:#7f2aff;stroke:#7f2aff;stroke-width:0.80000001;stroke-linecap:butt;stroke-linejoin:miter;stroke-miterlimit:10;stroke-opacity:1;stroke-dasharray:none"
         d="m 98.236583,183.01403 0,11.4727" /><g
         id="g4854"
         transform="translate(164.18576,25.542087)"
         style="fill:#7137c8"><text
           transform="scale(1,-1)"
           id="text4856"
           y="-149.27768"
           x="-72.661507"
           style="font-size:9.60000038px;font-style:normal;font-variant:normal;font-weight:normal;font-stretch:normal;text-indent:0;text-align:start;text-decoration:none;line-height:normal;letter-spacing:normal;word-spacing:normal;text-transform:none;direction:ltr;block-progression:tb;writing-mode:lr-tb;text-anchor:start;color:#000000;fill:#7137c8;fill-opacity:1;fill-rule:nonzero;stroke:none;stroke-width:1px;marker:none;visibility:visible;display:inline;overflow:visible;enable-background:accumulate;font-family:Arial;-inkscape-font-specification:Arial"
           xml:space="preserve"><tspan
             y="-149.27768"
             x="-72.661507"
             id="tspan4858"
             sodipodi:role="line">V</tspan></text>
<text
           transform="scale(1,-1)"
           id="text4860"
           y="-147.08609"
           x="-67.7201"
           style="font-size:9.60000038px;font-style:normal;font-variant:normal;font-weight:normal;font-stretch:normal;text-indent:0;text-align:start;text-decoration:none;line-height:normal;letter-spacing:normal;word-spacing:normal;text-transform:none;direction:ltr;block-progression:tb;writing-mode:lr-tb;text-anchor:start;color:#000000;fill:#7137c8;fill-opacity:1;fill-rule:nonzero;stroke:none;stroke-width:1px;marker:none;visibility:visible;display:inline;overflow:visible;enable-background:accumulate;font-family:Arial;-inkscape-font-specification:Arial"
           xml:space="preserve"><tspan
             y="-147.08609"
             x="-67.7201"
             id="tspan4862"
             sodipodi:role="line">m</tspan></text>
</g></g><text
       transform="scale(1,-1)"
       id="text4864"
       y="-45.238529"
       x="13.370344"
       style="font-size:9.60000038px;font-style:normal;font-variant:normal;font-weight:normal;font-stretch:normal;text-indent:0;text-align:start;text-decoration:none;line-height:normal;letter-spacing:normal;word-spacing:normal;text-transform:none;direction:ltr;block-progression:tb;writing-mode:lr-tb;text-anchor:start;color:#000000;fill:#000000;fill-opacity:1;fill-rule:nonzero;stroke:none;stroke-width:1px;marker:none;visibility:visible;display:inline;overflow:visible;enable-background:accumulate;font-family:Arial;-inkscape-font-specification:Arial"
       xml:space="preserve"><tspan
         y="-45.238529"
         x="13.370344"
         id="tspan4866"
         sodipodi:role="line">c) Over Threshold</tspan><tspan
         y="-33.238529"
         x="13.370344"
         sodipodi:role="line"
         id="tspan4868">    (weaker inputs)</tspan></text>
<flowRoot
       xml:space="preserve"
       id="flowRoot4870"
       style="fill:#000000;stroke:none;stroke-opacity:1;stroke-width:1px;stroke-linejoin:miter;stroke-linecap:butt;font-size:12;font-style:normal;font-variant:normal;font-weight:normal;font-stretch:normal;text-indent:0;text-align:start;text-decoration:none;line-height:normal;letter-spacing:normal;word-spacing:normal;text-transform:none;direction:ltr;block-progression:tb;writing-mode:lr-tb;text-anchor:start;color:#000000;fill-opacity:1;fill-rule:nonzero;marker:none;visibility:visible;display:inline;overflow:visible;enable-background:accumulate;font-family:Arial;-inkscape-font-specification:Arial"><flowRegion
         id="flowRegion4872"><rect
           id="rect4874"
           width="328.76321"
           height="27.396935"
           x="-40.499817"
           y="100.48614" /></flowRegion><flowPara
         id="flowPara4876"></flowPara></flowRoot></g></svg>