<?xml version="1.0" encoding="ISO-8859-1" standalone="yes"?>
<svg width="313.656" height="148.957">
  <defs> 
    <marker id="ArrowEnd" viewBox="0 0 10 10" refX="0" refY="5" 
     markerUnits="strokeWidth" 
     markerWidth="4" 
     markerHeight="3" 
     orient="auto"> 
        <path d="M 0 0 L 10 5 L 0 10 z" /> 
    </marker>
    <marker id="ArrowStart" viewBox="0 0 10 10" refX="10" refY="5" 
     markerUnits="strokeWidth" 
     markerWidth="4" 
     markerHeight="3" 
     orient="auto"> 
        <path d="M 10 0 L 0 5 L 10 10 z" /> 
    </marker> </defs>
<g>
<path style="stroke:#000000; stroke-width:1.9139600000000001; fill:none" d="M 36.8198 117.211C 36.8198 109.812 30.8237 103.816 23.4253 103.816C 16.0269 103.816 10.0308 109.812 10.0308 117.211C 10.0308 124.609 16.0269 130.605 23.4253 130.605C 30.8237 130.605 36.8198 124.609 36.8198 117.211"/>
<path style="stroke:#000000; stroke-width:1.9139600000000001; fill:none" d="M 71.269 117.211C 71.269 109.812 65.2729 103.816 57.8745 103.816C 50.4761 103.816 44.48 109.812 44.48 117.211C 44.48 124.609 50.4761 130.605 57.8745 130.605C 65.2729 130.605 71.269 124.609 71.269 117.211"/>
<path style="stroke:#000000; stroke-width:1.9139600000000001; fill:none" d="M 105.722 117.211C 105.722 109.812 99.7261 103.816 92.3281 103.816C 84.9292 103.816 78.9331 109.812 78.9331 117.211C 78.9331 124.609 84.9292 130.605 92.3281 130.605C 99.7261 130.605 105.722 124.609 105.722 117.211"/>
<path style="stroke:#000000; stroke-width:1.9139600000000001; fill:none" d="M 140.171 117.211C 140.171 109.812 134.175 103.816 126.777 103.816C 119.378 103.816 113.382 109.812 113.382 117.211C 113.382 124.609 119.378 130.605 126.777 130.605C 134.175 130.605 140.171 124.609 140.171 117.211"/>
<path style="stroke:none; fill-rule:evenodd; fill:#000000" d="M 123.956 119.652L 127.21 119.652C 129.339 119.652 130.652 118.062 130.652 115.449C 130.652 112.847 129.355 111.258 127.21 111.258L 123.956 111.258L 123.956 119.652zM 125.058 118.75L 125.058 112.152L 127.031 112.152C 128.683 112.152 129.554 113.285 129.554 115.457C 129.554 117.605 128.683 118.75 127.031 118.75L 125.058 118.75z"/>
<path style="stroke:#000000; stroke-width:1.9139600000000001; fill:none" d="M 71.269 61.7028C 71.269 54.3047 65.2729 48.3088 57.8745 48.3088C 50.4761 48.3088 44.48 54.3047 44.48 61.7028C 44.48 69.1018 50.4761 75.0978 57.8745 75.0978C 65.2729 75.0978 71.269 69.1018 71.269 61.7028"/>
<path style="stroke:none; fill-rule:evenodd; fill:#000000" d="M 60.187 61.0508L 57.855 61.0508L 57.855 58.7108L 57.0581 58.7108L 57.0581 61.0508L 54.6362 61.0508L 54.6362 61.8478L 57.0581 61.8478L 57.0581 64.2617L 57.855 64.2617L 57.855 61.8478L 60.187 61.8478L 60.187 61.0508z"/>
<path style="stroke:#000000; stroke-width:1.9139600000000001; fill:none" d="M 105.722 61.7028C 105.722 54.3047 99.7261 48.3088 92.3281 48.3088C 84.9292 48.3088 78.9331 54.3047 78.9331 61.7028C 78.9331 69.1018 84.9292 75.0978 92.3281 75.0978C 99.7261 75.0978 105.722 69.1018 105.722 61.7028"/>
<path style="stroke:none; fill-rule:evenodd; fill:#000000" d="M 88.9561 61.8518L 94.7531 61.8518L 94.7531 61.0547L 88.9561 61.0547L 88.9561 61.8518z"/>
<path style="stroke:none; fill-rule:evenodd; fill:#000000" d="M 65.9565 92.6518L 60.3589 92.6518L 60.3589 93.4488L 65.9565 93.4488L 65.9565 92.6518zM 65.9565 94.6518L 60.3589 94.6518L 60.3589 95.4488L 65.9565 95.4488L 65.9565 94.6518z"/>
<path style="stroke:#000000; stroke-width:1.9139600000000001; fill:none" d="M 186.109 117.211C 186.109 109.812 180.113 103.816 172.714 103.816C 165.316 103.816 159.32 109.812 159.32 117.211C 159.32 124.609 165.316 130.605 172.714 130.605C 180.113 130.605 186.109 124.609 186.109 117.211"/>
<path style="stroke:#000000; stroke-width:1.9139600000000001; fill:none" d="M 220.558 117.211C 220.558 109.812 214.562 103.816 207.163 103.816C 199.765 103.816 193.769 109.812 193.769 117.211C 193.769 124.609 199.765 130.605 207.163 130.605C 214.562 130.605 220.558 124.609 220.558 117.211"/>
<path style="stroke:#000000; stroke-width:1.9139600000000001; fill:none" d="M 255.011 117.211C 255.011 109.812 249.015 103.816 241.617 103.816C 234.218 103.816 228.222 109.812 228.222 117.211C 228.222 124.609 234.218 130.605 241.617 130.605C 249.015 130.605 255.011 124.609 255.011 117.211"/>
<path style="stroke:#000000; stroke-width:1.9139600000000001; fill:none" d="M 289.46 117.211C 289.46 109.812 283.464 103.816 276.066 103.816C 268.667 103.816 262.671 109.812 262.671 117.211C 262.671 124.609 268.667 130.605 276.066 130.605C 283.464 130.605 289.46 124.609 289.46 117.211"/>
<path style="stroke:none; fill-rule:evenodd; fill:#000000" d="M 273.257 119.652L 276.511 119.652C 278.64 119.652 279.953 118.062 279.953 115.449C 279.953 112.847 278.656 111.258 276.511 111.258L 273.257 111.258L 273.257 119.652zM 274.355 118.75L 274.355 112.152L 276.328 112.152C 277.98 112.152 278.851 113.285 278.851 115.457C 278.851 117.605 277.98 118.75 276.328 118.75L 274.355 118.75z"/>
<path style="stroke:#000000; stroke-width:1.9139600000000001; fill:none" d="M 220.558 23.4258C 220.558 16.0267 214.562 10.0308 207.163 10.0308C 199.765 10.0308 193.769 16.0267 193.769 23.4258C 193.769 30.8238 199.765 36.8198 207.163 36.8198C 214.562 36.8198 220.558 30.8238 220.558 23.4258"/>
<path style="stroke:none; fill-rule:evenodd; fill:#000000" d="M 209.488 22.7498L 207.156 22.7498L 207.156 20.4098L 206.359 20.4098L 206.359 22.7498L 203.937 22.7498L 203.937 23.5468L 206.359 23.5468L 206.359 25.9608L 207.156 25.9608L 207.156 23.5468L 209.488 23.5468L 209.488 22.7498z"/>
<path style="stroke:#000000; stroke-width:1.9139600000000001; fill:none" d="M 255.011 23.4258C 255.011 16.0267 249.015 10.0308 241.617 10.0308C 234.218 10.0308 228.222 16.0267 228.222 23.4258C 228.222 30.8238 234.218 36.8198 241.617 36.8198C 249.015 36.8198 255.011 30.8238 255.011 23.4258"/>
<path style="stroke:none; fill-rule:evenodd; fill:#000000" d="M 238.257 23.5508L 244.054 23.5508L 244.054 22.7538L 238.257 22.7538L 238.257 23.5508z"/>
<path style="stroke:#000000; stroke-width:1.9139600000000001; fill:none" d="M 186.109 69.3587C 186.109 61.9608 180.113 55.9648 172.714 55.9648C 165.316 55.9648 159.32 61.9608 159.32 69.3587C 159.32 76.7578 165.316 82.7538 172.714 82.7538C 180.113 82.7538 186.109 76.7578 186.109 69.3587"/>
<path style="stroke:none; fill-rule:evenodd; fill:#000000" d="M 169.999 70.2498L 170.859 72.7498L 172.05 72.7498L 169.113 64.3518L 167.738 64.3518L 164.753 72.7498L 165.89 72.7498L 166.773 70.2498L 169.999 70.2498zM 169.703 69.3518L 167.042 69.3518L 168.417 65.5308L 169.703 69.3518z"/>
<path style="stroke:none; fill-rule:evenodd; fill:#000000" d="M 179.859 66.9768C 179.523 65.1478 178.46 64.2538 176.609 64.2538C 175.476 64.2538 174.562 64.6087 173.941 65.3008C 173.179 66.1288 172.765 67.3238 172.765 68.6838C 172.765 70.0618 173.191 71.2498 173.988 72.0658C 174.632 72.7337 175.464 73.0428 176.566 73.0428C 178.624 73.0428 179.781 71.9297 180.035 69.6908L 178.929 69.6908C 178.839 70.2808 178.726 70.6838 178.55 71.0308C 178.206 71.7418 177.492 72.1448 176.593 72.1448C 174.925 72.1448 173.867 70.7928 173.867 68.6678C 173.867 66.4878 174.878 65.1478 176.503 65.1478C 177.183 65.1478 177.816 65.3587 178.16 65.6838C 178.468 65.9728 178.64 66.3358 178.769 66.9688L 179.859 66.9768z"/>
<path style="stroke:#000000; stroke-width:1.9139600000000001; fill:none" d="M 220.558 69.3587C 220.558 61.9608 214.562 55.9648 207.163 55.9648C 199.765 55.9648 193.769 61.9608 193.769 69.3587C 193.769 76.7578 199.765 82.7538 207.163 82.7538C 214.562 82.7538 220.558 76.7578 220.558 69.3587"/>
<path style="stroke:none; fill-rule:evenodd; fill:#000000" d="M 200.355 72.7498L 204.163 72.7498C 204.96 72.7498 205.55 72.5308 206.003 72.0508C 206.417 71.6128 206.652 71.0158 206.652 70.3587C 206.652 69.3478 206.179 68.7337 205.081 68.3238C 205.847 67.9688 206.253 67.3478 206.253 66.4958C 206.253 65.8867 206.027 65.3478 205.585 64.9528C 205.148 64.5508 204.574 64.3668 203.765 64.3668L 200.355 64.3668L 200.355 72.7498zM 201.456 68.0508L 201.456 65.2538L 203.496 65.2538C 204.085 65.2538 204.413 65.3358 204.695 65.5658C 204.988 65.8047 205.148 66.1678 205.148 66.6517C 205.148 67.1208 204.992 67.4958 204.695 67.7378C 204.413 67.9648 204.085 68.0508 203.496 68.0508L 201.456 68.0508zM 201.456 71.8518L 201.456 68.9528L 204.054 68.9528C 204.566 68.9528 204.91 69.0778 205.163 69.3548C 205.413 69.6208 205.55 69.9878 205.55 70.4058C 205.55 70.8088 205.413 71.1797 205.163 71.4408C 204.913 71.7148 204.57 71.8438 204.054 71.8438L 201.456 71.8518z"/>
<path style="stroke:none; fill-rule:evenodd; fill:#000000" d="M 214.757 66.9768C 214.421 65.1478 213.359 64.2538 211.507 64.2538C 210.374 64.2538 209.46 64.6087 208.839 65.3008C 208.078 66.1288 207.663 67.3238 207.663 68.6838C 207.663 70.0618 208.089 71.2498 208.886 72.0658C 209.531 72.7337 210.363 73.0428 211.464 73.0428C 213.523 73.0428 214.679 71.9297 214.933 69.6908L 213.828 69.6908C 213.738 70.2808 213.624 70.6838 213.449 71.0308C 213.105 71.7418 212.39 72.1448 211.492 72.1448C 209.824 72.1448 208.765 70.7928 208.765 68.6678C 208.765 66.4878 209.777 65.1478 211.402 65.1478C 212.081 65.1478 212.714 65.3587 213.058 65.6838C 213.367 65.9728 213.538 66.3358 213.667 66.9688L 214.757 66.9768z"/>
<path style="stroke:#000000; stroke-width:1.9139600000000001; fill:none" d="M 255.011 69.3587C 255.011 61.9608 249.015 55.9648 241.617 55.9648C 234.218 55.9648 228.222 61.9608 228.222 69.3587C 228.222 76.7578 234.218 82.7538 241.617 82.7538C 249.015 82.7538 255.011 76.7578 255.011 69.3587"/>
<path style="stroke:none; fill-rule:evenodd; fill:#000000" d="M 238.898 70.2498L 239.757 72.7498L 240.949 72.7498L 238.011 64.3518L 236.636 64.3518L 233.652 72.7498L 234.788 72.7498L 235.671 70.2498L 238.898 70.2498zM 238.601 69.3518L 235.941 69.3518L 237.316 65.5308L 238.601 69.3518z"/>
<path style="stroke:none; fill-rule:evenodd; fill:#000000" d="M 242.156 72.7498L 245.41 72.7498C 247.538 72.7498 248.851 71.1598 248.851 68.5468C 248.851 65.9448 247.554 64.3548 245.41 64.3548L 242.156 64.3548L 242.156 72.7498zM 243.257 71.8518L 243.257 65.2538L 245.23 65.2538C 246.882 65.2538 247.753 66.3867 247.753 68.5588C 247.753 70.7068 246.882 71.8518 245.23 71.8518L 243.257 71.8518z"/>
<path style="stroke:#000000; stroke-width:1.9139600000000001; fill:none" d="M 289.46 69.3587C 289.46 61.9608 283.464 55.9648 276.066 55.9648C 268.667 55.9648 262.671 61.9608 262.671 69.3587C 262.671 76.7578 268.667 82.7538 276.066 82.7538C 283.464 82.7538 289.46 76.7578 289.46 69.3587"/>
<path style="stroke:none; fill-rule:evenodd; fill:#000000" d="M 269.355 72.7498L 273.163 72.7498C 273.96 72.7498 274.55 72.5308 275.003 72.0508C 275.417 71.6128 275.652 71.0158 275.652 70.3587C 275.652 69.3478 275.179 68.7337 274.081 68.3238C 274.847 67.9688 275.253 67.3478 275.253 66.4958C 275.253 65.8867 275.027 65.3478 274.585 64.9528C 274.148 64.5508 273.574 64.3668 272.765 64.3668L 269.355 64.3668L 269.355 72.7498zM 270.456 68.0508L 270.456 65.2538L 272.496 65.2538C 273.085 65.2538 273.413 65.3358 273.695 65.5658C 273.988 65.8047 274.148 66.1678 274.148 66.6517C 274.148 67.1208 273.992 67.4958 273.695 67.7378C 273.413 67.9648 273.085 68.0508 272.496 68.0508L 270.456 68.0508zM 270.456 71.8518L 270.456 68.9528L 273.054 68.9528C 273.566 68.9528 273.91 69.0778 274.163 69.3548C 274.413 69.6208 274.55 69.9878 274.55 70.4058C 274.55 70.8088 274.413 71.1797 274.163 71.4408C 273.913 71.7148 273.57 71.8438 273.054 71.8438L 270.456 71.8518z"/>
<path style="stroke:none; fill-rule:evenodd; fill:#000000" d="M 277.058 72.7498L 280.312 72.7498C 282.441 72.7498 283.753 71.1598 283.753 68.5468C 283.753 65.9448 282.456 64.3548 280.312 64.3548L 277.058 64.3548L 277.058 72.7498zM 278.156 71.8518L 278.156 65.2538L 280.128 65.2538C 281.781 65.2538 282.652 66.3867 282.652 68.5588C 282.652 70.7068 281.781 71.8518 280.128 71.8518L 278.156 71.8518z"/>
<path style="stroke:#000000; stroke-width:1.9139600000000001; fill:none" d="M 172.71 103.812L 172.71 82.7618"/>
<path style="stroke:#000000; stroke-width:1.9139600000000001; fill:none" d="M 170.796 90.4138L 172.706 82.7618L 174.617 90.4138"/>
<path style="stroke:#000000; stroke-width:1.9139600000000001; fill:none" d="M 241.613 103.812L 207.163 82.7618"/>
<path style="stroke:#000000; stroke-width:1.9139600000000001; fill:none" d="M 212.695 88.3828L 207.163 82.7578L 214.691 85.1128"/>
<path style="stroke:#000000; stroke-width:1.9139600000000001; fill:none" d="M 276.066 103.812L 276.066 82.7618"/>
<path style="stroke:#000000; stroke-width:1.9139600000000001; fill:none" d="M 274.152 90.4138L 276.062 82.7618L 277.972 90.4138"/>
<path style="stroke:#000000; stroke-width:1.9139600000000001; fill:none" d="M 276.062 103.812L 241.613 82.7618"/>
<path style="stroke:#000000; stroke-width:1.9139600000000001; fill:none" d="M 247.148 88.3828L 241.617 82.7578L 249.144 85.1128"/>
<path style="stroke:none; fill-rule:evenodd; fill:#000000" d="M 176.456 113.875C 176.12 112.047 175.058 111.152 173.206 111.152C 172.074 111.152 171.16 111.508 170.538 112.199C 169.777 113.027 169.363 114.222 169.363 115.582C 169.363 116.961 169.788 118.148 170.585 118.965C 171.23 119.633 172.062 119.941 173.163 119.941C 175.222 119.941 176.378 118.828 176.632 116.59L 175.527 116.59C 175.437 117.179 175.324 117.582 175.148 117.929C 174.804 118.64 174.089 119.043 173.191 119.043C 171.523 119.043 170.464 117.691 170.464 115.566C 170.464 113.386 171.476 112.047 173.101 112.047C 173.781 112.047 174.413 112.258 174.757 112.582C 175.066 112.871 175.238 113.234 175.367 113.867L 176.456 113.875z"/>
<path style="stroke:none; fill-rule:evenodd; fill:#000000" d="M 208.8 117.152L 209.66 119.652L 210.851 119.652L 207.913 111.254L 206.538 111.254L 203.554 119.652L 204.691 119.652L 205.574 117.152L 208.8 117.152zM 208.499 116.25L 205.839 116.25L 207.214 112.429L 208.499 116.25z"/>
<path style="stroke:none; fill-rule:evenodd; fill:#000000" d="M 238.656 119.652L 242.464 119.652C 243.261 119.652 243.851 119.433 244.304 118.953C 244.718 118.515 244.953 117.918 244.953 117.261C 244.953 116.25 244.48 115.636 243.382 115.226C 244.148 114.871 244.554 114.25 244.554 113.398C 244.554 112.789 244.328 112.25 243.886 111.855C 243.449 111.453 242.874 111.269 242.066 111.269L 238.656 111.269L 238.656 119.652zM 239.757 114.953L 239.757 112.156L 241.796 112.156C 242.386 112.156 242.714 112.238 242.996 112.469C 243.288 112.707 243.449 113.07 243.449 113.554C 243.449 114.023 243.292 114.398 242.996 114.64C 242.714 114.867 242.386 114.953 241.796 114.953L 239.757 114.953zM 239.757 118.75L 239.757 115.851L 242.355 115.851C 242.867 115.851 243.21 115.976 243.464 116.254C 243.714 116.519 243.851 116.886 243.851 117.304C 243.851 117.707 243.714 118.078 243.464 118.34C 243.214 118.613 242.87 118.742 242.355 118.742L 239.757 118.75z"/>
<path style="stroke:#000000; stroke-width:1.9139600000000001; fill:none" d="M 241.613 103.812L 276.062 82.7618"/>
<path style="stroke:#000000; stroke-width:1.9139600000000001; fill:none" d="M 268.535 85.1168L 276.062 82.7618L 270.531 88.3868"/>
<path style="stroke:#000000; stroke-width:1.9139600000000001; fill:none" d="M 207.16 103.812L 241.609 82.7618"/>
<path style="stroke:#000000; stroke-width:1.9139600000000001; fill:none" d="M 234.081 85.1168L 241.609 82.7618L 236.078 88.3868"/>
<path style="stroke:#000000; stroke-width:1.9139600000000001; fill:none" d="M 207.16 103.812L 172.71 82.7618"/>
<path style="stroke:#000000; stroke-width:1.9139600000000001; fill:none" d="M 178.246 88.3828L 172.714 82.7578L 180.242 85.1128"/>
<path style="stroke:#000000; stroke-width:1.9139600000000001; fill:none" d="M 172.71 103.812L 207.16 82.7618"/>
<path style="stroke:#000000; stroke-width:1.9139600000000001; fill:none" d="M 199.632 85.1168L 207.16 82.7618L 201.628 88.3868"/>
<path style="stroke:#000000; stroke-width:1.9139600000000001; fill:none" d="M 172.71 55.9648L 207.16 36.8278"/>
<path style="stroke:#000000; stroke-width:1.9139600000000001; fill:none" d="M 199.538 38.8668L 207.156 36.8238L 201.394 42.2148"/>
<path style="stroke:#000000; stroke-width:1.9139600000000001; fill:none" d="M 207.16 55.9648L 241.609 36.8278"/>
<path style="stroke:#000000; stroke-width:1.9139600000000001; fill:none" d="M 233.992 38.8668L 241.609 36.8238L 235.847 42.2148"/>
<path style="stroke:#000000; stroke-width:1.9139600000000001; fill:none" d="M 241.613 55.9648L 241.613 36.8278"/>
<path style="stroke:#000000; stroke-width:1.9139600000000001; fill:none" d="M 239.699 44.4798L 241.609 36.8278L 243.519 44.4798"/>
<path style="stroke:#000000; stroke-width:1.9139600000000001; fill:none" d="M 276.062 55.9648L 207.163 36.8278"/>
<path style="stroke:#000000; stroke-width:1.9139600000000001; fill:none" d="M 214.027 40.7148L 207.163 36.8238L 215.05 37.0267"/>
<path style="stroke:none; fill-rule:evenodd; fill:#000000" d="M 27.1597 113.875C 26.8237 112.047 25.7612 111.152 23.9097 111.152C 22.7769 111.152 21.8628 111.508 21.2417 112.199C 20.48 113.027 20.0659 114.222 20.0659 115.582C 20.0659 116.961 20.4917 118.148 21.2886 118.965C 21.9331 119.633 22.7651 119.941 23.8667 119.941C 25.9253 119.941 27.0815 118.828 27.3354 116.59L 26.23 116.59C 26.1401 117.179 26.0269 117.582 25.8511 117.929C 25.5073 118.64 24.7925 119.043 23.894 119.043C 22.2261 119.043 21.1675 117.691 21.1675 115.566C 21.1675 113.386 22.1792 112.047 23.8042 112.047C 24.4839 112.047 25.1167 112.258 25.4604 112.582C 25.769 112.871 25.9409 113.234 26.0698 113.867L 27.1597 113.875z"/>
<path style="stroke:none; fill-rule:evenodd; fill:#000000" d="M 59.4995 117.152L 60.3589 119.652L 61.5503 119.652L 58.6128 111.254L 57.2378 111.254L 54.2534 119.652L 55.3901 119.652L 56.2729 117.152L 59.4995 117.152zM 59.2026 116.25L 56.5425 116.25L 57.9175 112.429L 59.2026 116.25z"/>
<path style="stroke:none; fill-rule:evenodd; fill:#000000" d="M 89.3551 119.652L 93.1631 119.652C 93.9601 119.652 94.5501 119.433 95.0031 118.953C 95.4171 118.515 95.6521 117.918 95.6521 117.261C 95.6521 116.25 95.1791 115.636 94.0811 115.226C 94.8471 114.871 95.2531 114.25 95.2531 113.398C 95.2531 112.789 95.0271 112.25 94.5851 111.855C 94.1481 111.453 93.5741 111.269 92.7651 111.269L 89.3551 111.269L 89.3551 119.652zM 90.4561 114.953L 90.4561 112.156L 92.4961 112.156C 93.0851 112.156 93.4131 112.238 93.6951 112.469C 93.9881 112.707 94.1481 113.07 94.1481 113.554C 94.1481 114.023 93.9921 114.398 93.6951 114.64C 93.4131 114.867 93.0851 114.953 92.4961 114.953L 90.4561 114.953zM 90.4561 118.75L 90.4561 115.851L 93.0541 115.851C 93.5661 115.851 93.9101 115.976 94.1631 116.254C 94.4131 116.519 94.5501 116.886 94.5501 117.304C 94.5501 117.707 94.4131 118.078 94.1631 118.34C 93.9131 118.613 93.5701 118.742 93.0541 118.742L 90.4561 118.75z"/>
<path style="stroke:#000000; stroke-width:1.9139600000000001; fill:none" d="M 57.8706 103.812L 57.8706 75.1048"/>
<path style="stroke:#000000; stroke-width:1.9139600000000001; fill:none" d="M 55.9604 82.7578L 57.8706 75.1048L 59.7808 82.7578"/>
<path style="stroke:#000000; stroke-width:1.9139600000000001; fill:none" d="M 57.8706 103.812L 92.3201 75.1048"/>
<path style="stroke:#000000; stroke-width:1.9139600000000001; fill:none" d="M 85.2183 78.5308L 92.3241 75.1018L 87.6711 81.4688"/>
<path style="stroke:none; fill-rule:evenodd; fill:#000000" d="M 15.1987 145.89C 15.0933 145.953 15.0464 145.953 14.9878 145.953C 14.6479 145.953 14.4604 145.781 14.4604 145.48L 14.4604 141.914C 14.4604 140.84 13.6831 140.258 12.2104 140.258C 11.3433 140.258 10.6245 140.511 10.2222 140.961C 9.94866 141.269 9.83536 141.617 9.81196 142.219L 10.7573 142.219C 10.8354 141.488 11.2612 141.16 12.144 141.16C 12.9878 141.16 13.4604 141.48 13.4604 142.058L 13.4604 142.312C 13.4604 142.715 13.2261 142.886 12.4839 142.98C 11.1597 143.152 10.9565 143.199 10.5972 143.347C 9.91356 143.633 9.56586 144.176 9.56586 144.961C 9.56586 146.054 10.3198 146.746 11.5347 146.746C 12.2886 146.746 12.894 146.472 13.5698 145.828C 13.6362 146.461 13.9331 146.746 14.5542 146.746C 14.7456 146.746 14.894 146.722 15.2026 146.64L 15.1987 145.89zM 13.4565 144.59C 13.4565 144.918 13.3706 145.121 13.0893 145.394C 12.7104 145.758 12.2534 145.949 11.7065 145.949C 10.9839 145.949 10.562 145.586 10.562 144.957C 10.562 144.308 10.9722 143.976 11.9643 143.824C 12.9448 143.683 13.144 143.636 13.4565 143.48L 13.4565 144.59z"/>
<path style="stroke:none; fill-rule:evenodd; fill:#000000" d="M 16.5151 148.886C 17.644 147.379 18.355 145.285 18.355 143.48C 18.355 141.664 17.644 139.57 16.5151 138.058L 15.8979 138.058C 16.9019 139.703 17.4604 141.636 17.4604 143.48C 17.4604 145.308 16.9019 147.254 15.8979 148.886L 16.5151 148.886z"/>
<path style="stroke:none; fill-rule:evenodd; fill:#000000" d="M 24.5581 142.652L 29.1167 142.652L 29.1167 141.754L 24.5581 141.754L 24.5581 138.957L 29.2573 138.957L 29.2573 138.058L 23.4604 138.058L 23.4604 146.457L 29.4604 146.457L 29.4604 145.558L 24.562 145.558L 24.5581 142.652z"/>
<path style="stroke:none; fill-rule:evenodd; fill:#000000" d="M 30.9565 146.453L 31.9565 146.453L 31.9565 138.054L 30.9565 138.054L 30.9565 146.453z"/>
<path style="stroke:none; fill-rule:evenodd; fill:#000000" d="M 38.5581 143.75C 38.5581 142.832 38.4917 142.281 38.3198 141.836C 37.9331 140.851 37.019 140.254 35.9019 140.254C 34.2378 140.254 33.1636 141.547 33.1636 143.535C 33.1636 145.523 34.1987 146.75 35.8745 146.75C 37.2378 146.75 38.187 145.957 38.4253 144.625L 37.4722 144.625C 37.2104 145.429 36.6792 145.847 35.9175 145.847C 35.3159 145.847 34.8042 145.57 34.4878 145.054C 34.2612 144.707 34.1831 144.355 34.1714 143.75L 38.5581 143.75zM 34.1362 142.984C 34.2143 141.871 34.894 141.148 35.8589 141.148C 36.8003 141.148 37.5229 141.926 37.5229 142.914C 37.5229 142.933 37.5229 142.957 37.5151 142.98L 34.1362 142.984z"/>
<path style="stroke:none; fill-rule:evenodd; fill:#000000" d="M 39.855 140.426L 39.855 146.449L 40.855 146.449L 40.855 142.64C 40.855 141.761 41.48 141.054 42.2495 141.054C 42.9526 141.054 43.3511 141.492 43.3511 142.269L 43.3511 146.449L 44.3511 146.449L 44.3511 142.64C 44.3511 141.761 44.9761 141.054 45.7456 141.054C 46.437 141.054 46.8472 141.504 46.8472 142.269L 46.8472 146.449L 47.8472 146.449L 47.8472 141.929C 47.8472 140.851 47.2261 140.25 46.0933 140.25C 45.2886 140.25 44.8003 140.492 44.2378 141.176C 43.8823 140.527 43.3979 140.25 42.6128 140.25C 41.8081 140.25 41.2769 140.547 40.7573 141.273L 40.7573 140.426L 39.855 140.426z"/>
<path style="stroke:none; fill-rule:evenodd; fill:#000000" d="M 54.5581 143.75C 54.5581 142.832 54.4917 142.281 54.3198 141.836C 53.9331 140.851 53.019 140.254 51.9019 140.254C 50.2378 140.254 49.1636 141.547 49.1636 143.535C 49.1636 145.523 50.1987 146.75 51.8745 146.75C 53.2378 146.75 54.187 145.957 54.4253 144.625L 53.4722 144.625C 53.2104 145.429 52.6792 145.847 51.9175 145.847C 51.3159 145.847 50.8042 145.57 50.4878 145.054C 50.2612 144.707 50.1831 144.355 50.1714 143.75L 54.5581 143.75zM 50.1362 142.984C 50.2143 141.871 50.894 141.148 51.8589 141.148C 52.8003 141.148 53.5229 141.926 53.5229 142.914C 53.5229 142.933 53.5229 142.957 53.5151 142.98L 50.1362 142.984z"/>
<path style="stroke:none; fill-rule:evenodd; fill:#000000" d="M 55.855 140.426L 55.855 146.449L 56.855 146.449L 56.855 143.101C 56.855 141.863 57.48 141.051 58.4448 141.051C 59.1831 141.051 59.6519 141.511 59.6519 142.242L 59.6519 146.445L 60.6519 146.445L 60.6519 141.894C 60.6519 140.894 59.9097 140.25 58.7495 140.25C 57.8589 140.25 57.2847 140.594 56.7573 141.433L 56.7573 140.422L 55.855 140.426z"/>
<path style="stroke:none; fill-rule:evenodd; fill:#000000" d="M 64.2573 140.453L 63.3589 140.453L 63.3589 138.785L 62.3589 138.785L 62.3589 140.453L 61.4604 140.453L 61.4604 141.25L 62.3589 141.25L 62.3589 145.797C 62.3589 146.402 62.7612 146.746 63.4917 146.746C 63.7143 146.746 63.9409 146.722 64.2534 146.664L 64.2534 145.828C 64.1401 145.918 64.0034 145.945 63.8354 145.945C 63.4604 145.945 63.355 145.832 63.355 145.402L 63.355 141.25L 64.2534 141.25L 64.2573 140.453z"/>
<path style="stroke:none; fill-rule:evenodd; fill:#000000" d="M 70.6987 145.89C 70.5933 145.953 70.5464 145.953 70.4878 145.953C 70.1479 145.953 69.9604 145.781 69.9604 145.48L 69.9604 141.914C 69.9604 140.84 69.1831 140.258 67.7104 140.258C 66.8433 140.258 66.1245 140.511 65.7222 140.961C 65.4487 141.269 65.3354 141.617 65.312 142.219L 66.2573 142.219C 66.3354 141.488 66.7612 141.16 67.644 141.16C 68.4878 141.16 68.9604 141.48 68.9604 142.058L 68.9604 142.312C 68.9604 142.715 68.7261 142.886 67.9839 142.98C 66.6597 143.152 66.4565 143.199 66.0972 143.347C 65.4136 143.633 65.0659 144.176 65.0659 144.961C 65.0659 146.054 65.8198 146.746 67.0347 146.746C 67.7886 146.746 68.394 146.472 69.0698 145.828C 69.1362 146.461 69.4331 146.746 70.0542 146.746C 70.2456 146.746 70.394 146.722 70.7026 146.64L 70.6987 145.89zM 68.9565 144.59C 68.9565 144.918 68.8706 145.121 68.5893 145.394C 68.2104 145.758 67.7534 145.949 67.2065 145.949C 66.4839 145.949 66.062 145.586 66.062 144.957C 66.062 144.308 66.4722 143.976 67.4643 143.824C 68.4448 143.683 68.644 143.636 68.9565 143.48L 68.9565 144.59z"/>
<path style="stroke:none; fill-rule:evenodd; fill:#000000" d="M 71.7573 146.453L 72.7573 146.453L 72.7573 138.054L 71.7573 138.054L 71.7573 146.453z"/>
<path style="stroke:none; fill-rule:evenodd; fill:#000000" d="M 82.9019 145.89C 82.7964 145.953 82.7495 145.953 82.6909 145.953C 82.3511 145.953 82.1636 145.781 82.1636 145.48L 82.1636 141.914C 82.1636 140.84 81.3862 140.258 79.9136 140.258C 79.0464 140.258 78.3276 140.511 77.9253 140.961C 77.6519 141.269 77.5386 141.617 77.5151 142.219L 78.4604 142.219C 78.5386 141.488 78.9643 141.16 79.8472 141.16C 80.6909 141.16 81.1636 141.48 81.1636 142.058L 81.1636 142.312C 81.1636 142.715 80.9292 142.886 80.187 142.98C 78.8628 143.152 78.6597 143.199 78.3003 143.347C 77.6167 143.633 77.269 144.176 77.269 144.961C 77.269 146.054 78.0229 146.746 79.2378 146.746C 79.9917 146.746 80.5972 146.472 81.2729 145.828C 81.3393 146.461 81.6362 146.746 82.2573 146.746C 82.4487 146.746 82.5972 146.722 82.9058 146.64L 82.9019 145.89zM 81.1558 144.59C 81.1558 144.918 81.0698 145.121 80.7886 145.394C 80.4097 145.758 79.9526 145.949 79.4058 145.949C 78.6831 145.949 78.2612 145.586 78.2612 144.957C 78.2612 144.308 78.6714 143.976 79.6636 143.824C 80.644 143.683 80.8433 143.636 81.1558 143.48L 81.1558 144.59z"/>
<path style="stroke:none; fill-rule:evenodd; fill:#000000" d="M 88.0851 142.109C 88.0741 140.922 87.2881 140.254 85.8862 140.254C 84.4761 140.254 83.5581 140.98 83.5581 142.097C 83.5581 143.043 84.0464 143.492 85.4956 143.84L 86.4058 144.058C 87.0811 144.219 87.3511 144.461 87.3511 144.898C 87.3511 145.461 86.7847 145.844 85.9409 145.844C 85.4214 145.844 84.9839 145.695 84.7417 145.437C 84.5933 145.265 84.5229 145.09 84.4683 144.656L 83.4526 144.656C 83.4956 146.066 84.2808 146.746 85.8628 146.746C 87.3861 146.746 88.3551 145.996 88.3551 144.832C 88.3551 143.933 87.8431 143.437 86.6284 143.148L 85.6948 142.929C 84.9019 142.746 84.562 142.492 84.562 142.066C 84.562 141.515 85.0581 141.156 85.8472 141.156C 86.6245 141.156 87.0425 141.484 87.0661 142.113L 88.0851 142.109z"/>
<path style="stroke:none; fill-rule:evenodd; fill:#000000" d="M 93.8861 142.109C 93.8741 140.922 93.0891 140.254 91.6871 140.254C 90.2771 140.254 89.3591 140.98 89.3591 142.097C 89.3591 143.043 89.8471 143.492 91.2961 143.84L 92.2061 144.058C 92.8821 144.219 93.1521 144.461 93.1521 144.898C 93.1521 145.461 92.5851 145.844 91.7421 145.844C 91.2221 145.844 90.7851 145.695 90.5421 145.437C 90.3941 145.265 90.3241 145.09 90.2691 144.656L 89.2531 144.656C 89.2961 146.066 90.0811 146.746 91.6631 146.746C 93.1871 146.746 94.1561 145.996 94.1561 144.832C 94.1561 143.933 93.6441 143.437 92.4291 143.148L 91.4961 142.929C 90.7031 142.746 90.3631 142.492 90.3631 142.066C 90.3631 141.515 90.8591 141.156 91.6481 141.156C 92.4251 141.156 92.8431 141.484 92.8671 142.113L 93.8861 142.109z"/>
<path style="stroke:none; fill-rule:evenodd; fill:#000000" d="M 97.6951 140.25C 95.9921 140.25 94.9601 141.461 94.9601 143.5C 94.9601 145.531 95.9801 146.75 97.7101 146.75C 99.4131 146.75 100.46 145.539 100.46 143.547C 100.46 141.457 99.4531 140.254 97.6991 140.254L 97.6951 140.25zM 97.7061 141.152C 98.8001 141.152 99.4561 142.039 99.4561 143.535C 99.4561 144.949 98.7811 145.847 97.7061 145.847C 96.6241 145.847 95.9601 144.961 95.9601 143.5C 95.9601 142.051 96.6241 141.152 97.7061 141.152z"/>
<path style="stroke:none; fill-rule:evenodd; fill:#000000" d="M 106.367 142.457C 106.324 141.871 106.199 141.488 105.968 141.156C 105.562 140.594 104.843 140.258 104.011 140.258C 102.41 140.258 101.363 141.551 101.363 143.562C 101.363 145.515 102.386 146.754 104.003 146.754C 105.425 146.754 106.324 145.879 106.437 144.39L 105.484 144.39C 105.328 145.367 104.839 145.855 104.031 145.855C 102.988 145.855 102.363 144.992 102.363 143.566C 102.363 142.058 102.972 141.16 104.007 141.16C 104.8 141.16 105.3 141.629 105.413 142.461L 106.367 142.457z"/>
<path style="stroke:none; fill-rule:evenodd; fill:#000000" d="M 108.456 140.453L 107.456 140.453L 107.456 146.453L 108.456 146.453L 108.456 140.453zM 108.456 138.051L 107.456 138.051L 107.456 139.281L 108.456 139.281L 108.456 138.051z"/>
<path style="stroke:none; fill-rule:evenodd; fill:#000000" d="M 115.402 145.89C 115.296 145.953 115.249 145.953 115.191 145.953C 114.851 145.953 114.663 145.781 114.663 145.48L 114.663 141.914C 114.663 140.84 113.886 140.258 112.413 140.258C 111.546 140.258 110.828 140.511 110.425 140.961C 110.152 141.269 110.038 141.617 110.015 142.219L 110.96 142.219C 111.038 141.488 111.464 141.16 112.347 141.16C 113.191 141.16 113.663 141.48 113.663 142.058L 113.663 142.312C 113.663 142.715 113.429 142.886 112.687 142.98C 111.363 143.152 111.16 143.199 110.8 143.347C 110.117 143.633 109.769 144.176 109.769 144.961C 109.769 146.054 110.523 146.746 111.738 146.746C 112.492 146.746 113.097 146.472 113.773 145.828C 113.839 146.461 114.136 146.746 114.757 146.746C 114.949 146.746 115.097 146.722 115.406 146.64L 115.402 145.89zM 113.656 144.59C 113.656 144.918 113.57 145.121 113.288 145.394C 112.91 145.758 112.453 145.949 111.906 145.949C 111.183 145.949 110.761 145.586 110.761 144.957C 110.761 144.308 111.171 143.976 112.163 143.824C 113.144 143.683 113.343 143.636 113.656 143.48L 113.656 144.59z"/>
<path style="stroke:none; fill-rule:evenodd; fill:#000000" d="M 118.558 140.453L 117.66 140.453L 117.66 138.785L 116.66 138.785L 116.66 140.453L 115.761 140.453L 115.761 141.25L 116.66 141.25L 116.66 145.797C 116.66 146.402 117.062 146.746 117.792 146.746C 118.015 146.746 118.242 146.722 118.554 146.664L 118.554 145.828C 118.441 145.918 118.304 145.945 118.136 145.945C 117.761 145.945 117.656 145.832 117.656 145.402L 117.656 141.25L 118.554 141.25L 118.558 140.453z"/>
<path style="stroke:none; fill-rule:evenodd; fill:#000000" d="M 120.558 140.453L 119.558 140.453L 119.558 146.453L 120.558 146.453L 120.558 140.453zM 120.558 138.051L 119.558 138.051L 119.558 139.281L 120.558 139.281L 120.558 138.051z"/>
<path style="stroke:none; fill-rule:evenodd; fill:#000000" d="M 124.496 140.25C 122.792 140.25 121.761 141.461 121.761 143.5C 121.761 145.531 122.781 146.75 124.511 146.75C 126.214 146.75 127.261 145.539 127.261 143.547C 127.261 141.457 126.253 140.254 124.499 140.254L 124.496 140.25zM 124.507 141.152C 125.601 141.152 126.257 142.039 126.257 143.535C 126.257 144.949 125.581 145.847 124.507 145.847C 123.425 145.847 122.761 144.961 122.761 143.5C 122.761 142.051 123.425 141.152 124.507 141.152z"/>
<path style="stroke:none; fill-rule:evenodd; fill:#000000" d="M 128.558 140.426L 128.558 146.449L 129.558 146.449L 129.558 143.101C 129.558 141.863 130.183 141.051 131.148 141.051C 131.886 141.051 132.355 141.511 132.355 142.242L 132.355 146.445L 133.355 146.445L 133.355 141.894C 133.355 140.894 132.613 140.25 131.453 140.25C 130.562 140.25 129.988 140.594 129.46 141.433L 129.46 140.422L 128.558 140.426z"/>
<path style="stroke:none; fill-rule:evenodd; fill:#000000" d="M 139.187 142.109C 139.175 140.922 138.39 140.254 136.988 140.254C 135.578 140.254 134.66 140.98 134.66 142.097C 134.66 143.043 135.148 143.492 136.597 143.84L 137.507 144.058C 138.183 144.219 138.453 144.461 138.453 144.898C 138.453 145.461 137.886 145.844 137.042 145.844C 136.523 145.844 136.085 145.695 135.843 145.437C 135.695 145.265 135.624 145.09 135.57 144.656L 134.554 144.656C 134.597 146.066 135.382 146.746 136.964 146.746C 138.488 146.746 139.456 145.996 139.456 144.832C 139.456 143.933 138.945 143.437 137.73 143.148L 136.796 142.929C 136.003 142.746 135.663 142.492 135.663 142.066C 135.663 141.515 136.16 141.156 136.949 141.156C 137.726 141.156 138.144 141.484 138.167 142.113L 139.187 142.109z"/>
<path style="stroke:none; fill-rule:evenodd; fill:#000000" d="M 158.956 138.051L 158.956 146.449L 159.855 146.449L 159.855 145.679C 160.308 146.402 160.913 146.746 161.749 146.746C 163.324 146.746 164.351 145.441 164.351 143.429C 164.351 141.465 163.37 140.25 161.8 140.25C 160.98 140.25 160.402 140.562 159.956 141.246L 159.956 138.051L 158.956 138.051zM 161.605 141.156C 162.671 141.156 163.359 142.086 163.359 143.519C 163.359 144.883 162.648 145.816 161.605 145.816C 160.597 145.816 159.929 144.898 159.929 143.488C 159.929 142.078 160.593 141.16 161.605 141.16L 161.605 141.156z"/>
<path style="stroke:none; fill-rule:evenodd; fill:#000000" d="M 165.816 148.886C 166.945 147.379 167.656 145.285 167.656 143.48C 167.656 141.664 166.945 139.57 165.816 138.058L 165.199 138.058C 166.203 139.703 166.761 141.636 166.761 143.48C 166.761 145.308 166.203 147.254 165.199 148.886L 165.816 148.886z"/>
<path style="stroke:none; fill-rule:evenodd; fill:#000000" d="M 179.359 140.676C 179.023 138.847 177.96 137.953 176.109 137.953C 174.976 137.953 174.062 138.308 173.441 139C 172.679 139.828 172.265 141.023 172.265 142.383C 172.265 143.761 172.691 144.949 173.488 145.765C 174.132 146.433 174.964 146.742 176.066 146.742C 178.124 146.742 179.281 145.629 179.535 143.39L 178.429 143.39C 178.339 143.98 178.226 144.383 178.05 144.73C 177.706 145.441 176.992 145.844 176.093 145.844C 174.425 145.844 173.367 144.492 173.367 142.367C 173.367 140.187 174.378 138.847 176.003 138.847C 176.683 138.847 177.316 139.058 177.66 139.383C 177.968 139.672 178.14 140.035 178.269 140.668L 179.359 140.676z"/>
<path style="stroke:none; fill-rule:evenodd; fill:#000000" d="M 183.195 140.25C 181.492 140.25 180.46 141.461 180.46 143.5C 180.46 145.531 181.48 146.75 183.21 146.75C 184.913 146.75 185.96 145.539 185.96 143.547C 185.96 141.457 184.953 140.254 183.199 140.254L 183.195 140.25zM 183.206 141.152C 184.3 141.152 184.956 142.039 184.956 143.535C 184.956 144.949 184.281 145.847 183.206 145.847C 182.124 145.847 181.46 144.961 181.46 143.5C 181.46 142.051 182.124 141.152 183.206 141.152z"/>
<path style="stroke:none; fill-rule:evenodd; fill:#000000" d="M 187.257 140.426L 187.257 146.449L 188.257 146.449L 188.257 143.101C 188.257 141.863 188.882 141.051 189.847 141.051C 190.585 141.051 191.054 141.511 191.054 142.242L 191.054 146.445L 192.054 146.445L 192.054 141.894C 192.054 140.894 191.312 140.25 190.152 140.25C 189.261 140.25 188.687 140.594 188.16 141.433L 188.16 140.422L 187.257 140.426z"/>
<path style="stroke:none; fill-rule:evenodd; fill:#000000" d="M 193.656 140.453L 193.656 147.355C 193.656 147.953 193.464 148.148 192.878 148.148C 192.847 148.148 192.847 148.148 192.652 148.148L 192.652 148.914C 192.765 148.933 192.828 148.945 192.98 148.945C 194.081 148.945 194.656 148.511 194.656 147.699L 194.656 140.449L 193.656 140.453zM 194.656 138.051L 193.656 138.051L 193.656 139.25L 194.656 139.25L 194.656 138.051z"/>
<path style="stroke:none; fill-rule:evenodd; fill:#000000" d="M 200.956 146.488L 200.956 140.453L 199.956 140.453L 199.956 143.898C 199.956 145.136 199.312 145.949 198.308 145.949C 197.546 145.949 197.062 145.488 197.062 144.758L 197.062 140.453L 196.062 140.453L 196.062 145.105C 196.062 146.105 196.82 146.75 198.011 146.75C 198.91 146.75 199.484 146.441 200.054 145.648L 200.054 146.488L 200.956 146.488z"/>
<path style="stroke:none; fill-rule:evenodd; fill:#000000" d="M 202.558 140.426L 202.558 146.449L 203.558 146.449L 203.558 143.101C 203.558 141.863 204.183 141.051 205.148 141.051C 205.886 141.051 206.355 141.511 206.355 142.242L 206.355 146.445L 207.355 146.445L 207.355 141.894C 207.355 140.894 206.613 140.25 205.453 140.25C 204.562 140.25 203.988 140.594 203.46 141.433L 203.46 140.422L 202.558 140.426z"/>
<path style="stroke:none; fill-rule:evenodd; fill:#000000" d="M 213.566 142.457C 213.523 141.871 213.398 141.488 213.167 141.156C 212.761 140.594 212.042 140.258 211.21 140.258C 209.609 140.258 208.562 141.551 208.562 143.562C 208.562 145.515 209.585 146.754 211.203 146.754C 212.624 146.754 213.523 145.879 213.636 144.39L 212.683 144.39C 212.527 145.367 212.038 145.855 211.23 145.855C 210.187 145.855 209.562 144.992 209.562 143.566C 209.562 142.058 210.171 141.16 211.206 141.16C 211.999 141.16 212.499 141.629 212.613 142.461L 213.566 142.457z"/>
<path style="stroke:none; fill-rule:evenodd; fill:#000000" d="M 216.757 140.453L 215.859 140.453L 215.859 138.785L 214.859 138.785L 214.859 140.453L 213.96 140.453L 213.96 141.25L 214.859 141.25L 214.859 145.797C 214.859 146.402 215.261 146.746 215.992 146.746C 216.214 146.746 216.441 146.722 216.753 146.664L 216.753 145.828C 216.64 145.918 216.503 145.945 216.335 145.945C 215.96 145.945 215.855 145.832 215.855 145.402L 215.855 141.25L 216.753 141.25L 216.757 140.453z"/>
<path style="stroke:none; fill-rule:evenodd; fill:#000000" d="M 218.757 140.453L 217.757 140.453L 217.757 146.453L 218.757 146.453L 218.757 140.453zM 218.757 138.051L 217.757 138.051L 217.757 139.281L 218.757 139.281L 218.757 138.051z"/>
<path style="stroke:none; fill-rule:evenodd; fill:#000000" d="M 222.929 146.453L 225.234 140.453L 224.156 140.453L 222.456 145.316L 220.851 140.453L 219.773 140.453L 221.882 146.453L 222.929 146.453z"/>
<path style="stroke:none; fill-rule:evenodd; fill:#000000" d="M 231.257 143.75C 231.257 142.832 231.191 142.281 231.019 141.836C 230.632 140.851 229.718 140.254 228.601 140.254C 226.937 140.254 225.863 141.547 225.863 143.535C 225.863 145.523 226.898 146.75 228.574 146.75C 229.937 146.75 230.886 145.957 231.124 144.625L 230.171 144.625C 229.91 145.429 229.378 145.847 228.617 145.847C 228.015 145.847 227.503 145.57 227.187 145.054C 226.96 144.707 226.882 144.355 226.87 143.75L 231.257 143.75zM 226.835 142.984C 226.913 141.871 227.593 141.148 228.558 141.148C 229.499 141.148 230.222 141.926 230.222 142.914C 230.222 142.933 230.222 142.957 230.214 142.98L 226.835 142.984z"/>
<path style="stroke:none; fill-rule:evenodd; fill:#000000" d="M 235.757 140.426L 235.757 146.449L 236.757 146.449L 236.757 143.316C 236.757 142.453 236.968 141.89 237.417 141.554C 237.706 141.336 237.988 141.269 238.64 141.258L 238.64 140.293C 238.484 140.273 238.402 140.261 238.277 140.261C 237.667 140.261 237.203 140.629 236.656 141.527L 236.656 140.437L 235.757 140.426z"/>
<path style="stroke:none; fill-rule:evenodd; fill:#000000" d="M 244.656 143.75C 244.656 142.832 244.589 142.281 244.417 141.836C 244.031 140.851 243.117 140.254 241.999 140.254C 240.335 140.254 239.261 141.547 239.261 143.535C 239.261 145.523 240.296 146.75 241.972 146.75C 243.335 146.75 244.285 145.957 244.523 144.625L 243.57 144.625C 243.308 145.429 242.777 145.847 242.015 145.847C 241.413 145.847 240.902 145.57 240.585 145.054C 240.359 144.707 240.281 144.355 240.269 143.75L 244.656 143.75zM 240.238 142.984C 240.316 141.871 240.996 141.148 241.96 141.148C 242.902 141.148 243.624 141.926 243.624 142.914C 243.624 142.933 243.624 142.957 243.617 142.98L 240.238 142.984z"/>
<path style="stroke:none; fill-rule:evenodd; fill:#000000" d="M 245.757 148.957L 246.757 148.957L 246.757 145.855C 247.257 146.476 247.82 146.754 248.597 146.754C 250.14 146.754 251.156 145.496 251.156 143.562C 251.156 141.527 250.171 140.258 248.574 140.258C 247.761 140.258 247.105 140.625 246.66 141.336L 246.66 140.429L 245.761 140.429L 245.757 148.957zM 248.421 141.152C 249.468 141.152 250.156 142.09 250.156 143.535C 250.156 144.91 249.46 145.847 248.421 145.847C 247.417 145.847 246.757 144.922 246.757 143.5C 246.757 142.078 247.417 141.152 248.421 141.152z"/>
<path style="stroke:none; fill-rule:evenodd; fill:#000000" d="M 252.355 140.426L 252.355 146.449L 253.355 146.449L 253.355 143.316C 253.355 142.453 253.566 141.89 254.015 141.554C 254.304 141.336 254.585 141.269 255.238 141.258L 255.238 140.293C 255.081 140.273 254.999 140.261 254.874 140.261C 254.265 140.261 253.8 140.629 253.253 141.527L 253.253 140.437L 252.355 140.426z"/>
<path style="stroke:none; fill-rule:evenodd; fill:#000000" d="M 261.257 143.75C 261.257 142.832 261.191 142.281 261.019 141.836C 260.632 140.851 259.718 140.254 258.601 140.254C 256.937 140.254 255.863 141.547 255.863 143.535C 255.863 145.523 256.898 146.75 258.574 146.75C 259.937 146.75 260.886 145.957 261.124 144.625L 260.171 144.625C 259.91 145.429 259.378 145.847 258.617 145.847C 258.015 145.847 257.503 145.57 257.187 145.054C 256.96 144.707 256.882 144.355 256.87 143.75L 261.257 143.75zM 256.835 142.984C 256.913 141.871 257.593 141.148 258.558 141.148C 259.499 141.148 260.222 141.926 260.222 142.914C 260.222 142.933 260.222 142.957 260.214 142.98L 256.835 142.984z"/>
<path style="stroke:none; fill-rule:evenodd; fill:#000000" d="M 266.785 142.109C 266.773 140.922 265.988 140.254 264.585 140.254C 263.175 140.254 262.257 140.98 262.257 142.097C 262.257 143.043 262.746 143.492 264.195 143.84L 265.105 144.058C 265.781 144.219 266.05 144.461 266.05 144.898C 266.05 145.461 265.484 145.844 264.64 145.844C 264.12 145.844 263.683 145.695 263.441 145.437C 263.292 145.265 263.222 145.09 263.167 144.656L 262.152 144.656C 262.195 146.066 262.98 146.746 264.562 146.746C 266.085 146.746 267.054 145.996 267.054 144.832C 267.054 143.933 266.542 143.437 265.328 143.148L 264.394 142.929C 263.601 142.746 263.261 142.492 263.261 142.066C 263.261 141.515 263.757 141.156 264.546 141.156C 265.324 141.156 265.742 141.484 265.765 142.113L 266.785 142.109z"/>
<path style="stroke:none; fill-rule:evenodd; fill:#000000" d="M 273.355 143.75C 273.355 142.832 273.288 142.281 273.117 141.836C 272.73 140.851 271.816 140.254 270.699 140.254C 269.035 140.254 267.96 141.547 267.96 143.535C 267.96 145.523 268.996 146.75 270.671 146.75C 272.035 146.75 272.984 145.957 273.222 144.625L 272.269 144.625C 272.007 145.429 271.476 145.847 270.714 145.847C 270.113 145.847 269.601 145.57 269.285 145.054C 269.058 144.707 268.98 144.355 268.968 143.75L 273.355 143.75zM 268.937 142.984C 269.015 141.871 269.695 141.148 270.66 141.148C 271.601 141.148 272.324 141.926 272.324 142.914C 272.324 142.933 272.324 142.957 272.316 142.98L 268.937 142.984z"/>
<path style="stroke:none; fill-rule:evenodd; fill:#000000" d="M 274.656 140.426L 274.656 146.449L 275.656 146.449L 275.656 143.101C 275.656 141.863 276.281 141.051 277.246 141.051C 277.984 141.051 278.453 141.511 278.453 142.242L 278.453 146.445L 279.453 146.445L 279.453 141.894C 279.453 140.894 278.71 140.25 277.55 140.25C 276.66 140.25 276.085 140.594 275.558 141.433L 275.558 140.422L 274.656 140.426z"/>
<path style="stroke:none; fill-rule:evenodd; fill:#000000" d="M 283.156 140.453L 282.257 140.453L 282.257 138.785L 281.257 138.785L 281.257 140.453L 280.359 140.453L 280.359 141.25L 281.257 141.25L 281.257 145.797C 281.257 146.402 281.66 146.746 282.39 146.746C 282.613 146.746 282.839 146.722 283.152 146.664L 283.152 145.828C 283.038 145.918 282.902 145.945 282.734 145.945C 282.359 145.945 282.253 145.832 282.253 145.402L 282.253 141.25L 283.152 141.25L 283.156 140.453z"/>
<path style="stroke:none; fill-rule:evenodd; fill:#000000" d="M 289.601 145.89C 289.496 145.953 289.449 145.953 289.39 145.953C 289.05 145.953 288.863 145.781 288.863 145.48L 288.863 141.914C 288.863 140.84 288.085 140.258 286.613 140.258C 285.746 140.258 285.027 140.511 284.624 140.961C 284.351 141.269 284.238 141.617 284.214 142.219L 285.16 142.219C 285.238 141.488 285.663 141.16 286.546 141.16C 287.39 141.16 287.863 141.48 287.863 142.058L 287.863 142.312C 287.863 142.715 287.628 142.886 286.886 142.98C 285.562 143.152 285.359 143.199 284.999 143.347C 284.316 143.633 283.968 144.176 283.968 144.961C 283.968 146.054 284.722 146.746 285.937 146.746C 286.691 146.746 287.296 146.472 287.972 145.828C 288.038 146.461 288.335 146.746 288.956 146.746C 289.148 146.746 289.296 146.722 289.605 146.64L 289.601 145.89zM 287.855 144.59C 287.855 144.918 287.769 145.121 287.488 145.394C 287.109 145.758 286.652 145.949 286.105 145.949C 285.382 145.949 284.96 145.586 284.96 144.957C 284.96 144.308 285.37 143.976 286.363 143.824C 287.343 143.683 287.542 143.636 287.855 143.48L 287.855 144.59z"/>
<path style="stroke:none; fill-rule:evenodd; fill:#000000" d="M 292.757 140.453L 291.859 140.453L 291.859 138.785L 290.859 138.785L 290.859 140.453L 289.96 140.453L 289.96 141.25L 290.859 141.25L 290.859 145.797C 290.859 146.402 291.261 146.746 291.992 146.746C 292.214 146.746 292.441 146.722 292.753 146.664L 292.753 145.828C 292.64 145.918 292.503 145.945 292.335 145.945C 291.96 145.945 291.855 145.832 291.855 145.402L 291.855 141.25L 292.753 141.25L 292.757 140.453z"/>
<path style="stroke:none; fill-rule:evenodd; fill:#000000" d="M 294.757 140.453L 293.757 140.453L 293.757 146.453L 294.757 146.453L 294.757 140.453zM 294.757 138.051L 293.757 138.051L 293.757 139.281L 294.757 139.281L 294.757 138.051z"/>
<path style="stroke:none; fill-rule:evenodd; fill:#000000" d="M 298.695 140.25C 296.992 140.25 295.96 141.461 295.96 143.5C 295.96 145.531 296.98 146.75 298.71 146.75C 300.413 146.75 301.46 145.539 301.46 143.547C 301.46 141.457 300.453 140.254 298.699 140.254L 298.695 140.25zM 298.706 141.152C 299.8 141.152 300.456 142.039 300.456 143.535C 300.456 144.949 299.781 145.847 298.706 145.847C 297.624 145.847 296.96 144.961 296.96 143.5C 296.96 142.051 297.624 141.152 298.706 141.152z"/>
<path style="stroke:none; fill-rule:evenodd; fill:#000000" d="M 302.757 140.426L 302.757 146.449L 303.757 146.449L 303.757 143.101C 303.757 141.863 304.382 141.051 305.347 141.051C 306.085 141.051 306.554 141.511 306.554 142.242L 306.554 146.445L 307.554 146.445L 307.554 141.894C 307.554 140.894 306.812 140.25 305.652 140.25C 304.761 140.25 304.187 140.594 303.66 141.433L 303.66 140.422L 302.757 140.426z"/>
<path style="stroke:none; fill-rule:evenodd; fill:#000000" d="M 313.386 142.109C 313.374 140.922 312.589 140.254 311.187 140.254C 309.777 140.254 308.859 140.98 308.859 142.097C 308.859 143.043 309.347 143.492 310.796 143.84L 311.706 144.058C 312.382 144.219 312.652 144.461 312.652 144.898C 312.652 145.461 312.085 145.844 311.242 145.844C 310.722 145.844 310.285 145.695 310.042 145.437C 309.894 145.265 309.824 145.09 309.769 144.656L 308.753 144.656C 308.796 146.066 309.581 146.746 311.163 146.746C 312.687 146.746 313.656 145.996 313.656 144.832C 313.656 143.933 313.144 143.437 311.929 143.148L 310.996 142.929C 310.203 142.746 309.863 142.492 309.863 142.066C 309.863 141.515 310.359 141.156 311.148 141.156C 311.925 141.156 312.343 141.484 312.367 142.113L 313.386 142.109z"/>
</g>
</svg>