<?xml version="1.0" encoding="ISO-8859-1" standalone="yes"?>
<svg width="165.457" height="90.1346">
  <defs> 
    <marker id="ArrowEnd" viewBox="0 0 10 10" refX="0" refY="5" 
     markerUnits="strokeWidth" 
     markerWidth="4" 
     markerHeight="3" 
     orient="auto"> 
        <path d="M 0 0 L 10 5 L 0 10 z" /> 
    </marker>
    <marker id="ArrowStart" viewBox="0 0 10 10" refX="10" refY="5" 
     markerUnits="strokeWidth" 
     markerWidth="4" 
     markerHeight="3" 
     orient="auto"> 
        <path d="M 10 0 L 0 5 L 10 10 z" /> 
    </marker> </defs>
<g>
<path style="stroke:#000000; stroke-width:1.9133; fill:none" d="M 32.9804 53.326C 32.9804 46.9862 27.8437 41.8494 21.5039 41.8494C 15.164 41.8494 10.0273 46.9862 10.0273 53.326C 10.0273 59.6659 15.164 64.8026 21.5039 64.8026C 27.8437 64.8026 32.9804 59.6659 32.9804 53.326"/>
<path style="stroke:none; fill-rule:evenodd; fill:#000000" d="M 23.1484 54.2518L 24.0078 56.7518L 25.1992 56.7518L 22.2617 48.3534L 20.8867 48.3534L 17.9023 56.7518L 19.0351 56.7518L 19.9179 54.2518L 23.1484 54.2518zM 22.8515 53.3495L 20.1913 53.3495L 21.5663 49.5292L 22.8515 53.3495z"/>
<path style="stroke:#000000; stroke-width:1.9133; fill:none" d="M 71.246 68.6307C 71.246 62.2909 66.1093 57.1542 59.7695 57.1542C 53.4296 57.1542 48.2929 62.2909 48.2929 68.6307C 48.2929 74.9706 53.4296 80.1073 59.7695 80.1073C 66.1093 80.1073 71.246 74.9706 71.246 68.6307"/>
<path style="stroke:#000000; stroke-width:1.9133; fill:none" d="M 71.246 38.0175C 71.246 31.6776 66.1093 26.5409 59.7695 26.5409C 53.4296 26.5409 48.2929 31.6776 48.2929 38.0175C 48.2929 44.3573 53.4296 49.4939 59.7695 49.4939C 66.1093 49.4939 71.246 44.3573 71.246 38.0175"/>
<path style="stroke:none; fill-rule:evenodd; fill:#000000" d="M 56.8085 41.451L 60.6171 41.451C 61.414 41.451 62.0039 41.2323 62.457 40.7518C 62.871 40.3143 63.1054 39.7167 63.1054 39.0604C 63.1054 38.0487 62.6328 37.4354 61.5312 37.0253C 62.2968 36.6698 62.7031 36.0487 62.7031 35.1971C 62.7031 34.5878 62.4765 34.0487 62.0351 33.6542C 61.5976 33.2518 61.0234 33.0682 60.2148 33.0682L 56.8046 33.0682L 56.8085 41.451zM 57.9101 36.7518L 57.9101 33.9548L 59.9531 33.9548C 60.5429 33.9548 60.871 34.0369 61.1523 34.2675C 61.4453 34.5057 61.6054 34.8689 61.6054 35.3534C 61.6054 35.8221 61.4492 36.1971 61.1523 36.4393C 60.871 36.6659 60.5429 36.7518 59.9531 36.7518L 57.9101 36.7518zM 57.9101 40.5487L 57.9101 37.6503L 60.5078 37.6503C 61.0195 37.6503 61.3632 37.7753 61.6171 38.0526C 61.8671 38.3182 62.0039 38.6854 62.0039 39.1034C 62.0039 39.5057 61.8671 39.8768 61.6171 40.1425C 61.3671 40.4159 61.0234 40.5448 60.5078 40.5448L 57.9101 40.5487z"/>
<path style="stroke:none; fill-rule:evenodd; fill:#000000" d="M 63.5078 66.2753C 63.1718 64.4471 62.1093 63.5526 60.2578 63.5526C 59.1249 63.5526 58.2148 63.9081 57.5898 64.5995C 56.8281 65.4276 56.414 66.6228 56.414 67.9823C 56.414 69.3612 56.8398 70.5487 57.6367 71.3651C 58.2812 72.0331 59.1132 72.3417 60.2109 72.3417C 62.2656 72.3417 63.4218 71.2283 63.6796 68.9901L 62.5742 68.9901C 62.4843 69.5798 62.371 69.9823 62.1953 70.326C 61.8515 71.037 61.1367 71.4393 60.2421 71.4393C 58.5742 71.4393 57.5156 70.0878 57.5156 67.9667C 57.5156 65.787 58.5273 64.4432 60.1523 64.4432C 60.8281 64.4432 61.4648 64.6542 61.8085 64.9783C 62.1171 65.2713 62.289 65.6307 62.4179 66.2635L 63.5078 66.2753z"/>
<path style="stroke:#000000; stroke-width:2.8699499999999998; fill:none" d="M 31.0663 47.5839L 48.2851 41.8456"/>
<path style="stroke:#000000; stroke-width:2.8699499999999998; fill:none" d="M 40.4218 42.451L 48.2851 41.8494L 41.6328 46.0839"/>
<path style="stroke:#000000; stroke-width:1.9133; fill:none" d="M 117.164 53.326C 117.164 46.9862 112.027 41.8494 105.687 41.8494C 99.3481 41.8494 94.2111 46.9862 94.2111 53.326C 94.2111 59.6659 99.3481 64.8026 105.687 64.8026C 112.027 64.8026 117.164 59.6659 117.164 53.326"/>
<path style="stroke:none; fill-rule:evenodd; fill:#000000" d="M 107.348 54.2518L 108.207 56.7518L 109.398 56.7518L 106.461 48.3534L 105.086 48.3534L 102.101 56.7518L 103.234 56.7518L 104.117 54.2518L 107.348 54.2518zM 107.051 53.3495L 104.39 53.3495L 105.765 49.5292L 107.051 53.3495z"/>
<path style="stroke:#000000; stroke-width:1.9133; fill:none" d="M 155.43 68.6307C 155.43 62.2909 150.293 57.1542 143.953 57.1542C 137.613 57.1542 132.476 62.2909 132.476 68.6307C 132.476 74.9706 137.613 80.1073 143.953 80.1073C 150.293 80.1073 155.43 74.9706 155.43 68.6307"/>
<path style="stroke:#000000; stroke-width:1.9133; fill:none" d="M 155.43 38.0175C 155.43 31.6776 150.293 26.5409 143.953 26.5409C 137.613 26.5409 132.476 31.6776 132.476 38.0175C 132.476 44.3573 137.613 49.4939 143.953 49.4939C 150.293 49.4939 155.43 44.3573 155.43 38.0175"/>
<path style="stroke:none; fill-rule:evenodd; fill:#000000" d="M 141.008 41.451L 144.816 41.451C 145.613 41.451 146.203 41.2323 146.656 40.7518C 147.07 40.3143 147.305 39.7167 147.305 39.0604C 147.305 38.0487 146.832 37.4354 145.73 37.0253C 146.496 36.6698 146.902 36.0487 146.902 35.1971C 146.902 34.5878 146.676 34.0487 146.234 33.6542C 145.797 33.2518 145.222 33.0682 144.414 33.0682L 141.004 33.0682L 141.008 41.451zM 142.109 36.7518L 142.109 33.9548L 144.152 33.9548C 144.742 33.9548 145.07 34.0369 145.351 34.2675C 145.644 34.5057 145.805 34.8689 145.805 35.3534C 145.805 35.8221 145.648 36.1971 145.351 36.4393C 145.07 36.6659 144.742 36.7518 144.152 36.7518L 142.109 36.7518zM 142.109 40.5487L 142.109 37.6503L 144.707 37.6503C 145.219 37.6503 145.562 37.7753 145.816 38.0526C 146.066 38.3182 146.203 38.6854 146.203 39.1034C 146.203 39.5057 146.066 39.8768 145.816 40.1425C 145.566 40.4159 145.222 40.5448 144.707 40.5448L 142.109 40.5487z"/>
<path style="stroke:none; fill-rule:evenodd; fill:#000000" d="M 147.707 66.2753C 147.371 64.4471 146.308 63.5526 144.457 63.5526C 143.324 63.5526 142.414 63.9081 141.789 64.5995C 141.027 65.4276 140.613 66.6228 140.613 67.9823C 140.613 69.3612 141.039 70.5487 141.836 71.3651C 142.48 72.0331 143.312 72.3417 144.41 72.3417C 146.465 72.3417 147.621 71.2283 147.879 68.9901L 146.773 68.9901C 146.683 69.5798 146.57 69.9823 146.394 70.326C 146.051 71.037 145.336 71.4393 144.441 71.4393C 142.773 71.4393 141.715 70.0878 141.715 67.9667C 141.715 65.787 142.726 64.4432 144.351 64.4432C 145.027 64.4432 145.664 64.6542 146.008 64.9783C 146.316 65.2713 146.488 65.6307 146.617 66.2635L 147.707 66.2753z"/>
<path style="stroke:#000000; stroke-width:0.95664899999999997; fill:none" d="M 115.254 47.5839L 132.472 41.8456"/>
<path style="stroke:#000000; stroke-width:0.95664899999999997; fill:none" d="M 124.605 42.451L 132.469 41.8494L 125.816 46.0839"/>
<path style="stroke:#000000; stroke-width:2.8699499999999998; fill:none" d="M 115.254 59.0643L 132.472 64.8026"/>
<path style="stroke:#000000; stroke-width:2.8699499999999998; fill:none" d="M 125.816 60.5721L 132.469 64.8065L 124.605 64.2048"/>
<path style="stroke:none; fill-rule:evenodd; fill:#000000" d="M 8.9101 6.75166L 7.8124 6.75166L 7.8124 15.1503L 13.0117 15.1503L 13.0117 14.2517L 8.91401 14.2517L 8.9101 6.75166z"/>
<path style="stroke:none; fill-rule:evenodd; fill:#000000" d="M 15.0078 9.15065L 14.0078 9.15065L 14.0078 15.1503L 15.0078 15.1503L 15.0078 9.15065zM 15.0078 6.75166L 14.0078 6.75166L 14.0078 7.98666L 15.0078 7.98666L 15.0078 6.75166z"/>
<path style="stroke:none; fill-rule:evenodd; fill:#000000" d="M 20.8359 10.8107C 20.8242 9.62265 20.039 8.95065 18.6367 8.95065C 17.2265 8.95065 16.3124 9.67765 16.3124 10.7987C 16.3124 11.7437 16.8007 12.1936 18.2499 12.5406L 19.1601 12.7597C 19.8359 12.9197 20.1054 13.1617 20.1054 13.5997C 20.1054 14.1617 19.539 14.5447 18.6953 14.5447C 18.1757 14.5447 17.7382 14.3967 17.496 14.1386C 17.3476 13.9667 17.2773 13.7906 17.2187 13.3577L 16.2031 13.3577C 16.246 14.7675 17.0312 15.4471 18.6132 15.4471C 20.1367 15.4471 21.1054 14.6971 21.1054 13.5327C 21.1054 12.6347 20.5937 12.1386 19.3789 11.8497L 18.4453 11.6307C 17.6523 11.4467 17.3124 11.1936 17.3124 10.7677C 17.3124 10.2167 17.8085 9.85765 18.5976 9.85765C 19.371 9.85765 19.789 10.1857 19.8124 10.8147L 20.8359 10.8107z"/>
<path style="stroke:none; fill-rule:evenodd; fill:#000000" d="M 24.5078 9.15065L 23.6093 9.15065L 23.6093 7.48265L 22.6093 7.48265L 22.6093 9.15065L 21.7109 9.15065L 21.7109 9.94666L 22.6093 9.94666L 22.6093 14.4937C 22.6093 15.0994 23.0117 15.4432 23.7421 15.4432C 23.9648 15.4432 24.1913 15.4198 24.5039 15.3612L 24.5039 14.5257C 24.3906 14.6151 24.2539 14.6425 24.0859 14.6425C 23.7109 14.6425 23.6054 14.5287 23.6054 14.0997L 23.6054 9.94666L 24.5039 9.94666L 24.5078 9.15065z"/>
<path style="stroke:none; fill-rule:evenodd; fill:#000000" d="M 31.0078 9.38065L 31.0078 15.1464L 32.0078 15.1464L 32.0078 7.04865L 31.3398 7.04865C 30.9843 8.29065 30.7539 8.46265 29.1835 8.65765L 29.1835 9.37666L 31.0078 9.38065z"/>
<path style="stroke:none; fill-rule:evenodd; fill:#000000" d="M 36.8085 13.9507L 35.6093 13.9507L 35.6093 15.1503L 36.8085 15.1503L 36.8085 13.9507zM 36.8085 9.15065L 35.6093 9.15065L 35.6093 10.3497L 36.8085 10.3497L 36.8085 9.15065z"/>
<path style="stroke:none; fill-rule:evenodd; fill:#000000" d="M 46.1484 12.6507L 47.0078 15.1503L 48.1992 15.1503L 45.2617 6.75166L 43.8867 6.75166L 40.9023 15.1503L 42.0351 15.1503L 42.9179 12.6507L 46.1484 12.6507zM 45.8515 11.7517L 43.1913 11.7517L 44.5663 7.93166L 45.8515 11.7517z"/>
<path style="stroke:none; fill-rule:evenodd; fill:#000000" d="M 48.9101 12.8497L 54.707 12.8497L 54.707 12.0527L 48.9101 12.0527L 48.9101 12.8497z"/>
<path style="stroke:none; fill-rule:evenodd; fill:#000000" d="M 61.2968 12.0837L 55.6835 9.70866L 55.6835 10.6147L 60.2031 12.4937L 55.6835 14.3417L 55.6835 15.2479L 61.2968 12.8727L 61.2968 12.0837z"/>
<path style="stroke:none; fill-rule:evenodd; fill:#000000" d="M 62.707 15.1503L 66.5156 15.1503C 67.3124 15.1503 67.9023 14.9314 68.3554 14.4507C 68.7695 14.0136 69.0039 13.4156 69.0039 12.7597C 69.0039 11.7477 68.5312 11.1347 67.4296 10.7247C 68.1953 10.3687 68.6015 9.74765 68.6015 8.89665C 68.6015 8.28665 68.3749 7.74765 67.9335 7.35365C 67.496 6.95065 66.9218 6.76765 66.1132 6.76765L 62.7031 6.76765L 62.707 15.1503zM 63.8085 10.4507L 63.8085 7.65366L 65.8515 7.65366C 66.4413 7.65366 66.7695 7.73666 67.0507 7.96665C 67.3437 8.20465 67.5039 8.56865 67.5039 9.05265C 67.5039 9.52165 67.3476 9.89665 67.0507 10.1386C 66.7695 10.3647 66.4413 10.4507 65.8515 10.4507L 63.8085 10.4507zM 63.8085 14.2517L 63.8085 11.3537L 66.4062 11.3537C 66.9179 11.3537 67.2617 11.4787 67.5156 11.7557C 67.7656 12.0217 67.9023 12.3886 67.9023 12.8067C 67.9023 13.2087 67.7656 13.5797 67.5156 13.8456C 67.2656 14.1187 66.9218 14.2477 66.4062 14.2477L 63.8085 14.2517z"/>
<path style="stroke:none; fill-rule:evenodd; fill:#000000" d="M 95.0081 6.75166L 93.9101 6.75166L 93.9101 15.1503L 99.1091 15.1503L 99.1091 14.2517L 95.0121 14.2517L 95.0081 6.75166z"/>
<path style="stroke:none; fill-rule:evenodd; fill:#000000" d="M 101.109 9.15065L 100.109 9.15065L 100.109 15.1503L 101.109 15.1503L 101.109 9.15065zM 101.109 6.75166L 100.109 6.75166L 100.109 7.98666L 101.109 7.98666L 101.109 6.75166z"/>
<path style="stroke:none; fill-rule:evenodd; fill:#000000" d="M 106.937 10.8107C 106.926 9.62265 106.14 8.95065 104.738 8.95065C 103.328 8.95065 102.414 9.67765 102.414 10.7987C 102.414 11.7437 102.902 12.1936 104.351 12.5406L 105.262 12.7597C 105.937 12.9197 106.207 13.1617 106.207 13.5997C 106.207 14.1617 105.64 14.5447 104.797 14.5447C 104.277 14.5447 103.84 14.3967 103.598 14.1386C 103.449 13.9667 103.379 13.7906 103.32 13.3577L 102.305 13.3577C 102.348 14.7675 103.133 15.4471 104.715 15.4471C 106.238 15.4471 107.207 14.6971 107.207 13.5327C 107.207 12.6347 106.695 12.1386 105.48 11.8497L 104.547 11.6307C 103.754 11.4467 103.414 11.1936 103.414 10.7677C 103.414 10.2167 103.91 9.85765 104.699 9.85765C 105.472 9.85765 105.89 10.1857 105.914 10.8147L 106.937 10.8107z"/>
<path style="stroke:none; fill-rule:evenodd; fill:#000000" d="M 110.609 9.15065L 109.711 9.15065L 109.711 7.48265L 108.711 7.48265L 108.711 9.15065L 107.812 9.15065L 107.812 9.94666L 108.711 9.94666L 108.711 14.4937C 108.711 15.0994 109.113 15.4432 109.844 15.4432C 110.066 15.4432 110.293 15.4198 110.605 15.3612L 110.605 14.5257C 110.492 14.6151 110.355 14.6425 110.187 14.6425C 109.812 14.6425 109.707 14.5287 109.707 14.0997L 109.707 9.94666L 110.605 9.94666L 110.609 9.15065z"/>
<path style="stroke:none; fill-rule:evenodd; fill:#000000" d="M 119.851 14.1507L 115.625 14.1507C 115.726 13.4897 116.09 13.0686 117.074 12.4867L 118.207 11.8727C 119.328 11.2597 119.906 10.4237 119.906 9.43166C 119.906 8.75965 119.637 8.13065 119.16 7.69666C 118.687 7.26365 118.098 7.06065 117.336 7.06065C 116.316 7.06065 115.558 7.41965 115.117 8.09966C 114.836 8.52866 114.711 9.02565 114.687 9.84165L 115.687 9.84165C 115.719 9.31065 115.789 8.98666 115.926 8.72865C 116.187 8.25166 116.711 7.95866 117.312 7.95866C 118.222 7.95866 118.906 8.60765 118.906 9.47466C 118.906 10.1106 118.531 10.6577 117.812 11.0686L 116.765 11.6577C 115.082 12.6106 114.59 13.3767 114.5 15.1542L 119.851 15.1542L 119.851 14.1507z"/>
<path style="stroke:none; fill-rule:evenodd; fill:#000000" d="M 122.91 13.9507L 121.711 13.9507L 121.711 15.1503L 122.91 15.1503L 122.91 13.9507zM 122.91 9.15065L 121.711 9.15065L 121.711 10.3497L 122.91 10.3497L 122.91 9.15065z"/>
<path style="stroke:none; fill-rule:evenodd; fill:#000000" d="M 132.25 12.6507L 133.109 15.1503L 134.301 15.1503L 131.363 6.75166L 129.988 6.75166L 127.004 15.1503L 128.137 15.1503L 129.019 12.6507L 132.25 12.6507zM 131.953 11.7517L 129.293 11.7517L 130.668 7.93166L 131.953 11.7517z"/>
<path style="stroke:none; fill-rule:evenodd; fill:#000000" d="M 135.008 12.8497L 140.805 12.8497L 140.805 12.0527L 135.008 12.0527L 135.008 12.8497z"/>
<path style="stroke:none; fill-rule:evenodd; fill:#000000" d="M 147.394 12.0837L 141.781 9.70866L 141.781 10.6147L 146.301 12.4937L 141.781 14.3417L 141.781 15.2479L 147.394 12.8727L 147.394 12.0837z"/>
<path style="stroke:none; fill-rule:evenodd; fill:#000000" d="M 155.508 9.37666C 155.172 7.54865 154.109 6.65366 152.258 6.65366C 151.125 6.65366 150.215 7.00965 149.59 7.70065C 148.828 8.52866 148.414 9.72466 148.414 11.0837C 148.414 12.4627 148.84 13.6507 149.637 14.4667C 150.281 15.1346 151.113 15.4432 152.211 15.4432C 154.265 15.4432 155.422 14.3297 155.68 12.0917L 154.574 12.0917C 154.484 12.6817 154.371 13.0837 154.195 13.4277C 153.851 14.1386 153.137 14.5406 152.242 14.5406C 150.574 14.5406 149.515 13.1897 149.515 11.0686C 149.515 8.88865 150.527 7.54465 152.152 7.54465C 152.828 7.54465 153.465 7.75565 153.808 8.07965C 154.117 8.37265 154.289 8.73265 154.418 9.36465L 155.508 9.37666z"/>
<path style="stroke:#000000; stroke-dasharray:6,3; stroke-width:0.95664899999999997; fill:none" d="M 83.4411 5.01365L 83.4411 81.5448"/>
</g>
</svg>