<?xml version="1.0" encoding="ISO-8859-1" standalone="yes"?>
<svg width="184.659" height="90.8742">
  <defs> 
    <marker id="ArrowEnd" viewBox="0 0 10 10" refX="0" refY="5" 
     markerUnits="strokeWidth" 
     markerWidth="4" 
     markerHeight="3" 
     orient="auto"> 
        <path d="M 0 0 L 10 5 L 0 10 z" /> 
    </marker>
    <marker id="ArrowStart" viewBox="0 0 10 10" refX="10" refY="5" 
     markerUnits="strokeWidth" 
     markerWidth="4" 
     markerHeight="3" 
     orient="auto"> 
        <path d="M 10 0 L 0 5 L 10 10 z" /> 
    </marker> </defs>
<g>
<path style="stroke:none; fill-rule:evenodd; fill:#ffffff" d="M 13.8589 32.9959L 40.6519 32.9959L 40.6519 10.0308L 13.8589 10.0308L 13.8589 32.9959z"/>
<path style="stroke:#000000; stroke-width:1.9139600000000001; fill:none" d="M 13.8589 32.9959L 40.6519 32.9959L 40.6519 10.0308L 13.8589 10.0308L 13.8589 32.9959z"/>
<path style="stroke:none; fill-rule:evenodd; fill:#000000" d="M 27.3784 19.1404L 27.3784 24.906L 28.3784 24.906L 28.3784 16.8088L 27.7105 16.8088C 27.355 18.0545 27.1245 18.2263 25.5542 18.4177L 25.5542 19.1365L 27.3784 19.1404z"/>
<path style="stroke:none; fill-rule:evenodd; fill:#ffffff" d="M 32.9995 38.7341L 59.7925 38.7341L 59.7925 15.7688L 32.9995 15.7688L 32.9995 38.7341z"/>
<path style="stroke:#000000; stroke-width:1.9139600000000001; fill:none" d="M 32.9995 38.7341L 59.7925 38.7341L 59.7925 15.7688L 32.9995 15.7688L 32.9995 38.7341z"/>
<path style="stroke:none; fill-rule:evenodd; fill:#000000" d="M 48.023 28.2068L 48.8823 30.7068L 50.0738 30.7068L 47.1362 22.3084L 45.7612 22.3084L 42.7769 30.7068L 43.9136 30.7068L 44.7964 28.2068L 48.023 28.2068zM 47.7222 27.3084L 45.062 27.3084L 46.437 23.488L 47.7222 27.3084z"/>
<path style="stroke:none; fill-rule:evenodd; fill:#ffffff" d="M 52.1402 44.4763L 78.9331 44.4763L 78.9331 21.5115L 52.1402 21.5115L 52.1402 44.4763z"/>
<path style="stroke:#000000; stroke-width:1.9139600000000001; fill:none" d="M 52.1402 44.4763L 78.9331 44.4763L 78.9331 21.5115L 52.1402 21.5115L 52.1402 44.4763z"/>
<path style="stroke:none; fill-rule:evenodd; fill:#000000" d="M 66.1675 32.1013L 68.9917 28.0115L 67.7183 28.0115L 65.562 31.3201L 63.4175 28.0115L 62.1206 28.0115L 64.898 32.1013L 61.937 36.4099L 63.2339 36.4099L 65.5269 32.9216L 67.812 36.4099L 69.1323 36.4099L 66.1675 32.1013z"/>
<path style="stroke:none; fill-rule:evenodd; fill:#000000" d="M 65.7769 14.6088L 68.5073 14.6088C 69.4488 14.6088 69.8706 15.0658 69.8706 16.0978L 69.8706 16.8398C 69.8706 17.3552 69.9566 17.8591 70.105 18.2029L 71.3667 18.2029L 71.3667 17.9412C 70.9722 17.6677 70.8941 17.367 70.8706 16.2498C 70.8589 14.8708 70.6402 14.4528 69.7261 14.0618C 70.6831 13.6018 71.0698 13.0158 71.0698 12.0588C 71.0698 10.6088 70.1636 9.81177 68.523 9.81177L 64.6714 9.81177L 64.6714 18.2107L 65.7691 18.2107L 65.7769 14.6088zM 65.7144 13.6598L 65.7144 10.7808L 68.2964 10.7808C 68.8902 10.7808 69.2339 10.8708 69.4995 11.1018C 69.7847 11.3398 69.9331 11.7188 69.9331 12.2268C 69.9331 13.2108 69.4292 13.6598 68.2925 13.6598L 65.7144 13.6598z"/>
<path style="stroke:none; fill-rule:evenodd; fill:#ffffff" d="M 71.2769 50.2185L 98.07 50.2185L 98.07 27.2537L 71.2769 27.2537L 71.2769 50.2185z"/>
<path style="stroke:#000000; stroke-width:1.9139600000000001; fill:none" d="M 71.2769 50.2185L 98.07 50.2185L 98.07 27.2537L 71.2769 27.2537L 71.2769 50.2185z"/>
<path style="stroke:none; fill-rule:evenodd; fill:#000000" d="M 82.1792 42.2068L 85.9878 42.2068C 86.7847 42.2068 87.3745 41.988 87.8277 41.5076C 88.2417 41.0701 88.4761 40.4724 88.4761 39.8162C 88.4761 38.8045 88.0034 38.1912 86.9058 37.781C 87.6714 37.4256 88.0777 36.8045 88.0777 35.9529C 88.0777 35.3435 87.8511 34.8045 87.4097 34.4099C 86.9722 34.0076 86.398 33.824 85.5894 33.824L 82.1792 33.824L 82.1792 42.2068zM 83.2769 37.5076L 83.2769 34.7107L 85.3159 34.7107C 85.9058 34.7107 86.2339 34.7927 86.5152 35.0232C 86.8081 35.2615 86.9683 35.6248 86.9683 36.1091C 86.9683 36.5779 86.812 36.9529 86.5152 37.1951C 86.2339 37.4216 85.9058 37.5076 85.3159 37.5076L 83.2769 37.5076zM 83.2769 41.3084L 83.2769 38.4099L 85.8745 38.4099C 86.3862 38.4099 86.73 38.5349 86.9839 38.8123C 87.2339 39.0779 87.3706 39.4451 87.3706 39.863C 87.3706 40.2654 87.2339 40.6365 86.9839 40.8982C 86.7339 41.1716 86.3902 41.3006 85.8745 41.3006L 83.2769 41.3084z"/>
<path style="stroke:none; fill-rule:evenodd; fill:#ffffff" d="M 90.418 55.9607L 117.21 55.9607L 117.21 32.9959L 90.418 32.9959L 90.418 55.9607z"/>
<path style="stroke:#000000; stroke-width:1.9139600000000001; fill:none" d="M 90.418 55.9607L 117.21 55.9607L 117.21 32.9959L 90.418 32.9959L 90.418 55.9607z"/>
<path style="stroke:none; fill-rule:evenodd; fill:#000000" d="M 104.468 43.6013L 107.292 39.5115L 106.019 39.5115L 103.863 42.8201L 101.718 39.5115L 100.421 39.5115L 103.199 43.6013L 100.238 47.9099L 101.535 47.9099L 103.828 44.4216L 106.113 47.9099L 107.433 47.9099L 104.468 43.6013z"/>
<path style="stroke:none; fill-rule:evenodd; fill:#ffffff" d="M 109.558 61.7029L 136.351 61.7029L 136.351 38.738L 109.558 38.738L 109.558 61.7029z"/>
<path style="stroke:#000000; stroke-width:1.9139600000000001; fill:none" d="M 109.558 61.7029L 136.351 61.7029L 136.351 38.738L 109.558 38.738L 109.558 61.7029z"/>
<path style="stroke:none; fill-rule:evenodd; fill:#ffffff" d="M 128.695 67.4451L 155.488 67.4451L 155.488 44.4802L 128.695 44.4802L 128.695 67.4451z"/>
<path style="stroke:#000000; stroke-width:1.9139600000000001; fill:none" d="M 128.695 67.4451L 155.488 67.4451L 155.488 44.4802L 128.695 44.4802L 128.695 67.4451z"/>
<path style="stroke:none; fill-rule:evenodd; fill:#000000" d="M 139.679 59.4099L 143.488 59.4099C 144.285 59.4099 144.875 59.1912 145.328 58.7107C 145.742 58.2732 145.976 57.6756 145.976 57.0193C 145.976 56.0076 145.503 55.3943 144.406 54.9841C 145.171 54.6287 145.578 54.0076 145.578 53.156C 145.578 52.5466 145.351 52.0076 144.91 51.613C 144.472 51.2107 143.898 51.0271 143.089 51.0271L 139.679 51.0271L 139.679 59.4099zM 140.777 54.7068L 140.777 51.9099L 142.816 51.9099C 143.406 51.9099 143.734 51.992 144.015 52.2224C 144.308 52.4607 144.468 52.824 144.468 53.3084C 144.468 53.7771 144.312 54.1521 144.015 54.3943C 143.734 54.6209 143.406 54.7068 142.816 54.7068L 140.777 54.7068zM 140.777 58.5076L 140.777 55.6091L 143.375 55.6091C 143.886 55.6091 144.23 55.7341 144.484 56.0115C 144.734 56.2771 144.871 56.6443 144.871 57.0623C 144.871 57.4646 144.734 57.8357 144.484 58.0974C 144.234 58.3709 143.89 58.4998 143.375 58.4998L 140.777 58.5076z"/>
<path style="stroke:none; fill-rule:evenodd; fill:#000000" d="M 125.918 52.6091L 121.613 52.6091C 121.714 51.949 122.085 51.5271 123.089 50.9451L 124.242 50.3318C 125.382 49.7185 125.972 48.8826 125.972 47.8904C 125.972 47.2185 125.695 46.5896 125.21 46.156C 124.726 45.7224 124.125 45.5193 123.351 45.5193C 122.316 45.5193 121.539 45.8787 121.089 46.5584C 120.804 46.988 120.675 47.4841 120.652 48.2966L 121.675 48.2966C 121.707 47.7654 121.777 47.4412 121.918 47.1834C 122.183 46.7068 122.718 46.4177 123.339 46.4177C 124.269 46.4177 124.968 47.0662 124.968 47.9295C 124.968 48.5662 124.585 49.113 123.851 49.5232L 122.781 50.113C 121.058 51.0662 120.558 51.8318 120.464 53.6091L 125.914 53.6091L 125.918 52.6091z"/>
<path style="stroke:none; fill-rule:evenodd; fill:#ffffff" d="M 147.835 73.1873L 174.628 73.1873L 174.628 50.2224L 147.835 50.2224L 147.835 73.1873z"/>
<path style="stroke:#000000; stroke-width:1.9139600000000001; fill:none" d="M 147.835 73.1873L 174.628 73.1873L 174.628 50.2224L 147.835 50.2224L 147.835 73.1873z"/>
<path style="stroke:none; fill-rule:evenodd; fill:#000000" d="M 161.48 43.3084L 164.21 43.3084C 165.152 43.3084 165.574 43.7654 165.574 44.7966L 165.574 45.5388C 165.574 46.0545 165.66 46.5584 165.808 46.9021L 167.07 46.9021L 167.07 46.6404C 166.675 46.367 166.597 46.0662 166.574 44.949C 166.562 43.5701 166.343 43.1521 165.429 42.7615C 166.386 42.3006 166.773 41.7146 166.773 40.7576C 166.773 39.3084 165.867 38.5115 164.226 38.5115L 160.375 38.5115L 160.375 46.9099L 161.472 46.9099L 161.48 43.3084zM 161.414 42.3591L 161.414 39.4802L 163.996 39.4802C 164.589 39.4802 164.933 39.5701 165.199 39.8006C 165.484 40.0388 165.632 40.4177 165.632 40.9256C 165.632 41.9099 165.128 42.3591 163.992 42.3591L 161.414 42.3591z"/>
<path style="stroke:none; fill-rule:evenodd; fill:#000000" d="M 161.878 61.8123L 164.968 56.7107L 163.695 56.7107L 161.308 60.8123L 158.855 56.7107L 157.535 56.7107L 160.785 61.8123L 160.785 65.1052L 161.882 65.1052L 161.878 61.8123z"/>
<path style="stroke:none; fill-rule:evenodd; fill:#000000" d="M 65.7105 58.0935L 64.7691 57.8084L 65.2456 56.2263L 64.3355 55.9529L 63.8589 57.5349L 63.0816 57.3006L 62.8589 58.0466L 63.6362 58.281L 62.3198 62.6326C 62.1441 63.2146 62.437 63.6638 63.1519 63.8787C 63.3706 63.9412 63.5972 63.988 63.9214 64.0271L 64.1519 63.2576C 64.023 63.2537 63.8784 63.2224 63.7027 63.1716C 63.3081 63.0545 63.2339 62.9099 63.355 62.5037L 64.5464 58.5584L 65.4878 58.8435L 65.7105 58.0935z"/>
<path style="stroke:none; fill-rule:evenodd; fill:#000000" d="M 67.5698 58.6482L 66.6597 58.3748L 64.9175 64.1326L 65.8277 64.406L 67.5698 58.6482zM 68.2495 56.3943L 67.3277 56.117L 66.98 57.2693L 67.9019 57.5466L 68.2495 56.3943z"/>
<path style="stroke:none; fill-rule:evenodd; fill:#000000" d="M 69.1909 59.1834L 67.4488 64.9412L 68.3706 65.2185L 69.4644 61.6052C 69.7144 60.7732 70.523 60.2849 71.2691 60.5115C 71.9488 60.7146 72.2066 61.2498 71.9839 61.988L 70.7847 65.9529L 71.7066 66.2302L 72.8003 62.617C 73.0503 61.7849 73.8589 61.2966 74.605 61.5232C 75.273 61.7224 75.5386 62.2732 75.3198 62.9998L 74.1206 66.9646L 75.0425 67.242L 76.3472 62.9256C 76.6597 61.8943 76.2417 61.1443 75.1636 60.8162C 74.398 60.5857 73.8628 60.6756 73.1284 61.1599C 72.9761 60.4412 72.5933 60.0388 71.8472 59.8123C 71.0816 59.5818 70.4878 59.7146 69.7847 60.2537L 70.0269 59.4412L 69.1909 59.1834z"/>
<path style="stroke:none; fill-rule:evenodd; fill:#000000" d="M 82.1948 66.6443C 82.4605 65.7654 82.5542 65.2185 82.5191 64.742C 82.4331 63.6873 81.7261 62.8474 80.6519 62.5232C 79.0503 62.0388 77.6441 62.9529 77.0698 64.8435C 76.4995 66.7341 77.1441 68.199 78.7612 68.6873C 80.0777 69.0857 81.2144 68.617 81.8277 67.4334L 80.9058 67.156C 80.4253 67.8357 79.7886 68.074 79.0542 67.8513C 78.4722 67.6756 78.0581 67.2615 77.898 66.6873C 77.7808 66.2927 77.8042 65.9373 77.9605 65.367L 82.1948 66.6443zM 78.1988 64.617C 78.5972 63.574 79.4527 63.0818 80.3784 63.3591C 81.2769 63.6287 81.7456 64.5857 81.4566 65.531C 81.4527 65.5506 81.4448 65.574 81.4292 65.5896L 78.1988 64.617z"/>
<path style="stroke:#000000; stroke-width:1.9139600000000001; fill:none" d="M 10.0308 34.9099L 163.144 80.8435"/>
<path style="stroke:#000000; stroke-width:1.9139600000000001; fill:none" d="M 156.367 76.8123L 163.148 80.8435L 155.269 80.4802"/>
<path style="stroke:none; fill-rule:evenodd; fill:#000000" d="M 27.7769 4.40977L 33.5738 4.40977L 33.5738 3.61276L 27.7769 3.61276L 27.7769 4.40977z"/>
<path style="stroke:none; fill-rule:evenodd; fill:#000000" d="M 44.98 10.2068L 50.7769 10.2068L 50.7769 9.40977L 44.98 9.40977L 44.98 10.2068z"/>
<path style="stroke:none; fill-rule:evenodd; fill:#000000" d="M 83.2769 21.7107L 89.074 21.7107L 89.074 20.9138L 83.2769 20.9138L 83.2769 21.7107z"/>
<path style="stroke:none; fill-rule:evenodd; fill:#000000" d="M 102.378 27.4099L 108.175 27.4099L 108.175 26.613L 102.378 26.613L 102.378 27.4099z"/>
<path style="stroke:none; fill-rule:evenodd; fill:#000000" d="M 121.578 33.2107L 127.375 33.2107L 127.375 32.4138L 121.578 32.4138L 121.578 33.2107z"/>
<path style="stroke:none; fill-rule:evenodd; fill:#000000" d="M 140.679 38.9099L 146.476 38.9099L 146.476 38.113L 140.679 38.113L 140.679 38.9099z"/>
</g>
</svg>