<?xml version="1.0" encoding="UTF-8" standalone="no"?>
<svg
   xmlns:dc="http://purl.org/dc/elements/1.1/"
   xmlns:cc="http://creativecommons.org/ns#"
   xmlns:rdf="http://www.w3.org/1999/02/22-rdf-syntax-ns#"
   xmlns:svg="http://www.w3.org/2000/svg"
   xmlns="http://www.w3.org/2000/svg"
   xmlns:sodipodi="http://sodipodi.sourceforge.net/DTD/sodipodi-0.dtd"
   xmlns:inkscape="http://www.inkscape.org/namespaces/inkscape"
   version="1.1"
   width="400px"
   height="400px"
   viewBox="0 0 1000.0 1000.0"
   id="svg3559"
   inkscape:version="0.91 r13725"
   sodipodi:docname="example_detrimental.svg"
   inkscape:export-filename="/Users/rohrlich/svn_exp/objrec_interference/series_1/data/example_detrimental.png"
   inkscape:export-xdpi="150"
   inkscape:export-ydpi="150">
  <metadata
     id="metadata3655">
    <rdf:RDF>
      <cc:Work
         rdf:about="">
        <dc:format>image/svg+xml</dc:format>
        <dc:type
           rdf:resource="http://purl.org/dc/dcmitype/StillImage" />
      </cc:Work>
    </rdf:RDF>
  </metadata>
  <defs
     id="defs3653" />
  <sodipodi:namedview
     pagecolor="#ffffff"
     bordercolor="#666666"
     borderopacity="1"
     objecttolerance="10"
     gridtolerance="10"
     guidetolerance="10"
     inkscape:pageopacity="0"
     inkscape:pageshadow="2"
     inkscape:window-width="1486"
     inkscape:window-height="868"
     id="namedview3651"
     showgrid="false"
     inkscape:zoom="1.7"
     inkscape:cx="2e+02"
     inkscape:cy="2e+02"
     inkscape:window-x="0"
     inkscape:window-y="0"
     inkscape:window-maximized="0"
     inkscape:current-layer="svg3559" />
  <path
     stroke="#000000"
     stroke-width="2"
     fill="none"
     d="M 264.4,726.1 L 264.4,171.9 L 818.7,171.9 L 818.7,726.1 L 264.4,726.1 "
     id="path3561" />
  <g
     id="g3563">
    <text
       x="541.6"
       y="801.0"
       font-family="Arial"
       font-size="28.0"
       fill="#000000"
       text-anchor="middle"
       id="text3565">
Degree of Degradation
</text>
    <text
       x="289.6"
       y="773.3"
       font-family="Arial"
       font-size="28.0"
       fill="#000000"
       text-anchor="middle"
       id="text3567">
Maximum
</text>
    <text
       x="793.5"
       y="773.3"
       font-family="Arial"
       font-size="28.0"
       fill="#000000"
       text-anchor="middle"
       id="text3569">
Minimum
</text>
    <path
       stroke="#000000"
       stroke-width="2"
       fill="none"
       d="M 264.4,726.1 L 818.7,726.1 M 289.6,740.0 L 289.6,712.3 M 415.6,740.0 L 415.6,712.3 M 541.6,740.0 L 541.6,712.3 M 667.5,740.0 L 667.5,712.3 M 793.5,740.0 L 793.5,712.3 "
       id="path3571" />
    <path
       stroke="#000000"
       stroke-width="2"
       fill="none"
       d="M 264.4,171.9 L 818.7,171.9 M 289.6,185.7 L 289.6,158.0 M 415.6,185.7 L 415.6,158.0 M 541.6,185.7 L 541.6,158.0 M 667.5,185.7 L 667.5,158.0 M 793.5,185.7 L 793.5,158.0 "
       id="path3573" />
    <text
       x="245.0"
       y="737.2"
       font-family="Arial"
       font-size="28.0"
       fill="#000000"
       text-anchor="end"
       id="text3575">
10
</text>
    <text
       x="245.0"
       y="667.9"
       font-family="Arial"
       font-size="28.0"
       fill="#000000"
       text-anchor="end"
       id="text3577">
20
</text>
    <text
       x="245.0"
       y="598.7"
       font-family="Arial"
       font-size="28.0"
       fill="#000000"
       text-anchor="end"
       id="text3579">
30
</text>
    <text
       x="245.0"
       y="529.4"
       font-family="Arial"
       font-size="28.0"
       fill="#000000"
       text-anchor="end"
       id="text3581">
40
</text>
    <text
       x="245.0"
       y="460.1"
       font-family="Arial"
       font-size="28.0"
       fill="#000000"
       text-anchor="end"
       id="text3583">
50
</text>
    <text
       x="245.0"
       y="390.8"
       font-family="Arial"
       font-size="28.0"
       fill="#000000"
       text-anchor="end"
       id="text3585">
60
</text>
    <text
       x="245.0"
       y="321.5"
       font-family="Arial"
       font-size="28.0"
       fill="#000000"
       text-anchor="end"
       id="text3587">
70
</text>
    <text
       x="245.0"
       y="252.2"
       font-family="Arial"
       font-size="28.0"
       fill="#000000"
       text-anchor="end"
       id="text3589">
80
</text>
    <text
       x="245.0"
       y="183.0"
       font-family="Arial"
       font-size="28.0"
       fill="#000000"
       text-anchor="end"
       id="text3591">
90
</text>
    <path
       stroke="#000000"
       stroke-width="2"
       fill="none"
       d="M 264.4,726.1 L 264.4,171.9 M 250.6,726.1 L 278.3,726.1 M 250.6,656.9 L 278.3,656.9 M 250.6,587.6 L 278.3,587.6 M 250.6,518.3 L 278.3,518.3 M 250.6,449.0 L 278.3,449.0 M 250.6,379.7 L 278.3,379.7 M 250.6,310.4 L 278.3,310.4 M 250.6,241.2 L 278.3,241.2 M 250.6,171.9 L 278.3,171.9 "
       id="path3593" />
    <path
       stroke="#000000"
       stroke-width="2"
       fill="none"
       d="M 818.7,726.1 L 818.7,171.9 M 804.8,726.1 L 832.6,726.1 M 804.8,656.9 L 832.6,656.9 M 804.8,587.6 L 832.6,587.6 M 804.8,518.3 L 832.6,518.3 M 804.8,449.0 L 832.6,449.0 M 804.8,379.7 L 832.6,379.7 M 804.8,310.4 L 832.6,310.4 M 804.8,241.2 L 832.6,241.2 M 804.8,171.9 L 832.6,171.9 "
       id="path3595" />
  </g>
  <g
     transform="translate(0.0,-616.0)"
     id="g3597">
    <g
       transform="translate(0.0,-0.0)"
       id="g3599">
      <path
         stroke="#000000"
         stroke-width="1"
         fill="none"
         d="M 264.4,726.1 L 297.7,726.1 "
         id="path3601" />
      <text
         x="303.2"
         y="737.2"
         font-family="Arial"
         font-size="22.4"
         fill="#000000"
         text-anchor="start"
         id="text3603">
deg 5
</text>
    </g>
    <g
       transform="translate(100.8,-0.0)"
       id="g3605">
      <path
         stroke="#ff0000"
         stroke-width="1"
         fill="none"
         d="M 264.4,726.1 L 297.7,726.1 "
         id="path3607" />
      <text
         x="303.2"
         y="737.2"
         font-family="Arial"
         font-size="22.4"
         fill="#ff0000"
         text-anchor="start"
         id="text3609">
deg 4
</text>
    </g>
    <g
       transform="translate(201.6,-0.0)"
       id="g3611">
      <path
         stroke="#0000ff"
         stroke-width="1"
         fill="none"
         d="M 264.4,726.1 L 297.7,726.1 "
         id="path3613" />
      <text
         x="303.2"
         y="737.2"
         font-family="Arial"
         font-size="22.4"
         fill="#0000ff"
         text-anchor="start"
         id="text3615">
deg 3
</text>
    </g>
    <g
       transform="translate(302.4,-0.0)"
       id="g3617">
      <path
         stroke="#218b21"
         stroke-width="1"
         fill="none"
         d="M 264.4,726.1 L 297.7,726.1 "
         id="path3619" />
      <text
         x="303.2"
         y="737.2"
         font-family="Arial"
         font-size="22.4"
         fill="#218b21"
         text-anchor="start"
         id="text3621">
deg 2
</text>
    </g>
    <g
       transform="translate(403.2,-0.0)"
       id="g3623">
      <path
         stroke="#a020f0"
         stroke-width="1"
         fill="none"
         d="M 264.4,726.1 L 297.7,726.1 "
         id="path3625" />
      <text
         x="303.2"
         y="737.2"
         font-family="Arial"
         font-size="22.4"
         fill="#a020f0"
         text-anchor="start"
         id="text3627">
deg 1
</text>
    </g>
  </g>
  <g
     id="g3629">
    <path
       stroke="#000000"
       stroke-width="1"
       fill="none"
       d="M 289.6,613.6  L 415.6,555.8 L 541.6,515.4 L 667.5,425.9 L 793.5,371.1 "
       id="path3631" />
    <path
       stroke="#000000"
       stroke-width="1"
       fill="none"
       d="M 295.2,613.6 L 294.8,611.4 L 293.6,609.6 L 291.8,608.4 L 289.6,608.0 L 287.5,608.4 L 285.7,609.6 L 284.5,611.4 L 284.1,613.6 L 284.5,615.7 L 285.7,617.5 L 287.5,618.7 L 289.6,619.1 L 291.8,618.7 L 293.6,617.5 L 294.8,615.7 L 295.2,613.6 M 421.1,555.8 L 420.7,553.7 L 419.5,551.9 L 417.7,550.7 L 415.6,550.3 L 413.5,550.7 L 411.7,551.9 L 410.5,553.7 L 410.1,555.8 L 410.5,557.9 L 411.7,559.7 L 413.5,560.9 L 415.6,561.4 L 417.7,560.9 L 419.5,559.7 L 420.7,557.9 L 421.1,555.8 M 547.1,515.4 L 546.7,513.3 L 545.5,511.5 L 543.7,510.3 L 541.6,509.9 L 539.4,510.3 L 537.7,511.5 L 536.4,513.3 L 536.0,515.4 L 536.4,517.5 L 537.7,519.3 L 539.4,520.5 L 541.6,520.9 L 543.7,520.5 L 545.5,519.3 L 546.7,517.5 L 547.1,515.4 M 673.1,425.9 L 672.7,423.8 L 671.5,422.0 L 669.7,420.8 L 667.5,420.4 L 665.4,420.8 L 663.6,422.0 L 662.4,423.8 L 662.0,425.9 L 662.4,428.0 L 663.6,429.8 L 665.4,431.0 L 667.5,431.5 L 669.7,431.0 L 671.5,429.8 L 672.7,428.0 L 673.1,425.9 M 799.1,371.1 L 798.6,368.9 L 797.4,367.1 L 795.6,365.9 L 793.5,365.5 L 791.4,365.9 L 789.6,367.1 L 788.4,368.9 L 788.0,371.1 L 788.4,373.2 L 789.6,375.0 L 791.4,376.2 L 793.5,376.6 L 795.6,376.2 L 797.4,375.0 L 798.6,373.2 L 799.1,371.1 "
       id="path3633" />
    <path
       stroke="#ff0000"
       stroke-width="1"
       fill="none"
       d=" M 415.6,527.0 L 541.6,460.6 L 667.5,388.4 L 793.5,342.2 "
       id="path3635" />
    <path
       stroke="#ff0000"
       stroke-width="1"
       fill="none"
       d="M 410.1,532.5 L 410.1,521.4 L 421.1,521.4 L 421.1,532.5 L 410.1,532.5 M 536.0,466.1 L 536.0,455.0 L 547.1,455.0 L 547.1,466.1 L 536.0,466.1 M 662.0,393.9 L 662.0,382.8 L 673.1,382.8 L 673.1,393.9 L 662.0,393.9 M 788.0,347.7 L 788.0,336.7 L 799.1,336.7 L 799.1,347.7 L 788.0,347.7 "
       id="path3637" />
    <path
       stroke="#0000ff"
       stroke-width="1"
       fill="none"
       d="M 541.6,408.6 L 667.5,336.4 L 793.5,281.6 "
       id="path3639" />
    <path
       stroke="#0000ff"
       stroke-width="1"
       fill="none"
       d="M 536.0,408.6 L 541.6,403.1 L 547.1,408.6 L 541.6,414.1 L 536.0,408.6 M 662.0,336.4 L 667.5,330.9 L 673.1,336.4 L 667.5,342.0 L 662.0,336.4 M 788.0,281.6 L 793.5,276.0 L 799.1,281.6 L 793.5,287.1 L 788.0,281.6 "
       id="path3641" />
    <path
       stroke="#218b21"
       stroke-width="1"
       fill="none"
       d="M 667.5,324.3 L 793.5,255.0 "
       id="path3643" />
    <path
       stroke="#218b21"
       stroke-width="1"
       fill="none"
       d="M 662.0,329.8 L 667.5,318.8 L 673.1,329.8 L 662.0,329.8 M 788.0,260.6 L 793.5,249.5 L 799.1,260.6 L 788.0,260.6 "
       id="path3645" />
    <path
       stroke="#a020f0"
       stroke-width="1"
       fill="none"
       d="M 793.5,220.4 "
       id="path3647" />
    <path
       stroke="#a020f0"
       stroke-width="1"
       fill="none"
       d="M 788.0,214.8 L 793.5,225.9 L 799.1,214.8 L 788.0,214.8 "
       id="path3649" />
  </g>
  <text
     xml:space="preserve"
     style="font-style:normal;font-variant:normal;font-weight:normal;font-stretch:normal;font-size:28px;line-height:125%;font-family:Arial;-inkscape-font-specification:'Arial, Normal';text-align:start;letter-spacing:3.12px;word-spacing:0px;writing-mode:lr-tb;text-anchor:start;fill:#000000;fill-opacity:1;stroke:none;stroke-width:1px;stroke-linecap:butt;stroke-linejoin:miter;stroke-opacity:1"
     x="-677.32257"
     y="195.76271"
     id="text3378"
     sodipodi:linespacing="125%"
     transform="matrix(0,-1,1,0,0,0)"><tspan
       sodipodi:role="line"
       id="tspan3380"
       x="-677.32257"
       y="195.76271"> Percent Correct Identification </tspan></text>
</svg>
