<?xml version="1.0" encoding="ISO-8859-1" standalone="yes"?>
<svg width="289.594" height="169.09">
  <defs> 
    <marker id="ArrowEnd" viewBox="0 0 10 10" refX="0" refY="5" 
     markerUnits="strokeWidth" 
     markerWidth="4" 
     markerHeight="3" 
     orient="auto"> 
        <path d="M 0 0 L 10 5 L 0 10 z" /> 
    </marker>
    <marker id="ArrowStart" viewBox="0 0 10 10" refX="10" refY="5" 
     markerUnits="strokeWidth" 
     markerWidth="4" 
     markerHeight="3" 
     orient="auto"> 
        <path d="M 10 0 L 0 5 L 10 10 z" /> 
    </marker> </defs>
<g>
<path style="stroke:none; fill-rule:evenodd; fill:#000000" d="M 107.199 95.2734L 107.199 101.297L 108.199 101.297L 108.199 98.1641C 108.199 97.3008 108.41 96.7383 108.86 96.4023C 109.149 96.1836 109.43 96.1172 110.082 96.1055L 110.082 95.1406C 109.926 95.1211 109.848 95.1094 109.723 95.1094C 109.113 95.1094 108.649 95.4766 108.102 96.3711L 108.102 95.2812L 107.199 95.2734z"/>
<path style="stroke:none; fill-rule:evenodd; fill:#000000" d="M 116.098 98.6016C 116.098 97.6836 116.031 97.1328 115.86 96.6875C 115.473 95.7031 114.559 95.1055 113.442 95.1055C 111.778 95.1055 110.703 96.3984 110.703 98.3867C 110.703 100.375 111.739 101.602 113.414 101.602C 114.778 101.602 115.723 100.809 115.965 99.4766L 115.012 99.4766C 114.75 100.281 114.219 100.699 113.457 100.699C 112.856 100.699 112.344 100.422 112.028 99.9062C 111.801 99.5586 111.723 99.207 111.711 98.6016L 116.098 98.6016zM 111.68 97.8359C 111.758 96.7227 112.438 96 113.399 96C 114.336 96 115.063 96.7773 115.063 97.7656C 115.063 97.7852 115.063 97.8086 115.051 97.832L 111.68 97.8359z"/>
<path style="stroke:none; fill-rule:evenodd; fill:#000000" d="M 122.301 92.902L 121.301 92.902L 121.301 96.043C 120.903 95.4297 120.266 95.1016 119.465 95.1016C 117.918 95.1016 116.903 96.3594 116.903 98.293C 116.903 100.34 117.914 101.598 119.555 101.598C 120.391 101.598 120.973 101.277 121.496 100.508L 121.496 101.297L 122.293 101.297L 122.301 92.902zM 119.625 96C 120.645 96 121.293 96.9258 121.293 98.3711C 121.293 99.7695 120.637 100.695 119.637 100.695C 118.594 100.695 117.899 99.7578 117.899 98.3477C 117.899 96.9375 118.59 96 119.625 96z"/>
<path style="stroke:none; fill-rule:evenodd; fill:#ffa400" d="M 129.809 97.8438C 129.809 89.395 122.957 82.539 114.504 82.539C 106.055 82.539 99.199 89.391 99.199 97.8438C 99.199 106.293 106.051 113.148 114.504 113.148C 122.953 113.148 129.809 106.297 129.809 97.8438"/>
<path style="stroke:#000000; stroke-width:1.9133; fill:none" d="M 129.809 97.8438C 129.809 89.395 122.957 82.539 114.504 82.539C 106.055 82.539 99.199 89.391 99.199 97.8438C 99.199 106.293 106.051 113.148 114.504 113.148C 122.953 113.148 129.809 106.297 129.809 97.8438"/>
<path style="stroke:none; fill-rule:evenodd; fill:#ff0000" d="M 107.199 95.2734L 107.199 101.297L 108.199 101.297L 108.199 98.1641C 108.199 97.3008 108.41 96.7383 108.86 96.4023C 109.149 96.1836 109.43 96.1172 110.082 96.1055L 110.082 95.1406C 109.926 95.1211 109.848 95.1094 109.723 95.1094C 109.113 95.1094 108.649 95.4766 108.102 96.3711L 108.102 95.2812L 107.199 95.2734z"/>
<path style="stroke:none; fill-rule:evenodd; fill:#ff0000" d="M 116.098 98.6016C 116.098 97.6836 116.031 97.1328 115.86 96.6875C 115.473 95.7031 114.559 95.1055 113.442 95.1055C 111.778 95.1055 110.703 96.3984 110.703 98.3867C 110.703 100.375 111.739 101.602 113.414 101.602C 114.778 101.602 115.723 100.809 115.965 99.4766L 115.012 99.4766C 114.75 100.281 114.219 100.699 113.457 100.699C 112.856 100.699 112.344 100.422 112.028 99.9062C 111.801 99.5586 111.723 99.207 111.711 98.6016L 116.098 98.6016zM 111.68 97.8359C 111.758 96.7227 112.438 96 113.399 96C 114.336 96 115.063 96.7773 115.063 97.7656C 115.063 97.7852 115.063 97.8086 115.051 97.832L 111.68 97.8359z"/>
<path style="stroke:none; fill-rule:evenodd; fill:#ff0000" d="M 122.301 92.902L 121.301 92.902L 121.301 96.043C 120.903 95.4297 120.266 95.1016 119.465 95.1016C 117.918 95.1016 116.903 96.3594 116.903 98.293C 116.903 100.34 117.914 101.598 119.555 101.598C 120.391 101.598 120.973 101.277 121.496 100.508L 121.496 101.297L 122.293 101.297L 122.301 92.902zM 119.625 96C 120.645 96 121.293 96.9258 121.293 98.3711C 121.293 99.7695 120.637 100.695 119.637 100.695C 118.594 100.695 117.899 99.7578 117.899 98.3477C 117.899 96.9375 118.59 96 119.625 96z"/>
<path style="stroke:none; fill-rule:evenodd; fill:#ffffff" d="M 208.242 143.758C 208.242 135.309 201.391 128.453 192.938 128.453C 184.489 128.453 177.633 135.305 177.633 143.758C 177.633 152.207 184.485 159.062 192.938 159.062C 201.387 159.062 208.242 152.211 208.242 143.758"/>
<path style="stroke:#000000; stroke-width:1.9133; fill:none" d="M 208.242 143.758C 208.242 135.309 201.391 128.453 192.938 128.453C 184.489 128.453 177.633 135.305 177.633 143.758C 177.633 152.207 184.485 159.062 192.938 159.062C 201.387 159.062 208.242 152.211 208.242 143.758"/>
<path style="stroke:none; fill-rule:evenodd; fill:#ffffff" d="M 182.653 152.367L 203.219 152.367L 203.219 135.148L 182.653 135.148L 182.653 152.367z"/>
<path style="stroke:#000000; stroke-width:1.9133; fill:none" d="M 182.653 152.367L 203.219 152.367L 203.219 135.148L 182.653 135.148L 182.653 152.367z"/>
<path style="stroke:none; fill-rule:evenodd; fill:#000000" d="M 190.328 142.863C 190.317 141.676 189.531 141.004 188.129 141.004C 186.719 141.004 185.805 141.73 185.805 142.852C 185.805 143.797 186.293 144.246 187.742 144.594L 188.653 144.812C 189.328 144.973 189.598 145.215 189.598 145.652C 189.598 146.215 189.031 146.598 188.188 146.598C 187.668 146.598 187.231 146.449 186.989 146.191C 186.84 146.02 186.77 145.844 186.711 145.41L 185.696 145.41C 185.739 146.82 186.524 147.5 188.106 147.5C 189.629 147.5 190.598 146.75 190.598 145.586C 190.598 144.688 190.086 144.191 188.871 143.902L 187.938 143.684C 187.145 143.5 186.805 143.246 186.805 142.82C 186.805 142.27 187.301 141.91 188.09 141.91C 188.863 141.91 189.281 142.238 189.305 142.867L 190.328 142.863z"/>
<path style="stroke:none; fill-rule:evenodd; fill:#000000" d="M 196.699 149.703L 196.699 141.207L 195.903 141.207L 195.903 141.992C 195.449 141.355 194.762 141.008 193.961 141.008C 192.356 141.008 191.309 142.312 191.309 144.324C 191.309 146.289 192.285 147.504 193.86 147.504C 194.688 147.504 195.258 147.195 195.703 146.516L 195.703 149.703L 196.699 149.703zM 194.055 141.91C 195.074 141.91 195.731 142.828 195.731 144.273C 195.731 145.648 195.067 146.566 194.055 146.566C 193 146.566 192.301 145.637 192.301 144.238C 192.301 142.852 193 141.91 194.055 141.91z"/>
<path style="stroke:none; fill-rule:evenodd; fill:#000000" d="M 198.199 141.176L 198.199 147.199L 199.199 147.199L 199.199 144.066C 199.199 143.203 199.41 142.641 199.86 142.305C 200.149 142.086 200.43 142.02 201.082 142.008L 201.082 141.043C 200.926 141.023 200.848 141.012 200.723 141.012C 200.113 141.012 199.649 141.379 199.102 142.273L 199.102 141.184L 198.199 141.176z"/>
<path style="stroke:none; fill-rule:evenodd; fill:#ffff00" d="M 166.16 97.8438C 166.16 89.395 159.309 82.539 150.856 82.539C 142.406 82.539 135.551 89.391 135.551 97.8438C 135.551 106.293 142.403 113.148 150.856 113.148C 159.305 113.148 166.16 106.297 166.16 97.8438"/>
<path style="stroke:#000000; stroke-width:1.9133; fill:none" d="M 166.16 97.8438C 166.16 89.395 159.309 82.539 150.856 82.539C 142.406 82.539 135.551 89.391 135.551 97.8438C 135.551 106.293 142.403 113.148 150.856 113.148C 159.305 113.148 166.16 106.297 166.16 97.8438"/>
<path style="stroke:none; fill-rule:evenodd; fill:#ffffff" d="M 208.242 97.8438C 208.242 89.395 201.391 82.539 192.938 82.539C 184.489 82.539 177.633 89.391 177.633 97.8438C 177.633 106.293 184.485 113.148 192.938 113.148C 201.387 113.148 208.242 106.297 208.242 97.8438"/>
<path style="stroke:#000000; stroke-width:1.9133; fill:none" d="M 208.242 97.8438C 208.242 89.395 201.391 82.539 192.938 82.539C 184.489 82.539 177.633 89.391 177.633 97.8438C 177.633 106.293 184.485 113.148 192.938 113.148C 201.387 113.148 208.242 106.297 208.242 97.8438"/>
<path style="stroke:none; fill-rule:evenodd; fill:#000000" d="M 190.328 96.9648C 190.317 95.7773 189.531 95.1055 188.129 95.1055C 186.719 95.1055 185.805 95.832 185.805 96.9531C 185.805 97.8984 186.293 98.3477 187.742 98.6953L 188.653 98.9141C 189.328 99.0742 189.598 99.3164 189.598 99.7539C 189.598 100.316 189.031 100.699 188.188 100.699C 187.668 100.699 187.231 100.551 186.989 100.293C 186.84 100.121 186.77 99.9453 186.711 99.5117L 185.696 99.5117C 185.739 100.922 186.524 101.602 188.106 101.602C 189.629 101.602 190.598 100.852 190.598 99.6875C 190.598 98.7891 190.086 98.293 188.871 98.0039L 187.938 97.7852C 187.145 97.6016 186.805 97.3477 186.805 96.9219C 186.805 96.3711 187.301 96.0117 188.09 96.0117C 188.863 96.0117 189.281 96.3398 189.305 96.9688L 190.328 96.9648z"/>
<path style="stroke:none; fill-rule:evenodd; fill:#000000" d="M 196.699 103.801L 196.699 95.3047L 195.903 95.3047L 195.903 96.0898C 195.449 95.4531 194.762 95.1055 193.961 95.1055C 192.356 95.1055 191.309 96.4102 191.309 98.4219C 191.309 100.387 192.285 101.602 193.86 101.602C 194.688 101.602 195.258 101.293 195.703 100.613L 195.703 103.801L 196.699 103.801zM 194.055 96.0117C 195.074 96.0117 195.731 96.9297 195.731 98.375C 195.731 99.75 195.067 100.668 194.055 100.668C 193 100.668 192.301 99.7383 192.301 98.3398C 192.301 96.9531 193 96.0117 194.055 96.0117z"/>
<path style="stroke:none; fill-rule:evenodd; fill:#000000" d="M 198.199 95.2734L 198.199 101.297L 199.199 101.297L 199.199 98.1641C 199.199 97.3008 199.41 96.7383 199.86 96.4023C 200.149 96.1836 200.43 96.1172 201.082 96.1055L 201.082 95.1406C 200.926 95.1211 200.848 95.1094 200.723 95.1094C 200.113 95.1094 199.649 95.4766 199.102 96.3711L 199.102 95.2812L 198.199 95.2734z"/>
<path style="stroke:none; fill-rule:evenodd; fill:#0000ff" d="M 140.5 92.902L 140.5 101.301L 141.399 101.301L 141.399 100.535C 141.852 101.258 142.457 101.602 143.293 101.602C 144.867 101.602 145.895 100.297 145.895 98.2852C 145.895 96.3203 144.914 95.1055 143.344 95.1055C 142.524 95.1055 141.946 95.418 141.5 96.1016L 141.5 92.902L 140.5 92.902zM 143.149 96.0117C 144.215 96.0117 144.903 96.9414 144.903 98.375C 144.903 99.7383 144.192 100.668 143.149 100.668C 142.141 100.668 141.473 99.75 141.473 98.3398C 141.473 96.9297 142.137 96.0117 143.149 96.0117z"/>
<path style="stroke:none; fill-rule:evenodd; fill:#0000ff" d="M 147 101.301L 148 101.301L 148 92.902L 147 92.902L 147 101.301z"/>
<path style="stroke:none; fill-rule:evenodd; fill:#0000ff" d="M 154.399 101.336L 154.399 95.3047L 153.399 95.3047L 153.399 98.75C 153.399 99.9883 152.754 100.801 151.746 100.801C 150.985 100.801 150.5 100.34 150.5 99.6094L 150.5 95.3047L 149.5 95.3047L 149.5 99.957C 149.5 100.957 150.258 101.602 151.449 101.602C 152.348 101.602 152.922 101.293 153.496 100.5L 153.496 101.34L 154.399 101.336z"/>
<path style="stroke:none; fill-rule:evenodd; fill:#0000ff" d="M 161.098 98.6016C 161.098 97.6836 161.031 97.1328 160.86 96.6875C 160.473 95.7031 159.559 95.1055 158.442 95.1055C 156.778 95.1055 155.703 96.3984 155.703 98.3867C 155.703 100.375 156.739 101.602 158.414 101.602C 159.778 101.602 160.723 100.809 160.965 99.4766L 160.012 99.4766C 159.75 100.281 159.219 100.699 158.457 100.699C 157.856 100.699 157.344 100.422 157.028 99.9062C 156.801 99.5586 156.723 99.207 156.711 98.6016L 161.098 98.6016zM 156.68 97.8359C 156.758 96.7227 157.438 96 158.399 96C 159.336 96 160.063 96.7773 160.063 97.7656C 160.063 97.7852 160.063 97.8086 160.051 97.832L 156.68 97.8359z"/>
<path style="stroke:none; fill-rule:evenodd; fill:#0000ff" d="M 166.16 143.758C 166.16 135.309 159.309 128.453 150.856 128.453C 142.406 128.453 135.551 135.305 135.551 143.758C 135.551 152.207 142.403 159.062 150.856 159.062C 159.305 159.062 166.16 152.211 166.16 143.758"/>
<path style="stroke:#000000; stroke-width:1.9133; fill:none" d="M 166.16 143.758C 166.16 135.309 159.309 128.453 150.856 128.453C 142.406 128.453 135.551 135.305 135.551 143.758C 135.551 152.207 142.403 159.062 150.856 159.062C 159.305 159.062 166.16 152.211 166.16 143.758"/>
<path style="stroke:none; fill-rule:evenodd; fill:#000000" d="M 140.5 138.801L 140.5 147.199L 141.399 147.199L 141.399 146.434C 141.852 147.156 142.457 147.5 143.293 147.5C 144.867 147.5 145.895 146.195 145.895 144.184C 145.895 142.219 144.914 141.004 143.344 141.004C 142.524 141.004 141.946 141.316 141.5 142L 141.5 138.801L 140.5 138.801zM 143.149 141.91C 144.215 141.91 144.903 142.84 144.903 144.273C 144.903 145.637 144.192 146.566 143.149 146.566C 142.141 146.566 141.473 145.648 141.473 144.238C 141.473 142.828 142.137 141.91 143.149 141.91z"/>
<path style="stroke:none; fill-rule:evenodd; fill:#000000" d="M 147 147.203L 148 147.203L 148 138.805L 147 138.805L 147 147.203z"/>
<path style="stroke:none; fill-rule:evenodd; fill:#000000" d="M 154.399 147.238L 154.399 141.207L 153.399 141.207L 153.399 144.652C 153.399 145.891 152.754 146.703 151.746 146.703C 150.985 146.703 150.5 146.242 150.5 145.512L 150.5 141.207L 149.5 141.207L 149.5 145.859C 149.5 146.859 150.258 147.504 151.449 147.504C 152.348 147.504 152.922 147.195 153.496 146.402L 153.496 147.242L 154.399 147.238z"/>
<path style="stroke:none; fill-rule:evenodd; fill:#000000" d="M 161.098 144.5C 161.098 143.582 161.031 143.031 160.86 142.586C 160.473 141.602 159.559 141.004 158.442 141.004C 156.778 141.004 155.703 142.297 155.703 144.285C 155.703 146.273 156.739 147.5 158.414 147.5C 159.778 147.5 160.723 146.707 160.965 145.375L 160.012 145.375C 159.75 146.18 159.219 146.598 158.457 146.598C 157.856 146.598 157.344 146.32 157.028 145.805C 156.801 145.457 156.723 145.105 156.711 144.5L 161.098 144.5zM 156.68 143.734C 156.758 142.621 157.438 141.898 158.399 141.898C 159.336 141.898 160.063 142.676 160.063 143.664C 160.063 143.684 160.063 143.707 160.051 143.73L 156.68 143.734z"/>
<path style="stroke:none; fill-rule:evenodd; fill:#ffff00" d="M 83.828 48.09C 83.828 39.641 76.977 32.785 68.524 32.785C 60.074 32.785 53.219 39.637 53.219 48.09C 53.219 56.539 60.071 63.395 68.524 63.395C 76.973 63.395 83.828 56.543 83.828 48.09"/>
<path style="stroke:#000000; stroke-width:1.9133; fill:none" d="M 83.828 48.09C 83.828 39.641 76.977 32.785 68.524 32.785C 60.074 32.785 53.219 39.637 53.219 48.09C 53.219 56.539 60.071 63.395 68.524 63.395C 76.973 63.395 83.828 56.543 83.828 48.09"/>
<path style="stroke:none; fill-rule:evenodd; fill:#000000" d="M 70.141 49L 71 51.5L 72.192 51.5L 69.254 43.102L 67.879 43.102L 64.895 51.5L 66.028 51.5L 66.91 49L 70.141 49zM 69.844 48.102L 67.184 48.102L 68.559 44.281L 69.844 48.102z"/>
<path style="stroke:none; fill-rule:evenodd; fill:#ffffff" d="M 120.18 48.102C 120.18 39.652 113.328 32.797 104.875 32.797C 96.426 32.797 89.571 39.648 89.571 48.102C 89.571 56.551 96.422 63.406 104.875 63.406C 113.324 63.406 120.18 56.555 120.18 48.102"/>
<path style="stroke:#000000; stroke-width:1.9133; fill:none" d="M 120.18 48.102C 120.18 39.652 113.328 32.797 104.875 32.797C 96.426 32.797 89.571 39.648 89.571 48.102C 89.571 56.551 96.422 63.406 104.875 63.406C 113.324 63.406 120.18 56.555 120.18 48.102"/>
<path style="stroke:none; fill-rule:evenodd; fill:#000000" d="M 102.399 51.5L 106.207 51.5C 107.004 51.5 107.594 51.281 108.047 50.801C 108.461 50.363 108.696 49.766 108.696 49.109C 108.696 48.098 108.223 47.484 107.121 47.074C 107.887 46.719 108.293 46.098 108.293 45.246C 108.293 44.637 108.067 44.098 107.625 43.703C 107.188 43.301 106.613 43.117 105.805 43.117L 102.395 43.117L 102.399 51.5zM 103.5 46.801L 103.5 44.004L 105.543 44.004C 106.133 44.004 106.461 44.086 106.742 44.316C 107.035 44.555 107.196 44.918 107.196 45.402C 107.196 45.871 107.039 46.246 106.742 46.488C 106.461 46.715 106.133 46.801 105.543 46.801L 103.5 46.801zM 103.5 50.602L 103.5 47.703L 106.098 47.703C 106.61 47.703 106.953 47.828 107.207 48.105C 107.457 48.371 107.594 48.738 107.594 49.156C 107.594 49.559 107.457 49.93 107.207 50.195C 106.957 50.469 106.613 50.598 106.098 50.598L 103.5 50.602z"/>
<path style="stroke:none; fill-rule:evenodd; fill:#ff0000" d="M 129.809 143.758C 129.809 135.309 122.957 128.453 114.504 128.453C 106.055 128.453 99.199 135.305 99.199 143.758C 99.199 152.207 106.051 159.062 114.504 159.062C 122.953 159.062 129.809 152.211 129.809 143.758"/>
<path style="stroke:#000000; stroke-width:1.9133; fill:none" d="M 129.809 143.758C 129.809 135.309 122.957 128.453 114.504 128.453C 106.055 128.453 99.199 135.305 99.199 143.758C 99.199 152.207 106.051 159.062 114.504 159.062C 122.953 159.062 129.809 152.211 129.809 143.758"/>
<path style="stroke:none; fill-rule:evenodd; fill:#000000" d="M 107.199 141.176L 107.199 147.199L 108.199 147.199L 108.199 144.066C 108.199 143.203 108.41 142.641 108.86 142.305C 109.149 142.086 109.43 142.02 110.082 142.008L 110.082 141.043C 109.926 141.023 109.848 141.012 109.723 141.012C 109.113 141.012 108.649 141.379 108.102 142.273L 108.102 141.184L 107.199 141.176z"/>
<path style="stroke:none; fill-rule:evenodd; fill:#000000" d="M 116.098 144.5C 116.098 143.582 116.031 143.031 115.86 142.586C 115.473 141.602 114.559 141.004 113.442 141.004C 111.778 141.004 110.703 142.297 110.703 144.285C 110.703 146.273 111.739 147.5 113.414 147.5C 114.778 147.5 115.723 146.707 115.965 145.375L 115.012 145.375C 114.75 146.18 114.219 146.598 113.457 146.598C 112.856 146.598 112.344 146.32 112.028 145.805C 111.801 145.457 111.723 145.105 111.711 144.5L 116.098 144.5zM 111.68 143.734C 111.758 142.621 112.438 141.898 113.399 141.898C 114.336 141.898 115.063 142.676 115.063 143.664C 115.063 143.684 115.063 143.707 115.051 143.73L 111.68 143.734z"/>
<path style="stroke:none; fill-rule:evenodd; fill:#000000" d="M 122.301 138.801L 121.301 138.801L 121.301 141.941C 120.903 141.328 120.266 141 119.465 141C 117.918 141 116.903 142.258 116.903 144.191C 116.903 146.238 117.914 147.496 119.555 147.496C 120.391 147.496 120.973 147.176 121.496 146.406L 121.496 147.195L 122.293 147.195L 122.301 138.801zM 119.625 141.902C 120.645 141.902 121.293 142.828 121.293 144.273C 121.293 145.672 120.637 146.598 119.637 146.598C 118.594 146.598 117.899 145.66 117.899 144.25C 117.899 142.84 118.59 141.902 119.625 141.902z"/>
<path style="stroke:none; fill-rule:evenodd; fill:#ffffff" d="M 244.594 97.8438C 244.594 89.395 237.742 82.539 229.289 82.539C 220.84 82.539 213.985 89.391 213.985 97.8438C 213.985 106.293 220.836 113.148 229.289 113.148C 237.739 113.148 244.594 106.297 244.594 97.8438"/>
<path style="stroke:#000000; stroke-width:1.9133; fill:none" d="M 244.594 97.8438C 244.594 89.395 237.742 82.539 229.289 82.539C 220.84 82.539 213.985 89.391 213.985 97.8438C 213.985 106.293 220.836 113.148 229.289 113.148C 237.739 113.148 244.594 106.297 244.594 97.8438"/>
<path style="stroke:none; fill-rule:evenodd; fill:#000000" d="M 227.899 95.3008L 227 95.3008L 227 93.6328L 226 93.6328L 226 95.3008L 225.102 95.3008L 225.102 96.0977L 226 96.0977L 226 100.645C 226 101.25 226.403 101.594 227.133 101.594C 227.356 101.594 227.582 101.57 227.895 101.512L 227.895 100.676C 227.781 100.766 227.645 100.793 227.477 100.793C 227.102 100.793 226.996 100.68 226.996 100.25L 226.996 96.0977L 227.895 96.0977L 227.899 95.3008z"/>
<path style="stroke:none; fill-rule:evenodd; fill:#000000" d="M 229 95.2734L 229 101.297L 230 101.297L 230 98.1641C 230 97.3008 230.211 96.7383 230.66 96.4023C 230.949 96.1836 231.231 96.1172 231.883 96.1055L 231.883 95.1406C 231.727 95.1211 231.649 95.1094 231.524 95.1094C 230.914 95.1094 230.449 95.4766 229.903 96.3711L 229.903 95.2812L 229 95.2734z"/>
<path style="stroke:none; fill-rule:evenodd; fill:#000000" d="M 233.699 95.3008L 232.699 95.3008L 232.699 101.301L 233.699 101.301L 233.699 95.3008zM 233.699 92.902L 232.699 92.902L 232.699 94.1367L 233.699 94.1367L 233.699 92.902z"/>
<path style="stroke:none; fill-rule:evenodd; fill:#ffffff" d="M 83.848 117.004C 83.848 108.555 76.996 101.699 68.543 101.699C 60.094 101.699 53.239 108.551 53.239 117.004C 53.239 125.453 60.09 132.309 68.543 132.309C 76.992 132.309 83.848 125.457 83.848 117.004"/>
<path style="stroke:#000000; stroke-width:1.9133; fill:none" d="M 83.848 117.004C 83.848 108.555 76.996 101.699 68.543 101.699C 60.094 101.699 53.239 108.551 53.239 117.004C 53.239 125.453 60.09 132.309 68.543 132.309C 76.992 132.309 83.848 125.457 83.848 117.004"/>
<path style="stroke:none; fill-rule:evenodd; fill:#000000" d="M 56.301 114.949L 56.301 120L 57.098 120L 57.098 116.824C 57.098 116.094 57.621 115.504 58.27 115.504C 58.86 115.504 59.196 115.871 59.196 116.516L 59.196 120L 59.992 120L 59.992 116.824C 59.992 116.094 60.516 115.504 61.164 115.504C 61.742 115.504 62.09 115.879 62.09 116.516L 62.09 120L 62.887 120L 62.887 116.211C 62.887 115.305 62.371 114.805 61.43 114.805C 60.762 114.805 60.356 115.016 59.887 115.613C 59.59 115.051 59.188 114.805 58.535 114.805C 57.867 114.805 57.426 115.055 56.992 115.66L 56.992 114.949L 56.301 114.949z"/>
<path style="stroke:none; fill-rule:evenodd; fill:#000000" d="M 68.719 119.531C 68.633 119.504 68.594 119.504 68.543 119.504C 68.262 119.504 68.106 119.363 68.106 119.113L 68.106 116.172C 68.106 115.285 67.461 114.809 66.231 114.809C 65.508 114.809 64.91 115.023 64.574 115.406C 64.348 115.668 64.254 115.965 64.235 116.473L 65.031 116.473C 65.098 115.809 65.457 115.504 66.199 115.504C 66.91 115.504 67.309 115.773 67.309 116.258L 67.309 116.469C 67.309 116.805 67.11 116.949 66.485 117.027C 65.363 117.172 65.192 117.211 64.887 117.336C 64.309 117.574 64.012 118.031 64.012 118.691C 64.012 119.609 64.641 120.191 65.656 120.191C 66.285 120.191 66.793 119.98 67.36 119.477C 67.414 119.969 67.664 120.191 68.18 120.191C 68.34 120.191 68.465 120.176 68.723 120.109L 68.719 119.531zM 67.301 118.414C 67.301 118.676 67.227 118.84 66.985 119.055C 66.66 119.348 66.266 119.496 65.793 119.496C 65.168 119.496 64.805 119.203 64.805 118.703C 64.805 118.184 65.16 117.918 66.016 117.797C 66.86 117.684 67.031 117.648 67.301 117.523L 67.301 118.414z"/>
<path style="stroke:none; fill-rule:evenodd; fill:#000000" d="M 71.301 115L 70.504 115L 70.504 113.609L 69.707 113.609L 69.707 115L 69.008 115L 69.008 115.699L 69.707 115.699L 69.707 119.418C 69.707 119.914 70.047 120.195 70.66 120.195C 70.848 120.195 71.039 120.18 71.301 120.133L 71.301 119.484C 71.199 119.496 71.078 119.5 70.93 119.5C 70.598 119.5 70.504 119.406 70.504 119.062L 70.504 115.703L 71.301 115.703L 71.301 115z"/>
<path style="stroke:none; fill-rule:evenodd; fill:#000000" d="M 76.106 116.672C 76.071 116.145 75.965 115.805 75.774 115.504C 75.43 115.066 74.828 114.805 74.133 114.805C 72.785 114.805 71.906 115.879 71.906 117.551C 71.906 119.172 72.766 120.199 74.121 120.199C 75.313 120.199 76.071 119.492 76.164 118.277L 75.356 118.277C 75.223 119.09 74.809 119.496 74.121 119.496C 73.235 119.496 72.703 118.762 72.703 117.547C 72.703 116.266 73.223 115.5 74.102 115.5C 74.774 115.5 75.199 115.918 75.297 116.668L 76.106 116.672z"/>
<path style="stroke:none; fill-rule:evenodd; fill:#000000" d="M 77.098 113L 77.098 120L 77.895 120L 77.895 117.211C 77.895 116.18 78.43 115.504 79.254 115.504C 79.512 115.504 79.77 115.59 79.961 115.734C 80.188 115.895 80.285 116.137 80.285 116.496L 80.285 120L 81.082 120L 81.082 116.184C 81.082 115.336 80.481 114.805 79.496 114.805C 78.785 114.805 78.356 115.035 77.883 115.68L 77.883 113.008L 77.098 113z"/>
<path style="stroke:none; fill-rule:evenodd; fill:#000000" d="M 126.723 42.203C 125.606 43.711 124.899 45.805 124.899 47.613C 124.899 49.43 125.602 51.523 126.723 53.031L 127.336 53.031C 126.348 51.387 125.797 49.453 125.797 47.613C 125.797 45.785 126.348 43.84 127.336 42.203L 126.723 42.203z"/>
<path style="stroke:none; fill-rule:evenodd; fill:#000000" d="M 128.598 44.574L 128.598 50.598L 129.598 50.598L 129.598 47.25C 129.598 46.012 130.223 45.199 131.188 45.199C 131.926 45.199 132.395 45.66 132.395 46.391L 132.395 50.594L 133.395 50.594L 133.395 46.039C 133.395 45.039 132.653 44.395 131.492 44.395C 130.602 44.395 130.028 44.738 129.5 45.578L 129.5 44.566L 128.598 44.574z"/>
<path style="stroke:none; fill-rule:evenodd; fill:#000000" d="M 137.336 44.402C 135.633 44.402 134.602 45.617 134.602 47.652C 134.602 49.688 135.621 50.902 137.352 50.902C 139.055 50.902 140.102 49.691 140.102 47.703C 140.102 45.613 139.094 44.41 137.344 44.41L 137.336 44.402zM 137.348 45.301C 138.442 45.301 139.098 46.188 139.098 47.684C 139.098 49.098 138.422 49.996 137.348 49.996C 136.266 49.996 135.598 49.109 135.598 47.648C 135.598 46.199 136.262 45.301 137.348 45.301z"/>
<path style="stroke:none; fill-rule:evenodd; fill:#000000" d="M 141.098 48.301L 146.895 48.301L 146.895 47.504L 141.098 47.504L 141.098 48.301z"/>
<path style="stroke:none; fill-rule:evenodd; fill:#000000" d="M 148.098 44.574L 148.098 50.598L 149.098 50.598L 149.098 46.789C 149.098 45.91 149.723 45.203 150.492 45.203C 151.196 45.203 151.594 45.641 151.594 46.418L 151.594 50.598L 152.594 50.598L 152.594 46.789C 152.594 45.91 153.219 45.203 153.989 45.203C 154.68 45.203 155.09 45.652 155.09 46.418L 155.09 50.598L 156.09 50.598L 156.09 46.078C 156.09 45 155.469 44.402 154.336 44.402C 153.531 44.402 153.043 44.645 152.481 45.332C 152.125 44.684 151.641 44.402 150.856 44.402C 150.051 44.402 149.52 44.699 149 45.422L 149 44.574L 148.098 44.574z"/>
<path style="stroke:none; fill-rule:evenodd; fill:#000000" d="M 163.039 50.039C 162.934 50.098 162.887 50.098 162.828 50.098C 162.489 50.098 162.301 49.926 162.301 49.625L 162.301 46.059C 162.301 44.984 161.524 44.402 160.051 44.402C 159.184 44.402 158.465 44.656 158.063 45.105C 157.789 45.414 157.676 45.762 157.653 46.363L 158.598 46.363C 158.676 45.633 159.102 45.301 159.985 45.301C 160.828 45.301 161.301 45.621 161.301 46.199L 161.301 46.453C 161.301 46.855 161.067 47.027 160.324 47.121C 159 47.293 158.797 47.34 158.438 47.488C 157.754 47.773 157.406 48.316 157.406 49.102C 157.406 50.195 158.16 50.887 159.371 50.887C 160.125 50.887 160.731 50.613 161.406 49.969C 161.473 50.602 161.77 50.887 162.387 50.887C 162.578 50.887 162.727 50.863 163.035 50.781L 163.039 50.039zM 161.301 48.742C 161.301 49.07 161.211 49.273 160.934 49.547C 160.555 49.91 160.098 50.102 159.551 50.102C 158.828 50.102 158.403 49.738 158.403 49.109C 158.403 48.461 158.813 48.129 159.805 47.977C 160.785 47.836 160.985 47.789 161.297 47.637L 161.301 48.742z"/>
<path style="stroke:none; fill-rule:evenodd; fill:#000000" d="M 166.098 44.602L 165.199 44.602L 165.199 42.934L 164.199 42.934L 164.199 44.602L 163.301 44.602L 163.301 45.398L 164.199 45.398L 164.199 49.945C 164.199 50.551 164.602 50.895 165.332 50.895C 165.555 50.895 165.781 50.871 166.094 50.812L 166.094 49.977C 165.981 50.066 165.844 50.094 165.676 50.094C 165.301 50.094 165.196 49.98 165.196 49.551L 165.196 45.398L 166.094 45.398L 166.098 44.602z"/>
<path style="stroke:none; fill-rule:evenodd; fill:#000000" d="M 171.805 46.605C 171.762 46.02 171.637 45.637 171.406 45.301C 171 44.738 170.281 44.402 169.453 44.402C 167.852 44.402 166.805 45.695 166.805 47.707C 166.805 49.66 167.828 50.898 169.442 50.898C 170.863 50.898 171.762 50.027 171.875 48.535L 170.922 48.535C 170.766 49.512 170.278 50 169.473 50C 168.43 50 167.805 49.137 167.805 47.711C 167.805 46.203 168.414 45.305 169.449 45.305C 170.242 45.305 170.742 45.773 170.856 46.609L 171.805 46.605z"/>
<path style="stroke:none; fill-rule:evenodd; fill:#000000" d="M 173 42.203L 173 50.602L 174 50.602L 174 47.254C 174 46.016 174.625 45.203 175.59 45.203C 175.891 45.203 176.192 45.305 176.418 45.48C 176.684 45.676 176.797 45.965 176.797 46.395L 176.797 50.598L 177.797 50.598L 177.797 46.043C 177.797 45.031 177.078 44.398 175.914 44.398C 175.071 44.398 174.559 44.664 174 45.406L 174 42.195L 173 42.203z"/>
<path style="stroke:none; fill-rule:evenodd; fill:#000000" d="M 179.656 53.035C 180.785 51.527 181.496 49.434 181.496 47.629C 181.496 45.812 180.785 43.719 179.656 42.207L 179.039 42.207C 180.043 43.855 180.602 45.785 180.602 47.629C 180.602 49.457 180.043 51.402 179.039 53.035L 179.656 53.035z"/>
<path style="stroke:#000000; stroke-width:1.9133; fill:none" d="M 76.176 34.707C 76.176 34.707 76.176 34.707 77.129 33.113C 78.082 31.52 79.996 28.332 82.867 26.738C 85.735 25.145 89.563 25.145 92.113 26.738C 94.664 28.332 95.938 31.52 96.574 33.113C 97.211 34.707 97.211 34.707 97.211 34.707"/>
<path style="stroke:none; fill-rule:evenodd; fill:#000000" d="M 78.086 34.707C 78.086 33.652 77.231 32.797 76.176 32.797C 75.121 32.797 74.266 33.652 74.266 34.707C 74.266 35.762 75.121 36.617 76.176 36.617C 77.231 36.617 78.086 35.762 78.086 34.707"/>
<path style="stroke:#000000; stroke-width:1.9133; fill:none" d="M 78.086 34.707C 78.086 33.652 77.231 32.797 76.176 32.797C 75.121 32.797 74.266 33.652 74.266 34.707C 74.266 35.762 75.121 36.617 76.176 36.617C 77.231 36.617 78.086 35.762 78.086 34.707"/>
<path style="stroke:none; fill-rule:evenodd; fill:#000000" d="M 99.133 34.707C 99.133 33.652 98.278 32.797 97.223 32.797C 96.168 32.797 95.313 33.652 95.313 34.707C 95.313 35.762 96.168 36.617 97.223 36.617C 98.278 36.617 99.133 35.762 99.133 34.707"/>
<path style="stroke:#000000; stroke-width:1.9133; fill:none" d="M 99.133 34.707C 99.133 33.652 98.278 32.797 97.223 32.797C 96.168 32.797 95.313 33.652 95.313 34.707C 95.313 35.762 96.168 36.617 97.223 36.617C 98.278 36.617 99.133 35.762 99.133 34.707"/>
<path style="stroke:none; fill-rule:evenodd; fill:#000000" d="M 251.5 148.102L 252.598 148.102L 252.598 139.703L 251.5 139.703L 251.5 148.102z"/>
<path style="stroke:none; fill-rule:evenodd; fill:#000000" d="M 254.399 142.074L 254.399 148.098L 255.399 148.098L 255.399 144.75C 255.399 143.512 256.024 142.699 256.989 142.699C 257.727 142.699 258.196 143.16 258.196 143.891L 258.196 148.094L 259.196 148.094L 259.196 143.539C 259.196 142.539 258.453 141.895 257.293 141.895C 256.403 141.895 255.828 142.238 255.301 143.078L 255.301 142.066L 254.399 142.074z"/>
<path style="stroke:none; fill-rule:evenodd; fill:#000000" d="M 260.598 150.605L 261.598 150.605L 261.598 147.504C 262.098 148.125 262.66 148.402 263.434 148.402C 264.977 148.402 265.992 147.145 265.992 145.211C 265.992 143.18 265.008 141.906 263.41 141.906C 262.598 141.906 261.942 142.273 261.496 142.984L 261.496 142.078L 260.598 142.078L 260.598 150.605zM 263.266 142.801C 264.313 142.801 264.996 143.734 264.996 145.184C 264.996 146.559 264.301 147.496 263.266 147.496C 262.262 147.496 261.602 146.57 261.602 145.148C 261.602 143.727 262.262 142.801 263.266 142.801z"/>
<path style="stroke:none; fill-rule:evenodd; fill:#000000" d="M 272 148.137L 272 142.105L 271 142.105L 271 145.551C 271 146.789 270.356 147.602 269.348 147.602C 268.586 147.602 268.102 147.141 268.102 146.41L 268.102 142.105L 267.102 142.105L 267.102 146.758C 267.102 147.758 267.86 148.402 269.051 148.402C 269.949 148.402 270.524 148.094 271.098 147.301L 271.098 148.141L 272 148.137z"/>
<path style="stroke:none; fill-rule:evenodd; fill:#000000" d="M 275.699 142.102L 274.801 142.102L 274.801 140.434L 273.801 140.434L 273.801 142.102L 272.903 142.102L 272.903 142.898L 273.801 142.898L 273.801 147.445C 273.801 148.051 274.203 148.395 274.934 148.395C 275.156 148.395 275.383 148.371 275.696 148.312L 275.696 147.477C 275.582 147.566 275.446 147.594 275.278 147.594C 274.903 147.594 274.797 147.48 274.797 147.051L 274.797 142.898L 275.696 142.898L 275.699 142.102z"/>
<path style="stroke:none; fill-rule:evenodd; fill:#000000" d="M 95.934 84.902L 94.559 84.902C 92.5 84.902 91.301 87.922 91.301 93.145L 91.301 103.648C 91.301 109.496 90.735 111.574 88.977 112.328L 88.977 116.668C 90.735 117.422 91.301 119.559 91.301 125.348L 91.301 135.852C 91.301 141.07 92.496 144.09 94.559 144.09L 95.934 144.09L 95.934 139.992L 95.489 139.992C 94.024 139.992 93.606 139.051 93.606 135.781L 93.606 124.402C 93.606 119.184 92.832 116.105 91.168 114.469C 92.981 112.961 93.606 110.383 93.606 104.598L 93.606 93.219C 93.606 89.949 94.024 89.004 95.489 89.004L 95.934 89.004L 95.934 84.902z"/>
<path style="stroke:none; fill-rule:evenodd; fill:#000000" d="M 253.84 94L 254.699 96.5L 255.891 96.5L 252.953 88.102L 251.578 88.102L 248.594 96.5L 249.727 96.5L 250.61 94L 253.84 94zM 253.543 93.102L 250.883 93.102L 252.258 89.281L 253.543 93.102z"/>
<path style="stroke:none; fill-rule:evenodd; fill:#000000" d="M 261.504 92.508C 261.461 91.922 261.336 91.539 261.106 91.203C 260.699 90.641 259.981 90.305 259.153 90.305C 257.551 90.305 256.504 91.598 256.504 93.6094C 256.504 95.5625 257.528 96.8008 259.141 96.8008C 260.563 96.8008 261.461 95.9297 261.574 94.4375L 260.621 94.4375C 260.465 95.4141 259.977 95.9023 259.172 95.9023C 258.129 95.9023 257.504 95.0391 257.504 93.6133C 257.504 92.105 258.113 91.207 259.149 91.207C 259.942 91.207 260.442 91.676 260.555 92.512L 261.504 92.508z"/>
<path style="stroke:none; fill-rule:evenodd; fill:#000000" d="M 264.699 90.5L 263.801 90.5L 263.801 88.832L 262.801 88.832L 262.801 90.5L 261.903 90.5L 261.903 91.297L 262.801 91.297L 262.801 95.8438C 262.801 96.4492 263.203 96.793 263.934 96.793C 264.156 96.793 264.383 96.7695 264.696 96.7109L 264.696 95.875C 264.582 95.9648 264.446 95.9922 264.278 95.9922C 263.903 95.9922 263.797 95.8789 263.797 95.4492L 263.797 91.297L 264.696 91.297L 264.699 90.5z"/>
<path style="stroke:none; fill-rule:evenodd; fill:#000000" d="M 266.699 90.5L 265.699 90.5L 265.699 96.5L 266.699 96.5L 266.699 90.5zM 266.699 88.102L 265.699 88.102L 265.699 89.336L 266.699 89.336L 266.699 88.102z"/>
<path style="stroke:none; fill-rule:evenodd; fill:#000000" d="M 270.77 96.5L 273.074 90.5L 271.996 90.5L 270.301 95.3594L 268.696 90.5L 267.617 90.5L 269.727 96.5L 270.77 96.5z"/>
<path style="stroke:none; fill-rule:evenodd; fill:#000000" d="M 279.199 93.8008C 279.199 92.883 279.133 92.332 278.961 91.887C 278.574 90.902 277.66 90.305 276.543 90.305C 274.879 90.305 273.805 91.598 273.805 93.5859C 273.805 95.5742 274.84 96.8008 276.516 96.8008C 277.879 96.8008 278.824 96.0078 279.067 94.6758L 278.113 94.6758C 277.852 95.4805 277.321 95.8984 276.559 95.8984C 275.957 95.8984 275.446 95.6211 275.129 95.1055C 274.903 94.7578 274.824 94.4062 274.813 93.8008L 279.199 93.8008zM 274.781 93.035C 274.86 91.922 275.539 91.199 276.5 91.199C 277.438 91.199 278.164 91.977 278.164 92.965C 278.164 92.984 278.164 93.008 278.153 93.031L 274.781 93.035z"/>
<path style="stroke:none; fill-rule:evenodd; fill:#000000" d="M 249.199 101.977L 249.199 108L 250.199 108L 250.199 104.191C 250.199 103.312 250.824 102.605 251.594 102.605C 252.297 102.605 252.696 103.043 252.696 103.82L 252.696 108L 253.696 108L 253.696 104.191C 253.696 103.312 254.321 102.605 255.09 102.605C 255.781 102.605 256.192 103.055 256.192 103.82L 256.192 108L 257.192 108L 257.192 103.48C 257.192 102.402 256.571 101.805 255.438 101.805C 254.633 101.805 254.145 102.047 253.582 102.734C 253.227 102.086 252.742 101.805 251.957 101.805C 251.153 101.805 250.621 102.102 250.102 102.824L 250.102 101.977L 249.199 101.977z"/>
<path style="stroke:none; fill-rule:evenodd; fill:#000000" d="M 263.899 105.301C 263.899 104.383 263.832 103.832 263.66 103.387C 263.274 102.402 262.36 101.805 261.242 101.805C 259.578 101.805 258.504 103.098 258.504 105.086C 258.504 107.074 259.539 108.301 261.215 108.301C 262.578 108.301 263.524 107.508 263.766 106.176L 262.813 106.176C 262.551 106.98 262.02 107.398 261.258 107.398C 260.656 107.398 260.145 107.121 259.828 106.605C 259.602 106.258 259.524 105.906 259.512 105.301L 263.899 105.301zM 259.481 104.535C 259.559 103.422 260.239 102.699 261.199 102.699C 262.137 102.699 262.863 103.477 262.863 104.465C 262.863 104.484 262.863 104.508 262.852 104.531L 259.481 104.535z"/>
<path style="stroke:none; fill-rule:evenodd; fill:#000000" d="M 265.199 101.977L 265.199 108L 266.199 108L 266.199 104.191C 266.199 103.312 266.824 102.605 267.594 102.605C 268.297 102.605 268.696 103.043 268.696 103.82L 268.696 108L 269.696 108L 269.696 104.191C 269.696 103.312 270.321 102.605 271.09 102.605C 271.781 102.605 272.192 103.055 272.192 103.82L 272.192 108L 273.192 108L 273.192 103.48C 273.192 102.402 272.571 101.805 271.438 101.805C 270.633 101.805 270.145 102.047 269.582 102.734C 269.227 102.086 268.742 101.805 267.957 101.805C 267.153 101.805 266.621 102.102 266.102 102.824L 266.102 101.977L 265.199 101.977z"/>
<path style="stroke:none; fill-rule:evenodd; fill:#000000" d="M 277.035 101.801C 275.332 101.801 274.301 103.016 274.301 105.051C 274.301 107.086 275.321 108.301 277.051 108.301C 278.754 108.301 279.801 107.09 279.801 105.102C 279.801 103.012 278.793 101.809 277.043 101.809L 277.035 101.801zM 277.051 102.703C 278.145 102.703 278.801 103.59 278.801 105.086C 278.801 106.5 278.125 107.398 277.051 107.398C 275.969 107.398 275.301 106.512 275.301 105.051C 275.301 103.602 275.965 102.703 277.051 102.703z"/>
<path style="stroke:none; fill-rule:evenodd; fill:#000000" d="M 281.098 101.977L 281.098 108L 282.098 108L 282.098 104.867C 282.098 104.004 282.309 103.441 282.758 103.105C 283.047 102.887 283.328 102.82 283.981 102.809L 283.981 101.844C 283.824 101.824 283.746 101.812 283.621 101.812C 283.012 101.812 282.547 102.18 282 103.074L 282 101.984L 281.098 101.977z"/>
<path style="stroke:none; fill-rule:evenodd; fill:#000000" d="M 288.555 102L 286.891 106.668L 285.356 102L 284.336 102L 286.367 108.055L 286.004 109.008C 285.856 109.434 285.641 109.594 285.239 109.594C 285.102 109.594 284.942 109.559 284.735 109.488L 284.735 110.344C 284.926 110.445 285.121 110.492 285.375 110.492C 285.684 110.492 286.016 110.391 286.27 110.207C 286.567 109.992 286.739 109.738 286.922 109.258L 289.594 101.996L 288.555 102z"/>
<path style="stroke:#000000; stroke-width:1.9133; fill:none" d="M 68.66 101.633L 68.66 63.355"/>
<path style="stroke:#000000; stroke-width:1.9133; fill:none" d="M 66.75 71.008L 68.66 63.355L 70.571 71.008"/>
<path style="stroke:none; fill-rule:evenodd; fill:#000000" d="M 53 0L 53 9.797L 54 9.797L 54 8.90199C 54.535 9.711 55.25 10.098 56.231 10.098C 58.086 10.098 59.297 8.59399 59.297 6.27C 59.297 4.004 58.141 2.60201 56.281 2.60201C 55.313 2.60201 54.625 2.957 54.102 3.73L 54.102 0L 53 0zM 56.09 3.629C 57.332 3.629 58.137 4.711 58.137 6.38699C 58.137 7.98 57.309 9.062 56.09 9.062C 54.914 9.062 54.137 7.992 54.137 6.34399C 54.137 4.69901 54.91 3.625 56.09 3.625L 56.09 3.629z"/>
<path style="stroke:none; fill-rule:evenodd; fill:#000000" d="M 61.035 12.641C 62.36 10.883 63.196 8.438 63.196 6.332C 63.196 4.211 62.36 1.77 61.035 0.00799561L 60.309 0.00799561C 61.457 1.92999 62.098 4.18401 62.098 6.332C 62.098 8.465 61.457 10.734 60.309 12.641L 61.035 12.641z"/>
<path style="stroke:none; fill-rule:evenodd; fill:#000000" d="M 74.246 6.80099L 75.25 9.80099L 76.641 9.80099L 73.215 0.0039978L 71.61 0.0039978L 68.129 9.80099L 69.453 9.80099L 70.481 6.80099L 74.246 6.80099zM 73.899 5.80099L 70.793 5.80099L 72.399 1.379L 73.899 5.80099z"/>
<path style="stroke:none; fill-rule:evenodd; fill:#000000" d="M 83.207 5.14101C 83.156 4.44901 83.008 4 82.739 3.605C 82.258 2.98 81.41 2.605 80.43 2.605C 78.539 2.605 77.305 4.09801 77.305 6.422C 77.305 8.67599 78.512 10.102 80.418 10.102C 82.094 10.102 83.156 9.10201 83.289 7.39101L 82.145 7.39101C 81.957 8.53101 81.371 9.10201 80.403 9.10201C 79.153 9.10201 78.403 8.09399 78.403 6.422C 78.403 4.65601 79.137 3.605 80.375 3.605C 81.324 3.605 81.926 4.15601 82.063 5.14101L 83.207 5.14101z"/>
<path style="stroke:none; fill-rule:evenodd; fill:#000000" d="M 87 2.80099L 85.801 2.80099L 85.801 0.854996L 84.703 0.854996L 84.703 2.80099L 83.805 2.80099L 83.805 3.69901L 84.703 3.69901L 84.703 8.98801C 84.703 9.69501 85.192 10.094 86.074 10.094C 86.344 10.094 86.617 10.07 87 10.004L 87 9.07401C 86.848 9.09 86.668 9.09399 86.446 9.09399C 85.946 9.09399 85.805 8.961 85.805 8.46899L 85.805 3.69501L 87.004 3.69501L 87 2.80099z"/>
<path style="stroke:none; fill-rule:evenodd; fill:#000000" d="M 89.301 2.80099L 88.203 2.80099L 88.203 9.80099L 89.301 9.80099L 89.301 2.80099zM 89.301 0L 88.203 0L 88.203 1.44099L 89.301 1.44099L 89.301 0z"/>
<path style="stroke:none; fill-rule:evenodd; fill:#000000" d="M 94.117 9.80099L 96.809 2.80099L 95.551 2.80099L 93.571 8.47301L 91.696 2.80099L 90.438 2.80099L 92.899 9.80099L 94.117 9.80099z"/>
<path style="stroke:none; fill-rule:evenodd; fill:#000000" d="M 104.164 9.145C 104.043 9.19901 103.989 9.19901 103.918 9.19901C 103.524 9.19901 103.301 9 103.301 8.65199L 103.301 4.52299C 103.301 3.27699 102.395 2.605 100.672 2.605C 99.66 2.605 98.821 2.895 98.352 3.414C 98.035 3.77 97.899 4.168 97.875 4.85899L 98.996 4.85899C 99.086 3.996 99.594 3.605 100.637 3.605C 101.637 3.605 102.199 3.98 102.199 4.64799L 102.199 4.94099C 102.199 5.41 101.922 5.60899 101.047 5.715C 99.485 5.914 99.246 5.96899 98.821 6.14101C 98.012 6.47301 97.602 7.105 97.602 8.01601C 97.602 9.285 98.481 10.09 99.891 10.09C 100.77 10.09 101.473 9.785 102.258 9.07001C 102.336 9.77299 102.684 10.09 103.403 10.09C 103.629 10.09 103.801 10.066 104.16 9.97301L 104.164 9.145zM 102.199 7.578C 102.199 7.94501 102.094 8.172 101.758 8.47701C 101.305 8.88699 100.75 9.09801 100.09 9.09801C 99.215 9.09801 98.707 8.688 98.707 7.98801C 98.707 7.26199 99.203 6.89101 100.403 6.71899C 101.586 6.562 101.828 6.508 102.203 6.336L 102.199 7.578z"/>
<path style="stroke:none; fill-rule:evenodd; fill:#000000" d="M 107.801 2.80099L 106.602 2.80099L 106.602 0.854996L 105.504 0.854996L 105.504 2.80099L 104.606 2.80099L 104.606 3.69901L 105.504 3.69901L 105.504 8.98801C 105.504 9.69501 105.992 10.094 106.875 10.094C 107.145 10.094 107.418 10.07 107.801 10.004L 107.801 9.07401C 107.649 9.09 107.469 9.09399 107.246 9.09399C 106.746 9.09399 106.606 8.961 106.606 8.46899L 106.606 3.69501L 107.805 3.69501L 107.801 2.80099z"/>
<path style="stroke:none; fill-rule:evenodd; fill:#000000" d="M 110.098 2.80099L 109 2.80099L 109 9.80099L 110.098 9.80099L 110.098 2.80099zM 110.098 0L 109 0L 109 1.44099L 110.098 1.44099L 110.098 0z"/>
<path style="stroke:none; fill-rule:evenodd; fill:#000000" d="M 114.735 2.60201C 112.781 2.60201 111.598 4.004 111.598 6.35201C 111.598 8.69901 112.766 10.098 114.746 10.098C 116.699 10.098 117.895 8.69901 117.895 6.40601C 117.895 3.992 116.739 2.605 114.735 2.605L 114.735 2.60201zM 114.75 3.60201C 116.031 3.60201 116.797 4.63699 116.797 6.39101C 116.797 8.047 116.004 9.09801 114.75 9.09801C 113.481 9.09801 112.703 8.062 112.703 6.34801C 112.703 4.65199 113.481 3.59801 114.75 3.59801L 114.75 3.60201z"/>
<path style="stroke:none; fill-rule:evenodd; fill:#000000" d="M 119.5 2.80499L 119.5 9.80099L 120.598 9.80099L 120.598 5.957C 120.598 4.535 121.336 3.605 122.469 3.605C 123.336 3.605 123.895 4.13699 123.895 4.97301L 123.895 9.80099L 124.992 9.80099L 124.992 4.51601C 124.992 3.355 124.133 2.60899 122.797 2.60899C 121.766 2.60899 121.106 3.008 120.496 3.98399L 120.496 2.812L 119.5 2.80499z"/>
<path style="stroke:none; fill-rule:evenodd; fill:#000000" d="M 126.5 7.203L 133.297 7.203L 133.297 6.30499L 126.5 6.30499L 126.5 7.203z"/>
<path style="stroke:none; fill-rule:evenodd; fill:#000000" d="M 134.5 0L 134.5 9.797L 135.5 9.797L 135.5 8.90199C 136.035 9.711 136.75 10.098 137.731 10.098C 139.586 10.098 140.797 8.59399 140.797 6.27C 140.797 4.004 139.641 2.60201 137.781 2.60201C 136.813 2.60201 136.125 2.957 135.602 3.73L 135.602 0L 134.5 0zM 137.59 3.629C 138.832 3.629 139.637 4.711 139.637 6.38699C 139.637 7.98 138.809 9.062 137.59 9.062C 136.414 9.062 135.637 7.992 135.637 6.34399C 135.637 4.69901 136.41 3.625 137.59 3.625L 137.59 3.629z"/>
<path style="stroke:none; fill-rule:evenodd; fill:#000000" d="M 148.465 9.145C 148.344 9.19901 148.289 9.19901 148.219 9.19901C 147.824 9.19901 147.602 9 147.602 8.65199L 147.602 4.52299C 147.602 3.27699 146.696 2.605 144.973 2.605C 143.961 2.605 143.121 2.895 142.653 3.414C 142.336 3.77 142.199 4.168 142.176 4.85899L 143.297 4.85899C 143.387 3.996 143.895 3.605 144.938 3.605C 145.938 3.605 146.5 3.98 146.5 4.64799L 146.5 4.94099C 146.5 5.41 146.223 5.60899 145.348 5.715C 143.785 5.914 143.547 5.96899 143.121 6.14101C 142.313 6.47301 141.903 7.105 141.903 8.01601C 141.903 9.285 142.781 10.09 144.192 10.09C 145.071 10.09 145.774 9.785 146.559 9.07001C 146.637 9.77299 146.985 10.09 147.703 10.09C 147.93 10.09 148.102 10.066 148.461 9.97301L 148.465 9.145zM 146.5 7.578C 146.5 7.94501 146.395 8.172 146.059 8.47701C 145.606 8.88699 145.051 9.09801 144.391 9.09801C 143.516 9.09801 143.008 8.688 143.008 7.98801C 143.008 7.26199 143.504 6.89101 144.703 6.71899C 145.887 6.562 146.129 6.508 146.504 6.336L 146.5 7.578z"/>
<path style="stroke:none; fill-rule:evenodd; fill:#000000" d="M 154.567 4.73801C 154.555 3.375 153.656 2.60201 152.059 2.60201C 150.449 2.60201 149.406 3.44501 149.406 4.746C 149.406 5.84399 149.961 6.36301 151.602 6.76601L 152.633 7.02C 153.399 7.207 153.703 7.48801 153.703 7.996C 153.703 8.65199 153.047 9.09399 152.063 9.09399C 151.461 9.09399 150.949 8.918 150.668 8.617C 150.496 8.414 150.414 8.211 150.348 7.707L 149.168 7.707C 149.219 9.32001 150.121 10.094 151.942 10.094C 153.692 10.094 154.809 9.22701 154.809 7.871C 154.809 6.828 154.227 6.254 152.852 5.918L 151.793 5.664C 150.895 5.453 150.512 5.15601 150.512 4.66C 150.512 4.02 151.086 3.60201 151.992 3.60201C 152.887 3.60201 153.367 3.992 153.395 4.73801L 154.567 4.73801z"/>
<path style="stroke:none; fill-rule:evenodd; fill:#000000" d="M 162.301 6.703C 162.301 5.629 162.223 4.98399 162.024 4.461C 161.574 3.30901 160.508 2.60899 159.203 2.60899C 157.262 2.60899 156.008 4.10201 156.008 6.39799C 156.008 8.69099 157.211 10.105 159.16 10.105C 160.75 10.105 161.848 9.19901 162.129 7.67999L 161.004 7.67999C 160.699 8.617 160.067 9.105 159.172 9.105C 158.465 9.105 157.863 8.789 157.489 8.203C 157.223 7.80499 157.129 7.40601 157.113 6.711L 162.301 6.703zM 157.125 5.758C 157.219 4.461 158.008 3.617 159.133 3.617C 160.231 3.617 161.074 4.52699 161.074 5.67599C 161.074 5.69901 161.074 5.72701 161.063 5.754L 157.125 5.758z"/>
<path style="stroke:none; fill-rule:evenodd; fill:#000000" d="M 169.399 0L 168.301 0L 168.301 3.664C 167.84 2.96899 167.102 2.60201 166.176 2.60201C 164.379 2.60201 163.203 4.05499 163.203 6.285C 163.203 8.645 164.348 10.098 166.203 10.098C 167.149 10.098 167.809 9.742 168.399 8.875L 168.399 9.797L 169.399 9.797L 169.399 0zM 166.332 3.60201C 167.535 3.60201 168.297 4.68401 168.297 6.375C 168.297 8.01199 167.524 9.09399 166.344 9.09399C 165.117 9.09399 164.301 8 164.301 6.34801C 164.301 4.69901 165.113 3.59801 166.332 3.59801L 166.332 3.60201z"/>
<path style="stroke:none; fill-rule:evenodd; fill:#ffffff" d="M 244.594 143.758C 244.594 135.309 237.742 128.453 229.289 128.453C 220.84 128.453 213.985 135.305 213.985 143.758C 213.985 152.207 220.836 159.062 229.289 159.062C 237.739 159.062 244.594 152.211 244.594 143.758"/>
<path style="stroke:#000000; stroke-width:1.9133; fill:none" d="M 244.594 143.758C 244.594 135.309 237.742 128.453 229.289 128.453C 220.84 128.453 213.985 135.305 213.985 143.758C 213.985 152.207 220.836 159.062 229.289 159.062C 237.739 159.062 244.594 152.211 244.594 143.758"/>
<path style="stroke:none; fill-rule:evenodd; fill:#ffffff" d="M 229.305 130.363L 215.914 150.453L 242.219 150.453L 229.305 129.41"/>
<path style="stroke:#000000; stroke-width:1.9133; fill:none" d="M 229.305 130.363L 215.914 150.453L 242.219 150.453L 229.305 129.41"/>
<path style="stroke:none; fill-rule:evenodd; fill:#000000" d="M 227.899 141.203L 227 141.203L 227 139.535L 226 139.535L 226 141.203L 225.102 141.203L 225.102 142L 226 142L 226 146.547C 226 147.152 226.403 147.496 227.133 147.496C 227.356 147.496 227.582 147.473 227.895 147.414L 227.895 146.578C 227.781 146.668 227.645 146.695 227.477 146.695C 227.102 146.695 226.996 146.582 226.996 146.152L 226.996 142L 227.895 142L 227.899 141.203z"/>
<path style="stroke:none; fill-rule:evenodd; fill:#000000" d="M 229 141.176L 229 147.199L 230 147.199L 230 144.066C 230 143.203 230.211 142.641 230.66 142.305C 230.949 142.086 231.231 142.02 231.883 142.008L 231.883 141.043C 231.727 141.023 231.649 141.012 231.524 141.012C 230.914 141.012 230.449 141.379 229.903 142.273L 229.903 141.184L 229 141.176z"/>
<path style="stroke:none; fill-rule:evenodd; fill:#000000" d="M 233.699 141.203L 232.699 141.203L 232.699 147.203L 233.699 147.203L 233.699 141.203zM 233.699 138.801L 232.699 138.801L 232.699 140.035L 233.699 140.035L 233.699 138.801z"/>
<path style="stroke:none; fill-rule:evenodd; fill:#000000" d="M 170.735 65.301L 171.449 67.398L 172.442 67.398L 169.996 60.398L 168.852 60.398L 166.367 67.398L 167.313 67.398L 168.047 65.301L 170.735 65.301zM 170.485 64.602L 168.266 64.602L 169.41 61.387L 170.485 64.602z"/>
<path style="stroke:none; fill-rule:evenodd; fill:#000000" d="M 177.004 64.074C 176.969 63.547 176.863 63.207 176.672 62.906C 176.328 62.469 175.727 62.207 175.031 62.207C 173.684 62.207 172.805 63.281 172.805 64.953C 172.805 66.574 173.664 67.602 175.02 67.602C 176.211 67.602 176.969 66.895 177.063 65.68L 176.254 65.68C 176.121 66.492 175.707 66.898 175.02 66.898C 174.133 66.898 173.602 66.164 173.602 64.949C 173.602 63.668 174.121 62.902 175 62.902C 175.672 62.902 176.098 63.32 176.196 64.07L 177.004 64.074z"/>
<path style="stroke:none; fill-rule:evenodd; fill:#000000" d="M 179.699 62.402L 178.903 62.402L 178.903 61.012L 178.106 61.012L 178.106 62.402L 177.406 62.402L 177.406 63.102L 178.106 63.102L 178.106 66.82C 178.106 67.316 178.446 67.598 179.059 67.598C 179.246 67.598 179.438 67.582 179.699 67.535L 179.699 66.887C 179.598 66.898 179.477 66.902 179.328 66.902C 178.996 66.902 178.903 66.809 178.903 66.465L 178.903 63.105L 179.699 63.105L 179.699 62.402z"/>
<path style="stroke:none; fill-rule:evenodd; fill:#000000" d="M 181.399 62.402L 180.602 62.402L 180.602 67.402L 181.399 67.402L 181.399 62.402zM 181.399 60.402L 180.602 60.402L 180.602 61.43L 181.399 61.43L 181.399 60.402z"/>
<path style="stroke:none; fill-rule:evenodd; fill:#000000" d="M 184.824 67.402L 186.746 62.402L 185.848 62.402L 184.434 66.453L 183.098 62.402L 182.199 62.402L 183.957 67.402L 184.824 67.402z"/>
<path style="stroke:none; fill-rule:evenodd; fill:#000000" d="M 192.016 66.934C 191.93 66.906 191.891 66.906 191.84 66.906C 191.559 66.906 191.403 66.766 191.403 66.516L 191.403 63.574C 191.403 62.688 190.758 62.211 189.528 62.211C 188.805 62.211 188.207 62.426 187.871 62.809C 187.645 63.07 187.551 63.367 187.531 63.875L 188.328 63.875C 188.395 63.211 188.754 62.906 189.496 62.906C 190.207 62.906 190.606 63.176 190.606 63.66L 190.606 63.871C 190.606 64.207 190.406 64.352 189.781 64.43C 188.66 64.574 188.489 64.613 188.184 64.738C 187.606 64.977 187.309 65.434 187.309 66.094C 187.309 67.012 187.938 67.594 188.953 67.594C 189.582 67.594 190.09 67.383 190.656 66.879C 190.711 67.371 190.961 67.594 191.477 67.594C 191.637 67.594 191.762 67.578 192.02 67.512L 192.016 66.934zM 190.598 65.812C 190.598 66.074 190.524 66.238 190.281 66.453C 189.957 66.746 189.563 66.895 189.09 66.895C 188.465 66.895 188.102 66.602 188.102 66.102C 188.102 65.582 188.457 65.316 189.313 65.195C 190.156 65.082 190.328 65.047 190.598 64.922L 190.598 65.812z"/>
<path style="stroke:none; fill-rule:evenodd; fill:#000000" d="M 194.598 62.402L 193.801 62.402L 193.801 61.012L 193.004 61.012L 193.004 62.402L 192.305 62.402L 192.305 63.102L 193.004 63.102L 193.004 66.82C 193.004 67.316 193.344 67.598 193.957 67.598C 194.145 67.598 194.336 67.582 194.598 67.535L 194.598 66.887C 194.496 66.898 194.375 66.902 194.227 66.902C 193.895 66.902 193.801 66.809 193.801 66.465L 193.801 63.105L 194.598 63.105L 194.598 62.402z"/>
<path style="stroke:none; fill-rule:evenodd; fill:#000000" d="M 199.801 65.203C 199.801 64.418 199.746 63.945 199.602 63.562C 199.281 62.719 198.52 62.207 197.586 62.207C 196.199 62.207 195.305 63.281 195.305 64.934C 195.305 66.582 196.168 67.602 197.571 67.602C 198.711 67.602 199.504 66.961 199.703 65.883L 198.899 65.883C 198.68 66.551 198.227 66.902 197.586 66.902C 197.078 66.902 196.649 66.676 196.375 66.262C 196.184 65.98 196.117 65.699 196.11 65.207L 199.801 65.203zM 196.133 64.512C 196.199 63.586 196.762 62.984 197.567 62.984C 198.348 62.984 198.953 63.633 198.953 64.457C 198.953 64.473 198.953 64.492 198.946 64.512L 196.133 64.512z"/>
<path style="stroke:none; fill-rule:evenodd; fill:#000000" d="M 204.899 60.402L 204.102 60.402L 204.102 63.02C 203.778 62.488 203.254 62.203 202.602 62.203C 201.336 62.203 200.504 63.25 200.504 64.852C 200.504 66.551 201.317 67.598 202.637 67.598C 203.309 67.598 203.778 67.348 204.199 66.738L 204.199 67.395L 204.899 67.395L 204.899 60.402zM 202.723 62.902C 203.563 62.902 204.098 63.688 204.098 64.922C 204.098 66.113 203.555 66.898 202.735 66.898C 201.875 66.898 201.305 66.102 201.305 64.898C 201.305 63.699 201.875 62.898 202.727 62.898L 202.723 62.902z"/>
<path style="stroke:none; fill-rule:evenodd; fill:#000000" d="M 0 72.602L 2.71899 72.602C 4.5 72.602 5.59399 71.277 5.59399 69.098C 5.59399 66.93 4.508 65.605 2.71899 65.605L 0 65.605L 0 72.602zM 0.899002 71.902L 0.899002 66.305L 2.56299 66.305C 3.957 66.305 4.696 67.266 4.696 69.109C 4.696 70.93 3.961 71.902 2.56299 71.902L 0.899002 71.902z"/>
<path style="stroke:none; fill-rule:evenodd; fill:#000000" d="M 11 70.402C 11 69.617 10.946 69.145 10.801 68.762C 10.481 67.918 9.71899 67.406 8.78499 67.406C 7.399 67.406 6.504 68.48 6.504 70.133C 6.504 71.781 7.36699 72.801 8.76999 72.801C 9.90999 72.801 10.703 72.16 10.903 71.082L 10.098 71.082C 9.879 71.75 9.42599 72.102 8.78499 72.102C 8.278 72.102 7.84799 71.875 7.57399 71.461C 7.383 71.18 7.317 70.898 7.30899 70.406L 11 70.402zM 7.332 69.715C 7.399 68.789 7.961 68.188 8.76599 68.188C 9.547 68.188 10.153 68.836 10.153 69.66C 10.153 69.676 10.153 69.695 10.145 69.715L 7.332 69.715z"/>
<path style="stroke:none; fill-rule:evenodd; fill:#000000" d="M 16.617 72.133C 16.531 72.105 16.492 72.105 16.442 72.105C 16.16 72.105 16.004 71.965 16.004 71.715L 16.004 68.773C 16.004 67.887 15.36 67.41 14.129 67.41C 13.406 67.41 12.809 67.625 12.473 68.008C 12.246 68.27 12.153 68.566 12.133 69.074L 12.93 69.074C 12.996 68.41 13.356 68.105 14.098 68.105C 14.809 68.105 15.207 68.375 15.207 68.859L 15.207 69.07C 15.207 69.406 15.008 69.551 14.383 69.629C 13.262 69.773 13.09 69.812 12.785 69.938C 12.207 70.176 11.91 70.633 11.91 71.293C 11.91 72.211 12.539 72.793 13.555 72.793C 14.184 72.793 14.692 72.582 15.258 72.078C 15.313 72.57 15.563 72.793 16.078 72.793C 16.239 72.793 16.363 72.777 16.621 72.711L 16.617 72.133zM 15.199 71.016C 15.199 71.277 15.125 71.441 14.883 71.656C 14.559 71.949 14.164 72.098 13.692 72.098C 13.067 72.098 12.703 71.805 12.703 71.305C 12.703 70.785 13.059 70.52 13.914 70.398C 14.758 70.285 14.93 70.25 15.199 70.125L 15.199 71.016z"/>
<path style="stroke:none; fill-rule:evenodd; fill:#000000" d="M 21.305 69.273C 21.27 68.746 21.164 68.406 20.973 68.105C 20.629 67.668 20.028 67.406 19.332 67.406C 17.985 67.406 17.106 68.48 17.106 70.152C 17.106 71.773 17.965 72.801 19.321 72.801C 20.512 72.801 21.27 72.094 21.363 70.879L 20.555 70.879C 20.422 71.691 20.008 72.098 19.321 72.098C 18.434 72.098 17.903 71.363 17.903 70.148C 17.903 68.867 18.422 68.102 19.301 68.102C 19.973 68.102 20.399 68.52 20.496 69.27L 21.305 69.273z"/>
<path style="stroke:none; fill-rule:evenodd; fill:#000000" d="M 24 67.602L 23.203 67.602L 23.203 66.211L 22.406 66.211L 22.406 67.602L 21.707 67.602L 21.707 68.301L 22.406 68.301L 22.406 72.02C 22.406 72.516 22.746 72.797 23.36 72.797C 23.547 72.797 23.739 72.781 24 72.734L 24 72.086C 23.899 72.098 23.778 72.102 23.629 72.102C 23.297 72.102 23.203 72.008 23.203 71.664L 23.203 68.305L 24 68.305L 24 67.602z"/>
<path style="stroke:none; fill-rule:evenodd; fill:#000000" d="M 25.598 67.602L 24.801 67.602L 24.801 72.602L 25.598 72.602L 25.598 67.602zM 25.598 65.602L 24.801 65.602L 24.801 66.629L 25.598 66.629L 25.598 65.602z"/>
<path style="stroke:none; fill-rule:evenodd; fill:#000000" d="M 29.028 72.602L 30.949 67.602L 30.051 67.602L 28.637 71.652L 27.301 67.602L 26.403 67.602L 28.16 72.602L 29.028 72.602z"/>
<path style="stroke:none; fill-rule:evenodd; fill:#000000" d="M 36.219 72.133C 36.133 72.105 36.094 72.105 36.043 72.105C 35.762 72.105 35.606 71.965 35.606 71.715L 35.606 68.773C 35.606 67.887 34.961 67.41 33.731 67.41C 33.008 67.41 32.41 67.625 32.074 68.008C 31.848 68.27 31.754 68.566 31.735 69.074L 32.531 69.074C 32.598 68.41 32.957 68.105 33.699 68.105C 34.41 68.105 34.809 68.375 34.809 68.859L 34.809 69.07C 34.809 69.406 34.61 69.551 33.985 69.629C 32.863 69.773 32.692 69.812 32.387 69.938C 31.809 70.176 31.512 70.633 31.512 71.293C 31.512 72.211 32.141 72.793 33.156 72.793C 33.785 72.793 34.293 72.582 34.86 72.078C 34.914 72.57 35.164 72.793 35.68 72.793C 35.84 72.793 35.965 72.777 36.223 72.711L 36.219 72.133zM 34.801 71.016C 34.801 71.277 34.727 71.441 34.485 71.656C 34.16 71.949 33.766 72.098 33.293 72.098C 32.668 72.098 32.305 71.805 32.305 71.305C 32.305 70.785 32.66 70.52 33.516 70.398C 34.36 70.285 34.531 70.25 34.801 70.125L 34.801 71.016z"/>
<path style="stroke:none; fill-rule:evenodd; fill:#000000" d="M 38.801 67.602L 38.004 67.602L 38.004 66.211L 37.207 66.211L 37.207 67.602L 36.508 67.602L 36.508 68.301L 37.207 68.301L 37.207 72.02C 37.207 72.516 37.547 72.797 38.16 72.797C 38.348 72.797 38.539 72.781 38.801 72.734L 38.801 72.086C 38.699 72.098 38.578 72.102 38.43 72.102C 38.098 72.102 38.004 72.008 38.004 71.664L 38.004 68.305L 38.801 68.305L 38.801 67.602z"/>
<path style="stroke:none; fill-rule:evenodd; fill:#000000" d="M 44 70.402C 44 69.617 43.946 69.145 43.801 68.762C 43.481 67.918 42.719 67.406 41.785 67.406C 40.399 67.406 39.504 68.48 39.504 70.133C 39.504 71.781 40.367 72.801 41.77 72.801C 42.91 72.801 43.703 72.16 43.903 71.082L 43.098 71.082C 42.879 71.75 42.426 72.102 41.785 72.102C 41.278 72.102 40.848 71.875 40.574 71.461C 40.383 71.18 40.317 70.898 40.309 70.406L 44 70.402zM 40.332 69.715C 40.399 68.789 40.961 68.188 41.766 68.188C 42.547 68.188 43.153 68.836 43.153 69.66C 43.153 69.676 43.153 69.695 43.145 69.715L 40.332 69.715z"/>
<path style="stroke:none; fill-rule:evenodd; fill:#000000" d="M 49.098 65.602L 48.301 65.602L 48.301 68.219C 47.977 67.688 47.453 67.402 46.801 67.402C 45.535 67.402 44.703 68.449 44.703 70.051C 44.703 71.75 45.516 72.797 46.836 72.797C 47.508 72.797 47.977 72.547 48.399 71.938L 48.399 72.594L 49.098 72.594L 49.098 65.602zM 46.922 68.102C 47.762 68.102 48.297 68.887 48.297 70.121C 48.297 71.312 47.754 72.098 46.934 72.098C 46.074 72.098 45.504 71.301 45.504 70.098C 45.504 68.898 46.074 68.098 46.926 68.098L 46.922 68.102z"/>
<path style="stroke:#000000; stroke-width:0.95664899999999997; fill:none" d="M 55.196 72.008L 106.852 84.441"/>
<path style="stroke:#000000; stroke-width:0.95664899999999997; fill:none" d="M 99.863 80.793L 106.856 84.441L 98.969 84.508"/>
<path style="stroke:#000000; stroke-width:0.95664899999999997; fill:none" d="M 163.774 66.746L 153.254 82.527"/>
<path style="stroke:#000000; stroke-width:0.95664899999999997; fill:none" d="M 159.086 77.223L 153.25 82.527L 155.903 75.102"/>
</g>
</svg>