<?xml version="1.0" encoding="ISO-8859-1" standalone="yes"?>
<svg width="173.175" height="265.046">
  <defs> 
    <marker id="ArrowEnd" viewBox="0 0 10 10" refX="0" refY="5" 
     markerUnits="strokeWidth" 
     markerWidth="4" 
     markerHeight="3" 
     orient="auto"> 
        <path d="M 0 0 L 10 5 L 0 10 z" /> 
    </marker>
    <marker id="ArrowStart" viewBox="0 0 10 10" refX="10" refY="5" 
     markerUnits="strokeWidth" 
     markerWidth="4" 
     markerHeight="3" 
     orient="auto"> 
        <path d="M 10 0 L 0 5 L 10 10 z" /> 
    </marker> </defs>
<g>
<path style="stroke:#000000; stroke-width:1.9139600000000001; fill:none" d="M 10.0308 255.015L 163.144 255.015L 163.144 144.008L 10.0308 144.008L 10.0308 255.015z"/>
<path style="stroke:#000000; stroke-width:1.9139600000000001; fill:none" d="M 105.73 201.426C 105.73 176.058 86.8785 155.492 63.6246 155.492C 40.3707 155.492 21.5191 176.054 21.5191 201.426C 21.5191 226.793 40.3707 247.359 63.6246 247.359C 86.8785 247.359 105.73 226.797 105.73 201.426"/>
<path style="stroke:#000000; stroke-width:1.9139600000000001; fill:none" d="M 147.836 201.426C 147.836 176.058 128.984 155.492 105.73 155.492C 82.4762 155.492 63.6246 176.054 63.6246 201.426C 63.6246 226.793 82.4762 247.359 105.73 247.359C 128.984 247.359 147.836 226.797 147.836 201.426"/>
<path style="stroke:none; fill-rule:evenodd; fill:#000000" d="M 49.9058 172.668L 50.7652 175.168L 51.9566 175.168L 49.0191 166.769L 47.6441 166.769L 44.6598 175.168L 45.7965 175.168L 46.6793 172.668L 49.9058 172.668zM 49.609 171.769L 46.9488 171.769L 48.3238 167.949L 49.609 171.769z"/>
<path style="stroke:none; fill-rule:evenodd; fill:#000000" d="M 110.464 175.168L 114.273 175.168C 115.07 175.168 115.66 174.949 116.113 174.469C 116.527 174.031 116.761 173.433 116.761 172.777C 116.761 171.765 116.289 171.152 115.191 170.742C 115.957 170.387 116.363 169.765 116.363 168.914C 116.363 168.304 116.136 167.765 115.695 167.371C 115.257 166.969 114.683 166.785 113.875 166.785L 110.464 166.785L 110.464 175.168zM 111.566 170.469L 111.566 167.672L 113.605 167.672C 114.195 167.672 114.523 167.754 114.804 167.984C 115.097 168.222 115.257 168.586 115.257 169.07C 115.257 169.539 115.101 169.914 114.804 170.156C 114.523 170.383 114.195 170.469 113.605 170.469L 111.566 170.469zM 111.566 174.269L 111.566 171.371L 114.164 171.371C 114.675 171.371 115.019 171.496 115.273 171.773C 115.523 172.039 115.66 172.406 115.66 172.824C 115.66 173.226 115.523 173.597 115.273 173.859C 115.023 174.133 114.679 174.262 114.164 174.262L 111.566 174.269z"/>
<path style="stroke:#000000; stroke-width:1.9139600000000001; fill:none" d="M 10.0308 121.039L 163.144 121.039L 163.144 10.0308L 10.0308 10.0308L 10.0308 121.039z"/>
<path style="stroke:none; fill-rule:evenodd; fill:#000000" d="M 21.4644 150.293C 21.1285 148.465 20.066 147.57 18.2144 147.57C 17.0816 147.57 16.1676 147.926 15.5465 148.617C 14.7848 149.445 14.3707 150.641 14.3707 152C 14.3707 153.379 14.7965 154.566 15.5933 155.383C 16.2379 156.051 17.0699 156.359 18.1715 156.359C 20.2301 156.359 21.3863 155.246 21.6402 153.008L 20.5348 153.008C 20.4449 153.598 20.3316 154 20.1558 154.348C 19.8121 155.059 19.0972 155.461 18.1988 155.461C 16.5308 155.461 15.4722 154.109 15.4722 151.984C 15.4722 149.805 16.484 148.465 18.109 148.465C 18.7887 148.465 19.4215 148.676 19.7652 149C 20.0738 149.289 20.2457 149.652 20.3746 150.285L 21.4644 150.293z"/>
<path style="stroke:none; fill-rule:evenodd; fill:#000000" d="M 25.3004 149.871C 23.5972 149.871 22.566 151.082 22.566 153.121C 22.566 155.152 23.5855 156.371 25.316 156.371C 27.0191 156.371 28.066 155.16 28.066 153.168C 28.066 151.078 27.0582 149.875 25.3043 149.875L 25.3004 149.871zM 25.316 150.77C 26.4098 150.77 27.066 151.656 27.066 153.152C 27.066 154.566 26.3902 155.465 25.316 155.465C 24.234 155.465 23.5699 154.578 23.5699 153.117C 23.5699 151.668 24.234 150.77 25.316 150.77z"/>
<path style="stroke:none; fill-rule:evenodd; fill:#000000" d="M 29.3629 150.043L 29.3629 156.066L 30.3629 156.066L 30.3629 152.934C 30.3629 152.07 30.5738 151.508 31.023 151.172C 31.3121 150.953 31.5933 150.887 32.2457 150.875L 32.2457 149.91C 32.0894 149.891 32.0074 149.879 31.8824 149.879C 31.273 149.879 30.8082 150.246 30.2613 151.145L 30.2613 150.055L 29.3629 150.043z"/>
<path style="stroke:none; fill-rule:evenodd; fill:#000000" d="M 35.2652 150.07L 34.3668 150.07L 34.3668 148.402L 33.3668 148.402L 33.3668 150.07L 32.4683 150.07L 32.4683 150.867L 33.3668 150.867L 33.3668 155.414C 33.3668 156.02 33.7691 156.363 34.4996 156.363C 34.7222 156.363 34.9488 156.34 35.2613 156.281L 35.2613 155.445C 35.148 155.535 35.0113 155.563 34.8433 155.563C 34.4683 155.563 34.3629 155.449 34.3629 155.02L 34.3629 150.867L 35.2613 150.867L 35.2652 150.07z"/>
<path style="stroke:none; fill-rule:evenodd; fill:#000000" d="M 41.4644 153.371C 41.4644 152.453 41.398 151.902 41.2262 151.457C 40.8394 150.473 39.9254 149.875 38.8082 149.875C 37.1441 149.875 36.0699 151.168 36.0699 153.156C 36.0699 155.145 37.1051 156.371 38.7808 156.371C 40.1441 156.371 41.0933 155.578 41.3316 154.246L 40.3785 154.246C 40.1168 155.051 39.5855 155.469 38.8238 155.469C 38.2222 155.469 37.7105 155.191 37.3941 154.676C 37.1676 154.328 37.0894 153.977 37.0777 153.371L 41.4644 153.371zM 37.0465 152.602C 37.1246 151.488 37.8043 150.766 38.7691 150.766C 39.7105 150.766 40.4332 151.543 40.4332 152.531C 40.4332 152.551 40.4332 152.574 40.4254 152.598L 37.0465 152.602z"/>
<path style="stroke:none; fill-rule:evenodd; fill:#000000" d="M 45.316 152.969L 47.3355 150.074L 46.2574 150.074L 44.8121 152.238L 43.3668 150.074L 42.2769 150.074L 44.2848 153.016L 42.1637 156.07L 43.2535 156.07L 44.7769 153.766L 46.2808 156.07L 47.3941 156.07L 45.316 152.969z"/>
<path style="stroke:none; fill-rule:evenodd; fill:#000000" d="M 20.1637 18.2698L 20.1637 22.0658L 21.2613 22.0658L 21.2613 13.6678L 20.1637 13.6678L 20.1637 17.3668L 15.8668 17.3668L 15.8668 13.6678L 14.7691 13.6678L 14.7691 22.0658L 15.8668 22.0658L 15.8668 18.2698L 20.1637 18.2698z"/>
<path style="stroke:none; fill-rule:evenodd; fill:#000000" d="M 23.8629 16.0697L 22.8629 16.0697L 22.8629 22.0697L 23.8629 22.0697L 23.8629 16.0697zM 23.8629 13.6678L 22.8629 13.6678L 22.8629 14.8978L 23.8629 14.8978L 23.8629 13.6678z"/>
<path style="stroke:none; fill-rule:evenodd; fill:#000000" d="M 25.2652 24.5738L 26.2652 24.5738L 26.2652 21.4727C 26.7652 22.0938 27.3277 22.3708 28.1051 22.3708C 29.648 22.3708 30.6637 21.1128 30.6637 19.1797C 30.6637 17.1448 29.6793 15.8748 28.0816 15.8748C 27.2691 15.8748 26.6129 16.2418 26.1676 16.9528L 26.1676 16.0468L 25.2691 16.0468L 25.2652 24.5738zM 27.9293 16.7698C 28.9762 16.7698 29.6637 17.7068 29.6637 19.1517C 29.6637 20.5267 28.9683 21.4648 27.9293 21.4648C 26.9254 21.4648 26.2652 20.5388 26.2652 19.1168C 26.2652 17.6947 26.9254 16.7698 27.9293 16.7698z"/>
<path style="stroke:none; fill-rule:evenodd; fill:#000000" d="M 31.6637 24.5738L 32.6637 24.5738L 32.6637 21.4727C 33.1637 22.0938 33.7262 22.3708 34.5035 22.3708C 36.0465 22.3708 37.0621 21.1128 37.0621 19.1797C 37.0621 17.1448 36.0777 15.8748 34.4801 15.8748C 33.6676 15.8748 33.0113 16.2418 32.566 16.9528L 32.566 16.0468L 31.6676 16.0468L 31.6637 24.5738zM 34.3316 16.7698C 35.3785 16.7698 36.066 17.7068 36.066 19.1517C 36.066 20.5267 35.3707 21.4648 34.3316 21.4648C 33.3277 21.4648 32.6676 20.5388 32.6676 19.1168C 32.6676 17.6947 33.3277 16.7698 34.3316 16.7698z"/>
<path style="stroke:none; fill-rule:evenodd; fill:#000000" d="M 40.6012 15.8708C 38.898 15.8708 37.8668 17.0818 37.8668 19.1208C 37.8668 21.1517 38.8863 22.3708 40.6168 22.3708C 42.3199 22.3708 43.3668 21.1598 43.3668 19.1678C 43.3668 17.0778 42.359 15.8748 40.6051 15.8748L 40.6012 15.8708zM 40.6129 16.7698C 41.7066 16.7698 42.3629 17.6558 42.3629 19.1517C 42.3629 20.5658 41.6871 21.4648 40.6129 21.4648C 39.5308 21.4648 38.8668 20.5778 38.8668 19.1168C 38.8668 17.6678 39.5308 16.7698 40.6129 16.7698z"/>
<path style="stroke:none; fill-rule:evenodd; fill:#000000" d="M 49.273 18.0738C 49.2301 17.4878 49.1051 17.1058 48.8746 16.7728C 48.4683 16.2108 47.7496 15.8748 46.9176 15.8748C 45.316 15.8748 44.2691 17.1678 44.2691 19.1797C 44.2691 21.1328 45.2926 22.3708 46.9098 22.3708C 48.3316 22.3708 49.2301 21.4958 49.3433 20.0078L 48.3902 20.0078C 48.234 20.9837 47.7457 21.4727 46.9371 21.4727C 45.8941 21.4727 45.2691 20.6087 45.2691 19.1838C 45.2691 17.6758 45.8785 16.7767 46.9137 16.7767C 47.7066 16.7767 48.2066 17.2458 48.3199 18.0778L 49.273 18.0738z"/>
<path style="stroke:none; fill-rule:evenodd; fill:#000000" d="M 55.7066 21.5078C 55.6012 21.5697 55.5543 21.5697 55.4957 21.5697C 55.1558 21.5697 54.9683 21.3978 54.9683 21.0977L 54.9683 17.5308C 54.9683 16.4568 54.191 15.8748 52.7183 15.8748C 51.8512 15.8748 51.1324 16.1288 50.7301 16.5778C 50.4566 16.8867 50.3433 17.2337 50.3199 17.8358L 51.2652 17.8358C 51.3433 17.1058 51.7691 16.7767 52.6519 16.7767C 53.4957 16.7767 53.9683 17.0977 53.9683 17.6758L 53.9683 17.9297C 53.9683 18.3318 53.734 18.5038 52.9918 18.5977C 51.6676 18.7698 51.4644 18.8158 51.1051 18.9648C 50.4215 19.2498 50.0738 19.7928 50.0738 20.5778C 50.0738 21.6718 50.8277 22.3628 52.0426 22.3628C 52.7965 22.3628 53.4019 22.0898 54.0777 21.4447C 54.1441 22.0778 54.441 22.3628 55.0621 22.3628C 55.2535 22.3628 55.4019 22.3398 55.7105 22.2578L 55.7066 21.5078zM 53.9644 20.2068C 53.9644 20.5348 53.8785 20.7378 53.5972 21.0117C 53.2183 21.3748 52.7613 21.5658 52.2144 21.5658C 51.4918 21.5658 51.0699 21.2028 51.0699 20.5738C 51.0699 19.9258 51.4801 19.5938 52.4722 19.4408C 53.4527 19.3008 53.6519 19.2538 53.9644 19.0977L 53.9644 20.2068z"/>
<path style="stroke:none; fill-rule:evenodd; fill:#000000" d="M 56.7652 16.0428L 56.7652 22.0658L 57.7652 22.0658L 57.7652 18.2578C 57.7652 17.3788 58.3902 16.6718 59.1598 16.6718C 59.8629 16.6718 60.2613 17.1087 60.2613 17.8867L 60.2613 22.0658L 61.2613 22.0658L 61.2613 18.2578C 61.2613 17.3788 61.8863 16.6718 62.6558 16.6718C 63.3472 16.6718 63.7574 17.1208 63.7574 17.8867L 63.7574 22.0658L 64.7574 22.0658L 64.7574 17.5468C 64.7574 16.4688 64.1363 15.8668 63.0035 15.8668C 62.1988 15.8668 61.7105 16.1087 61.148 16.7928C 60.7926 16.1448 60.3082 15.8668 59.523 15.8668C 58.7183 15.8668 58.1871 16.1638 57.6676 16.8908L 57.6676 16.0428L 56.7652 16.0428z"/>
<path style="stroke:none; fill-rule:evenodd; fill:#000000" d="M 66.1637 24.5738L 67.1637 24.5738L 67.1637 21.4727C 67.6637 22.0938 68.2262 22.3708 69.0035 22.3708C 70.5465 22.3708 71.5621 21.1128 71.5621 19.1797C 71.5621 17.1448 70.5777 15.8748 68.9801 15.8748C 68.1676 15.8748 67.5113 16.2418 67.066 16.9528L 67.066 16.0468L 66.1676 16.0468L 66.1637 24.5738zM 68.8316 16.7698C 69.8785 16.7698 70.566 17.7068 70.566 19.1517C 70.566 20.5267 69.8707 21.4648 68.8316 21.4648C 67.8277 21.4648 67.1676 20.5388 67.1676 19.1168C 67.1676 17.6947 67.8277 16.7698 68.8316 16.7698z"/>
<path style="stroke:none; fill-rule:evenodd; fill:#000000" d="M 77.566 22.1058L 77.566 16.0697L 76.566 16.0697L 76.566 19.5158C 76.566 20.7538 75.9215 21.5658 74.9176 21.5658C 74.1558 21.5658 73.6715 21.1058 73.6715 20.3748L 73.6715 16.0697L 72.6715 16.0697L 72.6715 20.7227C 72.6715 21.7227 73.4293 22.3668 74.6207 22.3668C 75.5191 22.3668 76.0933 22.0588 76.6637 21.2658L 76.6637 22.1058L 77.566 22.1058z"/>
<path style="stroke:none; fill-rule:evenodd; fill:#000000" d="M 83.3941 17.7298C 83.3824 16.5428 82.5972 15.8748 81.1949 15.8748C 79.7848 15.8748 78.8668 16.6018 78.8668 17.7188C 78.8668 18.6638 79.3551 19.1128 80.8043 19.4608L 81.7144 19.6797C 82.3902 19.8398 82.6598 20.0818 82.6598 20.5198C 82.6598 21.0818 82.0933 21.4648 81.2496 21.4648C 80.7301 21.4648 80.2926 21.3158 80.0504 21.0588C 79.9019 20.8867 79.8316 20.7108 79.7769 20.2767L 78.7613 20.2767C 78.8043 21.6878 79.5894 22.3668 81.1715 22.3668C 82.6949 22.3668 83.6637 21.6168 83.6637 20.4528C 83.6637 19.5547 83.1519 19.0588 81.9371 18.7698L 81.0035 18.5508C 80.2105 18.3668 79.8707 18.1128 79.8707 17.6878C 79.8707 17.1367 80.3668 16.7767 81.1558 16.7767C 81.9332 16.7767 82.3512 17.1058 82.3746 17.7337L 83.3941 17.7298z"/>
<path style="stroke:none; fill-rule:evenodd; fill:#ff0000" d="M 40.6363 201.445C 40.6363 199.336 38.9254 197.621 36.8121 197.621C 34.7027 197.621 32.9879 199.332 32.9879 201.445C 32.9879 203.554 34.6988 205.269 36.8121 205.269C 38.9215 205.269 40.6363 203.558 40.6363 201.445"/>
<path style="stroke:#000000; stroke-width:0.95698000000000005; fill:none" d="M 40.6363 201.445C 40.6363 199.336 38.9254 197.621 36.8121 197.621C 34.7027 197.621 32.9879 199.332 32.9879 201.445C 32.9879 203.554 34.6988 205.269 36.8121 205.269C 38.9215 205.269 40.6363 203.558 40.6363 201.445"/>
<path style="stroke:none; fill-rule:evenodd; fill:#ff0000" d="M 40.6402 182.308C 40.6402 180.199 38.9293 178.484 36.816 178.484C 34.7066 178.484 32.9918 180.195 32.9918 182.308C 32.9918 184.418 34.7027 186.133 36.816 186.133C 38.9254 186.133 40.6402 184.422 40.6402 182.308"/>
<path style="stroke:#000000; stroke-width:0.95698000000000005; fill:none" d="M 40.6402 182.308C 40.6402 180.199 38.9293 178.484 36.816 178.484C 34.7066 178.484 32.9918 180.195 32.9918 182.308C 32.9918 184.418 34.7027 186.133 36.816 186.133C 38.9254 186.133 40.6402 184.422 40.6402 182.308"/>
<path style="stroke:none; fill-rule:evenodd; fill:#ff0000" d="M 55.9488 189.957C 55.9488 187.847 54.2379 186.133 52.1246 186.133C 50.0152 186.133 48.3004 187.844 48.3004 189.957C 48.3004 192.066 50.0113 193.781 52.1246 193.781C 54.234 193.781 55.9488 192.07 55.9488 189.957"/>
<path style="stroke:#000000; stroke-width:0.95698000000000005; fill:none" d="M 55.9488 189.957C 55.9488 187.847 54.2379 186.133 52.1246 186.133C 50.0152 186.133 48.3004 187.844 48.3004 189.957C 48.3004 192.066 50.0113 193.781 52.1246 193.781C 54.234 193.781 55.9488 192.07 55.9488 189.957"/>
<path style="stroke:none; fill-rule:evenodd; fill:#ff0000" d="M 67.4293 174.648C 67.4293 172.539 65.7183 170.824 63.6051 170.824C 61.4957 170.824 59.7808 172.535 59.7808 174.648C 59.7808 176.758 61.4918 178.472 63.6051 178.472C 65.7144 178.472 67.4293 176.762 67.4293 174.648"/>
<path style="stroke:#000000; stroke-width:0.95698000000000005; fill:none" d="M 67.4293 174.648C 67.4293 172.539 65.7183 170.824 63.6051 170.824C 61.4957 170.824 59.7808 172.535 59.7808 174.648C 59.7808 176.758 61.4918 178.472 63.6051 178.472C 65.7144 178.472 67.4293 176.762 67.4293 174.648"/>
<path style="stroke:none; fill-rule:evenodd; fill:#ff0000" d="M 59.7808 216.738C 59.7808 214.629 58.0699 212.914 55.9566 212.914C 53.8472 212.914 52.1324 214.625 52.1324 216.738C 52.1324 218.847 53.8433 220.562 55.9566 220.562C 58.066 220.562 59.7808 218.851 59.7808 216.738"/>
<path style="stroke:#000000; stroke-width:0.95698000000000005; fill:none" d="M 59.7808 216.738C 59.7808 214.629 58.0699 212.914 55.9566 212.914C 53.8472 212.914 52.1324 214.625 52.1324 216.738C 52.1324 218.847 53.8433 220.562 55.9566 220.562C 58.066 220.562 59.7808 218.851 59.7808 216.738"/>
<path style="stroke:none; fill-rule:evenodd; fill:#ffff00" d="M 86.5699 189.953C 86.5699 187.844 84.859 186.129 82.7457 186.129C 80.6363 186.129 78.9215 187.84 78.9215 189.953C 78.9215 192.062 80.6324 193.777 82.7457 193.777C 84.8551 193.777 86.5699 192.066 86.5699 189.953"/>
<path style="stroke:#000000; stroke-width:0.95698000000000005; fill:none" d="M 86.5699 189.953C 86.5699 187.844 84.859 186.129 82.7457 186.129C 80.6363 186.129 78.9215 187.84 78.9215 189.953C 78.9215 192.062 80.6324 193.777 82.7457 193.777C 84.8551 193.777 86.5699 192.066 86.5699 189.953"/>
<path style="stroke:none; fill-rule:evenodd; fill:#ffff00" d="M 90.398 174.644C 90.398 172.535 88.687 170.82 86.5738 170.82C 84.4644 170.82 82.7496 172.531 82.7496 174.644C 82.7496 176.754 84.4605 178.469 86.5738 178.469C 88.683 178.469 90.398 176.758 90.398 174.644"/>
<path style="stroke:#000000; stroke-width:0.95698000000000005; fill:none" d="M 90.398 174.644C 90.398 172.535 88.687 170.82 86.5738 170.82C 84.4644 170.82 82.7496 172.531 82.7496 174.644C 82.7496 176.754 84.4605 178.469 86.5738 178.469C 88.683 178.469 90.398 176.758 90.398 174.644"/>
<path style="stroke:none; fill-rule:evenodd; fill:#ffff00" d="M 90.402 212.906C 90.402 210.797 88.691 209.082 86.5777 209.082C 84.4683 209.082 82.7535 210.793 82.7535 212.906C 82.7535 215.015 84.4644 216.73 86.5777 216.73C 88.687 216.73 90.402 215.019 90.402 212.906"/>
<path style="stroke:#000000; stroke-width:0.95698000000000005; fill:none" d="M 90.402 212.906C 90.402 210.797 88.691 209.082 86.5777 209.082C 84.4683 209.082 82.7535 210.793 82.7535 212.906C 82.7535 215.015 84.4644 216.73 86.5777 216.73C 88.687 216.73 90.402 215.019 90.402 212.906"/>
<path style="stroke:none; fill-rule:evenodd; fill:#ffff00" d="M 78.9215 201.426C 78.9215 199.316 77.2105 197.601 75.0972 197.601C 72.9879 197.601 71.273 199.312 71.273 201.426C 71.273 203.535 72.984 205.25 75.0972 205.25C 77.2066 205.25 78.9215 203.539 78.9215 201.426"/>
<path style="stroke:#000000; stroke-width:0.95698000000000005; fill:none" d="M 78.9215 201.426C 78.9215 199.316 77.2105 197.601 75.0972 197.601C 72.9879 197.601 71.273 199.312 71.273 201.426C 71.273 203.535 72.984 205.25 75.0972 205.25C 77.2066 205.25 78.9215 203.539 78.9215 201.426"/>
<path style="stroke:none; fill-rule:evenodd; fill:#ffff00" d="M 101.886 197.594C 101.886 195.484 100.175 193.769 98.062 193.769C 95.953 193.769 94.238 195.48 94.238 197.594C 94.238 199.703 95.949 201.418 98.062 201.418C 100.171 201.418 101.886 199.707 101.886 197.594"/>
<path style="stroke:#000000; stroke-width:0.95698000000000005; fill:none" d="M 101.886 197.594C 101.886 195.484 100.175 193.769 98.062 193.769C 95.953 193.769 94.238 195.48 94.238 197.594C 94.238 199.703 95.949 201.418 98.062 201.418C 100.171 201.418 101.886 199.707 101.886 197.594"/>
<path style="stroke:none; fill-rule:evenodd; fill:#ff0000" d="M 59.7965 239.683C 59.7965 237.574 58.0855 235.859 55.9722 235.859C 53.8629 235.859 52.148 237.57 52.148 239.683C 52.148 241.793 53.859 243.508 55.9722 243.508C 58.0816 243.508 59.7965 241.797 59.7965 239.683"/>
<path style="stroke:#000000; stroke-width:0.95698000000000005; fill:none" d="M 59.7965 239.683C 59.7965 237.574 58.0855 235.859 55.9722 235.859C 53.8629 235.859 52.148 237.57 52.148 239.683C 52.148 241.793 53.859 243.508 55.9722 243.508C 58.0816 243.508 59.7965 241.797 59.7965 239.683"/>
<path style="stroke:none; fill-rule:evenodd; fill:#ff0000" d="M 44.4683 224.394C 44.4683 222.285 42.7574 220.57 40.6441 220.57C 38.5348 220.57 36.8199 222.281 36.8199 224.394C 36.8199 226.504 38.5308 228.219 40.6441 228.219C 42.7535 228.219 44.4683 226.508 44.4683 224.394"/>
<path style="stroke:#000000; stroke-width:0.95698000000000005; fill:none" d="M 44.4683 224.394C 44.4683 222.285 42.7574 220.57 40.6441 220.57C 38.5348 220.57 36.8199 222.281 36.8199 224.394C 36.8199 226.504 38.5308 228.219 40.6441 228.219C 42.7535 228.219 44.4683 226.508 44.4683 224.394"/>
<path style="stroke:none; fill-rule:evenodd; fill:#ff0000" d="M 55.9527 201.433C 55.9527 199.324 54.2418 197.609 52.1285 197.609C 50.0191 197.609 48.3043 199.32 48.3043 201.433C 48.3043 203.543 50.0152 205.258 52.1285 205.258C 54.2379 205.258 55.9527 203.547 55.9527 201.433"/>
<path style="stroke:#000000; stroke-width:0.95698000000000005; fill:none" d="M 55.9527 201.433C 55.9527 199.324 54.2418 197.609 52.1285 197.609C 50.0191 197.609 48.3043 199.32 48.3043 201.433C 48.3043 203.543 50.0152 205.258 52.1285 205.258C 54.2379 205.258 55.9527 203.547 55.9527 201.433"/>
<path style="stroke:none; fill-rule:evenodd; fill:#ff0000" d="M 63.609 228.219C 63.609 226.109 61.898 224.394 59.7848 224.394C 57.6754 224.394 55.9605 226.105 55.9605 228.219C 55.9605 230.328 57.6715 232.043 59.7848 232.043C 61.8941 232.043 63.609 230.332 63.609 228.219"/>
<path style="stroke:#000000; stroke-width:0.95698000000000005; fill:none" d="M 63.609 228.219C 63.609 226.109 61.898 224.394 59.7848 224.394C 57.6754 224.394 55.9605 226.105 55.9605 228.219C 55.9605 230.328 57.6715 232.043 59.7848 232.043C 61.8941 232.043 63.609 230.332 63.609 228.219"/>
<path style="stroke:none; fill-rule:evenodd; fill:#ffff00" d="M 86.5699 228.215C 86.5699 226.105 84.859 224.39 82.7457 224.39C 80.6363 224.39 78.9215 226.101 78.9215 228.215C 78.9215 230.324 80.6324 232.039 82.7457 232.039C 84.8551 232.039 86.5699 230.328 86.5699 228.215"/>
<path style="stroke:#000000; stroke-width:0.95698000000000005; fill:none" d="M 86.5699 228.215C 86.5699 226.105 84.859 224.39 82.7457 224.39C 80.6363 224.39 78.9215 226.101 78.9215 228.215C 78.9215 230.324 80.6324 232.039 82.7457 232.039C 84.8551 232.039 86.5699 230.328 86.5699 228.215"/>
<path style="stroke:none; fill-rule:evenodd; fill:#ff0000" d="M 67.441 163.16C 67.441 161.051 65.7301 159.336 63.6168 159.336C 61.5074 159.336 59.7926 161.047 59.7926 163.16C 59.7926 165.269 61.5035 166.984 63.6168 166.984C 65.7262 166.984 67.441 165.273 67.441 163.16"/>
<path style="stroke:#000000; stroke-width:0.95698000000000005; fill:none" d="M 67.441 163.16C 67.441 161.051 65.7301 159.336 63.6168 159.336C 61.5074 159.336 59.7926 161.047 59.7926 163.16C 59.7926 165.269 61.5035 166.984 63.6168 166.984C 65.7262 166.984 67.441 165.273 67.441 163.16"/>
<path style="stroke:none; fill-rule:evenodd; fill:#ffa400" d="M 121.015 197.597C 121.015 195.488 119.304 193.773 117.191 193.773C 115.082 193.773 113.367 195.484 113.367 197.597C 113.367 199.707 115.078 201.422 117.191 201.422C 119.3 201.422 121.015 199.711 121.015 197.597"/>
<path style="stroke:#000000; stroke-width:0.95698000000000005; fill:none" d="M 121.015 197.597C 121.015 195.488 119.304 193.773 117.191 193.773C 115.082 193.773 113.367 195.484 113.367 197.597C 113.367 199.707 115.078 201.422 117.191 201.422C 119.3 201.422 121.015 199.711 121.015 197.597"/>
<path style="stroke:none; fill-rule:evenodd; fill:#ffa400" d="M 132.5 174.637C 132.5 172.527 130.789 170.812 128.675 170.812C 126.566 170.812 124.851 172.523 124.851 174.637C 124.851 176.746 126.562 178.461 128.675 178.461C 130.785 178.461 132.5 176.75 132.5 174.637"/>
<path style="stroke:#000000; stroke-width:0.95698000000000005; fill:none" d="M 132.5 174.637C 132.5 172.527 130.789 170.812 128.675 170.812C 126.566 170.812 124.851 172.523 124.851 174.637C 124.851 176.746 126.562 178.461 128.675 178.461C 130.785 178.461 132.5 176.75 132.5 174.637"/>
<path style="stroke:none; fill-rule:evenodd; fill:#ffa400" d="M 121.019 212.898C 121.019 210.789 119.308 209.074 117.195 209.074C 115.086 209.074 113.371 210.785 113.371 212.898C 113.371 215.008 115.082 216.722 117.195 216.722C 119.304 216.722 121.019 215.012 121.019 212.898"/>
<path style="stroke:#000000; stroke-width:0.95698000000000005; fill:none" d="M 121.019 212.898C 121.019 210.789 119.308 209.074 117.195 209.074C 115.086 209.074 113.371 210.785 113.371 212.898C 113.371 215.008 115.082 216.722 117.195 216.722C 119.304 216.722 121.019 215.012 121.019 212.898"/>
<path style="stroke:none; fill-rule:evenodd; fill:#ffa400" d="M 132.504 216.722C 132.504 214.613 130.793 212.898 128.679 212.898C 126.57 212.898 124.855 214.609 124.855 216.722C 124.855 218.832 126.566 220.547 128.679 220.547C 130.789 220.547 132.504 218.836 132.504 216.722"/>
<path style="stroke:#000000; stroke-width:0.95698000000000005; fill:none" d="M 132.504 216.722C 132.504 214.613 130.793 212.898 128.679 212.898C 126.57 212.898 124.855 214.609 124.855 216.722C 124.855 218.832 126.566 220.547 128.679 220.547C 130.789 220.547 132.504 218.836 132.504 216.722"/>
<path style="stroke:none; fill-rule:evenodd; fill:#ffa400" d="M 140.16 193.758C 140.16 191.648 138.449 189.933 136.336 189.933C 134.226 189.933 132.511 191.644 132.511 193.758C 132.511 195.867 134.222 197.582 136.336 197.582C 138.445 197.582 140.16 195.871 140.16 193.758"/>
<path style="stroke:#000000; stroke-width:0.95698000000000005; fill:none" d="M 140.16 193.758C 140.16 191.648 138.449 189.933 136.336 189.933C 134.226 189.933 132.511 191.644 132.511 193.758C 132.511 195.867 134.222 197.582 136.336 197.582C 138.445 197.582 140.16 195.871 140.16 193.758"/>
<path style="stroke:none; fill-rule:evenodd; fill:#ffa400" d="M 117.203 232.023C 117.203 229.914 115.492 228.199 113.378 228.199C 111.269 228.199 109.554 229.91 109.554 232.023C 109.554 234.133 111.265 235.847 113.378 235.847C 115.488 235.847 117.203 234.137 117.203 232.023"/>
<path style="stroke:#000000; stroke-width:0.95698000000000005; fill:none" d="M 117.203 232.023C 117.203 229.914 115.492 228.199 113.378 228.199C 111.269 228.199 109.554 229.91 109.554 232.023C 109.554 234.133 111.265 235.847 113.378 235.847C 115.488 235.847 117.203 234.137 117.203 232.023"/>
<path style="stroke:none; fill-rule:evenodd; fill:#ffa400" d="M 113.378 220.539C 113.378 218.429 111.668 216.715 109.554 216.715C 107.445 216.715 105.73 218.426 105.73 220.539C 105.73 222.648 107.441 224.363 109.554 224.363C 111.664 224.363 113.378 222.652 113.378 220.539"/>
<path style="stroke:#000000; stroke-width:0.95698000000000005; fill:none" d="M 113.378 220.539C 113.378 218.429 111.668 216.715 109.554 216.715C 107.445 216.715 105.73 218.426 105.73 220.539C 105.73 222.648 107.441 224.363 109.554 224.363C 111.664 224.363 113.378 222.652 113.378 220.539"/>
<path style="stroke:none; fill-rule:evenodd; fill:#ffa400" d="M 105.726 163.14C 105.726 161.031 104.015 159.316 101.902 159.316C 99.793 159.316 98.078 161.027 98.078 163.14C 98.078 165.25 99.789 166.965 101.902 166.965C 104.011 166.965 105.726 165.254 105.726 163.14"/>
<path style="stroke:#000000; stroke-width:0.95698000000000005; fill:none" d="M 105.726 163.14C 105.726 161.031 104.015 159.316 101.902 159.316C 99.793 159.316 98.078 161.027 98.078 163.14C 98.078 165.25 99.789 166.965 101.902 166.965C 104.011 166.965 105.726 165.254 105.726 163.14"/>
<path style="stroke:none; fill-rule:evenodd; fill:#ffa400" d="M 117.211 186.097C 117.211 183.988 115.5 182.273 113.386 182.273C 111.277 182.273 109.562 183.984 109.562 186.097C 109.562 188.207 111.273 189.922 113.386 189.922C 115.496 189.922 117.211 188.211 117.211 186.097"/>
<path style="stroke:#000000; stroke-width:0.95698000000000005; fill:none" d="M 117.211 186.097C 117.211 183.988 115.5 182.273 113.386 182.273C 111.277 182.273 109.562 183.984 109.562 186.097C 109.562 188.207 111.273 189.922 113.386 189.922C 115.496 189.922 117.211 188.211 117.211 186.097"/>
<path style="stroke:none; fill-rule:evenodd; fill:#ffa400" d="M 128.695 186.094C 128.695 183.984 126.984 182.269 124.871 182.269C 122.761 182.269 121.046 183.98 121.046 186.094C 121.046 188.203 122.757 189.918 124.871 189.918C 126.98 189.918 128.695 188.207 128.695 186.094"/>
<path style="stroke:#000000; stroke-width:0.95698000000000005; fill:none" d="M 128.695 186.094C 128.695 183.984 126.984 182.269 124.871 182.269C 122.761 182.269 121.046 183.98 121.046 186.094C 121.046 188.203 122.757 189.918 124.871 189.918C 126.98 189.918 128.695 188.207 128.695 186.094"/>
<path style="stroke:none; fill-rule:evenodd; fill:#ffa400" d="M 132.523 205.222C 132.523 203.113 130.812 201.398 128.699 201.398C 126.589 201.398 124.875 203.109 124.875 205.222C 124.875 207.332 126.586 209.047 128.699 209.047C 130.808 209.047 132.523 207.336 132.523 205.222"/>
<path style="stroke:#000000; stroke-width:0.95698000000000005; fill:none" d="M 132.523 205.222C 132.523 203.113 130.812 201.398 128.699 201.398C 126.589 201.398 124.875 203.109 124.875 205.222C 124.875 207.332 126.586 209.047 128.699 209.047C 130.808 209.047 132.523 207.336 132.523 205.222"/>
<path style="stroke:none; fill-rule:evenodd; fill:#ffa400" d="M 132.527 228.179C 132.527 226.07 130.816 224.355 128.703 224.355C 126.593 224.355 124.878 226.066 124.878 228.179C 124.878 230.289 126.589 232.004 128.703 232.004C 130.812 232.004 132.527 230.293 132.527 228.179"/>
<path style="stroke:#000000; stroke-width:0.95698000000000005; fill:none" d="M 132.527 228.179C 132.527 226.07 130.816 224.355 128.703 224.355C 126.593 224.355 124.878 226.066 124.878 228.179C 124.878 230.289 126.589 232.004 128.703 232.004C 130.812 232.004 132.527 230.293 132.527 228.179"/>
<path style="stroke:none; fill-rule:evenodd; fill:#ffa400" d="M 144.007 209.043C 144.007 206.933 142.296 205.219 140.183 205.219C 138.074 205.219 136.359 206.929 136.359 209.043C 136.359 211.152 138.07 212.867 140.183 212.867C 142.293 212.867 144.007 211.156 144.007 209.043"/>
<path style="stroke:#000000; stroke-width:0.95698000000000005; fill:none" d="M 144.007 209.043C 144.007 206.933 142.296 205.219 140.183 205.219C 138.074 205.219 136.359 206.929 136.359 209.043C 136.359 211.152 138.07 212.867 140.183 212.867C 142.293 212.867 144.007 211.156 144.007 209.043"/>
<path style="stroke:none; fill-rule:evenodd; fill:#7e7e7e" d="M 36.8668 71.2848C 36.8668 69.1758 35.1558 67.4608 33.0426 67.4608C 30.9332 67.4608 29.2183 69.1718 29.2183 71.2848C 29.2183 73.3948 30.9293 75.1087 33.0426 75.1087C 35.1519 75.1087 36.8668 73.3978 36.8668 71.2848"/>
<path style="stroke:#000000; stroke-width:0.95698000000000005; fill:none" d="M 36.8668 71.2848C 36.8668 69.1758 35.1558 67.4608 33.0426 67.4608C 30.9332 67.4608 29.2183 69.1718 29.2183 71.2848C 29.2183 73.3948 30.9293 75.1087 33.0426 75.1087C 35.1519 75.1087 36.8668 73.3978 36.8668 71.2848"/>
<path style="stroke:none; fill-rule:evenodd; fill:#7e7e7e" d="M 48.3472 71.2808C 48.3472 69.1718 46.6363 67.4568 44.523 67.4568C 42.4137 67.4568 40.6988 69.1678 40.6988 71.2808C 40.6988 73.3908 42.4098 75.1058 44.523 75.1058C 46.6324 75.1058 48.3472 73.3948 48.3472 71.2808"/>
<path style="stroke:#000000; stroke-width:0.95698000000000005; fill:none" d="M 48.3472 71.2808C 48.3472 69.1718 46.6363 67.4568 44.523 67.4568C 42.4137 67.4568 40.6988 69.1678 40.6988 71.2808C 40.6988 73.3908 42.4098 75.1058 44.523 75.1058C 46.6324 75.1058 48.3472 73.3948 48.3472 71.2808"/>
<path style="stroke:none; fill-rule:evenodd; fill:#7e7e7e" d="M 132.535 71.2767C 132.535 69.1678 130.824 67.4528 128.711 67.4528C 126.601 67.4528 124.886 69.1638 124.886 71.2767C 124.886 73.3867 126.597 75.1018 128.711 75.1018C 130.82 75.1018 132.535 73.3908 132.535 71.2767"/>
<path style="stroke:#000000; stroke-width:0.95698000000000005; fill:none" d="M 132.535 71.2767C 132.535 69.1678 130.824 67.4528 128.711 67.4528C 126.601 67.4528 124.886 69.1638 124.886 71.2767C 124.886 73.3867 126.597 75.1018 128.711 75.1018C 130.82 75.1018 132.535 73.3908 132.535 71.2767"/>
<path style="stroke:none; fill-rule:evenodd; fill:#7e7e7e" d="M 147.843 71.2767C 147.843 69.1678 146.132 67.4528 144.019 67.4528C 141.91 67.4528 140.195 69.1638 140.195 71.2767C 140.195 73.3867 141.906 75.1018 144.019 75.1018C 146.128 75.1018 147.843 73.3908 147.843 71.2767"/>
<path style="stroke:#000000; stroke-width:0.95698000000000005; fill:none" d="M 147.843 71.2767C 147.843 69.1678 146.132 67.4528 144.019 67.4528C 141.91 67.4528 140.195 69.1638 140.195 71.2767C 140.195 73.3867 141.906 75.1018 144.019 75.1018C 146.128 75.1018 147.843 73.3908 147.843 71.2767"/>
<path style="stroke:none; fill-rule:evenodd; fill:#7e7e7e" d="M 75.1402 71.2728C 75.1402 69.1638 73.4293 67.4488 71.316 67.4488C 69.2066 67.4488 67.4918 69.1598 67.4918 71.2728C 67.4918 73.3828 69.2027 75.0977 71.316 75.0977C 73.4254 75.0977 75.1402 73.3867 75.1402 71.2728"/>
<path style="stroke:#000000; stroke-width:0.95698000000000005; fill:none" d="M 75.1402 71.2728C 75.1402 69.1638 73.4293 67.4488 71.316 67.4488C 69.2066 67.4488 67.4918 69.1598 67.4918 71.2728C 67.4918 73.3828 69.2027 75.0977 71.316 75.0977C 73.4254 75.0977 75.1402 73.3867 75.1402 71.2728"/>
<path style="stroke:none; fill-rule:evenodd; fill:#7e7e7e" d="M 71.3199 44.4837C 71.3199 42.3748 69.609 40.6598 67.4957 40.6598C 65.3863 40.6598 63.6715 42.3708 63.6715 44.4837C 63.6715 46.5938 65.3824 48.3088 67.4957 48.3088C 69.6051 48.3088 71.3199 46.5977 71.3199 44.4837"/>
<path style="stroke:#000000; stroke-width:0.95698000000000005; fill:none" d="M 71.3199 44.4837C 71.3199 42.3748 69.609 40.6598 67.4957 40.6598C 65.3863 40.6598 63.6715 42.3708 63.6715 44.4837C 63.6715 46.5938 65.3824 48.3088 67.4957 48.3088C 69.6051 48.3088 71.3199 46.5977 71.3199 44.4837"/>
<path style="stroke:none; fill-rule:evenodd; fill:#7e7e7e" d="M 86.6285 59.7888C 86.6285 57.6797 84.9176 55.9648 82.8043 55.9648C 80.6949 55.9648 78.9801 57.6758 78.9801 59.7888C 78.9801 61.8978 80.691 63.6128 82.8043 63.6128C 84.9137 63.6128 86.6285 61.9017 86.6285 59.7888"/>
<path style="stroke:#000000; stroke-width:0.95698000000000005; fill:none" d="M 86.6285 59.7888C 86.6285 57.6797 84.9176 55.9648 82.8043 55.9648C 80.6949 55.9648 78.9801 57.6758 78.9801 59.7888C 78.9801 61.8978 80.691 63.6128 82.8043 63.6128C 84.9137 63.6128 86.6285 61.9017 86.6285 59.7888"/>
<path style="stroke:none; fill-rule:evenodd; fill:#7e7e7e" d="M 94.285 78.9178C 94.285 76.8088 92.574 75.0938 90.461 75.0938C 88.351 75.0938 86.6363 76.8047 86.6363 78.9178C 86.6363 81.0267 88.347 82.7418 90.461 82.7418C 92.57 82.7418 94.285 81.0308 94.285 78.9178"/>
<path style="stroke:#000000; stroke-width:0.95698000000000005; fill:none" d="M 94.285 78.9178C 94.285 76.8088 92.574 75.0938 90.461 75.0938C 88.351 75.0938 86.6363 76.8047 86.6363 78.9178C 86.6363 81.0267 88.347 82.7418 90.461 82.7418C 92.57 82.7418 94.285 81.0308 94.285 78.9178"/>
<path style="stroke:none; fill-rule:evenodd; fill:#7e7e7e" d="M 124.898 48.3047C 124.898 46.1947 123.187 44.4798 121.074 44.4798C 118.964 44.4798 117.25 46.1908 117.25 48.3047C 117.25 50.4138 118.961 52.1288 121.074 52.1288C 123.183 52.1288 124.898 50.4178 124.898 48.3047"/>
<path style="stroke:#000000; stroke-width:0.95698000000000005; fill:none" d="M 124.898 48.3047C 124.898 46.1947 123.187 44.4798 121.074 44.4798C 118.964 44.4798 117.25 46.1908 117.25 48.3047C 117.25 50.4138 118.961 52.1288 121.074 52.1288C 123.183 52.1288 124.898 50.4178 124.898 48.3047"/>
<path style="stroke:none; fill-rule:evenodd; fill:#7e7e7e" d="M 113.421 29.1678C 113.421 27.0588 111.711 25.3438 109.597 25.3438C 107.488 25.3438 105.773 27.0547 105.773 29.1678C 105.773 31.2767 107.484 32.9918 109.597 32.9918C 111.707 32.9918 113.421 31.2808 113.421 29.1678"/>
<path style="stroke:#000000; stroke-width:0.95698000000000005; fill:none" d="M 113.421 29.1678C 113.421 27.0588 111.711 25.3438 109.597 25.3438C 107.488 25.3438 105.773 27.0547 105.773 29.1678C 105.773 31.2767 107.484 32.9918 109.597 32.9918C 111.707 32.9918 113.421 31.2808 113.421 29.1678"/>
<path style="stroke:none; fill-rule:evenodd; fill:#7e7e7e" d="M 109.597 59.7767C 109.597 57.6678 107.886 55.9528 105.773 55.9528C 103.664 55.9528 101.949 57.6638 101.949 59.7767C 101.949 61.8867 103.66 63.6018 105.773 63.6018C 107.882 63.6018 109.597 61.8908 109.597 59.7767"/>
<path style="stroke:#000000; stroke-width:0.95698000000000005; fill:none" d="M 109.597 59.7767C 109.597 57.6678 107.886 55.9528 105.773 55.9528C 103.664 55.9528 101.949 57.6638 101.949 59.7767C 101.949 61.8867 103.66 63.6018 105.773 63.6018C 107.882 63.6018 109.597 61.8908 109.597 59.7767"/>
<path style="stroke:none; fill-rule:evenodd; fill:#7e7e7e" d="M 98.121 36.8158C 98.121 34.7068 96.41 32.9918 94.296 32.9918C 92.187 32.9918 90.472 34.7028 90.472 36.8158C 90.472 38.9258 92.183 40.6408 94.296 40.6408C 96.406 40.6408 98.121 38.9297 98.121 36.8158"/>
<path style="stroke:#000000; stroke-width:0.95698000000000005; fill:none" d="M 98.121 36.8158C 98.121 34.7068 96.41 32.9918 94.296 32.9918C 92.187 32.9918 90.472 34.7028 90.472 36.8158C 90.472 38.9258 92.183 40.6408 94.296 40.6408C 96.406 40.6408 98.121 38.9297 98.121 36.8158"/>
<path style="stroke:none; fill-rule:evenodd; fill:#7e7e7e" d="M 109.601 86.5588C 109.601 84.4488 107.89 82.7337 105.777 82.7337C 103.668 82.7337 101.953 84.4447 101.953 86.5588C 101.953 88.6678 103.664 90.3828 105.777 90.3828C 107.886 90.3828 109.601 88.6718 109.601 86.5588"/>
<path style="stroke:#000000; stroke-width:0.95698000000000005; fill:none" d="M 109.601 86.5588C 109.601 84.4488 107.89 82.7337 105.777 82.7337C 103.668 82.7337 101.953 84.4447 101.953 86.5588C 101.953 88.6678 103.664 90.3828 105.777 90.3828C 107.886 90.3828 109.601 88.6718 109.601 86.5588"/>
<path style="stroke:none; fill-rule:evenodd; fill:#7e7e7e" d="M 78.9918 98.0348C 78.9918 95.9258 77.2808 94.2108 75.1676 94.2108C 73.0582 94.2108 71.3433 95.9218 71.3433 98.0348C 71.3433 100.145 73.0543 101.859 75.1676 101.859C 77.2769 101.859 78.9918 100.148 78.9918 98.0348"/>
<path style="stroke:#000000; stroke-width:0.95698000000000005; fill:none" d="M 78.9918 98.0348C 78.9918 95.9258 77.2808 94.2108 75.1676 94.2108C 73.0582 94.2108 71.3433 95.9218 71.3433 98.0348C 71.3433 100.145 73.0543 101.859 75.1676 101.859C 77.2769 101.859 78.9918 100.148 78.9918 98.0348"/>
<path style="stroke:none; fill-rule:evenodd; fill:#7e7e7e" d="M 105.781 105.688C 105.781 103.578 104.07 101.863 101.957 101.863C 99.847 101.863 98.132 103.574 98.132 105.688C 98.132 107.797 99.843 109.512 101.957 109.512C 104.066 109.512 105.781 107.801 105.781 105.688"/>
<path style="stroke:#000000; stroke-width:0.95698000000000005; fill:none" d="M 105.781 105.688C 105.781 103.578 104.07 101.863 101.957 101.863C 99.847 101.863 98.132 103.574 98.132 105.688C 98.132 107.797 99.843 109.512 101.957 109.512C 104.066 109.512 105.781 107.801 105.781 105.688"/>
<path style="stroke:none; fill-rule:evenodd; fill:#7e7e7e" d="M 151.703 155.43C 151.703 153.32 149.992 151.606 147.878 151.606C 145.769 151.606 144.054 153.316 144.054 155.43C 144.054 157.539 145.765 159.254 147.878 159.254C 149.988 159.254 151.703 157.543 151.703 155.43"/>
<path style="stroke:#000000; stroke-width:0.95698000000000005; fill:none" d="M 151.703 155.43C 151.703 153.32 149.992 151.606 147.878 151.606C 145.769 151.606 144.054 153.316 144.054 155.43C 144.054 157.539 145.765 159.254 147.878 159.254C 149.988 159.254 151.703 157.543 151.703 155.43"/>
<path style="stroke:none; fill-rule:evenodd; fill:#7e7e7e" d="M 159.359 205.172C 159.359 203.062 157.648 201.347 155.535 201.347C 153.425 201.347 151.711 203.058 151.711 205.172C 151.711 207.281 153.421 208.996 155.535 208.996C 157.644 208.996 159.359 207.285 159.359 205.172"/>
<path style="stroke:#000000; stroke-width:0.95698000000000005; fill:none" d="M 159.359 205.172C 159.359 203.062 157.648 201.347 155.535 201.347C 153.425 201.347 151.711 203.058 151.711 205.172C 151.711 207.281 153.421 208.996 155.535 208.996C 157.644 208.996 159.359 207.285 159.359 205.172"/>
<path style="stroke:none; fill-rule:evenodd; fill:#7e7e7e" d="M 155.535 170.73C 155.535 168.621 153.824 166.906 151.711 166.906C 149.601 166.906 147.886 168.617 147.886 170.73C 147.886 172.84 149.597 174.554 151.711 174.554C 153.82 174.554 155.535 172.844 155.535 170.73"/>
<path style="stroke:#000000; stroke-width:0.95698000000000005; fill:none" d="M 155.535 170.73C 155.535 168.621 153.824 166.906 151.711 166.906C 149.601 166.906 147.886 168.617 147.886 170.73C 147.886 172.84 149.597 174.554 151.711 174.554C 153.82 174.554 155.535 172.844 155.535 170.73"/>
<path style="stroke:none; fill-rule:evenodd; fill:#7e7e7e" d="M 159.363 182.207C 159.363 180.097 157.652 178.383 155.539 178.383C 153.429 178.383 151.714 180.094 151.714 182.207C 151.714 184.316 153.425 186.031 155.539 186.031C 157.648 186.031 159.363 184.32 159.363 182.207"/>
<path style="stroke:#000000; stroke-width:0.95698000000000005; fill:none" d="M 159.363 182.207C 159.363 180.097 157.652 178.383 155.539 178.383C 153.429 178.383 151.714 180.094 151.714 182.207C 151.714 184.316 153.425 186.031 155.539 186.031C 157.648 186.031 159.363 184.32 159.363 182.207"/>
<path style="stroke:none; fill-rule:evenodd; fill:#7e7e7e" d="M 25.4371 166.898C 25.4371 164.789 23.7262 163.074 21.6129 163.074C 19.5035 163.074 17.7887 164.785 17.7887 166.898C 17.7887 169.008 19.4996 170.722 21.6129 170.722C 23.7222 170.722 25.4371 169.012 25.4371 166.898"/>
<path style="stroke:#000000; stroke-width:0.95698000000000005; fill:none" d="M 25.4371 166.898C 25.4371 164.789 23.7262 163.074 21.6129 163.074C 19.5035 163.074 17.7887 164.785 17.7887 166.898C 17.7887 169.008 19.4996 170.722 21.6129 170.722C 23.7222 170.722 25.4371 169.012 25.4371 166.898"/>
<path style="stroke:none; fill-rule:evenodd; fill:#7e7e7e" d="M 90.492 151.59C 90.492 149.48 88.781 147.766 86.6676 147.766C 84.5582 147.766 82.8433 149.477 82.8433 151.59C 82.8433 153.699 84.5543 155.414 86.6676 155.414C 88.777 155.414 90.492 153.703 90.492 151.59"/>
<path style="stroke:#000000; stroke-width:0.95698000000000005; fill:none" d="M 90.492 151.59C 90.492 149.48 88.781 147.766 86.6676 147.766C 84.5582 147.766 82.8433 149.477 82.8433 151.59C 82.8433 153.699 84.5543 155.414 86.6676 155.414C 88.777 155.414 90.492 153.703 90.492 151.59"/>
<path style="stroke:none; fill-rule:evenodd; fill:#7e7e7e" d="M 21.6168 228.121C 21.6168 226.012 19.9058 224.297 17.7926 224.297C 15.6832 224.297 13.9683 226.008 13.9683 228.121C 13.9683 230.23 15.6793 231.945 17.7926 231.945C 19.9019 231.945 21.6168 230.234 21.6168 228.121"/>
<path style="stroke:#000000; stroke-width:0.95698000000000005; fill:none" d="M 21.6168 228.121C 21.6168 226.012 19.9058 224.297 17.7926 224.297C 15.6832 224.297 13.9683 226.008 13.9683 228.121C 13.9683 230.23 15.6793 231.945 17.7926 231.945C 19.9019 231.945 21.6168 230.234 21.6168 228.121"/>
<path style="stroke:none; fill-rule:evenodd; fill:#7e7e7e" d="M 25.4449 243.422C 25.4449 241.312 23.734 239.597 21.6207 239.597C 19.5113 239.597 17.7965 241.308 17.7965 243.422C 17.7965 245.531 19.5074 247.246 21.6207 247.246C 23.7301 247.246 25.4449 245.535 25.4449 243.422"/>
<path style="stroke:#000000; stroke-width:0.95698000000000005; fill:none" d="M 25.4449 243.422C 25.4449 241.312 23.734 239.597 21.6207 239.597C 19.5113 239.597 17.7965 241.308 17.7965 243.422C 17.7965 245.531 19.5074 247.246 21.6207 247.246C 23.7301 247.246 25.4449 245.535 25.4449 243.422"/>
<path style="stroke:none; fill-rule:evenodd; fill:#ff0000" d="M 35.0113 214.238C 35.0113 212.129 33.3004 210.414 31.1871 210.414C 29.0777 210.414 27.3629 212.125 27.3629 214.238C 27.3629 216.347 29.0738 218.062 31.1871 218.062C 33.2965 218.062 35.0113 216.351 35.0113 214.238"/>
<path style="stroke:#000000; stroke-width:0.95698000000000005; fill:none" d="M 35.0113 214.238C 35.0113 212.129 33.3004 210.414 31.1871 210.414C 29.0777 210.414 27.3629 212.125 27.3629 214.238C 27.3629 216.347 29.0738 218.062 31.1871 218.062C 33.2965 218.062 35.0113 216.351 35.0113 214.238"/>
<path style="stroke:none; fill-rule:evenodd; fill:#7e7e7e" d="M 39.7965 244.375C 39.7965 242.265 38.0855 240.551 35.9722 240.551C 33.8629 240.551 32.148 242.262 32.148 244.375C 32.148 246.484 33.859 248.199 35.9722 248.199C 38.0816 248.199 39.7965 246.488 39.7965 244.375"/>
<path style="stroke:#000000; stroke-width:0.95698000000000005; fill:none" d="M 39.7965 244.375C 39.7965 242.265 38.0855 240.551 35.9722 240.551C 33.8629 240.551 32.148 242.262 32.148 244.375C 32.148 246.484 33.859 248.199 35.9722 248.199C 38.0816 248.199 39.7965 246.488 39.7965 244.375"/>
<path style="stroke:none; fill-rule:evenodd; fill:#7e7e7e" d="M 144.074 243.418C 144.074 241.308 142.363 239.594 140.25 239.594C 138.14 239.594 136.425 241.304 136.425 243.418C 136.425 245.527 138.136 247.242 140.25 247.242C 142.359 247.242 144.074 245.531 144.074 243.418"/>
<path style="stroke:#000000; stroke-width:0.95698000000000005; fill:none" d="M 144.074 243.418C 144.074 241.308 142.363 239.594 140.25 239.594C 138.14 239.594 136.425 241.304 136.425 243.418C 136.425 245.527 138.136 247.242 140.25 247.242C 142.359 247.242 144.074 245.531 144.074 243.418"/>
<path style="stroke:none; fill-rule:evenodd; fill:#7e7e7e" d="M 155.554 224.281C 155.554 222.172 153.843 220.457 151.73 220.457C 149.621 220.457 147.906 222.168 147.906 224.281C 147.906 226.39 149.617 228.105 151.73 228.105C 153.839 228.105 155.554 226.394 155.554 224.281"/>
<path style="stroke:#000000; stroke-width:0.95698000000000005; fill:none" d="M 155.554 224.281C 155.554 222.172 153.843 220.457 151.73 220.457C 149.621 220.457 147.906 222.168 147.906 224.281C 147.906 226.39 149.617 228.105 151.73 228.105C 153.839 228.105 155.554 226.394 155.554 224.281"/>
<path style="stroke:none; fill-rule:evenodd; fill:#7e7e7e" d="M 159.386 239.586C 159.386 237.476 157.675 235.762 155.562 235.762C 153.453 235.762 151.738 237.472 151.738 239.586C 151.738 241.695 153.449 243.41 155.562 243.41C 157.671 243.41 159.386 241.699 159.386 239.586"/>
<path style="stroke:#000000; stroke-width:0.95698000000000005; fill:none" d="M 159.386 239.586C 159.386 237.476 157.675 235.762 155.562 235.762C 153.453 235.762 151.738 237.472 151.738 239.586C 151.738 241.695 153.449 243.41 155.562 243.41C 157.671 243.41 159.386 241.699 159.386 239.586"/>
<path style="stroke:none; fill-rule:evenodd; fill:#7e7e7e" d="M 90.507 247.238C 90.507 245.129 88.796 243.414 86.6832 243.414C 84.5738 243.414 82.859 245.125 82.859 247.238C 82.859 249.347 84.5699 251.062 86.6832 251.062C 88.793 251.062 90.507 249.351 90.507 247.238"/>
<path style="stroke:#000000; stroke-width:0.95698000000000005; fill:none" d="M 90.507 247.238C 90.507 245.129 88.796 243.414 86.6832 243.414C 84.5738 243.414 82.859 245.125 82.859 247.238C 82.859 249.347 84.5699 251.062 86.6832 251.062C 88.793 251.062 90.507 249.351 90.507 247.238"/>
<path style="stroke:none; fill-rule:evenodd; fill:#ffa400" d="M 101.992 235.754C 101.992 233.644 100.281 231.929 98.168 231.929C 96.058 231.929 94.343 233.64 94.343 235.754C 94.343 237.863 96.054 239.578 98.168 239.578C 100.277 239.578 101.992 237.867 101.992 235.754"/>
<path style="stroke:#000000; stroke-width:0.95698000000000005; fill:none" d="M 101.992 235.754C 101.992 233.644 100.281 231.929 98.168 231.929C 96.058 231.929 94.343 233.64 94.343 235.754C 94.343 237.863 96.054 239.578 98.168 239.578C 100.277 239.578 101.992 237.867 101.992 235.754"/>
<path style="stroke:none; fill-rule:evenodd; fill:#7e7e7e" d="M 21.5972 105.688C 21.5972 103.578 19.8863 101.863 17.773 101.863C 15.6637 101.863 13.9488 103.574 13.9488 105.688C 13.9488 107.797 15.6598 109.512 17.773 109.512C 19.8824 109.512 21.5972 107.801 21.5972 105.688"/>
<path style="stroke:#000000; stroke-width:0.95698000000000005; fill:none" d="M 21.5972 105.688C 21.5972 103.578 19.8863 101.863 17.773 101.863C 15.6637 101.863 13.9488 103.574 13.9488 105.688C 13.9488 107.797 15.6598 109.512 17.773 109.512C 19.8824 109.512 21.5972 107.801 21.5972 105.688"/>
<path style="stroke:none; fill-rule:evenodd; fill:#7e7e7e" d="M 36.9058 98.0308C 36.9058 95.9218 35.1949 94.2068 33.0816 94.2068C 30.9722 94.2068 29.2574 95.9178 29.2574 98.0308C 29.2574 100.141 30.9683 101.856 33.0816 101.856C 35.191 101.856 36.9058 100.145 36.9058 98.0308"/>
<path style="stroke:#000000; stroke-width:0.95698000000000005; fill:none" d="M 36.9058 98.0308C 36.9058 95.9218 35.1949 94.2068 33.0816 94.2068C 30.9722 94.2068 29.2574 95.9178 29.2574 98.0308C 29.2574 100.141 30.9683 101.856 33.0816 101.856C 35.191 101.856 36.9058 100.145 36.9058 98.0308"/>
<path style="stroke:none; fill-rule:evenodd; fill:#7e7e7e" d="M 29.2535 40.6288C 29.2535 38.5198 27.5426 36.8047 25.4293 36.8047C 23.3199 36.8047 21.6051 38.5158 21.6051 40.6288C 21.6051 42.7378 23.316 44.4528 25.4293 44.4528C 27.5387 44.4528 29.2535 42.7418 29.2535 40.6288"/>
<path style="stroke:#000000; stroke-width:0.95698000000000005; fill:none" d="M 29.2535 40.6288C 29.2535 38.5198 27.5426 36.8047 25.4293 36.8047C 23.3199 36.8047 21.6051 38.5158 21.6051 40.6288C 21.6051 42.7378 23.316 44.4528 25.4293 44.4528C 27.5387 44.4528 29.2535 42.7418 29.2535 40.6288"/>
<path style="stroke:none; fill-rule:evenodd; fill:#7e7e7e" d="M 48.3902 32.9727C 48.3902 30.8628 46.6793 29.1478 44.566 29.1478C 42.4566 29.1478 40.7418 30.8587 40.7418 32.9727C 40.7418 35.0818 42.4527 36.7968 44.566 36.7968C 46.6754 36.7968 48.3902 35.0858 48.3902 32.9727"/>
<path style="stroke:#000000; stroke-width:0.95698000000000005; fill:none" d="M 48.3902 32.9727C 48.3902 30.8628 46.6793 29.1478 44.566 29.1478C 42.4566 29.1478 40.7418 30.8587 40.7418 32.9727C 40.7418 35.0818 42.4527 36.7968 44.566 36.7968C 46.6754 36.7968 48.3902 35.0858 48.3902 32.9727"/>
<path style="stroke:none; fill-rule:evenodd; fill:#7e7e7e" d="M 59.8746 86.5428C 59.8746 84.4338 58.1637 82.7188 56.0504 82.7188C 53.941 82.7188 52.2262 84.4297 52.2262 86.5428C 52.2262 88.6517 53.9371 90.3668 56.0504 90.3668C 58.1598 90.3668 59.8746 88.6558 59.8746 86.5428"/>
<path style="stroke:#000000; stroke-width:0.95698000000000005; fill:none" d="M 59.8746 86.5428C 59.8746 84.4338 58.1637 82.7188 56.0504 82.7188C 53.941 82.7188 52.2262 84.4297 52.2262 86.5428C 52.2262 88.6517 53.9371 90.3668 56.0504 90.3668C 58.1598 90.3668 59.8746 88.6558 59.8746 86.5428"/>
<path style="stroke:none; fill-rule:evenodd; fill:#7e7e7e" d="M 147.886 90.3668C 147.886 88.2578 146.175 86.5428 144.062 86.5428C 141.953 86.5428 140.238 88.2538 140.238 90.3668C 140.238 92.4768 141.949 94.1908 144.062 94.1908C 146.171 94.1908 147.886 92.4798 147.886 90.3668"/>
<path style="stroke:#000000; stroke-width:0.95698000000000005; fill:none" d="M 147.886 90.3668C 147.886 88.2578 146.175 86.5428 144.062 86.5428C 141.953 86.5428 140.238 88.2538 140.238 90.3668C 140.238 92.4768 141.949 94.1908 144.062 94.1908C 146.171 94.1908 147.886 92.4798 147.886 90.3668"/>
<path style="stroke:none; fill-rule:evenodd; fill:#7e7e7e" d="M 140.238 109.496C 140.238 107.387 138.527 105.672 136.414 105.672C 134.304 105.672 132.589 107.383 132.589 109.496C 132.589 111.606 134.3 113.32 136.414 113.32C 138.523 113.32 140.238 111.609 140.238 109.496"/>
<path style="stroke:#000000; stroke-width:0.95698000000000005; fill:none" d="M 140.238 109.496C 140.238 107.387 138.527 105.672 136.414 105.672C 134.304 105.672 132.589 107.383 132.589 109.496C 132.589 111.606 134.3 113.32 136.414 113.32C 138.523 113.32 140.238 111.609 140.238 109.496"/>
<path style="stroke:none; fill-rule:evenodd; fill:#7e7e7e" d="M 155.546 21.4837C 155.546 19.3748 153.836 17.6598 151.722 17.6598C 149.613 17.6598 147.898 19.3708 147.898 21.4837C 147.898 23.5938 149.609 25.3088 151.722 25.3088C 153.832 25.3088 155.546 23.5977 155.546 21.4837"/>
<path style="stroke:#000000; stroke-width:0.95698000000000005; fill:none" d="M 155.546 21.4837C 155.546 19.3748 153.836 17.6598 151.722 17.6598C 149.613 17.6598 147.898 19.3708 147.898 21.4837C 147.898 23.5938 149.609 25.3088 151.722 25.3088C 153.832 25.3088 155.546 23.5977 155.546 21.4837"/>
<path style="stroke:none; fill-rule:evenodd; fill:#7e7e7e" d="M 140.242 32.9608C 140.242 30.8518 138.531 29.1367 136.418 29.1367C 134.308 29.1367 132.593 30.8477 132.593 32.9608C 132.593 35.0697 134.304 36.7848 136.418 36.7848C 138.527 36.7848 140.242 35.0738 140.242 32.9608"/>
<path style="stroke:#000000; stroke-width:0.95698000000000005; fill:none" d="M 140.242 32.9608C 140.242 30.8518 138.531 29.1367 136.418 29.1367C 134.308 29.1367 132.593 30.8477 132.593 32.9608C 132.593 35.0697 134.304 36.7848 136.418 36.7848C 138.527 36.7848 140.242 35.0738 140.242 32.9608"/>
<path style="stroke:none; fill-rule:evenodd; fill:#7e7e7e" d="M 159.378 48.2658C 159.378 46.1558 157.668 44.4408 155.554 44.4408C 153.445 44.4408 151.73 46.1517 151.73 48.2658C 151.73 50.3748 153.441 52.0898 155.554 52.0898C 157.664 52.0898 159.378 50.3788 159.378 48.2658"/>
<path style="stroke:#000000; stroke-width:0.95698000000000005; fill:none" d="M 159.378 48.2658C 159.378 46.1558 157.668 44.4408 155.554 44.4408C 153.445 44.4408 151.73 46.1517 151.73 48.2658C 151.73 50.3748 153.441 52.0898 155.554 52.0898C 157.664 52.0898 159.378 50.3788 159.378 48.2658"/>
<path style="stroke:none; fill-rule:evenodd; fill:#7e7e7e" d="M 67.5426 113.313C 67.5426 111.203 65.8316 109.488 63.7183 109.488C 61.609 109.488 59.8941 111.199 59.8941 113.313C 59.8941 115.422 61.6051 117.137 63.7183 117.137C 65.8277 117.137 67.5426 115.426 67.5426 113.313"/>
<path style="stroke:#000000; stroke-width:0.95698000000000005; fill:none" d="M 67.5426 113.313C 67.5426 111.203 65.8316 109.488 63.7183 109.488C 61.609 109.488 59.8941 111.199 59.8941 113.313C 59.8941 115.422 61.6051 117.137 63.7183 117.137C 65.8277 117.137 67.5426 115.426 67.5426 113.313"/>
<path style="stroke:none; fill-rule:evenodd; fill:#7e7e7e" d="M 112.945 72.6988C 112.945 70.5898 111.234 68.8748 109.121 68.8748C 107.011 68.8748 105.296 70.5858 105.296 72.6988C 105.296 74.8088 107.007 76.5228 109.121 76.5228C 111.23 76.5228 112.945 74.8128 112.945 72.6988"/>
<path style="stroke:#000000; stroke-width:0.95698000000000005; fill:none" d="M 112.945 72.6988C 112.945 70.5898 111.234 68.8748 109.121 68.8748C 107.011 68.8748 105.296 70.5858 105.296 72.6988C 105.296 74.8088 107.007 76.5228 109.121 76.5228C 111.23 76.5228 112.945 74.8128 112.945 72.6988"/>
<path style="stroke:none; fill-rule:evenodd; fill:#7e7e7e" d="M 121.082 98.0588C 121.082 95.9488 119.371 94.2337 117.257 94.2337C 115.148 94.2337 113.433 95.9447 113.433 98.0588C 113.433 100.168 115.144 101.883 117.257 101.883C 119.367 101.883 121.082 100.172 121.082 98.0588"/>
<path style="stroke:#000000; stroke-width:0.95698000000000005; fill:none" d="M 121.082 98.0588C 121.082 95.9488 119.371 94.2337 117.257 94.2337C 115.148 94.2337 113.433 95.9447 113.433 98.0588C 113.433 100.168 115.144 101.883 117.257 101.883C 119.367 101.883 121.082 100.172 121.082 98.0588"/>
<path style="stroke:none; fill-rule:evenodd; fill:#7e7e7e" d="M 94.285 47.8158C 94.285 45.7068 92.574 43.9918 90.461 43.9918C 88.351 43.9918 86.6363 45.7028 86.6363 47.8158C 86.6363 49.9258 88.347 51.6408 90.461 51.6408C 92.57 51.6408 94.285 49.9297 94.285 47.8158"/>
<path style="stroke:#000000; stroke-width:0.95698000000000005; fill:none" d="M 94.285 47.8158C 94.285 45.7068 92.574 43.9918 90.461 43.9918C 88.351 43.9918 86.6363 45.7028 86.6363 47.8158C 86.6363 49.9258 88.347 51.6408 90.461 51.6408C 92.57 51.6408 94.285 49.9297 94.285 47.8158"/>
<path style="stroke:none; fill-rule:evenodd; fill:#7e7e7e" d="M 47.3941 44.9447C 47.3941 42.8358 45.6832 41.1208 43.5699 41.1208C 41.4605 41.1208 39.7457 42.8318 39.7457 44.9447C 39.7457 47.0547 41.4566 48.7698 43.5699 48.7698C 45.6793 48.7698 47.3941 47.0588 47.3941 44.9447"/>
<path style="stroke:#000000; stroke-width:0.95698000000000005; fill:none" d="M 47.3941 44.9447C 47.3941 42.8358 45.6832 41.1208 43.5699 41.1208C 41.4605 41.1208 39.7457 42.8318 39.7457 44.9447C 39.7457 47.0547 41.4566 48.7698 43.5699 48.7698C 45.6793 48.7698 47.3941 47.0588 47.3941 44.9447"/>
<path style="stroke:none; fill-rule:evenodd; fill:#7e7e7e" d="M 63.1832 55.9488C 63.1832 53.8398 61.4722 52.1248 59.359 52.1248C 57.2496 52.1248 55.5348 53.8358 55.5348 55.9488C 55.5348 58.0588 57.2457 59.7728 59.359 59.7728C 61.4683 59.7728 63.1832 58.0628 63.1832 55.9488"/>
<path style="stroke:#000000; stroke-width:0.95698000000000005; fill:none" d="M 63.1832 55.9488C 63.1832 53.8398 61.4722 52.1248 59.359 52.1248C 57.2496 52.1248 55.5348 53.8358 55.5348 55.9488C 55.5348 58.0588 57.2457 59.7728 59.359 59.7728C 61.4683 59.7728 63.1832 58.0628 63.1832 55.9488"/>
<path style="stroke:none; fill-rule:evenodd; fill:#7e7e7e" d="M 80.8863 31.0697C 80.8863 28.9608 79.1754 27.2458 77.0621 27.2458C 74.9527 27.2458 73.2379 28.9568 73.2379 31.0697C 73.2379 33.1797 74.9488 34.8948 77.0621 34.8948C 79.1715 34.8948 80.8863 33.1838 80.8863 31.0697"/>
<path style="stroke:#000000; stroke-width:0.95698000000000005; fill:none" d="M 80.8863 31.0697C 80.8863 28.9608 79.1754 27.2458 77.0621 27.2458C 74.9527 27.2458 73.2379 28.9568 73.2379 31.0697C 73.2379 33.1797 74.9488 34.8948 77.0621 34.8948C 79.1715 34.8948 80.8863 33.1838 80.8863 31.0697"/>
<path style="stroke:none; fill-rule:evenodd; fill:#7e7e7e" d="M 111.988 43.9878C 111.988 41.8788 110.277 40.1638 108.164 40.1638C 106.054 40.1638 104.339 41.8748 104.339 43.9878C 104.339 46.0977 106.05 47.8128 108.164 47.8128C 110.273 47.8128 111.988 46.1018 111.988 43.9878"/>
<path style="stroke:#000000; stroke-width:0.95698000000000005; fill:none" d="M 111.988 43.9878C 111.988 41.8788 110.277 40.1638 108.164 40.1638C 106.054 40.1638 104.339 41.8748 104.339 43.9878C 104.339 46.0977 106.05 47.8128 108.164 47.8128C 110.273 47.8128 111.988 46.1018 111.988 43.9878"/>
<path style="stroke:none; fill-rule:evenodd; fill:#7e7e7e" d="M 93.804 93.7498C 93.804 91.6408 92.093 89.9258 89.98 89.9258C 87.871 89.9258 86.1558 91.6367 86.1558 93.7498C 86.1558 95.8587 87.867 97.5738 89.98 97.5738C 92.089 97.5738 93.804 95.8628 93.804 93.7498"/>
<path style="stroke:#000000; stroke-width:0.95698000000000005; fill:none" d="M 93.804 93.7498C 93.804 91.6408 92.093 89.9258 89.98 89.9258C 87.871 89.9258 86.1558 91.6367 86.1558 93.7498C 86.1558 95.8587 87.867 97.5738 89.98 97.5738C 92.089 97.5738 93.804 95.8628 93.804 93.7498"/>
<path style="stroke:none; fill-rule:evenodd; fill:#7e7e7e" d="M 78.9722 85.6168C 78.9722 83.5078 77.2613 81.7928 75.148 81.7928C 73.0387 81.7928 71.3238 83.5038 71.3238 85.6168C 71.3238 87.7268 73.0348 89.4408 75.148 89.4408C 77.2574 89.4408 78.9722 87.7298 78.9722 85.6168"/>
<path style="stroke:#000000; stroke-width:0.95698000000000005; fill:none" d="M 78.9722 85.6168C 78.9722 83.5078 77.2613 81.7928 75.148 81.7928C 73.0387 81.7928 71.3238 83.5038 71.3238 85.6168C 71.3238 87.7268 73.0348 89.4408 75.148 89.4408C 77.2574 89.4408 78.9722 87.7298 78.9722 85.6168"/>
<path style="stroke:none; fill-rule:evenodd; fill:#7e7e7e" d="M 99.07 67.4338C 99.07 65.3238 97.359 63.6087 95.246 63.6087C 93.136 63.6087 91.421 65.3197 91.421 67.4338C 91.421 69.5428 93.132 71.2578 95.246 71.2578C 97.355 71.2578 99.07 69.5468 99.07 67.4338"/>
<path style="stroke:#000000; stroke-width:0.95698000000000005; fill:none" d="M 99.07 67.4338C 99.07 65.3238 97.359 63.6087 95.246 63.6087C 93.136 63.6087 91.421 65.3197 91.421 67.4338C 91.421 69.5428 93.132 71.2578 95.246 71.2578C 97.355 71.2578 99.07 69.5468 99.07 67.4338"/>
<path style="stroke:none; fill-rule:evenodd; fill:#7e7e7e" d="M 129.695 86.5738C 129.695 84.4648 127.984 82.7498 125.871 82.7498C 123.761 82.7498 122.046 84.4608 122.046 86.5738C 122.046 88.6838 123.757 90.3978 125.871 90.3978C 127.98 90.3978 129.695 88.6878 129.695 86.5738"/>
<path style="stroke:#000000; stroke-width:0.95698000000000005; fill:none" d="M 129.695 86.5738C 129.695 84.4648 127.984 82.7498 125.871 82.7498C 123.761 82.7498 122.046 84.4608 122.046 86.5738C 122.046 88.6838 123.757 90.3978 125.871 90.3978C 127.98 90.3978 129.695 88.6878 129.695 86.5738"/>
<path style="stroke:none; fill-rule:evenodd; fill:#7e7e7e" d="M 130.652 22.4568C 130.652 20.3477 128.941 18.6328 126.828 18.6328C 124.718 18.6328 123.004 20.3438 123.004 22.4568C 123.004 24.5658 124.714 26.2808 126.828 26.2808C 128.937 26.2808 130.652 24.5697 130.652 22.4568"/>
<path style="stroke:#000000; stroke-width:0.95698000000000005; fill:none" d="M 130.652 22.4568C 130.652 20.3477 128.941 18.6328 126.828 18.6328C 124.718 18.6328 123.004 20.3438 123.004 22.4568C 123.004 24.5658 124.714 26.2808 126.828 26.2808C 128.937 26.2808 130.652 24.5697 130.652 22.4568"/>
<path style="stroke:none; fill-rule:evenodd; fill:#7e7e7e" d="M 145.484 43.5117C 145.484 41.4017 143.773 39.6878 141.66 39.6878C 139.55 39.6878 137.836 41.3978 137.836 43.5117C 137.836 45.6208 139.546 47.3358 141.66 47.3358C 143.769 47.3358 145.484 45.6248 145.484 43.5117"/>
<path style="stroke:#000000; stroke-width:0.95698000000000005; fill:none" d="M 145.484 43.5117C 145.484 41.4017 143.773 39.6878 141.66 39.6878C 139.55 39.6878 137.836 41.3978 137.836 43.5117C 137.836 45.6208 139.546 47.3358 141.66 47.3358C 143.769 47.3358 145.484 45.6248 145.484 43.5117"/>
<path style="stroke:none; fill-rule:evenodd; fill:#7e7e7e" d="M 125.867 35.3748C 125.867 33.2658 124.156 31.5508 122.043 31.5508C 119.933 31.5508 118.218 33.2617 118.218 35.3748C 118.218 37.4837 119.929 39.1988 122.043 39.1988C 124.152 39.1988 125.867 37.4878 125.867 35.3748"/>
<path style="stroke:#000000; stroke-width:0.95698000000000005; fill:none" d="M 125.867 35.3748C 125.867 33.2658 124.156 31.5508 122.043 31.5508C 119.933 31.5508 118.218 33.2617 118.218 35.3748C 118.218 37.4837 119.929 39.1988 122.043 39.1988C 124.152 39.1988 125.867 37.4878 125.867 35.3748"/>
<path style="stroke:none; fill-rule:evenodd; fill:#7e7e7e" d="M 26.8199 58.8197C 26.8199 56.7108 25.109 54.9958 22.9957 54.9958C 20.8863 54.9958 19.1715 56.7068 19.1715 58.8197C 19.1715 60.9297 20.8824 62.6448 22.9957 62.6448C 25.1051 62.6448 26.8199 60.9338 26.8199 58.8197"/>
<path style="stroke:#000000; stroke-width:0.95698000000000005; fill:none" d="M 26.8199 58.8197C 26.8199 56.7108 25.109 54.9958 22.9957 54.9958C 20.8863 54.9958 19.1715 56.7068 19.1715 58.8197C 19.1715 60.9297 20.8824 62.6448 22.9957 62.6448C 25.1051 62.6448 26.8199 60.9338 26.8199 58.8197"/>
<path style="stroke:none; fill-rule:evenodd; fill:#7e7e7e" d="M 61.7496 102.363C 61.7496 100.254 60.0387 98.5388 57.9254 98.5388C 55.816 98.5388 54.1012 100.25 54.1012 102.363C 54.1012 104.473 55.8121 106.188 57.9254 106.188C 60.0348 106.188 61.7496 104.477 61.7496 102.363"/>
<path style="stroke:#000000; stroke-width:0.95698000000000005; fill:none" d="M 61.7496 102.363C 61.7496 100.254 60.0387 98.5388 57.9254 98.5388C 55.816 98.5388 54.1012 100.25 54.1012 102.363C 54.1012 104.473 55.8121 106.188 57.9254 106.188C 60.0348 106.188 61.7496 104.477 61.7496 102.363"/>
<path style="stroke:none; fill-rule:evenodd; fill:#7e7e7e" d="M 64.1402 71.7418C 64.1402 69.6328 62.4293 67.9178 60.316 67.9178C 58.2066 67.9178 56.4918 69.6288 56.4918 71.7418C 56.4918 73.8518 58.2027 75.5658 60.316 75.5658C 62.4254 75.5658 64.1402 73.8558 64.1402 71.7418"/>
<path style="stroke:#000000; stroke-width:0.95698000000000005; fill:none" d="M 64.1402 71.7418C 64.1402 69.6328 62.4293 67.9178 60.316 67.9178C 58.2066 67.9178 56.4918 69.6288 56.4918 71.7418C 56.4918 73.8518 58.2027 75.5658 60.316 75.5658C 62.4254 75.5658 64.1402 73.8558 64.1402 71.7418"/>
<path style="stroke:none; fill-rule:evenodd; fill:#7e7e7e" d="M 91.894 112.41C 91.894 110.301 90.183 108.586 88.07 108.586C 85.9605 108.586 84.2457 110.297 84.2457 112.41C 84.2457 114.52 85.9566 116.234 88.07 116.234C 90.179 116.234 91.894 114.523 91.894 112.41"/>
<path style="stroke:#000000; stroke-width:0.95698000000000005; fill:none" d="M 91.894 112.41C 91.894 110.301 90.183 108.586 88.07 108.586C 85.9605 108.586 84.2457 110.297 84.2457 112.41C 84.2457 114.52 85.9566 116.234 88.07 116.234C 90.179 116.234 91.894 114.523 91.894 112.41"/>
<path style="stroke:none; fill-rule:evenodd; fill:#7e7e7e" d="M 76.1012 53.5588C 76.1012 51.4488 74.3902 49.7337 72.2769 49.7337C 70.1676 49.7337 68.4527 51.4447 68.4527 53.5588C 68.4527 55.6678 70.1637 57.3828 72.2769 57.3828C 74.3863 57.3828 76.1012 55.6718 76.1012 53.5588"/>
<path style="stroke:#000000; stroke-width:0.95698000000000005; fill:none" d="M 76.1012 53.5588C 76.1012 51.4488 74.3902 49.7337 72.2769 49.7337C 70.1676 49.7337 68.4527 51.4447 68.4527 53.5588C 68.4527 55.6678 70.1637 57.3828 72.2769 57.3828C 74.3863 57.3828 76.1012 55.6718 76.1012 53.5588"/>
<path style="stroke:none; fill-rule:evenodd; fill:#7e7e7e" d="M 116.773 110.02C 116.773 107.91 115.062 106.195 112.949 106.195C 110.839 106.195 109.125 107.906 109.125 110.02C 109.125 112.129 110.836 113.844 112.949 113.844C 115.058 113.844 116.773 112.133 116.773 110.02"/>
<path style="stroke:#000000; stroke-width:0.95698000000000005; fill:none" d="M 116.773 110.02C 116.773 107.91 115.062 106.195 112.949 106.195C 110.839 106.195 109.125 107.906 109.125 110.02C 109.125 112.129 110.836 113.844 112.949 113.844C 115.058 113.844 116.773 112.133 116.773 110.02"/>
<path style="stroke:none; fill-rule:evenodd; fill:#7e7e7e" d="M 152.183 103.801C 152.183 101.691 150.472 99.9768 148.359 99.9768C 146.25 99.9768 144.535 101.688 144.535 103.801C 144.535 105.91 146.246 107.625 148.359 107.625C 150.468 107.625 152.183 105.914 152.183 103.801"/>
<path style="stroke:#000000; stroke-width:0.95698000000000005; fill:none" d="M 152.183 103.801C 152.183 101.691 150.472 99.9768 148.359 99.9768C 146.25 99.9768 144.535 101.688 144.535 103.801C 144.535 105.91 146.246 107.625 148.359 107.625C 150.468 107.625 152.183 105.914 152.183 103.801"/>
<path style="stroke:none; fill-rule:evenodd; fill:#7e7e7e" d="M 29.2496 82.7188C 29.2496 80.6087 27.5387 78.8948 25.4254 78.8948C 23.316 78.8948 21.6012 80.6058 21.6012 82.7188C 21.6012 84.8278 23.3121 86.5428 25.4254 86.5428C 27.5348 86.5428 29.2496 84.8318 29.2496 82.7188"/>
<path style="stroke:#000000; stroke-width:0.95698000000000005; fill:none" d="M 29.2496 82.7188C 29.2496 80.6087 27.5387 78.8948 25.4254 78.8948C 23.316 78.8948 21.6012 80.6058 21.6012 82.7188C 21.6012 84.8278 23.3121 86.5428 25.4254 86.5428C 27.5348 86.5428 29.2496 84.8318 29.2496 82.7188"/>
<path style="stroke:none; fill-rule:evenodd; fill:#7e7e7e" d="M 45.9957 108.559C 45.9957 106.449 44.2848 104.734 42.1715 104.734C 40.0621 104.734 38.3472 106.445 38.3472 108.559C 38.3472 110.668 40.0582 112.383 42.1715 112.383C 44.2808 112.383 45.9957 110.672 45.9957 108.559"/>
<path style="stroke:#000000; stroke-width:0.95698000000000005; fill:none" d="M 45.9957 108.559C 45.9957 106.449 44.2848 104.734 42.1715 104.734C 40.0621 104.734 38.3472 106.445 38.3472 108.559C 38.3472 110.668 40.0582 112.383 42.1715 112.383C 44.2808 112.383 45.9957 110.672 45.9957 108.559"/>
<path style="stroke:none; fill-rule:evenodd; fill:#7e7e7e" d="M 22.5699 179.332C 22.5699 177.222 20.859 175.508 18.7457 175.508C 16.6363 175.508 14.9215 177.219 14.9215 179.332C 14.9215 181.441 16.6324 183.156 18.7457 183.156C 20.8551 183.156 22.5699 181.445 22.5699 179.332"/>
<path style="stroke:#000000; stroke-width:0.95698000000000005; fill:none" d="M 22.5699 179.332C 22.5699 177.222 20.859 175.508 18.7457 175.508C 16.6363 175.508 14.9215 177.219 14.9215 179.332C 14.9215 181.441 16.6324 183.156 18.7457 183.156C 20.8551 183.156 22.5699 181.445 22.5699 179.332"/>
<path style="stroke:none; fill-rule:evenodd; fill:#7e7e7e" d="M 19.7027 193.679C 19.7027 191.57 17.9918 189.855 15.8785 189.855C 13.7691 189.855 12.0543 191.566 12.0543 193.679C 12.0543 195.789 13.7652 197.504 15.8785 197.504C 17.9879 197.504 19.7027 195.793 19.7027 193.679"/>
<path style="stroke:#000000; stroke-width:0.95698000000000005; fill:none" d="M 19.7027 193.679C 19.7027 191.57 17.9918 189.855 15.8785 189.855C 13.7691 189.855 12.0543 191.566 12.0543 193.679C 12.0543 195.789 13.7652 197.504 15.8785 197.504C 17.9879 197.504 19.7027 195.793 19.7027 193.679"/>
<path style="stroke:none; fill-rule:evenodd; fill:#7e7e7e" d="M 21.6168 214.722C 21.6168 212.613 19.9058 210.898 17.7926 210.898C 15.6832 210.898 13.9683 212.609 13.9683 214.722C 13.9683 216.832 15.6793 218.547 17.7926 218.547C 19.9019 218.547 21.6168 216.836 21.6168 214.722"/>
<path style="stroke:#000000; stroke-width:0.95698000000000005; fill:none" d="M 21.6168 214.722C 21.6168 212.613 19.9058 210.898 17.7926 210.898C 15.6832 210.898 13.9683 212.609 13.9683 214.722C 13.9683 216.832 15.6793 218.547 17.7926 218.547C 19.9019 218.547 21.6168 216.836 21.6168 214.722"/>
<path style="stroke:none; fill-rule:evenodd; fill:#7e7e7e" d="M 132.589 153.496C 132.589 151.387 130.878 149.672 128.765 149.672C 126.656 149.672 124.941 151.383 124.941 153.496C 124.941 155.606 126.652 157.32 128.765 157.32C 130.875 157.32 132.589 155.609 132.589 153.496"/>
<path style="stroke:#000000; stroke-width:0.95698000000000005; fill:none" d="M 132.589 153.496C 132.589 151.387 130.878 149.672 128.765 149.672C 126.656 149.672 124.941 151.383 124.941 153.496C 124.941 155.606 126.652 157.32 128.765 157.32C 130.875 157.32 132.589 155.609 132.589 153.496"/>
<path style="stroke:none; fill-rule:evenodd; fill:#7e7e7e" d="M 131.64 248.199C 131.64 246.09 129.929 244.375 127.816 244.375C 125.707 244.375 123.992 246.086 123.992 248.199C 123.992 250.308 125.703 252.023 127.816 252.023C 129.925 252.023 131.64 250.312 131.64 248.199"/>
<path style="stroke:#000000; stroke-width:0.95698000000000005; fill:none" d="M 131.64 248.199C 131.64 246.09 129.929 244.375 127.816 244.375C 125.707 244.375 123.992 246.086 123.992 248.199C 123.992 250.308 125.703 252.023 127.816 252.023C 129.925 252.023 131.64 250.312 131.64 248.199"/>
</g>
</svg>