<?xml version="1.0" encoding="ISO-8859-1" standalone="yes"?>
<svg width="194.146" height="123.207">
  <defs> 
    <marker id="ArrowEnd" viewBox="0 0 10 10" refX="0" refY="5" 
     markerUnits="strokeWidth" 
     markerWidth="4" 
     markerHeight="3" 
     orient="auto"> 
        <path d="M 0 0 L 10 5 L 0 10 z" /> 
    </marker>
    <marker id="ArrowStart" viewBox="0 0 10 10" refX="10" refY="5" 
     markerUnits="strokeWidth" 
     markerWidth="4" 
     markerHeight="3" 
     orient="auto"> 
        <path d="M 10 0 L 0 5 L 10 10 z" /> 
    </marker> </defs>
<g>
<path style="stroke:none; fill-rule:evenodd; fill:#000000" d="M 5.3985 33.5136L 4.3985 33.5136L 4.3985 36.6546C 4 36.0414 3.3633 35.7132 2.5625 35.7132C 1.0156 35.7132 0 36.971 0 38.9046C 0 40.9514 1.0117 42.2094 2.6524 42.2094C 3.4883 42.2094 4.0703 41.8889 4.5938 41.1194L 4.5938 41.9085L 5.3906 41.9085L 5.3985 33.5136zM 2.7266 36.6116C 3.7461 36.6116 4.3946 37.5374 4.3946 38.9827C 4.3946 40.3811 3.7383 41.3069 2.7383 41.3069C 1.6953 41.3069 1 40.3694 1 38.9594C 1 37.5491 1.6914 36.6116 2.7266 36.6116z"/>
<path style="stroke:none; fill-rule:evenodd; fill:#000000" d="M 9.2383 35.7132C 7.5352 35.7132 6.5039 36.928 6.5039 38.9632C 6.5039 40.9984 7.5235 42.2132 9.2539 42.2132C 10.957 42.2132 12.0039 41.0023 12.0039 39.0139C 12.0039 36.9241 10.9961 35.721 9.2461 35.721L 9.2383 35.7132zM 9.25 36.6116C 10.3438 36.6116 11 37.4984 11 38.9944C 11 40.4085 10.3242 41.3069 9.25 41.3069C 8.168 41.3069 7.5 40.4202 7.5 38.9594C 7.5 37.51 8.1641 36.6116 9.25 36.6116z"/>
<path style="stroke:none; fill-rule:evenodd; fill:#000000" d="M 17.1992 35.9124L 17.1992 36.7678C 16.7188 36.0491 16.1328 35.7132 15.3633 35.7132C 13.836 35.7132 12.8047 37.053 12.8047 39.0178C 12.8047 40.01 13.0664 40.8186 13.5586 41.3969C 14.0039 41.9046 14.6446 42.2055 15.2774 42.2055C 16.0313 42.2055 16.5586 41.8773 17.0977 41.0921L 17.0977 41.4007C 17.0977 42.2132 16.9961 42.7094 16.7578 43.0414C 16.5078 43.3969 16.0196 43.5999 15.4414 43.5999C 15.0117 43.5999 14.625 43.4866 14.3633 43.2796C 14.1485 43.1077 14.0586 42.9475 14 42.5921L 13.0352 42.5921C 13.1367 43.7249 14.0156 44.4007 15.4258 44.4007C 16.3164 44.4007 17.082 44.1155 17.4727 43.635C 17.9297 43.0882 18.1016 42.3305 18.1016 40.9202L 18.1016 35.9046L 17.1992 35.9124zM 15.461 36.6116C 16.4883 36.6116 17.0977 37.4866 17.0977 38.9944C 17.0977 40.4319 16.4805 41.3069 15.4727 41.3069C 14.4297 41.3069 13.8008 40.4202 13.8008 38.9594C 13.8008 37.51 14.4414 36.6116 15.461 36.6116z"/>
<path style="stroke:none; fill-rule:evenodd; fill:#000000" d="M 23.9258 37.5764C 23.9141 36.3889 23.1289 35.7171 21.7266 35.7171C 20.3164 35.7171 19.4024 36.4436 19.4024 37.5648C 19.4024 38.51 19.8906 38.9594 21.3399 39.3069L 22.25 39.5257C 22.9258 39.6859 23.1953 39.928 23.1953 40.3655C 23.1953 40.928 22.6289 41.3109 21.7852 41.3109C 21.2656 41.3109 20.8281 41.1624 20.586 40.9046C 20.4375 40.7327 20.3672 40.5569 20.3086 40.1234L 19.293 40.1234C 19.336 41.5335 20.1211 42.2132 21.7031 42.2132C 23.2266 42.2132 24.1953 41.4632 24.1953 40.2991C 24.1953 39.4007 23.6836 38.9046 22.4688 38.6155L 21.5352 38.3969C 20.7422 38.2132 20.4024 37.9594 20.4024 37.5335C 20.4024 36.9827 20.8985 36.6234 21.6875 36.6234C 22.461 36.6234 22.8789 36.9514 22.9024 37.5805L 23.9258 37.5764z"/>
<path style="stroke:none; fill-rule:evenodd; fill:#000000" d="M 28.3985 33.5136L 28.3985 41.9124L 29.2969 41.9124L 29.2969 41.1469C 29.75 41.8694 30.3555 42.2132 31.1914 42.2132C 32.7656 42.2132 33.793 40.9085 33.793 38.8969C 33.793 36.9319 32.8125 35.7171 31.2422 35.7171C 30.4219 35.7171 29.8438 36.0296 29.3985 36.7132L 29.3985 33.5136L 28.3985 33.5136zM 31.0469 36.6234C 32.1133 36.6234 32.8008 37.553 32.8008 38.9866C 32.8008 40.3499 32.0899 41.2796 31.0469 41.2796C 30.0391 41.2796 29.3711 40.3616 29.3711 38.9514C 29.3711 37.5414 30.0352 36.6234 31.0469 36.6234z"/>
<path style="stroke:none; fill-rule:evenodd; fill:#000000" d="M 40.3399 41.3499C 40.2344 41.4085 40.1875 41.4085 40.1289 41.4085C 39.7891 41.4085 39.6016 41.2366 39.6016 40.9359L 39.6016 37.3694C 39.6016 36.2952 38.8242 35.7132 37.3516 35.7132C 36.4844 35.7132 35.7656 35.9671 35.3633 36.4164C 35.0899 36.7249 34.9766 37.0725 34.9531 37.6741L 35.8985 37.6741C 35.9766 36.9436 36.4024 36.6116 37.2852 36.6116C 38.1289 36.6116 38.6016 36.9319 38.6016 37.51L 38.6016 37.7639C 38.6016 38.1664 38.3672 38.3382 37.625 38.4319C 36.3008 38.6039 36.0977 38.6507 35.7383 38.7991C 35.0547 39.0844 34.707 39.6273 34.707 40.4124C 34.707 41.5061 35.461 42.1975 36.6719 42.1975C 37.4258 42.1975 38.0313 41.9241 38.707 41.2796C 38.7735 41.9124 39.0703 42.1975 39.6875 42.1975C 39.8789 42.1975 40.0274 42.1741 40.336 42.0921L 40.3399 41.3499zM 38.5977 40.053C 38.5977 40.3811 38.5078 40.5844 38.2305 40.8577C 37.8516 41.221 37.3946 41.4124 36.8477 41.4124C 36.125 41.4124 35.6992 41.0491 35.6992 40.4202C 35.6992 39.7719 36.1094 39.4398 37.1016 39.2874C 38.082 39.1469 38.2813 39.0999 38.5938 38.9475L 38.5977 40.053z"/>
<path style="stroke:none; fill-rule:evenodd; fill:#000000" d="M 41.3985 35.885L 41.3985 41.9085L 42.3985 41.9085L 42.3985 38.7757C 42.3985 37.9124 42.6094 37.3499 43.0586 37.0139C 43.3477 36.7952 43.6289 36.7289 44.2813 36.7171L 44.2813 35.7523C 44.125 35.7327 44.0469 35.721 43.9219 35.721C 43.3125 35.721 42.8477 36.0882 42.3008 36.9827L 42.3008 35.8928L 41.3985 35.885z"/>
<path style="stroke:none; fill-rule:evenodd; fill:#000000" d="M 46 33.5136L 45 33.5136L 45 41.9124L 46 41.9124L 46 39.5725L 46.9336 38.6546L 48.9727 41.9124L 50.1602 41.9124L 47.6953 37.9866L 49.793 35.9164L 48.5625 35.9164L 46.0039 38.4475L 46 33.5136z"/>
<path style="stroke:none; fill-rule:evenodd; fill:#000000" d="M 51.8008 35.9124L 50.8008 35.9124L 50.8008 41.9124L 51.8008 41.9124L 51.8008 35.9124zM 51.8008 33.5136L 50.8008 33.5136L 50.8008 34.7486L 51.8008 34.7486L 51.8008 33.5136z"/>
<path style="stroke:none; fill-rule:evenodd; fill:#000000" d="M 53.5 35.885L 53.5 41.9085L 54.4998 41.9085L 54.4998 38.5609C 54.4998 37.3225 55.1248 36.51 56.0898 36.51C 56.8278 36.51 57.2968 36.971 57.2968 37.7014L 57.2968 41.9046L 58.2968 41.9046L 58.2968 37.3499C 58.2968 36.3499 57.5548 35.7055 56.3948 35.7055C 55.5038 35.7055 54.9298 36.0491 54.4028 36.8889L 54.4028 35.8773L 53.5 35.885z"/>
<path style="stroke:none; fill-rule:evenodd; fill:#000000" d="M 63.8008 35.9124L 63.8008 36.7678C 63.3208 36.0491 62.7348 35.7132 61.9648 35.7132C 60.4378 35.7132 59.4058 37.053 59.4058 39.0178C 59.4058 40.01 59.6678 40.8186 60.1598 41.3969C 60.6058 41.9046 61.2458 42.2055 61.8788 42.2055C 62.6328 42.2055 63.1598 41.8773 63.6988 41.0921L 63.6988 41.4007C 63.6988 42.2132 63.5978 42.7094 63.3598 43.0414C 63.1098 43.3969 62.6208 43.5999 62.0428 43.5999C 61.6128 43.5999 61.2268 43.4866 60.9648 43.2796C 60.7498 43.1077 60.6598 42.9475 60.6018 42.5921L 59.6368 42.5921C 59.7388 43.7249 60.6168 44.4007 62.0278 44.4007C 62.9178 44.4007 63.6838 44.1155 64.0738 43.635C 64.5308 43.0882 64.7028 42.3305 64.7028 40.9202L 64.7028 35.9046L 63.8008 35.9124zM 62.0588 36.6116C 63.0858 36.6116 63.6958 37.4866 63.6958 38.9944C 63.6958 40.4319 63.0778 41.3069 62.0708 41.3069C 61.0278 41.3069 60.3988 40.4202 60.3988 38.9594C 60.3988 37.51 61.0388 36.6116 62.0588 36.6116z"/>
<path style="stroke:none; fill-rule:evenodd; fill:#000000" d="M 4.3985 58.9124L 4.3985 59.7678C 3.918 59.0491 3.332 58.7132 2.5625 58.7132C 1.0352 58.7132 0.00389862 60.053 0.00389862 62.0178C 0.00389862 63.01 0.265602 63.8186 0.757801 64.3969C 1.2031 64.9046 1.8438 65.2055 2.4766 65.2055C 3.2305 65.2055 3.7578 64.8773 4.2969 64.0921L 4.2969 64.4007C 4.2969 65.2132 4.1953 65.7094 3.957 66.0414C 3.707 66.3969 3.2188 66.5999 2.6406 66.5999C 2.211 66.5999 1.8242 66.4866 1.5625 66.2796C 1.3477 66.1077 1.2578 65.9475 1.1992 65.5921L 0.234402 65.5921C 0.335999 66.7249 1.2149 67.4007 2.625 67.4007C 3.5156 67.4007 4.2813 67.1155 4.6719 66.635C 5.1289 66.0882 5.3008 65.3305 5.3008 63.9202L 5.3008 58.9046L 4.3985 58.9124zM 2.6602 59.6116C 3.6875 59.6116 4.2969 60.4866 4.2969 61.9944C 4.2969 63.4319 3.6797 64.3069 2.6719 64.3069C 1.6289 64.3069 1 63.4202 1 61.9594C 1 60.51 1.6406 59.6116 2.6602 59.6116z"/>
<path style="stroke:none; fill-rule:evenodd; fill:#000000" d="M 6.8985 58.885L 6.8985 64.9085L 7.8985 64.9085L 7.8985 61.7757C 7.8985 60.9124 8.1094 60.3499 8.5586 60.0139C 8.8477 59.7952 9.1289 59.7289 9.7813 59.7171L 9.7813 58.7523C 9.625 58.7327 9.5469 58.721 9.4219 58.721C 8.8125 58.721 8.3477 59.0882 7.8008 59.9827L 7.8008 58.8928L 6.8985 58.885z"/>
<path style="stroke:none; fill-rule:evenodd; fill:#000000" d="M 13.0352 58.7132C 11.332 58.7132 10.3008 59.928 10.3008 61.9632C 10.3008 63.9984 11.3203 65.2132 13.0508 65.2132C 14.7539 65.2132 15.8008 64.0023 15.8008 62.0139C 15.8008 59.9241 14.793 58.721 13.043 58.721L 13.0352 58.7132zM 13.0508 59.6116C 14.1446 59.6116 14.8008 60.4984 14.8008 61.9944C 14.8008 63.4085 14.125 64.3069 13.0508 64.3069C 11.9688 64.3069 11.3008 63.4202 11.3008 61.9594C 11.3008 60.51 11.9649 59.6116 13.0508 59.6116z"/>
<path style="stroke:none; fill-rule:evenodd; fill:#000000" d="M 22.6602 64.9124L 24.4258 58.9124L 23.3477 58.9124L 22.1563 63.5805L 20.9766 58.9124L 19.8086 58.9124L 18.6641 63.5805L 17.4375 58.9124L 16.3828 58.9124L 18.125 64.9124L 19.2031 64.9124L 20.3594 60.1975L 21.5742 64.9124L 22.6602 64.9124z"/>
<path style="stroke:none; fill-rule:evenodd; fill:#000000" d="M 25.3985 64.9124L 26.3985 64.9124L 26.3985 56.5139L 25.3985 56.5139L 25.3985 64.9124z"/>
<path style="stroke:none; fill-rule:evenodd; fill:#000000" d="M 28.8008 58.9124L 27.8008 58.9124L 27.8008 64.9124L 28.8008 64.9124L 28.8008 58.9124zM 28.8008 56.5139L 27.8008 56.5139L 27.8008 57.7484L 28.8008 57.7484L 28.8008 56.5139z"/>
<path style="stroke:none; fill-rule:evenodd; fill:#000000" d="M 30.5 58.885L 30.5 64.9085L 31.5 64.9085L 31.5 61.5609C 31.5 60.3225 32.125 59.51 33.0899 59.51C 33.8281 59.51 34.2969 59.971 34.2969 60.7014L 34.2969 64.9046L 35.2969 64.9046L 35.2969 60.3499C 35.2969 59.3499 34.5547 58.7055 33.3946 58.7055C 32.5039 58.7055 31.9297 59.0491 31.4024 59.8889L 31.4024 58.8773L 30.5 58.885z"/>
<path style="stroke:none; fill-rule:evenodd; fill:#000000" d="M 40.8008 58.9124L 40.8008 59.7678C 40.3203 59.0491 39.7344 58.7132 38.9649 58.7132C 37.4375 58.7132 36.4063 60.053 36.4063 62.0178C 36.4063 63.01 36.668 63.8186 37.1602 64.3969C 37.6055 64.9046 38.2461 65.2055 38.8789 65.2055C 39.6328 65.2055 40.1602 64.8773 40.6992 64.0921L 40.6992 64.4007C 40.6992 65.2132 40.5977 65.7094 40.3594 66.0414C 40.1094 66.3969 39.6211 66.5999 39.043 66.5999C 38.6133 66.5999 38.2266 66.4866 37.9649 66.2796C 37.75 66.1077 37.6602 65.9475 37.6016 65.5921L 36.6367 65.5921C 36.7383 66.7249 37.6172 67.4007 39.0274 67.4007C 39.918 67.4007 40.6836 67.1155 41.0742 66.635C 41.5313 66.0882 41.7031 65.3305 41.7031 63.9202L 41.7031 58.9046L 40.8008 58.9124zM 39.0586 59.6116C 40.086 59.6116 40.6953 60.4866 40.6953 61.9944C 40.6953 63.4319 40.0781 64.3069 39.0703 64.3069C 38.0274 64.3069 37.3985 63.4202 37.3985 61.9594C 37.3985 60.51 38.0391 59.6116 39.0586 59.6116z"/>
<path style="stroke:none; fill-rule:evenodd; fill:#000000" d="M 50.625 60.5764C 50.6133 59.3889 49.8281 58.7171 48.4258 58.7171C 47.0156 58.7171 46.1016 59.4436 46.1016 60.5648C 46.1016 61.51 46.5899 61.9594 48.0391 62.3069L 48.9492 62.5257C 49.625 62.6859 49.8946 62.928 49.8946 63.3655C 49.8946 63.928 49.3281 64.3109 48.4844 64.3109C 47.9649 64.3109 47.5274 64.1624 47.2852 63.9046C 47.1367 63.7327 47.0664 63.5569 47.0078 63.1234L 45.9922 63.1234C 46.0352 64.5335 46.8203 65.2132 48.4024 65.2132C 49.9258 65.2132 50.8946 64.4632 50.8946 63.2991C 50.8946 62.4007 50.3828 61.9046 49.168 61.6155L 48.2344 61.3969C 47.4414 61.2132 47.1016 60.9594 47.1016 60.5335C 47.1016 59.9827 47.5977 59.6234 48.3867 59.6234C 49.1602 59.6234 49.5781 59.9514 49.6016 60.5805L 50.625 60.5764z"/>
<path style="stroke:none; fill-rule:evenodd; fill:#000000" d="M 54.5348 58.7132C 52.832 58.7132 51.8008 59.928 51.8008 61.9632C 51.8008 63.9984 52.8203 65.2132 54.5508 65.2132C 56.2538 65.2132 57.3008 64.0023 57.3008 62.0139C 57.3008 59.9241 56.2928 58.721 54.5428 58.721L 54.5348 58.7132zM 54.5508 59.6116C 55.6448 59.6116 56.3008 60.4984 56.3008 61.9944C 56.3008 63.4085 55.6248 64.3069 54.5508 64.3069C 53.4688 64.3069 52.8008 63.4202 52.8008 61.9594C 52.8008 60.51 53.4649 59.6116 54.5508 59.6116z"/>
<path style="stroke:none; fill-rule:evenodd; fill:#000000" d="M 63.3988 64.9475L 63.3988 58.9164L 62.3988 58.9164L 62.3988 62.3616C 62.3988 63.5999 61.7538 64.4124 60.7458 64.4124C 59.9848 64.4124 59.4998 63.9514 59.4998 63.221L 59.4998 58.9164L 58.4998 58.9164L 58.4998 63.5686C 58.4998 64.5686 59.2578 65.2132 60.4488 65.2132C 61.3478 65.2132 61.9218 64.9046 62.4958 64.1116L 62.4958 64.9514L 63.3988 64.9475z"/>
<path style="stroke:none; fill-rule:evenodd; fill:#000000" d="M 64.9998 58.885L 64.9998 64.9085L 65.9998 64.9085L 65.9998 61.5609C 65.9998 60.3225 66.6248 59.51 67.5898 59.51C 68.3278 59.51 68.7968 59.971 68.7968 60.7014L 68.7968 64.9046L 69.7968 64.9046L 69.7968 60.3499C 69.7968 59.3499 69.0548 58.7055 67.8948 58.7055C 67.0038 58.7055 66.4298 59.0491 65.9028 59.8889L 65.9028 58.8773L 64.9998 58.885z"/>
<path style="stroke:none; fill-rule:evenodd; fill:#000000" d="M 76.1988 56.5139L 75.1988 56.5139L 75.1988 59.6546C 74.8008 59.0414 74.1638 58.7132 73.3628 58.7132C 71.8168 58.7132 70.8008 59.971 70.8008 61.9046C 70.8008 63.9514 71.8128 65.2094 73.4528 65.2094C 74.2888 65.2094 74.8708 64.8889 75.3948 64.1194L 75.3948 64.9085L 76.1918 64.9085L 76.1988 56.5139zM 73.5278 59.6116C 74.5468 59.6116 75.1958 60.5374 75.1958 61.9827C 75.1958 63.3811 74.5388 64.3069 73.5388 64.3069C 72.4958 64.3069 71.8008 63.3694 71.8008 61.9594C 71.8008 60.5491 72.4918 59.6116 73.5278 59.6116z"/>
<path style="stroke:none; fill-rule:evenodd; fill:#000000" d="M 9.1992 77.5139L 8.1992 77.5139L 8.1992 80.6546C 7.8008 80.0414 7.1641 79.7132 6.3633 79.7132C 4.8164 79.7132 3.8008 80.9711 3.8008 82.9046C 3.8008 84.9514 4.8125 86.2094 6.4531 86.2094C 7.2891 86.2094 7.8711 85.8889 8.3946 85.1194L 8.3946 85.9086L 9.1914 85.9086L 9.1992 77.5139zM 6.5274 80.6116C 7.5469 80.6116 8.1953 81.5374 8.1953 82.9827C 8.1953 84.3811 7.5391 85.3069 6.5391 85.3069C 5.4961 85.3069 4.8008 84.3694 4.8008 82.9594C 4.8008 81.5491 5.4922 80.6116 6.5274 80.6116z"/>
<path style="stroke:none; fill-rule:evenodd; fill:#000000" d="M 16.0391 85.3499C 15.9336 85.4086 15.8867 85.4086 15.8281 85.4086C 15.4883 85.4086 15.3008 85.2366 15.3008 84.9359L 15.3008 81.3694C 15.3008 80.2952 14.5235 79.7132 13.0508 79.7132C 12.1836 79.7132 11.4649 79.9671 11.0625 80.4164C 10.7891 80.7249 10.6758 81.0725 10.6524 81.6741L 11.5977 81.6741C 11.6758 80.9436 12.1016 80.6116 12.9844 80.6116C 13.8281 80.6116 14.3008 80.9319 14.3008 81.51L 14.3008 81.7639C 14.3008 82.1664 14.0664 82.3382 13.3242 82.4319C 12 82.6039 11.7969 82.6507 11.4375 82.7991C 10.7539 83.0844 10.4063 83.6272 10.4063 84.4124C 10.4063 85.5061 11.1602 86.1975 12.3711 86.1975C 13.125 86.1975 13.7305 85.9241 14.4063 85.2796C 14.4727 85.9124 14.7696 86.1975 15.3867 86.1975C 15.5781 86.1975 15.7266 86.1741 16.0352 86.0921L 16.0391 85.3499zM 14.3008 84.053C 14.3008 84.3811 14.211 84.5844 13.9336 84.8577C 13.5547 85.2211 13.0977 85.4124 12.5508 85.4124C 11.8281 85.4124 11.4024 85.0491 11.4024 84.4202C 11.4024 83.7719 11.8125 83.4397 12.8047 83.2874C 13.7852 83.1469 13.9844 83.0999 14.2969 82.9475L 14.3008 84.053z"/>
<path style="stroke:none; fill-rule:evenodd; fill:#000000" d="M 17.0977 79.885L 17.0977 85.9086L 18.0977 85.9086L 18.0977 82.7757C 18.0977 81.9124 18.3086 81.3499 18.7578 81.0139C 19.0469 80.7952 19.3281 80.7289 19.9805 80.7171L 19.9805 79.7522C 19.8242 79.7327 19.7461 79.7211 19.6211 79.7211C 19.0117 79.7211 18.5469 80.0882 18 80.9827L 18 79.8929L 17.0977 79.885z"/>
<path style="stroke:none; fill-rule:evenodd; fill:#000000" d="M 21.6992 77.5139L 20.6992 77.5139L 20.6992 85.9124L 21.6992 85.9124L 21.6992 83.5725L 22.6328 82.6546L 24.6719 85.9124L 25.8594 85.9124L 23.3946 81.9866L 25.4922 79.9164L 24.2617 79.9164L 21.7031 82.4475L 21.6992 77.5139z"/>
<path style="stroke:none; fill-rule:evenodd; fill:#000000" d="M 35.457 85.9124L 37.2227 79.9124L 36.1446 79.9124L 34.9531 84.5804L 33.7735 79.9124L 32.6055 79.9124L 31.461 84.5804L 30.2344 79.9124L 29.1797 79.9124L 30.9219 85.9124L 32 85.9124L 33.1563 81.1975L 34.3711 85.9124L 35.457 85.9124z"/>
<path style="stroke:none; fill-rule:evenodd; fill:#000000" d="M 40.5352 79.7132C 38.832 79.7132 37.8008 80.928 37.8008 82.9632C 37.8008 84.9984 38.8203 86.2132 40.5508 86.2132C 42.2539 86.2132 43.3008 85.0022 43.3008 83.0139C 43.3008 80.9241 42.293 79.7211 40.543 79.7211L 40.5352 79.7132zM 40.5508 80.6116C 41.6446 80.6116 42.3008 81.4984 42.3008 82.9944C 42.3008 84.4086 41.625 85.3069 40.5508 85.3069C 39.4688 85.3069 38.8008 84.4202 38.8008 82.9594C 38.8008 81.51 39.4649 80.6116 40.5508 80.6116z"/>
<path style="stroke:none; fill-rule:evenodd; fill:#000000" d="M 46.836 79.7132C 45.1328 79.7132 44.1016 80.928 44.1016 82.9632C 44.1016 84.9984 45.1211 86.2132 46.8516 86.2132C 48.5547 86.2132 49.6016 85.0022 49.6016 83.0139C 49.6016 80.9241 48.5938 79.7211 46.8438 79.7211L 46.836 79.7132zM 46.8477 80.6116C 47.9414 80.6116 48.5977 81.4984 48.5977 82.9944C 48.5977 84.4086 47.9219 85.3069 46.8477 85.3069C 45.7656 85.3069 45.0977 84.4202 45.0977 82.9594C 45.0977 81.51 45.7617 80.6116 46.8477 80.6116z"/>
<path style="stroke:none; fill-rule:evenodd; fill:#000000" d="M 55.8008 77.5139L 54.8008 77.5139L 54.8008 80.6546C 54.4028 80.0414 53.7656 79.7132 52.9649 79.7132C 51.418 79.7132 50.4024 80.9711 50.4024 82.9046C 50.4024 84.9514 51.4141 86.2094 53.0547 86.2094C 53.8908 86.2094 54.4728 85.8889 54.9958 85.1194L 54.9958 85.9086L 55.7928 85.9086L 55.8008 77.5139zM 53.125 80.6116C 54.1448 80.6116 54.7928 81.5374 54.7928 82.9827C 54.7928 84.3811 54.1368 85.3069 53.1367 85.3069C 52.0938 85.3069 51.3985 84.3694 51.3985 82.9594C 51.3985 81.5491 52.0899 80.6116 53.125 80.6116z"/>
<path style="stroke:none; fill-rule:evenodd; fill:#000000" d="M 61.5278 81.5764C 61.5158 80.3889 60.7308 79.7171 59.3278 79.7171C 57.9178 79.7171 57.0038 80.4436 57.0038 81.5647C 57.0038 82.51 57.4918 82.9594 58.9418 83.3069L 59.8518 83.5257C 60.5278 83.6859 60.7968 83.928 60.7968 84.3655C 60.7968 84.928 60.2308 85.3109 59.3868 85.3109C 58.8668 85.3109 58.4298 85.1624 58.1878 84.9046C 58.0388 84.7327 57.9688 84.5569 57.9098 84.1234L 56.8948 84.1234C 56.9378 85.5336 57.7228 86.2132 59.3048 86.2132C 60.8278 86.2132 61.7968 85.4632 61.7968 84.2991C 61.7968 83.4007 61.2848 82.9046 60.0708 82.6155L 59.1368 82.3969C 58.3438 82.2132 58.0038 81.9594 58.0038 81.5336C 58.0038 80.9827 58.4998 80.6234 59.2888 80.6234C 60.0628 80.6234 60.4808 80.9514 60.5038 81.5804L 61.5278 81.5764z"/>
<path style="stroke:none; fill-rule:evenodd; fill:#000000" d="M 2.1992 98.6116L 2.1992 107.01L 3.0977 107.01L 3.0977 106.244C 3.5508 106.967 4.1563 107.311 4.9922 107.311C 6.5664 107.311 7.5938 106.006 7.5938 103.994C 7.5938 102.03 6.6133 100.815 5.043 100.815C 4.2227 100.815 3.6446 101.127 3.1992 101.811L 3.1992 98.6116L 2.1992 98.6116zM 4.8477 101.721C 5.9141 101.721 6.6016 102.651 6.6016 104.084C 6.6016 105.448 5.8906 106.377 4.8477 106.377C 3.8399 106.377 3.1719 105.459 3.1719 104.049C 3.1719 102.639 3.836 101.721 4.8477 101.721z"/>
<path style="stroke:none; fill-rule:evenodd; fill:#000000" d="M 13.8985 104.315C 13.8985 103.397 13.832 102.846 13.6602 102.401C 13.2735 101.416 12.3594 100.819 11.2422 100.819C 9.5781 100.819 8.5039 102.112 8.5039 104.1C 8.5039 106.088 9.5391 107.315 11.2149 107.315C 12.5781 107.315 13.5235 106.522 13.7656 105.19L 12.8125 105.19C 12.5508 105.994 12.0196 106.412 11.2578 106.412C 10.6563 106.412 10.1446 106.135 9.8281 105.619C 9.6016 105.272 9.5235 104.92 9.5117 104.315L 13.8985 104.315zM 9.4805 103.545C 9.5586 102.432 10.2383 101.709 11.1992 101.709C 12.1367 101.709 12.8633 102.487 12.8633 103.475C 12.8633 103.494 12.8633 103.518 12.8516 103.541L 9.4805 103.545z"/>
<path style="stroke:none; fill-rule:evenodd; fill:#000000" d="M 20.5391 106.451C 20.4336 106.51 20.3867 106.51 20.3281 106.51C 19.9883 106.51 19.8008 106.338 19.8008 106.037L 19.8008 102.471C 19.8008 101.397 19.0235 100.815 17.5508 100.815C 16.6836 100.815 15.9649 101.069 15.5625 101.518C 15.2891 101.826 15.1758 102.174 15.1524 102.776L 16.0977 102.776C 16.1758 102.045 16.6016 101.713 17.4844 101.713C 18.3281 101.713 18.8008 102.034 18.8008 102.612L 18.8008 102.866C 18.8008 103.268 18.5664 103.44 17.8242 103.534C 16.5 103.705 16.2969 103.752 15.9375 103.901C 15.2539 104.186 14.9063 104.729 14.9063 105.514C 14.9063 106.608 15.6602 107.299 16.8711 107.299C 17.625 107.299 18.2305 107.026 18.9063 106.381C 18.9727 107.014 19.2696 107.299 19.8867 107.299C 20.0781 107.299 20.2266 107.276 20.5352 107.194L 20.5391 106.451zM 18.8008 105.151C 18.8008 105.479 18.711 105.682 18.4336 105.955C 18.0547 106.319 17.5977 106.51 17.0508 106.51C 16.3281 106.51 15.9024 106.147 15.9024 105.518C 15.9024 104.869 16.3125 104.537 17.3047 104.385C 18.2852 104.244 18.4844 104.198 18.7969 104.045L 18.8008 105.151z"/>
<path style="stroke:none; fill-rule:evenodd; fill:#000000" d="M 21.5977 100.987L 21.5977 107.01L 22.5977 107.01L 22.5977 103.877C 22.5977 103.014 22.8086 102.451 23.2578 102.116C 23.5469 101.897 23.8281 101.83 24.4805 101.819L 24.4805 100.854C 24.3242 100.834 24.2461 100.823 24.1211 100.823C 23.5117 100.823 23.0469 101.19 22.5 102.084L 22.5 100.994L 21.5977 100.987z"/>
<path style="stroke:none; fill-rule:evenodd; fill:#000000" d="M 34.1602 107.014L 35.9258 101.014L 34.8477 101.014L 33.6563 105.682L 32.4766 101.014L 31.3086 101.014L 30.1641 105.682L 28.9375 101.014L 27.8828 101.014L 29.625 107.014L 30.7031 107.014L 31.8594 102.299L 33.0742 107.014L 34.1602 107.014z"/>
<path style="stroke:none; fill-rule:evenodd; fill:#000000" d="M 42.2422 106.451C 42.1367 106.51 42.0899 106.51 42.0313 106.51C 41.6914 106.51 41.5039 106.338 41.5039 106.037L 41.5039 102.471C 41.5039 101.397 40.7266 100.815 39.2539 100.815C 38.3867 100.815 37.668 101.069 37.2656 101.518C 36.9922 101.826 36.8789 102.174 36.8555 102.776L 37.8008 102.776C 37.8789 102.045 38.3047 101.713 39.1875 101.713C 40.0313 101.713 40.5039 102.034 40.5039 102.612L 40.5039 102.866C 40.5039 103.268 40.2696 103.44 39.5274 103.534C 38.2031 103.705 38 103.752 37.6406 103.901C 36.957 104.186 36.6094 104.729 36.6094 105.514C 36.6094 106.608 37.3633 107.299 38.5742 107.299C 39.3281 107.299 39.9336 107.026 40.6094 106.381C 40.6758 107.014 40.9727 107.299 41.5899 107.299C 41.7813 107.299 41.9297 107.276 42.2383 107.194L 42.2422 106.451zM 40.5 105.151C 40.5 105.479 40.4102 105.682 40.1328 105.955C 39.7539 106.319 39.2969 106.51 38.75 106.51C 38.0274 106.51 37.6016 106.147 37.6016 105.518C 37.6016 104.869 38.0117 104.537 39.0039 104.385C 39.9844 104.244 40.1836 104.198 40.4961 104.045L 40.5 105.151z"/>
<path style="stroke:none; fill-rule:evenodd; fill:#000000" d="M 43.3008 100.987L 43.3008 107.01L 44.3008 107.01L 44.3008 103.877C 44.3008 103.014 44.5117 102.451 44.961 102.116C 45.25 101.897 45.5313 101.83 46.1836 101.819L 46.1836 100.854C 46.0274 100.834 45.9492 100.823 45.8242 100.823C 45.2149 100.823 44.75 101.19 44.2031 102.084L 44.2031 100.994L 43.3008 100.987z"/>
<path style="stroke:none; fill-rule:evenodd; fill:#000000" d="M 47.0977 100.987L 47.0977 107.01L 48.0977 107.01L 48.0977 103.662C 48.0977 102.424 48.7227 101.612 49.6875 101.612C 50.4258 101.612 50.8946 102.073 50.8946 102.803L 50.8946 107.006L 51.8946 107.006L 51.8946 102.451C 51.8946 101.451 51.1524 100.807 49.9922 100.807C 49.1016 100.807 48.5274 101.151 48 101.991L 48 100.979L 47.0977 100.987z"/>
<path style="stroke:none; fill-rule:evenodd; fill:#000000" d="M 54.3988 101.014L 53.3985 101.014L 53.3985 107.014L 54.3988 107.014L 54.3988 101.014zM 54.3988 98.6116L 53.3985 98.6116L 53.3985 99.8461L 54.3988 99.8461L 54.3988 98.6116z"/>
<path style="stroke:none; fill-rule:evenodd; fill:#000000" d="M 55.9998 100.987L 55.9998 107.01L 56.9998 107.01L 56.9998 103.662C 56.9998 102.424 57.6248 101.612 58.5898 101.612C 59.3278 101.612 59.7968 102.073 59.7968 102.803L 59.7968 107.006L 60.7968 107.006L 60.7968 102.451C 60.7968 101.451 60.0548 100.807 58.8948 100.807C 58.0038 100.807 57.4298 101.151 56.9028 101.991L 56.9028 100.979L 55.9998 100.987z"/>
<path style="stroke:none; fill-rule:evenodd; fill:#000000" d="M 66.3008 101.014L 66.3008 101.869C 65.8208 101.151 65.2348 100.815 64.4648 100.815C 62.9378 100.815 61.9058 102.155 61.9058 104.119C 61.9058 105.112 62.1678 105.92 62.6598 106.498C 63.1058 107.006 63.7458 107.307 64.3788 107.307C 65.1328 107.307 65.6598 106.979 66.1988 106.194L 66.1988 106.502C 66.1988 107.315 66.0978 107.811 65.8598 108.143C 65.6098 108.498 65.1208 108.701 64.5428 108.701C 64.1128 108.701 63.7268 108.588 63.4648 108.381C 63.2498 108.209 63.1598 108.049 63.1018 107.694L 62.1368 107.694C 62.2388 108.826 63.1168 109.502 64.5278 109.502C 65.4178 109.502 66.1838 109.217 66.5738 108.737C 67.0308 108.19 67.2028 107.432 67.2028 106.022L 67.2028 101.006L 66.3008 101.014zM 64.5588 101.713C 65.5858 101.713 66.1958 102.588 66.1958 104.096C 66.1958 105.534 65.5778 106.409 64.5708 106.409C 63.5278 106.409 62.8988 105.522 62.8988 104.061C 62.8988 102.612 63.5388 101.713 64.5588 101.713z"/>
<path style="stroke:none; fill-rule:evenodd; fill:#000000" d="M 73.0278 102.674C 73.0158 101.487 72.2308 100.815 70.8278 100.815C 69.4178 100.815 68.5038 101.541 68.5038 102.662C 68.5038 103.608 68.9918 104.057 70.4418 104.405L 71.3518 104.623C 72.0278 104.784 72.2968 105.026 72.2968 105.463C 72.2968 106.026 71.7308 106.409 70.8868 106.409C 70.3668 106.409 69.9298 106.26 69.6878 106.002C 69.5388 105.83 69.4688 105.655 69.4098 105.221L 68.3948 105.221C 68.4378 106.631 69.2228 107.311 70.8048 107.311C 72.3278 107.311 73.2968 106.561 73.2968 105.397C 73.2968 104.498 72.7848 104.002 71.5708 103.713L 70.6368 103.494C 69.8438 103.311 69.5038 103.057 69.5038 102.631C 69.5038 102.08 69.9998 101.721 70.7888 101.721C 71.5628 101.721 71.9808 102.049 72.0038 102.678L 73.0278 102.674z"/>
<path style="stroke:#000000; stroke-width:0.95664899999999997; fill:none" d="M 189.133 71.9749C 189.133 54.0139 173.715 39.4514 154.696 39.4514C 135.676 39.4514 120.258 54.01 120.258 71.9749C 120.258 89.9359 135.676 104.498 154.696 104.498C 173.715 104.498 189.133 89.9359 189.133 71.9749"/>
<path style="stroke:#000000; stroke-width:1.9133; fill:none" d="M 70.0308 38.971L 122.168 58.1039"/>
<path style="stroke:#000000; stroke-width:1.9133; fill:none" d="M 115.645 53.6702L 122.168 58.0999L 114.328 57.26"/>
<path style="stroke:#000000; stroke-width:1.9133; fill:none" d="M 81.5118 61.928L 120.731 63.3616"/>
<path style="stroke:#000000; stroke-width:1.9133; fill:none" d="M 113.156 61.1741L 120.731 63.3616L 113.016 64.9905"/>
<path style="stroke:#000000; stroke-width:1.9133; fill:none" d="M 67.1598 82.4984L 119.774 74.3694"/>
<path style="stroke:#000000; stroke-width:1.9133; fill:none" d="M 111.922 73.6429L 119.774 74.3616L 112.504 77.4202"/>
<path style="stroke:#000000; stroke-width:1.9133; fill:none" d="M 77.2068 104.022L 122.645 85.8461"/>
<path style="stroke:#000000; stroke-width:1.9133; fill:none" d="M 114.832 86.9124L 122.645 85.8499L 116.25 90.4671"/>
<path style="stroke:#000000; stroke-dasharray:6,3; stroke-width:0.95664899999999997; fill:none" d="M 70.0308 38.4944L 122.645 5.01364"/>
<path style="stroke:#000000; stroke-dasharray:6,3; stroke-width:0.95664899999999997; fill:none" d="M 115.164 7.50665L 122.645 5.01364L 117.215 10.7366"/>
<path style="stroke:#000000; stroke-dasharray:6,3; stroke-width:0.95664899999999997; fill:none" d="M 69.5548 38.4944L 121.692 31.3226"/>
<path style="stroke:#000000; stroke-dasharray:6,3; stroke-width:0.95664899999999997; fill:none" d="M 113.848 30.4667L 121.688 31.3186L 114.367 34.2566"/>
<path style="stroke:#000000; stroke-dasharray:6,3; stroke-width:0.95664899999999997; fill:none" d="M 82.4688 61.928L 138.91 27.9667"/>
<path style="stroke:#000000; stroke-dasharray:6,3; stroke-width:0.95664899999999997; fill:none" d="M 131.367 30.2757L 138.91 27.9706L 133.34 33.5527"/>
<path style="stroke:#000000; stroke-dasharray:6,3; stroke-width:0.95664899999999997; fill:none" d="M 82.4688 61.928L 105.426 82.4944"/>
<path style="stroke:#000000; stroke-dasharray:6,3; stroke-width:0.95664899999999997; fill:none" d="M 101.004 75.9671L 105.426 82.4944L 98.4488 78.8147"/>
<path style="stroke:#000000; stroke-dasharray:6,3; stroke-width:0.95664899999999997; fill:none" d="M 67.6408 82.4984L 98.7308 68.1507"/>
<path style="stroke:#000000; stroke-dasharray:6,3; stroke-width:0.95664899999999997; fill:none" d="M 90.9808 69.6194L 98.7308 68.1507L 92.5858 73.0921"/>
<path style="stroke:#000000; stroke-dasharray:6,3; stroke-width:0.95664899999999997; fill:none" d="M 68.1168 81.5414L 122.645 98.76"/>
<path style="stroke:#000000; stroke-dasharray:6,3; stroke-width:0.95664899999999997; fill:none" d="M 115.926 94.6311L 122.645 98.76L 114.774 98.2836"/>
<path style="stroke:#000000; stroke-dasharray:6,3; stroke-width:0.95664899999999997; fill:none" d="M 78.1638 103.545L 146.563 117.893"/>
<path style="stroke:#000000; stroke-dasharray:6,3; stroke-width:0.95664899999999997; fill:none" d="M 139.465 114.451L 146.559 117.893L 138.68 118.194"/>
</g>
</svg>