<?xml version="1.0" encoding="ISO-8859-1" standalone="yes"?>
<svg width="287.167" height="229.305">
  <defs> 
    <marker id="ArrowEnd" viewBox="0 0 10 10" refX="0" refY="5" 
     markerUnits="strokeWidth" 
     markerWidth="4" 
     markerHeight="3" 
     orient="auto"> 
        <path d="M 0 0 L 10 5 L 0 10 z" /> 
    </marker>
    <marker id="ArrowStart" viewBox="0 0 10 10" refX="10" refY="5" 
     markerUnits="strokeWidth" 
     markerWidth="4" 
     markerHeight="3" 
     orient="auto"> 
        <path d="M 10 0 L 0 5 L 10 10 z" /> 
    </marker> </defs>
<g>
<path style="stroke:none; fill-rule:evenodd; fill:#000000" d="M 16.6363 9.563C 16.3121 9.25401 16.2183 9.05501 16.2183 8.67601L 16.2183 4.64101C 16.2183 3.164 15.2144 2.40701 13.2535 2.40701C 11.2965 2.40701 10.2769 3.25 10.1558 4.953L 11.9801 4.953C 12.0738 4.16 12.3824 3.90701 13.3199 3.90701C 14.0504 3.90701 14.4137 4.149 14.4137 4.63301C 14.4137 4.875 14.2965 5.09001 14.0933 5.20001C 13.8394 5.332 13.8394 5.332 12.9097 5.481L 12.1597 5.61401C 10.7222 5.856 10.023 6.59801 10.023 7.90701C 10.023 8.524 10.1949 9.039 10.5308 9.403C 10.9449 9.832 11.5738 10.09 12.2183 10.09C 13.023 10.09 13.7574 9.74301 14.4176 9.05501C 14.4176 9.43001 14.4566 9.567 14.6285 9.78201L 16.6363 9.78201L 16.6363 9.563zM 14.4176 6.895C 14.4176 7.981 13.8863 8.59801 12.9371 8.59801C 12.3121 8.59801 11.9215 8.26201 11.9215 7.72701C 11.9215 7.164 12.2144 6.895 12.9879 6.735L 13.6285 6.61801C 14.1207 6.524 14.2027 6.5 14.4137 6.39101L 14.4176 6.895z"/>
<path style="stroke:none; fill-rule:evenodd; fill:#000000" d="M 18.7457 12.481C 20.2769 10.16 20.9176 8.30501 20.9176 6.25C 20.9176 4.18401 20.2808 2.332 18.7457 0.00401306L 17.4176 0.00401306C 18.859 2.77 19.3199 4.274 19.3199 6.25C 19.3199 8.21101 18.859 9.73901 17.4176 12.481L 18.7457 12.481z"/>
<path style="stroke:none; fill-rule:evenodd; fill:#000000" d="M 28.1168 2.192L 29.8707 9.80101L 31.8824 9.80101L 33.6129 2.192L 33.6129 9.80101L 35.6129 9.80101L 35.6129 0.00401306L 32.5894 0.00401306L 30.8785 7.80501L 29.1129 0.00401306L 26.1168 0.00401306L 26.1168 9.80101L 28.1168 9.80101L 28.1168 2.192z"/>
<path style="stroke:none; fill-rule:evenodd; fill:#000000" d="M 39.2183 2.567L 37.3199 2.567L 37.3199 9.80101L 39.2183 9.80101L 39.2183 2.567zM 39.2183 0L 37.3199 0L 37.3199 1.70001L 39.2183 1.70001L 39.2183 0z"/>
<path style="stroke:none; fill-rule:evenodd; fill:#000000" d="M 40.9176 2.59801L 40.9176 9.79701L 42.816 9.79701L 42.816 5.43001C 42.816 4.57101 43.4137 4 44.316 4C 45.1129 4 45.5113 4.44601 45.5113 5.30901L 45.5113 9.79701L 47.4097 9.79701L 47.4097 4.91801C 47.4097 3.317 46.5269 2.399 44.984 2.399C 44.0074 2.399 43.3511 2.774 42.8121 3.606L 42.8121 2.59801L 40.9176 2.59801z"/>
<path style="stroke:none; fill-rule:evenodd; fill:#000000" d="M 55.6168 9.79301L 55.6168 2.60201L 53.7183 2.60201L 53.7183 7.09001C 53.7183 7.938 53.1207 8.496 52.2144 8.496C 51.4176 8.496 51.0191 8.07501 51.0191 7.21101L 51.0191 2.60201L 49.1207 2.60201L 49.1207 7.61C 49.1207 9.192 50.0035 10.098 51.5465 10.098C 52.523 10.098 53.1793 9.74301 53.7183 8.942L 53.7183 9.79301L 55.6168 9.79301z"/>
<path style="stroke:none; fill-rule:evenodd; fill:#000000" d="M 63.2847 4.895C 63.2574 3.34001 62.0699 2.403 60.1168 2.403C 58.2691 2.403 57.1246 3.328 57.1246 4.817C 57.1246 5.29701 57.273 5.71501 57.5308 5.996C 57.7847 6.25 58.0152 6.371 58.7222 6.59801L 60.984 7.29301C 61.4566 7.438 61.6207 7.58601 61.6207 7.88301C 61.6207 8.32501 61.1011 8.59401 60.2261 8.59401C 59.7457 8.59401 59.3551 8.50401 59.1129 8.35201C 58.9137 8.21101 58.8316 8.07101 58.7535 7.69601L 56.9176 7.69601C 56.9683 9.27 58.1402 10.098 60.3472 10.098C 61.3551 10.098 62.1207 9.88701 62.6597 9.457C 63.1949 9.03201 63.5191 8.36 63.5191 7.649C 63.5191 6.71101 63.0465 6.106 62.0855 5.82501L 59.691 5.14101C 59.1637 4.981 59.0308 4.875 59.0308 4.578C 59.0308 4.18001 59.4605 3.91 60.1207 3.91C 61.0191 3.91 61.4644 4.235 61.4761 4.903L 63.2847 4.895z"/>
<path style="stroke:none; fill-rule:evenodd; fill:#000000" d="M 70.7183 6.30101L 73.2418 6.30101C 75.0504 6.30101 76.2144 5.028 76.2144 3.039C 76.2144 1.078 75.0972 0.00401306 73.0504 0.00401306L 68.7183 0.00401306L 68.7183 9.80101L 70.7183 9.80101L 70.7183 6.30101zM 70.7183 4.59801L 70.7183 1.70001L 72.6246 1.70001C 73.7105 1.70001 74.2183 2.16 74.2183 3.153C 74.2183 4.12901 73.7144 4.59401 72.6246 4.59401L 70.7183 4.59801z"/>
<path style="stroke:none; fill-rule:evenodd; fill:#000000" d="M 77.5191 0L 77.5191 9.79701L 79.4176 9.79701L 79.4176 5.43001C 79.4176 4.59401 80.0191 4 80.8629 4C 81.2613 4 81.5855 4.149 81.8004 4.44601C 81.9605 4.688 82.0113 4.875 82.0113 5.34801L 82.0113 9.79701L 83.9097 9.79701L 83.9097 4.91801C 83.9097 4.01601 83.6676 3.371 83.1715 2.953C 82.7535 2.606 82.148 2.403 81.5426 2.403C 80.6129 2.403 79.941 2.789 79.4137 3.61L 79.4137 0L 77.5191 0z"/>
<path style="stroke:none; fill-rule:evenodd; fill:#000000" d="M 91.8394 9.563C 91.5152 9.25401 91.4215 9.05501 91.4215 8.67601L 91.4215 4.64101C 91.4215 3.164 90.4176 2.40701 88.4566 2.40701C 86.4996 2.40701 85.4801 3.25 85.359 4.953L 87.1832 4.953C 87.2769 4.16 87.5855 3.90701 88.523 3.90701C 89.2535 3.90701 89.6168 4.149 89.6168 4.63301C 89.6168 4.875 89.4996 5.09001 89.2965 5.20001C 89.0426 5.332 89.0426 5.332 88.1129 5.481L 87.3629 5.61401C 85.9254 5.856 85.2261 6.59801 85.2261 7.90701C 85.2261 8.524 85.398 9.039 85.734 9.403C 86.148 9.832 86.7769 10.09 87.4215 10.09C 88.2261 10.09 88.9605 9.74301 89.6207 9.05501C 89.6207 9.43001 89.6597 9.567 89.8316 9.78201L 91.8394 9.78201L 91.8394 9.563zM 89.6168 6.895C 89.6168 7.981 89.0855 8.59801 88.1363 8.59801C 87.5113 8.59801 87.1207 8.26201 87.1207 7.72701C 87.1207 7.164 87.4137 6.895 88.1871 6.735L 88.8277 6.61801C 89.3199 6.524 89.4019 6.5 89.6129 6.39101L 89.6168 6.895z"/>
<path style="stroke:none; fill-rule:evenodd; fill:#000000" d="M 98.9839 4.895C 98.9569 3.34001 97.7689 2.403 95.8159 2.403C 93.9683 2.403 92.8238 3.328 92.8238 4.817C 92.8238 5.29701 92.9722 5.71501 93.2301 5.996C 93.484 6.25 93.7144 6.371 94.4219 6.59801L 96.6829 7.29301C 97.1559 7.438 97.3199 7.58601 97.3199 7.88301C 97.3199 8.32501 96.7999 8.59401 95.9249 8.59401C 95.4449 8.59401 95.0539 8.50401 94.8119 8.35201C 94.6129 8.21101 94.5309 8.07101 94.4529 7.69601L 92.6168 7.69601C 92.6676 9.27 93.8394 10.098 96.0469 10.098C 97.0539 10.098 97.8199 9.88701 98.3589 9.457C 98.8939 9.03201 99.2179 8.36 99.2179 7.649C 99.2179 6.71101 98.7459 6.106 97.7849 5.82501L 95.3899 5.14101C 94.8629 4.981 94.7299 4.875 94.7299 4.578C 94.7299 4.18001 95.1599 3.91 95.8199 3.91C 96.7179 3.91 97.1639 4.235 97.1749 4.903L 98.9839 4.895z"/>
<path style="stroke:none; fill-rule:evenodd; fill:#000000" d="M 106.738 6.70001C 106.75 6.54301 106.75 6.47701 106.75 6.38301C 106.75 5.664 106.644 5 106.468 4.496C 105.988 3.192 104.824 2.40701 103.363 2.40701C 101.289 2.40701 100.015 3.914 100.015 6.34801C 100.015 8.67601 101.273 10.102 103.324 10.102C 104.941 10.102 106.258 9.18401 106.672 7.76601L 104.824 7.76601C 104.597 8.356 104.074 8.70001 103.39 8.70001C 102.855 8.70001 102.425 8.46101 102.16 8.039C 101.988 7.75801 101.922 7.42201 101.894 6.703L 106.738 6.70001zM 101.914 5.5C 102.031 4.36801 102.5 3.80101 103.332 3.80101C 103.8 3.80101 104.226 4.03601 104.496 4.42201C 104.668 4.69601 104.75 4.985 104.789 5.496L 101.914 5.5z"/>
<path style="stroke:none; fill-rule:evenodd; fill:#000000" d="M 152.019 0L 152.019 9.789L 153.918 9.789L 153.918 9.05101C 154.367 9.76201 154.992 10.098 155.898 10.098C 157.613 10.098 158.914 8.44601 158.914 6.25C 158.914 5.27 158.621 4.274 158.144 3.57501C 157.656 2.86401 156.777 2.40701 155.898 2.40701C 155.008 2.40701 154.371 2.75401 153.918 3.50801L 153.918 0.00801086L 152.019 0zM 155.468 4C 156.375 4 157.019 4.93001 157.019 6.26201C 157.019 7.567 156.379 8.496 155.468 8.496C 154.539 8.496 153.922 7.59401 153.922 6.22301C 153.922 4.92201 154.55 4 155.468 4z"/>
<path style="stroke:none; fill-rule:evenodd; fill:#000000" d="M 161.047 12.481C 162.578 10.16 163.218 8.30501 163.218 6.25C 163.218 4.18401 162.582 2.332 161.047 0.00401306L 159.718 0.00401306C 161.16 2.77 161.621 4.274 161.621 6.25C 161.621 8.21101 161.16 9.73901 159.718 12.481L 161.047 12.481z"/>
<path style="stroke:none; fill-rule:evenodd; fill:#000000" d="M 170.617 6.30101L 173.14 6.30101C 174.949 6.30101 176.113 5.028 176.113 3.039C 176.113 1.078 174.996 0.00401306 172.949 0.00401306L 168.617 0.00401306L 168.617 9.80101L 170.617 9.80101L 170.617 6.30101zM 170.617 4.59801L 170.617 1.70001L 172.523 1.70001C 173.609 1.70001 174.117 2.16 174.117 3.153C 174.117 4.12901 173.613 4.59401 172.523 4.59401L 170.617 4.59801z"/>
<path style="stroke:none; fill-rule:evenodd; fill:#000000" d="M 177.418 9.80101L 179.316 9.80101L 179.316 0.00401306L 177.418 0.00401306L 177.418 9.80101z"/>
<path style="stroke:none; fill-rule:evenodd; fill:#000000" d="M 187.519 9.79301L 187.519 2.60201L 185.621 2.60201L 185.621 7.09001C 185.621 7.938 185.023 8.496 184.117 8.496C 183.32 8.496 182.922 8.07501 182.922 7.21101L 182.922 2.60201L 181.023 2.60201L 181.023 7.61C 181.023 9.192 181.906 10.098 183.449 10.098C 184.425 10.098 185.082 9.74301 185.621 8.942L 185.621 9.79301L 187.519 9.79301z"/>
<path style="stroke:none; fill-rule:evenodd; fill:#000000" d="M 195.183 4.895C 195.156 3.34001 193.968 2.403 192.015 2.403C 190.168 2.403 189.023 3.328 189.023 4.817C 189.023 5.29701 189.172 5.71501 189.429 5.996C 189.683 6.25 189.914 6.371 190.621 6.59801L 192.882 7.29301C 193.355 7.438 193.519 7.58601 193.519 7.88301C 193.519 8.32501 193 8.59401 192.125 8.59401C 191.644 8.59401 191.254 8.50401 191.011 8.35201C 190.812 8.21101 190.73 8.07101 190.652 7.69601L 188.816 7.69601C 188.867 9.27 190.039 10.098 192.246 10.098C 193.254 10.098 194.019 9.88701 194.558 9.457C 195.093 9.03201 195.418 8.36 195.418 7.649C 195.418 6.71101 194.945 6.106 193.984 5.82501L 191.59 5.14101C 191.062 4.981 190.929 4.875 190.929 4.578C 190.929 4.18001 191.359 3.91 192.019 3.91C 192.918 3.91 193.363 4.235 193.375 4.903L 195.183 4.895z"/>
<path style="stroke:none; fill-rule:evenodd; fill:#000000" d="M 202.617 6.30101L 205.14 6.30101C 206.949 6.30101 208.113 5.028 208.113 3.039C 208.113 1.078 206.996 0.00401306 204.949 0.00401306L 200.617 0.00401306L 200.617 9.80101L 202.617 9.80101L 202.617 6.30101zM 202.617 4.59801L 202.617 1.70001L 204.523 1.70001C 205.609 1.70001 206.117 2.16 206.117 3.153C 206.117 4.12901 205.613 4.59401 204.523 4.59401L 202.617 4.59801z"/>
<path style="stroke:none; fill-rule:evenodd; fill:#000000" d="M 209.418 0L 209.418 9.79701L 211.316 9.79701L 211.316 5.43001C 211.316 4.59401 211.918 4 212.761 4C 213.16 4 213.484 4.149 213.699 4.44601C 213.859 4.688 213.91 4.875 213.91 5.34801L 213.91 9.79701L 215.808 9.79701L 215.808 4.91801C 215.808 4.01601 215.566 3.371 215.07 2.953C 214.652 2.606 214.047 2.403 213.441 2.403C 212.511 2.403 211.84 2.789 211.312 3.61L 211.312 0L 209.418 0z"/>
<path style="stroke:none; fill-rule:evenodd; fill:#000000" d="M 223.738 9.563C 223.414 9.25401 223.32 9.05501 223.32 8.67601L 223.32 4.64101C 223.32 3.164 222.316 2.40701 220.355 2.40701C 218.398 2.40701 217.379 3.25 217.258 4.953L 219.082 4.953C 219.175 4.16 219.484 3.90701 220.422 3.90701C 221.152 3.90701 221.515 4.149 221.515 4.63301C 221.515 4.875 221.398 5.09001 221.195 5.20001C 220.941 5.332 220.941 5.332 220.011 5.481L 219.261 5.61401C 217.824 5.856 217.125 6.59801 217.125 7.90701C 217.125 8.524 217.297 9.039 217.632 9.403C 218.047 9.832 218.675 10.09 219.32 10.09C 220.125 10.09 220.859 9.74301 221.519 9.05501C 221.519 9.43001 221.558 9.567 221.73 9.78201L 223.738 9.78201L 223.738 9.563zM 221.519 6.895C 221.519 7.981 220.988 8.59801 220.039 8.59801C 219.414 8.59801 219.023 8.26201 219.023 7.72701C 219.023 7.164 219.316 6.895 220.09 6.735L 220.73 6.61801C 221.222 6.524 221.304 6.5 221.515 6.39101L 221.519 6.895z"/>
<path style="stroke:none; fill-rule:evenodd; fill:#000000" d="M 230.984 4.895C 230.957 3.34001 229.769 2.403 227.816 2.403C 225.968 2.403 224.824 3.328 224.824 4.817C 224.824 5.29701 224.972 5.71501 225.23 5.996C 225.484 6.25 225.715 6.371 226.422 6.59801L 228.683 7.29301C 229.156 7.438 229.32 7.58601 229.32 7.88301C 229.32 8.32501 228.8 8.59401 227.925 8.59401C 227.445 8.59401 227.054 8.50401 226.812 8.35201C 226.613 8.21101 226.531 8.07101 226.453 7.69601L 224.617 7.69601C 224.668 9.27 225.84 10.098 228.047 10.098C 229.054 10.098 229.82 9.88701 230.359 9.457C 230.894 9.03201 231.218 8.36 231.218 7.649C 231.218 6.71101 230.746 6.106 229.785 5.82501L 227.39 5.14101C 226.863 4.981 226.73 4.875 226.73 4.578C 226.73 4.18001 227.16 3.91 227.82 3.91C 228.718 3.91 229.164 4.235 229.175 4.903L 230.984 4.895z"/>
<path style="stroke:none; fill-rule:evenodd; fill:#000000" d="M 238.636 6.70001C 238.648 6.54301 238.648 6.47701 238.648 6.38301C 238.648 5.664 238.543 5 238.367 4.496C 237.886 3.192 236.722 2.40701 235.261 2.40701C 233.187 2.40701 231.914 3.914 231.914 6.34801C 231.914 8.67601 233.172 10.102 235.222 10.102C 236.84 10.102 238.156 9.18401 238.57 7.76601L 236.722 7.76601C 236.496 8.356 235.972 8.70001 235.289 8.70001C 234.754 8.70001 234.324 8.46101 234.058 8.039C 233.886 7.75801 233.82 7.42201 233.793 6.703L 238.636 6.70001zM 233.816 5.5C 233.933 4.36801 234.402 3.80101 235.234 3.80101C 235.703 3.80101 236.129 4.03601 236.398 4.42201C 236.57 4.69601 236.652 4.985 236.691 5.496L 233.816 5.5z"/>
<path style="stroke:none; fill-rule:evenodd; fill:#000000" d="M 223.019 45.7L 222.121 45.7L 222.121 44.032L 221.121 44.032L 221.121 45.7L 220.222 45.7L 220.222 46.496L 221.121 46.496L 221.121 51.043C 221.121 51.649 221.523 51.993 222.254 51.993C 222.476 51.993 222.703 51.969 223.015 51.91L 223.015 51.075C 222.902 51.164 222.765 51.192 222.597 51.192C 222.222 51.192 222.117 51.078 222.117 50.649L 222.117 46.496L 223.015 46.496L 223.019 45.7z"/>
<path style="stroke:none; fill-rule:evenodd; fill:#000000" d="M 224.617 47.2L 223.617 47.2L 223.617 55.598L 224.617 55.598L 224.617 53.258L 225.55 52.34L 227.59 55.598L 228.777 55.598L 226.308 51.672L 228.406 49.602L 227.175 49.602L 224.617 52.133L 224.617 47.2z"/>
<path style="stroke:none; fill-rule:evenodd; fill:#000000" d="M 220.019 116.098L 220.019 124.496L 221.019 124.496L 221.019 121.149C 221.019 119.91 221.644 119.098 222.609 119.098C 222.91 119.098 223.211 119.2 223.437 119.375C 223.703 119.571 223.816 119.86 223.816 120.289L 223.816 124.493L 224.816 124.493L 224.816 119.942C 224.816 118.93 224.097 118.297 222.933 118.297C 222.09 118.297 221.578 118.563 221.019 119.305L 221.019 116.098L 220.019 116.098z"/>
<path style="stroke:none; fill-rule:evenodd; fill:#000000" d="M 226.218 122.801L 226.218 129.703C 226.218 130.301 226.027 130.496 225.441 130.496C 225.41 130.496 225.41 130.496 225.215 130.496L 225.215 131.262C 225.328 131.282 225.39 131.293 225.543 131.293C 226.644 131.293 227.218 130.86 227.218 130.047L 227.218 122.797L 226.218 122.801zM 227.218 120.399L 226.218 120.399L 226.218 121.598L 227.218 121.598L 227.218 120.399z"/>
<path style="stroke:none; fill-rule:evenodd; fill:#000000" d="M 229.148 117.098L 226.816 117.098L 226.816 114.758L 226.019 114.758L 226.019 117.098L 223.597 117.098L 223.597 117.895L 226.019 117.895L 226.019 120.309L 226.816 120.309L 226.816 117.895L 229.148 117.895L 229.148 117.098z"/>
<path style="stroke:none; fill-rule:evenodd; fill:#000000" d="M 39.1441 23.2C 38.0269 24.707 37.3199 26.801 37.3199 28.61C 37.3199 30.426 38.023 32.52 39.1441 34.032L 39.7574 34.032C 38.7691 32.387 38.2183 30.453 38.2183 28.61C 38.2183 26.782 38.7691 24.836 39.7574 23.2L 39.1441 23.2z"/>
<path style="stroke:none; fill-rule:evenodd; fill:#000000" d="M 46.3629 31.036C 46.2574 31.098 46.2105 31.098 46.1519 31.098C 45.8121 31.098 45.6246 30.926 45.6246 30.625L 45.6246 27.059C 45.6246 25.985 44.8472 25.403 43.3746 25.403C 42.5074 25.403 41.7887 25.657 41.3863 26.106C 41.1129 26.414 40.9996 26.762 40.9761 27.364L 41.9215 27.364C 41.9996 26.633 42.4254 26.305 43.3082 26.305C 44.1519 26.305 44.6246 26.625 44.6246 27.203L 44.6246 27.457C 44.6246 27.86 44.3902 28.032 43.648 28.125C 42.3238 28.297 42.1207 28.344 41.7613 28.493C 41.0777 28.778 40.7301 29.321 40.7301 30.106C 40.7301 31.2 41.484 31.891 42.6988 31.891C 43.4527 31.891 44.0582 31.618 44.734 30.973C 44.8004 31.606 45.0972 31.891 45.7183 31.891C 45.9097 31.891 46.0582 31.868 46.3668 31.786L 46.3629 31.036zM 44.6168 29.739C 44.6168 30.067 44.5308 30.27 44.2496 30.543C 43.8707 30.907 43.4137 31.098 42.8668 31.098C 42.1441 31.098 41.7222 30.735 41.7222 30.106C 41.7222 29.457 42.1324 29.125 43.1246 28.973C 44.1051 28.832 44.3043 28.786 44.6168 28.629L 44.6168 29.739z"/>
<path style="stroke:none; fill-rule:evenodd; fill:#000000" d="M 52.0269 27.606C 51.984 27.02 51.859 26.637 51.6285 26.305C 51.2222 25.743 50.5035 25.407 49.6715 25.407C 48.0699 25.407 47.023 26.7 47.023 28.711C 47.023 30.664 48.0465 31.903 49.6637 31.903C 51.0855 31.903 51.984 31.028 52.0972 29.539L 51.1441 29.539C 50.9879 30.516 50.4996 31.004 49.691 31.004C 48.648 31.004 48.023 30.141 48.023 28.715C 48.023 27.207 48.6324 26.309 49.6676 26.309C 50.4605 26.309 50.9605 26.778 51.0738 27.61L 52.0269 27.606z"/>
<path style="stroke:none; fill-rule:evenodd; fill:#000000" d="M 55.3199 25.598L 54.4215 25.598L 54.4215 23.93L 53.4215 23.93L 53.4215 25.598L 52.523 25.598L 52.523 26.395L 53.4215 26.395L 53.4215 30.942C 53.4215 31.547 53.8238 31.891 54.5543 31.891C 54.7769 31.891 55.0035 31.868 55.316 31.809L 55.316 30.973C 55.2027 31.063 55.066 31.09 54.898 31.09C 54.523 31.09 54.4176 30.977 54.4176 30.547L 54.4176 26.395L 55.316 26.395L 55.3199 25.598z"/>
<path style="stroke:none; fill-rule:evenodd; fill:#000000" d="M 61.1168 31.633L 61.1168 25.598L 60.1168 25.598L 60.1168 29.043C 60.1168 30.282 59.4722 31.094 58.4683 31.094C 57.7066 31.094 57.2222 30.633 57.2222 29.903L 57.2222 25.598L 56.2222 25.598L 56.2222 30.25C 56.2222 31.25 56.9801 31.895 58.1715 31.895C 59.0699 31.895 59.6441 31.586 60.2144 30.793L 60.2144 31.633L 61.1168 31.633z"/>
<path style="stroke:none; fill-rule:evenodd; fill:#000000" d="M 68.0621 31.036C 67.9566 31.098 67.9097 31.098 67.8511 31.098C 67.5113 31.098 67.3238 30.926 67.3238 30.625L 67.3238 27.059C 67.3238 25.985 66.5465 25.403 65.0738 25.403C 64.2066 25.403 63.4879 25.657 63.0855 26.106C 62.8121 26.414 62.6988 26.762 62.6754 27.364L 63.6207 27.364C 63.6988 26.633 64.1246 26.305 65.0074 26.305C 65.8511 26.305 66.3238 26.625 66.3238 27.203L 66.3238 27.457C 66.3238 27.86 66.0894 28.032 65.3472 28.125C 64.023 28.297 63.8199 28.344 63.4605 28.493C 62.7769 28.778 62.4293 29.321 62.4293 30.106C 62.4293 31.2 63.1832 31.891 64.398 31.891C 65.1519 31.891 65.7574 31.618 66.4332 30.973C 66.4996 31.606 66.7965 31.891 67.4176 31.891C 67.609 31.891 67.7574 31.868 68.066 31.786L 68.0621 31.036zM 66.3199 29.739C 66.3199 30.067 66.234 30.27 65.9527 30.543C 65.5738 30.907 65.1168 31.098 64.5699 31.098C 63.8472 31.098 63.4254 30.735 63.4254 30.106C 63.4254 29.457 63.8355 29.125 64.8277 28.973C 65.8082 28.832 66.0074 28.786 66.3199 28.629L 66.3199 29.739z"/>
<path style="stroke:none; fill-rule:evenodd; fill:#000000" d="M 69.1168 31.598L 70.1168 31.598L 70.1168 23.2L 69.1168 23.2L 69.1168 31.598z"/>
<path style="stroke:none; fill-rule:evenodd; fill:#000000" d="M 77.2574 25.399C 75.5543 25.399 74.523 26.61 74.523 28.649C 74.523 30.68 75.5426 31.899 77.273 31.899C 78.9761 31.899 80.023 30.688 80.023 28.696C 80.023 26.606 79.0152 25.403 77.2613 25.403L 77.2574 25.399zM 77.2691 26.301C 78.3629 26.301 79.0191 27.188 79.0191 28.684C 79.0191 30.098 78.3433 30.996 77.2691 30.996C 76.1871 30.996 75.523 30.11 75.523 28.649C 75.523 27.2 76.1871 26.301 77.2691 26.301z"/>
<path style="stroke:none; fill-rule:evenodd; fill:#000000" d="M 86.0191 31.633L 86.0191 25.598L 85.0191 25.598L 85.0191 29.043C 85.0191 30.282 84.3746 31.094 83.3707 31.094C 82.609 31.094 82.1246 30.633 82.1246 29.903L 82.1246 25.598L 81.1246 25.598L 81.1246 30.25C 81.1246 31.25 81.8824 31.895 83.0738 31.895C 83.9722 31.895 84.5465 31.586 85.1168 30.793L 85.1168 31.633L 86.0191 31.633z"/>
<path style="stroke:none; fill-rule:evenodd; fill:#000000" d="M 89.7183 25.598L 88.8199 25.598L 88.8199 23.93L 87.8199 23.93L 87.8199 25.598L 86.9215 25.598L 86.9215 26.395L 87.8199 26.395L 87.8199 30.942C 87.8199 31.547 88.2222 31.891 88.9527 31.891C 89.1754 31.891 89.4019 31.868 89.7144 31.809L 89.7144 30.973C 89.6011 31.063 89.4644 31.09 89.2965 31.09C 88.9215 31.09 88.816 30.977 88.816 30.547L 88.816 26.395L 89.7144 26.395L 89.7183 25.598z"/>
<path style="stroke:none; fill-rule:evenodd; fill:#000000" d="M 90.6168 34.106L 91.6168 34.106L 91.6168 31.004C 92.1168 31.625 92.6793 31.903 93.4566 31.903C 94.9999 31.903 96.0149 30.645 96.0149 28.711C 96.0149 26.676 95.0309 25.407 93.4332 25.407C 92.6207 25.407 91.9644 25.774 91.5191 26.485L 91.5191 25.578L 90.6207 25.578L 90.6168 34.106zM 93.2847 26.301C 94.3319 26.301 95.0189 27.239 95.0189 28.684C 95.0189 30.059 94.3239 30.996 93.2847 30.996C 92.2808 30.996 91.6207 30.071 91.6207 28.649C 91.6207 27.227 92.2808 26.301 93.2847 26.301z"/>
<path style="stroke:none; fill-rule:evenodd; fill:#000000" d="M 102.019 31.633L 102.019 25.598L 101.019 25.598L 101.019 29.043C 101.019 30.282 100.375 31.094 99.3709 31.094C 98.6089 31.094 98.1249 30.633 98.1249 29.903L 98.1249 25.598L 97.1249 25.598L 97.1249 30.25C 97.1249 31.25 97.8819 31.895 99.0739 31.895C 99.9719 31.895 100.547 31.586 101.117 30.793L 101.117 31.633L 102.019 31.633z"/>
<path style="stroke:none; fill-rule:evenodd; fill:#000000" d="M 105.718 25.598L 104.82 25.598L 104.82 23.93L 103.82 23.93L 103.82 25.598L 102.922 25.598L 102.922 26.395L 103.82 26.395L 103.82 30.942C 103.82 31.547 104.222 31.891 104.953 31.891C 105.175 31.891 105.402 31.868 105.715 31.809L 105.715 30.973C 105.601 31.063 105.465 31.09 105.297 31.09C 104.922 31.09 104.816 30.977 104.816 30.547L 104.816 26.395L 105.715 26.395L 105.718 25.598z"/>
<path style="stroke:none; fill-rule:evenodd; fill:#000000" d="M 107.078 34.036C 108.207 32.528 108.918 30.434 108.918 28.629C 108.918 26.813 108.207 24.719 107.078 23.207L 106.461 23.207C 107.465 24.852 108.023 26.786 108.023 28.629C 108.023 30.457 107.465 32.403 106.461 34.036L 107.078 34.036z"/>
<path style="stroke:#000000; stroke-width:1.9139600000000001; fill:none" d="M 166.519 38.774L 166.519 27.297"/>
<path style="stroke:#000000; stroke-width:1.9139600000000001; fill:none" d="M 166.519 38.774L 162.695 34.95"/>
<path style="stroke:#000000; stroke-width:1.9139600000000001; fill:none" d="M 166.519 38.774L 170.343 34.95"/>
<path style="stroke:#000000; stroke-width:1.9139600000000001; fill:none" d="M 193.308 38.778L 193.308 27.301"/>
<path style="stroke:#000000; stroke-width:1.9139600000000001; fill:none" d="M 193.308 38.778L 189.484 34.953"/>
<path style="stroke:#000000; stroke-width:1.9139600000000001; fill:none" d="M 193.308 38.778L 197.132 34.953"/>
<path style="stroke:#000000; stroke-width:1.9139600000000001; fill:none" d="M 223.925 38.778L 223.925 27.301"/>
<path style="stroke:#000000; stroke-width:1.9139600000000001; fill:none" d="M 223.925 38.778L 220.101 34.953"/>
<path style="stroke:#000000; stroke-width:1.9139600000000001; fill:none" d="M 223.925 38.778L 227.75 34.953"/>
<path style="stroke:#000000; stroke-width:1.9139600000000001; fill:none" d="M 266.019 38.782L 266.019 27.305"/>
<path style="stroke:#000000; stroke-width:1.9139600000000001; fill:none" d="M 266.019 38.782L 262.195 34.957"/>
<path style="stroke:#000000; stroke-width:1.9139600000000001; fill:none" d="M 266.019 38.782L 269.843 34.957"/>
<path style="stroke:none; fill-rule:evenodd; fill:#000000" d="M 180.117 20.2L 184.675 20.2L 184.675 19.301L 180.117 19.301L 180.117 16.504L 184.816 16.504L 184.816 15.606L 179.019 15.606L 179.019 24.004L 185.019 24.004L 185.019 23.106L 180.121 23.106L 180.117 20.2z"/>
<path style="stroke:none; fill-rule:evenodd; fill:#000000" d="M 189.07 20.899L 191.09 18.004L 190.011 18.004L 188.566 20.168L 187.121 18.004L 186.031 18.004L 188.039 20.946L 185.918 24L 187.008 24L 188.531 21.696L 190.035 24L 191.148 24L 189.07 20.899z"/>
<path style="stroke:none; fill-rule:evenodd; fill:#000000" d="M 194.32 18L 193.422 18L 193.422 16.332L 192.422 16.332L 192.422 18L 191.523 18L 191.523 18.797L 192.422 18.797L 192.422 23.344C 192.422 23.95 192.824 24.293 193.554 24.293C 193.777 24.293 194.004 24.27 194.316 24.211L 194.316 23.375C 194.203 23.465 194.066 23.493 193.898 23.493C 193.523 23.493 193.418 23.379 193.418 22.95L 193.418 18.797L 194.316 18.797L 194.32 18z"/>
<path style="stroke:none; fill-rule:evenodd; fill:#000000" d="M 200.519 21.301C 200.519 20.383 200.453 19.832 200.281 19.387C 199.894 18.403 198.98 17.805 197.863 17.805C 196.199 17.805 195.125 19.098 195.125 21.086C 195.125 23.075 196.16 24.301 197.836 24.301C 199.199 24.301 200.148 23.508 200.386 22.176L 199.433 22.176C 199.172 22.981 198.64 23.399 197.879 23.399C 197.277 23.399 196.765 23.121 196.449 22.606C 196.222 22.258 196.144 21.907 196.132 21.301L 200.519 21.301zM 196.097 20.532C 196.175 19.418 196.855 18.696 197.82 18.696C 198.761 18.696 199.484 19.473 199.484 20.461C 199.484 20.481 199.484 20.504 199.476 20.528L 196.097 20.532z"/>
<path style="stroke:none; fill-rule:evenodd; fill:#000000" d="M 201.82 17.973L 201.82 23.996L 202.82 23.996L 202.82 20.864C 202.82 20 203.031 19.438 203.48 19.102C 203.769 18.883 204.05 18.817 204.703 18.805L 204.703 17.84C 204.547 17.821 204.465 17.809 204.34 17.809C 203.73 17.809 203.265 18.176 202.718 19.075L 202.718 17.985L 201.82 17.973z"/>
<path style="stroke:none; fill-rule:evenodd; fill:#000000" d="M 205.617 17.973L 205.617 23.996L 206.617 23.996L 206.617 20.649C 206.617 19.41 207.242 18.598 208.207 18.598C 208.945 18.598 209.414 19.059 209.414 19.789L 209.414 23.993L 210.414 23.993L 210.414 19.442C 210.414 18.442 209.672 17.797 208.511 17.797C 207.621 17.797 207.047 18.141 206.519 18.981L 206.519 17.969L 205.617 17.973z"/>
<path style="stroke:none; fill-rule:evenodd; fill:#000000" d="M 217.363 23.438C 217.258 23.5 217.211 23.5 217.152 23.5C 216.812 23.5 216.625 23.328 216.625 23.028L 216.625 19.461C 216.625 18.387 215.847 17.805 214.375 17.805C 213.508 17.805 212.789 18.059 212.386 18.508C 212.113 18.817 212 19.164 211.976 19.766L 212.922 19.766C 213 19.036 213.425 18.707 214.308 18.707C 215.152 18.707 215.625 19.028 215.625 19.606L 215.625 19.86C 215.625 20.262 215.39 20.434 214.648 20.528C 213.324 20.7 213.121 20.746 212.761 20.895C 212.078 21.18 211.73 21.723 211.73 22.508C 211.73 23.602 212.484 24.293 213.699 24.293C 214.453 24.293 215.058 24.02 215.734 23.375C 215.8 24.008 216.097 24.293 216.718 24.293C 216.91 24.293 217.058 24.27 217.367 24.188L 217.363 23.438zM 215.617 22.137C 215.617 22.465 215.531 22.668 215.25 22.942C 214.871 23.305 214.414 23.496 213.867 23.496C 213.144 23.496 212.722 23.133 212.722 22.504C 212.722 21.856 213.132 21.524 214.125 21.371C 215.105 21.231 215.304 21.184 215.617 21.028L 215.617 22.137z"/>
<path style="stroke:none; fill-rule:evenodd; fill:#000000" d="M 218.418 24L 219.418 24L 219.418 15.602L 218.418 15.602L 218.418 24z"/>
<path style="stroke:none; fill-rule:evenodd; fill:#000000" d="M 227.519 16.5L 230.226 16.5L 230.226 15.602L 223.66 15.602L 223.66 16.5L 226.418 16.5L 226.418 24L 227.515 24L 227.519 16.5z"/>
<path style="stroke:none; fill-rule:evenodd; fill:#000000" d="M 236.562 23.438C 236.457 23.5 236.41 23.5 236.351 23.5C 236.011 23.5 235.824 23.328 235.824 23.028L 235.824 19.461C 235.824 18.387 235.047 17.805 233.574 17.805C 232.707 17.805 231.988 18.059 231.586 18.508C 231.312 18.817 231.199 19.164 231.175 19.766L 232.121 19.766C 232.199 19.036 232.625 18.707 233.508 18.707C 234.351 18.707 234.824 19.028 234.824 19.606L 234.824 19.86C 234.824 20.262 234.59 20.434 233.847 20.528C 232.523 20.7 232.32 20.746 231.961 20.895C 231.277 21.18 230.929 21.723 230.929 22.508C 230.929 23.602 231.683 24.293 232.898 24.293C 233.652 24.293 234.258 24.02 234.933 23.375C 235 24.008 235.297 24.293 235.918 24.293C 236.109 24.293 236.258 24.27 236.566 24.188L 236.562 23.438zM 234.82 22.137C 234.82 22.465 234.734 22.668 234.453 22.942C 234.074 23.305 233.617 23.496 233.07 23.496C 232.347 23.496 231.925 23.133 231.925 22.504C 231.925 21.856 232.336 21.524 233.328 21.371C 234.308 21.231 234.508 21.184 234.82 21.028L 234.82 22.137z"/>
<path style="stroke:none; fill-rule:evenodd; fill:#000000" d="M 237.617 17.973L 237.617 23.996L 238.617 23.996L 238.617 20.864C 238.617 20 238.828 19.438 239.277 19.102C 239.566 18.883 239.847 18.817 240.5 18.805L 240.5 17.84C 240.343 17.821 240.261 17.809 240.136 17.809C 239.527 17.809 239.062 18.176 238.515 19.075L 238.515 17.985L 237.617 17.973z"/>
<path style="stroke:none; fill-rule:evenodd; fill:#000000" d="M 245.32 18L 245.32 18.852C 244.84 18.133 244.254 17.797 243.484 17.797C 241.957 17.797 240.925 19.137 240.925 21.102C 240.925 22.094 241.187 22.903 241.679 23.481C 242.125 23.989 242.765 24.289 243.398 24.289C 244.152 24.289 244.679 23.961 245.218 23.176L 245.218 23.485C 245.218 24.297 245.117 24.793 244.879 25.125C 244.629 25.481 244.14 25.688 243.562 25.688C 243.132 25.688 242.746 25.575 242.484 25.368C 242.269 25.196 242.179 25.036 242.121 24.68L 241.156 24.68C 241.258 25.813 242.14 26.489 243.547 26.489C 244.437 26.489 245.203 26.203 245.593 25.723C 246.05 25.176 246.222 24.418 246.222 23.012L 246.222 17.996L 245.32 18zM 243.578 18.7C 244.605 18.7 245.215 19.575 245.215 21.082C 245.215 22.52 244.597 23.395 243.59 23.395C 242.547 23.395 241.918 22.508 241.918 21.047C 241.918 19.598 242.558 18.7 243.578 18.7z"/>
<path style="stroke:none; fill-rule:evenodd; fill:#000000" d="M 252.918 21.301C 252.918 20.383 252.851 19.832 252.679 19.387C 252.293 18.403 251.379 17.805 250.261 17.805C 248.597 17.805 247.523 19.098 247.523 21.086C 247.523 23.075 248.558 24.301 250.234 24.301C 251.597 24.301 252.547 23.508 252.785 22.176L 251.832 22.176C 251.57 22.981 251.039 23.399 250.277 23.399C 249.675 23.399 249.164 23.121 248.847 22.606C 248.621 22.258 248.543 21.907 248.531 21.301L 252.918 21.301zM 248.5 20.532C 248.578 19.418 249.258 18.696 250.222 18.696C 251.164 18.696 251.886 19.473 251.886 20.461C 251.886 20.481 251.886 20.504 251.879 20.528L 248.5 20.532z"/>
<path style="stroke:none; fill-rule:evenodd; fill:#000000" d="M 256.218 18L 255.32 18L 255.32 16.332L 254.32 16.332L 254.32 18L 253.422 18L 253.422 18.797L 254.32 18.797L 254.32 23.344C 254.32 23.95 254.722 24.293 255.453 24.293C 255.675 24.293 255.902 24.27 256.215 24.211L 256.215 23.375C 256.101 23.465 255.965 23.493 255.797 23.493C 255.422 23.493 255.316 23.379 255.316 22.95L 255.316 18.797L 256.215 18.797L 256.218 18z"/>
<path style="stroke:none; fill-rule:evenodd; fill:#000000" d="M 80.148 192.36C 80.1363 191.172 79.3511 190.504 77.9488 190.504C 76.5387 190.504 75.6207 191.231 75.6207 192.348C 75.6207 193.293 76.109 193.743 77.5582 194.09L 78.4683 194.309C 79.1441 194.469 79.4137 194.711 79.4137 195.149C 79.4137 195.711 78.8472 196.094 78.0035 196.094C 77.484 196.094 77.0465 195.946 76.8043 195.688C 76.6558 195.516 76.5855 195.34 76.5308 194.907L 75.5152 194.907C 75.5582 196.317 76.3433 196.996 77.9254 196.996C 79.4488 196.996 80.4176 196.246 80.4176 195.082C 80.4176 194.184 79.9058 193.688 78.691 193.399L 77.7574 193.18C 76.9644 192.996 76.6246 192.743 76.6246 192.317C 76.6246 191.766 77.1207 191.407 77.9097 191.407C 78.6871 191.407 79.1051 191.735 79.1285 192.364L 80.148 192.36z"/>
<path style="stroke:none; fill-rule:evenodd; fill:#000000" d="M 81.6168 195.5L 80.6168 195.5L 80.6168 201.5L 81.6168 201.5L 81.6168 195.5zM 81.6168 193.098L 80.6168 193.098L 80.6168 194.329L 81.6168 194.329L 81.6168 193.098z"/>
<path style="stroke:none; fill-rule:evenodd; fill:#000000" d="M 92.9176 203.899L 94.1168 203.899L 94.1168 202.7L 92.9176 202.7L 92.9176 203.899z"/>
<path style="stroke:none; fill-rule:evenodd; fill:#000000" d="M 99.3199 203.899L 100.519 203.899L 100.519 202.7L 99.3199 202.7L 99.3199 203.899z"/>
<path style="stroke:none; fill-rule:evenodd; fill:#000000" d="M 105.718 203.899L 106.918 203.899L 106.918 202.7L 105.718 202.7L 105.718 203.899z"/>
<path style="stroke:none; fill-rule:evenodd; fill:#000000" d="M 92.9176 131.2L 94.1168 131.2L 94.1168 130L 92.9176 130L 92.9176 131.2z"/>
<path style="stroke:none; fill-rule:evenodd; fill:#000000" d="M 99.3199 131.2L 100.519 131.2L 100.519 130L 99.3199 130L 99.3199 131.2z"/>
<path style="stroke:none; fill-rule:evenodd; fill:#000000" d="M 105.718 131.2L 106.918 131.2L 106.918 130L 105.718 130L 105.718 131.2z"/>
<path style="stroke:none; fill-rule:evenodd; fill:#000000" d="M 92.9176 58.5L 94.1168 58.5L 94.1168 57.301L 92.9176 57.301L 92.9176 58.5z"/>
<path style="stroke:none; fill-rule:evenodd; fill:#000000" d="M 99.3199 58.5L 100.519 58.5L 100.519 57.301L 99.3199 57.301L 99.3199 58.5z"/>
<path style="stroke:none; fill-rule:evenodd; fill:#000000" d="M 105.718 58.5L 106.918 58.5L 106.918 57.301L 105.718 57.301L 105.718 58.5z"/>
<path style="stroke:none; fill-rule:evenodd; fill:#000000" d="M 76.1558 45.098C 74.4527 45.098 73.4215 46.309 73.4215 48.348C 73.4215 50.379 74.441 51.598 76.1715 51.598C 77.8746 51.598 78.9215 50.387 78.9215 48.395C 78.9215 46.305 77.9137 45.102 76.1597 45.102L 76.1558 45.098zM 76.1676 46C 77.2613 46 77.9176 46.887 77.9176 48.383C 77.9176 49.797 77.2418 50.696 76.1676 50.696C 75.0855 50.696 74.4215 49.809 74.4215 48.348C 74.4215 46.899 75.0855 46 76.1676 46z"/>
<path style="stroke:none; fill-rule:evenodd; fill:#000000" d="M 80.8199 47.7L 79.8199 47.7L 79.8199 56.098L 80.8199 56.098L 80.8199 53.758L 81.7535 52.84L 83.7926 56.098L 84.9801 56.098L 82.5113 52.172L 84.609 50.102L 83.3785 50.102L 80.8199 52.633L 80.8199 47.7z"/>
<path style="stroke:none; fill-rule:evenodd; fill:#000000" d="M 86.3785 157.5L 88.1441 151.5L 87.066 151.5L 85.8746 156.168L 84.6949 151.5L 83.5269 151.5L 82.3824 156.168L 81.1558 151.5L 80.1011 151.5L 81.8433 157.5L 82.9215 157.5L 84.0777 152.782L 85.2926 157.5L 86.3785 157.5z"/>
<path style="stroke:none; fill-rule:evenodd; fill:#000000" d="M 90.3199 156.2L 89.3199 156.2L 89.3199 162.2L 90.3199 162.2L 90.3199 156.2zM 90.3199 153.801L 89.3199 153.801L 89.3199 155.032L 90.3199 155.032L 90.3199 153.801z"/>
<path style="stroke:none; fill-rule:evenodd; fill:#000000" d="M 91.9176 156.2L 91.9176 163.102C 91.9176 163.7 91.7261 163.895 91.1402 163.895C 91.109 163.895 91.109 163.895 90.9137 163.895L 90.9137 164.661C 91.0269 164.68 91.0894 164.692 91.2418 164.692C 92.3433 164.692 92.9176 164.258 92.9176 163.446L 92.9176 156.196L 91.9176 156.2zM 92.9176 153.801L 91.9176 153.801L 91.9176 155L 92.9176 155L 92.9176 153.801z"/>
<path style="stroke:none; fill-rule:evenodd; fill:#000000" d="M 75.5191 116.5L 75.5191 124.899L 76.5191 124.899L 76.5191 121.551C 76.5191 120.313 77.1441 119.5 78.109 119.5C 78.4097 119.5 78.7105 119.602 78.9371 119.778C 79.2027 119.973 79.316 120.262 79.316 120.692L 79.316 124.895L 80.316 124.895L 80.316 120.344C 80.316 119.332 79.5972 118.7 78.4332 118.7C 77.5894 118.7 77.0777 118.965 76.5191 119.707L 76.5191 116.5L 75.5191 116.5z"/>
<path style="stroke:none; fill-rule:evenodd; fill:#000000" d="M 81.7183 123.301L 81.7183 130.203C 81.7183 130.801 81.5269 130.996 80.941 130.996C 80.9097 130.996 80.9097 130.996 80.7144 130.996L 80.7144 131.762C 80.8277 131.782 80.8902 131.793 81.0426 131.793C 82.1441 131.793 82.7183 131.36 82.7183 130.547L 82.7183 123.297L 81.7183 123.301zM 82.7183 120.899L 81.7183 120.899L 81.7183 122.098L 82.7183 122.098L 82.7183 120.899z"/>
<path style="stroke:none; fill-rule:evenodd; fill:#000000" d="M 80.4176 118.301L 86.2144 118.301L 86.2144 117.504L 80.4176 117.504L 80.4176 118.301z"/>
<path style="stroke:#000000; stroke-width:1.9139600000000001; fill:none" d="M 21.1051 207.164L 21.1051 218.641"/>
<path style="stroke:#000000; stroke-width:1.9139600000000001; fill:none" d="M 21.1051 207.164L 17.2808 210.989"/>
<path style="stroke:#000000; stroke-width:1.9139600000000001; fill:none" d="M 21.1051 207.164L 24.9293 210.989"/>
<path style="stroke:#000000; stroke-width:1.9139600000000001; fill:none" d="M 47.8941 207.161L 47.8941 218.637"/>
<path style="stroke:#000000; stroke-width:1.9139600000000001; fill:none" d="M 47.8941 207.161L 44.0699 210.985"/>
<path style="stroke:#000000; stroke-width:1.9139600000000001; fill:none" d="M 47.8941 207.161L 51.7183 210.985"/>
<path style="stroke:#000000; stroke-width:1.9139600000000001; fill:none" d="M 78.5074 207.157L 78.5074 218.633"/>
<path style="stroke:#000000; stroke-width:1.9139600000000001; fill:none" d="M 78.5074 207.157L 74.6832 210.981"/>
<path style="stroke:#000000; stroke-width:1.9139600000000001; fill:none" d="M 78.5074 207.157L 82.3316 210.981"/>
<path style="stroke:#000000; stroke-width:1.9139600000000001; fill:none" d="M 120.601 207.157L 120.601 218.633"/>
<path style="stroke:#000000; stroke-width:1.9139600000000001; fill:none" d="M 120.601 207.157L 116.777 210.981"/>
<path style="stroke:#000000; stroke-width:1.9139600000000001; fill:none" d="M 120.601 207.157L 124.425 210.981"/>
<path style="stroke:none; fill-rule:evenodd; fill:#000000" d="M 38.5191 223L 43.0777 223L 43.0777 222.102L 38.5191 222.102L 38.5191 219.305L 43.2183 219.305L 43.2183 218.407L 37.4215 218.407L 37.4215 226.805L 43.4215 226.805L 43.4215 225.907L 38.523 225.907L 38.5191 223z"/>
<path style="stroke:none; fill-rule:evenodd; fill:#000000" d="M 47.4722 223.696L 49.4918 220.801L 48.4137 220.801L 46.9683 222.965L 45.523 220.801L 44.4332 220.801L 46.441 223.743L 44.3199 226.797L 45.4097 226.797L 46.9332 224.493L 48.4371 226.797L 49.5504 226.797L 47.4722 223.696z"/>
<path style="stroke:none; fill-rule:evenodd; fill:#000000" d="M 52.7183 220.801L 51.8199 220.801L 51.8199 219.133L 50.8199 219.133L 50.8199 220.801L 49.9215 220.801L 49.9215 221.598L 50.8199 221.598L 50.8199 226.145C 50.8199 226.75 51.2222 227.094 51.9527 227.094C 52.1754 227.094 52.4019 227.071 52.7144 227.012L 52.7144 226.176C 52.6011 226.266 52.4644 226.293 52.2965 226.293C 51.9215 226.293 51.816 226.18 51.816 225.75L 51.816 221.598L 52.7144 221.598L 52.7183 220.801z"/>
<path style="stroke:none; fill-rule:evenodd; fill:#000000" d="M 58.9176 224.098C 58.9176 223.18 58.8511 222.629 58.6793 222.184C 58.2926 221.2 57.3785 220.602 56.2613 220.602C 54.5972 220.602 53.523 221.895 53.523 223.883C 53.523 225.871 54.5582 227.098 56.234 227.098C 57.5972 227.098 58.5465 226.305 58.7847 224.973L 57.8316 224.973C 57.5699 225.778 57.0387 226.196 56.2769 226.196C 55.6754 226.196 55.1637 225.918 54.8472 225.403C 54.6207 225.055 54.5426 224.704 54.5308 224.098L 58.9176 224.098zM 54.4996 223.332C 54.5777 222.219 55.2574 221.496 56.2222 221.496C 57.1637 221.496 57.8863 222.274 57.8863 223.262C 57.8863 223.282 57.8863 223.305 57.8785 223.329L 54.4996 223.332z"/>
<path style="stroke:none; fill-rule:evenodd; fill:#000000" d="M 60.2183 220.774L 60.2183 226.797L 61.2183 226.797L 61.2183 223.664C 61.2183 222.801 61.4293 222.239 61.8785 221.903C 62.1676 221.684 62.4488 221.618 63.1011 221.606L 63.1011 220.641C 62.9449 220.621 62.8629 220.61 62.7379 220.61C 62.1285 220.61 61.6637 220.977 61.1168 221.875L 61.1168 220.786L 60.2183 220.774z"/>
<path style="stroke:none; fill-rule:evenodd; fill:#000000" d="M 64.0191 220.774L 64.0191 226.797L 65.0191 226.797L 65.0191 223.45C 65.0191 222.211 65.6441 221.399 66.609 221.399C 67.3472 221.399 67.816 221.86 67.816 222.59L 67.816 226.793L 68.816 226.793L 68.816 222.243C 68.816 221.243 68.0738 220.598 66.9137 220.598C 66.023 220.598 65.4488 220.942 64.9215 221.782L 64.9215 220.77L 64.0191 220.774z"/>
<path style="stroke:none; fill-rule:evenodd; fill:#000000" d="M 75.7613 226.239C 75.6558 226.301 75.609 226.301 75.5504 226.301C 75.2105 226.301 75.023 226.129 75.023 225.829L 75.023 222.262C 75.023 221.188 74.2457 220.606 72.773 220.606C 71.9058 220.606 71.1871 220.86 70.7847 221.309C 70.5113 221.618 70.398 221.965 70.3746 222.567L 71.3199 222.567C 71.398 221.836 71.8238 221.508 72.7066 221.508C 73.5504 221.508 74.023 221.829 74.023 222.407L 74.023 222.661C 74.023 223.063 73.7887 223.235 73.0465 223.329C 71.7222 223.5 71.5191 223.547 71.1597 223.696C 70.4761 223.981 70.1285 224.524 70.1285 225.309C 70.1285 226.403 70.8824 227.094 72.0972 227.094C 72.8511 227.094 73.4566 226.821 74.1324 226.176C 74.1988 226.809 74.4957 227.094 75.1168 227.094C 75.3082 227.094 75.4566 227.071 75.7652 226.989L 75.7613 226.239zM 74.0191 224.938C 74.0191 225.266 73.9332 225.469 73.6519 225.743C 73.273 226.106 72.816 226.297 72.2691 226.297C 71.5465 226.297 71.1246 225.934 71.1246 225.305C 71.1246 224.657 71.5347 224.325 72.5269 224.172C 73.5074 224.032 73.7066 223.985 74.0191 223.829L 74.0191 224.938z"/>
<path style="stroke:none; fill-rule:evenodd; fill:#000000" d="M 76.8199 226.801L 77.8199 226.801L 77.8199 218.403L 76.8199 218.403L 76.8199 226.801z"/>
<path style="stroke:none; fill-rule:evenodd; fill:#000000" d="M 82.8199 226.801L 83.9176 226.801L 83.9176 218.403L 82.8199 218.403L 82.8199 226.801z"/>
<path style="stroke:none; fill-rule:evenodd; fill:#000000" d="M 85.7183 220.774L 85.7183 226.797L 86.7183 226.797L 86.7183 223.45C 86.7183 222.211 87.3433 221.399 88.3082 221.399C 89.0465 221.399 89.5152 221.86 89.5152 222.59L 89.5152 226.793L 90.5152 226.793L 90.5152 222.243C 90.5152 221.243 89.773 220.598 88.6129 220.598C 87.7222 220.598 87.148 220.942 86.6207 221.782L 86.6207 220.77L 85.7183 220.774z"/>
<path style="stroke:none; fill-rule:evenodd; fill:#000000" d="M 91.9176 229.305L 92.9176 229.305L 92.9176 226.204C 93.4176 226.825 93.9801 227.102 94.7579 227.102C 96.2999 227.102 97.3159 225.844 97.3159 223.911C 97.3159 221.875 96.3319 220.606 94.7339 220.606C 93.9215 220.606 93.2652 220.973 92.8199 221.684L 92.8199 220.778L 91.9215 220.778L 91.9176 229.305zM 94.5859 221.5C 95.6319 221.5 96.3199 222.438 96.3199 223.883C 96.3199 225.258 95.6249 226.196 94.5859 226.196C 93.5816 226.196 92.9215 225.27 92.9215 223.848C 92.9215 222.426 93.5816 221.5 94.5859 221.5z"/>
<path style="stroke:none; fill-rule:evenodd; fill:#000000" d="M 103.32 226.836L 103.32 220.801L 102.32 220.801L 102.32 224.246C 102.32 225.485 101.675 226.297 100.672 226.297C 99.9099 226.297 99.4249 225.836 99.4249 225.106L 99.4249 220.801L 98.4249 220.801L 98.4249 225.454C 98.4249 226.454 99.1829 227.098 100.375 227.098C 101.273 227.098 101.847 226.789 102.418 225.996L 102.418 226.836L 103.32 226.836z"/>
<path style="stroke:none; fill-rule:evenodd; fill:#000000" d="M 107.019 220.801L 106.121 220.801L 106.121 219.133L 105.121 219.133L 105.121 220.801L 104.222 220.801L 104.222 221.598L 105.121 221.598L 105.121 226.145C 105.121 226.75 105.523 227.094 106.254 227.094C 106.476 227.094 106.703 227.071 107.015 227.012L 107.015 226.176C 106.902 226.266 106.765 226.293 106.597 226.293C 106.222 226.293 106.117 226.18 106.117 225.75L 106.117 221.598L 107.015 221.598L 107.019 220.801z"/>
<path style="stroke:#7e7e7e; stroke-width:1.9139600000000001; fill:none" d="M 21.1129 61.688L 78.5308 111.45"/>
<path style="stroke:#7e7e7e; stroke-width:1.9139600000000001; fill:none" d="M 73.9996 104.993L 78.5308 111.45L 71.4957 107.883"/>
<path style="stroke:#7e7e7e; stroke-width:1.9139600000000001; fill:none" d="M 120.64 61.688L 80.4488 111.45"/>
<path style="stroke:#7e7e7e; stroke-width:1.9139600000000001; fill:none" d="M 86.7457 106.7L 80.4488 111.45L 83.7691 104.293"/>
<path style="stroke:#000000; stroke-width:1.9139600000000001; fill:none" d="M 78.5308 136.332L 78.5308 184.18"/>
<path style="stroke:#000000; stroke-width:1.9139600000000001; fill:none" d="M 80.4449 176.528L 78.5347 184.18L 76.6246 176.528"/>
<path style="stroke:#000000; stroke-width:1.9139600000000001; fill:none" d="M 24.941 184.18L 78.5308 136.332"/>
<path style="stroke:#000000; stroke-width:1.9139600000000001; fill:none" d="M 71.5465 140.004L 78.5308 136.336L 74.0972 142.86"/>
<path style="stroke:#000000; stroke-width:1.9139600000000001; fill:none" d="M 78.5308 184.18L 78.5308 134.418"/>
<path style="stroke:#000000; stroke-width:1.9139600000000001; fill:none" d="M 76.6168 142.075L 78.5269 134.422L 80.4371 142.075"/>
<path style="stroke:#000000; stroke-width:1.9139600000000001; fill:none" d="M 120.64 184.18L 78.5347 134.418"/>
<path style="stroke:#000000; stroke-width:1.9139600000000001; fill:none" d="M 82.0152 141.496L 78.5347 134.418L 84.9371 139.024"/>
<path style="stroke:#000000; stroke-width:1.9139600000000001; fill:none" d="M 47.9097 184.18L 78.5308 134.418"/>
<path style="stroke:#000000; stroke-width:1.9139600000000001; fill:none" d="M 72.8902 139.938L 78.5308 134.422L 76.1519 141.942"/>
<path style="stroke:#000000; stroke-width:1.9139600000000001; fill:none" d="M 89.5699 122.969C 89.5699 116.864 84.6207 111.91 78.5113 111.91C 72.4058 111.91 67.4527 116.86 67.4527 122.969C 67.4527 129.075 72.4019 134.028 78.5113 134.028C 84.6168 134.028 89.5699 129.078 89.5699 122.969"/>
<path style="stroke:#000000; stroke-width:1.9139600000000001; fill:none" d="M 58.9449 122.969C 58.9449 116.864 53.9957 111.91 47.8863 111.91C 41.7808 111.91 36.8277 116.86 36.8277 122.969C 36.8277 129.075 41.7769 134.028 47.8863 134.028C 53.9918 134.028 58.9449 129.078 58.9449 122.969"/>
<path style="stroke:#000000; stroke-width:1.9139600000000001; fill:none" d="M 32.148 122.969C 32.148 116.864 27.1988 111.91 21.0894 111.91C 14.984 111.91 10.0308 116.86 10.0308 122.969C 10.0308 129.075 14.9801 134.028 21.0894 134.028C 27.1949 134.028 32.148 129.078 32.148 122.969"/>
<path style="stroke:#000000; stroke-width:1.9139600000000001; fill:none" d="M 131.675 122.969C 131.675 116.864 126.726 111.91 120.617 111.91C 114.511 111.91 109.558 116.86 109.558 122.969C 109.558 129.075 114.508 134.028 120.617 134.028C 126.722 134.028 131.675 129.078 131.675 122.969"/>
<path style="stroke:#000000; stroke-width:1.9139600000000001; fill:none" d="M 21.1129 134.418L 78.5308 184.18"/>
<path style="stroke:#000000; stroke-width:1.9139600000000001; fill:none" d="M 73.9996 177.719L 78.5308 184.176L 71.4957 180.61"/>
<path style="stroke:#000000; stroke-width:1.9139600000000001; fill:none" d="M 47.9097 134.418L 78.5308 184.18"/>
<path style="stroke:#000000; stroke-width:1.9139600000000001; fill:none" d="M 76.148 176.661L 78.5269 184.18L 72.8863 178.664"/>
<path style="stroke:#000000; stroke-width:1.9139600000000001; fill:none" d="M 120.64 134.418L 78.5347 184.18"/>
<path style="stroke:#000000; stroke-width:1.9139600000000001; fill:none" d="M 84.9371 179.575L 78.5347 184.18L 82.0152 177.102"/>
<path style="stroke:#7e7e7e; stroke-width:1.9139600000000001; fill:none" d="M 120.64 111.45L 78.5347 61.688"/>
<path style="stroke:#7e7e7e; stroke-width:1.9139600000000001; fill:none" d="M 82.0152 68.77L 78.5347 61.692L 84.9371 66.297"/>
<path style="stroke:#7e7e7e; stroke-width:1.9139600000000001; fill:none" d="M 21.1129 111.45L 78.5308 61.688"/>
<path style="stroke:#7e7e7e; stroke-width:1.9139600000000001; fill:none" d="M 71.4957 65.254L 78.5308 61.688L 73.9996 68.145"/>
<path style="stroke:#000000; stroke-width:1.9139600000000001; fill:none" d="M 80.4488 113.364L 80.4488 63.602"/>
<path style="stroke:#000000; stroke-width:1.9139600000000001; fill:none" d="M 78.5308 71.258L 80.441 63.606L 82.3511 71.258"/>
<path style="stroke:#7e7e7e; stroke-width:1.9139600000000001; fill:none" d="M 47.9097 61.688L 78.5308 111.45"/>
<path style="stroke:#7e7e7e; stroke-width:1.9139600000000001; fill:none" d="M 76.148 103.926L 78.5269 111.446L 72.8863 105.93"/>
<path style="stroke:#7e7e7e; stroke-width:1.9139600000000001; fill:none" d="M 47.9097 111.45L 78.5308 61.688"/>
<path style="stroke:#7e7e7e; stroke-width:1.9139600000000001; fill:none" d="M 72.8902 67.203L 78.5308 61.688L 76.1519 69.207"/>
<path style="stroke:#000000; stroke-width:1.9139600000000001; fill:none" d="M 76.6168 63.602L 76.6168 111.45"/>
<path style="stroke:#000000; stroke-width:1.9139600000000001; fill:none" d="M 78.5308 103.793L 76.6207 111.446L 74.7105 103.793"/>
<path style="stroke:none; fill-rule:evenodd; fill:#ffffff" d="M 53.6519 96.137L 74.7027 96.137L 74.7027 75.086L 53.6519 75.086L 53.6519 96.137z"/>
<path style="stroke:#ffffff; stroke-width:0.0; fill:none" d="M 53.6519 96.137L 74.7027 96.137L 74.7027 75.086L 53.6519 75.086L 53.6519 96.137z"/>
<path style="stroke:none; fill-rule:evenodd; fill:#000000" d="M 62.4801 84.7L 64.2457 78.7L 63.1676 78.7L 61.9761 83.368L 60.7965 78.7L 59.6285 78.7L 58.484 83.368L 57.2574 78.7L 56.2027 78.7L 57.9449 84.7L 59.023 84.7L 60.1793 79.981L 61.3941 84.7L 62.4801 84.7z"/>
<path style="stroke:none; fill-rule:evenodd; fill:#000000" d="M 66.3199 82.098L 65.3199 82.098L 65.3199 90.496L 66.3199 90.496L 66.3199 88.157L 67.2535 87.239L 69.2926 90.496L 70.4801 90.496L 68.0113 86.571L 70.109 84.5L 68.8785 84.5L 66.3199 87.032L 66.3199 82.098z"/>
<path style="stroke:none; fill-rule:evenodd; fill:#000000" d="M 71.2183 84.5L 71.2183 91.403C 71.2183 92 71.0269 92.196 70.441 92.196C 70.4097 92.196 70.4097 92.196 70.2144 92.196L 70.2144 92.961C 70.3277 92.981 70.3902 92.993 70.5426 92.993C 71.6441 92.993 72.2183 92.559 72.2183 91.746L 72.2183 84.496L 71.2183 84.5zM 72.2183 82.098L 71.2183 82.098L 71.2183 83.297L 72.2183 83.297L 72.2183 82.098z"/>
<path style="stroke:none; fill-rule:evenodd; fill:#ffffff" d="M 82.359 96.137L 107.238 96.137L 107.238 75.086L 82.359 75.086L 82.359 96.137z"/>
<path style="stroke:#ffffff; stroke-width:0.0; fill:none" d="M 82.359 96.137L 107.238 96.137L 107.238 75.086L 82.359 75.086L 82.359 96.137z"/>
<path style="stroke:none; fill-rule:evenodd; fill:#000000" d="M 91.1793 84.7L 92.9449 78.7L 91.8668 78.7L 90.6754 83.368L 89.4957 78.7L 88.3277 78.7L 87.1832 83.368L 85.9566 78.7L 84.9019 78.7L 86.6441 84.7L 87.7222 84.7L 88.8785 79.981L 90.0933 84.7L 91.1793 84.7z"/>
<path style="stroke:none; fill-rule:evenodd; fill:#000000" d="M 94.2183 84.5L 94.2183 91.403C 94.2183 92 94.0269 92.196 93.441 92.196C 93.4097 92.196 93.4097 92.196 93.2144 92.196L 93.2144 92.961C 93.3277 92.981 93.3902 92.993 93.5426 92.993C 94.6439 92.993 95.2179 92.559 95.2179 91.746L 95.2179 84.496L 94.2183 84.5zM 95.2179 82.098L 94.2183 82.098L 94.2183 83.297L 95.2179 83.297L 95.2179 82.098z"/>
<path style="stroke:none; fill-rule:evenodd; fill:#000000" d="M 97.5189 82.098L 96.5189 82.098L 96.5189 90.496L 97.5189 90.496L 97.5189 88.157L 98.4529 87.239L 100.492 90.496L 101.679 90.496L 99.2109 86.571L 101.308 84.5L 100.078 84.5L 97.5189 87.032L 97.5189 82.098z"/>
<path style="stroke:#000000; stroke-width:1.9139600000000001; fill:none" d="M 89.5699 195.7C 89.5699 189.594 84.6207 184.641 78.5113 184.641C 72.4058 184.641 67.4527 189.59 67.4527 195.7C 67.4527 201.805 72.4019 206.758 78.5113 206.758C 84.6168 206.758 89.5699 201.809 89.5699 195.7"/>
<path style="stroke:#000000; stroke-width:1.9139600000000001; fill:none" d="M 58.9449 195.7C 58.9449 189.594 53.9957 184.641 47.8863 184.641C 41.7808 184.641 36.8277 189.59 36.8277 195.7C 36.8277 201.805 41.7769 206.758 47.8863 206.758C 53.9918 206.758 58.9449 201.809 58.9449 195.7"/>
<path style="stroke:#000000; stroke-width:1.9139600000000001; fill:none" d="M 32.148 195.7C 32.148 189.594 27.1988 184.641 21.0894 184.641C 14.984 184.641 10.0308 189.59 10.0308 195.7C 10.0308 201.805 14.9801 206.758 21.0894 206.758C 27.1949 206.758 32.148 201.809 32.148 195.7"/>
<path style="stroke:#000000; stroke-width:1.9139600000000001; fill:none" d="M 131.675 195.7C 131.675 189.594 126.726 184.641 120.617 184.641C 114.511 184.641 109.558 189.59 109.558 195.7C 109.558 201.805 114.508 206.758 120.617 206.758C 126.722 206.758 131.675 201.809 131.675 195.7"/>
<path style="stroke:#000000; stroke-width:1.9139600000000001; fill:none" d="M 89.5699 50.239C 89.5699 44.133 84.6207 39.18 78.5113 39.18C 72.4058 39.18 67.4527 44.129 67.4527 50.239C 67.4527 56.344 72.4019 61.297 78.5113 61.297C 84.6168 61.297 89.5699 56.348 89.5699 50.239"/>
<path style="stroke:#000000; stroke-width:1.9139600000000001; fill:none" d="M 58.9449 50.239C 58.9449 44.133 53.9957 39.18 47.8863 39.18C 41.7808 39.18 36.8277 44.129 36.8277 50.239C 36.8277 56.344 41.7769 61.297 47.8863 61.297C 53.9918 61.297 58.9449 56.348 58.9449 50.239"/>
<path style="stroke:#000000; stroke-width:1.9139600000000001; fill:none" d="M 32.148 50.239C 32.148 44.133 27.1988 39.18 21.0894 39.18C 14.984 39.18 10.0308 44.129 10.0308 50.239C 10.0308 56.344 14.9801 61.297 21.0894 61.297C 27.1949 61.297 32.148 56.348 32.148 50.239"/>
<path style="stroke:#000000; stroke-width:1.9139600000000001; fill:none" d="M 131.675 50.239C 131.675 44.133 126.726 39.18 120.617 39.18C 114.511 39.18 109.558 44.129 109.558 50.239C 109.558 56.344 114.508 61.297 120.617 61.297C 126.722 61.297 131.675 56.348 131.675 50.239"/>
<path style="stroke:none; fill-rule:evenodd; fill:#000000" d="M 225.648 192.36C 225.636 191.172 224.851 190.504 223.449 190.504C 222.039 190.504 221.121 191.231 221.121 192.348C 221.121 193.293 221.609 193.743 223.058 194.09L 223.968 194.309C 224.644 194.469 224.914 194.711 224.914 195.149C 224.914 195.711 224.347 196.094 223.504 196.094C 222.984 196.094 222.547 195.946 222.304 195.688C 222.156 195.516 222.086 195.34 222.031 194.907L 221.015 194.907C 221.058 196.317 221.843 196.996 223.425 196.996C 224.949 196.996 225.918 196.246 225.918 195.082C 225.918 194.184 225.406 193.688 224.191 193.399L 223.258 193.18C 222.465 192.996 222.125 192.743 222.125 192.317C 222.125 191.766 222.621 191.407 223.41 191.407C 224.187 191.407 224.605 191.735 224.629 192.364L 225.648 192.36z"/>
<path style="stroke:none; fill-rule:evenodd; fill:#000000" d="M 227.117 195.5L 226.117 195.5L 226.117 201.5L 227.117 201.5L 227.117 195.5zM 227.117 193.098L 226.117 193.098L 226.117 194.329L 227.117 194.329L 227.117 193.098z"/>
<path style="stroke:none; fill-rule:evenodd; fill:#000000" d="M 231.781 157.5L 233.547 151.5L 232.468 151.5L 231.277 156.168L 230.097 151.5L 228.929 151.5L 227.785 156.168L 226.558 151.5L 225.504 151.5L 227.246 157.5L 228.324 157.5L 229.48 152.782L 230.695 157.5L 231.781 157.5z"/>
<path style="stroke:none; fill-rule:evenodd; fill:#000000" d="M 235.718 156.2L 234.718 156.2L 234.718 162.2L 235.718 162.2L 235.718 156.2zM 235.718 153.801L 234.718 153.801L 234.718 155.032L 235.718 155.032L 235.718 153.801z"/>
<path style="stroke:none; fill-rule:evenodd; fill:#000000" d="M 237.418 156.2L 237.418 163.102C 237.418 163.7 237.226 163.895 236.64 163.895C 236.609 163.895 236.609 163.895 236.414 163.895L 236.414 164.661C 236.527 164.68 236.59 164.692 236.742 164.692C 237.843 164.692 238.418 164.258 238.418 163.446L 238.418 156.196L 237.418 156.2zM 238.418 153.801L 237.418 153.801L 237.418 155L 238.418 155L 238.418 153.801z"/>
<path style="stroke:#000000; stroke-width:1.9139600000000001; fill:none" d="M 166.562 207.164L 166.562 218.641"/>
<path style="stroke:#000000; stroke-width:1.9139600000000001; fill:none" d="M 166.562 207.164L 162.738 210.989"/>
<path style="stroke:#000000; stroke-width:1.9139600000000001; fill:none" d="M 166.562 207.164L 170.386 210.989"/>
<path style="stroke:#000000; stroke-width:1.9139600000000001; fill:none" d="M 193.355 207.161L 193.355 218.637"/>
<path style="stroke:#000000; stroke-width:1.9139600000000001; fill:none" d="M 193.355 207.161L 189.531 210.985"/>
<path style="stroke:#000000; stroke-width:1.9139600000000001; fill:none" d="M 193.355 207.161L 197.179 210.985"/>
<path style="stroke:#000000; stroke-width:1.9139600000000001; fill:none" d="M 223.968 207.157L 223.968 218.633"/>
<path style="stroke:#000000; stroke-width:1.9139600000000001; fill:none" d="M 223.968 207.157L 220.144 210.981"/>
<path style="stroke:#000000; stroke-width:1.9139600000000001; fill:none" d="M 223.968 207.157L 227.793 210.981"/>
<path style="stroke:#000000; stroke-width:1.9139600000000001; fill:none" d="M 266.062 207.157L 266.062 218.633"/>
<path style="stroke:#000000; stroke-width:1.9139600000000001; fill:none" d="M 266.062 207.157L 262.238 210.981"/>
<path style="stroke:#000000; stroke-width:1.9139600000000001; fill:none" d="M 266.062 207.157L 269.886 210.981"/>
<path style="stroke:none; fill-rule:evenodd; fill:#000000" d="M 184.019 223L 188.578 223L 188.578 222.102L 184.019 222.102L 184.019 219.305L 188.718 219.305L 188.718 218.407L 182.922 218.407L 182.922 226.805L 188.922 226.805L 188.922 225.907L 184.023 225.907L 184.019 223z"/>
<path style="stroke:none; fill-rule:evenodd; fill:#000000" d="M 192.871 223.696L 194.89 220.801L 193.812 220.801L 192.367 222.965L 190.922 220.801L 189.832 220.801L 191.84 223.743L 189.718 226.797L 190.808 226.797L 192.332 224.493L 193.836 226.797L 194.949 226.797L 192.871 223.696z"/>
<path style="stroke:none; fill-rule:evenodd; fill:#000000" d="M 198.218 220.801L 197.32 220.801L 197.32 219.133L 196.32 219.133L 196.32 220.801L 195.422 220.801L 195.422 221.598L 196.32 221.598L 196.32 226.145C 196.32 226.75 196.722 227.094 197.453 227.094C 197.675 227.094 197.902 227.071 198.215 227.012L 198.215 226.176C 198.101 226.266 197.965 226.293 197.797 226.293C 197.422 226.293 197.316 226.18 197.316 225.75L 197.316 221.598L 198.215 221.598L 198.218 220.801z"/>
<path style="stroke:none; fill-rule:evenodd; fill:#000000" d="M 204.418 224.098C 204.418 223.18 204.351 222.629 204.179 222.184C 203.793 221.2 202.879 220.602 201.761 220.602C 200.097 220.602 199.023 221.895 199.023 223.883C 199.023 225.871 200.058 227.098 201.734 227.098C 203.097 227.098 204.047 226.305 204.285 224.973L 203.332 224.973C 203.07 225.778 202.539 226.196 201.777 226.196C 201.175 226.196 200.664 225.918 200.347 225.403C 200.121 225.055 200.043 224.704 200.031 224.098L 204.418 224.098zM 200 223.332C 200.078 222.219 200.758 221.496 201.722 221.496C 202.664 221.496 203.386 222.274 203.386 223.262C 203.386 223.282 203.386 223.305 203.379 223.329L 200 223.332z"/>
<path style="stroke:none; fill-rule:evenodd; fill:#000000" d="M 205.617 220.774L 205.617 226.797L 206.617 226.797L 206.617 223.664C 206.617 222.801 206.828 222.239 207.277 221.903C 207.566 221.684 207.847 221.618 208.5 221.606L 208.5 220.641C 208.343 220.621 208.261 220.61 208.136 220.61C 207.527 220.61 207.062 220.977 206.515 221.875L 206.515 220.786L 205.617 220.774z"/>
<path style="stroke:none; fill-rule:evenodd; fill:#000000" d="M 209.519 220.774L 209.519 226.797L 210.519 226.797L 210.519 223.45C 210.519 222.211 211.144 221.399 212.109 221.399C 212.847 221.399 213.316 221.86 213.316 222.59L 213.316 226.793L 214.316 226.793L 214.316 222.243C 214.316 221.243 213.574 220.598 212.414 220.598C 211.523 220.598 210.949 220.942 210.422 221.782L 210.422 220.77L 209.519 220.774z"/>
<path style="stroke:none; fill-rule:evenodd; fill:#000000" d="M 221.261 226.239C 221.156 226.301 221.109 226.301 221.05 226.301C 220.711 226.301 220.523 226.129 220.523 225.829L 220.523 222.262C 220.523 221.188 219.746 220.606 218.273 220.606C 217.406 220.606 216.687 220.86 216.285 221.309C 216.011 221.618 215.898 221.965 215.875 222.567L 216.82 222.567C 216.898 221.836 217.324 221.508 218.207 221.508C 219.05 221.508 219.523 221.829 219.523 222.407L 219.523 222.661C 219.523 223.063 219.289 223.235 218.547 223.329C 217.222 223.5 217.019 223.547 216.66 223.696C 215.976 223.981 215.629 224.524 215.629 225.309C 215.629 226.403 216.382 227.094 217.597 227.094C 218.351 227.094 218.957 226.821 219.632 226.176C 219.699 226.809 219.996 227.094 220.617 227.094C 220.808 227.094 220.957 227.071 221.265 226.989L 221.261 226.239zM 219.519 224.938C 219.519 225.266 219.433 225.469 219.152 225.743C 218.773 226.106 218.316 226.297 217.769 226.297C 217.047 226.297 216.625 225.934 216.625 225.305C 216.625 224.657 217.035 224.325 218.027 224.172C 219.008 224.032 219.207 223.985 219.519 223.829L 219.519 224.938z"/>
<path style="stroke:none; fill-rule:evenodd; fill:#000000" d="M 222.218 226.801L 223.218 226.801L 223.218 218.403L 222.218 218.403L 222.218 226.801z"/>
<path style="stroke:none; fill-rule:evenodd; fill:#000000" d="M 228.32 226.801L 229.418 226.801L 229.418 218.403L 228.32 218.403L 228.32 226.801z"/>
<path style="stroke:none; fill-rule:evenodd; fill:#000000" d="M 231.218 220.774L 231.218 226.797L 232.218 226.797L 232.218 223.45C 232.218 222.211 232.843 221.399 233.808 221.399C 234.547 221.399 235.015 221.86 235.015 222.59L 235.015 226.793L 236.015 226.793L 236.015 222.243C 236.015 221.243 235.273 220.598 234.113 220.598C 233.222 220.598 232.648 220.942 232.121 221.782L 232.121 220.77L 231.218 220.774z"/>
<path style="stroke:none; fill-rule:evenodd; fill:#000000" d="M 237.418 229.305L 238.418 229.305L 238.418 226.204C 238.918 226.825 239.48 227.102 240.258 227.102C 241.8 227.102 242.816 225.844 242.816 223.911C 242.816 221.875 241.832 220.606 240.234 220.606C 239.422 220.606 238.765 220.973 238.32 221.684L 238.32 220.778L 237.422 220.778L 237.418 229.305zM 240.086 221.5C 241.132 221.5 241.82 222.438 241.82 223.883C 241.82 225.258 241.125 226.196 240.086 226.196C 239.082 226.196 238.422 225.27 238.422 223.848C 238.422 222.426 239.082 221.5 240.086 221.5z"/>
<path style="stroke:none; fill-rule:evenodd; fill:#000000" d="M 248.718 226.836L 248.718 220.801L 247.718 220.801L 247.718 224.246C 247.718 225.485 247.074 226.297 246.07 226.297C 245.308 226.297 244.824 225.836 244.824 225.106L 244.824 220.801L 243.824 220.801L 243.824 225.454C 243.824 226.454 244.582 227.098 245.773 227.098C 246.672 227.098 247.246 226.789 247.816 225.996L 247.816 226.836L 248.718 226.836z"/>
<path style="stroke:none; fill-rule:evenodd; fill:#000000" d="M 252.418 220.801L 251.519 220.801L 251.519 219.133L 250.519 219.133L 250.519 220.801L 249.621 220.801L 249.621 221.598L 250.519 221.598L 250.519 226.145C 250.519 226.75 250.922 227.094 251.652 227.094C 251.875 227.094 252.101 227.071 252.414 227.012L 252.414 226.176C 252.3 226.266 252.164 226.293 251.996 226.293C 251.621 226.293 251.515 226.18 251.515 225.75L 251.515 221.598L 252.414 221.598L 252.418 220.801z"/>
<path style="stroke:#7e7e7e; stroke-width:1.9139600000000001; fill:none" d="M 166.574 61.688L 223.992 111.45"/>
<path style="stroke:#7e7e7e; stroke-width:1.9139600000000001; fill:none" d="M 219.461 104.993L 223.992 111.45L 216.957 107.883"/>
<path style="stroke:#7e7e7e; stroke-width:1.9139600000000001; fill:none" d="M 266.101 61.688L 225.91 111.45"/>
<path style="stroke:#7e7e7e; stroke-width:1.9139600000000001; fill:none" d="M 232.207 106.7L 225.91 111.45L 229.23 104.293"/>
<path style="stroke:#7e7e7e; stroke-width:1.9139600000000001; fill:none" d="M 193.371 61.688L 223.992 111.45"/>
<path style="stroke:#7e7e7e; stroke-width:1.9139600000000001; fill:none" d="M 221.613 103.926L 223.992 111.446L 218.351 105.93"/>
<path style="stroke:#000000; stroke-width:1.9139600000000001; fill:none" d="M 223.992 136.332L 223.992 184.18"/>
<path style="stroke:#000000; stroke-width:1.9139600000000001; fill:none" d="M 225.906 176.528L 223.996 184.18L 222.086 176.528"/>
<path style="stroke:#000000; stroke-width:1.9139600000000001; fill:none" d="M 170.402 184.18L 223.992 136.332"/>
<path style="stroke:#000000; stroke-width:1.9139600000000001; fill:none" d="M 217.008 140.004L 223.992 136.336L 219.558 142.86"/>
<path style="stroke:#000000; stroke-width:1.9139600000000001; fill:none" d="M 223.992 184.18L 223.992 134.418"/>
<path style="stroke:#000000; stroke-width:1.9139600000000001; fill:none" d="M 222.078 142.075L 223.988 134.422L 225.898 142.075"/>
<path style="stroke:#000000; stroke-width:1.9139600000000001; fill:none" d="M 266.101 184.18L 223.996 134.418"/>
<path style="stroke:#000000; stroke-width:1.9139600000000001; fill:none" d="M 227.476 141.496L 223.996 134.418L 230.398 139.024"/>
<path style="stroke:#000000; stroke-width:1.9139600000000001; fill:none" d="M 193.371 184.18L 223.992 134.418"/>
<path style="stroke:#000000; stroke-width:1.9139600000000001; fill:none" d="M 218.351 139.938L 223.992 134.422L 221.613 141.942"/>
<path style="stroke:#000000; stroke-width:1.9139600000000001; fill:none" d="M 235.031 122.969C 235.031 116.864 230.082 111.91 223.972 111.91C 217.867 111.91 212.914 116.86 212.914 122.969C 212.914 129.075 217.863 134.028 223.972 134.028C 230.078 134.028 235.031 129.078 235.031 122.969"/>
<path style="stroke:#000000; stroke-width:1.9139600000000001; fill:none" d="M 204.406 122.969C 204.406 116.864 199.457 111.91 193.347 111.91C 187.242 111.91 182.289 116.86 182.289 122.969C 182.289 129.075 187.238 134.028 193.347 134.028C 199.453 134.028 204.406 129.078 204.406 122.969"/>
<path style="stroke:#000000; stroke-width:1.9139600000000001; fill:none" d="M 177.613 122.969C 177.613 116.864 172.664 111.91 166.554 111.91C 160.449 111.91 155.496 116.86 155.496 122.969C 155.496 129.075 160.445 134.028 166.554 134.028C 172.66 134.028 177.613 129.078 177.613 122.969"/>
<path style="stroke:#000000; stroke-width:1.9139600000000001; fill:none" d="M 277.136 122.969C 277.136 116.864 272.187 111.91 266.078 111.91C 259.972 111.91 255.019 116.86 255.019 122.969C 255.019 129.075 259.968 134.028 266.078 134.028C 272.183 134.028 277.136 129.078 277.136 122.969"/>
<path style="stroke:#000000; stroke-width:1.9139600000000001; fill:none" d="M 166.574 134.418L 223.992 184.18"/>
<path style="stroke:#000000; stroke-width:1.9139600000000001; fill:none" d="M 219.461 177.719L 223.992 184.176L 216.957 180.61"/>
<path style="stroke:#000000; stroke-width:1.9139600000000001; fill:none" d="M 193.371 134.418L 223.992 184.18"/>
<path style="stroke:#000000; stroke-width:1.9139600000000001; fill:none" d="M 221.613 176.661L 223.992 184.18L 218.351 178.664"/>
<path style="stroke:#000000; stroke-width:1.9139600000000001; fill:none" d="M 266.101 134.418L 223.996 184.18"/>
<path style="stroke:#000000; stroke-width:1.9139600000000001; fill:none" d="M 230.398 179.575L 223.996 184.18L 227.476 177.102"/>
<path style="stroke:#7e7e7e; stroke-width:1.9139600000000001; fill:none" d="M 266.101 111.45L 223.996 61.688"/>
<path style="stroke:#7e7e7e; stroke-width:1.9139600000000001; fill:none" d="M 227.476 68.77L 223.996 61.692L 230.398 66.297"/>
<path style="stroke:#7e7e7e; stroke-width:1.9139600000000001; fill:none" d="M 193.371 111.45L 223.992 61.688"/>
<path style="stroke:#7e7e7e; stroke-width:1.9139600000000001; fill:none" d="M 218.351 67.203L 223.992 61.688L 221.613 69.207"/>
<path style="stroke:#7e7e7e; stroke-width:1.9139600000000001; fill:none" d="M 166.574 111.45L 223.992 61.688"/>
<path style="stroke:#7e7e7e; stroke-width:1.9139600000000001; fill:none" d="M 216.957 65.254L 223.992 61.688L 219.461 68.145"/>
<path style="stroke:#000000; stroke-width:1.9139600000000001; fill:none" d="M 235.031 195.7C 235.031 189.594 230.082 184.641 223.972 184.641C 217.867 184.641 212.914 189.59 212.914 195.7C 212.914 201.805 217.863 206.758 223.972 206.758C 230.078 206.758 235.031 201.809 235.031 195.7"/>
<path style="stroke:#000000; stroke-width:1.9139600000000001; fill:none" d="M 204.406 195.7C 204.406 189.594 199.457 184.641 193.347 184.641C 187.242 184.641 182.289 189.59 182.289 195.7C 182.289 201.805 187.238 206.758 193.347 206.758C 199.453 206.758 204.406 201.809 204.406 195.7"/>
<path style="stroke:#000000; stroke-width:1.9139600000000001; fill:none" d="M 177.613 195.7C 177.613 189.594 172.664 184.641 166.554 184.641C 160.449 184.641 155.496 189.59 155.496 195.7C 155.496 201.805 160.445 206.758 166.554 206.758C 172.66 206.758 177.613 201.809 177.613 195.7"/>
<path style="stroke:#000000; stroke-width:1.9139600000000001; fill:none" d="M 277.136 195.7C 277.136 189.594 272.187 184.641 266.078 184.641C 259.972 184.641 255.019 189.59 255.019 195.7C 255.019 201.805 259.968 206.758 266.078 206.758C 272.183 206.758 277.136 201.809 277.136 195.7"/>
<path style="stroke:#000000; stroke-width:1.9139600000000001; fill:none" d="M 235.031 50.239C 235.031 44.133 230.082 39.18 223.972 39.18C 217.867 39.18 212.914 44.129 212.914 50.239C 212.914 56.344 217.863 61.297 223.972 61.297C 230.078 61.297 235.031 56.348 235.031 50.239"/>
<path style="stroke:#000000; stroke-width:1.9139600000000001; fill:none" d="M 204.406 50.239C 204.406 44.133 199.457 39.18 193.347 39.18C 187.242 39.18 182.289 44.129 182.289 50.239C 182.289 56.344 187.238 61.297 193.347 61.297C 199.453 61.297 204.406 56.348 204.406 50.239"/>
<path style="stroke:#000000; stroke-width:1.9139600000000001; fill:none" d="M 177.613 50.239C 177.613 44.133 172.664 39.18 166.554 39.18C 160.449 39.18 155.496 44.129 155.496 50.239C 155.496 56.344 160.445 61.297 166.554 61.297C 172.66 61.297 177.613 56.348 177.613 50.239"/>
<path style="stroke:#000000; stroke-width:1.9139600000000001; fill:none" d="M 277.136 50.239C 277.136 44.133 272.187 39.18 266.078 39.18C 259.972 39.18 255.019 44.129 255.019 50.239C 255.019 56.344 259.968 61.297 266.078 61.297C 272.183 61.297 277.136 56.348 277.136 50.239"/>
<path style="stroke:none; fill-rule:evenodd; fill:#000000" d="M 238.418 203.899L 239.617 203.899L 239.617 202.7L 238.418 202.7L 238.418 203.899z"/>
<path style="stroke:none; fill-rule:evenodd; fill:#000000" d="M 244.82 203.899L 246.019 203.899L 246.019 202.7L 244.82 202.7L 244.82 203.899z"/>
<path style="stroke:none; fill-rule:evenodd; fill:#000000" d="M 251.117 203.899L 252.316 203.899L 252.316 202.7L 251.117 202.7L 251.117 203.899z"/>
<path style="stroke:none; fill-rule:evenodd; fill:#000000" d="M 238.418 131.2L 239.617 131.2L 239.617 130L 238.418 130L 238.418 131.2z"/>
<path style="stroke:none; fill-rule:evenodd; fill:#000000" d="M 244.82 131.2L 246.019 131.2L 246.019 130L 244.82 130L 244.82 131.2z"/>
<path style="stroke:none; fill-rule:evenodd; fill:#000000" d="M 251.117 131.2L 252.316 131.2L 252.316 130L 251.117 130L 251.117 131.2z"/>
<path style="stroke:none; fill-rule:evenodd; fill:#000000" d="M 238.418 58.5L 239.617 58.5L 239.617 57.301L 238.418 57.301L 238.418 58.5z"/>
<path style="stroke:none; fill-rule:evenodd; fill:#000000" d="M 244.82 58.5L 246.019 58.5L 246.019 57.301L 244.82 57.301L 244.82 58.5z"/>
<path style="stroke:none; fill-rule:evenodd; fill:#000000" d="M 251.117 58.5L 252.316 58.5L 252.316 57.301L 251.117 57.301L 251.117 58.5z"/>
<path style="stroke:#7e7e7e; stroke-width:1.9139600000000001; fill:none" d="M 193.371 61.688L 223.992 111.45"/>
<path style="stroke:#7e7e7e; stroke-width:1.9139600000000001; fill:none" d="M 221.613 103.926L 223.992 111.446L 218.351 105.93"/>
<path style="stroke:#7e7e7e; stroke-width:1.9139600000000001; fill:none" d="M 193.371 111.45L 223.992 61.688"/>
<path style="stroke:#7e7e7e; stroke-width:1.9139600000000001; fill:none" d="M 218.351 67.203L 223.992 61.688L 221.613 69.207"/>
<path style="stroke:#000000; stroke-width:1.9139600000000001; fill:none" d="M 222.078 63.602L 222.078 111.45"/>
<path style="stroke:#000000; stroke-width:1.9139600000000001; fill:none" d="M 223.992 103.793L 222.082 111.446L 220.172 103.793"/>
<path style="stroke:none; fill-rule:evenodd; fill:#ffffff" d="M 199.113 96.137L 220.164 96.137L 220.164 75.086L 199.113 75.086L 199.113 96.137z"/>
<path style="stroke:#ffffff; stroke-width:0.0; fill:none" d="M 199.113 96.137L 220.164 96.137L 220.164 75.086L 199.113 75.086L 199.113 96.137z"/>
<path style="stroke:none; fill-rule:evenodd; fill:#000000" d="M 207.879 84.7L 209.644 78.7L 208.566 78.7L 207.375 83.368L 206.195 78.7L 205.027 78.7L 203.882 83.368L 202.656 78.7L 201.601 78.7L 203.343 84.7L 204.422 84.7L 205.578 79.981L 206.793 84.7L 207.879 84.7z"/>
<path style="stroke:none; fill-rule:evenodd; fill:#000000" d="M 211.718 82.098L 210.718 82.098L 210.718 90.496L 211.718 90.496L 211.718 88.157L 212.652 87.239L 214.691 90.496L 215.879 90.496L 213.41 86.571L 215.508 84.5L 214.277 84.5L 211.718 87.032L 211.718 82.098z"/>
<path style="stroke:none; fill-rule:evenodd; fill:#000000" d="M 216.718 84.5L 216.718 91.403C 216.718 92 216.527 92.196 215.941 92.196C 215.91 92.196 215.91 92.196 215.715 92.196L 215.715 92.961C 215.828 92.981 215.89 92.993 216.043 92.993C 217.144 92.993 217.718 92.559 217.718 91.746L 217.718 84.496L 216.718 84.5zM 217.718 82.098L 216.718 82.098L 216.718 83.297L 217.718 83.297L 217.718 82.098z"/>
<path style="stroke:none; fill-rule:evenodd; fill:#ffffff" d="M 227.82 96.137L 252.699 96.137L 252.699 75.086L 227.82 75.086L 227.82 96.137z"/>
<path style="stroke:#ffffff; stroke-width:0.0; fill:none" d="M 227.82 96.137L 252.699 96.137L 252.699 75.086L 227.82 75.086L 227.82 96.137z"/>
<path style="stroke:none; fill-rule:evenodd; fill:#000000" d="M 236.582 84.7L 238.347 78.7L 237.269 78.7L 236.078 83.368L 234.898 78.7L 233.73 78.7L 232.586 83.368L 231.359 78.7L 230.304 78.7L 232.047 84.7L 233.125 84.7L 234.281 79.981L 235.496 84.7L 236.582 84.7z"/>
<path style="stroke:none; fill-rule:evenodd; fill:#000000" d="M 239.617 84.5L 239.617 91.403C 239.617 92 239.425 92.196 238.84 92.196C 238.808 92.196 238.808 92.196 238.613 92.196L 238.613 92.961C 238.726 92.981 238.789 92.993 238.941 92.993C 240.043 92.993 240.617 92.559 240.617 91.746L 240.617 84.496L 239.617 84.5zM 240.617 82.098L 239.617 82.098L 239.617 83.297L 240.617 83.297L 240.617 82.098z"/>
<path style="stroke:none; fill-rule:evenodd; fill:#000000" d="M 243.019 82.098L 242.019 82.098L 242.019 90.496L 243.019 90.496L 243.019 88.157L 243.953 87.239L 245.992 90.496L 247.179 90.496L 244.711 86.571L 246.808 84.5L 245.578 84.5L 243.019 87.032L 243.019 82.098z"/>
<path style="stroke:#000000; stroke-width:1.9139600000000001; fill:none" d="M 225.906 111.45L 225.906 61.688"/>
<path style="stroke:#000000; stroke-width:1.9139600000000001; fill:none" d="M 223.992 69.344L 225.902 61.692L 227.812 69.344"/>
</g>
</svg>