<?xml version="1.0" encoding="UTF-8" standalone="no"?>
<svg
   xmlns:dc="http://purl.org/dc/elements/1.1/"
   xmlns:cc="http://creativecommons.org/ns#"
   xmlns:rdf="http://www.w3.org/1999/02/22-rdf-syntax-ns#"
   xmlns:svg="http://www.w3.org/2000/svg"
   xmlns="http://www.w3.org/2000/svg"
   xmlns:xlink="http://www.w3.org/1999/xlink"
   xmlns:sodipodi="http://sodipodi.sourceforge.net/DTD/sodipodi-0.dtd"
   xmlns:inkscape="http://www.inkscape.org/namespaces/inkscape"
   version="1.1"
   id="Layer_1"
   x="0px"
   y="0px"
   width="538.68px"
   height="538.68px"
   viewBox="0 0 538.68 538.68"
   enable-background="new 0 0 538.68 538.68"
   xml:space="preserve"
   sodipodi:docname="fig_vis_kanizsa_triangle.svg"
   inkscape:export-filename="/Users/oreilly/ccngit/figs/fig_vis_kanizsa_triangle.png"
   inkscape:export-xdpi="300.12601"
   inkscape:export-ydpi="300.12601"
   inkscape:version="1.0.1 (c497b03c, 2020-09-10)"><metadata
   id="metadata1958"><rdf:RDF><cc:Work
       rdf:about=""><dc:format>image/svg+xml</dc:format><dc:type
         rdf:resource="http://purl.org/dc/dcmitype/StillImage" /><dc:title></dc:title></cc:Work></rdf:RDF></metadata><defs
   id="defs1956" /><sodipodi:namedview
   pagecolor="#ffffff"
   bordercolor="#666666"
   borderopacity="1"
   objecttolerance="10"
   gridtolerance="10"
   guidetolerance="10"
   inkscape:pageopacity="0"
   inkscape:pageshadow="2"
   inkscape:window-width="640"
   inkscape:window-height="480"
   id="namedview1954"
   showgrid="false"
   inkscape:zoom="1.3644464"
   inkscape:cx="269.34"
   inkscape:cy="269.34"
   inkscape:current-layer="Layer_1" />
<g
   id="g1935">
	<defs
   id="defs1928">
		<rect
   id="SVGID_1_"
   width="538.68"
   height="538.68" />
	</defs>
	<clipPath
   id="SVGID_2_">
		<use
   xlink:href="#SVGID_1_"
   overflow="visible"
   id="use1930" />
	</clipPath>
	<rect
   clip-path="url(#SVGID_2_)"
   fill-rule="evenodd"
   clip-rule="evenodd"
   fill="#FFFFFF"
   width="538.68"
   height="538.68"
   id="rect1933" />
</g>
<path
   fill-rule="evenodd"
   clip-rule="evenodd"
   d="M393,126.24c0-36.91,29.95-66.84,66.9-66.84c36.949,0,66.899,29.93,66.899,66.84  s-29.95,66.84-66.899,66.84C422.95,193.08,393,163.15,393,126.24z"
   id="path1937" />
<path
   fill="none"
   stroke="#2F528F"
   stroke-width="0.96"
   stroke-miterlimit="10"
   d="M393,126.24c0-36.91,29.95-66.84,66.9-66.84  c36.949,0,66.899,29.93,66.899,66.84s-29.95,66.84-66.899,66.84C422.95,193.08,393,163.15,393,126.24z"
   id="path1939" />
<path
   fill-rule="evenodd"
   clip-rule="evenodd"
   d="M11.88,126.24c0-36.91,29.925-66.84,66.84-66.84c36.91,0,66.84,29.93,66.84,66.84  s-29.93,66.84-66.84,66.84C41.805,193.08,11.88,163.15,11.88,126.24z"
   id="path1941" />
<path
   fill="none"
   stroke="#2F528F"
   stroke-width="0.96"
   stroke-miterlimit="10"
   d="M11.88,126.24c0-36.91,29.925-66.84,66.84-66.84  c36.91,0,66.84,29.93,66.84,66.84s-29.93,66.84-66.84,66.84C41.805,193.08,11.88,163.15,11.88,126.24z"
   id="path1943" />
<path
   fill-rule="evenodd"
   clip-rule="evenodd"
   d="M202.68,461.22c0-36.95,29.93-66.9,66.84-66.9c36.91,0,66.84,29.95,66.84,66.9  c0,36.948-29.931,66.9-66.84,66.9C232.61,528.121,202.68,498.168,202.68,461.22z"
   id="path1945" />
<path
   fill="none"
   stroke="#2F528F"
   stroke-width="0.96"
   stroke-miterlimit="10"
   d="M202.68,461.22c0-36.95,29.93-66.9,66.84-66.9  c36.91,0,66.84,29.95,66.84,66.9c0,36.948-29.931,66.9-66.84,66.9C232.61,528.121,202.68,498.168,202.68,461.22z"
   id="path1947" />
<polygon
   fill="none"
   stroke="#000000"
   stroke-width="5.04"
   stroke-miterlimit="10"
   points="79.2,352.8 269.52,17.88 459.84,352.8   "
   id="polygon1949" />
<polygon
   fill-rule="evenodd"
   clip-rule="evenodd"
   fill="#FFFFFF"
   points="460.32,126.24 269.94,461.161 79.56,126.24 "
   id="polygon1951" />
</svg>
