<?xml version="1.0" encoding="UTF-8" standalone="no"?>
<!-- Created with Inkscape (http://www.inkscape.org/) -->

<svg
   xmlns:dc="http://purl.org/dc/elements/1.1/"
   xmlns:cc="http://creativecommons.org/ns#"
   xmlns:rdf="http://www.w3.org/1999/02/22-rdf-syntax-ns#"
   xmlns:svg="http://www.w3.org/2000/svg"
   xmlns="http://www.w3.org/2000/svg"
   xmlns:sodipodi="http://sodipodi.sourceforge.net/DTD/sodipodi-0.dtd"
   xmlns:inkscape="http://www.inkscape.org/namespaces/inkscape"
   id="svg2"
   version="1.1"
   inkscape:version="0.47 r22583"
   width="275"
   height="258.75"
   xml:space="preserve"
   sodipodi:docname="fig_vocal_tract.svg"
   inkscape:export-filename="/Users/oreilly/svn_docs/figs/fig_vocal_tract.png"
   inkscape:export-xdpi="150"
   inkscape:export-ydpi="150"><metadata
     id="metadata8"><rdf:RDF><cc:Work
         rdf:about=""><dc:format>image/svg+xml</dc:format><dc:type
           rdf:resource="http://purl.org/dc/dcmitype/StillImage" /><dc:title></dc:title></cc:Work></rdf:RDF></metadata><defs
     id="defs6"><inkscape:perspective
       sodipodi:type="inkscape:persp3d"
       inkscape:vp_x="0 : 0.5 : 1"
       inkscape:vp_y="0 : 1000 : 0"
       inkscape:vp_z="1 : 0.5 : 1"
       inkscape:persp3d-origin="0.5 : 0.33333333 : 1"
       id="perspective10" /></defs><sodipodi:namedview
     pagecolor="#ffffff"
     bordercolor="#666666"
     borderopacity="1"
     objecttolerance="10"
     gridtolerance="10"
     guidetolerance="10"
     inkscape:pageopacity="0"
     inkscape:pageshadow="2"
     inkscape:window-width="640"
     inkscape:window-height="480"
     id="namedview4"
     showgrid="false"
     inkscape:zoom="0.91207729"
     inkscape:cx="137.5"
     inkscape:cy="129.375"
     inkscape:current-layer="g12" /><g
     id="g12"
     inkscape:groupmode="layer"
     inkscape:label="fig_vocal_tract"
     transform="matrix(1.25,0,0,-1.25,0,258.75)"><rect
       style="fill:#ffffff;fill-opacity:1;fill-rule:nonzero;stroke:#ffffff;stroke-width:0.80496621;stroke-miterlimit:4;stroke-opacity:1;stroke-dasharray:none;stroke-dashoffset:0"
       id="rect2939"
       width="225.41452"
       height="213.13486"
       x="-3.5059917"
       y="-210.506"
       transform="scale(1,-1)" /><g
       id="g14"
       transform="scale(0.1,0.1)"><path
         d="m 704.035,1185.39 c 0,0 0,0 8.766,-8.77 8.769,-8.76 26.308,-26.3 60.59,-28.7 34.281,-2.39 85.3,10.37 136.324,16.74 51.019,6.38 102.035,6.38 140.305,-19.13 38.27,-25.51 63.78,-76.53 82.91,-121.17 19.13,-44.645 31.89,-82.915 38.27,-102.048 6.37,-19.132 6.37,-19.132 6.37,-19.132"
         style="fill:none;stroke:#000000;stroke-opacity:1;stroke-width:19.133;stroke-linecap:butt;stroke-linejoin:miter;stroke-miterlimit:10;stroke-dasharray:none"
         id="path16" /><path
         d="m 680.117,1553.7 c 0,0 0,0 -12.754,-12.75 -12.758,-12.76 -38.265,-38.27 -51.023,-63.78 -12.754,-25.51 -12.754,-51.02 19.133,-51.02 31.89,0 95.664,25.51 165.82,38.26 70.152,12.76 146.687,12.76 210.457,6.38 63.78,-6.38 114.8,-19.13 159.45,-31.88 44.64,-12.76 82.91,-25.52 121.17,-57.41 38.27,-31.88 76.54,-82.9 89.29,-140.3 12.75,-57.4 0,-121.18 -12.75,-153.07 -12.76,-31.88 -25.52,-31.88 -38.27,-12.75 -12.76,19.13 -25.51,57.4 -38.27,95.66 -12.75,38.27 -25.51,76.53 -57.4,114.8 -31.88,38.27 -82.91,76.53 -153.06,95.66 -70.16,19.14 -159.441,19.14 -229.598,12.76 -70.152,-6.38 -121.175,-19.13 -153.062,-31.89 -31.887,-12.75 -44.645,-25.51 -51.02,-44.64 -6.378,-19.13 -6.378,-44.64 -12.757,-57.4 -6.375,-12.76 -19.133,-12.76 -25.508,0 -6.379,12.76 -6.379,38.27 -12.758,51.02 -6.379,12.76 -19.133,12.76 -31.887,0 -12.758,-12.75 -25.511,-38.26 -44.644,-44.64 -19.133,-6.38 -44.645,6.38 -57.399,25.51 -12.757,19.13 -12.757,44.64 -6.379,70.15 6.379,25.51 19.133,51.02 38.266,76.54 19.133,25.5 44.645,51.02 19.133,63.77 -25.508,12.76 -102.043,12.76 -146.684,25.51 -44.644,12.76 -57.402,38.27 -44.644,82.91 12.754,44.65 51.019,108.42 95.664,184.95 44.644,76.54 95.664,165.82 121.176,210.47 25.511,44.64 25.511,44.64 25.511,44.64"
         style="fill:none;stroke:#000000;stroke-opacity:1;stroke-width:19.133;stroke-linecap:butt;stroke-linejoin:miter;stroke-miterlimit:10;stroke-dasharray:none"
         id="path18" /><g
         id="g20"
         transform="scale(10,10)"><text
           transform="matrix(1,0,0,-1,79.4914,128.029)"
           id="text22"><tspan
             style="fill:#000000;fill-opacity:1;fill-rule:nonzero;stroke:none;font-family:Helvetica;font-variant:normal;font-weight:normal;font-size:11.4798;writing-mode:lr;-inkscape-font-specification:Helvetica"
             x="0 3.1913844 9.5741532 15.956922 19.1483064"
             y="0"
             sodipodi:role="line"
             id="tspan24">teeth</tspan><tspan
             style="fill:#000000;fill-opacity:1;fill-rule:nonzero;stroke:none;font-family:Helvetica;font-variant:normal;font-weight:normal;font-size:11.4798;writing-mode:lr;-inkscape-font-specification:Helvetica"
             x="-61.2254 -58.6768844 -56.1283688 -49.7456"
             y="11.4801"
             sodipodi:role="line"
             id="tspan26">lips</tspan><tspan
             style="fill:#000000;fill-opacity:1;fill-rule:nonzero;stroke:none;font-family:Helvetica;font-variant:normal;font-weight:normal;font-size:11.4798;writing-mode:lr;-inkscape-font-specification:Helvetica"
             x="-11.4797 -8.2883156 -1.9055468 4.477222 10.8599908 17.2427596"
             y="26.7864"
             sodipodi:role="line"
             id="tspan28">tongue</tspan></text>
<text
           transform="matrix(-4e-8,1,1,4e-8,142.229,49.182)"
           id="text30"><tspan
             style="fill:#000000;fill-opacity:1;fill-rule:nonzero;stroke:none;font-family:Helvetica;font-variant:normal;font-weight:normal;font-size:11.4798;writing-mode:lr;-inkscape-font-specification:Helvetica"
             x="0 6.3827688 12.7655376 19.1483064 22.9710798 29.3538486 35.7366174"
             y="0"
             sodipodi:role="line"
             id="tspan32">pharanx</tspan></text>
<text
           transform="matrix(1,0,0,-1,71.8383,154.815)"
           id="text34"><tspan
             style="fill:#000000;fill-opacity:1;fill-rule:nonzero;stroke:none;font-family:Helvetica;font-variant:normal;font-weight:normal;font-size:11.4798;writing-mode:lr;-inkscape-font-specification:Helvetica"
             x="0 6.3827688 12.7655376 16.588311 22.9710798 26.1624642 32.545233 38.9280018 41.4765174 47.8592862 51.0506706"
             y="0"
             sodipodi:role="line"
             id="tspan36">hard palate</tspan><tspan
             style="fill:#000000;fill-opacity:1;fill-rule:nonzero;stroke:none;font-family:Helvetica;font-variant:normal;font-weight:normal;font-size:11.4798;writing-mode:lr;-inkscape-font-specification:Helvetica"
             x="80.3586 86.0985 92.4812688 95.0297844 101.4125532"
             y="11.4797"
             sodipodi:role="line"
             id="tspan38">velum</tspan><tspan
             style="fill:#000000;fill-opacity:1;fill-rule:nonzero;stroke:none;font-family:Helvetica;font-variant:normal;font-weight:normal;font-size:11.4798;writing-mode:lr;-inkscape-font-specification:Helvetica"
             x="80.3586 84.1813734 89.9212734 96.3040422 99.4954266 102.686811 105.8781954 112.2609642 118.643733 121.1922486 127.5750174 130.7664018 137.1491706"
             y="22.9594"
             sodipodi:role="line"
             id="tspan40">(soft palate)</tspan><tspan
             style="fill:#000000;fill-opacity:1;fill-rule:nonzero;stroke:none;font-family:Helvetica;font-variant:normal;font-weight:normal;font-size:11.4798;writing-mode:lr;-inkscape-font-specification:Helvetica"
             x="-19.1328 -12.7500312 -6.3672624 -0.6273624 5.7554064 8.303922 11.4953064 17.2352064 23.6179752 29.3578752 31.9063908 35.0977752"
             y="-19.1332"
             sodipodi:role="line"
             id="tspan42">nasal cavity</tspan><tspan
             style="fill:#000000;fill-opacity:1;fill-rule:nonzero;stroke:none;font-family:Helvetica;font-variant:normal;font-weight:normal;font-size:11.4798;writing-mode:lr;-inkscape-font-specification:Helvetica"
             x="-68.8785 -62.4957312 -59.9472156 -54.2073156 -47.8245468 -41.441778 -38.8932624 -32.5104936"
             y="11.4797"
             sodipodi:role="line"
             id="tspan44">alveolar</tspan><tspan
             style="fill:#000000;fill-opacity:1;fill-rule:nonzero;stroke:none;font-family:Helvetica;font-variant:normal;font-weight:normal;font-size:11.4798;writing-mode:lr;-inkscape-font-specification:Helvetica"
             x="-68.8785 -65.0557266 -62.507211 -56.1244422 -49.7416734"
             y="22.9594"
             sodipodi:role="line"
             id="tspan46">ridge</tspan><tspan
             style="fill:#000000;fill-opacity:1;fill-rule:nonzero;stroke:none;font-family:Helvetica;font-variant:normal;font-weight:normal;font-size:11.4798;writing-mode:lr;-inkscape-font-specification:Helvetica"
             x="-3.8265 2.5562688 8.9390376 11.4875532 17.870322 20.4188376 26.8016064 29.9929908 33.1843752 35.7328908"
             y="84.1852"
             sodipodi:role="line"
             id="tspan48">epiglottis</tspan></text>
</g><path
         d="m 947.98,61.3281 c 0,0 0,0 6.375,44.6449 6.379,44.644 19.133,133.933 31.891,223.218 12.754,89.289 25.504,178.575 19.134,235.973 -6.38,57.398 -31.892,82.91 -89.29,95.664 -57.399,12.758 -146.688,12.758 -216.84,12.758 -70.152,0 -121.176,0 -159.441,12.754 -38.266,12.758 -63.778,38.265 -76.532,70.156 -12.757,31.887 -12.757,70.152 0,108.418 12.754,38.266 38.266,76.531 57.399,108.422 19.133,31.884 31.886,57.394 25.512,70.154 -6.379,12.76 -31.891,12.76 -51.024,25.51 -19.133,12.75 -31.887,38.27 -31.887,57.4 0,19.13 12.754,31.89 31.887,38.26 19.133,6.38 44.645,6.38 63.777,-6.37 19.133,-12.76 31.887,-38.27 38.266,-31.89 6.379,6.38 6.379,44.64 12.754,63.78 6.379,19.13 19.137,19.13 25.512,6.37 6.379,-12.75 6.379,-38.26 12.757,-51.02 6.375,-12.75 19.133,-12.75 31.887,0 12.754,12.76 25.512,38.27 44.645,63.78 19.133,25.51 44.64,51.02 95.664,57.4 51.019,6.38 127.554,-6.38 178.574,-25.51 51.02,-19.14 76.53,-44.65 114.8,-82.91 38.26,-38.27 89.29,-89.29 114.8,-146.69 25.51,-57.397 25.51,-121.174 19.13,-184.952 -6.38,-63.777 -19.13,-127.55 -25.51,-184.953 -6.38,-57.398 -6.38,-108.418 -6.38,-146.683 0,-38.266 0,-63.778 6.38,-63.778 6.38,0 19.13,25.512 31.89,63.778 12.75,38.265 25.51,89.285 38.26,108.418 12.76,19.132 25.51,6.379 25.51,-25.508 0,-31.891 -12.75,-82.91 -25.51,-172.199 -12.75,-89.285 -25.51,-216.84 -31.89,-280.618 -6.37,-63.7769 -6.37,-63.7769 -6.37,-63.7769"
         style="fill:none;stroke:#000000;stroke-opacity:1;stroke-width:19.133;stroke-linecap:butt;stroke-linejoin:miter;stroke-miterlimit:10;stroke-dasharray:none"
         id="path50" /><path
         d="m 1407.17,61.3281 c 0,0 0,0 6.38,31.8907 6.38,31.8862 19.13,95.6642 31.89,191.3282 12.75,95.664 25.51,223.219 31.88,350.773 6.38,127.551 6.38,255.106 6.38,401.79 0,146.69 0,312.51 -19.13,420.93 -19.13,108.42 -57.4,159.44 -121.18,223.21 -63.77,63.78 -153.06,140.31 -229.59,178.58 -76.53,38.27 -140.312,38.27 -172.198,38.27 -31.891,0 -31.891,0 -31.891,0"
         style="fill:none;stroke:#000000;stroke-opacity:1;stroke-width:19.133;stroke-linecap:butt;stroke-linejoin:miter;stroke-miterlimit:10;stroke-dasharray:none"
         id="path52" /><path
         d="m 1292.37,61.3281 0,38.2696 38.27,-38.2696 0,38.2696 38.27,-38.2696 38.26,38.2696"
         style="fill:none;stroke:#000000;stroke-opacity:1;stroke-width:19.133;stroke-linecap:butt;stroke-linejoin:miter;stroke-miterlimit:10;stroke-dasharray:none"
         id="path54" /><g
         id="g56"
         transform="scale(10,10)"><text
           transform="matrix(1,0,0,-1,148.37,17.0578)"
           id="text58"><tspan
             style="fill:#000000;fill-opacity:1;fill-rule:nonzero;stroke:none;font-family:Helvetica;font-variant:normal;font-weight:normal;font-size:11.4798;writing-mode:lr;-inkscape-font-specification:Helvetica"
             x="0 6.3827688 8.9312844 15.3140532 18.5054376 21.696822 24.2453376"
             y="0"
             sodipodi:role="line"
             id="tspan60">glottis</tspan><tspan
             style="fill:#000000;fill-opacity:1;fill-rule:nonzero;stroke:none;font-family:Helvetica;font-variant:normal;font-weight:normal;font-size:11.4798;writing-mode:lr;-inkscape-font-specification:Helvetica"
             x="0 3.8227734 9.5626734 15.9454422 21.6853422 28.068111 30.6166266 33.808011 39.547911 45.9306798 49.7534532 56.136222 61.876122"
             y="11.4797"
             sodipodi:role="line"
             id="tspan62">(vocal cords)</tspan></text>
</g><path
         d="M 1062.78,673.586 1254.11,558.789"
         style="fill:none;stroke:#000000;stroke-opacity:1;stroke-width:9.56649;stroke-linecap:butt;stroke-linejoin:miter;stroke-miterlimit:10;stroke-dasharray:none"
         id="path64" /><path
         d="m 1198.32,614.57 55.79,-55.781 -75.47,22.969"
         style="fill:none;stroke:#000000;stroke-opacity:1;stroke-width:9.56649;stroke-linecap:butt;stroke-linejoin:miter;stroke-miterlimit:10;stroke-dasharray:none"
         id="path66" /><path
         d="m 871.445,1094.51 38.266,114.8"
         style="fill:none;stroke:#000000;stroke-opacity:1;stroke-width:9.56649;stroke-linecap:butt;stroke-linejoin:miter;stroke-miterlimit:10;stroke-dasharray:none"
         id="path68" /><path
         d="m 867.359,1142.75 42.356,66.56 -6.051,-78.66"
         style="fill:none;stroke:#000000;stroke-opacity:1;stroke-width:9.56649;stroke-linecap:butt;stroke-linejoin:miter;stroke-miterlimit:10;stroke-dasharray:none"
         id="path70" /><path
         d="M 947.98,1553.7 871.445,1400.64"
         style="fill:none;stroke:#000000;stroke-opacity:1;stroke-width:9.56649;stroke-linecap:butt;stroke-linejoin:miter;stroke-miterlimit:10;stroke-dasharray:none"
         id="path72" /><path
         d="m 922.785,1460.54 -51.34,-59.9 17.114,77.01"
         style="fill:none;stroke:#000000;stroke-opacity:1;stroke-width:9.56649;stroke-linecap:butt;stroke-linejoin:miter;stroke-miterlimit:10;stroke-dasharray:none"
         id="path74" /><path
         d="m 1521.97,1438.91 -229.6,-153.07"
         style="fill:none;stroke:#000000;stroke-opacity:1;stroke-width:9.56649;stroke-linecap:butt;stroke-linejoin:miter;stroke-miterlimit:10;stroke-dasharray:none"
         id="path76" /><path
         d="m 1366.66,1312.38 -74.29,-26.54 53.07,58.37"
         style="fill:none;stroke:#000000;stroke-opacity:1;stroke-width:9.56649;stroke-linecap:butt;stroke-linejoin:miter;stroke-miterlimit:10;stroke-dasharray:none"
         id="path78" /><g
         id="g80"
         transform="scale(10,10)"><text
           transform="matrix(1,0,0,-1,159.85,105.07)"
           id="text82"><tspan
             style="fill:#000000;fill-opacity:1;fill-rule:nonzero;stroke:none;font-family:Helvetica;font-variant:normal;font-weight:normal;font-size:11.4798;writing-mode:lr;-inkscape-font-specification:Helvetica"
             x="0 6.3827688 12.1226688 18.5054376 21.0539532"
             y="0"
             sodipodi:role="line"
             id="tspan84">uvula</tspan></text>
</g><path
         d="m 1598.5,1056.25 -229.59,38.26"
         style="fill:none;stroke:#000000;stroke-opacity:1;stroke-width:9.56649;stroke-linecap:butt;stroke-linejoin:miter;stroke-miterlimit:10;stroke-dasharray:none"
         id="path86" /><path
         d="m 1441.25,1063.05 -72.34,31.46 78.63,6.29"
         style="fill:none;stroke:#000000;stroke-opacity:1;stroke-width:9.56649;stroke-linecap:butt;stroke-linejoin:miter;stroke-miterlimit:10;stroke-dasharray:none"
         id="path88" /><path
         d="M 794.914,1324.11 641.852,1285.84"
         style="fill:none;stroke:#000000;stroke-opacity:1;stroke-width:9.56649;stroke-linecap:butt;stroke-linejoin:miter;stroke-miterlimit:10;stroke-dasharray:none"
         id="path90" /><path
         d="m 720.738,1285.84 -78.886,0 69.605,37.12"
         style="fill:none;stroke:#000000;stroke-opacity:1;stroke-width:9.56649;stroke-linecap:butt;stroke-linejoin:miter;stroke-miterlimit:10;stroke-dasharray:none"
         id="path92" /><path
         d="M 794.914,1324.11 641.852,1209.31"
         style="fill:none;stroke:#000000;stroke-opacity:1;stroke-width:9.56649;stroke-linecap:butt;stroke-linejoin:miter;stroke-miterlimit:10;stroke-dasharray:none"
         id="path94" /><path
         d="m 714.555,1239.92 -72.703,-30.61 49.746,61.23"
         style="fill:none;stroke:#000000;stroke-opacity:1;stroke-width:9.56649;stroke-linecap:butt;stroke-linejoin:miter;stroke-miterlimit:10;stroke-dasharray:none"
         id="path96" /><path
         d="m 335.723,1400.64 306.129,-38.27"
         style="fill:none;stroke:#000000;stroke-opacity:1;stroke-width:9.56649;stroke-linecap:butt;stroke-linejoin:miter;stroke-miterlimit:10;stroke-dasharray:none"
         id="path98" /><path
         d="m 568.285,1390.85 73.567,-28.48 -78.317,-9.49"
         style="fill:none;stroke:#000000;stroke-opacity:1;stroke-width:9.56649;stroke-linecap:butt;stroke-linejoin:miter;stroke-miterlimit:10;stroke-dasharray:none"
         id="path100" /><path
         d="m 373.988,1171.04 114.801,-38.26"
         style="fill:none;stroke:#000000;stroke-opacity:1;stroke-width:9.56649;stroke-linecap:butt;stroke-linejoin:miter;stroke-miterlimit:10;stroke-dasharray:none"
         id="path102" /><path
         d="m 422.234,1175.13 66.555,-42.35 -78.656,6.05"
         style="fill:none;stroke:#000000;stroke-opacity:1;stroke-width:9.56649;stroke-linecap:butt;stroke-linejoin:miter;stroke-miterlimit:10;stroke-dasharray:none"
         id="path104" /><path
         d="m 373.988,1171.04 114.801,114.8"
         style="fill:none;stroke:#000000;stroke-opacity:1;stroke-width:9.56649;stroke-linecap:butt;stroke-linejoin:miter;stroke-miterlimit:10;stroke-dasharray:none"
         id="path106" /><path
         d="m 421.141,1245.25 67.648,40.59 -40.59,-67.64"
         style="fill:none;stroke:#000000;stroke-opacity:1;stroke-width:9.56649;stroke-linecap:butt;stroke-linejoin:miter;stroke-miterlimit:10;stroke-dasharray:none"
         id="path108" /><path
         d="M 1483.7,176.129 1330.64,99.5977"
         style="fill:none;stroke:#000000;stroke-opacity:1;stroke-width:9.56649;stroke-linecap:butt;stroke-linejoin:miter;stroke-miterlimit:10;stroke-dasharray:none"
         id="path110" /><path
         d="m 1407.65,116.707 -77.01,-17.1093 59.9,51.3363"
         style="fill:none;stroke:#000000;stroke-opacity:1;stroke-width:9.56649;stroke-linecap:butt;stroke-linejoin:miter;stroke-miterlimit:10;stroke-dasharray:none"
         id="path112" /></g></g></svg>