<?xml version="1.0" encoding="ISO-8859-1" standalone="yes"?>
<svg width="285.402" height="155.399">
  <defs> 
    <marker id="ArrowEnd" viewBox="0 0 10 10" refX="0" refY="5" 
     markerUnits="strokeWidth" 
     markerWidth="4" 
     markerHeight="3" 
     orient="auto"> 
        <path d="M 0 0 L 10 5 L 0 10 z" /> 
    </marker>
    <marker id="ArrowStart" viewBox="0 0 10 10" refX="10" refY="5" 
     markerUnits="strokeWidth" 
     markerWidth="4" 
     markerHeight="3" 
     orient="auto"> 
        <path d="M 10 0 L 0 5 L 10 10 z" /> 
    </marker> </defs>
<g>
<path style="stroke:none; fill-rule:evenodd; fill:#000000" d="M 8.50393 5.586C 8.49613 3.94899 7.37503 3 5.46093 3C 3.63673 3 2.50783 3.94899 2.50783 5.47699C 2.50783 6.504 3.03903 7.15599 4.12893 7.44499L 6.18363 8C 7.22653 8.27699 7.70313 8.703 7.70313 9.36299C 7.70313 9.813 7.46483 10.277 7.11723 10.531C 6.78903 10.762 6.26953 10.887 5.60153 10.887C 4.70703 10.887 4.09763 10.66 3.70313 10.16C 3.39843 9.78099 3.26173 9.36299 3.31253 8.82399L 2.31253 8.82399C 2.32033 9.60199 2.46873 10.113 2.79683 10.578C 3.36323 11.367 4.31643 11.785 5.57423 11.785C 6.55863 11.785 7.36323 11.559 7.89843 11.141C 8.45313 10.695 8.80473 9.94499 8.80473 9.21899C 8.80473 8.18399 8.17183 7.42599 7.04683 7.11299L 4.97263 6.55099C 3.97653 6.27699 3.61323 5.953 3.61323 5.30899C 3.61323 4.457 4.34763 3.89099 5.45313 3.89099C 6.76173 3.89099 7.49613 4.492 7.50783 5.578L 8.50393 5.586z"/>
<path style="stroke:none; fill-rule:evenodd; fill:#000000" d="M 12.207 5.5L 11.3086 5.5L 11.3086 3.832L 10.3086 3.832L 10.3086 5.5L 9.41013 5.5L 9.41013 6.297L 10.3086 6.297L 10.3086 10.844C 10.3086 11.449 10.7109 11.793 11.4414 11.793C 11.664 11.793 11.8906 11.77 12.2031 11.711L 12.2031 10.875C 12.0898 10.965 11.9531 10.992 11.7851 10.992C 11.4101 10.992 11.3047 10.879 11.3047 10.449L 11.3047 6.297L 12.2031 6.297L 12.207 5.5z"/>
<path style="stroke:none; fill-rule:evenodd; fill:#000000" d="M 14.207 5.5L 13.207 5.5L 13.207 11.5L 14.207 11.5L 14.207 5.5zM 14.207 3.09799L 13.207 3.09799L 13.207 4.332L 14.207 4.332L 14.207 3.09799z"/>
<path style="stroke:none; fill-rule:evenodd; fill:#000000" d="M 15.9062 5.47299L 15.9062 11.496L 16.9062 11.496L 16.9062 7.688C 16.9062 6.80899 17.5312 6.10199 18.3008 6.10199C 19.0039 6.10199 19.4023 6.539 19.4023 7.317L 19.4023 11.496L 20.4023 11.496L 20.4023 7.688C 20.4023 6.80899 21.0273 6.10199 21.7968 6.10199C 22.4882 6.10199 22.8984 6.55099 22.8984 7.317L 22.8984 11.496L 23.8984 11.496L 23.8984 6.97699C 23.8984 5.899 23.2773 5.30099 22.1445 5.30099C 21.3398 5.30099 20.8515 5.543 20.289 6.231C 19.9336 5.582 19.4492 5.30099 18.664 5.30099C 17.8593 5.30099 17.3281 5.59799 16.8086 6.31999L 16.8086 5.47299L 15.9062 5.47299z"/>
<path style="stroke:none; fill-rule:evenodd; fill:#000000" d="M 30.207 11.535L 30.207 5.504L 29.207 5.504L 29.207 8.94899C 29.207 10.188 28.5625 11 27.5547 11C 26.7929 11 26.3086 10.539 26.3086 9.80899L 26.3086 5.504L 25.3086 5.504L 25.3086 10.156C 25.3086 11.156 26.0664 11.801 27.2578 11.801C 28.1562 11.801 28.7304 11.492 29.3047 10.699L 29.3047 11.539L 30.207 11.535z"/>
<path style="stroke:none; fill-rule:evenodd; fill:#000000" d="M 31.8047 11.5L 32.8047 11.5L 32.8047 3.10199L 31.8047 3.10199L 31.8047 11.5z"/>
<path style="stroke:none; fill-rule:evenodd; fill:#000000" d="M 39.207 11.535L 39.207 5.504L 38.207 5.504L 38.207 8.94899C 38.207 10.188 37.5625 11 36.5547 11C 35.7929 11 35.3086 10.539 35.3086 9.80899L 35.3086 5.504L 34.3086 5.504L 34.3086 10.156C 34.3086 11.156 35.0664 11.801 36.2578 11.801C 37.1562 11.801 37.7304 11.492 38.3047 10.699L 38.3047 11.539L 39.207 11.535z"/>
<path style="stroke:none; fill-rule:evenodd; fill:#000000" d="M 44.9336 7.16C 44.9218 5.97299 44.1367 5.30099 42.7343 5.30099C 41.3242 5.30099 40.4101 6.02699 40.4101 7.149C 40.4101 8.09399 40.8984 8.543 42.3476 8.89099L 43.2578 9.10899C 43.9336 9.27 44.2031 9.51199 44.2031 9.94899C 44.2031 10.512 43.6367 10.895 42.7929 10.895C 42.2734 10.895 41.8359 10.746 41.5937 10.488C 41.4453 10.317 41.375 10.141 41.3164 9.707L 40.3008 9.707C 40.3437 11.117 41.1289 11.797 42.7109 11.797C 44.2343 11.797 45.2031 11.047 45.2031 9.883C 45.2031 8.985 44.6914 8.48799 43.4765 8.19899L 42.5429 7.981C 41.75 7.797 41.4101 7.543 41.4101 7.117C 41.4101 6.567 41.9062 6.207 42.6953 6.207C 43.4687 6.207 43.8867 6.535 43.9101 7.164L 44.9336 7.16z"/>
<path style="stroke:none; fill-rule:evenodd; fill:#000000" d="M 5.24613 51.199L 6.10543 53.699L 7.29683 53.699L 4.35933 45.301L 2.98433 45.301L 0 53.699L 1.13283 53.699L 2.01563 51.199L 5.24613 51.199zM 4.94923 50.297L 2.28903 50.297L 3.66403 46.477L 4.94923 50.297z"/>
<path style="stroke:none; fill-rule:evenodd; fill:#000000" d="M 15.0039 47.926C 14.6679 46.098 13.6054 45.203 11.7539 45.203C 10.6211 45.203 9.71093 45.559 9.08593 46.25C 8.32423 47.078 7.91013 48.274 7.91013 49.633C 7.91013 51.012 8.33593 52.199 9.13283 53.016C 9.77733 53.684 10.6093 53.992 11.707 53.992C 13.7617 53.992 14.9179 52.879 15.1758 50.641L 14.0703 50.641C 13.9804 51.231 13.8672 51.633 13.6914 51.977C 13.3476 52.688 12.6328 53.09 11.7382 53.09C 10.0703 53.09 9.01173 51.738 9.01173 49.617C 9.01173 47.438 10.0234 46.094 11.6484 46.094C 12.3242 46.094 12.9609 46.305 13.3047 46.629C 13.6132 46.922 13.7851 47.281 13.914 47.914L 15.0039 47.926z"/>
<path style="stroke:none; fill-rule:evenodd; fill:#000000" d="M 69.707 126.328L 69.707 132.094L 70.707 132.094L 70.707 123.996L 70.039 123.996C 69.6836 125.238 69.4531 125.41 67.8828 125.606L 67.8828 126.324L 69.707 126.328z"/>
<path style="stroke:none; fill-rule:evenodd; fill:#000000" d="M 51.9062 99.0978L 57.7031 99.0978L 57.7031 98.3009L 51.9062 98.3009L 51.9062 99.0978z"/>
<path style="stroke:none; fill-rule:evenodd; fill:#000000" d="M 52.5039 103.328L 52.5039 109.094L 53.5039 109.094L 53.5039 100.996L 52.8359 100.996C 52.4804 102.238 52.25 102.41 50.6797 102.606L 50.6797 103.324L 52.5039 103.328z"/>
<path style="stroke:none; fill-rule:evenodd; fill:#000000" d="M 93.934 98.297L 91.605 98.297L 91.605 95.9572L 90.809 95.9572L 90.809 98.297L 88.3828 98.297L 88.3828 99.0939L 90.809 99.0939L 90.809 101.508L 91.605 101.508L 91.605 99.0939L 93.934 99.0939L 93.934 98.297z"/>
<path style="stroke:none; fill-rule:evenodd; fill:#000000" d="M 88.9062 103.328L 88.9062 109.094L 89.9062 109.094L 89.9062 100.996L 89.2382 100.996C 88.8828 102.238 88.6523 102.41 87.082 102.606L 87.082 103.324L 88.9062 103.328z"/>
<path style="stroke:none; fill-rule:evenodd; fill:#000000" d="M 46.0664 39.797L 44.3125 44.117L 45.1015 44.117L 46.4882 40.707L 47.8867 44.117L 48.6758 44.117L 46.8984 39.797L 46.0664 39.797z"/>
<path style="stroke:none; fill-rule:evenodd; fill:#000000" d="M 46.3047 53.699L 49.207 45.301L 48.0742 45.301L 45.7578 52.414L 43.3047 45.301L 42.1601 45.301L 45.164 53.699L 46.3047 53.699z"/>
<path style="stroke:none; fill-rule:evenodd; fill:#000000" d="M 52.2304 45.297C 51.1132 46.805 50.4062 48.899 50.4062 50.707C 50.4062 52.524 51.1093 54.617 52.2304 56.125L 52.8437 56.125C 51.8554 54.481 51.3047 52.547 51.3047 50.707C 51.3047 48.879 51.8554 46.934 52.8437 45.297L 52.2304 45.297z"/>
<path style="stroke:none; fill-rule:evenodd; fill:#000000" d="M 56.3047 47.93L 56.3047 53.695L 57.3047 53.695L 57.3047 45.598L 56.6367 45.598C 56.2812 46.84 56.0508 47.012 54.4804 47.207L 54.4804 47.926L 56.3047 47.93z"/>
<path style="stroke:none; fill-rule:evenodd; fill:#000000" d="M 60.7617 56.133C 61.8906 54.625 62.6015 52.531 62.6015 50.727C 62.6015 48.91 61.8906 46.817 60.7617 45.305L 60.1445 45.305C 61.1484 46.953 61.707 48.883 61.707 50.727C 61.707 52.555 61.1484 54.5 60.1445 56.133L 60.7617 56.133z"/>
<path style="stroke:#000000; stroke-width:1.9133; fill:none" d="M 34.2265 118.137L 70.5898 118.137L 70.5898 89.4298L 34.2265 89.4298L 34.2265 118.137z"/>
<path style="stroke:#000000; stroke-width:1.9133; fill:none" d="M 70.5898 118.141L 106.953 118.141L 106.953 89.4337L 70.5898 89.4337L 70.5898 118.141z"/>
<path style="stroke:#000000; stroke-width:1.9133; fill:none" d="M 89.6914 89.4493L 89.6914 62.664"/>
<path style="stroke:#000000; stroke-width:1.9133; fill:none" d="M 87.7773 70.317L 89.6875 62.664L 91.598 70.317"/>
<path style="stroke:none; fill-rule:evenodd; fill:#5f5f5f" d="M 89.7265 85.6056L 93.551 85.6056L 93.551 74.125L 89.7265 74.125L 89.7265 85.6056z"/>
<path style="stroke:#000000; stroke-width:0.95664899999999997; fill:none" d="M 89.7265 85.6056L 93.551 85.6056L 93.551 74.125L 89.7265 74.125L 89.7265 85.6056z"/>
<path style="stroke:#000000; stroke-width:1.9133; fill:none" d="M 118.437 118.141L 154.801 118.141L 154.801 89.4337L 118.437 89.4337L 118.437 118.141z"/>
<path style="stroke:#000000; stroke-width:1.9133; fill:none" d="M 154.801 118.145L 191.164 118.145L 191.164 89.4376L 154.801 89.4376L 154.801 118.145z"/>
<path style="stroke:#000000; stroke-width:1.9133; fill:none" d="M 173.902 89.4532L 173.902 62.668"/>
<path style="stroke:#000000; stroke-width:1.9133; fill:none" d="M 171.988 70.32L 173.898 62.668L 175.809 70.32"/>
<path style="stroke:none; fill-rule:evenodd; fill:#5f5f5f" d="M 173.937 85.6056L 177.762 85.6056L 177.762 74.125L 173.937 74.125L 173.937 85.6056z"/>
<path style="stroke:#000000; stroke-width:0.95664899999999997; fill:none" d="M 173.937 85.6056L 177.762 85.6056L 177.762 74.125L 173.937 74.125L 173.937 85.6056z"/>
<path style="stroke:#000000; stroke-width:1.9133; fill:none" d="M 202.648 118.145L 239.012 118.145L 239.012 89.4376L 202.648 89.4376L 202.648 118.145z"/>
<path style="stroke:#000000; stroke-width:1.9133; fill:none" d="M 239.012 118.145L 275.375 118.145L 275.375 89.4376L 239.012 89.4376L 239.012 118.145z"/>
<path style="stroke:#000000; stroke-width:1.9133; fill:none" d="M 258.113 89.4572L 258.113 62.672"/>
<path style="stroke:#000000; stroke-width:1.9133; fill:none" d="M 256.199 70.324L 258.109 62.672L 260.019 70.324"/>
<path style="stroke:#000000; stroke-dasharray:6,3; stroke-width:2.8699499999999998; fill:none" d="M 154.805 62.633L 93.559 79.856"/>
<path style="stroke:none; fill-rule:evenodd; fill:#ffffff" d="M 116.48 79.887L 126.047 79.887L 126.047 66.496L 116.48 66.496L 116.48 79.887z"/>
<path style="stroke:#ffffff; stroke-width:0.0; fill:none" d="M 116.48 79.887L 126.047 79.887L 126.047 66.496L 116.48 66.496L 116.48 79.887z"/>
<path style="stroke:none; fill-rule:evenodd; fill:#000000" d="M 121.836 70.07C 121.156 70.285 120.766 70.457 120.371 70.727C 119.508 71.328 119.012 72.27 119.012 73.274C 119.012 74.867 120.262 76.195 121.773 76.195C 123.414 76.195 124.809 74.688 124.809 72.926C 124.809 72.074 124.519 71.242 123.977 70.59C 123.516 70.031 123.305 69.871 122.117 69.149C 120.891 68.391 120.414 67.922 120.414 67.492C 120.414 67.055 120.84 66.707 121.359 66.707C 121.836 66.707 122.129 66.848 122.625 67.336C 123.168 67.875 123.355 67.992 123.687 67.992C 124.047 67.992 124.312 67.742 124.312 67.422C 124.312 66.703 123.145 66.106 121.734 66.106C 120.473 66.106 119.707 66.613 119.707 67.43C 119.707 67.91 119.922 68.301 120.512 68.852L 121.836 70.07zM 122.199 70.402C 123.082 71.254 123.504 72.203 123.504 73.367C 123.504 74.692 122.887 75.598 121.961 75.598C 121.039 75.598 120.406 74.543 120.406 72.988C 120.406 71.527 121 70.66 122.199 70.402z"/>
<path style="stroke:#000000; stroke-dasharray:6,3; stroke-width:2.8699499999999998; fill:none" d="M 239.019 62.633L 177.777 79.856"/>
<path style="stroke:none; fill-rule:evenodd; fill:#ffffff" d="M 202.605 79.887L 212.172 79.887L 212.172 66.496L 202.605 66.496L 202.605 79.887z"/>
<path style="stroke:#ffffff; stroke-width:0.0; fill:none" d="M 202.605 79.887L 212.172 79.887L 212.172 66.496L 202.605 66.496L 202.605 79.887z"/>
<path style="stroke:none; fill-rule:evenodd; fill:#000000" d="M 207.934 70.07C 207.254 70.285 206.863 70.457 206.469 70.727C 205.605 71.328 205.109 72.27 205.109 73.274C 205.109 74.867 206.359 76.195 207.871 76.195C 209.512 76.195 210.906 74.688 210.906 72.926C 210.906 72.074 210.617 71.242 210.074 70.59C 209.613 70.031 209.402 69.871 208.215 69.149C 206.988 68.391 206.512 67.922 206.512 67.492C 206.512 67.055 206.937 66.707 207.457 66.707C 207.934 66.707 208.227 66.848 208.723 67.336C 209.266 67.875 209.453 67.992 209.785 67.992C 210.145 67.992 210.41 67.742 210.41 67.422C 210.41 66.703 209.242 66.106 207.832 66.106C 206.57 66.106 205.805 66.613 205.805 67.43C 205.805 67.91 206.019 68.301 206.609 68.852L 207.934 70.07zM 208.301 70.402C 209.184 71.254 209.605 72.203 209.605 73.367C 209.605 74.692 208.988 75.598 208.062 75.598C 207.141 75.598 206.508 74.543 206.508 72.988C 206.508 71.527 207.102 70.66 208.301 70.402z"/>
<path style="stroke:none; fill-rule:evenodd; fill:#000000" d="M 136.207 99.0978L 142.004 99.0978L 142.004 98.3009L 136.207 98.3009L 136.207 99.0978z"/>
<path style="stroke:none; fill-rule:evenodd; fill:#000000" d="M 139.449 108.098L 135.223 108.098C 135.324 107.438 135.687 107.016 136.672 106.434L 137.805 105.82C 138.926 105.207 139.504 104.371 139.504 103.379C 139.504 102.707 139.234 102.078 138.758 101.645C 138.285 101.211 137.695 101.008 136.934 101.008C 135.914 101.008 135.156 101.367 134.715 102.047C 134.434 102.477 134.309 102.973 134.285 103.789L 135.285 103.789C 135.316 103.258 135.387 102.934 135.523 102.676C 135.785 102.199 136.309 101.906 136.91 101.906C 137.82 101.906 138.504 102.555 138.504 103.422C 138.504 104.059 138.129 104.606 137.41 105.016L 136.363 105.606C 134.68 106.559 134.187 107.324 134.098 109.102L 139.449 109.102L 139.449 108.098z"/>
<path style="stroke:none; fill-rule:evenodd; fill:#000000" d="M 178.137 98.297L 175.809 98.297L 175.809 95.9572L 175.012 95.9572L 175.012 98.297L 172.586 98.297L 172.586 99.0939L 175.012 99.0939L 175.012 101.508L 175.809 101.508L 175.809 99.0939L 178.137 99.0939L 178.137 98.297z"/>
<path style="stroke:none; fill-rule:evenodd; fill:#000000" d="M 175.848 108.098L 171.621 108.098C 171.723 107.438 172.086 107.016 173.07 106.434L 174.203 105.82C 175.324 105.207 175.902 104.371 175.902 103.379C 175.902 102.707 175.633 102.078 175.156 101.645C 174.684 101.211 174.094 101.008 173.332 101.008C 172.312 101.008 171.555 101.367 171.113 102.047C 170.832 102.477 170.707 102.973 170.684 103.789L 171.684 103.789C 171.715 103.258 171.785 102.934 171.922 102.676C 172.184 102.199 172.707 101.906 173.309 101.906C 174.219 101.906 174.902 102.555 174.902 103.422C 174.902 104.059 174.527 104.606 173.809 105.016L 172.762 105.606C 171.078 106.559 170.586 107.324 170.496 109.102L 175.848 109.102L 175.848 108.098z"/>
<path style="stroke:none; fill-rule:evenodd; fill:#000000" d="M 220.406 99.0978L 226.203 99.0978L 226.203 98.3009L 220.406 98.3009L 220.406 99.0978z"/>
<path style="stroke:none; fill-rule:evenodd; fill:#000000" d="M 220.543 105.399L 221.098 105.399C 222.223 105.399 222.801 105.902 222.801 106.871C 222.801 107.887 222.168 108.492 221.105 108.492C 220 108.492 219.457 107.934 219.387 106.731L 218.371 106.731C 218.414 107.391 218.531 107.824 218.723 108.195C 219.133 108.984 219.937 109.391 221.047 109.391C 222.719 109.391 223.797 108.395 223.797 106.856C 223.797 105.824 223.398 105.25 222.43 104.918C 223.207 104.621 223.598 104.047 223.598 103.234C 223.598 101.836 222.664 101 221.105 101C 219.457 101 218.578 101.879 218.543 103.586L 219.566 103.586C 219.578 103.109 219.621 102.844 219.75 102.598C 219.98 102.164 220.492 101.899 221.137 101.899C 222.043 101.899 222.594 102.414 222.594 103.254C 222.594 103.813 222.383 104.149 221.918 104.328C 221.637 104.438 221.269 104.484 220.531 104.496L 220.543 105.399z"/>
<path style="stroke:none; fill-rule:evenodd; fill:#000000" d="M 262.336 98.297L 260.008 98.297L 260.008 95.9572L 259.211 95.9572L 259.211 98.297L 256.785 98.297L 256.785 99.0939L 259.211 99.0939L 259.211 101.508L 260.008 101.508L 260.008 99.0939L 262.336 99.0939L 262.336 98.297z"/>
<path style="stroke:none; fill-rule:evenodd; fill:#000000" d="M 256.844 105.399L 257.398 105.399C 258.523 105.399 259.102 105.902 259.102 106.871C 259.102 107.887 258.469 108.492 257.406 108.492C 256.301 108.492 255.758 107.934 255.687 106.731L 254.672 106.731C 254.715 107.391 254.832 107.824 255.023 108.195C 255.434 108.984 256.238 109.391 257.348 109.391C 259.019 109.391 260.098 108.395 260.098 106.856C 260.098 105.824 259.699 105.25 258.73 104.918C 259.508 104.621 259.898 104.047 259.898 103.234C 259.898 101.836 258.965 101 257.406 101C 255.758 101 254.879 101.879 254.844 103.586L 255.867 103.586C 255.879 103.109 255.922 102.844 256.051 102.598C 256.281 102.164 256.793 101.899 257.437 101.899C 258.344 101.899 258.895 102.414 258.895 103.254C 258.895 103.813 258.684 104.149 258.219 104.328C 257.937 104.438 257.57 104.484 256.832 104.496L 256.844 105.399z"/>
<path style="stroke:none; fill-rule:evenodd; fill:#000000" d="M 237.641 128.399L 238.195 128.399C 239.32 128.399 239.898 128.902 239.898 129.871C 239.898 130.887 239.266 131.492 238.203 131.492C 237.098 131.492 236.555 130.934 236.484 129.731L 235.469 129.731C 235.512 130.391 235.629 130.824 235.82 131.195C 236.23 131.984 237.035 132.391 238.145 132.391C 239.816 132.391 240.895 131.395 240.895 129.856C 240.895 128.824 240.496 128.25 239.527 127.918C 240.305 127.621 240.695 127.047 240.695 126.234C 240.695 124.836 239.762 124 238.203 124C 236.555 124 235.676 124.879 235.641 126.586L 236.664 126.586C 236.676 126.109 236.719 125.844 236.848 125.598C 237.078 125.164 237.59 124.899 238.234 124.899C 239.141 124.899 239.691 125.414 239.691 126.254C 239.691 126.813 239.48 127.149 239.016 127.328C 238.734 127.438 238.367 127.484 237.629 127.496L 237.641 128.399z"/>
<path style="stroke:none; fill-rule:evenodd; fill:#000000" d="M 156.648 131.098L 152.422 131.098C 152.523 130.438 152.887 130.016 153.871 129.434L 155.004 128.82C 156.125 128.207 156.703 127.371 156.703 126.379C 156.703 125.707 156.434 125.078 155.957 124.645C 155.484 124.211 154.895 124.008 154.133 124.008C 153.113 124.008 152.355 124.367 151.914 125.047C 151.633 125.477 151.508 125.973 151.484 126.789L 152.484 126.789C 152.516 126.258 152.586 125.934 152.723 125.676C 152.984 125.199 153.508 124.906 154.109 124.906C 155.019 124.906 155.703 125.555 155.703 126.422C 155.703 127.059 155.328 127.606 154.609 128.016L 153.562 128.606C 151.879 129.559 151.387 130.324 151.297 132.102L 156.648 132.102L 156.648 131.098z"/>
<path style="stroke:none; fill-rule:evenodd; fill:#000000" d="M 255.004 5.56999L 255.004 11.594L 256.004 11.594L 256.004 8.461C 256.004 7.59799 256.215 7.035 256.664 6.69899C 256.953 6.481 257.234 6.414 257.887 6.40199L 257.887 5.438C 257.73 5.418 257.652 5.40599 257.527 5.40599C 256.918 5.40599 256.453 5.774 255.906 6.668L 255.906 5.578L 255.004 5.56999z"/>
<path style="stroke:#000000; stroke-width:1.9133; fill:none" d="M 256.168 16.746L 256.168 32.051"/>
<path style="stroke:#000000; stroke-width:1.9133; fill:none" d="M 258.082 24.399L 256.172 32.051L 254.262 24.399"/>
<path style="stroke:#000000; stroke-width:1.9133; fill:none" d="M 34.2226 62.637L 70.5859 62.637L 70.5859 33.93L 34.2226 33.93L 34.2226 62.637z"/>
<path style="stroke:#000000; stroke-width:1.9133; fill:none" d="M 70.5859 62.637L 106.949 62.637L 106.949 33.93L 70.5859 33.93L 70.5859 62.637z"/>
<path style="stroke:#000000; stroke-width:1.9133; fill:none" d="M 118.434 62.637L 154.797 62.637L 154.797 33.93L 118.434 33.93L 118.434 62.637z"/>
<path style="stroke:#000000; stroke-width:1.9133; fill:none" d="M 154.797 62.641L 191.16 62.641L 191.16 33.934L 154.797 33.934L 154.797 62.641z"/>
<path style="stroke:none; fill-rule:evenodd; fill:#000000" d="M 216.367 13L 214.613 17.32L 215.402 17.32L 216.789 13.91L 218.187 17.32L 218.977 17.32L 217.199 13L 216.367 13z"/>
<path style="stroke:none; fill-rule:evenodd; fill:#000000" d="M 216.707 26.899L 219.609 18.5L 218.477 18.5L 216.16 25.613L 213.707 18.5L 212.562 18.5L 215.566 26.899L 216.707 26.899z"/>
<path style="stroke:none; fill-rule:evenodd; fill:#000000" d="M 222.531 18.5C 221.414 20.008 220.707 22.102 220.707 23.91C 220.707 25.727 221.41 27.82 222.531 29.328L 223.145 29.328C 222.156 27.684 221.605 25.75 221.605 23.91C 221.605 22.082 222.156 20.137 223.145 18.5L 222.531 18.5z"/>
<path style="stroke:none; fill-rule:evenodd; fill:#000000" d="M 226.605 20.899L 225.707 20.899L 225.707 19.231L 224.707 19.231L 224.707 20.899L 223.809 20.899L 223.809 21.695L 224.707 21.695L 224.707 26.242C 224.707 26.848 225.109 27.192 225.84 27.192C 226.062 27.192 226.289 27.168 226.602 27.109L 226.602 26.274C 226.488 26.363 226.352 26.391 226.184 26.391C 225.809 26.391 225.703 26.277 225.703 25.848L 225.703 21.695L 226.602 21.695L 226.605 20.899z"/>
<path style="stroke:none; fill-rule:evenodd; fill:#000000" d="M 227.961 29.332C 229.09 27.824 229.801 25.731 229.801 23.926C 229.801 22.109 229.09 20.016 227.961 18.504L 227.344 18.504C 228.348 20.152 228.906 22.082 228.906 23.926C 228.906 25.754 228.348 27.699 227.344 29.332L 227.961 29.332z"/>
<path style="stroke:#000000; stroke-width:1.9133; fill:none" d="M 202.645 62.641L 239.008 62.641L 239.008 33.934L 202.645 33.934L 202.645 62.641z"/>
<path style="stroke:#000000; stroke-width:1.9133; fill:none" d="M 239.008 62.645L 275.371 62.645L 275.371 33.938L 239.008 33.938L 239.008 62.645z"/>
<path style="stroke:none; fill-rule:evenodd; fill:#000000" d="M 82.3672 39.797L 80.6132 44.117L 81.4023 44.117L 82.789 40.707L 84.1875 44.117L 84.9765 44.117L 83.1992 39.797L 82.3672 39.797z"/>
<path style="stroke:none; fill-rule:evenodd; fill:#000000" d="M 82.707 53.699L 85.6093 45.301L 84.4765 45.301L 82.1601 52.414L 79.707 45.301L 78.5625 45.301L 81.5664 53.699L 82.707 53.699z"/>
<path style="stroke:none; fill-rule:evenodd; fill:#000000" d="M 88.6289 45.297C 87.5117 46.805 86.8047 48.899 86.8047 50.707C 86.8047 52.524 87.5078 54.617 88.6289 56.125L 89.2422 56.125C 88.2539 54.481 87.7031 52.547 87.7031 50.707C 87.7031 48.879 88.2539 46.934 89.2422 45.297L 88.6289 45.297z"/>
<path style="stroke:none; fill-rule:evenodd; fill:#000000" d="M 95.449 52.699L 91.223 52.699C 91.324 52.039 91.687 51.617 92.672 51.035L 93.805 50.422C 94.926 49.809 95.504 48.973 95.504 47.981C 95.504 47.309 95.234 46.68 94.758 46.246C 94.285 45.813 93.695 45.609 92.934 45.609C 91.914 45.609 91.156 45.969 90.715 46.649C 90.434 47.078 90.309 47.574 90.285 48.391L 91.285 48.391C 91.316 47.859 91.387 47.535 91.523 47.277C 91.785 46.801 92.309 46.508 92.91 46.508C 93.82 46.508 94.504 47.156 94.504 48.024C 94.504 48.66 94.129 49.207 93.41 49.617L 92.363 50.207C 90.68 51.16 90.1875 51.926 90.0976 53.703L 95.449 53.703L 95.449 52.699z"/>
<path style="stroke:none; fill-rule:evenodd; fill:#000000" d="M 97.16 56.133C 98.289 54.625 99 52.531 99 50.727C 99 48.91 98.289 46.817 97.16 45.305L 96.543 45.305C 97.547 46.953 98.105 48.883 98.105 50.727C 98.105 52.555 97.547 54.5 96.543 56.133L 97.16 56.133z"/>
<path style="stroke:none; fill-rule:evenodd; fill:#000000" d="M 47.9648 13L 46.2109 17.32L 47 17.32L 48.3867 13.91L 49.7851 17.32L 50.5742 17.32L 48.7968 13L 47.9648 13z"/>
<path style="stroke:none; fill-rule:evenodd; fill:#000000" d="M 48.3047 26.899L 51.207 18.5L 50.0742 18.5L 47.7578 25.613L 45.3047 18.5L 44.1601 18.5L 47.164 26.899L 48.3047 26.899z"/>
<path style="stroke:none; fill-rule:evenodd; fill:#000000" d="M 54.1289 18.5C 53.0117 20.008 52.3047 22.102 52.3047 23.91C 52.3047 25.727 53.0078 27.82 54.1289 29.328L 54.7422 29.328C 53.7539 27.684 53.2031 25.75 53.2031 23.91C 53.2031 22.082 53.7539 20.137 54.7422 18.5L 54.1289 18.5z"/>
<path style="stroke:none; fill-rule:evenodd; fill:#000000" d="M 58.1054 20.899L 57.207 20.899L 57.207 19.231L 56.207 19.231L 56.207 20.899L 55.3086 20.899L 55.3086 21.695L 56.207 21.695L 56.207 26.242C 56.207 26.848 56.6093 27.192 57.3398 27.192C 57.5625 27.192 57.789 27.168 58.1015 27.109L 58.1015 26.274C 57.9882 26.363 57.8515 26.391 57.6836 26.391C 57.3086 26.391 57.2031 26.277 57.2031 25.848L 57.2031 21.695L 58.1015 21.695L 58.1054 20.899z"/>
<path style="stroke:none; fill-rule:evenodd; fill:#000000" d="M 59.4609 29.332C 60.5898 27.824 61.3008 25.731 61.3008 23.926C 61.3008 22.109 60.5898 20.016 59.4609 18.504L 58.8437 18.504C 59.8476 20.152 60.4062 22.082 60.4062 23.926C 60.4062 25.754 59.8476 27.699 58.8437 29.332L 59.4609 29.332z"/>
<path style="stroke:none; fill-rule:evenodd; fill:#000000" d="M 78.9062 26.899L 81.8086 18.5L 80.6758 18.5L 78.3593 25.613L 75.9062 18.5L 74.7617 18.5L 77.7656 26.899L 78.9062 26.899z"/>
<path style="stroke:none; fill-rule:evenodd; fill:#000000" d="M 84.7304 18.5C 83.6132 20.008 82.9062 22.102 82.9062 23.91C 82.9062 25.727 83.6093 27.82 84.7304 29.328L 85.3437 29.328C 84.3554 27.684 83.8047 25.75 83.8047 23.91C 83.8047 22.082 84.3554 20.137 85.3437 18.5L 84.7304 18.5z"/>
<path style="stroke:none; fill-rule:evenodd; fill:#000000" d="M 88.8047 20.899L 87.9062 20.899L 87.9062 19.231L 86.9062 19.231L 86.9062 20.899L 86.0078 20.899L 86.0078 21.695L 86.9062 21.695L 86.9062 26.242C 86.9062 26.848 87.3086 27.192 88.039 27.192C 88.2617 27.192 88.4882 27.168 88.8008 27.109L 88.8008 26.274C 88.6875 26.363 88.5508 26.391 88.3828 26.391C 88.0078 26.391 87.9023 26.277 87.9023 25.848L 87.9023 21.695L 88.8008 21.695L 88.8047 20.899z"/>
<path style="stroke:none; fill-rule:evenodd; fill:#000000" d="M 95.234 23.797L 92.906 23.797L 92.906 21.457L 92.109 21.457L 92.109 23.797L 89.6836 23.797L 89.6836 24.594L 92.109 24.594L 92.109 27.008L 92.906 27.008L 92.906 24.594L 95.234 24.594L 95.234 23.797z"/>
<path style="stroke:none; fill-rule:evenodd; fill:#000000" d="M 98.805 21.129L 98.805 26.895L 99.805 26.895L 99.805 18.797L 99.137 18.797C 98.781 20.039 98.551 20.211 96.98 20.406L 96.98 21.125L 98.805 21.129z"/>
<path style="stroke:none; fill-rule:evenodd; fill:#000000" d="M 103.16 29.332C 104.289 27.824 105 25.731 105 23.926C 105 22.109 104.289 20.016 103.16 18.504L 102.543 18.504C 103.547 20.152 104.105 22.082 104.105 23.926C 104.105 25.754 103.547 27.699 102.543 29.332L 103.16 29.332z"/>
<path style="stroke:none; fill-rule:evenodd; fill:#000000" d="M 78.5664 13L 76.8125 17.32L 77.6015 17.32L 78.9882 13.91L 80.3867 17.32L 81.1758 17.32L 79.3984 13L 78.5664 13z"/>
<path style="stroke:none; fill-rule:evenodd; fill:#000000" d="M 72.9336 19.149L 71.6601 23.102L 71.3164 21.332C 70.9726 19.574 70.6054 19 69.8359 19C 69.4922 19 69.1836 19.16 69 19.426C 68.75 19.781 68.6914 20.07 68.6679 21.039L 68.6679 21.188L 68.9179 21.188C 68.9375 20.867 68.9609 20.688 69.0078 20.52C 69.1328 20.137 69.4062 19.899 69.7382 19.899C 70.0468 19.899 70.2656 20.094 70.4804 20.567C 70.7539 21.164 71.0508 22.219 71.1679 23.074L 71.3047 24.031C 71.2734 24.145 71.1445 24.516 70.9258 25.141C 70.6992 25.774 70.6289 26.109 70.6289 26.504C 70.6289 27.047 70.8672 27.402 71.2343 27.402C 71.7031 27.402 72.0117 26.817 72.0117 25.899C 72.0117 25.543 71.957 24.992 71.8203 24.129L 74.1484 19.145L 72.9336 19.149z"/>
<path style="stroke:none; fill-rule:evenodd; fill:#000000" d="M 132.168 13L 130.414 17.32L 131.203 17.32L 132.59 13.91L 133.988 17.32L 134.777 17.32L 133 13L 132.168 13z"/>
<path style="stroke:none; fill-rule:evenodd; fill:#000000" d="M 132.504 26.899L 135.406 18.5L 134.273 18.5L 131.957 25.613L 129.504 18.5L 128.359 18.5L 131.363 26.899L 132.504 26.899z"/>
<path style="stroke:none; fill-rule:evenodd; fill:#000000" d="M 138.332 18.5C 137.215 20.008 136.508 22.102 136.508 23.91C 136.508 25.727 137.211 27.82 138.332 29.328L 138.945 29.328C 137.957 27.684 137.406 25.75 137.406 23.91C 137.406 22.082 137.957 20.137 138.945 18.5L 138.332 18.5z"/>
<path style="stroke:none; fill-rule:evenodd; fill:#000000" d="M 142.406 20.899L 141.508 20.899L 141.508 19.231L 140.508 19.231L 140.508 20.899L 139.609 20.899L 139.609 21.695L 140.508 21.695L 140.508 26.242C 140.508 26.848 140.91 27.192 141.641 27.192C 141.863 27.192 142.09 27.168 142.402 27.109L 142.402 26.274C 142.289 26.363 142.152 26.391 141.984 26.391C 141.609 26.391 141.504 26.277 141.504 25.848L 141.504 21.695L 142.402 21.695L 142.406 20.899z"/>
<path style="stroke:none; fill-rule:evenodd; fill:#000000" d="M 143.66 29.332C 144.789 27.824 145.5 25.731 145.5 23.926C 145.5 22.109 144.789 20.016 143.66 18.504L 143.043 18.504C 144.047 20.152 144.605 22.082 144.605 23.926C 144.605 25.754 144.047 27.699 143.043 29.332L 143.66 29.332z"/>
<path style="stroke:none; fill-rule:evenodd; fill:#000000" d="M 163.105 26.899L 166.008 18.5L 164.875 18.5L 162.559 25.613L 160.105 18.5L 158.961 18.5L 161.965 26.899L 163.105 26.899z"/>
<path style="stroke:none; fill-rule:evenodd; fill:#000000" d="M 169.031 18.5C 167.914 20.008 167.207 22.102 167.207 23.91C 167.207 25.727 167.91 27.82 169.031 29.328L 169.645 29.328C 168.656 27.684 168.105 25.75 168.105 23.91C 168.105 22.082 168.656 20.137 169.645 18.5L 169.031 18.5z"/>
<path style="stroke:none; fill-rule:evenodd; fill:#000000" d="M 173.004 20.899L 172.105 20.899L 172.105 19.231L 171.105 19.231L 171.105 20.899L 170.207 20.899L 170.207 21.695L 171.105 21.695L 171.105 26.242C 171.105 26.848 171.508 27.192 172.238 27.192C 172.461 27.192 172.687 27.168 173 27.109L 173 26.274C 172.887 26.363 172.75 26.391 172.582 26.391C 172.207 26.391 172.102 26.277 172.102 25.848L 172.102 21.695L 173 21.695L 173.004 20.899z"/>
<path style="stroke:none; fill-rule:evenodd; fill:#000000" d="M 179.434 23.797L 177.105 23.797L 177.105 21.457L 176.309 21.457L 176.309 23.797L 173.883 23.797L 173.883 24.594L 176.309 24.594L 176.309 27.008L 177.105 27.008L 177.105 24.594L 179.434 24.594L 179.434 23.797z"/>
<path style="stroke:none; fill-rule:evenodd; fill:#000000" d="M 183.004 21.129L 183.004 26.895L 184.004 26.895L 184.004 18.797L 183.336 18.797C 182.98 20.039 182.75 20.211 181.18 20.406L 181.18 21.125L 183.004 21.129z"/>
<path style="stroke:none; fill-rule:evenodd; fill:#000000" d="M 187.461 29.332C 188.59 27.824 189.301 25.731 189.301 23.926C 189.301 22.109 188.59 20.016 187.461 18.504L 186.844 18.504C 187.848 20.152 188.406 22.082 188.406 23.926C 188.406 25.754 187.848 27.699 186.844 29.332L 187.461 29.332z"/>
<path style="stroke:none; fill-rule:evenodd; fill:#000000" d="M 162.766 13L 161.012 17.32L 161.801 17.32L 163.187 13.91L 164.586 17.32L 165.375 17.32L 163.598 13L 162.766 13z"/>
<path style="stroke:none; fill-rule:evenodd; fill:#000000" d="M 157.234 19.149L 155.961 23.102L 155.617 21.332C 155.273 19.574 154.906 19 154.137 19C 153.793 19 153.484 19.16 153.301 19.426C 153.051 19.781 152.992 20.07 152.969 21.039L 152.969 21.188L 153.219 21.188C 153.238 20.867 153.262 20.688 153.309 20.52C 153.434 20.137 153.707 19.899 154.039 19.899C 154.348 19.899 154.566 20.094 154.781 20.567C 155.055 21.164 155.352 22.219 155.469 23.074L 155.605 24.031C 155.574 24.145 155.445 24.516 155.227 25.141C 155 25.774 154.93 26.109 154.93 26.504C 154.93 27.047 155.168 27.402 155.535 27.402C 156.004 27.402 156.312 26.817 156.312 25.899C 156.312 25.543 156.258 24.992 156.121 24.129L 158.449 19.145L 157.234 19.149z"/>
<path style="stroke:#000000; stroke-width:1.9133; fill:none" d="M 108.871 24.356L 128.008 24.356"/>
<path style="stroke:#000000; stroke-width:1.9133; fill:none" d="M 120.355 22.442L 128.008 24.352L 120.355 26.262"/>
<path style="stroke:none; fill-rule:evenodd; fill:#000000" d="M 117.031 11.547L 115.758 15.5L 115.414 13.731C 115.07 11.973 114.703 11.399 113.934 11.399C 113.59 11.399 113.281 11.559 113.098 11.824C 112.848 12.18 112.789 12.469 112.766 13.438L 112.766 13.586L 113.016 13.586C 113.035 13.266 113.059 13.086 113.105 12.918C 113.23 12.535 113.504 12.297 113.836 12.297C 114.145 12.297 114.363 12.492 114.578 12.965C 114.852 13.563 115.148 14.617 115.266 15.473L 115.402 16.43C 115.371 16.543 115.242 16.914 115.023 17.539C 114.797 18.172 114.727 18.508 114.727 18.902C 114.727 19.445 114.965 19.801 115.332 19.801C 115.801 19.801 116.109 19.215 116.109 18.297C 116.109 17.942 116.055 17.391 115.918 16.527L 118.246 11.543L 117.031 11.547z"/>
<path style="stroke:none; fill-rule:evenodd; fill:#000000" d="M 112.684 10.598L 118.469 10.598L 118.469 10.098L 112.684 10.098L 112.684 10.598z"/>
<path style="stroke:none; fill-rule:evenodd; fill:#000000" d="M 113.949 1.30499C 114.344 1.149 114.551 1.09 114.695 1.09C 114.84 1.09 114.98 1.168 115.031 1.28099C 115.09 1.438 115.09 1.438 115.102 2.16L 115.102 6.06999C 115.102 7.168 114.945 7.34799 113.945 7.395L 113.945 7.692L 117.078 7.692L 117.078 7.395C 116.129 7.328 116.004 7.17999 116.004 6.06999L 116.004 0L 115.797 0C 115.371 0.261993 114.918 0.503998 113.949 0.972992L 113.949 1.30499z"/>
<path style="stroke:#000000; stroke-width:1.9133; fill:none" d="M 193.082 24.356L 212.219 24.356"/>
<path style="stroke:#000000; stroke-width:1.9133; fill:none" d="M 204.566 22.445L 212.219 24.356L 204.566 26.266"/>
<path style="stroke:none; fill-rule:evenodd; fill:#000000" d="M 201.234 11.547L 199.961 15.5L 199.617 13.731C 199.273 11.973 198.906 11.399 198.137 11.399C 197.793 11.399 197.484 11.559 197.301 11.824C 197.051 12.18 196.992 12.469 196.969 13.438L 196.969 13.586L 197.219 13.586C 197.238 13.266 197.262 13.086 197.309 12.918C 197.434 12.535 197.707 12.297 198.039 12.297C 198.348 12.297 198.566 12.492 198.781 12.965C 199.055 13.563 199.352 14.617 199.469 15.473L 199.605 16.43C 199.574 16.543 199.445 16.914 199.227 17.539C 199 18.172 198.93 18.508 198.93 18.902C 198.93 19.445 199.168 19.801 199.535 19.801C 200.004 19.801 200.312 19.215 200.312 18.297C 200.312 17.942 200.258 17.391 200.121 16.527L 202.449 11.543L 201.234 11.547z"/>
<path style="stroke:none; fill-rule:evenodd; fill:#000000" d="M 196.883 10.598L 202.668 10.598L 202.668 10.098L 196.883 10.098L 196.883 10.598z"/>
<path style="stroke:none; fill-rule:evenodd; fill:#000000" d="M 198.25 1.30499C 198.645 1.149 198.852 1.09 198.996 1.09C 199.141 1.09 199.281 1.168 199.332 1.28099C 199.391 1.438 199.391 1.438 199.402 2.16L 199.402 6.06999C 199.402 7.168 199.246 7.34799 198.246 7.395L 198.246 7.692L 201.379 7.692L 201.379 7.395C 200.43 7.328 200.305 7.17999 200.305 6.06999L 200.305 0L 200.098 0C 199.672 0.261993 199.219 0.503998 198.25 0.972992L 198.25 1.30499z"/>
<path style="stroke:none; fill-rule:evenodd; fill:#000000" d="M 130.266 39.797L 128.512 44.117L 129.301 44.117L 130.687 40.707L 132.086 44.117L 132.875 44.117L 131.098 39.797L 130.266 39.797z"/>
<path style="stroke:none; fill-rule:evenodd; fill:#000000" d="M 130.605 53.699L 133.508 45.301L 132.375 45.301L 130.059 52.414L 127.605 45.301L 126.461 45.301L 129.465 53.699L 130.605 53.699z"/>
<path style="stroke:none; fill-rule:evenodd; fill:#000000" d="M 136.43 45.297C 135.312 46.805 134.605 48.899 134.605 50.707C 134.605 52.524 135.309 54.617 136.43 56.125L 137.043 56.125C 136.055 54.481 135.504 52.547 135.504 50.707C 135.504 48.879 136.055 46.934 137.043 45.297L 136.43 45.297z"/>
<path style="stroke:none; fill-rule:evenodd; fill:#000000" d="M 143.25 52.699L 139.023 52.699C 139.125 52.039 139.488 51.617 140.473 51.035L 141.605 50.422C 142.727 49.809 143.305 48.973 143.305 47.981C 143.305 47.309 143.035 46.68 142.559 46.246C 142.086 45.813 141.496 45.609 140.734 45.609C 139.715 45.609 138.957 45.969 138.516 46.649C 138.234 47.078 138.109 47.574 138.086 48.391L 139.086 48.391C 139.117 47.859 139.187 47.535 139.324 47.277C 139.586 46.801 140.109 46.508 140.711 46.508C 141.621 46.508 142.305 47.156 142.305 48.024C 142.305 48.66 141.93 49.207 141.211 49.617L 140.164 50.207C 138.48 51.16 137.988 51.926 137.898 53.703L 143.25 53.703L 143.25 52.699z"/>
<path style="stroke:none; fill-rule:evenodd; fill:#000000" d="M 144.961 56.133C 146.09 54.625 146.801 52.531 146.801 50.727C 146.801 48.91 146.09 46.817 144.961 45.305L 144.344 45.305C 145.348 46.953 145.906 48.883 145.906 50.727C 145.906 52.555 145.348 54.5 144.344 56.133L 144.961 56.133z"/>
<path style="stroke:none; fill-rule:evenodd; fill:#000000" d="M 166.566 39.797L 164.812 44.117L 165.602 44.117L 166.988 40.707L 168.387 44.117L 169.176 44.117L 167.398 39.797L 166.566 39.797z"/>
<path style="stroke:none; fill-rule:evenodd; fill:#000000" d="M 166.906 53.699L 169.809 45.301L 168.676 45.301L 166.359 52.414L 163.906 45.301L 162.762 45.301L 165.766 53.699L 166.906 53.699z"/>
<path style="stroke:none; fill-rule:evenodd; fill:#000000" d="M 172.832 45.297C 171.715 46.805 171.008 48.899 171.008 50.707C 171.008 52.524 171.711 54.617 172.832 56.125L 173.445 56.125C 172.457 54.481 171.906 52.547 171.906 50.707C 171.906 48.879 172.457 46.934 173.445 45.297L 172.832 45.297z"/>
<path style="stroke:none; fill-rule:evenodd; fill:#000000" d="M 176.441 50L 176.996 50C 178.121 50 178.699 50.504 178.699 51.473C 178.699 52.488 178.066 53.094 177.004 53.094C 175.898 53.094 175.355 52.535 175.285 51.332L 174.269 51.332C 174.312 51.992 174.43 52.426 174.621 52.797C 175.031 53.586 175.836 53.992 176.945 53.992C 178.617 53.992 179.695 52.996 179.695 51.457C 179.695 50.426 179.297 49.852 178.328 49.52C 179.105 49.223 179.496 48.649 179.496 47.836C 179.496 46.438 178.562 45.602 177.004 45.602C 175.355 45.602 174.477 46.481 174.441 48.188L 175.465 48.188C 175.477 47.711 175.519 47.445 175.648 47.199C 175.879 46.766 176.391 46.5 177.035 46.5C 177.941 46.5 178.492 47.016 178.492 47.856C 178.492 48.414 178.281 48.75 177.816 48.93C 177.535 49.039 177.168 49.086 176.43 49.098L 176.441 50z"/>
<path style="stroke:none; fill-rule:evenodd; fill:#000000" d="M 181.363 56.133C 182.492 54.625 183.203 52.531 183.203 50.727C 183.203 48.91 182.492 46.817 181.363 45.305L 180.746 45.305C 181.75 46.953 182.309 48.883 182.309 50.727C 182.309 52.555 181.75 54.5 180.746 56.133L 181.363 56.133z"/>
<path style="stroke:none; fill-rule:evenodd; fill:#000000" d="M 214.465 39.797L 212.711 44.117L 213.5 44.117L 214.887 40.707L 216.285 44.117L 217.074 44.117L 215.297 39.797L 214.465 39.797z"/>
<path style="stroke:none; fill-rule:evenodd; fill:#000000" d="M 214.805 53.699L 217.707 45.301L 216.574 45.301L 214.258 52.414L 211.805 45.301L 210.66 45.301L 213.664 53.699L 214.805 53.699z"/>
<path style="stroke:none; fill-rule:evenodd; fill:#000000" d="M 220.629 45.297C 219.512 46.805 218.805 48.899 218.805 50.707C 218.805 52.524 219.508 54.617 220.629 56.125L 221.242 56.125C 220.254 54.481 219.703 52.547 219.703 50.707C 219.703 48.879 220.254 46.934 221.242 45.297L 220.629 45.297z"/>
<path style="stroke:none; fill-rule:evenodd; fill:#000000" d="M 224.344 50L 224.898 50C 226.023 50 226.602 50.504 226.602 51.473C 226.602 52.488 225.969 53.094 224.906 53.094C 223.801 53.094 223.258 52.535 223.187 51.332L 222.172 51.332C 222.215 51.992 222.332 52.426 222.523 52.797C 222.934 53.586 223.738 53.992 224.848 53.992C 226.519 53.992 227.598 52.996 227.598 51.457C 227.598 50.426 227.199 49.852 226.23 49.52C 227.008 49.223 227.398 48.649 227.398 47.836C 227.398 46.438 226.465 45.602 224.906 45.602C 223.258 45.602 222.379 46.481 222.344 48.188L 223.367 48.188C 223.379 47.711 223.422 47.445 223.551 47.199C 223.781 46.766 224.293 46.5 224.937 46.5C 225.844 46.5 226.395 47.016 226.395 47.856C 226.395 48.414 226.184 48.75 225.719 48.93C 225.437 49.039 225.07 49.086 224.332 49.098L 224.344 50z"/>
<path style="stroke:none; fill-rule:evenodd; fill:#000000" d="M 229.16 56.133C 230.289 54.625 231 52.531 231 50.727C 231 48.91 230.289 46.817 229.16 45.305L 228.543 45.305C 229.547 46.953 230.105 48.883 230.105 50.727C 230.105 52.555 229.547 54.5 228.543 56.133L 229.16 56.133z"/>
<path style="stroke:none; fill-rule:evenodd; fill:#000000" d="M 249.305 47.672L 249.305 53.695L 250.305 53.695L 250.305 50.563C 250.305 49.699 250.516 49.137 250.965 48.801C 251.254 48.582 251.535 48.516 252.187 48.504L 252.187 47.539C 252.031 47.52 251.953 47.508 251.828 47.508C 251.219 47.508 250.754 47.875 250.207 48.77L 250.207 47.68L 249.305 47.672z"/>
<path style="stroke:none; fill-rule:evenodd; fill:#000000" d="M 255.031 45.297C 253.914 46.805 253.207 48.899 253.207 50.707C 253.207 52.524 253.91 54.617 255.031 56.125L 255.645 56.125C 254.656 54.481 254.105 52.547 254.105 50.707C 254.105 48.879 254.656 46.934 255.645 45.297L 255.031 45.297z"/>
<path style="stroke:none; fill-rule:evenodd; fill:#000000" d="M 258.641 50L 259.195 50C 260.32 50 260.898 50.504 260.898 51.473C 260.898 52.488 260.266 53.094 259.203 53.094C 258.098 53.094 257.555 52.535 257.484 51.332L 256.469 51.332C 256.512 51.992 256.629 52.426 256.82 52.797C 257.23 53.586 258.035 53.992 259.145 53.992C 260.816 53.992 261.895 52.996 261.895 51.457C 261.895 50.426 261.496 49.852 260.527 49.52C 261.305 49.223 261.695 48.649 261.695 47.836C 261.695 46.438 260.762 45.602 259.203 45.602C 257.555 45.602 256.676 46.481 256.641 48.188L 257.664 48.188C 257.676 47.711 257.719 47.445 257.848 47.199C 258.078 46.766 258.59 46.5 259.234 46.5C 260.141 46.5 260.691 47.016 260.691 47.856C 260.691 48.414 260.48 48.75 260.016 48.93C 259.734 49.039 259.367 49.086 258.629 49.098L 258.641 50z"/>
<path style="stroke:none; fill-rule:evenodd; fill:#000000" d="M 263.562 56.133C 264.691 54.625 265.402 52.531 265.402 50.727C 265.402 48.91 264.691 46.817 263.562 45.305L 262.945 45.305C 263.949 46.953 264.508 48.883 264.508 50.727C 264.508 52.555 263.949 54.5 262.945 56.133L 263.562 56.133z"/>
<path style="stroke:#000000; stroke-width:1.9133; fill:none" d="M 49.539 143.02L 258.156 143.02"/>
<path style="stroke:#000000; stroke-width:1.9133; fill:none" d="M 250.508 141.106L 258.16 143.016L 250.508 144.926"/>
<path style="stroke:none; fill-rule:evenodd; fill:#000000" d="M 145.406 147.598L 148.109 147.598L 148.109 146.699L 141.547 146.699L 141.547 147.598L 144.305 147.598L 144.305 155.098L 145.402 155.098L 145.406 147.598z"/>
<path style="stroke:none; fill-rule:evenodd; fill:#000000" d="M 150.105 149.098L 149.105 149.098L 149.105 155.098L 150.105 155.098L 150.105 149.098zM 150.105 146.699L 149.105 146.699L 149.105 147.934L 150.105 147.934L 150.105 146.699z"/>
<path style="stroke:none; fill-rule:evenodd; fill:#000000" d="M 151.707 149.07L 151.707 155.094L 152.707 155.094L 152.707 151.285C 152.707 150.406 153.332 149.699 154.102 149.699C 154.805 149.699 155.203 150.137 155.203 150.914L 155.203 155.094L 156.203 155.094L 156.203 151.285C 156.203 150.406 156.828 149.699 157.598 149.699C 158.289 149.699 158.699 150.149 158.699 150.914L 158.699 155.094L 159.699 155.094L 159.699 150.574C 159.699 149.496 159.078 148.899 157.945 148.899C 157.141 148.899 156.652 149.141 156.09 149.828C 155.734 149.18 155.25 148.899 154.465 148.899C 153.66 148.899 153.129 149.195 152.609 149.918L 152.609 149.07L 151.707 149.07z"/>
<path style="stroke:none; fill-rule:evenodd; fill:#000000" d="M 166.406 152.399C 166.406 151.481 166.34 150.93 166.168 150.484C 165.781 149.5 164.867 148.902 163.75 148.902C 162.086 148.902 161.012 150.195 161.012 152.184C 161.012 154.172 162.047 155.399 163.723 155.399C 165.086 155.399 166.031 154.606 166.273 153.274L 165.32 153.274C 165.059 154.078 164.527 154.496 163.766 154.496C 163.164 154.496 162.652 154.219 162.336 153.703C 162.109 153.356 162.031 153.004 162.019 152.399L 166.406 152.399zM 161.984 151.633C 162.062 150.52 162.742 149.797 163.703 149.797C 164.641 149.797 165.367 150.574 165.367 151.563C 165.367 151.582 165.367 151.606 165.355 151.629L 161.984 151.633z"/>
</g>
</svg>