<?xml version="1.0" encoding="ISO-8859-1" standalone="yes"?>
<svg width="321.89" height="234.485">
  <defs> 
    <marker id="ArrowEnd" viewBox="0 0 10 10" refX="0" refY="5" 
     markerUnits="strokeWidth" 
     markerWidth="4" 
     markerHeight="3" 
     orient="auto"> 
        <path d="M 0 0 L 10 5 L 0 10 z" /> 
    </marker>
    <marker id="ArrowStart" viewBox="0 0 10 10" refX="10" refY="5" 
     markerUnits="strokeWidth" 
     markerWidth="4" 
     markerHeight="3" 
     orient="auto"> 
        <path d="M 10 0 L 0 5 L 10 10 z" /> 
    </marker> </defs>
<g>
<path style="stroke:#000000; stroke-width:0.95664899999999997; fill:none" d="M 205.908 210.339C 205.908 199.776 191.35 191.206 173.385 191.206C 155.424 191.206 140.861 199.768 140.861 210.339C 140.861 220.901 155.424 229.472 173.385 229.472C 191.346 229.472 205.908 220.909 205.908 210.339"/>
<path style="stroke:none; fill-rule:evenodd; fill:#000000" d="M 170.623 207.858C 170.615 206.222 169.494 205.272 167.58 205.272C 165.756 205.272 164.627 206.222 164.627 207.749C 164.627 208.776 165.158 209.429 166.248 209.718L 168.303 210.272C 169.346 210.55 169.822 210.976 169.822 211.636C 169.822 212.085 169.584 212.55 169.236 212.804C 168.908 213.034 168.389 213.159 167.721 213.159C 166.826 213.159 166.217 212.933 165.822 212.433C 165.518 212.054 165.381 211.636 165.432 211.097L 164.432 211.097C 164.439 211.874 164.588 212.386 164.916 212.851C 165.482 213.64 166.435 214.058 167.693 214.058C 168.678 214.058 169.482 213.831 170.018 213.413C 170.572 212.968 170.924 212.218 170.924 211.491C 170.924 210.456 170.291 209.698 169.166 209.386L 167.092 208.823C 166.096 208.55 165.732 208.226 165.732 207.581C 165.732 206.729 166.467 206.163 167.572 206.163C 168.881 206.163 169.615 206.765 169.627 207.851L 170.623 207.858z"/>
<path style="stroke:none; fill-rule:evenodd; fill:#000000" d="M 178.92 205.37L 177.92 205.37L 177.92 212.241L 173.572 205.37L 172.424 205.37L 172.424 213.768L 173.424 213.768L 173.424 206.987L 177.725 213.768L 178.92 213.768L 178.92 205.37z"/>
<path style="stroke:none; fill-rule:evenodd; fill:#000000" d="M 180.521 207.745L 180.521 213.768L 181.521 213.768L 181.521 210.636C 181.521 209.772 181.732 209.21 182.182 208.874C 182.471 208.655 182.752 208.589 183.404 208.577L 183.404 207.612C 183.248 207.593 183.17 207.581 183.045 207.581C 182.435 207.581 181.971 207.948 181.424 208.843L 181.424 207.753L 180.521 207.745z"/>
<path style="stroke:#000000; stroke-width:0.95664899999999997; fill:none" d="M 115.084 30.1431C 115.084 19.7721 90.4426 11.3621 60.0486 11.3621C 29.6536 11.3621 5.01364 19.7721 5.01364 30.1431C 5.01364 40.5151 29.6536 48.9251 60.0486 48.9251C 90.4426 48.9251 115.084 40.5151 115.084 30.1431"/>
<path style="stroke:none; fill-rule:evenodd; fill:#000000" d="M 20.0206 29.9721L 22.6616 29.9721C 23.3176 29.9721 23.8376 29.7801 24.2906 29.3781C 24.7986 28.9251 25.0176 28.3861 25.0176 27.6201C 25.0176 26.0581 24.0796 25.1751 22.4076 25.1751L 18.9196 25.1751L 18.9196 33.5731L 20.0176 33.5731L 20.0206 29.9721zM 20.0206 29.0731L 20.0206 26.0731L 22.2706 26.0731C 23.3026 26.0731 23.9196 26.6361 23.9196 27.5731C 23.9196 28.5071 23.3066 29.0731 22.2706 29.0731L 20.0206 29.0731z"/>
<path style="stroke:none; fill-rule:evenodd; fill:#000000" d="M 28.7596 27.3701C 27.0566 27.3701 26.0246 28.5851 26.0246 30.6201C 26.0246 32.6551 27.0446 33.8701 28.7746 33.8701C 30.4776 33.8701 31.5246 32.6591 31.5246 30.6711C 31.5246 28.5811 30.5176 27.3781 28.7676 27.3781L 28.7596 27.3701zM 28.7706 28.2721C 29.8646 28.2721 30.5206 29.1591 30.5206 30.6551C 30.5206 32.0691 29.8456 32.9681 28.7706 32.9681C 27.6886 32.9681 27.0206 32.0811 27.0206 30.6201C 27.0206 29.1711 27.6846 28.2721 28.7706 28.2721z"/>
<path style="stroke:none; fill-rule:evenodd; fill:#000000" d="M 37.0486 29.2331C 37.0366 28.0461 36.2516 27.3741 34.8496 27.3741C 33.4386 27.3741 32.5246 28.1001 32.5246 29.2221C 32.5246 30.1671 33.0136 30.6161 34.4626 30.9641L 35.3726 31.1821C 36.0486 31.3431 36.3176 31.5851 36.3176 32.0221C 36.3176 32.5851 35.7516 32.9681 34.9076 32.9681C 34.3886 32.9681 33.9506 32.8191 33.7086 32.5611C 33.5606 32.3901 33.4896 32.2141 33.4316 31.7801L 32.4156 31.7801C 32.4586 33.1901 33.2436 33.8701 34.8256 33.8701C 36.3496 33.8701 37.3176 33.1201 37.3176 31.9561C 37.3176 31.0581 36.8066 30.5611 35.5916 30.2721L 34.6576 30.0541C 33.8646 29.8701 33.5246 29.6161 33.5246 29.1901C 33.5246 28.6401 34.0206 28.2801 34.8106 28.2801C 35.5836 28.2801 36.0016 28.6081 36.0246 29.2371L 37.0486 29.2331z"/>
<path style="stroke:none; fill-rule:evenodd; fill:#000000" d="M 40.6226 27.5731L 39.7246 27.5731L 39.7246 25.9051L 38.7246 25.9051L 38.7246 27.5731L 37.8256 27.5731L 37.8256 28.3701L 38.7246 28.3701L 38.7246 32.9171C 38.7246 33.5221 39.1266 33.8661 39.8566 33.8661C 40.0796 33.8661 40.3066 33.8431 40.6186 33.7841L 40.6186 32.9481C 40.5056 33.0381 40.3686 33.0651 40.2006 33.0651C 39.8256 33.0651 39.7206 32.9521 39.7206 32.5221L 39.7206 28.3701L 40.6186 28.3701L 40.6226 27.5731z"/>
<path style="stroke:none; fill-rule:evenodd; fill:#000000" d="M 46.8216 30.8701C 46.8216 29.9521 46.7556 29.4011 46.5836 28.9561C 46.1966 27.9721 45.2826 27.3741 44.1656 27.3741C 42.5016 27.3741 41.4276 28.6671 41.4276 30.6551C 41.4276 32.6431 42.4626 33.8701 44.1386 33.8701C 45.5016 33.8701 46.4466 33.0771 46.6886 31.7451L 45.7356 31.7451C 45.4746 32.5501 44.9426 32.9681 44.1816 32.9681C 43.5796 32.9681 43.0676 32.6901 42.7516 32.1751C 42.5246 31.8271 42.4466 31.4751 42.4346 30.8701L 46.8216 30.8701zM 42.3996 30.1041C 42.4776 28.9911 43.1576 28.2681 44.1186 28.2681C 45.0566 28.2681 45.7826 29.0461 45.7826 30.0341C 45.7826 30.0541 45.7826 30.0771 45.7706 30.1001L 42.3996 30.1041z"/>
<path style="stroke:none; fill-rule:evenodd; fill:#000000" d="M 48.1226 27.5461L 48.1226 33.5691L 49.1226 33.5691L 49.1226 30.4361C 49.1226 29.5731 49.3336 29.0111 49.7826 28.6751C 50.0716 28.4561 50.3526 28.3901 51.0056 28.3781L 51.0056 27.4131C 50.8496 27.3931 50.7706 27.3821 50.6456 27.3821C 50.0366 27.3821 49.5716 27.7491 49.0246 28.6431L 49.0246 27.5541L 48.1226 27.5461z"/>
<path style="stroke:none; fill-rule:evenodd; fill:#000000" d="M 52.8216 27.5731L 51.8216 27.5731L 51.8216 33.5731L 52.8216 33.5731L 52.8216 27.5731zM 52.8216 25.1711L 51.8216 25.1711L 51.8216 26.4051L 52.8216 26.4051L 52.8216 25.1711z"/>
<path style="stroke:none; fill-rule:evenodd; fill:#000000" d="M 56.8566 27.3701C 55.1536 27.3701 54.1226 28.5851 54.1226 30.6201C 54.1226 32.6551 55.1426 33.8701 56.8726 33.8701C 58.5756 33.8701 59.6226 32.6591 59.6226 30.6711C 59.6226 28.5811 58.6146 27.3781 56.8646 27.3781L 56.8566 27.3701zM 56.8726 28.2721C 57.9666 28.2721 58.6226 29.1591 58.6226 30.6551C 58.6226 32.0691 57.9466 32.9681 56.8726 32.9681C 55.7906 32.9681 55.1226 32.0811 55.1226 30.6201C 55.1226 29.1711 55.7866 28.2721 56.8726 28.2721z"/>
<path style="stroke:none; fill-rule:evenodd; fill:#000000" d="M 60.8216 27.5461L 60.8216 33.5691L 61.8216 33.5691L 61.8216 30.4361C 61.8216 29.5731 62.0326 29.0111 62.4816 28.6751C 62.7706 28.4561 63.0526 28.3901 63.7046 28.3781L 63.7046 27.4131C 63.5486 27.3931 63.4706 27.3821 63.3456 27.3821C 62.7356 27.3821 62.2706 27.7491 61.7246 28.6431L 61.7246 27.5541L 60.8216 27.5461z"/>
<path style="stroke:none; fill-rule:evenodd; fill:#000000" d="M 74.7206 27.8001C 74.3846 25.9721 73.3216 25.0771 71.4706 25.0771C 70.3376 25.0771 69.4276 25.4321 68.8026 26.1241C 68.0406 26.9521 67.6266 28.1471 67.6266 29.5071C 67.6266 30.8861 68.0526 32.0731 68.8496 32.8901C 69.4936 33.5581 70.3256 33.8661 71.4236 33.8661C 73.4776 33.8661 74.6346 32.7531 74.8926 30.5151L 73.7866 30.5151C 73.6966 31.1041 73.5836 31.5071 73.4076 31.8501C 73.0636 32.5611 72.3496 32.9641 71.4546 32.9641C 69.7866 32.9641 68.7276 31.6121 68.7276 29.4911C 68.7276 27.3111 69.7396 25.9681 71.3646 25.9681C 72.0406 25.9681 72.6776 26.1791 73.0206 26.5031C 73.3296 26.7961 73.5016 27.1551 73.6306 27.7881L 74.7206 27.8001z"/>
<path style="stroke:none; fill-rule:evenodd; fill:#000000" d="M 78.4586 27.3701C 76.7556 27.3701 75.7246 28.5851 75.7246 30.6201C 75.7246 32.6551 76.7436 33.8701 78.4746 33.8701C 80.1776 33.8701 81.2246 32.6591 81.2246 30.6711C 81.2246 28.5811 80.2166 27.3781 78.4666 27.3781L 78.4586 27.3701zM 78.4706 28.2721C 79.5636 28.2721 80.2206 29.1591 80.2206 30.6551C 80.2206 32.0691 79.5446 32.9681 78.4706 32.9681C 77.3886 32.9681 76.7206 32.0811 76.7206 30.6201C 76.7206 29.1711 77.3846 28.2721 78.4706 28.2721z"/>
<path style="stroke:none; fill-rule:evenodd; fill:#000000" d="M 82.5206 27.5461L 82.5206 33.5691L 83.5206 33.5691L 83.5206 30.4361C 83.5206 29.5731 83.7316 29.0111 84.1816 28.6751C 84.4706 28.4561 84.7516 28.3901 85.4036 28.3781L 85.4036 27.4131C 85.2476 27.3931 85.1696 27.3821 85.0446 27.3821C 84.4346 27.3821 83.9706 27.7491 83.4236 28.6431L 83.4236 27.5541L 82.5206 27.5461z"/>
<path style="stroke:none; fill-rule:evenodd; fill:#000000" d="M 88.4196 27.5731L 87.5206 27.5731L 87.5206 25.9051L 86.5206 25.9051L 86.5206 27.5731L 85.6226 27.5731L 85.6226 28.3701L 86.5206 28.3701L 86.5206 32.9171C 86.5206 33.5221 86.9236 33.8661 87.6536 33.8661C 87.8766 33.8661 88.1026 33.8431 88.4156 33.7841L 88.4156 32.9481C 88.3026 33.0381 88.1656 33.0651 87.9976 33.0651C 87.6226 33.0651 87.5176 32.9521 87.5176 32.5221L 87.5176 28.3701L 88.4156 28.3701L 88.4196 27.5731z"/>
<path style="stroke:none; fill-rule:evenodd; fill:#000000" d="M 94.6226 30.8701C 94.6226 29.9521 94.5566 29.4011 94.3846 28.9561C 93.9976 27.9721 93.0836 27.3741 91.9666 27.3741C 90.3026 27.3741 89.2276 28.6671 89.2276 30.6551C 89.2276 32.6431 90.2636 33.8701 91.9386 33.8701C 93.3026 33.8701 94.2476 33.0771 94.4896 31.7451L 93.5366 31.7451C 93.2746 32.5501 92.7436 32.9681 91.9816 32.9681C 91.3806 32.9681 90.8686 32.6901 90.5526 32.1751C 90.3256 31.8271 90.2476 31.4751 90.2356 30.8701L 94.6226 30.8701zM 90.2006 30.1041C 90.2786 28.9911 90.9586 28.2681 91.9196 28.2681C 92.8566 28.2681 93.5836 29.0461 93.5836 30.0341C 93.5836 30.0541 93.5836 30.0771 93.5716 30.1001L 90.2006 30.1041z"/>
<path style="stroke:none; fill-rule:evenodd; fill:#000000" d="M 98.4746 30.4681L 100.494 27.5731L 99.4156 27.5731L 97.9706 29.7371L 96.5246 27.5731L 95.4346 27.5731L 97.4426 30.5151L 95.3216 33.5691L 96.4116 33.5691L 97.9346 31.2651L 99.4386 33.5691L 100.553 33.5691L 98.4746 30.4681z"/>
<path style="stroke:#000000; stroke-width:0.95664899999999997; fill:none" d="M 235.623 30.1431C 235.623 19.7721 210.982 11.3621 180.588 11.3621C 150.193 11.3621 125.553 19.7721 125.553 30.1431C 125.553 40.5151 150.193 48.9251 180.588 48.9251C 210.982 48.9251 235.623 40.5151 235.623 30.1431"/>
<path style="stroke:none; fill-rule:evenodd; fill:#000000" d="M 145.42 29.7721L 149.412 29.7721L 149.412 28.8741L 145.42 28.8741L 145.42 26.0771L 149.92 26.0771L 149.92 25.1791L 144.322 25.1791L 144.322 33.5771L 145.42 33.5771L 145.42 29.7721z"/>
<path style="stroke:none; fill-rule:evenodd; fill:#000000" d="M 151.123 27.5461L 151.123 33.5691L 152.123 33.5691L 152.123 30.4361C 152.123 29.5731 152.334 29.0111 152.783 28.6751C 153.072 28.4561 153.353 28.3901 154.006 28.3781L 154.006 27.4131C 153.85 27.3931 153.771 27.3821 153.646 27.3821C 153.037 27.3821 152.572 27.7491 152.025 28.6431L 152.025 27.5541L 151.123 27.5461z"/>
<path style="stroke:none; fill-rule:evenodd; fill:#000000" d="M 157.26 27.3701C 155.557 27.3701 154.525 28.5851 154.525 30.6201C 154.525 32.6551 155.545 33.8701 157.275 33.8701C 158.978 33.8701 160.025 32.6591 160.025 30.6711C 160.025 28.5811 159.018 27.3781 157.268 27.3781L 157.26 27.3701zM 157.271 28.2721C 158.365 28.2721 159.021 29.1591 159.021 30.6551C 159.021 32.0691 158.346 32.9681 157.271 32.9681C 156.189 32.9681 155.521 32.0811 155.521 30.6201C 155.521 29.1711 156.185 28.2721 157.271 28.2721z"/>
<path style="stroke:none; fill-rule:evenodd; fill:#000000" d="M 161.322 27.5461L 161.322 33.5691L 162.322 33.5691L 162.322 30.2221C 162.322 28.9831 162.947 28.1711 163.912 28.1711C 164.65 28.1711 165.119 28.6321 165.119 29.3621L 165.119 33.5651L 166.119 33.5651L 166.119 29.0111C 166.119 28.0111 165.377 27.3661 164.217 27.3661C 163.326 27.3661 162.752 27.7101 162.225 28.5501L 162.225 27.5381L 161.322 27.5461z"/>
<path style="stroke:none; fill-rule:evenodd; fill:#000000" d="M 169.822 27.5731L 168.924 27.5731L 168.924 25.9051L 167.924 25.9051L 167.924 27.5731L 167.025 27.5731L 167.025 28.3701L 167.924 28.3701L 167.924 32.9171C 167.924 33.5221 168.326 33.8661 169.057 33.8661C 169.279 33.8661 169.506 33.8431 169.818 33.7841L 169.818 32.9481C 169.705 33.0381 169.568 33.0651 169.4 33.0651C 169.025 33.0651 168.92 32.9521 168.92 32.5221L 168.92 28.3701L 169.818 28.3701L 169.822 27.5731z"/>
<path style="stroke:none; fill-rule:evenodd; fill:#000000" d="M 176.162 33.0111C 176.057 33.0691 176.01 33.0691 175.951 33.0691C 175.611 33.0691 175.424 32.8971 175.424 32.5971L 175.424 29.0301C 175.424 27.9561 174.646 27.3741 173.174 27.3741C 172.307 27.3741 171.588 27.6281 171.185 28.0771C 170.912 28.3861 170.799 28.7331 170.775 29.3351L 171.721 29.3351C 171.799 28.6041 172.225 28.2721 173.107 28.2721C 173.951 28.2721 174.424 28.5931 174.424 29.1711L 174.424 29.4251C 174.424 29.8271 174.189 29.9991 173.447 30.0931C 172.123 30.2651 171.92 30.3111 171.561 30.4601C 170.877 30.7451 170.529 31.2881 170.529 32.0731C 170.529 33.1671 171.283 33.8581 172.494 33.8581C 173.248 33.8581 173.853 33.5851 174.529 32.9401C 174.596 33.5731 174.893 33.8581 175.51 33.8581C 175.701 33.8581 175.85 33.8351 176.158 33.7531L 176.162 33.0111zM 174.42 31.7101C 174.42 32.0381 174.33 32.2411 174.053 32.5151C 173.674 32.8781 173.217 33.0691 172.67 33.0691C 171.947 33.0691 171.521 32.7061 171.521 32.0771C 171.521 31.4291 171.932 31.0971 172.924 30.9441C 173.904 30.8041 174.103 30.7571 174.416 30.6041L 174.42 31.7101z"/>
<path style="stroke:none; fill-rule:evenodd; fill:#000000" d="M 177.221 33.5731L 178.221 33.5731L 178.221 25.1751L 177.221 25.1751L 177.221 33.5731z"/>
<path style="stroke:none; fill-rule:evenodd; fill:#000000" d="M 189.822 27.8001C 189.486 25.9721 188.424 25.0771 186.572 25.0771C 185.439 25.0771 184.529 25.4321 183.904 26.1241C 183.143 26.9521 182.728 28.1471 182.728 29.5071C 182.728 30.8861 183.154 32.0731 183.951 32.8901C 184.596 33.5581 185.428 33.8661 186.525 33.8661C 188.58 33.8661 189.736 32.7531 189.994 30.5151L 188.889 30.5151C 188.799 31.1041 188.685 31.5071 188.51 31.8501C 188.166 32.5611 187.451 32.9641 186.557 32.9641C 184.889 32.9641 183.83 31.6121 183.83 29.4911C 183.83 27.3111 184.842 25.9681 186.467 25.9681C 187.143 25.9681 187.779 26.1791 188.123 26.5031C 188.432 26.7961 188.603 27.1551 188.732 27.7881L 189.822 27.8001z"/>
<path style="stroke:none; fill-rule:evenodd; fill:#000000" d="M 193.658 27.3701C 191.955 27.3701 190.924 28.5851 190.924 30.6201C 190.924 32.6551 191.943 33.8701 193.674 33.8701C 195.377 33.8701 196.424 32.6591 196.424 30.6711C 196.424 28.5811 195.416 27.3781 193.666 27.3781L 193.658 27.3701zM 193.67 28.2721C 194.764 28.2721 195.42 29.1591 195.42 30.6551C 195.42 32.0691 194.744 32.9681 193.67 32.9681C 192.588 32.9681 191.92 32.0811 191.92 30.6201C 191.92 29.1711 192.584 28.2721 193.67 28.2721z"/>
<path style="stroke:none; fill-rule:evenodd; fill:#000000" d="M 197.623 27.5461L 197.623 33.5691L 198.623 33.5691L 198.623 30.4361C 198.623 29.5731 198.834 29.0111 199.283 28.6751C 199.572 28.4561 199.853 28.3901 200.506 28.3781L 200.506 27.4131C 200.35 27.3931 200.271 27.3821 200.146 27.3821C 199.537 27.3821 199.072 27.7491 198.525 28.6431L 198.525 27.5541L 197.623 27.5461z"/>
<path style="stroke:none; fill-rule:evenodd; fill:#000000" d="M 203.623 27.5731L 202.725 27.5731L 202.725 25.9051L 201.725 25.9051L 201.725 27.5731L 200.826 27.5731L 200.826 28.3701L 201.725 28.3701L 201.725 32.9171C 201.725 33.5221 202.127 33.8661 202.857 33.8661C 203.08 33.8661 203.307 33.8431 203.619 33.7841L 203.619 32.9481C 203.506 33.0381 203.369 33.0651 203.201 33.0651C 202.826 33.0651 202.721 32.9521 202.721 32.5221L 202.721 28.3701L 203.619 28.3701L 203.623 27.5731z"/>
<path style="stroke:none; fill-rule:evenodd; fill:#000000" d="M 209.822 30.8701C 209.822 29.9521 209.756 29.4011 209.584 28.9561C 209.197 27.9721 208.283 27.3741 207.166 27.3741C 205.502 27.3741 204.428 28.6671 204.428 30.6551C 204.428 32.6431 205.463 33.8701 207.139 33.8701C 208.502 33.8701 209.447 33.0771 209.689 31.7451L 208.736 31.7451C 208.475 32.5501 207.943 32.9681 207.182 32.9681C 206.58 32.9681 206.068 32.6901 205.752 32.1751C 205.525 31.8271 205.447 31.4751 205.435 30.8701L 209.822 30.8701zM 205.4 30.1041C 205.478 28.9911 206.158 28.2681 207.119 28.2681C 208.057 28.2681 208.783 29.0461 208.783 30.0341C 208.783 30.0541 208.783 30.0771 208.771 30.1001L 205.4 30.1041z"/>
<path style="stroke:none; fill-rule:evenodd; fill:#000000" d="M 213.572 30.4681L 215.592 27.5731L 214.514 27.5731L 213.068 29.7371L 211.623 27.5731L 210.533 27.5731L 212.541 30.5151L 210.42 33.5691L 211.51 33.5691L 213.033 31.2651L 214.537 33.5691L 215.65 33.5691L 213.572 30.4681z"/>
<path style="stroke:#000000; stroke-width:0.95664899999999997; fill:none" d="M 165.728 97.4561C 165.728 89.0071 154.596 82.1511 140.857 82.1511C 127.123 82.1511 115.986 89.0031 115.986 97.4561C 115.986 105.905 127.119 112.761 140.857 112.761C 154.592 112.761 165.728 105.909 165.728 97.4561"/>
<path style="stroke:#000000; stroke-width:0.95664899999999997; fill:none" d="M 115.982 97.4561C 115.982 89.0071 104.85 82.1511 91.1106 82.1511C 77.3766 82.1511 66.2396 89.0031 66.2396 97.4561C 66.2396 105.905 77.3726 112.761 91.1106 112.761C 104.846 112.761 115.982 105.909 115.982 97.4561"/>
<path style="stroke:#000000; stroke-width:0.95664899999999997; fill:none" d="M 171.467 97.4561C 171.467 84.7761 146.627 74.4991 115.982 74.4991C 85.3416 74.4991 60.4976 84.7761 60.4976 97.4561C 60.4976 110.136 85.3376 120.413 115.982 120.413C 146.623 120.413 171.467 110.136 171.467 97.4561"/>
<path style="stroke:#000000; stroke-width:0.95664899999999997; fill:none" d="M 198.256 154.854C 198.256 144.292 183.697 135.722 165.732 135.722C 147.771 135.722 133.209 144.284 133.209 154.854C 133.209 165.417 147.771 173.987 165.732 173.987C 183.693 173.987 198.256 165.425 198.256 154.854"/>
<path style="stroke:none; fill-rule:evenodd; fill:#000000" d="M 162.92 153.87L 159.322 153.87L 159.322 154.768L 161.92 154.768L 161.92 155.003C 161.92 156.546 160.822 157.663 159.303 157.663C 158.459 157.663 157.693 157.35 157.201 156.804C 156.654 156.198 156.322 155.186 156.322 154.136C 156.322 152.05 157.486 150.671 159.248 150.671C 160.514 150.671 161.428 151.339 161.658 152.436L 162.744 152.436C 162.447 150.745 161.158 149.768 159.24 149.768C 158.221 149.768 157.393 150.034 156.736 150.573C 155.775 151.378 155.221 152.679 155.221 154.186C 155.221 156.765 156.791 158.561 159.057 158.561C 160.193 158.561 161.1 158.136 161.916 157.225L 162.193 158.339L 162.912 158.339L 162.92 153.87z"/>
<path style="stroke:none; fill-rule:evenodd; fill:#000000" d="M 165.721 154.671L 168.361 154.671C 169.018 154.671 169.537 154.479 169.99 154.077C 170.498 153.624 170.717 153.085 170.717 152.319C 170.717 150.757 169.779 149.874 168.107 149.874L 164.619 149.874L 164.619 158.272L 165.717 158.272L 165.721 154.671zM 165.721 153.772L 165.721 150.772L 167.971 150.772C 169.002 150.772 169.619 151.335 169.619 152.272C 169.619 153.206 169.006 153.772 167.971 153.772L 165.721 153.772z"/>
<path style="stroke:none; fill-rule:evenodd; fill:#000000" d="M 177.221 155.573C 177.221 154.655 177.154 154.104 176.982 153.659C 176.596 152.675 175.682 152.077 174.564 152.077C 172.9 152.077 171.826 153.37 171.826 155.358C 171.826 157.347 172.861 158.573 174.537 158.573C 175.9 158.573 176.846 157.78 177.088 156.448L 176.135 156.448C 175.873 157.253 175.342 157.671 174.58 157.671C 173.978 157.671 173.467 157.393 173.15 156.878C 172.924 156.53 172.846 156.179 172.834 155.573L 177.221 155.573zM 172.803 154.804C 172.881 153.69 173.561 152.968 174.521 152.968C 175.459 152.968 176.185 153.745 176.185 154.733C 176.185 154.753 176.185 154.776 176.174 154.8L 172.803 154.804z"/>
<path style="stroke:#000000; stroke-width:0.95664899999999997; fill:none" d="M 316.877 99.3701C 316.877 88.8081 302.318 80.2371 284.353 80.2371C 266.393 80.2371 251.83 88.8001 251.83 99.3701C 251.83 109.932 266.393 118.503 284.353 118.503C 302.314 118.503 316.877 109.94 316.877 99.3701"/>
<path style="stroke:#000000; stroke-width:0.95664899999999997; fill:none" d="M 248.002 99.3701C 248.002 88.8081 233.443 80.2371 215.478 80.2371C 197.518 80.2371 182.955 88.8001 182.955 99.3701C 182.955 109.932 197.518 118.503 215.478 118.503C 233.439 118.503 248.002 109.94 248.002 99.3701"/>
<path style="stroke:none; fill-rule:evenodd; fill:#000000" d="M 211.322 96.8581C 211.314 95.2221 210.193 94.2721 208.279 94.2721C 206.455 94.2721 205.326 95.2221 205.326 96.7491C 205.326 97.7761 205.857 98.4291 206.947 98.7181L 209.002 99.2721C 210.045 99.5501 210.521 99.9751 210.521 100.636C 210.521 101.085 210.283 101.55 209.935 101.804C 209.607 102.034 209.088 102.159 208.42 102.159C 207.525 102.159 206.916 101.932 206.521 101.432C 206.217 101.054 206.08 100.636 206.131 100.097L 205.131 100.097C 205.139 100.874 205.287 101.386 205.615 101.85C 206.182 102.64 207.135 103.058 208.393 103.058C 209.377 103.058 210.182 102.831 210.717 102.413C 211.271 101.968 211.623 101.218 211.623 100.491C 211.623 99.4561 210.99 98.6981 209.865 98.3861L 207.791 97.8231C 206.795 97.5501 206.432 97.2251 206.432 96.5811C 206.432 95.7291 207.166 95.1631 208.271 95.1631C 209.58 95.1631 210.314 95.7651 210.326 96.8501L 211.322 96.8581z"/>
<path style="stroke:none; fill-rule:evenodd; fill:#000000" d="M 216.221 95.2721L 218.924 95.2721L 218.924 94.3741L 212.361 94.3741L 212.361 95.2721L 215.119 95.2721L 215.119 102.772L 216.217 102.772L 216.221 95.2721z"/>
<path style="stroke:none; fill-rule:evenodd; fill:#000000" d="M 226.521 94.3701L 225.521 94.3701L 225.521 101.241L 221.174 94.3701L 220.025 94.3701L 220.025 102.768L 221.025 102.768L 221.025 95.9871L 225.326 102.768L 226.521 102.768L 226.521 94.3701z"/>
<path style="stroke:none; fill-rule:evenodd; fill:#ff0000" d="M 150.424 196.948C 150.424 194.839 148.713 193.124 146.6 193.124C 144.49 193.124 142.775 194.835 142.775 196.948C 142.775 199.058 144.486 200.772 146.6 200.772C 148.709 200.772 150.424 199.061 150.424 196.948"/>
<path style="stroke:#ff0000; stroke-width:1.9133; fill:none" d="M 150.424 196.948C 150.424 194.839 148.713 193.124 146.6 193.124C 144.49 193.124 142.775 194.835 142.775 196.948C 142.775 199.058 144.486 200.772 146.6 200.772C 148.709 200.772 150.424 199.061 150.424 196.948"/>
<path style="stroke:none; fill-rule:evenodd; fill:#ff0000" d="M 177.209 189.296C 177.209 187.186 175.498 185.472 173.385 185.472C 171.275 185.472 169.561 187.183 169.561 189.296C 169.561 191.405 171.271 193.12 173.385 193.12C 175.494 193.12 177.209 191.409 177.209 189.296"/>
<path style="stroke:#ff0000; stroke-width:1.9133; fill:none" d="M 177.209 189.296C 177.209 187.186 175.498 185.472 173.385 185.472C 171.275 185.472 169.561 187.183 169.561 189.296C 169.561 191.405 171.271 193.12 173.385 193.12C 175.494 193.12 177.209 191.409 177.209 189.296"/>
<path style="stroke:none; fill-rule:evenodd; fill:#ff0000" d="M 159.986 133.808C 159.986 131.698 158.275 129.983 156.162 129.983C 154.053 129.983 152.338 131.694 152.338 133.808C 152.338 135.917 154.049 137.632 156.162 137.632C 158.271 137.632 159.986 135.921 159.986 133.808"/>
<path style="stroke:#ff0000; stroke-width:1.9133; fill:none" d="M 159.986 133.808C 159.986 131.698 158.275 129.983 156.162 129.983C 154.053 129.983 152.338 131.694 152.338 133.808C 152.338 135.917 154.049 137.632 156.162 137.632C 158.271 137.632 159.986 135.921 159.986 133.808"/>
<path style="stroke:#ff0000; stroke-dasharray:6,3; stroke-width:1.9133; fill:none" d="M 198.256 196.948L 284.353 118.507"/>
<path style="stroke:none; fill-rule:evenodd; fill:#ff0000" d="M 284.353 120.417C 284.353 118.308 282.643 116.593 280.529 116.593C 278.42 116.593 276.705 118.304 276.705 120.417C 276.705 122.526 278.416 124.241 280.529 124.241C 282.639 124.241 284.353 122.53 284.353 120.417"/>
<path style="stroke:#ff0000; stroke-width:1.9133; fill:none" d="M 284.353 120.417C 284.353 118.308 282.643 116.593 280.529 116.593C 278.42 116.593 276.705 118.304 276.705 120.417C 276.705 122.526 278.416 124.241 280.529 124.241C 282.639 124.241 284.353 122.53 284.353 120.417"/>
<path style="stroke:#ff0000; stroke-dasharray:6,3; stroke-width:1.9133; fill:none" d="M 165.728 173.987L 173.381 189.292"/>
<path style="stroke:#ff0000; stroke-dasharray:6,3; stroke-width:1.9133; fill:none" d="M 142.768 112.761L 156.158 133.804"/>
<path style="stroke:#ff0000; stroke-dasharray:6,3; stroke-width:1.9133; fill:none" d="M 175.295 135.722L 192.514 112.765"/>
<path style="stroke:none; fill-rule:evenodd; fill:#ff0000" d="M 194.428 114.675C 194.428 112.565 192.717 110.85 190.603 110.85C 188.494 110.85 186.779 112.561 186.779 114.675C 186.779 116.784 188.49 118.499 190.603 118.499C 192.713 118.499 194.428 116.788 194.428 114.675"/>
<path style="stroke:#ff0000; stroke-width:1.9133; fill:none" d="M 194.428 114.675C 194.428 112.565 192.717 110.85 190.603 110.85C 188.494 110.85 186.779 112.561 186.779 114.675C 186.779 116.784 188.49 118.499 190.603 118.499C 192.713 118.499 194.428 116.788 194.428 114.675"/>
<path style="stroke:none; fill-rule:evenodd; fill:#ff0000" d="M 126.221 108.671L 128.357 108.671C 129.756 108.671 130.615 107.612 130.615 105.87C 130.615 104.136 129.764 103.073 128.357 103.073L 126.221 103.073L 126.221 108.671zM 126.92 108.073L 126.92 103.675L 128.232 103.675C 129.334 103.675 129.916 104.429 129.916 105.878C 129.916 107.308 129.338 108.073 128.232 108.073L 126.92 108.073z"/>
<path style="stroke:none; fill-rule:evenodd; fill:#ff0000" d="M 134.982 108.073L 132.139 108.073C 132.205 107.628 132.451 107.343 133.111 106.948L 133.873 106.534C 134.627 106.12 135.018 105.558 135.018 104.886C 135.018 104.432 134.838 104.007 134.514 103.714C 134.197 103.421 133.799 103.284 133.287 103.284C 132.603 103.284 132.092 103.522 131.795 103.975C 131.607 104.261 131.521 104.593 131.506 105.136L 132.174 105.136C 132.193 104.78 132.24 104.565 132.33 104.393C 132.502 104.077 132.853 103.882 133.256 103.882C 133.861 103.882 134.318 104.315 134.318 104.89C 134.318 105.311 134.068 105.679 133.592 105.952L 132.896 106.347C 131.775 106.983 131.447 107.491 131.389 108.675L 134.986 108.675L 134.982 108.073z"/>
<path style="stroke:none; fill-rule:evenodd; fill:#ff0000" d="M 123.221 116.272L 129.018 116.272L 129.018 115.475L 123.221 115.475L 123.221 116.272z"/>
<path style="stroke:#0000ff; stroke-width:1.9133; fill:none" d="M 215.475 43.8821L 269.045 82.1471"/>
<path style="stroke:#0000ff; stroke-width:1.9133; fill:none" d="M 220.592 49.8901L 215.478 43.8861L 222.814 46.7761"/>
<path style="stroke:#0000ff; stroke-width:1.9133; fill:none" d="M 263.932 76.1431L 269.045 82.1471L 261.709 79.2571"/>
<path style="stroke:#0000ff; stroke-width:1.9133; fill:none" d="M 198.256 47.7101L 215.475 80.2331"/>
<path style="stroke:#0000ff; stroke-width:1.9133; fill:none" d="M 213.584 72.5771L 215.471 80.2331L 210.201 74.3661"/>
<path style="stroke:#0000ff; stroke-width:1.9133; fill:none" d="M 228.865 116.589L 188.689 195.03"/>
<path style="stroke:#0000ff; stroke-width:1.9133; fill:none" d="M 193.881 189.093L 188.693 195.03L 190.478 187.351"/>
<path style="stroke:#0000ff; stroke-width:1.9133; fill:none" d="M 207.822 118.503L 188.689 141.46"/>
<path style="stroke:#0000ff; stroke-width:1.9133; fill:none" d="M 195.057 136.808L 188.689 141.46L 192.119 134.358"/>
<path style="stroke:none; fill-rule:evenodd; fill:#0000ff" d="M 76.5206 108.671L 78.6576 108.671C 80.0566 108.671 80.9156 107.612 80.9156 105.87C 80.9156 104.136 80.0636 103.073 78.6576 103.073L 76.5206 103.073L 76.5206 108.671zM 77.2206 108.073L 77.2206 103.675L 78.5326 103.675C 79.6346 103.675 80.2166 104.429 80.2166 105.878C 80.2166 107.308 79.6386 108.073 78.5326 108.073L 77.2206 108.073z"/>
<path style="stroke:none; fill-rule:evenodd; fill:#0000ff" d="M 83.3216 104.827L 83.3216 108.671L 84.0206 108.671L 84.0206 103.272L 83.5676 103.272C 83.3256 104.1 83.1696 104.214 82.1026 104.343L 82.1026 104.819L 83.3216 104.827z"/>
<path style="stroke:#0000ff; stroke-width:1.9133; fill:none" d="M 97.8066 17.0971C 97.8066 17.0971 97.8066 17.0971 100.197 15.6631C 102.588 14.2291 107.369 11.3581 112.314 10.4011C 117.256 9.44809 122.357 10.4011 126.502 12.3111C 130.646 14.2221 133.834 17.0931 135.428 18.5261C 137.021 19.9601 137.021 19.9601 137.021 19.9601"/>
<path style="stroke:#0000ff; stroke-width:1.9133; fill:none" d="M 105.353 14.8001L 97.8066 17.0971L 103.381 11.5221"/>
<path style="stroke:#0000ff; stroke-width:1.9133; fill:none" d="M 132.619 13.4251L 137.025 19.9641L 130.061 16.2681"/>
<path style="stroke:#0000ff; stroke-width:1.9133; fill:none" d="M 87.2826 45.7961L 114.068 74.4951"/>
<path style="stroke:#0000ff; stroke-width:1.9133; fill:none" d="M 110.248 67.5971L 114.068 74.4951L 107.451 70.2101"/>
<path style="stroke:#0000ff; stroke-width:1.9133; fill:none" d="M 158.076 47.7101L 117.9 74.4951"/>
<path style="stroke:#0000ff; stroke-width:1.9133; fill:none" d="M 125.326 71.8431L 117.9 74.4951L 123.205 68.6591"/>
<path style="stroke:none; fill-rule:evenodd; fill:#ff0000" d="M 124.564 111.37L 116.838 113.854L 118.627 106.175"/>
<path style="stroke:#ff0000; stroke-width:1.9133; fill:none" d="M 124.564 111.37L 116.838 113.854L 118.627 106.175L 124.564 111.37z"/>
<path style="stroke:#0000ff; stroke-width:1.9133; fill:none" d="M 257.568 87.8901C 257.568 87.8901 257.568 87.8901 255.018 85.3391C 252.467 82.7881 247.365 77.6861 238.119 74.4991C 228.873 71.3111 215.478 70.0381 203.045 72.9051C 190.611 75.7721 179.131 82.7881 173.393 86.2961C 167.654 89.8041 167.654 89.8041 167.654 89.8041"/>
<path style="stroke:#0000ff; stroke-width:1.9133; fill:none" d="M 175.17 87.4441L 167.643 89.8001L 173.174 84.1791"/>
<path style="stroke:none; fill-rule:evenodd; fill:#000000" d="M 151.322 59.9721L 150.623 59.9721L 150.623 62.0651C 150.361 61.6791 149.939 61.4721 149.416 61.4721C 148.396 61.4721 147.728 62.3041 147.728 63.5811C 147.728 64.9321 148.389 65.7681 149.459 65.7681C 150.006 65.7681 150.385 65.5581 150.725 65.0421L 150.725 65.5691L 151.322 65.5691L 151.322 59.9721zM 149.541 62.0731C 150.201 62.0731 150.619 62.6821 150.619 63.6361C 150.619 64.5581 150.193 65.1671 149.545 65.1671C 148.869 65.1671 148.42 64.5501 148.42 63.6201C 148.42 62.6901 148.865 62.0731 149.537 62.0731L 149.541 62.0731z"/>
<path style="stroke:none; fill-rule:evenodd; fill:#000000" d="M 153.912 61.4721C 152.799 61.4721 152.123 62.2721 152.123 63.6201C 152.123 64.9641 152.791 65.7681 153.92 65.7681C 155.033 65.7681 155.717 64.9681 155.717 63.6511C 155.717 62.2681 155.057 61.4721 153.912 61.4721zM 153.92 62.0731C 154.607 62.0731 155.018 62.6591 155.018 63.6431C 155.018 64.5771 154.596 65.1671 153.92 65.1671C 153.24 65.1671 152.822 64.5851 152.822 63.6201C 152.822 62.6671 153.24 62.0731 153.92 62.0731z"/>
<path style="stroke:none; fill-rule:evenodd; fill:#000000" d="M 156.521 61.5851L 156.521 65.5691L 157.221 65.5691L 157.221 63.5181C 157.221 62.9561 157.361 62.5851 157.658 62.3661C 157.85 62.2251 158.037 62.1791 158.471 62.1711L 158.471 61.4951C 158.365 61.4791 158.311 61.4721 158.225 61.4721C 157.807 61.4721 157.49 61.7141 157.119 62.3081L 157.119 61.5851L 156.521 61.5851z"/>
<path style="stroke:none; fill-rule:evenodd; fill:#000000" d="M 161.975 62.6791C 161.967 61.9091 161.439 61.4751 160.494 61.4751C 159.545 61.4751 158.928 61.9561 158.928 62.6941C 158.928 63.3191 159.248 63.6161 160.201 63.8431L 160.799 63.9871C 161.244 64.0931 161.42 64.2531 161.42 64.5421C 161.42 64.9131 161.053 65.1671 160.506 65.1671C 160.17 65.1671 159.885 65.0691 159.725 64.8971C 159.627 64.7841 159.584 64.6671 159.545 64.3781L 158.885 64.3781C 158.912 65.3191 159.432 65.7681 160.475 65.7681C 161.478 65.7681 162.119 65.2761 162.119 64.5031C 162.119 63.9091 161.783 63.5811 160.982 63.3901L 160.369 63.2451C 159.85 63.1241 159.627 62.9561 159.627 62.6751C 159.627 62.3111 159.959 62.0731 160.482 62.0731C 160.998 62.0731 161.275 62.2801 161.291 62.6791L 161.975 62.6791z"/>
<path style="stroke:none; fill-rule:evenodd; fill:#000000" d="M 166.518 65.1981C 166.447 65.2721 166.416 65.2721 166.377 65.2721C 166.15 65.2721 166.025 65.1591 166.025 64.9561L 166.025 62.5771C 166.025 61.8621 165.51 61.4751 164.525 61.4751C 163.947 61.4751 163.467 61.6401 163.201 61.9321C 163.021 62.1321 162.943 62.3581 162.928 62.7491L 163.549 62.7491C 163.6 62.2841 163.881 62.0731 164.459 62.0731C 165.014 62.0731 165.326 62.2841 165.326 62.6671L 165.326 62.8351C 165.326 63.1001 165.17 63.2141 164.678 63.2761C 163.795 63.3901 163.662 63.4211 163.42 63.5181C 162.967 63.7061 162.732 64.0651 162.732 64.5851C 162.732 65.3081 163.24 65.7651 164.053 65.7651C 164.561 65.7651 164.967 65.5851 165.42 65.1551C 165.463 65.5771 165.662 65.7651 166.08 65.7651C 166.209 65.7651 166.311 65.7491 166.518 65.6941L 166.518 65.1981zM 165.322 64.3041C 165.322 64.5151 165.264 64.6431 165.084 64.8151C 164.838 65.0501 164.537 65.1711 164.182 65.1711C 163.709 65.1711 163.432 64.9361 163.432 64.5381C 163.432 64.1241 163.701 63.9131 164.35 63.8111C 164.99 63.7221 165.123 63.6941 165.326 63.5931L 165.322 64.3041z"/>
<path style="stroke:none; fill-rule:evenodd; fill:#000000" d="M 167.221 65.5731L 167.92 65.5731L 167.92 59.9751L 167.221 59.9751L 167.221 65.5731z"/>
<path style="stroke:none; fill-rule:evenodd; fill:#000000" d="M 150.873 70.3781C 150.865 69.6081 150.338 69.1751 149.393 69.1751C 148.443 69.1751 147.826 69.6551 147.826 70.3931C 147.826 71.0181 148.146 71.3151 149.1 71.5421L 149.697 71.6861C 150.143 71.7921 150.318 71.9521 150.318 72.2411C 150.318 72.6121 149.951 72.8661 149.404 72.8661C 149.068 72.8661 148.783 72.7681 148.623 72.5971C 148.525 72.4831 148.482 72.3661 148.443 72.0771L 147.783 72.0771C 147.811 73.0181 148.33 73.4681 149.373 73.4681C 150.377 73.4681 151.018 72.9751 151.018 72.2021C 151.018 71.6081 150.682 71.2801 149.881 71.0891L 149.268 70.9441C 148.748 70.8231 148.525 70.6551 148.525 70.3741C 148.525 70.0111 148.857 69.7721 149.381 69.7721C 149.896 69.7721 150.174 69.9791 150.189 70.3781L 150.873 70.3781z"/>
<path style="stroke:none; fill-rule:evenodd; fill:#000000" d="M 153.322 69.2721L 152.725 69.2721L 152.725 68.1631L 152.025 68.1631L 152.025 69.2721L 151.525 69.2721L 151.525 69.7721L 152.025 69.7721L 152.025 72.8311C 152.025 73.2371 152.299 73.4721 152.799 73.4721C 152.951 73.4721 153.103 73.4561 153.318 73.4171L 153.318 72.8621C 153.244 72.8701 153.15 72.8741 153.041 72.8741C 152.791 72.8741 152.721 72.8001 152.721 72.5181L 152.721 69.7801L 153.318 69.7801L 153.322 69.2721z"/>
<path style="stroke:none; fill-rule:evenodd; fill:#000000" d="M 154.021 69.2841L 154.021 73.2681L 154.721 73.2681L 154.721 71.2181C 154.721 70.6551 154.861 70.2841 155.158 70.0651C 155.35 69.9251 155.537 69.8781 155.971 69.8701L 155.971 69.1941C 155.865 69.1791 155.811 69.1711 155.725 69.1711C 155.307 69.1711 154.99 69.4131 154.619 70.0071L 154.619 69.2841L 154.021 69.2841z"/>
<path style="stroke:none; fill-rule:evenodd; fill:#000000" d="M 157.221 69.2721L 156.521 69.2721L 156.521 73.2721L 157.221 73.2721L 157.221 69.2721zM 157.221 67.6711L 156.521 67.6711L 156.521 68.4951L 157.221 68.4951L 157.221 67.6711z"/>
<path style="stroke:none; fill-rule:evenodd; fill:#000000" d="M 161.814 72.8971C 161.744 72.9721 161.713 72.9721 161.674 72.9721C 161.447 72.9721 161.322 72.8581 161.322 72.6551L 161.322 70.2761C 161.322 69.5611 160.807 69.1751 159.822 69.1751C 159.244 69.1751 158.764 69.3391 158.498 69.6321C 158.318 69.8311 158.24 70.0581 158.225 70.4481L 158.846 70.4481C 158.896 69.9831 159.178 69.7721 159.756 69.7721C 160.311 69.7721 160.623 69.9831 160.623 70.3661L 160.623 70.5341C 160.623 70.8001 160.467 70.9131 159.975 70.9751C 159.092 71.0891 158.959 71.1201 158.717 71.2181C 158.264 71.4051 158.029 71.7651 158.029 72.2841C 158.029 73.0071 158.537 73.4641 159.35 73.4641C 159.857 73.4641 160.264 73.2841 160.717 72.8541C 160.76 73.2761 160.959 73.4641 161.377 73.4641C 161.506 73.4641 161.607 73.4481 161.814 73.3931L 161.814 72.8971zM 160.623 72.0031C 160.623 72.2141 160.564 72.3431 160.385 72.5151C 160.139 72.7491 159.838 72.8701 159.482 72.8701C 159.01 72.8701 158.732 72.6361 158.732 72.2371C 158.732 71.8231 159.002 71.6121 159.65 71.5111C 160.291 71.4211 160.424 71.3931 160.627 71.2921L 160.623 72.0031z"/>
<path style="stroke:none; fill-rule:evenodd; fill:#000000" d="M 163.92 69.2721L 163.322 69.2721L 163.322 68.1631L 162.623 68.1631L 162.623 69.2721L 162.123 69.2721L 162.123 69.7721L 162.623 69.7721L 162.623 72.8311C 162.623 73.2371 162.896 73.4721 163.396 73.4721C 163.549 73.4721 163.701 73.4561 163.916 73.4171L 163.916 72.8621C 163.842 72.8701 163.748 72.8741 163.639 72.8741C 163.389 72.8741 163.318 72.8001 163.318 72.5181L 163.318 69.7801L 163.916 69.7801L 163.92 69.2721z"/>
<path style="stroke:none; fill-rule:evenodd; fill:#000000" d="M 167.822 73.2961L 167.822 69.2761L 167.123 69.2761L 167.123 71.5301C 167.123 72.3391 166.725 72.8741 166.1 72.8741C 165.627 72.8741 165.326 72.5731 165.326 72.0931L 165.326 69.2761L 164.627 69.2761L 164.627 72.3781C 164.627 73.0461 165.119 73.4751 165.893 73.4751C 166.475 73.4751 166.85 73.2721 167.221 72.7411L 167.221 73.3001L 167.822 73.2961z"/>
<path style="stroke:none; fill-rule:evenodd; fill:#000000" d="M 168.92 69.2841L 168.92 73.2681L 169.619 73.2681L 169.619 70.8001C 169.619 70.2291 170.018 69.7721 170.514 69.7721C 170.963 69.7721 171.217 70.0581 171.217 70.5581L 171.217 73.2681L 171.916 73.2681L 171.916 70.8001C 171.916 70.2291 172.338 69.7721 172.865 69.7721C 173.334 69.7721 173.615 70.0651 173.615 70.5581L 173.615 73.2681L 174.314 73.2681L 174.314 70.2801C 174.314 69.5651 173.893 69.1711 173.131 69.1711C 172.588 69.1711 172.26 69.3231 171.877 69.7571C 171.639 69.3471 171.311 69.1711 170.779 69.1711C 170.236 69.1711 169.877 69.3661 169.525 69.8471L 169.525 69.2841L 168.92 69.2841z"/>
<path style="stroke:#ff0000; stroke-dasharray:6,3; stroke-width:1.9133; fill:none" d="M 102.592 110.85L 148.51 198.862"/>
<path style="stroke:none; fill-rule:evenodd; fill:#0000ff" d="M 84.3496 119.272L 82.0206 119.272L 82.0206 116.932L 81.2246 116.932L 81.2246 119.272L 78.7986 119.272L 78.7986 120.069L 81.2246 120.069L 81.2246 122.483L 82.0206 122.483L 82.0206 120.069L 84.3496 120.069L 84.3496 119.272z"/>
<path style="stroke:none; fill-rule:evenodd; fill:#0000ff" d="M 84.6226 113.444L 92.7356 113.202L 88.8846 120.085"/>
<path style="stroke:#0000ff; stroke-width:1.9133; fill:none" d="M 84.6226 113.444L 92.7356 113.202L 88.8846 120.085L 84.6226 113.444z"/>
<path style="stroke:none; fill-rule:evenodd; fill:#ffffff" d="M 219.299 200.772L 311.135 200.772L 311.135 154.854L 219.299 154.854L 219.299 200.772z"/>
<path style="stroke:#000000; stroke-width:0.95664899999999997; fill:none" d="M 219.299 200.772L 311.135 200.772L 311.135 154.854L 219.299 154.854L 219.299 200.772z"/>
<path style="stroke:#ff0000; stroke-dasharray:6,3; stroke-width:1.9133; fill:none" d="M 223.127 177.815L 244.17 177.815"/>
<path style="stroke:none; fill-rule:evenodd; fill:#0000ff" d="M 255.822 165.171C 255.822 164.253 255.756 163.702 255.584 163.257C 255.197 162.272 254.283 161.675 253.166 161.675C 251.502 161.675 250.428 162.968 250.428 164.956C 250.428 166.944 251.463 168.171 253.139 168.171C 254.502 168.171 255.447 167.378 255.689 166.046L 254.736 166.046C 254.475 166.85 253.943 167.268 253.182 167.268C 252.58 167.268 252.068 166.991 251.752 166.475C 251.525 166.128 251.447 165.776 251.435 165.171L 255.822 165.171zM 251.4 164.405C 251.478 163.292 252.158 162.569 253.119 162.569C 254.057 162.569 254.783 163.347 254.783 164.335C 254.783 164.354 254.783 164.378 254.771 164.401L 251.4 164.405z"/>
<path style="stroke:none; fill-rule:evenodd; fill:#0000ff" d="M 259.674 164.768L 261.693 161.874L 260.615 161.874L 259.17 164.038L 257.725 161.874L 256.635 161.874L 258.643 164.815L 256.521 167.87L 257.611 167.87L 259.135 165.565L 260.639 167.87L 261.752 167.87L 259.674 164.768z"/>
<path style="stroke:none; fill-rule:evenodd; fill:#0000ff" d="M 267.428 163.878C 267.385 163.292 267.26 162.909 267.029 162.573C 266.623 162.011 265.904 161.675 265.076 161.675C 263.475 161.675 262.428 162.968 262.428 164.979C 262.428 166.932 263.451 168.171 265.064 168.171C 266.486 168.171 267.385 167.3 267.498 165.808L 266.545 165.808C 266.389 166.784 265.9 167.272 265.096 167.272C 264.053 167.272 263.428 166.409 263.428 164.983C 263.428 163.475 264.037 162.577 265.072 162.577C 265.865 162.577 266.365 163.046 266.478 163.882L 267.428 163.878z"/>
<path style="stroke:none; fill-rule:evenodd; fill:#0000ff" d="M 269.521 161.87L 268.521 161.87L 268.521 167.87L 269.521 167.87L 269.521 161.87zM 269.521 159.472L 268.521 159.472L 268.521 160.706L 269.521 160.706L 269.521 159.472z"/>
<path style="stroke:none; fill-rule:evenodd; fill:#0000ff" d="M 273.221 161.87L 272.322 161.87L 272.322 160.202L 271.322 160.202L 271.322 161.87L 270.424 161.87L 270.424 162.667L 271.322 162.667L 271.322 167.214C 271.322 167.819 271.725 168.163 272.455 168.163C 272.678 168.163 272.904 168.14 273.217 168.081L 273.217 167.245C 273.103 167.335 272.967 167.362 272.799 167.362C 272.424 167.362 272.318 167.249 272.318 166.819L 272.318 162.667L 273.217 162.667L 273.221 161.87z"/>
<path style="stroke:none; fill-rule:evenodd; fill:#0000ff" d="M 279.662 167.308C 279.557 167.366 279.51 167.366 279.451 167.366C 279.111 167.366 278.924 167.194 278.924 166.893L 278.924 163.327C 278.924 162.253 278.146 161.671 276.674 161.671C 275.807 161.671 275.088 161.925 274.685 162.374C 274.412 162.682 274.299 163.03 274.275 163.632L 275.221 163.632C 275.299 162.901 275.725 162.569 276.607 162.569C 277.451 162.569 277.924 162.89 277.924 163.468L 277.924 163.722C 277.924 164.124 277.689 164.296 276.947 164.39C 275.623 164.561 275.42 164.608 275.061 164.757C 274.377 165.042 274.029 165.585 274.029 166.37C 274.029 167.464 274.783 168.155 275.994 168.155C 276.748 168.155 277.353 167.882 278.029 167.237C 278.096 167.87 278.393 168.155 279.01 168.155C 279.201 168.155 279.35 168.132 279.658 168.05L 279.662 167.308zM 277.92 166.011C 277.92 166.339 277.83 166.542 277.553 166.815C 277.174 167.179 276.717 167.37 276.17 167.37C 275.447 167.37 275.021 167.007 275.021 166.378C 275.021 165.729 275.432 165.397 276.424 165.245C 277.404 165.104 277.603 165.058 277.916 164.905L 277.92 166.011z"/>
<path style="stroke:none; fill-rule:evenodd; fill:#0000ff" d="M 282.822 161.87L 281.924 161.87L 281.924 160.202L 280.924 160.202L 280.924 161.87L 280.025 161.87L 280.025 162.667L 280.924 162.667L 280.924 167.214C 280.924 167.819 281.326 168.163 282.057 168.163C 282.279 168.163 282.506 168.14 282.818 168.081L 282.818 167.245C 282.705 167.335 282.568 167.362 282.4 167.362C 282.025 167.362 281.92 167.249 281.92 166.819L 281.92 162.667L 282.818 162.667L 282.822 161.87z"/>
<path style="stroke:none; fill-rule:evenodd; fill:#0000ff" d="M 286.26 161.671C 284.557 161.671 283.525 162.886 283.525 164.921C 283.525 166.956 284.545 168.171 286.275 168.171C 287.978 168.171 289.025 166.96 289.025 164.972C 289.025 162.882 288.018 161.679 286.268 161.679L 286.26 161.671zM 286.271 162.573C 287.365 162.573 288.021 163.46 288.021 164.956C 288.021 166.37 287.346 167.268 286.271 167.268C 285.189 167.268 284.521 166.382 284.521 164.921C 284.521 163.472 285.185 162.573 286.271 162.573z"/>
<path style="stroke:none; fill-rule:evenodd; fill:#0000ff" d="M 290.322 161.847L 290.322 167.87L 291.322 167.87L 291.322 164.737C 291.322 163.874 291.533 163.311 291.982 162.975C 292.271 162.757 292.553 162.69 293.205 162.679L 293.205 161.714C 293.049 161.694 292.971 161.682 292.846 161.682C 292.236 161.682 291.771 162.05 291.225 162.944L 291.225 161.854L 290.322 161.847z"/>
<path style="stroke:none; fill-rule:evenodd; fill:#0000ff" d="M 297.775 161.87L 296.111 166.538L 294.576 161.87L 293.557 161.87L 295.588 167.925L 295.225 168.878C 295.076 169.304 294.861 169.464 294.459 169.464C 294.322 169.464 294.162 169.429 293.955 169.358L 293.955 170.214C 294.146 170.315 294.342 170.362 294.596 170.362C 294.904 170.362 295.236 170.261 295.49 170.077C 295.787 169.862 295.959 169.608 296.143 169.128L 298.814 161.866L 297.775 161.87z"/>
<path style="stroke:none; fill-rule:evenodd; fill:#ff0000" d="M 246.088 177.815C 246.088 175.706 244.377 173.991 242.264 173.991C 240.154 173.991 238.439 175.702 238.439 177.815C 238.439 179.925 240.15 181.64 242.264 181.64C 244.373 181.64 246.088 179.929 246.088 177.815"/>
<path style="stroke:#ff0000; stroke-width:1.9133; fill:none" d="M 246.088 177.815C 246.088 175.706 244.377 173.991 242.264 173.991C 240.154 173.991 238.439 175.702 238.439 177.815C 238.439 179.925 240.15 181.64 242.264 181.64C 244.373 181.64 246.088 179.929 246.088 177.815"/>
<path style="stroke:none; fill-rule:evenodd; fill:#ff0000" d="M 251.623 175.272L 250.623 175.272L 250.623 181.272L 251.623 181.272L 251.623 175.272zM 251.623 172.87L 250.623 172.87L 250.623 174.104L 251.623 174.104L 251.623 172.87z"/>
<path style="stroke:none; fill-rule:evenodd; fill:#ff0000" d="M 253.221 175.245L 253.221 181.268L 254.221 181.268L 254.221 177.921C 254.221 176.682 254.846 175.87 255.811 175.87C 256.549 175.87 257.018 176.331 257.018 177.061L 257.018 181.265L 258.018 181.265L 258.018 176.71C 258.018 175.71 257.275 175.065 256.115 175.065C 255.225 175.065 254.65 175.409 254.123 176.249L 254.123 175.237L 253.221 175.245z"/>
<path style="stroke:none; fill-rule:evenodd; fill:#ff0000" d="M 259.623 172.87L 259.623 181.268L 260.623 181.268L 260.623 177.921C 260.623 176.682 261.248 175.87 262.213 175.87C 262.514 175.87 262.814 175.972 263.041 176.147C 263.307 176.343 263.42 176.632 263.42 177.061L 263.42 181.265L 264.42 181.265L 264.42 176.71C 264.42 175.698 263.701 175.065 262.537 175.065C 261.693 175.065 261.182 175.331 260.623 176.073L 260.623 172.862L 259.623 172.87z"/>
<path style="stroke:none; fill-rule:evenodd; fill:#ff0000" d="M 266.92 175.272L 265.92 175.272L 265.92 181.272L 266.92 181.272L 266.92 175.272zM 266.92 172.87L 265.92 172.87L 265.92 174.104L 266.92 174.104L 266.92 172.87z"/>
<path style="stroke:none; fill-rule:evenodd; fill:#ff0000" d="M 268.42 172.87L 268.42 181.268L 269.318 181.268L 269.318 180.503C 269.771 181.225 270.377 181.569 271.213 181.569C 272.787 181.569 273.814 180.265 273.814 178.253C 273.814 176.288 272.834 175.073 271.264 175.073C 270.443 175.073 269.865 175.386 269.42 176.069L 269.42 172.87L 268.42 172.87zM 271.068 175.979C 272.135 175.979 272.822 176.909 272.822 178.343C 272.822 179.706 272.111 180.636 271.068 180.636C 270.061 180.636 269.393 179.718 269.393 178.308C 269.393 176.897 270.057 175.979 271.068 175.979z"/>
<path style="stroke:none; fill-rule:evenodd; fill:#ff0000" d="M 275.822 175.272L 274.822 175.272L 274.822 181.272L 275.822 181.272L 275.822 175.272zM 275.822 172.87L 274.822 172.87L 274.822 174.104L 275.822 174.104L 275.822 172.87z"/>
<path style="stroke:none; fill-rule:evenodd; fill:#ff0000" d="M 279.623 175.272L 278.725 175.272L 278.725 173.604L 277.725 173.604L 277.725 175.272L 276.826 175.272L 276.826 176.069L 277.725 176.069L 277.725 180.616C 277.725 181.222 278.127 181.565 278.857 181.565C 279.08 181.565 279.307 181.542 279.619 181.483L 279.619 180.647C 279.506 180.737 279.369 180.765 279.201 180.765C 278.826 180.765 278.721 180.651 278.721 180.222L 278.721 176.069L 279.619 176.069L 279.623 175.272z"/>
<path style="stroke:none; fill-rule:evenodd; fill:#ff0000" d="M 283.061 175.073C 281.357 175.073 280.326 176.288 280.326 178.323C 280.326 180.358 281.346 181.573 283.076 181.573C 284.779 181.573 285.826 180.362 285.826 178.374C 285.826 176.284 284.818 175.081 283.068 175.081L 283.061 175.073zM 283.072 175.972C 284.166 175.972 284.822 176.858 284.822 178.354C 284.822 179.768 284.146 180.667 283.072 180.667C 281.99 180.667 281.322 179.78 281.322 178.319C 281.322 176.87 281.986 175.972 283.072 175.972z"/>
<path style="stroke:none; fill-rule:evenodd; fill:#ff0000" d="M 287.123 175.245L 287.123 181.268L 288.123 181.268L 288.123 178.136C 288.123 177.272 288.334 176.71 288.783 176.374C 289.072 176.155 289.353 176.089 290.006 176.077L 290.006 175.112C 289.85 175.093 289.771 175.081 289.646 175.081C 289.037 175.081 288.572 175.448 288.025 176.343L 288.025 175.253L 287.123 175.245z"/>
<path style="stroke:none; fill-rule:evenodd; fill:#ff0000" d="M 294.576 175.272L 292.912 179.94L 291.377 175.272L 290.357 175.272L 292.389 181.327L 292.025 182.28C 291.877 182.706 291.662 182.866 291.26 182.866C 291.123 182.866 290.963 182.831 290.756 182.761L 290.756 183.616C 290.947 183.718 291.143 183.765 291.396 183.765C 291.705 183.765 292.037 183.663 292.291 183.479C 292.588 183.265 292.76 183.011 292.943 182.53L 295.615 175.268L 294.576 175.272z"/>
<path style="stroke:#0000ff; stroke-width:1.9133; fill:none" d="M 223.127 164.421L 244.17 164.421"/>
<path style="stroke:#0000ff; stroke-width:1.9133; fill:none" d="M 236.521 162.507L 244.174 164.417L 236.521 166.327"/>
<path style="stroke:none; fill-rule:evenodd; fill:#000000" d="M 92.1226 96.4721L 88.5246 96.4721L 88.5246 97.3701L 91.1226 97.3701L 91.1226 97.6041C 91.1226 99.1471 90.0246 100.265 88.5056 100.265C 87.6616 100.265 86.8956 99.9521 86.4036 99.4051C 85.8566 98.8001 85.5246 97.7881 85.5246 96.7371C 85.5246 94.6511 86.6886 93.2721 88.4506 93.2721C 89.7166 93.2721 90.6306 93.9401 90.8606 95.0381L 91.9466 95.0381C 91.6496 93.3471 90.3606 92.3701 88.4426 92.3701C 87.4236 92.3701 86.5956 92.6361 85.9386 93.1751C 84.9776 93.9791 84.4236 95.2801 84.4236 96.7881C 84.4236 99.3661 85.9936 101.163 88.2596 101.163C 89.3956 101.163 90.3026 100.737 91.1186 99.8271L 91.3956 100.94L 92.1146 100.94L 92.1226 96.4721z"/>
<path style="stroke:none; fill-rule:evenodd; fill:#000000" d="M 95.9586 94.6711C 94.2556 94.6711 93.2246 95.8861 93.2246 97.9211C 93.2246 99.9561 94.2436 101.171 95.9746 101.171C 97.6776 101.171 98.7246 99.9601 98.7246 97.9721C 98.7246 95.8821 97.7166 94.6791 95.9666 94.6791L 95.9586 94.6711zM 95.9706 95.5731C 97.0636 95.5731 97.7206 96.4601 97.7206 97.9561C 97.7206 99.3701 97.0446 100.268 95.9706 100.268C 94.8886 100.268 94.2206 99.3821 94.2206 97.9211C 94.2206 96.4721 94.8846 95.5731 95.9706 95.5731z"/>
<path style="stroke:none; fill-rule:evenodd; fill:#000000" d="M 133.42 92.4721L 132.42 92.4721L 132.42 99.3431L 128.072 92.4721L 126.924 92.4721L 126.924 100.87L 127.924 100.87L 127.924 94.0891L 132.225 100.87L 133.42 100.87L 133.42 92.4721z"/>
<path style="stroke:none; fill-rule:evenodd; fill:#000000" d="M 137.459 94.6711C 135.756 94.6711 134.725 95.8861 134.725 97.9211C 134.725 99.9561 135.744 101.171 137.475 101.171C 139.178 101.171 140.225 99.9601 140.225 97.9721C 140.225 95.8821 139.217 94.6791 137.467 94.6791L 137.459 94.6711zM 137.471 95.5731C 138.564 95.5731 139.221 96.4601 139.221 97.9561C 139.221 99.3701 138.545 100.268 137.471 100.268C 136.389 100.268 135.721 99.3821 135.721 97.9211C 135.721 96.4721 136.385 95.5731 137.471 95.5731z"/>
<path style="stroke:none; fill-rule:evenodd; fill:#000000" d="M 148.92 96.4721L 145.322 96.4721L 145.322 97.3701L 147.92 97.3701L 147.92 97.6041C 147.92 99.1471 146.822 100.265 145.303 100.265C 144.459 100.265 143.693 99.9521 143.201 99.4051C 142.654 98.8001 142.322 97.7881 142.322 96.7371C 142.322 94.6511 143.486 93.2721 145.248 93.2721C 146.514 93.2721 147.428 93.9401 147.658 95.0381L 148.744 95.0381C 148.447 93.3471 147.158 92.3701 145.24 92.3701C 144.221 92.3701 143.393 92.6361 142.736 93.1751C 141.775 93.9791 141.221 95.2801 141.221 96.7881C 141.221 99.3661 142.791 101.163 145.057 101.163C 146.193 101.163 147.1 100.737 147.916 99.8271L 148.193 100.94L 148.912 100.94L 148.92 96.4721z"/>
<path style="stroke:none; fill-rule:evenodd; fill:#000000" d="M 152.76 94.6711C 151.057 94.6711 150.025 95.8861 150.025 97.9211C 150.025 99.9561 151.045 101.171 152.775 101.171C 154.478 101.171 155.525 99.9601 155.525 97.9721C 155.525 95.8821 154.518 94.6791 152.768 94.6791L 152.76 94.6711zM 152.771 95.5731C 153.865 95.5731 154.521 96.4601 154.521 97.9561C 154.521 99.3701 153.846 100.268 152.771 100.268C 151.689 100.268 151.021 99.3821 151.021 97.9211C 151.021 96.4721 151.685 95.5731 152.771 95.5731z"/>
<path style="stroke:none; fill-rule:evenodd; fill:#000000" d="M 264.322 90.5731L 263.424 90.5731L 263.424 88.9051L 262.424 88.9051L 262.424 90.5731L 261.525 90.5731L 261.525 91.3701L 262.424 91.3701L 262.424 95.9171C 262.424 96.5221 262.826 96.8661 263.557 96.8661C 263.779 96.8661 264.006 96.8431 264.318 96.7841L 264.318 95.9481C 264.205 96.0381 264.068 96.0651 263.9 96.0651C 263.525 96.0651 263.42 95.9521 263.42 95.5221L 263.42 91.3701L 264.318 91.3701L 264.322 90.5731z"/>
<path style="stroke:none; fill-rule:evenodd; fill:#000000" d="M 265.42 88.1711L 265.42 96.5691L 266.42 96.5691L 266.42 93.2221C 266.42 91.9831 267.045 91.1711 268.01 91.1711C 268.311 91.1711 268.611 91.2721 268.838 91.4481C 269.103 91.6431 269.217 91.9321 269.217 92.3621L 269.217 96.5651L 270.217 96.5651L 270.217 92.0111C 270.217 90.9991 269.498 90.3661 268.334 90.3661C 267.49 90.3661 266.978 90.6321 266.42 91.3741L 266.42 88.1631L 265.42 88.1711z"/>
<path style="stroke:none; fill-rule:evenodd; fill:#000000" d="M 277.064 96.0111C 276.959 96.0691 276.912 96.0691 276.853 96.0691C 276.514 96.0691 276.326 95.8971 276.326 95.5971L 276.326 92.0301C 276.326 90.9561 275.549 90.3741 274.076 90.3741C 273.209 90.3741 272.49 90.6281 272.088 91.0771C 271.814 91.3861 271.701 91.7331 271.678 92.3351L 272.623 92.3351C 272.701 91.6041 273.127 91.2721 274.01 91.2721C 274.853 91.2721 275.326 91.5931 275.326 92.1711L 275.326 92.4251C 275.326 92.8271 275.092 92.9991 274.35 93.0931C 273.025 93.2651 272.822 93.3111 272.463 93.4601C 271.779 93.7451 271.432 94.2881 271.432 95.0731C 271.432 96.1671 272.185 96.8581 273.396 96.8581C 274.15 96.8581 274.756 96.5851 275.432 95.9401C 275.498 96.5731 275.795 96.8581 276.412 96.8581C 276.603 96.8581 276.752 96.8351 277.061 96.7531L 277.064 96.0111zM 275.322 94.7101C 275.322 95.0381 275.232 95.2411 274.955 95.5151C 274.576 95.8781 274.119 96.0691 273.572 96.0691C 272.85 96.0691 272.424 95.7061 272.424 95.0771C 272.424 94.4291 272.834 94.0971 273.826 93.9441C 274.807 93.8041 275.006 93.7571 275.318 93.6041L 275.322 94.7101z"/>
<path style="stroke:none; fill-rule:evenodd; fill:#000000" d="M 278.123 96.5731L 279.123 96.5731L 279.123 88.1751L 278.123 88.1751L 278.123 96.5731z"/>
<path style="stroke:none; fill-rule:evenodd; fill:#000000" d="M 286.064 96.0111C 285.959 96.0691 285.912 96.0691 285.853 96.0691C 285.514 96.0691 285.326 95.8971 285.326 95.5971L 285.326 92.0301C 285.326 90.9561 284.549 90.3741 283.076 90.3741C 282.209 90.3741 281.49 90.6281 281.088 91.0771C 280.814 91.3861 280.701 91.7331 280.678 92.3351L 281.623 92.3351C 281.701 91.6041 282.127 91.2721 283.01 91.2721C 283.853 91.2721 284.326 91.5931 284.326 92.1711L 284.326 92.4251C 284.326 92.8271 284.092 92.9991 283.35 93.0931C 282.025 93.2651 281.822 93.3111 281.463 93.4601C 280.779 93.7451 280.432 94.2881 280.432 95.0731C 280.432 96.1671 281.185 96.8581 282.396 96.8581C 283.15 96.8581 283.756 96.5851 284.432 95.9401C 284.498 96.5731 284.795 96.8581 285.412 96.8581C 285.603 96.8581 285.752 96.8351 286.061 96.7531L 286.064 96.0111zM 284.322 94.7101C 284.322 95.0381 284.232 95.2411 283.955 95.5151C 283.576 95.8781 283.119 96.0691 282.572 96.0691C 281.85 96.0691 281.424 95.7061 281.424 95.0771C 281.424 94.4291 281.834 94.0971 282.826 93.9441C 283.807 93.8041 284.006 93.7571 284.318 93.6041L 284.322 94.7101z"/>
<path style="stroke:none; fill-rule:evenodd; fill:#000000" d="M 287.123 90.5461L 287.123 96.5691L 288.123 96.5691L 288.123 92.7611C 288.123 91.8821 288.748 91.1751 289.518 91.1751C 290.221 91.1751 290.619 91.6121 290.619 92.3901L 290.619 96.5691L 291.619 96.5691L 291.619 92.7611C 291.619 91.8821 292.244 91.1751 293.014 91.1751C 293.705 91.1751 294.115 91.6241 294.115 92.3901L 294.115 96.5691L 295.115 96.5691L 295.115 92.0501C 295.115 90.9721 294.494 90.3741 293.361 90.3741C 292.557 90.3741 292.068 90.6161 291.506 91.3041C 291.15 90.6551 290.666 90.3741 289.881 90.3741C 289.076 90.3741 288.545 90.6711 288.025 91.3931L 288.025 90.5461L 287.123 90.5461z"/>
<path style="stroke:none; fill-rule:evenodd; fill:#000000" d="M 301.42 96.6081L 301.42 90.5771L 300.42 90.5771L 300.42 94.0221C 300.42 95.2611 299.775 96.0731 298.768 96.0731C 298.006 96.0731 297.521 95.6121 297.521 94.8821L 297.521 90.5771L 296.521 90.5771L 296.521 95.2291C 296.521 96.2291 297.279 96.8741 298.471 96.8741C 299.369 96.8741 299.943 96.5651 300.518 95.7721L 300.518 96.6121L 301.42 96.6081z"/>
<path style="stroke:none; fill-rule:evenodd; fill:#000000" d="M 307.248 92.2331C 307.236 91.0461 306.451 90.3741 305.049 90.3741C 303.639 90.3741 302.725 91.1001 302.725 92.2221C 302.725 93.1671 303.213 93.6161 304.662 93.9641L 305.572 94.1821C 306.248 94.3431 306.518 94.5851 306.518 95.0221C 306.518 95.5851 305.951 95.9681 305.107 95.9681C 304.588 95.9681 304.15 95.8191 303.908 95.5611C 303.76 95.3901 303.689 95.2141 303.631 94.7801L 302.615 94.7801C 302.658 96.1901 303.443 96.8701 305.025 96.8701C 306.549 96.8701 307.518 96.1201 307.518 94.9561C 307.518 94.0581 307.006 93.5611 305.791 93.2721L 304.857 93.0541C 304.064 92.8701 303.725 92.6161 303.725 92.1901C 303.725 91.6401 304.221 91.2801 305.01 91.2801C 305.783 91.2801 306.201 91.6081 306.225 92.2371L 307.248 92.2331z"/>
<path style="stroke:none; fill-rule:evenodd; fill:#000000" d="M 264.67 107.671L 267.088 100.671L 266.143 100.671L 264.213 106.597L 262.166 100.671L 261.213 100.671L 263.717 107.671L 264.67 107.671z"/>
<path style="stroke:none; fill-rule:evenodd; fill:#000000" d="M 271.853 105.573L 272.568 107.671L 273.561 107.671L 271.115 100.671L 269.971 100.671L 267.486 107.671L 268.432 107.671L 269.166 105.573L 271.853 105.573zM 271.607 104.87L 269.389 104.87L 270.533 101.655L 271.607 104.87z"/>
<path style="stroke:none; fill-rule:evenodd; fill:#000000" d="M 274.521 106.671L 274.521 107.671L 275.119 107.671L 275.119 107.835C 275.119 108.468 274.99 108.651 274.521 108.667L 274.521 109.065C 275.185 109.065 275.521 108.636 275.521 107.815L 275.521 106.671L 274.521 106.671z"/>
<path style="stroke:none; fill-rule:evenodd; fill:#000000" d="M 280.072 107.671L 282.49 100.671L 281.545 100.671L 279.615 106.597L 277.568 100.671L 276.615 100.671L 279.119 107.671L 280.072 107.671z"/>
<path style="stroke:none; fill-rule:evenodd; fill:#000000" d="M 284.42 100.671L 283.521 100.671L 283.521 107.671L 287.818 107.671L 287.818 106.972L 284.42 106.972L 284.42 100.671z"/>
<path style="stroke:none; fill-rule:evenodd; fill:#000000" d="M 288.822 106.671L 288.822 107.671L 289.42 107.671L 289.42 107.835C 289.42 108.468 289.291 108.651 288.822 108.667L 288.822 109.065C 289.486 109.065 289.822 108.636 289.822 107.815L 289.822 106.671L 288.822 106.671z"/>
<path style="stroke:none; fill-rule:evenodd; fill:#000000" d="M 295.213 107.671L 297.221 101.827L 297.221 107.671L 298.018 107.671L 298.018 100.671L 296.779 100.671L 294.744 106.768L 292.67 100.671L 291.432 100.671L 291.432 107.671L 292.228 107.671L 292.228 101.827L 294.256 107.671L 295.213 107.671z"/>
<path style="stroke:none; fill-rule:evenodd; fill:#000000" d="M 299.42 107.671L 302.139 107.671C 303.92 107.671 305.014 106.347 305.014 104.167C 305.014 101.999 303.928 100.675 302.139 100.675L 299.42 100.675L 299.42 107.671zM 300.322 106.972L 300.322 101.374L 301.986 101.374C 303.381 101.374 304.119 102.335 304.119 104.179C 304.119 105.999 303.385 106.972 301.986 106.972L 300.322 106.972z"/>
</g>
</svg>