<?xml version="1.0" encoding="ISO-8859-1" standalone="yes"?>
<svg width="217.103" height="138.606">
  <defs> 
    <marker id="ArrowEnd" viewBox="0 0 10 10" refX="0" refY="5" 
     markerUnits="strokeWidth" 
     markerWidth="4" 
     markerHeight="3" 
     orient="auto"> 
        <path d="M 0 0 L 10 5 L 0 10 z" /> 
    </marker>
    <marker id="ArrowStart" viewBox="0 0 10 10" refX="10" refY="5" 
     markerUnits="strokeWidth" 
     markerWidth="4" 
     markerHeight="3" 
     orient="auto"> 
        <path d="M 10 0 L 0 5 L 10 10 z" /> 
    </marker> </defs>
<g>
<path style="stroke:#000000; stroke-width:1.91229; fill:none" d="M 58.674 117.112C 58.674 110.776 53.538 105.639 47.202 105.639C 40.866 105.639 35.729 110.776 35.729 117.112C 35.729 123.448 40.866 128.584 47.202 128.584C 53.538 128.584 58.674 123.448 58.674 117.112"/>
<path style="stroke:#000000; stroke-width:1.91229; fill:none" d="M 98.835 117.112C 98.835 110.776 93.698 105.639 87.362 105.639C 81.026 105.639 75.889 110.776 75.889 117.112C 75.889 123.448 81.026 128.584 87.362 128.584C 93.698 128.584 98.835 123.448 98.835 117.112"/>
<path style="stroke:#000000; stroke-width:1.91229; fill:none" d="M 58.674 21.494C 58.674 15.159 53.538 10.022 47.202 10.022C 40.866 10.022 35.729 15.159 35.729 21.494C 35.729 27.83 40.866 32.967 47.202 32.967C 53.538 32.967 58.674 27.83 58.674 21.494"/>
<path style="stroke:#000000; stroke-width:1.91229; fill:none" d="M 98.835 21.494C 98.835 15.159 93.698 10.022 87.362 10.022C 81.026 10.022 75.889 15.159 75.889 21.494C 75.889 27.83 81.026 32.967 87.362 32.967C 93.698 32.967 98.835 27.83 98.835 21.494"/>
<path style="stroke:#000000; stroke-width:1.91229; fill:none" d="M 58.674 69.303C 58.674 62.967 53.538 57.83 47.202 57.83C 40.866 57.83 35.729 62.967 35.729 69.303C 35.729 75.639 40.866 80.7757 47.202 80.7757C 53.538 80.7757 58.674 75.639 58.674 69.303"/>
<path style="stroke:#000000; stroke-width:1.91229; fill:none" d="M 98.835 69.303C 98.835 62.967 93.698 57.83 87.362 57.83C 81.026 57.83 75.889 62.967 75.889 69.303C 75.889 75.639 81.026 80.7757 87.362 80.7757C 93.698 80.7757 98.835 75.639 98.835 69.303"/>
<path style="stroke:#000000; stroke-width:1.91229; fill:none" d="M 47.202 105.635L 47.202 80.7757"/>
<path style="stroke:#000000; stroke-width:1.91229; fill:none" d="M 45.292 88.4242L 47.202 80.7757L 49.112 88.4242"/>
<path style="stroke:#000000; stroke-width:1.91229; fill:none" d="M 87.362 105.635L 87.362 80.7757"/>
<path style="stroke:#000000; stroke-width:1.91229; fill:none" d="M 85.448 88.4242L 87.358 80.7757L 89.268 88.4242"/>
<path style="stroke:#000000; stroke-width:1.91229; fill:none" d="M 138.991 117.112C 138.991 110.776 133.854 105.639 127.518 105.639C 121.182 105.639 116.045 110.776 116.045 117.112C 116.045 123.448 121.182 128.584 127.518 128.584C 133.854 128.584 138.991 123.448 138.991 117.112"/>
<path style="stroke:#000000; stroke-width:1.91229; fill:none" d="M 138.991 21.494C 138.991 15.159 133.854 10.022 127.518 10.022C 121.182 10.022 116.045 15.159 116.045 21.494C 116.045 27.83 121.182 32.967 127.518 32.967C 133.854 32.967 138.991 27.83 138.991 21.494"/>
<path style="stroke:#000000; stroke-width:1.91229; fill:none" d="M 138.991 69.303C 138.991 62.967 133.854 57.83 127.518 57.83C 121.182 57.83 116.045 62.967 116.045 69.303C 116.045 75.639 121.182 80.7757 127.518 80.7757C 133.854 80.7757 138.991 75.639 138.991 69.303"/>
<path style="stroke:#000000; stroke-width:1.91229; fill:none" d="M 127.518 105.635L 127.518 80.7757"/>
<path style="stroke:#000000; stroke-width:1.91229; fill:none" d="M 125.608 88.4242L 127.518 80.7757L 129.428 88.4242"/>
<path style="stroke:#000000; stroke-width:1.91229; fill:none" d="M 127.518 57.854L 127.518 32.994"/>
<path style="stroke:#000000; stroke-width:1.91229; fill:none" d="M 125.608 40.643L 127.518 32.994L 129.428 40.643"/>
<path style="stroke:#000000; stroke-width:1.91229; fill:none" d="M 87.362 57.83L 87.362 32.971"/>
<path style="stroke:#000000; stroke-width:1.91229; fill:none" d="M 85.448 40.619L 87.358 32.971L 89.268 40.619"/>
<path style="stroke:#000000; stroke-width:1.91229; fill:none" d="M 47.202 57.83L 47.202 32.971"/>
<path style="stroke:#000000; stroke-width:1.91229; fill:none" d="M 45.292 40.619L 47.202 32.971L 49.112 40.619"/>
<path style="stroke:#000000; stroke-width:1.91229; fill:none" d="M 181.081 117.112C 181.081 110.776 175.944 105.639 169.608 105.639C 163.272 105.639 158.135 110.776 158.135 117.112C 158.135 123.448 163.272 128.584 169.608 128.584C 175.944 128.584 181.081 123.448 181.081 117.112"/>
<path style="stroke:#000000; stroke-width:1.91229; fill:none" d="M 181.081 21.494C 181.081 15.159 175.944 10.022 169.608 10.022C 163.272 10.022 158.135 15.159 158.135 21.494C 158.135 27.83 163.272 32.967 169.608 32.967C 175.944 32.967 181.081 27.83 181.081 21.494"/>
<path style="stroke:#000000; stroke-width:1.91229; fill:none" d="M 181.081 69.303C 181.081 62.967 175.944 57.83 169.608 57.83C 163.272 57.83 158.135 62.967 158.135 69.303C 158.135 75.639 163.272 80.7757 169.608 80.7757C 175.944 80.7757 181.081 75.639 181.081 69.303"/>
<path style="stroke:#000000; stroke-width:1.91229; fill:none" d="M 169.608 105.635L 169.608 80.7757"/>
<path style="stroke:#000000; stroke-width:1.91229; fill:none" d="M 167.694 88.4242L 169.604 80.7757L 171.514 88.4242"/>
<path style="stroke:#000000; stroke-width:1.91229; fill:none" d="M 169.608 57.854L 169.608 32.994"/>
<path style="stroke:#000000; stroke-width:1.91229; fill:none" d="M 167.694 40.643L 169.604 32.994L 171.514 40.643"/>
<path style="stroke:none; fill-rule:evenodd; fill:#000000" d="M 89.788 112.092L 89.788 118.053C 89.788 119.194 88.991 119.889 87.678 119.889C 87.073 119.889 86.581 119.741 86.186 119.448C 85.784 119.123 85.592 118.694 85.592 118.053L 85.592 112.092L 84.495 112.092L 84.495 118.014C 84.495 119.725 85.706 120.787 87.682 120.787C 89.635 120.787 90.893 119.702 90.893 118.014L 90.893 112.092L 89.788 112.092z"/>
<path style="stroke:none; fill-rule:evenodd; fill:#000000" d="M 130.987 114.58C 130.975 112.944 129.858 111.991 127.944 111.991C 126.12 111.991 124.991 112.94 124.991 114.467C 124.991 115.495 125.522 116.147 126.612 116.436L 128.663 116.991C 129.706 117.268 130.182 117.694 130.182 118.354C 130.182 118.803 129.948 119.268 129.596 119.522C 129.268 119.752 128.749 119.877 128.081 119.877C 127.186 119.877 126.577 119.655 126.178 119.151C 125.874 118.772 125.737 118.354 125.788 117.819L 124.788 117.819C 124.795 118.596 124.944 119.104 125.272 119.573C 125.838 120.362 126.792 120.78 128.049 120.78C 129.034 120.78 129.838 120.553 130.374 120.135C 130.928 119.69 131.28 118.94 131.28 118.213C 131.28 117.178 130.643 116.42 129.522 116.108L 127.448 115.545C 126.452 115.272 126.088 114.948 126.088 114.303C 126.088 113.452 126.823 112.885 127.928 112.885C 129.237 112.885 129.971 113.491 129.983 114.573L 130.987 114.58z"/>
<path style="stroke:none; fill-rule:evenodd; fill:#000000" d="M 170.389 112.991L 173.092 112.991L 173.092 112.092L 166.53 112.092L 166.53 112.991L 169.288 112.991L 169.288 120.491L 170.385 120.491L 170.389 112.991z"/>
<path style="stroke:none; fill-rule:evenodd; fill:#000000" d="M 83.315 16.491L 80.596 25.119L 81.225 25.119L 83.944 16.491L 83.315 16.491z"/>
<path style="stroke:none; fill-rule:evenodd; fill:#000000" d="M 89.487 24.924L 89.487 18.893L 88.487 18.893L 88.487 22.338C 88.487 23.577 87.842 24.389 86.838 24.389C 86.077 24.389 85.592 23.928 85.592 23.198L 85.592 18.893L 84.592 18.893L 84.592 23.545C 84.592 24.545 85.331 25.19 86.495 25.19C 87.37 25.19 87.928 24.881 88.487 24.088L 88.487 24.928L 89.487 24.924z"/>
<path style="stroke:none; fill-rule:evenodd; fill:#000000" d="M 92.815 16.491L 90.096 25.119L 90.725 25.119L 93.444 16.491L 92.815 16.491z"/>
<path style="stroke:none; fill-rule:evenodd; fill:#000000" d="M 123.917 16.491L 121.198 25.119L 121.827 25.119L 124.545 16.491L 123.917 16.491z"/>
<path style="stroke:none; fill-rule:evenodd; fill:#000000" d="M 129.514 20.553C 129.502 19.366 128.717 18.694 127.319 18.694C 125.909 18.694 124.995 19.42 124.995 20.541C 124.995 21.487 125.483 21.936 126.932 22.284L 127.842 22.502C 128.518 22.662 128.788 22.905 128.788 23.342C 128.788 23.905 128.221 24.287 127.378 24.287C 126.858 24.287 126.42 24.139 126.178 23.881C 126.03 23.709 125.96 23.534 125.901 23.1L 124.885 23.1C 124.928 24.51 125.713 25.186 127.295 25.186C 128.819 25.186 129.788 24.436 129.788 23.272C 129.788 22.373 129.276 21.877 128.061 21.588L 127.128 21.369C 126.335 21.186 125.995 20.932 125.995 20.506C 125.995 19.955 126.491 19.596 127.28 19.596C 128.053 19.596 128.471 19.924 128.495 20.557L 129.514 20.553z"/>
<path style="stroke:none; fill-rule:evenodd; fill:#000000" d="M 132.815 16.491L 130.096 25.119L 130.725 25.119L 133.444 16.491L 132.815 16.491z"/>
<path style="stroke:none; fill-rule:evenodd; fill:#000000" d="M 167.417 16.491L 164.698 25.119L 165.327 25.119L 168.045 16.491L 167.417 16.491z"/>
<path style="stroke:none; fill-rule:evenodd; fill:#000000" d="M 170.889 18.889L 169.991 18.889L 169.991 17.229L 168.991 17.229L 168.991 18.889L 168.092 18.889L 168.092 19.686L 168.991 19.686L 168.991 24.233C 168.991 24.838 169.393 25.182 170.124 25.182C 170.346 25.182 170.573 25.159 170.885 25.1L 170.885 24.264C 170.772 24.35 170.635 24.381 170.467 24.381C 170.092 24.381 169.987 24.268 169.987 23.838L 169.987 19.686L 170.885 19.686L 170.889 18.889z"/>
<path style="stroke:none; fill-rule:evenodd; fill:#000000" d="M 173.815 16.491L 171.096 25.119L 171.725 25.119L 174.444 16.491L 173.815 16.491z"/>
<path style="stroke:none; fill-rule:evenodd; fill:#000000" d="M 47.756 120.491L 50.085 113.483L 50.085 120.491L 51.085 120.491L 51.085 112.092L 49.62 112.092L 47.21 119.412L 44.756 112.092L 43.292 112.092L 43.292 120.491L 44.292 120.491L 44.292 113.483L 46.643 120.491L 47.756 120.491z"/>
<path style="stroke:none; fill-rule:evenodd; fill:#000000" d="M 42.213 16.491L 39.495 25.119L 40.124 25.119L 42.842 16.491L 42.213 16.491z"/>
<path style="stroke:none; fill-rule:evenodd; fill:#000000" d="M 43.588 18.866L 43.588 24.889L 44.588 24.889L 44.588 21.08C 44.588 20.201 45.213 19.494 45.983 19.494C 46.686 19.494 47.085 19.932 47.085 20.709L 47.085 24.889L 48.085 24.889L 48.085 21.08C 48.085 20.201 48.71 19.494 49.479 19.494C 50.17 19.494 50.581 19.944 50.581 20.709L 50.581 24.889L 51.581 24.889L 51.581 20.369C 51.581 19.291 50.96 18.69 49.827 18.69C 49.022 18.69 48.534 18.932 47.971 19.623C 47.616 18.971 47.131 18.69 46.346 18.69C 45.542 18.69 45.01 18.987 44.491 19.713L 44.491 18.866L 43.588 18.866z"/>
<path style="stroke:none; fill-rule:evenodd; fill:#000000" d="M 54.917 16.491L 52.198 25.119L 52.827 25.119L 55.545 16.491L 54.917 16.491z"/>
<path style="stroke:none; fill-rule:evenodd; fill:#000000" d="M 40.088 67.905L 40.088 71.889L 40.788 71.889L 40.788 69.42C 40.788 68.85 41.186 68.393 41.682 68.393C 42.131 68.393 42.385 68.678 42.385 69.178L 42.385 71.889L 43.085 71.889L 43.085 69.42C 43.085 68.85 43.506 68.393 44.034 68.393C 44.502 68.393 44.784 68.686 44.784 69.178L 44.784 71.889L 45.483 71.889L 45.483 68.901C 45.483 68.186 45.061 67.791 44.299 67.791C 43.756 67.791 43.428 67.944 43.045 68.377C 42.807 67.967 42.479 67.791 41.948 67.791C 41.405 67.791 41.045 67.987 40.694 68.467L 40.694 67.905L 40.088 67.905z"/>
<path style="stroke:none; fill-rule:evenodd; fill:#000000" d="M 49.588 71.912L 49.588 67.893L 48.889 67.893L 48.889 70.147C 48.889 70.955 48.491 71.491 47.866 71.491C 47.393 71.491 47.092 71.19 47.092 70.709L 47.092 67.893L 46.393 67.893L 46.393 70.994C 46.393 71.662 46.885 72.092 47.663 72.092C 48.245 72.092 48.616 71.889 48.991 71.358L 48.991 71.916L 49.588 71.912z"/>
<path style="stroke:none; fill-rule:evenodd; fill:#000000" d="M 53.538 68.998C 53.53 68.229 53.002 67.791 52.057 67.791C 51.108 67.791 50.491 68.272 50.491 69.01C 50.491 69.635 50.811 69.932 51.764 70.159L 52.362 70.303C 52.807 70.409 52.983 70.569 52.983 70.858C 52.983 71.229 52.616 71.483 52.069 71.483C 51.733 71.483 51.448 71.385 51.292 71.213C 51.194 71.1 51.151 70.983 51.112 70.694L 50.452 70.694C 50.479 71.635 50.999 72.084 52.042 72.084C 53.045 72.084 53.686 71.592 53.686 70.819C 53.686 70.225 53.35 69.897 52.549 69.705L 51.936 69.561C 51.417 69.44 51.194 69.272 51.194 68.991C 51.194 68.627 51.522 68.389 52.049 68.389C 52.565 68.389 52.842 68.596 52.858 68.994L 53.538 68.998z"/>
<path style="stroke:none; fill-rule:evenodd; fill:#000000" d="M 55.889 67.889L 55.292 67.889L 55.292 66.78L 54.592 66.78L 54.592 67.889L 54.092 67.889L 54.092 68.389L 54.592 68.389L 54.592 71.448C 54.592 71.854 54.866 72.088 55.366 72.088C 55.518 72.088 55.67 72.073 55.885 72.034L 55.885 71.479C 55.811 71.487 55.717 71.491 55.608 71.491C 55.358 71.491 55.288 71.416 55.288 71.135L 55.288 68.397L 55.885 68.397L 55.889 67.889z"/>
<path style="stroke:none; fill-rule:evenodd; fill:#000000" d="M 80.588 66.291L 80.588 71.889L 81.186 71.889L 81.186 71.377C 81.491 71.858 81.893 72.088 82.448 72.088C 83.499 72.088 84.182 71.225 84.182 69.897C 84.182 68.6 83.538 67.795 82.502 67.795C 81.963 67.795 81.581 67.991 81.288 68.428L 81.288 66.295L 80.588 66.291zM 82.354 68.366C 83.065 68.366 83.522 68.983 83.522 69.94C 83.522 70.846 83.049 71.467 82.354 71.467C 81.682 71.467 81.241 70.858 81.241 69.916C 81.241 68.979 81.682 68.366 82.354 68.366z"/>
<path style="stroke:none; fill-rule:evenodd; fill:#000000" d="M 88.19 71.912L 88.19 67.893L 87.491 67.893L 87.491 70.147C 87.491 70.955 87.092 71.491 86.467 71.491C 85.995 71.491 85.694 71.19 85.694 70.709L 85.694 67.893L 84.995 67.893L 84.995 70.994C 84.995 71.662 85.487 72.092 86.264 72.092C 86.846 72.092 87.217 71.889 87.592 71.358L 87.592 71.916L 88.19 71.912z"/>
<path style="stroke:none; fill-rule:evenodd; fill:#000000" d="M 92.038 68.998C 92.03 68.229 91.502 67.791 90.557 67.791C 89.608 67.791 88.991 68.272 88.991 69.01C 88.991 69.635 89.311 69.932 90.264 70.159L 90.862 70.303C 91.307 70.409 91.483 70.569 91.483 70.858C 91.483 71.229 91.116 71.483 90.569 71.483C 90.233 71.483 89.948 71.385 89.792 71.213C 89.694 71.1 89.651 70.983 89.612 70.694L 88.952 70.694C 88.979 71.635 89.499 72.084 90.542 72.084C 91.545 72.084 92.186 71.592 92.186 70.819C 92.186 70.225 91.85 69.897 91.049 69.705L 90.436 69.561C 89.917 69.44 89.694 69.272 89.694 68.991C 89.694 68.627 90.022 68.389 90.549 68.389C 91.065 68.389 91.342 68.596 91.358 68.994L 92.038 68.998z"/>
<path style="stroke:none; fill-rule:evenodd; fill:#000000" d="M 94.389 67.889L 93.792 67.889L 93.792 66.78L 93.092 66.78L 93.092 67.889L 92.592 67.889L 92.592 68.389L 93.092 68.389L 93.092 71.448C 93.092 71.854 93.366 72.088 93.866 72.088C 94.018 72.088 94.17 72.073 94.385 72.034L 94.385 71.479C 94.311 71.487 94.217 71.491 94.108 71.491C 93.858 71.491 93.788 71.416 93.788 71.135L 93.788 68.397L 94.385 68.397L 94.389 67.889z"/>
<path style="stroke:none; fill-rule:evenodd; fill:#000000" d="M 123.487 67.889L 123.487 68.459C 123.17 68.002 122.784 67.787 122.276 67.787C 121.272 67.787 120.592 68.674 120.592 69.975C 120.592 70.631 120.768 71.166 121.1 71.549C 121.401 71.885 121.831 72.084 122.256 72.084C 122.764 72.084 123.12 71.866 123.483 71.342L 123.483 71.557C 123.483 72.119 123.417 72.463 123.256 72.694C 123.088 72.936 122.76 73.08 122.366 73.08C 122.077 73.08 121.815 72.998 121.639 72.846C 121.495 72.721 121.436 72.604 121.397 72.342L 120.749 72.342C 120.815 73.119 121.397 73.58 122.327 73.58C 122.913 73.58 123.42 73.389 123.678 73.069C 123.979 72.701 124.092 72.194 124.092 71.248L 124.092 67.885L 123.487 67.889zM 122.393 68.389C 123.077 68.389 123.483 68.963 123.483 69.959C 123.483 70.909 123.073 71.483 122.401 71.483C 121.71 71.483 121.288 70.901 121.288 69.936C 121.288 68.983 121.713 68.389 122.393 68.389z"/>
<path style="stroke:none; fill-rule:evenodd; fill:#000000" d="M 128.288 71.912L 128.288 67.893L 127.588 67.893L 127.588 70.147C 127.588 70.955 127.19 71.491 126.565 71.491C 126.092 71.491 125.792 71.19 125.792 70.709L 125.792 67.893L 125.092 67.893L 125.092 70.994C 125.092 71.662 125.585 72.092 126.362 72.092C 126.944 72.092 127.315 71.889 127.69 71.358L 127.69 71.916L 128.288 71.912z"/>
<path style="stroke:none; fill-rule:evenodd; fill:#000000" d="M 132.237 68.998C 132.229 68.229 131.702 67.791 130.756 67.791C 129.807 67.791 129.19 68.272 129.19 69.01C 129.19 69.635 129.51 69.932 130.463 70.159L 131.061 70.303C 131.506 70.409 131.682 70.569 131.682 70.858C 131.682 71.229 131.315 71.483 130.768 71.483C 130.432 71.483 130.147 71.385 129.991 71.213C 129.893 71.1 129.85 70.983 129.811 70.694L 129.151 70.694C 129.178 71.635 129.698 72.084 130.741 72.084C 131.745 72.084 132.385 71.592 132.385 70.819C 132.385 70.225 132.049 69.897 131.249 69.705L 130.635 69.561C 130.116 69.44 129.893 69.272 129.893 68.991C 129.893 68.627 130.221 68.389 130.749 68.389C 131.264 68.389 131.542 68.596 131.557 68.994L 132.237 68.998z"/>
<path style="stroke:none; fill-rule:evenodd; fill:#000000" d="M 134.588 67.889L 133.991 67.889L 133.991 66.78L 133.292 66.78L 133.292 67.889L 132.792 67.889L 132.792 68.389L 133.292 68.389L 133.292 71.448C 133.292 71.854 133.565 72.088 134.065 72.088C 134.217 72.088 134.37 72.073 134.585 72.034L 134.585 71.479C 134.51 71.487 134.417 71.491 134.307 71.491C 134.057 71.491 133.987 71.416 133.987 71.135L 133.987 68.397L 134.585 68.397L 134.588 67.889z"/>
<path style="stroke:none; fill-rule:evenodd; fill:#000000" d="M 160.588 67.905L 160.588 71.889L 161.288 71.889L 161.288 69.721C 161.288 68.92 161.71 68.393 162.366 68.393C 162.866 68.393 163.186 68.694 163.186 69.166L 163.186 71.889L 163.885 71.889L 163.885 68.877C 163.885 68.217 163.37 67.791 162.569 67.791C 161.952 67.791 161.553 68.018 161.19 68.573L 161.19 67.905L 160.588 67.905z"/>
<path style="stroke:none; fill-rule:evenodd; fill:#000000" d="M 167.987 71.912L 167.987 67.893L 167.288 67.893L 167.288 70.147C 167.288 70.955 166.889 71.491 166.264 71.491C 165.792 71.491 165.491 71.19 165.491 70.709L 165.491 67.893L 164.792 67.893L 164.792 70.994C 164.792 71.662 165.284 72.092 166.061 72.092C 166.643 72.092 167.014 71.889 167.389 71.358L 167.389 71.916L 167.987 71.912z"/>
<path style="stroke:none; fill-rule:evenodd; fill:#000000" d="M 171.94 68.998C 171.932 68.229 171.405 67.791 170.46 67.791C 169.51 67.791 168.893 68.272 168.893 69.01C 168.893 69.635 169.213 69.932 170.167 70.159L 170.764 70.303C 171.21 70.409 171.385 70.569 171.385 70.858C 171.385 71.229 171.018 71.483 170.471 71.483C 170.135 71.483 169.85 71.385 169.694 71.213C 169.596 71.1 169.553 70.983 169.514 70.694L 168.854 70.694C 168.881 71.635 169.401 72.084 170.444 72.084C 171.448 72.084 172.088 71.592 172.088 70.819C 172.088 70.225 171.752 69.897 170.952 69.705L 170.338 69.561C 169.819 69.44 169.596 69.272 169.596 68.991C 169.596 68.627 169.924 68.389 170.452 68.389C 170.967 68.389 171.245 68.596 171.26 68.994L 171.94 68.998z"/>
<path style="stroke:none; fill-rule:evenodd; fill:#000000" d="M 174.288 67.889L 173.69 67.889L 173.69 66.78L 172.991 66.78L 172.991 67.889L 172.491 67.889L 172.491 68.389L 172.991 68.389L 172.991 71.448C 172.991 71.854 173.264 72.088 173.764 72.088C 173.917 72.088 174.069 72.073 174.284 72.034L 174.284 71.479C 174.21 71.487 174.116 71.491 174.006 71.491C 173.756 71.491 173.686 71.416 173.686 71.135L 173.686 68.397L 174.284 68.397L 174.288 67.889z"/>
<path style="stroke:none; fill-rule:evenodd; fill:#000000" d="M 176.987 70.369L 176.987 70.01C 176.987 69.674 177.073 69.541 177.604 69.057C 178.19 68.534 178.385 68.19 178.385 67.678C 178.385 66.78 177.752 66.201 176.76 66.201C 175.663 66.201 175.088 66.823 175.088 68.022L 175.788 68.022C 175.788 67.662 175.823 67.444 175.913 67.256C 176.049 66.967 176.346 66.803 176.737 66.803C 177.303 66.803 177.682 67.155 177.682 67.682C 177.682 68.034 177.51 68.334 177.096 68.698C 176.635 69.104 176.635 69.104 176.502 69.284C 176.342 69.498 176.284 69.674 176.284 69.951L 176.284 70.373L 176.987 70.369zM 176.987 71.092L 176.288 71.092L 176.288 71.889L 176.987 71.889L 176.987 71.092z"/>
<path style="stroke:#000000; stroke-width:1.91229; fill:none" d="M 87.42 105.6L 47.245 80.7288"/>
<path style="stroke:#000000; stroke-width:1.91229; fill:none" d="M 52.741 86.3773L 47.245 80.7288L 54.752 83.1273"/>
<path style="stroke:#000000; stroke-width:1.91229; fill:none" d="M 127.6 105.6L 47.245 80.7288"/>
<path style="stroke:#000000; stroke-width:1.91229; fill:none" d="M 53.983 84.8148L 47.245 80.7288L 55.116 81.1624"/>
<path style="stroke:#000000; stroke-width:1.91229; fill:none" d="M 169.694 105.6L 49.159 80.7288"/>
<path style="stroke:#000000; stroke-width:1.91229; fill:none" d="M 56.26 84.1468L 49.159 80.7288L 57.034 80.4046"/>
<path style="stroke:#000000; stroke-width:1.91229; fill:none" d="M 87.42 105.6L 127.596 80.7288"/>
<path style="stroke:#000000; stroke-width:1.91229; fill:none" d="M 120.092 83.1273L 127.6 80.7288L 122.104 86.3773"/>
<path style="stroke:#000000; stroke-width:1.91229; fill:none" d="M 87.42 105.6L 169.69 80.7288"/>
<path style="stroke:#000000; stroke-width:1.91229; fill:none" d="M 161.819 81.1117L 169.694 80.7288L 162.928 84.7718"/>
<path style="stroke:#000000; stroke-width:1.91229; fill:none" d="M 127.6 103.686L 171.604 80.7288"/>
<path style="stroke:#000000; stroke-width:1.91229; fill:none" d="M 163.944 82.5687L 171.608 80.7288L 165.713 85.9593"/>
<path style="stroke:#000000; stroke-width:1.91229; fill:none" d="M 127.6 105.6L 87.424 80.7288"/>
<path style="stroke:#000000; stroke-width:1.91229; fill:none" d="M 92.92 86.3773L 87.424 80.7288L 94.932 83.1273"/>
<path style="stroke:#000000; stroke-width:1.91229; fill:none" d="M 169.694 105.6L 127.604 80.7288"/>
<path style="stroke:#000000; stroke-width:1.91229; fill:none" d="M 133.213 86.264L 127.604 80.7288L 135.159 82.971"/>
<path style="stroke:#000000; stroke-width:1.91229; fill:none" d="M 47.245 57.768L 87.42 32.897"/>
<path style="stroke:#000000; stroke-width:1.91229; fill:none" d="M 79.913 35.295L 87.42 32.897L 81.924 38.545"/>
<path style="stroke:#000000; stroke-width:1.91229; fill:none" d="M 87.42 57.768L 127.596 32.897"/>
<path style="stroke:#000000; stroke-width:1.91229; fill:none" d="M 120.092 35.295L 127.6 32.897L 122.104 38.545"/>
<path style="stroke:#000000; stroke-width:1.91229; fill:none" d="M 127.6 57.768L 169.69 32.897"/>
<path style="stroke:#000000; stroke-width:1.91229; fill:none" d="M 162.135 35.139L 169.69 32.897L 164.081 38.432"/>
<path style="stroke:#000000; stroke-width:1.91229; fill:none" d="M 169.694 57.768L 127.604 32.897"/>
<path style="stroke:#000000; stroke-width:1.91229; fill:none" d="M 133.213 38.432L 127.604 32.897L 135.159 35.139"/>
<path style="stroke:#000000; stroke-width:1.91229; fill:none" d="M 127.6 57.768L 87.424 32.897"/>
<path style="stroke:#000000; stroke-width:1.91229; fill:none" d="M 92.92 38.545L 87.424 32.897L 94.932 35.295"/>
<path style="stroke:#000000; stroke-width:1.91229; fill:none" d="M 87.42 57.768L 169.69 32.897"/>
<path style="stroke:#000000; stroke-width:1.91229; fill:none" d="M 161.819 33.276L 169.694 32.893L 162.928 36.936"/>
<path style="stroke:#000000; stroke-width:1.91229; fill:none" d="M 169.694 57.768L 87.424 32.897"/>
<path style="stroke:#000000; stroke-width:1.91229; fill:none" d="M 94.19 36.936L 87.424 32.893L 95.299 33.276"/>
<path style="stroke:#000000; stroke-width:1.91229; fill:none" d="M 47.245 57.768L 127.6 32.897"/>
<path style="stroke:#000000; stroke-width:1.91229; fill:none" d="M 119.729 33.33L 127.6 32.897L 120.862 36.983"/>
<path style="stroke:#000000; stroke-width:1.91229; fill:none" d="M 47.245 57.768L 169.694 32.897"/>
<path style="stroke:#000000; stroke-width:1.91229; fill:none" d="M 161.819 32.541L 169.694 32.893L 162.581 36.287"/>
<path style="stroke:none; fill-rule:evenodd; fill:#000000" d="M 184.19 121.889L 185.588 121.889L 185.588 120.491L 184.19 120.491L 184.19 121.889z"/>
<path style="stroke:none; fill-rule:evenodd; fill:#000000" d="M 187.889 121.889L 189.288 121.889L 189.288 120.491L 187.889 120.491L 187.889 121.889z"/>
<path style="stroke:none; fill-rule:evenodd; fill:#000000" d="M 191.588 121.889L 192.987 121.889L 192.987 120.491L 191.588 120.491L 191.588 121.889z"/>
<path style="stroke:none; fill-rule:evenodd; fill:#000000" d="M 184.19 74.092L 185.588 74.092L 185.588 72.694L 184.19 72.694L 184.19 74.092z"/>
<path style="stroke:none; fill-rule:evenodd; fill:#000000" d="M 187.889 74.092L 189.288 74.092L 189.288 72.694L 187.889 72.694L 187.889 74.092z"/>
<path style="stroke:none; fill-rule:evenodd; fill:#000000" d="M 191.588 74.092L 192.987 74.092L 192.987 72.694L 191.588 72.694L 191.588 74.092z"/>
<path style="stroke:none; fill-rule:evenodd; fill:#000000" d="M 184.19 26.291L 185.588 26.291L 185.588 24.893L 184.19 24.893L 184.19 26.291z"/>
<path style="stroke:none; fill-rule:evenodd; fill:#000000" d="M 187.889 26.291L 189.288 26.291L 189.288 24.893L 187.889 24.893L 187.889 26.291z"/>
<path style="stroke:none; fill-rule:evenodd; fill:#000000" d="M 191.588 26.291L 192.987 26.291L 192.987 24.893L 191.588 24.893L 191.588 26.291z"/>
<path style="stroke:#000000; stroke-width:1.91229; fill:none" d="M 44.456 51.381C 44.456 47.58 36.749 44.498 27.241 44.498C 17.733 44.498 10.026 47.58 10.026 51.381C 10.026 55.182 17.733 58.264 27.241 58.264C 36.749 58.264 44.456 55.182 44.456 51.381"/>
<path style="stroke:#000000; stroke-width:1.91229; fill:none" d="M 10.022 51.381C 10.022 51.381 10.022 51.381 10.975 51.569C 11.928 51.756 13.842 52.139 15.565 52.651C 17.284 53.159 18.815 53.795 19.901 54.561C 20.983 55.323 21.62 56.217 22.131 57.299C 22.639 58.381 23.022 59.655 23.534 60.869C 24.042 62.08 24.678 63.225 25.19 63.866C 25.698 64.502 26.081 64.627 26.655 64.694C 27.225 64.756 27.991 64.756 28.565 64.506C 29.135 64.252 29.518 63.744 29.901 62.912C 30.28 62.084 30.663 60.936 30.983 59.854C 31.299 58.772 31.553 57.752 31.874 56.858C 32.19 55.967 32.573 55.201 33.659 54.311C 34.741 53.42 36.526 52.401 38.44 51.76C 40.35 51.123 42.393 50.869 43.413 50.741C 44.432 50.616 44.432 50.616 44.432 50.616"/>
<path style="stroke:#000000; stroke-width:1.91229; fill:none" d="M 23.795 44.877C 23.795 44.877 23.795 44.877 23.983 45.194C 24.17 45.51 24.553 46.147 24.936 47.17C 25.319 48.19 25.698 49.592 25.956 50.741C 26.21 51.885 26.335 52.78 26.335 54.819C 26.335 56.858 26.21 60.045 26.335 61.893C 26.46 63.741 26.842 64.248 27.034 64.506C 27.221 64.76 27.221 64.76 27.35 64.569C 27.475 64.381 27.733 63.998 27.92 63.487C 28.108 62.979 28.237 62.342 28.303 61.639C 28.366 60.94 28.366 60.174 28.366 59.409C 28.366 58.647 28.366 57.881 28.491 57.432C 28.616 56.987 28.87 56.862 29.252 56.862C 29.635 56.862 30.143 56.987 30.655 57.178C 31.163 57.366 31.674 57.623 32.057 57.748C 32.436 57.873 32.694 57.873 32.819 57.873C 32.944 57.873 32.944 57.873 32.944 57.873"/>
<path style="stroke:#000000; stroke-width:0.95614500000000002; fill:none" d="M 32.213 47.94C 32.213 47.94 32.213 47.94 31.323 48.256C 30.432 48.573 28.647 49.209 27.178 49.912C 25.713 50.612 24.565 51.377 23.608 52.205C 22.655 53.034 21.889 53.924 21.569 54.69C 21.252 55.451 21.381 56.092 21.823 56.6C 22.268 57.108 23.034 57.491 24.053 57.811C 25.073 58.127 26.346 58.381 27.303 58.448C 28.256 58.51 28.897 58.385 29.471 58.385C 30.042 58.385 30.553 58.51 30.553 58.639C 30.553 58.764 30.045 58.893 29.28 59.084C 28.518 59.272 27.499 59.53 26.795 59.846C 26.096 60.162 25.713 60.545 25.522 60.991C 25.335 61.436 25.335 61.944 25.522 62.393C 25.71 62.838 26.092 63.221 26.542 63.412C 26.987 63.6 27.495 63.6 27.944 63.537C 28.389 63.475 28.772 63.35 28.581 63.475C 28.393 63.6 27.628 63.983 27.245 64.174C 26.862 64.362 26.862 64.362 26.862 64.362"/>
<path style="stroke:#000000; stroke-width:0.95614500000000002; fill:none" d="M 34.553 62.678L 26.858 64.389L 32.842 59.26"/>
<path style="stroke:#000000; stroke-width:0.95614500000000002; fill:none" d="M 22.264 53.678L 23.026 52.534"/>
<path style="stroke:#000000; stroke-width:0.95614500000000002; fill:none" d="M 28.1 48.373L 22.268 53.674L 24.917 46.252"/>
<path style="stroke:#000000; stroke-width:0.95614500000000002; fill:none" d="M 27.241 49.854L 28.385 49.475"/>
<path style="stroke:#000000; stroke-width:0.95614500000000002; fill:none" d="M 35.1 49.248L 27.241 49.85L 33.889 45.619"/>
<path style="stroke:#000000; stroke-width:1.91229; fill:none" d="M 207.081 50.428C 207.081 46.627 199.374 43.545 189.866 43.545C 180.358 43.545 172.651 46.627 172.651 50.428C 172.651 54.229 180.358 57.311 189.866 57.311C 199.374 57.311 207.081 54.229 207.081 50.428"/>
<path style="stroke:#000000; stroke-width:1.91229; fill:none" d="M 172.651 50.428C 172.651 50.428 172.651 50.428 173.604 50.616C 174.557 50.803 176.471 51.186 178.194 51.698C 179.913 52.205 181.444 52.842 182.53 53.608C 183.612 54.369 184.249 55.264 184.76 56.346C 185.268 57.428 185.651 58.701 186.163 59.916C 186.67 61.127 187.307 62.272 187.819 62.912C 188.327 63.549 188.71 63.674 189.284 63.741C 189.854 63.803 190.62 63.803 191.194 63.553C 191.764 63.299 192.147 62.791 192.53 61.959C 192.909 61.131 193.292 59.983 193.612 58.901C 193.928 57.819 194.182 56.799 194.502 55.905C 194.819 55.014 195.202 54.248 196.288 53.358C 197.37 52.467 199.155 51.448 201.069 50.807C 202.979 50.17 205.022 49.916 206.042 49.787C 207.061 49.662 207.061 49.662 207.061 49.662"/>
<path style="stroke:#000000; stroke-width:1.91229; fill:none" d="M 186.42 43.924C 186.42 43.924 186.42 43.924 186.608 44.241C 186.795 44.557 187.178 45.194 187.561 46.217C 187.944 47.237 188.323 48.639 188.581 49.787C 188.835 50.932 188.96 51.827 188.96 53.866C 188.96 55.905 188.835 59.092 188.96 60.94C 189.085 62.787 189.467 63.295 189.659 63.553C 189.846 63.807 189.846 63.807 189.975 63.616C 190.1 63.428 190.358 63.045 190.545 62.534C 190.733 62.026 190.862 61.389 190.928 60.686C 190.991 59.987 190.991 59.221 190.991 58.455C 190.991 57.694 190.991 56.928 191.116 56.479C 191.241 56.034 191.495 55.909 191.878 55.909C 192.26 55.909 192.768 56.034 193.28 56.225C 193.788 56.412 194.299 56.67 194.682 56.795C 195.061 56.92 195.319 56.92 195.444 56.92C 195.569 56.92 195.569 56.92 195.569 56.92"/>
<path style="stroke:#000000; stroke-width:0.95614500000000002; fill:none" d="M 194.838 46.987C 194.838 46.987 194.838 46.987 193.948 47.303C 193.057 47.619 191.272 48.256 189.803 48.959C 188.338 49.659 187.19 50.424 186.233 51.252C 185.28 52.08 184.514 52.971 184.194 53.737C 183.878 54.498 184.006 55.139 184.448 55.647C 184.893 56.155 185.659 56.537 186.678 56.858C 187.698 57.174 188.971 57.428 189.928 57.494C 190.881 57.557 191.522 57.432 192.096 57.432C 192.667 57.432 193.178 57.557 193.178 57.686C 193.178 57.811 192.67 57.94 191.905 58.131C 191.143 58.319 190.124 58.577 189.42 58.893C 188.721 59.209 188.338 59.592 188.147 60.037C 187.96 60.483 187.96 60.991 188.147 61.44C 188.335 61.885 188.717 62.268 189.167 62.459C 189.612 62.647 190.12 62.647 190.569 62.584C 191.014 62.522 191.397 62.397 191.206 62.522C 191.018 62.647 190.252 63.03 189.87 63.221C 189.487 63.409 189.487 63.409 189.487 63.409"/>
<path style="stroke:#000000; stroke-width:0.95614500000000002; fill:none" d="M 197.178 61.729L 189.483 63.44L 195.467 58.311"/>
<path style="stroke:#000000; stroke-width:0.95614500000000002; fill:none" d="M 184.893 52.725L 185.655 51.58"/>
<path style="stroke:#000000; stroke-width:0.95614500000000002; fill:none" d="M 190.725 47.42L 184.893 52.721L 187.542 45.299"/>
<path style="stroke:#000000; stroke-width:0.95614500000000002; fill:none" d="M 189.866 48.901L 191.01 48.522"/>
<path style="stroke:#000000; stroke-width:0.95614500000000002; fill:none" d="M 197.725 48.295L 189.866 48.897L 196.514 44.666"/>
</g>
</svg>