<?xml version="1.0" encoding="UTF-8" standalone="no"?>
<svg
   xmlns:dc="http://purl.org/dc/elements/1.1/"
   xmlns:cc="http://creativecommons.org/ns#"
   xmlns:rdf="http://www.w3.org/1999/02/22-rdf-syntax-ns#"
   xmlns:svg="http://www.w3.org/2000/svg"
   xmlns="http://www.w3.org/2000/svg"
   xmlns:sodipodi="http://sodipodi.sourceforge.net/DTD/sodipodi-0.dtd"
   xmlns:inkscape="http://www.inkscape.org/namespaces/inkscape"
   width="337.972"
   height="143.957"
   id="svg2"
   version="1.1"
   inkscape:version="0.47 r22583"
   sodipodi:docname="fig_pat_complete.svg"
   inkscape:export-filename="/Users/oreilly/svn_docs/figs/fig_pat_complete.png"
   inkscape:export-xdpi="149.88742"
   inkscape:export-ydpi="149.88742">
  <metadata
     id="metadata480">
    <rdf:RDF>
      <cc:Work
         rdf:about="">
        <dc:format>image/svg+xml</dc:format>
        <dc:type
           rdf:resource="http://purl.org/dc/dcmitype/StillImage" />
        <dc:title></dc:title>
      </cc:Work>
    </rdf:RDF>
  </metadata>
  <sodipodi:namedview
     pagecolor="#ffffff"
     bordercolor="#666666"
     borderopacity="1"
     objecttolerance="10"
     gridtolerance="10"
     guidetolerance="10"
     inkscape:pageopacity="0"
     inkscape:pageshadow="2"
     inkscape:window-width="1298"
     inkscape:window-height="936"
     id="namedview478"
     showgrid="false"
     inkscape:zoom="1.5948067"
     inkscape:cx="168.98599"
     inkscape:cy="71.9785"
     inkscape:window-x="0"
     inkscape:window-y="0"
     inkscape:window-maximized="0"
     inkscape:current-layer="svg2" />
  <defs
     id="defs4">
    <inkscape:perspective
       sodipodi:type="inkscape:persp3d"
       inkscape:vp_x="0 : 71.9785 : 1"
       inkscape:vp_y="0 : 1000 : 0"
       inkscape:vp_z="337.97198 : 71.9785 : 1"
       inkscape:persp3d-origin="168.98599 : 47.985667 : 1"
       id="perspective482" />
    <marker
       id="ArrowEnd"
       viewBox="0 0 10 10"
       refX="0"
       refY="5"
       markerUnits="strokeWidth"
       markerWidth="4"
       markerHeight="3"
       orient="auto">
      <path
         d="M 0 0 L 10 5 L 0 10 z"
         id="path7" />
    </marker>
    <marker
       id="ArrowStart"
       viewBox="0 0 10 10"
       refX="10"
       refY="5"
       markerUnits="strokeWidth"
       markerWidth="4"
       markerHeight="3"
       orient="auto">
      <path
         d="M 10 0 L 0 5 L 10 10 z"
         id="path10" />
    </marker>
  </defs>
  <g
     id="g12">
    <path
       style="stroke:none; fill-rule:evenodd; fill:#ffffff"
       d="M 0.524084 143.248L 336.786 143.248L 336.786 1.66664L 0.524084 1.66664L 0.524084 143.248z"
       id="path14" />
    <path
       style="stroke:#ffffff; stroke-width:0.10000000000000001; fill:none"
       d="M 0.524084 143.248L 336.786 143.248L 336.786 1.66664L 0.524084 1.66664L 0.524084 143.248z"
       id="path16" />
    <path
       style="stroke:#000000; stroke-width:0.95664899999999997; fill:none"
       d="M 160.762 71.9786C 160.762 34.9986 129.926 5.01364 91.8831 5.01364C 53.8444 5.01364 23.0045 34.9946 23.0045 71.9786C 23.0045 108.959 53.8405 138.943 91.8831 138.943C 129.922 138.943 160.762 108.963 160.762 71.9786"
       id="path18" />
    <path
       style="stroke:none; fill-rule:evenodd; fill:#ffff00"
       d="M 67.778 45.1936C 67.778 42.6586 65.7233 40.6036 63.1881 40.6036C 60.653 40.6036 58.5983 42.6586 58.5983 45.1936C 58.5983 47.7286 60.653 49.7836 63.1881 49.7836C 65.7233 49.7836 67.778 47.7286 67.778 45.1936"
       id="path20" />
    <path
       style="stroke:#000000; stroke-width:0.95664899999999997; fill:none"
       d="M 67.778 45.1936C 67.778 42.6586 65.7233 40.6036 63.1881 40.6036C 60.653 40.6036 58.5983 42.6586 58.5983 45.1936C 58.5983 47.7286 60.653 49.7836 63.1881 49.7836C 65.7233 49.7836 67.778 47.7286 67.778 45.1936"
       id="path22" />
    <path
       style="stroke:none; fill-rule:evenodd; fill:#ffff00"
       d="M 67.778 98.7638C 67.778 96.2286 65.7233 94.1739 63.1881 94.1739C 60.653 94.1739 58.5983 96.2286 58.5983 98.7638C 58.5983 101.299 60.653 103.354 63.1881 103.354C 65.7233 103.354 67.778 101.299 67.778 98.7638"
       id="path24" />
    <path
       style="stroke:#000000; stroke-width:0.95664899999999997; fill:none"
       d="M 67.778 98.7638C 67.778 96.2286 65.7233 94.1739 63.1881 94.1739C 60.653 94.1739 58.5983 96.2286 58.5983 98.7638C 58.5983 101.299 60.653 103.354 63.1881 103.354C 65.7233 103.354 67.778 101.299 67.778 98.7638"
       id="path26" />
    <path
       style="stroke:none; fill-rule:evenodd; fill:#ffa400"
       d="M 79.2545 58.5836C 79.2545 56.0486 77.1999 53.9946 74.6647 53.9946C 72.1295 53.9946 70.0749 56.0486 70.0749 58.5836C 70.0749 61.1196 72.1295 63.1736 74.6647 63.1736C 77.1999 63.1736 79.2545 61.1196 79.2545 58.5836"
       id="path28" />
    <path
       style="stroke:#000000; stroke-width:0.95664899999999997; fill:none"
       d="M 79.2545 58.5836C 79.2545 56.0486 77.1999 53.9946 74.6647 53.9946C 72.1295 53.9946 70.0749 56.0486 70.0749 58.5836C 70.0749 61.1196 72.1295 63.1736 74.6647 63.1736C 77.1999 63.1736 79.2545 61.1196 79.2545 58.5836"
       id="path30" />
    <path
       style="stroke:none; fill-rule:evenodd; fill:#ffa400"
       d="M 79.2545 85.3731C 79.2545 82.838 77.1999 80.7833 74.6647 80.7833C 72.1295 80.7833 70.0749 82.838 70.0749 85.3731C 70.0749 87.9083 72.1295 89.963 74.6647 89.963C 77.1999 89.963 79.2545 87.9083 79.2545 85.3731"
       id="path32" />
    <path
       style="stroke:#000000; stroke-width:0.95664899999999997; fill:none"
       d="M 79.2545 85.3731C 79.2545 82.838 77.1999 80.7833 74.6647 80.7833C 72.1295 80.7833 70.0749 82.838 70.0749 85.3731C 70.0749 87.9083 72.1295 89.963 74.6647 89.963C 77.1999 89.963 79.2545 87.9083 79.2545 85.3731"
       id="path34" />
    <path
       style="stroke:none; fill-rule:evenodd; fill:#ffff00"
       d="M 79.2545 112.158C 79.2545 109.623 77.1999 107.568 74.6647 107.568C 72.1295 107.568 70.0749 109.623 70.0749 112.158C 70.0749 114.693 72.1295 116.748 74.6647 116.748C 77.1999 116.748 79.2545 114.693 79.2545 112.158"
       id="path36" />
    <path
       style="stroke:#000000; stroke-width:0.95664899999999997; fill:none"
       d="M 79.2545 112.158C 79.2545 109.623 77.1999 107.568 74.6647 107.568C 72.1295 107.568 70.0749 109.623 70.0749 112.158C 70.0749 114.693 72.1295 116.748 74.6647 116.748C 77.1999 116.748 79.2545 114.693 79.2545 112.158"
       id="path38" />
    <path
       style="stroke:none; fill-rule:evenodd; fill:#ffff00"
       d="M 79.2545 31.7986C 79.2545 29.2636 77.1999 27.2086 74.6647 27.2086C 72.1295 27.2086 70.0749 29.2636 70.0749 31.7986C 70.0749 34.3336 72.1295 36.3886 74.6647 36.3886C 77.1999 36.3886 79.2545 34.3336 79.2545 31.7986"
       id="path40" />
    <path
       style="stroke:#000000; stroke-width:0.95664899999999997; fill:none"
       d="M 79.2545 31.7986C 79.2545 29.2636 77.1999 27.2086 74.6647 27.2086C 72.1295 27.2086 70.0749 29.2636 70.0749 31.7986C 70.0749 34.3336 72.1295 36.3886 74.6647 36.3886C 77.1999 36.3886 79.2545 34.3336 79.2545 31.7986"
       id="path42" />
    <path
       style="stroke:none; fill-rule:evenodd; fill:#ffa400"
       d="M 90.7351 98.7638C 90.7351 96.2286 88.6803 94.1739 86.1452 94.1739C 83.61 94.1739 81.5553 96.2286 81.5553 98.7638C 81.5553 101.299 83.61 103.354 86.1452 103.354C 88.6803 103.354 90.7351 101.299 90.7351 98.7638"
       id="path44" />
    <path
       style="stroke:#000000; stroke-width:0.95664899999999997; fill:none"
       d="M 90.7351 98.7638C 90.7351 96.2286 88.6803 94.1739 86.1452 94.1739C 83.61 94.1739 81.5553 96.2286 81.5553 98.7638C 81.5553 101.299 83.61 103.354 86.1452 103.354C 88.6803 103.354 90.7351 101.299 90.7351 98.7638"
       id="path46" />
    <path
       style="stroke:none; fill-rule:evenodd; fill:#ffff00"
       d="M 90.7351 112.158C 90.7351 109.623 88.6803 107.568 86.1452 107.568C 83.61 107.568 81.5553 109.623 81.5553 112.158C 81.5553 114.693 83.61 116.748 86.1452 116.748C 88.6803 116.748 90.7351 114.693 90.7351 112.158"
       id="path48" />
    <path
       style="stroke:#000000; stroke-width:0.95664899999999997; fill:none"
       d="M 90.7351 112.158C 90.7351 109.623 88.6803 107.568 86.1452 107.568C 83.61 107.568 81.5553 109.623 81.5553 112.158C 81.5553 114.693 83.61 116.748 86.1452 116.748C 88.6803 116.748 90.7351 114.693 90.7351 112.158"
       id="path50" />
    <path
       style="stroke:none; fill-rule:evenodd; fill:#ffff00"
       d="M 90.7351 31.7986C 90.7351 29.2636 88.6803 27.2086 86.1452 27.2086C 83.61 27.2086 81.5553 29.2636 81.5553 31.7986C 81.5553 34.3336 83.61 36.3886 86.1452 36.3886C 88.6803 36.3886 90.7351 34.3336 90.7351 31.7986"
       id="path52" />
    <path
       style="stroke:#000000; stroke-width:0.95664899999999997; fill:none"
       d="M 90.7351 31.7986C 90.7351 29.2636 88.6803 27.2086 86.1452 27.2086C 83.61 27.2086 81.5553 29.2636 81.5553 31.7986C 81.5553 34.3336 83.61 36.3886 86.1452 36.3886C 88.6803 36.3886 90.7351 34.3336 90.7351 31.7986"
       id="path54" />
    <path
       style="stroke:none; fill-rule:evenodd; fill:#ffff00"
       d="M 56.2975 58.5836C 56.2975 56.0486 54.2428 53.9946 51.7077 53.9946C 49.1725 53.9946 47.1178 56.0486 47.1178 58.5836C 47.1178 61.1196 49.1725 63.1736 51.7077 63.1736C 54.2428 63.1736 56.2975 61.1196 56.2975 58.5836"
       id="path56" />
    <path
       style="stroke:#000000; stroke-width:0.95664899999999997; fill:none"
       d="M 56.2975 58.5836C 56.2975 56.0486 54.2428 53.9946 51.7077 53.9946C 49.1725 53.9946 47.1178 56.0486 47.1178 58.5836C 47.1178 61.1196 49.1725 63.1736 51.7077 63.1736C 54.2428 63.1736 56.2975 61.1196 56.2975 58.5836"
       id="path58" />
    <path
       style="stroke:none; fill-rule:evenodd; fill:#ffff00"
       d="M 56.2975 71.9786C 56.2975 69.4434 54.2428 67.3888 51.7077 67.3888C 49.1725 67.3888 47.1178 69.4434 47.1178 71.9786C 47.1178 74.5138 49.1725 76.5684 51.7077 76.5684C 54.2428 76.5684 56.2975 74.5138 56.2975 71.9786"
       id="path60" />
    <path
       style="stroke:#000000; stroke-width:0.95664899999999997; fill:none"
       d="M 56.2975 71.9786C 56.2975 69.4434 54.2428 67.3888 51.7077 67.3888C 49.1725 67.3888 47.1178 69.4434 47.1178 71.9786C 47.1178 74.5138 49.1725 76.5684 51.7077 76.5684C 54.2428 76.5684 56.2975 74.5138 56.2975 71.9786"
       id="path62" />
    <path
       style="stroke:none; fill-rule:evenodd; fill:#ffff00"
       d="M 56.2975 85.3731C 56.2975 82.838 54.2428 80.7833 51.7077 80.7833C 49.1725 80.7833 47.1178 82.838 47.1178 85.3731C 47.1178 87.9083 49.1725 89.963 51.7077 89.963C 54.2428 89.963 56.2975 87.9083 56.2975 85.3731"
       id="path64" />
    <path
       style="stroke:#000000; stroke-width:0.95664899999999997; fill:none"
       d="M 56.2975 85.3731C 56.2975 82.838 54.2428 80.7833 51.7077 80.7833C 49.1725 80.7833 47.1178 82.838 47.1178 85.3731C 47.1178 87.9083 49.1725 89.963 51.7077 89.963C 54.2428 89.963 56.2975 87.9083 56.2975 85.3731"
       id="path66" />
    <path
       style="stroke:none; fill-rule:evenodd; fill:#7e7e7e"
       d="M 67.778 58.5836C 67.778 56.0486 65.7233 53.9946 63.1881 53.9946C 60.653 53.9946 58.5983 56.0486 58.5983 58.5836C 58.5983 61.1196 60.653 63.1736 63.1881 63.1736C 65.7233 63.1736 67.778 61.1196 67.778 58.5836"
       id="path68" />
    <path
       style="stroke:#000000; stroke-width:0.95664899999999997; fill:none"
       d="M 67.778 58.5836C 67.778 56.0486 65.7233 53.9946 63.1881 53.9946C 60.653 53.9946 58.5983 56.0486 58.5983 58.5836C 58.5983 61.1196 60.653 63.1736 63.1881 63.1736C 65.7233 63.1736 67.778 61.1196 67.778 58.5836"
       id="path70" />
    <path
       style="stroke:none; fill-rule:evenodd; fill:#7e7e7e"
       d="M 67.778 71.9786C 67.778 69.4434 65.7233 67.3888 63.1881 67.3888C 60.653 67.3888 58.5983 69.4434 58.5983 71.9786C 58.5983 74.5138 60.653 76.5684 63.1881 76.5684C 65.7233 76.5684 67.778 74.5138 67.778 71.9786"
       id="path72" />
    <path
       style="stroke:#000000; stroke-width:0.95664899999999997; fill:none"
       d="M 67.778 71.9786C 67.778 69.4434 65.7233 67.3888 63.1881 67.3888C 60.653 67.3888 58.5983 69.4434 58.5983 71.9786C 58.5983 74.5138 60.653 76.5684 63.1881 76.5684C 65.7233 76.5684 67.778 74.5138 67.778 71.9786"
       id="path74" />
    <path
       style="stroke:none; fill-rule:evenodd; fill:#7e7e7e"
       d="M 67.778 85.3731C 67.778 82.838 65.7233 80.7833 63.1881 80.7833C 60.653 80.7833 58.5983 82.838 58.5983 85.3731C 58.5983 87.9083 60.653 89.963 63.1881 89.963C 65.7233 89.963 67.778 87.9083 67.778 85.3731"
       id="path76" />
    <path
       style="stroke:#000000; stroke-width:0.95664899999999997; fill:none"
       d="M 67.778 85.3731C 67.778 82.838 65.7233 80.7833 63.1881 80.7833C 60.653 80.7833 58.5983 82.838 58.5983 85.3731C 58.5983 87.9083 60.653 89.963 63.1881 89.963C 65.7233 89.963 67.778 87.9083 67.778 85.3731"
       id="path78" />
    <path
       style="stroke:none; fill-rule:evenodd; fill:#7e7e7e"
       d="M 67.778 112.158C 67.778 109.623 65.7233 107.568 63.1881 107.568C 60.653 107.568 58.5983 109.623 58.5983 112.158C 58.5983 114.693 60.653 116.748 63.1881 116.748C 65.7233 116.748 67.778 114.693 67.778 112.158"
       id="path80" />
    <path
       style="stroke:#000000; stroke-width:0.95664899999999997; fill:none"
       d="M 67.778 112.158C 67.778 109.623 65.7233 107.568 63.1881 107.568C 60.653 107.568 58.5983 109.623 58.5983 112.158C 58.5983 114.693 60.653 116.748 63.1881 116.748C 65.7233 116.748 67.778 114.693 67.778 112.158"
       id="path82" />
    <path
       style="stroke:none; fill-rule:evenodd; fill:#7e7e7e"
       d="M 67.778 31.7986C 67.778 29.2636 65.7233 27.2086 63.1881 27.2086C 60.653 27.2086 58.5983 29.2636 58.5983 31.7986C 58.5983 34.3336 60.653 36.3886 63.1881 36.3886C 65.7233 36.3886 67.778 34.3336 67.778 31.7986"
       id="path84" />
    <path
       style="stroke:#000000; stroke-width:0.95664899999999997; fill:none"
       d="M 67.778 31.7986C 67.778 29.2636 65.7233 27.2086 63.1881 27.2086C 60.653 27.2086 58.5983 29.2636 58.5983 31.7986C 58.5983 34.3336 60.653 36.3886 63.1881 36.3886C 65.7233 36.3886 67.778 34.3336 67.778 31.7986"
       id="path86" />
    <path
       style="stroke:none; fill-rule:evenodd; fill:#7e7e7e"
       d="M 79.2545 45.1936C 79.2545 42.6586 77.1999 40.6036 74.6647 40.6036C 72.1295 40.6036 70.0749 42.6586 70.0749 45.1936C 70.0749 47.7286 72.1295 49.7836 74.6647 49.7836C 77.1999 49.7836 79.2545 47.7286 79.2545 45.1936"
       id="path88" />
    <path
       style="stroke:#000000; stroke-width:0.95664899999999997; fill:none"
       d="M 79.2545 45.1936C 79.2545 42.6586 77.1999 40.6036 74.6647 40.6036C 72.1295 40.6036 70.0749 42.6586 70.0749 45.1936C 70.0749 47.7286 72.1295 49.7836 74.6647 49.7836C 77.1999 49.7836 79.2545 47.7286 79.2545 45.1936"
       id="path90" />
    <path
       style="stroke:none; fill-rule:evenodd; fill:#7e7e7e"
       d="M 79.2545 71.9786C 79.2545 69.4434 77.1999 67.3888 74.6647 67.3888C 72.1295 67.3888 70.0749 69.4434 70.0749 71.9786C 70.0749 74.5138 72.1295 76.5684 74.6647 76.5684C 77.1999 76.5684 79.2545 74.5138 79.2545 71.9786"
       id="path92" />
    <path
       style="stroke:#000000; stroke-width:0.95664899999999997; fill:none"
       d="M 79.2545 71.9786C 79.2545 69.4434 77.1999 67.3888 74.6647 67.3888C 72.1295 67.3888 70.0749 69.4434 70.0749 71.9786C 70.0749 74.5138 72.1295 76.5684 74.6647 76.5684C 77.1999 76.5684 79.2545 74.5138 79.2545 71.9786"
       id="path94" />
    <path
       style="stroke:none; fill-rule:evenodd; fill:#7e7e7e"
       d="M 79.2545 98.7638C 79.2545 96.2286 77.1999 94.1739 74.6647 94.1739C 72.1295 94.1739 70.0749 96.2286 70.0749 98.7638C 70.0749 101.299 72.1295 103.354 74.6647 103.354C 77.1999 103.354 79.2545 101.299 79.2545 98.7638"
       id="path96" />
    <path
       style="stroke:#000000; stroke-width:0.95664899999999997; fill:none"
       d="M 79.2545 98.7638C 79.2545 96.2286 77.1999 94.1739 74.6647 94.1739C 72.1295 94.1739 70.0749 96.2286 70.0749 98.7638C 70.0749 101.299 72.1295 103.354 74.6647 103.354C 77.1999 103.354 79.2545 101.299 79.2545 98.7638"
       id="path98" />
    <path
       style="stroke:none; fill-rule:evenodd; fill:#7e7e7e"
       d="M 90.7351 45.1936C 90.7351 42.6586 88.6803 40.6036 86.1452 40.6036C 83.61 40.6036 81.5553 42.6586 81.5553 45.1936C 81.5553 47.7286 83.61 49.7836 86.1452 49.7836C 88.6803 49.7836 90.7351 47.7286 90.7351 45.1936"
       id="path100" />
    <path
       style="stroke:#000000; stroke-width:0.95664899999999997; fill:none"
       d="M 90.7351 45.1936C 90.7351 42.6586 88.6803 40.6036 86.1452 40.6036C 83.61 40.6036 81.5553 42.6586 81.5553 45.1936C 81.5553 47.7286 83.61 49.7836 86.1452 49.7836C 88.6803 49.7836 90.7351 47.7286 90.7351 45.1936"
       id="path102" />
    <path
       style="stroke:none; fill-rule:evenodd; fill:#7e7e7e"
       d="M 90.7351 58.5836C 90.7351 56.0486 88.6803 53.9946 86.1452 53.9946C 83.61 53.9946 81.5553 56.0486 81.5553 58.5836C 81.5553 61.1196 83.61 63.1736 86.1452 63.1736C 88.6803 63.1736 90.7351 61.1196 90.7351 58.5836"
       id="path104" />
    <path
       style="stroke:#000000; stroke-width:0.95664899999999997; fill:none"
       d="M 90.7351 58.5836C 90.7351 56.0486 88.6803 53.9946 86.1452 53.9946C 83.61 53.9946 81.5553 56.0486 81.5553 58.5836C 81.5553 61.1196 83.61 63.1736 86.1452 63.1736C 88.6803 63.1736 90.7351 61.1196 90.7351 58.5836"
       id="path106" />
    <path
       style="stroke:none; fill-rule:evenodd; fill:#7e7e7e"
       d="M 90.7351 71.9786C 90.7351 69.4434 88.6803 67.3888 86.1452 67.3888C 83.61 67.3888 81.5553 69.4434 81.5553 71.9786C 81.5553 74.5138 83.61 76.5684 86.1452 76.5684C 88.6803 76.5684 90.7351 74.5138 90.7351 71.9786"
       id="path108" />
    <path
       style="stroke:#000000; stroke-width:0.95664899999999997; fill:none"
       d="M 90.7351 71.9786C 90.7351 69.4434 88.6803 67.3888 86.1452 67.3888C 83.61 67.3888 81.5553 69.4434 81.5553 71.9786C 81.5553 74.5138 83.61 76.5684 86.1452 76.5684C 88.6803 76.5684 90.7351 74.5138 90.7351 71.9786"
       id="path110" />
    <path
       style="stroke:none; fill-rule:evenodd; fill:#7e7e7e"
       d="M 90.7351 85.3731C 90.7351 82.838 88.6803 80.7833 86.1452 80.7833C 83.61 80.7833 81.5553 82.838 81.5553 85.3731C 81.5553 87.9083 83.61 89.963 86.1452 89.963C 88.6803 89.963 90.7351 87.9083 90.7351 85.3731"
       id="path112" />
    <path
       style="stroke:#000000; stroke-width:0.95664899999999997; fill:none"
       d="M 90.7351 85.3731C 90.7351 82.838 88.6803 80.7833 86.1452 80.7833C 83.61 80.7833 81.5553 82.838 81.5553 85.3731C 81.5553 87.9083 83.61 89.963 86.1452 89.963C 88.6803 89.963 90.7351 87.9083 90.7351 85.3731"
       id="path114" />
    <path
       style="stroke:none; fill-rule:evenodd; fill:#7e7e7e"
       d="M 102.215 45.1936C 102.215 42.6586 100.161 40.6036 97.6261 40.6036C 95.0901 40.6036 93.0361 42.6586 93.0361 45.1936C 93.0361 47.7286 95.0901 49.7836 97.6261 49.7836C 100.161 49.7836 102.215 47.7286 102.215 45.1936"
       id="path116" />
    <path
       style="stroke:#000000; stroke-width:0.95664899999999997; fill:none"
       d="M 102.215 45.1936C 102.215 42.6586 100.161 40.6036 97.6261 40.6036C 95.0901 40.6036 93.0361 42.6586 93.0361 45.1936C 93.0361 47.7286 95.0901 49.7836 97.6261 49.7836C 100.161 49.7836 102.215 47.7286 102.215 45.1936"
       id="path118" />
    <path
       style="stroke:none; fill-rule:evenodd; fill:#7e7e7e"
       d="M 102.215 58.5836C 102.215 56.0486 100.161 53.9946 97.6261 53.9946C 95.0901 53.9946 93.0361 56.0486 93.0361 58.5836C 93.0361 61.1196 95.0901 63.1736 97.6261 63.1736C 100.161 63.1736 102.215 61.1196 102.215 58.5836"
       id="path120" />
    <path
       style="stroke:#000000; stroke-width:0.95664899999999997; fill:none"
       d="M 102.215 58.5836C 102.215 56.0486 100.161 53.9946 97.6261 53.9946C 95.0901 53.9946 93.0361 56.0486 93.0361 58.5836C 93.0361 61.1196 95.0901 63.1736 97.6261 63.1736C 100.161 63.1736 102.215 61.1196 102.215 58.5836"
       id="path122" />
    <path
       style="stroke:none; fill-rule:evenodd; fill:#7e7e7e"
       d="M 102.215 71.9786C 102.215 69.4434 100.161 67.3888 97.6261 67.3888C 95.0901 67.3888 93.0361 69.4434 93.0361 71.9786C 93.0361 74.5138 95.0901 76.5684 97.6261 76.5684C 100.161 76.5684 102.215 74.5138 102.215 71.9786"
       id="path124" />
    <path
       style="stroke:#000000; stroke-width:0.95664899999999997; fill:none"
       d="M 102.215 71.9786C 102.215 69.4434 100.161 67.3888 97.6261 67.3888C 95.0901 67.3888 93.0361 69.4434 93.0361 71.9786C 93.0361 74.5138 95.0901 76.5684 97.6261 76.5684C 100.161 76.5684 102.215 74.5138 102.215 71.9786"
       id="path126" />
    <path
       style="stroke:none; fill-rule:evenodd; fill:#7e7e7e"
       d="M 102.215 85.3731C 102.215 82.838 100.161 80.7833 97.6261 80.7833C 95.0901 80.7833 93.0361 82.838 93.0361 85.3731C 93.0361 87.9083 95.0901 89.963 97.6261 89.963C 100.161 89.963 102.215 87.9083 102.215 85.3731"
       id="path128" />
    <path
       style="stroke:#000000; stroke-width:0.95664899999999997; fill:none"
       d="M 102.215 85.3731C 102.215 82.838 100.161 80.7833 97.6261 80.7833C 95.0901 80.7833 93.0361 82.838 93.0361 85.3731C 93.0361 87.9083 95.0901 89.963 97.6261 89.963C 100.161 89.963 102.215 87.9083 102.215 85.3731"
       id="path130" />
    <path
       style="stroke:none; fill-rule:evenodd; fill:#7e7e7e"
       d="M 102.215 98.7638C 102.215 96.2286 100.161 94.1739 97.6261 94.1739C 95.0901 94.1739 93.0361 96.2286 93.0361 98.7638C 93.0361 101.299 95.0901 103.354 97.6261 103.354C 100.161 103.354 102.215 101.299 102.215 98.7638"
       id="path132" />
    <path
       style="stroke:#000000; stroke-width:0.95664899999999997; fill:none"
       d="M 102.215 98.7638C 102.215 96.2286 100.161 94.1739 97.6261 94.1739C 95.0901 94.1739 93.0361 96.2286 93.0361 98.7638C 93.0361 101.299 95.0901 103.354 97.6261 103.354C 100.161 103.354 102.215 101.299 102.215 98.7638"
       id="path134" />
    <path
       style="stroke:none; fill-rule:evenodd; fill:#7e7e7e"
       d="M 102.215 112.158C 102.215 109.623 100.161 107.568 97.6261 107.568C 95.0901 107.568 93.0361 109.623 93.0361 112.158C 93.0361 114.693 95.0901 116.748 97.6261 116.748C 100.161 116.748 102.215 114.693 102.215 112.158"
       id="path136" />
    <path
       style="stroke:#000000; stroke-width:0.95664899999999997; fill:none"
       d="M 102.215 112.158C 102.215 109.623 100.161 107.568 97.6261 107.568C 95.0901 107.568 93.0361 109.623 93.0361 112.158C 93.0361 114.693 95.0901 116.748 97.6261 116.748C 100.161 116.748 102.215 114.693 102.215 112.158"
       id="path138" />
    <path
       style="stroke:none; fill-rule:evenodd; fill:#7e7e7e"
       d="M 102.215 31.7986C 102.215 29.2636 100.161 27.2086 97.6261 27.2086C 95.0901 27.2086 93.0361 29.2636 93.0361 31.7986C 93.0361 34.3336 95.0901 36.3886 97.6261 36.3886C 100.161 36.3886 102.215 34.3336 102.215 31.7986"
       id="path140" />
    <path
       style="stroke:#000000; stroke-width:0.95664899999999997; fill:none"
       d="M 102.215 31.7986C 102.215 29.2636 100.161 27.2086 97.6261 27.2086C 95.0901 27.2086 93.0361 29.2636 93.0361 31.7986C 93.0361 34.3336 95.0901 36.3886 97.6261 36.3886C 100.161 36.3886 102.215 34.3336 102.215 31.7986"
       id="path142" />
    <path
       style="stroke:none; fill-rule:evenodd; fill:#7e7e7e"
       d="M 113.696 45.1936C 113.696 42.6586 111.641 40.6036 109.106 40.6036C 106.571 40.6036 104.516 42.6586 104.516 45.1936C 104.516 47.7286 106.571 49.7836 109.106 49.7836C 111.641 49.7836 113.696 47.7286 113.696 45.1936"
       id="path144" />
    <path
       style="stroke:#000000; stroke-width:0.95664899999999997; fill:none"
       d="M 113.696 45.1936C 113.696 42.6586 111.641 40.6036 109.106 40.6036C 106.571 40.6036 104.516 42.6586 104.516 45.1936C 104.516 47.7286 106.571 49.7836 109.106 49.7836C 111.641 49.7836 113.696 47.7286 113.696 45.1936"
       id="path146" />
    <path
       style="stroke:none; fill-rule:evenodd; fill:#7e7e7e"
       d="M 113.696 58.5836C 113.696 56.0486 111.641 53.9946 109.106 53.9946C 106.571 53.9946 104.516 56.0486 104.516 58.5836C 104.516 61.1196 106.571 63.1736 109.106 63.1736C 111.641 63.1736 113.696 61.1196 113.696 58.5836"
       id="path148" />
    <path
       style="stroke:#000000; stroke-width:0.95664899999999997; fill:none"
       d="M 113.696 58.5836C 113.696 56.0486 111.641 53.9946 109.106 53.9946C 106.571 53.9946 104.516 56.0486 104.516 58.5836C 104.516 61.1196 106.571 63.1736 109.106 63.1736C 111.641 63.1736 113.696 61.1196 113.696 58.5836"
       id="path150" />
    <path
       style="stroke:none; fill-rule:evenodd; fill:#7e7e7e"
       d="M 113.696 71.9786C 113.696 69.4434 111.641 67.3888 109.106 67.3888C 106.571 67.3888 104.516 69.4434 104.516 71.9786C 104.516 74.5138 106.571 76.5684 109.106 76.5684C 111.641 76.5684 113.696 74.5138 113.696 71.9786"
       id="path152" />
    <path
       style="stroke:#000000; stroke-width:0.95664899999999997; fill:none"
       d="M 113.696 71.9786C 113.696 69.4434 111.641 67.3888 109.106 67.3888C 106.571 67.3888 104.516 69.4434 104.516 71.9786C 104.516 74.5138 106.571 76.5684 109.106 76.5684C 111.641 76.5684 113.696 74.5138 113.696 71.9786"
       id="path154" />
    <path
       style="stroke:none; fill-rule:evenodd; fill:#7e7e7e"
       d="M 113.696 85.3731C 113.696 82.838 111.641 80.7833 109.106 80.7833C 106.571 80.7833 104.516 82.838 104.516 85.3731C 104.516 87.9083 106.571 89.963 109.106 89.963C 111.641 89.963 113.696 87.9083 113.696 85.3731"
       id="path156" />
    <path
       style="stroke:#000000; stroke-width:0.95664899999999997; fill:none"
       d="M 113.696 85.3731C 113.696 82.838 111.641 80.7833 109.106 80.7833C 106.571 80.7833 104.516 82.838 104.516 85.3731C 104.516 87.9083 106.571 89.963 109.106 89.963C 111.641 89.963 113.696 87.9083 113.696 85.3731"
       id="path158" />
    <path
       style="stroke:none; fill-rule:evenodd; fill:#7e7e7e"
       d="M 113.696 98.7638C 113.696 96.2286 111.641 94.1739 109.106 94.1739C 106.571 94.1739 104.516 96.2286 104.516 98.7638C 104.516 101.299 106.571 103.354 109.106 103.354C 111.641 103.354 113.696 101.299 113.696 98.7638"
       id="path160" />
    <path
       style="stroke:#000000; stroke-width:0.95664899999999997; fill:none"
       d="M 113.696 98.7638C 113.696 96.2286 111.641 94.1739 109.106 94.1739C 106.571 94.1739 104.516 96.2286 104.516 98.7638C 104.516 101.299 106.571 103.354 109.106 103.354C 111.641 103.354 113.696 101.299 113.696 98.7638"
       id="path162" />
    <path
       style="stroke:none; fill-rule:evenodd; fill:#7e7e7e"
       d="M 113.696 112.158C 113.696 109.623 111.641 107.568 109.106 107.568C 106.571 107.568 104.516 109.623 104.516 112.158C 104.516 114.693 106.571 116.748 109.106 116.748C 111.641 116.748 113.696 114.693 113.696 112.158"
       id="path164" />
    <path
       style="stroke:#000000; stroke-width:0.95664899999999997; fill:none"
       d="M 113.696 112.158C 113.696 109.623 111.641 107.568 109.106 107.568C 106.571 107.568 104.516 109.623 104.516 112.158C 104.516 114.693 106.571 116.748 109.106 116.748C 111.641 116.748 113.696 114.693 113.696 112.158"
       id="path166" />
    <path
       style="stroke:none; fill-rule:evenodd; fill:#7e7e7e"
       d="M 113.696 31.7986C 113.696 29.2636 111.641 27.2086 109.106 27.2086C 106.571 27.2086 104.516 29.2636 104.516 31.7986C 104.516 34.3336 106.571 36.3886 109.106 36.3886C 111.641 36.3886 113.696 34.3336 113.696 31.7986"
       id="path168" />
    <path
       style="stroke:#000000; stroke-width:0.95664899999999997; fill:none"
       d="M 113.696 31.7986C 113.696 29.2636 111.641 27.2086 109.106 27.2086C 106.571 27.2086 104.516 29.2636 104.516 31.7986C 104.516 34.3336 106.571 36.3886 109.106 36.3886C 111.641 36.3886 113.696 34.3336 113.696 31.7986"
       id="path170" />
    <path
       style="stroke:none; fill-rule:evenodd; fill:#7e7e7e"
       d="M 125.176 45.1936C 125.176 42.6586 123.122 40.6036 120.586 40.6036C 118.051 40.6036 115.997 42.6586 115.997 45.1936C 115.997 47.7286 118.051 49.7836 120.586 49.7836C 123.122 49.7836 125.176 47.7286 125.176 45.1936"
       id="path172" />
    <path
       style="stroke:#000000; stroke-width:0.95664899999999997; fill:none"
       d="M 125.176 45.1936C 125.176 42.6586 123.122 40.6036 120.586 40.6036C 118.051 40.6036 115.997 42.6586 115.997 45.1936C 115.997 47.7286 118.051 49.7836 120.586 49.7836C 123.122 49.7836 125.176 47.7286 125.176 45.1936"
       id="path174" />
    <path
       style="stroke:none; fill-rule:evenodd; fill:#7e7e7e"
       d="M 125.176 58.5836C 125.176 56.0486 123.122 53.9946 120.586 53.9946C 118.051 53.9946 115.997 56.0486 115.997 58.5836C 115.997 61.1196 118.051 63.1736 120.586 63.1736C 123.122 63.1736 125.176 61.1196 125.176 58.5836"
       id="path176" />
    <path
       style="stroke:#000000; stroke-width:0.95664899999999997; fill:none"
       d="M 125.176 58.5836C 125.176 56.0486 123.122 53.9946 120.586 53.9946C 118.051 53.9946 115.997 56.0486 115.997 58.5836C 115.997 61.1196 118.051 63.1736 120.586 63.1736C 123.122 63.1736 125.176 61.1196 125.176 58.5836"
       id="path178" />
    <path
       style="stroke:none; fill-rule:evenodd; fill:#7e7e7e"
       d="M 125.176 71.9786C 125.176 69.4434 123.122 67.3888 120.586 67.3888C 118.051 67.3888 115.997 69.4434 115.997 71.9786C 115.997 74.5138 118.051 76.5684 120.586 76.5684C 123.122 76.5684 125.176 74.5138 125.176 71.9786"
       id="path180" />
    <path
       style="stroke:#000000; stroke-width:0.95664899999999997; fill:none"
       d="M 125.176 71.9786C 125.176 69.4434 123.122 67.3888 120.586 67.3888C 118.051 67.3888 115.997 69.4434 115.997 71.9786C 115.997 74.5138 118.051 76.5684 120.586 76.5684C 123.122 76.5684 125.176 74.5138 125.176 71.9786"
       id="path182" />
    <path
       style="stroke:none; fill-rule:evenodd; fill:#7e7e7e"
       d="M 125.176 85.3731C 125.176 82.838 123.122 80.7833 120.586 80.7833C 118.051 80.7833 115.997 82.838 115.997 85.3731C 115.997 87.9083 118.051 89.963 120.586 89.963C 123.122 89.963 125.176 87.9083 125.176 85.3731"
       id="path184" />
    <path
       style="stroke:#000000; stroke-width:0.95664899999999997; fill:none"
       d="M 125.176 85.3731C 125.176 82.838 123.122 80.7833 120.586 80.7833C 118.051 80.7833 115.997 82.838 115.997 85.3731C 115.997 87.9083 118.051 89.963 120.586 89.963C 123.122 89.963 125.176 87.9083 125.176 85.3731"
       id="path186" />
    <path
       style="stroke:none; fill-rule:evenodd; fill:#7e7e7e"
       d="M 125.176 98.7638C 125.176 96.2286 123.122 94.1739 120.586 94.1739C 118.051 94.1739 115.997 96.2286 115.997 98.7638C 115.997 101.299 118.051 103.354 120.586 103.354C 123.122 103.354 125.176 101.299 125.176 98.7638"
       id="path188" />
    <path
       style="stroke:#000000; stroke-width:0.95664899999999997; fill:none"
       d="M 125.176 98.7638C 125.176 96.2286 123.122 94.1739 120.586 94.1739C 118.051 94.1739 115.997 96.2286 115.997 98.7638C 115.997 101.299 118.051 103.354 120.586 103.354C 123.122 103.354 125.176 101.299 125.176 98.7638"
       id="path190" />
    <path
       style="stroke:none; fill-rule:evenodd; fill:#7e7e7e"
       d="M 125.176 112.158C 125.176 109.623 123.122 107.568 120.586 107.568C 118.051 107.568 115.997 109.623 115.997 112.158C 115.997 114.693 118.051 116.748 120.586 116.748C 123.122 116.748 125.176 114.693 125.176 112.158"
       id="path192" />
    <path
       style="stroke:#000000; stroke-width:0.95664899999999997; fill:none"
       d="M 125.176 112.158C 125.176 109.623 123.122 107.568 120.586 107.568C 118.051 107.568 115.997 109.623 115.997 112.158C 115.997 114.693 118.051 116.748 120.586 116.748C 123.122 116.748 125.176 114.693 125.176 112.158"
       id="path194" />
    <path
       style="stroke:none; fill-rule:evenodd; fill:#7e7e7e"
       d="M 125.176 31.7986C 125.176 29.2636 123.122 27.2086 120.586 27.2086C 118.051 27.2086 115.997 29.2636 115.997 31.7986C 115.997 34.3336 118.051 36.3886 120.586 36.3886C 123.122 36.3886 125.176 34.3336 125.176 31.7986"
       id="path196" />
    <path
       style="stroke:#000000; stroke-width:0.95664899999999997; fill:none"
       d="M 125.176 31.7986C 125.176 29.2636 123.122 27.2086 120.586 27.2086C 118.051 27.2086 115.997 29.2636 115.997 31.7986C 115.997 34.3336 118.051 36.3886 120.586 36.3886C 123.122 36.3886 125.176 34.3336 125.176 31.7986"
       id="path198" />
    <path
       style="stroke:none; fill-rule:evenodd; fill:#7e7e7e"
       d="M 136.657 45.1936C 136.657 42.6586 134.602 40.6036 132.067 40.6036C 129.532 40.6036 127.477 42.6586 127.477 45.1936C 127.477 47.7286 129.532 49.7836 132.067 49.7836C 134.602 49.7836 136.657 47.7286 136.657 45.1936"
       id="path200" />
    <path
       style="stroke:#000000; stroke-width:0.95664899999999997; fill:none"
       d="M 136.657 45.1936C 136.657 42.6586 134.602 40.6036 132.067 40.6036C 129.532 40.6036 127.477 42.6586 127.477 45.1936C 127.477 47.7286 129.532 49.7836 132.067 49.7836C 134.602 49.7836 136.657 47.7286 136.657 45.1936"
       id="path202" />
    <path
       style="stroke:none; fill-rule:evenodd; fill:#7e7e7e"
       d="M 136.657 58.5836C 136.657 56.0486 134.602 53.9946 132.067 53.9946C 129.532 53.9946 127.477 56.0486 127.477 58.5836C 127.477 61.1196 129.532 63.1736 132.067 63.1736C 134.602 63.1736 136.657 61.1196 136.657 58.5836"
       id="path204" />
    <path
       style="stroke:#000000; stroke-width:0.95664899999999997; fill:none"
       d="M 136.657 58.5836C 136.657 56.0486 134.602 53.9946 132.067 53.9946C 129.532 53.9946 127.477 56.0486 127.477 58.5836C 127.477 61.1196 129.532 63.1736 132.067 63.1736C 134.602 63.1736 136.657 61.1196 136.657 58.5836"
       id="path206" />
    <path
       style="stroke:none; fill-rule:evenodd; fill:#7e7e7e"
       d="M 136.657 71.9786C 136.657 69.4434 134.602 67.3888 132.067 67.3888C 129.532 67.3888 127.477 69.4434 127.477 71.9786C 127.477 74.5138 129.532 76.5684 132.067 76.5684C 134.602 76.5684 136.657 74.5138 136.657 71.9786"
       id="path208" />
    <path
       style="stroke:#000000; stroke-width:0.95664899999999997; fill:none"
       d="M 136.657 71.9786C 136.657 69.4434 134.602 67.3888 132.067 67.3888C 129.532 67.3888 127.477 69.4434 127.477 71.9786C 127.477 74.5138 129.532 76.5684 132.067 76.5684C 134.602 76.5684 136.657 74.5138 136.657 71.9786"
       id="path210" />
    <path
       style="stroke:none; fill-rule:evenodd; fill:#7e7e7e"
       d="M 136.657 85.3731C 136.657 82.838 134.602 80.7833 132.067 80.7833C 129.532 80.7833 127.477 82.838 127.477 85.3731C 127.477 87.9083 129.532 89.963 132.067 89.963C 134.602 89.963 136.657 87.9083 136.657 85.3731"
       id="path212" />
    <path
       style="stroke:#000000; stroke-width:0.95664899999999997; fill:none"
       d="M 136.657 85.3731C 136.657 82.838 134.602 80.7833 132.067 80.7833C 129.532 80.7833 127.477 82.838 127.477 85.3731C 127.477 87.9083 129.532 89.963 132.067 89.963C 134.602 89.963 136.657 87.9083 136.657 85.3731"
       id="path214" />
    <path
       style="stroke:none; fill-rule:evenodd; fill:#7e7e7e"
       d="M 136.657 98.7638C 136.657 96.2286 134.602 94.1739 132.067 94.1739C 129.532 94.1739 127.477 96.2286 127.477 98.7638C 127.477 101.299 129.532 103.354 132.067 103.354C 134.602 103.354 136.657 101.299 136.657 98.7638"
       id="path216" />
    <path
       style="stroke:#000000; stroke-width:0.95664899999999997; fill:none"
       d="M 136.657 98.7638C 136.657 96.2286 134.602 94.1739 132.067 94.1739C 129.532 94.1739 127.477 96.2286 127.477 98.7638C 127.477 101.299 129.532 103.354 132.067 103.354C 134.602 103.354 136.657 101.299 136.657 98.7638"
       id="path218" />
    <path
       style="stroke:none; fill-rule:evenodd; fill:#7e7e7e"
       d="M 136.657 112.158C 136.657 109.623 134.602 107.568 132.067 107.568C 129.532 107.568 127.477 109.623 127.477 112.158C 127.477 114.693 129.532 116.748 132.067 116.748C 134.602 116.748 136.657 114.693 136.657 112.158"
       id="path220" />
    <path
       style="stroke:#000000; stroke-width:0.95664899999999997; fill:none"
       d="M 136.657 112.158C 136.657 109.623 134.602 107.568 132.067 107.568C 129.532 107.568 127.477 109.623 127.477 112.158C 127.477 114.693 129.532 116.748 132.067 116.748C 134.602 116.748 136.657 114.693 136.657 112.158"
       id="path222" />
    <path
       style="stroke:none; fill-rule:evenodd; fill:#7e7e7e"
       d="M 136.657 31.7986C 136.657 29.2636 134.602 27.2086 132.067 27.2086C 129.532 27.2086 127.477 29.2636 127.477 31.7986C 127.477 34.3336 129.532 36.3886 132.067 36.3886C 134.602 36.3886 136.657 34.3336 136.657 31.7986"
       id="path224" />
    <path
       style="stroke:#000000; stroke-width:0.95664899999999997; fill:none"
       d="M 136.657 31.7986C 136.657 29.2636 134.602 27.2086 132.067 27.2086C 129.532 27.2086 127.477 29.2636 127.477 31.7986C 127.477 34.3336 129.532 36.3886 132.067 36.3886C 134.602 36.3886 136.657 34.3336 136.657 31.7986"
       id="path226" />
    <path
       style="stroke:none; fill-rule:evenodd; fill:#7e7e7e"
       d="M 56.2975 45.1936C 56.2975 42.6586 54.2428 40.6036 51.7077 40.6036C 49.1725 40.6036 47.1178 42.6586 47.1178 45.1936C 47.1178 47.7286 49.1725 49.7836 51.7077 49.7836C 54.2428 49.7836 56.2975 47.7286 56.2975 45.1936"
       id="path228" />
    <path
       style="stroke:#000000; stroke-width:0.95664899999999997; fill:none"
       d="M 56.2975 45.1936C 56.2975 42.6586 54.2428 40.6036 51.7077 40.6036C 49.1725 40.6036 47.1178 42.6586 47.1178 45.1936C 47.1178 47.7286 49.1725 49.7836 51.7077 49.7836C 54.2428 49.7836 56.2975 47.7286 56.2975 45.1936"
       id="path230" />
    <path
       style="stroke:none; fill-rule:evenodd; fill:#7e7e7e"
       d="M 56.2975 98.7638C 56.2975 96.2286 54.2428 94.1739 51.7077 94.1739C 49.1725 94.1739 47.1178 96.2286 47.1178 98.7638C 47.1178 101.299 49.1725 103.354 51.7077 103.354C 54.2428 103.354 56.2975 101.299 56.2975 98.7638"
       id="path232" />
    <path
       style="stroke:#000000; stroke-width:0.95664899999999997; fill:none"
       d="M 56.2975 98.7638C 56.2975 96.2286 54.2428 94.1739 51.7077 94.1739C 49.1725 94.1739 47.1178 96.2286 47.1178 98.7638C 47.1178 101.299 49.1725 103.354 51.7077 103.354C 54.2428 103.354 56.2975 101.299 56.2975 98.7638"
       id="path234" />
    <path
       style="stroke:none; fill-rule:evenodd; fill:#7e7e7e"
       d="M 56.2975 112.158C 56.2975 109.623 54.2428 107.568 51.7077 107.568C 49.1725 107.568 47.1178 109.623 47.1178 112.158C 47.1178 114.693 49.1725 116.748 51.7077 116.748C 54.2428 116.748 56.2975 114.693 56.2975 112.158"
       id="path236" />
    <path
       style="stroke:#000000; stroke-width:0.95664899999999997; fill:none"
       d="M 56.2975 112.158C 56.2975 109.623 54.2428 107.568 51.7077 107.568C 49.1725 107.568 47.1178 109.623 47.1178 112.158C 47.1178 114.693 49.1725 116.748 51.7077 116.748C 54.2428 116.748 56.2975 114.693 56.2975 112.158"
       id="path238" />
    <path
       style="stroke:none; fill-rule:evenodd; fill:#7e7e7e"
       d="M 56.2975 31.7986C 56.2975 29.2636 54.2428 27.2086 51.7077 27.2086C 49.1725 27.2086 47.1178 29.2636 47.1178 31.7986C 47.1178 34.3336 49.1725 36.3886 51.7077 36.3886C 54.2428 36.3886 56.2975 34.3336 56.2975 31.7986"
       id="path240" />
    <path
       style="stroke:#000000; stroke-width:0.95664899999999997; fill:none"
       d="M 56.2975 31.7986C 56.2975 29.2636 54.2428 27.2086 51.7077 27.2086C 49.1725 27.2086 47.1178 29.2636 47.1178 31.7986C 47.1178 34.3336 49.1725 36.3886 51.7077 36.3886C 54.2428 36.3886 56.2975 34.3336 56.2975 31.7986"
       id="path242" />
    <path
       style="stroke:#000000; stroke-width:0.95664899999999997; fill:none"
       d="M 28.7467 98.7638C 28.7467 98.7638 28.7467 98.7638 26.1959 98.7638C 23.6452 98.7638 18.5436 98.7638 14.0788 93.9825C 9.61778 89.2013 5.78968 79.6348 5.15298 70.3888C 4.51628 61.1426 7.06308 52.2126 10.5709 46.1546C 14.0788 40.0956 18.5397 36.9086 22.6881 35.6346C 26.8327 34.3616 30.6569 34.9986 32.5709 35.3186C 34.4811 35.6346 34.4811 35.6346 34.4811 35.6346"
       id="path244" />
    <path
       style="stroke:#000000; stroke-width:0.95664899999999997; fill:none"
       d="M 27.2506 32.4826L 34.4811 35.6266L 26.6217 36.2556"
       id="path246" />
    <path
       style="stroke:#000000; stroke-width:0.95664899999999997; fill:none"
       d="M 332.958 71.9786C 332.958 34.9986 302.122 5.01364 264.079 5.01364C 226.04 5.01364 195.2 34.9946 195.2 71.9786C 195.2 108.959 226.036 138.943 264.079 138.943C 302.118 138.943 332.958 108.963 332.958 71.9786"
       id="path248" />
    <path
       style="stroke:none; fill-rule:evenodd; fill:#ffff00"
       d="M 239.973 45.1936C 239.973 42.6586 237.919 40.6036 235.383 40.6036C 232.848 40.6036 230.793 42.6586 230.793 45.1936C 230.793 47.7286 232.848 49.7836 235.383 49.7836C 237.919 49.7836 239.973 47.7286 239.973 45.1936"
       id="path250" />
    <path
       style="stroke:#000000; stroke-width:0.95664899999999997; fill:none"
       d="M 239.973 45.1936C 239.973 42.6586 237.919 40.6036 235.383 40.6036C 232.848 40.6036 230.793 42.6586 230.793 45.1936C 230.793 47.7286 232.848 49.7836 235.383 49.7836C 237.919 49.7836 239.973 47.7286 239.973 45.1936"
       id="path252" />
    <path
       style="stroke:none; fill-rule:evenodd; fill:#ffff00"
       d="M 239.973 98.7638C 239.973 96.2286 237.919 94.1739 235.383 94.1739C 232.848 94.1739 230.793 96.2286 230.793 98.7638C 230.793 101.299 232.848 103.354 235.383 103.354C 237.919 103.354 239.973 101.299 239.973 98.7638"
       id="path254" />
    <path
       style="stroke:#000000; stroke-width:0.95664899999999997; fill:none"
       d="M 239.973 98.7638C 239.973 96.2286 237.919 94.1739 235.383 94.1739C 232.848 94.1739 230.793 96.2286 230.793 98.7638C 230.793 101.299 232.848 103.354 235.383 103.354C 237.919 103.354 239.973 101.299 239.973 98.7638"
       id="path256" />
    <path
       style="stroke:none; fill-rule:evenodd; fill:#ffa400"
       d="M 251.454 58.5836C 251.454 56.0486 249.399 53.9946 246.864 53.9946C 244.329 53.9946 242.274 56.0486 242.274 58.5836C 242.274 61.1196 244.329 63.1736 246.864 63.1736C 249.399 63.1736 251.454 61.1196 251.454 58.5836"
       id="path258" />
    <path
       style="stroke:#000000; stroke-width:0.95664899999999997; fill:none"
       d="M 251.454 58.5836C 251.454 56.0486 249.399 53.9946 246.864 53.9946C 244.329 53.9946 242.274 56.0486 242.274 58.5836C 242.274 61.1196 244.329 63.1736 246.864 63.1736C 249.399 63.1736 251.454 61.1196 251.454 58.5836"
       id="path260" />
    <path
       style="stroke:none; fill-rule:evenodd; fill:#ffa400"
       d="M 251.454 85.3731C 251.454 82.838 249.399 80.7833 246.864 80.7833C 244.329 80.7833 242.274 82.838 242.274 85.3731C 242.274 87.9083 244.329 89.963 246.864 89.963C 249.399 89.963 251.454 87.9083 251.454 85.3731"
       id="path262" />
    <path
       style="stroke:#000000; stroke-width:0.95664899999999997; fill:none"
       d="M 251.454 85.3731C 251.454 82.838 249.399 80.7833 246.864 80.7833C 244.329 80.7833 242.274 82.838 242.274 85.3731C 242.274 87.9083 244.329 89.963 246.864 89.963C 249.399 89.963 251.454 87.9083 251.454 85.3731"
       id="path264" />
    <path
       style="stroke:none; fill-rule:evenodd; fill:#ffff00"
       d="M 251.454 112.158C 251.454 109.623 249.399 107.568 246.864 107.568C 244.329 107.568 242.274 109.623 242.274 112.158C 242.274 114.693 244.329 116.748 246.864 116.748C 249.399 116.748 251.454 114.693 251.454 112.158"
       id="path266" />
    <path
       style="stroke:#000000; stroke-width:0.95664899999999997; fill:none"
       d="M 251.454 112.158C 251.454 109.623 249.399 107.568 246.864 107.568C 244.329 107.568 242.274 109.623 242.274 112.158C 242.274 114.693 244.329 116.748 246.864 116.748C 249.399 116.748 251.454 114.693 251.454 112.158"
       id="path268" />
    <path
       style="stroke:none; fill-rule:evenodd; fill:#ffff00"
       d="M 251.454 31.7986C 251.454 29.2636 249.399 27.2086 246.864 27.2086C 244.329 27.2086 242.274 29.2636 242.274 31.7986C 242.274 34.3336 244.329 36.3886 246.864 36.3886C 249.399 36.3886 251.454 34.3336 251.454 31.7986"
       id="path270" />
    <path
       style="stroke:#000000; stroke-width:0.95664899999999997; fill:none"
       d="M 251.454 31.7986C 251.454 29.2636 249.399 27.2086 246.864 27.2086C 244.329 27.2086 242.274 29.2636 242.274 31.7986C 242.274 34.3336 244.329 36.3886 246.864 36.3886C 249.399 36.3886 251.454 34.3336 251.454 31.7986"
       id="path272" />
    <path
       style="stroke:none; fill-rule:evenodd; fill:#ffa400"
       d="M 262.934 98.7638C 262.934 96.2286 260.879 94.1739 258.344 94.1739C 255.809 94.1739 253.754 96.2286 253.754 98.7638C 253.754 101.299 255.809 103.354 258.344 103.354C 260.879 103.354 262.934 101.299 262.934 98.7638"
       id="path274" />
    <path
       style="stroke:#000000; stroke-width:0.95664899999999997; fill:none"
       d="M 262.934 98.7638C 262.934 96.2286 260.879 94.1739 258.344 94.1739C 255.809 94.1739 253.754 96.2286 253.754 98.7638C 253.754 101.299 255.809 103.354 258.344 103.354C 260.879 103.354 262.934 101.299 262.934 98.7638"
       id="path276" />
    <path
       style="stroke:none; fill-rule:evenodd; fill:#ffff00"
       d="M 262.934 112.158C 262.934 109.623 260.879 107.568 258.344 107.568C 255.809 107.568 253.754 109.623 253.754 112.158C 253.754 114.693 255.809 116.748 258.344 116.748C 260.879 116.748 262.934 114.693 262.934 112.158"
       id="path278" />
    <path
       style="stroke:#000000; stroke-width:0.95664899999999997; fill:none"
       d="M 262.934 112.158C 262.934 109.623 260.879 107.568 258.344 107.568C 255.809 107.568 253.754 109.623 253.754 112.158C 253.754 114.693 255.809 116.748 258.344 116.748C 260.879 116.748 262.934 114.693 262.934 112.158"
       id="path280" />
    <path
       style="stroke:none; fill-rule:evenodd; fill:#ffff00"
       d="M 262.934 31.7986C 262.934 29.2636 260.879 27.2086 258.344 27.2086C 255.809 27.2086 253.754 29.2636 253.754 31.7986C 253.754 34.3336 255.809 36.3886 258.344 36.3886C 260.879 36.3886 262.934 34.3336 262.934 31.7986"
       id="path282" />
    <path
       style="stroke:#000000; stroke-width:0.95664899999999997; fill:none"
       d="M 262.934 31.7986C 262.934 29.2636 260.879 27.2086 258.344 27.2086C 255.809 27.2086 253.754 29.2636 253.754 31.7986C 253.754 34.3336 255.809 36.3886 258.344 36.3886C 260.879 36.3886 262.934 34.3336 262.934 31.7986"
       id="path284" />
    <path
       style="stroke:none; fill-rule:evenodd; fill:#ffa400"
       d="M 274.411 98.7638C 274.411 96.2286 272.356 94.1739 269.821 94.1739C 267.286 94.1739 265.231 96.2286 265.231 98.7638C 265.231 101.299 267.286 103.354 269.821 103.354C 272.356 103.354 274.411 101.299 274.411 98.7638"
       id="path286" />
    <path
       style="stroke:#000000; stroke-width:0.95664899999999997; fill:none"
       d="M 274.411 98.7638C 274.411 96.2286 272.356 94.1739 269.821 94.1739C 267.286 94.1739 265.231 96.2286 265.231 98.7638C 265.231 101.299 267.286 103.354 269.821 103.354C 272.356 103.354 274.411 101.299 274.411 98.7638"
       id="path288" />
    <path
       style="stroke:none; fill-rule:evenodd; fill:#ffff00"
       d="M 274.411 112.158C 274.411 109.623 272.356 107.568 269.821 107.568C 267.286 107.568 265.231 109.623 265.231 112.158C 265.231 114.693 267.286 116.748 269.821 116.748C 272.356 116.748 274.411 114.693 274.411 112.158"
       id="path290" />
    <path
       style="stroke:#000000; stroke-width:0.95664899999999997; fill:none"
       d="M 274.411 112.158C 274.411 109.623 272.356 107.568 269.821 107.568C 267.286 107.568 265.231 109.623 265.231 112.158C 265.231 114.693 267.286 116.748 269.821 116.748C 272.356 116.748 274.411 114.693 274.411 112.158"
       id="path292" />
    <path
       style="stroke:none; fill-rule:evenodd; fill:#ffff00"
       d="M 274.411 31.7986C 274.411 29.2636 272.356 27.2086 269.821 27.2086C 267.286 27.2086 265.231 29.2636 265.231 31.7986C 265.231 34.3336 267.286 36.3886 269.821 36.3886C 272.356 36.3886 274.411 34.3336 274.411 31.7986"
       id="path294" />
    <path
       style="stroke:#000000; stroke-width:0.95664899999999997; fill:none"
       d="M 274.411 31.7986C 274.411 29.2636 272.356 27.2086 269.821 27.2086C 267.286 27.2086 265.231 29.2636 265.231 31.7986C 265.231 34.3336 267.286 36.3886 269.821 36.3886C 272.356 36.3886 274.411 34.3336 274.411 31.7986"
       id="path296" />
    <path
       style="stroke:none; fill-rule:evenodd; fill:#ffa400"
       d="M 285.891 58.5836C 285.891 56.0486 283.836 53.9946 281.301 53.9946C 278.766 53.9946 276.711 56.0486 276.711 58.5836C 276.711 61.1196 278.766 63.1736 281.301 63.1736C 283.836 63.1736 285.891 61.1196 285.891 58.5836"
       id="path298" />
    <path
       style="stroke:#000000; stroke-width:0.95664899999999997; fill:none"
       d="M 285.891 58.5836C 285.891 56.0486 283.836 53.9946 281.301 53.9946C 278.766 53.9946 276.711 56.0486 276.711 58.5836C 276.711 61.1196 278.766 63.1736 281.301 63.1736C 283.836 63.1736 285.891 61.1196 285.891 58.5836"
       id="path300" />
    <path
       style="stroke:none; fill-rule:evenodd; fill:#ffa400"
       d="M 285.891 85.3731C 285.891 82.838 283.836 80.7833 281.301 80.7833C 278.766 80.7833 276.711 82.838 276.711 85.3731C 276.711 87.9083 278.766 89.963 281.301 89.963C 283.836 89.963 285.891 87.9083 285.891 85.3731"
       id="path302" />
    <path
       style="stroke:#000000; stroke-width:0.95664899999999997; fill:none"
       d="M 285.891 85.3731C 285.891 82.838 283.836 80.7833 281.301 80.7833C 278.766 80.7833 276.711 82.838 276.711 85.3731C 276.711 87.9083 278.766 89.963 281.301 89.963C 283.836 89.963 285.891 87.9083 285.891 85.3731"
       id="path304" />
    <path
       style="stroke:none; fill-rule:evenodd; fill:#ffff00"
       d="M 285.891 112.158C 285.891 109.623 283.836 107.568 281.301 107.568C 278.766 107.568 276.711 109.623 276.711 112.158C 276.711 114.693 278.766 116.748 281.301 116.748C 283.836 116.748 285.891 114.693 285.891 112.158"
       id="path306" />
    <path
       style="stroke:#000000; stroke-width:0.95664899999999997; fill:none"
       d="M 285.891 112.158C 285.891 109.623 283.836 107.568 281.301 107.568C 278.766 107.568 276.711 109.623 276.711 112.158C 276.711 114.693 278.766 116.748 281.301 116.748C 283.836 116.748 285.891 114.693 285.891 112.158"
       id="path308" />
    <path
       style="stroke:none; fill-rule:evenodd; fill:#ffff00"
       d="M 285.891 31.7986C 285.891 29.2636 283.836 27.2086 281.301 27.2086C 278.766 27.2086 276.711 29.2636 276.711 31.7986C 276.711 34.3336 278.766 36.3886 281.301 36.3886C 283.836 36.3886 285.891 34.3336 285.891 31.7986"
       id="path310" />
    <path
       style="stroke:#000000; stroke-width:0.95664899999999997; fill:none"
       d="M 285.891 31.7986C 285.891 29.2636 283.836 27.2086 281.301 27.2086C 278.766 27.2086 276.711 29.2636 276.711 31.7986C 276.711 34.3336 278.766 36.3886 281.301 36.3886C 283.836 36.3886 285.891 34.3336 285.891 31.7986"
       id="path312" />
    <path
       style="stroke:none; fill-rule:evenodd; fill:#ffff00"
       d="M 297.372 45.1936C 297.372 42.6586 295.317 40.6036 292.782 40.6036C 290.247 40.6036 288.192 42.6586 288.192 45.1936C 288.192 47.7286 290.247 49.7836 292.782 49.7836C 295.317 49.7836 297.372 47.7286 297.372 45.1936"
       id="path314" />
    <path
       style="stroke:#000000; stroke-width:0.95664899999999997; fill:none"
       d="M 297.372 45.1936C 297.372 42.6586 295.317 40.6036 292.782 40.6036C 290.247 40.6036 288.192 42.6586 288.192 45.1936C 288.192 47.7286 290.247 49.7836 292.782 49.7836C 295.317 49.7836 297.372 47.7286 297.372 45.1936"
       id="path316" />
    <path
       style="stroke:none; fill-rule:evenodd; fill:#ffff00"
       d="M 297.372 98.7638C 297.372 96.2286 295.317 94.1739 292.782 94.1739C 290.247 94.1739 288.192 96.2286 288.192 98.7638C 288.192 101.299 290.247 103.354 292.782 103.354C 295.317 103.354 297.372 101.299 297.372 98.7638"
       id="path318" />
    <path
       style="stroke:#000000; stroke-width:0.95664899999999997; fill:none"
       d="M 297.372 98.7638C 297.372 96.2286 295.317 94.1739 292.782 94.1739C 290.247 94.1739 288.192 96.2286 288.192 98.7638C 288.192 101.299 290.247 103.354 292.782 103.354C 295.317 103.354 297.372 101.299 297.372 98.7638"
       id="path320" />
    <path
       style="stroke:none; fill-rule:evenodd; fill:#ffff00"
       d="M 308.852 58.5836C 308.852 56.0486 306.797 53.9946 304.262 53.9946C 301.727 53.9946 299.672 56.0486 299.672 58.5836C 299.672 61.1196 301.727 63.1736 304.262 63.1736C 306.797 63.1736 308.852 61.1196 308.852 58.5836"
       id="path322" />
    <path
       style="stroke:#000000; stroke-width:0.95664899999999997; fill:none"
       d="M 308.852 58.5836C 308.852 56.0486 306.797 53.9946 304.262 53.9946C 301.727 53.9946 299.672 56.0486 299.672 58.5836C 299.672 61.1196 301.727 63.1736 304.262 63.1736C 306.797 63.1736 308.852 61.1196 308.852 58.5836"
       id="path324" />
    <path
       style="stroke:none; fill-rule:evenodd; fill:#ffff00"
       d="M 308.852 71.9786C 308.852 69.4434 306.797 67.3888 304.262 67.3888C 301.727 67.3888 299.672 69.4434 299.672 71.9786C 299.672 74.5138 301.727 76.5684 304.262 76.5684C 306.797 76.5684 308.852 74.5138 308.852 71.9786"
       id="path326" />
    <path
       style="stroke:#000000; stroke-width:0.95664899999999997; fill:none"
       d="M 308.852 71.9786C 308.852 69.4434 306.797 67.3888 304.262 67.3888C 301.727 67.3888 299.672 69.4434 299.672 71.9786C 299.672 74.5138 301.727 76.5684 304.262 76.5684C 306.797 76.5684 308.852 74.5138 308.852 71.9786"
       id="path328" />
    <path
       style="stroke:none; fill-rule:evenodd; fill:#ffff00"
       d="M 308.852 85.3731C 308.852 82.838 306.797 80.7833 304.262 80.7833C 301.727 80.7833 299.672 82.838 299.672 85.3731C 299.672 87.9083 301.727 89.963 304.262 89.963C 306.797 89.963 308.852 87.9083 308.852 85.3731"
       id="path330" />
    <path
       style="stroke:#000000; stroke-width:0.95664899999999997; fill:none"
       d="M 308.852 85.3731C 308.852 82.838 306.797 80.7833 304.262 80.7833C 301.727 80.7833 299.672 82.838 299.672 85.3731C 299.672 87.9083 301.727 89.963 304.262 89.963C 306.797 89.963 308.852 87.9083 308.852 85.3731"
       id="path332" />
    <path
       style="stroke:none; fill-rule:evenodd; fill:#ffff00"
       d="M 228.493 58.5836C 228.493 56.0486 226.438 53.9946 223.903 53.9946C 221.368 53.9946 219.313 56.0486 219.313 58.5836C 219.313 61.1196 221.368 63.1736 223.903 63.1736C 226.438 63.1736 228.493 61.1196 228.493 58.5836"
       id="path334" />
    <path
       style="stroke:#000000; stroke-width:0.95664899999999997; fill:none"
       d="M 228.493 58.5836C 228.493 56.0486 226.438 53.9946 223.903 53.9946C 221.368 53.9946 219.313 56.0486 219.313 58.5836C 219.313 61.1196 221.368 63.1736 223.903 63.1736C 226.438 63.1736 228.493 61.1196 228.493 58.5836"
       id="path336" />
    <path
       style="stroke:none; fill-rule:evenodd; fill:#ffff00"
       d="M 228.493 71.9786C 228.493 69.4434 226.438 67.3888 223.903 67.3888C 221.368 67.3888 219.313 69.4434 219.313 71.9786C 219.313 74.5138 221.368 76.5684 223.903 76.5684C 226.438 76.5684 228.493 74.5138 228.493 71.9786"
       id="path338" />
    <path
       style="stroke:#000000; stroke-width:0.95664899999999997; fill:none"
       d="M 228.493 71.9786C 228.493 69.4434 226.438 67.3888 223.903 67.3888C 221.368 67.3888 219.313 69.4434 219.313 71.9786C 219.313 74.5138 221.368 76.5684 223.903 76.5684C 226.438 76.5684 228.493 74.5138 228.493 71.9786"
       id="path340" />
    <path
       style="stroke:none; fill-rule:evenodd; fill:#ffff00"
       d="M 228.493 85.3731C 228.493 82.838 226.438 80.7833 223.903 80.7833C 221.368 80.7833 219.313 82.838 219.313 85.3731C 219.313 87.9083 221.368 89.963 223.903 89.963C 226.438 89.963 228.493 87.9083 228.493 85.3731"
       id="path342" />
    <path
       style="stroke:#000000; stroke-width:0.95664899999999997; fill:none"
       d="M 228.493 85.3731C 228.493 82.838 226.438 80.7833 223.903 80.7833C 221.368 80.7833 219.313 82.838 219.313 85.3731C 219.313 87.9083 221.368 89.963 223.903 89.963C 226.438 89.963 228.493 87.9083 228.493 85.3731"
       id="path344" />
    <path
       style="stroke:none; fill-rule:evenodd; fill:#7e7e7e"
       d="M 239.973 58.5836C 239.973 56.0486 237.919 53.9946 235.383 53.9946C 232.848 53.9946 230.793 56.0486 230.793 58.5836C 230.793 61.1196 232.848 63.1736 235.383 63.1736C 237.919 63.1736 239.973 61.1196 239.973 58.5836"
       id="path346" />
    <path
       style="stroke:#000000; stroke-width:0.95664899999999997; fill:none"
       d="M 239.973 58.5836C 239.973 56.0486 237.919 53.9946 235.383 53.9946C 232.848 53.9946 230.793 56.0486 230.793 58.5836C 230.793 61.1196 232.848 63.1736 235.383 63.1736C 237.919 63.1736 239.973 61.1196 239.973 58.5836"
       id="path348" />
    <path
       style="stroke:none; fill-rule:evenodd; fill:#7e7e7e"
       d="M 239.973 71.9786C 239.973 69.4434 237.919 67.3888 235.383 67.3888C 232.848 67.3888 230.793 69.4434 230.793 71.9786C 230.793 74.5138 232.848 76.5684 235.383 76.5684C 237.919 76.5684 239.973 74.5138 239.973 71.9786"
       id="path350" />
    <path
       style="stroke:#000000; stroke-width:0.95664899999999997; fill:none"
       d="M 239.973 71.9786C 239.973 69.4434 237.919 67.3888 235.383 67.3888C 232.848 67.3888 230.793 69.4434 230.793 71.9786C 230.793 74.5138 232.848 76.5684 235.383 76.5684C 237.919 76.5684 239.973 74.5138 239.973 71.9786"
       id="path352" />
    <path
       style="stroke:none; fill-rule:evenodd; fill:#7e7e7e"
       d="M 239.973 85.3731C 239.973 82.838 237.919 80.7833 235.383 80.7833C 232.848 80.7833 230.793 82.838 230.793 85.3731C 230.793 87.9083 232.848 89.963 235.383 89.963C 237.919 89.963 239.973 87.9083 239.973 85.3731"
       id="path354" />
    <path
       style="stroke:#000000; stroke-width:0.95664899999999997; fill:none"
       d="M 239.973 85.3731C 239.973 82.838 237.919 80.7833 235.383 80.7833C 232.848 80.7833 230.793 82.838 230.793 85.3731C 230.793 87.9083 232.848 89.963 235.383 89.963C 237.919 89.963 239.973 87.9083 239.973 85.3731"
       id="path356" />
    <path
       style="stroke:none; fill-rule:evenodd; fill:#7e7e7e"
       d="M 239.973 112.158C 239.973 109.623 237.919 107.568 235.383 107.568C 232.848 107.568 230.793 109.623 230.793 112.158C 230.793 114.693 232.848 116.748 235.383 116.748C 237.919 116.748 239.973 114.693 239.973 112.158"
       id="path358" />
    <path
       style="stroke:#000000; stroke-width:0.95664899999999997; fill:none"
       d="M 239.973 112.158C 239.973 109.623 237.919 107.568 235.383 107.568C 232.848 107.568 230.793 109.623 230.793 112.158C 230.793 114.693 232.848 116.748 235.383 116.748C 237.919 116.748 239.973 114.693 239.973 112.158"
       id="path360" />
    <path
       style="stroke:none; fill-rule:evenodd; fill:#7e7e7e"
       d="M 239.973 31.7986C 239.973 29.2636 237.919 27.2086 235.383 27.2086C 232.848 27.2086 230.793 29.2636 230.793 31.7986C 230.793 34.3336 232.848 36.3886 235.383 36.3886C 237.919 36.3886 239.973 34.3336 239.973 31.7986"
       id="path362" />
    <path
       style="stroke:#000000; stroke-width:0.95664899999999997; fill:none"
       d="M 239.973 31.7986C 239.973 29.2636 237.919 27.2086 235.383 27.2086C 232.848 27.2086 230.793 29.2636 230.793 31.7986C 230.793 34.3336 232.848 36.3886 235.383 36.3886C 237.919 36.3886 239.973 34.3336 239.973 31.7986"
       id="path364" />
    <path
       style="stroke:none; fill-rule:evenodd; fill:#7e7e7e"
       d="M 251.454 45.1936C 251.454 42.6586 249.399 40.6036 246.864 40.6036C 244.329 40.6036 242.274 42.6586 242.274 45.1936C 242.274 47.7286 244.329 49.7836 246.864 49.7836C 249.399 49.7836 251.454 47.7286 251.454 45.1936"
       id="path366" />
    <path
       style="stroke:#000000; stroke-width:0.95664899999999997; fill:none"
       d="M 251.454 45.1936C 251.454 42.6586 249.399 40.6036 246.864 40.6036C 244.329 40.6036 242.274 42.6586 242.274 45.1936C 242.274 47.7286 244.329 49.7836 246.864 49.7836C 249.399 49.7836 251.454 47.7286 251.454 45.1936"
       id="path368" />
    <path
       style="stroke:none; fill-rule:evenodd; fill:#7e7e7e"
       d="M 251.454 71.9786C 251.454 69.4434 249.399 67.3888 246.864 67.3888C 244.329 67.3888 242.274 69.4434 242.274 71.9786C 242.274 74.5138 244.329 76.5684 246.864 76.5684C 249.399 76.5684 251.454 74.5138 251.454 71.9786"
       id="path370" />
    <path
       style="stroke:#000000; stroke-width:0.95664899999999997; fill:none"
       d="M 251.454 71.9786C 251.454 69.4434 249.399 67.3888 246.864 67.3888C 244.329 67.3888 242.274 69.4434 242.274 71.9786C 242.274 74.5138 244.329 76.5684 246.864 76.5684C 249.399 76.5684 251.454 74.5138 251.454 71.9786"
       id="path372" />
    <path
       style="stroke:none; fill-rule:evenodd; fill:#7e7e7e"
       d="M 251.454 98.7638C 251.454 96.2286 249.399 94.1739 246.864 94.1739C 244.329 94.1739 242.274 96.2286 242.274 98.7638C 242.274 101.299 244.329 103.354 246.864 103.354C 249.399 103.354 251.454 101.299 251.454 98.7638"
       id="path374" />
    <path
       style="stroke:#000000; stroke-width:0.95664899999999997; fill:none"
       d="M 251.454 98.7638C 251.454 96.2286 249.399 94.1739 246.864 94.1739C 244.329 94.1739 242.274 96.2286 242.274 98.7638C 242.274 101.299 244.329 103.354 246.864 103.354C 249.399 103.354 251.454 101.299 251.454 98.7638"
       id="path376" />
    <path
       style="stroke:none; fill-rule:evenodd; fill:#7e7e7e"
       d="M 262.934 45.1936C 262.934 42.6586 260.879 40.6036 258.344 40.6036C 255.809 40.6036 253.754 42.6586 253.754 45.1936C 253.754 47.7286 255.809 49.7836 258.344 49.7836C 260.879 49.7836 262.934 47.7286 262.934 45.1936"
       id="path378" />
    <path
       style="stroke:#000000; stroke-width:0.95664899999999997; fill:none"
       d="M 262.934 45.1936C 262.934 42.6586 260.879 40.6036 258.344 40.6036C 255.809 40.6036 253.754 42.6586 253.754 45.1936C 253.754 47.7286 255.809 49.7836 258.344 49.7836C 260.879 49.7836 262.934 47.7286 262.934 45.1936"
       id="path380" />
    <path
       style="stroke:none; fill-rule:evenodd; fill:#7e7e7e"
       d="M 262.934 58.5836C 262.934 56.0486 260.879 53.9946 258.344 53.9946C 255.809 53.9946 253.754 56.0486 253.754 58.5836C 253.754 61.1196 255.809 63.1736 258.344 63.1736C 260.879 63.1736 262.934 61.1196 262.934 58.5836"
       id="path382" />
    <path
       style="stroke:#000000; stroke-width:0.95664899999999997; fill:none"
       d="M 262.934 58.5836C 262.934 56.0486 260.879 53.9946 258.344 53.9946C 255.809 53.9946 253.754 56.0486 253.754 58.5836C 253.754 61.1196 255.809 63.1736 258.344 63.1736C 260.879 63.1736 262.934 61.1196 262.934 58.5836"
       id="path384" />
    <path
       style="stroke:none; fill-rule:evenodd; fill:#7e7e7e"
       d="M 262.934 71.9786C 262.934 69.4434 260.879 67.3888 258.344 67.3888C 255.809 67.3888 253.754 69.4434 253.754 71.9786C 253.754 74.5138 255.809 76.5684 258.344 76.5684C 260.879 76.5684 262.934 74.5138 262.934 71.9786"
       id="path386" />
    <path
       style="stroke:#000000; stroke-width:0.95664899999999997; fill:none"
       d="M 262.934 71.9786C 262.934 69.4434 260.879 67.3888 258.344 67.3888C 255.809 67.3888 253.754 69.4434 253.754 71.9786C 253.754 74.5138 255.809 76.5684 258.344 76.5684C 260.879 76.5684 262.934 74.5138 262.934 71.9786"
       id="path388" />
    <path
       style="stroke:none; fill-rule:evenodd; fill:#7e7e7e"
       d="M 262.934 85.3731C 262.934 82.838 260.879 80.7833 258.344 80.7833C 255.809 80.7833 253.754 82.838 253.754 85.3731C 253.754 87.9083 255.809 89.963 258.344 89.963C 260.879 89.963 262.934 87.9083 262.934 85.3731"
       id="path390" />
    <path
       style="stroke:#000000; stroke-width:0.95664899999999997; fill:none"
       d="M 262.934 85.3731C 262.934 82.838 260.879 80.7833 258.344 80.7833C 255.809 80.7833 253.754 82.838 253.754 85.3731C 253.754 87.9083 255.809 89.963 258.344 89.963C 260.879 89.963 262.934 87.9083 262.934 85.3731"
       id="path392" />
    <path
       style="stroke:none; fill-rule:evenodd; fill:#7e7e7e"
       d="M 274.411 45.1936C 274.411 42.6586 272.356 40.6036 269.821 40.6036C 267.286 40.6036 265.231 42.6586 265.231 45.1936C 265.231 47.7286 267.286 49.7836 269.821 49.7836C 272.356 49.7836 274.411 47.7286 274.411 45.1936"
       id="path394" />
    <path
       style="stroke:#000000; stroke-width:0.95664899999999997; fill:none"
       d="M 274.411 45.1936C 274.411 42.6586 272.356 40.6036 269.821 40.6036C 267.286 40.6036 265.231 42.6586 265.231 45.1936C 265.231 47.7286 267.286 49.7836 269.821 49.7836C 272.356 49.7836 274.411 47.7286 274.411 45.1936"
       id="path396" />
    <path
       style="stroke:none; fill-rule:evenodd; fill:#7e7e7e"
       d="M 274.411 58.5836C 274.411 56.0486 272.356 53.9946 269.821 53.9946C 267.286 53.9946 265.231 56.0486 265.231 58.5836C 265.231 61.1196 267.286 63.1736 269.821 63.1736C 272.356 63.1736 274.411 61.1196 274.411 58.5836"
       id="path398" />
    <path
       style="stroke:#000000; stroke-width:0.95664899999999997; fill:none"
       d="M 274.411 58.5836C 274.411 56.0486 272.356 53.9946 269.821 53.9946C 267.286 53.9946 265.231 56.0486 265.231 58.5836C 265.231 61.1196 267.286 63.1736 269.821 63.1736C 272.356 63.1736 274.411 61.1196 274.411 58.5836"
       id="path400" />
    <path
       style="stroke:none; fill-rule:evenodd; fill:#7e7e7e"
       d="M 274.411 71.9786C 274.411 69.4434 272.356 67.3888 269.821 67.3888C 267.286 67.3888 265.231 69.4434 265.231 71.9786C 265.231 74.5138 267.286 76.5684 269.821 76.5684C 272.356 76.5684 274.411 74.5138 274.411 71.9786"
       id="path402" />
    <path
       style="stroke:#000000; stroke-width:0.95664899999999997; fill:none"
       d="M 274.411 71.9786C 274.411 69.4434 272.356 67.3888 269.821 67.3888C 267.286 67.3888 265.231 69.4434 265.231 71.9786C 265.231 74.5138 267.286 76.5684 269.821 76.5684C 272.356 76.5684 274.411 74.5138 274.411 71.9786"
       id="path404" />
    <path
       style="stroke:none; fill-rule:evenodd; fill:#7e7e7e"
       d="M 274.411 85.3731C 274.411 82.838 272.356 80.7833 269.821 80.7833C 267.286 80.7833 265.231 82.838 265.231 85.3731C 265.231 87.9083 267.286 89.963 269.821 89.963C 272.356 89.963 274.411 87.9083 274.411 85.3731"
       id="path406" />
    <path
       style="stroke:#000000; stroke-width:0.95664899999999997; fill:none"
       d="M 274.411 85.3731C 274.411 82.838 272.356 80.7833 269.821 80.7833C 267.286 80.7833 265.231 82.838 265.231 85.3731C 265.231 87.9083 267.286 89.963 269.821 89.963C 272.356 89.963 274.411 87.9083 274.411 85.3731"
       id="path408" />
    <path
       style="stroke:none; fill-rule:evenodd; fill:#7e7e7e"
       d="M 285.891 45.1936C 285.891 42.6586 283.836 40.6036 281.301 40.6036C 278.766 40.6036 276.711 42.6586 276.711 45.1936C 276.711 47.7286 278.766 49.7836 281.301 49.7836C 283.836 49.7836 285.891 47.7286 285.891 45.1936"
       id="path410" />
    <path
       style="stroke:#000000; stroke-width:0.95664899999999997; fill:none"
       d="M 285.891 45.1936C 285.891 42.6586 283.836 40.6036 281.301 40.6036C 278.766 40.6036 276.711 42.6586 276.711 45.1936C 276.711 47.7286 278.766 49.7836 281.301 49.7836C 283.836 49.7836 285.891 47.7286 285.891 45.1936"
       id="path412" />
    <path
       style="stroke:none; fill-rule:evenodd; fill:#7e7e7e"
       d="M 285.891 71.9786C 285.891 69.4434 283.836 67.3888 281.301 67.3888C 278.766 67.3888 276.711 69.4434 276.711 71.9786C 276.711 74.5138 278.766 76.5684 281.301 76.5684C 283.836 76.5684 285.891 74.5138 285.891 71.9786"
       id="path414" />
    <path
       style="stroke:#000000; stroke-width:0.95664899999999997; fill:none"
       d="M 285.891 71.9786C 285.891 69.4434 283.836 67.3888 281.301 67.3888C 278.766 67.3888 276.711 69.4434 276.711 71.9786C 276.711 74.5138 278.766 76.5684 281.301 76.5684C 283.836 76.5684 285.891 74.5138 285.891 71.9786"
       id="path416" />
    <path
       style="stroke:none; fill-rule:evenodd; fill:#7e7e7e"
       d="M 285.891 98.7638C 285.891 96.2286 283.836 94.1739 281.301 94.1739C 278.766 94.1739 276.711 96.2286 276.711 98.7638C 276.711 101.299 278.766 103.354 281.301 103.354C 283.836 103.354 285.891 101.299 285.891 98.7638"
       id="path418" />
    <path
       style="stroke:#000000; stroke-width:0.95664899999999997; fill:none"
       d="M 285.891 98.7638C 285.891 96.2286 283.836 94.1739 281.301 94.1739C 278.766 94.1739 276.711 96.2286 276.711 98.7638C 276.711 101.299 278.766 103.354 281.301 103.354C 283.836 103.354 285.891 101.299 285.891 98.7638"
       id="path420" />
    <path
       style="stroke:none; fill-rule:evenodd; fill:#7e7e7e"
       d="M 297.372 58.5836C 297.372 56.0486 295.317 53.9946 292.782 53.9946C 290.247 53.9946 288.192 56.0486 288.192 58.5836C 288.192 61.1196 290.247 63.1736 292.782 63.1736C 295.317 63.1736 297.372 61.1196 297.372 58.5836"
       id="path422" />
    <path
       style="stroke:#000000; stroke-width:0.95664899999999997; fill:none"
       d="M 297.372 58.5836C 297.372 56.0486 295.317 53.9946 292.782 53.9946C 290.247 53.9946 288.192 56.0486 288.192 58.5836C 288.192 61.1196 290.247 63.1736 292.782 63.1736C 295.317 63.1736 297.372 61.1196 297.372 58.5836"
       id="path424" />
    <path
       style="stroke:none; fill-rule:evenodd; fill:#7e7e7e"
       d="M 297.372 71.9786C 297.372 69.4434 295.317 67.3888 292.782 67.3888C 290.247 67.3888 288.192 69.4434 288.192 71.9786C 288.192 74.5138 290.247 76.5684 292.782 76.5684C 295.317 76.5684 297.372 74.5138 297.372 71.9786"
       id="path426" />
    <path
       style="stroke:#000000; stroke-width:0.95664899999999997; fill:none"
       d="M 297.372 71.9786C 297.372 69.4434 295.317 67.3888 292.782 67.3888C 290.247 67.3888 288.192 69.4434 288.192 71.9786C 288.192 74.5138 290.247 76.5684 292.782 76.5684C 295.317 76.5684 297.372 74.5138 297.372 71.9786"
       id="path428" />
    <path
       style="stroke:none; fill-rule:evenodd; fill:#7e7e7e"
       d="M 297.372 85.3731C 297.372 82.838 295.317 80.7833 292.782 80.7833C 290.247 80.7833 288.192 82.838 288.192 85.3731C 288.192 87.9083 290.247 89.963 292.782 89.963C 295.317 89.963 297.372 87.9083 297.372 85.3731"
       id="path430" />
    <path
       style="stroke:#000000; stroke-width:0.95664899999999997; fill:none"
       d="M 297.372 85.3731C 297.372 82.838 295.317 80.7833 292.782 80.7833C 290.247 80.7833 288.192 82.838 288.192 85.3731C 288.192 87.9083 290.247 89.963 292.782 89.963C 295.317 89.963 297.372 87.9083 297.372 85.3731"
       id="path432" />
    <path
       style="stroke:none; fill-rule:evenodd; fill:#7e7e7e"
       d="M 297.372 112.158C 297.372 109.623 295.317 107.568 292.782 107.568C 290.247 107.568 288.192 109.623 288.192 112.158C 288.192 114.693 290.247 116.748 292.782 116.748C 295.317 116.748 297.372 114.693 297.372 112.158"
       id="path434" />
    <path
       style="stroke:#000000; stroke-width:0.95664899999999997; fill:none"
       d="M 297.372 112.158C 297.372 109.623 295.317 107.568 292.782 107.568C 290.247 107.568 288.192 109.623 288.192 112.158C 288.192 114.693 290.247 116.748 292.782 116.748C 295.317 116.748 297.372 114.693 297.372 112.158"
       id="path436" />
    <path
       style="stroke:none; fill-rule:evenodd; fill:#7e7e7e"
       d="M 297.372 31.7986C 297.372 29.2636 295.317 27.2086 292.782 27.2086C 290.247 27.2086 288.192 29.2636 288.192 31.7986C 288.192 34.3336 290.247 36.3886 292.782 36.3886C 295.317 36.3886 297.372 34.3336 297.372 31.7986"
       id="path438" />
    <path
       style="stroke:#000000; stroke-width:0.95664899999999997; fill:none"
       d="M 297.372 31.7986C 297.372 29.2636 295.317 27.2086 292.782 27.2086C 290.247 27.2086 288.192 29.2636 288.192 31.7986C 288.192 34.3336 290.247 36.3886 292.782 36.3886C 295.317 36.3886 297.372 34.3336 297.372 31.7986"
       id="path440" />
    <path
       style="stroke:none; fill-rule:evenodd; fill:#7e7e7e"
       d="M 308.852 45.1936C 308.852 42.6586 306.797 40.6036 304.262 40.6036C 301.727 40.6036 299.672 42.6586 299.672 45.1936C 299.672 47.7286 301.727 49.7836 304.262 49.7836C 306.797 49.7836 308.852 47.7286 308.852 45.1936"
       id="path442" />
    <path
       style="stroke:#000000; stroke-width:0.95664899999999997; fill:none"
       d="M 308.852 45.1936C 308.852 42.6586 306.797 40.6036 304.262 40.6036C 301.727 40.6036 299.672 42.6586 299.672 45.1936C 299.672 47.7286 301.727 49.7836 304.262 49.7836C 306.797 49.7836 308.852 47.7286 308.852 45.1936"
       id="path444" />
    <path
       style="stroke:none; fill-rule:evenodd; fill:#7e7e7e"
       d="M 308.852 98.7638C 308.852 96.2286 306.797 94.1739 304.262 94.1739C 301.727 94.1739 299.672 96.2286 299.672 98.7638C 299.672 101.299 301.727 103.354 304.262 103.354C 306.797 103.354 308.852 101.299 308.852 98.7638"
       id="path446" />
    <path
       style="stroke:#000000; stroke-width:0.95664899999999997; fill:none"
       d="M 308.852 98.7638C 308.852 96.2286 306.797 94.1739 304.262 94.1739C 301.727 94.1739 299.672 96.2286 299.672 98.7638C 299.672 101.299 301.727 103.354 304.262 103.354C 306.797 103.354 308.852 101.299 308.852 98.7638"
       id="path448" />
    <path
       style="stroke:none; fill-rule:evenodd; fill:#7e7e7e"
       d="M 308.852 112.158C 308.852 109.623 306.797 107.568 304.262 107.568C 301.727 107.568 299.672 109.623 299.672 112.158C 299.672 114.693 301.727 116.748 304.262 116.748C 306.797 116.748 308.852 114.693 308.852 112.158"
       id="path450" />
    <path
       style="stroke:#000000; stroke-width:0.95664899999999997; fill:none"
       d="M 308.852 112.158C 308.852 109.623 306.797 107.568 304.262 107.568C 301.727 107.568 299.672 109.623 299.672 112.158C 299.672 114.693 301.727 116.748 304.262 116.748C 306.797 116.748 308.852 114.693 308.852 112.158"
       id="path452" />
    <path
       style="stroke:none; fill-rule:evenodd; fill:#7e7e7e"
       d="M 308.852 31.7986C 308.852 29.2636 306.797 27.2086 304.262 27.2086C 301.727 27.2086 299.672 29.2636 299.672 31.7986C 299.672 34.3336 301.727 36.3886 304.262 36.3886C 306.797 36.3886 308.852 34.3336 308.852 31.7986"
       id="path454" />
    <path
       style="stroke:#000000; stroke-width:0.95664899999999997; fill:none"
       d="M 308.852 31.7986C 308.852 29.2636 306.797 27.2086 304.262 27.2086C 301.727 27.2086 299.672 29.2636 299.672 31.7986C 299.672 34.3336 301.727 36.3886 304.262 36.3886C 306.797 36.3886 308.852 34.3336 308.852 31.7986"
       id="path456" />
    <path
       style="stroke:none; fill-rule:evenodd; fill:#7e7e7e"
       d="M 228.493 45.1936C 228.493 42.6586 226.438 40.6036 223.903 40.6036C 221.368 40.6036 219.313 42.6586 219.313 45.1936C 219.313 47.7286 221.368 49.7836 223.903 49.7836C 226.438 49.7836 228.493 47.7286 228.493 45.1936"
       id="path458" />
    <path
       style="stroke:#000000; stroke-width:0.95664899999999997; fill:none"
       d="M 228.493 45.1936C 228.493 42.6586 226.438 40.6036 223.903 40.6036C 221.368 40.6036 219.313 42.6586 219.313 45.1936C 219.313 47.7286 221.368 49.7836 223.903 49.7836C 226.438 49.7836 228.493 47.7286 228.493 45.1936"
       id="path460" />
    <path
       style="stroke:none; fill-rule:evenodd; fill:#7e7e7e"
       d="M 228.493 98.7638C 228.493 96.2286 226.438 94.1739 223.903 94.1739C 221.368 94.1739 219.313 96.2286 219.313 98.7638C 219.313 101.299 221.368 103.354 223.903 103.354C 226.438 103.354 228.493 101.299 228.493 98.7638"
       id="path462" />
    <path
       style="stroke:#000000; stroke-width:0.95664899999999997; fill:none"
       d="M 228.493 98.7638C 228.493 96.2286 226.438 94.1739 223.903 94.1739C 221.368 94.1739 219.313 96.2286 219.313 98.7638C 219.313 101.299 221.368 103.354 223.903 103.354C 226.438 103.354 228.493 101.299 228.493 98.7638"
       id="path464" />
    <path
       style="stroke:none; fill-rule:evenodd; fill:#7e7e7e"
       d="M 228.493 112.158C 228.493 109.623 226.438 107.568 223.903 107.568C 221.368 107.568 219.313 109.623 219.313 112.158C 219.313 114.693 221.368 116.748 223.903 116.748C 226.438 116.748 228.493 114.693 228.493 112.158"
       id="path466" />
    <path
       style="stroke:#000000; stroke-width:0.95664899999999997; fill:none"
       d="M 228.493 112.158C 228.493 109.623 226.438 107.568 223.903 107.568C 221.368 107.568 219.313 109.623 219.313 112.158C 219.313 114.693 221.368 116.748 223.903 116.748C 226.438 116.748 228.493 114.693 228.493 112.158"
       id="path468" />
    <path
       style="stroke:none; fill-rule:evenodd; fill:#7e7e7e"
       d="M 228.493 31.7986C 228.493 29.2636 226.438 27.2086 223.903 27.2086C 221.368 27.2086 219.313 29.2636 219.313 31.7986C 219.313 34.3336 221.368 36.3886 223.903 36.3886C 226.438 36.3886 228.493 34.3336 228.493 31.7986"
       id="path470" />
    <path
       style="stroke:#000000; stroke-width:0.95664899999999997; fill:none"
       d="M 228.493 31.7986C 228.493 29.2636 226.438 27.2086 223.903 27.2086C 221.368 27.2086 219.313 29.2636 219.313 31.7986C 219.313 34.3336 221.368 36.3886 223.903 36.3886C 226.438 36.3886 228.493 34.3336 228.493 31.7986"
       id="path472" />
    <path
       style="stroke:#000000; stroke-width:0.95664899999999997; fill:none"
       d="M 200.942 98.7638C 200.942 98.7638 200.942 98.7638 198.391 98.7638C 195.84 98.7638 190.739 98.7638 186.274 93.9825C 181.813 89.2013 177.985 79.6348 177.348 70.3888C 176.711 61.1426 179.258 52.2126 182.766 46.1546C 186.274 40.0956 190.735 36.9086 194.883 35.6346C 199.028 34.3616 202.852 34.9986 204.766 35.3186C 206.676 35.6346 206.676 35.6346 206.676 35.6346"
       id="path474" />
    <path
       style="stroke:#000000; stroke-width:0.95664899999999997; fill:none"
       d="M 199.446 32.4826L 206.676 35.6266L 198.817 36.2556"
       id="path476" />
  </g>
</svg>
