<?xml version="1.0" encoding="ISO-8859-1" standalone="yes"?>
<svg width="111.367" height="100.363">
  <defs> 
    <marker id="ArrowEnd" viewBox="0 0 10 10" refX="0" refY="5" 
     markerUnits="strokeWidth" 
     markerWidth="4" 
     markerHeight="3" 
     orient="auto"> 
        <path d="M 0 0 L 10 5 L 0 10 z" /> 
    </marker>
    <marker id="ArrowStart" viewBox="0 0 10 10" refX="10" refY="5" 
     markerUnits="strokeWidth" 
     markerWidth="4" 
     markerHeight="3" 
     orient="auto"> 
        <path d="M 10 0 L 0 5 L 10 10 z" /> 
    </marker> </defs>
<g>
<path style="stroke:#000000; stroke-width:1.9133; fill:none" d="M 51.6562 44.4644L 51.6562 29.1593"/>
<path style="stroke:#000000; stroke-width:1.9133; fill:none" d="M 47.8281 25.3313L 47.8281 10.0273"/>
<path style="stroke:#000000; stroke-width:1.9133; fill:none" d="M 55.4805 32.9843L 55.4805 17.6793"/>
<path style="stroke:#000000; stroke-width:1.9133; fill:none" d="M 70.7891 48.2886L 86.094 48.2886"/>
<path style="stroke:#000000; stroke-width:1.9133; fill:none" d="M 75.422 44.062L 89.109 37.2183"/>
<path style="stroke:#000000; stroke-width:1.9133; fill:none" d="M 71.1914 28.3513L 78.035 14.6633"/>
<path style="stroke:#000000; stroke-width:1.9133; fill:none" d="M 59.7109 43.6558L 66.5547 29.9683"/>
<path style="stroke:#000000; stroke-width:1.9133; fill:none" d="M 69.2031 42.2222L 80.023 31.4023"/>
<path style="stroke:#000000; stroke-width:1.9133; fill:none" d="M 76.855 30.7413L 87.676 19.9213"/>
<path style="stroke:#000000; stroke-width:1.9133; fill:none" d="M 86.902 44.062L 100.59 37.2183"/>
<path style="stroke:#000000; stroke-width:1.9133; fill:none" d="M 59.3086 52.1167L 74.6133 52.1167"/>
<path style="stroke:#000000; stroke-width:1.9133; fill:none" d="M 63.5391 24.5233L 70.3828 10.8353"/>
<path style="stroke:#000000; stroke-width:1.9133; fill:none" d="M 86.152 58.8198L 101.34 60.7183"/>
<path style="stroke:#000000; stroke-width:1.9133; fill:none" d="M 60.668 55.4136L 73.25 64.1245"/>
<path style="stroke:#000000; stroke-width:1.9133; fill:none" d="M 72.1484 55.4136L 84.73 64.1245"/>
<path style="stroke:#000000; stroke-width:1.9133; fill:none" d="M 58.7773 61.1323L 67.4883 73.7144"/>
<path style="stroke:#000000; stroke-width:1.9133; fill:none" d="M 74.0859 64.9565L 82.797 77.5386"/>
<path style="stroke:#000000; stroke-width:1.9133; fill:none" d="M 82.27 52.1167L 97.574 52.1167"/>
<path style="stroke:#000000; stroke-width:1.9133; fill:none" d="M 53.5078 63.855L 57.4492 78.6401"/>
<path style="stroke:#000000; stroke-width:1.9133; fill:none" d="M 61.1602 71.5073L 65.1016 86.2925"/>
<path style="stroke:#000000; stroke-width:1.9133; fill:none" d="M 48.7773 59.7222L 48.5938 75.0269"/>
<path style="stroke:#000000; stroke-width:1.9133; fill:none" d="M 52.6055 75.0308L 52.4219 90.3355"/>
<path style="stroke:#000000; stroke-width:1.9133; fill:none" d="M 44.3516 56.6558L 37.7148 70.4448"/>
<path style="stroke:#000000; stroke-width:1.9133; fill:none" d="M 44.3516 71.9605L 37.7148 85.7495"/>
<path style="stroke:#000000; stroke-width:1.9133; fill:none" d="M 38.7852 58.1323L 27.9766 68.9644"/>
<path style="stroke:#000000; stroke-width:1.9133; fill:none" d="M 34.9609 73.437L 24.1523 84.2691"/>
<path style="stroke:#000000; stroke-width:1.9133; fill:none" d="M 28.5742 63.6323L 15.2266 71.1206"/>
<path style="stroke:#000000; stroke-width:1.9133; fill:none" d="M 36.2266 52.1519L 22.8789 59.6401"/>
<path style="stroke:#000000; stroke-width:1.9133; fill:none" d="M 25.6758 55.0073L 10.4766 56.7847"/>
<path style="stroke:#000000; stroke-width:1.9133; fill:none" d="M 33.3281 47.3511L 18.1289 49.1284"/>
<path style="stroke:#000000; stroke-width:1.9133; fill:none" d="M 24.5078 44.0034L 10.0273 39.0503"/>
<path style="stroke:#000000; stroke-width:1.9133; fill:none" d="M 39.8164 44.0034L 25.3359 39.0503"/>
<path style="stroke:#000000; stroke-width:1.9133; fill:none" d="M 31.3242 34.2383L 18.5156 25.8623"/>
<path style="stroke:#000000; stroke-width:1.9133; fill:none" d="M 45.2773 43.4487L 35.1758 31.9563"/>
<path style="stroke:#000000; stroke-width:1.9133; fill:none" d="M 47.6836 36.7847L 40.4258 23.3123"/>
<path style="stroke:#000000; stroke-width:1.9133; fill:none" d="M 36.2031 29.1323L 28.9453 15.6593"/>
<path style="stroke:#000000; stroke-width:1.9133; fill:none" d="M 47.8281 52.1167L 51.6523 52.1167L 51.6523 48.2925L 47.8281 48.2925L 47.8281 52.1167z"/>
</g>
</svg>