<?xml version="1.0" encoding="ISO-8859-1" standalone="yes"?>
<svg width="435" height="224.936">
  <defs> 
    <marker id="ArrowEnd" viewBox="0 0 10 10" refX="0" refY="5" 
     markerUnits="strokeWidth" 
     markerWidth="4" 
     markerHeight="3" 
     orient="auto"> 
        <path d="M 0 0 L 10 5 L 0 10 z" /> 
    </marker>
    <marker id="ArrowStart" viewBox="0 0 10 10" refX="10" refY="5" 
     markerUnits="strokeWidth" 
     markerWidth="4" 
     markerHeight="3" 
     orient="auto"> 
        <path d="M 10 0 L 0 5 L 10 10 z" /> 
    </marker> </defs>
<g>
<path style="stroke:none; fill-rule:evenodd; fill:#000000" d="M 48.6526 175.518L 50.2496 175.518L 50.2496 8.38226L 48.6526 8.38226L 48.6526 175.518z"/>
<path style="stroke:#000000; stroke-width:1.59941; fill:none" d="M 48.6526 175.518L 50.2496 175.518L 50.2496 8.38226L 48.6526 8.38226L 48.6526 175.518z"/>
<path style="stroke:none; fill-rule:evenodd; fill:#000000" d="M 39.0506 165.397C 38.1016 165.397 37.2346 165.804 36.6996 166.495C 36.0396 167.386 35.7066 168.749 35.7066 170.632C 35.7066 174.065 36.8596 175.89 39.0546 175.89C 41.2186 175.89 42.4026 174.065 42.4026 170.718C 42.4026 168.737 42.0856 167.413 41.4066 166.495C 40.8746 165.792 40.0236 165.397 39.0546 165.397L 39.0506 165.397zM 39.0506 166.495C 40.4176 166.495 41.0976 167.866 41.0976 170.581C 41.0976 173.448 40.4336 174.792 39.0196 174.792C 37.6796 174.792 36.9996 173.393 36.9996 170.624C 36.9996 167.854 37.6756 166.495 39.0466 166.495L 39.0506 166.495z"/>
<path style="stroke:none; fill-rule:evenodd; fill:#000000" d="M 43.6996 172.796L 50.9966 172.796L 50.9966 171.796L 43.6996 171.796L 43.6996 172.796z"/>
<path style="stroke:none; fill-rule:evenodd; fill:#000000" d="M 34.7656 125.397L 29.4886 125.397L 28.7266 130.944L 29.8946 130.944C 30.4846 130.241 30.9726 129.995 31.7696 129.995C 33.1366 129.995 34.0036 130.929 34.0036 132.436C 34.0036 133.901 33.1526 134.792 31.7696 134.792C 30.6606 134.792 29.9846 134.233 29.6796 133.089L 28.4136 133.089C 28.5856 133.913 28.7306 134.311 29.0316 134.683C 29.6056 135.448 30.6446 135.89 31.8006 135.89C 33.8636 135.89 35.3046 134.405 35.3046 132.265C 35.3046 130.265 33.9646 128.897 32.0036 128.897C 31.2856 128.897 30.7066 129.077 30.1176 129.491L 30.5196 126.698L 34.7736 126.698L 34.7656 125.397z"/>
<path style="stroke:none; fill-rule:evenodd; fill:#000000" d="M 39.8516 125.397C 38.9026 125.397 38.0356 125.804 37.4996 126.495C 36.8396 127.386 36.5076 128.749 36.5076 130.632C 36.5076 134.065 37.6606 135.89 39.8556 135.89C 42.0196 135.89 43.2036 134.065 43.2036 130.718C 43.2036 128.737 42.8866 127.413 42.2066 126.495C 41.6756 125.792 40.8246 125.397 39.8556 125.397L 39.8516 125.397zM 39.8516 126.495C 41.2186 126.495 41.8986 127.866 41.8986 130.581C 41.8986 133.448 41.2346 134.792 39.8206 134.792C 38.4806 134.792 37.8006 133.393 37.8006 130.624C 37.8006 127.854 38.4766 126.495 39.8476 126.495L 39.8516 126.495z"/>
<path style="stroke:none; fill-rule:evenodd; fill:#000000" d="M 44.6016 132.796L 51.8986 132.796L 51.8986 131.796L 44.6016 131.796L 44.6016 132.796z"/>
<path style="stroke:none; fill-rule:evenodd; fill:#000000" d="M 25.3006 88.3353L 25.3006 95.5973L 26.4996 95.5973L 26.4996 85.3973L 25.6636 85.3973C 25.2186 86.9643 24.9296 87.1793 22.9686 87.4253L 22.9686 88.3273L 25.3006 88.3353z"/>
<path style="stroke:none; fill-rule:evenodd; fill:#000000" d="M 33.4496 85.3973C 32.4996 85.3973 31.6326 85.8043 31.0976 86.4953C 30.4376 87.3863 30.1056 88.7493 30.1056 90.6323C 30.1056 94.0653 31.2576 95.8903 33.4536 95.8903C 35.6176 95.8903 36.8006 94.0653 36.8006 90.7183C 36.8006 88.7373 36.4846 87.4133 35.8046 86.4953C 35.2736 85.7923 34.4216 85.3973 33.4536 85.3973L 33.4496 85.3973zM 33.4496 86.4953C 34.8166 86.4953 35.4966 87.8663 35.4966 90.5813C 35.4966 93.4483 34.8316 94.7923 33.4176 94.7923C 32.0786 94.7923 31.3986 93.3933 31.3986 90.6243C 31.3986 87.8543 32.0746 86.4953 33.4456 86.4953L 33.4496 86.4953z"/>
<path style="stroke:none; fill-rule:evenodd; fill:#000000" d="M 41.5506 85.3973C 40.6016 85.3973 39.7346 85.8043 39.1996 86.4953C 38.5396 87.3863 38.2066 88.7493 38.2066 90.6323C 38.2066 94.0653 39.3596 95.8903 41.5546 95.8903C 43.7186 95.8903 44.9026 94.0653 44.9026 90.7183C 44.9026 88.7373 44.5856 87.4133 43.9066 86.4953C 43.3746 85.7923 42.5236 85.3973 41.5546 85.3973L 41.5506 85.3973zM 41.5506 86.4953C 42.9176 86.4953 43.5976 87.8663 43.5976 90.5813C 43.5976 93.4483 42.9336 94.7923 41.5196 94.7923C 40.1796 94.7923 39.4996 93.3933 39.4996 90.6243C 39.4996 87.8543 40.1756 86.4953 41.5466 86.4953L 41.5506 86.4953z"/>
<path style="stroke:none; fill-rule:evenodd; fill:#000000" d="M 46.1996 92.7963L 53.4966 92.7963L 53.4966 91.7963L 46.1996 91.7963L 46.1996 92.7963z"/>
<path style="stroke:none; fill-rule:evenodd; fill:#000000" d="M 25.3006 48.3353L 25.3006 55.5973L 26.4996 55.5973L 26.4996 45.3973L 25.6636 45.3973C 25.2186 46.9643 24.9296 47.1793 22.9686 47.4253L 22.9686 48.3273L 25.3006 48.3353z"/>
<path style="stroke:none; fill-rule:evenodd; fill:#000000" d="M 36.3636 45.3973L 31.0856 45.3973L 30.3246 50.9443L 31.4926 50.9443C 32.0816 50.2413 32.5706 49.9953 33.3676 49.9953C 34.7346 49.9953 35.6016 50.9293 35.6016 52.4363C 35.6016 53.9013 34.7496 54.7923 33.3676 54.7923C 32.2576 54.7923 31.5816 54.2333 31.2776 53.0893L 30.0116 53.0893C 30.1836 53.9133 30.3286 54.3113 30.6286 54.6833C 31.2036 55.4483 32.2426 55.8903 33.3986 55.8903C 35.4606 55.8903 36.9026 54.4053 36.9026 52.2653C 36.9026 50.2653 35.5626 48.8973 33.6016 48.8973C 32.8826 48.8973 32.3046 49.0773 31.7146 49.4913L 32.1176 46.6983L 36.3716 46.6983L 36.3636 45.3973z"/>
<path style="stroke:none; fill-rule:evenodd; fill:#000000" d="M 41.5506 45.3973C 40.6016 45.3973 39.7346 45.8043 39.1996 46.4953C 38.5396 47.3863 38.2066 48.7493 38.2066 50.6323C 38.2066 54.0653 39.3596 55.8903 41.5546 55.8903C 43.7186 55.8903 44.9026 54.0653 44.9026 50.7183C 44.9026 48.7373 44.5856 47.4133 43.9066 46.4953C 43.3746 45.7923 42.5236 45.3973 41.5546 45.3973L 41.5506 45.3973zM 41.5506 46.4953C 42.9176 46.4953 43.5976 47.8663 43.5976 50.5813C 43.5976 53.4483 42.9336 54.7923 41.5196 54.7923C 40.1796 54.7923 39.4996 53.3933 39.4996 50.6243C 39.4996 47.8543 40.1756 46.4953 41.5466 46.4953L 41.5506 46.4953z"/>
<path style="stroke:none; fill-rule:evenodd; fill:#000000" d="M 46.1996 52.7963L 53.4966 52.7963L 53.4966 51.7963L 46.1996 51.7963L 46.1996 52.7963z"/>
<path style="stroke:none; fill-rule:evenodd; fill:#000000" d="M 28.8286 14.2963L 23.4256 14.2963C 23.5546 13.4683 24.0196 12.9403 25.2776 12.2103L 26.7226 11.4403C 28.1566 10.6713 28.8946 9.62427 28.8946 8.38226C 28.8946 7.53827 28.5466 6.75327 27.9416 6.21027C 27.3356 5.66727 26.5816 5.40927 25.6096 5.40927C 24.3086 5.40927 23.3356 5.87027 22.7696 6.72928C 22.4106 7.27228 22.2496 7.90527 22.2226 8.94028L 23.4966 8.94028C 23.5396 8.25327 23.6246 7.83527 23.8006 7.50327C 24.1326 6.88626 24.8006 6.51126 25.5666 6.51126C 26.7226 6.51126 27.5936 7.33127 27.5936 8.42526C 27.5936 9.22928 27.1176 9.92126 26.2036 10.4363L 24.8716 11.1833C 22.7266 12.3903 22.1056 13.3543 21.9886 15.6003L 28.8246 15.6003L 28.8286 14.2963z"/>
<path style="stroke:none; fill-rule:evenodd; fill:#000000" d="M 33.4496 5.39728C 32.4996 5.39728 31.6326 5.80426 31.0976 6.49527C 30.4376 7.38626 30.1056 8.74927 30.1056 10.6323C 30.1056 14.0653 31.2576 15.8903 33.4536 15.8903C 35.6176 15.8903 36.8006 14.0653 36.8006 10.7183C 36.8006 8.73727 36.4846 7.41327 35.8046 6.49527C 35.2736 5.79227 34.4216 5.39728 33.4536 5.39728L 33.4496 5.39728zM 33.4496 6.49527C 34.8166 6.49527 35.4966 7.86627 35.4966 10.5813C 35.4966 13.4483 34.8316 14.7923 33.4176 14.7923C 32.0786 14.7923 31.3986 13.3933 31.3986 10.6243C 31.3986 7.85428 32.0746 6.49527 33.4456 6.49527L 33.4496 6.49527z"/>
<path style="stroke:none; fill-rule:evenodd; fill:#000000" d="M 41.5506 5.39728C 40.6016 5.39728 39.7346 5.80426 39.1996 6.49527C 38.5396 7.38626 38.2066 8.74927 38.2066 10.6323C 38.2066 14.0653 39.3596 15.8903 41.5546 15.8903C 43.7186 15.8903 44.9026 14.0653 44.9026 10.7183C 44.9026 8.73727 44.5856 7.41327 43.9066 6.49527C 43.3746 5.79227 42.5236 5.39728 41.5546 5.39728L 41.5506 5.39728zM 41.5506 6.49527C 42.9176 6.49527 43.5976 7.86627 43.5976 10.5813C 43.5976 13.4483 42.9336 14.7923 41.5196 14.7923C 40.1796 14.7923 39.4996 13.3933 39.4996 10.6243C 39.4996 7.85428 40.1756 6.49527 41.5466 6.49527L 41.5506 6.49527z"/>
<path style="stroke:none; fill-rule:evenodd; fill:#000000" d="M 46.1996 12.7963L 53.4966 12.7963L 53.4966 11.7963L 46.1996 11.7963L 46.1996 12.7963z"/>
<path style="stroke:#000000; stroke-width:1.59941; fill:none" d="M 76.6406 165.921L 96.6326 165.921L 125.418 165.921L 162.204 165.921L 206.184 165.921L 250.965 166.718L 320.536 166.718L 389.309 166.718"/>
<path style="stroke:#000000; stroke-width:1.59941; fill:none" d="M 76.6406 165.921L 96.6326 165.921L 125.418 165.921L 162.204 165.921L 206.184 165.921L 250.965 166.718L 320.536 166.718L 389.309 166.718"/>
<path style="stroke:#000000; stroke-dasharray:6,3; stroke-width:1.59941; fill:none" d="M 76.6406 161.921L 96.6326 161.124L 125.418 148.331L 162.204 145.933L 206.184 135.538L 258.961 137.136L 320.536 121.944L 389.309 8.39026"/>
<path style="stroke:none; fill-rule:evenodd; fill:#000000" d="M 59.8476 186.714L 426.11 186.714L 426.11 185.917L 59.8476 185.917L 59.8476 186.714z"/>
<path style="stroke:#000000; stroke-width:1.59941; fill:none" d="M 59.8476 186.714L 426.11 186.714L 426.11 185.917L 59.8476 185.917L 59.8476 186.714z"/>
<path style="stroke:none; fill-rule:evenodd; fill:#000000" d="M 61.3516 189.897C 60.4026 189.897 59.5356 190.304 58.9996 190.995C 58.3396 191.886 58.0076 193.249 58.0076 195.132C 58.0076 198.565 59.1606 200.39 61.3556 200.39C 63.5196 200.39 64.7036 198.565 64.7036 195.218C 64.7036 193.237 64.3866 191.913 63.7066 190.995C 63.1756 190.292 62.3246 189.897 61.3556 189.897L 61.3516 189.897zM 61.3516 190.995C 62.7186 190.995 63.3986 192.366 63.3986 195.081C 63.3986 197.948 62.7346 199.292 61.3206 199.292C 59.9806 199.292 59.3006 197.893 59.3006 195.124C 59.3006 192.354 59.9766 190.995 61.3476 190.995L 61.3516 190.995z"/>
<path style="stroke:none; fill-rule:evenodd; fill:#000000" d="M 98.8006 192.835L 98.8006 200.097L 99.9996 200.097L 99.9996 189.897L 99.1636 189.897C 98.7186 191.464 98.4296 191.679 96.4686 191.925L 96.4686 192.827L 98.8006 192.835z"/>
<path style="stroke:none; fill-rule:evenodd; fill:#000000" d="M 106.95 189.897C 106 189.897 105.133 190.304 104.598 190.995C 103.938 191.886 103.606 193.249 103.606 195.132C 103.606 198.565 104.758 200.39 106.954 200.39C 109.118 200.39 110.301 198.565 110.301 195.218C 110.301 193.237 109.985 191.913 109.305 190.995C 108.774 190.292 107.922 189.897 106.954 189.897L 106.95 189.897zM 106.95 190.995C 108.317 190.995 108.997 192.366 108.997 195.081C 108.997 197.948 108.332 199.292 106.918 199.292C 105.579 199.292 104.899 197.893 104.899 195.124C 104.899 192.354 105.575 190.995 106.946 190.995L 106.95 190.995z"/>
<path style="stroke:none; fill-rule:evenodd; fill:#000000" d="M 142.329 198.796L 136.926 198.796C 137.055 197.968 137.52 197.44 138.778 196.71L 140.223 195.94C 141.657 195.171 142.395 194.124 142.395 192.882C 142.395 192.038 142.047 191.253 141.442 190.71C 140.836 190.167 140.082 189.909 139.11 189.909C 137.809 189.909 136.836 190.37 136.27 191.229C 135.911 191.772 135.75 192.405 135.723 193.44L 136.997 193.44C 137.04 192.753 137.125 192.335 137.301 192.003C 137.633 191.386 138.301 191.011 139.067 191.011C 140.223 191.011 141.094 191.831 141.094 192.925C 141.094 193.729 140.618 194.421 139.704 194.936L 138.372 195.683C 136.227 196.89 135.606 197.854 135.489 200.1L 142.325 200.1L 142.329 198.796z"/>
<path style="stroke:none; fill-rule:evenodd; fill:#000000" d="M 146.95 189.897C 146 189.897 145.133 190.304 144.598 190.995C 143.938 191.886 143.606 193.249 143.606 195.132C 143.606 198.565 144.758 200.39 146.954 200.39C 149.118 200.39 150.301 198.565 150.301 195.218C 150.301 193.237 149.985 191.913 149.305 190.995C 148.774 190.292 147.922 189.897 146.954 189.897L 146.95 189.897zM 146.95 190.995C 148.317 190.995 148.997 192.366 148.997 195.081C 148.997 197.948 148.332 199.292 146.918 199.292C 145.579 199.292 144.899 197.893 144.899 195.124C 144.899 192.354 145.575 190.995 146.946 190.995L 146.95 190.995z"/>
<path style="stroke:none; fill-rule:evenodd; fill:#000000" d="M 178.981 195.397L 179.672 195.397C 181.071 195.397 181.797 196.03 181.797 197.253C 181.797 198.53 181.004 199.296 179.68 199.296C 178.297 199.296 177.622 198.608 177.532 197.132L 176.266 197.132C 176.321 197.944 176.465 198.472 176.711 198.925C 177.231 199.893 178.239 200.39 179.637 200.39C 181.743 200.39 183.098 199.143 183.098 197.222C 183.098 195.933 182.59 195.214 181.356 194.8C 182.317 194.429 182.797 193.71 182.797 192.694C 182.797 190.944 181.629 189.897 179.68 189.897C 177.618 189.897 176.52 191.015 176.477 193.186L 177.747 193.186C 177.758 192.569 177.817 192.222 177.977 191.905C 178.262 191.347 178.899 190.999 179.692 190.999C 180.817 190.999 181.497 191.651 181.497 192.718C 181.497 193.429 181.239 193.854 180.672 194.081C 180.325 194.222 179.879 194.276 178.981 194.292L 178.981 195.397z"/>
<path style="stroke:none; fill-rule:evenodd; fill:#000000" d="M 187.75 189.897C 186.801 189.897 185.934 190.304 185.399 190.995C 184.739 191.886 184.407 193.249 184.407 195.132C 184.407 198.565 185.559 200.39 187.754 200.39C 189.918 200.39 191.102 198.565 191.102 195.218C 191.102 193.237 190.786 191.913 190.106 190.995C 189.575 190.292 188.723 189.897 187.754 189.897L 187.75 189.897zM 187.75 190.995C 189.118 190.995 189.797 192.366 189.797 195.081C 189.797 197.948 189.133 199.292 187.719 199.292C 186.379 199.292 185.7 197.893 185.7 195.124C 185.7 192.354 186.375 190.995 187.747 190.995L 187.75 190.995z"/>
<path style="stroke:none; fill-rule:evenodd; fill:#000000" d="M 221.301 197.597L 221.301 200.097L 222.5 200.097L 222.5 197.597L 224.082 197.597L 224.082 196.499L 222.5 196.499L 222.5 189.901L 221.579 189.901L 217.008 196.272L 217.008 197.597L 221.301 197.597zM 221.301 196.495L 218.114 196.495L 221.301 192.05L 221.301 196.495z"/>
<path style="stroke:none; fill-rule:evenodd; fill:#000000" d="M 228.551 189.897C 227.602 189.897 226.735 190.304 226.2 190.995C 225.54 191.886 225.207 193.249 225.207 195.132C 225.207 198.565 226.36 200.39 228.555 200.39C 230.719 200.39 231.903 198.565 231.903 195.218C 231.903 193.237 231.586 191.913 230.907 190.995C 230.375 190.292 229.524 189.897 228.555 189.897L 228.551 189.897zM 228.551 190.995C 229.918 190.995 230.598 192.366 230.598 195.081C 230.598 197.948 229.934 199.292 228.52 199.292C 227.18 199.292 226.5 197.893 226.5 195.124C 226.5 192.354 227.176 190.995 228.547 190.995L 228.551 190.995z"/>
<path style="stroke:none; fill-rule:evenodd; fill:#000000" d="M 264.266 189.897L 258.989 189.897L 258.227 195.444L 259.395 195.444C 259.985 194.741 260.473 194.495 261.27 194.495C 262.637 194.495 263.504 195.429 263.504 196.936C 263.504 198.401 262.653 199.292 261.27 199.292C 260.161 199.292 259.485 198.733 259.18 197.589L 257.914 197.589C 258.086 198.413 258.231 198.811 258.532 199.183C 259.106 199.948 260.145 200.39 261.301 200.39C 263.364 200.39 264.805 198.905 264.805 196.765C 264.805 194.765 263.465 193.397 261.504 193.397C 260.786 193.397 260.207 193.577 259.618 193.991L 260.02 191.198L 264.274 191.198L 264.266 189.897z"/>
<path style="stroke:none; fill-rule:evenodd; fill:#000000" d="M 269.352 189.897C 268.403 189.897 267.536 190.304 267 190.995C 266.34 191.886 266.008 193.249 266.008 195.132C 266.008 198.565 267.161 200.39 269.356 200.39C 271.52 200.39 272.704 198.565 272.704 195.218C 272.704 193.237 272.387 191.913 271.707 190.995C 271.176 190.292 270.325 189.897 269.356 189.897L 269.352 189.897zM 269.352 190.995C 270.719 190.995 271.399 192.366 271.399 195.081C 271.399 197.948 270.735 199.292 269.321 199.292C 267.981 199.292 267.301 197.893 267.301 195.124C 267.301 192.354 267.977 190.995 269.348 190.995L 269.352 190.995z"/>
<path style="stroke:none; fill-rule:evenodd; fill:#000000" d="M 304.571 192.597C 304.332 190.905 303.25 189.897 301.715 189.897C 300.61 189.897 299.614 190.44 299.016 191.347C 298.391 192.335 298.11 193.581 298.11 195.433C 298.11 197.136 298.364 198.229 298.961 199.132C 299.5 199.948 300.383 200.393 301.497 200.393C 303.418 200.393 304.801 198.972 304.801 196.995C 304.801 195.12 303.5 193.796 301.661 193.796C 300.649 193.796 299.852 194.171 299.305 194.893C 299.317 192.39 300.125 190.995 301.582 190.995C 302.477 190.995 303.098 191.577 303.297 192.593L 304.571 192.597zM 301.508 194.897C 302.735 194.897 303.497 195.737 303.497 197.097C 303.497 198.366 302.633 199.296 301.465 199.296C 300.286 199.296 299.391 198.327 299.391 197.026C 299.391 195.772 300.254 194.897 301.508 194.897z"/>
<path style="stroke:none; fill-rule:evenodd; fill:#000000" d="M 309.352 189.897C 308.403 189.897 307.536 190.304 307 190.995C 306.34 191.886 306.008 193.249 306.008 195.132C 306.008 198.565 307.161 200.39 309.356 200.39C 311.52 200.39 312.704 198.565 312.704 195.218C 312.704 193.237 312.387 191.913 311.707 190.995C 311.176 190.292 310.325 189.897 309.356 189.897L 309.352 189.897zM 309.352 190.995C 310.719 190.995 311.399 192.366 311.399 195.081C 311.399 197.948 310.735 199.292 309.321 199.292C 307.981 199.292 307.301 197.893 307.301 195.124C 307.301 192.354 307.977 190.995 309.348 190.995L 309.352 190.995z"/>
<path style="stroke:none; fill-rule:evenodd; fill:#000000" d="M 345.602 189.897L 338.805 189.897L 338.805 191.194L 344.297 191.194C 341.875 194.64 340.887 196.757 340.125 200.093L 341.473 200.093C 342.032 196.831 343.309 194.026 345.602 190.96L 345.602 189.897z"/>
<path style="stroke:none; fill-rule:evenodd; fill:#000000" d="M 350.051 189.897C 349.102 189.897 348.235 190.304 347.7 190.995C 347.04 191.886 346.707 193.249 346.707 195.132C 346.707 198.565 347.86 200.39 350.055 200.39C 352.219 200.39 353.403 198.565 353.403 195.218C 353.403 193.237 353.086 191.913 352.407 190.995C 351.875 190.292 351.024 189.897 350.055 189.897L 350.051 189.897zM 350.051 190.995C 351.418 190.995 352.098 192.366 352.098 195.081C 352.098 197.948 351.434 199.292 350.02 199.292C 348.68 199.292 348 197.893 348 195.124C 348 192.354 348.676 190.995 350.047 190.995L 350.051 190.995z"/>
<path style="stroke:none; fill-rule:evenodd; fill:#000000" d="M 384.528 194.718C 385.559 194.089 385.899 193.573 385.899 192.612C 385.899 191.022 384.653 189.901 382.848 189.901C 381.063 189.901 379.801 191.018 379.801 192.612C 379.801 193.557 380.145 194.073 381.176 194.718C 379.993 195.276 379.403 196.12 379.403 197.241C 379.403 199.104 380.821 200.393 382.848 200.393C 384.875 200.393 386.297 199.104 386.297 197.253C 386.297 196.12 385.719 195.276 384.528 194.718zM 382.852 190.995C 383.918 190.995 384.602 191.624 384.602 192.616C 384.602 193.561 383.907 194.19 382.852 194.19C 381.801 194.19 381.102 193.561 381.102 192.6C 381.102 191.628 381.797 190.995 382.852 190.995zM 382.852 195.296C 384.129 195.296 385 196.097 385 197.288C 385 198.491 384.133 199.292 382.825 199.292C 381.579 199.292 380.707 198.475 380.707 197.288C 380.707 196.1 381.575 195.296 382.856 195.296L 382.852 195.296z"/>
<path style="stroke:none; fill-rule:evenodd; fill:#000000" d="M 390.852 189.897C 389.903 189.897 389.036 190.304 388.5 190.995C 387.84 191.886 387.508 193.249 387.508 195.132C 387.508 198.565 388.661 200.39 390.856 200.39C 393.02 200.39 394.204 198.565 394.204 195.218C 394.204 193.237 393.887 191.913 393.207 190.995C 392.676 190.292 391.825 189.897 390.856 189.897L 390.852 189.897zM 390.852 190.995C 392.219 190.995 392.899 192.366 392.899 195.081C 392.899 197.948 392.235 199.292 390.821 199.292C 389.481 199.292 388.801 197.893 388.801 195.124C 388.801 192.354 389.477 190.995 390.848 190.995L 390.852 190.995z"/>
<path style="stroke:none; fill-rule:evenodd; fill:#000000" d="M 420.461 197.765C 420.704 199.413 421.793 200.393 423.34 200.393C 424.457 200.393 425.473 199.85 426.063 198.948C 426.707 197.96 426.993 196.714 426.993 194.862C 426.993 193.159 426.735 192.065 426.125 191.163C 425.563 190.347 424.668 189.901 423.543 189.901C 421.598 189.901 420.196 191.343 420.196 193.35C 420.196 195.253 421.497 196.597 423.348 196.597C 424.317 196.597 425.024 196.265 425.692 195.499C 425.68 197.94 424.875 199.296 423.426 199.296C 422.54 199.296 421.922 198.741 421.723 197.765L 420.461 197.765zM 423.551 190.995C 424.743 190.995 425.645 191.983 425.645 193.323C 425.645 194.589 424.758 195.491 423.508 195.491C 422.274 195.491 421.504 194.636 421.504 193.253C 421.504 191.944 422.375 190.995 423.551 190.995z"/>
<path style="stroke:none; fill-rule:evenodd; fill:#000000" d="M 431.649 189.897C 430.7 189.897 429.832 190.304 429.297 190.995C 428.637 191.886 428.305 193.249 428.305 195.132C 428.305 198.565 429.457 200.39 431.653 200.39C 433.817 200.39 435 198.565 435 195.218C 435 193.237 434.684 191.913 434.004 190.995C 433.473 190.292 432.622 189.897 431.653 189.897L 431.649 189.897zM 431.649 190.995C 433.016 190.995 433.696 192.366 433.696 195.081C 433.696 197.948 433.032 199.292 431.618 199.292C 430.278 199.292 429.598 197.893 429.598 195.124C 429.598 192.354 430.274 190.995 431.645 190.995L 431.649 190.995z"/>
<path style="stroke:#000000; stroke-dasharray:6,3; stroke-width:1.59941; fill:none" d="M 90.6136 19.4013L 137.125 19.4013"/>
<path style="stroke:#000000; stroke-width:1.59941; fill:none" d="M 90.6136 41.1043L 137.125 41.1043"/>
<path style="stroke:none; fill-rule:evenodd; fill:#000000" d="M 146.399 40.5973L 151.442 40.5973L 151.442 39.4993L 146.399 39.4993L 146.399 35.9993L 152.098 35.9993L 152.098 34.9013L 145.098 34.9013L 145.098 45.4013L 146.395 45.4013L 146.399 40.5973z"/>
<path style="stroke:none; fill-rule:evenodd; fill:#000000" d="M 160 41.9953C 160 40.8433 159.914 40.1513 159.7 39.5893C 159.211 38.3503 158.063 37.6003 156.653 37.6003C 154.555 37.6003 153.204 39.2143 153.204 41.6903C 153.204 44.1673 154.508 45.6943 156.614 45.6943C 158.332 45.6943 159.524 44.7293 159.825 43.1083L 158.61 43.1083C 158.278 44.0853 157.598 44.5933 156.629 44.5933C 155.864 44.5933 155.211 44.2493 154.809 43.6123C 154.524 43.1833 154.418 42.7493 154.407 41.9953L 160 41.9953zM 154.457 41.0503C 154.555 39.6553 155.407 38.7493 156.614 38.7493C 157.793 38.7493 158.7 39.7253 158.7 40.9643C 158.7 40.9913 158.7 41.0183 158.688 41.0503L 154.457 41.0503z"/>
<path style="stroke:none; fill-rule:evenodd; fill:#000000" d="M 168.301 44.6903C 168.172 44.6943 168.118 44.6943 168.043 44.6943C 167.629 44.6943 167.403 44.4793 167.403 44.1043L 167.403 39.6633C 167.403 38.3233 166.426 37.6003 164.567 37.6003C 163.473 37.6003 162.567 37.9213 162.063 38.4913C 161.719 38.8863 161.575 39.3233 161.547 40.0853L 162.754 40.0853C 162.852 39.1323 163.399 38.6983 164.524 38.6983C 165.602 38.6983 166.207 39.1003 166.207 39.8233L 166.207 40.1403C 166.207 40.6433 165.907 40.8583 164.954 40.9753C 163.254 41.1903 162.997 41.2493 162.536 41.4363C 161.657 41.7963 161.211 42.4723 161.211 43.4563C 161.211 44.8233 162.161 45.6903 163.688 45.6903C 164.637 45.6903 165.399 45.3703 166.25 44.6163C 166.336 45.3543 166.711 45.6903 167.489 45.6903C 167.731 45.6903 167.918 45.6633 168.309 45.5653L 168.301 44.6903zM 166.2 42.9873C 166.2 43.3783 166.086 43.6163 165.719 43.9363C 165.223 44.3703 164.625 44.5933 163.911 44.5933C 162.961 44.5933 162.407 44.1593 162.407 43.4173C 162.407 42.6473 162.946 42.2573 164.247 42.0733C 165.532 41.9053 165.793 41.8503 166.204 41.6713L 166.2 42.9873z"/>
<path style="stroke:none; fill-rule:evenodd; fill:#000000" d="M 172.301 37.8973L 171.004 37.8973L 171.004 35.7843L 169.805 35.7843L 169.805 37.8973L 168.805 37.8973L 168.805 38.8973L 169.805 38.8973L 169.805 44.5153C 169.805 45.2653 170.336 45.6903 171.297 45.6903C 171.59 45.6903 171.887 45.6633 172.301 45.5933L 172.301 44.6163C 172.137 44.6003 171.942 44.5973 171.7 44.5973C 171.157 44.5973 171.008 44.4603 171.008 43.9403L 171.008 38.9053L 172.305 38.9053L 172.301 37.8973z"/>
<path style="stroke:none; fill-rule:evenodd; fill:#000000" d="M 179.5 45.3703L 179.5 37.9013L 178.301 37.9013L 178.301 42.0973C 178.301 43.6083 177.5 44.5973 176.25 44.5973C 175.305 44.5973 174.704 44.0343 174.704 43.1433L 174.704 37.9013L 173.504 37.9013L 173.504 43.6593C 173.504 44.8973 174.434 45.6943 175.895 45.6943C 176.997 45.6943 177.7 45.3113 178.399 44.3273L 178.399 45.3663L 179.5 45.3703z"/>
<path style="stroke:none; fill-rule:evenodd; fill:#000000" d="M 181.7 37.8153L 181.7 45.3933L 182.899 45.3933L 182.899 41.4753C 182.899 40.3973 183.172 39.6903 183.747 39.2723C 184.122 38.9993 184.481 38.9133 185.317 38.8973L 185.317 37.6433C 185.118 37.6163 185.016 37.6003 184.856 37.6003C 184.079 37.6003 183.489 38.0613 182.797 39.1903L 182.797 37.8153L 181.7 37.8153z"/>
<path style="stroke:none; fill-rule:evenodd; fill:#000000" d="M 192.801 41.9953C 192.801 40.8433 192.715 40.1513 192.5 39.5893C 192.012 38.3503 190.864 37.6003 189.454 37.6003C 187.356 37.6003 186.004 39.2143 186.004 41.6903C 186.004 44.1673 187.309 45.6943 189.414 45.6943C 191.133 45.6943 192.325 44.7293 192.625 43.1083L 191.411 43.1083C 191.079 44.0853 190.399 44.5933 189.43 44.5933C 188.664 44.5933 188.012 44.2493 187.61 43.6123C 187.325 43.1833 187.219 42.7493 187.207 41.9953L 192.801 41.9953zM 187.258 41.0503C 187.356 39.6553 188.207 38.7493 189.414 38.7493C 190.594 38.7493 191.5 39.7253 191.5 40.9643C 191.5 40.9913 191.5 41.0183 191.489 41.0503L 187.258 41.0503z"/>
<path style="stroke:none; fill-rule:evenodd; fill:#000000" d="M 205.899 37.9833C 205.887 35.9053 204.489 34.6983 202.094 34.6983C 199.817 34.6983 198.403 35.8863 198.403 37.8043C 198.403 39.0933 199.079 39.9053 200.461 40.2683L 203.067 40.9643C 204.391 41.3113 204.997 41.8473 204.997 42.6753C 204.997 43.2373 204.696 43.8193 204.25 44.1403C 203.832 44.4293 203.172 44.5893 202.325 44.5893C 201.188 44.5893 200.414 44.3113 199.907 43.6943C 199.52 43.2253 199.348 42.7143 199.305 42.0543L 198.106 42.0543C 198.118 43.0073 198.305 43.6363 198.719 44.2063C 199.434 45.1753 200.637 45.6863 202.223 45.6863C 203.465 45.6863 204.481 45.4013 205.157 44.8823C 205.856 44.3193 206.301 43.3823 206.301 42.4753C 206.301 41.1793 205.497 40.2253 204.071 39.8353L 201.434 39.1323C 200.168 38.7883 199.707 38.3823 199.707 37.5773C 199.707 36.5113 200.649 35.8043 202.067 35.8043C 203.747 35.8043 204.688 36.5853 204.704 37.9873L 205.899 37.9833z"/>
<path style="stroke:none; fill-rule:evenodd; fill:#000000" d="M 214.5 41.9953C 214.5 40.8433 214.414 40.1513 214.2 39.5893C 213.711 38.3503 212.563 37.6003 211.153 37.6003C 209.055 37.6003 207.704 39.2143 207.704 41.6903C 207.704 44.1673 209.008 45.6943 211.114 45.6943C 212.832 45.6943 214.024 44.7293 214.325 43.1083L 213.11 43.1083C 212.778 44.0853 212.098 44.5933 211.129 44.5933C 210.364 44.5933 209.711 44.2493 209.309 43.6123C 209.024 43.1833 208.918 42.7493 208.907 41.9953L 214.5 41.9953zM 208.957 41.0503C 209.055 39.6553 209.907 38.7493 211.114 38.7493C 212.293 38.7493 213.2 39.7253 213.2 40.9643C 213.2 40.9913 213.2 41.0183 213.188 41.0503L 208.957 41.0503z"/>
<path style="stroke:none; fill-rule:evenodd; fill:#000000" d="M 222.801 44.6903C 222.672 44.6943 222.618 44.6943 222.543 44.6943C 222.129 44.6943 221.903 44.4793 221.903 44.1043L 221.903 39.6633C 221.903 38.3233 220.926 37.6003 219.067 37.6003C 217.973 37.6003 217.067 37.9213 216.563 38.4913C 216.219 38.8863 216.075 39.3233 216.047 40.0853L 217.254 40.0853C 217.352 39.1323 217.899 38.6983 219.024 38.6983C 220.102 38.6983 220.707 39.1003 220.707 39.8233L 220.707 40.1403C 220.707 40.6433 220.407 40.8583 219.454 40.9753C 217.754 41.1903 217.497 41.2493 217.036 41.4363C 216.157 41.7963 215.711 42.4723 215.711 43.4563C 215.711 44.8233 216.661 45.6903 218.188 45.6903C 219.137 45.6903 219.899 45.3703 220.75 44.6163C 220.836 45.3543 221.211 45.6903 221.989 45.6903C 222.231 45.6903 222.418 45.6633 222.809 45.5653L 222.801 44.6903zM 220.7 42.9873C 220.7 43.3783 220.586 43.6163 220.219 43.9363C 219.723 44.3703 219.125 44.5933 218.411 44.5933C 217.461 44.5933 216.907 44.1593 216.907 43.4173C 216.907 42.6473 217.446 42.2573 218.747 42.0733C 220.032 41.9053 220.293 41.8503 220.704 41.6713L 220.7 42.9873z"/>
<path style="stroke:none; fill-rule:evenodd; fill:#000000" d="M 224.102 37.8153L 224.102 45.3933L 225.301 45.3933L 225.301 41.4753C 225.301 40.3973 225.575 39.6903 226.149 39.2723C 226.524 38.9993 226.883 38.9133 227.719 38.8973L 227.719 37.6433C 227.52 37.6163 227.418 37.6003 227.258 37.6003C 226.481 37.6003 225.891 38.0613 225.2 39.1903L 225.2 37.8153L 224.102 37.8153z"/>
<path style="stroke:none; fill-rule:evenodd; fill:#000000" d="M 234.68 40.3903C 234.622 39.6283 234.465 39.1363 234.18 38.7023C 233.668 38.0153 232.77 37.6043 231.727 37.6043C 229.715 37.6043 228.403 39.2183 228.403 41.7253C 228.403 44.1593 229.684 45.7023 231.711 45.7023C 233.493 45.7023 234.622 44.6363 234.766 42.8113L 233.559 42.8113C 233.36 44.0033 232.743 44.6003 231.719 44.6003C 230.399 44.6003 229.606 43.5183 229.606 41.7253C 229.606 39.8353 230.379 38.7063 231.692 38.7063C 232.696 38.7063 233.329 39.3113 233.473 40.3933L 234.68 40.3903z"/>
<path style="stroke:none; fill-rule:evenodd; fill:#000000" d="M 236 34.8973L 236 45.3973L 237.2 45.3973L 237.2 41.1833C 237.2 39.6243 238.004 38.6003 239.243 38.6003C 239.629 38.6003 240.02 38.7293 240.305 38.9483C 240.649 39.1943 240.793 39.5573 240.793 40.1003L 240.793 45.3973L 241.993 45.3973L 241.993 39.6713C 241.993 38.4013 241.086 37.6003 239.614 37.6003C 238.547 37.6003 237.899 37.9403 237.192 38.8933L 237.192 34.9013L 236 34.8973z"/>
<path style="stroke:none; fill-rule:evenodd; fill:#000000" d="M 153.329 16.4563C 152.911 14.1323 151.59 12.9993 149.29 12.9993C 147.883 12.9993 146.747 13.4443 145.969 14.3073C 145.024 15.3433 144.504 16.8393 144.504 18.5383C 144.504 20.2653 145.036 21.7453 146.028 22.7683C 146.832 23.6003 147.868 23.9913 149.231 23.9913C 151.79 23.9913 153.227 22.6243 153.543 19.8623L 152.157 19.8623C 152.043 20.5933 151.899 21.0893 151.68 21.5153C 151.247 22.3903 150.352 22.8903 149.227 22.8903C 147.133 22.8903 145.805 21.1903 145.805 18.5223C 145.805 15.7803 147.075 14.0973 149.114 14.0973C 149.965 14.0973 150.758 14.3663 151.192 14.7923C 151.579 15.1673 151.797 15.6363 151.957 16.4523L 153.329 16.4563z"/>
<path style="stroke:none; fill-rule:evenodd; fill:#000000" d="M 158.086 15.8973C 155.981 15.8973 154.704 17.4093 154.704 19.9443C 154.704 22.4793 155.965 23.9913 158.102 23.9913C 160.207 23.9913 161.5 22.4793 161.5 20.0033C 161.5 17.3973 160.254 15.8973 158.086 15.8973zM 158.102 16.9953C 159.477 16.9953 160.301 18.1083 160.301 19.9873C 160.301 21.7653 159.454 22.8903 158.102 22.8903C 156.739 22.8903 155.907 21.7803 155.907 19.9403C 155.907 18.1203 156.743 16.9913 158.102 16.9913L 158.102 16.9953z"/>
<path style="stroke:none; fill-rule:evenodd; fill:#000000" d="M 163.2 16.1163L 163.2 23.6943L 164.399 23.6943L 164.399 19.5423C 164.399 18.0073 165.204 16.9993 166.442 16.9993C 167.391 16.9993 167.997 17.5733 167.997 18.4793L 167.997 23.6983L 169.196 23.6983L 169.196 17.9723C 169.196 16.7143 168.262 15.9013 166.805 15.9013C 165.684 15.9013 164.961 16.3353 164.297 17.3903L 164.297 16.1203L 163.2 16.1163z"/>
<path style="stroke:none; fill-rule:evenodd; fill:#000000" d="M 171.2 16.1983L 171.2 24.7183C 171.2 25.4523 170.957 25.6943 170.227 25.6943C 170.184 25.6943 170.184 25.6943 169.942 25.6943L 169.942 26.7493C 170.082 26.7763 170.157 26.7923 170.34 26.7923C 171.692 26.7923 172.395 26.2493 172.395 25.2373L 172.395 16.1943L 171.2 16.1983zM 172.399 13.1983L 171.2 13.1983L 171.2 14.6983L 172.399 14.6983L 172.399 13.1983z"/>
<path style="stroke:none; fill-rule:evenodd; fill:#000000" d="M 180.301 23.6713L 180.301 16.2023L 179.102 16.2023L 179.102 20.3973C 179.102 21.9093 178.301 22.8973 177.051 22.8973C 176.106 22.8973 175.504 22.3353 175.504 21.4443L 175.504 16.2023L 174.305 16.2023L 174.305 21.9603C 174.305 23.1983 175.235 23.9953 176.696 23.9953C 177.797 23.9953 178.5 23.6123 179.2 22.6283L 179.2 23.6673L 180.301 23.6713z"/>
<path style="stroke:none; fill-rule:evenodd; fill:#000000" d="M 182.399 16.1163L 182.399 23.6943L 183.598 23.6943L 183.598 19.5423C 183.598 18.0073 184.403 16.9993 185.641 16.9993C 186.59 16.9993 187.196 17.5733 187.196 18.4793L 187.196 23.6983L 188.395 23.6983L 188.395 17.9723C 188.395 16.7143 187.461 15.9013 186.004 15.9013C 184.883 15.9013 184.161 16.3353 183.497 17.3903L 183.497 16.1203L 182.399 16.1163z"/>
<path style="stroke:none; fill-rule:evenodd; fill:#000000" d="M 196.18 18.6863C 196.122 17.9253 195.965 17.4333 195.68 16.9993C 195.168 16.3113 194.27 15.9013 193.227 15.9013C 191.215 15.9013 189.903 17.5153 189.903 20.0223C 189.903 22.4563 191.184 23.9993 193.211 23.9993C 194.993 23.9993 196.122 22.9333 196.266 21.1083L 195.059 21.1083C 194.86 22.3003 194.243 22.8973 193.219 22.8973C 191.899 22.8973 191.106 21.8153 191.106 20.0223C 191.106 18.1323 191.879 17.0033 193.192 17.0033C 194.196 17.0033 194.829 17.6083 194.973 18.6903L 196.18 18.6863z"/>
<path style="stroke:none; fill-rule:evenodd; fill:#000000" d="M 200.301 16.1983L 199.004 16.1983L 199.004 14.0853L 197.805 14.0853L 197.805 16.1983L 196.805 16.1983L 196.805 17.1983L 197.805 17.1983L 197.805 22.8153C 197.805 23.5653 198.336 23.9913 199.297 23.9913C 199.59 23.9913 199.887 23.9643 200.301 23.8933L 200.301 22.9173C 200.137 22.9013 199.942 22.8973 199.7 22.8973C 199.157 22.8973 199.008 22.7613 199.008 22.2413L 199.008 17.2063L 200.305 17.2063L 200.301 16.1983z"/>
<path style="stroke:none; fill-rule:evenodd; fill:#000000" d="M 202.801 16.1983L 201.602 16.1983L 201.602 23.6983L 202.801 23.6983L 202.801 16.1983zM 202.801 13.1983L 201.602 13.1983L 201.602 14.7143L 202.801 14.7143L 202.801 13.1983z"/>
<path style="stroke:none; fill-rule:evenodd; fill:#000000" d="M 207.684 15.8973C 205.579 15.8973 204.301 17.4093 204.301 19.9443C 204.301 22.4793 205.563 23.9913 207.7 23.9913C 209.805 23.9913 211.098 22.4793 211.098 20.0033C 211.098 17.3973 209.852 15.8973 207.684 15.8973zM 207.7 16.9953C 209.075 16.9953 209.899 18.1083 209.899 19.9873C 209.899 21.7653 209.051 22.8903 207.7 22.8903C 206.336 22.8903 205.504 21.7803 205.504 19.9403C 205.504 18.1203 206.34 16.9913 207.7 16.9913L 207.7 16.9953z"/>
<path style="stroke:none; fill-rule:evenodd; fill:#000000" d="M 212.801 16.1163L 212.801 23.6943L 214 23.6943L 214 19.5423C 214 18.0073 214.805 16.9993 216.043 16.9993C 216.993 16.9993 217.598 17.5733 217.598 18.4793L 217.598 23.6983L 218.797 23.6983L 218.797 17.9723C 218.797 16.7143 217.864 15.9013 216.407 15.9013C 215.286 15.9013 214.563 16.3353 213.899 17.3903L 213.899 16.1203L 212.801 16.1163z"/>
<path style="stroke:none; fill-rule:evenodd; fill:#000000" d="M 232.301 16.2843C 232.29 14.2063 230.891 12.9993 228.497 12.9993C 226.219 12.9993 224.805 14.1863 224.805 16.1043C 224.805 17.3933 225.481 18.2063 226.864 18.5693L 229.469 19.2653C 230.793 19.6123 231.399 20.1473 231.399 20.9753C 231.399 21.5383 231.098 22.1203 230.653 22.4403C 230.235 22.7293 229.575 22.8903 228.727 22.8903C 227.59 22.8903 226.817 22.6123 226.309 21.9953C 225.922 21.5263 225.75 21.0153 225.707 20.3543L 224.508 20.3543C 224.52 21.3073 224.707 21.9363 225.122 22.5073C 225.836 23.4753 227.04 23.9873 228.625 23.9873C 229.868 23.9873 230.883 23.7023 231.559 23.1833C 232.258 22.6203 232.704 21.6833 232.704 20.7763C 232.704 19.4793 231.899 18.5263 230.473 18.1363L 227.836 17.4333C 226.571 17.0893 226.11 16.6833 226.11 15.8783C 226.11 14.8113 227.051 14.1043 228.469 14.1043C 230.149 14.1043 231.09 14.8863 231.106 16.2883L 232.301 16.2843z"/>
<path style="stroke:none; fill-rule:evenodd; fill:#000000" d="M 240.801 20.2963C 240.801 19.1433 240.715 18.4523 240.5 17.8903C 240.012 16.6513 238.864 15.9013 237.454 15.9013C 235.356 15.9013 234.004 17.5153 234.004 19.9913C 234.004 22.4683 235.309 23.9953 237.414 23.9953C 239.133 23.9953 240.325 23.0303 240.625 21.4093L 239.411 21.4093C 239.079 22.3863 238.399 22.8933 237.43 22.8933C 236.664 22.8933 236.012 22.5503 235.61 21.9133C 235.325 21.4833 235.219 21.0503 235.207 20.2963L 240.801 20.2963zM 235.258 19.3503C 235.356 17.9563 236.207 17.0503 237.414 17.0503C 238.594 17.0503 239.5 18.0263 239.5 19.2653C 239.5 19.2923 239.5 19.3193 239.489 19.3503L 235.258 19.3503z"/>
<path style="stroke:none; fill-rule:evenodd; fill:#000000" d="M 249.2 22.9913C 249.071 22.9953 249.016 22.9953 248.942 22.9953C 248.528 22.9953 248.301 22.7803 248.301 22.4053L 248.301 17.9643C 248.301 16.6243 247.325 15.9013 245.465 15.9013C 244.372 15.9013 243.465 16.2223 242.961 16.7923C 242.618 17.1863 242.473 17.6243 242.446 18.3863L 243.653 18.3863C 243.75 17.4333 244.297 16.9993 245.422 16.9993C 246.5 16.9993 247.106 17.4013 247.106 18.1243L 247.106 18.4403C 247.106 18.9443 246.805 19.1593 245.852 19.2763C 244.153 19.4913 243.895 19.5503 243.434 19.7373C 242.555 20.0973 242.11 20.7723 242.11 21.7573C 242.11 23.1243 243.059 23.9913 244.586 23.9913C 245.536 23.9913 246.297 23.6713 247.149 22.9173C 247.235 23.6553 247.61 23.9913 248.387 23.9913C 248.629 23.9913 248.817 23.9643 249.207 23.8663L 249.2 22.9913zM 247.102 21.2843C 247.102 21.6753 246.989 21.9133 246.622 22.2333C 246.125 22.6673 245.528 22.8903 244.813 22.8903C 243.864 22.8903 243.309 22.4563 243.309 21.7143C 243.309 20.9443 243.848 20.5543 245.149 20.3703C 246.434 20.2023 246.696 20.1473 247.106 19.9683L 247.102 21.2843z"/>
<path style="stroke:none; fill-rule:evenodd; fill:#000000" d="M 250.5 16.1163L 250.5 23.6943L 251.7 23.6943L 251.7 19.7763C 251.7 18.6983 251.973 17.9913 252.547 17.5733C 252.922 17.3003 253.282 17.2143 254.118 17.1983L 254.118 15.9443C 253.918 15.9173 253.817 15.9013 253.657 15.9013C 252.879 15.9013 252.29 16.3623 251.598 17.4913L 251.598 16.1163L 250.5 16.1163z"/>
<path style="stroke:none; fill-rule:evenodd; fill:#000000" d="M 260.981 18.6863C 260.922 17.9253 260.766 17.4333 260.481 16.9993C 259.969 16.3113 259.071 15.9013 258.028 15.9013C 256.016 15.9013 254.704 17.5153 254.704 20.0223C 254.704 22.4563 255.985 23.9993 258.012 23.9993C 259.793 23.9993 260.922 22.9333 261.067 21.1083L 259.86 21.1083C 259.661 22.3003 259.043 22.8973 258.02 22.8973C 256.7 22.8973 255.907 21.8153 255.907 20.0223C 255.907 18.1323 256.68 17.0033 257.993 17.0033C 258.997 17.0033 259.629 17.6083 259.774 18.6903L 260.981 18.6863z"/>
<path style="stroke:none; fill-rule:evenodd; fill:#000000" d="M 262.399 13.1983L 262.399 23.6983L 263.598 23.6983L 263.598 19.4833C 263.598 17.9253 264.403 16.9013 265.641 16.9013C 266.028 16.9013 266.418 17.0303 266.704 17.2493C 267.047 17.4953 267.192 17.8583 267.192 18.4013L 267.192 23.6983L 268.391 23.6983L 268.391 17.9723C 268.391 16.7023 267.485 15.9013 266.012 15.9013C 264.946 15.9013 264.297 16.2413 263.59 17.1943L 263.59 13.2023L 262.399 13.1983z"/>
<path style="stroke:none; fill-rule:evenodd; fill:#000000" d="M 198.301 221.796L 202.332 221.796C 204.973 221.796 206.594 219.811 206.594 216.542C 206.594 213.288 204.989 211.3 202.332 211.3L 198.301 211.3L 198.301 221.796zM 199.602 220.698L 199.602 212.401L 202.102 212.401C 204.192 212.401 205.301 213.823 205.301 216.557C 205.301 219.257 204.196 220.698 202.102 220.698L 199.602 220.698z"/>
<path style="stroke:none; fill-rule:evenodd; fill:#000000" d="M 209.5 214.296L 208.301 214.296L 208.301 221.796L 209.5 221.796L 209.5 214.296zM 209.5 211.296L 208.301 211.296L 208.301 212.811L 209.5 212.811L 209.5 211.296z"/>
<path style="stroke:none; fill-rule:evenodd; fill:#000000" d="M 216.805 216.354C 216.79 214.847 215.817 213.999 214.082 213.999C 212.336 213.999 211.204 214.905 211.204 216.307C 211.204 217.491 211.809 218.05 213.602 218.483L 214.727 218.757C 215.563 218.956 215.895 219.261 215.895 219.807C 215.895 220.511 215.184 220.987 214.125 220.987C 213.473 220.987 212.922 220.804 212.618 220.495C 212.43 220.284 212.344 220.073 212.27 219.546L 210.993 219.546C 211.047 221.265 212.024 222.089 213.997 222.089C 215.891 222.089 217.102 221.151 217.102 219.694C 217.102 218.569 216.469 217.952 214.965 217.589L 213.809 217.315C 212.829 217.085 212.407 216.768 212.407 216.237C 212.407 215.546 213.028 215.097 214.012 215.097C 214.981 215.097 215.504 215.53 215.532 216.354L 216.805 216.354z"/>
<path style="stroke:none; fill-rule:evenodd; fill:#000000" d="M 218.5 224.936L 219.7 224.936L 219.7 220.999C 220.329 221.761 221.028 222.097 221.997 222.097C 223.922 222.097 225.196 220.526 225.196 218.12C 225.196 215.585 223.969 213.999 221.985 213.999C 220.973 213.999 220.157 214.46 219.602 215.354L 219.602 214.214L 218.504 214.214L 218.5 224.936zM 221.805 215.097C 223.129 215.097 223.997 216.272 223.997 218.089C 223.997 219.815 223.118 220.991 221.805 220.991C 220.536 220.991 219.7 219.831 219.7 218.046C 219.7 216.261 220.536 215.097 221.805 215.097z"/>
<path style="stroke:none; fill-rule:evenodd; fill:#000000" d="M 226.7 221.796L 227.899 221.796L 227.899 211.296L 226.7 211.296L 226.7 221.796z"/>
<path style="stroke:none; fill-rule:evenodd; fill:#000000" d="M 236.602 221.093C 236.473 221.097 236.418 221.097 236.344 221.097C 235.93 221.097 235.704 220.882 235.704 220.507L 235.704 216.065C 235.704 214.725 234.727 214.003 232.868 214.003C 231.774 214.003 230.868 214.323 230.364 214.893C 230.02 215.288 229.875 215.725 229.848 216.487L 231.055 216.487C 231.153 215.534 231.7 215.1 232.825 215.1C 233.903 215.1 234.508 215.503 234.508 216.225L 234.508 216.542C 234.508 217.046 234.207 217.261 233.254 217.378C 231.555 217.593 231.297 217.651 230.836 217.839C 229.957 218.198 229.512 218.874 229.512 219.858C 229.512 221.225 230.461 222.093 231.989 222.093C 232.938 222.093 233.7 221.772 234.551 221.018C 234.637 221.757 235.012 222.093 235.79 222.093C 236.032 222.093 236.219 222.065 236.61 221.968L 236.602 221.093zM 234.5 219.386C 234.5 219.776 234.387 220.015 234.02 220.335C 233.524 220.768 232.926 220.991 232.211 220.991C 231.262 220.991 230.707 220.557 230.707 219.815C 230.707 219.046 231.247 218.655 232.547 218.472C 233.832 218.304 234.094 218.249 234.504 218.069L 234.5 219.386z"/>
<path style="stroke:none; fill-rule:evenodd; fill:#000000" d="M 242.485 214.296L 240.399 220.124L 238.473 214.296L 237.196 214.296L 239.743 221.866L 239.282 223.057C 239.098 223.589 238.821 223.788 238.321 223.788C 238.149 223.788 237.95 223.745 237.688 223.659L 237.688 224.706C 237.93 224.831 238.176 224.886 238.493 224.886C 238.879 224.886 239.297 224.757 239.614 224.53C 239.985 224.261 240.204 223.944 240.43 223.347L 243.782 214.292L 242.485 214.296z"/>
<path style="stroke:none; fill-rule:evenodd; fill:#000000" d="M 256.602 214.386C 256.59 212.307 255.192 211.1 252.797 211.1C 250.52 211.1 249.106 212.288 249.106 214.206C 249.106 215.495 249.782 216.307 251.164 216.671L 253.77 217.366C 255.094 217.714 255.7 218.249 255.7 219.077C 255.7 219.64 255.399 220.222 254.954 220.542C 254.536 220.831 253.875 220.991 253.028 220.991C 251.891 220.991 251.118 220.714 250.61 220.097C 250.223 219.628 250.051 219.116 250.008 218.456L 248.809 218.456C 248.821 219.409 249.008 220.038 249.422 220.608C 250.137 221.577 251.34 222.089 252.926 222.089C 254.168 222.089 255.184 221.804 255.86 221.284C 256.559 220.722 257.004 219.784 257.004 218.878C 257.004 217.581 256.2 216.628 254.774 216.237L 252.137 215.534C 250.872 215.19 250.411 214.784 250.411 213.979C 250.411 212.913 251.352 212.206 252.77 212.206C 254.45 212.206 255.391 212.987 255.407 214.39L 256.602 214.386z"/>
<path style="stroke:none; fill-rule:evenodd; fill:#000000" d="M 259.899 214.296L 258.7 214.296L 258.7 221.796L 259.899 221.796L 259.899 214.296zM 259.899 211.296L 258.7 211.296L 258.7 212.811L 259.899 212.811L 259.899 211.296z"/>
<path style="stroke:none; fill-rule:evenodd; fill:#000000" d="M 267.301 214.296L 261.704 214.296L 261.704 215.393L 265.852 215.393L 261.403 220.729L 261.403 221.792L 267.5 221.792L 267.5 220.694L 262.801 220.694L 267.301 215.397L 267.301 214.296z"/>
<path style="stroke:none; fill-rule:evenodd; fill:#000000" d="M 275.5 218.397C 275.5 217.245 275.414 216.554 275.2 215.991C 274.711 214.753 273.563 214.003 272.153 214.003C 270.055 214.003 268.704 215.616 268.704 218.093C 268.704 220.569 270.008 222.097 272.114 222.097C 273.832 222.097 275.024 221.132 275.325 219.511L 274.11 219.511C 273.778 220.487 273.098 220.995 272.129 220.995C 271.364 220.995 270.711 220.651 270.309 220.015C 270.024 219.585 269.918 219.151 269.907 218.397L 275.5 218.397zM 269.957 217.448C 270.055 216.054 270.907 215.147 272.114 215.147C 273.293 215.147 274.2 216.124 274.2 217.362C 274.2 217.39 274.2 217.417 274.188 217.448L 269.957 217.448z"/>
<path style="stroke:none; fill-rule:evenodd; fill:#000000" d="M 6 164.897L 6 161.433C 6 160.237 6.5704 159.702 7.8594 159.702L 8.7891 159.702C 9.4336 159.702 10.0625 159.593 10.4922 159.409L 10.4922 157.831L 10.1641 157.831C 9.8204 158.366 9.4454 158.472 8.0508 158.503C 6.3243 158.515 5.8086 158.78 5.3164 159.886C 4.7422 158.686 4.0078 158.202 2.8125 158.202C 1 158.202 0.00389862 159.335 0.00389862 161.382L 0.00389862 166.194L 10.5039 166.194L 10.5039 164.897L 6 164.897zM 4.8008 164.921L 1.1914 164.921L 1.1914 161.683C 1.1914 160.936 1.3047 160.503 1.5938 160.175C 1.8946 159.815 2.3672 159.628 3.0039 159.628C 4.2383 159.628 4.8008 160.261 4.8008 161.683L 4.8008 164.921z"/>
<path style="stroke:none; fill-rule:evenodd; fill:#000000" d="M 7.1016 149.796C 5.9493 149.796 5.2578 149.882 4.6954 150.097C 3.4571 150.585 2.7071 151.733 2.7071 153.143C 2.7071 155.241 4.3204 156.593 6.7969 156.593C 9.2735 156.593 10.8008 155.288 10.8008 153.183C 10.8008 151.464 9.836 150.272 8.2149 149.972L 8.2149 151.186C 9.1914 151.518 9.6993 152.198 9.6993 153.167C 9.6993 153.933 9.3555 154.585 8.7188 154.987C 8.2891 155.272 7.8555 155.378 7.1016 155.39L 7.1016 149.796zM 6.1524 155.339C 4.7578 155.241 3.8516 154.39 3.8516 153.183C 3.8516 152.003 4.8282 151.097 6.0664 151.097C 6.0938 151.097 6.1211 151.097 6.1524 151.108L 6.1524 155.339z"/>
<path style="stroke:none; fill-rule:evenodd; fill:#000000" d="M 9.793 141.495C 9.7969 141.624 9.7969 141.679 9.7969 141.753C 9.7969 142.167 9.5821 142.393 9.2071 142.393L 4.7657 142.393C 3.4258 142.393 2.7032 143.37 2.7032 145.229C 2.7032 146.323 3.0235 147.229 3.5938 147.733C 3.9883 148.077 4.4258 148.222 5.1875 148.249L 5.1875 147.042C 4.2344 146.944 3.8008 146.397 3.8008 145.272C 3.8008 144.194 4.2032 143.589 4.9258 143.589L 5.2422 143.589C 5.7461 143.589 5.961 143.89 6.0782 144.843C 6.293 146.542 6.3516 146.8 6.5391 147.261C 6.8985 148.14 7.5743 148.585 8.5586 148.585C 9.9258 148.585 10.793 147.636 10.793 146.108C 10.793 145.159 10.4727 144.397 9.7188 143.546C 10.4571 143.46 10.793 143.085 10.793 142.307C 10.793 142.065 10.7657 141.878 10.668 141.487L 9.793 141.495zM 8.0899 143.597C 8.4805 143.597 8.7188 143.71 9.0391 144.077C 9.4727 144.573 9.6954 145.171 9.6954 145.886C 9.6954 146.835 9.2618 147.39 8.5196 147.39C 7.75 147.39 7.3594 146.85 7.1758 145.55C 7.0078 144.265 6.9532 144.003 6.7735 143.593L 8.0899 143.597z"/>
<path style="stroke:none; fill-rule:evenodd; fill:#000000" d="M 5.4922 134.417C 4.7305 134.475 4.2383 134.632 3.8047 134.917C 3.1172 135.429 2.7071 136.327 2.7071 137.37C 2.7071 139.382 4.3204 140.694 6.8282 140.694C 9.2618 140.694 10.8047 139.413 10.8047 137.386C 10.8047 135.604 9.7383 134.475 7.9141 134.331L 7.9141 135.538C 9.1055 135.737 9.7032 136.354 9.7032 137.378C 9.7032 138.698 8.6211 139.491 6.8282 139.491C 4.9375 139.491 3.8086 138.718 3.8086 137.405C 3.8086 136.401 4.4141 135.768 5.4961 135.624L 5.4922 134.417z"/>
<path style="stroke:none; fill-rule:evenodd; fill:#000000" d="M 3 130.296L 3 131.593L 0.886803 131.593L 0.886803 132.792L 3 132.792L 3 133.792L 4 133.792L 4 132.792L 9.6172 132.792C 10.3672 132.792 10.793 132.261 10.793 131.3C 10.793 131.007 10.7657 130.71 10.6954 130.296L 9.7188 130.296C 9.7032 130.46 9.6993 130.655 9.6993 130.897C 9.6993 131.44 9.5625 131.589 9.043 131.589L 4.0078 131.589L 4.0078 130.292L 3 130.296z"/>
<path style="stroke:none; fill-rule:evenodd; fill:#000000" d="M 3 127.796L 3 128.995L 10.5 128.995L 10.5 127.796L 3 127.796zM 0 127.796L 0 128.995L 1.5157 128.995L 1.5157 127.796L 0 127.796z"/>
<path style="stroke:none; fill-rule:evenodd; fill:#000000" d="M 2.6993 122.913C 2.6993 125.018 4.211 126.296 6.7461 126.296C 9.2813 126.296 10.793 125.034 10.793 122.897C 10.793 120.792 9.2813 119.499 6.8047 119.499C 4.1993 119.499 2.6993 120.745 2.6993 122.913zM 3.8008 122.897C 3.8008 121.522 4.9141 120.698 6.793 120.698C 8.5704 120.698 9.6954 121.546 9.6954 122.897C 9.6954 124.261 8.586 125.093 6.7461 125.093C 4.9258 125.093 3.7969 124.257 3.7969 122.897L 3.8008 122.897z"/>
<path style="stroke:none; fill-rule:evenodd; fill:#000000" d="M 2.918 117.796L 10.4961 117.796L 10.4961 116.597L 6.3438 116.597C 4.8086 116.597 3.8008 115.792 3.8008 114.554C 3.8008 113.604 4.375 112.999 5.2813 112.999L 10.5 112.999L 10.5 111.8L 4.7735 111.8C 3.5157 111.8 2.7032 112.733 2.7032 114.19C 2.7032 115.311 3.1368 116.034 4.1914 116.698L 2.9219 116.698L 2.918 117.796z"/>
<path style="stroke:none; fill-rule:evenodd; fill:#000000" d="M 1.1016 101.698L 1.1016 98.2653L 0.00389862 98.2653L 0.00389862 106.495L 1.1016 106.495L 1.1016 102.999L 10.5 102.999L 10.5 101.702L 1.1016 101.698z"/>
<path style="stroke:none; fill-rule:evenodd; fill:#000000" d="M 3 95.7963L 3 96.9953L 10.5 96.9953L 10.5 95.7963L 3 95.7963zM 0 95.7963L 0 96.9953L 1.5157 96.9953L 1.5157 95.7963L 0 95.7963z"/>
<path style="stroke:none; fill-rule:evenodd; fill:#000000" d="M 2.918 93.7963L 10.4961 93.7963L 10.4961 92.5973L 5.7696 92.5973C 4.6797 92.5973 3.8008 91.8003 3.8008 90.8113C 3.8008 89.9133 4.3438 89.4013 5.3086 89.4013L 10.4961 89.4013L 10.4961 88.2023L 5.7696 88.2023C 4.6797 88.2023 3.8008 87.4053 3.8008 86.4173C 3.8008 85.5303 4.3594 85.0073 5.3086 85.0073L 10.4961 85.0073L 10.4961 83.8073L 4.8125 83.8073C 3.4532 83.8073 2.6993 84.5893 2.6993 86.0073C 2.6993 87.0183 3.0118 87.6243 3.8907 88.3353C 3.0586 88.7803 2.6993 89.3903 2.6993 90.3743C 2.6993 91.3863 3.0743 92.0503 3.9844 92.7023L 2.918 92.7023L 2.918 93.7963z"/>
<path style="stroke:none; fill-rule:evenodd; fill:#000000" d="M 7.1016 75.3973C 5.9493 75.3973 5.2578 75.4833 4.6954 75.6983C 3.4571 76.1863 2.7071 77.3353 2.7071 78.7453C 2.7071 80.8433 4.3204 82.1943 6.7969 82.1943C 9.2735 82.1943 10.8008 80.8903 10.8008 78.7843C 10.8008 77.0653 9.836 75.8743 8.2149 75.5733L 8.2149 76.7883C 9.1914 77.1203 9.6993 77.8003 9.6993 78.7683C 9.6993 79.5343 9.3555 80.1863 8.7188 80.5893C 8.2891 80.8743 7.8555 80.9793 7.1016 80.9913L 7.1016 75.3973zM 6.1524 80.9403C 4.7578 80.8433 3.8516 79.9913 3.8516 78.7843C 3.8516 77.6043 4.8282 76.6983 6.0664 76.6983C 6.0938 76.6983 6.1211 76.6983 6.1524 76.7103L 6.1524 80.9403z"/>
<path style="stroke:none; fill-rule:evenodd; fill:#000000" d="M 0 67.4133C 1.8868 68.8743 4.5078 69.7963 6.7696 69.7963C 9.043 69.7963 11.6641 68.8783 13.5469 67.4133L 13.5469 66.6083C 11.4883 67.8863 9.0704 68.5973 6.7696 68.5973C 4.4844 68.5973 2.0469 67.8863 0 66.6083L 0 67.4133z"/>
<path style="stroke:none; fill-rule:evenodd; fill:#000000" d="M 5.4922 59.2183C 4.7305 59.2763 4.2383 59.4333 3.8047 59.7183C 3.1172 60.2293 2.7071 61.1283 2.7071 62.1713C 2.7071 64.1833 4.3204 65.4953 6.8282 65.4953C 9.2618 65.4953 10.8047 64.2143 10.8047 62.1863C 10.8047 60.4053 9.7383 59.2763 7.9141 59.1323L 7.9141 60.3393C 9.1055 60.5383 9.7032 61.1553 9.7032 62.1793C 9.7032 63.4993 8.6211 64.2923 6.8282 64.2923C 4.9375 64.2923 3.8086 63.5183 3.8086 62.2063C 3.8086 61.2023 4.4141 60.5693 5.4961 60.4253L 5.4922 59.2183z"/>
<path style="stroke:none; fill-rule:evenodd; fill:#000000" d="M 3 53.2143L 8.8282 55.3003L 3 57.2253L 3 58.5033L 10.5704 55.9563L 11.7618 56.4173C 12.293 56.6003 12.4922 56.8783 12.4922 57.3783C 12.4922 57.5503 12.4493 57.7493 12.3633 58.0113L 13.4102 58.0113C 13.5352 57.7683 13.5899 57.5223 13.5899 57.2063C 13.5899 56.8193 13.461 56.4013 13.2344 56.0853C 12.9649 55.7143 12.6485 55.4953 12.0508 55.2683L 2.9961 51.9173L 3 53.2143z"/>
<path style="stroke:none; fill-rule:evenodd; fill:#000000" d="M 5.4922 44.8153C 4.7305 44.8743 4.2383 45.0303 3.8047 45.3153C 3.1172 45.8273 2.7071 46.7253 2.7071 47.7683C 2.7071 49.7803 4.3204 51.0933 6.8282 51.0933C 9.2618 51.0933 10.8047 49.8113 10.8047 47.7843C 10.8047 46.0033 9.7383 44.8743 7.9141 44.7293L 7.9141 45.9363C 9.1055 46.1363 9.7032 46.7533 9.7032 47.7763C 9.7032 49.0973 8.6211 49.8903 6.8282 49.8903C 4.9375 49.8903 3.8086 49.1163 3.8086 47.8043C 3.8086 46.8003 4.4141 46.1673 5.4961 46.0223L 5.4922 44.8153z"/>
<path style="stroke:none; fill-rule:evenodd; fill:#000000" d="M 0 43.3973L 10.5 43.3973L 10.5 42.1983L 0 42.1983L 0 43.3973z"/>
<path style="stroke:none; fill-rule:evenodd; fill:#000000" d="M 7.1016 33.7963C 5.9493 33.7963 5.2578 33.8823 4.6954 34.0973C 3.4571 34.5853 2.7071 35.7333 2.7071 37.1433C 2.7071 39.2413 4.3204 40.5933 6.7969 40.5933C 9.2735 40.5933 10.8008 39.2883 10.8008 37.1833C 10.8008 35.4643 9.836 34.2723 8.2149 33.9723L 8.2149 35.1863C 9.1914 35.5183 9.6993 36.1983 9.6993 37.1673C 9.6993 37.9333 9.3555 38.5853 8.7188 38.9873C 8.2891 39.2723 7.8555 39.3783 7.1016 39.3903L 7.1016 33.7963zM 6.1524 39.3393C 4.7578 39.2413 3.8516 38.3903 3.8516 37.1833C 3.8516 36.0033 4.8282 35.0973 6.0664 35.0973C 6.0938 35.0973 6.1211 35.0973 6.1524 35.1083L 6.1524 39.3393z"/>
<path style="stroke:none; fill-rule:evenodd; fill:#000000" d="M 5.0586 26.8933C 3.5508 26.9093 2.7032 27.8823 2.7032 29.6163C 2.7032 31.3623 3.6094 32.4953 5.0118 32.4953C 6.1954 32.4953 6.7539 31.8903 7.1875 30.0973L 7.461 28.9723C 7.6602 28.1363 7.9649 27.8043 8.5118 27.8043C 9.2149 27.8043 9.6914 28.5153 9.6914 29.5733C 9.6914 30.2253 9.5078 30.7763 9.1993 31.0813C 8.9883 31.2683 8.7774 31.3543 8.25 31.4293L 8.25 32.7063C 9.9688 32.6513 10.793 31.6753 10.793 29.7023C 10.793 27.8073 9.8555 26.5973 8.3985 26.5973C 7.2735 26.5973 6.6563 27.2293 6.293 28.7333L 6.0196 29.8903C 5.7891 30.8703 5.4727 31.2923 4.9414 31.2923C 4.25 31.2923 3.8008 30.6713 3.8008 29.6863C 3.8008 28.7183 4.2344 28.1943 5.0586 28.1673L 5.0586 26.8933z"/>
<path style="stroke:none; fill-rule:evenodd; fill:#000000" d="M 13.5508 24.6553C 11.668 23.2103 9.0469 22.3003 6.7852 22.3003C 4.5118 22.3003 1.8907 23.2103 0.00389862 24.6553L 0.00389862 25.4483C 2.0625 24.1943 4.4844 23.4953 6.7852 23.4953C 9.0704 23.4953 11.5078 24.1903 13.5508 25.4483L 13.5508 24.6553z"/>
</g>
</svg>