<?xml version="1.0" encoding="UTF-8" standalone="no"?>
<svg
   xmlns:dc="http://purl.org/dc/elements/1.1/"
   xmlns:cc="http://creativecommons.org/ns#"
   xmlns:rdf="http://www.w3.org/1999/02/22-rdf-syntax-ns#"
   xmlns:svg="http://www.w3.org/2000/svg"
   xmlns="http://www.w3.org/2000/svg"
   xmlns:sodipodi="http://sodipodi.sourceforge.net/DTD/sodipodi-0.dtd"
   xmlns:inkscape="http://www.inkscape.org/namespaces/inkscape"
   inkscape:export-ydpi="149.95399"
   inkscape:export-xdpi="149.95399"
   inkscape:export-filename="/Users/oreilly/ccngit/figs/fig_deepleabra_wwi_emer_lrn_bp.png"
   inkscape:version="1.0 (4035a4f, 2020-05-01)"
   sodipodi:docname="fig_deepleabra_wwi_emer_lrn_bp.svg"
   id="svg3396"
   viewBox="0 0 1000.0 1000.0"
   height="400px"
   width="400px"
   version="1.1">
  <metadata
     id="metadata3402">
    <rdf:RDF>
      <cc:Work
         rdf:about="">
        <dc:format>image/svg+xml</dc:format>
        <dc:type
           rdf:resource="http://purl.org/dc/dcmitype/StillImage" />
        <dc:title />
      </cc:Work>
    </rdf:RDF>
  </metadata>
  <defs
     id="defs3400" />
  <sodipodi:namedview
     inkscape:document-rotation="0"
     inkscape:current-layer="svg3396"
     inkscape:cy="189.19426"
     inkscape:cx="436.67657"
     inkscape:zoom="1.3930004"
     showgrid="false"
     id="namedview3398"
     inkscape:window-height="480"
     inkscape:window-width="640"
     inkscape:pageshadow="2"
     inkscape:pageopacity="0"
     guidetolerance="10"
     gridtolerance="10"
     objecttolerance="10"
     borderopacity="1"
     bordercolor="#666666"
     pagecolor="#ffffff" />
  <rect
     y="40.422371"
     x="-5.3999157"
     height="925.49451"
     width="954.8053"
     id="rect1216"
     style="opacity:1;fill:#ffffff;fill-opacity:1;fill-rule:nonzero;stroke:#ffffff;stroke-width:2.43193507;stroke-linecap:butt;stroke-linejoin:miter;stroke-miterlimit:4;stroke-dasharray:none;stroke-dashoffset:0;stroke-opacity:1" />
  <path
     id="path3312"
     d="M 160.0,824.5 L 160.0,101.7 L 882.8,101.7 L 882.8,824.5 L 160.0,824.5 "
     fill="none"
     stroke-width="2"
     stroke="#000000" />
  <text
     x="521.40002"
     y="940.401"
     font-size="36.2"
     id="text3314"
     style="font-style:normal;font-variant:normal;font-weight:normal;font-stretch:normal;font-size:46.6667px;font-family:Arial;-inkscape-font-specification:'Arial, Normal';font-variant-ligatures:normal;font-variant-caps:normal;font-variant-numeric:normal;font-feature-settings:normal;text-align:center;writing-mode:lr-tb;text-anchor:middle;fill:#000000">epoch</text>
  <text
     x="231.7"
     y="885.90002"
     font-size="36.2"
     id="text3316"
     style="font-style:normal;font-variant:normal;font-weight:normal;font-stretch:normal;font-size:46.6667px;font-family:Arial;-inkscape-font-specification:'Arial, Normal';font-variant-ligatures:normal;font-variant-caps:normal;font-variant-numeric:normal;font-feature-settings:normal;text-align:center;writing-mode:lr-tb;text-anchor:middle;fill:#000000">100</text>
  <text
     x="521.40002"
     y="885.90002"
     font-size="36.2"
     id="text3324"
     style="font-style:normal;font-variant:normal;font-weight:normal;font-stretch:normal;font-size:46.6667px;font-family:Arial;-inkscape-font-specification:'Arial, Normal';font-variant-ligatures:normal;font-variant-caps:normal;font-variant-numeric:normal;font-feature-settings:normal;text-align:center;writing-mode:lr-tb;text-anchor:middle;fill:#000000">500</text>
  <text
     x="883.5"
     y="885.90002"
     font-size="36.2"
     id="text3334"
     style="font-style:normal;font-variant:normal;font-weight:normal;font-stretch:normal;font-size:46.6667px;font-family:Arial;-inkscape-font-specification:'Arial, Normal';font-variant-ligatures:normal;font-variant-caps:normal;font-variant-numeric:normal;font-feature-settings:normal;text-align:center;writing-mode:lr-tb;text-anchor:middle;fill:#000000">1000</text>
  <path
     d="m 160,824.5 h 722.8 m -651.1,18 v -36.1 m 72.5,36.1 v -36.1 m 72.4,36.1 v -36.1 m 72.4,36.1 v -36.1 m 72.4,36.1 v -36.1 m 72.4,36.1 v -36.1 m 72.4,36.1 v -36.1 m 72.5,36.1 v -36.1 m 72.4,36.1 v -36.1 m 72.4,36.1 v -36.1"
     id="path3336"
     inkscape:connector-curvature="0"
     style="fill:none;stroke:#000000;stroke-width:2" />
  <path
     d="M 160,101.7 H 882.8 M 231.7,119.8 V 83.7 m 72.5,36.1 V 83.7 m 72.4,36.1 V 83.7 M 449,119.8 V 83.7 m 72.4,36.1 V 83.7 m 72.4,36.1 V 83.7 m 72.4,36.1 V 83.7 m 72.5,36.1 V 83.7 m 72.4,36.1 V 83.7 m 72.4,36.1 V 83.7"
     id="path3338"
     inkscape:connector-curvature="0"
     style="fill:none;stroke:#000000;stroke-width:2" />
  <text
     x="120.11664"
     y="838.90002"
     font-size="36.2"
     id="text3342"
     style="font-style:normal;font-variant:normal;font-weight:normal;font-stretch:normal;font-size:46.6667px;font-family:Arial;-inkscape-font-specification:'Arial, Normal';font-variant-ligatures:normal;font-variant-caps:normal;font-variant-numeric:normal;font-feature-settings:normal;text-align:center;writing-mode:lr-tb;text-anchor:middle;fill:#000000">0</text>
  <text
     x="100.29241"
     y="477.60001"
     font-size="36.2"
     id="text3352"
     style="font-style:normal;font-variant:normal;font-weight:normal;font-stretch:normal;font-size:46.6667px;font-family:Arial;-inkscape-font-specification:'Arial, Normal';font-variant-ligatures:normal;font-variant-caps:normal;font-variant-numeric:normal;font-feature-settings:normal;text-align:center;writing-mode:lr-tb;text-anchor:middle;fill:#000000">0.5</text>
  <text
     x="126.45127"
     y="116.2"
     font-size="36.2"
     id="text3362"
     style="font-style:normal;font-variant:normal;font-weight:normal;font-stretch:normal;font-size:46.6667px;font-family:Arial;-inkscape-font-specification:'Arial, Normal';font-variant-ligatures:normal;font-variant-caps:normal;font-variant-numeric:normal;font-feature-settings:normal;text-align:center;writing-mode:lr-tb;text-anchor:middle;fill:#000000">1</text>
  <path
     d="M 160,824.5 V 101.7 m -18,722.8 h 36.1 M 142,752.2 h 36.1 M 142,679.9 h 36.1 M 142,607.7 h 36.1 M 142,535.4 h 36.1 M 142,463.1 h 36.1 M 142,390.8 h 36.1 M 142,318.6 h 36.1 M 142,246.3 h 36.1 M 142,174 h 36.1 M 142,101.7 h 36.1"
     id="path3364"
     inkscape:connector-curvature="0"
     style="fill:#000000;stroke:#000000;stroke-width:2" />
  <path
     d="M 882.8,824.5 V 101.7 m -18.1,722.8 h 36.1 m -36.1,-72.3 h 36.1 m -36.1,-72.3 h 36.1 m -36.1,-72.2 h 36.1 m -36.1,-72.3 h 36.1 m -36.1,-72.3 h 36.1 m -36.1,-72.3 h 36.1 m -36.1,-72.2 h 36.1 m -36.1,-72.3 h 36.1 M 864.7,174 h 36.1 m -36.1,-72.3 h 36.1"
     id="path3366"
     inkscape:connector-curvature="0"
     style="fill:none;stroke:#000000;stroke-width:2" />
  <path
     d=""
     id="path3378"
     style="fill:none;stroke:#7eff00;stroke-width:2.5;stroke-miterlimit:4;stroke-dasharray:none"
     inkscape:connector-curvature="0" />
  <path
     d=""
     id="path3382"
     style="fill:none;stroke:#7eff00;stroke-width:2.5;stroke-miterlimit:4;stroke-dasharray:none"
     inkscape:connector-curvature="0" />
  <path
     d=""
     id="path3384"
     style="fill:none;stroke:#7eff00;stroke-width:2.5;stroke-miterlimit:4;stroke-dasharray:none"
     inkscape:connector-curvature="0" />
  <path
     d=""
     id="path3386"
     style="fill:none;stroke:#800080;stroke-width:2.5;stroke-miterlimit:4;stroke-dasharray:none"
     inkscape:connector-curvature="0" />
  <path
     d=""
     id="path3390"
     style="fill:none;stroke:#800080;stroke-width:2.5;stroke-miterlimit:4;stroke-dasharray:none"
     inkscape:connector-curvature="0" />
  <path
     d=""
     id="path3392"
     style="fill:none;stroke:#800080;stroke-width:2.5;stroke-miterlimit:4;stroke-dasharray:none"
     inkscape:connector-curvature="0" />
  <text
     transform="rotate(-90)"
     id="text4649"
     y="58.234776"
     x="-459.12933"
     style="color:#000000;font-style:normal;font-variant:normal;font-weight:normal;font-stretch:normal;font-size:46.6667px;line-height:100%;font-family:Arial;-inkscape-font-specification:'Arial, Normal';font-variant-ligatures:normal;font-variant-caps:normal;font-variant-numeric:normal;font-feature-settings:normal;text-indent:0;text-align:center;text-decoration:none;text-decoration-line:none;letter-spacing:0px;word-spacing:0px;text-transform:none;writing-mode:lr-tb;direction:ltr;text-anchor:middle;display:inline;overflow:visible;visibility:visible;fill:#000000;fill-opacity:1;fill-rule:nonzero;stroke:none;stroke-width:2.5px;stroke-linecap:butt;stroke-linejoin:miter;stroke-opacity:1;marker:none;enable-background:accumulate"
     xml:space="preserve"><tspan
       style="font-style:normal;font-variant:normal;font-weight:normal;font-stretch:normal;font-size:46.6667px;font-family:Arial;-inkscape-font-specification:'Arial, Normal';font-variant-ligatures:normal;font-variant-caps:normal;font-variant-numeric:normal;font-feature-settings:normal;text-align:center;writing-mode:lr-tb;text-anchor:middle;stroke-width:2.5px"
       y="58.234776"
       x="-459.12936"
       id="tspan4647"
       sodipodi:role="line">Prediction Accuracy (Correlation)</tspan></text>
  <text
     id="text4661"
     y="165.52858"
     x="641.35126"
     style="color:#000000;font-style:normal;font-variant:normal;font-weight:normal;font-stretch:normal;font-size:33.3333px;line-height:100%;font-family:Arial;-inkscape-font-specification:Arial;text-indent:0;text-align:start;text-decoration:none;text-decoration-line:none;letter-spacing:0px;word-spacing:0px;text-transform:none;writing-mode:lr-tb;direction:ltr;text-anchor:start;display:inline;overflow:visible;visibility:visible;fill:#000000;fill-opacity:1;fill-rule:nonzero;stroke:none;stroke-width:2.5px;stroke-linecap:butt;stroke-linejoin:miter;stroke-opacity:1;marker:none;enable-background:accumulate"
     xml:space="preserve"><tspan
       style="stroke-width:2.5px"
       y="165.52858"
       x="641.35126"
       id="tspan4659"
       sodipodi:role="line">V1p (low res)</tspan></text>
  <text
     id="text4665"
     y="328.08945"
     x="618.02032"
     style="color:#000000;font-style:normal;font-variant:normal;font-weight:normal;font-stretch:normal;font-size:33.3333px;line-height:100%;font-family:Arial;-inkscape-font-specification:Arial;text-indent:0;text-align:start;text-decoration:none;text-decoration-line:none;letter-spacing:0px;word-spacing:0px;text-transform:none;writing-mode:lr-tb;direction:ltr;text-anchor:start;display:inline;overflow:visible;visibility:visible;fill:#000000;fill-opacity:1;fill-rule:nonzero;stroke:none;stroke-width:2.5px;stroke-linecap:butt;stroke-linejoin:miter;stroke-opacity:1;marker:none;enable-background:accumulate"
     xml:space="preserve"><tspan
       style="stroke-width:2.5px"
       y="328.08945"
       x="618.02032"
       id="tspan4663"
       sodipodi:role="line">V1hp (high res)</tspan></text>
  <path
     style="fill:none;stroke:#7eff00;stroke-width:1"
     inkscape:connector-curvature="0"
     d=""
     id="path5630" />
  <path
     style="fill:none;stroke:#7eff00;stroke-width:1"
     inkscape:connector-curvature="0"
     d=""
     id="path5634" />
  <path
     style="fill:none;stroke:#7eff00;stroke-width:1"
     inkscape:connector-curvature="0"
     d=""
     id="path5636" />
  <path
     style="fill:none;stroke:#800080;stroke-width:1"
     inkscape:connector-curvature="0"
     d=""
     id="path5638" />
  <path
     style="fill:none;stroke:#800080;stroke-width:1"
     inkscape:connector-curvature="0"
     d=""
     id="path5642" />
  <path
     style="fill:none;stroke:#800080;stroke-width:1"
     inkscape:connector-curvature="0"
     d=""
     id="path5644" />
  <path
     style="fill:none;stroke:#000080;stroke-width:1"
     inkscape:connector-curvature="0"
     d=""
     id="path1069" />
  <path
     style="fill:none;stroke:#000080;stroke-width:1"
     inkscape:connector-curvature="0"
     d=""
     id="path1073" />
  <path
     style="fill:none;stroke:#000080;stroke-width:1"
     inkscape:connector-curvature="0"
     d=""
     id="path1075" />
  <path
     style="fill:none;stroke:#000000;stroke-width:1"
     inkscape:connector-curvature="0"
     d=""
     id="path1077" />
  <path
     style="fill:none;stroke:#000000;stroke-width:1"
     inkscape:connector-curvature="0"
     d=""
     id="path1081" />
  <path
     style="fill:none;stroke:#000000;stroke-width:1"
     inkscape:connector-curvature="0"
     d=""
     id="path1083" />
  <path
     id="path1212"
     d="m 170.52946,432.3 0.7,-79.7 0.7,-29 0.8,-13.4 0.7,-12.3 0.7,-10.5 0.7,-12 0.7,-4 0.7,16 0.7,-16.7 0.7,-2.3 0.7,0.6 0.7,6.7 0.7,0.1 0.7,-7.4 0.8,-11.3 0.7,3.1 0.7,0.4 0.7,2.6 0.7,-14.5 0.7,9.9 0.7,-6.5 0.7,-0.4 0.7,0.2 0.7,-1.9 0.7,-4.2 0.8,-5.2 0.7,16.6 0.7,-15.6 0.7,1.2 0.7,1.6 0.7,-3.3 0.7,2 0.7,3 0.7,-3.2 0.7,-5.8 0.7,17.6 0.7,-4.9 0.8,-10.9 0.7,0.3 0.7,5 0.7,-7.4 h 0.7 l 0.7,9.8 0.7,-5.7 0.7,-9.6 0.7,4.9 0.7,-1.3 0.7,2.6 0.7,-0.3 0.8,1.1 0.7,-4 0.7,1.8 0.7,0.6 0.7,7.8 0.7,-10.9 0.7,7.3 0.7,-1.3 0.7,-8.3 0.7,5.5 0.7,-0.6 0.8,13.7 0.7,-12.3 0.7,2.3 0.7,-14.2 0.7,17.2 0.7,-6.4 0.7,-5.1 0.7,-0.1 0.7,8.7 0.7,4.4 0.7,-12.9 0.7,12.6 0.8,-14.7 0.7,5.7 0.7,1.1 0.7,3.6 0.7,-2.9 0.7,-7.9 0.7,2.3 0.7,-8.2 0.7,12.6 0.7,-2.2 0.7,-3.4 0.7,-3.2 0.8,9.8 0.7,2.6 0.7,-15.2 0.7,5.7 0.7,1.3 0.7,-2.9 0.7,1.1 0.7,2.5 0.7,3.5 0.7,-8.7 0.7,1.9 0.8,-3.3 0.7,-6 0.7,6.9 0.7,2.2 0.7,-7.1 0.7,10.9 0.7,-7.3 0.7,-2.4 0.7,2.7 0.7,8.9 0.7,-0.2 0.7,-10.8 0.8,-2.5 0.7,8.6 0.7,-5.7 0.7,-3.8 0.7,5.3 0.7,-6.8 0.7,2.6 0.7,11.2 0.7,-5 0.7,-6.9 0.7,6.3 0.7,0.5 0.8,4.2 0.7,1.5 0.7,-10.4 h 0.7 l 0.7,-1.7 0.7,7 0.7,-3.5 0.7,3.4 0.7,-5.4 0.7,-5.9 0.7,-2.9 0.8,6.6 0.7,5.1 0.7,-12 0.7,11.6 0.7,-1.7 0.7,-9.5 0.7,17.2 0.7,-16.1 0.7,5.4 0.7,-7.3 0.7,5.4 0.7,5 0.8,-0.7 0.7,-0.5 0.7,3.2 0.7,-1 0.7,1.1 0.7,-3.6 0.7,-0.7 0.7,-7.1 0.7,10.6 0.7,-2.8 0.7,-1.8 0.7,1.7 0.8,-1.2 0.7,10.9 0.7,0.5 0.7,-8.3 0.7,-2.1 0.7,-7.5 0.7,3.9 0.7,3.4 0.7,-6.2 0.7,0.6 0.7,2.1 0.8,5 0.7,-13.3 0.7,18.7 0.7,-3.6 0.7,-2.1 0.7,-6 0.7,8.9 0.7,-8.5 0.7,5.5 0.7,-3.8 0.7,-0.7 0.7,3.5 0.8,-5.1 0.7,4.9 0.7,0.3 0.7,0.2 0.7,-1.1 0.7,-7 0.7,5 0.7,-1.1 0.7,2 0.7,-1.7 0.7,-2.6 0.7,2.2 0.8,-1.1 0.7,12.2 0.7,-9.6 0.7,-5.4 0.7,-1.3 0.7,13.4 0.7,1 0.7,-3.9 0.7,-0.4 0.7,-7.4 0.7,3.8 0.8,1.8 0.7,-4.7 0.7,-8.7 0.7,2.3 0.7,11.1 0.7,-3.3 0.7,-2 0.7,0.2 0.7,-2 0.7,5.9 0.7,-8 0.7,4.2 0.8,-2.8 0.7,1.5 0.7,7.8 0.7,-2.7 0.7,2.7 0.7,-10.8 0.7,6.3 0.7,0.6 0.7,-4.2 0.7,-4 0.7,8.5 0.7,-7.2 0.8,9.8 0.7,-9.6 0.7,3 0.7,-0.1 0.7,1.7 0.7,-6.9 0.7,6.6 0.7,-4.3 0.7,-2.2 0.7,9.1 0.7,2.7 0.8,-6.4 0.7,9 0.7,-10.8 0.7,3 0.7,3 0.7,5.5 0.7,-9 0.7,-8.4 0.7,16.3 0.7,-12.2 0.7,6.1 0.7,-3.7 0.8,-3.5 0.7,9.4 0.7,-4 0.7,-0.5 0.7,0.4 0.7,2.1 0.7,-13.7 0.7,18.2 0.7,0.2 0.7,-8.2 0.7,-3.4 0.7,0.4 0.8,-1.1 0.7,-3.5 0.7,8 0.7,3 0.7,-0.4 0.7,-4.2 0.7,-2.5 0.7,9.2 0.7,-3.9 0.7,-7.2 0.7,8.8 0.8,-5.9 0.7,4.8 0.7,-0.3 0.7,-1.8 0.7,-5.9 0.7,4.6 0.7,-4.7 0.7,4.9 0.7,-1.6 0.7,-1.7 0.7,0.5 0.7,0.2 0.8,0.4 0.7,7.7 0.7,-3.4 0.7,-4.8 0.7,-5.3 0.7,5.6 0.7,6.6 0.7,-4.5 0.7,5.1 0.7,-5.1 0.7,3.5 0.7,-6.2 0.8,-1.1 0.7,-0.2 0.7,6.4 0.7,6.9 0.7,-10.5 0.7,-5.9 0.7,3.4 0.7,7.1 0.7,-3.3 0.7,3 0.7,-1.1 0.7,-2.7 0.8,-4.1 0.7,4.4 0.7,-2.1 0.7,-5 0.7,6 0.7,-1.5 0.7,-0.5 0.7,3.1 0.7,2.5 0.7,-6.9 h 0.7 l 0.8,7.7 0.7,-12.4 0.7,2.5 0.7,6.3 0.7,9.5 0.7,-5.6 0.7,-4.7 0.7,3.4 h 0.7 l 0.7,-4.9 0.7,-4.8 0.7,7.4 0.8,-5.1 0.7,7.7 0.7,-9.6 0.7,-0.8 0.7,1.9 0.7,3.6 0.7,4.2 0.7,-0.2 0.7,-2.5 0.7,0.5 0.7,-5.4 0.7,-1.9 h 0.8 l 0.7,5.3 0.7,-6.3 0.7,2.2 0.7,-1.1 0.7,6.7 0.7,3.3 0.7,-3.1 0.7,-4.5 0.7,-1.2 0.7,5.8 0.8,3.7 0.7,-6.2 0.7,5.9 0.7,-7.6 0.7,3.4 0.7,-4.1 0.7,-2.7 0.7,-5.2 0.7,19.8 0.7,-4.5 0.7,-8.3 0.7,1.6 0.8,3.3 0.7,-0.7 0.7,-0.1 0.7,-4.7 0.7,9.4 0.7,-4.6 0.7,0.7 0.7,1.4 0.7,0.2 0.7,-7.4 0.7,0.2 0.7,15.4 0.8,-8 0.7,1.7 0.7,-3.1 0.7,-2.1 h 0.7 l 0.7,1.7 0.7,-5.5 0.7,7.4 0.7,1.9 0.7,-10.7 0.7,2.7 0.8,-2.4 0.7,3.6 0.7,2.5 0.7,-5.9 0.7,-0.5 0.7,1.5 0.7,2 0.7,-2.3 0.7,4.5 0.7,-3.1 0.7,9.6 0.7,-10.5 0.8,-4.2 0.7,14 0.7,-5.5 0.7,-2.5 0.7,2 0.7,1.8 0.7,-3 0.7,-0.5 0.7,5.3 0.7,-5.9 0.7,-4.2 0.7,9.4 0.8,-9.9 0.7,2.8 0.7,5.5 0.7,2.5 0.7,-10.4 0.7,15.1 0.7,-8.2 0.7,9.4 0.7,-9.3 0.7,-2.6 0.7,1 0.8,-4.4 0.7,3 0.7,3.3 0.7,-1.4 0.7,0.5 0.7,-0.8 0.7,5.9 0.7,-2.3 0.7,0.2 0.7,-2.9 0.7,-2.4 0.7,-6.8 0.8,4 0.7,5.5 0.7,4.1 0.7,-12.8 0.7,6.1 0.7,1 0.7,2.9 0.7,-3.6 0.7,-0.1 0.7,-2.2 0.7,10.1 0.7,-15.4 0.8,2.5 0.7,4.4 0.7,0.1 0.7,8 0.7,-5.9 0.7,-1.5 0.7,-5.9 0.7,5.3 0.7,-1.4 0.7,-1.4 0.7,3.1 0.8,-3.7 0.7,-1.4 0.7,6.2 0.7,-6.5 0.7,12.5 0.7,-6.6 0.7,2.5 0.7,-6.8 0.7,8 0.7,-4.8 0.7,0.3 0.7,5.9 0.8,-11.1 0.7,0.1 0.7,4.3 0.7,1.7 0.7,-9 0.7,13.3 0.7,0.5 h 0.7 l 0.7,-4.9 0.7,-6.1 0.7,3.3 0.7,1.2 0.8,0.9 0.7,3.3 0.7,-10.5 0.7,5 0.7,0.5 0.7,3.3 0.7,-8.6 0.7,10 0.7,-1.8 0.7,2.1 0.7,-6.6 0.8,-1.7 0.7,5.6 0.7,-2.8 0.7,2.5 0.7,-6.8 0.7,7.8 0.7,-2.1 0.7,-2.2 0.7,8.1 0.7,0.6 0.7,-6.9 0.7,3.6 0.8,-5.9 0.7,-0.5 0.7,0.5 0.7,0.3 0.7,16.2 0.7,-15.5 0.7,5.2 0.7,-2.1 0.7,4.8 0.7,-5.4 0.7,-7.8 0.7,9 0.8,-1.8 0.7,6 0.7,-0.4 0.7,-12.9 0.7,4.6 0.7,7.5 0.7,-1.5 0.7,4 0.7,-5.5 0.7,-2.8 0.7,-0.2 0.8,-2 0.7,1.2 0.7,-4.8 0.7,6.8 0.7,1.4 0.7,-3.2 0.7,2 0.7,-7.8 0.7,12.2 0.7,-1 0.7,0.4 0.7,-9 0.8,3.5 0.7,-1.6 0.7,10 0.7,-11.4 0.7,5.9 0.7,-2.1 0.7,2.2 0.7,-5.1 0.7,2.4 0.7,-3.7 0.7,8.3 0.7,-2.3 0.8,0.1 0.7,5.1 0.7,-7 0.7,2.2 0.7,-2.6 0.7,-4 0.7,8.9 0.7,-12.3 0.7,1.6 0.7,8.5 0.7,-4.5 0.8,-4.8 0.7,-3.6 0.7,12.7 0.7,1.7 0.7,-9.6 0.7,8.9 0.7,-7.2 0.7,1.5 0.7,2.3 0.7,1.5 0.7,4.7 0.7,0.2 0.8,-4.7 0.7,-1.4 0.7,0.2 0.7,-2.3 0.7,4.1 0.7,4.7 0.7,-7.5 0.7,-0.5 0.7,2.3 0.7,0.7 0.7,-6 0.7,11.4 0.8,-7.6 0.7,-8.9 0.7,7 0.7,4.1 0.7,-8 0.7,3.2 0.7,8.2 0.7,-2.8 0.7,-1.5 0.7,-7.8 0.7,7 0.8,7.1 0.7,-4.8 h 0.7 l 0.7,-5.2 0.7,-4.5 0.7,8.3 0.7,2.6 0.7,-10 0.7,9.5 0.7,3.5 0.7,-10.4 0.7,8.3 0.8,-5 0.7,-0.9 0.7,-0.4 0.7,3.9 0.7,-8.4 0.7,8.9 0.7,-4.7 0.7,5.7 0.7,-0.6 0.7,-11.1 0.7,5.2 0.7,-1.3 0.8,-1.8 0.7,13.1 0.7,-11.2 0.7,-2 0.7,5.5 0.7,-2.9 0.7,4.8 0.7,-5.4 0.7,-1 0.7,4.7 0.7,-0.6 0.7,-3.1 0.8,4.4 0.7,-10.2 0.7,10.8 0.7,-1.9 0.7,0.9 0.7,5 0.7,1.8 0.7,-12.1 0.7,5.6 0.7,9.4 0.7,-10.8 0.8,-2.3 0.7,3.7 0.7,1.3 0.7,-4.8 0.7,4.1 0.7,-1.1 0.7,4.3 0.7,-5.3 0.7,0.7 0.7,3.5 0.7,-4.9 0.7,2.8 0.8,-3.1 0.7,6.8 0.7,-8.8 0.7,2.7 0.7,0.3 0.7,7.2 0.7,-9 0.7,-4 0.7,1.3 0.7,11.3 0.7,-9.6 0.7,1.4 0.8,1.3 0.7,-2.4 0.7,-2.1 0.7,-0.2 0.7,3.5 0.7,0.4 0.7,5.1 0.7,-2.4 0.7,-6.8 0.7,7.3 0.7,-6.9 0.8,6.6 0.7,-4.6 0.7,-3.4 0.7,4.2 0.7,1.3 0.7,-1.7 0.7,-0.7 0.7,3.8 0.7,-0.6 0.7,0.5 0.7,-2 0.7,3.1 0.8,-8.7 0.7,4.4 0.7,3.9 0.7,-2.2 0.7,5.9 0.7,-12.6 0.7,7.2 0.7,1.5 0.7,-10.2 0.7,6.8 0.7,3.9 0.7,-1.2 0.8,-2.2 0.7,-1 0.7,1 0.7,1.9 0.7,1.1 0.7,-2.8 0.7,3.3 0.7,-3.2 0.7,3.7 0.7,-1.3 0.7,0.6 0.8,-9.4 0.7,0.6 0.7,6 0.7,-7.5 0.7,6.2 0.7,5.3 0.7,-1.8 0.7,-1 0.7,-1 0.7,0.2 0.7,-2.4 0.7,-0.6 0.8,3.3 0.7,-4.4 0.7,0.2 0.7,1 0.7,2 0.7,-1.2 0.7,3.7 0.7,2.8 0.7,-5.9 0.7,5.2 0.7,-3.5 0.7,0.4 0.8,3.1 0.7,-2.4 0.7,-9 0.7,14.2 0.7,-6.2 0.7,2.3 0.7,-5.4 0.7,7.2 0.7,-5.4 0.7,2.3 0.7,-7 0.8,9.1 h 0.7 l 0.7,0.3 0.7,-0.2 0.7,-6.3 0.7,5.7 0.7,-5.6 0.7,1.7 0.7,7.3 0.7,-7.8 0.7,0.9 0.7,4.3 0.8,-7.3 0.7,0.6 0.7,-2.2 0.7,5.2 0.7,-3.4 0.7,5.9 0.7,-4.1 0.7,3.8 0.7,-0.2 0.7,-5.6 0.7,0.6 0.7,0.9 0.8,1.9 0.7,-1.8 0.7,2.9 0.7,-2 0.7,1.4 0.7,-0.5 0.7,1.4 0.7,2.3 0.7,0.9 0.7,-0.3 0.7,-9.4 0.8,6.5 0.7,-3.1 0.7,-0.1 0.7,-5.7 0.7,2.5 0.7,0.1 0.7,-0.1 0.7,4.5 0.7,4.7 0.7,-5.2 0.7,-2 0.7,-5.2 0.8,1.1 0.7,7.5 0.7,-3.4 0.7,1.9 0.7,2.9 0.7,-0.3 0.7,-1.1 0.7,-4.2 0.7,3.6 0.7,-1 0.7,-1.7 0.7,4.8 0.8,-2.6 0.7,6.6 0.7,-7.3 0.7,5.5 0.7,-0.8 0.7,-5.2 0.7,-4.5 0.7,0.2 0.7,-0.9 0.7,8.5 0.7,-6.2 0.8,2.9 0.7,0.6 0.7,-0.8 0.7,-1.4 0.7,-3.6 0.7,7 0.7,-2.2 0.7,-2.7 0.7,0.6 0.7,1.5 0.7,8.4 0.7,-11.7 0.8,5.9 0.7,-4.3 0.7,-5 0.7,10.1 0.7,-10.3 0.7,12.5 0.7,-9.2 0.7,4.1 0.7,6.3 0.7,-6.2 0.7,6.1 0.7,1.2 0.8,3.4 0.7,-14 0.7,7.6 0.7,-3.5 0.7,-3.3 0.7,-3 0.7,6.2 0.7,-0.3 0.7,-3.5 0.7,8.4 0.7,-4 0.8,1.9 0.7,-5.1 0.7,9.8 0.7,-5.6 0.7,-5.1 0.7,3.2 0.7,2.9 0.7,-5.3 0.7,0.8 0.7,-6 0.7,0.1 0.7,11.9 0.8,-0.4 0.7,0.5 0.7,1.2 0.7,-7.4 0.7,-0.6 h 0.7 l 0.7,-0.1 0.7,-1.8 0.7,6.6 0.7,5.7 0.7,-9.5 0.7,-2.5 0.8,3.3 0.7,-0.3 0.7,-0.9 0.7,0.5 0.7,3.1 0.7,3.3 0.7,-8.6 0.7,3.1 0.7,1.6 0.7,2.4 0.7,-0.7 0.8,-9.7 0.7,10.2 0.7,-2 0.7,4 0.7,-4 0.7,3 0.7,-4.5 0.7,0.2 0.7,1.6 0.7,-8.1 0.7,10.6 0.7,-3.7 0.8,-1.3 0.7,-1.2 0.7,2.6 0.7,2.7 0.7,-4.4 0.7,5.7 0.7,3 0.7,-5.8 0.7,4.9 0.7,-13.1 0.7,6.6 0.7,-6.1 0.8,5.2 0.7,-3.9 h 0.7 l 0.7,5.4 0.7,-1.5 0.7,-3.6 0.7,5 0.7,-0.1 0.7,-1 0.7,3.7 0.7,0.4 0.8,-6.5 0.7,6.9 0.7,-1.8 0.7,3.5 0.7,-2.1 0.7,-1.9 0.7,-2.2 0.7,-4.3 0.7,6.1 0.7,3.9 0.7,-6.2 0.7,-3.8 0.8,9.5 0.7,-6.7 0.7,4.3 0.7,-2.3 0.7,-3.3 0.7,0.8 0.7,5.4 0.7,2.6 0.7,-8.2 0.7,7.2 0.7,-8.9 0.7,8.1 0.8,-4 0.7,1.6 h 0.7 l 0.7,-3 0.7,-0.2 0.7,11.8 0.7,-7.3 0.7,3.5 0.7,-6.8 0.7,1.9 0.7,1.9 0.7,-6.6 0.8,-1.1 0.7,0.3 0.7,6.2 0.7,-1 0.7,-3.5 0.7,-0.1 0.7,3 0.7,0.2 0.7,-6.5 0.7,9.4 0.7,-1.8 0.8,-8.8 0.7,3.5 0.7,1.6 0.7,-2.5 0.7,6.7 0.7,-4.9 0.7,2.7 0.7,3.9 h 0.7 l 0.7,-6.8 0.7,10.3 0.7,-13.8 0.8,8.3 0.7,-3 0.7,-0.7 0.7,0.1 0.7,6.9 0.7,-7.5 0.7,3.9 0.7,-1.6 0.7,-0.9 0.7,2.6 0.7,-0.5 0.7,-0.5 0.8,1.2 0.7,-0.5 0.7,0.4 0.7,-7.5"
     inkscape:connector-curvature="0"
     style="fill:none;stroke:#ff0000;stroke-width:2.5;stroke-miterlimit:4;stroke-dasharray:none" />
  <path
     id="path1214"
     d="m 170.52946,510.8 0.7,-80.3 0.7,-17.1 0.8,-13.2 0.7,-13.2 0.7,-8.7 0.7,-8.4 0.7,5 0.7,-0.3 0.7,-13.4 0.7,-1.6 0.7,3.1 0.7,-4.7 0.7,1.8 0.7,-11.3 0.8,-3.3 0.7,3.1 0.7,2.3 0.7,-3.9 0.7,-11.4 0.7,18.6 0.7,-18.8 0.7,-3.7 0.7,-0.2 0.7,1.5 0.7,1.5 0.8,-2.8 0.7,12.2 0.7,-14.2 0.7,-1.5 h 0.7 l 0.7,-5 0.7,9.1 0.7,2.3 h 0.7 l 0.7,-11.5 0.7,9.2 0.7,2.2 0.8,-12 0.7,6.7 0.7,-11.1 0.7,3.3 0.7,1.8 0.7,6.6 0.7,-2.8 0.7,-14.9 0.7,20.2 0.7,-6.3 0.7,-2.7 0.7,-8.2 0.8,11.7 0.7,-1.4 0.7,-9.6 0.7,6.6 0.7,5.6 0.7,-9.3 0.7,1.6 0.7,0.6 0.7,-3.2 0.7,2.9 0.7,4.6 0.8,1.2 0.7,-5.5 0.7,-2 0.7,-7.7 0.7,7.3 0.7,6.5 0.7,-10.7 0.7,3.7 0.7,2.5 0.7,5.8 0.7,-16.3 0.7,9.6 0.8,-7.6 0.7,7.8 0.7,-2.7 0.7,8 0.7,-6.9 0.7,-2.6 0.7,0.9 0.7,-9.8 0.7,10 0.7,2 0.7,-7.5 0.7,-7.8 0.8,10.9 0.7,1.3 0.7,-15.6 0.7,12.1 0.7,5.2 0.7,-9.9 0.7,-3.2 0.7,8.7 0.7,-1.4 0.7,4.8 0.7,-4.4 0.8,-4.5 0.7,-0.9 0.7,0.1 0.7,6.7 0.7,-9 0.7,4 0.7,4.5 0.7,-5.1 0.7,1.1 0.7,3.5 0.7,1.9 0.7,-7.5 0.8,-7.3 0.7,8.4 0.7,-7.2 0.7,0.1 0.7,1.5 0.7,2 0.7,-1.1 0.7,0.7 0.7,8 0.7,-14.1 0.7,9.2 0.7,-4.7 0.8,5.1 0.7,1.8 0.7,-12.4 0.7,2.8 0.7,1 0.7,3.8 0.7,-9.1 0.7,6.2 0.7,7.4 0.7,-18.5 0.7,3.8 0.8,2.6 0.7,8.8 0.7,-8.9 0.7,10.5 0.7,-9.3 0.7,-5 0.7,13.1 0.7,-9.4 0.7,5.6 0.7,-12 0.7,11.5 0.7,-1.6 0.8,-5.2 0.7,8.6 0.7,-0.3 0.7,-6.1 0.7,1.3 h 0.7 l 0.7,-1.5 0.7,-0.1 0.7,6.7 0.7,-3.2 0.7,-0.9 0.7,3.6 0.8,4.7 0.7,-0.1 0.7,-4.3 0.7,-3.9 0.7,0.5 0.7,-8.5 0.7,6.6 0.7,-0.9 0.7,-1.9 0.7,3.1 0.7,3.6 0.8,-1.4 0.7,-15.6 0.7,16 0.7,0.8 0.7,-2.2 0.7,-8.4 0.7,7.2 0.7,0.3 0.7,-1.6 0.7,1.4 0.7,-5 0.7,-1.4 0.8,3.1 0.7,-0.7 0.7,0.6 0.7,0.9 0.7,-3.7 0.7,-2.7 0.7,2.5 0.7,4 0.7,2.8 0.7,-7.5 0.7,-2.6 0.7,-3.5 0.8,7.7 0.7,1 0.7,-2.4 0.7,-4 0.7,5.8 0.7,4.6 0.7,1.3 0.7,3.2 0.7,-0.4 0.7,-14.4 0.7,7.9 0.8,0.7 0.7,-4.6 0.7,-5.6 0.7,-2.4 0.7,14.5 0.7,-10.6 0.7,-0.1 0.7,-2.5 0.7,5.5 0.7,-0.7 0.7,-0.7 0.7,-3.6 0.8,5.8 0.7,0.2 0.7,1.9 0.7,0.4 0.7,2.1 0.7,-12.4 0.7,4.3 0.7,4.3 0.7,-6.4 0.7,0.8 0.7,11.2 0.7,-7.6 0.8,8.4 0.7,-14 0.7,2.7 0.7,2 0.7,1.5 0.7,-7.3 0.7,5.7 0.7,-6 0.7,4.6 0.7,-3.3 0.7,5.2 0.8,1.8 0.7,4.1 0.7,-10.2 0.7,7.1 0.7,0.6 0.7,3.4 0.7,-7 0.7,-8.7 0.7,19.4 0.7,-11.7 0.7,2.5 0.7,-6.9 0.8,2.1 0.7,0.7 0.7,1.9 0.7,9.9 0.7,-5.3 0.7,-6 0.7,-2.7 0.7,6.4 0.7,0.8 0.7,-7.7 0.7,2 0.7,4.6 0.8,-2.9 0.7,-2.7 0.7,-0.2 0.7,-0.3 0.7,1 0.7,1.4 0.7,5.9 0.7,-2.9 0.7,-3.1 0.7,0.5 0.7,3.4 0.8,-1 0.7,-3.6 0.7,8.8 0.7,-12.2 0.7,-3.7 0.7,4.8 0.7,0.4 0.7,-1.9 0.7,0.4 0.7,-2.2 0.7,-2.5 0.7,5.5 0.8,0.3 0.7,7.4 0.7,0.6 0.7,-3.1 0.7,-6.6 0.7,4.3 0.7,1.6 0.7,-3.8 0.7,1.5 0.7,6.6 0.7,-5.7 0.7,2.2 0.8,-1 0.7,-7 0.7,6.7 0.7,3.8 0.7,-11.7 0.7,3.1 0.7,2.4 0.7,7.8 0.7,-3.9 0.7,0.5 0.7,-10.6 0.7,8.2 0.8,-0.1 0.7,2.2 0.7,-4.7 0.7,2.1 0.7,3.6 0.7,-8.8 0.7,4.8 0.7,-1.4 0.7,6.7 0.7,-9.5 0.7,2 0.8,6.2 0.7,-17.9 0.7,11.3 0.7,0.8 0.7,7.2 0.7,1.8 0.7,-13.7 0.7,9.2 0.7,-6.4 0.7,-1 0.7,0.6 0.7,4.6 0.8,-5 0.7,2.9 0.7,-8.6 0.7,5.9 0.7,2.4 0.7,-5.3 0.7,7.9 0.7,-0.6 0.7,1.3 0.7,-2.2 0.7,-6.3 0.7,0.8 0.8,2.2 0.7,0.3 0.7,-2.7 0.7,1.7 0.7,2.7 0.7,1.5 0.7,0.8 0.7,-5.1 0.7,2.7 0.7,-7.3 0.7,2.4 0.8,8.1 0.7,-4.8 0.7,4.9 0.7,-7.8 0.7,7.4 0.7,-3.2 0.7,-6.1 0.7,0.7 0.7,4.9 0.7,-1 0.7,-3.3 0.7,-2.6 0.8,14.7 0.7,-5.9 0.7,-0.6 0.7,-4.3 0.7,6.5 0.7,-2.9 0.7,-4.7 0.7,-0.7 0.7,0.6 0.7,3.8 0.7,-0.2 0.7,9.2 0.8,-7.1 0.7,4.8 0.7,-2.8 0.7,-1.4 0.7,-4.3 0.7,-3.4 0.7,4.2 0.7,-2.2 0.7,7.3 0.7,-10.3 0.7,4.4 0.8,-7 0.7,0.9 0.7,10 0.7,-10.9 0.7,4.3 0.7,0.7 0.7,-1.8 0.7,1.2 0.7,1.8 0.7,0.8 0.7,2 0.7,-3.9 0.8,-5.6 0.7,6.5 0.7,-1.8 0.7,2.7 0.7,-1.5 0.7,3.8 0.7,-7.2 0.7,3.6 0.7,9 0.7,-13.5 0.7,-1.2 0.7,5.9 0.8,-2.6 0.7,-1.5 0.7,-0.4 0.7,6.8 0.7,-14.7 0.7,16.1 0.7,-1.4 0.7,1.5 0.7,-5.2 0.7,-0.1 0.7,5.2 0.8,-9.2 0.7,7.5 0.7,-0.1 0.7,-1.4 0.7,2.8 0.7,1.5 0.7,-3.2 0.7,1.6 0.7,-2.6 0.7,-3.6 0.7,6 0.7,-9.2 0.8,3.2 0.7,2.1 0.7,5.7 0.7,-9.3 0.7,6.9 0.7,-3.8 0.7,-0.7 0.7,1.6 0.7,-7.1 0.7,-0.2 0.7,11.8 0.7,-6.6 0.8,-5.3 h 0.7 l 0.7,6.6 0.7,7.7 0.7,-5.9 0.7,-6.1 0.7,1.7 0.7,-3.1 0.7,6.7 0.7,-6.3 0.7,5 0.8,-6 0.7,2.4 0.7,4.6 0.7,-9.1 0.7,11.7 0.7,-5.5 0.7,4 0.7,-3.8 0.7,2.6 0.7,-5.2 0.7,2.3 0.7,6.7 0.8,-13.1 0.7,2.4 0.7,5.9 0.7,-2.2 0.7,-9.3 0.7,11.1 0.7,5.9 0.7,-5 0.7,-3.4 0.7,-3 0.7,0.7 0.7,0.5 0.8,5.1 0.7,-2.2 0.7,-3.1 0.7,-2.8 0.7,10.5 0.7,2 0.7,-11.3 0.7,3.4 0.7,4.7 0.7,-1.4 0.7,-4.7 0.8,2.1 0.7,-0.7 0.7,2.9 0.7,-8 0.7,4.6 0.7,0.7 0.7,2.2 0.7,-2.7 0.7,3.5 0.7,0.6 0.7,-1.6 0.7,7.8 0.8,-6.8 0.7,-2.3 0.7,-2.6 h 0.7 l 0.7,4.7 0.7,-6 0.7,10.8 0.7,-6.3 0.7,-3.7 0.7,9.9 0.7,-11.8 0.7,7.9 0.8,-0.5 0.7,7.3 0.7,-3.3 0.7,-15.6 0.7,6.8 0.7,3.4 0.7,1.6 0.7,3.7 0.7,1.6 0.7,-8 0.7,-0.2 0.8,-2.2 0.7,2.9 0.7,-6.1 0.7,6.1 0.7,-1.5 0.7,-4 0.7,7.7 0.7,-7.7 0.7,9.5 0.7,-1.4 0.7,0.3 0.7,-11.5 0.8,10.9 0.7,-7.5 0.7,5.2 0.7,-8.3 0.7,8.4 0.7,0.6 0.7,-7.7 0.7,2.5 0.7,2.1 0.7,-0.2 0.7,8 0.7,-7.8 0.8,5.3 0.7,2.7 0.7,-10.2 0.7,1 0.7,2.9 0.7,-2 0.7,8.3 0.7,-11.4 0.7,-3 0.7,9.1 0.7,-3.4 0.8,-2.7 0.7,-5.9 0.7,16.7 0.7,-0.4 0.7,-11 h 0.7 l 0.7,7 0.7,0.1 0.7,-1.1 0.7,-3.5 0.7,-0.5 0.7,7.2 0.8,-1.4 0.7,-6.3 0.7,4.1 0.7,-1.6 0.7,1.1 0.7,8.6 0.7,-11.3 0.7,-1.3 0.7,6.6 0.7,5.8 0.7,-14.5 0.7,7.6 0.8,-2.7 0.7,-2.9 0.7,1.9 0.7,10 0.7,-10.9 0.7,4.1 0.7,2.6 0.7,0.2 0.7,-4.2 0.7,2.6 0.7,-0.4 0.8,8.7 0.7,-9.3 0.7,-3.4 0.7,-3.8 0.7,1.5 0.7,-3.1 0.7,6.6 0.7,-8.8 0.7,11.6 0.7,0.8 0.7,-1.7 0.7,3 0.8,-4.9 0.7,3.8 0.7,-7.5 0.7,2.2 0.7,-2.9 0.7,1 0.7,5.9 0.7,-3.2 0.7,3.9 0.7,-2.1 0.7,1.1 0.7,-7.6 0.8,1.5 0.7,9.5 0.7,-5.7 0.7,0.3 0.7,0.8 0.7,-6.7 0.7,6.4 0.7,-3.1 0.7,-2.7 0.7,5.1 0.7,-2.1 0.7,-1.8 0.8,-4.6 0.7,0.3 0.7,7.1 0.7,-1.7 0.7,-0.3 0.7,1 0.7,2.5 0.7,-6 0.7,9.5 0.7,5.2 0.7,-13.9 0.8,0.3 0.7,7.4 0.7,-3.2 0.7,-0.4 0.7,-1.7 0.7,4.1 0.7,1.4 0.7,-4.2 0.7,-1.7 0.7,1.4 0.7,1 0.7,0.5 0.8,-3.5 0.7,5.2 0.7,-2.7 0.7,-1.2 0.7,-1.6 0.7,-0.1 0.7,0.2 0.7,0.9 0.7,-5.2 0.7,11.7 0.7,-8.8 0.7,0.2 0.8,-1.6 0.7,0.3 0.7,2.7 0.7,-5.8 0.7,2.6 0.7,7.9 0.7,-3.4 0.7,1 0.7,-9.4 0.7,8.5 0.7,-4.1 0.8,10 0.7,-4 0.7,-2.9 0.7,3.3 0.7,1.1 0.7,-4 0.7,0.7 0.7,7.2 0.7,-6.5 0.7,-1.3 0.7,-8.5 0.7,12.8 0.8,-7.6 0.7,2.9 0.7,1 0.7,1.9 0.7,5.7 0.7,-6.2 0.7,-1.7 0.7,-2.4 0.7,-0.2 0.7,-0.7 0.7,5.1 0.7,1.1 0.8,-4.8 0.7,4.3 0.7,-6.7 0.7,4.3 0.7,-2 0.7,-2.1 0.7,3.3 0.7,5.1 0.7,2.6 0.7,-5.4 0.7,0.2 0.8,-5.5 0.7,3.5 0.7,3 0.7,-8.4 0.7,5.7 0.7,-1.8 0.7,4.7 0.7,-2 0.7,-0.5 0.7,2.1 0.7,1.2 0.7,-4.7 0.8,-1.1 0.7,2.4 0.7,-5.9 0.7,1.4 0.7,-6 0.7,8.7 0.7,-6.9 0.7,5.8 0.7,4.9 0.7,0.5 0.7,-6.5 0.7,3.2 0.8,4.6 0.7,-8.7 0.7,1.6 0.7,4.1 0.7,-0.9 0.7,4.7 0.7,-5.2 0.7,4 0.7,-4.6 0.7,1.3 0.7,-5.9 0.8,6.9 0.7,-0.8 0.7,4 0.7,1.9 0.7,-9.6 0.7,8.4 0.7,-6.7 0.7,-2.7 0.7,9.5 0.7,-8.8 0.7,2.6 0.7,8.4 0.8,-9.6 0.7,1.2 0.7,-3 0.7,1.5 0.7,-5.4 0.7,7.8 0.7,0.5 0.7,-2.9 0.7,1.4 0.7,-3.1 0.7,1.2 0.7,2.8 0.8,-0.5 0.7,-0.4 0.7,-3.7 0.7,0.2 0.7,4.2 0.7,-3.3 0.7,0.3 0.7,5.5 0.7,1.8 0.7,3.4 0.7,-17.8 0.8,8.7 0.7,0.3 0.7,3.5 0.7,-5 0.7,3.5 0.7,-3.2 0.7,-4.6 0.7,4.3 0.7,0.8 0.7,0.6 0.7,-2.3 0.7,-0.7 0.8,-0.2 0.7,6.2 0.7,-8.6 0.7,2.9 0.7,10.9 0.7,-10.5 0.7,6.4 0.7,-4.5 0.7,1.3 0.7,1.4 0.7,-4.2 0.7,5 0.8,-4.2 0.7,-2.6 0.7,-2.2 0.7,11.3 0.7,-5.3 0.7,-3.6 0.7,1.7 0.7,2.2 0.7,-5.5 0.7,5.7 0.7,-3.9 0.8,-1.8 0.7,8.5 0.7,-11.1 0.7,4.6 0.7,-1.7 0.7,2.2 0.7,2.2 0.7,-8.3 0.7,5.1 0.7,4.3 0.7,7.6 0.7,-12.3 0.8,1.2 0.7,2.7 0.7,-9.6 0.7,8.1 0.7,-3.5 0.7,6.9 0.7,-6.2 0.7,1.3 0.7,5.2 0.7,-9 0.7,11.2 0.7,-4 0.8,8.2 0.7,-12.6 0.7,8.7 0.7,-5.7 0.7,-3.3 0.7,-3.5 0.7,3.2 0.7,7.3 0.7,-3 0.7,3.7 0.7,3.4 0.8,-6.1 0.7,2.4 0.7,2.8 0.7,-5.7 0.7,-5.2 0.7,3.5 0.7,-1.2 0.7,-7.3 0.7,8.7 0.7,-7.2 0.7,1.3 0.7,2.4 0.8,4.2 0.7,-3 0.7,7.8 0.7,-8.7 0.7,1.1 0.7,0.2 0.7,2.5 0.7,-1 0.7,3.1 0.7,0.6 0.7,-7 0.7,0.8 0.8,0.5 0.7,-2.6 0.7,5.9 0.7,0.1 0.7,0.5 0.7,-2 0.7,-2.3 0.7,2.7 0.7,3.8 0.7,-3.9 h 0.7 l 0.8,1.7 0.7,2.3 0.7,-6 0.7,7.3 0.7,-6.2 0.7,4.9 0.7,-8.3 0.7,5.1 0.7,0.8 0.7,-7 0.7,7.5 0.7,-2 0.8,1.7 0.7,-2.9 0.7,3.8 0.7,-0.3 0.7,-2.7 0.7,-1.3 0.7,4.5 0.7,1.2 0.7,3.3 0.7,-10.3 0.7,2.6 0.7,-3.5 0.8,2 0.7,1 0.7,-2.8 0.7,3.9 0.7,-6.7 0.7,1.7 0.7,1 0.7,3.2 0.7,5.3 0.7,-0.4 0.7,-3.1 0.8,-5.8 0.7,4.6 0.7,1.8 0.7,2.1 0.7,1.3 0.7,-1.1 0.7,-7.5 0.7,-2.4 0.7,0.9 0.7,8.2 0.7,-2.8 0.7,-5.5 0.8,5.2 0.7,-2.1 0.7,5.5 0.7,-10.4 0.7,2.7 0.7,7.2 0.7,0.1 0.7,-5.6 0.7,7 0.7,1.7 0.7,-6.1 0.7,1.4 0.8,-5.3 0.7,3.7 0.7,1.8 0.7,-5.1 0.7,2.3 0.7,4.4 0.7,-2.4 0.7,5.7 0.7,-12 0.7,5.5 0.7,2.2 0.7,-5.8 0.8,2.4 0.7,-3.7 0.7,9.1 0.7,-2.5 0.7,-5.9 0.7,-2.6 0.7,6.5 0.7,-1 0.7,-5.2 0.7,3 0.7,-0.7 0.8,-5.2 0.7,3.2 0.7,2.5 0.7,4.1 0.7,6.2 0.7,-7.2 0.7,-4.1 0.7,6 0.7,0.5 0.7,-5.9 0.7,14.1 0.7,-19 0.8,0.5 0.7,2.4 0.7,0.4 0.7,1.9 0.7,4.4 0.7,-3.9 0.7,3.4 0.7,1.9 0.7,-3.3 0.7,0.2 0.7,1.4 0.7,1.5 0.8,-3.3 0.7,0.6 0.7,4.2 0.7,-9.7"
     inkscape:connector-curvature="0"
     style="fill:none;stroke:#0000ff;stroke-width:2.5;stroke-miterlimit:4;stroke-dasharray:none" />
</svg>
