<?xml version="1.0" encoding="ISO-8859-1" standalone="yes"?>
<svg width="323.414" height="159.125">
  <defs> 
    <marker id="ArrowEnd" viewBox="0 0 10 10" refX="0" refY="5" 
     markerUnits="strokeWidth" 
     markerWidth="4" 
     markerHeight="3" 
     orient="auto"> 
        <path d="M 0 0 L 10 5 L 0 10 z" /> 
    </marker>
    <marker id="ArrowStart" viewBox="0 0 10 10" refX="10" refY="5" 
     markerUnits="strokeWidth" 
     markerWidth="4" 
     markerHeight="3" 
     orient="auto"> 
        <path d="M 10 0 L 0 5 L 10 10 z" /> 
    </marker> </defs>
<g>
<path style="stroke:none; fill-rule:evenodd; fill:#000000" d="M 228.145 74.2773L 228.145 75.1328C 227.664 74.414 227.078 74.0781 226.309 74.0781C 224.781 74.0781 223.75 75.4179 223.75 77.3828C 223.75 78.375 224.012 79.1835 224.504 79.7617C 224.949 80.2695 225.59 80.5703 226.223 80.5703C 226.977 80.5703 227.504 80.2421 228.043 79.457L 228.043 79.7656C 228.043 80.5781 227.942 81.0742 227.703 81.4062C 227.453 81.7617 226.965 81.9648 226.387 81.9648C 225.957 81.9648 225.57 81.8515 225.309 81.6445C 225.094 81.4726 225.004 81.3125 224.945 80.957L 223.981 80.957C 224.082 82.0898 224.961 82.7656 226.371 82.7656C 227.262 82.7656 228.027 82.4804 228.418 82C 228.875 81.4531 229.047 80.6953 229.047 79.2851L 229.047 74.2695L 228.145 74.2773zM 226.406 74.9804C 227.434 74.9804 228.043 75.8554 228.043 77.3632C 228.043 78.8007 227.426 79.6757 226.418 79.6757C 225.375 79.6757 224.746 78.789 224.746 77.3281C 224.746 75.8789 225.387 74.9804 226.406 74.9804z"/>
<path style="stroke:none; fill-rule:evenodd; fill:#000000" d="M 235.145 85.1796C 235.145 84.2617 235.078 83.7109 234.906 83.2656C 234.52 82.2812 233.606 81.6835 232.488 81.6835C 230.824 81.6835 229.75 82.9765 229.75 84.9648C 229.75 86.9531 230.785 88.1796 232.461 88.1796C 233.824 88.1796 234.77 87.3867 235.012 86.0546L 234.059 86.0546C 233.797 86.8593 233.266 87.2773 232.504 87.2773C 231.902 87.2773 231.391 87 231.074 86.4843C 230.848 86.1367 230.77 85.7851 230.758 85.1796L 235.145 85.1796zM 230.727 84.414C 230.805 83.3007 231.485 82.5781 232.445 82.5781C 233.383 82.5781 234.109 83.3554 234.109 84.3437C 234.109 84.3632 234.109 84.3867 234.098 84.4101L 230.727 84.414z"/>
<path style="stroke:none; fill-rule:evenodd; fill:#000000" d="M 243.395 78.1171C 242.793 78.8164 242.512 78.9765 241.992 78.9765C 241.754 78.9765 241.567 78.9257 240.668 78.6562C 239.692 78.3476 239.371 78.2812 238.996 78.2812C 238.207 78.2812 237.578 78.6406 237.043 79.4062L 237.617 79.8593C 238.231 79.1211 238.461 78.9804 238.981 78.9804C 239.219 78.9804 239.367 79.0039 239.836 79.1406C 240.262 79.2734 240.692 79.4062 241.133 79.5429C 241.41 79.6367 241.719 79.6757 242 79.6757C 242.856 79.6757 243.485 79.2968 243.899 78.5625L 243.395 78.1171zM 243.395 76.0156C 242.781 76.7148 242.512 76.8789 241.992 76.8789C 241.754 76.8789 241.567 76.8281 240.668 76.5585C 239.692 76.25 239.371 76.1835 238.996 76.1835C 238.207 76.1835 237.578 76.5429 237.043 77.3046L 237.617 77.7578C 238.231 77.0234 238.461 76.8828 238.981 76.8828C 239.219 76.8828 239.367 76.9062 239.836 77.0429C 240.262 77.1757 240.692 77.3125 241.133 77.4453C 241.41 77.539 241.719 77.5781 242 77.5781C 242.856 77.5781 243.485 77.1992 243.899 76.4492L 243.395 76.0156z"/>
<path style="stroke:none; fill-rule:evenodd; fill:#000000" d="M 263.445 79.9804L 262.445 79.9804L 262.445 85.9804L 263.445 85.9804L 263.445 79.9804zM 263.445 77.5781L 262.445 77.5781L 262.445 78.8125L 263.445 78.8125L 263.445 77.5781z"/>
<path style="stroke:none; fill-rule:evenodd; fill:#000000" d="M 273.805 82.1796L 275.57 76.1796L 274.492 76.1796L 273.301 80.8476L 272.121 76.1796L 270.953 76.1796L 269.809 80.8476L 268.582 76.1796L 267.527 76.1796L 269.27 82.1796L 270.348 82.1796L 271.504 77.4648L 272.719 82.1796L 273.805 82.1796z"/>
<path style="stroke:none; fill-rule:evenodd; fill:#000000" d="M 278.746 79.9804L 277.746 79.9804L 277.746 85.9804L 278.746 85.9804L 278.746 79.9804zM 278.746 77.5781L 277.746 77.5781L 277.746 78.8125L 278.746 78.8125L 278.746 77.5781z"/>
<path style="stroke:none; fill-rule:evenodd; fill:#000000" d="M 280.344 79.9804L 280.344 86.8828C 280.344 87.4804 280.152 87.6757 279.567 87.6757C 279.535 87.6757 279.535 87.6757 279.34 87.6757L 279.34 88.4414C 279.453 88.4609 279.516 88.4726 279.668 88.4726C 280.77 88.4726 281.344 88.039 281.344 87.2265L 281.344 79.9765L 280.344 79.9804zM 281.344 77.5781L 280.344 77.5781L 280.344 78.7773L 281.344 78.7773L 281.344 77.5781z"/>
<path style="stroke:none; fill-rule:evenodd; fill:#000000" d="M 290.832 79.1132L 285.219 76.7382L 285.219 77.6445L 289.738 79.5234L 285.219 81.3711L 285.219 82.2773L 290.832 79.9023L 290.832 79.1132z"/>
<path style="stroke:none; fill-rule:evenodd; fill:#000000" d="M 300.375 79.0781L 298.047 79.0781L 298.047 76.7382L 297.25 76.7382L 297.25 79.0781L 294.824 79.0781L 294.824 79.875L 297.25 79.875L 297.25 82.289L 298.047 82.289L 298.047 79.875L 300.375 79.875L 300.375 79.0781z"/>
<path style="stroke:#000000; stroke-width:1.9133; fill:none" d="M 131.629 110.832L 131.629 149.098"/>
<path style="stroke:#000000; stroke-width:1.9133; fill:none" d="M 131.508 128.77L 128.281 131.637"/>
<path style="stroke:#000000; stroke-width:1.9133; fill:none" d="M 131.629 128.648L 134.977 131.754"/>
<path style="stroke:none; fill-rule:evenodd; fill:#000000" d="M 132.824 111.668C 132.824 111.141 132.289 110.715 131.629 110.715C 130.973 110.715 130.434 111.141 130.434 111.668C 130.434 112.195 130.969 112.621 131.629 112.621C 132.285 112.621 132.824 112.195 132.824 111.668"/>
<path style="stroke:#000000; stroke-width:1.9133; fill:none" d="M 132.824 111.668C 132.824 111.141 132.289 110.715 131.629 110.715C 130.973 110.715 130.434 111.141 130.434 111.668C 130.434 112.195 130.969 112.621 131.629 112.621C 132.285 112.621 132.824 112.195 132.824 111.668"/>
<path style="stroke:#000000; stroke-width:1.9133; fill:none" d="M 143.227 100.547L 143.227 138.812"/>
<path style="stroke:#000000; stroke-width:1.9133; fill:none" d="M 143.109 115.016L 139.883 117.883"/>
<path style="stroke:#000000; stroke-width:1.9133; fill:none" d="M 143.227 114.898L 146.574 118.004"/>
<path style="stroke:none; fill-rule:evenodd; fill:#000000" d="M 144.305 101.504C 144.305 100.977 143.77 100.551 143.109 100.551C 142.453 100.551 141.914 100.977 141.914 101.504C 141.914 102.031 142.449 102.457 143.109 102.457C 143.766 102.457 144.305 102.031 144.305 101.504"/>
<path style="stroke:#000000; stroke-width:1.9133; fill:none" d="M 144.305 101.504C 144.305 100.977 143.77 100.551 143.109 100.551C 142.453 100.551 141.914 100.977 141.914 101.504C 141.914 102.031 142.449 102.457 143.109 102.457C 143.766 102.457 144.305 102.031 144.305 101.504"/>
<path style="stroke:#000000; stroke-width:1.9133; fill:none" d="M 204.332 100.43L 204.332 138.695"/>
<path style="stroke:#000000; stroke-width:1.9133; fill:none" d="M 203.735 115.137L 200.508 118.004"/>
<path style="stroke:#000000; stroke-width:1.9133; fill:none" d="M 203.856 115.016L 207.203 118.121"/>
<path style="stroke:none; fill-rule:evenodd; fill:#000000" d="M 205.289 102.223C 205.289 101.695 204.754 101.27 204.094 101.27C 203.438 101.27 202.899 101.695 202.899 102.223C 202.899 102.75 203.434 103.176 204.094 103.176C 204.75 103.176 205.289 102.75 205.289 102.223"/>
<path style="stroke:#000000; stroke-width:1.9133; fill:none" d="M 205.289 102.223C 205.289 101.695 204.754 101.27 204.094 101.27C 203.438 101.27 202.899 101.695 202.899 102.223C 202.899 102.75 203.434 103.176 204.094 103.176C 204.75 103.176 205.289 102.75 205.289 102.223"/>
<path style="stroke:#000000; stroke-width:1.9133; fill:none" d="M 216.055 109.996L 216.055 148.262"/>
<path style="stroke:#000000; stroke-width:1.9133; fill:none" d="M 215.813 123.148L 212.586 126.016"/>
<path style="stroke:#000000; stroke-width:1.9133; fill:none" d="M 215.934 123.027L 219.281 126.133"/>
<path style="stroke:none; fill-rule:evenodd; fill:#000000" d="M 217.012 112.027C 217.012 111.5 216.477 111.074 215.817 111.074C 215.16 111.074 214.621 111.5 214.621 112.027C 214.621 112.555 215.156 112.98 215.817 112.98C 216.473 112.98 217.012 112.555 217.012 112.027"/>
<path style="stroke:#000000; stroke-width:1.9133; fill:none" d="M 217.012 112.027C 217.012 111.5 216.477 111.074 215.817 111.074C 215.16 111.074 214.621 111.5 214.621 112.027C 214.621 112.555 215.156 112.98 215.817 112.98C 216.473 112.98 217.012 112.555 217.012 112.027"/>
<path style="stroke:#000000; stroke-width:1.9133; fill:none" d="M 173.723 59.7693L 154.59 90.3789L 192.856 90.3789L 173.723 59.7693"/>
<path style="stroke:#000000; stroke-width:1.9133; fill:none" d="M 154.59 90.3828L 123.981 117.168"/>
<path style="stroke:#000000; stroke-width:1.9133; fill:none" d="M 149.195 94.7031L 144.879 94.8476"/>
<path style="stroke:#000000; stroke-width:1.9133; fill:none" d="M 149.363 94.6875L 149.953 99.2148"/>
<path style="stroke:#000000; stroke-width:1.9133; fill:none" d="M 196.695 93.7461L 196.84 98.0625"/>
<path style="stroke:#000000; stroke-width:1.9133; fill:none" d="M 192.856 90.3828L 223.465 117.168"/>
<path style="stroke:#000000; stroke-width:1.9133; fill:none" d="M 196.68 93.5781L 201.207 92.9882"/>
<path style="stroke:#000000; stroke-width:1.9133; fill:none" d="M 173.723 59.7693L 173.723 10.0273"/>
<path style="stroke:#000000; stroke-width:1.9133; fill:none" d="M 173.242 40.3983L 170.016 43.2653"/>
<path style="stroke:#000000; stroke-width:1.9133; fill:none" d="M 173.363 40.2773L 176.711 43.3823"/>
<path style="stroke:none; fill-rule:evenodd; fill:#000000" d="M 148.645 144.98L 147.645 144.98L 147.645 150.98L 148.645 150.98L 148.645 144.98zM 148.645 142.578L 147.645 142.578L 147.645 143.812L 148.645 143.812L 148.645 142.578z"/>
<path style="stroke:none; fill-rule:evenodd; fill:#000000" d="M 153.305 108.98L 155.07 102.98L 153.992 102.98L 152.801 107.648L 151.621 102.98L 150.453 102.98L 149.309 107.648L 148.082 102.98L 147.027 102.98L 148.77 108.98L 149.848 108.98L 151.004 104.266L 152.219 108.98L 153.305 108.98z"/>
<path style="stroke:none; fill-rule:evenodd; fill:#000000" d="M 158.246 106.777L 157.246 106.777L 157.246 112.777L 158.246 112.777L 158.246 106.777zM 158.246 104.379L 157.246 104.379L 157.246 105.613L 158.246 105.613L 158.246 104.379z"/>
<path style="stroke:none; fill-rule:evenodd; fill:#000000" d="M 159.844 106.777L 159.844 113.68C 159.844 114.277 159.652 114.473 159.067 114.473C 159.035 114.473 159.035 114.473 158.84 114.473L 158.84 115.238C 158.953 115.258 159.016 115.27 159.168 115.27C 160.27 115.27 160.844 114.836 160.844 114.023L 160.844 106.773L 159.844 106.777zM 160.844 104.379L 159.844 104.379L 159.844 105.578L 160.844 105.578L 160.844 104.379z"/>
<path style="stroke:none; fill-rule:evenodd; fill:#000000" d="M 4.14458 62.9803L 7.04688 54.5823L 5.91408 54.5823L 3.59768 61.6953L 1.14458 54.5823L 0 54.5823L 3.00388 62.9803L 4.14458 62.9803z"/>
<path style="stroke:none; fill-rule:evenodd; fill:#000000" d="M 8.04688 60.8513L 8.04688 66.875L 9.04688 66.875L 9.04688 63.0663C 9.04688 62.1873 9.67188 61.4803 10.4414 61.4803C 11.1446 61.4803 11.543 61.9183 11.543 62.6953L 11.543 66.875L 12.543 66.875L 12.543 63.0663C 12.543 62.1873 13.168 61.4803 13.9375 61.4803C 14.6289 61.4803 15.0391 61.9293 15.0391 62.6953L 15.0391 66.875L 16.0391 66.875L 16.0391 62.3553C 16.0391 61.2773 15.418 60.6793 14.2852 60.6793C 13.4805 60.6793 12.9922 60.9223 12.4297 61.6093C 12.0742 60.9613 11.5899 60.6793 10.8047 60.6793C 9.99998 60.6793 9.46878 60.9763 8.94918 61.6993L 8.94918 60.8513L 8.04688 60.8513z"/>
<path style="stroke:none; fill-rule:evenodd; fill:#000000" d="M 24.9453 58.8793L 19.3477 58.8793L 19.3477 59.6753L 24.9453 59.6753L 24.9453 58.8793zM 24.9453 60.8793L 19.3477 60.8793L 19.3477 61.6753L 24.9453 61.6753L 24.9453 60.8793z"/>
<path style="stroke:none; fill-rule:evenodd; fill:#000000" d="M 38.0469 43.5783L 38.0469 44.4333C 37.5664 43.7153 36.9805 43.3793 36.211 43.3793C 34.6836 43.3793 33.6524 44.7183 33.6524 46.6833C 33.6524 47.6753 33.9141 48.4843 34.4063 49.0623C 34.8516 49.5703 35.4922 49.8713 36.125 49.8713C 36.8789 49.8713 37.4063 49.5433 37.9453 48.7573L 37.9453 49.0663C 37.9453 49.8793 37.8438 50.3753 37.6055 50.7073C 37.3555 51.0623 36.8672 51.2653 36.2891 51.2653C 35.8594 51.2653 35.4727 51.1523 35.211 50.9453C 34.9961 50.7733 34.9063 50.6133 34.8477 50.2573L 33.8828 50.2573C 33.9844 51.3903 34.8633 52.0663 36.2735 52.0663C 37.1641 52.0663 37.9297 51.7813 38.3203 51.3003C 38.7774 50.7543 38.9492 49.9963 38.9492 48.5863L 38.9492 43.5703L 38.0469 43.5783zM 36.3047 44.2773C 37.3321 44.2773 37.9414 45.1523 37.9414 46.6603C 37.9414 48.0973 37.3242 48.9723 36.3164 48.9723C 35.2735 48.9723 34.6446 48.0863 34.6446 46.6253C 34.6446 45.1753 35.2852 44.2773 36.3047 44.2773z"/>
<path style="stroke:none; fill-rule:evenodd; fill:#000000" d="M 44.9453 54.5783C 44.9453 53.6603 44.8789 53.1093 44.7071 52.6643C 44.3203 51.6793 43.4063 51.0823 42.2891 51.0823C 40.625 51.0823 39.5508 52.3753 39.5508 54.3633C 39.5508 56.3513 40.586 57.5783 42.2617 57.5783C 43.625 57.5783 44.5703 56.7853 44.8125 55.4533L 43.8594 55.4533C 43.5977 56.2573 43.0664 56.6753 42.3047 56.6753C 41.7031 56.6753 41.1914 56.3983 40.875 55.8823C 40.6485 55.5353 40.5703 55.1833 40.5586 54.5783L 44.9453 54.5783zM 40.5274 53.8123C 40.6055 52.6993 41.2852 51.9763 42.2461 51.9763C 43.1836 51.9763 43.9102 52.7543 43.9102 53.7423C 43.9102 53.7613 43.9102 53.7853 43.8985 53.8083L 40.5274 53.8123z"/>
<path style="stroke:none; fill-rule:evenodd; fill:#000000" d="M 49.5469 43.5783L 49.5469 44.4333C 49.0664 43.7153 48.4805 43.3793 47.711 43.3793C 46.1836 43.3793 45.1524 44.7183 45.1524 46.6833C 45.1524 47.6753 45.4141 48.4843 45.9063 49.0623C 46.3516 49.5703 46.9922 49.8713 47.625 49.8713C 48.3789 49.8713 48.9063 49.5433 49.4453 48.7573L 49.4453 49.0663C 49.4453 49.8793 49.3438 50.3753 49.1055 50.7073C 48.8555 51.0623 48.3672 51.2653 47.7891 51.2653C 47.3594 51.2653 46.9727 51.1523 46.711 50.9453C 46.4961 50.7733 46.4063 50.6133 46.3477 50.2573L 45.3828 50.2573C 45.4844 51.3903 46.3633 52.0663 47.7735 52.0663C 48.6641 52.0663 49.4297 51.7813 49.8203 51.3003C 50.2774 50.7543 50.4492 49.9963 50.4492 48.5863L 50.4492 43.5703L 49.5469 43.5783zM 47.8047 44.2773C 48.8321 44.2773 49.4414 45.1523 49.4414 46.6603C 49.4414 48.0973 48.8242 48.9723 47.8164 48.9723C 46.7735 48.9723 46.1446 48.0863 46.1446 46.6253C 46.1446 45.1753 46.7852 44.2773 47.8047 44.2773z"/>
<path style="stroke:none; fill-rule:evenodd; fill:#000000" d="M 56.4453 54.5783C 56.4453 53.6603 56.3789 53.1093 56.2071 52.6643C 55.8203 51.6793 54.9063 51.0823 53.7891 51.0823C 52.125 51.0823 51.0508 52.3753 51.0508 54.3633C 51.0508 56.3513 52.086 57.5783 53.7617 57.5783C 55.125 57.5783 56.0703 56.7853 56.3125 55.4533L 55.3594 55.4533C 55.0977 56.2573 54.5664 56.6753 53.8047 56.6753C 53.2031 56.6753 52.6914 56.3983 52.375 55.8823C 52.1485 55.5353 52.0703 55.1833 52.0586 54.5783L 56.4453 54.5783zM 52.0274 53.8123C 52.1055 52.6993 52.7852 51.9763 53.7461 51.9763C 54.6836 51.9763 55.4102 52.7543 55.4102 53.7423C 55.4102 53.7613 55.4102 53.7853 55.3985 53.8083L 52.0274 53.8123z"/>
<path style="stroke:#000000; stroke-width:1.9133; fill:none" d="M 46.9649 41.4143L 54.6172 41.4143"/>
<path style="stroke:none; fill-rule:evenodd; fill:#000000" d="M 89.6446 43.5783L 89.6446 44.4333C 89.1641 43.7153 88.5781 43.3793 87.8086 43.3793C 86.2813 43.3793 85.25 44.7183 85.25 46.6833C 85.25 47.6753 85.5117 48.4843 86.0039 49.0623C 86.4492 49.5703 87.0899 49.8713 87.7227 49.8713C 88.4766 49.8713 89.0039 49.5433 89.543 48.7573L 89.543 49.0663C 89.543 49.8793 89.4414 50.3753 89.2031 50.7073C 88.9531 51.0623 88.4649 51.2653 87.8867 51.2653C 87.4571 51.2653 87.0703 51.1523 86.8086 50.9453C 86.5938 50.7733 86.5039 50.6133 86.4453 50.2573L 85.4805 50.2573C 85.5821 51.3903 86.461 52.0663 87.8711 52.0663C 88.7617 52.0663 89.5274 51.7813 89.918 51.3003C 90.3749 50.7543 90.5469 49.9963 90.5469 48.5863L 90.5469 43.5703L 89.6446 43.5783zM 87.9063 44.2773C 88.9336 44.2773 89.543 45.1523 89.543 46.6603C 89.543 48.0973 88.9258 48.9723 87.918 48.9723C 86.875 48.9723 86.2461 48.0863 86.2461 46.6253C 86.2461 45.1753 86.8867 44.2773 87.9063 44.2773z"/>
<path style="stroke:none; fill-rule:evenodd; fill:#000000" d="M 99.2459 43.5783L 99.2459 44.4333C 98.7659 43.7153 98.1799 43.3793 97.4099 43.3793C 95.8829 43.3793 94.8519 44.7183 94.8519 46.6833C 94.8519 47.6753 95.1129 48.4843 95.6059 49.0623C 96.0509 49.5703 96.6919 49.8713 97.3239 49.8713C 98.0779 49.8713 98.6059 49.5433 99.1449 48.7573L 99.1449 49.0663C 99.1449 49.8793 99.0429 50.3753 98.8049 50.7073C 98.5549 51.0623 98.0669 51.2653 97.4879 51.2653C 97.0589 51.2653 96.6719 51.1523 96.4099 50.9453C 96.1949 50.7733 96.1059 50.6133 96.0469 50.2573L 95.0819 50.2573C 95.1839 51.3903 96.0629 52.0663 97.4729 52.0663C 98.3629 52.0663 99.1289 51.7813 99.5199 51.3003C 99.9769 50.7543 100.149 49.9963 100.149 48.5863L 100.149 43.5703L 99.2459 43.5783zM 97.5079 44.2773C 98.5349 44.2773 99.1449 45.1523 99.1449 46.6603C 99.1449 48.0973 98.5269 48.9723 97.5199 48.9723C 96.4769 48.9723 95.8479 48.0863 95.8479 46.6253C 95.8479 45.1753 96.4879 44.2773 97.5079 44.2773z"/>
<path style="stroke:#000000; stroke-width:1.9133; fill:none" d="M 94.7969 41.4143L 102.449 41.4143"/>
<path style="stroke:none; fill-rule:evenodd; fill:#000000" d="M 60.3438 47.7773L 64.8985 47.7773L 64.8985 46.8793L 60.3438 46.8793L 60.3438 44.0823L 65.043 44.0823L 65.043 43.1833L 59.2461 43.1833L 59.2461 51.5823L 65.2461 51.5823L 65.2461 50.6833L 60.3477 50.6833L 60.3438 47.7773z"/>
<path style="stroke:none; fill-rule:evenodd; fill:#000000" d="M 71.7461 54.5783C 71.7461 53.6603 71.6797 53.1093 71.5078 52.6643C 71.1211 51.6793 70.2071 51.0823 69.0899 51.0823C 67.4258 51.0823 66.3516 52.3753 66.3516 54.3633C 66.3516 56.3513 67.3867 57.5783 69.0625 57.5783C 70.4258 57.5783 71.3711 56.7853 71.6133 55.4533L 70.6602 55.4533C 70.3985 56.2573 69.8672 56.6753 69.1055 56.6753C 68.5039 56.6753 67.9922 56.3983 67.6758 55.8823C 67.4492 55.5353 67.3711 55.1833 67.3594 54.5783L 71.7461 54.5783zM 67.3242 53.8123C 67.4024 52.6993 68.0821 51.9763 69.043 51.9763C 69.9805 51.9763 70.7071 52.7543 70.7071 53.7423C 70.7071 53.7613 70.7071 53.7853 70.6953 53.8083L 67.3242 53.8123z"/>
<path style="stroke:none; fill-rule:evenodd; fill:#000000" d="M 81.5742 48.4803L 79.2461 48.4803L 79.2461 46.1403L 78.4492 46.1403L 78.4492 48.4803L 76.0235 48.4803L 76.0235 49.2773L 78.4492 49.2773L 78.4492 51.6913L 79.2461 51.6913L 79.2461 49.2773L 81.5742 49.2773L 81.5742 48.4803z"/>
<path style="stroke:none; fill-rule:evenodd; fill:#000000" d="M 92.4449 51.2773L 91.4449 51.2773L 91.4449 57.2773L 92.4449 57.2773L 92.4449 51.2773zM 92.4449 48.8793L 91.4449 48.8793L 91.4449 50.1133L 92.4449 50.1133L 92.4449 48.8793z"/>
<path style="stroke:none; fill-rule:evenodd; fill:#000000" d="M 102.047 51.2773L 101.047 51.2773L 101.047 57.2773L 102.047 57.2773L 102.047 51.2773zM 102.047 48.8793L 101.047 48.8793L 101.047 50.1133L 102.047 50.1133L 102.047 48.8793z"/>
<path style="stroke:none; fill-rule:evenodd; fill:#000000" d="M 108.145 47.7773L 112.699 47.7773L 112.699 46.8793L 108.145 46.8793L 108.145 44.0823L 112.844 44.0823L 112.844 43.1833L 107.047 43.1833L 107.047 51.5823L 113.047 51.5823L 113.047 50.6833L 108.149 50.6833L 108.145 47.7773z"/>
<path style="stroke:none; fill-rule:evenodd; fill:#000000" d="M 115.344 51.2773L 114.344 51.2773L 114.344 57.2773L 115.344 57.2773L 115.344 51.2773zM 115.344 48.8793L 114.344 48.8793L 114.344 50.1133L 115.344 50.1133L 115.344 48.8793z"/>
<path style="stroke:none; fill-rule:evenodd; fill:#000000" d="M 133.746 43.5783L 133.746 44.4333C 133.266 43.7153 132.68 43.3793 131.91 43.3793C 130.383 43.3793 129.352 44.7183 129.352 46.6833C 129.352 47.6753 129.613 48.4843 130.106 49.0623C 130.551 49.5703 131.192 49.8713 131.824 49.8713C 132.578 49.8713 133.106 49.5433 133.645 48.7573L 133.645 49.0663C 133.645 49.8793 133.543 50.3753 133.305 50.7073C 133.055 51.0623 132.567 51.2653 131.988 51.2653C 131.559 51.2653 131.172 51.1523 130.91 50.9453C 130.695 50.7733 130.606 50.6133 130.547 50.2573L 129.582 50.2573C 129.684 51.3903 130.563 52.0663 131.973 52.0663C 132.863 52.0663 133.629 51.7813 134.02 51.3003C 134.477 50.7543 134.649 49.9963 134.649 48.5863L 134.649 43.5703L 133.746 43.5783zM 132.008 44.2773C 133.035 44.2773 133.645 45.1523 133.645 46.6603C 133.645 48.0973 133.027 48.9723 132.02 48.9723C 130.977 48.9723 130.348 48.0863 130.348 46.6253C 130.348 45.1753 130.988 44.2773 132.008 44.2773z"/>
<path style="stroke:none; fill-rule:evenodd; fill:#000000" d="M 125.574 48.4803L 123.246 48.4803L 123.246 46.1403L 122.449 46.1403L 122.449 48.4803L 120.024 48.4803L 120.024 49.2773L 122.449 49.2773L 122.449 51.6913L 123.246 51.6913L 123.246 49.2773L 125.574 49.2773L 125.574 48.4803z"/>
<path style="stroke:none; fill-rule:evenodd; fill:#000000" d="M 135.547 57.2773L 136.547 57.2773L 136.547 48.8793L 135.547 48.8793L 135.547 57.2773z"/>
<path style="stroke:none; fill-rule:evenodd; fill:#000000" d="M 143.246 43.5783L 143.246 44.4333C 142.766 43.7153 142.18 43.3793 141.41 43.3793C 139.883 43.3793 138.852 44.7183 138.852 46.6833C 138.852 47.6753 139.113 48.4843 139.606 49.0623C 140.051 49.5703 140.692 49.8713 141.324 49.8713C 142.078 49.8713 142.606 49.5433 143.145 48.7573L 143.145 49.0663C 143.145 49.8793 143.043 50.3753 142.805 50.7073C 142.555 51.0623 142.067 51.2653 141.488 51.2653C 141.059 51.2653 140.672 51.1523 140.41 50.9453C 140.195 50.7733 140.106 50.6133 140.047 50.2573L 139.082 50.2573C 139.184 51.3903 140.063 52.0663 141.473 52.0663C 142.363 52.0663 143.129 51.7813 143.52 51.3003C 143.977 50.7543 144.149 49.9963 144.149 48.5863L 144.149 43.5703L 143.246 43.5783zM 141.508 44.2773C 142.535 44.2773 143.145 45.1523 143.145 46.6603C 143.145 48.0973 142.527 48.9723 141.52 48.9723C 140.477 48.9723 139.848 48.0863 139.848 46.6253C 139.848 45.1753 140.488 44.2773 141.508 44.2773z"/>
<path style="stroke:#000000; stroke-width:1.9133; fill:none" d="M 138.805 41.4143L 146.457 41.4143"/>
<path style="stroke:none; fill-rule:evenodd; fill:#000000" d="M 145.145 57.2773L 146.145 57.2773L 146.145 48.8793L 145.145 48.8793L 145.145 57.2773z"/>
<path style="stroke:none; fill-rule:evenodd; fill:#000000" d="M 150.246 47.7773L 154.801 47.7773L 154.801 46.8793L 150.246 46.8793L 150.246 44.0823L 154.945 44.0823L 154.945 43.1833L 149.149 43.1833L 149.149 51.5823L 155.149 51.5823L 155.149 50.6833L 150.25 50.6833L 150.246 47.7773z"/>
<path style="stroke:none; fill-rule:evenodd; fill:#000000" d="M 156.547 57.2773L 157.547 57.2773L 157.547 48.8793L 156.547 48.8793L 156.547 57.2773z"/>
<path style="stroke:none; fill-rule:evenodd; fill:#000000" d="M 57.0469 66.5781L 57.0469 67.4335C 56.5664 66.7148 55.9805 66.3789 55.211 66.3789C 53.6836 66.3789 52.6524 67.7187 52.6524 69.6835C 52.6524 70.6757 52.9141 71.4843 53.4063 72.0625C 53.8516 72.5703 54.4922 72.8711 55.125 72.8711C 55.8789 72.8711 56.4063 72.5429 56.9453 71.7578L 56.9453 72.0664C 56.9453 72.8789 56.8438 73.375 56.6055 73.707C 56.3555 74.0625 55.8672 74.2656 55.2891 74.2656C 54.8594 74.2656 54.4727 74.1523 54.211 73.9453C 53.9961 73.7734 53.9063 73.6132 53.8477 73.2578L 52.8828 73.2578C 52.9844 74.3906 53.8633 75.0664 55.2735 75.0664C 56.1641 75.0664 56.9297 74.7812 57.3203 74.3007C 57.7774 73.7539 57.9492 72.9961 57.9492 71.5859L 57.9492 66.5703L 57.0469 66.5781zM 55.3047 67.2773C 56.3321 67.2773 56.9414 68.1523 56.9414 69.6601C 56.9414 71.0976 56.3242 71.9726 55.3164 71.9726C 54.2735 71.9726 53.6446 71.0859 53.6446 69.625C 53.6446 68.1757 54.2852 67.2773 55.3047 67.2773z"/>
<path style="stroke:none; fill-rule:evenodd; fill:#000000" d="M 63.9453 77.5781C 63.9453 76.6601 63.8789 76.1093 63.7071 75.664C 63.3203 74.6796 62.4063 74.082 61.2891 74.082C 59.625 74.082 58.5508 75.375 58.5508 77.3632C 58.5508 79.3515 59.586 80.5781 61.2617 80.5781C 62.625 80.5781 63.5703 79.7851 63.8125 78.4531L 62.8594 78.4531C 62.5977 79.2578 62.0664 79.6757 61.3047 79.6757C 60.7031 79.6757 60.1914 79.3984 59.875 78.8828C 59.6485 78.5351 59.5703 78.1835 59.5586 77.5781L 63.9453 77.5781zM 59.5274 76.8125C 59.6055 75.6992 60.2852 74.9765 61.2461 74.9765C 62.1836 74.9765 62.9102 75.7539 62.9102 76.7421C 62.9102 76.7617 62.9102 76.7851 62.8985 76.8085L 59.5274 76.8125z"/>
<path style="stroke:none; fill-rule:evenodd; fill:#000000" d="M 70.4453 66.5781L 70.4453 67.4335C 69.9649 66.7148 69.3789 66.3789 68.6094 66.3789C 67.0821 66.3789 66.0508 67.7187 66.0508 69.6835C 66.0508 70.6757 66.3125 71.4843 66.8047 72.0625C 67.25 72.5703 67.8907 72.8711 68.5235 72.8711C 69.2774 72.8711 69.8047 72.5429 70.3438 71.7578L 70.3438 72.0664C 70.3438 72.8789 70.2422 73.375 70.0039 73.707C 69.7539 74.0625 69.2657 74.2656 68.6875 74.2656C 68.2578 74.2656 67.8711 74.1523 67.6094 73.9453C 67.3946 73.7734 67.3047 73.6132 67.2461 73.2578L 66.2813 73.2578C 66.3828 74.3906 67.2617 75.0664 68.6719 75.0664C 69.5625 75.0664 70.3281 74.7812 70.7188 74.3007C 71.1758 73.7539 71.3477 72.9961 71.3477 71.5859L 71.3477 66.5703L 70.4453 66.5781zM 68.7071 67.2773C 69.7344 67.2773 70.3438 68.1523 70.3438 69.6601C 70.3438 71.0976 69.7266 71.9726 68.7188 71.9726C 67.6758 71.9726 67.0469 71.0859 67.0469 69.625C 67.0469 68.1757 67.6875 67.2773 68.7071 67.2773z"/>
<path style="stroke:none; fill-rule:evenodd; fill:#000000" d="M 77.3438 77.5781C 77.3438 76.6601 77.2774 76.1093 77.1055 75.664C 76.7188 74.6796 75.8047 74.082 74.6875 74.082C 73.0235 74.082 71.9492 75.375 71.9492 77.3632C 71.9492 79.3515 72.9844 80.5781 74.6602 80.5781C 76.0235 80.5781 76.9688 79.7851 77.211 78.4531L 76.2578 78.4531C 75.9961 79.2578 75.4649 79.6757 74.7031 79.6757C 74.1016 79.6757 73.5899 79.3984 73.2735 78.8828C 73.0469 78.5351 72.9688 78.1835 72.9571 77.5781L 77.3438 77.5781zM 72.9258 76.8125C 73.0039 75.6992 73.6836 74.9765 74.6446 74.9765C 75.5821 74.9765 76.3086 75.7539 76.3086 76.7421C 76.3086 76.7617 76.3086 76.7851 76.2969 76.8085L 72.9258 76.8125z"/>
<path style="stroke:#000000; stroke-width:1.9133; fill:none" d="M 65.9805 64.3753L 73.6328 64.3753"/>
<path style="stroke:none; fill-rule:evenodd; fill:#000000" d="M 93.4449 66.5781L 93.4449 67.4335C 92.9649 66.7148 92.3789 66.3789 91.6089 66.3789C 90.0819 66.3789 89.0508 67.7187 89.0508 69.6835C 89.0508 70.6757 89.3125 71.4843 89.8047 72.0625C 90.2499 72.5703 90.8909 72.8711 91.5239 72.8711C 92.2769 72.8711 92.8049 72.5429 93.3439 71.7578L 93.3439 72.0664C 93.3439 72.8789 93.2419 73.375 93.0039 73.707C 92.7539 74.0625 92.2659 74.2656 91.6879 74.2656C 91.2579 74.2656 90.8709 74.1523 90.6089 73.9453C 90.3949 73.7734 90.3049 73.6132 90.2459 73.2578L 89.2813 73.2578C 89.3828 74.3906 90.2619 75.0664 91.6719 75.0664C 92.5629 75.0664 93.3279 74.7812 93.7189 74.3007C 94.1759 73.7539 94.3479 72.9961 94.3479 71.5859L 94.3479 66.5703L 93.4449 66.5781zM 91.7069 67.2773C 92.7349 67.2773 93.3439 68.1523 93.3439 69.6601C 93.3439 71.0976 92.7269 71.9726 91.7189 71.9726C 90.6759 71.9726 90.0469 71.0859 90.0469 69.625C 90.0469 68.1757 90.6879 67.2773 91.7069 67.2773z"/>
<path style="stroke:#000000; stroke-width:1.9133; fill:none" d="M 100.418 64.3753L 108.07 64.3753"/>
<path style="stroke:none; fill-rule:evenodd; fill:#000000" d="M 85.2735 71.3789L 82.9453 71.3789L 82.9453 69.039L 82.1485 69.039L 82.1485 71.3789L 79.7227 71.3789L 79.7227 72.1757L 82.1485 72.1757L 82.1485 74.5898L 82.9453 74.5898L 82.9453 72.1757L 85.2735 72.1757L 85.2735 71.3789z"/>
<path style="stroke:none; fill-rule:evenodd; fill:#000000" d="M 96.1449 74.2773L 95.1449 74.2773L 95.1449 80.2773L 96.1449 80.2773L 96.1449 74.2773zM 96.1449 71.8789L 95.1449 71.8789L 95.1449 73.1132L 96.1449 73.1132L 96.1449 71.8789z"/>
<path style="stroke:none; fill-rule:evenodd; fill:#000000" d="M 102.945 66.5781L 102.945 67.4335C 102.465 66.7148 101.879 66.3789 101.109 66.3789C 99.5819 66.3789 98.5509 67.7187 98.5509 69.6835C 98.5509 70.6757 98.8129 71.4843 99.3049 72.0625C 99.7499 72.5703 100.391 72.8711 101.024 72.8711C 101.777 72.8711 102.305 72.5429 102.844 71.7578L 102.844 72.0664C 102.844 72.8789 102.742 73.375 102.504 73.707C 102.254 74.0625 101.766 74.2656 101.188 74.2656C 100.758 74.2656 100.371 74.1523 100.109 73.9453C 99.8949 73.7734 99.8049 73.6132 99.7459 73.2578L 98.7809 73.2578C 98.8829 74.3906 99.7619 75.0664 101.172 75.0664C 102.063 75.0664 102.828 74.7812 103.219 74.3007C 103.676 73.7539 103.848 72.9961 103.848 71.5859L 103.848 66.5703L 102.945 66.5781zM 101.207 67.2773C 102.235 67.2773 102.844 68.1523 102.844 69.6601C 102.844 71.0976 102.227 71.9726 101.219 71.9726C 100.176 71.9726 99.5469 71.0859 99.5469 69.625C 99.5469 68.1757 100.188 67.2773 101.207 67.2773z"/>
<path style="stroke:none; fill-rule:evenodd; fill:#000000" d="M 105.746 74.2773L 104.746 74.2773L 104.746 80.2773L 105.746 80.2773L 105.746 74.2773zM 105.746 71.8789L 104.746 71.8789L 104.746 73.1132L 105.746 73.1132L 105.746 71.8789z"/>
<path style="stroke:none; fill-rule:evenodd; fill:#000000" d="M 117.774 71.3789L 115.445 71.3789L 115.445 69.039L 114.649 69.039L 114.649 71.3789L 112.223 71.3789L 112.223 72.1757L 114.649 72.1757L 114.649 74.5898L 115.445 74.5898L 115.445 72.1757L 117.774 72.1757L 117.774 71.3789z"/>
<path style="stroke:none; fill-rule:evenodd; fill:#000000" d="M 125.945 66.5781L 125.945 67.4335C 125.465 66.7148 124.879 66.3789 124.109 66.3789C 122.582 66.3789 121.551 67.7187 121.551 69.6835C 121.551 70.6757 121.813 71.4843 122.305 72.0625C 122.75 72.5703 123.391 72.8711 124.024 72.8711C 124.777 72.8711 125.305 72.5429 125.844 71.7578L 125.844 72.0664C 125.844 72.8789 125.742 73.375 125.504 73.707C 125.254 74.0625 124.766 74.2656 124.188 74.2656C 123.758 74.2656 123.371 74.1523 123.109 73.9453C 122.895 73.7734 122.805 73.6132 122.746 73.2578L 121.781 73.2578C 121.883 74.3906 122.762 75.0664 124.172 75.0664C 125.063 75.0664 125.828 74.7812 126.219 74.3007C 126.676 73.7539 126.848 72.9961 126.848 71.5859L 126.848 66.5703L 125.945 66.5781zM 124.207 67.2773C 125.235 67.2773 125.844 68.1523 125.844 69.6601C 125.844 71.0976 125.227 71.9726 124.219 71.9726C 123.176 71.9726 122.547 71.0859 122.547 69.625C 122.547 68.1757 123.188 67.2773 124.207 67.2773z"/>
<path style="stroke:none; fill-rule:evenodd; fill:#000000" d="M 127.746 80.2773L 128.746 80.2773L 128.746 71.8789L 127.746 71.8789L 127.746 80.2773z"/>
<path style="stroke:none; fill-rule:evenodd; fill:#000000" d="M 135.445 66.5781L 135.445 67.4335C 134.965 66.7148 134.379 66.3789 133.609 66.3789C 132.082 66.3789 131.051 67.7187 131.051 69.6835C 131.051 70.6757 131.313 71.4843 131.805 72.0625C 132.25 72.5703 132.891 72.8711 133.524 72.8711C 134.277 72.8711 134.805 72.5429 135.344 71.7578L 135.344 72.0664C 135.344 72.8789 135.242 73.375 135.004 73.707C 134.754 74.0625 134.266 74.2656 133.688 74.2656C 133.258 74.2656 132.871 74.1523 132.609 73.9453C 132.395 73.7734 132.305 73.6132 132.246 73.2578L 131.281 73.2578C 131.383 74.3906 132.262 75.0664 133.672 75.0664C 134.563 75.0664 135.328 74.7812 135.719 74.3007C 136.176 73.7539 136.348 72.9961 136.348 71.5859L 136.348 66.5703L 135.445 66.5781zM 133.707 67.2773C 134.735 67.2773 135.344 68.1523 135.344 69.6601C 135.344 71.0976 134.727 71.9726 133.719 71.9726C 132.676 71.9726 132.047 71.0859 132.047 69.625C 132.047 68.1757 132.688 67.2773 133.707 67.2773z"/>
<path style="stroke:#000000; stroke-width:1.9133; fill:none" d="M 131.031 64.3753L 138.684 64.3753"/>
<path style="stroke:none; fill-rule:evenodd; fill:#000000" d="M 137.344 80.2773L 138.344 80.2773L 138.344 71.8789L 137.344 71.8789L 137.344 80.2773z"/>
<path style="stroke:#000000; stroke-width:1.9133; fill:none" d="M 30.4649 60.5473L 160.567 60.5473"/>
<path style="stroke:none; fill-rule:evenodd; fill:#000000" d="M 203.195 26.5153C 202.594 27.2153 202.313 27.3753 201.793 27.3753C 201.555 27.3753 201.367 27.3243 200.469 27.0543C 199.492 26.7463 199.172 26.6793 198.797 26.6793C 198.008 26.6793 197.379 27.0393 196.844 27.8043L 197.418 28.2573C 198.031 27.5193 198.262 27.3793 198.781 27.3793C 199.02 27.3793 199.168 27.4023 199.637 27.5393C 200.063 27.6723 200.492 27.8043 200.934 27.9413C 201.211 28.0353 201.52 28.0743 201.801 28.0743C 202.656 28.0743 203.285 27.6953 203.699 26.9613L 203.195 26.5153zM 203.195 24.4143C 202.582 25.1133 202.313 25.2773 201.793 25.2773C 201.555 25.2773 201.367 25.2263 200.469 24.9573C 199.492 24.6483 199.172 24.5823 198.797 24.5823C 198.008 24.5823 197.379 24.9413 196.844 25.7033L 197.418 26.1563C 198.031 25.4223 198.262 25.2813 198.781 25.2813C 199.02 25.2813 199.168 25.3043 199.637 25.4413C 200.063 25.5743 200.492 25.7113 200.934 25.8433C 201.211 25.9373 201.52 25.9763 201.801 25.9763C 202.656 25.9763 203.285 25.5973 203.699 24.8473L 203.195 24.4143z"/>
<path style="stroke:none; fill-rule:evenodd; fill:#000000" d="M 230.145 20.8793L 233.047 12.4803L 231.914 12.4803L 229.598 19.5933L 227.145 12.4803L 226 12.4803L 229.004 20.8793L 230.145 20.8793z"/>
<path style="stroke:none; fill-rule:evenodd; fill:#000000" d="M 234.047 18.7543L 234.047 24.7773L 235.047 24.7773L 235.047 20.9683C 235.047 20.0893 235.672 19.3823 236.442 19.3823C 237.145 19.3823 237.543 19.8203 237.543 20.5973L 237.543 24.7773L 238.543 24.7773L 238.543 20.9683C 238.543 20.0893 239.168 19.3823 239.938 19.3823C 240.629 19.3823 241.039 19.8323 241.039 20.5973L 241.039 24.7773L 242.039 24.7773L 242.039 20.2573C 242.039 19.1793 241.418 18.5823 240.285 18.5823C 239.481 18.5823 238.992 18.8243 238.43 19.5113C 238.074 18.8633 237.59 18.5823 236.805 18.5823C 236 18.5823 235.469 18.8793 234.949 19.6013L 234.949 18.7543L 234.047 18.7543z"/>
<path style="stroke:none; fill-rule:evenodd; fill:#000000" d="M 243.344 18.5783L 249.141 18.5783L 249.141 17.7813L 243.344 17.7813L 243.344 18.5783z"/>
<path style="stroke:none; fill-rule:evenodd; fill:#000000" d="M 257.246 16.0583L 256.926 16.0583C 256.859 16.8863 256.633 17.0783 255.758 17.0783L 255.305 17.0783C 254.473 17.0783 254.231 16.8633 254.176 16.0583L 253.856 16.0583L 253.856 19.1363L 254.176 19.1363C 254.242 18.3553 254.457 18.1793 255.344 18.1793L 255.785 18.1793C 256.656 18.1793 256.871 18.3553 256.926 19.1363L 257.246 19.1363L 257.246 16.0583zM 255.547 12.9803C 252.852 12.9803 250.945 14.9293 250.945 17.6873C 250.945 20.4023 252.859 22.3793 255.492 22.3793C 258.121 22.3793 260.043 20.4023 260.043 17.6873C 260.043 14.9883 258.125 12.9803 255.547 12.9803zM 255.414 13.4803C 256.02 13.4803 256.637 13.7113 257.109 14.1173C 257.969 14.8323 258.442 16.1443 258.442 17.7933C 258.442 19.3203 258.024 20.5783 257.285 21.2543C 256.867 21.6443 256.223 21.8753 255.563 21.8753C 253.746 21.8753 252.547 20.1873 252.547 17.6323C 252.547 15.0233 253.609 13.4803 255.414 13.4803z"/>
<path style="stroke:none; fill-rule:evenodd; fill:#000000" d="M 225.75 22.4803L 225.75 21.9803L 224.359 21.9803C 224.133 21.9803 224.051 21.9023 224.051 21.6753L 224.051 12.1683C 224.051 11.8393 224.102 11.7853 224.414 11.7853L 225.75 11.7853L 225.75 11.2853L 222.848 11.2853L 222.848 22.4843L 225.75 22.4803z"/>
<path style="stroke:none; fill-rule:evenodd; fill:#000000" d="M 260.488 22.4803L 263.344 22.4803L 263.344 11.2813L 260.488 11.2813L 260.488 11.7813L 261.789 11.7813C 262.09 11.7813 262.141 11.8473 262.141 12.1643L 262.141 21.6173C 262.141 21.9063 262.078 21.9723 261.762 21.9723L 260.488 21.9723L 260.488 22.4803z"/>
<path style="stroke:none; fill-rule:evenodd; fill:#000000" d="M 269.977 23.5783L 267.649 23.5783L 267.649 21.2383L 266.852 21.2383L 266.852 23.5783L 264.426 23.5783L 264.426 24.3753L 266.852 24.3753L 266.852 26.7893L 267.649 26.7893L 267.649 24.3753L 269.977 24.3753L 269.977 23.5783z"/>
<path style="stroke:none; fill-rule:evenodd; fill:#000000" d="M 220.047 40.0783L 222.949 31.6793L 221.817 31.6793L 219.5 38.7933L 217.047 31.6793L 215.902 31.6793L 218.906 40.0783L 220.047 40.0783z"/>
<path style="stroke:none; fill-rule:evenodd; fill:#000000" d="M 224.047 37.8513L 224.047 43.8753L 225.047 43.8753L 225.047 40.0663C 225.047 39.1873 225.672 38.4803 226.442 38.4803C 227.145 38.4803 227.543 38.9183 227.543 39.6953L 227.543 43.8753L 228.543 43.8753L 228.543 40.0663C 228.543 39.1873 229.168 38.4803 229.938 38.4803C 230.629 38.4803 231.039 38.9293 231.039 39.6953L 231.039 43.8753L 232.039 43.8753L 232.039 39.3553C 232.039 38.2773 231.418 37.6793 230.285 37.6793C 229.481 37.6793 228.992 37.9223 228.43 38.6093C 228.074 37.9613 227.59 37.6793 226.805 37.6793C 226 37.6793 225.469 37.9763 224.949 38.6993L 224.949 37.8513L 224.047 37.8513z"/>
<path style="stroke:none; fill-rule:evenodd; fill:#000000" d="M 233.246 37.7773L 239.043 37.7773L 239.043 36.9803L 233.246 36.9803L 233.246 37.7773z"/>
<path style="stroke:none; fill-rule:evenodd; fill:#000000" d="M 247.246 35.1603L 246.926 35.1603C 246.859 35.9883 246.633 36.1793 245.758 36.1793L 245.305 36.1793C 244.473 36.1793 244.231 35.9653 244.176 35.1603L 243.856 35.1603L 243.856 38.2383L 244.176 38.2383C 244.242 37.4573 244.457 37.2813 245.344 37.2813L 245.785 37.2813C 246.656 37.2813 246.871 37.4573 246.926 38.2383L 247.246 38.2383L 247.246 35.1603zM 245.547 32.0783C 242.852 32.0783 240.945 34.0273 240.945 36.7853C 240.945 39.5003 242.859 41.4763 245.492 41.4763C 248.121 41.4763 250.043 39.5003 250.043 36.7853C 250.043 34.0863 248.125 32.0783 245.547 32.0783zM 245.414 32.5783C 246.02 32.5783 246.637 32.8083 247.109 33.2153C 247.969 33.9293 248.442 35.2423 248.442 36.8903C 248.442 38.4183 248.024 39.6753 247.285 40.3513C 246.867 40.7423 246.223 40.9723 245.563 40.9723C 243.746 40.9723 242.547 39.2853 242.547 36.7303C 242.547 34.1213 243.609 32.5783 245.414 32.5783z"/>
<path style="stroke:none; fill-rule:evenodd; fill:#000000" d="M 215.75 41.5783L 215.75 41.0783L 214.359 41.0783C 214.133 41.0783 214.051 41.0003 214.051 40.7733L 214.051 31.2653C 214.051 30.9373 214.102 30.8823 214.414 30.8823L 215.75 30.8823L 215.75 30.3823L 212.848 30.3823L 212.848 41.5823L 215.75 41.5783z"/>
<path style="stroke:none; fill-rule:evenodd; fill:#000000" d="M 250.488 41.5783L 253.344 41.5783L 253.344 30.3793L 250.488 30.3793L 250.488 30.8793L 251.789 30.8793C 252.09 30.8793 252.141 30.9453 252.141 31.2613L 252.141 40.7153C 252.141 41.0043 252.078 41.0703 251.762 41.0703L 250.488 41.0703L 250.488 41.5783z"/>
<path style="stroke:none; fill-rule:evenodd; fill:#000000" d="M 259.977 42.6793L 257.649 42.6793L 257.649 40.3393L 256.852 40.3393L 256.852 42.6793L 254.426 42.6793L 254.426 43.4763L 256.852 43.4763L 256.852 45.8903L 257.649 45.8903L 257.649 43.4763L 259.977 43.4763L 259.977 42.6793z"/>
<path style="stroke:none; fill-rule:evenodd; fill:#000000" d="M 269.574 36.9803L 267.246 36.9803L 267.246 34.6403L 266.449 34.6403L 266.449 36.9803L 264.024 36.9803L 264.024 37.7773L 266.449 37.7773L 266.449 40.1913L 267.246 40.1913L 267.246 37.7773L 269.574 37.7773L 269.574 36.9803z"/>
<path style="stroke:none; fill-rule:evenodd; fill:#000000" d="M 276.344 34.3083L 276.344 40.0743L 277.344 40.0743L 277.344 31.9763L 276.676 31.9763C 276.32 33.2183 276.09 33.3903 274.52 33.5863L 274.52 34.3043L 276.344 34.3083z"/>
<path style="stroke:#000000; stroke-width:1.9133; fill:none" d="M 208.399 28.0233L 283.016 28.0233"/>
<path style="stroke:none; fill-rule:evenodd; fill:#000000" d="M 191.746 28.2773L 191.746 35.1793C 191.746 35.7773 191.555 35.9723 190.969 35.9723C 190.938 35.9723 190.938 35.9723 190.742 35.9723L 190.742 36.7383C 190.856 36.7573 190.918 36.7693 191.07 36.7693C 192.172 36.7693 192.746 36.3363 192.746 35.5233L 192.746 28.2733L 191.746 28.2773zM 192.746 25.8793L 191.746 25.8793L 191.746 27.0783L 192.746 27.0783L 192.746 25.8793z"/>
<path style="stroke:none; fill-rule:evenodd; fill:#000000" d="M 193.645 76.1523L 193.645 82.1757L 194.645 82.1757L 194.645 78.8281C 194.645 77.5898 195.27 76.7773 196.235 76.7773C 196.973 76.7773 197.442 77.2382 197.442 77.9687L 197.442 82.1718L 198.442 82.1718L 198.442 77.6171C 198.442 76.6171 197.699 75.9726 196.539 75.9726C 195.649 75.9726 195.074 76.3164 194.547 77.1562L 194.547 76.1445L 193.645 76.1523z"/>
<path style="stroke:none; fill-rule:evenodd; fill:#000000" d="M 205.145 79.4804C 205.145 78.5625 205.078 78.0117 204.906 77.5664C 204.52 76.582 203.606 75.9843 202.488 75.9843C 200.824 75.9843 199.75 77.2773 199.75 79.2656C 199.75 81.2539 200.785 82.4804 202.461 82.4804C 203.824 82.4804 204.77 81.6875 205.012 80.3554L 204.059 80.3554C 203.797 81.1601 203.266 81.5781 202.504 81.5781C 201.902 81.5781 201.391 81.3007 201.074 80.7851C 200.848 80.4375 200.77 80.0859 200.758 79.4804L 205.145 79.4804zM 200.727 78.7109C 200.805 77.5976 201.485 76.875 202.445 76.875C 203.383 76.875 204.109 77.6523 204.109 78.6406C 204.109 78.6601 204.109 78.6835 204.098 78.707L 200.727 78.7109z"/>
<path style="stroke:none; fill-rule:evenodd; fill:#000000" d="M 208.547 76.1796L 207.649 76.1796L 207.649 74.5117L 206.649 74.5117L 206.649 76.1796L 205.75 76.1796L 205.75 76.9765L 206.649 76.9765L 206.649 81.5234C 206.649 82.1289 207.051 82.4726 207.781 82.4726C 208.004 82.4726 208.231 82.4492 208.543 82.3906L 208.543 81.5546C 208.43 81.6445 208.293 81.6718 208.125 81.6718C 207.75 81.6718 207.645 81.5585 207.645 81.1289L 207.645 76.9765L 208.543 76.9765L 208.547 76.1796z"/>
<path style="stroke:none; fill-rule:evenodd; fill:#000000" d="M 246.961 79.9062L 252.574 82.2812L 252.574 81.375L 248.055 79.4921L 252.574 77.6445L 252.574 76.7382L 246.961 79.1132L 246.961 79.9062z"/>
<path style="stroke:none; fill-rule:evenodd; fill:#000000" d="M 257.399 79.0781L 259.418 76.1835L 258.34 76.1835L 256.895 78.3476L 255.449 76.1835L 254.359 76.1835L 256.367 79.125L 254.246 82.1796L 255.336 82.1796L 256.859 79.875L 258.363 82.1796L 259.477 82.1796L 257.399 79.0781z"/>
<path style="stroke:none; fill-rule:evenodd; fill:#000000" d="M 142.598 144.078L 144.617 141.184L 143.539 141.184L 142.094 143.348L 140.649 141.184L 139.559 141.184L 141.567 144.125L 139.445 147.18L 140.535 147.18L 142.059 144.875L 143.563 147.18L 144.676 147.18L 142.598 144.078z"/>
<path style="stroke:none; fill-rule:evenodd; fill:#000000" d="M 303.844 76.1328C 303.844 76.8437 303.766 77.7656 303.664 78.2773L 304.735 78.2773C 304.902 77.9687 304.942 77.6054 304.942 76.5507L 304.942 74.7187C 305.652 75.2734 306.246 75.4804 307.027 75.4804C 308.629 75.4804 309.735 74.3007 309.735 72.5703C 309.735 71.1367 309.024 70.1328 307.551 69.5C 308.559 68.9531 309.035 68.3359 309.035 67.5703C 309.035 66.3789 307.836 65.3863 306.391 65.3863C 304.934 65.3863 303.84 66.3359 303.84 67.6093L 303.844 76.1328zM 304.945 67.4726C 304.945 66.539 305.508 65.8828 306.297 65.8828C 307.141 65.8828 307.742 66.6523 307.742 67.7187C 307.742 68.4218 307.375 69.1796 307.031 69.1796C 306.996 69.1796 306.953 69.1796 306.742 69.1289C 306.547 69.0937 306.442 69.0781 306.336 69.0781C 306.02 69.0781 305.77 69.289 305.77 69.5468C 305.77 69.8007 306.008 69.9609 306.356 69.9609C 306.434 69.9609 306.5 69.9492 306.633 69.9296C 306.789 69.8945 306.926 69.8828 307.031 69.8828C 307.203 69.8828 307.297 69.9062 307.379 69.9882C 307.981 70.5468 308.34 71.5625 308.34 72.6562C 308.34 73.9882 307.746 74.7773 306.75 74.7773C 306.078 74.7773 305.402 74.4726 304.945 73.9531L 304.945 67.4726z"/>
<path style="stroke:#000000; stroke-width:1.9133; fill:none" d="M 301.91 79.6796L 313.387 79.6796"/>
<path style="stroke:none; fill-rule:evenodd; fill:#000000" d="M 311.246 81.3789L 310.246 81.3789L 310.246 88.25L 305.899 81.3789L 304.75 81.3789L 304.75 89.7773L 305.75 89.7773L 305.75 82.9961L 310.051 89.7773L 311.246 89.7773L 311.246 81.3789z"/>
<path style="stroke:none; fill-rule:evenodd; fill:#000000" d="M 220.145 78.0781L 214.547 78.0781L 214.547 78.875L 220.145 78.875L 220.145 78.0781zM 220.145 80.0781L 214.547 80.0781L 214.547 80.875L 220.145 80.875L 220.145 80.0781z"/>
<path style="stroke:none; fill-rule:evenodd; fill:#000000" d="M 187.699 24.4803L 186.035 29.1483L 184.5 24.4803L 183.481 24.4803L 185.512 30.5353L 185.149 31.4883C 185 31.9143 184.785 32.0743 184.383 32.0743C 184.246 32.0743 184.086 32.0393 183.879 31.9683L 183.879 32.8243C 184.07 32.9253 184.266 32.9723 184.52 32.9723C 184.828 32.9723 185.16 32.8713 185.414 32.6873C 185.711 32.4723 185.883 32.2183 186.067 31.7383L 188.738 24.4763L 187.699 24.4803z"/>
<path style="stroke:none; fill-rule:evenodd; fill:#000000" d="M 209.172 33.7303L 207.899 37.6833L 207.555 35.9143C 207.211 34.1563 206.844 33.5823 206.074 33.5823C 205.731 33.5823 205.422 33.7423 205.238 34.0073C 204.988 34.3633 204.93 34.6523 204.906 35.6213L 204.906 35.7693L 205.156 35.7693C 205.176 35.4493 205.199 35.2693 205.246 35.1013C 205.371 34.7183 205.645 34.4803 205.977 34.4803C 206.285 34.4803 206.504 34.6753 206.719 35.1483C 206.992 35.7463 207.289 36.8003 207.406 37.6563L 207.543 38.6133C 207.512 38.7263 207.383 39.0973 207.164 39.7223C 206.938 40.3553 206.867 40.6913 206.867 41.0863C 206.867 41.6293 207.106 41.9843 207.473 41.9843C 207.942 41.9843 208.25 41.3983 208.25 40.4803C 208.25 40.1253 208.195 39.5743 208.059 38.7113L 210.387 33.7263L 209.172 33.7303z"/>
<path style="stroke:none; fill-rule:evenodd; fill:#000000" d="M 219.672 15.1293L 218.399 19.0823L 218.055 17.3123C 217.711 15.5543 217.344 14.9803 216.574 14.9803C 216.231 14.9803 215.922 15.1403 215.738 15.4063C 215.488 15.7613 215.43 16.0503 215.406 17.0193L 215.406 17.1683L 215.656 17.1683C 215.676 16.8473 215.699 16.6683 215.746 16.5003C 215.871 16.1173 216.145 15.8793 216.477 15.8793C 216.785 15.8793 217.004 16.0743 217.219 16.5473C 217.492 17.1443 217.789 18.1993 217.906 19.0543L 218.043 20.0113C 218.012 20.1253 217.883 20.4963 217.664 21.1213C 217.438 21.7543 217.367 22.0893 217.367 22.4843C 217.367 23.0273 217.606 23.3823 217.973 23.3823C 218.442 23.3823 218.75 22.7973 218.75 21.8793C 218.75 21.5233 218.695 20.9723 218.559 20.1093L 220.887 15.1253L 219.672 15.1293z"/>
</g>
</svg>