<?xml version="1.0" encoding="UTF-8" standalone="no"?>
<svg
   xmlns:dc="http://purl.org/dc/elements/1.1/"
   xmlns:cc="http://creativecommons.org/ns#"
   xmlns:rdf="http://www.w3.org/1999/02/22-rdf-syntax-ns#"
   xmlns:svg="http://www.w3.org/2000/svg"
   xmlns="http://www.w3.org/2000/svg"
   xmlns:sodipodi="http://sodipodi.sourceforge.net/DTD/sodipodi-0.dtd"
   xmlns:inkscape="http://www.inkscape.org/namespaces/inkscape"
   width="173.175"
   height="265.046"
   id="svg4613"
   version="1.1"
   inkscape:version="0.47 r22583"
   sodipodi:docname="fig_patsep_clr.svg">
  <metadata
     id="metadata5081">
    <rdf:RDF>
      <cc:Work
         rdf:about="">
        <dc:format>image/svg+xml</dc:format>
        <dc:type
           rdf:resource="http://purl.org/dc/dcmitype/StillImage" />
        <dc:title></dc:title>
      </cc:Work>
    </rdf:RDF>
  </metadata>
  <sodipodi:namedview
     pagecolor="#ffffff"
     bordercolor="#666666"
     borderopacity="1"
     objecttolerance="10"
     gridtolerance="10"
     guidetolerance="10"
     inkscape:pageopacity="0"
     inkscape:pageshadow="2"
     inkscape:window-width="1251"
     inkscape:window-height="1089"
     id="namedview5079"
     showgrid="false"
     inkscape:zoom="1.780823"
     inkscape:cx="90.538958"
     inkscape:cy="134.66851"
     inkscape:window-x="0"
     inkscape:window-y="0"
     inkscape:window-maximized="0"
     inkscape:current-layer="svg4613" />
  <defs
     id="defs4615">
    <inkscape:perspective
       sodipodi:type="inkscape:persp3d"
       inkscape:vp_x="0 : 132.52299 : 1"
       inkscape:vp_y="0 : 1000 : 0"
       inkscape:vp_z="173.175 : 132.52299 : 1"
       inkscape:persp3d-origin="86.587502 : 88.348663 : 1"
       id="perspective5083" />
    <marker
       id="ArrowEnd"
       viewBox="0 0 10 10"
       refX="0"
       refY="5"
       markerUnits="strokeWidth"
       markerWidth="4"
       markerHeight="3"
       orient="auto">
      <path
         d="M 0 0 L 10 5 L 0 10 z"
         id="path4618" />
    </marker>
    <marker
       id="ArrowStart"
       viewBox="0 0 10 10"
       refX="10"
       refY="5"
       markerUnits="strokeWidth"
       markerWidth="4"
       markerHeight="3"
       orient="auto">
      <path
         d="M 10 0 L 0 5 L 10 10 z"
         id="path4621" />
    </marker>
  </defs>
  <path
     id="path4625"
     d="m 10.0308,255.015 153.1132,0 0,-111.007 -153.1132,0 0,111.007 z"
     style="fill:none;stroke:#000000;stroke-width:1.91395998" />
  <path
     id="path4627"
     d="m 105.73,201.426 c 0,-25.368 -18.8515,-45.934 -42.1054,-45.934 -23.2539,0 -42.1055,20.562 -42.1055,45.934 0,25.367 18.8516,45.933 42.1055,45.933 23.2539,0 42.1054,-20.562 42.1054,-45.933"
     style="fill:none;stroke:#000000;stroke-width:1.91395998" />
  <path
     id="path4629"
     d="m 147.836,201.426 c 0,-25.368 -18.852,-45.934 -42.106,-45.934 -23.2538,0 -42.1054,20.562 -42.1054,45.934 0,25.367 18.8516,45.933 42.1054,45.933 23.254,0 42.106,-20.562 42.106,-45.933"
     style="fill:none;stroke:#000000;stroke-width:1.91395998" />
  <path
     id="path4631"
     d="m 49.9058,172.668 0.8594,2.5 1.1914,0 -2.9375,-8.399 -1.375,0 -2.9843,8.399 1.1367,0 0.8828,-2.5 3.2265,0 z m -0.2968,-0.899 -2.6602,0 1.375,-3.82 1.2852,3.82 z"
     style="fill:#000000;fill-rule:evenodd;stroke:none" />
  <path
     id="path4633"
     d="m 110.464,175.168 3.809,0 c 0.797,0 1.387,-0.219 1.84,-0.699 0.414,-0.438 0.648,-1.036 0.648,-1.692 0,-1.012 -0.472,-1.625 -1.57,-2.035 0.766,-0.355 1.172,-0.977 1.172,-1.828 0,-0.61 -0.227,-1.149 -0.668,-1.543 -0.438,-0.402 -1.012,-0.586 -1.82,-0.586 l -3.411,0 0,8.383 z m 1.102,-4.699 0,-2.797 2.039,0 c 0.59,0 0.918,0.082 1.199,0.312 0.293,0.238 0.453,0.602 0.453,1.086 0,0.469 -0.156,0.844 -0.453,1.086 -0.281,0.227 -0.609,0.313 -1.199,0.313 l -2.039,0 z m 0,3.8 0,-2.898 2.598,0 c 0.511,0 0.855,0.125 1.109,0.402 0.25,0.266 0.387,0.633 0.387,1.051 0,0.402 -0.137,0.773 -0.387,1.035 -0.25,0.274 -0.594,0.403 -1.109,0.403 l -2.598,0.007 z"
     style="fill:#000000;fill-rule:evenodd;stroke:none" />
  <path
     id="path4635"
     d="m 10.0308,121.039 153.1132,0 0,-111.0082 -153.1132,0 0,111.0082 z"
     style="fill:none;stroke:#000000;stroke-width:1.91395998" />
  <path
     id="path4637"
     d="m 54.7066,67.4447 c 0,-8.4649 -6.289,-15.3279 -14.0508,-15.3279 -7.7578,0 -14.0507,6.863 -14.0507,15.3279 0,8.4651 6.289,15.3281 14.0507,15.3281 7.7579,0 14.0508,-6.863 14.0508,-15.3281"
     style="fill:none;stroke:#000000;stroke-width:1.91395998" />
  <path
     id="path4639"
     d="m 150.101,67.4447 c 0,-8.2809 -6.152,-14.9959 -13.746,-14.9959 -7.59,0 -13.746,6.715 -13.746,14.9959 0,8.2821 6.152,14.9961 13.746,14.9961 7.59,0 13.746,-6.714 13.746,-14.9961"
     style="fill:none;stroke:#000000;stroke-width:1.91395998" />
  <path
     id="path4641"
     d="m 42.3082,61.6678 0.8594,2.5 1.1914,0 -2.9375,-8.398 -1.375,0 -2.9844,8.398 1.1367,0 0.8828,-2.5 3.2266,0 z m -0.3008,-0.898 -2.6602,0 1.375,-3.821 1.2852,3.821 z"
     style="fill:#000000;fill-rule:evenodd;stroke:none" />
  <path
     id="path4643"
     d="m 133.464,64.1678 3.809,0 c 0.797,0 1.387,-0.219 1.84,-0.699 0.414,-0.438 0.648,-1.035 0.648,-1.6921 0,-1.0109 -0.472,-1.625 -1.57,-2.0349 0.766,-0.3551 1.172,-0.976 1.172,-1.828 0,-0.6091 -0.227,-1.148 -0.668,-1.543 -0.438,-0.402 -1.012,-0.586 -1.82,-0.586 l -3.411,0 0,8.383 z m 1.102,-4.699 0,-2.797 2.039,0 c 0.59,0 0.918,0.082 1.199,0.3119 0.293,0.239 0.453,0.6021 0.453,1.086 0,0.4691 -0.156,0.8441 -0.453,1.0861 -0.281,0.227 -0.609,0.313 -1.199,0.313 l -2.039,0 z m 0,3.801 0,-2.899 2.598,0 c 0.511,0 0.855,0.125 1.109,0.402 0.25,0.266 0.387,0.633 0.387,1.051 0,0.403 -0.137,0.7739 -0.387,1.0349 -0.25,0.2741 -0.594,0.403 -1.109,0.403 l -2.598,0.0081 z"
     style="fill:#000000;fill-rule:evenodd;stroke:none" />
  <path
     id="path4645"
     d="M 63.6207,155.488 40.6558,75.1058"
     style="fill:none;stroke:#000000;stroke-width:1.91395998" />
  <path
     id="path4647"
     d="m 40.9176,82.9878 -0.2618,-7.886 3.9414,6.832"
     style="fill:none;stroke:#000000;stroke-width:1.91395998" />
  <path
     id="path4649"
     d="M 109.558,155.488 136.351,75.1058"
     style="fill:none;stroke:#000000;stroke-width:1.91395998" />
  <path
     id="path4651"
     d="m 132.117,81.7617 4.234,-6.6559 -0.601,7.8669"
     style="fill:none;stroke:#000000;stroke-width:1.91395998" />
  <path
     id="path4653"
     d="m 21.4644,150.293 c -0.3359,-1.828 -1.3984,-2.723 -3.25,-2.723 -1.1328,0 -2.0468,0.356 -2.6679,1.047 -0.7617,0.828 -1.1758,2.024 -1.1758,3.383 0,1.379 0.4258,2.566 1.2226,3.383 0.6446,0.668 1.4766,0.976 2.5782,0.976 2.0586,0 3.2148,-1.113 3.4687,-3.351 l -1.1054,0 c -0.0899,0.59 -0.2032,0.992 -0.379,1.34 -0.3437,0.711 -1.0586,1.113 -1.957,1.113 -1.668,0 -2.7266,-1.352 -2.7266,-3.477 0,-2.179 1.0118,-3.519 2.6368,-3.519 0.6797,0 1.3125,0.211 1.6562,0.535 0.3086,0.289 0.4805,0.652 0.6094,1.285 l 1.0898,0.008 z"
     style="fill:#000000;fill-rule:evenodd;stroke:none" />
  <path
     id="path4655"
     d="m 25.3004,149.871 c -1.7032,0 -2.7344,1.211 -2.7344,3.25 0,2.031 1.0195,3.25 2.75,3.25 1.7031,0 2.75,-1.211 2.75,-3.203 0,-2.09 -1.0078,-3.293 -2.7617,-3.293 l -0.0039,-0.004 z m 0.0156,0.899 c 1.0938,0 1.75,0.886 1.75,2.382 0,1.414 -0.6758,2.313 -1.75,2.313 -1.082,0 -1.7461,-0.887 -1.7461,-2.348 0,-1.449 0.6641,-2.347 1.7461,-2.347 z"
     style="fill:#000000;fill-rule:evenodd;stroke:none" />
  <path
     id="path4657"
     d="m 29.3629,150.043 0,6.023 1,0 0,-3.132 c 0,-0.864 0.2109,-1.426 0.6601,-1.762 0.2891,-0.219 0.5703,-0.285 1.2227,-0.297 l 0,-0.965 c -0.1563,-0.019 -0.2383,-0.031 -0.3633,-0.031 -0.6094,0 -1.0742,0.367 -1.6211,1.266 l 0,-1.09 -0.8984,-0.012 z"
     style="fill:#000000;fill-rule:evenodd;stroke:none" />
  <path
     id="path4659"
     d="m 35.2652,150.07 -0.8984,0 0,-1.668 -1,0 0,1.668 -0.8985,0 0,0.797 0.8985,0 0,4.547 c 0,0.606 0.4023,0.949 1.1328,0.949 0.2226,0 0.4492,-0.023 0.7617,-0.082 l 0,-0.836 c -0.1133,0.09 -0.25,0.118 -0.418,0.118 -0.375,0 -0.4804,-0.114 -0.4804,-0.543 l 0,-4.153 0.8984,0 0.0039,-0.797 z"
     style="fill:#000000;fill-rule:evenodd;stroke:none" />
  <path
     id="path4661"
     d="m 41.4644,153.371 c 0,-0.918 -0.0664,-1.469 -0.2382,-1.914 -0.3868,-0.984 -1.3008,-1.582 -2.418,-1.582 -1.6641,0 -2.7383,1.293 -2.7383,3.281 0,1.989 1.0352,3.215 2.7109,3.215 1.3633,0 2.3125,-0.793 2.5508,-2.125 l -0.9531,0 c -0.2617,0.805 -0.793,1.223 -1.5547,1.223 -0.6016,0 -1.1133,-0.278 -1.4297,-0.793 -0.2265,-0.348 -0.3047,-0.699 -0.3164,-1.305 l 4.3867,0 z m -4.4179,-0.769 c 0.0781,-1.114 0.7578,-1.836 1.7226,-1.836 0.9414,0 1.6641,0.777 1.6641,1.765 0,0.02 0,0.043 -0.0078,0.067 l -3.3789,0.004 z"
     style="fill:#000000;fill-rule:evenodd;stroke:none" />
  <path
     id="path4663"
     d="m 45.316,152.969 2.0195,-2.895 -1.0781,0 -1.4453,2.164 -1.4453,-2.164 -1.0899,0 2.0079,2.942 -2.1211,3.054 1.0898,0 1.5234,-2.304 1.5039,2.304 1.1133,0 -2.0781,-3.101 z"
     style="fill:#000000;fill-rule:evenodd;stroke:none" />
  <path
     id="path4687"
     d="m 40.6363,201.445 c 0,-2.109 -1.7109,-3.824 -3.8242,-3.824 -2.1094,0 -3.8242,1.711 -3.8242,3.824 0,2.109 1.7109,3.824 3.8242,3.824 2.1094,0 3.8242,-1.711 3.8242,-3.824"
     style="fill:#ff0000;fill-rule:evenodd;stroke:none" />
  <path
     id="path4689"
     d="m 40.6363,201.445 c 0,-2.109 -1.7109,-3.824 -3.8242,-3.824 -2.1094,0 -3.8242,1.711 -3.8242,3.824 0,2.109 1.7109,3.824 3.8242,3.824 2.1094,0 3.8242,-1.711 3.8242,-3.824"
     style="fill:none;stroke:#000000;stroke-width:0.95697999" />
  <path
     id="path4691"
     d="m 40.6402,182.308 c 0,-2.109 -1.7109,-3.824 -3.8242,-3.824 -2.1094,0 -3.8242,1.711 -3.8242,3.824 0,2.11 1.7109,3.825 3.8242,3.825 2.1094,0 3.8242,-1.711 3.8242,-3.825"
     style="fill:#ff0000;fill-rule:evenodd;stroke:none" />
  <path
     id="path4693"
     d="m 40.6402,182.308 c 0,-2.109 -1.7109,-3.824 -3.8242,-3.824 -2.1094,0 -3.8242,1.711 -3.8242,3.824 0,2.11 1.7109,3.825 3.8242,3.825 2.1094,0 3.8242,-1.711 3.8242,-3.825"
     style="fill:none;stroke:#000000;stroke-width:0.95697999" />
  <path
     id="path4695"
     d="m 55.9488,189.957 c 0,-2.11 -1.7109,-3.824 -3.8242,-3.824 -2.1094,0 -3.8242,1.711 -3.8242,3.824 0,2.109 1.7109,3.824 3.8242,3.824 2.1094,0 3.8242,-1.711 3.8242,-3.824"
     style="fill:#ff0000;fill-rule:evenodd;stroke:none" />
  <path
     id="path4697"
     d="m 55.9488,189.957 c 0,-2.11 -1.7109,-3.824 -3.8242,-3.824 -2.1094,0 -3.8242,1.711 -3.8242,3.824 0,2.109 1.7109,3.824 3.8242,3.824 2.1094,0 3.8242,-1.711 3.8242,-3.824"
     style="fill:none;stroke:#000000;stroke-width:0.95697999" />
  <path
     id="path4699"
     d="m 67.4293,174.648 c 0,-2.109 -1.711,-3.824 -3.8242,-3.824 -2.1094,0 -3.8243,1.711 -3.8243,3.824 0,2.11 1.711,3.824 3.8243,3.824 2.1093,0 3.8242,-1.71 3.8242,-3.824"
     style="fill:#ff0000;fill-rule:evenodd;stroke:none" />
  <path
     id="path4701"
     d="m 67.4293,174.648 c 0,-2.109 -1.711,-3.824 -3.8242,-3.824 -2.1094,0 -3.8243,1.711 -3.8243,3.824 0,2.11 1.711,3.824 3.8243,3.824 2.1093,0 3.8242,-1.71 3.8242,-3.824"
     style="fill:none;stroke:#000000;stroke-width:0.95697999" />
  <path
     id="path4703"
     d="m 59.7808,216.738 c 0,-2.109 -1.7109,-3.824 -3.8242,-3.824 -2.1094,0 -3.8242,1.711 -3.8242,3.824 0,2.109 1.7109,3.824 3.8242,3.824 2.1094,0 3.8242,-1.711 3.8242,-3.824"
     style="fill:#ff0000;fill-rule:evenodd;stroke:none" />
  <path
     id="path4705"
     d="m 59.7808,216.738 c 0,-2.109 -1.7109,-3.824 -3.8242,-3.824 -2.1094,0 -3.8242,1.711 -3.8242,3.824 0,2.109 1.7109,3.824 3.8242,3.824 2.1094,0 3.8242,-1.711 3.8242,-3.824"
     style="fill:none;stroke:#000000;stroke-width:0.95697999" />
  <path
     id="path4707"
     d="m 86.5699,189.953 c 0,-2.109 -1.7109,-3.824 -3.8242,-3.824 -2.1094,0 -3.8242,1.711 -3.8242,3.824 0,2.109 1.7109,3.824 3.8242,3.824 2.1094,0 3.8242,-1.711 3.8242,-3.824"
     style="fill:#ffff00;fill-rule:evenodd;stroke:none" />
  <path
     id="path4709"
     d="m 86.5699,189.953 c 0,-2.109 -1.7109,-3.824 -3.8242,-3.824 -2.1094,0 -3.8242,1.711 -3.8242,3.824 0,2.109 1.7109,3.824 3.8242,3.824 2.1094,0 3.8242,-1.711 3.8242,-3.824"
     style="fill:none;stroke:#000000;stroke-width:0.95697999" />
  <path
     id="path4711"
     d="m 90.398,174.644 c 0,-2.109 -1.711,-3.824 -3.8242,-3.824 -2.1094,0 -3.8242,1.711 -3.8242,3.824 0,2.11 1.7109,3.825 3.8242,3.825 2.1092,0 3.8242,-1.711 3.8242,-3.825"
     style="fill:#ffff00;fill-rule:evenodd;stroke:none" />
  <path
     id="path4713"
     d="m 90.398,174.644 c 0,-2.109 -1.711,-3.824 -3.8242,-3.824 -2.1094,0 -3.8242,1.711 -3.8242,3.824 0,2.11 1.7109,3.825 3.8242,3.825 2.1092,0 3.8242,-1.711 3.8242,-3.825"
     style="fill:none;stroke:#000000;stroke-width:0.95697999" />
  <path
     id="path4715"
     d="m 90.402,212.906 c 0,-2.109 -1.711,-3.824 -3.8243,-3.824 -2.1094,0 -3.8242,1.711 -3.8242,3.824 0,2.109 1.7109,3.824 3.8242,3.824 2.1093,0 3.8243,-1.711 3.8243,-3.824"
     style="fill:#ffff00;fill-rule:evenodd;stroke:none" />
  <path
     id="path4717"
     d="m 90.402,212.906 c 0,-2.109 -1.711,-3.824 -3.8243,-3.824 -2.1094,0 -3.8242,1.711 -3.8242,3.824 0,2.109 1.7109,3.824 3.8242,3.824 2.1093,0 3.8243,-1.711 3.8243,-3.824"
     style="fill:none;stroke:#000000;stroke-width:0.95697999" />
  <path
     id="path4719"
     d="m 78.9215,201.426 c 0,-2.11 -1.711,-3.825 -3.8243,-3.825 -2.1093,0 -3.8242,1.711 -3.8242,3.825 0,2.109 1.711,3.824 3.8242,3.824 2.1094,0 3.8243,-1.711 3.8243,-3.824"
     style="fill:#ffff00;fill-rule:evenodd;stroke:none" />
  <path
     id="path4721"
     d="m 78.9215,201.426 c 0,-2.11 -1.711,-3.825 -3.8243,-3.825 -2.1093,0 -3.8242,1.711 -3.8242,3.825 0,2.109 1.711,3.824 3.8242,3.824 2.1094,0 3.8243,-1.711 3.8243,-3.824"
     style="fill:none;stroke:#000000;stroke-width:0.95697999" />
  <path
     id="path4723"
     d="m 101.886,197.594 c 0,-2.11 -1.711,-3.825 -3.824,-3.825 -2.109,0 -3.824,1.711 -3.824,3.825 0,2.109 1.711,3.824 3.824,3.824 2.109,0 3.824,-1.711 3.824,-3.824"
     style="fill:#ffff00;fill-rule:evenodd;stroke:none" />
  <path
     id="path4725"
     d="m 101.886,197.594 c 0,-2.11 -1.711,-3.825 -3.824,-3.825 -2.109,0 -3.824,1.711 -3.824,3.825 0,2.109 1.711,3.824 3.824,3.824 2.109,0 3.824,-1.711 3.824,-3.824"
     style="fill:none;stroke:#000000;stroke-width:0.95697999" />
  <path
     id="path4727"
     d="m 59.7965,239.683 c 0,-2.109 -1.711,-3.824 -3.8243,-3.824 -2.1093,0 -3.8242,1.711 -3.8242,3.824 0,2.11 1.711,3.825 3.8242,3.825 2.1094,0 3.8243,-1.711 3.8243,-3.825"
     style="fill:#ff0000;fill-rule:evenodd;stroke:none" />
  <path
     id="path4729"
     d="m 59.7965,239.683 c 0,-2.109 -1.711,-3.824 -3.8243,-3.824 -2.1093,0 -3.8242,1.711 -3.8242,3.824 0,2.11 1.711,3.825 3.8242,3.825 2.1094,0 3.8243,-1.711 3.8243,-3.825"
     style="fill:none;stroke:#000000;stroke-width:0.95697999" />
  <path
     id="path4731"
     d="m 44.4683,224.394 c 0,-2.109 -1.7109,-3.824 -3.8242,-3.824 -2.1093,0 -3.8242,1.711 -3.8242,3.824 0,2.11 1.7109,3.825 3.8242,3.825 2.1094,0 3.8242,-1.711 3.8242,-3.825"
     style="fill:#ff0000;fill-rule:evenodd;stroke:none" />
  <path
     id="path4733"
     d="m 44.4683,224.394 c 0,-2.109 -1.7109,-3.824 -3.8242,-3.824 -2.1093,0 -3.8242,1.711 -3.8242,3.824 0,2.11 1.7109,3.825 3.8242,3.825 2.1094,0 3.8242,-1.711 3.8242,-3.825"
     style="fill:none;stroke:#000000;stroke-width:0.95697999" />
  <path
     id="path4735"
     d="m 55.9527,201.433 c 0,-2.109 -1.7109,-3.824 -3.8242,-3.824 -2.1094,0 -3.8242,1.711 -3.8242,3.824 0,2.11 1.7109,3.825 3.8242,3.825 2.1094,0 3.8242,-1.711 3.8242,-3.825"
     style="fill:#ff0000;fill-rule:evenodd;stroke:none" />
  <path
     id="path4737"
     d="m 55.9527,201.433 c 0,-2.109 -1.7109,-3.824 -3.8242,-3.824 -2.1094,0 -3.8242,1.711 -3.8242,3.824 0,2.11 1.7109,3.825 3.8242,3.825 2.1094,0 3.8242,-1.711 3.8242,-3.825"
     style="fill:none;stroke:#000000;stroke-width:0.95697999" />
  <path
     id="path4739"
     d="m 63.609,228.219 c 0,-2.11 -1.711,-3.825 -3.8242,-3.825 -2.1094,0 -3.8243,1.711 -3.8243,3.825 0,2.109 1.711,3.824 3.8243,3.824 2.1093,0 3.8242,-1.711 3.8242,-3.824"
     style="fill:#ff0000;fill-rule:evenodd;stroke:none" />
  <path
     id="path4741"
     d="m 63.609,228.219 c 0,-2.11 -1.711,-3.825 -3.8242,-3.825 -2.1094,0 -3.8243,1.711 -3.8243,3.825 0,2.109 1.711,3.824 3.8243,3.824 2.1093,0 3.8242,-1.711 3.8242,-3.824"
     style="fill:none;stroke:#000000;stroke-width:0.95697999" />
  <path
     id="path4743"
     d="m 86.5699,228.215 c 0,-2.11 -1.7109,-3.825 -3.8242,-3.825 -2.1094,0 -3.8242,1.711 -3.8242,3.825 0,2.109 1.7109,3.824 3.8242,3.824 2.1094,0 3.8242,-1.711 3.8242,-3.824"
     style="fill:#ffff00;fill-rule:evenodd;stroke:none" />
  <path
     id="path4745"
     d="m 86.5699,228.215 c 0,-2.11 -1.7109,-3.825 -3.8242,-3.825 -2.1094,0 -3.8242,1.711 -3.8242,3.825 0,2.109 1.7109,3.824 3.8242,3.824 2.1094,0 3.8242,-1.711 3.8242,-3.824"
     style="fill:none;stroke:#000000;stroke-width:0.95697999" />
  <path
     id="path4747"
     d="m 67.441,163.16 c 0,-2.109 -1.7109,-3.824 -3.8242,-3.824 -2.1094,0 -3.8242,1.711 -3.8242,3.824 0,2.109 1.7109,3.824 3.8242,3.824 2.1094,0 3.8242,-1.711 3.8242,-3.824"
     style="fill:#ff0000;fill-rule:evenodd;stroke:none" />
  <path
     id="path4749"
     d="m 67.441,163.16 c 0,-2.109 -1.7109,-3.824 -3.8242,-3.824 -2.1094,0 -3.8242,1.711 -3.8242,3.824 0,2.109 1.7109,3.824 3.8242,3.824 2.1094,0 3.8242,-1.711 3.8242,-3.824"
     style="fill:none;stroke:#000000;stroke-width:0.95697999" />
  <path
     id="path4751"
     d="m 121.015,197.597 c 0,-2.109 -1.711,-3.824 -3.824,-3.824 -2.109,0 -3.824,1.711 -3.824,3.824 0,2.11 1.711,3.825 3.824,3.825 2.109,0 3.824,-1.711 3.824,-3.825"
     style="fill:#ffa400;fill-rule:evenodd;stroke:none" />
  <path
     id="path4753"
     d="m 121.015,197.597 c 0,-2.109 -1.711,-3.824 -3.824,-3.824 -2.109,0 -3.824,1.711 -3.824,3.824 0,2.11 1.711,3.825 3.824,3.825 2.109,0 3.824,-1.711 3.824,-3.825"
     style="fill:none;stroke:#000000;stroke-width:0.95697999" />
  <path
     id="path4755"
     d="m 132.5,174.637 c 0,-2.11 -1.711,-3.825 -3.825,-3.825 -2.109,0 -3.824,1.711 -3.824,3.825 0,2.109 1.711,3.824 3.824,3.824 2.11,0 3.825,-1.711 3.825,-3.824"
     style="fill:#ffa400;fill-rule:evenodd;stroke:none" />
  <path
     id="path4757"
     d="m 132.5,174.637 c 0,-2.11 -1.711,-3.825 -3.825,-3.825 -2.109,0 -3.824,1.711 -3.824,3.825 0,2.109 1.711,3.824 3.824,3.824 2.11,0 3.825,-1.711 3.825,-3.824"
     style="fill:none;stroke:#000000;stroke-width:0.95697999" />
  <path
     id="path4759"
     d="m 121.019,212.898 c 0,-2.109 -1.711,-3.824 -3.824,-3.824 -2.109,0 -3.824,1.711 -3.824,3.824 0,2.11 1.711,3.824 3.824,3.824 2.109,0 3.824,-1.71 3.824,-3.824"
     style="fill:#ffa400;fill-rule:evenodd;stroke:none" />
  <path
     id="path4761"
     d="m 121.019,212.898 c 0,-2.109 -1.711,-3.824 -3.824,-3.824 -2.109,0 -3.824,1.711 -3.824,3.824 0,2.11 1.711,3.824 3.824,3.824 2.109,0 3.824,-1.71 3.824,-3.824"
     style="fill:none;stroke:#000000;stroke-width:0.95697999" />
  <path
     id="path4763"
     d="m 132.504,216.722 c 0,-2.109 -1.711,-3.824 -3.825,-3.824 -2.109,0 -3.824,1.711 -3.824,3.824 0,2.11 1.711,3.825 3.824,3.825 2.11,0 3.825,-1.711 3.825,-3.825"
     style="fill:#ffa400;fill-rule:evenodd;stroke:none" />
  <path
     id="path4765"
     d="m 132.504,216.722 c 0,-2.109 -1.711,-3.824 -3.825,-3.824 -2.109,0 -3.824,1.711 -3.824,3.824 0,2.11 1.711,3.825 3.824,3.825 2.11,0 3.825,-1.711 3.825,-3.825"
     style="fill:none;stroke:#000000;stroke-width:0.95697999" />
  <path
     id="path4767"
     d="m 140.16,193.758 c 0,-2.11 -1.711,-3.825 -3.824,-3.825 -2.11,0 -3.825,1.711 -3.825,3.825 0,2.109 1.711,3.824 3.825,3.824 2.109,0 3.824,-1.711 3.824,-3.824"
     style="fill:#ffa400;fill-rule:evenodd;stroke:none" />
  <path
     id="path4769"
     d="m 140.16,193.758 c 0,-2.11 -1.711,-3.825 -3.824,-3.825 -2.11,0 -3.825,1.711 -3.825,3.825 0,2.109 1.711,3.824 3.825,3.824 2.109,0 3.824,-1.711 3.824,-3.824"
     style="fill:none;stroke:#000000;stroke-width:0.95697999" />
  <path
     id="path4771"
     d="m 117.203,232.023 c 0,-2.109 -1.711,-3.824 -3.825,-3.824 -2.109,0 -3.824,1.711 -3.824,3.824 0,2.11 1.711,3.824 3.824,3.824 2.11,0 3.825,-1.71 3.825,-3.824"
     style="fill:#ffa400;fill-rule:evenodd;stroke:none" />
  <path
     id="path4773"
     d="m 117.203,232.023 c 0,-2.109 -1.711,-3.824 -3.825,-3.824 -2.109,0 -3.824,1.711 -3.824,3.824 0,2.11 1.711,3.824 3.824,3.824 2.11,0 3.825,-1.71 3.825,-3.824"
     style="fill:none;stroke:#000000;stroke-width:0.95697999" />
  <path
     id="path4775"
     d="m 113.378,220.539 c 0,-2.11 -1.71,-3.824 -3.824,-3.824 -2.109,0 -3.824,1.711 -3.824,3.824 0,2.109 1.711,3.824 3.824,3.824 2.11,0 3.824,-1.711 3.824,-3.824"
     style="fill:#ffa400;fill-rule:evenodd;stroke:none" />
  <path
     id="path4777"
     d="m 113.378,220.539 c 0,-2.11 -1.71,-3.824 -3.824,-3.824 -2.109,0 -3.824,1.711 -3.824,3.824 0,2.109 1.711,3.824 3.824,3.824 2.11,0 3.824,-1.711 3.824,-3.824"
     style="fill:none;stroke:#000000;stroke-width:0.95697999" />
  <path
     id="path4779"
     d="m 105.726,163.14 c 0,-2.109 -1.711,-3.824 -3.824,-3.824 -2.109,0 -3.824,1.711 -3.824,3.824 0,2.11 1.711,3.825 3.824,3.825 2.109,0 3.824,-1.711 3.824,-3.825"
     style="fill:#ffa400;fill-rule:evenodd;stroke:none" />
  <path
     id="path4781"
     d="m 105.726,163.14 c 0,-2.109 -1.711,-3.824 -3.824,-3.824 -2.109,0 -3.824,1.711 -3.824,3.824 0,2.11 1.711,3.825 3.824,3.825 2.109,0 3.824,-1.711 3.824,-3.825"
     style="fill:none;stroke:#000000;stroke-width:0.95697999" />
  <path
     id="path4783"
     d="m 117.211,186.097 c 0,-2.109 -1.711,-3.824 -3.825,-3.824 -2.109,0 -3.824,1.711 -3.824,3.824 0,2.11 1.711,3.825 3.824,3.825 2.11,0 3.825,-1.711 3.825,-3.825"
     style="fill:#ffa400;fill-rule:evenodd;stroke:none" />
  <path
     id="path4785"
     d="m 117.211,186.097 c 0,-2.109 -1.711,-3.824 -3.825,-3.824 -2.109,0 -3.824,1.711 -3.824,3.824 0,2.11 1.711,3.825 3.824,3.825 2.11,0 3.825,-1.711 3.825,-3.825"
     style="fill:none;stroke:#000000;stroke-width:0.95697999" />
  <path
     id="path4787"
     d="m 128.695,186.094 c 0,-2.11 -1.711,-3.825 -3.824,-3.825 -2.11,0 -3.825,1.711 -3.825,3.825 0,2.109 1.711,3.824 3.825,3.824 2.109,0 3.824,-1.711 3.824,-3.824"
     style="fill:#ffa400;fill-rule:evenodd;stroke:none" />
  <path
     id="path4789"
     d="m 128.695,186.094 c 0,-2.11 -1.711,-3.825 -3.824,-3.825 -2.11,0 -3.825,1.711 -3.825,3.825 0,2.109 1.711,3.824 3.825,3.824 2.109,0 3.824,-1.711 3.824,-3.824"
     style="fill:none;stroke:#000000;stroke-width:0.95697999" />
  <path
     id="path4791"
     d="m 132.523,205.222 c 0,-2.109 -1.711,-3.824 -3.824,-3.824 -2.11,0 -3.824,1.711 -3.824,3.824 0,2.11 1.711,3.825 3.824,3.825 2.109,0 3.824,-1.711 3.824,-3.825"
     style="fill:#ffa400;fill-rule:evenodd;stroke:none" />
  <path
     id="path4793"
     d="m 132.523,205.222 c 0,-2.109 -1.711,-3.824 -3.824,-3.824 -2.11,0 -3.824,1.711 -3.824,3.824 0,2.11 1.711,3.825 3.824,3.825 2.109,0 3.824,-1.711 3.824,-3.825"
     style="fill:none;stroke:#000000;stroke-width:0.95697999" />
  <path
     id="path4795"
     d="m 132.527,228.179 c 0,-2.109 -1.711,-3.824 -3.824,-3.824 -2.11,0 -3.825,1.711 -3.825,3.824 0,2.11 1.711,3.825 3.825,3.825 2.109,0 3.824,-1.711 3.824,-3.825"
     style="fill:#ffa400;fill-rule:evenodd;stroke:none" />
  <path
     id="path4797"
     d="m 132.527,228.179 c 0,-2.109 -1.711,-3.824 -3.824,-3.824 -2.11,0 -3.825,1.711 -3.825,3.824 0,2.11 1.711,3.825 3.825,3.825 2.109,0 3.824,-1.711 3.824,-3.825"
     style="fill:none;stroke:#000000;stroke-width:0.95697999" />
  <path
     id="path4799"
     d="m 144.007,209.043 c 0,-2.11 -1.711,-3.824 -3.824,-3.824 -2.109,0 -3.824,1.71 -3.824,3.824 0,2.109 1.711,3.824 3.824,3.824 2.11,0 3.824,-1.711 3.824,-3.824"
     style="fill:#ffa400;fill-rule:evenodd;stroke:none" />
  <path
     id="path4801"
     d="m 144.007,209.043 c 0,-2.11 -1.711,-3.824 -3.824,-3.824 -2.109,0 -3.824,1.71 -3.824,3.824 0,2.109 1.711,3.824 3.824,3.824 2.11,0 3.824,-1.711 3.824,-3.824"
     style="fill:none;stroke:#000000;stroke-width:0.95697999" />
  <path
     id="path4803"
     d="m 36.8668,71.2848 c 0,-2.109 -1.711,-3.824 -3.8242,-3.824 -2.1094,0 -3.8243,1.711 -3.8243,3.824 0,2.11 1.711,3.8239 3.8243,3.8239 2.1093,0 3.8242,-1.7109 3.8242,-3.8239"
     style="fill:#ff0000;fill-rule:evenodd;stroke:none" />
  <path
     id="path4805"
     d="m 36.8668,71.2848 c 0,-2.109 -1.711,-3.824 -3.8242,-3.824 -2.1094,0 -3.8243,1.711 -3.8243,3.824 0,2.11 1.711,3.8239 3.8243,3.8239 2.1093,0 3.8242,-1.7109 3.8242,-3.8239"
     style="fill:none;stroke:#000000;stroke-width:0.95697999" />
  <path
     id="path4807"
     d="m 48.3472,71.2808 c 0,-2.109 -1.7109,-3.824 -3.8242,-3.824 -2.1093,0 -3.8242,1.711 -3.8242,3.824 0,2.11 1.711,3.825 3.8242,3.825 2.1094,0 3.8242,-1.711 3.8242,-3.825"
     style="fill:#ff0000;fill-rule:evenodd;stroke:none" />
  <path
     id="path4809"
     d="m 48.3472,71.2808 c 0,-2.109 -1.7109,-3.824 -3.8242,-3.824 -2.1093,0 -3.8242,1.711 -3.8242,3.824 0,2.11 1.711,3.825 3.8242,3.825 2.1094,0 3.8242,-1.711 3.8242,-3.825"
     style="fill:none;stroke:#000000;stroke-width:0.95697999" />
  <path
     id="path4811"
     d="m 132.535,71.2767 c 0,-2.1089 -1.711,-3.8239 -3.824,-3.8239 -2.11,0 -3.825,1.711 -3.825,3.8239 0,2.11 1.711,3.8251 3.825,3.8251 2.109,0 3.824,-1.711 3.824,-3.8251"
     style="fill:#ffa400;fill-rule:evenodd;stroke:none" />
  <path
     id="path4813"
     d="m 132.535,71.2767 c 0,-2.1089 -1.711,-3.8239 -3.824,-3.8239 -2.11,0 -3.825,1.711 -3.825,3.8239 0,2.11 1.711,3.8251 3.825,3.8251 2.109,0 3.824,-1.711 3.824,-3.8251"
     style="fill:none;stroke:#000000;stroke-width:0.95697999" />
  <path
     id="path4815"
     d="m 147.843,71.2767 c 0,-2.1089 -1.711,-3.8239 -3.824,-3.8239 -2.109,0 -3.824,1.711 -3.824,3.8239 0,2.11 1.711,3.8251 3.824,3.8251 2.109,0 3.824,-1.711 3.824,-3.8251"
     style="fill:#ffa400;fill-rule:evenodd;stroke:none" />
  <path
     id="path4817"
     d="m 147.843,71.2767 c 0,-2.1089 -1.711,-3.8239 -3.824,-3.8239 -2.109,0 -3.824,1.711 -3.824,3.8239 0,2.11 1.711,3.8251 3.824,3.8251 2.109,0 3.824,-1.711 3.824,-3.8251"
     style="fill:none;stroke:#000000;stroke-width:0.95697999" />
  <path
     id="path4819"
     d="m 75.1402,71.2728 c 0,-2.109 -1.7109,-3.824 -3.8242,-3.824 -2.1094,0 -3.8242,1.711 -3.8242,3.824 0,2.11 1.7109,3.8249 3.8242,3.8249 2.1094,0 3.8242,-1.711 3.8242,-3.8249"
     style="fill:#7e7e7e;fill-rule:evenodd;stroke:none" />
  <path
     id="path4821"
     d="m 75.1402,71.2728 c 0,-2.109 -1.7109,-3.824 -3.8242,-3.824 -2.1094,0 -3.8242,1.711 -3.8242,3.824 0,2.11 1.7109,3.8249 3.8242,3.8249 2.1094,0 3.8242,-1.711 3.8242,-3.8249"
     style="fill:none;stroke:#000000;stroke-width:0.95697999" />
  <path
     id="path4823"
     d="m 71.3199,44.4837 c 0,-2.1089 -1.7109,-3.8239 -3.8242,-3.8239 -2.1094,0 -3.8242,1.711 -3.8242,3.8239 0,2.1101 1.7109,3.8251 3.8242,3.8251 2.1094,0 3.8242,-1.7111 3.8242,-3.8251"
     style="fill:#7e7e7e;fill-rule:evenodd;stroke:none" />
  <path
     id="path4825"
     d="m 71.3199,44.4837 c 0,-2.1089 -1.7109,-3.8239 -3.8242,-3.8239 -2.1094,0 -3.8242,1.711 -3.8242,3.8239 0,2.1101 1.7109,3.8251 3.8242,3.8251 2.1094,0 3.8242,-1.7111 3.8242,-3.8251"
     style="fill:none;stroke:#000000;stroke-width:0.95697999" />
  <path
     id="path4827"
     d="m 86.6285,59.7888 c 0,-2.1091 -1.7109,-3.824 -3.8242,-3.824 -2.1094,0 -3.8242,1.711 -3.8242,3.824 0,2.109 1.7109,3.824 3.8242,3.824 2.1094,0 3.8242,-1.7111 3.8242,-3.824"
     style="fill:#7e7e7e;fill-rule:evenodd;stroke:none" />
  <path
     id="path4829"
     d="m 86.6285,59.7888 c 0,-2.1091 -1.7109,-3.824 -3.8242,-3.824 -2.1094,0 -3.8242,1.711 -3.8242,3.824 0,2.109 1.7109,3.824 3.8242,3.824 2.1094,0 3.8242,-1.7111 3.8242,-3.824"
     style="fill:none;stroke:#000000;stroke-width:0.95697999" />
  <path
     id="path4831"
     d="m 94.285,78.9178 c 0,-2.109 -1.711,-3.824 -3.824,-3.824 -2.11,0 -3.8247,1.7109 -3.8247,3.824 0,2.1089 1.7107,3.824 3.8247,3.824 2.109,0 3.824,-1.711 3.824,-3.824"
     style="fill:#7e7e7e;fill-rule:evenodd;stroke:none" />
  <path
     id="path4833"
     d="m 94.285,78.9178 c 0,-2.109 -1.711,-3.824 -3.824,-3.824 -2.11,0 -3.8247,1.7109 -3.8247,3.824 0,2.1089 1.7107,3.824 3.8247,3.824 2.109,0 3.824,-1.711 3.824,-3.824"
     style="fill:none;stroke:#000000;stroke-width:0.95697999" />
  <path
     id="path4835"
     d="m 124.898,48.3047 c 0,-2.11 -1.711,-3.8249 -3.824,-3.8249 -2.11,0 -3.824,1.711 -3.824,3.8249 0,2.1091 1.711,3.8241 3.824,3.8241 2.109,0 3.824,-1.711 3.824,-3.8241"
     style="fill:#7e7e7e;fill-rule:evenodd;stroke:none" />
  <path
     id="path4837"
     d="m 124.898,48.3047 c 0,-2.11 -1.711,-3.8249 -3.824,-3.8249 -2.11,0 -3.824,1.711 -3.824,3.8249 0,2.1091 1.711,3.8241 3.824,3.8241 2.109,0 3.824,-1.711 3.824,-3.8241"
     style="fill:none;stroke:#000000;stroke-width:0.95697999" />
  <path
     id="path4839"
     d="m 113.421,29.1678 c 0,-2.109 -1.71,-3.824 -3.824,-3.824 -2.109,0 -3.824,1.7109 -3.824,3.824 0,2.1089 1.711,3.824 3.824,3.824 2.11,0 3.824,-1.711 3.824,-3.824"
     style="fill:#7e7e7e;fill-rule:evenodd;stroke:none" />
  <path
     id="path4841"
     d="m 113.421,29.1678 c 0,-2.109 -1.71,-3.824 -3.824,-3.824 -2.109,0 -3.824,1.7109 -3.824,3.824 0,2.1089 1.711,3.824 3.824,3.824 2.11,0 3.824,-1.711 3.824,-3.824"
     style="fill:none;stroke:#000000;stroke-width:0.95697999" />
  <path
     id="path4843"
     d="m 109.597,59.7767 c 0,-2.1089 -1.711,-3.8239 -3.824,-3.8239 -2.109,0 -3.824,1.711 -3.824,3.8239 0,2.11 1.711,3.8251 3.824,3.8251 2.109,0 3.824,-1.711 3.824,-3.8251"
     style="fill:#7e7e7e;fill-rule:evenodd;stroke:none" />
  <path
     id="path4845"
     d="m 109.597,59.7767 c 0,-2.1089 -1.711,-3.8239 -3.824,-3.8239 -2.109,0 -3.824,1.711 -3.824,3.8239 0,2.11 1.711,3.8251 3.824,3.8251 2.109,0 3.824,-1.711 3.824,-3.8251"
     style="fill:none;stroke:#000000;stroke-width:0.95697999" />
  <path
     id="path4847"
     d="m 98.121,36.8158 c 0,-2.109 -1.711,-3.824 -3.825,-3.824 -2.109,0 -3.824,1.711 -3.824,3.824 0,2.11 1.711,3.825 3.824,3.825 2.11,0 3.825,-1.7111 3.825,-3.825"
     style="fill:#7e7e7e;fill-rule:evenodd;stroke:none" />
  <path
     id="path4849"
     d="m 98.121,36.8158 c 0,-2.109 -1.711,-3.824 -3.825,-3.824 -2.109,0 -3.824,1.711 -3.824,3.824 0,2.11 1.711,3.825 3.824,3.825 2.11,0 3.825,-1.7111 3.825,-3.825"
     style="fill:none;stroke:#000000;stroke-width:0.95697999" />
  <path
     id="path4851"
     d="m 109.601,86.5588 c 0,-2.11 -1.711,-3.8251 -3.824,-3.8251 -2.109,0 -3.824,1.711 -3.824,3.8251 0,2.109 1.711,3.824 3.824,3.824 2.109,0 3.824,-1.711 3.824,-3.824"
     style="fill:#7e7e7e;fill-rule:evenodd;stroke:none" />
  <path
     id="path4853"
     d="m 109.601,86.5588 c 0,-2.11 -1.711,-3.8251 -3.824,-3.8251 -2.109,0 -3.824,1.711 -3.824,3.8251 0,2.109 1.711,3.824 3.824,3.824 2.109,0 3.824,-1.711 3.824,-3.824"
     style="fill:none;stroke:#000000;stroke-width:0.95697999" />
  <path
     id="path4855"
     d="m 78.9918,98.0348 c 0,-2.109 -1.711,-3.824 -3.8242,-3.824 -2.1094,0 -3.8243,1.711 -3.8243,3.824 0,2.1102 1.711,3.8242 3.8243,3.8242 2.1093,0 3.8242,-1.711 3.8242,-3.8242"
     style="fill:#7e7e7e;fill-rule:evenodd;stroke:none" />
  <path
     id="path4857"
     d="m 78.9918,98.0348 c 0,-2.109 -1.711,-3.824 -3.8242,-3.824 -2.1094,0 -3.8243,1.711 -3.8243,3.824 0,2.1102 1.711,3.8242 3.8243,3.8242 2.1093,0 3.8242,-1.711 3.8242,-3.8242"
     style="fill:none;stroke:#000000;stroke-width:0.95697999" />
  <path
     id="path4859"
     d="m 105.781,105.688 c 0,-2.11 -1.711,-3.825 -3.824,-3.825 -2.11,0 -3.825,1.711 -3.825,3.825 0,2.109 1.711,3.824 3.825,3.824 2.109,0 3.824,-1.711 3.824,-3.824"
     style="fill:#7e7e7e;fill-rule:evenodd;stroke:none" />
  <path
     id="path4861"
     d="m 105.781,105.688 c 0,-2.11 -1.711,-3.825 -3.824,-3.825 -2.11,0 -3.825,1.711 -3.825,3.825 0,2.109 1.711,3.824 3.825,3.824 2.109,0 3.824,-1.711 3.824,-3.824"
     style="fill:none;stroke:#000000;stroke-width:0.95697999" />
  <path
     id="path4863"
     d="m 151.703,155.43 c 0,-2.11 -1.711,-3.824 -3.825,-3.824 -2.109,0 -3.824,1.71 -3.824,3.824 0,2.109 1.711,3.824 3.824,3.824 2.11,0 3.825,-1.711 3.825,-3.824"
     style="fill:#7e7e7e;fill-rule:evenodd;stroke:none" />
  <path
     id="path4865"
     d="m 151.703,155.43 c 0,-2.11 -1.711,-3.824 -3.825,-3.824 -2.109,0 -3.824,1.71 -3.824,3.824 0,2.109 1.711,3.824 3.824,3.824 2.11,0 3.825,-1.711 3.825,-3.824"
     style="fill:none;stroke:#000000;stroke-width:0.95697999" />
  <path
     id="path4867"
     d="m 159.359,205.172 c 0,-2.11 -1.711,-3.825 -3.824,-3.825 -2.11,0 -3.824,1.711 -3.824,3.825 0,2.109 1.71,3.824 3.824,3.824 2.109,0 3.824,-1.711 3.824,-3.824"
     style="fill:#7e7e7e;fill-rule:evenodd;stroke:none" />
  <path
     id="path4869"
     d="m 159.359,205.172 c 0,-2.11 -1.711,-3.825 -3.824,-3.825 -2.11,0 -3.824,1.711 -3.824,3.825 0,2.109 1.71,3.824 3.824,3.824 2.109,0 3.824,-1.711 3.824,-3.824"
     style="fill:none;stroke:#000000;stroke-width:0.95697999" />
  <path
     id="path4871"
     d="m 155.535,170.73 c 0,-2.109 -1.711,-3.824 -3.824,-3.824 -2.11,0 -3.825,1.711 -3.825,3.824 0,2.11 1.711,3.824 3.825,3.824 2.109,0 3.824,-1.71 3.824,-3.824"
     style="fill:#7e7e7e;fill-rule:evenodd;stroke:none" />
  <path
     id="path4873"
     d="m 155.535,170.73 c 0,-2.109 -1.711,-3.824 -3.824,-3.824 -2.11,0 -3.825,1.711 -3.825,3.824 0,2.11 1.711,3.824 3.825,3.824 2.109,0 3.824,-1.71 3.824,-3.824"
     style="fill:none;stroke:#000000;stroke-width:0.95697999" />
  <path
     id="path4875"
     d="m 159.363,182.207 c 0,-2.11 -1.711,-3.824 -3.824,-3.824 -2.11,0 -3.825,1.711 -3.825,3.824 0,2.109 1.711,3.824 3.825,3.824 2.109,0 3.824,-1.711 3.824,-3.824"
     style="fill:#7e7e7e;fill-rule:evenodd;stroke:none" />
  <path
     id="path4877"
     d="m 159.363,182.207 c 0,-2.11 -1.711,-3.824 -3.824,-3.824 -2.11,0 -3.825,1.711 -3.825,3.824 0,2.109 1.711,3.824 3.825,3.824 2.109,0 3.824,-1.711 3.824,-3.824"
     style="fill:none;stroke:#000000;stroke-width:0.95697999" />
  <path
     id="path4879"
     d="m 25.4371,166.898 c 0,-2.109 -1.7109,-3.824 -3.8242,-3.824 -2.1094,0 -3.8242,1.711 -3.8242,3.824 0,2.11 1.7109,3.824 3.8242,3.824 2.1093,0 3.8242,-1.71 3.8242,-3.824"
     style="fill:#7e7e7e;fill-rule:evenodd;stroke:none" />
  <path
     id="path4881"
     d="m 25.4371,166.898 c 0,-2.109 -1.7109,-3.824 -3.8242,-3.824 -2.1094,0 -3.8242,1.711 -3.8242,3.824 0,2.11 1.7109,3.824 3.8242,3.824 2.1093,0 3.8242,-1.71 3.8242,-3.824"
     style="fill:none;stroke:#000000;stroke-width:0.95697999" />
  <path
     id="path4883"
     d="m 90.492,151.59 c 0,-2.11 -1.711,-3.824 -3.8244,-3.824 -2.1094,0 -3.8243,1.711 -3.8243,3.824 0,2.109 1.711,3.824 3.8243,3.824 2.1094,0 3.8244,-1.711 3.8244,-3.824"
     style="fill:#7e7e7e;fill-rule:evenodd;stroke:none" />
  <path
     id="path4885"
     d="m 90.492,151.59 c 0,-2.11 -1.711,-3.824 -3.8244,-3.824 -2.1094,0 -3.8243,1.711 -3.8243,3.824 0,2.109 1.711,3.824 3.8243,3.824 2.1094,0 3.8244,-1.711 3.8244,-3.824"
     style="fill:none;stroke:#000000;stroke-width:0.95697999" />
  <path
     id="path4887"
     d="m 21.6168,228.121 c 0,-2.109 -1.711,-3.824 -3.8242,-3.824 -2.1094,0 -3.8243,1.711 -3.8243,3.824 0,2.109 1.711,3.824 3.8243,3.824 2.1093,0 3.8242,-1.711 3.8242,-3.824"
     style="fill:#7e7e7e;fill-rule:evenodd;stroke:none" />
  <path
     id="path4889"
     d="m 21.6168,228.121 c 0,-2.109 -1.711,-3.824 -3.8242,-3.824 -2.1094,0 -3.8243,1.711 -3.8243,3.824 0,2.109 1.711,3.824 3.8243,3.824 2.1093,0 3.8242,-1.711 3.8242,-3.824"
     style="fill:none;stroke:#000000;stroke-width:0.95697999" />
  <path
     id="path4891"
     d="m 25.4449,243.422 c 0,-2.11 -1.7109,-3.825 -3.8242,-3.825 -2.1094,0 -3.8242,1.711 -3.8242,3.825 0,2.109 1.7109,3.824 3.8242,3.824 2.1094,0 3.8242,-1.711 3.8242,-3.824"
     style="fill:#7e7e7e;fill-rule:evenodd;stroke:none" />
  <path
     id="path4893"
     d="m 25.4449,243.422 c 0,-2.11 -1.7109,-3.825 -3.8242,-3.825 -2.1094,0 -3.8242,1.711 -3.8242,3.825 0,2.109 1.7109,3.824 3.8242,3.824 2.1094,0 3.8242,-1.711 3.8242,-3.824"
     style="fill:none;stroke:#000000;stroke-width:0.95697999" />
  <path
     id="path4895"
     d="m 35.0113,214.238 c 0,-2.109 -1.7109,-3.824 -3.8242,-3.824 -2.1094,0 -3.8242,1.711 -3.8242,3.824 0,2.109 1.7109,3.824 3.8242,3.824 2.1094,0 3.8242,-1.711 3.8242,-3.824"
     style="fill:#ff0000;fill-rule:evenodd;stroke:none" />
  <path
     id="path4897"
     d="m 35.0113,214.238 c 0,-2.109 -1.7109,-3.824 -3.8242,-3.824 -2.1094,0 -3.8242,1.711 -3.8242,3.824 0,2.109 1.7109,3.824 3.8242,3.824 2.1094,0 3.8242,-1.711 3.8242,-3.824"
     style="fill:none;stroke:#000000;stroke-width:0.95697999" />
  <path
     id="path4899"
     d="m 39.7965,244.375 c 0,-2.11 -1.711,-3.824 -3.8243,-3.824 -2.1093,0 -3.8242,1.711 -3.8242,3.824 0,2.109 1.711,3.824 3.8242,3.824 2.1094,0 3.8243,-1.711 3.8243,-3.824"
     style="fill:#7e7e7e;fill-rule:evenodd;stroke:none" />
  <path
     id="path4901"
     d="m 39.7965,244.375 c 0,-2.11 -1.711,-3.824 -3.8243,-3.824 -2.1093,0 -3.8242,1.711 -3.8242,3.824 0,2.109 1.711,3.824 3.8242,3.824 2.1094,0 3.8243,-1.711 3.8243,-3.824"
     style="fill:none;stroke:#000000;stroke-width:0.95697999" />
  <path
     id="path4903"
     d="m 144.074,243.418 c 0,-2.11 -1.711,-3.824 -3.824,-3.824 -2.11,0 -3.825,1.71 -3.825,3.824 0,2.109 1.711,3.824 3.825,3.824 2.109,0 3.824,-1.711 3.824,-3.824"
     style="fill:#7e7e7e;fill-rule:evenodd;stroke:none" />
  <path
     id="path4905"
     d="m 144.074,243.418 c 0,-2.11 -1.711,-3.824 -3.824,-3.824 -2.11,0 -3.825,1.71 -3.825,3.824 0,2.109 1.711,3.824 3.825,3.824 2.109,0 3.824,-1.711 3.824,-3.824"
     style="fill:none;stroke:#000000;stroke-width:0.95697999" />
  <path
     id="path4907"
     d="m 155.554,224.281 c 0,-2.109 -1.711,-3.824 -3.824,-3.824 -2.109,0 -3.824,1.711 -3.824,3.824 0,2.109 1.711,3.824 3.824,3.824 2.109,0 3.824,-1.711 3.824,-3.824"
     style="fill:#7e7e7e;fill-rule:evenodd;stroke:none" />
  <path
     id="path4909"
     d="m 155.554,224.281 c 0,-2.109 -1.711,-3.824 -3.824,-3.824 -2.109,0 -3.824,1.711 -3.824,3.824 0,2.109 1.711,3.824 3.824,3.824 2.109,0 3.824,-1.711 3.824,-3.824"
     style="fill:none;stroke:#000000;stroke-width:0.95697999" />
  <path
     id="path4911"
     d="m 159.386,239.586 c 0,-2.11 -1.711,-3.824 -3.824,-3.824 -2.109,0 -3.824,1.71 -3.824,3.824 0,2.109 1.711,3.824 3.824,3.824 2.109,0 3.824,-1.711 3.824,-3.824"
     style="fill:#7e7e7e;fill-rule:evenodd;stroke:none" />
  <path
     id="path4913"
     d="m 159.386,239.586 c 0,-2.11 -1.711,-3.824 -3.824,-3.824 -2.109,0 -3.824,1.71 -3.824,3.824 0,2.109 1.711,3.824 3.824,3.824 2.109,0 3.824,-1.711 3.824,-3.824"
     style="fill:none;stroke:#000000;stroke-width:0.95697999" />
  <path
     id="path4915"
     d="m 90.507,247.238 c 0,-2.109 -1.711,-3.824 -3.8238,-3.824 -2.1094,0 -3.8242,1.711 -3.8242,3.824 0,2.109 1.7109,3.824 3.8242,3.824 2.1098,0 3.8238,-1.711 3.8238,-3.824"
     style="fill:#7e7e7e;fill-rule:evenodd;stroke:none" />
  <path
     id="path4917"
     d="m 90.507,247.238 c 0,-2.109 -1.711,-3.824 -3.8238,-3.824 -2.1094,0 -3.8242,1.711 -3.8242,3.824 0,2.109 1.7109,3.824 3.8242,3.824 2.1098,0 3.8238,-1.711 3.8238,-3.824"
     style="fill:none;stroke:#000000;stroke-width:0.95697999" />
  <path
     id="path4919"
     d="m 101.992,235.754 c 0,-2.11 -1.711,-3.825 -3.824,-3.825 -2.11,0 -3.825,1.711 -3.825,3.825 0,2.109 1.711,3.824 3.825,3.824 2.109,0 3.824,-1.711 3.824,-3.824"
     style="fill:#ffa400;fill-rule:evenodd;stroke:none" />
  <path
     id="path4921"
     d="m 101.992,235.754 c 0,-2.11 -1.711,-3.825 -3.824,-3.825 -2.11,0 -3.825,1.711 -3.825,3.825 0,2.109 1.711,3.824 3.825,3.824 2.109,0 3.824,-1.711 3.824,-3.824"
     style="fill:none;stroke:#000000;stroke-width:0.95697999" />
  <path
     id="path4923"
     d="m 21.5972,105.688 c 0,-2.11 -1.7109,-3.825 -3.8242,-3.825 -2.1093,0 -3.8242,1.711 -3.8242,3.825 0,2.109 1.711,3.824 3.8242,3.824 2.1094,0 3.8242,-1.711 3.8242,-3.824"
     style="fill:#7e7e7e;fill-rule:evenodd;stroke:none" />
  <path
     id="path4925"
     d="m 21.5972,105.688 c 0,-2.11 -1.7109,-3.825 -3.8242,-3.825 -2.1093,0 -3.8242,1.711 -3.8242,3.825 0,2.109 1.711,3.824 3.8242,3.824 2.1094,0 3.8242,-1.711 3.8242,-3.824"
     style="fill:none;stroke:#000000;stroke-width:0.95697999" />
  <path
     id="path4927"
     d="m 36.9058,98.0308 c 0,-2.109 -1.7109,-3.824 -3.8242,-3.824 -2.1094,0 -3.8242,1.711 -3.8242,3.824 0,2.1102 1.7109,3.8252 3.8242,3.8252 2.1094,0 3.8242,-1.711 3.8242,-3.8252"
     style="fill:#7e7e7e;fill-rule:evenodd;stroke:none" />
  <path
     id="path4929"
     d="m 36.9058,98.0308 c 0,-2.109 -1.7109,-3.824 -3.8242,-3.824 -2.1094,0 -3.8242,1.711 -3.8242,3.824 0,2.1102 1.7109,3.8252 3.8242,3.8252 2.1094,0 3.8242,-1.711 3.8242,-3.8252"
     style="fill:none;stroke:#000000;stroke-width:0.95697999" />
  <path
     id="path4931"
     d="m 29.2535,40.6288 c 0,-2.109 -1.7109,-3.8241 -3.8242,-3.8241 -2.1094,0 -3.8242,1.7111 -3.8242,3.8241 0,2.109 1.7109,3.824 3.8242,3.824 2.1094,0 3.8242,-1.711 3.8242,-3.824"
     style="fill:#7e7e7e;fill-rule:evenodd;stroke:none" />
  <path
     id="path4933"
     d="m 29.2535,40.6288 c 0,-2.109 -1.7109,-3.8241 -3.8242,-3.8241 -2.1094,0 -3.8242,1.7111 -3.8242,3.8241 0,2.109 1.7109,3.824 3.8242,3.824 2.1094,0 3.8242,-1.711 3.8242,-3.824"
     style="fill:none;stroke:#000000;stroke-width:0.95697999" />
  <path
     id="path4935"
     d="m 48.3902,32.9727 c 0,-2.1099 -1.7109,-3.8249 -3.8242,-3.8249 -2.1094,0 -3.8242,1.7109 -3.8242,3.8249 0,2.1091 1.7109,3.8241 3.8242,3.8241 2.1094,0 3.8242,-1.711 3.8242,-3.8241"
     style="fill:#7e7e7e;fill-rule:evenodd;stroke:none" />
  <path
     id="path4937"
     d="m 48.3902,32.9727 c 0,-2.1099 -1.7109,-3.8249 -3.8242,-3.8249 -2.1094,0 -3.8242,1.7109 -3.8242,3.8249 0,2.1091 1.7109,3.8241 3.8242,3.8241 2.1094,0 3.8242,-1.711 3.8242,-3.8241"
     style="fill:none;stroke:#000000;stroke-width:0.95697999" />
  <path
     id="path4939"
     d="m 59.8746,86.5428 c 0,-2.109 -1.7109,-3.824 -3.8242,-3.824 -2.1094,0 -3.8242,1.7109 -3.8242,3.824 0,2.1089 1.7109,3.824 3.8242,3.824 2.1094,0 3.8242,-1.711 3.8242,-3.824"
     style="fill:#7e7e7e;fill-rule:evenodd;stroke:none" />
  <path
     id="path4941"
     d="m 59.8746,86.5428 c 0,-2.109 -1.7109,-3.824 -3.8242,-3.824 -2.1094,0 -3.8242,1.7109 -3.8242,3.824 0,2.1089 1.7109,3.824 3.8242,3.824 2.1094,0 3.8242,-1.711 3.8242,-3.824"
     style="fill:none;stroke:#000000;stroke-width:0.95697999" />
  <path
     id="path4943"
     d="m 147.886,90.3668 c 0,-2.109 -1.711,-3.824 -3.824,-3.824 -2.109,0 -3.824,1.711 -3.824,3.824 0,2.11 1.711,3.824 3.824,3.824 2.109,0 3.824,-1.711 3.824,-3.824"
     style="fill:#7e7e7e;fill-rule:evenodd;stroke:none" />
  <path
     id="path4945"
     d="m 147.886,90.3668 c 0,-2.109 -1.711,-3.824 -3.824,-3.824 -2.109,0 -3.824,1.711 -3.824,3.824 0,2.11 1.711,3.824 3.824,3.824 2.109,0 3.824,-1.711 3.824,-3.824"
     style="fill:none;stroke:#000000;stroke-width:0.95697999" />
  <path
     id="path4947"
     d="m 140.238,109.496 c 0,-2.109 -1.711,-3.824 -3.824,-3.824 -2.11,0 -3.825,1.711 -3.825,3.824 0,2.11 1.711,3.824 3.825,3.824 2.109,0 3.824,-1.711 3.824,-3.824"
     style="fill:#7e7e7e;fill-rule:evenodd;stroke:none" />
  <path
     id="path4949"
     d="m 140.238,109.496 c 0,-2.109 -1.711,-3.824 -3.824,-3.824 -2.11,0 -3.825,1.711 -3.825,3.824 0,2.11 1.711,3.824 3.825,3.824 2.109,0 3.824,-1.711 3.824,-3.824"
     style="fill:none;stroke:#000000;stroke-width:0.95697999" />
  <path
     id="path4951"
     d="m 155.546,21.4837 c 0,-2.1089 -1.71,-3.8239 -3.824,-3.8239 -2.109,0 -3.824,1.711 -3.824,3.8239 0,2.1101 1.711,3.8251 3.824,3.8251 2.11,0 3.824,-1.7111 3.824,-3.8251"
     style="fill:#7e7e7e;fill-rule:evenodd;stroke:none" />
  <path
     id="path4953"
     d="m 155.546,21.4837 c 0,-2.1089 -1.71,-3.8239 -3.824,-3.8239 -2.109,0 -3.824,1.711 -3.824,3.8239 0,2.1101 1.711,3.8251 3.824,3.8251 2.11,0 3.824,-1.7111 3.824,-3.8251"
     style="fill:none;stroke:#000000;stroke-width:0.95697999" />
  <path
     id="path4955"
     d="m 140.242,32.9608 c 0,-2.109 -1.711,-3.8241 -3.824,-3.8241 -2.11,0 -3.825,1.711 -3.825,3.8241 0,2.1089 1.711,3.824 3.825,3.824 2.109,0 3.824,-1.711 3.824,-3.824"
     style="fill:#7e7e7e;fill-rule:evenodd;stroke:none" />
  <path
     id="path4957"
     d="m 140.242,32.9608 c 0,-2.109 -1.711,-3.8241 -3.824,-3.8241 -2.11,0 -3.825,1.711 -3.825,3.8241 0,2.1089 1.711,3.824 3.825,3.824 2.109,0 3.824,-1.711 3.824,-3.824"
     style="fill:none;stroke:#000000;stroke-width:0.95697999" />
  <path
     id="path4959"
     d="m 159.378,48.2658 c 0,-2.11 -1.71,-3.825 -3.824,-3.825 -2.109,0 -3.824,1.7109 -3.824,3.825 0,2.109 1.711,3.824 3.824,3.824 2.11,0 3.824,-1.711 3.824,-3.824"
     style="fill:#7e7e7e;fill-rule:evenodd;stroke:none" />
  <path
     id="path4961"
     d="m 159.378,48.2658 c 0,-2.11 -1.71,-3.825 -3.824,-3.825 -2.109,0 -3.824,1.7109 -3.824,3.825 0,2.109 1.711,3.824 3.824,3.824 2.11,0 3.824,-1.711 3.824,-3.824"
     style="fill:none;stroke:#000000;stroke-width:0.95697999" />
  <path
     id="path4963"
     d="m 67.5426,113.313 c 0,-2.11 -1.711,-3.825 -3.8243,-3.825 -2.1093,0 -3.8242,1.711 -3.8242,3.825 0,2.109 1.711,3.824 3.8242,3.824 2.1094,0 3.8243,-1.711 3.8243,-3.824"
     style="fill:#7e7e7e;fill-rule:evenodd;stroke:none" />
  <path
     id="path4965"
     d="m 67.5426,113.313 c 0,-2.11 -1.711,-3.825 -3.8243,-3.825 -2.1093,0 -3.8242,1.711 -3.8242,3.825 0,2.109 1.711,3.824 3.8242,3.824 2.1094,0 3.8243,-1.711 3.8243,-3.824"
     style="fill:none;stroke:#000000;stroke-width:0.95697999" />
  <path
     id="path4967"
     d="m 112.945,72.6988 c 0,-2.109 -1.711,-3.824 -3.824,-3.824 -2.11,0 -3.825,1.711 -3.825,3.824 0,2.11 1.711,3.824 3.825,3.824 2.109,0 3.824,-1.71 3.824,-3.824"
     style="fill:#7e7e7e;fill-rule:evenodd;stroke:none" />
  <path
     id="path4969"
     d="m 112.945,72.6988 c 0,-2.109 -1.711,-3.824 -3.824,-3.824 -2.11,0 -3.825,1.711 -3.825,3.824 0,2.11 1.711,3.824 3.825,3.824 2.109,0 3.824,-1.71 3.824,-3.824"
     style="fill:none;stroke:#000000;stroke-width:0.95697999" />
  <path
     id="path4971"
     d="m 121.082,98.0588 c 0,-2.11 -1.711,-3.8251 -3.825,-3.8251 -2.109,0 -3.824,1.711 -3.824,3.8251 0,2.1092 1.711,3.8242 3.824,3.8242 2.11,0 3.825,-1.711 3.825,-3.8242"
     style="fill:#7e7e7e;fill-rule:evenodd;stroke:none" />
  <path
     id="path4973"
     d="m 121.082,98.0588 c 0,-2.11 -1.711,-3.8251 -3.825,-3.8251 -2.109,0 -3.824,1.711 -3.824,3.8251 0,2.1092 1.711,3.8242 3.824,3.8242 2.11,0 3.825,-1.711 3.825,-3.8242"
     style="fill:none;stroke:#000000;stroke-width:0.95697999" />
  <path
     id="path4975"
     d="m 94.285,47.8158 c 0,-2.109 -1.711,-3.824 -3.824,-3.824 -2.11,0 -3.8247,1.711 -3.8247,3.824 0,2.11 1.7107,3.825 3.8247,3.825 2.109,0 3.824,-1.7111 3.824,-3.825"
     style="fill:#7e7e7e;fill-rule:evenodd;stroke:none" />
  <path
     id="path4977"
     d="m 94.285,47.8158 c 0,-2.109 -1.711,-3.824 -3.824,-3.824 -2.11,0 -3.8247,1.711 -3.8247,3.824 0,2.11 1.7107,3.825 3.8247,3.825 2.109,0 3.824,-1.7111 3.824,-3.825"
     style="fill:none;stroke:#000000;stroke-width:0.95697999" />
  <path
     id="path4979"
     d="m 47.3941,44.9447 c 0,-2.1089 -1.7109,-3.8239 -3.8242,-3.8239 -2.1094,0 -3.8242,1.711 -3.8242,3.8239 0,2.11 1.7109,3.8251 3.8242,3.8251 2.1094,0 3.8242,-1.711 3.8242,-3.8251"
     style="fill:#7e7e7e;fill-rule:evenodd;stroke:none" />
  <path
     id="path4981"
     d="m 47.3941,44.9447 c 0,-2.1089 -1.7109,-3.8239 -3.8242,-3.8239 -2.1094,0 -3.8242,1.711 -3.8242,3.8239 0,2.11 1.7109,3.8251 3.8242,3.8251 2.1094,0 3.8242,-1.711 3.8242,-3.8251"
     style="fill:none;stroke:#000000;stroke-width:0.95697999" />
  <path
     id="path4983"
     d="m 63.1832,55.9488 c 0,-2.109 -1.711,-3.824 -3.8242,-3.824 -2.1094,0 -3.8242,1.711 -3.8242,3.824 0,2.11 1.7109,3.824 3.8242,3.824 2.1093,0 3.8242,-1.71 3.8242,-3.824"
     style="fill:#7e7e7e;fill-rule:evenodd;stroke:none" />
  <path
     id="path4985"
     d="m 63.1832,55.9488 c 0,-2.109 -1.711,-3.824 -3.8242,-3.824 -2.1094,0 -3.8242,1.711 -3.8242,3.824 0,2.11 1.7109,3.824 3.8242,3.824 2.1093,0 3.8242,-1.71 3.8242,-3.824"
     style="fill:none;stroke:#000000;stroke-width:0.95697999" />
  <path
     id="path4987"
     d="m 80.8863,31.0697 c 0,-2.1089 -1.7109,-3.8239 -3.8242,-3.8239 -2.1094,0 -3.8242,1.711 -3.8242,3.8239 0,2.11 1.7109,3.8251 3.8242,3.8251 2.1094,0 3.8242,-1.711 3.8242,-3.8251"
     style="fill:#7e7e7e;fill-rule:evenodd;stroke:none" />
  <path
     id="path4989"
     d="m 80.8863,31.0697 c 0,-2.1089 -1.7109,-3.8239 -3.8242,-3.8239 -2.1094,0 -3.8242,1.711 -3.8242,3.8239 0,2.11 1.7109,3.8251 3.8242,3.8251 2.1094,0 3.8242,-1.711 3.8242,-3.8251"
     style="fill:none;stroke:#000000;stroke-width:0.95697999" />
  <path
     id="path4991"
     d="m 111.988,43.9878 c 0,-2.109 -1.711,-3.824 -3.824,-3.824 -2.11,0 -3.825,1.711 -3.825,3.824 0,2.1099 1.711,3.825 3.825,3.825 2.109,0 3.824,-1.711 3.824,-3.825"
     style="fill:#7e7e7e;fill-rule:evenodd;stroke:none" />
  <path
     id="path4993"
     d="m 111.988,43.9878 c 0,-2.109 -1.711,-3.824 -3.824,-3.824 -2.11,0 -3.825,1.711 -3.825,3.824 0,2.1099 1.711,3.825 3.825,3.825 2.109,0 3.824,-1.711 3.824,-3.825"
     style="fill:none;stroke:#000000;stroke-width:0.95697999" />
  <path
     id="path4995"
     d="m 93.804,93.7498 c 0,-2.109 -1.711,-3.824 -3.824,-3.824 -2.109,0 -3.8242,1.7109 -3.8242,3.824 0,2.1089 1.7112,3.824 3.8242,3.824 2.109,0 3.824,-1.711 3.824,-3.824"
     style="fill:#7e7e7e;fill-rule:evenodd;stroke:none" />
  <path
     id="path4997"
     d="m 93.804,93.7498 c 0,-2.109 -1.711,-3.824 -3.824,-3.824 -2.109,0 -3.8242,1.7109 -3.8242,3.824 0,2.1089 1.7112,3.824 3.8242,3.824 2.109,0 3.824,-1.711 3.824,-3.824"
     style="fill:none;stroke:#000000;stroke-width:0.95697999" />
  <path
     id="path4999"
     d="m 78.9722,85.6168 c 0,-2.109 -1.7109,-3.824 -3.8242,-3.824 -2.1093,0 -3.8242,1.711 -3.8242,3.824 0,2.11 1.711,3.824 3.8242,3.824 2.1094,0 3.8242,-1.711 3.8242,-3.824"
     style="fill:#7e7e7e;fill-rule:evenodd;stroke:none" />
  <path
     id="path5001"
     d="m 78.9722,85.6168 c 0,-2.109 -1.7109,-3.824 -3.8242,-3.824 -2.1093,0 -3.8242,1.711 -3.8242,3.824 0,2.11 1.711,3.824 3.8242,3.824 2.1094,0 3.8242,-1.711 3.8242,-3.824"
     style="fill:none;stroke:#000000;stroke-width:0.95697999" />
  <path
     id="path5003"
     d="m 99.07,67.4338 c 0,-2.11 -1.711,-3.8251 -3.824,-3.8251 -2.11,0 -3.825,1.711 -3.825,3.8251 0,2.109 1.711,3.824 3.825,3.824 2.109,0 3.824,-1.711 3.824,-3.824"
     style="fill:#7e7e7e;fill-rule:evenodd;stroke:none" />
  <path
     id="path5005"
     d="m 99.07,67.4338 c 0,-2.11 -1.711,-3.8251 -3.824,-3.8251 -2.11,0 -3.825,1.711 -3.825,3.8251 0,2.109 1.711,3.824 3.825,3.824 2.109,0 3.824,-1.711 3.824,-3.824"
     style="fill:none;stroke:#000000;stroke-width:0.95697999" />
  <path
     id="path5007"
     d="m 129.695,86.5738 c 0,-2.109 -1.711,-3.824 -3.824,-3.824 -2.11,0 -3.825,1.711 -3.825,3.824 0,2.11 1.711,3.824 3.825,3.824 2.109,0 3.824,-1.71 3.824,-3.824"
     style="fill:#7e7e7e;fill-rule:evenodd;stroke:none" />
  <path
     id="path5009"
     d="m 129.695,86.5738 c 0,-2.109 -1.711,-3.824 -3.824,-3.824 -2.11,0 -3.825,1.711 -3.825,3.824 0,2.11 1.711,3.824 3.825,3.824 2.109,0 3.824,-1.71 3.824,-3.824"
     style="fill:none;stroke:#000000;stroke-width:0.95697999" />
  <path
     id="path5011"
     d="m 130.652,22.4568 c 0,-2.1091 -1.711,-3.824 -3.824,-3.824 -2.11,0 -3.824,1.711 -3.824,3.824 0,2.109 1.71,3.824 3.824,3.824 2.109,0 3.824,-1.7111 3.824,-3.824"
     style="fill:#7e7e7e;fill-rule:evenodd;stroke:none" />
  <path
     id="path5013"
     d="m 130.652,22.4568 c 0,-2.1091 -1.711,-3.824 -3.824,-3.824 -2.11,0 -3.824,1.711 -3.824,3.824 0,2.109 1.71,3.824 3.824,3.824 2.109,0 3.824,-1.7111 3.824,-3.824"
     style="fill:none;stroke:#000000;stroke-width:0.95697999" />
  <path
     id="path5015"
     d="m 145.484,43.5117 c 0,-2.11 -1.711,-3.8239 -3.824,-3.8239 -2.11,0 -3.824,1.71 -3.824,3.8239 0,2.1091 1.71,3.8241 3.824,3.8241 2.109,0 3.824,-1.711 3.824,-3.8241"
     style="fill:#7e7e7e;fill-rule:evenodd;stroke:none" />
  <path
     id="path5017"
     d="m 145.484,43.5117 c 0,-2.11 -1.711,-3.8239 -3.824,-3.8239 -2.11,0 -3.824,1.71 -3.824,3.8239 0,2.1091 1.71,3.8241 3.824,3.8241 2.109,0 3.824,-1.711 3.824,-3.8241"
     style="fill:none;stroke:#000000;stroke-width:0.95697999" />
  <path
     id="path5019"
     d="m 125.867,35.3748 c 0,-2.109 -1.711,-3.824 -3.824,-3.824 -2.11,0 -3.825,1.7109 -3.825,3.824 0,2.1089 1.711,3.824 3.825,3.824 2.109,0 3.824,-1.711 3.824,-3.824"
     style="fill:#7e7e7e;fill-rule:evenodd;stroke:none" />
  <path
     id="path5021"
     d="m 125.867,35.3748 c 0,-2.109 -1.711,-3.824 -3.824,-3.824 -2.11,0 -3.825,1.7109 -3.825,3.824 0,2.1089 1.711,3.824 3.825,3.824 2.109,0 3.824,-1.711 3.824,-3.824"
     style="fill:none;stroke:#000000;stroke-width:0.95697999" />
  <path
     id="path5023"
     d="m 26.8199,58.8197 c 0,-2.1089 -1.7109,-3.8239 -3.8242,-3.8239 -2.1094,0 -3.8242,1.711 -3.8242,3.8239 0,2.11 1.7109,3.8251 3.8242,3.8251 2.1094,0 3.8242,-1.711 3.8242,-3.8251"
     style="fill:#7e7e7e;fill-rule:evenodd;stroke:none" />
  <path
     id="path5025"
     d="m 26.8199,58.8197 c 0,-2.1089 -1.7109,-3.8239 -3.8242,-3.8239 -2.1094,0 -3.8242,1.711 -3.8242,3.8239 0,2.11 1.7109,3.8251 3.8242,3.8251 2.1094,0 3.8242,-1.711 3.8242,-3.8251"
     style="fill:none;stroke:#000000;stroke-width:0.95697999" />
  <path
     id="path5027"
     d="m 61.7496,102.363 c 0,-2.109 -1.7109,-3.8242 -3.8242,-3.8242 -2.1094,0 -3.8242,1.7112 -3.8242,3.8242 0,2.11 1.7109,3.825 3.8242,3.825 2.1094,0 3.8242,-1.711 3.8242,-3.825"
     style="fill:#7e7e7e;fill-rule:evenodd;stroke:none" />
  <path
     id="path5029"
     d="m 61.7496,102.363 c 0,-2.109 -1.7109,-3.8242 -3.8242,-3.8242 -2.1094,0 -3.8242,1.7112 -3.8242,3.8242 0,2.11 1.7109,3.825 3.8242,3.825 2.1094,0 3.8242,-1.711 3.8242,-3.825"
     style="fill:none;stroke:#000000;stroke-width:0.95697999" />
  <path
     id="path5031"
     d="m 64.1402,71.7418 c 0,-2.109 -1.7109,-3.824 -3.8242,-3.824 -2.1094,0 -3.8242,1.711 -3.8242,3.824 0,2.11 1.7109,3.824 3.8242,3.824 2.1094,0 3.8242,-1.71 3.8242,-3.824"
     style="fill:#7e7e7e;fill-rule:evenodd;stroke:none" />
  <path
     id="path5033"
     d="m 64.1402,71.7418 c 0,-2.109 -1.7109,-3.824 -3.8242,-3.824 -2.1094,0 -3.8242,1.711 -3.8242,3.824 0,2.11 1.7109,3.824 3.8242,3.824 2.1094,0 3.8242,-1.71 3.8242,-3.824"
     style="fill:none;stroke:#000000;stroke-width:0.95697999" />
  <path
     id="path5035"
     d="m 91.894,112.41 c 0,-2.109 -1.711,-3.824 -3.824,-3.824 -2.1095,0 -3.8243,1.711 -3.8243,3.824 0,2.11 1.7109,3.824 3.8243,3.824 2.109,0 3.824,-1.711 3.824,-3.824"
     style="fill:#7e7e7e;fill-rule:evenodd;stroke:none" />
  <path
     id="path5037"
     d="m 91.894,112.41 c 0,-2.109 -1.711,-3.824 -3.824,-3.824 -2.1095,0 -3.8243,1.711 -3.8243,3.824 0,2.11 1.7109,3.824 3.8243,3.824 2.109,0 3.824,-1.711 3.824,-3.824"
     style="fill:none;stroke:#000000;stroke-width:0.95697999" />
  <path
     id="path5039"
     d="m 76.1012,53.5588 c 0,-2.11 -1.711,-3.8251 -3.8243,-3.8251 -2.1093,0 -3.8242,1.711 -3.8242,3.8251 0,2.109 1.711,3.824 3.8242,3.824 2.1094,0 3.8243,-1.711 3.8243,-3.824"
     style="fill:#7e7e7e;fill-rule:evenodd;stroke:none" />
  <path
     id="path5041"
     d="m 76.1012,53.5588 c 0,-2.11 -1.711,-3.8251 -3.8243,-3.8251 -2.1093,0 -3.8242,1.711 -3.8242,3.8251 0,2.109 1.711,3.824 3.8242,3.824 2.1094,0 3.8243,-1.711 3.8243,-3.824"
     style="fill:none;stroke:#000000;stroke-width:0.95697999" />
  <path
     id="path5043"
     d="m 116.773,110.02 c 0,-2.11 -1.711,-3.825 -3.824,-3.825 -2.11,0 -3.824,1.711 -3.824,3.825 0,2.109 1.711,3.824 3.824,3.824 2.109,0 3.824,-1.711 3.824,-3.824"
     style="fill:#7e7e7e;fill-rule:evenodd;stroke:none" />
  <path
     id="path5045"
     d="m 116.773,110.02 c 0,-2.11 -1.711,-3.825 -3.824,-3.825 -2.11,0 -3.824,1.711 -3.824,3.825 0,2.109 1.711,3.824 3.824,3.824 2.109,0 3.824,-1.711 3.824,-3.824"
     style="fill:none;stroke:#000000;stroke-width:0.95697999" />
  <path
     id="path5047"
     d="m 152.183,103.801 c 0,-2.11 -1.711,-3.8242 -3.824,-3.8242 -2.109,0 -3.824,1.7112 -3.824,3.8242 0,2.109 1.711,3.824 3.824,3.824 2.109,0 3.824,-1.711 3.824,-3.824"
     style="fill:#7e7e7e;fill-rule:evenodd;stroke:none" />
  <path
     id="path5049"
     d="m 152.183,103.801 c 0,-2.11 -1.711,-3.8242 -3.824,-3.8242 -2.109,0 -3.824,1.7112 -3.824,3.8242 0,2.109 1.711,3.824 3.824,3.824 2.109,0 3.824,-1.711 3.824,-3.824"
     style="fill:none;stroke:#000000;stroke-width:0.95697999" />
  <path
     id="path5051"
     d="m 29.2496,82.7188 c 0,-2.1101 -1.7109,-3.824 -3.8242,-3.824 -2.1094,0 -3.8242,1.711 -3.8242,3.824 0,2.109 1.7109,3.824 3.8242,3.824 2.1094,0 3.8242,-1.711 3.8242,-3.824"
     style="fill:#7e7e7e;fill-rule:evenodd;stroke:none" />
  <path
     id="path5053"
     d="m 29.2496,82.7188 c 0,-2.1101 -1.7109,-3.824 -3.8242,-3.824 -2.1094,0 -3.8242,1.711 -3.8242,3.824 0,2.109 1.7109,3.824 3.8242,3.824 2.1094,0 3.8242,-1.711 3.8242,-3.824"
     style="fill:none;stroke:#000000;stroke-width:0.95697999" />
  <path
     id="path5055"
     d="m 45.9957,108.559 c 0,-2.11 -1.7109,-3.825 -3.8242,-3.825 -2.1094,0 -3.8243,1.711 -3.8243,3.825 0,2.109 1.711,3.824 3.8243,3.824 2.1093,0 3.8242,-1.711 3.8242,-3.824"
     style="fill:#7e7e7e;fill-rule:evenodd;stroke:none" />
  <path
     id="path5057"
     d="m 45.9957,108.559 c 0,-2.11 -1.7109,-3.825 -3.8242,-3.825 -2.1094,0 -3.8243,1.711 -3.8243,3.825 0,2.109 1.711,3.824 3.8243,3.824 2.1093,0 3.8242,-1.711 3.8242,-3.824"
     style="fill:none;stroke:#000000;stroke-width:0.95697999" />
  <path
     id="path5059"
     d="m 22.5699,179.332 c 0,-2.11 -1.7109,-3.824 -3.8242,-3.824 -2.1094,0 -3.8242,1.711 -3.8242,3.824 0,2.109 1.7109,3.824 3.8242,3.824 2.1094,0 3.8242,-1.711 3.8242,-3.824"
     style="fill:#7e7e7e;fill-rule:evenodd;stroke:none" />
  <path
     id="path5061"
     d="m 22.5699,179.332 c 0,-2.11 -1.7109,-3.824 -3.8242,-3.824 -2.1094,0 -3.8242,1.711 -3.8242,3.824 0,2.109 1.7109,3.824 3.8242,3.824 2.1094,0 3.8242,-1.711 3.8242,-3.824"
     style="fill:none;stroke:#000000;stroke-width:0.95697999" />
  <path
     id="path5063"
     d="m 19.7027,193.679 c 0,-2.109 -1.7109,-3.824 -3.8242,-3.824 -2.1094,0 -3.8242,1.711 -3.8242,3.824 0,2.11 1.7109,3.825 3.8242,3.825 2.1094,0 3.8242,-1.711 3.8242,-3.825"
     style="fill:#7e7e7e;fill-rule:evenodd;stroke:none" />
  <path
     id="path5065"
     d="m 19.7027,193.679 c 0,-2.109 -1.7109,-3.824 -3.8242,-3.824 -2.1094,0 -3.8242,1.711 -3.8242,3.824 0,2.11 1.7109,3.825 3.8242,3.825 2.1094,0 3.8242,-1.711 3.8242,-3.825"
     style="fill:none;stroke:#000000;stroke-width:0.95697999" />
  <path
     id="path5067"
     d="m 21.6168,214.722 c 0,-2.109 -1.711,-3.824 -3.8242,-3.824 -2.1094,0 -3.8243,1.711 -3.8243,3.824 0,2.11 1.711,3.825 3.8243,3.825 2.1093,0 3.8242,-1.711 3.8242,-3.825"
     style="fill:#7e7e7e;fill-rule:evenodd;stroke:none" />
  <path
     id="path5069"
     d="m 21.6168,214.722 c 0,-2.109 -1.711,-3.824 -3.8242,-3.824 -2.1094,0 -3.8243,1.711 -3.8243,3.824 0,2.11 1.711,3.825 3.8243,3.825 2.1093,0 3.8242,-1.711 3.8242,-3.825"
     style="fill:none;stroke:#000000;stroke-width:0.95697999" />
  <path
     id="path5071"
     d="m 132.589,153.496 c 0,-2.109 -1.711,-3.824 -3.824,-3.824 -2.109,0 -3.824,1.711 -3.824,3.824 0,2.11 1.711,3.824 3.824,3.824 2.11,0 3.824,-1.711 3.824,-3.824"
     style="fill:#7e7e7e;fill-rule:evenodd;stroke:none" />
  <path
     id="path5073"
     d="m 132.589,153.496 c 0,-2.109 -1.711,-3.824 -3.824,-3.824 -2.109,0 -3.824,1.711 -3.824,3.824 0,2.11 1.711,3.824 3.824,3.824 2.11,0 3.824,-1.711 3.824,-3.824"
     style="fill:none;stroke:#000000;stroke-width:0.95697999" />
  <path
     id="path5075"
     d="m 131.64,248.199 c 0,-2.109 -1.711,-3.824 -3.824,-3.824 -2.109,0 -3.824,1.711 -3.824,3.824 0,2.109 1.711,3.824 3.824,3.824 2.109,0 3.824,-1.711 3.824,-3.824"
     style="fill:#7e7e7e;fill-rule:evenodd;stroke:none" />
  <path
     id="path5077"
     d="m 131.64,248.199 c 0,-2.109 -1.711,-3.824 -3.824,-3.824 -2.109,0 -3.824,1.711 -3.824,3.824 0,2.109 1.711,3.824 3.824,3.824 2.109,0 3.824,-1.711 3.824,-3.824"
     style="fill:none;stroke:#000000;stroke-width:0.95697999" />
  <text
     xml:space="preserve"
     style="font-size:12px;font-style:normal;font-variant:normal;font-weight:normal;font-stretch:normal;text-indent:0;text-align:start;text-decoration:none;line-height:normal;letter-spacing:normal;word-spacing:normal;text-transform:none;direction:ltr;block-progression:tb;writing-mode:lr-tb;text-anchor:start;color:#000000;fill:#000000;fill-opacity:1;fill-rule:nonzero;stroke:none;stroke-width:1px;marker:none;visibility:visible;display:inline;overflow:visible;enable-background:accumulate;font-family:Bitstream Vera Sans;-inkscape-font-specification:Bitstream Vera Sans"
     x="15.161529"
     y="23.023064"
     id="text5312"><tspan
       sodipodi:role="line"
       id="tspan5314"
       x="15.161529"
       y="23.023064">Cerebellum</tspan></text>
</svg>
