<?xml version="1.0" encoding="ISO-8859-1" standalone="yes"?>
<svg width="469.735" height="223.81">
  <defs> 
    <marker id="ArrowEnd" viewBox="0 0 10 10" refX="0" refY="5" 
     markerUnits="strokeWidth" 
     markerWidth="4" 
     markerHeight="3" 
     orient="auto"> 
        <path d="M 0 0 L 10 5 L 0 10 z" /> 
    </marker>
    <marker id="ArrowStart" viewBox="0 0 10 10" refX="10" refY="5" 
     markerUnits="strokeWidth" 
     markerWidth="4" 
     markerHeight="3" 
     orient="auto"> 
        <path d="M 10 0 L 0 5 L 10 10 z" /> 
    </marker> </defs>
<g>
<path style="stroke:none; fill-rule:evenodd; fill:#ffffff" d="M 0.524084 223.286L 465.169 223.286L 465.169 0.524078L 0.524084 0.524078L 0.524084 223.286z"/>
<path style="stroke:#ffffff; stroke-width:0.10000000000000001; fill:none" d="M 0.524084 223.286L 465.169 223.286L 465.169 0.524078L 0.524084 0.524078L 0.524084 223.286z"/>
<path style="stroke:#00ff00; stroke-dasharray:6,3; stroke-width:2.8699499999999998; fill:none" d="M 300.911 142.911L 385.095 75.9461"/>
<path style="stroke:#00ff00; stroke-dasharray:6,3; stroke-width:2.8699499999999998; fill:none" d="M 195.68 142.911L 279.864 75.9461"/>
<path style="stroke:none; fill-rule:evenodd; fill:#ffffff" d="M 356.399 125.692L 387.009 125.692L 387.009 87.4261L 356.399 87.4261L 356.399 125.692z"/>
<path style="stroke:#000000; stroke-width:1.9133; fill:none" d="M 356.399 125.692L 387.009 125.692L 387.009 87.4261L 356.399 87.4261L 356.399 125.692z"/>
<path style="stroke:none; fill-rule:evenodd; fill:#ffffff" d="M 251.165 125.692L 281.774 125.692L 281.774 87.4261L 251.165 87.4261L 251.165 125.692z"/>
<path style="stroke:#000000; stroke-width:1.9133; fill:none" d="M 251.165 125.692L 281.774 125.692L 281.774 87.4261L 251.165 87.4261L 251.165 125.692z"/>
<path style="stroke:none; fill-rule:evenodd; fill:#ffffff" d="M 281.778 125.692L 343.001 125.692L 343.001 87.4261L 281.778 87.4261L 281.778 125.692z"/>
<path style="stroke:#000000; stroke-width:1.9133; fill:none" d="M 281.778 125.692L 343.001 125.692L 343.001 87.4261L 281.778 87.4261L 281.778 125.692z"/>
<path style="stroke:none; fill-rule:evenodd; fill:#ffffff" d="M 387.009 125.692L 448.231 125.692L 448.231 87.4261L 387.009 87.4261L 387.009 125.692z"/>
<path style="stroke:#000000; stroke-width:1.9133; fill:none" d="M 387.009 125.692L 448.231 125.692L 448.231 87.4261L 387.009 87.4261L 387.009 125.692z"/>
<path style="stroke:#00ff00; stroke-dasharray:6,3; stroke-width:2.8699499999999998; fill:none" d="M 90.4499 142.911L 174.634 75.9461"/>
<path style="stroke:none; fill-rule:evenodd; fill:#000000" d="M 52.5241 93.0431L 58.5358 93.0431L 58.5358 92.4461L 52.5241 92.4461L 52.5241 93.0431z"/>
<path style="stroke:none; fill-rule:evenodd; fill:#000000" d="M 92.1999 89.6251L 91.6022 89.6251L 91.6022 92.3441L 88.821 92.3441L 88.821 92.9421L 91.6022 92.9421L 91.6022 95.7391L 92.1999 95.7391L 92.1999 92.9421L 94.8874 92.9421L 94.8874 92.3441L 92.1999 92.3441L 92.1999 89.6251z"/>
<path style="stroke:none; fill-rule:evenodd; fill:#ffffff" d="M 71.3171 125.692L 132.54 125.692L 132.54 87.4261L 71.3171 87.4261L 71.3171 125.692z"/>
<path style="stroke:#000000; stroke-width:1.9133; fill:none" d="M 71.3171 125.692L 132.54 125.692L 132.54 87.4261L 71.3171 87.4261L 71.3171 125.692z"/>
<path style="stroke:none; fill-rule:evenodd; fill:#000000" d="M 81.5241 107.293L 80.2507 111.246L 79.9069 109.477C 79.5632 107.719 79.196 107.145 78.4265 107.145C 78.0827 107.145 77.7741 107.305 77.5905 107.571C 77.3405 107.926 77.2819 108.215 77.2585 109.184L 77.2585 109.332L 77.5085 109.332C 77.528 109.012 77.5515 108.832 77.5983 108.664C 77.7233 108.282 77.9968 108.043 78.3288 108.043C 78.6374 108.043 78.8561 108.239 79.071 108.711C 79.3444 109.309 79.6413 110.364 79.7585 111.219L 79.8952 112.176C 79.864 112.289 79.7351 112.661 79.5163 113.286C 79.2897 113.918 79.2194 114.254 79.2194 114.649C 79.2194 115.192 79.4577 115.547 79.8249 115.547C 80.2937 115.547 80.6022 114.961 80.6022 114.043C 80.6022 113.688 80.5476 113.137 80.4108 112.274L 82.739 107.289L 81.5241 107.293z"/>
<path style="stroke:none; fill-rule:evenodd; fill:#000000" d="M 104.227 111.641L 101.899 111.641L 101.899 109.301L 101.102 109.301L 101.102 111.641L 98.6769 111.641L 98.6769 112.438L 101.102 112.438L 101.102 114.852L 101.899 114.852L 101.899 112.438L 104.227 112.438L 104.227 111.641z"/>
<path style="stroke:none; fill-rule:evenodd; fill:#000000" d="M 86.7976 193.172L 86.7976 198.938L 87.7976 198.938L 87.7976 190.84L 87.1296 190.84C 86.7741 192.082 86.5437 192.254 84.9733 192.45L 84.9733 193.168L 86.7976 193.172z"/>
<path style="stroke:#000000; stroke-width:1.9133; fill:none" d="M 92.364 85.5121C 92.364 85.5121 92.364 85.5121 90.7702 82.9611C 89.1765 80.4111 85.989 75.3091 80.8874 72.7581C 75.7858 70.2071 68.7702 70.2071 63.6687 72.7581C 58.5671 75.3091 55.3796 80.4111 53.7858 82.9611C 52.1921 85.5121 52.1921 85.5121 52.1921 85.5121"/>
<path style="stroke:#000000; stroke-width:1.9133; fill:none" d="M 57.8601 80.0361L 52.1843 85.5081L 54.6179 78.0041"/>
<path style="stroke:none; fill-rule:evenodd; fill:#ffffff" d="M 67.489 77.8481L 77.0554 77.8481L 77.0554 64.4571L 67.489 64.4571L 67.489 77.8481z"/>
<path style="stroke:#ffffff; stroke-width:0.0; fill:none" d="M 67.489 77.8481L 77.0554 77.8481L 77.0554 64.4571L 67.489 64.4571L 67.489 77.8481z"/>
<path style="stroke:none; fill-rule:evenodd; fill:#000000" d="M 72.8288 68.0121C 72.1491 68.2271 71.7585 68.3991 71.364 68.6681C 70.5007 69.2701 70.0046 70.2111 70.0046 71.2151C 70.0046 72.8091 71.2546 74.1371 72.7663 74.1371C 74.4069 74.1371 75.8015 72.6291 75.8015 70.8681C 75.8015 70.0161 75.5124 69.1841 74.9694 68.5321C 74.5085 67.9731 74.2976 67.8131 73.1101 67.0901C 71.8835 66.3321 71.4069 65.8641 71.4069 65.4341C 71.4069 64.9961 71.8327 64.6491 72.3522 64.6491C 72.8288 64.6491 73.1218 64.7891 73.6179 65.2781C 74.1608 65.8171 74.3483 65.9341 74.6804 65.9341C 75.0397 65.9341 75.3054 65.6841 75.3054 65.3641C 75.3054 64.6451 74.1374 64.0471 72.7272 64.0471C 71.4655 64.0471 70.6999 64.5551 70.6999 65.3711C 70.6999 65.8521 70.9147 66.2431 71.5046 66.7931L 72.8288 68.0121zM 73.1921 68.3441C 74.0749 69.1961 74.4968 70.1451 74.4968 71.3091C 74.4968 72.6331 73.8796 73.5391 72.9538 73.5391C 72.0319 73.5391 71.3991 72.4851 71.3991 70.9301C 71.3991 69.4691 71.9929 68.6021 73.1921 68.3441z"/>
<path style="stroke:none; fill-rule:evenodd; fill:#000000" d="M 86.9577 100.942L 85.2038 105.262L 85.9929 105.262L 87.3796 101.852L 88.778 105.262L 89.5671 105.262L 87.7897 100.942L 86.9577 100.942z"/>
<path style="stroke:none; fill-rule:evenodd; fill:#000000" d="M 87.2976 114.743L 90.1999 106.344L 89.0671 106.344L 86.7507 113.457L 84.2976 106.344L 83.153 106.344L 86.1569 114.743L 87.2976 114.743z"/>
<path style="stroke:none; fill-rule:evenodd; fill:#000000" d="M 90.9968 114.301L 90.9968 119.141L 91.7937 119.141L 91.7937 112.344L 91.2429 112.344C 90.9499 113.387 90.7624 113.532 89.4733 113.696L 89.4733 114.297L 90.9968 114.301z"/>
<path style="stroke:#000000; stroke-width:1.9133; fill:none" d="M 86.6179 152.469L 86.6179 125.684"/>
<path style="stroke:#000000; stroke-width:1.9133; fill:none" d="M 84.7038 133.336L 86.614 125.684L 88.5241 133.336"/>
<path style="stroke:none; fill-rule:evenodd; fill:#5f5f5f" d="M 86.653 148.622L 90.4772 148.622L 90.4772 137.141L 86.653 137.141L 86.653 148.622z"/>
<path style="stroke:#000000; stroke-width:0.95664899999999997; fill:none" d="M 86.653 148.622L 90.4772 148.622L 90.4772 137.141L 86.653 137.141L 86.653 148.622z"/>
<path style="stroke:#000000; stroke-width:1.9133; fill:none" d="M 40.7038 125.692L 71.3132 125.692L 71.3132 87.4261L 40.7038 87.4261L 40.7038 125.692z"/>
<path style="stroke:#000000; stroke-width:1.9133; fill:none" d="M 40.7038 181.176L 134.454 181.176L 134.454 152.477L 40.7038 152.477L 40.7038 181.176z"/>
<path style="stroke:none; fill-rule:evenodd; fill:#7e7e7e" d="M 114.2 108.715L 114.2 114.739L 115.2 114.739L 115.2 111.606C 115.2 110.743 115.411 110.18 115.86 109.844C 116.149 109.625 116.43 109.559 117.083 109.547L 117.083 108.582C 116.927 108.563 116.848 108.551 116.723 108.551C 116.114 108.551 115.649 108.918 115.102 109.813L 115.102 108.723L 114.2 108.715z"/>
<path style="stroke:none; fill-rule:evenodd; fill:#7e7e7e" d="M 119.7 114.301L 119.7 119.141L 120.497 119.141L 120.497 112.344L 119.946 112.344C 119.653 113.387 119.466 113.532 118.177 113.696L 118.177 114.297L 119.7 114.301z"/>
<path style="stroke:none; fill-rule:evenodd; fill:#000000" d="M 51.2976 162.43C 51.2897 160.793 50.1687 159.844 48.2546 159.844C 46.4304 159.844 45.3015 160.793 45.3015 162.321C 45.3015 163.348 45.8327 164 46.9226 164.289L 48.9772 164.844C 50.0202 165.122 50.4968 165.547 50.4968 166.207C 50.4968 166.657 50.2585 167.122 49.9108 167.375C 49.5827 167.606 49.0632 167.731 48.3952 167.731C 47.5007 167.731 46.8913 167.504 46.4968 167.004C 46.1921 166.625 46.0554 166.207 46.1061 165.668L 45.1061 165.668C 45.114 166.446 45.2624 166.957 45.5905 167.422C 46.1569 168.211 47.1101 168.629 48.3679 168.629C 49.3522 168.629 50.1569 168.403 50.6921 167.985C 51.2468 167.539 51.5983 166.789 51.5983 166.063C 51.5983 165.028 50.9655 164.27 49.8405 163.957L 47.7663 163.395C 46.7702 163.122 46.4069 162.797 46.4069 162.153C 46.4069 161.301 47.1413 160.735 48.2468 160.735C 49.5554 160.735 50.2897 161.336 50.3015 162.422L 51.2976 162.43z"/>
<path style="stroke:none; fill-rule:evenodd; fill:#000000" d="M 54.6999 167.899L 54.6999 172.739L 55.4968 172.739L 55.4968 165.942L 54.946 165.942C 54.653 166.985 54.4655 167.129 53.1765 167.293L 53.1765 167.895L 54.6999 167.899z"/>
<path style="stroke:#000000; stroke-width:1.9133; fill:none" d="M 197.595 85.5121C 197.595 85.5121 197.595 85.5121 196.001 82.9611C 194.407 80.4111 191.22 75.3091 186.118 72.7581C 181.016 70.2071 174.001 70.2071 168.899 72.7581C 163.798 75.3091 160.61 80.4111 159.016 82.9611C 157.423 85.5121 157.423 85.5121 157.423 85.5121"/>
<path style="stroke:#000000; stroke-width:1.9133; fill:none" d="M 163.095 80.0361L 157.419 85.5081L 159.852 78.0041"/>
<path style="stroke:none; fill-rule:evenodd; fill:#ffffff" d="M 172.72 77.8481L 182.286 77.8481L 182.286 64.4571L 172.72 64.4571L 172.72 77.8481z"/>
<path style="stroke:#ffffff; stroke-width:0.0; fill:none" d="M 172.72 77.8481L 182.286 77.8481L 182.286 64.4571L 172.72 64.4571L 172.72 77.8481z"/>
<path style="stroke:none; fill-rule:evenodd; fill:#000000" d="M 178.028 68.0121C 177.348 68.2271 176.958 68.3991 176.563 68.6681C 175.7 69.2701 175.204 70.2111 175.204 71.2151C 175.204 72.8091 176.454 74.1371 177.966 74.1371C 179.606 74.1371 181.001 72.6291 181.001 70.8681C 181.001 70.0161 180.712 69.1841 180.169 68.5321C 179.708 67.9731 179.497 67.8131 178.309 67.0901C 177.083 66.3321 176.606 65.8641 176.606 65.4341C 176.606 64.9961 177.032 64.6491 177.552 64.6491C 178.028 64.6491 178.321 64.7891 178.817 65.2781C 179.36 65.8171 179.548 65.9341 179.88 65.9341C 180.239 65.9341 180.505 65.6841 180.505 65.3641C 180.505 64.6451 179.337 64.0471 177.927 64.0471C 176.665 64.0471 175.899 64.5551 175.899 65.3711C 175.899 65.8521 176.114 66.2431 176.704 66.7931L 178.028 68.0121zM 178.391 68.3441C 179.274 69.1961 179.696 70.1451 179.696 71.3091C 179.696 72.6331 179.079 73.5391 178.153 73.5391C 177.231 73.5391 176.598 72.4851 176.598 70.9301C 176.598 69.4691 177.192 68.6021 178.391 68.3441z"/>
<path style="stroke:#000000; stroke-width:1.9133; fill:none" d="M 191.848 152.469L 191.848 125.684"/>
<path style="stroke:#000000; stroke-width:1.9133; fill:none" d="M 189.934 133.336L 191.845 125.684L 193.755 133.336"/>
<path style="stroke:none; fill-rule:evenodd; fill:#5f5f5f" d="M 191.888 148.622L 195.712 148.622L 195.712 137.141L 191.888 137.141L 191.888 148.622z"/>
<path style="stroke:#000000; stroke-width:0.95664899999999997; fill:none" d="M 191.888 148.622L 195.712 148.622L 195.712 137.141L 191.888 137.141L 191.888 148.622z"/>
<path style="stroke:none; fill-rule:evenodd; fill:#ffffff" d="M 176.548 125.692L 237.77 125.692L 237.77 87.4261L 176.548 87.4261L 176.548 125.692z"/>
<path style="stroke:#000000; stroke-width:1.9133; fill:none" d="M 176.548 125.692L 237.77 125.692L 237.77 87.4261L 176.548 87.4261L 176.548 125.692z"/>
<path style="stroke:none; fill-rule:evenodd; fill:#ffffff" d="M 145.934 125.692L 176.544 125.692L 176.544 87.4261L 145.934 87.4261L 145.934 125.692z"/>
<path style="stroke:#000000; stroke-width:1.9133; fill:none" d="M 145.934 125.692L 176.544 125.692L 176.544 87.4261L 145.934 87.4261L 145.934 125.692z"/>
<path style="stroke:#000000; stroke-width:1.9133; fill:none" d="M 145.934 181.176L 239.684 181.176L 239.684 152.477L 145.934 152.477L 145.934 181.176z"/>
<path style="stroke:none; fill-rule:evenodd; fill:#000000" d="M 192.161 100.942L 190.407 105.262L 191.196 105.262L 192.583 101.852L 193.981 105.262L 194.77 105.262L 192.993 100.942L 192.161 100.942z"/>
<path style="stroke:none; fill-rule:evenodd; fill:#000000" d="M 192.497 114.743L 195.399 106.344L 194.266 106.344L 191.95 113.457L 189.497 106.344L 188.352 106.344L 191.356 114.743L 192.497 114.743z"/>
<path style="stroke:none; fill-rule:evenodd; fill:#000000" d="M 198.649 118.344L 195.075 118.344C 195.161 117.786 195.466 117.43 196.302 116.938L 197.259 116.418C 198.208 115.899 198.696 115.196 198.696 114.356C 198.696 113.789 198.466 113.258 198.063 112.891C 197.661 112.528 197.165 112.352 196.52 112.352C 195.661 112.352 195.016 112.661 194.641 113.239C 194.403 113.602 194.298 114.028 194.278 114.719L 195.134 114.719C 195.161 114.246 195.22 113.961 195.337 113.735C 195.559 113.313 196.009 113.055 196.524 113.055C 197.302 113.055 197.888 113.606 197.888 114.336C 197.888 114.875 197.567 115.34 196.954 115.684L 196.059 116.184C 194.618 116.993 194.2 117.637 194.122 119.145L 198.645 119.145L 198.649 118.344z"/>
<path style="stroke:none; fill-rule:evenodd; fill:#000000" d="M 159.661 99.0431L 157.907 103.364L 158.696 103.364L 160.083 99.9531L 161.481 103.364L 162.27 103.364L 160.493 99.0431L 159.661 99.0431z"/>
<path style="stroke:none; fill-rule:evenodd; fill:#000000" d="M 159.997 112.844L 162.899 104.446L 161.766 104.446L 159.45 111.559L 156.997 104.446L 155.852 104.446L 158.856 112.844L 159.997 112.844z"/>
<path style="stroke:none; fill-rule:evenodd; fill:#7e7e7e" d="M 219.399 108.715L 219.399 114.739L 220.399 114.739L 220.399 111.606C 220.399 110.743 220.61 110.18 221.059 109.844C 221.348 109.625 221.63 109.559 222.282 109.547L 222.282 108.582C 222.126 108.563 222.048 108.551 221.923 108.551C 221.313 108.551 220.848 108.918 220.302 109.813L 220.302 108.723L 219.399 108.715z"/>
<path style="stroke:none; fill-rule:evenodd; fill:#7e7e7e" d="M 227.348 118.344L 223.774 118.344C 223.86 117.786 224.165 117.43 225.001 116.938L 225.958 116.418C 226.907 115.899 227.395 115.196 227.395 114.356C 227.395 113.789 227.165 113.258 226.762 112.891C 226.36 112.528 225.864 112.352 225.22 112.352C 224.36 112.352 223.716 112.661 223.341 113.239C 223.102 113.602 222.997 114.028 222.977 114.719L 223.833 114.719C 223.86 114.246 223.919 113.961 224.036 113.735C 224.259 113.313 224.708 113.055 225.223 113.055C 226.001 113.055 226.587 113.606 226.587 114.336C 226.587 114.875 226.266 115.34 225.653 115.684L 224.759 116.184C 223.317 116.993 222.899 117.637 222.821 119.145L 227.345 119.145L 227.348 118.344z"/>
<path style="stroke:none; fill-rule:evenodd; fill:#000000" d="M 156.598 162.43C 156.591 160.793 155.47 159.844 153.555 159.844C 151.731 159.844 150.602 160.793 150.602 162.321C 150.602 163.348 151.134 164 152.223 164.289L 154.278 164.844C 155.321 165.122 155.798 165.547 155.798 166.207C 155.798 166.657 155.559 167.122 155.212 167.375C 154.884 167.606 154.364 167.731 153.696 167.731C 152.802 167.731 152.192 167.504 151.798 167.004C 151.493 166.625 151.356 166.207 151.407 165.668L 150.407 165.668C 150.415 166.446 150.563 166.957 150.891 167.422C 151.458 168.211 152.411 168.629 153.669 168.629C 154.653 168.629 155.458 168.403 155.993 167.985C 156.548 167.539 156.899 166.789 156.899 166.063C 156.899 165.028 156.266 164.27 155.141 163.957L 153.067 163.395C 152.071 163.122 151.708 162.797 151.708 162.153C 151.708 161.301 152.442 160.735 153.548 160.735C 154.856 160.735 155.591 161.336 155.602 162.422L 156.598 162.43z"/>
<path style="stroke:none; fill-rule:evenodd; fill:#000000" d="M 162.251 171.942L 158.677 171.942C 158.762 171.383 159.067 171.028 159.903 170.536L 160.86 170.016C 161.809 169.497 162.298 168.793 162.298 167.954C 162.298 167.387 162.067 166.856 161.665 166.489C 161.262 166.125 160.766 165.95 160.122 165.95C 159.262 165.95 158.618 166.258 158.243 166.836C 158.005 167.2 157.899 167.625 157.88 168.317L 158.735 168.317C 158.762 167.844 158.821 167.559 158.938 167.332C 159.161 166.911 159.61 166.653 160.126 166.653C 160.903 166.653 161.489 167.204 161.489 167.934C 161.489 168.473 161.169 168.938 160.555 169.282L 159.661 169.782C 158.22 170.59 157.802 171.235 157.723 172.743L 162.247 172.743L 162.251 171.942z"/>
<path style="stroke:none; fill-rule:evenodd; fill:#000000" d="M 194.743 197.942L 190.516 197.942C 190.618 197.282 190.981 196.86 191.966 196.278L 193.098 195.664C 194.22 195.051 194.798 194.215 194.798 193.223C 194.798 192.551 194.528 191.922 194.052 191.489C 193.579 191.055 192.989 190.852 192.227 190.852C 191.208 190.852 190.45 191.211 190.009 191.891C 189.727 192.321 189.602 192.817 189.579 193.633L 190.579 193.633C 190.61 193.102 190.68 192.778 190.817 192.52C 191.079 192.043 191.602 191.75 192.204 191.75C 193.114 191.75 193.798 192.399 193.798 193.266C 193.798 193.903 193.423 194.45 192.704 194.86L 191.657 195.45C 189.973 196.403 189.481 197.168 189.391 198.946L 194.743 198.946L 194.743 197.942z"/>
<path style="stroke:#000000; stroke-width:1.9133; fill:none" d="M 251.165 181.176L 344.915 181.176L 344.915 152.477L 251.165 152.477L 251.165 181.176z"/>
<path style="stroke:none; fill-rule:evenodd; fill:#000000" d="M 261.798 162.43C 261.79 160.793 260.669 159.844 258.755 159.844C 256.93 159.844 255.802 160.793 255.802 162.321C 255.802 163.348 256.333 164 257.423 164.289L 259.477 164.844C 260.52 165.122 260.997 165.547 260.997 166.207C 260.997 166.657 260.759 167.122 260.411 167.375C 260.083 167.606 259.563 167.731 258.895 167.731C 258.001 167.731 257.391 167.504 256.997 167.004C 256.692 166.625 256.555 166.207 256.606 165.668L 255.606 165.668C 255.614 166.446 255.762 166.957 256.091 167.422C 256.657 168.211 257.61 168.629 258.868 168.629C 259.852 168.629 260.657 168.403 261.192 167.985C 261.747 167.539 262.098 166.789 262.098 166.063C 262.098 165.028 261.466 164.27 260.341 163.957L 258.266 163.395C 257.27 163.122 256.907 162.797 256.907 162.153C 256.907 161.301 257.641 160.735 258.747 160.735C 260.055 160.735 260.79 161.336 260.802 162.422L 261.798 162.43z"/>
<path style="stroke:none; fill-rule:evenodd; fill:#000000" d="M 264.712 169.641L 265.173 169.641C 266.11 169.641 266.591 170.063 266.591 170.875C 266.591 171.727 266.063 172.235 265.18 172.235C 264.259 172.235 263.805 171.77 263.751 170.766L 262.907 170.766C 262.942 171.305 263.036 171.657 263.2 171.957C 263.54 172.602 264.204 172.934 265.122 172.934C 266.505 172.934 267.395 172.106 267.395 170.825C 267.395 169.965 267.075 169.489 266.29 169.211C 266.891 168.965 267.196 168.485 267.196 167.809C 267.196 166.645 266.43 165.946 265.149 165.946C 263.798 165.946 263.075 166.696 263.048 168.153L 263.891 168.153C 263.899 167.727 263.938 167.489 264.044 167.27C 264.235 166.883 264.657 166.645 265.188 166.645C 265.938 166.645 266.391 167.098 266.391 167.844C 266.391 168.336 266.22 168.637 265.841 168.793C 265.61 168.891 265.309 168.93 264.708 168.942L 264.712 169.641z"/>
<path style="stroke:none; fill-rule:evenodd; fill:#000000" d="M 296.735 195.243L 297.29 195.243C 298.415 195.243 298.993 195.747 298.993 196.715C 298.993 197.731 298.36 198.336 297.298 198.336C 296.192 198.336 295.649 197.778 295.579 196.575L 294.563 196.575C 294.606 197.235 294.723 197.668 294.915 198.039C 295.325 198.829 296.13 199.235 297.239 199.235C 298.911 199.235 299.989 198.239 299.989 196.7C 299.989 195.668 299.591 195.094 298.622 194.762C 299.399 194.465 299.79 193.891 299.79 193.079C 299.79 191.68 298.856 190.844 297.298 190.844C 295.649 190.844 294.77 191.723 294.735 193.43L 295.759 193.43C 295.77 192.954 295.813 192.688 295.942 192.442C 296.173 192.008 296.684 191.743 297.329 191.743C 298.235 191.743 298.786 192.258 298.786 193.098C 298.786 193.657 298.575 193.993 298.11 194.172C 297.829 194.282 297.462 194.329 296.723 194.34L 296.735 195.243z"/>
<path style="stroke:none; fill-rule:evenodd; fill:#7e7e7e" d="M 324.7 108.715L 324.7 114.739L 325.7 114.739L 325.7 111.606C 325.7 110.743 325.911 110.18 326.36 109.844C 326.649 109.625 326.93 109.559 327.583 109.547L 327.583 108.582C 327.427 108.563 327.348 108.551 327.223 108.551C 326.614 108.551 326.149 108.918 325.602 109.813L 325.602 108.723L 324.7 108.715z"/>
<path style="stroke:none; fill-rule:evenodd; fill:#7e7e7e" d="M 329.813 116.043L 330.274 116.043C 331.212 116.043 331.692 116.465 331.692 117.278C 331.692 118.129 331.165 118.637 330.282 118.637C 329.36 118.637 328.907 118.172 328.852 117.168L 328.009 117.168C 328.044 117.707 328.138 118.059 328.302 118.36C 328.641 119.004 329.305 119.336 330.223 119.336C 331.606 119.336 332.497 118.508 332.497 117.227C 332.497 116.368 332.177 115.891 331.391 115.614C 331.993 115.368 332.298 114.887 332.298 114.211C 332.298 113.047 331.532 112.348 330.251 112.348C 328.899 112.348 328.177 113.098 328.149 114.555L 328.993 114.555C 329.001 114.129 329.04 113.891 329.145 113.672C 329.337 113.286 329.759 113.047 330.29 113.047C 331.04 113.047 331.493 113.5 331.493 114.246C 331.493 114.739 331.321 115.039 330.942 115.196C 330.712 115.293 330.411 115.332 329.809 115.344L 329.813 116.043z"/>
<path style="stroke:none; fill-rule:evenodd; fill:#000000" d="M 264.86 99.0431L 263.106 103.364L 263.895 103.364L 265.282 99.9531L 266.68 103.364L 267.47 103.364L 265.692 99.0431L 264.86 99.0431z"/>
<path style="stroke:none; fill-rule:evenodd; fill:#000000" d="M 265.2 112.844L 268.102 104.446L 266.97 104.446L 264.653 111.559L 262.2 104.446L 261.055 104.446L 264.059 112.844L 265.2 112.844z"/>
<path style="stroke:none; fill-rule:evenodd; fill:#000000" d="M 297.458 100.942L 295.704 105.262L 296.493 105.262L 297.88 101.852L 299.278 105.262L 300.067 105.262L 298.29 100.942L 297.458 100.942z"/>
<path style="stroke:none; fill-rule:evenodd; fill:#000000" d="M 297.798 114.743L 300.7 106.344L 299.567 106.344L 297.251 113.457L 294.798 106.344L 293.653 106.344L 296.657 114.743L 297.798 114.743z"/>
<path style="stroke:none; fill-rule:evenodd; fill:#000000" d="M 301.11 116.043L 301.571 116.043C 302.509 116.043 302.989 116.465 302.989 117.278C 302.989 118.129 302.462 118.637 301.579 118.637C 300.657 118.637 300.204 118.172 300.149 117.168L 299.305 117.168C 299.341 117.707 299.434 118.059 299.598 118.36C 299.938 119.004 300.602 119.336 301.52 119.336C 302.903 119.336 303.794 118.508 303.794 117.227C 303.794 116.368 303.473 115.891 302.688 115.614C 303.29 115.368 303.595 114.887 303.595 114.211C 303.595 113.047 302.829 112.348 301.548 112.348C 300.196 112.348 299.473 113.098 299.446 114.555L 300.29 114.555C 300.298 114.129 300.337 113.891 300.442 113.672C 300.634 113.286 301.055 113.047 301.587 113.047C 302.337 113.047 302.79 113.5 302.79 114.246C 302.79 114.739 302.618 115.039 302.239 115.196C 302.009 115.293 301.708 115.332 301.106 115.344L 301.11 116.043z"/>
<path style="stroke:#000000; stroke-width:1.9133; fill:none" d="M 408.055 85.5121C 408.055 85.5121 408.055 85.5121 406.462 82.9611C 404.868 80.4111 401.68 75.3091 396.579 72.7581C 391.477 70.2071 384.462 70.2071 379.36 72.7581C 374.259 75.3091 371.071 80.4111 369.477 82.9611C 367.884 85.5121 367.884 85.5121 367.884 85.5121"/>
<path style="stroke:#000000; stroke-width:1.9133; fill:none" d="M 373.555 80.0361L 367.88 85.5081L 370.313 78.0041"/>
<path style="stroke:none; fill-rule:evenodd; fill:#ffffff" d="M 383.18 77.8481L 392.747 77.8481L 392.747 64.4571L 383.18 64.4571L 383.18 77.8481z"/>
<path style="stroke:#ffffff; stroke-width:0.0; fill:none" d="M 383.18 77.8481L 392.747 77.8481L 392.747 64.4571L 383.18 64.4571L 383.18 77.8481z"/>
<path style="stroke:none; fill-rule:evenodd; fill:#000000" d="M 388.528 68.0121C 387.848 68.2271 387.458 68.3991 387.063 68.6681C 386.2 69.2701 385.704 70.2111 385.704 71.2151C 385.704 72.8091 386.954 74.1371 388.466 74.1371C 390.106 74.1371 391.501 72.6291 391.501 70.8681C 391.501 70.0161 391.212 69.1841 390.669 68.5321C 390.208 67.9731 389.997 67.8131 388.809 67.0901C 387.583 66.3321 387.106 65.8641 387.106 65.4341C 387.106 64.9961 387.532 64.6491 388.052 64.6491C 388.528 64.6491 388.821 64.7891 389.317 65.2781C 389.86 65.8171 390.048 65.9341 390.38 65.9341C 390.739 65.9341 391.005 65.6841 391.005 65.3641C 391.005 64.6451 389.837 64.0471 388.427 64.0471C 387.165 64.0471 386.399 64.5551 386.399 65.3711C 386.399 65.8521 386.614 66.2431 387.204 66.7931L 388.528 68.0121zM 388.891 68.3441C 389.774 69.1961 390.196 70.1451 390.196 71.3091C 390.196 72.6331 389.579 73.5391 388.653 73.5391C 387.731 73.5391 387.098 72.4851 387.098 70.9301C 387.098 69.4691 387.692 68.6021 388.891 68.3441z"/>
<path style="stroke:#000000; stroke-width:1.9133; fill:none" d="M 356.399 181.176L 450.149 181.176L 450.149 152.477L 356.399 152.477L 356.399 181.176z"/>
<path style="stroke:none; fill-rule:evenodd; fill:#000000" d="M 429.899 108.715L 429.899 114.739L 430.899 114.739L 430.899 111.606C 430.899 110.743 431.11 110.18 431.559 109.844C 431.848 109.625 432.13 109.559 432.782 109.547L 432.782 108.582C 432.626 108.563 432.548 108.551 432.423 108.551C 431.813 108.551 431.348 108.918 430.802 109.813L 430.802 108.723L 429.899 108.715z"/>
<path style="stroke:none; fill-rule:evenodd; fill:#7e7e7e" d="M 402.661 100.942L 400.907 105.262L 401.696 105.262L 403.083 101.852L 404.481 105.262L 405.27 105.262L 403.493 100.942L 402.661 100.942z"/>
<path style="stroke:#000000; stroke-width:1.9133; fill:none" d="M 404.223 152.469L 404.223 125.684"/>
<path style="stroke:#000000; stroke-width:1.9133; fill:none" d="M 402.313 133.336L 404.223 125.684L 406.134 133.336"/>
<path style="stroke:none; fill-rule:evenodd; fill:#5f5f5f" d="M 404.262 148.622L 408.087 148.622L 408.087 137.141L 404.262 137.141L 404.262 148.622z"/>
<path style="stroke:#000000; stroke-width:0.95664899999999997; fill:none" d="M 404.262 148.622L 408.087 148.622L 408.087 137.141L 404.262 137.141L 404.262 148.622z"/>
<path style="stroke:none; fill-rule:evenodd; fill:#000000" d="M 366.997 162.43C 366.989 160.793 365.868 159.844 363.954 159.844C 362.13 159.844 361.001 160.793 361.001 162.321C 361.001 163.348 361.532 164 362.622 164.289L 364.677 164.844C 365.72 165.122 366.196 165.547 366.196 166.207C 366.196 166.657 365.958 167.122 365.61 167.375C 365.282 167.606 364.762 167.731 364.095 167.731C 363.2 167.731 362.591 167.504 362.196 167.004C 361.891 166.625 361.755 166.207 361.805 165.668L 360.805 165.668C 360.813 166.446 360.962 166.957 361.29 167.422C 361.856 168.211 362.809 168.629 364.067 168.629C 365.052 168.629 365.856 168.403 366.391 167.985C 366.946 167.539 367.298 166.789 367.298 166.063C 367.298 165.028 366.665 164.27 365.54 163.957L 363.466 163.395C 362.47 163.122 362.106 162.797 362.106 162.153C 362.106 161.301 362.841 160.735 363.946 160.735C 365.255 160.735 365.989 161.336 366.001 162.422L 366.997 162.43z"/>
<path style="stroke:none; fill-rule:evenodd; fill:#000000" d="M 370.997 171.043L 370.997 172.743L 371.794 172.743L 371.794 171.043L 372.868 171.043L 372.868 170.344L 371.794 170.344L 371.794 165.946L 371.184 165.946L 368.165 170.164L 368.165 171.043L 370.997 171.043zM 370.997 170.344L 368.903 170.344L 370.997 167.399L 370.997 170.344z"/>
<path style="stroke:none; fill-rule:evenodd; fill:#000000" d="M 403.2 196.942L 403.2 198.942L 404.2 198.942L 404.2 196.942L 405.368 196.942L 405.368 196.043L 404.2 196.043L 404.2 190.844L 403.45 190.844L 399.727 195.891L 399.727 196.942L 403.2 196.942zM 403.2 196.043L 400.606 196.043L 403.2 192.528L 403.2 196.043z"/>
<path style="stroke:none; fill-rule:evenodd; fill:#000000" d="M 370.497 112.844L 373.399 104.446L 372.266 104.446L 369.95 111.559L 367.497 104.446L 366.352 104.446L 369.356 112.844L 370.497 112.844z"/>
<path style="stroke:none; fill-rule:evenodd; fill:#000000" d="M 370.161 99.0431L 368.407 103.364L 369.196 103.364L 370.583 99.9531L 371.981 103.364L 372.77 103.364L 370.993 99.0431L 370.161 99.0431z"/>
<path style="stroke:none; fill-rule:evenodd; fill:#7e7e7e" d="M 402.997 114.743L 405.899 106.344L 404.766 106.344L 402.45 113.457L 399.997 106.344L 398.852 106.344L 401.856 114.743L 402.997 114.743z"/>
<path style="stroke:none; fill-rule:evenodd; fill:#7e7e7e" d="M 407.298 117.442L 407.298 119.141L 408.095 119.141L 408.095 117.442L 409.169 117.442L 409.169 116.743L 408.095 116.743L 408.095 112.344L 407.485 112.344L 404.466 116.563L 404.466 117.442L 407.298 117.442zM 407.298 116.743L 405.204 116.743L 407.298 113.797L 407.298 116.743z"/>
<path style="stroke:none; fill-rule:evenodd; fill:#000000" d="M 435.997 117.442L 435.997 119.141L 436.794 119.141L 436.794 117.442L 437.868 117.442L 437.868 116.743L 436.794 116.743L 436.794 112.344L 436.184 112.344L 433.165 116.563L 433.165 117.442L 435.997 117.442zM 435.997 116.743L 433.903 116.743L 435.997 113.797L 435.997 116.743z"/>
<path style="stroke:#000000; stroke-width:1.9133; fill:none" d="M 297.079 152.469L 297.079 125.684"/>
<path style="stroke:#000000; stroke-width:1.9133; fill:none" d="M 295.169 133.336L 297.079 125.684L 298.989 133.336"/>
<path style="stroke:none; fill-rule:evenodd; fill:#5f5f5f" d="M 297.118 148.622L 300.942 148.622L 300.942 137.141L 297.118 137.141L 297.118 148.622z"/>
<path style="stroke:#000000; stroke-width:0.95664899999999997; fill:none" d="M 297.118 148.622L 300.942 148.622L 300.942 137.141L 297.118 137.141L 297.118 148.622z"/>
<path style="stroke:#000000; stroke-width:1.9133; fill:none" d="M 302.825 85.5121C 302.825 85.5121 302.825 85.5121 301.231 82.9611C 299.638 80.4111 296.45 75.3091 291.348 72.7581C 286.247 70.2071 279.231 70.2071 274.13 72.7581C 269.028 75.3091 265.841 80.4111 264.247 82.9611C 262.653 85.5121 262.653 85.5121 262.653 85.5121"/>
<path style="stroke:#000000; stroke-width:1.9133; fill:none" d="M 268.325 80.0361L 262.649 85.5081L 265.083 78.0041"/>
<path style="stroke:none; fill-rule:evenodd; fill:#ffffff" d="M 277.95 77.8481L 287.516 77.8481L 287.516 64.4571L 277.95 64.4571L 277.95 77.8481z"/>
<path style="stroke:#ffffff; stroke-width:0.0; fill:none" d="M 277.95 77.8481L 287.516 77.8481L 287.516 64.4571L 277.95 64.4571L 277.95 77.8481z"/>
<path style="stroke:none; fill-rule:evenodd; fill:#000000" d="M 283.329 68.0121C 282.649 68.2271 282.259 68.3991 281.864 68.6681C 281.001 69.2701 280.505 70.2111 280.505 71.2151C 280.505 72.8091 281.755 74.1371 283.266 74.1371C 284.907 74.1371 286.302 72.6291 286.302 70.8681C 286.302 70.0161 286.012 69.1841 285.47 68.5321C 285.009 67.9731 284.798 67.8131 283.61 67.0901C 282.384 66.3321 281.907 65.8641 281.907 65.4341C 281.907 64.9961 282.333 64.6491 282.852 64.6491C 283.329 64.6491 283.622 64.7891 284.118 65.2781C 284.661 65.8171 284.848 65.9341 285.18 65.9341C 285.54 65.9341 285.805 65.6841 285.805 65.3641C 285.805 64.6451 284.638 64.0471 283.227 64.0471C 281.966 64.0471 281.2 64.5551 281.2 65.3711C 281.2 65.8521 281.415 66.2431 282.005 66.7931L 283.329 68.0121zM 283.692 68.3441C 284.575 69.1961 284.997 70.1451 284.997 71.3091C 284.997 72.6331 284.38 73.5391 283.454 73.5391C 282.532 73.5391 281.899 72.4851 281.899 70.9301C 281.899 69.4691 282.493 68.6021 283.692 68.3441z"/>
<path style="stroke:none; fill-rule:evenodd; fill:#000000" d="M 66.0983 173.442L 65.3015 173.442L 65.3015 172.051L 64.5046 172.051L 64.5046 173.442L 63.8054 173.442L 63.8054 174.141L 64.5046 174.141L 64.5046 177.86C 64.5046 178.356 64.8444 178.637 65.4577 178.637C 65.6452 178.637 65.8366 178.622 66.0983 178.575L 66.0983 177.926C 65.9968 177.938 65.8757 177.942 65.7272 177.942C 65.3952 177.942 65.3015 177.848 65.3015 177.504L 65.3015 174.145L 66.0983 174.145L 66.0983 173.442z"/>
<path style="stroke:none; fill-rule:evenodd; fill:#000000" d="M 68.9382 173.243C 67.5437 173.243 66.6999 174.25 66.6999 175.942C 66.6999 177.629 67.5319 178.641 68.9499 178.641C 70.3444 178.641 71.1999 177.633 71.1999 175.981C 71.1999 174.243 70.3757 173.243 68.9421 173.243L 68.9382 173.243zM 68.9499 173.942C 69.8561 173.942 70.3991 174.696 70.3991 175.969C 70.3991 177.172 69.8405 177.938 68.9499 177.938C 68.0515 177.938 67.5007 177.184 67.5007 175.938C 67.5007 174.704 68.0515 173.938 68.9499 173.938L 68.9499 173.942z"/>
<path style="stroke:none; fill-rule:evenodd; fill:#000000" d="M 72.2976 173.387L 72.2976 178.438L 73.0944 178.438L 73.0944 175.649C 73.0944 174.618 73.6296 173.942 74.4538 173.942C 75.0866 173.942 75.489 174.329 75.489 174.934L 75.489 178.438L 76.2858 178.438L 76.2858 174.622C 76.2858 173.786 75.6569 173.243 74.6765 173.243C 73.9226 173.243 73.4343 173.532 72.989 174.235L 72.989 173.387L 72.2976 173.387z"/>
<path style="stroke:none; fill-rule:evenodd; fill:#000000" d="M 81.8991 176.243C 81.8991 175.457 81.8444 174.985 81.6999 174.602C 81.3796 173.758 80.6179 173.247 79.6843 173.247C 78.2976 173.247 77.403 174.321 77.403 175.973C 77.403 177.622 78.2663 178.641 79.6687 178.641C 80.8093 178.641 81.6022 178 81.8015 176.922L 80.9968 176.922C 80.778 177.59 80.3249 177.942 79.6843 177.942C 79.1765 177.942 78.7468 177.715 78.4733 177.301C 78.2819 177.02 78.2155 176.739 78.2077 176.247L 81.8991 176.243zM 78.2311 175.555C 78.2976 174.629 78.8601 174.028 79.6647 174.028C 80.446 174.028 81.0515 174.676 81.0515 175.5C 81.0515 175.516 81.0515 175.536 81.0437 175.555L 78.2311 175.555z"/>
<path style="stroke:none; fill-rule:evenodd; fill:#7e7e7e" d="M 61.7507 169.7L 86.6218 169.7L 86.6218 167.789L 61.7507 167.789L 61.7507 169.7z"/>
<path style="stroke:#000000; stroke-width:1.9133; fill:none" d="M 61.7507 169.7L 86.6218 169.7L 86.6218 167.789L 61.7507 167.789L 61.7507 169.7z"/>
<path style="stroke:none; fill-rule:evenodd; fill:#000000" d="M 182.798 173.442L 182.001 173.442L 182.001 172.051L 181.204 172.051L 181.204 173.442L 180.505 173.442L 180.505 174.141L 181.204 174.141L 181.204 177.86C 181.204 178.356 181.544 178.637 182.157 178.637C 182.345 178.637 182.536 178.622 182.798 178.575L 182.798 177.926C 182.696 177.938 182.575 177.942 182.427 177.942C 182.095 177.942 182.001 177.848 182.001 177.504L 182.001 174.145L 182.798 174.145L 182.798 173.442z"/>
<path style="stroke:none; fill-rule:evenodd; fill:#000000" d="M 185.638 173.243C 184.243 173.243 183.399 174.25 183.399 175.942C 183.399 177.629 184.231 178.641 185.649 178.641C 187.044 178.641 187.899 177.633 187.899 175.981C 187.899 174.243 187.075 173.243 185.641 173.243L 185.638 173.243zM 185.649 173.942C 186.555 173.942 187.098 174.696 187.098 175.969C 187.098 177.172 186.54 177.938 185.649 177.938C 184.751 177.938 184.2 177.184 184.2 175.938C 184.2 174.704 184.751 173.938 185.649 173.938L 185.649 173.942z"/>
<path style="stroke:none; fill-rule:evenodd; fill:#000000" d="M 189.098 173.387L 189.098 178.438L 189.895 178.438L 189.895 175.649C 189.895 174.618 190.43 173.942 191.255 173.942C 191.888 173.942 192.29 174.329 192.29 174.934L 192.29 178.438L 193.087 178.438L 193.087 174.622C 193.087 173.786 192.458 173.243 191.477 173.243C 190.723 173.243 190.235 173.532 189.79 174.235L 189.79 173.387L 189.098 173.387z"/>
<path style="stroke:none; fill-rule:evenodd; fill:#000000" d="M 198.598 176.243C 198.598 175.457 198.544 174.985 198.399 174.602C 198.079 173.758 197.317 173.247 196.384 173.247C 194.997 173.247 194.102 174.321 194.102 175.973C 194.102 177.622 194.966 178.641 196.368 178.641C 197.509 178.641 198.302 178 198.501 176.922L 197.696 176.922C 197.477 177.59 197.024 177.942 196.384 177.942C 195.876 177.942 195.446 177.715 195.173 177.301C 194.981 177.02 194.915 176.739 194.907 176.247L 198.598 176.243zM 194.93 175.555C 194.997 174.629 195.559 174.028 196.364 174.028C 197.145 174.028 197.751 174.676 197.751 175.5C 197.751 175.516 197.751 175.536 197.743 175.555L 194.93 175.555z"/>
<path style="stroke:none; fill-rule:evenodd; fill:#7e7e7e" d="M 178.462 171.61L 201.419 171.61L 201.419 154.391L 178.462 154.391L 178.462 171.61z"/>
<path style="stroke:#000000; stroke-width:1.9133; fill:none" d="M 178.462 171.61L 201.419 171.61L 201.419 154.391L 178.462 154.391L 178.462 171.61z"/>
<path style="stroke:none; fill-rule:evenodd; fill:#000000" d="M 301.399 173.442L 300.602 173.442L 300.602 172.051L 299.805 172.051L 299.805 173.442L 299.106 173.442L 299.106 174.141L 299.805 174.141L 299.805 177.86C 299.805 178.356 300.145 178.637 300.759 178.637C 300.946 178.637 301.138 178.622 301.399 178.575L 301.399 177.926C 301.298 177.938 301.177 177.942 301.028 177.942C 300.696 177.942 300.602 177.848 300.602 177.504L 300.602 174.145L 301.399 174.145L 301.399 173.442z"/>
<path style="stroke:none; fill-rule:evenodd; fill:#000000" d="M 304.337 173.243C 302.942 173.243 302.098 174.25 302.098 175.942C 302.098 177.629 302.93 178.641 304.348 178.641C 305.743 178.641 306.598 177.633 306.598 175.981C 306.598 174.243 305.774 173.243 304.341 173.243L 304.337 173.243zM 304.348 173.942C 305.255 173.942 305.798 174.696 305.798 175.969C 305.798 177.172 305.239 177.938 304.348 177.938C 303.45 177.938 302.899 177.184 302.899 175.938C 302.899 174.704 303.45 173.938 304.348 173.938L 304.348 173.942z"/>
<path style="stroke:none; fill-rule:evenodd; fill:#000000" d="M 307.7 173.387L 307.7 178.438L 308.497 178.438L 308.497 175.649C 308.497 174.618 309.032 173.942 309.856 173.942C 310.489 173.942 310.891 174.329 310.891 174.934L 310.891 178.438L 311.688 178.438L 311.688 174.622C 311.688 173.786 311.059 173.243 310.079 173.243C 309.325 173.243 308.837 173.532 308.391 174.235L 308.391 173.387L 307.7 173.387z"/>
<path style="stroke:none; fill-rule:evenodd; fill:#000000" d="M 317.2 176.243C 317.2 175.457 317.145 174.985 317.001 174.602C 316.68 173.758 315.919 173.247 314.985 173.247C 313.598 173.247 312.704 174.321 312.704 175.973C 312.704 177.622 313.567 178.641 314.97 178.641C 316.11 178.641 316.903 178 317.102 176.922L 316.298 176.922C 316.079 177.59 315.626 177.942 314.985 177.942C 314.477 177.942 314.048 177.715 313.774 177.301C 313.583 177.02 313.516 176.739 313.509 176.247L 317.2 176.243zM 313.532 175.555C 313.598 174.629 314.161 174.028 314.966 174.028C 315.747 174.028 316.352 174.676 316.352 175.5C 316.352 175.516 316.352 175.536 316.345 175.555L 313.532 175.555z"/>
<path style="stroke:none; fill-rule:evenodd; fill:#7e7e7e" d="M 297.087 171.61L 320.044 171.61L 320.044 154.391L 297.087 154.391L 297.087 171.61z"/>
<path style="stroke:#000000; stroke-width:1.9133; fill:none" d="M 297.087 171.61L 320.044 171.61L 320.044 154.391L 297.087 154.391L 297.087 171.61z"/>
<path style="stroke:none; fill-rule:evenodd; fill:#000000" d="M 423.899 173.442L 423.102 173.442L 423.102 172.051L 422.305 172.051L 422.305 173.442L 421.606 173.442L 421.606 174.141L 422.305 174.141L 422.305 177.86C 422.305 178.356 422.645 178.637 423.259 178.637C 423.446 178.637 423.638 178.622 423.899 178.575L 423.899 177.926C 423.798 177.938 423.677 177.942 423.528 177.942C 423.196 177.942 423.102 177.848 423.102 177.504L 423.102 174.145L 423.899 174.145L 423.899 173.442z"/>
<path style="stroke:none; fill-rule:evenodd; fill:#000000" d="M 426.739 173.243C 425.345 173.243 424.501 174.25 424.501 175.942C 424.501 177.629 425.333 178.641 426.751 178.641C 428.145 178.641 429.001 177.633 429.001 175.981C 429.001 174.243 428.177 173.243 426.743 173.243L 426.739 173.243zM 426.747 173.942C 427.653 173.942 428.196 174.696 428.196 175.969C 428.196 177.172 427.638 177.938 426.747 177.938C 425.848 177.938 425.298 177.184 425.298 175.938C 425.298 174.704 425.848 173.938 426.747 173.938L 426.747 173.942z"/>
<path style="stroke:none; fill-rule:evenodd; fill:#000000" d="M 430.098 173.387L 430.098 178.438L 430.895 178.438L 430.895 175.649C 430.895 174.618 431.43 173.942 432.255 173.942C 432.888 173.942 433.29 174.329 433.29 174.934L 433.29 178.438L 434.087 178.438L 434.087 174.622C 434.087 173.786 433.458 173.243 432.477 173.243C 431.723 173.243 431.235 173.532 430.79 174.235L 430.79 173.387L 430.098 173.387z"/>
<path style="stroke:none; fill-rule:evenodd; fill:#000000" d="M 439.598 176.243C 439.598 175.457 439.544 174.985 439.399 174.602C 439.079 173.758 438.317 173.247 437.384 173.247C 435.997 173.247 435.102 174.321 435.102 175.973C 435.102 177.622 435.966 178.641 437.368 178.641C 438.509 178.641 439.302 178 439.501 176.922L 438.696 176.922C 438.477 177.59 438.024 177.942 437.384 177.942C 436.876 177.942 436.446 177.715 436.173 177.301C 435.981 177.02 435.915 176.739 435.907 176.247L 439.598 176.243zM 435.93 175.555C 435.997 174.629 436.559 174.028 437.364 174.028C 438.145 174.028 438.751 174.676 438.751 175.5C 438.751 175.516 438.751 175.536 438.743 175.555L 435.93 175.555z"/>
<path style="stroke:none; fill-rule:evenodd; fill:#7e7e7e" d="M 419.536 171.61L 442.493 171.61L 442.493 154.391L 419.536 154.391L 419.536 171.61z"/>
<path style="stroke:#000000; stroke-width:1.9133; fill:none" d="M 419.536 171.61L 442.493 171.61L 442.493 154.391L 419.536 154.391L 419.536 171.61z"/>
<path style="stroke:#000000; stroke-width:1.9133; fill:none" d="M 56.0085 204.137L 417.622 204.137"/>
<path style="stroke:#000000; stroke-width:1.9133; fill:none" d="M 409.97 202.223L 417.622 204.133L 409.97 206.043"/>
<path style="stroke:none; fill-rule:evenodd; fill:#000000" d="M 237.997 208.743L 240.7 208.743L 240.7 207.844L 234.138 207.844L 234.138 208.743L 236.895 208.743L 236.895 216.243L 237.993 216.243L 237.997 208.743z"/>
<path style="stroke:none; fill-rule:evenodd; fill:#000000" d="M 242.7 210.243L 241.7 210.243L 241.7 216.243L 242.7 216.243L 242.7 210.243zM 242.7 207.844L 241.7 207.844L 241.7 209.079L 242.7 209.079L 242.7 207.844z"/>
<path style="stroke:none; fill-rule:evenodd; fill:#000000" d="M 244.298 210.215L 244.298 216.239L 245.298 216.239L 245.298 212.43C 245.298 211.551 245.923 210.844 246.692 210.844C 247.395 210.844 247.794 211.282 247.794 212.059L 247.794 216.239L 248.794 216.239L 248.794 212.43C 248.794 211.551 249.419 210.844 250.188 210.844C 250.88 210.844 251.29 211.293 251.29 212.059L 251.29 216.239L 252.29 216.239L 252.29 211.719C 252.29 210.641 251.669 210.043 250.536 210.043C 249.731 210.043 249.243 210.286 248.68 210.973C 248.325 210.325 247.841 210.043 247.055 210.043C 246.251 210.043 245.72 210.34 245.2 211.063L 245.2 210.215L 244.298 210.215z"/>
<path style="stroke:none; fill-rule:evenodd; fill:#000000" d="M 258.997 213.543C 258.997 212.625 258.93 212.075 258.759 211.629C 258.372 210.645 257.458 210.047 256.341 210.047C 254.677 210.047 253.602 211.34 253.602 213.329C 253.602 215.317 254.638 216.543 256.313 216.543C 257.677 216.543 258.622 215.75 258.864 214.418L 257.911 214.418C 257.649 215.223 257.118 215.641 256.356 215.641C 255.755 215.641 255.243 215.364 254.927 214.848C 254.7 214.5 254.622 214.149 254.61 213.543L 258.997 213.543zM 254.579 212.778C 254.657 211.664 255.337 210.942 256.298 210.942C 257.235 210.942 257.962 211.719 257.962 212.707C 257.962 212.727 257.962 212.75 257.95 212.774L 254.579 212.778z"/>
<path style="stroke:none; fill-rule:evenodd; fill:#000000" d="M 54.4577 100.942L 52.7038 105.262L 53.4929 105.262L 54.8796 101.852L 56.278 105.262L 57.0671 105.262L 55.2897 100.942L 54.4577 100.942z"/>
<path style="stroke:none; fill-rule:evenodd; fill:#000000" d="M 54.7976 114.743L 57.6999 106.344L 56.5671 106.344L 54.2507 113.457L 51.7976 106.344L 50.653 106.344L 53.6569 114.743L 54.7976 114.743z"/>
<path style="stroke:none; fill-rule:evenodd; fill:#000000" d="M 58.5983 112.344C 57.9733 112.344 57.4069 112.602 57.0554 113.043C 56.6218 113.641 56.403 114.555 56.403 115.817C 56.403 118.118 57.1608 119.34 58.6022 119.34C 60.0241 119.34 60.8015 118.118 60.8015 115.875C 60.8015 114.547 60.5944 113.661 60.1491 113.043C 59.8015 112.598 59.239 112.344 58.6061 112.344L 58.5983 112.344zM 58.5983 113.043C 59.5319 113.043 59.9968 113.965 59.9968 115.797C 59.9968 117.731 59.5437 118.637 58.5788 118.637C 57.6647 118.637 57.1999 117.696 57.1999 115.825C 57.1999 113.957 57.6608 113.039 58.5983 113.039L 58.5983 113.043z"/>
<path style="stroke:none; fill-rule:evenodd; fill:#000000" d="M 157.723 93.0431L 163.735 93.0431L 163.735 92.4461L 157.723 92.4461L 157.723 93.0431z"/>
<path style="stroke:none; fill-rule:evenodd; fill:#000000" d="M 197.497 89.6251L 196.899 89.6251L 196.899 92.3441L 194.118 92.3441L 194.118 92.9421L 196.899 92.9421L 196.899 95.7391L 197.497 95.7391L 197.497 92.9421L 200.184 92.9421L 200.184 92.3441L 197.497 92.3441L 197.497 89.6251z"/>
<path style="stroke:none; fill-rule:evenodd; fill:#000000" d="M 186.825 107.293L 185.552 111.246L 185.208 109.477C 184.864 107.719 184.497 107.145 183.727 107.145C 183.384 107.145 183.075 107.305 182.891 107.571C 182.641 107.926 182.583 108.215 182.559 109.184L 182.559 109.332L 182.809 109.332C 182.829 109.012 182.852 108.832 182.899 108.664C 183.024 108.282 183.298 108.043 183.63 108.043C 183.938 108.043 184.157 108.239 184.372 108.711C 184.645 109.309 184.942 110.364 185.059 111.219L 185.196 112.176C 185.165 112.289 185.036 112.661 184.817 113.286C 184.591 113.918 184.52 114.254 184.52 114.649C 184.52 115.192 184.759 115.547 185.126 115.547C 185.595 115.547 185.903 114.961 185.903 114.043C 185.903 113.688 185.848 113.137 185.712 112.274L 188.04 107.289L 186.825 107.293z"/>
<path style="stroke:none; fill-rule:evenodd; fill:#000000" d="M 209.427 111.641L 207.098 111.641L 207.098 109.301L 206.302 109.301L 206.302 111.641L 203.876 111.641L 203.876 112.438L 206.302 112.438L 206.302 114.852L 207.098 114.852L 207.098 112.438L 209.427 112.438L 209.427 111.641z"/>
<path style="stroke:none; fill-rule:evenodd; fill:#000000" d="M 262.923 93.0431L 268.934 93.0431L 268.934 92.4461L 262.923 92.4461L 262.923 93.0431z"/>
<path style="stroke:none; fill-rule:evenodd; fill:#000000" d="M 302.7 89.6251L 302.102 89.6251L 302.102 92.3441L 299.321 92.3441L 299.321 92.9421L 302.102 92.9421L 302.102 95.7391L 302.7 95.7391L 302.7 92.9421L 305.388 92.9421L 305.388 92.3441L 302.7 92.3441L 302.7 89.6251z"/>
<path style="stroke:none; fill-rule:evenodd; fill:#000000" d="M 292.024 107.293L 290.751 111.246L 290.407 109.477C 290.063 107.719 289.696 107.145 288.927 107.145C 288.583 107.145 288.274 107.305 288.091 107.571C 287.841 107.926 287.782 108.215 287.759 109.184L 287.759 109.332L 288.009 109.332C 288.028 109.012 288.052 108.832 288.098 108.664C 288.223 108.282 288.497 108.043 288.829 108.043C 289.138 108.043 289.356 108.239 289.571 108.711C 289.845 109.309 290.141 110.364 290.259 111.219L 290.395 112.176C 290.364 112.289 290.235 112.661 290.016 113.286C 289.79 113.918 289.72 114.254 289.72 114.649C 289.72 115.192 289.958 115.547 290.325 115.547C 290.794 115.547 291.102 114.961 291.102 114.043C 291.102 113.688 291.048 113.137 290.911 112.274L 293.239 107.289L 292.024 107.293z"/>
<path style="stroke:none; fill-rule:evenodd; fill:#000000" d="M 314.727 111.641L 312.399 111.641L 312.399 109.301L 311.602 109.301L 311.602 111.641L 309.177 111.641L 309.177 112.438L 311.602 112.438L 311.602 114.852L 312.399 114.852L 312.399 112.438L 314.727 112.438L 314.727 111.641z"/>
<path style="stroke:none; fill-rule:evenodd; fill:#000000" d="M 368.223 93.0431L 374.235 93.0431L 374.235 92.4461L 368.223 92.4461L 368.223 93.0431z"/>
<path style="stroke:none; fill-rule:evenodd; fill:#000000" d="M 407.899 89.6251L 407.302 89.6251L 407.302 92.3441L 404.52 92.3441L 404.52 92.9421L 407.302 92.9421L 407.302 95.7391L 407.899 95.7391L 407.899 92.9421L 410.587 92.9421L 410.587 92.3441L 407.899 92.3441L 407.899 89.6251z"/>
<path style="stroke:none; fill-rule:evenodd; fill:#7e7e7e" d="M 397.227 107.293L 395.954 111.246L 395.61 109.477C 395.266 107.719 394.899 107.145 394.13 107.145C 393.786 107.145 393.477 107.305 393.294 107.571C 393.044 107.926 392.985 108.215 392.962 109.184L 392.962 109.332L 393.212 109.332C 393.231 109.012 393.255 108.832 393.302 108.664C 393.427 108.282 393.7 108.043 394.032 108.043C 394.341 108.043 394.559 108.239 394.774 108.711C 395.048 109.309 395.345 110.364 395.462 111.219L 395.598 112.176C 395.567 112.289 395.438 112.661 395.22 113.286C 394.993 113.918 394.923 114.254 394.923 114.649C 394.923 115.192 395.161 115.547 395.528 115.547C 395.997 115.547 396.305 114.961 396.305 114.043C 396.305 113.688 396.251 113.137 396.114 112.274L 398.442 107.289L 397.227 107.293z"/>
<path style="stroke:none; fill-rule:evenodd; fill:#000000" d="M 419.927 111.641L 417.598 111.641L 417.598 109.301L 416.802 109.301L 416.802 111.641L 414.376 111.641L 414.376 112.438L 416.802 112.438L 416.802 114.852L 417.598 114.852L 417.598 112.438L 419.927 112.438L 419.927 111.641z"/>
<path style="stroke:#000000; stroke-dasharray:6,3; stroke-width:1.9133; fill:none" d="M 92.364 100.821C 92.364 100.821 92.364 100.821 96.5085 99.8681C 100.653 98.9141 108.942 97.0001 117.235 96.3601C 125.524 95.7231 133.813 96.3601 140.192 97.9531C 146.567 99.5471 151.032 102.098 153.262 103.371C 155.493 104.645 155.493 104.645 155.493 104.645"/>
<path style="stroke:#000000; stroke-dasharray:6,3; stroke-width:1.9133; fill:none" d="M 149.805 99.1881L 155.497 104.645L 147.903 102.512"/>
<path style="stroke:#000000; stroke-dasharray:6,3; stroke-width:1.9133; fill:none" d="M 197.595 100.821C 197.595 100.821 197.595 100.821 201.739 99.8681C 205.884 98.9141 214.173 97.0001 222.466 96.3601C 230.755 95.7231 239.044 96.3601 245.423 97.9531C 251.798 99.5471 256.262 102.098 258.493 103.371C 260.723 104.645 260.723 104.645 260.723 104.645"/>
<path style="stroke:#000000; stroke-dasharray:6,3; stroke-width:1.9133; fill:none" d="M 255.036 99.1881L 260.727 104.645L 253.134 102.512"/>
<path style="stroke:#000000; stroke-dasharray:6,3; stroke-width:1.9133; fill:none" d="M 302.825 100.821C 302.825 100.821 302.825 100.821 306.97 99.8681C 311.114 98.9141 319.403 97.0001 327.696 96.3601C 335.985 95.7231 344.274 96.3601 350.653 97.9531C 357.028 99.5471 361.493 102.098 363.723 103.371C 365.954 104.645 365.954 104.645 365.954 104.645"/>
<path style="stroke:#000000; stroke-dasharray:6,3; stroke-width:1.9133; fill:none" d="M 360.27 99.1881L 365.962 104.645L 358.368 102.512"/>
<path style="stroke:none; fill-rule:evenodd; fill:#000000" d="M 271.348 116.442L 267.774 116.442C 267.86 115.883 268.165 115.528 269.001 115.036L 269.958 114.516C 270.907 113.996 271.395 113.293 271.395 112.453C 271.395 111.887 271.165 111.356 270.762 110.989C 270.36 110.625 269.864 110.45 269.22 110.45C 268.36 110.45 267.716 110.758 267.341 111.336C 267.102 111.7 266.997 112.125 266.977 112.817L 267.833 112.817C 267.86 112.344 267.919 112.059 268.036 111.832C 268.259 111.411 268.708 111.153 269.223 111.153C 270.001 111.153 270.587 111.703 270.587 112.434C 270.587 112.973 270.266 113.438 269.653 113.782L 268.759 114.282C 267.317 115.09 266.899 115.735 266.821 117.243L 271.345 117.243L 271.348 116.442z"/>
<path style="stroke:none; fill-rule:evenodd; fill:#000000" d="M 373.813 114.141L 374.274 114.141C 375.212 114.141 375.692 114.563 375.692 115.375C 375.692 116.227 375.165 116.735 374.282 116.735C 373.36 116.735 372.907 116.27 372.852 115.266L 372.009 115.266C 372.044 115.805 372.138 116.157 372.302 116.457C 372.641 117.102 373.305 117.434 374.223 117.434C 375.606 117.434 376.497 116.606 376.497 115.325C 376.497 114.465 376.177 113.989 375.391 113.711C 375.993 113.465 376.298 112.985 376.298 112.309C 376.298 111.145 375.532 110.446 374.251 110.446C 372.899 110.446 372.177 111.196 372.149 112.653L 372.993 112.653C 373.001 112.227 373.04 111.989 373.145 111.77C 373.337 111.383 373.759 111.145 374.29 111.145C 375.04 111.145 375.493 111.598 375.493 112.344C 375.493 112.836 375.321 113.137 374.942 113.293C 374.712 113.391 374.411 113.43 373.809 113.442L 373.813 114.141z"/>
<path style="stroke:none; fill-rule:evenodd; fill:#000000" d="M 163.7 112.399L 163.7 117.239L 164.497 117.239L 164.497 110.442L 163.946 110.442C 163.653 111.485 163.466 111.629 162.177 111.793L 162.177 112.395L 163.7 112.399z"/>
<path style="stroke:none; fill-rule:evenodd; fill:#ffffff" d="M 27.3093 60.6291L 36.8757 60.6291L 36.8757 47.2391L 27.3093 47.2391L 27.3093 60.6291z"/>
<path style="stroke:#ffffff; stroke-width:0.0; fill:none" d="M 27.3093 60.6291L 36.8757 60.6291L 36.8757 47.2391L 27.3093 47.2391L 27.3093 60.6291z"/>
<path style="stroke:none; fill-rule:evenodd; fill:#000000" d="M 32.6257 50.8131C 31.946 51.0281 31.5554 51.2001 31.1608 51.4691C 30.2976 52.0711 29.8015 53.0121 29.8015 54.0161C 29.8015 55.6101 31.0515 56.9381 32.5632 56.9381C 34.2038 56.9381 35.5983 55.4301 35.5983 53.6681C 35.5983 52.8171 35.3093 51.9851 34.7663 51.3321C 34.3054 50.7741 34.0944 50.6141 32.9069 49.8911C 31.6804 49.1331 31.2038 48.6641 31.2038 48.2351C 31.2038 47.7971 31.6296 47.4501 32.1491 47.4501C 32.6257 47.4501 32.9187 47.5901 33.4147 48.0791C 33.9577 48.6181 34.1452 48.7351 34.4772 48.7351C 34.8366 48.7351 35.1022 48.4851 35.1022 48.1641C 35.1022 47.4461 33.9343 46.8481 32.5241 46.8481C 31.2624 46.8481 30.4968 47.3561 30.4968 48.1721C 30.4968 48.6531 30.7116 49.0431 31.3015 49.5941L 32.6257 50.8131zM 32.9929 51.1451C 33.8757 51.9961 34.2976 52.9461 34.2976 54.1101C 34.2976 55.4341 33.6804 56.3401 32.7546 56.3401C 31.8327 56.3401 31.1999 55.2861 31.1999 53.7311C 31.1999 52.2701 31.7937 51.4031 32.9929 51.1451z"/>
<path style="stroke:none; fill-rule:evenodd; fill:#000000" d="M 43.9968 54.8441L 43.1999 54.8441L 43.1999 59.8441L 43.9968 59.8441L 43.9968 54.8441zM 43.9968 52.8441L 43.1999 52.8441L 43.1999 53.8711L 43.9968 53.8711L 43.9968 52.8441z"/>
<path style="stroke:none; fill-rule:evenodd; fill:#000000" d="M 45.3991 54.7891L 45.3991 59.8401L 46.196 59.8401L 46.196 57.0511C 46.196 56.0201 46.7311 55.3441 47.5554 55.3441C 48.1882 55.3441 48.5905 55.7311 48.5905 56.3361L 48.5905 59.8401L 49.3874 59.8401L 49.3874 56.0241C 49.3874 55.1881 48.7585 54.6451 47.778 54.6451C 47.0241 54.6451 46.5358 54.9341 46.0905 55.6371L 46.0905 54.7891L 45.3991 54.7891z"/>
<path style="stroke:none; fill-rule:evenodd; fill:#000000" d="M 51.4968 54.8441L 50.6999 54.8441L 50.6999 59.8441L 51.4968 59.8441L 51.4968 54.8441zM 51.4968 52.8441L 50.6999 52.8441L 50.6999 53.8711L 51.4968 53.8711L 51.4968 52.8441z"/>
<path style="stroke:none; fill-rule:evenodd; fill:#000000" d="M 54.5983 54.8441L 53.8015 54.8441L 53.8015 53.4531L 53.0046 53.4531L 53.0046 54.8441L 52.3054 54.8441L 52.3054 55.5431L 53.0046 55.5431L 53.0046 59.2621C 53.0046 59.7581 53.3444 60.0391 53.9577 60.0391C 54.1452 60.0391 54.3366 60.0241 54.5983 59.9771L 54.5983 59.3291C 54.4968 59.3401 54.3757 59.3441 54.2272 59.3441C 53.8952 59.3441 53.8015 59.2501 53.8015 58.9071L 53.8015 55.5471L 54.5983 55.5471L 54.5983 54.8441z"/>
<path style="stroke:none; fill-rule:evenodd; fill:#000000" d="M 41.2976 43.3441L 40.3991 43.3441L 40.3991 42.5551C 40.3991 42.2191 40.6022 42.0471 40.9968 42.0471C 41.0671 42.0471 41.0983 42.0471 41.2937 42.0471L 41.2937 41.3951C 41.1061 41.3601 40.9968 41.3481 40.8249 41.3481C 40.0554 41.3481 39.5983 41.7701 39.5983 42.4931L 39.5983 43.3441L 39.0007 43.3441L 39.0007 44.0431L 39.5983 44.0431L 39.5983 48.3401L 40.3952 48.3401L 40.3952 44.0431L 41.2937 44.0431L 41.2976 43.3441z"/>
<path style="stroke:none; fill-rule:evenodd; fill:#000000" d="M 42.8991 43.3441L 42.1022 43.3441L 42.1022 48.3441L 42.8991 48.3441L 42.8991 43.3441zM 42.8991 41.3441L 42.1022 41.3441L 42.1022 42.3711L 42.8991 42.3711L 42.8991 41.3441z"/>
<path style="stroke:none; fill-rule:evenodd; fill:#000000" d="M 44.2976 43.2891L 44.2976 48.3401L 45.0944 48.3401L 45.0944 45.5511C 45.0944 44.5201 45.6296 43.8441 46.4538 43.8441C 47.0866 43.8441 47.489 44.2311 47.489 44.8361L 47.489 48.3401L 48.2858 48.3401L 48.2858 44.5241C 48.2858 43.6881 47.6569 43.1451 46.6765 43.1451C 45.9226 43.1451 45.4343 43.4341 44.989 44.1371L 44.989 43.2891L 44.2976 43.2891z"/>
<path style="stroke:none; fill-rule:evenodd; fill:#000000" d="M 54.0163 47.8751C 53.9304 47.8481 53.8913 47.8481 53.8405 47.8481C 53.5593 47.8481 53.403 47.7071 53.403 47.4571L 53.403 44.5161C 53.403 43.6291 52.7585 43.1531 51.528 43.1531C 50.8054 43.1531 50.2077 43.3681 49.8718 43.7501C 49.6452 44.0121 49.5515 44.3091 49.5319 44.8171L 50.3288 44.8171C 50.3952 44.1531 50.7546 43.8481 51.4968 43.8481C 52.2077 43.8481 52.6061 44.1181 52.6061 44.6021L 52.6061 44.8131C 52.6061 45.1491 52.4069 45.2931 51.7819 45.3711C 50.6608 45.5161 50.489 45.5551 50.1843 45.6801C 49.6061 45.9181 49.3093 46.3751 49.3093 47.0361C 49.3093 47.9531 49.9382 48.5361 50.9538 48.5361C 51.5827 48.5361 52.0905 48.3251 52.6569 47.8211C 52.7116 48.3131 52.9616 48.5361 53.4772 48.5361C 53.6374 48.5361 53.7624 48.5201 54.0202 48.4531L 54.0163 47.8751zM 52.5983 46.7541C 52.5983 47.0161 52.5241 47.1801 52.2819 47.3951C 51.9577 47.6881 51.5632 47.8361 51.0905 47.8361C 50.4655 47.8361 50.1022 47.5431 50.1022 47.0431C 50.1022 46.5241 50.4577 46.2581 51.3132 46.1371C 52.1569 46.0241 52.3288 45.9891 52.5983 45.8641L 52.5983 46.7541z"/>
<path style="stroke:none; fill-rule:evenodd; fill:#000000" d="M 54.8991 48.3441L 55.696 48.3441L 55.696 41.3481L 54.8991 41.3481L 54.8991 48.3441z"/>
<path style="stroke:#ff0000; stroke-dasharray:6,3; stroke-width:1.9133; fill:none" d="M 67.489 56.8131L 356.395 56.8131L 402.313 18.5471L 448.231 56.8131L 459.708 56.8131"/>
<path style="stroke:#00ff00; stroke-dasharray:6,3; stroke-width:1.9133; fill:none" d="M 63.6647 52.9891L 251.165 52.9891L 297.083 14.7231L 343.001 52.9891L 457.798 52.9891"/>
<path style="stroke:#0000ff; stroke-width:1.9133; fill:none" d="M 59.8366 49.1611L 145.934 49.1611L 191.852 10.8951L 237.77 49.1611L 453.97 49.1611"/>
<path style="stroke:none; fill-rule:evenodd; fill:#000000" d="M 11.1999 168.344L 12.2976 168.344L 12.2976 159.946L 11.1999 159.946L 11.1999 168.344z"/>
<path style="stroke:none; fill-rule:evenodd; fill:#000000" d="M 14.0983 162.317L 14.0983 168.34L 15.0983 168.34L 15.0983 164.993C 15.0983 163.754 15.7233 162.942 16.6882 162.942C 17.4265 162.942 17.8952 163.403 17.8952 164.133L 17.8952 168.336L 18.8952 168.336L 18.8952 163.782C 18.8952 162.782 18.153 162.137 16.9929 162.137C 16.1022 162.137 15.528 162.481 15.0007 163.321L 15.0007 162.309L 14.0983 162.317z"/>
<path style="stroke:none; fill-rule:evenodd; fill:#000000" d="M 20.2976 170.844L 21.2976 170.844L 21.2976 167.743C 21.7976 168.364 22.3601 168.641 23.1335 168.641C 24.6765 168.641 25.6921 167.383 25.6921 165.45C 25.6921 163.418 24.7077 162.145 23.1101 162.145C 22.2976 162.145 21.6413 162.512 21.196 163.223L 21.196 162.317L 20.2976 162.317L 20.2976 170.844zM 22.9616 163.043C 24.0085 163.043 24.6921 163.977 24.6921 165.426C 24.6921 166.801 23.9968 167.739 22.9616 167.739C 21.9577 167.739 21.2976 166.813 21.2976 165.391C 21.2976 163.969 21.9577 163.043 22.9616 163.043z"/>
<path style="stroke:none; fill-rule:evenodd; fill:#000000" d="M 31.5983 168.379L 31.5983 162.348L 30.5983 162.348L 30.5983 165.793C 30.5983 167.032 29.9538 167.844 28.946 167.844C 28.1843 167.844 27.6999 167.383 27.6999 166.653L 27.6999 162.348L 26.6999 162.348L 26.6999 167C 26.6999 168 27.4577 168.645 28.6491 168.645C 29.5476 168.645 30.1218 168.336 30.696 167.543L 30.696 168.383L 31.5983 168.379z"/>
<path style="stroke:none; fill-rule:evenodd; fill:#000000" d="M 35.2976 162.344L 34.3991 162.344L 34.3991 160.676L 33.3991 160.676L 33.3991 162.344L 32.5007 162.344L 32.5007 163.141L 33.3991 163.141L 33.3991 167.688C 33.3991 168.293 33.8015 168.637 34.5319 168.637C 34.7546 168.637 34.9811 168.614 35.2937 168.555L 35.2937 167.719C 35.1804 167.809 35.0437 167.836 34.8757 167.836C 34.5007 167.836 34.3952 167.723 34.3952 167.293L 34.3952 163.141L 35.2937 163.141L 35.2976 162.344z"/>
<path style="stroke:none; fill-rule:evenodd; fill:#000000" d="M 14.5983 110.942L 17.5007 102.543L 16.3679 102.543L 14.0515 109.657L 11.5983 102.543L 10.4538 102.543L 13.4577 110.942L 14.5983 110.942z"/>
<path style="stroke:none; fill-rule:evenodd; fill:#000000" d="M 14.2585 97.0431L 12.5046 101.364L 13.2937 101.364L 14.6804 97.9531L 16.0788 101.364L 16.8679 101.364L 15.0905 97.0431L 14.2585 97.0431z"/>
<path style="stroke:none; fill-rule:evenodd; fill:#000000" d="M 393.899 79.1411L 393.899 80.8401L 394.696 80.8401L 394.696 79.1411L 395.77 79.1411L 395.77 78.4421L 394.696 78.4421L 394.696 74.0431L 394.087 74.0431L 391.067 78.2621L 391.067 79.1411L 393.899 79.1411zM 393.899 78.4421L 391.805 78.4421L 393.899 75.4961L 393.899 78.4421z"/>
<path style="stroke:none; fill-rule:evenodd; fill:#000000" d="M 287.712 77.7431L 288.173 77.7431C 289.11 77.7431 289.591 78.1641 289.591 78.9771C 289.591 79.8291 289.063 80.3361 288.18 80.3361C 287.259 80.3361 286.805 79.8711 286.751 78.8681L 285.907 78.8681C 285.942 79.4071 286.036 79.7581 286.2 80.0591C 286.54 80.7031 287.204 81.0361 288.122 81.0361C 289.505 81.0361 290.395 80.2071 290.395 78.9261C 290.395 78.0671 290.075 77.5901 289.29 77.3131C 289.891 77.0671 290.196 76.5861 290.196 75.9111C 290.196 74.7461 289.43 74.0471 288.149 74.0471C 286.798 74.0471 286.075 74.7971 286.048 76.2541L 286.891 76.2541C 286.899 75.8291 286.938 75.5901 287.044 75.3711C 287.235 74.9851 287.657 74.7461 288.188 74.7461C 288.938 74.7461 289.391 75.2001 289.391 75.9461C 289.391 76.4381 289.22 76.7391 288.841 76.8951C 288.61 76.9931 288.309 77.0321 287.708 77.0431L 287.712 77.7431z"/>
<path style="stroke:none; fill-rule:evenodd; fill:#000000" d="M 185.251 80.0431L 181.677 80.0431C 181.762 79.4851 182.067 79.1291 182.903 78.6371L 183.86 78.1181C 184.809 77.5981 185.298 76.8951 185.298 76.0551C 185.298 75.4891 185.067 74.9571 184.665 74.5901C 184.262 74.2271 183.766 74.0511 183.122 74.0511C 182.262 74.0511 181.618 74.3601 181.243 74.9381C 181.005 75.3011 180.899 75.7271 180.88 76.4181L 181.735 76.4181C 181.762 75.9461 181.821 75.6611 181.938 75.4341C 182.161 75.0121 182.61 74.7541 183.126 74.7541C 183.903 74.7541 184.489 75.3051 184.489 76.0361C 184.489 76.5751 184.169 77.0391 183.555 77.3831L 182.661 77.8831C 181.22 78.6921 180.802 79.3361 180.723 80.8441L 185.247 80.8441L 185.251 80.0431z"/>
<path style="stroke:none; fill-rule:evenodd; fill:#000000" d="M 77.5983 76.0001L 77.5983 80.8401L 78.3952 80.8401L 78.3952 74.0431L 77.8444 74.0431C 77.5515 75.0861 77.364 75.2311 76.0749 75.3951L 76.0749 75.9961L 77.5983 76.0001z"/>
</g>
</svg>