<?xml version="1.0" encoding="UTF-8" standalone="no"?>
<!-- Created with Inkscape (http://www.inkscape.org/) -->

<svg
   xmlns:dc="http://purl.org/dc/elements/1.1/"
   xmlns:cc="http://creativecommons.org/ns#"
   xmlns:rdf="http://www.w3.org/1999/02/22-rdf-syntax-ns#"
   xmlns:svg="http://www.w3.org/2000/svg"
   xmlns="http://www.w3.org/2000/svg"
   xmlns:sodipodi="http://sodipodi.sourceforge.net/DTD/sodipodi-0.dtd"
   xmlns:inkscape="http://www.inkscape.org/namespaces/inkscape"
   id="svg2"
   version="1.1"
   inkscape:version="0.47 r22583"
   width="290"
   height="252.5"
   xml:space="preserve"
   sodipodi:docname="fig_distrib_sem.svg"
   inkscape:export-filename="/Users/oreilly/svn_docs/figs/fig_distrib_sem.png"
   inkscape:export-xdpi="150"
   inkscape:export-ydpi="150"><metadata
     id="metadata8"><rdf:RDF><cc:Work
         rdf:about=""><dc:format>image/svg+xml</dc:format><dc:type
           rdf:resource="http://purl.org/dc/dcmitype/StillImage" /><dc:title></dc:title></cc:Work></rdf:RDF></metadata><defs
     id="defs6"><inkscape:perspective
       sodipodi:type="inkscape:persp3d"
       inkscape:vp_x="0 : 0.5 : 1"
       inkscape:vp_y="0 : 1000 : 0"
       inkscape:vp_z="1 : 0.5 : 1"
       inkscape:persp3d-origin="0.5 : 0.33333333 : 1"
       id="perspective10" /></defs><sodipodi:namedview
     pagecolor="#ffffff"
     bordercolor="#666666"
     borderopacity="1"
     objecttolerance="10"
     gridtolerance="10"
     guidetolerance="10"
     inkscape:pageopacity="0"
     inkscape:pageshadow="2"
     inkscape:window-width="640"
     inkscape:window-height="480"
     id="namedview4"
     showgrid="false"
     inkscape:zoom="0.93465347"
     inkscape:cx="145"
     inkscape:cy="126.25"
     inkscape:current-layer="g12" /><g
     id="g12"
     inkscape:groupmode="layer"
     inkscape:label="fig_distrib_sem"
     transform="matrix(1.25,0,0,-1.25,0,252.5)"><rect
       style="fill:#ffffff;fill-opacity:1;fill-rule:nonzero;stroke:#ffffff;stroke-width:0.80577606;stroke-miterlimit:4;stroke-opacity:1;stroke-dasharray:none;stroke-dashoffset:0"
       id="rect2986"
       width="238.7993"
       height="204.56203"
       x="-5.1327052"
       y="-203.70897"
       transform="scale(1,-1)" /><g
       id="g14"
       transform="scale(0.1,0.1)"><path
         d="m 233.148,296.078 c 7.977,59.809 55.825,118.824 171.461,148.332 115.633,29.504 299.055,29.504 410.703,-4.785 111.649,-34.293 151.52,-102.875 165.079,-165.879 13.558,-63 0.797,-120.418 -70.977,-153.914 C 837.641,86.3398 706.855,76.7695 593.613,79.9609 480.367,83.1484 384.672,99.0977 320.871,137.379 c -63.797,38.277 -95.695,98.887 -87.723,158.699"
         style="fill:none;stroke:#000000;stroke-opacity:1;stroke-width:19.1396;stroke-linecap:butt;stroke-linejoin:miter;stroke-miterlimit:10;stroke-dasharray:none"
         id="path16" /><path
         d="m 1296.99,326.383 c 14.36,66.191 74.97,137.965 190.6,167.469 115.64,29.507 286.3,16.75 391.57,-23.922 105.26,-40.672 145.14,-109.258 158.7,-172.258 13.55,-63 0.79,-120.418 -74.97,-164.281 -75.76,-43.8637 -214.52,-74.1683 -327.77,-70.9769 -113.24,3.1914 -200.96,39.8749 -260.77,88.5199 -59.81,48.648 -91.71,109.257 -77.36,175.449"
         style="fill:none;stroke:#000000;stroke-opacity:1;stroke-width:19.1396;stroke-linecap:butt;stroke-linejoin:miter;stroke-miterlimit:10;stroke-dasharray:none"
         id="path18" /><path
         d="m 94.3867,1454.02 c 35.0903,63 86.1293,115.64 165.0783,143.55 78.953,27.91 185.816,31.1 249.613,7.18 63.797,-23.93 84.535,-74.96 98.887,-132.39 14.355,-57.41 22.332,-121.21 49.445,-187.4 27.113,-66.19 73.367,-134.78 100.485,-198.58 27.113,-63.79 35.085,-122.81 35.085,-174.646 0,-51.836 -7.972,-96.496 -74.96,-96.496 -66.989,0 -192.993,44.66 -314.211,77.356 -121.215,32.699 -237.649,53.433 -300.649,110.056 -63.0038,56.62 -72.5702,149.13 -67.785,232.06 4.7812,82.94 23.9219,156.31 59.0117,219.31"
         style="fill:none;stroke:#000000;stroke-opacity:1;stroke-width:19.1396;stroke-linecap:butt;stroke-linejoin:miter;stroke-miterlimit:10;stroke-dasharray:none"
         id="path20" /><path
         d="m 1000.33,1341.58 c -31.9,-12.76 -60.611,-28.71 -84.537,-62.2 -23.922,-33.5 -43.063,-84.54 -59.012,-123.61 -15.949,-39.08 -28.711,-66.2 -31.101,-112.45 -2.395,-46.254 5.582,-111.648 23.125,-151.523 17.547,-39.875 44.66,-54.231 82.14,-57.418 37.485,-3.191 85.335,4.785 127.595,-3.191 42.27,-7.973 78.96,-31.899 126.01,-31.102 47.05,0.797 104.47,26.316 149.92,75.762 45.46,49.445 78.96,122.812 69.39,184.222 -9.57,61.4 -62.21,110.85 -119.63,161.09 -57.42,50.24 -119.62,101.28 -168.27,122.01 -48.64,20.74 -83.73,11.17 -115.63,-1.59"
         style="fill:none;stroke:#000000;stroke-opacity:1;stroke-width:19.1396;stroke-linecap:butt;stroke-linejoin:miter;stroke-miterlimit:10;stroke-dasharray:none"
         id="path22" /><path
         d="m 1292.21,1847.18 c -35.09,-22.33 -23.93,-54.23 -17.55,-87.72 6.38,-33.5 7.98,-68.58 0.8,-110.85 -7.18,-42.27 -23.13,-91.71 -39.87,-131.59 -16.75,-39.87 -34.3,-70.18 -43.87,-96.49 -9.57,-26.32 -11.16,-48.65 2.4,-70.18 13.55,-21.53 42.26,-42.27 78.15,-66.99 35.89,-24.72 78.95,-53.43 133.98,-68.58 55.02,-15.16 122.01,-16.75 175.45,-7.98 53.42,8.77 93.3,27.91 133.97,32.7 40.67,4.79 82.14,-4.79 127.6,-23.93 45.45,-19.13 94.9,-47.84 143.55,-66.98 48.64,-19.14 96.49,-28.71 115.63,1.59 19.14,30.3 9.57,100.48 -9.57,173.05 -19.14,72.57 -47.85,147.54 -88.52,231.27 -40.67,83.74 -93.31,176.25 -181.03,234.46 -87.72,58.22 -210.53,82.15 -312.61,87.73 -102.08,5.58 -183.42,-7.18 -218.51,-29.51"
         style="fill:none;stroke:#000000;stroke-opacity:1;stroke-width:19.1396;stroke-linecap:butt;stroke-linejoin:miter;stroke-miterlimit:10;stroke-dasharray:none"
         id="path24" /><path
         d="m 1517.1,1149.38 c -55.83,-21.53 -70.18,-42.26 -79.75,-69.38 -9.57,-27.11 -14.35,-60.61 -24.73,-102.871 -10.36,-42.27 -26.31,-93.309 -17.54,-128.395 8.78,-35.089 42.27,-54.23 95.7,-70.976 53.43,-16.746 126.8,-31.102 194.59,-28.711 67.78,2.394 129.99,21.531 201.76,39.875 71.77,18.344 153.12,35.887 200.96,72.57 47.86,36.684 62.21,92.508 51.84,133.977 -10.36,41.471 -45.45,68.581 -86.13,86.131 -40.67,17.54 -86.92,25.52 -135.57,46.25 -48.64,20.74 -99.68,54.23 -173.85,59.81 -74.17,5.59 -171.46,-16.74 -227.28,-38.28"
         style="fill:none;stroke:#000000;stroke-opacity:1;stroke-width:19.1396;stroke-linecap:butt;stroke-linejoin:miter;stroke-miterlimit:10;stroke-dasharray:none"
         id="path26" /><path
         d="m 1614.39,1215.57 c 0,0 0,0 -3.19,10.37 -3.19,10.37 -9.57,31.1 -14.36,59.02 -4.78,27.91 -7.97,63 1.6,92.5 9.57,29.51 31.9,53.43 74.96,61.41 43.07,7.97 106.87,0 153.92,-13.56 47.05,-13.55 77.36,-32.69 72.57,-66.99 -4.78,-34.29 -44.66,-83.73 -64.6,-108.45 -19.93,-24.73 -19.93,-24.73 -19.93,-24.73"
         style="fill:none;stroke:#000000;stroke-opacity:1;stroke-width:19.1396;stroke-linecap:butt;stroke-linejoin:miter;stroke-miterlimit:10;stroke-dasharray:none"
         id="path28" /><path
         d="m 1279.45,1780.2 c 0,0 0,0 23.12,3.98 23.13,3.99 69.39,11.96 98.09,11.96 28.72,0 39.88,-7.97 64.6,-32.69 24.72,-24.73 63,-66.2 91.71,-106.07 28.71,-39.87 47.85,-78.15 57.42,-121.22 9.57,-43.06 9.57,-90.91 -3.19,-127.59 -12.76,-36.69 -38.28,-62.21 -51.84,-94.11 -13.56,-31.9 -15.15,-70.17 -15.95,-89.32 -0.79,-19.14 -0.79,-19.14 -0.79,-19.14"
         style="fill:none;stroke:#000000;stroke-opacity:1;stroke-width:19.1396;stroke-linecap:butt;stroke-linejoin:miter;stroke-miterlimit:10;stroke-dasharray:none"
         id="path30" /><path
         d="m 1561.76,1153.37 c 0,0 0,0 6.38,-5.58 6.38,-5.58 19.14,-16.75 35.09,-27.91 15.95,-11.17 35.09,-22.33 36.68,-34.29 1.59,-11.97 -14.36,-24.73 -35.09,-32.7 -20.73,-7.98 -46.25,-11.17 -70.18,-6.38 -23.92,4.78 -46.25,17.54 -46.25,33.49 0,15.95 22.33,35.09 28.71,67.79 6.38,32.69 -3.19,78.95 -16.75,115.64 -13.56,36.68 -31.1,63.79 -52.64,81.34 -21.53,17.54 -47.05,25.52 -82.14,41.47 -35.09,15.95 -79.74,39.87 -114.03,46.25 -34.3,6.38 -58.22,-4.78 -78.95,-23.13 -20.74,-18.34 -38.29,-43.86 -43.87,-74.16 -5.58,-30.31 0.8,-65.4 2.4,-98.09 1.59,-32.7 -1.6,-63 -14.36,-75.76 -12.76,-12.76 -35.09,-7.98 -51.04,15.15 -15.95,23.12 -25.52,64.59 -16.75,104.47 8.78,39.87 35.89,78.15 42.27,107.66 6.38,29.51 -7.97,50.24 -33.49,57.42 -25.52,7.18 -62.207,0.79 -106.867,-2.39 -44.656,-3.2 -97.293,-3.2 -142.75,-2.4 -45.453,0.8 -83.735,2.4 -112.445,6.38 -28.708,3.99 -47.848,10.37 -65.391,0.8 -17.547,-9.57 -33.496,-35.09 -43.067,-71.77 -9.57,-36.69 -12.757,-84.54 -33.492,-117.23 -20.734,-32.7 -59.015,-50.24 -94.105,-52.64 -35.086,-2.39 -66.988,10.37 -86.926,31.9 -19.934,21.53 -27.91,51.84 -25.519,84.53 2.394,32.7 15.152,67.79 47.054,92.51 31.899,24.72 82.938,39.08 122.813,47.06 39.871,7.97 68.582,9.56 95.695,12.75 27.117,3.2 52.637,7.98 69.383,23.93 16.746,15.95 24.722,43.06 52.633,59.81 27.914,16.75 75.761,23.13 116.433,23.13 40.672,0 74.164,-6.38 110.051,-18.35 35.887,-11.96 74.17,-29.5 102.87,-51.03 28.72,-21.54 47.86,-47.06 73.38,-52.64 25.52,-5.58 57.41,8.78 94.1,27.12 36.68,18.34 78.15,40.67 115.63,43.06 37.48,2.39 70.98,-15.15 98.09,-34.29 27.12,-19.14 47.85,-39.88 61.41,-82.14 13.56,-42.27 19.94,-106.07 27.91,-153.92 7.98,-47.84 17.55,-79.75 22.33,-95.69 4.79,-15.95 4.79,-15.95 4.79,-15.95"
         style="fill:none;stroke:#000000;stroke-opacity:1;stroke-width:19.1396;stroke-linecap:butt;stroke-linejoin:miter;stroke-miterlimit:10;stroke-dasharray:114.838,38.2792;stroke-dashoffset:0"
         id="path32" /><path
         d="m 408.594,1201.22 c 0,0 0,0 7.976,12.76 7.977,12.76 23.926,38.28 45.457,56.62 21.532,18.35 48.645,29.51 75.762,33.5 27.113,3.98 54.227,0.79 87.723,-5.59 33.492,-6.38 73.367,-15.95 106.863,-31.9 33.492,-15.95 60.605,-38.27 94.102,-52.63 33.496,-14.36 73.367,-20.73 118.027,-17.54 44.66,3.18 94.106,15.95 132.386,17.54 38.27,1.59 65.39,-7.98 84.53,-27.91 19.14,-19.94 30.3,-50.24 19.14,-65.39 -11.17,-15.16 -44.66,-15.16 -76.56,-14.36 -31.9,0.8 -62.2,2.39 -106.062,15.15 -43.864,12.76 -101.282,36.69 -153.118,55.83 -51.84,19.14 -98.093,33.49 -135.574,23.92 -37.48,-9.57 -66.191,-43.06 -95.699,-61.4 -29.504,-18.35 -59.809,-21.54 -94.899,-19.14 -35.089,2.39 -74.964,10.36 -93.304,27.11 -18.344,16.75 -15.153,42.26 -13.559,55.03 1.594,12.75 1.594,12.75 1.594,12.75"
         style="fill:none;stroke:#000000;stroke-opacity:1;stroke-width:19.1396;stroke-linecap:butt;stroke-linejoin:miter;stroke-miterlimit:10;stroke-dasharray:19.1396,19.1396;stroke-dashoffset:0"
         id="path34" /><path
         d="m 1145.47,952.406 c 0,0 0,0 3.19,20.735 3.19,20.734 9.57,62.199 23.93,100.479 14.35,38.28 36.68,73.37 59.01,103.68 22.33,30.3 44.66,55.82 70.18,78.95 25.52,23.13 54.22,43.86 77.35,56.62 23.13,12.76 40.67,17.54 52.64,11.16 11.96,-6.38 18.34,-23.92 11.16,-45.45 -7.18,-21.54 -27.91,-47.06 -50.24,-70.18 -22.33,-23.13 -46.25,-43.86 -70.18,-71.78 -23.92,-27.91 -47.85,-63 -63,-93.3 -15.15,-30.3 -21.53,-55.824 -29.51,-73.371 -7.97,-17.543 -17.54,-27.113 -31.89,-28.707 -14.36,-1.597 -33.5,4.785 -43.07,7.973 -9.57,3.191 -9.57,3.191 -9.57,3.191"
         style="fill:none;stroke:#000000;stroke-opacity:1;stroke-width:19.1396;stroke-linecap:butt;stroke-linejoin:miter;stroke-miterlimit:10;stroke-dasharray:19.1396,19.1396;stroke-dashoffset:0"
         id="path36" /><path
         d="m 265.047,1564.87 c 0,0 0,0 17.547,4.79 17.543,4.78 52.633,14.35 93.304,20.73 40.672,6.38 86.926,9.57 125.204,16.75 38.281,7.18 68.586,18.34 101.281,37.48 32.699,19.14 67.789,46.26 101.281,54.23 33.496,7.97 65.395,-3.19 78.152,-17.55 12.762,-14.35 6.383,-31.89 -11.961,-43.85 -18.343,-11.97 -48.648,-18.35 -80.546,-31.91 -31.899,-13.55 -65.395,-34.29 -102.079,-48.64 -36.683,-14.36 -76.558,-22.33 -111.644,-34.29 -35.09,-11.97 -65.395,-27.91 -101.281,-36.69 -35.887,-8.77 -77.356,-10.37 -102.875,-1.59 -25.52,8.77 -35.09,27.91 -32.7,44.65 2.395,16.75 16.75,31.11 23.926,38.29 7.176,7.17 7.176,7.17 7.176,7.17"
         style="fill:none;stroke:#000000;stroke-opacity:1;stroke-width:19.1396;stroke-linecap:butt;stroke-linejoin:miter;stroke-miterlimit:10;stroke-dasharray:19.1396,19.1396;stroke-dashoffset:0"
         id="path38" /><path
         d="m 1882.34,1225.14 c 0,0 0,0 -1.59,4.79 -1.59,4.78 -4.79,14.36 -0.8,27.91 3.99,13.56 15.16,31.11 33.5,39.87 18.34,8.78 43.86,8.78 70.97,2.4 27.12,-6.38 55.83,-19.14 72.57,-42.27 16.75,-23.13 21.54,-56.62 13.56,-73.37 -7.98,-16.74 -28.71,-16.74 -47.05,-18.34 -18.34,-1.59 -34.29,-4.78 -47.85,-15.15 -13.56,-10.37 -24.72,-27.91 -23.92,-43.86 0.79,-15.95 13.55,-30.31 35.09,-46.26 21.53,-15.95 51.83,-33.49 67.78,-53.43 15.95,-19.934 17.54,-42.266 3.19,-54.227 -14.35,-11.961 -44.66,-13.558 -78.95,2.395 -34.29,15.949 -72.57,49.442 -105.27,76.552 -32.69,27.12 -59.81,47.85 -63.8,67.79 -3.98,19.94 15.16,39.08 37.48,47.05 22.34,7.97 47.86,4.79 63.8,9.57 15.95,4.79 22.33,17.55 15.16,31.1 -7.18,13.56 -27.92,27.91 -38.28,35.09 -10.37,7.18 -10.37,7.18 -10.37,7.18"
         style="fill:none;stroke:#000000;stroke-opacity:1;stroke-width:19.1396;stroke-linecap:butt;stroke-linejoin:miter;stroke-miterlimit:10;stroke-dasharray:19.1396,19.1396;stroke-dashoffset:0"
         id="path40" /><path
         d="m 1882.34,502.625 47.86,258.387"
         style="fill:none;stroke:#000000;stroke-opacity:1;stroke-width:19.1396;stroke-linecap:butt;stroke-linejoin:miter;stroke-miterlimit:10;stroke-dasharray:none"
         id="path42" /><path
         d="m 1915.11,574.418 -32.77,-71.793 -4.88,78.766"
         style="fill:none;stroke:#000000;stroke-opacity:1;stroke-width:19.1396;stroke-linecap:butt;stroke-linejoin:miter;stroke-miterlimit:10;stroke-dasharray:none"
         id="path44" /><path
         d="m 1897.43,689.215 32.77,71.797 4.87,-78.766"
         style="fill:none;stroke:#000000;stroke-opacity:1;stroke-width:19.1396;stroke-linecap:butt;stroke-linejoin:miter;stroke-miterlimit:10;stroke-dasharray:none"
         id="path46" /><path
         d="m 2021.11,469.133 c 0,0 0,0 28.71,41.469 28.71,41.468 86.13,124.406 133.97,206.546 47.85,82.141 86.13,163.485 85.33,245.625 -0.79,82.137 -40.67,165.077 -60.6,206.547 -19.94,41.47 -19.94,41.47 -19.94,41.47"
         style="fill:none;stroke:#000000;stroke-opacity:1;stroke-width:19.1396;stroke-linecap:butt;stroke-linejoin:miter;stroke-miterlimit:10;stroke-dasharray:none"
         id="path48" /><path
         d="m 2080.42,521.184 -59.31,-52.051 27.84,73.84"
         style="fill:none;stroke:#000000;stroke-opacity:1;stroke-width:19.1396;stroke-linecap:butt;stroke-linejoin:miter;stroke-miterlimit:10;stroke-dasharray:none"
         id="path50" /><path
         d="m 2204.5,1133.5 -15.92,77.29 50.42,-60.7"
         style="fill:none;stroke:#000000;stroke-opacity:1;stroke-width:19.1396;stroke-linecap:butt;stroke-linejoin:miter;stroke-miterlimit:10;stroke-dasharray:none"
         id="path52" /><path
         d="m 1686.16,526.551 -177.04,205.75"
         style="fill:none;stroke:#000000;stroke-opacity:1;stroke-width:19.1396;stroke-linecap:butt;stroke-linejoin:miter;stroke-miterlimit:10;stroke-dasharray:none"
         id="path54" /><path
         d="m 1650.74,597.066 35.42,-70.515 -64.44,45.547"
         style="fill:none;stroke:#000000;stroke-opacity:1;stroke-width:19.1396;stroke-linecap:butt;stroke-linejoin:miter;stroke-miterlimit:10;stroke-dasharray:none"
         id="path56" /><path
         d="m 1544.55,661.785 -35.43,70.516 64.45,-45.551"
         style="fill:none;stroke:#000000;stroke-opacity:1;stroke-width:19.1396;stroke-linecap:butt;stroke-linejoin:miter;stroke-miterlimit:10;stroke-dasharray:none"
         id="path58" /><path
         d="m 1489.98,550.473 -157.9,210.539"
         style="fill:none;stroke:#000000;stroke-opacity:1;stroke-width:19.1396;stroke-linecap:butt;stroke-linejoin:miter;stroke-miterlimit:10;stroke-dasharray:none"
         id="path60" /><path
         d="m 1459.36,623.203 30.62,-72.73 -61.25,49.765"
         style="fill:none;stroke:#000000;stroke-opacity:1;stroke-width:19.1396;stroke-linecap:butt;stroke-linejoin:miter;stroke-miterlimit:10;stroke-dasharray:none"
         id="path62" /><path
         d="m 1362.7,688.277 -30.62,72.735 61.25,-49.766"
         style="fill:none;stroke:#000000;stroke-opacity:1;stroke-width:19.1396;stroke-linecap:butt;stroke-linejoin:miter;stroke-miterlimit:10;stroke-dasharray:none"
         id="path64" /><path
         d="M 1389.5,478.699 1140.68,641.387"
         style="fill:none;stroke:#000000;stroke-opacity:1;stroke-width:19.1396;stroke-linecap:butt;stroke-linejoin:miter;stroke-miterlimit:10;stroke-dasharray:none"
         id="path66" /><path
         d="m 1335.9,536.617 53.6,-57.918 -74.55,25.879"
         style="fill:none;stroke:#000000;stroke-opacity:1;stroke-width:19.1396;stroke-linecap:butt;stroke-linejoin:miter;stroke-miterlimit:10;stroke-dasharray:none"
         id="path68" /><path
         d="m 1194.29,583.473 -53.61,57.914 74.55,-25.875"
         style="fill:none;stroke:#000000;stroke-opacity:1;stroke-width:19.1396;stroke-linecap:butt;stroke-linejoin:miter;stroke-miterlimit:10;stroke-dasharray:none"
         id="path70" /><path
         d="m 666.98,507.41 47.848,272.738"
         style="fill:none;stroke:#000000;stroke-opacity:1;stroke-width:19.1396;stroke-linecap:butt;stroke-linejoin:miter;stroke-miterlimit:10;stroke-dasharray:none"
         id="path72" /><path
         d="M 699.062,579.508 666.98,507.41 661.359,586.125"
         style="fill:none;stroke:#000000;stroke-opacity:1;stroke-width:19.1396;stroke-linecap:butt;stroke-linejoin:miter;stroke-miterlimit:10;stroke-dasharray:none"
         id="path74" /><path
         d="m 682.75,708.051 32.078,72.097 5.625,-78.714"
         style="fill:none;stroke:#000000;stroke-opacity:1;stroke-width:19.1396;stroke-linecap:butt;stroke-linejoin:miter;stroke-miterlimit:10;stroke-dasharray:none"
         id="path76" /><path
         d="M 911.012,449.992 1169.39,746.656"
         style="fill:none;stroke:#000000;stroke-opacity:1;stroke-width:19.1396;stroke-linecap:butt;stroke-linejoin:miter;stroke-miterlimit:10;stroke-dasharray:none"
         id="path78" /><path
         d="m 975.727,495.152 -64.715,-45.16 35.847,70.301"
         style="fill:none;stroke:#000000;stroke-opacity:1;stroke-width:19.1396;stroke-linecap:butt;stroke-linejoin:miter;stroke-miterlimit:10;stroke-dasharray:none"
         id="path80" /><path
         d="m 1104.68,701.496 64.71,45.16 -35.84,-70.304"
         style="fill:none;stroke:#000000;stroke-opacity:1;stroke-width:19.1396;stroke-linecap:butt;stroke-linejoin:miter;stroke-miterlimit:10;stroke-dasharray:none"
         id="path82" /><path
         d="m 968.43,411.711 368.44,248.816"
         style="fill:none;stroke:#000000;stroke-opacity:1;stroke-width:19.1396;stroke-linecap:butt;stroke-linejoin:miter;stroke-miterlimit:10;stroke-dasharray:none"
         id="path84" /><path
         d="m 1042.59,438.695 -74.16,-26.984 52.73,58.711"
         style="fill:none;stroke:#000000;stroke-opacity:1;stroke-width:19.1396;stroke-linecap:butt;stroke-linejoin:miter;stroke-miterlimit:10;stroke-dasharray:none"
         id="path86" /><path
         d="m 1262.71,633.543 74.16,26.984 -52.74,-58.707"
         style="fill:none;stroke:#000000;stroke-opacity:1;stroke-width:19.1396;stroke-linecap:butt;stroke-linejoin:miter;stroke-miterlimit:10;stroke-dasharray:none"
         id="path88" /><path
         d="M 820.098,493.055 963.645,765.793"
         style="fill:none;stroke:#000000;stroke-opacity:1;stroke-width:19.1396;stroke-linecap:butt;stroke-linejoin:miter;stroke-miterlimit:10;stroke-dasharray:none"
         id="path90" /><path
         d="m 872.691,551.891 -52.593,-58.836 18.718,76.664"
         style="fill:none;stroke:#000000;stroke-opacity:1;stroke-width:19.1396;stroke-linecap:butt;stroke-linejoin:miter;stroke-miterlimit:10;stroke-dasharray:none"
         id="path92" /><path
         d="m 911.051,706.961 52.594,58.832 -18.719,-76.66"
         style="fill:none;stroke:#000000;stroke-opacity:1;stroke-width:19.1396;stroke-linecap:butt;stroke-linejoin:miter;stroke-miterlimit:10;stroke-dasharray:none"
         id="path94" /><path
         d="M 533.004,502.625 442.09,804.074"
         style="fill:none;stroke:#000000;stroke-opacity:1;stroke-width:19.1396;stroke-linecap:butt;stroke-linejoin:miter;stroke-miterlimit:10;stroke-dasharray:none"
         id="path96" /><path
         d="m 529.223,581.449 3.781,-78.824 -40.43,67.77"
         style="fill:none;stroke:#000000;stroke-opacity:1;stroke-width:19.1396;stroke-linecap:butt;stroke-linejoin:miter;stroke-miterlimit:10;stroke-dasharray:none"
         id="path98" /><path
         d="m 445.871,725.25 -3.781,78.824 40.43,-67.769"
         style="fill:none;stroke:#000000;stroke-opacity:1;stroke-width:19.1396;stroke-linecap:butt;stroke-linejoin:miter;stroke-miterlimit:10;stroke-dasharray:none"
         id="path100" /><path
         d="m 1006.71,253.809 277.52,38.281"
         style="fill:none;stroke:#000000;stroke-opacity:1;stroke-width:19.1396;stroke-linecap:butt;stroke-linejoin:miter;stroke-miterlimit:10;stroke-dasharray:none"
         id="path102" /><path
         d="m 1085.16,245.312 -78.45,8.497 73.22,29.421"
         style="fill:none;stroke:#000000;stroke-opacity:1;stroke-width:19.1396;stroke-linecap:butt;stroke-linejoin:miter;stroke-miterlimit:10;stroke-dasharray:none"
         id="path104" /><path
         d="m 1205.78,300.59 78.45,-8.5 -73.22,-29.422"
         style="fill:none;stroke:#000000;stroke-opacity:1;stroke-width:19.1396;stroke-linecap:butt;stroke-linejoin:miter;stroke-miterlimit:10;stroke-dasharray:none"
         id="path106" /><g
         id="g108"
         transform="scale(10,10)"><text
           transform="matrix(1,0,0,-1,30.3328,22.9121)"
           id="text110"><tspan
             style="fill:#000000;fill-opacity:1;fill-rule:nonzero;stroke:none;font-family:Helvetica;font-variant:normal;font-weight:normal;font-size:11.4838;writing-mode:lr;-inkscape-font-specification:Helvetica"
             x="0 6.3849928 10.2090982 13.4015946 19.7865874 26.1715802 32.556573 36.3806784 42.7656712 49.150664 55.5356568"
             y="0"
             sodipodi:role="line"
             id="tspan112">orthography</tspan><tspan
             style="fill:#000000;fill-opacity:1;fill-rule:nonzero;stroke:none;font-family:Helvetica;font-variant:normal;font-weight:normal;font-size:11.4838;writing-mode:lr;-inkscape-font-specification:Helvetica"
             x="105.268 111.6529928 118.0379856 124.4229784 130.8079712 137.192964 139.7423676 146.1273604 152.5123532"
             y="-1.43555"
             sodipodi:role="line"
             id="tspan114">phonology</tspan><tspan
             style="fill:#000000;fill-opacity:1;fill-rule:nonzero;stroke:none;font-family:Helvetica;font-variant:normal;font-weight:normal;font-size:11.4838;writing-mode:lr;-inkscape-font-specification:Helvetica"
             x="-12.44 -6.0550072 -0.3131072 2.8793892 5.4287928 11.8137856"
             y="-82.77855"
             sodipodi:role="line"
             id="tspan116">action</tspan><tspan
             style="fill:#000000;fill-opacity:1;fill-rule:nonzero;stroke:none;font-family:Helvetica;font-variant:normal;font-weight:normal;font-size:11.4838;writing-mode:lr;-inkscape-font-specification:Helvetica"
             x="-12.44 -2.8625108 3.522482 7.3465874 9.895991 16.2809838 22.6659766 25.858473 32.2434658"
             y="-71.29495"
             sodipodi:role="line"
             id="tspan118"> oriented</tspan><tspan
             style="fill:#000000;fill-opacity:1;fill-rule:nonzero;stroke:none;font-family:Helvetica;font-variant:normal;font-weight:normal;font-size:11.4838;writing-mode:lr;-inkscape-font-specification:Helvetica"
             x="56.4623 59.6547964 66.0397892 71.7816892 74.9741856 77.5235892 80.0729928"
             y="-64.11761"
             sodipodi:role="line"
             id="tspan120">tactile</tspan><tspan
             style="fill:#000000;fill-opacity:1;fill-rule:nonzero;stroke:none;font-family:Helvetica;font-variant:normal;font-weight:normal;font-size:11.4838;writing-mode:lr;-inkscape-font-specification:Helvetica"
             x="122.9725 128.7144 131.2638036 137.0057036 143.3906964 149.7756892"
             y="-145.46101"
             sodipodi:role="line"
             id="tspan122">visual</tspan><tspan
             style="fill:#000000;fill-opacity:1;fill-rule:nonzero;stroke:none;font-family:Helvetica;font-variant:normal;font-weight:normal;font-size:11.4838;writing-mode:lr;-inkscape-font-specification:Helvetica"
             x="120.10141 126.4864028 132.8713956 139.2563884 141.805792 144.9982884 151.3832812 155.2073866"
             y="-61.24651"
             sodipodi:role="line"
             id="tspan124">auditory</tspan></text>
</g><path
         d="m 622.32,1832.03 c -49.445,-47.05 -66.988,-137.96 -59.812,-192.19 7.18,-54.23 39.078,-71.78 58.219,-104.47 19.14,-32.7 25.519,-80.55 32.695,-117.23 7.18,-36.69 15.152,-62.21 51.039,-73.37 35.887,-11.17 99.687,-7.98 172.258,3.19 72.57,11.16 153.911,30.3 220.901,75.76 66.99,45.46 119.62,117.23 143.55,217.71 23.92,100.48 19.14,229.68 -53.43,275.13 -72.58,45.46 -212.931,7.18 -323.783,-13.55 -110.848,-20.74 -192.191,-23.93 -241.637,-70.98"
         style="fill:none;stroke:#000000;stroke-opacity:1;stroke-width:19.1396;stroke-linecap:butt;stroke-linejoin:miter;stroke-miterlimit:10;stroke-dasharray:none"
         id="path126" /><g
         id="g128"
         transform="scale(10,10)"><text
           transform="matrix(1,0,0,-1,65.2625,176.986)"
           id="text130"><tspan
             style="fill:#000000;fill-opacity:1;fill-rule:nonzero;stroke:none;font-family:Helvetica;font-variant:normal;font-weight:normal;font-size:11.4838;writing-mode:lr;-inkscape-font-specification:Helvetica"
             x="0 5.7419 8.2913036 14.6762964 21.0612892 26.8031892 29.9956856 36.3806784 42.7656712 45.9581676 48.5075712"
             y="0"
             sodipodi:role="line"
             id="tspan132">kinesthetic</tspan></text>
</g><path
         d="m 1245.95,1775.41 c 0,0 0,0 -27.91,-8.77 -27.91,-8.78 -83.74,-26.32 -134.77,-59.82 -51.04,-33.49 -97.297,-82.93 -120.422,-107.66 -23.129,-24.72 -23.129,-24.72 -23.129,-24.72"
         style="fill:none;stroke:#000000;stroke-opacity:1;stroke-width:19.1396;stroke-linecap:butt;stroke-linejoin:miter;stroke-miterlimit:10;stroke-dasharray:none"
         id="path134" /><g
         id="g136"
         transform="scale(10,10)"><text
           transform="matrix(0.955286,-0.295684,-0.295684,-0.955286,132.766,163.278)"
           id="text138"><tspan
             style="fill:#000000;fill-opacity:1;fill-rule:nonzero;stroke:none;font-family:Helvetica;font-variant:normal;font-weight:normal;font-size:9.56980177;writing-mode:lr;-inkscape-font-specification:Helvetica"
             x="0 2.66040489 7.98121468 11.16795866"
             y="0"
             sodipodi:role="line"
             id="tspan140">form</tspan></text>
<text
           transform="matrix(1,0,0,-1,164.788,131.941)"
           id="text142"><tspan
             style="fill:#000000;fill-opacity:1;fill-rule:nonzero;stroke:none;font-family:Helvetica;font-variant:normal;font-weight:normal;font-size:9.5698;writing-mode:lr;-inkscape-font-specification:Helvetica"
             x="0 4.7849 10.1057088 12.2302044 17.5510132"
             y="0"
             sodipodi:role="line"
             id="tspan144">color</tspan></text>
<text
           transform="matrix(0.894427,0.447214,0.447214,-0.894427,106.857,155.732)"
           id="text146"><tspan
             style="fill:#000000;fill-opacity:1;fill-rule:nonzero;stroke:none;font-family:Helvetica;font-variant:normal;font-weight:normal;font-size:9.5698001;writing-mode:lr;-inkscape-font-specification:Helvetica"
             x="0 5.32080885 10.90957211"
             y="0"
             sodipodi:role="line"
             id="tspan148">3−D</tspan></text>
<text
           transform="matrix(0.938876,0.344255,0.344255,-0.938876,43.7715,133.961)"
           id="text150"><tspan
             style="fill:#000000;fill-opacity:1;fill-rule:nonzero;stroke:none;font-family:Helvetica;font-variant:normal;font-weight:normal;font-size:9.56979832;writing-mode:lr;-inkscape-font-specification:Helvetica"
             x="0 2.66040393 7.9812118 10.10570702"
             y="0"
             sodipodi:role="line"
             id="tspan152">tele</tspan></text>
<text
           transform="matrix(1,0,0,-1,73.8754,148.209)"
           id="text154"><tspan
             style="fill:#000000;fill-opacity:1;fill-rule:nonzero;stroke:none;font-family:Helvetica;font-variant:normal;font-weight:normal;font-size:9.5698;writing-mode:lr;-inkscape-font-specification:Helvetica"
             x="0 5.3208088 10.6416176 15.9624264 21.2832352"
             y="0"
             sodipodi:role="line"
             id="tspan156">phone</tspan></text>
<text
           transform="matrix(0.943307,0.33192,0.33192,-0.943307,33.5176,150.214)"
           id="text158"><tspan
             style="fill:#000000;fill-opacity:1;fill-rule:nonzero;stroke:none;font-family:Helvetica;font-variant:normal;font-weight:normal;font-size:7.65583611;writing-mode:lr;-inkscape-font-specification:Helvetica"
             x="0 2.12832244 6.38496731 10.64161219"
             y="0"
             sodipodi:role="line"
             id="tspan160">foot</tspan></text>
<text
           transform="matrix(0.926739,0.375705,0.375705,-0.926739,59.7293,158.793)"
           id="text162"><tspan
             style="fill:#000000;fill-opacity:1;fill-rule:nonzero;stroke:none;font-family:Helvetica;font-variant:normal;font-weight:normal;font-size:7.65583778;writing-mode:lr;-inkscape-font-specification:Helvetica"
             x="0 4.25664581 6.80603979 11.0626856 14.89060449"
             y="0"
             sodipodi:role="line"
             id="tspan164">brake</tspan></text>
<text
           transform="matrix(0.980581,0.196116,0.196116,-0.980581,49.2023,115.787)"
           id="text166"><tspan
             style="fill:#000000;fill-opacity:1;fill-rule:nonzero;stroke:none;font-family:Helvetica;font-variant:normal;font-weight:normal;font-size:7.65584223;writing-mode:lr;-inkscape-font-specification:Helvetica"
             x="0 3.82792112 8.0845694 10.21289354 12.34121768 14.04081465"
             y="0"
             sodipodi:role="line"
             id="tspan168">kettle</tspan></text>
<text
           transform="matrix(0.564684,0.825307,0.825307,-0.564684,119.843,98.002)"
           id="text170"><tspan
             style="fill:#000000;fill-opacity:1;fill-rule:nonzero;stroke:none;font-family:Helvetica;font-variant:normal;font-weight:normal;font-size:7.65583871;writing-mode:lr;-inkscape-font-specification:Helvetica"
             x="0 3.82791936 8.08456568 9.78416188 13.61208123 17.86872756"
             y="0"
             sodipodi:role="line"
             id="tspan172">velvet</tspan></text>
<text
           transform="matrix(0.906721,-0.421731,-0.421731,-0.906721,188.163,127.188)"
           id="text174"><tspan
             style="fill:#000000;fill-opacity:1;fill-rule:nonzero;stroke:none;font-family:Helvetica;font-variant:normal;font-weight:normal;font-size:7.65584003;writing-mode:lr;-inkscape-font-specification:Helvetica"
             x="0 3.82792002 5.5275165 9.78416356 14.04081062 18.29745768"
             y="0"
             sodipodi:role="line"
             id="tspan176">clouds</tspan></text>
<text
           transform="matrix(0.757679,-0.652628,-0.652628,-0.757679,180.691,113.496)"
           id="text178"><tspan
             style="fill:#000000;fill-opacity:1;fill-rule:nonzero;stroke:none;font-family:Helvetica;font-variant:normal;font-weight:normal;font-size:7.65584296;writing-mode:lr;-inkscape-font-specification:Helvetica"
             x="0 2.12832434 6.38497303 10.64162172 14.8982704 19.15491909 23.41156777"
             y="0"
             sodipodi:role="line"
             id="tspan180">thunder</tspan></text>
</g></g></g></svg>