<?xml version="1.0" encoding="ISO-8859-1" standalone="yes"?>
<svg width="463.937" height="160.203">
  <defs> 
    <marker id="ArrowEnd" viewBox="0 0 10 10" refX="0" refY="5" 
     markerUnits="strokeWidth" 
     markerWidth="4" 
     markerHeight="3" 
     orient="auto"> 
        <path d="M 0 0 L 10 5 L 0 10 z" /> 
    </marker>
    <marker id="ArrowStart" viewBox="0 0 10 10" refX="10" refY="5" 
     markerUnits="strokeWidth" 
     markerWidth="4" 
     markerHeight="3" 
     orient="auto"> 
        <path d="M 10 0 L 0 5 L 10 10 z" /> 
    </marker> </defs>
<g>
<path style="stroke:none; fill-rule:evenodd; fill:#000000" d="M 97.668 147.301C 95.266 147.301 93.633 149.074 93.633 151.699C 93.633 154.324 95.266 156.098 97.68 156.098C 98.691 156.098 99.598 155.789 100.277 155.211C 101.184 154.441 101.727 153.141 101.727 151.77C 101.727 149.066 100.129 147.301 97.668 147.301zM 97.668 148.203C 99.465 148.203 100.629 149.602 100.629 151.75C 100.629 153.801 99.434 155.199 97.68 155.199C 95.918 155.199 94.734 153.801 94.734 151.699C 94.734 149.602 95.918 148.199 97.672 148.199L 97.668 148.203z"/>
<path style="stroke:none; fill-rule:evenodd; fill:#000000" d="M 107.832 155.836L 107.832 149.805L 106.832 149.805L 106.832 153.25C 106.832 154.488 106.187 155.301 105.18 155.301C 104.418 155.301 103.934 154.84 103.934 154.109L 103.934 149.805L 102.934 149.805L 102.934 154.457C 102.934 155.457 103.691 156.102 104.883 156.102C 105.781 156.102 106.355 155.793 106.93 155L 106.93 155.84L 107.832 155.836z"/>
<path style="stroke:none; fill-rule:evenodd; fill:#000000" d="M 111.43 149.801L 110.531 149.801L 110.531 148.133L 109.531 148.133L 109.531 149.801L 108.633 149.801L 108.633 150.598L 109.531 150.598L 109.531 155.145C 109.531 155.75 109.934 156.094 110.664 156.094C 110.887 156.094 111.113 156.07 111.426 156.012L 111.426 155.176C 111.312 155.266 111.176 155.293 111.008 155.293C 110.633 155.293 110.527 155.18 110.527 154.75L 110.527 150.598L 111.426 150.598L 111.43 149.801z"/>
<path style="stroke:none; fill-rule:evenodd; fill:#000000" d="M 112.332 158.305L 113.332 158.305L 113.332 155.203C 113.832 155.824 114.394 156.102 115.168 156.102C 116.711 156.102 117.727 154.844 117.727 152.91C 117.727 150.879 116.742 149.605 115.144 149.605C 114.332 149.605 113.676 149.973 113.23 150.684L 113.23 149.777L 112.332 149.777L 112.332 158.305zM 114.996 150.5C 116.043 150.5 116.727 151.434 116.727 152.883C 116.727 154.258 116.031 155.195 114.996 155.195C 113.992 155.195 113.332 154.27 113.332 152.848C 113.332 151.426 113.992 150.5 114.996 150.5z"/>
<path style="stroke:none; fill-rule:evenodd; fill:#000000" d="M 123.73 155.836L 123.73 149.805L 122.73 149.805L 122.73 153.25C 122.73 154.488 122.086 155.301 121.078 155.301C 120.316 155.301 119.832 154.84 119.832 154.109L 119.832 149.805L 118.832 149.805L 118.832 154.457C 118.832 155.457 119.59 156.102 120.781 156.102C 121.68 156.102 122.254 155.793 122.828 155L 122.828 155.84L 123.73 155.836z"/>
<path style="stroke:none; fill-rule:evenodd; fill:#000000" d="M 127.43 149.801L 126.531 149.801L 126.531 148.133L 125.531 148.133L 125.531 149.801L 124.633 149.801L 124.633 150.598L 125.531 150.598L 125.531 155.145C 125.531 155.75 125.934 156.094 126.664 156.094C 126.887 156.094 127.113 156.07 127.426 156.012L 127.426 155.176C 127.312 155.266 127.176 155.293 127.008 155.293C 126.633 155.293 126.527 155.18 126.527 154.75L 126.527 150.598L 127.426 150.598L 127.43 149.801z"/>
<path style="stroke:#000000; stroke-width:1.9133; fill:none" d="M 52.1211 143.754L 168.832 143.754L 168.832 107.402L 52.1211 107.402L 52.1211 143.754z"/>
<path style="stroke:none; fill-rule:evenodd; fill:#000000" d="M 12.1289 83.102L 16.6836 83.102L 16.6836 82.203L 12.1289 82.203L 12.1289 79.406L 16.8281 79.406L 16.8281 78.508L 11.0312 78.508L 11.0312 86.906L 17.0312 86.906L 17.0312 86.008L 12.1328 86.008L 12.1289 83.102z"/>
<path style="stroke:none; fill-rule:evenodd; fill:#000000" d="M 18.5312 86.902L 19.5312 86.902L 19.5312 78.504L 18.5312 78.504L 18.5312 86.902z"/>
<path style="stroke:none; fill-rule:evenodd; fill:#000000" d="M 26.1289 84.203C 26.1289 83.285 26.0625 82.734 25.8906 82.289C 25.5039 81.305 24.5898 80.707 23.4726 80.707C 21.8086 80.707 20.7343 82 20.7343 83.988C 20.7343 85.977 21.7695 87.203 23.4453 87.203C 24.8086 87.203 25.7539 86.41 25.9961 85.078L 25.0429 85.078C 24.7812 85.883 24.25 86.301 23.4882 86.301C 22.8867 86.301 22.375 86.023 22.0586 85.508C 21.832 85.16 21.7539 84.809 21.7422 84.203L 26.1289 84.203zM 21.7109 83.434C 21.789 82.32 22.4687 81.598 23.4297 81.598C 24.3672 81.598 25.0937 82.375 25.0937 83.363C 25.0937 83.383 25.0937 83.406 25.082 83.43L 21.7109 83.434z"/>
<path style="stroke:none; fill-rule:evenodd; fill:#000000" d="M 27.4297 80.875L 27.4297 86.898L 28.4297 86.898L 28.4297 83.09C 28.4297 82.211 29.0547 81.504 29.8242 81.504C 30.5273 81.504 30.9258 81.941 30.9258 82.719L 30.9258 86.898L 31.9258 86.898L 31.9258 83.09C 31.9258 82.211 32.5508 81.504 33.3203 81.504C 34.0117 81.504 34.4218 81.953 34.4218 82.719L 34.4218 86.898L 35.4218 86.898L 35.4218 82.379C 35.4218 81.301 34.8008 80.703 33.6679 80.703C 32.8632 80.703 32.375 80.945 31.8125 81.633C 31.457 80.984 30.9726 80.703 30.1875 80.703C 29.3828 80.703 28.8515 81 28.332 81.723L 28.332 80.875L 27.4297 80.875z"/>
<path style="stroke:#000000; stroke-width:1.9133; fill:none" d="M 10.0273 74.875L 92.297 74.875L 92.297 38.523L 10.0273 38.523L 10.0273 74.875z"/>
<path style="stroke:none; fill-rule:evenodd; fill:#000000" d="M 23.4297 60.102L 26.6836 60.102C 28.8125 60.102 30.125 58.512 30.125 55.898C 30.125 53.297 28.8281 51.707 26.6836 51.707L 23.4297 51.707L 23.4297 60.102zM 24.5312 59.203L 24.5312 52.605L 26.5039 52.605C 28.1562 52.605 29.0273 53.738 29.0273 55.91C 29.0273 58.059 28.1562 59.203 26.5039 59.203L 24.5312 59.203z"/>
<path style="stroke:#000000; stroke-width:1.9133; fill:none" d="M 35.8593 56.699C 35.8593 50.359 31.5781 45.223 26.2968 45.223C 21.0156 45.223 16.7343 50.359 16.7343 56.699C 16.7343 63.039 21.0156 68.176 26.2968 68.176C 31.5781 68.176 35.8593 63.039 35.8593 56.699"/>
<path style="stroke:none; fill-rule:evenodd; fill:#000000" d="M 49.9297 56.301L 54.4843 56.301L 54.4843 55.402L 49.9297 55.402L 49.9297 52.605L 54.6289 52.605L 54.6289 51.707L 48.832 51.707L 48.832 60.105L 54.832 60.105L 54.832 59.207L 49.9336 59.207L 49.9297 56.301z"/>
<path style="stroke:#000000; stroke-width:1.9133; fill:none" d="M 60.7304 56.699C 60.7304 50.359 56.4492 45.223 51.1679 45.223C 45.8867 45.223 41.6054 50.359 41.6054 56.699C 41.6054 63.039 45.8867 68.176 51.1679 68.176C 56.4492 68.176 60.7304 63.039 60.7304 56.699"/>
<path style="stroke:none; fill-rule:evenodd; fill:#000000" d="M 74.832 56.301L 78.8242 56.301L 78.8242 55.402L 74.832 55.402L 74.832 52.605L 79.332 52.605L 79.332 51.707L 73.7343 51.707L 73.7343 60.105L 74.832 60.105L 74.832 56.301z"/>
<path style="stroke:#000000; stroke-width:1.9133; fill:none" d="M 85.605 56.699C 85.605 50.359 81.3242 45.223 76.0429 45.223C 70.7617 45.223 66.4804 50.359 66.4804 56.699C 66.4804 63.039 70.7617 68.176 76.0429 68.176C 81.3242 68.176 85.605 63.039 85.605 56.699"/>
<path style="stroke:none; fill-rule:evenodd; fill:#000000" d="M 186.629 83.102L 186.629 86.898L 187.727 86.898L 187.727 78.5L 186.629 78.5L 186.629 82.199L 182.332 82.199L 182.332 78.5L 181.234 78.5L 181.234 86.898L 182.332 86.898L 182.332 83.102L 186.629 83.102z"/>
<path style="stroke:none; fill-rule:evenodd; fill:#000000" d="M 190.332 80.902L 189.332 80.902L 189.332 86.902L 190.332 86.902L 190.332 80.902zM 190.332 78.5L 189.332 78.5L 189.332 79.734L 190.332 79.734L 190.332 78.5z"/>
<path style="stroke:none; fill-rule:evenodd; fill:#000000" d="M 191.73 89.406L 192.73 89.406L 192.73 86.305C 193.23 86.926 193.793 87.203 194.566 87.203C 196.109 87.203 197.125 85.945 197.125 84.012C 197.125 81.98 196.141 80.707 194.543 80.707C 193.73 80.707 193.074 81.074 192.629 81.785L 192.629 80.879L 191.73 80.879L 191.73 89.406zM 194.394 81.602C 195.441 81.602 196.125 82.535 196.125 83.984C 196.125 85.359 195.43 86.297 194.394 86.297C 193.391 86.297 192.73 85.371 192.73 83.949C 192.73 82.527 193.391 81.602 194.394 81.602z"/>
<path style="stroke:none; fill-rule:evenodd; fill:#000000" d="M 198.129 89.406L 199.129 89.406L 199.129 86.305C 199.629 86.926 200.191 87.203 200.965 87.203C 202.508 87.203 203.523 85.945 203.523 84.012C 203.523 81.98 202.539 80.707 200.941 80.707C 200.129 80.707 199.473 81.074 199.027 81.785L 199.027 80.879L 198.129 80.879L 198.129 89.406zM 200.797 81.602C 201.844 81.602 202.527 82.535 202.527 83.984C 202.527 85.359 201.832 86.297 200.797 86.297C 199.793 86.297 199.133 85.371 199.133 83.949C 199.133 82.527 199.793 81.602 200.797 81.602z"/>
<path style="stroke:none; fill-rule:evenodd; fill:#000000" d="M 207.066 80.703C 205.363 80.703 204.332 81.918 204.332 83.953C 204.332 85.988 205.352 87.203 207.082 87.203C 208.785 87.203 209.832 85.992 209.832 84.004C 209.832 81.914 208.824 80.711 207.074 80.711L 207.066 80.703zM 207.082 81.602C 208.176 81.602 208.832 82.488 208.832 83.984C 208.832 85.398 208.156 86.297 207.082 86.297C 206 86.297 205.332 85.41 205.332 83.949C 205.332 82.5 205.996 81.602 207.082 81.602z"/>
<path style="stroke:#000000; stroke-width:1.9133; fill:none" d="M 128.652 74.875L 210.922 74.875L 210.922 38.523L 128.652 38.523L 128.652 74.875z"/>
<path style="stroke:none; fill-rule:evenodd; fill:#000000" d="M 164.73 56.301L 169.285 56.301L 169.285 55.402L 164.73 55.402L 164.73 52.605L 169.43 52.605L 169.43 51.707L 163.633 51.707L 163.633 60.105L 169.633 60.105L 169.633 59.207L 164.734 59.207L 164.73 56.301z"/>
<path style="stroke:none; fill-rule:evenodd; fill:#000000" d="M 172.332 56.301L 176.324 56.301L 176.324 55.402L 172.332 55.402L 172.332 52.605L 176.832 52.605L 176.832 51.707L 171.234 51.707L 171.234 60.105L 172.332 60.105L 172.332 56.301z"/>
<path style="stroke:#000000; stroke-width:1.9133; fill:none" d="M 183.184 56.699C 183.184 49.305 177.191 43.309 169.793 43.309C 162.398 43.309 156.402 49.301 156.402 56.699C 156.402 64.094 162.394 70.09 169.793 70.09C 177.187 70.09 183.184 64.098 183.184 56.699"/>
<path style="stroke:#000000; stroke-width:0.95664899999999997; fill:none" d="M 55.9492 67.223L 134.391 115.051"/>
<path style="stroke:#000000; stroke-width:0.95664899999999997; fill:none" d="M 128.855 109.438L 134.391 115.051L 126.863 112.703"/>
<path style="stroke:#000000; stroke-width:2.8699499999999998; fill:none" d="M 52.1211 67.223L 82.73 113.141"/>
<path style="stroke:#000000; stroke-width:2.8699499999999998; fill:none" d="M 80.082 105.711L 82.734 113.137L 76.8984 107.832"/>
<path style="stroke:#000000; stroke-width:2.8699499999999998; fill:none" d="M 170.746 69.137L 147.789 115.055"/>
<path style="stroke:#000000; stroke-width:2.8699499999999998; fill:none" d="M 152.922 109.062L 147.789 115.051L 149.5 107.352"/>
<path style="stroke:#000000; stroke-width:2.8699499999999998; fill:none" d="M 76.9961 46.176C 76.9961 46.176 76.9961 46.176 81.1406 43.945C 85.285 41.715 93.574 37.25 103.141 35.02C 112.703 32.789 123.547 32.789 133.434 35.02C 143.316 37.25 152.246 41.715 156.711 43.945C 161.172 46.176 161.172 46.176 161.172 46.176"/>
<path style="stroke:#000000; stroke-width:2.8699499999999998; fill:none" d="M 155.191 41.043L 161.18 46.176L 153.48 44.465"/>
<path style="stroke:#000000; stroke-width:2.8699499999999998; fill:none" d="M 50.2109 46.176C 50.2109 46.176 50.2109 46.176 56.5859 42.672C 62.9609 39.164 75.7187 32.152 90.387 28.324C 105.055 24.5 121.637 23.863 135.027 27.051C 148.418 30.238 158.621 37.254 163.727 40.762C 168.828 44.266 168.828 44.266 168.828 44.266"/>
<path style="stroke:#000000; stroke-width:2.8699499999999998; fill:none" d="M 163.609 38.352L 168.832 44.262L 161.445 41.504"/>
<path style="stroke:none; fill-rule:evenodd; fill:#000000" d="M 9.49611 9.145C 9.37501 9.19901 9.32031 9.19901 9.25001 9.19901C 8.85541 9.19901 8.63281 9 8.63281 8.65199L 8.63281 4.52299C 8.63281 3.27699 7.72651 2.605 6.00391 2.605C 4.99221 2.605 4.15231 2.895 3.68361 3.414C 3.36721 3.77 3.23041 4.168 3.20701 4.85899L 4.32811 4.85899C 4.41791 3.996 4.92581 3.605 5.96871 3.605C 6.96871 3.605 7.53121 3.98 7.53121 4.64799L 7.53121 4.94099C 7.53121 5.41 7.25391 5.60899 6.37891 5.715C 4.81641 5.914 4.57811 5.96899 4.15231 6.14101C 3.34371 6.47301 2.93361 7.105 2.93361 8.01601C 2.93361 9.285 3.81251 10.09 5.22261 10.09C 6.10151 10.09 6.80471 9.785 7.58981 9.07001C 7.66791 9.77299 8.01561 10.09 8.73431 10.09C 8.96091 10.09 9.13281 10.066 9.49221 9.97301L 9.49611 9.145zM 7.53121 7.578C 7.53121 7.94501 7.42581 8.172 7.08981 8.47701C 6.63671 8.88699 6.08201 9.09801 5.42181 9.09801C 4.54681 9.09801 4.03901 8.688 4.03901 7.98801C 4.03901 7.26199 4.53511 6.89101 5.73431 6.71899C 6.91791 6.562 7.16011 6.508 7.53511 6.336L 7.53121 7.578z"/>
<path style="stroke:none; fill-rule:evenodd; fill:#000000" d="M 11.0664 12.641C 12.3906 10.883 13.2265 8.438 13.2265 6.332C 13.2265 4.211 12.3906 1.77 11.0664 0.00799561L 10.3398 0.00799561C 11.4882 1.92999 12.1289 4.18401 12.1289 6.332C 12.1289 8.465 11.4882 10.734 10.3398 12.641L 11.0664 12.641z"/>
<path style="stroke:none; fill-rule:evenodd; fill:#000000" d="M 19.332 9.80099L 20.6289 9.80099L 20.6289 0.0039978L 19.332 0.0039978L 19.332 9.80099z"/>
<path style="stroke:none; fill-rule:evenodd; fill:#000000" d="M 22.7304 2.80499L 22.7304 9.80099L 23.8281 9.80099L 23.8281 5.957C 23.8281 4.535 24.5664 3.605 25.6992 3.605C 26.5664 3.605 27.125 4.13699 27.125 4.97301L 27.125 9.80099L 28.2226 9.80099L 28.2226 4.51601C 28.2226 3.355 27.3632 2.60899 26.0273 2.60899C 24.9961 2.60899 24.3359 3.008 23.7265 3.98399L 23.7265 2.812L 22.7304 2.80499z"/>
<path style="stroke:none; fill-rule:evenodd; fill:#000000" d="M 32.5312 2.80099L 31.332 2.80099L 31.332 0.854996L 30.2343 0.854996L 30.2343 2.80099L 29.3359 2.80099L 29.3359 3.69901L 30.2343 3.69901L 30.2343 8.98801C 30.2343 9.69501 30.7226 10.094 31.6054 10.094C 31.875 10.094 32.1484 10.07 32.5312 10.004L 32.5312 9.07401C 32.3789 9.09 32.1992 9.09399 31.9765 9.09399C 31.4765 9.09399 31.3359 8.961 31.3359 8.46899L 31.3359 3.69501L 32.5351 3.69501L 32.5312 2.80099z"/>
<path style="stroke:none; fill-rule:evenodd; fill:#000000" d="M 40.0937 9.145C 39.9726 9.19901 39.9179 9.19901 39.8476 9.19901C 39.4531 9.19901 39.2304 9 39.2304 8.65199L 39.2304 4.52299C 39.2304 3.27699 38.3242 2.605 36.6015 2.605C 35.5898 2.605 34.75 2.895 34.2812 3.414C 33.9648 3.77 33.8281 4.168 33.8047 4.85899L 34.9258 4.85899C 35.0156 3.996 35.5234 3.605 36.5664 3.605C 37.5664 3.605 38.1289 3.98 38.1289 4.64799L 38.1289 4.94099C 38.1289 5.41 37.8515 5.60899 36.9765 5.715C 35.414 5.914 35.1758 5.96899 34.75 6.14101C 33.9414 6.47301 33.5312 7.105 33.5312 8.01601C 33.5312 9.285 34.4101 10.09 35.8203 10.09C 36.6992 10.09 37.4023 9.785 38.1875 9.07001C 38.2656 9.77299 38.6132 10.09 39.332 10.09C 39.5586 10.09 39.7304 10.066 40.0898 9.97301L 40.0937 9.145zM 38.1289 7.578C 38.1289 7.94501 38.0234 8.172 37.6875 8.47701C 37.2343 8.88699 36.6797 9.09801 36.0195 9.09801C 35.1445 9.09801 34.6367 8.688 34.6367 7.98801C 34.6367 7.26199 35.1328 6.89101 36.332 6.71899C 37.5156 6.562 37.7578 6.508 38.1328 6.336L 38.1289 7.578z"/>
<path style="stroke:none; fill-rule:evenodd; fill:#000000" d="M 46.6367 5.14101C 46.5859 4.44901 46.4375 4 46.1679 3.605C 45.6875 2.98 44.8398 2.605 43.8593 2.605C 41.9687 2.605 40.7343 4.09801 40.7343 6.422C 40.7343 8.67599 41.9414 10.102 43.8476 10.102C 45.5234 10.102 46.5859 9.10201 46.7187 7.39101L 45.5742 7.39101C 45.3867 8.53101 44.8008 9.10201 43.832 9.10201C 42.582 9.10201 41.832 8.09399 41.832 6.422C 41.832 4.65601 42.5664 3.605 43.8047 3.605C 44.7539 3.605 45.3554 4.15601 45.4922 5.14101L 46.6367 5.14101z"/>
<path style="stroke:none; fill-rule:evenodd; fill:#000000" d="M 50.4297 2.80099L 49.2304 2.80099L 49.2304 0.854996L 48.1328 0.854996L 48.1328 2.80099L 47.2343 2.80099L 47.2343 3.69901L 48.1328 3.69901L 48.1328 8.98801C 48.1328 9.69501 48.6211 10.094 49.5039 10.094C 49.7734 10.094 50.0468 10.07 50.4297 10.004L 50.4297 9.07401C 50.2773 9.09 50.0976 9.09399 49.875 9.09399C 49.375 9.09399 49.2343 8.961 49.2343 8.46899L 49.2343 3.69501L 50.4336 3.69501L 50.4297 2.80099z"/>
<path style="stroke:none; fill-rule:evenodd; fill:#000000" d="M 60.8164 9.80099L 63.6289 1.621L 63.6289 9.80099L 64.7265 9.80099L 64.7265 0.0039978L 63 0.0039978L 60.1601 8.543L 57.2656 0.0039978L 55.539 0.0039978L 55.539 9.80099L 56.6367 9.80099L 56.6367 1.621L 59.4765 9.80099L 60.8164 9.80099z"/>
<path style="stroke:none; fill-rule:evenodd; fill:#000000" d="M 69.2656 2.60201C 67.3125 2.60201 66.1289 4.004 66.1289 6.35201C 66.1289 8.69901 67.2968 10.098 69.2773 10.098C 71.2304 10.098 72.4258 8.69901 72.4258 6.40601C 72.4258 3.992 71.2695 2.605 69.2656 2.605L 69.2656 2.60201zM 69.2812 3.60201C 70.5625 3.60201 71.3281 4.63699 71.3281 6.39101C 71.3281 8.047 70.5351 9.09801 69.2812 9.09801C 68.0117 9.09801 67.2343 8.062 67.2343 6.34801C 67.2343 4.65199 68.0117 3.59801 69.2812 3.59801L 69.2812 3.60201z"/>
<path style="stroke:none; fill-rule:evenodd; fill:#000000" d="M 79.7304 0L 78.6328 0L 78.6328 3.664C 78.1718 2.96899 77.4336 2.60201 76.5078 2.60201C 74.7109 2.60201 73.5351 4.05499 73.5351 6.285C 73.5351 8.645 74.6797 10.098 76.5351 10.098C 77.4804 10.098 78.1406 9.742 78.7304 8.875L 78.7304 9.797L 79.7304 9.797L 79.7304 0zM 76.664 3.60201C 77.8672 3.60201 78.6289 4.68401 78.6289 6.375C 78.6289 8.01199 77.8554 9.09399 76.6758 9.09399C 75.4492 9.09399 74.6328 8 74.6328 6.34801C 74.6328 4.69901 75.4453 3.59801 76.664 3.59801L 76.664 3.60201z"/>
<path style="stroke:none; fill-rule:evenodd; fill:#000000" d="M 87.43 6.703C 87.43 5.629 87.352 4.98399 87.152 4.461C 86.703 3.30901 85.637 2.60899 84.332 2.60899C 82.391 2.60899 81.1367 4.10201 81.1367 6.39799C 81.1367 8.69099 82.34 10.105 84.289 10.105C 85.879 10.105 86.977 9.19901 87.258 7.67999L 86.133 7.67999C 85.828 8.617 85.195 9.105 84.301 9.105C 83.594 9.105 82.992 8.789 82.617 8.203C 82.352 7.80499 82.258 7.40601 82.242 6.711L 87.43 6.703zM 82.258 5.758C 82.352 4.461 83.141 3.617 84.266 3.617C 85.363 3.617 86.207 4.52699 86.207 5.67599C 86.207 5.69901 86.207 5.72701 86.195 5.754L 82.258 5.758z"/>
<path style="stroke:none; fill-rule:evenodd; fill:#000000" d="M 88.93 9.80099L 90.027 9.80099L 90.027 0.0039978L 88.93 0.0039978L 88.93 9.80099z"/>
<path style="stroke:none; fill-rule:evenodd; fill:#000000" d="M 340.668 149.203C 338.266 149.203 336.633 150.977 336.633 153.602C 336.633 156.227 338.266 158 340.68 158C 341.691 158 342.598 157.691 343.277 157.113C 344.184 156.344 344.727 155.043 344.727 153.672C 344.727 150.969 343.129 149.203 340.668 149.203zM 340.668 150.102C 342.465 150.102 343.629 151.5 343.629 153.648C 343.629 155.699 342.434 157.098 340.68 157.098C 338.918 157.098 337.734 155.699 337.734 153.598C 337.734 151.5 338.918 150.098 340.672 150.098L 340.668 150.102z"/>
<path style="stroke:none; fill-rule:evenodd; fill:#000000" d="M 350.73 157.738L 350.73 151.707L 349.73 151.707L 349.73 155.152C 349.73 156.391 349.086 157.203 348.078 157.203C 347.316 157.203 346.832 156.742 346.832 156.012L 346.832 151.707L 345.832 151.707L 345.832 156.359C 345.832 157.359 346.59 158.004 347.781 158.004C 348.68 158.004 349.254 157.695 349.828 156.902L 349.828 157.742L 350.73 157.738z"/>
<path style="stroke:none; fill-rule:evenodd; fill:#000000" d="M 354.43 151.703L 353.531 151.703L 353.531 150.035L 352.531 150.035L 352.531 151.703L 351.633 151.703L 351.633 152.5L 352.531 152.5L 352.531 157.047C 352.531 157.652 352.934 157.996 353.664 157.996C 353.887 157.996 354.113 157.973 354.426 157.914L 354.426 157.078C 354.312 157.168 354.176 157.195 354.008 157.195C 353.633 157.195 353.527 157.082 353.527 156.652L 353.527 152.5L 354.426 152.5L 354.43 151.703z"/>
<path style="stroke:none; fill-rule:evenodd; fill:#000000" d="M 355.332 160.203L 356.332 160.203L 356.332 157.102C 356.832 157.723 357.394 158 358.168 158C 359.711 158 360.727 156.742 360.727 154.809C 360.727 152.777 359.742 151.504 358.144 151.504C 357.332 151.504 356.676 151.871 356.23 152.582L 356.23 151.676L 355.332 151.676L 355.332 160.203zM 357.996 152.402C 359.043 152.402 359.727 153.336 359.727 154.785C 359.727 156.16 359.031 157.098 357.996 157.098C 356.992 157.098 356.332 156.172 356.332 154.75C 356.332 153.328 356.992 152.402 357.996 152.402z"/>
<path style="stroke:none; fill-rule:evenodd; fill:#000000" d="M 366.73 157.738L 366.73 151.707L 365.73 151.707L 365.73 155.152C 365.73 156.391 365.086 157.203 364.078 157.203C 363.316 157.203 362.832 156.742 362.832 156.012L 362.832 151.707L 361.832 151.707L 361.832 156.359C 361.832 157.359 362.59 158.004 363.781 158.004C 364.68 158.004 365.254 157.695 365.828 156.902L 365.828 157.742L 366.73 157.738z"/>
<path style="stroke:none; fill-rule:evenodd; fill:#000000" d="M 370.43 151.703L 369.531 151.703L 369.531 150.035L 368.531 150.035L 368.531 151.703L 367.633 151.703L 367.633 152.5L 368.531 152.5L 368.531 157.047C 368.531 157.652 368.934 157.996 369.664 157.996C 369.887 157.996 370.113 157.973 370.426 157.914L 370.426 157.078C 370.312 157.168 370.176 157.195 370.008 157.195C 369.633 157.195 369.527 157.082 369.527 156.652L 369.527 152.5L 370.426 152.5L 370.43 151.703z"/>
<path style="stroke:#000000; stroke-width:1.9133; fill:none" d="M 295.109 145.668L 411.82 145.668L 411.82 109.316L 295.109 109.316L 295.109 145.668z"/>
<path style="stroke:none; fill-rule:evenodd; fill:#000000" d="M 255.129 85L 259.684 85L 259.684 84.102L 255.129 84.102L 255.129 81.305L 259.828 81.305L 259.828 80.406L 254.031 80.406L 254.031 88.805L 260.031 88.805L 260.031 87.906L 255.133 87.906L 255.129 85z"/>
<path style="stroke:none; fill-rule:evenodd; fill:#000000" d="M 261.43 88.801L 262.43 88.801L 262.43 80.402L 261.43 80.402L 261.43 88.801z"/>
<path style="stroke:none; fill-rule:evenodd; fill:#000000" d="M 269.129 86.102C 269.129 85.184 269.062 84.633 268.891 84.188C 268.504 83.203 267.59 82.605 266.473 82.605C 264.809 82.605 263.734 83.898 263.734 85.887C 263.734 87.875 264.77 89.102 266.445 89.102C 267.809 89.102 268.754 88.309 268.996 86.977L 268.043 86.977C 267.781 87.781 267.25 88.199 266.488 88.199C 265.887 88.199 265.375 87.922 265.059 87.406C 264.832 87.059 264.754 86.707 264.742 86.102L 269.129 86.102zM 264.711 85.336C 264.789 84.223 265.469 83.5 266.43 83.5C 267.367 83.5 268.094 84.277 268.094 85.266C 268.094 85.285 268.094 85.309 268.082 85.332L 264.711 85.336z"/>
<path style="stroke:none; fill-rule:evenodd; fill:#000000" d="M 270.43 82.773L 270.43 88.797L 271.43 88.797L 271.43 84.988C 271.43 84.109 272.055 83.402 272.824 83.402C 273.527 83.402 273.926 83.84 273.926 84.617L 273.926 88.797L 274.926 88.797L 274.926 84.988C 274.926 84.109 275.551 83.402 276.32 83.402C 277.012 83.402 277.422 83.852 277.422 84.617L 277.422 88.797L 278.422 88.797L 278.422 84.277C 278.422 83.199 277.801 82.602 276.668 82.602C 275.863 82.602 275.375 82.844 274.812 83.531C 274.457 82.883 273.973 82.602 273.187 82.602C 272.383 82.602 271.852 82.898 271.332 83.621L 271.332 82.773L 270.43 82.773z"/>
<path style="stroke:#000000; stroke-width:1.9133; fill:none" d="M 253.02 76.789L 335.289 76.789L 335.289 40.438L 253.02 40.438L 253.02 76.789z"/>
<path style="stroke:none; fill-rule:evenodd; fill:#000000" d="M 266.43 62L 269.684 62C 271.812 62 273.125 60.41 273.125 57.797C 273.125 55.195 271.828 53.605 269.684 53.605L 266.43 53.605L 266.43 62zM 267.531 61.102L 267.531 54.504L 269.504 54.504C 271.156 54.504 272.027 55.637 272.027 57.809C 272.027 59.957 271.156 61.102 269.504 61.102L 267.531 61.102z"/>
<path style="stroke:#000000; stroke-width:1.9133; fill:none" d="M 278.848 58.613C 278.848 52.273 274.566 47.137 269.285 47.137C 264.004 47.137 259.723 52.273 259.723 58.613C 259.723 64.953 264.004 70.09 269.285 70.09C 274.566 70.09 278.848 64.953 278.848 58.613"/>
<path style="stroke:none; fill-rule:evenodd; fill:#000000" d="M 292.93 58.203L 297.484 58.203L 297.484 57.305L 292.93 57.305L 292.93 54.508L 297.629 54.508L 297.629 53.609L 291.832 53.609L 291.832 62.008L 297.832 62.008L 297.832 61.109L 292.934 61.109L 292.93 58.203z"/>
<path style="stroke:#000000; stroke-width:1.9133; fill:none" d="M 303.723 58.613C 303.723 52.273 299.441 47.137 294.16 47.137C 288.879 47.137 284.598 52.273 284.598 58.613C 284.598 64.953 288.879 70.09 294.16 70.09C 299.441 70.09 303.723 64.953 303.723 58.613"/>
<path style="stroke:none; fill-rule:evenodd; fill:#000000" d="M 317.73 58.203L 321.723 58.203L 321.723 57.305L 317.73 57.305L 317.73 54.508L 322.23 54.508L 322.23 53.609L 316.633 53.609L 316.633 62.008L 317.73 62.008L 317.73 58.203z"/>
<path style="stroke:#000000; stroke-width:1.9133; fill:none" d="M 328.594 58.613C 328.594 52.273 324.312 47.137 319.031 47.137C 313.75 47.137 309.469 52.273 309.469 58.613C 309.469 64.953 313.75 70.09 319.031 70.09C 324.312 70.09 328.594 64.953 328.594 58.613"/>
<path style="stroke:none; fill-rule:evenodd; fill:#7e7e7e" d="M 429.629 85L 429.629 88.797L 430.727 88.797L 430.727 80.398L 429.629 80.398L 429.629 84.098L 425.332 84.098L 425.332 80.398L 424.234 80.398L 424.234 88.797L 425.332 88.797L 425.332 85L 429.629 85z"/>
<path style="stroke:none; fill-rule:evenodd; fill:#7e7e7e" d="M 433.332 82.801L 432.332 82.801L 432.332 88.801L 433.332 88.801L 433.332 82.801zM 433.332 80.402L 432.332 80.402L 432.332 81.637L 433.332 81.637L 433.332 80.402z"/>
<path style="stroke:none; fill-rule:evenodd; fill:#7e7e7e" d="M 434.73 91.305L 435.73 91.305L 435.73 88.203C 436.23 88.824 436.793 89.102 437.566 89.102C 439.109 89.102 440.125 87.844 440.125 85.91C 440.125 83.879 439.141 82.605 437.543 82.605C 436.73 82.605 436.074 82.973 435.629 83.684L 435.629 82.777L 434.73 82.777L 434.73 91.305zM 437.394 83.5C 438.441 83.5 439.125 84.434 439.125 85.883C 439.125 87.258 438.43 88.195 437.394 88.195C 436.391 88.195 435.73 87.27 435.73 85.848C 435.73 84.426 436.391 83.5 437.394 83.5z"/>
<path style="stroke:none; fill-rule:evenodd; fill:#7e7e7e" d="M 441.129 91.305L 442.129 91.305L 442.129 88.203C 442.629 88.824 443.191 89.102 443.965 89.102C 445.508 89.102 446.523 87.844 446.523 85.91C 446.523 83.879 445.539 82.605 443.941 82.605C 443.129 82.605 442.473 82.973 442.027 83.684L 442.027 82.777L 441.129 82.777L 441.129 91.305zM 443.797 83.5C 444.844 83.5 445.527 84.434 445.527 85.883C 445.527 87.258 444.832 88.195 443.797 88.195C 442.793 88.195 442.133 87.27 442.133 85.848C 442.133 84.426 442.793 83.5 443.797 83.5z"/>
<path style="stroke:none; fill-rule:evenodd; fill:#7e7e7e" d="M 450.066 82.602C 448.363 82.602 447.332 83.816 447.332 85.852C 447.332 87.887 448.352 89.102 450.082 89.102C 451.785 89.102 452.832 87.891 452.832 85.902C 452.832 83.812 451.824 82.609 450.074 82.609L 450.066 82.602zM 450.082 83.5C 451.176 83.5 451.832 84.387 451.832 85.883C 451.832 87.297 451.156 88.195 450.082 88.195C 449 88.195 448.332 87.309 448.332 85.848C 448.332 84.398 448.996 83.5 450.082 83.5z"/>
<path style="stroke:#7e7e7e; stroke-width:1.9133; fill:none" d="M 371.641 76.789L 453.91 76.789L 453.91 40.438L 371.641 40.438L 371.641 76.789z"/>
<path style="stroke:none; fill-rule:evenodd; fill:#7e7e7e" d="M 407.73 58.203L 412.285 58.203L 412.285 57.305L 407.73 57.305L 407.73 54.508L 412.43 54.508L 412.43 53.609L 406.633 53.609L 406.633 62.008L 412.633 62.008L 412.633 61.109L 407.734 61.109L 407.73 58.203z"/>
<path style="stroke:none; fill-rule:evenodd; fill:#7e7e7e" d="M 415.332 58.203L 419.324 58.203L 419.324 57.305L 415.332 57.305L 415.332 54.508L 419.832 54.508L 419.832 53.609L 414.234 53.609L 414.234 62.008L 415.332 62.008L 415.332 58.203z"/>
<path style="stroke:#7e7e7e; stroke-width:1.9133; fill:none" d="M 426.172 58.613C 426.172 51.219 420.18 45.223 412.781 45.223C 405.387 45.223 399.391 51.215 399.391 58.613C 399.391 66.008 405.383 72.004 412.781 72.004C 420.176 72.004 426.172 66.012 426.172 58.613"/>
<path style="stroke:#000000; stroke-width:2.8699499999999998; fill:none" d="M 298.937 69.137L 377.379 116.965"/>
<path style="stroke:#000000; stroke-width:2.8699499999999998; fill:none" d="M 371.844 111.352L 377.379 116.965L 369.852 114.617"/>
<path style="stroke:#000000; stroke-width:2.8699499999999998; fill:none" d="M 295.109 69.137L 325.719 115.055"/>
<path style="stroke:#000000; stroke-width:2.8699499999999998; fill:none" d="M 323.07 107.625L 325.723 115.051L 319.887 109.746"/>
<path style="stroke:none; fill-rule:evenodd; fill:#000000" d="M 240.332 0L 240.332 9.797L 241.332 9.797L 241.332 8.90199C 241.867 9.711 242.582 10.098 243.562 10.098C 245.418 10.098 246.629 8.59399 246.629 6.27C 246.629 4.004 245.473 2.60201 243.613 2.60201C 242.644 2.60201 241.957 2.957 241.434 3.73L 241.434 0L 240.332 0zM 243.422 3.629C 244.664 3.629 245.469 4.711 245.469 6.38699C 245.469 7.98 244.641 9.062 243.422 9.062C 242.246 9.062 241.469 7.992 241.469 6.34399C 241.469 4.69901 242.242 3.625 243.422 3.625L 243.422 3.629z"/>
<path style="stroke:none; fill-rule:evenodd; fill:#000000" d="M 248.27 12.641C 249.594 10.883 250.43 8.438 250.43 6.332C 250.43 4.211 249.594 1.77 248.27 0.00799561L 247.543 0.00799561C 248.691 1.92999 249.332 4.18401 249.332 6.332C 249.332 8.465 248.691 10.734 247.543 12.641L 248.27 12.641z"/>
<path style="stroke:none; fill-rule:evenodd; fill:#000000" d="M 262.629 5.30099L 262.629 9.80099L 263.828 9.80099L 263.828 0.0039978L 262.629 0.0039978L 262.629 4.30099L 257.531 4.30099L 257.531 0.0039978L 256.332 0.0039978L 256.332 9.80099L 257.531 9.80099L 257.531 5.30099L 262.629 5.30099z"/>
<path style="stroke:none; fill-rule:evenodd; fill:#000000" d="M 266.93 2.80099L 265.832 2.80099L 265.832 9.80099L 266.93 9.80099L 266.93 2.80099zM 266.93 0L 265.832 0L 265.832 1.44099L 266.93 1.44099L 266.93 0z"/>
<path style="stroke:none; fill-rule:evenodd; fill:#000000" d="M 268.629 12.723L 269.727 12.723L 269.727 9.105C 270.32 9.797 270.98 10.105 271.898 10.105C 273.719 10.105 274.922 8.65199 274.922 6.42599C 274.922 4.078 273.762 2.60899 271.879 2.60899C 270.922 2.60899 270.148 3.035 269.621 3.86301L 269.621 2.80901L 268.621 2.80901L 268.629 12.723zM 271.738 3.60201C 273.004 3.60201 273.828 4.69901 273.828 6.39101C 273.828 8 272.992 9.09801 271.738 9.09801C 270.527 9.09801 269.73 8.01601 269.73 6.35201C 269.73 4.688 270.527 3.60201 271.738 3.60201z"/>
<path style="stroke:none; fill-rule:evenodd; fill:#000000" d="M 276.031 12.723L 277.129 12.723L 277.129 9.105C 277.723 9.797 278.383 10.105 279.301 10.105C 281.121 10.105 282.324 8.65199 282.324 6.42599C 282.324 4.078 281.164 2.60899 279.281 2.60899C 278.324 2.60899 277.551 3.035 277.023 3.86301L 277.023 2.80901L 276.023 2.80901L 276.031 12.723zM 279.141 3.60201C 280.406 3.60201 281.23 4.69901 281.23 6.39101C 281.23 8 280.394 9.09801 279.141 9.09801C 277.93 9.09801 277.133 8.01601 277.133 6.35201C 277.133 4.688 277.93 3.60201 279.141 3.60201z"/>
<path style="stroke:none; fill-rule:evenodd; fill:#000000" d="M 286.469 2.60201C 284.516 2.60201 283.332 4.004 283.332 6.35201C 283.332 8.69901 284.5 10.098 286.48 10.098C 288.434 10.098 289.629 8.69901 289.629 6.40601C 289.629 3.992 288.473 2.605 286.469 2.605L 286.469 2.60201zM 286.48 3.60201C 287.762 3.60201 288.527 4.63699 288.527 6.39101C 288.527 8.047 287.734 9.09801 286.48 9.09801C 285.211 9.09801 284.434 8.062 284.434 6.34801C 284.434 4.65199 285.211 3.59801 286.48 3.59801L 286.48 3.60201z"/>
<path style="stroke:none; fill-rule:evenodd; fill:#000000" d="M 296.539 5.14101C 296.488 4.44901 296.34 4 296.07 3.605C 295.59 2.98 294.742 2.605 293.762 2.605C 291.871 2.605 290.637 4.09801 290.637 6.422C 290.637 8.67599 291.844 10.102 293.75 10.102C 295.426 10.102 296.488 9.10201 296.621 7.39101L 295.477 7.39101C 295.289 8.53101 294.703 9.10201 293.734 9.10201C 292.484 9.10201 291.734 8.09399 291.734 6.422C 291.734 4.65601 292.469 3.605 293.707 3.605C 294.656 3.605 295.258 4.15601 295.394 5.14101L 296.539 5.14101z"/>
<path style="stroke:none; fill-rule:evenodd; fill:#000000" d="M 304.094 9.145C 303.973 9.19901 303.918 9.19901 303.848 9.19901C 303.453 9.19901 303.23 9 303.23 8.65199L 303.23 4.52299C 303.23 3.27699 302.324 2.605 300.602 2.605C 299.59 2.605 298.75 2.895 298.281 3.414C 297.965 3.77 297.828 4.168 297.805 4.85899L 298.926 4.85899C 299.016 3.996 299.523 3.605 300.566 3.605C 301.566 3.605 302.129 3.98 302.129 4.64799L 302.129 4.94099C 302.129 5.41 301.852 5.60899 300.977 5.715C 299.414 5.914 299.176 5.96899 298.75 6.14101C 297.941 6.47301 297.531 7.105 297.531 8.01601C 297.531 9.285 298.41 10.09 299.82 10.09C 300.699 10.09 301.402 9.785 302.187 9.07001C 302.266 9.77299 302.613 10.09 303.332 10.09C 303.559 10.09 303.73 10.066 304.09 9.97301L 304.094 9.145zM 302.129 7.578C 302.129 7.94501 302.023 8.172 301.687 8.47701C 301.234 8.88699 300.68 9.09801 300.02 9.09801C 299.144 9.09801 298.637 8.688 298.637 7.98801C 298.637 7.26199 299.133 6.89101 300.332 6.71899C 301.516 6.562 301.758 6.508 302.133 6.336L 302.129 7.578z"/>
<path style="stroke:none; fill-rule:evenodd; fill:#000000" d="M 305.332 2.80499L 305.332 9.80099L 306.43 9.80099L 306.43 5.42599C 306.43 4.418 307.152 3.605 308.047 3.605C 308.863 3.605 309.324 4.10899 309.324 5L 309.324 9.80099L 310.422 9.80099L 310.422 5.42599C 310.422 4.418 311.172 3.605 312.098 3.605C 312.926 3.605 313.418 4.125 313.418 5L 313.418 9.80099L 314.516 9.80099L 314.516 4.55499C 314.516 3.30099 313.797 2.605 312.488 2.605C 311.559 2.605 310.996 2.879 310.344 3.65601C 309.934 2.922 309.371 2.605 308.465 2.605C 307.535 2.605 306.922 2.94901 306.32 3.793L 306.32 2.80499L 305.332 2.80499z"/>
<path style="stroke:none; fill-rule:evenodd; fill:#000000" d="M 316.23 12.723L 317.328 12.723L 317.328 9.105C 317.922 9.797 318.582 10.105 319.5 10.105C 321.32 10.105 322.523 8.65199 322.523 6.42599C 322.523 4.078 321.363 2.60899 319.48 2.60899C 318.523 2.60899 317.75 3.035 317.223 3.86301L 317.223 2.80901L 316.223 2.80901L 316.23 12.723zM 319.34 3.60201C 320.605 3.60201 321.43 4.69901 321.43 6.39101C 321.43 8 320.594 9.09801 319.34 9.09801C 318.129 9.09801 317.332 8.01601 317.332 6.35201C 317.332 4.688 318.129 3.60201 319.34 3.60201z"/>
<path style="stroke:none; fill-rule:evenodd; fill:#000000" d="M 330.195 9.145C 330.074 9.19901 330.02 9.19901 329.949 9.19901C 329.555 9.19901 329.332 9 329.332 8.65199L 329.332 4.52299C 329.332 3.27699 328.426 2.605 326.703 2.605C 325.691 2.605 324.852 2.895 324.383 3.414C 324.066 3.77 323.93 4.168 323.906 4.85899L 325.027 4.85899C 325.117 3.996 325.625 3.605 326.668 3.605C 327.668 3.605 328.23 3.98 328.23 4.64799L 328.23 4.94099C 328.23 5.41 327.953 5.60899 327.078 5.715C 325.516 5.914 325.277 5.96899 324.852 6.14101C 324.043 6.47301 323.633 7.105 323.633 8.01601C 323.633 9.285 324.512 10.09 325.922 10.09C 326.801 10.09 327.504 9.785 328.289 9.07001C 328.367 9.77299 328.715 10.09 329.434 10.09C 329.66 10.09 329.832 10.066 330.191 9.97301L 330.195 9.145zM 328.23 7.578C 328.23 7.94501 328.125 8.172 327.789 8.47701C 327.336 8.88699 326.781 9.09801 326.121 9.09801C 325.246 9.09801 324.738 8.688 324.738 7.98801C 324.738 7.26199 325.234 6.89101 326.434 6.71899C 327.617 6.562 327.859 6.508 328.234 6.336L 328.23 7.578z"/>
<path style="stroke:none; fill-rule:evenodd; fill:#000000" d="M 331.332 9.80099L 332.43 9.80099L 332.43 0.0039978L 331.332 0.0039978L 331.332 9.80099z"/>
<path style="stroke:none; fill-rule:evenodd; fill:#000000" d="M 334.332 9.80099L 335.43 9.80099L 335.43 0.0039978L 334.332 0.0039978L 334.332 9.80099z"/>
<path style="stroke:none; fill-rule:evenodd; fill:#000000" d="M 341.527 2.80099L 339.586 8.246L 337.793 2.80099L 336.602 2.80099L 338.969 9.895L 338.543 11.012C 338.371 11.508 338.117 11.695 337.648 11.695C 337.488 11.695 337.301 11.645 337.062 11.539L 337.062 12.523C 337.289 12.641 337.516 12.691 337.812 12.691C 338.172 12.691 338.562 12.574 338.855 12.359C 339.203 12.105 339.402 11.812 339.617 11.254L 342.734 2.797L 341.527 2.80099z"/>
<path style="stroke:none; fill-rule:evenodd; fill:#000000" d="M 349.129 0L 347.93 0L 347.93 9.797L 354.027 9.797L 354.027 8.797L 349.129 8.797L 349.129 0z"/>
<path style="stroke:none; fill-rule:evenodd; fill:#000000" d="M 361.129 6.703C 361.129 5.629 361.051 4.98399 360.852 4.461C 360.402 3.30901 359.336 2.60899 358.031 2.60899C 356.09 2.60899 354.836 4.10201 354.836 6.39799C 354.836 8.69099 356.039 10.105 357.988 10.105C 359.578 10.105 360.676 9.19901 360.957 7.67999L 359.832 7.67999C 359.527 8.617 358.894 9.105 358 9.105C 357.293 9.105 356.691 8.789 356.316 8.203C 356.051 7.80499 355.957 7.40601 355.941 6.711L 361.129 6.703zM 355.957 5.758C 356.051 4.461 356.84 3.617 357.965 3.617C 359.062 3.617 359.906 4.52699 359.906 5.67599C 359.906 5.69901 359.906 5.72701 359.894 5.754L 355.957 5.758z"/>
<path style="stroke:none; fill-rule:evenodd; fill:#000000" d="M 367.598 4.73801C 367.586 3.375 366.687 2.60201 365.09 2.60201C 363.48 2.60201 362.437 3.44501 362.437 4.746C 362.437 5.84399 362.992 6.36301 364.633 6.76601L 365.664 7.02C 366.43 7.207 366.734 7.48801 366.734 7.996C 366.734 8.65199 366.078 9.09399 365.094 9.09399C 364.492 9.09399 363.98 8.918 363.699 8.617C 363.527 8.414 363.445 8.211 363.379 7.707L 362.199 7.707C 362.25 9.32001 363.152 10.094 364.973 10.094C 366.723 10.094 367.84 9.22701 367.84 7.871C 367.84 6.828 367.258 6.254 365.883 5.918L 364.824 5.664C 363.926 5.453 363.543 5.15601 363.543 4.66C 363.543 4.02 364.117 3.60201 365.023 3.60201C 365.918 3.60201 366.398 3.992 366.426 4.73801L 367.598 4.73801z"/>
<path style="stroke:none; fill-rule:evenodd; fill:#000000" d="M 370.43 2.80099L 369.332 2.80099L 369.332 9.80099L 370.43 9.80099L 370.43 2.80099zM 370.43 0L 369.332 0L 369.332 1.44099L 370.43 1.44099L 370.43 0z"/>
<path style="stroke:none; fill-rule:evenodd; fill:#000000" d="M 374.969 2.60201C 373.016 2.60201 371.832 4.004 371.832 6.35201C 371.832 8.69901 373 10.098 374.98 10.098C 376.934 10.098 378.129 8.69901 378.129 6.40601C 378.129 3.992 376.973 2.605 374.969 2.605L 374.969 2.60201zM 374.98 3.60201C 376.262 3.60201 377.027 4.63699 377.027 6.39101C 377.027 8.047 376.234 9.09801 374.98 9.09801C 373.711 9.09801 372.934 8.062 372.934 6.34801C 372.934 4.65199 373.711 3.59801 374.98 3.59801L 374.98 3.60201z"/>
<path style="stroke:none; fill-rule:evenodd; fill:#000000" d="M 379.832 2.80499L 379.832 9.80099L 380.93 9.80099L 380.93 5.957C 380.93 4.535 381.668 3.605 382.801 3.605C 383.668 3.605 384.227 4.13699 384.227 4.97301L 384.227 9.80099L 385.324 9.80099L 385.324 4.51601C 385.324 3.355 384.465 2.60899 383.129 2.60899C 382.098 2.60899 381.437 3.008 380.828 3.98399L 380.828 2.812L 379.832 2.80499z"/>
<path style="stroke:none; fill-rule:evenodd; fill:#000000" d="M 393.129 6.703C 393.129 5.629 393.051 4.98399 392.852 4.461C 392.402 3.30901 391.336 2.60899 390.031 2.60899C 388.09 2.60899 386.836 4.10201 386.836 6.39799C 386.836 8.69099 388.039 10.105 389.988 10.105C 391.578 10.105 392.676 9.19901 392.957 7.67999L 391.832 7.67999C 391.527 8.617 390.894 9.105 390 9.105C 389.293 9.105 388.691 8.789 388.316 8.203C 388.051 7.80499 387.957 7.40601 387.941 6.711L 393.129 6.703zM 387.957 5.758C 388.051 4.461 388.84 3.617 389.965 3.617C 391.062 3.617 391.906 4.52699 391.906 5.67599C 391.906 5.69901 391.906 5.72701 391.894 5.754L 387.957 5.758z"/>
<path style="stroke:none; fill-rule:evenodd; fill:#000000" d="M 400.332 0L 399.234 0L 399.234 3.664C 398.773 2.96899 398.035 2.60201 397.109 2.60201C 395.312 2.60201 394.137 4.05499 394.137 6.285C 394.137 8.645 395.281 10.098 397.137 10.098C 398.082 10.098 398.742 9.742 399.332 8.875L 399.332 9.797L 400.332 9.797L 400.332 0zM 397.262 3.60201C 398.465 3.60201 399.227 4.68401 399.227 6.375C 399.227 8.01199 398.453 9.09399 397.273 9.09399C 396.047 9.09399 395.23 8 395.23 6.34801C 395.23 4.69901 396.043 3.59801 397.262 3.59801L 397.262 3.60201z"/>
<path style="stroke:none; fill-rule:evenodd; fill:#000000" d="M 411.117 9.80099L 413.93 1.621L 413.93 9.80099L 415.027 9.80099L 415.027 0.0039978L 413.301 0.0039978L 410.461 8.543L 407.566 0.0039978L 405.84 0.0039978L 405.84 9.80099L 406.937 9.80099L 406.937 1.621L 409.777 9.80099L 411.117 9.80099z"/>
<path style="stroke:none; fill-rule:evenodd; fill:#000000" d="M 419.668 2.60201C 417.715 2.60201 416.531 4.004 416.531 6.35201C 416.531 8.69901 417.699 10.098 419.68 10.098C 421.633 10.098 422.828 8.69901 422.828 6.40601C 422.828 3.992 421.672 2.605 419.668 2.605L 419.668 2.60201zM 419.68 3.60201C 420.961 3.60201 421.727 4.63699 421.727 6.39101C 421.727 8.047 420.934 9.09801 419.68 9.09801C 418.41 9.09801 417.633 8.062 417.633 6.34801C 417.633 4.65199 418.41 3.59801 419.68 3.59801L 419.68 3.60201z"/>
<path style="stroke:none; fill-rule:evenodd; fill:#000000" d="M 430.031 0L 428.934 0L 428.934 3.664C 428.473 2.96899 427.734 2.60201 426.809 2.60201C 425.012 2.60201 423.836 4.05499 423.836 6.285C 423.836 8.645 424.98 10.098 426.836 10.098C 427.781 10.098 428.441 9.742 429.031 8.875L 429.031 9.797L 430.031 9.797L 430.031 0zM 426.965 3.60201C 428.168 3.60201 428.93 4.68401 428.93 6.375C 428.93 8.01199 428.156 9.09399 426.977 9.09399C 425.75 9.09399 424.934 8 424.934 6.34801C 424.934 4.69901 425.746 3.59801 426.965 3.59801L 426.965 3.60201z"/>
<path style="stroke:none; fill-rule:evenodd; fill:#000000" d="M 437.832 6.703C 437.832 5.629 437.754 4.98399 437.555 4.461C 437.105 3.30901 436.039 2.60899 434.734 2.60899C 432.793 2.60899 431.539 4.10201 431.539 6.39799C 431.539 8.69099 432.742 10.105 434.691 10.105C 436.281 10.105 437.379 9.19901 437.66 7.67999L 436.535 7.67999C 436.23 8.617 435.598 9.105 434.703 9.105C 433.996 9.105 433.394 8.789 433.02 8.203C 432.754 7.80499 432.66 7.40601 432.644 6.711L 437.832 6.703zM 432.656 5.758C 432.75 4.461 433.539 3.617 434.664 3.617C 435.762 3.617 436.605 4.52699 436.605 5.67599C 436.605 5.69901 436.605 5.72701 436.594 5.754L 432.656 5.758z"/>
<path style="stroke:none; fill-rule:evenodd; fill:#000000" d="M 439.23 9.80099L 440.328 9.80099L 440.328 0.0039978L 439.23 0.0039978L 439.23 9.80099z"/>
<path style="stroke:#000000; stroke-width:2.8699499999999998; fill:none" d="M 381.211 28.957L 446.262 94.008"/>
<path style="stroke:#000000; stroke-width:2.8699499999999998; fill:none" d="M 444.348 28.957L 379.297 94.008"/>
<path style="stroke:none; fill-rule:evenodd; fill:#000000" d="M 145.523 123.203L 141.93 123.203L 141.93 119.645L 140.73 119.645L 140.73 123.203L 137.195 123.203L 137.195 124.402L 140.73 124.402L 140.73 127.973L 141.93 127.973L 141.93 124.402L 145.523 124.402L 145.523 123.203z"/>
<path style="stroke:#000000; stroke-width:1.9133; fill:none" d="M 154.484 125.578C 154.484 118.184 148.492 112.188 141.094 112.188C 133.699 112.188 127.703 118.18 127.703 125.578C 127.703 132.973 133.695 138.969 141.094 138.969C 148.488 138.969 154.484 132.977 154.484 125.578"/>
<path style="stroke:none; fill-rule:evenodd; fill:#000000" d="M 78.832 124.602L 90.43 124.602L 90.43 123.004L 78.832 123.004L 78.832 124.602z"/>
<path style="stroke:#000000; stroke-width:1.9133; fill:none" d="M 98.043 125.578C 98.043 118.184 92.051 112.188 84.652 112.188C 77.2578 112.188 71.2617 118.18 71.2617 125.578C 71.2617 132.973 77.2539 138.969 84.652 138.969C 92.047 138.969 98.043 132.977 98.043 125.578"/>
<path style="stroke:none; fill-rule:evenodd; fill:#000000" d="M 386.625 125.203L 383.031 125.203L 383.031 121.645L 381.832 121.645L 381.832 125.203L 378.297 125.203L 378.297 126.402L 381.832 126.402L 381.832 129.973L 383.031 129.973L 383.031 126.402L 386.625 126.402L 386.625 125.203z"/>
<path style="stroke:#000000; stroke-width:1.9133; fill:none" d="M 395.559 127.488C 395.559 120.094 389.566 114.098 382.168 114.098C 374.773 114.098 368.777 120.09 368.777 127.488C 368.777 134.883 374.77 140.879 382.168 140.879C 389.562 140.879 395.559 134.887 395.559 127.488"/>
<path style="stroke:none; fill-rule:evenodd; fill:#000000" d="M 319.93 126.5L 331.527 126.5L 331.527 124.902L 319.93 124.902L 319.93 126.5z"/>
<path style="stroke:#000000; stroke-width:1.9133; fill:none" d="M 339.117 127.488C 339.117 120.094 333.125 114.098 325.727 114.098C 318.332 114.098 312.336 120.09 312.336 127.488C 312.336 134.883 318.328 140.879 325.727 140.879C 333.121 140.879 339.117 134.887 339.117 127.488"/>
</g>
</svg>