<?xml version="1.0" encoding="UTF-8" standalone="no"?>
<!-- Created with Inkscape (http://www.inkscape.org/) -->
<svg
   xmlns:dc="http://purl.org/dc/elements/1.1/"
   xmlns:cc="http://creativecommons.org/ns#"
   xmlns:rdf="http://www.w3.org/1999/02/22-rdf-syntax-ns#"
   xmlns:svg="http://www.w3.org/2000/svg"
   xmlns="http://www.w3.org/2000/svg"
   xmlns:sodipodi="http://sodipodi.sourceforge.net/DTD/sodipodi-0.dtd"
   xmlns:inkscape="http://www.inkscape.org/namespaces/inkscape"
   width="744.09448819"
   height="1052.3622047"
   id="svg2"
   sodipodi:version="0.32"
   inkscape:version="0.46"
   sodipodi:docname="fig.pvlv_intrinsic_motivation_lrn_zones.svg"
   inkscape:output_extension="org.inkscape.output.svg.inkscape"
   inkscape:export-filename="/Users/oreilly/svn_docs/figs/fig.pvlv_intrinsic_motivation_lrn_zones.png"
   inkscape:export-xdpi="150"
   inkscape:export-ydpi="150">
  <defs
     id="defs4">
    <inkscape:perspective
       sodipodi:type="inkscape:persp3d"
       inkscape:vp_x="0 : 526.18109 : 1"
       inkscape:vp_y="0 : 1000 : 0"
       inkscape:vp_z="744.09448 : 526.18109 : 1"
       inkscape:persp3d-origin="372.04724 : 350.78739 : 1"
       id="perspective10" />
  </defs>
  <sodipodi:namedview
     id="base"
     pagecolor="#ffffff"
     bordercolor="#666666"
     borderopacity="1.0"
     gridtolerance="10000"
     guidetolerance="10"
     objecttolerance="10"
     inkscape:pageopacity="0.0"
     inkscape:pageshadow="2"
     inkscape:zoom="0.98994949"
     inkscape:cx="80.192191"
     inkscape:cy="465.81767"
     inkscape:document-units="px"
     inkscape:current-layer="layer1"
     showgrid="false" />
  <metadata
     id="metadata7">
    <rdf:RDF>
      <cc:Work
         rdf:about="">
        <dc:format>image/svg+xml</dc:format>
        <dc:type
           rdf:resource="http://purl.org/dc/dcmitype/StillImage" />
      </cc:Work>
    </rdf:RDF>
  </metadata>
  <g
     inkscape:label="Layer 1"
     inkscape:groupmode="layer"
     id="layer1">
    <rect
       style="opacity:1;fill:#ffffff;fill-opacity:1;fill-rule:evenodd;stroke:#000000;stroke-width:1;stroke-linecap:butt;stroke-linejoin:miter;marker:none;marker-start:none;marker-mid:none;marker-end:none;stroke-miterlimit:4;stroke-dasharray:none;stroke-dashoffset:0;stroke-opacity:1;visibility:visible;display:inline;overflow:visible;enable-background:accumulate"
       id="rect2383"
       width="501.03568"
       height="296.98486"
       x="101.01525"
       y="512.94073" />
    <path
       style="fill:none;fill-rule:evenodd;stroke:#000000;stroke-width:1px;stroke-linecap:butt;stroke-linejoin:miter;stroke-opacity:1"
       d="M 109.09647,673.55498 C 114.00411,670.91145 122.95615,675.57528 128.28937,675.57528 C 140.4112,675.57528 152.53303,675.57528 164.65486,675.57528 C 172.91273,675.57528 179.84336,676.58544 188.89853,676.58544 C 195.63288,676.58544 202.36723,676.58544 209.10158,676.58544 C 215.14344,676.58544 221.64768,673.95399 227.28432,672.54483 C 238.27628,669.79684 252.96474,667.78584 261.62951,663.45345 C 262.23185,663.15228 262.97638,663.45345 263.64981,663.45345 C 267.16654,663.45345 276.44261,655.03675 279.81226,653.35193 C 292.08702,647.21455 305.21841,640.64885 318.19805,634.15903 C 333.53374,626.49118 343.19624,620.27252 349.51278,613.95598 C 351.86473,611.60403 367.80827,608.84884 371.73614,606.88491 C 384.82053,600.34271 393.77171,584.04477 405.07117,575.57018 C 405.67351,575.11843 406.41804,574.89675 407.09148,574.56003 C 414.44929,570.88112 419.04242,566.6497 423.25392,562.4382 C 428.6392,557.05291 441.47774,552.30381 446.48743,548.29606 C 451.24841,544.48727 460.84321,546.43506 466.69048,545.2656 C 482.86844,542.03001 498.74264,539.20469 515.1778,539.20469 C 527.17707,539.20469 537.81348,540.57046 548.51283,543.2453 C 554.13844,544.6517 561.87278,543.2453 567.70573,543.2453 C 572.79731,543.2453 579.93722,541.45012 584.87832,540.21484 C 591.03896,538.67468 594.6474,540.89254 597.00015,543.2453"
       id="path2385" />
    <path
       style="fill:none;fill-rule:evenodd;stroke:#0000ff;stroke-width:1px;stroke-linecap:butt;stroke-linejoin:miter;stroke-opacity:1"
       d="M 109.09647,689.71742 C 115.68529,688.07022 125.14941,647.16922 126.26907,643.2504 C 129.39918,632.29499 132.28529,665.38436 137.38075,675.57528 C 158.55901,717.93181 155.46247,700.82919 159.6041,659.41284 C 161.43843,641.06952 163.66534,685.46037 174.75639,704.86971 C 176.71058,708.28953 178.3346,688.62191 186.87822,671.53467 C 208.94862,627.39387 186.40429,652.40406 207.08127,693.75803 C 218.62802,716.85153 225.17789,707.81404 209.10158,691.73772 C 199.54265,682.1788 216.70076,667.09922 225.26402,670.52452 C 243.3388,677.75443 269.77493,742.0056 263.64981,668.50422 C 260.11447,626.08011 260.52704,679.40051 264.65996,641.2301 C 271.59285,577.19996 274.48694,581.47914 274.76149,594.76308 C 275.89534,649.62351 296.98485,581.25485 296.98485,552.33667 C 296.98485,545.94791 293.44059,564.64722 290.92393,570.51942 C 283.24765,588.43074 286.79543,622.21297 305.06607,585.6717 C 326.78238,542.23907 313.14729,532.2746 313.14729,583.6514 C 313.14729,590.40455 320.00479,612.57639 325.26912,596.78338 C 330.55569,580.92367 333.95522,564.2589 341.43156,549.30622 C 347.46247,537.24439 339.41126,576.22679 339.41126,589.71232 C 339.41126,593.43148 340.08469,597.1201 340.42141,600.82399 C 340.65558,603.39991 350.46544,576.75281 358.60415,552.33667 C 369.25357,520.38841 362.26764,553.97986 369.71583,561.42805 C 391.90742,583.61964 369.00779,532.97385 381.83766,554.35698 C 405.58012,593.92775 379.97035,576.81767 402.04071,538.19454 C 423.84721,500.03317 420.44575,531.00248 425.27422,550.31637 C 428.6325,563.74946 449.51788,496.36345 449.51788,545.2656 C 449.51788,558.09827 460.39661,560.93603 471.74124,568.49911 C 477.95708,572.64301 479.66585,563.76156 482.85292,557.38744 C 487.05362,548.98603 491.94429,544.52144 491.94429,536.17423 C 491.94429,536.06848 502.05156,561.41367 510.12704,541.22499 C 512.16482,536.13054 504.89474,499.3549 511.13719,514.96103 C 516.6342,528.70355 531.95794,556.15203 540.43161,539.20469 C 552.37559,515.31674 551.69712,549.51132 554.57375,553.34683 C 555.15327,554.11952 574.7768,479.53432 574.7768,526.07271 C 574.7768,536.31209 584.77289,575.78105 595.99,553.34683 C 599.89598,545.53486 604.96713,534.9446 608.11183,527.08286"
       id="path2387"
       sodipodi:nodetypes="cssssssssssssssssssssssssssssssssssc" />
    <path
       style="fill:none;fill-rule:evenodd;stroke:#d40000;stroke-width:1px;stroke-linecap:butt;stroke-linejoin:miter;stroke-opacity:1"
       d="M 104.04571,762.4484 C 104.21439,762.11104 119.62653,763.45855 124.24876,763.45855 C 131.99327,763.45855 139.73777,763.45855 147.48227,763.45855 C 156.83937,763.45855 166.18718,764.46871 175.76654,764.46871 C 191.51887,764.46871 208.94963,762.47879 224.25387,759.41794 C 231.44178,757.98036 241.03766,759.41794 248.49753,759.41794 C 253.37034,759.41794 261.96695,746.95867 263.64981,745.27581 C 270.4449,738.48072 277.62081,730.46246 286.88332,723.05245 C 291.80373,719.11613 294.42486,714.90202 291.93409,709.92047 C 290.59583,707.24396 302.23008,700.63463 303.04576,699.81894 C 309.77604,693.08867 316.67946,687.44626 324.25897,683.6565 C 330.74046,680.41576 337.20049,680.05805 344.46202,678.60574 C 354.54362,676.58942 366.09597,676.58544 376.7869,676.58544 C 384.06048,676.58544 389.60084,679.61589 396.98995,679.61589 C 403.79035,679.61589 410.68197,681.6362 417.193,681.6362 C 420.9869,681.6362 427.95349,691.94291 429.31483,693.75803 C 433.48017,699.31181 436.8919,709.92415 438.4062,715.98139 C 440.76566,725.4192 454.67254,736.6943 458.60926,743.2555 C 461.06688,747.35155 463.6099,750.30653 468.71078,752.34688 C 469.15291,752.52373 469.38422,753.02031 469.72093,753.35703 C 477.1871,760.82319 494.77264,758.40779 505.07627,758.40779 C 519.31188,758.40779 533.29914,757.39764 547.50268,757.39764 C 554.11929,757.39764 561.70537,758.40779 568.71588,758.40779 C 575.91317,758.40779 584.11825,757.39764 591.94939,757.39764 C 594.64313,757.39764 597.33687,757.39764 600.03061,757.39764"
       id="path2389" />
    <text
       xml:space="preserve"
       style="font-size:14px;font-style:normal;font-variant:normal;font-weight:normal;font-stretch:normal;text-align:start;line-height:100%;writing-mode:lr-tb;text-anchor:start;fill:#0000ff;fill-opacity:1;stroke:none;stroke-width:1px;stroke-linecap:butt;stroke-linejoin:miter;stroke-opacity:1;font-family:Arial;-inkscape-font-specification:Arial"
       x="218.19295"
       y="600.82397"
       id="text2391"
       sodipodi:linespacing="100%"><tspan
         sodipodi:role="line"
         id="tspan2393"
         x="218.19295"
         y="600.82397">PVe = r</tspan></text>
    <text
       xml:space="preserve"
       style="font-size:14px;font-style:normal;font-variant:normal;font-weight:normal;font-stretch:normal;text-align:start;line-height:100%;writing-mode:lr-tb;text-anchor:start;fill:#000000;fill-opacity:1;stroke:none;stroke-width:1px;stroke-linecap:butt;stroke-linejoin:miter;stroke-opacity:1;font-family:Arial;-inkscape-font-specification:Arial"
       x="333.35034"
       y="638.19965"
       id="text2395"
       sodipodi:linespacing="100%"><tspan
         sodipodi:role="line"
         id="tspan2397"
         x="333.35034"
         y="638.19965">PVi = reward prediction</tspan></text>
    <text
       xml:space="preserve"
       style="font-size:14px;font-style:normal;font-variant:normal;font-weight:normal;font-stretch:normal;text-align:start;line-height:100%;writing-mode:lr-tb;text-anchor:start;fill:#aa0000;fill-opacity:1;stroke:none;stroke-width:1px;stroke-linecap:butt;stroke-linejoin:miter;stroke-opacity:1;font-family:Arial;-inkscape-font-specification:Arial"
       x="446.48743"
       y="720.02197"
       id="text2399"
       sodipodi:linespacing="100%"><tspan
         sodipodi:role="line"
         id="tspan2401"
         x="446.48743"
         y="720.02197">da = PVe - PVi</tspan></text>
    <text
       xml:space="preserve"
       style="font-size:14px;font-style:normal;font-variant:normal;font-weight:normal;font-stretch:normal;text-align:start;line-height:100%;writing-mode:lr-tb;text-anchor:start;fill:#000000;fill-opacity:1;stroke:none;stroke-width:1px;stroke-linecap:butt;stroke-linejoin:miter;stroke-opacity:1;font-family:Arial;-inkscape-font-specification:Arial"
       x="141.42136"
       y="792.75299"
       id="text2403"
       sodipodi:linespacing="100%"><tspan
         sodipodi:role="line"
         id="tspan2405"
         x="141.42136"
         y="792.75299">bad perf</tspan></text>
    <text
       xml:space="preserve"
       style="font-size:14px;font-style:normal;font-variant:normal;font-weight:normal;font-stretch:normal;text-align:start;line-height:100%;writing-mode:lr-tb;text-anchor:start;fill:#000000;fill-opacity:1;stroke:none;stroke-width:1px;stroke-linecap:butt;stroke-linejoin:miter;stroke-opacity:1;font-family:Arial;-inkscape-font-specification:Arial"
       x="297.995"
       y="790.73267"
       id="text2407"
       sodipodi:linespacing="100%"><tspan
         sodipodi:role="line"
         id="tspan2409"
         x="297.995"
         y="790.73267">learning</tspan></text>
    <text
       xml:space="preserve"
       style="font-size:14px;font-style:normal;font-variant:normal;font-weight:normal;font-stretch:normal;text-align:start;line-height:100%;writing-mode:lr-tb;text-anchor:start;fill:#000000;fill-opacity:1;stroke:none;stroke-width:1px;stroke-linecap:butt;stroke-linejoin:miter;stroke-opacity:1;font-family:Arial;-inkscape-font-specification:Arial"
       x="503.05597"
       y="794.77325"
       id="text2411"
       sodipodi:linespacing="100%"><tspan
         sodipodi:role="line"
         id="tspan2413"
         x="503.05597"
         y="794.77325">good perf</tspan></text>
    <path
       sodipodi:type="arc"
       style="opacity:1;fill:none;fill-opacity:1;fill-rule:evenodd;stroke:#000000;stroke-width:1;stroke-linecap:butt;stroke-linejoin:miter;marker:none;marker-start:none;marker-mid:none;marker-end:none;stroke-miterlimit:4;stroke-dasharray:none;stroke-dashoffset:0;stroke-opacity:1;visibility:visible;display:inline;overflow:visible;enable-background:accumulate"
       id="path2415"
       sodipodi:cx="292.43915"
       sodipodi:cy="714.97125"
       sodipodi:rx="38.890873"
       sodipodi:ry="53.538086"
       d="M 331.33002,714.97125 A 38.890873,53.538086 0 1 1 253.54827,714.97125 A 38.890873,53.538086 0 1 1 331.33002,714.97125 z" />
    <text
       xml:space="preserve"
       style="font-size:14px;font-style:normal;font-variant:normal;font-weight:normal;font-stretch:normal;text-align:start;line-height:100%;writing-mode:lr-tb;text-anchor:start;fill:#000000;fill-opacity:1;stroke:none;stroke-width:1px;stroke-linecap:butt;stroke-linejoin:miter;stroke-opacity:1;font-family:Arial;-inkscape-font-specification:Arial"
       x="159.6041"
       y="731.13367"
       id="text3187"
       sodipodi:linespacing="100%"><tspan
         sodipodi:role="line"
         id="tspan3189"
         x="159.6041"
         y="731.13367">&quot;hot new thing&quot;</tspan></text>
  </g>
</svg>
