<?xml version="1.0" encoding="ISO-8859-1" standalone="yes"?>
<svg width="531.459" height="382.289">
  <defs> 
    <marker id="ArrowEnd" viewBox="0 0 10 10" refX="0" refY="5" 
     markerUnits="strokeWidth" 
     markerWidth="4" 
     markerHeight="3" 
     orient="auto"> 
        <path d="M 0 0 L 10 5 L 0 10 z" /> 
    </marker>
    <marker id="ArrowStart" viewBox="0 0 10 10" refX="10" refY="5" 
     markerUnits="strokeWidth" 
     markerWidth="4" 
     markerHeight="3" 
     orient="auto"> 
        <path d="M 10 0 L 0 5 L 10 10 z" /> 
    </marker> </defs>
<g>
<path style="stroke:none; fill-rule:evenodd; fill:#dcdcdc" d="M 133.07 327.067L 183.086 327.067L 183.086 185.016L 133.07 185.016L 133.07 327.067z"/>
<path style="stroke:none; fill-rule:evenodd; fill:#dcdcdc" d="M 238.348 327.067L 288.363 327.067L 288.363 173.637L 238.348 173.637L 238.348 327.067z"/>
<path style="stroke:none; fill-rule:evenodd; fill:#dcdcdc" d="M 343.742 327.067L 393.758 327.067L 393.758 151.969L 343.742 151.969L 343.742 327.067z"/>
<path style="stroke:none; fill-rule:evenodd; fill:#dcdcdc" d="M 449.078 327.067L 499.035 327.067L 499.035 45.793L 449.078 45.793L 449.078 327.067z"/>
<path style="stroke:#000000; stroke-width:0.90288000000000002; fill:none" d="M 133.07 327.125L 133.07 185.016L 183.09 185.016L 183.09 327.125"/>
<path style="stroke:#000000; stroke-width:0.90288000000000002; fill:none" d="M 238.348 327.125L 238.348 173.637L 288.367 173.637L 288.367 327.125"/>
<path style="stroke:#000000; stroke-width:0.90288000000000002; fill:none" d="M 343.742 327.125L 343.742 151.969L 393.762 151.969L 393.762 327.125"/>
<path style="stroke:#000000; stroke-width:0.90288000000000002; fill:none" d="M 449.078 327.125L 449.078 45.79L 499.035 45.79L 499.035 327.125"/>
<path style="stroke:#000000; stroke-width:0.90288000000000002; fill:none" d="M 158.051 185.012L 158.051 180.5"/>
<path style="stroke:#000000; stroke-width:0.90288000000000002; fill:none" d="M 152.031 180.5L 164.066 180.5"/>
<path style="stroke:#000000; stroke-width:0.90288000000000002; fill:none" d="M 158.051 185.012L 158.051 190.547"/>
<path style="stroke:#000000; stroke-width:0.90288000000000002; fill:none" d="M 164.07 190.551L 152.035 190.551"/>
<path style="stroke:#000000; stroke-width:0.90288000000000002; fill:none" d="M 263.387 173.637L 263.387 172.317"/>
<path style="stroke:#000000; stroke-width:0.90288000000000002; fill:none" d="M 257.367 172.313L 269.402 172.313"/>
<path style="stroke:#000000; stroke-width:0.90288000000000002; fill:none" d="M 263.387 173.637L 263.387 175.02"/>
<path style="stroke:#000000; stroke-width:0.90288000000000002; fill:none" d="M 269.406 175.02L 257.371 175.02"/>
<path style="stroke:#000000; stroke-width:0.90288000000000002; fill:none" d="M 368.723 151.969L 368.723 150.707"/>
<path style="stroke:#000000; stroke-width:0.90288000000000002; fill:none" d="M 362.703 150.704L 374.738 150.704"/>
<path style="stroke:#000000; stroke-width:0.90288000000000002; fill:none" d="M 368.723 151.969L 368.723 153.231"/>
<path style="stroke:#000000; stroke-width:0.90288000000000002; fill:none" d="M 374.742 153.231L 362.707 153.231"/>
<path style="stroke:#000000; stroke-width:0.90288000000000002; fill:none" d="M 474.059 45.79L 474.059 41.938"/>
<path style="stroke:#000000; stroke-width:0.90288000000000002; fill:none" d="M 468.039 41.938L 480.074 41.938"/>
<path style="stroke:#000000; stroke-width:0.90288000000000002; fill:none" d="M 474.059 45.79L 474.059 50.301"/>
<path style="stroke:#000000; stroke-width:0.90288000000000002; fill:none" d="M 480.078 50.305L 468.043 50.305"/>
<path style="stroke:#000000; stroke-width:0.90288000000000002; fill:none" d="M 158.051 327.067L 158.051 315.032"/>
<path style="stroke:#000000; stroke-width:0.90288000000000002; fill:none" d="M 158.051 35.075L 158.051 47.11"/>
<path style="stroke:#000000; stroke-width:0.90288000000000002; fill:none" d="M 263.387 327.067L 263.387 315.032"/>
<path style="stroke:#000000; stroke-width:0.90288000000000002; fill:none" d="M 263.387 35.075L 263.387 47.11"/>
<path style="stroke:#000000; stroke-width:0.90288000000000002; fill:none" d="M 368.723 327.067L 368.723 315.032"/>
<path style="stroke:#000000; stroke-width:0.90288000000000002; fill:none" d="M 368.723 35.075L 368.723 47.11"/>
<path style="stroke:#000000; stroke-width:0.90288000000000002; fill:none" d="M 474.059 327.067L 474.059 315.032"/>
<path style="stroke:#000000; stroke-width:0.90288000000000002; fill:none" d="M 474.059 35.075L 474.059 47.11"/>
<path style="stroke:none; fill-rule:evenodd; fill:#000000" d="M 124.297 343.797L 130.059 343.797C 131.492 343.797 132.625 343.372 133.605 342.489C 134.711 341.481 135.191 340.297 135.191 338.606C 135.191 335.153 133.145 333.207 129.504 333.207L 121.895 333.207L 121.895 351.606L 124.293 351.606L 124.297 343.797zM 124.297 341.696L 124.297 335.297L 129.145 335.297C 131.367 335.297 132.691 336.497 132.691 338.497C 132.691 340.497 131.367 341.692 129.145 341.692L 124.297 341.696z"/>
<path style="stroke:none; fill-rule:evenodd; fill:#000000" d="M 138.5 351.598L 146.844 351.598C 148.594 351.598 149.887 351.122 150.875 350.063C 151.785 349.106 152.293 347.793 152.293 346.356C 152.293 344.137 151.27 342.797 148.883 341.891C 150.586 341.11 151.492 339.747 151.492 337.879C 151.492 336.543 150.984 335.36 150.02 334.5C 149.055 333.618 147.789 333.215 146.012 333.215L 138.5 333.215L 138.5 351.598zM 140.898 341.098L 140.898 335.301L 145.422 335.301C 146.727 335.301 147.457 335.477 148.086 335.95C 148.738 336.45 149.09 337.2 149.09 338.2C 149.09 339.172 148.738 339.95 148.086 340.45C 147.457 340.922 146.73 341.098 145.422 341.098L 140.898 341.098zM 140.898 349.497L 140.898 343.2L 146.602 343.2C 147.73 343.2 148.484 343.473 149.039 344.079C 149.59 344.653 149.891 345.457 149.891 346.36C 149.891 347.235 149.59 348.039 149.039 348.618C 148.488 349.219 147.734 349.493 146.602 349.493L 140.898 349.497z"/>
<path style="stroke:none; fill-rule:evenodd; fill:#000000" d="M 172.207 351.598L 176.883 333.2L 174.254 333.2L 170.867 348.133L 166.672 333.2L 164.145 333.2L 160.051 348.133L 156.59 333.2L 153.961 333.2L 158.688 351.598L 161.266 351.598L 165.383 336.457L 169.629 351.598L 172.207 351.598z"/>
<path style="stroke:none; fill-rule:evenodd; fill:#000000" d="M 189.012 351.598L 194.195 336.153L 194.195 351.598L 196.395 351.598L 196.395 333.2L 193.141 333.2L 187.797 349.219L 182.352 333.2L 179.102 333.2L 179.102 351.598L 181.301 351.598L 181.301 336.153L 186.535 351.598L 189.012 351.598z"/>
<path style="stroke:none; fill-rule:evenodd; fill:#000000" d="M 235 333.395L 232.602 333.395L 232.602 351.793L 244.102 351.793L 244.102 349.696L 235.004 349.696L 235 333.395z"/>
<path style="stroke:none; fill-rule:evenodd; fill:#000000" d="M 259.797 338.778C 259.773 335.184 257.273 333.098 252.996 333.098C 248.922 333.098 246.402 335.164 246.402 338.493C 246.402 340.735 247.59 342.149 250.02 342.778L 254.602 343.989C 256.93 344.59 257.992 345.524 257.992 346.961C 257.992 347.942 257.465 348.954 256.684 349.508C 255.957 350.012 254.801 350.289 253.316 350.289C 251.332 350.289 249.973 349.813 249.094 348.754C 248.418 347.95 248.113 347.067 248.102 345.93L 245.902 345.93C 245.926 347.625 246.254 348.743 246.988 349.758C 248.25 351.481 250.379 352.395 253.188 352.395C 255.387 352.395 257.184 351.891 258.375 350.985C 259.613 350.004 260.398 348.364 260.398 346.774C 260.398 344.508 258.98 342.844 256.473 342.161L 251.84 340.926C 249.613 340.325 248.805 339.618 248.805 338.204C 248.805 336.34 250.461 335.102 252.961 335.102C 255.918 335.102 257.574 336.418 257.602 338.782L 259.797 338.778z"/>
<path style="stroke:none; fill-rule:evenodd; fill:#000000" d="M 270.598 335.497L 276.586 335.497L 276.586 333.399L 262.125 333.399L 262.125 335.497L 268.191 335.497L 268.191 351.793L 270.59 351.793L 270.598 335.497z"/>
<path style="stroke:none; fill-rule:evenodd; fill:#000000" d="M 288.812 351.797L 293.996 336.352L 293.996 351.797L 296.195 351.797L 296.195 333.399L 292.941 333.399L 287.598 349.418L 282.152 333.399L 278.902 333.399L 278.902 351.797L 281.102 351.797L 281.102 336.352L 286.336 351.797L 288.812 351.797z"/>
<path style="stroke:none; fill-rule:evenodd; fill:#000000" d="M 348.098 343.696L 354.168 343.696C 356.266 343.696 357.203 344.7 357.203 346.965L 357.203 348.598C 357.203 349.727 357.402 350.836 357.727 351.59L 360.551 351.59L 360.551 351.012C 359.637 350.411 359.453 349.75 359.398 347.305C 359.375 344.278 358.902 343.372 356.938 342.512C 359.039 341.504 359.887 340.219 359.887 338.122C 359.887 334.942 357.879 333.2 354.238 333.2L 345.691 333.2L 345.691 351.598L 348.09 351.598L 348.098 343.696zM 348.102 341.586L 348.102 335.243L 353.789 335.243C 355.102 335.243 355.859 335.442 356.441 335.95C 357.07 336.477 357.402 337.313 357.402 338.426C 357.402 340.598 356.293 341.582 353.789 341.582L 348.102 341.586z"/>
<path style="stroke:none; fill-rule:evenodd; fill:#000000" d="M 363.598 351.598L 371.941 351.598C 373.691 351.598 374.984 351.122 375.973 350.063C 376.883 349.106 377.391 347.793 377.391 346.356C 377.391 344.137 376.367 342.797 373.98 341.891C 375.684 341.11 376.59 339.747 376.59 337.879C 376.59 336.543 376.082 335.36 375.117 334.5C 374.152 333.618 372.887 333.215 371.109 333.215L 363.598 333.215L 363.598 351.598zM 366 341.098L 366 335.301L 370.523 335.301C 371.828 335.301 372.559 335.477 373.188 335.95C 373.84 336.45 374.191 337.2 374.191 338.2C 374.191 339.172 373.84 339.95 373.188 340.45C 372.559 340.922 371.832 341.098 370.523 341.098L 366 341.098zM 366 349.497L 366 343.2L 371.703 343.2C 372.832 343.2 373.586 343.473 374.141 344.079C 374.691 344.653 374.992 345.457 374.992 346.36C 374.992 347.235 374.691 348.039 374.141 348.618C 373.59 349.219 372.836 349.493 371.703 349.493L 366 349.497z"/>
<path style="stroke:none; fill-rule:evenodd; fill:#000000" d="M 383.199 343.797L 388.961 343.797C 390.395 343.797 391.527 343.372 392.508 342.489C 393.613 341.481 394.094 340.297 394.094 338.606C 394.094 335.153 392.047 333.207 388.406 333.207L 380.797 333.207L 380.797 351.606L 383.195 351.606L 383.199 343.797zM 383.199 341.696L 383.199 335.297L 388.047 335.297C 390.27 335.297 391.594 336.497 391.594 338.497C 391.594 340.497 390.27 341.692 388.047 341.692L 383.199 341.696z"/>
<path style="stroke:none; fill-rule:evenodd; fill:#000000" d="M 463.5 338.778C 463.477 335.184 460.977 333.098 456.699 333.098C 452.625 333.098 450.105 335.164 450.105 338.493C 450.105 340.735 451.293 342.149 453.723 342.778L 458.305 343.989C 460.633 344.59 461.695 345.524 461.695 346.961C 461.695 347.942 461.168 348.954 460.387 349.508C 459.66 350.012 458.504 350.289 457.02 350.289C 455.035 350.289 453.676 349.813 452.797 348.754C 452.121 347.95 451.816 347.067 451.805 345.93L 449.605 345.93C 449.629 347.625 449.957 348.743 450.691 349.758C 451.953 351.481 454.082 352.395 456.891 352.395C 459.09 352.395 460.887 351.891 462.078 350.985C 463.316 350.004 464.102 348.364 464.102 346.774C 464.102 344.508 462.684 342.844 460.176 342.161L 455.543 340.926C 453.316 340.325 452.508 339.618 452.508 338.204C 452.508 336.34 454.164 335.102 456.664 335.102C 459.621 335.102 461.277 336.418 461.305 338.782L 463.5 338.778z"/>
<path style="stroke:none; fill-rule:evenodd; fill:#000000" d="M 469.898 343.895L 475.969 343.895C 478.066 343.895 479.004 344.899 479.004 347.164L 479.004 348.797C 479.004 349.926 479.203 351.036 479.527 351.789L 482.352 351.789L 482.352 351.211C 481.438 350.61 481.254 349.95 481.199 347.504C 481.176 344.477 480.703 343.571 478.738 342.711C 480.84 341.704 481.688 340.418 481.688 338.321C 481.688 335.141 479.68 333.399 476.039 333.399L 467.492 333.399L 467.492 351.797L 469.891 351.797L 469.898 343.895zM 469.898 341.786L 469.898 335.442L 475.586 335.442C 476.898 335.442 477.656 335.641 478.238 336.149C 478.867 336.676 479.199 337.512 479.199 338.625C 479.199 340.797 478.09 341.782 475.586 341.782L 469.898 341.786z"/>
<path style="stroke:none; fill-rule:evenodd; fill:#000000" d="M 499.797 333.395L 497.598 333.395L 497.598 348.43L 487.953 333.395L 485.398 333.395L 485.398 351.793L 487.598 351.793L 487.598 336.856L 497.137 351.793L 499.793 351.793L 499.797 333.395z"/>
<path style="stroke:none; fill-rule:evenodd; fill:#000000" d="M 269.766 373.098L 270.977 376.797L 274.867 376.797L 268.5 358.399L 264.305 358.399L 257.758 376.797L 261.625 376.797L 262.863 373.098L 269.766 373.098zM 268.727 369.895L 263.926 369.895L 266.324 362.715L 268.727 369.895z"/>
<path style="stroke:none; fill-rule:evenodd; fill:#000000" d="M 277.098 376.797L 280.695 376.797L 280.695 358.399L 277.098 358.399L 277.098 376.797z"/>
<path style="stroke:none; fill-rule:evenodd; fill:#000000" d="M 292.699 363.125L 292.699 365.223C 291.633 363.606 290.465 362.899 288.891 362.899C 285.641 362.899 283.203 366.067 283.203 370.297C 283.203 374.555 285.438 377.395 288.812 377.395C 290.41 377.395 291.375 376.911 292.699 375.407L 292.699 377.235C 292.699 378.864 291.465 379.993 289.695 379.993C 288.359 379.993 287.477 379.45 287.199 378.438L 283.543 378.438C 283.566 379.497 283.973 380.227 284.883 380.981C 285.969 381.86 287.488 382.289 289.59 382.289C 293.715 382.289 296.098 380.446 296.098 377.231L 296.098 363.122L 292.699 363.125zM 289.68 365.895C 291.445 365.895 292.762 367.731 292.762 370.243C 292.762 372.704 291.473 374.391 289.629 374.391C 287.961 374.391 286.801 372.707 286.801 370.243C 286.801 367.68 287.961 365.895 289.68 365.895z"/>
<path style="stroke:none; fill-rule:evenodd; fill:#000000" d="M 305.523 362.895C 301.355 362.895 298.801 365.657 298.801 370.145C 298.801 374.657 301.352 377.395 305.551 377.395C 309.695 377.395 312.301 374.633 312.301 370.25C 312.301 365.614 309.801 362.899 305.527 362.899L 305.523 362.895zM 305.547 365.797C 307.453 365.797 308.695 367.532 308.695 370.196C 308.695 372.731 307.406 374.493 305.547 374.493C 303.664 374.493 302.398 372.735 302.398 370.145C 302.398 367.559 303.66 365.797 305.547 365.797z"/>
<path style="stroke:none; fill-rule:evenodd; fill:#000000" d="M 314.898 363.098L 314.898 376.797L 318.496 376.797L 318.496 369.52C 318.496 367.442 319.516 366.403 321.551 366.403C 321.922 366.403 322.172 366.434 322.645 366.536L 322.645 362.903C 322.445 362.903 322.324 362.903 322.223 362.903C 320.633 362.903 319.242 363.969 318.496 365.829L 318.496 363.102L 314.898 363.098z"/>
<path style="stroke:none; fill-rule:evenodd; fill:#000000" d="M 328.398 363.145L 324.801 363.145L 324.801 376.793L 328.398 376.793L 328.398 363.145zM 328.398 358.395L 324.801 358.395L 324.801 361.594L 328.398 361.594L 328.398 358.395z"/>
<path style="stroke:none; fill-rule:evenodd; fill:#000000" d="M 337.809 363.395L 335.902 363.395L 335.902 359.758L 332.305 359.758L 332.305 363.395L 330.562 363.395L 330.562 365.793L 332.305 365.793L 332.305 374.184C 332.305 376.329 333.441 377.391 335.766 377.391C 336.547 377.391 337.18 377.317 337.812 377.114L 337.812 374.622C 337.473 374.668 337.277 374.696 337.031 374.696C 336.129 374.696 335.906 374.422 335.906 373.211L 335.906 365.801L 337.812 365.801L 337.809 363.395z"/>
<path style="stroke:none; fill-rule:evenodd; fill:#000000" d="M 340.297 358.395L 340.297 376.793L 343.895 376.793L 343.895 368.582C 343.895 367.012 345.008 365.895 346.566 365.895C 347.309 365.895 347.902 366.172 348.297 366.731C 348.594 367.184 348.691 367.539 348.691 368.426L 348.691 376.786L 352.289 376.786L 352.289 367.622C 352.289 365.926 351.836 364.711 350.906 363.926C 350.129 363.27 348.996 362.891 347.863 362.891C 346.129 362.891 344.875 363.602 343.891 365.11L 343.891 358.391L 340.297 358.395z"/>
<path style="stroke:none; fill-rule:evenodd; fill:#000000" d="M 355.5 363.098L 355.5 376.797L 359.098 376.797L 359.098 368.586C 359.098 366.914 359.996 365.899 361.496 365.899C 362.668 365.899 363.395 366.582 363.395 367.672L 363.395 376.793L 366.992 376.793L 366.992 368.582C 366.992 366.911 367.891 365.895 369.391 365.895C 370.562 365.895 371.289 366.579 371.289 367.668L 371.289 376.789L 374.887 376.789L 374.887 367.122C 374.887 364.465 373.258 362.895 370.508 362.895C 368.781 362.895 367.559 363.504 366.492 364.938C 365.832 363.637 364.461 362.895 362.754 362.895C 361.18 362.895 360.16 363.43 358.992 364.836L 358.992 363.094L 355.5 363.098z"/>
<path style="stroke:#000000; stroke-width:0.90288000000000002; fill:none" d="M 105.383 308.649L 111.398 308.649"/>
<path style="stroke:#000000; stroke-width:0.90288000000000002; fill:none" d="M 526.727 308.649L 520.711 308.649"/>
<path style="stroke:#000000; stroke-width:0.90288000000000002; fill:none" d="M 105.383 297.934L 111.398 297.934"/>
<path style="stroke:#000000; stroke-width:0.90288000000000002; fill:none" d="M 526.727 297.934L 520.711 297.934"/>
<path style="stroke:#000000; stroke-width:0.90288000000000002; fill:none" d="M 105.383 290.29L 111.398 290.29"/>
<path style="stroke:#000000; stroke-width:0.90288000000000002; fill:none" d="M 526.727 290.29L 520.711 290.29"/>
<path style="stroke:#000000; stroke-width:0.90288000000000002; fill:none" d="M 105.383 284.333L 111.398 284.333"/>
<path style="stroke:#000000; stroke-width:0.90288000000000002; fill:none" d="M 526.727 284.333L 520.711 284.333"/>
<path style="stroke:#000000; stroke-width:0.90288000000000002; fill:none" d="M 105.383 279.516L 111.398 279.516"/>
<path style="stroke:#000000; stroke-width:0.90288000000000002; fill:none" d="M 526.727 279.516L 520.711 279.516"/>
<path style="stroke:#000000; stroke-width:0.90288000000000002; fill:none" d="M 105.383 275.422L 111.398 275.422"/>
<path style="stroke:#000000; stroke-width:0.90288000000000002; fill:none" d="M 526.727 275.422L 520.711 275.422"/>
<path style="stroke:#000000; stroke-width:0.90288000000000002; fill:none" d="M 105.383 271.872L 111.398 271.872"/>
<path style="stroke:#000000; stroke-width:0.90288000000000002; fill:none" d="M 526.727 271.872L 520.711 271.872"/>
<path style="stroke:#000000; stroke-width:0.90288000000000002; fill:none" d="M 105.383 268.743L 111.398 268.743"/>
<path style="stroke:#000000; stroke-width:0.90288000000000002; fill:none" d="M 526.727 268.743L 520.711 268.743"/>
<path style="stroke:#000000; stroke-width:0.90288000000000002; fill:none" d="M 105.383 265.973L 111.398 265.973"/>
<path style="stroke:#000000; stroke-width:0.90288000000000002; fill:none" d="M 526.727 265.973L 520.711 265.973"/>
<path style="stroke:#000000; stroke-width:0.90288000000000002; fill:none" d="M 105.383 247.551L 111.398 247.551"/>
<path style="stroke:#000000; stroke-width:0.90288000000000002; fill:none" d="M 526.727 247.551L 520.711 247.551"/>
<path style="stroke:#000000; stroke-width:0.90288000000000002; fill:none" d="M 105.383 236.778L 111.398 236.778"/>
<path style="stroke:#000000; stroke-width:0.90288000000000002; fill:none" d="M 526.727 236.778L 520.711 236.778"/>
<path style="stroke:#000000; stroke-width:0.90288000000000002; fill:none" d="M 105.383 229.196L 111.398 229.196"/>
<path style="stroke:#000000; stroke-width:0.90288000000000002; fill:none" d="M 526.727 229.196L 520.711 229.196"/>
<path style="stroke:#000000; stroke-width:0.90288000000000002; fill:none" d="M 105.383 223.235L 111.398 223.235"/>
<path style="stroke:#000000; stroke-width:0.90288000000000002; fill:none" d="M 526.727 223.235L 520.711 223.235"/>
<path style="stroke:#000000; stroke-width:0.90288000000000002; fill:none" d="M 105.383 218.418L 111.398 218.418"/>
<path style="stroke:#000000; stroke-width:0.90288000000000002; fill:none" d="M 526.727 218.418L 520.711 218.418"/>
<path style="stroke:#000000; stroke-width:0.90288000000000002; fill:none" d="M 105.383 214.329L 111.398 214.329"/>
<path style="stroke:#000000; stroke-width:0.90288000000000002; fill:none" d="M 526.727 214.329L 520.711 214.329"/>
<path style="stroke:#000000; stroke-width:0.90288000000000002; fill:none" d="M 105.383 210.778L 111.398 210.778"/>
<path style="stroke:#000000; stroke-width:0.90288000000000002; fill:none" d="M 526.727 210.778L 520.711 210.778"/>
<path style="stroke:#000000; stroke-width:0.90288000000000002; fill:none" d="M 105.383 207.645L 111.398 207.645"/>
<path style="stroke:#000000; stroke-width:0.90288000000000002; fill:none" d="M 526.727 207.645L 520.711 207.645"/>
<path style="stroke:#000000; stroke-width:0.90288000000000002; fill:none" d="M 105.383 204.875L 111.398 204.875"/>
<path style="stroke:#000000; stroke-width:0.90288000000000002; fill:none" d="M 526.727 204.875L 520.711 204.875"/>
<path style="stroke:#000000; stroke-width:0.90288000000000002; fill:none" d="M 105.383 186.457L 111.398 186.457"/>
<path style="stroke:#000000; stroke-width:0.90288000000000002; fill:none" d="M 526.727 186.457L 520.711 186.457"/>
<path style="stroke:#000000; stroke-width:0.90288000000000002; fill:none" d="M 105.383 175.684L 111.398 175.684"/>
<path style="stroke:#000000; stroke-width:0.90288000000000002; fill:none" d="M 526.727 175.684L 520.711 175.684"/>
<path style="stroke:#000000; stroke-width:0.90288000000000002; fill:none" d="M 105.383 168.04L 111.398 168.04"/>
<path style="stroke:#000000; stroke-width:0.90288000000000002; fill:none" d="M 526.727 168.04L 520.711 168.04"/>
<path style="stroke:#000000; stroke-width:0.90288000000000002; fill:none" d="M 105.383 162.141L 111.398 162.141"/>
<path style="stroke:#000000; stroke-width:0.90288000000000002; fill:none" d="M 526.727 162.141L 520.711 162.141"/>
<path style="stroke:#000000; stroke-width:0.90288000000000002; fill:none" d="M 105.383 157.325L 111.398 157.325"/>
<path style="stroke:#000000; stroke-width:0.90288000000000002; fill:none" d="M 526.727 157.325L 520.711 157.325"/>
<path style="stroke:#000000; stroke-width:0.90288000000000002; fill:none" d="M 105.383 153.231L 111.398 153.231"/>
<path style="stroke:#000000; stroke-width:0.90288000000000002; fill:none" d="M 526.727 153.231L 520.711 153.231"/>
<path style="stroke:#000000; stroke-width:0.90288000000000002; fill:none" d="M 105.383 149.68L 111.398 149.68"/>
<path style="stroke:#000000; stroke-width:0.90288000000000002; fill:none" d="M 526.727 149.68L 520.711 149.68"/>
<path style="stroke:#000000; stroke-width:0.90288000000000002; fill:none" d="M 105.383 146.551L 111.398 146.551"/>
<path style="stroke:#000000; stroke-width:0.90288000000000002; fill:none" d="M 526.727 146.551L 520.711 146.551"/>
<path style="stroke:#000000; stroke-width:0.90288000000000002; fill:none" d="M 105.383 143.723L 111.398 143.723"/>
<path style="stroke:#000000; stroke-width:0.90288000000000002; fill:none" d="M 526.727 143.723L 520.711 143.723"/>
<path style="stroke:#000000; stroke-width:0.90288000000000002; fill:none" d="M 105.383 125.364L 111.398 125.364"/>
<path style="stroke:#000000; stroke-width:0.90288000000000002; fill:none" d="M 526.727 125.364L 520.711 125.364"/>
<path style="stroke:#000000; stroke-width:0.90288000000000002; fill:none" d="M 105.383 114.59L 111.398 114.59"/>
<path style="stroke:#000000; stroke-width:0.90288000000000002; fill:none" d="M 526.727 114.59L 520.711 114.59"/>
<path style="stroke:#000000; stroke-width:0.90288000000000002; fill:none" d="M 105.383 106.946L 111.398 106.946"/>
<path style="stroke:#000000; stroke-width:0.90288000000000002; fill:none" d="M 526.727 106.946L 520.711 106.946"/>
<path style="stroke:#000000; stroke-width:0.90288000000000002; fill:none" d="M 105.383 101.047L 111.398 101.047"/>
<path style="stroke:#000000; stroke-width:0.90288000000000002; fill:none" d="M 526.727 101.047L 520.711 101.047"/>
<path style="stroke:#000000; stroke-width:0.90288000000000002; fill:none" d="M 105.383 96.168L 111.398 96.168"/>
<path style="stroke:#000000; stroke-width:0.90288000000000002; fill:none" d="M 526.727 96.168L 520.711 96.168"/>
<path style="stroke:#000000; stroke-width:0.90288000000000002; fill:none" d="M 105.383 92.079L 111.398 92.079"/>
<path style="stroke:#000000; stroke-width:0.90288000000000002; fill:none" d="M 526.727 92.079L 520.711 92.079"/>
<path style="stroke:#000000; stroke-width:0.90288000000000002; fill:none" d="M 105.383 88.586L 111.398 88.586"/>
<path style="stroke:#000000; stroke-width:0.90288000000000002; fill:none" d="M 526.727 88.586L 520.711 88.586"/>
<path style="stroke:#000000; stroke-width:0.90288000000000002; fill:none" d="M 105.383 85.457L 111.398 85.457"/>
<path style="stroke:#000000; stroke-width:0.90288000000000002; fill:none" d="M 526.727 85.457L 520.711 85.457"/>
<path style="stroke:#000000; stroke-width:0.90288000000000002; fill:none" d="M 105.383 82.625L 111.398 82.625"/>
<path style="stroke:#000000; stroke-width:0.90288000000000002; fill:none" d="M 526.727 82.625L 520.711 82.625"/>
<path style="stroke:#000000; stroke-width:0.90288000000000002; fill:none" d="M 105.383 64.266L 111.398 64.266"/>
<path style="stroke:#000000; stroke-width:0.90288000000000002; fill:none" d="M 526.727 64.266L 520.711 64.266"/>
<path style="stroke:#000000; stroke-width:0.90288000000000002; fill:none" d="M 105.383 53.493L 111.398 53.493"/>
<path style="stroke:#000000; stroke-width:0.90288000000000002; fill:none" d="M 526.727 53.493L 520.711 53.493"/>
<path style="stroke:#000000; stroke-width:0.90288000000000002; fill:none" d="M 105.383 45.848L 111.398 45.848"/>
<path style="stroke:#000000; stroke-width:0.90288000000000002; fill:none" d="M 526.727 45.848L 520.711 45.848"/>
<path style="stroke:#000000; stroke-width:0.90288000000000002; fill:none" d="M 105.383 39.95L 111.398 39.95"/>
<path style="stroke:#000000; stroke-width:0.90288000000000002; fill:none" d="M 526.727 39.95L 520.711 39.95"/>
<path style="stroke:#000000; stroke-width:0.90288000000000002; fill:none" d="M 105.383 35.075L 111.398 35.075"/>
<path style="stroke:#000000; stroke-width:0.90288000000000002; fill:none" d="M 526.727 35.075L 520.711 35.075"/>
<path style="stroke:#000000; stroke-width:0.90288000000000002; fill:none" d="M 105.383 327.067L 117.418 327.067"/>
<path style="stroke:#000000; stroke-width:0.90288000000000002; fill:none" d="M 526.727 327.067L 514.691 327.067"/>
<path style="stroke:#000000; stroke-width:0.90288000000000002; fill:none" d="M 105.383 265.973L 117.418 265.973"/>
<path style="stroke:#000000; stroke-width:0.90288000000000002; fill:none" d="M 526.727 265.973L 514.691 265.973"/>
<path style="stroke:#000000; stroke-width:0.90288000000000002; fill:none" d="M 105.383 204.875L 117.418 204.875"/>
<path style="stroke:#000000; stroke-width:0.90288000000000002; fill:none" d="M 526.727 204.875L 514.691 204.875"/>
<path style="stroke:#000000; stroke-width:0.90288000000000002; fill:none" d="M 105.383 143.723L 117.418 143.723"/>
<path style="stroke:#000000; stroke-width:0.90288000000000002; fill:none" d="M 526.727 143.723L 514.691 143.723"/>
<path style="stroke:#000000; stroke-width:0.90288000000000002; fill:none" d="M 105.383 82.625L 117.418 82.625"/>
<path style="stroke:#000000; stroke-width:0.90288000000000002; fill:none" d="M 526.727 82.625L 514.691 82.625"/>
<path style="stroke:none; fill-rule:evenodd; fill:#000000" d="M 97.297 323.348L 97.297 336.094L 99.496 336.094L 99.496 318.196L 98.023 318.196C 97.238 320.95 96.73 321.325 93.277 321.754L 93.277 323.344L 97.297 323.348z"/>
<path style="stroke:none; fill-rule:evenodd; fill:#000000" d="M 78.7969 261.95L 78.7969 274.696L 80.9961 274.696L 80.9961 256.797L 79.5234 256.797C 78.7383 259.551 78.2305 259.926 74.7773 260.356L 74.7773 261.946L 78.7969 261.95z"/>
<path style="stroke:none; fill-rule:evenodd; fill:#000000" d="M 93.246 256.797C 91.586 256.797 90.07 257.54 89.137 258.797C 87.98 260.364 87.398 262.758 87.398 266.063C 87.398 272.09 89.414 275.293 93.246 275.293C 97.027 275.293 99.094 272.09 99.094 266.215C 99.094 262.735 98.539 260.415 97.355 258.797C 96.426 257.516 94.938 256.797 93.25 256.797L 93.246 256.797zM 93.246 258.797C 95.621 258.797 96.797 261.227 96.797 266.032C 96.797 271.114 95.648 273.493 93.199 273.493C 90.875 273.493 89.699 271.016 89.699 266.106C 89.699 261.2 90.871 258.793 93.246 258.793L 93.246 258.797z"/>
<path style="stroke:none; fill-rule:evenodd; fill:#000000" d="M 64.8984 200.848L 64.8984 213.594L 67.0977 213.594L 67.0977 195.696L 65.625 195.696C 64.8398 198.45 64.332 198.825 60.8789 199.254L 60.8789 200.844L 64.8984 200.848z"/>
<path style="stroke:none; fill-rule:evenodd; fill:#000000" d="M 79.3477 195.696C 77.6875 195.696 76.1719 196.438 75.2383 197.696C 74.082 199.262 73.5 201.657 73.5 204.961C 73.5 210.989 75.5156 214.192 79.3477 214.192C 83.1289 214.192 85.195 210.989 85.195 205.114C 85.195 201.633 84.6406 199.313 83.457 197.696C 82.5273 196.415 81.0391 195.696 79.3516 195.696L 79.3477 195.696zM 79.3477 197.696C 81.7227 197.696 82.8984 200.125 82.8984 204.93C 82.8984 210.012 81.75 212.391 79.3008 212.391C 76.9766 212.391 75.8008 209.915 75.8008 205.004C 75.8008 200.098 76.9727 197.692 79.3477 197.692L 79.3477 197.696z"/>
<path style="stroke:none; fill-rule:evenodd; fill:#000000" d="M 93.348 195.696C 91.688 195.696 90.172 196.438 89.238 197.696C 88.082 199.262 87.5 201.657 87.5 204.961C 87.5 210.989 89.516 214.192 93.348 214.192C 97.129 214.192 99.195 210.989 99.195 205.114C 99.195 201.633 98.641 199.313 97.457 197.696C 96.527 196.415 95.039 195.696 93.352 195.696L 93.348 195.696zM 93.348 197.696C 95.723 197.696 96.898 200.125 96.898 204.93C 96.898 210.012 95.75 212.391 93.301 212.391C 90.977 212.391 89.801 209.915 89.801 205.004C 89.801 200.098 90.973 197.692 93.348 197.692L 93.348 197.696z"/>
<path style="stroke:none; fill-rule:evenodd; fill:#000000" d="M 50.7969 139.75L 50.7969 152.497L 52.9961 152.497L 52.9961 134.598L 51.5234 134.598C 50.7383 137.352 50.2305 137.727 46.7773 138.157L 46.7773 139.747L 50.7969 139.75z"/>
<path style="stroke:none; fill-rule:evenodd; fill:#000000" d="M 65.1484 134.598C 63.4883 134.598 61.9727 135.34 61.0391 136.598C 59.8828 138.165 59.3008 140.559 59.3008 143.864C 59.3008 149.891 61.3164 153.094 65.1484 153.094C 68.9297 153.094 70.9961 149.891 70.9961 144.016C 70.9961 140.536 70.4414 138.215 69.2578 136.598C 68.3281 135.317 66.8398 134.598 65.1523 134.598L 65.1484 134.598zM 65.1484 136.598C 67.5234 136.598 68.6992 139.028 68.6992 143.833C 68.6992 148.915 67.5508 151.293 65.1016 151.293C 62.7773 151.293 61.6016 148.817 61.6016 143.907C 61.6016 139 62.7734 136.594 65.1484 136.594L 65.1484 136.598z"/>
<path style="stroke:none; fill-rule:evenodd; fill:#000000" d="M 79.2461 134.598C 77.5859 134.598 76.0703 135.34 75.1367 136.598C 73.9805 138.165 73.3984 140.559 73.3984 143.864C 73.3984 149.891 75.4141 153.094 79.2461 153.094C 83.0273 153.094 85.094 149.891 85.094 144.016C 85.094 140.536 84.5391 138.215 83.3555 136.598C 82.4258 135.317 80.9375 134.598 79.25 134.598L 79.2461 134.598zM 79.2461 136.598C 81.6211 136.598 82.7969 139.028 82.7969 143.833C 82.7969 148.915 81.6484 151.293 79.1992 151.293C 76.875 151.293 75.6992 148.817 75.6992 143.907C 75.6992 139 76.8711 136.594 79.2461 136.594L 79.2461 136.598z"/>
<path style="stroke:none; fill-rule:evenodd; fill:#000000" d="M 93.246 134.598C 91.586 134.598 90.07 135.34 89.137 136.598C 87.98 138.165 87.398 140.559 87.398 143.864C 87.398 149.891 89.414 153.094 93.246 153.094C 97.027 153.094 99.094 149.891 99.094 144.016C 99.094 140.536 98.539 138.215 97.355 136.598C 96.426 135.317 94.938 134.598 93.25 134.598L 93.246 134.598zM 93.246 136.598C 95.621 136.598 96.797 139.028 96.797 143.833C 96.797 148.915 95.648 151.293 93.199 151.293C 90.875 151.293 89.699 148.817 89.699 143.907C 89.699 139 90.871 136.594 93.246 136.594L 93.246 136.598z"/>
<path style="stroke:none; fill-rule:evenodd; fill:#000000" d="M 36.8984 78.649L 36.8984 91.395L 39.0977 91.395L 39.0977 73.497L 37.625 73.497C 36.8398 76.25 36.332 76.625 32.8789 77.055L 32.8789 78.645L 36.8984 78.649z"/>
<path style="stroke:none; fill-rule:evenodd; fill:#000000" d="M 51.2461 73.497C 49.5859 73.497 48.0703 74.239 47.1367 75.497C 45.9805 77.063 45.3984 79.457 45.3984 82.762C 45.3984 88.79 47.4141 91.993 51.2461 91.993C 55.0273 91.993 57.0938 88.79 57.0938 82.915C 57.0938 79.434 56.5391 77.114 55.3555 75.497C 54.4258 74.215 52.9375 73.497 51.25 73.497L 51.2461 73.497zM 51.2461 75.497C 53.6211 75.497 54.7969 77.926 54.7969 82.731C 54.7969 87.813 53.6484 90.192 51.1992 90.192C 48.875 90.192 47.6992 87.715 47.6992 82.805C 47.6992 77.899 48.8711 75.493 51.2461 75.493L 51.2461 75.497z"/>
<path style="stroke:none; fill-rule:evenodd; fill:#000000" d="M 65.3477 73.497C 63.6875 73.497 62.1719 74.239 61.2383 75.497C 60.082 77.063 59.5 79.457 59.5 82.762C 59.5 88.79 61.5156 91.993 65.3477 91.993C 69.1289 91.993 71.1953 88.79 71.1953 82.915C 71.1953 79.434 70.6406 77.114 69.457 75.497C 68.5273 74.215 67.0391 73.497 65.3516 73.497L 65.3477 73.497zM 65.3477 75.497C 67.7227 75.497 68.8984 77.926 68.8984 82.731C 68.8984 87.813 67.75 90.192 65.3008 90.192C 62.9766 90.192 61.8008 87.715 61.8008 82.805C 61.8008 77.899 62.9727 75.493 65.3477 75.493L 65.3477 75.497z"/>
<path style="stroke:none; fill-rule:evenodd; fill:#000000" d="M 79.3477 73.497C 77.6875 73.497 76.1719 74.239 75.2383 75.497C 74.082 77.063 73.5 79.457 73.5 82.762C 73.5 88.79 75.5156 91.993 79.3477 91.993C 83.1289 91.993 85.195 88.79 85.195 82.915C 85.195 79.434 84.6406 77.114 83.457 75.497C 82.5273 74.215 81.0391 73.497 79.3516 73.497L 79.3477 73.497zM 79.3477 75.497C 81.7227 75.497 82.8984 77.926 82.8984 82.731C 82.8984 87.813 81.75 90.192 79.3008 90.192C 76.9766 90.192 75.8008 87.715 75.8008 82.805C 75.8008 77.899 76.9727 75.493 79.3477 75.493L 79.3477 75.497z"/>
<path style="stroke:none; fill-rule:evenodd; fill:#000000" d="M 93.445 73.497C 91.785 73.497 90.27 74.239 89.336 75.497C 88.18 77.063 87.598 79.457 87.598 82.762C 87.598 88.79 89.613 91.993 93.445 91.993C 97.227 91.993 99.293 88.79 99.293 82.915C 99.293 79.434 98.738 77.114 97.555 75.497C 96.625 74.215 95.137 73.497 93.449 73.497L 93.445 73.497zM 93.445 75.497C 95.82 75.497 96.996 77.926 96.996 82.731C 96.996 87.813 95.848 90.192 93.398 90.192C 91.074 90.192 89.898 87.715 89.898 82.805C 89.898 77.899 91.07 75.493 93.445 75.493L 93.445 75.497z"/>
<path style="stroke:none; fill-rule:evenodd; fill:#000000" d="M 10.7969 291.797L 10.7969 282.989L 7.5977 282.989L 7.5977 291.797L 3.5 291.797L 3.5 282.278L 0.3008 282.278L 0.3008 295.594L 18.6992 295.594L 18.6992 281.821L 15.5 281.821L 15.5 291.793L 10.7969 291.797z"/>
<path style="stroke:none; fill-rule:evenodd; fill:#000000" d="M 5.0273 275.7L 5.0273 279.297L 24.1992 279.297L 24.1992 275.7L 17.082 275.7C 18.5938 274.844 19.2969 273.629 19.2969 271.915C 19.2969 268.633 16.2109 266.204 12.0625 266.204C 10.1406 266.204 8.2188 266.758 6.9531 267.668C 5.6641 268.575 4.8047 270.27 4.8047 271.911C 4.8047 273.625 5.5352 274.84 7.0547 275.696L 5.0273 275.7zM 7.7969 272.747C 7.7969 270.973 9.5273 269.797 12.1094 269.797C 14.5625 269.797 16.293 271.02 16.293 272.747C 16.293 274.497 14.5898 275.696 12.0586 275.696C 9.5273 275.696 7.7969 274.497 7.7969 272.747z"/>
<path style="stroke:none; fill-rule:evenodd; fill:#000000" d="M 4.7969 257.672C 4.7969 261.84 7.5586 264.395 12.0469 264.395C 16.5586 264.395 19.2969 261.844 19.2969 257.645C 19.2969 253.5 16.5352 250.895 12.1523 250.895C 7.5156 250.895 4.8008 253.395 4.8008 257.668L 4.7969 257.672zM 7.6992 257.645C 7.6992 255.739 9.4336 254.497 12.0977 254.497C 14.6328 254.497 16.3945 255.786 16.3945 257.645C 16.3945 259.528 14.6367 260.793 12.0469 260.793C 9.4609 260.793 7.6992 259.532 7.6992 257.645z"/>
<path style="stroke:none; fill-rule:evenodd; fill:#000000" d="M 10.1523 236.602C 6.8047 236.856 4.8008 239.09 4.8008 242.52C 4.8008 246.606 7.4883 248.997 12.1523 248.997C 16.6641 248.997 19.2969 246.637 19.2969 242.571C 19.2969 239.247 17.2422 236.934 13.9727 236.602L 13.9727 239.989C 15.7227 240.442 16.3984 241.149 16.3984 242.512C 16.3984 244.305 14.793 245.391 12.1523 245.391C 10.8711 245.391 9.6641 245.141 8.8594 244.711C 8.1055 244.309 7.7031 243.524 7.7031 242.516C 7.7031 241.079 8.3789 240.395 10.1562 239.993L 10.1523 236.602z"/>
<path style="stroke:none; fill-rule:evenodd; fill:#000000" d="M 0.2969 234.098L 18.6953 234.098L 18.6953 230.5L 10.4844 230.5C 8.9141 230.5 7.7969 229.387 7.7969 227.829C 7.7969 227.086 8.0742 226.493 8.6328 226.098C 9.0859 225.801 9.4414 225.704 10.3281 225.704L 18.6875 225.704L 18.6875 222.106L 9.5234 222.106C 7.8281 222.106 6.6133 222.559 5.8281 223.489C 5.1719 224.266 4.793 225.399 4.793 226.532C 4.793 228.266 5.5039 229.52 7.0117 230.504L 0.293 230.504L 0.2969 234.098z"/>
<path style="stroke:none; fill-rule:evenodd; fill:#000000" d="M 9.4453 207.532C 6.5508 207.583 4.8008 209.809 4.8008 213.477C 4.8008 216.942 6.5469 219.094 9.3594 219.094C 10.2695 219.094 11.0547 218.817 11.5859 218.336C 12.0664 217.856 12.293 217.426 12.7227 216.114L 14.0391 211.891C 14.3164 211.008 14.5938 210.704 15.1523 210.704C 15.9883 210.704 16.4922 211.688 16.4922 213.329C 16.4922 214.235 16.3164 214.969 16.0156 215.422C 15.7383 215.801 15.4609 215.95 14.7305 216.102L 14.7305 219.563C 17.7227 219.461 19.2969 217.254 19.2969 213.09C 19.2969 211.188 18.8945 209.743 18.082 208.727C 17.2734 207.711 16.0078 207.102 14.6641 207.102C 12.8945 207.102 11.7539 207.989 11.2227 209.786L 9.9336 214.262C 9.6328 215.247 9.4297 215.5 8.8711 215.5C 8.1133 215.5 7.6055 214.7 7.6055 213.465C 7.6055 211.782 8.2109 210.954 9.4492 210.93L 9.4453 207.532z"/>
<path style="stroke:none; fill-rule:evenodd; fill:#000000" d="M 5.2969 191.586L 5.2969 193.493L 1.6602 193.493L 1.6602 197.09L 5.2969 197.09L 5.2969 198.833L 7.6953 198.833L 7.6953 197.09L 16.0859 197.09C 18.2305 197.09 19.293 195.954 19.293 193.629C 19.293 192.848 19.2188 192.215 19.0156 191.583L 16.5234 191.583C 16.5703 191.922 16.5977 192.118 16.5977 192.364C 16.5977 193.266 16.3242 193.489 15.1133 193.489L 7.7031 193.489L 7.7031 191.583L 5.2969 191.586z"/>
<path style="stroke:none; fill-rule:evenodd; fill:#000000" d="M 4.7969 183.172C 4.7969 187.34 7.5586 189.895 12.0469 189.895C 16.5586 189.895 19.2969 187.344 19.2969 183.145C 19.2969 179 16.5352 176.395 12.1523 176.395C 7.5156 176.395 4.8008 178.895 4.8008 183.168L 4.7969 183.172zM 7.6992 183.145C 7.6992 181.239 9.4336 179.997 12.0977 179.997C 14.6328 179.997 16.3945 181.286 16.3945 183.145C 16.3945 185.028 14.6367 186.293 12.0469 186.293C 9.4609 186.293 7.6992 185.032 7.6992 183.145z"/>
<path style="stroke:none; fill-rule:evenodd; fill:#000000" d="M 6.5117 151.055C 4.9297 151.18 3.9219 151.508 2.8906 152.293C 1.0312 153.707 0 155.985 0 158.743C 0 163.954 3.7148 167.192 9.6758 167.192C 15.582 167.192 19.2969 163.981 19.2969 158.844C 19.2969 154.266 16.6367 151.207 12.4023 150.977L 12.4023 154.668C 14.7539 154.895 16.0938 156.387 16.0938 158.739C 16.0938 161.668 13.7188 163.391 9.6953 163.391C 5.625 163.391 3.1953 161.598 3.1953 158.614C 3.1953 157.301 3.6484 156.215 4.5352 155.504C 5.0391 155.102 5.5195 154.899 6.5078 154.672L 6.5117 151.055z"/>
<path style="stroke:none; fill-rule:evenodd; fill:#000000" d="M 5 148.497L 18.6992 148.497L 18.6992 144.899L 11.4219 144.899C 9.3438 144.899 8.3047 143.879 8.3047 141.844C 8.3047 141.473 8.3359 141.223 8.4375 140.75L 4.8047 140.75C 4.8047 140.95 4.8047 141.071 4.8047 141.172C 4.8047 142.762 5.8711 144.153 7.7305 144.899L 5.0039 144.899L 5 148.497z"/>
<path style="stroke:none; fill-rule:evenodd; fill:#000000" d="M 5.0469 134.997L 5.0469 138.594L 18.6953 138.594L 18.6953 134.997L 5.0469 134.997zM 0.2969 134.997L 0.2969 138.594L 3.4961 138.594L 3.4961 134.997L 0.2969 134.997z"/>
<path style="stroke:none; fill-rule:evenodd; fill:#000000" d="M 5.2969 125.586L 5.2969 127.493L 1.6602 127.493L 1.6602 131.09L 5.2969 131.09L 5.2969 132.833L 7.6953 132.833L 7.6953 131.09L 16.0859 131.09C 18.2305 131.09 19.293 129.954 19.293 127.629C 19.293 126.848 19.2188 126.215 19.0156 125.583L 16.5234 125.583C 16.5703 125.922 16.5977 126.118 16.5977 126.364C 16.5977 127.266 16.3242 127.489 15.1133 127.489L 7.7031 127.489L 7.7031 125.583L 5.2969 125.586z"/>
<path style="stroke:none; fill-rule:evenodd; fill:#000000" d="M 13 111.551C 12.6953 111.528 12.5703 111.528 12.3945 111.528C 11.0273 111.528 9.7578 111.727 8.793 112.055C 6.3086 112.961 4.8086 115.161 4.8086 117.918C 4.8086 121.836 7.6484 124.235 12.2344 124.235C 16.6172 124.235 19.3047 121.86 19.3047 117.993C 19.3047 114.934 17.5547 112.457 14.8633 111.676L 14.8633 115.165C 15.9648 115.594 16.6055 116.579 16.6055 117.868C 16.6055 118.875 16.1758 119.684 15.418 120.192C 14.9141 120.52 14.3047 120.645 13.0117 120.696L 13 111.551zM 10.5977 120.653C 8.5312 120.426 7.5 119.543 7.5 117.973C 7.5 117.09 7.9258 116.282 8.6328 115.774C 9.1367 115.446 9.6641 115.297 10.5977 115.219L 10.5977 120.653z"/>
<path style="stroke:none; fill-rule:evenodd; fill:#000000" d="M 5 109.196L 18.6992 109.196L 18.6992 105.598L 11.4219 105.598C 9.3438 105.598 8.3047 104.579 8.3047 102.543C 8.3047 102.172 8.3359 101.922 8.4375 101.45L 4.8047 101.45C 4.8047 101.649 4.8047 101.77 4.8047 101.872C 4.8047 103.461 5.8711 104.852 7.7305 105.598L 5.0039 105.598L 5 109.196z"/>
<path style="stroke:none; fill-rule:evenodd; fill:#000000" d="M 5.0469 95.598L 5.0469 99.196L 18.6953 99.196L 18.6953 95.598L 5.0469 95.598zM 0.2969 95.598L 0.2969 99.196L 3.4961 99.196L 3.4961 95.598L 0.2969 95.598z"/>
<path style="stroke:none; fill-rule:evenodd; fill:#000000" d="M 4.7969 86.27C 4.7969 90.438 7.5586 92.993 12.0469 92.993C 16.5586 92.993 19.2969 90.442 19.2969 86.243C 19.2969 82.098 16.5352 79.493 12.1523 79.493C 7.5156 79.493 4.8008 81.993 4.8008 86.266L 4.7969 86.27zM 7.6992 86.247C 7.6992 84.34 9.4336 83.098 12.0977 83.098C 14.6328 83.098 16.3945 84.387 16.3945 86.247C 16.3945 88.129 14.6367 89.395 12.0469 89.395C 9.4609 89.395 7.6992 88.133 7.6992 86.247z"/>
<path style="stroke:none; fill-rule:evenodd; fill:#000000" d="M 5 76.797L 18.6992 76.797L 18.6992 73.2L 10.4883 73.2C 8.8672 73.2 7.8008 72.094 7.8008 70.418C 7.8008 68.942 8.6367 68.204 10.2617 68.204L 18.6992 68.204L 18.6992 64.606L 9.5352 64.606C 6.5234 64.606 4.8008 66.258 4.8008 69.141C 4.8008 70.969 5.4883 72.2 7.0195 73.2L 5 73.2L 5 76.797z"/>
<path style="stroke:#000000; stroke-width:0.90288000000000002; fill:none" d="M 105.383 327.067L 526.727 327.067L 526.727 35.079L 105.383 35.079L 105.383 327.067z"/>
<path style="stroke:none; fill-rule:evenodd; fill:#000000" d="M 149.844 5.879C 149.844 4.19598 149.461 3.09 148.551 2.086C 147.312 0.730988 145.258 0 142.598 0C 138.164 0 135.605 2.07898 135.605 5.672C 135.605 8.52798 137.055 9.922 140.82 10.629L 143.414 11.133C 145.957 11.61 146.898 12.321 146.898 13.813C 146.898 15.356 145.48 16.29 143.172 16.29C 140.586 16.29 139.141 15.188 139.016 13.18L 135.316 13.18C 135.543 17.133 138.246 19.29 142.949 19.29C 147.699 19.29 150.504 17.063 150.504 13.321C 150.504 10.415 149.031 8.89499 145.605 8.23499L 142.711 7.67999C 139.996 7.15298 139.207 6.61798 139.207 5.27798C 139.207 3.88699 140.449 3 142.406 3C 144.816 3 146.164 4.01199 146.293 5.879L 149.844 5.879z"/>
<path style="stroke:none; fill-rule:evenodd; fill:#000000" d="M 153 18.696L 156.797 18.696L 156.797 0.296997L 153 0.296997L 153 18.696z"/>
<path style="stroke:none; fill-rule:evenodd; fill:#000000" d="M 164.199 11.395L 168.586 11.395C 170.242 11.395 170.957 12.051 170.957 13.59C 170.957 13.739 170.957 13.993 170.934 14.321C 170.91 14.797 170.91 15.254 170.91 15.532C 170.91 17.247 171.012 17.801 171.496 18.688L 175.508 18.688L 175.508 18.008C 174.965 17.684 174.738 17.305 174.738 16.497C 174.641 11.071 174.539 10.821 172.188 9.80899C 174.258 9.004 175.293 7.51599 175.293 5.26599C 175.293 3.80499 174.785 2.465 173.898 1.55899C 173.062 0.703979 171.895 0.296997 170.32 0.296997L 160.398 0.296997L 160.398 18.696L 164.195 18.696L 164.199 11.395zM 164.199 8.19598L 164.199 3.49698L 168.801 3.49698C 169.895 3.49698 170.352 3.59399 170.809 3.965C 171.266 4.33298 171.496 4.95398 171.496 5.793C 171.496 6.65698 171.242 7.34799 170.809 7.71899C 170.402 8.06299 169.895 8.18799 168.801 8.18799L 164.199 8.19598z"/>
<path style="stroke:none; fill-rule:evenodd; fill:#000000" d="M 196.621 15.497L 189.051 15.497C 189.504 14.54 190.059 14.036 192.684 12.122C 195.785 9.85599 196.695 8.49298 196.695 6.07498C 196.695 2.625 194.328 0.402985 190.57 0.402985C 186.867 0.402985 184.699 2.59799 184.699 6.39099C 184.699 6.53998 184.699 6.74298 184.699 7.01999L 188.098 7.01999L 188.098 6.44598C 188.098 4.461 189.016 3.30499 190.609 3.30499C 192.148 3.30499 193.094 4.39099 193.094 6.18399C 193.094 8.15298 192.469 8.93399 188.562 11.735C 185.559 13.801 184.633 15.395 184.457 18.7L 196.617 18.7L 196.621 15.497z"/>
<path style="stroke:none; fill-rule:evenodd; fill:#000000" d="M 220.145 5.879C 220.145 4.19598 219.762 3.09 218.852 2.086C 217.613 0.730988 215.559 0 212.898 0C 208.465 0 205.906 2.07898 205.906 5.672C 205.906 8.52798 207.355 9.922 211.121 10.629L 213.715 11.133C 216.258 11.61 217.199 12.321 217.199 13.813C 217.199 15.356 215.781 16.29 213.473 16.29C 210.887 16.29 209.441 15.188 209.316 13.18L 205.617 13.18C 205.844 17.133 208.547 19.29 213.25 19.29C 218 19.29 220.805 17.063 220.805 13.321C 220.805 10.415 219.332 8.89499 215.906 8.23499L 213.012 7.67999C 210.297 7.15298 209.508 6.61798 209.508 5.27798C 209.508 3.88699 210.75 3 212.707 3C 215.117 3 216.465 4.01199 216.594 5.879L 220.145 5.879z"/>
<path style="stroke:none; fill-rule:evenodd; fill:#000000" d="M 229.207 5.297L 227.301 5.297L 227.301 1.66098L 223.703 1.66098L 223.703 5.297L 221.961 5.297L 221.961 7.69598L 223.703 7.69598L 223.703 16.086C 223.703 18.231 224.84 19.293 227.164 19.293C 227.945 19.293 228.578 19.219 229.211 19.016L 229.211 16.524C 228.871 16.571 228.676 16.598 228.43 16.598C 227.527 16.598 227.305 16.325 227.305 15.114L 227.305 7.70398L 229.211 7.70398L 229.207 5.297z"/>
<path style="stroke:none; fill-rule:evenodd; fill:#000000" d="M 237.723 4.797C 233.555 4.797 231 7.55899 231 12.047C 231 16.559 233.551 19.297 237.75 19.297C 241.895 19.297 244.5 16.536 244.5 12.153C 244.5 7.51599 242 4.80099 237.727 4.80099L 237.723 4.797zM 237.75 7.69598C 239.656 7.69598 240.898 9.42999 240.898 12.094C 240.898 14.629 239.609 16.391 237.75 16.391C 235.867 16.391 234.602 14.633 234.602 12.043C 234.602 9.457 235.863 7.69598 237.75 7.69598z"/>
<path style="stroke:none; fill-rule:evenodd; fill:#000000" d="M 247.098 4.99698L 247.098 18.696L 250.695 18.696L 250.695 11.418C 250.695 9.34 251.715 8.30099 253.75 8.30099C 254.121 8.30099 254.371 8.33298 254.844 8.43399L 254.844 4.80099C 254.645 4.80099 254.523 4.80099 254.422 4.80099C 252.832 4.80099 251.441 5.86798 250.695 7.72699L 250.695 5L 247.098 4.99698z"/>
<path style="stroke:none; fill-rule:evenodd; fill:#000000" d="M 268.547 12.997C 268.57 12.692 268.57 12.567 268.57 12.391C 268.57 11.024 268.371 9.754 268.043 8.78998C 267.137 6.30499 264.938 4.80499 262.18 4.80499C 258.262 4.80499 255.863 7.64499 255.863 12.231C 255.863 16.614 258.238 19.301 262.105 19.301C 265.164 19.301 267.641 17.551 268.422 14.86L 264.934 14.86C 264.504 15.961 263.52 16.602 262.23 16.602C 261.223 16.602 260.414 16.172 259.906 15.415C 259.578 14.911 259.453 14.301 259.402 13.008L 268.547 12.997zM 259.445 10.598C 259.672 8.53198 260.555 7.5 262.125 7.5C 263.008 7.5 263.816 7.92599 264.324 8.633C 264.652 9.13699 264.801 9.66498 264.879 10.598L 259.445 10.598z"/>
<path style="stroke:none; fill-rule:evenodd; fill:#000000" d="M 271 14.997L 271 18.696L 273.191 18.696L 273.191 18.77C 273.191 20.489 272.504 21.372 271 21.676L 271 23.09C 272.035 22.965 272.746 22.688 273.43 22.157C 274.441 21.375 274.797 20.438 274.797 18.465L 274.797 15L 271 14.997z"/>
<path style="stroke:none; fill-rule:evenodd; fill:#000000" d="M 295.785 0.796997L 286.184 0.796997L 284.59 10.758L 287.762 10.758C 288.137 9.879 288.945 9.39899 290.027 9.39899C 291.812 9.39899 292.898 10.696 292.898 12.887C 292.898 14.997 291.789 16.297 290.027 16.297C 288.492 16.297 287.637 15.497 287.562 14.024L 284.09 14.024C 284.141 17.168 286.52 19.297 290.016 19.297C 293.863 19.297 296.504 16.668 296.504 12.797C 296.504 9.129 294.223 6.60199 290.902 6.60199C 289.715 6.60199 288.828 6.90298 287.789 7.67599L 288.371 4L 295.793 4L 295.785 0.796997z"/>
<path style="stroke:none; fill-rule:evenodd; fill:#000000" d="M 306.398 18.696L 313.617 18.696C 316.426 18.696 318.199 18.043 319.441 16.551C 320.91 14.836 321.695 12.336 321.695 9.48499C 321.695 6.66098 320.91 4.16098 319.441 2.422C 318.203 0.93399 316.453 0.304993 313.617 0.304993L 306.398 0.304993L 306.398 18.696zM 310.195 15.497L 310.195 3.49698L 313.613 3.49698C 316.473 3.49698 317.895 5.47699 317.895 9.508C 317.895 13.512 316.477 15.493 313.613 15.493L 310.195 15.497z"/>
<path style="stroke:none; fill-rule:evenodd; fill:#000000" d="M 336.047 12.997C 336.07 12.692 336.07 12.567 336.07 12.391C 336.07 11.024 335.871 9.754 335.543 8.78998C 334.637 6.30499 332.438 4.80499 329.68 4.80499C 325.762 4.80499 323.363 7.64499 323.363 12.231C 323.363 16.614 325.738 19.301 329.605 19.301C 332.664 19.301 335.141 17.551 335.922 14.86L 332.434 14.86C 332.004 15.961 331.02 16.602 329.73 16.602C 328.723 16.602 327.914 16.172 327.406 15.415C 327.078 14.911 326.953 14.301 326.902 13.008L 336.047 12.997zM 326.945 10.598C 327.172 8.53198 328.055 7.5 329.625 7.5C 330.508 7.5 331.316 7.92599 331.824 8.633C 332.152 9.13699 332.301 9.66498 332.379 10.598L 326.945 10.598z"/>
<path style="stroke:none; fill-rule:evenodd; fill:#000000" d="M 347 18.715L 350.598 18.715L 350.598 0.296997L 347 0.296997L 347 6.81299C 346.117 5.43399 344.93 4.797 343.234 4.797C 339.977 4.797 337.504 7.93799 337.504 12.071C 337.504 13.918 338.059 15.793 338.969 17.114C 339.902 18.43 341.57 19.293 343.234 19.293C 344.926 19.293 346.113 18.665 347 17.325L 347 18.715zM 344.047 7.797C 345.82 7.797 346.996 9.53198 346.996 12.122C 346.996 14.583 345.797 16.293 344.047 16.293C 342.297 16.293 341.098 14.559 341.098 12.071C 341.098 9.55899 342.297 7.797 344.047 7.797z"/>
<path style="stroke:none; fill-rule:evenodd; fill:#000000" d="M 357.598 5.043L 354 5.043L 354 18.692L 357.598 18.692L 357.598 5.043zM 357.598 0.296997L 354 0.296997L 354 3.49698L 357.598 3.49698L 357.598 0.296997z"/>
<path style="stroke:none; fill-rule:evenodd; fill:#000000" d="M 372.492 10.153C 372.238 6.80499 370.004 4.80099 366.574 4.80099C 362.488 4.80099 360.098 7.48499 360.098 12.153C 360.098 16.665 362.457 19.297 366.523 19.297C 369.848 19.297 372.16 17.243 372.492 13.973L 369.105 13.973C 368.652 15.723 367.945 16.399 366.582 16.399C 364.789 16.399 363.703 14.793 363.703 12.153C 363.703 10.872 363.953 9.66498 364.383 8.85999C 364.785 8.10599 365.57 7.70398 366.578 7.70398C 368.016 7.70398 368.699 8.379 369.102 10.157L 372.492 10.153z"/>
<path style="stroke:none; fill-rule:evenodd; fill:#000000" d="M 386.645 18.282C 386.062 17.7 385.898 17.321 385.898 16.61L 385.898 9.008C 385.898 6.22299 383.992 4.80099 380.281 4.80099C 376.57 4.80099 374.641 6.375 374.414 9.547L 377.836 9.547C 378.012 8.15298 378.594 7.69998 380.344 7.69998C 381.711 7.69998 382.395 8.15298 382.395 9.06299C 382.395 9.51599 382.168 9.918 381.785 10.122C 381.305 10.372 381.305 10.372 379.555 10.649L 378.137 10.899C 375.422 11.352 374.105 12.743 374.105 15.192C 374.105 16.352 374.434 17.313 375.066 17.997C 375.848 18.805 377.039 19.282 378.254 19.282C 379.77 19.282 381.16 18.625 382.402 17.333C 382.402 18.04 382.477 18.293 382.805 18.7L 386.645 18.7L 386.645 18.282zM 382.398 13.207C 382.398 15.243 381.395 16.399 379.609 16.399C 378.43 16.399 377.703 15.774 377.703 14.766C 377.703 13.711 378.254 13.211 379.711 12.907L 380.914 12.684C 381.844 12.508 381.992 12.461 382.395 12.258L 382.398 13.207z"/>
<path style="stroke:none; fill-rule:evenodd; fill:#000000" d="M 395.008 5.297L 393.102 5.297L 393.102 1.66098L 389.504 1.66098L 389.504 5.297L 387.762 5.297L 387.762 7.69598L 389.504 7.69598L 389.504 16.086C 389.504 18.231 390.641 19.293 392.965 19.293C 393.746 19.293 394.379 19.219 395.012 19.016L 395.012 16.524C 394.672 16.571 394.477 16.598 394.23 16.598C 393.328 16.598 393.105 16.325 393.105 15.114L 393.105 7.70398L 395.012 7.70398L 395.008 5.297z"/>
<path style="stroke:none; fill-rule:evenodd; fill:#000000" d="M 409.047 12.997C 409.07 12.692 409.07 12.567 409.07 12.391C 409.07 11.024 408.871 9.754 408.543 8.78998C 407.637 6.30499 405.438 4.80499 402.68 4.80499C 398.762 4.80499 396.363 7.64499 396.363 12.231C 396.363 16.614 398.738 19.301 402.605 19.301C 405.664 19.301 408.141 17.551 408.922 14.86L 405.434 14.86C 405.004 15.961 404.02 16.602 402.73 16.602C 401.723 16.602 400.914 16.172 400.406 15.415C 400.078 14.911 399.953 14.301 399.902 13.008L 409.047 12.997zM 399.945 10.598C 400.172 8.53198 401.055 7.5 402.625 7.5C 403.508 7.5 404.316 7.92599 404.824 8.633C 405.152 9.13699 405.301 9.66498 405.379 10.598L 399.945 10.598z"/>
<path style="stroke:none; fill-rule:evenodd; fill:#000000" d="M 420.098 18.715L 423.695 18.715L 423.695 0.296997L 420.098 0.296997L 420.098 6.81299C 419.215 5.43399 418.027 4.797 416.332 4.797C 413.074 4.797 410.602 7.93799 410.602 12.071C 410.602 13.918 411.156 15.793 412.066 17.114C 413 18.43 414.668 19.293 416.332 19.293C 418.023 19.293 419.211 18.665 420.098 17.325L 420.098 18.715zM 417.148 7.797C 418.922 7.797 420.098 9.53198 420.098 12.122C 420.098 14.583 418.898 16.293 417.148 16.293C 415.398 16.293 414.199 14.559 414.199 12.071C 414.199 9.55899 415.398 7.797 417.148 7.797z"/>
<path style="stroke:none; fill-rule:evenodd; fill:#000000" d="M 434 18.696L 437.797 18.696L 437.797 0.296997L 434 0.296997L 434 18.696z"/>
<path style="stroke:none; fill-rule:evenodd; fill:#000000" d="M 447.008 5.297L 445.102 5.297L 445.102 1.66098L 441.504 1.66098L 441.504 5.297L 439.762 5.297L 439.762 7.69598L 441.504 7.69598L 441.504 16.086C 441.504 18.231 442.641 19.293 444.965 19.293C 445.746 19.293 446.379 19.219 447.012 19.016L 447.012 16.524C 446.672 16.571 446.477 16.598 446.23 16.598C 445.328 16.598 445.105 16.325 445.105 15.114L 445.105 7.70398L 447.012 7.70398L 447.008 5.297z"/>
<path style="stroke:none; fill-rule:evenodd; fill:#000000" d="M 461.047 12.997C 461.07 12.692 461.07 12.567 461.07 12.391C 461.07 11.024 460.871 9.754 460.543 8.78998C 459.637 6.30499 457.438 4.80499 454.68 4.80499C 450.762 4.80499 448.363 7.64499 448.363 12.231C 448.363 16.614 450.738 19.301 454.605 19.301C 457.664 19.301 460.141 17.551 460.922 14.86L 457.434 14.86C 457.004 15.961 456.02 16.602 454.73 16.602C 453.723 16.602 452.914 16.172 452.406 15.415C 452.078 14.911 451.953 14.301 451.902 13.008L 461.047 12.997zM 451.945 10.598C 452.172 8.53198 453.055 7.5 454.625 7.5C 455.508 7.5 456.316 7.92599 456.824 8.633C 457.152 9.13699 457.301 9.66498 457.379 10.598L 451.945 10.598z"/>
<path style="stroke:none; fill-rule:evenodd; fill:#000000" d="M 463.398 4.99698L 463.398 18.696L 466.996 18.696L 466.996 10.485C 466.996 8.81299 467.895 7.797 469.395 7.797C 470.566 7.797 471.293 8.48099 471.293 9.57098L 471.293 18.692L 474.891 18.692L 474.891 10.481C 474.891 8.80899 475.789 7.793 477.289 7.793C 478.461 7.793 479.188 8.47699 479.188 9.56699L 479.188 18.688L 482.785 18.688L 482.785 9.01999C 482.785 6.36398 481.156 4.793 478.406 4.793C 476.68 4.793 475.457 5.40298 474.391 6.836C 473.73 5.53598 472.359 4.793 470.652 4.793C 469.078 4.793 468.059 5.32898 466.891 6.73499L 466.891 4.99298L 463.398 4.99698z"/>
<path style="stroke:none; fill-rule:evenodd; fill:#000000" d="M 497.066 9.44598C 497.016 6.55099 494.789 4.80099 491.121 4.80099C 487.656 4.80099 485.504 6.547 485.504 9.35999C 485.504 10.27 485.781 11.055 486.262 11.586C 486.742 12.067 487.172 12.293 488.484 12.723L 492.707 14.04C 493.59 14.317 493.895 14.594 493.895 15.153C 493.895 15.989 492.91 16.493 491.27 16.493C 490.363 16.493 489.629 16.317 489.176 16.016C 488.797 15.739 488.648 15.461 488.496 14.731L 485.035 14.731C 485.137 17.723 487.344 19.297 491.508 19.297C 493.41 19.297 494.855 18.895 495.871 18.083C 496.887 17.274 497.496 16.008 497.496 14.665C 497.496 12.895 496.609 11.754 494.812 11.223L 490.336 9.93399C 489.352 9.633 489.098 9.42999 489.098 8.87198C 489.098 8.11398 489.898 7.60599 491.133 7.60599C 492.816 7.60599 493.645 8.211 493.668 9.44998L 497.066 9.44598z"/>
</g>
</svg>