<?xml version="1.0" encoding="UTF-8" standalone="no"?>
<svg
   xmlns:dc="http://purl.org/dc/elements/1.1/"
   xmlns:cc="http://creativecommons.org/ns#"
   xmlns:rdf="http://www.w3.org/1999/02/22-rdf-syntax-ns#"
   xmlns:svg="http://www.w3.org/2000/svg"
   xmlns="http://www.w3.org/2000/svg"
   xmlns:sodipodi="http://sodipodi.sourceforge.net/DTD/sodipodi-0.dtd"
   xmlns:inkscape="http://www.inkscape.org/namespaces/inkscape"
   width="243.511"
   height="382.987"
   id="svg2"
   version="1.1"
   inkscape:version="0.47 r22583"
   sodipodi:docname="fig_frontal_areas.svg"
   inkscape:export-filename="/Users/oreilly/svn_docs/figs/fig_frontal_areas.png"
   inkscape:export-xdpi="150"
   inkscape:export-ydpi="150">
  <metadata
     id="metadata236">
    <rdf:RDF>
      <cc:Work
         rdf:about="">
        <dc:format>image/svg+xml</dc:format>
        <dc:type
           rdf:resource="http://purl.org/dc/dcmitype/StillImage" />
        <dc:title></dc:title>
      </cc:Work>
    </rdf:RDF>
  </metadata>
  <sodipodi:namedview
     pagecolor="#ffffff"
     bordercolor="#666666"
     borderopacity="1"
     objecttolerance="10"
     gridtolerance="10"
     guidetolerance="10"
     inkscape:pageopacity="0"
     inkscape:pageshadow="2"
     inkscape:window-width="640"
     inkscape:window-height="480"
     id="namedview234"
     showgrid="false"
     inkscape:zoom="1.2324178"
     inkscape:cx="143.50885"
     inkscape:cy="167.01177"
     inkscape:current-layer="svg2" />
  <defs
     id="defs4">
    <inkscape:perspective
       sodipodi:type="inkscape:persp3d"
       inkscape:vp_x="0 : 191.4935 : 1"
       inkscape:vp_y="0 : 1000 : 0"
       inkscape:vp_z="243.511 : 191.4935 : 1"
       inkscape:persp3d-origin="121.7555 : 127.66233 : 1"
       id="perspective238" />
    <marker
       id="ArrowEnd"
       viewBox="0 0 10 10"
       refX="0"
       refY="5"
       markerUnits="strokeWidth"
       markerWidth="4"
       markerHeight="3"
       orient="auto">
      <path
         d="M 0 0 L 10 5 L 0 10 z"
         id="path7" />
    </marker>
    <marker
       id="ArrowStart"
       viewBox="0 0 10 10"
       refX="10"
       refY="5"
       markerUnits="strokeWidth"
       markerWidth="4"
       markerHeight="3"
       orient="auto">
      <path
         d="M 10 0 L 0 5 L 10 10 z"
         id="path10" />
    </marker>
  </defs>
  <rect
     style="fill:#ffffff;fill-opacity:1;fill-rule:nonzero;stroke:#ffffff;stroke-width:0.98472118;stroke-miterlimit:4;stroke-opacity:1;stroke-dasharray:none;stroke-dashoffset:0"
     id="rect3044"
     width="238.57074"
     height="377.32236"
     x="3.2380133"
     y="3.238013" />
  <g
     id="g12">
    <path
       style="stroke:none; fill-rule:evenodd; fill:#000000"
       d="M 101.663 73.5322L 107.081 76.1461L 107.499 75.2782L 104.097 73.6382C 103.312 73.2592 102.956 72.3882 103.296 71.6852C 103.605 71.0442 104.171 70.8722 104.863 71.2082L 108.593 73.0092L 109.011 72.1422L 105.609 70.5012C 104.824 70.1222 104.468 69.2512 104.808 68.5482C 105.113 67.9192 105.695 67.7392 106.374 68.0712L 110.105 69.8722L 110.523 69.0052L 106.46 67.0442C 105.491 66.5752 104.683 66.8762 104.195 67.8882C 103.847 68.6102 103.855 69.1492 104.218 69.9502C 103.488 69.9892 103.031 70.3022 102.691 71.0092C 102.343 71.7312 102.382 72.3372 102.804 73.1142L 102.042 72.7472L 101.663 73.5322z"
       id="path14" />
    <path
       style="stroke:none; fill-rule:evenodd; fill:#000000"
       d="M 106.616 62.7672C 105.886 64.2862 106.527 65.7312 108.343 66.6071C 110.159 67.4812 111.687 67.0952 112.429 65.5602C 113.159 64.0402 112.523 62.5872 110.749 61.7281C 108.878 60.8252 107.37 61.2082 106.616 62.7632L 106.616 62.7672zM 107.417 63.1422C 107.886 62.1732 108.96 61.9781 110.304 62.6262C 111.574 63.2392 112.089 64.2281 111.632 65.1812C 111.171 66.1422 110.089 66.3452 108.777 65.7122C 107.476 65.0832 106.952 64.1071 107.417 63.1461L 107.417 63.1422z"
       id="path16" />
    <path
       style="stroke:none; fill-rule:evenodd; fill:#000000"
       d="M 109.484 57.2281L 109.058 58.1142L 107.57 57.3992L 107.159 58.2552L 108.648 58.9742L 108.296 59.7042L 108.995 60.0402L 109.347 59.3102L 113.441 61.2822C 113.988 61.5442 114.476 61.3212 114.8 60.6532C 114.898 60.4502 114.976 60.2312 115.066 59.9192L 114.343 59.5712C 114.32 59.7002 114.269 59.8372 114.187 60.0052C 114.007 60.3762 113.855 60.4312 113.472 60.2432L 109.761 58.4542L 110.187 57.5672L 109.484 57.2281z"
       id="path18" />
    <path
       style="stroke:none; fill-rule:evenodd; fill:#000000"
       d="M 110.816 54.1692C 110.085 55.6891 110.726 57.1342 112.542 58.0092C 114.359 58.8842 115.886 58.4972 116.628 56.9622C 117.359 55.4422 116.722 53.9892 114.948 53.1302C 113.077 52.2281 111.57 52.6102 110.816 54.1652L 110.816 54.1692zM 111.616 54.5402C 112.085 53.5712 113.159 53.3762 114.503 54.0242C 115.773 54.6382 116.288 55.6262 115.831 56.5792C 115.37 57.5402 114.288 57.7432 112.976 57.1102C 111.675 56.4812 111.152 55.5052 111.616 54.5442L 111.616 54.5402z"
       id="path20" />
    <path
       style="stroke:none; fill-rule:evenodd; fill:#000000"
       d="M 112.761 50.5402L 118.179 53.1532L 118.597 52.2862L 115.784 50.9312C 115.011 50.5602 114.597 50.1182 114.499 49.5602C 114.433 49.1962 114.495 48.9112 114.773 48.3062L 113.894 47.8842C 113.804 48.0172 113.761 48.0832 113.706 48.1962C 113.437 48.7552 113.566 49.3372 114.128 50.2242L 113.148 49.7512L 112.761 50.5402z"
       id="path22" />
    <path
       style="stroke:#000000; stroke-dasharray:6,3; stroke-width:1.9139600000000001; fill:none"
       d="M 141.175 13.2002C 141.175 13.2002 141.175 13.2002 138.945 16.4662C 136.714 19.7312 132.249 26.2711 130.816 31.2122C 129.382 36.1532 130.972 39.5012 130.659 43.2472C 130.343 46.9932 128.109 51.1382 126.995 54.6461C 125.882 58.1532 125.882 61.0211 123.57 64.6891C 121.261 68.3531 116.636 72.8172 114.085 76.8062C 111.534 80.7902 111.058 84.2982 109.542 88.5242C 108.031 92.7472 105.48 97.6922 103.007 102.954C 100.538 108.212 98.1474 113.794 96.9482 116.583C 95.7529 119.372 95.7529 119.372 95.7529 119.372"
       id="path24" />
    <path
       style="stroke:#000000; stroke-dasharray:6,3; stroke-width:1.9139600000000001; fill:none"
       d="M 221.054 73.9462C 221.054 73.9462 221.054 73.9462 218.663 75.3802C 216.273 76.8141 211.491 79.6852 207.187 81.7552C 202.882 83.8252 199.058 85.1031 196.109 88.1302C 193.159 91.1572 191.089 95.9391 189.574 101.122C 188.062 106.302 187.105 111.884 187.105 117.7C 187.105 123.517 188.058 129.579 191.089 135.157C 194.116 140.735 199.218 145.837 203.124 148.868C 207.027 151.896 209.738 152.853 211.093 153.329C 212.445 153.806 212.445 153.806 212.445 153.806"
       id="path26" />
    <path
       style="stroke:#000000; stroke-dasharray:6,3; stroke-width:1.9139600000000001; fill:none"
       d="M 130.171 108.388C 130.171 108.388 130.171 108.388 132.562 107.751C 134.952 107.114 139.734 105.841 149.14 106.239C 158.546 106.638 172.577 108.708 179.589 109.747C 186.605 110.782 186.605 110.782 186.605 110.782"
       id="path28" />
    <path
       style="stroke:#000000; stroke-dasharray:6,3; stroke-width:1.9139600000000001; fill:none"
       d="M 114.866 10.8102C 114.866 10.8102 114.866 10.8102 114.152 11.8452C 113.437 12.8802 112.003 14.9502 111.683 17.8212C 111.366 20.6891 112.159 24.3571 111.683 27.6262C 111.206 30.8922 109.452 33.7632 108.019 37.1922C 106.585 40.6182 105.468 44.6031 103.874 47.9542C 102.281 51.3022 100.21 54.0132 99.1707 58.1572C 98.1357 62.3022 98.1357 67.8802 96.5419 71.7862C 94.9482 75.6922 91.7607 77.9232 89.7685 81.9892C 87.7763 86.0522 86.9795 91.9542 86.0224 96.8141C 85.0693 101.673 83.9521 105.501 81.9599 110.204C 79.9677 114.907 77.1005 120.485 75.663 123.274C 74.2295 126.064 74.2295 126.064 74.2295 126.064"
       id="path30" />
    <path
       style="stroke:#000000; stroke-dasharray:6,3; stroke-width:1.9139600000000001; fill:none"
       d="M 10.5927 101.212C 10.5927 101.212 10.5927 101.212 12.5849 101.927C 14.5771 102.642 18.5615 104.075 23.1865 105.114C 27.8076 106.149 33.0693 106.786 38.1709 106.946C 43.2724 107.103 48.2138 106.79 53.2373 106.63C 58.2568 106.474 63.3623 106.474 65.913 106.474C 68.4638 106.474 68.4638 106.474 68.4638 106.474"
       id="path32" />
    <path
       style="stroke:none; fill-rule:evenodd; fill:#000000"
       d="M 72.2763 114.673C 71.1357 114.372 70.2841 114.946 69.9209 116.286C 69.5537 117.634 70.0068 118.7 71.081 118.997C 71.9873 119.243 72.5459 118.899 73.2568 117.618L 73.7021 116.814C 74.0302 116.216 74.3349 116.024 74.7529 116.138C 75.2959 116.286 75.5107 116.927 75.288 117.735C 75.1513 118.231 74.8935 118.614 74.5849 118.778C 74.3818 118.876 74.1982 118.896 73.7724 118.837L 73.5068 119.81C 74.8584 120.13 75.706 119.556 76.1201 118.04C 76.5185 116.579 76.0576 115.45 74.9404 115.146C 74.0771 114.911 73.4677 115.263 72.8779 116.341L 72.4287 117.169C 72.0459 117.872 71.7138 118.126 71.3037 118.013C 70.7724 117.868 70.5615 117.298 70.7685 116.544C 70.9716 115.806 71.4013 115.493 72.0146 115.638L 72.2763 114.673z"
       id="path34" />
    <path
       style="stroke:none; fill-rule:evenodd; fill:#000000"
       d="M 78.0966 109.833L 72.2959 108.247L 72.0459 109.165L 75.331 110.064C 76.5146 110.388 77.1201 111.22 76.8545 112.181C 76.6552 112.911 76.0849 113.255 75.3857 113.064L 71.2802 111.939L 71.0302 112.857L 75.5029 114.079C 76.4638 114.341 77.2802 113.794 77.5927 112.665C 77.8232 111.814 77.6748 111.189 77.0615 110.439L 77.8701 110.657L 78.0966 109.833z"
       id="path36" />
    <path
       style="stroke:none; fill-rule:evenodd; fill:#000000"
       d="M 80.913 109.032L 81.1669 108.103L 78.1435 107.278C 78.874 106.958 79.288 106.485 79.4951 105.735C 79.9013 104.243 78.9716 102.927 77.1201 102.419C 75.1709 101.888 73.6943 102.501 73.2724 104.04C 73.0576 104.825 73.2412 105.552 73.8037 106.173L 72.9287 105.935L 72.6982 106.786L 80.913 109.032zM 74.0888 104.427C 74.3662 103.411 75.4443 102.989 76.831 103.368C 78.1474 103.728 78.8584 104.649 78.5849 105.657C 78.3193 106.63 77.2568 107.032 75.8974 106.657C 74.538 106.286 73.8271 105.399 74.0927 104.427L 74.0888 104.427z"
       id="path38" />
    <path
       style="stroke:none; fill-rule:evenodd; fill:#000000"
       d="M 82.6123 102.935L 82.8662 102.005L 79.8427 101.181C 80.5732 100.86 80.9873 100.388 81.1943 99.6382C 81.6005 98.1461 80.6709 96.8292 78.8193 96.3212C 76.8701 95.7902 75.3935 96.4032 74.9716 97.9422C 74.7568 98.7281 74.9404 99.4542 75.5029 100.075L 74.6279 99.8372L 74.3974 100.689L 82.6123 102.935zM 75.788 98.3252C 76.0654 97.3102 77.1435 96.8882 78.5302 97.2672C 79.8466 97.6262 80.5576 98.5482 80.2841 99.5562C 80.0185 100.528 78.956 100.931 77.5966 100.556C 76.2373 100.185 75.5263 99.2982 75.7919 98.3252L 75.788 98.3252z"
       id="path40" />
    <path
       style="stroke:none; fill-rule:evenodd; fill:#000000"
       d="M 74.1201 92.7742L 73.8662 93.7042L 81.9365 95.9152L 82.1904 94.9852L 74.1201 92.7742z"
       id="path42" />
    <path
       style="stroke:none; fill-rule:evenodd; fill:#000000"
       d="M 81.3974 87.8802C 80.5146 87.6382 79.9638 87.5602 79.4873 87.6071C 78.4326 87.7202 77.6162 88.4502 77.3193 89.5362C 76.8779 91.1492 77.831 92.5322 79.7334 93.0562C 81.6357 93.5752 83.0849 92.8961 83.5341 91.2632C 83.8974 89.9352 83.3974 88.8102 82.1982 88.2312L 81.9443 89.1612C 82.6357 89.6222 82.8935 90.2552 82.6904 90.9972C 82.5302 91.5832 82.1279 92.0092 81.5576 92.1852C 81.1669 92.3141 80.8154 92.2982 80.2334 92.1572L 81.3974 87.8802zM 79.4795 91.9272C 78.4287 91.5562 77.9091 90.7122 78.163 89.7822C 78.4091 88.8762 79.3545 88.3842 80.3076 88.6461C 80.3271 88.6492 80.3505 88.6572 80.3701 88.6732L 79.4795 91.9272z"
       id="path44" />
    <path
       style="stroke:none; fill-rule:evenodd; fill:#000000"
       d="M 78.4443 85.7042L 84.2451 87.2942L 84.499 86.3642L 80.8584 85.3682C 80.0185 85.1422 79.5107 84.3452 79.7177 83.5912C 79.9052 82.9072 80.4326 82.6342 81.1709 82.8372L 85.1669 83.9312L 85.4209 83.0012L 81.7802 82.0052C 80.9404 81.7742 80.4326 80.9812 80.6396 80.2281C 80.8232 79.5522 81.3623 79.2742 82.0927 79.4742L 86.0888 80.5672L 86.3427 79.6382L 81.9912 78.4462C 80.9521 78.1652 80.2138 78.5992 79.9169 79.6852C 79.706 80.4582 79.8115 80.9852 80.3115 81.7082C 79.6005 81.8802 79.206 82.2711 78.999 83.0242C 78.788 83.7982 78.9365 84.3882 79.4951 85.0752L 78.6787 84.8531L 78.4443 85.7042z"
       id="path46" />
    <path
       style="stroke:none; fill-rule:evenodd; fill:#000000"
       d="M 85.6005 72.4781C 84.7177 72.2352 84.1669 72.1572 83.6904 72.2042C 82.6357 72.3172 81.8193 73.0482 81.5224 74.1342C 81.081 75.7472 82.0341 77.1302 83.9365 77.6532C 85.8388 78.1732 87.288 77.4932 87.7373 75.8602C 88.1005 74.5322 87.6005 73.4072 86.4013 72.8292L 86.1474 73.7592C 86.8388 74.2202 87.0966 74.8531 86.8935 75.5952C 86.7334 76.1812 86.331 76.6071 85.7607 76.7822C 85.3701 76.9112 85.0185 76.8961 84.4365 76.7552L 85.6005 72.4781zM 83.6787 76.5242C 82.6279 76.1532 82.1084 75.3102 82.3623 74.3802C 82.6084 73.4742 83.5537 72.9812 84.5068 73.2432C 84.5263 73.2472 84.5498 73.2552 84.5693 73.2711L 83.6787 76.5242z"
       id="path48" />
    <path
       style="stroke:none; fill-rule:evenodd; fill:#000000"
       d="M 82.7412 70.3062L 88.5419 71.8961L 88.7959 70.9662L 85.5966 70.0912C 84.413 69.7672 83.8076 68.9352 84.0693 67.9812C 84.2685 67.2512 84.8388 66.9072 85.5341 67.0992L 89.5537 68.1962L 89.8037 67.2782L 85.4209 66.0792C 84.4599 65.8172 83.6435 66.3642 83.3349 67.4812C 83.1005 68.3452 83.2802 68.9892 83.9443 69.7202L 82.9716 69.4542L 82.7412 70.3062z"
       id="path50" />
    <path
       style="stroke:none; fill-rule:evenodd; fill:#000000"
       d="M 84.9013 62.1692L 84.6435 63.1182L 83.0498 62.6852L 82.7998 63.6031L 84.3935 64.0362L 84.1787 64.8212L 84.9287 65.0242L 85.1435 64.2392L 89.5263 65.4391C 90.1123 65.5992 90.5537 65.2942 90.749 64.5752C 90.8076 64.3571 90.8466 64.1302 90.8779 63.8022L 90.1045 63.5912C 90.1045 63.7202 90.0771 63.8682 90.0302 64.0442C 89.9248 64.4422 89.7802 64.5211 89.374 64.4072L 85.4013 63.3212L 85.6591 62.3722L 84.9013 62.1692z"
       id="path52" />
    <path
       style="stroke:none; fill-rule:evenodd; fill:#000000"
       d="M 91.913 57.3961C 91.9091 57.5012 91.8974 57.5442 91.8818 57.5992C 91.7959 57.9192 91.581 58.0482 91.2919 57.9702L 87.8818 57.0362C 86.8545 56.7552 86.0927 57.3531 85.7021 58.7822C 85.4755 59.6222 85.5263 60.3882 85.8466 60.8922C 86.0732 61.2392 86.374 61.4391 86.9443 61.6182L 87.1982 60.6891C 86.5107 60.4192 86.3076 59.9112 86.5419 59.0442C 86.7685 58.2162 87.206 57.8332 87.7607 57.9852L 88.0029 58.0522C 88.3896 58.1572 88.4912 58.4352 88.3818 59.1891C 88.1904 60.5402 88.1826 60.7512 88.2295 61.1461C 88.3193 61.8961 88.7451 62.3802 89.499 62.5872C 90.5498 62.8722 91.413 62.3292 91.7334 61.1532C 91.9326 60.4232 91.8388 59.7672 91.4248 58.9502C 92.0263 59.0442 92.374 58.8332 92.538 58.2312C 92.5888 58.0442 92.6045 57.8961 92.6084 57.5752L 91.913 57.3961zM 90.1865 58.6612C 90.4951 58.7432 90.6591 58.8842 90.8388 59.2312C 91.0771 59.7002 91.1318 60.2042 90.9795 60.7472C 90.7841 61.4662 90.3271 61.7902 89.7373 61.6302C 89.1318 61.4662 88.9326 60.9702 89.0576 59.9462C 89.1904 58.9391 89.2021 58.7281 89.1435 58.3762L 90.1865 58.6612z"
       id="path54" />
    <path
       style="stroke:none; fill-rule:evenodd; fill:#000000"
       d="M 86.9404 54.9152L 92.7412 56.5052L 92.9951 55.5752L 89.9834 54.7512C 89.1552 54.5242 88.6709 54.1652 88.4677 53.6342C 88.3388 53.2902 88.3466 52.9932 88.5107 52.3492L 87.5732 52.0912C 87.5107 52.2392 87.4795 52.3141 87.4443 52.4352C 87.2841 53.0322 87.5068 53.5832 88.2255 54.3531L 87.1748 54.0672L 86.9404 54.9152z"
       id="path56" />
    <path
       style="stroke:none; fill-rule:evenodd; fill:#000000"
       d="M 88.9052 47.6852L 92.9834 50.5282L 88.0615 50.7711L 87.7919 51.7552L 94.1513 51.3922L 94.9716 51.9972C 95.3388 52.2512 95.4365 52.5052 95.331 52.8922C 95.2959 53.0242 95.2334 53.1732 95.1318 53.3602L 95.9599 53.5872C 96.1084 53.4272 96.206 53.2512 96.2724 53.0092C 96.3505 52.7122 96.3388 52.3642 96.2334 52.0712C 96.1045 51.7281 95.9052 51.4972 95.4912 51.1891L 89.1787 46.6852L 88.9052 47.6852z"
       id="path58" />
    <path
       style="stroke:none; fill-rule:evenodd; fill:#000000"
       d="M 90.2412 42.6071L 96.0419 44.1962L 96.2959 43.2672L 92.6552 42.2711C 91.8154 42.0442 91.3076 41.2472 91.5146 40.4932C 91.7021 39.8102 92.2295 39.5362 92.9677 39.7392L 96.9638 40.8332L 97.2177 39.9032L 93.5771 38.9072C 92.7373 38.6772 92.2295 37.8842 92.4365 37.1302C 92.6201 36.4542 93.1591 36.1772 93.8896 36.3762L 97.8857 37.4702L 98.1396 36.5402L 93.788 35.3492C 92.749 35.0672 92.0107 35.5012 91.7138 36.5872C 91.5029 37.3602 91.6084 37.8882 92.1084 38.6102C 91.3974 38.7822 91.0029 39.1732 90.7959 39.9272C 90.5849 40.7002 90.7334 41.2902 91.2919 41.9781L 90.4755 41.7552L 90.2412 42.6071z"
       id="path60" />
    <path
       style="stroke:none; fill-rule:evenodd; fill:#000000"
       d="M 93.288 31.1222C 92.8427 32.7472 93.7334 34.0522 95.6826 34.5872C 97.6318 35.1182 99.0617 34.4662 99.5107 32.8172C 99.9557 31.1922 99.0697 29.8762 97.163 29.3531C 95.1591 28.8062 93.7451 29.4502 93.2841 31.1222L 93.288 31.1222zM 94.1435 31.3452C 94.4248 30.3062 95.4482 29.9192 96.8896 30.3141C 98.249 30.6852 98.9367 31.5641 98.6587 32.5832C 98.3779 33.6102 97.3545 34.0092 95.9482 33.6262C 94.5537 33.2472 93.8623 32.3762 94.1474 31.3492L 94.1435 31.3452z"
       id="path62" />
    <path
       style="stroke:none; fill-rule:evenodd; fill:#000000"
       d="M 95.1005 25.1692L 94.8427 26.1182L 93.249 25.6852L 92.999 26.6031L 94.5927 27.0362L 94.3779 27.8212L 95.1279 28.0242L 95.3427 27.2392L 99.7257 28.4391C 100.312 28.5992 100.753 28.2942 100.948 27.5752C 101.007 27.3571 101.046 27.1302 101.077 26.8022L 100.304 26.5912C 100.304 26.7202 100.277 26.8682 100.23 27.0442C 100.124 27.4422 99.9797 27.5211 99.5737 27.4072L 95.6005 26.3212L 95.8584 25.3722L 95.1005 25.1692z"
       id="path64" />
    <path
       style="stroke:none; fill-rule:evenodd; fill:#000000"
       d="M 95.788 21.9232C 95.3427 23.5482 96.2334 24.8531 98.1826 25.3882C 100.132 25.9192 101.562 25.2672 102.011 23.6182C 102.456 21.9932 101.57 20.6772 99.6627 20.1532C 97.6591 19.6071 96.2451 20.2512 95.7841 21.9232L 95.788 21.9232zM 96.6435 22.1461C 96.9248 21.1071 97.9482 20.7202 99.3897 21.1142C 100.749 21.4852 101.437 22.3642 101.159 23.3842C 100.878 24.4112 99.8547 24.8102 98.4482 24.4272C 97.0537 24.0482 96.3623 23.1772 96.6474 22.1492L 96.6435 22.1461z"
       id="path66" />
    <path
       style="stroke:none; fill-rule:evenodd; fill:#000000"
       d="M 97.038 18.0172L 102.839 19.6071L 103.093 18.6772L 100.081 17.8531C 99.2527 17.6262 98.7687 17.2672 98.5654 16.7352C 98.4365 16.3922 98.4443 16.0952 98.6084 15.4502L 97.6709 15.1922C 97.6084 15.3412 97.5771 15.4152 97.5419 15.5362C 97.3818 16.1342 97.6045 16.6852 98.3232 17.4542L 97.2724 17.1692L 97.038 18.0172z"
       id="path68" />
    <path
       style="stroke:#000000; stroke-width:1.9139600000000001; fill:none"
       d="M 130.652 108.388C 130.652 108.388 130.652 108.388 127.226 109.821C 123.8 111.255 116.945 114.126 111.363 116.118C 105.784 118.11 101.48 119.224 96.7763 119.864C 92.0732 120.501 86.9716 120.661 80.1982 123.212C 73.4248 125.763 64.9716 130.704 57.3193 137.079C 49.6669 143.454 42.8115 151.267 45.9209 159.399C 49.0263 167.528 62.1005 175.978 74.2216 180.126C 86.3388 184.271 97.499 184.11 108.738 182.595C 119.976 181.083 131.296 178.212 141.581 173.032C 151.863 167.853 161.109 160.357 171.636 157.407C 182.156 154.458 193.956 156.056 204.796 154.302C 215.636 152.548 225.523 147.446 230.144 137.403C 234.765 127.36 234.128 112.372 231.019 99.0602C 227.913 85.7472 222.331 74.1102 213.324 60.8762C 204.316 47.6461 191.882 32.8172 171.87 22.8531C 151.863 12.8882 124.281 7.78616 98.6084 10.9781C 72.9404 14.1652 49.1826 25.6461 35.2334 36.4072C 21.2841 47.1692 17.1396 57.2122 14.3466 67.8141C 11.5576 78.4152 10.124 89.5752 10.0419 97.3102C 9.96383 105.04 11.2373 109.345 14.1865 114.286C 17.1357 119.228 21.7568 124.806 25.3466 128.954C 28.9326 133.099 31.4834 135.81 35.1513 138.599C 38.8154 141.388 43.6005 144.255 45.9912 145.692C 48.3818 147.126 48.3818 147.126 48.3818 147.126"
       id="path70" />
    <path
       style="stroke:none; fill-rule:evenodd; fill:#000000"
       d="M 26.3076 115.571L 28.6123 109.571L 27.5341 109.571L 25.8349 114.435L 24.2295 109.571L 23.1513 109.571L 25.2607 115.571L 26.3076 115.571z"
       id="path72" />
    <path
       style="stroke:none; fill-rule:evenodd; fill:#000000"
       d="M 34.6357 112.872C 34.6357 111.954 34.5693 111.403 34.3974 110.958C 34.0107 109.974 33.0966 109.376 31.9795 109.376C 30.3154 109.376 29.2412 110.669 29.2412 112.657C 29.2412 114.646 30.2763 115.872 31.9521 115.872C 33.3154 115.872 34.2646 115.079 34.5029 113.747L 33.5498 113.747C 33.288 114.552 32.7568 114.97 31.9951 114.97C 31.3935 114.97 30.8818 114.692 30.5654 114.177C 30.3388 113.829 30.2607 113.478 30.249 112.872L 34.6357 112.872zM 30.2138 112.103C 30.2919 110.989 30.9716 110.267 31.9365 110.267C 32.8779 110.267 33.6005 111.044 33.6005 112.032C 33.6005 112.052 33.6005 112.075 33.5927 112.099L 30.2138 112.103z"
       id="path74" />
    <path
       style="stroke:none; fill-rule:evenodd; fill:#000000"
       d="M 35.9326 109.544L 35.9326 115.567L 36.9326 115.567L 36.9326 112.22C 36.9326 110.981 37.5576 110.169 38.5224 110.169C 39.2607 110.169 39.7295 110.63 39.7295 111.36L 39.7295 115.564L 40.7295 115.564L 40.7295 111.013C 40.7295 110.013 39.9873 109.368 38.8271 109.368C 37.9365 109.368 37.3623 109.712 36.8349 110.552L 36.8349 109.54L 35.9326 109.544z"
       id="path76" />
    <path
       style="stroke:none; fill-rule:evenodd; fill:#000000"
       d="M 44.4326 109.571L 43.5341 109.571L 43.5341 107.903L 42.5341 107.903L 42.5341 109.571L 41.6357 109.571L 41.6357 110.368L 42.5341 110.368L 42.5341 114.915C 42.5341 115.521 42.9365 115.864 43.6669 115.864C 43.8896 115.864 44.1162 115.841 44.4287 115.782L 44.4287 114.946C 44.3154 115.036 44.1787 115.064 44.0107 115.064C 43.6357 115.064 43.5302 114.95 43.5302 114.521L 43.5302 110.368L 44.4287 110.368L 44.4326 109.571z"
       id="path78" />
    <path
       style="stroke:none; fill-rule:evenodd; fill:#000000"
       d="M 45.5341 109.544L 45.5341 115.567L 46.5341 115.567L 46.5341 112.435C 46.5341 111.571 46.7451 111.009 47.1943 110.673C 47.4834 110.454 47.7646 110.388 48.4169 110.376L 48.4169 109.411C 48.2607 109.392 48.1787 109.38 48.0537 109.38C 47.4443 109.38 46.9795 109.747 46.4326 110.646L 46.4326 109.556L 45.5341 109.544z"
       id="path80" />
    <path
       style="stroke:none; fill-rule:evenodd; fill:#000000"
       d="M 51.6709 109.372C 49.9677 109.372 48.9365 110.583 48.9365 112.622C 48.9365 114.653 49.956 115.872 51.6865 115.872C 53.3896 115.872 54.4365 114.661 54.4365 112.669C 54.4365 110.579 53.4287 109.376 51.6748 109.376L 51.6709 109.372zM 51.6826 110.271C 52.7763 110.271 53.4326 111.157 53.4326 112.653C 53.4326 114.067 52.7568 114.966 51.6826 114.966C 50.6005 114.966 49.9365 114.079 49.9365 112.618C 49.9365 111.169 50.6005 110.271 51.6826 110.271z"
       id="path82" />
    <path
       style="stroke:none; fill-rule:evenodd; fill:#000000"
       d="M 55.4326 113.271L 61.2295 113.271L 61.2295 112.474L 55.4326 112.474L 55.4326 113.271z"
       id="path84" />
    <path
       style="stroke:none; fill-rule:evenodd; fill:#000000"
       d="M 23.8349 121.044L 23.8349 127.067L 24.8349 127.067L 24.8349 123.259C 24.8349 122.38 25.4599 121.673 26.2295 121.673C 26.9326 121.673 27.331 122.11 27.331 122.888L 27.331 127.067L 28.331 127.067L 28.331 123.259C 28.331 122.38 28.956 121.673 29.7255 121.673C 30.4169 121.673 30.8271 122.122 30.8271 122.888L 30.8271 127.067L 31.8271 127.067L 31.8271 122.548C 31.8271 121.47 31.206 120.868 30.0732 120.868C 29.2685 120.868 28.7802 121.11 28.2177 121.794C 27.8623 121.146 27.3779 120.868 26.5927 120.868C 25.788 120.868 25.2568 121.165 24.7373 121.892L 24.7373 121.044L 23.8349 121.044z"
       id="path86" />
    <path
       style="stroke:none; fill-rule:evenodd; fill:#000000"
       d="M 38.5341 124.372C 38.5341 123.454 38.4677 122.903 38.2959 122.458C 37.9091 121.474 36.9951 120.876 35.8779 120.876C 34.2138 120.876 33.1396 122.169 33.1396 124.157C 33.1396 126.146 34.1748 127.372 35.8505 127.372C 37.2138 127.372 38.163 126.579 38.4013 125.247L 37.4482 125.247C 37.1865 126.052 36.6552 126.47 35.8935 126.47C 35.2919 126.47 34.7802 126.192 34.4638 125.677C 34.2373 125.329 34.1591 124.978 34.1474 124.372L 38.5341 124.372zM 34.1162 123.603C 34.1943 122.489 34.874 121.767 35.8388 121.767C 36.7802 121.767 37.5029 122.544 37.5029 123.532C 37.5029 123.552 37.5029 123.575 37.4951 123.599L 34.1162 123.603z"
       id="path88" />
    <path
       style="stroke:none; fill-rule:evenodd; fill:#000000"
       d="M 44.7334 118.669L 43.7334 118.669L 43.7334 121.806C 43.3349 121.192 42.6982 120.868 41.8974 120.868C 40.3505 120.868 39.3349 122.126 39.3349 124.06C 39.3349 126.107 40.3466 127.364 41.9873 127.364C 42.8232 127.364 43.4052 127.044 43.9326 126.274L 43.9326 127.064L 44.7295 127.064L 44.7334 118.669zM 42.0615 121.771C 43.081 121.771 43.7334 122.696 43.7334 124.142C 43.7334 125.54 43.0771 126.466 42.0732 126.466C 41.0302 126.466 40.3349 125.528 40.3349 124.118C 40.3349 122.708 41.0263 121.771 42.0615 121.771z"
       id="path90" />
    <path
       style="stroke:none; fill-rule:evenodd; fill:#000000"
       d="M 47.0341 121.071L 46.0341 121.071L 46.0341 127.071L 47.0341 127.071L 47.0341 121.071zM 47.0341 118.669L 46.0341 118.669L 46.0341 119.899L 47.0341 119.899L 47.0341 118.669z"
       id="path92" />
    <path
       style="stroke:none; fill-rule:evenodd; fill:#000000"
       d="M 54.0771 126.509C 53.9716 126.571 53.9248 126.571 53.8662 126.571C 53.5263 126.571 53.3388 126.399 53.3388 126.099L 53.3388 122.532C 53.3388 121.458 52.5615 120.876 51.0888 120.876C 50.2216 120.876 49.5029 121.13 49.1005 121.579C 48.8271 121.888 48.7138 122.235 48.6904 122.837L 49.6357 122.837C 49.7138 122.107 50.1396 121.778 51.0224 121.778C 51.8662 121.778 52.3388 122.099 52.3388 122.677L 52.3388 122.931C 52.3388 123.333 52.1045 123.505 51.3623 123.599C 50.038 123.771 49.8349 123.817 49.4755 123.966C 48.7919 124.251 48.4443 124.794 48.4443 125.579C 48.4443 126.673 49.1982 127.364 50.413 127.364C 51.1669 127.364 51.7724 127.091 52.4482 126.446C 52.5146 127.079 52.8115 127.364 53.4326 127.364C 53.624 127.364 53.7724 127.341 54.081 127.259L 54.0771 126.509zM 52.3349 125.208C 52.3349 125.536 52.249 125.739 51.9677 126.013C 51.5888 126.376 51.1318 126.567 50.5849 126.567C 49.8623 126.567 49.4404 126.204 49.4404 125.575C 49.4404 124.927 49.8505 124.595 50.8427 124.442C 51.8232 124.302 52.0224 124.255 52.3349 124.099L 52.3349 125.208z"
       id="path94" />
    <path
       style="stroke:none; fill-rule:evenodd; fill:#000000"
       d="M 55.1357 127.071L 56.1357 127.071L 56.1357 118.673L 55.1357 118.673L 55.1357 127.071z"
       id="path96" />
    <path
       style="stroke:#000000; stroke-dasharray:6,3; stroke-width:1.9139600000000001; fill:none"
       d="M 87.6005 13.6772C 87.6005 13.6772 87.6005 13.6772 87.5224 16.2281C 87.4443 18.7782 87.2841 23.8802 86.4091 28.1852C 85.5341 32.4892 83.9404 35.9932 82.9013 40.0641C 81.8662 44.1262 81.3896 48.7512 80.1904 53.1342C 78.9951 57.5172 77.0849 61.6612 76.4443 65.3292C 75.8076 68.9932 76.4443 72.1852 76.6826 75.6102C 76.9209 79.0362 76.7607 82.7042 75.9677 87.0872C 75.1709 91.4702 73.7373 96.5712 71.663 101.435C 69.5927 106.294 66.8818 110.919 64.4912 116.739C 62.1005 122.556 60.0302 129.571 58.9912 133.079C 57.956 136.587 57.956 136.587 57.956 136.587"
       id="path98" />
    <path
       style="stroke:none; fill-rule:evenodd; fill:#000000"
       d="M 22.8505 76.1652L 22.2724 76.9192L 24.7412 78.8102C 24.0146 78.7592 23.3701 79.0712 22.8818 79.7082C 21.9326 80.9462 22.3037 82.5172 23.8232 83.6852C 25.4326 84.9192 27.0341 84.8882 28.0224 83.6071C 28.5224 82.9542 28.6279 82.3102 28.3505 81.4462L 28.9795 81.9272L 29.4951 81.2552L 22.8505 76.1652zM 23.6865 80.1342C 24.3154 79.3172 25.4404 79.3571 26.581 80.2242C 27.6826 81.0672 28.0068 82.1532 27.3896 82.9582C 26.749 83.7942 25.5849 83.7822 24.4716 82.9352C 23.3623 82.0832 23.0498 80.9622 23.6865 80.1342z"
       id="path100" />
    <path
       style="stroke:none; fill-rule:evenodd; fill:#000000"
       d="M 26.9209 74.5242C 25.8974 75.8602 26.2295 77.4072 27.831 78.6382C 29.4326 79.8642 31.0029 79.7982 32.0459 78.4422C 33.0693 77.1071 32.7451 75.5522 31.1787 74.3492C 29.5302 73.0872 27.9755 73.1532 26.9209 74.5242zM 27.6318 75.0562C 28.288 74.2002 29.3818 74.2281 30.5654 75.1342C 31.6826 75.9932 31.9912 77.0641 31.3466 77.9032C 30.6982 78.7472 29.5966 78.7312 28.4404 77.8452C 27.2959 76.9662 26.9795 75.9032 27.6318 75.0522L 27.6318 75.0562z"
       id="path102" />
    <path
       style="stroke:none; fill-rule:evenodd; fill:#000000"
       d="M 29.4404 71.3802L 34.2138 75.0402L 34.7998 74.2782L 32.3232 72.3802C 31.6435 71.8571 31.3271 71.3452 31.3427 70.7742C 31.3505 70.4072 31.4716 70.1382 31.8662 69.6031L 31.0927 69.0092C 30.9795 69.1222 30.9209 69.1772 30.8427 69.2782C 30.4677 69.7672 30.4716 70.3642 30.8427 71.3492L 29.9795 70.6891L 29.4404 71.3802z"
       id="path104" />
    <path
       style="stroke:none; fill-rule:evenodd; fill:#000000"
       d="M 35.749 66.0362C 34.8037 65.3252 33.8037 65.5442 32.956 66.6422C 32.1045 67.7512 32.1279 68.9112 33.0068 69.5912C 33.7529 70.1612 34.4013 70.0522 35.5419 69.1382L 36.2568 68.5641C 36.788 68.1342 37.1396 68.0712 37.4873 68.3372C 37.9326 68.6772 37.8896 69.3571 37.3857 70.0211C 37.0732 70.4272 36.6904 70.6852 36.3427 70.7202C 36.1162 70.7312 35.9404 70.6852 35.5654 70.4702L 34.9521 71.2711C 36.081 72.0792 37.0849 71.8642 38.0419 70.6182C 38.9638 69.4192 38.9599 68.1962 38.0419 67.4892C 37.331 66.9462 36.6357 67.0482 35.6787 67.8172L 34.9482 68.4112C 34.331 68.9192 33.9248 69.0282 33.5888 68.7711C 33.1552 68.4352 33.1709 67.8292 33.6435 67.2082C 34.1084 66.5992 34.624 66.4742 35.1396 66.8412L 35.749 66.0362z"
       id="path106" />
    <path
       style="stroke:none; fill-rule:evenodd; fill:#000000"
       d="M 36.624 61.8252C 35.6005 63.1612 35.9326 64.7082 37.5341 65.9391C 39.1357 67.1652 40.706 67.0992 41.749 65.7432C 42.7724 64.4072 42.4482 62.8531 40.8818 61.6492C 39.2334 60.3882 37.6787 60.4542 36.624 61.8252zM 37.331 62.3571C 37.9873 61.5012 39.081 61.5282 40.2646 62.4352C 41.3818 63.2942 41.6904 64.3642 41.0459 65.2042C 40.3974 66.0482 39.2959 66.0322 38.1396 65.1461C 36.9951 64.2672 36.6787 63.2042 37.331 62.3531L 37.331 62.3571z"
       id="path108" />
    <path
       style="stroke:none; fill-rule:evenodd; fill:#000000"
       d="M 37.9521 56.4892L 37.3662 57.2552L 44.0068 62.3492L 44.5927 61.5832L 37.9521 56.4892z"
       id="path110" />
    <path
       style="stroke:none; fill-rule:evenodd; fill:#000000"
       d="M 48.3271 55.7512C 48.2841 55.8452 48.2568 55.8802 48.2216 55.9272C 48.0224 56.1891 47.7724 56.2312 47.5341 56.0482L 44.7295 53.8961C 43.8857 53.2472 42.9521 53.5172 42.0498 54.6891C 41.5224 55.3802 41.2802 56.1071 41.3935 56.7002C 41.4677 57.1071 41.6748 57.4072 42.1318 57.7902L 42.7177 57.0242C 42.1865 56.5172 42.1865 55.9662 42.7295 55.2552C 43.2529 54.5752 43.7998 54.3882 44.2568 54.7352L 44.456 54.8882C 44.7724 55.1302 44.7646 55.4272 44.3779 56.0832C 43.6904 57.2632 43.6045 57.4542 43.499 57.8372C 43.3037 58.5641 43.5107 59.1772 44.1279 59.6532C 44.9912 60.3141 45.999 60.1342 46.7412 59.1732C 47.2021 58.5752 47.3623 57.9312 47.2841 57.0172C 47.8076 57.3292 48.206 57.2592 48.5849 56.7742C 48.7021 56.6222 48.7724 56.4892 48.8974 56.1962L 48.3271 55.7512zM 46.249 56.2742C 46.5029 56.4702 46.6005 56.6612 46.6357 57.0482C 46.6787 57.5712 46.5419 58.0602 46.1982 58.5052C 45.7451 59.0952 45.1982 59.2242 44.7138 58.8531C 44.2138 58.4702 44.2177 57.9391 44.7177 57.0362C 45.2216 56.1532 45.3115 55.9622 45.3896 55.6142L 46.249 56.2742z"
       id="path112" />
    <path
       style="stroke:none; fill-rule:evenodd; fill:#000000"
       d="M 45.9326 49.8961L 45.3349 50.6772L 44.0263 49.6732L 43.4482 50.4272L 44.7568 51.4312L 44.2646 52.0752L 44.8818 52.5482L 45.374 51.9032L 48.9795 54.6692C 49.4599 55.0362 49.9873 54.9192 50.4404 54.3292C 50.5771 54.1492 50.6982 53.9502 50.8505 53.6612L 50.2138 53.1732C 50.1669 53.2902 50.0849 53.4152 49.9716 53.5641C 49.7216 53.8882 49.5615 53.9112 49.2216 53.6532L 45.9521 51.1461L 46.5498 50.3642L 45.9326 49.8961z"
       id="path114" />
    <path
       style="stroke:none; fill-rule:evenodd; fill:#000000"
       d="M 52.288 47.0602C 51.5615 46.5012 51.081 46.2202 50.6201 46.0872C 49.6005 45.7982 48.5693 46.1612 47.8818 47.0522C 46.8623 48.3802 47.2255 50.0211 48.7919 51.2242C 50.3584 52.4232 51.9599 52.3372 52.9873 51.0012C 53.8232 49.9072 53.7841 48.6772 52.8974 47.6891L 52.3115 48.4502C 52.7763 49.1422 52.7763 49.8212 52.3115 50.4312C 51.9443 50.9112 51.4091 51.1532 50.8115 51.1031C 50.4013 51.0792 50.0771 50.9312 49.5966 50.5792L 52.288 47.0602zM 48.9834 50.0832C 48.1513 49.3452 47.9912 48.3642 48.5771 47.5992C 49.1474 46.8531 50.2099 46.7552 50.9912 47.3571C 51.0068 47.3682 51.0263 47.3842 51.038 47.4072L 48.9834 50.0832z"
       id="path116" />
    <path
       style="stroke:none; fill-rule:evenodd; fill:#000000"
       d="M 50.4404 43.9812L 55.2138 47.6422L 55.7998 46.8802L 53.3232 44.9812C 52.6435 44.4582 52.3271 43.9462 52.3427 43.3762C 52.3505 43.0092 52.4716 42.7392 52.8662 42.2042L 52.0927 41.6102C 51.9795 41.7242 51.9209 41.7782 51.8427 41.8802C 51.4677 42.3682 51.4716 42.9662 51.8427 43.9502L 50.9795 43.2902L 50.4404 43.9812z"
       id="path118" />
    <path
       style="stroke:none; fill-rule:evenodd; fill:#000000"
       d="M 60.3271 40.0522C 60.2841 40.1461 60.2568 40.1812 60.2216 40.2281C 60.0224 40.4892 59.7724 40.5322 59.5341 40.3492L 56.7295 38.1962C 55.8857 37.5482 54.9521 37.8172 54.0498 38.9892C 53.5224 39.6812 53.2802 40.4072 53.3935 41.0012C 53.4677 41.4072 53.6748 41.7082 54.1318 42.0912L 54.7177 41.3252C 54.1865 40.8172 54.1865 40.2672 54.7295 39.5562C 55.2529 38.8762 55.7998 38.6891 56.2568 39.0362L 56.456 39.1891C 56.7724 39.4312 56.7646 39.7281 56.3779 40.3842C 55.6904 41.5641 55.6045 41.7552 55.499 42.1382C 55.3037 42.8642 55.5107 43.4781 56.1279 43.9542C 56.9912 44.6142 57.999 44.4352 58.7412 43.4742C 59.2021 42.8762 59.3623 42.2312 59.2841 41.3172C 59.8076 41.6302 60.206 41.5602 60.5849 41.0752C 60.7021 40.9232 60.7724 40.7902 60.8974 40.4972L 60.3271 40.0522zM 58.249 40.5712C 58.5029 40.7672 58.6005 40.9582 58.6357 41.3452C 58.6787 41.8682 58.5419 42.3571 58.1982 42.8022C 57.7451 43.3922 57.1982 43.5211 56.7138 43.1492C 56.2138 42.7672 56.2177 42.2352 56.7177 41.3332C 57.2216 40.4502 57.3115 40.2592 57.3896 39.9112L 58.249 40.5712z"
       id="path120" />
    <path
       style="stroke:none; fill-rule:evenodd; fill:#000000"
       d="M 55.3545 33.6922L 54.7685 34.4582L 61.4091 39.5522L 61.9951 38.7862L 55.3545 33.6922z"
       id="path122" />
    <path
       style="stroke:none; fill-rule:evenodd; fill:#000000"
       d="M 37.499 93.8022L 38.0849 93.0362L 35.6005 91.1302C 36.3974 91.1102 36.9599 90.8292 37.4365 90.2082C 38.3779 88.9812 38.0068 87.4072 36.4912 86.2392C 34.8896 85.0132 33.288 85.0242 32.3154 86.2902C 31.8232 86.9352 31.7138 87.6772 32.0068 88.4662L 31.288 87.9152L 30.7529 88.6142L 37.499 93.8022zM 32.9169 86.9622C 33.5576 86.1262 34.7177 86.1461 35.8545 87.0172C 36.9365 87.8452 37.249 88.9702 36.6123 89.7982C 35.999 90.5992 34.8662 90.5672 33.7451 89.7122C 32.6279 88.8531 32.3037 87.7672 32.9169 86.9662L 32.9169 86.9622z"
       id="path124" />
    <path
       style="stroke:none; fill-rule:evenodd; fill:#000000"
       d="M 34.7412 83.3802L 39.5146 87.0402L 40.1005 86.2782L 37.624 84.3802C 36.9443 83.8571 36.6279 83.3452 36.6435 82.7742C 36.6513 82.4072 36.7724 82.1382 37.1669 81.6031L 36.3935 81.0092C 36.2802 81.1222 36.2216 81.1772 36.1435 81.2782C 35.7685 81.7672 35.7724 82.3642 36.1435 83.3492L 35.2802 82.6891L 34.7412 83.3802z"
       id="path126" />
    <path
       style="stroke:none; fill-rule:evenodd; fill:#000000"
       d="M 42.788 78.3602C 42.0615 77.8022 41.581 77.5211 41.1201 77.3882C 40.1005 77.0992 39.0693 77.4622 38.3818 78.3531C 37.3623 79.6812 37.7255 81.3212 39.2919 82.5242C 40.8584 83.7242 42.4599 83.6382 43.4873 82.3022C 44.3232 81.2082 44.2841 79.9781 43.3974 78.9892L 42.8115 79.7512C 43.2763 80.4422 43.2763 81.1222 42.8115 81.7312C 42.4443 82.2122 41.9091 82.4542 41.3115 82.4032C 40.9013 82.3802 40.5771 82.2312 40.0966 81.8802L 42.788 78.3602zM 39.4834 81.3842C 38.6513 80.6461 38.4912 79.6652 39.0771 78.8992C 39.6474 78.1532 40.7099 78.0562 41.4912 78.6572C 41.5068 78.6692 41.5263 78.6852 41.538 78.7082L 39.4834 81.3842z"
       id="path128" />
    <path
       style="stroke:none; fill-rule:evenodd; fill:#000000"
       d="M 42.2646 73.5602L 41.6591 74.3531L 40.913 73.7822C 40.5966 73.5402 40.5732 73.2312 40.8388 72.8842C 40.8857 72.8212 40.9052 72.7942 41.0498 72.6302L 40.4209 72.1492C 40.2529 72.2942 40.1669 72.3882 40.0498 72.5402C 39.5146 73.2392 39.5927 73.9662 40.2724 74.4892L 41.081 75.1102L 40.5927 75.7472L 41.2099 76.2202L 41.6982 75.5832L 45.8505 78.7672L 46.4287 78.0132L 42.2763 74.8292L 42.8818 74.0362L 42.2646 73.5602z"
       id="path130" />
    <path
       style="stroke:none; fill-rule:evenodd; fill:#000000"
       d="M 42.8388 72.7782L 47.6123 76.4391L 48.1982 75.6772L 45.7216 73.7782C 45.0419 73.2552 44.7255 72.7432 44.7412 72.1732C 44.749 71.8062 44.8701 71.5362 45.2646 71.0012L 44.4912 70.4072C 44.3779 70.5211 44.3193 70.5752 44.2412 70.6772C 43.8662 71.1652 43.8701 71.7632 44.2412 72.7472L 43.3779 72.0872L 42.8388 72.7782z"
       id="path132" />
    <path
       style="stroke:none; fill-rule:evenodd; fill:#000000"
       d="M 46.5224 67.8252C 45.499 69.1612 45.831 70.7082 47.4326 71.9391C 49.0341 73.1652 50.6045 73.0992 51.6474 71.7432C 52.6709 70.4072 52.3466 68.8531 50.7802 67.6492C 49.1318 66.3882 47.5771 66.4542 46.5224 67.8252zM 47.2334 68.3571C 47.8896 67.5012 48.9834 67.5282 50.1669 68.4352C 51.2841 69.2942 51.5927 70.3642 50.9482 71.2042C 50.2998 72.0482 49.1982 72.0322 48.0419 71.1461C 46.8974 70.2672 46.581 69.2042 47.2334 68.3531L 47.2334 68.3571z"
       id="path134" />
    <path
       style="stroke:none; fill-rule:evenodd; fill:#000000"
       d="M 49.0459 64.6692L 53.8193 68.3292L 54.4052 67.5672L 51.7724 65.5482C 50.7998 64.8022 50.5537 63.8022 51.1552 63.0211C 51.6162 62.4192 52.2724 62.3172 52.8466 62.7592L 56.1513 65.2942L 56.7295 64.5402L 53.124 61.7742C 52.331 61.1692 51.3701 61.3682 50.663 62.2862C 50.1201 62.9972 50.0459 63.6612 50.3896 64.5912L 49.5888 63.9781L 49.0459 64.6692z"
       id="path136" />
    <path
       style="stroke:none; fill-rule:evenodd; fill:#000000"
       d="M 54.2334 57.8961L 53.6357 58.6772L 52.3271 57.6732L 51.749 58.4272L 53.0576 59.4312L 52.5654 60.0752L 53.1826 60.5482L 53.6748 59.9032L 57.2802 62.6692C 57.7607 63.0362 58.288 62.9192 58.7412 62.3292C 58.8779 62.1492 58.999 61.9502 59.1513 61.6612L 58.5146 61.1732C 58.4677 61.2902 58.3857 61.4152 58.2724 61.5641C 58.0224 61.8882 57.8623 61.9112 57.5224 61.6532L 54.2529 59.1461L 54.8505 58.3642L 54.2334 57.8961z"
       id="path138" />
    <path
       style="stroke:none; fill-rule:evenodd; fill:#000000"
       d="M 62.5263 56.1532C 62.4834 56.2472 62.456 56.2822 62.4209 56.3292C 62.2216 56.5912 61.9716 56.6342 61.7334 56.4502L 58.9287 54.2982C 58.0849 53.6492 57.1513 53.9192 56.249 55.0912C 55.7216 55.7822 55.4795 56.5092 55.5927 57.1031C 55.6669 57.5092 55.874 57.8102 56.331 58.1922L 56.9169 57.4272C 56.3857 56.9192 56.3857 56.3682 56.9287 55.6572C 57.4521 54.9781 57.999 54.7902 58.456 55.1382L 58.6552 55.2902C 58.9716 55.5322 58.9638 55.8292 58.5771 56.4852C 57.8896 57.6652 57.8037 57.8571 57.6982 58.2392C 57.5029 58.9662 57.7099 59.5792 58.3271 60.0562C 59.1904 60.7162 60.1982 60.5362 60.9404 59.5752C 61.4013 58.9781 61.5615 58.3332 61.4834 57.4192C 62.0068 57.7312 62.4052 57.6612 62.7841 57.1772C 62.9013 57.0242 62.9716 56.8922 63.0966 56.5992L 62.5263 56.1532zM 60.4482 56.6732C 60.7021 56.8682 60.7998 57.0602 60.8349 57.4462C 60.8779 57.9702 60.7412 58.4582 60.3974 58.9032C 59.9443 59.4932 59.3974 59.6222 58.913 59.2512C 58.413 58.8682 58.4169 58.3372 58.9169 57.4352C 59.4209 56.5522 59.5107 56.3602 59.5888 56.0132L 60.4482 56.6732z"
       id="path140" />
    <path
       style="stroke:none; fill-rule:evenodd; fill:#000000"
       d="M 57.5537 49.7902L 56.9677 50.5562L 63.6084 55.6492L 64.1943 54.8842L 57.5537 49.7902z"
       id="path142" />
    <path
       style="stroke:#000000; stroke-dasharray:6,3; stroke-width:1.9139600000000001; fill:none"
       d="M 81.3857 203.95C 81.3857 203.95 81.3857 203.95 79.9521 206.739C 78.5185 209.528 75.6474 215.107 73.4169 221.564C 71.1865 228.017 69.5927 235.353 68.7959 239.021C 67.999 242.685 67.999 242.685 67.999 242.685"
       id="path144" />
    <path
       style="stroke:#000000; stroke-dasharray:6,3; stroke-width:1.9139600000000001; fill:none"
       d="M 108.171 199.646C 108.171 199.646 108.171 199.646 108.249 201.157C 108.327 202.669 108.488 205.7 107.214 211.122C 105.941 216.54 103.23 224.353 101.874 228.259C 100.523 232.161 100.523 232.161 100.523 232.161"
       id="path146" />
    <path
       style="stroke:#000000; stroke-dasharray:6,3; stroke-width:1.9139600000000001; fill:none"
       d="M 136.39 201.079C 136.39 201.079 136.39 201.079 135.515 202.833C 134.64 204.587 132.886 208.091 131.21 213.673C 129.538 219.251 127.945 226.903 127.148 230.731C 126.351 234.556 126.351 234.556 126.351 234.556"
       id="path148" />
    <path
       style="stroke:#000000; stroke-width:1.9139600000000001; fill:none"
       d="M 89.9951 299.614C 89.9951 299.614 89.9951 299.614 86.4091 297.704C 82.8232 295.794 75.6474 291.966 72.2216 287.982C 68.7959 283.997 69.1162 279.853 70.7099 275.864C 72.3037 271.88 75.1709 268.052 79.3974 265.423C 83.6201 262.794 89.2021 261.36 95.499 260.243C 101.796 259.13 108.812 258.333 117.023 259.689C 125.234 261.04 134.64 264.548 141.417 267.739C 148.191 270.927 152.339 273.798 154.968 277.302C 157.597 280.81 158.714 284.954 159.113 288.779C 159.511 292.603 159.191 296.111 157.761 298.345C 156.327 300.575 153.777 301.532 151.546 301.134C 149.316 300.736 147.402 298.982 145.808 296.193C 144.214 293.404 142.941 289.579 141.425 286.31C 139.913 283.044 138.159 280.333 134.73 278.099C 131.304 275.868 126.202 274.114 121.499 272.997C 116.796 271.884 112.491 271.403 107.788 271.403C 103.085 271.403 97.9834 271.88 93.9209 272.357C 89.8584 272.833 86.8271 273.31 84.8349 274.505C 82.8427 275.7 81.8857 277.61 82.2841 280.321C 82.6826 283.032 84.4365 286.536 85.9482 289.888C 87.4599 293.236 88.7373 296.423 89.374 298.017C 90.0107 299.611 90.0107 299.611 90.0107 299.611"
       id="path150" />
    <path
       style="stroke:#000000; stroke-width:1.9139600000000001; fill:none"
       d="M 45.5107 332.618C 45.5107 332.618 45.5107 332.618 45.4326 336.204C 45.3545 339.79 45.1943 346.966 50.1357 353.821C 55.0771 360.677 65.1201 367.212 75.7255 370.4C 86.3271 373.587 97.4873 373.427 108.73 371.911C 119.968 370.4 131.288 367.529 141.574 362.349C 151.855 357.169 161.101 349.673 171.628 346.724C 182.148 343.775 193.948 345.372 204.788 343.618C 215.628 341.864 225.515 336.763 230.136 326.72C 234.757 316.677 234.12 301.689 231.011 288.376C 227.906 275.064 222.324 263.427 213.316 250.192C 204.308 236.962 191.874 222.134 171.863 212.169C 151.855 202.204 124.273 197.103 98.6005 200.29C 72.9326 203.478 49.1748 214.958 35.2255 225.72C 21.2763 236.481 17.1318 246.524 14.3388 257.126C 11.5498 267.728 10.1162 278.888 10.0341 286.618C 9.95603 294.349 11.2295 298.654 14.7373 303.357C 18.2451 308.06 23.9834 313.161 27.8896 317.384C 31.7919 321.607 33.8662 324.954 37.1357 327.904C 40.4013 330.853 44.8662 333.404 50.6084 335.157C 56.3466 336.911 63.3623 337.868 70.2177 337.868C 77.0732 337.868 83.7685 336.915 88.4716 334.361C 93.1748 331.81 95.8818 327.665 96.9209 323.599C 97.956 319.536 97.3154 315.548 95.8076 311.564C 94.2959 307.579 91.9052 303.595 88.5537 300.962C 85.206 298.333 80.9013 297.06 78.749 296.419C 76.5966 295.782 76.5966 295.782 76.5966 295.782"
       id="path152" />
    <path
       style="stroke:#000000; stroke-dasharray:6,3; stroke-width:1.9139600000000001; fill:none"
       d="M 77.0771 295.79C 77.0771 295.79 77.0771 295.79 75.0068 295.712C 72.9365 295.634 68.7919 295.474 63.7685 294.279C 58.749 293.083 52.8466 290.853 50.456 285.353C 48.0654 279.853 49.1826 271.083 52.4482 263.114C 55.7138 255.146 61.1357 247.97 68.5498 242.548C 75.9599 237.13 85.3701 233.462 96.2919 232.107C 107.214 230.755 119.648 231.708 131.128 234.817C 142.605 237.923 153.128 243.185 160.226 249.884C 167.32 256.579 170.988 264.708 171.945 272.603C 172.898 280.493 171.148 288.146 165.171 296.357C 159.195 304.568 148.991 313.337 144.128 318.677C 139.269 324.017 139.745 325.931 142.136 327.446C 144.527 328.958 148.831 330.075 153.534 331.907C 158.238 333.739 163.339 336.29 169.874 338.521C 176.409 340.751 184.382 342.665 188.366 343.622C 192.351 344.575 192.351 344.575 192.351 344.575"
       id="path154" />
    <path
       style="stroke:none; fill-rule:evenodd; fill:#000000"
       d="M 84.5654 215.329C 84.5537 214.142 83.7685 213.474 82.3662 213.474C 80.956 213.474 80.038 214.2 80.038 215.317C 80.038 216.263 80.5263 216.712 81.9755 217.06L 82.8857 217.278C 83.5615 217.439 83.831 217.681 83.831 218.118C 83.831 218.681 83.2646 219.064 82.4209 219.064C 81.9013 219.064 81.4638 218.915 81.2216 218.657C 81.0732 218.485 81.0029 218.31 80.9482 217.876L 79.9326 217.876C 79.9755 219.286 80.7607 219.966 82.3427 219.966C 83.8662 219.966 84.8349 219.216 84.8349 218.052C 84.8349 217.153 84.3232 216.657 83.1084 216.368L 82.1748 216.149C 81.3818 215.966 81.0419 215.712 81.0419 215.286C 81.0419 214.735 81.538 214.376 82.3271 214.376C 83.1045 214.376 83.5224 214.704 83.5459 215.333L 84.5654 215.329z"
       id="path156" />
    <path
       style="stroke:none; fill-rule:evenodd; fill:#000000"
       d="M 86.0341 213.646L 86.0341 219.669L 87.0341 219.669L 87.0341 215.86C 87.0341 214.981 87.6591 214.274 88.4287 214.274C 89.1318 214.274 89.5302 214.712 89.5302 215.489L 89.5302 219.669L 90.5302 219.669L 90.5302 215.86C 90.5302 214.981 91.1552 214.274 91.9248 214.274C 92.6162 214.274 93.0263 214.724 93.0263 215.489L 93.0263 219.669L 94.0263 219.669L 94.0263 215.149C 94.0263 214.071 93.4052 213.47 92.2724 213.47C 91.4677 213.47 90.9795 213.712 90.4169 214.396C 90.0615 213.747 89.5771 213.47 88.7919 213.47C 87.9873 213.47 87.456 213.767 86.9365 214.493L 86.9365 213.646L 86.0341 213.646z"
       id="path158" />
    <path
       style="stroke:none; fill-rule:evenodd; fill:#000000"
       d="M 100.98 219.107C 100.874 219.169 100.827 219.169 100.769 219.169C 100.429 219.169 100.241 218.997 100.241 218.696L 100.241 215.13C 100.241 214.056 99.4637 213.474 97.9912 213.474C 97.124 213.474 96.4052 213.728 96.0029 214.177C 95.7295 214.485 95.6162 214.833 95.5927 215.435L 96.538 215.435C 96.6162 214.704 97.0419 214.376 97.9248 214.376C 98.7687 214.376 99.2407 214.696 99.2407 215.274L 99.2407 215.528C 99.2407 215.931 99.0067 216.103 98.2646 216.196C 96.9404 216.368 96.7373 216.415 96.3779 216.564C 95.6943 216.849 95.3466 217.392 95.3466 218.177C 95.3466 219.271 96.1005 219.962 97.3154 219.962C 98.0693 219.962 98.6747 219.689 99.3507 219.044C 99.4167 219.677 99.7137 219.962 100.335 219.962C 100.527 219.962 100.675 219.939 100.984 219.857L 100.98 219.107zM 99.2337 217.81C 99.2337 218.138 99.1477 218.341 98.8657 218.614C 98.4873 218.978 98.0302 219.169 97.4834 219.169C 96.7607 219.169 96.3388 218.806 96.3388 218.177C 96.3388 217.528 96.749 217.196 97.7412 217.044C 98.7217 216.903 98.9207 216.857 99.2337 216.7L 99.2337 217.81z"
       id="path160" />
    <path
       style="stroke:none; fill-rule:evenodd; fill:#000000"
       d="M 111.437 227.189L 117.101 229.212L 117.425 228.306L 113.87 227.036C 113.05 226.743 112.605 225.915 112.866 225.181C 113.105 224.513 113.652 224.282 114.374 224.54L 118.277 225.935L 118.601 225.028L 115.046 223.759C 114.226 223.466 113.781 222.638 114.042 221.903C 114.277 221.247 114.835 221.009 115.55 221.263L 119.452 222.653L 119.773 221.747L 115.523 220.231C 114.507 219.872 113.738 220.251 113.359 221.31C 113.089 222.064 113.156 222.603 113.601 223.357C 112.878 223.474 112.456 223.833 112.195 224.571C 111.925 225.325 112.031 225.923 112.534 226.653L 111.738 226.368L 111.437 227.189z"
       id="path162" />
    <path
       style="stroke:none; fill-rule:evenodd; fill:#000000"
       d="M 115.253 215.946C 114.687 217.536 115.476 218.903 117.378 219.583C 119.281 220.263 120.757 219.716 121.331 218.107C 121.898 216.517 121.113 215.138 119.253 214.474C 117.296 213.778 115.835 214.317 115.253 215.946zM 116.093 216.235C 116.452 215.22 117.503 214.911 118.909 215.415C 120.238 215.888 120.859 216.817 120.503 217.81C 120.148 218.814 119.093 219.134 117.718 218.642C 116.359 218.157 115.734 217.239 116.093 216.235z"
       id="path164" />
    <path
       style="stroke:none; fill-rule:evenodd; fill:#000000"
       d="M 117.448 210.2L 117.12 211.13L 115.566 210.575L 115.245 211.47L 116.8 212.024L 116.527 212.79L 117.261 213.052L 117.534 212.286L 121.816 213.814C 122.386 214.017 122.851 213.747 123.101 213.044C 123.175 212.829 123.234 212.607 123.284 212.282L 122.531 212.013C 122.523 212.142 122.484 212.286 122.421 212.458C 122.284 212.845 122.136 212.915 121.738 212.771L 117.855 211.384L 118.183 210.454L 117.448 210.2z"
       id="path166" />
    <path
       style="stroke:none; fill-rule:evenodd; fill:#000000"
       d="M 118.456 206.946C 117.89 208.536 118.679 209.903 120.581 210.583C 122.484 211.263 123.96 210.716 124.534 209.107C 125.101 207.517 124.316 206.138 122.456 205.474C 120.499 204.778 119.038 205.317 118.456 206.946zM 119.292 207.235C 119.652 206.22 120.702 205.911 122.109 206.415C 123.437 206.888 124.058 207.817 123.702 208.81C 123.347 209.814 122.292 210.134 120.917 209.642C 119.558 209.157 118.933 208.239 119.292 207.235z"
       id="path168" />
    <path
       style="stroke:none; fill-rule:evenodd; fill:#000000"
       d="M 120.034 203.2L 125.698 205.224L 126.023 204.317L 123.081 203.271C 122.273 202.981 121.816 202.587 121.656 202.044C 121.554 201.692 121.585 201.399 121.792 200.767L 120.874 200.439C 120.8 200.579 120.765 200.653 120.722 200.771C 120.515 201.353 120.702 201.919 121.359 202.739L 120.335 202.376L 120.034 203.2z"
       id="path170" />
    <path
       style="stroke:none; fill-rule:evenodd; fill:#000000"
       d="M 88.6943 247.044C 88.6591 246.439 88.538 246.044 88.3115 245.696C 87.9091 245.126 87.1904 244.782 86.3505 244.774C 84.7373 244.755 83.663 246.032 83.6396 248.048C 83.6162 250.001 84.6279 251.251 86.2568 251.271C 87.6865 251.286 88.6045 250.442 88.7373 248.974L 87.7763 248.962C 87.6045 249.911 87.1084 250.38 86.2919 250.368C 85.2412 250.357 84.6201 249.485 84.6396 248.056C 84.6552 246.548 85.288 245.657 86.331 245.669C 87.1318 245.677 87.6279 246.169 87.7334 247.028L 88.6943 247.044z"
       id="path172" />
    <path
       style="stroke:none; fill-rule:evenodd; fill:#000000"
       d="M 90.8349 245.075L 89.8349 245.064L 89.7607 251.064L 90.7607 251.075L 90.8349 245.075zM 90.8623 242.677L 89.8623 242.665L 89.8466 243.915L 90.8466 243.927L 90.8623 242.677z"
       id="path174" />
    <path
       style="stroke:none; fill-rule:evenodd; fill:#000000"
       d="M 92.3896 245.107L 92.3154 251.064L 93.3154 251.075L 93.3545 247.771C 93.3701 246.548 94.0029 245.755 94.9638 245.767C 95.6982 245.774 96.163 246.239 96.1513 246.958L 96.1005 251.107L 97.1005 251.118L 97.1552 246.614C 97.1669 245.626 96.4443 244.978 95.3037 244.966C 94.4248 244.958 93.8545 245.286 93.3232 246.11L 93.3349 245.11L 92.3896 245.107z"
       id="path176" />
    <path
       style="stroke:none; fill-rule:evenodd; fill:#000000"
       d="M 102.741 245.165L 102.73 246.083C 102.261 245.333 101.683 244.978 100.921 244.97C 99.4057 244.954 98.3662 246.278 98.3388 248.243C 98.3271 249.235 98.5771 250.048 99.0617 250.634C 99.4987 251.146 100.14 251.454 100.769 251.462C 101.523 251.47 102.054 251.157 102.605 250.407L 102.601 250.712C 102.593 251.513 102.484 251.997 102.234 252.321C 101.976 252.669 101.476 252.864 100.89 252.857C 100.452 252.853 100.062 252.739 99.7997 252.536C 99.5847 252.368 99.4947 252.212 99.4407 251.868L 98.4599 251.857C 98.5459 252.966 99.4247 253.642 100.843 253.657C 101.738 253.669 102.515 253.392 102.913 252.915C 103.378 252.372 103.562 251.614 103.581 250.2L 103.644 245.169L 102.741 245.165zM 101.027 245.872C 102.054 245.884 102.652 246.767 102.632 248.278C 102.616 249.716 101.988 250.583 100.98 250.571C 99.9407 250.56 99.3197 249.665 99.3387 248.204C 99.3547 246.755 100.007 245.864 101.027 245.876L 101.027 245.872z"
       id="path178" />
    <path
       style="stroke:none; fill-rule:evenodd; fill:#000000"
       d="M 109.898 251.341L 109.972 245.278L 108.972 245.267L 108.929 248.731C 108.913 249.978 108.277 250.786 107.304 250.774C 106.566 250.767 106.105 250.294 106.113 249.56L 106.167 245.235L 105.167 245.224L 105.109 249.896C 105.097 250.899 105.835 251.556 107.011 251.571C 107.898 251.579 108.464 251.278 109.042 250.489L 109.034 251.333L 109.898 251.341z"
       id="path180" />
    <path
       style="stroke:none; fill-rule:evenodd; fill:#000000"
       d="M 112.589 242.876L 111.589 242.864L 111.484 251.263L 112.484 251.274L 112.589 242.876z"
       id="path182" />
    <path
       style="stroke:none; fill-rule:evenodd; fill:#000000"
       d="M 119.386 250.888C 119.292 250.88 119.249 250.88 119.195 250.88C 118.886 250.876 118.718 250.704 118.722 250.411L 118.765 246.927C 118.777 245.876 117.999 245.298 116.499 245.278C 115.62 245.271 114.886 245.501 114.472 245.935C 114.191 246.231 114.074 246.567 114.042 247.146L 115.007 247.157C 115.093 246.47 115.534 246.165 116.433 246.177C 117.292 246.185 117.773 246.513 117.765 247.079L 117.765 247.329C 117.761 247.724 117.519 247.892 116.757 247.974C 115.402 248.126 115.195 248.169 114.824 248.31C 114.12 248.583 113.757 249.11 113.749 249.884C 113.738 250.962 114.484 251.653 115.698 251.665C 116.456 251.673 117.066 251.419 117.753 250.806C 117.812 251.392 118.109 251.657 118.73 251.665C 118.921 251.665 119.074 251.649 119.386 251.575L 119.386 250.888zM 117.726 249.552C 117.722 249.876 117.628 250.075 117.339 250.337C 116.945 250.692 116.472 250.872 115.909 250.864C 115.163 250.857 114.734 250.489 114.741 249.868C 114.749 249.228 115.179 248.907 116.202 248.767C 117.214 248.642 117.421 248.599 117.745 248.45L 117.726 249.552z"
       id="path184" />
    <path
       style="stroke:none; fill-rule:evenodd; fill:#000000"
       d="M 122.636 245.478L 121.628 245.466L 121.648 243.829L 120.648 243.817L 120.628 245.454L 119.839 245.446L 119.831 246.243L 120.62 246.251L 120.566 250.798C 120.558 251.403 120.98 251.755 121.753 251.767C 121.988 251.767 122.226 251.751 122.562 251.696L 122.57 250.884C 122.441 250.95 122.288 250.974 122.101 250.97C 121.679 250.966 121.566 250.849 121.57 250.419L 121.62 246.263L 122.628 246.274L 122.636 245.478z"
       id="path186" />
    <path
       style="stroke:none; fill-rule:evenodd; fill:#000000"
       d="M 128.734 248.872C 128.745 247.966 128.683 247.419 128.519 246.974C 128.144 245.993 127.241 245.392 126.12 245.376C 124.456 245.357 123.366 246.614 123.343 248.575C 123.32 250.532 124.343 251.751 126.031 251.774C 127.406 251.79 128.366 251.028 128.624 249.724L 127.663 249.712C 127.39 250.485 126.847 250.884 126.077 250.872C 125.472 250.864 124.96 250.587 124.644 250.087C 124.421 249.747 124.343 249.407 124.339 248.817L 128.734 248.872zM 124.359 248.021C 124.452 246.911 125.14 246.196 126.101 246.208C 127.038 246.22 127.753 247.009 127.741 247.993C 127.741 248.013 127.741 248.036 127.73 248.06L 124.359 248.021z"
       id="path188" />
    <path
       style="stroke:none; fill-rule:evenodd; fill:#000000"
       d="M 30.8505 288.196L 25.9873 283.974L 25.6201 284.985L 29.624 288.247L 24.4912 288.091L 24.124 289.103L 30.499 289.173L 30.8505 288.196z"
       id="path190" />
    <path
       style="stroke:none; fill-rule:evenodd; fill:#000000"
       d="M 31.2216 279.415C 30.3623 279.103 29.8193 278.978 29.3388 278.989C 28.2802 279.017 27.4052 279.677 27.0185 280.731C 26.4482 282.306 27.2841 283.759 29.1396 284.435C 30.9951 285.107 32.4951 284.54 33.0732 282.958C 33.5419 281.665 33.1357 280.505 31.9912 279.829L 31.663 280.735C 32.3154 281.251 32.5185 281.903 32.2568 282.626C 32.0498 283.196 31.6162 283.587 31.0302 283.716C 30.6318 283.814 30.2763 283.771 29.7138 283.579L 31.2216 279.415zM 28.9795 283.294C 27.9638 282.841 27.5146 281.954 27.8427 281.048C 28.163 280.165 29.1435 279.751 30.0732 280.087C 30.0927 280.095 30.1162 280.103 30.1318 280.118L 28.9795 283.294z"
       id="path192" />
    <path
       style="stroke:none; fill-rule:evenodd; fill:#000000"
       d="M 28.5537 277.06L 34.206 279.114L 34.5341 278.208L 31.4169 277.075C 30.2646 276.657 29.7295 275.778 30.0654 274.849C 30.3232 274.138 30.9169 273.841 31.6005 274.091L 35.5185 275.513L 35.8427 274.618L 31.5693 273.067C 30.6318 272.728 29.7724 273.208 29.3779 274.294C 29.0732 275.134 29.2021 275.79 29.8037 276.575L 28.8545 276.231L 28.5537 277.06z"
       id="path194" />
    <path
       style="stroke:none; fill-rule:evenodd; fill:#000000"
       d="M 31.4755 269.071L 31.1396 269.997L 29.5888 269.435L 29.2646 270.329L 30.8154 270.892L 30.538 271.657L 31.2685 271.923L 31.5459 271.157L 35.8193 272.708C 36.3896 272.915 36.8545 272.646 37.1084 271.946C 37.1865 271.731 37.2412 271.509 37.2959 271.189L 36.5419 270.915C 36.5341 271.044 36.4912 271.189 36.4287 271.36C 36.288 271.747 36.1435 271.814 35.7412 271.669L 31.8662 270.263L 32.2021 269.337L 31.4755 269.071z"
       id="path196" />
    <path
       style="stroke:none; fill-rule:evenodd; fill:#000000"
       d="M 31.8505 268.071L 37.5029 270.126L 37.831 269.22L 34.8974 268.153C 34.0888 267.86 33.6357 267.462 33.4795 266.919C 33.3779 266.567 33.413 266.274 33.624 265.642L 32.706 265.31C 32.6318 265.45 32.5927 265.524 32.5498 265.642C 32.3388 266.224 32.5224 266.79 33.1748 267.614L 32.1513 267.243L 31.8505 268.071z"
       id="path198" />
    <path
       style="stroke:none; fill-rule:evenodd; fill:#000000"
       d="M 33.7841 262.22C 33.2099 263.806 33.9873 265.177 35.8896 265.868C 37.788 266.556 39.2646 266.021 39.8505 264.415C 40.4248 262.829 39.6513 261.446 37.7919 260.771C 35.8388 260.06 34.3779 260.591 33.7841 262.22zM 34.6201 262.513C 34.9873 261.501 36.038 261.196 37.4404 261.708C 38.7646 262.189 39.3818 263.122 39.0185 264.114C 38.6552 265.118 37.6005 265.431 36.2295 264.931C 34.8701 264.439 34.2529 263.517 34.6201 262.513z"
       id="path200" />
    <path
       style="stroke:none; fill-rule:evenodd; fill:#000000"
       d="M 35.2529 258.458L 40.9052 260.513L 41.2334 259.607L 37.6826 258.317C 36.8662 258.021 36.4209 257.189 36.6904 256.454C 36.9326 255.786 37.4795 255.56 38.2021 255.821L 42.0966 257.235L 42.4248 256.329L 38.8779 255.04C 38.0615 254.743 37.6162 253.911 37.8857 253.177C 38.124 252.521 38.6865 252.286 39.3974 252.544L 43.2919 253.958L 43.6201 253.052L 39.3818 251.513C 38.3701 251.146 37.5966 251.521 37.2099 252.579C 36.9365 253.333 36.999 253.868 37.4404 254.63C 36.7177 254.743 36.2919 255.103 36.0263 255.837C 35.7529 256.591 35.8545 257.189 36.3545 257.923L 35.5576 257.634L 35.2529 258.458z"
       id="path202" />
    <path
       style="stroke:none; fill-rule:evenodd; fill:#000000"
       d="M 43.4209 245.817C 42.5615 245.505 42.0185 245.38 41.538 245.392C 40.4795 245.419 39.6045 246.079 39.2177 247.134C 38.6474 248.708 39.4834 250.161 41.3388 250.837C 43.1943 251.509 44.6943 250.942 45.2724 249.36C 45.7412 248.067 45.3349 246.907 44.1904 246.231L 43.8623 247.138C 44.5146 247.653 44.7177 248.306 44.456 249.028C 44.249 249.599 43.8154 249.989 43.2295 250.118C 42.831 250.216 42.4755 250.173 41.913 249.981L 43.4209 245.817zM 41.1826 249.692C 40.1669 249.239 39.7177 248.353 40.0459 247.446C 40.3662 246.564 41.3466 246.149 42.2763 246.485C 42.2959 246.493 42.3193 246.501 42.3349 246.517L 41.1826 249.692z"
       id="path204" />
    <path
       style="stroke:none; fill-rule:evenodd; fill:#000000"
       d="M 40.2099 238.067L 39.8857 238.962L 42.8076 240.024C 42.1005 240.192 41.5771 240.685 41.3037 241.442C 40.7724 242.907 41.5966 244.298 43.3974 244.95C 45.3037 245.642 46.8232 245.134 47.3779 243.614C 47.6591 242.841 47.5654 242.192 47.0419 241.454L 47.7841 241.724L 48.0732 240.927L 40.2099 238.067zM 42.1982 241.603C 42.5498 240.634 43.6357 240.333 44.9834 240.821C 46.288 241.294 46.9248 242.235 46.5771 243.185C 46.2177 244.177 45.1045 244.517 43.788 244.036C 42.4716 243.56 41.8388 242.583 42.1943 241.603L 42.1982 241.603z"
       id="path206" />
    <path
       style="stroke:none; fill-rule:evenodd; fill:#000000"
       d="M 43.2685 236.595L 42.9443 237.489L 48.5966 239.544L 48.9209 238.649L 43.2685 236.595zM 41.0537 235.79L 40.7255 236.696L 41.8584 237.107L 42.1865 236.204L 41.0537 235.79z"
       id="path208" />
    <path
       style="stroke:none; fill-rule:evenodd; fill:#000000"
       d="M 50.706 231.903C 50.6943 232.005 50.6787 232.048 50.6591 232.103C 50.5459 232.415 50.3232 232.528 50.0419 232.427L 46.7216 231.22C 45.7177 230.857 44.913 231.392 44.4091 232.782C 44.1123 233.599 44.1045 234.368 44.3857 234.896C 44.581 235.259 44.8662 235.485 45.4169 235.708L 45.7451 234.802C 45.0849 234.478 44.9209 233.954 45.2255 233.11C 45.5185 232.302 45.9834 231.958 46.5263 232.157L 46.7607 232.243C 47.1357 232.38 47.2138 232.665 47.0419 233.407C 46.7412 234.735 46.7138 234.946 46.7295 235.345C 46.7568 236.099 47.1435 236.618 47.8779 236.884C 48.9013 237.255 49.8076 236.782 50.2255 235.638C 50.4834 234.927 50.4443 234.263 50.0966 233.415C 50.6904 233.556 51.0498 233.372 51.2646 232.79C 51.3271 232.607 51.3584 232.462 51.3896 232.142L 50.706 231.903zM 48.8779 233.024C 49.1787 233.134 49.331 233.286 49.4795 233.646C 49.6787 234.134 49.6904 234.638 49.499 235.165C 49.2451 235.864 48.7607 236.153 48.1904 235.946C 47.5966 235.731 47.4404 235.224 47.6513 234.212C 47.8662 233.216 47.8935 233.009 47.8623 232.653L 48.8779 233.024z"
       id="path210" />
    <path
       style="stroke:none; fill-rule:evenodd; fill:#000000"
       d="M 44.0615 227.368L 43.7334 228.271L 51.6005 231.13L 51.9287 230.224L 44.0615 227.368z"
       id="path212" />
    <path
       style="stroke:none; fill-rule:evenodd; fill:#000000"
       d="M 29.2959 299.286L 30.0302 299.904L 32.0459 297.505C 32.0341 298.302 32.2841 298.876 32.8818 299.38C 34.0654 300.376 35.6552 300.075 36.8896 298.611C 38.1904 297.064 38.2451 295.462 37.0224 294.435C 36.4013 293.911 35.663 293.771 34.8623 294.029L 35.4443 293.337L 34.7685 292.771L 29.2959 299.286zM 36.3388 295.017C 37.1474 295.696 37.0732 296.849 36.1552 297.95C 35.2763 298.993 34.1435 299.255 33.3427 298.583C 32.5732 297.935 32.6513 296.802 33.5576 295.724C 34.4638 294.646 35.5654 294.372 36.3388 295.021L 36.3388 295.017z"
       id="path214" />
    <path
       style="stroke:none; fill-rule:evenodd; fill:#000000"
       d="M 39.7138 296.974L 35.8427 301.579L 36.5771 302.196L 38.5849 299.806C 39.1357 299.15 39.6669 298.857 40.2334 298.9C 40.6005 298.923 40.8662 299.056 41.3818 299.474L 42.0068 298.728C 41.9013 298.611 41.8466 298.548 41.749 298.466C 41.2763 298.068 40.6787 298.048 39.6826 298.376L 40.3818 297.544L 39.7138 296.974z"
       id="path216" />
    <path
       style="stroke:none; fill-rule:evenodd; fill:#000000"
       d="M 44.4716 305.306C 45.0615 304.607 45.3623 304.138 45.5185 303.685C 45.8545 302.681 45.5341 301.63 44.6787 300.907C 43.3974 299.829 41.7451 300.122 40.4716 301.626C 39.2021 303.138 39.2177 304.739 40.5068 305.825C 41.5615 306.712 42.7919 306.724 43.8193 305.88L 43.0849 305.263C 42.374 305.696 41.6943 305.665 41.1084 305.177C 40.6435 304.786 40.4248 304.243 40.5068 303.65C 40.5498 303.239 40.7099 302.923 41.0849 302.462L 44.4716 305.306zM 41.6005 301.868C 42.3779 301.068 43.3623 300.95 44.1005 301.571C 44.8193 302.177 44.8701 303.239 44.2334 303.993C 44.2216 304.009 44.206 304.025 44.1826 304.036L 41.6005 301.868z"
       id="path218" />
    <path
       style="stroke:none; fill-rule:evenodd; fill:#000000"
       d="M 49.2763 304.974L 48.5146 304.333L 49.1201 303.614C 49.3779 303.31 49.6865 303.298 50.0185 303.579C 50.0771 303.63 50.1045 303.65 50.2646 303.802L 50.7724 303.196C 50.6357 303.021 50.5459 302.931 50.3974 302.806C 49.7216 302.239 48.9951 302.286 48.4365 302.943L 47.7802 303.724L 47.1669 303.208L 46.6669 303.806L 47.2802 304.321L 43.913 308.329L 44.6396 308.939L 48.0068 304.931L 48.7685 305.571L 49.2763 304.974z"
       id="path220" />
    <path
       style="stroke:none; fill-rule:evenodd; fill:#000000"
       d="M 50.0146 305.575L 46.1435 310.181L 46.8779 310.798L 48.8857 308.407C 49.4365 307.751 49.9677 307.458 50.5341 307.501C 50.9013 307.525 51.1669 307.657 51.6826 308.075L 52.3076 307.329C 52.2021 307.212 52.1474 307.15 52.0498 307.068C 51.5771 306.669 50.9795 306.65 49.9834 306.978L 50.6826 306.146L 50.0146 305.575z"
       id="path222" />
    <path
       style="stroke:none; fill-rule:evenodd; fill:#000000"
       d="M 54.8076 309.443C 53.5185 308.357 51.9599 308.622 50.6591 310.165C 49.3584 311.712 49.3584 313.282 50.663 314.384C 51.9521 315.47 53.5185 315.212 54.7919 313.704C 56.1279 312.114 56.1318 310.56 54.8037 309.443L 54.8076 309.443zM 54.249 310.126C 55.0732 310.818 54.9951 311.911 54.038 313.052C 53.1318 314.13 52.0459 314.388 51.2373 313.708C 50.4209 313.025 50.4912 311.927 51.4248 310.81C 52.3545 309.704 53.4326 309.443 54.249 310.126z"
       id="path224" />
    <path
       style="stroke:none; fill-rule:evenodd; fill:#000000"
       d="M 57.8232 312.185L 53.9521 316.786L 54.6865 317.404L 56.8193 314.864C 57.6084 313.927 58.6162 313.724 59.374 314.361C 59.9521 314.845 60.0263 315.509 59.5615 316.064L 56.8818 319.251L 57.6084 319.864L 60.5341 316.384C 61.1748 315.622 61.0185 314.65 60.1357 313.904C 59.4521 313.329 58.7919 313.224 57.8466 313.525L 58.4951 312.755L 57.8232 312.185z"
       id="path226" />
    <path
       style="stroke:none; fill-rule:evenodd; fill:#000000"
       d="M 64.3388 317.642L 63.5849 317.009L 64.6474 315.743L 63.9209 315.13L 62.8584 316.396L 62.2373 315.872L 61.7373 316.47L 62.3584 316.993L 59.4326 320.47C 59.0419 320.935 59.1357 321.462 59.706 321.943C 59.8818 322.087 60.0693 322.22 60.3545 322.38L 60.8701 321.767C 60.7529 321.712 60.6318 321.626 60.4912 321.509C 60.1787 321.243 60.163 321.083 60.4365 320.759L 63.0888 317.607L 63.8427 318.239L 64.3388 317.642z"
       id="path228" />
    <path
       style="stroke:none; fill-rule:evenodd; fill:#000000"
       d="M 65.6982 325.993C 65.6045 325.946 65.5693 325.915 65.5263 325.88C 65.2724 325.669 65.2451 325.419 65.4365 325.189L 67.7099 322.486C 68.3974 321.669 68.1669 320.728 67.038 319.775C 66.3701 319.216 65.6552 318.943 65.0615 319.025C 64.6513 319.083 64.3427 319.275 63.9404 319.716L 64.6748 320.333C 65.206 319.825 65.7568 319.849 66.4404 320.423C 67.0966 320.974 67.2607 321.532 66.8896 321.97L 66.7295 322.161C 66.4716 322.466 66.1787 322.443 65.538 322.029C 64.3935 321.29 64.2021 321.193 63.8271 321.068C 63.1084 320.837 62.4873 321.021 61.9873 321.618C 61.288 322.45 61.4248 323.466 62.3505 324.251C 62.9287 324.736 63.5654 324.927 64.4834 324.888C 64.1474 325.396 64.1982 325.798 64.6669 326.196C 64.8154 326.321 64.9443 326.4 65.2334 326.536L 65.6982 325.993zM 65.2724 323.896C 65.0693 324.138 64.8701 324.232 64.4795 324.247C 63.9521 324.267 63.4755 324.107 63.0459 323.747C 62.4755 323.271 62.3701 322.716 62.7646 322.247C 63.1709 321.767 63.7021 321.794 64.581 322.333C 65.4404 322.876 65.6279 322.974 65.9716 323.068L 65.2724 323.896z"
       id="path230" />
    <path
       style="stroke:none; fill-rule:evenodd; fill:#000000"
       d="M 72.2568 321.286L 71.5224 320.669L 66.1357 327.075L 66.8701 327.693L 72.2568 321.286z"
       id="path232" />
  </g>
</svg>
