<?xml version="1.0" encoding="ISO-8859-1" standalone="yes"?>
<svg width="225.857" height="206.247">
  <defs> 
    <marker id="ArrowEnd" viewBox="0 0 10 10" refX="0" refY="5" 
     markerUnits="strokeWidth" 
     markerWidth="4" 
     markerHeight="3" 
     orient="auto"> 
        <path d="M 0 0 L 10 5 L 0 10 z" /> 
    </marker>
    <marker id="ArrowStart" viewBox="0 0 10 10" refX="10" refY="5" 
     markerUnits="strokeWidth" 
     markerWidth="4" 
     markerHeight="3" 
     orient="auto"> 
        <path d="M 10 0 L 0 5 L 10 10 z" /> 
    </marker> </defs>
<g>
<path style="stroke:none; fill-rule:evenodd; fill:#ffffff" d="M 0.524086 205.723L 225.333 205.723L 225.333 0.524078L 0.524086 0.524078L 0.524086 205.723z"/>
<path style="stroke:#ffffff; stroke-width:0.10000000000000001; fill:none" d="M 0.524086 205.723L 225.333 205.723L 225.333 0.524078L 0.524086 0.524078L 0.524086 205.723z"/>
<path style="stroke:#0000ff; stroke-width:0.95664899999999997; fill:none" d="M 36.3991 23.4341L 72.7511 23.4341"/>
<path style="stroke:#0000ff; stroke-width:0.95664899999999997; fill:none" d="M 65.0981 21.5201L 72.7511 23.4301L 65.0981 25.3401"/>
<path style="stroke:#ff0000; stroke-dasharray:6,3; stroke-width:1.9133; fill:none" d="M 61.2701 80.8321L 89.0121 66.7231"/>
<path style="stroke:#ff0000; stroke-dasharray:6,3; stroke-width:1.9133; fill:none" d="M 81.3251 68.4851L 89.0121 66.7231L 83.0591 71.8951"/>
<path style="stroke:#ff0000; stroke-dasharray:6,3; stroke-width:1.9133; fill:none" d="M 72.7511 80.8321L 94.7511 66.4851"/>
<path style="stroke:#ff0000; stroke-dasharray:6,3; stroke-width:1.9133; fill:none" d="M 87.2971 69.0591L 94.7511 66.4851L 89.3871 72.2661"/>
<path style="stroke:#ff0000; stroke-dasharray:6,3; stroke-width:1.9133; fill:none" d="M 82.3211 80.8321L 100.255 66.4851"/>
<path style="stroke:#ff0000; stroke-dasharray:6,3; stroke-width:1.9133; fill:none" d="M 93.0871 69.7701L 100.255 66.4851L 95.4771 72.7581"/>
<path style="stroke:#ff0000; stroke-dasharray:6,3; stroke-width:1.9133; fill:none" d="M 88.0591 62.4181L 88.0591 50.2231"/>
<path style="stroke:#ff0000; stroke-dasharray:6,3; stroke-width:1.9133; fill:none" d="M 86.1451 57.8721L 88.0551 50.2191L 89.9651 57.8721"/>
<path style="stroke:#ff0000; stroke-dasharray:6,3; stroke-width:1.9133; fill:none" d="M 99.5401 62.6571L 99.5401 50.2231"/>
<path style="stroke:#ff0000; stroke-dasharray:6,3; stroke-width:1.9133; fill:none" d="M 97.6261 57.8721L 99.5361 50.2191L 101.446 57.8721"/>
<path style="stroke:#ff0000; stroke-dasharray:6,3; stroke-width:1.9133; fill:none" d="M 93.7971 62.4181L 93.7971 50.2231"/>
<path style="stroke:#ff0000; stroke-dasharray:6,3; stroke-width:1.9133; fill:none" d="M 91.8831 57.8721L 93.7941 50.2191L 95.7041 57.8721"/>
<path style="stroke:#0000ff; stroke-width:0.95664899999999997; fill:none" d="M 99.7781 47.1101L 101.45 33.0001"/>
<path style="stroke:#0000ff; stroke-width:0.95664899999999997; fill:none" d="M 102.579 39.7351L 99.7781 47.1061L 98.7821 39.2821"/>
<path style="stroke:#0000ff; stroke-width:0.95664899999999997; fill:none" d="M 98.6491 40.3751L 101.45 33.0041L 102.446 40.8291"/>
<path style="stroke:#0000ff; stroke-width:0.95664899999999997; fill:none" d="M 94.2781 47.1101L 89.9731 33.0001"/>
<path style="stroke:#0000ff; stroke-width:0.95664899999999997; fill:none" d="M 93.8721 39.2311L 94.2741 47.1061L 90.2121 40.3441"/>
<path style="stroke:#0000ff; stroke-width:0.95664899999999997; fill:none" d="M 90.3761 40.8791L 89.9731 33.0041L 94.0361 39.7661"/>
<path style="stroke:#0000ff; stroke-width:0.95664899999999997; fill:none" d="M 88.7781 47.5901L 78.4971 33.0041"/>
<path style="stroke:#0000ff; stroke-width:0.95664899999999997; fill:none" d="M 85.9301 40.2311L 88.7741 47.5861L 82.8011 42.4341"/>
<path style="stroke:#0000ff; stroke-width:0.95664899999999997; fill:none" d="M 81.3371 40.3561L 78.4931 33.0001L 84.4651 38.1531"/>
<path style="stroke:none; fill-rule:evenodd; fill:#7e7e7e" d="M 72.7511 33.0001L 84.2271 33.0001L 84.2271 15.7821L 72.7511 15.7821L 72.7511 33.0001z"/>
<path style="stroke:#000000; stroke-width:1.9133; fill:none" d="M 72.7511 33.0001L 84.2271 33.0001L 84.2271 15.7821L 72.7511 15.7821L 72.7511 33.0001z"/>
<path style="stroke:none; fill-rule:evenodd; fill:#7e7e7e" d="M 84.2311 33.0001L 95.7081 33.0001L 95.7081 15.7821L 84.2311 15.7821L 84.2311 33.0001z"/>
<path style="stroke:#000000; stroke-width:1.9133; fill:none" d="M 84.2311 33.0001L 95.7081 33.0001L 95.7081 15.7821L 84.2311 15.7821L 84.2311 33.0001z"/>
<path style="stroke:none; fill-rule:evenodd; fill:#ffff00" d="M 95.7121 33.0001L 107.188 33.0001L 107.188 15.7821L 95.7121 15.7821L 95.7121 33.0001z"/>
<path style="stroke:#000000; stroke-width:1.9133; fill:none" d="M 95.7121 33.0001L 107.188 33.0001L 107.188 15.7821L 95.7121 15.7821L 95.7121 33.0001z"/>
<path style="stroke:none; fill-rule:evenodd; fill:#ffff00" d="M 15.3521 33.0001L 36.3951 33.0001L 36.3951 15.7821L 15.3521 15.7821L 15.3521 33.0001z"/>
<path style="stroke:#000000; stroke-width:1.9133; fill:none" d="M 15.3521 33.0001L 36.3951 33.0001L 36.3951 15.7821L 15.3521 15.7821L 15.3521 33.0001z"/>
<path style="stroke:none; fill-rule:evenodd; fill:#7e7e7e" d="M 53.6181 98.0511L 65.0941 98.0511L 65.0941 80.8321L 53.6181 80.8321L 53.6181 98.0511z"/>
<path style="stroke:#000000; stroke-width:1.9133; fill:none" d="M 53.6181 98.0511L 65.0941 98.0511L 65.0941 80.8321L 53.6181 80.8321L 53.6181 98.0511z"/>
<path style="stroke:none; fill-rule:evenodd; fill:#7e7e7e" d="M 65.0981 98.0511L 76.5751 98.0511L 76.5751 80.8321L 65.0981 80.8321L 65.0981 98.0511z"/>
<path style="stroke:#000000; stroke-width:1.9133; fill:none" d="M 65.0981 98.0511L 76.5751 98.0511L 76.5751 80.8321L 65.0981 80.8321L 65.0981 98.0511z"/>
<path style="stroke:none; fill-rule:evenodd; fill:#ffff00" d="M 76.5791 98.0511L 88.0551 98.0511L 88.0551 80.8321L 76.5791 80.8321L 76.5791 98.0511z"/>
<path style="stroke:#000000; stroke-width:1.9133; fill:none" d="M 76.5791 98.0511L 88.0551 98.0511L 88.0551 80.8321L 76.5791 80.8321L 76.5791 98.0511z"/>
<path style="stroke:none; fill-rule:evenodd; fill:#7e7e7e" d="M 85.6651 51.4141L 91.4031 51.4141L 91.4031 47.1101L 85.6651 47.1101L 85.6651 51.4141z"/>
<path style="stroke:#000000; stroke-width:1.9133; fill:none" d="M 85.6651 51.4141L 91.4031 51.4141L 91.4031 47.1101L 85.6651 47.1101L 85.6651 51.4141z"/>
<path style="stroke:none; fill-rule:evenodd; fill:#7e7e7e" d="M 91.4071 51.4141L 97.1451 51.4141L 97.1451 47.1101L 91.4071 47.1101L 91.4071 51.4141z"/>
<path style="stroke:#000000; stroke-width:1.9133; fill:none" d="M 91.4071 51.4141L 97.1451 51.4141L 97.1451 47.1101L 91.4071 47.1101L 91.4071 51.4141z"/>
<path style="stroke:none; fill-rule:evenodd; fill:#ffff00" d="M 97.1451 51.4141L 102.883 51.4141L 102.883 47.1101L 97.1451 47.1101L 97.1451 51.4141z"/>
<path style="stroke:#000000; stroke-width:1.9133; fill:none" d="M 97.1451 51.4141L 102.883 51.4141L 102.883 47.1101L 97.1451 47.1101L 97.1451 51.4141z"/>
<path style="stroke:none; fill-rule:evenodd; fill:#ffff00" d="M 85.6651 66.7231L 91.4031 66.7231L 91.4031 62.4181L 85.6651 62.4181L 85.6651 66.7231z"/>
<path style="stroke:#000000; stroke-width:1.9133; fill:none" d="M 85.6651 66.7231L 91.4031 66.7231L 91.4031 62.4181L 85.6651 62.4181L 85.6651 66.7231z"/>
<path style="stroke:none; fill-rule:evenodd; fill:#ffff00" d="M 91.4071 66.7231L 97.1451 66.7231L 97.1451 62.4181L 91.4071 62.4181L 91.4071 66.7231z"/>
<path style="stroke:#000000; stroke-width:1.9133; fill:none" d="M 91.4071 66.7231L 97.1451 66.7231L 97.1451 62.4181L 91.4071 62.4181L 91.4071 66.7231z"/>
<path style="stroke:none; fill-rule:evenodd; fill:#7e7e7e" d="M 97.1451 66.7231L 102.883 66.7231L 102.883 62.4181L 97.1451 62.4181L 97.1451 66.7231z"/>
<path style="stroke:#000000; stroke-width:1.9133; fill:none" d="M 97.1451 66.7231L 102.883 66.7231L 102.883 62.4181L 97.1451 62.4181L 97.1451 66.7231z"/>
<path style="stroke:none; fill-rule:evenodd; fill:#0000ff" d="M 51.6101 82.5041L 50.9891 82.5041C 50.0551 82.5041 49.5161 83.1451 49.5161 84.2581L 49.5161 86.4931C 49.5161 87.7351 49.2621 88.1761 48.4731 88.3401L 48.4731 89.2621C 49.2621 89.4221 49.5161 89.8751 49.5161 91.1101L 49.5161 93.3441C 49.5161 94.4541 50.0551 95.0981 50.9891 95.0981L 51.6101 95.0981L 51.6101 94.2001L 51.3991 94.2001C 50.7121 94.2001 50.5161 94.0001 50.5161 93.3091L 50.5161 90.9031C 50.5161 89.8011 50.1881 89.1491 49.4731 88.8011C 50.2511 88.4851 50.5161 87.9381 50.5161 86.7111L 50.5161 84.3051C 50.5161 83.6141 50.7121 83.4141 51.3991 83.4141L 51.6101 83.4141L 51.6101 82.5041z"/>
<path style="stroke:#0000ff; stroke-width:0.95664899999999997; fill:none" d="M 49.7941 88.4851L 45.9691 88.4851"/>
<path style="stroke:#0000ff; stroke-width:0.95664899999999997; fill:none" d="M 45.9651 88.4851L 45.9651 78.9221"/>
<path style="stroke:#0000ff; stroke-width:0.95664899999999997; fill:none" d="M 72.7511 33.0001L 45.9651 78.9181"/>
<path style="stroke:#0000ff; stroke-width:0.95664899999999997; fill:none" d="M 51.4731 73.2741L 45.9651 78.9181L 48.1691 71.3481"/>
<path style="stroke:#0000ff; stroke-width:0.95664899999999997; fill:none" d="M 26.8331 33.0001L 45.9651 78.9181"/>
<path style="stroke:#0000ff; stroke-width:0.95664899999999997; fill:none" d="M 44.7901 71.1181L 45.9651 78.9141L 41.2581 72.5861"/>
<path style="stroke:none; fill-rule:evenodd; fill:#000000" d="M 26.0161 22.0361L 26.0161 27.8011L 27.0161 27.8011L 27.0161 19.7041L 26.3481 19.7041C 25.9931 20.9461 25.7621 21.1181 24.1921 21.3131L 24.1921 22.0321L 26.0161 22.0361z"/>
<path style="stroke:none; fill-rule:evenodd; fill:#000000" d="M 101.614 22.0361L 101.614 27.8011L 102.614 27.8011L 102.614 19.7041L 101.946 19.7041C 101.59 20.9461 101.36 21.1181 99.7901 21.3131L 99.7901 22.0321L 101.614 22.0361z"/>
<path style="stroke:none; fill-rule:evenodd; fill:#000000" d="M 9.15708 11.5401C 9.05109 11.5981 9.00509 11.5981 8.94608 11.5981C 8.60609 11.5981 8.41908 11.4261 8.41908 11.1251L 8.41908 7.55908C 8.41908 6.48508 7.64108 5.90308 6.16908 5.90308C 5.30109 5.90308 4.58308 6.15707 4.18008 6.60608C 3.90708 6.91409 3.79408 7.26208 3.77009 7.86407L 4.71509 7.86407C 4.79408 7.13309 5.21909 6.80109 6.10209 6.80109C 6.94608 6.80109 7.41908 7.12207 7.41908 7.70007L 7.41908 7.95407C 7.41908 8.35608 7.18408 8.52808 6.44209 8.62207C 5.11809 8.79309 4.91508 8.84009 4.55508 8.98907C 3.87209 9.27408 3.52409 9.81708 3.52409 10.6021C 3.52409 11.6961 4.27808 12.3871 5.48908 12.3871C 6.24309 12.3871 6.84808 12.1141 7.52409 11.4691C 7.59009 12.1021 7.88708 12.3871 8.50509 12.3871C 8.69608 12.3871 8.84409 12.3641 9.15308 12.2821L 9.15708 11.5401zM 7.41508 10.2431C 7.41508 10.5711 7.32509 10.7741 7.04709 11.0471C 6.66908 11.4111 6.21208 11.6021 5.66508 11.6021C 4.94209 11.6021 4.51608 11.2391 4.51608 10.6101C 4.51608 9.96109 4.92609 9.62909 5.91908 9.47708C 6.89909 9.33609 7.09808 9.29007 7.41109 9.13708L 7.41508 10.2431z"/>
<path style="stroke:none; fill-rule:evenodd; fill:#000000" d="M 10.4731 14.5401C 11.6021 13.0321 12.3131 10.9381 12.3131 9.13309C 12.3131 7.31708 11.6021 5.22308 10.4731 3.71109L 9.85609 3.71109C 10.8601 5.36008 11.4191 7.29007 11.4191 9.13309C 11.4191 10.9611 10.8601 12.9071 9.85609 14.5401L 10.4731 14.5401z"/>
<path style="stroke:none; fill-rule:evenodd; fill:#000000" d="M 111.715 65.8601C 111.708 64.7501 110.946 64.1061 109.637 64.1061C 108.391 64.1061 107.622 64.7431 107.622 65.7661C 107.622 66.4541 107.977 66.8911 108.712 67.0861L 110.094 67.4571C 110.794 67.6411 111.118 67.9301 111.118 68.3721C 111.118 68.6721 110.962 68.9851 110.727 69.1531C 110.508 69.3051 110.165 69.3911 109.719 69.3911C 109.126 69.3911 108.715 69.2431 108.454 68.9071C 108.251 68.6531 108.161 68.3751 108.227 68.0161L 107.528 68.0161C 107.532 68.5361 107.629 68.8751 107.848 69.1841C 108.223 69.7071 108.852 69.9891 109.684 69.9891C 110.337 69.9891 110.868 69.8361 111.219 69.5591C 111.587 69.2581 111.817 68.7581 111.817 68.2701C 111.817 67.5791 111.391 67.0671 110.633 66.8601L 109.239 66.4811C 108.567 66.2971 108.325 66.0821 108.325 65.6491C 108.325 65.0791 108.833 64.7001 109.598 64.7001C 110.505 64.7001 111.012 65.1101 111.02 65.8521L 111.715 65.8601z"/>
<path style="stroke:none; fill-rule:evenodd; fill:#000000" d="M 117.215 64.2041L 116.516 64.2041L 116.516 68.7821L 113.594 64.2041L 112.821 64.2041L 112.821 69.8011L 113.52 69.8011L 113.52 65.2781L 116.411 69.8011L 117.215 69.8011L 117.215 64.2041z"/>
<path style="stroke:none; fill-rule:evenodd; fill:#000000" d="M 118.215 65.8211L 118.215 69.8051L 118.915 69.8051L 118.915 67.7581C 118.915 67.1961 119.055 66.8251 119.356 66.6061C 119.547 66.4651 119.735 66.4181 120.169 66.4111L 120.169 65.7351C 120.063 65.7191 120.008 65.7111 119.922 65.7111C 119.505 65.7111 119.188 65.9541 118.813 66.5471L 118.813 65.8291L 118.215 65.8211z"/>
<path style="stroke:none; fill-rule:evenodd; fill:#000000" d="M 94.9151 90.7581C 94.9071 89.6491 94.1451 89.0041 92.8371 89.0041C 91.5901 89.0041 90.8211 89.6411 90.8211 90.6641C 90.8211 91.3521 91.1761 91.7901 91.9111 91.9851L 93.2941 92.3561C 93.9931 92.5401 94.3171 92.8291 94.3171 93.2701C 94.3171 93.5711 94.1611 93.8831 93.9261 94.0511C 93.7081 94.2041 93.3641 94.2901 92.9191 94.2901C 92.3251 94.2901 91.9151 94.1411 91.6531 93.8051C 91.4501 93.5511 91.3601 93.2741 91.4261 92.9141L 90.7271 92.9141C 90.7311 93.4341 90.8291 93.7741 91.0471 94.0821C 91.4221 94.6061 92.0511 94.8871 92.8831 94.8871C 93.5361 94.8871 94.0671 94.7351 94.4191 94.4571C 94.7861 94.1571 95.0161 93.6571 95.0161 93.1681C 95.0161 92.4771 94.5901 91.9651 93.8331 91.7581L 92.4381 91.3791C 91.7661 91.1961 91.5241 90.9811 91.5241 90.5471C 91.5241 89.9771 92.0321 89.5981 92.7971 89.5981C 93.7041 89.5981 94.2121 90.0081 94.2191 90.7501L 94.9151 90.7581z"/>
<path style="stroke:none; fill-rule:evenodd; fill:#000000" d="M 97.3171 90.7041L 96.7191 90.7041L 96.7191 89.5901L 96.0201 89.5901L 96.0201 90.7041L 95.5201 90.7041L 95.5201 91.2041L 96.0201 91.2041L 96.0201 94.2621C 96.0201 94.6681 96.2941 94.9031 96.7941 94.9031C 96.9461 94.9031 97.0981 94.8871 97.3131 94.8481L 97.3131 94.2931C 97.2391 94.3011 97.1451 94.3051 97.0361 94.3051C 96.7861 94.3051 96.7151 94.2311 96.7151 93.9501L 96.7151 91.2111L 97.3131 91.2111L 97.3171 90.7041z"/>
<path style="stroke:none; fill-rule:evenodd; fill:#000000" d="M 98.1141 90.7191L 98.1141 94.7041L 98.8131 94.7041L 98.8131 92.6571C 98.8131 92.0941 98.9541 91.7231 99.2551 91.5041C 99.4461 91.3641 99.6331 91.3171 100.067 91.3091L 100.067 90.6331C 99.9621 90.6181 99.9071 90.6101 99.8211 90.6101C 99.4031 90.6101 99.0871 90.8521 98.7121 91.4461L 98.7121 90.7271L 98.1141 90.7191z"/>
<path style="stroke:none; fill-rule:evenodd; fill:#000000" d="M 101.317 90.7041L 100.618 90.7041L 100.618 94.7041L 101.317 94.7041L 101.317 90.7041zM 101.317 89.1021L 100.618 89.1021L 100.618 89.9221L 101.317 89.9221L 101.317 89.1021z"/>
<path style="stroke:none; fill-rule:evenodd; fill:#000000" d="M 105.911 94.3291C 105.84 94.4031 105.809 94.4031 105.77 94.4031C 105.544 94.4031 105.419 94.2901 105.419 94.0901L 105.419 91.7111C 105.419 90.9971 104.903 90.6101 103.919 90.6101C 103.34 90.6101 102.86 90.7741 102.594 91.0631C 102.415 91.2621 102.337 91.4891 102.321 91.8791L 102.942 91.8791C 102.993 91.4181 103.274 91.2071 103.852 91.2071C 104.407 91.2071 104.719 91.4181 104.719 91.8011L 104.719 91.9691C 104.719 92.2351 104.563 92.3481 104.071 92.4111C 103.188 92.5241 103.055 92.5551 102.813 92.6531C 102.36 92.8401 102.126 93.2001 102.126 93.7191C 102.126 94.4421 102.633 94.8991 103.446 94.8991C 103.954 94.8991 104.36 94.7191 104.813 94.2861C 104.856 94.7071 105.055 94.8991 105.473 94.8991C 105.602 94.8991 105.704 94.8831 105.911 94.8291L 105.911 94.3291zM 104.715 93.4341C 104.715 93.6451 104.657 93.7741 104.477 93.9461C 104.231 94.1801 103.93 94.3011 103.575 94.3011C 103.102 94.3011 102.825 94.0671 102.825 93.6681C 102.825 93.2541 103.094 93.0401 103.743 92.9421C 104.383 92.8521 104.516 92.8251 104.719 92.7231L 104.715 93.4341z"/>
<path style="stroke:none; fill-rule:evenodd; fill:#000000" d="M 108.016 90.7041L 107.419 90.7041L 107.419 89.5901L 106.719 89.5901L 106.719 90.7041L 106.219 90.7041L 106.219 91.2041L 106.719 91.2041L 106.719 94.2621C 106.719 94.6681 106.993 94.9031 107.493 94.9031C 107.645 94.9031 107.797 94.8871 108.012 94.8481L 108.012 94.2931C 107.938 94.3011 107.844 94.3051 107.735 94.3051C 107.485 94.3051 107.415 94.2311 107.415 93.9501L 107.415 91.2111L 108.012 91.2111L 108.016 90.7041z"/>
<path style="stroke:none; fill-rule:evenodd; fill:#000000" d="M 111.915 94.7271L 111.915 90.7071L 111.215 90.7071L 111.215 92.9611C 111.215 93.7701 110.817 94.3051 110.192 94.3051C 109.719 94.3051 109.419 94.0041 109.419 93.5241L 109.419 90.7071L 108.719 90.7071L 108.719 93.8091C 108.719 94.4771 109.212 94.9071 109.989 94.9071C 110.575 94.9071 110.946 94.7041 111.317 94.1721L 111.317 94.7311L 111.915 94.7271z"/>
<path style="stroke:none; fill-rule:evenodd; fill:#000000" d="M 113.016 90.7191L 113.016 94.7041L 113.715 94.7041L 113.715 92.2351C 113.715 91.6641 114.114 91.2071 114.61 91.2071C 115.059 91.2071 115.313 91.4931 115.313 91.9931L 115.313 94.7041L 116.012 94.7041L 116.012 92.2351C 116.012 91.6641 116.434 91.2071 116.962 91.2071C 117.43 91.2071 117.712 91.5001 117.712 91.9931L 117.712 94.7041L 118.411 94.7041L 118.411 91.7151C 118.411 91.0001 117.989 90.6061 117.227 90.6061C 116.684 90.6061 116.356 90.7581 115.973 91.1881C 115.735 90.7821 115.407 90.6061 114.876 90.6061C 114.333 90.6061 113.973 90.8011 113.622 91.2821L 113.622 90.7191L 113.016 90.7191z"/>
<path style="stroke:none; fill-rule:evenodd; fill:#000000" d="M 126.516 91.8051L 124.118 91.8051L 124.118 92.4031L 125.817 92.4031L 125.817 92.5551C 125.817 93.5671 125.075 94.2971 124.044 94.2971C 123.473 94.2971 122.954 94.0861 122.618 93.7191C 122.247 93.3131 122.024 92.6331 122.024 91.9261C 122.024 90.5281 122.813 89.6021 124.005 89.6021C 124.864 89.6021 125.481 90.0551 125.637 90.8091L 126.372 90.8091C 126.172 89.6611 125.309 89.0001 124.02 89.0001C 123.337 89.0001 122.782 89.1761 122.34 89.5401C 121.696 90.0791 121.325 90.9501 121.325 91.9611C 121.325 93.6881 122.379 94.8951 123.899 94.8951C 124.661 94.8951 125.27 94.6181 125.821 94.0161L 126.016 94.7501L 126.52 94.7501L 126.516 91.8051z"/>
<path style="stroke:none; fill-rule:evenodd; fill:#000000" d="M 129.008 90.6021C 127.895 90.6021 127.219 91.4031 127.219 92.7501C 127.219 94.0941 127.887 94.8991 129.016 94.8991C 130.129 94.8991 130.813 94.0981 130.813 92.7821C 130.813 91.3991 130.153 90.6021 129.008 90.6021zM 129.016 91.2041C 129.704 91.2041 130.114 91.7901 130.114 92.7741C 130.114 93.7071 129.692 94.2971 129.016 94.2971C 128.337 94.2971 127.919 93.7151 127.919 92.7501C 127.919 91.7971 128.337 91.2041 129.016 91.2041z"/>
<path style="stroke:none; fill-rule:evenodd; fill:#000000" d="M 108.817 48.5041L 110.657 48.5041L 110.657 47.9071L 106.278 47.9071L 106.278 48.5041L 108.114 48.5041L 108.114 53.5041L 108.813 53.5041L 108.817 48.5041z"/>
<path style="stroke:none; fill-rule:evenodd; fill:#000000" d="M 111.317 47.9031L 111.317 53.5001L 112.016 53.5001L 112.016 51.3321C 112.016 50.5321 112.438 50.0041 113.094 50.0041C 113.297 50.0041 113.505 50.0711 113.657 50.1841C 113.837 50.3091 113.915 50.4971 113.915 50.7741L 113.915 53.4971L 114.614 53.4971L 114.614 50.4851C 114.614 49.8171 114.126 49.3991 113.329 49.3991C 112.755 49.3991 112.403 49.5671 112.02 50.0361L 112.02 47.8991L 111.317 47.9031z"/>
<path style="stroke:none; fill-rule:evenodd; fill:#000000" d="M 119.212 53.1291C 119.141 53.2041 119.11 53.2041 119.071 53.2041C 118.844 53.2041 118.719 53.0901 118.719 52.8911L 118.719 50.5121C 118.719 49.7971 118.204 49.4111 117.219 49.4111C 116.641 49.4111 116.161 49.5751 115.895 49.8641C 115.715 50.0631 115.637 50.2901 115.622 50.6801L 116.243 50.6801C 116.294 50.2191 116.575 50.0081 117.153 50.0081C 117.708 50.0081 118.02 50.2191 118.02 50.6021L 118.02 50.7701C 118.02 51.0361 117.864 51.1491 117.372 51.2111C 116.489 51.3251 116.356 51.3561 116.114 51.4541C 115.661 51.6411 115.426 52.0001 115.426 52.5201C 115.426 53.2431 115.934 53.7001 116.747 53.7001C 117.255 53.7001 117.661 53.5201 118.114 53.0861C 118.157 53.5081 118.356 53.7001 118.774 53.7001C 118.903 53.7001 119.005 53.6841 119.212 53.6291L 119.212 53.1291zM 118.016 52.2351C 118.016 52.4461 117.958 52.5751 117.778 52.7471C 117.532 52.9811 117.231 53.1021 116.876 53.1021C 116.403 53.1021 116.126 52.8681 116.126 52.4691C 116.126 52.0551 116.395 51.8401 117.044 51.7431C 117.684 51.6531 117.817 51.6251 118.02 51.5241L 118.016 52.2351z"/>
<path style="stroke:none; fill-rule:evenodd; fill:#000000" d="M 119.817 53.5041L 120.516 53.5041L 120.516 47.9071L 119.817 47.9071L 119.817 53.5041z"/>
</g>
</svg>