<?xml version="1.0" encoding="ISO-8859-1" standalone="yes"?>
<svg width="292.338" height="167.979">
  <defs> 
    <marker id="ArrowEnd" viewBox="0 0 10 10" refX="0" refY="5" 
     markerUnits="strokeWidth" 
     markerWidth="4" 
     markerHeight="3" 
     orient="auto"> 
        <path d="M 0 0 L 10 5 L 0 10 z" /> 
    </marker>
    <marker id="ArrowStart" viewBox="0 0 10 10" refX="10" refY="5" 
     markerUnits="strokeWidth" 
     markerWidth="4" 
     markerHeight="3" 
     orient="auto"> 
        <path d="M 10 0 L 0 5 L 10 10 z" /> 
    </marker> </defs>
<g>
<path style="stroke:#000000; stroke-width:1.91229; fill:none" d="M 66.2266 117.112C 66.2266 110.776 61.0898 105.639 54.7539 105.639C 48.418 105.639 43.2812 110.776 43.2812 117.112C 43.2812 123.448 48.418 128.584 54.7539 128.584C 61.0898 128.584 66.2266 123.448 66.2266 117.112"/>
<path style="stroke:none; fill-rule:evenodd; fill:#000000" d="M 53.5977 116.889L 56.3281 116.889C 57.2695 116.889 57.6914 117.346 57.6914 118.377L 57.6914 119.12C 57.6914 119.635 57.7773 120.139 57.9219 120.483L 59.1758 120.483L 59.1758 120.221C 58.7891 119.948 58.7109 119.647 58.6875 118.53C 58.6758 117.151 58.457 116.733 57.5391 116.342C 58.5 115.881 58.8867 115.295 58.8867 114.338C 58.8867 112.889 57.9805 112.092 56.3398 112.092L 52.4883 112.092L 52.4883 120.491L 53.5859 120.491L 53.5977 116.889zM 53.5312 115.948L 53.5312 113.069L 56.1094 113.069C 56.7031 113.069 57.0469 113.159 57.3125 113.389C 57.5977 113.627 57.7461 114.006 57.7461 114.514C 57.7461 115.498 57.2422 115.948 56.1055 115.948L 53.5312 115.948z"/>
<path style="stroke:#000000; stroke-width:1.91229; fill:none" d="M 106.383 117.112C 106.383 110.776 101.246 105.639 94.91 105.639C 88.574 105.639 83.4375 110.776 83.4375 117.112C 83.4375 123.448 88.574 128.584 94.91 128.584C 101.246 128.584 106.383 123.448 106.383 117.112"/>
<path style="stroke:none; fill-rule:evenodd; fill:#000000" d="M 99.297 116.092L 95.699 116.092L 95.699 116.991L 98.297 116.991L 98.297 117.225C 98.297 118.768 97.199 119.885 95.68 119.885C 94.836 119.885 94.07 119.573 93.578 119.026C 93.031 118.42 92.699 117.409 92.699 116.358C 92.699 114.272 93.863 112.893 95.621 112.893C 96.887 112.893 97.801 113.561 98.027 114.662L 99.113 114.662C 98.816 112.967 97.527 111.995 95.613 111.995C 94.594 111.995 93.766 112.26 93.113 112.799C 92.152 113.604 91.602 114.905 91.602 116.412C 91.602 118.991 93.172 120.787 95.438 120.787C 96.574 120.787 97.48 120.362 98.297 119.452L 98.574 120.565L 99.293 120.565L 99.297 116.092z"/>
<path style="stroke:#000000; stroke-width:1.91229; fill:none" d="M 146.543 117.112C 146.543 110.776 141.406 105.639 135.07 105.639C 128.734 105.639 123.598 110.776 123.598 117.112C 123.598 123.448 128.734 128.584 135.07 128.584C 141.406 128.584 146.543 123.448 146.543 117.112"/>
<path style="stroke:none; fill-rule:evenodd; fill:#000000" d="M 132.598 120.491L 136.406 120.491C 137.203 120.491 137.793 120.272 138.246 119.791C 138.66 119.354 138.891 118.756 138.891 118.1C 138.891 117.088 138.418 116.475 137.316 116.065C 138.086 115.709 138.492 115.088 138.492 114.237C 138.492 113.627 138.262 113.088 137.824 112.694C 137.391 112.291 136.812 112.108 136.008 112.108L 132.602 112.108L 132.598 120.491zM 133.699 115.791L 133.699 112.995L 135.742 112.995C 136.332 112.995 136.66 113.077 136.941 113.307C 137.234 113.545 137.395 113.909 137.395 114.393C 137.395 114.862 137.238 115.237 136.941 115.479C 136.66 115.705 136.332 115.791 135.742 115.791L 133.699 115.791zM 133.699 119.592L 133.699 116.694L 136.297 116.694C 136.812 116.694 137.152 116.819 137.406 117.096C 137.656 117.362 137.793 117.729 137.793 118.147C 137.793 118.549 137.656 118.92 137.406 119.186C 137.156 119.459 136.812 119.588 136.297 119.588L 133.699 119.592z"/>
<path style="stroke:#000000; stroke-width:1.91229; fill:none" d="M 66.2266 21.494C 66.2266 15.159 61.0898 10.022 54.7539 10.022C 48.418 10.022 43.2812 15.159 43.2812 21.494C 43.2812 27.83 48.418 32.967 54.7539 32.967C 61.0898 32.967 66.2266 27.83 66.2266 21.494"/>
<path style="stroke:#000000; stroke-width:1.91229; fill:none" d="M 106.383 21.494C 106.383 15.159 101.246 10.022 94.91 10.022C 88.574 10.022 83.4375 15.159 83.4375 21.494C 83.4375 27.83 88.574 32.967 94.91 32.967C 101.246 32.967 106.383 27.83 106.383 21.494"/>
<path style="stroke:#000000; stroke-width:1.91229; fill:none" d="M 146.543 21.494C 146.543 15.159 141.406 10.022 135.07 10.022C 128.734 10.022 123.598 15.159 123.598 21.494C 123.598 27.83 128.734 32.967 135.07 32.967C 141.406 32.967 146.543 27.83 146.543 21.494"/>
<path style="stroke:#000000; stroke-width:1.91229; fill:none" d="M 66.2266 69.303C 66.2266 62.967 61.0898 57.83 54.7539 57.83C 48.418 57.83 43.2812 62.967 43.2812 69.303C 43.2812 75.639 48.418 80.7757 54.7539 80.7757C 61.0898 80.7757 66.2266 75.639 66.2266 69.303"/>
<path style="stroke:#000000; stroke-width:1.91229; fill:none" d="M 106.383 69.303C 106.383 62.967 101.246 57.83 94.91 57.83C 88.574 57.83 83.4375 62.967 83.4375 69.303C 83.4375 75.639 88.574 80.7757 94.91 80.7757C 101.246 80.7757 106.383 75.639 106.383 69.303"/>
<path style="stroke:#000000; stroke-width:1.91229; fill:none" d="M 146.543 69.303C 146.543 62.967 141.406 57.83 135.07 57.83C 128.734 57.83 123.598 62.967 123.598 69.303C 123.598 75.639 128.734 80.7757 135.07 80.7757C 141.406 80.7757 146.543 75.639 146.543 69.303"/>
<path style="stroke:none; fill-rule:evenodd; fill:#000000" d="M 54.3984 19.123L 54.3984 24.889L 55.3984 24.889L 55.3984 16.791L 54.7305 16.791C 54.375 18.034 54.1445 18.209 52.5742 18.401L 52.5742 19.119L 54.3984 19.123z"/>
<path style="stroke:none; fill-rule:evenodd; fill:#000000" d="M 96.84 23.889L 92.613 23.889C 92.715 23.229 93.078 22.807 94.062 22.225L 95.195 21.612C 96.316 20.998 96.895 20.166 96.895 19.17C 96.895 18.498 96.625 17.869 96.148 17.436C 95.676 17.002 95.086 16.799 94.324 16.799C 93.305 16.799 92.547 17.159 92.105 17.838C 91.824 18.268 91.699 18.764 91.676 19.58L 92.676 19.58C 92.707 19.045 92.777 18.721 92.914 18.467C 93.176 17.991 93.699 17.698 94.301 17.698C 95.211 17.698 95.895 18.346 95.895 19.213C 95.895 19.85 95.52 20.397 94.801 20.807L 93.754 21.397C 92.07 22.35 91.578 23.116 91.488 24.889L 96.84 24.889L 96.84 23.889z"/>
<path style="stroke:none; fill-rule:evenodd; fill:#000000" d="M 134.234 21.19L 134.789 21.19C 135.914 21.19 136.492 21.694 136.492 22.662C 136.492 23.678 135.859 24.284 134.797 24.284C 133.691 24.284 133.148 23.725 133.078 22.522L 132.062 22.522C 132.105 23.182 132.223 23.616 132.414 23.987C 132.824 24.776 133.629 25.182 134.738 25.182C 136.41 25.182 137.488 24.186 137.488 22.647C 137.488 21.616 137.09 21.041 136.121 20.709C 136.832 20.412 137.191 19.838 137.191 19.026C 137.191 17.627 136.273 16.791 134.746 16.791C 133.129 16.791 132.27 17.674 132.234 19.381L 133.234 19.381C 133.242 18.905 133.289 18.639 133.414 18.393C 133.641 17.959 134.141 17.694 134.766 17.694C 135.652 17.694 136.188 18.209 136.188 19.049C 136.188 19.608 135.984 19.944 135.547 20.123C 135.277 20.233 134.93 20.28 134.227 20.291L 134.234 21.19z"/>
<path style="stroke:#000000; stroke-width:1.91229; fill:none" d="M 54.7539 105.635L 54.7539 80.7757"/>
<path style="stroke:#000000; stroke-width:1.91229; fill:none" d="M 52.8398 88.4242L 54.75 80.7757L 56.6602 88.4242"/>
<path style="stroke:#000000; stroke-width:1.91229; fill:none" d="M 94.91 105.635L 94.91 80.7757"/>
<path style="stroke:#000000; stroke-width:1.91229; fill:none" d="M 93 88.4242L 94.91 80.7757L 96.82 88.4242"/>
<path style="stroke:#000000; stroke-width:1.91229; fill:none" d="M 135.07 105.635L 135.07 80.7757"/>
<path style="stroke:#000000; stroke-width:1.91229; fill:none" d="M 133.156 88.4242L 135.066 80.7757L 136.977 88.4242"/>
<path style="stroke:#000000; stroke-width:1.91229; fill:none" d="M 136.98 57.83L 136.98 32.971"/>
<path style="stroke:#000000; stroke-width:1.91229; fill:none" d="M 135.07 40.619L 136.98 32.971L 138.891 40.619"/>
<path style="stroke:#000000; stroke-width:1.91229; fill:none" d="M 94.91 57.83L 94.91 32.971"/>
<path style="stroke:#000000; stroke-width:1.91229; fill:none" d="M 93 40.619L 94.91 32.971L 96.82 40.619"/>
<path style="stroke:#000000; stroke-width:1.91229; fill:none" d="M 54.7539 57.83L 54.7539 32.971"/>
<path style="stroke:#000000; stroke-width:1.91229; fill:none" d="M 52.8398 40.619L 54.75 32.971L 56.6602 40.619"/>
<path style="stroke:#000000; stroke-width:1.91229; fill:none" d="M 202 117.112C 202 110.776 196.863 105.639 190.527 105.639C 184.191 105.639 179.055 110.776 179.055 117.112C 179.055 123.448 184.191 128.584 190.527 128.584C 196.863 128.584 202 123.448 202 117.112"/>
<path style="stroke:none; fill-rule:evenodd; fill:#000000" d="M 189.398 116.889L 192.129 116.889C 193.07 116.889 193.492 117.346 193.492 118.377L 193.492 119.12C 193.492 119.635 193.578 120.139 193.723 120.483L 194.977 120.483L 194.977 120.221C 194.59 119.948 194.512 119.647 194.488 118.53C 194.477 117.151 194.258 116.733 193.34 116.342C 194.301 115.881 194.688 115.295 194.688 114.338C 194.688 112.889 193.781 112.092 192.141 112.092L 188.289 112.092L 188.289 120.491L 189.387 120.491L 189.398 116.889zM 189.332 115.948L 189.332 113.069L 191.91 113.069C 192.504 113.069 192.848 113.159 193.113 113.389C 193.398 113.627 193.547 114.006 193.547 114.514C 193.547 115.498 193.043 115.948 191.906 115.948L 189.332 115.948z"/>
<path style="stroke:#000000; stroke-width:1.91229; fill:none" d="M 242.156 117.112C 242.156 110.776 237.02 105.639 230.684 105.639C 224.348 105.639 219.211 110.776 219.211 117.112C 219.211 123.448 224.348 128.584 230.684 128.584C 237.02 128.584 242.156 123.448 242.156 117.112"/>
<path style="stroke:none; fill-rule:evenodd; fill:#000000" d="M 235.098 116.092L 231.5 116.092L 231.5 116.991L 234.098 116.991L 234.098 117.225C 234.098 118.768 233 119.885 231.48 119.885C 230.637 119.885 229.871 119.573 229.379 119.026C 228.832 118.42 228.5 117.409 228.5 116.358C 228.5 114.272 229.664 112.893 231.422 112.893C 232.688 112.893 233.602 113.561 233.828 114.662L 234.914 114.662C 234.617 112.967 233.328 111.995 231.414 111.995C 230.395 111.995 229.566 112.26 228.914 112.799C 227.953 113.604 227.402 114.905 227.402 116.412C 227.402 118.991 228.973 120.787 231.238 120.787C 232.375 120.787 233.281 120.362 234.098 119.452L 234.375 120.565L 235.094 120.565L 235.098 116.092z"/>
<path style="stroke:#000000; stroke-width:1.91229; fill:none" d="M 282.316 117.112C 282.316 110.776 277.18 105.639 270.844 105.639C 264.508 105.639 259.371 110.776 259.371 117.112C 259.371 123.448 264.508 128.584 270.844 128.584C 277.18 128.584 282.316 123.448 282.316 117.112"/>
<path style="stroke:none; fill-rule:evenodd; fill:#000000" d="M 268.398 120.491L 272.207 120.491C 273.004 120.491 273.594 120.272 274.047 119.791C 274.461 119.354 274.691 118.756 274.691 118.1C 274.691 117.088 274.219 116.475 273.117 116.065C 273.887 115.709 274.293 115.088 274.293 114.237C 274.293 113.627 274.062 113.088 273.625 112.694C 273.191 112.291 272.613 112.108 271.809 112.108L 268.402 112.108L 268.398 120.491zM 269.5 115.791L 269.5 112.995L 271.543 112.995C 272.133 112.995 272.461 113.077 272.742 113.307C 273.035 113.545 273.195 113.909 273.195 114.393C 273.195 114.862 273.039 115.237 272.742 115.479C 272.461 115.705 272.133 115.791 271.543 115.791L 269.5 115.791zM 269.5 119.592L 269.5 116.694L 272.098 116.694C 272.613 116.694 272.953 116.819 273.207 117.096C 273.457 117.362 273.594 117.729 273.594 118.147C 273.594 118.549 273.457 118.92 273.207 119.186C 272.957 119.459 272.613 119.588 272.098 119.588L 269.5 119.592z"/>
<path style="stroke:#000000; stroke-width:1.91229; fill:none" d="M 202 21.494C 202 15.159 196.863 10.022 190.527 10.022C 184.191 10.022 179.055 15.159 179.055 21.494C 179.055 27.83 184.191 32.967 190.527 32.967C 196.863 32.967 202 27.83 202 21.494"/>
<path style="stroke:#000000; stroke-width:1.91229; fill:none" d="M 242.156 21.494C 242.156 15.159 237.02 10.022 230.684 10.022C 224.348 10.022 219.211 15.159 219.211 21.494C 219.211 27.83 224.348 32.967 230.684 32.967C 237.02 32.967 242.156 27.83 242.156 21.494"/>
<path style="stroke:#000000; stroke-width:1.91229; fill:none" d="M 282.316 21.494C 282.316 15.159 277.18 10.022 270.844 10.022C 264.508 10.022 259.371 15.159 259.371 21.494C 259.371 27.83 264.508 32.967 270.844 32.967C 277.18 32.967 282.316 27.83 282.316 21.494"/>
<path style="stroke:#000000; stroke-width:1.91229; fill:none" d="M 202 69.303C 202 62.967 196.863 57.83 190.527 57.83C 184.191 57.83 179.055 62.967 179.055 69.303C 179.055 75.639 184.191 80.7757 190.527 80.7757C 196.863 80.7757 202 75.639 202 69.303"/>
<path style="stroke:#000000; stroke-width:1.91229; fill:none" d="M 242.156 69.303C 242.156 62.967 237.02 57.83 230.684 57.83C 224.348 57.83 219.211 62.967 219.211 69.303C 219.211 75.639 224.348 80.7757 230.684 80.7757C 237.02 80.7757 242.156 75.639 242.156 69.303"/>
<path style="stroke:#000000; stroke-width:1.91229; fill:none" d="M 282.316 69.303C 282.316 62.967 277.18 57.83 270.844 57.83C 264.508 57.83 259.371 62.967 259.371 69.303C 259.371 75.639 264.508 80.7757 270.844 80.7757C 277.18 80.7757 282.316 75.639 282.316 69.303"/>
<path style="stroke:none; fill-rule:evenodd; fill:#000000" d="M 190.199 19.123L 190.199 24.889L 191.199 24.889L 191.199 16.791L 190.531 16.791C 190.176 18.034 189.945 18.209 188.375 18.401L 188.375 19.119L 190.199 19.123z"/>
<path style="stroke:none; fill-rule:evenodd; fill:#000000" d="M 232.641 23.889L 228.414 23.889C 228.516 23.229 228.879 22.807 229.863 22.225L 230.996 21.612C 232.117 20.998 232.695 20.166 232.695 19.17C 232.695 18.498 232.426 17.869 231.949 17.436C 231.477 17.002 230.887 16.799 230.125 16.799C 229.105 16.799 228.348 17.159 227.906 17.838C 227.625 18.268 227.5 18.764 227.477 19.58L 228.477 19.58C 228.508 19.045 228.578 18.721 228.715 18.467C 228.977 17.991 229.5 17.698 230.102 17.698C 231.012 17.698 231.695 18.346 231.695 19.213C 231.695 19.85 231.32 20.397 230.602 20.807L 229.555 21.397C 227.871 22.35 227.379 23.116 227.289 24.889L 232.641 24.889L 232.641 23.889z"/>
<path style="stroke:none; fill-rule:evenodd; fill:#000000" d="M 270.035 21.19L 270.59 21.19C 271.715 21.19 272.293 21.694 272.293 22.662C 272.293 23.678 271.66 24.284 270.598 24.284C 269.492 24.284 268.949 23.725 268.879 22.522L 267.863 22.522C 267.906 23.182 268.023 23.616 268.215 23.987C 268.625 24.776 269.43 25.182 270.539 25.182C 272.211 25.182 273.289 24.186 273.289 22.647C 273.289 21.616 272.891 21.041 271.922 20.709C 272.633 20.412 272.992 19.838 272.992 19.026C 272.992 17.627 272.074 16.791 270.547 16.791C 268.93 16.791 268.07 17.674 268.035 19.381L 269.035 19.381C 269.043 18.905 269.09 18.639 269.215 18.393C 269.441 17.959 269.941 17.694 270.566 17.694C 271.453 17.694 271.988 18.209 271.988 19.049C 271.988 19.608 271.785 19.944 271.348 20.123C 271.078 20.233 270.73 20.28 270.027 20.291L 270.035 21.19z"/>
<path style="stroke:#000000; stroke-width:1.91229; fill:none" d="M 270.84 105.635L 270.84 80.7757"/>
<path style="stroke:#000000; stroke-width:1.91229; fill:none" d="M 268.93 88.4242L 270.84 80.7757L 272.75 88.4242"/>
<path style="stroke:#000000; stroke-width:1.91229; fill:none" d="M 272.754 57.83L 272.754 32.971"/>
<path style="stroke:#000000; stroke-width:1.91229; fill:none" d="M 270.84 40.619L 272.75 32.971L 274.66 40.619"/>
<path style="stroke:#000000; stroke-width:1.91229; fill:none" d="M 190.523 57.83L 190.523 32.971"/>
<path style="stroke:#000000; stroke-width:1.91229; fill:none" d="M 188.613 40.619L 190.523 32.971L 192.434 40.619"/>
<path style="stroke:none; fill-rule:evenodd; fill:#000000" d="M 9.1367 17.791C 7.4336 17.791 6.4023 19.006 6.4023 21.041C 6.4023 23.073 7.4219 24.287 9.1523 24.287C 10.8555 24.287 11.9023 23.077 11.9023 21.088C 11.9023 18.998 10.8945 17.791 9.1406 17.791L 9.1367 17.791zM 9.1484 18.69C 10.2422 18.69 10.8984 19.577 10.8984 21.073C 10.8984 22.487 10.2227 23.385 9.1484 23.385C 8.0664 23.385 7.3984 22.498 7.3984 21.037C 7.3984 19.588 8.0625 18.69 9.1484 18.69z"/>
<path style="stroke:none; fill-rule:evenodd; fill:#000000" d="M 18 24.026L 18 17.994L 17 17.994L 17 21.44C 17 22.678 16.3555 23.491 15.3516 23.491C 14.5898 23.491 14.1055 23.03 14.1055 22.299L 14.1055 17.994L 13.1055 17.994L 13.1055 22.647C 13.1055 23.647 13.8438 24.291 15.0078 24.291C 15.8828 24.291 16.4414 23.983 17 23.19L 17 24.03L 18 24.026z"/>
<path style="stroke:none; fill-rule:evenodd; fill:#000000" d="M 21.5977 17.991L 20.6992 17.991L 20.6992 16.33L 19.6992 16.33L 19.6992 17.991L 18.8008 17.991L 18.8008 18.787L 19.6992 18.787L 19.6992 23.334C 19.6992 23.94 20.1016 24.284 20.832 24.284C 21.0547 24.284 21.2812 24.26 21.5938 24.201L 21.5938 23.366C 21.4805 23.451 21.3438 23.483 21.1758 23.483C 20.8008 23.483 20.6953 23.369 20.6953 22.94L 20.6953 18.787L 21.5938 18.787L 21.5977 17.991z"/>
<path style="stroke:none; fill-rule:evenodd; fill:#000000" d="M 22.5 26.491L 23.5 26.491L 23.5 23.389C 24 24.01 24.5625 24.287 25.3398 24.287C 26.8828 24.287 27.8984 23.03 27.8984 21.1C 27.8984 19.069 26.9141 17.795 25.3164 17.795C 24.5039 17.795 23.8477 18.162 23.4023 18.873L 23.4023 17.967L 22.5039 17.967L 22.5 26.491zM 25.1641 18.69C 26.2109 18.69 26.8945 19.627 26.8945 21.073C 26.8945 22.448 26.1992 23.385 25.1641 23.385C 24.1602 23.385 23.5 22.459 23.5 21.037C 23.5 19.616 24.1602 18.69 25.1641 18.69z"/>
<path style="stroke:none; fill-rule:evenodd; fill:#000000" d="M 33.8984 24.026L 33.8984 17.994L 32.8984 17.994L 32.8984 21.44C 32.8984 22.678 32.2539 23.491 31.25 23.491C 30.4883 23.491 30.0039 23.03 30.0039 22.299L 30.0039 17.994L 29.0039 17.994L 29.0039 22.647C 29.0039 23.647 29.7422 24.291 30.9062 24.291C 31.7812 24.291 32.3398 23.983 32.8984 23.19L 32.8984 24.03L 33.8984 24.026z"/>
<path style="stroke:none; fill-rule:evenodd; fill:#000000" d="M 37.5977 17.991L 36.6992 17.991L 36.6992 16.33L 35.6992 16.33L 35.6992 17.991L 34.8008 17.991L 34.8008 18.787L 35.6992 18.787L 35.6992 23.334C 35.6992 23.94 36.1016 24.284 36.832 24.284C 37.0547 24.284 37.2812 24.26 37.5938 24.201L 37.5938 23.366C 37.4805 23.451 37.3438 23.483 37.1758 23.483C 36.8008 23.483 36.6953 23.369 36.6953 22.94L 36.6953 18.787L 37.5938 18.787L 37.5977 17.991z"/>
<path style="stroke:none; fill-rule:evenodd; fill:#000000" d="M 14.3984 113.592L 13.3984 113.592L 13.3984 119.592L 14.3984 119.592L 14.3984 113.592zM 14.3984 111.19L 13.3984 111.19L 13.3984 112.428L 14.3984 112.428L 14.3984 111.19z"/>
<path style="stroke:none; fill-rule:evenodd; fill:#000000" d="M 16 113.565L 16 119.588L 17 119.588L 17 116.241C 17 115.002 17.625 114.19 18.5898 114.19C 19.3281 114.19 19.7969 114.651 19.7969 115.381L 19.7969 119.584L 20.7969 119.584L 20.7969 115.03C 20.7969 114.03 20.0547 113.385 18.8945 113.385C 18 113.385 17.4297 113.729 16.9023 114.569L 16.9023 113.557L 16 113.565z"/>
<path style="stroke:none; fill-rule:evenodd; fill:#000000" d="M 22.1992 122.092L 23.1992 122.092L 23.1992 118.991C 23.6992 119.612 24.2617 119.889 25.0391 119.889C 26.582 119.889 27.5977 118.631 27.5977 116.702C 27.5977 114.67 26.6133 113.397 25.0156 113.397C 24.2031 113.397 23.5469 113.764 23.1016 114.475L 23.1016 113.569L 22.2031 113.569L 22.1992 122.092zM 24.8633 114.291C 25.9102 114.291 26.5938 115.229 26.5938 116.674C 26.5938 118.049 25.8984 118.987 24.8633 118.987C 23.8594 118.987 23.1992 118.061 23.1992 116.639C 23.1992 115.217 23.8594 114.291 24.8633 114.291z"/>
<path style="stroke:none; fill-rule:evenodd; fill:#000000" d="M 33.5977 119.627L 33.5977 113.596L 32.5977 113.596L 32.5977 117.041C 32.5977 118.28 31.9531 119.092 30.9492 119.092C 30.1875 119.092 29.7031 118.631 29.7031 117.901L 29.7031 113.596L 28.7031 113.596L 28.7031 118.248C 28.7031 119.248 29.4414 119.893 30.6055 119.893C 31.4805 119.893 32.0391 119.584 32.5977 118.791L 32.5977 119.631L 33.5977 119.627z"/>
<path style="stroke:none; fill-rule:evenodd; fill:#000000" d="M 37.2969 113.592L 36.3984 113.592L 36.3984 111.932L 35.3984 111.932L 35.3984 113.592L 34.5 113.592L 34.5 114.389L 35.3984 114.389L 35.3984 118.936C 35.3984 119.541 35.8008 119.885 36.5312 119.885C 36.7539 119.885 36.9805 119.862 37.293 119.803L 37.293 118.967C 37.1797 119.053 37.043 119.084 36.875 119.084C 36.5 119.084 36.3945 118.971 36.3945 118.541L 36.3945 114.389L 37.293 114.389L 37.2969 113.592z"/>
<path style="stroke:#000000; stroke-width:1.91229; fill:none" d="M 190.523 105.635L 190.523 80.7757"/>
<path style="stroke:#000000; stroke-width:1.91229; fill:none" d="M 188.613 88.4242L 190.523 80.7757L 192.434 88.4242"/>
<path style="stroke:#000000; stroke-width:1.91229; fill:none" d="M 230.684 105.635L 190.527 80.7757"/>
<path style="stroke:#000000; stroke-width:1.91229; fill:none" d="M 196.023 86.4281L 190.527 80.7796L 198.035 83.1781"/>
<path style="stroke:#000000; stroke-width:1.91229; fill:none" d="M 190.523 57.83L 230.68 32.971"/>
<path style="stroke:#000000; stroke-width:1.91229; fill:none" d="M 223.172 35.369L 230.68 32.971L 225.184 38.619"/>
<path style="stroke:#000000; stroke-width:1.91229; fill:none" d="M 272.754 57.83L 190.527 32.971"/>
<path style="stroke:#000000; stroke-width:1.91229; fill:none" d="M 197.293 37.014L 190.527 32.971L 198.402 33.354"/>
<path style="stroke:#000000; stroke-width:1.91229; fill:none" d="M 190.523 105.635L 270.836 80.7757"/>
<path style="stroke:#000000; stroke-width:1.91229; fill:none" d="M 262.969 81.2132L 270.84 80.7796L 264.102 84.8656"/>
<path style="stroke:none; fill-rule:evenodd; fill:#000000" d="M 1 61.991L 0 61.991L 0 67.991L 1 67.991L 1 61.991zM 1 59.592L 0 59.592L 0 60.83L 1 60.83L 1 59.592z"/>
<path style="stroke:none; fill-rule:evenodd; fill:#000000" d="M 2.5977 61.963L 2.5977 67.987L 3.5977 67.987L 3.5977 64.639C 3.5977 63.401 4.2227 62.588 5.1875 62.588C 5.9258 62.588 6.3945 63.049 6.3945 63.78L 6.3945 67.983L 7.3945 67.983L 7.3945 63.428C 7.3945 62.428 6.6523 61.784 5.4922 61.784C 4.5977 61.784 4.0273 62.127 3.5 62.967L 3.5 61.955L 2.5977 61.963z"/>
<path style="stroke:none; fill-rule:evenodd; fill:#000000" d="M 11.0977 61.991L 10.1992 61.991L 10.1992 60.33L 9.1992 60.33L 9.1992 61.991L 8.3008 61.991L 8.3008 62.787L 9.1992 62.787L 9.1992 67.334C 9.1992 67.94 9.6016 68.284 10.332 68.284C 10.5547 68.284 10.7812 68.26 11.0938 68.201L 11.0938 67.366C 10.9805 67.451 10.8438 67.483 10.6758 67.483C 10.3008 67.483 10.1953 67.369 10.1953 66.94L 10.1953 62.787L 11.0938 62.787L 11.0977 61.991z"/>
<path style="stroke:none; fill-rule:evenodd; fill:#000000" d="M 17.2969 65.291C 17.2969 64.373 17.2305 63.823 17.0586 63.377C 16.6719 62.393 15.7578 61.795 14.6406 61.795C 12.9766 61.795 11.9023 63.088 11.9023 65.077C 11.9023 67.065 12.9375 68.287 14.6094 68.287C 15.9727 68.287 16.918 67.494 17.1562 66.166L 16.2031 66.166C 15.9453 66.967 15.4102 67.389 14.6484 67.389C 14.0469 67.389 13.5391 67.112 13.2188 66.596C 12.9922 66.248 12.9141 65.897 12.9023 65.291L 17.2969 65.291zM 12.8789 64.526C 12.957 63.416 13.6328 62.69 14.5977 62.69C 15.5352 62.69 16.2578 63.467 16.2578 64.455C 16.2578 64.475 16.2578 64.498 16.25 64.522L 12.8789 64.526z"/>
<path style="stroke:none; fill-rule:evenodd; fill:#000000" d="M 18.5977 61.963L 18.5977 67.987L 19.5977 67.987L 19.5977 64.854C 19.5977 63.991 19.8086 63.424 20.2578 63.092C 20.5469 62.873 20.8281 62.807 21.4766 62.795L 21.4766 61.83C 21.3203 61.811 21.2422 61.799 21.1172 61.799C 20.5078 61.799 20.043 62.166 19.5 63.065L 19.5 61.975L 18.5977 61.963z"/>
<path style="stroke:none; fill-rule:evenodd; fill:#000000" d="M 22.3984 61.963L 22.3984 67.987L 23.3984 67.987L 23.3984 64.639C 23.3984 63.401 24.0234 62.588 24.9883 62.588C 25.7266 62.588 26.1953 63.049 26.1953 63.78L 26.1953 67.983L 27.1953 67.983L 27.1953 63.428C 27.1953 62.428 26.4531 61.784 25.293 61.784C 24.3984 61.784 23.8281 62.127 23.3008 62.967L 23.3008 61.955L 22.3984 61.963z"/>
<path style="stroke:none; fill-rule:evenodd; fill:#000000" d="M 34.1367 67.428C 34.0352 67.487 33.9883 67.487 33.9258 67.487C 33.5859 67.487 33.4023 67.315 33.4023 67.014L 33.4023 63.448C 33.4023 62.373 32.625 61.791 31.1523 61.791C 30.2852 61.791 29.5664 62.045 29.1641 62.494C 28.8906 62.803 28.7773 63.151 28.7539 63.752L 29.6992 63.752C 29.7773 63.022 30.2031 62.69 31.0859 62.69C 31.9297 62.69 32.4023 63.01 32.4023 63.588L 32.4023 63.842C 32.4023 64.244 32.168 64.416 31.4258 64.51C 30.1016 64.682 29.8984 64.729 29.5391 64.877C 28.8555 65.162 28.5078 65.705 28.5078 66.491C 28.5078 67.584 29.2617 68.276 30.4727 68.276C 31.2266 68.276 31.832 68.002 32.5078 67.358C 32.5742 67.991 32.8711 68.276 33.4883 68.276C 33.6797 68.276 33.8281 68.252 34.1367 68.17L 34.1367 67.428zM 32.3984 66.131C 32.3984 66.459 32.3086 66.662 32.0312 66.932C 31.6523 67.295 31.1953 67.487 30.6484 67.487C 29.9258 67.487 29.5039 67.123 29.5039 66.494C 29.5039 65.846 29.9141 65.514 30.9062 65.362C 31.8867 65.221 32.0859 65.174 32.3984 65.022L 32.3984 66.131z"/>
<path style="stroke:none; fill-rule:evenodd; fill:#000000" d="M 35.1992 67.991L 36.1992 67.991L 36.1992 59.592L 35.1992 59.592L 35.1992 67.991z"/>
<path style="stroke:none; fill-rule:evenodd; fill:#000000" d="M 0.0977001 73.366L 0.0977001 79.389L 1.0977 79.389L 1.0977 76.256C 1.0977 75.393 1.3086 74.827 1.7578 74.494C 2.0469 74.276 2.3281 74.209 2.9766 74.198L 2.9766 73.233C 2.8203 73.213 2.7422 73.201 2.6172 73.201C 2.0078 73.201 1.543 73.569 1 74.467L 1 73.377L 0.0977001 73.366z"/>
<path style="stroke:none; fill-rule:evenodd; fill:#000000" d="M 9 76.6898C 9 75.772 8.9336 75.221 8.7617 74.776C 8.375 73.791 7.4609 73.194 6.3438 73.194C 4.6797 73.194 3.6055 74.487 3.6055 76.4749C 3.6055 78.4632 4.6406 79.6859 6.3125 79.6859C 7.6758 79.6859 8.6211 78.8929 8.8594 77.5648L 7.9062 77.5648C 7.6484 78.3656 7.1133 78.7874 6.3516 78.7874C 5.75 78.7874 5.2422 78.5101 4.9219 77.9945C 4.6953 77.6468 4.6172 77.2952 4.6055 76.6898L 9 76.6898zM 4.5781 75.924C 4.6562 74.815 5.332 74.088 6.2969 74.088C 7.2344 74.088 7.957 74.866 7.957 75.854C 7.957 75.873 7.957 75.897 7.9492 75.92L 4.5781 75.924z"/>
<path style="stroke:none; fill-rule:evenodd; fill:#000000" d="M 10.0977 81.8929L 11.0977 81.8929L 11.0977 78.7913C 11.5977 79.4124 12.1602 79.6898 12.9375 79.6898C 14.4805 79.6898 15.4961 78.432 15.4961 76.5023C 15.4961 74.471 14.5117 73.198 12.9141 73.198C 12.1016 73.198 11.4453 73.565 11 74.276L 11 73.369L 10.1016 73.369L 10.0977 81.8929zM 12.7656 74.092C 13.8125 74.092 14.4961 75.03 14.4961 76.4749C 14.4961 77.8499 13.8008 78.7874 12.7656 78.7874C 11.7617 78.7874 11.1016 77.8617 11.1016 76.4398C 11.1016 75.018 11.7617 74.092 12.7656 74.092z"/>
<path style="stroke:none; fill-rule:evenodd; fill:#000000" d="M 20.9219 75.053C 20.9102 73.866 20.125 73.194 18.7266 73.194C 17.3164 73.194 16.4023 73.92 16.4023 75.041C 16.4023 75.987 16.8906 76.4359 18.3398 76.7835L 19.25 77.0023C 19.9258 77.1624 20.1953 77.4046 20.1953 77.8421C 20.1953 78.4046 19.6289 78.7874 18.7852 78.7874C 18.2656 78.7874 17.8281 78.639 17.5859 78.3812C 17.4375 78.2093 17.3672 78.0335 17.3086 77.5999L 16.293 77.5999C 16.3359 79.0101 17.1211 79.6859 18.7031 79.6859C 20.2266 79.6859 21.1953 78.9359 21.1953 77.7718C 21.1953 76.8734 20.6836 76.377 19.4688 76.088L 18.5352 75.869C 17.7422 75.686 17.4023 75.432 17.4023 75.006C 17.4023 74.455 17.8984 74.096 18.6875 74.096C 19.4609 74.096 19.8789 74.424 19.9023 75.057L 20.9219 75.053z"/>
<path style="stroke:#000000; stroke-width:1.91229; fill:none" d="M 230.684 105.635L 230.684 80.7757"/>
<path style="stroke:#000000; stroke-width:1.91229; fill:none" d="M 228.77 88.4242L 230.68 80.7757L 232.59 88.4242"/>
<path style="stroke:#000000; stroke-width:1.91229; fill:none" d="M 270.844 103.725L 230.688 80.7796"/>
<path style="stroke:#000000; stroke-width:1.91229; fill:none" d="M 236.375 86.2328L 230.684 80.7796L 238.27 82.9124"/>
<path style="stroke:none; fill-rule:evenodd; fill:#000000" d="M 230.699 52.307L 230.699 51.772C 230.699 51.268 230.82 51.073 231.582 50.35C 232.418 49.573 232.699 49.057 232.699 48.299C 232.699 46.959 231.758 46.1 230.285 46.1C 228.652 46.1 227.805 47.018 227.805 48.78L 228.805 48.78C 228.805 48.256 228.859 47.936 228.996 47.662C 229.207 47.241 229.66 47.002 230.258 47.002C 231.125 47.002 231.699 47.53 231.699 48.307C 231.699 48.83 231.457 49.28 230.863 49.819C 230.207 50.424 230.207 50.424 230.016 50.686C 229.781 51.006 229.703 51.268 229.703 51.682L 229.703 52.311L 230.699 52.307zM 230.699 53.389L 229.699 53.389L 229.699 54.588L 230.699 54.588L 230.699 53.389z"/>
<path style="stroke:none; fill-rule:evenodd; fill:#000000" d="M 172 134.092L 172 142.491L 172.898 142.491L 172.898 141.725C 173.352 142.448 173.957 142.791 174.793 142.791C 176.367 142.791 177.395 141.487 177.395 139.475C 177.395 137.51 176.418 136.295 174.844 136.295C 174.023 136.295 173.445 136.608 173 137.295L 173 134.096L 172 134.092zM 174.645 137.202C 175.711 137.202 176.398 138.127 176.398 139.565C 176.398 140.928 175.688 141.858 174.645 141.858C 173.637 141.858 172.973 140.94 172.973 139.53C 172.973 138.12 173.637 137.202 174.645 137.202z"/>
<path style="stroke:none; fill-rule:evenodd; fill:#000000" d="M 178.855 144.924C 179.984 143.416 180.695 141.323 180.695 139.518C 180.695 137.702 179.984 135.608 178.855 134.096L 178.234 134.096C 179.238 135.741 179.797 137.674 179.797 139.518C 179.797 141.346 179.238 143.291 178.234 144.924L 178.855 144.924z"/>
<path style="stroke:none; fill-rule:evenodd; fill:#000000" d="M 192.395 136.721C 192.059 134.889 190.996 133.995 189.148 133.995C 188.02 133.995 187.105 134.35 186.48 135.041C 185.719 135.87 185.305 137.065 185.305 138.424C 185.305 139.803 185.73 140.991 186.527 141.807C 187.172 142.475 188.004 142.784 189.102 142.784C 191.156 142.784 192.312 141.674 192.566 139.432L 191.461 139.432C 191.371 140.022 191.258 140.424 191.082 140.768C 190.738 141.479 190.027 141.877 189.129 141.877C 187.461 141.877 186.402 140.526 186.402 138.405C 186.402 136.225 187.414 134.881 189.035 134.881C 189.711 134.881 190.344 135.092 190.691 135.416C 191 135.709 191.172 136.069 191.301 136.702L 192.395 136.721z"/>
<path style="stroke:none; fill-rule:evenodd; fill:#000000" d="M 196.234 136.291C 194.531 136.291 193.5 137.506 193.5 139.541C 193.5 141.573 194.52 142.787 196.25 142.787C 197.953 142.787 199 141.577 199 139.588C 199 137.498 197.992 136.291 196.238 136.291L 196.234 136.291zM 196.25 137.19C 197.344 137.19 198 138.077 198 139.573C 198 140.987 197.324 141.885 196.25 141.885C 195.168 141.885 194.5 140.998 194.5 139.537C 194.5 138.088 195.164 137.19 196.25 137.19z"/>
<path style="stroke:none; fill-rule:evenodd; fill:#000000" d="M 200.297 136.463L 200.297 142.487L 201.297 142.487L 201.297 139.139C 201.297 137.901 201.922 137.088 202.887 137.088C 203.625 137.088 204.094 137.549 204.094 138.28L 204.094 142.483L 205.094 142.483L 205.094 137.928C 205.094 136.928 204.352 136.284 203.191 136.284C 202.297 136.284 201.727 136.627 201.199 137.467L 201.199 136.455L 200.297 136.463z"/>
<path style="stroke:none; fill-rule:evenodd; fill:#000000" d="M 206.598 136.491L 206.598 143.393C 206.598 143.991 206.406 144.186 205.82 144.186C 205.789 144.186 205.789 144.186 205.594 144.186L 205.594 144.952C 205.711 144.971 205.77 144.983 205.922 144.983C 207.023 144.983 207.598 144.549 207.598 143.737L 207.598 136.487L 206.598 136.491zM 207.598 134.092L 206.598 134.092L 206.598 135.291L 207.598 135.291L 207.598 134.092z"/>
<path style="stroke:none; fill-rule:evenodd; fill:#000000" d="M 214 142.526L 214 136.495L 213 136.495L 213 139.94C 213 141.178 212.355 141.991 211.352 141.991C 210.59 141.991 210.105 141.53 210.105 140.799L 210.105 136.495L 209.105 136.495L 209.105 141.147C 209.105 142.147 209.844 142.791 211.008 142.791C 211.883 142.791 212.441 142.483 213 141.69L 213 142.53L 214 142.526z"/>
<path style="stroke:none; fill-rule:evenodd; fill:#000000" d="M 215.598 136.463L 215.598 142.487L 216.598 142.487L 216.598 139.139C 216.598 137.901 217.223 137.088 218.188 137.088C 218.926 137.088 219.395 137.549 219.395 138.28L 219.395 142.483L 220.395 142.483L 220.395 137.928C 220.395 136.928 219.652 136.284 218.492 136.284C 217.598 136.284 217.027 136.627 216.5 137.467L 216.5 136.455L 215.598 136.463z"/>
<path style="stroke:none; fill-rule:evenodd; fill:#000000" d="M 226.504 138.498C 226.457 137.909 226.332 137.53 226.105 137.194C 225.699 136.631 224.98 136.295 224.152 136.295C 222.551 136.295 221.504 137.588 221.504 139.6C 221.504 141.553 222.527 142.787 224.141 142.787C 225.559 142.787 226.457 141.916 226.574 140.424L 225.625 140.424C 225.469 141.401 224.98 141.889 224.176 141.889C 223.133 141.889 222.508 141.026 222.508 139.6C 222.508 138.092 223.117 137.194 224.152 137.194C 224.945 137.194 225.445 137.662 225.555 138.498L 226.504 138.498z"/>
<path style="stroke:none; fill-rule:evenodd; fill:#000000" d="M 229.797 136.491L 228.898 136.491L 228.898 134.83L 227.898 134.83L 227.898 136.491L 227 136.491L 227 137.287L 227.898 137.287L 227.898 141.834C 227.898 142.44 228.301 142.784 229.031 142.784C 229.254 142.784 229.48 142.76 229.793 142.702L 229.793 141.866C 229.68 141.952 229.543 141.983 229.375 141.983C 229 141.983 228.895 141.87 228.895 141.44L 228.895 137.287L 229.793 137.287L 229.797 136.491z"/>
<path style="stroke:none; fill-rule:evenodd; fill:#000000" d="M 231.797 136.491L 230.797 136.491L 230.797 142.491L 231.797 142.491L 231.797 136.491zM 231.797 134.092L 230.797 134.092L 230.797 135.33L 231.797 135.33L 231.797 134.092z"/>
<path style="stroke:none; fill-rule:evenodd; fill:#000000" d="M 235.867 142.491L 238.172 136.491L 237.094 136.491L 235.398 141.354L 233.793 136.491L 232.715 136.491L 234.824 142.491L 235.867 142.491z"/>
<path style="stroke:none; fill-rule:evenodd; fill:#000000" d="M 244.297 139.791C 244.297 138.873 244.23 138.323 244.059 137.877C 243.672 136.893 242.758 136.295 241.641 136.295C 239.977 136.295 238.902 137.588 238.902 139.577C 238.902 141.565 239.938 142.787 241.609 142.787C 242.973 142.787 243.918 141.995 244.156 140.666L 243.203 140.666C 242.945 141.467 242.41 141.889 241.648 141.889C 241.047 141.889 240.539 141.612 240.219 141.096C 239.992 140.748 239.914 140.397 239.902 139.791L 244.297 139.791zM 239.879 139.026C 239.957 137.916 240.633 137.19 241.598 137.19C 242.535 137.19 243.258 137.967 243.258 138.955C 243.258 138.975 243.258 138.998 243.25 139.022L 239.879 139.026z"/>
<path style="stroke:none; fill-rule:evenodd; fill:#000000" d="M 248.699 136.463L 248.699 142.487L 249.699 142.487L 249.699 139.354C 249.699 138.491 249.91 137.924 250.359 137.592C 250.648 137.373 250.93 137.307 251.578 137.295L 251.578 136.33C 251.422 136.311 251.344 136.299 251.219 136.299C 250.609 136.299 250.145 136.666 249.602 137.565L 249.602 136.475L 248.699 136.463z"/>
<path style="stroke:none; fill-rule:evenodd; fill:#000000" d="M 257.598 139.791C 257.598 138.873 257.531 138.323 257.359 137.877C 256.973 136.893 256.059 136.295 254.941 136.295C 253.277 136.295 252.203 137.588 252.203 139.577C 252.203 141.565 253.238 142.787 254.91 142.787C 256.273 142.787 257.219 141.995 257.457 140.666L 256.504 140.666C 256.246 141.467 255.711 141.889 254.949 141.889C 254.348 141.889 253.84 141.612 253.52 141.096C 253.293 140.748 253.215 140.397 253.203 139.791L 257.598 139.791zM 253.18 139.026C 253.258 137.916 253.934 137.19 254.898 137.19C 255.836 137.19 256.559 137.967 256.559 138.955C 256.559 138.975 256.559 138.998 256.551 139.022L 253.18 139.026z"/>
<path style="stroke:none; fill-rule:evenodd; fill:#000000" d="M 258.699 144.991L 259.699 144.991L 259.699 141.889C 260.199 142.51 260.762 142.787 261.539 142.787C 263.082 142.787 264.098 141.53 264.098 139.6C 264.098 137.569 263.113 136.295 261.516 136.295C 260.703 136.295 260.047 136.662 259.602 137.373L 259.602 136.467L 258.703 136.467L 258.699 144.991zM 261.363 137.19C 262.41 137.19 263.094 138.127 263.094 139.573C 263.094 140.948 262.398 141.885 261.363 141.885C 260.359 141.885 259.699 140.959 259.699 139.537C 259.699 138.116 260.359 137.19 261.363 137.19z"/>
<path style="stroke:none; fill-rule:evenodd; fill:#000000" d="M 269.523 138.155C 269.512 136.967 268.727 136.295 267.328 136.295C 265.918 136.295 265.004 137.022 265.004 138.143C 265.004 139.088 265.492 139.537 266.941 139.885L 267.852 140.104C 268.527 140.264 268.797 140.506 268.797 140.944C 268.797 141.506 268.23 141.889 267.387 141.889C 266.867 141.889 266.43 141.741 266.188 141.483C 266.039 141.311 265.969 141.135 265.91 140.702L 264.895 140.702C 264.938 142.112 265.723 142.787 267.305 142.787C 268.828 142.787 269.797 142.037 269.797 140.873C 269.797 139.975 269.285 139.479 268.07 139.19L 267.137 138.971C 266.344 138.787 266.004 138.534 266.004 138.108C 266.004 137.557 266.5 137.198 267.289 137.198C 268.062 137.198 268.48 137.526 268.504 138.159L 269.523 138.155z"/>
<path style="stroke:none; fill-rule:evenodd; fill:#000000" d="M 186.922 145.592C 185.805 147.1 185.102 149.194 185.102 151.002C 185.102 152.819 185.805 154.912 186.922 156.42L 187.535 156.42C 186.551 154.776 186 152.842 186 151.002C 186 149.174 186.547 147.229 187.535 145.592L 186.922 145.592z"/>
<path style="stroke:none; fill-rule:evenodd; fill:#000000" d="M 188.598 145.592L 188.598 153.991L 189.496 153.991L 189.496 153.225C 189.949 153.948 190.555 154.291 191.391 154.291C 192.965 154.291 193.992 152.987 193.992 150.975C 193.992 149.01 193.016 147.795 191.441 147.795C 190.621 147.795 190.043 148.108 189.598 148.795L 189.598 145.596L 188.598 145.592zM 191.246 148.702C 192.312 148.702 193 149.627 193 151.065C 193 152.428 192.289 153.358 191.246 153.358C 190.238 153.358 189.574 152.44 189.574 151.03C 189.574 149.62 190.238 148.702 191.246 148.702z"/>
<path style="stroke:none; fill-rule:evenodd; fill:#000000" d="M 200.535 153.428C 200.434 153.487 200.387 153.487 200.324 153.487C 199.984 153.487 199.801 153.315 199.801 153.014L 199.801 149.448C 199.801 148.373 199.023 147.791 197.551 147.791C 196.684 147.791 195.965 148.045 195.562 148.495C 195.289 148.803 195.176 149.151 195.152 149.752L 196.098 149.752C 196.176 149.022 196.602 148.69 197.484 148.69C 198.328 148.69 198.801 149.01 198.801 149.588L 198.801 149.842C 198.801 150.245 198.566 150.416 197.824 150.51C 196.5 150.682 196.297 150.729 195.938 150.877C 195.254 151.162 194.906 151.705 194.906 152.491C 194.906 153.584 195.66 154.276 196.871 154.276C 197.625 154.276 198.23 154.002 198.906 153.358C 198.973 153.991 199.27 154.276 199.887 154.276C 200.078 154.276 200.227 154.252 200.535 154.17L 200.535 153.428zM 198.797 152.131C 198.797 152.459 198.707 152.662 198.43 152.932C 198.051 153.295 197.594 153.487 197.047 153.487C 196.324 153.487 195.902 153.123 195.902 152.495C 195.902 151.846 196.312 151.514 197.305 151.362C 198.285 151.221 198.484 151.174 198.797 151.022L 198.797 152.131z"/>
<path style="stroke:none; fill-rule:evenodd; fill:#000000" d="M 206.398 145.592L 205.398 145.592L 205.398 148.737C 205 148.12 204.363 147.795 203.562 147.795C 202.016 147.795 201 149.057 201 150.987C 201 153.034 202.012 154.291 203.652 154.291C 204.488 154.291 205.07 153.975 205.598 153.202L 205.598 153.991L 206.395 153.991L 206.398 145.592zM 203.727 148.69C 204.746 148.69 205.398 149.616 205.398 151.061C 205.398 152.459 204.742 153.385 203.738 153.385C 202.695 153.385 202 152.448 202 151.037C 202 149.627 202.691 148.69 203.727 148.69z"/>
<path style="stroke:none; fill-rule:evenodd; fill:#000000" d="M 215.703 149.998C 215.656 149.409 215.531 149.03 215.305 148.694C 214.898 148.131 214.18 147.795 213.352 147.795C 211.75 147.795 210.703 149.088 210.703 151.1C 210.703 153.053 211.727 154.287 213.34 154.287C 214.758 154.287 215.656 153.416 215.773 151.924L 214.824 151.924C 214.668 152.901 214.18 153.389 213.375 153.389C 212.332 153.389 211.707 152.526 211.707 151.1C 211.707 149.592 212.316 148.694 213.352 148.694C 214.145 148.694 214.645 149.162 214.754 149.998L 215.703 149.998z"/>
<path style="stroke:none; fill-rule:evenodd; fill:#000000" d="M 219.137 147.791C 217.434 147.791 216.402 149.006 216.402 151.041C 216.402 153.073 217.422 154.287 219.152 154.287C 220.855 154.287 221.902 153.077 221.902 151.088C 221.902 148.998 220.895 147.791 219.141 147.791L 219.137 147.791zM 219.148 148.69C 220.242 148.69 220.898 149.577 220.898 151.073C 220.898 152.487 220.223 153.385 219.148 153.385C 218.066 153.385 217.398 152.498 217.398 151.037C 217.398 149.588 218.062 148.69 219.148 148.69z"/>
<path style="stroke:none; fill-rule:evenodd; fill:#000000" d="M 223.199 147.963L 223.199 153.987L 224.199 153.987L 224.199 150.178C 224.199 149.299 224.824 148.592 225.594 148.592C 226.297 148.592 226.695 149.03 226.695 149.807L 226.695 153.987L 227.695 153.987L 227.695 150.178C 227.695 149.299 228.32 148.592 229.09 148.592C 229.781 148.592 230.191 149.041 230.191 149.807L 230.191 153.987L 231.191 153.987L 231.191 149.467C 231.191 148.389 230.57 147.787 229.438 147.787C 228.633 147.787 228.145 148.03 227.582 148.721C 227.227 148.069 226.742 147.787 225.957 147.787C 225.152 147.787 224.621 148.084 224.102 148.811L 224.102 147.963L 223.199 147.963z"/>
<path style="stroke:none; fill-rule:evenodd; fill:#000000" d="M 232.598 145.592L 232.598 153.991L 233.496 153.991L 233.496 153.225C 233.949 153.948 234.555 154.291 235.391 154.291C 236.965 154.291 237.992 152.987 237.992 150.975C 237.992 149.01 237.016 147.795 235.441 147.795C 234.621 147.795 234.043 148.108 233.598 148.795L 233.598 145.596L 232.598 145.592zM 235.246 148.702C 236.312 148.702 237 149.627 237 151.065C 237 152.428 236.289 153.358 235.246 153.358C 234.238 153.358 233.574 152.44 233.574 151.03C 233.574 149.62 234.238 148.702 235.246 148.702z"/>
<path style="stroke:none; fill-rule:evenodd; fill:#000000" d="M 240.098 147.991L 239.098 147.991L 239.098 153.991L 240.098 153.991L 240.098 147.991zM 240.098 145.592L 239.098 145.592L 239.098 146.83L 240.098 146.83L 240.098 145.592z"/>
<path style="stroke:none; fill-rule:evenodd; fill:#000000" d="M 241.699 147.963L 241.699 153.987L 242.699 153.987L 242.699 150.639C 242.699 149.401 243.324 148.588 244.289 148.588C 245.027 148.588 245.496 149.049 245.496 149.78L 245.496 153.983L 246.496 153.983L 246.496 149.428C 246.496 148.428 245.754 147.784 244.594 147.784C 243.699 147.784 243.129 148.127 242.602 148.967L 242.602 147.955L 241.699 147.963z"/>
<path style="stroke:none; fill-rule:evenodd; fill:#000000" d="M 253.438 153.428C 253.336 153.487 253.289 153.487 253.227 153.487C 252.887 153.487 252.703 153.315 252.703 153.014L 252.703 149.448C 252.703 148.373 251.926 147.791 250.453 147.791C 249.586 147.791 248.867 148.045 248.465 148.495C 248.191 148.803 248.078 149.151 248.055 149.752L 249 149.752C 249.078 149.022 249.504 148.69 250.387 148.69C 251.23 148.69 251.703 149.01 251.703 149.588L 251.703 149.842C 251.703 150.245 251.469 150.416 250.727 150.51C 249.402 150.682 249.199 150.729 248.84 150.877C 248.156 151.162 247.809 151.705 247.809 152.491C 247.809 153.584 248.562 154.276 249.773 154.276C 250.527 154.276 251.133 154.002 251.809 153.358C 251.875 153.991 252.172 154.276 252.789 154.276C 252.98 154.276 253.129 154.252 253.438 154.17L 253.438 153.428zM 251.699 152.131C 251.699 152.459 251.609 152.662 251.332 152.932C 250.953 153.295 250.496 153.487 249.949 153.487C 249.227 153.487 248.805 153.123 248.805 152.495C 248.805 151.846 249.215 151.514 250.207 151.362C 251.188 151.221 251.387 151.174 251.699 151.022L 251.699 152.131z"/>
<path style="stroke:none; fill-rule:evenodd; fill:#000000" d="M 256.598 147.991L 255.699 147.991L 255.699 146.33L 254.699 146.33L 254.699 147.991L 253.801 147.991L 253.801 148.787L 254.699 148.787L 254.699 153.334C 254.699 153.94 255.102 154.284 255.832 154.284C 256.055 154.284 256.281 154.26 256.594 154.202L 256.594 153.366C 256.48 153.452 256.344 153.483 256.176 153.483C 255.801 153.483 255.695 153.37 255.695 152.94L 255.695 148.787L 256.594 148.787L 256.598 147.991z"/>
<path style="stroke:none; fill-rule:evenodd; fill:#000000" d="M 260.035 147.791C 258.332 147.791 257.301 149.006 257.301 151.041C 257.301 153.073 258.32 154.287 260.051 154.287C 261.754 154.287 262.801 153.077 262.801 151.088C 262.801 148.998 261.793 147.791 260.039 147.791L 260.035 147.791zM 260.047 148.69C 261.141 148.69 261.797 149.577 261.797 151.073C 261.797 152.487 261.121 153.385 260.047 153.385C 258.965 153.385 258.297 152.498 258.297 151.037C 258.297 149.588 258.961 148.69 260.047 148.69z"/>
<path style="stroke:none; fill-rule:evenodd; fill:#000000" d="M 264 147.963L 264 153.987L 265 153.987L 265 150.854C 265 149.991 265.211 149.424 265.66 149.092C 265.949 148.873 266.23 148.807 266.879 148.795L 266.879 147.83C 266.723 147.811 266.645 147.799 266.52 147.799C 265.91 147.799 265.445 148.166 264.902 149.065L 264.902 147.975L 264 147.963z"/>
<path style="stroke:none; fill-rule:evenodd; fill:#000000" d="M 268.797 147.991L 267.797 147.991L 267.797 153.991L 268.797 153.991L 268.797 147.991zM 268.797 145.592L 267.797 145.592L 267.797 146.83L 268.797 146.83L 268.797 145.592z"/>
<path style="stroke:none; fill-rule:evenodd; fill:#000000" d="M 275.734 153.428C 275.633 153.487 275.586 153.487 275.523 153.487C 275.184 153.487 275 153.315 275 153.014L 275 149.448C 275 148.373 274.223 147.791 272.75 147.791C 271.883 147.791 271.164 148.045 270.762 148.495C 270.488 148.803 270.375 149.151 270.352 149.752L 271.297 149.752C 271.375 149.022 271.801 148.69 272.684 148.69C 273.527 148.69 274 149.01 274 149.588L 274 149.842C 274 150.245 273.766 150.416 273.023 150.51C 271.699 150.682 271.496 150.729 271.137 150.877C 270.453 151.162 270.105 151.705 270.105 152.491C 270.105 153.584 270.859 154.276 272.07 154.276C 272.824 154.276 273.43 154.002 274.105 153.358C 274.172 153.991 274.469 154.276 275.086 154.276C 275.277 154.276 275.426 154.252 275.734 154.17L 275.734 153.428zM 274 152.131C 274 152.459 273.91 152.662 273.633 152.932C 273.254 153.295 272.797 153.487 272.25 153.487C 271.527 153.487 271.105 153.123 271.105 152.495C 271.105 151.846 271.516 151.514 272.508 151.362C 273.488 151.221 273.688 151.174 274 151.022L 274 152.131z"/>
<path style="stroke:none; fill-rule:evenodd; fill:#000000" d="M 276.797 153.991L 277.797 153.991L 277.797 145.592L 276.797 145.592L 276.797 153.991z"/>
<path style="stroke:none; fill-rule:evenodd; fill:#000000" d="M 192.098 159.491L 192.098 160.35C 191.617 159.631 191.031 159.291 190.262 159.291C 188.734 159.291 187.703 160.631 187.703 162.596C 187.703 163.588 187.965 164.397 188.457 164.975C 188.902 165.483 189.543 165.784 190.176 165.784C 190.93 165.784 191.457 165.455 191.996 164.67L 191.996 164.979C 191.996 165.791 191.895 166.287 191.656 166.619C 191.406 166.975 190.918 167.178 190.34 167.178C 189.91 167.178 189.523 167.065 189.262 166.858C 189.047 166.686 188.957 166.526 188.898 166.17L 187.934 166.17C 188.035 167.303 188.918 167.979 190.324 167.979C 191.215 167.979 191.98 167.694 192.371 167.213C 192.828 166.666 193 165.909 193 164.502L 193 159.487L 192.098 159.491zM 190.359 160.19C 191.387 160.19 191.996 161.065 191.996 162.573C 191.996 164.01 191.379 164.885 190.371 164.885C 189.328 164.885 188.699 163.998 188.699 162.537C 188.699 161.088 189.34 160.19 190.359 160.19z"/>
<path style="stroke:none; fill-rule:evenodd; fill:#000000" d="M 199.598 162.791C 199.598 161.873 199.531 161.323 199.359 160.877C 198.973 159.893 198.059 159.295 196.941 159.295C 195.277 159.295 194.203 160.588 194.203 162.577C 194.203 164.565 195.238 165.787 196.91 165.787C 198.273 165.787 199.219 164.995 199.457 163.666L 198.504 163.666C 198.246 164.467 197.711 164.889 196.949 164.889C 196.348 164.889 195.84 164.612 195.52 164.096C 195.293 163.748 195.215 163.397 195.203 162.791L 199.598 162.791zM 195.18 162.026C 195.258 160.916 195.934 160.19 196.898 160.19C 197.836 160.19 198.559 160.967 198.559 161.955C 198.559 161.975 198.559 161.998 198.551 162.022L 195.18 162.026z"/>
<path style="stroke:none; fill-rule:evenodd; fill:#000000" d="M 200.898 159.463L 200.898 165.487L 201.898 165.487L 201.898 162.139C 201.898 160.901 202.523 160.088 203.488 160.088C 204.227 160.088 204.695 160.549 204.695 161.28L 204.695 165.483L 205.695 165.483L 205.695 160.928C 205.695 159.928 204.953 159.284 203.793 159.284C 202.898 159.284 202.328 159.627 201.801 160.467L 201.801 159.455L 200.898 159.463z"/>
<path style="stroke:none; fill-rule:evenodd; fill:#000000" d="M 212.398 162.791C 212.398 161.873 212.332 161.323 212.16 160.877C 211.773 159.893 210.859 159.295 209.742 159.295C 208.078 159.295 207.004 160.588 207.004 162.577C 207.004 164.565 208.039 165.787 209.711 165.787C 211.074 165.787 212.02 164.995 212.258 163.666L 211.305 163.666C 211.047 164.467 210.512 164.889 209.75 164.889C 209.148 164.889 208.641 164.612 208.32 164.096C 208.094 163.748 208.016 163.397 208.004 162.791L 212.398 162.791zM 207.977 162.026C 208.055 160.916 208.73 160.19 209.695 160.19C 210.633 160.19 211.355 160.967 211.355 161.955C 211.355 161.975 211.355 161.998 211.348 162.022L 207.977 162.026z"/>
<path style="stroke:none; fill-rule:evenodd; fill:#000000" d="M 213.699 159.463L 213.699 165.487L 214.699 165.487L 214.699 162.354C 214.699 161.491 214.91 160.924 215.359 160.592C 215.648 160.373 215.93 160.307 216.578 160.295L 216.578 159.33C 216.422 159.311 216.344 159.299 216.219 159.299C 215.609 159.299 215.145 159.666 214.602 160.565L 214.602 159.475L 213.699 159.463z"/>
<path style="stroke:none; fill-rule:evenodd; fill:#000000" d="M 222.836 164.928C 222.734 164.987 222.688 164.987 222.625 164.987C 222.285 164.987 222.102 164.815 222.102 164.514L 222.102 160.948C 222.102 159.873 221.324 159.291 219.852 159.291C 218.984 159.291 218.266 159.545 217.863 159.995C 217.59 160.303 217.477 160.651 217.453 161.252L 218.398 161.252C 218.477 160.522 218.902 160.19 219.785 160.19C 220.629 160.19 221.102 160.51 221.102 161.088L 221.102 161.342C 221.102 161.745 220.867 161.916 220.125 162.01C 218.801 162.182 218.598 162.229 218.238 162.377C 217.555 162.662 217.207 163.205 217.207 163.991C 217.207 165.084 217.961 165.776 219.172 165.776C 219.926 165.776 220.531 165.502 221.207 164.858C 221.273 165.491 221.57 165.776 222.188 165.776C 222.379 165.776 222.527 165.752 222.836 165.67L 222.836 164.928zM 221.098 163.631C 221.098 163.959 221.008 164.162 220.73 164.432C 220.352 164.795 219.895 164.987 219.348 164.987C 218.625 164.987 218.203 164.623 218.203 163.995C 218.203 163.346 218.613 163.014 219.605 162.862C 220.586 162.721 220.785 162.674 221.098 162.522L 221.098 163.631z"/>
<path style="stroke:none; fill-rule:evenodd; fill:#000000" d="M 223.898 165.491L 224.898 165.491L 224.898 157.092L 223.898 157.092L 223.898 165.491z"/>
<path style="stroke:none; fill-rule:evenodd; fill:#000000" d="M 227.297 159.491L 226.297 159.491L 226.297 165.491L 227.297 165.491L 227.297 159.491zM 227.297 157.092L 226.297 157.092L 226.297 158.33L 227.297 158.33L 227.297 157.092z"/>
<path style="stroke:none; fill-rule:evenodd; fill:#000000" d="M 233.297 159.491L 228.797 159.491L 228.797 160.287L 232.141 160.287L 228.496 164.62L 228.496 165.483L 233.395 165.483L 233.395 164.686L 229.711 164.686L 233.297 160.287L 233.297 159.491z"/>
<path style="stroke:none; fill-rule:evenodd; fill:#000000" d="M 240.035 164.928C 239.934 164.987 239.887 164.987 239.824 164.987C 239.484 164.987 239.301 164.815 239.301 164.514L 239.301 160.948C 239.301 159.873 238.523 159.291 237.051 159.291C 236.184 159.291 235.465 159.545 235.062 159.995C 234.789 160.303 234.676 160.651 234.652 161.252L 235.598 161.252C 235.676 160.522 236.102 160.19 236.984 160.19C 237.828 160.19 238.301 160.51 238.301 161.088L 238.301 161.342C 238.301 161.745 238.066 161.916 237.324 162.01C 236 162.182 235.797 162.229 235.438 162.377C 234.754 162.662 234.406 163.205 234.406 163.991C 234.406 165.084 235.16 165.776 236.371 165.776C 237.125 165.776 237.73 165.502 238.406 164.858C 238.473 165.491 238.77 165.776 239.387 165.776C 239.578 165.776 239.727 165.752 240.035 165.67L 240.035 164.928zM 238.297 163.631C 238.297 163.959 238.207 164.162 237.93 164.432C 237.551 164.795 237.094 164.987 236.547 164.987C 235.824 164.987 235.402 164.623 235.402 163.995C 235.402 163.346 235.812 163.014 236.805 162.862C 237.785 162.721 237.984 162.674 238.297 162.522L 238.297 163.631z"/>
<path style="stroke:none; fill-rule:evenodd; fill:#000000" d="M 243.199 159.491L 242.301 159.491L 242.301 157.83L 241.301 157.83L 241.301 159.491L 240.402 159.491L 240.402 160.287L 241.301 160.287L 241.301 164.834C 241.301 165.44 241.703 165.784 242.434 165.784C 242.656 165.784 242.883 165.76 243.195 165.702L 243.195 164.866C 243.082 164.952 242.945 164.983 242.777 164.983C 242.402 164.983 242.297 164.87 242.297 164.44L 242.297 160.287L 243.195 160.287L 243.199 159.491z"/>
<path style="stroke:none; fill-rule:evenodd; fill:#000000" d="M 245.199 159.491L 244.199 159.491L 244.199 165.491L 245.199 165.491L 245.199 159.491zM 245.199 157.092L 244.199 157.092L 244.199 158.33L 245.199 158.33L 245.199 157.092z"/>
<path style="stroke:none; fill-rule:evenodd; fill:#000000" d="M 249.137 159.291C 247.434 159.291 246.402 160.506 246.402 162.541C 246.402 164.573 247.422 165.787 249.152 165.787C 250.855 165.787 251.902 164.577 251.902 162.588C 251.902 160.498 250.895 159.291 249.141 159.291L 249.137 159.291zM 249.148 160.19C 250.242 160.19 250.898 161.077 250.898 162.573C 250.898 163.987 250.223 164.885 249.148 164.885C 248.066 164.885 247.398 163.998 247.398 162.537C 247.398 161.088 248.062 160.19 249.148 160.19z"/>
<path style="stroke:none; fill-rule:evenodd; fill:#000000" d="M 253.199 159.463L 253.199 165.487L 254.199 165.487L 254.199 162.139C 254.199 160.901 254.824 160.088 255.789 160.088C 256.527 160.088 256.996 160.549 256.996 161.28L 256.996 165.483L 257.996 165.483L 257.996 160.928C 257.996 159.928 257.254 159.284 256.094 159.284C 255.199 159.284 254.629 159.627 254.102 160.467L 254.102 159.455L 253.199 159.463z"/>
<path style="stroke:none; fill-rule:evenodd; fill:#000000" d="M 259.855 167.924C 260.984 166.416 261.695 164.323 261.695 162.518C 261.695 160.702 260.984 158.608 259.855 157.096L 259.234 157.096C 260.238 158.741 260.797 160.674 260.797 162.518C 260.797 164.346 260.238 166.291 259.234 167.924L 259.855 167.924z"/>
<path style="stroke:none; fill-rule:evenodd; fill:#000000" d="M 41.7344 141.928C 41.6328 141.987 41.5859 141.987 41.5234 141.987C 41.1836 141.987 41 141.815 41 141.514L 41 137.948C 41 136.873 40.2227 136.291 38.75 136.291C 37.8828 136.291 37.1641 136.545 36.7617 136.995C 36.4883 137.303 36.375 137.651 36.3516 138.252L 37.2969 138.252C 37.375 137.522 37.8008 137.19 38.6836 137.19C 39.5273 137.19 40 137.51 40 138.088L 40 138.342C 40 138.745 39.7656 138.916 39.0234 139.01C 37.6992 139.182 37.4961 139.229 37.1367 139.377C 36.4531 139.662 36.1055 140.205 36.1055 140.991C 36.1055 142.084 36.8594 142.776 38.0703 142.776C 38.8242 142.776 39.4297 142.502 40.1055 141.858C 40.1719 142.491 40.4688 142.776 41.0859 142.776C 41.2773 142.776 41.4258 142.752 41.7344 142.67L 41.7344 141.928zM 40 140.631C 40 140.959 39.9102 141.162 39.6328 141.432C 39.2539 141.795 38.7969 141.987 38.25 141.987C 37.5273 141.987 37.1055 141.623 37.1055 140.995C 37.1055 140.346 37.5156 140.014 38.5078 139.862C 39.4883 139.721 39.6875 139.674 40 139.522L 40 140.631z"/>
<path style="stroke:none; fill-rule:evenodd; fill:#000000" d="M 43.0547 144.924C 44.1836 143.416 44.8945 141.323 44.8945 139.518C 44.8945 137.702 44.1836 135.608 43.0547 134.096L 42.4336 134.096C 43.4375 135.741 43.9961 137.674 43.9961 139.518C 43.9961 141.346 43.4375 143.291 42.4336 144.924L 43.0547 144.924z"/>
<path style="stroke:none; fill-rule:evenodd; fill:#000000" d="M 51.0977 138.69L 55.6523 138.69L 55.6523 137.791L 51.0977 137.791L 51.0977 134.995L 55.7969 134.995L 55.7969 134.096L 50 134.096L 50 142.495L 56 142.495L 56 141.596L 51.1016 141.596L 51.0977 138.69z"/>
<path style="stroke:none; fill-rule:evenodd; fill:#000000" d="M 57.5 142.491L 58.5 142.491L 58.5 134.092L 57.5 134.092L 57.5 142.491z"/>
<path style="stroke:none; fill-rule:evenodd; fill:#000000" d="M 65.0977 139.791C 65.0977 138.873 65.0312 138.323 64.8594 137.877C 64.4727 136.893 63.5586 136.295 62.4414 136.295C 60.7773 136.295 59.7031 137.588 59.7031 139.577C 59.7031 141.565 60.7383 142.787 62.4102 142.787C 63.7734 142.787 64.7188 141.995 64.957 140.666L 64.0039 140.666C 63.7461 141.467 63.2109 141.889 62.4492 141.889C 61.8477 141.889 61.3398 141.612 61.0195 141.096C 60.793 140.748 60.7148 140.397 60.7031 139.791L 65.0977 139.791zM 60.6797 139.026C 60.7578 137.916 61.4336 137.19 62.3984 137.19C 63.3359 137.19 64.0586 137.967 64.0586 138.955C 64.0586 138.975 64.0586 138.998 64.0508 139.022L 60.6797 139.026z"/>
<path style="stroke:none; fill-rule:evenodd; fill:#000000" d="M 66.3984 136.463L 66.3984 142.487L 67.3984 142.487L 67.3984 138.678C 67.3984 137.799 68.0234 137.092 68.793 137.092C 69.4961 137.092 69.8945 137.53 69.8945 138.307L 69.8945 142.487L 70.8945 142.487L 70.8945 138.678C 70.8945 137.799 71.5195 137.092 72.2891 137.092C 72.9805 137.092 73.3906 137.541 73.3906 138.307L 73.3906 142.487L 74.3906 142.487L 74.3906 137.967C 74.3906 136.889 73.7695 136.287 72.6367 136.287C 71.832 136.287 71.3438 136.53 70.7812 137.221C 70.4258 136.569 69.9414 136.287 69.1562 136.287C 68.3516 136.287 67.8203 136.584 67.3008 137.311L 67.3008 136.463L 66.3984 136.463z"/>
<path style="stroke:none; fill-rule:evenodd; fill:#000000" d="M 81.0977 139.791C 81.0977 138.873 81.0312 138.323 80.8594 137.877C 80.4727 136.893 79.5586 136.295 78.4414 136.295C 76.7773 136.295 75.7031 137.588 75.7031 139.577C 75.7031 141.565 76.7383 142.787 78.4102 142.787C 79.7734 142.787 80.7188 141.995 80.957 140.666L 80.0039 140.666C 79.7461 141.467 79.2109 141.889 78.4492 141.889C 77.8477 141.889 77.3398 141.612 77.0195 141.096C 76.793 140.748 76.7148 140.397 76.7031 139.791L 81.0977 139.791zM 76.6797 139.026C 76.7578 137.916 77.4336 137.19 78.3984 137.19C 79.3359 137.19 80.0586 137.967 80.0586 138.955C 80.0586 138.975 80.0586 138.998 80.0508 139.022L 76.6797 139.026z"/>
<path style="stroke:none; fill-rule:evenodd; fill:#000000" d="M 82.2969 136.463L 82.2969 142.487L 83.2969 142.487L 83.2969 139.139C 83.2969 137.901 83.9219 137.088 84.887 137.088C 85.625 137.088 86.094 137.549 86.094 138.28L 86.094 142.483L 87.094 142.483L 87.094 137.928C 87.094 136.928 86.352 136.284 85.191 136.284C 84.297 136.284 83.7266 136.627 83.1992 137.467L 83.1992 136.455L 82.2969 136.463z"/>
<path style="stroke:none; fill-rule:evenodd; fill:#000000" d="M 90.797 136.491L 89.898 136.491L 89.898 134.83L 88.898 134.83L 88.898 136.491L 88 136.491L 88 137.287L 88.898 137.287L 88.898 141.834C 88.898 142.44 89.301 142.784 90.031 142.784C 90.254 142.784 90.48 142.76 90.793 142.702L 90.793 141.866C 90.68 141.952 90.543 141.983 90.375 141.983C 90 141.983 89.895 141.87 89.895 141.44L 89.895 137.287L 90.793 137.287L 90.797 136.491z"/>
<path style="stroke:none; fill-rule:evenodd; fill:#000000" d="M 97.234 141.928C 97.133 141.987 97.086 141.987 97.023 141.987C 96.684 141.987 96.5 141.815 96.5 141.514L 96.5 137.948C 96.5 136.873 95.723 136.291 94.25 136.291C 93.383 136.291 92.664 136.545 92.262 136.995C 91.988 137.303 91.875 137.651 91.852 138.252L 92.797 138.252C 92.875 137.522 93.301 137.19 94.184 137.19C 95.027 137.19 95.5 137.51 95.5 138.088L 95.5 138.342C 95.5 138.745 95.266 138.916 94.523 139.01C 93.199 139.182 92.996 139.229 92.637 139.377C 91.953 139.662 91.605 140.205 91.605 140.991C 91.605 142.084 92.359 142.776 93.57 142.776C 94.324 142.776 94.93 142.502 95.605 141.858C 95.672 142.491 95.969 142.776 96.586 142.776C 96.777 142.776 96.926 142.752 97.234 142.67L 97.234 141.928zM 95.5 140.631C 95.5 140.959 95.41 141.162 95.133 141.432C 94.754 141.795 94.297 141.987 93.75 141.987C 93.027 141.987 92.605 141.623 92.605 140.995C 92.605 140.346 93.016 140.014 94.008 139.862C 94.988 139.721 95.188 139.674 95.5 139.522L 95.5 140.631z"/>
<path style="stroke:none; fill-rule:evenodd; fill:#000000" d="M 98.297 142.491L 99.297 142.491L 99.297 134.092L 98.297 134.092L 98.297 142.491z"/>
<path style="stroke:none; fill-rule:evenodd; fill:#000000" d="M 104 136.463L 104 142.487L 105 142.487L 105 139.354C 105 138.491 105.211 137.924 105.66 137.592C 105.949 137.373 106.23 137.307 106.879 137.295L 106.879 136.33C 106.723 136.311 106.645 136.299 106.52 136.299C 105.91 136.299 105.445 136.666 104.902 137.565L 104.902 136.475L 104 136.463z"/>
<path style="stroke:none; fill-rule:evenodd; fill:#000000" d="M 112.898 139.791C 112.898 138.873 112.832 138.323 112.66 137.877C 112.273 136.893 111.359 136.295 110.242 136.295C 108.578 136.295 107.504 137.588 107.504 139.577C 107.504 141.565 108.539 142.787 110.211 142.787C 111.574 142.787 112.52 141.995 112.758 140.666L 111.805 140.666C 111.547 141.467 111.012 141.889 110.25 141.889C 109.648 141.889 109.141 141.612 108.82 141.096C 108.594 140.748 108.516 140.397 108.504 139.791L 112.898 139.791zM 108.477 139.026C 108.555 137.916 109.23 137.19 110.195 137.19C 111.133 137.19 111.855 137.967 111.855 138.955C 111.855 138.975 111.855 138.998 111.848 139.022L 108.477 139.026z"/>
<path style="stroke:none; fill-rule:evenodd; fill:#000000" d="M 114 144.991L 115 144.991L 115 141.889C 115.5 142.51 116.062 142.787 116.84 142.787C 118.383 142.787 119.398 141.53 119.398 139.6C 119.398 137.569 118.414 136.295 116.816 136.295C 116.004 136.295 115.348 136.662 114.902 137.373L 114.902 136.467L 114.004 136.467L 114 144.991zM 116.664 137.19C 117.711 137.19 118.395 138.127 118.395 139.573C 118.395 140.948 117.699 141.885 116.664 141.885C 115.66 141.885 115 140.959 115 139.537C 115 138.116 115.66 137.19 116.664 137.19z"/>
<path style="stroke:none; fill-rule:evenodd; fill:#000000" d="M 124.824 138.155C 124.812 136.967 124.027 136.295 122.629 136.295C 121.219 136.295 120.305 137.022 120.305 138.143C 120.305 139.088 120.793 139.537 122.242 139.885L 123.152 140.104C 123.828 140.264 124.098 140.506 124.098 140.944C 124.098 141.506 123.531 141.889 122.688 141.889C 122.168 141.889 121.73 141.741 121.488 141.483C 121.34 141.311 121.27 141.135 121.211 140.702L 120.195 140.702C 120.238 142.112 121.023 142.787 122.605 142.787C 124.129 142.787 125.098 142.037 125.098 140.873C 125.098 139.975 124.586 139.479 123.371 139.19L 122.438 138.971C 121.645 138.787 121.305 138.534 121.305 138.108C 121.305 137.557 121.801 137.198 122.59 137.198C 123.363 137.198 123.781 137.526 123.805 138.159L 124.824 138.155z"/>
<path style="stroke:none; fill-rule:evenodd; fill:#000000" d="M 51.1211 145.592C 50.0039 147.1 49.3008 149.194 49.3008 151.002C 49.3008 152.819 50.0039 154.912 51.1211 156.42L 51.7344 156.42C 50.75 154.776 50.1992 152.842 50.1992 151.002C 50.1992 149.174 50.7461 147.229 51.7344 145.592L 51.1211 145.592z"/>
<path style="stroke:none; fill-rule:evenodd; fill:#000000" d="M 56.8984 147.991L 56.8984 148.85C 56.418 148.131 55.832 147.791 55.0625 147.791C 53.5352 147.791 52.5039 149.131 52.5039 151.096C 52.5039 152.088 52.7656 152.897 53.2578 153.475C 53.7031 153.983 54.3438 154.284 54.9766 154.284C 55.7305 154.284 56.2578 153.955 56.7969 153.17L 56.7969 153.479C 56.7969 154.291 56.6953 154.787 56.457 155.12C 56.207 155.475 55.7188 155.678 55.1406 155.678C 54.7109 155.678 54.3242 155.565 54.0625 155.358C 53.8477 155.186 53.7578 155.026 53.6992 154.67L 52.7344 154.67C 52.8359 155.803 53.7188 156.479 55.125 156.479C 56.0156 156.479 56.7812 156.194 57.1719 155.713C 57.6289 155.166 57.8008 154.409 57.8008 153.002L 57.8008 147.987L 56.8984 147.991zM 55.1602 148.69C 56.1875 148.69 56.7969 149.565 56.7969 151.073C 56.7969 152.51 56.1797 153.385 55.1719 153.385C 54.1289 153.385 53.5 152.498 53.5 151.037C 53.5 149.588 54.1406 148.69 55.1602 148.69z"/>
<path style="stroke:none; fill-rule:evenodd; fill:#000000" d="M 61.7344 147.791C 60.0312 147.791 59 149.006 59 151.041C 59 153.073 60.0195 154.287 61.75 154.287C 63.4531 154.287 64.5 153.077 64.5 151.088C 64.5 148.998 63.4922 147.791 61.7383 147.791L 61.7344 147.791zM 61.75 148.69C 62.8438 148.69 63.5 149.577 63.5 151.073C 63.5 152.487 62.8242 153.385 61.75 153.385C 60.668 153.385 60 152.498 60 151.037C 60 149.588 60.6641 148.69 61.75 148.69z"/>
<path style="stroke:none; fill-rule:evenodd; fill:#000000" d="M 68.1367 147.791C 66.4336 147.791 65.4023 149.006 65.4023 151.041C 65.4023 153.073 66.4219 154.287 68.1523 154.287C 69.8555 154.287 70.9023 153.077 70.9023 151.088C 70.9023 148.998 69.8945 147.791 68.1406 147.791L 68.1367 147.791zM 68.1484 148.69C 69.2422 148.69 69.8984 149.577 69.8984 151.073C 69.8984 152.487 69.2227 153.385 68.1484 153.385C 67.0664 153.385 66.3984 152.498 66.3984 151.037C 66.3984 149.588 67.0625 148.69 68.1484 148.69z"/>
<path style="stroke:none; fill-rule:evenodd; fill:#000000" d="M 77 145.592L 76 145.592L 76 148.737C 75.6016 148.12 74.9648 147.795 74.1641 147.795C 72.6172 147.795 71.6016 149.057 71.6016 150.987C 71.6016 153.034 72.6133 154.291 74.2539 154.291C 75.0898 154.291 75.6719 153.975 76.1992 153.202L 76.1992 153.991L 76.9961 153.991L 77 145.592zM 74.3281 148.69C 75.3477 148.69 76 149.616 76 151.061C 76 152.459 75.3438 153.385 74.3398 153.385C 73.2969 153.385 72.6016 152.448 72.6016 151.037C 72.6016 149.627 73.293 148.69 74.3281 148.69z"/>
<path style="stroke:none; fill-rule:evenodd; fill:#000000" d="M 86.301 149.998C 86.254 149.409 86.129 149.03 85.902 148.694C 85.496 148.131 84.777 147.795 83.9492 147.795C 82.3477 147.795 81.3008 149.088 81.3008 151.1C 81.3008 153.053 82.3242 154.287 83.9375 154.287C 85.355 154.287 86.254 153.416 86.371 151.924L 85.422 151.924C 85.266 152.901 84.777 153.389 83.9727 153.389C 82.9297 153.389 82.3047 152.526 82.3047 151.1C 82.3047 149.592 82.9141 148.694 83.9492 148.694C 84.742 148.694 85.242 149.162 85.352 149.998L 86.301 149.998z"/>
<path style="stroke:none; fill-rule:evenodd; fill:#000000" d="M 89.836 147.791C 88.133 147.791 87.102 149.006 87.102 151.041C 87.102 153.073 88.121 154.287 89.852 154.287C 91.555 154.287 92.602 153.077 92.602 151.088C 92.602 148.998 91.594 147.791 89.84 147.791L 89.836 147.791zM 89.848 148.69C 90.941 148.69 91.598 149.577 91.598 151.073C 91.598 152.487 90.922 153.385 89.848 153.385C 88.766 153.385 88.098 152.498 88.098 151.037C 88.098 149.588 88.762 148.69 89.848 148.69z"/>
<path style="stroke:none; fill-rule:evenodd; fill:#000000" d="M 93.797 147.963L 93.797 153.987L 94.797 153.987L 94.797 150.178C 94.797 149.299 95.422 148.592 96.191 148.592C 96.895 148.592 97.293 149.03 97.293 149.807L 97.293 153.987L 98.293 153.987L 98.293 150.178C 98.293 149.299 98.918 148.592 99.688 148.592C 100.379 148.592 100.789 149.041 100.789 149.807L 100.789 153.987L 101.789 153.987L 101.789 149.467C 101.789 148.389 101.168 147.787 100.035 147.787C 99.23 147.787 98.742 148.03 98.18 148.721C 97.824 148.069 97.34 147.787 96.555 147.787C 95.75 147.787 95.219 148.084 94.699 148.811L 94.699 147.963L 93.797 147.963z"/>
<path style="stroke:none; fill-rule:evenodd; fill:#000000" d="M 103.199 145.592L 103.199 153.991L 104.098 153.991L 104.098 153.225C 104.551 153.948 105.156 154.291 105.992 154.291C 107.566 154.291 108.594 152.987 108.594 150.975C 108.594 149.01 107.617 147.795 106.043 147.795C 105.223 147.795 104.645 148.108 104.199 148.795L 104.199 145.596L 103.199 145.592zM 105.844 148.702C 106.91 148.702 107.598 149.627 107.598 151.065C 107.598 152.428 106.887 153.358 105.844 153.358C 104.836 153.358 104.172 152.44 104.172 151.03C 104.172 149.62 104.836 148.702 105.844 148.702z"/>
<path style="stroke:none; fill-rule:evenodd; fill:#000000" d="M 110.699 147.991L 109.699 147.991L 109.699 153.991L 110.699 153.991L 110.699 147.991zM 110.699 145.592L 109.699 145.592L 109.699 146.83L 110.699 146.83L 110.699 145.592z"/>
<path style="stroke:none; fill-rule:evenodd; fill:#000000" d="M 112.297 147.963L 112.297 153.987L 113.297 153.987L 113.297 150.639C 113.297 149.401 113.922 148.588 114.887 148.588C 115.625 148.588 116.094 149.049 116.094 149.78L 116.094 153.983L 117.094 153.983L 117.094 149.428C 117.094 148.428 116.352 147.784 115.191 147.784C 114.297 147.784 113.727 148.127 113.199 148.967L 113.199 147.955L 112.297 147.963z"/>
<path style="stroke:none; fill-rule:evenodd; fill:#000000" d="M 124.035 153.428C 123.934 153.487 123.887 153.487 123.824 153.487C 123.484 153.487 123.301 153.315 123.301 153.014L 123.301 149.448C 123.301 148.373 122.523 147.791 121.051 147.791C 120.184 147.791 119.465 148.045 119.062 148.495C 118.789 148.803 118.676 149.151 118.652 149.752L 119.598 149.752C 119.676 149.022 120.102 148.69 120.984 148.69C 121.828 148.69 122.301 149.01 122.301 149.588L 122.301 149.842C 122.301 150.245 122.066 150.416 121.324 150.51C 120 150.682 119.797 150.729 119.438 150.877C 118.754 151.162 118.406 151.705 118.406 152.491C 118.406 153.584 119.16 154.276 120.371 154.276C 121.125 154.276 121.73 154.002 122.406 153.358C 122.473 153.991 122.77 154.276 123.387 154.276C 123.578 154.276 123.727 154.252 124.035 154.17L 124.035 153.428zM 122.297 152.131C 122.297 152.459 122.207 152.662 121.93 152.932C 121.551 153.295 121.094 153.487 120.547 153.487C 119.824 153.487 119.402 153.123 119.402 152.495C 119.402 151.846 119.812 151.514 120.805 151.362C 121.785 151.221 121.984 151.174 122.297 151.022L 122.297 152.131z"/>
<path style="stroke:none; fill-rule:evenodd; fill:#000000" d="M 127.199 147.991L 126.301 147.991L 126.301 146.33L 125.301 146.33L 125.301 147.991L 124.402 147.991L 124.402 148.787L 125.301 148.787L 125.301 153.334C 125.301 153.94 125.703 154.284 126.434 154.284C 126.656 154.284 126.883 154.26 127.195 154.202L 127.195 153.366C 127.082 153.452 126.945 153.483 126.777 153.483C 126.402 153.483 126.297 153.37 126.297 152.94L 126.297 148.787L 127.195 148.787L 127.199 147.991z"/>
<path style="stroke:none; fill-rule:evenodd; fill:#000000" d="M 130.637 147.791C 128.934 147.791 127.902 149.006 127.902 151.041C 127.902 153.073 128.922 154.287 130.652 154.287C 132.355 154.287 133.402 153.077 133.402 151.088C 133.402 148.998 132.395 147.791 130.641 147.791L 130.637 147.791zM 130.648 148.69C 131.742 148.69 132.398 149.577 132.398 151.073C 132.398 152.487 131.723 153.385 130.648 153.385C 129.566 153.385 128.898 152.498 128.898 151.037C 128.898 149.588 129.562 148.69 130.648 148.69z"/>
<path style="stroke:none; fill-rule:evenodd; fill:#000000" d="M 134.598 147.963L 134.598 153.987L 135.598 153.987L 135.598 150.854C 135.598 149.991 135.809 149.424 136.258 149.092C 136.547 148.873 136.828 148.807 137.477 148.795L 137.477 147.83C 137.32 147.811 137.242 147.799 137.117 147.799C 136.508 147.799 136.043 148.166 135.5 149.065L 135.5 147.975L 134.598 147.963z"/>
<path style="stroke:none; fill-rule:evenodd; fill:#000000" d="M 139.398 147.991L 138.398 147.991L 138.398 153.991L 139.398 153.991L 139.398 147.991zM 139.398 145.592L 138.398 145.592L 138.398 146.83L 139.398 146.83L 139.398 145.592z"/>
<path style="stroke:none; fill-rule:evenodd; fill:#000000" d="M 146.336 153.428C 146.234 153.487 146.188 153.487 146.125 153.487C 145.785 153.487 145.602 153.315 145.602 153.014L 145.602 149.448C 145.602 148.373 144.824 147.791 143.352 147.791C 142.484 147.791 141.766 148.045 141.363 148.495C 141.09 148.803 140.977 149.151 140.953 149.752L 141.898 149.752C 141.977 149.022 142.402 148.69 143.285 148.69C 144.129 148.69 144.602 149.01 144.602 149.588L 144.602 149.842C 144.602 150.245 144.367 150.416 143.625 150.51C 142.301 150.682 142.098 150.729 141.738 150.877C 141.055 151.162 140.707 151.705 140.707 152.491C 140.707 153.584 141.461 154.276 142.672 154.276C 143.426 154.276 144.031 154.002 144.707 153.358C 144.773 153.991 145.07 154.276 145.688 154.276C 145.879 154.276 146.027 154.252 146.336 154.17L 146.336 153.428zM 144.598 152.131C 144.598 152.459 144.508 152.662 144.23 152.932C 143.852 153.295 143.395 153.487 142.848 153.487C 142.125 153.487 141.703 153.123 141.703 152.495C 141.703 151.846 142.113 151.514 143.105 151.362C 144.086 151.221 144.285 151.174 144.598 151.022L 144.598 152.131z"/>
<path style="stroke:none; fill-rule:evenodd; fill:#000000" d="M 147.398 153.991L 148.398 153.991L 148.398 145.592L 147.398 145.592L 147.398 153.991z"/>
<path style="stroke:none; fill-rule:evenodd; fill:#000000" d="M 56.2969 159.491L 56.2969 160.35C 55.8164 159.631 55.2305 159.291 54.4609 159.291C 52.9336 159.291 51.9023 160.631 51.9023 162.596C 51.9023 163.588 52.1641 164.397 52.6562 164.975C 53.1016 165.483 53.7422 165.784 54.375 165.784C 55.1289 165.784 55.6562 165.455 56.1953 164.67L 56.1953 164.979C 56.1953 165.791 56.0938 166.287 55.8555 166.619C 55.6055 166.975 55.1172 167.178 54.5391 167.178C 54.1094 167.178 53.7227 167.065 53.4609 166.858C 53.2461 166.686 53.1562 166.526 53.0977 166.17L 52.1328 166.17C 52.2344 167.303 53.1172 167.979 54.5234 167.979C 55.4141 167.979 56.1797 167.694 56.5703 167.213C 57.0273 166.666 57.1992 165.909 57.1992 164.502L 57.1992 159.487L 56.2969 159.491zM 54.5586 160.19C 55.5859 160.19 56.1953 161.065 56.1953 162.573C 56.1953 164.01 55.5781 164.885 54.5703 164.885C 53.5273 164.885 52.8984 163.998 52.8984 162.537C 52.8984 161.088 53.5391 160.19 54.5586 160.19z"/>
<path style="stroke:none; fill-rule:evenodd; fill:#000000" d="M 63.8984 162.791C 63.8984 161.873 63.832 161.323 63.6602 160.877C 63.2734 159.893 62.3594 159.295 61.2422 159.295C 59.5781 159.295 58.5039 160.588 58.5039 162.577C 58.5039 164.565 59.5391 165.787 61.2109 165.787C 62.5742 165.787 63.5195 164.995 63.7578 163.666L 62.8047 163.666C 62.5469 164.467 62.0117 164.889 61.25 164.889C 60.6484 164.889 60.1406 164.612 59.8203 164.096C 59.5938 163.748 59.5156 163.397 59.5039 162.791L 63.8984 162.791zM 59.4766 162.026C 59.5547 160.916 60.2305 160.19 61.1953 160.19C 62.1328 160.19 62.8555 160.967 62.8555 161.955C 62.8555 161.975 62.8555 161.998 62.8477 162.022L 59.4766 162.026z"/>
<path style="stroke:none; fill-rule:evenodd; fill:#000000" d="M 65.0977 159.463L 65.0977 165.487L 66.0977 165.487L 66.0977 162.139C 66.0977 160.901 66.7227 160.088 67.6875 160.088C 68.4258 160.088 68.8945 160.549 68.8945 161.28L 68.8945 165.483L 69.8945 165.483L 69.8945 160.928C 69.8945 159.928 69.1523 159.284 67.9922 159.284C 67.0977 159.284 66.5273 159.627 66 160.467L 66 159.455L 65.0977 159.463z"/>
<path style="stroke:none; fill-rule:evenodd; fill:#000000" d="M 76.5977 162.791C 76.5977 161.873 76.5312 161.323 76.3594 160.877C 75.9727 159.893 75.0586 159.295 73.9414 159.295C 72.2773 159.295 71.2031 160.588 71.2031 162.577C 71.2031 164.565 72.2383 165.787 73.9102 165.787C 75.2734 165.787 76.2188 164.995 76.457 163.666L 75.5039 163.666C 75.2461 164.467 74.7109 164.889 73.9492 164.889C 73.3477 164.889 72.8398 164.612 72.5195 164.096C 72.293 163.748 72.2148 163.397 72.2031 162.791L 76.5977 162.791zM 72.1797 162.026C 72.2578 160.916 72.9336 160.19 73.8984 160.19C 74.8359 160.19 75.5586 160.967 75.5586 161.955C 75.5586 161.975 75.5586 161.998 75.5508 162.022L 72.1797 162.026z"/>
<path style="stroke:none; fill-rule:evenodd; fill:#000000" d="M 77.8984 159.463L 77.8984 165.487L 78.8984 165.487L 78.8984 162.354C 78.8984 161.491 79.1094 160.924 79.5586 160.592C 79.8477 160.373 80.1289 160.307 80.7773 160.295L 80.7773 159.33C 80.6211 159.311 80.543 159.299 80.418 159.299C 79.8086 159.299 79.3438 159.666 78.8008 160.565L 78.8008 159.475L 77.8984 159.463z"/>
<path style="stroke:none; fill-rule:evenodd; fill:#000000" d="M 87.035 164.928C 86.934 164.987 86.887 164.987 86.824 164.987C 86.484 164.987 86.301 164.815 86.301 164.514L 86.301 160.948C 86.301 159.873 85.523 159.291 84.051 159.291C 83.1836 159.291 82.4648 159.545 82.0625 159.995C 81.7891 160.303 81.6758 160.651 81.6523 161.252L 82.5977 161.252C 82.6758 160.522 83.1016 160.19 83.9844 160.19C 84.828 160.19 85.301 160.51 85.301 161.088L 85.301 161.342C 85.301 161.745 85.066 161.916 84.324 162.01C 83 162.182 82.7969 162.229 82.4375 162.377C 81.7539 162.662 81.4062 163.205 81.4062 163.991C 81.4062 165.084 82.1602 165.776 83.3711 165.776C 84.125 165.776 84.73 165.502 85.406 164.858C 85.473 165.491 85.77 165.776 86.387 165.776C 86.578 165.776 86.727 165.752 87.035 165.67L 87.035 164.928zM 85.297 163.631C 85.297 163.959 85.207 164.162 84.93 164.432C 84.551 164.795 84.094 164.987 83.5469 164.987C 82.8242 164.987 82.4023 164.623 82.4023 163.995C 82.4023 163.346 82.8125 163.014 83.8047 162.862C 84.785 162.721 84.984 162.674 85.297 162.522L 85.297 163.631z"/>
<path style="stroke:none; fill-rule:evenodd; fill:#000000" d="M 88.098 165.491L 89.098 165.491L 89.098 157.092L 88.098 157.092L 88.098 165.491z"/>
<path style="stroke:none; fill-rule:evenodd; fill:#000000" d="M 91.5 159.491L 90.5 159.491L 90.5 165.491L 91.5 165.491L 91.5 159.491zM 91.5 157.092L 90.5 157.092L 90.5 158.33L 91.5 158.33L 91.5 157.092z"/>
<path style="stroke:none; fill-rule:evenodd; fill:#000000" d="M 97.5 159.491L 93 159.491L 93 160.287L 96.344 160.287L 92.699 164.62L 92.699 165.483L 97.598 165.483L 97.598 164.686L 93.914 164.686L 97.5 160.287L 97.5 159.491z"/>
<path style="stroke:none; fill-rule:evenodd; fill:#000000" d="M 104.234 164.928C 104.133 164.987 104.086 164.987 104.023 164.987C 103.684 164.987 103.5 164.815 103.5 164.514L 103.5 160.948C 103.5 159.873 102.723 159.291 101.25 159.291C 100.383 159.291 99.664 159.545 99.262 159.995C 98.988 160.303 98.875 160.651 98.852 161.252L 99.797 161.252C 99.875 160.522 100.301 160.19 101.184 160.19C 102.027 160.19 102.5 160.51 102.5 161.088L 102.5 161.342C 102.5 161.745 102.266 161.916 101.523 162.01C 100.199 162.182 99.996 162.229 99.637 162.377C 98.953 162.662 98.605 163.205 98.605 163.991C 98.605 165.084 99.359 165.776 100.57 165.776C 101.324 165.776 101.93 165.502 102.605 164.858C 102.672 165.491 102.969 165.776 103.586 165.776C 103.777 165.776 103.926 165.752 104.234 165.67L 104.234 164.928zM 102.5 163.631C 102.5 163.959 102.41 164.162 102.133 164.432C 101.754 164.795 101.297 164.987 100.75 164.987C 100.027 164.987 99.605 164.623 99.605 163.995C 99.605 163.346 100.016 163.014 101.008 162.862C 101.988 162.721 102.188 162.674 102.5 162.522L 102.5 163.631z"/>
<path style="stroke:none; fill-rule:evenodd; fill:#000000" d="M 107.398 159.491L 106.5 159.491L 106.5 157.83L 105.5 157.83L 105.5 159.491L 104.602 159.491L 104.602 160.287L 105.5 160.287L 105.5 164.834C 105.5 165.44 105.902 165.784 106.633 165.784C 106.855 165.784 107.082 165.76 107.395 165.702L 107.395 164.866C 107.281 164.952 107.145 164.983 106.977 164.983C 106.602 164.983 106.496 164.87 106.496 164.44L 106.496 160.287L 107.395 160.287L 107.398 159.491z"/>
<path style="stroke:none; fill-rule:evenodd; fill:#000000" d="M 109.398 159.491L 108.398 159.491L 108.398 165.491L 109.398 165.491L 109.398 159.491zM 109.398 157.092L 108.398 157.092L 108.398 158.33L 109.398 158.33L 109.398 157.092z"/>
<path style="stroke:none; fill-rule:evenodd; fill:#000000" d="M 113.336 159.291C 111.633 159.291 110.602 160.506 110.602 162.541C 110.602 164.573 111.621 165.787 113.352 165.787C 115.055 165.787 116.102 164.577 116.102 162.588C 116.102 160.498 115.094 159.291 113.34 159.291L 113.336 159.291zM 113.348 160.19C 114.441 160.19 115.098 161.077 115.098 162.573C 115.098 163.987 114.422 164.885 113.348 164.885C 112.266 164.885 111.598 163.998 111.598 162.537C 111.598 161.088 112.262 160.19 113.348 160.19z"/>
<path style="stroke:none; fill-rule:evenodd; fill:#000000" d="M 117.398 159.463L 117.398 165.487L 118.398 165.487L 118.398 162.139C 118.398 160.901 119.023 160.088 119.988 160.088C 120.727 160.088 121.195 160.549 121.195 161.28L 121.195 165.483L 122.195 165.483L 122.195 160.928C 122.195 159.928 121.453 159.284 120.293 159.284C 119.398 159.284 118.828 159.627 118.301 160.467L 118.301 159.455L 117.398 159.463z"/>
<path style="stroke:none; fill-rule:evenodd; fill:#000000" d="M 124.055 167.924C 125.184 166.416 125.895 164.323 125.895 162.518C 125.895 160.702 125.184 158.608 124.055 157.096L 123.434 157.096C 124.438 158.741 124.996 160.674 124.996 162.518C 124.996 164.346 124.438 166.291 123.434 167.924L 124.055 167.924z"/>
</g>
</svg>