<?xml version="1.0" encoding="UTF-8" standalone="no"?>
<!-- Created with Inkscape (http://www.inkscape.org/) -->

<svg
   xmlns:dc="http://purl.org/dc/elements/1.1/"
   xmlns:cc="http://creativecommons.org/ns#"
   xmlns:rdf="http://www.w3.org/1999/02/22-rdf-syntax-ns#"
   xmlns:svg="http://www.w3.org/2000/svg"
   xmlns="http://www.w3.org/2000/svg"
   xmlns:sodipodi="http://sodipodi.sourceforge.net/DTD/sodipodi-0.dtd"
   xmlns:inkscape="http://www.inkscape.org/namespaces/inkscape"
   id="svg3023"
   version="1.1"
   inkscape:version="0.47 r22583"
   width="272.5"
   height="193.75"
   xml:space="preserve"
   sodipodi:docname="fig_edge_fm_on_off.pdf"><metadata
     id="metadata3029"><rdf:RDF><cc:Work
         rdf:about=""><dc:format>image/svg+xml</dc:format><dc:type
           rdf:resource="http://purl.org/dc/dcmitype/StillImage" /><dc:title></dc:title></cc:Work></rdf:RDF></metadata><defs
     id="defs3027"><inkscape:perspective
       sodipodi:type="inkscape:persp3d"
       inkscape:vp_x="0 : 0.5 : 1"
       inkscape:vp_y="0 : 1000 : 0"
       inkscape:vp_z="1 : 0.5 : 1"
       inkscape:persp3d-origin="0.5 : 0.33333333 : 1"
       id="perspective3031" /></defs><sodipodi:namedview
     pagecolor="#ffffff"
     bordercolor="#666666"
     borderopacity="1"
     objecttolerance="10"
     gridtolerance="10"
     guidetolerance="10"
     inkscape:pageopacity="0"
     inkscape:pageshadow="2"
     inkscape:window-width="849"
     inkscape:window-height="699"
     id="namedview3025"
     showgrid="false"
     inkscape:zoom="1.2180645"
     inkscape:cx="136.25"
     inkscape:cy="96.875"
     inkscape:window-x="182"
     inkscape:window-y="379"
     inkscape:window-maximized="0"
     inkscape:current-layer="g3033" /><g
     id="g3033"
     inkscape:groupmode="layer"
     inkscape:label="fig_edge_fm_on_off"
     transform="matrix(1.25,0,0,-1.25,0,193.75)"><g
       id="g3035"
       transform="scale(0.1,0.1)"><path
         d="m 1813.34,1118.07 c 0,162.36 -131.63,293.98 -293.98,293.98 -162.36,0 -293.99,-131.62 -293.99,-293.98 0,-162.363 131.63,-293.988 293.99,-293.988 162.35,0 293.98,131.625 293.98,293.988"
         style="fill:#808080;fill-opacity:1;fill-rule:evenodd;stroke:none"
         id="path3037" /><path
         d="m 1813.34,1118.07 c 0,162.36 -131.63,293.98 -293.98,293.98 -162.36,0 -293.99,-131.62 -293.99,-293.98 0,-162.363 131.63,-293.988 293.99,-293.988 162.35,0 293.98,131.625 293.98,293.988"
         style="fill:none;stroke:#000000;stroke-opacity:1;stroke-width:19.1396;stroke-linecap:butt;stroke-linejoin:miter;stroke-miterlimit:10;stroke-dasharray:none"
         id="path3039" /><g
         id="g3041"
         transform="scale(10,10)"><text
           transform="matrix(1,0,0,-1,148.586,129.434)"
           id="text3043"><tspan
             style="fill:#000000;fill-opacity:1;fill-rule:nonzero;stroke:none;font-family:Helvetica;font-variant:normal;font-weight:normal;font-size:11.4838;writing-mode:lr;-inkscape-font-specification:Helvetica"
             x="0"
             y="0"
             id="tspan3045">−</tspan><tspan
             style="fill:#000000;fill-opacity:1;fill-rule:nonzero;stroke:none;font-family:Helvetica;font-variant:normal;font-weight:normal;font-size:11.4838;writing-mode:lr;-inkscape-font-specification:Helvetica"
             x="0.478516"
             y="42.5855"
             id="tspan3047">−</tspan><tspan
             style="fill:#000000;fill-opacity:1;fill-rule:nonzero;stroke:none;font-family:Helvetica;font-variant:normal;font-weight:normal;font-size:11.4838;writing-mode:lr;-inkscape-font-specification:Helvetica"
             x="21.532016"
             y="20.0964"
             id="tspan3049">−</tspan><tspan
             style="fill:#000000;fill-opacity:1;fill-rule:nonzero;stroke:none;font-family:Helvetica;font-variant:normal;font-weight:normal;font-size:11.4838;writing-mode:lr;-inkscape-font-specification:Helvetica"
             x="-22.489084"
             y="22.01046"
             id="tspan3051">−</tspan></text>
</g><path
         d="m 1672.47,1118.07 c 0,84.56 -68.55,153.11 -153.11,153.11 -84.57,0 -153.12,-68.55 -153.12,-153.11 0,-84.57 68.55,-153.121 153.12,-153.121 84.56,0 153.11,68.551 153.11,153.121"
         style="fill:#ffffff;fill-opacity:1;fill-rule:evenodd;stroke:none"
         id="path3053" /><path
         d="m 1672.47,1118.07 c 0,84.56 -68.55,153.11 -153.11,153.11 -84.57,0 -153.12,-68.55 -153.12,-153.11 0,-84.57 68.55,-153.121 153.12,-153.121 84.56,0 153.11,68.551 153.11,153.121"
         style="fill:none;stroke:#000000;stroke-opacity:1;stroke-width:19.1396;stroke-linecap:butt;stroke-linejoin:miter;stroke-miterlimit:10;stroke-dasharray:none"
         id="path3055" /><g
         id="g3057"
         transform="scale(10,10)"><text
           transform="matrix(1,0,0,-1,149.064,108.38)"
           id="text3059"><tspan
             style="fill:#000000;fill-opacity:1;fill-rule:nonzero;stroke:none;font-family:Helvetica;font-variant:normal;font-weight:normal;font-size:11.4838;writing-mode:lr;-inkscape-font-specification:Helvetica"
             x="0"
             y="0"
             id="tspan3061">+</tspan></text>
</g><path
         d="m 1621.94,850.109 c 0,162.361 -131.62,293.981 -293.98,293.981 -162.36,0 -293.99,-131.62 -293.99,-293.981 0,-162.359 131.63,-293.984 293.99,-293.984 162.36,0 293.98,131.625 293.98,293.984"
         style="fill:#808080;fill-opacity:1;fill-rule:evenodd;stroke:none"
         id="path3063" /><path
         d="m 1621.94,850.109 c 0,162.361 -131.62,293.981 -293.98,293.981 -162.36,0 -293.99,-131.62 -293.99,-293.981 0,-162.359 131.63,-293.984 293.99,-293.984 162.36,0 293.98,131.625 293.98,293.984"
         style="fill:none;stroke:#000000;stroke-opacity:1;stroke-width:19.1396;stroke-linecap:butt;stroke-linejoin:miter;stroke-miterlimit:10;stroke-dasharray:none"
         id="path3065" /><g
         id="g3067"
         transform="scale(10,10)"><text
           transform="matrix(1,0,0,-1,129.446,102.639)"
           id="text3069"><tspan
             style="fill:#000000;fill-opacity:1;fill-rule:nonzero;stroke:none;font-family:Helvetica;font-variant:normal;font-weight:normal;font-size:11.4838;writing-mode:lr;-inkscape-font-specification:Helvetica"
             x="0"
             y="0"
             id="tspan3071">−</tspan><tspan
             style="fill:#000000;fill-opacity:1;fill-rule:nonzero;stroke:none;font-family:Helvetica;font-variant:normal;font-weight:normal;font-size:11.4838;writing-mode:lr;-inkscape-font-specification:Helvetica"
             x="0.478516"
             y="42.5855"
             id="tspan3073">−</tspan><tspan
             style="fill:#000000;fill-opacity:1;fill-rule:nonzero;stroke:none;font-family:Helvetica;font-variant:normal;font-weight:normal;font-size:11.4838;writing-mode:lr;-inkscape-font-specification:Helvetica"
             x="21.532016"
             y="20.0964"
             id="tspan3075">−</tspan><tspan
             style="fill:#000000;fill-opacity:1;fill-rule:nonzero;stroke:none;font-family:Helvetica;font-variant:normal;font-weight:normal;font-size:11.4838;writing-mode:lr;-inkscape-font-specification:Helvetica"
             x="-22.489084"
             y="22.01046"
             id="tspan3077">−</tspan></text>
</g><path
         d="m 1481.07,850.109 c 0,84.563 -68.55,153.121 -153.11,153.121 -84.57,0 -153.12,-68.558 -153.12,-153.121 0,-84.562 68.55,-153.117 153.12,-153.117 84.56,0 153.11,68.555 153.11,153.117"
         style="fill:#ffffff;fill-opacity:1;fill-rule:evenodd;stroke:none"
         id="path3079" /><path
         d="m 1481.07,850.109 c 0,84.563 -68.55,153.121 -153.11,153.121 -84.57,0 -153.12,-68.558 -153.12,-153.121 0,-84.562 68.55,-153.117 153.12,-153.117 84.56,0 153.11,68.555 153.11,153.117"
         style="fill:none;stroke:#000000;stroke-opacity:1;stroke-width:19.1396;stroke-linecap:butt;stroke-linejoin:miter;stroke-miterlimit:10;stroke-dasharray:none"
         id="path3081" /><g
         id="g3083"
         transform="scale(10,10)"><text
           transform="matrix(1,0,0,-1,129.925,81.5852)"
           id="text3085"><tspan
             style="fill:#000000;fill-opacity:1;fill-rule:nonzero;stroke:none;font-family:Helvetica;font-variant:normal;font-weight:normal;font-size:11.4838;writing-mode:lr;-inkscape-font-specification:Helvetica"
             x="0"
             y="0"
             id="tspan3087">+</tspan></text>
</g><path
         d="m 1430.55,582.156 c 0,162.36 -131.63,293.985 -293.99,293.985 -162.357,0 -293.982,-131.625 -293.982,-293.985 0,-162.359 131.625,-293.984 293.982,-293.984 162.36,0 293.99,131.625 293.99,293.984"
         style="fill:#808080;fill-opacity:1;fill-rule:evenodd;stroke:none"
         id="path3089" /><path
         d="m 1430.55,582.156 c 0,162.36 -131.63,293.985 -293.99,293.985 -162.357,0 -293.982,-131.625 -293.982,-293.985 0,-162.359 131.625,-293.984 293.982,-293.984 162.36,0 293.99,131.625 293.99,293.984"
         style="fill:none;stroke:#000000;stroke-opacity:1;stroke-width:19.1396;stroke-linecap:butt;stroke-linejoin:miter;stroke-miterlimit:10;stroke-dasharray:none"
         id="path3091" /><g
         id="g3093"
         transform="scale(10,10)"><text
           transform="matrix(1,0,0,-1,110.307,75.843)"
           id="text3095"><tspan
             style="fill:#000000;fill-opacity:1;fill-rule:nonzero;stroke:none;font-family:Helvetica;font-variant:normal;font-weight:normal;font-size:11.4838;writing-mode:lr;-inkscape-font-specification:Helvetica"
             x="0"
             y="0"
             id="tspan3097">−</tspan><tspan
             style="fill:#000000;fill-opacity:1;fill-rule:nonzero;stroke:none;font-family:Helvetica;font-variant:normal;font-weight:normal;font-size:11.4838;writing-mode:lr;-inkscape-font-specification:Helvetica"
             x="0.478516"
             y="42.5855"
             id="tspan3099">−</tspan><tspan
             style="fill:#000000;fill-opacity:1;fill-rule:nonzero;stroke:none;font-family:Helvetica;font-variant:normal;font-weight:normal;font-size:11.4838;writing-mode:lr;-inkscape-font-specification:Helvetica"
             x="21.532016"
             y="20.0964"
             id="tspan3101">−</tspan><tspan
             style="fill:#000000;fill-opacity:1;fill-rule:nonzero;stroke:none;font-family:Helvetica;font-variant:normal;font-weight:normal;font-size:11.4838;writing-mode:lr;-inkscape-font-specification:Helvetica"
             x="-22.488684"
             y="22.01046"
             id="tspan3103">−</tspan></text>
</g><path
         d="m 1289.68,582.156 c 0,84.563 -68.56,153.117 -153.12,153.117 -84.56,0 -153.115,-68.554 -153.115,-153.117 0,-84.562 68.555,-153.117 153.115,-153.117 84.56,0 153.12,68.555 153.12,153.117"
         style="fill:#ffffff;fill-opacity:1;fill-rule:evenodd;stroke:none"
         id="path3105" /><path
         d="m 1289.68,582.156 c 0,84.563 -68.56,153.117 -153.12,153.117 -84.56,0 -153.115,-68.554 -153.115,-153.117 0,-84.562 68.555,-153.117 153.115,-153.117 84.56,0 153.12,68.555 153.12,153.117"
         style="fill:none;stroke:#000000;stroke-opacity:1;stroke-width:19.1396;stroke-linecap:butt;stroke-linejoin:miter;stroke-miterlimit:10;stroke-dasharray:none"
         id="path3107" /><g
         id="g3109"
         transform="scale(10,10)"><text
           transform="matrix(1,0,0,-1,110.785,54.7895)"
           id="text3111"><tspan
             style="fill:#000000;fill-opacity:1;fill-rule:nonzero;stroke:none;font-family:Helvetica;font-variant:normal;font-weight:normal;font-size:11.4838;writing-mode:lr;-inkscape-font-specification:Helvetica"
             x="0"
             y="0"
             id="tspan3113">+</tspan></text>
</g><path
         d="m 1239.15,314.203 c 0,162.359 -131.62,293.981 -293.982,293.981 -162.359,0 -293.984,-131.622 -293.984,-293.981 0,-162.359 131.625,-293.9842 293.984,-293.9842 162.362,0 293.982,131.6252 293.982,293.9842"
         style="fill:#808080;fill-opacity:1;fill-rule:evenodd;stroke:none"
         id="path3115" /><path
         d="m 1239.15,314.203 c 0,162.359 -131.62,293.981 -293.982,293.981 -162.359,0 -293.984,-131.622 -293.984,-293.981 0,-162.359 131.625,-293.9842 293.984,-293.9842 162.362,0 293.982,131.6252 293.982,293.9842"
         style="fill:none;stroke:#000000;stroke-opacity:1;stroke-width:19.1396;stroke-linecap:butt;stroke-linejoin:miter;stroke-miterlimit:10;stroke-dasharray:none"
         id="path3117" /><g
         id="g3119"
         transform="scale(10,10)"><text
           transform="matrix(1,0,0,-1,91.1672,49.0477)"
           id="text3121"><tspan
             style="fill:#000000;fill-opacity:1;fill-rule:nonzero;stroke:none;font-family:Helvetica;font-variant:normal;font-weight:normal;font-size:11.4838;writing-mode:lr;-inkscape-font-specification:Helvetica"
             x="0"
             y="0"
             id="tspan3123">−</tspan><tspan
             style="fill:#000000;fill-opacity:1;fill-rule:nonzero;stroke:none;font-family:Helvetica;font-variant:normal;font-weight:normal;font-size:11.4838;writing-mode:lr;-inkscape-font-specification:Helvetica"
             x="0.478516"
             y="42.5855"
             id="tspan3125">−</tspan><tspan
             style="fill:#000000;fill-opacity:1;fill-rule:nonzero;stroke:none;font-family:Helvetica;font-variant:normal;font-weight:normal;font-size:11.4838;writing-mode:lr;-inkscape-font-specification:Helvetica"
             x="21.532016"
             y="20.0964"
             id="tspan3127">−</tspan><tspan
             style="fill:#000000;fill-opacity:1;fill-rule:nonzero;stroke:none;font-family:Helvetica;font-variant:normal;font-weight:normal;font-size:11.4838;writing-mode:lr;-inkscape-font-specification:Helvetica"
             x="-22.489084"
             y="22.01046"
             id="tspan3129">−</tspan></text>
</g><path
         d="m 1098.28,314.203 c 0,84.563 -68.55,153.113 -153.112,153.113 -84.563,0 -153.117,-68.55 -153.117,-153.113 0,-84.562 68.554,-153.117 153.117,-153.117 84.562,0 153.112,68.555 153.112,153.117"
         style="fill:#ffffff;fill-opacity:1;fill-rule:evenodd;stroke:none"
         id="path3131" /><path
         d="m 1098.28,314.203 c 0,84.563 -68.55,153.113 -153.112,153.113 -84.563,0 -153.117,-68.55 -153.117,-153.113 0,-84.562 68.554,-153.117 153.117,-153.117 84.562,0 153.112,68.555 153.112,153.117"
         style="fill:none;stroke:#000000;stroke-opacity:1;stroke-width:19.1396;stroke-linecap:butt;stroke-linejoin:miter;stroke-miterlimit:10;stroke-dasharray:none"
         id="path3133" /><g
         id="g3135"
         transform="scale(10,10)"><text
           transform="matrix(1,0,0,-1,91.6457,27.9941)"
           id="text3137"><tspan
             style="fill:#000000;fill-opacity:1;fill-rule:nonzero;stroke:none;font-family:Helvetica;font-variant:normal;font-weight:normal;font-size:11.4838;writing-mode:lr;-inkscape-font-specification:Helvetica"
             x="0"
             y="0"
             id="tspan3139">+</tspan><tspan
             style="fill:#000000;fill-opacity:1;fill-rule:nonzero;stroke:none;font-family:Helvetica;font-variant:normal;font-weight:normal;font-size:11.4838;writing-mode:lr;-inkscape-font-specification:Helvetica"
             x="106.223"
             y="-106.212"
             id="tspan3141">+</tspan><tspan
             style="fill:#000000;fill-opacity:1;fill-rule:nonzero;stroke:none;font-family:Helvetica;font-variant:normal;font-weight:normal;font-size:11.4838;writing-mode:lr;-inkscape-font-specification:Helvetica"
             x="18.1847"
             y="-110.05223"
             id="tspan3143">−</tspan></text>
</g><path
         d="M 562.254,46.1289 1710.23,1538.5"
         style="fill:none;stroke:#000000;stroke-opacity:1;stroke-width:19.1396;stroke-linecap:butt;stroke-linejoin:miter;stroke-miterlimit:10;stroke-dasharray:none"
         id="path3145" /><path
         d="m 906.648,1308.9 612.262,0"
         style="fill:none;stroke:#000000;stroke-opacity:1;stroke-width:19.1396;stroke-linecap:butt;stroke-linejoin:miter;stroke-miterlimit:10;stroke-dasharray:none"
         id="path3147" /><path
         d="m 830.145,1232.4 612.255,0"
         style="fill:none;stroke:#000000;stroke-opacity:1;stroke-width:19.1396;stroke-linecap:butt;stroke-linejoin:miter;stroke-miterlimit:10;stroke-dasharray:none"
         id="path3149" /><path
         d="m 791.902,1155.89 612.258,0"
         style="fill:none;stroke:#000000;stroke-opacity:1;stroke-width:19.1396;stroke-linecap:butt;stroke-linejoin:miter;stroke-miterlimit:10;stroke-dasharray:none"
         id="path3151" /><path
         d="m 753.664,1079.39 612.256,0"
         style="fill:none;stroke:#000000;stroke-opacity:1;stroke-width:19.1396;stroke-linecap:butt;stroke-linejoin:miter;stroke-miterlimit:10;stroke-dasharray:none"
         id="path3153" /><path
         d="m 677.16,1002.88 612.25,0"
         style="fill:none;stroke:#000000;stroke-opacity:1;stroke-width:19.1396;stroke-linecap:butt;stroke-linejoin:miter;stroke-miterlimit:10;stroke-dasharray:none"
         id="path3155" /><path
         d="m 638.84,1002.83 612.25,0"
         style="fill:none;stroke:#000000;stroke-opacity:1;stroke-width:19.1396;stroke-linecap:butt;stroke-linejoin:miter;stroke-miterlimit:10;stroke-dasharray:none"
         id="path3157" /><path
         d="m 600.602,926.324 612.258,0"
         style="fill:none;stroke:#000000;stroke-opacity:1;stroke-width:19.1396;stroke-linecap:butt;stroke-linejoin:miter;stroke-miterlimit:10;stroke-dasharray:none"
         id="path3159" /><path
         d="m 562.359,849.82 612.261,0"
         style="fill:none;stroke:#000000;stroke-opacity:1;stroke-width:19.1396;stroke-linecap:butt;stroke-linejoin:miter;stroke-miterlimit:10;stroke-dasharray:none"
         id="path3161" /><path
         d="m 485.855,773.312 612.255,0"
         style="fill:none;stroke:#000000;stroke-opacity:1;stroke-width:19.1396;stroke-linecap:butt;stroke-linejoin:miter;stroke-miterlimit:10;stroke-dasharray:none"
         id="path3163" /><path
         d="m 409.27,696.727 612.26,0"
         style="fill:none;stroke:#000000;stroke-opacity:1;stroke-width:19.1396;stroke-linecap:butt;stroke-linejoin:miter;stroke-miterlimit:10;stroke-dasharray:none"
         id="path3165" /><path
         d="m 371.031,620.223 612.254,0"
         style="fill:none;stroke:#000000;stroke-opacity:1;stroke-width:19.1396;stroke-linecap:butt;stroke-linejoin:miter;stroke-miterlimit:10;stroke-dasharray:none"
         id="path3167" /><path
         d="m 332.793,543.719 612.254,0"
         style="fill:none;stroke:#000000;stroke-opacity:1;stroke-width:19.1396;stroke-linecap:butt;stroke-linejoin:miter;stroke-miterlimit:10;stroke-dasharray:none"
         id="path3169" /><path
         d="m 256.285,467.211 612.258,0"
         style="fill:none;stroke:#000000;stroke-opacity:1;stroke-width:19.1396;stroke-linecap:butt;stroke-linejoin:miter;stroke-miterlimit:10;stroke-dasharray:none"
         id="path3171" /><path
         d="m 179.703,390.629 612.254,0"
         style="fill:none;stroke:#000000;stroke-opacity:1;stroke-width:19.1396;stroke-linecap:butt;stroke-linejoin:miter;stroke-miterlimit:10;stroke-dasharray:none"
         id="path3173" /><path
         d="m 141.461,314.121 612.258,0"
         style="fill:none;stroke:#000000;stroke-opacity:1;stroke-width:19.1396;stroke-linecap:butt;stroke-linejoin:miter;stroke-miterlimit:10;stroke-dasharray:none"
         id="path3175" /><path
         d="m 103.223,237.617 612.257,0"
         style="fill:none;stroke:#000000;stroke-opacity:1;stroke-width:19.1396;stroke-linecap:butt;stroke-linejoin:miter;stroke-miterlimit:10;stroke-dasharray:none"
         id="path3177" /><path
         d="m 26.7188,161.109 612.2542,0"
         style="fill:none;stroke:#000000;stroke-opacity:1;stroke-width:19.1396;stroke-linecap:butt;stroke-linejoin:miter;stroke-miterlimit:10;stroke-dasharray:none"
         id="path3179" /><path
         d="m 1557.2,1308.93 612.25,0"
         style="fill:none;stroke:#000000;stroke-opacity:1;stroke-width:19.1396;stroke-linecap:butt;stroke-linejoin:miter;stroke-miterlimit:10;stroke-dasharray:none"
         id="path3181" /><path
         d="m 1480.69,1232.43 612.26,0"
         style="fill:none;stroke:#000000;stroke-opacity:1;stroke-width:19.1396;stroke-linecap:butt;stroke-linejoin:miter;stroke-miterlimit:10;stroke-dasharray:none"
         id="path3183" /><path
         d="m 1442.45,1155.92 612.26,0"
         style="fill:none;stroke:#000000;stroke-opacity:1;stroke-width:19.1396;stroke-linecap:butt;stroke-linejoin:miter;stroke-miterlimit:10;stroke-dasharray:none"
         id="path3185" /><path
         d="m 1404.21,1079.41 612.26,0"
         style="fill:none;stroke:#000000;stroke-opacity:1;stroke-width:19.1396;stroke-linecap:butt;stroke-linejoin:miter;stroke-miterlimit:10;stroke-dasharray:none"
         id="path3187" /><path
         d="m 1327.71,1002.91 612.25,0"
         style="fill:none;stroke:#000000;stroke-opacity:1;stroke-width:19.1396;stroke-linecap:butt;stroke-linejoin:miter;stroke-miterlimit:10;stroke-dasharray:none"
         id="path3189" /><path
         d="m 1289.39,1002.86 612.25,0"
         style="fill:none;stroke:#000000;stroke-opacity:1;stroke-width:19.1396;stroke-linecap:butt;stroke-linejoin:miter;stroke-miterlimit:10;stroke-dasharray:none"
         id="path3191" /><path
         d="m 1251.15,926.352 612.25,0"
         style="fill:none;stroke:#000000;stroke-opacity:1;stroke-width:19.1396;stroke-linecap:butt;stroke-linejoin:miter;stroke-miterlimit:10;stroke-dasharray:none"
         id="path3193" /><path
         d="m 1212.91,849.848 612.25,0"
         style="fill:none;stroke:#000000;stroke-opacity:1;stroke-width:19.1396;stroke-linecap:butt;stroke-linejoin:miter;stroke-miterlimit:10;stroke-dasharray:none"
         id="path3195" /><path
         d="m 1136.4,773.34 612.26,0"
         style="fill:none;stroke:#000000;stroke-opacity:1;stroke-width:19.1396;stroke-linecap:butt;stroke-linejoin:miter;stroke-miterlimit:10;stroke-dasharray:none"
         id="path3197" /><path
         d="m 1059.82,696.754 612.25,0"
         style="fill:none;stroke:#000000;stroke-opacity:1;stroke-width:19.1396;stroke-linecap:butt;stroke-linejoin:miter;stroke-miterlimit:10;stroke-dasharray:none"
         id="path3199" /><path
         d="m 1021.58,620.25 612.26,0"
         style="fill:none;stroke:#000000;stroke-opacity:1;stroke-width:19.1396;stroke-linecap:butt;stroke-linejoin:miter;stroke-miterlimit:10;stroke-dasharray:none"
         id="path3201" /><path
         d="m 983.34,543.746 612.25,0"
         style="fill:none;stroke:#000000;stroke-opacity:1;stroke-width:19.1396;stroke-linecap:butt;stroke-linejoin:miter;stroke-miterlimit:10;stroke-dasharray:none"
         id="path3203" /><path
         d="m 906.836,467.238 612.254,0"
         style="fill:none;stroke:#000000;stroke-opacity:1;stroke-width:19.1396;stroke-linecap:butt;stroke-linejoin:miter;stroke-miterlimit:10;stroke-dasharray:none"
         id="path3205" /><path
         d="m 830.25,390.652 612.25,0"
         style="fill:none;stroke:#000000;stroke-opacity:1;stroke-width:19.1396;stroke-linecap:butt;stroke-linejoin:miter;stroke-miterlimit:10;stroke-dasharray:none"
         id="path3207" /><path
         d="m 792.012,314.148 612.258,0"
         style="fill:none;stroke:#000000;stroke-opacity:1;stroke-width:19.1396;stroke-linecap:butt;stroke-linejoin:miter;stroke-miterlimit:10;stroke-dasharray:none"
         id="path3209" /><path
         d="m 753.77,237.645 612.26,0"
         style="fill:none;stroke:#000000;stroke-opacity:1;stroke-width:19.1396;stroke-linecap:butt;stroke-linejoin:miter;stroke-miterlimit:10;stroke-dasharray:none"
         id="path3211" /><path
         d="m 677.266,161.137 612.254,0"
         style="fill:none;stroke:#000000;stroke-opacity:1;stroke-width:19.1396;stroke-linecap:butt;stroke-linejoin:miter;stroke-miterlimit:10;stroke-dasharray:none"
         id="path3213" /><path
         d="m 944.969,1347.22 612.251,0"
         style="fill:none;stroke:#000000;stroke-opacity:1;stroke-width:19.1396;stroke-linecap:butt;stroke-linejoin:miter;stroke-miterlimit:10;stroke-dasharray:none"
         id="path3215" /><path
         d="m 868.461,1270.72 612.259,0"
         style="fill:none;stroke:#000000;stroke-opacity:1;stroke-width:19.1396;stroke-linecap:butt;stroke-linejoin:miter;stroke-miterlimit:10;stroke-dasharray:none"
         id="path3217" /><path
         d="m 830.223,1194.21 612.257,0"
         style="fill:none;stroke:#000000;stroke-opacity:1;stroke-width:19.1396;stroke-linecap:butt;stroke-linejoin:miter;stroke-miterlimit:10;stroke-dasharray:none"
         id="path3219" /><path
         d="m 791.984,1117.71 612.256,0"
         style="fill:none;stroke:#000000;stroke-opacity:1;stroke-width:19.1396;stroke-linecap:butt;stroke-linejoin:miter;stroke-miterlimit:10;stroke-dasharray:none"
         id="path3221" /><path
         d="m 715.477,1041.2 612.253,0"
         style="fill:none;stroke:#000000;stroke-opacity:1;stroke-width:19.1396;stroke-linecap:butt;stroke-linejoin:miter;stroke-miterlimit:10;stroke-dasharray:none"
         id="path3223" /><path
         d="m 677.16,1041.15 612.25,0"
         style="fill:none;stroke:#000000;stroke-opacity:1;stroke-width:19.1396;stroke-linecap:butt;stroke-linejoin:miter;stroke-miterlimit:10;stroke-dasharray:none"
         id="path3225" /><path
         d="m 638.918,964.645 612.262,0"
         style="fill:none;stroke:#000000;stroke-opacity:1;stroke-width:19.1396;stroke-linecap:butt;stroke-linejoin:miter;stroke-miterlimit:10;stroke-dasharray:none"
         id="path3227" /><path
         d="m 600.68,888.137 612.25,0"
         style="fill:none;stroke:#000000;stroke-opacity:1;stroke-width:19.1396;stroke-linecap:butt;stroke-linejoin:miter;stroke-miterlimit:10;stroke-dasharray:none"
         id="path3229" /><path
         d="m 524.176,811.633 612.254,0"
         style="fill:none;stroke:#000000;stroke-opacity:1;stroke-width:19.1396;stroke-linecap:butt;stroke-linejoin:miter;stroke-miterlimit:10;stroke-dasharray:none"
         id="path3231" /><path
         d="m 447.59,735.047 612.25,0"
         style="fill:none;stroke:#000000;stroke-opacity:1;stroke-width:19.1396;stroke-linecap:butt;stroke-linejoin:miter;stroke-miterlimit:10;stroke-dasharray:none"
         id="path3233" /><path
         d="m 409.352,658.543 612.258,0"
         style="fill:none;stroke:#000000;stroke-opacity:1;stroke-width:19.1396;stroke-linecap:butt;stroke-linejoin:miter;stroke-miterlimit:10;stroke-dasharray:none"
         id="path3235" /><path
         d="m 371.109,582.035 612.258,0"
         style="fill:none;stroke:#000000;stroke-opacity:1;stroke-width:19.1396;stroke-linecap:butt;stroke-linejoin:miter;stroke-miterlimit:10;stroke-dasharray:none"
         id="path3237" /><path
         d="m 294.605,505.531 612.254,0"
         style="fill:none;stroke:#000000;stroke-opacity:1;stroke-width:19.1396;stroke-linecap:butt;stroke-linejoin:miter;stroke-miterlimit:10;stroke-dasharray:none"
         id="path3239" /><path
         d="m 218.02,428.945 612.257,0"
         style="fill:none;stroke:#000000;stroke-opacity:1;stroke-width:19.1396;stroke-linecap:butt;stroke-linejoin:miter;stroke-miterlimit:10;stroke-dasharray:none"
         id="path3241" /><path
         d="m 179.781,352.441 612.254,0"
         style="fill:none;stroke:#000000;stroke-opacity:1;stroke-width:19.1396;stroke-linecap:butt;stroke-linejoin:miter;stroke-miterlimit:10;stroke-dasharray:none"
         id="path3243" /><path
         d="m 141.543,275.934 612.254,0"
         style="fill:none;stroke:#000000;stroke-opacity:1;stroke-width:19.1396;stroke-linecap:butt;stroke-linejoin:miter;stroke-miterlimit:10;stroke-dasharray:none"
         id="path3245" /><path
         d="m 65.0352,199.43 612.2578,0"
         style="fill:none;stroke:#000000;stroke-opacity:1;stroke-width:19.1396;stroke-linecap:butt;stroke-linejoin:miter;stroke-miterlimit:10;stroke-dasharray:none"
         id="path3247" /></g></g></svg>