<?xml version="1.0" encoding="ISO-8859-1" standalone="yes"?>
<svg width="238.554" height="168.203">
  <defs> 
    <marker id="ArrowEnd" viewBox="0 0 10 10" refX="0" refY="5" 
     markerUnits="strokeWidth" 
     markerWidth="4" 
     markerHeight="3" 
     orient="auto"> 
        <path d="M 0 0 L 10 5 L 0 10 z" /> 
    </marker>
    <marker id="ArrowStart" viewBox="0 0 10 10" refX="10" refY="5" 
     markerUnits="strokeWidth" 
     markerWidth="4" 
     markerHeight="3" 
     orient="auto"> 
        <path d="M 10 0 L 0 5 L 10 10 z" /> 
    </marker> </defs>
<g>
<path style="stroke:#000000; stroke-width:1.59941; fill:none" d="M 85.957 157.504L 85.957 156.328"/>
<path style="stroke:#000000; stroke-width:1.59941; fill:none" d="M 182.23 157.504L 182.23 156.328"/>
<path style="stroke:#000000; stroke-width:1.59941; fill:none" d="M 85.957 18.004L 85.957 19.179"/>
<path style="stroke:#000000; stroke-width:1.59941; fill:none" d="M 182.23 18.004L 182.23 19.179"/>
<path style="stroke:#000000; stroke-width:1.59941; fill:none" d="M 85.957 157.504L 85.957 155.148"/>
<path style="stroke:#000000; stroke-width:1.59941; fill:none" d="M 182.23 157.504L 182.23 155.148"/>
<path style="stroke:#000000; stroke-width:1.59941; fill:none" d="M 85.957 18.004L 85.957 20.359"/>
<path style="stroke:#000000; stroke-width:1.59941; fill:none" d="M 182.23 18.004L 182.23 20.359"/>
<path style="stroke:none; fill-rule:evenodd; fill:#000000" d="M 72.5 168L 74.0976 168L 74.0976 160.301L 72.5 160.301L 72.5 168z"/>
<path style="stroke:none; fill-rule:evenodd; fill:#000000" d="M 75.5 162.301L 75.5 168L 77 168L 77 164.609C 77 163.941 77.4648 163.5 78.1679 163.5C 78.7851 163.5 79.0976 163.844 79.0976 164.515L 79.0976 168L 80.5976 168L 80.5976 164.18C 80.5976 162.926 79.9062 162.203 78.6992 162.203C 77.9336 162.203 77.4219 162.48 77 163.101L 77 162.305L 75.5 162.301z"/>
<path style="stroke:none; fill-rule:evenodd; fill:#000000" d="M 84.3945 162.402L 83.6015 162.402L 83.6015 160.851L 82.1015 160.851L 82.1015 162.402L 81.3515 162.402L 81.3515 163.402L 82.1015 163.402L 82.1015 166.871C 82.1015 167.758 82.5742 168.195 83.539 168.195C 83.8633 168.195 84.125 168.168 84.3906 168.086L 84.3906 167.086C 84.25 167.094 84.1679 167.097 84.0664 167.097C 83.6914 167.097 83.6015 166.984 83.6015 166.48L 83.6015 163.402L 84.3945 163.402L 84.3945 162.402z"/>
<path style="stroke:none; fill-rule:evenodd; fill:#000000" d="M 90.3591 167.781C 90.0821 167.543 90.0041 167.387 90.0041 167.09L 90.0041 163.945C 90.0041 162.793 89.2151 162.203 87.6721 162.203C 86.1289 162.203 85.3281 162.851 85.2343 164.16L 86.6367 164.16C 86.707 163.586 86.9453 163.402 87.6641 163.402C 88.2231 163.402 88.5041 163.59 88.5041 163.965C 88.5041 164.152 88.4101 164.316 88.2541 164.402C 88.0581 164.504 88.0581 164.504 87.3401 164.621L 86.7617 164.722C 85.6523 164.91 85.1093 165.484 85.1093 166.5C 85.1093 166.98 85.2422 167.379 85.5 167.66C 85.8203 167.992 86.3086 168.191 86.8047 168.191C 87.4261 168.191 87.9961 167.922 88.5041 167.387C 88.5041 167.68 88.5351 167.785 88.6801 167.949L 90.3591 167.949L 90.3591 167.781zM 88.5001 165.687C 88.5001 166.523 88.0941 167 87.3751 167C 86.8984 167 86.6054 166.742 86.6054 166.328C 86.6054 165.894 86.8281 165.687 87.4181 165.566L 87.9021 165.476C 88.2771 165.406 88.3361 165.387 88.5001 165.301L 88.5001 165.687z"/>
<path style="stroke:none; fill-rule:evenodd; fill:#000000" d="M 96.2381 164.414C 96.1371 163.031 95.2071 162.203 93.7851 162.203C 92.0941 162.203 91.1011 163.312 91.1011 165.246C 91.1011 167.109 92.0781 168.203 93.7621 168.203C 95.1411 168.203 96.0981 167.363 96.2341 166.019L 94.8361 166.019C 94.6481 166.73 94.3551 167 93.7931 167C 93.0511 167 92.6011 166.336 92.6011 165.242C 92.6011 164.715 92.7031 164.215 92.8831 163.883C 93.0471 163.574 93.3711 163.406 93.7891 163.406C 94.3831 163.406 94.6641 163.683 94.8321 164.418L 96.2381 164.414z"/>
<path style="stroke:none; fill-rule:evenodd; fill:#000000" d="M 99.7931 162.402L 99.0001 162.402L 99.0001 160.851L 97.5001 160.851L 97.5001 162.402L 96.7501 162.402L 96.7501 163.402L 97.5001 163.402L 97.5001 166.871C 97.5001 167.758 97.9731 168.195 98.9371 168.195C 99.2621 168.195 99.5231 168.168 99.7891 168.086L 99.7891 167.086C 99.6481 167.094 99.5661 167.097 99.4651 167.097C 99.0901 167.097 99.0001 166.984 99.0001 166.48L 99.0001 163.402L 99.7931 163.402L 99.7931 162.402z"/>
<path style="stroke:none; fill-rule:evenodd; fill:#000000" d="M 180.601 164.5L 180.601 168L 182.199 168L 182.199 160.301L 180.601 160.301L 180.601 163.199L 177.504 163.199L 177.504 160.301L 175.906 160.301L 175.906 168L 177.504 168L 177.504 164.5L 180.601 164.5z"/>
<path style="stroke:none; fill-rule:evenodd; fill:#000000" d="M 185.203 160.301L 183.605 160.301L 183.605 168L 188.945 168L 188.945 166.703L 185.203 166.703L 185.203 160.301z"/>
<path style="stroke:#000000; stroke-width:1.59941; fill:none" d="M 38.0195 157.504L 39.1953 157.504"/>
<path style="stroke:#000000; stroke-width:1.59941; fill:none" d="M 38.0195 150.43L 39.1953 150.43"/>
<path style="stroke:#000000; stroke-width:1.59941; fill:none" d="M 38.0195 143.355L 39.1953 143.355"/>
<path style="stroke:#000000; stroke-width:1.59941; fill:none" d="M 38.0195 136.281L 39.1953 136.281"/>
<path style="stroke:#000000; stroke-width:1.59941; fill:none" d="M 38.0195 129.211L 39.1953 129.211"/>
<path style="stroke:#000000; stroke-width:1.59941; fill:none" d="M 38.0195 122.527L 39.1953 122.527"/>
<path style="stroke:#000000; stroke-width:1.59941; fill:none" d="M 38.0195 115.457L 39.1953 115.457"/>
<path style="stroke:#000000; stroke-width:1.59941; fill:none" d="M 38.0195 108.383L 39.1953 108.383"/>
<path style="stroke:#000000; stroke-width:1.59941; fill:none" d="M 38.0195 101.703L 39.1953 101.703"/>
<path style="stroke:#000000; stroke-width:1.59941; fill:none" d="M 38.0195 94.629L 39.1953 94.629"/>
<path style="stroke:#000000; stroke-width:1.59941; fill:none" d="M 38.0195 87.554L 39.1953 87.554"/>
<path style="stroke:#000000; stroke-width:1.59941; fill:none" d="M 38.0195 80.484L 39.1953 80.484"/>
<path style="stroke:#000000; stroke-width:1.59941; fill:none" d="M 38.0195 73.804L 39.1953 73.804"/>
<path style="stroke:#000000; stroke-width:1.59941; fill:none" d="M 38.0195 66.73L 39.1953 66.73"/>
<path style="stroke:#000000; stroke-width:1.59941; fill:none" d="M 38.0195 59.656L 39.1953 59.656"/>
<path style="stroke:#000000; stroke-width:1.59941; fill:none" d="M 38.0195 52.976L 39.1953 52.976"/>
<path style="stroke:#000000; stroke-width:1.59941; fill:none" d="M 38.0195 45.902L 39.1953 45.902"/>
<path style="stroke:#000000; stroke-width:1.59941; fill:none" d="M 38.0195 38.832L 39.1953 38.832"/>
<path style="stroke:#000000; stroke-width:1.59941; fill:none" d="M 38.0195 32.148L 39.1953 32.148"/>
<path style="stroke:#000000; stroke-width:1.59941; fill:none" d="M 38.0195 25.074L 39.1953 25.074"/>
<path style="stroke:#000000; stroke-width:1.59941; fill:none" d="M 38.0195 18.004L 39.1953 18.004"/>
<path style="stroke:#000000; stroke-width:1.59941; fill:none" d="M 230.172 157.504L 228.996 157.504"/>
<path style="stroke:#000000; stroke-width:1.59941; fill:none" d="M 230.172 150.43L 228.996 150.43"/>
<path style="stroke:#000000; stroke-width:1.59941; fill:none" d="M 230.172 143.355L 228.996 143.355"/>
<path style="stroke:#000000; stroke-width:1.59941; fill:none" d="M 230.172 136.281L 228.996 136.281"/>
<path style="stroke:#000000; stroke-width:1.59941; fill:none" d="M 230.172 129.211L 228.996 129.211"/>
<path style="stroke:#000000; stroke-width:1.59941; fill:none" d="M 230.172 122.527L 228.996 122.527"/>
<path style="stroke:#000000; stroke-width:1.59941; fill:none" d="M 230.172 115.457L 228.996 115.457"/>
<path style="stroke:#000000; stroke-width:1.59941; fill:none" d="M 230.172 108.383L 228.996 108.383"/>
<path style="stroke:#000000; stroke-width:1.59941; fill:none" d="M 230.172 101.703L 228.996 101.703"/>
<path style="stroke:#000000; stroke-width:1.59941; fill:none" d="M 230.172 94.629L 228.996 94.629"/>
<path style="stroke:#000000; stroke-width:1.59941; fill:none" d="M 230.172 87.554L 228.996 87.554"/>
<path style="stroke:#000000; stroke-width:1.59941; fill:none" d="M 230.172 80.484L 228.996 80.484"/>
<path style="stroke:#000000; stroke-width:1.59941; fill:none" d="M 230.172 73.804L 228.996 73.804"/>
<path style="stroke:#000000; stroke-width:1.59941; fill:none" d="M 230.172 66.73L 228.996 66.73"/>
<path style="stroke:#000000; stroke-width:1.59941; fill:none" d="M 230.172 59.656L 228.996 59.656"/>
<path style="stroke:#000000; stroke-width:1.59941; fill:none" d="M 230.172 52.976L 228.996 52.976"/>
<path style="stroke:#000000; stroke-width:1.59941; fill:none" d="M 230.172 45.902L 228.996 45.902"/>
<path style="stroke:#000000; stroke-width:1.59941; fill:none" d="M 230.172 38.832L 228.996 38.832"/>
<path style="stroke:#000000; stroke-width:1.59941; fill:none" d="M 230.172 32.148L 228.996 32.148"/>
<path style="stroke:#000000; stroke-width:1.59941; fill:none" d="M 230.172 25.074L 228.996 25.074"/>
<path style="stroke:#000000; stroke-width:1.59941; fill:none" d="M 230.172 18.004L 228.996 18.004"/>
<path style="stroke:#000000; stroke-width:1.59941; fill:none" d="M 38.0195 157.504L 40.375 157.504"/>
<path style="stroke:#000000; stroke-width:1.59941; fill:none" d="M 38.0195 129.211L 40.375 129.211"/>
<path style="stroke:#000000; stroke-width:1.59941; fill:none" d="M 38.0195 101.703L 40.375 101.703"/>
<path style="stroke:#000000; stroke-width:1.59941; fill:none" d="M 38.0195 73.804L 40.375 73.804"/>
<path style="stroke:#000000; stroke-width:1.59941; fill:none" d="M 38.0195 45.902L 40.375 45.902"/>
<path style="stroke:#000000; stroke-width:1.59941; fill:none" d="M 38.0195 18.004L 40.375 18.004"/>
<path style="stroke:#000000; stroke-width:1.59941; fill:none" d="M 230.172 157.504L 227.816 157.504"/>
<path style="stroke:#000000; stroke-width:1.59941; fill:none" d="M 230.172 129.211L 227.816 129.211"/>
<path style="stroke:#000000; stroke-width:1.59941; fill:none" d="M 230.172 101.703L 227.816 101.703"/>
<path style="stroke:#000000; stroke-width:1.59941; fill:none" d="M 230.172 73.804L 227.816 73.804"/>
<path style="stroke:#000000; stroke-width:1.59941; fill:none" d="M 230.172 45.902L 227.816 45.902"/>
<path style="stroke:#000000; stroke-width:1.59941; fill:none" d="M 230.172 18.004L 227.816 18.004"/>
<path style="stroke:none; fill-rule:evenodd; fill:#000000" d="M 19.3515 152.101C 18.6562 152.101 18.0234 152.398 17.6328 152.898C 17.1484 153.551 16.9062 154.555 16.9062 155.933C 16.9062 158.453 17.75 159.793 19.3515 159.793C 20.9336 159.793 21.8008 158.453 21.8008 155.996C 21.8008 154.543 21.5703 153.57 21.0742 152.894C 20.6836 152.383 20.0625 152.097 19.3554 152.097L 19.3515 152.101zM 19.3515 152.902C 20.3867 152.902 20.8984 153.91 20.8984 155.902C 20.8984 158.012 20.3984 158.996 19.3281 158.996C 18.3164 158.996 17.8008 157.969 17.8008 155.933C 17.8008 153.898 18.3125 152.902 19.3476 152.902L 19.3515 152.902z"/>
<path style="stroke:none; fill-rule:evenodd; fill:#000000" d="M 23.2031 159.601L 24.3008 159.601L 24.3008 158.504L 23.2031 158.504L 23.2031 159.601z"/>
<path style="stroke:none; fill-rule:evenodd; fill:#000000" d="M 28.25 152.101C 27.5547 152.101 26.9219 152.398 26.5312 152.898C 26.0469 153.551 25.8047 154.555 25.8047 155.933C 25.8047 158.453 26.6484 159.793 28.25 159.793C 29.832 159.793 30.6992 158.453 30.6992 155.996C 30.6992 154.543 30.4687 153.57 29.9726 152.894C 29.582 152.383 28.9609 152.097 28.2539 152.097L 28.25 152.101zM 28.25 152.902C 29.2851 152.902 29.7969 153.91 29.7969 155.902C 29.7969 158.012 29.2969 158.996 28.2265 158.996C 27.2148 158.996 26.6992 157.969 26.6992 155.933C 26.6992 153.898 27.2109 152.902 28.2461 152.902L 28.25 152.902z"/>
<path style="stroke:none; fill-rule:evenodd; fill:#000000" d="M 19.3515 124.199C 18.6562 124.199 18.0234 124.496 17.6328 124.996C 17.1484 125.648 16.9062 126.652 16.9062 128.031C 16.9062 130.551 17.75 131.89 19.3515 131.89C 20.9336 131.89 21.8008 130.551 21.8008 128.094C 21.8008 126.64 21.5703 125.668 21.0742 124.992C 20.6836 124.48 20.0625 124.195 19.3554 124.195L 19.3515 124.199zM 19.3515 125C 20.3867 125 20.8984 126.008 20.8984 128C 20.8984 130.109 20.3984 131.094 19.3281 131.094C 18.3164 131.094 17.8008 130.066 17.8008 128.031C 17.8008 125.996 18.3125 125 19.3476 125L 19.3515 125z"/>
<path style="stroke:none; fill-rule:evenodd; fill:#000000" d="M 23.2031 131.699L 24.3008 131.699L 24.3008 130.601L 23.2031 130.601L 23.2031 131.699z"/>
<path style="stroke:none; fill-rule:evenodd; fill:#000000" d="M 30.6484 130.801L 26.7109 130.801C 26.8047 130.187 27.1406 129.793 28.0625 129.254L 29.1172 128.683C 30.1601 128.113 30.6992 127.336 30.6992 126.414C 30.6992 125.789 30.4453 125.207 30.0039 124.805C 29.5625 124.402 29.0117 124.211 28.3047 124.211C 27.3554 124.211 26.6484 124.547 26.2383 125.176C 25.9765 125.574 25.8593 126.035 25.8398 126.793L 26.7773 126.793C 26.8086 126.289 26.8711 125.98 27 125.738C 27.2422 125.285 27.7343 125.012 28.3047 125.012C 29.1601 125.012 29.8008 125.613 29.8008 126.422C 29.8008 127.012 29.4492 127.523 28.7773 127.902L 27.7969 128.453C 26.2187 129.34 25.7539 130.051 25.6719 131.707L 30.6562 131.707L 30.6484 130.801z"/>
<path style="stroke:none; fill-rule:evenodd; fill:#000000" d="M 19.3515 96.3006C 18.6562 96.3006 18.0234 96.5974 17.6328 97.0974C 17.1484 97.7498 16.9062 98.7537 16.9062 100.133C 16.9062 102.652 17.75 103.992 19.3515 103.992C 20.9336 103.992 21.8008 102.652 21.8008 100.195C 21.8008 98.742 21.5703 97.7693 21.0742 97.0935C 20.6836 96.5818 20.0625 96.2967 19.3554 96.2967L 19.3515 96.3006zM 19.3515 97.1013C 20.3867 97.1013 20.8984 98.1092 20.8984 100.101C 20.8984 102.211 20.3984 103.195 19.3281 103.195C 18.3164 103.195 17.8008 102.168 17.8008 100.133C 17.8008 98.0974 18.3125 97.1013 19.3476 97.1013L 19.3515 97.1013z"/>
<path style="stroke:none; fill-rule:evenodd; fill:#000000" d="M 23.2031 103.801L 24.3008 103.801L 24.3008 102.703L 23.2031 102.703L 23.2031 103.801z"/>
<path style="stroke:none; fill-rule:evenodd; fill:#000000" d="M 28.8008 102L 28.8008 103.797L 29.6992 103.797L 29.6992 102L 30.8164 102L 30.8164 101.203L 29.6992 101.203L 29.6992 96.3045L 29.0117 96.3045L 25.6015 101.019L 25.6015 102L 28.8008 102zM 28.8008 101.199L 26.4179 101.199L 28.8008 97.8709L 28.8008 101.199z"/>
<path style="stroke:none; fill-rule:evenodd; fill:#000000" d="M 19.3515 68.402C 18.6562 68.402 18.0234 68.699 17.6328 69.199C 17.1484 69.851 16.9062 70.855 16.9062 72.234C 16.9062 74.754 17.75 76.094 19.3515 76.094C 20.9336 76.094 21.8008 74.754 21.8008 72.297C 21.8008 70.844 21.5703 69.871 21.0742 69.195C 20.6836 68.683 20.0625 68.398 19.3554 68.398L 19.3515 68.402zM 19.3515 69.199C 20.3867 69.199 20.8984 70.207 20.8984 72.199C 20.8984 74.308 20.3984 75.293 19.3281 75.293C 18.3164 75.293 17.8008 74.265 17.8008 72.23C 17.8008 70.195 18.3125 69.199 19.3476 69.199L 19.3515 69.199z"/>
<path style="stroke:none; fill-rule:evenodd; fill:#000000" d="M 23.2031 75.902L 24.3008 75.902L 24.3008 74.804L 23.2031 74.804L 23.2031 75.902z"/>
<path style="stroke:none; fill-rule:evenodd; fill:#000000" d="M 30.5859 70.301C 30.4101 69.113 29.6093 68.402 28.4765 68.402C 27.6601 68.402 26.9219 68.801 26.4804 69.461C 26.0195 70.183 25.8086 71.101 25.8086 72.457C 25.8086 73.707 25.9961 74.508 26.4336 75.168C 26.8281 75.765 27.4726 76.094 28.2851 76.094C 29.6914 76.094 30.7031 75.039 30.7031 73.57C 30.7031 72.179 29.7578 71.195 28.4219 71.195C 27.6875 71.195 27.1093 71.465 26.707 71.992C 26.7148 70.195 27.3125 69.195 28.3867 69.195C 29.0429 69.195 29.5 69.594 29.6523 70.293L 30.5859 70.301zM 28.332 72C 29.2343 72 29.8008 72.633 29.8008 73.648C 29.8008 74.601 29.164 75.297 28.3008 75.297C 27.4297 75.297 26.7695 74.57 26.7695 73.594C 26.7695 72.652 27.4062 72 28.332 72z"/>
<path style="stroke:none; fill-rule:evenodd; fill:#000000" d="M 19.3515 40.5C 18.6562 40.5 18.0234 40.797 17.6328 41.297C 17.1484 41.949 16.9062 42.953 16.9062 44.332C 16.9062 46.851 17.75 48.191 19.3515 48.191C 20.9336 48.191 21.8008 46.851 21.8008 44.394C 21.8008 42.941 21.5703 41.969 21.0742 41.293C 20.6836 40.781 20.0625 40.496 19.3554 40.496L 19.3515 40.5zM 19.3515 41.301C 20.3867 41.301 20.8984 42.308 20.8984 44.301C 20.8984 46.41 20.3984 47.394 19.3281 47.394C 18.3164 47.394 17.8008 46.367 17.8008 44.332C 17.8008 42.297 18.3125 41.301 19.3476 41.301L 19.3515 41.301z"/>
<path style="stroke:none; fill-rule:evenodd; fill:#000000" d="M 23.2031 48L 24.3008 48L 24.3008 46.902L 23.2031 46.902L 23.2031 48z"/>
<path style="stroke:none; fill-rule:evenodd; fill:#000000" d="M 29.4492 44.035C 30.2383 43.574 30.5 43.195 30.5 42.492C 30.5 41.324 29.582 40.508 28.25 40.508C 26.9336 40.508 26 41.324 26 42.492C 26 43.183 26.2422 43.562 26.9726 44.035C 26.1211 44.441 25.6992 45.062 25.6992 45.883C 25.6992 47.25 26.7265 48.195 28.1992 48.195C 29.6679 48.195 30.6992 47.25 30.6992 45.894C 30.6992 45.066 30.289 44.445 29.4492 44.035zM 28.25 41.301C 29.0703 41.301 29.5976 41.773 29.5976 42.515C 29.5976 43.222 29.0625 43.699 28.25 43.699C 27.4414 43.699 26.9023 43.226 26.9023 42.508C 26.9023 41.777 27.4375 41.304 28.25 41.304L 28.25 41.301zM 28.2031 44.5C 29.1523 44.5 29.8008 45.082 29.8008 45.941C 29.8008 46.812 29.1523 47.394 28.1797 47.394C 27.25 47.394 26.6054 46.804 26.6054 45.941C 26.6054 45.082 27.25 44.5 28.2031 44.5z"/>
<path style="stroke:none; fill-rule:evenodd; fill:#000000" d="M 19.2031 14.761L 19.2031 20.101L 20.1015 20.101L 20.1015 12.601L 19.4843 12.601C 19.1562 13.754 18.9414 13.914 17.4883 14.094L 17.4883 14.758L 19.2031 14.761z"/>
<path style="stroke:none; fill-rule:evenodd; fill:#000000" d="M 23.2031 20.101L 24.3008 20.101L 24.3008 19.004L 23.2031 19.004L 23.2031 20.101z"/>
<path style="stroke:none; fill-rule:evenodd; fill:#000000" d="M 28.25 12.601C 27.5547 12.601 26.9219 12.898 26.5312 13.398C 26.0469 14.051 25.8047 15.054 25.8047 16.433C 25.8047 18.953 26.6484 20.293 28.25 20.293C 29.832 20.293 30.6992 18.953 30.6992 16.496C 30.6992 15.043 30.4687 14.07 29.9726 13.394C 29.582 12.883 28.9609 12.597 28.2539 12.597L 28.25 12.601zM 28.25 13.402C 29.2851 13.402 29.7969 14.41 29.7969 16.402C 29.7969 18.511 29.2969 19.496 28.2265 19.496C 27.2148 19.496 26.6992 18.469 26.6992 16.433C 26.6992 14.398 27.2109 13.402 28.2461 13.402L 28.25 13.402z"/>
<path style="stroke:none; fill-rule:evenodd; fill:#000000" d="M 66.1015 1.30101L 68.3437 1.30101L 68.3437 0.0039978L 62.1484 0.0039978L 62.1484 1.30101L 64.5 1.30101L 64.5 7.69901L 66.0976 7.69901L 66.1015 1.30101z"/>
<path style="stroke:none; fill-rule:evenodd; fill:#000000" d="M 69.2031 2L 69.2031 7.69901L 70.7031 7.69901L 70.7031 4.69101C 70.7031 3.832 71.125 3.40201 71.9726 3.40201C 72.125 3.40201 72.2304 3.40201 72.4258 3.39801L 72.4258 1.90601C 72.3437 1.90601 72.2929 1.90601 72.25 1.90601C 71.5898 1.90601 71.0117 2.34001 70.7031 3.101L 70.7031 2.00801L 69.2031 2z"/>
<path style="stroke:none; fill-rule:evenodd; fill:#000000" d="M 78.1601 7.48001C 77.8828 7.242 77.8047 7.086 77.8047 6.789L 77.8047 3.64401C 77.8047 2.492 77.0156 1.90201 75.4726 1.90201C 73.9297 1.90201 73.1289 2.55101 73.0351 3.85901L 74.4375 3.85901C 74.5078 3.285 74.7461 3.101 75.4648 3.101C 76.0234 3.101 76.3047 3.289 76.3047 3.664C 76.3047 3.851 76.2109 4.015 76.0547 4.101C 75.8593 4.203 75.8593 4.203 75.1406 4.32001L 74.5625 4.42201C 73.4531 4.60901 72.9101 5.183 72.9101 6.19901C 72.9101 6.679 73.0429 7.078 73.3008 7.35901C 73.6211 7.69101 74.1093 7.89 74.6054 7.89C 75.2265 7.89 75.7969 7.621 76.3047 7.086C 76.3047 7.379 76.3359 7.48401 76.4804 7.64801L 78.1601 7.64801L 78.1601 7.48001zM 76.3008 5.38701C 76.3008 6.222 75.8945 6.69901 75.1758 6.69901C 74.6992 6.69901 74.4062 6.44101 74.4062 6.02701C 74.4062 5.59401 74.6289 5.38701 75.2187 5.265L 75.7031 5.17601C 76.0781 5.10501 76.1367 5.086 76.3008 5L 76.3008 5.38701z"/>
<path style="stroke:none; fill-rule:evenodd; fill:#000000" d="M 79.2031 2L 79.2031 7.69901L 80.7031 7.69901L 80.7031 4.308C 80.7031 3.64 81.1679 3.19901 81.8711 3.19901C 82.4883 3.19901 82.8008 3.543 82.8008 4.21501L 82.8008 7.69901L 84.3008 7.69901L 84.3008 3.879C 84.3008 2.625 83.6093 1.90201 82.4023 1.90201C 81.6367 1.90201 81.125 2.179 80.7031 2.80101L 80.7031 2.004L 79.2031 2z"/>
<path style="stroke:none; fill-rule:evenodd; fill:#000000" d="M 90.3591 3.81601C 90.3401 2.625 89.4061 1.90201 87.8631 1.90201C 86.4101 1.90201 85.5078 2.617 85.5078 3.76901C 85.5078 4.14 85.6211 4.46501 85.8203 4.679C 86.0195 4.875 86.1992 4.96901 86.7461 5.14401L 88.5041 5.683C 88.8711 5.79701 88.9961 5.91 88.9961 6.13701C 88.9961 6.476 88.5861 6.68701 87.9021 6.68701C 87.5231 6.68701 87.2191 6.621 87.0312 6.50801C 86.875 6.40601 86.8125 6.30101 86.75 6.02301L 85.3125 6.02301C 85.3515 7.246 86.2734 7.88701 88.0081 7.88701C 88.8011 7.88701 89.4021 7.722 89.8241 7.39C 90.2461 7.06201 90.5001 6.539 90.5001 5.98801C 90.5001 5.261 90.1331 4.79701 89.3831 4.578L 87.5191 4.05101C 87.1093 3.92601 87.0039 3.84401 87.0039 3.617C 87.0039 3.308 87.3401 3.097 87.8591 3.097C 88.5661 3.097 88.9181 3.332 88.9261 3.81201L 90.3591 3.81601z"/>
<path style="stroke:none; fill-rule:evenodd; fill:#000000" d="M 93.1011 1.972L 91.6011 1.972L 91.6011 7.69901L 93.1011 7.69901L 93.1011 1.972zM 93.1011 0L 91.6011 0L 91.6011 1.29701L 93.1011 1.29701L 93.1011 0z"/>
<path style="stroke:none; fill-rule:evenodd; fill:#000000" d="M 96.9961 2.101L 96.2031 2.101L 96.2031 0.55101L 94.7031 0.55101L 94.7031 2.101L 93.9531 2.101L 93.9531 3.101L 94.7031 3.101L 94.7031 6.57001C 94.7031 7.457 95.1761 7.89401 96.1411 7.89401C 96.4651 7.89401 96.7261 7.867 96.9921 7.785L 96.9921 6.785C 96.8511 6.793 96.7691 6.79701 96.6681 6.79701C 96.2931 6.79701 96.2031 6.683 96.2031 6.179L 96.2031 3.101L 96.9961 3.101L 96.9961 2.101z"/>
<path style="stroke:none; fill-rule:evenodd; fill:#000000" d="M 99.6011 1.972L 98.1011 1.972L 98.1011 7.69901L 99.6011 7.69901L 99.6011 1.972zM 99.6011 0L 98.1011 0L 98.1011 1.29701L 99.6011 1.29701L 99.6011 0z"/>
<path style="stroke:none; fill-rule:evenodd; fill:#000000" d="M 104.015 7.69901L 105.988 2L 104.422 2L 103.269 6.16L 102.031 2L 100.465 2L 102.469 7.69901L 104.015 7.69901z"/>
<path style="stroke:none; fill-rule:evenodd; fill:#000000" d="M 108.402 1.972L 106.902 1.972L 106.902 7.69901L 108.402 7.69901L 108.402 1.972zM 108.402 0L 106.902 0L 106.902 1.29701L 108.402 1.29701L 108.402 0z"/>
<path style="stroke:none; fill-rule:evenodd; fill:#000000" d="M 112.394 2.101L 111.601 2.101L 111.601 0.55101L 110.101 0.55101L 110.101 2.101L 109.351 2.101L 109.351 3.101L 110.101 3.101L 110.101 6.57001C 110.101 7.457 110.574 7.89401 111.539 7.89401C 111.863 7.89401 112.125 7.867 112.391 7.785L 112.391 6.785C 112.25 6.793 112.168 6.79701 112.066 6.79701C 111.691 6.79701 111.601 6.683 111.601 6.179L 111.601 3.101L 112.394 3.101L 112.394 2.101z"/>
<path style="stroke:none; fill-rule:evenodd; fill:#000000" d="M 116.883 2L 115.695 6.13701L 114.433 2L 112.801 2L 114.933 7.91L 114.933 7.94901C 114.933 8.48401 114.531 8.89401 114.012 8.89401C 113.898 8.89401 113.812 8.89 113.621 8.86301L 113.621 9.953C 113.844 9.98001 113.969 9.992 114.148 9.992C 114.515 9.992 114.965 9.92201 115.219 9.81601C 115.629 9.64801 115.812 9.40601 116.055 8.73001L 118.406 1.996L 116.883 2z"/>
<path style="stroke:none; fill-rule:evenodd; fill:#000000" d="M 125.601 1.30101L 127.844 1.30101L 127.844 0.0039978L 121.648 0.0039978L 121.648 1.30101L 124 1.30101L 124 7.69901L 125.598 7.69901L 125.601 1.30101z"/>
<path style="stroke:none; fill-rule:evenodd; fill:#000000" d="M 133.558 5.30101C 133.566 5.17601 133.566 5.125 133.566 5.05101C 133.566 4.48401 133.484 3.957 133.344 3.558C 132.965 2.52701 132.039 1.90601 130.883 1.90601C 129.238 1.90601 128.234 3.082 128.234 4.98001C 128.234 6.793 129.23 7.90601 130.851 7.90601C 132.133 7.90601 133.172 7.19101 133.504 6.09401L 132.043 6.09401C 131.863 6.543 131.449 6.804 130.91 6.804C 130.488 6.804 130.148 6.625 129.937 6.31201C 129.801 6.101 129.75 5.847 129.726 5.308L 133.558 5.30101zM 129.742 4.30101C 129.836 3.43701 130.207 3.004 130.867 3.004C 131.234 3.004 131.578 3.183 131.789 3.476C 131.926 3.68701 131.988 3.90601 132.019 4.29701L 129.742 4.30101z"/>
<path style="stroke:none; fill-rule:evenodd; fill:#000000" d="M 139.258 3.81601C 139.238 2.625 138.305 1.90201 136.762 1.90201C 135.308 1.90201 134.406 2.617 134.406 3.76901C 134.406 4.14 134.519 4.46501 134.719 4.679C 134.918 4.875 135.098 4.96901 135.644 5.14401L 137.402 5.683C 137.769 5.79701 137.894 5.91 137.894 6.13701C 137.894 6.476 137.484 6.68701 136.801 6.68701C 136.422 6.68701 136.117 6.621 135.93 6.50801C 135.773 6.40601 135.711 6.30101 135.648 6.02301L 134.211 6.02301C 134.25 7.246 135.172 7.88701 136.906 7.88701C 137.699 7.88701 138.301 7.722 138.723 7.39C 139.144 7.06201 139.398 6.539 139.398 5.98801C 139.398 5.261 139.031 4.79701 138.281 4.578L 136.418 4.05101C 136.008 3.92601 135.902 3.84401 135.902 3.617C 135.902 3.308 136.238 3.097 136.758 3.097C 137.465 3.097 137.816 3.332 137.824 3.81201L 139.258 3.81601z"/>
<path style="stroke:none; fill-rule:evenodd; fill:#000000" d="M 142.996 2.101L 142.203 2.101L 142.203 0.55101L 140.703 0.55101L 140.703 2.101L 139.953 2.101L 139.953 3.101L 140.703 3.101L 140.703 6.57001C 140.703 7.457 141.176 7.89401 142.141 7.89401C 142.465 7.89401 142.726 7.867 142.992 7.785L 142.992 6.785C 142.851 6.793 142.769 6.79701 142.668 6.79701C 142.293 6.79701 142.203 6.683 142.203 6.179L 142.203 3.101L 142.996 3.101L 142.996 2.101z"/>
<path style="stroke:none; fill-rule:evenodd; fill:#000000" d="M 147.203 7.69901L 150.683 7.69901C 151.574 7.69901 152.168 7.53101 152.633 7.14C 153.098 6.75 153.394 6.097 153.394 5.48401C 153.394 4.726 152.973 4.125 152.078 3.617C 152.808 3.13301 153.094 2.69101 153.094 2.035C 153.094 1.50801 152.832 0.949005 152.402 0.570007C 151.953 0.179001 151.418 0.0110016 150.601 0.0110016L 147.199 0.0110016L 147.203 7.69901zM 148.801 1.30101L 150.496 1.30101C 151.211 1.30101 151.598 1.61301 151.598 2.203C 151.598 2.77701 151.215 3.09401 150.496 3.09401L 148.801 3.09401L 148.801 1.30101zM 148.801 4.40201L 150.711 4.40201C 151.488 4.40201 151.894 4.75 151.894 5.40601C 151.894 6.05101 151.488 6.39801 150.711 6.39801L 148.801 6.39801L 148.801 4.40201z"/>
<path style="stroke:none; fill-rule:evenodd; fill:#000000" d="M 160.613 7.69901L 162.586 2L 161.019 2L 159.867 6.16L 158.629 2L 157.062 2L 159.066 7.69901L 160.613 7.69901z"/>
<path style="stroke:none; fill-rule:evenodd; fill:#000000" d="M 168.16 3.81601C 168.141 2.625 167.207 1.90201 165.664 1.90201C 164.211 1.90201 163.308 2.617 163.308 3.76901C 163.308 4.14 163.422 4.46501 163.621 4.679C 163.82 4.875 164 4.96901 164.547 5.14401L 166.305 5.683C 166.672 5.79701 166.797 5.91 166.797 6.13701C 166.797 6.476 166.387 6.68701 165.703 6.68701C 165.324 6.68701 165.019 6.621 164.832 6.50801C 164.676 6.40601 164.613 6.30101 164.551 6.02301L 163.113 6.02301C 163.152 7.246 164.074 7.88701 165.808 7.88701C 166.601 7.88701 167.203 7.722 167.625 7.39C 168.047 7.06201 168.301 6.539 168.301 5.98801C 168.301 5.261 167.933 4.79701 167.183 4.578L 165.32 4.05101C 164.91 3.92601 164.805 3.84401 164.805 3.617C 164.805 3.308 165.141 3.097 165.66 3.097C 166.367 3.097 166.719 3.332 166.726 3.81201L 168.16 3.81601z"/>
<path style="stroke:none; fill-rule:evenodd; fill:#000000" d="M 169.402 7.69901L 171 7.69901L 171 6.19901L 169.402 6.19901L 169.402 7.69901z"/>
<path style="stroke:none; fill-rule:evenodd; fill:#000000" d="M 175.402 7.69901L 178.422 7.69901C 179.598 7.69901 180.34 7.42601 180.855 6.804C 181.469 6.09001 181.797 5.043 181.797 3.851C 181.797 2.67201 181.469 1.625 180.855 0.89801C 180.34 0.277008 179.605 0.0110016 178.422 0.0110016L 175.402 0.0110016L 175.402 7.69901zM 177 6.40201L 177 1.304L 178.418 1.304C 179.605 1.304 180.195 2.14401 180.195 3.85901C 180.195 5.56201 179.609 6.40201 178.418 6.40201L 177 6.40201z"/>
<path style="stroke:none; fill-rule:evenodd; fill:#000000" d="M 185.101 6.19901L 183.504 6.19901L 183.504 7.69901L 185.101 7.69901L 185.101 6.19901zM 185.101 2.19901L 183.504 2.19901L 183.504 3.69901L 185.101 3.69901L 185.101 2.19901z"/>
<path style="stroke:none; fill-rule:evenodd; fill:#000000" d="M 191.101 4.601L 192.965 4.601C 193.668 4.601 193.973 4.879 193.973 5.535C 193.973 5.597 193.973 5.703 193.965 5.84401C 193.957 6.04701 193.957 6.23801 193.957 6.35501C 193.957 7.082 194 7.32001 194.207 7.69501L 195.887 7.69501L 195.887 7.414C 195.668 7.27701 195.574 7.121 195.574 6.78101C 195.531 4.511 195.492 4.40601 194.504 3.98401C 195.371 3.64801 195.808 3.02301 195.808 2.086C 195.808 1.476 195.594 0.914001 195.219 0.535004C 194.867 0.179001 194.371 0.00801086 193.707 0.00801086L 189.512 0.00801086L 189.512 7.707L 191.109 7.707L 191.101 4.601zM 191.101 3.30101L 191.101 1.30101L 193.055 1.30101C 193.515 1.30101 193.711 1.34001 193.906 1.5C 194.098 1.65601 194.195 1.918 194.195 2.27701C 194.195 2.64401 194.09 2.93701 193.906 3.097C 193.734 3.242 193.519 3.29701 193.055 3.29701L 191.101 3.30101z"/>
<path style="stroke:none; fill-rule:evenodd; fill:#000000" d="M 201.961 7.48001C 201.683 7.242 201.605 7.086 201.605 6.789L 201.605 3.64401C 201.605 2.492 200.816 1.90201 199.273 1.90201C 197.73 1.90201 196.93 2.55101 196.836 3.85901L 198.238 3.85901C 198.308 3.285 198.547 3.101 199.265 3.101C 199.824 3.101 200.105 3.289 200.105 3.664C 200.105 3.851 200.012 4.015 199.855 4.101C 199.66 4.203 199.66 4.203 198.941 4.32001L 198.363 4.42201C 197.254 4.60901 196.711 5.183 196.711 6.19901C 196.711 6.679 196.844 7.078 197.101 7.35901C 197.422 7.69101 197.91 7.89 198.406 7.89C 199.027 7.89 199.598 7.621 200.105 7.086C 200.105 7.379 200.137 7.48401 200.281 7.64801L 201.961 7.64801L 201.961 7.48001zM 200.101 5.38701C 200.101 6.222 199.695 6.69901 198.976 6.69901C 198.5 6.69901 198.207 6.44101 198.207 6.02701C 198.207 5.59401 198.43 5.38701 199.019 5.265L 199.504 5.17601C 199.879 5.10501 199.937 5.086 200.101 5L 200.101 5.38701z"/>
<path style="stroke:none; fill-rule:evenodd; fill:#000000" d="M 205.496 2.101L 204.703 2.101L 204.703 0.55101L 203.203 0.55101L 203.203 2.101L 202.453 2.101L 202.453 3.101L 203.203 3.101L 203.203 6.57001C 203.203 7.457 203.676 7.89401 204.641 7.89401C 204.965 7.89401 205.226 7.867 205.492 7.785L 205.492 6.785C 205.351 6.793 205.269 6.79701 205.168 6.79701C 204.793 6.79701 204.703 6.683 204.703 6.179L 204.703 3.101L 205.496 3.101L 205.496 2.101z"/>
<path style="stroke:none; fill-rule:evenodd; fill:#ffffff" d="M 65.5234 157.504L 106.391 157.504L 106.391 45.906L 65.5234 45.906L 65.5234 157.504z"/>
<path style="stroke:#ffffff; stroke-width:0.0; fill:none" d="M 65.5234 157.504L 106.391 157.504L 106.391 45.906L 65.5234 45.906L 65.5234 157.504z"/>
<path style="stroke:#ffffff; stroke-width:1.59941; fill:none" d="M 65.5234 157.504L 106.391 157.504L 106.391 45.906L 65.5234 45.906L 65.5234 157.504z"/>
<path style="stroke:none; fill-rule:evenodd; fill:#ffffff" d="M 161.801 157.504L 202.668 157.504L 202.668 91.097L 161.801 91.097L 161.801 157.504z"/>
<path style="stroke:#ffffff; stroke-width:0.0; fill:none" d="M 161.801 157.504L 202.668 157.504L 202.668 91.097L 161.801 91.097L 161.801 157.504z"/>
<path style="stroke:#ffffff; stroke-width:1.59941; fill:none" d="M 161.801 157.504L 202.668 157.504L 202.668 91.097L 161.801 91.097L 161.801 157.504z"/>
<path style="stroke:#000000; stroke-width:1.59941; fill:none" d="M 65.5234 157.504L 106.391 157.504L 106.391 45.906L 65.5234 45.906L 65.5234 157.504z"/>
<path style="stroke:#000000; stroke-width:1.59941; fill:none" d="M 161.801 157.504L 202.668 157.504L 202.668 91.097L 161.801 91.097L 161.801 157.504z"/>
<path style="stroke:#000000; stroke-width:1.59941; fill:none" d="M 85.957 52.976L 85.957 38.832"/>
<path style="stroke:#000000; stroke-width:1.59941; fill:none" d="M 182.23 98.1638L 182.23 84.019"/>
<path style="stroke:#000000; stroke-width:1.59941; fill:none" d="M 81.6367 52.976L 90.6721 52.976"/>
<path style="stroke:#000000; stroke-width:1.59941; fill:none" d="M 81.6367 38.832L 90.6721 38.832"/>
<path style="stroke:#000000; stroke-width:1.59941; fill:none" d="M 177.515 98.1638L 186.551 98.1638"/>
<path style="stroke:#000000; stroke-width:1.59941; fill:none" d="M 177.515 84.019L 186.551 84.019"/>
<path style="stroke:#000000; stroke-width:1.59941; fill:none" d="M 38.0195 157.504L 230.172 157.504L 230.172 18.008L 38.0195 18.008L 38.0195 157.504z"/>
<path style="stroke:#000000; stroke-dasharray:6,3; stroke-width:1.59941; fill:none" d="M 38.4101 87.949L 228.598 87.949"/>
<path style="stroke:none; fill-rule:evenodd; fill:#000000" d="M 126.183 79.644C 125.984 78.476 125.34 77.906 124.223 77.906C 123.543 77.906 122.992 78.129 122.613 78.558C 122.156 79.074 121.902 79.824 121.902 80.672C 121.902 81.535 122.16 82.273 122.641 82.785C 123.031 83.203 123.531 83.394 124.195 83.394C 125.433 83.394 126.133 82.707 126.285 81.316L 125.609 81.316C 125.555 81.672 125.484 81.918 125.379 82.125C 125.168 82.551 124.73 82.797 124.18 82.797C 123.156 82.797 122.508 81.969 122.508 80.664C 122.508 79.324 123.129 78.5 124.125 78.5C 124.539 78.5 124.93 78.629 125.141 78.836C 125.328 79.015 125.437 79.242 125.515 79.64L 126.183 79.644z"/>
<path style="stroke:none; fill-rule:evenodd; fill:#000000" d="M 127.101 78L 127.101 83.199L 127.699 83.199L 127.699 81.156C 127.699 80.398 128.078 79.902 128.664 79.902C 128.848 79.902 129.027 79.965 129.164 80.07C 129.324 80.187 129.394 80.367 129.394 80.629L 129.394 83.195L 129.992 83.195L 129.992 80.406C 129.992 79.789 129.558 79.398 128.855 79.398C 128.348 79.398 128.035 79.554 127.699 80L 127.699 78L 127.101 78z"/>
<path style="stroke:none; fill-rule:evenodd; fill:#000000" d="M 134.285 82.855C 134.219 82.898 134.187 82.898 134.148 82.898C 133.926 82.898 133.805 82.793 133.805 82.609L 133.805 80.422C 133.805 79.761 133.332 79.406 132.43 79.406C 131.902 79.406 131.461 79.558 131.219 79.832C 131.051 80.019 130.984 80.23 130.969 80.594L 131.547 80.594C 131.594 80.191 131.855 80.004 132.394 80.004C 132.91 80.004 133.203 80.199 133.203 80.551L 133.203 80.703C 133.203 80.945 133.058 81.051 132.601 81.109C 131.789 81.211 131.664 81.242 131.441 81.332C 131.019 81.504 130.808 81.836 130.808 82.312C 130.808 82.976 131.273 83.398 132.023 83.398C 132.488 83.398 132.863 83.226 133.281 82.82C 133.32 83.219 133.504 83.398 133.887 83.398C 134.004 83.398 134.098 83.387 134.289 83.332L 134.285 82.855zM 133.203 82.058C 133.203 82.261 133.148 82.387 132.976 82.554C 132.742 82.781 132.461 82.898 132.121 82.898C 131.672 82.898 131.41 82.672 131.41 82.285C 131.41 81.883 131.664 81.679 132.281 81.582C 132.887 81.496 133.012 81.469 133.207 81.371L 133.203 82.058z"/>
<path style="stroke:none; fill-rule:evenodd; fill:#000000" d="M 134.902 79.508L 134.902 83.199L 135.5 83.199L 135.5 81.156C 135.5 80.398 135.902 79.902 136.519 79.902C 136.992 79.902 137.297 80.183 137.297 80.629L 137.297 83.195L 137.894 83.195L 137.894 80.406C 137.894 79.797 137.418 79.398 136.676 79.398C 136.105 79.398 135.738 79.609 135.398 80.125L 135.398 79.508L 134.902 79.508z"/>
<path style="stroke:none; fill-rule:evenodd; fill:#000000" d="M 141.734 80.738C 141.707 80.406 141.629 80.191 141.484 80C 141.23 79.625 140.781 79.402 140.262 79.402C 139.262 79.402 138.605 80.199 138.605 81.437C 138.605 82.637 139.242 83.398 140.254 83.398C 141.141 83.398 141.703 82.855 141.773 81.926L 141.172 81.926C 141.074 82.504 140.765 82.797 140.254 82.797C 139.598 82.797 139.203 82.285 139.203 81.433C 139.203 80.539 139.59 80 140.242 80C 140.742 80 141.058 80.265 141.129 80.738L 141.734 80.738z"/>
<path style="stroke:none; fill-rule:evenodd; fill:#000000" d="M 145.5 81.5C 145.5 80.949 145.461 80.621 145.355 80.351C 145.121 79.761 144.562 79.402 143.879 79.402C 142.863 79.402 142.207 80.199 142.207 81.422C 142.207 82.644 142.844 83.398 143.879 83.398C 144.723 83.398 145.305 82.906 145.453 82.074L 144.859 82.074C 144.699 82.547 144.367 82.797 143.894 82.797C 143.519 82.797 143.203 82.625 143.004 82.308C 142.863 82.094 142.816 81.879 142.808 81.5L 145.5 81.5zM 142.812 81.066C 142.859 80.383 143.277 79.937 143.871 79.937C 144.449 79.937 144.894 80.418 144.894 81.023C 144.894 81.035 144.894 81.051 144.891 81.066L 142.812 81.066z"/>
<path style="stroke:none; fill-rule:evenodd; fill:#000000" d="M 4.9023 127.199L 4.9023 125.226C 4.9023 123.812 3.9101 122.902 2.3672 122.902C 0.8437 122.902 0.0078001 123.781 0.0078001 125.39L 0.0078001 128.801L 7.707 128.801L 7.707 127.203L 4.9023 127.199zM 3.6015 127.199L 1.3047 127.199L 1.3047 125.73C 1.3047 124.89 1.6719 124.504 2.457 124.504C 3.2304 124.504 3.6015 124.89 3.6015 125.73L 3.6015 127.199z"/>
<path style="stroke:none; fill-rule:evenodd; fill:#000000" d="M 2 121.801L 7.6992 121.801L 7.6992 120.301L 4.6914 120.301C 3.832 120.301 3.4023 119.879 3.4023 119.031C 3.4023 118.879 3.4023 118.773 3.3984 118.578L 1.9062 118.578C 1.9062 118.66 1.9062 118.711 1.9062 118.754C 1.9062 119.414 2.3398 119.992 3.1015 120.301L 2.0078 120.301L 2 121.801z"/>
<path style="stroke:none; fill-rule:evenodd; fill:#000000" d="M 1.9023 115.211C 1.9023 116.937 3.0469 117.996 4.9023 117.996C 6.7656 117.996 7.9023 116.937 7.9023 115.199C 7.9023 113.48 6.7617 112.402 4.9453 112.402C 3.0273 112.402 1.9023 113.437 1.9023 115.211zM 3.1015 115.199C 3.1015 114.414 3.8164 113.902 4.9219 113.902C 5.9726 113.902 6.6992 114.433 6.6992 115.199C 6.6992 115.976 5.9726 116.496 4.9023 116.496C 3.832 116.496 3.1054 115.976 3.1054 115.199L 3.1015 115.199z"/>
<path style="stroke:none; fill-rule:evenodd; fill:#000000" d="M 1.9961 109.801L 1.9961 111.301L 10 111.301L 10 109.801L 7.0234 109.801C 7.6875 109.441 8 108.93 8 108.207C 8 106.824 6.7031 105.805 4.957 105.805C 4.1484 105.805 3.3398 106.039 2.8086 106.422C 2.2656 106.805 1.9062 107.515 1.9062 108.207C 1.9062 108.93 2.2109 109.437 2.8437 109.801L 1.9961 109.801zM 3.2031 108.551C 3.2031 107.801 3.914 107.301 4.9765 107.301C 5.9883 107.301 6.6992 107.816 6.6992 108.551C 6.6992 109.289 6 109.801 4.957 109.801C 3.914 109.801 3.2031 109.293 3.2031 108.551z"/>
<path style="stroke:none; fill-rule:evenodd; fill:#000000" d="M 1.9023 102.211C 1.9023 103.937 3.0469 104.996 4.9023 104.996C 6.7656 104.996 7.9023 103.937 7.9023 102.199C 7.9023 100.48 6.7617 99.4021 4.9453 99.4021C 3.0273 99.4021 1.9023 100.437 1.9023 102.211zM 3.1015 102.199C 3.1015 101.414 3.8164 100.902 4.9219 100.902C 5.9726 100.902 6.6992 101.433 6.6992 102.199C 6.6992 102.976 5.9726 103.496 4.9023 103.496C 3.832 103.496 3.1054 102.976 3.1054 102.199L 3.1015 102.199z"/>
<path style="stroke:none; fill-rule:evenodd; fill:#000000" d="M 2 98.199L 7.6992 98.199L 7.6992 96.699L 4.6914 96.699C 3.832 96.699 3.4023 96.2771 3.4023 95.429C 3.4023 95.277 3.4023 95.172 3.3984 94.976L 1.9062 94.976C 1.9062 95.058 1.9062 95.109 1.9062 95.152C 1.9062 95.8123 2.3398 96.3904 3.1015 96.699L 2.0078 96.699L 2 98.199z"/>
<path style="stroke:none; fill-rule:evenodd; fill:#000000" d="M 2.1015 91.609L 2.1015 92.402L 0.5508 92.402L 0.5508 93.902L 2.1015 93.902L 2.1015 94.652L 3.1015 94.652L 3.1015 93.902L 6.5703 93.902C 7.457 93.902 7.8945 93.429 7.8945 92.465C 7.8945 92.14 7.8672 91.879 7.7851 91.613L 6.7851 91.613C 6.7929 91.754 6.7969 91.836 6.7969 91.937C 6.7969 92.312 6.6836 92.402 6.1797 92.402L 3.1015 92.402L 3.1015 91.609L 2.1015 91.609z"/>
<path style="stroke:none; fill-rule:evenodd; fill:#000000" d="M 1.9726 89.101L 1.9726 90.601L 7.6992 90.601L 7.6992 89.101L 1.9726 89.101zM 0 89.101L 0 90.601L 1.2969 90.601L 1.2969 89.101L 0 89.101z"/>
<path style="stroke:none; fill-rule:evenodd; fill:#000000" d="M 1.9023 85.113C 1.9023 86.84 3.0469 87.898 4.9023 87.898C 6.7656 87.898 7.9023 86.84 7.9023 85.101C 7.9023 83.383 6.7617 82.304 4.9453 82.304C 3.0273 82.304 1.9023 83.34 1.9023 85.113zM 3.1015 85.101C 3.1015 84.316 3.8164 83.804 4.9219 83.804C 5.9726 83.804 6.6992 84.336 6.6992 85.101C 6.6992 85.879 5.9726 86.398 4.9023 86.398C 3.832 86.398 3.1054 85.879 3.1054 85.101L 3.1015 85.101z"/>
<path style="stroke:none; fill-rule:evenodd; fill:#000000" d="M 2 81.199L 7.6992 81.199L 7.6992 79.699L 4.3086 79.699C 3.6406 79.699 3.1992 79.234 3.1992 78.531C 3.1992 77.914 3.5429 77.601 4.2148 77.601L 7.6992 77.601L 7.6992 76.101L 3.8789 76.101C 2.625 76.101 1.9023 76.793 1.9023 78C 1.9023 78.765 2.1797 79.277 2.8008 79.699L 2.0039 79.699L 2 81.199z"/>
<path style="stroke:none; fill-rule:evenodd; fill:#000000" d="M 7.7031 71.5L 7.7031 68.019C 7.7031 67.129 7.5351 66.535 7.1445 66.07C 6.7539 65.605 6.1015 65.308 5.4883 65.308C 4.7304 65.308 4.1289 65.73 3.6211 66.625C 3.1367 65.894 2.6914 65.609 2.039 65.609C 1.5117 65.609 0.9531 65.871 0.574201 66.301C 0.1836 66.75 0.0156002 67.285 0.0156002 68.101L 0.0156002 71.504L 7.7031 71.5zM 1.3008 69.902L 1.3008 68.207C 1.3008 67.492 1.6133 67.105 2.2031 67.105C 2.7773 67.105 3.0937 67.488 3.0937 68.207L 3.0937 69.902L 1.3008 69.902zM 4.4023 69.902L 4.4023 67.992C 4.4023 67.215 4.75 66.808 5.4062 66.808C 6.0508 66.808 6.3984 67.215 6.3984 67.992L 6.3984 69.902L 4.4023 69.902z"/>
<path style="stroke:none; fill-rule:evenodd; fill:#000000" d="M 4.6015 59.402L 4.6015 57.539C 4.6015 56.836 4.8789 56.531 5.5351 56.531C 5.5976 56.531 5.7031 56.531 5.8437 56.539C 6.0469 56.547 6.2383 56.547 6.3554 56.547C 7.082 56.547 7.3203 56.504 7.6953 56.297L 7.6953 54.617L 7.414 54.617C 7.2773 54.836 7.1211 54.929 6.7812 54.929C 4.5117 54.972 4.4062 55.011 3.9843 56C 3.6484 55.133 3.0234 54.695 2.0859 54.695C 1.4765 54.695 0.914001 54.91 0.5351 55.285C 0.1797 55.637 0.0078001 56.133 0.0078001 56.797L 0.0078001 60.992L 7.707 60.992L 7.707 59.394L 4.6015 59.402zM 3.3008 59.402L 1.3008 59.402L 1.3008 57.449C 1.3008 56.988 1.3398 56.793 1.5 56.597C 1.6562 56.406 1.9179 56.308 2.2773 56.308C 2.6445 56.308 2.9375 56.414 3.0976 56.597C 3.2422 56.769 3.2969 56.984 3.2969 57.449L 3.3008 59.402z"/>
<path style="stroke:none; fill-rule:evenodd; fill:#000000" d="M 5.3008 48.64C 5.1758 48.633 5.125 48.633 5.0508 48.633C 4.4843 48.633 3.957 48.715 3.5586 48.855C 2.5273 49.234 1.9062 50.16 1.9062 51.316C 1.9062 52.961 3.082 53.965 4.9804 53.965C 6.7929 53.965 7.9062 52.969 7.9062 51.347C 7.9062 50.066 7.1914 49.027 6.0937 48.695L 6.0937 50.156C 6.5429 50.336 6.8047 50.75 6.8047 51.289C 6.8047 51.711 6.625 52.051 6.3125 52.261C 6.1015 52.398 5.8476 52.449 5.3086 52.472L 5.3008 48.64zM 4.3008 52.461C 3.4375 52.367 3 51.996 3 51.336C 3 50.969 3.1797 50.625 3.4726 50.414C 3.6836 50.277 3.9023 50.215 4.2969 50.183L 4.3008 52.461z"/>
<path style="stroke:none; fill-rule:evenodd; fill:#000000" d="M 3.8164 42.941C 2.625 42.961 1.9023 43.894 1.9023 45.437C 1.9023 46.89 2.6172 47.793 3.7695 47.793C 4.1406 47.793 4.4648 47.679 4.6797 47.48C 4.875 47.281 4.9687 47.101 5.1445 46.554L 5.6836 44.797C 5.7969 44.429 5.9101 44.304 6.1367 44.304C 6.4765 44.304 6.6875 44.715 6.6875 45.398C 6.6875 45.777 6.6211 46.082 6.5078 46.269C 6.4062 46.426 6.3008 46.488 6.0234 46.551L 6.0234 47.988C 7.2461 47.949 7.8867 47.027 7.8867 45.293C 7.8867 44.5 7.7226 43.898 7.3906 43.476C 7.0625 43.054 6.539 42.801 5.9883 42.801C 5.2617 42.801 4.7969 43.168 4.5781 43.918L 4.0508 45.781C 3.9258 46.191 3.8437 46.297 3.6172 46.297C 3.3086 46.297 3.0976 45.961 3.0976 45.441C 3.0976 44.734 3.332 44.383 3.8125 44.375L 3.8164 42.941z"/>
<path style="stroke:none; fill-rule:evenodd; fill:#000000" d="M 1.9961 40.301L 1.9961 41.801L 10 41.801L 10 40.301L 7.0234 40.301C 7.6875 39.941 8 39.429 8 38.707C 8 37.324 6.7031 36.304 4.957 36.304C 4.1484 36.304 3.3398 36.539 2.8086 36.922C 2.2656 37.304 1.9062 38.015 1.9062 38.707C 1.9062 39.429 2.2109 39.937 2.8437 40.301L 1.9961 40.301zM 3.2031 39.051C 3.2031 38.301 3.914 37.801 4.9765 37.801C 5.9883 37.801 6.6992 38.316 6.6992 39.051C 6.6992 39.789 6 40.301 4.957 40.301C 3.914 40.301 3.2031 39.793 3.2031 39.051z"/>
</g>
</svg>