<?xml version="1.0" encoding="UTF-8" standalone="no"?>
<!-- Created with Inkscape (http://www.inkscape.org/) -->

<svg
   xmlns:dc="http://purl.org/dc/elements/1.1/"
   xmlns:cc="http://creativecommons.org/ns#"
   xmlns:rdf="http://www.w3.org/1999/02/22-rdf-syntax-ns#"
   xmlns:svg="http://www.w3.org/2000/svg"
   xmlns="http://www.w3.org/2000/svg"
   xmlns:sodipodi="http://sodipodi.sourceforge.net/DTD/sodipodi-0.dtd"
   xmlns:inkscape="http://www.inkscape.org/namespaces/inkscape"
   width="744.09448819"
   height="1052.3622047"
   id="svg2"
   version="1.1"
   inkscape:version="0.47 r22583"
   sodipodi:docname="fig_fgbg_circlines3.svg"
   inkscape:export-filename="/Users/oreilly/svn_docs/figs/fig_fgbg_circlines3.png"
   inkscape:export-xdpi="149.95818"
   inkscape:export-ydpi="149.95818">
  <defs
     id="defs4">
    <inkscape:perspective
       sodipodi:type="inkscape:persp3d"
       inkscape:vp_x="0 : 526.18109 : 1"
       inkscape:vp_y="0 : 1000 : 0"
       inkscape:vp_z="744.09448 : 526.18109 : 1"
       inkscape:persp3d-origin="372.04724 : 350.78739 : 1"
       id="perspective10" />
  </defs>
  <sodipodi:namedview
     id="base"
     pagecolor="#ffffff"
     bordercolor="#666666"
     borderopacity="1.0"
     inkscape:pageopacity="0.0"
     inkscape:pageshadow="2"
     inkscape:zoom="2"
     inkscape:cx="291.80389"
     inkscape:cy="708.35509"
     inkscape:document-units="px"
     inkscape:current-layer="layer1"
     showgrid="false"
     inkscape:window-width="1739"
     inkscape:window-height="1019"
     inkscape:window-x="454"
     inkscape:window-y="1339"
     inkscape:window-maximized="0" />
  <metadata
     id="metadata7">
    <rdf:RDF>
      <cc:Work
         rdf:about="">
        <dc:format>image/svg+xml</dc:format>
        <dc:type
           rdf:resource="http://purl.org/dc/dcmitype/StillImage" />
        <dc:title></dc:title>
      </cc:Work>
    </rdf:RDF>
  </metadata>
  <g
     inkscape:label="Layer 1"
     inkscape:groupmode="layer"
     id="layer1">
    <rect
       style="fill:#ffffff;fill-opacity:1;fill-rule:nonzero;stroke:#ffffff;stroke-width:1.28011166999999992;stroke-miterlimit:4;stroke-opacity:1;stroke-dasharray:none;stroke-dashoffset:0"
       id="rect2813"
       width="478.71988"
       height="318.71988"
       x="61.568626"
       y="163.50223" />
    <path
       sodipodi:type="arc"
       style="fill:none;stroke:#000000;stroke-width:4;stroke-miterlimit:4;stroke-opacity:1;stroke-dasharray:none;stroke-dashoffset:0"
       id="path2814"
       sodipodi:cx="139.28572"
       sodipodi:cy="324.68362"
       sodipodi:rx="51.785713"
       sodipodi:ry="51.964287"
       d="m 191.07143,324.68362 a 51.785713,51.964287 0 1 1 -103.571422,0 51.785713,51.964287 0 1 1 103.571422,0 z"
       transform="matrix(-1,0,0,-1,621.64287,625.7244)" />
    <path
       transform="matrix(-1,0,0,-1,473.64287,744.65297)"
       sodipodi:type="arc"
       style="fill:none;stroke:#000000;stroke-width:4;stroke-miterlimit:4;stroke-opacity:1;stroke-dasharray:none;stroke-dashoffset:0"
       id="path2820"
       sodipodi:cx="139.28572"
       sodipodi:cy="324.68362"
       sodipodi:rx="51.785713"
       sodipodi:ry="51.964287"
       d="m 191.07143,324.68362 a 51.785713,51.964287 0 1 1 -103.571422,0 51.785713,51.964287 0 1 1 103.571422,0 z" />
    <path
       d="m 191.07143,324.68362 a 51.785713,51.964287 0 1 1 -103.571422,0 51.785713,51.964287 0 1 1 103.571422,0 z"
       sodipodi:ry="51.964287"
       sodipodi:rx="51.785713"
       sodipodi:cy="324.68362"
       sodipodi:cx="139.28572"
       id="path2824"
       style="fill:none;stroke:#000000;stroke-width:4;stroke-miterlimit:4;stroke-opacity:1;stroke-dasharray:none;stroke-dashoffset:0"
       sodipodi:type="arc"
       transform="matrix(-1,0,0,-1,434.07144,633.29583)" />
    <path
       transform="matrix(-0.67511602,0,0,-0.62331152,204.31974,469.74125)"
       sodipodi:type="arc"
       style="fill:none;stroke:#000000;stroke-width:6.16620853;stroke-miterlimit:4;stroke-opacity:1;stroke-dasharray:none;stroke-dashoffset:0"
       id="path2828"
       sodipodi:cx="139.28572"
       sodipodi:cy="324.68362"
       sodipodi:rx="51.785713"
       sodipodi:ry="51.964287"
       d="m 191.07143,324.68362 a 51.785713,51.964287 0 1 1 -103.571422,0 51.785713,51.964287 0 1 1 103.571422,0 z" />
    <path
       d="m 191.07143,324.68362 a 51.785713,51.964287 0 1 1 -103.571422,0 51.785713,51.964287 0 1 1 103.571422,0 z"
       sodipodi:ry="51.964287"
       sodipodi:rx="51.785713"
       sodipodi:cy="324.68362"
       sodipodi:cx="139.28572"
       id="path2830"
       style="fill:none;stroke:#000000;stroke-width:4;stroke-miterlimit:4;stroke-opacity:1;stroke-dasharray:none;stroke-dashoffset:0"
       sodipodi:type="arc"
       transform="matrix(-1,0,0,-1,258.07144,749.79583)" />
    <path
       d="m 191.07143,324.68362 a 51.785713,51.964287 0 1 1 -103.571422,0 51.785713,51.964287 0 1 1 103.571422,0 z"
       sodipodi:ry="51.964287"
       sodipodi:rx="51.785713"
       sodipodi:cy="324.68362"
       sodipodi:cx="139.28572"
       id="path2832"
       style="fill:none;stroke:#000000;stroke-width:4;stroke-miterlimit:4;stroke-opacity:1;stroke-dasharray:none;stroke-dashoffset:0"
       sodipodi:type="arc"
       transform="matrix(-1,0,0,-1,343.57144,546.43868)" />
    <path
       d="m 191.07143,324.68362 a 51.785713,51.964287 0 1 1 -103.571422,0 51.785713,51.964287 0 1 1 103.571422,0 z"
       sodipodi:ry="51.964287"
       sodipodi:rx="51.785713"
       sodipodi:cy="324.68362"
       sodipodi:cx="139.28572"
       id="path2834"
       style="fill:none;stroke:#000000;stroke-width:4;stroke-miterlimit:4;stroke-opacity:1;stroke-dasharray:none;stroke-dashoffset:0"
       sodipodi:type="arc"
       transform="matrix(-1,0,0,-1,615.14287,749.65297)" />
    <path
       d="m 191.07143,324.68362 a 51.785713,51.964287 0 1 1 -103.571422,0 51.785713,51.964287 0 1 1 103.571422,0 z"
       sodipodi:ry="51.964287"
       sodipodi:rx="51.785713"
       sodipodi:cy="324.68362"
       sodipodi:cx="139.28572"
       id="path2836"
       style="fill:none;stroke:#000000;stroke-width:6.16620853;stroke-miterlimit:4;stroke-opacity:1;stroke-dasharray:none;stroke-dashoffset:0"
       sodipodi:type="arc"
       transform="matrix(-0.67511602,0,0,-0.62331152,485.81974,539.74125)" />
    <path
       transform="matrix(-0.67511602,0,0,-0.62331152,532.81974,412.24125)"
       sodipodi:type="arc"
       style="fill:none;stroke:#000000;stroke-width:6.16620853;stroke-miterlimit:4;stroke-opacity:1;stroke-dasharray:none;stroke-dashoffset:0"
       id="path3652"
       sodipodi:cx="139.28572"
       sodipodi:cy="324.68362"
       sodipodi:rx="51.785713"
       sodipodi:ry="51.964287"
       d="m 191.07143,324.68362 a 51.785713,51.964287 0 1 1 -103.571422,0 51.785713,51.964287 0 1 1 103.571422,0 z" />
    <path
       d="m 191.07143,324.68362 a 51.785713,51.964287 0 1 1 -103.571422,0 51.785713,51.964287 0 1 1 103.571422,0 z"
       sodipodi:ry="51.964287"
       sodipodi:rx="51.785713"
       sodipodi:cy="324.68362"
       sodipodi:cx="139.28572"
       id="path3654"
       style="fill:none;stroke:#000000;stroke-width:6.16620853;stroke-miterlimit:4;stroke-opacity:1;stroke-dasharray:none;stroke-dashoffset:0"
       sodipodi:type="arc"
       transform="matrix(-0.67511602,0,0,-0.62331152,473.81974,470.24125)" />
    <path
       transform="matrix(-1,0,0,-1,329.14287,656.65297)"
       sodipodi:type="arc"
       style="fill:none;stroke:#000000;stroke-width:4;stroke-miterlimit:4;stroke-opacity:1;stroke-dasharray:none;stroke-dashoffset:0"
       id="path3704"
       sodipodi:cx="139.28572"
       sodipodi:cy="324.68362"
       sodipodi:rx="51.785713"
       sodipodi:ry="51.964287"
       d="m 191.07143,324.68362 a 51.785713,51.964287 0 1 1 -103.571422,0 51.785713,51.964287 0 1 1 103.571422,0 z" />
    <path
       transform="matrix(-0.67511602,0,0,-0.62331152,412.81974,407.74125)"
       sodipodi:type="arc"
       style="fill:none;stroke:#000000;stroke-width:6.16620853;stroke-miterlimit:4;stroke-opacity:1;stroke-dasharray:none;stroke-dashoffset:0"
       id="path3706"
       sodipodi:cx="139.28572"
       sodipodi:cy="324.68362"
       sodipodi:rx="51.785713"
       sodipodi:ry="51.964287"
       d="m 191.07143,324.68362 a 51.785713,51.964287 0 1 1 -103.571422,0 51.785713,51.964287 0 1 1 103.571422,0 z" />
    <path
       d="m 191.07143,324.68362 a 51.785713,51.964287 0 1 1 -103.571422,0 51.785713,51.964287 0 1 1 103.571422,0 z"
       sodipodi:ry="51.964287"
       sodipodi:rx="51.785713"
       sodipodi:cy="324.68362"
       sodipodi:cx="139.28572"
       id="path3708"
       style="fill:none;stroke:#000000;stroke-width:6.16620853;stroke-miterlimit:4;stroke-opacity:1;stroke-dasharray:none;stroke-dashoffset:0"
       sodipodi:type="arc"
       transform="matrix(-0.67511602,0,0,-0.62331152,325.31974,634.24125)" />
  </g>
</svg>
