<?xml version="1.0" encoding="ISO-8859-1" standalone="yes"?>
<svg width="261.219" height="146.219">
  <defs> 
    <marker id="ArrowEnd" viewBox="0 0 10 10" refX="0" refY="5" 
     markerUnits="strokeWidth" 
     markerWidth="4" 
     markerHeight="3" 
     orient="auto"> 
        <path d="M 0 0 L 10 5 L 0 10 z" /> 
    </marker>
    <marker id="ArrowStart" viewBox="0 0 10 10" refX="10" refY="5" 
     markerUnits="strokeWidth" 
     markerWidth="4" 
     markerHeight="3" 
     orient="auto"> 
        <path d="M 10 0 L 0 5 L 10 10 z" /> 
    </marker> </defs>
<g>
<path style="stroke:none; fill-rule:evenodd; fill:#000000" d="M 228.82 27.219L 231.722 18.82L 230.589 18.82L 228.273 25.933L 225.82 18.82L 224.675 18.82L 227.679 27.219L 228.82 27.219z"/>
<path style="stroke:none; fill-rule:evenodd; fill:#000000" d="M 234.746 18.82C 233.628 20.328 232.921 22.422 232.921 24.23C 232.921 26.047 233.625 28.14 234.746 29.648L 235.359 29.648C 234.371 28.004 233.82 26.07 233.82 24.23C 233.82 22.402 234.371 20.457 235.359 18.82L 234.746 18.82z"/>
<path style="stroke:none; fill-rule:evenodd; fill:#000000" d="M 238.359 23.519L 238.914 23.519C 240.039 23.519 240.617 24.023 240.617 24.992C 240.617 26.008 239.984 26.613 238.921 26.613C 237.816 26.613 237.273 26.055 237.203 24.851L 236.187 24.851C 236.23 25.512 236.347 25.945 236.539 26.316C 236.949 27.105 237.753 27.512 238.863 27.512C 240.535 27.512 241.613 26.515 241.613 24.976C 241.613 23.945 241.214 23.371 240.246 23.039C 241.023 22.742 241.414 22.168 241.414 21.355C 241.414 19.957 240.48 19.121 238.921 19.121C 237.273 19.121 236.394 20 236.359 21.707L 237.382 21.707C 237.394 21.23 237.437 20.965 237.566 20.719C 237.796 20.285 238.308 20.019 238.953 20.019C 239.859 20.019 240.41 20.535 240.41 21.375C 240.41 21.933 240.199 22.269 239.734 22.449C 239.453 22.558 239.085 22.605 238.347 22.617L 238.359 23.519z"/>
<path style="stroke:none; fill-rule:evenodd; fill:#000000" d="M 243.277 29.652C 244.406 28.144 245.117 26.051 245.117 24.246C 245.117 22.429 244.406 20.336 243.277 18.824L 242.66 18.824C 243.664 20.472 244.222 22.402 244.222 24.246C 244.222 26.074 243.664 28.019 242.66 29.652L 243.277 29.652z"/>
<path style="stroke:none; fill-rule:evenodd; fill:#000000" d="M 144.621 27.219L 147.523 18.82L 146.39 18.82L 144.074 25.933L 141.621 18.82L 140.476 18.82L 143.48 27.219L 144.621 27.219z"/>
<path style="stroke:none; fill-rule:evenodd; fill:#000000" d="M 150.546 18.82C 149.429 20.328 148.722 22.422 148.722 24.23C 148.722 26.047 149.425 28.14 150.546 29.648L 151.16 29.648C 150.171 28.004 149.621 26.07 149.621 24.23C 149.621 22.402 150.171 20.457 151.16 18.82L 150.546 18.82z"/>
<path style="stroke:none; fill-rule:evenodd; fill:#000000" d="M 157.363 26.219L 153.136 26.219C 153.238 25.558 153.601 25.137 154.585 24.555L 155.718 23.941C 156.839 23.328 157.418 22.492 157.418 21.5C 157.418 20.828 157.148 20.199 156.671 19.765C 156.199 19.332 155.609 19.129 154.847 19.129C 153.828 19.129 153.07 19.488 152.628 20.168C 152.347 20.597 152.222 21.094 152.199 21.91L 153.199 21.91C 153.23 21.379 153.3 21.055 153.437 20.797C 153.699 20.32 154.222 20.027 154.824 20.027C 155.734 20.027 156.418 20.676 156.418 21.543C 156.418 22.179 156.043 22.726 155.324 23.137L 154.277 23.726C 152.593 24.679 152.101 25.445 152.011 27.222L 157.363 27.222L 157.363 26.219z"/>
<path style="stroke:none; fill-rule:evenodd; fill:#000000" d="M 159.078 29.652C 160.207 28.144 160.918 26.051 160.918 24.246C 160.918 22.429 160.207 20.336 159.078 18.824L 158.461 18.824C 159.464 20.472 160.023 22.402 160.023 24.246C 160.023 26.074 159.464 28.019 158.461 29.652L 159.078 29.652z"/>
<path style="stroke:none; fill-rule:evenodd; fill:#000000" d="M 58.5234 27.219L 61.4257 18.82L 60.2929 18.82L 57.9765 25.933L 55.5234 18.82L 54.3789 18.82L 57.3828 27.219L 58.5234 27.219z"/>
<path style="stroke:none; fill-rule:evenodd; fill:#000000" d="M 64.4453 18.82C 63.3281 20.328 62.6211 22.422 62.6211 24.23C 62.6211 26.047 63.3242 28.14 64.4453 29.648L 65.0586 29.648C 64.0703 28.004 63.5195 26.07 63.5195 24.23C 63.5195 22.402 64.0703 20.457 65.0586 18.82L 64.4453 18.82z"/>
<path style="stroke:none; fill-rule:evenodd; fill:#000000" d="M 68.5234 21.449L 68.5234 27.215L 69.5234 27.215L 69.5234 19.117L 68.8554 19.117C 68.5004 20.359 68.2694 20.531 66.6994 20.726L 66.6994 21.445L 68.5234 21.449z"/>
<path style="stroke:none; fill-rule:evenodd; fill:#000000" d="M 72.9764 29.652C 74.1054 28.144 74.8164 26.051 74.8164 24.246C 74.8164 22.429 74.1054 20.336 72.9764 18.824L 72.3594 18.824C 73.3634 20.472 73.9214 22.402 73.9214 24.246C 73.9214 26.074 73.3634 28.019 72.3594 29.652L 72.9764 29.652z"/>
<path style="stroke:none; fill-rule:evenodd; fill:#000000" d="M 45.5234 117.148L 45.5234 122.914L 46.5234 122.914L 46.5234 114.816L 45.8554 114.816C 45.5 116.058 45.2695 116.23 43.6992 116.426L 43.6992 117.144L 45.5234 117.148z"/>
<path style="stroke:none; fill-rule:evenodd; fill:#000000" d="M 213.457 119.219L 214.011 119.219C 215.136 119.219 215.714 119.723 215.714 120.691C 215.714 121.707 215.082 122.312 214.019 122.312C 212.914 122.312 212.371 121.754 212.3 120.551L 211.285 120.551C 211.328 121.211 211.445 121.644 211.636 122.015C 212.046 122.805 212.851 123.211 213.961 123.211C 215.632 123.211 216.711 122.215 216.711 120.676C 216.711 119.644 216.312 119.07 215.343 118.738C 216.121 118.441 216.511 117.867 216.511 117.055C 216.511 115.656 215.578 114.82 214.019 114.82C 212.371 114.82 211.492 115.699 211.457 117.406L 212.48 117.406C 212.492 116.93 212.535 116.664 212.664 116.418C 212.894 115.984 213.406 115.719 214.05 115.719C 214.957 115.719 215.507 116.234 215.507 117.074C 215.507 117.633 215.296 117.969 214.832 118.148C 214.55 118.258 214.183 118.305 213.445 118.316L 213.457 119.219z"/>
<path style="stroke:none; fill-rule:evenodd; fill:#000000" d="M 132.464 121.918L 128.238 121.918C 128.339 121.258 128.703 120.836 129.687 120.254L 130.82 119.64C 131.941 119.027 132.519 118.191 132.519 117.199C 132.519 116.527 132.25 115.898 131.773 115.465C 131.3 115.031 130.711 114.828 129.949 114.828C 128.929 114.828 128.171 115.187 127.73 115.867C 127.449 116.297 127.324 116.793 127.3 117.609L 128.3 117.609C 128.332 117.078 128.402 116.754 128.539 116.496C 128.8 116.019 129.324 115.726 129.925 115.726C 130.835 115.726 131.519 116.375 131.519 117.242C 131.519 117.879 131.144 118.426 130.425 118.836L 129.378 119.426C 127.695 120.379 127.203 121.144 127.113 122.922L 132.464 122.922L 132.464 121.918z"/>
<path style="stroke:#000000; stroke-width:1.9133; fill:none" d="M 25.3554 133.84L 233.972 133.84"/>
<path style="stroke:#000000; stroke-width:1.9133; fill:none" d="M 226.324 131.926L 233.976 133.836L 226.324 135.746"/>
<path style="stroke:none; fill-rule:evenodd; fill:#000000" d="M 121.222 138.418L 123.925 138.418L 123.925 137.519L 117.363 137.519L 117.363 138.418L 120.121 138.418L 120.121 145.918L 121.218 145.918L 121.222 138.418z"/>
<path style="stroke:none; fill-rule:evenodd; fill:#000000" d="M 125.921 139.918L 124.921 139.918L 124.921 145.918L 125.921 145.918L 125.921 139.918zM 125.921 137.519L 124.921 137.519L 124.921 138.754L 125.921 138.754L 125.921 137.519z"/>
<path style="stroke:none; fill-rule:evenodd; fill:#000000" d="M 127.523 139.89L 127.523 145.914L 128.523 145.914L 128.523 142.105C 128.523 141.226 129.148 140.519 129.918 140.519C 130.621 140.519 131.019 140.957 131.019 141.734L 131.019 145.914L 132.019 145.914L 132.019 142.105C 132.019 141.226 132.644 140.519 133.414 140.519C 134.105 140.519 134.515 140.969 134.515 141.734L 134.515 145.914L 135.515 145.914L 135.515 141.394C 135.515 140.316 134.894 139.719 133.761 139.719C 132.957 139.719 132.468 139.961 131.906 140.648C 131.55 140 131.066 139.719 130.281 139.719C 129.476 139.719 128.945 140.015 128.425 140.738L 128.425 139.89L 127.523 139.89z"/>
<path style="stroke:none; fill-rule:evenodd; fill:#000000" d="M 142.222 143.219C 142.222 142.301 142.156 141.75 141.984 141.305C 141.597 140.32 140.683 139.723 139.566 139.723C 137.902 139.723 136.828 141.015 136.828 143.004C 136.828 144.992 137.863 146.219 139.539 146.219C 140.902 146.219 141.847 145.426 142.089 144.094L 141.136 144.094C 140.875 144.898 140.343 145.316 139.582 145.316C 138.98 145.316 138.468 145.039 138.152 144.523C 137.925 144.176 137.847 143.824 137.835 143.219L 142.222 143.219zM 137.8 142.453C 137.878 141.34 138.558 140.617 139.519 140.617C 140.457 140.617 141.183 141.394 141.183 142.383C 141.183 142.402 141.183 142.426 141.171 142.449L 137.8 142.453z"/>
<path style="stroke:none; fill-rule:evenodd; fill:#000000" d="M 27.7226 86.117L 33.5195 86.117L 33.5195 85.3201L 27.7226 85.3201L 27.7226 86.117z"/>
<path style="stroke:none; fill-rule:evenodd; fill:#000000" d="M 28.3203 90.2498L 28.3203 96.0154L 29.3203 96.0154L 29.3203 87.9178L 28.6523 87.9178C 28.2968 89.16 28.0664 89.3318 26.4961 89.5272L 26.4961 90.2459L 28.3203 90.2498z"/>
<path style="stroke:none; fill-rule:evenodd; fill:#000000" d="M 69.7504 85.3201L 67.4214 85.3201L 67.4214 82.9803L 66.6254 82.9803L 66.6254 85.3201L 64.1992 85.3201L 64.1992 86.117L 66.6254 86.117L 66.6254 88.5311L 67.4214 88.5311L 67.4214 86.117L 69.7504 86.117L 69.7504 85.3201z"/>
<path style="stroke:none; fill-rule:evenodd; fill:#000000" d="M 64.7226 90.2498L 64.7226 96.0154L 65.7226 96.0154L 65.7226 87.9178L 65.0546 87.9178C 64.6992 89.16 64.4687 89.3318 62.8984 89.5272L 62.8984 90.2459L 64.7226 90.2498z"/>
<path style="stroke:none; fill-rule:evenodd; fill:#000000" d="M 21.8828 21.019L 20.1289 25.34L 20.9179 25.34L 22.3046 21.929L 23.7031 25.34L 24.4922 25.34L 22.7148 21.019L 21.8828 21.019z"/>
<path style="stroke:#000000; stroke-width:1.9133; fill:none" d="M 10.0429 105.133L 46.4062 105.133L 46.4062 76.4256L 10.0429 76.4256L 10.0429 105.133z"/>
<path style="stroke:#000000; stroke-width:1.9133; fill:none" d="M 46.4062 105.133L 82.7694 105.133L 82.7694 76.4256L 46.4062 76.4256L 46.4062 105.133z"/>
<path style="stroke:#000000; stroke-width:1.9133; fill:none" d="M 65.5078 76.4451L 65.5078 49.66"/>
<path style="stroke:#000000; stroke-width:1.9133; fill:none" d="M 63.5937 57.312L 65.5039 49.66L 67.4144 57.312"/>
<path style="stroke:#000000; stroke-width:1.9133; fill:none" d="M 94.2534 105.133L 130.617 105.133L 130.617 76.4256L 94.2534 76.4256L 94.2534 105.133z"/>
<path style="stroke:#000000; stroke-width:1.9133; fill:none" d="M 130.617 105.137L 166.98 105.137L 166.98 76.4295L 130.617 76.4295L 130.617 105.137z"/>
<path style="stroke:#000000; stroke-width:1.9133; fill:none" d="M 149.718 76.4451L 149.718 49.66"/>
<path style="stroke:#000000; stroke-width:1.9133; fill:none" d="M 147.804 57.312L 149.714 49.66L 151.625 57.312"/>
<path style="stroke:#000000; stroke-width:1.9133; fill:none" d="M 178.464 105.137L 214.828 105.137L 214.828 76.4295L 178.464 76.4295L 178.464 105.137z"/>
<path style="stroke:#000000; stroke-width:1.9133; fill:none" d="M 214.828 105.14L 251.191 105.14L 251.191 76.4334L 214.828 76.4334L 214.828 105.14z"/>
<path style="stroke:#000000; stroke-width:1.9133; fill:none" d="M 233.929 76.449L 233.929 49.664"/>
<path style="stroke:#000000; stroke-width:1.9133; fill:none" d="M 232.015 57.316L 233.925 49.664L 235.835 57.316"/>
<path style="stroke:none; fill-rule:evenodd; fill:#000000" d="M 112.023 86.117L 117.82 86.117L 117.82 85.3201L 112.023 85.3201L 112.023 86.117z"/>
<path style="stroke:none; fill-rule:evenodd; fill:#000000" d="M 115.265 95.0193L 111.039 95.0193C 111.14 94.3592 111.503 93.9373 112.488 93.3553L 113.621 92.742C 114.742 92.1287 115.32 91.2928 115.32 90.3006C 115.32 89.6287 115.05 88.9998 114.574 88.5662C 114.101 88.1326 113.511 87.9295 112.75 87.9295C 111.73 87.9295 110.972 88.2889 110.531 88.9686C 110.25 89.3982 110.125 89.8943 110.101 90.7108L 111.101 90.7108C 111.132 90.1795 111.203 89.8553 111.339 89.5975C 111.601 89.1209 112.125 88.8279 112.726 88.8279C 113.636 88.8279 114.32 89.4764 114.32 90.3436C 114.32 90.9803 113.945 91.5272 113.226 91.9373L 112.179 92.5272C 110.496 93.4803 110.003 94.2459 109.914 96.0232L 115.265 96.0232L 115.265 95.0193z"/>
<path style="stroke:none; fill-rule:evenodd; fill:#000000" d="M 153.953 85.3201L 151.625 85.3201L 151.625 82.9803L 150.828 82.9803L 150.828 85.3201L 148.402 85.3201L 148.402 86.117L 150.828 86.117L 150.828 88.5311L 151.625 88.5311L 151.625 86.117L 153.953 86.117L 153.953 85.3201z"/>
<path style="stroke:none; fill-rule:evenodd; fill:#000000" d="M 151.664 95.0193L 147.437 95.0193C 147.539 94.3592 147.902 93.9373 148.886 93.3553L 150.019 92.742C 151.14 92.1287 151.718 91.2928 151.718 90.3006C 151.718 89.6287 151.449 88.9998 150.972 88.5662C 150.5 88.1326 149.91 87.9295 149.148 87.9295C 148.128 87.9295 147.371 88.2889 146.929 88.9686C 146.648 89.3982 146.523 89.8943 146.5 90.7108L 147.5 90.7108C 147.531 90.1795 147.601 89.8553 147.738 89.5975C 148 89.1209 148.523 88.8279 149.125 88.8279C 150.035 88.8279 150.718 89.4764 150.718 90.3436C 150.718 90.9803 150.343 91.5272 149.625 91.9373L 148.578 92.5272C 146.894 93.4803 146.402 94.2459 146.312 96.0232L 151.664 96.0232L 151.664 95.0193z"/>
<path style="stroke:none; fill-rule:evenodd; fill:#000000" d="M 196.222 86.117L 202.019 86.117L 202.019 85.3201L 196.222 85.3201L 196.222 86.117z"/>
<path style="stroke:none; fill-rule:evenodd; fill:#000000" d="M 196.359 92.3201L 196.914 92.3201C 198.039 92.3201 198.617 92.824 198.617 93.7928C 198.617 94.8084 197.984 95.4139 196.921 95.4139C 195.816 95.4139 195.273 94.8553 195.203 93.6522L 194.187 93.6522C 194.23 94.3123 194.347 94.7459 194.539 95.117C 194.949 95.9061 195.753 96.3123 196.863 96.3123C 198.535 96.3123 199.613 95.3162 199.613 93.7772C 199.613 92.7459 199.214 92.1717 198.246 91.8397C 199.023 91.5428 199.414 90.9686 199.414 90.1561C 199.414 88.7576 198.48 87.9217 196.921 87.9217C 195.273 87.9217 194.394 88.8006 194.359 90.5076L 195.382 90.5076C 195.394 90.0311 195.437 89.7654 195.566 89.5193C 195.796 89.0858 196.308 88.8201 196.953 88.8201C 197.859 88.8201 198.41 89.3358 198.41 90.1756C 198.41 90.7342 198.199 91.0701 197.734 91.2498C 197.453 91.3592 197.085 91.4061 196.347 91.4178L 196.359 92.3201z"/>
<path style="stroke:none; fill-rule:evenodd; fill:#000000" d="M 238.152 85.3201L 235.824 85.3201L 235.824 82.9803L 235.027 82.9803L 235.027 85.3201L 232.601 85.3201L 232.601 86.117L 235.027 86.117L 235.027 88.5311L 235.824 88.5311L 235.824 86.117L 238.152 86.117L 238.152 85.3201z"/>
<path style="stroke:none; fill-rule:evenodd; fill:#000000" d="M 232.66 92.3201L 233.214 92.3201C 234.339 92.3201 234.918 92.824 234.918 93.7928C 234.918 94.8084 234.285 95.4139 233.222 95.4139C 232.117 95.4139 231.574 94.8553 231.503 93.6522L 230.488 93.6522C 230.531 94.3123 230.648 94.7459 230.839 95.117C 231.25 95.9061 232.054 96.3123 233.164 96.3123C 234.835 96.3123 235.914 95.3162 235.914 93.7772C 235.914 92.7459 235.515 92.1717 234.546 91.8397C 235.324 91.5428 235.714 90.9686 235.714 90.1561C 235.714 88.7576 234.781 87.9217 233.222 87.9217C 231.574 87.9217 230.695 88.8006 230.66 90.5076L 231.683 90.5076C 231.695 90.0311 231.738 89.7654 231.867 89.5193C 232.097 89.0858 232.609 88.8201 233.253 88.8201C 234.16 88.8201 234.711 89.3358 234.711 90.1756C 234.711 90.7342 234.5 91.0701 234.035 91.2498C 233.753 91.3592 233.386 91.4061 232.648 91.4178L 232.66 92.3201z"/>
<path style="stroke:none; fill-rule:evenodd; fill:#000000" d="M 106.082 21.019L 104.328 25.34L 105.117 25.34L 106.503 21.929L 107.902 25.34L 108.691 25.34L 106.914 21.019L 106.082 21.019z"/>
<path style="stroke:none; fill-rule:evenodd; fill:#000000" d="M 190.281 21.019L 188.527 25.34L 189.316 25.34L 190.703 21.929L 192.101 25.34L 192.89 25.34L 191.113 21.019L 190.281 21.019z"/>
<path style="stroke:#000000; stroke-width:1.9133; fill:none" d="M 10.0273 49.668L 46.3789 49.668L 46.3789 11.402L 10.0273 11.402L 10.0273 49.668z"/>
<path style="stroke:#000000; stroke-width:1.9133; fill:none" d="M 46.3789 49.668L 82.7304 49.668L 82.7304 11.402L 46.3789 11.402L 46.3789 49.668z"/>
<path style="stroke:none; fill-rule:evenodd; fill:#000000" d="M 58.1836 13.418L 56.4296 17.738L 57.2187 17.738L 58.6054 14.328L 60.0039 17.738L 60.7929 17.738L 59.0156 13.418L 58.1836 13.418z"/>
<path style="stroke:none; fill-rule:evenodd; fill:#000000" d="M 52.6484 19.57L 51.375 23.523L 51.0312 21.754C 50.6875 19.996 50.3203 19.422 49.5507 19.422C 49.207 19.422 48.8984 19.582 48.7148 19.847C 48.4648 20.203 48.4062 20.492 48.3828 21.461L 48.3828 21.609L 48.6328 21.609C 48.6523 21.289 48.6757 21.109 48.7226 20.941C 48.8476 20.558 49.1211 20.32 49.4531 20.32C 49.7617 20.32 49.9804 20.515 50.1953 20.988C 50.4687 21.586 50.7656 22.64 50.8828 23.496L 51.0195 24.453C 50.9882 24.566 50.8593 24.937 50.6406 25.562C 50.414 26.195 50.3437 26.531 50.3437 26.926C 50.3437 27.469 50.582 27.824 50.9492 27.824C 51.4179 27.824 51.7265 27.238 51.7265 26.32C 51.7265 25.965 51.6718 25.414 51.5351 24.551L 53.8632 19.566L 52.6484 19.57z"/>
<path style="stroke:none; fill-rule:evenodd; fill:#000000" d="M 56.7226 36.492L 56.7226 42.515L 57.7226 42.515L 57.7226 39.383C 57.7226 38.519 57.9336 37.957 58.3828 37.621C 58.6718 37.402 58.9531 37.336 59.6054 37.324L 59.6054 36.359C 59.4492 36.34 59.3711 36.328 59.2461 36.328C 58.6367 36.328 58.1718 36.695 57.625 37.59L 57.625 36.5L 56.7226 36.492z"/>
<path style="stroke:none; fill-rule:evenodd; fill:#000000" d="M 62.4453 34.117C 61.3281 35.625 60.6211 37.719 60.6211 39.527C 60.6211 41.344 61.3242 43.437 62.4453 44.945L 63.0586 44.945C 62.0703 43.301 61.5195 41.367 61.5195 39.527C 61.5195 37.699 62.0703 35.754 63.0586 34.117L 62.4453 34.117z"/>
<path style="stroke:none; fill-rule:evenodd; fill:#000000" d="M 66.6214 36.75L 66.6214 42.515L 67.6214 42.515L 67.6214 34.418L 66.9534 34.418C 66.5974 35.66 66.3674 35.832 64.7968 36.027L 64.7968 36.746L 66.6214 36.75z"/>
<path style="stroke:none; fill-rule:evenodd; fill:#000000" d="M 70.9764 44.953C 72.1054 43.445 72.8164 41.351 72.8164 39.547C 72.8164 37.73 72.1054 35.637 70.9764 34.125L 70.3594 34.125C 71.3634 35.773 71.9214 37.703 71.9214 39.547C 71.9214 41.375 71.3634 43.32 70.3594 44.953L 70.9764 44.953z"/>
<path style="stroke:none; fill-rule:evenodd; fill:#000000" d="M 54.4531 39.519L 52.125 39.519L 52.125 37.179L 51.3281 37.179L 51.3281 39.519L 48.9023 39.519L 48.9023 40.316L 51.3281 40.316L 51.3281 42.73L 52.125 42.73L 52.125 40.316L 54.4531 40.316L 54.4531 39.519z"/>
<path style="stroke:#000000; stroke-width:1.9133; fill:none" d="M 94.2114 49.668L 130.562 49.668L 130.562 11.402L 94.2114 11.402L 94.2114 49.668z"/>
<path style="stroke:#000000; stroke-width:1.9133; fill:none" d="M 130.566 49.668L 166.918 49.668L 166.918 11.402L 130.566 11.402L 130.566 49.668z"/>
<path style="stroke:#000000; stroke-width:1.9133; fill:none" d="M 178.398 49.668L 214.75 49.668L 214.75 11.402L 178.398 11.402L 178.398 49.668z"/>
<path style="stroke:#000000; stroke-width:1.9133; fill:none" d="M 214.75 49.668L 251.101 49.668L 251.101 11.402L 214.75 11.402L 214.75 49.668z"/>
<path style="stroke:none; fill-rule:evenodd; fill:#000000" d="M 144.281 13.418L 142.527 17.738L 143.316 17.738L 144.703 14.328L 146.101 17.738L 146.89 17.738L 145.113 13.418L 144.281 13.418z"/>
<path style="stroke:none; fill-rule:evenodd; fill:#000000" d="M 138.75 19.57L 137.476 23.523L 137.132 21.754C 136.789 19.996 136.421 19.422 135.652 19.422C 135.308 19.422 135 19.582 134.816 19.847C 134.566 20.203 134.507 20.492 134.484 21.461L 134.484 21.609L 134.734 21.609C 134.753 21.289 134.777 21.109 134.824 20.941C 134.949 20.558 135.222 20.32 135.554 20.32C 135.863 20.32 136.082 20.515 136.296 20.988C 136.57 21.586 136.867 22.64 136.984 23.496L 137.121 24.453C 137.089 24.566 136.961 24.937 136.742 25.562C 136.515 26.195 136.445 26.531 136.445 26.926C 136.445 27.469 136.683 27.824 137.05 27.824C 137.519 27.824 137.828 27.238 137.828 26.32C 137.828 25.965 137.773 25.414 137.636 24.551L 139.964 19.566L 138.75 19.57z"/>
<path style="stroke:none; fill-rule:evenodd; fill:#000000" d="M 140.55 39.519L 138.222 39.519L 138.222 37.179L 137.425 37.179L 137.425 39.519L 135 39.519L 135 40.316L 137.425 40.316L 137.425 42.73L 138.222 42.73L 138.222 40.316L 140.55 40.316L 140.55 39.519z"/>
<path style="stroke:none; fill-rule:evenodd; fill:#000000" d="M 142.82 36.492L 142.82 42.515L 143.82 42.515L 143.82 39.383C 143.82 38.519 144.031 37.957 144.48 37.621C 144.769 37.402 145.05 37.336 145.703 37.324L 145.703 36.359C 145.546 36.34 145.468 36.328 145.343 36.328C 144.734 36.328 144.269 36.695 143.722 37.59L 143.722 36.5L 142.82 36.492z"/>
<path style="stroke:none; fill-rule:evenodd; fill:#000000" d="M 148.546 34.117C 147.429 35.625 146.722 37.719 146.722 39.527C 146.722 41.344 147.425 43.437 148.546 44.945L 149.16 44.945C 148.171 43.301 147.621 41.367 147.621 39.527C 147.621 37.699 148.171 35.754 149.16 34.117L 148.546 34.117z"/>
<path style="stroke:none; fill-rule:evenodd; fill:#000000" d="M 155.464 41.519L 151.238 41.519C 151.339 40.859 151.703 40.437 152.687 39.855L 153.82 39.242C 154.941 38.629 155.519 37.793 155.519 36.801C 155.519 36.129 155.25 35.5 154.773 35.066C 154.3 34.633 153.711 34.429 152.949 34.429C 151.929 34.429 151.171 34.789 150.73 35.469C 150.449 35.898 150.324 36.394 150.3 37.211L 151.3 37.211C 151.332 36.679 151.402 36.355 151.539 36.097C 151.8 35.621 152.324 35.328 152.925 35.328C 153.835 35.328 154.519 35.976 154.519 36.844C 154.519 37.48 154.144 38.027 153.425 38.437L 152.378 39.027C 150.695 39.98 150.203 40.746 150.113 42.523L 155.464 42.523L 155.464 41.519z"/>
<path style="stroke:none; fill-rule:evenodd; fill:#000000" d="M 157.078 44.953C 158.207 43.445 158.918 41.351 158.918 39.547C 158.918 37.73 158.207 35.637 157.078 34.125L 156.461 34.125C 157.464 35.773 158.023 37.703 158.023 39.547C 158.023 41.375 157.464 43.32 156.461 44.953L 157.078 44.953z"/>
<path style="stroke:none; fill-rule:evenodd; fill:#000000" d="M 228.484 13.418L 226.73 17.738L 227.519 17.738L 228.906 14.328L 230.304 17.738L 231.093 17.738L 229.316 13.418L 228.484 13.418z"/>
<path style="stroke:none; fill-rule:evenodd; fill:#000000" d="M 222.949 19.57L 221.675 23.523L 221.332 21.754C 220.988 19.996 220.621 19.422 219.851 19.422C 219.507 19.422 219.199 19.582 219.015 19.847C 218.765 20.203 218.707 20.492 218.683 21.461L 218.683 21.609L 218.933 21.609C 218.953 21.289 218.976 21.109 219.023 20.941C 219.148 20.558 219.421 20.32 219.753 20.32C 220.062 20.32 220.281 20.515 220.496 20.988C 220.769 21.586 221.066 22.64 221.183 23.496L 221.32 24.453C 221.289 24.566 221.16 24.937 220.941 25.562C 220.714 26.195 220.644 26.531 220.644 26.926C 220.644 27.469 220.882 27.824 221.25 27.824C 221.718 27.824 222.027 27.238 222.027 26.32C 222.027 25.965 221.972 25.414 221.835 24.551L 224.164 19.566L 222.949 19.57z"/>
<path style="stroke:none; fill-rule:evenodd; fill:#000000" d="M 224.75 39.519L 222.421 39.519L 222.421 37.179L 221.625 37.179L 221.625 39.519L 219.199 39.519L 219.199 40.316L 221.625 40.316L 221.625 42.73L 222.421 42.73L 222.421 40.316L 224.75 40.316L 224.75 39.519z"/>
<path style="stroke:#000000; stroke-width:1.9133; fill:none" d="M 76.9924 24.797L 101.863 30.535"/>
<path style="stroke:#000000; stroke-width:1.9133; fill:none" d="M 94.8394 26.949L 101.863 30.531L 93.9764 30.672"/>
<path style="stroke:#000000; stroke-width:1.9133; fill:none" d="M 163.089 24.797L 187.961 30.535"/>
<path style="stroke:#000000; stroke-width:1.9133; fill:none" d="M 180.937 26.949L 187.961 30.531L 180.074 30.672"/>
<path style="stroke:none; fill-rule:evenodd; fill:#000000" d="M 227.023 36.492L 227.023 42.515L 228.023 42.515L 228.023 39.383C 228.023 38.519 228.234 37.957 228.683 37.621C 228.972 37.402 229.253 37.336 229.906 37.324L 229.906 36.359C 229.75 36.34 229.671 36.328 229.546 36.328C 228.937 36.328 228.472 36.695 227.925 37.59L 227.925 36.5L 227.023 36.492z"/>
<path style="stroke:none; fill-rule:evenodd; fill:#000000" d="M 232.746 34.117C 231.628 35.625 230.921 37.719 230.921 39.527C 230.921 41.344 231.625 43.437 232.746 44.945L 233.359 44.945C 232.371 43.301 231.82 41.367 231.82 39.527C 231.82 37.699 232.371 35.754 233.359 34.117L 232.746 34.117z"/>
<path style="stroke:none; fill-rule:evenodd; fill:#000000" d="M 236.359 38.82L 236.914 38.82C 238.039 38.82 238.617 39.324 238.617 40.293C 238.617 41.308 237.984 41.914 236.921 41.914C 235.816 41.914 235.273 41.355 235.203 40.152L 234.187 40.152C 234.23 40.812 234.347 41.246 234.539 41.617C 234.949 42.406 235.753 42.812 236.863 42.812C 238.535 42.812 239.613 41.816 239.613 40.277C 239.613 39.246 239.214 38.672 238.246 38.34C 239.023 38.043 239.414 37.469 239.414 36.656C 239.414 35.258 238.48 34.422 236.921 34.422C 235.273 34.422 234.394 35.301 234.359 37.008L 235.382 37.008C 235.394 36.531 235.437 36.265 235.566 36.019C 235.796 35.586 236.308 35.32 236.953 35.32C 237.859 35.32 238.41 35.836 238.41 36.676C 238.41 37.234 238.199 37.57 237.734 37.75C 237.453 37.859 237.085 37.906 236.347 37.918L 236.359 38.82z"/>
<path style="stroke:none; fill-rule:evenodd; fill:#000000" d="M 241.277 44.953C 242.406 43.445 243.117 41.351 243.117 39.547C 243.117 37.73 242.406 35.637 241.277 34.125L 240.66 34.125C 241.664 35.773 242.222 37.703 242.222 39.547C 242.222 41.375 241.664 43.32 240.66 44.953L 241.277 44.953z"/>
<path style="stroke:none; fill-rule:evenodd; fill:#000000" d="M 22.1211 34.918L 25.0234 26.519L 23.8906 26.519L 21.5742 33.633L 19.1211 26.519L 17.9765 26.519L 20.9804 34.918L 22.1211 34.918z"/>
<path style="stroke:none; fill-rule:evenodd; fill:#000000" d="M 28.0468 26.519C 26.9296 28.027 26.2226 30.121 26.2226 31.929C 26.2226 33.746 26.9257 35.84 28.0468 37.347L 28.6601 37.347C 27.6718 35.703 27.1211 33.769 27.1211 31.929C 27.1211 30.101 27.6718 28.156 28.6601 26.519L 28.0468 26.519z"/>
<path style="stroke:none; fill-rule:evenodd; fill:#000000" d="M 32.2734 26.82C 31.5195 26.82 30.8359 27.152 30.414 27.719C 29.8906 28.429 29.6289 29.519 29.6289 31.019C 29.6289 33.758 30.539 35.215 32.2773 35.215C 33.9882 35.215 34.9257 33.762 34.9257 31.09C 34.9257 29.512 34.6757 28.453 34.1406 27.719C 33.7187 27.144 33.0468 26.82 32.2812 26.82L 32.2734 26.82zM 32.2734 27.719C 33.375 27.719 33.9218 28.824 33.9218 31.015C 33.9218 33.332 33.3906 34.414 32.25 34.414C 31.1718 34.414 30.625 33.285 30.625 31.051C 30.625 28.816 31.1679 27.719 32.2734 27.719z"/>
<path style="stroke:none; fill-rule:evenodd; fill:#000000" d="M 36.5781 37.351C 37.707 35.844 38.4179 33.75 38.4179 31.945C 38.4179 30.129 37.707 28.035 36.5781 26.523L 35.9609 26.523C 36.9648 28.172 37.5234 30.101 37.5234 31.945C 37.5234 33.773 36.9648 35.719 35.9609 37.351L 36.5781 37.351z"/>
<path style="stroke:none; fill-rule:evenodd; fill:#000000" d="M 106.421 34.918L 109.324 26.519L 108.191 26.519L 105.875 33.633L 103.421 26.519L 102.277 26.519L 105.281 34.918L 106.421 34.918z"/>
<path style="stroke:none; fill-rule:evenodd; fill:#000000" d="M 112.246 26.519C 111.128 28.027 110.421 30.121 110.421 31.929C 110.421 33.746 111.125 35.84 112.246 37.347L 112.859 37.347C 111.871 35.703 111.32 33.769 111.32 31.929C 111.32 30.101 111.871 28.156 112.859 26.519L 112.246 26.519z"/>
<path style="stroke:none; fill-rule:evenodd; fill:#000000" d="M 116.32 29.148L 116.32 34.914L 117.32 34.914L 117.32 26.816L 116.652 26.816C 116.296 28.058 116.066 28.23 114.496 28.426L 114.496 29.144L 116.32 29.148z"/>
<path style="stroke:none; fill-rule:evenodd; fill:#000000" d="M 120.777 37.351C 121.906 35.844 122.617 33.75 122.617 31.945C 122.617 30.129 121.906 28.035 120.777 26.523L 120.16 26.523C 121.164 28.172 121.722 30.101 121.722 31.945C 121.722 33.773 121.164 35.719 120.16 37.351L 120.777 37.351z"/>
<path style="stroke:none; fill-rule:evenodd; fill:#5f5f5f" d="M 65.5429 72.5975L 69.3674 72.5975L 69.3674 61.117L 65.5429 61.117L 65.5429 72.5975z"/>
<path style="stroke:#000000; stroke-width:0.95664899999999997; fill:none" d="M 65.5429 72.5975L 69.3674 72.5975L 69.3674 61.117L 65.5429 61.117L 65.5429 72.5975z"/>
<path style="stroke:#000000; stroke-dasharray:6,3; stroke-width:2.8699499999999998; fill:none" d="M 69.3394 66.887L 130.562 49.668"/>
<path style="stroke:none; fill-rule:evenodd; fill:#ffffff" d="M 92.2964 66.879L 101.863 66.879L 101.863 53.488L 92.2964 53.488L 92.2964 66.879z"/>
<path style="stroke:#ffffff; stroke-width:0.0; fill:none" d="M 92.2964 66.879L 101.863 66.879L 101.863 53.488L 92.2964 53.488L 92.2964 66.879z"/>
<path style="stroke:none; fill-rule:evenodd; fill:#000000" d="M 97.6524 56.988C 96.9724 57.203 96.5824 57.375 96.1874 57.644C 95.3244 58.246 94.8284 59.187 94.8284 60.191C 94.8284 61.785 96.0784 63.113 97.5894 63.113C 99.2304 63.113 100.625 61.605 100.625 59.844C 100.625 58.992 100.335 58.16 99.7934 57.508C 99.3324 56.949 99.1214 56.789 97.9334 56.066C 96.7074 55.308 96.2304 54.84 96.2304 54.41C 96.2304 53.972 96.6564 53.625 97.1754 53.625C 97.6524 53.625 97.9454 53.765 98.4414 54.254C 98.9844 54.793 99.1714 54.91 99.5034 54.91C 99.8634 54.91 100.128 54.66 100.128 54.34C 100.128 53.621 98.9614 53.023 97.5504 53.023C 96.2894 53.023 95.5234 53.531 95.5234 54.347C 95.5234 54.828 95.7384 55.219 96.3284 55.769L 97.6524 56.988zM 98.0154 57.32C 98.8984 58.172 99.3204 59.121 99.3204 60.285C 99.3204 61.609 98.7034 62.515 97.7774 62.515C 96.8554 62.515 96.2224 61.461 96.2224 59.906C 96.2224 58.445 96.8164 57.578 98.0154 57.32z"/>
<path style="stroke:none; fill-rule:evenodd; fill:#5f5f5f" d="M 149.73 72.5975L 153.554 72.5975L 153.554 61.117L 149.73 61.117L 149.73 72.5975z"/>
<path style="stroke:#000000; stroke-width:0.95664899999999997; fill:none" d="M 149.73 72.5975L 153.554 72.5975L 153.554 61.117L 149.73 61.117L 149.73 72.5975z"/>
<path style="stroke:#000000; stroke-dasharray:6,3; stroke-width:2.8699499999999998; fill:none" d="M 153.523 66.887L 214.746 49.668"/>
<path style="stroke:none; fill-rule:evenodd; fill:#ffffff" d="M 176.48 66.879L 186.046 66.879L 186.046 53.488L 176.48 53.488L 176.48 66.879z"/>
<path style="stroke:#ffffff; stroke-width:0.0; fill:none" d="M 176.48 66.879L 186.046 66.879L 186.046 53.488L 176.48 53.488L 176.48 66.879z"/>
<path style="stroke:none; fill-rule:evenodd; fill:#000000" d="M 181.851 56.988C 181.171 57.203 180.781 57.375 180.386 57.644C 179.523 58.246 179.027 59.187 179.027 60.191C 179.027 61.785 180.277 63.113 181.789 63.113C 183.429 63.113 184.824 61.605 184.824 59.844C 184.824 58.992 184.535 58.16 183.992 57.508C 183.531 56.949 183.32 56.789 182.132 56.066C 180.906 55.308 180.429 54.84 180.429 54.41C 180.429 53.972 180.855 53.625 181.375 53.625C 181.851 53.625 182.144 53.765 182.64 54.254C 183.183 54.793 183.371 54.91 183.703 54.91C 184.062 54.91 184.328 54.66 184.328 54.34C 184.328 53.621 183.16 53.023 181.75 53.023C 180.488 53.023 179.722 53.531 179.722 54.347C 179.722 54.828 179.937 55.219 180.527 55.769L 181.851 56.988zM 182.214 57.32C 183.097 58.172 183.519 59.121 183.519 60.285C 183.519 61.609 182.902 62.515 181.976 62.515C 181.054 62.515 180.421 61.461 180.421 59.906C 180.421 58.445 181.015 57.578 182.214 57.32z"/>
<path style="stroke:none; fill-rule:evenodd; fill:#000000" d="M 25.4492 3.418L 31.4609 3.418L 31.4609 2.82001L 25.4492 2.82001L 25.4492 3.418z"/>
<path style="stroke:none; fill-rule:evenodd; fill:#000000" d="M 65.2226 0L 64.625 0L 64.625 2.71901L 61.8437 2.71901L 61.8437 3.31601L 64.625 3.31601L 64.625 6.11301L 65.2226 6.11301L 65.2226 3.31601L 67.9104 3.31601L 67.9104 2.71901L 65.2226 2.71901L 65.2226 0z"/>
<path style="stroke:none; fill-rule:evenodd; fill:#000000" d="M 109.648 3.418L 115.66 3.418L 115.66 2.82001L 109.648 2.82001L 109.648 3.418z"/>
<path style="stroke:none; fill-rule:evenodd; fill:#000000" d="M 149.421 0L 148.824 0L 148.824 2.71901L 146.043 2.71901L 146.043 3.31601L 148.824 3.31601L 148.824 6.11301L 149.421 6.11301L 149.421 3.31601L 152.109 3.31601L 152.109 2.71901L 149.421 2.71901L 149.421 0z"/>
<path style="stroke:none; fill-rule:evenodd; fill:#000000" d="M 193.847 3.418L 199.859 3.418L 199.859 2.82001L 193.847 2.82001L 193.847 3.418z"/>
<path style="stroke:none; fill-rule:evenodd; fill:#000000" d="M 233.523 0L 232.925 0L 232.925 2.71901L 230.144 2.71901L 230.144 3.31601L 232.925 3.31601L 232.925 6.11301L 233.523 6.11301L 233.523 3.31601L 236.211 3.31601L 236.211 2.71901L 233.523 2.71901L 233.523 0z"/>
<path style="stroke:none; fill-rule:evenodd; fill:#000000" d="M 190.621 34.918L 193.523 26.519L 192.39 26.519L 190.074 33.633L 187.621 26.519L 186.476 26.519L 189.48 34.918L 190.621 34.918z"/>
<path style="stroke:none; fill-rule:evenodd; fill:#000000" d="M 196.445 26.519C 195.328 28.027 194.621 30.121 194.621 31.929C 194.621 33.746 195.324 35.84 196.445 37.347L 197.058 37.347C 196.07 35.703 195.519 33.769 195.519 31.929C 195.519 30.101 196.07 28.156 197.058 26.519L 196.445 26.519z"/>
<path style="stroke:none; fill-rule:evenodd; fill:#000000" d="M 203.363 33.918L 199.136 33.918C 199.238 33.258 199.601 32.836 200.585 32.254L 201.718 31.64C 202.839 31.027 203.418 30.191 203.418 29.199C 203.418 28.527 203.148 27.898 202.671 27.465C 202.199 27.031 201.609 26.828 200.847 26.828C 199.828 26.828 199.07 27.187 198.628 27.867C 198.347 28.297 198.222 28.793 198.199 29.609L 199.199 29.609C 199.23 29.078 199.3 28.754 199.437 28.496C 199.699 28.019 200.222 27.726 200.824 27.726C 201.734 27.726 202.418 28.375 202.418 29.242C 202.418 29.879 202.043 30.426 201.324 30.836L 200.277 31.426C 198.593 32.379 198.101 33.144 198.011 34.922L 203.363 34.922L 203.363 33.918z"/>
<path style="stroke:none; fill-rule:evenodd; fill:#000000" d="M 204.976 37.351C 206.105 35.844 206.816 33.75 206.816 31.945C 206.816 30.129 206.105 28.035 204.976 26.523L 204.359 26.523C 205.363 28.172 205.921 30.101 205.921 31.945C 205.921 33.773 205.363 35.719 204.359 37.351L 204.976 37.351z"/>
</g>
</svg>