<?xml version="1.0" encoding="UTF-8" standalone="no"?>
<!-- Created with Inkscape (http://www.inkscape.org/) -->

<svg
   xmlns:dc="http://purl.org/dc/elements/1.1/"
   xmlns:cc="http://creativecommons.org/ns#"
   xmlns:rdf="http://www.w3.org/1999/02/22-rdf-syntax-ns#"
   xmlns:svg="http://www.w3.org/2000/svg"
   xmlns="http://www.w3.org/2000/svg"
   xmlns:sodipodi="http://sodipodi.sourceforge.net/DTD/sodipodi-0.dtd"
   xmlns:inkscape="http://www.inkscape.org/namespaces/inkscape"
   id="svg2"
   version="1.1"
   inkscape:version="0.47 r22583"
   width="181.25"
   height="365"
   xml:space="preserve"
   sodipodi:docname="fig_posner_disengage_mech.svg"
   inkscape:export-filename="/Users/oreilly/svn_docs/figs/fig_posner_disengage_mech.png"
   inkscape:export-xdpi="150"
   inkscape:export-ydpi="150"><metadata
     id="metadata8"><rdf:RDF><cc:Work
         rdf:about=""><dc:format>image/svg+xml</dc:format><dc:type
           rdf:resource="http://purl.org/dc/dcmitype/StillImage" /><dc:title></dc:title></cc:Work></rdf:RDF></metadata><defs
     id="defs6"><inkscape:perspective
       sodipodi:type="inkscape:persp3d"
       inkscape:vp_x="0 : 0.5 : 1"
       inkscape:vp_y="0 : 1000 : 0"
       inkscape:vp_z="1 : 0.5 : 1"
       inkscape:persp3d-origin="0.5 : 0.33333333 : 1"
       id="perspective10" /></defs><sodipodi:namedview
     pagecolor="#ffffff"
     bordercolor="#666666"
     borderopacity="1"
     objecttolerance="10"
     gridtolerance="10"
     guidetolerance="10"
     inkscape:pageopacity="0"
     inkscape:pageshadow="2"
     inkscape:window-width="640"
     inkscape:window-height="480"
     id="namedview4"
     showgrid="false"
     inkscape:zoom="1.2931507"
     inkscape:cx="81.326282"
     inkscape:cy="152.85714"
     inkscape:current-layer="g12" /><g
     id="g12"
     inkscape:groupmode="layer"
     inkscape:label="fig_posner_disengage_mech"
     transform="matrix(1.25,0,0,-1.25,0,365)"><rect
       style="fill:#ffffff;fill-opacity:1;fill-rule:nonzero;stroke:#ffffff;stroke-width:3;stroke-miterlimit:4;stroke-opacity:1;stroke-dasharray:none;stroke-dashoffset:0"
       id="rect2904"
       width="187.13983"
       height="369.63983"
       x="-3.0932202"
       y="-1.5466104"
       transform="matrix(0.8,0,0,-0.8,0,292)" /><g
       id="g14"
       transform="scale(0.1,0.1)"><path
         d="m 19.1328,2726.48 306.129,0 0,172.195 -306.129,0 0,-172.195 z"
         style="fill:none;stroke:#000000;stroke-opacity:1;stroke-width:19.133;stroke-linecap:butt;stroke-linejoin:miter;stroke-miterlimit:10;stroke-dasharray:none"
         id="path16" /><path
         d="m 1128.85,2726.48 306.125,0 0,172.195 -306.125,0 0,-172.195 z"
         style="fill:none;stroke:#000000;stroke-opacity:1;stroke-width:28.6995;stroke-linecap:butt;stroke-linejoin:miter;stroke-miterlimit:10;stroke-dasharray:none"
         id="path18" /><path
         d="m 573.988,2726.48 306.129,0 0,172.195 -306.129,0 0,-172.195 z"
         style="fill:none;stroke:#000000;stroke-opacity:1;stroke-width:19.133;stroke-linecap:butt;stroke-linejoin:miter;stroke-miterlimit:10;stroke-dasharray:none"
         id="path20" /><g
         id="g22"
         transform="scale(10,10)"><text
           transform="matrix(1,0,0,-1,69.8355,277.833)"
           id="text24"><tspan
             style="fill:#000000;fill-opacity:1;fill-rule:nonzero;stroke:none;font-family:Helvetica;font-variant:normal;font-weight:normal;font-size:11.4798;writing-mode:lr;-inkscape-font-specification:Helvetica"
             x="0"
             y="0"
             id="tspan26">+</tspan></text>
</g><path
         d="m 267.863,2362.95 899.25,0 0,267.859 -899.25,0 0,-267.859 z"
         style="fill:none;stroke:#000000;stroke-opacity:1;stroke-width:19.133;stroke-linecap:butt;stroke-linejoin:miter;stroke-miterlimit:10;stroke-dasharray:none"
         id="path28" /><g
         id="g30"
         transform="scale(10,10)"><text
           transform="matrix(1,0,0,-1,59.7906,246.264)"
           id="text32"><tspan
             style="fill:#000000;fill-opacity:1;fill-rule:nonzero;stroke:none;font-family:Helvetica;font-variant:normal;font-weight:normal;font-size:11.4798;writing-mode:lr;-inkscape-font-specification:Helvetica"
             x="0 7.6570266 10.2055422 16.588311 20.4110844"
             y="0"
             sodipodi:role="line"
             id="tspan34">Alert</tspan></text>
</g><path
         d="m 267.863,1980.29 899.25,0 0,267.863 -899.25,0 0,-267.863 z"
         style="fill:none;stroke:#000000;stroke-opacity:1;stroke-width:19.133;stroke-linecap:butt;stroke-linejoin:miter;stroke-miterlimit:10;stroke-dasharray:none"
         id="path36" /><g
         id="g38"
         transform="scale(10,10)"><text
           transform="matrix(1,0,0,-1,50.7023,207.998)"
           id="text40"><tspan
             style="fill:#000000;fill-opacity:1;fill-rule:nonzero;stroke:none;font-family:Helvetica;font-variant:normal;font-weight:normal;font-size:11.4798;writing-mode:lr;-inkscape-font-specification:Helvetica"
             x="0 3.1913844 9.5741532 12.7655376 19.1483064 22.9710798 26.7938532 33.176622 39.5593908"
             y="0"
             sodipodi:role="line"
             id="tspan42">Interrupt</tspan></text>
</g><path
         d="m 267.863,1597.63 899.25,0 0,267.863 -899.25,0 0,-267.863 z"
         style="fill:none;stroke:#000000;stroke-opacity:1;stroke-width:19.133;stroke-linecap:butt;stroke-linejoin:miter;stroke-miterlimit:10;stroke-dasharray:none"
         id="path44" /><g
         id="g46"
         transform="scale(10,10)"><text
           transform="matrix(1,0,0,-1,49.7457,169.732)"
           id="text48"><tspan
             style="fill:#000000;fill-opacity:1;fill-rule:nonzero;stroke:none;font-family:Helvetica;font-variant:normal;font-weight:normal;font-size:11.4798;writing-mode:lr;-inkscape-font-specification:Helvetica"
             x="0 6.3827688 12.7655376 18.5054376 24.8882064 27.436722 29.9852376 35.7251376"
             y="0"
             sodipodi:role="line"
             id="tspan50">Localize</tspan></text>
</g><path
         d="m 267.863,1214.97 899.25,0 0,267.863 -899.25,0 0,-267.863 z"
         style="fill:none;stroke:#000000;stroke-opacity:1;stroke-width:19.133;stroke-linecap:butt;stroke-linejoin:miter;stroke-miterlimit:10;stroke-dasharray:none"
         id="path52" /><g
         id="g54"
         transform="scale(10,10)"><text
           transform="matrix(1,0,0,-1,43.5273,131.466)"
           id="text56"><tspan
             style="fill:#000000;fill-opacity:1;fill-rule:nonzero;stroke:none;font-family:Helvetica;font-variant:normal;font-weight:normal;font-size:11.4798;writing-mode:lr;-inkscape-font-specification:Helvetica"
             x="0 8.2884156 10.8369312 16.5768312 22.9596 29.3423688 35.7251376 42.1079064 48.4906752"
             y="0"
             sodipodi:role="line"
             id="tspan58">Disengage</tspan></text>
</g><path
         d="m 267.863,813.18 899.25,0 0,267.863 -899.25,0 0,-267.863 z"
         style="fill:none;stroke:#000000;stroke-opacity:1;stroke-width:19.133;stroke-linecap:butt;stroke-linejoin:miter;stroke-miterlimit:10;stroke-dasharray:none"
         id="path60" /><g
         id="g62"
         transform="scale(10,10)"><text
           transform="matrix(1,0,0,-1,56.9207,91.2863)"
           id="text64"><tspan
             style="fill:#000000;fill-opacity:1;fill-rule:nonzero;stroke:none;font-family:Helvetica;font-variant:normal;font-weight:normal;font-size:11.4798;writing-mode:lr;-inkscape-font-specification:Helvetica"
             x="0 9.5626734 15.9454422 21.6853422"
             y="0"
             sodipodi:role="line"
             id="tspan66">Move</tspan></text>
</g><path
         d="m 267.863,430.52 899.25,0 0,267.863 -899.25,0 0,-267.863 z"
         style="fill:none;stroke:#000000;stroke-opacity:1;stroke-width:19.133;stroke-linecap:butt;stroke-linejoin:miter;stroke-miterlimit:10;stroke-dasharray:none"
         id="path68" /><g
         id="g70"
         transform="scale(10,10)"><text
           transform="matrix(1,0,0,-1,51.659,53.0203)"
           id="text72"><tspan
             style="fill:#000000;fill-opacity:1;fill-rule:nonzero;stroke:none;font-family:Helvetica;font-variant:normal;font-weight:normal;font-size:11.4798;writing-mode:lr;-inkscape-font-specification:Helvetica"
             x="0 7.6570266 14.0397954 20.4225642 26.805333 33.1881018"
             y="0"
             sodipodi:role="line"
             id="tspan74">Engage</tspan></text>
</g><path
         d="m 267.863,28.7305 899.25,0 0,267.859 -899.25,0 0,-267.859 z"
         style="fill:none;stroke:#000000;stroke-opacity:1;stroke-width:19.133;stroke-linecap:butt;stroke-linejoin:miter;stroke-miterlimit:10;stroke-dasharray:none"
         id="path76" /><g
         id="g78"
         transform="scale(10,10)"><text
           transform="matrix(1,0,0,-1,56.4422,12.841)"
           id="text80"><tspan
             style="fill:#000000;fill-opacity:1;fill-rule:nonzero;stroke:none;font-family:Helvetica;font-variant:normal;font-weight:normal;font-size:11.4798;writing-mode:lr;-inkscape-font-specification:Helvetica"
             x="0 3.1913844 9.5741532 15.956922 18.5054376 24.8882064 27.436722"
             y="0"
             sodipodi:role="line"
             id="tspan82">Inhibit</tspan></text>
</g><path
         d="m 1281.91,2726.48 0,-994.92 -114.8,0"
         style="fill:none;stroke:#000000;stroke-opacity:1;stroke-width:19.133;stroke-linecap:butt;stroke-linejoin:miter;stroke-miterlimit:10;stroke-dasharray:none"
         id="path84" /><path
         d="m 1243.64,1712.43 -76.53,19.13 76.53,19.14"
         style="fill:none;stroke:#000000;stroke-opacity:1;stroke-width:19.133;stroke-linecap:butt;stroke-linejoin:miter;stroke-miterlimit:10;stroke-dasharray:none"
         id="path86" /><path
         d="m 1281.91,2496.88 -114.8,0"
         style="fill:none;stroke:#000000;stroke-opacity:1;stroke-width:19.133;stroke-linecap:butt;stroke-linejoin:miter;stroke-miterlimit:10;stroke-dasharray:none"
         id="path88" /><path
         d="m 1243.64,2477.75 -76.53,19.13 76.53,19.14"
         style="fill:none;stroke:#000000;stroke-opacity:1;stroke-width:19.133;stroke-linecap:butt;stroke-linejoin:miter;stroke-miterlimit:10;stroke-dasharray:none"
         id="path90" /><path
         d="m 1167.11,2114.22 153.07,0 0,-765.31 -153.07,0"
         style="fill:none;stroke:#000000;stroke-opacity:1;stroke-width:19.133;stroke-linecap:butt;stroke-linejoin:miter;stroke-miterlimit:10;stroke-dasharray:none"
         id="path92" /><path
         d="m 1243.64,1329.77 -76.53,19.14 76.53,19.13"
         style="fill:none;stroke:#000000;stroke-opacity:1;stroke-width:19.133;stroke-linecap:butt;stroke-linejoin:miter;stroke-miterlimit:10;stroke-dasharray:none"
         id="path94" /><path
         d="m 267.863,1750.7 -133.933,0 0,-1588.04 133.933,0"
         style="fill:none;stroke:#000000;stroke-opacity:1;stroke-width:19.133;stroke-linecap:butt;stroke-linejoin:miter;stroke-miterlimit:10;stroke-dasharray:none"
         id="path96" /><path
         d="M 191.328,181.793 267.863,162.66 191.328,143.527"
         style="fill:none;stroke:#000000;stroke-opacity:1;stroke-width:19.133;stroke-linecap:butt;stroke-linejoin:miter;stroke-miterlimit:10;stroke-dasharray:none"
         id="path98" /></g></g></svg>