<?xml version="1.0" encoding="ISO-8859-1" standalone="yes"?>
<svg width="336.934" height="205.367">
  <defs> 
    <marker id="ArrowEnd" viewBox="0 0 10 10" refX="0" refY="5" 
     markerUnits="strokeWidth" 
     markerWidth="4" 
     markerHeight="3" 
     orient="auto"> 
        <path d="M 0 0 L 10 5 L 0 10 z" /> 
    </marker>
    <marker id="ArrowStart" viewBox="0 0 10 10" refX="10" refY="5" 
     markerUnits="strokeWidth" 
     markerWidth="4" 
     markerHeight="3" 
     orient="auto"> 
        <path d="M 10 0 L 0 5 L 10 10 z" /> 
    </marker> </defs>
<g>
<path style="stroke:none; fill-rule:evenodd; fill:#000000" d="M 24.9491 44.399L 27.6796 44.399C 28.621 44.399 29.0429 44.856 29.0429 45.887L 29.0429 46.629C 29.0429 47.145 29.1288 47.649 29.2734 47.992L 30.5312 47.992L 30.5312 47.731C 30.1405 47.457 30.0585 47.156 30.039 46.039C 30.0273 44.656 29.8085 44.242 28.8945 43.852C 29.8515 43.391 30.2382 42.805 30.2382 41.848C 30.2382 40.399 29.3319 39.602 27.6952 39.602L 23.8437 39.602L 23.8437 48L 24.9413 48L 24.9491 44.399zM 24.8827 43.453L 24.8827 40.574L 27.4648 40.574C 28.0585 40.574 28.4023 40.664 28.6679 40.895C 28.953 41.133 29.1015 41.512 29.1015 42.02C 29.1015 43.004 28.5976 43.453 27.4609 43.453L 24.8827 43.453z"/>
<path style="stroke:none; fill-rule:evenodd; fill:#000000" d="M 36.8476 45.297C 36.8476 44.379 36.7812 43.828 36.6093 43.383C 36.2226 42.399 35.3085 41.801 34.1913 41.801C 32.5273 41.801 31.453 43.094 31.453 45.082C 31.453 47.07 32.4882 48.297 34.164 48.297C 35.5273 48.297 36.4726 47.504 36.7148 46.172L 35.7616 46.172C 35.4999 46.977 34.9687 47.395 34.2069 47.395C 33.6054 47.395 33.0937 47.117 32.7773 46.602C 32.5507 46.254 32.4726 45.902 32.4609 45.297L 36.8476 45.297zM 32.4296 44.531C 32.5077 43.418 33.1874 42.695 34.1484 42.695C 35.0859 42.695 35.8124 43.473 35.8124 44.461C 35.8124 44.481 35.8124 44.504 35.8007 44.527L 32.4296 44.531z"/>
<path style="stroke:none; fill-rule:evenodd; fill:#000000" d="M 43.0507 39.598L 42.0507 39.598L 42.0507 42.738C 41.6523 42.125 41.0155 41.797 40.2148 41.797C 38.6679 41.797 37.6523 43.055 37.6523 44.988C 37.6523 47.035 38.664 48.293 40.3046 48.293C 41.1405 48.293 41.7226 47.973 42.246 47.203L 42.246 47.992L 43.0429 47.992L 43.0507 39.598zM 40.3749 42.699C 41.3945 42.699 42.0429 43.625 42.0429 45.07C 42.0429 46.469 41.3866 47.395 40.3866 47.395C 39.3437 47.395 38.6484 46.457 38.6484 45.047C 38.6484 43.637 39.3398 42.699 40.3749 42.699z"/>
<path style="stroke:#000000; stroke-dasharray:6,3; stroke-width:1.9133; fill:none" d="M 10.0273 57.793L 55.4804 57.793L 55.4804 31.414L 10.0273 31.414L 10.0273 57.793z"/>
<path style="stroke:none; fill-rule:evenodd; fill:#000000" d="M 93.4487 48L 97.2577 48C 98.0547 48 98.6447 47.781 99.0977 47.301C 99.5117 46.863 99.7457 46.266 99.7457 45.609C 99.7457 44.598 99.2737 43.985 98.1717 43.574C 98.9377 43.219 99.3437 42.598 99.3437 41.746C 99.3437 41.137 99.1167 40.598 98.6757 40.203C 98.2387 39.801 97.6637 39.617 96.8557 39.617L 93.4457 39.617L 93.4487 48zM 94.5507 43.297L 94.5507 40.5L 96.5937 40.5C 97.1837 40.5 97.5117 40.582 97.7927 40.813C 98.0857 41.051 98.2457 41.414 98.2457 41.899C 98.2457 42.367 98.0897 42.742 97.7927 42.985C 97.5117 43.211 97.1837 43.297 96.5937 43.297L 94.5507 43.297zM 94.5507 47.098L 94.5507 44.199L 97.1487 44.199C 97.6597 44.199 98.0037 44.324 98.2577 44.602C 98.5077 44.867 98.6447 45.235 98.6447 45.652C 98.6447 46.055 98.5077 46.426 98.2577 46.692C 98.0077 46.965 97.6637 47.094 97.1487 47.094L 94.5507 47.098z"/>
<path style="stroke:none; fill-rule:evenodd; fill:#000000" d="M 101.051 48L 102.051 48L 102.051 39.602L 101.051 39.602L 101.051 48z"/>
<path style="stroke:none; fill-rule:evenodd; fill:#000000" d="M 108.348 48.035L 108.348 42.004L 107.348 42.004L 107.348 45.449C 107.348 46.688 106.703 47.5 105.696 47.5C 104.934 47.5 104.449 47.039 104.449 46.309L 104.449 42.004L 103.449 42.004L 103.449 46.656C 103.449 47.656 104.207 48.301 105.399 48.301C 106.297 48.301 106.871 47.992 107.446 47.199L 107.446 48.039L 108.348 48.035z"/>
<path style="stroke:none; fill-rule:evenodd; fill:#000000" d="M 115.051 45.297C 115.051 44.379 114.985 43.828 114.813 43.383C 114.426 42.399 113.512 41.801 112.395 41.801C 110.731 41.801 109.656 43.094 109.656 45.082C 109.656 47.07 110.692 48.297 112.367 48.297C 113.731 48.297 114.676 47.504 114.918 46.172L 113.965 46.172C 113.703 46.977 113.172 47.395 112.41 47.395C 111.809 47.395 111.297 47.117 110.981 46.602C 110.754 46.254 110.676 45.902 110.664 45.297L 115.051 45.297zM 110.629 44.531C 110.707 43.418 111.387 42.695 112.348 42.695C 113.285 42.695 114.012 43.473 114.012 44.461C 114.012 44.481 114.012 44.504 114 44.527L 110.629 44.531z"/>
<path style="stroke:#000000; stroke-dasharray:6,3; stroke-width:2.8699499999999998; fill:none" d="M 81.2967 57.793L 126.75 57.793L 126.75 31.414L 81.2967 31.414L 81.2967 57.793z"/>
<path style="stroke:#000000; stroke-width:1.9133; fill:none" d="M 81.2967 103.711L 126.75 103.711L 126.75 77.332L 81.2967 77.332L 81.2967 103.711z"/>
<path style="stroke:none; fill-rule:evenodd; fill:#000000" d="M 92.1487 87.988C 92.1407 86.352 91.0197 85.402 89.1057 85.402C 87.2807 85.402 86.1527 86.352 86.1527 87.879C 86.1527 88.906 86.6837 89.559 87.7737 89.848L 89.8277 90.402C 90.8707 90.68 91.3477 91.106 91.3477 91.766C 91.3477 92.215 91.1097 92.68 90.7617 92.934C 90.4337 93.164 89.9137 93.289 89.2457 93.289C 88.3517 93.289 87.7417 93.063 87.3477 92.563C 87.0427 92.184 86.9057 91.766 86.9567 91.227L 85.9567 91.227C 85.9647 92.004 86.1127 92.516 86.4417 92.981C 87.0077 93.77 87.9607 94.188 89.2187 94.188C 90.2027 94.188 91.0077 93.961 91.5427 93.543C 92.0977 93.098 92.4487 92.348 92.4487 91.621C 92.4487 90.586 91.8167 89.828 90.6917 89.516L 88.6167 88.953C 87.6207 88.68 87.2577 88.356 87.2577 87.711C 87.2577 86.859 87.9917 86.293 89.0977 86.293C 90.4057 86.293 91.1407 86.895 91.1527 87.981L 92.1487 87.988z"/>
<path style="stroke:none; fill-rule:evenodd; fill:#000000" d="M 98.7497 96.399L 98.7497 87.902L 97.9527 87.902L 97.9527 88.688C 97.4997 88.051 96.8127 87.703 96.0117 87.703C 94.4057 87.703 93.3597 89.008 93.3597 91.02C 93.3597 92.985 94.3357 94.199 95.9097 94.199C 96.7387 94.199 97.3087 93.891 97.7537 93.211L 97.7537 96.399L 98.7497 96.399zM 96.1017 88.606C 97.1207 88.606 97.7777 89.524 97.7777 90.969C 97.7777 92.344 97.1127 93.262 96.1017 93.262C 95.0467 93.262 94.3477 92.332 94.3477 90.934C 94.3477 89.547 95.0467 88.606 96.1017 88.606z"/>
<path style="stroke:none; fill-rule:evenodd; fill:#000000" d="M 105.051 93.934L 105.051 87.902L 104.051 87.902L 104.051 91.348C 104.051 92.586 103.406 93.399 102.399 93.399C 101.637 93.399 101.153 92.938 101.153 92.207L 101.153 87.902L 100.153 87.902L 100.153 92.555C 100.153 93.555 100.91 94.199 102.102 94.199C 103 94.199 103.574 93.891 104.149 93.098L 104.149 93.938L 105.051 93.934z"/>
<path style="stroke:none; fill-rule:evenodd; fill:#000000" d="M 111.891 93.336C 111.785 93.395 111.739 93.395 111.68 93.395C 111.34 93.395 111.153 93.223 111.153 92.922L 111.153 89.356C 111.153 88.281 110.375 87.699 108.903 87.699C 108.035 87.699 107.317 87.953 106.914 88.402C 106.641 88.711 106.528 89.059 106.504 89.66L 107.449 89.66C 107.528 88.93 107.953 88.598 108.836 88.598C 109.68 88.598 110.153 88.918 110.153 89.496L 110.153 89.75C 110.153 90.152 109.918 90.324 109.176 90.418C 107.852 90.59 107.649 90.637 107.289 90.785C 106.606 91.07 106.258 91.613 106.258 92.399C 106.258 93.492 107.012 94.184 108.223 94.184C 108.977 94.184 109.582 93.91 110.258 93.266C 110.324 93.899 110.621 94.184 111.239 94.184C 111.43 94.184 111.578 94.16 111.887 94.078L 111.891 93.336zM 110.149 92.039C 110.149 92.367 110.059 92.57 109.781 92.844C 109.403 93.207 108.946 93.399 108.399 93.399C 107.676 93.399 107.25 93.035 107.25 92.406C 107.25 91.758 107.66 91.426 108.653 91.274C 109.633 91.133 109.832 91.086 110.145 90.934L 110.149 92.039z"/>
<path style="stroke:none; fill-rule:evenodd; fill:#000000" d="M 112.949 87.871L 112.949 93.895L 113.949 93.895L 113.949 90.762C 113.949 89.899 114.16 89.336 114.61 89C 114.899 88.781 115.18 88.715 115.832 88.703L 115.832 87.738C 115.676 87.719 115.598 87.707 115.473 87.707C 114.863 87.707 114.399 88.074 113.852 88.969L 113.852 87.879L 112.949 87.871z"/>
<path style="stroke:none; fill-rule:evenodd; fill:#000000" d="M 121.848 91.199C 121.848 90.281 121.781 89.731 121.61 89.285C 121.223 88.301 120.309 87.703 119.192 87.703C 117.528 87.703 116.453 88.996 116.453 90.985C 116.453 92.973 117.489 94.199 119.164 94.199C 120.528 94.199 121.473 93.406 121.715 92.074L 120.762 92.074C 120.5 92.879 119.969 93.297 119.207 93.297C 118.606 93.297 118.094 93.02 117.778 92.504C 117.551 92.156 117.473 91.805 117.461 91.199L 121.848 91.199zM 117.43 90.434C 117.508 89.32 118.188 88.598 119.149 88.598C 120.086 88.598 120.813 89.375 120.813 90.363C 120.813 90.383 120.813 90.406 120.801 90.43L 117.43 90.434z"/>
<path style="stroke:#000000; stroke-width:1.9133; fill:none" d="M 10.0273 103.711L 55.4804 103.711L 55.4804 77.332L 10.0273 77.332L 10.0273 103.711z"/>
<path style="stroke:none; fill-rule:evenodd; fill:#000000" d="M 15.8476 86.399L 18.5507 86.399L 18.5507 85.5L 11.9882 85.5L 11.9882 86.399L 14.746 86.399L 14.746 93.899L 15.8437 93.899L 15.8476 86.399z"/>
<path style="stroke:none; fill-rule:evenodd; fill:#000000" d="M 19.5507 87.871L 19.5507 93.895L 20.5507 93.895L 20.5507 90.762C 20.5507 89.899 20.7616 89.336 21.2109 89C 21.4999 88.781 21.7812 88.715 22.4335 88.703L 22.4335 87.738C 22.2773 87.719 22.1991 87.707 22.0741 87.707C 21.4648 87.707 20.9999 88.074 20.453 88.969L 20.453 87.879L 19.5507 87.871z"/>
<path style="stroke:none; fill-rule:evenodd; fill:#000000" d="M 24.2499 87.899L 23.2499 87.899L 23.2499 93.899L 24.2499 93.899L 24.2499 87.899zM 24.2499 85.5L 23.2499 85.5L 23.2499 86.735L 24.2499 86.735L 24.2499 85.5z"/>
<path style="stroke:none; fill-rule:evenodd; fill:#000000" d="M 31.1913 93.336C 31.0859 93.395 31.039 93.395 30.9804 93.395C 30.6405 93.395 30.453 93.223 30.453 92.922L 30.453 89.356C 30.453 88.281 29.6757 87.699 28.203 87.699C 27.3359 87.699 26.6171 87.953 26.2148 88.402C 25.9413 88.711 25.828 89.059 25.8046 89.66L 26.7499 89.66C 26.828 88.93 27.2538 88.598 28.1366 88.598C 28.9804 88.598 29.453 88.918 29.453 89.496L 29.453 89.75C 29.453 90.152 29.2187 90.324 28.4765 90.418C 27.1523 90.59 26.9491 90.637 26.5898 90.785C 25.9062 91.07 25.5585 91.613 25.5585 92.399C 25.5585 93.492 26.3124 94.184 27.5234 94.184C 28.2773 94.184 28.8827 93.91 29.5585 93.266C 29.6249 93.899 29.9218 94.184 30.539 94.184C 30.7304 94.184 30.8788 94.16 31.1874 94.078L 31.1913 93.336zM 29.4491 92.039C 29.4491 92.367 29.3593 92.57 29.0819 92.844C 28.703 93.207 28.246 93.399 27.6991 93.399C 26.9765 93.399 26.5507 93.035 26.5507 92.406C 26.5507 91.758 26.9609 91.426 27.953 91.274C 28.9335 91.133 29.1327 91.086 29.4452 90.934L 29.4491 92.039z"/>
<path style="stroke:none; fill-rule:evenodd; fill:#000000" d="M 32.2499 87.871L 32.2499 93.895L 33.2499 93.895L 33.2499 90.547C 33.2499 89.309 33.8749 88.496 34.8398 88.496C 35.578 88.496 36.0468 88.957 36.0468 89.688L 36.0468 93.891L 37.0468 93.891L 37.0468 89.336C 37.0468 88.336 36.3046 87.692 35.1445 87.692C 34.2538 87.692 33.6796 88.035 33.1523 88.875L 33.1523 87.863L 32.2499 87.871z"/>
<path style="stroke:none; fill-rule:evenodd; fill:#000000" d="M 42.5507 87.899L 42.5507 88.754C 42.0702 88.035 41.4843 87.699 40.7148 87.699C 39.1874 87.699 38.1562 89.039 38.1562 91.004C 38.1562 91.996 38.4179 92.805 38.9101 93.383C 39.3554 93.891 39.996 94.192 40.6288 94.192C 41.3827 94.192 41.9101 93.863 42.4491 93.078L 42.4491 93.387C 42.4491 94.199 42.3476 94.695 42.1093 95.027C 41.8593 95.383 41.371 95.586 40.7929 95.586C 40.3632 95.586 39.9765 95.473 39.7148 95.266C 39.4999 95.094 39.4101 94.934 39.3515 94.578L 38.3866 94.578C 38.4882 95.711 39.3671 96.387 40.7773 96.387C 41.6679 96.387 42.4335 96.102 42.8241 95.621C 43.2812 95.074 43.453 94.317 43.453 92.906L 43.453 87.891L 42.5507 87.899zM 40.8085 88.598C 41.8359 88.598 42.4452 89.473 42.4452 90.981C 42.4452 92.418 41.828 93.293 40.8202 93.293C 39.7773 93.293 39.1484 92.406 39.1484 90.945C 39.1484 89.496 39.789 88.598 40.8085 88.598z"/>
<path style="stroke:none; fill-rule:evenodd; fill:#000000" d="M 45.0507 93.899L 46.0507 93.899L 46.0507 85.5L 45.0507 85.5L 45.0507 93.899z"/>
<path style="stroke:none; fill-rule:evenodd; fill:#000000" d="M 52.6484 91.199C 52.6484 90.281 52.5819 89.731 52.4101 89.285C 52.0234 88.301 51.1093 87.703 49.9921 87.703C 48.328 87.703 47.2538 88.996 47.2538 90.985C 47.2538 92.973 48.289 94.199 49.9648 94.199C 51.328 94.199 52.2734 93.406 52.5155 92.074L 51.5624 92.074C 51.3007 92.879 50.7695 93.297 50.0077 93.297C 49.4062 93.297 48.8945 93.02 48.578 92.504C 48.3515 92.156 48.2734 91.805 48.2616 91.199L 52.6484 91.199zM 48.2304 90.434C 48.3085 89.32 48.9882 88.598 49.9491 88.598C 50.8866 88.598 51.6132 89.375 51.6132 90.363C 51.6132 90.383 51.6132 90.406 51.6015 90.43L 48.2304 90.434z"/>
<path style="stroke:#000000; stroke-dasharray:6,3; stroke-width:1.9133; fill:none" d="M 70.9377 195.34L 108.84 195.34L 108.84 157.988L 70.9377 157.988L 70.9377 195.34z"/>
<path style="stroke:#000000; stroke-width:1.9133; fill:none" d="M 40.4062 137.918C 40.4062 137.918 40.4062 137.918 42.3163 139.828C 44.2265 141.738 48.0546 145.566 55.0702 147.481C 62.0857 149.391 72.2887 149.391 79.3047 147.481C 86.3207 145.57 90.1447 141.742 92.0587 139.828C 93.9687 137.918 93.9687 137.918 93.9687 137.918"/>
<path style="stroke:#000000; stroke-width:1.9133; fill:none" d="M 32.7538 145.574L 67.1917 114.965"/>
<path style="stroke:#000000; stroke-width:1.9133; fill:none" d="M 67.1957 114.961L 101.633 145.57"/>
<path style="stroke:#000000; stroke-width:1.9133; fill:none" d="M 51.8866 145.574C 51.8866 145.574 51.8866 145.574 53.7968 144.938C 55.7069 144.301 59.5351 143.027 62.7227 142.387C 65.9097 141.75 68.4607 141.75 72.2847 142.387C 76.1097 143.024 81.2107 144.297 83.7617 144.938C 86.3127 145.574 86.3127 145.574 86.3127 145.574"/>
<path style="stroke:#000000; stroke-dasharray:6,3; stroke-width:2.8699499999999998; fill:none" d="M 163.137 41.008C 163.137 41.008 163.137 41.008 165.403 38.797C 167.668 36.586 172.199 32.16 175.824 32.715C 179.449 33.266 182.168 38.797 185.34 41.563C 188.512 44.328 192.137 44.328 195.309 42.113C 198.481 39.902 201.199 35.477 204.824 33.82C 208.449 32.164 212.977 33.27 217.055 37.137C 221.129 41.008 224.754 47.645 228.379 45.985C 232.004 44.328 235.629 34.371 239.254 33.266C 242.879 32.16 246.504 39.902 250.129 41.559C 253.754 43.215 257.379 38.793 261.004 38.242C 264.629 37.692 268.254 41.008 272.328 40.453C 276.403 39.902 280.934 35.477 285.469 33.817C 289.996 32.16 294.531 33.266 296.793 36.027C 299.059 38.793 299.059 43.215 301.774 46.535C 304.492 49.852 309.926 52.063 310.379 57.043C 310.828 62.02 306.305 69.762 305.852 72.527C 305.403 75.293 309.024 73.078 311.289 75.844C 313.555 78.609 314.461 86.352 313.555 92.434C 312.653 98.516 309.93 102.942 306.305 100.727C 302.68 98.516 298.153 89.668 296.793 90.219C 295.438 90.77 297.242 100.727 297.242 106.258C 297.242 111.785 295.434 112.895 292.262 111.785C 289.09 110.68 284.563 107.363 280.485 103.492C 276.41 99.621 272.785 95.195 269.61 94.645C 266.438 94.094 263.719 97.41 260.094 97.41C 256.469 97.41 251.942 94.094 248.77 95.754C 245.598 97.41 243.789 104.051 241.52 105.707C 239.254 107.363 236.539 104.051 233.367 101.285C 230.196 98.52 226.571 96.309 224.309 94.649C 222.043 92.992 221.137 91.887 219.781 93.543C 218.426 95.199 216.61 99.625 213.891 100.731C 211.172 101.836 207.547 99.625 205.739 101.281C 203.93 102.938 203.93 108.469 200.758 108.469C 197.586 108.469 191.242 102.942 188.074 99.067C 184.903 95.195 184.903 92.985 183.547 92.43C 182.192 91.879 179.473 92.981 174.942 94.086C 170.414 95.192 164.067 96.297 160.895 94.086C 157.723 91.875 157.723 86.344 159.086 83.578C 160.442 80.817 163.16 80.817 162.258 76.942C 161.356 73.07 156.824 65.328 155.914 62.008C 155.012 58.692 157.727 59.797 159.539 58.692C 161.352 57.586 162.258 54.27 161.805 49.844C 161.356 45.422 159.539 39.891 159.539 38.231C 159.539 36.574 161.352 38.781 162.258 39.887C 163.16 40.992 163.16 40.992 163.16 40.992"/>
<path style="stroke:#000000; stroke-dasharray:6,3; stroke-width:1.9133; fill:none" d="M 44.2343 156.098L 63.3667 195.32"/>
<path style="stroke:#000000; stroke-dasharray:6,3; stroke-width:1.9133; fill:none" d="M 63.3667 195.32L 21.2773 195.32"/>
<path style="stroke:#000000; stroke-dasharray:6,3; stroke-width:1.9133; fill:none" d="M 21.7538 194.84L 44.2343 156.098"/>
<path style="stroke:#000000; stroke-width:0.95664899999999997; fill:none" d="M 44.2343 157.055L 16.0155 57.567"/>
<path style="stroke:#000000; stroke-width:0.95664899999999997; fill:none" d="M 16.2616 65.445L 16.0155 57.563L 19.9413 64.402"/>
<path style="stroke:#000000; stroke-width:0.95664899999999997; fill:none" d="M 44.2343 157.055L 50.9296 103.485"/>
<path style="stroke:#000000; stroke-width:0.95664899999999997; fill:none" d="M 48.0819 110.836L 50.9296 103.481L 51.8749 111.309"/>
<path style="stroke:#000000; stroke-width:0.95664899999999997; fill:none" d="M 86.3277 157.055L 85.3747 57.086"/>
<path style="stroke:#000000; stroke-width:0.95664899999999997; fill:none" d="M 83.5307 64.754L 85.3707 57.086L 87.3557 64.719"/>
<path style="stroke:#000000; stroke-width:0.95664899999999997; fill:none" d="M 86.3277 157.055L 113.113 103.008"/>
<path style="stroke:#000000; stroke-width:0.95664899999999997; fill:none" d="M 108 109.012L 113.11 103.004L 111.426 110.707"/>
<path style="stroke:#000000; stroke-dasharray:6,3; stroke-width:1.9133; fill:none" d="M 248.871 85.328L 286.774 85.328L 286.774 47.977L 248.871 47.977L 248.871 85.328z"/>
<path style="stroke:none; fill-rule:evenodd; fill:#000000" d="M 268.551 67.817L 268.551 67.281C 268.551 66.777 268.672 66.586 269.43 65.863C 270.266 65.086 270.547 64.57 270.547 63.813C 270.547 62.473 269.606 61.613 268.133 61.613C 266.5 61.613 265.653 62.527 265.653 64.293L 266.653 64.293C 266.653 63.77 266.707 63.449 266.844 63.176C 267.055 62.754 267.508 62.516 268.106 62.516C 268.973 62.516 269.547 63.043 269.547 63.82C 269.547 64.344 269.305 64.793 268.711 65.332C 268.055 65.938 268.055 65.938 267.863 66.199C 267.633 66.52 267.555 66.781 267.555 67.192L 267.555 67.82L 268.551 67.817zM 268.551 68.899L 267.551 68.899L 267.551 70.098L 268.551 70.098L 268.551 68.899z"/>
<path style="stroke:none; fill-rule:evenodd; fill:#000000" d="M 209.75 68.715L 209.75 68.18C 209.75 67.676 209.871 67.485 210.629 66.762C 211.465 65.985 211.746 65.469 211.746 64.711C 211.746 63.371 210.805 62.512 209.332 62.512C 207.699 62.512 206.852 63.426 206.852 65.192L 207.852 65.192C 207.852 64.668 207.906 64.348 208.043 64.074C 208.254 63.652 208.707 63.414 209.305 63.414C 210.172 63.414 210.746 63.942 210.746 64.719C 210.746 65.242 210.504 65.692 209.91 66.231C 209.254 66.836 209.254 66.836 209.063 67.098C 208.832 67.418 208.754 67.68 208.754 68.09L 208.754 68.719L 209.75 68.715zM 209.75 69.797L 208.75 69.797L 208.75 70.996L 209.75 70.996L 209.75 69.797z"/>
<path style="stroke:#000000; stroke-dasharray:6,3; stroke-width:1.9133; fill:none" d="M 208.778 44.168L 227.91 83.391"/>
<path style="stroke:#000000; stroke-dasharray:6,3; stroke-width:1.9133; fill:none" d="M 227.91 83.391L 185.821 83.391"/>
<path style="stroke:#000000; stroke-dasharray:6,3; stroke-width:1.9133; fill:none" d="M 186.297 82.914L 208.778 44.172"/>
<path style="stroke:none; fill-rule:evenodd; fill:#000000" d="M 192.348 133.399L 195.078 133.399C 196.02 133.399 196.442 133.856 196.442 134.887L 196.442 135.629C 196.442 136.145 196.528 136.649 196.672 136.992L 197.93 136.992L 197.93 136.731C 197.539 136.457 197.457 136.156 197.438 135.039C 197.426 133.656 197.207 133.242 196.293 132.852C 197.25 132.391 197.637 131.805 197.637 130.848C 197.637 129.399 196.731 128.602 195.094 128.602L 191.242 128.602L 191.242 137L 192.34 137L 192.348 133.399zM 192.285 132.453L 192.285 129.574L 194.867 129.574C 195.461 129.574 195.805 129.664 196.071 129.895C 196.356 130.133 196.504 130.512 196.504 131.02C 196.504 132.004 196 132.453 194.863 132.453L 192.285 132.453z"/>
<path style="stroke:none; fill-rule:evenodd; fill:#000000" d="M 204.348 134.297C 204.348 133.379 204.281 132.828 204.11 132.383C 203.723 131.399 202.809 130.801 201.692 130.801C 200.028 130.801 198.953 132.094 198.953 134.082C 198.953 136.07 199.989 137.297 201.664 137.297C 203.028 137.297 203.973 136.504 204.215 135.172L 203.262 135.172C 203 135.977 202.469 136.395 201.707 136.395C 201.106 136.395 200.594 136.117 200.278 135.602C 200.051 135.254 199.973 134.902 199.961 134.297L 204.348 134.297zM 199.93 133.531C 200.008 132.418 200.688 131.695 201.649 131.695C 202.586 131.695 203.313 132.473 203.313 133.461C 203.313 133.481 203.313 133.504 203.301 133.527L 199.93 133.531z"/>
<path style="stroke:none; fill-rule:evenodd; fill:#000000" d="M 210.449 128.598L 209.449 128.598L 209.449 131.738C 209.051 131.125 208.414 130.797 207.613 130.797C 206.067 130.797 205.051 132.055 205.051 133.988C 205.051 136.035 206.063 137.293 207.703 137.293C 208.539 137.293 209.121 136.973 209.645 136.203L 209.645 136.992L 210.442 136.992L 210.449 128.598zM 207.778 131.699C 208.797 131.699 209.446 132.625 209.446 134.07C 209.446 135.469 208.789 136.395 207.789 136.395C 206.746 136.395 206.051 135.457 206.051 134.047C 206.051 132.637 206.742 131.699 207.778 131.699z"/>
<path style="stroke:#000000; stroke-dasharray:6,3; stroke-width:1.9133; fill:none" d="M 177.442 146.758L 222.895 146.758L 222.895 120.379L 177.442 120.379L 177.442 146.758z"/>
<path style="stroke:none; fill-rule:evenodd; fill:#000000" d="M 260.848 137L 264.656 137C 265.453 137 266.043 136.781 266.496 136.301C 266.91 135.863 267.145 135.266 267.145 134.609C 267.145 133.598 266.672 132.984 265.571 132.574C 266.336 132.219 266.742 131.598 266.742 130.746C 266.742 130.137 266.516 129.598 266.074 129.203C 265.637 128.801 265.063 128.617 264.254 128.617L 260.844 128.617L 260.848 137zM 261.949 132.297L 261.949 129.5L 263.992 129.5C 264.582 129.5 264.91 129.582 265.192 129.813C 265.485 130.051 265.645 130.414 265.645 130.899C 265.645 131.367 265.489 131.742 265.192 131.984C 264.91 132.211 264.582 132.297 263.992 132.297L 261.949 132.297zM 261.949 136.098L 261.949 133.199L 264.547 133.199C 265.059 133.199 265.403 133.324 265.656 133.602C 265.906 133.867 266.043 134.234 266.043 134.652C 266.043 135.055 265.906 135.426 265.656 135.691C 265.406 135.965 265.063 136.094 264.547 136.094L 261.949 136.098z"/>
<path style="stroke:none; fill-rule:evenodd; fill:#000000" d="M 268.449 137L 269.449 137L 269.449 128.602L 268.449 128.602L 268.449 137z"/>
<path style="stroke:none; fill-rule:evenodd; fill:#000000" d="M 275.75 137.035L 275.75 131.004L 274.75 131.004L 274.75 134.449C 274.75 135.688 274.106 136.5 273.098 136.5C 272.336 136.5 271.852 136.039 271.852 135.309L 271.852 131.004L 270.852 131.004L 270.852 135.656C 270.852 136.656 271.61 137.301 272.801 137.301C 273.699 137.301 274.274 136.992 274.848 136.199L 274.848 137.039L 275.75 137.035z"/>
<path style="stroke:none; fill-rule:evenodd; fill:#000000" d="M 282.449 134.297C 282.449 133.379 282.383 132.828 282.211 132.383C 281.824 131.399 280.91 130.801 279.793 130.801C 278.129 130.801 277.055 132.094 277.055 134.082C 277.055 136.07 278.09 137.297 279.766 137.297C 281.129 137.297 282.074 136.504 282.317 135.172L 281.363 135.172C 281.102 135.977 280.571 136.395 279.809 136.395C 279.207 136.395 278.696 136.117 278.379 135.602C 278.153 135.254 278.074 134.902 278.063 134.297L 282.449 134.297zM 278.031 133.531C 278.11 132.418 278.789 131.695 279.75 131.695C 280.688 131.695 281.414 132.473 281.414 133.461C 281.414 133.481 281.414 133.504 281.403 133.527L 278.031 133.531z"/>
<path style="stroke:#000000; stroke-dasharray:6,3; stroke-width:2.8699499999999998; fill:none" d="M 248.711 146.758L 294.164 146.758L 294.164 120.379L 248.711 120.379L 248.711 146.758z"/>
<path style="stroke:#000000; stroke-width:1.9133; fill:none" d="M 248.711 192.68L 294.164 192.68L 294.164 166.301L 248.711 166.301L 248.711 192.68z"/>
<path style="stroke:none; fill-rule:evenodd; fill:#000000" d="M 259.551 176.988C 259.543 175.352 258.422 174.402 256.508 174.402C 254.684 174.402 253.555 175.352 253.555 176.879C 253.555 177.906 254.086 178.559 255.176 178.848L 257.231 179.402C 258.274 179.68 258.75 180.106 258.75 180.766C 258.75 181.215 258.512 181.68 258.164 181.934C 257.836 182.164 257.317 182.289 256.649 182.289C 255.754 182.289 255.145 182.063 254.75 181.563C 254.446 181.184 254.309 180.766 254.36 180.227L 253.36 180.227C 253.367 181.004 253.516 181.516 253.844 181.981C 254.41 182.77 255.363 183.188 256.621 183.188C 257.606 183.188 258.41 182.961 258.946 182.543C 259.5 182.098 259.852 181.348 259.852 180.621C 259.852 179.586 259.219 178.828 258.094 178.516L 256.02 177.953C 255.024 177.68 254.66 177.356 254.66 176.711C 254.66 175.859 255.395 175.293 256.5 175.293C 257.809 175.293 258.543 175.895 258.555 176.981L 259.551 176.988z"/>
<path style="stroke:none; fill-rule:evenodd; fill:#000000" d="M 266.149 185.399L 266.149 176.902L 265.352 176.902L 265.352 177.688C 264.899 177.051 264.211 176.703 263.41 176.703C 261.805 176.703 260.758 178.008 260.758 180.02C 260.758 181.984 261.735 183.199 263.309 183.199C 264.137 183.199 264.707 182.891 265.153 182.211L 265.153 185.399L 266.149 185.399zM 263.504 177.606C 264.524 177.606 265.18 178.524 265.18 179.969C 265.18 181.344 264.516 182.262 263.504 182.262C 262.449 182.262 261.75 181.332 261.75 179.934C 261.75 178.547 262.449 177.606 263.504 177.606z"/>
<path style="stroke:none; fill-rule:evenodd; fill:#000000" d="M 272.449 182.934L 272.449 176.902L 271.449 176.902L 271.449 180.348C 271.449 181.586 270.805 182.399 269.797 182.399C 269.035 182.399 268.551 181.938 268.551 181.207L 268.551 176.902L 267.551 176.902L 267.551 181.555C 267.551 182.555 268.309 183.199 269.5 183.199C 270.399 183.199 270.973 182.891 271.547 182.098L 271.547 182.938L 272.449 182.934z"/>
<path style="stroke:none; fill-rule:evenodd; fill:#000000" d="M 279.391 182.336C 279.285 182.395 279.239 182.395 279.18 182.395C 278.84 182.395 278.653 182.223 278.653 181.922L 278.653 178.356C 278.653 177.281 277.875 176.699 276.403 176.699C 275.535 176.699 274.817 176.953 274.414 177.402C 274.141 177.711 274.028 178.059 274.004 178.66L 274.949 178.66C 275.028 177.93 275.453 177.598 276.336 177.598C 277.18 177.598 277.653 177.918 277.653 178.496L 277.653 178.75C 277.653 179.152 277.418 179.324 276.676 179.418C 275.352 179.59 275.149 179.637 274.789 179.785C 274.106 180.07 273.758 180.613 273.758 181.399C 273.758 182.492 274.512 183.184 275.723 183.184C 276.477 183.184 277.082 182.91 277.758 182.266C 277.824 182.899 278.121 183.184 278.739 183.184C 278.93 183.184 279.078 183.16 279.387 183.078L 279.391 182.336zM 277.649 181.039C 277.649 181.367 277.559 181.57 277.281 181.844C 276.903 182.207 276.446 182.399 275.899 182.399C 275.176 182.399 274.75 182.035 274.75 181.406C 274.75 180.758 275.16 180.426 276.153 180.274C 277.133 180.133 277.332 180.086 277.645 179.934L 277.649 181.039z"/>
<path style="stroke:none; fill-rule:evenodd; fill:#000000" d="M 280.348 176.871L 280.348 182.895L 281.348 182.895L 281.348 179.762C 281.348 178.899 281.559 178.336 282.008 178C 282.297 177.781 282.578 177.715 283.231 177.703L 283.231 176.738C 283.074 176.719 282.996 176.707 282.871 176.707C 282.262 176.707 281.797 177.074 281.25 177.969L 281.25 176.879L 280.348 176.871z"/>
<path style="stroke:none; fill-rule:evenodd; fill:#000000" d="M 289.348 180.199C 289.348 179.281 289.281 178.731 289.11 178.285C 288.723 177.301 287.809 176.703 286.692 176.703C 285.028 176.703 283.953 177.996 283.953 179.984C 283.953 181.973 284.989 183.199 286.664 183.199C 288.028 183.199 288.973 182.406 289.215 181.074L 288.262 181.074C 288 181.879 287.469 182.297 286.707 182.297C 286.106 182.297 285.594 182.02 285.278 181.504C 285.051 181.156 284.973 180.805 284.961 180.199L 289.348 180.199zM 284.93 179.434C 285.008 178.32 285.688 177.598 286.649 177.598C 287.586 177.598 288.313 178.375 288.313 179.363C 288.313 179.383 288.313 179.406 288.301 179.43L 284.93 179.434z"/>
<path style="stroke:#000000; stroke-width:1.9133; fill:none" d="M 177.442 192.68L 222.895 192.68L 222.895 166.301L 177.442 166.301L 177.442 192.68z"/>
<path style="stroke:none; fill-rule:evenodd; fill:#000000" d="M 183.25 175.399L 185.953 175.399L 185.953 174.5L 179.391 174.5L 179.391 175.399L 182.149 175.399L 182.149 182.899L 183.246 182.899L 183.25 175.399z"/>
<path style="stroke:none; fill-rule:evenodd; fill:#000000" d="M 186.949 176.871L 186.949 182.895L 187.949 182.895L 187.949 179.762C 187.949 178.899 188.16 178.336 188.61 178C 188.899 177.781 189.18 177.715 189.832 177.703L 189.832 176.738C 189.676 176.719 189.598 176.707 189.473 176.707C 188.863 176.707 188.399 177.074 187.852 177.969L 187.852 176.879L 186.949 176.871z"/>
<path style="stroke:none; fill-rule:evenodd; fill:#000000" d="M 191.649 176.899L 190.649 176.899L 190.649 182.899L 191.649 182.899L 191.649 176.899zM 191.649 174.5L 190.649 174.5L 190.649 175.734L 191.649 175.734L 191.649 174.5z"/>
<path style="stroke:none; fill-rule:evenodd; fill:#000000" d="M 198.692 182.336C 198.586 182.395 198.539 182.395 198.481 182.395C 198.141 182.395 197.953 182.223 197.953 181.922L 197.953 178.356C 197.953 177.281 197.176 176.699 195.703 176.699C 194.836 176.699 194.117 176.953 193.715 177.402C 193.442 177.711 193.328 178.059 193.305 178.66L 194.25 178.66C 194.328 177.93 194.754 177.598 195.637 177.598C 196.481 177.598 196.953 177.918 196.953 178.496L 196.953 178.75C 196.953 179.152 196.719 179.324 195.977 179.418C 194.653 179.59 194.449 179.637 194.09 179.785C 193.406 180.07 193.059 180.613 193.059 181.399C 193.059 182.492 193.813 183.184 195.024 183.184C 195.778 183.184 196.383 182.91 197.059 182.266C 197.125 182.899 197.422 183.184 198.039 183.184C 198.231 183.184 198.379 183.16 198.688 183.078L 198.692 182.336zM 196.949 181.039C 196.949 181.367 196.86 181.57 196.582 181.844C 196.203 182.207 195.746 182.399 195.199 182.399C 194.477 182.399 194.051 182.035 194.051 181.406C 194.051 180.758 194.461 180.426 195.453 180.274C 196.434 180.133 196.633 180.086 196.946 179.934L 196.949 181.039z"/>
<path style="stroke:none; fill-rule:evenodd; fill:#000000" d="M 199.649 176.871L 199.649 182.895L 200.649 182.895L 200.649 179.547C 200.649 178.309 201.274 177.496 202.239 177.496C 202.977 177.496 203.446 177.957 203.446 178.688L 203.446 182.891L 204.446 182.891L 204.446 178.336C 204.446 177.336 203.703 176.691 202.543 176.691C 201.653 176.691 201.078 177.035 200.551 177.875L 200.551 176.863L 199.649 176.871z"/>
<path style="stroke:none; fill-rule:evenodd; fill:#000000" d="M 209.949 176.899L 209.949 177.754C 209.469 177.035 208.883 176.699 208.113 176.699C 206.586 176.699 205.555 178.039 205.555 180.004C 205.555 180.996 205.817 181.805 206.309 182.383C 206.754 182.891 207.395 183.191 208.028 183.191C 208.781 183.191 209.309 182.863 209.848 182.078L 209.848 182.387C 209.848 183.199 209.746 183.695 209.508 184.027C 209.258 184.383 208.77 184.586 208.192 184.586C 207.762 184.586 207.375 184.473 207.113 184.266C 206.899 184.094 206.809 183.934 206.75 183.578L 205.785 183.578C 205.887 184.711 206.766 185.387 208.176 185.387C 209.067 185.387 209.832 185.102 210.223 184.621C 210.68 184.074 210.852 183.316 210.852 181.906L 210.852 176.891L 209.949 176.899zM 208.211 177.598C 209.239 177.598 209.848 178.473 209.848 179.981C 209.848 181.418 209.231 182.293 208.223 182.293C 207.18 182.293 206.551 181.406 206.551 179.945C 206.551 178.496 207.192 177.598 208.211 177.598z"/>
<path style="stroke:none; fill-rule:evenodd; fill:#000000" d="M 212.449 182.899L 213.449 182.899L 213.449 174.5L 212.449 174.5L 212.449 182.899z"/>
<path style="stroke:none; fill-rule:evenodd; fill:#000000" d="M 220.149 180.199C 220.149 179.281 220.082 178.731 219.91 178.285C 219.524 177.301 218.61 176.703 217.492 176.703C 215.828 176.703 214.754 177.996 214.754 179.984C 214.754 181.973 215.789 183.199 217.465 183.199C 218.828 183.199 219.774 182.406 220.016 181.074L 219.063 181.074C 218.801 181.879 218.27 182.297 217.508 182.297C 216.906 182.297 216.395 182.02 216.078 181.504C 215.852 181.156 215.774 180.805 215.762 180.199L 220.149 180.199zM 215.731 179.434C 215.809 178.32 216.489 177.598 217.449 177.598C 218.387 177.598 219.113 178.375 219.113 179.363C 219.113 179.383 219.113 179.406 219.102 179.43L 215.731 179.434z"/>
<path style="stroke:#000000; stroke-width:0.95664899999999997; fill:none" d="M 199.688 119.742L 268.086 85.305"/>
<path style="stroke:#000000; stroke-width:0.95664899999999997; fill:none" d="M 260.395 87.039L 268.09 85.309L 262.117 90.457"/>
<path style="stroke:#000000; stroke-width:0.95664899999999997; fill:none" d="M 256.133 120.699L 209.739 83.391"/>
<path style="stroke:#000000; stroke-width:0.95664899999999997; fill:none" d="M 214.5 89.68L 209.739 83.395L 216.899 86.699"/>
<path style="stroke:#000000; stroke-width:0.95664899999999997; fill:none" d="M 179.602 165.184L 202.082 83.391"/>
<path style="stroke:#000000; stroke-width:0.95664899999999997; fill:none" d="M 198.207 90.266L 202.078 83.395L 201.895 91.277"/>
<path style="stroke:#000000; stroke-width:0.95664899999999997; fill:none" d="M 290.094 164.707L 277.66 85.309"/>
<path style="stroke:#000000; stroke-width:0.95664899999999997; fill:none" d="M 276.949 93.16L 277.653 85.305L 280.723 92.567"/>
<path style="stroke:none; fill-rule:evenodd; fill:#000000" d="M 7.28901 7.836C 7.18351 7.895 7.1366 7.895 7.07801 7.895C 6.7382 7.895 6.5507 7.72299 6.5507 7.422L 6.5507 3.856C 6.5507 2.78099 5.7734 2.19899 4.3007 2.19899C 3.43351 2.19899 2.71481 2.453 2.3124 2.90199C 2.03901 3.211 1.9257 3.55899 1.90231 4.16L 2.84761 4.16C 2.9257 3.42999 3.35151 3.09799 4.23431 3.09799C 5.07801 3.09799 5.5507 3.418 5.5507 3.996L 5.5507 4.25C 5.5507 4.65199 5.3163 4.82399 4.5741 4.918C 3.2499 5.09 3.04681 5.13699 2.6874 5.285C 2.0038 5.56999 1.6562 6.11299 1.6562 6.899C 1.6562 7.992 2.41011 8.68399 3.62101 8.68399C 4.3749 8.68399 4.9804 8.41 5.6562 7.76599C 5.72261 8.399 6.0195 8.68399 6.6366 8.68399C 6.82801 8.68399 6.97651 8.66 7.28511 8.578L 7.28901 7.836zM 5.5507 6.539C 5.5507 6.867 5.4609 7.06999 5.18351 7.34399C 4.8046 7.707 4.34761 7.899 3.8007 7.899C 3.07801 7.899 2.65231 7.535 2.65231 6.90599C 2.65231 6.258 3.0624 5.92599 4.0546 5.774C 5.03511 5.633 5.23431 5.586 5.54681 5.43399L 5.5507 6.539z"/>
<path style="stroke:none; fill-rule:evenodd; fill:#000000" d="M 8.6054 10.832C 9.73431 9.32399 10.4452 7.231 10.4452 5.42599C 10.4452 3.60899 9.73431 1.51599 8.6054 0.0039978L 7.9882 0.0039978C 8.9921 1.65199 9.5507 3.582 9.5507 5.42599C 9.5507 7.254 8.9921 9.19899 7.9882 10.832L 8.6054 10.832z"/>
<path style="stroke:none; fill-rule:evenodd; fill:#000000" d="M 15.6484 8.399L 16.746 8.399L 16.746 0L 15.6484 0L 15.6484 8.399z"/>
<path style="stroke:none; fill-rule:evenodd; fill:#000000" d="M 18.5507 2.371L 18.5507 8.395L 19.5507 8.395L 19.5507 5.047C 19.5507 3.80899 20.1757 2.996 21.1405 2.996C 21.8788 2.996 22.3476 3.457 22.3476 4.188L 22.3476 8.39099L 23.3476 8.39099L 23.3476 3.836C 23.3476 2.836 22.6054 2.192 21.4452 2.192C 20.5546 2.192 19.9804 2.535 19.453 3.375L 19.453 2.36299L 18.5507 2.371z"/>
<path style="stroke:none; fill-rule:evenodd; fill:#000000" d="M 24.7499 10.902L 25.7499 10.902L 25.7499 7.80099C 26.2499 8.422 26.8124 8.69899 27.5859 8.69899C 29.1288 8.69899 30.1445 7.442 30.1445 5.508C 30.1445 3.47699 29.1601 2.203 27.5624 2.203C 26.7499 2.203 26.0937 2.56999 25.6484 3.28099L 25.6484 2.375L 24.7499 2.375L 24.7499 10.902zM 27.414 3.09799C 28.4609 3.09799 29.1445 4.03099 29.1445 5.481C 29.1445 6.856 28.4491 7.793 27.414 7.793C 26.4101 7.793 25.7499 6.867 25.7499 5.44499C 25.7499 4.024 26.4101 3.09799 27.414 3.09799z"/>
<path style="stroke:none; fill-rule:evenodd; fill:#000000" d="M 36.1484 8.43399L 36.1484 2.40199L 35.1484 2.40199L 35.1484 5.84799C 35.1484 7.086 34.5038 7.899 33.496 7.899C 32.7343 7.899 32.2499 7.438 32.2499 6.707L 32.2499 2.40199L 31.2499 2.40199L 31.2499 7.05499C 31.2499 8.05499 32.0077 8.69899 33.1991 8.69899C 34.0976 8.69899 34.6718 8.39099 35.246 7.59799L 35.246 8.438L 36.1484 8.43399z"/>
<path style="stroke:none; fill-rule:evenodd; fill:#000000" d="M 39.8476 2.399L 38.9491 2.399L 38.9491 0.731003L 37.9491 0.731003L 37.9491 2.399L 37.0507 2.399L 37.0507 3.19499L 37.9491 3.19499L 37.9491 7.742C 37.9491 8.34799 38.3515 8.692 39.0819 8.692C 39.3046 8.692 39.5312 8.668 39.8437 8.60899L 39.8437 7.774C 39.7304 7.86299 39.5937 7.89099 39.4257 7.89099C 39.0507 7.89099 38.9452 7.77699 38.9452 7.34799L 38.9452 3.19499L 39.8437 3.19499L 39.8476 2.399z"/>
<path style="stroke:none; fill-rule:evenodd; fill:#000000" d="M 49.4921 7.836C 49.3866 7.895 49.3398 7.895 49.2812 7.895C 48.9413 7.895 48.7538 7.72299 48.7538 7.422L 48.7538 3.856C 48.7538 2.78099 47.9765 2.19899 46.5038 2.19899C 45.6366 2.19899 44.9179 2.453 44.5155 2.90199C 44.2421 3.211 44.1288 3.55899 44.1054 4.16L 45.0507 4.16C 45.1288 3.42999 45.5546 3.09799 46.4374 3.09799C 47.2812 3.09799 47.7538 3.418 47.7538 3.996L 47.7538 4.25C 47.7538 4.65199 47.5195 4.82399 46.7773 4.918C 45.453 5.09 45.2499 5.13699 44.8905 5.285C 44.2069 5.56999 43.8593 6.11299 43.8593 6.899C 43.8593 7.992 44.6132 8.68399 45.8241 8.68399C 46.578 8.68399 47.1835 8.41 47.8593 7.76599C 47.9257 8.399 48.2226 8.68399 48.8398 8.68399C 49.0312 8.68399 49.1796 8.66 49.4882 8.578L 49.4921 7.836zM 47.7499 6.539C 47.7499 6.867 47.6601 7.06999 47.3827 7.34399C 47.0038 7.707 46.5468 7.899 45.9999 7.899C 45.2773 7.899 44.8515 7.535 44.8515 6.90599C 44.8515 6.258 45.2616 5.92599 46.2538 5.774C 47.2343 5.633 47.4335 5.586 47.746 5.43399L 47.7499 6.539z"/>
<path style="stroke:none; fill-rule:evenodd; fill:#000000" d="M 55.0546 4.40199C 55.0116 3.817 54.8866 3.43399 54.6562 3.09799C 54.2499 2.535 53.5312 2.19899 52.703 2.19899C 51.1015 2.19899 50.0546 3.492 50.0546 5.504C 50.0546 7.457 51.078 8.69499 52.6913 8.69499C 54.1132 8.69499 55.0116 7.82399 55.1249 6.332L 54.1718 6.332C 54.0155 7.30899 53.5273 7.797 52.7226 7.797C 51.6796 7.797 51.0546 6.93399 51.0546 5.508C 51.0546 4 51.664 3.10199 52.6991 3.10199C 53.4921 3.10199 53.9921 3.56999 54.1054 4.40599L 55.0546 4.40199z"/>
<path style="stroke:none; fill-rule:evenodd; fill:#000000" d="M 58.3476 2.399L 57.4491 2.399L 57.4491 0.731003L 56.4491 0.731003L 56.4491 2.399L 55.5507 2.399L 55.5507 3.19499L 56.4491 3.19499L 56.4491 7.742C 56.4491 8.34799 56.8515 8.692 57.5819 8.692C 57.8046 8.692 58.0312 8.668 58.3437 8.60899L 58.3437 7.774C 58.2304 7.86299 58.0937 7.89099 57.9257 7.89099C 57.5507 7.89099 57.4452 7.77699 57.4452 7.34799L 57.4452 3.19499L 58.3437 3.19499L 58.3476 2.399z"/>
<path style="stroke:none; fill-rule:evenodd; fill:#000000" d="M 60.3477 2.399L 59.3476 2.399L 59.3476 8.399L 60.3477 8.399L 60.3477 2.399zM 60.3477 0L 59.3476 0L 59.3476 1.235L 60.3477 1.235L 60.3477 0z"/>
<path style="stroke:none; fill-rule:evenodd; fill:#000000" d="M 64.4217 8.399L 66.7267 2.399L 65.6487 2.399L 63.9527 7.258L 62.3477 2.399L 61.2697 2.399L 63.3787 8.399L 64.4217 8.399z"/>
<path style="stroke:none; fill-rule:evenodd; fill:#000000" d="M 73.0897 7.836C 72.9847 7.895 72.9377 7.895 72.8787 7.895C 72.5387 7.895 72.3517 7.72299 72.3517 7.422L 72.3517 3.856C 72.3517 2.78099 71.5737 2.19899 70.1017 2.19899C 69.2347 2.19899 68.5157 2.453 68.1127 2.90199C 67.8397 3.211 67.7267 3.55899 67.7027 4.16L 68.6487 4.16C 68.7267 3.42999 69.1527 3.09799 70.0347 3.09799C 70.8787 3.09799 71.3517 3.418 71.3517 3.996L 71.3517 4.25C 71.3517 4.65199 71.1167 4.82399 70.3747 4.918C 69.0507 5.09 68.8477 5.13699 68.4887 5.285C 67.8047 5.56999 67.4567 6.11299 67.4567 6.899C 67.4567 7.992 68.2107 8.68399 69.4217 8.68399C 70.1757 8.68399 70.7807 8.41 71.4567 7.76599C 71.5237 8.399 71.8207 8.68399 72.4377 8.68399C 72.6287 8.68399 72.7777 8.66 73.0857 8.578L 73.0897 7.836zM 71.3477 6.539C 71.3477 6.867 71.2577 7.06999 70.9807 7.34399C 70.6017 7.707 70.1447 7.899 69.5977 7.899C 68.8747 7.899 68.4487 7.535 68.4487 6.90599C 68.4487 6.258 68.8597 5.92599 69.8517 5.774C 70.8317 5.633 71.0307 5.586 71.3437 5.43399L 71.3477 6.539z"/>
<path style="stroke:none; fill-rule:evenodd; fill:#000000" d="M 76.1487 2.399L 75.2497 2.399L 75.2497 0.731003L 74.2497 0.731003L 74.2497 2.399L 73.3517 2.399L 73.3517 3.19499L 74.2497 3.19499L 74.2497 7.742C 74.2497 8.34799 74.6527 8.692 75.3827 8.692C 75.6057 8.692 75.8317 8.668 76.1447 8.60899L 76.1447 7.774C 76.0307 7.86299 75.8947 7.89099 75.7267 7.89099C 75.3517 7.89099 75.2457 7.77699 75.2457 7.34799L 75.2457 3.19499L 76.1447 3.19499L 76.1487 2.399z"/>
<path style="stroke:none; fill-rule:evenodd; fill:#000000" d="M 82.3477 5.69899C 82.3477 4.78099 82.2807 4.231 82.1097 3.785C 81.7227 2.80099 80.8087 2.203 79.6917 2.203C 78.0277 2.203 76.9527 3.496 76.9527 5.485C 76.9527 7.47299 77.9887 8.69899 79.6637 8.69899C 81.0277 8.69899 81.9727 7.90599 82.2147 6.57399L 81.2617 6.57399C 80.9997 7.379 80.4687 7.797 79.7067 7.797C 79.1057 7.797 78.5937 7.52 78.2777 7.004C 78.0507 6.65599 77.9727 6.30499 77.9607 5.69899L 82.3477 5.69899zM 77.9297 4.93399C 78.0077 3.81999 78.6877 3.09799 79.6487 3.09799C 80.5857 3.09799 81.3127 3.875 81.3127 4.86299C 81.3127 4.883 81.3127 4.90599 81.3007 4.92999L 77.9297 4.93399z"/>
<path style="stroke:none; fill-rule:evenodd; fill:#000000" d="M 87.8747 4.05899C 87.8627 2.871 87.0777 2.19899 85.6757 2.19899C 84.2657 2.19899 83.3517 2.92599 83.3517 4.047C 83.3517 4.992 83.8397 5.442 85.2887 5.789L 86.1987 6.008C 86.8747 6.168 87.1447 6.41 87.1447 6.84799C 87.1447 7.41 86.5777 7.793 85.7347 7.793C 85.2147 7.793 84.7777 7.645 84.5347 7.38699C 84.3867 7.215 84.3167 7.039 84.2577 6.606L 83.2417 6.606C 83.2847 8.01599 84.0707 8.69499 85.6527 8.69499C 87.1757 8.69499 88.1447 7.94499 88.1447 6.78099C 88.1447 5.883 87.6327 5.38699 86.4177 5.09799L 85.4847 4.879C 84.6917 4.69499 84.3517 4.442 84.3517 4.01599C 84.3517 3.465 84.8477 3.106 85.6367 3.106C 86.4097 3.106 86.8277 3.43399 86.8517 4.063L 87.8747 4.05899z"/>
<path style="stroke:none; fill-rule:evenodd; fill:#000000" d="M 94.7497 2.399L 93.7497 2.399L 93.7497 1.42999C 93.7497 1.01599 93.9767 0.800995 94.4137 0.800995C 94.4917 0.800995 94.5277 0.800995 94.7457 0.800995L 94.7457 0.0589905C 94.5237 0.0159912 94.3947 0.00799561 94.1957 0.00799561C 93.2927 0.00799561 92.7497 0.515991 92.7497 1.379L 92.7497 2.40199L 91.9527 2.40199L 91.9527 3.19899L 92.7497 3.19899L 92.7497 8.399L 93.7497 8.399L 93.7497 3.19899L 94.7497 3.19899L 94.7497 2.399z"/>
<path style="stroke:none; fill-rule:evenodd; fill:#000000" d="M 100.848 5.69899C 100.848 4.78099 100.781 4.231 100.61 3.785C 100.223 2.80099 99.3087 2.203 98.1917 2.203C 96.5277 2.203 95.4527 3.496 95.4527 5.485C 95.4527 7.47299 96.4887 8.69899 98.1637 8.69899C 99.5277 8.69899 100.473 7.90599 100.715 6.57399L 99.7617 6.57399C 99.4997 7.379 98.9687 7.797 98.2067 7.797C 97.6057 7.797 97.0937 7.52 96.7777 7.004C 96.5507 6.65599 96.4727 6.30499 96.4607 5.69899L 100.848 5.69899zM 96.4297 4.93399C 96.5077 3.81999 97.1877 3.09799 98.1487 3.09799C 99.0857 3.09799 99.8127 3.875 99.8127 4.86299C 99.8127 4.883 99.8127 4.90599 99.8007 4.92999L 96.4297 4.93399z"/>
<path style="stroke:none; fill-rule:evenodd; fill:#000000" d="M 107.492 7.836C 107.387 7.895 107.34 7.895 107.281 7.895C 106.942 7.895 106.754 7.72299 106.754 7.422L 106.754 3.856C 106.754 2.78099 105.977 2.19899 104.504 2.19899C 103.637 2.19899 102.918 2.453 102.516 2.90199C 102.242 3.211 102.129 3.55899 102.106 4.16L 103.051 4.16C 103.129 3.42999 103.555 3.09799 104.438 3.09799C 105.281 3.09799 105.754 3.418 105.754 3.996L 105.754 4.25C 105.754 4.65199 105.52 4.82399 104.778 4.918C 103.453 5.09 103.25 5.13699 102.891 5.285C 102.207 5.56999 101.86 6.11299 101.86 6.899C 101.86 7.992 102.613 8.68399 103.824 8.68399C 104.578 8.68399 105.184 8.41 105.86 7.76599C 105.926 8.399 106.223 8.68399 106.84 8.68399C 107.031 8.68399 107.18 8.66 107.489 8.578L 107.492 7.836zM 105.75 6.539C 105.75 6.867 105.66 7.06999 105.383 7.34399C 105.004 7.707 104.547 7.899 104 7.899C 103.278 7.899 102.852 7.535 102.852 6.90599C 102.852 6.258 103.262 5.92599 104.254 5.774C 105.235 5.633 105.434 5.586 105.746 5.43399L 105.75 6.539z"/>
<path style="stroke:none; fill-rule:evenodd; fill:#000000" d="M 110.649 2.399L 109.75 2.399L 109.75 0.731003L 108.75 0.731003L 108.75 2.399L 107.852 2.399L 107.852 3.19499L 108.75 3.19499L 108.75 7.742C 108.75 8.34799 109.153 8.692 109.883 8.692C 110.106 8.692 110.332 8.668 110.645 8.60899L 110.645 7.774C 110.531 7.86299 110.395 7.89099 110.227 7.89099C 109.852 7.89099 109.746 7.77699 109.746 7.34799L 109.746 3.19499L 110.645 3.19499L 110.649 2.399z"/>
<path style="stroke:none; fill-rule:evenodd; fill:#000000" d="M 116.551 8.43399L 116.551 2.40199L 115.551 2.40199L 115.551 5.84799C 115.551 7.086 114.906 7.899 113.899 7.899C 113.137 7.899 112.653 7.438 112.653 6.707L 112.653 2.40199L 111.653 2.40199L 111.653 7.05499C 111.653 8.05499 112.41 8.69899 113.602 8.69899C 114.5 8.69899 115.074 8.39099 115.649 7.59799L 115.649 8.438L 116.551 8.43399z"/>
<path style="stroke:none; fill-rule:evenodd; fill:#000000" d="M 118.149 2.371L 118.149 8.395L 119.149 8.395L 119.149 5.26199C 119.149 4.399 119.36 3.836 119.809 3.5C 120.098 3.28099 120.379 3.215 121.031 3.203L 121.031 2.23799C 120.875 2.21899 120.797 2.207 120.672 2.207C 120.063 2.207 119.598 2.57399 119.051 3.46899L 119.051 2.379L 118.149 2.371z"/>
<path style="stroke:none; fill-rule:evenodd; fill:#000000" d="M 127.051 5.69899C 127.051 4.78099 126.985 4.231 126.813 3.785C 126.426 2.80099 125.512 2.203 124.395 2.203C 122.731 2.203 121.656 3.496 121.656 5.485C 121.656 7.47299 122.692 8.69899 124.367 8.69899C 125.731 8.69899 126.676 7.90599 126.918 6.57399L 125.965 6.57399C 125.703 7.379 125.172 7.797 124.41 7.797C 123.809 7.797 123.297 7.52 122.981 7.004C 122.754 6.65599 122.676 6.30499 122.664 5.69899L 127.051 5.69899zM 122.629 4.93399C 122.707 3.81999 123.387 3.09799 124.348 3.09799C 125.285 3.09799 126.012 3.875 126.012 4.86299C 126.012 4.883 126.012 4.90599 126 4.92999L 122.629 4.93399z"/>
<path style="stroke:none; fill-rule:evenodd; fill:#000000" d="M 132.578 4.05899C 132.567 2.871 131.781 2.19899 130.379 2.19899C 128.969 2.19899 128.055 2.92599 128.055 4.047C 128.055 4.992 128.543 5.442 129.992 5.789L 130.903 6.008C 131.578 6.168 131.848 6.41 131.848 6.84799C 131.848 7.41 131.281 7.793 130.438 7.793C 129.918 7.793 129.481 7.645 129.239 7.38699C 129.09 7.215 129.02 7.039 128.961 6.606L 127.946 6.606C 127.989 8.01599 128.774 8.69499 130.356 8.69499C 131.879 8.69499 132.848 7.94499 132.848 6.78099C 132.848 5.883 132.336 5.38699 131.121 5.09799L 130.188 4.879C 129.395 4.69499 129.055 4.442 129.055 4.01599C 129.055 3.465 129.551 3.106 130.34 3.106C 131.113 3.106 131.531 3.43399 131.555 4.063L 132.578 4.05899z"/>
<path style="stroke:none; fill-rule:evenodd; fill:#000000" d="M 153.848 0L 153.848 8.399L 154.746 8.399L 154.746 7.633C 155.199 8.356 155.805 8.69899 156.641 8.69899C 158.215 8.69899 159.242 7.395 159.242 5.383C 159.242 3.418 158.262 2.203 156.692 2.203C 155.871 2.203 155.293 2.51599 154.848 3.19899L 154.848 0L 153.848 0zM 156.496 3.106C 157.563 3.106 158.25 4.035 158.25 5.46899C 158.25 6.832 157.539 7.76199 156.496 7.76199C 155.489 7.76199 154.821 6.84399 154.821 5.43399C 154.821 4.024 155.485 3.106 156.496 3.106z"/>
<path style="stroke:none; fill-rule:evenodd; fill:#000000" d="M 160.707 10.832C 161.836 9.32399 162.547 7.231 162.547 5.42599C 162.547 3.60899 161.836 1.51599 160.707 0.0039978L 160.09 0.0039978C 161.094 1.65199 161.653 3.582 161.653 5.42599C 161.653 7.254 161.094 9.19899 160.09 10.832L 160.707 10.832z"/>
<path style="stroke:none; fill-rule:evenodd; fill:#000000" d="M 167.551 8.399L 171.36 8.399C 172.156 8.399 172.746 8.17999 173.199 7.69899C 173.613 7.26199 173.848 6.664 173.848 6.008C 173.848 4.996 173.375 4.383 172.274 3.97299C 173.039 3.617 173.446 2.996 173.446 2.145C 173.446 1.535 173.219 0.996002 172.778 0.60199C 172.34 0.19899 171.766 0.0159912 170.957 0.0159912L 167.547 0.0159912L 167.551 8.399zM 168.649 3.69899L 168.649 0.901993L 170.692 0.901993C 171.281 0.901993 171.61 0.985001 171.891 1.215C 172.184 1.453 172.344 1.817 172.344 2.30099C 172.344 2.77 172.188 3.145 171.891 3.38699C 171.61 3.61299 171.281 3.69899 170.692 3.69899L 168.649 3.69899zM 168.649 7.5L 168.649 4.60199L 171.246 4.60199C 171.758 4.60199 172.102 4.72699 172.356 5.004C 172.606 5.27 172.742 5.63699 172.742 6.05499C 172.742 6.457 172.606 6.828 172.356 7.09399C 172.106 7.367 171.762 7.496 171.246 7.496L 168.649 7.5z"/>
<path style="stroke:none; fill-rule:evenodd; fill:#000000" d="M 179.949 8.43399L 179.949 2.40199L 178.949 2.40199L 178.949 5.84799C 178.949 7.086 178.305 7.899 177.297 7.899C 176.535 7.899 176.051 7.438 176.051 6.707L 176.051 2.40199L 175.051 2.40199L 175.051 7.05499C 175.051 8.05499 175.809 8.69899 177 8.69899C 177.899 8.69899 178.473 8.39099 179.047 7.59799L 179.047 8.438L 179.949 8.43399z"/>
<path style="stroke:none; fill-rule:evenodd; fill:#000000" d="M 183.649 2.399L 182.75 2.399L 182.75 0.731003L 181.75 0.731003L 181.75 2.399L 180.852 2.399L 180.852 3.19499L 181.75 3.19499L 181.75 7.742C 181.75 8.34799 182.153 8.692 182.883 8.692C 183.106 8.692 183.332 8.668 183.645 8.60899L 183.645 7.774C 183.531 7.86299 183.395 7.89099 183.227 7.89099C 182.852 7.89099 182.746 7.77699 182.746 7.34799L 182.746 3.19499L 183.645 3.19499L 183.649 2.399z"/>
<path style="stroke:none; fill-rule:evenodd; fill:#000000" d="M 187.949 2.371L 187.949 8.395L 188.949 8.395L 188.949 5.26199C 188.949 4.399 189.16 3.836 189.61 3.5C 189.899 3.28099 190.18 3.215 190.832 3.203L 190.832 2.23799C 190.676 2.21899 190.598 2.207 190.473 2.207C 189.863 2.207 189.399 2.57399 188.852 3.46899L 188.852 2.379L 187.949 2.371z"/>
<path style="stroke:none; fill-rule:evenodd; fill:#000000" d="M 196.848 5.69899C 196.848 4.78099 196.781 4.231 196.61 3.785C 196.223 2.80099 195.309 2.203 194.192 2.203C 192.528 2.203 191.453 3.496 191.453 5.485C 191.453 7.47299 192.489 8.69899 194.164 8.69899C 195.528 8.69899 196.473 7.90599 196.715 6.57399L 195.762 6.57399C 195.5 7.379 194.969 7.797 194.207 7.797C 193.606 7.797 193.094 7.52 192.778 7.004C 192.551 6.65599 192.473 6.30499 192.461 5.69899L 196.848 5.69899zM 192.43 4.93399C 192.508 3.81999 193.188 3.09799 194.149 3.09799C 195.086 3.09799 195.813 3.875 195.813 4.86299C 195.813 4.883 195.813 4.90599 195.801 4.92999L 192.43 4.93399z"/>
<path style="stroke:none; fill-rule:evenodd; fill:#000000" d="M 202.375 4.05899C 202.363 2.871 201.578 2.19899 200.176 2.19899C 198.766 2.19899 197.852 2.92599 197.852 4.047C 197.852 4.992 198.34 5.442 199.789 5.789L 200.699 6.008C 201.375 6.168 201.645 6.41 201.645 6.84799C 201.645 7.41 201.078 7.793 200.235 7.793C 199.715 7.793 199.278 7.645 199.035 7.38699C 198.887 7.215 198.817 7.039 198.758 6.606L 197.742 6.606C 197.785 8.01599 198.571 8.69499 200.153 8.69499C 201.676 8.69499 202.645 7.94499 202.645 6.78099C 202.645 5.883 202.133 5.38699 200.918 5.09799L 199.985 4.879C 199.192 4.69499 198.852 4.442 198.852 4.01599C 198.852 3.465 199.348 3.106 200.137 3.106C 200.91 3.106 201.328 3.43399 201.352 4.063L 202.375 4.05899z"/>
<path style="stroke:none; fill-rule:evenodd; fill:#000000" d="M 205.949 2.399L 205.051 2.399L 205.051 0.731003L 204.051 0.731003L 204.051 2.399L 203.153 2.399L 203.153 3.19499L 204.051 3.19499L 204.051 7.742C 204.051 8.34799 204.453 8.692 205.184 8.692C 205.406 8.692 205.633 8.668 205.946 8.60899L 205.946 7.774C 205.832 7.86299 205.696 7.89099 205.528 7.89099C 205.153 7.89099 205.047 7.77699 205.047 7.34799L 205.047 3.19499L 205.946 3.19499L 205.949 2.399z"/>
<path style="stroke:none; fill-rule:evenodd; fill:#000000" d="M 212.586 2.19899C 210.883 2.19899 209.852 3.414 209.852 5.44899C 209.852 7.485 210.871 8.69899 212.602 8.69899C 214.305 8.69899 215.352 7.48799 215.352 5.5C 215.352 3.41 214.344 2.207 212.594 2.207L 212.586 2.19899zM 212.598 3.09799C 213.692 3.09799 214.348 3.985 214.348 5.481C 214.348 6.895 213.672 7.793 212.598 7.793C 211.516 7.793 210.848 6.90599 210.848 5.44499C 210.848 3.996 211.512 3.09799 212.598 3.09799z"/>
<path style="stroke:none; fill-rule:evenodd; fill:#000000" d="M 218.848 2.399L 217.848 2.399L 217.848 1.42999C 217.848 1.01599 218.074 0.800995 218.512 0.800995C 218.59 0.800995 218.625 0.800995 218.844 0.800995L 218.844 0.0589905C 218.621 0.0159912 218.492 0.00799561 218.293 0.00799561C 217.391 0.00799561 216.848 0.515991 216.848 1.379L 216.848 2.40199L 216.051 2.40199L 216.051 3.19899L 216.848 3.19899L 216.848 8.399L 217.848 8.399L 217.848 3.19899L 218.848 3.19899L 218.848 2.399z"/>
<path style="stroke:none; fill-rule:evenodd; fill:#000000" d="M 222.848 0L 222.848 8.399L 223.746 8.399L 223.746 7.633C 224.199 8.356 224.805 8.69899 225.641 8.69899C 227.215 8.69899 228.242 7.395 228.242 5.383C 228.242 3.418 227.262 2.203 225.692 2.203C 224.871 2.203 224.293 2.51599 223.848 3.19899L 223.848 0L 222.848 0zM 225.496 3.106C 226.563 3.106 227.25 4.035 227.25 5.46899C 227.25 6.832 226.539 7.76199 225.496 7.76199C 224.489 7.76199 223.821 6.84399 223.821 5.43399C 223.821 4.024 224.485 3.106 225.496 3.106z"/>
<path style="stroke:none; fill-rule:evenodd; fill:#000000" d="M 229.348 2.371L 229.348 8.395L 230.348 8.395L 230.348 5.26199C 230.348 4.399 230.559 3.836 231.008 3.5C 231.297 3.28099 231.578 3.215 232.231 3.203L 232.231 2.23799C 232.074 2.21899 231.996 2.207 231.871 2.207C 231.262 2.207 230.797 2.57399 230.25 3.46899L 230.25 2.379L 229.348 2.371z"/>
<path style="stroke:none; fill-rule:evenodd; fill:#000000" d="M 238.59 7.836C 238.485 7.895 238.438 7.895 238.379 7.895C 238.039 7.895 237.852 7.72299 237.852 7.422L 237.852 3.856C 237.852 2.78099 237.074 2.19899 235.602 2.19899C 234.735 2.19899 234.016 2.453 233.613 2.90199C 233.34 3.211 233.227 3.55899 233.203 4.16L 234.149 4.16C 234.227 3.42999 234.653 3.09799 235.535 3.09799C 236.379 3.09799 236.852 3.418 236.852 3.996L 236.852 4.25C 236.852 4.65199 236.617 4.82399 235.875 4.918C 234.551 5.09 234.348 5.13699 233.989 5.285C 233.305 5.56999 232.957 6.11299 232.957 6.899C 232.957 7.992 233.711 8.68399 234.922 8.68399C 235.676 8.68399 236.281 8.41 236.957 7.76599C 237.024 8.399 237.321 8.68399 237.938 8.68399C 238.129 8.68399 238.278 8.66 238.586 8.578L 238.59 7.836zM 236.848 6.539C 236.848 6.867 236.758 7.06999 236.481 7.34399C 236.102 7.707 235.645 7.899 235.098 7.899C 234.375 7.899 233.949 7.535 233.949 6.90599C 233.949 6.258 234.36 5.92599 235.352 5.774C 236.332 5.633 236.531 5.586 236.844 5.43399L 236.848 6.539z"/>
<path style="stroke:none; fill-rule:evenodd; fill:#000000" d="M 240.449 2.399L 239.449 2.399L 239.449 8.399L 240.449 8.399L 240.449 2.399zM 240.449 0L 239.449 0L 239.449 1.235L 240.449 1.235L 240.449 0z"/>
<path style="stroke:none; fill-rule:evenodd; fill:#000000" d="M 242.149 2.371L 242.149 8.395L 243.149 8.395L 243.149 5.047C 243.149 3.80899 243.774 2.996 244.739 2.996C 245.477 2.996 245.946 3.457 245.946 4.188L 245.946 8.39099L 246.946 8.39099L 246.946 3.836C 246.946 2.836 246.203 2.192 245.043 2.192C 244.153 2.192 243.578 2.535 243.051 3.375L 243.051 2.36299L 242.149 2.371z"/>
<path style="stroke:none; fill-rule:evenodd; fill:#000000" d="M 256.649 0L 255.649 0L 255.649 3.14099C 255.25 2.52699 254.613 2.19899 253.813 2.19899C 252.266 2.19899 251.25 3.457 251.25 5.39099C 251.25 7.438 252.262 8.69499 253.903 8.69499C 254.739 8.69499 255.321 8.375 255.844 7.606L 255.844 8.395L 256.641 8.395L 256.649 0zM 253.977 3.09799C 254.996 3.09799 255.645 4.024 255.645 5.46899C 255.645 6.867 254.989 7.793 253.989 7.793C 252.946 7.793 252.25 6.856 252.25 5.44499C 252.25 4.035 252.942 3.09799 253.977 3.09799z"/>
<path style="stroke:none; fill-rule:evenodd; fill:#000000" d="M 260.387 2.19899C 258.684 2.19899 257.653 3.414 257.653 5.44899C 257.653 7.485 258.672 8.69899 260.403 8.69899C 262.106 8.69899 263.153 7.48799 263.153 5.5C 263.153 3.41 262.145 2.207 260.395 2.207L 260.387 2.19899zM 260.399 3.09799C 261.492 3.09799 262.149 3.985 262.149 5.481C 262.149 6.895 261.473 7.793 260.399 7.793C 259.317 7.793 258.649 6.90599 258.649 5.44499C 258.649 3.996 259.313 3.09799 260.399 3.09799z"/>
<path style="stroke:none; fill-rule:evenodd; fill:#000000" d="M 269.551 5.69899C 269.551 4.78099 269.485 4.231 269.313 3.785C 268.926 2.80099 268.012 2.203 266.895 2.203C 265.231 2.203 264.156 3.496 264.156 5.485C 264.156 7.47299 265.192 8.69899 266.867 8.69899C 268.231 8.69899 269.176 7.90599 269.418 6.57399L 268.465 6.57399C 268.203 7.379 267.672 7.797 266.91 7.797C 266.309 7.797 265.797 7.52 265.481 7.004C 265.254 6.65599 265.176 6.30499 265.164 5.69899L 269.551 5.69899zM 265.129 4.93399C 265.207 3.81999 265.887 3.09799 266.848 3.09799C 267.785 3.09799 268.512 3.875 268.512 4.86299C 268.512 4.883 268.512 4.90599 268.5 4.92999L 265.129 4.93399z"/>
<path style="stroke:none; fill-rule:evenodd; fill:#000000" d="M 275.078 4.05899C 275.067 2.871 274.281 2.19899 272.879 2.19899C 271.469 2.19899 270.555 2.92599 270.555 4.047C 270.555 4.992 271.043 5.442 272.492 5.789L 273.403 6.008C 274.078 6.168 274.348 6.41 274.348 6.84799C 274.348 7.41 273.781 7.793 272.938 7.793C 272.418 7.793 271.981 7.645 271.739 7.38699C 271.59 7.215 271.52 7.039 271.461 6.606L 270.446 6.606C 270.489 8.01599 271.274 8.69499 272.856 8.69499C 274.379 8.69499 275.348 7.94499 275.348 6.78099C 275.348 5.883 274.836 5.38699 273.621 5.09799L 272.688 4.879C 271.895 4.69499 271.555 4.442 271.555 4.01599C 271.555 3.465 272.051 3.106 272.84 3.106C 273.613 3.106 274.031 3.43399 274.055 4.063L 275.078 4.05899z"/>
<path style="stroke:none; fill-rule:evenodd; fill:#000000" d="M 276.551 2.371L 276.551 8.395L 277.551 8.395L 277.551 5.047C 277.551 3.80899 278.176 2.996 279.141 2.996C 279.879 2.996 280.348 3.457 280.348 4.188L 280.348 8.39099L 281.348 8.39099L 281.348 3.836C 281.348 2.836 280.606 2.192 279.446 2.192C 278.555 2.192 277.981 2.535 277.453 3.375L 277.453 2.36299L 276.551 2.371z"/>
<path style="stroke:none; fill-rule:evenodd; fill:#000000" d="M 282.848 0L 282.848 1.19899L 283.446 1.19899C 283.446 1.875 283.274 2.192 282.848 2.25L 282.848 2.692C 283.555 2.63699 283.946 2.10199 283.946 1.172L 283.946 0L 282.848 0z"/>
<path style="stroke:none; fill-rule:evenodd; fill:#000000" d="M 287.649 2.399L 286.75 2.399L 286.75 0.731003L 285.75 0.731003L 285.75 2.399L 284.852 2.399L 284.852 3.19499L 285.75 3.19499L 285.75 7.742C 285.75 8.34799 286.153 8.692 286.883 8.692C 287.106 8.692 287.332 8.668 287.645 8.60899L 287.645 7.774C 287.531 7.86299 287.395 7.89099 287.227 7.89099C 286.852 7.89099 286.746 7.77699 286.746 7.34799L 286.746 3.19499L 287.645 3.19499L 287.649 2.399z"/>
<path style="stroke:none; fill-rule:evenodd; fill:#000000" d="M 292.649 0L 291.649 0L 291.649 8.399L 292.649 8.399L 292.649 6.05899L 293.582 5.14099L 295.621 8.399L 296.809 8.399L 294.344 4.47299L 296.442 2.40199L 295.211 2.40199L 292.653 4.93399L 292.649 0z"/>
<path style="stroke:none; fill-rule:evenodd; fill:#000000" d="M 297.649 2.371L 297.649 8.395L 298.649 8.395L 298.649 5.047C 298.649 3.80899 299.274 2.996 300.239 2.996C 300.977 2.996 301.446 3.457 301.446 4.188L 301.446 8.39099L 302.446 8.39099L 302.446 3.836C 302.446 2.836 301.703 2.192 300.543 2.192C 299.653 2.192 299.078 2.535 298.551 3.375L 298.551 2.36299L 297.649 2.371z"/>
<path style="stroke:none; fill-rule:evenodd; fill:#000000" d="M 306.387 2.19899C 304.684 2.19899 303.653 3.414 303.653 5.44899C 303.653 7.485 304.672 8.69899 306.403 8.69899C 308.106 8.69899 309.153 7.48799 309.153 5.5C 309.153 3.41 308.145 2.207 306.395 2.207L 306.387 2.19899zM 306.399 3.09799C 307.492 3.09799 308.149 3.985 308.149 5.481C 308.149 6.895 307.473 7.793 306.399 7.793C 305.317 7.793 304.649 6.90599 304.649 5.44499C 304.649 3.996 305.313 3.09799 306.399 3.09799z"/>
<path style="stroke:none; fill-rule:evenodd; fill:#000000" d="M 316.008 8.399L 317.774 2.399L 316.696 2.399L 315.504 7.067L 314.324 2.399L 313.156 2.399L 312.012 7.067L 310.785 2.399L 309.731 2.399L 311.473 8.399L 312.551 8.399L 313.707 3.68399L 314.922 8.399L 316.008 8.399z"/>
<path style="stroke:none; fill-rule:evenodd; fill:#000000" d="M 172.41 19.899L 174.176 13.899L 173.098 13.899L 171.906 18.567L 170.727 13.899L 169.559 13.899L 168.414 18.567L 167.188 13.899L 166.133 13.899L 167.875 19.899L 168.953 19.899L 170.11 15.184L 171.324 19.899L 172.41 19.899z"/>
<path style="stroke:none; fill-rule:evenodd; fill:#000000" d="M 175.149 11.5L 175.149 19.899L 176.149 19.899L 176.149 16.551C 176.149 15.313 176.774 14.5 177.739 14.5C 178.039 14.5 178.34 14.602 178.567 14.777C 178.832 14.973 178.946 15.262 178.946 15.692L 178.946 19.895L 179.946 19.895L 179.946 15.34C 179.946 14.328 179.227 13.695 178.063 13.695C 177.219 13.695 176.707 13.961 176.149 14.703L 176.149 11.492L 175.149 11.5z"/>
<path style="stroke:none; fill-rule:evenodd; fill:#000000" d="M 182.449 13.899L 181.449 13.899L 181.449 19.899L 182.449 19.899L 182.449 13.899zM 182.449 11.5L 181.449 11.5L 181.449 12.735L 182.449 12.735L 182.449 11.5z"/>
<path style="stroke:none; fill-rule:evenodd; fill:#000000" d="M 188.656 15.902C 188.613 15.317 188.489 14.934 188.258 14.598C 187.852 14.035 187.133 13.699 186.305 13.699C 184.703 13.699 183.656 14.992 183.656 17.004C 183.656 18.957 184.68 20.195 186.293 20.195C 187.715 20.195 188.613 19.324 188.727 17.832L 187.774 17.832C 187.617 18.809 187.129 19.297 186.324 19.297C 185.281 19.297 184.656 18.434 184.656 17.008C 184.656 15.5 185.266 14.602 186.301 14.602C 187.094 14.602 187.594 15.07 187.707 15.906L 188.656 15.902z"/>
<path style="stroke:none; fill-rule:evenodd; fill:#000000" d="M 189.848 11.5L 189.848 19.899L 190.848 19.899L 190.848 16.551C 190.848 15.313 191.473 14.5 192.438 14.5C 192.739 14.5 193.039 14.602 193.266 14.777C 193.531 14.973 193.645 15.262 193.645 15.692L 193.645 19.895L 194.645 19.895L 194.645 15.34C 194.645 14.328 193.926 13.695 192.762 13.695C 191.918 13.695 191.406 13.961 190.848 14.703L 190.848 11.492L 189.848 11.5z"/>
<path style="stroke:none; fill-rule:evenodd; fill:#000000" d="M 201.551 13.899L 200.551 13.899L 200.551 12.93C 200.551 12.516 200.778 12.301 201.215 12.301C 201.293 12.301 201.328 12.301 201.547 12.301L 201.547 11.559C 201.324 11.516 201.196 11.508 200.996 11.508C 200.094 11.508 199.551 12.016 199.551 12.879L 199.551 13.902L 198.754 13.902L 198.754 14.699L 199.551 14.699L 199.551 19.899L 200.551 19.899L 200.551 14.699L 201.551 14.699L 201.551 13.899z"/>
<path style="stroke:none; fill-rule:evenodd; fill:#000000" d="M 207.649 17.199C 207.649 16.281 207.582 15.731 207.41 15.285C 207.024 14.301 206.11 13.703 204.992 13.703C 203.328 13.703 202.254 14.996 202.254 16.985C 202.254 18.973 203.289 20.199 204.965 20.199C 206.328 20.199 207.274 19.406 207.516 18.074L 206.563 18.074C 206.301 18.879 205.77 19.297 205.008 19.297C 204.406 19.297 203.895 19.02 203.578 18.504C 203.352 18.156 203.274 17.805 203.262 17.199L 207.649 17.199zM 203.231 16.434C 203.309 15.32 203.989 14.598 204.949 14.598C 205.887 14.598 206.613 15.375 206.613 16.363C 206.613 16.383 206.613 16.406 206.602 16.43L 203.231 16.434z"/>
<path style="stroke:none; fill-rule:evenodd; fill:#000000" d="M 214.289 19.336C 214.184 19.395 214.137 19.395 214.078 19.395C 213.739 19.395 213.551 19.223 213.551 18.922L 213.551 15.356C 213.551 14.281 212.774 13.699 211.301 13.699C 210.434 13.699 209.715 13.953 209.313 14.402C 209.039 14.711 208.926 15.059 208.903 15.66L 209.848 15.66C 209.926 14.93 210.352 14.598 211.235 14.598C 212.078 14.598 212.551 14.918 212.551 15.496L 212.551 15.75C 212.551 16.152 212.317 16.324 211.574 16.418C 210.25 16.59 210.047 16.637 209.688 16.785C 209.004 17.07 208.656 17.613 208.656 18.399C 208.656 19.492 209.41 20.184 210.621 20.184C 211.375 20.184 211.981 19.91 212.656 19.266C 212.723 19.899 213.02 20.184 213.637 20.184C 213.828 20.184 213.977 20.16 214.285 20.078L 214.289 19.336zM 212.551 18.039C 212.551 18.367 212.461 18.57 212.184 18.844C 211.805 19.207 211.348 19.399 210.801 19.399C 210.078 19.399 209.653 19.035 209.653 18.406C 209.653 17.758 210.063 17.426 211.055 17.274C 212.035 17.133 212.235 17.086 212.547 16.934L 212.551 18.039z"/>
<path style="stroke:none; fill-rule:evenodd; fill:#000000" d="M 217.449 13.899L 216.551 13.899L 216.551 12.231L 215.551 12.231L 215.551 13.899L 214.653 13.899L 214.653 14.695L 215.551 14.695L 215.551 19.242C 215.551 19.848 215.953 20.192 216.684 20.192C 216.906 20.192 217.133 20.168 217.446 20.109L 217.446 19.274C 217.332 19.363 217.196 19.391 217.028 19.391C 216.653 19.391 216.547 19.277 216.547 18.848L 216.547 14.695L 217.446 14.695L 217.449 13.899z"/>
<path style="stroke:none; fill-rule:evenodd; fill:#000000" d="M 223.348 19.934L 223.348 13.902L 222.348 13.902L 222.348 17.348C 222.348 18.586 221.703 19.399 220.696 19.399C 219.934 19.399 219.449 18.938 219.449 18.207L 219.449 13.902L 218.449 13.902L 218.449 18.555C 218.449 19.555 219.207 20.199 220.399 20.199C 221.297 20.199 221.871 19.891 222.446 19.098L 222.446 19.938L 223.348 19.934z"/>
<path style="stroke:none; fill-rule:evenodd; fill:#000000" d="M 224.949 13.871L 224.949 19.895L 225.949 19.895L 225.949 16.762C 225.949 15.899 226.16 15.336 226.61 15C 226.899 14.781 227.18 14.715 227.832 14.703L 227.832 13.738C 227.676 13.719 227.598 13.707 227.473 13.707C 226.863 13.707 226.399 14.074 225.852 14.969L 225.852 13.879L 224.949 13.871z"/>
<path style="stroke:none; fill-rule:evenodd; fill:#000000" d="M 233.848 17.199C 233.848 16.281 233.781 15.731 233.61 15.285C 233.223 14.301 232.309 13.703 231.192 13.703C 229.528 13.703 228.453 14.996 228.453 16.985C 228.453 18.973 229.489 20.199 231.164 20.199C 232.528 20.199 233.473 19.406 233.715 18.074L 232.762 18.074C 232.5 18.879 231.969 19.297 231.207 19.297C 230.606 19.297 230.094 19.02 229.778 18.504C 229.551 18.156 229.473 17.805 229.461 17.199L 233.848 17.199zM 229.43 16.434C 229.508 15.32 230.188 14.598 231.149 14.598C 232.086 14.598 232.813 15.375 232.813 16.363C 232.813 16.383 232.813 16.406 232.801 16.43L 229.43 16.434z"/>
<path style="stroke:none; fill-rule:evenodd; fill:#000000" d="M 239.375 15.559C 239.363 14.371 238.578 13.699 237.176 13.699C 235.766 13.699 234.852 14.426 234.852 15.547C 234.852 16.492 235.34 16.942 236.789 17.289L 237.699 17.508C 238.375 17.668 238.645 17.91 238.645 18.348C 238.645 18.91 238.078 19.293 237.235 19.293C 236.715 19.293 236.278 19.145 236.035 18.887C 235.887 18.715 235.817 18.539 235.758 18.106L 234.742 18.106C 234.785 19.516 235.571 20.195 237.153 20.195C 238.676 20.195 239.645 19.445 239.645 18.281C 239.645 17.383 239.133 16.887 237.918 16.598L 236.985 16.379C 236.192 16.195 235.852 15.942 235.852 15.516C 235.852 14.965 236.348 14.606 237.137 14.606C 237.91 14.606 238.328 14.934 238.352 15.563L 239.375 15.559z"/>
<path style="stroke:none; fill-rule:evenodd; fill:#000000" d="M 247.949 13.899L 247.949 14.754C 247.469 14.035 246.883 13.699 246.113 13.699C 244.586 13.699 243.555 15.039 243.555 17.004C 243.555 17.996 243.817 18.805 244.309 19.383C 244.754 19.891 245.395 20.192 246.028 20.192C 246.781 20.192 247.309 19.863 247.848 19.078L 247.848 19.387C 247.848 20.199 247.746 20.695 247.508 21.027C 247.258 21.383 246.77 21.586 246.192 21.586C 245.762 21.586 245.375 21.473 245.113 21.266C 244.899 21.094 244.809 20.934 244.75 20.578L 243.785 20.578C 243.887 21.711 244.766 22.387 246.176 22.387C 247.067 22.387 247.832 22.102 248.223 21.621C 248.68 21.074 248.852 20.317 248.852 18.906L 248.852 13.891L 247.949 13.899zM 246.211 14.598C 247.239 14.598 247.848 15.473 247.848 16.981C 247.848 18.418 247.231 19.293 246.223 19.293C 245.18 19.293 244.551 18.406 244.551 16.945C 244.551 15.496 245.192 14.598 246.211 14.598z"/>
<path style="stroke:none; fill-rule:evenodd; fill:#000000" d="M 252.785 13.699C 251.082 13.699 250.051 14.914 250.051 16.949C 250.051 18.985 251.071 20.199 252.801 20.199C 254.504 20.199 255.551 18.988 255.551 17C 255.551 14.91 254.543 13.707 252.793 13.707L 252.785 13.699zM 252.801 14.598C 253.895 14.598 254.551 15.485 254.551 16.981C 254.551 18.395 253.875 19.293 252.801 19.293C 251.719 19.293 251.051 18.406 251.051 16.945C 251.051 15.496 251.715 14.598 252.801 14.598z"/>
<path style="stroke:none; fill-rule:evenodd; fill:#000000" d="M 265.61 19.899L 267.375 13.899L 266.297 13.899L 265.106 18.567L 263.926 13.899L 262.758 13.899L 261.613 18.567L 260.387 13.899L 259.332 13.899L 261.074 19.899L 262.153 19.899L 263.309 15.184L 264.524 19.899L 265.61 19.899z"/>
<path style="stroke:none; fill-rule:evenodd; fill:#000000" d="M 269.149 13.899L 268.149 13.899L 268.149 19.899L 269.149 19.899L 269.149 13.899zM 269.149 11.5L 268.149 11.5L 268.149 12.735L 269.149 12.735L 269.149 11.5z"/>
<path style="stroke:none; fill-rule:evenodd; fill:#000000" d="M 272.949 13.899L 272.051 13.899L 272.051 12.231L 271.051 12.231L 271.051 13.899L 270.153 13.899L 270.153 14.695L 271.051 14.695L 271.051 19.242C 271.051 19.848 271.453 20.192 272.184 20.192C 272.406 20.192 272.633 20.168 272.946 20.109L 272.946 19.274C 272.832 19.363 272.696 19.391 272.528 19.391C 272.153 19.391 272.047 19.277 272.047 18.848L 272.047 14.695L 272.946 14.695L 272.949 13.899z"/>
<path style="stroke:none; fill-rule:evenodd; fill:#000000" d="M 274.051 11.5L 274.051 19.899L 275.051 19.899L 275.051 16.551C 275.051 15.313 275.676 14.5 276.641 14.5C 276.942 14.5 277.242 14.602 277.469 14.777C 277.735 14.973 277.848 15.262 277.848 15.692L 277.848 19.895L 278.848 19.895L 278.848 15.34C 278.848 14.328 278.129 13.695 276.965 13.695C 276.121 13.695 275.61 13.961 275.051 14.703L 275.051 11.492L 274.051 11.5z"/>
<path style="stroke:none; fill-rule:evenodd; fill:#000000" d="M 288.75 17.199C 288.75 16.281 288.684 15.731 288.512 15.285C 288.125 14.301 287.211 13.703 286.094 13.703C 284.43 13.703 283.356 14.996 283.356 16.985C 283.356 18.973 284.391 20.199 286.067 20.199C 287.43 20.199 288.375 19.406 288.617 18.074L 287.664 18.074C 287.403 18.879 286.871 19.297 286.11 19.297C 285.508 19.297 284.996 19.02 284.68 18.504C 284.453 18.156 284.375 17.805 284.363 17.199L 288.75 17.199zM 284.328 16.434C 284.406 15.32 285.086 14.598 286.047 14.598C 286.985 14.598 287.711 15.375 287.711 16.363C 287.711 16.383 287.711 16.406 287.699 16.43L 284.328 16.434z"/>
<path style="stroke:none; fill-rule:evenodd; fill:#000000" d="M 295.289 19.336C 295.184 19.395 295.137 19.395 295.078 19.395C 294.739 19.395 294.551 19.223 294.551 18.922L 294.551 15.356C 294.551 14.281 293.774 13.699 292.301 13.699C 291.434 13.699 290.715 13.953 290.313 14.402C 290.039 14.711 289.926 15.059 289.903 15.66L 290.848 15.66C 290.926 14.93 291.352 14.598 292.235 14.598C 293.078 14.598 293.551 14.918 293.551 15.496L 293.551 15.75C 293.551 16.152 293.317 16.324 292.574 16.418C 291.25 16.59 291.047 16.637 290.688 16.785C 290.004 17.07 289.656 17.613 289.656 18.399C 289.656 19.492 290.41 20.184 291.621 20.184C 292.375 20.184 292.981 19.91 293.656 19.266C 293.723 19.899 294.02 20.184 294.637 20.184C 294.828 20.184 294.977 20.16 295.285 20.078L 295.289 19.336zM 293.551 18.039C 293.551 18.367 293.461 18.57 293.184 18.844C 292.805 19.207 292.348 19.399 291.801 19.399C 291.078 19.399 290.653 19.035 290.653 18.406C 290.653 17.758 291.063 17.426 292.055 17.274C 293.035 17.133 293.235 17.086 293.547 16.934L 293.551 18.039z"/>
<path style="stroke:none; fill-rule:evenodd; fill:#000000" d="M 300.957 15.902C 300.914 15.317 300.789 14.934 300.559 14.598C 300.153 14.035 299.434 13.699 298.606 13.699C 297.004 13.699 295.957 14.992 295.957 17.004C 295.957 18.957 296.981 20.195 298.594 20.195C 300.016 20.195 300.914 19.324 301.028 17.832L 300.074 17.832C 299.918 18.809 299.43 19.297 298.625 19.297C 297.582 19.297 296.957 18.434 296.957 17.008C 296.957 15.5 297.567 14.602 298.602 14.602C 299.395 14.602 299.895 15.07 300.008 15.906L 300.957 15.902z"/>
<path style="stroke:none; fill-rule:evenodd; fill:#000000" d="M 302.149 11.5L 302.149 19.899L 303.149 19.899L 303.149 16.551C 303.149 15.313 303.774 14.5 304.739 14.5C 305.039 14.5 305.34 14.602 305.567 14.777C 305.832 14.973 305.946 15.262 305.946 15.692L 305.946 19.895L 306.946 19.895L 306.946 15.34C 306.946 14.328 306.227 13.695 305.063 13.695C 304.219 13.695 303.707 13.961 303.149 14.703L 303.149 11.492L 302.149 11.5z"/>
<path style="stroke:none; fill-rule:evenodd; fill:#000000" d="M 313.989 13.699C 312.285 13.699 311.254 14.914 311.254 16.949C 311.254 18.985 312.274 20.199 314.004 20.199C 315.707 20.199 316.754 18.988 316.754 17C 316.754 14.91 315.746 13.707 313.996 13.707L 313.989 13.699zM 314 14.598C 315.094 14.598 315.75 15.485 315.75 16.981C 315.75 18.395 315.074 19.293 314 19.293C 312.918 19.293 312.25 18.406 312.25 16.945C 312.25 15.496 312.914 14.598 314 14.598z"/>
<path style="stroke:none; fill-rule:evenodd; fill:#000000" d="M 320.149 13.899L 319.25 13.899L 319.25 12.231L 318.25 12.231L 318.25 13.899L 317.352 13.899L 317.352 14.695L 318.25 14.695L 318.25 19.242C 318.25 19.848 318.653 20.192 319.383 20.192C 319.606 20.192 319.832 20.168 320.145 20.109L 320.145 19.274C 320.031 19.363 319.895 19.391 319.727 19.391C 319.352 19.391 319.246 19.277 319.246 18.848L 319.246 14.695L 320.145 14.695L 320.149 13.899z"/>
<path style="stroke:none; fill-rule:evenodd; fill:#000000" d="M 321.25 11.5L 321.25 19.899L 322.25 19.899L 322.25 16.551C 322.25 15.313 322.875 14.5 323.84 14.5C 324.141 14.5 324.442 14.602 324.668 14.777C 324.934 14.973 325.047 15.262 325.047 15.692L 325.047 19.895L 326.047 19.895L 326.047 15.34C 326.047 14.328 325.328 13.695 324.164 13.695C 323.321 13.695 322.809 13.961 322.25 14.703L 322.25 11.492L 321.25 11.5z"/>
<path style="stroke:none; fill-rule:evenodd; fill:#000000" d="M 332.75 17.199C 332.75 16.281 332.684 15.731 332.512 15.285C 332.125 14.301 331.211 13.703 330.094 13.703C 328.43 13.703 327.356 14.996 327.356 16.985C 327.356 18.973 328.391 20.199 330.067 20.199C 331.43 20.199 332.375 19.406 332.617 18.074L 331.664 18.074C 331.403 18.879 330.871 19.297 330.11 19.297C 329.508 19.297 328.996 19.02 328.68 18.504C 328.453 18.156 328.375 17.805 328.363 17.199L 332.75 17.199zM 328.328 16.434C 328.406 15.32 329.086 14.598 330.047 14.598C 330.985 14.598 331.711 15.375 331.711 16.363C 331.711 16.383 331.711 16.406 331.699 16.43L 328.328 16.434z"/>
<path style="stroke:none; fill-rule:evenodd; fill:#000000" d="M 334.051 13.871L 334.051 19.895L 335.051 19.895L 335.051 16.762C 335.051 15.899 335.262 15.336 335.711 15C 336 14.781 336.281 14.715 336.934 14.703L 336.934 13.738C 336.778 13.719 336.699 13.707 336.574 13.707C 335.965 13.707 335.5 14.074 334.953 14.969L 334.953 13.879L 334.051 13.871z"/>
</g>
</svg>