<?xml version="1.0" encoding="ISO-8859-1" standalone="yes"?>
<svg width="480.625" height="150.156">
  <defs> 
    <marker id="ArrowEnd" viewBox="0 0 10 10" refX="0" refY="5" 
     markerUnits="strokeWidth" 
     markerWidth="4" 
     markerHeight="3" 
     orient="auto"> 
        <path d="M 0 0 L 10 5 L 0 10 z" /> 
    </marker>
    <marker id="ArrowStart" viewBox="0 0 10 10" refX="10" refY="5" 
     markerUnits="strokeWidth" 
     markerWidth="4" 
     markerHeight="3" 
     orient="auto"> 
        <path d="M 10 0 L 0 5 L 10 10 z" /> 
    </marker> </defs>
<g>
<path style="stroke:#7e7e7e; stroke-width:0.95664899999999997; fill:none" d="M 75.1505 65.5113L 149.768 76.9883"/>
<path style="stroke:#7e7e7e; stroke-width:0.95664899999999997; fill:none" d="M 75.1505 65.5113L 33.0605 92.2966"/>
<path style="stroke:none; fill-rule:evenodd; fill:#ffffff" d="M 102.256 33.6213C 97.4749 33.6213 94.9238 38.0813 96.8378 41.2733C 98.7478 44.4603 105.127 46.3743 106.401 48.2853C 107.674 50.1953 103.85 52.1093 104.17 54.3433C 104.486 56.5743 108.951 59.1243 116.924 59.4453C 124.893 59.7613 136.373 57.8513 139.881 52.7493C 143.385 47.6483 138.928 39.3593 134.463 38.4023C 130.002 37.4493 125.537 43.8203 124.901 42.8633C 124.264 41.9103 127.451 33.6173 132.233 30.1093C 137.014 26.6013 143.393 27.8783 142.752 25.9643C 142.115 24.0543 134.463 18.9533 129.041 17.3553C 123.623 15.7613 120.432 17.6713 118.522 20.8633C 116.612 24.0503 115.971 28.5153 116.612 32.3393C 117.248 36.1633 119.162 39.3553 116.612 38.7143C 114.061 38.0783 107.049 33.6133 102.264 33.6133"/>
<path style="stroke:#7e7e7e; stroke-width:0.95664899999999997; fill:none" d="M 102.256 33.6213C 97.4749 33.6213 94.9238 38.0813 96.8378 41.2733C 98.7478 44.4603 105.127 46.3743 106.401 48.2853C 107.674 50.1953 103.85 52.1093 104.17 54.3433C 104.486 56.5743 108.951 59.1243 116.924 59.4453C 124.893 59.7613 136.373 57.8513 139.881 52.7493C 143.385 47.6483 138.928 39.3593 134.463 38.4023C 130.002 37.4493 125.537 43.8203 124.901 42.8633C 124.264 41.9103 127.451 33.6173 132.233 30.1093C 137.014 26.6013 143.393 27.8783 142.752 25.9643C 142.115 24.0543 134.463 18.9533 129.041 17.3553C 123.623 15.7613 120.432 17.6713 118.522 20.8633C 116.612 24.0503 115.971 28.5153 116.612 32.3393C 117.248 36.1633 119.162 39.3553 116.612 38.7143C 114.061 38.0783 107.049 33.6133 102.264 33.6133"/>
<path style="stroke:none; fill-rule:evenodd; fill:#ffffff" d="M 30.5097 37.7653C 27.959 35.5353 32.4199 30.4333 35.9277 29.4763C 39.4316 28.5233 41.9863 31.7063 41.9863 36.4923C 41.9863 41.2733 39.4355 47.6523 35.6113 49.2463C 31.7871 50.8393 26.6855 47.6523 23.8144 46.0583C 20.9472 44.4643 20.3066 44.4643 18.0761 47.6523C 15.8457 50.8393 12.0176 57.2183 10.1074 61.3633C 8.19725 65.5073 8.19725 67.4213 7.87695 69.3313C 7.56055 71.2423 6.92385 73.1563 6.60355 74.4333C 6.28715 75.7063 6.28715 76.3433 5.96685 77.3003C 5.65045 78.2533 5.01365 79.5313 5.01365 80.4883C 5.01365 81.4413 5.65045 82.0813 6.92385 82.3983C 8.19725 82.7143 10.1113 82.7143 11.705 80.4883C 13.2988 78.2573 14.5722 73.7923 15.8496 69.9683C 17.123 66.1443 18.4004 62.9563 19.9941 60.0853C 21.5879 57.2183 23.498 54.6673 25.4121 53.7103C 27.3222 52.7573 29.2363 53.3943 30.83 53.7103C 32.4238 54.0273 33.6972 54.0273 34.9746 54.3473C 36.248 54.6633 37.5254 55.3003 40.3926 56.8983C 43.2597 58.4923 47.7246 61.0423 51.2324 61.6793C 54.7402 62.3163 57.291 61.0423 59.2011 60.0853C 61.1113 59.1323 62.3886 58.4923 63.0254 56.2613C 63.6621 54.0313 63.6621 50.2033 61.7519 47.0153C 59.8418 43.8283 56.0136 41.2773 49.3183 40.3203C 42.623 39.3673 33.0566 40.0033 30.5058 37.7693"/>
<path style="stroke:#7e7e7e; stroke-width:0.95664899999999997; fill:none" d="M 30.5097 37.7653C 27.959 35.5353 32.4199 30.4333 35.9277 29.4763C 39.4316 28.5233 41.9863 31.7063 41.9863 36.4923C 41.9863 41.2733 39.4355 47.6523 35.6113 49.2463C 31.7871 50.8393 26.6855 47.6523 23.8144 46.0583C 20.9472 44.4643 20.3066 44.4643 18.0761 47.6523C 15.8457 50.8393 12.0176 57.2183 10.1074 61.3633C 8.19725 65.5073 8.19725 67.4213 7.87695 69.3313C 7.56055 71.2423 6.92385 73.1563 6.60355 74.4333C 6.28715 75.7063 6.28715 76.3433 5.96685 77.3003C 5.65045 78.2533 5.01365 79.5313 5.01365 80.4883C 5.01365 81.4413 5.65045 82.0813 6.92385 82.3983C 8.19725 82.7143 10.1113 82.7143 11.705 80.4883C 13.2988 78.2573 14.5722 73.7923 15.8496 69.9683C 17.123 66.1443 18.4004 62.9563 19.9941 60.0853C 21.5879 57.2183 23.498 54.6673 25.4121 53.7103C 27.3222 52.7573 29.2363 53.3943 30.83 53.7103C 32.4238 54.0273 33.6972 54.0273 34.9746 54.3473C 36.248 54.6633 37.5254 55.3003 40.3926 56.8983C 43.2597 58.4923 47.7246 61.0423 51.2324 61.6793C 54.7402 62.3163 57.291 61.0423 59.2011 60.0853C 61.1113 59.1323 62.3886 58.4923 63.0254 56.2613C 63.6621 54.0313 63.6621 50.2033 61.7519 47.0153C 59.8418 43.8283 56.0136 41.2773 49.3183 40.3203C 42.623 39.3673 33.0566 40.0033 30.5058 37.7693"/>
<path style="stroke:#7e7e7e; stroke-width:0.95664899999999997; fill:none" d="M 75.1505 17.6793L 75.1505 67.4213"/>
<path style="stroke:#7e7e7e; stroke-width:0.95664899999999997; fill:none" d="M 241.608 65.5113L 316.225 76.9883"/>
<path style="stroke:#7e7e7e; stroke-width:0.95664899999999997; fill:none" d="M 241.608 65.5113L 199.518 92.2966"/>
<path style="stroke:none; fill-rule:evenodd; fill:#ffffff" d="M 268.713 33.6213C 263.932 33.6213 261.381 38.0813 263.295 41.2733C 265.205 44.4603 271.584 46.3743 272.858 48.2853C 274.131 50.1953 270.307 52.1093 270.627 54.3433C 270.944 56.5743 275.408 59.1243 283.381 59.4453C 291.35 59.7613 302.83 57.8513 306.338 52.7493C 309.842 47.6483 305.385 39.3593 300.92 38.4023C 296.459 37.4493 291.994 43.8203 291.358 42.8633C 290.721 41.9103 293.908 33.6173 298.69 30.1093C 303.471 26.6013 309.85 27.8783 309.209 25.9643C 308.572 24.0543 300.92 18.9533 295.498 17.3553C 290.08 15.7613 286.889 17.6713 284.979 20.8633C 283.069 24.0503 282.428 28.5153 283.069 32.3393C 283.705 36.1633 285.619 39.3553 283.069 38.7143C 280.518 38.0783 273.506 33.6133 268.721 33.6133"/>
<path style="stroke:#7e7e7e; stroke-width:0.95664899999999997; fill:none" d="M 268.713 33.6213C 263.932 33.6213 261.381 38.0813 263.295 41.2733C 265.205 44.4603 271.584 46.3743 272.858 48.2853C 274.131 50.1953 270.307 52.1093 270.627 54.3433C 270.944 56.5743 275.408 59.1243 283.381 59.4453C 291.35 59.7613 302.83 57.8513 306.338 52.7493C 309.842 47.6483 305.385 39.3593 300.92 38.4023C 296.459 37.4493 291.994 43.8203 291.358 42.8633C 290.721 41.9103 293.908 33.6173 298.69 30.1093C 303.471 26.6013 309.85 27.8783 309.209 25.9643C 308.572 24.0543 300.92 18.9533 295.498 17.3553C 290.08 15.7613 286.889 17.6713 284.979 20.8633C 283.069 24.0503 282.428 28.5153 283.069 32.3393C 283.705 36.1633 285.619 39.3553 283.069 38.7143C 280.518 38.0783 273.506 33.6133 268.721 33.6133"/>
<path style="stroke:none; fill-rule:evenodd; fill:#ffffff" d="M 196.967 37.7653C 194.416 35.5353 198.877 30.4333 202.385 29.4763C 205.889 28.5233 208.444 31.7063 208.444 36.4923C 208.444 41.2733 205.893 47.6523 202.069 49.2463C 198.244 50.8393 193.143 47.6523 190.272 46.0583C 187.404 44.4643 186.764 44.4643 184.533 47.6523C 182.303 50.8393 178.475 57.2183 176.565 61.3633C 174.654 65.5073 174.654 67.4213 174.334 69.3313C 174.018 71.2423 173.381 73.1563 173.061 74.4333C 172.744 75.7063 172.744 76.3433 172.424 77.3003C 172.108 78.2533 171.471 79.5313 171.471 80.4883C 171.471 81.4413 172.108 82.0813 173.381 82.3983C 174.654 82.7143 176.569 82.7143 178.162 80.4883C 179.756 78.2573 181.029 73.7923 182.307 69.9683C 183.58 66.1443 184.858 62.9563 186.451 60.0853C 188.045 57.2183 189.955 54.6673 191.869 53.7103C 193.779 52.7573 195.694 53.3943 197.287 53.7103C 198.881 54.0273 200.154 54.0273 201.432 54.3473C 202.705 54.6633 203.983 55.3003 206.85 56.8983C 209.717 58.4923 214.182 61.0423 217.69 61.6793C 221.197 62.3163 223.748 61.0423 225.658 60.0853C 227.569 59.1323 228.846 58.4923 229.483 56.2613C 230.119 54.0313 230.119 50.2033 228.209 47.0153C 226.299 43.8283 222.471 41.2773 215.776 40.3203C 209.08 39.3673 199.514 40.0033 196.963 37.7693"/>
<path style="stroke:#7e7e7e; stroke-width:0.95664899999999997; fill:none" d="M 196.967 37.7653C 194.416 35.5353 198.877 30.4333 202.385 29.4763C 205.889 28.5233 208.444 31.7063 208.444 36.4923C 208.444 41.2733 205.893 47.6523 202.069 49.2463C 198.244 50.8393 193.143 47.6523 190.272 46.0583C 187.404 44.4643 186.764 44.4643 184.533 47.6523C 182.303 50.8393 178.475 57.2183 176.565 61.3633C 174.654 65.5073 174.654 67.4213 174.334 69.3313C 174.018 71.2423 173.381 73.1563 173.061 74.4333C 172.744 75.7063 172.744 76.3433 172.424 77.3003C 172.108 78.2533 171.471 79.5313 171.471 80.4883C 171.471 81.4413 172.108 82.0813 173.381 82.3983C 174.654 82.7143 176.569 82.7143 178.162 80.4883C 179.756 78.2573 181.029 73.7923 182.307 69.9683C 183.58 66.1443 184.858 62.9563 186.451 60.0853C 188.045 57.2183 189.955 54.6673 191.869 53.7103C 193.779 52.7573 195.694 53.3943 197.287 53.7103C 198.881 54.0273 200.154 54.0273 201.432 54.3473C 202.705 54.6633 203.983 55.3003 206.85 56.8983C 209.717 58.4923 214.182 61.0423 217.69 61.6793C 221.197 62.3163 223.748 61.0423 225.658 60.0853C 227.569 59.1323 228.846 58.4923 229.483 56.2613C 230.119 54.0313 230.119 50.2033 228.209 47.0153C 226.299 43.8283 222.471 41.2773 215.776 40.3203C 209.08 39.3673 199.514 40.0033 196.963 37.7693"/>
<path style="stroke:#7e7e7e; stroke-width:0.95664899999999997; fill:none" d="M 241.608 17.6793L 241.608 67.4213"/>
<path style="stroke:#7e7e7e; stroke-width:0.95664899999999997; fill:none" d="M 396.584 65.5113L 471.201 76.9883"/>
<path style="stroke:#7e7e7e; stroke-width:0.95664899999999997; fill:none" d="M 396.584 65.5113L 354.494 92.2966"/>
<path style="stroke:none; fill-rule:evenodd; fill:#ffffff" d="M 423.69 33.6213C 418.908 33.6213 416.358 38.0813 418.272 41.2733C 420.182 44.4603 426.561 46.3743 427.834 48.2853C 429.108 50.1953 425.283 52.1093 425.604 54.3433C 425.92 56.5743 430.385 59.1243 438.358 59.4453C 446.326 59.7613 457.807 57.8513 461.315 52.7493C 464.819 47.6483 460.362 39.3593 455.897 38.4023C 451.436 37.4493 446.971 43.8203 446.334 42.8633C 445.697 41.9103 448.885 33.6173 453.666 30.1093C 458.447 26.6013 464.826 27.8783 464.186 25.9643C 463.549 24.0543 455.897 18.9533 450.475 17.3553C 445.057 15.7613 441.865 17.6713 439.955 20.8633C 438.045 24.0503 437.404 28.5153 438.045 32.3393C 438.682 36.1633 440.596 39.3553 438.045 38.7143C 435.494 38.0783 428.483 33.6133 423.697 33.6133"/>
<path style="stroke:#7e7e7e; stroke-width:0.95664899999999997; fill:none" d="M 423.69 33.6213C 418.908 33.6213 416.358 38.0813 418.272 41.2733C 420.182 44.4603 426.561 46.3743 427.834 48.2853C 429.108 50.1953 425.283 52.1093 425.604 54.3433C 425.92 56.5743 430.385 59.1243 438.358 59.4453C 446.326 59.7613 457.807 57.8513 461.315 52.7493C 464.819 47.6483 460.362 39.3593 455.897 38.4023C 451.436 37.4493 446.971 43.8203 446.334 42.8633C 445.697 41.9103 448.885 33.6173 453.666 30.1093C 458.447 26.6013 464.826 27.8783 464.186 25.9643C 463.549 24.0543 455.897 18.9533 450.475 17.3553C 445.057 15.7613 441.865 17.6713 439.955 20.8633C 438.045 24.0503 437.404 28.5153 438.045 32.3393C 438.682 36.1633 440.596 39.3553 438.045 38.7143C 435.494 38.0783 428.483 33.6133 423.697 33.6133"/>
<path style="stroke:none; fill-rule:evenodd; fill:#ffffff" d="M 351.944 37.7653C 349.393 35.5353 353.854 30.4333 357.362 29.4763C 360.865 28.5233 363.42 31.7063 363.42 36.4923C 363.42 41.2733 360.869 47.6523 357.045 49.2463C 353.221 50.8393 348.119 47.6523 345.248 46.0583C 342.381 44.4643 341.74 44.4643 339.51 47.6523C 337.279 50.8393 333.451 57.2183 331.541 61.3633C 329.631 65.5073 329.631 67.4213 329.311 69.3313C 328.994 71.2423 328.358 73.1563 328.037 74.4333C 327.721 75.7063 327.721 76.3433 327.401 77.3003C 327.084 78.2533 326.447 79.5313 326.447 80.4883C 326.447 81.4413 327.084 82.0813 328.358 82.3983C 329.631 82.7143 331.545 82.7143 333.139 80.4883C 334.733 78.2573 336.006 73.7923 337.283 69.9683C 338.557 66.1443 339.834 62.9563 341.428 60.0853C 343.022 57.2183 344.932 54.6673 346.846 53.7103C 348.756 52.7573 350.67 53.3943 352.264 53.7103C 353.858 54.0273 355.131 54.0273 356.408 54.3473C 357.682 54.6633 358.959 55.3003 361.826 56.8983C 364.694 58.4923 369.158 61.0423 372.666 61.6793C 376.174 62.3163 378.725 61.0423 380.635 60.0853C 382.545 59.1323 383.822 58.4923 384.459 56.2613C 385.096 54.0313 385.096 50.2033 383.186 47.0153C 381.276 43.8283 377.447 41.2773 370.752 40.3203C 364.057 39.3673 354.49 40.0033 351.94 37.7693"/>
<path style="stroke:#7e7e7e; stroke-width:0.95664899999999997; fill:none" d="M 351.944 37.7653C 349.393 35.5353 353.854 30.4333 357.362 29.4763C 360.865 28.5233 363.42 31.7063 363.42 36.4923C 363.42 41.2733 360.869 47.6523 357.045 49.2463C 353.221 50.8393 348.119 47.6523 345.248 46.0583C 342.381 44.4643 341.74 44.4643 339.51 47.6523C 337.279 50.8393 333.451 57.2183 331.541 61.3633C 329.631 65.5073 329.631 67.4213 329.311 69.3313C 328.994 71.2423 328.358 73.1563 328.037 74.4333C 327.721 75.7063 327.721 76.3433 327.401 77.3003C 327.084 78.2533 326.447 79.5313 326.447 80.4883C 326.447 81.4413 327.084 82.0813 328.358 82.3983C 329.631 82.7143 331.545 82.7143 333.139 80.4883C 334.733 78.2573 336.006 73.7923 337.283 69.9683C 338.557 66.1443 339.834 62.9563 341.428 60.0853C 343.022 57.2183 344.932 54.6673 346.846 53.7103C 348.756 52.7573 350.67 53.3943 352.264 53.7103C 353.858 54.0273 355.131 54.0273 356.408 54.3473C 357.682 54.6633 358.959 55.3003 361.826 56.8983C 364.694 58.4923 369.158 61.0423 372.666 61.6793C 376.174 62.3163 378.725 61.0423 380.635 60.0853C 382.545 59.1323 383.822 58.4923 384.459 56.2613C 385.096 54.0313 385.096 50.2033 383.186 47.0153C 381.276 43.8283 377.447 41.2773 370.752 40.3203C 364.057 39.3673 354.49 40.0033 351.94 37.7693"/>
<path style="stroke:#7e7e7e; stroke-width:0.95664899999999997; fill:none" d="M 396.584 17.6793L 396.584 67.4213"/>
<path style="stroke:none; fill-rule:evenodd; fill:#000000" d="M 362.022 130.953L 367.963 130.953L 367.963 129.656L 362.022 129.656L 362.022 125.359L 368.822 125.359L 368.822 124.062L 360.424 124.062L 360.424 136.66L 362.022 136.66L 362.022 130.953z"/>
<path style="stroke:none; fill-rule:evenodd; fill:#000000" d="M 370.522 127.613L 370.522 136.652L 372.022 136.652L 372.022 131.953C 372.022 130.656 372.338 129.812 373.014 129.308C 373.451 128.98 373.869 128.879 374.846 128.859L 374.846 127.414C 374.608 127.383 374.486 127.363 374.295 127.363C 373.362 127.363 372.654 127.914 371.822 129.258L 371.822 127.621L 370.522 127.613z"/>
<path style="stroke:none; fill-rule:evenodd; fill:#000000" d="M 383.822 132.652C 383.822 131.265 383.721 130.429 383.463 129.754C 382.885 128.262 381.514 127.359 379.834 127.359C 377.334 127.359 375.729 129.293 375.729 132.258C 375.729 135.222 377.291 137.054 379.819 137.054C 381.881 137.054 383.307 135.883 383.67 133.918L 382.229 133.918C 381.834 135.125 381.029 135.754 379.877 135.754C 378.967 135.754 378.194 135.344 377.713 134.586C 377.373 134.07 377.252 133.554 377.233 132.656L 383.822 132.652zM 377.244 131.453C 377.362 129.785 378.377 128.699 379.826 128.699C 381.236 128.699 382.322 129.867 382.322 131.347C 382.322 131.379 382.322 131.414 382.307 131.449L 377.244 131.453z"/>
<path style="stroke:none; fill-rule:evenodd; fill:#000000" d="M 393.424 132.652C 393.424 131.265 393.322 130.429 393.065 129.754C 392.486 128.262 391.115 127.359 389.436 127.359C 386.936 127.359 385.33 129.293 385.33 132.258C 385.33 135.222 386.893 137.054 389.42 137.054C 391.483 137.054 392.908 135.883 393.272 133.918L 391.83 133.918C 391.436 135.125 390.631 135.754 389.479 135.754C 388.569 135.754 387.795 135.344 387.315 134.586C 386.975 134.07 386.854 133.554 386.834 132.656L 393.424 132.652zM 386.842 131.453C 386.959 129.785 387.975 128.699 389.424 128.699C 390.834 128.699 391.92 129.867 391.92 131.347C 391.92 131.379 391.92 131.414 391.904 131.449L 386.842 131.453z"/>
<path style="stroke:none; fill-rule:evenodd; fill:#000000" d="M 401.822 127.652L 395.123 127.652L 395.123 128.949L 400.147 128.949L 394.826 135.367L 394.826 136.644L 402.123 136.644L 402.123 135.347L 396.498 135.347L 401.822 128.949L 401.822 127.652z"/>
<path style="stroke:none; fill-rule:evenodd; fill:#000000" d="M 405.424 127.652L 403.924 127.652L 403.924 136.652L 405.424 136.652L 405.424 127.652zM 405.424 124.054L 403.924 124.054L 403.924 125.906L 405.424 125.906L 405.424 124.054z"/>
<path style="stroke:none; fill-rule:evenodd; fill:#000000" d="M 407.822 127.613L 407.822 136.652L 409.322 136.652L 409.322 131.691C 409.322 129.855 410.26 128.656 411.705 128.656C 412.811 128.656 413.518 129.34 413.518 130.422L 413.518 136.652L 415.018 136.652L 415.018 129.824C 415.018 128.324 413.889 127.359 412.139 127.359C 410.787 127.359 409.92 127.875 409.123 129.133L 409.123 127.617L 407.822 127.613z"/>
<path style="stroke:none; fill-rule:evenodd; fill:#000000" d="M 423.322 127.652L 423.322 128.933C 422.6 127.855 421.721 127.351 420.565 127.351C 418.276 127.351 416.725 129.351 416.725 132.285C 416.725 133.765 417.119 134.976 417.865 135.84C 418.541 136.597 419.51 137.047 420.463 137.047C 421.604 137.047 422.401 136.566 423.217 135.426L 423.217 135.894C 423.217 137.133 423.061 137.883 422.697 138.387C 422.319 138.926 421.572 139.238 420.69 139.238C 420.033 139.238 419.444 139.062 419.045 138.742C 418.717 138.476 418.58 138.226 418.49 137.676L 417.018 137.676C 417.17 139.406 418.494 140.441 420.604 140.441C 421.94 140.441 423.092 140.012 423.674 139.289C 424.358 138.465 424.619 137.324 424.619 135.203L 424.619 127.648L 423.322 127.652zM 420.74 128.652C 422.299 128.652 423.221 129.972 423.221 132.254C 423.221 134.426 422.287 135.75 420.756 135.75C 419.178 135.75 418.225 134.41 418.225 132.203C 418.225 130.012 419.194 128.656 420.74 128.656L 420.74 128.652z"/>
<path style="stroke:none; fill-rule:evenodd; fill:#000000" d="M 436.623 125.355L 440.733 125.355L 440.733 124.058L 430.885 124.058L 430.885 125.355L 435.022 125.355L 435.022 136.652L 436.619 136.652L 436.623 125.355z"/>
<path style="stroke:none; fill-rule:evenodd; fill:#000000" d="M 449.924 132.652C 449.924 131.265 449.822 130.429 449.565 129.754C 448.986 128.262 447.615 127.359 445.936 127.359C 443.436 127.359 441.83 129.293 441.83 132.258C 441.83 135.222 443.393 137.054 445.92 137.054C 447.983 137.054 449.408 135.883 449.772 133.918L 448.33 133.918C 447.936 135.125 447.131 135.754 445.979 135.754C 445.069 135.754 444.295 135.344 443.815 134.586C 443.475 134.07 443.354 133.554 443.334 132.656L 449.924 132.652zM 443.342 131.453C 443.459 129.785 444.475 128.699 445.924 128.699C 447.334 128.699 448.42 129.867 448.42 131.347C 448.42 131.379 448.42 131.414 448.404 131.449L 443.342 131.453z"/>
<path style="stroke:none; fill-rule:evenodd; fill:#000000" d="M 458.162 130.144C 458.147 128.363 456.975 127.355 454.889 127.355C 452.787 127.355 451.424 128.445 451.424 130.125C 451.424 131.543 452.147 132.219 454.283 132.738L 455.627 133.066C 456.623 133.304 457.022 133.672 457.022 134.328C 457.022 135.176 456.178 135.746 454.924 135.746C 454.151 135.746 453.498 135.519 453.139 135.137C 452.916 134.875 452.815 134.613 452.729 133.965L 451.217 133.965C 451.283 136.051 452.455 137.051 454.811 137.051C 457.08 137.051 458.526 135.926 458.526 134.176C 458.526 132.828 457.768 132.082 455.979 131.648L 454.604 131.32C 453.436 131.047 452.936 130.664 452.936 130.023C 452.936 129.195 453.674 128.656 454.846 128.656C 455.998 128.656 456.619 129.168 456.654 130.144L 458.162 130.144z"/>
<path style="stroke:none; fill-rule:evenodd; fill:#000000" d="M 463.721 127.652L 462.225 127.652L 462.225 125.152L 460.725 125.152L 460.725 127.652L 459.627 127.652L 459.627 128.851L 460.725 128.851L 460.725 135.629C 460.725 136.535 461.362 137.047 462.514 137.047C 462.865 137.047 463.221 137.015 463.717 136.929L 463.717 135.722C 463.526 135.742 463.299 135.75 463.022 135.75C 462.397 135.75 462.221 135.582 462.221 134.953L 462.221 128.855L 463.717 128.855L 463.721 127.652z"/>
<path style="stroke:#7e7e7e; stroke-dasharray:6,3; stroke-width:1.9133; fill:none" d="M 166.99 10.0273L 166.99 140.129"/>
<path style="stroke:#7e7e7e; stroke-dasharray:6,3; stroke-width:1.9133; fill:none" d="M 320.053 10.0273L 320.053 140.129"/>
<path style="stroke:none; fill-rule:evenodd; fill:#ffffff" d="M 380.322 98.9919C 380.322 98.9919 380.322 98.9919 381.994 98.0388C 383.666 97.0857 387.014 95.1716 390.283 92.6208C 393.549 90.0703 396.736 86.8823 401.842 84.8083C 406.944 82.7383 413.959 81.7813 419.858 82.3393C 425.756 82.8943 430.537 84.9683 434.205 87.7573C 437.869 90.5466 440.42 94.0544 442.334 95.8865C 444.244 97.7185 445.522 97.8786 448.631 96.4411C 451.736 95.0075 456.682 91.9802 459.869 88.3123C 463.057 84.6483 464.49 80.3433 466.963 75.7963C 469.432 71.2533 472.94 66.4723 474.533 65.0353C 476.127 63.6013 475.807 65.5113 474.533 68.1403C 473.26 70.7693 471.029 74.1173 469.033 77.8633C 467.041 81.6093 465.287 85.7533 462.42 89.4213C 459.553 93.0857 455.565 96.2771 452.217 98.3474C 448.869 100.418 446.158 101.375 443.768 102.172C 441.377 102.969 439.307 103.605 433.643 104.164C 427.986 104.719 418.736 105.199 411.084 105.359C 403.432 105.515 397.373 105.359 392.354 104.246C 387.334 103.132 383.346 101.058 381.354 100.023C 379.362 98.988 379.362 98.988 379.362 98.988"/>
<path style="stroke:#000000; stroke-width:0.95664899999999997; fill:none" d="M 380.322 98.9919C 380.322 98.9919 380.322 98.9919 381.994 98.0388C 383.666 97.0857 387.014 95.1716 390.283 92.6208C 393.549 90.0703 396.736 86.8823 401.842 84.8083C 406.944 82.7383 413.959 81.7813 419.858 82.3393C 425.756 82.8943 430.537 84.9683 434.205 87.7573C 437.869 90.5466 440.42 94.0544 442.334 95.8865C 444.244 97.7185 445.522 97.8786 448.631 96.4411C 451.736 95.0075 456.682 91.9802 459.869 88.3123C 463.057 84.6483 464.49 80.3433 466.963 75.7963C 469.432 71.2533 472.94 66.4723 474.533 65.0353C 476.127 63.6013 475.807 65.5113 474.533 68.1403C 473.26 70.7693 471.029 74.1173 469.033 77.8633C 467.041 81.6093 465.287 85.7533 462.42 89.4213C 459.553 93.0857 455.565 96.2771 452.217 98.3474C 448.869 100.418 446.158 101.375 443.768 102.172C 441.377 102.969 439.307 103.605 433.643 104.164C 427.986 104.719 418.736 105.199 411.084 105.359C 403.432 105.515 397.373 105.359 392.354 104.246C 387.334 103.132 383.346 101.058 381.354 100.023C 379.362 98.988 379.362 98.988 379.362 98.988"/>
<path style="stroke:none; fill-rule:evenodd; fill:#ffffff" d="M 393.236 94.6872C 393.236 94.1599 392.811 93.7341 392.283 93.7341C 391.756 93.7341 391.33 94.1599 391.33 94.6872C 391.33 95.2146 391.756 95.6404 392.283 95.6404C 392.811 95.6404 393.236 95.2146 393.236 94.6872"/>
<path style="stroke:#000000; stroke-width:0.95664899999999997; fill:none" d="M 393.236 94.6872C 393.236 94.1599 392.811 93.7341 392.283 93.7341C 391.756 93.7341 391.33 94.1599 391.33 94.6872C 391.33 95.2146 391.756 95.6404 392.283 95.6404C 392.811 95.6404 393.236 95.2146 393.236 94.6872"/>
<path style="stroke:none; fill-rule:evenodd; fill:#ffffff" d="M 387.498 103.297C 387.498 103.297 387.498 103.297 388.053 102.66C 388.608 102.023 389.725 100.75 391.401 100.512C 393.072 100.273 395.303 101.066 396.42 101.465C 397.533 101.859 397.533 101.859 397.533 101.859"/>
<path style="stroke:#000000; stroke-width:0.95664899999999997; fill:none" d="M 387.498 103.297C 387.498 103.297 387.498 103.297 388.053 102.66C 388.608 102.023 389.725 100.75 391.401 100.512C 393.072 100.273 395.303 101.066 396.42 101.465C 397.533 101.859 397.533 101.859 397.533 101.859"/>
<path style="stroke:none; fill-rule:evenodd; fill:#ffffff" d="M 374.584 98.5154C 374.584 98.5154 374.584 98.5154 376.256 97.5622C 377.928 96.6091 381.276 94.6951 384.545 92.1443C 387.811 89.5933 390.998 86.4063 396.104 84.3313C 401.205 82.2613 408.221 81.3043 414.119 81.8633C 420.018 82.4173 424.799 84.4923 428.467 87.2813C 432.131 90.0703 434.682 93.5779 436.596 95.4099C 438.506 97.2419 439.783 97.4021 442.893 95.9646C 445.998 94.531 450.944 91.5036 454.131 87.8353C 457.319 84.1713 458.752 79.8673 461.225 75.3203C 463.694 70.7773 467.201 65.9963 468.795 64.5583C 470.389 63.1243 470.069 65.0353 468.795 67.6633C 467.522 70.2923 465.291 73.6403 463.295 77.3863C 461.303 81.1323 459.549 85.2773 456.682 88.9453C 453.815 92.6091 449.826 95.8005 446.479 97.8708C 443.131 99.9411 440.42 100.898 438.029 101.695C 435.639 102.492 433.569 103.129 427.904 103.687C 422.248 104.242 412.998 104.722 405.346 104.882C 397.694 105.039 391.635 104.882 386.615 103.769C 381.596 102.656 377.608 100.582 375.615 99.5466C 373.623 98.5115 373.623 98.5115 373.623 98.5115"/>
<path style="stroke:#000000; stroke-width:0.95664899999999997; fill:none" d="M 374.584 98.5154C 374.584 98.5154 374.584 98.5154 376.256 97.5622C 377.928 96.6091 381.276 94.6951 384.545 92.1443C 387.811 89.5933 390.998 86.4063 396.104 84.3313C 401.205 82.2613 408.221 81.3043 414.119 81.8633C 420.018 82.4173 424.799 84.4923 428.467 87.2813C 432.131 90.0703 434.682 93.5779 436.596 95.4099C 438.506 97.2419 439.783 97.4021 442.893 95.9646C 445.998 94.531 450.944 91.5036 454.131 87.8353C 457.319 84.1713 458.752 79.8673 461.225 75.3203C 463.694 70.7773 467.201 65.9963 468.795 64.5583C 470.389 63.1243 470.069 65.0353 468.795 67.6633C 467.522 70.2923 465.291 73.6403 463.295 77.3863C 461.303 81.1323 459.549 85.2773 456.682 88.9453C 453.815 92.6091 449.826 95.8005 446.479 97.8708C 443.131 99.9411 440.42 100.898 438.029 101.695C 435.639 102.492 433.569 103.129 427.904 103.687C 422.248 104.242 412.998 104.722 405.346 104.882C 397.694 105.039 391.635 104.882 386.615 103.769C 381.596 102.656 377.608 100.582 375.615 99.5466C 373.623 98.5115 373.623 98.5115 373.623 98.5115"/>
<path style="stroke:none; fill-rule:evenodd; fill:#ffffff" d="M 387.498 94.2107C 387.498 93.6833 387.072 93.2575 386.545 93.2575C 386.018 93.2575 385.592 93.6833 385.592 94.2107C 385.592 94.738 386.018 95.1638 386.545 95.1638C 387.072 95.1638 387.498 94.738 387.498 94.2107"/>
<path style="stroke:#000000; stroke-width:0.95664899999999997; fill:none" d="M 387.498 94.2107C 387.498 93.6833 387.072 93.2575 386.545 93.2575C 386.018 93.2575 385.592 93.6833 385.592 94.2107C 385.592 94.738 386.018 95.1638 386.545 95.1638C 387.072 95.1638 387.498 94.738 387.498 94.2107"/>
<path style="stroke:none; fill-rule:evenodd; fill:#ffffff" d="M 381.76 102.82C 381.76 102.82 381.76 102.82 382.315 102.183C 382.869 101.547 383.986 100.273 385.662 100.035C 387.334 99.7966 389.565 100.59 390.682 100.988C 391.795 101.382 391.795 101.382 391.795 101.382"/>
<path style="stroke:#000000; stroke-width:0.95664899999999997; fill:none" d="M 381.76 102.82C 381.76 102.82 381.76 102.82 382.315 102.183C 382.869 101.547 383.986 100.273 385.662 100.035C 387.334 99.7966 389.565 100.59 390.682 100.988C 391.795 101.382 391.795 101.382 391.795 101.382"/>
<path style="stroke:none; fill-rule:evenodd; fill:#ffffff" d="M 376.975 98.5154C 376.975 98.5154 376.975 98.5154 378.647 97.5622C 380.319 96.6091 383.666 94.6951 386.936 92.1443C 390.201 89.5933 393.389 86.4063 398.494 84.3313C 403.596 82.2613 410.612 81.3043 416.51 81.8633C 422.408 82.4173 427.19 84.4923 430.858 87.2813C 434.522 90.0703 437.072 93.5779 438.986 95.4099C 440.897 97.2419 442.174 97.4021 445.283 95.9646C 448.389 94.531 453.334 91.5036 456.522 87.8353C 459.709 84.1713 461.143 79.8673 463.615 75.3203C 466.084 70.7773 469.592 65.9963 471.186 64.5583C 472.779 63.1243 472.459 65.0353 471.186 67.6633C 469.912 70.2923 467.682 73.6403 465.686 77.3863C 463.694 81.1323 461.94 85.2773 459.072 88.9453C 456.205 92.6091 452.217 95.8005 448.869 97.8708C 445.522 99.9411 442.811 100.898 440.42 101.695C 438.029 102.492 435.959 103.129 430.295 103.687C 424.639 104.242 415.389 104.722 407.736 104.882C 400.084 105.039 394.026 104.882 389.006 103.769C 383.986 102.656 379.998 100.582 378.006 99.5466C 376.014 98.5115 376.014 98.5115 376.014 98.5115"/>
<path style="stroke:#000000; stroke-width:0.95664899999999997; fill:none" d="M 376.975 98.5154C 376.975 98.5154 376.975 98.5154 378.647 97.5622C 380.319 96.6091 383.666 94.6951 386.936 92.1443C 390.201 89.5933 393.389 86.4063 398.494 84.3313C 403.596 82.2613 410.612 81.3043 416.51 81.8633C 422.408 82.4173 427.19 84.4923 430.858 87.2813C 434.522 90.0703 437.072 93.5779 438.986 95.4099C 440.897 97.2419 442.174 97.4021 445.283 95.9646C 448.389 94.531 453.334 91.5036 456.522 87.8353C 459.709 84.1713 461.143 79.8673 463.615 75.3203C 466.084 70.7773 469.592 65.9963 471.186 64.5583C 472.779 63.1243 472.459 65.0353 471.186 67.6633C 469.912 70.2923 467.682 73.6403 465.686 77.3863C 463.694 81.1323 461.94 85.2773 459.072 88.9453C 456.205 92.6091 452.217 95.8005 448.869 97.8708C 445.522 99.9411 442.811 100.898 440.42 101.695C 438.029 102.492 435.959 103.129 430.295 103.687C 424.639 104.242 415.389 104.722 407.736 104.882C 400.084 105.039 394.026 104.882 389.006 103.769C 383.986 102.656 379.998 100.582 378.006 99.5466C 376.014 98.5115 376.014 98.5115 376.014 98.5115"/>
<path style="stroke:none; fill-rule:evenodd; fill:#ffffff" d="M 389.889 94.2107C 389.889 93.6833 389.463 93.2575 388.936 93.2575C 388.408 93.2575 387.983 93.6833 387.983 94.2107C 387.983 94.738 388.408 95.1638 388.936 95.1638C 389.463 95.1638 389.889 94.738 389.889 94.2107"/>
<path style="stroke:#000000; stroke-width:0.95664899999999997; fill:none" d="M 389.889 94.2107C 389.889 93.6833 389.463 93.2575 388.936 93.2575C 388.408 93.2575 387.983 93.6833 387.983 94.2107C 387.983 94.738 388.408 95.1638 388.936 95.1638C 389.463 95.1638 389.889 94.738 389.889 94.2107"/>
<path style="stroke:none; fill-rule:evenodd; fill:#ffffff" d="M 384.151 102.82C 384.151 102.82 384.151 102.82 384.705 102.183C 385.26 101.547 386.377 100.273 388.053 100.035C 389.725 99.7966 391.955 100.59 393.072 100.988C 394.186 101.382 394.186 101.382 394.186 101.382"/>
<path style="stroke:#000000; stroke-width:0.95664899999999997; fill:none" d="M 384.151 102.82C 384.151 102.82 384.151 102.82 384.705 102.183C 385.26 101.547 386.377 100.273 388.053 100.035C 389.725 99.7966 391.955 100.59 393.072 100.988C 394.186 101.382 394.186 101.382 394.186 101.382"/>
<path style="stroke:#000000; stroke-width:0.95664899999999997; fill:none" d="M 394.194 86.0783L 391.803 82.7303"/>
<path style="stroke:#000000; stroke-width:0.95664899999999997; fill:none" d="M 402.803 84.6443L 403.279 78.9063"/>
<path style="stroke:#000000; stroke-width:0.95664899999999997; fill:none" d="M 413.326 84.1633L 414.279 80.3393"/>
<path style="stroke:#000000; stroke-width:0.95664899999999997; fill:none" d="M 420.026 86.0783L 422.893 79.3823"/>
<path style="stroke:#000000; stroke-width:0.95664899999999997; fill:none" d="M 426.721 87.5113L 431.983 83.2063"/>
<path style="stroke:#000000; stroke-width:0.95664899999999997; fill:none" d="M 431.983 91.3396L 438.678 86.5583"/>
<path style="stroke:#000000; stroke-width:0.95664899999999997; fill:none" d="M 54.584 93.7341C 54.584 93.2068 54.1582 92.781 53.6308 92.781C 53.1035 92.781 52.6777 93.2068 52.6777 93.7341C 52.6777 94.2615 53.1035 94.6872 53.6308 94.6872C 54.1582 94.6872 54.584 94.2615 54.584 93.7341"/>
<path style="stroke:#000000; stroke-width:0.95664899999999997; fill:none" d="M 47.8886 101.863C 47.8886 101.863 47.8886 101.863 49.0019 101.707C 50.1152 101.551 52.3496 101.23 53.9433 100.355C 55.5371 99.4802 56.4941 98.0466 56.9707 97.3279C 57.4472 96.613 57.4472 96.613 57.4472 96.613"/>
<path style="stroke:#000000; stroke-width:0.95664899999999997; fill:none" d="M 41.6699 98.0388C 41.6699 98.0388 41.6699 98.0388 43.3418 97.0857C 45.0136 96.1325 48.3613 94.2185 51.6308 91.6677C 54.8965 89.1173 58.084 85.9293 63.1894 83.8553C 68.291 81.7853 75.3066 80.8283 81.2048 81.3863C 87.1039 81.9413 91.8848 84.0153 95.5528 86.8043C 99.2168 89.5933 101.768 93.1013 103.682 94.9333C 105.592 96.7654 106.869 96.9255 110.854 97.8825C 114.838 98.8357 121.533 100.594 127.354 101.07C 133.17 101.547 138.115 100.754 140.904 98.6013C 143.694 96.4529 144.33 92.9451 147.44 91.2693C 150.545 89.5973 156.127 89.7573 158.916 90.6325C 161.705 91.5075 161.705 93.1013 159.869 93.4997C 158.037 93.8943 154.369 93.1052 151.658 93.1833C 148.947 93.2615 147.197 94.2185 145.842 96.449C 144.49 98.6794 143.533 102.187 137.951 103.304C 132.373 104.418 122.17 103.148 114.834 102.75C 107.502 102.351 103.037 102.828 96.1819 103.304C 89.3259 103.781 80.08 104.257 72.4277 104.418C 64.7755 104.574 58.7168 104.418 53.6972 103.304C 48.6777 102.191 44.6894 100.117 42.6972 99.0818C 40.705 98.0466 40.705 98.0466 40.705 98.0466"/>
<path style="stroke:none; fill-rule:evenodd; fill:#ffffff" d="M 66.0645 100.429C 66.0645 100.429 66.0645 100.429 65.2677 101.781C 64.4707 103.132 62.8769 105.844 61.1231 107.757C 59.3691 109.668 57.459 110.785 57.1386 111.66C 56.8222 112.535 58.0918 113.172 59.6894 112.695C 61.2832 112.219 63.1972 110.625 64.8691 108.312C 66.541 106.004 67.9746 102.972 68.6933 101.457C 69.4082 99.9451 69.4082 99.9451 69.4082 99.9451"/>
<path style="stroke:#000000; stroke-width:0.95664899999999997; fill:none" d="M 66.0645 100.429C 66.0645 100.429 66.0645 100.429 65.2677 101.781C 64.4707 103.132 62.8769 105.844 61.1231 107.757C 59.3691 109.668 57.459 110.785 57.1386 111.66C 56.8222 112.535 58.0918 113.172 59.6894 112.695C 61.2832 112.219 63.1972 110.625 64.8691 108.312C 66.541 106.004 67.9746 102.972 68.6933 101.457C 69.4082 99.9451 69.4082 99.9451 69.4082 99.9451"/>
<path style="stroke:none; fill-rule:evenodd; fill:#ffffff" d="M 91.8929 98.9919C 91.8929 98.9919 91.8929 98.9919 92.6898 100.344C 93.4858 101.695 95.0798 104.406 96.8338 106.32C 98.5878 108.23 100.498 109.347 100.819 110.222C 101.135 111.097 99.8649 111.734 98.2679 111.257C 96.6738 110.781 94.7598 109.187 93.0878 106.875C 91.4158 104.566 89.9828 101.535 89.2638 100.019C 88.5488 98.5075 88.5488 98.5075 88.5488 98.5075"/>
<path style="stroke:#000000; stroke-width:0.95664899999999997; fill:none" d="M 91.8929 98.9919C 91.8929 98.9919 91.8929 98.9919 92.6898 100.344C 93.4858 101.695 95.0798 104.406 96.8338 106.32C 98.5878 108.23 100.498 109.347 100.819 110.222C 101.135 111.097 99.8649 111.734 98.2679 111.257C 96.6738 110.781 94.7598 109.187 93.0878 106.875C 91.4158 104.566 89.9828 101.535 89.2638 100.019C 88.5488 98.5075 88.5488 98.5075 88.5488 98.5075"/>
<path style="stroke:none; fill-rule:evenodd; fill:#ffffff" d="M 400.412 101.387C 400.412 101.387 400.412 101.387 399.615 102.738C 398.819 104.09 397.225 106.801 395.471 108.715C 393.717 110.625 391.807 111.742 391.486 112.617C 391.17 113.492 392.44 114.129 394.037 113.652C 395.631 113.176 397.545 111.582 399.217 109.269C 400.889 106.961 402.322 103.929 403.041 102.414C 403.756 100.902 403.756 100.902 403.756 100.902"/>
<path style="stroke:#000000; stroke-width:0.95664899999999997; fill:none" d="M 400.412 101.387C 400.412 101.387 400.412 101.387 399.615 102.738C 398.819 104.09 397.225 106.801 395.471 108.715C 393.717 110.625 391.807 111.742 391.486 112.617C 391.17 113.492 392.44 114.129 394.037 113.652C 395.631 113.176 397.545 111.582 399.217 109.269C 400.889 106.961 402.322 103.929 403.041 102.414C 403.756 100.902 403.756 100.902 403.756 100.902"/>
<path style="stroke:none; fill-rule:evenodd; fill:#ffffff" d="M 426.24 99.949C 426.24 99.949 426.24 99.949 427.037 101.301C 427.834 102.652 429.428 105.363 431.182 107.277C 432.936 109.187 434.846 110.304 435.166 111.179C 435.483 112.054 434.213 112.691 432.615 112.215C 431.022 111.738 429.108 110.144 427.436 107.832C 425.764 105.523 424.33 102.492 423.612 100.976C 422.897 99.4646 422.897 99.4646 422.897 99.4646"/>
<path style="stroke:#000000; stroke-width:0.95664899999999997; fill:none" d="M 426.24 99.949C 426.24 99.949 426.24 99.949 427.037 101.301C 427.834 102.652 429.428 105.363 431.182 107.277C 432.936 109.187 434.846 110.304 435.166 111.179C 435.483 112.054 434.213 112.691 432.615 112.215C 431.022 111.738 429.108 110.144 427.436 107.832C 425.764 105.523 424.33 102.492 423.612 100.976C 422.897 99.4646 422.897 99.4646 422.897 99.4646"/>
<path style="stroke:#000000; stroke-width:0.95664899999999997; fill:none" d="M 235.389 86.0783L 232.998 82.7303"/>
<path style="stroke:#000000; stroke-width:0.95664899999999997; fill:none" d="M 243.998 84.6443L 244.475 78.9063"/>
<path style="stroke:#000000; stroke-width:0.95664899999999997; fill:none" d="M 254.522 84.1633L 255.475 80.3393"/>
<path style="stroke:#000000; stroke-width:0.95664899999999997; fill:none" d="M 261.221 86.0783L 264.088 79.3823"/>
<path style="stroke:#000000; stroke-width:0.95664899999999997; fill:none" d="M 267.916 87.5113L 273.178 83.2063"/>
<path style="stroke:#000000; stroke-width:0.95664899999999997; fill:none" d="M 273.178 91.3396L 279.873 86.5583"/>
<path style="stroke:none; fill-rule:evenodd; fill:#ffffff" d="M 218.17 98.5154C 218.17 98.5154 218.17 98.5154 219.842 97.5622C 221.514 96.6091 224.862 94.6951 228.131 92.1443C 231.397 89.5933 234.584 86.4063 239.69 84.3313C 244.791 82.2613 251.807 81.3043 257.705 81.8633C 263.604 82.4173 268.385 84.4923 272.053 87.2813C 275.717 90.0703 278.268 93.5779 280.182 95.4099C 282.092 97.2419 283.369 97.4021 286.479 95.9646C 289.584 94.531 294.529 91.5036 297.717 87.8353C 300.904 84.1713 302.338 79.8673 304.811 75.3203C 307.279 70.7773 310.787 65.9963 312.381 64.5583C 313.975 63.1243 313.654 65.0353 312.381 67.6633C 311.108 70.2923 308.877 73.6403 306.881 77.3863C 304.889 81.1323 303.135 85.2773 300.268 88.9453C 297.401 92.6091 293.412 95.8005 290.065 97.8708C 286.717 99.9411 284.006 100.898 281.615 101.695C 279.225 102.492 277.154 103.129 271.49 103.687C 265.834 104.242 256.584 104.722 248.932 104.882C 241.279 105.039 235.221 104.882 230.201 103.769C 225.182 102.656 221.194 100.582 219.201 99.5466C 217.209 98.5115 217.209 98.5115 217.209 98.5115"/>
<path style="stroke:#000000; stroke-width:0.95664899999999997; fill:none" d="M 218.17 98.5154C 218.17 98.5154 218.17 98.5154 219.842 97.5622C 221.514 96.6091 224.862 94.6951 228.131 92.1443C 231.397 89.5933 234.584 86.4063 239.69 84.3313C 244.791 82.2613 251.807 81.3043 257.705 81.8633C 263.604 82.4173 268.385 84.4923 272.053 87.2813C 275.717 90.0703 278.268 93.5779 280.182 95.4099C 282.092 97.2419 283.369 97.4021 286.479 95.9646C 289.584 94.531 294.529 91.5036 297.717 87.8353C 300.904 84.1713 302.338 79.8673 304.811 75.3203C 307.279 70.7773 310.787 65.9963 312.381 64.5583C 313.975 63.1243 313.654 65.0353 312.381 67.6633C 311.108 70.2923 308.877 73.6403 306.881 77.3863C 304.889 81.1323 303.135 85.2773 300.268 88.9453C 297.401 92.6091 293.412 95.8005 290.065 97.8708C 286.717 99.9411 284.006 100.898 281.615 101.695C 279.225 102.492 277.154 103.129 271.49 103.687C 265.834 104.242 256.584 104.722 248.932 104.882C 241.279 105.039 235.221 104.882 230.201 103.769C 225.182 102.656 221.194 100.582 219.201 99.5466C 217.209 98.5115 217.209 98.5115 217.209 98.5115"/>
<path style="stroke:none; fill-rule:evenodd; fill:#ffffff" d="M 231.084 94.2107C 231.084 93.6833 230.658 93.2575 230.131 93.2575C 229.604 93.2575 229.178 93.6833 229.178 94.2107C 229.178 94.738 229.604 95.1638 230.131 95.1638C 230.658 95.1638 231.084 94.738 231.084 94.2107"/>
<path style="stroke:#000000; stroke-width:0.95664899999999997; fill:none" d="M 231.084 94.2107C 231.084 93.6833 230.658 93.2575 230.131 93.2575C 229.604 93.2575 229.178 93.6833 229.178 94.2107C 229.178 94.738 229.604 95.1638 230.131 95.1638C 230.658 95.1638 231.084 94.738 231.084 94.2107"/>
<path style="stroke:none; fill-rule:evenodd; fill:#ffffff" d="M 225.346 102.82C 225.346 102.82 225.346 102.82 225.901 102.183C 226.455 101.547 227.572 100.273 229.248 100.035C 230.92 99.7966 233.151 100.59 234.268 100.988C 235.381 101.382 235.381 101.382 235.381 101.382"/>
<path style="stroke:#000000; stroke-width:0.95664899999999997; fill:none" d="M 225.346 102.82C 225.346 102.82 225.346 102.82 225.901 102.183C 226.455 101.547 227.572 100.273 229.248 100.035C 230.92 99.7966 233.151 100.59 234.268 100.988C 235.381 101.382 235.381 101.382 235.381 101.382"/>
<path style="stroke:none; fill-rule:evenodd; fill:#ffffff" d="M 268.397 98.9919C 268.397 98.9919 268.397 98.9919 269.194 100.344C 269.99 101.695 271.584 104.406 273.338 106.32C 275.092 108.23 277.002 109.347 277.322 110.222C 277.639 111.097 276.369 111.734 274.772 111.257C 273.178 110.781 271.264 109.187 269.592 106.875C 267.92 104.566 266.486 101.535 265.768 100.019C 265.053 98.5075 265.053 98.5075 265.053 98.5075"/>
<path style="stroke:#000000; stroke-width:0.95664899999999997; fill:none" d="M 268.397 98.9919C 268.397 98.9919 268.397 98.9919 269.194 100.344C 269.99 101.695 271.584 104.406 273.338 106.32C 275.092 108.23 277.002 109.347 277.322 110.222C 277.639 111.097 276.369 111.734 274.772 111.257C 273.178 110.781 271.264 109.187 269.592 106.875C 267.92 104.566 266.486 101.535 265.768 100.019C 265.053 98.5075 265.053 98.5075 265.053 98.5075"/>
<path style="stroke:none; fill-rule:evenodd; fill:#ffffff" d="M 243.522 100.906C 243.522 100.906 243.522 100.906 242.725 102.257C 241.928 103.609 240.334 106.32 238.58 108.234C 236.826 110.144 234.916 111.262 234.596 112.137C 234.279 113.012 235.549 113.648 237.147 113.172C 238.74 112.695 240.654 111.101 242.326 108.789C 243.998 106.48 245.432 103.449 246.151 101.933C 246.865 100.422 246.865 100.422 246.865 100.422"/>
<path style="stroke:#000000; stroke-width:0.95664899999999997; fill:none" d="M 243.522 100.906C 243.522 100.906 243.522 100.906 242.725 102.257C 241.928 103.609 240.334 106.32 238.58 108.234C 236.826 110.144 234.916 111.262 234.596 112.137C 234.279 113.012 235.549 113.648 237.147 113.172C 238.74 112.695 240.654 111.101 242.326 108.789C 243.998 106.48 245.432 103.449 246.151 101.933C 246.865 100.422 246.865 100.422 246.865 100.422"/>
<path style="stroke:none; fill-rule:evenodd; fill:#ffffff" d="M 258.947 97.0818L 253.928 107.844L 257.033 108.558L 253.447 121.23L 260.858 105.687L 256.795 105.687L 258.944 96.8396"/>
<path style="stroke:#000000; stroke-width:0.95664899999999997; fill:none" d="M 258.947 97.0818L 253.928 107.844L 257.033 108.558L 253.447 121.23L 260.858 105.687L 256.795 105.687L 258.944 96.8396"/>
<path style="stroke:none; fill-rule:evenodd; fill:#ffffff" d="M 243.643 97.0818L 238.623 107.844L 241.729 108.558L 238.143 121.23L 245.553 105.687L 241.49 105.687L 243.639 96.8396"/>
<path style="stroke:#000000; stroke-width:0.95664899999999997; fill:none" d="M 243.643 97.0818L 238.623 107.844L 241.729 108.558L 238.143 121.23L 245.553 105.687L 241.49 105.687L 243.639 96.8396"/>
<path style="stroke:none; fill-rule:evenodd; fill:#ffffff" d="M 273.299 95.6443L 268.279 106.406L 271.385 107.121L 267.799 119.793L 275.209 104.25L 271.147 104.25L 273.295 95.4021"/>
<path style="stroke:#000000; stroke-width:0.95664899999999997; fill:none" d="M 273.299 95.6443L 268.279 106.406L 271.385 107.121L 267.799 119.793L 275.209 104.25L 271.147 104.25L 273.295 95.4021"/>
<path style="stroke:none; fill-rule:evenodd; fill:#000000" d="M 36.7207 131.351L 40.6308 131.351C 41.6035 131.351 42.373 131.058 43.0371 130.449C 43.7871 129.758 44.1113 128.937 44.1113 127.773C 44.1113 125.394 42.7285 124.054 40.2636 124.054L 35.1152 124.054L 35.1152 136.652L 36.7129 136.652L 36.7207 131.351zM 36.7207 130.054L 36.7207 125.359L 40.0097 125.359C 41.5176 125.359 42.416 126.238 42.416 127.707C 42.416 129.172 41.5176 130.054 40.0097 130.054L 36.7207 130.054z"/>
<path style="stroke:none; fill-rule:evenodd; fill:#000000" d="M 46.2207 127.613L 46.2207 136.652L 47.7207 136.652L 47.7207 131.953C 47.7207 130.656 48.0371 129.812 48.7129 129.308C 49.1504 128.98 49.5683 128.879 50.5449 128.859L 50.5449 127.414C 50.3066 127.383 50.1856 127.363 49.9941 127.363C 49.0606 127.363 48.3535 127.914 47.5215 129.258L 47.5215 127.621L 46.2207 127.613z"/>
<path style="stroke:none; fill-rule:evenodd; fill:#000000" d="M 59.5215 132.652C 59.5215 131.265 59.4199 130.429 59.1621 129.754C 58.584 128.262 57.2129 127.359 55.5332 127.359C 53.0332 127.359 51.4277 129.293 51.4277 132.258C 51.4277 135.222 52.9902 137.054 55.5177 137.054C 57.58 137.054 59.0058 135.883 59.3691 133.918L 57.9277 133.918C 57.5332 135.125 56.7285 135.754 55.5761 135.754C 54.666 135.754 53.8927 135.344 53.4121 134.586C 53.0722 134.07 52.9511 133.554 52.9316 132.656L 59.5215 132.652zM 52.9433 131.453C 53.0606 129.785 54.0761 128.699 55.5254 128.699C 56.9356 128.699 58.0215 129.867 58.0215 131.347C 58.0215 131.379 58.0215 131.414 58.0058 131.449L 52.9433 131.453z"/>
<path style="stroke:none; fill-rule:evenodd; fill:#000000" d="M 69.123 132.652C 69.123 131.265 69.0215 130.429 68.7636 129.754C 68.1855 128.262 66.8145 127.359 65.1348 127.359C 62.6347 127.359 61.0293 129.293 61.0293 132.258C 61.0293 135.222 62.5918 137.054 65.1191 137.054C 67.1816 137.054 68.6075 135.883 68.9707 133.918L 67.5293 133.918C 67.1348 135.125 66.33 135.754 65.1777 135.754C 64.2677 135.754 63.4941 135.344 63.0136 134.586C 62.6738 134.07 62.5527 133.554 62.5332 132.656L 69.123 132.652zM 62.541 131.453C 62.6582 129.785 63.6738 128.699 65.123 128.699C 66.5332 128.699 67.6191 129.867 67.6191 131.347C 67.6191 131.379 67.6191 131.414 67.6035 131.449L 62.541 131.453z"/>
<path style="stroke:none; fill-rule:evenodd; fill:#000000" d="M 74.9511 132L 77.9785 127.656L 76.3613 127.656L 74.1933 130.902L 72.0255 127.656L 70.3927 127.656L 73.4043 132.066L 70.2207 136.648L 71.8535 136.648L 74.1427 133.187L 76.3965 136.648L 78.0645 136.648L 74.9511 132z"/>
<path style="stroke:none; fill-rule:evenodd; fill:#000000" d="M 79.4238 140.406L 80.9238 140.406L 80.9238 135.754C 81.6778 136.652 82.5179 137.051 83.6819 137.051C 85.9939 137.051 87.5219 135.172 87.5219 132.289C 87.5219 129.254 86.0329 127.355 83.6189 127.355C 82.3888 127.355 81.4008 127.906 80.7246 128.976L 80.7246 127.617L 79.4277 127.617L 79.4238 140.406zM 83.4198 128.652C 84.9899 128.652 86.0219 130.07 86.0219 132.254C 86.0219 134.332 84.9789 135.75 83.4198 135.75C 81.9158 135.75 80.9238 134.351 80.9238 132.203C 80.9238 130.054 81.9118 128.652 83.4198 128.652z"/>
<path style="stroke:none; fill-rule:evenodd; fill:#000000" d="M 92.8028 127.351C 90.2598 127.351 88.7208 129.164 88.7208 132.199C 88.7208 135.234 90.2399 137.047 92.8188 137.047C 95.3618 137.047 96.9158 135.238 96.9158 132.269C 96.9158 129.148 95.4118 127.351 92.7988 127.351L 92.8028 127.351zM 92.8219 128.652C 94.4509 128.652 95.4198 129.992 95.4198 132.254C 95.4198 134.39 94.4158 135.75 92.8219 135.75C 91.2128 135.75 90.2249 134.41 90.2249 132.203C 90.2249 130.012 91.2088 128.656 92.8219 128.656L 92.8219 128.652z"/>
<path style="stroke:none; fill-rule:evenodd; fill:#000000" d="M 105.162 130.144C 105.147 128.363 103.975 127.355 101.889 127.355C 99.7868 127.355 98.4238 128.445 98.4238 130.125C 98.4238 131.543 99.1469 132.219 101.283 132.738L 102.627 133.066C 103.623 133.304 104.022 133.672 104.022 134.328C 104.022 135.176 103.178 135.746 101.924 135.746C 101.151 135.746 100.498 135.519 100.139 135.137C 99.9158 134.875 99.8148 134.613 99.7289 133.965L 98.2168 133.965C 98.2829 136.051 99.4548 137.051 101.811 137.051C 104.08 137.051 105.526 135.926 105.526 134.176C 105.526 132.828 104.768 132.082 102.979 131.648L 101.604 131.32C 100.436 131.047 99.9359 130.664 99.9359 130.023C 99.9359 129.195 100.674 128.656 101.846 128.656C 102.998 128.656 103.619 129.168 103.654 130.144L 105.162 130.144z"/>
<path style="stroke:none; fill-rule:evenodd; fill:#000000" d="M 114.522 136.66L 114.522 127.656L 113.022 127.656L 113.022 132.73C 113.022 134.554 112.088 135.754 110.631 135.754C 109.529 135.754 108.826 135.07 108.826 133.996L 108.826 127.656L 107.326 127.656L 107.326 134.597C 107.326 136.09 108.444 137.051 110.205 137.051C 111.529 137.051 112.377 136.59 113.225 135.402L 113.225 136.656L 114.522 136.66z"/>
<path style="stroke:none; fill-rule:evenodd; fill:#000000" d="M 117.022 127.613L 117.022 136.652L 118.522 136.652L 118.522 131.953C 118.522 130.656 118.838 129.812 119.514 129.308C 119.951 128.98 120.369 128.879 121.346 128.859L 121.346 127.414C 121.108 127.383 120.986 127.363 120.795 127.363C 119.862 127.363 119.154 127.914 118.322 129.258L 118.322 127.621L 117.022 127.613z"/>
<path style="stroke:none; fill-rule:evenodd; fill:#000000" d="M 130.424 132.652C 130.424 131.265 130.322 130.429 130.065 129.754C 129.486 128.262 128.115 127.359 126.436 127.359C 123.936 127.359 122.33 129.293 122.33 132.258C 122.33 135.222 123.893 137.054 126.42 137.054C 128.483 137.054 129.908 135.883 130.272 133.918L 128.83 133.918C 128.436 135.125 127.631 135.754 126.479 135.754C 125.569 135.754 124.795 135.344 124.315 134.586C 123.975 134.07 123.854 133.554 123.834 132.656L 130.424 132.652zM 123.842 131.453C 123.959 129.785 124.975 128.699 126.424 128.699C 127.834 128.699 128.92 129.867 128.92 131.347C 128.92 131.379 128.92 131.414 128.904 131.449L 123.842 131.453z"/>
<path style="stroke:none; fill-rule:evenodd; fill:#000000" d="M 189.221 136.652L 190.819 136.652L 190.819 124.054L 189.221 124.054L 189.221 136.652z"/>
<path style="stroke:none; fill-rule:evenodd; fill:#000000" d="M 193.522 127.613L 193.522 136.652L 195.022 136.652L 195.022 131.008C 195.022 129.703 195.944 128.656 197.088 128.656C 198.131 128.656 198.717 129.308 198.717 130.457L 198.717 136.652L 200.217 136.652L 200.217 131.008C 200.217 129.703 201.139 128.656 202.283 128.656C 203.307 128.656 203.912 129.324 203.912 130.457L 203.912 136.652L 205.412 136.652L 205.412 129.875C 205.412 128.254 204.483 127.359 202.795 127.359C 201.592 127.359 200.865 127.722 200.022 128.754C 199.49 127.777 198.764 127.359 197.592 127.359C 196.389 127.359 195.596 127.804 194.819 128.894L 194.819 127.621L 193.522 127.613z"/>
<path style="stroke:none; fill-rule:evenodd; fill:#000000" d="M 207.924 127.613L 207.924 136.652L 209.424 136.652L 209.424 131.008C 209.424 129.703 210.346 128.656 211.49 128.656C 212.533 128.656 213.119 129.308 213.119 130.457L 213.119 136.652L 214.619 136.652L 214.619 131.008C 214.619 129.703 215.541 128.656 216.686 128.656C 217.709 128.656 218.315 129.324 218.315 130.457L 218.315 136.652L 219.815 136.652L 219.815 129.875C 219.815 128.254 218.885 127.359 217.197 127.359C 215.994 127.359 215.268 127.722 214.424 128.754C 213.893 127.777 213.166 127.359 211.994 127.359C 210.791 127.359 209.998 127.804 209.221 128.894L 209.221 127.621L 207.924 127.613z"/>
<path style="stroke:none; fill-rule:evenodd; fill:#000000" d="M 229.822 132.652C 229.822 131.265 229.721 130.429 229.463 129.754C 228.885 128.262 227.514 127.359 225.834 127.359C 223.334 127.359 221.729 129.293 221.729 132.258C 221.729 135.222 223.291 137.054 225.819 137.054C 227.881 137.054 229.307 135.883 229.67 133.918L 228.229 133.918C 227.834 135.125 227.029 135.754 225.877 135.754C 224.967 135.754 224.194 135.344 223.713 134.586C 223.373 134.07 223.252 133.554 223.233 132.656L 229.822 132.652zM 223.244 131.453C 223.362 129.785 224.377 128.699 225.826 128.699C 227.236 128.699 228.322 129.867 228.322 131.347C 228.322 131.379 228.322 131.414 228.307 131.449L 223.244 131.453z"/>
<path style="stroke:none; fill-rule:evenodd; fill:#000000" d="M 239.221 124.054L 237.721 124.054L 237.721 128.765C 237.115 127.844 236.143 127.355 234.928 127.355C 232.569 127.355 231.026 129.234 231.026 132.117C 231.026 135.168 232.522 137.051 234.947 137.051C 236.186 137.051 237.045 136.586 237.822 135.465L 237.822 136.652L 239.221 136.652L 239.221 124.054zM 235.166 128.652C 236.729 128.652 237.721 130.051 237.721 132.238C 237.721 134.351 236.713 135.75 235.186 135.75C 233.588 135.75 232.526 134.336 232.526 132.203C 232.526 130.07 233.584 128.652 235.166 128.652z"/>
<path style="stroke:none; fill-rule:evenodd; fill:#000000" d="M 255.221 127.785C 255.201 125.301 253.51 123.855 250.604 123.855C 247.838 123.855 246.127 125.285 246.127 127.59C 246.127 129.14 246.936 130.117 248.592 130.554L 251.709 131.39C 253.295 131.808 254.022 132.453 254.022 133.449C 254.022 134.129 253.662 134.828 253.127 135.211C 252.627 135.558 251.834 135.75 250.819 135.75C 249.459 135.75 248.526 135.41 247.924 134.66C 247.459 134.09 247.252 133.465 247.229 132.656L 245.729 132.656C 245.744 133.808 245.967 134.566 246.471 135.258C 247.334 136.429 248.783 137.051 250.701 137.051C 252.201 137.051 253.428 136.707 254.24 136.082C 255.084 135.406 255.623 134.281 255.623 133.187C 255.623 131.629 254.658 130.484 252.951 130.015L 249.799 129.168C 248.283 128.754 247.733 128.269 247.733 127.297C 247.733 126.015 248.862 125.164 250.565 125.164C 252.58 125.164 253.709 126.105 253.729 127.793L 255.221 127.785z"/>
<path style="stroke:none; fill-rule:evenodd; fill:#000000" d="M 257.623 124.054L 257.623 136.652L 259.123 136.652L 259.123 131.633C 259.123 129.777 260.061 128.558 261.506 128.558C 261.959 128.558 262.412 128.715 262.748 128.976C 263.151 129.269 263.319 129.703 263.319 130.347L 263.319 136.656L 264.819 136.656L 264.819 129.828C 264.819 128.312 263.74 127.363 261.994 127.363C 260.729 127.363 259.959 127.762 259.119 128.879L 259.119 124.066L 257.623 124.054z"/>
<path style="stroke:none; fill-rule:evenodd; fill:#000000" d="M 270.705 127.351C 268.162 127.351 266.623 129.164 266.623 132.199C 266.623 135.234 268.143 137.047 270.721 137.047C 273.264 137.047 274.819 135.238 274.819 132.269C 274.819 129.148 273.315 127.351 270.701 127.351L 270.705 127.351zM 270.721 128.652C 272.35 128.652 273.319 129.992 273.319 132.254C 273.319 134.39 272.315 135.75 270.721 135.75C 269.112 135.75 268.123 134.41 268.123 132.203C 268.123 130.012 269.108 128.656 270.721 128.656L 270.721 128.652z"/>
<path style="stroke:none; fill-rule:evenodd; fill:#000000" d="M 283.733 130.66C 283.666 129.758 283.475 129.172 283.127 128.656C 282.506 127.844 281.416 127.359 280.154 127.359C 277.717 127.359 276.127 129.293 276.127 132.293C 276.127 135.207 277.682 137.054 280.139 137.054C 282.299 137.054 283.666 135.762 283.838 133.554L 282.385 133.554C 282.143 135.019 281.401 135.754 280.17 135.754C 278.58 135.754 277.627 134.449 277.627 132.293C 277.627 130.015 278.561 128.656 280.135 128.656C 281.346 128.656 282.108 129.375 282.279 130.66L 283.733 130.66z"/>
<path style="stroke:none; fill-rule:evenodd; fill:#000000" d="M 286.721 124.054L 285.221 124.054L 285.221 136.652L 286.721 136.652L 286.721 133.14L 288.096 131.765L 291.108 136.652L 292.862 136.652L 289.221 130.762L 292.315 127.656L 290.494 127.656L 286.717 131.453L 286.721 124.054z"/>
</g>
</svg>