<?xml version="1.0" encoding="ISO-8859-1" standalone="yes"?>
<svg width="235.354" height="138.392">
  <defs> 
    <marker id="ArrowEnd" viewBox="0 0 10 10" refX="0" refY="5" 
     markerUnits="strokeWidth" 
     markerWidth="4" 
     markerHeight="3" 
     orient="auto"> 
        <path d="M 0 0 L 10 5 L 0 10 z" /> 
    </marker>
    <marker id="ArrowStart" viewBox="0 0 10 10" refX="10" refY="5" 
     markerUnits="strokeWidth" 
     markerWidth="4" 
     markerHeight="3" 
     orient="auto"> 
        <path d="M 10 0 L 0 5 L 10 10 z" /> 
    </marker> </defs>
<g>
<path style="stroke:#000000; stroke-dasharray:6,3; stroke-width:0.95664899999999997; fill:none" d="M 5.01365 119.086L 200.166 119.086"/>
<path style="stroke:#000000; stroke-width:1.9133; fill:none" d="M 47.1074 96.1253L 156.162 96.1253L 161.901 78.9063L 167.639 96.1253L 182.944 96.1253"/>
<path style="stroke:#000000; stroke-width:1.9133; fill:none" d="M 47.1074 50.2073L 70.0644 50.2073L 70.0644 32.9883L 167.643 32.9883L 167.643 50.2073L 182.948 50.2073"/>
<path style="stroke:#000000; stroke-dasharray:6,3; stroke-width:0.95664899999999997; fill:none" d="M 5.01365 73.1643L 200.166 73.1643"/>
<path style="stroke:#000000; stroke-dasharray:6,3; stroke-width:0.95664899999999997; fill:none" d="M 5.01365 96.1253L 200.166 96.1253"/>
<path style="stroke:none; fill-rule:evenodd; fill:#000000" d="M 9.85355 115.84L 13.1074 115.84C 15.2363 115.84 16.5488 114.25 16.5488 111.636C 16.5488 109.035 15.2519 107.445 13.1074 107.445L 9.85355 107.445L 9.85355 115.84zM 10.955 114.941L 10.955 108.343L 12.9277 108.343C 14.58 108.343 15.4511 109.476 15.4511 111.648C 15.4511 113.797 14.58 114.941 12.9277 114.941L 10.955 114.941z"/>
<path style="stroke:none; fill-rule:evenodd; fill:#000000" d="M 22.5957 113.34L 23.455 115.84L 24.6464 115.84L 21.7089 107.441L 20.3339 107.441L 17.3496 115.84L 18.4824 115.84L 19.3652 113.34L 22.5957 113.34zM 22.2988 112.441L 19.6386 112.441L 21.0136 108.621L 22.2988 112.441z"/>
<path style="stroke:#000000; stroke-dasharray:6,3; stroke-width:0.95664899999999997; fill:none" d="M 5.01365 96.1253L 200.166 96.1253"/>
<path style="stroke:#000000; stroke-dasharray:6,3; stroke-width:0.95664899999999997; fill:none" d="M 5.01365 50.2073L 200.166 50.2073"/>
<path style="stroke:none; fill-rule:evenodd; fill:#000000" d="M 10.955 41.4413L 13.5957 41.4413C 14.2519 41.4413 14.7714 41.2503 15.2246 40.8473C 15.7324 40.3943 15.9511 39.8553 15.9511 39.0903C 15.9511 37.5273 15.0136 36.6443 13.3418 36.6443L 9.85355 36.6443L 9.85355 45.0433L 10.9511 45.0433L 10.955 41.4413zM 10.955 40.5393L 10.955 37.5393L 13.205 37.5393C 14.2363 37.5393 14.8535 38.1013 14.8535 39.0393C 14.8535 39.9723 14.2402 40.5393 13.205 40.5393L 10.955 40.5393z"/>
<path style="stroke:none; fill-rule:evenodd; fill:#000000" d="M 18.5566 41.2383L 22.5488 41.2383L 22.5488 40.3403L 18.5566 40.3403L 18.5566 37.5433L 23.0566 37.5433L 23.0566 36.6443L 17.4589 36.6443L 17.4589 45.0433L 18.5566 45.0433L 18.5566 41.2383z"/>
<path style="stroke:none; fill-rule:evenodd; fill:#000000" d="M 31.1543 39.2653C 30.8183 37.4373 29.7558 36.5433 27.9043 36.5433C 26.7714 36.5433 25.8613 36.8983 25.2363 37.5903C 24.4746 38.4183 24.0605 39.6133 24.0605 40.9723C 24.0605 42.3513 24.4863 43.5393 25.2832 44.3553C 25.9277 45.0233 26.7597 45.3323 27.8574 45.3323C 29.9121 45.3323 31.0683 44.2183 31.3261 41.9803L 30.2207 41.9803C 30.1308 42.5703 30.0175 42.9723 29.8418 43.3163C 29.498 44.0273 28.7832 44.4293 27.8886 44.4293C 26.2207 44.4293 25.1621 43.0783 25.1621 40.9573C 25.1621 38.7773 26.1738 37.4333 27.7988 37.4333C 28.4746 37.4333 29.1113 37.6443 29.455 37.9683C 29.7636 38.2613 29.9355 38.6213 30.0644 39.2543L 31.1543 39.2653z"/>
<path style="stroke:#000000; stroke-dasharray:6,3; stroke-width:0.95664899999999997; fill:none" d="M 5.01365 27.2463L 200.166 27.2463"/>
<path style="stroke:#000000; stroke-width:1.9133; fill:none" d="M 47.1074 27.2463L 64.3261 27.2463L 64.3261 10.0273L 77.7169 10.0273L 77.7169 27.2463L 182.948 27.2463"/>
<path style="stroke:#000000; stroke-width:1.9133; fill:none" d="M 47.1074 73.1643L 64.3261 73.1643L 64.3261 55.9453L 77.7169 55.9453L 77.7169 73.1643L 182.948 73.1643"/>
<path style="stroke:#000000; stroke-width:1.9133; fill:none" d="M 47.1074 119.086L 64.3261 119.086L 70.0644 107.609L 75.8027 119.086L 156.159 119.086L 161.897 115.261L 167.635 119.086L 182.94 119.086"/>
<path style="stroke:#000000; stroke-width:0.95664899999999997; fill:none" d="M 73.8925 109.515C 73.8925 109.515 73.8925 109.515 74.5294 106.328C 75.166 103.14 76.4394 96.7653 76.4394 91.0233C 76.4394 85.2853 75.166 80.1833 74.5294 77.6333C 73.8925 75.0823 73.8925 75.0823 73.8925 75.0823"/>
<path style="stroke:none; fill-rule:evenodd; fill:#000000" d="M 179.045 36.6403C 178.256 37.6443 177.756 39.0433 177.756 40.2463C 177.756 41.4573 178.252 42.8513 179.045 43.8593L 179.479 43.8593C 178.823 42.7613 178.455 41.4723 178.455 40.2463C 178.455 39.0273 178.819 37.7303 179.479 36.6403L 179.045 36.6403z"/>
<path style="stroke:none; fill-rule:evenodd; fill:#000000" d="M 183.108 39.3473C 183.1 38.5783 182.573 38.1443 181.627 38.1443C 180.678 38.1443 180.061 38.6253 180.061 39.3633C 180.061 39.9883 180.381 40.2853 181.334 40.5113L 181.932 40.6563C 182.377 40.7613 182.553 40.9223 182.553 41.2113C 182.553 41.5823 182.186 41.8363 181.639 41.8363C 181.303 41.8363 181.018 41.7383 180.858 41.5663C 180.76 41.4533 180.717 41.3363 180.678 41.0473L 180.018 41.0473C 180.045 41.9883 180.565 42.4373 181.608 42.4373C 182.612 42.4373 183.252 41.9453 183.252 41.1723C 183.252 40.5783 182.916 40.2503 182.116 40.0583L 181.502 39.9143C 180.983 39.7933 180.76 39.6253 180.76 39.3433C 180.76 38.9803 181.092 38.7423 181.616 38.7423C 182.131 38.7423 182.409 38.9493 182.424 39.3473L 183.108 39.3473z"/>
<path style="stroke:none; fill-rule:evenodd; fill:#000000" d="M 183.955 43.9103L 184.655 43.9103L 184.655 41.8433C 184.983 42.2583 185.354 42.4413 185.866 42.4413C 186.881 42.4413 187.549 41.6093 187.549 40.3323C 187.549 38.9883 186.893 38.1443 185.83 38.1443C 185.287 38.1443 184.854 38.3863 184.553 38.8593L 184.553 38.2583L 183.955 38.2583L 183.955 43.9103zM 185.733 38.7383C 186.409 38.7383 186.854 39.3553 186.854 40.3083C 186.854 41.2153 186.405 41.8323 185.733 41.8323C 185.084 41.8323 184.659 41.2223 184.659 40.2853C 184.659 39.3473 185.084 38.7383 185.733 38.7383z"/>
<path style="stroke:none; fill-rule:evenodd; fill:#000000" d="M 191.952 41.8633C 191.881 41.9373 191.85 41.9373 191.811 41.9373C 191.584 41.9373 191.459 41.8243 191.459 41.6213L 191.459 39.2423C 191.459 38.5273 190.944 38.1403 189.959 38.1403C 189.381 38.1403 188.901 38.3043 188.635 38.5973C 188.455 38.7973 188.377 39.0233 188.362 39.4143L 188.983 39.4143C 189.034 38.9493 189.315 38.7383 189.893 38.7383C 190.448 38.7383 190.76 38.9493 190.76 39.3323L 190.76 39.5003C 190.76 39.7653 190.604 39.8793 190.112 39.9413C 189.229 40.0543 189.096 40.0863 188.854 40.1833C 188.401 40.3713 188.166 40.7303 188.166 41.2503C 188.166 41.9723 188.674 42.4293 189.487 42.4293C 189.995 42.4293 190.401 42.2503 190.854 41.8203C 190.897 42.2423 191.096 42.4293 191.514 42.4293C 191.643 42.4293 191.745 42.4143 191.952 42.3593L 191.952 41.8633zM 190.756 40.9683C 190.756 41.1793 190.698 41.3083 190.518 41.4803C 190.272 41.7153 189.971 41.8363 189.616 41.8363C 189.143 41.8363 188.866 41.6013 188.866 41.2033C 188.866 40.7893 189.135 40.5783 189.784 40.4763C 190.424 40.3863 190.557 40.3593 190.76 40.2583L 190.756 40.9683z"/>
<path style="stroke:none; fill-rule:evenodd; fill:#000000" d="M 192.557 38.2543L 192.557 42.2383L 193.256 42.2383L 193.256 40.0703C 193.256 39.2693 193.682 38.7423 194.334 38.7423C 194.834 38.7423 195.155 39.0433 195.155 39.5153L 195.155 42.2383L 195.854 42.2383L 195.854 39.2263C 195.854 38.5663 195.338 38.1403 194.537 38.1403C 193.92 38.1403 193.522 38.3673 193.159 38.9223L 193.159 38.2543L 192.557 38.2543z"/>
<path style="stroke:none; fill-rule:evenodd; fill:#000000" d="M 199.705 39.3473C 199.698 38.5783 199.17 38.1443 198.225 38.1443C 197.276 38.1443 196.659 38.6253 196.659 39.3633C 196.659 39.9883 196.979 40.2853 197.932 40.5113L 198.53 40.6563C 198.975 40.7613 199.151 40.9223 199.151 41.2113C 199.151 41.5823 198.784 41.8363 198.237 41.8363C 197.901 41.8363 197.616 41.7383 197.455 41.5663C 197.358 41.4533 197.315 41.3363 197.276 41.0473L 196.616 41.0473C 196.643 41.9883 197.162 42.4373 198.205 42.4373C 199.209 42.4373 199.85 41.9453 199.85 41.1723C 199.85 40.5783 199.514 40.2503 198.713 40.0583L 198.1 39.9143C 197.58 39.7933 197.358 39.6253 197.358 39.3433C 197.358 38.9803 197.69 38.7423 198.213 38.7423C 198.729 38.7423 199.006 38.9493 199.022 39.3473L 199.705 39.3473z"/>
<path style="stroke:none; fill-rule:evenodd; fill:#000000" d="M 204.256 38.2383L 203.659 38.2383L 203.659 37.1293L 202.959 37.1293L 202.959 38.2383L 202.459 38.2383L 202.459 38.7383L 202.959 38.7383L 202.959 41.7973C 202.959 42.2033 203.233 42.4373 203.733 42.4373C 203.885 42.4373 204.037 42.4223 204.252 42.3833L 204.252 41.8283C 204.178 41.8363 204.084 41.8403 203.975 41.8403C 203.725 41.8403 203.655 41.7653 203.655 41.4843L 203.655 38.7463L 204.252 38.7463L 204.256 38.2383z"/>
<path style="stroke:none; fill-rule:evenodd; fill:#000000" d="M 204.955 36.6403L 204.955 42.2383L 205.655 42.2383L 205.655 40.0703C 205.655 39.2693 206.08 38.7423 206.733 38.7423C 206.936 38.7423 207.139 38.8083 207.291 38.9223C 207.471 39.0473 207.549 39.2343 207.549 39.5113L 207.549 42.2343L 208.248 42.2343L 208.248 39.2223C 208.248 38.5543 207.76 38.1363 206.963 38.1363C 206.389 38.1363 206.037 38.3043 205.655 38.7773L 205.655 36.6363L 204.955 36.6403z"/>
<path style="stroke:none; fill-rule:evenodd; fill:#000000" d="M 212.557 40.4413C 212.557 39.8403 212.514 39.4763 212.401 39.1833C 212.143 38.5393 211.534 38.1443 210.787 38.1443C 209.678 38.1443 208.963 39.0003 208.963 40.3163C 208.963 41.6293 209.659 42.4413 210.787 42.4413C 211.705 42.4413 212.342 41.9143 212.502 41.0273L 211.866 41.0273C 211.694 41.5623 211.338 41.8433 210.83 41.8433C 210.432 41.8433 210.088 41.6603 209.877 41.3163C 209.729 41.0863 209.674 40.8513 209.666 40.4493L 212.557 40.4413zM 209.643 39.9293C 209.694 39.1913 210.147 38.7073 210.787 38.7073C 211.412 38.7073 211.897 39.2263 211.897 39.8833C 211.897 39.8943 211.897 39.9103 211.889 39.9263L 209.643 39.9293z"/>
<path style="stroke:none; fill-rule:evenodd; fill:#000000" d="M 218.854 36.6403L 218.155 36.6403L 218.155 38.7343C 217.893 38.3473 217.471 38.1403 216.948 38.1403C 215.928 38.1403 215.26 38.9723 215.26 40.2503C 215.26 41.6013 215.92 42.4373 216.991 42.4373C 217.537 42.4373 217.916 42.2263 218.256 41.7113L 218.256 42.2383L 218.854 42.2383L 218.854 36.6403zM 217.073 38.7383C 217.733 38.7383 218.151 39.3473 218.151 40.3003C 218.151 41.2223 217.725 41.8323 217.077 41.8323C 216.401 41.8323 215.952 41.2153 215.952 40.2853C 215.952 39.3553 216.397 38.7383 217.069 38.7383L 217.073 38.7383z"/>
<path style="stroke:none; fill-rule:evenodd; fill:#000000" d="M 223.256 40.4413C 223.256 39.8403 223.213 39.4763 223.1 39.1833C 222.842 38.5393 222.233 38.1443 221.487 38.1443C 220.377 38.1443 219.662 39.0003 219.662 40.3163C 219.662 41.6293 220.358 42.4413 221.487 42.4413C 222.405 42.4413 223.041 41.9143 223.202 41.0273L 222.565 41.0273C 222.393 41.5623 222.037 41.8433 221.53 41.8433C 221.131 41.8433 220.787 41.6603 220.577 41.3163C 220.428 41.0863 220.373 40.8513 220.366 40.4493L 223.256 40.4413zM 220.342 39.9293C 220.393 39.1913 220.846 38.7073 221.487 38.7073C 222.112 38.7073 222.596 39.2263 222.596 39.8833C 222.596 39.8943 222.596 39.9103 222.588 39.9263L 220.342 39.9293z"/>
<path style="stroke:none; fill-rule:evenodd; fill:#000000" d="M 224.057 42.2383L 224.756 42.2383L 224.756 36.6403L 224.057 36.6403L 224.057 42.2383z"/>
<path style="stroke:none; fill-rule:evenodd; fill:#000000" d="M 229.35 41.8633C 229.28 41.9373 229.248 41.9373 229.209 41.9373C 228.983 41.9373 228.858 41.8243 228.858 41.6213L 228.858 39.2423C 228.858 38.5273 228.342 38.1403 227.358 38.1403C 226.78 38.1403 226.299 38.3043 226.034 38.5973C 225.854 38.7973 225.776 39.0233 225.76 39.4143L 226.381 39.4143C 226.432 38.9493 226.713 38.7383 227.291 38.7383C 227.846 38.7383 228.159 38.9493 228.159 39.3323L 228.159 39.5003C 228.159 39.7653 228.002 39.8793 227.51 39.9413C 226.627 40.0543 226.495 40.0863 226.252 40.1833C 225.799 40.3713 225.565 40.7303 225.565 41.2503C 225.565 41.9723 226.073 42.4293 226.885 42.4293C 227.393 42.4293 227.799 42.2503 228.252 41.8203C 228.295 42.2423 228.495 42.4293 228.912 42.4293C 229.041 42.4293 229.143 42.4143 229.35 42.3593L 229.35 41.8633zM 228.155 40.9683C 228.155 41.1793 228.096 41.3083 227.916 41.4803C 227.67 41.7153 227.369 41.8363 227.014 41.8363C 226.541 41.8363 226.264 41.6013 226.264 41.2033C 226.264 40.7893 226.534 40.5783 227.182 40.4763C 227.823 40.3863 227.955 40.3593 228.159 40.2583L 228.155 40.9683z"/>
<path style="stroke:none; fill-rule:evenodd; fill:#000000" d="M 232.526 38.2383L 231.416 41.3473L 230.393 38.2383L 229.713 38.2383L 231.065 42.3003L 230.823 42.9413C 230.725 43.2263 230.58 43.3323 230.311 43.3323C 230.221 43.3323 230.116 43.3003 229.975 43.2303L 229.975 43.8283C 230.104 43.8983 230.233 43.9293 230.401 43.9293C 230.604 43.9293 230.827 43.8633 230.995 43.7383C 231.19 43.5933 231.307 43.4263 231.428 43.1013L 233.209 38.2343L 232.526 38.2383z"/>
<path style="stroke:none; fill-rule:evenodd; fill:#000000" d="M 234.077 43.8633C 234.858 42.8593 235.354 41.4653 235.354 40.2583C 235.354 39.0473 234.862 37.6523 234.077 36.6443L 233.647 36.6443C 234.291 37.7423 234.655 39.0313 234.655 40.2583C 234.655 41.4763 234.295 42.7733 233.647 43.8633L 234.077 43.8633z"/>
<path style="stroke:#000000; stroke-width:0.95664899999999997; fill:none" d="M 161.905 119.086C 161.905 119.086 161.905 119.086 161.905 120.359C 161.905 121.633 161.905 124.183 159.354 125.777C 156.803 127.371 151.702 128.008 142.455 128.008C 133.209 128.008 119.815 127.371 108.018 127.691C 96.2206 128.008 86.0176 129.285 80.2755 128.328C 74.5371 127.375 73.2598 124.183 72.623 122.59C 71.9864 120.996 71.9864 120.996 71.9864 120.996"/>
<path style="stroke:#000000; stroke-width:0.95664899999999997; fill:none" d="M 209.737 46.3793C 209.737 46.3793 209.737 46.3793 208.463 60.7263C 207.19 75.0743 204.639 103.773 199.854 118.125C 195.073 132.472 188.057 132.472 177.854 132.472C 167.651 132.472 154.26 132.472 145.33 132.789C 136.405 133.105 131.94 133.742 129.389 133.105C 126.838 132.468 126.202 130.554 125.881 129.597C 125.565 128.644 125.565 128.644 125.565 128.644"/>
<path style="stroke:#000000; stroke-width:0.95664899999999997; fill:none" d="M 71.9785 54.0313C 71.9785 54.0313 71.9785 54.0313 72.6152 53.0783C 73.2519 52.1253 74.5255 50.2113 74.5255 47.6603C 74.5255 45.1093 73.2519 41.9223 72.6152 40.3283C 71.9785 38.7343 71.9785 38.7343 71.9785 38.7343"/>
<path style="stroke:none; fill-rule:evenodd; fill:#000000" d="M 78.5449 41.4413C 77.7559 42.4453 77.2559 43.8433 77.2559 45.0473C 77.2559 46.2583 77.7519 47.6523 78.5449 48.6603L 78.9785 48.6603C 78.3223 47.5623 77.955 46.2733 77.955 45.0473C 77.955 43.8283 78.3184 42.5313 78.9785 41.4413L 78.5449 41.4413z"/>
<path style="stroke:none; fill-rule:evenodd; fill:#000000" d="M 82.9586 44.3793C 82.9316 44.0043 82.8456 43.7583 82.6897 43.5433C 82.4117 43.1683 81.9239 42.9453 81.3614 42.9453C 80.2714 42.9453 79.5605 43.8003 79.5605 45.1333C 79.5605 46.4263 80.2559 47.2423 81.3535 47.2423C 82.3186 47.2423 82.9277 46.6603 83.0056 45.6683L 82.3656 45.6683C 82.2597 46.3163 81.9316 46.6443 81.3848 46.6443C 80.6816 46.6443 80.2598 46.0783 80.2598 45.1333C 80.2598 44.1403 80.6699 43.5473 81.3691 43.5473C 81.9044 43.5473 82.2406 43.8473 82.3186 44.3833L 82.9586 44.3793z"/>
<path style="stroke:none; fill-rule:evenodd; fill:#000000" d="M 87.2477 46.6643C 87.1777 46.7383 87.1466 46.7383 87.1077 46.7383C 86.8806 46.7383 86.7556 46.6253 86.7556 46.4223L 86.7556 44.0433C 86.7556 43.3283 86.2406 42.9413 85.2556 42.9413C 84.6777 42.9413 84.1976 43.1053 83.9316 43.3983C 83.7516 43.5973 83.6736 43.8243 83.6586 44.2153L 84.2796 44.2153C 84.3297 43.7503 84.6116 43.5393 85.1897 43.5393C 85.7447 43.5393 86.0566 43.7503 86.0566 44.1333L 86.0566 44.3003C 86.0566 44.5663 85.9007 44.6793 85.4086 44.7423C 84.5257 44.8553 84.3926 44.8863 84.1507 44.9843C 83.6976 45.1723 83.4626 45.5313 83.4626 46.0503C 83.4626 46.7733 83.9706 47.2303 84.7836 47.2303C 85.2906 47.2303 85.6976 47.0503 86.1507 46.6213C 86.1936 47.0433 86.3926 47.2303 86.8106 47.2303C 86.9397 47.2303 87.0406 47.2153 87.2477 47.1603L 87.2477 46.6643zM 86.0566 45.7693C 86.0566 45.9803 85.9977 46.1093 85.8186 46.2813C 85.5726 46.5153 85.2716 46.6363 84.9156 46.6363C 84.4436 46.6363 84.1656 46.4023 84.1656 46.0043C 84.1656 45.5903 84.4356 45.3793 85.0836 45.2773C 85.7246 45.1873 85.8577 45.1603 86.0606 45.0583L 86.0566 45.7693z"/>
<path style="stroke:none; fill-rule:evenodd; fill:#000000" d="M 91.0566 47.0623L 91.0566 43.0433L 90.3577 43.0433L 90.3577 45.2973C 90.3577 46.1053 89.9586 46.6403 89.3336 46.6403C 88.8616 46.6403 88.5606 46.3403 88.5606 45.8593L 88.5606 43.0433L 87.8616 43.0433L 87.8616 46.1443C 87.8616 46.8123 88.3536 47.2423 89.1266 47.2423C 89.7086 47.2423 90.0836 47.0393 90.4547 46.5083L 90.4547 47.0663L 91.0566 47.0623z"/>
<path style="stroke:none; fill-rule:evenodd; fill:#000000" d="M 95.0056 44.1483C 94.9977 43.3793 94.4706 42.9453 93.5257 42.9453C 92.5766 42.9453 91.9586 43.4263 91.9586 44.1643C 91.9586 44.7893 92.2796 45.0863 93.2327 45.3123L 93.8297 45.4573C 94.2757 45.5623 94.4516 45.7223 94.4516 46.0113C 94.4516 46.3833 94.0836 46.6363 93.5367 46.6363C 93.2016 46.6363 92.9156 46.5393 92.7556 46.3673C 92.6586 46.2543 92.6156 46.1363 92.5766 45.8473L 91.9156 45.8473C 91.9436 46.7893 92.4626 47.2383 93.5056 47.2383C 94.5097 47.2383 95.1507 46.7463 95.1507 45.9723C 95.1507 45.3793 94.8147 45.0503 94.0136 44.8593L 93.4007 44.7153C 92.8806 44.5933 92.6586 44.4263 92.6586 44.1443C 92.6586 43.7813 92.9906 43.5433 93.5136 43.5433C 94.0296 43.5433 94.3066 43.7503 94.3226 44.1483L 95.0056 44.1483z"/>
<path style="stroke:none; fill-rule:evenodd; fill:#000000" d="M 99.3536 45.2383C 99.3536 44.6363 99.3106 44.2733 99.1976 43.9803C 98.9397 43.3363 98.3297 42.9413 97.5836 42.9413C 96.4746 42.9413 95.7597 43.7973 95.7597 45.1133C 95.7597 46.4263 96.4547 47.2383 97.5836 47.2383C 98.5016 47.2383 99.1386 46.7113 99.2986 45.8243L 98.6617 45.8243C 98.4906 46.3593 98.1347 46.6403 97.6266 46.6403C 97.2286 46.6403 96.8847 46.4573 96.6736 46.1133C 96.5257 45.8833 96.4706 45.6483 96.4626 45.2463L 99.3536 45.2383zM 96.4436 44.7303C 96.4947 43.9923 96.9476 43.5083 97.5876 43.5083C 98.2126 43.5083 98.6976 44.0273 98.6976 44.6833C 98.6976 44.6953 98.6976 44.7113 98.6897 44.7263L 96.4436 44.7303z"/>
<path style="stroke:none; fill-rule:evenodd; fill:#000000" d="M 103.108 44.1483C 103.1 43.3793 102.573 42.9453 101.627 42.9453C 100.678 42.9453 100.061 43.4263 100.061 44.1643C 100.061 44.7893 100.381 45.0863 101.334 45.3123L 101.932 45.4573C 102.377 45.5623 102.553 45.7223 102.553 46.0113C 102.553 46.3833 102.186 46.6363 101.639 46.6363C 101.303 46.6363 101.018 46.5393 100.858 46.3673C 100.76 46.2543 100.717 46.1363 100.678 45.8473L 100.018 45.8473C 100.045 46.7893 100.565 47.2383 101.608 47.2383C 102.612 47.2383 103.252 46.7463 103.252 45.9723C 103.252 45.3793 102.916 45.0503 102.116 44.8593L 101.502 44.7153C 100.983 44.5933 100.76 44.4263 100.76 44.1443C 100.76 43.7813 101.092 43.5433 101.616 43.5433C 102.131 43.5433 102.409 43.7503 102.424 44.1483L 103.108 44.1483z"/>
<path style="stroke:none; fill-rule:evenodd; fill:#000000" d="M 109.354 47.0623L 109.354 43.0433L 108.655 43.0433L 108.655 45.2973C 108.655 46.1053 108.256 46.6403 107.631 46.6403C 107.159 46.6403 106.858 46.3403 106.858 45.8593L 106.858 43.0433L 106.159 43.0433L 106.159 46.1443C 106.159 46.8123 106.651 47.2423 107.424 47.2423C 108.006 47.2423 108.381 47.0393 108.752 46.5083L 108.752 47.0663L 109.354 47.0623z"/>
<path style="stroke:none; fill-rule:evenodd; fill:#000000" d="M 110.354 48.7073L 111.053 48.7073L 111.053 46.6403C 111.381 47.0543 111.752 47.2383 112.264 47.2383C 113.28 47.2383 113.948 46.4063 113.948 45.1293C 113.948 43.7853 113.291 42.9413 112.229 42.9413C 111.686 42.9413 111.252 43.1833 110.952 43.6563L 110.952 43.0543L 110.354 43.0543L 110.354 48.7073zM 112.131 43.5393C 112.807 43.5393 113.252 44.1563 113.252 45.1093C 113.252 46.0153 112.803 46.6333 112.131 46.6333C 111.483 46.6333 111.057 46.0233 111.057 45.0863C 111.057 44.1483 111.483 43.5393 112.131 43.5393z"/>
<path style="stroke:none; fill-rule:evenodd; fill:#000000" d="M 117.955 41.4413L 117.256 41.4413L 117.256 43.5353C 116.995 43.1483 116.573 42.9413 116.049 42.9413C 115.03 42.9413 114.362 43.7733 114.362 45.0503C 114.362 46.4023 115.022 47.2383 116.092 47.2383C 116.639 47.2383 117.018 47.0273 117.358 46.5113L 117.358 47.0393L 117.955 47.0393L 117.955 41.4413zM 116.174 43.5393C 116.834 43.5393 117.252 44.1483 117.252 45.1013C 117.252 46.0233 116.827 46.6333 116.178 46.6333C 115.502 46.6333 115.053 46.0153 115.053 45.0863C 115.053 44.1563 115.498 43.5393 116.17 43.5393L 116.174 43.5393z"/>
<path style="stroke:none; fill-rule:evenodd; fill:#000000" d="M 122.549 46.6643C 122.479 46.7383 122.448 46.7383 122.409 46.7383C 122.182 46.7383 122.057 46.6253 122.057 46.4223L 122.057 44.0433C 122.057 43.3283 121.541 42.9413 120.557 42.9413C 119.979 42.9413 119.498 43.1053 119.233 43.3983C 119.053 43.5973 118.975 43.8243 118.959 44.2153L 119.58 44.2153C 119.631 43.7503 119.912 43.5393 120.491 43.5393C 121.045 43.5393 121.358 43.7503 121.358 44.1333L 121.358 44.3003C 121.358 44.5663 121.202 44.6793 120.709 44.7423C 119.827 44.8553 119.694 44.8863 119.452 44.9843C 118.998 45.1723 118.764 45.5313 118.764 46.0503C 118.764 46.7733 119.272 47.2303 120.084 47.2303C 120.592 47.2303 120.998 47.0503 121.452 46.6213C 121.495 47.0433 121.694 47.2303 122.112 47.2303C 122.241 47.2303 122.342 47.2153 122.549 47.1603L 122.549 46.6643zM 121.354 45.7693C 121.354 45.9803 121.295 46.1093 121.116 46.2813C 120.869 46.5153 120.569 46.6363 120.213 46.6363C 119.741 46.6363 119.463 46.4023 119.463 46.0043C 119.463 45.5903 119.733 45.3793 120.381 45.2773C 121.022 45.1873 121.155 45.1603 121.358 45.0583L 121.354 45.7693z"/>
<path style="stroke:none; fill-rule:evenodd; fill:#000000" d="M 124.557 43.0393L 123.959 43.0393L 123.959 41.9293L 123.26 41.9293L 123.26 43.0393L 122.76 43.0393L 122.76 43.5393L 123.26 43.5393L 123.26 46.5973C 123.26 47.0043 123.534 47.2383 124.034 47.2383C 124.186 47.2383 124.338 47.2223 124.553 47.1833L 124.553 46.6293C 124.479 46.6363 124.385 46.6403 124.276 46.6403C 124.026 46.6403 123.955 46.5663 123.955 46.2853L 123.955 43.5473L 124.553 43.5473L 124.557 43.0393z"/>
<path style="stroke:none; fill-rule:evenodd; fill:#000000" d="M 126.057 43.0393L 125.358 43.0393L 125.358 47.0393L 126.057 47.0393L 126.057 43.0393zM 126.057 41.4413L 125.358 41.4413L 125.358 42.2653L 126.057 42.2653L 126.057 41.4413z"/>
<path style="stroke:none; fill-rule:evenodd; fill:#000000" d="M 127.057 43.0543L 127.057 47.0393L 127.756 47.0393L 127.756 44.8713C 127.756 44.0703 128.182 43.5433 128.834 43.5433C 129.334 43.5433 129.655 43.8433 129.655 44.3163L 129.655 47.0393L 130.354 47.0393L 130.354 44.0273C 130.354 43.3673 129.838 42.9413 129.037 42.9413C 128.42 42.9413 128.022 43.1683 127.659 43.7223L 127.659 43.0543L 127.057 43.0543z"/>
<path style="stroke:none; fill-rule:evenodd; fill:#000000" d="M 133.854 43.0393L 133.854 43.6093C 133.537 43.1563 133.151 42.9373 132.643 42.9373C 131.639 42.9373 130.955 43.8243 130.955 45.1253C 130.955 45.7813 131.131 46.3163 131.463 46.6993C 131.764 47.0353 132.194 47.2343 132.619 47.2343C 133.127 47.2343 133.483 47.0153 133.846 46.4923L 133.846 46.7073C 133.846 47.2693 133.78 47.6133 133.619 47.8433C 133.452 48.0903 133.123 48.2303 132.733 48.2303C 132.444 48.2303 132.182 48.1483 132.006 47.9963C 131.862 47.8713 131.803 47.7543 131.764 47.4923L 131.116 47.4923C 131.182 48.2653 131.764 48.7303 132.694 48.7303C 133.28 48.7303 133.787 48.5393 134.045 48.2183C 134.346 47.8513 134.459 47.3433 134.459 46.4023L 134.459 43.0393L 133.854 43.0393zM 132.764 43.5393C 133.452 43.5393 133.854 44.1133 133.854 45.1093C 133.854 46.0583 133.444 46.6333 132.772 46.6333C 132.08 46.6333 131.659 46.0503 131.659 45.0863C 131.659 44.1333 132.084 43.5393 132.764 43.5393z"/>
<path style="stroke:none; fill-rule:evenodd; fill:#000000" d="M 135.776 48.6643C 136.557 47.6603 137.053 46.2653 137.053 45.0583C 137.053 43.8473 136.561 42.4533 135.776 41.4453L 135.346 41.4453C 135.991 42.5433 136.354 43.8323 136.354 45.0583C 136.354 46.2773 135.995 47.5743 135.346 48.6643L 135.776 48.6643z"/>
<path style="stroke:#000000; stroke-width:0.95664899999999997; fill:none" d="M 78.6739 16.2463C 78.6739 16.2463 78.6739 16.2463 79.3105 16.8833C 79.9473 17.5193 81.2207 18.7933 81.7794 20.8673C 82.3336 22.9373 82.1736 25.8083 81.7011 27.9613C 81.2246 30.1093 80.4277 31.5473 80.0294 32.2653C 79.6309 32.9803 79.6309 32.9803 79.6309 32.9803"/>
<path style="stroke:none; fill-rule:evenodd; fill:#000000" d="M 16.455 16.2653C 16.1191 14.4373 15.0566 13.5433 13.205 13.5433C 12.0722 13.5433 11.1621 13.8983 10.5371 14.5903C 9.77545 15.4183 9.36135 16.6133 9.36135 17.9723C 9.36135 19.3513 9.78715 20.5393 10.5839 21.3553C 11.2285 22.0233 12.0605 22.3323 13.1582 22.3323C 15.2128 22.3323 16.3691 21.2183 16.6269 18.9803L 15.5214 18.9803C 15.4316 19.5703 15.3183 19.9723 15.1425 20.3163C 14.7988 21.0273 14.0839 21.4293 13.1894 21.4293C 11.5214 21.4293 10.4628 20.0783 10.4628 17.9573C 10.4628 15.7773 11.4746 14.4333 13.0996 14.4333C 13.7754 14.4333 14.4121 14.6443 14.7558 14.9683C 15.0644 15.2613 15.2363 15.6213 15.3652 16.2543L 16.455 16.2653z"/>
<path style="stroke:none; fill-rule:evenodd; fill:#000000" d="M 23.955 16.1293C 23.9472 14.4923 22.8261 13.5433 20.9121 13.5433C 19.0878 13.5433 17.9589 14.4923 17.9589 16.0193C 17.9589 17.0473 18.4902 17.6993 19.58 17.9883L 21.6347 18.5433C 22.6777 18.8203 23.1543 19.2463 23.1543 19.9063C 23.1543 20.3553 22.916 20.8203 22.5683 21.0743C 22.2402 21.3043 21.7207 21.4293 21.0527 21.4293C 20.1582 21.4293 19.5488 21.2033 19.1543 20.7033C 18.8496 20.3243 18.7128 19.9063 18.7636 19.3673L 17.7636 19.3673C 17.7714 20.1443 17.9199 20.6563 18.248 21.1213C 18.8144 21.9103 19.7675 22.3283 21.0254 22.3283C 22.0097 22.3283 22.8144 22.1013 23.3496 21.6833C 23.9043 21.2383 24.2558 20.4883 24.2558 19.7613C 24.2558 18.7263 23.623 17.9683 22.498 17.6563L 20.4238 17.0933C 19.4277 16.8203 19.0644 16.4963 19.0644 15.8513C 19.0644 15.0003 19.7988 14.4333 20.9043 14.4333C 22.2128 14.4333 22.9472 15.0353 22.9589 16.1213L 23.955 16.1293z"/>
<path style="stroke:none; fill-rule:evenodd; fill:#000000" d="M 9.75585 67.9413L 13.5644 67.9413C 14.3613 67.9413 14.9511 67.7223 15.4043 67.2423C 15.8183 66.8043 16.0527 66.2073 16.0527 65.5503C 16.0527 64.5393 15.58 63.9263 14.4785 63.5153C 15.2441 63.1603 15.6504 62.5393 15.6504 61.6873C 15.6504 61.0783 15.4238 60.5393 14.9824 60.1443C 14.5449 59.7423 13.9707 59.5583 13.1621 59.5583L 9.75195 59.5583L 9.75585 67.9413zM 10.8535 63.2383L 10.8535 60.4413L 12.8964 60.4413C 13.4863 60.4413 13.8144 60.5233 14.0957 60.7543C 14.3886 60.9923 14.5488 61.3553 14.5488 61.8403C 14.5488 62.3083 14.3925 62.6833 14.0957 62.9263C 13.8144 63.1523 13.4863 63.2383 12.8964 63.2383L 10.8535 63.2383zM 10.8535 67.0393L 10.8535 64.1403L 13.4511 64.1403C 13.9628 64.1403 14.3066 64.2653 14.5605 64.5433C 14.8105 64.8083 14.9472 65.1763 14.9472 65.5933C 14.9472 65.9963 14.8105 66.3673 14.5605 66.6333C 14.3105 66.9063 13.9668 67.0353 13.4511 67.0353L 10.8535 67.0393z"/>
<path style="stroke:none; fill-rule:evenodd; fill:#000000" d="M 24.6543 63.5393L 21.0566 63.5393L 21.0566 64.4373L 23.6543 64.4373L 23.6543 64.6723C 23.6543 66.2153 22.5566 67.3323 21.0371 67.3323C 20.1933 67.3323 19.4277 67.0193 18.9355 66.4723C 18.3886 65.8673 18.0566 64.8553 18.0566 63.8043C 18.0566 61.7183 19.2207 60.3403 20.9824 60.3403C 22.248 60.3403 23.1621 61.0083 23.3925 62.1053L 24.4785 62.1053C 24.1816 60.4143 22.8925 59.4373 20.9746 59.4373C 19.955 59.4373 19.1269 59.7033 18.4707 60.2423C 17.5097 61.0473 16.955 62.3473 16.955 63.8553C 16.955 66.4333 18.5254 68.2303 20.791 68.2303C 21.9277 68.2303 22.8339 67.8043 23.6504 66.8943L 23.9277 68.0083L 24.6464 68.0083L 24.6543 63.5393z"/>
<path style="stroke:none; fill-rule:evenodd; fill:#000000" d="M 25.955 65.6403L 31.7519 65.6403L 31.7519 64.8433L 25.955 64.8433L 25.955 65.6403z"/>
<path style="stroke:none; fill-rule:evenodd; fill:#000000" d="M 40.3535 63.5393L 36.7558 63.5393L 36.7558 64.4373L 39.3535 64.4373L 39.3535 64.6723C 39.3535 66.2153 38.2558 67.3323 36.7363 67.3323C 35.8925 67.3323 35.1269 67.0193 34.6347 66.4723C 34.0878 65.8673 33.7558 64.8553 33.7558 63.8043C 33.7558 61.7183 34.9199 60.3403 36.6816 60.3403C 37.9472 60.3403 38.8613 61.0083 39.0918 62.1053L 40.1777 62.1053C 39.8808 60.4143 38.5918 59.4373 36.6738 59.4373C 35.6543 59.4373 34.8261 59.7033 34.1699 60.2423C 33.2089 61.0473 32.6543 62.3473 32.6543 63.8553C 32.6543 66.4333 34.2246 68.2303 36.4902 68.2303C 37.6269 68.2303 38.5332 67.8043 39.3496 66.8943L 39.6269 68.0083L 40.3457 68.0083L 40.3535 63.5393z"/>
<path style="stroke:none; fill-rule:evenodd; fill:#000000" d="M 44.1933 61.7383C 42.4902 61.7383 41.4589 62.9533 41.4589 64.9883C 41.4589 67.0233 42.4785 68.2383 44.2089 68.2383C 45.9121 68.2383 46.9589 67.0273 46.9589 65.0393C 46.9589 62.9493 45.9511 61.7463 44.2011 61.7463L 44.1933 61.7383zM 44.205 62.6403C 45.2988 62.6403 45.955 63.5273 45.955 65.0233C 45.955 66.4373 45.2793 67.3363 44.205 67.3363C 43.123 67.3363 42.455 66.4493 42.455 64.9883C 42.455 63.5393 43.1191 62.6403 44.205 62.6403z"/>
<path style="stroke:none; fill-rule:evenodd; fill:#000000" d="M 79.0449 100.34C 78.2559 101.343 77.7559 102.742 77.7559 103.945C 77.7559 105.156 78.2519 106.55 79.0449 107.558L 79.4785 107.558C 78.8223 106.461 78.455 105.172 78.455 103.945C 78.455 102.726 78.8184 101.429 79.4785 100.34L 79.0449 100.34z"/>
<path style="stroke:none; fill-rule:evenodd; fill:#000000" d="M 80.2559 101.953L 80.2559 105.937L 80.955 105.937L 80.955 103.886C 80.955 103.324 81.0957 102.953 81.3925 102.734C 81.5839 102.593 81.7714 102.547 82.2047 102.539L 82.2047 101.863C 82.0996 101.847 82.0449 101.84 81.9589 101.84C 81.541 101.84 81.2246 102.082 80.8535 102.676L 80.8535 101.953L 80.2559 101.953z"/>
<path style="stroke:none; fill-rule:evenodd; fill:#000000" d="M 86.2556 104.14C 86.2556 103.539 86.2126 103.176 86.0996 102.883C 85.8417 102.238 85.2327 101.843 84.4866 101.843C 83.3766 101.843 82.6617 102.699 82.6617 104.015C 82.6617 105.328 83.3577 106.14 84.4866 106.14C 85.4046 106.14 86.0406 105.613 86.2016 104.726L 85.5647 104.726C 85.3926 105.261 85.0367 105.543 84.5296 105.543C 84.1306 105.543 83.7867 105.359 83.5766 105.015C 83.4277 104.785 83.3727 104.55 83.3656 104.148L 86.2556 104.14zM 83.3417 103.629C 83.3926 102.89 83.8456 102.406 84.4866 102.406C 85.1116 102.406 85.5956 102.926 85.5956 103.582C 85.5956 103.593 85.5956 103.609 85.5876 103.625L 83.3417 103.629z"/>
<path style="stroke:none; fill-rule:evenodd; fill:#000000" d="M 87.7556 101.941L 87.0566 101.941L 87.0566 105.941L 87.7556 105.941L 87.7556 101.941zM 87.7556 100.34L 87.0566 100.34L 87.0566 101.164L 87.7556 101.164L 87.7556 100.34z"/>
<path style="stroke:none; fill-rule:evenodd; fill:#000000" d="M 88.7556 101.953L 88.7556 105.937L 89.4547 105.937L 89.4547 103.769C 89.4547 102.968 89.8806 102.441 90.5336 102.441C 91.0336 102.441 91.3536 102.742 91.3536 103.215L 91.3536 105.937L 92.0527 105.937L 92.0527 102.926C 92.0527 102.265 91.5367 101.84 90.7366 101.84C 90.1186 101.84 89.7206 102.066 89.3577 102.621L 89.3577 101.953L 88.7556 101.953z"/>
<path style="stroke:none; fill-rule:evenodd; fill:#000000" d="M 94.5566 101.941L 93.8577 101.941L 93.8577 101.336C 93.8577 101.078 94.0176 100.945 94.3226 100.945C 94.3766 100.945 94.4007 100.945 94.5527 100.945L 94.5527 100.386C 94.3966 100.355 94.3066 100.347 94.1656 100.347C 93.5336 100.347 93.1546 100.683 93.1546 101.261L 93.1546 101.945L 92.7556 101.945L 92.7556 102.445L 93.1546 102.445L 93.1546 105.945L 93.8536 105.945L 93.8536 102.445L 94.5527 102.445L 94.5566 101.941z"/>
<path style="stroke:none; fill-rule:evenodd; fill:#000000" d="M 96.7477 101.84C 95.6347 101.84 94.9586 102.64 94.9586 103.988C 94.9586 105.332 95.6266 106.136 96.7556 106.136C 97.8686 106.136 98.5527 105.336 98.5527 104.019C 98.5527 102.636 97.8926 101.84 96.7477 101.84zM 96.7556 102.441C 97.4436 102.441 97.8536 103.027 97.8536 104.011C 97.8536 104.945 97.4316 105.535 96.7556 105.535C 96.0766 105.535 95.6586 104.953 95.6586 103.988C 95.6586 103.035 96.0766 102.441 96.7556 102.441z"/>
<path style="stroke:none; fill-rule:evenodd; fill:#000000" d="M 99.4547 101.953L 99.4547 105.937L 100.155 105.937L 100.155 103.886C 100.155 103.324 100.295 102.953 100.592 102.734C 100.784 102.593 100.971 102.547 101.405 102.539L 101.405 101.863C 101.299 101.847 101.245 101.84 101.159 101.84C 100.741 101.84 100.424 102.082 100.053 102.676L 100.053 101.953L 99.4547 101.953z"/>
<path style="stroke:none; fill-rule:evenodd; fill:#000000" d="M 105.061 103.277C 105.034 102.902 104.948 102.656 104.791 102.441C 104.514 102.066 104.026 101.843 103.463 101.843C 102.373 101.843 101.662 102.699 101.662 104.031C 101.662 105.324 102.358 106.14 103.455 106.14C 104.42 106.14 105.03 105.558 105.108 104.566L 104.467 104.566C 104.362 105.215 104.034 105.543 103.487 105.543C 102.784 105.543 102.362 104.976 102.362 104.031C 102.362 103.039 102.772 102.445 103.471 102.445C 104.006 102.445 104.342 102.746 104.42 103.281L 105.061 103.277z"/>
<path style="stroke:none; fill-rule:evenodd; fill:#000000" d="M 109.155 104.14C 109.155 103.539 109.112 103.176 108.998 102.883C 108.741 102.238 108.131 101.843 107.385 101.843C 106.276 101.843 105.561 102.699 105.561 104.015C 105.561 105.328 106.256 106.14 107.385 106.14C 108.303 106.14 108.94 105.613 109.1 104.726L 108.463 104.726C 108.291 105.261 107.936 105.543 107.428 105.543C 107.03 105.543 106.686 105.359 106.475 105.015C 106.327 104.785 106.272 104.55 106.264 104.148L 109.155 104.14zM 106.241 103.629C 106.291 102.89 106.745 102.406 107.385 102.406C 108.01 102.406 108.495 102.926 108.495 103.582C 108.495 103.593 108.495 103.609 108.487 103.625L 106.241 103.629z"/>
<path style="stroke:none; fill-rule:evenodd; fill:#000000" d="M 112.909 103.047C 112.901 102.277 112.373 101.843 111.428 101.843C 110.479 101.843 109.862 102.324 109.862 103.062C 109.862 103.687 110.182 103.984 111.135 104.211L 111.733 104.355C 112.178 104.461 112.354 104.621 112.354 104.91C 112.354 105.281 111.987 105.535 111.44 105.535C 111.104 105.535 110.819 105.437 110.659 105.265C 110.561 105.152 110.518 105.035 110.479 104.746L 109.819 104.746C 109.846 105.687 110.366 106.136 111.409 106.136C 112.412 106.136 113.053 105.644 113.053 104.871C 113.053 104.277 112.717 103.949 111.916 103.758L 111.303 103.613C 110.784 103.492 110.561 103.324 110.561 103.043C 110.561 102.679 110.893 102.441 111.416 102.441C 111.932 102.441 112.209 102.648 112.225 103.047L 112.909 103.047z"/>
<path style="stroke:none; fill-rule:evenodd; fill:#000000" d="M 121.057 103.039L 118.659 103.039L 118.659 103.636L 120.358 103.636L 120.358 103.789C 120.358 104.8 119.616 105.531 118.584 105.531C 118.014 105.531 117.495 105.32 117.159 104.953C 116.787 104.547 116.565 103.867 116.565 103.16C 116.565 101.761 117.35 100.836 118.545 100.836C 119.401 100.836 120.022 101.289 120.178 102.047L 120.912 102.047C 120.713 100.898 119.85 100.238 118.561 100.238C 117.877 100.238 117.323 100.414 116.881 100.777C 116.237 101.316 115.866 102.187 115.866 103.199C 115.866 104.926 116.92 106.133 118.44 106.133C 119.202 106.133 119.811 105.855 120.362 105.254L 120.557 105.988L 121.061 105.988L 121.057 103.039z"/>
<path style="stroke:none; fill-rule:evenodd; fill:#000000" d="M 123.545 101.84C 122.432 101.84 121.756 102.64 121.756 103.988C 121.756 105.332 122.424 106.136 123.553 106.136C 124.666 106.136 125.35 105.336 125.35 104.019C 125.35 102.636 124.69 101.84 123.545 101.84zM 123.557 102.441C 124.245 102.441 124.655 103.027 124.655 104.011C 124.655 104.945 124.233 105.535 123.557 105.535C 122.877 105.535 122.459 104.953 122.459 103.988C 122.459 103.035 122.877 102.441 123.557 102.441z"/>
<path style="stroke:none; fill-rule:evenodd; fill:#000000" d="M 126.479 107.562C 127.26 106.558 127.756 105.164 127.756 103.957C 127.756 102.746 127.264 101.351 126.479 100.343L 126.049 100.343C 126.694 101.441 127.057 102.73 127.057 103.957C 127.057 105.176 126.698 106.472 126.049 107.562L 126.479 107.562z"/>
<path style="stroke:#ff0000; stroke-width:0.95664899999999997; fill:none" d="M 70.7246 60.6683L 70.7246 72.1443"/>
<path style="stroke:#ff0000; stroke-width:0.95664899999999997; fill:none" d="M 70.7246 60.6683L 68.8144 65.4493"/>
<path style="stroke:#ff0000; stroke-width:0.95664899999999997; fill:none" d="M 70.7246 60.6683L 72.6348 65.4493"/>
<path style="stroke:#ff0000; stroke-width:0.95664899999999997; fill:none" d="M 162.092 112.859L 162.092 101.383"/>
<path style="stroke:#ff0000; stroke-width:0.95664899999999997; fill:none" d="M 162.092 112.859L 164.002 108.078"/>
<path style="stroke:#ff0000; stroke-width:0.95664899999999997; fill:none" d="M 162.092 112.859L 160.182 108.078"/>
<path style="stroke:#ff0000; stroke-width:0.95664899999999997; fill:none" d="M 70.0761 112.59L 70.0761 124.066"/>
<path style="stroke:#ff0000; stroke-width:0.95664899999999997; fill:none" d="M 70.0761 112.59L 68.166 117.371"/>
<path style="stroke:#ff0000; stroke-width:0.95664899999999997; fill:none" d="M 70.0761 112.59L 71.9864 117.371"/>
<path style="stroke:#000000; stroke-width:0.95664899999999997; fill:none" d="M 71.6621 53.4723L 70.4434 47.8593"/>
<path style="stroke:#000000; stroke-width:0.95664899999999997; fill:none" d="M 72.8848 53.4723L 77.2794 52.0083"/>
<path style="stroke:#000000; stroke-width:0.95664899999999997; fill:none" d="M 77.0332 28.0823L 79.7169 32.7183"/>
<path style="stroke:#000000; stroke-width:0.95664899999999997; fill:none" d="M 79.7207 32.7183L 85.5797 30.0353"/>
<path style="stroke:#000000; stroke-width:0.95664899999999997; fill:none" d="M 73.373 75.2073L 71.666 79.6013"/>
<path style="stroke:#000000; stroke-width:0.95664899999999997; fill:none" d="M 73.373 74.9613L 78.0098 77.8903"/>
<path style="stroke:none; fill-rule:evenodd; fill:#000000" d="M 15.1543 82.5393L 15.1543 88.5003C 15.1543 89.6403 14.3574 90.3363 13.0449 90.3363C 12.4394 90.3363 11.9472 90.1873 11.5527 89.8943C 11.1504 89.5703 10.9589 89.1403 10.9589 88.5003L 10.9589 82.5393L 9.86135 82.5393L 9.86135 88.4613C 9.86135 90.1723 11.0722 91.2343 13.0488 91.2343C 15.0019 91.2343 16.2597 90.1483 16.2597 88.4613L 16.2597 82.5393L 15.1543 82.5393z"/>
<path style="stroke:none; fill-rule:evenodd; fill:#000000" d="M 23.955 85.0273C 23.9472 83.3903 22.8261 82.4413 20.9121 82.4413C 19.0878 82.4413 17.9589 83.3903 17.9589 84.9183C 17.9589 85.9453 18.4902 86.5973 19.58 86.8863L 21.6347 87.4413C 22.6777 87.7183 23.1543 88.1443 23.1543 88.8043C 23.1543 89.2543 22.916 89.7183 22.5683 89.9723C 22.2402 90.2033 21.7207 90.3283 21.0527 90.3283C 20.1582 90.3283 19.5488 90.1013 19.1543 89.6013C 18.8496 89.2223 18.7128 88.8043 18.7636 88.2653L 17.7636 88.2653C 17.7714 89.0433 17.9199 89.5543 18.248 90.0193C 18.8144 90.8083 19.7675 91.2263 21.0254 91.2263C 22.0097 91.2263 22.8144 91.0003 23.3496 90.5823C 23.9043 90.1363 24.2558 89.3863 24.2558 88.6603C 24.2558 87.6253 23.623 86.8673 22.498 86.5543L 20.4238 85.9923C 19.4277 85.7183 19.0644 85.3943 19.0644 84.7503C 19.0644 83.8983 19.7988 83.3323 20.9043 83.3323C 22.2128 83.3323 22.9472 83.9333 22.9589 85.0193L 23.955 85.0273z"/>
<path style="stroke:none; fill-rule:evenodd; fill:#000000" d="M 27.3847 82.5393L 24.666 91.1683L 25.2949 91.1683L 28.0136 82.5393L 27.3847 82.5393z"/>
<path style="stroke:none; fill-rule:evenodd; fill:#000000" d="M 28.7558 84.9143L 28.7558 90.9373L 29.7558 90.9373L 29.7558 87.8043C 29.7558 86.9413 29.9668 86.3793 30.416 86.0433C 30.705 85.8243 30.9863 85.7583 31.6386 85.7463L 31.6386 84.7813C 31.4824 84.7613 31.4043 84.7503 31.2793 84.7503C 30.6699 84.7503 30.205 85.1173 29.6582 86.0113L 29.6582 84.9223L 28.7558 84.9143z"/>
<path style="stroke:none; fill-rule:evenodd; fill:#000000" d="M 86.2447 16.1403C 85.4547 17.1443 84.9547 18.5433 84.9547 19.7463C 84.9547 20.9573 85.4516 22.3513 86.2447 23.3593L 86.6777 23.3593C 86.0216 22.2613 85.6546 20.9723 85.6546 19.7463C 85.6546 18.5273 86.0176 17.2303 86.6777 16.1403L 86.2447 16.1403z"/>
<path style="stroke:none; fill-rule:evenodd; fill:#000000" d="M 87.4547 17.7543L 87.4547 21.7383L 88.1546 21.7383L 88.1546 19.2693C 88.1546 18.6993 88.5527 18.2423 89.0486 18.2423C 89.4977 18.2423 89.7516 18.5273 89.7516 19.0273L 89.7516 21.7383L 90.4516 21.7383L 90.4516 19.2693C 90.4516 18.6993 90.8727 18.2423 91.4007 18.2423C 91.8686 18.2423 92.1507 18.5353 92.1507 19.0273L 92.1507 21.7383L 92.8496 21.7383L 92.8496 18.7503C 92.8496 18.0353 92.4277 17.6403 91.6656 17.6403C 91.1227 17.6403 90.7946 17.7933 90.4117 18.2263C 90.1736 17.8163 89.8456 17.6403 89.3147 17.6403C 88.7716 17.6403 88.4117 17.8363 88.0606 18.3163L 88.0606 17.7543L 87.4547 17.7543z"/>
<path style="stroke:none; fill-rule:evenodd; fill:#000000" d="M 97.4516 21.3633C 97.3806 21.4373 97.3496 21.4373 97.3106 21.4373C 97.0836 21.4373 96.9586 21.3243 96.9586 21.1213L 96.9586 18.7423C 96.9586 18.0273 96.4436 17.6403 95.4586 17.6403C 94.8806 17.6403 94.4007 17.8043 94.1347 18.0973C 93.9547 18.2973 93.8766 18.5233 93.8616 18.9143L 94.4827 18.9143C 94.5336 18.4493 94.8147 18.2383 95.3926 18.2383C 95.9476 18.2383 96.2597 18.4493 96.2597 18.8323L 96.2597 19.0003C 96.2597 19.2653 96.1036 19.3793 95.6116 19.4413C 94.7286 19.5543 94.5956 19.5863 94.3536 19.6833C 93.9007 19.8713 93.6656 20.2303 93.6656 20.7503C 93.6656 21.4723 94.1736 21.9293 94.9866 21.9293C 95.4947 21.9293 95.9007 21.7503 96.3536 21.3203C 96.3966 21.7423 96.5956 21.9293 97.0136 21.9293C 97.1426 21.9293 97.2447 21.9143 97.4516 21.8593L 97.4516 21.3633zM 96.2556 20.4683C 96.2556 20.6793 96.1976 20.8083 96.0176 20.9803C 95.7716 21.2153 95.4706 21.3363 95.1156 21.3363C 94.6426 21.3363 94.3656 21.1013 94.3656 20.7033C 94.3656 20.2893 94.6347 20.0783 95.2836 19.9763C 95.9236 19.8863 96.0566 19.8593 96.2597 19.7583L 96.2556 20.4683z"/>
<path style="stroke:none; fill-rule:evenodd; fill:#000000" d="M 98.7556 17.7383L 98.0566 17.7383L 98.0566 21.7383L 98.7556 21.7383L 98.7556 17.7383zM 98.7556 16.1403L 98.0566 16.1403L 98.0566 16.9653L 98.7556 16.9653L 98.7556 16.1403z"/>
<path style="stroke:none; fill-rule:evenodd; fill:#000000" d="M 99.7556 17.7543L 99.7556 21.7383L 100.455 21.7383L 100.455 19.5703C 100.455 18.7693 100.881 18.2423 101.534 18.2423C 102.034 18.2423 102.354 18.5433 102.354 19.0153L 102.354 21.7383L 103.053 21.7383L 103.053 18.7263C 103.053 18.0663 102.537 17.6403 101.737 17.6403C 101.119 17.6403 100.721 17.8673 100.358 18.4223L 100.358 17.7543L 99.7556 17.7543z"/>
<path style="stroke:none; fill-rule:evenodd; fill:#000000" d="M 105.455 17.7383L 104.858 17.7383L 104.858 16.6293L 104.159 16.6293L 104.159 17.7383L 103.659 17.7383L 103.659 18.2383L 104.159 18.2383L 104.159 21.2973C 104.159 21.7033 104.432 21.9373 104.932 21.9373C 105.084 21.9373 105.237 21.9223 105.452 21.8833L 105.452 21.3283C 105.377 21.3363 105.284 21.3403 105.174 21.3403C 104.924 21.3403 104.854 21.2653 104.854 20.9843L 104.854 18.2463L 105.452 18.2463L 105.455 17.7383z"/>
<path style="stroke:none; fill-rule:evenodd; fill:#000000" d="M 109.748 21.3633C 109.678 21.4373 109.647 21.4373 109.608 21.4373C 109.381 21.4373 109.256 21.3243 109.256 21.1213L 109.256 18.7423C 109.256 18.0273 108.741 17.6403 107.756 17.6403C 107.178 17.6403 106.698 17.8043 106.432 18.0973C 106.252 18.2973 106.174 18.5233 106.159 18.9143L 106.78 18.9143C 106.83 18.4493 107.112 18.2383 107.69 18.2383C 108.245 18.2383 108.557 18.4493 108.557 18.8323L 108.557 19.0003C 108.557 19.2653 108.401 19.3793 107.909 19.4413C 107.026 19.5543 106.893 19.5863 106.651 19.6833C 106.198 19.8713 105.963 20.2303 105.963 20.7503C 105.963 21.4723 106.471 21.9293 107.284 21.9293C 107.791 21.9293 108.198 21.7503 108.651 21.3203C 108.694 21.7423 108.893 21.9293 109.311 21.9293C 109.44 21.9293 109.541 21.9143 109.748 21.8593L 109.748 21.3633zM 108.557 20.4683C 108.557 20.6793 108.498 20.8083 108.319 20.9803C 108.073 21.2153 107.772 21.3363 107.416 21.3363C 106.944 21.3363 106.666 21.1013 106.666 20.7033C 106.666 20.2893 106.936 20.0783 107.584 19.9763C 108.225 19.8863 108.358 19.8593 108.561 19.7583L 108.557 20.4683z"/>
<path style="stroke:none; fill-rule:evenodd; fill:#000000" d="M 111.155 17.7383L 110.455 17.7383L 110.455 21.7383L 111.155 21.7383L 111.155 17.7383zM 111.155 16.1403L 110.455 16.1403L 110.455 16.9653L 111.155 16.9653L 111.155 16.1403z"/>
<path style="stroke:none; fill-rule:evenodd; fill:#000000" d="M 112.155 17.7543L 112.155 21.7383L 112.854 21.7383L 112.854 19.5703C 112.854 18.7693 113.28 18.2423 113.932 18.2423C 114.432 18.2423 114.752 18.5433 114.752 19.0153L 114.752 21.7383L 115.452 21.7383L 115.452 18.7263C 115.452 18.0663 114.936 17.6403 114.135 17.6403C 113.518 17.6403 113.119 17.8673 112.756 18.4223L 112.756 17.7543L 112.155 17.7543z"/>
<path style="stroke:none; fill-rule:evenodd; fill:#000000" d="M 119.455 19.3403L 121.198 19.3403C 121.631 19.3403 121.971 19.2113 122.272 18.9453C 122.604 18.6403 122.748 18.2853 122.748 17.7733C 122.748 16.7303 122.135 16.1443 121.037 16.1443L 118.752 16.1443L 118.752 21.7423L 119.452 21.7423L 119.455 19.3403zM 119.455 18.7383L 119.455 16.7383L 120.955 16.7383C 121.643 16.7383 122.053 17.1133 122.053 17.7383C 122.053 18.3633 121.647 18.7383 120.955 18.7383L 119.455 18.7383z"/>
<path style="stroke:none; fill-rule:evenodd; fill:#000000" d="M 124.557 19.1403L 127.217 19.1403L 127.217 18.5433L 124.557 18.5433L 124.557 16.7463L 127.557 16.7463L 127.557 16.1483L 123.858 16.1483L 123.858 21.7463L 124.557 21.7463L 124.557 19.1403z"/>
<path style="stroke:none; fill-rule:evenodd; fill:#000000" d="M 132.823 17.8903C 132.604 16.6483 131.905 16.0433 130.69 16.0433C 129.948 16.0433 129.346 16.2813 128.936 16.7423C 128.436 17.2973 128.162 18.0973 128.162 19.0113C 128.162 19.9373 128.44 20.7303 128.967 21.2813C 129.393 21.7263 129.94 21.9333 130.659 21.9333C 132.01 21.9333 132.768 21.1913 132.936 19.6993L 132.205 19.6993C 132.147 20.0933 132.069 20.3593 131.955 20.5903C 131.729 21.0623 131.256 21.3323 130.662 21.3323C 129.561 21.3323 128.862 20.4263 128.862 19.0003C 128.862 17.5353 129.53 16.6363 130.604 16.6363C 131.049 16.6363 131.471 16.7773 131.698 17.0043C 131.901 17.2033 132.014 17.4493 132.1 17.8833L 132.823 17.8903z"/>
<path style="stroke:none; fill-rule:evenodd; fill:#000000" d="M 134.077 23.3633C 134.858 22.3593 135.354 20.9653 135.354 19.7583C 135.354 18.5473 134.862 17.1523 134.077 16.1443L 133.647 16.1443C 134.291 17.2423 134.655 18.5313 134.655 19.7583C 134.655 20.9763 134.295 22.2733 133.647 23.3633L 134.077 23.3633z"/>
</g>
</svg>