<?xml version="1.0" encoding="ISO-8859-1" standalone="yes"?>
<svg width="250.899" height="189.8">
  <defs> 
    <marker id="ArrowEnd" viewBox="0 0 10 10" refX="0" refY="5" 
     markerUnits="strokeWidth" 
     markerWidth="4" 
     markerHeight="3" 
     orient="auto"> 
        <path d="M 0 0 L 10 5 L 0 10 z" /> 
    </marker>
    <marker id="ArrowStart" viewBox="0 0 10 10" refX="10" refY="5" 
     markerUnits="strokeWidth" 
     markerWidth="4" 
     markerHeight="3" 
     orient="auto"> 
        <path d="M 10 0 L 0 5 L 10 10 z" /> 
    </marker> </defs>
<g>
<path style="stroke:none; fill-rule:evenodd; fill:#000000" d="M 66.0391 172.898L 66.7696 175.398L 67.7852 175.398L 65.2813 167.101L 64.1094 167.101L 61.5664 175.398L 62.5352 175.398L 63.2891 172.898L 66.0391 172.898zM 65.7852 172L 63.5157 172L 64.6875 168.273L 65.7852 172z"/>
<path style="stroke:none; fill-rule:evenodd; fill:#000000" d="M 91.3986 175.398L 94.6016 175.398C 95.2736 175.398 95.7696 175.183 96.1486 174.707C 96.4966 174.277 96.6916 173.683 96.6916 173.035C 96.6916 172.035 96.3006 171.433 95.3906 171.023C 96.0426 170.671 96.3906 170.058 96.3906 169.214C 96.3906 168.613 96.1956 168.078 95.8246 167.691C 95.4566 167.296 94.9686 167.113 94.2816 167.113L 91.3946 167.113L 91.3986 175.398zM 92.3006 170.699L 92.3006 168L 94.0666 168C 94.5746 168 94.8596 168.078 95.1056 168.3C 95.3596 168.531 95.4966 168.878 95.4966 169.347C 95.4966 169.8 95.3596 170.16 95.1056 170.394C 94.8636 170.613 94.5786 170.695 94.0666 170.695L 92.3006 170.699zM 92.3006 174.5L 92.3006 171.601L 94.5196 171.601C 94.9566 171.601 95.2496 171.726 95.4646 172.003C 95.6796 172.269 95.7966 172.636 95.7966 173.054C 95.7966 173.457 95.6796 173.828 95.4646 174.093C 95.2496 174.367 94.9566 174.496 94.5196 174.496L 92.3006 174.5z"/>
<path style="stroke:none; fill-rule:evenodd; fill:#000000" d="M 125.68 169.703C 125.399 167.89 124.504 167.003 122.946 167.003C 121.993 167.003 121.223 167.355 120.696 168.039C 120.055 168.855 119.704 170.043 119.704 171.386C 119.704 172.75 120.063 173.921 120.735 174.73C 121.278 175.39 121.981 175.695 122.907 175.695C 124.637 175.695 125.614 174.597 125.829 172.382L 124.895 172.382C 124.821 172.964 124.719 173.359 124.575 173.699C 124.282 174.398 123.68 174.793 122.918 174.793C 121.508 174.793 120.61 173.46 120.61 171.367C 120.61 169.218 121.465 167.894 122.84 167.894C 123.414 167.894 123.95 168.101 124.243 168.421C 124.504 168.707 124.649 169.066 124.758 169.691L 125.68 169.703z"/>
<path style="stroke:none; fill-rule:evenodd; fill:#000000" d="M 149.102 175.398L 151.821 175.398C 153.602 175.398 154.696 173.828 154.696 171.246C 154.696 168.675 153.61 167.101 151.821 167.101L 149.102 167.101L 149.102 175.398zM 150 174.5L 150 168L 151.664 168C 153.059 168 153.797 169.113 153.797 171.253C 153.797 173.367 153.063 174.496 151.664 174.496L 150 174.5z"/>
<path style="stroke:none; fill-rule:evenodd; fill:#000000" d="M 179.301 171.601L 183.18 171.601L 183.18 170.703L 179.301 170.703L 179.301 168.003L 183.301 168.003L 183.301 167.105L 178.403 167.105L 178.403 175.402L 183.5 175.402L 183.5 174.503L 179.301 174.503L 179.301 171.601z"/>
<path style="stroke:none; fill-rule:evenodd; fill:#000000" d="M 208.2 171.601L 211.598 171.601L 211.598 170.703L 208.2 170.703L 208.2 168.003L 212.098 168.003L 212.098 167.105L 207.301 167.105L 207.301 175.402L 208.2 175.402L 208.2 171.601z"/>
<path style="stroke:none; fill-rule:evenodd; fill:#000000" d="M 108.477 184.039C 108.43 183.324 108.301 182.871 107.997 182.406C 107.446 181.57 106.563 181.101 105.489 181.101C 103.465 181.101 102.204 182.773 102.204 185.461C 102.204 188.121 103.45 189.796 105.446 189.796C 107.223 189.796 108.414 188.593 108.504 186.675L 107.075 186.675C 106.989 187.769 106.411 188.394 105.5 188.394C 104.368 188.394 103.7 187.328 103.7 185.519C 103.7 183.691 104.391 182.597 105.547 182.597C 106.055 182.597 106.477 182.793 106.75 183.175C 106.903 183.394 106.985 183.601 107.071 184.031L 108.477 184.039z"/>
<path style="stroke:none; fill-rule:evenodd; fill:#000000" d="M 109.5 189.5L 110.899 189.5L 110.899 181.203L 109.5 181.203L 109.5 189.5z"/>
<path style="stroke:none; fill-rule:evenodd; fill:#000000" d="M 114.54 183.3C 112.903 183.3 111.903 184.539 111.903 186.55C 111.903 188.57 112.903 189.8 114.551 189.8C 116.176 189.8 117.2 188.562 117.2 186.597C 117.2 184.519 116.219 183.304 114.54 183.304L 114.54 183.3zM 114.551 184.601C 115.309 184.601 115.801 185.379 115.801 186.574C 115.801 187.711 115.29 188.5 114.551 188.5C 113.805 188.5 113.301 187.714 113.301 186.55C 113.301 185.39 113.801 184.601 114.551 184.601z"/>
<path style="stroke:none; fill-rule:evenodd; fill:#000000" d="M 122.543 185.351C 122.524 184.074 121.668 183.3 120.258 183.3C 118.93 183.3 118.102 184.089 118.102 185.363C 118.102 185.773 118.207 186.129 118.387 186.371C 118.567 186.586 118.731 186.691 119.235 186.886L 120.84 187.48C 121.176 187.605 121.293 187.73 121.293 187.984C 121.293 188.363 120.914 188.589 120.282 188.589C 119.934 188.589 119.649 188.504 119.477 188.351C 119.332 188.214 119.274 188.078 119.215 187.711L 117.883 187.711C 117.918 189.07 118.774 189.789 120.383 189.789C 121.118 189.789 121.676 189.605 122.067 189.238C 122.457 188.875 122.696 188.3 122.696 187.691C 122.696 186.89 122.36 186.375 121.676 186.132L 119.973 185.55C 119.598 185.414 119.504 185.324 119.504 185.07C 119.504 184.726 119.809 184.5 120.282 184.5C 120.922 184.5 121.239 184.777 121.25 185.351L 122.543 185.351z"/>
<path style="stroke:none; fill-rule:evenodd; fill:#000000" d="M 128.129 187C 128.137 186.863 128.137 186.808 128.137 186.726C 128.137 186.109 128.063 185.539 127.934 185.101C 127.582 183.98 126.731 183.304 125.664 183.304C 124.149 183.304 123.219 184.574 123.219 186.632C 123.219 188.597 124.137 189.8 125.637 189.8C 126.821 189.8 127.778 189.004 128.082 187.781L 126.735 187.781C 126.571 188.3 126.188 188.601 125.688 188.601C 125.297 188.601 124.985 188.41 124.79 188.074C 124.664 187.851 124.614 187.582 124.594 187.004L 128.129 187zM 124.606 185.898C 124.692 184.968 125.036 184.5 125.641 184.5C 125.981 184.5 126.293 184.691 126.493 185.011C 126.618 185.238 126.676 185.476 126.707 185.898L 124.606 185.898z"/>
<path style="stroke:none; fill-rule:evenodd; fill:#000000" d="M 137.145 183.754C 137.145 182.996 137 182.496 136.645 182.043C 136.164 181.433 135.364 181.101 134.329 181.101C 132.606 181.101 131.61 182.043 131.61 183.675C 131.61 184.972 132.172 185.605 133.637 185.925L 134.645 186.152C 135.633 186.367 136 186.691 136 187.367C 136 188.066 135.454 188.492 134.559 188.492C 133.559 188.492 133 187.972 132.95 187.023L 131.52 187.023C 131.606 188.816 132.653 189.793 134.473 189.793C 136.313 189.793 137.399 188.785 137.399 187.082C 137.399 185.761 136.829 185.074 135.493 184.773L 134.368 184.523C 133.313 184.285 133.004 184.043 133.004 183.433C 133.004 182.804 133.489 182.402 134.247 182.402C 135.184 182.402 135.707 182.875 135.758 183.757L 137.145 183.754z"/>
<path style="stroke:none; fill-rule:evenodd; fill:#000000" d="M 140.649 183.5L 139.903 183.5L 139.903 181.867L 138.504 181.867L 138.504 183.5L 137.844 183.5L 137.844 184.597L 138.504 184.597L 138.504 188.359C 138.504 189.32 138.946 189.796 139.852 189.796C 140.157 189.796 140.403 189.765 140.649 189.668L 140.649 188.523C 140.516 188.57 140.438 188.597 140.344 188.597C 139.993 188.597 139.907 188.472 139.907 187.929L 139.907 184.601L 140.653 184.601L 140.649 183.5z"/>
<path style="stroke:none; fill-rule:evenodd; fill:#000000" d="M 143 183.382L 141.602 183.382L 141.602 189.5L 143 189.5L 143 183.382zM 143 181.199L 141.602 181.199L 141.602 182.597L 143 182.597L 143 181.199z"/>
<path style="stroke:none; fill-rule:evenodd; fill:#000000" d="M 144.301 183.398L 144.301 189.496L 145.7 189.496L 145.7 185.804C 145.7 185.054 146.032 184.597 146.59 184.597C 147.024 184.597 147.293 184.902 147.293 185.394L 147.293 189.496L 148.692 189.496L 148.692 185.804C 148.692 185.054 149.047 184.597 149.637 184.597C 150.098 184.597 150.387 184.902 150.387 185.394L 150.387 189.496L 151.786 189.496L 151.786 185.183C 151.786 184 151.153 183.296 150.082 183.296C 149.411 183.296 148.934 183.562 148.516 184.179C 148.258 183.617 147.723 183.296 147.059 183.296C 146.446 183.296 146.047 183.527 145.594 184.136L 145.594 183.398L 144.301 183.398z"/>
<path style="stroke:none; fill-rule:evenodd; fill:#000000" d="M 157.7 189.539L 157.7 183.402L 156.301 183.402L 156.301 187.285C 156.301 188.019 155.883 188.5 155.247 188.5C 154.688 188.5 154.407 188.132 154.407 187.386L 154.407 183.402L 153.008 183.402L 153.008 187.675C 153.008 189.027 153.641 189.8 154.747 189.8C 155.446 189.8 155.918 189.496 156.305 188.812L 156.305 189.539L 157.7 189.539z"/>
<path style="stroke:none; fill-rule:evenodd; fill:#000000" d="M 159 189.5L 160.399 189.5L 160.399 181.203L 159 181.203L 159 189.5z"/>
<path style="stroke:none; fill-rule:evenodd; fill:#000000" d="M 166.399 189.539L 166.399 183.402L 165 183.402L 165 187.285C 165 188.019 164.582 188.5 163.946 188.5C 163.387 188.5 163.106 188.132 163.106 187.386L 163.106 183.402L 161.707 183.402L 161.707 187.675C 161.707 189.027 162.34 189.8 163.446 189.8C 164.145 189.8 164.618 189.496 165.004 188.812L 165.004 189.539L 166.399 189.539z"/>
<path style="stroke:none; fill-rule:evenodd; fill:#000000" d="M 172.043 185.351C 172.024 184.074 171.168 183.3 169.758 183.3C 168.43 183.3 167.602 184.089 167.602 185.363C 167.602 185.773 167.707 186.129 167.887 186.371C 168.067 186.586 168.231 186.691 168.735 186.886L 170.34 187.48C 170.676 187.605 170.793 187.73 170.793 187.984C 170.793 188.363 170.414 188.589 169.782 188.589C 169.434 188.589 169.149 188.504 168.977 188.351C 168.832 188.214 168.774 188.078 168.715 187.711L 167.383 187.711C 167.418 189.07 168.274 189.789 169.883 189.789C 170.618 189.789 171.176 189.605 171.567 189.238C 171.957 188.875 172.196 188.3 172.196 187.691C 172.196 186.89 171.86 186.375 171.176 186.132L 169.473 185.55C 169.098 185.414 169.004 185.324 169.004 185.07C 169.004 184.726 169.309 184.5 169.782 184.5C 170.422 184.5 170.739 184.777 170.75 185.351L 172.043 185.351z"/>
<path style="stroke:#000000; stroke-width:1.9133; fill:none" d="M 50.1133 164.363L 51.1993 164.363"/>
<path style="stroke:#000000; stroke-width:1.9133; fill:none" d="M 50.1133 155.195L 51.1993 155.195"/>
<path style="stroke:#000000; stroke-width:1.9133; fill:none" d="M 50.1133 146.425L 51.1993 146.425"/>
<path style="stroke:#000000; stroke-width:1.9133; fill:none" d="M 50.1133 137.656L 51.1993 137.656"/>
<path style="stroke:#000000; stroke-width:1.9133; fill:none" d="M 50.1133 128.882L 51.1993 128.882"/>
<path style="stroke:#000000; stroke-width:1.9133; fill:none" d="M 50.1133 120.113L 51.1993 120.113"/>
<path style="stroke:#000000; stroke-width:1.9133; fill:none" d="M 50.1133 111.339L 51.1993 111.339"/>
<path style="stroke:#000000; stroke-width:1.9133; fill:none" d="M 50.1133 102.171L 51.1993 102.171"/>
<path style="stroke:#000000; stroke-width:1.9133; fill:none" d="M 50.1133 93.402L 51.1993 93.402"/>
<path style="stroke:#000000; stroke-width:1.9133; fill:none" d="M 50.1133 84.628L 51.1993 84.628"/>
<path style="stroke:#000000; stroke-width:1.9133; fill:none" d="M 50.1133 75.859L 51.1993 75.859"/>
<path style="stroke:#000000; stroke-width:1.9133; fill:none" d="M 50.1133 67.089L 51.1993 67.089"/>
<path style="stroke:#000000; stroke-width:1.9133; fill:none" d="M 50.1133 58.32L 51.1993 58.32"/>
<path style="stroke:#000000; stroke-width:1.9133; fill:none" d="M 50.1133 49.148L 51.1993 49.148"/>
<path style="stroke:#000000; stroke-width:1.9133; fill:none" d="M 50.1133 40.378L 51.1993 40.378"/>
<path style="stroke:#000000; stroke-width:1.9133; fill:none" d="M 50.1133 31.605L 51.1993 31.605"/>
<path style="stroke:#000000; stroke-width:1.9133; fill:none" d="M 50.1133 22.836L 51.1993 22.836"/>
<path style="stroke:#000000; stroke-width:1.9133; fill:none" d="M 224.125 164.363L 223.04 164.363"/>
<path style="stroke:#000000; stroke-width:1.9133; fill:none" d="M 224.125 155.195L 223.04 155.195"/>
<path style="stroke:#000000; stroke-width:1.9133; fill:none" d="M 224.125 146.425L 223.04 146.425"/>
<path style="stroke:#000000; stroke-width:1.9133; fill:none" d="M 224.125 137.656L 223.04 137.656"/>
<path style="stroke:#000000; stroke-width:1.9133; fill:none" d="M 224.125 128.882L 223.04 128.882"/>
<path style="stroke:#000000; stroke-width:1.9133; fill:none" d="M 224.125 120.113L 223.04 120.113"/>
<path style="stroke:#000000; stroke-width:1.9133; fill:none" d="M 224.125 111.339L 223.04 111.339"/>
<path style="stroke:#000000; stroke-width:1.9133; fill:none" d="M 224.125 102.171L 223.04 102.171"/>
<path style="stroke:#000000; stroke-width:1.9133; fill:none" d="M 224.125 93.402L 223.04 93.402"/>
<path style="stroke:#000000; stroke-width:1.9133; fill:none" d="M 224.125 84.628L 223.04 84.628"/>
<path style="stroke:#000000; stroke-width:1.9133; fill:none" d="M 224.125 75.859L 223.04 75.859"/>
<path style="stroke:#000000; stroke-width:1.9133; fill:none" d="M 224.125 67.089L 223.04 67.089"/>
<path style="stroke:#000000; stroke-width:1.9133; fill:none" d="M 224.125 58.32L 223.04 58.32"/>
<path style="stroke:#000000; stroke-width:1.9133; fill:none" d="M 224.125 49.148L 223.04 49.148"/>
<path style="stroke:#000000; stroke-width:1.9133; fill:none" d="M 224.125 40.378L 223.04 40.378"/>
<path style="stroke:#000000; stroke-width:1.9133; fill:none" d="M 224.125 31.605L 223.04 31.605"/>
<path style="stroke:#000000; stroke-width:1.9133; fill:none" d="M 224.125 22.836L 223.04 22.836"/>
<path style="stroke:#000000; stroke-width:1.9133; fill:none" d="M 50.086 164.363L 52.2618 164.363"/>
<path style="stroke:#000000; stroke-width:1.9133; fill:none" d="M 50.086 146.425L 52.2618 146.425"/>
<path style="stroke:#000000; stroke-width:1.9133; fill:none" d="M 50.086 128.882L 52.2618 128.882"/>
<path style="stroke:#000000; stroke-width:1.9133; fill:none" d="M 50.086 111.339L 52.2618 111.339"/>
<path style="stroke:#000000; stroke-width:1.9133; fill:none" d="M 50.086 93.402L 52.2618 93.402"/>
<path style="stroke:#000000; stroke-width:1.9133; fill:none" d="M 50.086 75.859L 52.2618 75.859"/>
<path style="stroke:#000000; stroke-width:1.9133; fill:none" d="M 50.086 58.32L 52.2618 58.32"/>
<path style="stroke:#000000; stroke-width:1.9133; fill:none" d="M 50.086 40.378L 52.2618 40.378"/>
<path style="stroke:#000000; stroke-width:1.9133; fill:none" d="M 50.086 22.836L 52.2618 22.836"/>
<path style="stroke:#000000; stroke-width:1.9133; fill:none" d="M 224.153 164.363L 221.977 164.363"/>
<path style="stroke:#000000; stroke-width:1.9133; fill:none" d="M 224.153 146.425L 221.977 146.425"/>
<path style="stroke:#000000; stroke-width:1.9133; fill:none" d="M 224.153 128.882L 221.977 128.882"/>
<path style="stroke:#000000; stroke-width:1.9133; fill:none" d="M 224.153 111.339L 221.977 111.339"/>
<path style="stroke:#000000; stroke-width:1.9133; fill:none" d="M 224.153 93.402L 221.977 93.402"/>
<path style="stroke:#000000; stroke-width:1.9133; fill:none" d="M 224.153 75.859L 221.977 75.859"/>
<path style="stroke:#000000; stroke-width:1.9133; fill:none" d="M 224.153 58.32L 221.977 58.32"/>
<path style="stroke:#000000; stroke-width:1.9133; fill:none" d="M 224.153 40.378L 221.977 40.378"/>
<path style="stroke:#000000; stroke-width:1.9133; fill:none" d="M 224.153 22.836L 221.977 22.836"/>
<path style="stroke:none; fill-rule:evenodd; fill:#000000" d="M 20.6993 164.398L 25.5977 164.398L 25.5977 163.601L 20.6993 163.601L 20.6993 164.398z"/>
<path style="stroke:none; fill-rule:evenodd; fill:#000000" d="M 28.6993 158.601C 28.0743 158.601 27.5078 158.933 27.1563 159.5C 26.7227 160.199 26.5039 161.273 26.5039 162.757C 26.5039 165.46 27.2618 166.898 28.6993 166.898C 30.1211 166.898 30.8985 165.464 30.8985 162.828C 30.8985 161.269 30.6914 160.226 30.2461 159.503C 29.8985 158.929 29.3399 158.605 28.7032 158.605L 28.6993 158.601zM 28.6993 159.5C 29.6328 159.5 30.0977 160.589 30.0977 162.75C 30.0977 165.031 29.6446 166.097 28.6797 166.097C 27.7657 166.097 27.3008 164.988 27.3008 162.781C 27.3008 160.578 27.7618 159.5 28.6993 159.5z"/>
<path style="stroke:none; fill-rule:evenodd; fill:#000000" d="M 32.3985 166.601L 33.3985 166.601L 33.3985 165.402L 32.3985 165.402L 32.3985 166.601z"/>
<path style="stroke:none; fill-rule:evenodd; fill:#000000" d="M 39.1485 165.601L 35.5 165.601C 35.586 164.949 35.8985 164.535 36.75 163.96L 37.7266 163.355C 38.6914 162.75 39.1914 161.929 39.1914 160.949C 39.1914 160.289 38.9571 159.668 38.5469 159.238C 38.1368 158.812 37.6289 158.609 36.9727 158.609C 36.0938 158.609 35.4375 158.964 35.0547 159.636C 34.8125 160.058 34.7032 160.554 34.6836 161.359L 35.5625 161.359C 35.5899 160.836 35.6524 160.515 35.7696 160.265C 35.9961 159.796 36.4571 159.511 36.9883 159.511C 37.7852 159.511 38.3868 160.152 38.3868 161.003C 38.3868 161.632 38.0586 162.171 37.4297 162.574L 36.5118 163.156C 35.0352 164.097 34.6055 164.851 34.5274 166.601L 39.1446 166.601L 39.1485 165.601z"/>
<path style="stroke:none; fill-rule:evenodd; fill:#000000" d="M 42.3008 158.601C 41.6758 158.601 41.1094 158.933 40.7578 159.5C 40.3243 160.199 40.1055 161.273 40.1055 162.757C 40.1055 165.46 40.8633 166.898 42.3008 166.898C 43.7227 166.898 44.5 165.464 44.5 162.828C 44.5 161.269 44.293 160.226 43.8477 159.503C 43.5 158.929 42.9414 158.605 42.3047 158.605L 42.3008 158.601zM 42.3008 159.5C 43.2344 159.5 43.6993 160.589 43.6993 162.75C 43.6993 165.031 43.2461 166.097 42.2813 166.097C 41.3672 166.097 40.9024 164.988 40.9024 162.781C 40.9024 160.578 41.3633 159.5 42.3008 159.5z"/>
<path style="stroke:none; fill-rule:evenodd; fill:#000000" d="M 20.6993 146.898L 25.5977 146.898L 25.5977 146.101L 20.6993 146.101L 20.6993 146.898z"/>
<path style="stroke:none; fill-rule:evenodd; fill:#000000" d="M 28.6993 141.101C 28.0743 141.101 27.5078 141.433 27.1563 142C 26.7227 142.699 26.5039 143.773 26.5039 145.257C 26.5039 147.96 27.2618 149.398 28.6993 149.398C 30.1211 149.398 30.8985 147.964 30.8985 145.328C 30.8985 143.769 30.6914 142.726 30.2461 142.003C 29.8985 141.429 29.3399 141.105 28.7032 141.105L 28.6993 141.101zM 28.6993 142C 29.6328 142 30.0977 143.089 30.0977 145.25C 30.0977 147.531 29.6446 148.597 28.6797 148.597C 27.7657 148.597 27.3008 147.488 27.3008 145.281C 27.3008 143.078 27.7618 142 28.6993 142z"/>
<path style="stroke:none; fill-rule:evenodd; fill:#000000" d="M 32.3985 149.101L 33.3985 149.101L 33.3985 147.902L 32.3985 147.902L 32.3985 149.101z"/>
<path style="stroke:none; fill-rule:evenodd; fill:#000000" d="M 36.8008 143.402L 36.8008 149.097L 37.5977 149.097L 37.5977 141.097L 37.0313 141.097C 36.7305 142.328 36.5313 142.496 35.1993 142.687L 35.1993 143.398L 36.8008 143.402z"/>
<path style="stroke:none; fill-rule:evenodd; fill:#000000" d="M 44.2383 141.101L 40.6758 141.101L 40.1602 145.441L 40.9649 145.441C 41.3711 144.894 41.7071 144.703 42.2578 144.703C 43.1993 144.703 43.8008 145.441 43.8008 146.636C 43.8008 147.793 43.2149 148.5 42.2618 148.5C 41.4961 148.5 41.0313 148.05 40.8243 147.128L 39.9493 147.128C 40.0625 147.796 40.1602 148.117 40.3672 148.418C 40.7539 149.039 41.4571 149.394 42.2344 149.394C 43.625 149.394 44.6016 148.207 44.6016 146.492C 44.6016 144.894 43.6993 143.796 42.375 143.796C 41.8907 143.796 41.5 143.945 41.1016 144.289L 41.3711 142.093L 44.2422 142.093L 44.2383 141.101z"/>
<path style="stroke:none; fill-rule:evenodd; fill:#000000" d="M 20.6993 128.898L 25.5977 128.898L 25.5977 128.101L 20.6993 128.101L 20.6993 128.898z"/>
<path style="stroke:none; fill-rule:evenodd; fill:#000000" d="M 28.6993 123.101C 28.0743 123.101 27.5078 123.433 27.1563 124C 26.7227 124.699 26.5039 125.773 26.5039 127.257C 26.5039 129.96 27.2618 131.398 28.6993 131.398C 30.1211 131.398 30.8985 129.964 30.8985 127.328C 30.8985 125.769 30.6914 124.726 30.2461 124.003C 29.8985 123.429 29.3399 123.105 28.7032 123.105L 28.6993 123.101zM 28.6993 124C 29.6328 124 30.0977 125.089 30.0977 127.25C 30.0977 129.531 29.6446 130.597 28.6797 130.597C 27.7657 130.597 27.3008 129.488 27.3008 127.281C 27.3008 125.078 27.7618 124 28.6993 124z"/>
<path style="stroke:none; fill-rule:evenodd; fill:#000000" d="M 32.3985 131.101L 33.3985 131.101L 33.3985 129.902L 32.3985 129.902L 32.3985 131.101z"/>
<path style="stroke:none; fill-rule:evenodd; fill:#000000" d="M 36.8008 125.402L 36.8008 131.097L 37.5977 131.097L 37.5977 123.097L 37.0313 123.097C 36.7305 124.328 36.5313 124.496 35.1993 124.687L 35.1993 125.398L 36.8008 125.402z"/>
<path style="stroke:none; fill-rule:evenodd; fill:#000000" d="M 42.3008 123.101C 41.6758 123.101 41.1094 123.433 40.7578 124C 40.3243 124.699 40.1055 125.773 40.1055 127.257C 40.1055 129.96 40.8633 131.398 42.3008 131.398C 43.7227 131.398 44.5 129.964 44.5 127.328C 44.5 125.769 44.293 124.726 43.8477 124.003C 43.5 123.429 42.9414 123.105 42.3047 123.105L 42.3008 123.101zM 42.3008 124C 43.2344 124 43.6993 125.089 43.6993 127.25C 43.6993 129.531 43.2461 130.597 42.2813 130.597C 41.3672 130.597 40.9024 129.488 40.9024 127.281C 40.9024 125.078 41.3633 124 42.3008 124z"/>
<path style="stroke:none; fill-rule:evenodd; fill:#000000" d="M 20.6993 111.398L 25.5977 111.398L 25.5977 110.601L 20.6993 110.601L 20.6993 111.398z"/>
<path style="stroke:none; fill-rule:evenodd; fill:#000000" d="M 28.6993 105.601C 28.0743 105.601 27.5078 105.933 27.1563 106.5C 26.7227 107.199 26.5039 108.273 26.5039 109.757C 26.5039 112.46 27.2618 113.898 28.6993 113.898C 30.1211 113.898 30.8985 112.464 30.8985 109.828C 30.8985 108.269 30.6914 107.226 30.2461 106.503C 29.8985 105.929 29.3399 105.605 28.7032 105.605L 28.6993 105.601zM 28.6993 106.5C 29.6328 106.5 30.0977 107.589 30.0977 109.75C 30.0977 112.031 29.6446 113.097 28.6797 113.097C 27.7657 113.097 27.3008 111.988 27.3008 109.781C 27.3008 107.578 27.7618 106.5 28.6993 106.5z"/>
<path style="stroke:none; fill-rule:evenodd; fill:#000000" d="M 32.3985 113.601L 33.3985 113.601L 33.3985 112.402L 32.3985 112.402L 32.3985 113.601z"/>
<path style="stroke:none; fill-rule:evenodd; fill:#000000" d="M 36.8985 105.601C 36.2735 105.601 35.7071 105.933 35.3555 106.5C 34.9219 107.199 34.7032 108.273 34.7032 109.757C 34.7032 112.46 35.461 113.898 36.8985 113.898C 38.3204 113.898 39.0977 112.464 39.0977 109.828C 39.0977 108.269 38.8907 107.226 38.4454 106.503C 38.0977 105.929 37.5391 105.605 36.9024 105.605L 36.8985 105.601zM 36.8985 106.5C 37.8321 106.5 38.2969 107.589 38.2969 109.75C 38.2969 112.031 37.8438 113.097 36.8789 113.097C 35.9649 113.097 35.5 111.988 35.5 109.781C 35.5 107.578 35.961 106.5 36.8985 106.5z"/>
<path style="stroke:none; fill-rule:evenodd; fill:#000000" d="M 44.2383 105.601L 40.6758 105.601L 40.1602 109.941L 40.9649 109.941C 41.3711 109.394 41.7071 109.203 42.2578 109.203C 43.1993 109.203 43.8008 109.941 43.8008 111.136C 43.8008 112.293 43.2149 113 42.2618 113C 41.4961 113 41.0313 112.55 40.8243 111.628L 39.9493 111.628C 40.0625 112.296 40.1602 112.617 40.3672 112.918C 40.7539 113.539 41.4571 113.894 42.2344 113.894C 43.625 113.894 44.6016 112.707 44.6016 110.992C 44.6016 109.394 43.6993 108.296 42.375 108.296C 41.8907 108.296 41.5 108.445 41.1016 108.789L 41.3711 106.593L 44.2422 106.593L 44.2383 105.601z"/>
<path style="stroke:none; fill-rule:evenodd; fill:#000000" d="M 28.3008 88C 27.6758 88 27.1094 88.332 26.7578 88.898C 26.3243 89.597 26.1055 90.671 26.1055 92.156C 26.1055 94.859 26.8633 96.296 28.3008 96.296C 29.7227 96.296 30.5 94.863 30.5 92.226C 30.5 90.668 30.293 89.625 29.8477 88.902C 29.5 88.328 28.9414 88.003 28.3047 88.003L 28.3008 88zM 28.3008 88.898C 29.2344 88.898 29.6993 89.988 29.6993 92.148C 29.6993 94.429 29.2461 95.496 28.2813 95.496C 27.3672 95.496 26.9024 94.386 26.9024 92.179C 26.9024 89.976 27.3633 88.898 28.3008 88.898z"/>
<path style="stroke:none; fill-rule:evenodd; fill:#000000" d="M 31.8985 96L 32.8985 96L 32.8985 94.8L 31.8985 94.8L 31.8985 96z"/>
<path style="stroke:none; fill-rule:evenodd; fill:#000000" d="M 36.5 88C 35.875 88 35.3086 88.332 34.9571 88.898C 34.5235 89.597 34.3047 90.671 34.3047 92.156C 34.3047 94.859 35.0625 96.296 36.5 96.296C 37.9219 96.296 38.6993 94.863 38.6993 92.226C 38.6993 90.668 38.4922 89.625 38.0469 88.902C 37.6993 88.328 37.1407 88.003 36.5039 88.003L 36.5 88zM 36.5 88.898C 37.4336 88.898 37.8985 89.988 37.8985 92.148C 37.8985 94.429 37.4454 95.496 36.4805 95.496C 35.5664 95.496 35.1016 94.386 35.1016 92.179C 35.1016 89.976 35.5625 88.898 36.5 88.898z"/>
<path style="stroke:none; fill-rule:evenodd; fill:#000000" d="M 41.8985 88C 41.2735 88 40.7071 88.332 40.3555 88.898C 39.9219 89.597 39.7032 90.671 39.7032 92.156C 39.7032 94.859 40.461 96.296 41.8985 96.296C 43.3204 96.296 44.0977 94.863 44.0977 92.226C 44.0977 90.668 43.8907 89.625 43.4454 88.902C 43.0977 88.328 42.5391 88.003 41.9024 88.003L 41.8985 88zM 41.8985 88.898C 42.8321 88.898 43.2969 89.988 43.2969 92.148C 43.2969 94.429 42.8438 95.496 41.8789 95.496C 40.9649 95.496 40.5 94.386 40.5 92.179C 40.5 89.976 40.961 88.898 41.8985 88.898z"/>
<path style="stroke:none; fill-rule:evenodd; fill:#000000" d="M 28.3008 70.101C 27.6758 70.101 27.1094 70.433 26.7578 71C 26.3243 71.699 26.1055 72.773 26.1055 74.257C 26.1055 76.96 26.8633 78.398 28.3008 78.398C 29.7227 78.398 30.5 76.964 30.5 74.328C 30.5 72.769 30.293 71.726 29.8477 71.003C 29.5 70.429 28.9414 70.105 28.3047 70.105L 28.3008 70.101zM 28.3008 71C 29.2344 71 29.6993 72.089 29.6993 74.25C 29.6993 76.531 29.2461 77.597 28.2813 77.597C 27.3672 77.597 26.9024 76.488 26.9024 74.281C 26.9024 72.078 27.3633 71 28.3008 71z"/>
<path style="stroke:none; fill-rule:evenodd; fill:#000000" d="M 31.8985 78.101L 32.8985 78.101L 32.8985 76.902L 31.8985 76.902L 31.8985 78.101z"/>
<path style="stroke:none; fill-rule:evenodd; fill:#000000" d="M 36.5 70.101C 35.875 70.101 35.3086 70.433 34.9571 71C 34.5235 71.699 34.3047 72.773 34.3047 74.257C 34.3047 76.96 35.0625 78.398 36.5 78.398C 37.9219 78.398 38.6993 76.964 38.6993 74.328C 38.6993 72.769 38.4922 71.726 38.0469 71.003C 37.6993 70.429 37.1407 70.105 36.5039 70.105L 36.5 70.101zM 36.5 71C 37.4336 71 37.8985 72.089 37.8985 74.25C 37.8985 76.531 37.4454 77.597 36.4805 77.597C 35.5664 77.597 35.1016 76.488 35.1016 74.281C 35.1016 72.078 35.5625 71 36.5 71z"/>
<path style="stroke:none; fill-rule:evenodd; fill:#000000" d="M 43.8399 70.101L 40.2774 70.101L 39.7618 74.441L 40.5664 74.441C 40.9727 73.894 41.3086 73.703 41.8594 73.703C 42.8008 73.703 43.4024 74.441 43.4024 75.636C 43.4024 76.793 42.8164 77.5 41.8633 77.5C 41.0977 77.5 40.6328 77.05 40.4258 76.128L 39.5508 76.128C 39.6641 76.796 39.7618 77.117 39.9688 77.418C 40.3555 78.039 41.0586 78.394 41.836 78.394C 43.2266 78.394 44.2032 77.207 44.2032 75.492C 44.2032 73.894 43.3008 72.796 41.9766 72.796C 41.4922 72.796 41.1016 72.945 40.7032 73.289L 40.9727 71.093L 43.8438 71.093L 43.8399 70.101z"/>
<path style="stroke:none; fill-rule:evenodd; fill:#000000" d="M 28.3008 52.601C 27.6758 52.601 27.1094 52.933 26.7578 53.5C 26.3243 54.199 26.1055 55.273 26.1055 56.757C 26.1055 59.46 26.8633 60.898 28.3008 60.898C 29.7227 60.898 30.5 59.464 30.5 56.828C 30.5 55.269 30.293 54.226 29.8477 53.503C 29.5 52.929 28.9414 52.605 28.3047 52.605L 28.3008 52.601zM 28.3008 53.5C 29.2344 53.5 29.6993 54.589 29.6993 56.75C 29.6993 59.031 29.2461 60.097 28.2813 60.097C 27.3672 60.097 26.9024 58.988 26.9024 56.781C 26.9024 54.578 27.3633 53.5 28.3008 53.5z"/>
<path style="stroke:none; fill-rule:evenodd; fill:#000000" d="M 31.8985 60.601L 32.8985 60.601L 32.8985 59.402L 31.8985 59.402L 31.8985 60.601z"/>
<path style="stroke:none; fill-rule:evenodd; fill:#000000" d="M 36.3985 54.902L 36.3985 60.597L 37.1954 60.597L 37.1954 52.597L 36.6289 52.597C 36.3282 53.828 36.1289 53.996 34.7969 54.187L 34.7969 54.898L 36.3985 54.902z"/>
<path style="stroke:none; fill-rule:evenodd; fill:#000000" d="M 41.8985 52.601C 41.2735 52.601 40.7071 52.933 40.3555 53.5C 39.9219 54.199 39.7032 55.273 39.7032 56.757C 39.7032 59.46 40.461 60.898 41.8985 60.898C 43.3204 60.898 44.0977 59.464 44.0977 56.828C 44.0977 55.269 43.8907 54.226 43.4454 53.503C 43.0977 52.929 42.5391 52.605 41.9024 52.605L 41.8985 52.601zM 41.8985 53.5C 42.8321 53.5 43.2969 54.589 43.2969 56.75C 43.2969 59.031 42.8438 60.097 41.8789 60.097C 40.9649 60.097 40.5 58.988 40.5 56.781C 40.5 54.578 40.961 53.5 41.8985 53.5z"/>
<path style="stroke:none; fill-rule:evenodd; fill:#000000" d="M 28.3008 35C 27.6758 35 27.1094 35.332 26.7578 35.898C 26.3243 36.597 26.1055 37.671 26.1055 39.156C 26.1055 41.859 26.8633 43.296 28.3008 43.296C 29.7227 43.296 30.5 41.863 30.5 39.226C 30.5 37.668 30.293 36.625 29.8477 35.902C 29.5 35.328 28.9414 35.003 28.3047 35.003L 28.3008 35zM 28.3008 35.898C 29.2344 35.898 29.6993 36.988 29.6993 39.148C 29.6993 41.429 29.2461 42.496 28.2813 42.496C 27.3672 42.496 26.9024 41.386 26.9024 39.179C 26.9024 36.976 27.3633 35.898 28.3008 35.898z"/>
<path style="stroke:none; fill-rule:evenodd; fill:#000000" d="M 31.8985 43L 32.8985 43L 32.8985 41.8L 31.8985 41.8L 31.8985 43z"/>
<path style="stroke:none; fill-rule:evenodd; fill:#000000" d="M 36.3985 37.304L 36.3985 43L 37.1954 43L 37.1954 35L 36.6289 35C 36.3282 36.23 36.1289 36.398 34.7969 36.589L 34.7969 37.3L 36.3985 37.304z"/>
<path style="stroke:none; fill-rule:evenodd; fill:#000000" d="M 43.8399 35L 40.2774 35L 39.7618 39.339L 40.5664 39.339C 40.9727 38.793 41.3086 38.601 41.8594 38.601C 42.8008 38.601 43.4024 39.339 43.4024 40.535C 43.4024 41.691 42.8164 42.398 41.8633 42.398C 41.0977 42.398 40.6328 41.949 40.4258 41.027L 39.5508 41.027C 39.6641 41.695 39.7618 42.015 39.9688 42.316C 40.3555 42.937 41.0586 43.293 41.836 43.293C 43.2266 43.293 44.2032 42.105 44.2032 40.39C 44.2032 38.793 43.3008 37.695 41.9766 37.695C 41.4922 37.695 41.1016 37.843 40.7032 38.187L 40.9727 35.992L 43.8438 35.992L 43.8399 35z"/>
<path style="stroke:none; fill-rule:evenodd; fill:#000000" d="M 28.3008 17.101C 27.6758 17.101 27.1094 17.433 26.7578 18C 26.3243 18.699 26.1055 19.773 26.1055 21.257C 26.1055 23.96 26.8633 25.398 28.3008 25.398C 29.7227 25.398 30.5 23.964 30.5 21.328C 30.5 19.769 30.293 18.726 29.8477 18.003C 29.5 17.429 28.9414 17.105 28.3047 17.105L 28.3008 17.101zM 28.3008 18C 29.2344 18 29.6993 19.089 29.6993 21.25C 29.6993 23.531 29.2461 24.597 28.2813 24.597C 27.3672 24.597 26.9024 23.488 26.9024 21.281C 26.9024 19.078 27.3633 18 28.3008 18z"/>
<path style="stroke:none; fill-rule:evenodd; fill:#000000" d="M 31.8985 25.101L 32.8985 25.101L 32.8985 23.902L 31.8985 23.902L 31.8985 25.101z"/>
<path style="stroke:none; fill-rule:evenodd; fill:#000000" d="M 38.75 24.101L 35.1016 24.101C 35.1875 23.449 35.5 23.035 36.3516 22.46L 37.3282 21.855C 38.293 21.25 38.793 20.429 38.793 19.449C 38.793 18.789 38.5586 18.168 38.1485 17.738C 37.7383 17.312 37.2305 17.109 36.5743 17.109C 35.6954 17.109 35.0391 17.464 34.6563 18.136C 34.4141 18.558 34.3047 19.054 34.2852 19.859L 35.1641 19.859C 35.1914 19.336 35.2539 19.015 35.3711 18.765C 35.5977 18.296 36.0586 18.011 36.5899 18.011C 37.3868 18.011 37.9883 18.652 37.9883 19.503C 37.9883 20.132 37.6602 20.671 37.0313 21.074L 36.1133 21.656C 34.6368 22.597 34.2071 23.351 34.1289 25.101L 38.7461 25.101L 38.75 24.101z"/>
<path style="stroke:none; fill-rule:evenodd; fill:#000000" d="M 41.8985 17.101C 41.2735 17.101 40.7071 17.433 40.3555 18C 39.9219 18.699 39.7032 19.773 39.7032 21.257C 39.7032 23.96 40.461 25.398 41.8985 25.398C 43.3204 25.398 44.0977 23.964 44.0977 21.328C 44.0977 19.769 43.8907 18.726 43.4454 18.003C 43.0977 17.429 42.5391 17.105 41.9024 17.105L 41.8985 17.101zM 41.8985 18C 42.8321 18 43.2969 19.089 43.2969 21.25C 43.2969 23.531 42.8438 24.597 41.8789 24.597C 40.9649 24.597 40.5 23.488 40.5 21.281C 40.5 19.078 40.961 18 41.8985 18z"/>
<path style="stroke:none; fill-rule:evenodd; fill:#000000" d="M 5.5547 141.824L 7.0977 141.281L 7.0977 139.539L 0 142.39L 0 144.269L 7.0977 147.203L 7.0977 145.472L 5.5547 144.918L 5.5547 141.824zM 4.3985 142.289L 4.3985 144.441L 1.6485 143.367L 4.3985 142.289z"/>
<path style="stroke:none; fill-rule:evenodd; fill:#000000" d="M 4.4571 136.699L 4.4571 134.589C 4.4571 133.078 3.5547 132.105 2.1485 132.105C 0.761801 132.105 0.00390053 133.046 0.00390053 134.777L 0.00390053 138.437L 7.1016 138.437L 7.1016 136.703L 4.4571 136.699zM 3.3008 136.699L 1.1602 136.699L 1.1602 135.14C 1.1602 134.25 1.5 133.839 2.2344 133.839C 2.9571 133.839 3.2969 134.25 3.2969 135.14L 3.3008 136.699z"/>
<path style="stroke:none; fill-rule:evenodd; fill:#000000" d="M 4.3008 129.101L 4.3008 127.14C 4.3008 126.402 4.5508 126.082 5.1407 126.082C 5.1954 126.082 5.293 126.082 5.418 126.089C 5.6016 126.097 5.7735 126.097 5.8828 126.097C 6.5391 126.097 6.7539 126.054 7.0938 125.836L 7.0938 124.031L 6.8321 124.031C 6.7071 124.246 6.5625 124.347 6.25 124.347C 4.1602 124.39 4.0625 124.437 3.6719 125.492C 3.3633 124.566 2.7891 124.101 1.9219 124.101C 1.3594 124.101 0.843801 124.328 0.492201 124.73C 0.164101 125.109 0.00780106 125.632 0.00780106 126.347L 0.00780106 130.832L 7.1055 130.832L 7.1055 129.097L 4.3008 129.101zM 3.1446 129.101L 1.1602 129.101L 1.1602 127.046C 1.1602 126.558 1.1993 126.355 1.3555 126.152C 1.5118 125.949 1.7735 125.847 2.125 125.847C 2.4883 125.847 2.7813 125.96 2.9375 126.152C 3.0821 126.332 3.1328 126.558 3.1328 127.046L 3.1446 129.101z"/>
<path style="stroke:none; fill-rule:evenodd; fill:#000000" d="M 4.2422 119.949L 5.3985 119.949L 5.3985 114.242L 4.2422 114.242L 4.2422 119.949z"/>
<path style="stroke:none; fill-rule:evenodd; fill:#000000" d="M 5.5547 104.921L 7.0977 104.378L 7.0977 102.636L 0 105.488L 0 107.367L 7.0977 110.3L 7.0977 108.57L 5.5547 108.015L 5.5547 104.921zM 4.3985 105.386L 4.3985 107.539L 1.6485 106.464L 4.3985 105.386z"/>
<path style="stroke:none; fill-rule:evenodd; fill:#000000" d="M 7.1016 97.902L 0.00390053 95.07L 0.00390053 96.781L 5.3399 98.582L 0.00390053 100.418L 0.00390053 102.128L 7.1016 99.343L 7.1016 97.902z"/>
<path style="stroke:none; fill-rule:evenodd; fill:#000000" d="M 7.1016 94.035L 7.1016 90.812C 7.1016 89.558 6.8516 88.765 6.2774 88.21C 5.6172 87.558 4.6524 87.203 3.5508 87.203C 2.461 87.203 1.4961 87.554 0.824301 88.21C 0.25 88.765 0.00780106 89.546 0.00780106 90.812L 0.00780106 94.035L 7.1016 94.035zM 5.9414 92.3L 1.1602 92.3L 1.1602 90.808C 1.1602 89.558 1.9493 88.941 3.5547 88.941C 5.1524 88.941 5.9414 89.558 5.9414 90.808L 5.9414 92.3z"/>
<path style="stroke:none; fill-rule:evenodd; fill:#000000" d="M 7.1016 75.328L 0.00390053 73.043L 0.00390053 74.843L 5.3204 76.078L 0.00390053 77.414L 0.00390053 79.089L 5.3086 80.367L 0.00390053 81.644L 0.00390053 83.445L 7.1016 81.113L 7.1016 79.586L 1.5313 78.238L 7.1016 76.859L 7.1016 75.328z"/>
<path style="stroke:none; fill-rule:evenodd; fill:#000000" d="M 4.8985 66.964C 4.7813 66.957 4.7305 66.957 4.6641 66.957C 4.1328 66.957 3.6368 67.046 3.2578 67.191C 2.2891 67.597 1.7032 68.582 1.7032 69.82C 1.7032 71.574 2.7969 72.652 4.5704 72.652C 6.2618 72.652 7.3008 71.589 7.3008 69.855C 7.3008 68.488 6.6368 67.375 5.6133 67.027L 5.6133 68.589C 6.0196 68.781 6.2578 69.222 6.2578 69.8C 6.2578 70.253 6.0977 70.613 5.8086 70.843C 5.6211 70.988 5.3907 71.046 4.9024 71.07L 4.8985 66.964zM 3.9727 71.043C 3.1524 70.941 2.7422 70.546 2.7422 69.843C 2.7422 69.449 2.9102 69.086 3.1914 68.859C 3.3907 68.714 3.6016 68.644 3.9727 68.613L 3.9727 71.043z"/>
<path style="stroke:none; fill-rule:evenodd; fill:#000000" d="M 1.8125 64.179L 1.8125 65.796L 7.0977 65.796L 7.0977 64.179L 1.8125 64.179zM 0 64.179L 0 65.796L 1.1563 65.796L 1.1563 64.179L 0 64.179z"/>
<path style="stroke:none; fill-rule:evenodd; fill:#000000" d="M 1.7891 58.8L 2.5977 58.8C 1.9727 59.273 1.6993 59.789 1.6993 60.484C 1.6993 61.918 2.9219 62.996 4.5547 62.996C 6.1993 62.996 7.293 62.011 7.293 60.515C 7.293 59.812 7.1133 59.382 6.5586 58.796L 7.2383 58.796C 7.8438 58.796 8.2657 59.347 8.2657 60.136C 8.2657 60.73 8.0782 61.125 7.7305 61.25L 7.7305 62.882C 8.1289 62.875 8.4063 62.691 8.6954 62.285C 9.0274 61.8 9.1914 61.125 9.1914 60.187C 9.1914 58.351 8.4805 57.289 7.2383 57.289L 1.7852 57.289L 1.7891 58.8zM 2.8555 60.113C 2.8555 59.336 3.5625 58.757 4.5352 58.757C 5.4844 58.757 6.1368 59.324 6.1368 60.136C 6.1368 60.867 5.4883 61.378 4.5352 61.378C 3.5469 61.378 2.8555 60.867 2.8555 60.113z"/>
<path style="stroke:none; fill-rule:evenodd; fill:#000000" d="M 0 55.699L 7.0977 55.699L 7.0977 54.082L 3.9024 54.082C 3.293 54.082 2.8594 53.605 2.8594 52.937C 2.8594 52.621 2.9649 52.367 3.1836 52.195C 3.3594 52.07 3.4961 52.027 3.8438 52.027L 7.0977 52.027L 7.0977 50.41L 3.5391 50.41C 2.8828 50.41 2.4102 50.605 2.1055 51.015C 1.8516 51.355 1.7032 51.851 1.7032 52.347C 1.7032 53.105 1.9844 53.656 2.5782 54.086L 0.00390053 54.086L 0 55.699z"/>
<path style="stroke:none; fill-rule:evenodd; fill:#000000" d="M 1.8985 46.187L 1.8985 47.097L 0.503901 47.097L 0.503901 48.714L 1.8985 48.714L 1.8985 49.433L 2.8243 49.433L 2.8243 48.714L 6.0586 48.714C 6.8868 48.714 7.293 48.195 7.293 47.125C 7.293 46.765 7.2657 46.476 7.1914 46.187L 6.2578 46.187C 6.2578 46.347 6.2578 46.441 6.2578 46.558C 6.2578 46.988 6.1524 47.093 5.6875 47.093L 2.8321 47.093L 2.8321 46.183L 1.8985 46.187z"/>
<path style="stroke:none; fill-rule:evenodd; fill:#000000" d="M 3.5157 40.078C 2.3868 40.101 1.6993 41.109 1.6993 42.773C 1.6993 44.343 2.3789 45.316 3.4727 45.316C 3.8243 45.316 4.1328 45.191 4.3399 44.972C 4.5235 44.753 4.6133 44.562 4.7813 43.96L 5.293 42.043C 5.3985 41.64 5.5078 41.503 5.7266 41.503C 6.0508 41.503 6.2461 41.941 6.2461 42.679C 6.2461 43.086 6.1797 43.414 6.0586 43.617C 5.9532 43.785 5.8399 43.851 5.5547 43.921L 5.5547 45.468C 6.6914 45.425 7.2891 44.433 7.2891 42.566C 7.2891 41.714 7.1328 41.066 6.8164 40.609C 6.5039 40.156 6.0078 39.882 5.4883 39.882C 4.8008 39.882 4.3555 40.285 4.1485 41.101L 3.6446 43.136C 3.5274 43.582 3.4493 43.699 3.2344 43.699C 2.9414 43.699 2.7422 43.336 2.7422 42.777C 2.7422 42.011 2.9961 41.636 3.5157 41.625L 3.5157 40.078z"/>
<path style="stroke:none; fill-rule:evenodd; fill:#000000" d="M 108.2 2.89801L 107.2 2.89801L 107.2 10.398L 108.2 10.398L 108.2 2.89801zM 108.2 0L 107.2 0L 107.2 1.492L 108.2 1.492L 108.2 0z"/>
<path style="stroke:none; fill-rule:evenodd; fill:#000000" d="M 110.102 2.914L 110.102 10.398L 111.102 10.398L 111.102 6.246C 111.102 4.71002 111.793 3.703 112.86 3.703C 113.676 3.703 114.196 4.27701 114.196 5.18301L 114.196 10.398L 115.196 10.398L 115.196 4.742C 115.196 3.5 114.395 2.69901 113.145 2.69901C 112.184 2.69901 111.567 3.125 110.997 4.168L 110.997 2.914L 110.102 2.914z"/>
<path style="stroke:none; fill-rule:evenodd; fill:#000000" d="M 119.2 2.89801L 118.102 2.89801L 118.102 0.867004L 117.102 0.867004L 117.102 2.89801L 116.204 2.89801L 116.204 3.89801L 117.102 3.89801L 117.102 9.51501C 117.102 10.265 117.547 10.691 118.356 10.691C 118.602 10.691 118.852 10.664 119.2 10.597L 119.2 9.625C 119.059 9.67502 118.895 9.69101 118.688 9.69101C 118.227 9.69101 118.102 9.55002 118.102 9.02301L 118.102 3.89801L 119.2 3.89801L 119.2 2.89801z"/>
<path style="stroke:none; fill-rule:evenodd; fill:#000000" d="M 125.997 9.703C 125.883 9.703 125.836 9.703 125.77 9.703C 125.407 9.703 125.204 9.492 125.204 9.121L 125.204 4.742C 125.204 3.42102 124.372 2.71002 122.786 2.71002C 121.856 2.71002 121.082 3.02301 120.649 3.582C 120.356 3.96802 120.231 4.39401 120.207 5.14001L 121.243 5.14001C 121.329 4.22202 121.797 3.80402 122.758 3.80402C 123.68 3.80402 124.2 4.19901 124.2 4.914L 124.2 5.22601C 124.2 5.72202 123.946 5.93701 123.149 6.05002C 121.723 6.26102 121.504 6.32001 121.118 6.50302C 120.383 6.85901 120.008 7.52701 120.008 8.492C 120.008 9.84302 120.809 10.695 122.098 10.695C 122.899 10.695 123.543 10.378 124.258 9.62802C 124.329 10.363 124.645 10.695 125.301 10.695C 125.504 10.695 125.664 10.668 125.993 10.57L 125.997 9.703zM 124.2 8.05002C 124.2 8.44901 124.102 8.69501 123.797 9.02301C 123.379 9.46402 122.875 9.69501 122.274 9.69501C 121.477 9.69501 121.008 9.25302 121.008 8.492C 121.008 7.707 121.461 7.30402 122.559 7.117C 123.641 6.94501 123.864 6.89001 124.207 6.703L 124.2 8.05002z"/>
<path style="stroke:none; fill-rule:evenodd; fill:#000000" d="M 132.106 5.43301C 132.059 4.69901 131.922 4.21802 131.676 3.80002C 131.235 3.11301 130.461 2.703 129.567 2.703C 127.836 2.703 126.707 4.29602 126.707 6.77301C 126.707 9.17502 127.813 10.699 129.555 10.699C 131.09 10.699 132.059 9.64001 132.184 7.832L 131.137 7.832C 130.965 9.00702 130.426 9.59702 129.543 9.59702C 128.399 9.59702 127.711 8.535 127.711 6.77301C 127.711 4.914 128.383 3.80402 129.52 3.80402C 130.391 3.80402 130.942 4.39001 131.067 5.43701L 132.106 5.43301z"/>
<path style="stroke:none; fill-rule:evenodd; fill:#000000" d="M 135.7 2.89801L 134.602 2.89801L 134.602 0.867004L 133.602 0.867004L 133.602 2.89801L 132.704 2.89801L 132.704 3.89801L 133.602 3.89801L 133.602 9.51501C 133.602 10.265 134.047 10.691 134.856 10.691C 135.102 10.691 135.352 10.664 135.7 10.597L 135.7 9.625C 135.559 9.67502 135.395 9.69101 135.188 9.69101C 134.727 9.69101 134.602 9.55002 134.602 9.02301L 134.602 3.89801L 135.7 3.89801L 135.7 2.89801z"/>
<path style="stroke:none; fill-rule:evenodd; fill:#000000" d="M 140.2 2.914L 140.2 10.398L 141.2 10.398L 141.2 5.67102C 141.2 4.582 141.872 3.703 142.707 3.703C 143.465 3.703 143.895 4.25 143.895 5.21002L 143.895 10.398L 144.895 10.398L 144.895 5.67102C 144.895 4.582 145.594 3.703 146.457 3.703C 147.231 3.703 147.692 4.26102 147.692 5.21002L 147.692 10.398L 148.692 10.398L 148.692 4.785C 148.692 3.44501 148.024 2.69901 146.813 2.69901C 145.95 2.69901 145.43 3 144.825 3.84702C 144.442 3.043 143.926 2.69901 143.086 2.69901C 142.223 2.69901 141.657 3.07001 141.098 3.96802L 141.098 2.914L 140.2 2.914z"/>
<path style="stroke:none; fill-rule:evenodd; fill:#000000" d="M 152.989 2.69901C 151.192 2.69901 150.102 4.19101 150.102 6.69901C 150.102 9.203 151.176 10.699 153 10.699C 154.797 10.699 155.899 9.207 155.899 6.75702C 155.899 4.18301 154.836 2.703 152.989 2.703L 152.989 2.69901zM 153 3.80002C 154.188 3.80002 154.899 4.89401 154.899 6.742C 154.899 8.48801 154.164 9.59702 153 9.59702C 151.825 9.59702 151.102 8.50302 151.102 6.69901C 151.102 4.91 151.821 3.80002 153 3.80002z"/>
<path style="stroke:none; fill-rule:evenodd; fill:#000000" d="M 162.5 0L 161.5 0L 161.5 3.86301C 161.075 3.10101 160.395 2.69901 159.54 2.69901C 157.887 2.69901 156.801 4.25 156.801 6.625C 156.801 9.14401 157.856 10.695 159.571 10.695C 160.446 10.695 161.051 10.32 161.598 9.414L 161.598 10.394L 162.497 10.394L 162.5 0zM 159.68 3.80002C 160.793 3.80002 161.497 4.94101 161.497 6.72601C 161.497 8.453 160.782 9.59302 159.692 9.59302C 158.555 9.59302 157.801 8.43701 157.801 6.69501C 157.801 4.953 158.555 3.79602 159.68 3.79602L 159.68 3.80002z"/>
<path style="stroke:none; fill-rule:evenodd; fill:#000000" d="M 169.602 7.10101C 169.602 5.94901 169.528 5.25702 169.344 4.69501C 168.93 3.457 167.95 2.707 166.747 2.707C 164.957 2.707 163.805 4.30002 163.805 6.75C 163.805 9.19501 164.922 10.703 166.735 10.703C 168.211 10.703 169.235 9.746 169.493 8.13602L 168.442 8.13602C 168.157 9.10101 167.567 9.60101 166.731 9.60101C 166.071 9.60101 165.508 9.26901 165.157 8.66C 164.907 8.246 164.821 7.828 164.809 7.10501L 169.602 7.10101zM 164.891 6.08902C 164.977 4.707 165.704 3.80801 166.739 3.80801C 167.747 3.80801 168.524 4.77701 168.524 6.00302C 168.524 6.03101 168.524 6.05801 168.512 6.08902L 164.891 6.08902z"/>
<path style="stroke:none; fill-rule:evenodd; fill:#000000" d="M 171 10.398L 172 10.398L 172 0L 171 0L 171 10.398z"/>
<path style="stroke:#000000; stroke-width:1.9133; fill:none" d="M 54.0821 94.82L 75.4727 94.82L 75.4727 38.168L 54.0821 38.168L 54.0821 94.82z"/>
<path style="stroke:#000000; stroke-width:1.9133; fill:none" d="M 83.0196 94.062L 104.411 94.062L 104.411 67.625L 83.0196 67.625L 83.0196 94.062z"/>
<path style="stroke:#000000; stroke-width:1.9133; fill:none" d="M 111.954 93.632L 133.344 93.632L 133.344 84.402L 111.954 84.402L 111.954 93.632z"/>
<path style="stroke:#000000; stroke-width:1.9133; fill:none" d="M 140.891 94.218L 162.282 94.218L 162.282 93.382L 140.891 93.382L 140.891 94.218z"/>
<path style="stroke:#000000; stroke-width:1.9133; fill:none" d="M 169.829 125.316L 191.219 125.316L 191.219 92.586L 169.829 92.586L 169.829 125.316z"/>
<path style="stroke:#000000; stroke-width:1.9133; fill:none" d="M 198.762 159.683L 220.153 159.683L 220.153 91.703L 198.762 91.703L 198.762 159.683z"/>
<path style="stroke:#000000; stroke-width:1.9133; fill:none" d="M 64.6094 42.089L 64.6094 37.476"/>
<path style="stroke:#000000; stroke-width:1.9133; fill:none" d="M 93.8866 70.812L 93.8866 65.359"/>
<path style="stroke:#000000; stroke-width:1.9133; fill:none" d="M 122.825 87.148L 122.825 82.113"/>
<path style="stroke:#000000; stroke-width:1.9133; fill:none" d="M 151.758 96.296L 151.758 92.101"/>
<path style="stroke:#000000; stroke-width:1.9133; fill:none" d="M 180.696 128.273L 180.696 120.722"/>
<path style="stroke:#000000; stroke-width:1.9133; fill:none" d="M 209.633 160.515L 209.633 155.062"/>
<path style="stroke:#000000; stroke-width:1.9133; fill:none" d="M 60.6094 41.972L 68.9493 41.972"/>
<path style="stroke:#000000; stroke-width:1.9133; fill:none" d="M 60.6094 37.589L 68.9493 37.589"/>
<path style="stroke:#000000; stroke-width:1.9133; fill:none" d="M 89.5466 70.675L 97.8866 70.675"/>
<path style="stroke:#000000; stroke-width:1.9133; fill:none" d="M 89.5466 65.496L 97.8866 65.496"/>
<path style="stroke:#000000; stroke-width:1.9133; fill:none" d="M 118.481 87.023L 126.821 87.023"/>
<path style="stroke:#000000; stroke-width:1.9133; fill:none" d="M 118.481 82.238L 126.821 82.238"/>
<path style="stroke:#000000; stroke-width:1.9133; fill:none" d="M 147.418 96.191L 155.758 96.191"/>
<path style="stroke:#000000; stroke-width:1.9133; fill:none" d="M 147.418 92.207L 155.758 92.207"/>
<path style="stroke:#000000; stroke-width:1.9133; fill:none" d="M 176.356 128.086L 184.696 128.086"/>
<path style="stroke:#000000; stroke-width:1.9133; fill:none" d="M 176.356 120.91L 184.696 120.91"/>
<path style="stroke:#000000; stroke-width:1.9133; fill:none" d="M 205.29 160.378L 213.629 160.378"/>
<path style="stroke:#000000; stroke-width:1.9133; fill:none" d="M 205.29 155.195L 213.629 155.195"/>
<path style="stroke:#000000; stroke-width:1.9133; fill:none" d="M 51.1758 164.312L 224.012 164.312L 224.012 20.035L 51.1758 20.035L 51.1758 164.312z"/>
<path style="stroke:#000000; stroke-width:1.9133; fill:none" d="M 230.442 29.796L 230.442 156.257"/>
<path style="stroke:#000000; stroke-width:1.9133; fill:none" d="M 228.532 37.449L 230.442 29.796L 232.352 37.449"/>
<path style="stroke:#000000; stroke-width:1.9133; fill:none" d="M 232.356 148.609L 230.446 156.261L 228.536 148.609"/>
<path style="stroke:#000000; stroke-width:1.9133; fill:none" d="M 231.481 93.851C 231.481 93.191 231.02 92.656 230.446 92.656C 229.875 92.656 229.411 93.191 229.411 93.851C 229.411 94.511 229.872 95.046 230.446 95.046C 231.016 95.046 231.481 94.511 231.481 93.851"/>
<path style="stroke:none; fill-rule:evenodd; fill:#000000" d="M 249.668 58.3L 242.903 58.3L 242.903 51.586L 240.606 51.586L 240.606 58.3L 233.934 58.3L 233.934 60.597L 240.606 60.597L 240.606 67.32L 242.903 67.32L 242.903 60.597L 249.668 60.597L 249.668 58.3z"/>
<path style="stroke:none; fill-rule:evenodd; fill:#000000" d="M 234.5 120.898L 250.899 120.898L 250.899 118.601L 234.5 118.601L 234.5 120.898z"/>
</g>
</svg>