<?xml version="1.0" encoding="UTF-8" standalone="no"?>
<!-- Created with Inkscape (http://www.inkscape.org/) -->

<svg
   xmlns:dc="http://purl.org/dc/elements/1.1/"
   xmlns:cc="http://creativecommons.org/ns#"
   xmlns:rdf="http://www.w3.org/1999/02/22-rdf-syntax-ns#"
   xmlns:svg="http://www.w3.org/2000/svg"
   xmlns="http://www.w3.org/2000/svg"
   xmlns:sodipodi="http://sodipodi.sourceforge.net/DTD/sodipodi-0.dtd"
   xmlns:inkscape="http://www.inkscape.org/namespaces/inkscape"
   id="svg2"
   version="1.1"
   inkscape:version="0.47 r22583"
   width="256.25"
   height="262.5"
   xml:space="preserve"
   sodipodi:docname="fig_objrec_objs.svg"
   inkscape:export-filename="/Users/oreilly/svn_docs/figs/fig_objrec_objs.png"
   inkscape:export-xdpi="150"
   inkscape:export-ydpi="150"><metadata
     id="metadata8"><rdf:RDF><cc:Work
         rdf:about=""><dc:format>image/svg+xml</dc:format><dc:type
           rdf:resource="http://purl.org/dc/dcmitype/StillImage" /><dc:title></dc:title></cc:Work></rdf:RDF></metadata><defs
     id="defs6"><inkscape:perspective
       sodipodi:type="inkscape:persp3d"
       inkscape:vp_x="0 : 0.5 : 1"
       inkscape:vp_y="0 : 1000 : 0"
       inkscape:vp_z="1 : 0.5 : 1"
       inkscape:persp3d-origin="0.5 : 0.33333333 : 1"
       id="perspective10" /></defs><sodipodi:namedview
     pagecolor="#ffffff"
     bordercolor="#666666"
     borderopacity="1"
     objecttolerance="10"
     gridtolerance="10"
     guidetolerance="10"
     inkscape:pageopacity="0"
     inkscape:pageshadow="2"
     inkscape:window-width="640"
     inkscape:window-height="480"
     id="namedview4"
     showgrid="false"
     inkscape:zoom="1.7980952"
     inkscape:cx="129.97132"
     inkscape:cy="164.37519"
     inkscape:current-layer="g12" /><g
     id="g12"
     inkscape:groupmode="layer"
     inkscape:label="fig_objrec_objs"
     transform="matrix(1.25,0,0,-1.25,0,262.5)"><rect
       style="fill:#ffffff;fill-opacity:1;fill-rule:nonzero;stroke:#ffffff;stroke-width:1.59185934;stroke-miterlimit:4;stroke-opacity:1;stroke-dasharray:none;stroke-dashoffset:0"
       id="rect3417"
       width="214.01239"
       height="215.34711"
       x="-4.0083075"
       y="-212.22865"
       transform="scale(1,-1)" /><path
       id="path20"
       style="fill:none;stroke:#000000;stroke-width:0.95698005;stroke-linecap:butt;stroke-linejoin:miter;stroke-miterlimit:10;stroke-opacity:1;stroke-dasharray:none"
       d="m 43.7629,1.13945 3.82812,0 0,34.4516 -3.82812,0 0,-34.4516 z" /><path
       id="path30"
       style="fill:none;stroke:#000000;stroke-width:0.95698005;stroke-linecap:butt;stroke-linejoin:miter;stroke-miterlimit:10;stroke-opacity:1;stroke-dasharray:none"
       d="m 74.3863,1.13945 3.82773,0 0,34.4516 -3.82773,0 0,-34.4516 z" /><path
       id="path32"
       style="fill:none;stroke:#000000;stroke-width:0.95698005;stroke-linecap:butt;stroke-linejoin:miter;stroke-miterlimit:10;stroke-opacity:1;stroke-dasharray:none"
       d="m 43.7629,16.4512 34.4512,0 0,3.82812 -34.4512,0 0,-3.82812 z" /><path
       id="path38"
       style="fill:none;stroke:#000000;stroke-width:0.95698005;stroke-linecap:butt;stroke-linejoin:miter;stroke-miterlimit:10;stroke-opacity:1;stroke-dasharray:none"
       d="m 85.8699,1.13945 3.82812,0 0,34.4516 -3.82812,0 0,-34.4516 z" /><path
       id="path44"
       style="fill:none;stroke:#000000;stroke-width:0.95698005;stroke-linecap:butt;stroke-linejoin:miter;stroke-miterlimit:10;stroke-opacity:1;stroke-dasharray:none"
       d="m 101.182,1.13945 3.82812,0 0,34.4516 -3.82812,0 0,-34.4516 z" /><path
       id="path50"
       style="fill:none;stroke:#000000;stroke-width:0.95698005;stroke-linecap:butt;stroke-linejoin:miter;stroke-miterlimit:10;stroke-opacity:1;stroke-dasharray:none"
       d="m 85.8699,16.4512 34.4516,0 0,3.82812 -34.4516,0 0,-3.82812 z" /><path
       id="path52"
       style="fill:none;stroke:#000000;stroke-width:0.95698005;stroke-linecap:butt;stroke-linejoin:miter;stroke-miterlimit:10;stroke-opacity:1;stroke-dasharray:none"
       d="m 127.977,31.7629 34.4512,0 0,3.82812 -34.4512,0 0,-3.82812 z" /><path
       id="path54"
       style="fill:none;stroke:#000000;stroke-width:0.95698005;stroke-linecap:butt;stroke-linejoin:miter;stroke-miterlimit:10;stroke-opacity:1;stroke-dasharray:none"
       d="m 127.977,1.13945 3.82773,0 0,34.4516 -3.82773,0 0,-34.4516 z" /><path
       id="path58"
       style="fill:#ff0000;stroke:#000000;stroke-width:0.95698004999999997;stroke-linecap:butt;stroke-linejoin:miter;stroke-miterlimit:10;stroke-opacity:1;stroke-dasharray:none"
       d="m 127.977,1.13945 34.4512,0 0,3.82812 -34.4512,0 0,-3.82812 z" /><path
       id="path68"
       style="fill:none;stroke:#000000;stroke-width:0.95698005;stroke-linecap:butt;stroke-linejoin:miter;stroke-miterlimit:10;stroke-opacity:1;stroke-dasharray:none"
       d="m 127.977,16.4512 34.4512,0 0,3.82812 -34.4512,0 0,-3.82812 z" /><path
       id="path70"
       style="fill:none;stroke:#000000;stroke-width:0.95698005;stroke-linecap:butt;stroke-linejoin:miter;stroke-miterlimit:10;stroke-opacity:1;stroke-dasharray:none"
       d="m 170.084,31.7629 34.4512,0 0,3.82812 -34.4512,0 0,-3.82812 z" /><path
       id="path76"
       style="fill:none;stroke:#000000;stroke-width:0.95698005;stroke-linecap:butt;stroke-linejoin:miter;stroke-miterlimit:10;stroke-opacity:1;stroke-dasharray:none"
       d="m 170.084,1.13945 34.4512,0 0,3.82812 -34.4512,0 0,-3.82812 z" /><path
       id="path78"
       style="fill:none;stroke:#000000;stroke-width:0.95698005;stroke-linecap:butt;stroke-linejoin:miter;stroke-miterlimit:10;stroke-opacity:1;stroke-dasharray:none"
       d="m 185.396,1.13945 3.82773,0 0,34.4516 -3.82773,0 0,-34.4516 z" /><path
       id="path88"
       style="fill:none;stroke:#000000;stroke-width:0.95698005;stroke-linecap:butt;stroke-linejoin:miter;stroke-miterlimit:10;stroke-opacity:1;stroke-dasharray:none"
       d="m 1.65586,31.7629 34.4512,0 0,3.82812 -34.4512,0 0,-3.82812 z" /><path
       id="path90"
       style="fill:none;stroke:#000000;stroke-width:0.95698005;stroke-linecap:butt;stroke-linejoin:miter;stroke-miterlimit:10;stroke-opacity:1;stroke-dasharray:none"
       d="m 1.65586,1.13945 3.82773,0 0,34.4516 -3.82773,0 0,-34.4516 z" /><path
       id="path92"
       style="fill:none;stroke:#000000;stroke-width:0.95698005;stroke-linecap:butt;stroke-linejoin:miter;stroke-miterlimit:10;stroke-opacity:1;stroke-dasharray:none"
       d="m 1.65586,1.13945 34.4512,0 0,3.82812 -34.4512,0 0,-3.82812 z" /><path
       id="path96"
       style="fill:#ff0000;stroke:#000000;stroke-width:0.95698004999999997;stroke-linecap:butt;stroke-linejoin:miter;stroke-miterlimit:10;stroke-opacity:1;stroke-dasharray:none"
       d="m 16.9676,1.13945 3.82773,0 0,34.4516 -3.82773,0 0,-34.4516 z" /><path
       id="path100"
       style="fill:#ff0000;stroke:#000000;stroke-width:0.95698004999999997;stroke-linecap:butt;stroke-linejoin:miter;stroke-miterlimit:10;stroke-opacity:1;stroke-dasharray:none"
       d="m 32.2793,1.13945 3.82773,0 0,34.4516 -3.82773,0 0,-34.4516 z" /><path
       id="path104"
       style="fill:#ff0000;stroke:#000000;stroke-width:0.95698004999999997;stroke-linecap:butt;stroke-linejoin:miter;stroke-miterlimit:10;stroke-opacity:1;stroke-dasharray:none"
       d="m 1.65586,16.4512 34.4512,0 0,3.82812 -34.4512,0 0,-3.82812 z" /><g
       id="g106"><text
         id="text108"
         transform="matrix(1,0,0,-1,1.65586,38.8637)"><tspan
           id="tspan110"
           sodipodi:role="line"
           y="0"
           x="0 42.107189 84.214378 126.32191 168.42911"
           style="font-size:11.48379993px;font-variant:normal;font-weight:normal;writing-mode:lr-tb;fill:#000000;fill-opacity:1;fill-rule:nonzero;stroke:none;font-family:Helvetica;-inkscape-font-specification:Helvetica">01234</tspan></text>
</g><path
       id="path112"
       style="fill:none;stroke:#000000;stroke-width:0.95698005;stroke-linecap:butt;stroke-linejoin:miter;stroke-miterlimit:10;stroke-opacity:1;stroke-dasharray:none"
       d="m 85.8699,85.3539 34.4516,0 0,3.82773 -34.4516,0 0,-3.82773 z" /><path
       id="path126"
       style="fill:none;stroke:#000000;stroke-width:0.95698005;stroke-linecap:butt;stroke-linejoin:miter;stroke-miterlimit:10;stroke-opacity:1;stroke-dasharray:none"
       d="m 116.493,54.7305 3.82812,0 0,34.4512 -3.82812,0 0,-34.4512 z" /><path
       id="path128"
       style="fill:none;stroke:#000000;stroke-width:0.95698005;stroke-linecap:butt;stroke-linejoin:miter;stroke-miterlimit:10;stroke-opacity:1;stroke-dasharray:none"
       d="m 85.8699,70.0422 34.4516,0 0,3.82773 -34.4516,0 0,-3.82773 z" /><path
       id="path130"
       style="fill:none;stroke:#000000;stroke-width:0.95698005;stroke-linecap:butt;stroke-linejoin:miter;stroke-miterlimit:10;stroke-opacity:1;stroke-dasharray:none"
       d="m 1.65586,85.3539 34.4512,0 0,3.82773 -34.4512,0 0,-3.82773 z" /><path
       id="path136"
       style="fill:none;stroke:#000000;stroke-width:0.95698005;stroke-linecap:butt;stroke-linejoin:miter;stroke-miterlimit:10;stroke-opacity:1;stroke-dasharray:none"
       d="m 1.65586,54.7305 34.4512,0 0,3.82812 -34.4512,0 0,-3.82812 z" /><path
       id="path142"
       style="fill:none;stroke:#000000;stroke-width:0.95698005;stroke-linecap:butt;stroke-linejoin:miter;stroke-miterlimit:10;stroke-opacity:1;stroke-dasharray:none"
       d="m 32.2793,54.7305 3.82773,0 0,34.4512 -3.82773,0 0,-34.4512 z" /><path
       id="path148"
       style="fill:none;stroke:#000000;stroke-width:0.95698005;stroke-linecap:butt;stroke-linejoin:miter;stroke-miterlimit:10;stroke-opacity:1;stroke-dasharray:none"
       d="m 43.7629,85.3539 34.4512,0 0,3.82773 -34.4512,0 0,-3.82773 z" /><path
       id="path154"
       style="fill:none;stroke:#000000;stroke-width:0.95698005;stroke-linecap:butt;stroke-linejoin:miter;stroke-miterlimit:10;stroke-opacity:1;stroke-dasharray:none"
       d="m 43.7629,54.7305 34.4512,0 0,3.82812 -34.4512,0 0,-3.82812 z" /><path
       id="path164"
       style="fill:none;stroke:#000000;stroke-width:0.95698005;stroke-linecap:butt;stroke-linejoin:miter;stroke-miterlimit:10;stroke-opacity:1;stroke-dasharray:none"
       d="m 43.7629,70.0422 34.4512,0 0,3.82773 -34.4512,0 0,-3.82773 z" /><path
       id="path174"
       style="fill:none;stroke:#000000;stroke-width:0.95698005;stroke-linecap:butt;stroke-linejoin:miter;stroke-miterlimit:10;stroke-opacity:1;stroke-dasharray:none"
       d="m 127.977,54.7305 34.4512,0 0,3.82812 -34.4512,0 0,-3.82812 z" /><path
       id="path176"
       style="fill:none;stroke:#000000;stroke-width:0.95698005;stroke-linecap:butt;stroke-linejoin:miter;stroke-miterlimit:10;stroke-opacity:1;stroke-dasharray:none"
       d="m 143.289,54.7305 3.82812,0 0,34.4512 -3.82812,0 0,-34.4512 z" /><path
       id="path178"
       style="fill:none;stroke:#000000;stroke-width:0.95698005;stroke-linecap:butt;stroke-linejoin:miter;stroke-miterlimit:10;stroke-opacity:1;stroke-dasharray:none"
       d="m 158.6,54.7305 3.82812,0 0,34.4512 -3.82812,0 0,-34.4512 z" /><path
       id="path184"
       style="fill:none;stroke:#000000;stroke-width:0.95698005;stroke-linecap:butt;stroke-linejoin:miter;stroke-miterlimit:10;stroke-opacity:1;stroke-dasharray:none"
       d="m 170.084,85.3539 34.4512,0 0,3.82773 -34.4512,0 0,-3.82773 z" /><path
       id="path188"
       style="fill:#ff0000;stroke:#000000;stroke-width:0.95698004999999997;stroke-linecap:butt;stroke-linejoin:miter;stroke-miterlimit:10;stroke-opacity:1;stroke-dasharray:none"
       d="m 170.084,54.7305 3.82773,0 0,34.4512 -3.82773,0 0,-34.4512 z" /><path
       id="path194"
       style="fill:none;stroke:#000000;stroke-width:0.95698005;stroke-linecap:butt;stroke-linejoin:miter;stroke-miterlimit:10;stroke-opacity:1;stroke-dasharray:none"
       d="m 185.396,54.7305 3.82773,0 0,34.4512 -3.82773,0 0,-34.4512 z" /><path
       id="path196"
       style="fill:none;stroke:#000000;stroke-width:0.95698005;stroke-linecap:butt;stroke-linejoin:miter;stroke-miterlimit:10;stroke-opacity:1;stroke-dasharray:none"
       d="m 200.708,54.7305 3.82773,0 0,34.4512 -3.82773,0 0,-34.4512 z" /><path
       id="path200"
       style="fill:#ff0000;stroke:#000000;stroke-width:0.95698004999999997;stroke-linecap:butt;stroke-linejoin:miter;stroke-miterlimit:10;stroke-opacity:1;stroke-dasharray:none"
       d="m 170.084,70.0422 34.4512,0 0,3.82773 -34.4512,0 0,-3.82773 z" /><g
       id="g202"><text
         id="text204"
         transform="matrix(1,0,0,-1,1.65586,92.4547)"><tspan
           id="tspan206"
           sodipodi:role="line"
           y="0"
           x="0 42.107189 84.214378 126.32191 168.42911"
           style="font-size:11.48379993px;font-variant:normal;font-weight:normal;writing-mode:lr-tb;fill:#000000;fill-opacity:1;fill-rule:nonzero;stroke:none;font-family:Helvetica;-inkscape-font-specification:Helvetica">56789</tspan></text>
</g><path
       id="path212"
       style="fill:none;stroke:#000000;stroke-width:0.95698005;stroke-linecap:butt;stroke-linejoin:miter;stroke-miterlimit:10;stroke-opacity:1;stroke-dasharray:none"
       d="m 1.65586,108.321 3.82773,0 0,34.4512 -3.82773,0 0,-34.4512 z" /><path
       id="path214"
       style="fill:none;stroke:#000000;stroke-width:0.95698005;stroke-linecap:butt;stroke-linejoin:miter;stroke-miterlimit:10;stroke-opacity:1;stroke-dasharray:none"
       d="m 1.65586,108.321 34.4512,0 0,3.82773 -34.4512,0 0,-3.82773 z" /><path
       id="path224"
       style="fill:none;stroke:#000000;stroke-width:0.95698005;stroke-linecap:butt;stroke-linejoin:miter;stroke-miterlimit:10;stroke-opacity:1;stroke-dasharray:none"
       d="m 1.65586,123.633 34.4512,0 0,3.82773 -34.4512,0 0,-3.82773 z" /><path
       id="path226"
       style="fill:none;stroke:#000000;stroke-width:0.95698005;stroke-linecap:butt;stroke-linejoin:miter;stroke-miterlimit:10;stroke-opacity:1;stroke-dasharray:none"
       d="m 43.7629,138.945 34.4512,0 0,3.82812 -34.4512,0 0,-3.82812 z" /><path
       id="path228"
       style="fill:none;stroke:#000000;stroke-width:0.95698005;stroke-linecap:butt;stroke-linejoin:miter;stroke-miterlimit:10;stroke-opacity:1;stroke-dasharray:none"
       d="m 43.7629,108.321 3.82812,0 0,34.4512 -3.82812,0 0,-34.4512 z" /><path
       id="path236"
       style="fill:#ff0000;stroke:#000000;stroke-width:0.95698004999999997;stroke-linecap:butt;stroke-linejoin:miter;stroke-miterlimit:10;stroke-opacity:1;stroke-dasharray:none"
       d="m 59.0746,108.321 3.82812,0 0,34.4512 -3.82812,0 0,-34.4512 z" /><path
       id="path238"
       style="fill:none;stroke:#000000;stroke-width:0.95698005;stroke-linecap:butt;stroke-linejoin:miter;stroke-miterlimit:10;stroke-opacity:1;stroke-dasharray:none"
       d="m 74.3863,108.321 3.82773,0 0,34.4512 -3.82773,0 0,-34.4512 z" /><path
       id="path242"
       style="fill:#ff0000;stroke:#000000;stroke-width:0.95698004999999997;stroke-linecap:butt;stroke-linejoin:miter;stroke-miterlimit:10;stroke-opacity:1;stroke-dasharray:none"
       d="m 43.7629,123.633 34.4512,0 0,3.82773 -34.4512,0 0,-3.82773 z" /><path
       id="path244"
       style="fill:none;stroke:#000000;stroke-width:0.95698005;stroke-linecap:butt;stroke-linejoin:miter;stroke-miterlimit:10;stroke-opacity:1;stroke-dasharray:none"
       d="m 85.8699,138.945 34.4516,0 0,3.82812 -34.4516,0 0,-3.82812 z" /><path
       id="path246"
       style="fill:none;stroke:#000000;stroke-width:0.95698005;stroke-linecap:butt;stroke-linejoin:miter;stroke-miterlimit:10;stroke-opacity:1;stroke-dasharray:none"
       d="m 85.8699,108.321 3.82812,0 0,34.4512 -3.82812,0 0,-34.4512 z" /><path
       id="path252"
       style="fill:none;stroke:#000000;stroke-width:0.95698005;stroke-linecap:butt;stroke-linejoin:miter;stroke-miterlimit:10;stroke-opacity:1;stroke-dasharray:none"
       d="m 101.182,108.321 3.82812,0 0,34.4512 -3.82812,0 0,-34.4512 z" /><path
       id="path256"
       style="fill:#ff0000;stroke:#000000;stroke-width:0.95698004999999997;stroke-linecap:butt;stroke-linejoin:miter;stroke-miterlimit:10;stroke-opacity:1;stroke-dasharray:none"
       d="m 116.493,108.321 3.82812,0 0,34.4512 -3.82812,0 0,-34.4512 z" /><path
       id="path260"
       style="fill:#ff0000;stroke:#000000;stroke-width:0.95698004999999997;stroke-linecap:butt;stroke-linejoin:miter;stroke-miterlimit:10;stroke-opacity:1;stroke-dasharray:none"
       d="m 85.8699,123.633 34.4516,0 0,3.82773 -34.4516,0 0,-3.82773 z" /><path
       id="path266"
       style="fill:none;stroke:#000000;stroke-width:0.95698005;stroke-linecap:butt;stroke-linejoin:miter;stroke-miterlimit:10;stroke-opacity:1;stroke-dasharray:none"
       d="m 127.977,108.321 3.82773,0 0,34.4512 -3.82773,0 0,-34.4512 z" /><path
       id="path272"
       style="fill:none;stroke:#000000;stroke-width:0.95698005;stroke-linecap:butt;stroke-linejoin:miter;stroke-miterlimit:10;stroke-opacity:1;stroke-dasharray:none"
       d="m 143.289,108.321 3.82812,0 0,34.4512 -3.82812,0 0,-34.4512 z" /><path
       id="path274"
       style="fill:none;stroke:#000000;stroke-width:0.95698005;stroke-linecap:butt;stroke-linejoin:miter;stroke-miterlimit:10;stroke-opacity:1;stroke-dasharray:none"
       d="m 158.6,108.321 3.82812,0 0,34.4512 -3.82812,0 0,-34.4512 z" /><path
       id="path278"
       style="fill:#ff0000;stroke:#000000;stroke-width:0.95698004999999997;stroke-linecap:butt;stroke-linejoin:miter;stroke-miterlimit:10;stroke-opacity:1;stroke-dasharray:none"
       d="m 127.977,123.633 34.4512,0 0,3.82773 -34.4512,0 0,-3.82773 z" /><path
       id="path288"
       style="fill:none;stroke:#000000;stroke-width:0.95698005;stroke-linecap:butt;stroke-linejoin:miter;stroke-miterlimit:10;stroke-opacity:1;stroke-dasharray:none"
       d="m 170.084,108.321 34.4512,0 0,3.82773 -34.4512,0 0,-3.82773 z" /><path
       id="path290"
       style="fill:none;stroke:#000000;stroke-width:0.95698005;stroke-linecap:butt;stroke-linejoin:miter;stroke-miterlimit:10;stroke-opacity:1;stroke-dasharray:none"
       d="m 185.396,108.321 3.82773,0 0,34.4512 -3.82773,0 0,-34.4512 z" /><path
       id="path296"
       style="fill:none;stroke:#000000;stroke-width:0.95698005;stroke-linecap:butt;stroke-linejoin:miter;stroke-miterlimit:10;stroke-opacity:1;stroke-dasharray:none"
       d="m 170.084,123.633 34.4512,0 0,3.82773 -34.4512,0 0,-3.82773 z" /><g
       id="g298"><text
         id="text300"
         transform="matrix(1,0,0,-1,1.65586,146.046)"><tspan
           id="tspan302"
           sodipodi:role="line"
           y="0"
           x="0 6.3849926 42.107189 48.492184 84.214378 90.599373 126.32191 132.70691 168.42911 174.8141"
           style="font-size:11.48379993px;font-variant:normal;font-weight:normal;writing-mode:lr-tb;fill:#000000;fill-opacity:1;fill-rule:nonzero;stroke:none;font-family:Helvetica;-inkscape-font-specification:Helvetica">1011121314</tspan></text>
</g><path
       id="path316"
       style="fill:none;stroke:#000000;stroke-width:0.95698005;stroke-linecap:butt;stroke-linejoin:miter;stroke-miterlimit:10;stroke-opacity:1;stroke-dasharray:none"
       d="m 101.182,161.912 3.82812,0 0,34.4516 -3.82812,0 0,-34.4516 z" /><path
       id="path318"
       style="fill:none;stroke:#000000;stroke-width:0.95698005;stroke-linecap:butt;stroke-linejoin:miter;stroke-miterlimit:10;stroke-opacity:1;stroke-dasharray:none"
       d="m 116.493,161.912 3.82812,0 0,34.4516 -3.82812,0 0,-34.4516 z" /><path
       id="path320"
       style="fill:none;stroke:#000000;stroke-width:0.95698005;stroke-linecap:butt;stroke-linejoin:miter;stroke-miterlimit:10;stroke-opacity:1;stroke-dasharray:none"
       d="m 85.8699,177.224 34.4516,0 0,3.82812 -34.4516,0 0,-3.82812 z" /><path
       id="path326"
       style="fill:none;stroke:#000000;stroke-width:0.95698005;stroke-linecap:butt;stroke-linejoin:miter;stroke-miterlimit:10;stroke-opacity:1;stroke-dasharray:none"
       d="m 1.65586,161.912 3.82773,0 0,34.4516 -3.82773,0 0,-34.4516 z" /><path
       id="path328"
       style="fill:none;stroke:#000000;stroke-width:0.95698005;stroke-linecap:butt;stroke-linejoin:miter;stroke-miterlimit:10;stroke-opacity:1;stroke-dasharray:none"
       d="m 1.65586,161.912 34.4512,0 0,3.82812 -34.4512,0 0,-3.82812 z" /><path
       id="path330"
       style="fill:none;stroke:#000000;stroke-width:0.95698005;stroke-linecap:butt;stroke-linejoin:miter;stroke-miterlimit:10;stroke-opacity:1;stroke-dasharray:none"
       d="m 16.9676,161.912 3.82773,0 0,34.4516 -3.82773,0 0,-34.4516 z" /><path
       id="path348"
       style="fill:none;stroke:#000000;stroke-width:0.95698005;stroke-linecap:butt;stroke-linejoin:miter;stroke-miterlimit:10;stroke-opacity:1;stroke-dasharray:none"
       d="m 43.7629,161.912 34.4512,0 0,3.82812 -34.4512,0 0,-3.82812 z" /><path
       id="path354"
       style="fill:none;stroke:#000000;stroke-width:0.95698005;stroke-linecap:butt;stroke-linejoin:miter;stroke-miterlimit:10;stroke-opacity:1;stroke-dasharray:none"
       d="m 74.3863,161.912 3.82773,0 0,34.4516 -3.82773,0 0,-34.4516 z" /><path
       id="path356"
       style="fill:none;stroke:#000000;stroke-width:0.95698005;stroke-linecap:butt;stroke-linejoin:miter;stroke-miterlimit:10;stroke-opacity:1;stroke-dasharray:none"
       d="m 43.7629,177.224 34.4512,0 0,3.82812 -34.4512,0 0,-3.82812 z" /><path
       id="path358"
       style="fill:none;stroke:#000000;stroke-width:0.95698005;stroke-linecap:butt;stroke-linejoin:miter;stroke-miterlimit:10;stroke-opacity:1;stroke-dasharray:none"
       d="m 127.977,192.536 34.4512,0 0,3.82812 -34.4512,0 0,-3.82812 z" /><path
       id="path368"
       style="fill:none;stroke:#000000;stroke-width:0.95698005;stroke-linecap:butt;stroke-linejoin:miter;stroke-miterlimit:10;stroke-opacity:1;stroke-dasharray:none"
       d="m 143.289,161.912 3.82812,0 0,34.4516 -3.82812,0 0,-34.4516 z" /><path
       id="path374"
       style="fill:none;stroke:#000000;stroke-width:0.95698005;stroke-linecap:butt;stroke-linejoin:miter;stroke-miterlimit:10;stroke-opacity:1;stroke-dasharray:none"
       d="m 127.977,177.224 34.4512,0 0,3.82812 -34.4512,0 0,-3.82812 z" /><path
       id="path380"
       style="fill:none;stroke:#000000;stroke-width:0.95698005;stroke-linecap:butt;stroke-linejoin:miter;stroke-miterlimit:10;stroke-opacity:1;stroke-dasharray:none"
       d="m 170.084,161.912 3.82773,0 0,34.4516 -3.82773,0 0,-34.4516 z" /><path
       id="path382"
       style="fill:none;stroke:#000000;stroke-width:0.95698005;stroke-linecap:butt;stroke-linejoin:miter;stroke-miterlimit:10;stroke-opacity:1;stroke-dasharray:none"
       d="m 170.084,161.912 34.4512,0 0,3.82812 -34.4512,0 0,-3.82812 z" /><path
       id="path388"
       style="fill:none;stroke:#000000;stroke-width:0.95698005;stroke-linecap:butt;stroke-linejoin:miter;stroke-miterlimit:10;stroke-opacity:1;stroke-dasharray:none"
       d="m 200.708,161.912 3.82773,0 0,34.4516 -3.82773,0 0,-34.4516 z" /><g
       id="g394"><text
         id="text396"
         transform="matrix(1,0,0,-1,1.65586,199.636)"><tspan
           id="tspan398"
           sodipodi:role="line"
           y="0"
           x="0 6.3849926 42.107189 48.492184 84.214378 90.599373 126.32191 132.70691 168.42911 174.8141"
           style="font-size:11.48379993px;font-variant:normal;font-weight:normal;writing-mode:lr-tb;fill:#000000;fill-opacity:1;fill-rule:nonzero;stroke:none;font-family:Helvetica;-inkscape-font-specification:Helvetica">1516171819</tspan></text>
</g><path
       id="path306"
       style="fill:#ff0000;stroke:#000000;stroke-width:0.95698004999999997;stroke-linecap:butt;stroke-linejoin:miter;stroke-miterlimit:10;stroke-opacity:1;stroke-dasharray:none"
       d="m 85.8699,192.536 34.4516,0 0,3.82812 -34.4516,0 0,-3.82812 z" /><path
       id="path342"
       style="fill:#ff0000;stroke:#000000;stroke-width:0.95698004999999997;stroke-linecap:butt;stroke-linejoin:miter;stroke-miterlimit:10;stroke-opacity:1;stroke-dasharray:none"
       d="m 43.7629,192.536 34.4512,0 0,3.82812 -34.4512,0 0,-3.82812 z" /><path
       id="path334"
       style="fill:#ff0000;stroke:#000000;stroke-width:0.95698004999999997;stroke-linecap:butt;stroke-linejoin:miter;stroke-miterlimit:10;stroke-opacity:1;stroke-dasharray:none"
       d="m 32.2793,161.912 3.82773,0 0,34.4516 -3.82773,0 0,-34.4516 z" /><path
       id="path324"
       style="fill:#ff0000;stroke:#000000;stroke-width:0.95698004999999997;stroke-linecap:butt;stroke-linejoin:miter;stroke-miterlimit:10;stroke-opacity:1;stroke-dasharray:none"
       d="m 1.65586,192.536 34.4512,0 0,3.82812 -34.4512,0 0,-3.82812 z" /><path
       id="path338"
       style="fill:#ff0000;stroke:#000000;stroke-width:0.95698004999999997;stroke-linecap:butt;stroke-linejoin:miter;stroke-miterlimit:10;stroke-opacity:1;stroke-dasharray:none"
       d="m 1.65586,177.224 34.4512,0 0,3.82812 -34.4512,0 0,-3.82812 z" /><path
       id="path352"
       style="fill:#ff0000;stroke:#000000;stroke-width:0.95698004999999997;stroke-linecap:butt;stroke-linejoin:miter;stroke-miterlimit:10;stroke-opacity:1;stroke-dasharray:none"
       d="m 59.0746,161.912 3.82812,0 0,34.4516 -3.82812,0 0,-34.4516 z" /><path
       id="path346"
       style="fill:#ff0000;stroke:#000000;stroke-width:0.95698004999999997;stroke-linecap:butt;stroke-linejoin:miter;stroke-miterlimit:10;stroke-opacity:1;stroke-dasharray:none"
       d="m 43.7629,161.912 3.82812,0 0,34.4516 -3.82812,0 0,-34.4516 z" /><path
       id="path314"
       style="fill:#ff0000;stroke:#000000;stroke-width:0.95698004999999997;stroke-linecap:butt;stroke-linejoin:miter;stroke-miterlimit:10;stroke-opacity:1;stroke-dasharray:none"
       d="m 85.8699,161.912 34.4516,0 0,3.82812 -34.4516,0 0,-3.82812 z" /><path
       id="path310"
       style="fill:#ff0000;stroke:#000000;stroke-width:0.95698004999999997;stroke-linecap:butt;stroke-linejoin:miter;stroke-miterlimit:10;stroke-opacity:1;stroke-dasharray:none"
       d="m 85.8699,161.912 3.82812,0 0,34.4516 -3.82812,0 0,-34.4516 z" /><path
       id="path362"
       style="fill:#ff0000;stroke:#000000;stroke-width:0.95698004999999997;stroke-linecap:butt;stroke-linejoin:miter;stroke-miterlimit:10;stroke-opacity:1;stroke-dasharray:none"
       d="m 127.977,161.912 3.82773,0 0,34.4516 -3.82773,0 0,-34.4516 z" /><path
       id="path372"
       style="fill:#ff0000;stroke:#000000;stroke-width:0.95698004999999997;stroke-linecap:butt;stroke-linejoin:miter;stroke-miterlimit:10;stroke-opacity:1;stroke-dasharray:none"
       d="m 158.6,161.912 3.82812,0 0,34.4516 -3.82812,0 0,-34.4516 z" /><path
       id="path366"
       style="fill:#ff0000;stroke:#000000;stroke-width:0.95698004999999997;stroke-linecap:butt;stroke-linejoin:miter;stroke-miterlimit:10;stroke-opacity:1;stroke-dasharray:none"
       d="m 127.977,161.912 34.4512,0 0,3.82812 -34.4512,0 0,-3.82812 z" /><path
       id="path392"
       style="fill:#ff0000;stroke:#000000;stroke-width:0.95698004999999997;stroke-linecap:butt;stroke-linejoin:miter;stroke-miterlimit:10;stroke-opacity:1;stroke-dasharray:none"
       d="m 170.084,177.224 34.4512,0 0,3.82812 -34.4512,0 0,-3.82812 z" /><path
       id="path378"
       style="fill:#ff0000;stroke:#000000;stroke-width:0.95698004999999997;stroke-linecap:butt;stroke-linejoin:miter;stroke-miterlimit:10;stroke-opacity:1;stroke-dasharray:none"
       d="m 170.084,192.536 34.4512,0 0,3.82812 -34.4512,0 0,-3.82812 z" /><path
       id="path386"
       style="fill:#ff0000;stroke:#000000;stroke-width:0.95698004999999997;stroke-linecap:butt;stroke-linejoin:miter;stroke-miterlimit:10;stroke-opacity:1;stroke-dasharray:none"
       d="m 185.396,161.912 3.82773,0 0,34.4516 -3.82773,0 0,-34.4516 z" /><path
       id="path210"
       style="fill:#ff0000;stroke:#000000;stroke-width:0.95698004999999997;stroke-linecap:butt;stroke-linejoin:miter;stroke-miterlimit:10;stroke-opacity:1;stroke-dasharray:none"
       d="m 1.65586,138.945 34.4512,0 0,3.82812 -34.4512,0 0,-3.82812 z" /><path
       id="path222"
       style="fill:#ff0000;stroke:#000000;stroke-width:0.95698004999999997;stroke-linecap:butt;stroke-linejoin:miter;stroke-miterlimit:10;stroke-opacity:1;stroke-dasharray:none"
       d="m 32.2793,108.321 3.82773,0 0,34.4512 -3.82773,0 0,-34.4512 z" /><path
       id="path218"
       style="fill:#ff0000;stroke:#000000;stroke-width:0.95698004999999997;stroke-linecap:butt;stroke-linejoin:miter;stroke-miterlimit:10;stroke-opacity:1;stroke-dasharray:none"
       d="m 16.9676,108.321 3.82773,0 0,34.4512 -3.82773,0 0,-34.4512 z" /><path
       id="path232"
       style="fill:#ff0000;stroke:#000000;stroke-width:0.95698004999999997;stroke-linecap:butt;stroke-linejoin:miter;stroke-miterlimit:10;stroke-opacity:1;stroke-dasharray:none"
       d="m 43.7629,108.321 34.4512,0 0,3.82773 -34.4512,0 0,-3.82773 z" /><path
       id="path250"
       style="fill:#ff0000;stroke:#000000;stroke-width:0.95698004999999997;stroke-linecap:butt;stroke-linejoin:miter;stroke-miterlimit:10;stroke-opacity:1;stroke-dasharray:none"
       d="m 85.8699,108.321 34.4516,0 0,3.82773 -34.4516,0 0,-3.82773 z" /><path
       id="path270"
       style="fill:#ff0000;stroke:#000000;stroke-width:0.95698004999999997;stroke-linecap:butt;stroke-linejoin:miter;stroke-miterlimit:10;stroke-opacity:1;stroke-dasharray:none"
       d="m 127.977,108.321 34.4512,0 0,3.82773 -34.4512,0 0,-3.82773 z" /><path
       id="path264"
       style="fill:#ff0000;stroke:#000000;stroke-width:0.95698004999999997;stroke-linecap:butt;stroke-linejoin:miter;stroke-miterlimit:10;stroke-opacity:1;stroke-dasharray:none"
       d="m 127.977,138.945 34.4512,0 0,3.82812 -34.4512,0 0,-3.82812 z" /><path
       id="path286"
       style="fill:#ff0000;stroke:#000000;stroke-width:0.95698004999999997;stroke-linecap:butt;stroke-linejoin:miter;stroke-miterlimit:10;stroke-opacity:1;stroke-dasharray:none"
       d="m 170.084,108.321 3.82773,0 0,34.4512 -3.82773,0 0,-34.4512 z" /><path
       id="path294"
       style="fill:#ff0000;stroke:#000000;stroke-width:0.95698004999999997;stroke-linecap:butt;stroke-linejoin:miter;stroke-miterlimit:10;stroke-opacity:1;stroke-dasharray:none"
       d="m 200.708,108.321 3.82773,0 0,34.4512 -3.82773,0 0,-34.4512 z" /><path
       id="path282"
       style="fill:#ff0000;stroke:#000000;stroke-width:0.95698004999999997;stroke-linecap:butt;stroke-linejoin:miter;stroke-miterlimit:10;stroke-opacity:1;stroke-dasharray:none"
       d="m 170.084,138.945 34.4512,0 0,3.82812 -34.4512,0 0,-3.82812 z" /><path
       id="path192"
       style="fill:#ff0000;stroke:#000000;stroke-width:0.95698004999999997;stroke-linecap:butt;stroke-linejoin:miter;stroke-miterlimit:10;stroke-opacity:1;stroke-dasharray:none"
       d="m 170.084,54.7305 34.4512,0 0,3.82812 -34.4512,0 0,-3.82812 z" /><path
       id="path172"
       style="fill:#ff0000;stroke:#000000;stroke-width:0.95698004999999997;stroke-linecap:butt;stroke-linejoin:miter;stroke-miterlimit:10;stroke-opacity:1;stroke-dasharray:none"
       d="m 127.977,54.7305 3.82773,0 0,34.4512 -3.82773,0 0,-34.4512 z" /><path
       id="path182"
       style="fill:#ff0000;stroke:#000000;stroke-width:0.95698004999999997;stroke-linecap:butt;stroke-linejoin:miter;stroke-miterlimit:10;stroke-opacity:1;stroke-dasharray:none"
       d="m 127.977,70.0422 34.4512,0 0,3.82773 -34.4512,0 0,-3.82773 z" /><path
       id="path168"
       style="fill:#ff0000;stroke:#000000;stroke-width:0.95698004999999997;stroke-linecap:butt;stroke-linejoin:miter;stroke-miterlimit:10;stroke-opacity:1;stroke-dasharray:none"
       d="m 127.977,85.3539 34.4512,0 0,3.82773 -34.4512,0 0,-3.82773 z" /><path
       id="path120"
       style="fill:#ff0000;stroke:#000000;stroke-width:0.95698004999999997;stroke-linecap:butt;stroke-linejoin:miter;stroke-miterlimit:10;stroke-opacity:1;stroke-dasharray:none"
       d="m 85.8699,54.7305 34.4516,0 0,3.82812 -34.4516,0 0,-3.82812 z" /><path
       id="path116"
       style="fill:#ff0000;stroke:#000000;stroke-width:0.95698004999999997;stroke-linecap:butt;stroke-linejoin:miter;stroke-miterlimit:10;stroke-opacity:1;stroke-dasharray:none"
       d="m 85.8699,54.7305 3.82812,0 0,34.4512 -3.82812,0 0,-34.4512 z" /><path
       id="path124"
       style="fill:#ff0000;stroke:#000000;stroke-width:0.95698004999999997;stroke-linecap:butt;stroke-linejoin:miter;stroke-miterlimit:10;stroke-opacity:1;stroke-dasharray:none"
       d="m 101.182,54.7305 3.82812,0 0,34.4512 -3.82812,0 0,-34.4512 z" /><path
       id="path162"
       style="fill:#ff0000;stroke:#000000;stroke-width:0.95698004999999997;stroke-linecap:butt;stroke-linejoin:miter;stroke-miterlimit:10;stroke-opacity:1;stroke-dasharray:none"
       d="m 74.3863,54.7305 3.82773,0 0,34.4512 -3.82773,0 0,-34.4512 z" /><path
       id="path158"
       style="fill:#ff0000;stroke:#000000;stroke-width:0.95698004999999997;stroke-linecap:butt;stroke-linejoin:miter;stroke-miterlimit:10;stroke-opacity:1;stroke-dasharray:none"
       d="m 59.0746,54.7305 3.82812,0 0,34.4512 -3.82812,0 0,-34.4512 z" /><path
       id="path152"
       style="fill:#ff0000;stroke:#000000;stroke-width:0.95698004999999997;stroke-linecap:butt;stroke-linejoin:miter;stroke-miterlimit:10;stroke-opacity:1;stroke-dasharray:none"
       d="m 43.7629,54.7305 3.82812,0 0,34.4512 -3.82812,0 0,-34.4512 z" /><path
       id="path134"
       style="fill:#ff0000;stroke:#000000;stroke-width:0.95698004999999997;stroke-linecap:butt;stroke-linejoin:miter;stroke-miterlimit:10;stroke-opacity:1;stroke-dasharray:none"
       d="m 1.65586,54.7305 3.82773,0 0,34.4512 -3.82773,0 0,-34.4512 z" /><path
       id="path140"
       style="fill:#ff0000;stroke:#000000;stroke-width:0.95698004999999997;stroke-linecap:butt;stroke-linejoin:miter;stroke-miterlimit:10;stroke-opacity:1;stroke-dasharray:none"
       d="m 16.9676,54.7305 3.82773,0 0,34.4512 -3.82773,0 0,-34.4512 z" /><path
       id="path146"
       style="fill:#ff0000;stroke:#000000;stroke-width:0.95698004999999997;stroke-linecap:butt;stroke-linejoin:miter;stroke-miterlimit:10;stroke-opacity:1;stroke-dasharray:none"
       d="m 1.65586,70.0422 34.4512,0 0,3.82773 -34.4512,0 0,-3.82773 z" /><path
       id="path18"
       style="fill:#ff0000;stroke:#000000;stroke-width:0.95698004999999997;stroke-linecap:butt;stroke-linejoin:miter;stroke-miterlimit:10;stroke-opacity:1;stroke-dasharray:none"
       d="m 43.7629,31.7629 34.4512,0 0,3.82812 -34.4512,0 0,-3.82812 z" /><path
       id="path24"
       style="fill:#ff0000;stroke:#000000;stroke-width:0.95698004999999997;stroke-linecap:butt;stroke-linejoin:miter;stroke-miterlimit:10;stroke-opacity:1;stroke-dasharray:none"
       d="m 43.7629,1.13945 34.4512,0 0,3.82812 -34.4512,0 0,-3.82812 z" /><path
       id="path28"
       style="fill:#ff0000;stroke:#000000;stroke-width:0.95698004999999997;stroke-linecap:butt;stroke-linejoin:miter;stroke-miterlimit:10;stroke-opacity:1;stroke-dasharray:none"
       d="m 59.0746,1.13945 3.82812,0 0,34.4516 -3.82812,0 0,-34.4516 z" /><path
       id="path36"
       style="fill:#ff0000;stroke:#000000;stroke-width:0.95698004999999997;stroke-linecap:butt;stroke-linejoin:miter;stroke-miterlimit:10;stroke-opacity:1;stroke-dasharray:none"
       d="m 85.8699,31.7629 34.4516,0 0,3.82812 -34.4516,0 0,-3.82812 z" /><path
       id="path42"
       style="fill:#ff0000;stroke:#000000;stroke-width:0.95698004999999997;stroke-linecap:butt;stroke-linejoin:miter;stroke-miterlimit:10;stroke-opacity:1;stroke-dasharray:none"
       d="m 85.8699,1.13945 34.4516,0 0,3.82812 -34.4516,0 0,-3.82812 z" /><path
       id="path48"
       style="fill:#ff0000;stroke:#000000;stroke-width:0.95698004999999997;stroke-linecap:butt;stroke-linejoin:miter;stroke-miterlimit:10;stroke-opacity:1;stroke-dasharray:none"
       d="m 116.493,1.13945 3.82812,0 0,34.4516 -3.82812,0 0,-34.4516 z" /><path
       id="path62"
       style="fill:#ff0000;stroke:#000000;stroke-width:0.95698004999999997;stroke-linecap:butt;stroke-linejoin:miter;stroke-miterlimit:10;stroke-opacity:1;stroke-dasharray:none"
       d="m 143.289,1.13945 3.82812,0 0,34.4516 -3.82812,0 0,-34.4516 z" /><path
       id="path66"
       style="fill:#ff0000;stroke:#000000;stroke-width:0.95698004999999997;stroke-linecap:butt;stroke-linejoin:miter;stroke-miterlimit:10;stroke-opacity:1;stroke-dasharray:none"
       d="m 158.6,1.13945 3.82812,0 0,34.4516 -3.82812,0 0,-34.4516 z" /><path
       id="path82"
       style="fill:#ff0000;stroke:#000000;stroke-width:0.95698004999999997;stroke-linecap:butt;stroke-linejoin:miter;stroke-miterlimit:10;stroke-opacity:1;stroke-dasharray:none"
       d="m 200.708,1.13945 3.82773,0 0,34.4516 -3.82773,0 0,-34.4516 z" /><path
       id="path74"
       style="fill:#ff0000;stroke:#000000;stroke-width:0.95698004999999997;stroke-linecap:butt;stroke-linejoin:miter;stroke-miterlimit:10;stroke-opacity:1;stroke-dasharray:none"
       d="m 170.084,1.13945 3.82773,0 0,34.4516 -3.82773,0 0,-34.4516 z" /><path
       id="path86"
       style="fill:#ff0000;stroke:#000000;stroke-width:0.95698004999999997;stroke-linecap:butt;stroke-linejoin:miter;stroke-miterlimit:10;stroke-opacity:1;stroke-dasharray:none"
       d="m 170.084,16.4512 34.4512,0 0,3.82812 -34.4512,0 0,-3.82812 z" /></g></svg>