<?xml version="1.0" encoding="ISO-8859-1" standalone="yes"?>
<svg width="243.55" height="171.195">
  <defs> 
    <marker id="ArrowEnd" viewBox="0 0 10 10" refX="0" refY="5" 
     markerUnits="strokeWidth" 
     markerWidth="4" 
     markerHeight="3" 
     orient="auto"> 
        <path d="M 0 0 L 10 5 L 0 10 z" /> 
    </marker>
    <marker id="ArrowStart" viewBox="0 0 10 10" refX="10" refY="5" 
     markerUnits="strokeWidth" 
     markerWidth="4" 
     markerHeight="3" 
     orient="auto"> 
        <path d="M 10 0 L 0 5 L 10 10 z" /> 
    </marker> </defs>
<g>
<path style="stroke:#000000; stroke-width:1.59941; fill:none" d="M 88.4216 160.332L 88.4216 159.133"/>
<path style="stroke:#000000; stroke-width:1.59941; fill:none" d="M 185.985 160.332L 185.985 159.133"/>
<path style="stroke:#000000; stroke-width:1.59941; fill:none" d="M 88.4216 18.387L 88.4216 19.586"/>
<path style="stroke:#000000; stroke-width:1.59941; fill:none" d="M 185.985 18.387L 185.985 19.586"/>
<path style="stroke:#000000; stroke-width:1.59941; fill:none" d="M 88.4216 160.332L 88.4216 157.933"/>
<path style="stroke:#000000; stroke-width:1.59941; fill:none" d="M 185.985 160.332L 185.985 157.933"/>
<path style="stroke:#000000; stroke-width:1.59941; fill:none" d="M 88.4216 18.387L 88.4216 20.785"/>
<path style="stroke:#000000; stroke-width:1.59941; fill:none" d="M 185.985 18.387L 185.985 20.785"/>
<path style="stroke:none; fill-rule:evenodd; fill:#000000" d="M 74.6993 171L 76.2969 171L 76.2969 163.101L 74.6993 163.101L 74.6993 171z"/>
<path style="stroke:none; fill-rule:evenodd; fill:#000000" d="M 77.6993 165.199L 77.6993 170.996L 79.1993 170.996L 79.1993 167.531C 79.1993 166.847 79.6836 166.398 80.4219 166.398C 81.0704 166.398 81.3946 166.75 81.3946 167.433L 81.3946 170.992L 82.8946 170.992L 82.8946 167.105C 82.8946 165.828 82.1836 165.097 80.9454 165.097C 80.1602 165.097 79.6328 165.379 79.1993 166.008L 79.1993 165.199L 77.6993 165.199z"/>
<path style="stroke:none; fill-rule:evenodd; fill:#000000" d="M 86.8516 165.301L 86.0036 165.301L 86.0036 163.726L 84.5039 163.726L 84.5039 165.301L 83.7578 165.301L 83.7578 166.301L 84.5039 166.301L 84.5039 169.844C 84.5039 170.75 84.9883 171.195 85.9766 171.195C 86.3086 171.195 86.5786 171.168 86.8476 171.082L 86.8476 170.07C 86.6956 170.086 86.6096 170.097 86.4996 170.097C 86.0976 170.097 85.9996 169.98 85.9996 169.465L 85.9996 166.305L 86.8476 166.305L 86.8516 165.301z"/>
<path style="stroke:none; fill-rule:evenodd; fill:#000000" d="M 92.8556 170.773C 92.5786 170.531 92.4996 170.371 92.4996 170.07L 92.4996 166.875C 92.4996 165.703 91.6956 165.105 90.1216 165.105C 88.5506 165.105 87.7306 165.765 87.6366 167.094L 89.0786 167.094C 89.1526 166.496 89.3986 166.305 90.1366 166.305C 90.7106 166.305 90.9996 166.496 90.9996 166.879C 90.9996 167.07 90.9066 167.238 90.7466 167.324C 90.5466 167.43 90.5466 167.43 89.8086 167.547L 89.2106 167.652C 88.0666 167.844 87.5116 168.43 87.5116 169.465C 87.5116 169.953 87.6486 170.359 87.9136 170.648C 88.2426 170.988 88.7426 171.191 89.2576 171.191C 89.8946 171.191 90.4846 170.918 91.0076 170.371C 91.0076 170.668 91.0396 170.773 91.1836 170.945L 92.8636 170.945L 92.8556 170.773zM 90.9996 168.652C 90.9996 169.512 90.5746 170 89.8166 170C 89.3166 170 89.0076 169.738 89.0076 169.312C 89.0076 168.867 89.2426 168.656 89.8596 168.527L 90.3716 168.433C 90.7656 168.363 90.8286 168.34 90.9996 168.254L 90.9996 168.652z"/>
<path style="stroke:none; fill-rule:evenodd; fill:#000000" d="M 98.8356 167.351C 98.7306 165.945 97.7856 165.101 96.3356 165.101C 94.6096 165.101 93.6016 166.23 93.6016 168.191C 93.6016 170.086 94.5976 171.195 96.3126 171.195C 97.7146 171.195 98.6916 170.344 98.8316 168.98L 97.3946 168.98C 97.2036 169.715 96.9026 169.996 96.3246 169.996C 95.5626 169.996 95.1016 169.312 95.1016 168.191C 95.1016 167.648 95.2066 167.137 95.3906 166.793C 95.5626 166.472 95.8946 166.301 96.3246 166.301C 96.9336 166.301 97.2226 166.59 97.3946 167.351L 98.8356 167.351z"/>
<path style="stroke:none; fill-rule:evenodd; fill:#000000" d="M 102.45 165.301L 101.602 165.301L 101.602 163.726L 100.102 163.726L 100.102 165.301L 99.3556 165.301L 99.3556 166.301L 100.102 166.301L 100.102 169.844C 100.102 170.75 100.586 171.195 101.575 171.195C 101.907 171.195 102.176 171.168 102.446 171.082L 102.446 170.07C 102.293 170.086 102.207 170.097 102.098 170.097C 101.696 170.097 101.598 169.98 101.598 169.465L 101.598 166.305L 102.446 166.305L 102.45 165.301z"/>
<path style="stroke:none; fill-rule:evenodd; fill:#000000" d="M 184.301 167.402L 184.301 171L 185.899 171L 185.899 163.101L 184.301 163.101L 184.301 166.101L 181.102 166.101L 181.102 163.101L 179.504 163.101L 179.504 171L 181.102 171L 181.102 167.402L 184.301 167.402z"/>
<path style="stroke:none; fill-rule:evenodd; fill:#000000" d="M 189.102 163.101L 187.504 163.101L 187.504 171L 192.852 171L 192.852 169.703L 189.102 169.703L 189.102 163.101z"/>
<path style="stroke:#000000; stroke-width:1.59941; fill:none" d="M 39.6407 157.535L 40.8399 157.535"/>
<path style="stroke:#000000; stroke-width:1.59941; fill:none" d="M 39.6407 150.336L 40.8399 150.336"/>
<path style="stroke:#000000; stroke-width:1.59941; fill:none" d="M 39.6407 143.539L 40.8399 143.539"/>
<path style="stroke:#000000; stroke-width:1.59941; fill:none" d="M 39.6407 136.344L 40.8399 136.344"/>
<path style="stroke:#000000; stroke-width:1.59941; fill:none" d="M 39.6407 129.543L 40.8399 129.543"/>
<path style="stroke:#000000; stroke-width:1.59941; fill:none" d="M 39.6407 122.746L 40.8399 122.746"/>
<path style="stroke:#000000; stroke-width:1.59941; fill:none" d="M 39.6407 115.551L 40.8399 115.551"/>
<path style="stroke:#000000; stroke-width:1.59941; fill:none" d="M 39.6407 108.754L 40.8399 108.754"/>
<path style="stroke:#000000; stroke-width:1.59941; fill:none" d="M 39.6407 101.555L 40.8399 101.555"/>
<path style="stroke:#000000; stroke-width:1.59941; fill:none" d="M 39.6407 94.7576L 40.8399 94.7576"/>
<path style="stroke:#000000; stroke-width:1.59941; fill:none" d="M 39.6407 87.9607L 40.8399 87.9607"/>
<path style="stroke:#000000; stroke-width:1.59941; fill:none" d="M 39.6407 80.761L 40.8399 80.761"/>
<path style="stroke:#000000; stroke-width:1.59941; fill:none" d="M 39.6407 73.965L 40.8399 73.965"/>
<path style="stroke:#000000; stroke-width:1.59941; fill:none" d="M 39.6407 67.168L 40.8399 67.168"/>
<path style="stroke:#000000; stroke-width:1.59941; fill:none" d="M 39.6407 59.969L 40.8399 59.969"/>
<path style="stroke:#000000; stroke-width:1.59941; fill:none" d="M 39.6407 53.172L 40.8399 53.172"/>
<path style="stroke:#000000; stroke-width:1.59941; fill:none" d="M 39.6407 45.976L 40.8399 45.976"/>
<path style="stroke:#000000; stroke-width:1.59941; fill:none" d="M 39.6407 39.179L 40.8399 39.179"/>
<path style="stroke:#000000; stroke-width:1.59941; fill:none" d="M 39.6407 32.379L 40.8399 32.379"/>
<path style="stroke:#000000; stroke-width:1.59941; fill:none" d="M 39.6407 25.183L 40.8399 25.183"/>
<path style="stroke:#000000; stroke-width:1.59941; fill:none" d="M 39.6407 18.387L 40.8399 18.387"/>
<path style="stroke:#000000; stroke-width:1.59941; fill:none" d="M 234.77 157.535L 233.571 157.535"/>
<path style="stroke:#000000; stroke-width:1.59941; fill:none" d="M 234.77 150.336L 233.571 150.336"/>
<path style="stroke:#000000; stroke-width:1.59941; fill:none" d="M 234.77 143.539L 233.571 143.539"/>
<path style="stroke:#000000; stroke-width:1.59941; fill:none" d="M 234.77 136.344L 233.571 136.344"/>
<path style="stroke:#000000; stroke-width:1.59941; fill:none" d="M 234.77 129.543L 233.571 129.543"/>
<path style="stroke:#000000; stroke-width:1.59941; fill:none" d="M 234.77 122.746L 233.571 122.746"/>
<path style="stroke:#000000; stroke-width:1.59941; fill:none" d="M 234.77 115.551L 233.571 115.551"/>
<path style="stroke:#000000; stroke-width:1.59941; fill:none" d="M 234.77 108.754L 233.571 108.754"/>
<path style="stroke:#000000; stroke-width:1.59941; fill:none" d="M 234.77 101.555L 233.571 101.555"/>
<path style="stroke:#000000; stroke-width:1.59941; fill:none" d="M 234.77 94.7576L 233.571 94.7576"/>
<path style="stroke:#000000; stroke-width:1.59941; fill:none" d="M 234.77 87.9607L 233.571 87.9607"/>
<path style="stroke:#000000; stroke-width:1.59941; fill:none" d="M 234.77 80.761L 233.571 80.761"/>
<path style="stroke:#000000; stroke-width:1.59941; fill:none" d="M 234.77 73.965L 233.571 73.965"/>
<path style="stroke:#000000; stroke-width:1.59941; fill:none" d="M 234.77 67.168L 233.571 67.168"/>
<path style="stroke:#000000; stroke-width:1.59941; fill:none" d="M 234.77 59.969L 233.571 59.969"/>
<path style="stroke:#000000; stroke-width:1.59941; fill:none" d="M 234.77 53.172L 233.571 53.172"/>
<path style="stroke:#000000; stroke-width:1.59941; fill:none" d="M 234.77 45.976L 233.571 45.976"/>
<path style="stroke:#000000; stroke-width:1.59941; fill:none" d="M 234.77 39.179L 233.571 39.179"/>
<path style="stroke:#000000; stroke-width:1.59941; fill:none" d="M 234.77 32.379L 233.571 32.379"/>
<path style="stroke:#000000; stroke-width:1.59941; fill:none" d="M 234.77 25.183L 233.571 25.183"/>
<path style="stroke:#000000; stroke-width:1.59941; fill:none" d="M 234.77 18.387L 233.571 18.387"/>
<path style="stroke:#000000; stroke-width:1.59941; fill:none" d="M 39.6407 157.535L 42.0391 157.535"/>
<path style="stroke:#000000; stroke-width:1.59941; fill:none" d="M 39.6407 129.543L 42.0391 129.543"/>
<path style="stroke:#000000; stroke-width:1.59941; fill:none" d="M 39.6407 101.555L 42.0391 101.555"/>
<path style="stroke:#000000; stroke-width:1.59941; fill:none" d="M 39.6407 73.965L 42.0391 73.965"/>
<path style="stroke:#000000; stroke-width:1.59941; fill:none" d="M 39.6407 45.976L 42.0391 45.976"/>
<path style="stroke:#000000; stroke-width:1.59941; fill:none" d="M 39.6407 18.387L 42.0391 18.387"/>
<path style="stroke:#000000; stroke-width:1.59941; fill:none" d="M 234.77 157.535L 232.372 157.535"/>
<path style="stroke:#000000; stroke-width:1.59941; fill:none" d="M 234.77 129.543L 232.372 129.543"/>
<path style="stroke:#000000; stroke-width:1.59941; fill:none" d="M 234.77 101.555L 232.372 101.555"/>
<path style="stroke:#000000; stroke-width:1.59941; fill:none" d="M 234.77 73.965L 232.372 73.965"/>
<path style="stroke:#000000; stroke-width:1.59941; fill:none" d="M 234.77 45.976L 232.372 45.976"/>
<path style="stroke:#000000; stroke-width:1.59941; fill:none" d="M 234.77 18.387L 232.372 18.387"/>
<path style="stroke:none; fill-rule:evenodd; fill:#000000" d="M 20.5508 152C 19.8555 152 19.2227 152.297 18.8321 152.797C 18.3477 153.469 18.1055 154.5 18.1055 155.922C 18.1055 158.515 18.9493 159.89 20.5547 159.89C 22.1368 159.89 23.0039 158.515 23.0039 155.984C 23.0039 154.488 22.7735 153.492 22.2774 152.793C 21.8868 152.281 21.2657 151.996 20.5586 151.996L 20.5508 152zM 20.5508 152.801C 21.586 152.801 22.0977 153.84 22.0977 155.902C 22.0977 158.078 21.5977 159.097 20.5274 159.097C 19.5157 159.097 19 158.039 19 155.933C 19 153.832 19.5118 152.801 20.5469 152.801L 20.5508 152.801z"/>
<path style="stroke:none; fill-rule:evenodd; fill:#000000" d="M 24.6993 159.699L 25.7969 159.699L 25.7969 158.601L 24.6993 158.601L 24.6993 159.699z"/>
<path style="stroke:none; fill-rule:evenodd; fill:#000000" d="M 29.6485 152C 28.9532 152 28.3204 152.297 27.9297 152.797C 27.4454 153.469 27.2032 154.5 27.2032 155.922C 27.2032 158.515 28.0469 159.89 29.6524 159.89C 31.2344 159.89 32.1016 158.515 32.1016 155.984C 32.1016 154.488 31.8711 153.492 31.375 152.793C 30.9844 152.281 30.3633 151.996 29.6563 151.996L 29.6485 152zM 29.6485 152.801C 30.6836 152.801 31.1954 153.84 31.1954 155.902C 31.1954 158.078 30.6954 159.097 29.625 159.097C 28.6133 159.097 28.0977 158.039 28.0977 155.933C 28.0977 153.832 28.6094 152.801 29.6446 152.801L 29.6485 152.801z"/>
<path style="stroke:none; fill-rule:evenodd; fill:#000000" d="M 20.5508 124C 19.8555 124 19.2227 124.297 18.8321 124.797C 18.3477 125.469 18.1055 126.5 18.1055 127.922C 18.1055 130.515 18.9493 131.89 20.5547 131.89C 22.1368 131.89 23.0039 130.515 23.0039 127.984C 23.0039 126.488 22.7735 125.492 22.2774 124.793C 21.8868 124.281 21.2657 123.996 20.5586 123.996L 20.5508 124zM 20.5508 124.801C 21.586 124.801 22.0977 125.84 22.0977 127.902C 22.0977 130.078 21.5977 131.097 20.5274 131.097C 19.5157 131.097 19 130.039 19 127.933C 19 125.832 19.5118 124.801 20.5469 124.801L 20.5508 124.801z"/>
<path style="stroke:none; fill-rule:evenodd; fill:#000000" d="M 24.6993 131.699L 25.7969 131.699L 25.7969 130.601L 24.6993 130.601L 24.6993 131.699z"/>
<path style="stroke:none; fill-rule:evenodd; fill:#000000" d="M 32.1446 130.801L 28.1328 130.801C 28.2266 130.168 28.5704 129.765 29.5078 129.207L 30.5821 128.617C 31.6446 128.027 32.1954 127.23 32.1954 126.281C 32.1954 125.637 31.9375 125.039 31.4844 124.621C 31.0352 124.207 30.4766 124.008 29.7539 124.008C 28.7891 124.008 28.0664 124.359 27.6485 125.015C 27.3828 125.43 27.2618 125.914 27.2422 126.703L 28.2032 126.703C 28.2344 126.164 28.3008 125.84 28.4297 125.578C 28.6797 125.097 29.1836 124.805 29.7618 124.805C 30.6368 124.805 31.293 125.426 31.293 126.254C 31.293 126.863 30.9336 127.387 30.2422 127.781L 29.2383 128.347C 27.6211 129.262 27.1524 129.992 27.0625 131.699L 32.1368 131.699L 32.1446 130.801z"/>
<path style="stroke:none; fill-rule:evenodd; fill:#000000" d="M 20.5508 96.4021C 19.8555 96.4021 19.2227 96.699 18.8321 97.199C 18.3477 97.8709 18.1055 98.9021 18.1055 100.324C 18.1055 102.918 18.9493 104.293 20.5547 104.293C 22.1368 104.293 23.0039 102.918 23.0039 100.387C 23.0039 98.8904 22.7735 97.8943 22.2774 97.1951C 21.8868 96.6834 21.2657 96.3982 20.5586 96.3982L 20.5508 96.4021zM 20.5508 97.199C 21.586 97.199 22.0977 98.2381 22.0977 100.301C 22.0977 102.476 21.5977 103.496 20.5274 103.496C 19.5157 103.496 19 102.437 19 100.332C 19 98.2302 19.5118 97.199 20.5469 97.199L 20.5508 97.199z"/>
<path style="stroke:none; fill-rule:evenodd; fill:#000000" d="M 24.6993 104.101L 25.7969 104.101L 25.7969 103.004L 24.6993 103.004L 24.6993 104.101z"/>
<path style="stroke:none; fill-rule:evenodd; fill:#000000" d="M 30.3008 102.199L 30.3008 104.097L 31.1993 104.097L 31.1993 102.199L 32.3125 102.199L 32.3125 101.402L 31.1993 101.402L 31.1993 96.4021L 30.4961 96.4021L 27.0078 101.199L 27.0078 102.199L 30.3008 102.199zM 30.3008 101.402L 27.836 101.402L 30.3008 98.0662L 30.3008 101.402z"/>
<path style="stroke:none; fill-rule:evenodd; fill:#000000" d="M 20.5508 68.402C 19.8555 68.402 19.2227 68.699 18.8321 69.199C 18.3477 69.871 18.1055 70.902 18.1055 72.324C 18.1055 74.918 18.9493 76.293 20.5547 76.293C 22.1368 76.293 23.0039 74.918 23.0039 72.387C 23.0039 70.89 22.7735 69.894 22.2774 69.195C 21.8868 68.683 21.2657 68.398 20.5586 68.398L 20.5508 68.402zM 20.5508 69.199C 21.586 69.199 22.0977 70.238 22.0977 72.301C 22.0977 74.476 21.5977 75.496 20.5274 75.496C 19.5157 75.496 19 74.437 19 72.332C 19 70.23 19.5118 69.199 20.5469 69.199L 20.5508 69.199z"/>
<path style="stroke:none; fill-rule:evenodd; fill:#000000" d="M 24.6993 76.101L 25.7969 76.101L 25.7969 75.004L 24.6993 75.004L 24.6993 76.101z"/>
<path style="stroke:none; fill-rule:evenodd; fill:#000000" d="M 32.0782 70.402C 31.8985 69.148 31.0821 68.402 29.9258 68.402C 29.0899 68.402 28.3399 68.812 27.8907 69.492C 27.4219 70.234 27.2071 71.176 27.2071 72.566C 27.2071 73.847 27.3946 74.668 27.8438 75.347C 28.2461 75.961 28.9063 76.297 29.7344 76.297C 31.168 76.297 32.1993 75.242 32.1993 73.777C 32.1993 72.387 31.2305 71.402 29.8594 71.402C 29.1055 71.402 28.5118 71.672 28.1016 72.199C 28.1094 70.273 28.7188 69.199 29.8204 69.199C 30.4922 69.199 30.961 69.633 31.1133 70.398L 32.0782 70.402zM 29.793 72.199C 30.7188 72.199 31.2969 72.828 31.2969 73.847C 31.2969 74.801 30.6446 75.496 29.7618 75.496C 28.8672 75.496 28.1914 74.769 28.1914 73.797C 28.1914 72.855 28.8438 72.203 29.793 72.203L 29.793 72.199z"/>
<path style="stroke:none; fill-rule:evenodd; fill:#000000" d="M 20.5508 40.801C 19.8555 40.801 19.2227 41.097 18.8321 41.597C 18.3477 42.269 18.1055 43.301 18.1055 44.722C 18.1055 47.316 18.9493 48.691 20.5547 48.691C 22.1368 48.691 23.0039 47.316 23.0039 44.785C 23.0039 43.289 22.7735 42.293 22.2774 41.594C 21.8868 41.082 21.2657 40.797 20.5586 40.797L 20.5508 40.801zM 20.5508 41.601C 21.586 41.601 22.0977 42.64 22.0977 44.703C 22.0977 46.879 21.5977 47.898 20.5274 47.898C 19.5157 47.898 19 46.84 19 44.734C 19 42.633 19.5118 41.601 20.5469 41.601L 20.5508 41.601z"/>
<path style="stroke:none; fill-rule:evenodd; fill:#000000" d="M 24.6993 48.5L 25.7969 48.5L 25.7969 47.402L 24.6993 47.402L 24.6993 48.5z"/>
<path style="stroke:none; fill-rule:evenodd; fill:#000000" d="M 30.9219 44.429C 31.6563 43.957 31.8985 43.57 31.8985 42.844C 31.8985 41.648 30.9805 40.804 29.6485 40.804C 28.3282 40.804 27.3985 41.644 27.3985 42.844C 27.3985 43.554 27.6485 43.941 28.4024 44.429C 27.5313 44.847 27.0977 45.484 27.0977 46.328C 27.0977 47.73 28.1446 48.699 29.6446 48.699C 31.1446 48.699 32.1914 47.73 32.1914 46.34C 32.1914 45.488 31.7735 44.851 30.9141 44.433L 30.9219 44.429zM 29.6485 41.601C 30.4688 41.601 30.9961 42.094 30.9961 42.867C 30.9961 43.605 30.461 44.097 29.6485 44.097C 28.8399 44.097 28.3008 43.605 28.3008 42.855C 28.3008 42.094 28.836 41.601 29.6485 41.601zM 29.6485 44.902C 30.6289 44.902 31.2969 45.504 31.2969 46.394C 31.2969 47.297 30.6289 47.898 29.625 47.898C 28.668 47.898 28 47.289 28 46.394C 28 45.504 28.668 44.902 29.6485 44.902z"/>
<path style="stroke:none; fill-rule:evenodd; fill:#000000" d="M 20.3985 15.418L 20.3985 20.898L 21.2969 20.898L 21.2969 13.199L 20.6836 13.199C 20.3555 14.383 20.1446 14.543 18.7032 14.73L 18.7032 15.414L 20.3985 15.418z"/>
<path style="stroke:none; fill-rule:evenodd; fill:#000000" d="M 24.6993 20.902L 25.7969 20.902L 25.7969 19.804L 24.6993 19.804L 24.6993 20.902z"/>
<path style="stroke:none; fill-rule:evenodd; fill:#000000" d="M 29.6485 13.199C 28.9532 13.199 28.3204 13.496 27.9297 13.996C 27.4454 14.668 27.2032 15.699 27.2032 17.121C 27.2032 19.715 28.0469 21.09 29.6524 21.09C 31.2344 21.09 32.1016 19.715 32.1016 17.183C 32.1016 15.687 31.8711 14.691 31.375 13.992C 30.9844 13.48 30.3633 13.195 29.6563 13.195L 29.6485 13.199zM 29.6485 14C 30.6836 14 31.1954 15.039 31.1954 17.101C 31.1954 19.277 30.6954 20.297 29.625 20.297C 28.6133 20.297 28.0977 19.238 28.0977 17.133C 28.0977 15.031 28.6094 14 29.6446 14L 29.6485 14z"/>
<path style="stroke:none; fill-rule:evenodd; fill:#000000" d="M 80.5 1.30101L 82.8555 1.30101L 82.8555 0.0039978L 76.5508 0.0039978L 76.5508 1.30101L 78.8985 1.30101L 78.8985 7.89801L 80.4961 7.89801L 80.5 1.30101z"/>
<path style="stroke:none; fill-rule:evenodd; fill:#000000" d="M 83.6993 2.101L 83.6993 7.89801L 85.1996 7.89801L 85.1996 4.82001C 85.1996 3.94101 85.6366 3.504 86.5196 3.504C 86.6796 3.504 86.7856 3.50801 86.9926 3.51901L 86.9926 2.004C 86.9066 2.004 86.8556 2.004 86.8126 2.004C 86.1246 2.004 85.5236 2.44501 85.2036 3.21501L 85.2036 2.101L 83.6993 2.101z"/>
<path style="stroke:none; fill-rule:evenodd; fill:#000000" d="M 92.8556 7.67601C 92.5786 7.433 92.4996 7.27301 92.4996 6.972L 92.4996 3.77701C 92.4996 2.60501 91.6956 2.00801 90.1216 2.00801C 88.5506 2.00801 87.7306 2.668 87.6366 3.996L 89.0786 3.996C 89.1526 3.39801 89.3986 3.207 90.1366 3.207C 90.7106 3.207 90.9996 3.39801 90.9996 3.78101C 90.9996 3.972 90.9066 4.14 90.7466 4.226C 90.5466 4.332 90.5466 4.332 89.8086 4.44901L 89.2106 4.554C 88.0666 4.746 87.5116 5.332 87.5116 6.367C 87.5116 6.85501 87.6486 7.261 87.9136 7.55101C 88.2426 7.89 88.7426 8.09401 89.2576 8.09401C 89.8946 8.09401 90.4846 7.82001 91.0076 7.27301C 91.0076 7.57001 91.0396 7.67601 91.1836 7.847L 92.8636 7.847L 92.8556 7.67601zM 90.9996 5.55101C 90.9996 6.41 90.5746 6.89801 89.8166 6.89801C 89.3166 6.89801 89.0076 6.63701 89.0076 6.211C 89.0076 5.765 89.2426 5.554 89.8596 5.42601L 90.3716 5.332C 90.7656 5.261 90.8286 5.23801 90.9996 5.15201L 90.9996 5.55101z"/>
<path style="stroke:none; fill-rule:evenodd; fill:#000000" d="M 93.8986 2.101L 93.8986 7.89801L 95.3986 7.89801L 95.3986 4.433C 95.3986 3.75 95.8826 3.30101 96.6216 3.30101C 97.2696 3.30101 97.5936 3.65201 97.5936 4.336L 97.5936 7.89401L 99.0936 7.89401L 99.0936 4.00801C 99.0936 2.73001 98.3826 2 97.1446 2C 96.3596 2 95.8316 2.28101 95.3986 2.91L 95.3986 2.101L 93.8986 2.101z"/>
<path style="stroke:none; fill-rule:evenodd; fill:#000000" d="M 105.25 3.94901C 105.231 2.73801 104.278 2.004 102.707 2.004C 101.227 2.004 100.305 2.73401 100.305 3.91C 100.305 4.289 100.422 4.621 100.629 4.84001C 100.832 5.039 101.02 5.13701 101.582 5.31601L 103.391 5.867C 103.77 5.98001 103.899 6.097 103.899 6.332C 103.899 6.679 103.481 6.89 102.778 6.89C 102.391 6.89 102.079 6.82401 101.883 6.703C 101.723 6.597 101.657 6.48801 101.594 6.19901L 100.118 6.19901C 100.161 7.43701 101.094 8.09401 102.86 8.09401C 103.664 8.09401 104.278 7.92601 104.711 7.586C 105.141 7.25 105.399 6.71901 105.399 6.15601C 105.399 5.418 105.02 4.93701 104.25 4.71501L 102.332 4.17601C 101.911 4.05101 101.805 3.96501 101.805 3.73001C 101.805 3.414 102.153 3.203 102.684 3.203C 103.411 3.203 103.77 3.44501 103.782 3.94901L 105.25 3.94901z"/>
<path style="stroke:none; fill-rule:evenodd; fill:#000000" d="M 108 2.07001L 106.5 2.07001L 106.5 7.89801L 108 7.89801L 108 2.07001zM 108 0L 106.5 0L 106.5 1.29701L 108 1.29701L 108 0z"/>
<path style="stroke:none; fill-rule:evenodd; fill:#000000" d="M 112.051 2.19901L 111.204 2.19901L 111.204 0.625L 109.704 0.625L 109.704 2.19901L 108.957 2.19901L 108.957 3.19901L 109.704 3.19901L 109.704 6.742C 109.704 7.64801 110.188 8.09401 111.176 8.09401C 111.508 8.09401 111.778 8.06601 112.047 7.98001L 112.047 6.96901C 111.895 6.98401 111.809 6.996 111.7 6.996C 111.297 6.996 111.2 6.879 111.2 6.36301L 111.2 3.203L 112.047 3.203L 112.051 2.19901z"/>
<path style="stroke:none; fill-rule:evenodd; fill:#000000" d="M 114.602 2.07001L 113.102 2.07001L 113.102 7.89801L 114.602 7.89801L 114.602 2.07001zM 114.602 0L 113.102 0L 113.102 1.29701L 114.602 1.29701L 114.602 0z"/>
<path style="stroke:none; fill-rule:evenodd; fill:#000000" d="M 119.18 7.90201L 121.188 2.10501L 119.59 2.10501L 118.414 6.34001L 117.153 2.10501L 115.555 2.10501L 117.594 7.90201L 119.18 7.90201z"/>
<path style="stroke:none; fill-rule:evenodd; fill:#000000" d="M 123.602 2.07001L 122.102 2.07001L 122.102 7.89801L 123.602 7.89801L 123.602 2.07001zM 123.602 0L 122.102 0L 122.102 1.29701L 123.602 1.29701L 123.602 0z"/>
<path style="stroke:none; fill-rule:evenodd; fill:#000000" d="M 127.649 2.19901L 126.801 2.19901L 126.801 0.625L 125.301 0.625L 125.301 2.19901L 124.555 2.19901L 124.555 3.19901L 125.301 3.19901L 125.301 6.742C 125.301 7.64801 125.786 8.09401 126.774 8.09401C 127.106 8.09401 127.375 8.06601 127.645 7.98001L 127.645 6.96901C 127.493 6.98401 127.407 6.996 127.297 6.996C 126.895 6.996 126.797 6.879 126.797 6.36301L 126.797 3.203L 127.645 3.203L 127.649 2.19901z"/>
<path style="stroke:none; fill-rule:evenodd; fill:#000000" d="M 132.254 2.101L 131.047 6.31201L 129.766 2.101L 128.106 2.101L 130.274 8.183L 130.274 8.226C 130.274 8.77701 129.868 9.19901 129.336 9.19901C 129.219 9.19901 129.133 9.183 128.938 9.09001L 128.938 10.258C 129.164 10.289 129.293 10.301 129.477 10.301C 129.852 10.301 130.305 10.226 130.567 10.117C 130.985 9.94501 131.168 9.69901 131.418 9.00801L 133.813 2.10501L 132.254 2.101z"/>
<path style="stroke:none; fill-rule:evenodd; fill:#000000" d="M 141.102 1.30101L 143.457 1.30101L 143.457 0.0039978L 137.153 0.0039978L 137.153 1.30101L 139.5 1.30101L 139.5 7.89801L 141.098 7.89801L 141.102 1.30101z"/>
<path style="stroke:none; fill-rule:evenodd; fill:#000000" d="M 149.258 5.5C 149.266 5.371 149.266 5.31601 149.266 5.242C 149.266 4.66 149.18 4.117 149.04 3.707C 148.653 2.64801 147.715 2.00801 146.536 2.00801C 144.864 2.00801 143.84 3.19901 143.84 5.13301C 143.84 6.976 144.852 8.10501 146.504 8.10501C 147.809 8.10501 148.868 7.38301 149.2 6.265L 147.711 6.265C 147.528 6.668 147.11 6.90601 146.559 6.90601C 146.129 6.90601 145.786 6.73801 145.567 6.44501C 145.43 6.25 145.375 6.011 145.352 5.511L 149.258 5.5zM 145.372 4.5C 145.465 3.63701 145.844 3.203 146.512 3.203C 146.887 3.203 147.235 3.38301 147.45 3.67601C 147.586 3.88701 147.653 4.10501 147.684 4.496L 145.372 4.5z"/>
<path style="stroke:none; fill-rule:evenodd; fill:#000000" d="M 155.051 3.94901C 155.032 2.73801 154.079 2.004 152.508 2.004C 151.028 2.004 150.106 2.73401 150.106 3.91C 150.106 4.289 150.223 4.621 150.43 4.84001C 150.633 5.039 150.821 5.13701 151.383 5.31601L 153.192 5.867C 153.571 5.98001 153.7 6.097 153.7 6.332C 153.7 6.679 153.282 6.89 152.579 6.89C 152.192 6.89 151.879 6.82401 151.684 6.703C 151.524 6.597 151.457 6.48801 151.395 6.19901L 149.918 6.19901C 149.961 7.43701 150.895 8.09401 152.661 8.09401C 153.465 8.09401 154.079 7.92601 154.512 7.586C 154.942 7.25 155.2 6.71901 155.2 6.15601C 155.2 5.418 154.821 4.93701 154.051 4.71501L 152.133 4.17601C 151.711 4.05101 151.606 3.96501 151.606 3.73001C 151.606 3.414 151.954 3.203 152.485 3.203C 153.211 3.203 153.571 3.44501 153.582 3.94901L 155.051 3.94901z"/>
<path style="stroke:none; fill-rule:evenodd; fill:#000000" d="M 158.852 2.19901L 158.004 2.19901L 158.004 0.625L 156.504 0.625L 156.504 2.19901L 155.758 2.19901L 155.758 3.19901L 156.504 3.19901L 156.504 6.742C 156.504 7.64801 156.989 8.09401 157.977 8.09401C 158.309 8.09401 158.579 8.06601 158.848 7.98001L 158.848 6.96901C 158.696 6.98401 158.61 6.996 158.5 6.996C 158.098 6.996 158 6.879 158 6.36301L 158 3.203L 158.848 3.203L 158.852 2.19901z"/>
<path style="stroke:none; fill-rule:evenodd; fill:#000000" d="M 163.102 7.90201L 166.637 7.90201C 167.54 7.90201 168.145 7.73001 168.622 7.332C 169.094 6.933 169.395 6.261 169.395 5.63301C 169.395 4.85501 168.973 4.23801 168.082 3.71501C 168.813 3.21901 169.098 2.761 169.098 2.09001C 169.098 1.55101 168.832 0.975998 168.395 0.585999C 167.938 0.187012 167.395 0.0110016 166.563 0.0110016L 163.102 0.0110016L 163.102 7.90201zM 164.7 1.30101L 166.454 1.30101C 167.196 1.30101 167.594 1.63301 167.594 2.254C 167.594 2.86301 167.196 3.19501 166.454 3.19501L 164.7 3.19501L 164.7 1.30101zM 164.7 4.5L 166.672 4.5C 167.477 4.5 167.895 4.86301 167.895 5.554C 167.895 6.23001 167.477 6.597 166.672 6.597L 164.7 6.597L 164.7 4.5z"/>
<path style="stroke:none; fill-rule:evenodd; fill:#000000" d="M 176.778 7.90201L 178.786 2.10501L 177.188 2.10501L 176.012 6.34001L 174.75 2.10501L 173.153 2.10501L 175.192 7.90201L 176.778 7.90201z"/>
<path style="stroke:none; fill-rule:evenodd; fill:#000000" d="M 184.454 3.94901C 184.434 2.73801 183.481 2.004 181.911 2.004C 180.43 2.004 179.508 2.73401 179.508 3.91C 179.508 4.289 179.625 4.621 179.832 4.84001C 180.036 5.039 180.223 5.13701 180.786 5.31601L 182.594 5.867C 182.973 5.98001 183.102 6.097 183.102 6.332C 183.102 6.679 182.684 6.89 181.981 6.89C 181.594 6.89 181.282 6.82401 181.086 6.703C 180.926 6.597 180.86 6.48801 180.797 6.19901L 179.321 6.19901C 179.364 7.43701 180.297 8.09401 182.063 8.09401C 182.868 8.09401 183.481 7.92601 183.914 7.586C 184.344 7.25 184.602 6.71901 184.602 6.15601C 184.602 5.418 184.223 4.93701 183.454 4.71501L 181.536 4.17601C 181.114 4.05101 181.008 3.96501 181.008 3.73001C 181.008 3.414 181.356 3.203 181.887 3.203C 182.614 3.203 182.973 3.44501 182.985 3.94901L 184.454 3.94901z"/>
<path style="stroke:none; fill-rule:evenodd; fill:#000000" d="M 185.7 7.90201L 187.297 7.90201L 187.297 6.304L 185.7 6.304L 185.7 7.90201z"/>
<path style="stroke:none; fill-rule:evenodd; fill:#000000" d="M 193.5 4.5L 197.239 4.5L 197.239 3.203L 193.5 3.203L 193.5 1.304L 197.543 1.304L 197.543 0.00801086L 191.903 0.00801086L 191.903 7.90601L 197.739 7.90601L 197.739 6.60901L 193.504 6.60901L 193.5 4.5z"/>
<path style="stroke:none; fill-rule:evenodd; fill:#ffffff" d="M 88.4216 157.535L 67.6328 157.535"/>
<path style="stroke:#ffffff; stroke-width:0.0; fill:none" d="M 88.4216 157.535L 67.6328 157.535L 88.4216 157.535z"/>
<path style="stroke:#ffffff; stroke-width:1.59941; fill:none" d="M 88.4216 157.535L 67.6328 157.535L 88.4216 157.535z"/>
<path style="stroke:none; fill-rule:evenodd; fill:#ffffff" d="M 165.196 157.535L 185.985 157.535L 185.985 146.34L 165.196 146.34L 165.196 157.535z"/>
<path style="stroke:#ffffff; stroke-width:0.0; fill:none" d="M 165.196 157.535L 185.985 157.535L 185.985 146.34L 165.196 146.34L 165.196 157.535z"/>
<path style="stroke:#ffffff; stroke-width:1.59941; fill:none" d="M 165.196 157.535L 185.985 157.535L 185.985 146.34L 165.196 146.34L 165.196 157.535z"/>
<path style="stroke:#000000; stroke-width:1.59941; fill:none" d="M 88.4216 157.535L 67.6328 157.535L 88.4216 157.535z"/>
<path style="stroke:none; fill-rule:evenodd; fill:#000000" d="M 109.215 157.535L 88.4216 157.535"/>
<path style="stroke:#000000; stroke-width:0.0; fill:none" d="M 109.215 157.535L 88.4216 157.535L 109.215 157.535z"/>
<path style="stroke:#000000; stroke-width:1.59941; fill:none" d="M 109.215 157.535L 88.4216 157.535L 109.215 157.535z"/>
<path style="stroke:#000000; stroke-width:1.59941; fill:none" d="M 163.758 157.551L 206.301 157.551L 206.301 146.758L 163.758 146.758L 163.758 157.551z"/>
<path style="stroke:#000000; stroke-width:1.59941; fill:none" d="M 109.215 157.535L 88.4216 157.535L 109.215 157.535z"/>
<path style="stroke:#000000; stroke-width:1.59941; fill:none" d="M 39.6407 160.332L 234.766 160.332L 234.766 18.387L 39.6407 18.387L 39.6407 160.332z"/>
<path style="stroke:#000000; stroke-dasharray:6,3; stroke-width:1.59941; fill:none" d="M 39.2422 87.9607L 235.168 87.9607"/>
<path style="stroke:none; fill-rule:evenodd; fill:#000000" d="M 123.465 79.679C 123.262 78.551 122.606 78 121.469 78C 120.774 78 120.211 78.222 119.829 78.652C 119.36 79.168 119.106 79.918 119.106 80.765C 119.106 81.629 119.368 82.367 119.86 82.879C 120.254 83.297 120.766 83.488 121.446 83.488C 122.707 83.488 123.422 82.789 123.579 81.375L 122.887 81.375C 122.832 81.738 122.758 81.988 122.649 82.199C 122.434 82.637 121.989 82.883 121.422 82.883C 120.375 82.883 119.711 82.054 119.711 80.75C 119.711 79.41 120.344 78.586 121.364 78.586C 121.79 78.586 122.184 78.711 122.403 78.902C 122.594 79.074 122.704 79.289 122.786 79.66L 123.465 79.679z"/>
<path style="stroke:none; fill-rule:evenodd; fill:#000000" d="M 124.399 78.101L 124.399 83.301L 124.997 83.301L 124.997 81.195C 124.997 80.418 125.399 79.906 126.016 79.906C 126.207 79.906 126.403 79.969 126.547 80.078C 126.719 80.199 126.79 80.383 126.79 80.652L 126.79 83.297L 127.387 83.297L 127.387 80.433C 127.387 79.797 126.934 79.402 126.2 79.402C 125.668 79.402 125.344 79.57 124.989 80.047L 124.989 78.101L 124.399 78.101z"/>
<path style="stroke:none; fill-rule:evenodd; fill:#000000" d="M 131.75 82.949C 131.688 83 131.661 83 131.622 83C 131.414 83 131.301 82.894 131.301 82.703L 131.301 80.449C 131.301 79.769 130.813 79.406 129.883 79.406C 129.336 79.406 128.883 79.566 128.629 79.851C 128.457 80.047 128.387 80.265 128.372 80.648L 128.973 80.648C 129.02 80.207 129.293 80.008 129.856 80.008C 130.395 80.008 130.696 80.207 130.696 80.57L 130.696 80.726C 130.696 80.976 130.547 81.086 130.071 81.144C 129.223 81.25 129.094 81.281 128.864 81.375C 128.426 81.554 128.204 81.894 128.204 82.383C 128.204 83.066 128.676 83.5 129.442 83.5C 129.914 83.5 130.297 83.324 130.723 82.914C 130.766 83.316 130.95 83.5 131.34 83.5C 131.461 83.5 131.555 83.488 131.75 83.433L 131.75 82.949zM 130.7 82.14C 130.7 82.347 130.641 82.476 130.461 82.648C 130.215 82.879 129.914 83 129.559 83C 129.086 83 128.809 82.769 128.809 82.371C 128.809 81.961 129.079 81.754 129.727 81.656C 130.368 81.566 130.5 81.539 130.704 81.441L 130.7 82.14z"/>
<path style="stroke:none; fill-rule:evenodd; fill:#000000" d="M 132.399 79.511L 132.399 83.301L 132.997 83.301L 132.997 81.195C 132.997 80.418 133.399 79.906 134.016 79.906C 134.489 79.906 134.793 80.195 134.793 80.656L 134.793 83.301L 135.391 83.301L 135.391 80.437C 135.391 79.808 134.934 79.406 134.219 79.406C 133.672 79.406 133.317 79.621 132.993 80.148L 132.993 79.515L 132.399 79.511z"/>
<path style="stroke:none; fill-rule:evenodd; fill:#000000" d="M 139.29 80.797C 139.262 80.441 139.184 80.207 139.036 80.004C 138.778 79.629 138.321 79.406 137.793 79.406C 136.774 79.406 136.106 80.222 136.106 81.492C 136.106 82.722 136.754 83.504 137.786 83.504C 138.688 83.504 139.262 82.953 139.336 82.011L 138.723 82.011C 138.622 82.605 138.305 82.906 137.786 82.906C 137.114 82.906 136.711 82.375 136.711 81.496C 136.711 80.566 137.106 80.011 137.774 80.011C 138.286 80.011 138.61 80.297 138.68 80.804L 139.29 80.797z"/>
<path style="stroke:none; fill-rule:evenodd; fill:#000000" d="M 143.2 81.601C 143.2 81.027 143.157 80.679 143.051 80.398C 142.809 79.781 142.235 79.406 141.532 79.406C 140.485 79.406 139.809 80.222 139.809 81.476C 139.809 82.73 140.461 83.504 141.512 83.504C 142.372 83.504 142.965 83.004 143.118 82.16L 142.512 82.16C 142.348 82.648 142.008 82.902 141.524 82.902C 141.141 82.902 140.817 82.73 140.614 82.414C 140.469 82.199 140.422 81.984 140.414 81.605L 143.2 81.601zM 140.43 81.129C 140.477 80.433 140.903 79.98 141.508 79.98C 142.098 79.98 142.551 80.469 142.551 81.086C 142.551 81.097 142.551 81.113 142.547 81.129L 140.43 81.129z"/>
<path style="stroke:none; fill-rule:evenodd; fill:#000000" d="M 5.1016 129.101L 5.1016 127.082C 5.1016 125.637 4.0704 124.703 2.461 124.703C 0.875 124.703 0.00389957 125.597 0.00389957 127.234L 0.00389957 130.699L 7.9024 130.699L 7.9024 129.101L 5.1016 129.101zM 3.8008 129.101L 1.3008 129.101L 1.3008 127.578C 1.3008 126.711 1.6993 126.305 2.5547 126.305C 3.3985 126.305 3.7969 126.707 3.7969 127.578L 3.8008 129.101z"/>
<path style="stroke:none; fill-rule:evenodd; fill:#000000" d="M 2.1016 123.601L 7.8985 123.601L 7.8985 122.101L 4.8204 122.101C 3.9414 122.101 3.5039 121.664 3.5039 120.781C 3.5039 120.621 3.5078 120.515 3.5196 120.308L 2.0039 120.308C 2.0039 120.394 2.0039 120.445 2.0039 120.488C 2.0039 121.176 2.4454 121.777 3.2149 122.097L 2.1016 122.097L 2.1016 123.601z"/>
<path style="stroke:none; fill-rule:evenodd; fill:#000000" d="M 2 116.863C 2 118.621 3.1602 119.699 5.0469 119.699C 6.9414 119.699 8.0938 118.625 8.0938 116.851C 8.0938 115.101 6.9336 114.004 5.0899 114.004C 3.1407 114.004 2 115.058 2 116.863zM 3.1993 116.851C 3.1993 116.035 3.9336 115.504 5.0664 115.504C 6.1446 115.504 6.8907 116.055 6.8907 116.851C 6.8907 117.656 6.1446 118.199 5.043 118.199C 3.9454 118.199 3.1954 117.66 3.1954 116.851L 3.1993 116.851z"/>
<path style="stroke:none; fill-rule:evenodd; fill:#000000" d="M 2.0977 111.402L 2.0977 112.902L 10.2969 112.902L 10.2969 111.402L 7.2071 111.402C 7.8828 111.035 8.1954 110.512 8.1954 109.769C 8.1954 108.351 6.8789 107.305 5.1016 107.305C 4.2813 107.305 3.4571 107.543 2.918 107.937C 2.3672 108.328 2 109.058 2 109.765C 2 110.504 2.3125 111.027 2.961 111.398L 2.0977 111.402zM 3.3008 110.101C 3.3008 109.32 4.0313 108.805 5.125 108.805C 6.1641 108.805 6.8946 109.344 6.8946 110.101C 6.8946 110.871 6.1758 111.398 5.1016 111.398C 4.0313 111.398 3.2969 110.871 3.2969 110.101L 3.3008 110.101z"/>
<path style="stroke:none; fill-rule:evenodd; fill:#000000" d="M 2 103.762C 2 105.519 3.1602 106.597 5.0469 106.597C 6.9414 106.597 8.0938 105.523 8.0938 103.75C 8.0938 102 6.9336 100.902 5.0899 100.902C 3.1407 100.902 2 101.957 2 103.762zM 3.1993 103.75C 3.1993 102.933 3.9336 102.402 5.0664 102.402C 6.1446 102.402 6.8907 102.953 6.8907 103.75C 6.8907 104.555 6.1446 105.097 5.043 105.097C 3.9454 105.097 3.1954 104.558 3.1954 103.75L 3.1993 103.75z"/>
<path style="stroke:none; fill-rule:evenodd; fill:#000000" d="M 2.1016 99.699L 7.8985 99.699L 7.8985 98.199L 4.8204 98.199C 3.9414 98.199 3.5039 97.7615 3.5039 96.8787C 3.5039 96.7185 3.5078 96.6131 3.5196 96.406L 2.0039 96.406C 2.0039 96.492 2.0039 96.5428 2.0039 96.5857C 2.0039 97.2732 2.4454 97.8748 3.2149 98.1951L 2.1016 98.1951L 2.1016 99.699z"/>
<path style="stroke:none; fill-rule:evenodd; fill:#000000" d="M 2.1993 92.949L 2.1993 93.7967L 0.625 93.7967L 0.625 95.2967L 2.1993 95.2967L 2.1993 96.0428L 3.1993 96.0428L 3.1993 95.2967L 6.7422 95.2967C 7.6485 95.2967 8.0938 94.8123 8.0938 93.824C 8.0938 93.492 8.0664 93.2224 7.9805 92.9529L 6.9688 92.9529C 6.9844 93.1052 6.9961 93.1912 6.9961 93.3006C 6.9961 93.7029 6.8789 93.8006 6.3633 93.8006L 3.1993 93.8006L 3.1993 92.9529L 2.1993 92.949z"/>
<path style="stroke:none; fill-rule:evenodd; fill:#000000" d="M 2.0704 90.4021L 2.0704 91.9021L 7.8985 91.9021L 7.8985 90.4021L 2.0704 90.4021zM 0 90.4021L 0 91.9021L 1.2969 91.9021L 1.2969 90.4021L 0 90.4021z"/>
<path style="stroke:none; fill-rule:evenodd; fill:#000000" d="M 2 86.363C 2 88.1209 3.1602 89.199 5.0469 89.199C 6.9414 89.199 8.0938 88.1248 8.0938 86.351C 8.0938 84.601 6.9336 83.504 5.0899 83.504C 3.1407 83.504 2 84.558 2 86.363zM 3.1993 86.351C 3.1993 85.535 3.9336 85.004 5.0664 85.004C 6.1446 85.004 6.8907 85.554 6.8907 86.351C 6.8907 87.156 6.1446 87.699 5.043 87.699C 3.9454 87.699 3.1954 87.16 3.1954 86.351L 3.1993 86.351z"/>
<path style="stroke:none; fill-rule:evenodd; fill:#000000" d="M 2.1016 82.301L 7.8985 82.301L 7.8985 80.801L 4.4336 80.801C 3.75 80.801 3.3008 80.316 3.3008 79.578C 3.3008 78.929 3.6524 78.605 4.336 78.605L 7.8946 78.605L 7.8946 77.105L 4.0078 77.105C 2.7305 77.105 2 77.816 2 79.054C 2 79.84 2.2813 80.367 2.9102 80.801L 2.1016 80.801L 2.1016 82.301z"/>
<path style="stroke:none; fill-rule:evenodd; fill:#000000" d="M 7.8985 72.5L 7.8985 68.965C 7.8985 68.062 7.7266 67.457 7.3282 66.98C 6.9297 66.508 6.2578 66.207 5.6289 66.207C 4.8516 66.207 4.2344 66.629 3.711 67.519C 3.2149 66.789 2.7578 66.504 2.086 66.504C 1.5469 66.504 0.9727 66.769 0.5821 67.207C 0.183599 67.664 0.0078001 68.207 0.0078001 69.039L 0.0078001 72.5L 7.8985 72.5zM 1.3008 70.902L 1.3008 69.148C 1.3008 68.406 1.6328 68.008 2.2539 68.008C 2.8633 68.008 3.1954 68.406 3.1954 69.148L 3.1954 70.902L 1.3008 70.902zM 4.5 70.902L 4.5 68.929C 4.5 68.125 4.8633 67.707 5.5547 67.707C 6.2305 67.707 6.5977 68.125 6.5977 68.929L 6.5977 70.902L 4.5 70.902z"/>
<path style="stroke:none; fill-rule:evenodd; fill:#000000" d="M 4.8008 60.101L 4.8008 58.238C 4.8008 57.535 5.0782 57.23 5.7305 57.23C 5.793 57.23 5.8985 57.23 6.0391 57.238C 6.2422 57.246 6.4336 57.246 6.5508 57.246C 7.2774 57.246 7.5157 57.203 7.8907 56.996L 7.8907 55.289L 7.5977 55.289C 7.4571 55.535 7.2969 55.633 6.9493 55.633C 4.6211 55.676 4.5118 55.719 4.0821 56.722C 3.7383 55.84 3.0977 55.398 2.1328 55.398C 1.5039 55.398 0.933599 55.613 0.542999 55.988C 0.175799 56.34 0 56.836 0 57.5L 0 61.695L 7.8985 61.695L 7.8985 60.097L 4.8008 60.101zM 3.5 60.101L 1.3008 60.101L 1.3008 58.148C 1.3008 57.687 1.3438 57.492 1.5196 57.297C 1.6914 57.105 1.9805 57.008 2.375 57.008C 2.7774 57.008 3.1016 57.113 3.2774 57.297C 3.4375 57.469 3.4961 57.683 3.4961 58.148L 3.5 60.101z"/>
<path style="stroke:none; fill-rule:evenodd; fill:#000000" d="M 5.5 49.144C 5.3711 49.137 5.3164 49.137 5.2422 49.137C 4.6602 49.137 4.1172 49.222 3.7071 49.363C 2.6485 49.75 2.0078 50.687 2.0078 51.867C 2.0078 53.539 3.1993 54.562 5.1328 54.562C 6.9766 54.562 8.1055 53.551 8.1055 51.898C 8.1055 50.594 7.3828 49.535 6.2657 49.203L 6.2657 50.691C 6.668 50.875 6.9063 51.293 6.9063 51.844C 6.9063 52.273 6.7383 52.617 6.4454 52.836C 6.25 52.972 6.0118 53.027 5.5118 53.051L 5.5 49.144zM 4.5 53.031C 3.6368 52.937 3.2032 52.558 3.2032 51.89C 3.2032 51.515 3.3828 51.168 3.6758 50.953C 3.8868 50.816 4.1055 50.75 4.4961 50.719L 4.5 53.031z"/>
<path style="stroke:none; fill-rule:evenodd; fill:#000000" d="M 3.9493 43.347C 2.7383 43.367 2.0039 44.32 2.0039 45.89C 2.0039 47.371 2.7344 48.293 3.9102 48.293C 4.2891 48.293 4.6211 48.176 4.8399 47.969C 5.0391 47.765 5.1368 47.578 5.3164 47.015L 5.8672 45.207C 5.9805 44.828 6.0977 44.699 6.3321 44.699C 6.6797 44.699 6.8907 45.117 6.8907 45.82C 6.8907 46.207 6.8243 46.519 6.7032 46.715C 6.5977 46.875 6.4883 46.941 6.1993 47.004L 6.1993 48.48C 7.4375 48.437 8.0938 47.504 8.0938 45.738C 8.0938 44.933 7.9258 44.32 7.586 43.887C 7.25 43.457 6.7188 43.199 6.1563 43.199C 5.418 43.199 4.9375 43.578 4.7149 44.347L 4.1758 46.265C 4.0508 46.687 3.9649 46.793 3.7344 46.793C 3.418 46.793 3.2071 46.445 3.2071 45.914C 3.2071 45.187 3.4493 44.828 3.9532 44.816L 3.9493 43.347z"/>
<path style="stroke:none; fill-rule:evenodd; fill:#000000" d="M 2.0977 40.699L 2.0977 42.199L 10.2969 42.199L 10.2969 40.699L 7.2071 40.699C 7.8828 40.332 8.1954 39.808 8.1954 39.066C 8.1954 37.648 6.8789 36.601 5.1016 36.601C 4.2813 36.601 3.4571 36.84 2.918 37.234C 2.3672 37.625 2 38.355 2 39.062C 2 39.801 2.3125 40.324 2.961 40.695L 2.0977 40.699zM 3.3008 39.402C 3.3008 38.621 4.0313 38.105 5.125 38.105C 6.1641 38.105 6.8946 38.644 6.8946 39.402C 6.8946 40.172 6.1758 40.699 5.1016 40.699C 4.0313 40.699 3.2969 40.172 3.2969 39.402L 3.3008 39.402z"/>
</g>
</svg>