<?xml version="1.0" encoding="ISO-8859-1" standalone="yes"?>
<svg width="348.641" height="205.367">
  <defs> 
    <marker id="ArrowEnd" viewBox="0 0 10 10" refX="0" refY="5" 
     markerUnits="strokeWidth" 
     markerWidth="4" 
     markerHeight="3" 
     orient="auto"> 
        <path d="M 0 0 L 10 5 L 0 10 z" /> 
    </marker>
    <marker id="ArrowStart" viewBox="0 0 10 10" refX="10" refY="5" 
     markerUnits="strokeWidth" 
     markerWidth="4" 
     markerHeight="3" 
     orient="auto"> 
        <path d="M 10 0 L 0 5 L 10 10 z" /> 
    </marker> </defs>
<g>
<path style="stroke:none; fill-rule:evenodd; fill:#ff0000" d="M 36.6562 44.399L 39.3867 44.399C 40.3281 44.399 40.75 44.856 40.75 45.887L 40.75 46.629C 40.75 47.145 40.8359 47.649 40.9805 47.992L 42.2383 47.992L 42.2383 47.731C 41.8476 47.457 41.7656 47.156 41.7461 46.039C 41.7344 44.656 41.5156 44.242 40.6016 43.852C 41.5586 43.391 41.9453 42.805 41.9453 41.848C 41.9453 40.399 41.039 39.602 39.4023 39.602L 35.5508 39.602L 35.5508 48L 36.6484 48L 36.6562 44.399zM 36.5898 43.453L 36.5898 40.574L 39.1719 40.574C 39.7656 40.574 40.1094 40.664 40.375 40.895C 40.6601 41.133 40.8086 41.512 40.8086 42.02C 40.8086 43.004 40.3047 43.453 39.168 43.453L 36.5898 43.453z"/>
<path style="stroke:none; fill-rule:evenodd; fill:#ff0000" d="M 48.5547 45.297C 48.5547 44.379 48.4883 43.828 48.3164 43.383C 47.9297 42.399 47.0156 41.801 45.8984 41.801C 44.2344 41.801 43.1601 43.094 43.1601 45.082C 43.1601 47.07 44.1953 48.297 45.8711 48.297C 47.2344 48.297 48.1797 47.504 48.4219 46.172L 47.4687 46.172C 47.207 46.977 46.6758 47.395 45.914 47.395C 45.3125 47.395 44.8008 47.117 44.4844 46.602C 44.2578 46.254 44.1797 45.902 44.168 45.297L 48.5547 45.297zM 44.1367 44.531C 44.2148 43.418 44.8945 42.695 45.8555 42.695C 46.793 42.695 47.5195 43.473 47.5195 44.461C 47.5195 44.481 47.5195 44.504 47.5078 44.527L 44.1367 44.531z"/>
<path style="stroke:none; fill-rule:evenodd; fill:#ff0000" d="M 54.7578 39.598L 53.7578 39.598L 53.7578 42.738C 53.3594 42.125 52.7226 41.797 51.9219 41.797C 50.375 41.797 49.3594 43.055 49.3594 44.988C 49.3594 47.035 50.3711 48.293 52.0117 48.293C 52.8476 48.293 53.4297 47.973 53.9531 47.203L 53.9531 47.992L 54.75 47.992L 54.7578 39.598zM 52.082 42.699C 53.1016 42.699 53.75 43.625 53.75 45.07C 53.75 46.469 53.0937 47.395 52.0937 47.395C 51.0508 47.395 50.3555 46.457 50.3555 45.047C 50.3555 43.637 51.0469 42.699 52.082 42.699z"/>
<path style="stroke:#ff0000; stroke-dasharray:6,3; stroke-width:1.9133; fill:none" d="M 21.7344 57.793L 67.1875 57.793L 67.1875 31.414L 21.7344 31.414L 21.7344 57.793z"/>
<path style="stroke:none; fill-rule:evenodd; fill:#0000ff" d="M 105.156 48L 108.965 48C 109.762 48 110.352 47.781 110.805 47.301C 111.219 46.863 111.453 46.266 111.453 45.609C 111.453 44.598 110.981 43.985 109.879 43.574C 110.645 43.219 111.051 42.598 111.051 41.746C 111.051 41.137 110.824 40.598 110.383 40.203C 109.946 39.801 109.371 39.617 108.563 39.617L 105.153 39.617L 105.156 48zM 106.258 43.297L 106.258 40.5L 108.301 40.5C 108.891 40.5 109.219 40.582 109.5 40.813C 109.793 41.051 109.953 41.414 109.953 41.899C 109.953 42.367 109.797 42.742 109.5 42.985C 109.219 43.211 108.891 43.297 108.301 43.297L 106.258 43.297zM 106.258 47.098L 106.258 44.199L 108.856 44.199C 109.367 44.199 109.711 44.324 109.965 44.602C 110.215 44.867 110.352 45.235 110.352 45.652C 110.352 46.055 110.215 46.426 109.965 46.692C 109.715 46.965 109.371 47.094 108.856 47.094L 106.258 47.098z"/>
<path style="stroke:none; fill-rule:evenodd; fill:#0000ff" d="M 112.758 48L 113.758 48L 113.758 39.602L 112.758 39.602L 112.758 48z"/>
<path style="stroke:none; fill-rule:evenodd; fill:#0000ff" d="M 120.055 48.035L 120.055 42.004L 119.055 42.004L 119.055 45.449C 119.055 46.688 118.41 47.5 117.403 47.5C 116.641 47.5 116.156 47.039 116.156 46.309L 116.156 42.004L 115.156 42.004L 115.156 46.656C 115.156 47.656 115.914 48.301 117.106 48.301C 118.004 48.301 118.578 47.992 119.153 47.199L 119.153 48.039L 120.055 48.035z"/>
<path style="stroke:none; fill-rule:evenodd; fill:#0000ff" d="M 126.758 45.297C 126.758 44.379 126.692 43.828 126.52 43.383C 126.133 42.399 125.219 41.801 124.102 41.801C 122.438 41.801 121.363 43.094 121.363 45.082C 121.363 47.07 122.399 48.297 124.074 48.297C 125.438 48.297 126.383 47.504 126.625 46.172L 125.672 46.172C 125.41 46.977 124.879 47.395 124.117 47.395C 123.516 47.395 123.004 47.117 122.688 46.602C 122.461 46.254 122.383 45.902 122.371 45.297L 126.758 45.297zM 122.336 44.531C 122.414 43.418 123.094 42.695 124.055 42.695C 124.992 42.695 125.719 43.473 125.719 44.461C 125.719 44.481 125.719 44.504 125.707 44.527L 122.336 44.531z"/>
<path style="stroke:#0000ff; stroke-dasharray:6,3; stroke-width:2.8699499999999998; fill:none" d="M 93.0038 57.793L 138.457 57.793L 138.457 31.414L 93.0038 31.414L 93.0038 57.793z"/>
<path style="stroke:#000000; stroke-width:1.9133; fill:none" d="M 93.0038 103.711L 138.457 103.711L 138.457 77.332L 93.0038 77.332L 93.0038 103.711z"/>
<path style="stroke:none; fill-rule:evenodd; fill:#000000" d="M 103.856 87.988C 103.848 86.352 102.727 85.402 100.813 85.402C 98.9878 85.402 97.8598 86.352 97.8598 87.879C 97.8598 88.906 98.3908 89.559 99.4808 89.848L 101.535 90.402C 102.578 90.68 103.055 91.106 103.055 91.766C 103.055 92.215 102.817 92.68 102.469 92.934C 102.141 93.164 101.621 93.289 100.953 93.289C 100.059 93.289 99.4488 93.063 99.0548 92.563C 98.7498 92.184 98.6128 91.766 98.6638 91.227L 97.6638 91.227C 97.6718 92.004 97.8198 92.516 98.1488 92.981C 98.7148 93.77 99.6678 94.188 100.926 94.188C 101.91 94.188 102.715 93.961 103.25 93.543C 103.805 93.098 104.156 92.348 104.156 91.621C 104.156 90.586 103.524 89.828 102.399 89.516L 100.324 88.953C 99.3278 88.68 98.9648 88.356 98.9648 87.711C 98.9648 86.859 99.6988 86.293 100.805 86.293C 102.113 86.293 102.848 86.895 102.86 87.981L 103.856 87.988z"/>
<path style="stroke:none; fill-rule:evenodd; fill:#000000" d="M 110.457 96.399L 110.457 87.902L 109.66 87.902L 109.66 88.688C 109.207 88.051 108.52 87.703 107.719 87.703C 106.113 87.703 105.067 89.008 105.067 91.02C 105.067 92.985 106.043 94.199 107.617 94.199C 108.446 94.199 109.016 93.891 109.461 93.211L 109.461 96.399L 110.457 96.399zM 107.809 88.606C 108.828 88.606 109.485 89.524 109.485 90.969C 109.485 92.344 108.82 93.262 107.809 93.262C 106.754 93.262 106.055 92.332 106.055 90.934C 106.055 89.547 106.754 88.606 107.809 88.606z"/>
<path style="stroke:none; fill-rule:evenodd; fill:#000000" d="M 116.758 93.934L 116.758 87.902L 115.758 87.902L 115.758 91.348C 115.758 92.586 115.113 93.399 114.106 93.399C 113.344 93.399 112.86 92.938 112.86 92.207L 112.86 87.902L 111.86 87.902L 111.86 92.555C 111.86 93.555 112.617 94.199 113.809 94.199C 114.707 94.199 115.281 93.891 115.856 93.098L 115.856 93.938L 116.758 93.934z"/>
<path style="stroke:none; fill-rule:evenodd; fill:#000000" d="M 123.598 93.336C 123.492 93.395 123.446 93.395 123.387 93.395C 123.047 93.395 122.86 93.223 122.86 92.922L 122.86 89.356C 122.86 88.281 122.082 87.699 120.61 87.699C 119.742 87.699 119.024 87.953 118.621 88.402C 118.348 88.711 118.235 89.059 118.211 89.66L 119.156 89.66C 119.235 88.93 119.66 88.598 120.543 88.598C 121.387 88.598 121.86 88.918 121.86 89.496L 121.86 89.75C 121.86 90.152 121.625 90.324 120.883 90.418C 119.559 90.59 119.356 90.637 118.996 90.785C 118.313 91.07 117.965 91.613 117.965 92.399C 117.965 93.492 118.719 94.184 119.93 94.184C 120.684 94.184 121.289 93.91 121.965 93.266C 122.031 93.899 122.328 94.184 122.946 94.184C 123.137 94.184 123.285 94.16 123.594 94.078L 123.598 93.336zM 121.856 92.039C 121.856 92.367 121.766 92.57 121.488 92.844C 121.11 93.207 120.653 93.399 120.106 93.399C 119.383 93.399 118.957 93.035 118.957 92.406C 118.957 91.758 119.367 91.426 120.36 91.274C 121.34 91.133 121.539 91.086 121.852 90.934L 121.856 92.039z"/>
<path style="stroke:none; fill-rule:evenodd; fill:#000000" d="M 124.656 87.871L 124.656 93.895L 125.656 93.895L 125.656 90.762C 125.656 89.899 125.867 89.336 126.317 89C 126.606 88.781 126.887 88.715 127.539 88.703L 127.539 87.738C 127.383 87.719 127.305 87.707 127.18 87.707C 126.57 87.707 126.106 88.074 125.559 88.969L 125.559 87.879L 124.656 87.871z"/>
<path style="stroke:none; fill-rule:evenodd; fill:#000000" d="M 133.555 91.199C 133.555 90.281 133.488 89.731 133.317 89.285C 132.93 88.301 132.016 87.703 130.899 87.703C 129.235 87.703 128.16 88.996 128.16 90.985C 128.16 92.973 129.196 94.199 130.871 94.199C 132.235 94.199 133.18 93.406 133.422 92.074L 132.469 92.074C 132.207 92.879 131.676 93.297 130.914 93.297C 130.313 93.297 129.801 93.02 129.485 92.504C 129.258 92.156 129.18 91.805 129.168 91.199L 133.555 91.199zM 129.137 90.434C 129.215 89.32 129.895 88.598 130.856 88.598C 131.793 88.598 132.52 89.375 132.52 90.363C 132.52 90.383 132.52 90.406 132.508 90.43L 129.137 90.434z"/>
<path style="stroke:#0000ff; stroke-dasharray:6,3; stroke-width:1.9133; fill:none" d="M 82.6448 195.34L 120.547 195.34L 120.547 157.988L 82.6448 157.988L 82.6448 195.34z"/>
<path style="stroke:#000000; stroke-width:1.9133; fill:none" d="M 52.1133 137.918C 52.1133 137.918 52.1133 137.918 54.0234 139.828C 55.9336 141.738 59.7617 145.566 66.7773 147.481C 73.7928 149.391 83.9958 149.391 91.0118 147.481C 98.0278 145.57 101.852 141.742 103.766 139.828C 105.676 137.918 105.676 137.918 105.676 137.918"/>
<path style="stroke:#000000; stroke-width:1.9133; fill:none" d="M 44.4609 145.574L 78.8988 114.965"/>
<path style="stroke:#000000; stroke-width:1.9133; fill:none" d="M 78.9028 114.961L 113.34 145.57"/>
<path style="stroke:#000000; stroke-width:1.9133; fill:none" d="M 63.5937 145.574C 63.5937 145.574 63.5937 145.574 65.5039 144.938C 67.414 144.301 71.2422 143.027 74.4298 142.387C 77.6168 141.75 80.1678 141.75 83.9918 142.387C 87.8168 143.024 92.9178 144.297 95.4688 144.938C 98.0198 145.574 98.0198 145.574 98.0198 145.574"/>
<path style="stroke:#000000; stroke-dasharray:6,3; stroke-width:2.8699499999999998; fill:none" d="M 174.844 41.008C 174.844 41.008 174.844 41.008 177.11 38.797C 179.375 36.586 183.906 32.16 187.531 32.715C 191.156 33.266 193.875 38.797 197.047 41.563C 200.219 44.328 203.844 44.328 207.016 42.113C 210.188 39.902 212.906 35.477 216.531 33.82C 220.156 32.164 224.684 33.27 228.762 37.137C 232.836 41.008 236.461 47.645 240.086 45.985C 243.711 44.328 247.336 34.371 250.961 33.266C 254.586 32.16 258.211 39.902 261.836 41.559C 265.461 43.215 269.086 38.793 272.711 38.242C 276.336 37.692 279.961 41.008 284.035 40.453C 288.11 39.902 292.641 35.477 297.176 33.817C 301.703 32.16 306.238 33.266 308.5 36.027C 310.766 38.793 310.766 43.215 313.481 46.535C 316.199 49.852 321.633 52.063 322.086 57.043C 322.535 62.02 318.012 69.762 317.559 72.527C 317.11 75.293 320.731 73.078 322.996 75.844C 325.262 78.609 326.168 86.352 325.262 92.434C 324.36 98.516 321.637 102.942 318.012 100.727C 314.387 98.516 309.86 89.668 308.5 90.219C 307.145 90.77 308.949 100.727 308.949 106.258C 308.949 111.785 307.141 112.895 303.969 111.785C 300.797 110.68 296.27 107.363 292.192 103.492C 288.117 99.621 284.492 95.195 281.317 94.645C 278.145 94.094 275.426 97.41 271.801 97.41C 268.176 97.41 263.649 94.094 260.477 95.754C 257.305 97.41 255.496 104.051 253.227 105.707C 250.961 107.363 248.246 104.051 245.074 101.285C 241.903 98.52 238.278 96.309 236.016 94.649C 233.75 92.992 232.844 91.887 231.488 93.543C 230.133 95.199 228.317 99.625 225.598 100.731C 222.879 101.836 219.254 99.625 217.446 101.281C 215.637 102.938 215.637 108.469 212.465 108.469C 209.293 108.469 202.949 102.942 199.781 99.067C 196.61 95.195 196.61 92.985 195.254 92.43C 193.899 91.879 191.18 92.981 186.649 94.086C 182.121 95.192 175.774 96.297 172.602 94.086C 169.43 91.875 169.43 86.344 170.793 83.578C 172.149 80.817 174.867 80.817 173.965 76.942C 173.063 73.07 168.531 65.328 167.621 62.008C 166.719 58.692 169.434 59.797 171.246 58.692C 173.059 57.586 173.965 54.27 173.512 49.844C 173.063 45.422 171.246 39.891 171.246 38.231C 171.246 36.574 173.059 38.781 173.965 39.887C 174.867 40.992 174.867 40.992 174.867 40.992"/>
<path style="stroke:#ff0000; stroke-dasharray:6,3; stroke-width:1.9133; fill:none" d="M 55.9414 156.098L 75.0738 195.32"/>
<path style="stroke:#ff0000; stroke-dasharray:6,3; stroke-width:1.9133; fill:none" d="M 75.0738 195.32L 32.9844 195.32"/>
<path style="stroke:#ff0000; stroke-dasharray:6,3; stroke-width:1.9133; fill:none" d="M 33.4609 194.84L 55.9414 156.098"/>
<path style="stroke:#000000; stroke-width:0.95664899999999997; fill:none" d="M 55.9414 157.055L 27.7226 57.567"/>
<path style="stroke:#000000; stroke-width:0.95664899999999997; fill:none" d="M 27.9687 65.445L 27.7226 57.563L 31.6484 64.402"/>
<path style="stroke:#000000; stroke-width:0.95664899999999997; fill:none" d="M 55.9414 157.055L 62.6367 103.485"/>
<path style="stroke:#000000; stroke-width:0.95664899999999997; fill:none" d="M 59.789 110.836L 62.6367 103.481L 63.582 111.309"/>
<path style="stroke:#000000; stroke-width:0.95664899999999997; fill:none" d="M 98.0348 157.055L 97.0818 57.086"/>
<path style="stroke:#000000; stroke-width:0.95664899999999997; fill:none" d="M 95.2378 64.754L 97.0778 57.086L 99.0628 64.719"/>
<path style="stroke:#000000; stroke-width:0.95664899999999997; fill:none" d="M 98.0348 157.055L 124.82 103.008"/>
<path style="stroke:#000000; stroke-width:0.95664899999999997; fill:none" d="M 119.707 109.012L 124.817 103.004L 123.133 110.707"/>
<path style="stroke:#ff0000; stroke-dasharray:6,3; stroke-width:1.9133; fill:none" d="M 260.578 85.328L 298.481 85.328L 298.481 47.977L 260.578 47.977L 260.578 85.328z"/>
<path style="stroke:none; fill-rule:evenodd; fill:#ff0000" d="M 280.258 67.817L 280.258 67.281C 280.258 66.777 280.379 66.586 281.137 65.863C 281.973 65.086 282.254 64.57 282.254 63.813C 282.254 62.473 281.313 61.613 279.84 61.613C 278.207 61.613 277.36 62.527 277.36 64.293L 278.36 64.293C 278.36 63.77 278.414 63.449 278.551 63.176C 278.762 62.754 279.215 62.516 279.813 62.516C 280.68 62.516 281.254 63.043 281.254 63.82C 281.254 64.344 281.012 64.793 280.418 65.332C 279.762 65.938 279.762 65.938 279.57 66.199C 279.34 66.52 279.262 66.781 279.262 67.192L 279.262 67.82L 280.258 67.817zM 280.258 68.899L 279.258 68.899L 279.258 70.098L 280.258 70.098L 280.258 68.899z"/>
<path style="stroke:none; fill-rule:evenodd; fill:#0000ff" d="M 221.457 68.715L 221.457 68.18C 221.457 67.676 221.578 67.485 222.336 66.762C 223.172 65.985 223.453 65.469 223.453 64.711C 223.453 63.371 222.512 62.512 221.039 62.512C 219.406 62.512 218.559 63.426 218.559 65.192L 219.559 65.192C 219.559 64.668 219.613 64.348 219.75 64.074C 219.961 63.652 220.414 63.414 221.012 63.414C 221.879 63.414 222.453 63.942 222.453 64.719C 222.453 65.242 222.211 65.692 221.617 66.231C 220.961 66.836 220.961 66.836 220.77 67.098C 220.539 67.418 220.461 67.68 220.461 68.09L 220.461 68.719L 221.457 68.715zM 221.457 69.797L 220.457 69.797L 220.457 70.996L 221.457 70.996L 221.457 69.797z"/>
<path style="stroke:#0000ff; stroke-dasharray:6,3; stroke-width:1.9133; fill:none" d="M 220.485 44.168L 239.617 83.391"/>
<path style="stroke:#0000ff; stroke-dasharray:6,3; stroke-width:1.9133; fill:none" d="M 239.617 83.391L 197.528 83.391"/>
<path style="stroke:#0000ff; stroke-dasharray:6,3; stroke-width:1.9133; fill:none" d="M 198.004 82.914L 220.485 44.172"/>
<path style="stroke:none; fill-rule:evenodd; fill:#ff0000" d="M 204.055 133.399L 206.785 133.399C 207.727 133.399 208.149 133.856 208.149 134.887L 208.149 135.629C 208.149 136.145 208.235 136.649 208.379 136.992L 209.637 136.992L 209.637 136.731C 209.246 136.457 209.164 136.156 209.145 135.039C 209.133 133.656 208.914 133.242 208 132.852C 208.957 132.391 209.344 131.805 209.344 130.848C 209.344 129.399 208.438 128.602 206.801 128.602L 202.949 128.602L 202.949 137L 204.047 137L 204.055 133.399zM 203.992 132.453L 203.992 129.574L 206.574 129.574C 207.168 129.574 207.512 129.664 207.778 129.895C 208.063 130.133 208.211 130.512 208.211 131.02C 208.211 132.004 207.707 132.453 206.57 132.453L 203.992 132.453z"/>
<path style="stroke:none; fill-rule:evenodd; fill:#ff0000" d="M 216.055 134.297C 216.055 133.379 215.988 132.828 215.817 132.383C 215.43 131.399 214.516 130.801 213.399 130.801C 211.735 130.801 210.66 132.094 210.66 134.082C 210.66 136.07 211.696 137.297 213.371 137.297C 214.735 137.297 215.68 136.504 215.922 135.172L 214.969 135.172C 214.707 135.977 214.176 136.395 213.414 136.395C 212.813 136.395 212.301 136.117 211.985 135.602C 211.758 135.254 211.68 134.902 211.668 134.297L 216.055 134.297zM 211.637 133.531C 211.715 132.418 212.395 131.695 213.356 131.695C 214.293 131.695 215.02 132.473 215.02 133.461C 215.02 133.481 215.02 133.504 215.008 133.527L 211.637 133.531z"/>
<path style="stroke:none; fill-rule:evenodd; fill:#ff0000" d="M 222.156 128.598L 221.156 128.598L 221.156 131.738C 220.758 131.125 220.121 130.797 219.32 130.797C 217.774 130.797 216.758 132.055 216.758 133.988C 216.758 136.035 217.77 137.293 219.41 137.293C 220.246 137.293 220.828 136.973 221.352 136.203L 221.352 136.992L 222.149 136.992L 222.156 128.598zM 219.485 131.699C 220.504 131.699 221.153 132.625 221.153 134.07C 221.153 135.469 220.496 136.395 219.496 136.395C 218.453 136.395 217.758 135.457 217.758 134.047C 217.758 132.637 218.449 131.699 219.485 131.699z"/>
<path style="stroke:#ff0000; stroke-dasharray:6,3; stroke-width:1.9133; fill:none" d="M 189.149 146.758L 234.602 146.758L 234.602 120.379L 189.149 120.379L 189.149 146.758z"/>
<path style="stroke:none; fill-rule:evenodd; fill:#0000ff" d="M 272.555 137L 276.363 137C 277.16 137 277.75 136.781 278.203 136.301C 278.617 135.863 278.852 135.266 278.852 134.609C 278.852 133.598 278.379 132.984 277.278 132.574C 278.043 132.219 278.449 131.598 278.449 130.746C 278.449 130.137 278.223 129.598 277.781 129.203C 277.344 128.801 276.77 128.617 275.961 128.617L 272.551 128.617L 272.555 137zM 273.656 132.297L 273.656 129.5L 275.699 129.5C 276.289 129.5 276.617 129.582 276.899 129.813C 277.192 130.051 277.352 130.414 277.352 130.899C 277.352 131.367 277.196 131.742 276.899 131.984C 276.617 132.211 276.289 132.297 275.699 132.297L 273.656 132.297zM 273.656 136.098L 273.656 133.199L 276.254 133.199C 276.766 133.199 277.11 133.324 277.363 133.602C 277.613 133.867 277.75 134.234 277.75 134.652C 277.75 135.055 277.613 135.426 277.363 135.691C 277.113 135.965 276.77 136.094 276.254 136.094L 273.656 136.098z"/>
<path style="stroke:none; fill-rule:evenodd; fill:#0000ff" d="M 280.156 137L 281.156 137L 281.156 128.602L 280.156 128.602L 280.156 137z"/>
<path style="stroke:none; fill-rule:evenodd; fill:#0000ff" d="M 287.457 137.035L 287.457 131.004L 286.457 131.004L 286.457 134.449C 286.457 135.688 285.813 136.5 284.805 136.5C 284.043 136.5 283.559 136.039 283.559 135.309L 283.559 131.004L 282.559 131.004L 282.559 135.656C 282.559 136.656 283.317 137.301 284.508 137.301C 285.406 137.301 285.981 136.992 286.555 136.199L 286.555 137.039L 287.457 137.035z"/>
<path style="stroke:none; fill-rule:evenodd; fill:#0000ff" d="M 294.156 134.297C 294.156 133.379 294.09 132.828 293.918 132.383C 293.531 131.399 292.617 130.801 291.5 130.801C 289.836 130.801 288.762 132.094 288.762 134.082C 288.762 136.07 289.797 137.297 291.473 137.297C 292.836 137.297 293.781 136.504 294.024 135.172L 293.07 135.172C 292.809 135.977 292.278 136.395 291.516 136.395C 290.914 136.395 290.403 136.117 290.086 135.602C 289.86 135.254 289.781 134.902 289.77 134.297L 294.156 134.297zM 289.738 133.531C 289.817 132.418 290.496 131.695 291.457 131.695C 292.395 131.695 293.121 132.473 293.121 133.461C 293.121 133.481 293.121 133.504 293.11 133.527L 289.738 133.531z"/>
<path style="stroke:#0000ff; stroke-dasharray:6,3; stroke-width:2.8699499999999998; fill:none" d="M 260.418 146.758L 305.871 146.758L 305.871 120.379L 260.418 120.379L 260.418 146.758z"/>
<path style="stroke:#000000; stroke-width:1.9133; fill:none" d="M 260.418 192.68L 305.871 192.68L 305.871 166.301L 260.418 166.301L 260.418 192.68z"/>
<path style="stroke:none; fill-rule:evenodd; fill:#000000" d="M 271.258 176.988C 271.25 175.352 270.129 174.402 268.215 174.402C 266.391 174.402 265.262 175.352 265.262 176.879C 265.262 177.906 265.793 178.559 266.883 178.848L 268.938 179.402C 269.981 179.68 270.457 180.106 270.457 180.766C 270.457 181.215 270.219 181.68 269.871 181.934C 269.543 182.164 269.024 182.289 268.356 182.289C 267.461 182.289 266.852 182.063 266.457 181.563C 266.153 181.184 266.016 180.766 266.067 180.227L 265.067 180.227C 265.074 181.004 265.223 181.516 265.551 181.981C 266.117 182.77 267.07 183.188 268.328 183.188C 269.313 183.188 270.117 182.961 270.653 182.543C 271.207 182.098 271.559 181.348 271.559 180.621C 271.559 179.586 270.926 178.828 269.801 178.516L 267.727 177.953C 266.731 177.68 266.367 177.356 266.367 176.711C 266.367 175.859 267.102 175.293 268.207 175.293C 269.516 175.293 270.25 175.895 270.262 176.981L 271.258 176.988z"/>
<path style="stroke:none; fill-rule:evenodd; fill:#000000" d="M 277.856 185.399L 277.856 176.902L 277.059 176.902L 277.059 177.688C 276.606 177.051 275.918 176.703 275.117 176.703C 273.512 176.703 272.465 178.008 272.465 180.02C 272.465 181.984 273.442 183.199 275.016 183.199C 275.844 183.199 276.414 182.891 276.86 182.211L 276.86 185.399L 277.856 185.399zM 275.211 177.606C 276.231 177.606 276.887 178.524 276.887 179.969C 276.887 181.344 276.223 182.262 275.211 182.262C 274.156 182.262 273.457 181.332 273.457 179.934C 273.457 178.547 274.156 177.606 275.211 177.606z"/>
<path style="stroke:none; fill-rule:evenodd; fill:#000000" d="M 284.156 182.934L 284.156 176.902L 283.156 176.902L 283.156 180.348C 283.156 181.586 282.512 182.399 281.504 182.399C 280.742 182.399 280.258 181.938 280.258 181.207L 280.258 176.902L 279.258 176.902L 279.258 181.555C 279.258 182.555 280.016 183.199 281.207 183.199C 282.106 183.199 282.68 182.891 283.254 182.098L 283.254 182.938L 284.156 182.934z"/>
<path style="stroke:none; fill-rule:evenodd; fill:#000000" d="M 291.098 182.336C 290.992 182.395 290.946 182.395 290.887 182.395C 290.547 182.395 290.36 182.223 290.36 181.922L 290.36 178.356C 290.36 177.281 289.582 176.699 288.11 176.699C 287.242 176.699 286.524 176.953 286.121 177.402C 285.848 177.711 285.735 178.059 285.711 178.66L 286.656 178.66C 286.735 177.93 287.16 177.598 288.043 177.598C 288.887 177.598 289.36 177.918 289.36 178.496L 289.36 178.75C 289.36 179.152 289.125 179.324 288.383 179.418C 287.059 179.59 286.856 179.637 286.496 179.785C 285.813 180.07 285.465 180.613 285.465 181.399C 285.465 182.492 286.219 183.184 287.43 183.184C 288.184 183.184 288.789 182.91 289.465 182.266C 289.531 182.899 289.828 183.184 290.446 183.184C 290.637 183.184 290.785 183.16 291.094 183.078L 291.098 182.336zM 289.356 181.039C 289.356 181.367 289.266 181.57 288.988 181.844C 288.61 182.207 288.153 182.399 287.606 182.399C 286.883 182.399 286.457 182.035 286.457 181.406C 286.457 180.758 286.867 180.426 287.86 180.274C 288.84 180.133 289.039 180.086 289.352 179.934L 289.356 181.039z"/>
<path style="stroke:none; fill-rule:evenodd; fill:#000000" d="M 292.055 176.871L 292.055 182.895L 293.055 182.895L 293.055 179.762C 293.055 178.899 293.266 178.336 293.715 178C 294.004 177.781 294.285 177.715 294.938 177.703L 294.938 176.738C 294.781 176.719 294.703 176.707 294.578 176.707C 293.969 176.707 293.504 177.074 292.957 177.969L 292.957 176.879L 292.055 176.871z"/>
<path style="stroke:none; fill-rule:evenodd; fill:#000000" d="M 301.055 180.199C 301.055 179.281 300.988 178.731 300.817 178.285C 300.43 177.301 299.516 176.703 298.399 176.703C 296.735 176.703 295.66 177.996 295.66 179.984C 295.66 181.973 296.696 183.199 298.371 183.199C 299.735 183.199 300.68 182.406 300.922 181.074L 299.969 181.074C 299.707 181.879 299.176 182.297 298.414 182.297C 297.813 182.297 297.301 182.02 296.985 181.504C 296.758 181.156 296.68 180.805 296.668 180.199L 301.055 180.199zM 296.637 179.434C 296.715 178.32 297.395 177.598 298.356 177.598C 299.293 177.598 300.02 178.375 300.02 179.363C 300.02 179.383 300.02 179.406 300.008 179.43L 296.637 179.434z"/>
<path style="stroke:#000000; stroke-width:0.95664899999999997; fill:none" d="M 211.395 119.742L 279.793 85.305"/>
<path style="stroke:#000000; stroke-width:0.95664899999999997; fill:none" d="M 272.102 87.039L 279.797 85.309L 273.824 90.457"/>
<path style="stroke:#000000; stroke-width:0.95664899999999997; fill:none" d="M 267.84 120.699L 221.446 83.391"/>
<path style="stroke:#000000; stroke-width:0.95664899999999997; fill:none" d="M 226.207 89.68L 221.446 83.395L 228.606 86.699"/>
<path style="stroke:#000000; stroke-width:0.95664899999999997; fill:none" d="M 301.801 164.707L 289.367 85.309"/>
<path style="stroke:#000000; stroke-width:0.95664899999999997; fill:none" d="M 288.656 93.16L 289.36 85.305L 292.43 92.567"/>
<path style="stroke:none; fill-rule:evenodd; fill:#000000" d="M 18.9961 7.836C 18.8906 7.895 18.8437 7.895 18.7851 7.895C 18.4453 7.895 18.2578 7.72299 18.2578 7.422L 18.2578 3.856C 18.2578 2.78099 17.4805 2.19899 16.0078 2.19899C 15.1406 2.19899 14.4219 2.453 14.0195 2.90199C 13.7461 3.211 13.6328 3.55899 13.6094 4.16L 14.5547 4.16C 14.6328 3.42999 15.0586 3.09799 15.9414 3.09799C 16.7851 3.09799 17.2578 3.418 17.2578 3.996L 17.2578 4.25C 17.2578 4.65199 17.0234 4.82399 16.2812 4.918C 14.957 5.09 14.7539 5.13699 14.3945 5.285C 13.7109 5.56999 13.3633 6.11299 13.3633 6.899C 13.3633 7.992 14.1172 8.68399 15.3281 8.68399C 16.082 8.68399 16.6875 8.41 17.3633 7.76599C 17.4297 8.399 17.7266 8.68399 18.3437 8.68399C 18.5351 8.68399 18.6836 8.66 18.9922 8.578L 18.9961 7.836zM 17.2578 6.539C 17.2578 6.867 17.168 7.06999 16.8906 7.34399C 16.5117 7.707 16.0547 7.899 15.5078 7.899C 14.7851 7.899 14.3594 7.535 14.3594 6.90599C 14.3594 6.258 14.7695 5.92599 15.7617 5.774C 16.7422 5.633 16.9414 5.586 17.2539 5.43399L 17.2578 6.539z"/>
<path style="stroke:none; fill-rule:evenodd; fill:#000000" d="M 20.3125 10.832C 21.4414 9.32399 22.1523 7.231 22.1523 5.42599C 22.1523 3.60899 21.4414 1.51599 20.3125 0.0039978L 19.6953 0.0039978C 20.6992 1.65199 21.2578 3.582 21.2578 5.42599C 21.2578 7.254 20.6992 9.19899 19.6953 10.832L 20.3125 10.832z"/>
<path style="stroke:none; fill-rule:evenodd; fill:#000000" d="M 27.3555 8.399L 28.4531 8.399L 28.4531 0L 27.3555 0L 27.3555 8.399z"/>
<path style="stroke:none; fill-rule:evenodd; fill:#000000" d="M 30.2578 2.371L 30.2578 8.395L 31.2578 8.395L 31.2578 5.047C 31.2578 3.80899 31.8828 2.996 32.8476 2.996C 33.5859 2.996 34.0547 3.457 34.0547 4.188L 34.0547 8.39099L 35.0547 8.39099L 35.0547 3.836C 35.0547 2.836 34.3125 2.192 33.1523 2.192C 32.2617 2.192 31.6875 2.535 31.1601 3.375L 31.1601 2.36299L 30.2578 2.371z"/>
<path style="stroke:none; fill-rule:evenodd; fill:#000000" d="M 36.457 10.902L 37.457 10.902L 37.457 7.80099C 37.957 8.422 38.5195 8.69899 39.293 8.69899C 40.8359 8.69899 41.8516 7.442 41.8516 5.508C 41.8516 3.47699 40.8672 2.203 39.2695 2.203C 38.457 2.203 37.8008 2.56999 37.3555 3.28099L 37.3555 2.375L 36.457 2.375L 36.457 10.902zM 39.1211 3.09799C 40.168 3.09799 40.8516 4.03099 40.8516 5.481C 40.8516 6.856 40.1562 7.793 39.1211 7.793C 38.1172 7.793 37.457 6.867 37.457 5.44499C 37.457 4.024 38.1172 3.09799 39.1211 3.09799z"/>
<path style="stroke:none; fill-rule:evenodd; fill:#000000" d="M 47.8555 8.43399L 47.8555 2.40199L 46.8555 2.40199L 46.8555 5.84799C 46.8555 7.086 46.2109 7.899 45.2031 7.899C 44.4414 7.899 43.957 7.438 43.957 6.707L 43.957 2.40199L 42.957 2.40199L 42.957 7.05499C 42.957 8.05499 43.7148 8.69899 44.9062 8.69899C 45.8047 8.69899 46.3789 8.39099 46.9531 7.59799L 46.9531 8.438L 47.8555 8.43399z"/>
<path style="stroke:none; fill-rule:evenodd; fill:#000000" d="M 51.5547 2.399L 50.6562 2.399L 50.6562 0.731003L 49.6562 0.731003L 49.6562 2.399L 48.7578 2.399L 48.7578 3.19499L 49.6562 3.19499L 49.6562 7.742C 49.6562 8.34799 50.0586 8.692 50.789 8.692C 51.0117 8.692 51.2383 8.668 51.5508 8.60899L 51.5508 7.774C 51.4375 7.86299 51.3008 7.89099 51.1328 7.89099C 50.7578 7.89099 50.6523 7.77699 50.6523 7.34799L 50.6523 3.19499L 51.5508 3.19499L 51.5547 2.399z"/>
<path style="stroke:none; fill-rule:evenodd; fill:#000000" d="M 61.1992 7.836C 61.0937 7.895 61.0469 7.895 60.9883 7.895C 60.6484 7.895 60.4609 7.72299 60.4609 7.422L 60.4609 3.856C 60.4609 2.78099 59.6836 2.19899 58.2109 2.19899C 57.3437 2.19899 56.625 2.453 56.2226 2.90199C 55.9492 3.211 55.8359 3.55899 55.8125 4.16L 56.7578 4.16C 56.8359 3.42999 57.2617 3.09799 58.1445 3.09799C 58.9883 3.09799 59.4609 3.418 59.4609 3.996L 59.4609 4.25C 59.4609 4.65199 59.2266 4.82399 58.4844 4.918C 57.1601 5.09 56.957 5.13699 56.5976 5.285C 55.914 5.56999 55.5664 6.11299 55.5664 6.899C 55.5664 7.992 56.3203 8.68399 57.5312 8.68399C 58.2851 8.68399 58.8906 8.41 59.5664 7.76599C 59.6328 8.399 59.9297 8.68399 60.5469 8.68399C 60.7383 8.68399 60.8867 8.66 61.1953 8.578L 61.1992 7.836zM 59.457 6.539C 59.457 6.867 59.3672 7.06999 59.0898 7.34399C 58.7109 7.707 58.2539 7.899 57.707 7.899C 56.9844 7.899 56.5586 7.535 56.5586 6.90599C 56.5586 6.258 56.9687 5.92599 57.9609 5.774C 58.9414 5.633 59.1406 5.586 59.4531 5.43399L 59.457 6.539z"/>
<path style="stroke:none; fill-rule:evenodd; fill:#000000" d="M 66.7617 4.40199C 66.7187 3.817 66.5937 3.43399 66.3633 3.09799C 65.957 2.535 65.2383 2.19899 64.4101 2.19899C 62.8086 2.19899 61.7617 3.492 61.7617 5.504C 61.7617 7.457 62.7851 8.69499 64.3984 8.69499C 65.8203 8.69499 66.7187 7.82399 66.832 6.332L 65.8789 6.332C 65.7226 7.30899 65.2344 7.797 64.4297 7.797C 63.3867 7.797 62.7617 6.93399 62.7617 5.508C 62.7617 4 63.3711 3.10199 64.4062 3.10199C 65.1992 3.10199 65.6992 3.56999 65.8125 4.40599L 66.7617 4.40199z"/>
<path style="stroke:none; fill-rule:evenodd; fill:#000000" d="M 70.0547 2.399L 69.1562 2.399L 69.1562 0.731003L 68.1562 0.731003L 68.1562 2.399L 67.2578 2.399L 67.2578 3.19499L 68.1562 3.19499L 68.1562 7.742C 68.1562 8.34799 68.5586 8.692 69.289 8.692C 69.5117 8.692 69.7383 8.668 70.0508 8.60899L 70.0508 7.774C 69.9375 7.86299 69.8008 7.89099 69.6328 7.89099C 69.2578 7.89099 69.1523 7.77699 69.1523 7.34799L 69.1523 3.19499L 70.0508 3.19499L 70.0547 2.399z"/>
<path style="stroke:none; fill-rule:evenodd; fill:#000000" d="M 72.0548 2.399L 71.0547 2.399L 71.0547 8.399L 72.0548 8.399L 72.0548 2.399zM 72.0548 0L 71.0547 0L 71.0547 1.235L 72.0548 1.235L 72.0548 0z"/>
<path style="stroke:none; fill-rule:evenodd; fill:#000000" d="M 76.1288 8.399L 78.4338 2.399L 77.3558 2.399L 75.6598 7.258L 74.0548 2.399L 72.9768 2.399L 75.0858 8.399L 76.1288 8.399z"/>
<path style="stroke:none; fill-rule:evenodd; fill:#000000" d="M 84.7968 7.836C 84.6918 7.895 84.6448 7.895 84.5858 7.895C 84.2458 7.895 84.0588 7.72299 84.0588 7.422L 84.0588 3.856C 84.0588 2.78099 83.2808 2.19899 81.8088 2.19899C 80.9418 2.19899 80.2228 2.453 79.8198 2.90199C 79.5468 3.211 79.4338 3.55899 79.4098 4.16L 80.3558 4.16C 80.4338 3.42999 80.8598 3.09799 81.7418 3.09799C 82.5858 3.09799 83.0588 3.418 83.0588 3.996L 83.0588 4.25C 83.0588 4.65199 82.8238 4.82399 82.0818 4.918C 80.7578 5.09 80.5548 5.13699 80.1958 5.285C 79.5118 5.56999 79.1638 6.11299 79.1638 6.899C 79.1638 7.992 79.9178 8.68399 81.1288 8.68399C 81.8828 8.68399 82.4878 8.41 83.1638 7.76599C 83.2308 8.399 83.5278 8.68399 84.1448 8.68399C 84.3358 8.68399 84.4848 8.66 84.7928 8.578L 84.7968 7.836zM 83.0548 6.539C 83.0548 6.867 82.9648 7.06999 82.6878 7.34399C 82.3088 7.707 81.8518 7.899 81.3048 7.899C 80.5818 7.899 80.1558 7.535 80.1558 6.90599C 80.1558 6.258 80.5668 5.92599 81.5588 5.774C 82.5388 5.633 82.7378 5.586 83.0508 5.43399L 83.0548 6.539z"/>
<path style="stroke:none; fill-rule:evenodd; fill:#000000" d="M 87.8558 2.399L 86.9568 2.399L 86.9568 0.731003L 85.9568 0.731003L 85.9568 2.399L 85.0588 2.399L 85.0588 3.19499L 85.9568 3.19499L 85.9568 7.742C 85.9568 8.34799 86.3598 8.692 87.0898 8.692C 87.3128 8.692 87.5388 8.668 87.8518 8.60899L 87.8518 7.774C 87.7378 7.86299 87.6018 7.89099 87.4338 7.89099C 87.0588 7.89099 86.9528 7.77699 86.9528 7.34799L 86.9528 3.19499L 87.8518 3.19499L 87.8558 2.399z"/>
<path style="stroke:none; fill-rule:evenodd; fill:#000000" d="M 94.0548 5.69899C 94.0548 4.78099 93.9878 4.231 93.8168 3.785C 93.4298 2.80099 92.5158 2.203 91.3988 2.203C 89.7348 2.203 88.6598 3.496 88.6598 5.485C 88.6598 7.47299 89.6958 8.69899 91.3708 8.69899C 92.7348 8.69899 93.6798 7.90599 93.9218 6.57399L 92.9688 6.57399C 92.7068 7.379 92.1758 7.797 91.4138 7.797C 90.8128 7.797 90.3008 7.52 89.9848 7.004C 89.7578 6.65599 89.6798 6.30499 89.6678 5.69899L 94.0548 5.69899zM 89.6368 4.93399C 89.7148 3.81999 90.3948 3.09799 91.3558 3.09799C 92.2928 3.09799 93.0198 3.875 93.0198 4.86299C 93.0198 4.883 93.0198 4.90599 93.0078 4.92999L 89.6368 4.93399z"/>
<path style="stroke:none; fill-rule:evenodd; fill:#000000" d="M 99.5818 4.05899C 99.5698 2.871 98.7848 2.19899 97.3828 2.19899C 95.9728 2.19899 95.0588 2.92599 95.0588 4.047C 95.0588 4.992 95.5468 5.442 96.9958 5.789L 97.9058 6.008C 98.5818 6.168 98.8518 6.41 98.8518 6.84799C 98.8518 7.41 98.2848 7.793 97.4418 7.793C 96.9218 7.793 96.4848 7.645 96.2418 7.38699C 96.0938 7.215 96.0238 7.039 95.9648 6.606L 94.9488 6.606C 94.9918 8.01599 95.7778 8.69499 97.3598 8.69499C 98.8828 8.69499 99.8518 7.94499 99.8518 6.78099C 99.8518 5.883 99.3398 5.38699 98.1248 5.09799L 97.1918 4.879C 96.3988 4.69499 96.0588 4.442 96.0588 4.01599C 96.0588 3.465 96.5548 3.106 97.3438 3.106C 98.1168 3.106 98.5348 3.43399 98.5588 4.063L 99.5818 4.05899z"/>
<path style="stroke:none; fill-rule:evenodd; fill:#000000" d="M 106.457 2.399L 105.457 2.399L 105.457 1.42999C 105.457 1.01599 105.684 0.800995 106.121 0.800995C 106.199 0.800995 106.235 0.800995 106.453 0.800995L 106.453 0.0589905C 106.231 0.0159912 106.102 0.00799561 105.903 0.00799561C 105 0.00799561 104.457 0.515991 104.457 1.379L 104.457 2.40199L 103.66 2.40199L 103.66 3.19899L 104.457 3.19899L 104.457 8.399L 105.457 8.399L 105.457 3.19899L 106.457 3.19899L 106.457 2.399z"/>
<path style="stroke:none; fill-rule:evenodd; fill:#000000" d="M 112.555 5.69899C 112.555 4.78099 112.488 4.231 112.317 3.785C 111.93 2.80099 111.016 2.203 109.899 2.203C 108.235 2.203 107.16 3.496 107.16 5.485C 107.16 7.47299 108.196 8.69899 109.871 8.69899C 111.235 8.69899 112.18 7.90599 112.422 6.57399L 111.469 6.57399C 111.207 7.379 110.676 7.797 109.914 7.797C 109.313 7.797 108.801 7.52 108.485 7.004C 108.258 6.65599 108.18 6.30499 108.168 5.69899L 112.555 5.69899zM 108.137 4.93399C 108.215 3.81999 108.895 3.09799 109.856 3.09799C 110.793 3.09799 111.52 3.875 111.52 4.86299C 111.52 4.883 111.52 4.90599 111.508 4.92999L 108.137 4.93399z"/>
<path style="stroke:none; fill-rule:evenodd; fill:#000000" d="M 119.199 7.836C 119.094 7.895 119.047 7.895 118.988 7.895C 118.649 7.895 118.461 7.72299 118.461 7.422L 118.461 3.856C 118.461 2.78099 117.684 2.19899 116.211 2.19899C 115.344 2.19899 114.625 2.453 114.223 2.90199C 113.949 3.211 113.836 3.55899 113.813 4.16L 114.758 4.16C 114.836 3.42999 115.262 3.09799 116.145 3.09799C 116.988 3.09799 117.461 3.418 117.461 3.996L 117.461 4.25C 117.461 4.65199 117.227 4.82399 116.485 4.918C 115.16 5.09 114.957 5.13699 114.598 5.285C 113.914 5.56999 113.567 6.11299 113.567 6.899C 113.567 7.992 114.32 8.68399 115.531 8.68399C 116.285 8.68399 116.891 8.41 117.567 7.76599C 117.633 8.399 117.93 8.68399 118.547 8.68399C 118.738 8.68399 118.887 8.66 119.196 8.578L 119.199 7.836zM 117.457 6.539C 117.457 6.867 117.367 7.06999 117.09 7.34399C 116.711 7.707 116.254 7.899 115.707 7.899C 114.985 7.899 114.559 7.535 114.559 6.90599C 114.559 6.258 114.969 5.92599 115.961 5.774C 116.942 5.633 117.141 5.586 117.453 5.43399L 117.457 6.539z"/>
<path style="stroke:none; fill-rule:evenodd; fill:#000000" d="M 122.356 2.399L 121.457 2.399L 121.457 0.731003L 120.457 0.731003L 120.457 2.399L 119.559 2.399L 119.559 3.19499L 120.457 3.19499L 120.457 7.742C 120.457 8.34799 120.86 8.692 121.59 8.692C 121.813 8.692 122.039 8.668 122.352 8.60899L 122.352 7.774C 122.238 7.86299 122.102 7.89099 121.934 7.89099C 121.559 7.89099 121.453 7.77699 121.453 7.34799L 121.453 3.19499L 122.352 3.19499L 122.356 2.399z"/>
<path style="stroke:none; fill-rule:evenodd; fill:#000000" d="M 128.258 8.43399L 128.258 2.40199L 127.258 2.40199L 127.258 5.84799C 127.258 7.086 126.613 7.899 125.606 7.899C 124.844 7.899 124.36 7.438 124.36 6.707L 124.36 2.40199L 123.36 2.40199L 123.36 7.05499C 123.36 8.05499 124.117 8.69899 125.309 8.69899C 126.207 8.69899 126.781 8.39099 127.356 7.59799L 127.356 8.438L 128.258 8.43399z"/>
<path style="stroke:none; fill-rule:evenodd; fill:#000000" d="M 129.856 2.371L 129.856 8.395L 130.856 8.395L 130.856 5.26199C 130.856 4.399 131.067 3.836 131.516 3.5C 131.805 3.28099 132.086 3.215 132.738 3.203L 132.738 2.23799C 132.582 2.21899 132.504 2.207 132.379 2.207C 131.77 2.207 131.305 2.57399 130.758 3.46899L 130.758 2.379L 129.856 2.371z"/>
<path style="stroke:none; fill-rule:evenodd; fill:#000000" d="M 138.758 5.69899C 138.758 4.78099 138.692 4.231 138.52 3.785C 138.133 2.80099 137.219 2.203 136.102 2.203C 134.438 2.203 133.363 3.496 133.363 5.485C 133.363 7.47299 134.399 8.69899 136.074 8.69899C 137.438 8.69899 138.383 7.90599 138.625 6.57399L 137.672 6.57399C 137.41 7.379 136.879 7.797 136.117 7.797C 135.516 7.797 135.004 7.52 134.688 7.004C 134.461 6.65599 134.383 6.30499 134.371 5.69899L 138.758 5.69899zM 134.336 4.93399C 134.414 3.81999 135.094 3.09799 136.055 3.09799C 136.992 3.09799 137.719 3.875 137.719 4.86299C 137.719 4.883 137.719 4.90599 137.707 4.92999L 134.336 4.93399z"/>
<path style="stroke:none; fill-rule:evenodd; fill:#000000" d="M 144.285 4.05899C 144.274 2.871 143.488 2.19899 142.086 2.19899C 140.676 2.19899 139.762 2.92599 139.762 4.047C 139.762 4.992 140.25 5.442 141.699 5.789L 142.61 6.008C 143.285 6.168 143.555 6.41 143.555 6.84799C 143.555 7.41 142.988 7.793 142.145 7.793C 141.625 7.793 141.188 7.645 140.946 7.38699C 140.797 7.215 140.727 7.039 140.668 6.606L 139.653 6.606C 139.696 8.01599 140.481 8.69499 142.063 8.69499C 143.586 8.69499 144.555 7.94499 144.555 6.78099C 144.555 5.883 144.043 5.38699 142.828 5.09799L 141.895 4.879C 141.102 4.69499 140.762 4.442 140.762 4.01599C 140.762 3.465 141.258 3.106 142.047 3.106C 142.82 3.106 143.238 3.43399 143.262 4.063L 144.285 4.05899z"/>
<path style="stroke:none; fill-rule:evenodd; fill:#000000" d="M 165.555 0L 165.555 8.399L 166.453 8.399L 166.453 7.633C 166.906 8.356 167.512 8.69899 168.348 8.69899C 169.922 8.69899 170.949 7.395 170.949 5.383C 170.949 3.418 169.969 2.203 168.399 2.203C 167.578 2.203 167 2.51599 166.555 3.19899L 166.555 0L 165.555 0zM 168.203 3.106C 169.27 3.106 169.957 4.035 169.957 5.46899C 169.957 6.832 169.246 7.76199 168.203 7.76199C 167.196 7.76199 166.528 6.84399 166.528 5.43399C 166.528 4.024 167.192 3.106 168.203 3.106z"/>
<path style="stroke:none; fill-rule:evenodd; fill:#000000" d="M 172.414 10.832C 173.543 9.32399 174.254 7.231 174.254 5.42599C 174.254 3.60899 173.543 1.51599 172.414 0.0039978L 171.797 0.0039978C 172.801 1.65199 173.36 3.582 173.36 5.42599C 173.36 7.254 172.801 9.19899 171.797 10.832L 172.414 10.832z"/>
<path style="stroke:none; fill-rule:evenodd; fill:#000000" d="M 179.258 8.399L 183.067 8.399C 183.863 8.399 184.453 8.17999 184.906 7.69899C 185.32 7.26199 185.555 6.664 185.555 6.008C 185.555 4.996 185.082 4.383 183.981 3.97299C 184.746 3.617 185.153 2.996 185.153 2.145C 185.153 1.535 184.926 0.996002 184.485 0.60199C 184.047 0.19899 183.473 0.0159912 182.664 0.0159912L 179.254 0.0159912L 179.258 8.399zM 180.356 3.69899L 180.356 0.901993L 182.399 0.901993C 182.988 0.901993 183.317 0.985001 183.598 1.215C 183.891 1.453 184.051 1.817 184.051 2.30099C 184.051 2.77 183.895 3.145 183.598 3.38699C 183.317 3.61299 182.988 3.69899 182.399 3.69899L 180.356 3.69899zM 180.356 7.5L 180.356 4.60199L 182.953 4.60199C 183.465 4.60199 183.809 4.72699 184.063 5.004C 184.313 5.27 184.449 5.63699 184.449 6.05499C 184.449 6.457 184.313 6.828 184.063 7.09399C 183.813 7.367 183.469 7.496 182.953 7.496L 180.356 7.5z"/>
<path style="stroke:none; fill-rule:evenodd; fill:#000000" d="M 191.656 8.43399L 191.656 2.40199L 190.656 2.40199L 190.656 5.84799C 190.656 7.086 190.012 7.899 189.004 7.899C 188.242 7.899 187.758 7.438 187.758 6.707L 187.758 2.40199L 186.758 2.40199L 186.758 7.05499C 186.758 8.05499 187.516 8.69899 188.707 8.69899C 189.606 8.69899 190.18 8.39099 190.754 7.59799L 190.754 8.438L 191.656 8.43399z"/>
<path style="stroke:none; fill-rule:evenodd; fill:#000000" d="M 195.356 2.399L 194.457 2.399L 194.457 0.731003L 193.457 0.731003L 193.457 2.399L 192.559 2.399L 192.559 3.19499L 193.457 3.19499L 193.457 7.742C 193.457 8.34799 193.86 8.692 194.59 8.692C 194.813 8.692 195.039 8.668 195.352 8.60899L 195.352 7.774C 195.238 7.86299 195.102 7.89099 194.934 7.89099C 194.559 7.89099 194.453 7.77699 194.453 7.34799L 194.453 3.19499L 195.352 3.19499L 195.356 2.399z"/>
<path style="stroke:none; fill-rule:evenodd; fill:#000000" d="M 199.656 2.371L 199.656 8.395L 200.656 8.395L 200.656 5.26199C 200.656 4.399 200.867 3.836 201.317 3.5C 201.606 3.28099 201.887 3.215 202.539 3.203L 202.539 2.23799C 202.383 2.21899 202.305 2.207 202.18 2.207C 201.57 2.207 201.106 2.57399 200.559 3.46899L 200.559 2.379L 199.656 2.371z"/>
<path style="stroke:none; fill-rule:evenodd; fill:#000000" d="M 208.555 5.69899C 208.555 4.78099 208.488 4.231 208.317 3.785C 207.93 2.80099 207.016 2.203 205.899 2.203C 204.235 2.203 203.16 3.496 203.16 5.485C 203.16 7.47299 204.196 8.69899 205.871 8.69899C 207.235 8.69899 208.18 7.90599 208.422 6.57399L 207.469 6.57399C 207.207 7.379 206.676 7.797 205.914 7.797C 205.313 7.797 204.801 7.52 204.485 7.004C 204.258 6.65599 204.18 6.30499 204.168 5.69899L 208.555 5.69899zM 204.137 4.93399C 204.215 3.81999 204.895 3.09799 205.856 3.09799C 206.793 3.09799 207.52 3.875 207.52 4.86299C 207.52 4.883 207.52 4.90599 207.508 4.92999L 204.137 4.93399z"/>
<path style="stroke:none; fill-rule:evenodd; fill:#000000" d="M 214.082 4.05899C 214.07 2.871 213.285 2.19899 211.883 2.19899C 210.473 2.19899 209.559 2.92599 209.559 4.047C 209.559 4.992 210.047 5.442 211.496 5.789L 212.406 6.008C 213.082 6.168 213.352 6.41 213.352 6.84799C 213.352 7.41 212.785 7.793 211.942 7.793C 211.422 7.793 210.985 7.645 210.742 7.38699C 210.594 7.215 210.524 7.039 210.465 6.606L 209.449 6.606C 209.492 8.01599 210.278 8.69499 211.86 8.69499C 213.383 8.69499 214.352 7.94499 214.352 6.78099C 214.352 5.883 213.84 5.38699 212.625 5.09799L 211.692 4.879C 210.899 4.69499 210.559 4.442 210.559 4.01599C 210.559 3.465 211.055 3.106 211.844 3.106C 212.617 3.106 213.035 3.43399 213.059 4.063L 214.082 4.05899z"/>
<path style="stroke:none; fill-rule:evenodd; fill:#000000" d="M 217.656 2.399L 216.758 2.399L 216.758 0.731003L 215.758 0.731003L 215.758 2.399L 214.86 2.399L 214.86 3.19499L 215.758 3.19499L 215.758 7.742C 215.758 8.34799 216.16 8.692 216.891 8.692C 217.113 8.692 217.34 8.668 217.653 8.60899L 217.653 7.774C 217.539 7.86299 217.403 7.89099 217.235 7.89099C 216.86 7.89099 216.754 7.77699 216.754 7.34799L 216.754 3.19499L 217.653 3.19499L 217.656 2.399z"/>
<path style="stroke:none; fill-rule:evenodd; fill:#000000" d="M 224.293 2.19899C 222.59 2.19899 221.559 3.414 221.559 5.44899C 221.559 7.485 222.578 8.69899 224.309 8.69899C 226.012 8.69899 227.059 7.48799 227.059 5.5C 227.059 3.41 226.051 2.207 224.301 2.207L 224.293 2.19899zM 224.305 3.09799C 225.399 3.09799 226.055 3.985 226.055 5.481C 226.055 6.895 225.379 7.793 224.305 7.793C 223.223 7.793 222.555 6.90599 222.555 5.44499C 222.555 3.996 223.219 3.09799 224.305 3.09799z"/>
<path style="stroke:none; fill-rule:evenodd; fill:#000000" d="M 230.555 2.399L 229.555 2.399L 229.555 1.42999C 229.555 1.01599 229.781 0.800995 230.219 0.800995C 230.297 0.800995 230.332 0.800995 230.551 0.800995L 230.551 0.0589905C 230.328 0.0159912 230.199 0.00799561 230 0.00799561C 229.098 0.00799561 228.555 0.515991 228.555 1.379L 228.555 2.40199L 227.758 2.40199L 227.758 3.19899L 228.555 3.19899L 228.555 8.399L 229.555 8.399L 229.555 3.19899L 230.555 3.19899L 230.555 2.399z"/>
<path style="stroke:none; fill-rule:evenodd; fill:#000000" d="M 234.555 0L 234.555 8.399L 235.453 8.399L 235.453 7.633C 235.906 8.356 236.512 8.69899 237.348 8.69899C 238.922 8.69899 239.949 7.395 239.949 5.383C 239.949 3.418 238.969 2.203 237.399 2.203C 236.578 2.203 236 2.51599 235.555 3.19899L 235.555 0L 234.555 0zM 237.203 3.106C 238.27 3.106 238.957 4.035 238.957 5.46899C 238.957 6.832 238.246 7.76199 237.203 7.76199C 236.196 7.76199 235.528 6.84399 235.528 5.43399C 235.528 4.024 236.192 3.106 237.203 3.106z"/>
<path style="stroke:none; fill-rule:evenodd; fill:#000000" d="M 241.055 2.371L 241.055 8.395L 242.055 8.395L 242.055 5.26199C 242.055 4.399 242.266 3.836 242.715 3.5C 243.004 3.28099 243.285 3.215 243.938 3.203L 243.938 2.23799C 243.781 2.21899 243.703 2.207 243.578 2.207C 242.969 2.207 242.504 2.57399 241.957 3.46899L 241.957 2.379L 241.055 2.371z"/>
<path style="stroke:none; fill-rule:evenodd; fill:#000000" d="M 250.297 7.836C 250.192 7.895 250.145 7.895 250.086 7.895C 249.746 7.895 249.559 7.72299 249.559 7.422L 249.559 3.856C 249.559 2.78099 248.781 2.19899 247.309 2.19899C 246.442 2.19899 245.723 2.453 245.32 2.90199C 245.047 3.211 244.934 3.55899 244.91 4.16L 245.856 4.16C 245.934 3.42999 246.36 3.09799 247.242 3.09799C 248.086 3.09799 248.559 3.418 248.559 3.996L 248.559 4.25C 248.559 4.65199 248.324 4.82399 247.582 4.918C 246.258 5.09 246.055 5.13699 245.696 5.285C 245.012 5.56999 244.664 6.11299 244.664 6.899C 244.664 7.992 245.418 8.68399 246.629 8.68399C 247.383 8.68399 247.988 8.41 248.664 7.76599C 248.731 8.399 249.028 8.68399 249.645 8.68399C 249.836 8.68399 249.985 8.66 250.293 8.578L 250.297 7.836zM 248.555 6.539C 248.555 6.867 248.465 7.06999 248.188 7.34399C 247.809 7.707 247.352 7.899 246.805 7.899C 246.082 7.899 245.656 7.535 245.656 6.90599C 245.656 6.258 246.067 5.92599 247.059 5.774C 248.039 5.633 248.238 5.586 248.551 5.43399L 248.555 6.539z"/>
<path style="stroke:none; fill-rule:evenodd; fill:#000000" d="M 252.156 2.399L 251.156 2.399L 251.156 8.399L 252.156 8.399L 252.156 2.399zM 252.156 0L 251.156 0L 251.156 1.235L 252.156 1.235L 252.156 0z"/>
<path style="stroke:none; fill-rule:evenodd; fill:#000000" d="M 253.856 2.371L 253.856 8.395L 254.856 8.395L 254.856 5.047C 254.856 3.80899 255.481 2.996 256.446 2.996C 257.184 2.996 257.653 3.457 257.653 4.188L 257.653 8.39099L 258.653 8.39099L 258.653 3.836C 258.653 2.836 257.91 2.192 256.75 2.192C 255.86 2.192 255.285 2.535 254.758 3.375L 254.758 2.36299L 253.856 2.371z"/>
<path style="stroke:none; fill-rule:evenodd; fill:#000000" d="M 268.356 0L 267.356 0L 267.356 3.14099C 266.957 2.52699 266.32 2.19899 265.52 2.19899C 263.973 2.19899 262.957 3.457 262.957 5.39099C 262.957 7.438 263.969 8.69499 265.61 8.69499C 266.446 8.69499 267.028 8.375 267.551 7.606L 267.551 8.395L 268.348 8.395L 268.356 0zM 265.684 3.09799C 266.703 3.09799 267.352 4.024 267.352 5.46899C 267.352 6.867 266.696 7.793 265.696 7.793C 264.653 7.793 263.957 6.856 263.957 5.44499C 263.957 4.035 264.649 3.09799 265.684 3.09799z"/>
<path style="stroke:none; fill-rule:evenodd; fill:#000000" d="M 272.094 2.19899C 270.391 2.19899 269.36 3.414 269.36 5.44899C 269.36 7.485 270.379 8.69899 272.11 8.69899C 273.813 8.69899 274.86 7.48799 274.86 5.5C 274.86 3.41 273.852 2.207 272.102 2.207L 272.094 2.19899zM 272.106 3.09799C 273.199 3.09799 273.856 3.985 273.856 5.481C 273.856 6.895 273.18 7.793 272.106 7.793C 271.024 7.793 270.356 6.90599 270.356 5.44499C 270.356 3.996 271.02 3.09799 272.106 3.09799z"/>
<path style="stroke:none; fill-rule:evenodd; fill:#000000" d="M 281.258 5.69899C 281.258 4.78099 281.192 4.231 281.02 3.785C 280.633 2.80099 279.719 2.203 278.602 2.203C 276.938 2.203 275.863 3.496 275.863 5.485C 275.863 7.47299 276.899 8.69899 278.574 8.69899C 279.938 8.69899 280.883 7.90599 281.125 6.57399L 280.172 6.57399C 279.91 7.379 279.379 7.797 278.617 7.797C 278.016 7.797 277.504 7.52 277.188 7.004C 276.961 6.65599 276.883 6.30499 276.871 5.69899L 281.258 5.69899zM 276.836 4.93399C 276.914 3.81999 277.594 3.09799 278.555 3.09799C 279.492 3.09799 280.219 3.875 280.219 4.86299C 280.219 4.883 280.219 4.90599 280.207 4.92999L 276.836 4.93399z"/>
<path style="stroke:none; fill-rule:evenodd; fill:#000000" d="M 286.785 4.05899C 286.774 2.871 285.988 2.19899 284.586 2.19899C 283.176 2.19899 282.262 2.92599 282.262 4.047C 282.262 4.992 282.75 5.442 284.199 5.789L 285.11 6.008C 285.785 6.168 286.055 6.41 286.055 6.84799C 286.055 7.41 285.488 7.793 284.645 7.793C 284.125 7.793 283.688 7.645 283.446 7.38699C 283.297 7.215 283.227 7.039 283.168 6.606L 282.153 6.606C 282.196 8.01599 282.981 8.69499 284.563 8.69499C 286.086 8.69499 287.055 7.94499 287.055 6.78099C 287.055 5.883 286.543 5.38699 285.328 5.09799L 284.395 4.879C 283.602 4.69499 283.262 4.442 283.262 4.01599C 283.262 3.465 283.758 3.106 284.547 3.106C 285.32 3.106 285.738 3.43399 285.762 4.063L 286.785 4.05899z"/>
<path style="stroke:none; fill-rule:evenodd; fill:#000000" d="M 288.258 2.371L 288.258 8.395L 289.258 8.395L 289.258 5.047C 289.258 3.80899 289.883 2.996 290.848 2.996C 291.586 2.996 292.055 3.457 292.055 4.188L 292.055 8.39099L 293.055 8.39099L 293.055 3.836C 293.055 2.836 292.313 2.192 291.153 2.192C 290.262 2.192 289.688 2.535 289.16 3.375L 289.16 2.36299L 288.258 2.371z"/>
<path style="stroke:none; fill-rule:evenodd; fill:#000000" d="M 294.555 0L 294.555 1.19899L 295.153 1.19899C 295.153 1.875 294.981 2.192 294.555 2.25L 294.555 2.692C 295.262 2.63699 295.653 2.10199 295.653 1.172L 295.653 0L 294.555 0z"/>
<path style="stroke:none; fill-rule:evenodd; fill:#000000" d="M 299.356 2.399L 298.457 2.399L 298.457 0.731003L 297.457 0.731003L 297.457 2.399L 296.559 2.399L 296.559 3.19499L 297.457 3.19499L 297.457 7.742C 297.457 8.34799 297.86 8.692 298.59 8.692C 298.813 8.692 299.039 8.668 299.352 8.60899L 299.352 7.774C 299.238 7.86299 299.102 7.89099 298.934 7.89099C 298.559 7.89099 298.453 7.77699 298.453 7.34799L 298.453 3.19499L 299.352 3.19499L 299.356 2.399z"/>
<path style="stroke:none; fill-rule:evenodd; fill:#000000" d="M 304.356 0L 303.356 0L 303.356 8.399L 304.356 8.399L 304.356 6.05899L 305.289 5.14099L 307.328 8.399L 308.516 8.399L 306.051 4.47299L 308.149 2.40199L 306.918 2.40199L 304.36 4.93399L 304.356 0z"/>
<path style="stroke:none; fill-rule:evenodd; fill:#000000" d="M 309.356 2.371L 309.356 8.395L 310.356 8.395L 310.356 5.047C 310.356 3.80899 310.981 2.996 311.946 2.996C 312.684 2.996 313.153 3.457 313.153 4.188L 313.153 8.39099L 314.153 8.39099L 314.153 3.836C 314.153 2.836 313.41 2.192 312.25 2.192C 311.36 2.192 310.785 2.535 310.258 3.375L 310.258 2.36299L 309.356 2.371z"/>
<path style="stroke:none; fill-rule:evenodd; fill:#000000" d="M 318.094 2.19899C 316.391 2.19899 315.36 3.414 315.36 5.44899C 315.36 7.485 316.379 8.69899 318.11 8.69899C 319.813 8.69899 320.86 7.48799 320.86 5.5C 320.86 3.41 319.852 2.207 318.102 2.207L 318.094 2.19899zM 318.106 3.09799C 319.199 3.09799 319.856 3.985 319.856 5.481C 319.856 6.895 319.18 7.793 318.106 7.793C 317.024 7.793 316.356 6.90599 316.356 5.44499C 316.356 3.996 317.02 3.09799 318.106 3.09799z"/>
<path style="stroke:none; fill-rule:evenodd; fill:#000000" d="M 327.715 8.399L 329.481 2.399L 328.403 2.399L 327.211 7.067L 326.031 2.399L 324.863 2.399L 323.719 7.067L 322.492 2.399L 321.438 2.399L 323.18 8.399L 324.258 8.399L 325.414 3.68399L 326.629 8.399L 327.715 8.399z"/>
<path style="stroke:none; fill-rule:evenodd; fill:#000000" d="M 184.117 19.899L 185.883 13.899L 184.805 13.899L 183.613 18.567L 182.434 13.899L 181.266 13.899L 180.121 18.567L 178.895 13.899L 177.84 13.899L 179.582 19.899L 180.66 19.899L 181.817 15.184L 183.031 19.899L 184.117 19.899z"/>
<path style="stroke:none; fill-rule:evenodd; fill:#000000" d="M 186.856 11.5L 186.856 19.899L 187.856 19.899L 187.856 16.551C 187.856 15.313 188.481 14.5 189.446 14.5C 189.746 14.5 190.047 14.602 190.274 14.777C 190.539 14.973 190.653 15.262 190.653 15.692L 190.653 19.895L 191.653 19.895L 191.653 15.34C 191.653 14.328 190.934 13.695 189.77 13.695C 188.926 13.695 188.414 13.961 187.856 14.703L 187.856 11.492L 186.856 11.5z"/>
<path style="stroke:none; fill-rule:evenodd; fill:#000000" d="M 194.156 13.899L 193.156 13.899L 193.156 19.899L 194.156 19.899L 194.156 13.899zM 194.156 11.5L 193.156 11.5L 193.156 12.735L 194.156 12.735L 194.156 11.5z"/>
<path style="stroke:none; fill-rule:evenodd; fill:#000000" d="M 200.363 15.902C 200.32 15.317 200.196 14.934 199.965 14.598C 199.559 14.035 198.84 13.699 198.012 13.699C 196.41 13.699 195.363 14.992 195.363 17.004C 195.363 18.957 196.387 20.195 198 20.195C 199.422 20.195 200.32 19.324 200.434 17.832L 199.481 17.832C 199.324 18.809 198.836 19.297 198.031 19.297C 196.988 19.297 196.363 18.434 196.363 17.008C 196.363 15.5 196.973 14.602 198.008 14.602C 198.801 14.602 199.301 15.07 199.414 15.906L 200.363 15.902z"/>
<path style="stroke:none; fill-rule:evenodd; fill:#000000" d="M 201.555 11.5L 201.555 19.899L 202.555 19.899L 202.555 16.551C 202.555 15.313 203.18 14.5 204.145 14.5C 204.446 14.5 204.746 14.602 204.973 14.777C 205.238 14.973 205.352 15.262 205.352 15.692L 205.352 19.895L 206.352 19.895L 206.352 15.34C 206.352 14.328 205.633 13.695 204.469 13.695C 203.625 13.695 203.113 13.961 202.555 14.703L 202.555 11.492L 201.555 11.5z"/>
<path style="stroke:none; fill-rule:evenodd; fill:#000000" d="M 213.258 13.899L 212.258 13.899L 212.258 12.93C 212.258 12.516 212.485 12.301 212.922 12.301C 213 12.301 213.035 12.301 213.254 12.301L 213.254 11.559C 213.031 11.516 212.903 11.508 212.703 11.508C 211.801 11.508 211.258 12.016 211.258 12.879L 211.258 13.902L 210.461 13.902L 210.461 14.699L 211.258 14.699L 211.258 19.899L 212.258 19.899L 212.258 14.699L 213.258 14.699L 213.258 13.899z"/>
<path style="stroke:none; fill-rule:evenodd; fill:#000000" d="M 219.356 17.199C 219.356 16.281 219.289 15.731 219.117 15.285C 218.731 14.301 217.817 13.703 216.699 13.703C 215.035 13.703 213.961 14.996 213.961 16.985C 213.961 18.973 214.996 20.199 216.672 20.199C 218.035 20.199 218.981 19.406 219.223 18.074L 218.27 18.074C 218.008 18.879 217.477 19.297 216.715 19.297C 216.113 19.297 215.602 19.02 215.285 18.504C 215.059 18.156 214.981 17.805 214.969 17.199L 219.356 17.199zM 214.938 16.434C 215.016 15.32 215.696 14.598 216.656 14.598C 217.594 14.598 218.32 15.375 218.32 16.363C 218.32 16.383 218.32 16.406 218.309 16.43L 214.938 16.434z"/>
<path style="stroke:none; fill-rule:evenodd; fill:#000000" d="M 225.996 19.336C 225.891 19.395 225.844 19.395 225.785 19.395C 225.446 19.395 225.258 19.223 225.258 18.922L 225.258 15.356C 225.258 14.281 224.481 13.699 223.008 13.699C 222.141 13.699 221.422 13.953 221.02 14.402C 220.746 14.711 220.633 15.059 220.61 15.66L 221.555 15.66C 221.633 14.93 222.059 14.598 222.942 14.598C 223.785 14.598 224.258 14.918 224.258 15.496L 224.258 15.75C 224.258 16.152 224.024 16.324 223.281 16.418C 221.957 16.59 221.754 16.637 221.395 16.785C 220.711 17.07 220.363 17.613 220.363 18.399C 220.363 19.492 221.117 20.184 222.328 20.184C 223.082 20.184 223.688 19.91 224.363 19.266C 224.43 19.899 224.727 20.184 225.344 20.184C 225.535 20.184 225.684 20.16 225.992 20.078L 225.996 19.336zM 224.258 18.039C 224.258 18.367 224.168 18.57 223.891 18.844C 223.512 19.207 223.055 19.399 222.508 19.399C 221.785 19.399 221.36 19.035 221.36 18.406C 221.36 17.758 221.77 17.426 222.762 17.274C 223.742 17.133 223.942 17.086 224.254 16.934L 224.258 18.039z"/>
<path style="stroke:none; fill-rule:evenodd; fill:#000000" d="M 229.156 13.899L 228.258 13.899L 228.258 12.231L 227.258 12.231L 227.258 13.899L 226.36 13.899L 226.36 14.695L 227.258 14.695L 227.258 19.242C 227.258 19.848 227.66 20.192 228.391 20.192C 228.613 20.192 228.84 20.168 229.153 20.109L 229.153 19.274C 229.039 19.363 228.903 19.391 228.735 19.391C 228.36 19.391 228.254 19.277 228.254 18.848L 228.254 14.695L 229.153 14.695L 229.156 13.899z"/>
<path style="stroke:none; fill-rule:evenodd; fill:#000000" d="M 235.055 19.934L 235.055 13.902L 234.055 13.902L 234.055 17.348C 234.055 18.586 233.41 19.399 232.403 19.399C 231.641 19.399 231.156 18.938 231.156 18.207L 231.156 13.902L 230.156 13.902L 230.156 18.555C 230.156 19.555 230.914 20.199 232.106 20.199C 233.004 20.199 233.578 19.891 234.153 19.098L 234.153 19.938L 235.055 19.934z"/>
<path style="stroke:none; fill-rule:evenodd; fill:#000000" d="M 236.656 13.871L 236.656 19.895L 237.656 19.895L 237.656 16.762C 237.656 15.899 237.867 15.336 238.317 15C 238.606 14.781 238.887 14.715 239.539 14.703L 239.539 13.738C 239.383 13.719 239.305 13.707 239.18 13.707C 238.57 13.707 238.106 14.074 237.559 14.969L 237.559 13.879L 236.656 13.871z"/>
<path style="stroke:none; fill-rule:evenodd; fill:#000000" d="M 245.555 17.199C 245.555 16.281 245.488 15.731 245.317 15.285C 244.93 14.301 244.016 13.703 242.899 13.703C 241.235 13.703 240.16 14.996 240.16 16.985C 240.16 18.973 241.196 20.199 242.871 20.199C 244.235 20.199 245.18 19.406 245.422 18.074L 244.469 18.074C 244.207 18.879 243.676 19.297 242.914 19.297C 242.313 19.297 241.801 19.02 241.485 18.504C 241.258 18.156 241.18 17.805 241.168 17.199L 245.555 17.199zM 241.137 16.434C 241.215 15.32 241.895 14.598 242.856 14.598C 243.793 14.598 244.52 15.375 244.52 16.363C 244.52 16.383 244.52 16.406 244.508 16.43L 241.137 16.434z"/>
<path style="stroke:none; fill-rule:evenodd; fill:#000000" d="M 251.082 15.559C 251.07 14.371 250.285 13.699 248.883 13.699C 247.473 13.699 246.559 14.426 246.559 15.547C 246.559 16.492 247.047 16.942 248.496 17.289L 249.406 17.508C 250.082 17.668 250.352 17.91 250.352 18.348C 250.352 18.91 249.785 19.293 248.942 19.293C 248.422 19.293 247.985 19.145 247.742 18.887C 247.594 18.715 247.524 18.539 247.465 18.106L 246.449 18.106C 246.492 19.516 247.278 20.195 248.86 20.195C 250.383 20.195 251.352 19.445 251.352 18.281C 251.352 17.383 250.84 16.887 249.625 16.598L 248.692 16.379C 247.899 16.195 247.559 15.942 247.559 15.516C 247.559 14.965 248.055 14.606 248.844 14.606C 249.617 14.606 250.035 14.934 250.059 15.563L 251.082 15.559z"/>
<path style="stroke:none; fill-rule:evenodd; fill:#000000" d="M 259.656 13.899L 259.656 14.754C 259.176 14.035 258.59 13.699 257.82 13.699C 256.293 13.699 255.262 15.039 255.262 17.004C 255.262 17.996 255.524 18.805 256.016 19.383C 256.461 19.891 257.102 20.192 257.735 20.192C 258.488 20.192 259.016 19.863 259.555 19.078L 259.555 19.387C 259.555 20.199 259.453 20.695 259.215 21.027C 258.965 21.383 258.477 21.586 257.899 21.586C 257.469 21.586 257.082 21.473 256.82 21.266C 256.606 21.094 256.516 20.934 256.457 20.578L 255.492 20.578C 255.594 21.711 256.473 22.387 257.883 22.387C 258.774 22.387 259.539 22.102 259.93 21.621C 260.387 21.074 260.559 20.317 260.559 18.906L 260.559 13.891L 259.656 13.899zM 257.918 14.598C 258.946 14.598 259.555 15.473 259.555 16.981C 259.555 18.418 258.938 19.293 257.93 19.293C 256.887 19.293 256.258 18.406 256.258 16.945C 256.258 15.496 256.899 14.598 257.918 14.598z"/>
<path style="stroke:none; fill-rule:evenodd; fill:#000000" d="M 264.492 13.699C 262.789 13.699 261.758 14.914 261.758 16.949C 261.758 18.985 262.778 20.199 264.508 20.199C 266.211 20.199 267.258 18.988 267.258 17C 267.258 14.91 266.25 13.707 264.5 13.707L 264.492 13.699zM 264.508 14.598C 265.602 14.598 266.258 15.485 266.258 16.981C 266.258 18.395 265.582 19.293 264.508 19.293C 263.426 19.293 262.758 18.406 262.758 16.945C 262.758 15.496 263.422 14.598 264.508 14.598z"/>
<path style="stroke:none; fill-rule:evenodd; fill:#000000" d="M 277.317 19.899L 279.082 13.899L 278.004 13.899L 276.813 18.567L 275.633 13.899L 274.465 13.899L 273.32 18.567L 272.094 13.899L 271.039 13.899L 272.781 19.899L 273.86 19.899L 275.016 15.184L 276.231 19.899L 277.317 19.899z"/>
<path style="stroke:none; fill-rule:evenodd; fill:#000000" d="M 280.856 13.899L 279.856 13.899L 279.856 19.899L 280.856 19.899L 280.856 13.899zM 280.856 11.5L 279.856 11.5L 279.856 12.735L 280.856 12.735L 280.856 11.5z"/>
<path style="stroke:none; fill-rule:evenodd; fill:#000000" d="M 284.656 13.899L 283.758 13.899L 283.758 12.231L 282.758 12.231L 282.758 13.899L 281.86 13.899L 281.86 14.695L 282.758 14.695L 282.758 19.242C 282.758 19.848 283.16 20.192 283.891 20.192C 284.113 20.192 284.34 20.168 284.653 20.109L 284.653 19.274C 284.539 19.363 284.403 19.391 284.235 19.391C 283.86 19.391 283.754 19.277 283.754 18.848L 283.754 14.695L 284.653 14.695L 284.656 13.899z"/>
<path style="stroke:none; fill-rule:evenodd; fill:#000000" d="M 285.758 11.5L 285.758 19.899L 286.758 19.899L 286.758 16.551C 286.758 15.313 287.383 14.5 288.348 14.5C 288.649 14.5 288.949 14.602 289.176 14.777C 289.442 14.973 289.555 15.262 289.555 15.692L 289.555 19.895L 290.555 19.895L 290.555 15.34C 290.555 14.328 289.836 13.695 288.672 13.695C 287.828 13.695 287.317 13.961 286.758 14.703L 286.758 11.492L 285.758 11.5z"/>
<path style="stroke:none; fill-rule:evenodd; fill:#000000" d="M 300.457 17.199C 300.457 16.281 300.391 15.731 300.219 15.285C 299.832 14.301 298.918 13.703 297.801 13.703C 296.137 13.703 295.063 14.996 295.063 16.985C 295.063 18.973 296.098 20.199 297.774 20.199C 299.137 20.199 300.082 19.406 300.324 18.074L 299.371 18.074C 299.11 18.879 298.578 19.297 297.817 19.297C 297.215 19.297 296.703 19.02 296.387 18.504C 296.16 18.156 296.082 17.805 296.07 17.199L 300.457 17.199zM 296.035 16.434C 296.113 15.32 296.793 14.598 297.754 14.598C 298.692 14.598 299.418 15.375 299.418 16.363C 299.418 16.383 299.418 16.406 299.406 16.43L 296.035 16.434z"/>
<path style="stroke:none; fill-rule:evenodd; fill:#000000" d="M 306.996 19.336C 306.891 19.395 306.844 19.395 306.785 19.395C 306.446 19.395 306.258 19.223 306.258 18.922L 306.258 15.356C 306.258 14.281 305.481 13.699 304.008 13.699C 303.141 13.699 302.422 13.953 302.02 14.402C 301.746 14.711 301.633 15.059 301.61 15.66L 302.555 15.66C 302.633 14.93 303.059 14.598 303.942 14.598C 304.785 14.598 305.258 14.918 305.258 15.496L 305.258 15.75C 305.258 16.152 305.024 16.324 304.281 16.418C 302.957 16.59 302.754 16.637 302.395 16.785C 301.711 17.07 301.363 17.613 301.363 18.399C 301.363 19.492 302.117 20.184 303.328 20.184C 304.082 20.184 304.688 19.91 305.363 19.266C 305.43 19.899 305.727 20.184 306.344 20.184C 306.535 20.184 306.684 20.16 306.992 20.078L 306.996 19.336zM 305.258 18.039C 305.258 18.367 305.168 18.57 304.891 18.844C 304.512 19.207 304.055 19.399 303.508 19.399C 302.785 19.399 302.36 19.035 302.36 18.406C 302.36 17.758 302.77 17.426 303.762 17.274C 304.742 17.133 304.942 17.086 305.254 16.934L 305.258 18.039z"/>
<path style="stroke:none; fill-rule:evenodd; fill:#000000" d="M 312.664 15.902C 312.621 15.317 312.496 14.934 312.266 14.598C 311.86 14.035 311.141 13.699 310.313 13.699C 308.711 13.699 307.664 14.992 307.664 17.004C 307.664 18.957 308.688 20.195 310.301 20.195C 311.723 20.195 312.621 19.324 312.735 17.832L 311.781 17.832C 311.625 18.809 311.137 19.297 310.332 19.297C 309.289 19.297 308.664 18.434 308.664 17.008C 308.664 15.5 309.274 14.602 310.309 14.602C 311.102 14.602 311.602 15.07 311.715 15.906L 312.664 15.902z"/>
<path style="stroke:none; fill-rule:evenodd; fill:#000000" d="M 313.856 11.5L 313.856 19.899L 314.856 19.899L 314.856 16.551C 314.856 15.313 315.481 14.5 316.446 14.5C 316.746 14.5 317.047 14.602 317.274 14.777C 317.539 14.973 317.653 15.262 317.653 15.692L 317.653 19.895L 318.653 19.895L 318.653 15.34C 318.653 14.328 317.934 13.695 316.77 13.695C 315.926 13.695 315.414 13.961 314.856 14.703L 314.856 11.492L 313.856 11.5z"/>
<path style="stroke:none; fill-rule:evenodd; fill:#000000" d="M 325.696 13.699C 323.992 13.699 322.961 14.914 322.961 16.949C 322.961 18.985 323.981 20.199 325.711 20.199C 327.414 20.199 328.461 18.988 328.461 17C 328.461 14.91 327.453 13.707 325.703 13.707L 325.696 13.699zM 325.707 14.598C 326.801 14.598 327.457 15.485 327.457 16.981C 327.457 18.395 326.781 19.293 325.707 19.293C 324.625 19.293 323.957 18.406 323.957 16.945C 323.957 15.496 324.621 14.598 325.707 14.598z"/>
<path style="stroke:none; fill-rule:evenodd; fill:#000000" d="M 331.856 13.899L 330.957 13.899L 330.957 12.231L 329.957 12.231L 329.957 13.899L 329.059 13.899L 329.059 14.695L 329.957 14.695L 329.957 19.242C 329.957 19.848 330.36 20.192 331.09 20.192C 331.313 20.192 331.539 20.168 331.852 20.109L 331.852 19.274C 331.738 19.363 331.602 19.391 331.434 19.391C 331.059 19.391 330.953 19.277 330.953 18.848L 330.953 14.695L 331.852 14.695L 331.856 13.899z"/>
<path style="stroke:none; fill-rule:evenodd; fill:#000000" d="M 332.957 11.5L 332.957 19.899L 333.957 19.899L 333.957 16.551C 333.957 15.313 334.582 14.5 335.547 14.5C 335.848 14.5 336.149 14.602 336.375 14.777C 336.641 14.973 336.754 15.262 336.754 15.692L 336.754 19.895L 337.754 19.895L 337.754 15.34C 337.754 14.328 337.035 13.695 335.871 13.695C 335.028 13.695 334.516 13.961 333.957 14.703L 333.957 11.492L 332.957 11.5z"/>
<path style="stroke:none; fill-rule:evenodd; fill:#000000" d="M 344.457 17.199C 344.457 16.281 344.391 15.731 344.219 15.285C 343.832 14.301 342.918 13.703 341.801 13.703C 340.137 13.703 339.063 14.996 339.063 16.985C 339.063 18.973 340.098 20.199 341.774 20.199C 343.137 20.199 344.082 19.406 344.324 18.074L 343.371 18.074C 343.11 18.879 342.578 19.297 341.817 19.297C 341.215 19.297 340.703 19.02 340.387 18.504C 340.16 18.156 340.082 17.805 340.07 17.199L 344.457 17.199zM 340.035 16.434C 340.113 15.32 340.793 14.598 341.754 14.598C 342.692 14.598 343.418 15.375 343.418 16.363C 343.418 16.383 343.418 16.406 343.406 16.43L 340.035 16.434z"/>
<path style="stroke:none; fill-rule:evenodd; fill:#000000" d="M 345.758 13.871L 345.758 19.895L 346.758 19.895L 346.758 16.762C 346.758 15.899 346.969 15.336 347.418 15C 347.707 14.781 347.988 14.715 348.641 14.703L 348.641 13.738C 348.485 13.719 348.406 13.707 348.281 13.707C 347.672 13.707 347.207 14.074 346.66 14.969L 346.66 13.879L 345.758 13.871z"/>
<path style="stroke:none; fill-rule:evenodd; fill:#000000" d="M 27.5547 90.5L 30.2578 90.5L 30.2578 89.602L 23.6953 89.602L 23.6953 90.5L 26.4531 90.5L 26.4531 98L 27.5508 98L 27.5547 90.5z"/>
<path style="stroke:none; fill-rule:evenodd; fill:#000000" d="M 31.2578 91.973L 31.2578 97.996L 32.2578 97.996L 32.2578 94.863C 32.2578 94 32.4687 93.438 32.918 93.102C 33.207 92.883 33.4883 92.817 34.1406 92.805L 34.1406 91.84C 33.9844 91.82 33.9062 91.809 33.7812 91.809C 33.1719 91.809 32.707 92.176 32.1601 93.07L 32.1601 91.981L 31.2578 91.973z"/>
<path style="stroke:none; fill-rule:evenodd; fill:#000000" d="M 35.957 92L 34.957 92L 34.957 98L 35.957 98L 35.957 92zM 35.957 89.598L 34.957 89.598L 34.957 90.832L 35.957 90.832L 35.957 89.598z"/>
<path style="stroke:none; fill-rule:evenodd; fill:#000000" d="M 42.8984 97.438C 42.793 97.496 42.7461 97.496 42.6875 97.496C 42.3476 97.496 42.1601 97.324 42.1601 97.024L 42.1601 93.457C 42.1601 92.383 41.3828 91.801 39.9101 91.801C 39.043 91.801 38.3242 92.055 37.9219 92.504C 37.6484 92.813 37.5351 93.16 37.5117 93.762L 38.457 93.762C 38.5351 93.031 38.9609 92.699 39.8437 92.699C 40.6875 92.699 41.1601 93.02 41.1601 93.598L 41.1601 93.852C 41.1601 94.254 40.9258 94.426 40.1836 94.52C 38.8594 94.692 38.6562 94.738 38.2969 94.887C 37.6133 95.172 37.2656 95.715 37.2656 96.5C 37.2656 97.594 38.0195 98.285 39.2305 98.285C 39.9844 98.285 40.5898 98.012 41.2656 97.367C 41.332 98 41.6289 98.285 42.2461 98.285C 42.4375 98.285 42.5859 98.262 42.8945 98.18L 42.8984 97.438zM 41.1562 96.137C 41.1562 96.465 41.0664 96.668 40.789 96.942C 40.4101 97.305 39.9531 97.496 39.4062 97.496C 38.6836 97.496 38.2578 97.133 38.2578 96.504C 38.2578 95.856 38.668 95.524 39.6601 95.371C 40.6406 95.231 40.8398 95.184 41.1523 95.031L 41.1562 96.137z"/>
<path style="stroke:none; fill-rule:evenodd; fill:#000000" d="M 43.957 91.973L 43.957 97.996L 44.957 97.996L 44.957 94.649C 44.957 93.41 45.582 92.598 46.5469 92.598C 47.2851 92.598 47.7539 93.059 47.7539 93.789L 47.7539 97.992L 48.7539 97.992L 48.7539 93.438C 48.7539 92.438 48.0117 91.793 46.8516 91.793C 45.9609 91.793 45.3867 92.137 44.8594 92.977L 44.8594 91.965L 43.957 91.973z"/>
<path style="stroke:none; fill-rule:evenodd; fill:#000000" d="M 54.2578 92L 54.2578 92.856C 53.7773 92.137 53.1914 91.801 52.4219 91.801C 50.8945 91.801 49.8633 93.141 49.8633 95.106C 49.8633 96.098 50.125 96.906 50.6172 97.485C 51.0625 97.992 51.7031 98.293 52.3359 98.293C 53.0898 98.293 53.6172 97.965 54.1562 97.18L 54.1562 97.488C 54.1562 98.301 54.0547 98.797 53.8164 99.129C 53.5664 99.485 53.0781 99.688 52.5 99.688C 52.0703 99.688 51.6836 99.574 51.4219 99.367C 51.207 99.195 51.1172 99.035 51.0586 98.68L 50.0937 98.68C 50.1953 99.813 51.0742 100.488 52.4844 100.488C 53.375 100.488 54.1406 100.203 54.5312 99.723C 54.9883 99.176 55.1601 98.418 55.1601 97.008L 55.1601 91.992L 54.2578 92zM 52.5156 92.699C 53.543 92.699 54.1523 93.574 54.1523 95.082C 54.1523 96.52 53.5351 97.395 52.5273 97.395C 51.4844 97.395 50.8555 96.508 50.8555 95.047C 50.8555 93.598 51.4961 92.699 52.5156 92.699z"/>
<path style="stroke:none; fill-rule:evenodd; fill:#000000" d="M 56.7578 98L 57.7578 98L 57.7578 89.602L 56.7578 89.602L 56.7578 98z"/>
<path style="stroke:none; fill-rule:evenodd; fill:#000000" d="M 64.3555 95.297C 64.3555 94.379 64.289 93.828 64.1172 93.383C 63.7305 92.399 62.8164 91.801 61.6992 91.801C 60.0351 91.801 58.9609 93.094 58.9609 95.082C 58.9609 97.07 59.9961 98.297 61.6719 98.297C 63.0351 98.297 63.9805 97.504 64.2226 96.172L 63.2695 96.172C 63.0078 96.977 62.4766 97.395 61.7148 97.395C 61.1133 97.395 60.6016 97.117 60.2851 96.602C 60.0586 96.254 59.9805 95.902 59.9687 95.297L 64.3555 95.297zM 59.9375 94.531C 60.0156 93.418 60.6953 92.695 61.6562 92.695C 62.5937 92.695 63.3203 93.473 63.3203 94.461C 63.3203 94.481 63.3203 94.504 63.3086 94.527L 59.9375 94.531z"/>
<path style="stroke:#000000; stroke-width:1.9133; fill:none" d="M 78.9028 103.711L 44.4648 69.274L 10.0273 103.711L 78.9028 103.711z"/>
<path style="stroke:none; fill-rule:evenodd; fill:#000000" d="M 201.656 179.5L 204.36 179.5L 204.36 178.602L 197.797 178.602L 197.797 179.5L 200.555 179.5L 200.555 187L 201.653 187L 201.656 179.5z"/>
<path style="stroke:none; fill-rule:evenodd; fill:#000000" d="M 205.356 180.973L 205.356 186.996L 206.356 186.996L 206.356 183.863C 206.356 183 206.567 182.438 207.016 182.102C 207.305 181.883 207.586 181.816 208.238 181.805L 208.238 180.84C 208.082 180.82 208.004 180.809 207.879 180.809C 207.27 180.809 206.805 181.176 206.258 182.07L 206.258 180.981L 205.356 180.973z"/>
<path style="stroke:none; fill-rule:evenodd; fill:#000000" d="M 210.055 181L 209.055 181L 209.055 187L 210.055 187L 210.055 181zM 210.055 178.598L 209.055 178.598L 209.055 179.832L 210.055 179.832L 210.055 178.598z"/>
<path style="stroke:none; fill-rule:evenodd; fill:#000000" d="M 217.098 186.438C 216.992 186.496 216.946 186.496 216.887 186.496C 216.547 186.496 216.36 186.324 216.36 186.024L 216.36 182.457C 216.36 181.383 215.582 180.801 214.11 180.801C 213.242 180.801 212.524 181.055 212.121 181.504C 211.848 181.813 211.735 182.16 211.711 182.762L 212.656 182.762C 212.735 182.031 213.16 181.699 214.043 181.699C 214.887 181.699 215.36 182.02 215.36 182.598L 215.36 182.852C 215.36 183.254 215.125 183.426 214.383 183.52C 213.059 183.691 212.856 183.738 212.496 183.887C 211.813 184.172 211.465 184.715 211.465 185.5C 211.465 186.594 212.219 187.285 213.43 187.285C 214.184 187.285 214.789 187.012 215.465 186.367C 215.531 187 215.828 187.285 216.446 187.285C 216.637 187.285 216.785 187.262 217.094 187.18L 217.098 186.438zM 215.356 185.137C 215.356 185.465 215.266 185.668 214.988 185.941C 214.61 186.305 214.153 186.496 213.606 186.496C 212.883 186.496 212.457 186.133 212.457 185.504C 212.457 184.856 212.867 184.524 213.86 184.371C 214.84 184.231 215.039 184.184 215.352 184.031L 215.356 185.137z"/>
<path style="stroke:none; fill-rule:evenodd; fill:#000000" d="M 218.055 180.973L 218.055 186.996L 219.055 186.996L 219.055 183.649C 219.055 182.41 219.68 181.598 220.645 181.598C 221.383 181.598 221.852 182.059 221.852 182.789L 221.852 186.992L 222.852 186.992L 222.852 182.438C 222.852 181.438 222.11 180.793 220.949 180.793C 220.059 180.793 219.485 181.137 218.957 181.977L 218.957 180.965L 218.055 180.973z"/>
<path style="stroke:none; fill-rule:evenodd; fill:#000000" d="M 228.356 181L 228.356 181.856C 227.875 181.137 227.289 180.801 226.52 180.801C 224.992 180.801 223.961 182.141 223.961 184.106C 223.961 185.098 224.223 185.906 224.715 186.484C 225.16 186.992 225.801 187.293 226.434 187.293C 227.188 187.293 227.715 186.965 228.254 186.18L 228.254 186.488C 228.254 187.301 228.153 187.797 227.914 188.129C 227.664 188.484 227.176 188.688 226.598 188.688C 226.168 188.688 225.781 188.574 225.52 188.367C 225.305 188.195 225.215 188.035 225.156 187.68L 224.192 187.68C 224.293 188.813 225.172 189.488 226.582 189.488C 227.473 189.488 228.238 189.203 228.629 188.723C 229.086 188.176 229.258 187.418 229.258 186.008L 229.258 180.992L 228.356 181zM 226.617 181.699C 227.645 181.699 228.254 182.574 228.254 184.082C 228.254 185.52 227.637 186.395 226.629 186.395C 225.586 186.395 224.957 185.508 224.957 184.047C 224.957 182.598 225.598 181.699 226.617 181.699z"/>
<path style="stroke:none; fill-rule:evenodd; fill:#000000" d="M 230.856 187L 231.856 187L 231.856 178.602L 230.856 178.602L 230.856 187z"/>
<path style="stroke:none; fill-rule:evenodd; fill:#000000" d="M 238.555 184.297C 238.555 183.379 238.488 182.828 238.317 182.383C 237.93 181.399 237.016 180.801 235.899 180.801C 234.235 180.801 233.16 182.094 233.16 184.082C 233.16 186.07 234.196 187.297 235.871 187.297C 237.235 187.297 238.18 186.504 238.422 185.172L 237.469 185.172C 237.207 185.977 236.676 186.395 235.914 186.395C 235.313 186.395 234.801 186.117 234.485 185.602C 234.258 185.254 234.18 184.902 234.168 184.297L 238.555 184.297zM 234.137 183.531C 234.215 182.418 234.895 181.695 235.856 181.695C 236.793 181.695 237.52 182.473 237.52 183.461C 237.52 183.481 237.52 183.504 237.508 183.527L 234.137 183.531z"/>
<path style="stroke:#000000; stroke-width:1.9133; fill:none" d="M 253.012 192.68L 218.574 158.242L 184.137 192.68L 253.012 192.68z"/>
<path style="stroke:#000000; stroke-width:0.95664899999999997; fill:none" d="M 218.57 157.055L 213.789 83.395"/>
<path style="stroke:#000000; stroke-width:0.95664899999999997; fill:none" d="M 212.375 91.152L 213.785 83.395L 216.188 90.906"/>
</g>
</svg>