<?xml version="1.0" encoding="UTF-8" standalone="no"?>
<svg
   xmlns:dc="http://purl.org/dc/elements/1.1/"
   xmlns:cc="http://web.resource.org/cc/"
   xmlns:rdf="http://www.w3.org/1999/02/22-rdf-syntax-ns#"
   xmlns:svg="http://www.w3.org/2000/svg"
   xmlns="http://www.w3.org/2000/svg"
   xmlns:sodipodi="http://sodipodi.sourceforge.net/DTD/sodipodi-0.dtd"
   xmlns:inkscape="http://www.inkscape.org/namespaces/inkscape"
   width="304.557"
   height="219.293"
   id="svg2"
   sodipodi:version="0.32"
   inkscape:version="0.45"
   sodipodi:docname="fig.tripartite_model_clr.svg"
   sodipodi:docbase="/Users/oreilly/svn_docs/figs"
   inkscape:output_extension="org.inkscape.output.svg.inkscape"
   inkscape:export-filename="/Users/oreilly/svn_docs/figs/fig.tripartite_model_clr.png"
   inkscape:export-xdpi="149.58"
   inkscape:export-ydpi="149.58"
   sodipodi:modified="TRUE">
  <metadata
     id="metadata317">
    <rdf:RDF>
      <cc:Work
         rdf:about="">
        <dc:format>image/svg+xml</dc:format>
        <dc:type
           rdf:resource="http://purl.org/dc/dcmitype/StillImage" />
      </cc:Work>
    </rdf:RDF>
  </metadata>
  <sodipodi:namedview
     inkscape:window-height="806"
     inkscape:window-width="833"
     inkscape:pageshadow="2"
     inkscape:pageopacity="0.0"
     guidetolerance="10.0"
     gridtolerance="10.0"
     objecttolerance="10.0"
     borderopacity="1.0"
     bordercolor="#666666"
     pagecolor="#ffffff"
     id="base"
     inkscape:zoom="1.7237212"
     inkscape:cx="152.2785"
     inkscape:cy="109.6465"
     inkscape:window-x="0"
     inkscape:window-y="22"
     inkscape:current-layer="svg2" />
  <defs
     id="defs4">
    <marker
       id="ArrowEnd"
       viewBox="0 0 10 10"
       refX="0"
       refY="5"
       markerUnits="strokeWidth"
       markerWidth="4"
       markerHeight="3"
       orient="auto">
      <path
         d="M 0 0 L 10 5 L 0 10 z"
         id="path7" />
    </marker>
    <marker
       id="ArrowStart"
       viewBox="0 0 10 10"
       refX="10"
       refY="5"
       markerUnits="strokeWidth"
       markerWidth="4"
       markerHeight="3"
       orient="auto">
      <path
         d="M 10 0 L 0 5 L 10 10 z"
         id="path10" />
    </marker>
  </defs>
  <rect
     style="opacity:1;color:#000000;fill:#ffffff;fill-opacity:1;fill-rule:evenodd;stroke:none;stroke-width:8;stroke-linecap:butt;stroke-linejoin:miter;marker:none;marker-start:none;marker-mid:none;marker-end:none;stroke-miterlimit:4;stroke-dasharray:none;stroke-dashoffset:0;stroke-opacity:1;visibility:visible;display:inline;overflow:visible;enable-background:accumulate"
     id="rect2469"
     width="308.05444"
     height="232.63623"
     x="-0.58014023"
     y="-6.9616823" />
  <g
     id="g12">
    <path
       style="stroke:none; fill-rule:evenodd; fill:#000000"
       d="M 210.364 213.195L 216.387 213.195L 216.387 211.898L 210.364 211.898L 210.364 207.699L 217.161 207.699L 217.161 206.402L 208.762 206.402L 208.762 218.902L 210.36 218.902L 210.364 213.195z"
       id="path14" />
    <path
       style="stroke:none; fill-rule:evenodd; fill:#000000"
       d="M 229.141 210.25C 228.641 207.527 227.055 206.199 224.302 206.199C 222.614 206.199 221.255 206.73 220.325 207.762C 219.188 208.992 218.571 210.777 218.571 212.797C 218.571 214.852 219.208 216.617 220.395 217.836C 221.356 218.828 222.598 219.289 224.235 219.289C 227.298 219.289 229.02 217.641 229.403 214.32L 227.751 214.32C 227.614 215.207 227.442 215.809 227.184 216.324C 226.669 217.387 225.602 217.988 224.259 217.988C 221.762 217.988 220.176 215.961 220.176 212.777C 220.176 209.508 221.692 207.496 224.118 207.496C 225.134 207.496 226.079 207.812 226.598 208.305C 227.063 208.742 227.321 209.293 227.509 210.246L 229.141 210.25z"
       id="path16" />
    <path
       style="stroke:none; fill-rule:evenodd; fill:#000000"
       d="M 234.098 206.395L 230.028 219.238L 230.969 219.238L 235.04 206.395L 234.098 206.395z"
       id="path18" />
    <path
       style="stroke:none; fill-rule:evenodd; fill:#000000"
       d="M 236.262 218.895L 241.884 218.895C 243.059 218.895 243.934 218.57 244.598 217.852C 245.212 217.203 245.555 216.309 245.555 215.332C 245.555 213.824 244.872 212.914 243.282 212.301C 244.442 211.77 245.059 210.848 245.059 209.578C 245.059 208.672 244.716 207.867 244.063 207.281C 243.411 206.684 242.552 206.406 241.348 206.406L 236.262 206.406L 236.262 218.895zM 237.864 211.895L 237.864 207.695L 240.954 207.695C 241.844 207.695 242.344 207.82 242.774 208.164C 243.219 208.523 243.458 209.066 243.458 209.793C 243.458 210.496 243.219 211.059 242.774 211.422C 242.344 211.766 241.848 211.891 240.954 211.891L 237.864 211.895zM 237.864 217.594L 237.864 213.195L 241.731 213.195C 242.497 213.195 243.009 213.387 243.38 213.809C 243.755 214.211 243.958 214.77 243.958 215.402C 243.958 216.016 243.755 216.574 243.38 216.977C 243.005 217.395 242.497 217.586 241.731 217.586L 237.864 217.594z"
       id="path20" />
    <path
       style="stroke:none; fill-rule:evenodd; fill:#000000"
       d="M 258.563 212.395L 253.364 212.395L 253.364 213.691L 257.161 213.691L 257.161 214.043C 257.161 216.332 255.516 217.988 253.235 217.988C 251.969 217.988 250.821 217.52 250.083 216.695C 249.262 215.789 248.766 214.266 248.766 212.691C 248.766 209.562 250.509 207.496 253.145 207.496C 255.04 207.496 256.411 208.5 256.751 210.164L 258.376 210.164C 257.93 207.645 256.012 206.199 253.153 206.199C 251.634 206.199 250.399 206.594 249.423 207.398C 247.985 208.598 247.165 210.535 247.165 212.781C 247.165 216.617 249.512 219.293 252.891 219.293C 254.587 219.293 255.942 218.668 257.161 217.332L 257.552 218.973L 258.559 218.973L 258.563 212.395z"
       id="path22" />
    <path
       style="stroke:none; fill-rule:evenodd; fill:#ff0000"
       d="M 208.462 213.195L 214.485 213.195L 214.485 211.898L 208.462 211.898L 208.462 207.699L 215.259 207.699L 215.259 206.402L 206.86 206.402L 206.86 218.902L 208.458 218.902L 208.462 213.195z"
       id="path24" />
    <path
       style="stroke:none; fill-rule:evenodd; fill:#ff0000"
       d="M 227.243 210.25C 226.743 207.527 225.157 206.199 222.403 206.199C 220.716 206.199 219.356 206.73 218.426 207.762C 217.29 208.992 216.673 210.777 216.673 212.797C 216.673 214.852 217.309 216.617 218.497 217.836C 219.458 218.828 220.7 219.289 222.337 219.289C 225.399 219.289 227.122 217.641 227.505 214.32L 225.852 214.32C 225.716 215.207 225.544 215.809 225.286 216.324C 224.77 217.387 223.704 217.988 222.36 217.988C 219.864 217.988 218.278 215.961 218.278 212.777C 218.278 209.508 219.794 207.496 222.219 207.496C 223.235 207.496 224.18 207.812 224.7 208.305C 225.165 208.742 225.423 209.293 225.61 210.246L 227.243 210.25z"
       id="path26" />
    <path
       style="stroke:none; fill-rule:evenodd; fill:#ff0000"
       d="M 232.2 206.395L 228.13 219.238L 229.071 219.238L 233.141 206.395L 232.2 206.395z"
       id="path28" />
    <path
       style="stroke:none; fill-rule:evenodd; fill:#ff0000"
       d="M 234.364 218.895L 239.985 218.895C 241.161 218.895 242.036 218.57 242.7 217.852C 243.313 217.203 243.657 216.309 243.657 215.332C 243.657 213.824 242.973 212.914 241.384 212.301C 242.544 211.77 243.161 210.848 243.161 209.578C 243.161 208.672 242.817 207.867 242.165 207.281C 241.512 206.684 240.653 206.406 239.45 206.406L 234.364 206.406L 234.364 218.895zM 235.962 211.895L 235.962 207.695L 239.052 207.695C 239.942 207.695 240.442 207.82 240.872 208.164C 241.317 208.523 241.555 209.066 241.555 209.793C 241.555 210.496 241.317 211.059 240.872 211.422C 240.442 211.766 239.946 211.891 239.052 211.891L 235.962 211.895zM 235.962 217.594L 235.962 213.195L 239.829 213.195C 240.594 213.195 241.106 213.387 241.477 213.809C 241.852 214.211 242.055 214.77 242.055 215.402C 242.055 216.016 241.852 216.574 241.477 216.977C 241.102 217.395 240.594 217.586 239.829 217.586L 235.962 217.594z"
       id="path30" />
    <path
       style="stroke:none; fill-rule:evenodd; fill:#ff0000"
       d="M 256.661 212.395L 251.462 212.395L 251.462 213.691L 255.259 213.691L 255.259 214.043C 255.259 216.332 253.614 217.988 251.333 217.988C 250.067 217.988 248.919 217.52 248.18 216.695C 247.36 215.789 246.864 214.266 246.864 212.691C 246.864 209.562 248.606 207.496 251.243 207.496C 253.137 207.496 254.509 208.5 254.848 210.164L 256.473 210.164C 256.028 207.645 254.11 206.199 251.251 206.199C 249.731 206.199 248.497 206.594 247.52 207.398C 246.083 208.598 245.262 210.535 245.262 212.781C 245.262 216.617 247.61 219.293 250.989 219.293C 252.684 219.293 254.04 218.668 255.259 217.332L 255.649 218.973L 256.657 218.973L 256.661 212.395z"
       id="path32" />
    <path
       style="stroke:#000000; stroke-width:1.90977; fill:none"
       d="M 294.548 156.895C 294.548 131.582 265.477 111.063 229.618 111.063C 193.759 111.063 164.688 131.582 164.688 156.895C 164.688 182.207 193.759 202.727 229.618 202.727C 265.477 202.727 294.548 182.207 294.548 156.895"
       id="path34" />
    <path
       style="stroke:#000000; stroke-width:1.90977; fill:none"
       d="M 210.516 65.227C 210.516 39.914 181.446 19.395 145.587 19.395C 109.727 19.395 80.6573 39.914 80.6573 65.227C 80.6573 90.539 109.727 111.059 145.587 111.059C 181.446 111.059 210.516 90.539 210.516 65.227"
       id="path36" />
    <path
       style="stroke:none; fill-rule:evenodd; fill:#000000"
       d="M 143.962 6.996L 143.962 12.695L 145.559 12.695L 145.559 0.194992L 143.962 0.194992L 143.962 5.69499L 137.466 5.69499L 137.466 0.194992L 135.868 0.194992L 135.868 12.695L 137.466 12.695L 137.466 6.996L 143.962 6.996z"
       id="path38" />
    <path
       style="stroke:none; fill-rule:evenodd; fill:#000000"
       d="M 158.243 4.05099C 157.743 1.328 156.157 0 153.403 0C 151.716 0 150.356 0.531006 149.426 1.563C 148.29 2.793 147.673 4.578 147.673 6.59799C 147.673 8.65199 148.309 10.418 149.497 11.637C 150.458 12.629 151.7 13.09 153.337 13.09C 156.399 13.09 158.122 11.441 158.505 8.121L 156.852 8.121C 156.716 9.008 156.544 9.60899 156.286 10.125C 155.77 11.188 154.704 11.789 153.36 11.789C 150.864 11.789 149.278 9.76199 149.278 6.578C 149.278 3.30901 150.794 1.297 153.219 1.297C 154.235 1.297 155.18 1.61301 155.7 2.105C 156.165 2.543 156.423 3.09399 156.61 4.047L 158.243 4.05099z"
       id="path40" />
    <path
       style="stroke:#000000; stroke-width:1.90977; fill:none"
       d="M 141.766 156.895C 141.766 131.582 112.696 111.063 76.837 111.063C 40.9776 111.063 11.9073 131.582 11.9073 156.895C 11.9073 182.207 40.9776 202.727 76.837 202.727C 112.696 202.727 141.766 182.207 141.766 156.895"
       id="path42" />
    <path
       style="stroke:none; fill-rule:evenodd; fill:#000000"
       d="M 68.962 213.594L 72.8721 213.594C 73.8448 213.594 74.6143 213.305 75.2784 212.703C 76.0284 212.02 76.3526 211.215 76.3526 210.066C 76.3526 207.719 74.9659 206.398 72.5049 206.398L 67.3565 206.398L 67.3565 218.898L 68.9541 218.898L 68.962 213.594zM 68.962 212.293L 68.962 207.695L 72.251 207.695C 73.7588 207.695 74.6573 208.555 74.6573 209.992C 74.6573 211.426 73.7588 212.289 72.251 212.289L 68.962 212.293z"
       id="path44" />
    <path
       style="stroke:none; fill-rule:evenodd; fill:#000000"
       d="M 88.5401 210.25C 88.0401 207.527 86.4541 206.199 83.7002 206.199C 82.0127 206.199 80.6534 206.73 79.7237 207.762C 78.587 208.992 77.9698 210.777 77.9698 212.797C 77.9698 214.852 78.6065 216.617 79.794 217.836C 80.7549 218.828 81.9971 219.289 83.6338 219.289C 86.6963 219.289 88.419 217.641 88.8018 214.32L 87.1495 214.32C 87.0127 215.207 86.8409 215.809 86.5831 216.324C 86.0674 217.387 85.001 217.988 83.6573 217.988C 81.1612 217.988 79.5752 215.961 79.5752 212.777C 79.5752 209.508 81.0909 207.496 83.5166 207.496C 84.5323 207.496 85.4776 207.812 85.9971 208.305C 86.462 208.742 86.7198 209.293 86.9073 210.246L 88.5401 210.25z"
       id="path46" />
    <path
       style="stroke:#0000ff; stroke-width:1.90977; fill:none"
       d="M 208.618 65.211C 208.618 39.898 179.548 19.379 143.688 19.379C 107.829 19.379 78.7588 39.898 78.7588 65.211C 78.7588 90.523 107.829 111.043 143.688 111.043C 179.548 111.043 208.618 90.523 208.618 65.211"
       id="path48" />
    <path
       style="stroke:#ff0000; stroke-width:1.90977; fill:none"
       d="M 292.645 156.879C 292.645 131.566 263.575 111.047 227.716 111.047C 191.856 111.047 162.786 131.566 162.786 156.879C 162.786 182.191 191.856 202.711 227.716 202.711C 263.575 202.711 292.645 182.191 292.645 156.879"
       id="path50" />
    <path
       style="stroke:#00ff00; stroke-width:1.90977; fill:none"
       d="M 139.868 156.879C 139.868 131.566 110.798 111.047 74.9385 111.047C 39.0791 111.047 10.0088 131.566 10.0088 156.879C 10.0088 182.191 39.0791 202.711 74.9385 202.711C 110.798 202.711 139.868 182.191 139.868 156.879"
       id="path52" />
    <path
       style="stroke:none; fill-rule:evenodd; fill:#00ff00"
       d="M 67.0635 213.594L 70.9737 213.594C 71.9463 213.594 72.7159 213.305 73.3799 212.703C 74.1299 212.02 74.4541 211.215 74.4541 210.066C 74.4541 207.719 73.0674 206.398 70.6065 206.398L 65.4581 206.398L 65.4581 218.898L 67.0557 218.898L 67.0635 213.594zM 67.0635 212.293L 67.0635 207.695L 70.3526 207.695C 71.8604 207.695 72.7588 208.555 72.7588 209.992C 72.7588 211.426 71.8604 212.289 70.3526 212.289L 67.0635 212.293z"
       id="path54" />
    <path
       style="stroke:none; fill-rule:evenodd; fill:#00ff00"
       d="M 86.6416 210.25C 86.1416 207.527 84.5557 206.199 81.8018 206.199C 80.1143 206.199 78.7549 206.73 77.8252 207.762C 76.6885 208.992 76.0713 210.777 76.0713 212.797C 76.0713 214.852 76.7081 216.617 77.8955 217.836C 78.8565 218.828 80.0987 219.289 81.7354 219.289C 84.7979 219.289 86.5205 217.641 86.9034 214.32L 85.251 214.32C 85.1143 215.207 84.9424 215.809 84.6846 216.324C 84.169 217.387 83.1026 217.988 81.7588 217.988C 79.2627 217.988 77.6768 215.961 77.6768 212.777C 77.6768 209.508 79.1924 207.496 81.6182 207.496C 82.6338 207.496 83.5791 207.812 84.0987 208.305C 84.5635 208.742 84.8213 209.293 85.0088 210.246L 86.6416 210.25z"
       id="path56" />
    <path
       style="stroke:none; fill-rule:evenodd; fill:#9f9f9f"
       d="M 47.9971 168.34C 47.9971 162.125 42.9581 157.086 36.7432 157.086C 30.5284 157.086 25.4893 162.125 25.4893 168.34C 25.4893 174.555 30.5284 179.594 36.7432 179.594C 42.9581 179.594 47.9971 174.555 47.9971 168.34"
       id="path58" />
    <path
       style="stroke:#000000; stroke-width:1.90977; fill:none"
       d="M 47.9971 168.34C 47.9971 162.125 42.9581 157.086 36.7432 157.086C 30.5284 157.086 25.4893 162.125 25.4893 168.34C 25.4893 174.555 30.5284 179.594 36.7432 179.594C 42.9581 179.594 47.9971 174.555 47.9971 168.34"
       id="path60" />
    <path
       style="stroke:none; fill-rule:evenodd; fill:#9f9f9f"
       d="M 78.5518 130.145C 78.5518 123.93 73.5127 118.891 67.2979 118.891C 61.0831 118.891 56.044 123.93 56.044 130.145C 56.044 136.359 61.0831 141.398 67.2979 141.398C 73.5127 141.398 78.5518 136.359 78.5518 130.145"
       id="path62" />
    <path
       style="stroke:#000000; stroke-width:1.90977; fill:none"
       d="M 78.5518 130.145C 78.5518 123.93 73.5127 118.891 67.2979 118.891C 61.0831 118.891 56.044 123.93 56.044 130.145C 56.044 136.359 61.0831 141.398 67.2979 141.398C 73.5127 141.398 78.5518 136.359 78.5518 130.145"
       id="path64" />
    <path
       style="stroke:none; fill-rule:evenodd; fill:#9f9f9f"
       d="M 93.8331 130.145C 93.8331 123.93 88.794 118.891 82.5791 118.891C 76.3643 118.891 71.3252 123.93 71.3252 130.145C 71.3252 136.359 76.3643 141.398 82.5791 141.398C 88.794 141.398 93.8331 136.359 93.8331 130.145"
       id="path66" />
    <path
       style="stroke:#000000; stroke-width:1.90977; fill:none"
       d="M 93.8331 130.145C 93.8331 123.93 88.794 118.891 82.5791 118.891C 76.3643 118.891 71.3252 123.93 71.3252 130.145C 71.3252 136.359 76.3643 141.398 82.5791 141.398C 88.794 141.398 93.8331 136.359 93.8331 130.145"
       id="path68" />
    <path
       style="stroke:none; fill-rule:evenodd; fill:#9f9f9f"
       d="M 109.106 168.34C 109.106 162.125 104.067 157.086 97.8526 157.086C 91.6377 157.086 86.5987 162.125 86.5987 168.34C 86.5987 174.555 91.6377 179.594 97.8526 179.594C 104.067 179.594 109.106 174.555 109.106 168.34"
       id="path70" />
    <path
       style="stroke:#000000; stroke-width:1.90977; fill:none"
       d="M 109.106 168.34C 109.106 162.125 104.067 157.086 97.8526 157.086C 91.6377 157.086 86.5987 162.125 86.5987 168.34C 86.5987 174.555 91.6377 179.594 97.8526 179.594C 104.067 179.594 109.106 174.555 109.106 168.34"
       id="path72" />
    <path
       style="stroke:none; fill-rule:evenodd; fill:#9f9f9f"
       d="M 124.387 168.34C 124.387 162.125 119.348 157.086 113.134 157.086C 106.919 157.086 101.88 162.125 101.88 168.34C 101.88 174.555 106.919 179.594 113.134 179.594C 119.348 179.594 124.387 174.555 124.387 168.34"
       id="path74" />
    <path
       style="stroke:#000000; stroke-width:1.90977; fill:none"
       d="M 124.387 168.34C 124.387 162.125 119.348 157.086 113.134 157.086C 106.919 157.086 101.88 162.125 101.88 168.34C 101.88 174.555 106.919 179.594 113.134 179.594C 119.348 179.594 124.387 174.555 124.387 168.34"
       id="path76" />
    <path
       style="stroke:none; fill-rule:evenodd; fill:#9f9f9f"
       d="M 63.2745 168.34C 63.2745 162.125 58.2354 157.086 52.0205 157.086C 45.8057 157.086 40.7666 162.125 40.7666 168.34C 40.7666 174.555 45.8057 179.594 52.0205 179.594C 58.2354 179.594 63.2745 174.555 63.2745 168.34"
       id="path78" />
    <path
       style="stroke:#000000; stroke-width:1.90977; fill:none"
       d="M 63.2745 168.34C 63.2745 162.125 58.2354 157.086 52.0205 157.086C 45.8057 157.086 40.7666 162.125 40.7666 168.34C 40.7666 174.555 45.8057 179.594 52.0205 179.594C 58.2354 179.594 63.2745 174.555 63.2745 168.34"
       id="path80" />
    <path
       style="stroke:none; fill-rule:evenodd; fill:#ffff00"
       d="M 55.794 179.797C 55.794 173.492 50.6846 168.379 44.376 168.379C 38.0713 168.379 32.9581 173.488 32.9581 179.797C 32.9581 186.102 38.0674 191.215 44.376 191.215C 50.6807 191.215 55.794 186.105 55.794 179.797"
       id="path82" />
    <path
       style="stroke:#000000; stroke-width:1.90977; fill:none"
       d="M 55.794 179.797C 55.794 173.492 50.6846 168.379 44.376 168.379C 38.0713 168.379 32.9581 173.488 32.9581 179.797C 32.9581 186.102 38.0674 191.215 44.376 191.215C 50.6807 191.215 55.794 186.105 55.794 179.797"
       id="path84" />
    <path
       style="stroke:none; fill-rule:evenodd; fill:#ffff00"
       d="M 197.161 133.965C 197.161 131.859 195.454 130.148 193.344 130.148C 191.239 130.148 189.528 131.855 189.528 133.965C 189.528 136.07 191.235 137.781 193.344 137.781C 195.45 137.781 197.161 136.074 197.161 133.965"
       id="path86" />
    <path
       style="stroke:#000000; stroke-width:1.90977; fill:none"
       d="M 197.161 133.965C 197.161 131.859 195.454 130.148 193.344 130.148C 191.239 130.148 189.528 131.855 189.528 133.965C 189.528 136.07 191.235 137.781 193.344 137.781C 195.45 137.781 197.161 136.074 197.161 133.965"
       id="path88" />
    <path
       style="stroke:none; fill-rule:evenodd; fill:#ffff00"
       d="M 197.161 156.879C 197.161 154.773 195.454 153.062 193.344 153.062C 191.239 153.062 189.528 154.77 189.528 156.879C 189.528 158.984 191.235 160.695 193.344 160.695C 195.45 160.695 197.161 158.988 197.161 156.879"
       id="path90" />
    <path
       style="stroke:#000000; stroke-width:1.90977; fill:none"
       d="M 197.161 156.879C 197.161 154.773 195.454 153.062 193.344 153.062C 191.239 153.062 189.528 154.77 189.528 156.879C 189.528 158.984 191.235 160.695 193.344 160.695C 195.45 160.695 197.161 158.988 197.161 156.879"
       id="path92" />
    <path
       style="stroke:none; fill-rule:evenodd; fill:#ffff00"
       d="M 197.161 179.797C 197.161 177.691 195.454 175.98 193.344 175.98C 191.239 175.98 189.528 177.688 189.528 179.797C 189.528 181.902 191.235 183.613 193.344 183.613C 195.45 183.613 197.161 181.906 197.161 179.797"
       id="path94" />
    <path
       style="stroke:#000000; stroke-width:1.90977; fill:none"
       d="M 197.161 179.797C 197.161 177.691 195.454 175.98 193.344 175.98C 191.239 175.98 189.528 177.688 189.528 179.797C 189.528 181.902 191.235 183.613 193.344 183.613C 195.45 183.613 197.161 181.906 197.161 179.797"
       id="path96" />
    <path
       style="stroke:none; fill-rule:evenodd; fill:#ffff00"
       d="M 86.3526 141.602C 86.3526 135.297 81.2432 130.184 74.9346 130.184C 68.6299 130.184 63.5166 135.293 63.5166 141.602C 63.5166 147.906 68.626 153.02 74.9346 153.02C 81.2393 153.02 86.3526 147.91 86.3526 141.602"
       id="path98" />
    <path
       style="stroke:#000000; stroke-width:1.90977; fill:none"
       d="M 86.3526 141.602C 86.3526 135.297 81.2432 130.184 74.9346 130.184C 68.6299 130.184 63.5166 135.293 63.5166 141.602C 63.5166 147.906 68.626 153.02 74.9346 153.02C 81.2393 153.02 86.3526 147.91 86.3526 141.602"
       id="path100" />
    <path
       style="stroke:none; fill-rule:evenodd; fill:#ffff00"
       d="M 116.907 179.797C 116.907 173.492 111.798 168.379 105.489 168.379C 99.1843 168.379 94.0713 173.488 94.0713 179.797C 94.0713 186.102 99.1803 191.215 105.489 191.215C 111.794 191.215 116.907 186.105 116.907 179.797"
       id="path102" />
    <path
       style="stroke:#000000; stroke-width:1.90977; fill:none"
       d="M 116.907 179.797C 116.907 173.492 111.798 168.379 105.489 168.379C 99.1843 168.379 94.0713 173.488 94.0713 179.797C 94.0713 186.102 99.1803 191.215 105.489 191.215C 111.794 191.215 116.907 186.105 116.907 179.797"
       id="path104" />
    <path
       style="stroke:#000000; stroke-dasharray:6,3; stroke-width:1.90977; fill:none"
       d="M 109.309 65.211L 74.9346 141.602"
       id="path106" />
    <path
       style="stroke:#000000; stroke-dasharray:6,3; stroke-width:1.90977; fill:none"
       d="M 109.309 65.211L 36.7393 168.336"
       id="path108" />
    <path
       style="stroke:#000000; stroke-dasharray:6,3; stroke-width:1.90977; fill:none"
       d="M 109.309 65.211L 113.126 168.336"
       id="path110" />
    <path
       style="stroke:#000000; stroke-width:1.90977; fill:none"
       d="M 143.684 88.129L 44.3799 179.797"
       id="path112" />
    <path
       style="stroke:#000000; stroke-width:1.90977; fill:none"
       d="M 193.341 133.961L 74.9385 141.598"
       id="path114" />
    <path
       style="stroke:#000000; stroke-width:1.90977; fill:none"
       d="M 193.341 156.879L 44.3799 179.793"
       id="path116" />
    <path
       style="stroke:#000000; stroke-width:1.90977; fill:none"
       d="M 193.341 179.797L 105.493 179.797"
       id="path118" />
    <path
       style="stroke:#000000; stroke-width:1.90977; fill:none"
       d="M 227.716 179.797L 113.13 168.34"
       id="path120" />
    <path
       style="stroke:#000000; stroke-width:1.90977; fill:none"
       d="M 195.727 136.828C 195.727 136.828 195.727 136.828 196.364 137.465C 196.997 138.098 198.27 139.371 199.626 139.215C 200.977 139.059 202.407 137.465 202.887 135.398C 203.364 133.332 202.887 130.785 201.696 129.113C 200.505 127.445 198.594 126.648 197.481 127.125C 196.368 127.602 196.052 129.352 195.891 130.227C 195.735 131.102 195.735 131.102 195.735 131.102"
       id="path122" />
    <path
       style="stroke:#000000; stroke-width:1.90977; fill:none"
       d="M 202.216 116.75L 195.727 131.098L 194.704 115.383"
       id="path124" />
    <path
       style="stroke:#000000; stroke-width:1.90977; fill:none"
       d="M 195.727 158.789C 195.727 158.789 195.727 158.789 196.364 159.426C 196.997 160.059 198.27 161.332 199.626 161.176C 200.977 161.02 202.407 159.426 202.887 157.359C 203.364 155.293 202.887 152.746 201.696 151.074C 200.505 149.406 198.594 148.609 197.481 149.086C 196.368 149.562 196.052 151.312 195.891 152.188C 195.735 153.062 195.735 153.062 195.735 153.062"
       id="path126" />
    <path
       style="stroke:#000000; stroke-width:1.90977; fill:none"
       d="M 202.216 138.711L 195.727 153.059L 194.704 137.344"
       id="path128" />
    <path
       style="stroke:#000000; stroke-width:1.90977; fill:none"
       d="M 195.727 181.707C 195.727 181.707 195.727 181.707 196.364 182.344C 196.997 182.977 198.27 184.25 199.626 184.094C 200.977 183.938 202.407 182.344 202.887 180.277C 203.364 178.211 202.887 175.664 201.696 173.992C 200.505 172.324 198.594 171.527 197.481 172.004C 196.368 172.48 196.052 174.23 195.891 175.105C 195.735 175.98 195.735 175.98 195.735 175.98"
       id="path130" />
    <path
       style="stroke:#000000; stroke-width:1.90977; fill:none"
       d="M 202.216 161.629L 195.727 175.977L 194.704 160.262"
       id="path132" />
    <path
       style="stroke:#000000; stroke-width:1.90977; fill:none"
       d="M 230.102 182.66C 230.102 182.66 230.102 182.66 230.739 183.297C 231.372 183.93 232.645 185.203 234.001 185.047C 235.352 184.891 236.782 183.297 237.262 181.23C 237.739 179.164 237.262 176.617 236.071 174.945C 234.88 173.277 232.969 172.48 231.856 172.957C 230.743 173.434 230.426 175.184 230.266 176.059C 230.11 176.934 230.11 176.934 230.11 176.934"
       id="path134" />
    <path
       style="stroke:#000000; stroke-width:1.90977; fill:none"
       d="M 236.594 162.582L 230.106 176.93L 229.083 161.215"
       id="path136" />
    <path
       style="stroke:none; fill-rule:evenodd; fill:#9f9f9f"
       d="M 162.305 83.355C 162.305 81.25 160.598 79.539 158.489 79.539C 156.384 79.539 154.673 81.246 154.673 83.355C 154.673 85.461 156.38 87.172 158.489 87.172C 160.594 87.172 162.305 85.465 162.305 83.355"
       id="path138" />
    <path
       style="stroke:#000000; stroke-width:1.90977; fill:none"
       d="M 162.305 83.355C 162.305 81.25 160.598 79.539 158.489 79.539C 156.384 79.539 154.673 81.246 154.673 83.355C 154.673 85.461 156.38 87.172 158.489 87.172C 160.594 87.172 162.305 85.465 162.305 83.355"
       id="path140" />
    <path
       style="stroke:none; fill-rule:evenodd; fill:#9f9f9f"
       d="M 231.536 133.965C 231.536 131.859 229.829 130.148 227.719 130.148C 225.614 130.148 223.903 131.855 223.903 133.965C 223.903 136.07 225.61 137.781 227.719 137.781C 229.825 137.781 231.536 136.074 231.536 133.965"
       id="path142" />
    <path
       style="stroke:#000000; stroke-width:1.90977; fill:none"
       d="M 231.536 133.965C 231.536 131.859 229.829 130.148 227.719 130.148C 225.614 130.148 223.903 131.855 223.903 133.965C 223.903 136.07 225.61 137.781 227.719 137.781C 229.825 137.781 231.536 136.074 231.536 133.965"
       id="path144" />
    <path
       style="stroke:none; fill-rule:evenodd; fill:#9f9f9f"
       d="M 231.536 156.879C 231.536 154.773 229.829 153.062 227.719 153.062C 225.614 153.062 223.903 154.77 223.903 156.879C 223.903 158.984 225.61 160.695 227.719 160.695C 229.825 160.695 231.536 158.988 231.536 156.879"
       id="path146" />
    <path
       style="stroke:#000000; stroke-width:1.90977; fill:none"
       d="M 231.536 156.879C 231.536 154.773 229.829 153.062 227.719 153.062C 225.614 153.062 223.903 154.77 223.903 156.879C 223.903 158.984 225.61 160.695 227.719 160.695C 229.825 160.695 231.536 158.988 231.536 156.879"
       id="path148" />
    <path
       style="stroke:none; fill-rule:evenodd; fill:#9f9f9f"
       d="M 231.536 179.797C 231.536 177.691 229.829 175.98 227.719 175.98C 225.614 175.98 223.903 177.688 223.903 179.797C 223.903 181.902 225.61 183.613 227.719 183.613C 229.825 183.613 231.536 181.906 231.536 179.797"
       id="path150" />
    <path
       style="stroke:#000000; stroke-width:1.90977; fill:none"
       d="M 231.536 179.797C 231.536 177.691 229.829 175.98 227.719 175.98C 225.614 175.98 223.903 177.688 223.903 179.797C 223.903 181.902 225.61 183.613 227.719 183.613C 229.825 183.613 231.536 181.906 231.536 179.797"
       id="path152" />
    <path
       style="stroke:none; fill-rule:evenodd; fill:#9f9f9f"
       d="M 262.091 133.965C 262.091 131.859 260.384 130.148 258.274 130.148C 256.169 130.148 254.458 131.855 254.458 133.965C 254.458 136.07 256.165 137.781 258.274 137.781C 260.38 137.781 262.091 136.074 262.091 133.965"
       id="path154" />
    <path
       style="stroke:#000000; stroke-width:1.90977; fill:none"
       d="M 262.091 133.965C 262.091 131.859 260.384 130.148 258.274 130.148C 256.169 130.148 254.458 131.855 254.458 133.965C 254.458 136.07 256.165 137.781 258.274 137.781C 260.38 137.781 262.091 136.074 262.091 133.965"
       id="path156" />
    <path
       style="stroke:none; fill-rule:evenodd; fill:#9f9f9f"
       d="M 262.091 156.879C 262.091 154.773 260.384 153.062 258.274 153.062C 256.169 153.062 254.458 154.77 254.458 156.879C 254.458 158.984 256.165 160.695 258.274 160.695C 260.38 160.695 262.091 158.988 262.091 156.879"
       id="path158" />
    <path
       style="stroke:#000000; stroke-width:1.90977; fill:none"
       d="M 262.091 156.879C 262.091 154.773 260.384 153.062 258.274 153.062C 256.169 153.062 254.458 154.77 254.458 156.879C 254.458 158.984 256.165 160.695 258.274 160.695C 260.38 160.695 262.091 158.988 262.091 156.879"
       id="path160" />
    <path
       style="stroke:none; fill-rule:evenodd; fill:#9f9f9f"
       d="M 262.091 179.797C 262.091 177.691 260.384 175.98 258.274 175.98C 256.169 175.98 254.458 177.688 254.458 179.797C 254.458 181.902 256.165 183.613 258.274 183.613C 260.38 183.613 262.091 181.906 262.091 179.797"
       id="path162" />
    <path
       style="stroke:#000000; stroke-width:1.90977; fill:none"
       d="M 262.091 179.797C 262.091 177.691 260.384 175.98 258.274 175.98C 256.169 175.98 254.458 177.688 254.458 179.797C 254.458 181.902 256.165 183.613 258.274 183.613C 260.38 183.613 262.091 181.906 262.091 179.797"
       id="path164" />
    <path
       style="stroke:none; fill-rule:evenodd; fill:#9f9f9f"
       d="M 246.813 133.965C 246.813 131.859 245.106 130.148 242.997 130.148C 240.891 130.148 239.18 131.855 239.18 133.965C 239.18 136.07 240.887 137.781 242.997 137.781C 245.102 137.781 246.813 136.074 246.813 133.965"
       id="path166" />
    <path
       style="stroke:#000000; stroke-width:1.90977; fill:none"
       d="M 246.813 133.965C 246.813 131.859 245.106 130.148 242.997 130.148C 240.891 130.148 239.18 131.855 239.18 133.965C 239.18 136.07 240.887 137.781 242.997 137.781C 245.102 137.781 246.813 136.074 246.813 133.965"
       id="path168" />
    <path
       style="stroke:none; fill-rule:evenodd; fill:#9f9f9f"
       d="M 246.813 156.879C 246.813 154.773 245.106 153.062 242.997 153.062C 240.891 153.062 239.18 154.77 239.18 156.879C 239.18 158.984 240.887 160.695 242.997 160.695C 245.102 160.695 246.813 158.988 246.813 156.879"
       id="path170" />
    <path
       style="stroke:#000000; stroke-width:1.90977; fill:none"
       d="M 246.813 156.879C 246.813 154.773 245.106 153.062 242.997 153.062C 240.891 153.062 239.18 154.77 239.18 156.879C 239.18 158.984 240.887 160.695 242.997 160.695C 245.102 160.695 246.813 158.988 246.813 156.879"
       id="path172" />
    <path
       style="stroke:none; fill-rule:evenodd; fill:#9f9f9f"
       d="M 246.813 179.797C 246.813 177.691 245.106 175.98 242.997 175.98C 240.891 175.98 239.18 177.688 239.18 179.797C 239.18 181.902 240.887 183.613 242.997 183.613C 245.102 183.613 246.813 181.906 246.813 179.797"
       id="path174" />
    <path
       style="stroke:#000000; stroke-width:1.90977; fill:none"
       d="M 246.813 179.797C 246.813 177.691 245.106 175.98 242.997 175.98C 240.891 175.98 239.18 177.688 239.18 179.797C 239.18 181.902 240.887 183.613 242.997 183.613C 245.102 183.613 246.813 181.906 246.813 179.797"
       id="path176" />
    <path
       style="stroke:none; fill-rule:evenodd; fill:#9f9f9f"
       d="M 216.259 133.965C 216.259 131.859 214.552 130.148 212.442 130.148C 210.337 130.148 208.626 131.855 208.626 133.965C 208.626 136.07 210.333 137.781 212.442 137.781C 214.548 137.781 216.259 136.074 216.259 133.965"
       id="path178" />
    <path
       style="stroke:#000000; stroke-width:1.90977; fill:none"
       d="M 216.259 133.965C 216.259 131.859 214.552 130.148 212.442 130.148C 210.337 130.148 208.626 131.855 208.626 133.965C 208.626 136.07 210.333 137.781 212.442 137.781C 214.548 137.781 216.259 136.074 216.259 133.965"
       id="path180" />
    <path
       style="stroke:none; fill-rule:evenodd; fill:#9f9f9f"
       d="M 216.259 156.879C 216.259 154.773 214.552 153.062 212.442 153.062C 210.337 153.062 208.626 154.77 208.626 156.879C 208.626 158.984 210.333 160.695 212.442 160.695C 214.548 160.695 216.259 158.988 216.259 156.879"
       id="path182" />
    <path
       style="stroke:#000000; stroke-width:1.90977; fill:none"
       d="M 216.259 156.879C 216.259 154.773 214.552 153.062 212.442 153.062C 210.337 153.062 208.626 154.77 208.626 156.879C 208.626 158.984 210.333 160.695 212.442 160.695C 214.548 160.695 216.259 158.988 216.259 156.879"
       id="path184" />
    <path
       style="stroke:none; fill-rule:evenodd; fill:#9f9f9f"
       d="M 216.259 179.797C 216.259 177.691 214.552 175.98 212.442 175.98C 210.337 175.98 208.626 177.688 208.626 179.797C 208.626 181.902 210.333 183.613 212.442 183.613C 214.548 183.613 216.259 181.906 216.259 179.797"
       id="path186" />
    <path
       style="stroke:#000000; stroke-width:1.90977; fill:none"
       d="M 216.259 179.797C 216.259 177.691 214.552 175.98 212.442 175.98C 210.337 175.98 208.626 177.688 208.626 179.797C 208.626 181.902 210.333 183.613 212.442 183.613C 214.548 183.613 216.259 181.906 216.259 179.797"
       id="path188" />
    <path
       style="stroke:none; fill-rule:evenodd; fill:#0000ff"
       d="M 142.063 6.996L 142.063 12.695L 143.661 12.695L 143.661 0.194992L 142.063 0.194992L 142.063 5.69499L 135.567 5.69499L 135.567 0.194992L 133.969 0.194992L 133.969 12.695L 135.567 12.695L 135.567 6.996L 142.063 6.996z"
       id="path190" />
    <path
       style="stroke:none; fill-rule:evenodd; fill:#0000ff"
       d="M 156.341 4.05099C 155.841 1.328 154.255 0 151.501 0C 149.813 0 148.454 0.531006 147.524 1.563C 146.387 2.793 145.77 4.578 145.77 6.59799C 145.77 8.65199 146.407 10.418 147.594 11.637C 148.555 12.629 149.798 13.09 151.434 13.09C 154.497 13.09 156.219 11.441 156.602 8.121L 154.95 8.121C 154.813 9.008 154.641 9.60899 154.384 10.125C 153.868 11.188 152.802 11.789 151.458 11.789C 148.962 11.789 147.376 9.76199 147.376 6.578C 147.376 3.30901 148.891 1.297 151.317 1.297C 152.333 1.297 153.278 1.61301 153.798 2.105C 154.262 2.543 154.52 3.09399 154.708 4.047L 156.341 4.05099z"
       id="path192" />
    <path
       style="stroke:#000000; stroke-width:1.90977; fill:none"
       d="M 143.946 87.781L 193.688 133.699"
       id="path194" />
    <path
       style="stroke:#000000; stroke-width:1.90977; fill:none"
       d="M 143.946 87.781L 193.688 156.66"
       id="path196" />
    <path
       style="stroke:#000000; stroke-width:1.90977; fill:none"
       d="M 143.946 91.609L 193.688 179.621"
       id="path198" />
    <path
       style="stroke:#000000; stroke-width:1.90977; fill:none"
       d="M 143.684 88.129L 105.493 179.797"
       id="path200" />
    <path
       style="stroke:#000000; stroke-width:1.90977; fill:none"
       d="M 74.9346 141.602L 143.684 88.129"
       id="path202" />
    <path
       style="stroke:none; fill-rule:evenodd; fill:#9f9f9f"
       d="M 113.13 65.211C 113.13 63.105 111.423 61.395 109.313 61.395C 107.208 61.395 105.497 63.102 105.497 65.211C 105.497 67.316 107.204 69.027 109.313 69.027C 111.419 69.027 113.13 67.32 113.13 65.211"
       id="path204" />
    <path
       style="stroke:#000000; stroke-width:1.90977; fill:none"
       d="M 113.13 65.211C 113.13 63.105 111.423 61.395 109.313 61.395C 107.208 61.395 105.497 63.102 105.497 65.211C 105.497 67.316 107.204 69.027 109.313 69.027C 111.419 69.027 113.13 67.32 113.13 65.211"
       id="path206" />
    <path
       style="stroke:none; fill-rule:evenodd; fill:#9f9f9f"
       d="M 153.235 85.262C 153.235 83.156 151.528 81.445 149.419 81.445C 147.313 81.445 145.602 83.152 145.602 85.262C 145.602 87.367 147.309 89.078 149.419 89.078C 151.524 89.078 153.235 87.371 153.235 85.262"
       id="path208" />
    <path
       style="stroke:#000000; stroke-width:1.90977; fill:none"
       d="M 153.235 85.262C 153.235 83.156 151.528 81.445 149.419 81.445C 147.313 81.445 145.602 83.152 145.602 85.262C 145.602 87.367 147.309 89.078 149.419 89.078C 151.524 89.078 153.235 87.371 153.235 85.262"
       id="path210" />
    <path
       style="stroke:none; fill-rule:evenodd; fill:#9f9f9f"
       d="M 140.821 85.262C 140.821 83.156 139.114 81.445 137.005 81.445C 134.899 81.445 133.188 83.152 133.188 85.262C 133.188 87.367 134.895 89.078 137.005 89.078C 139.11 89.078 140.821 87.371 140.821 85.262"
       id="path212" />
    <path
       style="stroke:#000000; stroke-width:1.90977; fill:none"
       d="M 140.821 85.262C 140.821 83.156 139.114 81.445 137.005 81.445C 134.899 81.445 133.188 83.152 133.188 85.262C 133.188 87.367 134.895 89.078 137.005 89.078C 139.11 89.078 140.821 87.371 140.821 85.262"
       id="path214" />
    <path
       style="stroke:none; fill-rule:evenodd; fill:#9f9f9f"
       d="M 113.13 42.293C 113.13 40.188 111.423 38.477 109.313 38.477C 107.208 38.477 105.497 40.184 105.497 42.293C 105.497 44.398 107.204 46.109 109.313 46.109C 111.419 46.109 113.13 44.402 113.13 42.293"
       id="path216" />
    <path
       style="stroke:#000000; stroke-width:1.90977; fill:none"
       d="M 113.13 42.293C 113.13 40.188 111.423 38.477 109.313 38.477C 107.208 38.477 105.497 40.184 105.497 42.293C 105.497 44.398 107.204 46.109 109.313 46.109C 111.419 46.109 113.13 44.402 113.13 42.293"
       id="path218" />
    <path
       style="stroke:none; fill-rule:evenodd; fill:#9f9f9f"
       d="M 147.505 42.293C 147.505 40.188 145.798 38.477 143.688 38.477C 141.583 38.477 139.872 40.184 139.872 42.293C 139.872 44.398 141.579 46.109 143.688 46.109C 145.794 46.109 147.505 44.402 147.505 42.293"
       id="path220" />
    <path
       style="stroke:#000000; stroke-width:1.90977; fill:none"
       d="M 147.505 42.293C 147.505 40.188 145.798 38.477 143.688 38.477C 141.583 38.477 139.872 40.184 139.872 42.293C 139.872 44.398 141.579 46.109 143.688 46.109C 145.794 46.109 147.505 44.402 147.505 42.293"
       id="path222" />
    <path
       style="stroke:none; fill-rule:evenodd; fill:#9f9f9f"
       d="M 181.88 42.293C 181.88 40.188 180.173 38.477 178.063 38.477C 175.958 38.477 174.247 40.184 174.247 42.293C 174.247 44.398 175.954 46.109 178.063 46.109C 180.169 46.109 181.88 44.402 181.88 42.293"
       id="path224" />
    <path
       style="stroke:#000000; stroke-width:1.90977; fill:none"
       d="M 181.88 42.293C 181.88 40.188 180.173 38.477 178.063 38.477C 175.958 38.477 174.247 40.184 174.247 42.293C 174.247 44.398 175.954 46.109 178.063 46.109C 180.169 46.109 181.88 44.402 181.88 42.293"
       id="path226" />
    <path
       style="stroke:none; fill-rule:evenodd; fill:#9f9f9f"
       d="M 147.505 65.211C 147.505 63.105 145.798 61.395 143.688 61.395C 141.583 61.395 139.872 63.102 139.872 65.211C 139.872 67.316 141.579 69.027 143.688 69.027C 145.794 69.027 147.505 67.32 147.505 65.211"
       id="path228" />
    <path
       style="stroke:#000000; stroke-width:1.90977; fill:none"
       d="M 147.505 65.211C 147.505 63.105 145.798 61.395 143.688 61.395C 141.583 61.395 139.872 63.102 139.872 65.211C 139.872 67.316 141.579 69.027 143.688 69.027C 145.794 69.027 147.505 67.32 147.505 65.211"
       id="path230" />
    <path
       style="stroke:none; fill-rule:evenodd; fill:#9f9f9f"
       d="M 181.88 65.211C 181.88 63.105 180.173 61.395 178.063 61.395C 175.958 61.395 174.247 63.102 174.247 65.211C 174.247 67.316 175.954 69.027 178.063 69.027C 180.169 69.027 181.88 67.32 181.88 65.211"
       id="path232" />
    <path
       style="stroke:#000000; stroke-width:1.90977; fill:none"
       d="M 181.88 65.211C 181.88 63.105 180.173 61.395 178.063 61.395C 175.958 61.395 174.247 63.102 174.247 65.211C 174.247 67.316 175.954 69.027 178.063 69.027C 180.169 69.027 181.88 67.32 181.88 65.211"
       id="path234" />
    <path
       style="stroke:none; fill-rule:evenodd; fill:#9f9f9f"
       d="M 113.13 88.129C 113.13 86.023 111.423 84.313 109.313 84.313C 107.208 84.313 105.497 86.02 105.497 88.129C 105.497 90.234 107.204 91.945 109.313 91.945C 111.419 91.945 113.13 90.238 113.13 88.129"
       id="path236" />
    <path
       style="stroke:#000000; stroke-width:1.90977; fill:none"
       d="M 113.13 88.129C 113.13 86.023 111.423 84.313 109.313 84.313C 107.208 84.313 105.497 86.02 105.497 88.129C 105.497 90.234 107.204 91.945 109.313 91.945C 111.419 91.945 113.13 90.238 113.13 88.129"
       id="path238" />
    <path
       style="stroke:none; fill-rule:evenodd; fill:#9f9f9f"
       d="M 181.88 88.129C 181.88 86.023 180.173 84.313 178.063 84.313C 175.958 84.313 174.247 86.02 174.247 88.129C 174.247 90.234 175.954 91.945 178.063 91.945C 180.169 91.945 181.88 90.238 181.88 88.129"
       id="path240" />
    <path
       style="stroke:#000000; stroke-width:1.90977; fill:none"
       d="M 181.88 88.129C 181.88 86.023 180.173 84.313 178.063 84.313C 175.958 84.313 174.247 86.02 174.247 88.129C 174.247 90.234 175.954 91.945 178.063 91.945C 180.169 91.945 181.88 90.238 181.88 88.129"
       id="path242" />
    <path
       style="stroke:none; fill-rule:evenodd; fill:#9f9f9f"
       d="M 169.946 69.984C 169.946 67.879 168.239 66.168 166.13 66.168C 164.024 66.168 162.313 67.875 162.313 69.984C 162.313 72.09 164.02 73.801 166.13 73.801C 168.235 73.801 169.946 72.094 169.946 69.984"
       id="path244" />
    <path
       style="stroke:#000000; stroke-width:1.90977; fill:none"
       d="M 169.946 69.984C 169.946 67.879 168.239 66.168 166.13 66.168C 164.024 66.168 162.313 67.875 162.313 69.984C 162.313 72.09 164.02 73.801 166.13 73.801C 168.235 73.801 169.946 72.094 169.946 69.984"
       id="path246" />
    <path
       style="stroke:none; fill-rule:evenodd; fill:#9f9f9f"
       d="M 163.262 50.887C 163.262 48.781 161.555 47.07 159.446 47.07C 157.341 47.07 155.63 48.777 155.63 50.887C 155.63 52.992 157.337 54.703 159.446 54.703C 161.552 54.703 163.262 52.996 163.262 50.887"
       id="path248" />
    <path
       style="stroke:#000000; stroke-width:1.90977; fill:none"
       d="M 163.262 50.887C 163.262 48.781 161.555 47.07 159.446 47.07C 157.341 47.07 155.63 48.777 155.63 50.887C 155.63 52.992 157.337 54.703 159.446 54.703C 161.552 54.703 163.262 52.996 163.262 50.887"
       id="path250" />
    <path
       style="stroke:none; fill-rule:evenodd; fill:#9f9f9f"
       d="M 149.891 48.5C 149.891 46.395 148.184 44.684 146.075 44.684C 143.969 44.684 142.259 46.391 142.259 48.5C 142.259 50.605 143.966 52.316 146.075 52.316C 148.18 52.316 149.891 50.609 149.891 48.5"
       id="path252" />
    <path
       style="stroke:#000000; stroke-width:1.90977; fill:none"
       d="M 149.891 48.5C 149.891 46.395 148.184 44.684 146.075 44.684C 143.969 44.684 142.259 46.391 142.259 48.5C 142.259 50.605 143.966 52.316 146.075 52.316C 148.18 52.316 149.891 50.609 149.891 48.5"
       id="path254" />
    <path
       style="stroke:none; fill-rule:evenodd; fill:#9f9f9f"
       d="M 108.833 47.066C 108.833 44.961 107.126 43.25 105.016 43.25C 102.911 43.25 101.2 44.957 101.2 47.066C 101.2 49.172 102.907 50.883 105.016 50.883C 107.122 50.883 108.833 49.176 108.833 47.066"
       id="path256" />
    <path
       style="stroke:#000000; stroke-width:1.90977; fill:none"
       d="M 108.833 47.066C 108.833 44.961 107.126 43.25 105.016 43.25C 102.911 43.25 101.2 44.957 101.2 47.066C 101.2 49.172 102.907 50.883 105.016 50.883C 107.122 50.883 108.833 49.176 108.833 47.066"
       id="path258" />
    <path
       style="stroke:none; fill-rule:evenodd; fill:#9f9f9f"
       d="M 121.247 65.688C 121.247 63.582 119.54 61.871 117.43 61.871C 115.325 61.871 113.614 63.578 113.614 65.688C 113.614 67.793 115.321 69.504 117.43 69.504C 119.536 69.504 121.247 67.797 121.247 65.688"
       id="path260" />
    <path
       style="stroke:#000000; stroke-width:1.90977; fill:none"
       d="M 121.247 65.688C 121.247 63.582 119.54 61.871 117.43 61.871C 115.325 61.871 113.614 63.578 113.614 65.688C 113.614 67.793 115.321 69.504 117.43 69.504C 119.536 69.504 121.247 67.797 121.247 65.688"
       id="path262" />
    <path
       style="stroke:none; fill-rule:evenodd; fill:#9f9f9f"
       d="M 118.856 84.785C 118.856 82.68 117.149 80.969 115.04 80.969C 112.934 80.969 111.223 82.676 111.223 84.785C 111.223 86.891 112.93 88.602 115.04 88.602C 117.145 88.602 118.856 86.895 118.856 84.785"
       id="path264" />
    <path
       style="stroke:#000000; stroke-width:1.90977; fill:none"
       d="M 118.856 84.785C 118.856 82.68 117.149 80.969 115.04 80.969C 112.934 80.969 111.223 82.676 111.223 84.785C 111.223 86.891 112.93 88.602 115.04 88.602C 117.145 88.602 118.856 86.895 118.856 84.785"
       id="path266" />
    <path
       style="stroke:none; fill-rule:evenodd; fill:#9f9f9f"
       d="M 134.137 72.371C 134.137 70.266 132.43 68.555 130.321 68.555C 128.216 68.555 126.505 70.262 126.505 72.371C 126.505 74.477 128.212 76.188 130.321 76.188C 132.426 76.188 134.137 74.481 134.137 72.371"
       id="path268" />
    <path
       style="stroke:#000000; stroke-width:1.90977; fill:none"
       d="M 134.137 72.371C 134.137 70.266 132.43 68.555 130.321 68.555C 128.216 68.555 126.505 70.262 126.505 72.371C 126.505 74.477 128.212 76.188 130.321 76.188C 132.426 76.188 134.137 74.481 134.137 72.371"
       id="path270" />
    <path
       style="stroke:none; fill-rule:evenodd; fill:#9f9f9f"
       d="M 131.27 38.953C 131.27 36.848 129.563 35.137 127.454 35.137C 125.348 35.137 123.637 36.844 123.637 38.953C 123.637 41.059 125.344 42.77 127.454 42.77C 129.559 42.77 131.27 41.063 131.27 38.953"
       id="path272" />
    <path
       style="stroke:#000000; stroke-width:1.90977; fill:none"
       d="M 131.27 38.953C 131.27 36.848 129.563 35.137 127.454 35.137C 125.348 35.137 123.637 36.844 123.637 38.953C 123.637 41.059 125.344 42.77 127.454 42.77C 129.559 42.77 131.27 41.063 131.27 38.953"
       id="path274" />
    <path
       style="stroke:none; fill-rule:evenodd; fill:#9f9f9f"
       d="M 137.001 54.707C 137.001 52.602 135.294 50.891 133.184 50.891C 131.079 50.891 129.368 52.598 129.368 54.707C 129.368 56.813 131.075 58.523 133.184 58.523C 135.29 58.523 137.001 56.816 137.001 54.707"
       id="path276" />
    <path
       style="stroke:#000000; stroke-width:1.90977; fill:none"
       d="M 137.001 54.707C 137.001 52.602 135.294 50.891 133.184 50.891C 131.079 50.891 129.368 52.598 129.368 54.707C 129.368 56.813 131.075 58.523 133.184 58.523C 135.29 58.523 137.001 56.816 137.001 54.707"
       id="path278" />
    <path
       style="stroke:none; fill-rule:evenodd; fill:#9f9f9f"
       d="M 160.395 35.133C 160.395 33.027 158.688 31.316 156.579 31.316C 154.473 31.316 152.762 33.023 152.762 35.133C 152.762 37.238 154.469 38.949 156.579 38.949C 158.684 38.949 160.395 37.242 160.395 35.133"
       id="path280" />
    <path
       style="stroke:#000000; stroke-width:1.90977; fill:none"
       d="M 160.395 35.133C 160.395 33.027 158.688 31.316 156.579 31.316C 154.473 31.316 152.762 33.023 152.762 35.133C 152.762 37.238 154.469 38.949 156.579 38.949C 158.684 38.949 160.395 37.242 160.395 35.133"
       id="path282" />
    <path
       style="stroke:none; fill-rule:evenodd; fill:#9f9f9f"
       d="M 158.485 71.895C 158.485 69.789 156.778 68.078 154.669 68.078C 152.563 68.078 150.852 69.785 150.852 71.895C 150.852 74 152.559 75.711 154.669 75.711C 156.774 75.711 158.485 74.004 158.485 71.895"
       id="path284" />
    <path
       style="stroke:#000000; stroke-width:1.90977; fill:none"
       d="M 158.485 71.895C 158.485 69.789 156.778 68.078 154.669 68.078C 152.563 68.078 150.852 69.785 150.852 71.895C 150.852 74 152.559 75.711 154.669 75.711C 156.774 75.711 158.485 74.004 158.485 71.895"
       id="path286" />
    <path
       style="stroke:none; fill-rule:evenodd; fill:#9f9f9f"
       d="M 174.243 88.605C 174.243 86.5 172.536 84.789 170.426 84.789C 168.321 84.789 166.61 86.496 166.61 88.605C 166.61 90.711 168.317 92.422 170.426 92.422C 172.532 92.422 174.243 90.715 174.243 88.605"
       id="path288" />
    <path
       style="stroke:#000000; stroke-width:1.90977; fill:none"
       d="M 174.243 88.605C 174.243 86.5 172.536 84.789 170.426 84.789C 168.321 84.789 166.61 86.496 166.61 88.605C 166.61 90.711 168.317 92.422 170.426 92.422C 172.532 92.422 174.243 90.715 174.243 88.605"
       id="path290" />
    <path
       style="stroke:none; fill-rule:evenodd; fill:#9f9f9f"
       d="M 123.157 54.707C 123.157 52.602 121.45 50.891 119.341 50.891C 117.235 50.891 115.524 52.598 115.524 54.707C 115.524 56.813 117.231 58.523 119.341 58.523C 121.446 58.523 123.157 56.816 123.157 54.707"
       id="path292" />
    <path
       style="stroke:#000000; stroke-width:1.90977; fill:none"
       d="M 123.157 54.707C 123.157 52.602 121.45 50.891 119.341 50.891C 117.235 50.891 115.524 52.598 115.524 54.707C 115.524 56.813 117.231 58.523 119.341 58.523C 121.446 58.523 123.157 56.816 123.157 54.707"
       id="path294" />
    <path
       style="stroke:none; fill-rule:evenodd; fill:#9f9f9f"
       d="M 183.313 54.707C 183.313 52.602 181.606 50.891 179.497 50.891C 177.391 50.891 175.68 52.598 175.68 54.707C 175.68 56.813 177.387 58.523 179.497 58.523C 181.602 58.523 183.313 56.816 183.313 54.707"
       id="path296" />
    <path
       style="stroke:#000000; stroke-width:1.90977; fill:none"
       d="M 183.313 54.707C 183.313 52.602 181.606 50.891 179.497 50.891C 177.391 50.891 175.68 52.598 175.68 54.707C 175.68 56.813 177.387 58.523 179.497 58.523C 181.602 58.523 183.313 56.816 183.313 54.707"
       id="path298" />
    <path
       style="stroke:none; fill-rule:evenodd; fill:#9f9f9f"
       d="M 177.106 57.57C 177.106 55.465 175.399 53.754 173.29 53.754C 171.184 53.754 169.473 55.461 169.473 57.57C 169.473 59.676 171.18 61.387 173.29 61.387C 175.395 61.387 177.106 59.68 177.106 57.57"
       id="path300" />
    <path
       style="stroke:#000000; stroke-width:1.90977; fill:none"
       d="M 177.106 57.57C 177.106 55.465 175.399 53.754 173.29 53.754C 171.184 53.754 169.473 55.461 169.473 57.57C 169.473 59.676 171.18 61.387 173.29 61.387C 175.395 61.387 177.106 59.68 177.106 57.57"
       id="path302" />
    <path
       style="stroke:none; fill-rule:evenodd; fill:#9f9f9f"
       d="M 162.305 57.57C 162.305 55.465 160.598 53.754 158.489 53.754C 156.384 53.754 154.673 55.461 154.673 57.57C 154.673 59.676 156.38 61.387 158.489 61.387C 160.594 61.387 162.305 59.68 162.305 57.57"
       id="path304" />
    <path
       style="stroke:#000000; stroke-width:1.90977; fill:none"
       d="M 162.305 57.57C 162.305 55.465 160.598 53.754 158.489 53.754C 156.384 53.754 154.673 55.461 154.673 57.57C 154.673 59.676 156.38 61.387 158.489 61.387C 160.594 61.387 162.305 59.68 162.305 57.57"
       id="path306" />
    <path
       style="stroke:none; fill-rule:evenodd; fill:#9f9f9f"
       d="M 147.505 71.418C 147.505 69.313 145.798 67.602 143.688 67.602C 141.583 67.602 139.872 69.309 139.872 71.418C 139.872 73.523 141.579 75.234 143.688 75.234C 145.794 75.234 147.505 73.527 147.505 71.418"
       id="path308" />
    <path
       style="stroke:#000000; stroke-width:1.90977; fill:none"
       d="M 147.505 71.418C 147.505 69.313 145.798 67.602 143.688 67.602C 141.583 67.602 139.872 69.309 139.872 71.418C 139.872 73.523 141.579 75.234 143.688 75.234C 145.794 75.234 147.505 73.527 147.505 71.418"
       id="path310" />
    <path
       style="stroke:none; fill-rule:evenodd; fill:#ffff00"
       d="M 147.505 88.129C 147.505 86.023 145.798 84.313 143.688 84.313C 141.583 84.313 139.872 86.02 139.872 88.129C 139.872 90.234 141.579 91.945 143.688 91.945C 145.794 91.945 147.505 90.238 147.505 88.129"
       id="path312" />
    <path
       style="stroke:#000000; stroke-width:1.90977; fill:none"
       d="M 147.505 88.129C 147.505 86.023 145.798 84.313 143.688 84.313C 141.583 84.313 139.872 86.02 139.872 88.129C 139.872 90.234 141.579 91.945 143.688 91.945C 145.794 91.945 147.505 90.238 147.505 88.129"
       id="path314" />
  </g>
</svg>
