<?xml version="1.0" encoding="ISO-8859-1" standalone="yes"?>
<svg width="232.012" height="210.793">
  <defs> 
    <marker id="ArrowEnd" viewBox="0 0 10 10" refX="0" refY="5" 
     markerUnits="strokeWidth" 
     markerWidth="4" 
     markerHeight="3" 
     orient="auto"> 
        <path d="M 0 0 L 10 5 L 0 10 z" /> 
    </marker>
    <marker id="ArrowStart" viewBox="0 0 10 10" refX="10" refY="5" 
     markerUnits="strokeWidth" 
     markerWidth="4" 
     markerHeight="3" 
     orient="auto"> 
        <path d="M 10 0 L 0 5 L 10 10 z" /> 
    </marker> </defs>
<g>
<path style="stroke:none; fill-rule:evenodd; fill:#ffffff" d="M 0.524086 205.723L 225.333 205.723L 225.333 0.524078L 0.524086 0.524078L 0.524086 205.723z"/>
<path style="stroke:#ffffff; stroke-width:0.10000000000000001; fill:none" d="M 0.524086 205.723L 225.333 205.723L 225.333 0.524078L 0.524086 0.524078L 0.524086 205.723z"/>
<path style="stroke:#0000ff; stroke-width:0.95664899999999997; fill:none" d="M 36.3991 23.4341L 72.7511 23.4341"/>
<path style="stroke:#0000ff; stroke-width:0.95664899999999997; fill:none" d="M 65.0981 21.5201L 72.7511 23.4301L 65.0981 25.3401"/>
<path style="stroke:#ff0000; stroke-dasharray:6,3; stroke-width:1.9133; fill:none" d="M 61.2701 80.8321L 89.0121 66.7231"/>
<path style="stroke:#ff0000; stroke-dasharray:6,3; stroke-width:1.9133; fill:none" d="M 81.3251 68.4851L 89.0121 66.7231L 83.0591 71.8951"/>
<path style="stroke:#ff0000; stroke-dasharray:6,3; stroke-width:1.9133; fill:none" d="M 72.7511 80.8321L 94.7511 66.4851"/>
<path style="stroke:#ff0000; stroke-dasharray:6,3; stroke-width:1.9133; fill:none" d="M 87.2971 69.0591L 94.7511 66.4851L 89.3871 72.2661"/>
<path style="stroke:#ff0000; stroke-dasharray:6,3; stroke-width:1.9133; fill:none" d="M 82.3211 80.8321L 100.255 66.4851"/>
<path style="stroke:#ff0000; stroke-dasharray:6,3; stroke-width:1.9133; fill:none" d="M 93.0871 69.7701L 100.255 66.4851L 95.4771 72.7581"/>
<path style="stroke:#ff0000; stroke-dasharray:6,3; stroke-width:1.9133; fill:none" d="M 88.0591 62.4181L 88.0591 50.2231"/>
<path style="stroke:#ff0000; stroke-dasharray:6,3; stroke-width:1.9133; fill:none" d="M 86.1451 57.8721L 88.0551 50.2191L 89.9651 57.8721"/>
<path style="stroke:#ff0000; stroke-dasharray:6,3; stroke-width:1.9133; fill:none" d="M 99.5401 62.6571L 99.5401 50.2231"/>
<path style="stroke:#ff0000; stroke-dasharray:6,3; stroke-width:1.9133; fill:none" d="M 97.6261 57.8721L 99.5361 50.2191L 101.446 57.8721"/>
<path style="stroke:#ff0000; stroke-dasharray:6,3; stroke-width:1.9133; fill:none" d="M 93.7971 62.4181L 93.7971 50.2231"/>
<path style="stroke:#ff0000; stroke-dasharray:6,3; stroke-width:1.9133; fill:none" d="M 91.8831 57.8721L 93.7941 50.2191L 95.7041 57.8721"/>
<path style="stroke:#0000ff; stroke-width:0.95664899999999997; fill:none" d="M 99.7781 47.1101L 101.45 33.0001"/>
<path style="stroke:#0000ff; stroke-width:0.95664899999999997; fill:none" d="M 102.579 39.7351L 99.7781 47.1061L 98.7821 39.2821"/>
<path style="stroke:#0000ff; stroke-width:0.95664899999999997; fill:none" d="M 98.6491 40.3751L 101.45 33.0041L 102.446 40.8291"/>
<path style="stroke:#0000ff; stroke-width:0.95664899999999997; fill:none" d="M 94.2781 47.1101L 89.9731 33.0001"/>
<path style="stroke:#0000ff; stroke-width:0.95664899999999997; fill:none" d="M 93.8721 39.2311L 94.2741 47.1061L 90.2121 40.3441"/>
<path style="stroke:#0000ff; stroke-width:0.95664899999999997; fill:none" d="M 90.3761 40.8791L 89.9731 33.0041L 94.0361 39.7661"/>
<path style="stroke:#0000ff; stroke-width:0.95664899999999997; fill:none" d="M 88.7781 47.5901L 78.4971 33.0041"/>
<path style="stroke:#0000ff; stroke-width:0.95664899999999997; fill:none" d="M 85.9301 40.2311L 88.7741 47.5861L 82.8011 42.4341"/>
<path style="stroke:#0000ff; stroke-width:0.95664899999999997; fill:none" d="M 81.3371 40.3561L 78.4931 33.0001L 84.4651 38.1531"/>
<path style="stroke:none; fill-rule:evenodd; fill:#7e7e7e" d="M 72.7511 33.0001L 84.2271 33.0001L 84.2271 15.7821L 72.7511 15.7821L 72.7511 33.0001z"/>
<path style="stroke:#000000; stroke-width:1.9133; fill:none" d="M 72.7511 33.0001L 84.2271 33.0001L 84.2271 15.7821L 72.7511 15.7821L 72.7511 33.0001z"/>
<path style="stroke:none; fill-rule:evenodd; fill:#7e7e7e" d="M 84.2311 33.0001L 95.7081 33.0001L 95.7081 15.7821L 84.2311 15.7821L 84.2311 33.0001z"/>
<path style="stroke:#000000; stroke-width:1.9133; fill:none" d="M 84.2311 33.0001L 95.7081 33.0001L 95.7081 15.7821L 84.2311 15.7821L 84.2311 33.0001z"/>
<path style="stroke:none; fill-rule:evenodd; fill:#ffff00" d="M 95.7121 33.0001L 107.188 33.0001L 107.188 15.7821L 95.7121 15.7821L 95.7121 33.0001z"/>
<path style="stroke:#000000; stroke-width:1.9133; fill:none" d="M 95.7121 33.0001L 107.188 33.0001L 107.188 15.7821L 95.7121 15.7821L 95.7121 33.0001z"/>
<path style="stroke:none; fill-rule:evenodd; fill:#ffff00" d="M 15.3521 33.0001L 36.3951 33.0001L 36.3951 15.7821L 15.3521 15.7821L 15.3521 33.0001z"/>
<path style="stroke:#000000; stroke-width:1.9133; fill:none" d="M 15.3521 33.0001L 36.3951 33.0001L 36.3951 15.7821L 15.3521 15.7821L 15.3521 33.0001z"/>
<path style="stroke:none; fill-rule:evenodd; fill:#7e7e7e" d="M 53.6181 98.0511L 65.0941 98.0511L 65.0941 80.8321L 53.6181 80.8321L 53.6181 98.0511z"/>
<path style="stroke:#000000; stroke-width:1.9133; fill:none" d="M 53.6181 98.0511L 65.0941 98.0511L 65.0941 80.8321L 53.6181 80.8321L 53.6181 98.0511z"/>
<path style="stroke:none; fill-rule:evenodd; fill:#7e7e7e" d="M 65.0981 98.0511L 76.5751 98.0511L 76.5751 80.8321L 65.0981 80.8321L 65.0981 98.0511z"/>
<path style="stroke:#000000; stroke-width:1.9133; fill:none" d="M 65.0981 98.0511L 76.5751 98.0511L 76.5751 80.8321L 65.0981 80.8321L 65.0981 98.0511z"/>
<path style="stroke:none; fill-rule:evenodd; fill:#ffff00" d="M 76.5791 98.0511L 88.0551 98.0511L 88.0551 80.8321L 76.5791 80.8321L 76.5791 98.0511z"/>
<path style="stroke:#000000; stroke-width:1.9133; fill:none" d="M 76.5791 98.0511L 88.0551 98.0511L 88.0551 80.8321L 76.5791 80.8321L 76.5791 98.0511z"/>
<path style="stroke:none; fill-rule:evenodd; fill:#7e7e7e" d="M 85.6651 51.4141L 91.4031 51.4141L 91.4031 47.1101L 85.6651 47.1101L 85.6651 51.4141z"/>
<path style="stroke:#000000; stroke-width:1.9133; fill:none" d="M 85.6651 51.4141L 91.4031 51.4141L 91.4031 47.1101L 85.6651 47.1101L 85.6651 51.4141z"/>
<path style="stroke:none; fill-rule:evenodd; fill:#7e7e7e" d="M 91.4071 51.4141L 97.1451 51.4141L 97.1451 47.1101L 91.4071 47.1101L 91.4071 51.4141z"/>
<path style="stroke:#000000; stroke-width:1.9133; fill:none" d="M 91.4071 51.4141L 97.1451 51.4141L 97.1451 47.1101L 91.4071 47.1101L 91.4071 51.4141z"/>
<path style="stroke:none; fill-rule:evenodd; fill:#ffff00" d="M 97.1451 51.4141L 102.883 51.4141L 102.883 47.1101L 97.1451 47.1101L 97.1451 51.4141z"/>
<path style="stroke:#000000; stroke-width:1.9133; fill:none" d="M 97.1451 51.4141L 102.883 51.4141L 102.883 47.1101L 97.1451 47.1101L 97.1451 51.4141z"/>
<path style="stroke:none; fill-rule:evenodd; fill:#ffff00" d="M 85.6651 66.7231L 91.4031 66.7231L 91.4031 62.4181L 85.6651 62.4181L 85.6651 66.7231z"/>
<path style="stroke:#000000; stroke-width:1.9133; fill:none" d="M 85.6651 66.7231L 91.4031 66.7231L 91.4031 62.4181L 85.6651 62.4181L 85.6651 66.7231z"/>
<path style="stroke:none; fill-rule:evenodd; fill:#ffff00" d="M 91.4071 66.7231L 97.1451 66.7231L 97.1451 62.4181L 91.4071 62.4181L 91.4071 66.7231z"/>
<path style="stroke:#000000; stroke-width:1.9133; fill:none" d="M 91.4071 66.7231L 97.1451 66.7231L 97.1451 62.4181L 91.4071 62.4181L 91.4071 66.7231z"/>
<path style="stroke:none; fill-rule:evenodd; fill:#7e7e7e" d="M 97.1451 66.7231L 102.883 66.7231L 102.883 62.4181L 97.1451 62.4181L 97.1451 66.7231z"/>
<path style="stroke:#000000; stroke-width:1.9133; fill:none" d="M 97.1451 66.7231L 102.883 66.7231L 102.883 62.4181L 97.1451 62.4181L 97.1451 66.7231z"/>
<path style="stroke:none; fill-rule:evenodd; fill:#0000ff" d="M 51.6101 82.5041L 50.9891 82.5041C 50.0551 82.5041 49.5161 83.1451 49.5161 84.2581L 49.5161 86.4931C 49.5161 87.7351 49.2621 88.1761 48.4731 88.3401L 48.4731 89.2621C 49.2621 89.4221 49.5161 89.8751 49.5161 91.1101L 49.5161 93.3441C 49.5161 94.4541 50.0551 95.0981 50.9891 95.0981L 51.6101 95.0981L 51.6101 94.2001L 51.3991 94.2001C 50.7121 94.2001 50.5161 94.0001 50.5161 93.3091L 50.5161 90.9031C 50.5161 89.8011 50.1881 89.1491 49.4731 88.8011C 50.2511 88.4851 50.5161 87.9381 50.5161 86.7111L 50.5161 84.3051C 50.5161 83.6141 50.7121 83.4141 51.3991 83.4141L 51.6101 83.4141L 51.6101 82.5041z"/>
<path style="stroke:#0000ff; stroke-width:0.95664899999999997; fill:none" d="M 49.7941 88.4851L 45.9691 88.4851"/>
<path style="stroke:#0000ff; stroke-width:0.95664899999999997; fill:none" d="M 45.9651 88.4851L 45.9651 78.9221"/>
<path style="stroke:#0000ff; stroke-width:0.95664899999999997; fill:none" d="M 72.7511 33.0001L 45.9651 78.9181"/>
<path style="stroke:#0000ff; stroke-width:0.95664899999999997; fill:none" d="M 51.4731 73.2741L 45.9651 78.9181L 48.1691 71.3481"/>
<path style="stroke:#0000ff; stroke-width:0.95664899999999997; fill:none" d="M 26.8331 33.0001L 45.9651 78.9181"/>
<path style="stroke:#0000ff; stroke-width:0.95664899999999997; fill:none" d="M 44.7901 71.1181L 45.9651 78.9141L 41.2581 72.5861"/>
<path style="stroke:none; fill-rule:evenodd; fill:#000000" d="M 26.0161 22.0361L 26.0161 27.8011L 27.0161 27.8011L 27.0161 19.7041L 26.3481 19.7041C 25.9931 20.9461 25.7621 21.1181 24.1921 21.3131L 24.1921 22.0321L 26.0161 22.0361z"/>
<path style="stroke:none; fill-rule:evenodd; fill:#000000" d="M 101.614 22.0361L 101.614 27.8011L 102.614 27.8011L 102.614 19.7041L 101.946 19.7041C 101.59 20.9461 101.36 21.1181 99.7901 21.3131L 99.7901 22.0321L 101.614 22.0361z"/>
<path style="stroke:#0000ff; stroke-width:0.95664899999999997; fill:none" d="M 151.196 23.4341L 187.547 23.4341"/>
<path style="stroke:#0000ff; stroke-width:0.95664899999999997; fill:none" d="M 179.895 21.5201L 187.547 23.4301L 179.895 25.3401"/>
<path style="stroke:#ff0000; stroke-dasharray:6,3; stroke-width:1.9133; fill:none" d="M 176.071 80.8321L 203.813 66.7231"/>
<path style="stroke:#ff0000; stroke-dasharray:6,3; stroke-width:1.9133; fill:none" d="M 196.126 68.4851L 203.813 66.7231L 197.86 71.8951"/>
<path style="stroke:#ff0000; stroke-dasharray:6,3; stroke-width:1.9133; fill:none" d="M 187.547 80.8321L 209.547 66.4851"/>
<path style="stroke:#ff0000; stroke-dasharray:6,3; stroke-width:1.9133; fill:none" d="M 202.098 69.0591L 209.551 66.4851L 204.188 72.2661"/>
<path style="stroke:#ff0000; stroke-dasharray:6,3; stroke-width:1.9133; fill:none" d="M 197.118 80.8321L 215.051 66.4851"/>
<path style="stroke:#ff0000; stroke-dasharray:6,3; stroke-width:1.9133; fill:none" d="M 207.883 69.7701L 215.051 66.4851L 210.274 72.7581"/>
<path style="stroke:#ff0000; stroke-dasharray:6,3; stroke-width:1.9133; fill:none" d="M 202.856 62.4181L 202.856 50.2231"/>
<path style="stroke:#ff0000; stroke-dasharray:6,3; stroke-width:1.9133; fill:none" d="M 200.942 57.8721L 202.852 50.2191L 204.762 57.8721"/>
<path style="stroke:#ff0000; stroke-dasharray:6,3; stroke-width:1.9133; fill:none" d="M 214.337 62.6571L 214.337 50.2231"/>
<path style="stroke:#ff0000; stroke-dasharray:6,3; stroke-width:1.9133; fill:none" d="M 212.422 57.8721L 214.333 50.2191L 216.243 57.8721"/>
<path style="stroke:#ff0000; stroke-dasharray:6,3; stroke-width:1.9133; fill:none" d="M 208.594 62.4181L 208.594 50.2231"/>
<path style="stroke:#ff0000; stroke-dasharray:6,3; stroke-width:1.9133; fill:none" d="M 206.684 57.8721L 208.594 50.2191L 210.505 57.8721"/>
<path style="stroke:#0000ff; stroke-width:0.95664899999999997; fill:none" d="M 214.575 47.1101L 216.247 33.0001"/>
<path style="stroke:#0000ff; stroke-width:0.95664899999999997; fill:none" d="M 217.376 39.7351L 214.575 47.1061L 213.579 39.2821"/>
<path style="stroke:#0000ff; stroke-width:0.95664899999999997; fill:none" d="M 213.45 40.3751L 216.251 33.0041L 217.247 40.8291"/>
<path style="stroke:#0000ff; stroke-width:0.95664899999999997; fill:none" d="M 209.075 47.1101L 204.77 33.0001"/>
<path style="stroke:#0000ff; stroke-width:0.95664899999999997; fill:none" d="M 208.669 39.2311L 209.071 47.1061L 205.008 40.3441"/>
<path style="stroke:#0000ff; stroke-width:0.95664899999999997; fill:none" d="M 205.172 40.8791L 204.77 33.0041L 208.833 39.7661"/>
<path style="stroke:#0000ff; stroke-width:0.95664899999999997; fill:none" d="M 203.575 47.5901L 193.294 33.0041"/>
<path style="stroke:#0000ff; stroke-width:0.95664899999999997; fill:none" d="M 200.727 40.2311L 203.571 47.5861L 197.598 42.4341"/>
<path style="stroke:#0000ff; stroke-width:0.95664899999999997; fill:none" d="M 196.133 40.3561L 193.29 33.0001L 199.262 38.1531"/>
<path style="stroke:none; fill-rule:evenodd; fill:#7e7e7e" d="M 187.547 33.0001L 199.024 33.0001L 199.024 15.7821L 187.547 15.7821L 187.547 33.0001z"/>
<path style="stroke:#000000; stroke-width:1.9133; fill:none" d="M 187.547 33.0001L 199.024 33.0001L 199.024 15.7821L 187.547 15.7821L 187.547 33.0001z"/>
<path style="stroke:none; fill-rule:evenodd; fill:#ffff00" d="M 199.028 33.0001L 210.505 33.0001L 210.505 15.7821L 199.028 15.7821L 199.028 33.0001z"/>
<path style="stroke:#000000; stroke-width:1.9133; fill:none" d="M 199.028 33.0001L 210.505 33.0001L 210.505 15.7821L 199.028 15.7821L 199.028 33.0001z"/>
<path style="stroke:none; fill-rule:evenodd; fill:#ffff00" d="M 210.508 33.0001L 221.985 33.0001L 221.985 15.7821L 210.508 15.7821L 210.508 33.0001z"/>
<path style="stroke:#000000; stroke-width:1.9133; fill:none" d="M 210.508 33.0001L 221.985 33.0001L 221.985 15.7821L 210.508 15.7821L 210.508 33.0001z"/>
<path style="stroke:none; fill-rule:evenodd; fill:#ffff00" d="M 130.149 33.0001L 151.192 33.0001L 151.192 15.7821L 130.149 15.7821L 130.149 33.0001z"/>
<path style="stroke:#000000; stroke-width:1.9133; fill:none" d="M 130.149 33.0001L 151.192 33.0001L 151.192 15.7821L 130.149 15.7821L 130.149 33.0001z"/>
<path style="stroke:none; fill-rule:evenodd; fill:#7e7e7e" d="M 168.415 98.0511L 179.891 98.0511L 179.891 80.8321L 168.415 80.8321L 168.415 98.0511z"/>
<path style="stroke:#000000; stroke-width:1.9133; fill:none" d="M 168.415 98.0511L 179.891 98.0511L 179.891 80.8321L 168.415 80.8321L 168.415 98.0511z"/>
<path style="stroke:none; fill-rule:evenodd; fill:#7e7e7e" d="M 179.895 98.0511L 191.372 98.0511L 191.372 80.8321L 179.895 80.8321L 179.895 98.0511z"/>
<path style="stroke:#000000; stroke-width:1.9133; fill:none" d="M 179.895 98.0511L 191.372 98.0511L 191.372 80.8321L 179.895 80.8321L 179.895 98.0511z"/>
<path style="stroke:none; fill-rule:evenodd; fill:#7e7e7e" d="M 191.376 98.0511L 202.852 98.0511L 202.852 80.8321L 191.376 80.8321L 191.376 98.0511z"/>
<path style="stroke:#000000; stroke-width:1.9133; fill:none" d="M 191.376 98.0511L 202.852 98.0511L 202.852 80.8321L 191.376 80.8321L 191.376 98.0511z"/>
<path style="stroke:none; fill-rule:evenodd; fill:#7e7e7e" d="M 200.465 51.4141L 206.204 51.4141L 206.204 47.1101L 200.465 47.1101L 200.465 51.4141z"/>
<path style="stroke:#000000; stroke-width:1.9133; fill:none" d="M 200.465 51.4141L 206.204 51.4141L 206.204 47.1101L 200.465 47.1101L 200.465 51.4141z"/>
<path style="stroke:none; fill-rule:evenodd; fill:#7e7e7e" d="M 206.204 51.4141L 211.942 51.4141L 211.942 47.1101L 206.204 47.1101L 206.204 51.4141z"/>
<path style="stroke:#000000; stroke-width:1.9133; fill:none" d="M 206.204 51.4141L 211.942 51.4141L 211.942 47.1101L 206.204 47.1101L 206.204 51.4141z"/>
<path style="stroke:none; fill-rule:evenodd; fill:#7e7e7e" d="M 211.946 51.4141L 217.684 51.4141L 217.684 47.1101L 211.946 47.1101L 211.946 51.4141z"/>
<path style="stroke:#000000; stroke-width:1.9133; fill:none" d="M 211.946 51.4141L 217.684 51.4141L 217.684 47.1101L 211.946 47.1101L 211.946 51.4141z"/>
<path style="stroke:none; fill-rule:evenodd; fill:#ffff00" d="M 200.465 66.7231L 206.204 66.7231L 206.204 62.4181L 200.465 62.4181L 200.465 66.7231z"/>
<path style="stroke:#000000; stroke-width:1.9133; fill:none" d="M 200.465 66.7231L 206.204 66.7231L 206.204 62.4181L 200.465 62.4181L 200.465 66.7231z"/>
<path style="stroke:none; fill-rule:evenodd; fill:#ffff00" d="M 206.204 66.7231L 211.942 66.7231L 211.942 62.4181L 206.204 62.4181L 206.204 66.7231z"/>
<path style="stroke:#000000; stroke-width:1.9133; fill:none" d="M 206.204 66.7231L 211.942 66.7231L 211.942 62.4181L 206.204 62.4181L 206.204 66.7231z"/>
<path style="stroke:none; fill-rule:evenodd; fill:#ffff00" d="M 211.946 66.7231L 217.684 66.7231L 217.684 62.4181L 211.946 62.4181L 211.946 66.7231z"/>
<path style="stroke:#000000; stroke-width:1.9133; fill:none" d="M 211.946 66.7231L 217.684 66.7231L 217.684 62.4181L 211.946 62.4181L 211.946 66.7231z"/>
<path style="stroke:none; fill-rule:evenodd; fill:#0000ff" d="M 166.411 82.5041L 165.79 82.5041C 164.856 82.5041 164.317 83.1451 164.317 84.2581L 164.317 86.4931C 164.317 87.7351 164.063 88.1761 163.274 88.3401L 163.274 89.2621C 164.063 89.4221 164.317 89.8751 164.317 91.1101L 164.317 93.3441C 164.317 94.4541 164.856 95.0981 165.79 95.0981L 166.411 95.0981L 166.411 94.2001L 166.2 94.2001C 165.512 94.2001 165.317 94.0001 165.317 93.3091L 165.317 90.9031C 165.317 89.8011 164.989 89.1491 164.274 88.8011C 165.051 88.4851 165.317 87.9381 165.317 86.7111L 165.317 84.3051C 165.317 83.6141 165.512 83.4141 166.2 83.4141L 166.411 83.4141L 166.411 82.5041z"/>
<path style="stroke:#0000ff; stroke-width:0.95664899999999997; fill:none" d="M 164.59 88.4851L 160.766 88.4851"/>
<path style="stroke:#0000ff; stroke-width:0.95664899999999997; fill:none" d="M 160.762 88.4851L 160.762 78.9221"/>
<path style="stroke:#0000ff; stroke-width:0.95664899999999997; fill:none" d="M 187.547 33.0001L 160.762 78.9181"/>
<path style="stroke:#0000ff; stroke-width:0.95664899999999997; fill:none" d="M 166.27 73.2741L 160.762 78.9181L 162.965 71.3481"/>
<path style="stroke:#0000ff; stroke-width:0.95664899999999997; fill:none" d="M 141.629 33.0001L 160.762 78.9181"/>
<path style="stroke:#0000ff; stroke-width:0.95664899999999997; fill:none" d="M 159.587 71.1181L 160.762 78.9141L 156.055 72.5861"/>
<path style="stroke:none; fill-rule:evenodd; fill:#000000" d="M 144.415 22.0321C 144.079 20.2041 143.016 19.3091 141.165 19.3091C 140.032 19.3091 139.122 19.6641 138.497 20.3561C 137.735 21.1841 137.321 22.3791 137.321 23.7391C 137.321 25.1181 137.747 26.3051 138.544 27.1221C 139.188 27.7901 140.02 28.0981 141.118 28.0981C 143.172 28.0981 144.329 26.9851 144.587 24.7471L 143.481 24.7471C 143.391 25.3361 143.278 25.7391 143.102 26.0821C 142.758 26.7931 142.044 27.1961 141.149 27.1961C 139.481 27.1961 138.422 25.8441 138.422 23.7231C 138.422 21.5431 139.434 20.2001 141.059 20.2001C 141.735 20.2001 142.372 20.4111 142.715 20.7351C 143.024 21.0281 143.196 21.3871 143.325 22.0201L 144.415 22.0321z"/>
<path style="stroke:none; fill-rule:evenodd; fill:#000000" d="M 216.415 22.0361L 216.415 27.8011L 217.415 27.8011L 217.415 19.7041L 216.747 19.7041C 216.391 20.9461 216.161 21.1181 214.59 21.3131L 214.59 22.0321L 216.415 22.0361z"/>
<path style="stroke:#0000ff; stroke-width:0.95664899999999997; fill:none" d="M 36.3991 126.149L 72.7511 126.149"/>
<path style="stroke:#0000ff; stroke-width:0.95664899999999997; fill:none" d="M 65.0981 124.235L 72.7511 126.145L 65.0981 128.055"/>
<path style="stroke:#ff0000; stroke-dasharray:6,3; stroke-width:1.9133; fill:none" d="M 61.2701 183.547L 89.0121 169.438"/>
<path style="stroke:#ff0000; stroke-dasharray:6,3; stroke-width:1.9133; fill:none" d="M 81.3251 171.2L 89.0121 169.438L 83.0591 174.61"/>
<path style="stroke:#ff0000; stroke-dasharray:6,3; stroke-width:1.9133; fill:none" d="M 72.7511 183.547L 94.7511 169.2"/>
<path style="stroke:#ff0000; stroke-dasharray:6,3; stroke-width:1.9133; fill:none" d="M 87.2971 171.774L 94.7511 169.2L 89.3871 174.981"/>
<path style="stroke:#ff0000; stroke-dasharray:6,3; stroke-width:1.9133; fill:none" d="M 82.3211 183.547L 100.255 169.2"/>
<path style="stroke:#ff0000; stroke-dasharray:6,3; stroke-width:1.9133; fill:none" d="M 93.0871 172.485L 100.255 169.2L 95.4771 175.473"/>
<path style="stroke:#ff0000; stroke-dasharray:6,3; stroke-width:1.9133; fill:none" d="M 88.0591 165.133L 88.0591 152.938"/>
<path style="stroke:#ff0000; stroke-dasharray:6,3; stroke-width:1.9133; fill:none" d="M 86.1451 160.586L 88.0551 152.934L 89.9651 160.586"/>
<path style="stroke:#ff0000; stroke-dasharray:6,3; stroke-width:1.9133; fill:none" d="M 99.5401 165.372L 99.5401 152.938"/>
<path style="stroke:#ff0000; stroke-dasharray:6,3; stroke-width:1.9133; fill:none" d="M 97.6261 160.586L 99.5361 152.934L 101.446 160.586"/>
<path style="stroke:#ff0000; stroke-dasharray:6,3; stroke-width:1.9133; fill:none" d="M 93.7971 165.133L 93.7971 152.938"/>
<path style="stroke:#ff0000; stroke-dasharray:6,3; stroke-width:1.9133; fill:none" d="M 91.8831 160.586L 93.7941 152.934L 95.7041 160.586"/>
<path style="stroke:#0000ff; stroke-width:0.95664899999999997; fill:none" d="M 99.7781 149.825L 101.45 135.715"/>
<path style="stroke:#0000ff; stroke-width:0.95664899999999997; fill:none" d="M 102.579 142.45L 99.7781 149.821L 98.7821 141.997"/>
<path style="stroke:#0000ff; stroke-width:0.95664899999999997; fill:none" d="M 98.6491 143.086L 101.45 135.715L 102.446 143.54"/>
<path style="stroke:#0000ff; stroke-width:0.95664899999999997; fill:none" d="M 94.2781 149.825L 89.9731 135.715"/>
<path style="stroke:#0000ff; stroke-width:0.95664899999999997; fill:none" d="M 93.8721 141.946L 94.2741 149.821L 90.2121 143.059"/>
<path style="stroke:#0000ff; stroke-width:0.95664899999999997; fill:none" d="M 90.3761 143.59L 89.9731 135.715L 94.0361 142.477"/>
<path style="stroke:#0000ff; stroke-width:0.95664899999999997; fill:none" d="M 88.7781 150.305L 78.4971 135.719"/>
<path style="stroke:#0000ff; stroke-width:0.95664899999999997; fill:none" d="M 85.9301 142.946L 88.7741 150.301L 82.8011 145.149"/>
<path style="stroke:#0000ff; stroke-width:0.95664899999999997; fill:none" d="M 81.3371 143.071L 78.4931 135.715L 84.4651 140.868"/>
<path style="stroke:none; fill-rule:evenodd; fill:#7e7e7e" d="M 72.7511 135.715L 84.2271 135.715L 84.2271 118.497L 72.7511 118.497L 72.7511 135.715z"/>
<path style="stroke:#000000; stroke-width:1.9133; fill:none" d="M 72.7511 135.715L 84.2271 135.715L 84.2271 118.497L 72.7511 118.497L 72.7511 135.715z"/>
<path style="stroke:none; fill-rule:evenodd; fill:#ffff00" d="M 84.2311 135.715L 95.7081 135.715L 95.7081 118.497L 84.2311 118.497L 84.2311 135.715z"/>
<path style="stroke:#000000; stroke-width:1.9133; fill:none" d="M 84.2311 135.715L 95.7081 135.715L 95.7081 118.497L 84.2311 118.497L 84.2311 135.715z"/>
<path style="stroke:none; fill-rule:evenodd; fill:#ffff00" d="M 95.7121 135.715L 107.188 135.715L 107.188 118.497L 95.7121 118.497L 95.7121 135.715z"/>
<path style="stroke:#000000; stroke-width:1.9133; fill:none" d="M 95.7121 135.715L 107.188 135.715L 107.188 118.497L 95.7121 118.497L 95.7121 135.715z"/>
<path style="stroke:none; fill-rule:evenodd; fill:#ffff00" d="M 15.3521 135.715L 36.3951 135.715L 36.3951 118.497L 15.3521 118.497L 15.3521 135.715z"/>
<path style="stroke:#000000; stroke-width:1.9133; fill:none" d="M 15.3521 135.715L 36.3951 135.715L 36.3951 118.497L 15.3521 118.497L 15.3521 135.715z"/>
<path style="stroke:none; fill-rule:evenodd; fill:#7e7e7e" d="M 53.6181 200.766L 65.0941 200.766L 65.0941 183.547L 53.6181 183.547L 53.6181 200.766z"/>
<path style="stroke:#000000; stroke-width:1.9133; fill:none" d="M 53.6181 200.766L 65.0941 200.766L 65.0941 183.547L 53.6181 183.547L 53.6181 200.766z"/>
<path style="stroke:none; fill-rule:evenodd; fill:#ffff00" d="M 65.0981 200.766L 76.5751 200.766L 76.5751 183.547L 65.0981 183.547L 65.0981 200.766z"/>
<path style="stroke:#000000; stroke-width:1.9133; fill:none" d="M 65.0981 200.766L 76.5751 200.766L 76.5751 183.547L 65.0981 183.547L 65.0981 200.766z"/>
<path style="stroke:none; fill-rule:evenodd; fill:#7e7e7e" d="M 76.5791 200.766L 88.0551 200.766L 88.0551 183.547L 76.5791 183.547L 76.5791 200.766z"/>
<path style="stroke:#000000; stroke-width:1.9133; fill:none" d="M 76.5791 200.766L 88.0551 200.766L 88.0551 183.547L 76.5791 183.547L 76.5791 200.766z"/>
<path style="stroke:none; fill-rule:evenodd; fill:#7e7e7e" d="M 85.6651 154.129L 91.4031 154.129L 91.4031 149.825L 85.6651 149.825L 85.6651 154.129z"/>
<path style="stroke:#000000; stroke-width:1.9133; fill:none" d="M 85.6651 154.129L 91.4031 154.129L 91.4031 149.825L 85.6651 149.825L 85.6651 154.129z"/>
<path style="stroke:none; fill-rule:evenodd; fill:#ffff00" d="M 91.4071 154.129L 97.1451 154.129L 97.1451 149.825L 91.4071 149.825L 91.4071 154.129z"/>
<path style="stroke:#000000; stroke-width:1.9133; fill:none" d="M 91.4071 154.129L 97.1451 154.129L 97.1451 149.825L 91.4071 149.825L 91.4071 154.129z"/>
<path style="stroke:none; fill-rule:evenodd; fill:#7e7e7e" d="M 97.1451 154.129L 102.883 154.129L 102.883 149.825L 97.1451 149.825L 97.1451 154.129z"/>
<path style="stroke:#000000; stroke-width:1.9133; fill:none" d="M 97.1451 154.129L 102.883 154.129L 102.883 149.825L 97.1451 149.825L 97.1451 154.129z"/>
<path style="stroke:none; fill-rule:evenodd; fill:#ffff00" d="M 85.6651 169.434L 91.4031 169.434L 91.4031 165.129L 85.6651 165.129L 85.6651 169.434z"/>
<path style="stroke:#000000; stroke-width:1.9133; fill:none" d="M 85.6651 169.434L 91.4031 169.434L 91.4031 165.129L 85.6651 165.129L 85.6651 169.434z"/>
<path style="stroke:none; fill-rule:evenodd; fill:#7e7e7e" d="M 91.4071 169.434L 97.1451 169.434L 97.1451 165.129L 91.4071 165.129L 91.4071 169.434z"/>
<path style="stroke:#000000; stroke-width:1.9133; fill:none" d="M 91.4071 169.434L 97.1451 169.434L 97.1451 165.129L 91.4071 165.129L 91.4071 169.434z"/>
<path style="stroke:none; fill-rule:evenodd; fill:#ffff00" d="M 97.1451 169.434L 102.883 169.434L 102.883 165.129L 97.1451 165.129L 97.1451 169.434z"/>
<path style="stroke:#000000; stroke-width:1.9133; fill:none" d="M 97.1451 169.434L 102.883 169.434L 102.883 165.129L 97.1451 165.129L 97.1451 169.434z"/>
<path style="stroke:none; fill-rule:evenodd; fill:#0000ff" d="M 51.6101 185.204L 50.9891 185.204C 50.0551 185.204 49.5161 185.844 49.5161 186.957L 49.5161 189.192C 49.5161 190.434 49.2621 190.875 48.4731 191.04L 48.4731 191.961C 49.2621 192.122 49.5161 192.575 49.5161 193.809L 49.5161 196.043C 49.5161 197.153 50.0551 197.797 50.9891 197.797L 51.6101 197.797L 51.6101 196.899L 51.3991 196.899C 50.7121 196.899 50.5161 196.7 50.5161 196.008L 50.5161 193.602C 50.5161 192.5 50.1881 191.848 49.4731 191.5C 50.2511 191.184 50.5161 190.637 50.5161 189.411L 50.5161 187.004C 50.5161 186.313 50.7121 186.114 51.3991 186.114L 51.6101 186.114L 51.6101 185.204z"/>
<path style="stroke:#0000ff; stroke-width:0.95664899999999997; fill:none" d="M 49.7941 191.2L 45.9691 191.2"/>
<path style="stroke:#0000ff; stroke-width:0.95664899999999997; fill:none" d="M 45.9651 191.2L 45.9651 181.637"/>
<path style="stroke:#0000ff; stroke-width:0.95664899999999997; fill:none" d="M 72.7511 135.715L 45.9651 181.633"/>
<path style="stroke:#0000ff; stroke-width:0.95664899999999997; fill:none" d="M 51.4731 175.985L 45.9651 181.629L 48.1691 174.059"/>
<path style="stroke:#0000ff; stroke-width:0.95664899999999997; fill:none" d="M 26.8331 135.715L 45.9651 181.633"/>
<path style="stroke:#0000ff; stroke-width:0.95664899999999997; fill:none" d="M 44.7901 173.832L 45.9651 181.629L 41.2581 175.301"/>
<path style="stroke:none; fill-rule:evenodd; fill:#000000" d="M 27.4581 128.004L 28.3171 130.504L 29.5081 130.504L 26.5711 122.106L 25.1961 122.106L 22.2121 130.504L 23.3441 130.504L 24.2271 128.004L 27.4581 128.004zM 27.1571 127.102L 24.4971 127.102L 25.8721 123.282L 27.1571 127.102z"/>
<path style="stroke:none; fill-rule:evenodd; fill:#000000" d="M 101.614 124.735L 101.614 130.5L 102.614 130.5L 102.614 122.403L 101.946 122.403C 101.59 123.645 101.36 123.817 99.7901 124.012L 99.7901 124.731L 101.614 124.735z"/>
<path style="stroke:none; fill-rule:evenodd; fill:#000000" d="M 91.5551 128.004L 92.4151 130.504L 93.6061 130.504L 90.6691 122.106L 89.2941 122.106L 86.3091 130.504L 87.4421 130.504L 88.3251 128.004L 91.5551 128.004zM 91.2581 127.102L 88.5981 127.102L 89.9731 123.282L 91.2581 127.102z"/>
<path style="stroke:#0000ff; stroke-width:0.95664899999999997; fill:none" d="M 151.196 126.149L 187.547 126.149"/>
<path style="stroke:#0000ff; stroke-width:0.95664899999999997; fill:none" d="M 179.895 124.235L 187.547 126.145L 179.895 128.055"/>
<path style="stroke:#ff0000; stroke-dasharray:6,3; stroke-width:1.9133; fill:none" d="M 176.071 183.547L 203.813 169.438"/>
<path style="stroke:#ff0000; stroke-dasharray:6,3; stroke-width:1.9133; fill:none" d="M 196.126 171.2L 203.813 169.438L 197.86 174.61"/>
<path style="stroke:#ff0000; stroke-dasharray:6,3; stroke-width:1.9133; fill:none" d="M 187.547 183.547L 209.547 169.2"/>
<path style="stroke:#ff0000; stroke-dasharray:6,3; stroke-width:1.9133; fill:none" d="M 202.098 171.774L 209.551 169.2L 204.188 174.981"/>
<path style="stroke:#ff0000; stroke-dasharray:6,3; stroke-width:1.9133; fill:none" d="M 197.118 183.547L 215.051 169.2"/>
<path style="stroke:#ff0000; stroke-dasharray:6,3; stroke-width:1.9133; fill:none" d="M 207.883 172.485L 215.051 169.2L 210.274 175.473"/>
<path style="stroke:#ff0000; stroke-dasharray:6,3; stroke-width:1.9133; fill:none" d="M 202.856 165.133L 202.856 152.938"/>
<path style="stroke:#ff0000; stroke-dasharray:6,3; stroke-width:1.9133; fill:none" d="M 200.942 160.586L 202.852 152.934L 204.762 160.586"/>
<path style="stroke:#ff0000; stroke-dasharray:6,3; stroke-width:1.9133; fill:none" d="M 214.337 165.372L 214.337 152.938"/>
<path style="stroke:#ff0000; stroke-dasharray:6,3; stroke-width:1.9133; fill:none" d="M 212.422 160.586L 214.333 152.934L 216.243 160.586"/>
<path style="stroke:#ff0000; stroke-dasharray:6,3; stroke-width:1.9133; fill:none" d="M 208.594 165.133L 208.594 152.938"/>
<path style="stroke:#ff0000; stroke-dasharray:6,3; stroke-width:1.9133; fill:none" d="M 206.684 160.586L 208.594 152.934L 210.505 160.586"/>
<path style="stroke:#0000ff; stroke-width:0.95664899999999997; fill:none" d="M 214.575 149.825L 216.247 135.715"/>
<path style="stroke:#0000ff; stroke-width:0.95664899999999997; fill:none" d="M 217.376 142.45L 214.575 149.821L 213.579 141.997"/>
<path style="stroke:#0000ff; stroke-width:0.95664899999999997; fill:none" d="M 213.45 143.086L 216.251 135.715L 217.247 143.54"/>
<path style="stroke:#0000ff; stroke-width:0.95664899999999997; fill:none" d="M 209.075 149.825L 204.77 135.715"/>
<path style="stroke:#0000ff; stroke-width:0.95664899999999997; fill:none" d="M 208.672 141.946L 209.075 149.821L 205.012 143.059"/>
<path style="stroke:#0000ff; stroke-width:0.95664899999999997; fill:none" d="M 205.172 143.59L 204.77 135.715L 208.833 142.477"/>
<path style="stroke:#0000ff; stroke-width:0.95664899999999997; fill:none" d="M 203.575 150.305L 193.294 135.719"/>
<path style="stroke:#0000ff; stroke-width:0.95664899999999997; fill:none" d="M 200.727 142.946L 203.571 150.301L 197.598 145.149"/>
<path style="stroke:#0000ff; stroke-width:0.95664899999999997; fill:none" d="M 196.133 143.071L 193.29 135.715L 199.262 140.868"/>
<path style="stroke:none; fill-rule:evenodd; fill:#ffff00" d="M 187.547 135.715L 199.024 135.715L 199.024 118.497L 187.547 118.497L 187.547 135.715z"/>
<path style="stroke:#000000; stroke-width:1.9133; fill:none" d="M 187.547 135.715L 199.024 135.715L 199.024 118.497L 187.547 118.497L 187.547 135.715z"/>
<path style="stroke:none; fill-rule:evenodd; fill:#ffff00" d="M 199.028 135.715L 210.505 135.715L 210.505 118.497L 199.028 118.497L 199.028 135.715z"/>
<path style="stroke:#000000; stroke-width:1.9133; fill:none" d="M 199.028 135.715L 210.505 135.715L 210.505 118.497L 199.028 118.497L 199.028 135.715z"/>
<path style="stroke:none; fill-rule:evenodd; fill:#ffff00" d="M 210.508 135.715L 221.985 135.715L 221.985 118.497L 210.508 118.497L 210.508 135.715z"/>
<path style="stroke:#000000; stroke-width:1.9133; fill:none" d="M 210.508 135.715L 221.985 135.715L 221.985 118.497L 210.508 118.497L 210.508 135.715z"/>
<path style="stroke:none; fill-rule:evenodd; fill:#ffff00" d="M 130.153 135.715L 151.196 135.715L 151.196 118.497L 130.153 118.497L 130.153 135.715z"/>
<path style="stroke:#000000; stroke-width:1.9133; fill:none" d="M 130.153 135.715L 151.196 135.715L 151.196 118.497L 130.153 118.497L 130.153 135.715z"/>
<path style="stroke:none; fill-rule:evenodd; fill:#ffff00" d="M 168.415 200.766L 179.891 200.766L 179.891 183.547L 168.415 183.547L 168.415 200.766z"/>
<path style="stroke:#000000; stroke-width:1.9133; fill:none" d="M 168.415 200.766L 179.891 200.766L 179.891 183.547L 168.415 183.547L 168.415 200.766z"/>
<path style="stroke:none; fill-rule:evenodd; fill:#7e7e7e" d="M 179.895 200.766L 191.372 200.766L 191.372 183.547L 179.895 183.547L 179.895 200.766z"/>
<path style="stroke:#000000; stroke-width:1.9133; fill:none" d="M 179.895 200.766L 191.372 200.766L 191.372 183.547L 179.895 183.547L 179.895 200.766z"/>
<path style="stroke:none; fill-rule:evenodd; fill:#7e7e7e" d="M 191.376 200.766L 202.852 200.766L 202.852 183.547L 191.376 183.547L 191.376 200.766z"/>
<path style="stroke:#000000; stroke-width:1.9133; fill:none" d="M 191.376 200.766L 202.852 200.766L 202.852 183.547L 191.376 183.547L 191.376 200.766z"/>
<path style="stroke:none; fill-rule:evenodd; fill:#ffff00" d="M 200.465 154.129L 206.204 154.129L 206.204 149.825L 200.465 149.825L 200.465 154.129z"/>
<path style="stroke:#000000; stroke-width:1.9133; fill:none" d="M 200.465 154.129L 206.204 154.129L 206.204 149.825L 200.465 149.825L 200.465 154.129z"/>
<path style="stroke:none; fill-rule:evenodd; fill:#7e7e7e" d="M 206.204 154.129L 211.942 154.129L 211.942 149.825L 206.204 149.825L 206.204 154.129z"/>
<path style="stroke:#000000; stroke-width:1.9133; fill:none" d="M 206.204 154.129L 211.942 154.129L 211.942 149.825L 206.204 149.825L 206.204 154.129z"/>
<path style="stroke:none; fill-rule:evenodd; fill:#7e7e7e" d="M 211.946 154.129L 217.684 154.129L 217.684 149.825L 211.946 149.825L 211.946 154.129z"/>
<path style="stroke:#000000; stroke-width:1.9133; fill:none" d="M 211.946 154.129L 217.684 154.129L 217.684 149.825L 211.946 149.825L 211.946 154.129z"/>
<path style="stroke:none; fill-rule:evenodd; fill:#7e7e7e" d="M 200.465 169.438L 206.204 169.438L 206.204 165.133L 200.465 165.133L 200.465 169.438z"/>
<path style="stroke:#000000; stroke-width:1.9133; fill:none" d="M 200.465 169.438L 206.204 169.438L 206.204 165.133L 200.465 165.133L 200.465 169.438z"/>
<path style="stroke:none; fill-rule:evenodd; fill:#ffff00" d="M 206.204 169.438L 211.942 169.438L 211.942 165.133L 206.204 165.133L 206.204 169.438z"/>
<path style="stroke:#000000; stroke-width:1.9133; fill:none" d="M 206.204 169.438L 211.942 169.438L 211.942 165.133L 206.204 165.133L 206.204 169.438z"/>
<path style="stroke:none; fill-rule:evenodd; fill:#ffff00" d="M 211.946 169.438L 217.684 169.438L 217.684 165.133L 211.946 165.133L 211.946 169.438z"/>
<path style="stroke:#000000; stroke-width:1.9133; fill:none" d="M 211.946 169.438L 217.684 169.438L 217.684 165.133L 211.946 165.133L 211.946 169.438z"/>
<path style="stroke:none; fill-rule:evenodd; fill:#0000ff" d="M 166.411 185.204L 165.79 185.204C 164.856 185.204 164.317 185.844 164.317 186.957L 164.317 189.192C 164.317 190.434 164.063 190.875 163.274 191.04L 163.274 191.961C 164.063 192.122 164.317 192.575 164.317 193.809L 164.317 196.043C 164.317 197.153 164.856 197.797 165.79 197.797L 166.411 197.797L 166.411 196.899L 166.2 196.899C 165.512 196.899 165.317 196.7 165.317 196.008L 165.317 193.602C 165.317 192.5 164.989 191.848 164.274 191.5C 165.051 191.184 165.317 190.637 165.317 189.411L 165.317 187.004C 165.317 186.313 165.512 186.114 166.2 186.114L 166.411 186.114L 166.411 185.204z"/>
<path style="stroke:#0000ff; stroke-width:0.95664899999999997; fill:none" d="M 164.59 191.2L 160.766 191.2"/>
<path style="stroke:#0000ff; stroke-width:0.95664899999999997; fill:none" d="M 160.762 191.2L 160.762 181.637"/>
<path style="stroke:#0000ff; stroke-width:0.95664899999999997; fill:none" d="M 187.551 135.715L 160.766 181.633"/>
<path style="stroke:#0000ff; stroke-width:0.95664899999999997; fill:none" d="M 166.27 175.985L 160.762 181.629L 162.965 174.059"/>
<path style="stroke:#0000ff; stroke-width:0.95664899999999997; fill:none" d="M 141.629 135.715L 160.762 181.633"/>
<path style="stroke:#0000ff; stroke-width:0.95664899999999997; fill:none" d="M 159.587 173.832L 160.762 181.629L 156.055 175.301"/>
<path style="stroke:none; fill-rule:evenodd; fill:#000000" d="M 141.305 126.196L 144.126 122.106L 142.852 122.106L 140.696 125.418L 138.551 122.106L 137.255 122.106L 140.032 126.196L 137.071 130.504L 138.368 130.504L 140.661 127.016L 142.942 130.504L 144.258 130.504L 141.305 126.196z"/>
<path style="stroke:none; fill-rule:evenodd; fill:#000000" d="M 216.415 124.735L 216.415 130.5L 217.415 130.5L 217.415 122.403L 216.747 122.403C 216.391 123.645 216.161 123.817 214.59 124.012L 214.59 124.731L 216.415 124.735z"/>
<path style="stroke:none; fill-rule:evenodd; fill:#000000" d="M 206.356 128.004L 207.215 130.504L 208.407 130.504L 205.469 122.106L 204.094 122.106L 201.11 130.504L 202.243 130.504L 203.126 128.004L 206.356 128.004zM 206.059 127.102L 203.399 127.102L 204.774 123.282L 206.059 127.102z"/>
<path style="stroke:none; fill-rule:evenodd; fill:#000000" d="M 192.114 126.903L 194.844 126.903C 195.786 126.903 196.208 127.36 196.208 128.391L 196.208 129.133C 196.208 129.649 196.294 130.153 196.438 130.497L 197.696 130.497L 197.696 130.235C 197.305 129.961 197.223 129.661 197.204 128.543C 197.192 127.161 196.973 126.747 196.059 126.356C 197.016 125.895 197.403 125.309 197.403 124.352C 197.403 122.903 196.497 122.106 194.86 122.106L 191.008 122.106L 191.008 130.504L 192.106 130.504L 192.114 126.903zM 192.051 125.957L 192.051 123.079L 194.633 123.079C 195.227 123.079 195.571 123.168 195.837 123.399C 196.122 123.637 196.27 124.016 196.27 124.524C 196.27 125.508 195.766 125.957 194.629 125.957L 192.051 125.957z"/>
<path style="stroke:none; fill-rule:evenodd; fill:#000000" d="M 208.516 22.0321C 208.18 20.2041 207.118 19.3091 205.266 19.3091C 204.133 19.3091 203.223 19.6641 202.598 20.3561C 201.837 21.1841 201.422 22.3791 201.422 23.7391C 201.422 25.1181 201.848 26.3051 202.645 27.1221C 203.29 27.7901 204.122 28.0981 205.219 28.0981C 207.274 28.0981 208.43 26.9851 208.688 24.7471L 207.583 24.7471C 207.493 25.3361 207.379 25.7391 207.204 26.0821C 206.86 26.7931 206.145 27.1961 205.251 27.1961C 203.583 27.1961 202.524 25.8441 202.524 23.7231C 202.524 21.5431 203.536 20.2001 205.161 20.2001C 205.837 20.2001 206.473 20.4111 206.817 20.7351C 207.126 21.0281 207.297 21.3871 207.426 22.0201L 208.516 22.0321z"/>
<path style="stroke:none; fill-rule:evenodd; fill:#000000" d="M 9.15708 11.5401C 9.05109 11.5981 9.00509 11.5981 8.94608 11.5981C 8.60609 11.5981 8.41908 11.4261 8.41908 11.1251L 8.41908 7.55908C 8.41908 6.48508 7.64108 5.90308 6.16908 5.90308C 5.30109 5.90308 4.58308 6.15707 4.18008 6.60608C 3.90708 6.91409 3.79408 7.26208 3.77009 7.86407L 4.71509 7.86407C 4.79408 7.13309 5.21909 6.80109 6.10209 6.80109C 6.94608 6.80109 7.41908 7.12207 7.41908 7.70007L 7.41908 7.95407C 7.41908 8.35608 7.18408 8.52808 6.44209 8.62207C 5.11809 8.79309 4.91508 8.84009 4.55508 8.98907C 3.87209 9.27408 3.52409 9.81708 3.52409 10.6021C 3.52409 11.6961 4.27808 12.3871 5.48908 12.3871C 6.24309 12.3871 6.84808 12.1141 7.52409 11.4691C 7.59009 12.1021 7.88708 12.3871 8.50509 12.3871C 8.69608 12.3871 8.84409 12.3641 9.15308 12.2821L 9.15708 11.5401zM 7.41508 10.2431C 7.41508 10.5711 7.32509 10.7741 7.04709 11.0471C 6.66908 11.4111 6.21208 11.6021 5.66508 11.6021C 4.94209 11.6021 4.51608 11.2391 4.51608 10.6101C 4.51608 9.96109 4.92609 9.62909 5.91908 9.47708C 6.89909 9.33609 7.09808 9.29007 7.41109 9.13708L 7.41508 10.2431z"/>
<path style="stroke:none; fill-rule:evenodd; fill:#000000" d="M 10.4731 14.5401C 11.6021 13.0321 12.3131 10.9381 12.3131 9.13309C 12.3131 7.31708 11.6021 5.22308 10.4731 3.71109L 9.85609 3.71109C 10.8601 5.36008 11.4191 7.29007 11.4191 9.13309C 11.4191 10.9611 10.8601 12.9071 9.85609 14.5401L 10.4731 14.5401z"/>
<path style="stroke:none; fill-rule:evenodd; fill:#000000" d="M 19.3171 6.10208L 18.4191 6.10208L 18.4191 4.43408L 17.4191 4.43408L 17.4191 6.10208L 16.5201 6.10208L 16.5201 6.89908L 17.4191 6.89908L 17.4191 11.4461C 17.4191 12.0511 17.8211 12.3951 18.5511 12.3951C 18.7741 12.3951 19.0011 12.3721 19.3131 12.3131L 19.3131 11.4771C 19.2001 11.5671 19.0631 11.5941 18.8951 11.5941C 18.5201 11.5941 18.4151 11.4811 18.4151 11.0511L 18.4151 6.89908L 19.3131 6.89908L 19.3171 6.10208z"/>
<path style="stroke:none; fill-rule:evenodd; fill:#000000" d="M 21.3171 6.10208L 20.3171 6.10208L 20.3171 12.1021L 21.3171 12.1021L 21.3171 6.10208zM 21.3171 3.70407L 20.3171 3.70407L 20.3171 4.93808L 21.3171 4.93808L 21.3171 3.70407z"/>
<path style="stroke:none; fill-rule:evenodd; fill:#000000" d="M 22.9151 6.07907L 22.9151 12.1021L 23.9151 12.1021L 23.9151 8.29309C 23.9151 7.41409 24.5401 6.70709 25.3091 6.70709C 26.0121 6.70709 26.4111 7.14508 26.4111 7.92209L 26.4111 12.1021L 27.4111 12.1021L 27.4111 8.29309C 27.4111 7.41409 28.0361 6.70709 28.8051 6.70709C 29.4971 6.70709 29.9071 7.15707 29.9071 7.92209L 29.9071 12.1021L 30.9071 12.1021L 30.9071 7.58209C 30.9071 6.50409 30.2861 5.90707 29.1531 5.90707C 28.3481 5.90707 27.8601 6.14908 27.2971 6.83609C 26.9421 6.18808 26.4581 5.90707 25.6721 5.90707C 24.8681 5.90707 24.3371 6.20407 23.8171 6.92609L 23.8171 6.07907L 22.9151 6.07907z"/>
<path style="stroke:none; fill-rule:evenodd; fill:#000000" d="M 37.6141 9.40308C 37.6141 8.48508 37.5471 7.93408 37.3761 7.48907C 36.9891 6.50409 36.0751 5.90707 34.9581 5.90707C 33.2941 5.90707 32.2191 7.20007 32.2191 9.18808C 32.2191 11.1761 33.2551 12.4031 34.9301 12.4031C 36.2941 12.4031 37.2391 11.6101 37.4811 10.2781L 36.5281 10.2781C 36.2661 11.0821 35.7351 11.5001 34.9731 11.5001C 34.3721 11.5001 33.8601 11.2231 33.5441 10.7071C 33.3171 10.3601 33.2391 10.0081 33.2271 9.40308L 37.6141 9.40308zM 33.1961 8.63708C 33.2741 7.52408 33.9541 6.80109 34.9151 6.80109C 35.8521 6.80109 36.5791 7.57907 36.5791 8.56708C 36.5791 8.58609 36.5791 8.61008 36.5671 8.63309L 33.1961 8.63708z"/>
<path style="stroke:none; fill-rule:evenodd; fill:#000000" d="M 44.1141 6.10208L 43.2151 6.10208L 43.2151 4.43408L 42.2151 4.43408L 42.2151 6.10208L 41.3171 6.10208L 41.3171 6.89908L 42.2151 6.89908L 42.2151 11.4461C 42.2151 12.0511 42.6181 12.3951 43.3481 12.3951C 43.5711 12.3951 43.7971 12.3721 44.1101 12.3131L 44.1101 11.4771C 43.9971 11.5671 43.8601 11.5941 43.6921 11.5941C 43.3171 11.5941 43.2121 11.4811 43.2121 11.0511L 43.2121 6.89908L 44.1101 6.89908L 44.1141 6.10208z"/>
<path style="stroke:none; fill-rule:evenodd; fill:#000000" d="M 119.817 3.70407L 119.817 12.1021L 120.715 12.1021L 120.715 11.3361C 121.169 12.0591 121.774 12.4031 122.61 12.4031C 124.184 12.4031 125.212 11.0981 125.212 9.08609C 125.212 7.12207 124.231 5.90707 122.661 5.90707C 121.84 5.90707 121.262 6.21909 120.817 6.90308L 120.817 3.70407L 119.817 3.70407zM 122.465 6.81308C 123.532 6.81308 124.219 7.74307 124.219 9.17609C 124.219 10.5401 123.508 11.4691 122.465 11.4691C 121.458 11.4691 120.79 10.5511 120.79 9.14108C 120.79 7.73108 121.454 6.81308 122.465 6.81308z"/>
<path style="stroke:none; fill-rule:evenodd; fill:#000000" d="M 126.571 14.5401C 127.7 13.0321 128.411 10.9381 128.411 9.13309C 128.411 7.31708 127.7 5.22308 126.571 3.71109L 125.954 3.71109C 126.958 5.36008 127.516 7.29007 127.516 9.13309C 127.516 10.9611 126.958 12.9071 125.954 14.5401L 126.571 14.5401z"/>
<path style="stroke:none; fill-rule:evenodd; fill:#000000" d="M 135.516 6.10208L 134.618 6.10208L 134.618 4.43408L 133.618 4.43408L 133.618 6.10208L 132.719 6.10208L 132.719 6.89908L 133.618 6.89908L 133.618 11.4461C 133.618 12.0511 134.02 12.3951 134.751 12.3951C 134.973 12.3951 135.2 12.3721 135.512 12.3131L 135.512 11.4771C 135.399 11.5671 135.262 11.5941 135.094 11.5941C 134.719 11.5941 134.614 11.4811 134.614 11.0511L 134.614 6.89908L 135.512 6.89908L 135.516 6.10208z"/>
<path style="stroke:none; fill-rule:evenodd; fill:#000000" d="M 137.415 6.10208L 136.415 6.10208L 136.415 12.1021L 137.415 12.1021L 137.415 6.10208zM 137.415 3.70407L 136.415 3.70407L 136.415 4.93808L 137.415 4.93808L 137.415 3.70407z"/>
<path style="stroke:none; fill-rule:evenodd; fill:#000000" d="M 139.114 6.07907L 139.114 12.1021L 140.114 12.1021L 140.114 8.29309C 140.114 7.41409 140.739 6.70709 141.508 6.70709C 142.212 6.70709 142.61 7.14508 142.61 7.92209L 142.61 12.1021L 143.61 12.1021L 143.61 8.29309C 143.61 7.41409 144.235 6.70709 145.005 6.70709C 145.696 6.70709 146.106 7.15707 146.106 7.92209L 146.106 12.1021L 147.106 12.1021L 147.106 7.58209C 147.106 6.50409 146.485 5.90707 145.352 5.90707C 144.547 5.90707 144.059 6.14908 143.497 6.83609C 143.141 6.18808 142.657 5.90707 141.872 5.90707C 141.067 5.90707 140.536 6.20407 140.016 6.92609L 140.016 6.07907L 139.114 6.07907z"/>
<path style="stroke:none; fill-rule:evenodd; fill:#000000" d="M 153.817 9.40308C 153.817 8.48508 153.751 7.93408 153.579 7.48907C 153.192 6.50409 152.278 5.90707 151.161 5.90707C 149.497 5.90707 148.422 7.20007 148.422 9.18808C 148.422 11.1761 149.458 12.4031 151.133 12.4031C 152.497 12.4031 153.442 11.6101 153.684 10.2781L 152.731 10.2781C 152.469 11.0821 151.938 11.5001 151.176 11.5001C 150.575 11.5001 150.063 11.2231 149.747 10.7071C 149.52 10.3601 149.442 10.0081 149.43 9.40308L 153.817 9.40308zM 149.395 8.63708C 149.473 7.52408 150.153 6.80109 151.114 6.80109C 152.051 6.80109 152.778 7.57907 152.778 8.56708C 152.778 8.58609 152.778 8.61008 152.766 8.63309L 149.395 8.63708z"/>
<path style="stroke:none; fill-rule:evenodd; fill:#000000" d="M 160.317 6.10208L 159.419 6.10208L 159.419 4.43408L 158.419 4.43408L 158.419 6.10208L 157.52 6.10208L 157.52 6.89908L 158.419 6.89908L 158.419 11.4461C 158.419 12.0511 158.821 12.3951 159.551 12.3951C 159.774 12.3951 160.001 12.3721 160.313 12.3131L 160.313 11.4771C 160.2 11.5671 160.063 11.5941 159.895 11.5941C 159.52 11.5941 159.415 11.4811 159.415 11.0511L 159.415 6.89908L 160.313 6.89908L 160.317 6.10208z"/>
<path style="stroke:none; fill-rule:evenodd; fill:#000000" d="M 166.747 9.00409L 164.419 9.00409L 164.419 6.66409L 163.622 6.66409L 163.622 9.00409L 161.196 9.00409L 161.196 9.80109L 163.622 9.80109L 163.622 12.2151L 164.419 12.2151L 164.419 9.80109L 166.747 9.80109L 166.747 9.00409z"/>
<path style="stroke:none; fill-rule:evenodd; fill:#000000" d="M 170.317 6.33609L 170.317 12.1021L 171.317 12.1021L 171.317 4.00409L 170.649 4.00409C 170.294 5.24707 170.063 5.41809 168.493 5.61407L 168.493 6.33209L 170.317 6.33609z"/>
<path style="stroke:none; fill-rule:evenodd; fill:#000000" d="M 8.22308 111.008C 8.18008 110.422 8.05508 110.04 7.82509 109.704C 7.41908 109.141 6.70009 108.805 5.87209 108.805C 4.27009 108.805 3.22308 110.098 3.22308 112.11C 3.22308 114.063 4.24709 115.301 5.86008 115.301C 7.28208 115.301 8.18008 114.43 8.29408 112.938L 7.34009 112.938C 7.18408 113.914 6.69608 114.403 5.89108 114.403C 4.84808 114.403 4.22308 113.54 4.22308 112.114C 4.22308 110.606 4.83308 109.707 5.86809 109.707C 6.66109 109.707 7.16109 110.176 7.27409 111.012L 8.22308 111.008z"/>
<path style="stroke:none; fill-rule:evenodd; fill:#000000" d="M 9.57108 117.438C 10.7001 115.93 11.4111 113.836 11.4111 112.032C 11.4111 110.215 10.7001 108.122 9.57108 106.61L 8.95409 106.61C 9.95808 108.258 10.5161 110.188 10.5161 112.032C 10.5161 113.86 9.95808 115.805 8.95409 117.438L 9.57108 117.438z"/>
<path style="stroke:none; fill-rule:evenodd; fill:#000000" d="M 18.4151 109.004L 17.5161 109.004L 17.5161 107.336L 16.5161 107.336L 16.5161 109.004L 15.6181 109.004L 15.6181 109.801L 16.5161 109.801L 16.5161 114.348C 16.5161 114.954 16.9191 115.297 17.6491 115.297C 17.8721 115.297 18.0981 115.274 18.4111 115.215L 18.4111 114.379C 18.2971 114.469 18.1611 114.497 17.9931 114.497C 17.6181 114.497 17.5121 114.383 17.5121 113.954L 17.5121 109.801L 18.4111 109.801L 18.4151 109.004z"/>
<path style="stroke:none; fill-rule:evenodd; fill:#000000" d="M 20.4151 109.004L 19.4151 109.004L 19.4151 115.004L 20.4151 115.004L 20.4151 109.004zM 20.4151 106.602L 19.4151 106.602L 19.4151 107.836L 20.4151 107.836L 20.4151 106.602z"/>
<path style="stroke:none; fill-rule:evenodd; fill:#000000" d="M 22.1141 108.977L 22.1141 115L 23.1141 115L 23.1141 111.192C 23.1141 110.313 23.7391 109.606 24.5081 109.606C 25.2121 109.606 25.6101 110.043 25.6101 110.821L 25.6101 115L 26.6101 115L 26.6101 111.192C 26.6101 110.313 27.2351 109.606 28.0051 109.606C 28.6961 109.606 29.1061 110.055 29.1061 110.821L 29.1061 115L 30.1061 115L 30.1061 110.481C 30.1061 109.403 29.4851 108.805 28.3521 108.805C 27.5471 108.805 27.0591 109.047 26.4971 109.735C 26.1411 109.086 25.6571 108.805 24.8721 108.805C 24.0671 108.805 23.5361 109.102 23.0161 109.825L 23.0161 108.977L 22.1141 108.977z"/>
<path style="stroke:none; fill-rule:evenodd; fill:#000000" d="M 36.7151 112.305C 36.7151 111.387 36.6491 110.836 36.4771 110.391C 36.0901 109.407 35.1761 108.809 34.0591 108.809C 32.3951 108.809 31.3211 110.102 31.3211 112.09C 31.3211 114.079 32.3561 115.305 34.0321 115.305C 35.3951 115.305 36.3401 114.512 36.5831 113.18L 35.6291 113.18C 35.3681 113.985 34.8371 114.403 34.0751 114.403C 33.4731 114.403 32.9621 114.125 32.6451 113.61C 32.4191 113.262 32.3401 112.911 32.3291 112.305L 36.7151 112.305zM 32.2971 111.536C 32.3761 110.422 33.0551 109.7 34.0161 109.7C 34.9541 109.7 35.6801 110.477 35.6801 111.465C 35.6801 111.485 35.6801 111.508 35.6691 111.532L 32.2971 111.536z"/>
<path style="stroke:none; fill-rule:evenodd; fill:#000000" d="M 43.3171 109.004L 42.4191 109.004L 42.4191 107.336L 41.4191 107.336L 41.4191 109.004L 40.5201 109.004L 40.5201 109.801L 41.4191 109.801L 41.4191 114.348C 41.4191 114.954 41.8211 115.297 42.5511 115.297C 42.7741 115.297 43.0011 115.274 43.3131 115.215L 43.3131 114.379C 43.2001 114.469 43.0631 114.497 42.8951 114.497C 42.5201 114.497 42.4151 114.383 42.4151 113.954L 42.4151 109.801L 43.3131 109.801L 43.3171 109.004z"/>
<path style="stroke:none; fill-rule:evenodd; fill:#000000" d="M 49.7471 111.903L 47.4191 111.903L 47.4191 109.563L 46.6221 109.563L 46.6221 111.903L 44.1961 111.903L 44.1961 112.7L 46.6221 112.7L 46.6221 115.114L 47.4191 115.114L 47.4191 112.7L 49.7471 112.7L 49.7471 111.903z"/>
<path style="stroke:none; fill-rule:evenodd; fill:#000000" d="M 56.0591 114.004L 51.8331 114.004C 51.9341 113.344 52.2971 112.922 53.2821 112.34L 54.4151 111.727C 55.5361 111.114 56.1141 110.278 56.1141 109.286C 56.1141 108.614 55.8441 107.985 55.3681 107.551C 54.8951 107.118 54.3051 106.914 53.5441 106.914C 52.5241 106.914 51.7661 107.274 51.3251 107.954C 51.0441 108.383 50.9191 108.879 50.8951 109.696L 51.8951 109.696C 51.9261 109.164 51.9971 108.84 52.1331 108.582C 52.3951 108.106 52.9191 107.813 53.5201 107.813C 54.4301 107.813 55.1141 108.461 55.1141 109.329C 55.1141 109.965 54.7391 110.512 54.0201 110.922L 52.9731 111.512C 51.2901 112.465 50.7971 113.231 50.7081 115.008L 56.0591 115.008L 56.0591 114.004z"/>
<path style="stroke:none; fill-rule:evenodd; fill:#000000" d="M 124.715 106.602L 123.715 106.602L 123.715 109.743C 123.317 109.129 122.68 108.801 121.879 108.801C 120.333 108.801 119.317 110.059 119.317 111.993C 119.317 114.04 120.329 115.297 121.969 115.297C 122.805 115.297 123.387 114.977 123.911 114.207L 123.911 114.997L 124.708 114.997L 124.715 106.602zM 122.044 109.704C 123.063 109.704 123.712 110.629 123.712 112.075C 123.712 113.473 123.055 114.399 122.055 114.399C 121.012 114.399 120.317 113.461 120.317 112.051C 120.317 110.641 121.008 109.704 122.044 109.704z"/>
<path style="stroke:none; fill-rule:evenodd; fill:#000000" d="M 126.372 117.438C 127.501 115.93 128.212 113.836 128.212 112.032C 128.212 110.215 127.501 108.122 126.372 106.61L 125.755 106.61C 126.758 108.258 127.317 110.188 127.317 112.032C 127.317 113.86 126.758 115.805 125.755 117.438L 126.372 117.438z"/>
<path style="stroke:none; fill-rule:evenodd; fill:#000000" d="M 135.317 109.004L 134.419 109.004L 134.419 107.336L 133.419 107.336L 133.419 109.004L 132.52 109.004L 132.52 109.801L 133.419 109.801L 133.419 114.348C 133.419 114.954 133.821 115.297 134.551 115.297C 134.774 115.297 135.001 115.274 135.313 115.215L 135.313 114.379C 135.2 114.469 135.063 114.497 134.895 114.497C 134.52 114.497 134.415 114.383 134.415 113.954L 134.415 109.801L 135.313 109.801L 135.317 109.004z"/>
<path style="stroke:none; fill-rule:evenodd; fill:#000000" d="M 137.215 109.004L 136.215 109.004L 136.215 115.004L 137.215 115.004L 137.215 109.004zM 137.215 106.602L 136.215 106.602L 136.215 107.836L 137.215 107.836L 137.215 106.602z"/>
<path style="stroke:none; fill-rule:evenodd; fill:#000000" d="M 138.915 108.977L 138.915 115L 139.915 115L 139.915 111.192C 139.915 110.313 140.54 109.606 141.309 109.606C 142.012 109.606 142.411 110.043 142.411 110.821L 142.411 115L 143.411 115L 143.411 111.192C 143.411 110.313 144.036 109.606 144.805 109.606C 145.497 109.606 145.907 110.055 145.907 110.821L 145.907 115L 146.907 115L 146.907 110.481C 146.907 109.403 146.286 108.805 145.153 108.805C 144.348 108.805 143.86 109.047 143.297 109.735C 142.942 109.086 142.458 108.805 141.672 108.805C 140.868 108.805 140.337 109.102 139.817 109.825L 139.817 108.977L 138.915 108.977z"/>
<path style="stroke:none; fill-rule:evenodd; fill:#000000" d="M 153.614 112.305C 153.614 111.387 153.547 110.836 153.376 110.391C 152.989 109.407 152.075 108.809 150.958 108.809C 149.294 108.809 148.219 110.102 148.219 112.09C 148.219 114.079 149.255 115.305 150.93 115.305C 152.294 115.305 153.239 114.512 153.481 113.18L 152.528 113.18C 152.266 113.985 151.735 114.403 150.973 114.403C 150.372 114.403 149.86 114.125 149.544 113.61C 149.317 113.262 149.239 112.911 149.227 112.305L 153.614 112.305zM 149.196 111.536C 149.274 110.422 149.954 109.7 150.915 109.7C 151.852 109.7 152.579 110.477 152.579 111.465C 152.579 111.485 152.579 111.508 152.567 111.532L 149.196 111.536z"/>
<path style="stroke:none; fill-rule:evenodd; fill:#000000" d="M 160.114 109.004L 159.215 109.004L 159.215 107.336L 158.215 107.336L 158.215 109.004L 157.317 109.004L 157.317 109.801L 158.215 109.801L 158.215 114.348C 158.215 114.954 158.618 115.297 159.348 115.297C 159.571 115.297 159.797 115.274 160.11 115.215L 160.11 114.379C 159.997 114.469 159.86 114.497 159.692 114.497C 159.317 114.497 159.212 114.383 159.212 113.954L 159.212 109.801L 160.11 109.801L 160.114 109.004z"/>
<path style="stroke:none; fill-rule:evenodd; fill:#000000" d="M 166.544 111.903L 164.215 111.903L 164.215 109.563L 163.419 109.563L 163.419 111.903L 160.993 111.903L 160.993 112.7L 163.419 112.7L 163.419 115.114L 164.215 115.114L 164.215 112.7L 166.544 112.7L 166.544 111.903z"/>
<path style="stroke:none; fill-rule:evenodd; fill:#000000" d="M 169.653 111.305L 170.208 111.305C 171.333 111.305 171.911 111.809 171.911 112.778C 171.911 113.793 171.278 114.399 170.215 114.399C 169.11 114.399 168.567 113.84 168.497 112.637L 167.481 112.637C 167.524 113.297 167.641 113.731 167.833 114.102C 168.243 114.891 169.047 115.297 170.157 115.297C 171.829 115.297 172.907 114.301 172.907 112.762C 172.907 111.731 172.508 111.157 171.54 110.825C 172.317 110.528 172.708 109.954 172.708 109.141C 172.708 107.743 171.774 106.907 170.215 106.907C 168.567 106.907 167.688 107.786 167.653 109.493L 168.676 109.493C 168.688 109.016 168.731 108.75 168.86 108.504C 169.09 108.071 169.602 107.805 170.247 107.805C 171.153 107.805 171.704 108.321 171.704 109.161C 171.704 109.719 171.493 110.055 171.028 110.235C 170.747 110.344 170.379 110.391 169.641 110.403L 169.653 111.305z"/>
</g>
</svg>