<?xml version="1.0" encoding="UTF-8" standalone="no"?>
<svg
   xmlns:dc="http://purl.org/dc/elements/1.1/"
   xmlns:cc="http://creativecommons.org/ns#"
   xmlns:rdf="http://www.w3.org/1999/02/22-rdf-syntax-ns#"
   xmlns:svg="http://www.w3.org/2000/svg"
   xmlns="http://www.w3.org/2000/svg"
   xmlns:xlink="http://www.w3.org/1999/xlink"
   xmlns:sodipodi="http://sodipodi.sourceforge.net/DTD/sodipodi-0.dtd"
   xmlns:inkscape="http://www.inkscape.org/namespaces/inkscape"
   width="990"
   height="765"
   id="svg2"
   version="1.1"
   inkscape:version="0.48.1 r9760"
   sodipodi:docname="fig_bg_acc_ofc_integration.svg"
   inkscape:export-filename="/Users/oreilly/svn_docs/figs/fig_bg_acc_ofc_integration.png"
   inkscape:export-xdpi="150.1506"
   inkscape:export-ydpi="150.1506">
  <metadata
     id="metadata298">
    <rdf:RDF>
      <cc:Work
         rdf:about="">
        <dc:format>image/svg+xml</dc:format>
        <dc:type
           rdf:resource="http://purl.org/dc/dcmitype/StillImage" />
        <dc:title></dc:title>
      </cc:Work>
    </rdf:RDF>
  </metadata>
  <sodipodi:namedview
     pagecolor="#ffffff"
     bordercolor="#666666"
     borderopacity="1"
     objecttolerance="10"
     gridtolerance="10"
     guidetolerance="10"
     inkscape:pageopacity="0"
     inkscape:pageshadow="2"
     inkscape:window-width="1635"
     inkscape:window-height="1041"
     id="namedview296"
     showgrid="false"
     inkscape:zoom="1.3558213"
     inkscape:cx="212.76601"
     inkscape:cy="150.82332"
     inkscape:window-x="0"
     inkscape:window-y="0"
     inkscape:window-maximized="0"
     inkscape:current-layer="svg2"
     showguides="true"
     inkscape:guide-bbox="true" />
  <defs
     id="defs4">
    <marker
       inkscape:stockid="Arrow1Mstart"
       orient="auto"
       refY="0.0"
       refX="0.0"
       id="Arrow1Mstart"
       style="overflow:visible">
      <path
         id="path4040"
         d="M 0.0,0.0 L 5.0,-5.0 L -12.5,0.0 L 5.0,5.0 L 0.0,0.0 z "
         style="fill-rule:evenodd;stroke:#000000;stroke-width:1.0pt;marker-start:none"
         transform="scale(0.4) translate(10,0)" />
    </marker>
    <linearGradient
       id="linearGradient5638">
      <stop
         id="stop5646"
         offset="0"
         style="stop-color:#ffff00;stop-opacity:0;" />
      <stop
         style="stop-color:#ffff00;stop-opacity:1;"
         offset="1"
         id="stop5642" />
    </linearGradient>
    <linearGradient
       id="linearGradient5628">
      <stop
         id="stop5636"
         offset="0"
         style="stop-color:#ff8080;stop-opacity:0.49803922;" />
      <stop
         style="stop-color:#ff8080;stop-opacity:1;"
         offset="1"
         id="stop5632" />
    </linearGradient>
    <marker
       inkscape:stockid="Arrow1Mend"
       orient="auto"
       refY="0"
       refX="0"
       id="Arrow1Mend"
       style="overflow:visible">
      <path
         id="path4043"
         d="M 0,0 5,-5 -12.5,0 5,5 0,0 z"
         style="fill-rule:evenodd;stroke:#000000;stroke-width:1pt;marker-start:none"
         transform="matrix(-0.4,0,0,-0.4,-4,0)" />
    </marker>
    <marker
       inkscape:stockid="Arrow1Send"
       orient="auto"
       refY="0"
       refX="0"
       id="Arrow1Send"
       style="overflow:visible">
      <path
         id="path4049"
         d="M 0,0 5,-5 -12.5,0 5,5 0,0 z"
         style="fill-rule:evenodd;stroke:#000000;stroke-width:1pt;marker-start:none"
         transform="matrix(-0.2,0,0,-0.2,-1.2,0)" />
    </marker>
    <marker
       inkscape:stockid="Arrow1Sstart"
       orient="auto"
       refY="0"
       refX="0"
       id="Arrow1Sstart"
       style="overflow:visible">
      <path
         id="path4046"
         d="M 0,0 5,-5 -12.5,0 5,5 0,0 z"
         style="fill-rule:evenodd;stroke:#000000;stroke-width:1pt;marker-start:none"
         transform="matrix(0.2,0,0,0.2,1.2,0)" />
    </marker>
    <marker
       inkscape:stockid="Arrow1Lstart"
       orient="auto"
       refY="0"
       refX="0"
       id="Arrow1Lstart"
       style="overflow:visible">
      <path
         id="path4034"
         d="M 0,0 5,-5 -12.5,0 5,5 0,0 z"
         style="fill-rule:evenodd;stroke:#000000;stroke-width:1pt;marker-start:none"
         transform="matrix(0.8,0,0,0.8,10,0)" />
    </marker>
    <inkscape:perspective
       sodipodi:type="inkscape:persp3d"
       inkscape:vp_x="0 : 123.082 : 1"
       inkscape:vp_y="0 : 1000 : 0"
       inkscape:vp_z="419.52802 : 123.082 : 1"
       inkscape:persp3d-origin="209.76401 : 82.054667 : 1"
       id="perspective300" />
    <marker
       id="ArrowEnd"
       viewBox="0 0 10 10"
       refX="0"
       refY="5"
       markerUnits="strokeWidth"
       markerWidth="4"
       markerHeight="3"
       orient="auto">
      <path
         d="M 0,0 10,5 0,10 z"
         id="path7" />
    </marker>
    <marker
       id="ArrowStart"
       viewBox="0 0 10 10"
       refX="10"
       refY="5"
       markerUnits="strokeWidth"
       markerWidth="4"
       markerHeight="3"
       orient="auto">
      <path
         d="M 10,0 0,5 10,10 z"
         id="path10" />
    </marker>
    <inkscape:perspective
       id="perspective5622"
       inkscape:persp3d-origin="0.5 : 0.33333333 : 1"
       inkscape:vp_z="1 : 0.5 : 1"
       inkscape:vp_y="0 : 1000 : 0"
       inkscape:vp_x="0 : 0.5 : 1"
       sodipodi:type="inkscape:persp3d" />
    <radialGradient
       inkscape:collect="always"
       xlink:href="#linearGradient5628"
       id="radialGradient5977"
       gradientUnits="userSpaceOnUse"
       gradientTransform="matrix(1,0,0,0.51993063,353.82237,612.03139)"
       cx="375.168"
       cy="194.129"
       fx="375.168"
       fy="194.129"
       r="35.288651" />
    <radialGradient
       inkscape:collect="always"
       xlink:href="#linearGradient5628"
       id="radialGradient5980"
       gradientUnits="userSpaceOnUse"
       gradientTransform="matrix(1,0,0,0.60003166,353.82237,582.09359)"
       cx="246.5545"
       cy="158.15649"
       fx="246.5545"
       fy="158.15649"
       r="33.480148" />
    <radialGradient
       inkscape:collect="always"
       xlink:href="#linearGradient5638"
       id="radialGradient5983"
       gradientUnits="userSpaceOnUse"
       gradientTransform="matrix(1,0,0,0.60004062,353.82237,605.62899)"
       cx="248.94501"
       cy="217.0045"
       fx="248.94501"
       fy="217.0045"
       r="33.479649" />
    <radialGradient
       inkscape:collect="always"
       xlink:href="#linearGradient5628"
       id="radialGradient5987"
       gradientUnits="userSpaceOnUse"
       gradientTransform="matrix(1,0,0,0.6226073,350.17163,562.96377)"
       cx="171.933"
       cy="101.72665"
       fx="171.933"
       fy="101.72665"
       r="25.349325" />
    <radialGradient
       inkscape:collect="always"
       xlink:href="#linearGradient5628"
       id="radialGradient5992"
       gradientUnits="userSpaceOnUse"
       gradientTransform="matrix(1,0,0,0.3090207,353.82237,540.63177)"
       cx="278.42551"
       cy="31.543301"
       fx="278.42551"
       fy="31.543301"
       r="72.722153" />
    <radialGradient
       inkscape:collect="always"
       xlink:href="#linearGradient5628"
       id="radialGradient5996"
       gradientUnits="userSpaceOnUse"
       gradientTransform="matrix(1,0,0,0.78160973,353.82237,556.63291)"
       cx="121.574"
       cy="173.0705"
       fx="121.574"
       fy="173.0705"
       r="18.11665" />
    <radialGradient
       inkscape:collect="always"
       xlink:href="#linearGradient5638"
       id="radialGradient6059"
       gradientUnits="userSpaceOnUse"
       gradientTransform="matrix(1,0,0,0.51993063,0,612.03139)"
       cx="375.168"
       cy="194.129"
       fx="375.168"
       fy="194.129"
       r="35.288651" />
    <radialGradient
       inkscape:collect="always"
       xlink:href="#linearGradient5638"
       id="radialGradient6062"
       gradientUnits="userSpaceOnUse"
       gradientTransform="matrix(1,0,0,0.60003166,0,582.09359)"
       cx="246.5545"
       cy="158.15649"
       fx="246.5545"
       fy="158.15649"
       r="33.480148" />
    <radialGradient
       inkscape:collect="always"
       xlink:href="#linearGradient5628"
       id="radialGradient6065"
       gradientUnits="userSpaceOnUse"
       gradientTransform="matrix(1,0,0,0.60004062,0,605.62899)"
       cx="248.94501"
       cy="217.0045"
       fx="248.94501"
       fy="217.0045"
       r="33.479649" />
    <radialGradient
       inkscape:collect="always"
       xlink:href="#linearGradient5638"
       id="radialGradient6069"
       gradientUnits="userSpaceOnUse"
       gradientTransform="matrix(1,0,0,0.6226073,-3.6507391,562.96377)"
       cx="171.933"
       cy="101.72665"
       fx="171.933"
       fy="101.72665"
       r="25.349325" />
    <radialGradient
       inkscape:collect="always"
       xlink:href="#linearGradient5638"
       id="radialGradient6074"
       gradientUnits="userSpaceOnUse"
       gradientTransform="matrix(1,0,0,0.3090207,-160.78815,540.63177)"
       cx="278.42551"
       cy="31.543301"
       fx="278.42551"
       fy="31.543301"
       r="72.722153" />
    <radialGradient
       inkscape:collect="always"
       xlink:href="#linearGradient5638"
       id="radialGradient6078"
       gradientUnits="userSpaceOnUse"
       gradientTransform="matrix(1,0,0,0.78160973,0,556.63291)"
       cx="121.574"
       cy="173.0705"
       fx="121.574"
       fy="173.0705"
       r="18.11665" />
    <radialGradient
       inkscape:collect="always"
       xlink:href="#linearGradient5628"
       id="radialGradient6084"
       gradientUnits="userSpaceOnUse"
       gradientTransform="matrix(1,0,0,0.6226073,47.978483,562.96377)"
       cx="171.933"
       cy="101.72665"
       fx="171.933"
       fy="101.72665"
       r="25.349325" />
    <radialGradient
       inkscape:collect="always"
       xlink:href="#linearGradient5638"
       id="radialGradient6088"
       gradientUnits="userSpaceOnUse"
       gradientTransform="matrix(1,0,0,0.6226073,403.27597,562.96377)"
       cx="171.933"
       cy="101.72665"
       fx="171.933"
       fy="101.72665"
       r="25.349325" />
    <radialGradient
       inkscape:collect="always"
       xlink:href="#linearGradient5638"
       id="radialGradient3170"
       gradientUnits="userSpaceOnUse"
       gradientTransform="matrix(1,0,0,0.3090207,-4.4253584,540.63177)"
       cx="278.42551"
       cy="31.543301"
       fx="278.42551"
       fy="31.543301"
       r="72.722153" />
  </defs>
  <rect
     style="fill:#ffffff;fill-opacity:1;fill-rule:nonzero;stroke:#ffffff;stroke-width:3.74007797;stroke-linejoin:round;stroke-miterlimit:10;stroke-opacity:1;stroke-dasharray:none;stroke-dashoffset:0"
     id="rect3174"
     width="387.01471"
     height="245.35295"
     x="32.776787"
     y="518.17194" />
  <path
     style="fill:url(#radialGradient6084);fill-opacity:1.0;stroke:#000000;stroke-width:0.95664901000000002;stroke-opacity:1"
     d="m 244.78248,626.29987 c 0,-8.4497 -11.132,-15.3047 -24.871,-15.3047 -13.734,0 -24.871,6.852 -24.871,15.3047 0,8.449 11.133,15.304 24.871,15.304 13.735,0 24.871,-6.851 24.871,-15.304"
     id="path6082" />
  <path
     id="path20"
     d="m 157.05,647.934 -6.714,4.554 -0.438,-7.875"
     style="fill:#bd00ff;fill-rule:evenodd;stroke:none" />
  <path
     id="path22"
     d="m 157.05,647.934 -6.714,4.554 -0.438,-7.875 7.152,3.321 z"
     style="fill:none;stroke:#bd00ff;stroke-width:1.91330004" />
  <path
     id="path24"
     d="m 138.734,691.906 c 0,-7.293 -7.684,-13.203 -17.16,-13.203 -9.477,0 -17.16,5.91 -17.16,13.203 0,7.293 7.683,13.204 17.16,13.204 9.476,0 17.16,-5.911 17.16,-13.204"
     style="fill:url(#radialGradient6078);fill-opacity:1;stroke:#000000;stroke-width:1.91330004" />
  <path
     id="path26"
     d="m 128.062,681.617 22,-29.175"
     style="fill:none;stroke:#bd00ff;stroke-width:1.91330004;stroke-dasharray:6, 3" />
  <path
     id="path28"
     d="m 189.40285,550.3793 c 0,-11.883 -32.129,-21.516 -71.766,-21.516 -39.632001,0 -71.765001,9.633 -71.765001,21.516 0,11.883 32.129,21.516 71.765001,21.516 39.633,0 71.766,-9.633 71.766,-21.516"
     style="fill:url(#radialGradient6074);fill-opacity:1;stroke:#000000;stroke-width:1.91330004"
     inkscape:connector-curvature="0" />
  <path
     id="path36"
     d="m 193.15326,626.29987 c 0,-8.4497 -11.132,-15.3047 -24.871,-15.3047 -13.734,0 -24.871,6.852 -24.871,15.3047 0,8.449 11.133,15.304 24.871,15.304 13.735,0 24.871,-6.851 24.871,-15.304"
     style="fill:url(#radialGradient6069);fill-opacity:1;stroke:#000000;stroke-width:0.95664901;stroke-opacity:1" />
  <path
     id="path38"
     d="m 252.23,626.262 c 0,-14.6837 -26.422,-26.5937 -59.015,-26.5937 -32.594,0 -59.016,11.906 -59.016,26.5937 0,14.683 26.422,26.594 59.016,26.594 32.593,0 59.015,-11.907 59.015,-26.594"
     style="fill:none;stroke:#000000;stroke-width:1.91330004" />
  <path
     id="path40"
     d="m 281.468,735.84 c 0,-10.562 -14.558,-19.132 -32.523,-19.132 -17.961,0 -32.523,8.562 -32.523,19.132 0,10.563 14.562,19.133 32.523,19.133 17.961,0 32.523,-8.562 32.523,-19.133"
     style="fill:url(#radialGradient6065);fill-opacity:1;stroke:#000000;stroke-width:1.91330004" />
  <path
     id="path42"
     d="m 279.078,676.992 c 0,-10.562 -14.559,-19.132 -32.524,-19.132 -17.961,0 -32.523,8.562 -32.523,19.132 0,10.563 14.562,19.133 32.523,19.133 17.961,0 32.524,-8.562 32.524,-19.133"
     style="fill:url(#radialGradient6062);fill-opacity:1;stroke:#000000;stroke-width:1.91330004" />
  <path
     id="path50"
     d="m 409.5,712.965 c 0,-9.605 -15.368,-17.391 -34.332,-17.391 -18.961,0 -34.332,7.786 -34.332,17.391 0,9.606 15.367,17.391 34.332,17.391 18.961,0 34.332,-7.785 34.332,-17.391"
     style="fill:url(#radialGradient6059);fill-opacity:1;stroke:#000000;stroke-width:1.91330004" />
  <path
     id="path52"
     d="m 225.504,721.489 c 0,-2.11 -1.711,-3.825 -3.825,-3.825 -2.109,0 -3.824,1.712 -3.824,3.825 0,2.109 1.711,3.824 3.824,3.824 2.11,0 3.825,-1.711 3.825,-3.824"
     style="fill:#ff0000;fill-rule:evenodd;stroke:none" />
  <path
     id="path54"
     d="m 225.504,721.489 c 0,-2.11 -1.711,-3.825 -3.825,-3.825 -2.109,0 -3.824,1.712 -3.824,3.825 0,2.109 1.711,3.824 3.824,3.824 2.11,0 3.825,-1.711 3.825,-3.824"
     style="fill:none;stroke:#ff0000;stroke-width:1.91330004" />
  <path
     id="path56"
     d="m 240.425,656.438 c 0,-0.844 -0.683,-1.528 -1.527,-1.528 -0.844,0 -1.527,0.684 -1.527,1.528 0,0.843 0.683,1.527 1.527,1.527 0.844,0 1.527,-0.684 1.527,-1.527"
     style="fill:#ff0000;fill-rule:evenodd;stroke:none" />
  <path
     id="path58"
     d="m 240.425,656.438 c 0,-0.844 -0.683,-1.528 -1.527,-1.528 -0.844,0 -1.527,0.684 -1.527,1.528 0,0.843 0.683,1.527 1.527,1.527 0.844,0 1.527,-0.684 1.527,-1.527"
     style="fill:none;stroke:#ff0000;stroke-width:1.91330004" />
  <path
     id="path60"
     d="M 227.88717,641.68647 239.371,656.434"
     style="fill:none;stroke:#ff0000;stroke-width:2;stroke-miterlimit:4;stroke-dasharray:4,2;stroke-dashoffset:0"
     sodipodi:nodetypes="cc" />
  <path
     id="path62"
     d="m 207.07393,640.16352 c -0.402,0 -0.649,0.215 -0.649,0.598 0,0.18 0.09,0.371 0.239,0.477 0.101,0.082 0.25,0.117 0.523,0.117 l 2.336,0 c 0.992,0 1.68,-0.262 2.242,-0.86 0.524,-0.55 0.801,-1.261 0.801,-2.101 l 0,-0.539 c 0,-1.801 -1.281,-3.192 -2.953,-3.192 l -2.426,0 c -0.308,0 -0.387,0.012 -0.488,0.082 -0.172,0.106 -0.274,0.309 -0.274,0.516 0,0.383 0.231,0.598 0.649,0.598 l 0,4.304 z m 1.203,0 0,-4.297 1.234,0 c 0.594,0 1.02,0.18 1.356,0.571 0.324,0.379 0.504,0.875 0.504,1.402 l 0,0.516 c 0,0.57 -0.145,0.965 -0.461,1.312 -0.348,0.356 -0.719,0.492 -1.391,0.492 l -1.242,0.004 z"
     style="fill:#ff0000;fill-rule:evenodd;stroke:none" />
  <path
     id="path64"
     d="m 215.54993,640.16352 c 1.016,-0.859 1.688,-1.425 2,-1.711 1.145,-1.019 1.422,-1.449 1.422,-2.187 0,-1.258 -1.047,-2.199 -2.457,-2.199 -0.679,0 -1.336,0.226 -1.797,0.636 -0.39,0.352 -0.691,0.907 -0.691,1.27 0,0.293 0.262,0.543 0.566,0.543 0.239,0 0.454,-0.129 0.512,-0.313 0.125,-0.343 0.137,-0.367 0.25,-0.496 0.25,-0.277 0.649,-0.441 1.102,-0.441 0.738,0 1.308,0.441 1.308,1.019 0,0.383 -0.191,0.633 -1.332,1.665 -0.511,0.464 -0.726,0.644 -2.644,2.218 l 0,1.188 5.211,0 0,-1.008 c 0,-0.274 -0.02,-0.379 -0.078,-0.481 -0.102,-0.171 -0.297,-0.273 -0.493,-0.273 -0.355,0 -0.535,0.188 -0.57,0.566 l -2.309,0.004 z"
     style="fill:#ff0000;fill-rule:evenodd;stroke:none" />
  <path
     id="path160"
     d="m 250.379,697.094 3.824,15.305"
     style="fill:none;stroke:#ff0000;stroke-width:2;stroke-dasharray:4,2;stroke-miterlimit:4;stroke-dashoffset:0" />
  <path
     id="path206"
     d="M 246.23248,568.9033 221.0628,610.31814"
     style="fill:none;stroke:#0000ff;stroke-width:2;stroke-miterlimit:4;stroke-dasharray:none;marker-end:url(#Arrow1Mend)"
     inkscape:connector-curvature="0"
     sodipodi:nodetypes="cc" />
  <path
     id="path216"
     d="M 170.97087,645.30014 223.109,723.879"
     style="fill:none;stroke:#ff0000;stroke-width:2;stroke-dasharray:6,2;stroke-miterlimit:4;stroke-dashoffset:0"
     sodipodi:nodetypes="cc" />
  <path
     id="path254"
     d="m 240.425,656.438 c 0,-0.844 -0.683,-1.528 -1.527,-1.528 -0.844,0 -1.527,0.684 -1.527,1.528 0,0.843 0.683,1.527 1.527,1.527 0.844,0 1.527,-0.684 1.527,-1.527"
     style="fill:#ff0000;fill-rule:evenodd;stroke:none" />
  <path
     id="path256"
     d="m 240.425,656.438 c 0,-0.844 -0.683,-1.528 -1.527,-1.528 -0.844,0 -1.527,0.684 -1.527,1.528 0,0.843 0.683,1.527 1.527,1.527 0.844,0 1.527,-0.684 1.527,-1.527"
     style="fill:none;stroke:#ff0000;stroke-width:1.91330004" />
  <path
     id="path258"
     d="m 258.449,713.739 c 0,-2.11 -1.711,-3.825 -3.824,-3.825 -2.11,0 -3.825,1.711 -3.825,3.825 0,2.109 1.711,3.824 3.825,3.824 2.109,0 3.824,-1.711 3.824,-3.824"
     style="fill:#ff0000;fill-rule:evenodd;stroke:none" />
  <path
     id="path260"
     d="m 258.449,713.739 c 0,-2.11 -1.711,-3.825 -3.824,-3.825 -2.11,0 -3.825,1.711 -3.825,3.825 0,2.109 1.711,3.824 3.825,3.824 2.109,0 3.824,-1.711 3.824,-3.824"
     style="fill:none;stroke:#ff0000;stroke-width:1.91330004" />
  <path
     id="path262"
     d="m 339.265,716.516 c 0,-0.844 -0.683,-1.527 -1.527,-1.527 -0.844,0 -1.527,0.683 -1.527,1.527 0,0.844 0.683,1.528 1.527,1.528 0.844,0 1.527,-0.684 1.527,-1.528"
     style="fill:#ff0000;fill-rule:evenodd;stroke:none" />
  <path
     id="path264"
     d="m 339.265,716.516 c 0,-0.844 -0.683,-1.527 -1.527,-1.527 -0.844,0 -1.527,0.683 -1.527,1.527 0,0.844 0.683,1.528 1.527,1.528 0.844,0 1.527,-0.684 1.527,-1.528"
     style="fill:none;stroke:#ff0000;stroke-width:1.91330004" />
  <path
     id="path266"
     d="m 283.105,730.473 51.356,-12.594"
     style="fill:none;stroke:#ff0000;stroke-width:2;stroke-miterlimit:4;stroke-dasharray:6, 2;stroke-dashoffset:0" />
  <path
     id="path268"
     d="m 152.24573,637.87954 c -0.403,0 -0.649,0.215 -0.649,0.598 0,0.18 0.09,0.371 0.239,0.477 0.101,0.082 0.25,0.117 0.523,0.117 l 2.336,0 c 0.992,0 1.68,-0.262 2.242,-0.86 0.523,-0.55 0.801,-1.261 0.801,-2.101 l 0,-0.539 c 0,-1.801 -1.281,-3.192 -2.953,-3.192 l -2.426,0 c -0.309,0 -0.387,0.012 -0.488,0.082 -0.172,0.106 -0.274,0.309 -0.274,0.516 0,0.383 0.231,0.598 0.649,0.598 l 0,4.304 z m 1.199,0 0,-4.297 1.234,0 c 0.594,0 1.02,0.18 1.356,0.571 0.324,0.379 0.504,0.875 0.504,1.402 l 0,0.516 c 0,0.57 -0.145,0.965 -0.461,1.312 -0.348,0.356 -0.719,0.492 -1.391,0.492 l -1.242,0.004 z"
     style="fill:#0000ff;fill-rule:evenodd;stroke:none" />
  <path
     id="path270"
     d="m 162.34673,631.75454 -2.418,0.625 c -0.453,0.114 -0.601,0.25 -0.601,0.578 0,0.329 0.218,0.59 0.508,0.59 0.109,0 0.14,-0.008 0.351,-0.066 l 0.961,-0.262 0,4.653 -1.113,0 c -0.285,0 -0.364,0.011 -0.461,0.082 -0.164,0.105 -0.266,0.308 -0.266,0.515 0,0.18 0.09,0.371 0.238,0.477 0.09,0.082 0.25,0.117 0.516,0.117 l 3.465,0 c 0.226,0 0.398,-0.035 0.48,-0.082 0.172,-0.117 0.274,-0.309 0.274,-0.516 0,-0.191 -0.09,-0.371 -0.242,-0.488 -0.114,-0.082 -0.207,-0.105 -0.52,-0.105 l -1.168,0 -0.004,-6.118 z"
     style="fill:#0000ff;fill-rule:evenodd;stroke:none" />
  <text
     xml:space="preserve"
     style="font-size:12px;font-style:normal;font-variant:normal;font-weight:normal;font-stretch:normal;text-indent:0;text-align:start;text-decoration:none;line-height:normal;letter-spacing:normal;word-spacing:normal;text-transform:none;direction:ltr;block-progression:tb;writing-mode:lr-tb;text-anchor:start;color:#000000;fill:#bd00ff;fill-opacity:1;fill-rule:nonzero;stroke:none;stroke-width:1px;marker:none;visibility:visible;display:inline;overflow:visible;enable-background:accumulate;font-family:Bitstream Vera Sans;-inkscape-font-specification:Bitstream Vera Sans"
     x="89.182297"
     y="715.45428"
     id="text5257"><tspan
       sodipodi:role="line"
       id="tspan5259"
       x="89.182297"
       y="715.45428">Dopamine</tspan></text>
  <text
     xml:space="preserve"
     style="font-size:12px;font-style:normal;font-variant:normal;font-weight:normal;font-stretch:normal;text-indent:0;text-align:start;text-decoration:none;line-height:normal;letter-spacing:normal;word-spacing:normal;text-transform:none;direction:ltr;block-progression:tb;writing-mode:lr-tb;text-anchor:start;color:#000000;fill:#000000;fill-opacity:1;fill-rule:nonzero;stroke:none;stroke-width:1px;marker:none;visibility:visible;display:inline;overflow:visible;enable-background:accumulate;font-family:Bitstream Vera Sans;-inkscape-font-specification:Bitstream Vera Sans"
     x="109.95486"
     y="696.27466"
     id="text5302"><tspan
       sodipodi:role="line"
       id="tspan5304"
       x="109.95486"
       y="696.27466">SNc</tspan></text>
  <text
     xml:space="preserve"
     style="font-size:12px;font-style:normal;font-variant:normal;font-weight:normal;font-stretch:normal;text-indent:0;text-align:start;text-decoration:none;line-height:normal;letter-spacing:normal;word-spacing:normal;text-transform:none;direction:ltr;block-progression:tb;writing-mode:lr-tb;text-anchor:start;color:#000000;fill:#000000;fill-opacity:1;fill-rule:nonzero;stroke:none;stroke-width:1px;marker:none;visibility:visible;display:inline;overflow:visible;enable-background:accumulate;font-family:Bitstream Vera Sans;-inkscape-font-specification:Bitstream Vera Sans"
     x="163.24011"
     y="703.45898"
     id="text5306"><tspan
       sodipodi:role="line"
       id="tspan5308"
       x="163.24011"
       y="703.45898">Direct</tspan></text>
  <text
     xml:space="preserve"
     style="font-size:12px;font-style:normal;font-variant:normal;font-weight:normal;font-stretch:normal;text-indent:0;text-align:start;text-decoration:none;line-height:normal;letter-spacing:normal;word-spacing:normal;text-transform:none;direction:ltr;block-progression:tb;writing-mode:lr-tb;text-anchor:start;color:#000000;fill:#000000;fill-opacity:1;fill-rule:nonzero;stroke:none;stroke-width:1px;marker:none;visibility:visible;display:inline;overflow:visible;enable-background:accumulate;font-family:Bitstream Vera Sans;-inkscape-font-specification:Bitstream Vera Sans"
     x="269.11148"
     y="703.45898"
     id="text5310"><tspan
       sodipodi:role="line"
       id="tspan5312"
       x="269.11148"
       y="703.45898">Indirect</tspan></text>
  <text
     xml:space="preserve"
     style="font-size:12px;font-style:normal;font-variant:normal;font-weight:normal;font-stretch:normal;text-indent:0;text-align:start;text-decoration:none;line-height:normal;letter-spacing:normal;word-spacing:normal;text-transform:none;direction:ltr;block-progression:tb;writing-mode:lr-tb;text-anchor:start;color:#000000;fill:#000000;fill-opacity:1;fill-rule:nonzero;stroke:none;stroke-width:1px;marker:none;visibility:visible;display:inline;overflow:visible;enable-background:accumulate;font-family:Bitstream Vera Sans;-inkscape-font-specification:Bitstream Vera Sans"
     x="239.35907"
     y="740.31415"
     id="text5314"><tspan
       sodipodi:role="line"
       id="tspan5316"
       x="239.35907"
       y="740.31415">GPi</tspan></text>
  <text
     xml:space="preserve"
     style="font-size:12px;font-style:normal;font-variant:normal;font-weight:normal;font-stretch:normal;text-indent:0;text-align:start;text-decoration:none;line-height:normal;letter-spacing:normal;word-spacing:normal;text-transform:none;direction:ltr;block-progression:tb;writing-mode:lr-tb;text-anchor:start;color:#000000;fill:#000000;fill-opacity:1;fill-rule:nonzero;stroke:none;stroke-width:1px;marker:none;visibility:visible;display:inline;overflow:visible;enable-background:accumulate;font-family:Bitstream Vera Sans;-inkscape-font-specification:Bitstream Vera Sans"
     x="234.78302"
     y="681.36066"
     id="text5318"><tspan
       sodipodi:role="line"
       id="tspan5320"
       x="234.78302"
       y="681.36066">GPe</tspan></text>
  <text
     xml:space="preserve"
     style="font-size:12px;font-style:normal;font-variant:normal;font-weight:normal;font-stretch:normal;text-indent:0;text-align:start;text-decoration:none;line-height:normal;letter-spacing:normal;word-spacing:normal;text-transform:none;direction:ltr;block-progression:tb;writing-mode:lr-tb;text-anchor:start;color:#000000;fill:#000000;fill-opacity:1;fill-rule:nonzero;stroke:none;stroke-width:1px;marker:none;visibility:visible;display:inline;overflow:visible;enable-background:accumulate;font-family:Bitstream Vera Sans;-inkscape-font-specification:Bitstream Vera Sans"
     x="346.19632"
     y="717.43866"
     id="text5326"><tspan
       sodipodi:role="line"
       id="tspan5328"
       x="346.19632"
       y="717.43866">Thalamus</tspan></text>
  <text
     xml:space="preserve"
     style="font-size:12px;font-style:normal;font-variant:normal;font-weight:normal;font-stretch:normal;text-indent:0;text-align:start;text-decoration:none;line-height:normal;letter-spacing:normal;word-spacing:normal;text-transform:none;direction:ltr;block-progression:tb;writing-mode:lr-tb;text-anchor:start;color:#000000;fill:#000000;fill-opacity:1;fill-rule:nonzero;stroke:none;stroke-width:1px;marker:none;visibility:visible;display:inline;overflow:visible;enable-background:accumulate;font-family:Bitstream Vera Sans;-inkscape-font-specification:Bitstream Vera Sans"
     x="155.93864"
     y="630.44427"
     id="text5334"><tspan
       sodipodi:role="line"
       id="tspan5336"
       x="155.93864"
       y="630.44427"
       style="font-size:18px;font-weight:bold;-inkscape-font-specification:Bitstream Vera Sans Bold">Go</tspan></text>
  <text
     xml:space="preserve"
     style="font-size:12px;font-style:normal;font-variant:normal;font-weight:normal;font-stretch:normal;text-indent:0;text-align:start;text-decoration:none;line-height:normal;letter-spacing:normal;word-spacing:normal;text-transform:none;direction:ltr;block-progression:tb;writing-mode:lr-tb;text-anchor:start;color:#000000;fill:#000000;fill-opacity:1;fill-rule:nonzero;stroke:none;stroke-width:1px;marker:none;visibility:visible;display:inline;overflow:visible;enable-background:accumulate;font-family:Bitstream Vera Sans;-inkscape-font-specification:Bitstream Vera Sans"
     x="208.99179"
     y="629.95636"
     id="text5338"><tspan
       sodipodi:role="line"
       id="tspan5340"
       x="208.99179"
       y="629.95636"
       style="font-size:8px">NoGo</tspan></text>
  <text
     xml:space="preserve"
     style="font-size:12px;font-style:normal;font-variant:normal;font-weight:normal;font-stretch:normal;text-indent:0;text-align:start;text-decoration:none;line-height:normal;letter-spacing:normal;word-spacing:normal;text-transform:none;direction:ltr;block-progression:tb;writing-mode:lr-tb;text-anchor:start;color:#000000;fill:#000000;fill-opacity:1;fill-rule:nonzero;stroke:none;stroke-width:1px;marker:none;visibility:visible;display:inline;overflow:visible;enable-background:accumulate;font-family:Bitstream Vera Sans;-inkscape-font-specification:Bitstream Vera Sans"
     x="77.072098"
     y="628.08069"
     id="text5672"><tspan
       sodipodi:role="line"
       id="tspan5674"
       x="77.072098"
       y="628.08069">Striatum</tspan></text>
  <path
     inkscape:connector-curvature="0"
     style="fill:url(#radialGradient3170);fill-opacity:1;stroke:#000000;stroke-width:1.91330004"
     d="m 345.76564,550.3793 c 0,-11.883 -32.129,-21.516 -71.766,-21.516 -39.632,0 -71.765,9.633 -71.765,21.516 0,11.883 32.129,21.516 71.765,21.516 39.633,0 71.766,-9.633 71.766,-21.516"
     id="path3164" />
  <text
     id="text3166"
     y="554.14685"
     x="74.295555"
     style="font-size:12px;font-style:normal;font-variant:normal;font-weight:normal;font-stretch:normal;text-indent:0;text-align:start;text-decoration:none;line-height:normal;letter-spacing:normal;word-spacing:normal;text-transform:none;direction:ltr;block-progression:tb;writing-mode:lr-tb;text-anchor:start;color:#000000;fill:#000000;fill-opacity:1;fill-rule:nonzero;stroke:none;stroke-width:1px;marker:none;visibility:visible;display:inline;overflow:visible;enable-background:accumulate;font-family:Bitstream Vera Sans;-inkscape-font-specification:Bitstream Vera Sans"
     xml:space="preserve"><tspan
       y="554.14685"
       x="74.295555"
       id="tspan3168"
       sodipodi:role="line">OFC (Goal Val)</tspan></text>
  <text
     xml:space="preserve"
     style="font-size:12px;font-style:normal;font-variant:normal;font-weight:normal;font-stretch:normal;text-indent:0;text-align:start;text-decoration:none;line-height:normal;letter-spacing:normal;word-spacing:normal;text-transform:none;direction:ltr;block-progression:tb;writing-mode:lr-tb;text-anchor:start;color:#000000;fill:#000000;fill-opacity:1;fill-rule:nonzero;stroke:none;stroke-width:1px;marker:none;visibility:visible;display:inline;overflow:visible;enable-background:accumulate;font-family:Bitstream Vera Sans;-inkscape-font-specification:Bitstream Vera Sans"
     x="225.80385"
     y="554.14685"
     id="text5330"><tspan
       sodipodi:role="line"
       id="tspan5332"
       x="225.80385"
       y="554.14685">ACC (Action Val)</tspan></text>
  <path
     sodipodi:nodetypes="cc"
     inkscape:connector-curvature="0"
     style="fill:none;stroke:#0000ff;stroke-width:2;stroke-miterlimit:4;stroke-dasharray:none;marker-end:url(#Arrow1Mend)"
     d="m 140.86758,571.11598 25.16968,41.41484"
     id="path3172" />
</svg>
