<?xml version="1.0" encoding="ISO-8859-1" standalone="yes"?>
<svg width="108.983" height="79.3213">
  <defs> 
    <marker id="ArrowEnd" viewBox="0 0 10 10" refX="0" refY="5" 
     markerUnits="strokeWidth" 
     markerWidth="4" 
     markerHeight="3" 
     orient="auto"> 
        <path d="M 0 0 L 10 5 L 0 10 z" /> 
    </marker>
    <marker id="ArrowStart" viewBox="0 0 10 10" refX="10" refY="5" 
     markerUnits="strokeWidth" 
     markerWidth="4" 
     markerHeight="3" 
     orient="auto"> 
        <path d="M 10 0 L 0 5 L 10 10 z" /> 
    </marker> </defs>
<g>
<path style="stroke:#000000; stroke-width:1.91229; fill:none" d="M 32.9673 57.8267C 32.9673 51.4907 27.8306 46.354 21.4946 46.354C 15.1587 46.354 10.022 51.4907 10.022 57.8267C 10.022 64.1626 15.1587 69.2993 21.4946 69.2993C 27.8306 69.2993 32.9673 64.1626 32.9673 57.8267"/>
<path style="stroke:none; fill-rule:evenodd; fill:#000000" d="M 15.2837 61.2212L 18.5376 61.2212C 20.6704 61.2212 21.979 59.6314 21.979 57.0181C 21.979 54.4165 20.6821 52.8267 18.5376 52.8267L 15.2837 52.8267L 15.2837 61.2212zM 16.3852 60.3228L 16.3852 53.7251L 18.3579 53.7251C 20.0102 53.7251 20.8813 54.8579 20.8813 57.0298C 20.8813 59.1782 20.0102 60.3228 18.3579 60.3228L 16.3852 60.3228z"/>
<path style="stroke:none; fill-rule:evenodd; fill:#000000" d="M 25.5845 55.4556L 25.5845 61.2212L 26.5845 61.2212L 26.5845 53.1235L 25.9165 53.1235C 25.561 54.3657 25.3306 54.5415 23.7602 54.7329L 23.7602 55.4517L 25.5845 55.4556z"/>
<path style="stroke:#000000; stroke-width:1.91229; fill:none" d="M 32.9673 21.4946C 32.9673 15.1587 27.8306 10.022 21.4946 10.022C 15.1587 10.022 10.022 15.1587 10.022 21.4946C 10.022 27.8306 15.1587 32.9673 21.4946 32.9673C 27.8306 32.9673 32.9673 27.8306 32.9673 21.4946"/>
<path style="stroke:none; fill-rule:evenodd; fill:#000000" d="M 15.2837 24.9243L 18.5376 24.9243C 20.6704 24.9243 21.979 23.3345 21.979 20.7212C 21.979 18.1196 20.6821 16.5298 18.5376 16.5298L 15.2837 16.5298L 15.2837 24.9243zM 16.3852 24.022L 16.3852 17.4243L 18.3579 17.4243C 20.0102 17.4243 20.8813 18.5571 20.8813 20.729C 20.8813 22.8774 20.0102 24.022 18.3579 24.022L 16.3852 24.022z"/>
<path style="stroke:none; fill-rule:evenodd; fill:#000000" d="M 25.5845 19.1548L 25.5845 24.9204L 26.5845 24.9204L 26.5845 16.8228L 25.9165 16.8228C 25.561 18.065 25.3306 18.2407 23.7602 18.4321L 23.7602 19.1509L 25.5845 19.1548z"/>
<path style="stroke:#000000; stroke-width:1.91229; fill:none" d="M 21.4946 46.354L 21.4946 32.9712"/>
<path style="stroke:#000000; stroke-width:1.91229; fill:none" d="M 19.5806 40.6157L 21.4907 32.9673L 23.4009 40.6157"/>
<path style="stroke:#000000; stroke-width:1.91229; fill:none" d="M 52.0884 46.354L 52.0884 32.9712"/>
<path style="stroke:#000000; stroke-width:1.91229; fill:none" d="M 50.1782 40.6157L 52.0884 32.9673L 53.9985 40.6157"/>
<path style="stroke:#000000; stroke-width:1.91229; fill:none" d="M 82.686 46.354L 82.686 32.9712"/>
<path style="stroke:#000000; stroke-width:1.91229; fill:none" d="M 80.7759 40.6157L 82.686 32.9673L 84.5962 40.6157"/>
<path style="stroke:#000000; stroke-width:1.91229; fill:none" d="M 63.5649 57.8267C 63.5649 51.4907 58.4282 46.354 52.0923 46.354C 45.7563 46.354 40.6196 51.4907 40.6196 57.8267C 40.6196 64.1626 45.7563 69.2993 52.0923 69.2993C 58.4282 69.2993 63.5649 64.1626 63.5649 57.8267"/>
<path style="stroke:none; fill-rule:evenodd; fill:#000000" d="M 45.8852 61.2212L 49.1391 61.2212C 51.272 61.2212 52.5806 59.6314 52.5806 57.0181C 52.5806 54.4165 51.2837 52.8267 49.1391 52.8267L 45.8852 52.8267L 45.8852 61.2212zM 46.9868 60.3228L 46.9868 53.7251L 48.9595 53.7251C 50.6118 53.7251 51.4829 54.8579 51.4829 57.0298C 51.4829 59.1782 50.6118 60.3228 48.9595 60.3228L 46.9868 60.3228z"/>
<path style="stroke:none; fill-rule:evenodd; fill:#000000" d="M 58.9282 60.2212L 54.7016 60.2212C 54.8032 59.561 55.1665 59.1392 56.1509 58.5571L 57.2837 57.9439C 58.4048 57.3306 58.9829 56.4985 58.9829 55.5024C 58.9829 54.8306 58.7134 54.2017 58.2368 53.7681C 57.7641 53.3345 57.1743 53.1314 56.4126 53.1314C 55.393 53.1314 54.6352 53.4907 54.1938 54.1704C 53.9126 54.6001 53.7876 55.0962 53.7641 55.9126L 54.7641 55.9126C 54.7954 55.3774 54.8657 55.0532 55.0024 54.7993C 55.2641 54.3228 55.7876 54.0298 56.3891 54.0298C 57.2993 54.0298 57.9829 54.6782 57.9829 55.5454C 57.9829 56.1821 57.6079 56.729 56.8891 57.1392L 55.8423 57.729C 54.1587 58.6821 53.6665 59.4478 53.5766 61.2212L 58.9282 61.2212L 58.9282 60.2212z"/>
<path style="stroke:#000000; stroke-width:1.91229; fill:none" d="M 63.5649 21.4946C 63.5649 15.1587 58.4282 10.022 52.0923 10.022C 45.7563 10.022 40.6196 15.1587 40.6196 21.4946C 40.6196 27.8306 45.7563 32.9673 52.0923 32.9673C 58.4282 32.9673 63.5649 27.8306 63.5649 21.4946"/>
<path style="stroke:none; fill-rule:evenodd; fill:#000000" d="M 45.8852 24.9243L 49.1391 24.9243C 51.272 24.9243 52.5806 23.3345 52.5806 20.7212C 52.5806 18.1196 51.2837 16.5298 49.1391 16.5298L 45.8852 16.5298L 45.8852 24.9243zM 46.9868 24.022L 46.9868 17.4243L 48.9595 17.4243C 50.6118 17.4243 51.4829 18.5571 51.4829 20.729C 51.4829 22.8774 50.6118 24.022 48.9595 24.022L 46.9868 24.022z"/>
<path style="stroke:none; fill-rule:evenodd; fill:#000000" d="M 58.9282 23.9243L 54.7016 23.9243C 54.8032 23.2642 55.1665 22.8423 56.1509 22.2603L 57.2837 21.647C 58.4048 21.0337 58.9829 20.2017 58.9829 19.2056C 58.9829 18.5337 58.7134 17.9048 58.2368 17.4712C 57.7641 17.0376 57.1743 16.8345 56.4126 16.8345C 55.393 16.8345 54.6352 17.1939 54.1938 17.8735C 53.9126 18.3032 53.7876 18.7993 53.7641 19.6157L 54.7641 19.6157C 54.7954 19.0806 54.8657 18.7564 55.0024 18.5024C 55.2641 18.0259 55.7876 17.7329 56.3891 17.7329C 57.2993 17.7329 57.9829 18.3814 57.9829 19.2485C 57.9829 19.8853 57.6079 20.4321 56.8891 20.8423L 55.8423 21.4321C 54.1587 22.3853 53.6665 23.1509 53.5766 24.9243L 58.9282 24.9243L 58.9282 23.9243z"/>
<path style="stroke:#000000; stroke-width:1.91229; fill:none" d="M 94.1588 21.4946C 94.1588 15.1587 89.0218 10.022 82.686 10.022C 76.3501 10.022 71.2134 15.1587 71.2134 21.4946C 71.2134 27.8306 76.3501 32.9673 82.686 32.9673C 89.0218 32.9673 94.1588 27.8306 94.1588 21.4946"/>
<path style="stroke:none; fill-rule:evenodd; fill:#000000" d="M 76.4868 24.9243L 79.7407 24.9243C 81.8735 24.9243 83.1821 23.3345 83.1821 20.7212C 83.1821 18.1196 81.8852 16.5298 79.7407 16.5298L 76.4868 16.5298L 76.4868 24.9243zM 77.5845 24.022L 77.5845 17.4243L 79.5571 17.4243C 81.2095 17.4243 82.0806 18.5571 82.0806 20.729C 82.0806 22.8774 81.2095 24.022 79.5571 24.022L 77.5845 24.022z"/>
<path style="stroke:none; fill-rule:evenodd; fill:#000000" d="M 86.3227 21.2212L 86.8774 21.2212C 88.0024 21.2212 88.5806 21.7251 88.5806 22.6939C 88.5806 23.7095 87.9477 24.315 86.8852 24.315C 85.7798 24.315 85.2368 23.7564 85.1665 22.5532L 84.1509 22.5532C 84.1938 23.2134 84.311 23.647 84.5024 24.0181C 84.9126 24.8071 85.7173 25.2134 86.8266 25.2134C 88.4985 25.2134 89.5768 24.2173 89.5768 22.6782C 89.5768 21.647 89.1778 21.0728 88.2095 20.7407C 88.9204 20.4439 89.2798 19.8696 89.2798 19.0571C 89.2798 17.6587 88.3618 16.8228 86.8345 16.8228C 85.2173 16.8228 84.3579 17.7056 84.3227 19.4126L 85.3227 19.4126C 85.3306 18.936 85.3774 18.6704 85.5024 18.4243C 85.729 17.9907 86.229 17.7251 86.854 17.7251C 87.7407 17.7251 88.2759 18.2407 88.2759 19.0806C 88.2759 19.6392 88.0727 19.9751 87.6352 20.1548C 87.3657 20.2642 87.018 20.311 86.3149 20.3228L 86.3227 21.2212z"/>
<path style="stroke:#000000; stroke-width:1.91229; fill:none" d="M 94.1588 57.8267C 94.1588 51.4907 89.0218 46.354 82.686 46.354C 76.3501 46.354 71.2134 51.4907 71.2134 57.8267C 71.2134 64.1626 76.3501 69.2993 82.686 69.2993C 89.0218 69.2993 94.1588 64.1626 94.1588 57.8267"/>
<path style="stroke:none; fill-rule:evenodd; fill:#000000" d="M 76.4868 61.2212L 79.7407 61.2212C 81.8735 61.2212 83.1821 59.6314 83.1821 57.0181C 83.1821 54.4165 81.8852 52.8267 79.7407 52.8267L 76.4868 52.8267L 76.4868 61.2212zM 77.5845 60.3228L 77.5845 53.7251L 79.5571 53.7251C 81.2095 53.7251 82.0806 54.8579 82.0806 57.0298C 82.0806 59.1782 81.2095 60.3228 79.5571 60.3228L 77.5845 60.3228z"/>
<path style="stroke:none; fill-rule:evenodd; fill:#000000" d="M 86.3227 57.522L 86.8774 57.522C 88.0024 57.522 88.5806 58.0259 88.5806 58.9946C 88.5806 60.0103 87.9477 60.6157 86.8852 60.6157C 85.7798 60.6157 85.2368 60.0571 85.1665 58.854L 84.1509 58.854C 84.1938 59.5142 84.311 59.9478 84.5024 60.3189C 84.9126 61.1079 85.7173 61.5142 86.8266 61.5142C 88.4985 61.5142 89.5768 60.5181 89.5768 58.979C 89.5768 57.9478 89.1778 57.3735 88.2095 57.0415C 88.9204 56.7446 89.2798 56.1704 89.2798 55.3579C 89.2798 53.9595 88.3618 53.1235 86.8345 53.1235C 85.2173 53.1235 84.3579 54.0064 84.3227 55.7134L 85.3227 55.7134C 85.3306 55.2368 85.3774 54.9712 85.5024 54.7251C 85.729 54.2915 86.229 54.0259 86.854 54.0259C 87.7407 54.0259 88.2759 54.5415 88.2759 55.3814C 88.2759 55.94 88.0727 56.2759 87.6352 56.4556C 87.3657 56.565 87.018 56.6118 86.3149 56.6235L 86.3227 57.522z"/>
<path style="stroke:none; fill-rule:evenodd; fill:#000000" d="M 97.5848 68.2212L 99.3818 68.2212L 99.3818 66.4243L 97.5848 66.4243L 97.5848 68.2212z"/>
<path style="stroke:none; fill-rule:evenodd; fill:#000000" d="M 102.385 68.2212L 104.182 68.2212L 104.182 66.4243L 102.385 66.4243L 102.385 68.2212z"/>
<path style="stroke:none; fill-rule:evenodd; fill:#000000" d="M 107.186 68.2212L 108.983 68.2212L 108.983 66.4243L 107.186 66.4243L 107.186 68.2212z"/>
</g>
</svg>