<?xml version="1.0" encoding="ISO-8859-1" standalone="yes"?>
<svg width="286" height="175.032">
  <defs> 
    <marker id="ArrowEnd" viewBox="0 0 10 10" refX="0" refY="5" 
     markerUnits="strokeWidth" 
     markerWidth="4" 
     markerHeight="3" 
     orient="auto"> 
        <path d="M 0 0 L 10 5 L 0 10 z" /> 
    </marker>
    <marker id="ArrowStart" viewBox="0 0 10 10" refX="10" refY="5" 
     markerUnits="strokeWidth" 
     markerWidth="4" 
     markerHeight="3" 
     orient="auto"> 
        <path d="M 10 0 L 0 5 L 10 10 z" /> 
    </marker> </defs>
<g>
<path style="stroke:none; fill-rule:evenodd; fill:#ffffff" d="M 15.7656 165.004L 275.972 165.004L 275.972 10.0273L 15.7656 10.0273L 15.7656 165.004z"/>
<path style="stroke:#ffffff; stroke-width:1.9133; fill:none" d="M 15.7656 165.004L 275.972 165.004L 275.972 10.0273L 15.7656 10.0273L 15.7656 165.004z"/>
<path style="stroke:#ffff00; stroke-width:1.9133; fill:none" d="M 46.3789 98.0395L 109.515 59.7743"/>
<path style="stroke:#ffff00; stroke-width:1.9133; fill:none" d="M 101.98 62.1023L 109.515 59.7743L 103.965 65.3753"/>
<path style="stroke:none; fill-rule:evenodd; fill:#ff0000" d="M 150.359 108.953C 150.316 108.368 150.191 107.985 149.961 107.649C 149.554 107.086 148.836 106.75 148.008 106.75C 146.406 106.75 145.359 108.043 145.359 110.055C 145.359 112.008 146.383 113.247 147.996 113.247C 149.418 113.247 150.316 112.375 150.429 110.883L 149.476 110.883C 149.32 111.86 148.832 112.348 148.027 112.348C 146.984 112.348 146.359 111.485 146.359 110.059C 146.359 108.551 146.968 107.653 148.004 107.653C 148.797 107.653 149.297 108.122 149.41 108.958L 150.359 108.953z"/>
<path style="stroke:none; fill-rule:evenodd; fill:#ff0000" d="M 153.793 106.75C 152.09 106.75 151.058 107.965 151.058 110C 151.058 112.036 152.078 113.25 153.808 113.25C 155.511 113.25 156.558 112.04 156.558 110.051C 156.558 107.961 155.551 106.758 153.801 106.758L 153.793 106.75zM 153.804 107.649C 154.898 107.649 155.554 108.536 155.554 110.032C 155.554 111.446 154.879 112.344 153.804 112.344C 152.722 112.344 152.054 111.458 152.054 109.997C 152.054 108.547 152.718 107.649 153.804 107.649z"/>
<path style="stroke:none; fill-rule:evenodd; fill:#ff0000" d="M 157.855 106.922L 157.855 112.946L 158.855 112.946L 158.855 109.813C 158.855 108.95 159.066 108.387 159.515 108.051C 159.804 107.833 160.086 107.766 160.738 107.754L 160.738 106.79C 160.582 106.77 160.504 106.758 160.379 106.758C 159.769 106.758 159.304 107.125 158.758 108.02L 158.758 106.93L 157.855 106.922z"/>
<path style="stroke:none; fill-rule:evenodd; fill:#ff0000" d="M 166.754 110.25C 166.754 109.333 166.687 108.782 166.515 108.336C 166.129 107.352 165.215 106.754 164.097 106.754C 162.433 106.754 161.359 108.047 161.359 110.036C 161.359 112.024 162.394 113.25 164.07 113.25C 165.433 113.25 166.379 112.458 166.621 111.125L 165.668 111.125C 165.406 111.93 164.875 112.348 164.113 112.348C 163.511 112.348 163 112.071 162.683 111.555C 162.457 111.208 162.379 110.856 162.367 110.25L 166.754 110.25zM 162.336 109.481C 162.414 108.368 163.094 107.645 164.054 107.645C 164.992 107.645 165.718 108.422 165.718 109.411C 165.718 109.43 165.718 109.453 165.707 109.477L 162.336 109.481z"/>
<path style="stroke:#ff0000; stroke-width:1.9133; fill:none" d="M 134.39 120.997L 178.394 120.997L 178.394 98.0395L 134.39 98.0395L 134.39 120.997z"/>
<path style="stroke:none; fill-rule:evenodd; fill:#00ff00" d="M 86.2812 108.61C 86.2692 107.422 85.4842 106.75 84.082 106.75C 82.6718 106.75 81.7578 107.477 81.7578 108.598C 81.7578 109.543 82.246 109.993 83.6953 110.34L 84.6054 110.559C 85.2812 110.719 85.5512 110.961 85.5512 111.399C 85.5512 111.961 84.9843 112.344 84.1406 112.344C 83.621 112.344 83.1835 112.196 82.9414 111.938C 82.7929 111.766 82.7226 111.59 82.664 111.157L 81.6484 111.157C 81.6914 112.567 82.4765 113.247 84.0585 113.247C 85.5822 113.247 86.5512 112.497 86.5512 111.333C 86.5512 110.434 86.0392 109.938 84.8242 109.649L 83.8906 109.43C 83.0976 109.247 82.7578 108.993 82.7578 108.567C 82.7578 108.016 83.2539 107.657 84.0429 107.657C 84.8164 107.657 85.2342 107.985 85.2582 108.614L 86.2812 108.61z"/>
<path style="stroke:none; fill-rule:evenodd; fill:#00ff00" d="M 87.8552 104.547L 87.8552 112.946L 88.8552 112.946L 88.8552 109.598C 88.8552 108.36 89.4802 107.547 90.4452 107.547C 90.7462 107.547 91.0472 107.649 91.2732 107.825C 91.5392 108.02 91.6522 108.309 91.6522 108.739L 91.6522 112.942L 92.6522 112.942L 92.6522 108.387C 92.6522 107.375 91.9332 106.743 90.7692 106.743C 89.9262 106.743 89.4142 107.008 88.8552 107.75L 88.8552 104.54L 87.8552 104.547z"/>
<path style="stroke:none; fill-rule:evenodd; fill:#00ff00" d="M 99.3552 110.25C 99.3552 109.333 99.2892 108.782 99.1172 108.336C 98.7302 107.352 97.8162 106.754 96.6992 106.754C 95.0352 106.754 93.9612 108.047 93.9612 110.036C 93.9612 112.024 94.9962 113.25 96.6722 113.25C 98.0352 113.25 98.9802 112.458 99.2222 111.125L 98.2692 111.125C 98.0082 111.93 97.4762 112.348 96.7152 112.348C 96.1132 112.348 95.6012 112.071 95.2852 111.555C 95.0582 111.208 94.9802 110.856 94.9682 110.25L 99.3552 110.25zM 94.9332 109.481C 95.0112 108.368 95.6912 107.645 96.6522 107.645C 97.5902 107.645 98.3162 108.422 98.3162 109.411C 98.3162 109.43 98.3162 109.453 98.3042 109.477L 94.9332 109.481z"/>
<path style="stroke:none; fill-rule:evenodd; fill:#00ff00" d="M 100.554 112.95L 101.554 112.95L 101.554 104.551L 100.554 104.551L 100.554 112.95z"/>
<path style="stroke:none; fill-rule:evenodd; fill:#00ff00" d="M 103.156 112.95L 104.156 112.95L 104.156 104.551L 103.156 104.551L 103.156 112.95z"/>
<path style="stroke:#00ff00; stroke-width:1.9133; fill:none" d="M 71.2539 120.997L 115.258 120.997L 115.258 98.0395L 71.2539 98.0395L 71.2539 120.997z"/>
<path style="stroke:#000000; stroke-width:1.9133; fill:none" d="M 27.246 63.5983L 71.25 63.5983L 71.25 40.6413L 27.246 40.6413L 27.246 63.5983z"/>
<path style="stroke:none; fill-rule:evenodd; fill:#000000" d="M 38.4804 51.2113C 38.4687 50.0243 37.6835 49.3523 36.2812 49.3523C 34.871 49.3523 33.957 50.0783 33.957 51.1993C 33.957 52.1453 34.4453 52.5943 35.8945 52.9423L 36.8046 53.1603C 37.4804 53.3203 37.75 53.5633 37.75 54.0003C 37.75 54.5633 37.1835 54.9453 36.3398 54.9453C 35.8203 54.9453 35.3828 54.7973 35.1406 54.5393C 34.9921 54.3673 34.9218 54.1923 34.8632 53.7583L 33.8476 53.7583C 33.8906 55.1683 34.6757 55.8483 36.2578 55.8483C 37.7812 55.8483 38.75 55.0983 38.75 53.9343C 38.75 53.0353 38.2382 52.5393 37.0234 52.2503L 36.0898 52.0313C 35.2968 51.8483 34.957 51.5943 34.957 51.1683C 34.957 50.6173 35.4531 50.2583 36.2421 50.2583C 37.0156 50.2583 37.4335 50.5863 37.457 51.2153L 38.4804 51.2113z"/>
<path style="stroke:none; fill-rule:evenodd; fill:#000000" d="M 42.1562 49.5473L 41.2578 49.5473L 41.2578 47.8793L 40.2578 47.8793L 40.2578 49.5473L 39.3593 49.5473L 39.3593 50.3443L 40.2578 50.3443L 40.2578 54.8913C 40.2578 55.4963 40.6601 55.8403 41.3906 55.8403C 41.6132 55.8403 41.8398 55.8173 42.1523 55.7583L 42.1523 54.9223C 42.039 55.0123 41.9023 55.0393 41.7343 55.0393C 41.3593 55.0393 41.2539 54.9263 41.2539 54.4963L 41.2539 50.3443L 42.1523 50.3443L 42.1562 49.5473z"/>
<path style="stroke:none; fill-rule:evenodd; fill:#000000" d="M 44.0546 49.5473L 43.0546 49.5473L 43.0546 55.5473L 44.0546 55.5473L 44.0546 49.5473zM 44.0546 47.1493L 43.0546 47.1493L 43.0546 48.3833L 44.0546 48.3833L 44.0546 47.1493z"/>
<path style="stroke:none; fill-rule:evenodd; fill:#000000" d="M 45.7539 49.5243L 45.7539 55.5473L 46.7539 55.5473L 46.7539 51.7383C 46.7539 50.8593 47.3789 50.1523 48.1484 50.1523C 48.8515 50.1523 49.25 50.5903 49.25 51.3673L 49.25 55.5473L 50.25 55.5473L 50.25 51.7383C 50.25 50.8593 50.875 50.1523 51.6445 50.1523C 52.3359 50.1523 52.746 50.6023 52.746 51.3673L 52.746 55.5473L 53.746 55.5473L 53.746 51.0273C 53.746 49.9493 53.125 49.3523 51.9921 49.3523C 51.1874 49.3523 50.6992 49.5943 50.1367 50.2813C 49.7812 49.6333 49.2968 49.3523 48.5117 49.3523C 47.707 49.3523 47.1757 49.6493 46.6562 50.3713L 46.6562 49.5243L 45.7539 49.5243z"/>
<path style="stroke:none; fill-rule:evenodd; fill:#000000" d="M 60.1562 55.5823L 60.1562 49.5513L 59.1562 49.5513L 59.1562 52.9963C 59.1562 54.2353 58.5117 55.0473 57.5039 55.0473C 56.7421 55.0473 56.2578 54.5863 56.2578 53.8563L 56.2578 49.5513L 55.2578 49.5513L 55.2578 54.2033C 55.2578 55.2033 56.0156 55.8483 57.207 55.8483C 58.1054 55.8483 58.6796 55.5393 59.2539 54.7463L 59.2539 55.5863L 60.1562 55.5823z"/>
<path style="stroke:none; fill-rule:evenodd; fill:#000000" d="M 61.6562 55.5473L 62.6562 55.5473L 62.6562 47.1493L 61.6562 47.1493L 61.6562 55.5473z"/>
<path style="stroke:none; fill-rule:evenodd; fill:#000000" d="M 65.1562 49.5473L 64.1562 49.5473L 64.1562 55.5473L 65.1562 55.5473L 65.1562 49.5473zM 65.1562 47.1493L 64.1562 47.1493L 64.1562 48.3833L 65.1562 48.3833L 65.1562 47.1493z"/>
<path style="stroke:none; fill-rule:evenodd; fill:#000000" d="M 80.082 126.809C 80.0703 125.622 79.2851 124.95 77.8828 124.95C 76.4726 124.95 75.5585 125.676 75.5585 126.797C 75.5585 127.743 76.0468 128.192 77.496 128.54L 78.4062 128.758C 79.082 128.918 79.3515 129.161 79.3515 129.598C 79.3515 130.161 78.7851 130.543 77.9414 130.543C 77.4218 130.543 76.9843 130.395 76.7421 130.137C 76.5937 129.965 76.5234 129.79 76.4648 129.356L 75.4492 129.356C 75.4921 130.766 76.2773 131.446 77.8593 131.446C 79.3828 131.446 80.3515 130.696 80.3515 129.532C 80.3515 128.633 79.8398 128.137 78.625 127.848L 77.6914 127.629C 76.8984 127.446 76.5585 127.192 76.5585 126.766C 76.5585 126.215 77.0546 125.856 77.8437 125.856C 78.6171 125.856 79.0351 126.184 79.0585 126.813L 80.082 126.809z"/>
<path style="stroke:none; fill-rule:evenodd; fill:#000000" d="M 81.3554 128.848L 87.1522 128.848L 87.1522 128.051L 81.3554 128.051L 81.3554 128.848z"/>
<path style="stroke:none; fill-rule:evenodd; fill:#000000" d="M 88.3552 125.122L 88.3552 131.145L 89.3552 131.145L 89.3552 127.336C 89.3552 126.458 89.9802 125.75 90.7502 125.75C 91.4532 125.75 91.8512 126.188 91.8512 126.965L 91.8512 131.145L 92.8512 131.145L 92.8512 127.336C 92.8512 126.458 93.4762 125.75 94.2462 125.75C 94.9372 125.75 95.3472 126.2 95.3472 126.965L 95.3472 131.145L 96.3472 131.145L 96.3472 126.625C 96.3472 125.547 95.7262 124.95 94.5942 124.95C 93.7892 124.95 93.3012 125.192 92.7382 125.879C 92.3832 125.231 91.8982 124.95 91.1132 124.95C 90.3082 124.95 89.7772 125.247 89.2582 125.969L 89.2582 125.122L 88.3552 125.122z"/>
<path style="stroke:none; fill-rule:evenodd; fill:#000000" d="M 100.191 124.95C 98.4882 124.95 97.4572 126.165 97.4572 128.2C 97.4572 130.235 98.4762 131.45 100.207 131.45C 101.91 131.45 102.957 130.239 102.957 128.25C 102.957 126.161 101.949 124.958 100.199 124.958L 100.191 124.95zM 100.203 125.848C 101.297 125.848 101.953 126.735 101.953 128.231C 101.953 129.645 101.277 130.543 100.203 130.543C 99.1212 130.543 98.4532 129.657 98.4532 128.196C 98.4532 126.747 99.1172 125.848 100.203 125.848z"/>
<path style="stroke:none; fill-rule:evenodd; fill:#000000" d="M 106.355 125.149L 105.457 125.149L 105.457 123.481L 104.457 123.481L 104.457 125.149L 103.558 125.149L 103.558 125.946L 104.457 125.946L 104.457 130.493C 104.457 131.098 104.859 131.442 105.59 131.442C 105.812 131.442 106.039 131.418 106.351 131.36L 106.351 130.524C 106.238 130.614 106.101 130.641 105.933 130.641C 105.558 130.641 105.453 130.528 105.453 130.098L 105.453 125.946L 106.351 125.946L 106.355 125.149z"/>
<path style="stroke:none; fill-rule:evenodd; fill:#000000" d="M 108.355 125.149L 107.355 125.149L 107.355 131.149L 108.355 131.149L 108.355 125.149zM 108.355 122.75L 107.355 122.75L 107.355 123.985L 108.355 123.985L 108.355 122.75z"/>
<path style="stroke:none; fill-rule:evenodd; fill:#000000" d="M 112.527 131.149L 114.832 125.149L 113.754 125.149L 112.058 130.008L 110.453 125.149L 109.375 125.149L 111.484 131.149L 112.527 131.149z"/>
<path style="stroke:none; fill-rule:evenodd; fill:#000000" d="M 75.8554 142.547L 76.8554 142.547L 76.8554 134.149L 75.8554 134.149L 75.8554 142.547z"/>
<path style="stroke:none; fill-rule:evenodd; fill:#000000" d="M 79.3554 136.547L 78.3554 136.547L 78.3554 142.547L 79.3554 142.547L 79.3554 136.547zM 79.3554 134.149L 78.3554 134.149L 78.3554 135.383L 79.3554 135.383L 79.3554 134.149z"/>
<path style="stroke:none; fill-rule:evenodd; fill:#000000" d="M 80.9531 136.524L 80.9531 142.547L 81.9531 142.547L 81.9531 139.2C 81.9531 137.961 82.5781 137.149 83.5429 137.149C 84.2812 137.149 84.75 137.61 84.75 138.34L 84.75 142.543L 85.7502 142.543L 85.7502 137.989C 85.7502 136.989 85.0078 136.344 83.8476 136.344C 82.957 136.344 82.3828 136.688 81.8554 137.528L 81.8554 136.516L 80.9531 136.524z"/>
<path style="stroke:none; fill-rule:evenodd; fill:#000000" d="M 88.1562 134.149L 87.1562 134.149L 87.1562 142.547L 88.1562 142.547L 88.1562 140.208L 89.0902 139.29L 91.1292 142.547L 92.3162 142.547L 89.8512 138.622L 91.9492 136.551L 90.7182 136.551L 88.1602 139.083L 88.1562 134.149z"/>
<path style="stroke:#00ff00; stroke-width:1.9133; fill:none" d="M 50.207 63.5983L 94.2112 98.0356"/>
<path style="stroke:#00ff00; stroke-width:1.9133; fill:none" d="M 89.3632 91.8168L 94.2112 98.0395L 87.0082 94.8325"/>
<path style="stroke:#000000; stroke-width:1.9133; fill:none" d="M 109.519 63.5983L 153.523 63.5983L 153.523 40.6413L 109.519 40.6413L 109.519 63.5983z"/>
<path style="stroke:none; fill-rule:evenodd; fill:#000000" d="M 119.793 49.3483C 118.09 49.3483 117.058 50.5633 117.058 52.5983C 117.058 54.6333 118.078 55.8483 119.808 55.8483C 121.511 55.8483 122.558 54.6373 122.558 52.6493C 122.558 50.5593 121.551 49.3563 119.801 49.3563L 119.793 49.3483zM 119.804 50.2503C 120.898 50.2503 121.554 51.1373 121.554 52.6333C 121.554 54.0473 120.879 54.9453 119.804 54.9453C 118.722 54.9453 118.054 54.0593 118.054 52.5983C 118.054 51.1493 118.718 50.2503 119.804 50.2503z"/>
<path style="stroke:none; fill-rule:evenodd; fill:#000000" d="M 123.554 53.2503L 129.351 53.2503L 129.351 52.4533L 123.554 52.4533L 123.554 53.2503z"/>
<path style="stroke:none; fill-rule:evenodd; fill:#000000" d="M 130.355 58.0513L 131.355 58.0513L 131.355 54.9493C 131.855 55.5703 132.418 55.8483 133.191 55.8483C 134.734 55.8483 135.75 54.5903 135.75 52.6563C 135.75 50.6253 134.765 49.3523 133.168 49.3523C 132.355 49.3523 131.699 49.7193 131.254 50.4303L 131.254 49.5243L 130.355 49.5243L 130.355 58.0513zM 133.019 50.2503C 134.066 50.2503 134.75 51.1843 134.75 52.6333C 134.75 54.0083 134.054 54.9453 133.019 54.9453C 132.015 54.9453 131.355 54.0203 131.355 52.5983C 131.355 51.1763 132.015 50.2503 133.019 50.2503z"/>
<path style="stroke:none; fill-rule:evenodd; fill:#000000" d="M 139.156 49.5473L 138.156 49.5473L 138.156 48.5783C 138.156 48.1643 138.383 47.9493 138.82 47.9493C 138.898 47.9493 138.933 47.9493 139.152 47.9493L 139.152 47.2073C 138.929 47.1643 138.801 47.1563 138.601 47.1563C 137.699 47.1563 137.156 47.6643 137.156 48.5273L 137.156 49.5513L 136.359 49.5513L 136.359 50.3483L 137.156 50.3483L 137.156 55.5473L 138.156 55.5473L 138.156 50.3483L 139.156 50.3483L 139.156 49.5473z"/>
<path style="stroke:none; fill-rule:evenodd; fill:#000000" d="M 144.761 51.5553C 144.718 50.9693 144.594 50.5863 144.363 50.2503C 143.957 49.6883 143.238 49.3523 142.41 49.3523C 140.808 49.3523 139.761 50.6453 139.761 52.6563C 139.761 54.6093 140.785 55.8483 142.398 55.8483C 143.82 55.8483 144.718 54.9773 144.832 53.4853L 143.879 53.4853C 143.722 54.4613 143.234 54.9493 142.429 54.9493C 141.386 54.9493 140.761 54.0863 140.761 52.6603C 140.761 51.1523 141.371 50.2543 142.406 50.2543C 143.199 50.2543 143.699 50.7233 143.812 51.5593L 144.761 51.5553z"/>
<path style="stroke:#000000; stroke-width:1.9133; fill:none" d="M 165.004 63.5983L 209.008 63.5983L 209.008 40.6413L 165.004 40.6413L 165.004 63.5983z"/>
<path style="stroke:#00ff00; stroke-width:1.9133; fill:none" d="M 96.1252 98.0395L 128.648 63.6023"/>
<path style="stroke:#00ff00; stroke-width:1.9133; fill:none" d="M 122.008 67.8483L 128.652 63.5983L 124.789 70.4733"/>
<path style="stroke:#ff0000; stroke-width:1.9133; fill:none" d="M 132.476 63.5983L 153.519 98.0356"/>
<path style="stroke:#ff0000; stroke-width:1.9133; fill:none" d="M 151.168 90.5121L 153.523 98.0395L 147.902 92.5082"/>
<path style="stroke:#ff0000; stroke-width:1.9133; fill:none" d="M 186.051 63.5983L 159.265 98.0356"/>
<path style="stroke:#ff0000; stroke-width:1.9133; fill:none" d="M 165.472 93.1723L 159.265 98.0356L 162.453 90.8207"/>
<path style="stroke:#000000; stroke-width:1.9133; fill:none" d="M 153.523 52.1173L 165 52.1173"/>
<path style="stroke:#000000; stroke-width:1.9133; fill:none" d="M 157.351 50.2033L 165.004 52.1133L 157.351 54.0243"/>
<path style="stroke:none; fill-rule:evenodd; fill:#000000" d="M 173.996 54.9853C 173.89 55.0433 173.844 55.0433 173.785 55.0433C 173.445 55.0433 173.258 54.8713 173.258 54.5703L 173.258 51.0043C 173.258 49.9303 172.48 49.3483 171.008 49.3483C 170.14 49.3483 169.422 49.6023 169.019 50.0513C 168.746 50.3593 168.633 50.7073 168.609 51.3093L 169.554 51.3093C 169.633 50.5783 170.058 50.2463 170.941 50.2463C 171.785 50.2463 172.258 50.5673 172.258 51.1453L 172.258 51.3993C 172.258 51.8013 172.023 51.9733 171.281 52.0673C 169.957 52.2383 169.754 52.2853 169.394 52.4343C 168.711 52.7193 168.363 53.2623 168.363 54.0473C 168.363 55.1413 169.117 55.8323 170.328 55.8323C 171.082 55.8323 171.687 55.5593 172.363 54.9143C 172.429 55.5473 172.726 55.8323 173.344 55.8323C 173.535 55.8323 173.683 55.8093 173.992 55.7273L 173.996 54.9853zM 172.254 53.6883C 172.254 54.0163 172.164 54.2193 171.886 54.4923C 171.508 54.8563 171.051 55.0473 170.504 55.0473C 169.781 55.0473 169.355 54.6843 169.355 54.0553C 169.355 53.4063 169.765 53.0743 170.758 52.9223C 171.738 52.7813 171.937 52.7353 172.25 52.5823L 172.254 53.6883z"/>
<path style="stroke:none; fill-rule:evenodd; fill:#000000" d="M 174.754 53.2503L 180.551 53.2503L 180.551 52.4533L 174.754 52.4533L 174.754 53.2503z"/>
<path style="stroke:none; fill-rule:evenodd; fill:#000000" d="M 186.359 51.5553C 186.316 50.9693 186.191 50.5863 185.961 50.2503C 185.554 49.6883 184.836 49.3523 184.008 49.3523C 182.406 49.3523 181.359 50.6453 181.359 52.6563C 181.359 54.6093 182.383 55.8483 183.996 55.8483C 185.418 55.8483 186.316 54.9773 186.429 53.4853L 185.476 53.4853C 185.32 54.4613 184.832 54.9493 184.027 54.9493C 182.984 54.9493 182.359 54.0863 182.359 52.6603C 182.359 51.1523 182.968 50.2543 184.004 50.2543C 184.797 50.2543 185.297 50.7233 185.41 51.5593L 186.359 51.5553z"/>
<path style="stroke:none; fill-rule:evenodd; fill:#000000" d="M 188.355 49.5473L 187.355 49.5473L 187.355 55.5473L 188.355 55.5473L 188.355 49.5473zM 188.355 47.1493L 187.355 47.1493L 187.355 48.3833L 188.355 48.3833L 188.355 47.1493z"/>
<path style="stroke:none; fill-rule:evenodd; fill:#000000" d="M 190.054 49.5243L 190.054 55.5473L 191.054 55.5473L 191.054 52.1993C 191.054 50.9613 191.679 50.1493 192.644 50.1493C 193.383 50.1493 193.851 50.6093 193.851 51.3403L 193.851 55.5433L 194.851 55.5433L 194.851 50.9883C 194.851 49.9883 194.109 49.3443 192.949 49.3443C 192.058 49.3443 191.484 49.6883 190.957 50.5273L 190.957 49.5163L 190.054 49.5243z"/>
<path style="stroke:none; fill-rule:evenodd; fill:#000000" d="M 200.355 49.5473L 200.355 50.4023C 199.875 49.6843 199.289 49.3483 198.519 49.3483C 196.992 49.3483 195.961 50.6883 195.961 52.6523C 195.961 53.6453 196.222 54.4533 196.715 55.0313C 197.16 55.5393 197.801 55.8403 198.433 55.8403C 199.187 55.8403 199.715 55.5123 200.254 54.7273L 200.254 55.0353C 200.254 55.8483 200.152 56.3443 199.914 56.6763C 199.664 57.0313 199.176 57.2353 198.597 57.2353C 198.168 57.2353 197.781 57.1213 197.519 56.9143C 197.304 56.7423 197.215 56.5823 197.156 56.2273L 196.191 56.2273C 196.293 57.3593 197.172 58.0353 198.582 58.0353C 199.472 58.0353 200.238 57.7503 200.629 57.2703C 201.086 56.7233 201.258 55.9653 201.258 54.5553L 201.258 49.5393L 200.355 49.5473zM 198.617 50.2503C 199.644 50.2503 200.254 51.1253 200.254 52.6333C 200.254 54.0703 199.636 54.9453 198.629 54.9453C 197.586 54.9453 196.957 54.0593 196.957 52.5983C 196.957 51.1493 197.597 50.2503 198.617 50.2503z"/>
<path style="stroke:none; fill-rule:evenodd; fill:#000000" d="M 173.453 17.9223L 173.453 23.9453L 174.453 23.9453L 174.453 20.1373C 174.453 19.2583 175.078 18.5513 175.847 18.5513C 176.551 18.5513 176.949 18.9883 176.949 19.7663L 176.949 23.9453L 177.949 23.9453L 177.949 20.1373C 177.949 19.2583 178.574 18.5513 179.344 18.5513C 180.035 18.5513 180.445 19.0003 180.445 19.7663L 180.445 23.9453L 181.445 23.9453L 181.445 19.4263C 181.445 18.3483 180.824 17.7503 179.691 17.7503C 178.886 17.7503 178.398 17.9923 177.836 18.6803C 177.48 18.0313 176.996 17.7503 176.211 17.7503C 175.406 17.7503 174.875 18.0473 174.355 18.7703L 174.355 17.9223L 173.453 17.9223z"/>
<path style="stroke:none; fill-rule:evenodd; fill:#000000" d="M 185.39 17.7503C 183.687 17.7503 182.656 18.9653 182.656 21.0003C 182.656 23.0353 183.676 24.2503 185.406 24.2503C 187.109 24.2503 188.156 23.0393 188.156 21.0513C 188.156 18.9613 187.148 17.7583 185.398 17.7583L 185.39 17.7503zM 185.406 18.6493C 186.5 18.6493 187.156 19.5353 187.156 21.0313C 187.156 22.4453 186.48 23.3443 185.406 23.3443C 184.324 23.3443 183.656 22.4573 183.656 20.9963C 183.656 19.5473 184.32 18.6493 185.406 18.6493z"/>
<path style="stroke:none; fill-rule:evenodd; fill:#000000" d="M 191.453 17.9493L 190.554 17.9493L 190.554 16.2813L 189.554 16.2813L 189.554 17.9493L 188.656 17.9493L 188.656 18.7463L 189.554 18.7463L 189.554 23.2933C 189.554 23.8993 189.957 24.2423 190.687 24.2423C 190.91 24.2423 191.136 24.2193 191.449 24.1603L 191.449 23.3243C 191.336 23.4143 191.199 23.4423 191.031 23.4423C 190.656 23.4423 190.551 23.3283 190.551 22.8993L 190.551 18.7463L 191.449 18.7463L 191.453 17.9493z"/>
<path style="stroke:none; fill-rule:evenodd; fill:#000000" d="M 194.89 17.7503C 193.187 17.7503 192.156 18.9653 192.156 21.0003C 192.156 23.0353 193.176 24.2503 194.906 24.2503C 196.609 24.2503 197.656 23.0393 197.656 21.0513C 197.656 18.9613 196.648 17.7583 194.898 17.7583L 194.89 17.7503zM 194.906 18.6493C 196 18.6493 196.656 19.5353 196.656 21.0313C 196.656 22.4453 195.98 23.3443 194.906 23.3443C 193.824 23.3443 193.156 22.4573 193.156 20.9963C 193.156 19.5473 193.82 18.6493 194.906 18.6493z"/>
<path style="stroke:none; fill-rule:evenodd; fill:#000000" d="M 198.953 17.9223L 198.953 23.9453L 199.953 23.9453L 199.953 20.8133C 199.953 19.9493 200.164 19.3873 200.613 19.0513C 200.902 18.8323 201.183 18.7663 201.836 18.7543L 201.836 17.7893C 201.679 17.7703 201.601 17.7583 201.476 17.7583C 200.867 17.7583 200.402 18.1253 199.855 19.0203L 199.855 17.9303L 198.953 17.9223z"/>
<path style="stroke:none; fill-rule:evenodd; fill:#000000" d="M 173.254 37.9533L 174.254 37.9533L 174.254 34.8523C 174.754 35.4733 175.316 35.7503 176.09 35.7503C 177.633 35.7503 178.648 34.4923 178.648 32.5593C 178.648 30.5273 177.664 29.2543 176.066 29.2543C 175.254 29.2543 174.597 29.6213 174.152 30.3323L 174.152 29.4263L 173.254 29.4263L 173.254 37.9533zM 175.918 30.1493C 176.965 30.1493 177.648 31.0823 177.648 32.5313C 177.648 33.9063 176.953 34.8443 175.918 34.8443C 174.914 34.8443 174.254 33.9183 174.254 32.4963C 174.254 31.0743 174.914 30.1493 175.918 30.1493z"/>
<path style="stroke:none; fill-rule:evenodd; fill:#000000" d="M 179.855 35.4493L 180.855 35.4493L 180.855 27.0513L 179.855 27.0513L 179.855 35.4493z"/>
<path style="stroke:none; fill-rule:evenodd; fill:#000000" d="M 187.695 34.8873C 187.59 34.9453 187.543 34.9453 187.484 34.9453C 187.144 34.9453 186.957 34.7743 186.957 34.4733L 186.957 30.9063C 186.957 29.8323 186.179 29.2503 184.707 29.2503C 183.84 29.2503 183.121 29.5043 182.718 29.9533C 182.445 30.2623 182.332 30.6093 182.308 31.2113L 183.254 31.2113C 183.332 30.4813 183.758 30.1493 184.64 30.1493C 185.484 30.1493 185.957 30.4693 185.957 31.0473L 185.957 31.3013C 185.957 31.7033 185.722 31.8753 184.98 31.9693C 183.656 32.1413 183.453 32.1883 183.094 32.3363C 182.41 32.6213 182.062 33.1643 182.062 33.9493C 182.062 35.0433 182.816 35.7353 184.027 35.7353C 184.781 35.7353 185.386 35.4613 186.062 34.8173C 186.129 35.4493 186.426 35.7353 187.043 35.7353C 187.234 35.7353 187.383 35.7113 187.691 35.6293L 187.695 34.8873zM 185.953 33.5863C 185.953 33.9143 185.863 34.1173 185.586 34.3913C 185.207 34.7543 184.75 34.9453 184.203 34.9453C 183.48 34.9453 183.054 34.5823 183.054 33.9533C 183.054 33.3053 183.465 32.9733 184.457 32.8203C 185.437 32.6803 185.636 32.6333 185.949 32.4813L 185.953 33.5863z"/>
<path style="stroke:none; fill-rule:evenodd; fill:#000000" d="M 188.754 29.4223L 188.754 35.4453L 189.754 35.4453L 189.754 32.0983C 189.754 30.8593 190.379 30.0473 191.344 30.0473C 192.082 30.0473 192.551 30.5083 192.551 31.2383L 192.551 35.4423L 193.551 35.4423L 193.551 30.8873C 193.551 29.8873 192.808 29.2423 191.648 29.2423C 190.758 29.2423 190.183 29.5863 189.656 30.4263L 189.656 29.4143L 188.754 29.4223z"/>
<path style="stroke:#000000; stroke-width:1.9133; fill:none" d="M 222.402 63.5983L 266.406 63.5983L 266.406 40.6413L 222.402 40.6413L 222.402 63.5983z"/>
<path style="stroke:none; fill-rule:evenodd; fill:#000000" d="M 231.355 49.5243L 231.355 55.5473L 232.355 55.5473L 232.355 51.7383C 232.355 50.8593 232.98 50.1523 233.75 50.1523C 234.453 50.1523 234.851 50.5903 234.851 51.3673L 234.851 55.5473L 235.851 55.5473L 235.851 51.7383C 235.851 50.8593 236.476 50.1523 237.246 50.1523C 237.937 50.1523 238.347 50.6023 238.347 51.3673L 238.347 55.5473L 239.347 55.5473L 239.347 51.0273C 239.347 49.9493 238.726 49.3523 237.594 49.3523C 236.789 49.3523 236.301 49.5943 235.738 50.2813C 235.383 49.6333 234.898 49.3523 234.113 49.3523C 233.308 49.3523 232.777 49.6493 232.258 50.3713L 232.258 49.5243L 231.355 49.5243z"/>
<path style="stroke:none; fill-rule:evenodd; fill:#000000" d="M 243.191 49.3483C 241.488 49.3483 240.457 50.5633 240.457 52.5983C 240.457 54.6333 241.476 55.8483 243.207 55.8483C 244.91 55.8483 245.957 54.6373 245.957 52.6493C 245.957 50.5593 244.949 49.3563 243.199 49.3563L 243.191 49.3483zM 243.203 50.2503C 244.297 50.2503 244.953 51.1373 244.953 52.6333C 244.953 54.0473 244.277 54.9453 243.203 54.9453C 242.121 54.9453 241.453 54.0593 241.453 52.5983C 241.453 51.1493 242.117 50.2503 243.203 50.2503z"/>
<path style="stroke:none; fill-rule:evenodd; fill:#000000" d="M 249.355 49.5473L 248.457 49.5473L 248.457 47.8793L 247.457 47.8793L 247.457 49.5473L 246.558 49.5473L 246.558 50.3443L 247.457 50.3443L 247.457 54.8913C 247.457 55.4963 247.859 55.8403 248.59 55.8403C 248.812 55.8403 249.039 55.8173 249.351 55.7583L 249.351 54.9223C 249.238 55.0123 249.101 55.0393 248.933 55.0393C 248.558 55.0393 248.453 54.9263 248.453 54.4963L 248.453 50.3443L 249.351 50.3443L 249.355 49.5473z"/>
<path style="stroke:none; fill-rule:evenodd; fill:#000000" d="M 252.793 49.3483C 251.09 49.3483 250.058 50.5633 250.058 52.5983C 250.058 54.6333 251.078 55.8483 252.808 55.8483C 254.511 55.8483 255.558 54.6373 255.558 52.6493C 255.558 50.5593 254.551 49.3563 252.801 49.3563L 252.793 49.3483zM 252.804 50.2503C 253.898 50.2503 254.554 51.1373 254.554 52.6333C 254.554 54.0473 253.879 54.9453 252.804 54.9453C 251.722 54.9453 251.054 54.0593 251.054 52.5983C 251.054 51.1493 251.718 50.2503 252.804 50.2503z"/>
<path style="stroke:none; fill-rule:evenodd; fill:#000000" d="M 256.855 49.5243L 256.855 55.5473L 257.855 55.5473L 257.855 52.4143C 257.855 51.5513 258.066 50.9883 258.515 50.6523C 258.804 50.4343 259.086 50.3673 259.738 50.3563L 259.738 49.3913C 259.582 49.3713 259.504 49.3593 259.379 49.3593C 258.769 49.3593 258.304 49.7273 257.758 50.6213L 257.758 49.5313L 256.855 49.5243z"/>
<path style="stroke:#000000; stroke-width:1.9133; fill:none" d="M 199.441 120.997L 243.445 120.997L 243.445 98.0395L 199.441 98.0395L 199.441 120.997z"/>
<path style="stroke:none; fill-rule:evenodd; fill:#000000" d="M 209.453 104.547L 208.453 104.547L 208.453 107.688C 208.054 107.075 207.418 106.747 206.617 106.747C 205.07 106.747 204.054 108.004 204.054 109.938C 204.054 111.985 205.066 113.243 206.707 113.243C 207.543 113.243 208.125 112.922 208.648 112.153L 208.648 112.942L 209.445 112.942L 209.453 104.547zM 206.781 107.649C 207.801 107.649 208.449 108.575 208.449 110.02C 208.449 111.418 207.793 112.344 206.793 112.344C 205.75 112.344 205.054 111.407 205.054 109.997C 205.054 108.586 205.746 107.649 206.781 107.649z"/>
<path style="stroke:none; fill-rule:evenodd; fill:#000000" d="M 210.656 110.649L 216.453 110.649L 216.453 109.852L 210.656 109.852L 210.656 110.649z"/>
<path style="stroke:none; fill-rule:evenodd; fill:#000000" d="M 221.883 108.61C 221.871 107.422 221.086 106.75 219.683 106.75C 218.273 106.75 217.359 107.477 217.359 108.598C 217.359 109.543 217.847 109.993 219.297 110.34L 220.207 110.559C 220.883 110.719 221.152 110.961 221.152 111.399C 221.152 111.961 220.586 112.344 219.742 112.344C 219.222 112.344 218.785 112.196 218.543 111.938C 218.394 111.766 218.324 111.59 218.265 111.157L 217.25 111.157C 217.293 112.567 218.078 113.247 219.66 113.247C 221.183 113.247 222.152 112.497 222.152 111.333C 222.152 110.434 221.64 109.938 220.426 109.649L 219.492 109.43C 218.699 109.247 218.359 108.993 218.359 108.567C 218.359 108.016 218.855 107.657 219.644 107.657C 220.418 107.657 220.836 107.985 220.859 108.614L 221.883 108.61z"/>
<path style="stroke:none; fill-rule:evenodd; fill:#000000" d="M 225.453 106.95L 224.554 106.95L 224.554 105.282L 223.554 105.282L 223.554 106.95L 222.656 106.95L 222.656 107.747L 223.554 107.747L 223.554 112.293C 223.554 112.899 223.957 113.243 224.687 113.243C 224.91 113.243 225.136 113.219 225.449 113.161L 225.449 112.325C 225.336 112.415 225.199 112.442 225.031 112.442C 224.656 112.442 224.551 112.328 224.551 111.899L 224.551 107.747L 225.449 107.747L 225.453 106.95z"/>
<path style="stroke:none; fill-rule:evenodd; fill:#000000" d="M 226.554 106.922L 226.554 112.946L 227.554 112.946L 227.554 109.813C 227.554 108.95 227.765 108.387 228.215 108.051C 228.504 107.833 228.785 107.766 229.437 107.754L 229.437 106.79C 229.281 106.77 229.203 106.758 229.078 106.758C 228.468 106.758 228.004 107.125 227.457 108.02L 227.457 106.93L 226.554 106.922z"/>
<path style="stroke:none; fill-rule:evenodd; fill:#000000" d="M 231.254 106.95L 230.254 106.95L 230.254 112.95L 231.254 112.95L 231.254 106.95zM 231.254 104.547L 230.254 104.547L 230.254 105.782L 231.254 105.782L 231.254 104.547z"/>
<path style="stroke:none; fill-rule:evenodd; fill:#000000" d="M 238.297 112.387C 238.191 112.446 238.144 112.446 238.086 112.446C 237.746 112.446 237.558 112.274 237.558 111.973L 237.558 108.407C 237.558 107.333 236.781 106.75 235.308 106.75C 234.441 106.75 233.722 107.004 233.32 107.453C 233.047 107.762 232.933 108.11 232.91 108.711L 233.855 108.711C 233.933 107.981 234.359 107.649 235.242 107.649C 236.086 107.649 236.558 107.969 236.558 108.547L 236.558 108.801C 236.558 109.203 236.324 109.375 235.582 109.469C 234.258 109.641 234.054 109.688 233.695 109.836C 233.011 110.122 232.664 110.665 232.664 111.45C 232.664 112.543 233.418 113.235 234.629 113.235C 235.383 113.235 235.988 112.961 236.664 112.317C 236.73 112.95 237.027 113.235 237.644 113.235C 237.836 113.235 237.984 113.211 238.293 113.129L 238.297 112.387zM 236.554 111.086C 236.554 111.415 236.465 111.618 236.187 111.891C 235.808 112.254 235.351 112.446 234.804 112.446C 234.082 112.446 233.656 112.083 233.656 111.453C 233.656 110.805 234.066 110.473 235.058 110.321C 236.039 110.18 236.238 110.133 236.551 109.981L 236.554 111.086z"/>
<path style="stroke:#000000; stroke-width:1.9133; fill:none" d="M 178.398 109.516L 199.441 109.516"/>
<path style="stroke:#000000; stroke-width:1.9133; fill:none" d="M 191.789 107.606L 199.441 109.516L 191.789 111.426"/>
<path style="stroke:#000000; stroke-width:1.9133; fill:none" d="M 218.578 98.0395L 243.449 63.6023"/>
<path style="stroke:#000000; stroke-width:1.9133; fill:none" d="M 237.418 68.6843L 243.449 63.6023L 240.519 70.9223"/>
<path style="stroke:none; fill-rule:evenodd; fill:#000000" d="M 232.394 34.8873C 232.289 34.9453 232.242 34.9453 232.183 34.9453C 231.844 34.9453 231.656 34.7743 231.656 34.4733L 231.656 30.9063C 231.656 29.8323 230.879 29.2503 229.406 29.2503C 228.539 29.2503 227.82 29.5043 227.418 29.9533C 227.144 30.2623 227.031 30.6093 227.008 31.2113L 227.953 31.2113C 228.031 30.4813 228.457 30.1493 229.34 30.1493C 230.183 30.1493 230.656 30.4693 230.656 31.0473L 230.656 31.3013C 230.656 31.7033 230.422 31.8753 229.679 31.9693C 228.355 32.1413 228.152 32.1883 227.793 32.3363C 227.109 32.6213 226.761 33.1643 226.761 33.9493C 226.761 35.0433 227.515 35.7353 228.726 35.7353C 229.48 35.7353 230.086 35.4613 230.761 34.8173C 230.828 35.4493 231.125 35.7353 231.742 35.7353C 231.933 35.7353 232.082 35.7113 232.39 35.6293L 232.394 34.8873zM 230.656 33.5863C 230.656 33.9143 230.566 34.1173 230.289 34.3913C 229.91 34.7543 229.453 34.9453 228.906 34.9453C 228.183 34.9453 227.758 34.5823 227.758 33.9533C 227.758 33.3053 228.168 32.9733 229.16 32.8203C 230.14 32.6803 230.34 32.6333 230.652 32.4813L 230.656 33.5863z"/>
<path style="stroke:none; fill-rule:evenodd; fill:#000000" d="M 238.062 31.4533C 238.019 30.8673 237.894 30.4853 237.664 30.1493C 237.258 29.5863 236.539 29.2503 235.711 29.2503C 234.109 29.2503 233.062 30.5433 233.062 32.5553C 233.062 34.5083 234.086 35.7463 235.699 35.7463C 237.121 35.7463 238.019 34.8753 238.133 33.3833L 237.179 33.3833C 237.023 34.3593 236.535 34.8483 235.73 34.8483C 234.687 34.8483 234.062 33.9853 234.062 32.5593C 234.062 31.0513 234.672 30.1523 235.707 30.1523C 236.5 30.1523 237 30.6213 237.113 31.4573L 238.062 31.4533z"/>
<path style="stroke:none; fill-rule:evenodd; fill:#000000" d="M 241.254 29.4493L 240.355 29.4493L 240.355 27.7813L 239.355 27.7813L 239.355 29.4493L 238.457 29.4493L 238.457 30.2463L 239.355 30.2463L 239.355 34.7933C 239.355 35.3993 239.758 35.7423 240.488 35.7423C 240.711 35.7423 240.937 35.7193 241.25 35.6603L 241.25 34.8243C 241.136 34.9143 241 34.9423 240.832 34.9423C 240.457 34.9423 240.351 34.8283 240.351 34.3993L 240.351 30.2463L 241.25 30.2463L 241.254 29.4493z"/>
<path style="stroke:none; fill-rule:evenodd; fill:#000000" d="M 243.254 29.4493L 242.254 29.4493L 242.254 35.4493L 243.254 35.4493L 243.254 29.4493zM 243.254 27.0473L 242.254 27.0473L 242.254 28.2813L 243.254 28.2813L 243.254 27.0473z"/>
<path style="stroke:none; fill-rule:evenodd; fill:#000000" d="M 247.191 29.2503C 245.488 29.2503 244.457 30.4653 244.457 32.5003C 244.457 34.5353 245.476 35.7503 247.207 35.7503C 248.91 35.7503 249.957 34.5393 249.957 32.5513C 249.957 30.4613 248.949 29.2583 247.199 29.2583L 247.191 29.2503zM 247.203 30.1493C 248.297 30.1493 248.953 31.0353 248.953 32.5313C 248.953 33.9453 248.277 34.8443 247.203 34.8443C 246.121 34.8443 245.453 33.9573 245.453 32.4963C 245.453 31.0473 246.117 30.1493 247.203 30.1493z"/>
<path style="stroke:none; fill-rule:evenodd; fill:#000000" d="M 251.254 29.4223L 251.254 35.4453L 252.254 35.4453L 252.254 32.0983C 252.254 30.8593 252.879 30.0473 253.844 30.0473C 254.582 30.0473 255.051 30.5083 255.051 31.2383L 255.051 35.4423L 256.051 35.4423L 256.051 30.8873C 256.051 29.8873 255.308 29.2423 254.148 29.2423C 253.258 29.2423 252.683 29.5863 252.156 30.4263L 252.156 29.4143L 251.254 29.4223z"/>
<path style="stroke:#000000; stroke-width:1.9133; fill:none" d="M 65.5117 63.5983C 65.5117 63.5983 65.5117 63.5983 68.3789 64.5513C 71.246 65.5043 76.9882 67.4183 87.5112 69.6523C 98.0312 71.8833 113.34 74.4343 127.371 74.7543C 141.398 75.0703 154.156 73.1603 162.445 70.9303C 170.734 68.6993 174.562 66.1493 176.472 64.8713C 178.383 63.5983 178.383 63.5983 178.383 63.5983"/>
<path style="stroke:#000000; stroke-width:1.9133; fill:none" d="M 170.968 66.2503L 178.394 63.5983L 173.09 69.4343"/>
<path style="stroke:#000000; stroke-width:1.9133; fill:none" d="M 71.2539 52.1173C 71.2539 52.1173 71.2539 52.1173 77.6289 52.1173C 109.515 52.1173 109.515 52.1173 109.515 52.1173"/>
<path style="stroke:#000000; stroke-width:1.9133; fill:none" d="M 101.867 50.2033L 109.519 52.1133L 101.867 54.0243"/>
<path style="stroke:none; fill-rule:evenodd; fill:#000000" d="M 202.156 125.122L 202.156 131.145L 203.156 131.145L 203.156 127.336C 203.156 126.458 203.781 125.75 204.551 125.75C 205.254 125.75 205.652 126.188 205.652 126.965L 205.652 131.145L 206.652 131.145L 206.652 127.336C 206.652 126.458 207.277 125.75 208.047 125.75C 208.738 125.75 209.148 126.2 209.148 126.965L 209.148 131.145L 210.148 131.145L 210.148 126.625C 210.148 125.547 209.527 124.95 208.394 124.95C 207.59 124.95 207.101 125.192 206.539 125.879C 206.183 125.231 205.699 124.95 204.914 124.95C 204.109 124.95 203.578 125.247 203.058 125.969L 203.058 125.122L 202.156 125.122z"/>
<path style="stroke:none; fill-rule:evenodd; fill:#000000" d="M 214.094 124.95C 212.39 124.95 211.359 126.165 211.359 128.2C 211.359 130.235 212.379 131.45 214.109 131.45C 215.812 131.45 216.859 130.239 216.859 128.25C 216.859 126.161 215.851 124.958 214.101 124.958L 214.094 124.95zM 214.105 125.848C 215.199 125.848 215.855 126.735 215.855 128.231C 215.855 129.645 215.179 130.543 214.105 130.543C 213.023 130.543 212.355 129.657 212.355 128.196C 212.355 126.747 213.019 125.848 214.105 125.848z"/>
<path style="stroke:none; fill-rule:evenodd; fill:#000000" d="M 220.156 125.149L 219.258 125.149L 219.258 123.481L 218.258 123.481L 218.258 125.149L 217.359 125.149L 217.359 125.946L 218.258 125.946L 218.258 130.493C 218.258 131.098 218.66 131.442 219.39 131.442C 219.613 131.442 219.84 131.418 220.152 131.36L 220.152 130.524C 220.039 130.614 219.902 130.641 219.734 130.641C 219.359 130.641 219.254 130.528 219.254 130.098L 219.254 125.946L 220.152 125.946L 220.156 125.149z"/>
<path style="stroke:none; fill-rule:evenodd; fill:#000000" d="M 223.594 124.95C 221.89 124.95 220.859 126.165 220.859 128.2C 220.859 130.235 221.879 131.45 223.609 131.45C 225.312 131.45 226.359 130.239 226.359 128.25C 226.359 126.161 225.351 124.958 223.601 124.958L 223.594 124.95zM 223.605 125.848C 224.699 125.848 225.355 126.735 225.355 128.231C 225.355 129.645 224.679 130.543 223.605 130.543C 222.523 130.543 221.855 129.657 221.855 128.196C 221.855 126.747 222.519 125.848 223.605 125.848z"/>
<path style="stroke:none; fill-rule:evenodd; fill:#000000" d="M 227.656 125.122L 227.656 131.145L 228.656 131.145L 228.656 128.012C 228.656 127.149 228.867 126.586 229.316 126.25C 229.605 126.032 229.886 125.965 230.539 125.954L 230.539 124.989C 230.383 124.969 230.304 124.958 230.179 124.958C 229.57 124.958 229.105 125.325 228.558 126.219L 228.558 125.129L 227.656 125.122z"/>
<path style="stroke:none; fill-rule:evenodd; fill:#000000" d="M 203.054 136.547L 202.054 136.547L 202.054 142.547L 203.054 142.547L 203.054 136.547zM 203.054 134.149L 202.054 134.149L 202.054 135.383L 203.054 135.383L 203.054 134.149z"/>
<path style="stroke:none; fill-rule:evenodd; fill:#000000" d="M 204.754 136.524L 204.754 142.547L 205.754 142.547L 205.754 139.2C 205.754 137.961 206.379 137.149 207.344 137.149C 208.082 137.149 208.551 137.61 208.551 138.34L 208.551 142.543L 209.551 142.543L 209.551 137.989C 209.551 136.989 208.808 136.344 207.648 136.344C 206.758 136.344 206.183 136.688 205.656 137.528L 205.656 136.516L 204.754 136.524z"/>
<path style="stroke:none; fill-rule:evenodd; fill:#000000" d="M 211.953 136.547L 210.953 136.547L 210.953 142.547L 211.953 142.547L 211.953 136.547zM 211.953 134.149L 210.953 134.149L 210.953 135.383L 211.953 135.383L 211.953 134.149z"/>
<path style="stroke:none; fill-rule:evenodd; fill:#000000" d="M 215.754 136.547L 214.855 136.547L 214.855 134.879L 213.855 134.879L 213.855 136.547L 212.957 136.547L 212.957 137.344L 213.855 137.344L 213.855 141.891C 213.855 142.497 214.258 142.84 214.988 142.84C 215.211 142.84 215.437 142.817 215.75 142.758L 215.75 141.922C 215.636 142.012 215.5 142.04 215.332 142.04C 214.957 142.04 214.851 141.926 214.851 141.497L 214.851 137.344L 215.75 137.344L 215.754 136.547z"/>
<path style="stroke:none; fill-rule:evenodd; fill:#000000" d="M 217.754 136.547L 216.754 136.547L 216.754 142.547L 217.754 142.547L 217.754 136.547zM 217.754 134.149L 216.754 134.149L 216.754 135.383L 217.754 135.383L 217.754 134.149z"/>
<path style="stroke:none; fill-rule:evenodd; fill:#000000" d="M 224.695 141.985C 224.59 142.043 224.543 142.043 224.484 142.043C 224.144 142.043 223.957 141.872 223.957 141.571L 223.957 138.004C 223.957 136.93 223.179 136.348 221.707 136.348C 220.84 136.348 220.121 136.602 219.718 137.051C 219.445 137.36 219.332 137.708 219.308 138.309L 220.254 138.309C 220.332 137.579 220.758 137.247 221.64 137.247C 222.484 137.247 222.957 137.567 222.957 138.145L 222.957 138.399C 222.957 138.801 222.722 138.973 221.98 139.067C 220.656 139.239 220.453 139.286 220.094 139.434C 219.41 139.719 219.062 140.262 219.062 141.047C 219.062 142.141 219.816 142.833 221.027 142.833C 221.781 142.833 222.386 142.559 223.062 141.915C 223.129 142.547 223.426 142.833 224.043 142.833C 224.234 142.833 224.383 142.809 224.691 142.727L 224.695 141.985zM 222.953 140.688C 222.953 141.016 222.863 141.219 222.586 141.493C 222.207 141.856 221.75 142.047 221.203 142.047C 220.48 142.047 220.054 141.684 220.054 141.055C 220.054 140.407 220.465 140.075 221.457 139.922C 222.437 139.782 222.636 139.735 222.949 139.583L 222.953 140.688z"/>
<path style="stroke:none; fill-rule:evenodd; fill:#000000" d="M 227.855 136.547L 226.957 136.547L 226.957 134.879L 225.957 134.879L 225.957 136.547L 225.058 136.547L 225.058 137.344L 225.957 137.344L 225.957 141.891C 225.957 142.497 226.359 142.84 227.09 142.84C 227.312 142.84 227.539 142.817 227.851 142.758L 227.851 141.922C 227.738 142.012 227.601 142.04 227.433 142.04C 227.058 142.04 226.953 141.926 226.953 141.497L 226.953 137.344L 227.851 137.344L 227.855 136.547z"/>
<path style="stroke:none; fill-rule:evenodd; fill:#000000" d="M 229.855 136.547L 228.855 136.547L 228.855 142.547L 229.855 142.547L 229.855 136.547zM 229.855 134.149L 228.855 134.149L 228.855 135.383L 229.855 135.383L 229.855 134.149z"/>
<path style="stroke:none; fill-rule:evenodd; fill:#000000" d="M 233.793 136.348C 232.09 136.348 231.058 137.563 231.058 139.598C 231.058 141.633 232.078 142.848 233.808 142.848C 235.511 142.848 236.558 141.637 236.558 139.649C 236.558 137.559 235.551 136.356 233.801 136.356L 233.793 136.348zM 233.804 137.25C 234.898 137.25 235.554 138.137 235.554 139.633C 235.554 141.047 234.879 141.946 233.804 141.946C 232.722 141.946 232.054 141.059 232.054 139.598C 232.054 138.149 232.718 137.25 233.804 137.25z"/>
<path style="stroke:none; fill-rule:evenodd; fill:#000000" d="M 237.855 136.524L 237.855 142.547L 238.855 142.547L 238.855 139.2C 238.855 137.961 239.48 137.149 240.445 137.149C 241.183 137.149 241.652 137.61 241.652 138.34L 241.652 142.543L 242.652 142.543L 242.652 137.989C 242.652 136.989 241.91 136.344 240.75 136.344C 239.859 136.344 239.285 136.688 238.758 137.528L 238.758 136.516L 237.855 136.524z"/>
<path style="stroke:none; fill-rule:evenodd; fill:#000000" d="M 181.355 121.547L 184.609 121.547C 186.738 121.547 188.051 119.958 188.051 117.344C 188.051 114.743 186.754 113.153 184.609 113.153L 181.355 113.153L 181.355 121.547zM 182.453 120.649L 182.453 114.051L 184.426 114.051C 186.078 114.051 186.949 115.184 186.949 117.356C 186.949 119.504 186.078 120.649 184.426 120.649L 182.453 120.649z"/>
<path style="stroke:none; fill-rule:evenodd; fill:#000000" d="M 193.996 119.047L 194.855 121.547L 196.047 121.547L 193.109 113.149L 191.734 113.149L 188.75 121.547L 189.883 121.547L 190.765 119.047L 193.996 119.047zM 193.699 118.149L 191.039 118.149L 192.414 114.328L 193.699 118.149z"/>
<path style="stroke:none; fill-rule:evenodd; fill:#00ff00" d="M 31.6562 87.6528L 32.6562 87.6528L 32.6562 84.5513C 33.1562 85.1723 33.7187 85.4493 34.4921 85.4493C 36.0351 85.4493 37.0507 84.1923 37.0507 82.2583C 37.0507 80.2273 36.0664 78.9533 34.4687 78.9533C 33.6562 78.9533 33 79.3203 32.5546 80.0313L 32.5546 79.1253L 31.6562 79.1253L 31.6562 87.6528zM 34.3203 79.8483C 35.3671 79.8483 36.0507 80.7813 36.0507 82.2313C 36.0507 83.6063 35.3554 84.5433 34.3203 84.5433C 33.3164 84.5433 32.6562 83.6173 32.6562 82.1953C 32.6562 80.7743 33.3164 79.8483 34.3203 79.8483z"/>
<path style="stroke:none; fill-rule:evenodd; fill:#00ff00" d="M 43.5976 84.5863C 43.4921 84.6453 43.4453 84.6453 43.3867 84.6453C 43.0468 84.6453 42.8593 84.4733 42.8593 84.1723L 42.8593 80.6063C 42.8593 79.5313 42.082 78.9493 40.6093 78.9493C 39.7421 78.9493 39.0234 79.2033 38.621 79.6523C 38.3476 79.9613 38.2343 80.3093 38.2109 80.9103L 39.1562 80.9103C 39.2343 80.1803 39.6601 79.8483 40.5429 79.8483C 41.3867 79.8483 41.8593 80.1683 41.8593 80.7463L 41.8593 81.0003C 41.8593 81.4023 41.625 81.5743 40.8828 81.6683C 39.5585 81.8403 39.3554 81.8873 38.996 82.0353C 38.3124 82.3203 37.9648 82.8633 37.9648 83.6493C 37.9648 84.7423 38.7187 85.4343 39.9296 85.4343C 40.6835 85.4343 41.289 85.1603 41.9648 84.5163C 42.0312 85.1493 42.3281 85.4343 42.9453 85.4343C 43.1367 85.4343 43.2851 85.4103 43.5937 85.3283L 43.5976 84.5863zM 41.8554 83.2893C 41.8554 83.6173 41.7656 83.8203 41.4882 84.0943C 41.1093 84.4573 40.6523 84.6493 40.1054 84.6493C 39.3828 84.6493 38.957 84.2853 38.957 83.6563C 38.957 83.0083 39.3671 82.6763 40.3593 82.5243C 41.3398 82.3833 41.539 82.3363 41.8515 82.1843L 41.8554 83.2893z"/>
<path style="stroke:none; fill-rule:evenodd; fill:#00ff00" d="M 47.125 85.1493L 49.4296 79.1493L 48.3515 79.1493L 46.6562 84.0083L 45.0507 79.1493L 43.9726 79.1493L 46.082 85.1493L 47.125 85.1493z"/>
<path style="stroke:none; fill-rule:evenodd; fill:#00ff00" d="M 50.3554 85.1493L 51.3554 85.1493L 51.3554 76.7503L 50.3554 76.7503L 50.3554 85.1493z"/>
<path style="stroke:none; fill-rule:evenodd; fill:#00ff00" d="M 55.2929 78.9493C 53.5898 78.9493 52.5585 80.1643 52.5585 82.1993C 52.5585 84.2353 53.5781 85.4493 55.3085 85.4493C 57.0117 85.4493 58.0585 84.2383 58.0585 82.2503C 58.0585 80.1603 57.0507 78.9573 55.3007 78.9573L 55.2929 78.9493zM 55.3046 79.8483C 56.3984 79.8483 57.0546 80.7353 57.0546 82.2313C 57.0546 83.6453 56.3789 84.5433 55.3046 84.5433C 54.2226 84.5433 53.5546 83.6563 53.5546 82.1953C 53.5546 80.7463 54.2187 79.8483 55.3046 79.8483z"/>
<path style="stroke:none; fill-rule:evenodd; fill:#00ff00" d="M 61.8281 85.1493L 64.1328 79.1493L 63.0546 79.1493L 61.3593 84.0083L 59.7539 79.1493L 58.6757 79.1493L 60.7851 85.1493L 61.8281 85.1493z"/>
<path style="stroke:none; fill-rule:evenodd; fill:#000000" d="M 104.554 17.9223L 104.554 23.9453L 105.554 23.9453L 105.554 20.8133C 105.554 19.9493 105.765 19.3873 106.215 19.0513C 106.504 18.8323 106.785 18.7663 107.437 18.7543L 107.437 17.7893C 107.281 17.7703 107.203 17.7583 107.078 17.7583C 106.468 17.7583 106.004 18.1253 105.457 19.0203L 105.457 17.9303L 104.554 17.9223z"/>
<path style="stroke:none; fill-rule:evenodd; fill:#000000" d="M 108.054 21.6493L 113.851 21.6493L 113.851 20.8523L 108.054 20.8523L 108.054 21.6493z"/>
<path style="stroke:none; fill-rule:evenodd; fill:#000000" d="M 119.383 19.6093C 119.371 18.4223 118.586 17.7503 117.183 17.7503C 115.773 17.7503 114.859 18.4773 114.859 19.5983C 114.859 20.5433 115.347 20.9923 116.797 21.3403L 117.707 21.5593C 118.383 21.7193 118.652 21.9613 118.652 22.3993C 118.652 22.9613 118.086 23.3443 117.242 23.3443C 116.722 23.3443 116.285 23.1953 116.043 22.9383C 115.894 22.7663 115.824 22.5903 115.765 22.1563L 114.75 22.1563C 114.793 23.5673 115.578 24.2463 117.16 24.2463C 118.683 24.2463 119.652 23.4963 119.652 22.3323C 119.652 21.4343 119.14 20.9383 117.926 20.6493L 116.992 20.4303C 116.199 20.2463 115.859 19.9923 115.859 19.5673C 115.859 19.0163 116.355 18.6563 117.144 18.6563C 117.918 18.6563 118.336 18.9853 118.359 19.6133L 119.383 19.6093z"/>
<path style="stroke:none; fill-rule:evenodd; fill:#000000" d="M 120.656 26.4533L 121.656 26.4533L 121.656 23.3523C 122.156 23.9733 122.718 24.2503 123.492 24.2503C 125.035 24.2503 126.051 22.9923 126.051 21.0593C 126.051 19.0273 125.066 17.7543 123.468 17.7543C 122.656 17.7543 122 18.1213 121.554 18.8323L 121.554 17.9263L 120.656 17.9263L 120.656 26.4533zM 123.32 18.6493C 124.367 18.6493 125.051 19.5823 125.051 21.0313C 125.051 22.4063 124.355 23.3443 123.32 23.3443C 122.316 23.3443 121.656 22.4183 121.656 20.9963C 121.656 19.5743 122.316 18.6493 123.32 18.6493z"/>
<path style="stroke:none; fill-rule:evenodd; fill:#000000" d="M 132.355 21.2503C 132.355 20.3323 132.289 19.7813 132.117 19.3363C 131.73 18.3523 130.816 17.7543 129.699 17.7543C 128.035 17.7543 126.961 19.0473 126.961 21.0353C 126.961 23.0243 127.996 24.2503 129.672 24.2503C 131.035 24.2503 131.98 23.4573 132.222 22.1253L 131.269 22.1253C 131.008 22.9303 130.476 23.3483 129.715 23.3483C 129.113 23.3483 128.601 23.0703 128.285 22.5553C 128.058 22.2073 127.98 21.8563 127.968 21.2503L 132.355 21.2503zM 127.933 20.4813C 128.011 19.3673 128.691 18.6453 129.652 18.6453C 130.59 18.6453 131.316 19.4223 131.316 20.4103C 131.316 20.4303 131.316 20.4533 131.304 20.4773L 127.933 20.4813z"/>
<path style="stroke:none; fill-rule:evenodd; fill:#000000" d="M 138.261 19.9533C 138.218 19.3673 138.094 18.9853 137.863 18.6493C 137.457 18.0863 136.738 17.7503 135.91 17.7503C 134.308 17.7503 133.261 19.0433 133.261 21.0553C 133.261 23.0083 134.285 24.2463 135.898 24.2463C 137.32 24.2463 138.218 23.3753 138.332 21.8833L 137.379 21.8833C 137.222 22.8593 136.734 23.3483 135.929 23.3483C 134.886 23.3483 134.261 22.4853 134.261 21.0593C 134.261 19.5513 134.871 18.6523 135.906 18.6523C 136.699 18.6523 137.199 19.1213 137.312 19.9573L 138.261 19.9533z"/>
<path style="stroke:none; fill-rule:evenodd; fill:#000000" d="M 140.254 17.9493L 139.254 17.9493L 139.254 23.9493L 140.254 23.9493L 140.254 17.9493zM 140.254 15.5473L 139.254 15.5473L 139.254 16.7813L 140.254 16.7813L 140.254 15.5473z"/>
<path style="stroke:none; fill-rule:evenodd; fill:#000000" d="M 144.054 17.9493L 143.054 17.9493L 143.054 16.9813C 143.054 16.5673 143.281 16.3523 143.718 16.3523C 143.797 16.3523 143.832 16.3523 144.051 16.3523L 144.051 15.6093C 143.828 15.5673 143.699 15.5593 143.5 15.5593C 142.597 15.5593 142.054 16.0673 142.054 16.9303L 142.054 17.9533L 141.258 17.9533L 141.258 18.7503L 142.054 18.7503L 142.054 23.9493L 143.054 23.9493L 143.054 18.7503L 144.054 18.7503L 144.054 17.9493z"/>
<path style="stroke:none; fill-rule:evenodd; fill:#000000" d="M 145.953 17.9493L 144.953 17.9493L 144.953 23.9493L 145.953 23.9493L 145.953 17.9493zM 145.953 15.5473L 144.953 15.5473L 144.953 16.7813L 145.953 16.7813L 145.953 15.5473z"/>
<path style="stroke:none; fill-rule:evenodd; fill:#000000" d="M 152.261 19.9533C 152.218 19.3673 152.094 18.9853 151.863 18.6493C 151.457 18.0863 150.738 17.7503 149.91 17.7503C 148.308 17.7503 147.261 19.0433 147.261 21.0553C 147.261 23.0083 148.285 24.2463 149.898 24.2463C 151.32 24.2463 152.218 23.3753 152.332 21.8833L 151.379 21.8833C 151.222 22.8593 150.734 23.3483 149.929 23.3483C 148.886 23.3483 148.261 22.4853 148.261 21.0593C 148.261 19.5513 148.871 18.6523 149.906 18.6523C 150.699 18.6523 151.199 19.1213 151.312 19.9573L 152.261 19.9533z"/>
<path style="stroke:none; fill-rule:evenodd; fill:#000000" d="M 104.554 29.4223L 104.554 35.4453L 105.554 35.4453L 105.554 31.6373C 105.554 30.7583 106.179 30.0513 106.949 30.0513C 107.652 30.0513 108.051 30.4883 108.051 31.2663L 108.051 35.4453L 109.051 35.4453L 109.051 31.6373C 109.051 30.7583 109.676 30.0513 110.445 30.0513C 111.136 30.0513 111.547 30.5003 111.547 31.2663L 111.547 35.4453L 112.547 35.4453L 112.547 30.9263C 112.547 29.8483 111.926 29.2503 110.793 29.2503C 109.988 29.2503 109.5 29.4923 108.937 30.1803C 108.582 29.5313 108.097 29.2503 107.312 29.2503C 106.508 29.2503 105.976 29.5473 105.457 30.2703L 105.457 29.4223L 104.554 29.4223z"/>
<path style="stroke:none; fill-rule:evenodd; fill:#000000" d="M 116.492 29.2503C 114.789 29.2503 113.758 30.4653 113.758 32.5003C 113.758 34.5353 114.777 35.7503 116.508 35.7503C 118.211 35.7503 119.258 34.5393 119.258 32.5513C 119.258 30.4613 118.25 29.2583 116.5 29.2583L 116.492 29.2503zM 116.504 30.1493C 117.597 30.1493 118.254 31.0353 118.254 32.5313C 118.254 33.9453 117.578 34.8443 116.504 34.8443C 115.422 34.8443 114.754 33.9573 114.754 32.4963C 114.754 31.0473 115.418 30.1493 116.504 30.1493z"/>
<path style="stroke:none; fill-rule:evenodd; fill:#000000" d="M 122.656 29.4493L 121.758 29.4493L 121.758 27.7813L 120.758 27.7813L 120.758 29.4493L 119.859 29.4493L 119.859 30.2463L 120.758 30.2463L 120.758 34.7933C 120.758 35.3993 121.16 35.7423 121.89 35.7423C 122.113 35.7423 122.34 35.7193 122.652 35.6603L 122.652 34.8243C 122.539 34.9143 122.402 34.9423 122.234 34.9423C 121.859 34.9423 121.754 34.8283 121.754 34.3993L 121.754 30.2463L 122.652 30.2463L 122.656 29.4493z"/>
<path style="stroke:none; fill-rule:evenodd; fill:#000000" d="M 124.656 29.4493L 123.656 29.4493L 123.656 35.4493L 124.656 35.4493L 124.656 29.4493zM 124.656 27.0473L 123.656 27.0473L 123.656 28.2813L 124.656 28.2813L 124.656 27.0473z"/>
<path style="stroke:none; fill-rule:evenodd; fill:#000000" d="M 128.726 35.4493L 131.031 29.4493L 129.953 29.4493L 128.258 34.3093L 126.652 29.4493L 125.574 29.4493L 127.683 35.4493L 128.726 35.4493z"/>
<path style="stroke:none; fill-rule:evenodd; fill:#000000" d="M 137.297 34.8873C 137.191 34.9453 137.144 34.9453 137.086 34.9453C 136.746 34.9453 136.558 34.7743 136.558 34.4733L 136.558 30.9063C 136.558 29.8323 135.781 29.2503 134.308 29.2503C 133.441 29.2503 132.722 29.5043 132.32 29.9533C 132.047 30.2623 131.933 30.6093 131.91 31.2113L 132.855 31.2113C 132.933 30.4813 133.359 30.1493 134.242 30.1493C 135.086 30.1493 135.558 30.4693 135.558 31.0473L 135.558 31.3013C 135.558 31.7033 135.324 31.8753 134.582 31.9693C 133.258 32.1413 133.054 32.1883 132.695 32.3363C 132.011 32.6213 131.664 33.1643 131.664 33.9493C 131.664 35.0433 132.418 35.7353 133.629 35.7353C 134.383 35.7353 134.988 35.4613 135.664 34.8173C 135.73 35.4493 136.027 35.7353 136.644 35.7353C 136.836 35.7353 136.984 35.7113 137.293 35.6293L 137.297 34.8873zM 135.554 33.5863C 135.554 33.9143 135.465 34.1173 135.187 34.3913C 134.808 34.7543 134.351 34.9453 133.804 34.9453C 133.082 34.9453 132.656 34.5823 132.656 33.9533C 132.656 33.3053 133.066 32.9733 134.058 32.8203C 135.039 32.6803 135.238 32.6333 135.551 32.4813L 135.554 33.5863z"/>
<path style="stroke:none; fill-rule:evenodd; fill:#000000" d="M 140.453 29.4493L 139.554 29.4493L 139.554 27.7813L 138.554 27.7813L 138.554 29.4493L 137.656 29.4493L 137.656 30.2463L 138.554 30.2463L 138.554 34.7933C 138.554 35.3993 138.957 35.7423 139.687 35.7423C 139.91 35.7423 140.136 35.7193 140.449 35.6603L 140.449 34.8243C 140.336 34.9143 140.199 34.9423 140.031 34.9423C 139.656 34.9423 139.551 34.8283 139.551 34.3993L 139.551 30.2463L 140.449 30.2463L 140.453 29.4493z"/>
<path style="stroke:none; fill-rule:evenodd; fill:#000000" d="M 142.453 29.4493L 141.453 29.4493L 141.453 35.4493L 142.453 35.4493L 142.453 29.4493zM 142.453 27.0473L 141.453 27.0473L 141.453 28.2813L 142.453 28.2813L 142.453 27.0473z"/>
<path style="stroke:none; fill-rule:evenodd; fill:#000000" d="M 146.492 29.2503C 144.789 29.2503 143.758 30.4653 143.758 32.5003C 143.758 34.5353 144.777 35.7503 146.508 35.7503C 148.211 35.7503 149.258 34.5393 149.258 32.5513C 149.258 30.4613 148.25 29.2583 146.5 29.2583L 146.492 29.2503zM 146.504 30.1493C 147.597 30.1493 148.254 31.0353 148.254 32.5313C 148.254 33.9453 147.578 34.8443 146.504 34.8443C 145.422 34.8443 144.754 33.9573 144.754 32.4963C 144.754 31.0473 145.418 30.1493 146.504 30.1493z"/>
<path style="stroke:none; fill-rule:evenodd; fill:#000000" d="M 150.554 29.4223L 150.554 35.4453L 151.554 35.4453L 151.554 32.0983C 151.554 30.8593 152.179 30.0473 153.144 30.0473C 153.883 30.0473 154.351 30.5083 154.351 31.2383L 154.351 35.4423L 155.351 35.4423L 155.351 30.8873C 155.351 29.8873 154.609 29.2423 153.449 29.2423C 152.558 29.2423 151.984 29.5863 151.457 30.4263L 151.457 29.4143L 150.554 29.4223z"/>
<path style="stroke:none; fill-rule:evenodd; fill:#000000" d="M 138.855 133.653L 139.855 133.653L 139.855 130.551C 140.355 131.172 140.918 131.45 141.691 131.45C 143.234 131.45 144.25 130.192 144.25 128.258C 144.25 126.227 143.265 124.954 141.668 124.954C 140.855 124.954 140.199 125.321 139.754 126.032L 139.754 125.125L 138.855 125.125L 138.855 133.653zM 141.519 125.848C 142.566 125.848 143.25 126.782 143.25 128.231C 143.25 129.606 142.554 130.543 141.519 130.543C 140.515 130.543 139.855 129.618 139.855 128.196C 139.855 126.774 140.515 125.848 141.519 125.848z"/>
<path style="stroke:none; fill-rule:evenodd; fill:#000000" d="M 145.355 131.149L 146.355 131.149L 146.355 122.75L 145.355 122.75L 145.355 131.149z"/>
<path style="stroke:none; fill-rule:evenodd; fill:#000000" d="M 153.297 130.586C 153.191 130.645 153.144 130.645 153.086 130.645C 152.746 130.645 152.558 130.473 152.558 130.172L 152.558 126.606C 152.558 125.532 151.781 124.95 150.308 124.95C 149.441 124.95 148.722 125.204 148.32 125.653C 148.047 125.961 147.933 126.309 147.91 126.911L 148.855 126.911C 148.933 126.18 149.359 125.848 150.242 125.848C 151.086 125.848 151.558 126.168 151.558 126.747L 151.558 127C 151.558 127.403 151.324 127.575 150.582 127.668C 149.258 127.84 149.054 127.887 148.695 128.036C 148.011 128.321 147.664 128.864 147.664 129.649C 147.664 130.743 148.418 131.434 149.629 131.434C 150.383 131.434 150.988 131.161 151.664 130.516C 151.73 131.149 152.027 131.434 152.644 131.434C 152.836 131.434 152.984 131.411 153.293 131.329L 153.297 130.586zM 151.554 129.29C 151.554 129.618 151.465 129.821 151.187 130.094C 150.808 130.458 150.351 130.649 149.804 130.649C 149.082 130.649 148.656 130.286 148.656 129.657C 148.656 129.008 149.066 128.676 150.058 128.524C 151.039 128.383 151.238 128.336 151.551 128.184L 151.554 129.29z"/>
<path style="stroke:none; fill-rule:evenodd; fill:#000000" d="M 154.355 125.122L 154.355 131.145L 155.355 131.145L 155.355 127.797C 155.355 126.559 155.98 125.747 156.945 125.747C 157.683 125.747 158.152 126.208 158.152 126.938L 158.152 131.141L 159.152 131.141L 159.152 126.586C 159.152 125.586 158.41 124.942 157.25 124.942C 156.359 124.942 155.785 125.286 155.258 126.125L 155.258 125.114L 154.355 125.122z"/>
<path style="stroke:none; fill-rule:evenodd; fill:#000000" d="M 160.453 128.848L 166.25 128.848L 166.25 128.051L 160.453 128.051L 160.453 128.848z"/>
<path style="stroke:none; fill-rule:evenodd; fill:#000000" d="M 139.054 136.524L 139.054 142.547L 140.054 142.547L 140.054 139.415C 140.054 138.551 140.265 137.989 140.715 137.653C 141.004 137.434 141.285 137.368 141.937 137.356L 141.937 136.391C 141.781 136.372 141.703 136.36 141.578 136.36C 140.968 136.36 140.504 136.727 139.957 137.622L 139.957 136.532L 139.054 136.524z"/>
<path style="stroke:none; fill-rule:evenodd; fill:#000000" d="M 147.953 139.848C 147.953 138.93 147.886 138.379 147.715 137.934C 147.328 136.95 146.414 136.352 145.297 136.352C 143.633 136.352 142.558 137.645 142.558 139.633C 142.558 141.622 143.594 142.848 145.269 142.848C 146.633 142.848 147.578 142.055 147.82 140.723L 146.867 140.723C 146.605 141.528 146.074 141.946 145.312 141.946C 144.711 141.946 144.199 141.668 143.883 141.153C 143.656 140.805 143.578 140.454 143.566 139.848L 147.953 139.848zM 143.535 139.083C 143.613 137.969 144.293 137.247 145.254 137.247C 146.191 137.247 146.918 138.024 146.918 139.012C 146.918 139.032 146.918 139.055 146.906 139.079L 143.535 139.083z"/>
<path style="stroke:none; fill-rule:evenodd; fill:#000000" d="M 154.812 142.547L 156.578 136.547L 155.5 136.547L 154.308 141.215L 153.129 136.547L 151.961 136.547L 150.816 141.215L 149.59 136.547L 148.535 136.547L 150.277 142.547L 151.355 142.547L 152.511 137.833L 153.726 142.547L 154.812 142.547z"/>
<path style="stroke:none; fill-rule:evenodd; fill:#000000" d="M 162.894 141.985C 162.789 142.043 162.742 142.043 162.683 142.043C 162.344 142.043 162.156 141.872 162.156 141.571L 162.156 138.004C 162.156 136.93 161.379 136.348 159.906 136.348C 159.039 136.348 158.32 136.602 157.918 137.051C 157.644 137.36 157.531 137.708 157.508 138.309L 158.453 138.309C 158.531 137.579 158.957 137.247 159.84 137.247C 160.683 137.247 161.156 137.567 161.156 138.145L 161.156 138.399C 161.156 138.801 160.922 138.973 160.179 139.067C 158.855 139.239 158.652 139.286 158.293 139.434C 157.609 139.719 157.261 140.262 157.261 141.047C 157.261 142.141 158.015 142.833 159.226 142.833C 159.98 142.833 160.586 142.559 161.261 141.915C 161.328 142.547 161.625 142.833 162.242 142.833C 162.433 142.833 162.582 142.809 162.89 142.727L 162.894 141.985zM 161.156 140.688C 161.156 141.016 161.066 141.219 160.789 141.493C 160.41 141.856 159.953 142.047 159.406 142.047C 158.683 142.047 158.258 141.684 158.258 141.055C 158.258 140.407 158.668 140.075 159.66 139.922C 160.64 139.782 160.84 139.735 161.152 139.583L 161.156 140.688z"/>
<path style="stroke:none; fill-rule:evenodd; fill:#000000" d="M 163.855 136.524L 163.855 142.547L 164.855 142.547L 164.855 139.415C 164.855 138.551 165.066 137.989 165.515 137.653C 165.804 137.434 166.086 137.368 166.738 137.356L 166.738 136.391C 166.582 136.372 166.504 136.36 166.379 136.36C 165.769 136.36 165.304 136.727 164.758 137.622L 164.758 136.532L 163.855 136.524z"/>
<path style="stroke:none; fill-rule:evenodd; fill:#000000" d="M 172.656 134.149L 171.656 134.149L 171.656 137.29C 171.258 136.676 170.621 136.348 169.82 136.348C 168.273 136.348 167.258 137.606 167.258 139.54C 167.258 141.586 168.269 142.844 169.91 142.844C 170.746 142.844 171.328 142.524 171.851 141.754L 171.851 142.543L 172.648 142.543L 172.656 134.149zM 169.98 137.25C 171 137.25 171.648 138.176 171.648 139.622C 171.648 141.02 170.992 141.946 169.992 141.946C 168.949 141.946 168.254 141.008 168.254 139.598C 168.254 138.188 168.945 137.25 169.98 137.25z"/>
<path style="stroke:none; fill-rule:evenodd; fill:#000000" d="M 144.156 151.348C 144.156 150.43 144.09 149.879 143.918 149.434C 143.531 148.45 142.617 147.852 141.5 147.852C 139.836 147.852 138.761 149.145 138.761 151.133C 138.761 153.122 139.797 154.348 141.472 154.348C 142.836 154.348 143.781 153.555 144.023 152.223L 143.07 152.223C 142.808 153.028 142.277 153.446 141.515 153.446C 140.914 153.446 140.402 153.168 140.086 152.653C 139.859 152.305 139.781 151.954 139.769 151.348L 144.156 151.348zM 139.734 150.583C 139.812 149.469 140.492 148.747 141.453 148.747C 142.39 148.747 143.117 149.524 143.117 150.512C 143.117 150.532 143.117 150.555 143.105 150.579L 139.734 150.583z"/>
<path style="stroke:none; fill-rule:evenodd; fill:#000000" d="M 147.828 154.047L 150.133 148.047L 149.054 148.047L 147.359 152.907L 145.754 148.047L 144.676 148.047L 146.785 154.047L 147.828 154.047z"/>
<path style="stroke:none; fill-rule:evenodd; fill:#000000" d="M 156.496 153.485C 156.39 153.543 156.344 153.543 156.285 153.543C 155.945 153.543 155.758 153.372 155.758 153.071L 155.758 149.504C 155.758 148.43 154.98 147.848 153.508 147.848C 152.64 147.848 151.922 148.102 151.519 148.551C 151.246 148.86 151.133 149.208 151.109 149.809L 152.054 149.809C 152.133 149.079 152.558 148.747 153.441 148.747C 154.285 148.747 154.758 149.067 154.758 149.645L 154.758 149.899C 154.758 150.301 154.523 150.473 153.781 150.567C 152.457 150.739 152.254 150.786 151.894 150.934C 151.211 151.219 150.863 151.762 150.863 152.547C 150.863 153.641 151.617 154.333 152.828 154.333C 153.582 154.333 154.187 154.059 154.863 153.415C 154.929 154.047 155.226 154.333 155.844 154.333C 156.035 154.333 156.183 154.309 156.492 154.227L 156.496 153.485zM 154.754 152.188C 154.754 152.516 154.664 152.719 154.386 152.993C 154.008 153.356 153.551 153.547 153.004 153.547C 152.281 153.547 151.855 153.184 151.855 152.555C 151.855 151.907 152.265 151.575 153.258 151.422C 154.238 151.282 154.437 151.235 154.75 151.083L 154.754 152.188z"/>
<path style="stroke:none; fill-rule:evenodd; fill:#000000" d="M 157.554 154.047L 158.554 154.047L 158.554 145.649L 157.554 145.649L 157.554 154.047z"/>
<path style="stroke:none; fill-rule:evenodd; fill:#ff0000" d="M 147.554 73.4493L 146.554 73.4493L 146.554 79.4493L 147.554 79.4493L 147.554 73.4493zM 147.554 71.0473L 146.554 71.0473L 146.554 72.2813L 147.554 72.2813L 147.554 71.0473z"/>
<path style="stroke:none; fill-rule:evenodd; fill:#ff0000" d="M 149.254 73.4223L 149.254 79.4453L 150.254 79.4453L 150.254 76.0983C 150.254 74.8593 150.879 74.0473 151.844 74.0473C 152.582 74.0473 153.051 74.5083 153.051 75.2383L 153.051 79.4423L 154.051 79.4423L 154.051 74.8873C 154.051 73.8873 153.308 73.2423 152.148 73.2423C 151.258 73.2423 150.683 73.5863 150.156 74.4263L 150.156 73.4143L 149.254 73.4223z"/>
<path style="stroke:none; fill-rule:evenodd; fill:#ff0000" d="M 159.781 75.1093C 159.769 73.9223 158.984 73.2503 157.582 73.2503C 156.172 73.2503 155.258 73.9773 155.258 75.0983C 155.258 76.0433 155.746 76.4923 157.195 76.8403L 158.105 77.0593C 158.781 77.2193 159.051 77.4613 159.051 77.8993C 159.051 78.4613 158.484 78.8443 157.64 78.8443C 157.121 78.8443 156.683 78.6953 156.441 78.4383C 156.293 78.2663 156.222 78.0903 156.164 77.6563L 155.148 77.6563C 155.191 79.0673 155.976 79.7463 157.558 79.7463C 159.082 79.7463 160.051 78.9963 160.051 77.8323C 160.051 76.9343 159.539 76.4383 158.324 76.1493L 157.39 75.9303C 156.597 75.7463 156.258 75.4923 156.258 75.0673C 156.258 74.5163 156.754 74.1563 157.543 74.1563C 158.316 74.1563 158.734 74.4853 158.758 75.1133L 159.781 75.1093z"/>
<path style="stroke:none; fill-rule:evenodd; fill:#ff0000" d="M 163.453 73.4493L 162.554 73.4493L 162.554 71.7813L 161.554 71.7813L 161.554 73.4493L 160.656 73.4493L 160.656 74.2463L 161.554 74.2463L 161.554 78.7933C 161.554 79.3993 161.957 79.7423 162.687 79.7423C 162.91 79.7423 163.136 79.7193 163.449 79.6603L 163.449 78.8243C 163.336 78.9143 163.199 78.9423 163.031 78.9423C 162.656 78.9423 162.551 78.8283 162.551 78.3993L 162.551 74.2463L 163.449 74.2463L 163.453 73.4493z"/>
<path style="stroke:none; fill-rule:evenodd; fill:#ff0000" d="M 164.554 73.4223L 164.554 79.4453L 165.554 79.4453L 165.554 76.3133C 165.554 75.4493 165.765 74.8873 166.215 74.5513C 166.504 74.3323 166.785 74.2663 167.437 74.2543L 167.437 73.2893C 167.281 73.2703 167.203 73.2583 167.078 73.2583C 166.468 73.2583 166.004 73.6253 165.457 74.5203L 165.457 73.4303L 164.554 73.4223z"/>
<path style="stroke:none; fill-rule:evenodd; fill:#ff0000" d="M 173.156 79.4853L 173.156 73.4533L 172.156 73.4533L 172.156 76.8993C 172.156 78.1373 171.511 78.9493 170.504 78.9493C 169.742 78.9493 169.258 78.4883 169.258 77.7583L 169.258 73.4533L 168.258 73.4533L 168.258 78.1063C 168.258 79.1063 169.015 79.7503 170.207 79.7503C 171.105 79.7503 171.679 79.4423 172.254 78.6493L 172.254 79.4883L 173.156 79.4853z"/>
<path style="stroke:none; fill-rule:evenodd; fill:#ff0000" d="M 174.953 79.4493L 176.152 79.4493L 176.152 78.2503L 174.953 78.2503L 174.953 79.4493z"/>
<path style="stroke:none; fill-rule:evenodd; fill:#ff0000" d="M 151.754 88.2504C 151.754 87.3325 151.687 86.7817 151.515 86.3364C 151.129 85.3523 150.215 84.7543 149.097 84.7543C 147.433 84.7543 146.359 86.0473 146.359 88.0356C 146.359 90.0239 147.394 91.2504 149.07 91.2504C 150.433 91.2504 151.379 90.4575 151.621 89.1254L 150.668 89.1254C 150.406 89.9301 149.875 90.3481 149.113 90.3481C 148.511 90.3481 148 90.0707 147.683 89.5551C 147.457 89.2075 147.379 88.8559 147.367 88.2504L 151.754 88.2504zM 147.336 87.4809C 147.414 86.3676 148.094 85.6453 149.054 85.6453C 149.992 85.6453 150.718 86.4223 150.718 87.4106C 150.718 87.4301 150.718 87.4535 150.707 87.477L 147.336 87.4809z"/>
<path style="stroke:none; fill-rule:evenodd; fill:#ff0000" d="M 155.527 90.9496L 157.832 84.9493L 156.754 84.9493L 155.058 89.809L 153.453 84.9493L 152.375 84.9493L 154.484 90.9496L 155.527 90.9496z"/>
<path style="stroke:none; fill-rule:evenodd; fill:#ff0000" d="M 164.097 90.3871C 163.992 90.4457 163.945 90.4457 163.886 90.4457C 163.547 90.4457 163.359 90.2739 163.359 89.9731L 163.359 86.4067C 163.359 85.3323 162.582 84.7503 161.109 84.7503C 160.242 84.7503 159.523 85.0043 159.121 85.4533C 158.847 85.7623 158.734 86.1098 158.711 86.7114L 159.656 86.7114C 159.734 85.9813 160.16 85.6493 161.043 85.6493C 161.886 85.6493 162.359 85.9693 162.359 86.5473L 162.359 86.8012C 162.359 87.2035 162.125 87.3754 161.383 87.4692C 160.058 87.6411 159.855 87.6879 159.496 87.8364C 158.812 88.1215 158.465 88.6645 158.465 89.4496C 158.465 90.5434 159.218 91.2348 160.429 91.2348C 161.183 91.2348 161.789 90.9614 162.465 90.3168C 162.531 90.9496 162.828 91.2348 163.445 91.2348C 163.636 91.2348 163.785 91.2114 164.094 91.1293L 164.097 90.3871zM 162.355 89.0864C 162.355 89.4145 162.265 89.6176 161.988 89.8911C 161.609 90.2543 161.152 90.4457 160.605 90.4457C 159.883 90.4457 159.457 90.0825 159.457 89.4535C 159.457 88.8051 159.867 88.4731 160.859 88.3207C 161.84 88.1801 162.039 88.1332 162.351 87.9809L 162.355 89.0864z"/>
<path style="stroke:none; fill-rule:evenodd; fill:#ff0000" d="M 165.156 90.9496L 166.156 90.9496L 166.156 82.5513L 165.156 82.5513L 165.156 90.9496z"/>
<path style="stroke:#000000; stroke-width:1.9133; fill:none" d="M 193.703 63.5983L 214.746 98.0356"/>
<path style="stroke:#000000; stroke-width:1.9133; fill:none" d="M 212.39 90.5121L 214.746 98.0395L 209.125 92.5082"/>
<path style="stroke:none; fill-rule:evenodd; fill:#000000" d="M 197.195 78.8483L 198.054 81.3483L 199.246 81.3483L 196.308 72.9493L 194.933 72.9493L 191.949 81.3483L 193.082 81.3483L 193.965 78.8483L 197.195 78.8483zM 196.898 77.9493L 194.238 77.9493L 195.613 74.1293L 196.898 77.9493z"/>
<path style="stroke:none; fill-rule:evenodd; fill:#000000" d="M 199.953 79.0473L 205.75 79.0473L 205.75 78.2503L 199.953 78.2503L 199.953 79.0473z"/>
<path style="stroke:none; fill-rule:evenodd; fill:#000000" d="M 210.594 72.8483C 208.191 72.8483 206.558 74.6213 206.558 77.2463C 206.558 79.8713 208.191 81.6453 210.605 81.6453C 211.617 81.6453 212.523 81.3363 213.203 80.7583C 214.109 79.9883 214.652 78.6883 214.652 77.3173C 214.652 74.6133 213.054 72.8483 210.594 72.8483zM 210.594 73.7503C 212.39 73.7503 213.554 75.1493 213.554 77.2973C 213.554 79.3483 212.359 80.7463 210.605 80.7463C 208.844 80.7463 207.66 79.3483 207.66 77.2463C 207.66 75.1493 208.844 73.7463 210.597 73.7463L 210.594 73.7503z"/>
<path style="stroke:#ffff00; stroke-width:1.9133; fill:none" d="M 10.0273 120.997L 54.0312 120.997L 54.0312 98.0395L 10.0273 98.0395L 10.0273 120.997z"/>
<path style="stroke:none; fill-rule:evenodd; fill:#ffff00" d="M 27.3945 110.45L 28.2539 112.95L 29.4453 112.95L 26.5078 104.551L 25.1328 104.551L 22.1484 112.95L 23.2812 112.95L 24.164 110.45L 27.3945 110.45zM 27.0976 109.547L 24.4374 109.547L 25.8124 105.727L 27.0976 109.547z"/>
<path style="stroke:none; fill-rule:evenodd; fill:#ffff00" d="M 30.5546 112.95L 34.3632 112.95C 35.1601 112.95 35.75 112.731 36.2031 112.25C 36.6171 111.813 36.8515 111.215 36.8515 110.559C 36.8515 109.547 36.3789 108.934 35.2773 108.524C 36.0429 108.168 36.4492 107.547 36.4492 106.696C 36.4492 106.086 36.2226 105.547 35.7812 105.153C 35.3437 104.75 34.7695 104.567 33.9609 104.567L 30.5507 104.567L 30.5546 112.95zM 31.6562 108.25L 31.6562 105.453L 33.6992 105.453C 34.289 105.453 34.6171 105.536 34.8984 105.766C 35.1914 106.004 35.3515 106.368 35.3515 106.852C 35.3515 107.321 35.1953 107.696 34.8984 107.938C 34.6171 108.165 34.289 108.25 33.6992 108.25L 31.6562 108.25zM 31.6562 112.047L 31.6562 109.149L 34.2539 109.149C 34.7656 109.149 35.1093 109.274 35.3632 109.551C 35.6132 109.817 35.75 110.184 35.75 110.602C 35.75 111.004 35.6132 111.375 35.3632 111.641C 35.1132 111.915 34.7695 112.043 34.2539 112.043L 31.6562 112.047z"/>
<path style="stroke:none; fill-rule:evenodd; fill:#ffff00" d="M 39.2539 104.547L 38.1562 104.547L 38.1562 112.946L 43.3554 112.946L 43.3554 112.047L 39.2578 112.047L 39.2539 104.547z"/>
<path style="stroke:#ffff00; stroke-width:1.9133; fill:none" d="M 36.8124 63.5983L 17.6796 98.0356"/>
<path style="stroke:#ffff00; stroke-width:1.9133; fill:none" d="M 23.0664 92.2778L 17.6796 98.0356L 19.7226 90.4184"/>
</g>
</svg>