<?xml version="1.0" encoding="ISO-8859-1" standalone="yes"?>
<svg width="207.129" height="146.332">
  <defs> 
    <marker id="ArrowEnd" viewBox="0 0 10 10" refX="0" refY="5" 
     markerUnits="strokeWidth" 
     markerWidth="4" 
     markerHeight="3" 
     orient="auto"> 
        <path d="M 0 0 L 10 5 L 0 10 z" /> 
    </marker>
    <marker id="ArrowStart" viewBox="0 0 10 10" refX="10" refY="5" 
     markerUnits="strokeWidth" 
     markerWidth="4" 
     markerHeight="3" 
     orient="auto"> 
        <path d="M 10 0 L 0 5 L 10 10 z" /> 
    </marker> </defs>
<g>
<path style="stroke:none; fill-rule:evenodd; fill:#ff0000" d="M 119.07 121C 119.07 112.551 112.218 105.695 103.765 105.695C 95.3163 105.695 88.4613 112.547 88.4613 121C 88.4613 129.449 95.3123 136.305 103.765 136.305C 112.214 136.305 119.07 129.453 119.07 121"/>
<path style="stroke:#000000; stroke-width:1.9133; fill:none" d="M 119.07 121C 119.07 112.551 112.218 105.695 103.765 105.695C 95.3163 105.695 88.4613 112.547 88.4613 121C 88.4613 129.449 95.3123 136.305 103.765 136.305C 112.214 136.305 119.07 129.453 119.07 121"/>
<path style="stroke:none; fill-rule:evenodd; fill:#ffff00" d="M 79.8515 25.3323C 79.8515 16.8833 72.9999 10.0273 64.5468 10.0273C 56.0976 10.0273 49.2421 16.8793 49.2421 25.3323C 49.2421 33.7813 56.0937 40.6373 64.5468 40.6373C 72.996 40.6373 79.8515 33.7853 79.8515 25.3323"/>
<path style="stroke:#000000; stroke-width:1.9133; fill:none" d="M 79.8515 25.3323C 79.8515 16.8833 72.9999 10.0273 64.5468 10.0273C 56.0976 10.0273 49.2421 16.8793 49.2421 25.3323C 49.2421 33.7813 56.0937 40.6373 64.5468 40.6373C 72.996 40.6373 79.8515 33.7853 79.8515 25.3323"/>
<path style="stroke:none; fill-rule:evenodd; fill:#ffa400" d="M 79.8593 121C 79.8593 112.551 73.0077 105.695 64.5546 105.695C 56.1054 105.695 49.2499 112.547 49.2499 121C 49.2499 129.449 56.1015 136.305 64.5546 136.305C 73.0038 136.305 79.8593 129.453 79.8593 121"/>
<path style="stroke:#000000; stroke-width:1.9133; fill:none" d="M 79.8593 121C 79.8593 112.551 73.0077 105.695 64.5546 105.695C 56.1054 105.695 49.2499 112.547 49.2499 121C 49.2499 129.449 56.1015 136.305 64.5546 136.305C 73.0038 136.305 79.8593 129.453 79.8593 121"/>
<path style="stroke:none; fill-rule:evenodd; fill:#ffff00" d="M 40.6366 121C 40.6366 112.551 33.7851 105.695 25.332 105.695C 16.8827 105.695 10.0273 112.547 10.0273 121C 10.0273 129.449 16.8788 136.305 25.332 136.305C 33.7812 136.305 40.6366 129.453 40.6366 121"/>
<path style="stroke:#000000; stroke-width:1.9133; fill:none" d="M 40.6366 121C 40.6366 112.551 33.7851 105.695 25.332 105.695C 16.8827 105.695 10.0273 112.547 10.0273 121C 10.0273 129.449 16.8788 136.305 25.332 136.305C 33.7812 136.305 40.6366 129.453 40.6366 121"/>
<path style="stroke:#000000; stroke-width:1.9133; fill:none" d="M 103.812 105.668L 65.5351 40.5943"/>
<path style="stroke:#000000; stroke-width:1.9133; fill:none" d="M 67.7616 48.1603L 65.5312 40.5973L 71.0585 46.2223"/>
<path style="stroke:#000000; stroke-width:2.8699499999999998; fill:none" d="M 25.3398 105.668L 65.5312 40.5943"/>
<path style="stroke:#000000; stroke-width:2.8699499999999998; fill:none" d="M 59.8827 46.1013L 65.5312 40.5973L 63.1405 48.1133"/>
<path style="stroke:#000000; stroke-width:4.7832499999999998; fill:none" d="M 65.9843 106.172L 65.5077 40.6443"/>
<path style="stroke:#000000; stroke-width:4.7832499999999998; fill:none" d="M 63.6445 48.3043L 65.4999 40.6403L 67.4687 48.2773"/>
<path style="stroke:none; fill-rule:evenodd; fill:#000000" d="M 92.9723 26.2423L 93.8323 28.7423L 95.0233 28.7423L 92.0863 20.3443L 90.7113 20.3443L 87.7263 28.7423L 88.8593 28.7423L 89.7423 26.2423L 92.9723 26.2423zM 92.6753 25.3443L 90.0153 25.3443L 91.3903 21.5233L 92.6753 25.3443z"/>
<path style="stroke:none; fill-rule:evenodd; fill:#000000" d="M 100.539 24.7503C 100.496 24.1643 100.371 23.7813 100.14 23.4453C 99.7343 22.8833 99.0153 22.5473 98.1873 22.5473C 96.5863 22.5473 95.5393 23.8403 95.5393 25.8513C 95.5393 27.8043 96.5623 29.0433 98.1753 29.0433C 99.5973 29.0433 100.496 28.1723 100.609 26.6803L 99.6563 26.6803C 99.5003 27.6563 99.0113 28.1443 98.2073 28.1443C 97.1643 28.1443 96.5393 27.2813 96.5393 25.8553C 96.5393 24.3473 97.1483 23.4493 98.1833 23.4493C 98.9763 23.4493 99.4763 23.9183 99.5893 24.7543L 100.539 24.7503z"/>
<path style="stroke:none; fill-rule:evenodd; fill:#000000" d="M 103.832 22.7423L 102.933 22.7423L 102.933 21.0743L 101.933 21.0743L 101.933 22.7423L 101.035 22.7423L 101.035 23.5393L 101.933 23.5393L 101.933 28.0863C 101.933 28.6913 102.336 29.0353 103.066 29.0353C 103.289 29.0353 103.515 29.0123 103.828 28.9533L 103.828 28.1173C 103.714 28.2073 103.578 28.2343 103.41 28.2343C 103.035 28.2343 102.929 28.1213 102.929 27.6913L 102.929 23.5393L 103.828 23.5393L 103.832 22.7423z"/>
<path style="stroke:none; fill-rule:evenodd; fill:#000000" d="M 105.832 22.7423L 104.832 22.7423L 104.832 28.7423L 105.832 28.7423L 105.832 22.7423zM 105.832 20.3443L 104.832 20.3443L 104.832 21.5783L 105.832 21.5783L 105.832 20.3443z"/>
<path style="stroke:none; fill-rule:evenodd; fill:#000000" d="M 109.906 28.7423L 112.211 22.7423L 111.132 22.7423L 109.437 27.6013L 107.832 22.7423L 106.754 22.7423L 108.863 28.7423L 109.906 28.7423z"/>
<path style="stroke:none; fill-rule:evenodd; fill:#000000" d="M 118.574 28.1803C 118.468 28.2383 118.422 28.2383 118.363 28.2383C 118.023 28.2383 117.836 28.0663 117.836 27.7653L 117.836 24.1993C 117.836 23.1253 117.058 22.5433 115.586 22.5433C 114.718 22.5433 114 22.7973 113.597 23.2463C 113.324 23.5543 113.211 23.9023 113.187 24.5043L 114.132 24.5043C 114.211 23.7733 114.636 23.4413 115.519 23.4413C 116.363 23.4413 116.836 23.7623 116.836 24.3403L 116.836 24.5943C 116.836 24.9963 116.601 25.1683 115.859 25.2623C 114.535 25.4333 114.332 25.4803 113.972 25.6293C 113.289 25.9143 112.941 26.4573 112.941 27.2423C 112.941 28.3363 113.695 29.0273 114.906 29.0273C 115.66 29.0273 116.265 28.7543 116.941 28.1093C 117.007 28.7423 117.304 29.0273 117.922 29.0273C 118.113 29.0273 118.261 29.0043 118.57 28.9223L 118.574 28.1803zM 116.832 26.8833C 116.832 27.2113 116.742 27.4143 116.464 27.6873C 116.086 28.0513 115.629 28.2423 115.082 28.2423C 114.359 28.2423 113.933 27.8793 113.933 27.2503C 113.933 26.6013 114.343 26.2693 115.336 26.1173C 116.316 25.9763 116.515 25.9303 116.828 25.7773L 116.832 26.8833z"/>
<path style="stroke:none; fill-rule:evenodd; fill:#000000" d="M 121.632 22.7423L 120.734 22.7423L 120.734 21.0743L 119.734 21.0743L 119.734 22.7423L 118.836 22.7423L 118.836 23.5393L 119.734 23.5393L 119.734 28.0863C 119.734 28.6913 120.136 29.0353 120.867 29.0353C 121.089 29.0353 121.316 29.0123 121.629 28.9533L 121.629 28.1173C 121.515 28.2073 121.379 28.2343 121.211 28.2343C 120.836 28.2343 120.73 28.1213 120.73 27.6913L 120.73 23.5393L 121.629 23.5393L 121.632 22.7423z"/>
<path style="stroke:none; fill-rule:evenodd; fill:#000000" d="M 123.632 22.7423L 122.632 22.7423L 122.632 28.7423L 123.632 28.7423L 123.632 22.7423zM 123.632 20.3443L 122.632 20.3443L 122.632 21.5783L 123.632 21.5783L 123.632 20.3443z"/>
<path style="stroke:none; fill-rule:evenodd; fill:#000000" d="M 127.672 22.5433C 125.968 22.5433 124.937 23.7583 124.937 25.7933C 124.937 27.8283 125.957 29.0433 127.687 29.0433C 129.39 29.0433 130.437 27.8323 130.437 25.8443C 130.437 23.7543 129.429 22.5513 127.679 22.5513L 127.672 22.5433zM 127.683 23.4453C 128.777 23.4453 129.433 24.3323 129.433 25.8283C 129.433 27.2423 128.757 28.1403 127.683 28.1403C 126.601 28.1403 125.933 27.2543 125.933 25.7933C 125.933 24.3443 126.597 23.4453 127.683 23.4453z"/>
<path style="stroke:none; fill-rule:evenodd; fill:#000000" d="M 131.734 22.7193L 131.734 28.7423L 132.734 28.7423L 132.734 25.3943C 132.734 24.1563 133.359 23.3443 134.324 23.3443C 135.062 23.3443 135.531 23.8043 135.531 24.5353L 135.531 28.7383L 136.531 28.7383L 136.531 24.1833C 136.531 23.1833 135.789 22.5393 134.629 22.5393C 133.738 22.5393 133.164 22.8833 132.636 23.7223L 132.636 22.7113L 131.734 22.7193z"/>
<path style="stroke:none; fill-rule:evenodd; fill:#000000" d="M 144.886 22.7423L 143.222 27.4103L 141.687 22.7423L 140.668 22.7423L 142.699 28.7973L 142.336 29.7503C 142.187 30.1763 141.972 30.3363 141.57 30.3363C 141.433 30.3363 141.273 30.3013 141.066 30.2303L 141.066 31.0863C 141.257 31.1873 141.453 31.2343 141.707 31.2343C 142.015 31.2343 142.347 31.1333 142.601 30.9493C 142.898 30.7343 143.07 30.4803 143.254 30.0003L 145.925 22.7383L 144.886 22.7423z"/>
<path style="stroke:none; fill-rule:evenodd; fill:#000000" d="M 155.632 24.6443L 150.035 24.6443L 150.035 25.4413L 155.632 25.4413L 155.632 24.6443zM 155.632 26.6443L 150.035 26.6443L 150.035 27.4413L 155.632 27.4413L 155.632 26.6443z"/>
<path style="stroke:none; fill-rule:evenodd; fill:#000000" d="M 168.882 22.0433L 168.882 21.0433L 166.261 21.0433C 165.351 21.0433 164.726 21.1443 164.195 21.3713C 163.078 21.8673 162.441 22.7503 162.441 23.8013C 162.441 24.5313 162.726 25.2773 163.257 25.8673C 163.855 26.5433 164.511 26.8363 165.425 26.8363C 166.207 26.8363 166.875 26.6013 167.406 26.1403C 167.922 25.6803 168.234 25.0393 168.234 24.4303C 168.234 23.5743 167.578 22.7303 166.371 22.0433L 168.882 22.0433zM 165.808 22.0433C 166.808 23.0393 167.031 23.4693 167.031 24.3873C 167.031 25.5543 166.453 26.3363 165.589 26.3363C 164.519 26.3363 163.636 25.2033 163.636 23.8243C 163.636 22.7503 164.355 22.0433 165.449 22.0433L 165.808 22.0433z"/>
<path style="stroke:none; fill-rule:evenodd; fill:#000000" d="M 175.375 28.5233C 174.992 28.2623 174.812 28.0903 174.589 27.7933C 173.984 26.9693 173.636 25.5353 173.636 23.8403C 173.636 22.2933 173.925 20.9183 174.445 20.0903C 174.691 19.7033 174.906 19.4843 175.379 19.1523L 175.23 18.9573C 174.703 19.2303 174.472 19.3903 174.172 19.6683C 173.136 20.6173 172.539 22.1683 172.539 23.8443C 172.539 25.4143 173.054 26.8593 173.988 27.8203C 174.332 28.1993 174.609 28.3903 175.23 28.7223L 175.375 28.5233z"/>
<path style="stroke:none; fill-rule:evenodd; fill:#000000" d="M 177.648 19.5433L 179.586 19.5433C 180.914 19.5433 181.273 19.7973 181.468 20.8873L 181.765 20.8873L 181.652 19.0433L 175.984 19.0433L 178.484 23.0783L 175.789 26.7383L 181.871 26.7383L 182.488 24.6763L 182.191 24.6763C 181.824 25.5543 181.48 25.7383 180.148 25.7383L 177.086 25.7383L 179.507 22.5123L 177.648 19.5433z"/>
<path style="stroke:none; fill-rule:evenodd; fill:#000000" d="M 190.382 25.6403L 192.402 22.7463L 191.324 22.7463L 189.879 24.9103L 188.433 22.7463L 187.343 22.7463L 189.351 25.6873L 187.23 28.7423L 188.32 28.7423L 189.843 26.4373L 191.347 28.7423L 192.461 28.7423L 190.382 25.6403z"/>
<path style="stroke:none; fill-rule:evenodd; fill:#000000" d="M 202.293 28.7423L 204.058 22.7423L 202.98 22.7423L 201.789 27.4103L 200.609 22.7423L 199.441 22.7423L 198.296 27.4103L 197.07 22.7423L 196.015 22.7423L 197.757 28.7423L 198.836 28.7423L 199.992 24.0273L 201.207 28.7423L 202.293 28.7423z"/>
<path style="stroke:none; fill-rule:evenodd; fill:#000000" d="M 205.289 31.1803C 206.418 29.6723 207.129 27.5783 207.129 25.7733C 207.129 23.9573 206.418 21.8633 205.289 20.3513L 204.672 20.3513C 205.675 22.0003 206.234 23.9303 206.234 25.7733C 206.234 27.6013 205.675 29.5473 204.672 31.1803L 205.289 31.1803z"/>
<path style="stroke:#000000; stroke-width:0.95664899999999997; fill:none" d="M 86.5503 23.8983L 65.5077 24.3753"/>
<path style="stroke:#000000; stroke-width:0.95664899999999997; fill:none" d="M 73.1991 26.1133L 65.5077 24.3753L 73.1132 22.2893"/>
<path style="stroke:none; fill-rule:evenodd; fill:#000000" d="M 104.672 64.1443L 106.793 55.7463L 105.601 55.7463L 104.066 62.5703L 102.164 55.7463L 101.019 55.7463L 99.1603 62.5703L 97.5893 55.7463L 96.3983 55.7463L 98.5433 64.1443L 99.7113 64.1443L 101.578 57.2693L 103.504 64.1443L 104.672 64.1443z"/>
<path style="stroke:none; fill-rule:evenodd; fill:#000000" d="M 112.832 61.4453C 112.832 60.5273 112.765 59.9763 112.593 59.5313C 112.207 58.5473 111.293 57.9493 110.175 57.9493C 108.511 57.9493 107.437 59.2423 107.437 61.2303C 107.437 63.2193 108.472 64.4453 110.148 64.4453C 111.511 64.4453 112.457 63.6523 112.699 62.3203L 111.746 62.3203C 111.484 63.1253 110.953 63.5433 110.191 63.5433C 109.589 63.5433 109.078 63.2653 108.761 62.7503C 108.535 62.4023 108.457 62.0513 108.445 61.4453L 112.832 61.4453zM 108.414 60.6763C 108.492 59.5623 109.172 58.8403 110.132 58.8403C 111.07 58.8403 111.796 59.6173 111.796 60.6053C 111.796 60.6253 111.796 60.6483 111.785 60.6723L 108.414 60.6763z"/>
<path style="stroke:none; fill-rule:evenodd; fill:#000000" d="M 115.031 58.1443L 114.031 58.1443L 114.031 64.1443L 115.031 64.1443L 115.031 58.1443zM 115.031 55.7423L 114.031 55.7423L 114.031 56.9763L 115.031 56.9763L 115.031 55.7423z"/>
<path style="stroke:none; fill-rule:evenodd; fill:#000000" d="M 120.632 58.1443L 120.632 59.0003C 120.152 58.2813 119.566 57.9453 118.796 57.9453C 117.269 57.9453 116.238 59.2853 116.238 61.2503C 116.238 62.2423 116.5 63.0513 116.992 63.6293C 117.437 64.1373 118.078 64.4373 118.711 64.4373C 119.464 64.4373 119.992 64.1093 120.531 63.3243L 120.531 63.6333C 120.531 64.4453 120.429 64.9413 120.191 65.2733C 119.941 65.6293 119.453 65.8323 118.875 65.8323C 118.445 65.8323 118.058 65.7193 117.796 65.5123C 117.582 65.3403 117.492 65.1803 117.433 64.8243L 116.468 64.8243C 116.57 65.9573 117.449 66.6333 118.859 66.6333C 119.75 66.6333 120.515 66.3473 120.906 65.8673C 121.363 65.3203 121.535 64.5623 121.535 63.1523L 121.535 58.1373L 120.632 58.1443zM 118.894 58.8443C 119.922 58.8443 120.531 59.7193 120.531 61.2263C 120.531 62.6643 119.914 63.5393 118.906 63.5393C 117.863 63.5393 117.234 62.6523 117.234 61.1913C 117.234 59.7423 117.875 58.8443 118.894 58.8443z"/>
<path style="stroke:none; fill-rule:evenodd; fill:#000000" d="M 123.031 55.7423L 123.031 64.1403L 124.031 64.1403L 124.031 60.7933C 124.031 59.5543 124.656 58.7423 125.621 58.7423C 125.922 58.7423 126.222 58.8443 126.449 59.0193C 126.714 59.2153 126.828 59.5043 126.828 59.9333L 126.828 64.1373L 127.828 64.1373L 127.828 59.5823C 127.828 58.5703 127.109 57.9373 125.945 57.9373C 125.101 57.9373 124.589 58.2033 124.031 58.9453L 124.031 55.7343L 123.031 55.7423z"/>
<path style="stroke:none; fill-rule:evenodd; fill:#000000" d="M 131.531 58.1443L 130.632 58.1443L 130.632 56.4763L 129.632 56.4763L 129.632 58.1443L 128.734 58.1443L 128.734 58.9413L 129.632 58.9413L 129.632 63.4883C 129.632 64.0943 130.035 64.4373 130.765 64.4373C 130.988 64.4373 131.214 64.4143 131.527 64.3553L 131.527 63.5193C 131.414 63.6093 131.277 63.6373 131.109 63.6373C 130.734 63.6373 130.629 63.5233 130.629 63.0943L 130.629 58.9413L 131.527 58.9413L 131.531 58.1443z"/>
<path style="stroke:none; fill-rule:evenodd; fill:#000000" d="M 136.859 59.8043C 136.847 58.6173 136.062 57.9453 134.66 57.9453C 133.25 57.9453 132.336 58.6723 132.336 59.7933C 132.336 60.7383 132.824 61.1873 134.273 61.5353L 135.183 61.7543C 135.859 61.9143 136.129 62.1563 136.129 62.5943C 136.129 63.1563 135.562 63.5393 134.718 63.5393C 134.199 63.5393 133.761 63.3903 133.519 63.1333C 133.371 62.9613 133.3 62.7853 133.242 62.3513L 132.226 62.3513C 132.269 63.7623 133.054 64.4413 134.636 64.4413C 136.16 64.4413 137.129 63.6913 137.129 62.5273C 137.129 61.6293 136.617 61.1333 135.402 60.8443L 134.468 60.6253C 133.675 60.4413 133.336 60.1873 133.336 59.7623C 133.336 59.2113 133.832 58.8513 134.621 58.8513C 135.394 58.8513 135.812 59.1803 135.836 59.8083L 136.859 59.8043z"/>
<path style="stroke:#000000; stroke-width:0.95664899999999997; fill:none" d="M 96.1173 62.1643L 86.0743 73.6407"/>
<path style="stroke:#000000; stroke-width:0.95664899999999997; fill:none" d="M 92.5503 69.1443L 86.0743 73.6446L 89.6723 66.6293"/>
<path style="stroke:#000000; stroke-width:0.95664899999999997; fill:none" d="M 95.1603 61.6873L 67.4179 69.3403"/>
<path style="stroke:#000000; stroke-width:0.95664899999999997; fill:none" d="M 75.3046 69.1483L 67.4218 69.3363L 74.289 65.4573"/>
<path style="stroke:#000000; stroke-width:0.95664899999999997; fill:none" d="M 94.6833 60.7303L 55.4609 59.2973"/>
<path style="stroke:#000000; stroke-width:0.95664899999999997; fill:none" d="M 63.039 61.4843L 55.4648 59.2973L 63.1796 57.6683"/>
</g>
</svg>