<svg
  width="347.5px"
  height="287.5px"
  viewBox="0 0 347.5 287.5"
  xmlns:inkscape="http://www.inkscape.org/namespaces/inkscape"
  xmlns:sodipodi="http://sodipodi.sourceforge.net/DTD/sodipodi-0.dtd"
  xmlns:xlink="http://www.w3.org/1999/xlink"
  xmlns="http://www.w3.org/2000/svg">
  <defs
    id="Defs">
    <linearGradient
      id="linearGradient4170">
      <stop
        style="stop-color:#FF0000;stop-opacity:1;"
        offset="0" />
      <stop
        style="stop-color:#FF0000;stop-opacity:0;"
        offset="1" />
    </linearGradient>
    <linearGradient
      id="linearGradient4162">
      <stop
        style="stop-color:#0000FF;stop-opacity:1;"
        offset="0" />
      <stop
        style="stop-color:#0000FF;stop-opacity:0;"
        offset="1" />
    </linearGradient>
    <linearGradient
      id="linearGradient4302"
      x1="76.92757"
      y1="46.725947"
      x2="113.5342"
      y2="46.725947"
      gradientUnits="userSpaceOnUse"
      xlink:href="#linearGradient4170" />
    <linearGradient
      id="linearGradient4304"
      x1="76.92757"
      y1="46.725947"
      x2="113.5342"
      y2="46.725947"
      gradientUnits="userSpaceOnUse"
      xlink:href="#linearGradient4170" />
    <linearGradient
      id="linearGradient4308"
      x1="76.92757"
      y1="46.725947"
      x2="113.5342"
      y2="46.725947"
      gradientUnits="userSpaceOnUse"
      xlink:href="#linearGradient4162" />
    <linearGradient
      id="linearGradient4310"
      x1="76.92757"
      y1="46.725947"
      x2="113.5342"
      y2="46.725947"
      gradientUnits="userSpaceOnUse"
      xlink:href="#linearGradient4162" />
    <linearGradient
      id="linearGradient4489"
      x1="76.92757"
      y1="46.725947"
      x2="113.5342"
      y2="46.725947"
      gradientUnits="userSpaceOnUse"
      xlink:href="#linearGradient4162" />
    <linearGradient
      id="linearGradient4491"
      x1="76.92757"
      y1="46.725947"
      x2="113.5342"
      y2="46.725947"
      gradientUnits="userSpaceOnUse"
      xlink:href="#linearGradient4162" />
    <linearGradient
      id="linearGradient4577"
      x1="76.92757"
      y1="46.725947"
      x2="113.5342"
      y2="46.725947"
      gradientUnits="userSpaceOnUse"
      xlink:href="#linearGradient4170" />
    <linearGradient
      id="linearGradient4579"
      x1="76.92757"
      y1="46.725947"
      x2="113.5342"
      y2="46.725947"
      gradientUnits="userSpaceOnUse"
      xlink:href="#linearGradient4170" />
    <linearGradient
      id="linearGradient4583"
      x1="76.92757"
      y1="46.725947"
      x2="113.5342"
      y2="46.725947"
      gradientUnits="userSpaceOnUse"
      xlink:href="#linearGradient4162" />
    <linearGradient
      id="linearGradient4585"
      x1="76.92757"
      y1="46.725947"
      x2="113.5342"
      y2="46.725947"
      gradientUnits="userSpaceOnUse"
      xlink:href="#linearGradient4162" />
    <linearGradient
      id="linearGradient4733"
      x1="76.92757"
      y1="46.725947"
      x2="113.5342"
      y2="46.725947"
      gradientUnits="userSpaceOnUse"
      xlink:href="#linearGradient4170" />
    <linearGradient
      id="linearGradient4735"
      x1="76.92757"
      y1="46.725947"
      x2="113.5342"
      y2="46.725947"
      gradientUnits="userSpaceOnUse"
      xlink:href="#linearGradient4170" />
    <linearGradient
      id="linearGradient4737"
      x1="76.92757"
      y1="46.725947"
      x2="113.5342"
      y2="46.725947"
      gradientUnits="userSpaceOnUse"
      xlink:href="#linearGradient4170" />
    <linearGradient
      id="linearGradient4818"
      x1="76.92757"
      y1="46.725947"
      x2="113.5342"
      y2="46.725947"
      gradientUnits="userSpaceOnUse"
      xlink:href="#linearGradient4162" />
    <linearGradient
      id="linearGradient4820"
      x1="76.92757"
      y1="46.725947"
      x2="113.5342"
      y2="46.725947"
      gradientUnits="userSpaceOnUse"
      xlink:href="#linearGradient4170" />
    <linearGradient
      id="linearGradient5725"
      x1="76.92757"
      y1="46.725947"
      x2="113.5342"
      y2="46.725947"
      gradientUnits="userSpaceOnUse"
      xlink:href="#linearGradient4162" />
    <linearGradient
      id="linearGradient5727"
      x1="76.92757"
      y1="46.725947"
      x2="113.5342"
      y2="46.725947"
      gradientUnits="userSpaceOnUse"
      xlink:href="#linearGradient4162" />
    <linearGradient
      id="linearGradient5729"
      x1="76.92757"
      y1="46.725947"
      x2="113.5342"
      y2="46.725947"
      gradientUnits="userSpaceOnUse"
      xlink:href="#linearGradient4170" />
  </defs>
  <sodipodi:namedview
    id="namedview4"
    window-height="1146"
    borderopacity="1"
    objecttolerance="10"
    guidetolerance="10"
    pageopacity="0"
    window-x="64"
    current-layer="g12"
    pageshadow="2"
    cx="146.02771"
    window-y="23"
    pagecolor="#ffffff"
    zoom="2.5185299"
    gridtolerance="10"
    cy="120.53317"
    window-width="1848"
    showgrid="false"
    window-maximized="0"
    bordercolor="#666666" />
  <g
    id="g12"
    inkscape:groupmode="layer"
    style="display:inline"
    transform="matrix(1.25,0,0,-1.25,0,287.5)">
    <rect
      id="rect5723"
      style="fill-opacity:1;fill:#ffffff;stroke-dasharray:none;stroke-opacity:1;fill-rule:nonzero;stroke:#ffffff;stroke-miterlimit:10;stroke-dashoffset:0;stroke-width:0.78998238;"
      transform="scale(1,-1)"
      x="7.618487"
      y="-233.47455"
      width="253.49121"
      height="235.70308" />
    <path
      id="path28"
      style="stroke:none;fill:#ffffff;fill-opacity:1;fill-rule:evenodd;"
      d="m 225.47649,118.06806 0,3.82422 -112.81498,0 0,-3.82422 112.81498,0 z " />
    <path
      id="path164"
      style="stroke-opacity:1;stroke-dasharray:none;fill:none;stroke:#000000;stroke-width:0.40000001;stroke-linecap:butt;stroke-linejoin:miter;stroke-miterlimit:10;"
      d="m 131.78252,93.21059 0,53.53947 " />
    <path
      id="path172"
      style="stroke:#000000;stroke-width:0.40000001;stroke-linecap:butt;stroke-linejoin:miter;stroke-miterlimit:10;stroke-opacity:1;stroke-dasharray:none;fill:none;"
      d="m 208.2672,93.21059 0,53.53947 " />
    <g
      id="g4124"
      transform="translate(143.82953,-63.868199)">
      <text
        id="text3287"
        style="font-weight:normal;stroke-width:1px;text-align:start;font-size:12px;block-progression:tb;display:inline;visibility:visible;direction:ltr;marker:none;letter-spacing:normal;text-indent:0;overflow:visible;stroke:none;space:preserve;text-decoration:none;font-style:normal;fill-opacity:1;writing-mode:lr-tb;font-stretch:normal;text-anchor:start;font-family:Arial;-inkscape-font-specification:Arial;fill:#000000;font-variant:normal;color:#000000;enable-background:accumulate;fill-rule:nonzero;text-transform:none;word-spacing:normal;line-height:normal;"
        transform="matrix(0.8,0,0,-0.8,0,230)"
        x="74.68262"
        y="105.00488">
        <tspan
          id="tspan3289"
          style="role:line;"
          x="74.68262"
          y="105.00488">E</tspan>
      </text>
      <text
        id="text3291"
        style="font-style:normal;space:preserve;fill-opacity:1;enable-background:accumulate;text-anchor:start;font-size:9.60000038px;marker:none;display:inline;fill:#000000;stroke:none;letter-spacing:normal;font-stretch:normal;-inkscape-font-specification:Arial;fill-rule:nonzero;text-indent:0;direction:ltr;visibility:visible;writing-mode:lr-tb;text-transform:none;color:#000000;font-family:Arial;text-decoration:none;word-spacing:normal;font-weight:normal;stroke-width:1px;block-progression:tb;line-height:normal;overflow:visible;font-variant:normal;text-align:start;"
        transform="scale(1,-1)"
        x="66.03516"
        y="-143.30078">
        <tspan
          id="tspan3293"
          style="role:line;"
          x="66.03516"
          y="-143.30078">e</tspan>
      </text>
    </g>
    <g
      id="g4130"
      transform="translate(61.991916,-8.6722963)">
      <text
        id="text3295"
        style="text-align:start;line-height:normal;text-anchor:start;-inkscape-font-specification:Arial;overflow:visible;enable-background:accumulate;space:preserve;font-stretch:normal;visibility:visible;display:inline;font-family:Arial;marker:none;stroke:none;stroke-width:1px;text-decoration:none;block-progression:tb;text-indent:0;fill:#000000;word-spacing:normal;fill-rule:nonzero;font-size:12px;direction:ltr;font-style:normal;font-weight:normal;letter-spacing:normal;writing-mode:lr-tb;fill-opacity:1;color:#000000;font-variant:normal;text-transform:none;"
        transform="matrix(0.8,0,0,-0.8,0,230)"
        x="80.859375"
        y="171.82617">
        <tspan
          id="tspan3297"
          style="role:line;"
          x="80.859375"
          y="171.82617">E</tspan>
      </text>
      <text
        id="text3299"
        style="visibility:visible;fill-opacity:1;text-indent:0;text-anchor:start;fill-rule:nonzero;text-decoration:none;stroke-width:1px;font-variant:normal;font-family:Arial;writing-mode:lr-tb;text-align:start;fill:#000000;overflow:visible;letter-spacing:normal;line-height:normal;marker:none;color:#000000;word-spacing:normal;font-style:normal;font-stretch:normal;font-size:9.60000038px;font-weight:normal;text-transform:none;display:inline;block-progression:tb;space:preserve;enable-background:accumulate;direction:ltr;-inkscape-font-specification:Arial;stroke:none;"
        transform="scale(1,-1)"
        x="71.23971"
        y="-87.99238">
        <tspan
          id="tspan3301"
          style="role:line;"
          x="71.23971"
          y="-87.99238">i</tspan>
      </text>
    </g>
    <g
      id="g4118"
      transform="translate(169.77521,-113.73148)">
      <text
        id="text3311"
        style="block-progression:tb;font-variant:normal;text-anchor:start;text-decoration:none;visibility:visible;font-weight:normal;overflow:visible;marker:none;font-stretch:normal;line-height:normal;writing-mode:lr-tb;letter-spacing:normal;display:inline;direction:ltr;text-transform:none;word-spacing:normal;enable-background:accumulate;color:#000000;font-style:normal;stroke:none;stroke-width:1px;-inkscape-font-specification:Arial;text-indent:0;text-align:start;font-family:Arial;fill-opacity:1;fill:#000000;font-size:12px;fill-rule:nonzero;space:preserve;"
        transform="matrix(0.8,0,0,-0.8,0,230)"
        x="70.19043"
        y="40.429688">
        <tspan
          id="tspan3313"
          style="role:line;"
          x="70.19043"
          y="40.429688">g</tspan>
      </text>
      <text
        id="text3315"
        style="direction:ltr;color:#000000;visibility:visible;-inkscape-font-specification:Arial;enable-background:accumulate;overflow:visible;font-weight:normal;text-decoration:none;font-style:normal;font-stretch:normal;text-align:start;text-anchor:start;writing-mode:lr-tb;stroke:none;marker:none;line-height:normal;font-variant:normal;space:preserve;display:inline;text-indent:0;letter-spacing:normal;fill-rule:nonzero;font-size:9.60000038px;fill:#000000;block-progression:tb;word-spacing:normal;fill-opacity:1;font-family:Arial;text-transform:none;stroke-width:1px;"
        transform="scale(1,-1)"
        x="61.09375"
        y="-193.16406">
        <tspan
          id="tspan3317"
          style="role:line;"
          x="61.09375"
          y="-193.16406">e</tspan>
      </text>
    </g>
    <g
      id="g4136"
      transform="translate(49.021808,45.636656)">
      <text
        id="text3303"
        style="writing-mode:lr-tb;space:preserve;font-size:9.60000038px;text-decoration:none;-inkscape-font-specification:Arial;font-variant:normal;visibility:visible;text-anchor:start;letter-spacing:normal;block-progression:tb;marker:none;word-spacing:normal;enable-background:accumulate;fill:#000000;text-transform:none;font-stretch:normal;font-family:Arial;text-align:start;fill-rule:nonzero;stroke:none;direction:ltr;color:#000000;overflow:visible;stroke-width:1px;font-weight:normal;font-style:normal;display:inline;line-height:normal;fill-opacity:1;text-indent:0;"
        transform="scale(1,-1)"
        x="53.007812"
        y="-39.08203">
        <tspan
          id="tspan3305"
          style="role:line;"
          x="53.007812"
          y="-39.08203">g</tspan>
      </text>
      <text
        id="text3307"
        style="display:inline;line-height:normal;text-indent:0;stroke-width:1px;fill:#000000;block-progression:tb;color:#000000;space:preserve;letter-spacing:normal;font-style:normal;fill-opacity:1;-inkscape-font-specification:Arial;marker:none;enable-background:accumulate;text-anchor:start;font-family:Arial;font-weight:normal;stroke:none;visibility:visible;font-stretch:normal;fill-rule:nonzero;font-size:9.60000038px;word-spacing:normal;text-align:start;font-variant:normal;direction:ltr;text-decoration:none;overflow:visible;text-transform:none;writing-mode:lr-tb;"
        transform="scale(1,-1)"
        x="58.17794"
        y="-33.683426">
        <tspan
          id="tspan3309"
          style="role:line;"
          x="58.17794"
          y="-33.683426">i</tspan>
      </text>
    </g>
    <path
      id="path4154"
      style="stroke-width:1.39771152;stroke-linecap:butt;stroke-linejoin:miter;stroke-miterlimit:4;stroke-opacity:1;stroke-dasharray:none;fill:none;stroke:#000000;"
      d="m 212.9849,120.02491 -86.29545,0 " />
    <g
      id="g4108"
      transform="translate(133.88816,68.856712)">
      <path
        id="path4093"
        style="stroke:#000000;fill:url(#linearGradient4302);stroke-linecap:butt;fill-opacity:1;stroke-miterlimit:4;stroke-linejoin:miter;stroke-width:0.40000001;stroke-dasharray:none;nodetypes:csssssssssssssssssssssssssssssssssssssssssssssssssssssssssssssssssssssssssssssssssssssssssssssssssc;stroke-opacity:1;"
        d="m 108.07967,69.65649 c -0.4836,0.0065 -1.39344,0.119612 -1.79716,0.05159 -0.71966,-0.121254 -0.95651,-0.268633 -1.32393,-0.576141 -0.1118,-0.09357 -0.57944,-0.630455 -0.86758,-1.038716 -0.30449,-0.431432 -0.5981,-1.424673 -0.67019,-1.63254 -0.20187,-0.582066 -0.22291,-0.914048 -0.1528,-1.24912 0.0184,-0.08815 0.43657,-1.630453 0.0416,-1.542141 -0.14808,0.03311 -0.42908,-0.476521 -0.77273,-0.934234 -0.37258,-0.496244 -0.96294,-1.154809 -0.68528,-1.186913 0.22697,-0.0262 0.55272,-0.218466 0.95861,-0.295014 0.15013,-0.02834 -0.003,-1.141066 0.14459,-1.192054 0.59108,-0.204454 2.63963,-0.33926 1.72921,-0.314048 -0.45949,0.01273 -1.15366,-0.000482 -1.55836,-0.05928 -0.21442,-0.03115 -0.23171,-0.307608 -0.3093,-0.961923 -0.008,-0.06921 0.003,-0.770259 0.0579,-0.945403 0.0894,-0.286616 0.36937,-0.349492 0.51319,-0.558165 0.114,-0.165402 0.58256,-0.133289 0.63506,-0.189389 0.20454,-0.218568 1.51528,-0.216977 1.78091,-0.310073 0.30058,-0.105333 0.32908,-0.968721 0.10937,-1.077996 -0.0591,-0.0294 -0.18743,-0.598227 -0.17799,-0.696793 0.0557,-0.58195 -0.2417,-0.891266 -0.8058,-1.170006 -0.6129,-0.302852 -0.71877,-0.373762 -1.71782,-0.240253 -1.59173,0.212711 -2.29663,-0.90081 -3.335115,-0.842327 -1.703648,0.09594 -3.428355,-1.152209 -5.067523,-1.301204 -0.874853,-0.07952 -1.774046,-0.193239 -2.288614,-0.176649 -0.903043,0.0291 -1.991426,0.08653 -2.963835,0.207822 -1.350955,0.168512 -2.292186,0.475865 -3.575221,0.853864 -1.923676,0.566743 -2.844821,0.61043 -4.849913,0.600358 -0.597248,-0.003 -3.155408,0.487192 -3.497058,0.490734 -0.56799,0.0059 1.147234,-0.623874 1.574197,-0.782318 0.561486,-0.208364 1.384194,-0.381331 0.742242,-0.42503 -0.643462,-0.0438 -3.202514,0.62844 -2.314297,0.04404 0.548458,-0.360859 2.836562,-0.813153 2.698534,-1.020281 -0.164406,-0.246711 -2.792211,0.417786 -3.172548,-0.03606 -0.349172,-0.416657 2.054549,-0.452191 2.761737,-0.587983 1.395046,-0.267873 -1.62331,-0.162437 -2.018082,-0.398564 -0.756756,-0.452644 -0.09075,-0.341746 1.398394,-0.35661 0.917871,-0.0092 1.320619,-0.168991 2.157022,-0.02191 1.415468,0.248893 1.401886,-0.189857 2.728452,-0.342839 1.162487,-0.134077 2.305354,-0.714629 3.513847,-0.83776 1.388356,-0.141456 2.856225,-1.115293 4.230052,-1.05079 1.136208,0.05335 1.715281,0.299531 2.733078,0.355013 1.620853,0.08836 2.388626,0.97542 4.008205,0.731044 0.88965,-0.134233 0.944983,0.143427 2.039856,-0.125812 0.50327,-0.123757 1.44885,-0.185409 1.64921,-0.31615 0.361,-0.235567 -0.0398,-0.334408 -0.0799,-0.984326 -0.012,-0.194534 -0.45151,-0.82654 -0.45642,-1.714012 -0.003,-0.602967 -0.0212,-1.674891 -0.0979,-2.521194 -0.13395,-1.478374 -0.4649,-2.587791 -0.68357,-4.013878 -0.15077,-0.979918 -0.01,-2.166537 -0.10708,-2.190412 -0.79624,-0.194904 -1.219672,0.423948 -1.911529,0.949902 -1.029931,0.78296 -1.94624,1.137845 -3.098204,1.637778 -0.692528,0.300545 -1.925923,0.932222 -2.472636,1.263972 -0.672684,0.408192 -1.326559,0.683318 -2.216164,1.038019 -1.090645,0.43486 -2.225889,0.537836 -3.434436,0.722745 -0.758214,0.115991 -0.987071,-0.114136 -1.299846,-0.459254 -0.27688,-0.305509 -0.874207,-0.517334 -0.727068,-1.181215 0.14746,-0.665331 0.278203,-0.722136 0.419414,-1.582592 0.238246,-1.451734 1.558696,-3.115076 2.486902,-4.278385 1.005872,-1.260646 0.966079,-1.246778 1.414165,-1.922632 0.969569,-1.462417 1.93774,-2.24208 2.522743,-2.880171 0.980198,-1.069151 0.94983,-1.183368 1.679098,-2.32055 0.193614,-0.301911 0.933741,-0.933636 1.083868,-1.13184 0.204873,-0.270484 0.06913,-0.789181 -0.792045,-0.753753 -0.900305,0.03704 -4.760676,-0.905119 -5.543128,-1.058095 -0.631245,-0.123423 -0.03636,-0.663317 1.069111,-1.007431 0.809041,-0.25184 3.408872,0.440241 3.818966,0.452788 1.804964,0.05523 3.383506,-0.258828 5.741229,-0.464335 0.110534,-0.0097 1.56125,-0.411148 1.5435,0.71325 -0.0127,0.80536 -0.42603,0.506382 -0.90277,1.282053 -0.695591,1.13176 -0.882511,1.112369 -1.420373,1.601403 -0.928593,0.844291 -1.173694,1.474479 -1.745706,2.354374 -0.348694,0.536379 -0.851598,1.014389 -1.109894,1.519018 -0.319979,0.625141 -0.624354,1.147093 -1.488315,2.422414 -0.313077,0.462144 -1.930197,2.357272 -1.10507,1.727773 1.090482,-0.831941 2.194213,-2.147992 3.421622,-3.046297 1.366389,-1.000017 2.215308,-1.412305 3.245146,-2.019279 1.52393,-0.898183 2.80347,-1.289902 3.73282,-1.686769 0.87025,-0.371624 2.28843,-0.431049 3.46512,-0.165435 0.41304,0.09323 1.24292,0.732165 1.69155,1.767545 0.47163,1.088453 0.34497,2.329416 0.60271,3.369888 0.42173,1.702494 0.36975,1.828534 0.48814,2.972662 0.0809,0.781738 0.0292,1.522212 0.19179,2.223498 0.28009,1.208379 0.13665,2.729412 0.59233,3.720869 0.19866,0.432226 0.77453,1.448887 0.89711,2.319955 0.24325,1.72855 0.6913,3.507512 0.64968,5.201401 -0.0263,1.068676 -0.24258,1.498907 -0.55618,2.323459 -0.41041,1.079074 0.0617,0.529649 -0.86726,1.124131 -0.86454,0.553249 -0.82205,0.497646 -0.88509,1.246889 -0.0241,0.28661 -0.1749,1.484735 0.14219,1.583917 0.65044,0.203445 0.64139,1.083658 1.09083,1.77165 0.65384,1.000891 1.37297,1.23256 1.5833,2.995528 0.15513,1.300251 0.56102,2.435533 0.32618,3.753204 -0.13468,0.7557 -0.14421,0.857413 -0.43758,2.026106 -0.11022,0.439078 -0.31277,1.023202 -0.57624,1.32394 -0.34435,0.393053 -0.60877,0.736349 -1.11982,0.879053 -1.23008,0.343486 -1.31745,0.336626 -1.97461,0.438782 -0.50299,0.07816 -0.84907,0.108919 -1.07477,0.111943 l -1e-05,-3e-05 z " />
      <path
        id="path4096"
        style="stroke:#000000;stroke-opacity:1;fill-opacity:1;stroke-width:0.40000001;stroke-linecap:butt;stroke-miterlimit:4;fill:url(#linearGradient4304);stroke-linejoin:miter;stroke-dasharray:none;"
        d="m 103.88594,64.567215 c 2.65183,0.08217 0.40839,-1.771352 -0.16845,-0.617672 -0.17493,0.349848 -0.41144,0.02552 0.16845,0.617672 z " />
    </g>
    <g
      id="g4156"
      transform="matrix(-1,0,0,1,205.98078,68.856712)">
      <path
        id="path4158"
        style="stroke-linecap:butt;stroke-miterlimit:4;stroke-opacity:1;fill:url(#linearGradient4308);stroke-linejoin:miter;fill-opacity:1;stroke:#000000;stroke-width:0.40000001;stroke-dasharray:none;nodetypes:csssssssssssssssssssssssssssssssssssssssssssssssssssssssssssssssssssssssssssssssssssssssssssssssssc;"
        d="m 108.07967,69.65649 c -0.4836,0.0065 -1.39344,0.119612 -1.79716,0.05159 -0.71966,-0.121254 -0.95651,-0.268633 -1.32393,-0.576141 -0.1118,-0.09357 -0.57944,-0.630455 -0.86758,-1.038716 -0.30449,-0.431432 -0.5981,-1.424673 -0.67019,-1.63254 -0.20187,-0.582066 -0.22291,-0.914048 -0.1528,-1.24912 0.0184,-0.08815 0.43657,-1.630453 0.0416,-1.542141 -0.14808,0.03311 -0.42908,-0.476521 -0.77273,-0.934234 -0.37258,-0.496244 -0.96294,-1.154809 -0.68528,-1.186913 0.22697,-0.0262 0.55272,-0.218466 0.95861,-0.295014 0.15013,-0.02834 -0.003,-1.141066 0.14459,-1.192054 0.59108,-0.204454 2.63963,-0.33926 1.72921,-0.314048 -0.45949,0.01273 -1.15366,-0.000482 -1.55836,-0.05928 -0.21442,-0.03115 -0.23171,-0.307608 -0.3093,-0.961923 -0.008,-0.06921 0.003,-0.770259 0.0579,-0.945403 0.0894,-0.286616 0.36937,-0.349492 0.51319,-0.558165 0.114,-0.165402 0.58256,-0.133289 0.63506,-0.189389 0.20454,-0.218568 1.51528,-0.216977 1.78091,-0.310073 0.30058,-0.105333 0.32908,-0.968721 0.10937,-1.077996 -0.0591,-0.0294 -0.18743,-0.598227 -0.17799,-0.696793 0.0557,-0.58195 -0.2417,-0.891266 -0.8058,-1.170006 -0.6129,-0.302852 -0.71877,-0.373762 -1.71782,-0.240253 -1.59173,0.212711 -2.29663,-0.90081 -3.335115,-0.842327 -1.703648,0.09594 -3.428355,-1.152209 -5.067523,-1.301204 -0.874853,-0.07952 -1.774046,-0.193239 -2.288614,-0.176649 -0.903043,0.0291 -1.991426,0.08653 -2.963835,0.207822 -1.350955,0.168512 -2.292186,0.475865 -3.575221,0.853864 -1.923676,0.566743 -2.844821,0.61043 -4.849913,0.600358 -0.597248,-0.003 -3.155408,0.487192 -3.497058,0.490734 -0.56799,0.0059 1.147234,-0.623874 1.574197,-0.782318 0.561486,-0.208364 1.384194,-0.381331 0.742242,-0.42503 -0.643462,-0.0438 -3.202514,0.62844 -2.314297,0.04404 0.548458,-0.360859 2.836562,-0.813153 2.698534,-1.020281 -0.164406,-0.246711 -2.792211,0.417786 -3.172548,-0.03606 -0.349172,-0.416657 2.054549,-0.452191 2.761737,-0.587983 1.395046,-0.267873 -1.62331,-0.162437 -2.018082,-0.398564 -0.756756,-0.452644 -0.09075,-0.341746 1.398394,-0.35661 0.917871,-0.0092 1.320619,-0.168991 2.157022,-0.02191 1.415468,0.248893 1.401886,-0.189857 2.728452,-0.342839 1.162487,-0.134077 2.305354,-0.714629 3.513847,-0.83776 1.388356,-0.141456 2.856225,-1.115293 4.230052,-1.05079 1.136208,0.05335 1.715281,0.299531 2.733078,0.355013 1.620853,0.08836 2.388626,0.97542 4.008205,0.731044 0.88965,-0.134233 0.944983,0.143427 2.039856,-0.125812 0.50327,-0.123757 1.44885,-0.185409 1.64921,-0.31615 0.361,-0.235567 -0.0398,-0.334408 -0.0799,-0.984326 -0.012,-0.194534 -0.45151,-0.82654 -0.45642,-1.714012 -0.003,-0.602967 -0.0212,-1.674891 -0.0979,-2.521194 -0.13395,-1.478374 -0.4649,-2.587791 -0.68357,-4.013878 -0.15077,-0.979918 -0.01,-2.166537 -0.10708,-2.190412 -0.79624,-0.194904 -1.219672,0.423948 -1.911529,0.949902 -1.029931,0.78296 -1.94624,1.137845 -3.098204,1.637778 -0.692528,0.300545 -1.925923,0.932222 -2.472636,1.263972 -0.672684,0.408192 -1.326559,0.683318 -2.216164,1.038019 -1.090645,0.43486 -2.225889,0.537836 -3.434436,0.722745 -0.758214,0.115991 -0.987071,-0.114136 -1.299846,-0.459254 -0.27688,-0.305509 -0.874207,-0.517334 -0.727068,-1.181215 0.14746,-0.665331 0.278203,-0.722136 0.419414,-1.582592 0.238246,-1.451734 1.558696,-3.115076 2.486902,-4.278385 1.005872,-1.260646 0.966079,-1.246778 1.414165,-1.922632 0.969569,-1.462417 1.93774,-2.24208 2.522743,-2.880171 0.980198,-1.069151 0.94983,-1.183368 1.679098,-2.32055 0.193614,-0.301911 0.933741,-0.933636 1.083868,-1.13184 0.204873,-0.270484 0.06913,-0.789181 -0.792045,-0.753753 -0.900305,0.03704 -4.760676,-0.905119 -5.543128,-1.058095 -0.631245,-0.123423 -0.03636,-0.663317 1.069111,-1.007431 0.809041,-0.25184 3.408872,0.440241 3.818966,0.452788 1.804964,0.05523 3.383506,-0.258828 5.741229,-0.464335 0.110534,-0.0097 1.56125,-0.411148 1.5435,0.71325 -0.0127,0.80536 -0.42603,0.506382 -0.90277,1.282053 -0.695591,1.13176 -0.882511,1.112369 -1.420373,1.601403 -0.928593,0.844291 -1.173694,1.474479 -1.745706,2.354374 -0.348694,0.536379 -0.851598,1.014389 -1.109894,1.519018 -0.319979,0.625141 -0.624354,1.147093 -1.488315,2.422414 -0.313077,0.462144 -1.930197,2.357272 -1.10507,1.727773 1.090482,-0.831941 2.194213,-2.147992 3.421622,-3.046297 1.366389,-1.000017 2.215308,-1.412305 3.245146,-2.019279 1.52393,-0.898183 2.80347,-1.289902 3.73282,-1.686769 0.87025,-0.371624 2.28843,-0.431049 3.46512,-0.165435 0.41304,0.09323 1.24292,0.732165 1.69155,1.767545 0.47163,1.088453 0.34497,2.329416 0.60271,3.369888 0.42173,1.702494 0.36975,1.828534 0.48814,2.972662 0.0809,0.781738 0.0292,1.522212 0.19179,2.223498 0.28009,1.208379 0.13665,2.729412 0.59233,3.720869 0.19866,0.432226 0.77453,1.448887 0.89711,2.319955 0.24325,1.72855 0.6913,3.507512 0.64968,5.201401 -0.0263,1.068676 -0.24258,1.498907 -0.55618,2.323459 -0.41041,1.079074 0.0617,0.529649 -0.86726,1.124131 -0.86454,0.553249 -0.82205,0.497646 -0.88509,1.246889 -0.0241,0.28661 -0.1749,1.484735 0.14219,1.583917 0.65044,0.203445 0.64139,1.083658 1.09083,1.77165 0.65384,1.000891 1.37297,1.23256 1.5833,2.995528 0.15513,1.300251 0.56102,2.435533 0.32618,3.753204 -0.13468,0.7557 -0.14421,0.857413 -0.43758,2.026106 -0.11022,0.439078 -0.31277,1.023202 -0.57624,1.32394 -0.34435,0.393053 -0.60877,0.736349 -1.11982,0.879053 -1.23008,0.343486 -1.31745,0.336626 -1.97461,0.438782 -0.50299,0.07816 -0.84907,0.108919 -1.07477,0.111943 l -1e-05,-3e-05 z " />
      <path
        id="path4160"
        style="stroke-dasharray:none;stroke-opacity:1;stroke-miterlimit:4;stroke-width:0.40000001;stroke:#000000;fill-opacity:1;stroke-linejoin:miter;stroke-linecap:butt;fill:url(#linearGradient4310);"
        d="m 103.88594,64.567215 c 2.65183,0.08217 0.40839,-1.771352 -0.16845,-0.617672 -0.17493,0.349848 -0.41144,0.02552 0.16845,0.617672 z " />
    </g>
    <path
      id="path4403"
      style="fill-rule:evenodd;stroke:none;fill:#ffffff;fill-opacity:1;"
      d="m 225.47649,196.3677 0,3.82422 -112.81498,0 0,-3.82422 112.81498,0 z " />
    <path
      id="path4469"
      style="stroke-linecap:butt;stroke-linejoin:miter;stroke-miterlimit:4;stroke-opacity:1;stroke-dasharray:none;fill:none;stroke:#000000;stroke-width:1.39771152;"
      d="m 212.9849,198.32455 -86.29545,0 " />
    <path
      id="path4407"
      style="stroke-linecap:butt;stroke-linejoin:miter;stroke-miterlimit:10;stroke-opacity:1;stroke-dasharray:none;fill:none;stroke:#000000;stroke-width:0.40000001;"
      d="m 131.78252,171.51022 0,53.53947 " />
    <path
      id="path4409"
      style="fill:none;stroke:#000000;stroke-width:0.40000001;stroke-linecap:butt;stroke-linejoin:miter;stroke-miterlimit:10;stroke-opacity:1;stroke-dasharray:none;"
      d="m 208.2672,171.51022 0,53.53947 " />
    <text
      id="text4411"
      style="overflow:visible;text-indent:0;font-variant:normal;-inkscape-font-specification:Arial;text-transform:none;writing-mode:lr-tb;space:preserve;line-height:normal;fill-opacity:1;stroke-width:1px;font-family:Arial;fill-rule:nonzero;text-align:start;marker:none;display:inline;visibility:visible;color:#000000;block-progression:tb;stroke:none;font-style:normal;letter-spacing:normal;fill:#000000;text-anchor:start;direction:ltr;word-spacing:normal;font-weight:normal;font-size:9.60000038px;enable-background:accumulate;font-stretch:normal;text-decoration:none;"
      transform="scale(1,-1)"
      x="215.61244"
      y="-222.70398">
      <tspan
        id="tspan4413"
        style="role:line;"
        x="215.61244"
        y="-222.70398">Excitation</tspan>
    </text>
    <text
      id="text4415"
      style="-inkscape-font-specification:Arial;marker:none;fill:#000000;stroke-width:1px;text-indent:0;word-spacing:normal;font-variant:normal;text-align:start;direction:ltr;space:preserve;stroke:none;display:inline;visibility:visible;fill-opacity:1;enable-background:accumulate;text-anchor:start;overflow:visible;font-stretch:normal;text-transform:none;font-family:Arial;font-style:normal;fill-rule:nonzero;letter-spacing:normal;color:#000000;block-progression:tb;text-decoration:none;writing-mode:lr-tb;line-height:normal;font-weight:normal;font-size:9.60000038px;"
      transform="scale(1,-1)"
      x="86.58816"
      y="-222.70398">
      <tspan
        id="tspan4417"
        style="role:line;"
        x="86.58816"
        y="-222.70398">Inhibition</tspan>
    </text>
    <g
      id="g4828"
      transform="translate(40.340994,9.5293687)">
      <path
        id="path4405"
        style="stroke-dasharray:none;fill:#7f2aff;stroke:#7f2aff;stroke-width:0.80000001;stroke-linecap:butt;stroke-linejoin:miter;stroke-miterlimit:10;stroke-opacity:1;"
        d="m 98.23658,183.01402 0,11.4727 " />
      <g
        id="g4419"
        transform="translate(164.18576,25.542087)">
        <text
          id="text4421"
          style="direction:ltr;font-size:9.60000038px;text-anchor:start;display:inline;writing-mode:lr-tb;font-weight:normal;stroke:none;font-variant:normal;block-progression:tb;text-indent:0;text-decoration:none;font-stretch:normal;stroke-width:1px;word-spacing:normal;text-align:start;fill-rule:nonzero;enable-background:accumulate;visibility:visible;fill-opacity:1;font-family:Arial;marker:none;overflow:visible;-inkscape-font-specification:Arial;text-transform:none;space:preserve;color:#000000;letter-spacing:normal;font-style:normal;line-height:normal;fill:#7137c8;"
          transform="scale(1,-1)"
          x="-72.66151"
          y="-149.27768">
          <tspan
            id="tspan4423"
            style="role:line;"
            x="-72.66151"
            y="-149.27768">V</tspan>
        </text>
        <text
          id="text4425"
          style="font-size:9.60000038px;fill:#7137c8;font-variant:normal;-inkscape-font-specification:Arial;line-height:normal;fill-opacity:1;visibility:visible;word-spacing:normal;stroke-width:1px;text-indent:0;block-progression:tb;text-anchor:start;overflow:visible;space:preserve;stroke:none;text-transform:none;letter-spacing:normal;writing-mode:lr-tb;font-family:Arial;font-style:normal;text-align:start;color:#000000;display:inline;enable-background:accumulate;font-weight:normal;marker:none;text-decoration:none;font-stretch:normal;direction:ltr;fill-rule:nonzero;"
          transform="scale(1,-1)"
          x="-67.7201"
          y="-147.08609">
          <tspan
            id="tspan4427"
            style="role:line;"
            x="-67.7201"
            y="-147.08609">m</tspan>
        </text>
      </g>
    </g>
    <g
      id="g4429"
      transform="translate(143.82953,14.431437)">
      <text
        id="text4431"
        style="letter-spacing:normal;line-height:normal;display:inline;font-stretch:normal;fill-opacity:1;marker:none;font-style:normal;space:preserve;text-anchor:start;text-decoration:none;visibility:visible;text-indent:0;color:#000000;stroke-width:1px;font-weight:normal;enable-background:accumulate;block-progression:tb;overflow:visible;font-family:Arial;font-size:12px;stroke:none;text-transform:none;fill-rule:nonzero;writing-mode:lr-tb;text-align:start;font-variant:normal;word-spacing:normal;direction:ltr;fill:#000000;-inkscape-font-specification:Arial;"
        transform="matrix(0.8,0,0,-0.8,0,230)"
        x="74.68262"
        y="105.00488">
        <tspan
          id="tspan4433"
          style="role:line;"
          x="74.68262"
          y="105.00488">E</tspan>
      </text>
      <text
        id="text4435"
        style="text-decoration:none;text-align:start;font-size:9.60000038px;direction:ltr;text-transform:none;marker:none;writing-mode:lr-tb;font-variant:normal;font-weight:normal;font-family:Arial;font-stretch:normal;-inkscape-font-specification:Arial;text-anchor:start;space:preserve;line-height:normal;font-style:normal;color:#000000;display:inline;word-spacing:normal;visibility:visible;block-progression:tb;stroke-width:1px;fill-opacity:1;letter-spacing:normal;text-indent:0;stroke:none;overflow:visible;fill:#000000;fill-rule:nonzero;enable-background:accumulate;"
        transform="scale(1,-1)"
        x="66.03516"
        y="-143.30078">
        <tspan
          id="tspan4437"
          style="role:line;"
          x="66.03516"
          y="-143.30078">e</tspan>
      </text>
    </g>
    <g
      id="g4439"
      transform="translate(61.991916,69.62734)">
      <text
        id="text4441"
        style="font-stretch:normal;overflow:visible;line-height:normal;text-align:start;space:preserve;text-decoration:none;block-progression:tb;fill-opacity:1;display:inline;text-anchor:start;stroke:none;visibility:visible;font-family:Arial;marker:none;font-size:12px;fill-rule:nonzero;font-variant:normal;font-weight:normal;word-spacing:normal;stroke-width:1px;font-style:normal;letter-spacing:normal;text-transform:none;enable-background:accumulate;writing-mode:lr-tb;direction:ltr;-inkscape-font-specification:Arial;text-indent:0;fill:#000000;color:#000000;"
        transform="matrix(0.8,0,0,-0.8,0,230)"
        x="80.859375"
        y="171.82617">
        <tspan
          id="tspan4443"
          style="role:line;"
          x="80.859375"
          y="171.82617">E</tspan>
      </text>
      <text
        id="text4445"
        style="fill-opacity:1;stroke:none;letter-spacing:normal;font-weight:normal;fill:#000000;block-progression:tb;text-decoration:none;line-height:normal;font-size:9.60000038px;overflow:visible;color:#000000;font-stretch:normal;text-anchor:start;marker:none;font-style:normal;font-variant:normal;visibility:visible;space:preserve;fill-rule:nonzero;word-spacing:normal;stroke-width:1px;writing-mode:lr-tb;display:inline;text-transform:none;direction:ltr;enable-background:accumulate;-inkscape-font-specification:Arial;text-indent:0;font-family:Arial;text-align:start;"
        transform="scale(1,-1)"
        x="71.23971"
        y="-87.99238">
        <tspan
          id="tspan4447"
          style="role:line;"
          x="71.23971"
          y="-87.99238">i</tspan>
      </text>
    </g>
    <g
      id="g4449"
      transform="translate(158.33997,-13.514294)">
      <text
        id="text4451"
        style="text-decoration:none;line-height:normal;direction:ltr;text-indent:0;enable-background:accumulate;letter-spacing:normal;display:inline;text-anchor:start;font-style:normal;color:#000000;space:preserve;block-progression:tb;word-spacing:normal;font-variant:normal;stroke-width:1px;font-stretch:normal;stroke:none;fill-rule:nonzero;marker:none;overflow:visible;font-family:Arial;text-transform:none;fill:#000000;writing-mode:lr-tb;font-weight:normal;fill-opacity:1;-inkscape-font-specification:Arial;text-align:start;visibility:visible;font-size:12px;"
        transform="matrix(0.8,0,0,-0.8,0,230)"
        x="70.19043"
        y="40.429688">
        <tspan
          id="tspan4453"
          style="role:line;"
          x="70.19043"
          y="40.429688">g</tspan>
      </text>
      <text
        id="text4455"
        style="font-family:Arial;fill:#000000;visibility:visible;font-weight:normal;font-variant:normal;color:#000000;direction:ltr;letter-spacing:normal;word-spacing:normal;text-decoration:none;text-indent:0;block-progression:tb;font-stretch:normal;text-align:start;stroke:none;display:inline;space:preserve;font-style:normal;stroke-width:1px;text-transform:none;font-size:9.60000038px;overflow:visible;line-height:normal;text-anchor:start;writing-mode:lr-tb;marker:none;fill-rule:nonzero;enable-background:accumulate;-inkscape-font-specification:Arial;fill-opacity:1;"
        transform="scale(1,-1)"
        x="61.09375"
        y="-193.16406">
        <tspan
          id="tspan4457"
          style="role:line;"
          x="61.09375"
          y="-193.16406">e</tspan>
      </text>
    </g>
    <g
      id="g4459"
      transform="translate(49.021808,123.93629)">
      <text
        id="text4461"
        style="font-family:Arial;marker:none;text-align:start;space:preserve;fill-opacity:1;line-height:normal;-inkscape-font-specification:Arial;overflow:visible;fill:#000000;font-weight:normal;text-decoration:none;enable-background:accumulate;stroke-width:1px;font-stretch:normal;writing-mode:lr-tb;stroke:none;direction:ltr;visibility:visible;font-size:9.60000038px;font-style:normal;text-indent:0;block-progression:tb;text-transform:none;display:inline;text-anchor:start;fill-rule:nonzero;letter-spacing:normal;color:#000000;word-spacing:normal;font-variant:normal;"
        transform="scale(1,-1)"
        x="53.007812"
        y="-39.08203">
        <tspan
          id="tspan4463"
          style="role:line;"
          x="53.007812"
          y="-39.08203">g</tspan>
      </text>
      <text
        id="text4465"
        style="font-family:Arial;enable-background:accumulate;text-indent:0;fill-opacity:1;marker:none;fill:#000000;text-decoration:none;display:inline;stroke-width:1px;stroke:none;color:#000000;font-weight:normal;direction:ltr;block-progression:tb;word-spacing:normal;font-style:normal;space:preserve;-inkscape-font-specification:Arial;text-transform:none;letter-spacing:normal;line-height:normal;font-stretch:normal;overflow:visible;text-anchor:start;writing-mode:lr-tb;visibility:visible;font-size:9.60000038px;fill-rule:nonzero;font-variant:normal;text-align:start;"
        transform="scale(1,-1)"
        x="58.17794"
        y="-33.683426">
        <tspan
          id="tspan4467"
          style="role:line;"
          x="58.17794"
          y="-33.683426">i</tspan>
      </text>
    </g>
    <g
      id="g4471"
      transform="matrix(0.23640018,0,0,0.23640018,194.21826,186.08245)">
      <path
        id="path4473"
        style="stroke-width:0.40000001;fill:url(#linearGradient4733);stroke-linejoin:miter;nodetypes:csssssssssssssssssssssssssssssssssssssssssssssssssssssssssssssssssssssssssssssssssssssssssssssssssc;stroke-linecap:butt;stroke-opacity:1;fill-opacity:1;stroke-dasharray:none;stroke:#000000;stroke-miterlimit:4;"
        d="m 108.07967,69.65649 c -0.4836,0.0065 -1.39344,0.119612 -1.79716,0.05159 -0.71966,-0.121254 -0.95651,-0.268633 -1.32393,-0.576141 -0.1118,-0.09357 -0.57944,-0.630455 -0.86758,-1.038716 -0.30449,-0.431432 -0.5981,-1.424673 -0.67019,-1.63254 -0.20187,-0.582066 -0.22291,-0.914048 -0.1528,-1.24912 0.0184,-0.08815 0.43657,-1.630453 0.0416,-1.542141 -0.14808,0.03311 -0.42908,-0.476521 -0.77273,-0.934234 -0.37258,-0.496244 -0.96294,-1.154809 -0.68528,-1.186913 0.22697,-0.0262 0.55272,-0.218466 0.95861,-0.295014 0.15013,-0.02834 -0.003,-1.141066 0.14459,-1.192054 0.59108,-0.204454 2.63963,-0.33926 1.72921,-0.314048 -0.45949,0.01273 -1.15366,-0.000482 -1.55836,-0.05928 -0.21442,-0.03115 -0.23171,-0.307608 -0.3093,-0.961923 -0.008,-0.06921 0.003,-0.770259 0.0579,-0.945403 0.0894,-0.286616 0.36937,-0.349492 0.51319,-0.558165 0.114,-0.165402 0.58256,-0.133289 0.63506,-0.189389 0.20454,-0.218568 1.51528,-0.216977 1.78091,-0.310073 0.30058,-0.105333 0.32908,-0.968721 0.10937,-1.077996 -0.0591,-0.0294 -0.18743,-0.598227 -0.17799,-0.696793 0.0557,-0.58195 -0.2417,-0.891266 -0.8058,-1.170006 -0.6129,-0.302852 -0.71877,-0.373762 -1.71782,-0.240253 -1.59173,0.212711 -2.29663,-0.90081 -3.335115,-0.842327 -1.703648,0.09594 -3.428355,-1.152209 -5.067523,-1.301204 -0.874853,-0.07952 -1.774046,-0.193239 -2.288614,-0.176649 -0.903043,0.0291 -1.991426,0.08653 -2.963835,0.207822 -1.350955,0.168512 -2.292186,0.475865 -3.575221,0.853864 -1.923676,0.566743 -2.844821,0.61043 -4.849913,0.600358 -0.597248,-0.003 -3.155408,0.487192 -3.497058,0.490734 -0.56799,0.0059 1.147234,-0.623874 1.574197,-0.782318 0.561486,-0.208364 1.384194,-0.381331 0.742242,-0.42503 -0.643462,-0.0438 -3.202514,0.62844 -2.314297,0.04404 0.548458,-0.360859 2.836562,-0.813153 2.698534,-1.020281 -0.164406,-0.246711 -2.792211,0.417786 -3.172548,-0.03606 -0.349172,-0.416657 2.054549,-0.452191 2.761737,-0.587983 1.395046,-0.267873 -1.62331,-0.162437 -2.018082,-0.398564 -0.756756,-0.452644 -0.09075,-0.341746 1.398394,-0.35661 0.917871,-0.0092 1.320619,-0.168991 2.157022,-0.02191 1.415468,0.248893 1.401886,-0.189857 2.728452,-0.342839 1.162487,-0.134077 2.305354,-0.714629 3.513847,-0.83776 1.388356,-0.141456 2.856225,-1.115293 4.230052,-1.05079 1.136208,0.05335 1.715281,0.299531 2.733078,0.355013 1.620853,0.08836 2.388626,0.97542 4.008205,0.731044 0.88965,-0.134233 0.944983,0.143427 2.039856,-0.125812 0.50327,-0.123757 1.44885,-0.185409 1.64921,-0.31615 0.361,-0.235567 -0.0398,-0.334408 -0.0799,-0.984326 -0.012,-0.194534 -0.45151,-0.82654 -0.45642,-1.714012 -0.003,-0.602967 -0.0212,-1.674891 -0.0979,-2.521194 -0.13395,-1.478374 -0.4649,-2.587791 -0.68357,-4.013878 -0.15077,-0.979918 -0.01,-2.166537 -0.10708,-2.190412 -0.79624,-0.194904 -1.219672,0.423948 -1.911529,0.949902 -1.029931,0.78296 -1.94624,1.137845 -3.098204,1.637778 -0.692528,0.300545 -1.925923,0.932222 -2.472636,1.263972 -0.672684,0.408192 -1.326559,0.683318 -2.216164,1.038019 -1.090645,0.43486 -2.225889,0.537836 -3.434436,0.722745 -0.758214,0.115991 -0.987071,-0.114136 -1.299846,-0.459254 -0.27688,-0.305509 -0.874207,-0.517334 -0.727068,-1.181215 0.14746,-0.665331 0.278203,-0.722136 0.419414,-1.582592 0.238246,-1.451734 1.558696,-3.115076 2.486902,-4.278385 1.005872,-1.260646 0.966079,-1.246778 1.414165,-1.922632 0.969569,-1.462417 1.93774,-2.24208 2.522743,-2.880171 0.980198,-1.069151 0.94983,-1.183368 1.679098,-2.32055 0.193614,-0.301911 0.933741,-0.933636 1.083868,-1.13184 0.204873,-0.270484 0.06913,-0.789181 -0.792045,-0.753753 -0.900305,0.03704 -4.760676,-0.905119 -5.543128,-1.058095 -0.631245,-0.123423 -0.03636,-0.663317 1.069111,-1.007431 0.809041,-0.25184 3.408872,0.440241 3.818966,0.452788 1.804964,0.05523 3.383506,-0.258828 5.741229,-0.464335 0.110534,-0.0097 1.56125,-0.411148 1.5435,0.71325 -0.0127,0.80536 -0.42603,0.506382 -0.90277,1.282053 -0.695591,1.13176 -0.882511,1.112369 -1.420373,1.601403 -0.928593,0.844291 -1.173694,1.474479 -1.745706,2.354374 -0.348694,0.536379 -0.851598,1.014389 -1.109894,1.519018 -0.319979,0.625141 -0.624354,1.147093 -1.488315,2.422414 -0.313077,0.462144 -1.930197,2.357272 -1.10507,1.727773 1.090482,-0.831941 2.194213,-2.147992 3.421622,-3.046297 1.366389,-1.000017 2.215308,-1.412305 3.245146,-2.019279 1.52393,-0.898183 2.80347,-1.289902 3.73282,-1.686769 0.87025,-0.371624 2.28843,-0.431049 3.46512,-0.165435 0.41304,0.09323 1.24292,0.732165 1.69155,1.767545 0.47163,1.088453 0.34497,2.329416 0.60271,3.369888 0.42173,1.702494 0.36975,1.828534 0.48814,2.972662 0.0809,0.781738 0.0292,1.522212 0.19179,2.223498 0.28009,1.208379 0.13665,2.729412 0.59233,3.720869 0.19866,0.432226 0.77453,1.448887 0.89711,2.319955 0.24325,1.72855 0.6913,3.507512 0.64968,5.201401 -0.0263,1.068676 -0.24258,1.498907 -0.55618,2.323459 -0.41041,1.079074 0.0617,0.529649 -0.86726,1.124131 -0.86454,0.553249 -0.82205,0.497646 -0.88509,1.246889 -0.0241,0.28661 -0.1749,1.484735 0.14219,1.583917 0.65044,0.203445 0.64139,1.083658 1.09083,1.77165 0.65384,1.000891 1.37297,1.23256 1.5833,2.995528 0.15513,1.300251 0.56102,2.435533 0.32618,3.753204 -0.13468,0.7557 -0.14421,0.857413 -0.43758,2.026106 -0.11022,0.439078 -0.31277,1.023202 -0.57624,1.32394 -0.34435,0.393053 -0.60877,0.736349 -1.11982,0.879053 -1.23008,0.343486 -1.31745,0.336626 -1.97461,0.438782 -0.50299,0.07816 -0.84907,0.108919 -1.07477,0.111943 l -1e-05,-3e-05 z " />
      <path
        id="path4475"
        style="stroke-linecap:butt;fill-opacity:1;stroke-width:0.40000001;fill:url(#linearGradient4735);stroke-miterlimit:4;stroke-dasharray:none;stroke:#000000;stroke-opacity:1;stroke-linejoin:miter;"
        d="m 103.88594,64.567215 c 2.65183,0.08217 0.40839,-1.771352 -0.16845,-0.617672 -0.17493,0.349848 -0.41144,0.02552 0.16845,0.617672 z " />
    </g>
    <g
      id="g4477"
      transform="matrix(-1,0,0,1,205.98078,147.15635)">
      <path
        id="path4479"
        style="stroke-miterlimit:4;fill:url(#linearGradient4489);stroke-opacity:1;nodetypes:csssssssssssssssssssssssssssssssssssssssssssssssssssssssssssssssssssssssssssssssssssssssssssssssssc;stroke-linejoin:miter;stroke-dasharray:none;fill-opacity:1;stroke-width:0.40000001;stroke:#000000;stroke-linecap:butt;"
        d="m 108.07967,69.65649 c -0.4836,0.0065 -1.39344,0.119612 -1.79716,0.05159 -0.71966,-0.121254 -0.95651,-0.268633 -1.32393,-0.576141 -0.1118,-0.09357 -0.57944,-0.630455 -0.86758,-1.038716 -0.30449,-0.431432 -0.5981,-1.424673 -0.67019,-1.63254 -0.20187,-0.582066 -0.22291,-0.914048 -0.1528,-1.24912 0.0184,-0.08815 0.43657,-1.630453 0.0416,-1.542141 -0.14808,0.03311 -0.42908,-0.476521 -0.77273,-0.934234 -0.37258,-0.496244 -0.96294,-1.154809 -0.68528,-1.186913 0.22697,-0.0262 0.55272,-0.218466 0.95861,-0.295014 0.15013,-0.02834 -0.003,-1.141066 0.14459,-1.192054 0.59108,-0.204454 2.63963,-0.33926 1.72921,-0.314048 -0.45949,0.01273 -1.15366,-0.000482 -1.55836,-0.05928 -0.21442,-0.03115 -0.23171,-0.307608 -0.3093,-0.961923 -0.008,-0.06921 0.003,-0.770259 0.0579,-0.945403 0.0894,-0.286616 0.36937,-0.349492 0.51319,-0.558165 0.114,-0.165402 0.58256,-0.133289 0.63506,-0.189389 0.20454,-0.218568 1.51528,-0.216977 1.78091,-0.310073 0.30058,-0.105333 0.32908,-0.968721 0.10937,-1.077996 -0.0591,-0.0294 -0.18743,-0.598227 -0.17799,-0.696793 0.0557,-0.58195 -0.2417,-0.891266 -0.8058,-1.170006 -0.6129,-0.302852 -0.71877,-0.373762 -1.71782,-0.240253 -1.59173,0.212711 -2.29663,-0.90081 -3.335115,-0.842327 -1.703648,0.09594 -3.428355,-1.152209 -5.067523,-1.301204 -0.874853,-0.07952 -1.774046,-0.193239 -2.288614,-0.176649 -0.903043,0.0291 -1.991426,0.08653 -2.963835,0.207822 -1.350955,0.168512 -2.292186,0.475865 -3.575221,0.853864 -1.923676,0.566743 -2.844821,0.61043 -4.849913,0.600358 -0.597248,-0.003 -3.155408,0.487192 -3.497058,0.490734 -0.56799,0.0059 1.147234,-0.623874 1.574197,-0.782318 0.561486,-0.208364 1.384194,-0.381331 0.742242,-0.42503 -0.643462,-0.0438 -3.202514,0.62844 -2.314297,0.04404 0.548458,-0.360859 2.836562,-0.813153 2.698534,-1.020281 -0.164406,-0.246711 -2.792211,0.417786 -3.172548,-0.03606 -0.349172,-0.416657 2.054549,-0.452191 2.761737,-0.587983 1.395046,-0.267873 -1.62331,-0.162437 -2.018082,-0.398564 -0.756756,-0.452644 -0.09075,-0.341746 1.398394,-0.35661 0.917871,-0.0092 1.320619,-0.168991 2.157022,-0.02191 1.415468,0.248893 1.401886,-0.189857 2.728452,-0.342839 1.162487,-0.134077 2.305354,-0.714629 3.513847,-0.83776 1.388356,-0.141456 2.856225,-1.115293 4.230052,-1.05079 1.136208,0.05335 1.715281,0.299531 2.733078,0.355013 1.620853,0.08836 2.388626,0.97542 4.008205,0.731044 0.88965,-0.134233 0.944983,0.143427 2.039856,-0.125812 0.50327,-0.123757 1.44885,-0.185409 1.64921,-0.31615 0.361,-0.235567 -0.0398,-0.334408 -0.0799,-0.984326 -0.012,-0.194534 -0.45151,-0.82654 -0.45642,-1.714012 -0.003,-0.602967 -0.0212,-1.674891 -0.0979,-2.521194 -0.13395,-1.478374 -0.4649,-2.587791 -0.68357,-4.013878 -0.15077,-0.979918 -0.01,-2.166537 -0.10708,-2.190412 -0.79624,-0.194904 -1.219672,0.423948 -1.911529,0.949902 -1.029931,0.78296 -1.94624,1.137845 -3.098204,1.637778 -0.692528,0.300545 -1.925923,0.932222 -2.472636,1.263972 -0.672684,0.408192 -1.326559,0.683318 -2.216164,1.038019 -1.090645,0.43486 -2.225889,0.537836 -3.434436,0.722745 -0.758214,0.115991 -0.987071,-0.114136 -1.299846,-0.459254 -0.27688,-0.305509 -0.874207,-0.517334 -0.727068,-1.181215 0.14746,-0.665331 0.278203,-0.722136 0.419414,-1.582592 0.238246,-1.451734 1.558696,-3.115076 2.486902,-4.278385 1.005872,-1.260646 0.966079,-1.246778 1.414165,-1.922632 0.969569,-1.462417 1.93774,-2.24208 2.522743,-2.880171 0.980198,-1.069151 0.94983,-1.183368 1.679098,-2.32055 0.193614,-0.301911 0.933741,-0.933636 1.083868,-1.13184 0.204873,-0.270484 0.06913,-0.789181 -0.792045,-0.753753 -0.900305,0.03704 -4.760676,-0.905119 -5.543128,-1.058095 -0.631245,-0.123423 -0.03636,-0.663317 1.069111,-1.007431 0.809041,-0.25184 3.408872,0.440241 3.818966,0.452788 1.804964,0.05523 3.383506,-0.258828 5.741229,-0.464335 0.110534,-0.0097 1.56125,-0.411148 1.5435,0.71325 -0.0127,0.80536 -0.42603,0.506382 -0.90277,1.282053 -0.695591,1.13176 -0.882511,1.112369 -1.420373,1.601403 -0.928593,0.844291 -1.173694,1.474479 -1.745706,2.354374 -0.348694,0.536379 -0.851598,1.014389 -1.109894,1.519018 -0.319979,0.625141 -0.624354,1.147093 -1.488315,2.422414 -0.313077,0.462144 -1.930197,2.357272 -1.10507,1.727773 1.090482,-0.831941 2.194213,-2.147992 3.421622,-3.046297 1.366389,-1.000017 2.215308,-1.412305 3.245146,-2.019279 1.52393,-0.898183 2.80347,-1.289902 3.73282,-1.686769 0.87025,-0.371624 2.28843,-0.431049 3.46512,-0.165435 0.41304,0.09323 1.24292,0.732165 1.69155,1.767545 0.47163,1.088453 0.34497,2.329416 0.60271,3.369888 0.42173,1.702494 0.36975,1.828534 0.48814,2.972662 0.0809,0.781738 0.0292,1.522212 0.19179,2.223498 0.28009,1.208379 0.13665,2.729412 0.59233,3.720869 0.19866,0.432226 0.77453,1.448887 0.89711,2.319955 0.24325,1.72855 0.6913,3.507512 0.64968,5.201401 -0.0263,1.068676 -0.24258,1.498907 -0.55618,2.323459 -0.41041,1.079074 0.0617,0.529649 -0.86726,1.124131 -0.86454,0.553249 -0.82205,0.497646 -0.88509,1.246889 -0.0241,0.28661 -0.1749,1.484735 0.14219,1.583917 0.65044,0.203445 0.64139,1.083658 1.09083,1.77165 0.65384,1.000891 1.37297,1.23256 1.5833,2.995528 0.15513,1.300251 0.56102,2.435533 0.32618,3.753204 -0.13468,0.7557 -0.14421,0.857413 -0.43758,2.026106 -0.11022,0.439078 -0.31277,1.023202 -0.57624,1.32394 -0.34435,0.393053 -0.60877,0.736349 -1.11982,0.879053 -1.23008,0.343486 -1.31745,0.336626 -1.97461,0.438782 -0.50299,0.07816 -0.84907,0.108919 -1.07477,0.111943 l -1e-05,-3e-05 z " />
      <path
        id="path4481"
        style="stroke-linecap:butt;stroke-miterlimit:4;stroke-linejoin:miter;fill-opacity:1;stroke-opacity:1;stroke-width:0.40000001;fill:url(#linearGradient4491);stroke:#000000;stroke-dasharray:none;"
        d="m 103.88594,64.567215 c 2.65183,0.08217 0.40839,-1.771352 -0.16845,-0.617672 -0.17493,0.349848 -0.41144,0.02552 0.16845,0.617672 z " />
    </g>
    <path
      id="path4497"
      style="fill-rule:evenodd;stroke:none;fill:#ffffff;fill-opacity:1;"
      d="m 225.47649,39.7684 0,3.82422 -112.81498,0 0,-3.82422 112.81498,0 z " />
    <path
      id="path4501"
      style="stroke-width:0.40000001;stroke-linecap:butt;stroke-linejoin:miter;stroke-miterlimit:10;stroke-opacity:1;stroke-dasharray:none;fill:none;stroke:#000000;"
      d="m 131.78252,14.910929 0,53.53947 " />
    <path
      id="path4503"
      style="stroke:#000000;stroke-width:0.40000001;stroke-linecap:butt;stroke-linejoin:miter;stroke-miterlimit:10;stroke-opacity:1;stroke-dasharray:none;fill:none;"
      d="m 208.2672,14.910929 0,53.53947 " />
    <g
      id="g4523"
      transform="translate(143.82953,-142.16786)">
      <text
        id="text4525"
        style="font-stretch:normal;stroke:none;writing-mode:lr-tb;font-variant:normal;text-transform:none;space:preserve;fill-opacity:1;text-anchor:start;display:inline;line-height:normal;font-size:12px;text-align:start;enable-background:accumulate;-inkscape-font-specification:Arial;color:#000000;overflow:visible;block-progression:tb;stroke-width:1px;fill:#000000;marker:none;text-decoration:none;font-family:Arial;text-indent:0;font-style:normal;fill-rule:nonzero;visibility:visible;word-spacing:normal;direction:ltr;letter-spacing:normal;font-weight:normal;"
        transform="matrix(0.8,0,0,-0.8,0,230)"
        x="74.68262"
        y="105.00488">
        <tspan
          id="tspan4527"
          style="role:line;"
          x="74.68262"
          y="105.00488">E</tspan>
      </text>
      <text
        id="text4529"
        style="font-stretch:normal;letter-spacing:normal;text-decoration:none;writing-mode:lr-tb;marker:none;text-transform:none;text-anchor:start;font-style:normal;visibility:visible;text-align:start;fill-rule:nonzero;line-height:normal;stroke:none;stroke-width:1px;direction:ltr;font-size:9.60000038px;color:#000000;-inkscape-font-specification:Arial;font-variant:normal;text-indent:0;enable-background:accumulate;overflow:visible;font-weight:normal;fill-opacity:1;space:preserve;font-family:Arial;block-progression:tb;display:inline;word-spacing:normal;fill:#000000;"
        transform="scale(1,-1)"
        x="66.03516"
        y="-143.30078">
        <tspan
          id="tspan4531"
          style="role:line;"
          x="66.03516"
          y="-143.30078">e</tspan>
      </text>
    </g>
    <g
      id="g4533"
      transform="translate(61.991916,-86.971956)">
      <text
        id="text4535"
        style="fill-rule:nonzero;font-variant:normal;display:inline;writing-mode:lr-tb;block-progression:tb;font-weight:normal;fill-opacity:1;visibility:visible;text-transform:none;text-align:start;direction:ltr;font-size:12px;space:preserve;overflow:visible;font-style:normal;-inkscape-font-specification:Arial;font-family:Arial;marker:none;stroke-width:1px;color:#000000;enable-background:accumulate;fill:#000000;font-stretch:normal;text-decoration:none;stroke:none;text-indent:0;word-spacing:normal;line-height:normal;text-anchor:start;letter-spacing:normal;"
        transform="matrix(0.8,0,0,-0.8,0,230)"
        x="80.859375"
        y="171.82617">
        <tspan
          id="tspan4537"
          style="role:line;"
          x="80.859375"
          y="171.82617">E</tspan>
      </text>
      <text
        id="text4539"
        style="text-indent:0;text-decoration:none;stroke-width:1px;text-anchor:start;space:preserve;font-stretch:normal;fill:#000000;font-size:9.60000038px;font-style:normal;text-transform:none;writing-mode:lr-tb;font-weight:normal;stroke:none;display:inline;font-family:Arial;direction:ltr;word-spacing:normal;-inkscape-font-specification:Arial;font-variant:normal;visibility:visible;marker:none;line-height:normal;fill-opacity:1;overflow:visible;letter-spacing:normal;fill-rule:nonzero;block-progression:tb;enable-background:accumulate;text-align:start;color:#000000;"
        transform="scale(1,-1)"
        x="71.23971"
        y="-87.99238">
        <tspan
          id="tspan4541"
          style="role:line;"
          x="71.23971"
          y="-87.99238">i</tspan>
      </text>
    </g>
    <g
      id="g4543"
      transform="translate(165.32817,-179.64296)">
      <text
        id="text4545"
        style="display:inline;font-family:Arial;letter-spacing:normal;fill-opacity:1;font-variant:normal;stroke:none;text-decoration:none;font-stretch:normal;stroke-width:1px;color:#000000;fill-rule:nonzero;fill:#000000;font-weight:normal;visibility:visible;line-height:normal;direction:ltr;block-progression:tb;font-size:12px;word-spacing:normal;text-transform:none;enable-background:accumulate;space:preserve;text-anchor:start;overflow:visible;marker:none;text-indent:0;writing-mode:lr-tb;text-align:start;font-style:normal;-inkscape-font-specification:Arial;"
        transform="matrix(0.8,0,0,-0.8,0,230)"
        x="70.19043"
        y="40.429688">
        <tspan
          id="tspan4547"
          style="role:line;"
          x="70.19043"
          y="40.429688">g</tspan>
      </text>
      <text
        id="text4549"
        style="text-anchor:start;letter-spacing:normal;font-family:Arial;writing-mode:lr-tb;enable-background:accumulate;display:inline;text-indent:0;font-variant:normal;font-weight:normal;-inkscape-font-specification:Arial;word-spacing:normal;stroke:none;visibility:visible;font-stretch:normal;font-size:9.60000038px;space:preserve;text-decoration:none;fill-opacity:1;direction:ltr;block-progression:tb;stroke-width:1px;overflow:visible;fill-rule:nonzero;fill:#000000;marker:none;text-align:start;color:#000000;line-height:normal;font-style:normal;text-transform:none;"
        transform="scale(1,-1)"
        x="61.09375"
        y="-193.16406">
        <tspan
          id="tspan4551"
          style="role:line;"
          x="61.09375"
          y="-193.16406">e</tspan>
      </text>
    </g>
    <g
      id="g4553"
      transform="translate(56.645303,-21.863053)">
      <text
        id="text4555"
        style="space:preserve;text-anchor:start;enable-background:accumulate;fill-rule:nonzero;text-align:start;block-progression:tb;color:#000000;font-family:Arial;word-spacing:normal;font-variant:normal;font-stretch:normal;overflow:visible;font-style:normal;display:inline;stroke-width:1px;stroke:none;text-indent:0;font-size:9.60000038px;text-transform:none;-inkscape-font-specification:Arial;text-decoration:none;font-weight:normal;writing-mode:lr-tb;letter-spacing:normal;visibility:visible;fill-opacity:1;marker:none;fill:#000000;line-height:normal;direction:ltr;"
        transform="scale(1,-1)"
        x="53.007812"
        y="-39.08203">
        <tspan
          id="tspan4557"
          style="role:line;"
          x="53.007812"
          y="-39.08203">g</tspan>
      </text>
      <text
        id="text4559"
        style="marker:none;fill-rule:nonzero;font-weight:normal;text-anchor:start;text-indent:0;-inkscape-font-specification:Arial;writing-mode:lr-tb;display:inline;overflow:visible;stroke-width:1px;font-family:Arial;enable-background:accumulate;stroke:none;font-stretch:normal;text-align:start;font-variant:normal;space:preserve;direction:ltr;visibility:visible;line-height:normal;color:#000000;word-spacing:normal;font-style:normal;letter-spacing:normal;text-transform:none;fill-opacity:1;text-decoration:none;block-progression:tb;font-size:9.60000038px;fill:#000000;"
        transform="scale(1,-1)"
        x="58.17794"
        y="-33.683426">
        <tspan
          id="tspan4561"
          style="role:line;"
          x="58.17794"
          y="-33.683426">i</tspan>
      </text>
    </g>
    <path
      id="path4563"
      style="stroke-opacity:1;stroke-dasharray:none;fill:none;stroke:#000000;stroke-width:1.39771152;stroke-linecap:butt;stroke-linejoin:miter;stroke-miterlimit:4;"
      d="m 212.9849,41.72525 -86.29545,0 " />
    <g
      id="g4565"
      transform="matrix(0.59216828,0,0,0.59216828,166.2146,11.267718)">
      <path
        id="path4567"
        style="fill-opacity:1;nodetypes:csssssssssssssssssssssssssssssssssssssssssssssssssssssssssssssssssssssssssssssssssssssssssssssssssc;stroke-width:0.40000001;stroke-miterlimit:4;stroke-linejoin:miter;stroke-linecap:butt;stroke:#000000;stroke-opacity:1;stroke-dasharray:none;fill:url(#linearGradient4577);"
        d="m 108.07967,69.65649 c -0.4836,0.0065 -1.39344,0.119612 -1.79716,0.05159 -0.71966,-0.121254 -0.95651,-0.268633 -1.32393,-0.576141 -0.1118,-0.09357 -0.57944,-0.630455 -0.86758,-1.038716 -0.30449,-0.431432 -0.5981,-1.424673 -0.67019,-1.63254 -0.20187,-0.582066 -0.22291,-0.914048 -0.1528,-1.24912 0.0184,-0.08815 0.43657,-1.630453 0.0416,-1.542141 -0.14808,0.03311 -0.42908,-0.476521 -0.77273,-0.934234 -0.37258,-0.496244 -0.96294,-1.154809 -0.68528,-1.186913 0.22697,-0.0262 0.55272,-0.218466 0.95861,-0.295014 0.15013,-0.02834 -0.003,-1.141066 0.14459,-1.192054 0.59108,-0.204454 2.63963,-0.33926 1.72921,-0.314048 -0.45949,0.01273 -1.15366,-0.000482 -1.55836,-0.05928 -0.21442,-0.03115 -0.23171,-0.307608 -0.3093,-0.961923 -0.008,-0.06921 0.003,-0.770259 0.0579,-0.945403 0.0894,-0.286616 0.36937,-0.349492 0.51319,-0.558165 0.114,-0.165402 0.58256,-0.133289 0.63506,-0.189389 0.20454,-0.218568 1.51528,-0.216977 1.78091,-0.310073 0.30058,-0.105333 0.32908,-0.968721 0.10937,-1.077996 -0.0591,-0.0294 -0.18743,-0.598227 -0.17799,-0.696793 0.0557,-0.58195 -0.2417,-0.891266 -0.8058,-1.170006 -0.6129,-0.302852 -0.71877,-0.373762 -1.71782,-0.240253 -1.59173,0.212711 -2.29663,-0.90081 -3.335115,-0.842327 -1.703648,0.09594 -3.428355,-1.152209 -5.067523,-1.301204 -0.874853,-0.07952 -1.774046,-0.193239 -2.288614,-0.176649 -0.903043,0.0291 -1.991426,0.08653 -2.963835,0.207822 -1.350955,0.168512 -2.292186,0.475865 -3.575221,0.853864 -1.923676,0.566743 -2.844821,0.61043 -4.849913,0.600358 -0.597248,-0.003 -3.155408,0.487192 -3.497058,0.490734 -0.56799,0.0059 1.147234,-0.623874 1.574197,-0.782318 0.561486,-0.208364 1.384194,-0.381331 0.742242,-0.42503 -0.643462,-0.0438 -3.202514,0.62844 -2.314297,0.04404 0.548458,-0.360859 2.836562,-0.813153 2.698534,-1.020281 -0.164406,-0.246711 -2.792211,0.417786 -3.172548,-0.03606 -0.349172,-0.416657 2.054549,-0.452191 2.761737,-0.587983 1.395046,-0.267873 -1.62331,-0.162437 -2.018082,-0.398564 -0.756756,-0.452644 -0.09075,-0.341746 1.398394,-0.35661 0.917871,-0.0092 1.320619,-0.168991 2.157022,-0.02191 1.415468,0.248893 1.401886,-0.189857 2.728452,-0.342839 1.162487,-0.134077 2.305354,-0.714629 3.513847,-0.83776 1.388356,-0.141456 2.856225,-1.115293 4.230052,-1.05079 1.136208,0.05335 1.715281,0.299531 2.733078,0.355013 1.620853,0.08836 2.388626,0.97542 4.008205,0.731044 0.88965,-0.134233 0.944983,0.143427 2.039856,-0.125812 0.50327,-0.123757 1.44885,-0.185409 1.64921,-0.31615 0.361,-0.235567 -0.0398,-0.334408 -0.0799,-0.984326 -0.012,-0.194534 -0.45151,-0.82654 -0.45642,-1.714012 -0.003,-0.602967 -0.0212,-1.674891 -0.0979,-2.521194 -0.13395,-1.478374 -0.4649,-2.587791 -0.68357,-4.013878 -0.15077,-0.979918 -0.01,-2.166537 -0.10708,-2.190412 -0.79624,-0.194904 -1.219672,0.423948 -1.911529,0.949902 -1.029931,0.78296 -1.94624,1.137845 -3.098204,1.637778 -0.692528,0.300545 -1.925923,0.932222 -2.472636,1.263972 -0.672684,0.408192 -1.326559,0.683318 -2.216164,1.038019 -1.090645,0.43486 -2.225889,0.537836 -3.434436,0.722745 -0.758214,0.115991 -0.987071,-0.114136 -1.299846,-0.459254 -0.27688,-0.305509 -0.874207,-0.517334 -0.727068,-1.181215 0.14746,-0.665331 0.278203,-0.722136 0.419414,-1.582592 0.238246,-1.451734 1.558696,-3.115076 2.486902,-4.278385 1.005872,-1.260646 0.966079,-1.246778 1.414165,-1.922632 0.969569,-1.462417 1.93774,-2.24208 2.522743,-2.880171 0.980198,-1.069151 0.94983,-1.183368 1.679098,-2.32055 0.193614,-0.301911 0.933741,-0.933636 1.083868,-1.13184 0.204873,-0.270484 0.06913,-0.789181 -0.792045,-0.753753 -0.900305,0.03704 -4.760676,-0.905119 -5.543128,-1.058095 -0.631245,-0.123423 -0.03636,-0.663317 1.069111,-1.007431 0.809041,-0.25184 3.408872,0.440241 3.818966,0.452788 1.804964,0.05523 3.383506,-0.258828 5.741229,-0.464335 0.110534,-0.0097 1.56125,-0.411148 1.5435,0.71325 -0.0127,0.80536 -0.42603,0.506382 -0.90277,1.282053 -0.695591,1.13176 -0.882511,1.112369 -1.420373,1.601403 -0.928593,0.844291 -1.173694,1.474479 -1.745706,2.354374 -0.348694,0.536379 -0.851598,1.014389 -1.109894,1.519018 -0.319979,0.625141 -0.624354,1.147093 -1.488315,2.422414 -0.313077,0.462144 -1.930197,2.357272 -1.10507,1.727773 1.090482,-0.831941 2.194213,-2.147992 3.421622,-3.046297 1.366389,-1.000017 2.215308,-1.412305 3.245146,-2.019279 1.52393,-0.898183 2.80347,-1.289902 3.73282,-1.686769 0.87025,-0.371624 2.28843,-0.431049 3.46512,-0.165435 0.41304,0.09323 1.24292,0.732165 1.69155,1.767545 0.47163,1.088453 0.34497,2.329416 0.60271,3.369888 0.42173,1.702494 0.36975,1.828534 0.48814,2.972662 0.0809,0.781738 0.0292,1.522212 0.19179,2.223498 0.28009,1.208379 0.13665,2.729412 0.59233,3.720869 0.19866,0.432226 0.77453,1.448887 0.89711,2.319955 0.24325,1.72855 0.6913,3.507512 0.64968,5.201401 -0.0263,1.068676 -0.24258,1.498907 -0.55618,2.323459 -0.41041,1.079074 0.0617,0.529649 -0.86726,1.124131 -0.86454,0.553249 -0.82205,0.497646 -0.88509,1.246889 -0.0241,0.28661 -0.1749,1.484735 0.14219,1.583917 0.65044,0.203445 0.64139,1.083658 1.09083,1.77165 0.65384,1.000891 1.37297,1.23256 1.5833,2.995528 0.15513,1.300251 0.56102,2.435533 0.32618,3.753204 -0.13468,0.7557 -0.14421,0.857413 -0.43758,2.026106 -0.11022,0.439078 -0.31277,1.023202 -0.57624,1.32394 -0.34435,0.393053 -0.60877,0.736349 -1.11982,0.879053 -1.23008,0.343486 -1.31745,0.336626 -1.97461,0.438782 -0.50299,0.07816 -0.84907,0.108919 -1.07477,0.111943 l -1e-05,-3e-05 z " />
      <path
        id="path4569"
        style="stroke-width:0.40000001;stroke-opacity:1;stroke-linejoin:miter;stroke-linecap:butt;stroke:#000000;fill:url(#linearGradient4579);stroke-miterlimit:4;fill-opacity:1;stroke-dasharray:none;"
        d="m 103.88594,64.567215 c 2.65183,0.08217 0.40839,-1.771352 -0.16845,-0.617672 -0.17493,0.349848 -0.41144,0.02552 0.16845,0.617672 z " />
    </g>
    <g
      id="g4571"
      transform="matrix(-0.61820009,0,0,0.61820009,175.33926,9.9503812)">
      <path
        id="path4573"
        style="stroke-dasharray:none;fill-opacity:1;fill:url(#linearGradient4583);stroke-miterlimit:4;stroke:#000000;stroke-linecap:butt;stroke-opacity:1;nodetypes:csssssssssssssssssssssssssssssssssssssssssssssssssssssssssssssssssssssssssssssssssssssssssssssssssc;stroke-linejoin:miter;stroke-width:0.40000001;"
        d="m 108.07967,69.65649 c -0.4836,0.0065 -1.39344,0.119612 -1.79716,0.05159 -0.71966,-0.121254 -0.95651,-0.268633 -1.32393,-0.576141 -0.1118,-0.09357 -0.57944,-0.630455 -0.86758,-1.038716 -0.30449,-0.431432 -0.5981,-1.424673 -0.67019,-1.63254 -0.20187,-0.582066 -0.22291,-0.914048 -0.1528,-1.24912 0.0184,-0.08815 0.43657,-1.630453 0.0416,-1.542141 -0.14808,0.03311 -0.42908,-0.476521 -0.77273,-0.934234 -0.37258,-0.496244 -0.96294,-1.154809 -0.68528,-1.186913 0.22697,-0.0262 0.55272,-0.218466 0.95861,-0.295014 0.15013,-0.02834 -0.003,-1.141066 0.14459,-1.192054 0.59108,-0.204454 2.63963,-0.33926 1.72921,-0.314048 -0.45949,0.01273 -1.15366,-0.000482 -1.55836,-0.05928 -0.21442,-0.03115 -0.23171,-0.307608 -0.3093,-0.961923 -0.008,-0.06921 0.003,-0.770259 0.0579,-0.945403 0.0894,-0.286616 0.36937,-0.349492 0.51319,-0.558165 0.114,-0.165402 0.58256,-0.133289 0.63506,-0.189389 0.20454,-0.218568 1.51528,-0.216977 1.78091,-0.310073 0.30058,-0.105333 0.32908,-0.968721 0.10937,-1.077996 -0.0591,-0.0294 -0.18743,-0.598227 -0.17799,-0.696793 0.0557,-0.58195 -0.2417,-0.891266 -0.8058,-1.170006 -0.6129,-0.302852 -0.71877,-0.373762 -1.71782,-0.240253 -1.59173,0.212711 -2.29663,-0.90081 -3.335115,-0.842327 -1.703648,0.09594 -3.428355,-1.152209 -5.067523,-1.301204 -0.874853,-0.07952 -1.774046,-0.193239 -2.288614,-0.176649 -0.903043,0.0291 -1.991426,0.08653 -2.963835,0.207822 -1.350955,0.168512 -2.292186,0.475865 -3.575221,0.853864 -1.923676,0.566743 -2.844821,0.61043 -4.849913,0.600358 -0.597248,-0.003 -3.155408,0.487192 -3.497058,0.490734 -0.56799,0.0059 1.147234,-0.623874 1.574197,-0.782318 0.561486,-0.208364 1.384194,-0.381331 0.742242,-0.42503 -0.643462,-0.0438 -3.202514,0.62844 -2.314297,0.04404 0.548458,-0.360859 2.836562,-0.813153 2.698534,-1.020281 -0.164406,-0.246711 -2.792211,0.417786 -3.172548,-0.03606 -0.349172,-0.416657 2.054549,-0.452191 2.761737,-0.587983 1.395046,-0.267873 -1.62331,-0.162437 -2.018082,-0.398564 -0.756756,-0.452644 -0.09075,-0.341746 1.398394,-0.35661 0.917871,-0.0092 1.320619,-0.168991 2.157022,-0.02191 1.415468,0.248893 1.401886,-0.189857 2.728452,-0.342839 1.162487,-0.134077 2.305354,-0.714629 3.513847,-0.83776 1.388356,-0.141456 2.856225,-1.115293 4.230052,-1.05079 1.136208,0.05335 1.715281,0.299531 2.733078,0.355013 1.620853,0.08836 2.388626,0.97542 4.008205,0.731044 0.88965,-0.134233 0.944983,0.143427 2.039856,-0.125812 0.50327,-0.123757 1.44885,-0.185409 1.64921,-0.31615 0.361,-0.235567 -0.0398,-0.334408 -0.0799,-0.984326 -0.012,-0.194534 -0.45151,-0.82654 -0.45642,-1.714012 -0.003,-0.602967 -0.0212,-1.674891 -0.0979,-2.521194 -0.13395,-1.478374 -0.4649,-2.587791 -0.68357,-4.013878 -0.15077,-0.979918 -0.01,-2.166537 -0.10708,-2.190412 -0.79624,-0.194904 -1.219672,0.423948 -1.911529,0.949902 -1.029931,0.78296 -1.94624,1.137845 -3.098204,1.637778 -0.692528,0.300545 -1.925923,0.932222 -2.472636,1.263972 -0.672684,0.408192 -1.326559,0.683318 -2.216164,1.038019 -1.090645,0.43486 -2.225889,0.537836 -3.434436,0.722745 -0.758214,0.115991 -0.987071,-0.114136 -1.299846,-0.459254 -0.27688,-0.305509 -0.874207,-0.517334 -0.727068,-1.181215 0.14746,-0.665331 0.278203,-0.722136 0.419414,-1.582592 0.238246,-1.451734 1.558696,-3.115076 2.486902,-4.278385 1.005872,-1.260646 0.966079,-1.246778 1.414165,-1.922632 0.969569,-1.462417 1.93774,-2.24208 2.522743,-2.880171 0.980198,-1.069151 0.94983,-1.183368 1.679098,-2.32055 0.193614,-0.301911 0.933741,-0.933636 1.083868,-1.13184 0.204873,-0.270484 0.06913,-0.789181 -0.792045,-0.753753 -0.900305,0.03704 -4.760676,-0.905119 -5.543128,-1.058095 -0.631245,-0.123423 -0.03636,-0.663317 1.069111,-1.007431 0.809041,-0.25184 3.408872,0.440241 3.818966,0.452788 1.804964,0.05523 3.383506,-0.258828 5.741229,-0.464335 0.110534,-0.0097 1.56125,-0.411148 1.5435,0.71325 -0.0127,0.80536 -0.42603,0.506382 -0.90277,1.282053 -0.695591,1.13176 -0.882511,1.112369 -1.420373,1.601403 -0.928593,0.844291 -1.173694,1.474479 -1.745706,2.354374 -0.348694,0.536379 -0.851598,1.014389 -1.109894,1.519018 -0.319979,0.625141 -0.624354,1.147093 -1.488315,2.422414 -0.313077,0.462144 -1.930197,2.357272 -1.10507,1.727773 1.090482,-0.831941 2.194213,-2.147992 3.421622,-3.046297 1.366389,-1.000017 2.215308,-1.412305 3.245146,-2.019279 1.52393,-0.898183 2.80347,-1.289902 3.73282,-1.686769 0.87025,-0.371624 2.28843,-0.431049 3.46512,-0.165435 0.41304,0.09323 1.24292,0.732165 1.69155,1.767545 0.47163,1.088453 0.34497,2.329416 0.60271,3.369888 0.42173,1.702494 0.36975,1.828534 0.48814,2.972662 0.0809,0.781738 0.0292,1.522212 0.19179,2.223498 0.28009,1.208379 0.13665,2.729412 0.59233,3.720869 0.19866,0.432226 0.77453,1.448887 0.89711,2.319955 0.24325,1.72855 0.6913,3.507512 0.64968,5.201401 -0.0263,1.068676 -0.24258,1.498907 -0.55618,2.323459 -0.41041,1.079074 0.0617,0.529649 -0.86726,1.124131 -0.86454,0.553249 -0.82205,0.497646 -0.88509,1.246889 -0.0241,0.28661 -0.1749,1.484735 0.14219,1.583917 0.65044,0.203445 0.64139,1.083658 1.09083,1.77165 0.65384,1.000891 1.37297,1.23256 1.5833,2.995528 0.15513,1.300251 0.56102,2.435533 0.32618,3.753204 -0.13468,0.7557 -0.14421,0.857413 -0.43758,2.026106 -0.11022,0.439078 -0.31277,1.023202 -0.57624,1.32394 -0.34435,0.393053 -0.60877,0.736349 -1.11982,0.879053 -1.23008,0.343486 -1.31745,0.336626 -1.97461,0.438782 -0.50299,0.07816 -0.84907,0.108919 -1.07477,0.111943 l -1e-05,-3e-05 z " />
      <path
        id="path4575"
        style="fill-opacity:1;stroke-linejoin:miter;stroke:#000000;stroke-opacity:1;stroke-miterlimit:4;stroke-dasharray:none;stroke-linecap:butt;stroke-width:0.40000001;fill:url(#linearGradient4585);"
        d="m 103.88594,64.567215 c 2.65183,0.08217 0.40839,-1.771352 -0.16845,-0.617672 -0.17493,0.349848 -0.41144,0.02552 0.16845,0.617672 z " />
    </g>
    <g
      id="g4797"
      transform="translate(35.57631,9.5293687)">
      <path
        id="path4741"
        style="stroke-miterlimit:10;stroke-dasharray:0.8, 0.8;stroke:#000000;stroke-linejoin:miter;stroke-dashoffset:0;stroke-width:0.80000001;fill:none;stroke-opacity:1;stroke-linecap:butt;"
        d="m 121.10707,161.63158 0,42.16709 " />
      <text
        id="text4753"
        style="visibility:visible;overflow:visible;fill-opacity:1;direction:ltr;text-decoration:none;letter-spacing:normal;linespacing:125%;text-align:start;font-size:9.60000038px;font-family:Arial;font-stretch:normal;stroke-width:1px;font-variant:normal;stroke:none;fill-rule:nonzero;word-spacing:normal;line-height:125%;fill:#000000;color:#000000;-inkscape-font-specification:Arial;marker:none;space:preserve;display:inline;writing-mode:lr-tb;enable-background:accumulate;text-anchor:start;font-style:normal;text-indent:0;text-transform:none;block-progression:tb;font-weight:normal;"
        transform="scale(1,-1)"
        x="118.48182"
        y="-152.15227">
        <tspan
          id="tspan4757"
          style="role:line;"
          x="118.48182"
          y="-152.15227"></tspan>
      </text>
    </g>
    <text
      id="text4765"
      style="line-height:normal;fill-opacity:1;font-family:Arial;block-progression:tb;enable-background:accumulate;text-indent:0;color:#000000;visibility:visible;font-size:9.60000038px;stroke-width:1px;font-style:normal;word-spacing:normal;-inkscape-font-specification:Arial;stroke:none;overflow:visible;marker:none;text-decoration:none;font-variant:normal;text-transform:none;direction:ltr;text-anchor:start;writing-mode:lr-tb;text-align:start;font-weight:normal;fill:#000000;space:preserve;letter-spacing:normal;font-stretch:normal;fill-rule:nonzero;display:inline;"
      transform="scale(1,-1)"
      x="13.02347"
      y="-195.84018">
      <tspan
        id="tspan4767"
        style="role:line;"
        x="13.02347"
        y="-195.84018">a) Resting state</tspan>
    </text>
    <text
      id="text4782"
      style="stroke:none;fill-opacity:1;text-indent:0;-inkscape-font-specification:Arial;word-spacing:normal;block-progression:tb;enable-background:accumulate;font-variant:normal;letter-spacing:normal;text-align:start;direction:ltr;font-family:Arial;font-size:9.60000038px;text-decoration:none;line-height:normal;font-stretch:normal;marker:none;text-anchor:start;space:preserve;writing-mode:lr-tb;stroke-width:1px;display:inline;font-style:normal;fill-rule:nonzero;overflow:visible;text-transform:none;color:#000000;visibility:visible;font-weight:normal;fill:#000000;"
      transform="scale(1,-1)"
      x="12.74222"
      y="-117.53819">
      <tspan
        id="tspan4784"
        style="role:line;"
        x="12.74222"
        y="-117.53819">b) Over Threshold</tspan>
    </text>
    <g
      id="g4802"
      transform="translate(35.57631,-67.658518)">
      <path
        id="path4804"
        style="stroke-dashoffset:0;stroke:#000000;stroke-miterlimit:10;stroke-linecap:butt;stroke-width:0.80000001;stroke-opacity:1;fill:none;stroke-linejoin:miter;stroke-dasharray:0.8, 0.8;"
        d="m 121.10707,161.63158 0,42.16709 " />
      <text
        id="text4806"
        style="font-stretch:normal;space:preserve;font-weight:normal;line-height:125%;writing-mode:lr-tb;text-align:start;marker:none;fill-rule:nonzero;stroke:none;fill:#000000;enable-background:accumulate;font-family:Arial;visibility:visible;text-decoration:none;block-progression:tb;font-size:9.60000038px;fill-opacity:1;text-transform:none;overflow:visible;font-style:normal;linespacing:125%;word-spacing:normal;text-indent:0;color:#000000;letter-spacing:normal;display:inline;direction:ltr;-inkscape-font-specification:Arial;font-variant:normal;stroke-width:1px;text-anchor:start;"
        transform="scale(1,-1)"
        x="118.48182"
        y="-152.15227">
        <tspan
          id="tspan4808"
          style="role:line;"
          x="118.48182"
          y="-152.15227"></tspan>
      </text>
    </g>
    <g
      id="g4810"
      transform="translate(35.57631,-146.43463)">
      <path
        id="path4812"
        style="stroke-linejoin:miter;stroke-width:0.80000001;stroke-dashoffset:0;stroke-miterlimit:10;fill:none;stroke:#000000;stroke-dasharray:0.8, 0.8;stroke-opacity:1;stroke-linecap:butt;"
        d="m 121.10707,161.63158 0,42.16709 " />
      <text
        id="text4814"
        style="block-progression:tb;overflow:visible;stroke:none;color:#000000;line-height:125%;space:preserve;linespacing:125%;font-variant:normal;letter-spacing:normal;font-style:normal;enable-background:accumulate;visibility:visible;font-family:Arial;text-transform:none;font-size:9.60000038px;font-stretch:normal;word-spacing:normal;fill:#000000;text-indent:0;-inkscape-font-specification:Arial;fill-opacity:1;stroke-width:1px;direction:ltr;fill-rule:nonzero;text-decoration:none;marker:none;writing-mode:lr-tb;display:inline;text-anchor:start;font-weight:normal;text-align:start;"
        transform="scale(1,-1)"
        x="118.48182"
        y="-152.15227">
        <tspan
          id="tspan4816"
          style="role:line;"
          x="118.48182"
          y="-152.15227"></tspan>
      </text>
    </g>
    <g
      id="g4836"
      transform="translate(73.376139,-68.9291)">
      <path
        id="path4838"
        style="stroke:#7f2aff;stroke-width:0.80000001;stroke-linecap:butt;stroke-linejoin:miter;stroke-miterlimit:10;stroke-opacity:1;stroke-dasharray:none;fill:#7f2aff;"
        d="m 98.23658,183.01402 0,11.4727 " />
      <g
        id="g4840"
        transform="translate(164.18576,25.542087)">
        <text
          id="text4842"
          style="word-spacing:normal;text-align:start;font-style:normal;overflow:visible;font-weight:normal;space:preserve;font-family:Arial;marker:none;-inkscape-font-specification:Arial;letter-spacing:normal;text-transform:none;enable-background:accumulate;visibility:visible;writing-mode:lr-tb;fill-rule:nonzero;text-anchor:start;font-variant:normal;font-stretch:normal;direction:ltr;stroke-width:1px;color:#000000;fill:#7137c8;text-indent:0;line-height:normal;font-size:9.60000038px;fill-opacity:1;block-progression:tb;stroke:none;display:inline;text-decoration:none;"
          transform="scale(1,-1)"
          x="-72.66151"
          y="-149.27768">
          <tspan
            id="tspan4844"
            style="role:line;"
            x="-72.66151"
            y="-149.27768">V</tspan>
        </text>
        <text
          id="text4846"
          style="fill-opacity:1;text-indent:0;text-decoration:none;text-anchor:start;word-spacing:normal;enable-background:accumulate;space:preserve;color:#000000;line-height:normal;fill:#7137c8;stroke-width:1px;marker:none;display:inline;-inkscape-font-specification:Arial;text-align:start;font-variant:normal;fill-rule:nonzero;overflow:visible;font-weight:normal;font-style:normal;writing-mode:lr-tb;visibility:visible;text-transform:none;stroke:none;font-size:9.60000038px;direction:ltr;font-stretch:normal;font-family:Arial;letter-spacing:normal;block-progression:tb;"
          transform="scale(1,-1)"
          x="-67.7201"
          y="-147.08609">
          <tspan
            id="tspan4848"
            style="role:line;"
            x="-67.7201"
            y="-147.08609">m</tspan>
        </text>
      </g>
    </g>
    <g
      id="g4850"
      transform="translate(73.376139,-147.06992)">
      <path
        id="path4852"
        style="stroke-width:0.80000001;stroke-linecap:butt;stroke-linejoin:miter;stroke-miterlimit:10;stroke-opacity:1;stroke-dasharray:none;fill:#7f2aff;stroke:#7f2aff;"
        d="m 98.23658,183.01402 0,11.4727 " />
      <g
        id="g4854"
        transform="translate(164.18576,25.542087)">
        <text
          id="text4856"
          style="enable-background:accumulate;fill:#7137c8;space:preserve;stroke:none;marker:none;font-style:normal;direction:ltr;font-stretch:normal;line-height:normal;text-anchor:start;font-size:9.60000038px;-inkscape-font-specification:Arial;text-decoration:none;font-weight:normal;fill-opacity:1;stroke-width:1px;text-transform:none;font-family:Arial;text-align:start;letter-spacing:normal;overflow:visible;display:inline;text-indent:0;writing-mode:lr-tb;visibility:visible;block-progression:tb;word-spacing:normal;font-variant:normal;fill-rule:nonzero;color:#000000;"
          transform="scale(1,-1)"
          x="-72.66151"
          y="-149.27768">
          <tspan
            id="tspan4858"
            style="role:line;"
            x="-72.66151"
            y="-149.27768">V</tspan>
        </text>
        <text
          id="text4860"
          style="font-variant:normal;line-height:normal;overflow:visible;font-weight:normal;marker:none;font-stretch:normal;visibility:visible;font-family:Arial;stroke:none;direction:ltr;font-style:normal;writing-mode:lr-tb;letter-spacing:normal;fill-opacity:1;space:preserve;display:inline;text-indent:0;text-decoration:none;enable-background:accumulate;fill:#7137c8;-inkscape-font-specification:Arial;text-anchor:start;color:#000000;fill-rule:nonzero;stroke-width:1px;text-transform:none;block-progression:tb;font-size:9.60000038px;text-align:start;word-spacing:normal;"
          transform="scale(1,-1)"
          x="-67.7201"
          y="-147.08609">
          <tspan
            id="tspan4862"
            style="role:line;"
            x="-67.7201"
            y="-147.08609">m</tspan>
        </text>
      </g>
    </g>
    <text
      id="text4864"
      style="font-family:Arial;marker:none;stroke-width:1px;writing-mode:lr-tb;font-weight:normal;text-anchor:start;text-indent:0;fill-opacity:1;overflow:visible;fill-rule:nonzero;color:#000000;letter-spacing:normal;space:preserve;fill:#000000;enable-background:accumulate;font-variant:normal;word-spacing:normal;text-decoration:none;visibility:visible;block-progression:tb;-inkscape-font-specification:Arial;text-align:start;font-style:normal;text-transform:none;font-size:9.60000038px;line-height:normal;direction:ltr;display:inline;font-stretch:normal;stroke:none;"
      transform="scale(1,-1)"
      x="13.370344"
      y="-45.23853">
      <tspan
        id="tspan4866"
        style="role:line;"
        x="13.370344"
        y="-45.23853">c) Over Threshold</tspan>
      <tspan
        id="tspan4868"
        style="role:line;"
        x="13.370344"
        y="-33.23853">(weaker inputs)</tspan>
    </text>
    <svg.Flow
      id="flow847"
      style="fill:#000000;stroke-linecap:butt;direction:ltr;fill-rule:nonzero;font-style:normal;color:#000000;space:preserve;text-transform:none;visibility:visible;stroke:none;font-stretch:normal;font-family:Arial;font-variant:normal;stroke-width:1px;letter-spacing:normal;text-anchor:start;overflow:visible;line-height:normal;text-decoration:none;writing-mode:lr-tb;marker:none;fill-opacity:1;text-align:start;-inkscape-font-specification:Arial;font-weight:normal;display:inline;word-spacing:normal;stroke-linejoin:miter;enable-background:accumulate;stroke-opacity:1;font-size:12;block-progression:tb;text-indent:0;">
      <svg.Flow
        id="flow59" />
    </svg.Flow>
  </g>
  <text
    id="text694"
    style="text-align:AlignLeft;font-size:8px;stroke-width:0.789982px;font-family:Arial;stroke:none;stroke-opacity:1;fill-opacity:1;fill:#000000;"
    transform="none"
    x="249.34166"
    y="97.7712">
    <tspan
      id="tspan511"
      x="249.34166"
      y="97.7712">(0mV)</tspan>
  </text>
  <text
    id="text89"
    style="stroke-width:0.789982px;font-family:Arial;stroke:none;text-align:AlignLeft;font-size:8px;fill:#000000;stroke-opacity:1;fill-opacity:1;"
    transform="none"
    x="185.61282"
    y="97.7712">
    <tspan
      id="tspan511"
      x="185.61282"
      y="97.7712">(-50mV)</tspan>
  </text>
  <text
    id="text162"
    style="font-size:8px;stroke:none;text-align:AlignLeft;stroke-width:0.789982px;fill:#000000;font-family:Arial;fill-opacity:1;stroke-opacity:1;"
    transform="none"
    x="150.306"
    y="97.7712">
    <tspan
      id="tspan511"
      x="150.306"
      y="97.7712">(-75mV)</tspan>
  </text>
</svg>
