<?xml version="1.0"?>
<!-- Generated by SVGo and Plotinum VG -->
<svg width="457.12pt" height="275.25pt" viewBox="0 0 457.12 275.25"
	xmlns="http://www.w3.org/2000/svg"
	xmlns:xlink="http://www.w3.org/1999/xlink">
<g transform="scale(1, -1) translate(0, -275.25)">
<text x="167.65" y="-263.73" transform="scale(1, -1)"
	style="font-family:Helvetica;font-weight:normal;font-style:normal;font-size:12px">Neuron Test Cycle Plot</text>
<text x="232.33" y="-3.8789" transform="scale(1, -1)"
	style="font-family:Helvetica;font-weight:normal;font-style:normal;font-size:12px">Cycle</text>
<text x="43.103" y="-15.599" transform="scale(1, -1)"
	style="font-family:Helvetica;font-weight:normal;font-style:normal;font-size:10px">0</text>
<text x="238.99" y="-15.599" transform="scale(1, -1)"
	style="font-family:Helvetica;font-weight:normal;font-style:normal;font-size:10px">100</text>
<text x="440.44" y="-15.599" transform="scale(1, -1)"
	style="font-family:Helvetica;font-weight:normal;font-style:normal;font-size:10px">200</text>
<path d="M45.884,25.198L45.884,33.198" style="fill:none;stroke:#000000;stroke-width:0.5" />
<path d="M247.33,25.198L247.33,33.198" style="fill:none;stroke:#000000;stroke-width:0.5" />
<path d="M448.78,25.198L448.78,33.198" style="fill:none;stroke:#000000;stroke-width:0.5" />
<path d="M86.174,29.198L86.174,33.198" style="fill:none;stroke:#000000;stroke-width:0.5" />
<path d="M126.46,29.198L126.46,33.198" style="fill:none;stroke:#000000;stroke-width:0.5" />
<path d="M166.75,29.198L166.75,33.198" style="fill:none;stroke:#000000;stroke-width:0.5" />
<path d="M207.04,29.198L207.04,33.198" style="fill:none;stroke:#000000;stroke-width:0.5" />
<path d="M287.62,29.198L287.62,33.198" style="fill:none;stroke:#000000;stroke-width:0.5" />
<path d="M327.91,29.198L327.91,33.198" style="fill:none;stroke:#000000;stroke-width:0.5" />
<path d="M368.2,29.198L368.2,33.198" style="fill:none;stroke:#000000;stroke-width:0.5" />
<path d="M408.49,29.198L408.49,33.198" style="fill:none;stroke:#000000;stroke-width:0.5" />
<path d="M45.884,33.198L448.78,33.198" style="fill:none;stroke:#000000;stroke-width:0.5" />
<g transform="rotate(90)">
<text x="138.7" y="11.52" transform="scale(1, -1)"
	style="font-family:Helvetica;font-weight:normal;font-style:normal;font-size:12px">Ge</text>
</g>
<text x="15.398" y="-69.832" transform="scale(1, -1)"
	style="font-family:Helvetica;font-weight:normal;font-style:normal;font-size:10px">0.0</text>
<text x="15.398" y="-160.04" transform="scale(1, -1)"
	style="font-family:Helvetica;font-weight:normal;font-style:normal;font-size:10px">0.5</text>
<text x="15.398" y="-250.25" transform="scale(1, -1)"
	style="font-family:Helvetica;font-weight:normal;font-style:normal;font-size:10px">1.0</text>
<path d="M32.078,74.532L40.078,74.532" style="fill:none;stroke:#000000;stroke-width:0.5" />
<path d="M32.078,164.74L40.078,164.74" style="fill:none;stroke:#000000;stroke-width:0.5" />
<path d="M32.078,254.95L40.078,254.95" style="fill:none;stroke:#000000;stroke-width:0.5" />
<path d="M36.078,56.49L40.078,56.49" style="fill:none;stroke:#000000;stroke-width:0.5" />
<path d="M36.078,92.574L40.078,92.574" style="fill:none;stroke:#000000;stroke-width:0.5" />
<path d="M36.078,110.62L40.078,110.62" style="fill:none;stroke:#000000;stroke-width:0.5" />
<path d="M36.078,128.66L40.078,128.66" style="fill:none;stroke:#000000;stroke-width:0.5" />
<path d="M36.078,146.7L40.078,146.7" style="fill:none;stroke:#000000;stroke-width:0.5" />
<path d="M36.078,182.78L40.078,182.78" style="fill:none;stroke:#000000;stroke-width:0.5" />
<path d="M36.078,200.83L40.078,200.83" style="fill:none;stroke:#000000;stroke-width:0.5" />
<path d="M36.078,218.87L40.078,218.87" style="fill:none;stroke:#000000;stroke-width:0.5" />
<path d="M36.078,236.91L40.078,236.91" style="fill:none;stroke:#000000;stroke-width:0.5" />
<path d="M40.078,38.448L40.078,254.95" style="fill:none;stroke:#000000;stroke-width:0.5" />
<path d="M45.884,74.532L47.898,74.532L49.913,74.532L51.927,74.532L53.942,74.532L55.956,74.532L57.971,74.532L59.985,74.532L62,74.532L64.014,74.532L66.029,128.66L68.043,128.66L70.058,128.66L72.072,128.66L74.087,128.66L76.101,128.66L78.116,128.66L80.13,128.66L82.145,128.66L84.159,128.66L86.174,128.66L88.188,128.66L90.203,128.66L92.217,128.66L94.232,128.66L96.246,128.66L98.261,128.66L100.28,128.66L102.29,128.66L104.3,128.66L106.32,128.66L108.33,128.66L110.35,128.66L112.36,128.66L114.38,128.66L116.39,128.66L118.41,128.66L120.42,128.66L122.43,128.66L124.45,128.66L126.46,128.66L128.48,128.66L130.49,128.66L132.51,128.66L134.52,128.66L136.54,128.66L138.55,128.66L140.57,128.66L142.58,128.66L144.59,128.66L146.61,128.66L148.62,128.66L150.64,128.66L152.65,128.66L154.67,128.66L156.68,128.66L158.7,128.66L160.71,128.66L162.72,128.66L164.74,128.66L166.75,128.66L168.77,128.66L170.78,128.66L172.8,128.66L174.81,128.66L176.83,128.66L178.84,128.66L180.85,128.66L182.87,128.66L184.88,128.66L186.9,128.66L188.91,128.66L190.93,128.66L192.94,128.66L194.96,128.66L196.97,128.66L198.99,128.66L201,128.66L203.01,128.66L205.03,128.66L207.04,128.66L209.06,128.66L211.07,128.66L213.09,128.66L215.1,128.66L217.12,128.66L219.13,128.66L221.14,128.66L223.16,128.66L225.17,128.66L227.19,128.66L229.2,128.66L231.22,128.66L233.23,128.66L235.25,128.66L237.26,128.66L239.28,128.66L241.29,128.66L243.3,128.66L245.32,128.66L247.33,128.66L249.35,128.66L251.36,128.66L253.38,128.66L255.39,128.66L257.41,128.66L259.42,128.66L261.43,128.66L263.45,128.66L265.46,128.66L267.48,128.66L269.49,128.66L271.51,128.66L273.52,128.66L275.54,128.66L277.55,128.66L279.57,128.66L281.58,128.66L283.59,128.66L285.61,128.66L287.62,128.66L289.64,128.66L291.65,128.66L293.67,128.66L295.68,128.66L297.7,128.66L299.71,128.66L301.72,128.66L303.74,128.66L305.75,128.66L307.77,128.66L309.78,128.66L311.8,128.66L313.81,128.66L315.83,128.66L317.84,128.66L319.86,128.66L321.87,128.66L323.88,128.66L325.9,128.66L327.91,128.66L329.93,128.66L331.94,128.66L333.96,128.66L335.97,128.66L337.99,128.66L340,128.66L342.01,128.66L344.03,128.66L346.04,128.66L348.06,128.66L350.07,128.66L352.09,128.66L354.1,128.66L356.12,128.66L358.13,128.66L360.14,128.66L362.16,128.66L364.17,128.66L366.19,128.66L368.2,74.532L370.22,74.532L372.23,74.532L374.25,74.532L376.26,74.532L378.28,74.532L380.29,74.532L382.3,74.532L384.32,74.532L386.33,74.532L388.35,74.532L390.36,74.532L392.38,74.532L394.39,74.532L396.41,74.532L398.42,74.532L400.43,74.532L402.45,74.532L404.46,74.532L406.48,74.532L408.49,74.532L410.51,74.532L412.52,74.532L414.54,74.532L416.55,74.532L418.57,74.532L420.58,74.532L422.59,74.532L424.61,74.532L426.62,74.532L428.64,74.532L430.65,74.532L432.67,74.532L434.68,74.532L436.7,74.532L438.71,74.532L440.72,74.532L442.74,74.532L444.75,74.532L446.77,74.532" style="fill:none;stroke:#000000" />
<path d="M45.884,74.532L47.898,74.532L49.913,74.532L51.927,74.532L53.942,74.532L55.956,74.532L57.971,74.532L59.985,74.532L62,74.532L64.014,74.532L66.029,108.98L68.043,103.28L70.058,98.531L72.072,94.564L74.087,74.532L76.101,74.532L78.116,74.532L80.13,74.532L82.145,108.87L84.159,103.13L86.174,98.353L88.188,94.375L90.203,74.532L92.217,74.532L94.232,74.532L96.246,74.532L98.261,108.78L100.28,103L102.29,98.198L104.3,94.211L106.32,74.532L108.33,74.532L110.35,74.532L112.36,74.532L114.38,108.69L116.39,102.88L118.41,98.062L120.42,94.066L122.43,74.532L124.45,74.532L126.46,74.532L128.48,74.532L130.49,108.62L132.51,102.78L134.52,97.941L136.54,93.939L138.55,74.532L140.57,74.532L142.58,74.532L144.59,74.532L146.61,108.55L148.62,102.68L150.64,97.834L152.65,93.825L154.67,74.532L156.68,74.532L158.7,74.532L160.71,74.532L162.72,108.5L164.74,102.6L166.75,97.738L168.77,93.723L170.78,74.532L172.8,74.532L174.81,74.532L176.83,74.532L178.84,108.44L180.85,102.53L182.87,97.65L184.88,93.631L186.9,74.532L188.91,74.532L190.93,74.532L192.94,74.532L194.96,108.39L196.97,102.46L198.99,97.571L201,93.547L203.01,74.532L205.03,74.532L207.04,74.532L209.06,74.532L211.07,108.35L213.09,102.4L215.1,97.499L217.12,93.471L219.13,74.532L221.14,74.532L223.16,74.532L225.17,74.532L227.19,108.31L229.2,102.34L231.22,97.432L233.23,93.401L235.25,90.086L237.26,74.532L239.28,74.532L241.29,74.532L243.3,74.532L245.32,108.28L247.33,102.29L249.35,97.381L251.36,93.346L253.38,90.032L255.39,74.532L257.41,74.532L259.42,74.532L261.43,74.532L263.45,108.25L265.46,102.25L267.48,97.333L269.49,93.295L271.51,89.98L273.52,74.532L275.54,74.532L277.55,74.532L279.57,74.532L281.58,108.22L283.59,102.21L285.61,97.287L287.62,93.246L289.64,89.932L291.65,74.532L293.67,74.532L295.68,74.532L297.7,74.532L299.71,108.19L301.72,102.17L303.74,97.243L305.75,93.2L307.77,89.885L309.78,74.532L311.8,74.532L313.81,74.532L315.83,74.532L317.84,108.17L319.86,102.14L321.87,97.202L323.88,93.156L325.9,89.841L327.91,74.532L329.93,74.532L331.94,74.532L333.96,74.532L335.97,108.14L337.99,102.11L340,97.162L342.01,93.115L344.03,89.799L346.04,74.532L348.06,74.532L350.07,74.532L352.09,74.532L354.1,108.12L356.12,102.07L358.13,97.124L360.14,93.075L362.16,89.759L364.17,74.532L366.19,74.532L368.2,74.532L370.22,74.532L372.23,73.992L374.25,74.053L376.26,74.108L378.28,74.156L380.29,74.2L382.3,74.239L384.32,74.274L386.33,74.304L388.35,74.332L390.36,74.357L392.38,74.379L394.39,74.398L396.41,74.416L398.42,74.432L400.43,74.445L402.45,74.458L404.46,74.469L406.48,74.479L408.49,74.488L410.51,74.496L412.52,74.503L414.54,74.509L416.55,74.514L418.57,74.519L420.58,74.524L422.59,74.528L424.61,74.531L426.62,74.534L428.64,74.537L430.65,74.539L432.67,74.541L434.68,74.543L436.7,74.545L438.71,74.546L440.72,74.547L442.74,74.548L444.75,74.549L446.77,74.55" style="fill:none;stroke:#FF0000" />
<path d="M45.884,128.66L47.898,128.66L49.913,128.66L51.927,128.66L53.942,128.66L55.956,128.66L57.971,128.66L59.985,128.66L62,128.66L64.014,128.66L66.029,139.1L68.043,147.81L70.058,155.08L72.072,161.15L74.087,128.66L76.101,128.66L78.116,128.66L80.13,128.66L82.145,139.06L84.159,147.73L86.174,154.95L88.188,160.96L90.203,128.66L92.217,128.66L94.232,128.66L96.246,128.66L98.261,139.03L100.28,147.66L102.29,154.83L104.3,160.8L106.32,128.66L108.33,128.66L110.35,128.66L112.36,128.66L114.38,139.01L116.39,147.6L118.41,154.73L120.42,160.65L122.43,128.66L124.45,128.66L126.46,128.66L128.48,128.66L130.49,138.99L132.51,147.55L134.52,154.64L136.54,160.52L138.55,128.66L140.57,128.66L142.58,128.66L144.59,128.66L146.61,138.97L148.62,147.5L150.64,154.56L152.65,160.41L154.67,128.66L156.68,128.66L158.7,128.66L160.71,128.66L162.72,138.95L164.74,147.46L166.75,154.49L168.77,160.3L170.78,128.66L172.8,128.66L174.81,128.66L176.83,128.66L178.84,138.93L180.85,147.42L182.87,154.42L184.88,160.21L186.9,128.66L188.91,128.66L190.93,128.66L192.94,128.66L194.96,138.92L196.97,147.38L198.99,154.36L201,160.13L203.01,128.66L205.03,128.66L207.04,128.66L209.06,128.66L211.07,138.91L213.09,147.35L215.1,154.31L217.12,160.05L219.13,128.66L221.14,128.66L223.16,128.66L225.17,128.66L227.19,138.89L229.2,147.32L231.22,154.26L233.23,159.98L235.25,164.69L237.26,128.66L239.28,128.66L241.29,128.66L243.3,128.66L245.32,138.88L247.33,147.3L249.35,154.22L251.36,159.92L253.38,164.62L255.39,128.66L257.41,128.66L259.42,128.66L261.43,128.66L263.45,138.87L265.46,147.27L267.48,154.18L269.49,159.87L271.51,164.55L273.52,128.66L275.54,128.66L277.55,128.66L279.57,128.66L281.58,138.87L283.59,147.25L285.61,154.15L287.62,159.82L289.64,164.49L291.65,128.66L293.67,128.66L295.68,128.66L297.7,128.66L299.71,138.86L301.72,147.23L303.74,154.12L305.75,159.77L307.77,164.43L309.78,128.66L311.8,128.66L313.81,128.66L315.83,128.66L317.84,138.85L319.86,147.22L321.87,154.09L323.88,159.73L325.9,164.37L327.91,128.66L329.93,128.66L331.94,128.66L333.96,128.66L335.97,138.84L337.99,147.2L340,154.06L342.01,159.69L344.03,164.31L346.04,128.66L348.06,128.66L350.07,128.66L352.09,128.66L354.1,138.84L356.12,147.18L358.13,154.03L360.14,159.65L362.16,164.26L364.17,128.66L366.19,128.66L368.2,128.66L370.22,128.66L372.23,128.49L374.25,128.35L376.26,128.22L378.28,128.11L380.29,128.01L382.3,127.92L384.32,127.84L386.33,127.77L388.35,127.71L390.36,127.66L392.38,127.61L394.39,127.57L396.41,127.53L398.42,127.5L400.43,127.48L402.45,127.45L404.46,127.44L406.48,127.42L408.49,127.41L410.51,127.39L412.52,127.39L414.54,127.38L416.55,127.37L418.57,127.37L420.58,127.37L422.59,127.37L424.61,127.37L426.62,127.37L428.64,127.37L430.65,127.37L432.67,127.37L434.68,127.38L436.7,127.38L438.71,127.38L440.72,127.39L442.74,127.39L444.75,127.4L446.77,127.4" style="fill:none;stroke:#0000FF" />
<path d="M45.884,74.532L47.898,74.532L49.913,74.532L51.927,74.532L53.942,74.532L55.956,74.532L57.971,74.532L59.985,74.532L62,74.532L64.014,74.532L66.029,74.532L68.043,74.532L70.058,74.532L72.072,74.532L74.087,74.532L76.101,74.532L78.116,74.532L80.13,74.532L82.145,74.532L84.159,74.532L86.174,74.532L88.188,74.532L90.203,112.5L92.217,138.96L94.232,157.4L96.246,170.26L98.261,179.22L100.28,185.46L102.29,189.81L104.3,192.85L106.32,194.96L108.33,196.43L110.35,197.46L112.36,198.18L114.38,198.68L116.39,199.02L118.41,199.27L120.42,199.44L122.43,199.55L124.45,199.63L126.46,199.69L128.48,199.73L130.49,199.76L132.51,199.78L134.52,199.79L136.54,199.8L138.55,199.81L140.57,199.81L142.58,199.82L144.59,199.82L146.61,199.82L148.62,199.82L150.64,199.82L152.65,199.82L154.67,199.82L156.68,199.82L158.7,199.82L160.71,199.82L162.72,199.82L164.74,199.82L166.75,199.82L168.77,199.82L170.78,199.82L172.8,199.82L174.81,199.82L176.83,199.82L178.84,199.82L180.85,199.82L182.87,199.82L184.88,199.82L186.9,199.82L188.91,199.82L190.93,199.82L192.94,199.82L194.96,199.82L196.97,199.82L198.99,199.82L201,199.82L203.01,199.82L205.03,199.82L207.04,199.82L209.06,199.82L211.07,199.82L213.09,199.82L215.1,199.82L217.12,199.82L219.13,199.82L221.14,199.82L223.16,199.82L225.17,199.82L227.19,199.82L229.2,199.82L231.22,199.82L233.23,199.82L235.25,199.82L237.26,198.9L239.28,198.25L241.29,197.8L243.3,197.49L245.32,197.27L247.33,197.12L249.35,197.01L251.36,196.94L253.38,196.89L255.39,196.14L257.41,195.62L259.42,195.26L261.43,195.01L263.45,194.83L265.46,194.71L267.48,194.62L269.49,194.57L271.51,194.52L273.52,193.95L275.54,193.54L277.55,193.26L279.57,193.07L281.58,192.93L283.59,192.84L285.61,192.77L287.62,192.73L289.64,192.69L291.65,192.25L293.67,191.93L295.68,191.71L297.7,191.56L299.71,191.46L301.72,191.38L303.74,191.33L305.75,191.29L307.77,191.27L309.78,190.92L311.8,190.67L313.81,190.5L315.83,190.38L317.84,190.3L319.86,190.24L321.87,190.2L323.88,190.17L325.9,190.16L327.91,189.88L329.93,189.69L331.94,189.55L333.96,189.46L335.97,189.39L337.99,189.35L340,189.32L342.01,189.29L344.03,189.28L346.04,189.06L348.06,188.91L350.07,188.8L352.09,188.73L354.1,188.68L356.12,188.64L358.13,188.62L360.14,188.6L362.16,188.59L364.17,188.41L366.19,188.29L368.2,188.21L370.22,188.15L372.23,188.11L374.25,188.08L376.26,188.06L378.28,188.05L380.29,188.04L382.3,188.03L384.32,188.03L386.33,186.42L388.35,183.47L390.36,179.52L392.38,174.92L394.39,169.97L396.41,164.88L398.42,159.85L400.43,154.98L402.45,150.35L404.46,146L406.48,141.96L408.49,138.22L410.51,134.78L412.52,131.61L414.54,128.71L416.55,126.05L418.57,123.61L420.58,121.37L422.59,119.3L424.61,117.87L426.62,116.31L428.64,114.74L430.65,113.21L432.67,112.14L434.68,110.94L436.7,109.69L438.71,108.82L440.72,107.79L442.74,106.71L444.75,105.96L446.77,105.07" style="fill:none;stroke:#228B22" />
<path d="M45.884,74.532L47.898,74.532L49.913,74.532L51.927,74.532L53.942,74.532L55.956,74.532L57.971,74.532L59.985,74.532L62,74.532L64.014,74.532L66.029,74.532L68.043,74.532L70.058,74.532L72.072,74.532L74.087,254.95L76.101,74.532L78.116,74.532L80.13,74.532L82.145,74.532L84.159,74.532L86.174,74.532L88.188,74.532L90.203,254.95L92.217,74.532L94.232,74.532L96.246,74.532L98.261,74.532L100.28,74.532L102.29,74.532L104.3,74.532L106.32,254.95L108.33,74.532L110.35,74.532L112.36,74.532L114.38,74.532L116.39,74.532L118.41,74.532L120.42,74.532L122.43,254.95L124.45,74.532L126.46,74.532L128.48,74.532L130.49,74.532L132.51,74.532L134.52,74.532L136.54,74.532L138.55,254.95L140.57,74.532L142.58,74.532L144.59,74.532L146.61,74.532L148.62,74.532L150.64,74.532L152.65,74.532L154.67,254.95L156.68,74.532L158.7,74.532L160.71,74.532L162.72,74.532L164.74,74.532L166.75,74.532L168.77,74.532L170.78,254.95L172.8,74.532L174.81,74.532L176.83,74.532L178.84,74.532L180.85,74.532L182.87,74.532L184.88,74.532L186.9,254.95L188.91,74.532L190.93,74.532L192.94,74.532L194.96,74.532L196.97,74.532L198.99,74.532L201,74.532L203.01,254.95L205.03,74.532L207.04,74.532L209.06,74.532L211.07,74.532L213.09,74.532L215.1,74.532L217.12,74.532L219.13,254.95L221.14,74.532L223.16,74.532L225.17,74.532L227.19,74.532L229.2,74.532L231.22,74.532L233.23,74.532L235.25,74.532L237.26,254.95L239.28,74.532L241.29,74.532L243.3,74.532L245.32,74.532L247.33,74.532L249.35,74.532L251.36,74.532L253.38,74.532L255.39,254.95L257.41,74.532L259.42,74.532L261.43,74.532L263.45,74.532L265.46,74.532L267.48,74.532L269.49,74.532L271.51,74.532L273.52,254.95L275.54,74.532L277.55,74.532L279.57,74.532L281.58,74.532L283.59,74.532L285.61,74.532L287.62,74.532L289.64,74.532L291.65,254.95L293.67,74.532L295.68,74.532L297.7,74.532L299.71,74.532L301.72,74.532L303.74,74.532L305.75,74.532L307.77,74.532L309.78,254.95L311.8,74.532L313.81,74.532L315.83,74.532L317.84,74.532L319.86,74.532L321.87,74.532L323.88,74.532L325.9,74.532L327.91,254.95L329.93,74.532L331.94,74.532L333.96,74.532L335.97,74.532L337.99,74.532L340,74.532L342.01,74.532L344.03,74.532L346.04,254.95L348.06,74.532L350.07,74.532L352.09,74.532L354.1,74.532L356.12,74.532L358.13,74.532L360.14,74.532L362.16,74.532L364.17,254.95L366.19,74.532L368.2,74.532L370.22,74.532L372.23,74.532L374.25,74.532L376.26,74.532L378.28,74.532L380.29,74.532L382.3,74.532L384.32,74.532L386.33,74.532L388.35,74.532L390.36,74.532L392.38,74.532L394.39,74.532L396.41,74.532L398.42,74.532L400.43,74.532L402.45,74.532L404.46,74.532L406.48,74.532L408.49,74.532L410.51,74.532L412.52,74.532L414.54,74.532L416.55,74.532L418.57,74.532L420.58,74.532L422.59,74.532L424.61,74.532L426.62,74.532L428.64,74.532L430.65,74.532L432.67,74.532L434.68,74.532L436.7,74.532L438.71,74.532L440.72,74.532L442.74,74.532L444.75,74.532L446.77,74.532" style="fill:none;stroke:#800080" />
<path d="M45.884,74.532L47.898,74.532L49.913,74.532L51.927,74.532L53.942,74.532L55.956,74.532L57.971,74.532L59.985,74.532L62,74.532L64.014,74.532L66.029,74.532L68.043,74.532L70.058,74.532L72.072,74.532L74.087,74.532L76.101,74.532L78.116,74.532L80.13,74.532L82.145,75.917L84.159,75.898L86.174,75.879L88.188,75.861L90.203,75.843L92.217,75.843L94.232,75.843L96.246,75.843L98.261,77.132L100.28,77.097L102.29,77.063L104.3,77.029L106.32,76.996L108.33,76.996L110.35,76.996L112.36,76.996L114.38,78.204L116.39,78.156L118.41,78.109L120.42,78.063L122.43,78.017L124.45,78.017L126.46,78.017L128.48,78.017L130.49,79.157L132.51,79.098L134.52,79.04L136.54,78.983L138.55,78.926L140.57,78.926L142.58,78.926L144.59,78.926L146.61,80.009L148.62,79.94L150.64,79.873L152.65,79.807L154.67,79.741L156.68,79.741L158.7,79.741L160.71,79.741L162.72,80.776L164.74,80.699L166.75,80.623L168.77,80.549L170.78,80.477L172.8,80.477L174.81,80.477L176.83,80.477L178.84,81.469L180.85,81.386L182.87,81.304L184.88,81.223L186.9,81.144L188.91,81.144L190.93,81.144L192.94,81.144L194.96,82.101L196.97,82.012L198.99,81.924L201,81.838L203.01,81.753L205.03,81.753L207.04,81.753L209.06,81.753L211.07,82.68L213.09,82.586L215.1,82.493L217.12,82.402L219.13,82.313L221.14,82.313L223.16,82.313L225.17,82.313L227.19,83.213L229.2,83.115L231.22,83.018L233.23,82.923L235.25,82.829L237.26,82.737L239.28,82.737L241.29,82.737L243.3,82.737L245.32,83.624L247.33,83.523L249.35,83.424L251.36,83.327L253.38,83.231L255.39,83.137L257.41,83.137L259.42,83.137L261.43,83.137L263.45,84.012L265.46,83.909L267.48,83.808L269.49,83.709L271.51,83.611L273.52,83.515L275.54,83.515L277.55,83.515L279.57,83.515L281.58,84.379L283.59,84.274L285.61,84.172L287.62,84.071L289.64,83.971L291.65,83.874L293.67,83.874L295.68,83.874L297.7,83.874L299.71,84.727L301.72,84.621L303.74,84.517L305.75,84.415L307.77,84.314L309.78,84.215L311.8,84.215L313.81,84.215L315.83,84.215L317.84,85.06L319.86,84.952L321.87,84.847L323.88,84.743L325.9,84.641L327.91,84.541L329.93,84.541L331.94,84.541L333.96,84.541L335.97,85.377L337.99,85.269L340,85.162L342.01,85.057L344.03,84.954L346.04,84.852L348.06,84.852L350.07,84.852L352.09,84.852L354.1,85.682L356.12,85.572L358.13,85.464L360.14,85.358L362.16,85.253L364.17,85.151L366.19,85.151L368.2,85.151L370.22,85.151L372.23,85.974L374.25,85.863L376.26,85.754L378.28,85.647L380.29,85.542L382.3,85.438L384.32,85.336L386.33,85.236L388.35,85.137L390.36,85.04L392.38,84.945L394.39,84.851L396.41,84.759L398.42,84.668L400.43,84.579L402.45,84.491L404.46,84.405L406.48,84.32L408.49,84.236L410.51,84.154L412.52,84.073L414.54,83.993L416.55,83.915L418.57,83.838L420.58,83.762L422.59,83.687L424.61,83.613L426.62,83.541L428.64,83.469L430.65,83.399L432.67,83.33L434.68,83.262L436.7,83.195L438.71,83.129L440.72,83.064L442.74,83L444.75,82.937L446.77,82.874" style="fill:none;stroke:#FFA500" />
<path d="M437.12,253.97L457.12,253.97" style="fill:none;stroke:#000000" />
<text x="417.78" y="-248.33" transform="scale(1, -1)"
	style="font-family:Helvetica;font-weight:normal;font-style:normal;font-size:12px">Ge</text>
<path d="M437.12,242.21L457.12,242.21" style="fill:none;stroke:#FF0000" />
<text x="413.78" y="-236.57" transform="scale(1, -1)"
	style="font-family:Helvetica;font-weight:normal;font-style:normal;font-size:12px">Inet</text>
<path d="M437.12,230.45L457.12,230.45" style="fill:none;stroke:#0000FF" />
<text x="415.79" y="-224.81" transform="scale(1, -1)"
	style="font-family:Helvetica;font-weight:normal;font-style:normal;font-size:12px">Vm</text>
<path d="M437.12,218.69L457.12,218.69" style="fill:none;stroke:#228B22" />
<text x="416.45" y="-213.05" transform="scale(1, -1)"
	style="font-family:Helvetica;font-weight:normal;font-style:normal;font-size:12px">Act</text>
<path d="M437.12,206.93L457.12,206.93" style="fill:none;stroke:#800080" />
<text x="403.77" y="-201.29" transform="scale(1, -1)"
	style="font-family:Helvetica;font-weight:normal;font-style:normal;font-size:12px">Spike</text>
<path d="M437.12,195.17L457.12,195.17" style="fill:none;stroke:#FFA500" />
<text x="418.46" y="-189.53" transform="scale(1, -1)"
	style="font-family:Helvetica;font-weight:normal;font-style:normal;font-size:12px">Gk</text>
</g>
</svg>
