<?xml version="1.0" encoding="UTF-8" standalone="no"?>
<!-- Created with Inkscape (http://www.inkscape.org/) -->

<svg
   xmlns:dc="http://purl.org/dc/elements/1.1/"
   xmlns:cc="http://creativecommons.org/ns#"
   xmlns:rdf="http://www.w3.org/1999/02/22-rdf-syntax-ns#"
   xmlns:svg="http://www.w3.org/2000/svg"
   xmlns="http://www.w3.org/2000/svg"
   xmlns:sodipodi="http://sodipodi.sourceforge.net/DTD/sodipodi-0.dtd"
   xmlns:inkscape="http://www.inkscape.org/namespaces/inkscape"
   width="744.09448819"
   height="1052.3622047"
   id="svg2"
   version="1.1"
   inkscape:version="0.46+devel r21714"
   sodipodi:docname="fig_pfc_abstraction_color.svg"
   inkscape:output_extension="org.inkscape.output.svg.inkscape"
   inkscape:export-filename="/Users/oreilly/svn_docs/figs/fig_pfc_abstraction_color.png"
   inkscape:export-xdpi="150"
   inkscape:export-ydpi="150">
  <defs
     id="defs4">
    <inkscape:perspective
       sodipodi:type="inkscape:persp3d"
       inkscape:vp_x="0 : 526.18109 : 1"
       inkscape:vp_y="0 : 1000 : 0"
       inkscape:vp_z="744.09448 : 526.18109 : 1"
       inkscape:persp3d-origin="372.04724 : 350.78739 : 1"
       id="perspective10" />
  </defs>
  <sodipodi:namedview
     id="base"
     pagecolor="#ffffff"
     bordercolor="#666666"
     borderopacity="1.0"
     inkscape:pageopacity="0.0"
     inkscape:pageshadow="2"
     inkscape:zoom="1.979899"
     inkscape:cx="322.21627"
     inkscape:cy="496.75016"
     inkscape:document-units="px"
     inkscape:current-layer="layer1"
     showgrid="false"
     inkscape:snap-smooth-nodes="true"
     inkscape:window-width="1584"
     inkscape:window-height="1101"
     inkscape:window-x="0"
     inkscape:window-y="0"
     inkscape:window-maximized="0" />
  <metadata
     id="metadata7">
    <rdf:RDF>
      <cc:Work
         rdf:about="">
        <dc:format>image/svg+xml</dc:format>
        <dc:type
           rdf:resource="http://purl.org/dc/dcmitype/StillImage" />
        <dc:title></dc:title>
      </cc:Work>
    </rdf:RDF>
  </metadata>
  <g
     inkscape:label="Layer 1"
     inkscape:groupmode="layer"
     id="layer1">
    <g
       id="g3608"
       transform="matrix(0.5,0,0,0.5,162.25575,274.40057)">
      <rect
         y="516.98132"
         x="34.345188"
         height="64.649765"
         width="64.649765"
         id="rect2816"
         style="fill:#ff0000;fill-opacity:1;stroke:#000000;stroke-width:2;stroke-miterlimit:4;stroke-opacity:1;stroke-dasharray:none;stroke-dashoffset:0" />
      <rect
         style="fill:#ff4c00;fill-opacity:1;stroke:#000000;stroke-width:2;stroke-miterlimit:4;stroke-opacity:1;stroke-dasharray:none;stroke-dashoffset:0"
         id="rect3592"
         width="64.649765"
         height="64.649765"
         x="107.79772"
         y="516.98132" />
      <rect
         style="fill:#faff00;fill-opacity:1;stroke:#000000;stroke-width:2;stroke-miterlimit:4;stroke-opacity:1;stroke-dasharray:none;stroke-dashoffset:0"
         id="rect3594"
         width="64.649765"
         height="64.649765"
         x="181.25024"
         y="516.98132" />
      <rect
         y="516.98132"
         x="254.70276"
         height="64.649765"
         width="64.649765"
         id="rect3596"
         style="fill:#02ff00;fill-opacity:1;stroke:#000000;stroke-width:2;stroke-miterlimit:4;stroke-opacity:1;stroke-dasharray:none;stroke-dashoffset:0" />
      <rect
         y="516.98132"
         x="328.1553"
         height="64.649765"
         width="64.649765"
         id="rect3598"
         style="fill:#00f5ff;fill-opacity:1;stroke:#000000;stroke-width:2;stroke-miterlimit:4;stroke-opacity:1;stroke-dasharray:none;stroke-dashoffset:0" />
      <rect
         style="fill:#0004ff;fill-opacity:1;stroke:#000000;stroke-width:2;stroke-miterlimit:4;stroke-opacity:1;stroke-dasharray:none;stroke-dashoffset:0"
         id="rect3600"
         width="64.649765"
         height="64.649765"
         x="401.60782"
         y="516.98132" />
      <rect
         style="fill:#a100ff;fill-opacity:1;stroke:#000000;stroke-width:2;stroke-miterlimit:4;stroke-opacity:1;stroke-dasharray:none;stroke-dashoffset:0"
         id="rect3602"
         width="64.649765"
         height="64.649765"
         x="475.06036"
         y="516.98132" />
      <rect
         y="516.98132"
         x="548.51288"
         height="64.649765"
         width="64.649765"
         id="rect3604"
         style="fill:#ff00fe;fill-opacity:1;stroke:#000000;stroke-width:2;stroke-miterlimit:4;stroke-opacity:1;stroke-dasharray:none;stroke-dashoffset:0" />
    </g>
    <path
       sodipodi:type="arc"
       style="fill:#ffffff;fill-opacity:1;stroke:#000000;stroke-width:2;stroke-miterlimit:4;stroke-opacity:1;stroke-dasharray:none;stroke-dashoffset:0"
       id="path3606"
       sodipodi:cx="358.60416"
       sodipodi:cy="345.2554"
       sodipodi:rx="49.497475"
       sodipodi:ry="49.497475"
       d="m 408.10163,345.2554 a 49.497475,49.497475 0 1 1 -98.99495,0 49.497475,49.497475 0 1 1 98.99495,0 z"
       transform="matrix(0.5,0,0,0.5,144.83063,272.88534)" />
    <g
       id="g3624"
       transform="matrix(0.5,0,0,0.5,167.55906,274.40057)"
       style="fill:#ffffff">
      <path
         sodipodi:type="arc"
         style="fill:#ffffff;fill-opacity:1;stroke:#000000;stroke-width:2;stroke-miterlimit:4;stroke-opacity:1;stroke-dasharray:none;stroke-dashoffset:0"
         id="path3618"
         sodipodi:cx="358.60416"
         sodipodi:cy="345.2554"
         sodipodi:rx="49.497475"
         sodipodi:ry="49.497475"
         d="m 408.10163,345.2554 c 0,27.3367 -22.16077,49.49748 -49.49747,49.49748 -27.3367,0 -49.49748,-22.16078 -49.49748,-49.49748 0,-27.3367 22.16078,-49.49747 49.49748,-49.49747 27.3367,0 49.49747,22.16077 49.49747,49.49747 z"
         transform="translate(-202.03051,410.12193)" />
      <path
         transform="translate(-45.456877,410.12193)"
         d="m 408.10163,345.2554 c 0,27.3367 -22.16077,49.49748 -49.49747,49.49748 -27.3367,0 -49.49748,-22.16078 -49.49748,-49.49748 0,-27.3367 22.16078,-49.49747 49.49748,-49.49747 27.3367,0 49.49747,22.16077 49.49747,49.49747 z"
         sodipodi:ry="49.497475"
         sodipodi:rx="49.497475"
         sodipodi:cy="345.2554"
         sodipodi:cx="358.60416"
         id="path3620"
         style="fill:#ffffff;fill-opacity:1;stroke:#000000;stroke-width:2;stroke-miterlimit:4;stroke-opacity:1;stroke-dasharray:none;stroke-dashoffset:0"
         sodipodi:type="arc" />
      <path
         sodipodi:type="arc"
         style="fill:#ffffff;fill-opacity:1;stroke:#000000;stroke-width:2;stroke-miterlimit:4;stroke-opacity:1;stroke-dasharray:none;stroke-dashoffset:0"
         id="path3622"
         sodipodi:cx="358.60416"
         sodipodi:cy="345.2554"
         sodipodi:rx="49.497475"
         sodipodi:ry="49.497475"
         d="m 408.10163,345.2554 c 0,27.3367 -22.16077,49.49748 -49.49747,49.49748 -27.3367,0 -49.49748,-22.16078 -49.49748,-49.49748 0,-27.3367 22.16078,-49.49747 49.49748,-49.49747 27.3367,0 49.49747,22.16077 49.49747,49.49747 z"
         transform="translate(111.11678,410.12193)" />
    </g>
    <g
       id="g3633"
       transform="matrix(0.5,0,0,0.5,162.00322,274.40057)">
      <path
         sodipodi:nodetypes="caaaaa"
         id="path3629"
         d="m 36.365492,598.80369 c 0,0 18.466608,1.4148 27.274118,4.04061 9.240213,2.75481 18.719448,6.1176 26.263967,12.12183 10.329073,8.22029 16.936233,20.32089 24.243653,31.31473 9.84885,14.81734 13.11178,34.48482 26.26398,46.46702 7.91045,7.20675 29.29442,13.13198 29.29442,13.13198"
         style="fill:none;stroke:#000000;stroke-width:2;stroke-linecap:butt;stroke-linejoin:miter;stroke-miterlimit:4;stroke-opacity:1;stroke-dasharray:none" />
      <path
         style="fill:none;stroke:#000000;stroke-width:2;stroke-linecap:butt;stroke-linejoin:miter;stroke-miterlimit:4;stroke-opacity:1;stroke-dasharray:none"
         d="m 302.28815,598.80369 c 0,0 -18.46661,1.4148 -27.27412,4.04061 -9.24021,2.75481 -18.71945,6.1176 -26.26397,12.12183 -10.32907,8.22029 -16.93623,20.32089 -24.24365,31.31473 -9.84885,14.81734 -13.11178,34.48482 -26.26398,46.46702 -7.91045,7.20675 -29.29442,13.13198 -29.29442,13.13198"
         id="path3631"
         sodipodi:nodetypes="caaaaa" />
    </g>
    <g
       id="g3637"
       transform="matrix(0.5,0,0,0.5,239.78496,274.40057)">
      <path
         style="fill:none;stroke:#000000;stroke-width:2;stroke-linecap:butt;stroke-linejoin:miter;stroke-miterlimit:4;stroke-opacity:1;stroke-dasharray:none"
         d="m 36.365492,598.80369 c 0,0 18.466608,1.4148 27.274118,4.04061 9.240213,2.75481 18.719448,6.1176 26.263967,12.12183 10.329073,8.22029 16.936233,20.32089 24.243653,31.31473 9.84885,14.81734 13.11178,34.48482 26.26398,46.46702 7.91045,7.20675 29.29442,13.13198 29.29442,13.13198"
         id="path3639"
         sodipodi:nodetypes="caaaaa" />
      <path
         sodipodi:nodetypes="caaaaa"
         id="path3641"
         d="m 302.28815,598.80369 c 0,0 -18.46661,1.4148 -27.27412,4.04061 -9.24021,2.75481 -18.71945,6.1176 -26.26397,12.12183 -10.32907,8.22029 -16.93623,20.32089 -24.24365,31.31473 -9.84885,14.81734 -13.11178,34.48482 -26.26398,46.46702 -7.91045,7.20675 -29.29442,13.13198 -29.29442,13.13198"
         style="fill:none;stroke:#000000;stroke-width:2;stroke-linecap:butt;stroke-linejoin:miter;stroke-miterlimit:4;stroke-opacity:1;stroke-dasharray:none" />
    </g>
    <g
       transform="matrix(0.5,0,0,0.5,317.56671,274.40057)"
       id="g3643">
      <path
         sodipodi:nodetypes="caaaaa"
         id="path3645"
         d="m 36.365492,598.80369 c 0,0 18.466608,1.4148 27.274118,4.04061 9.240213,2.75481 18.719448,6.1176 26.263967,12.12183 10.329073,8.22029 16.936233,20.32089 24.243653,31.31473 9.84885,14.81734 13.11178,34.48482 26.26398,46.46702 7.91045,7.20675 29.29442,13.13198 29.29442,13.13198"
         style="fill:none;stroke:#000000;stroke-width:2;stroke-linecap:butt;stroke-linejoin:miter;stroke-miterlimit:4;stroke-opacity:1;stroke-dasharray:none" />
      <path
         style="fill:none;stroke:#000000;stroke-width:2;stroke-linecap:butt;stroke-linejoin:miter;stroke-miterlimit:4;stroke-opacity:1;stroke-dasharray:none"
         d="m 302.28815,598.80369 c 0,0 -18.46661,1.4148 -27.27412,4.04061 -9.24021,2.75481 -18.71945,6.1176 -26.26397,12.12183 -10.32907,8.22029 -16.93623,20.32089 -24.24365,31.31473 -9.84885,14.81734 -13.11178,34.48482 -26.26398,46.46702 -7.91045,7.20675 -29.29442,13.13198 -29.29442,13.13198"
         id="path3647"
         sodipodi:nodetypes="caaaaa" />
    </g>
    <path
       style="fill:none;stroke:#000000;stroke-width:1;stroke-linecap:butt;stroke-linejoin:miter;stroke-miterlimit:4;stroke-opacity:1;stroke-dasharray:none"
       d="m 179.17581,527.84047 0,-38.3858 144.95689,0 0,-18.68781 0,18.68781 143.94674,0 0,39.39596"
       id="path3649"
       sodipodi:nodetypes="ccccccc" />
    <text
       xml:space="preserve"
       style="font-size:12px;fill:none;stroke:#000000;stroke-width:1px;stroke-linecap:butt;stroke-linejoin:miter;stroke-opacity:1"
       x="308.75772"
       y="451.33725"
       id="text3705"><tspan
         sodipodi:role="line"
         id="tspan3707"
         x="308.75772"
         y="451.33725"
         style="font-size:16px;fill:#000000;fill-opacity:1;stroke:none">PFC</tspan></text>
    <text
       xml:space="preserve"
       style="font-size:12px;fill:none;stroke:#000000;stroke-width:1px;stroke-linecap:butt;stroke-linejoin:miter;stroke-opacity:1"
       x="332.59274"
       y="422.53207"
       id="text3730"><tspan
         sodipodi:role="line"
         id="tspan3732"
         x="332.59274"
         y="422.53207" /></text>
    <text
       id="text3734"
       y="644.02386"
       x="143.85031"
       style="font-size:12px;fill:none;stroke:#000000;stroke-width:1px;stroke-linecap:butt;stroke-linejoin:miter;stroke-opacity:1"
       xml:space="preserve"><tspan
         style="font-size:16px;fill:#000000;fill-opacity:1;stroke:none"
         y="644.02386"
         x="143.85031"
         id="tspan3736"
         sodipodi:role="line">Posterior</tspan><tspan
         style="font-size:16px;fill:#000000;fill-opacity:1;stroke:none"
         y="664.02386"
         x="143.85031"
         sodipodi:role="line"
         id="tspan3738">Cortex</tspan></text>
  </g>
</svg>
