<?xml version="1.0" encoding="ISO-8859-1" standalone="yes"?>
<svg width="165.45" height="169.09">
  <defs> 
    <marker id="ArrowEnd" viewBox="0 0 10 10" refX="0" refY="5" 
     markerUnits="strokeWidth" 
     markerWidth="4" 
     markerHeight="3" 
     orient="auto"> 
        <path d="M 0 0 L 10 5 L 0 10 z" /> 
    </marker>
    <marker id="ArrowStart" viewBox="0 0 10 10" refX="10" refY="5" 
     markerUnits="strokeWidth" 
     markerWidth="4" 
     markerHeight="3" 
     orient="auto"> 
        <path d="M 10 0 L 0 5 L 10 10 z" /> 
    </marker> </defs>
<g>
<path style="stroke:none; fill-rule:evenodd; fill:#ffffff" d="M 155.422 143.758C 155.422 135.309 148.57 128.453 140.117 128.453C 131.668 128.453 124.812 135.305 124.812 143.758C 124.812 152.207 131.664 159.062 140.117 159.062C 148.566 159.062 155.422 152.211 155.422 143.758"/>
<path style="stroke:#000000; stroke-width:1.9133; fill:none" d="M 155.422 143.758C 155.422 135.309 148.57 128.453 140.117 128.453C 131.668 128.453 124.812 135.305 124.812 143.758C 124.812 152.207 131.664 159.062 140.117 159.062C 148.566 159.062 155.422 152.211 155.422 143.758"/>
<path style="stroke:none; fill-rule:evenodd; fill:#ffffff" d="M 140.601 130.363L 127.211 150.453L 153.515 150.453L 140.601 129.41"/>
<path style="stroke:#000000; stroke-width:1.9133; fill:none" d="M 140.601 130.363L 127.211 150.453L 153.515 150.453L 140.601 129.41"/>
<path style="stroke:none; fill-rule:evenodd; fill:#ffffff" d="M 119.07 143.758C 119.07 135.309 112.218 128.453 103.765 128.453C 95.3163 128.453 88.4613 135.305 88.4613 143.758C 88.4613 152.207 95.3123 159.062 103.765 159.062C 112.214 159.062 119.07 152.211 119.07 143.758"/>
<path style="stroke:#000000; stroke-width:1.9133; fill:none" d="M 119.07 143.758C 119.07 135.309 112.218 128.453 103.765 128.453C 95.3163 128.453 88.4613 135.305 88.4613 143.758C 88.4613 152.207 95.3123 159.062 103.765 159.062C 112.214 159.062 119.07 152.211 119.07 143.758"/>
<path style="stroke:none; fill-rule:evenodd; fill:#ffffff" d="M 93.4803 152.367L 114.046 152.367L 114.046 135.148L 93.4803 135.148L 93.4803 152.367z"/>
<path style="stroke:#000000; stroke-width:1.9133; fill:none" d="M 93.4803 152.367L 114.046 152.367L 114.046 135.148L 93.4803 135.148L 93.4803 152.367z"/>
<path style="stroke:none; fill-rule:evenodd; fill:#ffffff" d="M 79.8515 48.09C 79.8515 39.641 72.9999 32.785 64.5468 32.785C 56.0976 32.785 49.2421 39.637 49.2421 48.09C 49.2421 56.539 56.0937 63.395 64.5468 63.395C 72.996 63.395 79.8515 56.543 79.8515 48.09"/>
<path style="stroke:#000000; stroke-width:1.9133; fill:none" d="M 79.8515 48.09C 79.8515 39.641 72.9999 32.785 64.5468 32.785C 56.0976 32.785 49.2421 39.637 49.2421 48.09C 49.2421 56.539 56.0937 63.395 64.5468 63.395C 72.996 63.395 79.8515 56.543 79.8515 48.09"/>
<path style="stroke:none; fill-rule:evenodd; fill:#ffffff" d="M 116.207 48.09C 116.207 39.641 109.355 32.785 100.902 32.785C 92.4533 32.785 85.5973 39.637 85.5973 48.09C 85.5973 56.539 92.4493 63.395 100.902 63.395C 109.351 63.395 116.207 56.543 116.207 48.09"/>
<path style="stroke:#000000; stroke-width:1.9133; fill:none" d="M 116.207 48.09C 116.207 39.641 109.355 32.785 100.902 32.785C 92.4533 32.785 85.5973 39.637 85.5973 48.09C 85.5973 56.539 92.4493 63.395 100.902 63.395C 109.351 63.395 116.207 56.543 116.207 48.09"/>
<path style="stroke:none; fill-rule:evenodd; fill:#000000" d="M 66.1718 49L 67.0312 51.5L 68.2226 51.5L 65.2851 43.102L 63.9101 43.102L 60.9257 51.5L 62.0585 51.5L 62.9413 49L 66.1718 49zM 65.8749 48.102L 63.2148 48.102L 64.5898 44.281L 65.8749 48.102z"/>
<path style="stroke:none; fill-rule:evenodd; fill:#000000" d="M 98.4333 51.5L 102.242 51.5C 103.039 51.5 103.629 51.281 104.082 50.801C 104.496 50.363 104.73 49.766 104.73 49.109C 104.73 48.098 104.257 47.484 103.156 47.074C 103.922 46.719 104.328 46.098 104.328 45.246C 104.328 44.637 104.101 44.098 103.66 43.703C 103.222 43.301 102.648 43.117 101.839 43.117L 98.4293 43.117L 98.4333 51.5zM 99.5313 46.801L 99.5313 44.004L 101.574 44.004C 102.164 44.004 102.492 44.086 102.773 44.316C 103.066 44.555 103.226 44.918 103.226 45.402C 103.226 45.871 103.07 46.246 102.773 46.488C 102.492 46.715 102.164 46.801 101.574 46.801L 99.5313 46.801zM 99.5313 50.602L 99.5313 47.703L 102.129 47.703C 102.64 47.703 102.984 47.828 103.238 48.105C 103.488 48.371 103.625 48.738 103.625 49.156C 103.625 49.559 103.488 49.93 103.238 50.195C 102.988 50.469 102.644 50.598 102.129 50.598L 99.5313 50.602z"/>
<path style="stroke:none; fill-rule:evenodd; fill:#000000" d="M 16.1991 9.145C 16.0781 9.19901 16.0234 9.19901 15.9531 9.19901C 15.5585 9.19901 15.3359 9 15.3359 8.65199L 15.3359 4.52299C 15.3359 3.27699 14.4296 2.605 12.707 2.605C 11.6952 2.605 10.8554 2.895 10.3866 3.414C 10.0702 3.77 9.93351 4.168 9.91011 4.85899L 11.0312 4.85899C 11.121 3.996 11.6288 3.605 12.6718 3.605C 13.6718 3.605 14.2343 3.98 14.2343 4.64799L 14.2343 4.94099C 14.2343 5.41 13.957 5.60899 13.082 5.715C 11.5195 5.914 11.2812 5.96899 10.8554 6.14101C 10.0468 6.47301 9.63661 7.105 9.63661 8.01601C 9.63661 9.285 10.5155 10.09 11.9257 10.09C 12.8046 10.09 13.5077 9.785 14.2929 9.07001C 14.371 9.77299 14.7187 10.09 15.4374 10.09C 15.664 10.09 15.8359 10.066 16.1952 9.97301L 16.1991 9.145zM 14.2343 7.578C 14.2343 7.94501 14.1288 8.172 13.7929 8.47701C 13.3398 8.88699 12.7851 9.09801 12.1249 9.09801C 11.2499 9.09801 10.7421 8.688 10.7421 7.98801C 10.7421 7.26199 11.2382 6.89101 12.4374 6.71899C 13.621 6.562 13.8632 6.508 14.2382 6.336L 14.2343 7.578z"/>
<path style="stroke:none; fill-rule:evenodd; fill:#000000" d="M 17.7695 12.641C 19.0937 10.883 19.9296 8.438 19.9296 6.332C 19.9296 4.211 19.0937 1.77 17.7695 0.00799561L 17.0429 0.00799561C 18.1913 1.92999 18.832 4.18401 18.832 6.332C 18.832 8.465 18.1913 10.734 17.0429 12.641L 17.7695 12.641z"/>
<path style="stroke:none; fill-rule:evenodd; fill:#000000" d="M 34.6952 9.80099L 37.1718 0.0039978L 35.7812 0.0039978L 33.9882 7.96899L 31.7655 0.0039978L 30.4296 0.0039978L 28.2616 7.96899L 26.4296 0.0039978L 25.039 0.0039978L 27.5429 9.80099L 28.9062 9.80099L 31.0859 1.78101L 33.3359 9.80099L 34.6952 9.80099z"/>
<path style="stroke:none; fill-rule:evenodd; fill:#000000" d="M 44.2343 6.703C 44.2343 5.629 44.1562 4.98399 43.957 4.461C 43.5077 3.30901 42.4413 2.60899 41.1366 2.60899C 39.1952 2.60899 37.9413 4.10201 37.9413 6.39799C 37.9413 8.69099 39.1445 10.105 41.0937 10.105C 42.6835 10.105 43.7812 9.19901 44.0624 7.67999L 42.9374 7.67999C 42.6327 8.617 41.9999 9.105 41.1054 9.105C 40.3984 9.105 39.7968 8.789 39.4218 8.203C 39.1562 7.80499 39.0624 7.40601 39.0468 6.711L 44.2343 6.703zM 39.0585 5.758C 39.1523 4.461 39.9413 3.617 41.0663 3.617C 42.164 3.617 43.0077 4.52699 43.0077 5.67599C 43.0077 5.69901 43.0077 5.72701 42.996 5.754L 39.0585 5.758z"/>
<path style="stroke:none; fill-rule:evenodd; fill:#000000" d="M 46.7343 2.80099L 45.6366 2.80099L 45.6366 9.80099L 46.7343 9.80099L 46.7343 2.80099zM 46.7343 0L 45.6366 0L 45.6366 1.44099L 46.7343 1.44099L 46.7343 0z"/>
<path style="stroke:none; fill-rule:evenodd; fill:#000000" d="M 53.2343 2.80099L 53.2343 3.80099C 52.6757 2.98399 51.996 2.60201 51.1054 2.60201C 49.3359 2.60201 48.1366 4.14799 48.1366 6.418C 48.1366 7.562 48.4413 8.496 49.0155 9.164C 49.5351 9.75 50.2812 10.098 51.0155 10.098C 51.8945 10.098 52.5077 9.72701 53.1327 8.84801L 53.1327 9.211C 53.1327 10.164 53.0155 10.746 52.7343 11.137C 52.4413 11.555 51.8671 11.793 51.1874 11.793C 50.6796 11.793 50.2265 11.66 49.9218 11.414C 49.6679 11.211 49.5624 11.023 49.496 10.602L 48.3632 10.602C 48.4804 11.914 49.5038 12.695 51.1366 12.695C 52.1718 12.695 53.0624 12.363 53.5116 11.805C 54.039 11.168 54.2421 10.285 54.2421 8.645L 54.2421 2.80099L 53.2343 2.80099zM 51.1952 3.60201C 52.414 3.60201 53.1288 4.625 53.1288 6.39101C 53.1288 8.07401 52.3984 9.09801 51.207 9.09801C 49.9765 9.09801 49.2304 8.062 49.2304 6.34801C 49.2304 4.65199 49.9882 3.59801 51.1913 3.59801L 51.1952 3.60201z"/>
<path style="stroke:none; fill-rule:evenodd; fill:#000000" d="M 56.1327 0L 56.1327 9.797L 57.2304 9.797L 57.2304 5.953C 57.2304 4.53101 57.9882 3.60201 59.1601 3.60201C 59.5234 3.60201 59.8905 3.71899 60.164 3.918C 60.4882 4.14101 60.6249 4.47701 60.6249 4.96899L 60.6249 9.797L 61.7226 9.797L 61.7226 4.51199C 61.7226 3.34 60.871 2.605 59.496 2.605C 58.496 2.605 57.8905 2.90601 57.2265 3.75L 57.2265 0.0039978L 56.1327 0z"/>
<path style="stroke:none; fill-rule:evenodd; fill:#000000" d="M 66.0312 2.80099L 64.832 2.80099L 64.832 0.854996L 63.7343 0.854996L 63.7343 2.80099L 62.8359 2.80099L 62.8359 3.69901L 63.7343 3.69901L 63.7343 8.98801C 63.7343 9.69501 64.2226 10.094 65.1054 10.094C 65.3749 10.094 65.6484 10.07 66.0312 10.004L 66.0312 9.07401C 65.8788 9.09 65.6991 9.09399 65.4765 9.09399C 64.9765 9.09399 64.8359 8.961 64.8359 8.46899L 64.8359 3.69501L 66.0351 3.69501L 66.0312 2.80099z"/>
<path style="stroke:none; fill-rule:evenodd; fill:#000000" d="M 66.832 7.203L 73.6288 7.203L 73.6288 6.30499L 66.832 6.30499L 66.832 7.203z"/>
<path style="stroke:none; fill-rule:evenodd; fill:#000000" d="M 74.9335 0L 74.9335 9.797L 75.9335 9.797L 75.9335 8.90199C 76.4687 9.711 77.1835 10.098 78.164 10.098C 80.0195 10.098 81.2304 8.59399 81.2304 6.27C 81.2304 4.004 80.0741 2.60201 78.2148 2.60201C 77.246 2.60201 76.5585 2.957 76.0351 3.73L 76.0351 0L 74.9335 0zM 78.0234 3.629C 79.2655 3.629 80.0702 4.711 80.0702 6.38699C 80.0702 7.98 79.2421 9.062 78.0234 9.062C 76.8476 9.062 76.0702 7.992 76.0702 6.34399C 76.0702 4.69901 76.8437 3.625 78.0234 3.625L 78.0234 3.629z"/>
<path style="stroke:none; fill-rule:evenodd; fill:#000000" d="M 88.7963 9.145C 88.6753 9.19901 88.6213 9.19901 88.5503 9.19901C 88.1563 9.19901 87.9333 9 87.9333 8.65199L 87.9333 4.52299C 87.9333 3.27699 87.0273 2.605 85.3043 2.605C 84.2933 2.605 83.4533 2.895 82.9843 3.414C 82.6679 3.77 82.5312 4.168 82.5077 4.85899L 83.6293 4.85899C 83.7183 3.996 84.2263 3.605 85.2693 3.605C 86.2693 3.605 86.8323 3.98 86.8323 4.64799L 86.8323 4.94099C 86.8323 5.41 86.5543 5.60899 85.6793 5.715C 84.1173 5.914 83.8793 5.96899 83.4533 6.14101C 82.6445 6.47301 82.2343 7.105 82.2343 8.01601C 82.2343 9.285 83.1132 10.09 84.5233 10.09C 85.4023 10.09 86.1053 9.785 86.8903 9.07001C 86.9683 9.77299 87.3163 10.09 88.0353 10.09C 88.2613 10.09 88.4333 10.066 88.7933 9.97301L 88.7963 9.145zM 86.8323 7.578C 86.8323 7.94501 86.7263 8.172 86.3903 8.47701C 85.9373 8.88699 85.3823 9.09801 84.7223 9.09801C 83.8473 9.09801 83.3393 8.688 83.3393 7.98801C 83.3393 7.26199 83.8363 6.89101 85.0353 6.71899C 86.2183 6.562 86.4613 6.508 86.8363 6.336L 86.8323 7.578z"/>
<path style="stroke:none; fill-rule:evenodd; fill:#000000" d="M 95.0003 4.73801C 94.9883 3.375 94.0893 2.60201 92.4923 2.60201C 90.8823 2.60201 89.8393 3.44501 89.8393 4.746C 89.8393 5.84399 90.3943 6.36301 92.0353 6.76601L 93.0663 7.02C 93.8323 7.207 94.1363 7.48801 94.1363 7.996C 94.1363 8.65199 93.4803 9.09399 92.4963 9.09399C 91.8943 9.09399 91.3823 8.918 91.1013 8.617C 90.9293 8.414 90.8473 8.211 90.7813 7.707L 89.6013 7.707C 89.6523 9.32001 90.5543 10.094 92.3753 10.094C 94.1253 10.094 95.2423 9.22701 95.2423 7.871C 95.2423 6.828 94.6603 6.254 93.2853 5.918L 92.2263 5.664C 91.3283 5.453 90.9453 5.15601 90.9453 4.66C 90.9453 4.02 91.5193 3.60201 92.4253 3.60201C 93.3203 3.60201 93.8003 3.992 93.8283 4.73801L 95.0003 4.73801z"/>
<path style="stroke:none; fill-rule:evenodd; fill:#000000" d="M 102.632 6.703C 102.632 5.629 102.554 4.98399 102.355 4.461C 101.906 3.30901 100.839 2.60899 99.5353 2.60899C 97.5933 2.60899 96.3393 4.10201 96.3393 6.39799C 96.3393 8.69099 97.5433 10.105 99.4923 10.105C 101.082 10.105 102.179 9.19901 102.461 7.67999L 101.336 7.67999C 101.031 8.617 100.398 9.105 99.5043 9.105C 98.7963 9.105 98.1953 8.789 97.8203 8.203C 97.5543 7.80499 97.4613 7.40601 97.4453 6.711L 102.632 6.703zM 97.4613 5.758C 97.5543 4.461 98.3433 3.617 99.4683 3.617C 100.566 3.617 101.41 4.52699 101.41 5.67599C 101.41 5.69901 101.41 5.72701 101.398 5.754L 97.4613 5.758z"/>
<path style="stroke:none; fill-rule:evenodd; fill:#000000" d="M 109.832 0L 108.734 0L 108.734 3.664C 108.273 2.96899 107.535 2.60201 106.609 2.60201C 104.812 2.60201 103.636 4.05499 103.636 6.285C 103.636 8.645 104.781 10.098 106.636 10.098C 107.582 10.098 108.242 9.742 108.832 8.875L 108.832 9.797L 109.832 9.797L 109.832 0zM 106.765 3.60201C 107.968 3.60201 108.73 4.68401 108.73 6.375C 108.73 8.01199 107.957 9.09399 106.777 9.09399C 105.55 9.09399 104.734 8 104.734 6.34801C 104.734 4.69901 105.546 3.59801 106.765 3.59801L 106.765 3.60201z"/>
<path style="stroke:none; fill-rule:evenodd; fill:#0000ff" d="M 76.9882 143.758C 76.9882 135.309 70.1366 128.453 61.6835 128.453C 53.2343 128.453 46.3788 135.305 46.3788 143.758C 46.3788 152.207 53.2304 159.062 61.6835 159.062C 70.1327 159.062 76.9882 152.211 76.9882 143.758"/>
<path style="stroke:#000000; stroke-width:1.9133; fill:none" d="M 76.9882 143.758C 76.9882 135.309 70.1366 128.453 61.6835 128.453C 53.2343 128.453 46.3788 135.305 46.3788 143.758C 46.3788 152.207 53.2304 159.062 61.6835 159.062C 70.1327 159.062 76.9882 152.211 76.9882 143.758"/>
<path style="stroke:none; fill-rule:evenodd; fill:#000000" d="M 51.2343 138.801L 51.2343 147.199L 52.1327 147.199L 52.1327 146.434C 52.5859 147.156 53.1913 147.5 54.0273 147.5C 55.6015 147.5 56.6288 146.195 56.6288 144.184C 56.6288 142.219 55.6484 141.004 54.0781 141.004C 53.2577 141.004 52.6796 141.316 52.2343 142L 52.2343 138.801L 51.2343 138.801zM 53.8827 141.91C 54.9491 141.91 55.6366 142.84 55.6366 144.273C 55.6366 145.637 54.9257 146.566 53.8827 146.566C 52.8749 146.566 52.207 145.648 52.207 144.238C 52.207 142.828 52.871 141.91 53.8827 141.91z"/>
<path style="stroke:none; fill-rule:evenodd; fill:#000000" d="M 57.832 147.203L 58.832 147.203L 58.832 138.805L 57.832 138.805L 57.832 147.203z"/>
<path style="stroke:none; fill-rule:evenodd; fill:#000000" d="M 65.2343 147.238L 65.2343 141.207L 64.2343 141.207L 64.2343 144.652C 64.2343 145.891 63.5898 146.703 62.582 146.703C 61.8202 146.703 61.3359 146.242 61.3359 145.512L 61.3359 141.207L 60.3359 141.207L 60.3359 145.859C 60.3359 146.859 61.0937 147.504 62.2851 147.504C 63.1835 147.504 63.7577 147.195 64.332 146.402L 64.332 147.242L 65.2343 147.238z"/>
<path style="stroke:none; fill-rule:evenodd; fill:#000000" d="M 71.9335 144.5C 71.9335 143.582 71.8671 143.031 71.6952 142.586C 71.3085 141.602 70.3945 141.004 69.2773 141.004C 67.6132 141.004 66.539 142.297 66.539 144.285C 66.539 146.273 67.5741 147.5 69.2499 147.5C 70.6132 147.5 71.5585 146.707 71.8007 145.375L 70.8476 145.375C 70.5859 146.18 70.0546 146.598 69.2929 146.598C 68.6913 146.598 68.1796 146.32 67.8632 145.805C 67.6366 145.457 67.5585 145.105 67.5468 144.5L 71.9335 144.5zM 67.5116 143.734C 67.5898 142.621 68.2695 141.898 69.2304 141.898C 70.1679 141.898 70.8945 142.676 70.8945 143.664C 70.8945 143.684 70.8945 143.707 70.8827 143.73L 67.5116 143.734z"/>
<path style="stroke:none; fill-rule:evenodd; fill:#ff0000" d="M 40.6366 143.758C 40.6366 135.309 33.7851 128.453 25.332 128.453C 16.8827 128.453 10.0273 135.305 10.0273 143.758C 10.0273 152.207 16.8788 159.062 25.332 159.062C 33.7812 159.062 40.6366 152.211 40.6366 143.758"/>
<path style="stroke:#000000; stroke-width:1.9133; fill:none" d="M 40.6366 143.758C 40.6366 135.309 33.7851 128.453 25.332 128.453C 16.8827 128.453 10.0273 135.305 10.0273 143.758C 10.0273 152.207 16.8788 159.062 25.332 159.062C 33.7812 159.062 40.6366 152.211 40.6366 143.758"/>
<path style="stroke:none; fill-rule:evenodd; fill:#000000" d="M 18.0312 141.176L 18.0312 147.199L 19.0312 147.199L 19.0312 144.066C 19.0312 143.203 19.2421 142.641 19.6913 142.305C 19.9804 142.086 20.2616 142.02 20.914 142.008L 20.914 141.043C 20.7577 141.023 20.6796 141.012 20.5546 141.012C 19.9452 141.012 19.4804 141.379 18.9335 142.273L 18.9335 141.184L 18.0312 141.176z"/>
<path style="stroke:none; fill-rule:evenodd; fill:#000000" d="M 26.9335 144.5C 26.9335 143.582 26.8671 143.031 26.6952 142.586C 26.3085 141.602 25.3945 141.004 24.2773 141.004C 22.6132 141.004 21.539 142.297 21.539 144.285C 21.539 146.273 22.5741 147.5 24.2499 147.5C 25.6132 147.5 26.5585 146.707 26.8007 145.375L 25.8476 145.375C 25.5859 146.18 25.0546 146.598 24.2929 146.598C 23.6913 146.598 23.1796 146.32 22.8632 145.805C 22.6366 145.457 22.5585 145.105 22.5468 144.5L 26.9335 144.5zM 22.5116 143.734C 22.5898 142.621 23.2695 141.898 24.2304 141.898C 25.1679 141.898 25.8945 142.676 25.8945 143.664C 25.8945 143.684 25.8945 143.707 25.8827 143.73L 22.5116 143.734z"/>
<path style="stroke:none; fill-rule:evenodd; fill:#000000" d="M 33.1327 138.801L 32.1327 138.801L 32.1327 141.941C 31.7343 141.328 31.0976 141 30.2968 141C 28.7499 141 27.7343 142.258 27.7343 144.191C 27.7343 146.238 28.746 147.496 30.3866 147.496C 31.2226 147.496 31.8046 147.176 32.3281 146.406L 32.3281 147.195L 33.1249 147.195L 33.1327 138.801zM 30.4609 141.902C 31.4804 141.902 32.1288 142.828 32.1288 144.273C 32.1288 145.672 31.4726 146.598 30.4726 146.598C 29.4296 146.598 28.7343 145.66 28.7343 144.25C 28.7343 142.84 29.4257 141.902 30.4609 141.902z"/>
<path style="stroke:none; fill-rule:evenodd; fill:#000000" d="M 101.16 142.863C 101.148 141.676 100.363 141.004 98.9613 141.004C 97.5503 141.004 96.6363 141.73 96.6363 142.852C 96.6363 143.797 97.1253 144.246 98.5743 144.594L 99.4843 144.812C 100.16 144.973 100.429 145.215 100.429 145.652C 100.429 146.215 99.8633 146.598 99.0193 146.598C 98.5003 146.598 98.0623 146.449 97.8203 146.191C 97.6723 146.02 97.6013 145.844 97.5433 145.41L 96.5273 145.41C 96.5703 146.82 97.3553 147.5 98.9373 147.5C 100.461 147.5 101.429 146.75 101.429 145.586C 101.429 144.688 100.918 144.191 99.7033 143.902L 98.7693 143.684C 97.9763 143.5 97.6363 143.246 97.6363 142.82C 97.6363 142.27 98.1323 141.91 98.9223 141.91C 99.6953 141.91 100.113 142.238 100.136 142.867L 101.16 142.863z"/>
<path style="stroke:none; fill-rule:evenodd; fill:#000000" d="M 107.531 149.703L 107.531 141.207L 106.734 141.207L 106.734 141.992C 106.281 141.355 105.593 141.008 104.793 141.008C 103.187 141.008 102.14 142.312 102.14 144.324C 102.14 146.289 103.117 147.504 104.691 147.504C 105.519 147.504 106.089 147.195 106.535 146.516L 106.535 149.703L 107.531 149.703zM 104.886 141.91C 105.906 141.91 106.562 142.828 106.562 144.273C 106.562 145.648 105.898 146.566 104.886 146.566C 103.832 146.566 103.132 145.637 103.132 144.238C 103.132 142.852 103.832 141.91 104.886 141.91z"/>
<path style="stroke:none; fill-rule:evenodd; fill:#000000" d="M 109.031 141.176L 109.031 147.199L 110.031 147.199L 110.031 144.066C 110.031 143.203 110.242 142.641 110.691 142.305C 110.98 142.086 111.261 142.02 111.914 142.008L 111.914 141.043C 111.757 141.023 111.679 141.012 111.554 141.012C 110.945 141.012 110.48 141.379 109.933 142.273L 109.933 141.184L 109.031 141.176z"/>
<path style="stroke:#3e3e3e; stroke-width:1.9133; fill:none" d="M 140.125 128.449L 65.5077 63.398"/>
<path style="stroke:#3e3e3e; stroke-width:1.9133; fill:none" d="M 70.0155 69.867L 65.5038 63.398L 72.5273 66.984"/>
<path style="stroke:#3e3e3e; stroke-width:1.9133; fill:none" d="M 103.769 128.449L 101.859 63.398"/>
<path style="stroke:#3e3e3e; stroke-width:1.9133; fill:none" d="M 100.168 71.105L 101.855 63.402L 103.992 70.996"/>
<path style="stroke:#3e3e3e; stroke-width:1.9133; fill:none" d="M 61.6757 128.449L 65.4999 63.398"/>
<path style="stroke:#3e3e3e; stroke-width:1.9133; fill:none" d="M 63.1445 70.926L 65.4999 63.398L 66.9609 71.148"/>
<path style="stroke:#3e3e3e; stroke-width:1.9133; fill:none" d="M 25.3241 128.449L 101.855 63.398"/>
<path style="stroke:#3e3e3e; stroke-width:1.9133; fill:none" d="M 94.7853 66.898L 101.851 63.402L 97.2613 69.812"/>
<path style="stroke:#3e3e3e; stroke-width:1.9133; fill:none" d="M 140.175 128.426L 101.898 63.352"/>
<path style="stroke:#3e3e3e; stroke-width:1.9133; fill:none" d="M 104.129 70.918L 101.898 63.355L 107.425 68.98"/>
<path style="stroke:#3e3e3e; stroke-width:1.9133; fill:none" d="M 103.812 128.426L 65.5351 63.352"/>
<path style="stroke:#3e3e3e; stroke-width:1.9133; fill:none" d="M 67.7616 70.918L 65.5312 63.355L 71.0585 68.98"/>
<path style="stroke:#000000; stroke-width:1.9133; fill:none" d="M 61.7031 128.426L 101.894 63.352"/>
<path style="stroke:#000000; stroke-width:1.9133; fill:none" d="M 96.2503 68.859L 101.898 63.355L 99.5073 70.871"/>
<path style="stroke:#000000; stroke-width:1.9133; fill:none" d="M 25.3398 128.426L 65.5312 63.352"/>
<path style="stroke:#000000; stroke-width:1.9133; fill:none" d="M 59.8827 68.859L 65.5312 63.355L 63.1405 70.871"/>
<path style="stroke:none; fill-rule:evenodd; fill:#000000" d="M 138.734 141.203L 137.836 141.203L 137.836 139.535L 136.836 139.535L 136.836 141.203L 135.937 141.203L 135.937 142L 136.836 142L 136.836 146.547C 136.836 147.152 137.238 147.496 137.968 147.496C 138.191 147.496 138.418 147.473 138.73 147.414L 138.73 146.578C 138.617 146.668 138.48 146.695 138.312 146.695C 137.937 146.695 137.832 146.582 137.832 146.152L 137.832 142L 138.73 142L 138.734 141.203z"/>
<path style="stroke:none; fill-rule:evenodd; fill:#000000" d="M 139.832 141.176L 139.832 147.199L 140.832 147.199L 140.832 144.066C 140.832 143.203 141.043 142.641 141.492 142.305C 141.781 142.086 142.062 142.02 142.714 142.008L 142.714 141.043C 142.558 141.023 142.48 141.012 142.355 141.012C 141.746 141.012 141.281 141.379 140.734 142.273L 140.734 141.184L 139.832 141.176z"/>
<path style="stroke:none; fill-rule:evenodd; fill:#000000" d="M 144.531 141.203L 143.531 141.203L 143.531 147.203L 144.531 147.203L 144.531 141.203zM 144.531 138.801L 143.531 138.801L 143.531 140.035L 144.531 140.035L 144.531 138.801z"/>
</g>
</svg>