<?xml version="1.0"?>
<!-- Generated by SVGo and Plotinum VG -->
<svg width="491.25pt" height="405pt" viewBox="0 0 491.25 405"
	xmlns="http://www.w3.org/2000/svg"
	xmlns:xlink="http://www.w3.org/1999/xlink">
<g transform="scale(1, -1) translate(0, -405)">
<text x="192.6" y="-393.48" transform="scale(1, -1)"
	style="font-family:Helvetica;font-weight:normal;font-style:normal;font-size:12px">MapNav Epoch Plot</text>
<text x="251.55" y="-3.8789" transform="scale(1, -1)"
	style="font-family:Helvetica;font-weight:normal;font-style:normal;font-size:12px">Epoch</text>
<text x="43.103" y="-15.599" transform="scale(1, -1)"
	style="font-family:Helvetica;font-weight:normal;font-style:normal;font-size:10px">0</text>
<text x="258.64" y="-15.599" transform="scale(1, -1)"
	style="font-family:Helvetica;font-weight:normal;font-style:normal;font-size:10px">50</text>
<text x="474.18" y="-15.599" transform="scale(1, -1)"
	style="font-family:Helvetica;font-weight:normal;font-style:normal;font-size:10px">100</text>
<path d="M45.884,25.198L45.884,33.198" style="fill:none;stroke:#000000;stroke-width:0.5" />
<path d="M264.2,25.198L264.2,33.198" style="fill:none;stroke:#000000;stroke-width:0.5" />
<path d="M482.52,25.198L482.52,33.198" style="fill:none;stroke:#000000;stroke-width:0.5" />
<path d="M89.547,29.198L89.547,33.198" style="fill:none;stroke:#000000;stroke-width:0.5" />
<path d="M133.21,29.198L133.21,33.198" style="fill:none;stroke:#000000;stroke-width:0.5" />
<path d="M176.87,29.198L176.87,33.198" style="fill:none;stroke:#000000;stroke-width:0.5" />
<path d="M220.54,29.198L220.54,33.198" style="fill:none;stroke:#000000;stroke-width:0.5" />
<path d="M307.86,29.198L307.86,33.198" style="fill:none;stroke:#000000;stroke-width:0.5" />
<path d="M351.53,29.198L351.53,33.198" style="fill:none;stroke:#000000;stroke-width:0.5" />
<path d="M395.19,29.198L395.19,33.198" style="fill:none;stroke:#000000;stroke-width:0.5" />
<path d="M438.85,29.198L438.85,33.198" style="fill:none;stroke:#000000;stroke-width:0.5" />
<path d="M45.884,33.198L491.25,33.198" style="fill:none;stroke:#000000;stroke-width:0.5" />
<g transform="rotate(90)">
<text x="175.78" y="11.52" transform="scale(1, -1)"
	style="font-family:Helvetica;font-weight:normal;font-style:normal;font-size:12px">V2dP CosDiff</text>
</g>
<text x="15.398" y="-33.749" transform="scale(1, -1)"
	style="font-family:Helvetica;font-weight:normal;font-style:normal;font-size:10px">0.0</text>
<text x="15.398" y="-206.88" transform="scale(1, -1)"
	style="font-family:Helvetica;font-weight:normal;font-style:normal;font-size:10px">0.5</text>
<text x="15.398" y="-380" transform="scale(1, -1)"
	style="font-family:Helvetica;font-weight:normal;font-style:normal;font-size:10px">1.0</text>
<path d="M32.078,38.448L40.078,38.448" style="fill:none;stroke:#000000;stroke-width:0.5" />
<path d="M32.078,211.57L40.078,211.57" style="fill:none;stroke:#000000;stroke-width:0.5" />
<path d="M32.078,384.7L40.078,384.7" style="fill:none;stroke:#000000;stroke-width:0.5" />
<path d="M36.078,73.074L40.078,73.074" style="fill:none;stroke:#000000;stroke-width:0.5" />
<path d="M36.078,107.7L40.078,107.7" style="fill:none;stroke:#000000;stroke-width:0.5" />
<path d="M36.078,142.32L40.078,142.32" style="fill:none;stroke:#000000;stroke-width:0.5" />
<path d="M36.078,176.95L40.078,176.95" style="fill:none;stroke:#000000;stroke-width:0.5" />
<path d="M36.078,246.2L40.078,246.2" style="fill:none;stroke:#000000;stroke-width:0.5" />
<path d="M36.078,280.83L40.078,280.83" style="fill:none;stroke:#000000;stroke-width:0.5" />
<path d="M36.078,315.45L40.078,315.45" style="fill:none;stroke:#000000;stroke-width:0.5" />
<path d="M36.078,350.08L40.078,350.08" style="fill:none;stroke:#000000;stroke-width:0.5" />
<path d="M40.078,38.448L40.078,384.7" style="fill:none;stroke:#000000;stroke-width:0.5" />
<path d="M45.884,187.72L50.25,237.24L54.616,280.6L58.983,308.07L63.349,320.86L67.715,315.05L72.082,338.51L76.448,316.24L80.814,314.67L85.181,331.76L89.547,337.59L93.913,337.14L98.28,326.51L102.65,338.55L107.01,318.02L111.38,349.06L115.75,330.34L120.11,326.29L124.48,332.18L128.84,345.47L133.21,343.3L137.58,350.34L141.94,349.85L146.31,342.54L150.68,349.8L155.04,345.03L159.41,335.4L163.77,338.8L168.14,326.29L172.51,329.34L176.87,339.77L181.24,337.89L185.61,348.9L189.97,335.88L194.34,341.6L198.71,340.36L203.07,341.4L207.44,341.02L211.8,311.99L216.17,353.58L220.54,353.2L224.9,339.25L229.27,345.05L233.64,349.43L238,350.97L242.37,343.33L246.74,348.45L251.1,350.49L255.47,338.46L259.83,334.6L264.2,347.31L268.57,339.17L272.93,343.18L277.3,341.94L281.67,347.34L286.03,348.25L290.4,344.7L294.76,338.37L299.13,323.93L303.5,342.85L307.86,316.62L312.23,349.54L316.6,353.01L320.96,346.8L325.33,346.01L329.7,349.18L334.06,358.31L338.43,354.14L342.79,349.15L347.16,357.73L351.53,325.22L355.89,354.5L360.26,346.63L364.63,321.33L368.99,331.82L373.36,305.74L377.73,316.38L382.09,338.88L386.46,348.83L390.82,333.67L395.19,353.46L399.56,337.42L403.92,347.84L408.29,347.9L412.66,352.72L417.02,356.44L421.39,351.74L425.75,354.59L430.12,356.93L434.49,316.31L438.85,355.64L443.22,347.18L447.59,361.12L451.95,348.82L456.32,349.36L460.69,351.19L465.05,348.08L469.42,357.78L473.78,353.44L478.15,347.52L482.52,302.23L486.88,340.4L491.25,344.05" style="fill:none;stroke:#A52A2A" />
<path d="M45.884,259.63L50.25,300.23L54.616,305.43L58.983,320.36L63.349,323.91L67.715,323.24L72.082,313.61L76.448,314.38L80.814,310.23L85.181,318.83L89.547,328.96L93.913,321.97L98.28,323.31L102.65,326.83L107.01,332.58L111.38,336.1L115.75,318.32L120.11,326.73L124.48,327.33L128.84,334.08L133.21,339.61L137.58,344.61L141.94,336.64L146.31,334.72L150.68,346.89L155.04,338.33L159.41,327.59L163.77,334.05L168.14,329.21L172.51,331.12L176.87,321.32L181.24,324.36L185.61,337.21L189.97,322.9L194.34,320.74L198.71,332.16L203.07,330.93L207.44,336.02L211.8,332.04L216.17,336.81L220.54,342.73L224.9,335.62L229.27,344.43L233.64,338.06L238,322.89L242.37,333.5L246.74,344.02L251.1,334.51L255.47,327.79L259.83,329.84L264.2,335.38L268.57,340.75L272.93,325.15L277.3,338.7L281.67,334.54L286.03,327.21L290.4,331.18L294.76,337.48L299.13,335.07L303.5,342.71L307.86,338.38L312.23,329.9L316.6,341.76L320.96,320.52L325.33,336.75L329.7,337.71L334.06,338.07L338.43,334.27L342.79,347.84L347.16,344.25L351.53,333.02L355.89,343.88L360.26,337.65L364.63,341.56L368.99,339.53L373.36,340.49L377.73,351.97L382.09,345.15L386.46,342.81L390.82,331.55L395.19,339.14L399.56,323.59L403.92,345.09L408.29,336.85L412.66,337.82L417.02,343.13L421.39,327.57L425.75,292.31L430.12,340.14L434.49,321.43L438.85,326.03L443.22,335.29L447.59,344.11L451.95,333.11L456.32,330.44L460.69,330.02L465.05,337.22L469.42,343.24L473.78,337.74L478.15,336.14L482.52,342.24L486.88,331.14L491.25,348.22" style="fill:none;stroke:#D2B48C" />
<path d="M471.25,383.72L491.25,383.72" style="fill:none;stroke:#A52A2A" />
<text x="396.32" y="-378.08" transform="scale(1, -1)"
	style="font-family:Helvetica;font-weight:normal;font-style:normal;font-size:12px">V2dP CosDiff</text>
<path d="M471.25,371.96L491.25,371.96" style="fill:none;stroke:#D2B48C" />
<text x="401" y="-366.32" transform="scale(1, -1)"
	style="font-family:Helvetica;font-weight:normal;font-style:normal;font-size:12px">M1P CosDiff</text>
</g>
</svg>
