<?xml version="1.0" encoding="utf-8"?>
<!-- Generator: Adobe Illustrator 13.0.0, SVG Export Plug-In . SVG Version: 6.00 Build 14948)  -->
<!DOCTYPE svg PUBLIC "-//W3C//DTD SVG 1.1//EN" "http://www.w3.org/Graphics/SVG/1.1/DTD/svg11.dtd">
<svg version="1.1"
	 id="svg2" xmlns:inkscape="http://www.inkscape.org/namespaces/inkscape" xmlns:rdf="http://www.w3.org/1999/02/22-rdf-syntax-ns#" inkscape:version="0.47pre4 r22446" xmlns:svg="http://www.w3.org/2000/svg" inkscape:export-ydpi="300" inkscape:export-xdpi="300" xmlns:dc="http://purl.org/dc/elements/1.1/" xmlns:cc="http://creativecommons.org/ns#" sodipodi:docname="fig_invar_trans.svg" xmlns:sodipodi="http://sodipodi.sourceforge.net/DTD/sodipodi-0.dtd" inkscape:export-filename="/Users/oreilly/svn_docs/figs/fig_invar_trans.png" inkscape:output_extension="org.inkscape.output.svg.inkscape"
	 xmlns="http://www.w3.org/2000/svg" xmlns:xlink="http://www.w3.org/1999/xlink" x="0px" y="0px" width="288.016px"
	 height="303.328px" viewBox="0 0 288.016 303.328" enable-background="new 0 0 288.016 303.328" xml:space="preserve">
<sodipodi:namedview  id="namedview148" inkscape:current-layer="svg2" inkscape:window-y="0" inkscape:window-x="84" inkscape:cy="152.81178" inkscape:cx="105.09449" inkscape:zoom="2.2006244" showgrid="false" inkscape:window-height="1105" inkscape:window-width="1665" inkscape:pageshadow="2" inkscape:pageopacity="0" guidetolerance="10" gridtolerance="10" pagecolor="#ffffff" bordercolor="#666666" borderopacity="1" objecttolerance="10" inkscape:window-maximized="0">
	</sodipodi:namedview>
<defs>
	
	
		<inkscape:perspective  id="perspective152" inkscape:persp3d-origin="144.00751 : 101.109 : 1" inkscape:vp_z="288.01501 : 151.6635 : 1" inkscape:vp_y="0 : 1000 : 0" inkscape:vp_x="0 : 151.6635 : 1" sodipodi:type="inkscape:persp3d">
		</inkscape:perspective>
</defs>
<path id="path14" fill="none" stroke="#000000" stroke-width="1.914" d="M75.105,228.222h202.879l-65.074,65.074H10.031
	L75.105,228.222z"/>
<path id="path16" fill="none" stroke="#000000" stroke-width="1.914" d="M75.105,155.492h202.879l-65.074,65.074H10.031
	L75.105,155.492z"/>
<path id="path18" fill="none" stroke="#000000" stroke-width="1.914" d="M97.23,273.679c0-8.203-13.548-14.86-30.258-14.86
	c-16.711,0-30.258,6.653-30.258,14.86c0,8.203,13.547,14.859,30.258,14.859C83.682,288.539,97.23,281.886,97.23,273.679"/>
<path id="path20" fill="none" stroke="#000000" stroke-width="1.914" d="M86.59,277.983l34.449-34.448"/>
<path id="path22" fill="none" stroke="#000000" stroke-width="1.914" d="M121.043,243.535H75.109"/>
<path id="path24" fill="none" stroke="#000000" stroke-width="1.914" d="M86.59,277.983H44.484"/>
<path id="path26" fill="none" stroke="#000000" stroke-width="1.914" d="M86.59,274.16l34.449-34.449"/>
<path id="path28" fill="none" stroke="#000000" stroke-width="1.914" d="M121.043,239.707H75.109"/>
<path id="path30" fill="none" stroke="#000000" stroke-width="1.914" d="M86.59,274.16H44.484"/>
<path id="path32" fill="none" stroke="#000000" stroke-width="1.914" d="M86.59,270.328l34.449-34.449"/>
<path id="path34" fill="none" stroke="#000000" stroke-width="1.914" d="M121.043,235.878H75.109"/>
<path id="path36" fill="none" stroke="#000000" stroke-width="1.914" d="M86.59,270.328H44.484"/>
<path id="path38" fill="none" stroke="#000000" stroke-width="1.914" d="M127.855,243.058c0-8.203-13.547-14.859-30.259-14.859
	c-16.71,0-30.257,6.652-30.257,14.859c0,8.203,13.547,14.859,30.257,14.859C114.308,257.917,127.855,251.265,127.855,243.058"/>
<path id="path40" fill="none" stroke="#000000" stroke-width="1.914" d="M75.105,82.761h202.879l-65.074,65.074H10.031
	L75.105,82.761z"/>
<path id="path42" fill="none" stroke="#000000" stroke-width="1.914" d="M123.922,192.335c0-11.414-16.926-20.668-37.809-20.668
	s-37.809,9.254-37.809,20.668s16.926,20.668,37.809,20.668S123.922,203.75,123.922,192.335"/>
<path id="path44" fill="none" stroke="#000000" stroke-width="1.914" d="M75.105,10.031h202.879L212.91,75.105H10.031L75.105,10.031
	z"/>
<path id="path46" fill="none" stroke="#000000" stroke-width="1.914" d="M193.769,113.386c0-16.91-30.848-30.621-68.898-30.621
	s-68.898,13.711-68.898,30.621s30.848,30.621,68.898,30.621S193.769,130.296,193.769,113.386"/>
<path id="path48" fill="none" stroke="#000000" stroke-width="1.914" d="M219.726,273.679c0-8.203-13.547-14.86-30.259-14.86
	c-16.71,0-30.257,6.653-30.257,14.86c0,8.203,13.547,14.859,30.257,14.859C206.179,288.539,219.726,281.886,219.726,273.679"/>
<path id="path50" fill="none" stroke="#000000" stroke-width="1.914" d="M211.965,192.335c0-11.414-16.926-20.668-37.809-20.668
	s-37.809,9.254-37.809,20.668s16.926,20.668,37.809,20.668S211.965,203.75,211.965,192.335"/>
<path id="path52" fill="none" stroke="#000000" stroke-width="1.5" d="M113.386,184.203l-3.824,3.824"/>
<path id="path54" fill="none" stroke="#000000" stroke-width="1.5" d="M107.644,184.203h5.738"/>
<path id="path56" sodipodi:nodetypes="cc" fill="none" stroke="#000000" stroke-width="1.5" d="M72.549,207.649l4.467-4.306"/>
<path id="path58" fill="none" stroke="#000000" stroke-width="1.5" d="M67.449,207.167h5.738"/>
<path id="path60" sodipodi:nodetypes="cc" fill="none" stroke="#000000" stroke-width="1.5" d="M175.904,203.66l4.467-4.145"/>
<path id="path62" fill="none" stroke="#000000" stroke-width="1.5" d="M170.804,203.343h5.738"/>
<g id="g3815">
	<path id="path64" fill="none" stroke="#000000" stroke-width="1.5" d="M82.761,119.128H88.5"/>
	<path id="path66" sodipodi:nodetypes="cc" fill="none" stroke="#000000" stroke-width="1.5" d="M88.182,119.289l4.306-4.145"/>
	<path id="path68" fill="none" stroke="#000000" stroke-width="1.5" d="M92.332,115.3h-5.739"/>
</g>
<path id="path76" fill="none" stroke="#000000" stroke-width="1.914" d="M207.168,277.983l34.449-34.448"/>
<path id="path78" fill="none" stroke="#000000" stroke-width="1.914" d="M241.621,243.535h-45.934"/>
<path id="path80" fill="none" stroke="#000000" stroke-width="1.914" d="M207.168,277.983h-42.105"/>
<path id="path82" fill="none" stroke="#000000" stroke-width="1.914" d="M207.168,274.16l34.449-34.449"/>
<path id="path84" fill="none" stroke="#000000" stroke-width="1.914" d="M241.621,239.707h-45.934"/>
<path id="path86" fill="none" stroke="#000000" stroke-width="1.914" d="M207.168,274.16h-42.105"/>
<path id="path88" fill="none" stroke="#000000" stroke-width="1.914" d="M207.168,270.328l34.449-34.449"/>
<path id="path90" fill="none" stroke="#000000" stroke-width="1.914" d="M241.621,235.878h-45.934"/>
<path id="path92" fill="none" stroke="#000000" stroke-width="1.914" d="M207.168,270.328h-42.105"/>
<path id="path94" fill="none" stroke="#000000" stroke-width="1.914" d="M248.433,243.058c0-8.203-13.547-14.859-30.258-14.859
	s-30.258,6.652-30.258,14.859c0,8.203,13.547,14.859,30.258,14.859C234.885,257.917,248.433,251.265,248.433,243.058"/>
<path id="path96" fill="none" stroke="#000000" stroke-width="1.914" d="M202.168,184.203c0-2.844-4.613-5.152-10.309-5.152
	c-5.691,0-10.31,2.305-10.31,5.152c0,2.844,4.614,5.152,10.31,5.152C197.55,189.355,202.168,187.05,202.168,184.203"/>
<path id="path98" fill="none" stroke="#000000" stroke-width="1.5" d="M195.683,182.289l-3.824,3.824"/>
<path id="path100" fill="none" stroke="#000000" stroke-width="1.5" d="M189.941,182.289h5.738"/>
<path id="path102" fill="none" stroke="#000000" stroke-width="1.5" d="M166.976,119.128h5.738"/>
<path id="path104" sodipodi:nodetypes="cc" fill="none" stroke="#000000" stroke-width="1.5" d="M172.236,119.449l4.628-4.467"/>
<path id="path106" fill="none" stroke="#000000" stroke-width="1.5" d="M176.547,115.3h-5.738"/>
<path id="path108" fill="none" stroke="#000000" stroke-width="1.914" d="M187.957,239.746l-5.739-53.57"/>
<path id="path110" fill="none" stroke="#000000" stroke-width="1.914" d="M201.351,184.257l45.918,53.57"/>
<path id="path112" fill="none" stroke="#000000" stroke-width="1.914" d="M184.953,201.417c0-2.844-4.613-5.152-10.309-5.152
	c-5.691,0-10.309,2.305-10.309,5.152c0,2.844,4.613,5.152,10.309,5.152C180.336,206.57,184.953,204.265,184.953,201.417"/>
<path id="path114" fill="none" stroke="#000000" stroke-width="1.914" d="M159.258,270.355l5.738-68.879"/>
<path id="path116" fill="none" stroke="#000000" stroke-width="1.914" d="M184.133,201.48l32.523,65.051"/>
<path id="path118" fill="none" stroke="#000000" stroke-width="1.914" d="M81.636,205.242c0-2.844-4.613-5.152-10.309-5.152
	c-5.691,0-10.309,2.305-10.309,5.152c0,2.844,4.613,5.152,10.309,5.152C77.019,210.394,81.636,208.089,81.636,205.242"/>
<path id="path120" fill="none" stroke="#000000" stroke-width="1.914" d="M36.808,270.355l24.871-66.965"/>
<path id="path122" fill="none" stroke="#000000" stroke-width="1.914" d="M80.812,205.304l17.219,68.879"/>
<path id="path124" fill="none" stroke="#000000" stroke-width="1.914" d="M119.906,186.109c0-2.844-4.613-5.152-10.309-5.152
	c-5.691,0-10.309,2.305-10.309,5.152c0,2.844,4.613,5.152,10.309,5.152C115.289,191.261,119.906,188.957,119.906,186.109"/>
<path id="path126" fill="none" stroke="#000000" stroke-width="1.914" d="M96.949,117.226c0-2.844-4.613-5.152-10.31-5.152
	c-5.69,0-10.308,2.304-10.308,5.152c0,2.844,4.613,5.152,10.308,5.152C92.332,122.378,96.949,120.074,96.949,117.226"/>
<path id="path128" fill="none" stroke="#000000" stroke-width="1.914" d="M67.422,239.746l32.523-55.484"/>
<path id="path130" fill="none" stroke="#000000" stroke-width="1.914" d="M128.644,243.57l-9.562-59.312"/>
<path id="path132" fill="none" stroke="#000000" stroke-width="1.914" d="M48.289,190l28.699-74.618"/>
<path id="path134" fill="none" stroke="#000000" stroke-width="1.914" d="M96.121,117.292l28.699,76.532"/>
<path id="path136" fill="none" stroke="#000000" stroke-width="1.914" d="M181.136,117.222c0-2.844-4.613-5.152-10.309-5.152
	c-5.691,0-10.309,2.304-10.309,5.152c0,2.844,4.613,5.152,10.309,5.152C176.519,122.374,181.136,120.07,181.136,117.222"/>
<path id="path138" fill="none" stroke="#000000" stroke-width="1.914" d="M136.3,190l24.872-74.618"/>
<path id="path140" fill="none" stroke="#000000" stroke-width="1.914" d="M180.304,115.378l28.699,70.79"/>
<path id="path142" fill="none" stroke="#000000" stroke-width="1.914" d="M119.914,44.515c0-2.844-4.614-5.152-10.309-5.152
	c-5.691,0-10.309,2.304-10.309,5.152c0,2.844,4.613,5.152,10.309,5.152C115.297,49.667,119.914,47.363,119.914,44.515"/>
<path id="path144" fill="none" stroke="#000000" stroke-width="1.914" d="M55.941,109.64l44.004-65.051"/>
<path id="path146" fill="none" stroke="#000000" stroke-width="1.914" d="M119.082,44.585l59.309,49.742"/>
<g id="g3820" transform="translate(22.331808,-72.618539)">
	<path id="path3822" fill="none" stroke="#000000" stroke-width="1.5" d="M82.761,119.128H88.5"/>
	<path id="path3824" sodipodi:nodetypes="cc" fill="none" stroke="#000000" stroke-width="1.5" d="M88.183,119.288l4.306-4.145"/>
	<path id="path3826" fill="none" stroke="#000000" stroke-width="1.5" d="M92.332,115.3h-5.739"/>
</g>
<text transform="matrix(1 0 0 1 250.3826 272.8804)" font-family="'ArialMT'" font-size="12">V1</text>
<text transform="matrix(1 0 0 1 250.3826 197.4478)" font-family="'ArialMT'" font-size="12">V2</text>
<text transform="matrix(1 0 0 1 250.3826 127.4673)" font-family="'ArialMT'" font-size="12">V4</text>
<text transform="matrix(1 0 0 1 250.3826 51.5796)" font-family="'ArialMT'" font-size="12">IT</text>
<path fill="none" d=""/>
<path id="path4012" sodipodi:nodetypes="cc" stroke="#000000" d="M18.631,220.169"/>
<path fill="none" d=""/>
<path fill="none" d=""/>
<path id="path5830" sodipodi:nodetypes="cc" stroke="#000000" d="M20.903,292.875"/>
</svg>
