<?xml version="1.0" encoding="UTF-8" standalone="no"?>
<svg
  xmlns="http://www.w3.org/2000/svg" version="1.1"
  width="400px"
  height="400px"
  viewBox="0 0 1000.0 1000.0">
<path stroke="#000000" stroke-width="2" fill="none"
  d="M 148.4,892.4 L 148.4,144.9 L 895.9,144.9 L 895.9,892.4 L 148.4,892.4 "
 />

<g>

<text x="925.8" y="956.0" font-family="Arial" font-size="37.9" fill="#000000" text-anchor="start">
x 1000
</text>

<text x="522.1" y="993.4" font-family="Arial" font-size="37.9" fill="#000000" text-anchor="middle">
epoch
</text>

<text x="148.4" y="956.0" font-family="Arial" font-size="37.9" fill="#000000" text-anchor="middle">
0
</text>

<text x="223.1" y="956.0" font-family="Arial" font-size="37.9" fill="#000000" text-anchor="middle">
0.1
</text>

<text x="297.9" y="956.0" font-family="Arial" font-size="37.9" fill="#000000" text-anchor="middle">
0.2
</text>

<text x="372.6" y="956.0" font-family="Arial" font-size="37.9" fill="#000000" text-anchor="middle">
0.3
</text>

<text x="447.4" y="956.0" font-family="Arial" font-size="37.9" fill="#000000" text-anchor="middle">
0.4
</text>

<text x="522.1" y="956.0" font-family="Arial" font-size="37.9" fill="#000000" text-anchor="middle">
0.5
</text>

<text x="596.9" y="956.0" font-family="Arial" font-size="37.9" fill="#000000" text-anchor="middle">
0.6
</text>

<text x="671.7" y="956.0" font-family="Arial" font-size="37.9" fill="#000000" text-anchor="middle">
0.7
</text>

<text x="746.4" y="956.0" font-family="Arial" font-size="37.9" fill="#000000" text-anchor="middle">
0.8
</text>

<text x="821.2" y="956.0" font-family="Arial" font-size="37.9" fill="#000000" text-anchor="middle">
0.9
</text>

<text x="895.9" y="956.0" font-family="Arial" font-size="37.9" fill="#000000" text-anchor="middle">
1
</text>
<path stroke="#000000" stroke-width="2" fill="none"
  d="M 148.4,892.4 L 895.9,892.4 M 148.4,911.1 L 148.4,873.8 M 223.1,911.1 L 223.1,873.8 M 297.9,911.1 L 297.9,873.8 M 372.6,911.1 L 372.6,873.8 M 447.4,911.1 L 447.4,873.8 M 522.1,911.1 L 522.1,873.8 M 596.9,911.1 L 596.9,873.8 M 671.7,911.1 L 671.7,873.8 M 746.4,911.1 L 746.4,873.8 M 821.2,911.1 L 821.2,873.8 M 895.9,911.1 L 895.9,873.8 "
 />
<path stroke="#000000" stroke-width="2" fill="none"
  d="M 148.4,144.9 L 895.9,144.9 M 148.4,163.6 L 148.4,126.2 M 223.1,163.6 L 223.1,126.2 M 297.9,163.6 L 297.9,126.2 M 372.6,163.6 L 372.6,126.2 M 447.4,163.6 L 447.4,126.2 M 522.1,163.6 L 522.1,126.2 M 596.9,163.6 L 596.9,126.2 M 671.7,163.6 L 671.7,126.2 M 746.4,163.6 L 746.4,126.2 M 821.2,163.6 L 821.2,126.2 M 895.9,163.6 L 895.9,126.2 "
 />

<text x="54.9" y="518.7" font-family="Arial" font-size="37.9" fill="#000000" writing-mode="tb" text-anchor="middle">
Ob JFeat TE lay max err 2
</text>

<text x="122.2" y="907.4" font-family="Arial" font-size="37.9" fill="#000000" text-anchor="end">
0
</text>

<text x="122.2" y="832.6" font-family="Arial" font-size="37.9" fill="#000000" text-anchor="end">
0.1
</text>

<text x="122.2" y="757.9" font-family="Arial" font-size="37.9" fill="#000000" text-anchor="end">
0.2
</text>

<text x="122.2" y="683.1" font-family="Arial" font-size="37.9" fill="#000000" text-anchor="end">
0.3
</text>

<text x="122.2" y="608.4" font-family="Arial" font-size="37.9" fill="#000000" text-anchor="end">
0.4
</text>

<text x="122.2" y="533.6" font-family="Arial" font-size="37.9" fill="#000000" text-anchor="end">
0.5
</text>

<text x="122.2" y="458.9" font-family="Arial" font-size="37.9" fill="#000000" text-anchor="end">
0.6
</text>

<text x="122.2" y="384.1" font-family="Arial" font-size="37.9" fill="#000000" text-anchor="end">
0.7
</text>

<text x="122.2" y="309.3" font-family="Arial" font-size="37.9" fill="#000000" text-anchor="end">
0.8
</text>

<text x="122.2" y="234.6" font-family="Arial" font-size="37.9" fill="#000000" text-anchor="end">
0.9
</text>

<text x="122.2" y="159.8" font-family="Arial" font-size="37.9" fill="#000000" text-anchor="end">
1
</text>
<path stroke="#000000" stroke-width="2" fill="none"
  d="M 148.4,892.4 L 148.4,144.9 M 129.7,892.4 L 167.0,892.4 M 129.7,817.7 L 167.0,817.7 M 129.7,742.9 L 167.0,742.9 M 129.7,668.2 L 167.0,668.2 M 129.7,593.4 L 167.0,593.4 M 129.7,518.7 L 167.0,518.7 M 129.7,443.9 L 167.0,443.9 M 129.7,369.1 L 167.0,369.1 M 129.7,294.4 L 167.0,294.4 M 129.7,219.6 L 167.0,219.6 M 129.7,144.9 L 167.0,144.9 "
 />

<text x="989.4" y="518.7" font-family="Arial" font-size="37.9" fill="#000080" writing-mode="tb" text-anchor="middle">
V1p cos diff 3
</text>

<text x="922.1" y="907.4" font-family="Arial" font-size="37.9" fill="#000080" text-anchor="start">
0
</text>

<text x="922.1" y="832.6" font-family="Arial" font-size="37.9" fill="#000080" text-anchor="start">
0.1
</text>

<text x="922.1" y="757.9" font-family="Arial" font-size="37.9" fill="#000080" text-anchor="start">
0.2
</text>

<text x="922.1" y="683.1" font-family="Arial" font-size="37.9" fill="#000080" text-anchor="start">
0.3
</text>

<text x="922.1" y="608.4" font-family="Arial" font-size="37.9" fill="#000080" text-anchor="start">
0.4
</text>

<text x="922.1" y="533.6" font-family="Arial" font-size="37.9" fill="#000080" text-anchor="start">
0.5
</text>

<text x="922.1" y="458.9" font-family="Arial" font-size="37.9" fill="#000080" text-anchor="start">
0.6
</text>

<text x="922.1" y="384.1" font-family="Arial" font-size="37.9" fill="#000080" text-anchor="start">
0.7
</text>

<text x="922.1" y="309.3" font-family="Arial" font-size="37.9" fill="#000080" text-anchor="start">
0.8
</text>

<text x="922.1" y="234.6" font-family="Arial" font-size="37.9" fill="#000080" text-anchor="start">
0.9
</text>

<text x="922.1" y="159.8" font-family="Arial" font-size="37.9" fill="#000080" text-anchor="start">
1
</text>
<path stroke="#000080" stroke-width="2" fill="none"
  d="M 895.9,892.4 L 895.9,144.9 M 877.2,892.4 L 914.6,892.4 M 877.2,817.7 L 914.6,817.7 M 877.2,742.9 L 914.6,742.9 M 877.2,668.2 L 914.6,668.2 M 877.2,593.4 L 914.6,593.4 M 877.2,518.7 L 914.6,518.7 M 877.2,443.9 L 914.6,443.9 M 877.2,369.1 L 914.6,369.1 M 877.2,294.4 L 914.6,294.4 M 877.2,219.6 L 914.6,219.6 M 877.2,144.9 L 914.6,144.9 "
 />

</g>

<g transform="translate(0.0,-795.6)">

<g transform="translate(0.0,-0.0)">
<path stroke="#000000" stroke-width="1" fill="none"
  d="M 148.4,892.4 L 170.8,892.4 "
 />

<text x="178.3" y="899.9" font-family="Arial" font-size="15.2" fill="#000000" text-anchor="start">
Ob JFeat TE lay max err 2
</text>

</g>

<g transform="translate(0.0,16.7)">
<path stroke="#ff0000" stroke-width="1" fill="none"
  d="M 148.4,892.4 L 170.8,892.4 "
 />

<text x="178.3" y="899.9" font-family="Arial" font-size="15.2" fill="#ff0000" text-anchor="start">
Obj Feat V4 lay max err 2
</text>

</g>

<g transform="translate(227.3,-0.0)">
<path stroke="#0000ff" stroke-width="1" fill="none"
  d="M 148.4,892.4 L 170.8,892.4 "
 />

<text x="178.3" y="899.9" font-family="Arial" font-size="15.2" fill="#0000ff" text-anchor="start">
Obj Feat V3 lay max err 2
</text>

</g>

<g transform="translate(227.3,16.7)">
<path stroke="#000080" stroke-width="1" fill="none"
  d="M 148.4,892.4 L 170.8,892.4 "
 />

<text x="178.3" y="899.9" font-family="Arial" font-size="15.2" fill="#000080" text-anchor="start">
V1p cos diff 3
</text>

</g>

</g>

<g>
<path stroke="#000000" stroke-width="1" fill="none"
  d="M 149.1,235.2 
L 149.9,244.0 L 150.6,254.5 L 151.3,266.1 L 152.1,280.4 L 152.8,295.2 L 153.6,312.2 L 154.3,329.0 L 155.1,345.5 L 155.8,362.8 L 156.6,378.4 
L 157.3,392.2 L 158.1,403.0 L 158.8,411.6 L 159.6,418.8 L 160.3,425.0 L 161.1,429.6 L 161.8,433.0 L 162.6,437.3 L 163.3,442.1 L 164.1,447.2 
L 164.8,452.4 L 165.6,458.1 L 166.3,463.2 L 167.0,468.8 L 167.8,473.7 L 168.5,477.9 L 169.3,482.6 L 170.0,486.1 L 170.8,490.5 L 171.5,494.5 
L 172.3,498.9 L 173.0,503.6 L 173.8,509.8 L 174.5,516.7 L 175.3,523.0 L 176.0,529.2 L 176.8,535.3 L 177.5,540.1 L 178.3,544.9 L 179.0,549.3 
L 179.8,553.7 L 180.5,558.0 L 181.3,562.7 L 182.0,567.6 L 182.7,573.2 L 183.5,579.2 L 184.2,586.8 L 185.0,594.1 L 185.7,601.1 L 186.5,606.9 
L 187.2,612.3 L 188.0,616.5 L 188.7,619.5 L 189.5,621.7 L 190.2,622.6 L 191.0,622.7 L 191.7,622.2 L 192.5,621.7 L 193.2,622.3 L 194.0,622.7 
L 194.7,624.3 L 195.5,627.2 L 196.2,630.9 L 197.0,635.1 L 197.7,640.9 L 198.4,647.7 L 199.2,654.6 L 199.9,661.1 L 200.7,668.0 L 201.4,674.4 
L 202.2,680.5 L 202.9,686.2 L 203.7,690.9 L 204.4,694.7 L 205.2,696.9 L 205.9,698.5 L 206.7,699.7 L 207.4,700.0 L 208.2,700.4 L 208.9,700.1 
L 209.7,700.7 L 210.4,701.4 L 211.2,701.8 L 211.9,703.3 L 212.7,705.5 L 213.4,707.9 L 214.1,711.0 L 214.9,714.0 L 215.6,717.0 L 216.4,720.4 
L 217.1,723.1 L 217.9,726.4 L 218.6,727.8 L 219.4,730.2 L 220.1,731.8 L 220.9,732.5 L 221.6,733.1 L 222.4,733.3 L 223.1,733.4 L 223.9,734.4 
L 224.6,736.1 L 225.4,738.1 L 226.1,739.8 L 226.9,742.5 L 227.6,745.4 L 228.4,748.4 L 229.1,751.3 L 229.8,754.4 L 230.6,757.3 L 231.3,760.7 
L 232.1,762.7 L 232.8,765.4 L 233.6,768.5 L 234.3,771.1 L 235.1,773.7 L 235.8,776.3 L 236.6,778.0 L 237.3,778.6 L 238.1,779.0 L 238.8,779.4 
L 239.6,778.7 L 240.3,778.0 L 241.1,777.4 L 241.8,776.1 L 242.6,775.1 L 243.3,774.4 L 244.0,774.3 L 244.8,774.3 L 245.5,774.0 L 246.3,774.8 
L 247.0,775.7 L 247.8,777.0 L 248.5,778.6 L 249.3,780.3 L 250.0,782.4 L 250.8,784.3 L 251.5,786.0 L 252.3,787.6 L 253.0,788.4 L 253.8,788.5 
L 254.5,788.5 L 255.3,788.0 L 256.0,787.2 L 256.8,786.2 L 257.5,785.9 L 258.3,786.7 L 259.0,786.7 L 259.7,787.8 L 260.5,789.0 L 261.2,791.3 
L 262.0,793.7 L 262.7,796.1 L 263.5,798.1 L 264.2,800.3 L 265.0,802.5 L 265.7,804.8 L 266.5,807.0 L 267.2,808.7 L 268.0,810.5 L 268.7,811.5 
L 269.5,813.0 L 270.2,814.1 L 271.0,814.1 L 271.7,814.4 L 272.5,814.4 L 273.2,814.2 L 274.0,813.8 L 274.7,814.0 L 275.4,814.2 L 276.2,814.5 
L 276.9,814.4 L 277.7,814.5 L 278.4,814.6 L 279.2,814.6 L 279.9,814.4 L 280.7,814.0 L 281.4,812.7 L 282.2,811.2 L 282.9,809.8 L 283.7,808.7 
L 284.4,807.9 L 285.2,807.4 L 285.9,807.1 L 286.7,807.7 L 287.4,808.4 L 288.2,810.2 L 288.9,812.0 L 289.7,814.4 L 290.4,816.3 L 291.1,818.4 
L 291.9,819.6 L 292.6,821.0 L 293.4,821.2 L 294.1,821.9 L 294.9,821.9 L 295.6,821.8 L 296.4,821.7 L 297.1,821.8 L 297.9,822.3 L 298.6,822.8 
L 299.4,823.7 L 300.1,825.5 L 300.9,827.0 L 301.6,829.4 L 302.4,831.2 L 303.1,833.7 L 303.9,836.0 L 304.6,838.7 L 305.4,840.6 L 306.1,843.1 
L 306.8,844.9 L 307.6,846.5 L 308.3,847.6 L 309.1,848.1 L 309.8,848.7 L 310.6,848.5 L 311.3,848.4 L 312.1,847.3 L 312.8,845.6 L 313.6,844.1 
L 314.3,842.6 L 315.1,840.8 L 315.8,839.0 L 316.6,837.2 L 317.3,836.1 L 318.1,835.0 L 318.8,834.4 L 319.6,834.5 L 320.3,834.9 L 321.0,835.6 
L 321.8,836.9 L 322.5,837.9 L 323.3,838.7 L 324.0,839.3 L 324.8,840.2 L 325.5,840.2 L 326.3,840.0 L 327.0,839.7 L 327.8,839.8 L 328.5,839.8 
L 329.3,840.4 L 330.0,840.8 L 330.8,842.4 L 331.5,843.8 L 332.3,845.4 L 333.0,847.0 L 333.8,848.1 L 334.5,848.5 L 335.3,848.5 L 336.0,848.5 
L 336.7,847.8 L 337.5,846.8 L 338.2,846.5 L 339.0,846.2 L 339.7,845.9 L 340.5,845.8 L 341.2,846.6 L 342.0,847.2 L 342.7,847.8 L 343.5,848.0 
L 344.2,848.4 L 345.0,848.2 L 345.7,848.1 L 346.5,847.8 L 347.2,847.9 L 348.0,848.1 L 348.7,848.6 L 349.5,849.5 L 350.2,850.8 L 351.0,852.0 
L 351.7,853.4 L 352.4,854.7 L 353.2,856.1 L 353.9,856.3 L 354.7,855.9 L 355.4,855.3 L 356.2,854.2 L 356.9,852.5 L 357.7,851.2 L 358.4,849.5 
L 359.2,848.0 L 359.9,846.6 L 360.7,845.2 L 361.4,844.5 L 362.2,844.2 L 362.9,843.8 L 363.7,843.4 L 364.4,843.1 L 365.2,843.2 L 365.9,843.1 
L 366.7,843.4 L 367.4,844.3 L 368.1,844.8 L 368.9,845.7 L 369.6,846.9 L 370.4,848.0 L 371.1,849.7 L 371.9,851.2 L 372.6,852.6 L 373.4,853.9 
L 374.1,854.7 L 374.9,855.7 L 375.6,857.0 L 376.4,857.9 L 377.1,858.3 L 377.9,858.1 L 378.6,858.0 L 379.4,857.8 L 380.1,857.5 L 380.9,857.1 
L 381.6,856.2 L 382.4,855.3 L 383.1,854.9 L 383.8,854.4 L 384.6,854.5 L 385.3,854.8 L 386.1,855.9 L 386.8,856.4 L 387.6,857.4 L 388.3,858.3 
L 389.1,859.1 L 389.8,859.8 L 390.6,860.3 L 391.3,860.1 L 392.1,859.9 L 392.8,859.5 L 393.6,859.0 L 394.3,858.9 L 395.1,858.9 L 395.8,858.5 
L 396.6,858.4 L 397.3,858.9 L 398.0,859.2 L 398.8,859.5 L 399.5,859.9 L 400.3,859.6 L 401.0,859.0 L 401.8,858.9 L 402.5,858.5 L 403.3,857.9 
L 404.0,857.3 L 404.8,856.7 L 405.5,855.7 L 406.3,855.3 L 407.0,855.0 L 407.8,854.8 L 408.5,855.3 L 409.3,855.9 L 410.0,856.2 L 410.8,856.7 
L 411.5,857.5 L 412.3,858.0 L 413.0,858.5 L 413.7,859.4 L 414.5,859.0 L 415.2,858.5 L 416.0,858.0 L 416.7,857.5 L 417.5,857.0 L 418.2,856.8 
L 419.0,856.6 L 419.7,856.7 L 420.5,856.6 L 421.2,856.6 L 422.0,856.6 L 422.7,856.9 L 423.5,857.3 L 424.2,857.3 L 425.0,857.7 L 425.7,857.9 
L 426.5,857.5 L 427.2,858.3 L 428.0,858.7 L 428.7,858.7 L 429.4,858.6 L 430.2,858.3 L 430.9,857.9 L 431.7,857.1 L 432.4,856.6 L 433.2,856.2 
L 433.9,855.9 L 434.7,855.8 L 435.4,856.2 L 436.2,856.9 L 436.9,857.8 L 437.7,858.7 L 438.4,859.7 L 439.2,860.6 L 439.9,860.6 L 440.7,860.6 
L 441.4,860.7 L 442.2,860.7 L 442.9,860.2 L 443.7,859.8 L 444.4,859.5 L 445.1,859.1 L 445.9,858.8 L 446.6,858.7 L 447.4,858.1 L 448.1,856.7 
L 448.9,855.4 L 449.6,854.1 L 450.4,852.6 L 451.1,851.1 L 451.9,849.5 L 452.6,849.0 L 453.4,848.9 L 454.1,849.0 L 454.9,850.2 L 455.6,852.1 
L 456.4,854.2 L 457.1,856.6 L 457.9,858.7 L 458.6,860.6 L 459.4,862.0 L 460.1,863.3 L 460.8,864.3 L 461.6,864.5 L 462.3,864.7 L 463.1,864.4 
L 463.8,864.4 L 464.6,864.7 L 465.3,864.5 L 466.1,863.9 L 466.8,863.8 L 467.6,863.3 L 468.3,862.7 L 469.1,862.1 L 469.8,861.4 L 470.6,861.1 
L 471.3,861.2 L 472.1,861.1 L 472.8,861.3 L 473.6,861.5 L 474.3,861.6 L 475.0,861.7 L 475.8,861.8 L 476.5,860.9 L 477.3,860.0 L 478.0,858.9 
L 478.8,858.2 L 479.5,857.3 L 480.3,856.9 L 481.0,857.2 L 481.8,857.6 L 482.5,858.4 L 483.3,859.2 L 484.0,859.6 L 484.8,860.5 L 485.5,861.0 
L 486.3,861.0 L 487.0,860.6 L 487.8,859.8 L 488.5,859.1 L 489.3,858.6 L 490.0,857.9 L 490.7,857.9 L 491.5,858.0 L 492.2,858.4 L 493.0,859.1 
L 493.7,859.6 L 494.5,860.8 L 495.2,861.1 L 496.0,861.4 L 496.7,861.8 L 497.5,861.6 L 498.2,861.1 L 499.0,860.3 L 499.7,859.8 L 500.5,858.9 
L 501.2,857.9 L 502.0,857.0 L 502.7,856.4 L 503.5,856.2 L 504.2,855.8 L 505.0,855.3 L 505.7,855.2 L 506.4,855.3 L 507.2,855.2 L 507.9,855.4 
L 508.7,855.5 L 509.4,855.3 L 510.2,855.4 L 510.9,855.6 L 511.7,855.4 L 512.4,855.5 L 513.2,855.9 L 513.9,856.7 L 514.7,857.3 L 515.4,858.2 
L 516.2,859.0 L 516.9,860.1 L 517.7,861.2 L 518.4,861.8 L 519.2,862.5 L 519.9,863.0 L 520.7,863.1 L 521.4,862.8 L 522.1,862.5 L 522.9,861.7 
L 523.6,861.2 L 524.4,860.4 L 525.1,859.2 L 525.9,858.6 L 526.6,858.1 L 527.4,857.9 L 528.1,857.8 L 528.9,858.3 L 529.6,859.2 L 530.4,860.5 
L 531.1,861.6 L 531.9,863.1 L 532.6,864.5 L 533.4,865.4 L 534.1,865.9 L 534.9,866.0 L 535.6,865.8 L 536.4,864.9 L 537.1,864.2 L 537.8,863.0 
L 538.6,861.9 L 539.3,860.7 L 540.1,860.2 L 540.8,859.7 L 541.6,859.7 L 542.3,860.0 L 543.1,860.8 L 543.8,861.7 L 544.6,862.6 L 545.3,863.7 
L 546.1,865.4 L 546.8,866.5 L 547.6,867.4 L 548.3,867.9 L 549.1,868.1 L 549.8,868.2 L 550.6,867.8 L 551.3,867.1 L 552.0,866.7 L 552.8,866.2 
L 553.5,865.8 L 554.3,865.6 L 555.0,865.6 L 555.8,866.0 L 556.5,866.6 L 557.3,866.9 L 558.0,867.1 L 558.8,867.0 L 559.5,866.5 L 560.3,866.3 
L 561.0,865.7 L 561.8,865.1 L 562.5,864.4 L 563.3,863.8 L 564.0,863.3 L 564.8,863.0 L 565.5,862.7 L 566.3,862.9 L 567.0,862.9 L 567.7,862.7 
L 568.5,862.4 L 569.2,862.3 L 570.0,862.5 L 570.7,862.2 L 571.5,862.2 L 572.2,862.0 L 573.0,861.6 L 573.7,861.7 L 574.5,861.6 L 575.2,861.4 
L 576.0,861.7 L 576.7,861.9 L 577.5,862.2 L 578.2,862.4 L 579.0,862.2 L 579.7,862.2 L 580.5,861.9 L 581.2,861.5 L 582.0,860.4 L 582.7,859.5 
L 583.4,858.9 L 584.2,858.3 L 584.9,858.5 L 585.7,858.8 L 586.4,859.4 L 587.2,860.6 L 587.9,862.0 L 588.7,863.0 L 589.4,864.1 L 590.2,864.6 
L 590.9,865.2 L 591.7,865.4 L 592.4,865.0 L 593.2,864.9 L 593.9,864.2 L 594.7,864.1 L 595.4,863.8 L 596.2,863.8 L 596.9,863.7 L 597.7,863.0 
L 598.4,862.5 L 599.1,862.0 L 599.9,861.6 L 600.6,861.3 L 601.4,861.1 L 602.1,861.3 L 602.9,861.7 L 603.6,862.7 L 604.4,864.2 L 605.1,865.9 
L 605.9,867.5 L 606.6,869.3 L 607.4,870.6 L 608.1,871.4 L 608.9,871.7 L 609.6,871.6 L 610.4,871.0 L 611.1,869.9 L 611.9,868.7 L 612.6,867.3 
L 613.4,865.9 L 614.1,864.8 L 614.8,864.0 L 615.6,863.6 L 616.3,863.6 L 617.1,864.2 L 617.8,865.1 L 618.6,866.2 L 619.3,867.2 L 620.1,868.2 
L 620.8,869.2 L 621.6,869.8 L 622.3,870.3 L 623.1,870.6 L 623.8,870.5 L 624.6,870.2 L 625.3,869.9 L 626.1,869.8 L 626.8,870.0 L 627.6,869.7 
L 628.3,869.9 L 629.1,869.7 L 629.8,869.3 L 630.5,869.1 L 631.3,868.3 L 632.0,867.3 L 632.8,866.3 L 633.5,865.2 L 634.3,864.4 L 635.0,863.3 
L 635.8,862.3 L 636.5,861.6 L 637.3,861.4 L 638.0,861.4 L 638.8,861.1 L 639.5,860.8 L 640.3,861.0 L 641.0,861.2 L 641.8,861.4 L 642.5,861.8 
L 643.3,862.1 L 644.0,863.0 L 644.7,863.4 L 645.5,864.0 L 646.2,864.5 L 647.0,864.7 L 647.7,865.3 L 648.5,865.8 L 649.2,866.2 L 650.0,866.4 
L 650.7,866.9 L 651.5,867.8 L 652.2,868.7 L 653.0,869.3 L 653.7,869.5 L 654.5,870.0 L 655.2,869.8 L 656.0,869.7 L 656.7,868.7 L 657.5,868.0 
L 658.2,867.0 L 659.0,866.1 L 659.7,865.5 L 660.4,865.4 L 661.2,865.6 L 661.9,866.4 L 662.7,867.5 L 663.4,868.5 L 664.2,869.5 L 664.9,870.0 
L 665.7,870.5 L 666.4,870.6 L 667.2,870.1 L 667.9,869.4 L 668.7,868.2 L 669.4,867.0 L 670.2,865.6 L 670.9,864.6 L 671.7,864.0 L 672.4,864.1 
L 673.2,863.8 L 673.9,864.3 L 674.7,864.7 L 675.4,865.4 L 676.1,866.1 L 676.9,866.9 L 677.6,867.8 L 678.4,868.1 L 679.1,868.2 L 679.9,868.4 
L 680.6,868.6 L 681.4,868.8 L 682.1,869.1 L 682.9,869.2 L 683.6,869.1 L 684.4,869.3 L 685.1,869.3 L 685.9,869.2 L 686.6,869.0 L 687.4,868.8 
L 688.1,868.9 L 688.9,868.5 L 689.6,868.4 L 690.4,868.4 L 691.1,868.4 L 691.8,868.2 L 692.6,868.2 L 693.3,868.1 L 694.1,868.2 L 694.8,868.2 
L 695.6,868.5 L 696.3,868.4 L 697.1,868.3 L 697.8,868.2 L 698.6,868.3 L 699.3,868.0 L 700.1,867.7 L 700.8,866.7 L 701.6,866.0 L 702.3,865.1 
L 703.1,864.3 L 703.8,863.8 L 704.6,863.5 L 705.3,863.3 L 706.1,863.4 L 706.8,863.8 L 707.5,864.4 L 708.3,864.8 L 709.0,865.6 L 709.8,866.2 
L 710.5,866.6 L 711.3,866.8 L 712.0,867.1 L 712.8,866.7 L 713.5,866.7 L 714.3,866.2 L 715.0,865.9 L 715.8,865.7 L 716.5,865.6 L 717.3,865.9 
L 718.0,866.2 L 718.8,866.7 L 719.5,867.8 L 720.3,869.2 L 721.0,870.6 L 721.7,872.1 L 722.5,873.5 L 723.2,874.9 L 724.0,876.1 L 724.7,877.0 
L 725.5,878.0 L 726.2,878.3 L 727.0,878.6 L 727.7,878.5 L 728.5,878.4 L 729.2,878.1 L 730.0,877.4 L 730.7,876.4 L 731.5,875.4 L 732.2,874.2 
L 733.0,872.6 L 733.7,871.5 L 734.5,870.0 L 735.2,868.9 L 736.0,868.0 L 736.7,867.4 L 737.4,867.0 L 738.2,866.9 L 738.9,867.1 L 739.7,867.1 
L 740.4,867.2 L 741.2,867.0 L 741.9,866.7 L 742.7,866.4 L 743.4,866.3 L 744.2,865.9 L 744.9,865.4 L 745.7,865.4 L 746.4,865.4 L 747.2,865.8 
L 747.9,866.2 L 748.7,866.4 L 749.4,866.3 L 750.2,866.2 L 750.9,865.9 L 751.7,864.9 L 752.4,863.9 L 753.1,862.9 L 753.9,862.3 L 754.6,862.0 
L 755.4,861.7 L 756.1,862.1 L 756.9,863.1 L 757.6,864.5 L 758.4,866.0 L 759.1,867.3 L 759.9,868.7 L 760.6,870.0 L 761.4,870.9 L 762.1,871.5 
L 762.9,871.7 L 763.6,871.3 L 764.4,871.3 L 765.1,871.1 L 765.9,870.7 L 766.6,870.3 L 767.4,869.7 L 768.1,869.5 L 768.8,869.5 L 769.6,869.7 
L 770.3,870.2 L 771.1,871.1 L 771.8,872.2 L 772.6,873.3 L 773.3,874.3 L 774.1,875.6 L 774.8,876.7 L 775.6,877.1 L 776.3,877.2 L 777.1,876.5 
L 777.8,875.3 L 778.6,873.8 L 779.3,872.2 L 780.1,870.5 L 780.8,868.9 L 781.6,867.2 L 782.3,865.7 L 783.1,864.9 L 783.8,864.2 L 784.5,863.7 
L 785.3,863.5 L 786.0,863.6 L 786.8,863.3 L 787.5,863.1 L 788.3,863.3 L 789.0,863.4 L 789.8,863.9 L 790.5,864.1 L 791.3,864.7 L 792.0,865.3 
L 792.8,866.1 L 793.5,867.1 L 794.3,868.2 L 795.0,869.5 L 795.8,870.6 L 796.5,871.8 L 797.3,872.9 L 798.0,873.9 L 798.7,874.9 L 799.5,875.5 
L 800.2,875.9 L 801.0,875.7 L 801.7,875.6 L 802.5,875.1 L 803.2,874.5 L 804.0,873.5 L 804.7,872.5 L 805.5,871.5 L 806.2,870.5 L 807.0,870.0 
L 807.7,869.6 L 808.5,869.5 L 809.2,869.4 L 810.0,869.7 L 810.7,869.7 L 811.5,869.8 L 812.2,870.0 L 813.0,869.6 L 813.7,869.2 L 814.4,868.0 
L 815.2,867.0 L 815.9,866.0 L 816.7,865.0 L 817.4,864.1 L 818.2,863.3 L 818.9,862.7 L 819.7,862.4 L 820.4,862.3 L 821.2,862.4 L 821.9,862.8 
L 822.7,863.1 L 823.4,863.4 L 824.2,863.9 L 824.9,864.5 L 825.7,864.8 L 826.4,865.3 L 827.2,865.9 L 827.9,866.0 L 828.7,866.5 L 829.4,867.0 
L 830.1,867.4 L 830.9,867.7 L 831.6,868.4 L 832.4,868.8 L 833.1,869.3 L 833.9,870.0 L 834.6,870.6 L 835.4,870.9 L 836.1,871.0 L 836.9,870.6 
L 837.6,870.1 L 838.4,869.9 L 839.1,869.4 L 839.9,869.0 L 840.6,868.9 L 841.4,868.6 L 842.1,868.9 L 842.9,869.8 L 843.6,870.8 L 844.4,871.6 
L 845.1,872.3 L 845.8,873.0 L 846.6,873.3 L 847.3,873.3 L 848.1,873.2 L 848.8,872.9 L 849.6,872.5 L 850.3,871.9 L 851.1,871.2 L 851.8,870.5 
L 852.6,870.0 L 853.3,869.7 L 854.1,869.1 L 854.8,868.4 L 855.6,867.6 L 856.3,867.0 L 857.1,866.6 L 857.8,866.2 L 858.6,865.9 L 859.3,865.8 
L 860.1,866.2 L 860.8,867.0 L 861.5,867.6 L 862.3,868.4 L 863.0,869.7 L 863.8,870.8 L 864.5,871.5 L 865.3,871.9 L 866.0,871.6 L 866.8,871.6 
L 867.5,871.0 L 868.3,870.4 L 869.0,869.9 L 869.8,869.3 L 870.5,868.8 L 871.3,868.3 L 872.0,868.0 L 872.8,867.6 L 873.5,867.1 L 874.3,866.4 
L 875.0,865.6 L 875.7,863.9 L 876.5,862.1 L 877.2,860.6 L 878.0,859.0 L 878.7,858.0 L 879.5,857.4 L 880.2,857.4 L 881.0,858.0 L 881.7,858.9 
L 882.5,860.6 L 883.2,862.5 L 884.0,864.7 L 884.7,866.5 L 885.5,868.4 L 886.2,869.6 L 887.0,870.6 L 887.7,871.2 L 888.5,871.8 L 889.2,872.4 
L 890.0,872.7 L 890.7,873.0 L 891.4,873.5 L 892.2,873.8 L 892.9,874.3 L 893.7,874.9 L 894.4,875.6 L 895.2,875.9 L 895.9,876.5 M 152.1,311.6 
L 155.8,318.7 L 159.6,326.2 L 163.3,333.4 L 167.0,339.6 L 170.8,345.2 L 174.5,351.1 L 178.3,355.9 L 182.0,359.6 L 185.7,363.0 L 189.5,366.2 
L 193.2,369.7 L 197.0,374.4 L 200.7,378.6 L 204.4,384.2 L 208.2,391.1 L 211.9,397.8 L 215.6,406.5 L 219.4,414.8 L 223.1,422.7 L 226.9,430.8 
L 230.6,438.7 L 234.3,445.1 L 238.1,450.1 L 241.8,454.8 L 245.5,459.5 L 249.3,464.4 L 253.0,466.8 L 256.8,469.8 L 260.5,473.2 L 264.2,477.5 
L 268.0,481.4 L 271.7,485.3 L 275.4,490.7 L 279.2,496.8 L 282.9,503.2 L 286.7,509.3 L 290.4,515.3 L 294.1,520.9 L 297.9,526.2 L 301.6,530.7 
L 305.4,534.1 L 309.1,537.5 L 312.8,539.2 L 316.6,540.3 L 320.3,541.2 L 324.0,540.8 L 327.8,541.3 L 331.5,542.0 L 335.3,543.0 L 339.0,543.9 
L 342.7,544.7 L 346.5,546.8 L 350.2,549.0 L 353.9,551.8 L 357.7,555.2 L 361.4,559.3 L 365.2,563.2 L 368.9,567.4 L 372.6,572.2 L 376.4,577.4 
L 380.1,582.6 L 383.8,586.1 L 387.6,590.2 L 391.3,593.7 L 395.1,596.1 L 398.8,598.0 L 402.5,599.5 L 406.3,601.5 L 410.0,603.0 L 413.7,604.9 
L 417.5,607.2 L 421.2,610.5 L 425.0,613.9 L 428.7,617.1 L 432.4,620.6 L 436.2,622.5 L 439.9,624.6 L 443.7,625.5 L 447.4,626.3 L 451.1,626.3 
L 454.9,625.7 L 458.6,626.2 L 462.3,625.8 L 466.1,626.1 L 469.8,626.9 L 473.6,628.9 L 477.3,631.3 L 481.0,633.9 L 484.8,636.6 L 488.5,639.6 
L 492.2,643.7 L 496.0,646.8 L 499.7,650.8 L 503.5,654.7 L 507.2,658.2 L 510.9,660.5 L 514.7,662.8 L 518.4,665.2 L 522.1,666.7 L 525.9,669.0 
L 529.6,669.8 L 533.4,670.4 L 537.1,670.8 L 540.8,671.5 L 544.6,671.1 L 548.3,670.6 L 552.0,669.9 L 555.8,668.9 L 559.5,668.0 L 563.3,666.9 
L 567.0,666.7 L 570.7,667.6 L 574.5,669.2 L 578.2,670.8 L 582.0,673.0 L 585.7,674.8 L 589.4,676.1 L 593.2,677.8 L 596.9,677.9 L 600.6,677.1 
L 604.4,675.7 L 608.1,674.3 L 611.9,672.0 L 615.6,670.2 L 619.3,668.0 L 623.1,667.5 L 626.8,667.4 L 630.5,667.2 L 634.3,667.4 L 638.0,667.5 
L 641.8,668.3 L 645.5,667.8 L 649.2,668.1 L 653.0,667.2 L 656.7,665.8 L 660.4,664.6 L 664.2,663.5 L 667.9,662.0 L 671.7,660.6 L 675.4,661.3 
L 679.1,661.9 L 682.9,663.9 L 686.6,665.7 L 690.4,668.2 L 694.1,670.6 L 697.8,673.2 L 701.6,675.4 L 705.3,676.2 L 709.0,677.5 L 712.8,677.8 
L 716.5,678.5 L 720.3,678.8 L 724.0,678.7 L 727.7,679.6 L 731.5,681.1 L 735.2,682.7 L 738.9,682.5 L 742.7,682.7 L 746.4,682.3 L 750.2,681.9 
L 753.9,681.0 L 757.6,679.3 L 761.4,677.5 L 765.1,675.5 L 768.8,674.4 L 772.6,672.7 L 776.3,671.6 L 780.1,670.6 L 783.8,668.6 L 787.5,667.3 
L 791.3,664.9 L 795.0,662.0 L 798.7,659.4 L 802.5,657.2 L 806.2,654.5 L 810.0,652.4 L 813.7,650.7 L 817.4,649.6 L 821.2,650.2 L 824.9,651.1 
L 828.7,653.1 L 832.4,655.4 L 836.1,658.3 L 839.9,662.1 L 843.6,665.6 L 847.3,669.2 L 851.1,672.2 L 854.8,674.3 L 858.6,676.4 L 862.3,678.1 
L 866.0,679.2 L 869.8,680.0 L 873.5,680.3 L 877.2,680.8 L 881.0,681.5 L 884.7,682.2 L 888.5,683.0 L 892.2,684.5 L 895.9,686.1 "
 />
<path stroke="#ff0000" stroke-width="1" fill="none"
  d="M 149.1,215.2 
L 149.9,228.8 L 150.6,244.9 L 151.3,261.9 L 152.1,280.9 L 152.8,300.6 L 153.6,322.8 L 154.3,344.9 L 155.1,366.3 L 155.8,389.4 L 156.6,409.7 
L 157.3,427.4 L 158.1,441.5 L 158.8,454.1 L 159.6,464.5 L 160.3,473.3 L 161.1,480.0 L 161.8,485.4 L 162.6,490.6 L 163.3,494.6 L 164.1,499.1 
L 164.8,503.2 L 165.6,506.9 L 166.3,509.4 L 167.0,512.7 L 167.8,516.0 L 168.5,518.5 L 169.3,521.7 L 170.0,524.7 L 170.8,527.8 L 171.5,531.3 
L 172.3,535.1 L 173.0,539.3 L 173.8,543.5 L 174.5,547.6 L 175.3,551.2 L 176.0,554.3 L 176.8,556.2 L 177.5,557.7 L 178.3,559.3 L 179.0,560.5 
L 179.8,561.6 L 180.5,563.6 L 181.3,566.3 L 182.0,570.0 L 182.7,574.8 L 183.5,580.2 L 184.2,586.6 L 185.0,593.1 L 185.7,599.3 L 186.5,605.5 
L 187.2,610.7 L 188.0,614.3 L 188.7,617.8 L 189.5,620.2 L 190.2,620.8 L 191.0,620.2 L 191.7,619.2 L 192.5,618.1 L 193.2,616.6 L 194.0,615.1 
L 194.7,613.9 L 195.5,614.2 L 196.2,615.3 L 197.0,617.0 L 197.7,619.8 L 198.4,623.3 L 199.2,626.7 L 199.9,630.8 L 200.7,635.6 L 201.4,640.0 
L 202.2,645.3 L 202.9,650.1 L 203.7,655.4 L 204.4,660.1 L 205.2,664.2 L 205.9,668.3 L 206.7,671.3 L 207.4,673.6 L 208.2,674.7 L 208.9,675.0 
L 209.7,675.8 L 210.4,676.0 L 211.2,676.3 L 211.9,677.7 L 212.7,679.3 L 213.4,681.6 L 214.1,685.6 L 214.9,689.1 L 215.6,693.1 L 216.4,697.2 
L 217.1,700.6 L 217.9,703.6 L 218.6,706.1 L 219.4,708.9 L 220.1,710.7 L 220.9,711.6 L 221.6,713.3 L 222.4,713.8 L 223.1,715.0 L 223.9,716.5 
L 224.6,717.6 L 225.4,719.2 L 226.1,720.4 L 226.9,721.0 L 227.6,721.7 L 228.4,722.2 L 229.1,722.3 L 229.8,722.8 L 230.6,723.9 L 231.3,724.3 
L 232.1,724.9 L 232.8,726.1 L 233.6,727.6 L 234.3,728.5 L 235.1,730.3 L 235.8,731.6 L 236.6,732.6 L 237.3,732.9 L 238.1,732.9 L 238.8,732.8 
L 239.6,732.4 L 240.3,732.1 L 241.1,732.1 L 241.8,730.3 L 242.6,728.4 L 243.3,726.3 L 244.0,724.7 L 244.8,722.2 L 245.5,719.4 L 246.3,717.3 
L 247.0,715.8 L 247.8,715.7 L 248.5,716.0 L 249.3,717.3 L 250.0,720.0 L 250.8,723.3 L 251.5,726.8 L 252.3,731.2 L 253.0,735.1 L 253.8,738.3 
L 254.5,742.2 L 255.3,745.1 L 256.0,746.8 L 256.8,748.1 L 257.5,749.9 L 258.3,751.7 L 259.0,753.4 L 259.7,754.4 L 260.5,755.6 L 261.2,758.3 
L 262.0,760.4 L 262.7,762.4 L 263.5,764.8 L 264.2,768.1 L 265.0,770.3 L 265.7,772.9 L 266.5,774.9 L 267.2,776.5 L 268.0,778.0 L 268.7,778.8 
L 269.5,779.8 L 270.2,779.9 L 271.0,779.3 L 271.7,778.3 L 272.5,778.5 L 273.2,777.3 L 274.0,776.8 L 274.7,777.2 L 275.4,777.6 L 276.2,777.9 
L 276.9,778.4 L 277.7,779.7 L 278.4,781.0 L 279.2,782.7 L 279.9,783.9 L 280.7,784.4 L 281.4,784.4 L 282.2,783.1 L 282.9,781.6 L 283.7,780.3 
L 284.4,777.9 L 285.2,775.6 L 285.9,774.0 L 286.7,772.8 L 287.4,772.3 L 288.2,773.2 L 288.9,775.3 L 289.7,778.2 L 290.4,781.2 L 291.1,784.1 
L 291.9,786.5 L 292.6,788.9 L 293.4,790.0 L 294.1,790.6 L 294.9,790.1 L 295.6,789.4 L 296.4,788.2 L 297.1,787.1 L 297.9,785.9 L 298.6,785.4 
L 299.4,785.1 L 300.1,786.1 L 300.9,787.3 L 301.6,788.9 L 302.4,790.6 L 303.1,793.3 L 303.9,796.5 L 304.6,799.8 L 305.4,802.4 L 306.1,806.1 
L 306.8,809.2 L 307.6,812.3 L 308.3,813.9 L 309.1,815.5 L 309.8,817.0 L 310.6,817.4 L 311.3,817.6 L 312.1,817.1 L 312.8,815.8 L 313.6,814.4 
L 314.3,813.0 L 315.1,811.4 L 315.8,809.7 L 316.6,807.5 L 317.3,805.8 L 318.1,804.4 L 318.8,802.7 L 319.6,801.6 L 320.3,801.0 L 321.0,801.1 
L 321.8,802.0 L 322.5,803.4 L 323.3,804.4 L 324.0,806.0 L 324.8,808.0 L 325.5,809.8 L 326.3,811.2 L 327.0,812.1 L 327.8,813.0 L 328.5,812.9 
L 329.3,812.9 L 330.0,812.1 L 330.8,811.7 L 331.5,811.1 L 332.3,810.2 L 333.0,809.0 L 333.8,807.9 L 334.5,806.6 L 335.3,805.3 L 336.0,804.9 
L 336.7,804.2 L 337.5,803.7 L 338.2,803.7 L 339.0,804.1 L 339.7,804.7 L 340.5,805.2 L 341.2,806.5 L 342.0,807.4 L 342.7,808.6 L 343.5,809.6 
L 344.2,810.6 L 345.0,812.1 L 345.7,813.5 L 346.5,814.7 L 347.2,816.3 L 348.0,817.9 L 348.7,819.5 L 349.5,820.6 L 350.2,822.2 L 351.0,823.1 
L 351.7,823.6 L 352.4,823.9 L 353.2,823.7 L 353.9,823.1 L 354.7,821.8 L 355.4,820.5 L 356.2,818.8 L 356.9,817.3 L 357.7,815.6 L 358.4,814.4 
L 359.2,813.0 L 359.9,811.7 L 360.7,810.6 L 361.4,809.9 L 362.2,809.0 L 362.9,807.6 L 363.7,806.6 L 364.4,805.1 L 365.2,804.6 L 365.9,804.0 
L 366.7,803.6 L 367.4,804.1 L 368.1,804.6 L 368.9,805.8 L 369.6,807.4 L 370.4,809.2 L 371.1,810.7 L 371.9,812.5 L 372.6,814.3 L 373.4,815.9 
L 374.1,816.8 L 374.9,818.1 L 375.6,819.2 L 376.4,820.0 L 377.1,820.7 L 377.9,819.8 L 378.6,819.3 L 379.4,818.7 L 380.1,817.6 L 380.9,816.1 
L 381.6,814.3 L 382.4,812.5 L 383.1,811.5 L 383.8,810.1 L 384.6,809.7 L 385.3,809.7 L 386.1,810.5 L 386.8,811.6 L 387.6,812.8 L 388.3,814.9 
L 389.1,817.2 L 389.8,819.2 L 390.6,822.1 L 391.3,824.2 L 392.1,826.6 L 392.8,828.7 L 393.6,829.9 L 394.3,831.0 L 395.1,832.3 L 395.8,832.8 
L 396.6,833.4 L 397.3,833.0 L 398.0,832.5 L 398.8,831.7 L 399.5,831.2 L 400.3,830.2 L 401.0,828.1 L 401.8,825.9 L 402.5,824.2 L 403.3,821.5 
L 404.0,819.2 L 404.8,817.1 L 405.5,814.9 L 406.3,814.1 L 407.0,813.3 L 407.8,813.4 L 408.5,814.5 L 409.3,816.5 L 410.0,818.6 L 410.8,820.7 
L 411.5,822.3 L 412.3,823.5 L 413.0,824.2 L 413.7,825.2 L 414.5,824.9 L 415.2,824.1 L 416.0,823.2 L 416.7,822.6 L 417.5,821.3 L 418.2,821.3 
L 419.0,821.2 L 419.7,821.4 L 420.5,821.2 L 421.2,821.2 L 422.0,821.3 L 422.7,821.5 L 423.5,821.9 L 424.2,822.2 L 425.0,822.6 L 425.7,823.4 
L 426.5,824.0 L 427.2,825.1 L 428.0,825.5 L 428.7,826.0 L 429.4,825.3 L 430.2,825.1 L 430.9,823.8 L 431.7,821.7 L 432.4,819.6 L 433.2,817.6 
L 433.9,815.9 L 434.7,814.9 L 435.4,814.5 L 436.2,814.8 L 436.9,816.1 L 437.7,818.1 L 438.4,820.1 L 439.2,822.4 L 439.9,824.4 L 440.7,826.3 
L 441.4,828.1 L 442.2,829.6 L 442.9,830.4 L 443.7,831.2 L 444.4,832.1 L 445.1,832.6 L 445.9,833.1 L 446.6,833.2 L 447.4,832.6 L 448.1,831.1 
L 448.9,829.2 L 449.6,826.7 L 450.4,823.4 L 451.1,820.2 L 451.9,816.5 L 452.6,813.8 L 453.4,811.3 L 454.1,809.4 L 454.9,809.3 L 455.6,810.4 
L 456.4,811.8 L 457.1,813.6 L 457.9,816.0 L 458.6,818.3 L 459.4,820.5 L 460.1,822.8 L 460.8,824.6 L 461.6,825.7 L 462.3,826.6 L 463.1,827.2 
L 463.8,827.7 L 464.6,828.8 L 465.3,829.2 L 466.1,829.4 L 466.8,829.6 L 467.6,829.4 L 468.3,829.2 L 469.1,829.1 L 469.8,828.6 L 470.6,828.0 
L 471.3,827.6 L 472.1,827.0 L 472.8,826.2 L 473.6,826.0 L 474.3,825.1 L 475.0,824.3 L 475.8,823.7 L 476.5,822.8 L 477.3,822.1 L 478.0,821.6 
L 478.8,822.1 L 479.5,822.5 L 480.3,823.7 L 481.0,825.8 L 481.8,827.9 L 482.5,830.0 L 483.3,831.6 L 484.0,832.3 L 484.8,832.9 L 485.5,832.4 
L 486.3,830.9 L 487.0,829.1 L 487.8,826.5 L 488.5,824.1 L 489.3,822.1 L 490.0,820.5 L 490.7,820.3 L 491.5,820.1 L 492.2,821.2 L 493.0,822.6 
L 493.7,824.2 L 494.5,825.9 L 495.2,827.6 L 496.0,828.7 L 496.7,829.5 L 497.5,829.7 L 498.2,829.4 L 499.0,828.3 L 499.7,827.3 L 500.5,826.3 
L 501.2,824.6 L 502.0,823.1 L 502.7,822.3 L 503.5,821.9 L 504.2,821.9 L 505.0,821.2 L 505.7,821.3 L 506.4,822.1 L 507.2,823.1 L 507.9,824.2 
L 508.7,825.3 L 509.4,826.3 L 510.2,826.9 L 510.9,827.8 L 511.7,828.6 L 512.4,829.3 L 513.2,830.1 L 513.9,831.3 L 514.7,832.6 L 515.4,833.4 
L 516.2,834.2 L 516.9,835.0 L 517.7,836.2 L 518.4,836.4 L 519.2,836.0 L 519.9,835.3 L 520.7,833.7 L 521.4,832.2 L 522.1,830.0 L 522.9,827.5 
L 523.6,825.6 L 524.4,823.8 L 525.1,822.2 L 525.9,821.5 L 526.6,821.3 L 527.4,821.4 L 528.1,822.3 L 528.9,823.8 L 529.6,825.7 L 530.4,827.2 
L 531.1,829.0 L 531.9,830.8 L 532.6,832.1 L 533.4,832.4 L 534.1,832.4 L 534.9,832.1 L 535.6,831.2 L 536.4,829.8 L 537.1,828.5 L 537.8,826.7 
L 538.6,824.9 L 539.3,823.0 L 540.1,822.0 L 540.8,820.9 L 541.6,820.3 L 542.3,819.5 L 543.1,819.6 L 543.8,819.7 L 544.6,819.7 L 545.3,821.1 
L 546.1,822.7 L 546.8,824.0 L 547.6,825.4 L 548.3,827.4 L 549.1,828.8 L 549.8,830.7 L 550.6,832.3 L 551.3,833.5 L 552.0,834.4 L 552.8,835.0 
L 553.5,835.5 L 554.3,835.6 L 555.0,835.8 L 555.8,835.5 L 556.5,835.4 L 557.3,835.1 L 558.0,834.3 L 558.8,833.9 L 559.5,833.5 L 560.3,833.7 
L 561.0,833.1 L 561.8,833.2 L 562.5,832.8 L 563.3,833.2 L 564.0,832.8 L 564.8,833.0 L 565.5,832.9 L 566.3,832.9 L 567.0,833.0 L 567.7,833.4 
L 568.5,833.6 L 569.2,834.0 L 570.0,835.2 L 570.7,836.6 L 571.5,837.3 L 572.2,838.2 L 573.0,838.9 L 573.7,839.7 L 574.5,839.9 L 575.2,839.7 
L 576.0,839.2 L 576.7,839.1 L 577.5,838.0 L 578.2,836.3 L 579.0,835.1 L 579.7,833.8 L 580.5,831.9 L 581.2,830.2 L 582.0,828.4 L 582.7,826.9 
L 583.4,825.7 L 584.2,825.8 L 584.9,825.9 L 585.7,826.6 L 586.4,828.4 L 587.2,830.1 L 587.9,832.0 L 588.7,833.7 L 589.4,835.2 L 590.2,836.2 
L 590.9,837.0 L 591.7,836.8 L 592.4,836.3 L 593.2,835.7 L 593.9,835.3 L 594.7,834.6 L 595.4,833.9 L 596.2,833.7 L 596.9,833.2 L 597.7,832.5 
L 598.4,832.4 L 599.1,832.0 L 599.9,831.7 L 600.6,831.3 L 601.4,831.4 L 602.1,831.5 L 602.9,832.0 L 603.6,833.0 L 604.4,834.1 L 605.1,835.2 
L 605.9,836.6 L 606.6,837.3 L 607.4,838.7 L 608.1,839.1 L 608.9,839.3 L 609.6,839.4 L 610.4,839.1 L 611.1,838.1 L 611.9,837.4 L 612.6,837.2 
L 613.4,837.0 L 614.1,837.1 L 614.8,837.1 L 615.6,837.7 L 616.3,838.2 L 617.1,839.5 L 617.8,840.6 L 618.6,841.2 L 619.3,841.6 L 620.1,841.0 
L 620.8,840.6 L 621.6,839.4 L 622.3,838.2 L 623.1,836.9 L 623.8,835.9 L 624.6,835.1 L 625.3,834.7 L 626.1,834.8 L 626.8,835.6 L 627.6,836.9 
L 628.3,838.1 L 629.1,838.9 L 629.8,839.2 L 630.5,839.6 L 631.3,839.4 L 632.0,838.7 L 632.8,838.1 L 633.5,836.6 L 634.3,835.5 L 635.0,834.4 
L 635.8,833.8 L 636.5,833.2 L 637.3,833.4 L 638.0,833.6 L 638.8,833.7 L 639.5,834.1 L 640.3,834.6 L 641.0,835.4 L 641.8,835.8 L 642.5,835.9 
L 643.3,835.8 L 644.0,835.2 L 644.7,834.5 L 645.5,833.2 L 646.2,832.6 L 647.0,831.3 L 647.7,830.5 L 648.5,829.8 L 649.2,829.6 L 650.0,829.3 
L 650.7,829.4 L 651.5,829.8 L 652.2,830.1 L 653.0,830.3 L 653.7,829.7 L 654.5,829.3 L 655.2,828.2 L 656.0,826.9 L 656.7,826.0 L 657.5,825.4 
L 658.2,825.3 L 659.0,825.5 L 659.7,826.5 L 660.4,828.1 L 661.2,830.2 L 661.9,832.6 L 662.7,835.3 L 663.4,837.5 L 664.2,839.8 L 664.9,840.9 
L 665.7,842.0 L 666.4,842.3 L 667.2,842.3 L 667.9,841.8 L 668.7,841.3 L 669.4,840.6 L 670.2,839.4 L 670.9,838.9 L 671.7,838.5 L 672.4,838.2 
L 673.2,837.9 L 673.9,837.7 L 674.7,837.6 L 675.4,837.4 L 676.1,837.0 L 676.9,836.2 L 677.6,835.4 L 678.4,834.3 L 679.1,833.6 L 679.9,832.8 
L 680.6,832.6 L 681.4,832.1 L 682.1,831.9 L 682.9,832.3 L 683.6,832.4 L 684.4,832.8 L 685.1,833.0 L 685.9,833.0 L 686.6,833.2 L 687.4,833.1 
L 688.1,833.6 L 688.9,833.9 L 689.6,834.4 L 690.4,835.5 L 691.1,836.3 L 691.8,836.8 L 692.6,837.5 L 693.3,838.1 L 694.1,838.2 L 694.8,837.9 
L 695.6,837.5 L 696.3,836.7 L 697.1,835.7 L 697.8,834.9 L 698.6,834.3 L 699.3,833.3 L 700.1,832.7 L 700.8,832.1 L 701.6,832.3 L 702.3,832.4 
L 703.1,832.9 L 703.8,833.8 L 704.6,835.1 L 705.3,836.4 L 706.1,837.5 L 706.8,839.2 L 707.5,840.2 L 708.3,840.9 L 709.0,841.6 L 709.8,841.9 
L 710.5,842.0 L 711.3,842.0 L 712.0,842.3 L 712.8,842.1 L 713.5,842.5 L 714.3,842.6 L 715.0,843.0 L 715.8,843.3 L 716.5,843.4 L 717.3,843.8 
L 718.0,844.0 L 718.8,844.3 L 719.5,844.6 L 720.3,845.2 L 721.0,845.7 L 721.7,846.7 L 722.5,847.8 L 723.2,848.4 L 724.0,849.2 L 724.7,850.2 
L 725.5,851.0 L 726.2,851.3 L 727.0,851.6 L 727.7,851.6 L 728.5,851.5 L 729.2,851.5 L 730.0,850.6 L 730.7,849.6 L 731.5,848.6 L 732.2,847.5 
L 733.0,845.8 L 733.7,844.3 L 734.5,842.7 L 735.2,841.2 L 736.0,839.9 L 736.7,838.9 L 737.4,837.9 L 738.2,837.2 L 738.9,836.8 L 739.7,835.9 
L 740.4,835.3 L 741.2,834.2 L 741.9,832.9 L 742.7,832.0 L 743.4,831.7 L 744.2,831.1 L 744.9,830.1 L 745.7,830.7 L 746.4,831.2 L 747.2,832.1 
L 747.9,832.9 L 748.7,833.9 L 749.4,834.2 L 750.2,834.8 L 750.9,834.8 L 751.7,834.2 L 752.4,833.9 L 753.1,833.7 L 753.9,833.9 L 754.6,834.5 
L 755.4,835.6 L 756.1,836.7 L 756.9,838.8 L 757.6,840.9 L 758.4,842.4 L 759.1,843.5 L 759.9,844.2 L 760.6,844.4 L 761.4,843.3 L 762.1,841.8 
L 762.9,839.9 L 763.6,837.9 L 764.4,836.3 L 765.1,834.9 L 765.9,833.9 L 766.6,833.9 L 767.4,834.3 L 768.1,835.2 L 768.8,836.6 L 769.6,838.0 
L 770.3,839.3 L 771.1,840.2 L 771.8,841.1 L 772.6,841.4 L 773.3,841.6 L 774.1,841.8 L 774.8,841.7 L 775.6,841.6 L 776.3,841.9 L 777.1,842.2 
L 777.8,842.4 L 778.6,842.3 L 779.3,842.5 L 780.1,843.0 L 780.8,843.2 L 781.6,843.1 L 782.3,842.5 L 783.1,842.3 L 783.8,841.8 L 784.5,841.2 
L 785.3,840.9 L 786.0,840.4 L 786.8,839.7 L 787.5,839.1 L 788.3,839.0 L 789.0,839.2 L 789.8,839.7 L 790.5,840.5 L 791.3,841.5 L 792.0,842.2 
L 792.8,843.2 L 793.5,844.2 L 794.3,844.7 L 795.0,845.1 L 795.8,844.8 L 796.5,844.7 L 797.3,844.3 L 798.0,844.2 L 798.7,844.2 L 799.5,844.5 
L 800.2,845.2 L 801.0,845.4 L 801.7,845.9 L 802.5,846.5 L 803.2,846.9 L 804.0,846.9 L 804.7,845.9 L 805.5,844.6 L 806.2,843.6 L 807.0,842.8 
L 807.7,841.8 L 808.5,840.8 L 809.2,839.8 L 810.0,839.6 L 810.7,839.7 L 811.5,840.0 L 812.2,840.3 L 813.0,840.3 L 813.7,840.8 L 814.4,840.4 
L 815.2,839.8 L 815.9,839.1 L 816.7,838.4 L 817.4,837.1 L 818.2,835.4 L 818.9,833.6 L 819.7,831.9 L 820.4,830.8 L 821.2,830.0 L 821.9,829.5 
L 822.7,828.8 L 823.4,829.1 L 824.2,830.1 L 824.9,831.6 L 825.7,833.1 L 826.4,834.4 L 827.2,836.0 L 827.9,837.0 L 828.7,837.8 L 829.4,838.1 
L 830.1,838.6 L 830.9,838.4 L 831.6,837.9 L 832.4,837.8 L 833.1,837.9 L 833.9,838.3 L 834.6,839.2 L 835.4,840.1 L 836.1,840.8 L 836.9,841.8 
L 837.6,842.4 L 838.4,843.2 L 839.1,843.7 L 839.9,843.7 L 840.6,843.7 L 841.4,843.3 L 842.1,843.4 L 842.9,843.0 L 843.6,842.8 L 844.4,843.2 
L 845.1,842.7 L 845.8,841.9 L 846.6,841.4 L 847.3,840.7 L 848.1,839.8 L 848.8,838.8 L 849.6,837.9 L 850.3,837.2 L 851.1,836.8 L 851.8,836.4 
L 852.6,836.4 L 853.3,836.6 L 854.1,837.0 L 854.8,837.2 L 855.6,837.5 L 856.3,837.8 L 857.1,837.7 L 857.8,837.9 L 858.6,838.1 L 859.3,837.5 
L 860.1,837.6 L 860.8,837.7 L 861.5,837.6 L 862.3,837.3 L 863.0,837.4 L 863.8,837.5 L 864.5,837.6 L 865.3,838.0 L 866.0,838.3 L 866.8,839.0 
L 867.5,839.8 L 868.3,841.1 L 869.0,842.4 L 869.8,843.7 L 870.5,845.5 L 871.3,846.7 L 872.0,847.7 L 872.8,848.1 L 873.5,848.0 L 874.3,847.1 
L 875.0,846.0 L 875.7,844.0 L 876.5,841.5 L 877.2,839.5 L 878.0,837.1 L 878.7,835.5 L 879.5,834.3 L 880.2,833.3 L 881.0,833.5 L 881.7,833.8 
L 882.5,835.0 L 883.2,836.6 L 884.0,838.4 L 884.7,840.2 L 885.5,842.0 L 886.2,843.8 L 887.0,845.3 L 887.7,846.4 L 888.5,847.4 L 889.2,848.3 
L 890.0,848.3 L 890.7,848.3 L 891.4,848.1 L 892.2,848.0 L 892.9,847.9 L 893.7,847.4 L 894.4,847.3 L 895.2,846.7 L 895.9,846.4 M 152.1,365.1 
L 155.8,372.3 L 159.6,380.0 L 163.3,386.7 L 167.0,392.7 L 170.8,397.2 L 174.5,401.2 L 178.3,404.3 L 182.0,405.5 L 185.7,406.2 L 189.5,406.0 
L 193.2,405.3 L 197.0,405.5 L 200.7,404.8 L 204.4,405.4 L 208.2,406.8 L 211.9,407.5 L 215.6,410.2 L 219.4,413.0 L 223.1,415.8 L 226.9,419.1 
L 230.6,422.3 L 234.3,425.0 L 238.1,427.0 L 241.8,429.1 L 245.5,432.4 L 249.3,436.0 L 253.0,437.6 L 256.8,439.3 L 260.5,441.4 L 264.2,445.0 
L 268.0,448.1 L 271.7,450.8 L 275.4,454.8 L 279.2,458.2 L 282.9,461.4 L 286.7,464.4 L 290.4,467.0 L 294.1,469.1 L 297.9,470.5 L 301.6,470.8 
L 305.4,470.5 L 309.1,469.4 L 312.8,467.9 L 316.6,466.8 L 320.3,465.8 L 324.0,463.9 L 327.8,462.7 L 331.5,462.8 L 335.3,462.9 L 339.0,463.7 
L 342.7,464.6 L 346.5,466.1 L 350.2,467.4 L 353.9,468.5 L 357.7,469.5 L 361.4,470.8 L 365.2,471.0 L 368.9,470.6 L 372.6,470.7 L 376.4,470.7 
L 380.1,470.5 L 383.8,469.4 L 387.6,469.1 L 391.3,469.3 L 395.1,469.3 L 398.8,469.9 L 402.5,470.3 L 406.3,471.9 L 410.0,473.8 L 413.7,475.8 
L 417.5,479.0 L 421.2,482.2 L 425.0,485.8 L 428.7,489.2 L 432.4,492.4 L 436.2,494.0 L 439.9,495.1 L 443.7,495.3 L 447.4,495.3 L 451.1,494.2 
L 454.9,492.4 L 458.6,491.1 L 462.3,490.2 L 466.1,489.5 L 469.8,489.3 L 473.6,490.4 L 477.3,492.6 L 481.0,494.6 L 484.8,496.8 L 488.5,498.4 
L 492.2,502.3 L 496.0,504.3 L 499.7,508.3 L 503.5,511.7 L 507.2,515.1 L 510.9,517.0 L 514.7,519.1 L 518.4,521.1 L 522.1,522.3 L 525.9,522.6 
L 529.6,520.8 L 533.4,518.6 L 537.1,515.6 L 540.8,513.0 L 544.6,509.7 L 548.3,507.1 L 552.0,505.7 L 555.8,504.1 L 559.5,504.3 L 563.3,504.0 
L 567.0,505.2 L 570.7,507.5 L 574.5,510.4 L 578.2,512.8 L 582.0,514.1 L 585.7,516.3 L 589.4,518.3 L 593.2,520.9 L 596.9,522.2 L 600.6,523.3 
L 604.4,524.0 L 608.1,525.4 L 611.9,525.7 L 615.6,525.6 L 619.3,524.2 L 623.1,524.4 L 626.8,523.5 L 630.5,522.0 L 634.3,520.5 L 638.0,518.6 
L 641.8,516.5 L 645.5,515.8 L 649.2,515.1 L 653.0,513.8 L 656.7,512.9 L 660.4,513.0 L 664.2,513.3 L 667.9,514.3 L 671.7,515.6 L 675.4,518.9 
L 679.1,521.1 L 682.9,524.4 L 686.6,526.0 L 690.4,528.6 L 694.1,530.3 L 697.8,531.8 L 701.6,533.6 L 705.3,534.1 L 709.0,533.3 L 712.8,532.7 
L 716.5,533.0 L 720.3,532.8 L 724.0,531.7 L 727.7,531.4 L 731.5,530.7 L 735.2,530.1 L 738.9,528.5 L 742.7,527.6 L 746.4,526.5 L 750.2,526.1 
L 753.9,524.9 L 757.6,524.3 L 761.4,524.0 L 765.1,522.7 L 768.8,522.5 L 772.6,521.3 L 776.3,519.9 L 780.1,518.7 L 783.8,517.1 L 787.5,515.7 
L 791.3,514.2 L 795.0,512.4 L 798.7,510.9 L 802.5,509.8 L 806.2,509.1 L 810.0,508.8 L 813.7,508.6 L 817.4,508.7 L 821.2,508.8 L 824.9,508.9 
L 828.7,509.9 L 832.4,511.1 L 836.1,511.6 L 839.9,513.0 L 843.6,513.6 L 847.3,514.8 L 851.1,515.9 L 854.8,515.7 L 858.6,516.6 L 862.3,517.9 
L 866.0,518.9 L 869.8,519.9 L 873.5,520.7 L 877.2,521.9 L 881.0,523.7 L 884.7,525.5 L 888.5,527.0 L 892.2,529.4 L 895.9,531.1 "
 />
<path stroke="#0000ff" stroke-width="1" fill="none"
  d="M 149.1,210.1 
L 149.9,221.9 L 150.6,234.8 L 151.3,248.6 L 152.1,264.9 L 152.8,281.6 L 153.6,299.0 L 154.3,316.6 L 155.1,332.5 L 155.8,349.8 L 156.6,364.1 
L 157.3,376.4 L 158.1,386.2 L 158.8,394.3 L 159.6,400.6 L 160.3,405.8 L 161.1,410.9 L 161.8,414.9 L 162.6,420.0 L 163.3,425.2 L 164.1,430.7 
L 164.8,436.0 L 165.6,441.9 L 166.3,447.6 L 167.0,452.9 L 167.8,458.3 L 168.5,462.9 L 169.3,467.6 L 170.0,471.6 L 170.8,475.1 L 171.5,479.1 
L 172.3,483.2 L 173.0,488.0 L 173.8,492.6 L 174.5,498.3 L 175.3,503.5 L 176.0,509.0 L 176.8,514.8 L 177.5,519.4 L 178.3,525.0 L 179.0,530.6 
L 179.8,536.3 L 180.5,542.8 L 181.3,548.5 L 182.0,555.5 L 182.7,562.4 L 183.5,570.7 L 184.2,578.3 L 185.0,585.3 L 185.7,591.1 L 186.5,596.8 
L 187.2,601.0 L 188.0,603.3 L 188.7,606.8 L 189.5,608.8 L 190.2,610.7 L 191.0,611.4 L 191.7,612.4 L 192.5,613.8 L 193.2,614.5 L 194.0,615.9 
L 194.7,616.4 L 195.5,617.8 L 196.2,618.2 L 197.0,619.6 L 197.7,622.2 L 198.4,624.4 L 199.2,628.0 L 199.9,632.4 L 200.7,638.1 L 201.4,643.1 
L 202.2,649.5 L 202.9,655.9 L 203.7,662.0 L 204.4,667.7 L 205.2,672.7 L 205.9,676.8 L 206.7,679.8 L 207.4,683.1 L 208.2,685.1 L 208.9,686.3 
L 209.7,687.5 L 210.4,688.1 L 211.2,689.5 L 211.9,689.1 L 212.7,689.8 L 213.4,690.6 L 214.1,692.1 L 214.9,693.2 L 215.6,695.2 L 216.4,697.4 
L 217.1,700.5 L 217.9,703.5 L 218.6,707.6 L 219.4,711.9 L 220.1,715.0 L 220.9,718.8 L 221.6,722.4 L 222.4,724.8 L 223.1,726.5 L 223.9,727.2 
L 224.6,728.5 L 225.4,727.9 L 226.1,726.7 L 226.9,724.8 L 227.6,722.7 L 228.4,720.2 L 229.1,718.8 L 229.8,716.9 L 230.6,716.5 L 231.3,716.5 
L 232.1,717.6 L 232.8,720.0 L 233.6,722.6 L 234.3,724.9 L 235.1,728.4 L 235.8,731.5 L 236.6,734.1 L 237.3,735.5 L 238.1,736.4 L 238.8,737.3 
L 239.6,737.7 L 240.3,739.1 L 241.1,740.5 L 241.8,740.6 L 242.6,741.2 L 243.3,742.1 L 244.0,742.5 L 244.8,742.4 L 245.5,741.9 L 246.3,741.8 
L 247.0,741.1 L 247.8,740.6 L 248.5,741.0 L 249.3,741.3 L 250.0,742.8 L 250.8,744.7 L 251.5,746.3 L 252.3,748.2 L 253.0,749.1 L 253.8,749.1 
L 254.5,749.9 L 255.3,749.1 L 256.0,747.5 L 256.8,746.1 L 257.5,744.6 L 258.3,743.8 L 259.0,742.8 L 259.7,742.8 L 260.5,742.5 L 261.2,743.1 
L 262.0,743.6 L 262.7,744.3 L 263.5,744.5 L 264.2,745.5 L 265.0,745.8 L 265.7,746.6 L 266.5,746.8 L 267.2,747.3 L 268.0,748.5 L 268.7,749.5 
L 269.5,750.7 L 270.2,752.7 L 271.0,753.9 L 271.7,755.3 L 272.5,757.5 L 273.2,759.3 L 274.0,761.0 L 274.7,763.7 L 275.4,765.9 L 276.2,768.4 
L 276.9,769.7 L 277.7,771.3 L 278.4,772.7 L 279.2,773.8 L 279.9,773.1 L 280.7,772.3 L 281.4,770.7 L 282.2,767.7 L 282.9,764.6 L 283.7,762.4 
L 284.4,759.9 L 285.2,757.5 L 285.9,756.1 L 286.7,755.7 L 287.4,755.7 L 288.2,756.8 L 288.9,758.3 L 289.7,760.2 L 290.4,762.1 L 291.1,763.2 
L 291.9,764.4 L 292.6,766.1 L 293.4,766.5 L 294.1,767.5 L 294.9,769.2 L 295.6,771.4 L 296.4,774.0 L 297.1,777.8 L 297.9,781.6 L 298.6,785.6 
L 299.4,789.9 L 300.1,794.2 L 300.9,797.7 L 301.6,800.6 L 302.4,802.5 L 303.1,803.7 L 303.9,804.3 L 304.6,804.8 L 305.4,804.9 L 306.1,806.0 
L 306.8,807.1 L 307.6,808.3 L 308.3,809.3 L 309.1,811.6 L 309.8,813.6 L 310.6,816.2 L 311.3,818.2 L 312.1,819.4 L 312.8,819.9 L 313.6,820.4 
L 314.3,820.3 L 315.1,819.5 L 315.8,819.1 L 316.6,818.2 L 317.3,816.7 L 318.1,815.8 L 318.8,814.8 L 319.6,814.1 L 320.3,814.3 L 321.0,814.5 
L 321.8,815.0 L 322.5,815.7 L 323.3,816.3 L 324.0,817.2 L 324.8,818.3 L 325.5,819.2 L 326.3,819.3 L 327.0,819.4 L 327.8,819.7 L 328.5,818.6 
L 329.3,818.0 L 330.0,817.0 L 330.8,815.6 L 331.5,814.4 L 332.3,812.7 L 333.0,810.9 L 333.8,809.6 L 334.5,807.6 L 335.3,806.5 L 336.0,806.1 
L 336.7,806.0 L 337.5,806.4 L 338.2,807.6 L 339.0,809.6 L 339.7,811.8 L 340.5,813.7 L 341.2,816.3 L 342.0,818.4 L 342.7,819.9 L 343.5,820.9 
L 344.2,821.5 L 345.0,821.6 L 345.7,821.5 L 346.5,821.4 L 347.2,821.4 L 348.0,820.9 L 348.7,820.9 L 349.5,820.9 L 350.2,821.1 L 351.0,821.4 
L 351.7,821.8 L 352.4,822.3 L 353.2,823.0 L 353.9,823.0 L 354.7,823.2 L 355.4,823.7 L 356.2,823.7 L 356.9,823.3 L 357.7,823.6 L 358.4,823.4 
L 359.2,822.5 L 359.9,822.0 L 360.7,821.1 L 361.4,820.1 L 362.2,819.1 L 362.9,818.2 L 363.7,816.8 L 364.4,815.4 L 365.2,814.2 L 365.9,813.3 
L 366.7,812.5 L 367.4,812.3 L 368.1,811.9 L 368.9,812.0 L 369.6,812.4 L 370.4,812.2 L 371.1,812.7 L 371.9,813.7 L 372.6,814.2 L 373.4,815.1 
L 374.1,815.2 L 374.9,815.8 L 375.6,817.0 L 376.4,818.1 L 377.1,819.3 L 377.9,820.3 L 378.6,821.0 L 379.4,821.5 L 380.1,822.0 L 380.9,822.4 
L 381.6,822.4 L 382.4,821.8 L 383.1,821.1 L 383.8,820.3 L 384.6,819.5 L 385.3,818.7 L 386.1,818.3 L 386.8,818.0 L 387.6,818.2 L 388.3,818.1 
L 389.1,818.7 L 389.8,819.2 L 390.6,819.8 L 391.3,820.7 L 392.1,821.8 L 392.8,822.4 L 393.6,823.0 L 394.3,823.9 L 395.1,824.7 L 395.8,825.3 
L 396.6,825.1 L 397.3,825.6 L 398.0,825.6 L 398.8,825.4 L 399.5,825.4 L 400.3,824.2 L 401.0,823.7 L 401.8,822.5 L 402.5,822.0 L 403.3,821.5 
L 404.0,820.9 L 404.8,820.7 L 405.5,820.6 L 406.3,820.8 L 407.0,820.9 L 407.8,821.6 L 408.5,822.5 L 409.3,823.4 L 410.0,823.8 L 410.8,824.2 
L 411.5,824.5 L 412.3,824.4 L 413.0,824.9 L 413.7,825.0 L 414.5,825.1 L 415.2,824.6 L 416.0,824.5 L 416.7,824.4 L 417.5,824.4 L 418.2,824.1 
L 419.0,824.0 L 419.7,823.9 L 420.5,823.5 L 421.2,823.5 L 422.0,823.8 L 422.7,824.1 L 423.5,824.7 L 424.2,825.0 L 425.0,825.6 L 425.7,825.9 
L 426.5,826.0 L 427.2,825.9 L 428.0,825.1 L 428.7,824.0 L 429.4,822.2 L 430.2,820.5 L 430.9,818.6 L 431.7,816.6 L 432.4,814.7 L 433.2,813.1 
L 433.9,812.4 L 434.7,812.3 L 435.4,813.1 L 436.2,814.1 L 436.9,816.0 L 437.7,817.6 L 438.4,819.5 L 439.2,821.8 L 439.9,823.3 L 440.7,824.9 
L 441.4,826.1 L 442.2,827.5 L 442.9,828.1 L 443.7,828.9 L 444.4,829.9 L 445.1,830.9 L 445.9,831.8 L 446.6,831.9 L 447.4,832.2 L 448.1,831.9 
L 448.9,831.4 L 449.6,830.1 L 450.4,828.9 L 451.1,827.6 L 451.9,825.9 L 452.6,824.7 L 453.4,823.6 L 454.1,822.6 L 454.9,822.1 L 455.6,821.8 
L 456.4,821.9 L 457.1,821.7 L 457.9,821.5 L 458.6,821.9 L 459.4,821.9 L 460.1,821.6 L 460.8,821.9 L 461.6,822.1 L 462.3,823.0 L 463.1,823.7 
L 463.8,824.7 L 464.6,826.2 L 465.3,827.6 L 466.1,829.0 L 466.8,830.3 L 467.6,831.2 L 468.3,832.0 L 469.1,832.0 L 469.8,831.7 L 470.6,831.4 
L 471.3,830.7 L 472.1,829.7 L 472.8,828.9 L 473.6,827.9 L 474.3,827.1 L 475.0,826.0 L 475.8,825.3 L 476.5,824.6 L 477.3,824.1 L 478.0,823.8 
L 478.8,824.0 L 479.5,824.6 L 480.3,825.4 L 481.0,827.1 L 481.8,828.8 L 482.5,830.0 L 483.3,831.1 L 484.0,831.7 L 484.8,831.8 L 485.5,831.5 
L 486.3,830.2 L 487.0,829.0 L 487.8,827.8 L 488.5,826.3 L 489.3,825.3 L 490.0,824.8 L 490.7,825.1 L 491.5,825.4 L 492.2,825.8 L 493.0,826.6 
L 493.7,826.5 L 494.5,826.3 L 495.2,826.2 L 496.0,825.3 L 496.7,824.4 L 497.5,824.1 L 498.2,823.1 L 499.0,822.5 L 499.7,822.1 L 500.5,822.2 
L 501.2,822.6 L 502.0,823.0 L 502.7,822.8 L 503.5,822.9 L 504.2,822.8 L 505.0,822.0 L 505.7,820.7 L 506.4,820.0 L 507.2,819.1 L 507.9,818.2 
L 508.7,817.8 L 509.4,817.3 L 510.2,816.6 L 510.9,817.2 L 511.7,817.9 L 512.4,818.8 L 513.2,820.0 L 513.9,821.8 L 514.7,823.1 L 515.4,825.3 
L 516.2,826.8 L 516.9,828.6 L 517.7,830.7 L 518.4,832.1 L 519.2,832.4 L 519.9,832.6 L 520.7,832.0 L 521.4,831.3 L 522.1,830.2 L 522.9,828.8 
L 523.6,827.0 L 524.4,825.5 L 525.1,824.2 L 525.9,823.7 L 526.6,823.2 L 527.4,823.4 L 528.1,823.7 L 528.9,824.5 L 529.6,825.3 L 530.4,826.3 
L 531.1,826.8 L 531.9,827.2 L 532.6,827.1 L 533.4,826.8 L 534.1,825.9 L 534.9,825.2 L 535.6,824.5 L 536.4,823.7 L 537.1,823.2 L 537.8,822.8 
L 538.6,823.0 L 539.3,823.5 L 540.1,824.5 L 540.8,824.9 L 541.6,825.3 L 542.3,825.2 L 543.1,825.5 L 543.8,825.4 L 544.6,825.2 L 545.3,824.6 
L 546.1,824.3 L 546.8,823.7 L 547.6,823.7 L 548.3,823.7 L 549.1,823.9 L 549.8,824.0 L 550.6,824.7 L 551.3,825.1 L 552.0,825.7 L 552.8,826.2 
L 553.5,827.4 L 554.3,828.5 L 555.0,829.8 L 555.8,831.3 L 556.5,832.5 L 557.3,833.4 L 558.0,834.1 L 558.8,834.1 L 559.5,833.8 L 560.3,833.0 
L 561.0,831.8 L 561.8,830.4 L 562.5,829.2 L 563.3,827.8 L 564.0,826.5 L 564.8,826.3 L 565.5,825.8 L 566.3,825.6 L 567.0,825.9 L 567.7,826.5 
L 568.5,826.5 L 569.2,827.1 L 570.0,827.8 L 570.7,827.9 L 571.5,828.2 L 572.2,828.3 L 573.0,828.0 L 573.7,828.0 L 574.5,827.5 L 575.2,827.0 
L 576.0,826.9 L 576.7,826.9 L 577.5,826.6 L 578.2,827.1 L 579.0,827.6 L 579.7,827.9 L 580.5,827.9 L 581.2,828.1 L 582.0,828.0 L 582.7,827.4 
L 583.4,826.8 L 584.2,825.9 L 584.9,824.9 L 585.7,824.2 L 586.4,824.0 L 587.2,824.0 L 587.9,824.4 L 588.7,825.4 L 589.4,826.9 L 590.2,828.8 
L 590.9,830.7 L 591.7,833.1 L 592.4,835.5 L 593.2,837.7 L 593.9,839.4 L 594.7,840.8 L 595.4,841.3 L 596.2,841.7 L 596.9,840.5 L 597.7,839.2 
L 598.4,836.9 L 599.1,834.6 L 599.9,832.6 L 600.6,830.4 L 601.4,828.9 L 602.1,828.6 L 602.9,829.0 L 603.6,829.9 L 604.4,831.2 L 605.1,832.7 
L 605.9,834.4 L 606.6,835.8 L 607.4,836.3 L 608.1,836.1 L 608.9,835.4 L 609.6,834.5 L 610.4,832.8 L 611.1,831.0 L 611.9,829.5 L 612.6,828.7 
L 613.4,828.0 L 614.1,828.0 L 614.8,827.8 L 615.6,828.3 L 616.3,829.1 L 617.1,830.1 L 617.8,831.4 L 618.6,832.1 L 619.3,832.6 L 620.1,833.2 
L 620.8,833.8 L 621.6,833.6 L 622.3,834.1 L 623.1,834.2 L 623.8,834.9 L 624.6,835.4 L 625.3,835.8 L 626.1,837.2 L 626.8,838.4 L 627.6,839.8 
L 628.3,841.0 L 629.1,842.1 L 629.8,842.8 L 630.5,843.2 L 631.3,843.3 L 632.0,842.8 L 632.8,842.0 L 633.5,840.8 L 634.3,840.3 L 635.0,839.4 
L 635.8,838.7 L 636.5,838.0 L 637.3,837.8 L 638.0,838.1 L 638.8,837.9 L 639.5,838.1 L 640.3,838.3 L 641.0,838.4 L 641.8,838.1 L 642.5,837.6 
L 643.3,836.9 L 644.0,835.5 L 644.7,834.6 L 645.5,833.4 L 646.2,832.1 L 647.0,830.3 L 647.7,829.4 L 648.5,828.8 L 649.2,828.4 L 650.0,828.0 
L 650.7,827.8 L 651.5,828.5 L 652.2,829.5 L 653.0,830.4 L 653.7,831.5 L 654.5,832.6 L 655.2,833.3 L 656.0,833.9 L 656.7,834.2 L 657.5,834.1 
L 658.2,833.7 L 659.0,833.6 L 659.7,833.0 L 660.4,832.6 L 661.2,832.1 L 661.9,832.4 L 662.7,833.0 L 663.4,833.8 L 664.2,834.4 L 664.9,834.8 
L 665.7,835.8 L 666.4,836.2 L 667.2,836.1 L 667.9,835.8 L 668.7,835.6 L 669.4,835.3 L 670.2,834.8 L 670.9,834.8 L 671.7,835.0 L 672.4,835.8 
L 673.2,836.3 L 673.9,837.4 L 674.7,838.3 L 675.4,838.7 L 676.1,838.7 L 676.9,838.7 L 677.6,838.2 L 678.4,837.3 L 679.1,836.5 L 679.9,836.3 
L 680.6,836.3 L 681.4,836.3 L 682.1,837.0 L 682.9,838.3 L 683.6,839.2 L 684.4,840.3 L 685.1,840.9 L 685.9,840.8 L 686.6,840.5 L 687.4,839.2 
L 688.1,838.6 L 688.9,837.2 L 689.6,835.1 L 690.4,833.3 L 691.1,831.7 L 691.8,830.3 L 692.6,829.1 L 693.3,828.5 L 694.1,828.4 L 694.8,828.5 
L 695.6,829.4 L 696.3,830.5 L 697.1,831.5 L 697.8,832.5 L 698.6,833.6 L 699.3,833.9 L 700.1,834.0 L 700.8,832.7 L 701.6,831.8 L 702.3,830.8 
L 703.1,830.0 L 703.8,829.0 L 704.6,829.1 L 705.3,830.0 L 706.1,831.0 L 706.8,832.4 L 707.5,834.1 L 708.3,835.7 L 709.0,836.8 L 709.8,837.9 
L 710.5,838.6 L 711.3,838.5 L 712.0,837.8 L 712.8,837.3 L 713.5,836.8 L 714.3,836.1 L 715.0,835.6 L 715.8,834.9 L 716.5,834.5 L 717.3,833.7 
L 718.0,833.3 L 718.8,833.4 L 719.5,833.4 L 720.3,833.2 L 721.0,833.2 L 721.7,834.4 L 722.5,835.5 L 723.2,836.7 L 724.0,838.7 L 724.7,840.6 
L 725.5,842.9 L 726.2,845.2 L 727.0,847.3 L 727.7,848.8 L 728.5,849.9 L 729.2,850.9 L 730.0,850.7 L 730.7,849.5 L 731.5,848.1 L 732.2,846.3 
L 733.0,844.1 L 733.7,841.9 L 734.5,839.5 L 735.2,837.6 L 736.0,836.4 L 736.7,835.7 L 737.4,835.6 L 738.2,835.3 L 738.9,835.9 L 739.7,836.3 
L 740.4,836.9 L 741.2,836.9 L 741.9,836.4 L 742.7,836.4 L 743.4,836.5 L 744.2,836.2 L 744.9,836.1 L 745.7,836.9 L 746.4,837.5 L 747.2,838.5 
L 747.9,839.4 L 748.7,840.3 L 749.4,840.6 L 750.2,841.0 L 750.9,840.6 L 751.7,839.3 L 752.4,838.2 L 753.1,836.8 L 753.9,835.9 L 754.6,834.7 
L 755.4,833.8 L 756.1,833.1 L 756.9,833.6 L 757.6,834.4 L 758.4,835.2 L 759.1,836.2 L 759.9,837.6 L 760.6,839.1 L 761.4,840.1 L 762.1,840.6 
L 762.9,840.8 L 763.6,840.6 L 764.4,839.9 L 765.1,838.6 L 765.9,837.2 L 766.6,836.0 L 767.4,835.2 L 768.1,834.7 L 768.8,834.6 L 769.6,835.1 
L 770.3,835.9 L 771.1,837.1 L 771.8,838.4 L 772.6,839.4 L 773.3,840.1 L 774.1,840.7 L 774.8,840.6 L 775.6,839.8 L 776.3,839.3 L 777.1,838.2 
L 777.8,837.4 L 778.6,836.2 L 779.3,835.5 L 780.1,834.6 L 780.8,834.3 L 781.6,834.2 L 782.3,833.4 L 783.1,833.2 L 783.8,832.7 L 784.5,832.7 
L 785.3,832.5 L 786.0,832.6 L 786.8,832.3 L 787.5,832.9 L 788.3,833.9 L 789.0,835.1 L 789.8,836.8 L 790.5,838.1 L 791.3,840.0 L 792.0,841.6 
L 792.8,843.2 L 793.5,843.7 L 794.3,844.0 L 795.0,844.2 L 795.8,843.8 L 796.5,843.3 L 797.3,842.2 L 798.0,841.3 L 798.7,840.6 L 799.5,840.0 
L 800.2,839.5 L 801.0,838.7 L 801.7,838.5 L 802.5,838.6 L 803.2,838.6 L 804.0,838.5 L 804.7,838.0 L 805.5,838.2 L 806.2,838.8 L 807.0,839.5 
L 807.7,840.1 L 808.5,840.7 L 809.2,841.3 L 810.0,841.9 L 810.7,842.6 L 811.5,842.8 L 812.2,842.8 L 813.0,842.8 L 813.7,842.5 L 814.4,841.4 
L 815.2,840.6 L 815.9,840.1 L 816.7,839.5 L 817.4,838.9 L 818.2,838.1 L 818.9,837.3 L 819.7,836.8 L 820.4,836.3 L 821.2,835.8 L 821.9,835.3 
L 822.7,835.3 L 823.4,835.1 L 824.2,835.2 L 824.9,835.2 L 825.7,835.1 L 826.4,835.5 L 827.2,835.8 L 827.9,835.5 L 828.7,835.3 L 829.4,835.1 
L 830.1,835.2 L 830.9,835.0 L 831.6,835.2 L 832.4,835.5 L 833.1,836.5 L 833.9,837.5 L 834.6,838.5 L 835.4,839.4 L 836.1,840.6 L 836.9,841.1 
L 837.6,841.2 L 838.4,841.1 L 839.1,840.9 L 839.9,840.4 L 840.6,839.9 L 841.4,839.3 L 842.1,838.9 L 842.9,838.3 L 843.6,838.1 L 844.4,838.2 
L 845.1,838.4 L 845.8,838.6 L 846.6,839.1 L 847.3,839.1 L 848.1,839.0 L 848.8,839.2 L 849.6,839.3 L 850.3,839.1 L 851.1,839.0 L 851.8,838.1 
L 852.6,837.7 L 853.3,837.0 L 854.1,836.3 L 854.8,835.9 L 855.6,836.5 L 856.3,836.6 L 857.1,837.6 L 857.8,837.7 L 858.6,838.3 L 859.3,838.9 
L 860.1,839.7 L 860.8,839.8 L 861.5,839.2 L 862.3,838.5 L 863.0,837.2 L 863.8,836.1 L 864.5,835.3 L 865.3,834.3 L 866.0,833.5 L 866.8,833.2 
L 867.5,833.0 L 868.3,833.0 L 869.0,833.8 L 869.8,834.0 L 870.5,835.4 L 871.3,835.7 L 872.0,836.5 L 872.8,837.1 L 873.5,837.7 L 874.3,838.0 
L 875.0,838.2 L 875.7,837.9 L 876.5,836.9 L 877.2,836.1 L 878.0,835.1 L 878.7,834.3 L 879.5,833.2 L 880.2,832.3 L 881.0,831.9 L 881.7,831.3 
L 882.5,832.0 L 883.2,832.5 L 884.0,833.3 L 884.7,833.9 L 885.5,834.8 L 886.2,835.7 L 887.0,836.6 L 887.7,836.9 L 888.5,837.2 L 889.2,837.8 
L 890.0,838.2 L 890.7,838.5 L 891.4,838.9 L 892.2,839.3 L 892.9,840.0 L 893.7,840.6 L 894.4,841.7 L 895.2,842.0 L 895.9,842.7 M 152.1,318.9 
L 155.8,324.2 L 159.6,330.3 L 163.3,336.2 L 167.0,341.8 L 170.8,346.8 L 174.5,351.8 L 178.3,356.3 L 182.0,359.5 L 185.7,362.5 L 189.5,365.3 
L 193.2,367.4 L 197.0,370.7 L 200.7,373.0 L 204.4,375.9 L 208.2,379.1 L 211.9,381.7 L 215.6,385.9 L 219.4,390.1 L 223.1,393.4 L 226.9,397.2 
L 230.6,400.4 L 234.3,402.9 L 238.1,404.4 L 241.8,405.7 L 245.5,407.9 L 249.3,409.5 L 253.0,408.7 L 256.8,407.8 L 260.5,407.0 L 264.2,407.4 
L 268.0,407.3 L 271.7,407.2 L 275.4,408.8 L 279.2,409.9 L 282.9,412.1 L 286.7,415.0 L 290.4,417.4 L 294.1,420.4 L 297.9,423.1 L 301.6,424.9 
L 305.4,425.6 L 309.1,424.6 L 312.8,424.0 L 316.6,422.8 L 320.3,420.4 L 324.0,417.1 L 327.8,413.8 L 331.5,411.3 L 335.3,409.0 L 339.0,406.9 
L 342.7,406.0 L 346.5,405.4 L 350.2,405.6 L 353.9,406.4 L 357.7,407.8 L 361.4,409.8 L 365.2,411.2 L 368.9,413.1 L 372.6,415.2 L 376.4,416.6 
L 380.1,418.1 L 383.8,418.7 L 387.6,419.8 L 391.3,421.2 L 395.1,422.3 L 398.8,423.1 L 402.5,424.0 L 406.3,426.0 L 410.0,427.4 L 413.7,428.8 
L 417.5,430.8 L 421.2,432.9 L 425.0,434.3 L 428.7,435.6 L 432.4,435.7 L 436.2,435.4 L 439.9,434.1 L 443.7,432.7 L 447.4,431.4 L 451.1,428.3 
L 454.9,425.3 L 458.6,422.9 L 462.3,421.3 L 466.1,420.2 L 469.8,419.4 L 473.6,420.1 L 477.3,421.9 L 481.0,423.3 L 484.8,425.1 L 488.5,428.0 
L 492.2,432.4 L 496.0,435.8 L 499.7,439.5 L 503.5,443.6 L 507.2,446.5 L 510.9,448.5 L 514.7,450.4 L 518.4,451.7 L 522.1,452.1 L 525.9,451.5 
L 529.6,449.5 L 533.4,447.8 L 537.1,445.6 L 540.8,443.8 L 544.6,442.2 L 548.3,441.5 L 552.0,441.4 L 555.8,441.6 L 559.5,443.2 L 563.3,444.7 
L 567.0,447.1 L 570.7,450.7 L 574.5,454.7 L 578.2,458.3 L 582.0,461.0 L 585.7,464.3 L 589.4,467.5 L 593.2,470.6 L 596.9,471.6 L 600.6,472.3 
L 604.4,471.6 L 608.1,470.5 L 611.9,468.1 L 615.6,465.4 L 619.3,460.9 L 623.1,457.5 L 626.8,454.1 L 630.5,450.4 L 634.3,447.1 L 638.0,444.5 
L 641.8,442.8 L 645.5,441.7 L 649.2,441.1 L 653.0,440.5 L 656.7,440.6 L 660.4,442.0 L 664.2,444.2 L 667.9,447.3 L 671.7,450.8 L 675.4,456.0 
L 679.1,460.4 L 682.9,465.3 L 686.6,469.4 L 690.4,473.0 L 694.1,475.0 L 697.8,476.1 L 701.6,476.3 L 705.3,475.7 L 709.0,474.2 L 712.8,472.9 
L 716.5,472.3 L 720.3,471.7 L 724.0,471.3 L 727.7,471.5 L 731.5,471.0 L 735.2,471.2 L 738.9,468.9 L 742.7,468.2 L 746.4,467.5 L 750.2,465.6 
L 753.9,464.1 L 757.6,463.9 L 761.4,464.5 L 765.1,464.7 L 768.8,466.0 L 772.6,467.6 L 776.3,468.5 L 780.1,470.2 L 783.8,470.6 L 787.5,470.9 
L 791.3,470.3 L 795.0,469.1 L 798.7,468.0 L 802.5,467.7 L 806.2,466.1 L 810.0,465.1 L 813.7,464.9 L 817.4,464.9 L 821.2,464.5 L 824.9,463.8 
L 828.7,463.3 L 832.4,463.1 L 836.1,461.6 L 839.9,460.4 L 843.6,458.2 L 847.3,456.2 L 851.1,453.8 L 854.8,451.7 L 858.6,451.1 L 862.3,451.2 
L 866.0,452.1 L 869.8,454.2 L 873.5,456.9 L 877.2,460.5 L 881.0,464.8 L 884.7,469.4 L 888.5,474.1 L 892.2,479.2 L 895.9,482.8 "
 />
<path stroke="#000080" stroke-width="1" fill="none"
  d="M 149.1,681.8 
L 149.9,663.3 L 150.6,643.1 L 151.3,620.9 L 152.1,597.2 L 152.8,572.3 L 153.6,546.6 L 154.3,520.9 L 155.1,495.9 L 155.8,469.3 L 156.6,445.4 
L 157.3,424.1 L 158.1,405.4 L 158.8,388.9 L 159.6,374.2 L 160.3,360.6 L 161.1,348.2 L 161.8,337.1 L 162.6,326.6 L 163.3,317.0 L 164.1,308.3 
L 164.8,300.2 L 165.6,292.9 L 166.3,286.6 L 167.0,280.8 L 167.8,275.9 L 168.5,271.8 L 169.3,268.5 L 170.0,265.5 L 170.8,262.7 L 171.5,260.2 
L 172.3,257.6 L 173.0,255.3 L 173.8,252.9 L 174.5,250.2 L 175.3,247.8 L 176.0,245.5 L 176.8,243.2 L 177.5,241.3 L 178.3,239.5 L 179.0,238.0 
L 179.8,236.9 L 180.5,235.8 L 181.3,234.7 L 182.0,233.5 L 182.7,232.5 L 183.5,231.4 L 184.2,230.4 L 185.0,229.5 L 185.7,228.7 L 186.5,228.2 
L 187.2,227.9 L 188.0,227.7 L 188.7,227.7 L 189.5,227.9 L 190.2,228.1 L 191.0,228.3 L 191.7,228.3 L 192.5,227.9 L 193.2,227.7 L 194.0,227.2 
L 194.7,226.6 L 195.5,226.0 L 196.2,225.4 L 197.0,224.8 L 197.7,224.0 L 198.4,223.4 L 199.2,222.8 L 199.9,222.3 L 200.7,221.6 L 201.4,220.9 
L 202.2,220.0 L 202.9,219.0 L 203.7,217.8 L 204.4,216.6 L 205.2,215.3 L 205.9,213.7 L 206.7,212.2 L 207.4,210.5 L 208.2,208.8 L 208.9,207.0 
L 209.7,205.4 L 210.4,203.7 L 211.2,202.0 L 211.9,200.7 L 212.7,199.5 L 213.4,198.5 L 214.1,197.5 L 214.9,197.1 L 215.6,196.7 L 216.4,196.5 
L 217.1,196.5 L 217.9,196.5 L 218.6,196.7 L 219.4,196.7 L 220.1,197.0 L 220.9,197.2 L 221.6,197.4 L 222.4,197.6 L 223.1,197.8 L 223.9,198.1 
L 224.6,198.3 L 225.4,198.6 L 226.1,198.9 L 226.9,199.2 L 227.6,199.4 L 228.4,199.6 L 229.1,199.8 L 229.8,200.0 L 230.6,200.2 L 231.3,200.4 
L 232.1,200.4 L 232.8,200.5 L 233.6,200.5 L 234.3,200.5 L 235.1,200.4 L 235.8,200.4 L 236.6,200.3 L 237.3,200.2 L 238.1,200.1 L 238.8,200.1 
L 239.6,200.1 L 240.3,200.0 L 241.1,199.7 L 241.8,199.5 L 242.6,199.2 L 243.3,198.8 L 244.0,198.4 L 244.8,198.1 L 245.5,197.9 L 246.3,197.8 
L 247.0,197.9 L 247.8,198.1 L 248.5,198.5 L 249.3,198.9 L 250.0,199.4 L 250.8,199.9 L 251.5,200.2 L 252.3,200.5 L 253.0,200.6 L 253.8,200.5 
L 254.5,200.4 L 255.3,200.4 L 256.0,200.3 L 256.8,200.3 L 257.5,200.2 L 258.3,200.2 L 259.0,200.3 L 259.7,200.3 L 260.5,200.4 L 261.2,200.5 
L 262.0,200.6 L 262.7,200.5 L 263.5,200.5 L 264.2,200.4 L 265.0,200.4 L 265.7,200.4 L 266.5,200.5 L 267.2,200.7 L 268.0,200.8 L 268.7,201.1 
L 269.5,201.4 L 270.2,201.6 L 271.0,201.7 L 271.7,201.7 L 272.5,201.6 L 273.2,201.2 L 274.0,200.6 L 274.7,199.9 L 275.4,199.1 L 276.2,198.2 
L 276.9,197.3 L 277.7,196.5 L 278.4,195.9 L 279.2,195.2 L 279.9,194.8 L 280.7,194.7 L 281.4,194.8 L 282.2,195.1 L 282.9,195.6 L 283.7,196.4 
L 284.4,197.1 L 285.2,198.0 L 285.9,198.7 L 286.7,199.4 L 287.4,200.0 L 288.2,200.3 L 288.9,200.4 L 289.7,200.4 L 290.4,200.1 L 291.1,199.7 
L 291.9,198.9 L 292.6,197.7 L 293.4,196.3 L 294.1,194.6 L 294.9,192.7 L 295.6,190.3 L 296.4,187.6 L 297.1,184.7 L 297.9,181.9 L 298.6,179.1 
L 299.4,176.5 L 300.1,174.3 L 300.9,172.6 L 301.6,171.2 L 302.4,170.1 L 303.1,169.4 L 303.9,169.0 L 304.6,168.9 L 305.4,169.0 L 306.1,168.9 
L 306.8,168.8 L 307.6,168.6 L 308.3,168.5 L 309.1,168.4 L 309.8,168.2 L 310.6,168.1 L 311.3,168.0 L 312.1,167.9 L 312.8,167.9 L 313.6,167.9 
L 314.3,167.9 L 315.1,168.0 L 315.8,168.1 L 316.6,168.0 L 317.3,168.0 L 318.1,168.0 L 318.8,168.0 L 319.6,167.9 L 320.3,167.9 L 321.0,167.8 
L 321.8,167.8 L 322.5,167.7 L 323.3,167.7 L 324.0,167.7 L 324.8,167.7 L 325.5,167.7 L 326.3,167.6 L 327.0,167.6 L 327.8,167.6 L 328.5,167.7 
L 329.3,167.8 L 330.0,167.8 L 330.8,167.8 L 331.5,167.9 L 332.3,168.1 L 333.0,168.1 L 333.8,168.2 L 334.5,168.3 L 335.3,168.4 L 336.0,168.5 
L 336.7,168.7 L 337.5,168.8 L 338.2,168.9 L 339.0,168.9 L 339.7,168.9 L 340.5,168.9 L 341.2,168.7 L 342.0,168.6 L 342.7,168.5 L 343.5,168.4 
L 344.2,168.3 L 345.0,168.2 L 345.7,168.3 L 346.5,168.3 L 347.2,168.5 L 348.0,168.8 L 348.7,168.9 L 349.5,169.2 L 350.2,169.5 L 351.0,169.9 
L 351.7,170.2 L 352.4,170.4 L 353.2,170.8 L 353.9,171.0 L 354.7,171.2 L 355.4,171.3 L 356.2,171.3 L 356.9,171.2 L 357.7,171.0 L 358.4,170.9 
L 359.2,170.7 L 359.9,170.4 L 360.7,170.2 L 361.4,170.1 L 362.2,170.0 L 362.9,170.0 L 363.7,170.0 L 364.4,170.1 L 365.2,170.3 L 365.9,170.3 
L 366.7,170.4 L 367.4,170.4 L 368.1,170.4 L 368.9,170.5 L 369.6,170.5 L 370.4,170.5 L 371.1,170.4 L 371.9,170.4 L 372.6,170.5 L 373.4,170.5 
L 374.1,170.6 L 374.9,170.7 L 375.6,170.7 L 376.4,170.6 L 377.1,170.7 L 377.9,170.7 L 378.6,170.8 L 379.4,171.0 L 380.1,171.0 L 380.9,171.2 
L 381.6,171.3 L 382.4,171.5 L 383.1,171.6 L 383.8,171.7 L 384.6,171.7 L 385.3,171.6 L 386.1,171.5 L 386.8,171.4 L 387.6,171.2 L 388.3,171.1 
L 389.1,171.1 L 389.8,171.0 L 390.6,170.9 L 391.3,170.9 L 392.1,170.9 L 392.8,171.1 L 393.6,171.2 L 394.3,171.4 L 395.1,171.6 L 395.8,171.9 
L 396.6,172.2 L 397.3,172.5 L 398.0,172.8 L 398.8,173.0 L 399.5,173.2 L 400.3,173.3 L 401.0,173.2 L 401.8,173.1 L 402.5,172.9 L 403.3,172.6 
L 404.0,172.3 L 404.8,172.0 L 405.5,171.7 L 406.3,171.6 L 407.0,171.4 L 407.8,171.3 L 408.5,171.3 L 409.3,171.3 L 410.0,171.5 L 410.8,171.6 
L 411.5,171.9 L 412.3,172.1 L 413.0,172.5 L 413.7,172.9 L 414.5,173.2 L 415.2,173.7 L 416.0,174.2 L 416.7,174.5 L 417.5,174.8 L 418.2,175.1 
L 419.0,175.2 L 419.7,175.2 L 420.5,175.1 L 421.2,175.1 L 422.0,174.8 L 422.7,174.5 L 423.5,174.2 L 424.2,173.9 L 425.0,173.5 L 425.7,173.2 
L 426.5,172.8 L 427.2,172.5 L 428.0,172.2 L 428.7,171.9 L 429.4,171.8 L 430.2,171.6 L 430.9,171.5 L 431.7,171.6 L 432.4,171.7 L 433.2,171.8 
L 433.9,172.0 L 434.7,172.3 L 435.4,172.5 L 436.2,172.6 L 436.9,172.8 L 437.7,172.8 L 438.4,172.8 L 439.2,172.8 L 439.9,172.8 L 440.7,172.8 
L 441.4,172.8 L 442.2,172.9 L 442.9,173.0 L 443.7,173.2 L 444.4,173.3 L 445.1,173.4 L 445.9,173.4 L 446.6,173.4 L 447.4,173.4 L 448.1,173.4 
L 448.9,173.4 L 449.6,173.4 L 450.4,173.5 L 451.1,173.8 L 451.9,174.1 L 452.6,174.5 L 453.4,174.8 L 454.1,175.2 L 454.9,175.5 L 455.6,175.7 
L 456.4,175.7 L 457.1,175.7 L 457.9,175.7 L 458.6,175.6 L 459.4,175.5 L 460.1,175.4 L 460.8,175.3 L 461.6,175.2 L 462.3,175.2 L 463.1,175.1 
L 463.8,174.9 L 464.6,174.7 L 465.3,174.5 L 466.1,174.2 L 466.8,174.0 L 467.6,173.7 L 468.3,173.5 L 469.1,173.4 L 469.8,173.3 L 470.6,173.1 
L 471.3,173.0 L 472.1,172.9 L 472.8,172.8 L 473.6,172.8 L 474.3,172.9 L 475.0,173.0 L 475.8,173.2 L 476.5,173.4 L 477.3,173.7 L 478.0,173.9 
L 478.8,174.1 L 479.5,174.1 L 480.3,174.1 L 481.0,174.0 L 481.8,173.8 L 482.5,173.6 L 483.3,173.4 L 484.0,173.2 L 484.8,173.1 L 485.5,173.2 
L 486.3,173.4 L 487.0,173.7 L 487.8,174.0 L 488.5,174.3 L 489.3,174.6 L 490.0,174.8 L 490.7,174.9 L 491.5,174.8 L 492.2,174.7 L 493.0,174.5 
L 493.7,174.3 L 494.5,174.0 L 495.2,173.7 L 496.0,173.6 L 496.7,173.4 L 497.5,173.3 L 498.2,173.2 L 499.0,173.1 L 499.7,173.0 L 500.5,173.0 
L 501.2,173.0 L 502.0,173.1 L 502.7,173.2 L 503.5,173.4 L 504.2,173.7 L 505.0,174.0 L 505.7,174.3 L 506.4,174.5 L 507.2,174.7 L 507.9,174.8 
L 508.7,174.8 L 509.4,174.6 L 510.2,174.5 L 510.9,174.3 L 511.7,174.1 L 512.4,173.9 L 513.2,173.8 L 513.9,173.7 L 514.7,173.7 L 515.4,173.7 
L 516.2,173.8 L 516.9,173.9 L 517.7,174.0 L 518.4,174.1 L 519.2,174.3 L 519.9,174.3 L 520.7,174.4 L 521.4,174.5 L 522.1,174.5 L 522.9,174.4 
L 523.6,174.4 L 524.4,174.4 L 525.1,174.4 L 525.9,174.3 L 526.6,174.3 L 527.4,174.4 L 528.1,174.4 L 528.9,174.4 L 529.6,174.4 L 530.4,174.4 
L 531.1,174.5 L 531.9,174.4 L 532.6,174.3 L 533.4,174.4 L 534.1,174.4 L 534.9,174.3 L 535.6,174.4 L 536.4,174.5 L 537.1,174.5 L 537.8,174.5 
L 538.6,174.5 L 539.3,174.5 L 540.1,174.5 L 540.8,174.4 L 541.6,174.4 L 542.3,174.3 L 543.1,174.2 L 543.8,174.1 L 544.6,174.0 L 545.3,174.0 
L 546.1,173.8 L 546.8,173.8 L 547.6,173.7 L 548.3,173.6 L 549.1,173.6 L 549.8,173.7 L 550.6,173.7 L 551.3,173.8 L 552.0,173.7 L 552.8,173.9 
L 553.5,173.9 L 554.3,174.0 L 555.0,174.2 L 555.8,174.2 L 556.5,174.3 L 557.3,174.3 L 558.0,174.4 L 558.8,174.5 L 559.5,174.6 L 560.3,174.7 
L 561.0,174.7 L 561.8,174.7 L 562.5,174.7 L 563.3,174.7 L 564.0,174.8 L 564.8,174.7 L 565.5,174.6 L 566.3,174.6 L 567.0,174.6 L 567.7,174.6 
L 568.5,174.7 L 569.2,174.7 L 570.0,174.9 L 570.7,175.0 L 571.5,175.2 L 572.2,175.3 L 573.0,175.4 L 573.7,175.4 L 574.5,175.4 L 575.2,175.4 
L 576.0,175.3 L 576.7,175.2 L 577.5,175.0 L 578.2,174.9 L 579.0,174.5 L 579.7,174.2 L 580.5,174.0 L 581.2,173.7 L 582.0,173.4 L 582.7,173.2 
L 583.4,173.1 L 584.2,173.1 L 584.9,173.1 L 585.7,173.2 L 586.4,173.4 L 587.2,173.5 L 587.9,173.7 L 588.7,173.8 L 589.4,173.8 L 590.2,173.8 
L 590.9,173.8 L 591.7,173.8 L 592.4,173.7 L 593.2,173.6 L 593.9,173.7 L 594.7,173.7 L 595.4,173.7 L 596.2,173.6 L 596.9,173.8 L 597.7,173.8 
L 598.4,173.9 L 599.1,174.0 L 599.9,174.1 L 600.6,174.1 L 601.4,174.2 L 602.1,174.3 L 602.9,174.4 L 603.6,174.4 L 604.4,174.3 L 605.1,174.3 
L 605.9,174.3 L 606.6,174.2 L 607.4,174.2 L 608.1,174.2 L 608.9,174.3 L 609.6,174.5 L 610.4,174.6 L 611.1,174.9 L 611.9,175.0 L 612.6,175.2 
L 613.4,175.3 L 614.1,175.3 L 614.8,175.3 L 615.6,175.2 L 616.3,175.1 L 617.1,174.9 L 617.8,174.6 L 618.6,174.4 L 619.3,174.2 L 620.1,174.1 
L 620.8,174.0 L 621.6,173.9 L 622.3,173.7 L 623.1,173.7 L 623.8,173.7 L 624.6,173.7 L 625.3,173.7 L 626.1,173.7 L 626.8,173.6 L 627.6,173.6 
L 628.3,173.6 L 629.1,173.5 L 629.8,173.5 L 630.5,173.5 L 631.3,173.4 L 632.0,173.4 L 632.8,173.3 L 633.5,173.3 L 634.3,173.2 L 635.0,173.0 
L 635.8,172.9 L 636.5,172.8 L 637.3,172.6 L 638.0,172.5 L 638.8,172.5 L 639.5,172.5 L 640.3,172.5 L 641.0,172.6 L 641.8,172.6 L 642.5,172.8 
L 643.3,173.0 L 644.0,173.3 L 644.7,173.6 L 645.5,173.9 L 646.2,174.3 L 647.0,174.6 L 647.7,174.9 L 648.5,175.2 L 649.2,175.4 L 650.0,175.5 
L 650.7,175.4 L 651.5,175.3 L 652.2,175.1 L 653.0,175.0 L 653.7,174.8 L 654.5,174.8 L 655.2,174.7 L 656.0,174.7 L 656.7,174.7 L 657.5,174.6 
L 658.2,174.5 L 659.0,174.4 L 659.7,174.2 L 660.4,173.9 L 661.2,173.6 L 661.9,173.3 L 662.7,173.0 L 663.4,172.9 L 664.2,172.7 L 664.9,172.7 
L 665.7,172.8 L 666.4,172.9 L 667.2,173.0 L 667.9,173.2 L 668.7,173.3 L 669.4,173.4 L 670.2,173.4 L 670.9,173.4 L 671.7,173.4 L 672.4,173.3 
L 673.2,173.2 L 673.9,173.1 L 674.7,173.0 L 675.4,172.8 L 676.1,172.7 L 676.9,172.6 L 677.6,172.6 L 678.4,172.6 L 679.1,172.5 L 679.9,172.5 
L 680.6,172.5 L 681.4,172.6 L 682.1,172.6 L 682.9,172.6 L 683.6,172.5 L 684.4,172.4 L 685.1,172.4 L 685.9,172.2 L 686.6,172.2 L 687.4,172.2 
L 688.1,172.3 L 688.9,172.3 L 689.6,172.6 L 690.4,172.8 L 691.1,173.1 L 691.8,173.4 L 692.6,173.7 L 693.3,173.9 L 694.1,174.0 L 694.8,174.0 
L 695.6,173.9 L 696.3,173.8 L 697.1,173.7 L 697.8,173.5 L 698.6,173.5 L 699.3,173.4 L 700.1,173.5 L 700.8,173.5 L 701.6,173.7 L 702.3,173.9 
L 703.1,174.0 L 703.8,174.3 L 704.6,174.3 L 705.3,174.4 L 706.1,174.3 L 706.8,174.2 L 707.5,174.1 L 708.3,174.1 L 709.0,174.0 L 709.8,174.0 
L 710.5,173.9 L 711.3,173.9 L 712.0,173.9 L 712.8,173.8 L 713.5,173.8 L 714.3,173.7 L 715.0,173.5 L 715.8,173.3 L 716.5,173.1 L 717.3,173.0 
L 718.0,172.9 L 718.8,172.9 L 719.5,173.0 L 720.3,173.1 L 721.0,173.3 L 721.7,173.4 L 722.5,173.5 L 723.2,173.7 L 724.0,173.8 L 724.7,173.7 
L 725.5,173.6 L 726.2,173.5 L 727.0,173.3 L 727.7,173.1 L 728.5,172.9 L 729.2,172.7 L 730.0,172.5 L 730.7,172.5 L 731.5,172.4 L 732.2,172.4 
L 733.0,172.5 L 733.7,172.6 L 734.5,172.9 L 735.2,173.0 L 736.0,173.2 L 736.7,173.3 L 737.4,173.4 L 738.2,173.4 L 738.9,173.4 L 739.7,173.4 
L 740.4,173.3 L 741.2,173.2 L 741.9,173.2 L 742.7,173.1 L 743.4,173.1 L 744.2,173.1 L 744.9,173.2 L 745.7,173.2 L 746.4,173.2 L 747.2,173.2 
L 747.9,173.3 L 748.7,173.2 L 749.4,173.2 L 750.2,173.1 L 750.9,173.2 L 751.7,173.2 L 752.4,173.3 L 753.1,173.3 L 753.9,173.4 L 754.6,173.5 
L 755.4,173.7 L 756.1,173.8 L 756.9,173.8 L 757.6,173.9 L 758.4,174.0 L 759.1,174.0 L 759.9,174.0 L 760.6,173.9 L 761.4,174.0 L 762.1,173.9 
L 762.9,173.9 L 763.6,173.8 L 764.4,173.8 L 765.1,173.9 L 765.9,173.8 L 766.6,173.8 L 767.4,173.7 L 768.1,173.6 L 768.8,173.6 L 769.6,173.3 
L 770.3,173.2 L 771.1,172.9 L 771.8,172.7 L 772.6,172.5 L 773.3,172.3 L 774.1,172.1 L 774.8,172.0 L 775.6,171.9 L 776.3,171.8 L 777.1,171.8 
L 777.8,171.9 L 778.6,172.0 L 779.3,172.1 L 780.1,172.2 L 780.8,172.3 L 781.6,172.5 L 782.3,172.6 L 783.1,172.7 L 783.8,172.8 L 784.5,172.8 
L 785.3,172.9 L 786.0,172.9 L 786.8,172.9 L 787.5,172.9 L 788.3,173.0 L 789.0,172.9 L 789.8,172.9 L 790.5,172.9 L 791.3,172.8 L 792.0,172.8 
L 792.8,172.8 L 793.5,172.8 L 794.3,172.9 L 795.0,173.0 L 795.8,173.1 L 796.5,173.2 L 797.3,173.2 L 798.0,173.3 L 798.7,173.3 L 799.5,173.3 
L 800.2,173.2 L 801.0,173.0 L 801.7,173.0 L 802.5,172.8 L 803.2,172.9 L 804.0,172.9 L 804.7,173.1 L 805.5,173.1 L 806.2,173.3 L 807.0,173.5 
L 807.7,173.7 L 808.5,173.8 L 809.2,173.9 L 810.0,174.0 L 810.7,174.0 L 811.5,174.0 L 812.2,174.0 L 813.0,174.0 L 813.7,174.0 L 814.4,174.0 
L 815.2,174.0 L 815.9,173.9 L 816.7,173.7 L 817.4,173.6 L 818.2,173.5 L 818.9,173.2 L 819.7,173.0 L 820.4,172.7 L 821.2,172.5 L 821.9,172.5 
L 822.7,172.5 L 823.4,172.6 L 824.2,172.8 L 824.9,173.0 L 825.7,173.3 L 826.4,173.6 L 827.2,174.0 L 827.9,174.3 L 828.7,174.5 L 829.4,174.7 
L 830.1,174.7 L 830.9,174.8 L 831.6,174.8 L 832.4,174.8 L 833.1,174.7 L 833.9,174.6 L 834.6,174.4 L 835.4,174.3 L 836.1,174.1 L 836.9,174.0 
L 837.6,173.8 L 838.4,173.6 L 839.1,173.4 L 839.9,173.1 L 840.6,173.0 L 841.4,172.8 L 842.1,172.7 L 842.9,172.6 L 843.6,172.6 L 844.4,172.5 
L 845.1,172.5 L 845.8,172.6 L 846.6,172.6 L 847.3,172.7 L 848.1,172.7 L 848.8,172.8 L 849.6,172.9 L 850.3,173.0 L 851.1,173.1 L 851.8,173.3 
L 852.6,173.6 L 853.3,173.7 L 854.1,173.9 L 854.8,173.9 L 855.6,173.9 L 856.3,173.9 L 857.1,173.8 L 857.8,173.9 L 858.6,173.8 L 859.3,173.7 
L 860.1,173.7 L 860.8,173.6 L 861.5,173.5 L 862.3,173.5 L 863.0,173.5 L 863.8,173.5 L 864.5,173.4 L 865.3,173.3 L 866.0,173.3 L 866.8,173.3 
L 867.5,173.4 L 868.3,173.4 L 869.0,173.5 L 869.8,173.6 L 870.5,173.6 L 871.3,173.5 L 872.0,173.4 L 872.8,173.2 L 873.5,173.0 L 874.3,172.8 
L 875.0,172.5 L 875.7,172.3 L 876.5,172.2 L 877.2,172.2 L 878.0,172.3 L 878.7,172.5 L 879.5,172.6 L 880.2,172.8 L 881.0,172.9 L 881.7,173.1 
L 882.5,173.0 L 883.2,173.0 L 884.0,172.9 L 884.7,172.8 L 885.5,172.6 L 886.2,172.5 L 887.0,172.3 L 887.7,172.4 L 888.5,172.3 L 889.2,172.2 
L 890.0,172.1 L 890.7,172.1 L 891.4,172.0 L 892.2,171.9 L 892.9,171.8 L 893.7,171.7 L 894.4,171.5 L 895.2,171.3 L 895.9,171.1 M 152.1,437.1 
L 155.8,419.1 L 159.6,400.6 L 163.3,382.1 L 167.0,363.9 L 170.8,346.5 L 174.5,330.3 L 178.3,315.5 L 182.0,302.5 L 185.7,288.4 L 189.5,278.2 
L 193.2,270.5 L 197.0,264.5 L 200.7,259.5 L 204.4,255.2 L 208.2,251.2 L 211.9,248.1 L 215.6,245.6 L 219.4,243.7 L 223.1,242.4 L 226.9,241.3 
L 230.6,240.6 L 234.3,240.1 L 238.1,239.8 L 241.8,239.5 L 245.5,239.3 L 249.3,238.9 L 253.0,238.4 L 256.8,237.7 L 260.5,237.1 L 264.2,236.4 
L 268.0,235.1 L 271.7,233.7 L 275.4,231.7 L 279.2,229.0 L 282.9,225.7 L 286.7,221.9 L 290.4,217.7 L 294.1,213.3 L 297.9,208.6 L 301.6,204.1 
L 305.4,200.1 L 309.1,196.7 L 312.8,194.1 L 316.6,192.1 L 320.3,190.7 L 324.0,189.9 L 327.8,189.6 L 331.5,190.0 L 335.3,190.3 L 339.0,190.8 
L 342.7,191.5 L 346.5,192.1 L 350.2,192.9 L 353.9,193.6 L 357.7,194.4 L 361.4,195.1 L 365.2,195.8 L 368.9,196.5 L 372.6,197.0 L 376.4,197.4 
L 380.1,197.6 L 383.8,197.8 L 387.6,197.7 L 391.3,197.6 L 395.1,197.5 L 398.8,197.3 L 402.5,197.1 L 406.3,196.9 L 410.0,197.0 L 413.7,197.0 
L 417.5,197.2 L 421.2,197.4 L 425.0,197.6 L 428.7,197.9 L 432.4,198.0 L 436.2,198.2 L 439.9,198.3 L 443.7,198.3 L 447.4,198.2 L 451.1,198.0 
L 454.9,197.9 L 458.6,197.8 L 462.3,197.8 L 466.1,197.9 L 469.8,198.0 L 473.6,198.1 L 477.3,198.2 L 481.0,198.3 L 484.8,198.4 L 488.5,198.5 
L 492.2,198.4 L 496.0,198.2 L 499.7,198.0 L 503.5,197.6 L 507.2,197.4 L 510.9,197.1 L 514.7,196.8 L 518.4,196.6 L 522.1,196.5 L 525.9,196.5 
L 529.6,196.6 L 533.4,196.7 L 537.1,197.0 L 540.8,197.3 L 544.6,197.5 L 548.3,197.6 L 552.0,197.8 L 555.8,197.8 L 559.5,197.8 L 563.3,197.7 
L 567.0,197.6 L 570.7,197.4 L 574.5,197.2 L 578.2,197.1 L 582.0,196.9 L 585.7,196.8 L 589.4,196.6 L 593.2,196.5 L 596.9,196.4 L 600.6,196.3 
L 604.4,196.2 L 608.1,196.1 L 611.9,196.0 L 615.6,195.9 L 619.3,196.0 L 623.1,196.1 L 626.8,196.1 L 630.5,196.3 L 634.3,196.5 L 638.0,196.6 
L 641.8,196.6 L 645.5,196.7 L 649.2,196.6 L 653.0,196.5 L 656.7,196.3 L 660.4,196.0 L 664.2,195.8 L 667.9,195.6 L 671.7,195.4 L 675.4,195.2 
L 679.1,195.1 L 682.9,195.2 L 686.6,195.2 L 690.4,195.4 L 694.1,195.4 L 697.8,195.5 L 701.6,195.5 L 705.3,195.5 L 709.0,195.5 L 712.8,195.5 
L 716.5,195.4 L 720.3,195.4 L 724.0,195.3 L 727.7,195.2 L 731.5,195.2 L 735.2,195.1 L 738.9,195.1 L 742.7,195.0 L 746.4,194.8 L 750.2,194.6 
L 753.9,194.4 L 757.6,194.1 L 761.4,193.9 L 765.1,193.8 L 768.8,193.7 L 772.6,193.5 L 776.3,193.6 L 780.1,193.7 L 783.8,193.9 L 787.5,194.2 
L 791.3,194.5 L 795.0,194.8 L 798.7,195.2 L 802.5,195.4 L 806.2,195.8 L 810.0,196.1 L 813.7,196.3 L 817.4,196.5 L 821.2,196.6 L 824.9,196.6 
L 828.7,196.5 L 832.4,196.4 L 836.1,196.1 L 839.9,195.9 L 843.6,195.6 L 847.3,195.2 L 851.1,194.9 L 854.8,194.6 L 858.6,194.4 L 862.3,194.3 
L 866.0,194.2 L 869.8,194.2 L 873.5,194.2 L 877.2,194.3 L 881.0,194.5 L 884.7,194.7 L 888.5,194.9 L 892.2,195.1 L 895.9,195.1 "
 />

</g>
</svg>
