<?xml version="1.0" encoding="UTF-8" standalone="no"?>
<svg
   xmlns:dc="http://purl.org/dc/elements/1.1/"
   xmlns:cc="http://creativecommons.org/ns#"
   xmlns:rdf="http://www.w3.org/1999/02/22-rdf-syntax-ns#"
   xmlns:svg="http://www.w3.org/2000/svg"
   xmlns="http://www.w3.org/2000/svg"
   xmlns:sodipodi="http://sodipodi.sourceforge.net/DTD/sodipodi-0.dtd"
   xmlns:inkscape="http://www.inkscape.org/namespaces/inkscape"
   version="1.1"
   width="400px"
   height="400px"
   viewBox="0 0 1000.0 1000.0"
   id="svg4988"
   inkscape:version="0.91 r13725"
   sodipodi:docname="fig_gardenpath_series_II_exp_masked_correct.svg"
   inkscape:export-filename="/Users/rohrlich/svn_docs/figs/fig_gardenpath_series_II_exp_masked_correct.png"
   inkscape:export-xdpi="150"
   inkscape:export-ydpi="150">
  <metadata
     id="metadata5090">
    <rdf:RDF>
      <cc:Work
         rdf:about="">
        <dc:format>image/svg+xml</dc:format>
        <dc:type
           rdf:resource="http://purl.org/dc/dcmitype/StillImage" />
      </cc:Work>
    </rdf:RDF>
  </metadata>
  <defs
     id="defs5088">
    <marker
       inkscape:stockid="Arrow2Lstart"
       orient="auto"
       refY="0"
       refX="0"
       id="Arrow2Lstart"
       style="overflow:visible"
       inkscape:isstock="true">
      <path
         inkscape:connector-curvature="0"
         id="path4302"
         style="fill:#008000;fill-opacity:1;fill-rule:evenodd;stroke:#008000;stroke-width:0.62;stroke-linejoin:round;stroke-opacity:1"
         d="M 8.7,4 -2.2,0.02 8.7,-4 C 7,-1.6 7,1.6 8.7,4 Z"
         transform="matrix(1.1,0,0,1.1,1.1,0)" />
    </marker>
  </defs>
  <sodipodi:namedview
     pagecolor="#ffffff"
     bordercolor="#666666"
     borderopacity="1"
     objecttolerance="10"
     gridtolerance="10"
     guidetolerance="10"
     inkscape:pageopacity="0"
     inkscape:pageshadow="2"
     inkscape:window-width="1454"
     inkscape:window-height="843"
     id="namedview5086"
     showgrid="false"
     inkscape:zoom="1.9"
     inkscape:cx="2.4e+02"
     inkscape:cy="2e+02"
     inkscape:window-x="136"
     inkscape:window-y="42"
     inkscape:window-maximized="0"
     inkscape:current-layer="svg4988" />
  <path
     stroke="#000000"
     stroke-width="2"
     fill="none"
     d="M 266.5,728.0 L 266.5,238.3 L 756.2,238.3 L 756.2,728.0 L 266.5,728.0 "
     id="path4990" />
  <g
     id="g4992">
    <text
       x="509.68839"
       y="806.08124"
       font-size="24.5"
       id="text4994"
       style="font-size:24.5px;font-family:Arial;text-anchor:middle;fill:#000000">Degree of Degradation</text>
    <text
       x="295.29999"
       y="767.88837"
       font-size="24.5"
       id="text4996"
       style="font-style:normal;font-variant:normal;font-weight:normal;font-stretch:normal;font-size:24.5px;line-height:125%;font-family:Arial;-inkscape-font-specification:'Arial, Normal';text-align:center;writing-mode:lr-tb;text-anchor:middle;fill:#000000"
       sodipodi:linespacing="125%">
      <tspan
         sodipodi:role="line"
         id="tspan4200"
         x="295.29999"
         y="767.88837">D7</tspan>
    </text>
    <text
       x="729.11163"
       y="764.46515"
       font-size="24.5"
       id="text4998"
       style="font-style:normal;font-variant:normal;font-weight:normal;font-stretch:normal;font-size:24.5px;line-height:125%;font-family:Arial;-inkscape-font-specification:'Arial, Normal';text-align:center;writing-mode:lr-tb;text-anchor:middle;fill:#000000"
       sodipodi:linespacing="125%">
      <tspan
         sodipodi:role="line"
         id="tspan4202"
         x="729.11163"
         y="764.46515">D1</tspan>
    </text>
    <path
       d="M 266.5,728.0 L 756.2,728.0 M 295.3,740.2 L 295.3,715.7 M 439.4,740.2 L 439.4,715.7 M 583.4,740.2 L 583.4,715.7 M 727.4,740.2 L 727.4,715.7 "
       id="path5000"
       stroke-width="2"
       stroke="#000000"
       fill="none" />
    <path
       stroke="#000000"
       stroke-width="2"
       fill="none"
       d="M 266.5,238.3 L 756.2,238.3 M 295.3,250.5 L 295.3,226.0 M 439.4,250.5 L 439.4,226.0 M 583.4,250.5 L 583.4,226.0 M 727.4,250.5 L 727.4,226.0 "
       id="path5002" />
    <text
       x="249.4"
       y="737.8"
       font-family="Arial"
       font-size="24.5"
       fill="#000000"
       text-anchor="end"
       id="text5004">
10
</text>
    <text
       x="249.4"
       y="676.5"
       font-family="Arial"
       font-size="24.5"
       fill="#000000"
       text-anchor="end"
       id="text5006">
20
</text>
    <text
       x="249.4"
       y="615.3"
       font-family="Arial"
       font-size="24.5"
       fill="#000000"
       text-anchor="end"
       id="text5008">
30
</text>
    <text
       x="249.4"
       y="554.1"
       font-family="Arial"
       font-size="24.5"
       fill="#000000"
       text-anchor="end"
       id="text5010">
40
</text>
    <text
       x="249.4"
       y="492.9"
       font-family="Arial"
       font-size="24.5"
       fill="#000000"
       text-anchor="end"
       id="text5012">
50
</text>
    <text
       x="249.4"
       y="431.7"
       font-family="Arial"
       font-size="24.5"
       fill="#000000"
       text-anchor="end"
       id="text5014">
60
</text>
    <text
       x="249.4"
       y="370.5"
       font-family="Arial"
       font-size="24.5"
       fill="#000000"
       text-anchor="end"
       id="text5016">
70
</text>
    <text
       x="249.4"
       y="309.3"
       font-family="Arial"
       font-size="24.5"
       fill="#000000"
       text-anchor="end"
       id="text5018">
80
</text>
    <text
       x="249.4"
       y="248.0"
       font-family="Arial"
       font-size="24.5"
       fill="#000000"
       text-anchor="end"
       id="text5020">
90
</text>
    <path
       stroke="#000000"
       stroke-width="2"
       fill="none"
       d="M 266.5,728.0 L 266.5,238.3 M 254.3,728.0 L 278.8,728.0 M 254.3,666.7 L 278.8,666.7 M 254.3,605.5 L 278.8,605.5 M 254.3,544.3 L 278.8,544.3 M 254.3,483.1 L 278.8,483.1 M 254.3,421.9 L 278.8,421.9 M 254.3,360.7 L 278.8,360.7 M 254.3,299.5 L 278.8,299.5 M 254.3,238.3 L 278.8,238.3 "
       id="path5022" />
    <path
       stroke="#000000"
       stroke-width="2"
       fill="none"
       d="M 756.2,728.0 L 756.2,238.3 M 744.0,728.0 L 768.5,728.0 M 744.0,666.7 L 768.5,666.7 M 744.0,605.5 L 768.5,605.5 M 744.0,544.3 L 768.5,544.3 M 744.0,483.1 L 768.5,483.1 M 744.0,421.9 L 768.5,421.9 M 744.0,360.7 L 768.5,360.7 M 744.0,299.5 L 768.5,299.5 M 744.0,238.3 L 768.5,238.3 "
       id="path5024" />
    <text
       x="588.39044"
       y="767.46838"
       font-size="24.5"
       id="text4998-7"
       style="font-style:normal;font-variant:normal;font-weight:normal;font-stretch:normal;font-size:24.5px;line-height:125%;font-family:Arial;-inkscape-font-specification:'Arial, Normal';text-align:center;writing-mode:lr-tb;text-anchor:middle;fill:#000000"
       sodipodi:linespacing="125%">
      <tspan
         sodipodi:role="line"
         id="tspan4222"
         x="588.39044"
         y="767.46838">D3</tspan>
    </text>
    <text
       x="441.19238"
       y="767.46838"
       font-size="24.5"
       id="text4998-9"
       style="font-style:normal;font-variant:normal;font-weight:normal;font-stretch:normal;font-size:24.5px;line-height:125%;font-family:Arial;-inkscape-font-specification:'Arial, Normal';text-align:center;writing-mode:lr-tb;text-anchor:middle;fill:#000000"
       sodipodi:linespacing="125%">
      <tspan
         sodipodi:role="line"
         id="tspan4232"
         x="441.19238"
         y="767.46838">D5</tspan>
    </text>
  </g>
  <g
     id="g5052"
     style="stroke-width:2.5;stroke-miterlimit:4;stroke-dasharray:none">
    <path
       stroke="#000000"
       stroke-width="1.5"
       fill="none"
       d="M 295.3,709.6  L 439.4,660.6 L 583.4,611.7 L 727.4,550.4 "
       id="path5054"
       style="stroke-width:2.5;stroke-miterlimit:4;stroke-dasharray:none" />
    <path
       stroke="#000000"
       stroke-width="1.5"
       fill="none"
       d=" "
       id="path5056"
       style="stroke-width:2.5;stroke-miterlimit:4;stroke-dasharray:none" />
    <path
       stroke="#000000"
       stroke-width="1.5"
       fill="#000000"
       d="M 300.2,709.6 L 299.9,707.7 L 298.8,706.1 L 297.2,705.1 L 295.3,704.7 L 293.5,705.1 L 291.9,706.1 L 290.8,707.7 L 290.4,709.6 L 290.8,711.5 L 291.9,713.1 L 293.5,714.1 L 295.3,714.5 L 297.2,714.1 L 298.8,713.1 L 299.9,711.5 L 300.2,709.6 M 444.3,660.6 L 443.9,658.7 L 442.8,657.2 L 441.2,656.1 L 439.4,655.7 L 437.5,656.1 L 435.9,657.2 L 434.8,658.7 L 434.5,660.6 L 434.8,662.5 L 435.9,664.1 L 437.5,665.1 L 439.4,665.5 L 441.2,665.1 L 442.8,664.1 L 443.9,662.5 L 444.3,660.6 M 588.3,611.7 L 587.9,609.8 L 586.9,608.2 L 585.3,607.1 L 583.4,606.8 L 581.5,607.1 L 579.9,608.2 L 578.9,609.8 L 578.5,611.7 L 578.9,613.5 L 579.9,615.1 L 581.5,616.2 L 583.4,616.6 L 585.3,616.2 L 586.9,615.1 L 587.9,613.5 L 588.3,611.7 M 732.3,550.4 L 731.9,548.6 L 730.9,547.0 L 729.3,545.9 L 727.4,545.5 L 725.5,545.9 L 724.0,547.0 L 722.9,548.6 L 722.5,550.4 L 722.9,552.3 L 724.0,553.9 L 725.5,555.0 L 727.4,555.3 L 729.3,555.0 L 730.9,553.9 L 731.9,552.3 L 732.3,550.4 "
       id="path5058"
       style="stroke-width:2.5;stroke-miterlimit:4;stroke-dasharray:none" />
    <path
       stroke="#000000"
       stroke-width="1.5"
       fill="none"
       d=" M 285.5,724.9 L 305.1,724.9 M 285.5,694.3 L 305.1,694.3 M 295.3,724.9 L 295.3,694.3 M 295.3,709.6    M 429.6,676.2 L 449.2,676.2 M 429.6,645.1 L 449.2,645.1 M 439.4,676.2 L 439.4,645.1 M 439.4,660.6   M 573.6,631.1 L 593.2,631.1 M 573.6,592.2 L 593.2,592.2 M 583.4,631.1 L 583.4,592.2 M 583.4,611.7   M 717.6,571.3 L 737.2,571.3 M 717.6,529.6 L 737.2,529.6 M 727.4,571.3 L 727.4,529.6 M 727.4,550.4  "
       id="path5060"
       style="stroke-width:2.5;stroke-miterlimit:4;stroke-dasharray:none" />
    <path
       stroke="#ff0000"
       stroke-width="1.5"
       fill="none"
       d=" M 439.4,642.3 L 583.4,574.9 L 727.4,507.6 "
       id="path5062"
       style="stroke-width:2.5;stroke-miterlimit:4;stroke-dasharray:20,20;stroke-dashoffset:0" />
    <path
       stroke="#ff0000"
       stroke-width="1.5"
       fill="none"
       d=" "
       id="path5064"
       style="stroke-width:2.5;stroke-miterlimit:4;stroke-dasharray:none" />
    <path
       stroke="#ff0000"
       stroke-width="1.5"
       fill="#ff0000"
       d="M 434.5,647.2 L 434.5,637.4 L 444.3,637.4 L 444.3,647.2 L 434.5,647.2 M 578.5,579.8 L 578.5,570.0 L 588.3,570.0 L 588.3,579.8 L 578.5,579.8 M 722.5,512.5 L 722.5,502.7 L 732.3,502.7 L 732.3,512.5 L 722.5,512.5 "
       id="path5066"
       style="stroke-width:2.5;stroke-miterlimit:4;stroke-dasharray:none" />
    <path
       stroke="#ff0000"
       stroke-width="1.5"
       fill="none"
       d="  M 429.6,658.7 L 449.2,658.7 M 429.6,625.8 L 449.2,625.8 M 439.4,658.7 L 439.4,625.8 M 439.4,642.3   M 573.6,594.8 L 593.2,594.8 M 573.6,555.0 L 593.2,555.0 M 583.4,594.8 L 583.4,555.0 M 583.4,574.9   M 717.6,529.1 L 737.2,529.1 M 717.6,486.0 L 737.2,486.0 M 727.4,529.1 L 727.4,486.0 M 727.4,507.6  "
       id="path5068"
       style="stroke-width:2.5;stroke-miterlimit:4;stroke-dasharray:none" />
    <path
       stroke="#0000ff"
       stroke-width="1.5"
       fill="none"
       d="M 583.4,568.8 L 727.4,526.0 "
       id="path5070"
       style="stroke-width:2.5;stroke-miterlimit:4;stroke-dasharray:10,5;stroke-dashoffset:0" />
    <path
       stroke="#0000ff"
       stroke-width="1.5"
       fill="none"
       d=""
       id="path5072"
       style="stroke-width:2.5;stroke-miterlimit:4;stroke-dasharray:none" />
    <path
       stroke="#0000ff"
       stroke-width="1.5"
       fill="#0000ff"
       d="M 578.5,568.8 L 583.4,563.9 L 588.3,568.8 L 583.4,573.7 L 578.5,568.8 M 722.5,526.0 L 727.4,521.1 L 732.3,526.0 L 727.4,530.9 L 722.5,526.0 "
       id="path5074"
       style="stroke-width:2.5;stroke-miterlimit:4;stroke-dasharray:none" />
    <path
       stroke="#0000ff"
       stroke-width="1.5"
       fill="none"
       d=" M 573.6,586.3 L 593.2,586.3 M 573.6,551.4 L 593.2,551.4 M 583.4,586.3 L 583.4,551.4 M 583.4,568.8   M 717.6,547.1 L 737.2,547.1 M 717.6,504.8 L 737.2,504.8 M 727.4,547.1 L 727.4,504.8 M 727.4,526.0  "
       id="path5076"
       style="stroke-width:2.5;stroke-miterlimit:4;stroke-dasharray:none" />
    <path
       stroke="#218b21"
       stroke-width="1.5"
       fill="none"
       d="M 727.4,526.0 "
       id="path5078"
       style="stroke-width:2.5;stroke-miterlimit:4;stroke-dasharray:none" />
    <path
       stroke="#218b21"
       stroke-width="1.5"
       fill="none"
       d=""
       id="path5080"
       style="stroke-width:2.5;stroke-miterlimit:4;stroke-dasharray:none" />
    <path
       stroke="#218b21"
       stroke-width="1.5"
       fill="#218b21"
       d="M 722.5,530.9 L 727.4,521.1 L 732.3,530.9 L 722.5,530.9 "
       id="path5082"
       style="stroke-width:2.5;stroke-miterlimit:4;stroke-dasharray:none" />
    <path
       stroke="#218b21"
       stroke-width="1.5"
       fill="none"
       d=" M 717.6,547.1 L 737.2,547.1 M 717.6,504.8 L 737.2,504.8 M 727.4,547.1 L 727.4,504.8 M 727.4,526.0  "
       id="path5084"
       style="stroke-width:2.5;stroke-miterlimit:4;stroke-dasharray:none" />
  </g>
  <text
     transform="matrix(0,-0.9,1.1,0,0,0)"
     sodipodi:linespacing="125%"
     id="text4176"
     y="177.29868"
     x="-791.83313"
     style="font-style:normal;font-weight:normal;font-size:31.41px;line-height:125%;font-family:sans-serif;letter-spacing:2.89px;word-spacing:0px;writing-mode:lr;fill:#000000;fill-opacity:1;stroke:none;stroke-width:1px;stroke-linecap:butt;stroke-linejoin:miter;stroke-miterlimit:4;stroke-dasharray:none;stroke-opacity:1;-inkscape-font-specification:'sans-serif, Normal';font-stretch:normal;font-variant:normal;text-anchor:start;text-align:start;"
     xml:space="preserve"><tspan
       sodipodi:role="line"
       id="tspan4190">Percent Correct Recognition</tspan></text>
  <g
     transform="translate(-62,150)"
     id="g4951">
    <path
       sodipodi:nodetypes="cc"
       inkscape:connector-curvature="0"
       id="path4278"
       d="M 840,380 890,380"
       style="fill:none;fill-rule:evenodd;stroke:#008000;stroke-width:1.5;stroke-linecap:butt;stroke-linejoin:miter;stroke-miterlimit:4;stroke-dasharray:none;stroke-opacity:1;marker-start:url(#Arrow2Lstart)" />
    <text
       x="898.11633"
       y="386.00909"
       font-size="21.0"
       id="text4334"
       style="font-style:normal;font-variant:normal;font-weight:normal;font-stretch:normal;font-size:27.15px;line-height:150%;font-family:Arial;-inkscape-font-specification:'Arial, Normal';text-align:start;writing-mode:lr;text-anchor:start;fill:#218b21;stroke-width:2.5;stroke-miterlimit:4;stroke-dasharray:none;"
       sodipodi:linespacing="150%">
      <tspan
         sodipodi:role="line"
         id="tspan4198">condition C1</tspan>
    </text>
  </g>
  <g
     transform="translate(-13,56)"
     id="g4254">
    <path
       d="M 310,350 370,350"
       id="path4314"
       inkscape:connector-curvature="0"
       style="fill:none;stroke:#000000;stroke-width:2.5;stroke-miterlimit:4;stroke-dasharray:none" />
    <text
       x="388.02829"
       y="357.38934"
       font-size="21.0"
       id="text4316"
       style="font-style:normal;font-variant:normal;font-weight:normal;font-stretch:normal;font-size:27.14px;line-height:150%;font-family:Arial;-inkscape-font-specification:'Arial, Normal';text-align:start;writing-mode:lr-tb;text-anchor:start;fill:#000000;stroke-width:2.5;stroke-miterlimit:4;stroke-dasharray:none"
       sodipodi:linespacing="150%">
      <tspan
         y="357.38934"
         x="388.02829"
         id="tspan4195"
         sodipodi:role="line">condition C7</tspan>
    </text>
    <path
       d="M 310,320 370,320"
       id="path4320"
       inkscape:connector-curvature="0"
       style="fill:none;stroke:#ff0000;stroke-width:2.5;stroke-miterlimit:4;stroke-dasharray:20, 20;stroke-dashoffset:0" />
    <text
       x="388.60446"
       y="321.99438"
       font-size="21.0"
       id="text4322"
       style="font-style:normal;font-variant:normal;font-weight:normal;font-stretch:normal;font-size:27.14px;line-height:150%;font-family:Arial;-inkscape-font-specification:'Arial, Normal';text-align:start;writing-mode:lr-tb;text-anchor:start;fill:#ff0000;stroke-width:2.5;stroke-miterlimit:4;stroke-dasharray:none"
       sodipodi:linespacing="150%">
      <tspan
         y="321.99438"
         x="388.60446"
         id="tspan4197"
         sodipodi:role="line">condition C5</tspan>
    </text>
    <text
       x="387.49689"
       y="286.81354"
       font-size="21.0"
       id="text4328"
       style="font-style:normal;font-variant:normal;font-weight:normal;font-stretch:normal;font-size:27.14px;line-height:150%;font-family:Arial;-inkscape-font-specification:'Arial, Normal';text-align:start;writing-mode:lr-tb;text-anchor:start;fill:#0000ff;stroke-width:2.5;stroke-miterlimit:4;stroke-dasharray:none"
       sodipodi:linespacing="150%">
      <tspan
         y="286.81354"
         x="387.49689"
         id="tspan4199"
         sodipodi:role="line">condition C3</tspan>
    </text>
    <path
       d="M 310,280 370,280"
       id="path4332"
       inkscape:connector-curvature="0"
       style="fill:#0000ff;fill-opacity:1;stroke:#0000ff;stroke-width:2.5;stroke-miterlimit:4;stroke-dasharray:7.5, 7.5;stroke-dashoffset:0;stroke-opacity:1" />
    <path
       d="M 420,350 420,350"
       id="path4338"
       inkscape:connector-curvature="0"
       style="fill:none;stroke:#800080;stroke-width:2.5;stroke-miterlimit:4;stroke-dasharray:none" />
    <text
       x="388.64667"
       y="252.4357"
       font-size="21.0"
       id="text4334-1"
       style="font-style:normal;font-variant:normal;font-weight:normal;font-stretch:normal;font-size:27.15px;line-height:150%;font-family:Arial;-inkscape-font-specification:'Arial, Normal';text-align:start;writing-mode:lr-tb;text-anchor:start;fill:#218b21;stroke-width:2.5;stroke-miterlimit:4;stroke-dasharray:none"
       sodipodi:linespacing="150%">
      <tspan
         y="252.4357"
         x="388.64667"
         id="tspan4193-1"
         sodipodi:role="line">condition C1</tspan>
    </text>
    <path
       d="M 360,250 340,250 350,240 360,250"
       id="path4229-3"
       style="fill:#218b21;stroke:#218b21;stroke-width:1.79"
       inkscape:connector-curvature="0" />
  </g>
</svg>
