<svg
  width="953.36926px"
  height="560px"
  viewBox="0 0 953.36926 560"
  xmlns:inkscape="http://www.inkscape.org/namespaces/inkscape"
  xmlns:sodipodi="http://sodipodi.sourceforge.net/DTD/sodipodi-0.dtd"
  xmlns:xlink="http://www.w3.org/1999/xlink"
  xmlns="http://www.w3.org/2000/svg">
  <defs
    id="Defs">
    <linearGradient
      id="linearGradient994"
      x1="0"
      y1="0"
      x2="0"
      y2="0"
      gradientUnits="objectBoundingBox">
      <stop
        style="stop-color:#FFFFFF;stop-opacity:0.550000011920929;"
        offset="0" />
      <stop
        style="stop-color:#FF0013;stop-opacity:0.34999999;"
        offset="1" />
    </linearGradient>
    <linearGradient
      id="linearGradient540"
      x1="0"
      y1="0"
      x2="0"
      y2="0"
      gradientUnits="objectBoundingBox">
      <stop
        style="stop-color:#FFFFFF;stop-opacity:0.550000011920929;"
        offset="0" />
      <stop
        style="stop-color:#0000FF;stop-opacity:0.3499999940395355;"
        offset="1" />
    </linearGradient>
    <radialGradient
      id="radialGradient694"
      cx="472.17095947265625"
      cy="212.49130249023438"
      fx="472.17095947265625"
      fy="212.49130249023438"
      r="95.93878173828125"
      gradientUnits="userSpaceOnUse"
      gradientTransform="matrix(1,0,0,1,32.333404541015625,4.0848236083984375)"
      xlink:href="#linearGradient540" />
    <radialGradient
      id="radialGradient511"
      cx="532.4480590820312"
      cy="304.2455749511719"
      fx="532.4480590820312"
      fy="304.2455749511719"
      r="95.93878173828125"
      gradientUnits="userSpaceOnUse"
      xlink:href="#linearGradient994" />
    <linearGradient
      id="linearGradient162"
      x1="0"
      y1="0"
      x2="0"
      y2="0"
      gradientUnits="objectBoundingBox">
      <stop
        style="stop-color:#FFFFFF;stop-opacity:0.550000011920929;"
        offset="0" />
      <stop
        style="stop-color:#FF0000;stop-opacity:0.3499999940395355;"
        offset="1" />
    </linearGradient>
    <linearGradient
      id="linearGradient274"
      x1="0"
      y1="0"
      x2="0"
      y2="0"
      gradientUnits="objectBoundingBox">
      <stop
        style="stop-color:#FFFFFF;stop-opacity:0.550000011920929;"
        offset="0" />
      <stop
        style="stop-color:#008000;stop-opacity:0.3499999940395355;"
        offset="1" />
    </linearGradient>
    <radialGradient
      id="radialGradient287"
      cx="546.7158203125"
      cy="444.8543701171875"
      fx="546.7158203125"
      fy="444.8543701171875"
      r="66.74383544921875"
      gradientUnits="userSpaceOnUse"
      gradientTransform="matrix(0.4742090106010437,0,0,1.21796452999115,252.32830810546875,-101.042724609375)"
      xlink:href="#linearGradient790" />
    <radialGradient
      id="radialGradient541"
      cx="648.2831420898438"
      cy="167.64715576171875"
      fx="648.2831420898438"
      fy="167.64715576171875"
      r="72.46063232421875"
      gradientUnits="userSpaceOnUse"
      gradientTransform="matrix(1,0,0,1,12,12)"
      xlink:href="#linearGradient408" />
    <linearGradient
      id="linearGradient408"
      x1="0"
      y1="0"
      x2="0"
      y2="0"
      gradientUnits="objectBoundingBox">
      <stop
        style="stop-color:#FFFFFF;stop-opacity:0.550000011920929;"
        offset="0" />
      <stop
        style="stop-color:#008080;stop-opacity:0.44999998807907104;"
        offset="1" />
    </linearGradient>
    <radialGradient
      id="radialGradient790"
      cx="428.3330383300781"
      cy="295.2426452636719"
      fx="428.3330383300781"
      fy="295.2426452636719"
      r="39.726531982421875"
      gradientUnits="userSpaceOnUse"
      xlink:href="#linearGradient274" />
    <linearGradient
      id="linearGradient790"
      x1="0"
      y1="0"
      x2="0"
      y2="0"
      gradientUnits="objectBoundingBox">
      <stop
        style="stop-color:#FFFFFF;stop-opacity:0.550000011920929;"
        offset="0" />
      <stop
        style="stop-color:#CD853F;stop-opacity:0.3499999940395355;"
        offset="1" />
    </linearGradient>
  </defs>
  <sodipodi:namedview
    id="namedview318"
    inkscape:zoom="1.6373509"
    inkscape:current-layer="LayerBG"
    inkscape:cx="0"
    window-y="25"
    inkscape:cy="0"
    window-height="1855"
    showpageshadow="2"
    inkscape:document-units="px"
    window-x="0"
    deskcolor="#d1d1d1"
    window-width="2950"
    window-maximized="0">
    <inkscape:grid
      id="grid425"
      type="xygrid"
      units="px"
      spacingx="12"
      spacingy="12" />
  </sodipodi:namedview>
  <g
    id="LayerBG"
    sodipodi:insensitive="true"
    inkscape:groupmode="layer"
    style="">
    <rect
      id="rect485"
      style="fill:#ffffff;fill-opacity:1;stroke:none;"
      x="0.06806278"
      y="5.279006"
      width="953.00836"
      height="561.46533" />
    <path
      id="path227"
      style="fill:none;stroke:#000000;stroke-width:1.32945;nodetypes:csssssssssssssssssssssssc;"
      d="M 521.15045,563.38306 C 488.14896,546.6162 462.8072,516.7935 429.44556,500.7553 412.22858,492.4785 392.54437,490.6575 374.6463,483.98004 310.84866,460.17825 244.10434,439.63632 187.88152,401.222 129.33417,361.21942 77.213936,309.69897 36.90399,251.36282 25.994741,235.57504 13.001715,217.98598 13.418598,198.80026 c 0.253515,-11.66723 7.151523,-23.32345 15.656928,-31.31386 9.739428,-9.14972 24.01818,-12.12313 36.90562,-15.65692 32.286232,-8.85301 66.108734,-11.53018 99.53334,-13.42024 35.36583,-1.99983 71.36421,-3.94236 106.24344,2.23671 14.74227,2.61168 29.9071,6.43672 42.49738,14.53858 7.76155,4.99457 14.31491,12.18522 19.01198,20.13033 11.15925,18.87591 13.06053,41.87087 20.13033,62.62772 9.5806,28.12853 20.21793,55.88623 30.1955,83.87641 4.51308,12.66058 5.12102,27.45129 13.42023,38.02396 7.15037,9.10913 18.2187,14.9873 29.07715,19.01198 13.39724,4.96567 28.40686,7.95845 42.49738,5.59176 13.97494,-2.34728 26.21859,-11.1735 38.02397,-19.01198 14.31612,-9.50555 27.00328,-21.38707 39.14232,-33.55056 14.19557,-14.22416 24.98568,-31.58954 39.14233,-45.85243 15.63803,-15.75539 31.96076,-31.14559 50.32583,-43.61573 18.07008,-12.26984 38.12042,-21.49375 58.1543,-30.1955 28.65836,-12.44781 57.9568,-24.06717 88.34981,-31.31387 28.51578,-6.79911 57.91985,-10.72862 87.23146,-11.18351 11.6089,-0.18016 35.16271,3.84885 35.16271,3.84885 " />
    <path
      id="path229"
      style="fill:none;stroke:#000000;stroke-width:1.32945;"
      d="m 334.05646,176.00708 c 0,0 3.30542,-35.63474 11.51271,-49.8997 4.34002,-7.54332 11.85688,-12.93964 19.01198,-17.89363 18.09335,-12.52733 38.71644,-21.219341 59.27266,-29.077145 23.15011,-8.849341 47.3431,-14.926858 71.57453,-20.13034 29.48421,-6.331472 59.71828,-8.485653 89.46817,-13.420219 8.22335,-1.363993 16.37466,-3.144444 24.60374,-4.473415 34.19379,-5.52219 68.36945,-11.683224 102.88839,-14.538579 30.10189,-2.489984 60.51896,-5.111919 90.5865,-2.236695 12.15572,1.162396 25.07317,1.970064 35.78727,7.828457 3.7005,2.023409 5.05029,7.332823 8.94682,8.946817 2.41085,0.998608 5.22297,0.144306 7.82847,0 30.33483,-1.680098 90.58651,-10.065164 90.58651,-10.065164 " />
    <path
      id="path231"
      style="fill:none;stroke:#000000;stroke-width:1.32945;"
      d="m 340.90182,192.94696 c 0,0 20.01289,9.15485 31.50777,15.91847 14.79338,8.70447 29.91572,17.40181 42.49738,29.07716 6.99877,6.49462 13.15476,14.07812 17.89363,22.36703 4.15785,7.27263 7.02212,15.33222 8.94682,23.4854 1.72151,7.29243 3.5928,14.99792 2.23669,22.36705 -1.65952,9.01785 -7.63019,16.71381 -12.30187,24.60374 -3.00307,5.07183 -7.14845,9.41659 -10.06516,14.53857 -4.87013,8.55234 -12.30187,26.84045 -12.30187,26.84045 " />
    <path
      id="path233"
      style="stroke:#000000;stroke-width:1.32945;fill:none;"
      d="m 376.883,211.10214 c 0,0 5.24787,-37.63875 14.53858,-53.68089 8.45478,-14.59874 21.88772,-26.22647 35.78727,-35.78727 21.86091,-15.03702 47.96197,-22.82006 72.69288,-32.43221 24.17298,-9.395301 48.32955,-19.777939 73.81123,-24.603745 6.96883,-1.31978 14.15627,-1.05553 21.24869,-1.118347 32.07767,-0.284107 64.12392,4.610327 96.17828,3.355055 32.99083,-1.291945 65.61742,-7.390771 98.41497,-11.183525 6.33879,-0.733026 23.12688,-2.565899 23.12688,-2.565899 " />
    <path
      id="path235"
      style="stroke:#000000;stroke-width:1.32945;fill:none;"
      d="m 383.23013,179.49292 c 0,0 61.04033,-29.02042 93.18623,-33.2552 23.72589,-3.12556 47.6439,5.48276 71.57453,5.59177 21.6726,0.0987 43.48626,-0.91166 64.86441,-4.47342 32.73493,-5.45389 63.89972,-18.01394 96.17828,-25.72209 28.16081,-6.72483 57.17851,-9.86178 84.99476,-17.89363 20.6241,-5.95514 39.89951,-15.970443 60.39099,-22.36705 15.79426,-4.930326 31.8078,-9.354866 48.08914,-12.301872 13.65155,-2.471001 41.37903,-4.473402 41.37903,-4.473402 " />
    <path
      id="path237"
      style="fill:none;stroke:#000000;stroke-width:1.32945;"
      d="m 547.40015,152.06172 59.56803,112.32899 " />
    <path
      id="path239"
      style="fill:none;stroke:#000000;stroke-width:1.32945;"
      d="m 444.44412,302.6424 21.90707,12.46647 51.4442,-24.60374 89.042,-26.04678 " />
    <path
      id="path241"
      style="fill:none;stroke:#000000;stroke-width:1.32945;"
      d="m 575.32513,297.443 c 0,0 -2.86951,14.44131 -1.61214,19.9026 1.34864,5.85772 3.90462,12.38463 8.94682,15.65693 6.28526,4.07902 15.36667,4.9084 22.36703,2.2367 5.6696,-2.16382 8.34311,-8.8208 12.30188,-13.42021 8.12764,-9.44291 14.32608,-20.6312 23.48539,-29.07716 14.59451,-13.45784 31.87482,-23.87112 49.20749,-33.55056 16.75465,-9.35664 34.43645,-17.18386 52.56255,-23.4854 21.43553,-7.45206 43.66791,-12.64462 65.98276,-16.77527 12.54889,-2.3229 25.27178,-3.97158 38.02398,-4.47342 19.3841,-0.76283 39.55478,7.74878 58.1543,2.23671 7.4374,-2.20412 15.85238,-6.33573 19.01198,-13.42022 2.59909,-5.82772 1.23609,-13.65873 -2.23669,-19.01199 -3.36611,-5.18883 -17.91902,-10.97265 -17.91902,-10.97265 " />
    <path
      id="path243"
      style="fill:none;stroke:#000000;stroke-width:1.32945;"
      d="M 693.37555,66.83259 729.1977,197.12498 " />
    <path
      id="path245"
      style="stroke-width:1.32945;fill:none;stroke:#000000;"
      d="m 847.05536,41.17576 c 0,0 -25.21378,5.235026 -32.89667,11.12039 -12.73892,9.75846 -23.18013,25.395256 -24.60375,41.379025 -0.56513,6.345005 5.03113,11.748725 6.71011,17.893616 1.69614,6.20772 2.79374,12.60127 3.35506,19.012 0.48774,5.57044 -1.54155,11.4002 0,16.77527 2.90859,10.14167 16.77528,26.84045 16.77528,26.84045 " />
    <path
      id="path247"
      style="stroke-width:1.32945;fill:none;stroke:#000000;"
      d="m 466.84497,314.84732 c 0,0 3.17267,19.10689 6.21632,29.3387 1.48043,4.97676 2.85,10.12921 5.59176,14.53858 3.48257,5.60077 13.42022,14.53858 13.42022,14.53858 " />
    <rect
      id="rect631"
      style="fill-opacity:1;stroke:none;fill:#ffffff;"
      x="0"
      y="0"
      width="0"
      height="0" />
  </g>
  <g
    id="Layer1"
    inkscape:groupmode="layer"
    style="">
    <ellipse
      id="ellipse89"
      style="fill:url(#radialGradient790);fill-opacity:1;stroke:#000000;stroke-opacity:1;stroke-width:1px;"
      transform="matrix(0.9140768,-0.40554112,0.40554112,0.9140768,-89.645325,233.42001)"
      cx="428.33304"
      cy="295.24265"
      rx="39.226547"
      ry="-81.06762" />
    <ellipse
      id="ellipse15"
      style="fill:url(#radialGradient541);stroke:#000000;stroke-opacity:1;stroke-width:1px;"
      cx="660.28314"
      cy="179.64716"
      rx="71.96061"
      ry="64.63283" />
    <ellipse
      id="ellipse81"
      style="stroke:#000000;stroke-opacity:1;stroke-width:1px;fill:url(#radialGradient511);fill-opacity:1;"
      transform="matrix(0.9659258,-0.25881904,0.25881904,0.9659258,-33.57065,164.73282)"
      cx="532.44806"
      cy="304.24557"
      rx="95.43879"
      ry="43.35443" />
    <ellipse
      id="ellipse300"
      style="stroke-opacity:1;stroke-width:1px;fill:url(#radialGradient694);fill-opacity:1;stroke:#000000;"
      cx="504.50436"
      cy="216.57613"
      rx="95.43879"
      ry="88.08173" />
    <ellipse
      id="ellipse947"
      style="stroke:#000000;stroke-opacity:1;stroke-width:1px;fill:url(#radialGradient287);"
      transform="matrix(1.3709103,-0.5,0.79149544,0.8660254,-518.805,298.21808)"
      cx="511.58588"
      cy="440.77408"
      rx="31.413427"
      ry="67.65042" />
    <text
      id="text425"
      style="fill-opacity:1;text-align:AlignLeft;font-family:Arial;font-size:30px;stroke:none;fill:#000000;"
      transform="none"
      x="604.046"
      y="190.4662">
      <tspan
        id="tspan540"
        x="604.046"
        y="190.4662">AC / Cg</tspan>
    </text>
    <text
      id="text387"
      style="font-family:Arial;font-size:30px;stroke:none;fill:#000000;fill-opacity:1;text-align:AlignLeft;"
      transform="none"
      x="486.07938"
      y="226.76363">
      <tspan
        id="tspan59"
        x="486.07938"
        y="226.76363">PL</tspan>
    </text>
    <text
      id="text456"
      style="fill-opacity:1;text-align:AlignLeft;font-family:Arial;font-size:30px;stroke:none;fill:#000000;"
      transform="matrix(0.9659258,-0.25881904,0.25881904,0.9659258,28.501465,139.32265)"
      x="443.24997"
      y="326.3489">
      <tspan
        id="tspan318"
        x="443.24997"
        y="326.3489">IL</tspan>
    </text>
    <text
      id="text694"
      style="font-family:Arial;font-size:30px;font-weight:WeightBold;stroke:none;fill:#008080;fill-opacity:1;text-align:AlignLeft;"
      transform="none"
      x="591.30676"
      y="106.72603">
      <tspan
        id="tspan511"
        x="591.30676"
        y="106.72603">ACCnegUS</tspan>
    </text>
    <text
      id="text429"
      style="text-align:AlignLeft;font-family:Arial;font-size:30px;stroke:none;fill:#0000FF;fill-opacity:1;font-weight:WeightBold;"
      transform="none"
      x="453.7278"
      y="121.947525">
      <tspan
        id="tspan162"
        x="453.7278"
        y="121.947525">ACCutil</tspan>
    </text>
    <text
      id="text211"
      style="text-align:AlignLeft;font-weight:WeightBold;stroke:none;fill:#CD853F;fill-opacity:1;font-family:Arial;font-size:30px;"
      transform="none"
      x="484.84998"
      y="516.1738">
      <tspan
        id="tspan445"
        x="484.84998"
        y="516.1738">OFCpos / negUS</tspan>
    </text>
    <text
      id="text528"
      style="text-align:AlignLeft;font-weight:WeightBold;stroke:none;fill:#FF0000;fill-opacity:1;font-family:Arial;font-size:30px;"
      transform="none"
      x="580.2771"
      y="386.44885">
      <tspan
        id="tspan728"
        x="580.2771"
        y="386.44885">OFCnegVal</tspan>
    </text>
    <text
      id="text356"
      style="fill-opacity:1;font-family:Arial;font-size:30px;text-align:AlignLeft;font-weight:WeightBold;stroke:none;fill:#008000;"
      transform="none"
      x="216.7938"
      y="352.0713">
      <tspan
        id="tspan274"
        x="216.7938"
        y="352.0713">OFCposVal</tspan>
    </text>
    <text
      id="text106"
      style="stroke:none;fill:#000000;fill-opacity:1;text-align:AlignLeft;font-family:Arial;font-size:30px;"
      transform="matrix(0.84067076,0.5415465,-0.5415465,0.8406708,327.7816,-230.4938)"
      x="511.2735"
      y="455.74237">
      <tspan
        id="tspan495"
        x="511.2735"
        y="455.74237">VLO</tspan>
    </text>
    <text
      id="text258"
      style="font-family:Arial;font-size:30px;stroke:none;fill:#000000;fill-opacity:1;text-align:AlignLeft;"
      transform="none"
      x="388.1244"
      y="309.1815">
      <tspan
        id="tspan466"
        x="388.1244"
        y="309.1815">MO</tspan>
    </text>
    <text
      id="text737"
      style="font-family:Arial;font-size:30px;stroke:none;fill:#000000;fill-opacity:1;text-align:AlignLeft;"
      transform="none"
      x="423.14438"
      y="362.63306">
      <tspan
        id="tspan47"
        x="423.14438"
        y="362.63306">VO</tspan>
    </text>
    <path
      id="path287"
      style="fill-opacity:1;stroke:none;fill:#000000;"
      d="" />
  </g>
</svg>
