<?xml version="1.0" encoding="ISO-8859-1" standalone="yes"?>
<svg width="425.39" height="267.297">
  <defs> 
    <marker id="ArrowEnd" viewBox="0 0 10 10" refX="0" refY="5" 
     markerUnits="strokeWidth" 
     markerWidth="4" 
     markerHeight="3" 
     orient="auto"> 
        <path d="M 0 0 L 10 5 L 0 10 z" /> 
    </marker>
    <marker id="ArrowStart" viewBox="0 0 10 10" refX="10" refY="5" 
     markerUnits="strokeWidth" 
     markerWidth="4" 
     markerHeight="3" 
     orient="auto"> 
        <path d="M 10 0 L 0 5 L 10 10 z" /> 
    </marker> </defs>
<g>
<path style="stroke:none; fill-rule:evenodd; fill:#000000" d="M 43.539 219.711L 44.336 219.711L 44.336 9.39105L 43.539 9.39105L 43.539 219.711z"/>
<path style="stroke:#000000; stroke-width:0.10000000000000001; fill:none" d="M 43.539 219.711L 44.336 219.711L 44.336 9.39105L 43.539 9.39105L 43.539 219.711z"/>
<path style="stroke:none; fill-rule:evenodd; fill:#000000" d="M 25.777 215.098L 26.468 215.098C 27.867 215.098 28.593 215.731 28.593 216.953C 28.593 218.231 27.8 218.996 26.476 218.996C 25.093 218.996 24.418 218.309 24.328 216.832L 23.062 216.832C 23.117 217.645 23.261 218.172 23.507 218.625C 24.027 219.594 25.035 220.09 26.433 220.09C 28.539 220.09 29.894 218.844 29.894 216.922C 29.894 215.633 29.386 214.914 28.152 214.5C 29.113 214.129 29.593 213.41 29.593 212.395C 29.593 210.645 28.425 209.598 26.476 209.598C 24.414 209.598 23.316 210.715 23.273 212.887L 24.543 212.887C 24.554 212.27 24.613 211.922 24.773 211.606C 25.058 211.047 25.695 210.7 26.488 210.7C 27.613 210.7 28.293 211.352 28.293 212.418C 28.293 213.129 28.035 213.555 27.468 213.782C 27.121 213.922 26.675 213.977 25.777 213.993L 25.777 215.098z"/>
<path style="stroke:none; fill-rule:evenodd; fill:#000000" d="M 34.546 209.598C 33.597 209.598 32.73 210.004 32.195 210.696C 31.535 211.586 31.203 212.95 31.203 214.832C 31.203 218.266 32.355 220.09 34.55 220.09C 36.714 220.09 37.898 218.266 37.898 214.918C 37.898 212.938 37.582 211.614 36.902 210.696C 36.371 209.993 35.519 209.598 34.55 209.598L 34.546 209.598zM 34.546 210.7C 35.914 210.7 36.593 212.071 36.593 214.786C 36.593 217.653 35.929 218.996 34.515 218.996C 33.175 218.996 32.496 217.598 32.496 214.828C 32.496 212.059 33.171 210.7 34.543 210.7L 34.546 210.7z"/>
<path style="stroke:none; fill-rule:evenodd; fill:#000000" d="M 39.195 217L 46.492 217L 46.492 216L 39.195 216L 39.195 217z"/>
<path style="stroke:none; fill-rule:evenodd; fill:#000000" d="M 25.777 179.899L 26.468 179.899C 27.867 179.899 28.593 180.532 28.593 181.754C 28.593 183.032 27.8 183.797 26.476 183.797C 25.093 183.797 24.418 183.11 24.328 181.633L 23.062 181.633C 23.117 182.446 23.261 182.973 23.507 183.426C 24.027 184.395 25.035 184.891 26.433 184.891C 28.539 184.891 29.894 183.645 29.894 181.723C 29.894 180.434 29.386 179.715 28.152 179.301C 29.113 178.93 29.593 178.211 29.593 177.196C 29.593 175.446 28.425 174.399 26.476 174.399C 24.414 174.399 23.316 175.516 23.273 177.688L 24.543 177.688C 24.554 177.071 24.613 176.723 24.773 176.407C 25.058 175.848 25.695 175.5 26.488 175.5C 27.613 175.5 28.293 176.153 28.293 177.219C 28.293 177.93 28.035 178.356 27.468 178.582C 27.121 178.723 26.675 178.778 25.777 178.793L 25.777 179.899z"/>
<path style="stroke:none; fill-rule:evenodd; fill:#000000" d="M 37.46 174.399L 32.183 174.399L 31.421 179.946L 32.589 179.946C 33.179 179.243 33.668 178.996 34.464 178.996C 35.832 178.996 36.699 179.93 36.699 181.438C 36.699 182.903 35.847 183.793 34.464 183.793C 33.355 183.793 32.679 183.235 32.375 182.09L 31.109 182.09C 31.281 182.914 31.425 183.313 31.726 183.684C 32.3 184.45 33.339 184.891 34.496 184.891C 36.558 184.891 38 183.407 38 181.266C 38 179.266 36.66 177.899 34.699 177.899C 33.98 177.899 33.402 178.078 32.812 178.493L 33.214 175.7L 37.468 175.7L 37.46 174.399z"/>
<path style="stroke:none; fill-rule:evenodd; fill:#000000" d="M 39.195 181.801L 46.492 181.801L 46.492 180.801L 39.195 180.801L 39.195 181.801z"/>
<path style="stroke:none; fill-rule:evenodd; fill:#000000" d="M 27.296 147.7L 27.296 150.2L 28.496 150.2L 28.496 147.7L 30.078 147.7L 30.078 146.602L 28.496 146.602L 28.496 140.004L 27.574 140.004L 23.003 146.375L 23.003 147.7L 27.296 147.7zM 27.296 146.598L 24.109 146.598L 27.296 142.153L 27.296 146.598z"/>
<path style="stroke:none; fill-rule:evenodd; fill:#000000" d="M 34.546 140C 33.597 140 32.73 140.407 32.195 141.098C 31.535 141.989 31.203 143.352 31.203 145.235C 31.203 148.668 32.355 150.493 34.55 150.493C 36.714 150.493 37.898 148.668 37.898 145.321C 37.898 143.34 37.582 142.016 36.902 141.098C 36.371 140.395 35.519 140 34.55 140L 34.546 140zM 34.546 141.098C 35.914 141.098 36.593 142.469 36.593 145.184C 36.593 148.051 35.929 149.395 34.515 149.395C 33.175 149.395 32.496 147.996 32.496 145.227C 32.496 142.457 33.171 141.098 34.543 141.098L 34.546 141.098z"/>
<path style="stroke:none; fill-rule:evenodd; fill:#000000" d="M 39.195 147.399L 46.492 147.399L 46.492 146.399L 39.195 146.399L 39.195 147.399z"/>
<path style="stroke:none; fill-rule:evenodd; fill:#000000" d="M 27.296 112.5L 27.296 115L 28.496 115L 28.496 112.5L 30.078 112.5L 30.078 111.403L 28.496 111.403L 28.496 104.805L 27.574 104.805L 23.003 111.176L 23.003 112.5L 27.296 112.5zM 27.296 111.399L 24.109 111.399L 27.296 106.953L 27.296 111.399z"/>
<path style="stroke:none; fill-rule:evenodd; fill:#000000" d="M 37.46 104.801L 32.183 104.801L 31.421 110.348L 32.589 110.348C 33.179 109.645 33.668 109.399 34.464 109.399C 35.832 109.399 36.699 110.332 36.699 111.84C 36.699 113.305 35.847 114.196 34.464 114.196C 33.355 114.196 32.679 113.637 32.375 112.493L 31.109 112.493C 31.281 113.317 31.425 113.715 31.726 114.086C 32.3 114.852 33.339 115.293 34.496 115.293C 36.558 115.293 38 113.809 38 111.668C 38 109.668 36.66 108.301 34.699 108.301C 33.98 108.301 33.402 108.481 32.812 108.895L 33.214 106.102L 37.468 106.102L 37.46 104.801z"/>
<path style="stroke:none; fill-rule:evenodd; fill:#000000" d="M 39.195 112.2L 46.492 112.2L 46.492 111.2L 39.195 111.2L 39.195 112.2z"/>
<path style="stroke:none; fill-rule:evenodd; fill:#000000" d="M 29.46 69.598L 24.183 69.598L 23.421 75.145L 24.589 75.145C 25.179 74.442 25.668 74.196 26.464 74.196C 27.832 74.196 28.699 75.129 28.699 76.637C 28.699 78.102 27.847 78.993 26.464 78.993C 25.355 78.993 24.679 78.434 24.375 77.289L 23.109 77.289C 23.281 78.114 23.425 78.512 23.726 78.883C 24.3 79.649 25.339 80.09 26.496 80.09C 28.558 80.09 30 78.606 30 76.465C 30 74.465 28.66 73.098 26.699 73.098C 25.98 73.098 25.402 73.278 24.812 73.692L 25.214 70.899L 29.468 70.899L 29.46 69.598z"/>
<path style="stroke:none; fill-rule:evenodd; fill:#000000" d="M 34.546 69.598C 33.597 69.598 32.73 70.004 32.195 70.696C 31.535 71.586 31.203 72.95 31.203 74.832C 31.203 78.266 32.355 80.09 34.55 80.09C 36.714 80.09 37.898 78.266 37.898 74.918C 37.898 72.938 37.582 71.614 36.902 70.696C 36.371 69.993 35.519 69.598 34.55 69.598L 34.546 69.598zM 34.546 70.7C 35.914 70.7 36.593 72.071 36.593 74.786C 36.593 77.653 35.929 78.996 34.515 78.996C 33.175 78.996 32.496 77.598 32.496 74.828C 32.496 72.059 33.171 70.7 34.543 70.7L 34.546 70.7z"/>
<path style="stroke:none; fill-rule:evenodd; fill:#000000" d="M 39.195 77L 46.492 77L 46.492 76L 39.195 76L 39.195 77z"/>
<path style="stroke:none; fill-rule:evenodd; fill:#000000" d="M 29.46 35.2L 24.183 35.2L 23.421 40.746L 24.589 40.746C 25.179 40.043 25.668 39.797 26.464 39.797C 27.832 39.797 28.699 40.731 28.699 42.239C 28.699 43.703 27.847 44.594 26.464 44.594C 25.355 44.594 24.679 44.036 24.375 42.891L 23.109 42.891C 23.281 43.715 23.425 44.114 23.726 44.485C 24.3 45.25 25.339 45.692 26.496 45.692C 28.558 45.692 30 44.207 30 42.067C 30 40.067 28.66 38.7 26.699 38.7C 25.98 38.7 25.402 38.879 24.812 39.293L 25.214 36.5L 29.468 36.5L 29.46 35.2z"/>
<path style="stroke:none; fill-rule:evenodd; fill:#000000" d="M 37.46 35.2L 32.183 35.2L 31.421 40.746L 32.589 40.746C 33.179 40.043 33.668 39.797 34.464 39.797C 35.832 39.797 36.699 40.731 36.699 42.239C 36.699 43.703 35.847 44.594 34.464 44.594C 33.355 44.594 32.679 44.036 32.375 42.891L 31.109 42.891C 31.281 43.715 31.425 44.114 31.726 44.485C 32.3 45.25 33.339 45.692 34.496 45.692C 36.558 45.692 38 44.207 38 42.067C 38 40.067 36.66 38.7 34.699 38.7C 33.98 38.7 33.402 38.879 32.812 39.293L 33.214 36.5L 37.468 36.5L 37.46 35.2z"/>
<path style="stroke:none; fill-rule:evenodd; fill:#000000" d="M 39.195 42.598L 46.492 42.598L 46.492 41.598L 39.195 41.598L 39.195 42.598z"/>
<path style="stroke:none; fill-rule:evenodd; fill:#000000" d="M 29.765 2.70001C 29.527 1.008 28.445 0 26.91 0C 25.804 0 24.808 0.54303 24.21 1.45001C 23.586 2.43805 23.304 3.68402 23.304 5.53601C 23.304 7.23901 23.558 8.33203 24.156 9.23505C 24.695 10.051 25.578 10.496 26.691 10.496C 28.613 10.496 29.996 9.07501 29.996 7.09802C 29.996 5.22302 28.695 3.89905 26.855 3.89905C 25.843 3.89905 25.046 4.27405 24.5 4.99603C 24.511 2.49304 25.32 1.09802 26.777 1.09802C 27.671 1.09802 28.293 1.67999 28.492 2.69604L 29.765 2.70001zM 26.703 5C 27.929 5 28.691 5.84003 28.691 7.20001C 28.691 8.46899 27.828 9.39905 26.66 9.39905C 25.48 9.39905 24.586 8.42999 24.586 7.12903C 24.586 5.875 25.449 5 26.703 5z"/>
<path style="stroke:none; fill-rule:evenodd; fill:#000000" d="M 34.546 0C 33.597 0 32.73 0.407043 32.195 1.09802C 31.535 1.98901 31.203 3.35205 31.203 5.23505C 31.203 8.66803 32.355 10.493 34.55 10.493C 36.714 10.493 37.898 8.66803 37.898 5.32104C 37.898 3.34003 37.582 2.01605 36.902 1.09802C 36.371 0.39502 35.519 0 34.55 0L 34.546 0zM 34.546 1.09802C 35.914 1.09802 36.593 2.46899 36.593 5.18402C 36.593 8.05103 35.929 9.39502 34.515 9.39502C 33.175 9.39502 32.496 7.99603 32.496 5.22705C 32.496 2.45703 33.171 1.09802 34.543 1.09802L 34.546 1.09802z"/>
<path style="stroke:none; fill-rule:evenodd; fill:#000000" d="M 39.195 7.39905L 46.492 7.39905L 46.492 6.39905L 39.195 6.39905L 39.195 7.39905z"/>
<path style="stroke:#000000; stroke-dasharray:6,3; stroke-width:1.59941; fill:none" d="M 54.734 120.547L 85.921 143.735L 116.308 142.938L 146.695 163.727L 177.882 172.524L 208.269 174.121L 239.457 176.52L 269.843 177.317L 300.23 177.317L 331.418 177.317L 361.804 177.317"/>
<path style="stroke:#000000; stroke-dasharray:6,3; stroke-width:1.59941; fill:none" d="M 54.734 119.75L 85.921 116.555L 116.308 159.739L 146.695 192.524L 177.882 200.52L 208.269 202.118L 239.457 201.321L 269.843 205.317L 300.23 205.317L 331.418 205.317L 361.804 205.317"/>
<path style="stroke:none; fill-rule:evenodd; fill:#000000" d="M 54.734 230.907L 362.617 230.907L 362.617 230.11L 54.734 230.11L 54.734 230.907z"/>
<path style="stroke:#000000; stroke-width:0.0; fill:none" d="M 54.734 230.907L 362.617 230.907L 362.617 230.11L 54.734 230.11L 54.734 230.907z"/>
<path style="stroke:none; fill-rule:evenodd; fill:#000000" d="M 55.445 236.598C 54.496 236.598 53.628 237.004 53.093 237.696C 52.433 238.586 52.101 239.95 52.101 241.832C 52.101 245.266 53.253 247.09 55.449 247.09C 57.613 247.09 58.796 245.266 58.796 241.918C 58.796 239.938 58.48 238.614 57.8 237.696C 57.269 236.993 56.418 236.598 55.449 236.598L 55.445 236.598zM 55.445 237.7C 56.812 237.7 57.492 239.071 57.492 241.786C 57.492 244.653 56.828 245.996 55.414 245.996C 54.074 245.996 53.394 244.598 53.394 241.828C 53.394 239.059 54.07 237.7 55.441 237.7L 55.445 237.7z"/>
<path style="stroke:none; fill-rule:evenodd; fill:#000000" d="M 86.496 239.536L 86.496 246.797L 87.695 246.797L 87.695 236.598L 86.859 236.598C 86.414 238.164 86.125 238.379 84.164 238.625L 84.164 239.528L 86.496 239.536z"/>
<path style="stroke:none; fill-rule:evenodd; fill:#000000" d="M 120.421 245.5L 115.019 245.5C 115.148 244.672 115.613 244.145 116.871 243.414L 118.316 242.645C 119.75 241.875 120.488 240.828 120.488 239.586C 120.488 238.743 120.14 237.957 119.535 237.414C 118.929 236.871 118.175 236.614 117.203 236.614C 115.902 236.614 114.929 237.075 114.363 237.934C 114.003 238.477 113.843 239.11 113.816 240.145L 115.089 240.145C 115.132 239.457 115.218 239.039 115.394 238.707C 115.726 238.09 116.394 237.715 117.16 237.715C 118.316 237.715 119.187 238.536 119.187 239.629C 119.187 240.434 118.71 241.125 117.796 241.641L 116.464 242.387C 114.32 243.594 113.699 244.559 113.582 246.805L 120.418 246.805L 120.421 245.5z"/>
<path style="stroke:none; fill-rule:evenodd; fill:#000000" d="M 146.675 242.098L 147.367 242.098C 148.765 242.098 149.492 242.731 149.492 243.953C 149.492 245.231 148.699 245.996 147.375 245.996C 145.992 245.996 145.316 245.309 145.226 243.832L 143.96 243.832C 144.015 244.645 144.16 245.172 144.406 245.625C 144.925 246.594 145.933 247.09 147.332 247.09C 149.437 247.09 150.793 245.844 150.793 243.922C 150.793 242.633 150.285 241.914 149.05 241.5C 150.011 241.129 150.492 240.41 150.492 239.395C 150.492 237.645 149.324 236.598 147.375 236.598C 145.312 236.598 144.214 237.715 144.171 239.887L 145.441 239.887C 145.453 239.27 145.511 238.922 145.671 238.606C 145.957 238.047 146.593 237.7 147.386 237.7C 148.511 237.7 149.191 238.352 149.191 239.418C 149.191 240.129 148.933 240.555 148.367 240.782C 148.019 240.922 147.574 240.977 146.675 240.993L 146.675 242.098z"/>
<path style="stroke:none; fill-rule:evenodd; fill:#000000" d="M 179.398 244.301L 179.398 246.801L 180.597 246.801L 180.597 244.301L 182.179 244.301L 182.179 243.203L 180.597 243.203L 180.597 236.606L 179.675 236.606L 175.105 242.977L 175.105 244.301L 179.398 244.301zM 179.398 243.2L 176.21 243.2L 179.398 238.754L 179.398 243.2z"/>
<path style="stroke:none; fill-rule:evenodd; fill:#000000" d="M 211.96 236.598L 206.683 236.598L 205.921 242.145L 207.089 242.145C 207.679 241.442 208.168 241.196 208.964 241.196C 210.332 241.196 211.199 242.129 211.199 243.637C 211.199 245.102 210.347 245.993 208.964 245.993C 207.855 245.993 207.179 245.434 206.875 244.289L 205.609 244.289C 205.781 245.114 205.925 245.512 206.226 245.883C 206.8 246.649 207.839 247.09 208.996 247.09C 211.058 247.09 212.5 245.606 212.5 243.465C 212.5 241.465 211.16 240.098 209.199 240.098C 208.48 240.098 207.902 240.278 207.312 240.692L 207.714 237.899L 211.968 237.899L 211.96 236.598z"/>
<path style="stroke:none; fill-rule:evenodd; fill:#000000" d="M 242.664 239.301C 242.425 237.61 241.343 236.602 239.808 236.602C 238.703 236.602 237.707 237.145 237.109 238.051C 236.484 239.039 236.203 240.286 236.203 242.137C 236.203 243.84 236.457 244.934 237.054 245.836C 237.593 246.653 238.476 247.098 239.589 247.098C 241.511 247.098 242.894 245.676 242.894 243.7C 242.894 241.825 241.593 240.5 239.753 240.5C 238.742 240.5 237.945 240.875 237.398 241.598C 237.41 239.094 238.218 237.7 239.675 237.7C 240.57 237.7 241.191 238.282 241.39 239.297L 242.664 239.301zM 239.601 241.598C 240.828 241.598 241.589 242.438 241.589 243.797C 241.589 245.067 240.726 245.996 239.558 245.996C 238.378 245.996 237.484 245.028 237.484 243.727C 237.484 242.473 238.347 241.598 239.601 241.598z"/>
<path style="stroke:none; fill-rule:evenodd; fill:#000000" d="M 274.195 236.598L 267.398 236.598L 267.398 237.895L 272.89 237.895C 270.468 241.34 269.48 243.457 268.718 246.793L 270.066 246.793C 270.625 243.532 271.902 240.727 274.195 237.66L 274.195 236.598z"/>
<path style="stroke:none; fill-rule:evenodd; fill:#000000" d="M 302.625 241.418C 303.656 240.789 303.996 240.274 303.996 239.313C 303.996 237.723 302.75 236.602 300.945 236.602C 299.16 236.602 297.898 237.719 297.898 239.313C 297.898 240.258 298.242 240.774 299.273 241.418C 298.089 241.977 297.5 242.821 297.5 243.942C 297.5 245.805 298.918 247.094 300.945 247.094C 302.972 247.094 304.394 245.805 304.394 243.953C 304.394 242.821 303.816 241.977 302.625 241.418zM 300.945 237.7C 302.011 237.7 302.695 238.328 302.695 239.321C 302.695 240.266 302 240.895 300.945 240.895C 299.894 240.895 299.195 240.266 299.195 239.305C 299.195 238.332 299.89 237.7 300.945 237.7zM 300.945 242C 302.222 242 303.093 242.801 303.093 243.993C 303.093 245.196 302.226 245.996 300.918 245.996C 299.671 245.996 298.8 245.18 298.8 243.993C 298.8 242.805 299.668 242 300.949 242L 300.945 242z"/>
<path style="stroke:none; fill-rule:evenodd; fill:#000000" d="M 328.16 244.469C 328.402 246.118 329.492 247.098 331.039 247.098C 332.156 247.098 333.171 246.555 333.761 245.653C 334.406 244.664 334.691 243.418 334.691 241.567C 334.691 239.864 334.433 238.77 333.824 237.868C 333.261 237.051 332.367 236.606 331.242 236.606C 329.296 236.606 327.894 238.047 327.894 240.055C 327.894 241.957 329.195 243.301 331.046 243.301C 332.015 243.301 332.722 242.969 333.39 242.203C 333.378 244.645 332.574 246 331.125 246C 330.238 246 329.621 245.446 329.421 244.469L 328.16 244.469zM 331.246 237.7C 332.437 237.7 333.339 238.688 333.339 240.028C 333.339 241.293 332.453 242.196 331.203 242.196C 329.968 242.196 329.199 241.34 329.199 239.957C 329.199 238.649 330.07 237.7 331.246 237.7z"/>
<path style="stroke:none; fill-rule:evenodd; fill:#000000" d="M 359.195 239.536L 359.195 246.797L 360.394 246.797L 360.394 236.598L 359.558 236.598C 359.113 238.164 358.824 238.379 356.863 238.625L 356.863 239.528L 359.195 239.536z"/>
<path style="stroke:none; fill-rule:evenodd; fill:#000000" d="M 367.347 236.598C 366.398 236.598 365.531 237.004 364.996 237.696C 364.336 238.586 364.003 239.95 364.003 241.832C 364.003 245.266 365.156 247.09 367.351 247.09C 369.515 247.09 370.699 245.266 370.699 241.918C 370.699 239.938 370.382 238.614 369.703 237.696C 369.171 236.993 368.32 236.598 367.351 236.598L 367.347 236.598zM 367.347 237.7C 368.714 237.7 369.394 239.071 369.394 241.786C 369.394 244.653 368.73 245.996 367.316 245.996C 365.976 245.996 365.296 244.598 365.296 241.828C 365.296 239.059 365.972 237.7 367.343 237.7L 367.347 237.7z"/>
<path style="stroke:none; fill-rule:evenodd; fill:#000000" d="M 3.285 144.2C 1.207 144.211 0 145.61 0 148.004C 0 150.282 1.187 151.696 3.105 151.696C 4.394 151.696 5.207 151.02 5.57 149.637L 6.265 147.032C 6.613 145.707 7.148 145.102 7.97601 145.102C 8.539 145.102 9.121 145.403 9.441 145.848C 9.73 146.266 9.89 146.926 9.89 147.774C 9.89 148.91 9.613 149.684 8.996 150.192C 8.527 150.578 8.015 150.75 7.355 150.793L 7.355 151.993C 8.30801 151.981 8.937 151.793 9.507 151.379C 10.476 150.664 10.988 149.461 10.988 147.875C 10.988 146.633 10.703 145.618 10.183 144.942C 9.625 144.243 8.68301 143.797 7.777 143.797C 6.48 143.797 5.527 144.602 5.136 146.028L 4.43301 148.664C 4.089 149.93 3.68301 150.391 2.87801 150.391C 1.812 150.391 1.105 149.45 1.105 148.032C 1.105 146.352 1.886 145.41 3.289 145.395L 3.285 144.2z"/>
<path style="stroke:none; fill-rule:evenodd; fill:#000000" d="M 7.29601 135.7C 6.144 135.7 5.453 135.786 4.89 136C 3.652 136.489 2.902 137.637 2.902 139.047C 2.902 141.145 4.515 142.496 6.992 142.496C 9.468 142.496 10.996 141.192 10.996 139.086C 10.996 137.368 10.031 136.176 8.41 135.875L 8.41 137.09C 9.386 137.422 9.894 138.102 9.894 139.071C 9.894 139.836 9.55 140.489 8.914 140.891C 8.484 141.176 8.05 141.282 7.29601 141.293L 7.29601 135.7zM 6.347 141.243C 4.953 141.145 4.04601 140.293 4.04601 139.086C 4.04601 137.907 5.023 137 6.261 137C 6.289 137 6.316 137 6.347 137.012L 6.347 141.243z"/>
<path style="stroke:none; fill-rule:evenodd; fill:#000000" d="M 3.195 131.399L 3.195 132.696L 1.082 132.696L 1.082 133.895L 3.195 133.895L 3.195 134.895L 4.195 134.895L 4.195 133.895L 9.812 133.895C 10.562 133.895 10.988 133.364 10.988 132.403C 10.988 132.11 10.96 131.813 10.89 131.399L 9.914 131.399C 9.898 131.563 9.894 131.758 9.894 132C 9.894 132.543 9.757 132.692 9.238 132.692L 4.203 132.692L 4.203 131.395L 3.195 131.399z"/>
<path style="stroke:none; fill-rule:evenodd; fill:#000000" d="M 3.195 127.399L 3.195 128.696L 1.082 128.696L 1.082 129.895L 3.195 129.895L 3.195 130.895L 4.195 130.895L 4.195 129.895L 9.812 129.895C 10.562 129.895 10.988 129.364 10.988 128.403C 10.988 128.11 10.96 127.813 10.89 127.399L 9.914 127.399C 9.898 127.563 9.894 127.758 9.894 128C 9.894 128.543 9.757 128.692 9.238 128.692L 4.203 128.692L 4.203 127.395L 3.195 127.399z"/>
<path style="stroke:none; fill-rule:evenodd; fill:#000000" d="M 0.195 126.098L 10.695 126.098L 10.695 124.899L 0.195 124.899L 0.195 126.098z"/>
<path style="stroke:none; fill-rule:evenodd; fill:#000000" d="M 3.195 121.7L 3.195 122.899L 10.695 122.899L 10.695 121.7L 3.195 121.7zM 0.195 121.7L 0.195 122.899L 1.71 122.899L 1.71 121.7L 0.195 121.7z"/>
<path style="stroke:none; fill-rule:evenodd; fill:#000000" d="M 3.117 119.7L 10.695 119.7L 10.695 118.5L 6.543 118.5C 5.007 118.5 4 117.696 4 116.457C 4 115.508 4.57401 114.903 5.48 114.903L 10.699 114.903L 10.699 113.703L 4.972 113.703C 3.714 113.703 2.902 114.637 2.902 116.094C 2.902 117.215 3.33601 117.938 4.39 118.602L 3.121 118.602L 3.117 119.7z"/>
<path style="stroke:none; fill-rule:evenodd; fill:#000000" d="M 3.195 106.801L 4.246 106.801C 3.328 107.403 2.898 108.137 2.898 109.098C 2.898 111.004 4.57 112.297 7.019 112.297C 8.257 112.297 9.265 111.969 9.988 111.348C 10.621 110.789 10.996 109.981 10.996 109.192C 10.996 108.243 10.605 107.582 9.675 106.903L 10.058 106.903C 11.07 106.903 11.683 107.032 12.093 107.332C 12.535 107.645 12.789 108.262 12.789 108.993C 12.789 109.536 12.648 110.024 12.398 110.352C 12.187 110.621 11.992 110.739 11.558 110.809L 11.558 112.028C 12.957 111.899 13.793 110.801 13.793 109.039C 13.793 107.926 13.437 106.969 12.839 106.481C 12.156 105.91 11.214 105.696 9.457 105.696L 3.19901 105.696L 3.195 106.801zM 3.996 108.985C 3.996 107.672 5.093 106.899 6.988 106.899C 8.793 106.899 9.89 107.684 9.89 108.969C 9.89 110.293 8.78101 111.098 6.941 111.098C 5.121 111.098 3.992 110.286 3.992 108.985L 3.996 108.985z"/>
<path style="stroke:none; fill-rule:evenodd; fill:#000000" d="M 3.457 91.172C 1.132 91.59 0 92.91 0 95.211C 0 96.618 0.445 97.754 1.30801 98.532C 2.343 99.477 3.839 99.996 5.539 99.996C 7.265 99.996 8.746 99.465 9.769 98.473C 10.601 97.668 10.992 96.633 10.992 95.27C 10.992 92.711 9.625 91.274 6.863 90.957L 6.863 92.344C 7.593 92.457 8.089 92.602 8.515 92.821C 9.39 93.254 9.89 94.149 9.89 95.274C 9.89 97.368 8.191 98.696 5.523 98.696C 2.785 98.696 1.097 97.426 1.097 95.387C 1.097 94.536 1.367 93.743 1.793 93.309C 2.168 92.922 2.636 92.703 3.453 92.543L 3.457 91.172z"/>
<path style="stroke:none; fill-rule:evenodd; fill:#000000" d="M 3.195 84.715L 9.023 86.801L 3.195 88.727L 3.195 90.004L 10.765 87.457L 11.957 87.918C 12.488 88.102 12.687 88.379 12.687 88.879C 12.687 89.051 12.644 89.25 12.558 89.512L 13.605 89.512C 13.73 89.27 13.785 89.024 13.785 88.707C 13.785 88.321 13.656 87.903 13.429 87.586C 13.16 87.215 12.843 86.996 12.246 86.77L 3.191 83.418L 3.195 84.715z"/>
<path style="stroke:none; fill-rule:evenodd; fill:#000000" d="M 5.687 76.321C 4.925 76.379 4.43301 76.536 4 76.821C 3.312 77.332 2.902 78.231 2.902 79.274C 2.902 81.286 4.515 82.598 7.023 82.598C 9.457 82.598 11 81.317 11 79.289C 11 77.508 9.93301 76.379 8.109 76.235L 8.109 77.442C 9.3 77.641 9.898 78.258 9.898 79.282C 9.898 80.602 8.816 81.395 7.023 81.395C 5.132 81.395 4.00301 80.621 4.00301 79.309C 4.00301 78.305 4.609 77.672 5.691 77.528L 5.687 76.321z"/>
<path style="stroke:none; fill-rule:evenodd; fill:#000000" d="M 0.195 74.899L 10.695 74.899L 10.695 73.7L 0.195 73.7L 0.195 74.899z"/>
<path style="stroke:none; fill-rule:evenodd; fill:#000000" d="M 7.29601 65.301C 6.144 65.301 5.453 65.387 4.89 65.602C 3.652 66.09 2.902 67.239 2.902 68.649C 2.902 70.746 4.515 72.098 6.992 72.098C 9.468 72.098 10.996 70.793 10.996 68.688C 10.996 66.969 10.031 65.778 8.41 65.477L 8.41 66.692C 9.386 67.024 9.894 67.703 9.894 68.672C 9.894 69.438 9.55 70.09 8.914 70.493C 8.484 70.778 8.05 70.883 7.29601 70.895L 7.29601 65.301zM 6.347 70.844C 4.953 70.746 4.04601 69.895 4.04601 68.688C 4.04601 67.508 5.023 66.602 6.261 66.602C 6.289 66.602 6.316 66.602 6.347 66.614L 6.347 70.844z"/>
<path style="stroke:none; fill-rule:evenodd; fill:#000000" d="M 5.25301 58.395C 3.746 58.41 2.898 59.383 2.898 61.118C 2.898 62.864 3.804 63.996 5.207 63.996C 6.39 63.996 6.94901 63.391 7.382 61.598L 7.65601 60.473C 7.855 59.637 8.16 59.305 8.707 59.305C 9.41 59.305 9.886 60.016 9.886 61.075C 9.886 61.727 9.703 62.278 9.394 62.582C 9.18301 62.77 8.972 62.856 8.445 62.93L 8.445 64.207C 10.164 64.153 10.988 63.176 10.988 61.203C 10.988 59.309 10.05 58.098 8.593 58.098C 7.468 58.098 6.85101 58.731 6.488 60.235L 6.214 61.391C 5.984 62.371 5.668 62.793 5.136 62.793C 4.445 62.793 3.996 62.172 3.996 61.188C 3.996 60.219 4.429 59.696 5.25301 59.668L 5.25301 58.395z"/>
<path style="stroke:none; fill-rule:evenodd; fill:#000000" d="M 181.996 254.801L 185.429 254.801L 185.429 253.703L 177.199 253.703L 177.199 254.801L 180.695 254.801L 180.695 264.2L 181.992 264.2L 181.996 254.801z"/>
<path style="stroke:none; fill-rule:evenodd; fill:#000000" d="M 186.695 256.618L 186.695 264.196L 187.894 264.196L 187.894 260.278C 187.894 259.2 188.168 258.493 188.742 258.075C 189.117 257.801 189.476 257.715 190.312 257.7L 190.312 256.446C 190.113 256.418 190.011 256.403 189.851 256.403C 189.074 256.403 188.484 256.864 187.793 257.993L 187.793 256.618L 186.695 256.618z"/>
<path style="stroke:none; fill-rule:evenodd; fill:#000000" d="M 198.199 263.496C 198.07 263.5 198.015 263.5 197.941 263.5C 197.527 263.5 197.3 263.286 197.3 262.91L 197.3 258.469C 197.3 257.129 196.324 256.407 194.464 256.407C 193.371 256.407 192.464 256.727 191.96 257.297C 191.617 257.692 191.472 258.129 191.445 258.891L 192.652 258.891C 192.75 257.938 193.296 257.504 194.421 257.504C 195.5 257.504 196.105 257.907 196.105 258.629L 196.105 258.946C 196.105 259.45 195.804 259.664 194.851 259.782C 193.152 259.996 192.894 260.055 192.433 260.243C 191.554 260.602 191.109 261.278 191.109 262.262C 191.109 263.629 192.058 264.496 193.586 264.496C 194.535 264.496 195.296 264.176 196.148 263.422C 196.234 264.16 196.609 264.496 197.386 264.496C 197.628 264.496 197.816 264.469 198.207 264.371L 198.199 263.496zM 196.097 261.789C 196.097 262.18 195.984 262.418 195.617 262.739C 195.121 263.172 194.523 263.395 193.808 263.395C 192.859 263.395 192.304 262.961 192.304 262.219C 192.304 261.45 192.843 261.059 194.144 260.875C 195.429 260.707 195.691 260.653 196.101 260.473L 196.097 261.789z"/>
<path style="stroke:none; fill-rule:evenodd; fill:#000000" d="M 200.695 256.7L 199.496 256.7L 199.496 264.2L 200.695 264.2L 200.695 256.7zM 200.695 253.7L 199.496 253.7L 199.496 255.215L 200.695 255.215L 200.695 253.7z"/>
<path style="stroke:none; fill-rule:evenodd; fill:#000000" d="M 202.695 256.618L 202.695 264.196L 203.894 264.196L 203.894 260.043C 203.894 258.508 204.699 257.5 205.937 257.5C 206.886 257.5 207.492 258.075 207.492 258.981L 207.492 264.2L 208.691 264.2L 208.691 258.473C 208.691 257.215 207.757 256.403 206.3 256.403C 205.179 256.403 204.457 256.836 203.793 257.891L 203.793 256.621L 202.695 256.618z"/>
<path style="stroke:none; fill-rule:evenodd; fill:#000000" d="M 211.898 256.7L 210.699 256.7L 210.699 264.2L 211.898 264.2L 211.898 256.7zM 211.898 253.7L 210.699 253.7L 210.699 255.215L 211.898 255.215L 211.898 253.7z"/>
<path style="stroke:none; fill-rule:evenodd; fill:#000000" d="M 213.898 256.618L 213.898 264.196L 215.097 264.196L 215.097 260.043C 215.097 258.508 215.902 257.5 217.14 257.5C 218.089 257.5 218.695 258.075 218.695 258.981L 218.695 264.2L 219.894 264.2L 219.894 258.473C 219.894 257.215 218.96 256.403 217.503 256.403C 216.382 256.403 215.66 256.836 214.996 257.891L 214.996 256.621L 213.898 256.618z"/>
<path style="stroke:none; fill-rule:evenodd; fill:#000000" d="M 226.796 256.7L 226.796 257.75C 226.195 256.832 225.46 256.403 224.5 256.403C 222.593 256.403 221.3 258.075 221.3 260.524C 221.3 261.762 221.628 262.77 222.25 263.493C 222.808 264.125 223.617 264.5 224.406 264.5C 225.355 264.5 226.015 264.11 226.695 263.18L 226.695 263.563C 226.695 264.575 226.566 265.188 226.265 265.598C 225.953 266.039 225.336 266.293 224.605 266.293C 224.062 266.293 223.574 266.153 223.246 265.903C 222.976 265.692 222.859 265.496 222.789 265.063L 221.57 265.063C 221.699 266.461 222.796 267.297 224.558 267.297C 225.671 267.297 226.628 266.942 227.117 266.344C 227.687 265.66 227.902 264.719 227.902 262.961L 227.902 256.703L 226.796 256.7zM 224.609 257.5C 225.921 257.5 226.695 258.598 226.695 260.493C 226.695 262.297 225.91 263.395 224.625 263.395C 223.3 263.395 222.496 262.286 222.496 260.446C 222.496 258.625 223.308 257.496 224.609 257.496L 224.609 257.5z"/>
<path style="stroke:none; fill-rule:evenodd; fill:#000000" d="M 237.996 254.801L 241.429 254.801L 241.429 253.703L 233.199 253.703L 233.199 254.801L 236.695 254.801L 236.695 264.2L 237.992 264.2L 237.996 254.801z"/>
<path style="stroke:none; fill-rule:evenodd; fill:#000000" d="M 242.695 256.618L 242.695 264.196L 243.894 264.196L 243.894 260.278C 243.894 259.2 244.168 258.493 244.742 258.075C 245.117 257.801 245.476 257.715 246.312 257.7L 246.312 256.446C 246.113 256.418 246.011 256.403 245.851 256.403C 245.074 256.403 244.484 256.864 243.793 257.993L 243.793 256.618L 242.695 256.618z"/>
<path style="stroke:none; fill-rule:evenodd; fill:#000000" d="M 248.695 256.7L 247.496 256.7L 247.496 264.2L 248.695 264.2L 248.695 256.7zM 248.695 253.7L 247.496 253.7L 247.496 255.215L 248.695 255.215L 248.695 253.7z"/>
<path style="stroke:none; fill-rule:evenodd; fill:#000000" d="M 257.398 263.496C 257.269 263.5 257.214 263.5 257.14 263.5C 256.726 263.5 256.5 263.286 256.5 262.91L 256.5 258.469C 256.5 257.129 255.523 256.407 253.664 256.407C 252.57 256.407 251.664 256.727 251.16 257.297C 250.816 257.692 250.671 258.129 250.644 258.891L 251.851 258.891C 251.949 257.938 252.496 257.504 253.621 257.504C 254.699 257.504 255.304 257.907 255.304 258.629L 255.304 258.946C 255.304 259.45 255.003 259.664 254.05 259.782C 252.351 259.996 252.093 260.055 251.632 260.243C 250.753 260.602 250.308 261.278 250.308 262.262C 250.308 263.629 251.257 264.496 252.785 264.496C 253.734 264.496 254.496 264.176 255.347 263.422C 255.433 264.16 255.808 264.496 256.586 264.496C 256.828 264.496 257.015 264.469 257.406 264.371L 257.398 263.496zM 255.296 261.789C 255.296 262.18 255.183 262.418 254.816 262.739C 254.32 263.172 253.722 263.395 253.007 263.395C 252.058 263.395 251.503 262.961 251.503 262.219C 251.503 261.45 252.043 261.059 253.343 260.875C 254.628 260.707 254.89 260.653 255.3 260.473L 255.296 261.789z"/>
<path style="stroke:none; fill-rule:evenodd; fill:#000000" d="M 258.695 264.2L 259.894 264.2L 259.894 253.7L 258.695 253.7L 258.695 264.2z"/>
<path style="stroke:none; fill-rule:evenodd; fill:#000000" d="M 267.203 258.758C 267.187 257.25 266.214 256.403 264.48 256.403C 262.734 256.403 261.601 257.309 261.601 258.711C 261.601 259.895 262.207 260.453 264 260.887L 265.125 261.16C 265.96 261.36 266.293 261.664 266.293 262.211C 266.293 262.914 265.582 263.391 264.523 263.391C 263.871 263.391 263.32 263.207 263.015 262.899C 262.828 262.688 262.742 262.477 262.668 261.95L 261.39 261.95C 261.445 263.668 262.421 264.493 264.394 264.493C 266.289 264.493 267.5 263.555 267.5 262.098C 267.5 260.973 266.867 260.356 265.363 259.993L 264.207 259.719C 263.226 259.489 262.804 259.172 262.804 258.641C 262.804 257.95 263.425 257.5 264.41 257.5C 265.378 257.5 265.902 257.934 265.929 258.758L 267.203 258.758z"/>
<path style="stroke:none; fill-rule:evenodd; fill:#000000" d="M 378.023 176.801L 372.621 176.801C 372.75 175.973 373.214 175.446 374.472 174.715L 375.918 173.946C 377.351 173.176 378.089 172.129 378.089 170.887C 378.089 170.043 377.742 169.258 377.136 168.715C 376.531 168.172 375.777 167.914 374.804 167.914C 373.503 167.914 372.531 168.375 371.964 169.235C 371.605 169.778 371.445 170.41 371.418 171.446L 372.691 171.446C 372.734 170.758 372.82 170.34 372.996 170.008C 373.328 169.391 373.996 169.016 374.761 169.016C 375.918 169.016 376.789 169.836 376.789 170.93C 376.789 171.735 376.312 172.426 375.398 172.942L 374.066 173.688C 371.921 174.895 371.3 175.86 371.183 178.106L 378.019 178.106L 378.023 176.801z"/>
<path style="stroke:none; fill-rule:evenodd; fill:#000000" d="M 379.695 170.52L 379.695 178.098L 380.894 178.098L 380.894 173.946C 380.894 172.41 381.699 171.403 382.937 171.403C 383.886 171.403 384.492 171.977 384.492 172.883L 384.492 178.102L 385.691 178.102L 385.691 172.375C 385.691 171.118 384.757 170.305 383.3 170.305C 382.179 170.305 381.457 170.739 380.793 171.793L 380.793 170.524L 379.695 170.52z"/>
<path style="stroke:none; fill-rule:evenodd; fill:#000000" d="M 393.796 167.598L 392.597 167.598L 392.597 171.504C 392.101 170.715 391.3 170.301 390.304 170.301C 388.371 170.301 387.101 171.871 387.101 174.278C 387.101 176.828 388.332 178.399 390.332 178.399C 391.351 178.399 392.058 178.02 392.699 177.106L 392.699 178.098L 393.796 178.098L 393.796 167.598zM 390.484 171.399C 391.777 171.399 392.597 172.559 392.597 174.375C 392.597 176.133 391.765 177.293 390.5 177.293C 389.179 177.293 388.3 176.118 388.3 174.348C 388.3 172.578 389.175 171.399 390.484 171.399z"/>
<path style="stroke:none; fill-rule:evenodd; fill:#000000" d="M 405 172.66C 404.984 171.153 404.011 170.305 402.277 170.305C 400.531 170.305 399.398 171.211 399.398 172.614C 399.398 173.797 400.003 174.356 401.796 174.789L 402.921 175.063C 403.757 175.262 404.089 175.567 404.089 176.114C 404.089 176.817 403.378 177.293 402.32 177.293C 401.668 177.293 401.117 177.11 400.812 176.801C 400.625 176.59 400.539 176.379 400.464 175.852L 399.187 175.852C 399.242 177.571 400.218 178.395 402.191 178.395C 404.086 178.395 405.296 177.457 405.296 176C 405.296 174.875 404.664 174.258 403.16 173.895L 402.003 173.621C 401.023 173.391 400.601 173.075 400.601 172.543C 400.601 171.852 401.222 171.403 402.207 171.403C 403.175 171.403 403.699 171.836 403.726 172.66L 405 172.66z"/>
<path style="stroke:none; fill-rule:evenodd; fill:#000000" d="M 409.597 170.598L 408.3 170.598L 408.3 168.485L 407.101 168.485L 407.101 170.598L 406.101 170.598L 406.101 171.598L 407.101 171.598L 407.101 177.215C 407.101 177.965 407.632 178.391 408.593 178.391C 408.886 178.391 409.183 178.364 409.597 178.293L 409.597 177.317C 409.433 177.301 409.238 177.297 408.996 177.297C 408.453 177.297 408.304 177.16 408.304 176.641L 408.304 171.606L 409.601 171.606L 409.597 170.598z"/>
<path style="stroke:none; fill-rule:evenodd; fill:#000000" d="M 417.296 174.7C 417.296 173.547 417.21 172.856 416.996 172.293C 416.507 171.055 415.359 170.305 413.949 170.305C 411.851 170.305 410.5 171.918 410.5 174.395C 410.5 176.871 411.804 178.399 413.91 178.399C 415.628 178.399 416.82 177.434 417.121 175.813L 415.906 175.813C 415.574 176.789 414.894 177.297 413.925 177.297C 413.16 177.297 412.507 176.953 412.105 176.317C 411.82 175.887 411.714 175.453 411.703 174.7L 417.296 174.7zM 411.753 173.754C 411.851 172.36 412.703 171.453 413.91 171.453C 415.089 171.453 415.996 172.43 415.996 173.668C 415.996 173.696 415.996 173.723 415.984 173.754L 411.753 173.754z"/>
<path style="stroke:none; fill-rule:evenodd; fill:#000000" d="M 418.695 181.239L 419.894 181.239L 419.894 177.301C 420.523 178.063 421.222 178.399 422.191 178.399C 424.117 178.399 425.39 176.828 425.39 174.422C 425.39 171.887 424.164 170.301 422.179 170.301C 421.168 170.301 420.351 170.762 419.796 171.657L 419.796 170.516L 418.699 170.516L 418.695 181.239zM 422.003 171.399C 423.328 171.399 424.195 172.575 424.195 174.391C 424.195 176.118 423.316 177.293 422.003 177.293C 420.734 177.293 419.898 176.133 419.898 174.348C 419.898 172.563 420.734 171.399 422.003 171.399z"/>
<path style="stroke:none; fill-rule:evenodd; fill:#000000" d="M 373.777 202.899L 374.468 202.899C 375.867 202.899 376.593 203.532 376.593 204.754C 376.593 206.032 375.8 206.797 374.476 206.797C 373.093 206.797 372.418 206.11 372.328 204.633L 371.062 204.633C 371.117 205.446 371.261 205.973 371.507 206.426C 372.027 207.395 373.035 207.891 374.433 207.891C 376.539 207.891 377.894 206.645 377.894 204.723C 377.894 203.434 377.386 202.715 376.152 202.301C 377.113 201.93 377.593 201.211 377.593 200.196C 377.593 198.446 376.425 197.399 374.476 197.399C 372.414 197.399 371.316 198.516 371.273 200.688L 372.543 200.688C 372.554 200.071 372.613 199.723 372.773 199.407C 373.058 198.848 373.695 198.5 374.488 198.5C 375.613 198.5 376.293 199.153 376.293 200.219C 376.293 200.93 376.035 201.356 375.468 201.582C 375.121 201.723 374.675 201.778 373.777 201.793L 373.777 202.899z"/>
<path style="stroke:none; fill-rule:evenodd; fill:#000000" d="M 379.695 200.02L 379.695 207.598L 380.894 207.598L 380.894 203.68C 380.894 202.602 381.168 201.895 381.742 201.477C 382.117 201.203 382.476 201.118 383.312 201.102L 383.312 199.848C 383.113 199.821 383.011 199.805 382.851 199.805C 382.074 199.805 381.484 200.266 380.793 201.395L 380.793 200.02L 379.695 200.02z"/>
<path style="stroke:none; fill-rule:evenodd; fill:#000000" d="M 390.496 197.098L 389.296 197.098L 389.296 201.004C 388.8 200.215 388 199.801 387.003 199.801C 385.07 199.801 383.8 201.371 383.8 203.778C 383.8 206.328 385.031 207.899 387.031 207.899C 388.05 207.899 388.757 207.52 389.398 206.606L 389.398 207.598L 390.496 207.598L 390.496 197.098zM 387.183 200.899C 388.476 200.899 389.296 202.059 389.296 203.875C 389.296 205.633 388.464 206.793 387.199 206.793C 385.878 206.793 385 205.618 385 203.848C 385 202.078 385.875 200.899 387.183 200.899z"/>
<path style="stroke:none; fill-rule:evenodd; fill:#000000" d="M 401.8 202.16C 401.785 200.653 400.812 199.805 399.078 199.805C 397.332 199.805 396.199 200.711 396.199 202.114C 396.199 203.297 396.804 203.856 398.597 204.289L 399.722 204.563C 400.558 204.762 400.89 205.067 400.89 205.614C 400.89 206.317 400.179 206.793 399.121 206.793C 398.468 206.793 397.918 206.61 397.613 206.301C 397.425 206.09 397.339 205.879 397.265 205.352L 395.988 205.352C 396.043 207.071 397.019 207.895 398.992 207.895C 400.886 207.895 402.097 206.957 402.097 205.5C 402.097 204.375 401.464 203.758 399.96 203.395L 398.804 203.121C 397.824 202.891 397.402 202.575 397.402 202.043C 397.402 201.352 398.023 200.903 399.007 200.903C 399.976 200.903 400.5 201.336 400.527 202.16L 401.8 202.16z"/>
<path style="stroke:none; fill-rule:evenodd; fill:#000000" d="M 406.296 200.098L 405 200.098L 405 197.985L 403.8 197.985L 403.8 200.098L 402.8 200.098L 402.8 201.098L 403.8 201.098L 403.8 206.715C 403.8 207.465 404.332 207.891 405.293 207.891C 405.586 207.891 405.882 207.864 406.296 207.793L 406.296 206.817C 406.132 206.801 405.937 206.797 405.695 206.797C 405.152 206.797 405.003 206.66 405.003 206.141L 405.003 201.106L 406.3 201.106L 406.296 200.098z"/>
<path style="stroke:none; fill-rule:evenodd; fill:#000000" d="M 413.996 204.2C 413.996 203.047 413.91 202.356 413.695 201.793C 413.207 200.555 412.058 199.805 410.648 199.805C 408.55 199.805 407.199 201.418 407.199 203.895C 407.199 206.371 408.503 207.899 410.609 207.899C 412.328 207.899 413.519 206.934 413.82 205.313L 412.605 205.313C 412.273 206.289 411.593 206.797 410.625 206.797C 409.859 206.797 409.207 206.453 408.804 205.817C 408.519 205.387 408.414 204.953 408.402 204.2L 413.996 204.2zM 408.453 203.254C 408.55 201.86 409.402 200.953 410.609 200.953C 411.789 200.953 412.695 201.93 412.695 203.168C 412.695 203.196 412.695 203.223 412.683 203.254L 408.453 203.254z"/>
<path style="stroke:none; fill-rule:evenodd; fill:#000000" d="M 415.496 210.739L 416.695 210.739L 416.695 206.801C 417.324 207.563 418.023 207.899 418.992 207.899C 420.918 207.899 422.191 206.328 422.191 203.922C 422.191 201.387 420.964 199.801 418.98 199.801C 417.968 199.801 417.152 200.262 416.597 201.157L 416.597 200.016L 415.5 200.016L 415.496 210.739zM 418.804 200.899C 420.128 200.899 420.996 202.075 420.996 203.891C 420.996 205.618 420.117 206.793 418.804 206.793C 417.535 206.793 416.699 205.633 416.699 203.848C 416.699 202.063 417.535 200.899 418.804 200.899z"/>
</g>
</svg>