<?xml version="1.0" encoding="ISO-8859-1" standalone="yes"?>
<svg width="342" height="221.288">
  <defs> 
    <marker id="ArrowEnd" viewBox="0 0 10 10" refX="0" refY="5" 
     markerUnits="strokeWidth" 
     markerWidth="4" 
     markerHeight="3" 
     orient="auto"> 
        <path d="M 0 0 L 10 5 L 0 10 z" /> 
    </marker>
    <marker id="ArrowStart" viewBox="0 0 10 10" refX="10" refY="5" 
     markerUnits="strokeWidth" 
     markerWidth="4" 
     markerHeight="3" 
     orient="auto"> 
        <path d="M 10 0 L 0 5 L 10 10 z" /> 
    </marker> </defs>
<g>
<path style="stroke:none; fill-rule:evenodd; fill:#ffffff" d="M 6.20082 218.092L 341.295 218.092L 341.295 5.73212L 6.20082 5.73212L 6.20082 218.092z"/>
<path style="stroke:#ffffff; stroke-width:0.10000000000000001; fill:none" d="M 6.20082 218.092L 341.295 218.092L 341.295 5.73212L 6.20082 5.73212L 6.20082 218.092z"/>
<path style="stroke:none; fill-rule:evenodd; fill:#000000" d="M 280.775 74.8141C 280.775 73.8961 280.709 73.3451 280.537 72.9001C 280.15 71.9161 279.236 71.3181 278.119 71.3181C 276.455 71.3181 275.381 72.6111 275.381 74.5991C 275.381 76.5881 276.416 77.8141 278.088 77.8141C 279.451 77.8141 280.396 77.0211 280.635 75.6931L 279.681 75.6931C 279.424 76.4941 278.888 76.9161 278.127 76.9161C 277.525 76.9161 277.017 76.6381 276.697 76.1231C 276.471 75.7751 276.392 75.4231 276.381 74.8181L 280.775 74.8141zM 276.353 74.0491C 276.431 72.9391 277.107 72.2131 278.072 72.2131C 279.01 72.2131 279.732 72.9901 279.732 73.9781C 279.732 73.9981 279.732 74.0211 279.724 74.0451L 276.353 74.0491z"/>
<path style="stroke:none; fill-rule:evenodd; fill:#000000" d="M 284.525 74.4121L 286.541 71.5171L 285.463 71.5171L 284.021 73.6851L 282.576 71.5171L 281.486 71.5171L 283.494 74.4591L 281.373 77.5131L 282.463 77.5131L 283.986 75.2091L 285.486 77.5131L 286.596 77.5131L 284.525 74.4121z"/>
<path style="stroke:none; fill-rule:evenodd; fill:#000000" d="M 292.377 73.5211C 292.334 72.9311 292.209 72.5521 291.978 72.2161C 291.572 71.6541 290.853 71.3181 290.025 71.3181C 288.424 71.3181 287.377 72.6111 287.377 74.6231C 287.377 76.5761 288.396 77.8141 290.014 77.8141C 291.431 77.8141 292.33 76.9431 292.447 75.4511L 291.494 75.4511C 291.338 76.4271 290.849 76.9161 290.045 76.9161C 289.002 76.9161 288.381 76.0521 288.381 74.6271C 288.381 73.1191 288.99 72.2201 290.025 72.2201C 290.818 72.2201 291.318 72.6891 291.428 73.5251L 292.377 73.5211z"/>
<path style="stroke:none; fill-rule:evenodd; fill:#000000" d="M 294.373 71.5131L 293.373 71.5131L 293.373 77.5131L 294.373 77.5131L 294.373 71.5131zM 294.373 69.1111L 293.373 69.1111L 293.373 70.3491L 294.373 70.3491L 294.373 69.1111z"/>
<path style="stroke:none; fill-rule:evenodd; fill:#000000" d="M 298.174 71.5131L 297.275 71.5131L 297.275 69.8531L 296.275 69.8531L 296.275 71.5131L 295.377 71.5131L 295.377 72.3101L 296.275 72.3101L 296.275 76.8571C 296.275 77.4631 296.678 77.8061 297.408 77.8061C 297.631 77.8061 297.857 77.7831 298.17 77.7241L 298.17 76.8881C 298.056 76.9741 297.92 77.0061 297.752 77.0061C 297.377 77.0061 297.271 76.8921 297.271 76.4631L 297.271 72.3101L 298.17 72.3101L 298.174 71.5131z"/>
<path style="stroke:none; fill-rule:evenodd; fill:#000000" d="M 304.514 76.9511C 304.412 77.0091 304.365 77.0091 304.303 77.0091C 303.967 77.0091 303.779 76.8381 303.779 76.5371L 303.779 72.9701C 303.779 71.8961 303.002 71.3141 301.529 71.3141C 300.662 71.3141 299.943 71.5681 299.541 72.0171C 299.267 72.3261 299.154 72.6731 299.131 73.2751L 300.076 73.2751C 300.154 72.5451 300.58 72.2091 301.463 72.2091C 302.306 72.2091 302.779 72.5291 302.779 73.1071L 302.779 73.3611C 302.779 73.7631 302.545 73.9351 301.803 74.0291C 300.478 74.2011 300.275 74.2481 299.916 74.3961C 299.232 74.6811 298.885 75.2241 298.885 76.0091C 298.885 77.1031 299.638 77.7951 300.849 77.7951C 301.603 77.7951 302.209 77.5211 302.885 76.8771C 302.951 77.5091 303.248 77.7951 303.865 77.7951C 304.056 77.7951 304.205 77.7711 304.514 77.6891L 304.514 76.9511zM 302.775 75.6541C 302.775 75.9821 302.689 76.1851 302.408 76.4551C 302.029 76.8181 301.572 77.0091 301.025 77.0091C 300.303 77.0091 299.877 76.6461 299.877 76.0171C 299.877 75.3691 300.287 75.0371 301.279 74.8841C 302.26 74.7441 302.459 74.6971 302.771 74.5451L 302.775 75.6541z"/>
<path style="stroke:none; fill-rule:evenodd; fill:#000000" d="M 307.674 71.5131L 306.775 71.5131L 306.775 69.8531L 305.775 69.8531L 305.775 71.5131L 304.877 71.5131L 304.877 72.3101L 305.775 72.3101L 305.775 76.8571C 305.775 77.4631 306.178 77.8061 306.908 77.8061C 307.131 77.8061 307.357 77.7831 307.67 77.7241L 307.67 76.8881C 307.556 76.9741 307.42 77.0061 307.252 77.0061C 306.877 77.0061 306.771 76.8921 306.771 76.4631L 306.771 72.3101L 307.67 72.3101L 307.674 71.5131z"/>
<path style="stroke:none; fill-rule:evenodd; fill:#000000" d="M 311.111 71.3141C 309.408 71.3141 308.373 72.5291 308.373 74.5641C 308.373 76.5991 309.392 77.8141 311.123 77.8141C 312.826 77.8141 313.873 76.6031 313.873 74.6111C 313.873 72.5211 312.865 71.3181 311.111 71.3181L 311.111 71.3141zM 311.123 72.2131C 312.217 72.2131 312.873 73.0991 312.873 74.5951C 312.873 76.0091 312.197 76.9081 311.123 76.9081C 310.041 76.9081 309.373 76.0211 309.373 74.5601C 309.373 73.1111 310.037 72.2131 311.123 72.2131z"/>
<path style="stroke:none; fill-rule:evenodd; fill:#000000" d="M 315.174 71.4861L 315.174 77.5091L 316.174 77.5091L 316.174 74.3771C 316.174 73.5131 316.385 72.9511 316.834 72.6151C 317.123 72.3961 317.404 72.3301 318.053 72.3141L 318.053 71.3491C 317.896 71.3301 317.818 71.3181 317.693 71.3181C 317.084 71.3181 316.619 71.6851 316.076 72.5841L 316.076 71.4941L 315.174 71.4861z"/>
<path style="stroke:none; fill-rule:evenodd; fill:#000000" d="M 322.627 71.5131L 320.967 76.1811L 319.431 71.5131L 318.412 71.5131L 320.439 77.5681L 320.076 78.5211C 319.928 78.9471 319.713 79.1071 319.31 79.1071C 319.174 79.1071 319.014 79.0721 318.806 79.0021L 318.806 79.8611C 318.998 79.9631 319.193 80.0091 319.447 80.0091C 319.756 80.0091 320.088 79.9081 320.342 79.7241C 320.638 79.5091 320.81 79.2561 320.994 78.7751L 323.666 71.5131L 322.627 71.5131z"/>
<path style="stroke:none; fill-rule:evenodd; fill:#000000" d="M 276.576 84.9121L 275.576 84.9121L 275.576 90.9121L 276.576 90.9121L 276.576 84.9121zM 276.576 82.5131L 275.576 82.5131L 275.576 83.7521L 276.576 83.7521L 276.576 82.5131z"/>
<path style="stroke:none; fill-rule:evenodd; fill:#000000" d="M 278.174 84.8881L 278.174 90.9121L 279.174 90.9121L 279.174 87.5641C 279.174 86.3261 279.799 85.5131 280.764 85.5131C 281.502 85.5131 281.971 85.9741 281.971 86.7051L 281.971 90.9081L 282.971 90.9081L 282.971 86.3571C 282.971 85.3571 282.228 84.7131 281.068 84.7131C 280.174 84.7131 279.603 85.0561 279.076 85.8961L 279.076 84.8841L 278.174 84.8881z"/>
<path style="stroke:none; fill-rule:evenodd; fill:#000000" d="M 284.576 82.5131L 284.576 90.9121L 285.576 90.9121L 285.576 87.5641C 285.576 86.3261 286.201 85.5131 287.166 85.5131C 287.467 85.5131 287.767 85.6151 287.994 85.7911C 288.26 85.9861 288.373 86.2751 288.373 86.7051L 288.373 90.9081L 289.373 90.9081L 289.373 86.3571C 289.373 85.3451 288.654 84.7131 287.49 84.7131C 286.646 84.7131 286.135 84.9781 285.576 85.7241L 285.576 82.5131L 284.576 82.5131z"/>
<path style="stroke:none; fill-rule:evenodd; fill:#000000" d="M 291.873 84.9121L 290.873 84.9121L 290.873 90.9121L 291.873 90.9121L 291.873 84.9121zM 291.873 82.5131L 290.873 82.5131L 290.873 83.7521L 291.873 83.7521L 291.873 82.5131z"/>
<path style="stroke:none; fill-rule:evenodd; fill:#000000" d="M 293.275 82.5131L 293.275 90.9121L 294.174 90.9121L 294.174 90.1461C 294.627 90.8691 295.232 91.2131 296.068 91.2131C 297.642 91.2131 298.67 89.9081 298.67 87.8961C 298.67 85.9311 297.689 84.7161 296.119 84.7161C 295.299 84.7161 294.721 85.0291 294.275 85.7161L 294.275 82.5171L 293.275 82.5131zM 295.92 85.6231C 296.986 85.6231 297.674 86.5491 297.674 87.9861C 297.674 89.3491 296.963 90.2791 295.92 90.2791C 294.912 90.2791 294.248 89.3611 294.248 87.9511C 294.248 86.5411 294.912 85.6231 295.92 85.6231z"/>
<path style="stroke:none; fill-rule:evenodd; fill:#000000" d="M 300.775 84.9121L 299.775 84.9121L 299.775 90.9121L 300.775 90.9121L 300.775 84.9121zM 300.775 82.5131L 299.775 82.5131L 299.775 83.7521L 300.775 83.7521L 300.775 82.5131z"/>
<path style="stroke:none; fill-rule:evenodd; fill:#000000" d="M 304.474 84.9121L 303.576 84.9121L 303.576 83.2521L 302.576 83.2521L 302.576 84.9121L 301.678 84.9121L 301.678 85.7091L 302.576 85.7091L 302.576 90.2561C 302.576 90.8611 302.978 91.2051 303.709 91.2051C 303.931 91.2051 304.158 91.1811 304.471 91.1231L 304.471 90.2871C 304.357 90.3731 304.221 90.4041 304.053 90.4041C 303.678 90.4041 303.572 90.2911 303.572 89.8611L 303.572 85.7091L 304.471 85.7091L 304.474 84.9121z"/>
<path style="stroke:none; fill-rule:evenodd; fill:#000000" d="M 307.912 84.7131C 306.209 84.7131 305.174 85.9271 305.174 87.9631C 305.174 89.9981 306.193 91.2131 307.924 91.2131C 309.627 91.2131 310.674 90.0021 310.674 88.0091C 310.674 85.9201 309.666 84.7161 307.912 84.7161L 307.912 84.7131zM 307.924 85.6111C 309.017 85.6111 309.674 86.4981 309.674 87.9941C 309.674 89.4081 308.998 90.3061 307.924 90.3061C 306.842 90.3061 306.174 89.4201 306.174 87.9591C 306.174 86.5091 306.838 85.6111 307.924 85.6111z"/>
<path style="stroke:none; fill-rule:evenodd; fill:#000000" d="M 311.974 84.8881L 311.974 90.9121L 312.974 90.9121L 312.974 87.7791C 312.974 86.9161 313.185 86.3531 313.635 86.0171C 313.924 85.7991 314.205 85.7321 314.853 85.7161L 314.853 84.7521C 314.697 84.7321 314.619 84.7201 314.494 84.7201C 313.885 84.7201 313.42 85.0881 312.877 85.9861L 312.877 84.8961L 311.974 84.8881z"/>
<path style="stroke:none; fill-rule:evenodd; fill:#000000" d="M 319.428 84.9121L 317.767 89.5801L 316.232 84.9121L 315.213 84.9121L 317.24 90.9661L 316.877 91.9201C 316.728 92.3451 316.514 92.5061 316.111 92.5061C 315.974 92.5061 315.814 92.4701 315.607 92.4001L 315.607 93.2591C 315.799 93.3611 315.994 93.4081 316.248 93.4081C 316.556 93.4081 316.888 93.3061 317.142 93.1231C 317.439 92.9081 317.611 92.6541 317.795 92.1731L 320.467 84.9121L 319.428 84.9121z"/>
<path style="stroke:none; fill-rule:evenodd; fill:#ff0000" d="M 267.181 88.4701C 267.181 86.3611 265.471 84.6501 263.361 84.6501C 261.252 84.6501 259.541 86.3611 259.541 88.4701C 259.541 90.5801 261.252 92.2911 263.361 92.2911C 265.471 92.2911 267.181 90.5801 267.181 88.4701"/>
<path style="stroke:#ff0000; stroke-width:1.91212; fill:none" d="M 267.181 88.4701C 267.181 86.3611 265.471 84.6501 263.361 84.6501C 261.252 84.6501 259.541 86.3611 259.541 88.4701C 259.541 90.5801 261.252 92.2911 263.361 92.2911C 265.471 92.2911 267.181 90.5801 267.181 88.4701"/>
<path style="stroke:#ff0000; stroke-dasharray:6,3; stroke-width:1.91212; fill:none" d="M 261.447 88.4701L 242.33 88.4701"/>
<path style="stroke:#0000ff; stroke-width:1.91212; fill:none" d="M 240.412 75.0881L 267.181 75.0881"/>
<path style="stroke:#0000ff; stroke-width:1.91212; fill:none" d="M 259.537 73.1731L 267.181 75.0841L 259.537 76.9941"/>
<path style="stroke:#000000; stroke-width:0.95606000000000002; fill:none" d="M 234.678 102.279L 336.99 102.279L 336.99 63.6151L 234.678 63.6151L 234.678 102.279z"/>
<path style="stroke:none; fill-rule:evenodd; fill:#ff0000" d="M 133.111 91.5251C 133.111 89.4161 131.4 87.7051 129.291 87.7051C 127.181 87.7051 125.471 89.4161 125.471 91.5251C 125.471 93.6341 127.181 95.3451 129.291 95.3451C 131.4 95.3451 133.111 93.6341 133.111 91.5251"/>
<path style="stroke:#ff0000; stroke-width:1.91212; fill:none" d="M 133.111 91.5251C 133.111 89.4161 131.4 87.7051 129.291 87.7051C 127.181 87.7051 125.471 89.4161 125.471 91.5251C 125.471 93.6341 127.181 95.3451 129.291 95.3451C 131.4 95.3451 133.111 93.6341 133.111 91.5251"/>
<path style="stroke:none; fill-rule:evenodd; fill:#ff0000" d="M 182.83 93.4351C 182.83 91.3261 181.119 89.6151 179.01 89.6151C 176.9 89.6151 175.189 91.3261 175.189 93.4351C 175.189 95.5451 176.9 97.2561 179.01 97.2561C 181.119 97.2561 182.83 95.5451 182.83 93.4351"/>
<path style="stroke:#ff0000; stroke-width:1.91212; fill:none" d="M 182.83 93.4351C 182.83 91.3261 181.119 89.6151 179.01 89.6151C 176.9 89.6151 175.189 91.3261 175.189 93.4351C 175.189 95.5451 176.9 97.2561 179.01 97.2561C 181.119 97.2561 182.83 95.5451 182.83 93.4351"/>
<path style="stroke:none; fill-rule:evenodd; fill:#000000" d="M 104.275 28.9121L 103.178 28.9121L 103.178 37.3101L 108.377 37.3101L 108.377 36.4121L 104.279 36.4121L 104.275 28.9121z"/>
<path style="stroke:none; fill-rule:evenodd; fill:#000000" d="M 113.17 37.3141L 116.072 28.9161L 114.939 28.9161L 112.623 36.0291L 110.17 28.9161L 109.025 28.9161L 112.029 37.3141L 113.17 37.3141z"/>
<path style="stroke:none; fill-rule:evenodd; fill:#000000" d="M 120.373 35.7131L 119.576 35.7131L 119.576 40.7131L 120.373 40.7131L 120.373 35.7131zM 120.373 33.7131L 119.576 33.7131L 119.576 34.7441L 120.373 34.7441L 120.373 33.7131z"/>
<path style="stroke:#a45555; stroke-dasharray:6,3; stroke-width:1.91212; fill:none" d="M 145.779 39.1811C 145.779 27.5681 130.373 18.1501 111.361 18.1501C 92.3528 18.1501 76.9428 27.5641 76.9428 39.1811C 76.9428 50.7951 92.3488 60.2131 111.361 60.2131C 130.369 60.2131 145.779 50.7991 145.779 39.1811"/>
<path style="stroke:#ff0000; stroke-dasharray:6,3; stroke-width:1.91212; fill:none" d="M 108.017 60.2131L 130.963 94.6311"/>
<path style="stroke:#ff0000; stroke-dasharray:6,3; stroke-width:1.91212; fill:none" d="M 199.799 60.2131L 178.767 94.6311"/>
<path style="stroke:#0000ff; stroke-width:1.91212; fill:none" d="M 44.9158 125.224L 44.9158 106.107"/>
<path style="stroke:#0000ff; stroke-width:1.91212; fill:none" d="M 43.0055 113.752L 44.9158 106.107L 46.8258 113.752"/>
<path style="stroke:#0000ff; stroke-width:1.91212; fill:none" d="M 111.842 169.205L 136.697 130.966"/>
<path style="stroke:#0000ff; stroke-width:1.91212; fill:none" d="M 130.928 136.334L 136.697 130.966L 134.135 138.42"/>
<path style="stroke:#7e7e7e; stroke-width:1.91212; fill:none" d="M 78.8568 85.0721C 78.8568 73.4591 63.4508 64.0411 44.4388 64.0411C 25.4313 64.0411 10.0211 73.4551 10.0211 85.0721C 10.0211 96.6851 25.4274 106.103 44.4388 106.103C 63.4468 106.103 78.8568 96.6891 78.8568 85.0721"/>
<path style="stroke:none; fill-rule:evenodd; fill:#7e7e7e" d="M 31.775 77.2131L 34.4781 77.2131L 34.4781 76.3141L 27.9196 76.3141L 27.9196 77.2131L 30.6774 77.2131L 30.6774 84.7131L 31.775 84.7131L 31.775 77.2131z"/>
<path style="stroke:none; fill-rule:evenodd; fill:#7e7e7e" d="M 36.3727 78.7131L 35.3727 78.7131L 35.3727 84.7131L 36.3727 84.7131L 36.3727 78.7131zM 36.3727 76.3141L 35.3727 76.3141L 35.3727 77.5521L 36.3727 77.5521L 36.3727 76.3141z"/>
<path style="stroke:none; fill-rule:evenodd; fill:#7e7e7e" d="M 38.0758 78.6851L 38.0758 84.7091L 39.0758 84.7091L 39.0758 80.8961C 39.0758 80.0171 39.7008 79.3101 40.4703 79.3101C 41.1735 79.3101 41.5719 79.7481 41.5719 80.5251L 41.5719 84.7051L 42.5719 84.7051L 42.5719 80.8921C 42.5719 80.0131 43.1969 79.3061 43.9668 79.3061C 44.6578 79.3061 45.0678 79.7561 45.0678 80.5211L 45.0678 84.7011L 46.0678 84.7011L 46.0678 80.1811C 46.0678 79.1031 45.4468 78.5021 44.3138 78.5021C 43.5094 78.5021 43.0211 78.7441 42.4586 79.4351C 42.1031 78.7831 41.6188 78.5021 40.8336 78.5021C 40.0289 78.5021 39.4977 78.7991 38.9781 79.5251L 38.9781 78.6771L 38.0758 78.6851z"/>
<path style="stroke:none; fill-rule:evenodd; fill:#7e7e7e" d="M 48.4738 78.7131L 47.4738 78.7131L 47.4738 84.7131L 48.4738 84.7131L 48.4738 78.7131zM 48.4738 76.3141L 47.4738 76.3141L 47.4738 77.5521L 48.4738 77.5521L 48.4738 76.3141z"/>
<path style="stroke:none; fill-rule:evenodd; fill:#7e7e7e" d="M 50.1738 78.6851L 50.1738 84.7091L 51.1738 84.7091L 51.1738 81.3611C 51.1738 80.1231 51.7988 79.3101 52.7638 79.3101C 53.5018 79.3101 53.9708 79.7711 53.9708 80.5021L 53.9708 84.7051L 54.9708 84.7051L 54.9708 80.1541C 54.9708 79.1541 54.2278 78.5091 53.0678 78.5091C 52.1738 78.5091 51.6028 78.8531 51.0758 79.6931L 51.0758 78.6811L 50.1738 78.6851z"/>
<path style="stroke:none; fill-rule:evenodd; fill:#7e7e7e" d="M 60.4738 78.7131L 60.4738 79.5721C 59.9938 78.8531 59.4078 78.5131 58.6378 78.5131C 57.1148 78.5131 56.0798 79.8531 56.0798 81.8181C 56.0798 82.8101 56.3418 83.6191 56.8338 84.1971C 57.2788 84.7051 57.9198 85.0061 58.5528 85.0061C 59.3058 85.0061 59.8338 84.6771 60.3728 83.8921L 60.3728 84.2011C 60.3728 85.0131 60.2708 85.5091 60.0328 85.8411C 59.7828 86.1971 59.2948 86.4001 58.7168 86.4001C 58.2868 86.4001 57.8998 86.2871 57.6378 86.0801C 57.4238 85.9081 57.3338 85.7481 57.2748 85.3921L 56.3098 85.3921C 56.4118 86.5251 57.2908 87.2011 58.7008 87.2011C 59.5918 87.2011 60.3568 86.9161 60.7478 86.4351C 61.2048 85.8881 61.3768 85.1311 61.3768 83.7201L 61.3768 78.7051L 60.4738 78.7131zM 58.7358 79.4121C 59.7638 79.4121 60.3728 80.2871 60.3728 81.7951C 60.3728 83.2321 59.7558 84.1071 58.7478 84.1071C 57.7048 84.1071 57.0758 83.2201 57.0758 81.7591C 57.0758 80.3101 57.7168 79.4121 58.7358 79.4121z"/>
<path style="stroke:#7e7e7e; stroke-width:1.91212; fill:none" d="M 78.8568 146.259C 78.8568 134.646 63.4508 125.228 44.4388 125.228C 25.4313 125.228 10.0211 134.642 10.0211 146.259C 10.0211 157.873 25.4274 167.291 44.4388 167.291C 63.4468 167.291 78.8568 157.877 78.8568 146.259"/>
<path style="stroke:none; fill-rule:evenodd; fill:#7e7e7e" d="M 44.3688 143.943C 44.0328 142.111 42.9703 141.216 41.1227 141.216C 39.9938 141.216 39.0797 141.572 38.4547 142.263C 37.693 143.091 37.2789 144.287 37.2789 145.646C 37.2789 147.025 37.7047 148.213 38.5016 149.029C 39.1461 149.697 39.9781 150.006 41.0758 150.006C 43.1305 150.006 44.2868 148.896 44.5408 146.658L 43.4352 146.658C 43.3453 147.248 43.232 147.65 43.0563 147.994C 42.7125 148.705 42.0016 149.103 41.1031 149.103C 39.4352 149.103 38.3766 147.752 38.3766 145.631C 38.3766 143.451 39.3883 142.111 41.0094 142.111C 41.6852 142.111 42.318 142.322 42.6656 142.646C 42.9742 142.939 43.1461 143.302 43.275 143.935L 44.3688 143.943z"/>
<path style="stroke:none; fill-rule:evenodd; fill:#7e7e7e" d="M 51.8728 143.802C 51.8608 142.166 50.7438 141.213 48.8298 141.213C 47.0058 141.213 45.8768 142.162 45.8768 143.689C 45.8768 144.716 46.4078 145.365 47.4978 145.658L 49.5528 146.213C 50.5958 146.49 51.0718 146.916 51.0718 147.576C 51.0718 148.025 50.8338 148.49 50.4858 148.744C 50.1578 148.974 49.6378 149.099 48.9708 149.099C 48.0758 149.099 47.4668 148.877 47.0678 148.373C 46.7638 147.994 46.6308 147.576 46.6778 147.041L 45.6778 147.041C 45.6848 147.818 45.8338 148.326 46.1618 148.795C 46.7278 149.58 47.6808 149.998 48.9388 149.998C 49.9238 149.998 50.7278 149.771 51.2638 149.353C 51.8178 148.908 52.1698 148.158 52.1698 147.431C 52.1698 146.396 51.5368 145.638 50.4118 145.326L 48.3378 144.763C 47.3418 144.49 46.9778 144.166 46.9778 143.521C 46.9778 142.67 47.7088 142.107 48.8178 142.107C 50.1268 142.107 50.8608 142.713 50.8728 143.795L 51.8728 143.802z"/>
<path style="stroke:#000000; stroke-width:1.91212; fill:none" d="M 187.846 111.841C 187.846 100.228 172.439 90.8101 153.428 90.8101C 134.42 90.8101 119.01 100.224 119.01 111.841C 119.01 123.455 134.416 132.873 153.428 132.873C 172.435 132.873 187.846 123.459 187.846 111.841"/>
<path style="stroke:none; fill-rule:evenodd; fill:#000000" d="M 146.275 107.611L 149.529 107.611C 151.662 107.611 152.971 106.021 152.971 103.408C 152.971 100.806 151.674 99.2161 149.529 99.2161L 146.275 99.2161L 146.275 107.611zM 147.373 106.713L 147.373 100.115L 149.346 100.115C 150.998 100.115 151.869 101.248 151.869 103.42C 151.869 105.568 150.998 106.713 149.346 106.713L 147.373 106.713z"/>
<path style="stroke:none; fill-rule:evenodd; fill:#000000" d="M 159.014 105.111L 159.873 107.611L 161.064 107.611L 158.131 99.2131L 156.756 99.2131L 153.775 107.611L 154.908 107.611L 155.791 105.111L 159.014 105.111zM 158.713 104.213L 156.053 104.213L 157.428 100.4L 158.713 104.213z"/>
<path style="stroke:#bd00ff; stroke-dasharray:6,3; stroke-width:1.91212; fill:none" d="M 233.736 39.1811C 233.736 27.5681 218.33 18.1501 199.318 18.1501C 180.31 18.1501 164.9 27.5641 164.9 39.1811C 164.9 50.7951 180.306 60.2131 199.318 60.2131C 218.326 60.2131 233.736 50.7991 233.736 39.1811"/>
<path style="stroke:none; fill-rule:evenodd; fill:#000000" d="M 191.873 33.7131L 194.514 33.7131C 195.17 33.7131 195.689 33.5211 196.138 33.1191C 196.646 32.6661 196.865 32.1271 196.865 31.3611C 196.865 29.7991 195.928 28.9161 194.26 28.9161L 190.771 28.9161L 190.771 37.3141L 191.869 37.3141L 191.873 33.7131zM 191.873 32.8141L 191.873 29.8141L 194.123 29.8141C 195.154 29.8141 195.767 30.3771 195.767 31.3141C 195.767 32.2481 195.154 32.8141 194.123 32.8141L 191.873 32.8141z"/>
<path style="stroke:none; fill-rule:evenodd; fill:#000000" d="M 201.873 37.3141L 204.775 28.9161L 203.642 28.9161L 201.326 36.0291L 198.873 28.9161L 197.728 28.9161L 200.732 37.3141L 201.873 37.3141z"/>
<path style="stroke:none; fill-rule:evenodd; fill:#000000" d="M 207.873 35.7131L 207.076 35.7131L 207.076 40.7131L 207.873 40.7131L 207.873 35.7131zM 207.873 33.7131L 207.076 33.7131L 207.076 34.7441L 207.873 34.7441L 207.873 33.7131z"/>
<path style="stroke:#a45555; stroke-dasharray:6,3; stroke-width:1.91212; fill:none" d="M 145.779 190.236C 145.779 178.623 130.373 169.205 111.361 169.205C 92.3528 169.205 76.9428 178.619 76.9428 190.236C 76.9428 201.849 92.3488 211.267 111.361 211.267C 130.369 211.267 145.779 201.853 145.779 190.236"/>
<path style="stroke:none; fill-rule:evenodd; fill:#000000" d="M 121.974 189.611C 121.974 188.826 121.92 188.353 121.775 187.97C 121.455 187.127 120.693 186.615 119.76 186.615C 118.373 186.615 117.478 187.689 117.478 189.341C 117.478 190.99 118.342 192.009 119.744 192.009C 120.885 192.009 121.674 191.369 121.877 190.291L 121.072 190.291C 120.853 190.959 120.4 191.31 119.76 191.31C 119.252 191.31 118.822 191.084 118.553 190.67C 118.361 190.388 118.295 190.107 118.287 189.615L 121.974 189.611zM 118.306 188.927C 118.373 188.002 118.935 187.4 119.74 187.4C 120.521 187.4 121.123 188.049 121.123 188.873C 121.123 188.888 121.123 188.908 121.115 188.927L 118.306 188.927z"/>
<path style="stroke:none; fill-rule:evenodd; fill:#000000" d="M 103.775 180.013L 102.678 180.013L 102.678 188.412L 107.877 188.412L 107.877 187.513L 103.779 187.513L 103.775 180.013z"/>
<path style="stroke:none; fill-rule:evenodd; fill:#000000" d="M 112.67 188.412L 115.572 180.013L 114.439 180.013L 112.123 187.127L 109.67 180.013L 108.525 180.013L 111.529 188.412L 112.67 188.412z"/>
<path style="stroke:#bd00ff; stroke-dasharray:6,3; stroke-width:1.91212; fill:none" d="M 231.826 190.236C 231.826 178.623 216.42 169.205 197.408 169.205C 178.4 169.205 162.99 178.619 162.99 190.236C 162.99 201.849 178.396 211.267 197.408 211.267C 216.416 211.267 231.826 201.853 231.826 190.236"/>
<path style="stroke:none; fill-rule:evenodd; fill:#000000" d="M 208.275 189.611C 208.275 188.826 208.221 188.353 208.076 187.97C 207.756 187.127 206.994 186.615 206.06 186.615C 204.674 186.615 203.779 187.689 203.779 189.341C 203.779 190.99 204.642 192.009 206.045 192.009C 207.185 192.009 207.974 191.369 208.178 190.291L 207.373 190.291C 207.154 190.959 206.701 191.31 206.06 191.31C 205.553 191.31 205.123 191.084 204.853 190.67C 204.662 190.388 204.596 190.107 204.588 189.615L 208.275 189.611zM 204.607 188.927C 204.674 188.002 205.236 187.4 206.041 187.4C 206.822 187.4 207.424 188.049 207.424 188.873C 207.424 188.888 207.424 188.908 207.416 188.927L 204.607 188.927z"/>
<path style="stroke:none; fill-rule:evenodd; fill:#000000" d="M 189.674 184.814L 192.314 184.814C 192.971 184.814 193.49 184.623 193.939 184.22C 194.447 183.767 194.666 183.228 194.666 182.463C 194.666 180.9 193.728 180.017 192.06 180.017L 188.572 180.017L 188.572 188.416L 189.67 188.416L 189.674 184.814zM 189.674 183.912L 189.674 180.912L 191.924 180.912C 192.955 180.912 193.568 181.474 193.568 182.412C 193.568 183.345 192.955 183.912 191.924 183.912L 189.674 183.912z"/>
<path style="stroke:none; fill-rule:evenodd; fill:#000000" d="M 199.771 188.412L 202.674 180.013L 201.541 180.013L 199.224 187.127L 196.771 180.013L 195.627 180.013L 198.631 188.412L 199.771 188.412z"/>
<path style="stroke:#0000ff; stroke-width:1.91212; fill:none" d="M 64.0368 163.466L 83.1538 176.849"/>
<path style="stroke:#0000ff; stroke-width:1.91212; fill:none" d="M 77.9898 170.9L 83.1578 176.849L 75.7988 174.033"/>
<path style="stroke:#7e7e7e; stroke-width:1.91212; fill:none" d="M 302.576 146.259C 302.576 134.646 287.17 125.228 268.158 125.228C 249.15 125.228 233.74 134.642 233.74 146.259C 233.74 157.873 249.146 167.291 268.158 167.291C 287.166 167.291 302.576 157.877 302.576 146.259"/>
<path style="stroke:none; fill-rule:evenodd; fill:#7e7e7e" d="M 267.275 141.314L 267.275 147.275C 267.275 148.416 266.478 149.111 265.166 149.111C 264.56 149.111 264.068 148.963 263.674 148.67C 263.271 148.345 263.08 147.916 263.08 147.275L 263.08 141.314L 261.982 141.314L 261.982 147.236C 261.982 148.947 263.193 150.009 265.17 150.009C 267.123 150.009 268.381 148.923 268.381 147.236L 268.381 141.314L 267.275 141.314z"/>
<path style="stroke:none; fill-rule:evenodd; fill:#7e7e7e" d="M 276.076 143.802C 276.064 142.166 274.947 141.213 273.033 141.213C 271.209 141.213 270.08 142.162 270.08 143.689C 270.08 144.716 270.611 145.365 271.701 145.658L 273.756 146.213C 274.799 146.49 275.275 146.916 275.275 147.576C 275.275 148.025 275.037 148.49 274.689 148.744C 274.361 148.974 273.842 149.099 273.174 149.099C 272.279 149.099 271.67 148.877 271.271 148.373C 270.967 147.994 270.834 147.576 270.881 147.041L 269.881 147.041C 269.888 147.818 270.037 148.326 270.365 148.795C 270.931 149.58 271.885 149.998 273.142 149.998C 274.127 149.998 274.931 149.771 275.467 149.353C 276.021 148.908 276.373 148.158 276.373 147.431C 276.373 146.396 275.74 145.638 274.615 145.326L 272.541 144.763C 271.545 144.49 271.181 144.166 271.181 143.521C 271.181 142.67 271.912 142.107 273.021 142.107C 274.33 142.107 275.064 142.713 275.076 143.795L 276.076 143.802z"/>
<path style="stroke:#0000ff; stroke-width:1.91212; fill:none" d="M 241.865 159.642L 224.658 178.759"/>
<path style="stroke:#0000ff; stroke-width:1.91212; fill:none" d="M 231.193 174.357L 224.658 178.759L 228.349 171.799"/>
<path style="stroke:#0000ff; stroke-width:1.91212; fill:none" d="M 195.974 169.205L 171.119 130.966"/>
<path style="stroke:#0000ff; stroke-width:1.91212; fill:none" d="M 173.681 138.416L 171.119 130.963L 176.888 136.33"/>
<path style="stroke:#0000ff; stroke-width:1.91212; fill:none" d="M 234.217 146.259L 134.787 174.939"/>
<path style="stroke:#0000ff; stroke-width:1.91212; fill:none" d="M 142.666 174.658L 134.787 174.939L 141.603 170.986"/>
<path style="stroke:none; fill-rule:evenodd; fill:#a45555" d="M 29.9313 90.6111C 28.9781 91.8691 28.3766 93.6151 28.3766 95.1191C 28.3766 96.6341 28.9781 98.3771 29.9313 99.6341L 30.4547 99.6341C 29.6344 98.2671 29.1735 96.6541 29.1735 95.1191C 29.1735 93.5951 29.6305 91.9741 30.4547 90.6111L 29.9313 90.6111z"/>
<path style="stroke:none; fill-rule:evenodd; fill:#a45555" d="M 35.3766 94.2871C 35.3414 93.7591 35.236 93.4161 35.0446 93.1151C 34.7008 92.6771 34.0992 92.4161 33.4039 92.4161C 32.0602 92.4161 31.1813 93.4901 31.1813 95.1621C 31.1813 96.7831 32.0367 97.8101 33.3961 97.8101C 34.5875 97.8101 35.3414 97.1031 35.4391 95.8921L 34.6305 95.8921C 34.4977 96.7051 34.0836 97.1111 33.4 97.1111C 32.5133 97.1111 31.986 96.3771 31.986 95.1621C 31.986 93.8811 32.5055 93.1151 33.3805 93.1151C 34.0524 93.1151 34.4781 93.5331 34.5719 94.2871L 35.3766 94.2871z"/>
<path style="stroke:none; fill-rule:evenodd; fill:#a45555" d="M 40.5758 95.4121C 40.5758 94.6271 40.5211 94.1541 40.3766 93.7711C 40.0563 92.9271 39.2946 92.4161 38.361 92.4161C 36.9742 92.4161 36.0797 93.4901 36.0797 95.1421C 36.0797 96.7911 36.943 97.8101 38.3453 97.8101C 39.486 97.8101 40.275 97.1701 40.4781 96.0911L 39.6735 96.0911C 39.4547 96.7591 39.0016 97.1111 38.361 97.1111C 37.8531 97.1111 37.4235 96.8841 37.1539 96.4701C 36.9625 96.1891 36.8961 95.9081 36.8883 95.4161L 40.5758 95.4121zM 36.9078 94.7241C 36.9742 93.7991 37.5367 93.1971 38.3414 93.1971C 39.1227 93.1971 39.7242 93.8451 39.7242 94.6701C 39.7242 94.6851 39.7242 94.7051 39.7164 94.7241L 36.9078 94.7241z"/>
<path style="stroke:none; fill-rule:evenodd; fill:#a45555" d="M 41.6735 92.5561L 41.6735 97.6111L 42.4703 97.6111L 42.4703 94.9591C 42.4703 94.2281 42.6461 93.7521 43.0211 93.4661C 43.2633 93.2831 43.4938 93.2241 44.0368 93.2131L 44.0368 92.4431C 43.9038 92.4271 43.8378 92.4201 43.7318 92.4201C 43.2203 92.4201 42.8297 92.7281 42.3688 93.4781L 42.3688 92.5641L 41.6735 92.5561z"/>
<path style="stroke:none; fill-rule:evenodd; fill:#a45555" d="M 49.0758 95.4121C 49.0758 94.6271 49.0208 94.1541 48.8768 93.7711C 48.5558 92.9271 47.7948 92.4161 46.8608 92.4161C 45.4738 92.4161 44.5798 93.4901 44.5798 95.1421C 44.5798 96.7911 45.4428 97.8101 46.8458 97.8101C 47.9858 97.8101 48.7748 97.1701 48.9778 96.0911L 48.1738 96.0911C 47.9548 96.7591 47.5018 97.1111 46.8608 97.1111C 46.3528 97.1111 45.9238 96.8841 45.6538 96.4701C 45.4628 96.1891 45.3958 95.9081 45.3878 95.4161L 49.0758 95.4121zM 45.4078 94.7241C 45.4738 93.7991 46.0368 93.1971 46.8418 93.1971C 47.6228 93.1971 48.2238 93.8451 48.2238 94.6701C 48.2238 94.6851 48.2238 94.7051 48.2168 94.7241L 45.4078 94.7241z"/>
<path style="stroke:none; fill-rule:evenodd; fill:#a45555" d="M 49.9738 90.6111L 49.9738 97.6111L 50.6738 97.6111L 50.6738 96.9701C 51.0558 97.5371 51.5678 97.8101 52.2708 97.8101C 53.5988 97.8101 54.4668 96.7241 54.4668 95.0561C 54.4668 93.4231 53.6418 92.4161 52.3218 92.4161C 51.6348 92.4161 51.1458 92.6851 50.7708 93.2831L 50.7708 90.6151L 49.9738 90.6111zM 52.1778 93.2051C 53.0638 93.2051 53.6378 93.9781 53.6378 95.1731C 53.6378 96.3101 53.0488 97.0841 52.1778 97.0841C 51.3378 97.0841 50.7828 96.3221 50.7828 95.1461C 50.7828 93.9701 51.3378 93.2091 52.1778 93.2091L 52.1778 93.2051z"/>
<path style="stroke:none; fill-rule:evenodd; fill:#a45555" d="M 55.5758 97.6111L 56.5758 97.6111L 56.5758 96.6111L 55.5758 96.6111L 55.5758 97.6111z"/>
<path style="stroke:none; fill-rule:evenodd; fill:#a45555" d="M 58.3768 99.6381C 59.3528 98.3841 59.9738 96.6381 59.9738 95.1311C 59.9738 93.6191 59.3568 91.8731 58.3768 90.6151L 57.8418 90.6151C 58.6968 91.9861 59.1778 93.5991 59.1778 95.1311C 59.1778 96.6541 58.7008 98.2751 57.8418 99.6381L 58.3768 99.6381z"/>
<path style="stroke:none; fill-rule:evenodd; fill:#a45555" d="M 99.2318 197.713C 98.2788 198.97 97.6778 200.716 97.6778 202.22C 97.6778 203.736 98.2788 205.478 99.2318 206.736L 99.7558 206.736C 98.9348 205.369 98.4738 203.756 98.4738 202.22C 98.4738 200.697 98.9308 199.076 99.7558 197.713L 99.2318 197.713z"/>
<path style="stroke:none; fill-rule:evenodd; fill:#a45555" d="M 106.502 199.904C 106.228 198.365 105.353 197.615 103.834 197.615C 102.904 197.615 102.154 197.912 101.642 198.482C 101.017 199.17 100.678 200.162 100.678 201.291C 100.678 202.435 101.025 203.42 101.681 204.099C 102.213 204.65 102.896 204.908 103.795 204.908C 105.482 204.908 106.431 203.998 106.642 202.166L 105.736 202.166C 105.662 202.658 105.568 202.994 105.428 203.279C 105.146 203.869 104.56 204.205 103.822 204.205C 102.451 204.205 101.58 203.068 101.58 201.275C 101.58 199.439 102.412 198.306 103.744 198.306C 104.299 198.306 104.822 198.49 105.103 198.775C 105.357 199.029 105.498 199.345 105.603 199.896L 106.502 199.904z"/>
<path style="stroke:none; fill-rule:evenodd; fill:#a45555" d="M 113.275 197.713L 112.478 197.713L 112.478 203.439L 108.764 197.713L 107.779 197.713L 107.779 204.713L 108.576 204.713L 108.576 199.064L 112.252 204.713L 113.275 204.713L 113.275 197.713z"/>
<path style="stroke:none; fill-rule:evenodd; fill:#a45555" d="M 118.506 202.611L 119.221 204.709L 120.213 204.709L 117.767 197.709L 116.623 197.709L 114.138 204.709L 115.084 204.709L 115.818 202.611L 118.506 202.611zM 118.256 201.912L 116.041 201.912L 117.185 198.701L 118.256 201.912z"/>
<path style="stroke:none; fill-rule:evenodd; fill:#a45555" d="M 121.275 206.74C 122.252 205.486 122.873 203.74 122.873 202.232C 122.873 200.72 122.256 198.974 121.275 197.716L 120.74 197.716C 121.596 199.088 122.076 200.701 122.076 202.232C 122.076 203.756 121.599 205.377 120.74 206.74L 121.275 206.74z"/>
<path style="stroke:none; fill-rule:evenodd; fill:#a45555" d="M 186.232 197.713C 185.279 198.97 184.678 200.716 184.678 202.22C 184.678 203.736 185.279 205.478 186.232 206.736L 186.756 206.736C 185.935 205.369 185.474 203.756 185.474 202.22C 185.474 200.697 185.931 199.076 186.756 197.713L 186.232 197.713z"/>
<path style="stroke:none; fill-rule:evenodd; fill:#a45555" d="M 188.873 197.713L 187.974 197.713L 187.974 204.713L 192.271 204.713L 192.271 204.013L 188.873 204.013L 188.873 197.713z"/>
<path style="stroke:none; fill-rule:evenodd; fill:#a45555" d="M 197.775 201.513L 197.775 204.713L 198.674 204.713L 198.674 197.713L 197.775 197.713L 197.775 200.81L 194.178 200.81L 194.178 197.713L 193.279 197.713L 193.279 204.713L 194.178 204.713L 194.178 201.513L 197.775 201.513z"/>
<path style="stroke:none; fill-rule:evenodd; fill:#a45555" d="M 204.006 202.611L 204.721 204.709L 205.713 204.709L 203.267 197.709L 202.123 197.709L 199.638 204.709L 200.584 204.709L 201.318 202.611L 204.006 202.611zM 203.756 201.912L 201.541 201.912L 202.685 198.701L 203.756 201.912z"/>
<path style="stroke:none; fill-rule:evenodd; fill:#a45555" d="M 206.678 206.74C 207.654 205.486 208.275 203.74 208.275 202.232C 208.275 200.72 207.658 198.974 206.678 197.716L 206.142 197.716C 206.998 199.088 207.478 200.701 207.478 202.232C 207.478 203.756 207.002 205.377 206.142 206.74L 206.678 206.74z"/>
<path style="stroke:none; fill-rule:evenodd; fill:#a45555" d="M 95.4308 44.7131C 94.4778 45.9701 93.8768 47.7161 93.8768 49.2201C 93.8768 50.7361 94.4778 52.4781 95.4308 53.7361L 95.9548 53.7361C 95.1348 52.3691 94.6738 50.7561 94.6738 49.2201C 94.6738 47.6971 95.1308 46.0761 95.9548 44.7131L 95.4308 44.7131z"/>
<path style="stroke:none; fill-rule:evenodd; fill:#a45555" d="M 100.123 51.7131L 102.541 44.7131L 101.596 44.7131L 99.6658 50.6381L 97.6228 44.7131L 96.6698 44.7131L 99.1738 51.7131L 100.123 51.7131z"/>
<path style="stroke:none; fill-rule:evenodd; fill:#a45555" d="M 103.576 51.7131L 104.576 51.7131L 104.576 50.7131L 103.576 50.7131L 103.576 51.7131z"/>
<path style="stroke:none; fill-rule:evenodd; fill:#a45555" d="M 113.775 46.7911C 113.767 45.4161 112.834 44.6151 111.24 44.6151C 109.721 44.6151 108.779 45.4081 108.779 46.6851C 108.779 47.5451 109.217 48.0881 110.119 48.3301L 111.814 48.7911C 112.678 49.0211 113.072 49.3811 113.072 49.9311C 113.072 50.3061 112.877 50.6931 112.584 50.9081C 112.314 51.0991 111.877 51.2051 111.322 51.2051C 110.58 51.2051 110.068 51.0171 109.736 50.5991C 109.482 50.2831 109.369 49.9351 109.381 49.4901L 108.584 49.4901C 108.592 50.1231 108.713 50.5411 108.986 50.9201C 109.455 51.5641 110.248 51.9041 111.295 51.9041C 112.111 51.9041 112.783 51.7131 113.224 51.3691C 113.685 50.9941 113.978 50.3691 113.978 49.7631C 113.978 48.9001 113.455 48.2631 112.525 48.0061L 110.81 47.5371C 109.986 47.3061 109.685 47.0371 109.685 46.5021C 109.685 45.7911 110.306 45.3181 111.244 45.3181C 112.349 45.3181 112.974 45.8451 112.982 46.7911L 113.775 46.7911z"/>
<path style="stroke:none; fill-rule:evenodd; fill:#a45555" d="M 116.873 46.7131L 116.076 46.7131L 116.076 45.3301L 115.279 45.3301L 115.279 46.7131L 114.58 46.7131L 114.58 47.4121L 115.279 47.4121L 115.279 51.1311C 115.279 51.6271 115.619 51.9081 116.232 51.9081C 116.42 51.9081 116.611 51.8921 116.873 51.8451L 116.873 51.1971C 116.771 51.2091 116.65 51.2131 116.502 51.2131C 116.17 51.2131 116.076 51.1231 116.076 50.7751L 116.076 47.4161L 116.873 47.4161L 116.873 46.7131z"/>
<path style="stroke:none; fill-rule:evenodd; fill:#a45555" d="M 117.775 46.6581L 117.775 51.7131L 118.572 51.7131L 118.572 49.0601C 118.572 48.3301 118.748 47.8531 119.123 47.5681C 119.365 47.3841 119.596 47.3261 120.138 47.3141L 120.138 46.5451C 120.006 46.5291 119.939 46.5211 119.834 46.5211C 119.322 46.5211 118.931 46.8301 118.471 47.5801L 118.471 46.6661L 117.775 46.6581z"/>
<path style="stroke:none; fill-rule:evenodd; fill:#a45555" d="M 121.076 51.7131L 122.076 51.7131L 122.076 50.7131L 121.076 50.7131L 121.076 51.7131z"/>
<path style="stroke:none; fill-rule:evenodd; fill:#a45555" d="M 123.877 53.7401C 124.853 52.4861 125.474 50.7401 125.474 49.2321C 125.474 47.7201 124.857 45.9741 123.877 44.7161L 123.342 44.7161C 124.197 46.0881 124.678 47.7011 124.678 49.2321C 124.678 50.7561 124.201 52.3771 123.342 53.7401L 123.877 53.7401z"/>
<path style="stroke:none; fill-rule:evenodd; fill:#a45555" d="M 183.431 44.7131C 182.478 45.9701 181.877 47.7161 181.877 49.2201C 181.877 50.7361 182.478 52.4781 183.431 53.7361L 183.955 53.7361C 183.135 52.3691 182.674 50.7561 182.674 49.2201C 182.674 47.6971 183.131 46.0761 183.955 44.7131L 183.431 44.7131z"/>
<path style="stroke:none; fill-rule:evenodd; fill:#a45555" d="M 188.123 51.7131L 190.541 44.7131L 189.596 44.7131L 187.666 50.6381L 185.623 44.7131L 184.67 44.7131L 187.174 51.7131L 188.123 51.7131z"/>
<path style="stroke:none; fill-rule:evenodd; fill:#a45555" d="M 191.474 51.7131L 192.474 51.7131L 192.474 50.7131L 191.474 50.7131L 191.474 51.7131z"/>
<path style="stroke:none; fill-rule:evenodd; fill:#a45555" d="M 201.775 46.7911C 201.767 45.4161 200.834 44.6151 199.24 44.6151C 197.721 44.6151 196.779 45.4081 196.779 46.6851C 196.779 47.5451 197.217 48.0881 198.119 48.3301L 199.814 48.7911C 200.678 49.0211 201.072 49.3811 201.072 49.9311C 201.072 50.3061 200.877 50.6931 200.584 50.9081C 200.314 51.0991 199.877 51.2051 199.322 51.2051C 198.58 51.2051 198.068 51.0171 197.736 50.5991C 197.482 50.2831 197.369 49.9351 197.381 49.4901L 196.584 49.4901C 196.592 50.1231 196.713 50.5411 196.986 50.9201C 197.455 51.5641 198.248 51.9041 199.295 51.9041C 200.111 51.9041 200.783 51.7131 201.224 51.3691C 201.685 50.9941 201.978 50.3691 201.978 49.7631C 201.978 48.9001 201.455 48.2631 200.525 48.0061L 198.81 47.5371C 197.986 47.3061 197.685 47.0371 197.685 46.5021C 197.685 45.7911 198.306 45.3181 199.244 45.3181C 200.349 45.3181 200.974 45.8451 200.982 46.7911L 201.775 46.7911z"/>
<path style="stroke:none; fill-rule:evenodd; fill:#a45555" d="M 204.775 46.7131L 203.978 46.7131L 203.978 45.3301L 203.181 45.3301L 203.181 46.7131L 202.482 46.7131L 202.482 47.4121L 203.181 47.4121L 203.181 51.1311C 203.181 51.6271 203.521 51.9081 204.135 51.9081C 204.322 51.9081 204.514 51.8921 204.775 51.8451L 204.775 51.1971C 204.674 51.2091 204.553 51.2131 204.404 51.2131C 204.072 51.2131 203.978 51.1231 203.978 50.7751L 203.978 47.4161L 204.775 47.4161L 204.775 46.7131z"/>
<path style="stroke:none; fill-rule:evenodd; fill:#a45555" d="M 205.775 46.6581L 205.775 51.7131L 206.572 51.7131L 206.572 49.0601C 206.572 48.3301 206.748 47.8531 207.123 47.5681C 207.365 47.3841 207.596 47.3261 208.138 47.3141L 208.138 46.5451C 208.006 46.5291 207.939 46.5211 207.834 46.5211C 207.322 46.5211 206.931 46.8301 206.471 47.5801L 206.471 46.6661L 205.775 46.6581z"/>
<path style="stroke:none; fill-rule:evenodd; fill:#a45555" d="M 209.076 51.7131L 210.076 51.7131L 210.076 50.7131L 209.076 50.7131L 209.076 51.7131z"/>
<path style="stroke:none; fill-rule:evenodd; fill:#a45555" d="M 211.775 53.7401C 212.752 52.4861 213.373 50.7401 213.373 49.2321C 213.373 47.7201 212.756 45.9741 211.775 44.7161L 211.24 44.7161C 212.096 46.0881 212.576 47.7011 212.576 49.2321C 212.576 50.7561 212.099 52.3771 211.24 53.7401L 211.775 53.7401z"/>
<path style="stroke:none; fill-rule:evenodd; fill:#a45555" d="M 132.232 115.513C 131.279 116.771 130.678 118.517 130.678 120.021C 130.678 121.537 131.279 123.279 132.232 124.537L 132.756 124.537C 131.935 123.17 131.474 121.556 131.474 120.021C 131.474 118.498 131.931 116.877 132.756 115.513L 132.232 115.513z"/>
<path style="stroke:none; fill-rule:evenodd; fill:#a45555" d="M 136.924 122.513L 139.342 115.513L 138.396 115.513L 136.467 121.439L 134.424 115.513L 133.471 115.513L 135.974 122.513L 136.924 122.513z"/>
<path style="stroke:none; fill-rule:evenodd; fill:#a45555" d="M 142.974 116.213L 145.244 116.213L 145.244 115.513L 139.775 115.513L 139.775 116.213L 142.072 116.213L 142.072 122.509L 142.971 122.509L 142.974 116.213z"/>
<path style="stroke:none; fill-rule:evenodd; fill:#a45555" d="M 149.904 120.412L 150.619 122.509L 151.611 122.509L 149.166 115.509L 148.021 115.509L 145.537 122.509L 146.482 122.509L 147.217 120.412L 149.904 120.412zM 149.658 119.713L 147.443 119.713L 148.588 116.502L 149.658 119.713z"/>
<path style="stroke:none; fill-rule:evenodd; fill:#a45555" d="M 153.963 115.513L 151.697 122.701L 152.221 122.701L 154.486 115.513L 153.963 115.513z"/>
<path style="stroke:none; fill-rule:evenodd; fill:#a45555" d="M 160.174 117.588C 160.166 116.213 159.232 115.412 157.638 115.412C 156.119 115.412 155.178 116.205 155.178 117.482C 155.178 118.341 155.615 118.884 156.517 119.127L 158.213 119.588C 159.076 119.818 159.471 120.177 159.471 120.728C 159.471 121.103 159.275 121.49 158.982 121.705C 158.713 121.896 158.275 122.002 157.721 122.002C 156.978 122.002 156.467 121.814 156.135 121.396C 155.881 121.08 155.767 120.732 155.779 120.287L 154.982 120.287C 154.99 120.92 155.111 121.338 155.385 121.716C 155.853 122.361 156.646 122.701 157.693 122.701C 158.51 122.701 159.181 122.509 159.623 122.166C 160.084 121.791 160.377 121.166 160.377 120.56C 160.377 119.697 159.853 119.06 158.924 118.802L 157.209 118.334C 156.385 118.103 156.084 117.834 156.084 117.299C 156.084 116.588 156.705 116.115 157.642 116.115C 158.748 116.115 159.373 116.642 159.381 117.588L 160.174 117.588z"/>
<path style="stroke:none; fill-rule:evenodd; fill:#a45555" d="M 166.974 115.513L 166.178 115.513L 166.178 121.24L 162.463 115.513L 161.478 115.513L 161.478 122.513L 162.275 122.513L 162.275 116.865L 165.951 122.513L 166.974 122.513L 166.974 115.513z"/>
<path style="stroke:none; fill-rule:evenodd; fill:#a45555" d="M 172.178 119.185C 172.142 118.658 172.037 118.314 171.846 118.013C 171.502 117.576 170.9 117.314 170.205 117.314C 168.861 117.314 167.982 118.388 167.982 120.06C 167.982 121.681 168.838 122.709 170.197 122.709C 171.388 122.709 172.142 122.002 172.24 120.791L 171.431 120.791C 171.299 121.603 170.885 122.009 170.201 122.009C 169.314 122.009 168.787 121.275 168.787 120.06C 168.787 118.779 169.306 118.013 170.181 118.013C 170.853 118.013 171.279 118.431 171.373 119.185L 172.178 119.185z"/>
<path style="stroke:none; fill-rule:evenodd; fill:#a45555" d="M 173.377 124.541C 174.353 123.287 174.974 121.541 174.974 120.033C 174.974 118.521 174.357 116.775 173.377 115.517L 172.842 115.517C 173.697 116.888 174.178 118.502 174.178 120.033C 174.178 121.556 173.701 123.177 172.842 124.541L 173.377 124.541z"/>
<path style="stroke:#000000; stroke-width:1.91212; fill:none" d="M 249.037 38.7011C 249.037 22.8611 206.877 10.0211 154.865 10.0211C 102.857 10.0211 60.6928 22.8611 60.6928 38.7011C 60.6928 54.5411 102.853 67.3811 154.865 67.3811C 206.873 67.3811 249.037 54.5411 249.037 38.7011"/>
<path style="stroke:#0000ff; stroke-width:1.91212; fill:none" d="M 241.865 132.873L 214.142 62.1271"/>
<path style="stroke:#0000ff; stroke-width:1.91212; fill:none" d="M 215.15 69.9431L 214.142 62.1271L 218.713 68.5491"/>
<path style="stroke:#0000ff; stroke-width:1.91212; fill:none" d="M 65.9508 130.963L 96.0638 62.1271"/>
<path style="stroke:#0000ff; stroke-width:1.91212; fill:none" d="M 91.2478 68.3651L 96.0638 62.1271L 94.7518 69.8961"/>
<path style="stroke:#0000ff; stroke-width:1.91212; fill:none" d="M 43.9588 64.5131L 64.0328 45.3961"/>
<path style="stroke:#0000ff; stroke-width:1.91212; fill:none" d="M 57.1808 49.2831L 64.0368 45.3961L 59.8178 52.0521"/>
</g>
</svg>