<?xml version="1.0" encoding="ISO-8859-1" standalone="yes"?>
<svg width="181.615" height="209.961">
  <defs> 
    <marker id="ArrowEnd" viewBox="0 0 10 10" refX="0" refY="5" 
     markerUnits="strokeWidth" 
     markerWidth="4" 
     markerHeight="3" 
     orient="auto"> 
        <path d="M 0 0 L 10 5 L 0 10 z" /> 
    </marker>
    <marker id="ArrowStart" viewBox="0 0 10 10" refX="10" refY="5" 
     markerUnits="strokeWidth" 
     markerWidth="4" 
     markerHeight="3" 
     orient="auto"> 
        <path d="M 10 0 L 0 5 L 10 10 z" /> 
    </marker> </defs>
<g>
<path style="stroke:none; fill-rule:evenodd; fill:#000000" d="M 52.3242 194.994L 55.2263 186.596L 54.0933 186.596L 51.7773 193.709L 49.3242 186.596L 48.1796 186.596L 51.1835 194.994L 52.3242 194.994z"/>
<path style="stroke:none; fill-rule:evenodd; fill:#000000" d="M 59.5273 187.494L 62.2303 187.494L 62.2303 186.596L 55.6683 186.596L 55.6683 187.494L 58.4253 187.494L 58.4253 194.994L 59.5233 194.994L 59.5273 187.494z"/>
<path style="stroke:none; fill-rule:evenodd; fill:#000000" d="M 67.8673 192.494L 68.7263 194.994L 69.9183 194.994L 66.9803 186.596L 65.6053 186.596L 62.6213 194.994L 63.7543 194.994L 64.6363 192.494L 67.8673 192.494zM 67.5703 191.596L 64.9103 191.596L 66.2853 187.776L 67.5703 191.596z"/>
<path style="stroke:#000000; stroke-width:0.95664899999999997; fill:none" d="M 91.7813 178.162C 91.7813 167.6 77.2223 159.03 59.2573 159.03C 41.2968 159.03 26.7343 167.592 26.7343 178.162C 26.7343 188.725 41.2968 197.295 59.2573 197.295C 77.2183 197.295 91.7813 188.733 91.7813 178.162"/>
<path style="stroke:none; fill-rule:evenodd; fill:#000000" d="M 124.425 188.584C 124.418 186.948 123.297 185.998 121.382 185.998C 119.558 185.998 118.429 186.948 118.429 188.475C 118.429 189.502 118.961 190.155 120.05 190.444L 122.105 190.998C 123.148 191.276 123.625 191.701 123.625 192.362C 123.625 192.811 123.386 193.276 123.039 193.53C 122.711 193.76 122.191 193.885 121.523 193.885C 120.629 193.885 120.019 193.658 119.625 193.158C 119.32 192.78 119.183 192.362 119.234 191.823L 118.234 191.823C 118.242 192.6 118.39 193.112 118.718 193.576C 119.285 194.366 120.238 194.783 121.496 194.783C 122.48 194.783 123.285 194.557 123.82 194.139C 124.375 193.694 124.726 192.944 124.726 192.217C 124.726 191.182 124.093 190.424 122.968 190.112L 120.894 189.549C 119.898 189.276 119.535 188.951 119.535 188.307C 119.535 187.455 120.269 186.889 121.375 186.889C 122.683 186.889 123.418 187.491 123.429 188.576L 124.425 188.584z"/>
<path style="stroke:none; fill-rule:evenodd; fill:#000000" d="M 132.625 186.096L 131.625 186.096L 131.625 192.967L 127.277 186.096L 126.129 186.096L 126.129 194.494L 127.129 194.494L 127.129 187.713L 131.429 194.494L 132.625 194.494L 132.625 186.096z"/>
<path style="stroke:none; fill-rule:evenodd; fill:#000000" d="M 138.933 190.502C 138.89 189.916 138.765 189.533 138.535 189.198C 138.129 188.635 137.41 188.299 136.582 188.299C 134.98 188.299 133.933 189.592 133.933 191.604C 133.933 193.557 134.957 194.795 136.57 194.795C 137.992 194.795 138.89 193.924 139.004 192.432L 138.05 192.432C 137.894 193.408 137.406 193.897 136.601 193.897C 135.558 193.897 134.933 193.033 134.933 191.608C 134.933 190.1 135.543 189.201 136.578 189.201C 137.371 189.201 137.871 189.67 137.984 190.506L 138.933 190.502z"/>
<path style="stroke:#000000; stroke-width:0.95664899999999997; fill:none" d="M 160.66 178.162C 160.66 167.6 146.101 159.03 128.136 159.03C 110.175 159.03 95.6133 167.592 95.6133 178.162C 95.6133 188.725 110.175 197.295 128.136 197.295C 146.097 197.295 160.66 188.733 160.66 178.162"/>
<path style="stroke:#000000; stroke-width:0.95664899999999997; fill:none" d="M 164.488 178.162C 164.488 163.369 132.797 151.378 93.6993 151.378C 54.6053 151.378 22.9101 163.369 22.9101 178.162C 22.9101 192.955 54.6013 204.948 93.6993 204.948C 132.793 204.948 164.488 192.955 164.488 178.162"/>
<path style="stroke:none; fill-rule:evenodd; fill:#ff0000" d="M 153.488 163.815C 153.488 161.705 151.777 159.991 149.664 159.991C 147.554 159.991 145.839 161.701 145.839 163.815C 145.839 165.924 147.55 167.639 149.664 167.639C 151.773 167.639 153.488 165.928 153.488 163.815"/>
<path style="stroke:#ff0000; stroke-width:1.9133; fill:none" d="M 153.488 163.815C 153.488 161.705 151.777 159.991 149.664 159.991C 147.554 159.991 145.839 161.701 145.839 163.815C 145.839 165.924 147.55 167.639 149.664 167.639C 151.773 167.639 153.488 165.928 153.488 163.815"/>
<path style="stroke:none; fill-rule:evenodd; fill:#ff0000" d="M 109.48 163.815C 109.48 161.705 107.769 159.991 105.656 159.991C 103.547 159.991 101.832 161.701 101.832 163.815C 101.832 165.924 103.543 167.639 105.656 167.639C 107.765 167.639 109.48 165.928 109.48 163.815"/>
<path style="stroke:#ff0000; stroke-width:1.9133; fill:none" d="M 109.48 163.815C 109.48 161.705 107.769 159.991 105.656 159.991C 103.547 159.991 101.832 161.701 101.832 163.815C 101.832 165.924 103.543 167.639 105.656 167.639C 107.765 167.639 109.48 165.928 109.48 163.815"/>
<path style="stroke:none; fill-rule:evenodd; fill:#ff0000" d="M 40.125 162.858C 40.125 160.748 38.414 159.033 36.3007 159.033C 34.1914 159.033 32.4765 160.744 32.4765 162.858C 32.4765 164.967 34.1875 166.682 36.3007 166.682C 38.4101 166.682 40.125 164.971 40.125 162.858"/>
<path style="stroke:#ff0000; stroke-width:1.9133; fill:none" d="M 40.125 162.858C 40.125 160.748 38.414 159.033 36.3007 159.033C 34.1914 159.033 32.4765 160.744 32.4765 162.858C 32.4765 164.967 34.1875 166.682 36.3007 166.682C 38.4101 166.682 40.125 164.971 40.125 162.858"/>
<path style="stroke:none; fill-rule:evenodd; fill:#ff0000" d="M 86.0433 164.772C 86.0433 162.662 84.3323 160.948 82.2183 160.948C 80.1093 160.948 78.3943 162.658 78.3943 164.772C 78.3943 166.881 80.1053 168.596 82.2183 168.596C 84.3283 168.596 86.0433 166.885 86.0433 164.772"/>
<path style="stroke:#ff0000; stroke-width:1.9133; fill:none" d="M 86.0433 164.772C 86.0433 162.662 84.3323 160.948 82.2183 160.948C 80.1093 160.948 78.3943 162.658 78.3943 164.772C 78.3943 166.881 80.1053 168.596 82.2183 168.596C 84.3283 168.596 86.0433 166.885 86.0433 164.772"/>
<path style="stroke:#000000; stroke-width:0.95664899999999997; fill:none" d="M 89.8713 65.2796C 89.8713 54.7166 75.3123 46.1466 57.3473 46.1466C 39.3867 46.1466 24.8242 54.7096 24.8242 65.2796C 24.8242 75.8416 39.3867 84.4126 57.3473 84.4126C 75.3083 84.4126 89.8713 75.8496 89.8713 65.2796"/>
<path style="stroke:none; fill-rule:evenodd; fill:#000000" d="M 113.527 70.7956L 116.168 70.7956C 116.824 70.7956 117.343 70.6036 117.797 70.2016C 118.304 69.7486 118.523 69.2096 118.523 68.4436C 118.523 66.8816 117.586 65.9986 115.914 65.9986L 112.425 65.9986L 112.425 74.3966L 113.523 74.3966L 113.527 70.7956zM 113.527 69.8966L 113.527 66.8966L 115.777 66.8966C 116.808 66.8966 117.425 67.4596 117.425 68.3966C 117.425 69.3306 116.812 69.8966 115.777 69.8966L 113.527 69.8966z"/>
<path style="stroke:none; fill-rule:evenodd; fill:#000000" d="M 123.527 74.3966L 126.429 65.9986L 125.297 65.9986L 122.98 73.1116L 120.527 65.9986L 119.382 65.9986L 122.386 74.3966L 123.527 74.3966z"/>
<path style="stroke:none; fill-rule:evenodd; fill:#000000" d="M 128.226 72.8966L 127.328 72.8966L 127.328 72.1076C 127.328 71.7716 127.531 71.5996 127.925 71.5996C 127.996 71.5996 128.027 71.5996 128.222 71.5996L 128.222 70.9476C 128.035 70.9126 127.925 70.9006 127.754 70.9006C 126.984 70.9006 126.527 71.3226 126.527 72.0456L 126.527 72.8966L 125.929 72.8966L 125.929 73.5956L 126.527 73.5956L 126.527 77.8926L 127.324 77.8926L 127.324 73.5956L 128.222 73.5956L 128.226 72.8966z"/>
<path style="stroke:none; fill-rule:evenodd; fill:#000000" d="M 133.543 77.4276C 133.457 77.4006 133.418 77.4006 133.367 77.4006C 133.086 77.4006 132.929 77.2596 132.929 77.0096L 132.929 74.0686C 132.929 73.1816 132.285 72.7056 131.054 72.7056C 130.332 72.7056 129.734 72.9206 129.398 73.3026C 129.172 73.5646 129.078 73.8616 129.058 74.3696L 129.855 74.3696C 129.922 73.7056 130.281 73.4006 131.023 73.4006C 131.734 73.4006 132.132 73.6706 132.132 74.1546L 132.132 74.3656C 132.132 74.7016 131.933 74.8456 131.308 74.9236C 130.187 75.0686 130.015 75.1076 129.711 75.2326C 129.132 75.4706 128.836 75.9276 128.836 76.5886C 128.836 77.5056 129.465 78.0886 130.48 78.0886C 131.109 78.0886 131.617 77.8776 132.183 77.3736C 132.238 77.8656 132.488 78.0886 133.004 78.0886C 133.164 78.0886 133.289 78.0726 133.547 78.0056L 133.543 77.4276zM 132.125 76.3066C 132.125 76.5686 132.05 76.7326 131.808 76.9476C 131.484 77.2406 131.089 77.3886 130.617 77.3886C 129.992 77.3886 129.629 77.0956 129.629 76.5956C 129.629 76.0766 129.984 75.8106 130.839 75.6896C 131.683 75.5766 131.855 75.5416 132.125 75.4166L 132.125 76.3066z"/>
<path style="stroke:none; fill-rule:evenodd; fill:#000000" d="M 137.914 74.2796C 137.906 73.2676 137.265 72.6976 136.121 72.6976C 134.972 72.6976 134.226 73.3066 134.226 74.2486C 134.226 75.0416 134.625 75.4206 135.808 75.7096L 136.55 75.8926C 137.101 76.0256 137.32 76.2286 137.32 76.5956C 137.32 77.0686 136.847 77.3886 136.14 77.3886C 135.707 77.3886 135.339 77.2636 135.132 77.0486C 135.007 76.9046 134.949 76.7596 134.902 76.4006L 134.05 76.4006C 134.086 77.5416 134.738 78.0916 136.054 78.0916C 137.32 78.0916 138.125 77.4636 138.125 76.4866C 138.125 75.7326 137.707 75.3146 136.715 75.0726L 135.953 74.8886C 135.308 74.7366 135.031 74.5216 135.031 74.1626C 135.031 73.6976 135.437 73.3966 136.086 73.3966C 136.722 73.3966 137.062 73.7016 137.082 74.2796L 137.914 74.2796z"/>
<path style="stroke:none; fill-rule:evenodd; fill:#000000" d="M 140.925 72.8966L 140.129 72.8966L 140.129 71.5056L 139.332 71.5056L 139.332 72.8966L 138.632 72.8966L 138.632 73.5956L 139.332 73.5956L 139.332 77.3146C 139.332 77.8106 139.672 78.0916 140.285 78.0916C 140.472 78.0916 140.664 78.0766 140.925 78.0296L 140.925 77.3816C 140.824 77.3926 140.703 77.3966 140.554 77.3966C 140.222 77.3966 140.129 77.3026 140.129 76.9596L 140.129 73.5996L 140.925 73.5996L 140.925 72.8966z"/>
<path style="stroke:#000000; stroke-width:0.95664899999999997; fill:none" d="M 176.601 122.686C 176.601 107.897 139.484 95.9086 93.6953 95.9086C 47.9101 95.9086 10.789 107.897 10.789 122.686C 10.789 137.475 47.9062 149.464 93.6953 149.464C 139.48 149.464 176.601 137.475 176.601 122.686"/>
<path style="stroke:#000000; stroke-width:0.95664899999999997; fill:none" d="M 61.8043 122.678C 61.8043 114.229 50.6718 107.374 36.9335 107.374C 23.1992 107.374 12.0625 114.225 12.0625 122.678C 12.0625 131.128 23.1953 137.983 36.9335 137.983C 50.6679 137.983 61.8043 131.132 61.8043 122.678"/>
<path style="stroke:#000000; stroke-width:0.95664899999999997; fill:none" d="M 174.687 122.678C 174.687 114.229 163.554 107.374 149.816 107.374C 136.082 107.374 124.945 114.225 124.945 122.678C 124.945 131.128 136.078 137.983 149.816 137.983C 163.55 137.983 174.687 131.132 174.687 122.678"/>
<path style="stroke:#000000; stroke-width:0.95664899999999997; fill:none" d="M 124.945 122.678C 124.945 114.229 118.093 107.374 109.64 107.374C 101.191 107.374 94.3363 114.225 94.3363 122.678C 94.3363 131.128 101.187 137.983 109.64 137.983C 118.089 137.983 124.945 131.132 124.945 122.678"/>
<path style="stroke:#000000; stroke-width:0.95664899999999997; fill:none" d="M 92.4183 122.678C 92.4183 114.229 85.5663 107.374 77.1133 107.374C 68.6643 107.374 61.8083 114.225 61.8083 122.678C 61.8083 131.128 68.6603 137.983 77.1133 137.983C 85.5623 137.983 92.4183 131.132 92.4183 122.678"/>
<path style="stroke:none; fill-rule:evenodd; fill:#000000" d="M 31.7265 117.694L 30.6289 117.694L 30.6289 126.092L 35.8281 126.092L 35.8281 125.194L 31.7304 125.194L 31.7265 117.694z"/>
<path style="stroke:none; fill-rule:evenodd; fill:#000000" d="M 40.625 126.096L 43.5273 117.698L 42.3945 117.698L 40.0781 124.811L 37.625 117.698L 36.4804 117.698L 39.4843 126.096L 40.625 126.096z"/>
<path style="stroke:none; fill-rule:evenodd; fill:#000000" d="M 135.226 122.495L 137.867 122.495C 138.523 122.495 139.043 122.303 139.496 121.901C 140.004 121.448 140.222 120.909 140.222 120.143C 140.222 118.581 139.285 117.698 137.613 117.698L 134.125 117.698L 134.125 126.096L 135.222 126.096L 135.226 122.495zM 135.226 121.596L 135.226 118.596L 137.476 118.596C 138.507 118.596 139.125 119.159 139.125 120.096C 139.125 121.03 138.511 121.596 137.476 121.596L 135.226 121.596z"/>
<path style="stroke:none; fill-rule:evenodd; fill:#000000" d="M 145.226 126.096L 148.129 117.698L 146.996 117.698L 144.679 124.811L 142.226 117.698L 141.082 117.698L 144.086 126.096L 145.226 126.096z"/>
<path style="stroke:none; fill-rule:evenodd; fill:#000000" d="M 151.617 125.882C 151.609 124.87 150.968 124.299 149.824 124.299C 148.675 124.299 147.929 124.909 147.929 125.85C 147.929 126.643 148.328 127.022 149.511 127.311L 150.254 127.495C 150.804 127.628 151.023 127.831 151.023 128.198C 151.023 128.671 150.55 128.991 149.843 128.991C 149.41 128.991 149.043 128.866 148.836 128.651C 148.711 128.506 148.652 128.362 148.605 128.003L 147.754 128.003C 147.789 129.143 148.441 129.694 149.757 129.694C 151.023 129.694 151.828 129.065 151.828 128.089C 151.828 127.335 151.41 126.917 150.418 126.674L 149.656 126.491C 149.011 126.339 148.734 126.124 148.734 125.764C 148.734 125.299 149.14 124.999 149.789 124.999C 150.425 124.999 150.765 125.303 150.785 125.882L 151.617 125.882z"/>
<path style="stroke:none; fill-rule:evenodd; fill:#000000" d="M 152.925 129.495L 153.722 129.495L 153.722 122.499L 152.925 122.499L 152.925 129.495z"/>
<path style="stroke:none; fill-rule:evenodd; fill:#000000" d="M 156.965 124.296C 155.57 124.296 154.726 125.303 154.726 126.995C 154.726 128.682 155.558 129.694 156.976 129.694C 158.371 129.694 159.226 128.686 159.226 127.034C 159.226 125.296 158.402 124.296 156.968 124.296L 156.965 124.296zM 156.976 124.995C 157.882 124.995 158.425 125.749 158.425 127.022C 158.425 128.225 157.867 128.991 156.976 128.991C 156.078 128.991 155.527 128.237 155.527 126.991C 155.527 125.756 156.078 124.991 156.976 124.991L 156.976 124.995z"/>
<path style="stroke:none; fill-rule:evenodd; fill:#000000" d="M 164.925 129.495L 166.398 124.495L 165.5 124.495L 164.507 128.382L 163.523 124.495L 162.55 124.495L 161.597 128.382L 160.578 124.495L 159.699 124.495L 161.152 129.495L 162.05 129.495L 163.015 125.565L 164.027 129.495L 164.925 129.495z"/>
<path style="stroke:none; fill-rule:evenodd; fill:#000000" d="M 99.0273 119.296L 101.195 119.296C 101.734 119.296 102.16 119.135 102.527 118.803C 102.941 118.424 103.121 117.975 103.121 117.339C 103.121 116.034 102.351 115.303 100.984 115.303L 98.1253 115.303L 98.1253 122.303L 99.0233 122.303L 99.0273 119.296zM 99.0273 118.596L 99.0273 115.999L 100.875 115.999C 101.722 115.999 102.226 116.483 102.226 117.296C 102.226 118.104 101.722 118.592 100.875 118.592L 99.0273 118.596z"/>
<path style="stroke:none; fill-rule:evenodd; fill:#000000" d="M 107.375 122.296L 109.793 115.296L 108.847 115.296L 106.918 121.221L 104.871 115.296L 103.918 115.296L 106.422 122.296L 107.375 122.296z"/>
<path style="stroke:none; fill-rule:evenodd; fill:#000000" d="M 111.625 121.796L 110.925 121.796L 110.925 121.19C 110.925 120.932 111.086 120.799 111.39 120.799C 111.445 120.799 111.468 120.799 111.621 120.799L 111.621 120.241C 111.465 120.21 111.375 120.202 111.234 120.202C 110.601 120.202 110.222 120.538 110.222 121.116L 110.222 121.799L 109.824 121.799L 109.824 122.299L 110.222 122.299L 110.222 125.799L 110.922 125.799L 110.922 122.299L 111.621 122.299L 111.625 121.796z"/>
<path style="stroke:none; fill-rule:evenodd; fill:#000000" d="M 115.82 125.421C 115.75 125.495 115.718 125.495 115.679 125.495C 115.453 125.495 115.328 125.382 115.328 125.178L 115.328 122.799C 115.328 122.085 114.812 121.698 113.828 121.698C 113.25 121.698 112.769 121.862 112.504 122.155C 112.324 122.354 112.246 122.581 112.23 122.971L 112.851 122.971C 112.902 122.506 113.183 122.296 113.761 122.296C 114.316 122.296 114.629 122.506 114.629 122.889L 114.629 123.057C 114.629 123.323 114.472 123.436 113.98 123.499C 113.097 123.612 112.965 123.643 112.722 123.741C 112.269 123.928 112.035 124.288 112.035 124.807C 112.035 125.53 112.543 125.987 113.355 125.987C 113.863 125.987 114.269 125.807 114.722 125.378C 114.765 125.799 114.965 125.987 115.382 125.987C 115.511 125.987 115.613 125.971 115.82 125.917L 115.82 125.421zM 114.625 124.526C 114.625 124.737 114.566 124.866 114.386 125.038C 114.14 125.272 113.839 125.393 113.484 125.393C 113.011 125.393 112.734 125.159 112.734 124.76C 112.734 124.346 113.004 124.135 113.652 124.034C 114.293 123.944 114.425 123.917 114.629 123.815L 114.625 124.526z"/>
<path style="stroke:none; fill-rule:evenodd; fill:#000000" d="M 119.379 122.901C 119.371 122.132 118.843 121.698 117.898 121.698C 116.949 121.698 116.332 122.178 116.332 122.917C 116.332 123.542 116.652 123.839 117.605 124.065L 118.203 124.21C 118.648 124.315 118.824 124.475 118.824 124.764C 118.824 125.135 118.457 125.389 117.91 125.389C 117.574 125.389 117.289 125.292 117.129 125.12C 117.031 125.006 116.988 124.889 116.949 124.6L 116.289 124.6C 116.316 125.542 116.836 125.991 117.879 125.991C 118.882 125.991 119.523 125.499 119.523 124.725C 119.523 124.132 119.187 123.803 118.386 123.612L 117.773 123.467C 117.254 123.346 117.031 123.178 117.031 122.897C 117.031 122.534 117.363 122.296 117.886 122.296C 118.402 122.296 118.679 122.503 118.695 122.901L 119.379 122.901z"/>
<path style="stroke:none; fill-rule:evenodd; fill:#000000" d="M 121.726 121.796L 121.129 121.796L 121.129 120.686L 120.429 120.686L 120.429 121.796L 119.929 121.796L 119.929 122.296L 120.429 122.296L 120.429 125.354C 120.429 125.76 120.703 125.995 121.203 125.995C 121.355 125.995 121.507 125.979 121.722 125.94L 121.722 125.385C 121.648 125.393 121.554 125.397 121.445 125.397C 121.195 125.397 121.125 125.323 121.125 125.042L 121.125 122.303L 121.722 122.303L 121.726 121.796z"/>
<path style="stroke:none; fill-rule:evenodd; fill:#000000" d="M 27.2265 170.397L 25.4296 170.397L 25.4296 179.397L 27.2265 179.397L 27.2265 178.698L 26.2265 178.698L 26.2265 171.1L 27.2265 171.1L 27.2265 170.397z"/>
<path style="stroke:none; fill-rule:evenodd; fill:#000000" d="M 28.2265 172.342L 28.2265 177.393L 29.0234 177.393L 29.0234 174.741C 29.0234 174.01 29.1992 173.533 29.5742 173.248C 29.8164 173.065 30.0507 173.006 30.5898 172.994L 30.5898 172.225C 30.457 172.209 30.3906 172.201 30.2851 172.201C 29.7734 172.201 29.3789 172.51 28.9218 173.26L 28.9218 172.346L 28.2265 172.342z"/>
<path style="stroke:none; fill-rule:evenodd; fill:#000000" d="M 31.4257 176.397L 31.4257 177.397L 32.0234 177.397L 32.0234 177.561C 32.0234 178.194 31.8945 178.377 31.4257 178.393L 31.4257 178.791C 32.0898 178.791 32.4257 178.362 32.4257 177.541L 32.4257 176.397L 31.4257 176.397z"/>
<path style="stroke:none; fill-rule:evenodd; fill:#000000" d="M 33.8242 179.483L 34.6211 179.483L 34.6211 176.901C 35.0429 177.381 35.5117 177.6 36.1679 177.6C 37.4648 177.6 38.3203 176.553 38.3203 174.951C 38.3203 173.264 37.4882 172.205 36.1406 172.205C 35.4531 172.205 34.9023 172.514 34.5234 173.108L 34.5234 172.35L 33.8242 172.35L 33.8242 179.483zM 36.0468 172.897C 36.9414 172.897 37.5234 173.694 37.5234 174.924C 37.5234 176.096 36.9296 176.893 36.0468 176.893C 35.1914 176.893 34.6289 176.108 34.6289 174.893C 34.6289 173.682 35.1914 172.893 36.0468 172.893L 36.0468 172.897z"/>
<path style="stroke:none; fill-rule:evenodd; fill:#000000" d="M 41.3515 177.397L 43.2734 172.397L 42.375 172.397L 40.9609 176.448L 39.625 172.397L 38.7265 172.397L 40.4843 177.397L 41.3515 177.397z"/>
<path style="stroke:none; fill-rule:evenodd; fill:#000000" d="M 46.3437 179.397L 48.1211 179.397L 48.1211 170.397L 46.3437 170.397L 46.3437 171.096L 47.3203 171.096L 47.3203 178.694L 46.3437 178.694L 46.3437 179.397z"/>
<path style="stroke:none; fill-rule:evenodd; fill:#000000" d="M 51.8242 175.494L 56.6213 175.494L 56.6213 174.795L 51.8242 174.795L 51.8242 175.494z"/>
<path style="stroke:none; fill-rule:evenodd; fill:#000000" d="M 62.0273 170.397L 60.2303 170.397L 60.2303 179.397L 62.0273 179.397L 62.0273 178.698L 61.0273 178.698L 61.0273 171.1L 62.0273 171.1L 62.0273 170.397z"/>
<path style="stroke:none; fill-rule:evenodd; fill:#000000" d="M 63.0273 177.397L 63.8243 177.397L 63.8243 170.401L 63.0273 170.401L 63.0273 177.397z"/>
<path style="stroke:none; fill-rule:evenodd; fill:#000000" d="M 67.1523 177.397L 69.0743 172.397L 68.1753 172.397L 66.7613 176.448L 65.4253 172.397L 64.5273 172.397L 66.2853 177.397L 67.1523 177.397z"/>
<path style="stroke:none; fill-rule:evenodd; fill:#000000" d="M 70.0273 176.397L 70.0273 177.397L 70.6253 177.397L 70.6253 177.561C 70.6253 178.194 70.4963 178.377 70.0273 178.393L 70.0273 178.791C 70.6913 178.791 71.0273 178.362 71.0273 177.541L 71.0273 176.397L 70.0273 176.397z"/>
<path style="stroke:none; fill-rule:evenodd; fill:#000000" d="M 72.3243 179.483L 73.1213 179.483L 73.1213 176.901C 73.5433 177.381 74.0113 177.6 74.6683 177.6C 75.9653 177.6 76.8203 176.553 76.8203 174.951C 76.8203 173.264 75.9883 172.205 74.6403 172.205C 73.9533 172.205 73.4023 172.514 73.0233 173.108L 73.0233 172.35L 72.3243 172.35L 72.3243 179.483zM 74.5473 172.897C 75.4413 172.897 76.0233 173.694 76.0233 174.924C 76.0233 176.096 75.4293 176.893 74.5473 176.893C 73.6913 176.893 73.1293 176.108 73.1293 174.893C 73.1293 173.682 73.6913 172.893 74.5473 172.893L 74.5473 172.897z"/>
<path style="stroke:none; fill-rule:evenodd; fill:#000000" d="M 79.9533 177.397L 81.8753 172.397L 80.9763 172.397L 79.5623 176.448L 78.2263 172.397L 77.3283 172.397L 79.0863 177.397L 79.9533 177.397z"/>
<path style="stroke:none; fill-rule:evenodd; fill:#000000" d="M 84.8433 179.397L 86.6213 179.397L 86.6213 170.397L 84.8433 170.397L 84.8433 171.096L 85.8203 171.096L 85.8203 178.694L 84.8433 178.694L 84.8433 179.397z"/>
<path style="stroke:none; fill-rule:evenodd; fill:#000000" d="M 45.9257 179.596L 45.2265 179.596L 45.2265 178.991C 45.2265 178.733 45.3867 178.6 45.6914 178.6C 45.7461 178.6 45.7695 178.6 45.9218 178.6L 45.9218 178.041C 45.7656 178.01 45.6757 178.002 45.5351 178.002C 44.9023 178.002 44.5234 178.338 44.5234 178.916L 44.5234 179.6L 44.125 179.6L 44.125 180.1L 44.5234 180.1L 44.5234 183.6L 45.2226 183.6L 45.2226 180.1L 45.9218 180.1L 45.9257 179.596z"/>
<path style="stroke:none; fill-rule:evenodd; fill:#000000" d="M 81.7773 180.701C 81.7693 179.932 81.2423 179.498 80.2973 179.498C 79.3473 179.498 78.7303 179.979 78.7303 180.717C 78.7303 181.342 79.0503 181.639 80.0043 181.866L 80.6013 182.01C 81.0473 182.116 81.2223 182.276 81.2223 182.565C 81.2223 182.936 80.8553 183.19 80.3083 183.19C 79.9723 183.19 79.6873 183.092 79.5273 182.92C 79.4293 182.807 79.3863 182.69 79.3473 182.401L 78.6873 182.401C 78.7153 183.342 79.2343 183.791 80.2773 183.791C 81.2813 183.791 81.9223 183.299 81.9223 182.526C 81.9223 181.932 81.5863 181.604 80.7853 181.412L 80.1723 181.268C 79.6523 181.147 79.4293 180.979 79.4293 180.698C 79.4293 180.334 79.7613 180.096 80.2853 180.096C 80.8003 180.096 81.0783 180.303 81.0933 180.701L 81.7773 180.701z"/>
<path style="stroke:#ff0000; stroke-dasharray:6,3; stroke-width:1.9133; fill:none" d="M 36.2968 137.983L 36.2968 160.94"/>
<path style="stroke:#ff0000; stroke-dasharray:6,3; stroke-width:1.9133; fill:none" d="M 36.2968 137.983L 103.261 162.854"/>
<path style="stroke:#0000ff; stroke-width:1.9133; fill:none" d="M 57.3433 84.4126L 36.3007 107.37"/>
<path style="stroke:#0000ff; stroke-width:1.9133; fill:none" d="M 42.8789 103.022L 36.3007 107.37L 40.0585 100.436"/>
<path style="stroke:#0000ff; stroke-width:1.9133; fill:none" d="M 57.3433 84.4126L 76.4763 107.37"/>
<path style="stroke:#0000ff; stroke-width:1.9133; fill:none" d="M 73.0473 100.268L 76.4763 107.37L 70.1093 102.717"/>
<path style="stroke:#0000ff; stroke-width:1.9133; fill:none" d="M 130.047 84.4126L 109.004 107.37"/>
<path style="stroke:#0000ff; stroke-width:1.9133; fill:none" d="M 115.582 103.022L 109.004 107.37L 112.761 100.436"/>
<path style="stroke:#0000ff; stroke-width:1.9133; fill:none" d="M 76.4763 137.983L 61.1723 159.026"/>
<path style="stroke:#0000ff; stroke-width:1.9133; fill:none" d="M 67.2183 153.967L 61.1723 159.03L 64.1253 151.717"/>
<path style="stroke:#0000ff; stroke-width:1.9133; fill:none" d="M 109.004 137.983L 61.1753 159.026"/>
<path style="stroke:#0000ff; stroke-width:1.9133; fill:none" d="M 68.9453 157.701L 61.1723 159.03L 67.4063 154.198"/>
<path style="stroke:#ff0000; stroke-dasharray:6,3; stroke-width:1.9133; fill:none" d="M 149.183 137.983L 84.1323 162.854"/>
<path style="stroke:#ff0000; stroke-dasharray:6,3; stroke-width:1.9133; fill:none" d="M 149.183 137.983L 149.183 164.768"/>
<path style="stroke:none; fill-rule:evenodd; fill:#000000" d="M 98.0273 170.397L 96.2303 170.397L 96.2303 179.397L 98.0273 179.397L 98.0273 178.698L 97.0273 178.698L 97.0273 171.1L 98.0273 171.1L 98.0273 170.397z"/>
<path style="stroke:none; fill-rule:evenodd; fill:#000000" d="M 98.9253 172.342L 98.9253 177.393L 99.7223 177.393L 99.7223 174.741C 99.7223 174.01 99.8983 173.533 100.273 173.248C 100.515 173.065 100.75 173.006 101.289 172.994L 101.289 172.225C 101.156 172.209 101.089 172.201 100.984 172.201C 100.472 172.201 100.078 172.51 99.6213 173.26L 99.6213 172.346L 98.9253 172.342z"/>
<path style="stroke:none; fill-rule:evenodd; fill:#000000" d="M 102.226 176.397L 102.226 177.397L 102.824 177.397L 102.824 177.561C 102.824 178.194 102.695 178.377 102.226 178.393L 102.226 178.791C 102.89 178.791 103.226 178.362 103.226 177.541L 103.226 176.397L 102.226 176.397z"/>
<path style="stroke:none; fill-rule:evenodd; fill:#000000" d="M 104.625 179.483L 105.422 179.483L 105.422 176.901C 105.843 177.381 106.312 177.6 106.968 177.6C 108.265 177.6 109.121 176.553 109.121 174.951C 109.121 173.264 108.289 172.205 106.941 172.205C 106.254 172.205 105.703 172.514 105.324 173.108L 105.324 172.35L 104.625 172.35L 104.625 179.483zM 106.843 172.897C 107.738 172.897 108.32 173.694 108.32 174.924C 108.32 176.096 107.726 176.893 106.843 176.893C 105.988 176.893 105.425 176.108 105.425 174.893C 105.425 173.682 105.988 172.893 106.843 172.893L 106.843 172.897z"/>
<path style="stroke:none; fill-rule:evenodd; fill:#000000" d="M 112.152 177.397L 114.074 172.397L 113.175 172.397L 111.761 176.448L 110.425 172.397L 109.527 172.397L 111.285 177.397L 112.152 177.397z"/>
<path style="stroke:none; fill-rule:evenodd; fill:#000000" d="M 117.047 179.397L 118.824 179.397L 118.824 170.397L 117.047 170.397L 117.047 171.096L 118.023 171.096L 118.023 178.694L 117.047 178.694L 117.047 179.397z"/>
<path style="stroke:none; fill-rule:evenodd; fill:#000000" d="M 122.625 175.494L 127.422 175.494L 127.422 174.795L 122.625 174.795L 122.625 175.494z"/>
<path style="stroke:none; fill-rule:evenodd; fill:#000000" d="M 132.824 170.397L 131.027 170.397L 131.027 179.397L 132.824 179.397L 132.824 178.698L 131.824 178.698L 131.824 171.1L 132.824 171.1L 132.824 170.397z"/>
<path style="stroke:none; fill-rule:evenodd; fill:#000000" d="M 133.824 177.397L 134.621 177.397L 134.621 170.401L 133.824 170.401L 133.824 177.397z"/>
<path style="stroke:none; fill-rule:evenodd; fill:#000000" d="M 137.953 177.397L 139.875 172.397L 138.976 172.397L 137.562 176.448L 136.226 172.397L 135.328 172.397L 137.086 177.397L 137.953 177.397z"/>
<path style="stroke:none; fill-rule:evenodd; fill:#000000" d="M 140.824 176.397L 140.824 177.397L 141.422 177.397L 141.422 177.561C 141.422 178.194 141.293 178.377 140.824 178.393L 140.824 178.791C 141.488 178.791 141.824 178.362 141.824 177.541L 141.824 176.397L 140.824 176.397z"/>
<path style="stroke:none; fill-rule:evenodd; fill:#000000" d="M 143.125 179.483L 143.922 179.483L 143.922 176.901C 144.343 177.381 144.812 177.6 145.468 177.6C 146.765 177.6 147.621 176.553 147.621 174.951C 147.621 173.264 146.789 172.205 145.441 172.205C 144.754 172.205 144.203 172.514 143.824 173.108L 143.824 172.35L 143.125 172.35L 143.125 179.483zM 145.343 172.897C 146.238 172.897 146.82 173.694 146.82 174.924C 146.82 176.096 146.226 176.893 145.343 176.893C 144.488 176.893 143.925 176.108 143.925 174.893C 143.925 173.682 144.488 172.893 145.343 172.893L 145.343 172.897z"/>
<path style="stroke:none; fill-rule:evenodd; fill:#000000" d="M 150.754 177.397L 152.675 172.397L 151.777 172.397L 150.363 176.448L 149.027 172.397L 148.129 172.397L 149.886 177.397L 150.754 177.397z"/>
<path style="stroke:none; fill-rule:evenodd; fill:#000000" d="M 155.644 179.397L 157.422 179.397L 157.422 170.397L 155.644 170.397L 155.644 171.096L 156.621 171.096L 156.621 178.694L 155.644 178.694L 155.644 179.397z"/>
<path style="stroke:none; fill-rule:evenodd; fill:#000000" d="M 116.726 179.596L 116.027 179.596L 116.027 178.991C 116.027 178.733 116.187 178.6 116.492 178.6C 116.547 178.6 116.57 178.6 116.722 178.6L 116.722 178.041C 116.566 178.01 116.476 178.002 116.336 178.002C 115.703 178.002 115.324 178.338 115.324 178.916L 115.324 179.6L 114.925 179.6L 114.925 180.1L 115.324 180.1L 115.324 183.6L 116.023 183.6L 116.023 180.1L 116.722 180.1L 116.726 179.596z"/>
<path style="stroke:none; fill-rule:evenodd; fill:#000000" d="M 154.476 180.701C 154.468 179.932 153.941 179.498 152.996 179.498C 152.047 179.498 151.429 179.979 151.429 180.717C 151.429 181.342 151.75 181.639 152.703 181.866L 153.3 182.01C 153.746 182.116 153.922 182.276 153.922 182.565C 153.922 182.936 153.554 183.19 153.007 183.19C 152.672 183.19 152.386 183.092 152.226 182.92C 152.129 182.807 152.086 182.69 152.047 182.401L 151.386 182.401C 151.414 183.342 151.933 183.791 152.976 183.791C 153.98 183.791 154.621 183.299 154.621 182.526C 154.621 181.932 154.285 181.604 153.484 181.412L 152.871 181.268C 152.351 181.147 152.129 180.979 152.129 180.698C 152.129 180.334 152.461 180.096 152.984 180.096C 153.5 180.096 153.777 180.303 153.793 180.701L 154.476 180.701z"/>
<path style="stroke:#0000ff; stroke-width:1.9133; fill:none" d="M 76.4763 137.983L 126.218 159.026"/>
<path style="stroke:#0000ff; stroke-width:1.9133; fill:none" d="M 119.918 154.288L 126.218 159.03L 118.425 157.811"/>
<path style="stroke:#0000ff; stroke-width:1.9133; fill:none" d="M 109.004 137.983L 126.222 159.026"/>
<path style="stroke:#0000ff; stroke-width:1.9133; fill:none" d="M 122.855 151.897L 126.218 159.03L 119.894 154.319"/>
<path style="stroke:#0000ff; stroke-width:1.9133; fill:none" d="M 80.3043 78.6736L 105.175 78.6736"/>
<path style="stroke:#0000ff; stroke-width:1.9133; fill:none" d="M 97.5233 76.7596L 105.175 78.6706L 97.5233 80.5806"/>
<path style="stroke:#0000ff; stroke-width:1.9133; fill:none" d="M 80.3043 78.6736L 149.183 107.374"/>
<path style="stroke:#0000ff; stroke-width:1.9133; fill:none" d="M 142.851 102.663L 149.179 107.37L 141.382 106.194"/>
<path style="stroke:none; fill-rule:evenodd; fill:#000000" d="M 2.1054 93.6936L 3.6406 89.6936L 2.9218 89.6936L 1.789 92.9316L 0.7187 89.6936L 0 89.6936L 1.4062 93.6936L 2.1054 93.6936z"/>
<path style="stroke:none; fill-rule:evenodd; fill:#000000" d="M 7.625 91.8966C 7.625 91.2956 7.582 90.9316 7.4687 90.6386C 7.2109 89.9946 6.6015 89.5996 5.8554 89.5996C 4.7461 89.5996 4.0312 90.4556 4.0312 91.7716C 4.0312 93.0846 4.7265 93.8966 5.8554 93.8966C 6.7734 93.8966 7.4101 93.3696 7.5703 92.4826L 6.9335 92.4826C 6.7617 93.0176 6.4062 93.2986 5.8984 93.2986C 5.5 93.2986 5.1562 93.1156 4.9453 92.7716C 4.7968 92.5416 4.7421 92.3066 4.7343 91.9046L 7.625 91.8966zM 4.7109 91.3846C 4.7617 90.6466 5.2148 90.1626 5.8554 90.1626C 6.4804 90.1626 6.9648 90.6816 6.9648 91.3386C 6.9648 91.3496 6.9648 91.3656 6.957 91.3816L 4.7109 91.3846z"/>
<path style="stroke:none; fill-rule:evenodd; fill:#000000" d="M 8.5273 89.7096L 8.5273 93.6936L 9.2265 93.6936L 9.2265 91.5256C 9.2265 90.7246 9.6523 90.1976 10.3046 90.1976C 10.8046 90.1976 11.125 90.4986 11.125 90.9706L 11.125 93.6936L 11.8242 93.6936L 11.8242 90.6816C 11.8242 90.0216 11.3085 89.5956 10.5078 89.5956C 9.8906 89.5956 9.4921 89.8226 9.1289 90.3776L 9.1289 89.7096L 8.5273 89.7096z"/>
<path style="stroke:none; fill-rule:evenodd; fill:#000000" d="M 14.2265 89.6936L 13.6289 89.6936L 13.6289 88.5846L 12.9296 88.5846L 12.9296 89.6936L 12.4296 89.6936L 12.4296 90.1936L 12.9296 90.1936L 12.9296 93.2526C 12.9296 93.6586 13.2031 93.8926 13.7031 93.8926C 13.8554 93.8926 14.0078 93.8776 14.2226 93.8386L 14.2226 93.2836C 14.1484 93.2916 14.0546 93.2956 13.9453 93.2956C 13.6953 93.2956 13.625 93.2206 13.625 92.9396L 13.625 90.2016L 14.2226 90.2016L 14.2265 89.6936z"/>
<path style="stroke:none; fill-rule:evenodd; fill:#000000" d="M 14.9257 89.7096L 14.9257 93.6936L 15.625 93.6936L 15.625 91.6426C 15.625 91.0806 15.7656 90.7096 16.0625 90.4906C 16.2539 90.3496 16.4414 90.3026 16.875 90.2956L 16.875 89.6196C 16.7695 89.6036 16.7148 89.5956 16.6289 89.5956C 16.2109 89.5956 15.8945 89.8386 15.5234 90.4316L 15.5234 89.7096L 14.9257 89.7096z"/>
<path style="stroke:none; fill-rule:evenodd; fill:#000000" d="M 21.0195 93.3186C 20.9492 93.3926 20.9179 93.3926 20.8789 93.3926C 20.6523 93.3926 20.5273 93.2796 20.5273 93.0766L 20.5273 90.6976C 20.5273 89.9826 20.0117 89.5956 19.0273 89.5956C 18.4492 89.5956 17.9687 89.7596 17.7031 90.0526C 17.5234 90.2526 17.4453 90.4786 17.4296 90.8696L 18.0507 90.8696C 18.1015 90.4046 18.3828 90.1936 18.9609 90.1936C 19.5156 90.1936 19.8281 90.4046 19.8281 90.7876L 19.8281 90.9556C 19.8281 91.2206 19.6718 91.3346 19.1796 91.3966C 18.2968 91.5096 18.164 91.5416 17.9218 91.6386C 17.4687 91.8266 17.2343 92.1856 17.2343 92.7056C 17.2343 93.4276 17.7421 93.8846 18.5546 93.8846C 19.0625 93.8846 19.4687 93.7056 19.9218 93.2756C 19.9648 93.6976 20.164 93.8846 20.582 93.8846C 20.7109 93.8846 20.8125 93.8696 21.0195 93.8146L 21.0195 93.3186zM 19.8242 92.4236C 19.8242 92.6346 19.7656 92.7636 19.5859 92.9356C 19.3398 93.1706 19.039 93.2916 18.6835 93.2916C 18.2109 93.2916 17.9335 93.0566 17.9335 92.6586C 17.9335 92.2446 18.2031 92.0336 18.8515 91.9316C 19.4921 91.8416 19.625 91.8146 19.8281 91.7136L 19.8242 92.4236z"/>
<path style="stroke:none; fill-rule:evenodd; fill:#000000" d="M 21.7265 93.6936L 22.4257 93.6936L 22.4257 88.0956L 21.7265 88.0956L 21.7265 93.6936z"/>
<path style="stroke:none; fill-rule:evenodd; fill:#000000" d="M 3.2773 98.5026C 3.2695 97.7326 2.7421 97.2986 1.7968 97.2986C 0.847603 97.2986 0.2304 97.7796 0.2304 98.5176C 0.2304 99.1426 0.550701 99.4396 1.5039 99.6666L 2.1015 99.8106C 2.5468 99.9166 2.7226 100.077 2.7226 100.366C 2.7226 100.737 2.3554 100.991 1.8085 100.991C 1.4726 100.991 1.1875 100.893 1.0273 100.721C 0.929604 100.608 0.886703 100.491 0.847603 100.202L 0.1875 100.202C 0.214802 101.143 0.734303 101.592 1.7773 101.592C 2.7812 101.592 3.4218 101.1 3.4218 100.327C 3.4218 99.7326 3.0859 99.4046 2.2851 99.2136L 1.6718 99.0686C 1.1523 98.9476 0.929604 98.7796 0.929604 98.4986C 0.929604 98.1346 1.2617 97.8966 1.7851 97.8966C 2.3007 97.8966 2.5781 98.1036 2.5937 98.5026L 3.2773 98.5026z"/>
<path style="stroke:none; fill-rule:evenodd; fill:#000000" d="M 5.625 97.3966L 5.0273 97.3966L 5.0273 96.2876L 4.3281 96.2876L 4.3281 97.3966L 3.8281 97.3966L 3.8281 97.8966L 4.3281 97.8966L 4.3281 100.956C 4.3281 101.362 4.6015 101.596 5.1015 101.596C 5.2539 101.596 5.4062 101.581 5.6211 101.542L 5.6211 100.987C 5.5468 100.995 5.4531 100.999 5.3437 100.999C 5.0937 100.999 5.0234 100.924 5.0234 100.643L 5.0234 97.9046L 5.6211 97.9046L 5.625 97.3966z"/>
<path style="stroke:none; fill-rule:evenodd; fill:#000000" d="M 6.4257 97.4086L 6.4257 101.393L 7.125 101.393L 7.125 99.3416C 7.125 98.7796 7.2656 98.4086 7.5625 98.1896C 7.7539 98.0486 7.9414 98.0026 8.375 97.9946L 8.375 97.3186C 8.2695 97.3026 8.2148 97.2956 8.1289 97.2956C 7.7109 97.2956 7.3945 97.5376 7.0234 98.1316L 7.0234 97.4086L 6.4257 97.4086z"/>
<path style="stroke:none; fill-rule:evenodd; fill:#000000" d="M 9.625 97.3966L 8.9257 97.3966L 8.9257 101.397L 9.625 101.397L 9.625 97.3966zM 9.625 95.7956L 8.9257 95.7956L 8.9257 96.6196L 9.625 96.6196L 9.625 95.7956z"/>
<path style="stroke:none; fill-rule:evenodd; fill:#000000" d="M 14.2187 101.022C 14.1484 101.096 14.1171 101.096 14.0781 101.096C 13.8515 101.096 13.7265 100.983 13.7265 100.78L 13.7265 98.4006C 13.7265 97.6856 13.2109 97.2986 12.2265 97.2986C 11.6484 97.2986 11.1679 97.4636 10.9023 97.7556C 10.7226 97.9556 10.6445 98.1816 10.6289 98.5726L 11.25 98.5726C 11.3007 98.1076 11.582 97.8966 12.1601 97.8966C 12.7148 97.8966 13.0273 98.1076 13.0273 98.4906L 13.0273 98.6586C 13.0273 98.9236 12.8711 99.0376 12.3789 99.0996C 11.4961 99.2136 11.3632 99.2446 11.1211 99.3416C 10.6679 99.5296 10.4335 99.8886 10.4335 100.409C 10.4335 101.132 10.9414 101.589 11.7539 101.589C 12.2617 101.589 12.6679 101.409 13.1211 100.979C 13.164 101.401 13.3632 101.589 13.7812 101.589C 13.9101 101.589 14.0117 101.573 14.2187 101.518L 14.2187 101.022zM 13.0273 100.128C 13.0273 100.339 12.9687 100.467 12.789 100.639C 12.5429 100.874 12.2421 100.995 11.8867 100.995C 11.414 100.995 11.1367 100.76 11.1367 100.362C 11.1367 99.9476 11.4062 99.7366 12.0546 99.6346C 12.6953 99.5456 12.8281 99.5176 13.0312 99.4166L 13.0273 100.128z"/>
<path style="stroke:none; fill-rule:evenodd; fill:#000000" d="M 16.3242 97.3966L 15.7265 97.3966L 15.7265 96.2876L 15.0273 96.2876L 15.0273 97.3966L 14.5273 97.3966L 14.5273 97.8966L 15.0273 97.8966L 15.0273 100.956C 15.0273 101.362 15.3007 101.596 15.8007 101.596C 15.9531 101.596 16.1054 101.581 16.3203 101.542L 16.3203 100.987C 16.2461 100.995 16.1523 100.999 16.0429 100.999C 15.7929 100.999 15.7226 100.924 15.7226 100.643L 15.7226 97.9046L 16.3203 97.9046L 16.3242 97.3966z"/>
<path style="stroke:none; fill-rule:evenodd; fill:#000000" d="M 20.2265 101.421L 20.2265 97.4006L 19.5273 97.4006L 19.5273 99.6546C 19.5273 100.464 19.1289 100.999 18.5039 100.999C 18.0312 100.999 17.7304 100.698 17.7304 100.217L 17.7304 97.4006L 17.0312 97.4006L 17.0312 100.503C 17.0312 101.171 17.5234 101.6 18.2968 101.6C 18.8789 101.6 19.2539 101.397 19.625 100.866L 19.625 101.424L 20.2265 101.421z"/>
<path style="stroke:none; fill-rule:evenodd; fill:#000000" d="M 21.3242 97.4086L 21.3242 101.393L 22.0234 101.393L 22.0234 98.9236C 22.0234 98.3536 22.4218 97.8966 22.9179 97.8966C 23.3671 97.8966 23.6211 98.1816 23.6211 98.6816L 23.6211 101.393L 24.3203 101.393L 24.3203 98.9236C 24.3203 98.3536 24.7421 97.8966 25.2695 97.8966C 25.7382 97.8966 26.0195 98.1896 26.0195 98.6816L 26.0195 101.393L 26.7187 101.393L 26.7187 98.4046C 26.7187 97.6896 26.2968 97.2956 25.5351 97.2956C 24.9921 97.2956 24.664 97.4476 24.2812 97.8816C 24.0429 97.4706 23.7148 97.2956 23.1835 97.2956C 22.6406 97.2956 22.2812 97.4906 21.9296 97.9706L 21.9296 97.4086L 21.3242 97.4086z"/>
<path style="stroke:none; fill-rule:evenodd; fill:#000000" d="M 87.7263 95.6936L 86.7263 95.6936L 86.7263 102.565L 82.3793 95.6936L 81.2303 95.6936L 81.2303 104.092L 82.2303 104.092L 82.2303 97.3106L 86.5313 104.092L 87.7263 104.092L 87.7263 95.6936z"/>
<path style="stroke:none; fill-rule:evenodd; fill:#000000" d="M 94.0663 101.596L 94.9253 104.096L 96.1173 104.096L 93.1793 95.6976L 91.8043 95.6976L 88.8203 104.096L 89.9533 104.096L 90.8363 101.596L 94.0663 101.596zM 93.7693 100.694L 91.1093 100.694L 92.4843 96.8736L 93.7693 100.694z"/>
<path style="stroke:none; fill-rule:evenodd; fill:#000000" d="M 101.632 100.1C 101.589 99.5136 101.465 99.1316 101.234 98.7956C 100.828 98.2326 100.109 97.8966 99.2813 97.8966C 97.6793 97.8966 96.6323 99.1896 96.6323 101.202C 96.6323 103.155 97.6563 104.393 99.2693 104.393C 100.691 104.393 101.589 103.522 101.703 102.03L 100.75 102.03C 100.593 103.006 100.105 103.495 99.3003 103.495C 98.2573 103.495 97.6323 102.632 97.6323 101.206C 97.6323 99.6976 98.2423 98.7986 99.2773 98.7986C 100.07 98.7986 100.57 99.2676 100.683 100.104L 101.632 100.1z"/>
<path style="stroke:#000000; stroke-width:0.95664899999999997; fill:none" d="M 160.66 65.2796C 160.66 54.7166 146.101 46.1466 128.136 46.1466C 110.175 46.1466 95.6133 54.7096 95.6133 65.2796C 95.6133 75.8416 110.175 84.4126 128.136 84.4126C 146.097 84.4126 160.66 75.8496 160.66 65.2796"/>
<path style="stroke:none; fill-rule:evenodd; fill:#000000" d="M 122.566 55.6936L 123.425 58.1936L 124.617 58.1936L 121.679 49.7956L 120.304 49.7956L 117.32 58.1936L 118.453 58.1936L 119.336 55.6936L 122.566 55.6936zM 122.269 54.7956L 119.609 54.7956L 120.984 50.9746L 122.269 54.7956z"/>
<path style="stroke:none; fill-rule:evenodd; fill:#000000" d="M 125.726 58.1936L 129.535 58.1936C 130.332 58.1936 130.922 57.9746 131.375 57.4946C 131.789 57.0566 132.023 56.4596 132.023 55.8026C 132.023 54.7916 131.55 54.1776 130.449 53.7676C 131.215 53.4126 131.621 52.7916 131.621 51.9396C 131.621 51.3306 131.394 50.7916 130.953 50.3966C 130.515 49.9946 129.941 49.8106 129.132 49.8106L 125.722 49.8106L 125.726 58.1936zM 126.824 53.4946L 126.824 50.6976L 128.867 50.6976C 129.457 50.6976 129.785 50.7796 130.066 51.0096C 130.359 51.2486 130.519 51.6116 130.519 52.0956C 130.519 52.5646 130.363 52.9396 130.066 53.1816C 129.785 53.4086 129.457 53.4946 128.867 53.4946L 126.824 53.4946zM 126.824 57.2956L 126.824 54.3966L 129.422 54.3966C 129.933 54.3966 130.277 54.5216 130.531 54.7986C 130.781 55.0646 130.918 55.4316 130.918 55.8496C 130.918 56.2526 130.781 56.6236 130.531 56.8886C 130.281 57.1626 129.937 57.2916 129.422 57.2916L 126.824 57.2956z"/>
<path style="stroke:none; fill-rule:evenodd; fill:#000000" d="M 134.425 49.7956L 133.328 49.7956L 133.328 58.1936L 138.527 58.1936L 138.527 57.2956L 134.429 57.2956L 134.425 49.7956z"/>
<path style="stroke:none; fill-rule:evenodd; fill:#000000" d="M 56.7263 62.6706L 56.7263 68.6936L 57.7263 68.6936L 57.7263 65.5606C 57.7263 64.6976 57.9373 64.1346 58.3863 63.7986C 58.6753 63.5806 58.9573 63.5136 59.6093 63.5026L 59.6093 62.5376C 59.4533 62.5176 59.3753 62.5056 59.2503 62.5056C 58.6403 62.5056 58.1753 62.8736 57.6293 63.7676L 57.6293 62.6776L 56.7263 62.6706z"/>
<path style="stroke:none; fill-rule:evenodd; fill:#000000" d="M 76.4253 120.643L 76.4253 125.694L 77.2223 125.694L 77.2223 123.042C 77.2223 122.311 77.3983 121.835 77.7733 121.549C 78.0153 121.366 78.2503 121.307 78.7893 121.296L 78.7893 120.526C 78.6563 120.51 78.5893 120.503 78.4843 120.503C 77.9723 120.503 77.5783 120.811 77.1213 121.561L 77.1213 120.647L 76.4253 120.643z"/>
<path style="stroke:none; fill-rule:evenodd; fill:#ffffff" d="M 48.2539 39.2246L 137.277 39.2246L 137.277 5.01364L 48.2539 5.01364L 48.2539 39.2246z"/>
<path style="stroke:#000000; stroke-width:0.95664899999999997; fill:none" d="M 48.2539 39.2246L 137.277 39.2246L 137.277 5.01364L 48.2539 5.01364L 48.2539 39.2246z"/>
<path style="stroke:#ff0000; stroke-dasharray:6,3; stroke-width:1.9133; fill:none" d="M 52.082 27.9706L 73.1253 27.9706"/>
<path style="stroke:none; fill-rule:evenodd; fill:#0000ff" d="M 84.7263 15.2956C 84.7263 14.3776 84.6603 13.8266 84.4883 13.3816C 84.1013 12.3966 83.1873 11.7986 82.0703 11.7986C 80.4063 11.7986 79.3323 13.0916 79.3323 15.0806C 79.3323 17.0686 80.3673 18.2956 82.0433 18.2956C 83.4063 18.2956 84.3513 17.5026 84.5933 16.1706L 83.6403 16.1706C 83.3793 16.9746 82.8473 17.3926 82.0863 17.3926C 81.4843 17.3926 80.9723 17.1156 80.6563 16.5996C 80.4293 16.2526 80.3513 15.9006 80.3393 15.2956L 84.7263 15.2956zM 80.3043 14.5296C 80.3823 13.4166 81.0623 12.6936 82.0233 12.6936C 82.9613 12.6936 83.6873 13.4706 83.6873 14.4596C 83.6873 14.4786 83.6873 14.5026 83.6753 14.5256L 80.3043 14.5296z"/>
<path style="stroke:none; fill-rule:evenodd; fill:#0000ff" d="M 88.5783 14.8926L 90.5973 11.9986L 89.5193 11.9986L 88.0743 14.1626L 86.6293 11.9986L 85.5393 11.9986L 87.5473 14.9396L 85.4253 17.9946L 86.5153 17.9946L 88.0393 15.6896L 89.5433 17.9946L 90.6563 17.9946L 88.5783 14.8926z"/>
<path style="stroke:none; fill-rule:evenodd; fill:#0000ff" d="M 96.4333 14.0026C 96.3903 13.4166 96.2653 13.0336 96.0353 12.6976C 95.6293 12.1346 94.9103 11.7986 94.0823 11.7986C 92.4803 11.7986 91.4333 13.0916 91.4333 15.1036C 91.4333 17.0566 92.4573 18.2956 94.0703 18.2956C 95.4923 18.2956 96.3903 17.4236 96.5043 15.9316L 95.5503 15.9316C 95.3943 16.9086 94.9063 17.3966 94.1013 17.3966C 93.0583 17.3966 92.4333 16.5336 92.4333 15.1076C 92.4333 13.5996 93.0433 12.7016 94.0783 12.7016C 94.8713 12.7016 95.3713 13.1706 95.4843 14.0056L 96.4333 14.0026z"/>
<path style="stroke:none; fill-rule:evenodd; fill:#0000ff" d="M 98.4253 11.9946L 97.4253 11.9946L 97.4253 17.9946L 98.4253 17.9946L 98.4253 11.9946zM 98.4253 9.59563L 97.4253 9.59563L 97.4253 10.8306L 98.4253 10.8306L 98.4253 9.59563z"/>
<path style="stroke:none; fill-rule:evenodd; fill:#0000ff" d="M 102.226 11.9946L 101.328 11.9946L 101.328 10.3266L 100.328 10.3266L 100.328 11.9946L 99.4293 11.9946L 99.4293 12.7916L 100.328 12.7916L 100.328 17.3386C 100.328 17.9436 100.73 18.2876 101.461 18.2876C 101.683 18.2876 101.91 18.2636 102.222 18.2056L 102.222 17.3696C 102.109 17.4596 101.972 17.4866 101.804 17.4866C 101.429 17.4866 101.324 17.3736 101.324 16.9436L 101.324 12.7916L 102.222 12.7916L 102.226 11.9946z"/>
<path style="stroke:none; fill-rule:evenodd; fill:#0000ff" d="M 108.566 17.4316C 108.461 17.4906 108.414 17.4906 108.355 17.4906C 108.015 17.4906 107.828 17.3186 107.828 17.0176L 107.828 13.4516C 107.828 12.3776 107.05 11.7956 105.578 11.7956C 104.711 11.7956 103.992 12.0486 103.589 12.4986C 103.316 12.8066 103.203 13.1546 103.179 13.7556L 104.125 13.7556C 104.203 13.0256 104.629 12.6936 105.511 12.6936C 106.355 12.6936 106.828 13.0136 106.828 13.5916L 106.828 13.8456C 106.828 14.2486 106.593 14.4206 105.851 14.5136C 104.527 14.6856 104.324 14.7326 103.965 14.8816C 103.281 15.1666 102.933 15.7096 102.933 16.4946C 102.933 17.5886 103.687 18.2796 104.898 18.2796C 105.652 18.2796 106.257 18.0056 106.933 17.3616C 107 17.9946 107.297 18.2796 107.914 18.2796C 108.105 18.2796 108.254 18.2556 108.562 18.1736L 108.566 17.4316zM 106.824 16.1346C 106.824 16.4636 106.734 16.6666 106.457 16.9396C 106.078 17.3026 105.621 17.4946 105.074 17.4946C 104.351 17.4946 103.925 17.1316 103.925 16.5026C 103.925 15.8536 104.336 15.5216 105.328 15.3696C 106.308 15.2286 106.507 15.1816 106.82 15.0296L 106.824 16.1346z"/>
<path style="stroke:none; fill-rule:evenodd; fill:#0000ff" d="M 111.726 11.9946L 110.828 11.9946L 110.828 10.3266L 109.828 10.3266L 109.828 11.9946L 108.929 11.9946L 108.929 12.7916L 109.828 12.7916L 109.828 17.3386C 109.828 17.9436 110.23 18.2876 110.961 18.2876C 111.183 18.2876 111.41 18.2636 111.722 18.2056L 111.722 17.3696C 111.609 17.4596 111.472 17.4866 111.304 17.4866C 110.929 17.4866 110.824 17.3736 110.824 16.9436L 110.824 12.7916L 111.722 12.7916L 111.726 11.9946z"/>
<path style="stroke:none; fill-rule:evenodd; fill:#0000ff" d="M 115.164 11.7956C 113.461 11.7956 112.429 13.0096 112.429 15.0456C 112.429 17.0806 113.449 18.2956 115.179 18.2956C 116.882 18.2956 117.929 17.0846 117.929 15.0956C 117.929 13.0056 116.922 11.8026 115.172 11.8026L 115.164 11.7956zM 115.175 12.6936C 116.269 12.6936 116.925 13.5806 116.925 15.0766C 116.925 16.4906 116.25 17.3886 115.175 17.3886C 114.093 17.3886 113.425 16.5026 113.425 15.0416C 113.425 13.5916 114.089 12.6936 115.175 12.6936z"/>
<path style="stroke:none; fill-rule:evenodd; fill:#0000ff" d="M 119.226 11.9666L 119.226 17.9906L 120.226 17.9906L 120.226 14.8576C 120.226 13.9946 120.437 13.4316 120.886 13.0956C 121.175 12.8776 121.457 12.8106 122.109 12.7986L 122.109 11.8346C 121.953 11.8146 121.875 11.8026 121.75 11.8026C 121.14 11.8026 120.675 12.1706 120.129 13.0646L 120.129 11.9746L 119.226 11.9666z"/>
<path style="stroke:none; fill-rule:evenodd; fill:#0000ff" d="M 126.679 11.9946L 125.015 16.6626L 123.48 11.9946L 122.461 11.9946L 124.492 18.0486L 124.129 19.0026C 123.98 19.4276 123.765 19.5886 123.363 19.5886C 123.226 19.5886 123.066 19.5526 122.859 19.4826L 122.859 20.3386C 123.05 20.4396 123.246 20.4866 123.5 20.4866C 123.808 20.4866 124.14 20.3846 124.394 20.2016C 124.691 19.9866 124.863 19.7326 125.047 19.2526L 127.718 11.9906L 126.679 11.9946z"/>
<path style="stroke:none; fill-rule:evenodd; fill:#ff0000" d="M 75.0433 27.9706C 75.0433 25.8616 73.3323 24.1466 71.2183 24.1466C 69.1093 24.1466 67.3943 25.8576 67.3943 27.9706C 67.3943 30.0806 69.1053 31.7956 71.2183 31.7956C 73.3283 31.7956 75.0433 30.0846 75.0433 27.9706"/>
<path style="stroke:#ff0000; stroke-width:1.9133; fill:none" d="M 75.0433 27.9706C 75.0433 25.8616 73.3323 24.1466 71.2183 24.1466C 69.1093 24.1466 67.3943 25.8576 67.3943 27.9706C 67.3943 30.0806 69.1053 31.7956 71.2183 31.7956C 73.3283 31.7956 75.0433 30.0846 75.0433 27.9706"/>
<path style="stroke:none; fill-rule:evenodd; fill:#ff0000" d="M 80.5273 25.3966L 79.5273 25.3966L 79.5273 31.3966L 80.5273 31.3966L 80.5273 25.3966zM 80.5273 22.9946L 79.5273 22.9946L 79.5273 24.2286L 80.5273 24.2286L 80.5273 22.9946z"/>
<path style="stroke:none; fill-rule:evenodd; fill:#ff0000" d="M 82.2263 25.3696L 82.2263 31.3926L 83.2263 31.3926L 83.2263 28.0456C 83.2263 26.8066 83.8513 25.9946 84.8163 25.9946C 85.5543 25.9946 86.0233 26.4556 86.0233 27.1856L 86.0233 31.3886L 87.0233 31.3886L 87.0233 26.8346C 87.0233 25.8346 86.2813 25.1896 85.1213 25.1896C 84.2303 25.1896 83.6563 25.5336 83.1293 26.3736L 83.1293 25.3616L 82.2263 25.3696z"/>
<path style="stroke:none; fill-rule:evenodd; fill:#ff0000" d="M 88.6253 22.9946L 88.6253 31.3926L 89.6253 31.3926L 89.6253 28.0456C 89.6253 26.8066 90.2503 25.9946 91.2153 25.9946C 91.5153 25.9946 91.8163 26.0956 92.0433 26.2716C 92.3083 26.4666 92.4223 26.7556 92.4223 27.1856L 92.4223 31.3886L 93.4223 31.3886L 93.4223 26.8346C 93.4223 25.8226 92.7033 25.1896 91.5393 25.1896C 90.6953 25.1896 90.1833 25.4556 89.6253 26.1976L 89.6253 22.9866L 88.6253 22.9946z"/>
<path style="stroke:none; fill-rule:evenodd; fill:#ff0000" d="M 95.9253 25.3966L 94.9253 25.3966L 94.9253 31.3966L 95.9253 31.3966L 95.9253 25.3966zM 95.9253 22.9946L 94.9253 22.9946L 94.9253 24.2286L 95.9253 24.2286L 95.9253 22.9946z"/>
<path style="stroke:none; fill-rule:evenodd; fill:#ff0000" d="M 97.3243 22.9946L 97.3243 31.3926L 98.2223 31.3926L 98.2223 30.6276C 98.6753 31.3496 99.2813 31.6936 100.117 31.6936C 101.691 31.6936 102.718 30.3886 102.718 28.3776C 102.718 26.4126 101.738 25.1976 100.168 25.1976C 99.3473 25.1976 98.7693 25.5096 98.3243 26.1936L 98.3243 22.9946L 97.3243 22.9946zM 99.9723 26.1036C 101.039 26.1036 101.726 27.0336 101.726 28.4666C 101.726 29.8306 101.015 30.7596 99.9723 30.7596C 98.9653 30.7596 98.2973 29.8416 98.2973 28.4316C 98.2973 27.0216 98.9613 26.1036 99.9723 26.1036z"/>
<path style="stroke:none; fill-rule:evenodd; fill:#ff0000" d="M 104.824 25.3966L 103.824 25.3966L 103.824 31.3966L 104.824 31.3966L 104.824 25.3966zM 104.824 22.9946L 103.824 22.9946L 103.824 24.2286L 104.824 24.2286L 104.824 22.9946z"/>
<path style="stroke:none; fill-rule:evenodd; fill:#ff0000" d="M 108.527 25.3966L 107.629 25.3966L 107.629 23.7286L 106.629 23.7286L 106.629 25.3966L 105.73 25.3966L 105.73 26.1936L 106.629 26.1936L 106.629 30.7406C 106.629 31.3456 107.031 31.6896 107.761 31.6896C 107.984 31.6896 108.211 31.6666 108.523 31.6076L 108.523 30.7716C 108.41 30.8616 108.273 30.8886 108.105 30.8886C 107.73 30.8886 107.625 30.7756 107.625 30.3456L 107.625 26.1936L 108.523 26.1936L 108.527 25.3966z"/>
<path style="stroke:none; fill-rule:evenodd; fill:#ff0000" d="M 111.965 25.1936C 110.261 25.1936 109.23 26.4086 109.23 28.4436C 109.23 30.4786 110.25 31.6936 111.98 31.6936C 113.683 31.6936 114.73 30.4826 114.73 28.4946C 114.73 26.4046 113.722 25.2016 111.972 25.2016L 111.965 25.1936zM 111.976 26.0956C 113.07 26.0956 113.726 26.9826 113.726 28.4786C 113.726 29.8926 113.05 30.7916 111.976 30.7916C 110.894 30.7916 110.226 29.9046 110.226 28.4436C 110.226 26.9946 110.89 26.0956 111.976 26.0956z"/>
<path style="stroke:none; fill-rule:evenodd; fill:#ff0000" d="M 116.027 25.3696L 116.027 31.3926L 117.027 31.3926L 117.027 28.2596C 117.027 27.3966 117.238 26.8346 117.687 26.4986C 117.976 26.2796 118.257 26.2136 118.91 26.2016L 118.91 25.2366C 118.754 25.2166 118.675 25.2056 118.55 25.2056C 117.941 25.2056 117.476 25.5726 116.929 26.4666L 116.929 25.3776L 116.027 25.3696z"/>
<path style="stroke:none; fill-rule:evenodd; fill:#ff0000" d="M 123.48 25.3966L 121.816 30.0646L 120.281 25.3966L 119.261 25.3966L 121.293 31.4516L 120.929 32.4046C 120.781 32.8306 120.566 32.9906 120.164 32.9906C 120.027 32.9906 119.867 32.9556 119.66 32.8846L 119.66 33.7406C 119.851 33.8416 120.047 33.8886 120.3 33.8886C 120.609 33.8886 120.941 33.7876 121.195 33.6036C 121.492 33.3886 121.664 33.1346 121.847 32.6546L 124.519 25.3926L 123.48 25.3966z"/>
<path style="stroke:#0000ff; stroke-width:1.9133; fill:none" d="M 52.082 14.5766L 73.1253 14.5766"/>
<path style="stroke:#0000ff; stroke-width:1.9133; fill:none" d="M 65.4763 12.6626L 73.1293 14.5726L 65.4763 16.4826"/>
</g>
</svg>