<?xml version="1.0" encoding="ISO-8859-1" standalone="yes"?>
<svg width="138.054" height="159.452">
  <defs> 
    <marker id="ArrowEnd" viewBox="0 0 10 10" refX="0" refY="5" 
     markerUnits="strokeWidth" 
     markerWidth="4" 
     markerHeight="3" 
     orient="auto"> 
        <path d="M 0 0 L 10 5 L 0 10 z" /> 
    </marker>
    <marker id="ArrowStart" viewBox="0 0 10 10" refX="10" refY="5" 
     markerUnits="strokeWidth" 
     markerWidth="4" 
     markerHeight="3" 
     orient="auto"> 
        <path d="M 10 0 L 0 5 L 10 10 z" /> 
    </marker> </defs>
<g>
<path style="stroke:#000000; stroke-width:1.59941; fill:none" d="M 18.4057 111.308L 129.671 111.308L 119.983 151.07L 8.38226 151.07L 18.4057 111.308z"/>
<path style="stroke:none; fill-rule:evenodd; fill:#000000" d="M 9.96036 157.675L 10.7573 157.675L 10.7573 151.879L 9.96036 151.879L 9.96036 157.675z"/>
<path style="stroke:none; fill-rule:evenodd; fill:#000000" d="M 11.8627 153.496L 11.8627 157.675L 12.5619 157.675L 12.5619 155.382C 12.5619 154.535 13.0073 153.98 13.6947 153.98C 14.2221 153.98 14.558 154.297 14.558 154.797L 14.558 157.675L 15.2573 157.675L 15.2573 154.519C 15.2573 153.828 14.7416 153.379 13.9408 153.379C 13.3237 153.379 12.9252 153.617 12.5619 154.199L 12.5619 153.5L 11.8627 153.496z"/>
<path style="stroke:none; fill-rule:evenodd; fill:#000000" d="M 16.1635 159.425L 16.8627 159.425L 16.8627 157.281C 17.2143 157.695 17.6088 157.879 18.1557 157.879C 19.2416 157.879 19.9565 157.007 19.9565 155.672C 19.9565 154.265 19.2573 153.382 18.1205 153.382C 17.5424 153.382 17.0776 153.636 16.7612 154.132L 16.7612 153.504L 16.1635 153.504L 16.1635 159.425zM 18.0385 153.976C 18.7768 153.976 19.2612 154.632 19.2612 155.648C 19.2612 156.613 18.7729 157.273 18.0385 157.273C 17.3315 157.273 16.8627 156.625 16.8627 155.625C 16.8627 154.625 17.3276 153.976 18.0385 153.976z"/>
<path style="stroke:none; fill-rule:evenodd; fill:#000000" d="M 24.1635 157.691L 24.1635 153.476L 23.4643 153.476L 23.4643 155.855C 23.4643 156.711 23.019 157.273 22.3276 157.273C 21.8041 157.273 21.4682 156.953 21.4682 156.449L 21.4682 153.476L 20.769 153.476L 20.769 156.726C 20.769 157.425 21.3002 157.875 22.1323 157.875C 22.7612 157.875 23.1635 157.66 23.5619 157.105L 23.5619 157.691L 24.1635 157.691z"/>
<path style="stroke:none; fill-rule:evenodd; fill:#000000" d="M 26.7612 153.476L 26.1635 153.476L 26.1635 152.32L 25.4643 152.32L 25.4643 153.476L 24.8666 153.476L 24.8666 153.976L 25.4643 153.976L 25.4643 157.199C 25.4643 157.629 25.7377 157.875 26.2377 157.875C 26.3901 157.875 26.5424 157.859 26.7573 157.82L 26.7573 157.246C 26.683 157.269 26.5932 157.277 26.4799 157.277C 26.2299 157.277 26.1596 157.199 26.1596 156.898L 26.1596 153.98L 26.7573 153.98L 26.7612 153.476z"/>
<path style="stroke:#000000; stroke-width:1.59941; fill:none" d="M 18.4057 111.308L 129.671 111.308L 119.983 151.07L 8.38226 151.07L 18.4057 111.308z"/>
<path style="stroke:#000000; stroke-width:1.59941; fill:none" d="M 45.4721 151.07L 55.4955 111.308"/>
<path style="stroke:#000000; stroke-width:1.59941; fill:none" d="M 82.894 151.07L 92.5815 111.308"/>
<path style="stroke:none; fill-rule:evenodd; fill:#000000" d="M 22.9174 36.0776L 24.1596 32.4056L 24.1596 36.0776L 24.6596 36.0776L 24.6596 31.6796L 23.8901 31.6796L 22.6244 35.5116L 21.3354 31.6796L 20.5658 31.6796L 20.5658 36.0776L 21.0658 36.0776L 21.0658 32.4056L 22.3237 36.0776L 22.9174 36.0776z"/>
<path style="stroke:none; fill-rule:evenodd; fill:#000000" d="M 26.7065 32.7766C 25.808 32.7766 25.2651 33.4096 25.2651 34.4766C 25.2651 35.5386 25.8002 36.1756 26.7143 36.1756C 27.6127 36.1756 28.1635 35.5426 28.1635 34.4996C 28.1635 33.4056 27.6323 32.7766 26.7104 32.7766L 26.7065 32.7766zM 26.7104 33.2766C 27.3041 33.2766 27.6596 33.7266 27.6596 34.4916C 27.6596 35.2146 27.2924 35.6716 26.7104 35.6716C 26.1244 35.6716 25.7612 35.2226 25.7612 34.4726C 25.7612 33.7336 26.1205 33.2726 26.7104 33.2726L 26.7104 33.2766z"/>
<path style="stroke:none; fill-rule:evenodd; fill:#000000" d="M 28.8627 32.8666L 28.8627 36.0736L 29.3627 36.0736L 29.3627 34.3396C 29.3627 33.6986 29.6987 33.2766 30.2143 33.2766C 30.6088 33.2766 30.8588 33.5156 30.8588 33.8946L 30.8588 36.0736L 31.3588 36.0736L 31.3588 33.6516C 31.3588 33.1206 30.9799 32.7766 30.3823 32.7766C 29.9252 32.7766 29.6323 32.9606 29.3627 33.4056L 29.3627 32.8706L 28.8627 32.8666z"/>
<path style="stroke:none; fill-rule:evenodd; fill:#000000" d="M 32.6635 32.8746L 32.1635 32.8746L 32.1635 36.0736L 32.6635 36.0736L 32.6635 32.8746zM 32.6635 31.6756L 32.1635 31.6756L 32.1635 32.3196L 32.6635 32.3196L 32.6635 31.6756z"/>
<path style="stroke:none; fill-rule:evenodd; fill:#000000" d="M 34.5619 32.8746L 34.0619 32.8746L 34.0619 32.0586L 33.5619 32.0586L 33.5619 32.8746L 33.1635 32.8746L 33.1635 33.2726L 33.5619 33.2726L 33.5619 35.6676C 33.5619 35.9876 33.7729 36.1676 34.1596 36.1676C 34.2768 36.1676 34.394 36.1596 34.558 36.1326L 34.558 35.7496C 34.4955 35.6946 34.4213 35.6756 34.3276 35.6756C 34.1205 35.6756 34.0619 35.6166 34.0619 35.3976L 34.0619 33.2766L 34.5619 33.2766L 34.5619 32.8746z"/>
<path style="stroke:none; fill-rule:evenodd; fill:#000000" d="M 36.4057 32.7766C 35.5073 32.7766 34.9643 33.4096 34.9643 34.4766C 34.9643 35.5386 35.4994 36.1756 36.4135 36.1756C 37.3119 36.1756 37.8627 35.5426 37.8627 34.4996C 37.8627 33.4056 37.3315 32.7766 36.4096 32.7766L 36.4057 32.7766zM 36.4135 33.2766C 37.0073 33.2766 37.3627 33.7266 37.3627 34.4916C 37.3627 35.2146 36.9955 35.6716 36.4135 35.6716C 35.8276 35.6716 35.4643 35.2226 35.4643 34.4726C 35.4643 33.7336 35.8237 33.2726 36.4135 33.2726L 36.4135 33.2766z"/>
<path style="stroke:none; fill-rule:evenodd; fill:#000000" d="M 38.5619 32.8666L 38.5619 36.0736L 39.0619 36.0736L 39.0619 34.3866C 39.0619 33.9216 39.1752 33.6166 39.4213 33.4366C 39.5776 33.3196 39.7338 33.2846 40.0893 33.2766L 40.0893 32.7966C 40.0112 32.7886 39.9682 32.7806 39.9018 32.7806C 39.5854 32.7806 39.3432 32.9766 39.0619 33.4526L 39.0619 32.8746L 38.5619 32.8666z"/>
<path style="stroke:none; fill-rule:evenodd; fill:#000000" d="M 60.7612 32.9796C 60.7573 32.0936 60.1791 31.5816 59.1908 31.5816C 58.2494 31.5816 57.6674 32.0736 57.6674 32.8666C 57.6674 33.3976 57.9408 33.7336 58.5073 33.8866L 59.5737 34.1716C 60.1127 34.3126 60.3627 34.5346 60.3627 34.8786C 60.3627 35.1086 60.2377 35.3516 60.0502 35.4836C 59.8744 35.6016 59.5971 35.6676 59.2377 35.6676C 58.7612 35.6676 58.433 35.5626 58.2182 35.3196C 58.058 35.1366 57.9838 34.9366 57.9721 34.6756L 57.4721 34.6756C 57.476 35.0656 57.5541 35.3236 57.726 35.5586C 58.0229 35.9566 58.519 36.1676 59.1791 36.1676C 59.6947 36.1676 60.1166 36.0506 60.394 35.8356C 60.683 35.6046 60.8666 35.2186 60.8666 34.8396C 60.8666 34.3046 60.5385 33.9096 59.9565 33.7456L 58.8783 33.4526C 58.3627 33.3126 58.1752 33.1446 58.1752 32.8086C 58.1752 32.3666 58.5697 32.0736 59.1635 32.0736C 59.8666 32.0736 60.2651 32.3946 60.269 32.9726L 60.7612 32.9796z"/>
<path style="stroke:none; fill-rule:evenodd; fill:#000000" d="M 61.4604 37.3866L 61.9604 37.3866L 61.9604 35.6756C 62.2221 36.0196 62.5151 36.1756 62.9213 36.1756C 63.726 36.1756 64.2573 35.5196 64.2573 34.5076C 64.2573 33.4446 63.7533 32.7806 62.9408 32.7806C 62.5268 32.7806 62.1908 32.9726 61.9643 33.3516L 61.9643 32.8706L 61.4643 32.8706L 61.4604 37.3866zM 62.8432 33.2766C 63.3979 33.2766 63.7612 33.7536 63.7612 34.4916C 63.7612 35.1906 63.394 35.6716 62.8432 35.6716C 62.3158 35.6716 61.9643 35.1986 61.9643 34.4726C 61.9643 33.7456 62.3119 33.2726 62.8432 33.2726L 62.8432 33.2766z"/>
<path style="stroke:none; fill-rule:evenodd; fill:#000000" d="M 67.6635 34.6756C 67.6635 34.1796 67.6283 33.8786 67.5385 33.6366C 67.3393 33.1016 66.8666 32.7766 66.2846 32.7766C 65.4213 32.7766 64.8666 33.4526 64.8666 34.4916C 64.8666 35.5306 65.4018 36.1716 66.2651 36.1716C 66.9682 36.1716 67.4565 35.7766 67.5815 35.1166L 67.0854 35.1166C 66.9526 35.4796 66.6752 35.6716 66.2768 35.6716C 65.9643 35.6716 65.6987 35.5386 65.5346 35.2966C 65.4174 35.1326 65.3783 34.9646 65.3705 34.6756L 67.6635 34.6756zM 65.3393 34.2616C 65.3783 33.6796 65.7338 33.3006 66.2377 33.3006C 66.7299 33.3006 67.1088 33.7066 67.1088 34.2266C 67.1088 34.2376 67.1088 34.2496 67.1049 34.2616L 65.3393 34.2616z"/>
<path style="stroke:none; fill-rule:evenodd; fill:#000000" d="M 71.0815 35.7806C 71.0229 35.7766 70.9955 35.7766 70.9643 35.7766C 70.7729 35.7766 70.6674 35.6866 70.6674 35.5266L 70.6674 33.6516C 70.6674 33.0856 70.269 32.7806 69.5033 32.7806C 69.0541 32.7806 68.683 32.9176 68.476 33.1676C 68.3354 33.3356 68.2768 33.5266 68.2651 33.8586L 68.7573 33.8586C 68.7963 33.4606 69.019 33.2806 69.4799 33.2806C 69.9213 33.2806 70.1674 33.4486 70.1674 33.7456L 70.1674 33.8746C 70.1674 34.0816 70.0502 34.1716 69.6674 34.2186C 68.9877 34.3046 68.8862 34.3276 68.7026 34.4056C 68.351 34.5546 68.1752 34.8356 68.1752 35.2416C 68.1752 35.8086 68.5658 36.1676 69.1908 36.1676C 69.5815 36.1676 69.894 36.0426 70.2416 35.7456C 70.2768 36.0346 70.4291 36.1676 70.7494 36.1676C 70.8471 36.1676 70.9252 36.1596 71.0854 36.1206L 71.0815 35.7806zM 70.1635 35.0386C 70.1635 35.1906 70.1205 35.2846 69.976 35.4136C 69.7807 35.5816 69.5463 35.6716 69.2612 35.6716C 68.8862 35.6716 68.6674 35.4996 68.6674 35.2066C 68.6674 34.9016 68.8783 34.7496 69.394 34.6756C 69.8979 34.6126 70.0033 34.5896 70.1635 34.5156L 70.1635 35.0386z"/>
<path style="stroke:none; fill-rule:evenodd; fill:#000000" d="M 71.9604 31.6756L 71.4604 31.6756L 71.4604 36.0736L 71.9604 36.0736L 71.9604 34.8476L 72.4565 34.3666L 73.5424 36.0736L 74.1752 36.0736L 72.8627 33.9796L 73.9799 32.8786L 73.3237 32.8786L 71.9604 34.2616L 71.9604 31.6756z"/>
<path style="stroke:none; fill-rule:evenodd; fill:#000000" d="M 77.3627 34.6756C 77.3627 34.1796 77.3276 33.8786 77.2377 33.6366C 77.0385 33.1016 76.5658 32.7766 75.9838 32.7766C 75.1205 32.7766 74.5658 33.4526 74.5658 34.4916C 74.5658 35.5306 75.101 36.1716 75.9643 36.1716C 76.6674 36.1716 77.1557 35.7766 77.2807 35.1166L 76.7846 35.1166C 76.6518 35.4796 76.3744 35.6716 75.976 35.6716C 75.6635 35.6716 75.3979 35.5386 75.2338 35.2966C 75.1166 35.1326 75.0776 34.9646 75.0697 34.6756L 77.3627 34.6756zM 75.0385 34.2616C 75.0776 33.6796 75.433 33.3006 75.9369 33.3006C 76.4291 33.3006 76.808 33.7066 76.808 34.2266C 76.808 34.2376 76.808 34.2496 76.8041 34.2616L 75.0385 34.2616z"/>
<path style="stroke:none; fill-rule:evenodd; fill:#000000" d="M 77.9604 32.8666L 77.9604 36.0736L 78.4604 36.0736L 78.4604 34.3866C 78.4604 33.9216 78.5737 33.6166 78.8197 33.4366C 78.976 33.3196 79.1323 33.2846 79.4877 33.2766L 79.4877 32.7966C 79.4096 32.7886 79.3666 32.7806 79.3002 32.7806C 78.9838 32.7806 78.7416 32.9766 78.4604 33.4526L 78.4604 32.8746L 77.9604 32.8666z"/>
<path style="stroke:none; fill-rule:evenodd; fill:#000000" d="M 82.1947 33.8046C 82.1908 33.1476 81.7846 32.7806 81.0619 32.7806C 80.3354 32.7806 79.8627 33.1556 79.8627 33.7336C 79.8627 34.2226 80.1049 34.4566 80.8315 34.6366L 81.2846 34.7456C 81.6205 34.8276 81.7573 34.9526 81.7573 35.1796C 81.7573 35.4726 81.4721 35.6676 81.0385 35.6676C 80.7729 35.6676 80.5502 35.6016 80.4252 35.4836C 80.351 35.4056 80.3158 35.3276 80.2846 35.1326L 79.7651 35.1326C 79.7846 35.8316 80.1869 36.1676 80.9916 36.1676C 81.7651 36.1676 82.2573 35.7806 82.2573 35.1756C 82.2573 34.7106 82.0033 34.4526 81.394 34.3046L 80.9291 34.1906C 80.5346 34.0976 80.3627 33.9646 80.3627 33.7456C 80.3627 33.4606 80.6205 33.2766 81.0307 33.2766C 81.433 33.2766 81.6479 33.4566 81.6635 33.8006L 82.1947 33.8046z"/>
<path style="stroke:none; fill-rule:evenodd; fill:#000000" d="M 95.5615 34.5426L 96.2845 33.8276L 97.8475 36.0776L 98.5155 36.0776L 96.6905 33.4726L 98.4955 31.6796L 97.7685 31.6796L 95.5615 33.9136L 95.5615 31.6796L 95.0615 31.6796L 95.0615 36.0776L 95.5615 36.0776L 95.5615 34.5426z"/>
<path style="stroke:none; fill-rule:evenodd; fill:#000000" d="M 101.663 34.6756C 101.663 34.1796 101.628 33.8786 101.538 33.6366C 101.339 33.1016 100.866 32.7766 100.284 32.7766C 99.4215 32.7766 98.8665 33.4526 98.8665 34.4916C 98.8665 35.5306 99.4015 36.1716 100.265 36.1716C 100.968 36.1716 101.456 35.7766 101.581 35.1166L 101.085 35.1166C 100.952 35.4796 100.675 35.6716 100.276 35.6716C 99.9645 35.6716 99.6985 35.5386 99.5345 35.2966C 99.4175 35.1326 99.3785 34.9646 99.3705 34.6756L 101.663 34.6756zM 99.3395 34.2616C 99.3785 33.6796 99.7335 33.3006 100.237 33.3006C 100.729 33.3006 101.108 33.7066 101.108 34.2266C 101.108 34.2376 101.108 34.2496 101.104 34.2616L 99.3395 34.2616z"/>
<path style="stroke:none; fill-rule:evenodd; fill:#000000" d="M 104.296 32.8746L 103.425 35.3746L 102.62 32.8746L 102.089 32.8746L 103.151 36.0626L 102.96 36.5626C 102.882 36.7846 102.768 36.8706 102.558 36.8706C 102.487 36.8706 102.405 36.8666 102.296 36.8546L 102.296 37.2926C 102.397 37.3436 102.499 37.3666 102.632 37.3666C 102.792 37.3666 102.968 37.3126 103.101 37.2186C 103.253 37.1046 103.343 36.9726 103.44 36.7146L 104.839 32.8706L 104.296 32.8746z"/>
<path style="stroke:none; fill-rule:evenodd; fill:#000000" d="M 105.261 31.6756L 105.261 36.0736L 105.761 36.0736L 105.761 35.6716C 105.991 36.0116 106.304 36.1716 106.729 36.1716C 107.534 36.1716 108.058 35.4876 108.058 34.4366C 108.058 33.4096 107.546 32.7766 106.725 32.7766C 106.3 32.7766 105.995 32.9566 105.761 33.3516L 105.761 31.6796L 105.261 31.6756zM 106.663 33.3046C 107.222 33.3046 107.581 33.7886 107.581 34.5426C 107.581 35.2576 107.21 35.7416 106.663 35.7416C 106.136 35.7416 105.788 35.2616 105.788 34.5226C 105.788 33.7846 106.136 33.3046 106.663 33.3046z"/>
<path style="stroke:none; fill-rule:evenodd; fill:#000000" d="M 109.905 32.7766C 109.007 32.7766 108.464 33.4096 108.464 34.4766C 108.464 35.5386 108.999 36.1756 109.913 36.1756C 110.811 36.1756 111.362 35.5426 111.362 34.4996C 111.362 33.4056 110.831 32.7766 109.909 32.7766L 109.905 32.7766zM 109.913 33.2766C 110.507 33.2766 110.862 33.7266 110.862 34.4916C 110.862 35.2146 110.495 35.6716 109.913 35.6716C 109.327 35.6716 108.964 35.2226 108.964 34.4726C 108.964 33.7336 109.323 33.2726 109.913 33.2726L 109.913 33.2766z"/>
<path style="stroke:none; fill-rule:evenodd; fill:#000000" d="M 114.878 35.7806C 114.819 35.7766 114.792 35.7766 114.761 35.7766C 114.569 35.7766 114.464 35.6866 114.464 35.5266L 114.464 33.6516C 114.464 33.0856 114.065 32.7806 113.3 32.7806C 112.851 32.7806 112.479 32.9176 112.272 33.1676C 112.132 33.3356 112.073 33.5266 112.061 33.8586L 112.554 33.8586C 112.593 33.4606 112.815 33.2806 113.276 33.2806C 113.718 33.2806 113.964 33.4486 113.964 33.7456L 113.964 33.8746C 113.964 34.0816 113.847 34.1716 113.464 34.2186C 112.784 34.3046 112.683 34.3276 112.499 34.4056C 112.147 34.5546 111.972 34.8356 111.972 35.2416C 111.972 35.8086 112.362 36.1676 112.987 36.1676C 113.378 36.1676 113.69 36.0426 114.038 35.7456C 114.073 36.0346 114.225 36.1676 114.546 36.1676C 114.643 36.1676 114.722 36.1596 114.882 36.1206L 114.878 35.7806zM 113.96 35.0386C 113.96 35.1906 113.917 35.2846 113.772 35.4136C 113.577 35.5816 113.343 35.6716 113.058 35.6716C 112.683 35.6716 112.464 35.4996 112.464 35.2066C 112.464 34.9016 112.675 34.7496 113.19 34.6756C 113.694 34.6126 113.8 34.5896 113.96 34.5156L 113.96 35.0386z"/>
<path style="stroke:none; fill-rule:evenodd; fill:#000000" d="M 115.362 32.8666L 115.362 36.0736L 115.862 36.0736L 115.862 34.3866C 115.862 33.9216 115.975 33.6166 116.222 33.4366C 116.378 33.3196 116.534 33.2846 116.89 33.2766L 116.89 32.7966C 116.811 32.7886 116.768 32.7806 116.702 32.7806C 116.386 32.7806 116.143 32.9766 115.862 33.4526L 115.862 32.8746L 115.362 32.8666z"/>
<path style="stroke:none; fill-rule:evenodd; fill:#000000" d="M 119.96 31.6756L 119.46 31.6756L 119.46 33.3196C 119.253 32.9646 118.921 32.7766 118.503 32.7766C 117.694 32.7766 117.163 33.4336 117.163 34.4446C 117.163 35.5156 117.69 36.1716 118.546 36.1716C 118.983 36.1716 119.284 36.0226 119.558 35.6596L 119.558 36.0736L 119.956 36.0736L 119.96 31.6756zM 118.577 33.2766C 119.116 33.2766 119.46 33.7496 119.46 34.4876C 119.46 35.2026 119.112 35.6756 118.581 35.6756C 118.03 35.6756 117.663 35.1986 117.663 34.4766C 117.663 33.7576 118.026 33.2766 118.577 33.2766z"/>
<path style="stroke:#000000; stroke-width:1.59941; fill:none" d="M 18.4057 27.4366L 129.671 27.4366L 119.983 67.1986L 8.38226 67.1986L 18.4057 27.4366z"/>
<path style="stroke:#000000; stroke-width:1.59941; fill:none" d="M 18.4057 27.4366L 129.671 27.4366L 119.983 67.1986L 8.38226 67.1986L 18.4057 27.4366z"/>
<path style="stroke:#000000; stroke-width:1.59941; fill:none" d="M 45.4721 67.1986L 55.4955 27.4366"/>
<path style="stroke:#000000; stroke-width:1.59941; fill:none" d="M 82.894 67.1986L 92.5815 27.4366"/>
<path style="stroke:none; fill-rule:evenodd; fill:#000000" d="M 10.2612 72.7766L 12.1088 72.7766C 12.5697 72.7766 12.933 72.6446 13.2455 72.3706C 13.5971 72.0586 13.7533 71.6866 13.7533 71.1636C 13.7533 70.0896 13.1088 69.4836 11.9565 69.4836L 9.55406 69.4836L 9.55406 75.2806L 10.2533 75.2806L 10.2612 72.7766zM 10.2612 72.1756L 10.2612 70.0776L 11.8197 70.0776C 12.5346 70.0776 12.9604 70.4686 12.9604 71.1246C 12.9604 71.7766 12.5346 72.1716 11.8197 72.1716L 10.2612 72.1756z"/>
<path style="stroke:none; fill-rule:evenodd; fill:#000000" d="M 15.4604 72.5776L 18.3158 72.5776L 18.3158 71.9796L 15.4604 71.9796L 15.4604 70.0816L 18.6596 70.0816L 18.6596 69.4836L 14.7612 69.4836L 14.7612 75.2806L 15.4604 75.2806L 15.4604 72.5776z"/>
<path style="stroke:none; fill-rule:evenodd; fill:#000000" d="M 24.269 71.2416C 24.0385 69.9876 23.3041 69.3786 22.0229 69.3786C 21.2416 69.3786 20.6088 69.6246 20.1791 70.1046C 19.6557 70.6796 19.3666 71.5076 19.3666 72.4526C 19.3666 73.4096 19.6596 74.2296 20.2104 74.7966C 20.6557 75.2576 21.2299 75.4726 21.9916 75.4726C 23.4135 75.4726 24.2104 74.6986 24.3901 73.1406L 23.6166 73.1406C 23.5541 73.5586 23.4721 73.8436 23.351 74.0856C 23.1088 74.5856 22.6088 74.8706 21.9799 74.8706C 20.8119 74.8706 20.0697 73.9256 20.0697 72.4366C 20.0697 70.9136 20.7807 69.9726 21.9174 69.9726C 22.394 69.9726 22.8354 70.1166 23.0776 70.3436C 23.2924 70.5426 23.4135 70.7966 23.5033 71.2336L 24.269 71.2416z"/>
<path style="stroke:#000000; stroke-width:1.59941; fill:none" d="M 73.4487 109.992L 62.9252 67.8866"/>
<path style="stroke:#000000; stroke-width:1.59941; fill:none" d="M 62.9213 74.4796L 62.9213 67.8866L 66.0229 73.7026"/>
<path style="stroke:#000000; stroke-width:1.59941; fill:none" d="M 111.577 109.664L 101.054 67.5586"/>
<path style="stroke:#000000; stroke-width:1.59941; fill:none" d="M 101.05 74.1516L 101.05 67.5586L 104.151 73.3746"/>
<path style="stroke:#000000; stroke-width:1.59941; fill:none" d="M 38.6987 109.816L 28.1752 67.7106"/>
<path style="stroke:#000000; stroke-width:1.59941; fill:none" d="M 28.1713 74.3006L 28.1713 67.7066L 31.2729 73.5226"/>
<path style="stroke:#000000; stroke-width:1.59941; fill:none" d="M 26.5932 26.3786C 26.5932 26.3786 26.5932 26.3786 27.3901 23.5116C 28.1869 20.6446 29.7807 14.9016 32.4916 11.5506C 35.2026 8.20264 39.0268 7.24564 41.8979 9.95663C 44.7651 12.6676 46.6791 19.0466 47.6362 22.2336C 48.5893 25.4216 48.5893 25.4216 48.5893 25.4216"/>
<path style="stroke:#000000; stroke-width:1.59941; fill:none" d="M 29.8432 20.6446L 26.5932 26.3786L 26.7612 19.7886"/>
<path style="stroke:#000000; stroke-width:1.59941; fill:none" d="M 48.2963 18.8356L 48.601 25.4216L 45.2338 19.7536"/>
<path style="stroke:#000000; stroke-width:1.59941; fill:none" d="M 62.808 26.3786C 62.808 26.3786 62.808 26.3786 63.6049 23.5116C 64.4018 20.6446 65.9955 14.9016 68.7065 11.5506C 71.4174 8.20264 75.2416 7.24564 78.1127 9.95663C 80.9799 12.6676 82.894 19.0466 83.851 22.2336C 84.8041 25.4216 84.8041 25.4216 84.8041 25.4216"/>
<path style="stroke:#000000; stroke-width:1.59941; fill:none" d="M 66.058 20.6446L 62.808 26.3786L 62.976 19.7886"/>
<path style="stroke:#000000; stroke-width:1.59941; fill:none" d="M 84.5112 18.8356L 84.8158 25.4216L 81.4487 19.7536"/>
<path style="stroke:#000000; stroke-width:1.59941; fill:none" d="M 100.456 26.3786C 100.456 26.3786 100.456 26.3786 101.253 23.5116C 102.05 20.6446 103.643 14.9016 106.354 11.5506C 109.065 8.20264 112.89 7.24564 115.761 9.95663C 118.628 12.6676 120.542 19.0466 121.499 22.2336C 122.452 25.4216 122.452 25.4216 122.452 25.4216"/>
<path style="stroke:#000000; stroke-width:1.59941; fill:none" d="M 103.71 20.6446L 100.46 26.3786L 100.628 19.7886"/>
<path style="stroke:#000000; stroke-width:1.59941; fill:none" d="M 122.159 18.8356L 122.464 25.4216L 119.097 19.7536"/>
</g>
</svg>