<?xml version="1.0" encoding="ISO-8859-1" standalone="yes"?>
<svg width="146.846" height="292.763">
  <defs> 
    <marker id="ArrowEnd" viewBox="0 0 10 10" refX="0" refY="5" 
     markerUnits="strokeWidth" 
     markerWidth="4" 
     markerHeight="3" 
     orient="auto"> 
        <path d="M 0 0 L 10 5 L 0 10 z" /> 
    </marker>
    <marker id="ArrowStart" viewBox="0 0 10 10" refX="10" refY="5" 
     markerUnits="strokeWidth" 
     markerWidth="4" 
     markerHeight="3" 
     orient="auto"> 
        <path d="M 10 0 L 0 5 L 10 10 z" /> 
    </marker> </defs>
<g>
<path style="stroke:none; fill-rule:evenodd; fill:#9f9f9f" d="M 25.8037 232.507L 60.2529 232.507L 60.2529 268.87L 48.7729 268.87L 48.7729 259.303L 37.2919 259.303L 37.2919 268.87L 25.8115 268.87"/>
<path style="stroke:#9f9f9f; stroke-width:1.9139600000000001; fill:none" d="M 25.8037 232.507L 60.2529 232.507L 60.2529 268.87L 48.7729 268.87L 48.7729 259.303L 37.2919 259.303L 37.2919 268.87L 25.8115 268.87L 25.8037 232.507z"/>
<path style="stroke:none; fill-rule:evenodd; fill:#9f9f9f" d="M 25.8037 167.433L 60.2529 167.433L 60.2529 203.796L 48.7729 203.796L 48.7729 194.229L 37.2919 194.229L 37.2919 203.796L 25.8115 203.796"/>
<path style="stroke:#9f9f9f; stroke-width:1.9139600000000001; fill:none" d="M 25.8037 167.433L 60.2529 167.433L 60.2529 203.796L 48.7729 203.796L 48.7729 194.229L 37.2919 194.229L 37.2919 203.796L 25.8115 203.796L 25.8037 167.433z"/>
<path style="stroke:none; fill-rule:evenodd; fill:#9f9f9f" d="M 85.1399 98.5295L 119.589 98.5295L 119.589 134.894L 108.108 134.894L 108.108 125.327L 96.6279 125.327L 96.6279 134.894L 85.1469 134.894"/>
<path style="stroke:#9f9f9f; stroke-width:1.9139600000000001; fill:none" d="M 85.1399 98.5295L 119.589 98.5295L 119.589 134.894L 108.108 134.894L 108.108 125.327L 96.6279 125.327L 96.6279 134.894L 85.1469 134.894L 85.1399 98.5295z"/>
<path style="stroke:none; fill-rule:evenodd; fill:#9f9f9f" d="M 62.1709 134.898L 41.1201 96.6195L 21.9833 134.898"/>
<path style="stroke:#9f9f9f; stroke-width:1.9139600000000001; fill:none" d="M 62.1709 134.898L 41.1201 96.6195L 21.9833 134.898L 62.1709 134.898z"/>
<path style="stroke:#000000; stroke-dasharray:6,3; stroke-width:1.9139600000000001; fill:none" d="M 16.2333 140.64L 69.8229 140.64L 69.8229 90.8775L 16.2333 90.8775L 16.2333 140.64z"/>
<path style="stroke:none; fill-rule:evenodd; fill:#9f9f9f" d="M 121.503 201.885L 100.452 163.609L 81.3149 201.885"/>
<path style="stroke:#9f9f9f; stroke-width:1.9139600000000001; fill:none" d="M 121.503 201.885L 100.452 163.609L 81.3149 201.885L 121.503 201.885z"/>
<path style="stroke:#000000; stroke-dasharray:6,3; stroke-width:1.9139600000000001; fill:none" d="M 73.6549 207.628L 127.245 207.628L 127.245 157.866L 73.6549 157.866L 73.6549 207.628z"/>
<path style="stroke:none; fill-rule:evenodd; fill:#9f9f9f" d="M 123.417 270.788L 102.366 232.51L 83.2299 270.788"/>
<path style="stroke:#9f9f9f; stroke-width:1.9139600000000001; fill:none" d="M 123.417 270.788L 102.366 232.51L 83.2299 270.788L 123.417 270.788z"/>
<path style="stroke:#000000; stroke-dasharray:6,3; stroke-width:1.9139600000000001; fill:none" d="M 75.5689 276.53L 129.159 276.53L 129.159 226.768L 75.5689 226.768L 75.5689 276.53z"/>
<path style="stroke:#000000; stroke-width:3.8279200000000002; fill:none" d="M 21.9794 136.812L 64.0849 94.7055"/>
<path style="stroke:#000000; stroke-width:3.8279200000000002; fill:none" d="M 64.0849 136.812L 21.9794 94.7055"/>
<path style="stroke:#000000; stroke-width:3.8279200000000002; fill:none" d="M 79.3969 113.843L 125.331 113.843"/>
<path style="stroke:none; fill-rule:evenodd; fill:#9f9f9f" d="M 85.1399 23.8855L 119.589 23.8855L 119.589 60.2485L 108.108 60.2485L 108.108 50.6825L 96.6279 50.6825L 96.6279 60.2485L 85.1469 60.2485"/>
<path style="stroke:#9f9f9f; stroke-width:1.9139600000000001; fill:none" d="M 85.1399 23.8855L 119.589 23.8855L 119.589 60.2485L 108.108 60.2485L 108.108 50.6825L 96.6279 50.6825L 96.6279 60.2485L 85.1469 60.2485L 85.1399 23.8855z"/>
<path style="stroke:none; fill-rule:evenodd; fill:#9f9f9f" d="M 64.0849 60.2525L 43.0341 21.9755L 23.8974 60.2525"/>
<path style="stroke:#9f9f9f; stroke-width:1.9139600000000001; fill:none" d="M 64.0849 60.2525L 43.0341 21.9755L 23.8974 60.2525L 64.0849 60.2525z"/>
<path style="stroke:#000000; stroke-dasharray:6,3; stroke-width:1.9139600000000001; fill:none" d="M 16.2333 65.9945L 69.8229 65.9945L 69.8229 16.2335L 16.2333 16.2335L 16.2333 65.9945z"/>
<path style="stroke:#000000; stroke-width:3.8279200000000002; fill:none" d="M 81.3119 62.1665L 123.417 20.0615"/>
<path style="stroke:#000000; stroke-width:3.8279200000000002; fill:none" d="M 123.417 62.1665L 81.3119 20.0615"/>
<path style="stroke:#000000; stroke-width:3.8279200000000002; fill:none" d="M 21.9794 43.0265L 67.9129 43.0265"/>
<path style="stroke:#000000; stroke-width:3.8279200000000002; fill:none" d="M 21.9794 205.714L 64.0849 163.609"/>
<path style="stroke:#000000; stroke-width:3.8279200000000002; fill:none" d="M 64.0849 205.714L 21.9794 163.609"/>
<path style="stroke:#000000; stroke-width:3.8279200000000002; fill:none" d="M 77.4829 182.745L 123.417 182.745"/>
<path style="stroke:#000000; stroke-width:3.8279200000000002; fill:none" d="M 83.2259 272.702L 125.331 230.596"/>
<path style="stroke:#000000; stroke-width:3.8279200000000002; fill:none" d="M 125.331 272.702L 83.2259 230.596"/>
<path style="stroke:#000000; stroke-width:3.8279200000000002; fill:none" d="M 20.0615 245.905L 65.9949 245.905"/>
<path style="stroke:#000000; stroke-dasharray:6,3; stroke-width:1.9139600000000001; fill:none" d="M 10.4951 77.4755L 136.815 77.4755"/>
<path style="stroke:#000000; stroke-dasharray:6,3; stroke-width:1.9139600000000001; fill:none" d="M 10.4951 150.206L 136.815 150.206"/>
<path style="stroke:#000000; stroke-dasharray:6,3; stroke-width:1.9139600000000001; fill:none" d="M 10.4951 217.194L 136.815 217.194"/>
</g>
</svg>