<?xml version="1.0" encoding="UTF-8" standalone="no"?>
<svg
   xmlns:dc="http://purl.org/dc/elements/1.1/"
   xmlns:cc="http://creativecommons.org/ns#"
   xmlns:rdf="http://www.w3.org/1999/02/22-rdf-syntax-ns#"
   xmlns:svg="http://www.w3.org/2000/svg"
   xmlns="http://www.w3.org/2000/svg"
   xmlns:sodipodi="http://sodipodi.sourceforge.net/DTD/sodipodi-0.dtd"
   xmlns:inkscape="http://www.inkscape.org/namespaces/inkscape"
   version="1.1"
   width="8.5in"
   height="11in"
   viewBox="0 0 1912.5 2475"
   id="svg2"
   inkscape:version="0.91 r13725"
   sodipodi:docname="fig_attn_deep_reynolds_heeger_09_small_big_attn.svg"
   inkscape:export-filename="/Users/oreilly/svn_docs/figs/fig_attn_deep_reynolds_heeger_09_small_big_attn.png"
   inkscape:export-xdpi="149.95399"
   inkscape:export-ydpi="149.95399">
  <metadata
     id="metadata120">
    <rdf:RDF>
      <cc:Work
         rdf:about="">
        <dc:format>image/svg+xml</dc:format>
        <dc:type
           rdf:resource="http://purl.org/dc/dcmitype/StillImage" />
        <dc:title></dc:title>
      </cc:Work>
    </rdf:RDF>
  </metadata>
  <defs
     id="defs118">
    <marker
       inkscape:isstock="true"
       style="overflow:visible;"
       id="marker4655"
       refX="0.0"
       refY="0.0"
       orient="auto"
       inkscape:stockid="Arrow1Mend">
      <path
         transform="scale(0.4) rotate(180) translate(10,0)"
         style="fill-rule:evenodd;stroke:#000000;stroke-width:1pt;stroke-opacity:1;fill:#000000;fill-opacity:1"
         d="M 0.0,0.0 L 5.0,-5.0 L -12.5,0.0 L 5.0,5.0 L 0.0,0.0 z "
         id="path4657" />
    </marker>
    <marker
       inkscape:stockid="Arrow1Lend"
       orient="auto"
       refY="0.0"
       refX="0.0"
       id="Arrow1Lend"
       style="overflow:visible;"
       inkscape:isstock="true">
      <path
         id="path4314"
         d="M 0.0,0.0 L 5.0,-5.0 L -12.5,0.0 L 5.0,5.0 L 0.0,0.0 z "
         style="fill-rule:evenodd;stroke:#000000;stroke-width:1pt;stroke-opacity:1;fill:#000000;fill-opacity:1"
         transform="scale(0.8) rotate(180) translate(12.5,0)" />
    </marker>
    <marker
       inkscape:stockid="Arrow1Mend"
       orient="auto"
       refY="0.0"
       refX="0.0"
       id="Arrow1Mend"
       style="overflow:visible;"
       inkscape:isstock="true"
       inkscape:collect="always">
      <path
         id="path4320"
         d="M 0.0,0.0 L 5.0,-5.0 L -12.5,0.0 L 5.0,5.0 L 0.0,0.0 z "
         style="fill-rule:evenodd;stroke:#000000;stroke-width:1pt;stroke-opacity:1;fill:#000000;fill-opacity:1"
         transform="scale(0.4) rotate(180) translate(10,0)" />
    </marker>
  </defs>
  <sodipodi:namedview
     pagecolor="#ffffff"
     bordercolor="#666666"
     borderopacity="1"
     objecttolerance="10"
     gridtolerance="10"
     guidetolerance="10"
     inkscape:pageopacity="0"
     inkscape:pageshadow="2"
     inkscape:window-width="640"
     inkscape:window-height="480"
     id="namedview116"
     showgrid="false"
     units="in"
     inkscape:zoom="2.7895363"
     inkscape:cx="202.81701"
     inkscape:cy="239.49625"
     inkscape:current-layer="svg2" />
  <rect
     style="opacity:1;fill:#ffffff;fill-opacity:1;fill-rule:nonzero;stroke:#ffffff;stroke-width:2.5;stroke-linecap:butt;stroke-linejoin:miter;stroke-miterlimit:4;stroke-dasharray:none;stroke-dashoffset:0;stroke-opacity:1"
     id="rect5043"
     width="818.23639"
     height="885.45178"
     x="77.073738"
     y="1520.5403" />
  <path
     d="m 162.6,2320.4 0,-693.6 693.5,0 0,693.6 -693.5,0"
     id="path4"
     inkscape:connector-curvature="0"
     style="fill:none;stroke:#000000;stroke-width:2" />
  <path
     style="fill:none;stroke:#000000;stroke-width:2"
     inkscape:connector-curvature="0"
     id="path50"
     d="m 162.6,2320.4 693.5,0 m -693.5,17.3 0,-34.7 m 36.5,34.7 0,-34.7 m 36.5,34.7 0,-34.7 m 36.5,34.7 0,-34.7 m 36.5,34.7 0,-34.7 m 36.5,34.7 0,-34.7 m 36.5,34.7 0,-34.7 m 36.5,34.7 0,-34.7 m 36.5,34.7 0,-34.7 m 36.5,34.7 0,-34.7 m 36.5,34.7 0,-34.7 m 36.5,34.7 0,-34.7 m 36.5,34.7 0,-34.7 m 36.5,34.7 0,-34.7 m 36.5,34.7 0,-34.7 m 36.5,34.7 0,-34.7 m 36.5,34.7 0,-34.7 m 36.5,34.7 0,-34.7 m 36.5,34.7 0,-34.7 m 36.5,34.7 0,-34.7" />
  <path
     style="fill:none;stroke:#000000;stroke-width:2"
     inkscape:connector-curvature="0"
     id="path52"
     d="m 162.6,1626.8 693.5,0 m -693.5,17.4 0,-34.7 m 36.5,34.7 0,-34.7 m 36.5,34.7 0,-34.7 m 36.5,34.7 0,-34.7 m 36.5,34.7 0,-34.7 m 36.5,34.7 0,-34.7 m 36.5,34.7 0,-34.7 m 36.5,34.7 0,-34.7 m 36.5,34.7 0,-34.7 m 36.5,34.7 0,-34.7 m 36.5,34.7 0,-34.7 m 36.5,34.7 0,-34.7 m 36.5,34.7 0,-34.7 m 36.5,34.7 0,-34.7 m 36.5,34.7 0,-34.7 m 36.5,34.7 0,-34.7 m 36.5,34.7 0,-34.7 m 36.5,34.7 0,-34.7 m 36.5,34.7 0,-34.7 m 36.5,34.7 0,-34.7" />
  <text
     style="font-size:31.24999953px;font-family:Arial;text-anchor:end;fill:#000000;-inkscape-font-specification:'Arial, Normal';font-weight:normal;font-style:normal;font-stretch:normal;font-variant:normal;text-align:end;writing-mode:lr;line-height:125%;"
     id="text56"
     font-size="21.1"
     y="2328.7"
     x="138.3"
     sodipodi:linespacing="125%">0</text>
  <text
     style="font-size:31.24999953px;font-family:Arial;text-anchor:end;fill:#000000;-inkscape-font-specification:'Arial, Normal';font-weight:normal;font-style:normal;font-stretch:normal;font-variant:normal;text-align:end;writing-mode:lr;line-height:125%;"
     id="text58"
     font-size="21.1"
     y="2259.3"
     x="138.3"
     sodipodi:linespacing="125%">0.1</text>
  <text
     style="font-size:31.24999953px;font-family:Arial;text-anchor:end;fill:#000000;-inkscape-font-specification:'Arial, Normal';font-weight:normal;font-style:normal;font-stretch:normal;font-variant:normal;text-align:end;writing-mode:lr;line-height:125%;"
     id="text60"
     font-size="21.1"
     y="2190"
     x="138.3"
     sodipodi:linespacing="125%">0.2</text>
  <text
     style="font-size:31.24999953px;font-family:Arial;text-anchor:end;fill:#000000;-inkscape-font-specification:'Arial, Normal';font-weight:normal;font-style:normal;font-stretch:normal;font-variant:normal;text-align:end;writing-mode:lr;line-height:125%;"
     id="text62"
     font-size="21.1"
     y="2120.6001"
     x="138.3"
     sodipodi:linespacing="125%">0.3</text>
  <text
     style="font-size:31.24999953px;font-family:Arial;text-anchor:end;fill:#000000;-inkscape-font-specification:'Arial, Normal';font-weight:normal;font-style:normal;font-stretch:normal;font-variant:normal;text-align:end;writing-mode:lr;line-height:125%;"
     id="text64"
     font-size="21.1"
     y="2051.3"
     x="138.3"
     sodipodi:linespacing="125%">0.4</text>
  <text
     style="font-size:31.24999953px;font-family:Arial;text-anchor:end;fill:#000000;-inkscape-font-specification:'Arial, Normal';font-weight:normal;font-style:normal;font-stretch:normal;font-variant:normal;text-align:end;writing-mode:lr;line-height:125%;"
     id="text66"
     font-size="21.1"
     y="1981.9"
     x="138.3"
     sodipodi:linespacing="125%">0.5</text>
  <text
     style="font-size:31.24999953px;font-family:Arial;text-anchor:end;fill:#000000;-inkscape-font-specification:'Arial, Normal';font-weight:normal;font-style:normal;font-stretch:normal;font-variant:normal;text-align:end;writing-mode:lr;line-height:125%;"
     id="text68"
     font-size="21.1"
     y="1912.6"
     x="138.3"
     sodipodi:linespacing="125%">0.6</text>
  <text
     style="font-size:31.24999953px;font-family:Arial;text-anchor:end;fill:#000000;-inkscape-font-specification:'Arial, Normal';font-weight:normal;font-style:normal;font-stretch:normal;font-variant:normal;text-align:end;writing-mode:lr;line-height:125%;"
     id="text70"
     font-size="21.1"
     y="1843.2"
     x="138.3"
     sodipodi:linespacing="125%">0.7</text>
  <text
     style="font-size:31.24999953px;font-family:Arial;text-anchor:end;fill:#000000;-inkscape-font-specification:'Arial, Normal';font-weight:normal;font-style:normal;font-stretch:normal;font-variant:normal;text-align:end;writing-mode:lr;line-height:125%;"
     id="text72"
     font-size="21.1"
     y="1773.9"
     x="138.3"
     sodipodi:linespacing="125%">0.8</text>
  <text
     style="font-size:31.24999953px;font-family:Arial;text-anchor:end;fill:#000000;-inkscape-font-specification:'Arial, Normal';font-weight:normal;font-style:normal;font-stretch:normal;font-variant:normal;text-align:end;writing-mode:lr;line-height:125%;"
     id="text74"
     font-size="21.1"
     y="1704.5"
     x="138.3"
     sodipodi:linespacing="125%">0.9</text>
  <text
     style="font-size:31.24999953px;font-family:Arial;text-anchor:end;fill:#000000;-inkscape-font-specification:'Arial, Normal';font-weight:normal;font-style:normal;font-stretch:normal;font-variant:normal;text-align:end;writing-mode:lr;line-height:125%;"
     id="text76"
     font-size="21.1"
     y="1635.2"
     x="138.3"
     sodipodi:linespacing="125%">1</text>
  <path
     style="fill:none;stroke:#000000;stroke-width:2"
     inkscape:connector-curvature="0"
     id="path78"
     d="m 162.6,2320.4 0,-693.6 m -17.3,693.6 34.6,0 m -34.6,-69.4 34.6,0 m -34.6,-69.3 34.6,0 m -34.6,-69.4 34.6,0 m -34.6,-69.3 34.6,0 m -34.6,-69.4 34.6,0 m -34.6,-69.3 34.6,0 m -34.6,-69.4 34.6,0 m -34.6,-69.3 34.6,0 m -34.6,-69.4 34.6,0 m -34.6,-69.4 34.6,0" />
  <path
     style="fill:none;stroke:#000000;stroke-width:2"
     inkscape:connector-curvature="0"
     id="path80"
     d="m 856.1,2320.4 0,-693.6 m -17.3,693.6 34.7,0 m -34.7,-69.4 34.7,0 m -34.7,-69.3 34.7,0 m -34.7,-69.4 34.7,0 m -34.7,-69.3 34.7,0 m -34.7,-69.4 34.7,0 m -34.7,-69.3 34.7,0 m -34.7,-69.4 34.7,0 m -34.7,-69.3 34.7,0 m -34.7,-69.4 34.7,0 m -34.7,-69.4 34.7,0" />
  <g
     id="g102"
     transform="translate(0,1475)"
     style="stroke-width:2.49999996;stroke-miterlimit:4;stroke-dasharray:none">
    <path
       d="m 527.6,151.8 36.5,237.5 36.5,92.4 36.5,52.1 36.5,26.3 36.5,0 36.5,17.5 36.5,12.8 36.5,5.1 36.5,2.6 m -693.5,-446.3 36.5,368 36.5,64.8 36.5,24.7 36.5,33.9 36.5,79.5 36.5,80.3 36.5,6.4 36.5,5.2 36.5,8.7"
       id="path104"
       inkscape:connector-curvature="0"
       style="fill:none;stroke:#000000;stroke-width:2.49999996;stroke-miterlimit:4;stroke-dasharray:none" />
    <path
       d="m 534.5,151.8 -0.5,-2.6 -1.5,-2.3 -2.2,-1.5 -2.7,-0.5 -2.6,0.5 -2.3,1.5 -1.5,2.3 -0.5,2.6 0.5,2.7 1.5,2.3 2.3,1.5 2.6,0.5 2.7,-0.5 2.2,-1.5 1.5,-2.3 0.5,-2.7 m 36.6,237.5 -0.6,-2.7 -1.5,-2.2 -2.2,-1.5 -2.7,-0.6 -2.6,0.6 -2.3,1.5 -1.5,2.2 -0.5,2.7 0.5,2.6 1.5,2.3 2.3,1.5 2.6,0.5 2.7,-0.5 2.2,-1.5 1.5,-2.3 0.6,-2.6 m 36.5,92.4 -0.6,-2.7 -1.5,-2.2 -2.2,-1.5 -2.7,-0.6 -2.6,0.6 -2.3,1.5 -1.5,2.2 -0.5,2.7 0.5,2.6 1.5,2.3 2.3,1.5 2.6,0.5 2.7,-0.5 2.2,-1.5 1.5,-2.3 0.6,-2.6 m 36.5,52.1 -0.6,-2.7 -1.5,-2.2 -2.2,-1.5 -2.7,-0.5 -2.6,0.5 -2.3,1.5 -1.5,2.2 -0.5,2.7 0.5,2.7 1.5,2.2 2.3,1.5 2.6,0.5 2.7,-0.5 2.2,-1.5 1.5,-2.2 0.6,-2.7 m 36.5,26.3 -0.6,-2.6 -1.5,-2.3 -2.2,-1.5 -2.7,-0.5 -2.6,0.5 -2.3,1.5 -1.5,2.3 -0.5,2.6 0.5,2.7 1.5,2.2 2.3,1.5 2.6,0.5 2.7,-0.5 2.2,-1.5 1.5,-2.2 0.6,-2.7 m 36.5,0 -0.6,-2.6 -1.5,-2.3 -2.2,-1.5 -2.7,-0.5 -2.6,0.5 -2.3,1.5 -1.5,2.3 -0.5,2.6 0.5,2.7 1.5,2.2 2.3,1.5 2.6,0.6 2.7,-0.6 2.2,-1.5 1.5,-2.2 0.6,-2.7 m 36.5,17.5 -0.6,-2.6 -1.5,-2.3 -2.2,-1.5 -2.7,-0.5 -2.6,0.5 -2.3,1.5 -1.5,2.3 -0.5,2.6 0.5,2.7 1.5,2.2 2.3,1.5 2.6,0.5 2.7,-0.5 2.2,-1.5 1.5,-2.2 0.6,-2.7 m 36.5,12.8 -0.6,-2.7 -1.5,-2.2 -2.2,-1.5 -2.7,-0.5 -2.6,0.5 -2.3,1.5 -1.5,2.2 -0.5,2.7 0.5,2.7 1.5,2.2 2.3,1.5 2.6,0.5 2.7,-0.5 2.2,-1.5 1.5,-2.2 0.6,-2.7 m 36.5,5.1 -0.6,-2.7 -1.5,-2.2 -2.2,-1.5 -2.7,-0.6 -2.6,0.6 -2.3,1.5 -1.5,2.2 -0.5,2.7 0.5,2.6 1.5,2.3 2.3,1.5 2.6,0.5 2.7,-0.5 2.2,-1.5 1.5,-2.3 0.6,-2.6 m 36.5,2.6 -0.6,-2.6 -1.5,-2.3 -2.2,-1.5 -2.7,-0.5 -2.6,0.5 -2.3,1.5 -1.5,2.3 -0.5,2.6 0.5,2.7 1.5,2.2 2.3,1.5 2.6,0.6 2.7,-0.6 2.2,-1.5 1.5,-2.2 0.6,-2.7 m -693.6,-446.3 -0.5,-2.6 -1.5,-2.3 -2.2,-1.5 -2.7,-0.5 -2.7,0.5 -2.2,1.5 -1.5,2.3 -0.5,2.6 0.5,2.7 1.5,2.3 2.2,1.5 2.7,0.5 2.7,-0.5 2.2,-1.5 1.5,-2.3 0.5,-2.7 m 36.5,368 -0.5,-2.7 -1.5,-2.2 -2.2,-1.5 -2.7,-0.6 -2.7,0.6 -2.2,1.5 -1.5,2.2 -0.5,2.7 0.5,2.6 1.5,2.3 2.2,1.5 2.7,0.5 2.7,-0.5 2.2,-1.5 1.5,-2.3 0.5,-2.6 m 36.5,64.8 -0.5,-2.6 -1.5,-2.3 -2.2,-1.5 -2.7,-0.5 -2.7,0.5 -2.2,1.5 -1.5,2.3 -0.5,2.6 0.5,2.7 1.5,2.2 2.2,1.5 2.7,0.6 2.7,-0.6 2.2,-1.5 1.5,-2.2 0.5,-2.7 m 36.5,24.7 -0.5,-2.6 -1.5,-2.3 -2.2,-1.5 -2.7,-0.5 -2.7,0.5 -2.2,1.5 -1.5,2.3 -0.5,2.6 0.5,2.7 1.5,2.2 2.2,1.5 2.7,0.5 2.7,-0.5 2.2,-1.5 1.5,-2.2 0.5,-2.7 m 36.5,33.9 -0.5,-2.6 -1.5,-2.3 -2.2,-1.5 -2.7,-0.5 -2.6,0.5 -2.3,1.5 -1.5,2.3 -0.5,2.6 0.5,2.7 1.5,2.2 2.3,1.5 2.6,0.6 2.7,-0.6 2.2,-1.5 1.5,-2.2 0.5,-2.7 m 36.5,79.5 -0.5,-2.7 -1.5,-2.2 -2.2,-1.5 -2.7,-0.6 -2.6,0.6 -2.3,1.5 -1.5,2.2 -0.5,2.7 0.5,2.6 1.5,2.3 2.3,1.5 2.6,0.5 2.7,-0.5 2.2,-1.5 1.5,-2.3 0.5,-2.6 m 36.5,80.3 -0.5,-2.6 -1.5,-2.3 -2.2,-1.5 -2.7,-0.5 -2.6,0.5 -2.3,1.5 -1.5,2.3 -0.5,2.6 0.5,2.7 1.5,2.2 2.3,1.5 2.6,0.6 2.7,-0.6 2.2,-1.5 1.5,-2.2 0.5,-2.7 m 36.5,6.4 -0.5,-2.7 -1.5,-2.2 -2.2,-1.5 -2.7,-0.5 -2.6,0.5 -2.3,1.5 -1.5,2.2 -0.5,2.7 0.5,2.6 1.5,2.3 2.3,1.5 2.6,0.5 2.7,-0.5 2.2,-1.5 1.5,-2.3 0.5,-2.6 m 36.5,5.2 -0.5,-2.6 -1.5,-2.3 -2.2,-1.5 -2.7,-0.5 -2.6,0.5 -2.3,1.5 -1.5,2.3 -0.5,2.6 0.5,2.7 1.5,2.2 2.3,1.5 2.6,0.6 2.7,-0.6 2.2,-1.5 1.5,-2.2 0.5,-2.7 m 36.5,8.7 -0.5,-2.7 -1.5,-2.2 -2.2,-1.5 -2.7,-0.6 -2.6,0.6 -2.3,1.5 -1.5,2.2 -0.5,2.7 0.5,2.6 1.5,2.3 2.3,1.5 2.6,0.5 2.7,-0.5 2.2,-1.5 1.5,-2.3 0.5,-2.6"
       id="path106"
       inkscape:connector-curvature="0"
       style="fill:none;stroke:#000000;stroke-width:2.49999996;stroke-miterlimit:4;stroke-dasharray:none" />
    <path
       d="m 527.6,818.4 36.5,-285.5 36.5,-105.4 36.5,-52.3 36.5,-32.2 36.5,-19.3 36.5,-11.4 36.5,-12 36.5,-8.7 36.5,-7.8 m -693.5,561.1 36.5,-355.5 36.5,-96.9 36.5,-43.2 36.5,-17.3 36.5,-21.4 36.5,-10 36.5,-11 36.5,-6 36.5,-6.7"
       id="path108"
       inkscape:connector-curvature="0"
       style="fill:none;stroke:#ff0000;stroke-width:2.49999996;stroke-miterlimit:4;stroke-dasharray:none" />
    <path
       d="m 520.7,825.3 0,-13.8 13.8,0 0,13.8 -13.8,0 m 36.5,-285.5 0,-13.9 13.9,0 0,13.9 -13.9,0 m 36.5,-105.4 0,-13.9 13.9,0 0,13.9 -13.9,0 m 36.5,-52.3 0,-13.8 13.9,0 0,13.8 -13.9,0 m 36.5,-32.2 0,-13.9 13.9,0 0,13.9 -13.9,0 m 36.5,-19.3 0,-13.9 13.9,0 0,13.9 -13.9,0 m 36.5,-11.4 0,-13.9 13.9,0 0,13.9 -13.9,0 m 36.5,-12 0,-13.9 13.9,0 0,13.9 -13.9,0 m 36.5,-8.7 0,-13.8 13.9,0 0,13.8 -13.9,0 m 36.5,-7.8 0,-13.9 13.9,0 0,13.9 -13.9,0 m -693.5,561.2 0,-13.9 13.8,0 0,13.9 -13.8,0 m 36.5,-355.6 0,-13.8 13.8,0 0,13.8 -13.8,0 m 36.5,-96.8 0,-13.9 13.8,0 0,13.9 -13.8,0 m 36.5,-43.2 0,-13.9 13.8,0 0,13.9 -13.8,0 m 36.5,-17.4 0,-13.9 13.8,0 0,13.9 -13.8,0 m 36.5,-21.4 0,-13.9 13.8,0 0,13.9 -13.8,0 m 36.5,-9.9 0,-13.9 13.8,0 0,13.9 -13.8,0 m 36.5,-11.1 0,-13.9 13.8,0 0,13.9 -13.8,0 m 36.5,-6 0,-13.8 13.8,0 0,13.8 -13.8,0 m 36.5,-6.7 0,-13.9 13.8,0 0,13.9 -13.8,0"
       id="path110"
       inkscape:connector-curvature="0"
       style="fill:none;stroke:#ff0000;stroke-width:2.49999996;stroke-miterlimit:4;stroke-dasharray:none" />
    <path
       d="m 527.6,845.4 36.5,-106.1 36.5,-92.7 36.5,-60.2 36.5,-36.8 36.5,-11.4 36.5,-20.1 36.5,-17.4 36.5,-9.5 36.5,-7.2 m -693.5,361.4 36.5,-188.5 36.5,-94 36.5,-44.6 36.5,-35.9 36.5,-77 36.5,-71.5 36.5,-15.5 36.5,-9.9 36.5,-13.5"
       id="path112"
       inkscape:connector-curvature="0"
       style="fill:none;stroke:#0000ff;stroke-width:2.49999996;stroke-miterlimit:4;stroke-dasharray:none" />
    <path
       d="m 520.7,845.4 6.9,-7 6.9,7 -6.9,6.9 -6.9,-6.9 m 36.5,-106.1 6.9,-7 7,7 -7,6.9 -6.9,-6.9 m 36.5,-92.7 6.9,-6.9 7,6.9 -7,7 -6.9,-7 m 36.5,-60.2 6.9,-6.9 7,6.9 -7,7 -6.9,-7 m 36.5,-36.8 6.9,-6.9 7,6.9 -7,7 -6.9,-7 m 36.5,-11.4 6.9,-6.9 7,6.9 -7,7 -6.9,-7 m 36.5,-20.1 6.9,-6.9 7,6.9 -7,6.9 -6.9,-6.9 m 36.5,-17.4 6.9,-7 7,7 -7,6.9 -6.9,-6.9 m 36.5,-9.5 6.9,-7 7,7 -7,6.9 -6.9,-6.9 m 36.5,-7.2 6.9,-6.9 7,6.9 -7,6.9 -6.9,-6.9 m -693.5,361.4 6.9,-7 6.9,7 -6.9,6.9 -6.9,-6.9 m 36.5,-188.5 6.9,-6.9 6.9,6.9 -6.9,6.9 -6.9,-6.9 m 36.5,-94 6.9,-6.9 6.9,6.9 -6.9,7 -6.9,-7 m 36.5,-44.6 6.9,-6.9 6.9,6.9 -6.9,6.9 -6.9,-6.9 m 36.5,-35.9 6.9,-6.9 6.9,6.9 -6.9,6.9 -6.9,-6.9 m 36.5,-77 6.9,-7 6.9,7 -6.9,6.9 -6.9,-6.9 m 36.5,-71.5 6.9,-6.9 6.9,6.9 -6.9,7 -6.9,-7 m 36.5,-15.5 6.9,-6.9 6.9,6.9 -6.9,7 -6.9,-7 m 36.5,-9.9 6.9,-6.9 6.9,6.9 -6.9,6.9 -6.9,-6.9 m 36.5,-13.5 6.9,-6.9 6.9,6.9 -6.9,6.9 -6.9,-6.9"
       id="path114"
       inkscape:connector-curvature="0"
       style="fill:none;stroke:#0000ff;stroke-width:2.49999996;stroke-miterlimit:4;stroke-dasharray:none" />
  </g>
  <text
     xml:space="preserve"
     style="color:#000000;font-style:normal;font-variant:normal;font-weight:normal;font-stretch:normal;font-size:37.5px;line-height:100%;font-family:Arial;-inkscape-font-specification:Arial;text-indent:0;text-align:start;text-decoration:none;text-decoration-line:none;letter-spacing:0px;word-spacing:0px;text-transform:none;direction:ltr;block-progression:tb;writing-mode:lr-tb;text-anchor:start;display:inline;overflow:visible;visibility:visible;fill:#000000;fill-opacity:1;fill-rule:nonzero;stroke:none;stroke-width:1px;stroke-linecap:butt;stroke-linejoin:miter;stroke-opacity:1;marker:none;enable-background:accumulate"
     x="220.53233"
     y="2381.2102"
     id="text4285"
     sodipodi:linespacing="100%"><tspan
       sodipodi:role="line"
       id="tspan4287"
       x="220.53233"
       y="2381.2102">Log Contrast</tspan></text>
  <text
     sodipodi:linespacing="100%"
     id="text4289"
     y="2381.844"
     x="584.9176"
     style="color:#000000;font-style:normal;font-variant:normal;font-weight:normal;font-stretch:normal;font-size:37.5px;line-height:100%;font-family:Arial;-inkscape-font-specification:Arial;text-indent:0;text-align:start;text-decoration:none;text-decoration-line:none;letter-spacing:0px;word-spacing:0px;text-transform:none;direction:ltr;block-progression:tb;writing-mode:lr-tb;text-anchor:start;display:inline;overflow:visible;visibility:visible;fill:#000000;fill-opacity:1;fill-rule:nonzero;stroke:none;stroke-width:1px;stroke-linecap:butt;stroke-linejoin:miter;stroke-opacity:1;marker:none;enable-background:accumulate"
     xml:space="preserve"><tspan
       y="2381.844"
       x="584.9176"
       id="tspan4291"
       sodipodi:role="line">Log Contrast</tspan></text>
  <text
     xml:space="preserve"
     style="color:#000000;font-style:normal;font-variant:normal;font-weight:normal;font-stretch:normal;font-size:37.5px;line-height:100%;font-family:Arial;-inkscape-font-specification:Arial;text-indent:0;text-align:start;text-decoration:none;text-decoration-line:none;letter-spacing:0px;word-spacing:0px;text-transform:none;direction:ltr;block-progression:tb;writing-mode:lr-tb;text-anchor:start;display:inline;overflow:visible;visibility:visible;fill:#ff0000;fill-opacity:1;fill-rule:nonzero;stroke:none;stroke-width:1px;stroke-linecap:butt;stroke-linejoin:miter;stroke-opacity:1;marker:none;enable-background:accumulate"
     x="668.56775"
     y="2184.759"
     id="text4293"
     sodipodi:linespacing="100%"><tspan
       sodipodi:role="line"
       id="tspan4295"
       x="668.56775"
       y="2184.759">Attended</tspan></text>
  <text
     xml:space="preserve"
     style="color:#000000;font-style:normal;font-variant:normal;font-weight:normal;font-stretch:normal;font-size:37.5px;line-height:100%;font-family:Arial;-inkscape-font-specification:Arial;text-indent:0;text-align:start;text-decoration:none;text-decoration-line:none;letter-spacing:0px;word-spacing:0px;text-transform:none;direction:ltr;block-progression:tb;writing-mode:lr-tb;text-anchor:start;display:inline;overflow:visible;visibility:visible;fill:#0000ff;fill-opacity:1;fill-rule:nonzero;stroke:none;stroke-width:1px;stroke-linecap:butt;stroke-linejoin:miter;stroke-opacity:1;marker:none;enable-background:accumulate"
     x="665.0155"
     y="2226.2673"
     id="text4297"
     sodipodi:linespacing="100%"><tspan
       sodipodi:role="line"
       id="tspan4299"
       x="665.0155"
       y="2226.2673">Ignored</tspan></text>
  <text
     xml:space="preserve"
     style="color:#000000;font-style:normal;font-variant:normal;font-weight:normal;font-stretch:normal;font-size:37.5px;line-height:100%;font-family:Arial;-inkscape-font-specification:Arial;text-indent:0;text-align:start;text-decoration:none;text-decoration-line:none;letter-spacing:0px;word-spacing:0px;text-transform:none;direction:ltr;block-progression:tb;writing-mode:lr-tb;text-anchor:start;display:inline;overflow:visible;visibility:visible;fill:#000000;fill-opacity:1;fill-rule:nonzero;stroke:none;stroke-width:1px;stroke-linecap:butt;stroke-linejoin:miter;stroke-opacity:1;marker:none;enable-background:accumulate"
     x="666.33386"
     y="2267.7756"
     id="text4301"
     sodipodi:linespacing="100%"><tspan
       sodipodi:role="line"
       id="tspan4303"
       x="666.33386"
       y="2267.7756">% Mod</tspan></text>
  <path
     style="opacity:1;fill:none;fill-opacity:1;fill-rule:nonzero;stroke:#ff0000;stroke-width:2.5;stroke-linecap:butt;stroke-linejoin:miter;stroke-miterlimit:4;stroke-dasharray:none;stroke-dashoffset:0;stroke-opacity:1"
     d="m 620.40557,2176.5209 39.29026,0"
     id="path4593"
     inkscape:connector-curvature="0" />
  <path
     inkscape:connector-curvature="0"
     id="path4595"
     d="m 620.40557,2214.8606 39.29026,0"
     style="opacity:1;fill:none;fill-opacity:1;fill-rule:nonzero;stroke:#0000ff;stroke-width:2.5;stroke-linecap:butt;stroke-linejoin:miter;stroke-miterlimit:4;stroke-dasharray:none;stroke-dashoffset:0;stroke-opacity:1" />
  <path
     style="opacity:1;fill:none;fill-opacity:1;fill-rule:nonzero;stroke:#000000;stroke-width:2.5;stroke-linecap:butt;stroke-linejoin:miter;stroke-miterlimit:4;stroke-dasharray:none;stroke-dashoffset:0;stroke-opacity:1"
     d="m 620.40557,2253.2003 39.29026,0"
     id="path4597"
     inkscape:connector-curvature="0" />
  <rect
     style="opacity:1;fill:none;fill-opacity:1;fill-rule:nonzero;stroke:#000000;stroke-width:2.5;stroke-linecap:butt;stroke-linejoin:miter;stroke-miterlimit:4;stroke-dasharray:none;stroke-dashoffset:0;stroke-opacity:1"
     id="rect4599"
     width="222.43353"
     height="144.48682"
     x="608.99872"
     y="2143.5679" />
  <text
     xml:space="preserve"
     style="color:#000000;font-style:normal;font-variant:normal;font-weight:normal;font-stretch:normal;font-size:37.5px;line-height:100%;font-family:Arial;-inkscape-font-specification:Arial;text-indent:0;text-align:start;text-decoration:none;text-decoration-line:none;letter-spacing:0px;word-spacing:0px;text-transform:none;direction:ltr;block-progression:tb;writing-mode:lr-tb;text-anchor:start;display:inline;overflow:visible;visibility:visible;fill:#000000;fill-opacity:1;fill-rule:nonzero;stroke:none;stroke-width:1px;stroke-linecap:butt;stroke-linejoin:miter;stroke-opacity:1;marker:none;enable-background:accumulate"
     x="341.33243"
     y="1566.8884"
     id="text4601"
     sodipodi:linespacing="100%"><tspan
       sodipodi:role="line"
       id="tspan4603"
       x="341.33243"
       y="1566.8884"
       style="text-align:center;text-anchor:middle">Contrast Gain</tspan><tspan
       sodipodi:role="line"
       x="341.33243"
       y="1599.468"
       id="tspan4605"
       style="font-size:31.25px;text-align:center;text-anchor:middle">(large attn, small stim)</tspan></text>
  <text
     sodipodi:linespacing="100%"
     id="text4607"
     y="1566.8884"
     x="695.57831"
     style="color:#000000;font-style:normal;font-variant:normal;font-weight:normal;font-stretch:normal;font-size:37.5px;line-height:100%;font-family:Arial;-inkscape-font-specification:Arial;text-indent:0;text-align:start;text-decoration:none;text-decoration-line:none;letter-spacing:0px;word-spacing:0px;text-transform:none;direction:ltr;block-progression:tb;writing-mode:lr-tb;text-anchor:start;display:inline;overflow:visible;visibility:visible;fill:#000000;fill-opacity:1;fill-rule:nonzero;stroke:none;stroke-width:1px;stroke-linecap:butt;stroke-linejoin:miter;stroke-opacity:1;marker:none;enable-background:accumulate"
     xml:space="preserve"><tspan
       style="text-align:center;text-anchor:middle"
       y="1566.8884"
       x="695.57831"
       id="tspan4609"
       sodipodi:role="line">Response Gain</tspan><tspan
       style="font-size:31.25px;text-align:center;text-anchor:middle"
       id="tspan4611"
       y="1599.468"
       x="695.57831"
       sodipodi:role="line">(small attn, large stim)</tspan></text>
  <path
     style="opacity:1;fill:none;fill-opacity:1;fill-rule:nonzero;stroke:#000000;stroke-width:2.5;stroke-linecap:butt;stroke-linejoin:miter;stroke-miterlimit:4;stroke-dasharray:none;stroke-dashoffset:0;stroke-opacity:1;marker-end:url(#Arrow1Mend)"
     d="m 745.88085,1969.9303 0,-155.2598"
     id="path4613"
     inkscape:connector-curvature="0" />
  <path
     inkscape:connector-curvature="0"
     id="path4653"
     d="m 317.80734,1892.9342 -65.27248,0"
     style="opacity:1;fill:none;fill-opacity:1;fill-rule:nonzero;stroke:#000000;stroke-width:2.5;stroke-linecap:butt;stroke-linejoin:miter;stroke-miterlimit:4;stroke-dasharray:none;stroke-dashoffset:0;stroke-opacity:1;marker-end:url(#marker4655)"
     sodipodi:nodetypes="cc" />
</svg>
