<?xml version="1.0" encoding="UTF-8" standalone="no"?>
<svg
   xmlns:dc="http://purl.org/dc/elements/1.1/"
   xmlns:cc="http://creativecommons.org/ns#"
   xmlns:rdf="http://www.w3.org/1999/02/22-rdf-syntax-ns#"
   xmlns:svg="http://www.w3.org/2000/svg"
   xmlns="http://www.w3.org/2000/svg"
   xmlns:xlink="http://www.w3.org/1999/xlink"
   xmlns:sodipodi="http://sodipodi.sourceforge.net/DTD/sodipodi-0.dtd"
   xmlns:inkscape="http://www.inkscape.org/namespaces/inkscape"
   width="111.52"
   height="249.547"
   id="svg2"
   version="1.1"
   inkscape:version="0.47 r22583"
   sodipodi:docname="fig_reading_model.svg"
   inkscape:export-filename="/Users/oreilly/svn_docs/figs/fig_reading_model.png"
   inkscape:export-xdpi="150"
   inkscape:export-ydpi="150">
  <metadata
     id="metadata134">
    <rdf:RDF>
      <cc:Work
         rdf:about="">
        <dc:format>image/svg+xml</dc:format>
        <dc:type
           rdf:resource="http://purl.org/dc/dcmitype/StillImage" />
        <dc:title></dc:title>
      </cc:Work>
    </rdf:RDF>
  </metadata>
  <sodipodi:namedview
     pagecolor="#ffffff"
     bordercolor="#666666"
     borderopacity="1"
     objecttolerance="10"
     gridtolerance="10"
     guidetolerance="10"
     inkscape:pageopacity="0"
     inkscape:pageshadow="2"
     inkscape:window-width="640"
     inkscape:window-height="480"
     id="namedview132"
     showgrid="false"
     inkscape:zoom="1.8914273"
     inkscape:cx="-63.074299"
     inkscape:cy="98.494584"
     inkscape:current-layer="svg2" />
  <defs
     id="defs4">
    <linearGradient
       id="linearGradient3893">
      <stop
         id="stop3895"
         offset="0"
         style="stop-color:#ffffff;stop-opacity:1;" />
      <stop
         id="stop3897"
         offset="1"
         style="stop-color:#ca6cff;stop-opacity:1;" />
    </linearGradient>
    <linearGradient
       id="linearGradient3879">
      <stop
         id="stop3881"
         offset="0"
         style="stop-color:#ffffff;stop-opacity:1;" />
      <stop
         id="stop3883"
         offset="1"
         style="stop-color:#ff8be2;stop-opacity:1;" />
    </linearGradient>
    <linearGradient
       id="linearGradient3863">
      <stop
         style="stop-color:#ffffff;stop-opacity:1;"
         offset="0"
         id="stop3865" />
      <stop
         style="stop-color:#ff8b8b;stop-opacity:1;"
         offset="1"
         id="stop3867" />
    </linearGradient>
    <linearGradient
       id="linearGradient3855">
      <stop
         style="stop-color:#ffffff;stop-opacity:1;"
         offset="0"
         id="stop3857" />
      <stop
         style="stop-color:#6c6cff;stop-opacity:1;"
         offset="1"
         id="stop3859" />
    </linearGradient>
    <inkscape:perspective
       sodipodi:type="inkscape:persp3d"
       inkscape:vp_x="0 : 124.7735 : 1"
       inkscape:vp_y="0 : 1000 : 0"
       inkscape:vp_z="111.52 : 124.7735 : 1"
       inkscape:persp3d-origin="55.759998 : 83.182332 : 1"
       id="perspective136" />
    <marker
       id="ArrowEnd"
       viewBox="0 0 10 10"
       refX="0"
       refY="5"
       markerUnits="strokeWidth"
       markerWidth="4"
       markerHeight="3"
       orient="auto">
      <path
         d="M 0 0 L 10 5 L 0 10 z"
         id="path7" />
    </marker>
    <marker
       id="ArrowStart"
       viewBox="0 0 10 10"
       refX="10"
       refY="5"
       markerUnits="strokeWidth"
       markerWidth="4"
       markerHeight="3"
       orient="auto">
      <path
         d="M 10 0 L 0 5 L 10 10 z"
         id="path10" />
    </marker>
    <radialGradient
       inkscape:collect="always"
       xlink:href="#linearGradient3855"
       id="radialGradient3861"
       cx="61.29115"
       cy="222.301"
       fx="61.29115"
       fy="222.301"
       r="41.1345"
       gradientTransform="matrix(1,0,0,0.44185902,0,124.0753)"
       gradientUnits="userSpaceOnUse" />
    <radialGradient
       inkscape:collect="always"
       xlink:href="#linearGradient3863"
       id="radialGradient3869"
       cx="61.29115"
       cy="38.5628"
       fx="61.29115"
       fy="38.5628"
       r="41.1345"
       gradientTransform="matrix(1,0,0,0.44184687,0,21.523948)"
       gradientUnits="userSpaceOnUse" />
    <radialGradient
       inkscape:collect="always"
       xlink:href="#linearGradient3879"
       id="radialGradient3877"
       cx="61.31485"
       cy="99.800652"
       fx="61.31485"
       fy="99.800652"
       r="41.1348"
       gradientTransform="matrix(1,0,0,0.44184,0,55.704731)"
       gradientUnits="userSpaceOnUse" />
    <radialGradient
       inkscape:collect="always"
       xlink:href="#linearGradient3893"
       id="radialGradient3891"
       cx="61.291149"
       cy="161.0585"
       fx="61.291149"
       fy="161.0585"
       r="41.134499"
       gradientTransform="matrix(1,0,0,0.44184687,0,89.895306)"
       gradientUnits="userSpaceOnUse" />
  </defs>
  <rect
     style="fill:#ffffff;fill-opacity:1;fill-rule:nonzero;stroke:#ffffff;stroke-width:1.02989089;stroke-miterlimit:4;stroke-opacity:1;stroke-dasharray:none;stroke-dashoffset:0"
     id="rect2942"
     width="136.90373"
     height="233.65607"
     x="13.232477"
     y="12.703776" />
  <path
     id="path14"
     d="m 63.2146,178.293 -7.6521,0 3.8242,3.824 3.8239,-3.824 -7.652,0 3.8242,3.824 0,22.957"
     style="fill:none;stroke:#000000;stroke-width:1.91330004" />
  <path
     id="path16"
     d="m 21.1133,178.277 80.3557,0 0,-34.437 -80.3557,0 0,34.437 z"
     style="fill:url(#radialGradient3891);stroke:#000000;stroke-width:1.91330003999999998;fill-opacity:1.0" />
  <path
     id="path18"
     d="m 63.2146,117.051 -7.6521,0 3.8242,3.824 3.8239,-3.824 -7.652,0 3.8242,3.824 0,22.957"
     style="fill:none;stroke:#000000;stroke-width:1.91330004" />
  <path
     id="path20"
     d="m 21.1133,239.52 80.3557,0 0,-34.438 -80.3557,0 0,34.438 z"
     style="fill:url(#radialGradient3861);stroke:#000000;stroke-width:1.91330003999999998;fill-opacity:1" />
  <path
     id="path22"
     d="m 32.25,225.727 1.7656,-6 -1.0781,0 -1.1914,4.668 -1.1797,-4.668 -1.168,0 -1.1445,4.668 -1.2266,-4.668 -1.0547,0 1.7422,6 1.0781,0 1.1563,-4.715 1.2148,4.715 1.086,0 z"
     style="fill:#000000;fill-rule:evenodd;stroke:none" />
  <path
     id="path24"
     d="m 37.3281,219.527 c -1.7031,0 -2.7344,1.215 -2.7344,3.25 0,2.036 1.0196,3.25 2.75,3.25 1.7031,0 2.75,-1.211 2.75,-3.199 0,-2.09 -1.0078,-3.293 -2.7578,-3.293 l -0.0078,-0.008 z m 0.0117,0.899 c 1.0938,0 1.75,0.887 1.75,2.383 0,1.414 -0.6758,2.312 -1.75,2.312 -1.082,0 -1.75,-0.887 -1.75,-2.348 0,-1.449 0.6641,-2.347 1.75,-2.347 z"
     style="fill:#000000;fill-rule:evenodd;stroke:none" />
  <path
     id="path26"
     d="m 41.3906,219.699 0,6.024 1,0 0,-3.133 c 0,-0.863 0.2109,-1.426 0.6602,-1.762 0.289,-0.219 0.5703,-0.285 1.2226,-0.297 l 0,-0.965 c -0.1562,-0.019 -0.2344,-0.031 -0.3594,-0.031 -0.6093,0 -1.0742,0.367 -1.6211,1.262 l 0,-1.09 -0.9023,-0.008 z"
     style="fill:#000000;fill-rule:evenodd;stroke:none" />
  <path
     id="path28"
     d="m 50.0898,217.324 -1,0 0,3.141 c -0.3984,-0.613 -1.0351,-0.942 -1.8359,-0.942 -1.5469,0 -2.5625,1.258 -2.5625,3.192 0,2.047 1.0117,3.305 2.6523,3.305 0.836,0 1.418,-0.321 1.9414,-1.09 l 0,0.789 0.7969,0 0.0078,-8.395 z m -2.6719,3.102 c 1.0196,0 1.668,0.926 1.668,2.371 0,1.398 -0.6562,2.324 -1.6562,2.324 -1.043,0 -1.7383,-0.937 -1.7383,-2.348 0,-1.41 0.6914,-2.347 1.7265,-2.347 z"
     style="fill:#000000;fill-rule:evenodd;stroke:none" />
  <path
     id="path30"
     d="m 55.8164,221.387 c -0.0117,-1.188 -0.7969,-1.86 -2.1992,-1.86 -1.4102,0 -2.3243,0.727 -2.3243,1.848 0,0.945 0.4883,1.395 1.9375,1.742 l 0.9102,0.219 c 0.6758,0.16 0.9453,0.402 0.9453,0.84 0,0.562 -0.5664,0.945 -1.4101,0.945 -0.5196,0 -0.9571,-0.148 -1.1993,-0.406 -0.1484,-0.172 -0.2187,-0.348 -0.2773,-0.781 l -1.0156,0 c 0.0429,1.41 0.8281,2.089 2.4101,2.089 1.5235,0 2.4922,-0.75 2.4922,-1.914 0,-0.898 -0.5117,-1.394 -1.7265,-1.683 l -0.9336,-0.219 c -0.793,-0.184 -1.1329,-0.437 -1.1329,-0.863 0,-0.551 0.4961,-0.91 1.2852,-0.91 0.7734,0 1.1914,0.328 1.2148,0.957 l 1.0235,-0.004 z"
     style="fill:#000000;fill-rule:evenodd;stroke:none" />
  <path
     id="path32"
     d="m 57.4883,225.727 1.1992,0 0,-1.2 -1.1992,0 0,1.2 z"
     style="fill:#000000;fill-rule:evenodd;stroke:none" />
  <path
     id="path34"
     d="m 60.6876,225.727 1.199,0 0,-1.2 -1.199,0 0,1.2 z"
     style="fill:#000000;fill-rule:evenodd;stroke:none" />
  <path
     id="path36"
     d="m 63.8906,225.727 1.199,0 0,-1.2 -1.199,0 0,1.2 z"
     style="fill:#000000;fill-rule:evenodd;stroke:none" />
  <path
     id="path38"
     d="m 72.4496,225.727 1.765,-6 -1.078,0 -1.191,4.668 -1.18,-4.668 -1.168,0 -1.145,4.668 -1.226,-4.668 -1.055,0 1.742,6 1.079,0 1.156,-4.715 1.215,4.715 1.086,0 z"
     style="fill:#000000;fill-rule:evenodd;stroke:none" />
  <path
     id="path40"
     d="m 77.5276,219.527 c -1.703,0 -2.735,1.215 -2.735,3.25 0,2.036 1.02,3.25 2.75,3.25 1.703,0 2.75,-1.211 2.75,-3.199 0,-2.09 -1.007,-3.293 -2.757,-3.293 l -0.008,-0.008 z m 0.011,0.899 c 1.094,0 1.75,0.887 1.75,2.383 0,1.414 -0.675,2.312 -1.75,2.312 -1.082,0 -1.75,-0.887 -1.75,-2.348 0,-1.449 0.664,-2.347 1.75,-2.347 z"
     style="fill:#000000;fill-rule:evenodd;stroke:none" />
  <path
     id="path42"
     d="m 81.5896,219.699 0,6.024 1,0 0,-3.133 c 0,-0.863 0.211,-1.426 0.66,-1.762 0.289,-0.219 0.571,-0.285 1.223,-0.297 l 0,-0.965 c -0.156,-0.019 -0.234,-0.031 -0.359,-0.031 -0.61,0 -1.075,0.367 -1.621,1.262 l 0,-1.09 -0.903,-0.008 z"
     style="fill:#000000;fill-rule:evenodd;stroke:none" />
  <path
     id="path44"
     d="m 90.2886,217.324 -1,0 0,3.141 c -0.398,-0.613 -1.035,-0.942 -1.836,-0.942 -1.546,0 -2.562,1.258 -2.562,3.192 0,2.047 1.012,3.305 2.652,3.305 0.836,0 1.418,-0.321 1.942,-1.09 l 0,0.789 0.797,0 0.007,-8.395 z m -2.671,3.102 c 1.019,0 1.668,0.926 1.668,2.371 0,1.398 -0.657,2.324 -1.657,2.324 -1.043,0 -1.738,-0.937 -1.738,-2.348 0,-1.41 0.691,-2.347 1.727,-2.347 z"
     style="fill:#000000;fill-rule:evenodd;stroke:none" />
  <path
     id="path46"
     d="m 96.0156,221.387 c -0.012,-1.188 -0.797,-1.86 -2.199,-1.86 -1.41,0 -2.324,0.727 -2.324,1.848 0,0.945 0.488,1.395 1.937,1.742 l 0.91,0.219 c 0.676,0.16 0.946,0.402 0.946,0.84 0,0.562 -0.567,0.945 -1.411,0.945 -0.519,0 -0.957,-0.148 -1.199,-0.406 -0.148,-0.172 -0.219,-0.348 -0.277,-0.781 l -1.016,0 c 0.043,1.41 0.828,2.089 2.41,2.089 1.524,0 2.493,-0.75 2.493,-1.914 0,-0.898 -0.512,-1.394 -1.727,-1.683 l -0.934,-0.219 c -0.793,-0.184 -1.132,-0.437 -1.132,-0.863 0,-0.551 0.496,-0.91 1.285,-0.91 0.773,0 1.191,0.328 1.215,0.957 l 1.023,-0.004 z"
     style="fill:#000000;fill-rule:evenodd;stroke:none" />
  <path
     id="path48"
     d="m 32.25,164.527 1.7656,-6 -1.0781,0 -1.1914,4.668 -1.1797,-4.668 -1.168,0 -1.1445,4.668 -1.2266,-4.668 -1.0547,0 1.7422,6 1.0781,0 1.1563,-4.714 1.2148,4.714 1.086,0 z"
     style="fill:#000000;fill-rule:evenodd;stroke:none" />
  <path
     id="path50"
     d="m 37.3281,158.324 c -1.7031,0 -2.7344,1.215 -2.7344,3.25 0,2.035 1.0196,3.25 2.75,3.25 1.7031,0 2.75,-1.211 2.75,-3.199 0,-2.09 -1.0078,-3.293 -2.7578,-3.293 l -0.0078,-0.008 z m 0.0117,0.903 c 1.0938,0 1.75,0.886 1.75,2.382 0,1.414 -0.6758,2.313 -1.75,2.313 -1.082,0 -1.75,-0.887 -1.75,-2.348 0,-1.449 0.6641,-2.347 1.75,-2.347 z"
     style="fill:#000000;fill-rule:evenodd;stroke:none" />
  <path
     id="path52"
     d="m 41.3906,158.5 0,6.023 1,0 0,-3.132 c 0,-0.864 0.2109,-1.426 0.6602,-1.762 0.289,-0.219 0.5703,-0.285 1.2226,-0.297 l 0,-0.965 c -0.1562,-0.019 -0.2344,-0.031 -0.3594,-0.031 -0.6093,0 -1.0742,0.367 -1.6211,1.262 l 0,-1.09 -0.9023,-0.008 z"
     style="fill:#000000;fill-rule:evenodd;stroke:none" />
  <path
     id="path54"
     d="m 54.25,175.027 1.7656,-6 -1.0781,0 -1.1914,4.668 -1.1797,-4.668 -1.168,0 -1.1445,4.668 -1.2266,-4.668 -1.0547,0 1.7422,6 1.0781,0 1.1563,-4.714 1.2148,4.714 1.086,0 z"
     style="fill:#000000;fill-rule:evenodd;stroke:none" />
  <path
     id="path56"
     d="m 54.8281,145.824 c -1.7031,0 -2.7344,1.215 -2.7344,3.25 0,2.035 1.0196,3.25 2.75,3.25 1.7031,0 2.75,-1.211 2.75,-3.199 0,-2.09 -1.0078,-3.293 -2.7578,-3.293 l -0.0078,-0.008 z m 0.0117,0.902 c 1.0938,0 1.75,0.887 1.75,2.383 0,1.414 -0.6758,2.313 -1.75,2.313 -1.082,0 -1.75,-0.887 -1.75,-2.348 0,-1.449 0.6641,-2.348 1.75,-2.348 z"
     style="fill:#000000;fill-rule:evenodd;stroke:none" />
  <path
     id="path58"
     d="m 75.4886,157.5 0,6.023 1,0 0,-3.132 c 0,-0.864 0.211,-1.426 0.66,-1.762 0.289,-0.219 0.57,-0.285 1.222,-0.297 l 0,-0.965 c -0.156,-0.019 -0.234,-0.031 -0.359,-0.031 -0.609,0 -1.074,0.367 -1.621,1.262 l 0,-1.09 -0.902,-0.008 z"
     style="fill:#000000;fill-rule:evenodd;stroke:none" />
  <path
     id="path60"
     d="m 53.4883,158.5 0,6.023 1,0 0,-3.132 c 0,-0.864 0.2109,-1.426 0.6601,-1.762 0.2891,-0.219 0.5703,-0.285 1.2227,-0.297 l 0,-0.965 c -0.1563,-0.019 -0.2344,-0.031 -0.3594,-0.031 -0.6094,0 -1.0742,0.367 -1.6211,1.262 l 0,-1.09 -0.9023,-0.008 z"
     style="fill:#000000;fill-rule:evenodd;stroke:none" />
  <path
     id="path62"
     d="m 62.1876,156.125 -1,0 0,3.141 c -0.399,-0.614 -1.035,-0.942 -1.8361,-0.942 -1.5468,0 -2.5625,1.258 -2.5625,3.192 0,2.047 1.0118,3.304 2.6524,3.304 0.8362,0 1.4182,-0.32 1.9412,-1.09 l 0,0.79 0.797,0 0.008,-8.395 z m -2.672,3.102 c 1.02,0 1.668,0.925 1.668,2.371 0,1.398 -0.656,2.324 -1.6563,2.324 -1.0429,0 -1.7383,-0.938 -1.7383,-2.348 0,-1.41 0.6914,-2.347 1.7266,-2.347 z"
     style="fill:#000000;fill-rule:evenodd;stroke:none" />
  <path
     id="path64"
     d="m 67.9176,160.188 c -0.011,-1.188 -0.797,-1.86 -2.199,-1.86 -1.41,0 -2.324,0.727 -2.324,1.848 0,0.945 0.488,1.394 1.937,1.742 l 0.911,0.219 c 0.675,0.16 0.945,0.402 0.945,0.84 0,0.562 -0.567,0.945 -1.41,0.945 -0.52,0 -0.957,-0.149 -1.199,-0.406 -0.149,-0.172 -0.219,-0.348 -0.278,-0.782 l -1.015,0 c 0.043,1.411 0.828,2.09 2.41,2.09 1.523,0 2.492,-0.75 2.492,-1.914 0,-0.898 -0.512,-1.394 -1.727,-1.683 l -0.933,-0.219 c -0.793,-0.184 -1.133,-0.438 -1.133,-0.863 0,-0.551 0.496,-0.911 1.285,-0.911 0.773,0 1.191,0.329 1.215,0.957 l 1.023,-0.003 z"
     style="fill:#000000;fill-rule:evenodd;stroke:none" />
  <path
     id="path66"
     d="m 91.8906,158.926 -1,0 0,3.14 c -0.398,-0.613 -1.035,-0.941 -1.836,-0.941 -1.547,0 -2.562,1.258 -2.562,3.191 0,2.047 1.011,3.305 2.652,3.305 0.836,0 1.418,-0.32 1.941,-1.09 l 0,0.789 0.797,0 0.008,-8.394 z m -2.676,3.101 c 1.02,0 1.668,0.926 1.668,2.371 0,1.399 -0.656,2.325 -1.656,2.325 -1.043,0 -1.738,-0.938 -1.738,-2.348 0,-1.41 0.691,-2.348 1.726,-2.348 z"
     style="fill:#000000;fill-rule:evenodd;stroke:none" />
  <path
     id="path68"
     d="m 21.1367,117.019 80.3563,0 0,-34.4367 -80.3563,0 0,34.4367 z"
     style="fill:url(#radialGradient3877);stroke:#000000;stroke-width:1.91330003999999998;fill-opacity:1.0" />
  <path
     id="path82"
     d="m 63.2106,55.8043 -7.652,0 3.8242,3.825 3.8238,-3.825 -7.6519,0 3.8242,3.825 0,22.957"
     style="fill:none;stroke:#000000;stroke-width:1.91330004" />
  <path
     id="path84"
     d="m 21.1133,55.7813 80.3557,0 0,-34.437 -80.3557,0 0,34.437 z"
     style="fill:url(#radialGradient3869);stroke:#000000;stroke-width:1.91330003999999998;fill-opacity:1" />
  <path
     id="path102"
     d="m 63.2106,82.5943 7.653,0 -3.825,-3.825 -3.824,3.825 7.653,0 -3.825,-3.825 0,-22.957"
     style="fill:none;stroke:#000000;stroke-width:1.91330004" />
  <path
     id="path104"
     d="m 63.2066,143.844 7.653,0 -3.824,-3.825 -3.825,3.825 7.653,0 -3.825,-3.825 0,-22.957"
     style="fill:none;stroke:#000000;stroke-width:1.91330004" />
  <path
     id="path106"
     d="m 63.2066,205.094 7.653,0 -3.824,-3.824 -3.825,3.824 7.653,0 -3.825,-3.824 0,-22.957"
     style="fill:none;stroke:#000000;stroke-width:1.91330004" />
  <text
     xml:space="preserve"
     style="font-size:12px;font-style:normal;font-variant:normal;font-weight:normal;font-stretch:normal;text-indent:0;text-align:start;text-decoration:none;line-height:normal;letter-spacing:normal;word-spacing:normal;text-transform:none;direction:ltr;block-progression:tb;writing-mode:lr-tb;text-anchor:start;color:#000000;fill:#000000;fill-opacity:1;fill-rule:nonzero;stroke:none;stroke-width:1px;marker:none;visibility:visible;display:inline;overflow:visible;enable-background:accumulate;font-family:Arial;-inkscape-font-specification:Arial"
     x="28.549868"
     y="105.21155"
     id="text3024"><tspan
       sodipodi:role="line"
       id="tspan3026"
       x="28.549868"
       y="105.21155">.....words.....</tspan></text>
  <text
     xml:space="preserve"
     style="font-size:12px;font-style:normal;font-variant:normal;font-weight:normal;font-stretch:normal;text-indent:0;text-align:start;text-decoration:none;line-height:normal;letter-spacing:normal;word-spacing:normal;text-transform:none;direction:ltr;block-progression:tb;writing-mode:lr-tb;text-anchor:start;color:#000000;fill:#000000;fill-opacity:1;fill-rule:nonzero;stroke:none;stroke-width:1px;marker:none;visibility:visible;display:inline;overflow:visible;enable-background:accumulate;font-family:Arial;-inkscape-font-specification:Arial"
     x="107.325"
     y="227.34154"
     id="text3028"><tspan
       sodipodi:role="line"
       id="tspan3030"
       x="107.325"
       y="227.34154">V1</tspan></text>
  <text
     xml:space="preserve"
     style="font-size:12px;font-style:normal;font-variant:normal;font-weight:normal;font-stretch:normal;text-indent:0;text-align:start;text-decoration:none;line-height:normal;letter-spacing:normal;word-spacing:normal;text-transform:none;direction:ltr;block-progression:tb;writing-mode:lr-tb;text-anchor:start;color:#000000;fill:#000000;fill-opacity:1;fill-rule:nonzero;stroke:none;stroke-width:1px;marker:none;visibility:visible;display:inline;overflow:visible;enable-background:accumulate;font-family:Arial;-inkscape-font-specification:Arial"
     x="107.325"
     y="166.01219"
     id="text3032"><tspan
       sodipodi:role="line"
       id="tspan3034"
       x="107.325"
       y="166.01219">V4</tspan></text>
  <text
     xml:space="preserve"
     style="font-size:12px;font-style:normal;font-variant:normal;font-weight:normal;font-stretch:normal;text-indent:0;text-align:start;text-decoration:none;line-height:normal;letter-spacing:normal;word-spacing:normal;text-transform:none;direction:ltr;block-progression:tb;writing-mode:lr-tb;text-anchor:start;color:#000000;fill:#000000;fill-opacity:1;fill-rule:nonzero;stroke:none;stroke-width:1px;marker:none;visibility:visible;display:inline;overflow:visible;enable-background:accumulate;font-family:Arial;-inkscape-font-specification:Arial"
     x="106.2586"
     y="104.68285"
     id="text3036"><tspan
       sodipodi:role="line"
       id="tspan3038"
       x="106.2586"
       y="104.68285">IT</tspan></text>
  <text
     xml:space="preserve"
     style="font-size:12px;font-style:normal;font-variant:normal;font-weight:normal;font-stretch:normal;text-indent:0;text-align:start;text-decoration:none;line-height:normal;letter-spacing:normal;word-spacing:normal;text-transform:none;direction:ltr;block-progression:tb;writing-mode:lr-tb;text-anchor:start;color:#000000;fill:#000000;fill-opacity:1;fill-rule:nonzero;stroke:none;stroke-width:1px;marker:none;visibility:visible;display:inline;overflow:visible;enable-background:accumulate;font-family:Arial;-inkscape-font-specification:Arial"
     x="106.79766"
     y="36.480389"
     id="text3040"><tspan
       sodipodi:role="line"
       id="tspan3042"
       x="106.79766"
       y="36.480389">Phono</tspan><tspan
       sodipodi:role="line"
       x="106.79766"
       y="51.480389"
       id="tspan3044">Output</tspan></text>
  <text
     xml:space="preserve"
     style="font-size:12px;font-style:normal;font-variant:normal;font-weight:normal;font-stretch:normal;text-indent:0;text-align:start;text-decoration:none;line-height:normal;letter-spacing:normal;word-spacing:normal;text-transform:none;direction:ltr;block-progression:tb;writing-mode:lr-tb;text-anchor:start;color:#000000;fill:#000000;fill-opacity:1;fill-rule:nonzero;stroke:none;stroke-width:1px;marker:none;visibility:visible;display:inline;overflow:visible;enable-background:accumulate;font-family:Arial;-inkscape-font-specification:Arial"
     x="28.54987"
     y="43.353504"
     id="text3046"><tspan
       sodipodi:role="line"
       id="tspan3048"
       x="28.54987"
       y="43.353504">/w//o//r//d//s/</tspan></text>
</svg>
