<?xml version="1.0" encoding="ISO-8859-1" standalone="yes"?>
<svg width="299.405" height="235.222">
  <defs> 
    <marker id="ArrowEnd" viewBox="0 0 10 10" refX="0" refY="5" 
     markerUnits="strokeWidth" 
     markerWidth="4" 
     markerHeight="3" 
     orient="auto"> 
        <path d="M 0 0 L 10 5 L 0 10 z" /> 
    </marker>
    <marker id="ArrowStart" viewBox="0 0 10 10" refX="10" refY="5" 
     markerUnits="strokeWidth" 
     markerWidth="4" 
     markerHeight="3" 
     orient="auto"> 
        <path d="M 10 0 L 0 5 L 10 10 z" /> 
    </marker> </defs>
<g>
<path style="stroke:none; fill-rule:evenodd; fill:#ffffff" d="M 0.524086 234.698L 298.039 234.698L 298.039 3.19009L 0.524086 3.19009L 0.524086 234.698z"/>
<path style="stroke:#ffffff; stroke-width:0.10000000000000001; fill:none" d="M 0.524086 234.698L 298.039 234.698L 298.039 3.19009L 0.524086 3.19009L 0.524086 234.698z"/>
<path style="stroke:#ff0000; stroke-dasharray:6,3; stroke-width:1.9133; fill:none" d="M 258.246 120.995L 220.484 195.089"/>
<path style="stroke:#ed89ed; stroke-dasharray:6,3; stroke-width:2.8699499999999998; fill:none" d="M 113.883 148.241L 149.254 112.87"/>
<path style="stroke:#ed89ed; stroke-dasharray:6,3; stroke-width:2.8699499999999998; fill:none" d="M 103.844 190.788L 122.008 119.085"/>
<path style="stroke:none; fill-rule:evenodd; fill:#ffff00" d="M 237.914 210.339C 237.914 199.776 223.356 191.206 205.391 191.206C 187.43 191.206 172.867 199.768 172.867 210.339C 172.867 220.901 187.43 229.472 205.391 229.472C 223.352 229.472 237.914 220.909 237.914 210.339"/>
<path style="stroke:#000000; stroke-width:0.95664899999999997; fill:none" d="M 237.914 210.339C 237.914 199.776 223.356 191.206 205.391 191.206C 187.43 191.206 172.867 199.768 172.867 210.339C 172.867 220.901 187.43 229.472 205.391 229.472C 223.352 229.472 237.914 220.909 237.914 210.339"/>
<path style="stroke:none; fill-rule:evenodd; fill:#000000" d="M 202.629 207.858C 202.621 206.222 201.5 205.272 199.586 205.272C 197.762 205.272 196.633 206.222 196.633 207.749C 196.633 208.776 197.164 209.429 198.254 209.718L 200.309 210.272C 201.352 210.55 201.828 210.976 201.828 211.636C 201.828 212.085 201.59 212.55 201.242 212.804C 200.914 213.034 200.395 213.159 199.727 213.159C 198.832 213.159 198.223 212.933 197.828 212.433C 197.524 212.054 197.387 211.636 197.438 211.097L 196.438 211.097C 196.445 211.874 196.594 212.386 196.922 212.851C 197.488 213.64 198.441 214.058 199.699 214.058C 200.684 214.058 201.488 213.831 202.024 213.413C 202.578 212.968 202.93 212.218 202.93 211.491C 202.93 210.456 202.297 209.698 201.172 209.386L 199.098 208.823C 198.102 208.55 197.738 208.226 197.738 207.581C 197.738 206.729 198.473 206.163 199.578 206.163C 200.887 206.163 201.621 206.765 201.633 207.851L 202.629 207.858z"/>
<path style="stroke:none; fill-rule:evenodd; fill:#000000" d="M 210.926 205.37L 209.926 205.37L 209.926 212.241L 205.578 205.37L 204.43 205.37L 204.43 213.768L 205.43 213.768L 205.43 206.987L 209.731 213.768L 210.926 213.768L 210.926 205.37z"/>
<path style="stroke:none; fill-rule:evenodd; fill:#000000" d="M 212.527 207.745L 212.527 213.768L 213.527 213.768L 213.527 210.636C 213.527 209.772 213.738 209.21 214.188 208.874C 214.477 208.655 214.758 208.589 215.41 208.577L 215.41 207.612C 215.254 207.593 215.176 207.581 215.051 207.581C 214.441 207.581 213.977 207.948 213.43 208.843L 213.43 207.753L 212.527 207.745z"/>
<path style="stroke:#000000; stroke-width:0.95664899999999997; fill:none" d="M 147.09 30.1431C 147.09 19.7721 122.449 11.3621 92.0551 11.3621C 61.6601 11.3621 37.0201 19.7721 37.0201 30.1431C 37.0201 40.5151 61.6601 48.9251 92.0551 48.9251C 122.449 48.9251 147.09 40.5151 147.09 30.1431"/>
<path style="stroke:none; fill-rule:evenodd; fill:#000000" d="M 52.0271 29.9721L 54.6681 29.9721C 55.3241 29.9721 55.8441 29.7801 56.2971 29.3781C 56.8051 28.9251 57.0241 28.3861 57.0241 27.6201C 57.0241 26.0581 56.0861 25.1751 54.4141 25.1751L 50.9261 25.1751L 50.9261 33.5731L 52.0241 33.5731L 52.0271 29.9721zM 52.0271 29.0731L 52.0271 26.0731L 54.2771 26.0731C 55.3091 26.0731 55.9261 26.6361 55.9261 27.5731C 55.9261 28.5071 55.3131 29.0731 54.2771 29.0731L 52.0271 29.0731z"/>
<path style="stroke:none; fill-rule:evenodd; fill:#000000" d="M 60.7661 27.3701C 59.0631 27.3701 58.0311 28.5851 58.0311 30.6201C 58.0311 32.6551 59.0511 33.8701 60.7811 33.8701C 62.4841 33.8701 63.5311 32.6591 63.5311 30.6711C 63.5311 28.5811 62.5241 27.3781 60.7741 27.3781L 60.7661 27.3701zM 60.7771 28.2721C 61.8711 28.2721 62.5271 29.1591 62.5271 30.6551C 62.5271 32.0691 61.8521 32.9681 60.7771 32.9681C 59.6951 32.9681 59.0271 32.0811 59.0271 30.6201C 59.0271 29.1711 59.6911 28.2721 60.7771 28.2721z"/>
<path style="stroke:none; fill-rule:evenodd; fill:#000000" d="M 69.0551 29.2331C 69.0431 28.0461 68.2581 27.3741 66.8561 27.3741C 65.4451 27.3741 64.5311 28.1001 64.5311 29.2221C 64.5311 30.1671 65.0201 30.6161 66.4691 30.9641L 67.3791 31.1821C 68.0551 31.3431 68.3241 31.5851 68.3241 32.0221C 68.3241 32.5851 67.7581 32.9681 66.9141 32.9681C 66.3951 32.9681 65.9571 32.8191 65.7151 32.5611C 65.5671 32.3901 65.4961 32.2141 65.4381 31.7801L 64.4221 31.7801C 64.4651 33.1901 65.2501 33.8701 66.8321 33.8701C 68.3561 33.8701 69.3241 33.1201 69.3241 31.9561C 69.3241 31.0581 68.8131 30.5611 67.5981 30.2721L 66.6641 30.0541C 65.8711 29.8701 65.5311 29.6161 65.5311 29.1901C 65.5311 28.6401 66.0271 28.2801 66.8171 28.2801C 67.5901 28.2801 68.0081 28.6081 68.0311 29.2371L 69.0551 29.2331z"/>
<path style="stroke:none; fill-rule:evenodd; fill:#000000" d="M 72.6291 27.5731L 71.7311 27.5731L 71.7311 25.9051L 70.7311 25.9051L 70.7311 27.5731L 69.8321 27.5731L 69.8321 28.3701L 70.7311 28.3701L 70.7311 32.9171C 70.7311 33.5221 71.1331 33.8661 71.8631 33.8661C 72.0861 33.8661 72.3131 33.8431 72.6251 33.7841L 72.6251 32.9481C 72.5121 33.0381 72.3751 33.0651 72.2071 33.0651C 71.8321 33.0651 71.7271 32.9521 71.7271 32.5221L 71.7271 28.3701L 72.6251 28.3701L 72.6291 27.5731z"/>
<path style="stroke:none; fill-rule:evenodd; fill:#000000" d="M 78.8281 30.8701C 78.8281 29.9521 78.7621 29.4011 78.5901 28.9561C 78.2031 27.9721 77.2891 27.3741 76.1721 27.3741C 74.5081 27.3741 73.4341 28.6671 73.4341 30.6551C 73.4341 32.6431 74.4691 33.8701 76.1451 33.8701C 77.5081 33.8701 78.4531 33.0771 78.6951 31.7451L 77.7421 31.7451C 77.4811 32.5501 76.9491 32.9681 76.1881 32.9681C 75.5861 32.9681 75.0741 32.6901 74.7581 32.1751C 74.5311 31.8271 74.4531 31.4751 74.4411 30.8701L 78.8281 30.8701zM 74.4061 30.1041C 74.4841 28.9911 75.1641 28.2681 76.1251 28.2681C 77.0631 28.2681 77.7891 29.0461 77.7891 30.0341C 77.7891 30.0541 77.7891 30.0771 77.7771 30.1001L 74.4061 30.1041z"/>
<path style="stroke:none; fill-rule:evenodd; fill:#000000" d="M 80.1291 27.5461L 80.1291 33.5691L 81.1291 33.5691L 81.1291 30.4361C 81.1291 29.5731 81.3401 29.0111 81.7891 28.6751C 82.0781 28.4561 82.3591 28.3901 83.0121 28.3781L 83.0121 27.4131C 82.8561 27.3931 82.7771 27.3821 82.6521 27.3821C 82.0431 27.3821 81.5781 27.7491 81.0311 28.6431L 81.0311 27.5541L 80.1291 27.5461z"/>
<path style="stroke:none; fill-rule:evenodd; fill:#000000" d="M 84.8281 27.5731L 83.8281 27.5731L 83.8281 33.5731L 84.8281 33.5731L 84.8281 27.5731zM 84.8281 25.1711L 83.8281 25.1711L 83.8281 26.4051L 84.8281 26.4051L 84.8281 25.1711z"/>
<path style="stroke:none; fill-rule:evenodd; fill:#000000" d="M 88.8631 27.3701C 87.1601 27.3701 86.1291 28.5851 86.1291 30.6201C 86.1291 32.6551 87.1491 33.8701 88.8791 33.8701C 90.5821 33.8701 91.6291 32.6591 91.6291 30.6711C 91.6291 28.5811 90.6211 27.3781 88.8711 27.3781L 88.8631 27.3701zM 88.8791 28.2721C 89.9731 28.2721 90.6291 29.1591 90.6291 30.6551C 90.6291 32.0691 89.9531 32.9681 88.8791 32.9681C 87.7971 32.9681 87.1291 32.0811 87.1291 30.6201C 87.1291 29.1711 87.7931 28.2721 88.8791 28.2721z"/>
<path style="stroke:none; fill-rule:evenodd; fill:#000000" d="M 92.8281 27.5461L 92.8281 33.5691L 93.8281 33.5691L 93.8281 30.4361C 93.8281 29.5731 94.0391 29.0111 94.4881 28.6751C 94.7771 28.4561 95.0591 28.3901 95.7111 28.3781L 95.7111 27.4131C 95.5551 27.3931 95.4771 27.3821 95.3521 27.3821C 94.7421 27.3821 94.2771 27.7491 93.7311 28.6431L 93.7311 27.5541L 92.8281 27.5461z"/>
<path style="stroke:none; fill-rule:evenodd; fill:#000000" d="M 106.727 27.8001C 106.391 25.9721 105.328 25.0771 103.477 25.0771C 102.344 25.0771 101.434 25.4321 100.809 26.1241C 100.047 26.9521 99.6331 28.1471 99.6331 29.5071C 99.6331 30.8861 100.059 32.0731 100.856 32.8901C 101.5 33.5581 102.332 33.8661 103.43 33.8661C 105.484 33.8661 106.641 32.7531 106.899 30.5151L 105.793 30.5151C 105.703 31.1041 105.59 31.5071 105.414 31.8501C 105.07 32.5611 104.356 32.9641 103.461 32.9641C 101.793 32.9641 100.734 31.6121 100.734 29.4911C 100.734 27.3111 101.746 25.9681 103.371 25.9681C 104.047 25.9681 104.684 26.1791 105.027 26.5031C 105.336 26.7961 105.508 27.1551 105.637 27.7881L 106.727 27.8001z"/>
<path style="stroke:none; fill-rule:evenodd; fill:#000000" d="M 110.465 27.3701C 108.762 27.3701 107.731 28.5851 107.731 30.6201C 107.731 32.6551 108.75 33.8701 110.481 33.8701C 112.184 33.8701 113.231 32.6591 113.231 30.6711C 113.231 28.5811 112.223 27.3781 110.473 27.3781L 110.465 27.3701zM 110.477 28.2721C 111.57 28.2721 112.227 29.1591 112.227 30.6551C 112.227 32.0691 111.551 32.9681 110.477 32.9681C 109.395 32.9681 108.727 32.0811 108.727 30.6201C 108.727 29.1711 109.391 28.2721 110.477 28.2721z"/>
<path style="stroke:none; fill-rule:evenodd; fill:#000000" d="M 114.527 27.5461L 114.527 33.5691L 115.527 33.5691L 115.527 30.4361C 115.527 29.5731 115.738 29.0111 116.188 28.6751C 116.477 28.4561 116.758 28.3901 117.41 28.3781L 117.41 27.4131C 117.254 27.3931 117.176 27.3821 117.051 27.3821C 116.441 27.3821 115.977 27.7491 115.43 28.6431L 115.43 27.5541L 114.527 27.5461z"/>
<path style="stroke:none; fill-rule:evenodd; fill:#000000" d="M 120.426 27.5731L 119.527 27.5731L 119.527 25.9051L 118.527 25.9051L 118.527 27.5731L 117.629 27.5731L 117.629 28.3701L 118.527 28.3701L 118.527 32.9171C 118.527 33.5221 118.93 33.8661 119.66 33.8661C 119.883 33.8661 120.109 33.8431 120.422 33.7841L 120.422 32.9481C 120.309 33.0381 120.172 33.0651 120.004 33.0651C 119.629 33.0651 119.524 32.9521 119.524 32.5221L 119.524 28.3701L 120.422 28.3701L 120.426 27.5731z"/>
<path style="stroke:none; fill-rule:evenodd; fill:#000000" d="M 126.629 30.8701C 126.629 29.9521 126.563 29.4011 126.391 28.9561C 126.004 27.9721 125.09 27.3741 123.973 27.3741C 122.309 27.3741 121.234 28.6671 121.234 30.6551C 121.234 32.6431 122.27 33.8701 123.945 33.8701C 125.309 33.8701 126.254 33.0771 126.496 31.7451L 125.543 31.7451C 125.281 32.5501 124.75 32.9681 123.988 32.9681C 123.387 32.9681 122.875 32.6901 122.559 32.1751C 122.332 31.8271 122.254 31.4751 122.242 30.8701L 126.629 30.8701zM 122.207 30.1041C 122.285 28.9911 122.965 28.2681 123.926 28.2681C 124.863 28.2681 125.59 29.0461 125.59 30.0341C 125.59 30.0541 125.59 30.0771 125.578 30.1001L 122.207 30.1041z"/>
<path style="stroke:none; fill-rule:evenodd; fill:#000000" d="M 130.481 30.4681L 132.5 27.5731L 131.422 27.5731L 129.977 29.7371L 128.531 27.5731L 127.441 27.5731L 129.449 30.5151L 127.328 33.5691L 128.418 33.5691L 129.941 31.2651L 131.445 33.5691L 132.559 33.5691L 130.481 30.4681z"/>
<path style="stroke:#000000; stroke-width:0.95664899999999997; fill:none" d="M 267.629 30.1431C 267.629 19.7721 242.988 11.3621 212.594 11.3621C 182.199 11.3621 157.559 19.7721 157.559 30.1431C 157.559 40.5151 182.199 48.9251 212.594 48.9251C 242.988 48.9251 267.629 40.5151 267.629 30.1431"/>
<path style="stroke:none; fill-rule:evenodd; fill:#000000" d="M 177.426 29.7721L 181.418 29.7721L 181.418 28.8741L 177.426 28.8741L 177.426 26.0771L 181.926 26.0771L 181.926 25.1791L 176.328 25.1791L 176.328 33.5771L 177.426 33.5771L 177.426 29.7721z"/>
<path style="stroke:none; fill-rule:evenodd; fill:#000000" d="M 183.129 27.5461L 183.129 33.5691L 184.129 33.5691L 184.129 30.4361C 184.129 29.5731 184.34 29.0111 184.789 28.6751C 185.078 28.4561 185.359 28.3901 186.012 28.3781L 186.012 27.4131C 185.856 27.3931 185.777 27.3821 185.652 27.3821C 185.043 27.3821 184.578 27.7491 184.031 28.6431L 184.031 27.5541L 183.129 27.5461z"/>
<path style="stroke:none; fill-rule:evenodd; fill:#000000" d="M 189.266 27.3701C 187.563 27.3701 186.531 28.5851 186.531 30.6201C 186.531 32.6551 187.551 33.8701 189.281 33.8701C 190.984 33.8701 192.031 32.6591 192.031 30.6711C 192.031 28.5811 191.024 27.3781 189.274 27.3781L 189.266 27.3701zM 189.277 28.2721C 190.371 28.2721 191.027 29.1591 191.027 30.6551C 191.027 32.0691 190.352 32.9681 189.277 32.9681C 188.195 32.9681 187.527 32.0811 187.527 30.6201C 187.527 29.1711 188.191 28.2721 189.277 28.2721z"/>
<path style="stroke:none; fill-rule:evenodd; fill:#000000" d="M 193.328 27.5461L 193.328 33.5691L 194.328 33.5691L 194.328 30.2221C 194.328 28.9831 194.953 28.1711 195.918 28.1711C 196.656 28.1711 197.125 28.6321 197.125 29.3621L 197.125 33.5651L 198.125 33.5651L 198.125 29.0111C 198.125 28.0111 197.383 27.3661 196.223 27.3661C 195.332 27.3661 194.758 27.7101 194.231 28.5501L 194.231 27.5381L 193.328 27.5461z"/>
<path style="stroke:none; fill-rule:evenodd; fill:#000000" d="M 201.828 27.5731L 200.93 27.5731L 200.93 25.9051L 199.93 25.9051L 199.93 27.5731L 199.031 27.5731L 199.031 28.3701L 199.93 28.3701L 199.93 32.9171C 199.93 33.5221 200.332 33.8661 201.063 33.8661C 201.285 33.8661 201.512 33.8431 201.824 33.7841L 201.824 32.9481C 201.711 33.0381 201.574 33.0651 201.406 33.0651C 201.031 33.0651 200.926 32.9521 200.926 32.5221L 200.926 28.3701L 201.824 28.3701L 201.828 27.5731z"/>
<path style="stroke:none; fill-rule:evenodd; fill:#000000" d="M 208.168 33.0111C 208.063 33.0691 208.016 33.0691 207.957 33.0691C 207.617 33.0691 207.43 32.8971 207.43 32.5971L 207.43 29.0301C 207.43 27.9561 206.652 27.3741 205.18 27.3741C 204.313 27.3741 203.594 27.6281 203.191 28.0771C 202.918 28.3861 202.805 28.7331 202.781 29.3351L 203.727 29.3351C 203.805 28.6041 204.231 28.2721 205.113 28.2721C 205.957 28.2721 206.43 28.5931 206.43 29.1711L 206.43 29.4251C 206.43 29.8271 206.195 29.9991 205.453 30.0931C 204.129 30.2651 203.926 30.3111 203.567 30.4601C 202.883 30.7451 202.535 31.2881 202.535 32.0731C 202.535 33.1671 203.289 33.8581 204.5 33.8581C 205.254 33.8581 205.859 33.5851 206.535 32.9401C 206.602 33.5731 206.899 33.8581 207.516 33.8581C 207.707 33.8581 207.856 33.8351 208.164 33.7531L 208.168 33.0111zM 206.426 31.7101C 206.426 32.0381 206.336 32.2411 206.059 32.5151C 205.68 32.8781 205.223 33.0691 204.676 33.0691C 203.953 33.0691 203.527 32.7061 203.527 32.0771C 203.527 31.4291 203.938 31.0971 204.93 30.9441C 205.91 30.8041 206.109 30.7571 206.422 30.6041L 206.426 31.7101z"/>
<path style="stroke:none; fill-rule:evenodd; fill:#000000" d="M 209.227 33.5731L 210.227 33.5731L 210.227 25.1751L 209.227 25.1751L 209.227 33.5731z"/>
<path style="stroke:none; fill-rule:evenodd; fill:#000000" d="M 221.828 27.8001C 221.492 25.9721 220.43 25.0771 218.578 25.0771C 217.445 25.0771 216.535 25.4321 215.91 26.1241C 215.149 26.9521 214.734 28.1471 214.734 29.5071C 214.734 30.8861 215.16 32.0731 215.957 32.8901C 216.602 33.5581 217.434 33.8661 218.531 33.8661C 220.586 33.8661 221.742 32.7531 222 30.5151L 220.895 30.5151C 220.805 31.1041 220.691 31.5071 220.516 31.8501C 220.172 32.5611 219.457 32.9641 218.563 32.9641C 216.895 32.9641 215.836 31.6121 215.836 29.4911C 215.836 27.3111 216.848 25.9681 218.473 25.9681C 219.149 25.9681 219.785 26.1791 220.129 26.5031C 220.438 26.7961 220.609 27.1551 220.738 27.7881L 221.828 27.8001z"/>
<path style="stroke:none; fill-rule:evenodd; fill:#000000" d="M 225.664 27.3701C 223.961 27.3701 222.93 28.5851 222.93 30.6201C 222.93 32.6551 223.949 33.8701 225.68 33.8701C 227.383 33.8701 228.43 32.6591 228.43 30.6711C 228.43 28.5811 227.422 27.3781 225.672 27.3781L 225.664 27.3701zM 225.676 28.2721C 226.77 28.2721 227.426 29.1591 227.426 30.6551C 227.426 32.0691 226.75 32.9681 225.676 32.9681C 224.594 32.9681 223.926 32.0811 223.926 30.6201C 223.926 29.1711 224.59 28.2721 225.676 28.2721z"/>
<path style="stroke:none; fill-rule:evenodd; fill:#000000" d="M 229.629 27.5461L 229.629 33.5691L 230.629 33.5691L 230.629 30.4361C 230.629 29.5731 230.84 29.0111 231.289 28.6751C 231.578 28.4561 231.859 28.3901 232.512 28.3781L 232.512 27.4131C 232.356 27.3931 232.277 27.3821 232.152 27.3821C 231.543 27.3821 231.078 27.7491 230.531 28.6431L 230.531 27.5541L 229.629 27.5461z"/>
<path style="stroke:none; fill-rule:evenodd; fill:#000000" d="M 235.629 27.5731L 234.731 27.5731L 234.731 25.9051L 233.731 25.9051L 233.731 27.5731L 232.832 27.5731L 232.832 28.3701L 233.731 28.3701L 233.731 32.9171C 233.731 33.5221 234.133 33.8661 234.863 33.8661C 235.086 33.8661 235.313 33.8431 235.625 33.7841L 235.625 32.9481C 235.512 33.0381 235.375 33.0651 235.207 33.0651C 234.832 33.0651 234.727 32.9521 234.727 32.5221L 234.727 28.3701L 235.625 28.3701L 235.629 27.5731z"/>
<path style="stroke:none; fill-rule:evenodd; fill:#000000" d="M 241.828 30.8701C 241.828 29.9521 241.762 29.4011 241.59 28.9561C 241.203 27.9721 240.289 27.3741 239.172 27.3741C 237.508 27.3741 236.434 28.6671 236.434 30.6551C 236.434 32.6431 237.469 33.8701 239.145 33.8701C 240.508 33.8701 241.453 33.0771 241.695 31.7451L 240.742 31.7451C 240.481 32.5501 239.949 32.9681 239.188 32.9681C 238.586 32.9681 238.074 32.6901 237.758 32.1751C 237.531 31.8271 237.453 31.4751 237.441 30.8701L 241.828 30.8701zM 237.406 30.1041C 237.484 28.9911 238.164 28.2681 239.125 28.2681C 240.063 28.2681 240.789 29.0461 240.789 30.0341C 240.789 30.0541 240.789 30.0771 240.777 30.1001L 237.406 30.1041z"/>
<path style="stroke:none; fill-rule:evenodd; fill:#000000" d="M 245.578 30.4681L 247.598 27.5731L 246.52 27.5731L 245.074 29.7371L 243.629 27.5731L 242.539 27.5731L 244.547 30.5151L 242.426 33.5691L 243.516 33.5691L 245.039 31.2651L 246.543 33.5691L 247.656 33.5691L 245.578 30.4681z"/>
<path style="stroke:none; fill-rule:evenodd; fill:#ffff00" d="M 197.734 97.4561C 197.734 89.0071 186.602 82.1511 172.863 82.1511C 159.129 82.1511 147.992 89.0031 147.992 97.4561C 147.992 105.905 159.125 112.761 172.863 112.761C 186.598 112.761 197.734 105.909 197.734 97.4561"/>
<path style="stroke:#000000; stroke-width:0.95664899999999997; fill:none" d="M 197.734 97.4561C 197.734 89.0071 186.602 82.1511 172.863 82.1511C 159.129 82.1511 147.992 89.0031 147.992 97.4561C 147.992 105.905 159.125 112.761 172.863 112.761C 186.598 112.761 197.734 105.909 197.734 97.4561"/>
<path style="stroke:none; fill-rule:evenodd; fill:#00ffff" d="M 147.988 97.4561C 147.988 89.0071 136.856 82.1511 123.117 82.1511C 109.383 82.1511 98.2461 89.0031 98.2461 97.4561C 98.2461 105.905 109.379 112.761 123.117 112.761C 136.852 112.761 147.988 105.909 147.988 97.4561"/>
<path style="stroke:#000000; stroke-width:0.95664899999999997; fill:none" d="M 147.988 97.4561C 147.988 89.0071 136.856 82.1511 123.117 82.1511C 109.383 82.1511 98.2461 89.0031 98.2461 97.4561C 98.2461 105.905 109.379 112.761 123.117 112.761C 136.852 112.761 147.988 105.909 147.988 97.4561"/>
<path style="stroke:#000000; stroke-width:0.95664899999999997; fill:none" d="M 203.473 97.4561C 203.473 84.7761 178.633 74.4991 147.988 74.4991C 117.348 74.4991 92.5041 84.7761 92.5041 97.4561C 92.5041 110.136 117.344 120.413 147.988 120.413C 178.629 120.413 203.473 110.136 203.473 97.4561"/>
<path style="stroke:none; fill-rule:evenodd; fill:#00ffff" d="M 230.262 154.854C 230.262 144.292 215.703 135.722 197.738 135.722C 179.777 135.722 165.215 144.284 165.215 154.854C 165.215 165.417 179.777 173.987 197.738 173.987C 215.699 173.987 230.262 165.425 230.262 154.854"/>
<path style="stroke:#000000; stroke-width:0.95664899999999997; fill:none" d="M 230.262 154.854C 230.262 144.292 215.703 135.722 197.738 135.722C 179.777 135.722 165.215 144.284 165.215 154.854C 165.215 165.417 179.777 173.987 197.738 173.987C 215.699 173.987 230.262 165.425 230.262 154.854"/>
<path style="stroke:none; fill-rule:evenodd; fill:#000000" d="M 194.926 153.87L 191.328 153.87L 191.328 154.768L 193.926 154.768L 193.926 155.003C 193.926 156.546 192.828 157.663 191.309 157.663C 190.465 157.663 189.699 157.35 189.207 156.804C 188.66 156.198 188.328 155.186 188.328 154.136C 188.328 152.05 189.492 150.671 191.254 150.671C 192.52 150.671 193.434 151.339 193.664 152.436L 194.75 152.436C 194.453 150.745 193.164 149.768 191.246 149.768C 190.227 149.768 189.399 150.034 188.742 150.573C 187.781 151.378 187.227 152.679 187.227 154.186C 187.227 156.765 188.797 158.561 191.063 158.561C 192.199 158.561 193.106 158.136 193.922 157.225L 194.199 158.339L 194.918 158.339L 194.926 153.87z"/>
<path style="stroke:none; fill-rule:evenodd; fill:#000000" d="M 197.727 154.671L 200.367 154.671C 201.024 154.671 201.543 154.479 201.996 154.077C 202.504 153.624 202.723 153.085 202.723 152.319C 202.723 150.757 201.785 149.874 200.113 149.874L 196.625 149.874L 196.625 158.272L 197.723 158.272L 197.727 154.671zM 197.727 153.772L 197.727 150.772L 199.977 150.772C 201.008 150.772 201.625 151.335 201.625 152.272C 201.625 153.206 201.012 153.772 199.977 153.772L 197.727 153.772z"/>
<path style="stroke:none; fill-rule:evenodd; fill:#000000" d="M 209.227 155.573C 209.227 154.655 209.16 154.104 208.988 153.659C 208.602 152.675 207.688 152.077 206.57 152.077C 204.906 152.077 203.832 153.37 203.832 155.358C 203.832 157.347 204.867 158.573 206.543 158.573C 207.906 158.573 208.852 157.78 209.094 156.448L 208.141 156.448C 207.879 157.253 207.348 157.671 206.586 157.671C 205.984 157.671 205.473 157.393 205.156 156.878C 204.93 156.53 204.852 156.179 204.84 155.573L 209.227 155.573zM 204.809 154.804C 204.887 153.69 205.567 152.968 206.527 152.968C 207.465 152.968 208.191 153.745 208.191 154.733C 208.191 154.753 208.191 154.776 208.18 154.8L 204.809 154.804z"/>
<path style="stroke:none; fill-rule:evenodd; fill:#ff0000" d="M 182.43 196.948C 182.43 194.839 180.719 193.124 178.606 193.124C 176.496 193.124 174.781 194.835 174.781 196.948C 174.781 199.058 176.492 200.772 178.606 200.772C 180.715 200.772 182.43 199.061 182.43 196.948"/>
<path style="stroke:#ff0000; stroke-width:1.9133; fill:none" d="M 182.43 196.948C 182.43 194.839 180.719 193.124 178.606 193.124C 176.496 193.124 174.781 194.835 174.781 196.948C 174.781 199.058 176.492 200.772 178.606 200.772C 180.715 200.772 182.43 199.061 182.43 196.948"/>
<path style="stroke:none; fill-rule:evenodd; fill:#ff0000" d="M 209.215 189.296C 209.215 187.186 207.504 185.472 205.391 185.472C 203.281 185.472 201.567 187.183 201.567 189.296C 201.567 191.405 203.277 193.12 205.391 193.12C 207.5 193.12 209.215 191.409 209.215 189.296"/>
<path style="stroke:#ff0000; stroke-width:1.9133; fill:none" d="M 209.215 189.296C 209.215 187.186 207.504 185.472 205.391 185.472C 203.281 185.472 201.567 187.183 201.567 189.296C 201.567 191.405 203.277 193.12 205.391 193.12C 207.5 193.12 209.215 191.409 209.215 189.296"/>
<path style="stroke:none; fill-rule:evenodd; fill:#ff0000" d="M 191.992 133.808C 191.992 131.698 190.281 129.983 188.168 129.983C 186.059 129.983 184.344 131.694 184.344 133.808C 184.344 135.917 186.055 137.632 188.168 137.632C 190.277 137.632 191.992 135.921 191.992 133.808"/>
<path style="stroke:#ff0000; stroke-width:1.9133; fill:none" d="M 191.992 133.808C 191.992 131.698 190.281 129.983 188.168 129.983C 186.059 129.983 184.344 131.694 184.344 133.808C 184.344 135.917 186.055 137.632 188.168 137.632C 190.277 137.632 191.992 135.921 191.992 133.808"/>
<path style="stroke:#ff0000; stroke-dasharray:6,3; stroke-width:1.9133; fill:none" d="M 197.734 173.987L 205.387 189.292"/>
<path style="stroke:#ff0000; stroke-dasharray:6,3; stroke-width:1.9133; fill:none" d="M 174.774 112.761L 188.164 133.804"/>
<path style="stroke:none; fill-rule:evenodd; fill:#ff0000" d="M 158.227 108.671L 160.363 108.671C 161.762 108.671 162.621 107.612 162.621 105.87C 162.621 104.136 161.77 103.073 160.363 103.073L 158.227 103.073L 158.227 108.671zM 158.926 108.073L 158.926 103.675L 160.238 103.675C 161.34 103.675 161.922 104.429 161.922 105.878C 161.922 107.308 161.344 108.073 160.238 108.073L 158.926 108.073z"/>
<path style="stroke:none; fill-rule:evenodd; fill:#ff0000" d="M 166.988 108.073L 164.145 108.073C 164.211 107.628 164.457 107.343 165.117 106.948L 165.879 106.534C 166.633 106.12 167.024 105.558 167.024 104.886C 167.024 104.432 166.844 104.007 166.52 103.714C 166.203 103.421 165.805 103.284 165.293 103.284C 164.609 103.284 164.098 103.522 163.801 103.975C 163.613 104.261 163.527 104.593 163.512 105.136L 164.18 105.136C 164.199 104.78 164.246 104.565 164.336 104.393C 164.508 104.077 164.859 103.882 165.262 103.882C 165.867 103.882 166.324 104.315 166.324 104.89C 166.324 105.311 166.074 105.679 165.598 105.952L 164.902 106.347C 163.781 106.983 163.453 107.491 163.395 108.675L 166.992 108.675L 166.988 108.073z"/>
<path style="stroke:none; fill-rule:evenodd; fill:#ff0000" d="M 155.227 116.272L 161.024 116.272L 161.024 115.475L 155.227 115.475L 155.227 116.272z"/>
<path style="stroke:none; fill-rule:evenodd; fill:#0000ff" d="M 108.527 108.671L 110.664 108.671C 112.063 108.671 112.922 107.612 112.922 105.87C 112.922 104.136 112.07 103.073 110.664 103.073L 108.527 103.073L 108.527 108.671zM 109.227 108.073L 109.227 103.675L 110.539 103.675C 111.641 103.675 112.223 104.429 112.223 105.878C 112.223 107.308 111.645 108.073 110.539 108.073L 109.227 108.073z"/>
<path style="stroke:none; fill-rule:evenodd; fill:#0000ff" d="M 115.328 104.827L 115.328 108.671L 116.027 108.671L 116.027 103.272L 115.574 103.272C 115.332 104.1 115.176 104.214 114.109 104.343L 114.109 104.819L 115.328 104.827z"/>
<path style="stroke:#0000ff; stroke-width:1.9133; fill:none" d="M 129.813 17.0971C 129.813 17.0971 129.813 17.0971 132.203 15.6631C 134.594 14.2291 139.375 11.3581 144.32 10.4011C 149.262 9.44809 154.363 10.4011 158.508 12.3111C 162.652 14.2221 165.84 17.0931 167.434 18.5261C 169.027 19.9601 169.027 19.9601 169.027 19.9601"/>
<path style="stroke:#0000ff; stroke-width:1.9133; fill:none" d="M 137.359 14.8001L 129.813 17.0971L 135.387 11.5221"/>
<path style="stroke:#0000ff; stroke-width:1.9133; fill:none" d="M 164.625 13.4251L 169.031 19.9641L 162.067 16.2681"/>
<path style="stroke:#0000ff; stroke-width:1.9133; fill:none" d="M 119.289 45.7961L 146.074 74.4951"/>
<path style="stroke:#0000ff; stroke-width:1.9133; fill:none" d="M 142.254 67.5971L 146.074 74.4951L 139.457 70.2101"/>
<path style="stroke:#0000ff; stroke-width:1.9133; fill:none" d="M 190.082 47.7101L 149.906 74.4951"/>
<path style="stroke:#0000ff; stroke-width:1.9133; fill:none" d="M 157.332 71.8431L 149.906 74.4951L 155.211 68.6591"/>
<path style="stroke:none; fill-rule:evenodd; fill:#ff0000" d="M 156.57 111.37L 148.844 113.854L 150.633 106.175"/>
<path style="stroke:#ff0000; stroke-width:1.9133; fill:none" d="M 156.57 111.37L 148.844 113.854L 150.633 106.175L 156.57 111.37z"/>
<path style="stroke:none; fill-rule:evenodd; fill:#000000" d="M 183.328 59.9721L 182.629 59.9721L 182.629 62.0651C 182.367 61.6791 181.945 61.4721 181.422 61.4721C 180.402 61.4721 179.734 62.3041 179.734 63.5811C 179.734 64.9321 180.395 65.7681 181.465 65.7681C 182.012 65.7681 182.391 65.5581 182.731 65.0421L 182.731 65.5691L 183.328 65.5691L 183.328 59.9721zM 181.547 62.0731C 182.207 62.0731 182.625 62.6821 182.625 63.6361C 182.625 64.5581 182.199 65.1671 181.551 65.1671C 180.875 65.1671 180.426 64.5501 180.426 63.6201C 180.426 62.6901 180.871 62.0731 181.543 62.0731L 181.547 62.0731z"/>
<path style="stroke:none; fill-rule:evenodd; fill:#000000" d="M 185.918 61.4721C 184.805 61.4721 184.129 62.2721 184.129 63.6201C 184.129 64.9641 184.797 65.7681 185.926 65.7681C 187.039 65.7681 187.723 64.9681 187.723 63.6511C 187.723 62.2681 187.063 61.4721 185.918 61.4721zM 185.926 62.0731C 186.613 62.0731 187.024 62.6591 187.024 63.6431C 187.024 64.5771 186.602 65.1671 185.926 65.1671C 185.246 65.1671 184.828 64.5851 184.828 63.6201C 184.828 62.6671 185.246 62.0731 185.926 62.0731z"/>
<path style="stroke:none; fill-rule:evenodd; fill:#000000" d="M 188.527 61.5851L 188.527 65.5691L 189.227 65.5691L 189.227 63.5181C 189.227 62.9561 189.367 62.5851 189.664 62.3661C 189.856 62.2251 190.043 62.1791 190.477 62.1711L 190.477 61.4951C 190.371 61.4791 190.317 61.4721 190.231 61.4721C 189.813 61.4721 189.496 61.7141 189.125 62.3081L 189.125 61.5851L 188.527 61.5851z"/>
<path style="stroke:none; fill-rule:evenodd; fill:#000000" d="M 193.981 62.6791C 193.973 61.9091 193.445 61.4751 192.5 61.4751C 191.551 61.4751 190.934 61.9561 190.934 62.6941C 190.934 63.3191 191.254 63.6161 192.207 63.8431L 192.805 63.9871C 193.25 64.0931 193.426 64.2531 193.426 64.5421C 193.426 64.9131 193.059 65.1671 192.512 65.1671C 192.176 65.1671 191.891 65.0691 191.731 64.8971C 191.633 64.7841 191.59 64.6671 191.551 64.3781L 190.891 64.3781C 190.918 65.3191 191.438 65.7681 192.481 65.7681C 193.484 65.7681 194.125 65.2761 194.125 64.5031C 194.125 63.9091 193.789 63.5811 192.988 63.3901L 192.375 63.2451C 191.856 63.1241 191.633 62.9561 191.633 62.6751C 191.633 62.3111 191.965 62.0731 192.488 62.0731C 193.004 62.0731 193.281 62.2801 193.297 62.6791L 193.981 62.6791z"/>
<path style="stroke:none; fill-rule:evenodd; fill:#000000" d="M 198.524 65.1981C 198.453 65.2721 198.422 65.2721 198.383 65.2721C 198.156 65.2721 198.031 65.1591 198.031 64.9561L 198.031 62.5771C 198.031 61.8621 197.516 61.4751 196.531 61.4751C 195.953 61.4751 195.473 61.6401 195.207 61.9321C 195.027 62.1321 194.949 62.3581 194.934 62.7491L 195.555 62.7491C 195.606 62.2841 195.887 62.0731 196.465 62.0731C 197.02 62.0731 197.332 62.2841 197.332 62.6671L 197.332 62.8351C 197.332 63.1001 197.176 63.2141 196.684 63.2761C 195.801 63.3901 195.668 63.4211 195.426 63.5181C 194.973 63.7061 194.738 64.0651 194.738 64.5851C 194.738 65.3081 195.246 65.7651 196.059 65.7651C 196.567 65.7651 196.973 65.5851 197.426 65.1551C 197.469 65.5771 197.668 65.7651 198.086 65.7651C 198.215 65.7651 198.317 65.7491 198.524 65.6941L 198.524 65.1981zM 197.328 64.3041C 197.328 64.5151 197.27 64.6431 197.09 64.8151C 196.844 65.0501 196.543 65.1711 196.188 65.1711C 195.715 65.1711 195.438 64.9361 195.438 64.5381C 195.438 64.1241 195.707 63.9131 196.356 63.8111C 196.996 63.7221 197.129 63.6941 197.332 63.5931L 197.328 64.3041z"/>
<path style="stroke:none; fill-rule:evenodd; fill:#000000" d="M 199.227 65.5731L 199.926 65.5731L 199.926 59.9751L 199.227 59.9751L 199.227 65.5731z"/>
<path style="stroke:none; fill-rule:evenodd; fill:#000000" d="M 182.879 70.3781C 182.871 69.6081 182.344 69.1751 181.399 69.1751C 180.449 69.1751 179.832 69.6551 179.832 70.3931C 179.832 71.0181 180.152 71.3151 181.106 71.5421L 181.703 71.6861C 182.149 71.7921 182.324 71.9521 182.324 72.2411C 182.324 72.6121 181.957 72.8661 181.41 72.8661C 181.074 72.8661 180.789 72.7681 180.629 72.5971C 180.531 72.4831 180.488 72.3661 180.449 72.0771L 179.789 72.0771C 179.817 73.0181 180.336 73.4681 181.379 73.4681C 182.383 73.4681 183.024 72.9751 183.024 72.2021C 183.024 71.6081 182.688 71.2801 181.887 71.0891L 181.274 70.9441C 180.754 70.8231 180.531 70.6551 180.531 70.3741C 180.531 70.0111 180.863 69.7721 181.387 69.7721C 181.902 69.7721 182.18 69.9791 182.195 70.3781L 182.879 70.3781z"/>
<path style="stroke:none; fill-rule:evenodd; fill:#000000" d="M 185.328 69.2721L 184.731 69.2721L 184.731 68.1631L 184.031 68.1631L 184.031 69.2721L 183.531 69.2721L 183.531 69.7721L 184.031 69.7721L 184.031 72.8311C 184.031 73.2371 184.305 73.4721 184.805 73.4721C 184.957 73.4721 185.109 73.4561 185.324 73.4171L 185.324 72.8621C 185.25 72.8701 185.156 72.8741 185.047 72.8741C 184.797 72.8741 184.727 72.8001 184.727 72.5181L 184.727 69.7801L 185.324 69.7801L 185.328 69.2721z"/>
<path style="stroke:none; fill-rule:evenodd; fill:#000000" d="M 186.027 69.2841L 186.027 73.2681L 186.727 73.2681L 186.727 71.2181C 186.727 70.6551 186.867 70.2841 187.164 70.0651C 187.356 69.9251 187.543 69.8781 187.977 69.8701L 187.977 69.1941C 187.871 69.1791 187.817 69.1711 187.731 69.1711C 187.313 69.1711 186.996 69.4131 186.625 70.0071L 186.625 69.2841L 186.027 69.2841z"/>
<path style="stroke:none; fill-rule:evenodd; fill:#000000" d="M 189.227 69.2721L 188.527 69.2721L 188.527 73.2721L 189.227 73.2721L 189.227 69.2721zM 189.227 67.6711L 188.527 67.6711L 188.527 68.4951L 189.227 68.4951L 189.227 67.6711z"/>
<path style="stroke:none; fill-rule:evenodd; fill:#000000" d="M 193.82 72.8971C 193.75 72.9721 193.719 72.9721 193.68 72.9721C 193.453 72.9721 193.328 72.8581 193.328 72.6551L 193.328 70.2761C 193.328 69.5611 192.813 69.1751 191.828 69.1751C 191.25 69.1751 190.77 69.3391 190.504 69.6321C 190.324 69.8311 190.246 70.0581 190.231 70.4481L 190.852 70.4481C 190.902 69.9831 191.184 69.7721 191.762 69.7721C 192.317 69.7721 192.629 69.9831 192.629 70.3661L 192.629 70.5341C 192.629 70.8001 192.473 70.9131 191.981 70.9751C 191.098 71.0891 190.965 71.1201 190.723 71.2181C 190.27 71.4051 190.035 71.7651 190.035 72.2841C 190.035 73.0071 190.543 73.4641 191.356 73.4641C 191.863 73.4641 192.27 73.2841 192.723 72.8541C 192.766 73.2761 192.965 73.4641 193.383 73.4641C 193.512 73.4641 193.613 73.4481 193.82 73.3931L 193.82 72.8971zM 192.629 72.0031C 192.629 72.2141 192.57 72.3431 192.391 72.5151C 192.145 72.7491 191.844 72.8701 191.488 72.8701C 191.016 72.8701 190.738 72.6361 190.738 72.2371C 190.738 71.8231 191.008 71.6121 191.656 71.5111C 192.297 71.4211 192.43 71.3931 192.633 71.2921L 192.629 72.0031z"/>
<path style="stroke:none; fill-rule:evenodd; fill:#000000" d="M 195.926 69.2721L 195.328 69.2721L 195.328 68.1631L 194.629 68.1631L 194.629 69.2721L 194.129 69.2721L 194.129 69.7721L 194.629 69.7721L 194.629 72.8311C 194.629 73.2371 194.902 73.4721 195.402 73.4721C 195.555 73.4721 195.707 73.4561 195.922 73.4171L 195.922 72.8621C 195.848 72.8701 195.754 72.8741 195.645 72.8741C 195.395 72.8741 195.324 72.8001 195.324 72.5181L 195.324 69.7801L 195.922 69.7801L 195.926 69.2721z"/>
<path style="stroke:none; fill-rule:evenodd; fill:#000000" d="M 199.828 73.2961L 199.828 69.2761L 199.129 69.2761L 199.129 71.5301C 199.129 72.3391 198.731 72.8741 198.106 72.8741C 197.633 72.8741 197.332 72.5731 197.332 72.0931L 197.332 69.2761L 196.633 69.2761L 196.633 72.3781C 196.633 73.0461 197.125 73.4751 197.899 73.4751C 198.481 73.4751 198.856 73.2721 199.227 72.7411L 199.227 73.3001L 199.828 73.2961z"/>
<path style="stroke:none; fill-rule:evenodd; fill:#000000" d="M 200.926 69.2841L 200.926 73.2681L 201.625 73.2681L 201.625 70.8001C 201.625 70.2291 202.024 69.7721 202.52 69.7721C 202.969 69.7721 203.223 70.0581 203.223 70.5581L 203.223 73.2681L 203.922 73.2681L 203.922 70.8001C 203.922 70.2291 204.344 69.7721 204.871 69.7721C 205.34 69.7721 205.621 70.0651 205.621 70.5581L 205.621 73.2681L 206.32 73.2681L 206.32 70.2801C 206.32 69.5651 205.899 69.1711 205.137 69.1711C 204.594 69.1711 204.266 69.3231 203.883 69.7571C 203.645 69.3471 203.317 69.1711 202.785 69.1711C 202.242 69.1711 201.883 69.3661 201.531 69.8471L 201.531 69.2841L 200.926 69.2841z"/>
<path style="stroke:#ff0000; stroke-dasharray:6,3; stroke-width:1.9133; fill:none" d="M 134.598 110.85L 180.516 198.862"/>
<path style="stroke:none; fill-rule:evenodd; fill:#0000ff" d="M 116.356 119.272L 114.027 119.272L 114.027 116.932L 113.231 116.932L 113.231 119.272L 110.805 119.272L 110.805 120.069L 113.231 120.069L 113.231 122.483L 114.027 122.483L 114.027 120.069L 116.356 120.069L 116.356 119.272z"/>
<path style="stroke:none; fill-rule:evenodd; fill:#0000ff" d="M 116.629 113.444L 124.742 113.202L 120.891 120.085"/>
<path style="stroke:#0000ff; stroke-width:1.9133; fill:none" d="M 116.629 113.444L 124.742 113.202L 120.891 120.085L 116.629 113.444z"/>
<path style="stroke:none; fill-rule:evenodd; fill:#000000" d="M 124.129 96.4721L 120.531 96.4721L 120.531 97.3701L 123.129 97.3701L 123.129 97.6041C 123.129 99.1471 122.031 100.265 120.512 100.265C 119.668 100.265 118.902 99.9521 118.41 99.4051C 117.863 98.8001 117.531 97.7881 117.531 96.7371C 117.531 94.6511 118.695 93.2721 120.457 93.2721C 121.723 93.2721 122.637 93.9401 122.867 95.0381L 123.953 95.0381C 123.656 93.3471 122.367 92.3701 120.449 92.3701C 119.43 92.3701 118.602 92.6361 117.945 93.1751C 116.984 93.9791 116.43 95.2801 116.43 96.7881C 116.43 99.3661 118 101.163 120.266 101.163C 121.402 101.163 122.309 100.737 123.125 99.8271L 123.402 100.94L 124.121 100.94L 124.129 96.4721z"/>
<path style="stroke:none; fill-rule:evenodd; fill:#000000" d="M 127.965 94.6711C 126.262 94.6711 125.231 95.8861 125.231 97.9211C 125.231 99.9561 126.25 101.171 127.981 101.171C 129.684 101.171 130.731 99.9601 130.731 97.9721C 130.731 95.8821 129.723 94.6791 127.973 94.6791L 127.965 94.6711zM 127.977 95.5731C 129.07 95.5731 129.727 96.4601 129.727 97.9561C 129.727 99.3701 129.051 100.268 127.977 100.268C 126.895 100.268 126.227 99.3821 126.227 97.9211C 126.227 96.4721 126.891 95.5731 127.977 95.5731z"/>
<path style="stroke:none; fill-rule:evenodd; fill:#000000" d="M 165.426 92.4721L 164.426 92.4721L 164.426 99.3431L 160.078 92.4721L 158.93 92.4721L 158.93 100.87L 159.93 100.87L 159.93 94.0891L 164.231 100.87L 165.426 100.87L 165.426 92.4721z"/>
<path style="stroke:none; fill-rule:evenodd; fill:#000000" d="M 169.465 94.6711C 167.762 94.6711 166.731 95.8861 166.731 97.9211C 166.731 99.9561 167.75 101.171 169.481 101.171C 171.184 101.171 172.231 99.9601 172.231 97.9721C 172.231 95.8821 171.223 94.6791 169.473 94.6791L 169.465 94.6711zM 169.477 95.5731C 170.57 95.5731 171.227 96.4601 171.227 97.9561C 171.227 99.3701 170.551 100.268 169.477 100.268C 168.395 100.268 167.727 99.3821 167.727 97.9211C 167.727 96.4721 168.391 95.5731 169.477 95.5731z"/>
<path style="stroke:none; fill-rule:evenodd; fill:#000000" d="M 180.926 96.4721L 177.328 96.4721L 177.328 97.3701L 179.926 97.3701L 179.926 97.6041C 179.926 99.1471 178.828 100.265 177.309 100.265C 176.465 100.265 175.699 99.9521 175.207 99.4051C 174.66 98.8001 174.328 97.7881 174.328 96.7371C 174.328 94.6511 175.492 93.2721 177.254 93.2721C 178.52 93.2721 179.434 93.9401 179.664 95.0381L 180.75 95.0381C 180.453 93.3471 179.164 92.3701 177.246 92.3701C 176.227 92.3701 175.399 92.6361 174.742 93.1751C 173.781 93.9791 173.227 95.2801 173.227 96.7881C 173.227 99.3661 174.797 101.163 177.063 101.163C 178.199 101.163 179.106 100.737 179.922 99.8271L 180.199 100.94L 180.918 100.94L 180.926 96.4721z"/>
<path style="stroke:none; fill-rule:evenodd; fill:#000000" d="M 184.766 94.6711C 183.063 94.6711 182.031 95.8861 182.031 97.9211C 182.031 99.9561 183.051 101.171 184.781 101.171C 186.484 101.171 187.531 99.9601 187.531 97.9721C 187.531 95.8821 186.524 94.6791 184.774 94.6791L 184.766 94.6711zM 184.777 95.5731C 185.871 95.5731 186.527 96.4601 186.527 97.9561C 186.527 99.3701 185.852 100.268 184.777 100.268C 183.695 100.268 183.027 99.3821 183.027 97.9211C 183.027 96.4721 183.691 95.5731 184.777 95.5731z"/>
<path style="stroke:none; fill-rule:evenodd; fill:#00ffff" d="M 294.391 99.3701C 294.391 88.8081 279.832 80.2371 261.867 80.2371C 243.906 80.2371 229.344 88.8001 229.344 99.3701C 229.344 109.932 243.906 118.503 261.867 118.503C 279.828 118.503 294.391 109.94 294.391 99.3701"/>
<path style="stroke:#000000; stroke-width:0.95664899999999997; fill:none" d="M 294.391 99.3701C 294.391 88.8081 279.832 80.2371 261.867 80.2371C 243.906 80.2371 229.344 88.8001 229.344 99.3701C 229.344 109.932 243.906 118.503 261.867 118.503C 279.828 118.503 294.391 109.94 294.391 99.3701"/>
<path style="stroke:none; fill-rule:evenodd; fill:#ff0000" d="M 261.863 120.417C 261.863 118.308 260.152 116.593 258.039 116.593C 255.93 116.593 254.215 118.304 254.215 120.417C 254.215 122.526 255.926 124.241 258.039 124.241C 260.149 124.241 261.863 122.53 261.863 120.417"/>
<path style="stroke:#ff0000; stroke-width:1.9133; fill:none" d="M 261.863 120.417C 261.863 118.308 260.152 116.593 258.039 116.593C 255.93 116.593 254.215 118.304 254.215 120.417C 254.215 122.526 255.926 124.241 258.039 124.241C 260.149 124.241 261.863 122.53 261.863 120.417"/>
<path style="stroke:none; fill-rule:evenodd; fill:#000000" d="M 241.828 90.5731L 240.93 90.5731L 240.93 88.9051L 239.93 88.9051L 239.93 90.5731L 239.031 90.5731L 239.031 91.3701L 239.93 91.3701L 239.93 95.9171C 239.93 96.5221 240.332 96.8661 241.063 96.8661C 241.285 96.8661 241.512 96.8431 241.824 96.7841L 241.824 95.9481C 241.711 96.0381 241.574 96.0651 241.406 96.0651C 241.031 96.0651 240.926 95.9521 240.926 95.5221L 240.926 91.3701L 241.824 91.3701L 241.828 90.5731z"/>
<path style="stroke:none; fill-rule:evenodd; fill:#000000" d="M 242.926 88.1711L 242.926 96.5691L 243.926 96.5691L 243.926 93.2221C 243.926 91.9831 244.551 91.1711 245.516 91.1711C 245.817 91.1711 246.117 91.2721 246.344 91.4481C 246.609 91.6431 246.723 91.9321 246.723 92.3621L 246.723 96.5651L 247.723 96.5651L 247.723 92.0111C 247.723 90.9991 247.004 90.3661 245.84 90.3661C 244.996 90.3661 244.484 90.6321 243.926 91.3741L 243.926 88.1631L 242.926 88.1711z"/>
<path style="stroke:none; fill-rule:evenodd; fill:#000000" d="M 254.668 96.0111C 254.563 96.0691 254.516 96.0691 254.457 96.0691C 254.117 96.0691 253.93 95.8971 253.93 95.5971L 253.93 92.0301C 253.93 90.9561 253.152 90.3741 251.68 90.3741C 250.813 90.3741 250.094 90.6281 249.691 91.0771C 249.418 91.3861 249.305 91.7331 249.281 92.3351L 250.227 92.3351C 250.305 91.6041 250.731 91.2721 251.613 91.2721C 252.457 91.2721 252.93 91.5931 252.93 92.1711L 252.93 92.4251C 252.93 92.8271 252.695 92.9991 251.953 93.0931C 250.629 93.2651 250.426 93.3111 250.067 93.4601C 249.383 93.7451 249.035 94.2881 249.035 95.0731C 249.035 96.1671 249.789 96.8581 251 96.8581C 251.754 96.8581 252.359 96.5851 253.035 95.9401C 253.102 96.5731 253.399 96.8581 254.016 96.8581C 254.207 96.8581 254.356 96.8351 254.664 96.7531L 254.668 96.0111zM 252.926 94.7101C 252.926 95.0381 252.836 95.2411 252.559 95.5151C 252.18 95.8781 251.723 96.0691 251.176 96.0691C 250.453 96.0691 250.027 95.7061 250.027 95.0771C 250.027 94.4291 250.438 94.0971 251.43 93.9441C 252.41 93.8041 252.609 93.7571 252.922 93.6041L 252.926 94.7101z"/>
<path style="stroke:none; fill-rule:evenodd; fill:#000000" d="M 255.629 96.5731L 256.629 96.5731L 256.629 88.1751L 255.629 88.1751L 255.629 96.5731z"/>
<path style="stroke:none; fill-rule:evenodd; fill:#000000" d="M 263.57 96.0111C 263.465 96.0691 263.418 96.0691 263.359 96.0691C 263.02 96.0691 262.832 95.8971 262.832 95.5971L 262.832 92.0301C 262.832 90.9561 262.055 90.3741 260.582 90.3741C 259.715 90.3741 258.996 90.6281 258.594 91.0771C 258.32 91.3861 258.207 91.7331 258.184 92.3351L 259.129 92.3351C 259.207 91.6041 259.633 91.2721 260.516 91.2721C 261.359 91.2721 261.832 91.5931 261.832 92.1711L 261.832 92.4251C 261.832 92.8271 261.598 92.9991 260.856 93.0931C 259.531 93.2651 259.328 93.3111 258.969 93.4601C 258.285 93.7451 257.938 94.2881 257.938 95.0731C 257.938 96.1671 258.691 96.8581 259.902 96.8581C 260.656 96.8581 261.262 96.5851 261.938 95.9401C 262.004 96.5731 262.301 96.8581 262.918 96.8581C 263.109 96.8581 263.258 96.8351 263.567 96.7531L 263.57 96.0111zM 261.828 94.7101C 261.828 95.0381 261.738 95.2411 261.461 95.5151C 261.082 95.8781 260.625 96.0691 260.078 96.0691C 259.356 96.0691 258.93 95.7061 258.93 95.0771C 258.93 94.4291 259.34 94.0971 260.332 93.9441C 261.313 93.8041 261.512 93.7571 261.824 93.6041L 261.828 94.7101z"/>
<path style="stroke:none; fill-rule:evenodd; fill:#000000" d="M 264.629 90.5461L 264.629 96.5691L 265.629 96.5691L 265.629 92.7611C 265.629 91.8821 266.254 91.1751 267.024 91.1751C 267.727 91.1751 268.125 91.6121 268.125 92.3901L 268.125 96.5691L 269.125 96.5691L 269.125 92.7611C 269.125 91.8821 269.75 91.1751 270.52 91.1751C 271.211 91.1751 271.621 91.6241 271.621 92.3901L 271.621 96.5691L 272.621 96.5691L 272.621 92.0501C 272.621 90.9721 272 90.3741 270.867 90.3741C 270.063 90.3741 269.574 90.6161 269.012 91.3041C 268.656 90.6551 268.172 90.3741 267.387 90.3741C 266.582 90.3741 266.051 90.6711 265.531 91.3931L 265.531 90.5461L 264.629 90.5461z"/>
<path style="stroke:none; fill-rule:evenodd; fill:#000000" d="M 278.926 96.6081L 278.926 90.5771L 277.926 90.5771L 277.926 94.0221C 277.926 95.2611 277.281 96.0731 276.274 96.0731C 275.512 96.0731 275.027 95.6121 275.027 94.8821L 275.027 90.5771L 274.027 90.5771L 274.027 95.2291C 274.027 96.2291 274.785 96.8741 275.977 96.8741C 276.875 96.8741 277.449 96.5651 278.024 95.7721L 278.024 96.6121L 278.926 96.6081z"/>
<path style="stroke:none; fill-rule:evenodd; fill:#000000" d="M 284.754 92.2331C 284.742 91.0461 283.957 90.3741 282.555 90.3741C 281.145 90.3741 280.231 91.1001 280.231 92.2221C 280.231 93.1671 280.719 93.6161 282.168 93.9641L 283.078 94.1821C 283.754 94.3431 284.024 94.5851 284.024 95.0221C 284.024 95.5851 283.457 95.9681 282.613 95.9681C 282.094 95.9681 281.656 95.8191 281.414 95.5611C 281.266 95.3901 281.195 95.2141 281.137 94.7801L 280.121 94.7801C 280.164 96.1901 280.949 96.8701 282.531 96.8701C 284.055 96.8701 285.024 96.1201 285.024 94.9561C 285.024 94.0581 284.512 93.5611 283.297 93.2721L 282.363 93.0541C 281.57 92.8701 281.231 92.6161 281.231 92.1901C 281.231 91.6401 281.727 91.2801 282.516 91.2801C 283.289 91.2801 283.707 91.6081 283.731 92.2371L 284.754 92.2331z"/>
<path style="stroke:none; fill-rule:evenodd; fill:#000000" d="M 242.176 107.671L 244.594 100.671L 243.649 100.671L 241.719 106.597L 239.672 100.671L 238.719 100.671L 241.223 107.671L 242.176 107.671z"/>
<path style="stroke:none; fill-rule:evenodd; fill:#000000" d="M 249.359 105.573L 250.074 107.671L 251.067 107.671L 248.621 100.671L 247.477 100.671L 244.992 107.671L 245.938 107.671L 246.672 105.573L 249.359 105.573zM 249.113 104.87L 246.895 104.87L 248.039 101.655L 249.113 104.87z"/>
<path style="stroke:none; fill-rule:evenodd; fill:#000000" d="M 252.027 106.671L 252.027 107.671L 252.625 107.671L 252.625 107.835C 252.625 108.468 252.496 108.651 252.027 108.667L 252.027 109.065C 252.691 109.065 253.027 108.636 253.027 107.815L 253.027 106.671L 252.027 106.671z"/>
<path style="stroke:none; fill-rule:evenodd; fill:#000000" d="M 257.578 107.671L 259.996 100.671L 259.051 100.671L 257.121 106.597L 255.074 100.671L 254.121 100.671L 256.625 107.671L 257.578 107.671z"/>
<path style="stroke:none; fill-rule:evenodd; fill:#000000" d="M 261.926 100.671L 261.027 100.671L 261.027 107.671L 265.324 107.671L 265.324 106.972L 261.926 106.972L 261.926 100.671z"/>
<path style="stroke:none; fill-rule:evenodd; fill:#000000" d="M 266.328 106.671L 266.328 107.671L 266.926 107.671L 266.926 107.835C 266.926 108.468 266.797 108.651 266.328 108.667L 266.328 109.065C 266.992 109.065 267.328 108.636 267.328 107.815L 267.328 106.671L 266.328 106.671z"/>
<path style="stroke:none; fill-rule:evenodd; fill:#000000" d="M 272.719 107.671L 274.727 101.827L 274.727 107.671L 275.524 107.671L 275.524 100.671L 274.285 100.671L 272.25 106.768L 270.176 100.671L 268.938 100.671L 268.938 107.671L 269.734 107.671L 269.734 101.827L 271.762 107.671L 272.719 107.671z"/>
<path style="stroke:none; fill-rule:evenodd; fill:#000000" d="M 276.926 107.671L 279.645 107.671C 281.426 107.671 282.52 106.347 282.52 104.167C 282.52 101.999 281.434 100.675 279.645 100.675L 276.926 100.675L 276.926 107.671zM 277.828 106.972L 277.828 101.374L 279.492 101.374C 280.887 101.374 281.625 102.335 281.625 104.179C 281.625 105.999 280.891 106.972 279.492 106.972L 277.828 106.972z"/>
<path style="stroke:none; fill-rule:evenodd; fill:#00ffff" d="M 133.617 210.339C 133.617 199.776 119.059 191.206 101.094 191.206C 83.1331 191.206 68.5701 199.768 68.5701 210.339C 68.5701 220.901 83.1331 229.472 101.094 229.472C 119.055 229.472 133.617 220.909 133.617 210.339"/>
<path style="stroke:#000000; stroke-width:0.95664899999999997; fill:none" d="M 133.617 210.339C 133.617 199.776 119.059 191.206 101.094 191.206C 83.1331 191.206 68.5701 199.768 68.5701 210.339C 68.5701 220.901 83.1331 229.472 101.094 229.472C 119.055 229.472 133.617 220.909 133.617 210.339"/>
<path style="stroke:none; fill-rule:evenodd; fill:#000000" d="M 98.3281 207.858C 98.3201 206.222 97.1991 205.272 95.2851 205.272C 93.4611 205.272 92.3321 206.222 92.3321 207.749C 92.3321 208.776 92.8631 209.429 93.9531 209.718L 96.0081 210.272C 97.0511 210.55 97.5271 210.976 97.5271 211.636C 97.5271 212.085 97.2891 212.55 96.9411 212.804C 96.6131 213.034 96.0941 213.159 95.4261 213.159C 94.5311 213.159 93.9221 212.933 93.5271 212.433C 93.2231 212.054 93.0861 211.636 93.1371 211.097L 92.1371 211.097C 92.1451 211.874 92.2931 212.386 92.6211 212.851C 93.1881 213.64 94.1411 214.058 95.3991 214.058C 96.3831 214.058 97.1881 213.831 97.7231 213.413C 98.2771 212.968 98.6291 212.218 98.6291 211.491C 98.6291 210.456 97.9961 209.698 96.8711 209.386L 94.7971 208.823C 93.8011 208.55 93.4381 208.226 93.4381 207.581C 93.4381 206.729 94.1721 206.163 95.2771 206.163C 96.5861 206.163 97.3201 206.765 97.3321 207.851L 98.3281 207.858z"/>
<path style="stroke:none; fill-rule:evenodd; fill:#000000" d="M 106.629 205.37L 105.629 205.37L 105.629 212.241L 101.281 205.37L 100.133 205.37L 100.133 213.768L 101.133 213.768L 101.133 206.987L 105.434 213.768L 106.629 213.768L 106.629 205.37z"/>
<path style="stroke:none; fill-rule:evenodd; fill:#000000" d="M 112.832 209.776C 112.789 209.19 112.664 208.808 112.434 208.472C 112.027 207.909 111.309 207.573 110.481 207.573C 108.879 207.573 107.832 208.866 107.832 210.878C 107.832 212.831 108.856 214.069 110.469 214.069C 111.891 214.069 112.789 213.198 112.902 211.706L 111.949 211.706C 111.793 212.683 111.305 213.171 110.5 213.171C 109.457 213.171 108.832 212.308 108.832 210.882C 108.832 209.374 109.441 208.476 110.477 208.476C 111.27 208.476 111.77 208.944 111.883 209.78L 112.832 209.776z"/>
<path style="stroke:none; fill-rule:evenodd; fill:#ffffff" d="M 6.23809 170.003L 98.1331 170.003L 98.1331 124.058L 6.23809 124.058L 6.23809 170.003z"/>
<path style="stroke:#000000; stroke-width:0.95664899999999997; fill:none" d="M 6.23809 170.003L 98.1331 170.003L 98.1331 124.058L 6.23809 124.058L 6.23809 170.003z"/>
<path style="stroke:#ff0000; stroke-dasharray:6,3; stroke-width:1.9133; fill:none" d="M 10.0701 147.026L 31.1291 147.026"/>
<path style="stroke:none; fill-rule:evenodd; fill:#0000ff" d="M 42.7271 134.37C 42.7271 133.452 42.6601 132.901 42.4881 132.456C 42.1021 131.472 41.1881 130.874 40.0701 130.874C 38.4061 130.874 37.3321 132.167 37.3321 134.155C 37.3321 136.143 38.3671 137.37 40.0431 137.37C 41.4101 137.37 42.3561 136.577 42.5941 135.245L 41.6411 135.245C 41.3791 136.05 40.8481 136.472 40.0821 136.472C 39.4811 136.472 38.9691 136.194 38.6491 135.679C 38.4221 135.331 38.3441 134.979 38.3321 134.374L 42.7271 134.37zM 38.3091 133.604C 38.3871 132.491 39.0671 131.768 40.0311 131.768C 40.9731 131.768 41.6951 132.546 41.6951 133.534C 41.6951 133.554 41.6951 133.577 41.6881 133.6L 38.3091 133.604z"/>
<path style="stroke:none; fill-rule:evenodd; fill:#0000ff" d="M 46.5821 133.972L 48.6021 131.077L 47.5241 131.077L 46.0781 133.237L 44.6331 131.077L 43.5431 131.077L 45.5511 134.018L 43.4261 137.073L 44.5161 137.073L 46.0431 134.765L 47.5471 137.073L 48.6601 137.073L 46.5821 133.972z"/>
<path style="stroke:none; fill-rule:evenodd; fill:#0000ff" d="M 54.4381 133.073C 54.3951 132.487 54.2701 132.108 54.0391 131.772C 53.6331 131.21 52.9141 130.874 52.0821 130.874C 50.4811 130.874 49.4301 132.167 49.4301 134.179C 49.4301 136.132 50.4531 137.37 52.0701 137.37C 53.4921 137.37 54.3911 136.495 54.5081 135.003L 53.5551 135.003C 53.3991 135.979 52.9101 136.468 52.1021 136.468C 51.0591 136.468 50.4341 135.604 50.4341 134.179C 50.4341 132.671 51.0431 131.772 52.0781 131.772C 52.8711 131.772 53.3711 132.237 53.4841 133.073L 54.4381 133.073z"/>
<path style="stroke:none; fill-rule:evenodd; fill:#0000ff" d="M 56.4261 131.073L 55.4261 131.073L 55.4261 137.073L 56.4261 137.073L 56.4261 131.073zM 56.4261 128.671L 55.4261 128.671L 55.4261 129.901L 56.4261 129.901L 56.4261 128.671z"/>
<path style="stroke:none; fill-rule:evenodd; fill:#0000ff" d="M 60.2271 131.073L 59.3281 131.073L 59.3281 129.401L 58.3281 129.401L 58.3281 131.073L 57.4301 131.073L 57.4301 131.87L 58.3281 131.87L 58.3281 136.417C 58.3281 137.022 58.7311 137.366 59.4611 137.366C 59.6841 137.366 59.9101 137.343 60.2231 137.284L 60.2231 136.448C 60.1091 136.538 59.9731 136.565 59.8051 136.565C 59.4301 136.565 59.3241 136.452 59.3241 136.022L 59.3241 131.87L 60.2231 131.87L 60.2271 131.073z"/>
<path style="stroke:none; fill-rule:evenodd; fill:#0000ff" d="M 66.6721 136.511C 66.5671 136.573 66.5201 136.573 66.4611 136.573C 66.1211 136.573 65.9301 136.401 65.9301 136.1L 65.9301 132.534C 65.9301 131.46 65.1521 130.878 63.6801 130.878C 62.8131 130.878 62.0941 131.132 61.6911 131.581C 61.4181 131.89 61.3051 132.237 61.2811 132.835L 62.2271 132.835C 62.3051 132.108 62.7311 131.776 63.6131 131.776C 64.4571 131.776 64.9301 132.097 64.9301 132.675L 64.9301 132.929C 64.9301 133.331 64.6951 133.503 63.9531 133.597C 62.6291 133.768 62.4261 133.815 62.0671 133.964C 61.3831 134.249 61.0351 134.792 61.0351 135.577C 61.0351 136.671 61.7891 137.362 63.0041 137.362C 63.7581 137.362 64.3631 137.089 65.0391 136.444C 65.1061 137.077 65.4021 137.362 66.0241 137.362C 66.2151 137.362 66.3631 137.339 66.6761 137.257L 66.6721 136.511zM 64.9261 135.21C 64.9261 135.538 64.8401 135.741 64.5591 136.015C 64.1801 136.378 63.7231 136.569 63.1761 136.569C 62.4531 136.569 62.0271 136.206 62.0271 135.577C 62.0271 134.929 62.4381 134.597 63.4301 134.44C 64.4101 134.3 64.6091 134.253 64.9221 134.1L 64.9261 135.21z"/>
<path style="stroke:none; fill-rule:evenodd; fill:#0000ff" d="M 69.7271 131.073L 68.8281 131.073L 68.8281 129.401L 67.8281 129.401L 67.8281 131.073L 66.9301 131.073L 66.9301 131.87L 67.8281 131.87L 67.8281 136.417C 67.8281 137.022 68.2311 137.366 68.9611 137.366C 69.1841 137.366 69.4101 137.343 69.7231 137.284L 69.7231 136.448C 69.6091 136.538 69.4731 136.565 69.3051 136.565C 68.9301 136.565 68.8241 136.452 68.8241 136.022L 68.8241 131.87L 69.7231 131.87L 69.7271 131.073z"/>
<path style="stroke:none; fill-rule:evenodd; fill:#0000ff" d="M 73.1641 130.87C 71.4611 130.87 70.4301 132.085 70.4301 134.12C 70.4301 136.155 71.4491 137.37 73.1801 137.37C 74.8831 137.37 75.9301 136.159 75.9301 134.167C 75.9301 132.077 74.9221 130.874 73.1681 130.874L 73.1641 130.87zM 73.1761 131.772C 74.2701 131.772 74.9261 132.659 74.9261 134.155C 74.9261 135.569 74.2501 136.468 73.1761 136.468C 72.0941 136.468 71.4261 135.581 71.4261 134.12C 71.4261 132.671 72.0901 131.772 73.1761 131.772z"/>
<path style="stroke:none; fill-rule:evenodd; fill:#0000ff" d="M 77.2271 131.046L 77.2271 137.069L 78.2271 137.069L 78.2271 133.936C 78.2271 133.073 78.4381 132.507 78.8871 132.175C 79.1761 131.956 79.4571 131.89 80.1091 131.878L 80.1091 130.913C 79.9531 130.893 79.8711 130.882 79.7461 130.882C 79.1371 130.882 78.6681 131.249 78.1251 132.147L 78.1251 131.058L 77.2271 131.046z"/>
<path style="stroke:none; fill-rule:evenodd; fill:#0000ff" d="M 84.7851 131.073L 83.1211 135.737L 81.5861 131.073L 80.5671 131.073L 82.5981 137.128L 82.2311 138.081C 82.0821 138.507 81.8631 138.667 81.4611 138.667C 81.3241 138.667 81.1641 138.632 80.9571 138.561L 80.9571 139.417C 81.1491 139.518 81.3481 139.565 81.5981 139.565C 81.9061 139.565 82.2381 139.464 82.4921 139.28C 82.7891 139.065 82.9611 138.811 83.1451 138.331L 85.8201 131.069L 84.7851 131.073z"/>
<path style="stroke:none; fill-rule:evenodd; fill:#ff0000" d="M 33.0431 147.026C 33.0431 144.913 31.3321 143.198 29.2151 143.198C 27.1021 143.198 25.3871 144.909 25.3871 147.026C 25.3871 149.14 27.0981 150.854 29.2151 150.854C 31.3281 150.854 33.0431 149.143 33.0431 147.026"/>
<path style="stroke:#ff0000; stroke-width:1.9133; fill:none" d="M 33.0431 147.026C 33.0431 144.913 31.3321 143.198 29.2151 143.198C 27.1021 143.198 25.3871 144.909 25.3871 147.026C 25.3871 149.14 27.0981 150.854 29.2151 150.854C 31.3281 150.854 33.0431 149.143 33.0431 147.026"/>
<path style="stroke:none; fill-rule:evenodd; fill:#ff0000" d="M 38.5271 144.472L 37.5271 144.472L 37.5271 150.472L 38.5271 150.472L 38.5271 144.472zM 38.5271 142.073L 37.5271 142.073L 37.5271 143.304L 38.5271 143.304L 38.5271 142.073z"/>
<path style="stroke:none; fill-rule:evenodd; fill:#ff0000" d="M 40.2271 144.444L 40.2271 150.468L 41.2271 150.468L 41.2271 147.12C 41.2271 145.882 41.8521 145.069 42.8171 145.069C 43.5551 145.069 44.0241 145.53 44.0241 146.261L 44.0241 150.464L 45.0241 150.464L 45.0241 145.913C 45.0241 144.913 44.2811 144.268 43.1211 144.268C 42.2271 144.268 41.6561 144.612 41.1291 145.452L 41.1291 144.44L 40.2271 144.444z"/>
<path style="stroke:none; fill-rule:evenodd; fill:#ff0000" d="M 46.6291 142.073L 46.6291 150.472L 47.6291 150.472L 47.6291 147.124C 47.6291 145.886 48.2541 145.073 49.2191 145.073C 49.5201 145.073 49.8201 145.175 50.0471 145.35C 50.3131 145.546 50.4261 145.835 50.4261 146.265L 50.4261 150.468L 51.4261 150.468L 51.4261 145.917C 51.4261 144.905 50.7071 144.272 49.5431 144.272C 48.6991 144.272 48.1881 144.538 47.6291 145.28L 47.6291 142.077L 46.6291 142.073z"/>
<path style="stroke:none; fill-rule:evenodd; fill:#ff0000" d="M 53.9261 144.472L 52.9261 144.472L 52.9261 150.472L 53.9261 150.472L 53.9261 144.472zM 53.9261 142.073L 52.9261 142.073L 52.9261 143.304L 53.9261 143.304L 53.9261 142.073z"/>
<path style="stroke:none; fill-rule:evenodd; fill:#ff0000" d="M 55.3281 142.073L 55.3281 150.472L 56.2271 150.472L 56.2271 149.702C 56.6801 150.425 57.2851 150.768 58.1211 150.768C 59.6951 150.768 60.7231 149.464 60.7231 147.452C 60.7231 145.487 59.7461 144.272 58.1721 144.272C 57.3521 144.272 56.7741 144.585 56.3281 145.265L 56.3281 142.069L 55.3281 142.073zM 57.9771 145.179C 59.0431 145.179 59.7311 146.108 59.7311 147.542C 59.7311 148.905 59.0201 149.839 57.9771 149.839C 56.9691 149.839 56.3011 148.921 56.3011 147.511C 56.3011 146.1 56.9651 145.182 57.9771 145.182L 57.9771 145.179z"/>
<path style="stroke:none; fill-rule:evenodd; fill:#ff0000" d="M 62.8281 144.472L 61.8281 144.472L 61.8281 150.472L 62.8281 150.472L 62.8281 144.472zM 62.8281 142.073L 61.8281 142.073L 61.8281 143.304L 62.8281 143.304L 62.8281 142.073z"/>
<path style="stroke:none; fill-rule:evenodd; fill:#ff0000" d="M 66.6291 144.472L 65.7311 144.472L 65.7311 142.8L 64.7311 142.8L 64.7311 144.472L 63.8321 144.472L 63.8321 145.268L 64.7311 145.268L 64.7311 149.815C 64.7311 150.421 65.1331 150.765 65.8631 150.765C 66.0861 150.765 66.3131 150.741 66.6251 150.682L 66.6251 149.847C 66.5121 149.936 66.3751 149.964 66.2071 149.964C 65.8321 149.964 65.7271 149.85 65.7271 149.421L 65.7271 145.268L 66.6251 145.268L 66.6291 144.472z"/>
<path style="stroke:none; fill-rule:evenodd; fill:#ff0000" d="M 69.9651 144.272C 68.2621 144.272 67.2311 145.487 67.2311 147.522C 67.2311 149.558 68.2501 150.772 69.9811 150.772C 71.6841 150.772 72.7311 149.561 72.7311 147.569C 72.7311 145.479 71.7231 144.276 69.9691 144.276L 69.9651 144.272zM 69.9771 145.171C 71.0701 145.171 71.7271 146.058 71.7271 147.554C 71.7271 148.968 71.0511 149.866 69.9771 149.866C 68.8951 149.866 68.2271 148.979 68.2271 147.518C 68.2271 146.069 68.8911 145.171 69.9771 145.171z"/>
<path style="stroke:none; fill-rule:evenodd; fill:#ff0000" d="M 74.0271 144.444L 74.0271 150.468L 75.0271 150.468L 75.0271 147.335C 75.0271 146.472 75.2381 145.905 75.6881 145.573C 75.9771 145.354 76.2581 145.288 76.9101 145.276L 76.9101 144.311C 76.7541 144.292 76.6721 144.28 76.5471 144.28C 75.9381 144.28 75.4691 144.647 74.9261 145.546L 74.9261 144.456L 74.0271 144.444z"/>
<path style="stroke:none; fill-rule:evenodd; fill:#ff0000" d="M 81.5821 144.472L 79.9181 149.136L 78.3831 144.472L 77.3631 144.472L 79.3951 150.526L 79.0271 151.479C 78.8791 151.905 78.6601 152.065 78.2581 152.065C 78.1211 152.065 77.9611 152.03 77.7541 151.96L 77.7541 152.815C 77.9451 152.917 78.1451 152.964 78.3951 152.964C 78.7031 152.964 79.0351 152.862 79.2891 152.679C 79.5861 152.464 79.7581 152.21 79.9411 151.729L 82.6171 144.468L 81.5821 144.472z"/>
<path style="stroke:#ed89ed; stroke-dasharray:6,3; stroke-width:1.9133; fill:none" d="M 10.0701 160.429L 29.2151 160.429"/>
<path style="stroke:none; fill-rule:evenodd; fill:#ed89ed" d="M 32.2501 156.3L 32.7071 164.405L 25.7231 160.733"/>
<path style="stroke:#ed89ed; stroke-width:1.9133; fill:none" d="M 32.2501 156.3L 32.7071 164.405L 25.7231 160.733L 32.2501 156.3z"/>
<path style="stroke:none; fill-rule:evenodd; fill:#ed89ed" d="M 37.6291 157.847L 37.6291 163.87L 38.6291 163.87L 38.6291 160.058C 38.6291 159.179 39.2541 158.472 40.0241 158.472C 40.7271 158.472 41.1251 158.909 41.1251 159.686L 41.1251 163.866L 42.1251 163.866L 42.1251 160.054C 42.1251 159.175 42.7501 158.468 43.5201 158.468C 44.2111 158.468 44.6211 158.917 44.6211 159.682L 44.6211 163.862L 45.6211 163.862L 45.6211 159.343C 45.6211 158.265 44.9961 157.663 43.8671 157.663C 43.0631 157.663 42.5741 157.905 42.0121 158.589C 41.6561 157.94 41.1721 157.663 40.3871 157.663C 39.5821 157.663 39.0511 157.96 38.5311 158.686L 38.5311 157.839L 37.6291 157.847z"/>
<path style="stroke:none; fill-rule:evenodd; fill:#ed89ed" d="M 49.5671 157.671C 47.8631 157.671 46.8321 158.886 46.8321 160.921C 46.8321 162.956 47.8521 164.171 49.5821 164.171C 51.2851 164.171 52.3321 162.96 52.3321 160.968C 52.3321 158.878 51.3241 157.675 49.5701 157.675L 49.5671 157.671zM 49.5781 158.573C 50.6721 158.573 51.3281 159.46 51.3281 160.956C 51.3281 162.37 50.6521 163.268 49.5781 163.268C 48.4961 163.268 47.8281 162.382 47.8281 160.921C 47.8281 159.472 48.4921 158.573 49.5781 158.573z"/>
<path style="stroke:none; fill-rule:evenodd; fill:#ed89ed" d="M 58.5271 155.472L 57.5271 155.472L 57.5271 158.608C 57.1291 157.995 56.4921 157.671 55.6951 157.671C 54.1491 157.671 53.1331 158.929 53.1331 160.862C 53.1331 162.909 54.1211 164.167 55.7271 164.167C 56.5431 164.167 57.1131 163.847 57.6291 163.077L 57.6291 163.87L 58.5271 163.87L 58.5271 155.472zM 55.8561 158.573C 56.8751 158.573 57.5241 159.499 57.5241 160.944C 57.5241 162.343 56.8671 163.268 55.8671 163.268C 54.8241 163.268 54.1291 162.331 54.1291 160.921C 54.1291 159.511 54.8201 158.573 55.8561 158.573z"/>
<path style="stroke:none; fill-rule:evenodd; fill:#ed89ed" d="M 64.8281 163.905L 64.8281 157.874L 63.8281 157.874L 63.8281 161.319C 63.8281 162.558 63.1841 163.37 62.1801 163.37C 61.4181 163.37 60.9341 162.909 60.9341 162.179L 60.9341 157.874L 59.9341 157.874L 59.9341 162.526C 59.9341 163.526 60.6911 164.171 61.8831 164.171C 62.7811 164.171 63.3561 163.862 63.9301 163.069L 63.9301 163.909L 64.8281 163.905z"/>
<path style="stroke:none; fill-rule:evenodd; fill:#ed89ed" d="M 66.4261 163.87L 67.4261 163.87L 67.4261 155.472L 66.4261 155.472L 66.4261 163.87z"/>
<path style="stroke:none; fill-rule:evenodd; fill:#ed89ed" d="M 74.2741 163.308C 74.1681 163.37 74.1211 163.37 74.0631 163.37C 73.7231 163.37 73.5311 163.198 73.5311 162.897L 73.5311 159.331C 73.5311 158.257 72.7541 157.675 71.2811 157.675C 70.4141 157.675 69.6951 157.929 69.2931 158.378C 69.0201 158.686 68.9061 159.034 68.8831 159.632L 69.8281 159.632C 69.9061 158.905 70.3321 158.573 71.2151 158.573C 72.0591 158.573 72.5311 158.893 72.5311 159.472L 72.5311 159.725C 72.5311 160.128 72.2971 160.3 71.5551 160.393C 70.2311 160.565 70.0271 160.612 69.6681 160.761C 68.9841 161.046 68.6371 161.589 68.6371 162.374C 68.6371 163.468 69.3911 164.159 70.6061 164.159C 71.3591 164.159 71.9651 163.886 72.6411 163.241C 72.7071 163.874 73.0041 164.159 73.6251 164.159C 73.8171 164.159 73.9651 164.136 74.2771 164.054L 74.2741 163.308zM 72.5271 162.011C 72.5271 162.339 72.4411 162.542 72.1601 162.815C 71.7811 163.179 71.3241 163.37 70.7771 163.37C 70.0551 163.37 69.6291 163.007 69.6291 162.378C 69.6291 161.729 70.0391 161.397 71.0311 161.241C 72.0121 161.1 72.2111 161.054 72.5241 160.901L 72.5271 162.011z"/>
<path style="stroke:none; fill-rule:evenodd; fill:#ed89ed" d="M 77.4261 157.87L 76.5271 157.87L 76.5271 156.198L 75.5271 156.198L 75.5271 157.87L 74.6291 157.87L 74.6291 158.667L 75.5271 158.667L 75.5271 163.214C 75.5271 163.819 75.9301 164.163 76.6601 164.163C 76.8831 164.163 77.1091 164.14 77.4221 164.081L 77.4221 163.245C 77.3091 163.335 77.1721 163.362 77.0041 163.362C 76.6291 163.362 76.5241 163.249 76.5241 162.819L 76.5241 158.667L 77.4221 158.667L 77.4261 157.87z"/>
<path style="stroke:none; fill-rule:evenodd; fill:#ed89ed" d="M 80.8631 157.671C 79.1601 157.671 78.1291 158.886 78.1291 160.921C 78.1291 162.956 79.1491 164.171 80.8791 164.171C 82.5821 164.171 83.6291 162.96 83.6291 160.968C 83.6291 158.878 82.6211 157.675 80.8671 157.675L 80.8631 157.671zM 80.8791 158.573C 81.9731 158.573 82.6291 159.46 82.6291 160.956C 82.6291 162.37 81.9531 163.268 80.8791 163.268C 79.7971 163.268 79.1291 162.382 79.1291 160.921C 79.1291 159.472 79.7931 158.573 80.8791 158.573z"/>
<path style="stroke:none; fill-rule:evenodd; fill:#ed89ed" d="M 84.9261 157.847L 84.9261 163.87L 85.9261 163.87L 85.9261 160.737C 85.9261 159.874 86.1371 159.308 86.5861 158.975C 86.8751 158.757 87.1561 158.69 87.8091 158.679L 87.8091 157.714C 87.6521 157.694 87.5701 157.682 87.4451 157.682C 86.8361 157.682 86.3671 158.05 85.8241 158.948L 85.8241 157.858L 84.9261 157.847z"/>
<path style="stroke:none; fill-rule:evenodd; fill:#ed89ed" d="M 92.3831 157.87L 90.7191 162.534L 89.1841 157.87L 88.1641 157.87L 90.1951 163.925L 89.8281 164.878C 89.6801 165.304 89.4611 165.464 89.0591 165.464C 88.9221 165.464 88.7621 165.429 88.5551 165.358L 88.5551 166.214C 88.7461 166.315 88.9451 166.362 89.1951 166.362C 89.5041 166.362 89.8361 166.261 90.0901 166.077C 90.3871 165.862 90.5591 165.608 90.7421 165.128L 93.4181 157.866L 92.3831 157.87z"/>
<path style="stroke:#0000ff; stroke-width:1.9133; fill:none" d="M 10.0671 133.628L 31.1251 133.628"/>
<path style="stroke:#0000ff; stroke-width:1.9133; fill:none" d="M 23.4771 131.714L 31.1291 133.624L 23.4771 135.534"/>
<path style="stroke:#0000ff; stroke-width:1.9133; fill:none" d="M 230.047 47.8581L 258.727 81.3191"/>
<path style="stroke:#0000ff; stroke-width:1.9133; fill:none" d="M 233.574 54.9131L 230.047 47.8581L 236.477 52.4211"/>
<path style="stroke:#0000ff; stroke-width:1.9133; fill:none" d="M 255.199 74.2651L 258.727 81.3191L 252.297 76.7571"/>
</g>
</svg>