<?xml version="1.0" encoding="ISO-8859-1" standalone="yes"?>
<svg width="211.458" height="147.049">
  <defs> 
    <marker id="ArrowEnd" viewBox="0 0 10 10" refX="0" refY="5" 
     markerUnits="strokeWidth" 
     markerWidth="4" 
     markerHeight="3" 
     orient="auto"> 
        <path d="M 0 0 L 10 5 L 0 10 z" /> 
    </marker>
    <marker id="ArrowStart" viewBox="0 0 10 10" refX="10" refY="5" 
     markerUnits="strokeWidth" 
     markerWidth="4" 
     markerHeight="3" 
     orient="auto"> 
        <path d="M 10 0 L 0 5 L 10 10 z" /> 
    </marker> </defs>
<g>
<path style="stroke:none; fill-rule:evenodd; fill:#000000" d="M 21.9615 66.899L 24.6568 66.899C 25.3248 66.899 25.856 66.703 26.317 66.293C 26.8326 65.828 27.0592 65.281 27.0592 64.5C 27.0592 62.902 26.106 62.004 24.4068 62.004L 20.8599 62.004L 20.8599 70.504L 21.9576 70.504L 21.9615 66.899zM 21.9615 66L 21.9615 62.902L 24.2701 62.902C 25.3287 62.902 25.9576 63.481 25.9576 64.449C 25.9576 65.414 25.3287 65.996 24.2701 65.996L 21.9615 66z"/>
<path style="stroke:none; fill-rule:evenodd; fill:#000000" d="M 35.2584 64.649C 34.9185 62.801 33.8404 61.899 31.9654 61.899C 30.8209 61.899 29.8912 62.258 29.2623 62.957C 28.4888 63.793 28.067 65.004 28.067 66.379C 28.067 67.774 28.5006 68.977 29.3053 69.801C 29.9576 70.473 30.8053 70.789 31.9146 70.789C 34.0006 70.789 35.1724 69.664 35.4303 67.399L 34.3092 67.399C 34.2154 68 34.0982 68.41 33.9263 68.758C 33.5787 69.477 32.8521 69.887 31.9381 69.887C 30.2427 69.887 29.1685 68.516 29.1685 66.363C 29.1685 64.152 30.1959 62.793 31.8482 62.793C 32.5357 62.793 33.1803 63.004 33.5318 63.336C 33.8443 63.629 34.0201 63.996 34.149 64.641L 35.2584 64.649z"/>
<path style="stroke:none; fill-rule:evenodd; fill:#000000" d="M 3.2154 29.098C 2.0787 30.625 1.35991 32.742 1.35991 34.574C 1.35991 36.414 2.07481 38.535 3.2154 40.059L 3.8404 40.059C 2.82481 38.395 2.25841 36.438 2.25841 34.574C 2.25841 32.723 2.82091 30.754 3.8404 29.098L 3.2154 29.098z"/>
<path style="stroke:none; fill-rule:evenodd; fill:#000000" d="M 9.4537 33.203C 9.44201 31.988 8.66071 31.301 7.27011 31.301C 5.8717 31.301 4.96151 32.039 4.96151 33.18C 4.96151 34.141 5.43811 34.602 6.84821 34.953L 7.73491 35.176C 8.3912 35.336 8.65681 35.586 8.65681 36.031C 8.65681 36.606 8.0904 36.992 7.25061 36.992C 6.73101 36.992 6.29351 36.84 6.05131 36.578C 5.9029 36.402 5.83261 36.223 5.7779 35.781L 4.76231 35.781C 4.80531 37.207 5.5904 37.895 7.17241 37.895C 8.69201 37.895 9.6646 37.133 9.6646 35.945C 9.6646 35.031 9.1646 34.524 7.98101 34.231L 7.07091 34.008C 6.29741 33.82 5.96931 33.563 5.96931 33.129C 5.96931 32.567 6.46151 32.203 7.24271 32.203C 8.01231 32.203 8.42631 32.547 8.44591 33.207L 9.4537 33.203z"/>
<path style="stroke:none; fill-rule:evenodd; fill:#000000" d="M 16.1607 34.899C 16.1607 33.957 16.0943 33.391 15.9185 32.93C 15.524 31.918 14.5943 31.301 13.4537 31.301C 11.7584 31.301 10.6646 32.617 10.6646 34.637C 10.6646 36.656 11.7154 37.899 13.4107 37.899C 14.7935 37.899 15.7545 37.098 15.9967 35.75L 15.0279 35.75C 14.7623 36.57 14.2193 36.996 13.4459 36.996C 12.8365 36.996 12.3131 36.719 11.9927 36.203C 11.7623 35.856 11.6842 35.504 11.6724 34.899L 16.1607 34.899zM 11.6607 34.086C 11.7388 32.961 12.4263 32.227 13.4029 32.227C 14.356 32.227 15.0865 33.016 15.0865 34.016C 15.0865 34.035 15.0865 34.059 15.0748 34.082L 11.6607 34.086z"/>
<path style="stroke:none; fill-rule:evenodd; fill:#000000" d="M 17.4615 31.477L 17.4615 37.598L 18.4615 37.598L 18.4615 34.188C 18.4615 32.926 19.1099 32.098 20.106 32.098C 20.8717 32.098 21.356 32.57 21.356 33.313L 21.356 37.594L 22.356 37.594L 22.356 32.969C 22.356 31.953 21.5943 31.297 20.4068 31.297C 19.4888 31.297 18.9029 31.649 18.3599 32.5L 18.3599 31.473L 17.4615 31.477z"/>
<path style="stroke:none; fill-rule:evenodd; fill:#000000" d="M 28.1529 33.203C 28.1412 31.988 27.3599 31.301 25.9693 31.301C 24.5709 31.301 23.6607 32.039 23.6607 33.18C 23.6607 34.141 24.1373 34.602 25.5474 34.953L 26.4342 35.176C 27.0904 35.336 27.356 35.586 27.356 36.031C 27.356 36.606 26.7896 36.992 25.9498 36.992C 25.4303 36.992 24.9927 36.84 24.7506 36.578C 24.6021 36.402 24.5318 36.223 24.4771 35.781L 23.4615 35.781C 23.5045 37.207 24.2896 37.895 25.8717 37.895C 27.3912 37.895 28.3638 37.133 28.3638 35.945C 28.3638 35.031 27.8638 34.524 26.6803 34.231L 25.7701 34.008C 24.9967 33.82 24.6685 33.563 24.6685 33.129C 24.6685 32.567 25.1607 32.203 25.942 32.203C 26.7115 32.203 27.1256 32.547 27.1451 33.207L 28.1529 33.203z"/>
<path style="stroke:none; fill-rule:evenodd; fill:#000000" d="M 31.9967 31.297C 30.2935 31.297 29.2623 32.531 29.2623 34.598C 29.2623 36.66 30.2818 37.895 32.0123 37.895C 33.7154 37.895 34.7623 36.664 34.7623 34.645C 34.7623 32.52 33.7545 31.297 32.0006 31.297L 31.9967 31.297zM 32.0084 32.199C 33.1021 32.199 33.7584 33.106 33.7584 34.633C 33.7584 36.078 33.0826 36.996 32.0084 36.996C 30.9263 36.996 30.2584 36.094 30.2584 34.598C 30.2584 33.117 30.9224 32.199 32.0084 32.199z"/>
<path style="stroke:none; fill-rule:evenodd; fill:#000000" d="M 36.1607 31.477L 36.1607 37.598L 37.1607 37.598L 37.1607 34.402C 37.1607 33.524 37.3795 32.949 37.8365 32.606C 38.1334 32.383 38.4224 32.313 39.0904 32.301L 39.0904 31.336C 38.9303 31.317 38.8482 31.305 38.7193 31.305C 38.0943 31.305 37.6177 31.68 37.0592 32.59L 37.0592 31.481L 36.1607 31.477z"/>
<path style="stroke:none; fill-rule:evenodd; fill:#000000" d="M 43.7701 31.5L 42.0865 36.25L 40.5318 31.5L 39.5006 31.5L 41.5553 37.637L 41.1842 38.602C 41.0357 39.031 40.8131 39.195 40.4068 39.195C 40.2701 39.195 40.106 39.168 39.8951 39.109L 39.8951 39.949C 40.0904 40.047 40.2896 40.094 40.5435 40.094C 40.856 40.094 41.192 39.992 41.4498 39.805C 41.7506 39.586 41.9263 39.332 42.1099 38.844L 44.817 31.496L 43.7701 31.5z"/>
<path style="stroke:none; fill-rule:evenodd; fill:#000000" d="M 9.66071 46.5C 9.66071 45.559 9.59431 44.992 9.41851 44.531C 9.02401 43.52 8.09431 42.902 6.9537 42.902C 5.25841 42.902 4.1646 44.219 4.1646 46.238C 4.1646 48.258 5.2154 49.5 6.91071 49.5C 8.29351 49.5 9.25451 48.699 9.4967 47.352L 8.5279 47.352C 8.26231 48.172 7.71931 48.598 6.94591 48.598C 6.33651 48.598 5.81311 48.32 5.49271 47.805C 5.26231 47.457 5.1842 47.106 5.17241 46.5L 9.66071 46.5zM 5.16071 45.688C 5.23881 44.563 5.92631 43.828 6.9029 43.828C 7.85601 43.828 8.58651 44.617 8.58651 45.617C 8.58651 45.637 8.58651 45.66 8.57481 45.684L 5.16071 45.688z"/>
<path style="stroke:none; fill-rule:evenodd; fill:#000000" d="M 10.9615 49.199L 11.9615 49.199L 11.9615 40.699L 10.9615 40.699L 10.9615 49.199z"/>
<path style="stroke:none; fill-rule:evenodd; fill:#000000" d="M 18.7584 46.5C 18.7584 45.559 18.692 44.992 18.5162 44.531C 18.1217 43.52 17.192 42.902 16.0513 42.902C 14.356 42.902 13.2623 44.219 13.2623 46.238C 13.2623 48.258 14.3131 49.5 16.0084 49.5C 17.3912 49.5 18.3521 48.699 18.5943 47.352L 17.6256 47.352C 17.3599 48.172 16.817 48.598 16.0435 48.598C 15.4342 48.598 14.9107 48.32 14.5904 47.805C 14.3599 47.457 14.2818 47.106 14.2701 46.5L 18.7584 46.5zM 14.2584 45.688C 14.3365 44.563 15.024 43.828 16.0006 43.828C 16.9537 43.828 17.6842 44.617 17.6842 45.617C 17.6842 45.637 17.6842 45.66 17.6724 45.684L 14.2584 45.688z"/>
<path style="stroke:none; fill-rule:evenodd; fill:#000000" d="M 20.0592 43.074L 20.0592 49.195L 21.0592 49.195L 21.0592 45.317C 21.0592 44.422 21.6842 43.699 22.4537 43.699C 23.1568 43.699 23.5553 44.149 23.5553 44.938L 23.5553 49.195L 24.5553 49.195L 24.5553 45.317C 24.5553 44.422 25.2037 43.699 26.0045 43.699C 26.7232 43.699 27.149 44.16 27.149 44.938L 27.149 49.195L 28.149 49.195L 28.149 44.606C 28.149 43.508 27.5162 42.902 26.3717 42.902C 25.5553 42.902 25.0631 43.152 24.4888 43.863C 24.1295 43.192 23.6373 42.902 22.8404 42.902C 22.024 42.902 21.4849 43.207 20.9576 43.942L 20.9576 43.078L 20.0592 43.074z"/>
<path style="stroke:none; fill-rule:evenodd; fill:#000000" d="M 34.8599 46.5C 34.8599 45.559 34.7935 44.992 34.6177 44.531C 34.2232 43.52 33.2935 42.902 32.1529 42.902C 30.4576 42.902 29.3638 44.219 29.3638 46.238C 29.3638 48.258 30.4146 49.5 32.1099 49.5C 33.4927 49.5 34.4537 48.699 34.6959 47.352L 33.7271 47.352C 33.4615 48.172 32.9185 48.598 32.1451 48.598C 31.5357 48.598 31.0123 48.32 30.692 47.805C 30.4615 47.457 30.3834 47.106 30.3717 46.5L 34.8599 46.5zM 30.3599 45.688C 30.4381 44.563 31.1256 43.828 32.1021 43.828C 33.0553 43.828 33.7857 44.617 33.7857 45.617C 33.7857 45.637 33.7857 45.66 33.774 45.684L 30.3599 45.688z"/>
<path style="stroke:none; fill-rule:evenodd; fill:#000000" d="M 36.1607 43.074L 36.1607 49.195L 37.1607 49.195L 37.1607 45.785C 37.1607 44.524 37.8092 43.695 38.8053 43.695C 39.5709 43.695 40.0553 44.168 40.0553 44.91L 40.0553 49.192L 41.0553 49.192L 41.0553 44.567C 41.0553 43.551 40.2935 42.895 39.106 42.895C 38.1881 42.895 37.6021 43.246 37.0592 44.098L 37.0592 43.07L 36.1607 43.074z"/>
<path style="stroke:none; fill-rule:evenodd; fill:#000000" d="M 44.8599 43.098L 43.8599 43.098L 43.8599 41.43L 42.8599 41.43L 42.8599 43.098L 42.0631 43.098L 42.0631 43.895L 42.8599 43.895L 42.8599 48.524C 42.8599 49.141 43.2857 49.492 44.0513 49.492C 44.2857 49.492 44.524 49.469 44.856 49.41L 44.856 48.57C 44.731 48.664 44.5787 48.695 44.3912 48.695C 43.9732 48.695 43.8599 48.578 43.8599 48.141L 43.8599 43.899L 44.8599 43.899L 44.8599 43.098z"/>
<path style="stroke:none; fill-rule:evenodd; fill:#000000" d="M 50.1529 44.805C 50.1412 43.59 49.3599 42.902 47.9693 42.902C 46.5709 42.902 45.6607 43.641 45.6607 44.781C 45.6607 45.742 46.1373 46.203 47.5474 46.555L 48.4342 46.777C 49.0904 46.938 49.356 47.188 49.356 47.633C 49.356 48.207 48.7896 48.594 47.9498 48.594C 47.4303 48.594 46.9927 48.442 46.7506 48.18C 46.6021 48.004 46.5318 47.824 46.4771 47.383L 45.4615 47.383C 45.5045 48.809 46.2896 49.496 47.8717 49.496C 49.3912 49.496 50.3638 48.735 50.3638 47.547C 50.3638 46.633 49.8638 46.125 48.6803 45.832L 47.7701 45.609C 46.9967 45.422 46.6685 45.164 46.6685 44.731C 46.6685 44.168 47.1607 43.805 47.942 43.805C 48.7115 43.805 49.1256 44.149 49.1451 44.809L 50.1529 44.805z"/>
<path style="stroke:none; fill-rule:evenodd; fill:#000000" d="M 51.9459 51.664C 53.1177 50.141 53.856 48.02 53.856 46.192C 53.856 44.352 53.1177 42.231 51.9459 40.703L 51.3013 40.703C 52.3638 42.371 52.9576 44.328 52.9576 46.192C 52.9576 48.043 52.3677 50.012 51.3013 51.664L 51.9459 51.664z"/>
<path style="stroke:none; fill-rule:evenodd; fill:#000000" d="M 105.258 40.5L 105.258 44.399L 106.357 44.399L 106.357 35.899L 105.258 35.899L 105.258 39.598L 100.962 39.598L 100.962 35.899L 99.8635 35.899L 99.8635 44.399L 100.962 44.399L 100.962 40.5L 105.258 40.5z"/>
<path style="stroke:none; fill-rule:evenodd; fill:#000000" d="M 114.958 38.551C 114.618 36.703 113.54 35.801 111.665 35.801C 110.521 35.801 109.59 36.16 108.962 36.859C 108.189 37.695 107.766 38.906 107.766 40.281C 107.766 41.676 108.2 42.879 109.005 43.703C 109.657 44.375 110.505 44.692 111.613 44.692C 113.7 44.692 114.872 43.567 115.13 41.301L 114.008 41.301C 113.915 41.902 113.798 42.313 113.626 42.66C 113.277 43.379 112.551 43.789 111.637 43.789C 109.941 43.789 108.868 42.418 108.868 40.266C 108.868 38.055 109.896 36.695 111.548 36.695C 112.234 36.695 112.88 36.906 113.232 37.238C 113.544 37.531 113.719 37.899 113.848 38.543L 114.958 38.551z"/>
<path style="stroke:none; fill-rule:evenodd; fill:#000000" d="M 73.0165 0C 71.8795 1.52699 71.1605 3.645 71.1605 5.47699C 71.1605 7.317 71.8755 9.438 73.0165 10.961L 73.6415 10.961C 72.6255 9.297 72.0595 7.34 72.0595 5.47699C 72.0595 3.625 72.6215 1.65599 73.6415 0L 73.0165 0z"/>
<path style="stroke:none; fill-rule:evenodd; fill:#000000" d="M 79.1525 4.106C 79.1415 2.89099 78.3595 2.203 76.9695 2.203C 75.5705 2.203 74.6605 2.942 74.6605 4.082C 74.6605 5.043 75.1375 5.504 76.5475 5.856L 77.4345 6.078C 78.0905 6.23799 78.3565 6.48799 78.3565 6.93399C 78.3565 7.508 77.7895 7.895 76.9495 7.895C 76.4305 7.895 75.9925 7.742 75.7505 7.481C 75.6025 7.30499 75.5315 7.125 75.4775 6.68399L 74.4615 6.68399C 74.5045 8.10899 75.2895 8.797 76.8715 8.797C 78.3915 8.797 79.3635 8.035 79.3635 6.84799C 79.3635 5.93399 78.8635 5.42599 77.6805 5.133L 76.7705 4.91C 75.9965 4.72299 75.6685 4.465 75.6685 4.03099C 75.6685 3.46899 76.1605 3.106 76.9415 3.106C 77.7115 3.106 78.1255 3.44899 78.1455 4.10899L 79.1525 4.106z"/>
<path style="stroke:none; fill-rule:evenodd; fill:#000000" d="M 85.9615 5.797C 85.9615 4.856 85.8955 4.289 85.7195 3.828C 85.3245 2.817 84.3955 2.19899 83.2545 2.19899C 81.5595 2.19899 80.4655 3.51599 80.4655 5.535C 80.4655 7.55499 81.5165 8.797 83.2115 8.797C 84.5945 8.797 85.5555 7.996 85.7975 6.649L 84.8285 6.649C 84.5635 7.46899 84.0205 7.895 83.2465 7.895C 82.6375 7.895 82.1135 7.617 81.7935 7.10199C 81.5635 6.754 81.4845 6.40199 81.4735 5.797L 85.9615 5.797zM 81.4615 4.98799C 81.5395 3.86299 82.2275 3.129 83.2035 3.129C 84.1565 3.129 84.8875 3.918 84.8875 4.918C 84.8875 4.938 84.8875 4.961 84.8755 4.985L 81.4615 4.98799z"/>
<path style="stroke:none; fill-rule:evenodd; fill:#000000" d="M 87.1605 2.375L 87.1605 8.496L 88.1605 8.496L 88.1605 5.086C 88.1605 3.82399 88.8095 2.996 89.8055 2.996C 90.5705 2.996 91.0555 3.46899 91.0555 4.211L 91.0555 8.492L 92.0555 8.492L 92.0555 3.867C 92.0555 2.85199 91.2935 2.19499 90.1065 2.19499C 89.1885 2.19499 88.6025 2.547 88.0595 3.399L 88.0595 2.371L 87.1605 2.375z"/>
<path style="stroke:none; fill-rule:evenodd; fill:#000000" d="M 97.9535 4.106C 97.9415 2.89099 97.1605 2.203 95.7705 2.203C 94.3715 2.203 93.4615 2.942 93.4615 4.082C 93.4615 5.043 93.9385 5.504 95.3485 5.856L 96.2345 6.078C 96.8915 6.23799 97.1565 6.48799 97.1565 6.93399C 97.1565 7.508 96.5905 7.895 95.7505 7.895C 95.2315 7.895 94.7935 7.742 94.5515 7.481C 94.4025 7.30499 94.3325 7.125 94.2775 6.68399L 93.2625 6.68399C 93.3055 8.10899 94.0905 8.797 95.6725 8.797C 97.1915 8.797 98.1645 8.035 98.1645 6.84799C 98.1645 5.93399 97.6645 5.42599 96.4815 5.133L 95.5705 4.91C 94.7975 4.72299 94.4695 4.465 94.4695 4.03099C 94.4695 3.46899 94.9615 3.106 95.7425 3.106C 96.5125 3.106 96.9265 3.44899 96.9455 4.10899L 97.9535 4.106z"/>
<path style="stroke:none; fill-rule:evenodd; fill:#000000" d="M 101.798 2.19899C 100.094 2.19899 99.0635 3.43399 99.0635 5.5C 99.0635 7.563 100.083 8.797 101.814 8.797C 103.516 8.797 104.564 7.567 104.564 5.547C 104.564 3.422 103.555 2.19899 101.801 2.19899L 101.798 2.19899zM 101.81 3.09799C 102.902 3.09799 103.56 4.004 103.56 5.53099C 103.56 6.97699 102.883 7.895 101.81 7.895C 100.728 7.895 100.06 6.992 100.06 5.496C 100.06 4.01599 100.723 3.09799 101.81 3.09799z"/>
<path style="stroke:none; fill-rule:evenodd; fill:#000000" d="M 105.962 2.375L 105.962 8.496L 106.962 8.496L 106.962 5.30099C 106.962 4.422 107.18 3.84799 107.637 3.504C 107.935 3.28099 108.223 3.211 108.891 3.19899L 108.891 2.235C 108.732 2.215 108.65 2.203 108.521 2.203C 107.896 2.203 107.419 2.578 106.859 3.48799L 106.859 2.379L 105.962 2.375z"/>
<path style="stroke:none; fill-rule:evenodd; fill:#000000" d="M 113.473 2.399L 111.79 7.149L 110.234 2.399L 109.204 2.399L 111.258 8.535L 110.887 9.5C 110.738 9.92999 110.516 10.094 110.109 10.094C 109.973 10.094 109.81 10.067 109.598 10.008L 109.598 10.848C 109.794 10.945 109.993 10.992 110.247 10.992C 110.56 10.992 110.896 10.891 111.152 10.703C 111.454 10.485 111.63 10.231 111.814 9.742L 114.521 2.395L 113.473 2.399z"/>
<path style="stroke:none; fill-rule:evenodd; fill:#000000" d="M 78.9385 16.055C 78.8915 15.445 78.7665 15.051 78.5355 14.703C 78.1215 14.141 77.3955 13.805 76.5555 13.805C 74.9305 13.805 73.8675 15.121 73.8675 17.164C 73.8675 19.145 74.9025 20.402 76.5435 20.402C 77.9845 20.402 78.8955 19.52 79.0125 18.012L 78.0435 18.012C 77.8835 19.004 77.3875 19.504 76.5665 19.504C 75.5085 19.504 74.8715 18.625 74.8715 17.164C 74.8715 15.625 75.4925 14.707 76.5435 14.707C 77.3525 14.707 77.8565 15.192 77.9735 16.059L 78.9385 16.055z"/>
<path style="stroke:none; fill-rule:evenodd; fill:#000000" d="M 82.3995 13.797C 80.6955 13.797 79.6645 15.031 79.6645 17.098C 79.6645 19.16 80.6845 20.395 82.4145 20.395C 84.1175 20.395 85.1645 19.164 85.1645 17.145C 85.1645 15.02 84.1565 13.797 82.4025 13.797L 82.3995 13.797zM 82.4105 14.699C 83.5045 14.699 84.1605 15.606 84.1605 17.133C 84.1605 18.578 83.4845 19.496 82.4105 19.496C 81.3285 19.496 80.6605 18.594 80.6605 17.098C 80.6605 15.617 81.3245 14.699 82.4105 14.699z"/>
<path style="stroke:none; fill-rule:evenodd; fill:#000000" d="M 86.5595 13.977L 86.5595 20.098L 87.5595 20.098L 87.5595 16.688C 87.5595 15.426 88.2075 14.598 89.2035 14.598C 89.9695 14.598 90.4535 15.07 90.4535 15.813L 90.4535 20.094L 91.4535 20.094L 91.4535 15.469C 91.4535 14.453 90.6915 13.797 89.5045 13.797C 88.5865 13.797 88.0005 14.149 87.4575 15L 87.4575 13.973L 86.5595 13.977z"/>
<path style="stroke:none; fill-rule:evenodd; fill:#000000" d="M 93.0595 14L 93.0595 20.992C 93.0595 21.598 92.8675 21.793 92.2815 21.793C 92.2505 21.793 92.2505 21.793 92.0555 21.793L 92.0555 22.559C 92.1725 22.578 92.2315 22.59 92.3835 22.59C 93.4845 22.59 94.0635 22.152 94.0635 21.328L 94.0635 13.992L 93.0595 14zM 94.0595 11.598L 93.0595 11.598L 93.0595 12.797L 94.0595 12.797L 94.0595 11.598z"/>
<path style="stroke:none; fill-rule:evenodd; fill:#000000" d="M 100.359 20.129L 100.359 14L 99.3595 14L 99.3595 17.508C 99.3595 18.77 98.7155 19.598 97.7115 19.598C 96.9495 19.598 96.4655 19.129 96.4655 18.383L 96.4655 14L 95.4655 14L 95.4655 18.727C 95.4655 19.742 96.2235 20.399 97.4145 20.399C 98.3135 20.399 98.8875 20.086 99.4615 19.277L 99.4615 20.129L 100.359 20.129z"/>
<path style="stroke:none; fill-rule:evenodd; fill:#000000" d="M 102.06 13.977L 102.06 20.098L 103.06 20.098L 103.06 16.688C 103.06 15.426 103.708 14.598 104.704 14.598C 105.469 14.598 105.954 15.07 105.954 15.813L 105.954 20.094L 106.954 20.094L 106.954 15.469C 106.954 14.453 106.191 13.797 105.005 13.797C 104.087 13.797 103.501 14.149 102.958 15L 102.958 13.973L 102.06 13.977z"/>
<path style="stroke:none; fill-rule:evenodd; fill:#000000" d="M 113.234 16.055C 113.189 15.445 113.064 15.051 112.833 14.703C 112.419 14.141 111.691 13.805 110.853 13.805C 109.228 13.805 108.165 15.121 108.165 17.164C 108.165 19.145 109.2 20.402 110.84 20.402C 112.282 20.402 113.191 19.52 113.31 18.012L 112.34 18.012C 112.18 19.004 111.685 19.504 110.863 19.504C 109.805 19.504 109.169 18.625 109.169 17.164C 109.169 15.625 109.79 14.707 110.84 14.707C 111.65 14.707 112.152 15.192 112.271 16.059L 113.234 16.055z"/>
<path style="stroke:none; fill-rule:evenodd; fill:#000000" d="M 116.56 14L 115.56 14L 115.56 12.332L 114.56 12.332L 114.56 14L 113.762 14L 113.762 14.797L 114.56 14.797L 114.56 19.426C 114.56 20.043 114.984 20.395 115.751 20.395C 115.984 20.395 116.223 20.371 116.555 20.313L 116.555 19.473C 116.43 19.567 116.277 19.598 116.09 19.598C 115.673 19.598 115.56 19.481 115.56 19.043L 115.56 14.801L 116.56 14.801L 116.56 14z"/>
<path style="stroke:none; fill-rule:evenodd; fill:#000000" d="M 118.56 14L 117.56 14L 117.56 20.098L 118.56 20.098L 118.56 14zM 118.56 11.598L 117.56 11.598L 117.56 12.84L 118.56 12.84L 118.56 11.598z"/>
<path style="stroke:none; fill-rule:evenodd; fill:#000000" d="M 122.497 13.797C 120.794 13.797 119.762 15.031 119.762 17.098C 119.762 19.16 120.782 20.395 122.512 20.395C 124.215 20.395 125.262 19.164 125.262 17.145C 125.262 15.02 124.255 13.797 122.501 13.797L 122.497 13.797zM 122.508 14.699C 123.603 14.699 124.258 15.606 124.258 17.133C 124.258 18.578 123.583 19.496 122.508 19.496C 121.426 19.496 120.758 18.594 120.758 17.098C 120.758 15.617 121.423 14.699 122.508 14.699z"/>
<path style="stroke:none; fill-rule:evenodd; fill:#000000" d="M 126.661 13.977L 126.661 20.098L 127.661 20.098L 127.661 16.688C 127.661 15.426 128.31 14.598 129.305 14.598C 130.07 14.598 130.555 15.07 130.555 15.813L 130.555 20.094L 131.555 20.094L 131.555 15.469C 131.555 14.453 130.794 13.797 129.607 13.797C 128.689 13.797 128.103 14.149 127.56 15L 127.56 13.973L 126.661 13.977z"/>
<path style="stroke:none; fill-rule:evenodd; fill:#000000" d="M 137.353 15.703C 137.34 14.488 136.56 13.801 135.169 13.801C 133.771 13.801 132.859 14.539 132.859 15.68C 132.859 16.641 133.337 17.102 134.747 17.453L 135.633 17.676C 136.29 17.836 136.555 18.086 136.555 18.531C 136.555 19.106 135.988 19.492 135.15 19.492C 134.63 19.492 134.191 19.34 133.95 19.078C 133.801 18.902 133.732 18.723 133.676 18.281L 132.661 18.281C 132.704 19.707 133.488 20.395 135.07 20.395C 136.59 20.395 137.564 19.633 137.564 18.445C 137.564 17.531 137.064 17.024 135.88 16.731L 134.969 16.508C 134.195 16.32 133.868 16.063 133.868 15.629C 133.868 15.067 134.359 14.703 135.141 14.703C 135.911 14.703 136.325 15.047 136.344 15.707L 137.353 15.703z"/>
<path style="stroke:none; fill-rule:evenodd; fill:#000000" d="M 139.146 22.563C 140.316 21.039 141.055 18.918 141.055 17.09C 141.055 15.25 140.316 13.129 139.146 11.602L 138.501 11.602C 139.564 13.27 140.157 15.227 140.157 17.09C 140.157 18.942 139.566 20.91 138.501 22.563L 139.146 22.563z"/>
<path style="stroke:none; fill-rule:evenodd; fill:#000000" d="M 77.9615 104.699L 76.9615 104.699L 76.9615 107.871C 76.5555 107.234 75.9025 106.899 75.0865 106.899C 73.5045 106.899 72.4655 108.18 72.4655 110.141C 72.4655 112.215 73.4775 113.496 75.1175 113.496C 75.9535 113.496 76.5355 113.176 77.0595 112.395L 77.0595 113.195L 77.9575 113.195L 77.9615 104.699zM 75.2385 107.797C 76.2895 107.797 76.9575 108.742 76.9575 110.219C 76.9575 111.649 76.2815 112.594 75.2505 112.594C 74.1765 112.594 73.4615 111.641 73.4615 110.195C 73.4615 108.754 74.1725 107.797 75.2385 107.797z"/>
<path style="stroke:none; fill-rule:evenodd; fill:#000000" d="M 79.5595 113.199L 83.4265 113.199C 84.2345 113.199 84.8365 112.981 85.2935 112.488C 85.7155 112.047 85.9495 111.441 85.9495 110.777C 85.9495 109.754 85.4695 109.137 84.3485 108.715C 85.1335 108.356 85.5475 107.727 85.5475 106.863C 85.5475 106.246 85.3135 105.699 84.8675 105.301C 84.4265 104.895 83.8405 104.707 83.0165 104.707L 79.5475 104.707L 79.5595 113.199zM 80.6605 108.399L 80.6605 105.602L 82.7585 105.602C 83.3635 105.602 83.6995 105.684 83.9925 105.914C 84.2935 106.152 84.4575 106.516 84.4575 107C 84.4575 107.469 84.2975 107.844 83.9925 108.086C 83.7035 108.313 83.3635 108.399 82.7585 108.399L 80.6605 108.399zM 80.6605 112.297L 80.6605 109.297L 83.3205 109.297C 83.8485 109.297 84.1995 109.426 84.4575 109.715C 84.7155 109.988 84.8565 110.371 84.8565 110.801C 84.8565 111.219 84.7155 111.598 84.4575 111.875C 84.1995 112.16 83.8485 112.293 83.3205 112.293L 80.6605 112.297z"/>
<path style="stroke:none; fill-rule:evenodd; fill:#000000" d="M 94.6605 108.699L 91.0635 108.699L 91.0635 109.598L 93.6605 109.598L 93.6605 109.84C 93.6605 111.438 92.5435 112.594 91.0005 112.594C 90.1415 112.594 89.3635 112.277 88.8635 111.719C 88.3095 111.106 87.9695 110.074 87.9695 109.012C 87.9695 106.895 89.1525 105.5 90.9415 105.5C 92.2275 105.5 93.1565 106.176 93.3915 107.293L 94.4925 107.293C 94.1915 105.586 92.8875 104.602 90.9415 104.602C 89.9065 104.602 89.0665 104.867 88.4065 105.414C 87.4305 106.227 86.8715 107.543 86.8715 109.07C 86.8715 111.676 88.4695 113.496 90.7665 113.496C 91.9185 113.496 92.8405 113.063 93.6685 112.133L 93.9455 113.274L 94.6645 113.274L 94.6605 108.699z"/>
<path style="stroke:none; fill-rule:evenodd; fill:#000000" d="M 143.273 113.199L 145.609 107.102L 144.521 107.102L 142.801 112.047L 141.176 107.102L 140.087 107.102L 142.223 113.199L 143.273 113.199z"/>
<path style="stroke:none; fill-rule:evenodd; fill:#000000" d="M 146.758 113.199L 150.626 113.199C 151.435 113.199 152.036 112.981 152.493 112.488C 152.915 112.047 153.15 111.441 153.15 110.777C 153.15 109.754 152.669 109.137 151.548 108.715C 152.333 108.356 152.747 107.727 152.747 106.863C 152.747 106.246 152.512 105.699 152.066 105.301C 151.626 104.895 151.04 104.707 150.215 104.707L 146.747 104.707L 146.758 113.199zM 147.859 108.399L 147.859 105.602L 149.958 105.602C 150.564 105.602 150.9 105.684 151.191 105.914C 151.493 106.152 151.657 106.516 151.657 107C 151.657 107.469 151.497 107.844 151.191 108.086C 150.902 108.313 150.564 108.399 149.958 108.399L 147.859 108.399zM 147.859 112.297L 147.859 109.297L 150.521 109.297C 151.048 109.297 151.4 109.426 151.657 109.715C 151.915 109.988 152.055 110.371 152.055 110.801C 152.055 111.219 151.915 111.598 151.657 111.875C 151.4 112.16 151.048 112.293 150.521 112.293L 147.859 112.297z"/>
<path style="stroke:none; fill-rule:evenodd; fill:#000000" d="M 161.859 108.699L 158.262 108.699L 158.262 109.598L 160.859 109.598L 160.859 109.84C 160.859 111.438 159.743 112.594 158.2 112.594C 157.34 112.594 156.564 112.277 156.064 111.719C 155.508 111.106 155.169 110.074 155.169 109.012C 155.169 106.895 156.353 105.5 158.141 105.5C 159.426 105.5 160.357 106.176 160.59 107.293L 161.691 107.293C 161.391 105.586 160.087 104.602 158.141 104.602C 157.107 104.602 156.266 104.867 155.607 105.414C 154.63 106.227 154.07 107.543 154.07 109.07C 154.07 111.676 155.669 113.496 157.965 113.496C 159.118 113.496 160.04 113.063 160.868 112.133L 161.146 113.274L 161.863 113.274L 161.859 108.699z"/>
<path style="stroke:#000000; stroke-width:1.93801; fill:none" d="M 45.0396 68.02C 45.0396 59.457 37.231 52.516 27.5982 52.516C 17.9654 52.516 10.1568 59.453 10.1568 68.02C 10.1568 76.578 17.9654 83.524 27.5982 83.524C 37.231 83.524 45.0396 76.586 45.0396 68.02"/>
<path style="stroke:#000000; stroke-width:1.93801; fill:none" d="M 124.501 40.887C 124.501 32.324 116.691 25.383 107.06 25.383C 97.4265 25.383 89.6175 32.32 89.6175 40.887C 89.6175 49.445 97.4265 56.391 107.06 56.391C 116.691 56.391 124.501 49.453 124.501 40.887"/>
<path style="stroke:#000000; stroke-width:1.93801; fill:none" d="M 101.243 110.656C 101.243 102.094 93.4345 95.1525 83.8015 95.1525C 74.1685 95.1525 66.3599 102.09 66.3599 110.656C 66.3599 119.215 74.1685 126.16 83.8015 126.16C 93.4345 126.16 101.243 119.223 101.243 110.656"/>
<path style="stroke:#000000; stroke-width:1.93801; fill:none" d="M 169.075 110.656C 169.075 102.094 161.266 95.1525 151.633 95.1525C 142.001 95.1525 134.191 102.09 134.191 110.656C 134.191 119.215 142.001 126.16 151.633 126.16C 161.266 126.16 169.075 119.223 169.075 110.656"/>
<path style="stroke:#000000; stroke-width:1.93801; fill:none" d="M 196.204 68.02C 196.204 59.457 188.396 52.516 178.762 52.516C 169.13 52.516 161.32 59.453 161.32 68.02C 161.32 76.578 169.13 83.524 178.762 83.524C 188.396 83.524 196.204 76.586 196.204 68.02"/>
<path style="stroke:none; fill-rule:evenodd; fill:#000000" d="M 173.161 66.598L 177.232 66.598L 177.232 65.699L 173.161 65.699L 173.161 62.902L 177.758 62.902L 177.758 62.004L 172.06 62.004L 172.06 70.504L 173.157 70.504L 173.161 66.598z"/>
<path style="stroke:none; fill-rule:evenodd; fill:#000000" d="M 185.857 64.649C 185.516 62.801 184.439 61.899 182.564 61.899C 181.419 61.899 180.488 62.258 179.859 62.957C 179.087 63.793 178.665 65.004 178.665 66.379C 178.665 67.774 179.098 68.977 179.902 69.801C 180.555 70.473 181.402 70.789 182.512 70.789C 184.598 70.789 185.771 69.664 186.027 67.399L 184.907 67.399C 184.814 68 184.695 68.41 184.523 68.758C 184.176 69.477 183.45 69.887 182.536 69.887C 180.84 69.887 179.766 68.516 179.766 66.363C 179.766 64.152 180.794 62.793 182.445 62.793C 183.133 62.793 183.777 63.004 184.13 63.336C 184.441 63.629 184.618 63.996 184.747 64.641L 185.857 64.649z"/>
<path style="stroke:none; fill-rule:evenodd; fill:#000000" d="M 160.215 29.098C 159.079 30.625 158.359 32.742 158.359 34.574C 158.359 36.414 159.075 38.535 160.215 40.059L 160.84 40.059C 159.825 38.395 159.258 36.438 159.258 34.574C 159.258 32.723 159.82 30.754 160.84 29.098L 160.215 29.098z"/>
<path style="stroke:none; fill-rule:evenodd; fill:#000000" d="M 162.161 31.477L 162.161 37.598L 163.161 37.598L 163.161 33.719C 163.161 32.824 163.786 32.102 164.555 32.102C 165.258 32.102 165.657 32.551 165.657 33.34L 165.657 37.598L 166.657 37.598L 166.657 33.719C 166.657 32.824 167.305 32.102 168.107 32.102C 168.825 32.102 169.251 32.563 169.251 33.34L 169.251 37.598L 170.251 37.598L 170.251 33.008C 170.251 31.91 169.618 31.305 168.473 31.305C 167.657 31.305 167.165 31.555 166.59 32.266C 166.232 31.594 165.738 31.305 164.941 31.305C 164.126 31.305 163.587 31.609 163.06 32.344L 163.06 31.481L 162.161 31.477z"/>
<path style="stroke:none; fill-rule:evenodd; fill:#000000" d="M 174.098 31.297C 172.396 31.297 171.363 32.531 171.363 34.598C 171.363 36.66 172.383 37.895 174.113 37.895C 175.816 37.895 176.863 36.664 176.863 34.645C 176.863 32.52 175.857 31.297 174.103 31.297L 174.098 31.297zM 174.109 32.199C 175.204 32.199 175.859 33.106 175.859 34.633C 175.859 36.078 175.185 36.996 174.109 36.996C 173.027 36.996 172.359 36.094 172.359 34.598C 172.359 33.117 173.023 32.199 174.109 32.199z"/>
<path style="stroke:none; fill-rule:evenodd; fill:#000000" d="M 180.462 31.5L 179.462 31.5L 179.462 29.832L 178.462 29.832L 178.462 31.5L 177.665 31.5L 177.665 32.297L 178.462 32.297L 178.462 36.926C 178.462 37.543 178.887 37.895 179.652 37.895C 179.887 37.895 180.126 37.871 180.458 37.813L 180.458 36.973C 180.333 37.067 180.18 37.098 179.993 37.098C 179.575 37.098 179.462 36.981 179.462 36.543L 179.462 32.301L 180.462 32.301L 180.462 31.5z"/>
<path style="stroke:none; fill-rule:evenodd; fill:#000000" d="M 183.798 31.297C 182.094 31.297 181.064 32.531 181.064 34.598C 181.064 36.66 182.083 37.895 183.814 37.895C 185.516 37.895 186.564 36.664 186.564 34.645C 186.564 32.52 185.555 31.297 183.801 31.297L 183.798 31.297zM 183.81 32.199C 184.902 32.199 185.56 33.106 185.56 34.633C 185.56 36.078 184.883 36.996 183.81 36.996C 182.728 36.996 182.06 36.094 182.06 34.598C 182.06 33.117 182.723 32.199 183.81 32.199z"/>
<path style="stroke:none; fill-rule:evenodd; fill:#000000" d="M 187.962 31.477L 187.962 37.598L 188.962 37.598L 188.962 34.402C 188.962 33.524 189.18 32.949 189.637 32.606C 189.935 32.383 190.223 32.313 190.891 32.301L 190.891 31.336C 190.732 31.317 190.65 31.305 190.521 31.305C 189.896 31.305 189.419 31.68 188.859 32.59L 188.859 31.481L 187.962 31.477z"/>
<path style="stroke:none; fill-rule:evenodd; fill:#000000" d="M 161.462 43.074L 161.462 49.195L 162.462 49.195L 162.462 46C 162.462 45.121 162.68 44.547 163.137 44.203C 163.435 43.981 163.723 43.91 164.391 43.899L 164.391 42.934C 164.232 42.914 164.15 42.902 164.021 42.902C 163.396 42.902 162.919 43.277 162.359 44.188L 162.359 43.078L 161.462 43.074z"/>
<path style="stroke:none; fill-rule:evenodd; fill:#000000" d="M 170.56 46.5C 170.56 45.559 170.493 44.992 170.316 44.531C 169.923 43.52 168.993 42.902 167.853 42.902C 166.157 42.902 165.064 44.219 165.064 46.238C 165.064 48.258 166.113 49.5 167.81 49.5C 169.191 49.5 170.152 48.699 170.396 47.352L 169.426 47.352C 169.161 48.172 168.618 48.598 167.844 48.598C 167.234 48.598 166.712 48.32 166.391 47.805C 166.161 47.457 166.083 47.106 166.07 46.5L 170.56 46.5zM 166.06 45.688C 166.137 44.563 166.825 43.828 167.801 43.828C 168.755 43.828 169.484 44.617 169.484 45.617C 169.484 45.637 169.484 45.66 169.473 45.684L 166.06 45.688z"/>
<path style="stroke:none; fill-rule:evenodd; fill:#000000" d="M 176.152 44.805C 176.141 43.59 175.359 42.902 173.969 42.902C 172.57 42.902 171.661 43.641 171.661 44.781C 171.661 45.742 172.137 46.203 173.548 46.555L 174.435 46.777C 175.09 46.938 175.357 47.188 175.357 47.633C 175.357 48.207 174.79 48.594 173.95 48.594C 173.43 48.594 172.993 48.442 172.751 48.18C 172.603 48.004 172.532 47.824 172.478 47.383L 171.462 47.383C 171.505 48.809 172.29 49.496 173.872 49.496C 175.391 49.496 176.363 48.735 176.363 47.547C 176.363 46.633 175.863 46.125 174.68 45.832L 173.771 45.609C 172.997 45.422 172.669 45.164 172.669 44.731C 172.669 44.168 173.161 43.805 173.941 43.805C 174.712 43.805 175.126 44.149 175.146 44.809L 176.152 44.805z"/>
<path style="stroke:none; fill-rule:evenodd; fill:#000000" d="M 177.462 51.735L 178.462 51.735L 178.462 48.602C 178.973 49.223 179.548 49.5 180.34 49.5C 181.915 49.5 182.958 48.223 182.958 46.262C 182.958 44.199 181.95 42.902 180.32 42.902C 179.488 42.902 178.82 43.274 178.363 44L 178.363 43.078L 177.465 43.078L 177.462 51.735zM 180.173 43.797C 181.251 43.797 181.954 44.754 181.954 46.231C 181.954 47.637 181.238 48.594 180.173 48.594C 179.141 48.594 178.462 47.649 178.462 46.195C 178.462 44.742 179.141 43.797 180.173 43.797z"/>
<path style="stroke:none; fill-rule:evenodd; fill:#000000" d="M 186.4 42.899C 184.695 42.899 183.665 44.133 183.665 46.199C 183.665 48.262 184.685 49.496 186.415 49.496C 188.118 49.496 189.165 48.266 189.165 46.246C 189.165 44.121 188.157 42.899 186.402 42.899L 186.4 42.899zM 186.411 43.797C 187.505 43.797 188.161 44.703 188.161 46.231C 188.161 47.676 187.484 48.594 186.411 48.594C 185.329 48.594 184.661 47.692 184.661 46.195C 184.661 44.715 185.325 43.797 186.411 43.797z"/>
<path style="stroke:none; fill-rule:evenodd; fill:#000000" d="M 190.56 43.074L 190.56 49.195L 191.56 49.195L 191.56 45.785C 191.56 44.524 192.208 43.695 193.204 43.695C 193.969 43.695 194.454 44.168 194.454 44.91L 194.454 49.192L 195.454 49.192L 195.454 44.567C 195.454 43.551 194.691 42.895 193.505 42.895C 192.587 42.895 192.001 43.246 191.458 44.098L 191.458 43.07L 190.56 43.074z"/>
<path style="stroke:none; fill-rule:evenodd; fill:#000000" d="M 201.353 44.805C 201.34 43.59 200.56 42.902 199.169 42.902C 197.771 42.902 196.859 43.641 196.859 44.781C 196.859 45.742 197.337 46.203 198.747 46.555L 199.633 46.777C 200.29 46.938 200.555 47.188 200.555 47.633C 200.555 48.207 199.988 48.594 199.15 48.594C 198.63 48.594 198.191 48.442 197.95 48.18C 197.801 48.004 197.732 47.824 197.676 47.383L 196.661 47.383C 196.704 48.809 197.488 49.496 199.07 49.496C 200.59 49.496 201.564 48.735 201.564 47.547C 201.564 46.633 201.064 46.125 199.88 45.832L 198.969 45.609C 198.195 45.422 197.868 45.164 197.868 44.731C 197.868 44.168 198.359 43.805 199.141 43.805C 199.911 43.805 200.325 44.149 200.344 44.809L 201.353 44.805z"/>
<path style="stroke:none; fill-rule:evenodd; fill:#000000" d="M 208.06 46.5C 208.06 45.559 207.993 44.992 207.816 44.531C 207.423 43.52 206.493 42.902 205.353 42.902C 203.657 42.902 202.564 44.219 202.564 46.238C 202.564 48.258 203.613 49.5 205.31 49.5C 206.691 49.5 207.652 48.699 207.896 47.352L 206.926 47.352C 206.661 48.172 206.118 48.598 205.344 48.598C 204.734 48.598 204.212 48.32 203.891 47.805C 203.661 47.457 203.583 47.106 203.57 46.5L 208.06 46.5zM 203.56 45.688C 203.637 44.563 204.325 43.828 205.301 43.828C 206.255 43.828 206.984 44.617 206.984 45.617C 206.984 45.637 206.984 45.66 206.973 45.684L 203.56 45.688z"/>
<path style="stroke:none; fill-rule:evenodd; fill:#000000" d="M 209.548 51.664C 210.719 50.141 211.458 48.02 211.458 46.192C 211.458 44.352 210.719 42.231 209.548 40.703L 208.902 40.703C 209.965 42.371 210.56 44.328 210.56 46.192C 210.56 48.043 209.969 50.012 208.902 51.664L 209.548 51.664z"/>
<path style="stroke:#000000; stroke-width:1.93801; fill:none" d="M 43.1021 62.203L 89.6135 42.824"/>
<path style="stroke:#000000; stroke-width:1.93801; fill:none" d="M 51.0045 61.012L 43.106 62.203L 49.5123 57.434"/>
<path style="stroke:#000000; stroke-width:1.93801; fill:none" d="M 81.7155 44.016L 89.6135 42.824L 83.2075 47.594"/>
<path style="stroke:#000000; stroke-width:1.93801; fill:none" d="M 45.0396 69.957L 161.316 69.957"/>
<path style="stroke:#000000; stroke-width:1.93801; fill:none" d="M 153.57 68.02L 161.32 69.957L 153.57 71.895"/>
<path style="stroke:#000000; stroke-width:1.93801; fill:none" d="M 124.501 44.762L 163.258 60.266"/>
<path style="stroke:#000000; stroke-width:1.93801; fill:none" d="M 156.782 55.586L 163.258 60.262L 155.344 59.184"/>
<path style="stroke:#000000; stroke-width:1.93801; fill:none" d="M 108.997 56.391L 143.88 97.0861"/>
<path style="stroke:#000000; stroke-width:1.93801; fill:none" d="M 140.305 89.9415L 143.876 97.0861L 137.359 92.4611"/>
<path style="stroke:#000000; stroke-width:1.93801; fill:none" d="M 39.2271 79.645L 70.2345 100.961"/>
<path style="stroke:#000000; stroke-width:1.93801; fill:none" d="M 64.9459 94.9767L 70.2345 100.961L 62.7506 98.1681"/>
<path style="stroke:#000000; stroke-width:1.93801; fill:none" d="M 97.3675 100.965L 165.195 77.711"/>
<path style="stroke:#000000; stroke-width:1.93801; fill:none" d="M 157.234 78.391L 165.195 77.711L 158.493 82.055"/>
<path style="stroke:#000000; stroke-width:1.93801; fill:none" d="M 157.445 95.1525L 165.195 77.711"/>
<path style="stroke:#000000; stroke-width:1.93801; fill:none" d="M 160.277 84.004L 165.195 77.707L 163.82 85.5743"/>
<path style="stroke:#000000; stroke-dasharray:6,3; stroke-width:1.93801; fill:none" d="M 89.6135 126.16C 89.6135 126.16 89.6135 126.16 91.8715 127.774C 94.1295 129.387 98.6525 132.617 103.82 134.555C 108.988 136.492 114.801 137.137 120.294 136.813C 125.782 136.492 130.95 135.199 135.15 133.262C 139.344 131.324 142.575 128.742 144.191 127.449C 145.805 126.16 145.805 126.16 145.805 126.16"/>
<path style="stroke:none; fill-rule:evenodd; fill:#000000" d="M 120.56 130.184L 120.56 129.641C 120.56 129.133 120.689 128.938 121.484 128.203C 122.363 127.418 122.657 126.895 122.657 126.129C 122.657 124.774 121.695 123.902 120.191 123.902C 118.527 123.902 117.661 124.824 117.661 126.606L 118.661 126.606C 118.661 126.074 118.719 125.75 118.857 125.473C 119.075 125.047 119.544 124.805 120.161 124.805C 121.06 124.805 121.652 125.336 121.652 126.125C 121.652 126.656 121.396 127.109 120.773 127.656C 120.083 128.27 120.083 128.27 119.883 128.535C 119.641 128.859 119.555 129.125 119.555 129.543L 119.555 130.18L 120.56 130.184zM 120.56 131.297L 119.56 131.297L 119.56 132.496L 120.56 132.496L 120.56 131.297z"/>
<path style="stroke:none; fill-rule:evenodd; fill:#000000" d="M 168.962 89.4845L 168.962 88.9415C 168.962 88.4337 169.09 88.2384 169.887 87.504C 170.766 86.7189 171.06 86.1954 171.06 85.4298C 171.06 84.074 170.098 83.203 168.594 83.203C 166.93 83.203 166.064 84.125 166.064 85.9064L 167.064 85.9064C 167.064 85.3751 167.122 85.0509 167.258 84.7736C 167.478 84.3478 167.945 84.106 168.564 84.106C 169.462 84.106 170.055 84.6368 170.055 85.4259C 170.055 85.9572 169.798 86.4103 169.176 86.9572C 168.484 87.5704 168.484 87.5704 168.286 87.8361C 168.044 88.1603 167.958 88.4259 167.958 88.8439L 167.958 89.4806L 168.962 89.4845zM 168.962 90.5978L 167.962 90.5978L 167.962 91.797L 168.962 91.797L 168.962 90.5978z"/>
</g>
</svg>