<?xml version="1.0" encoding="UTF-8" standalone="no"?>
<svg
   xmlns:dc="http://purl.org/dc/elements/1.1/"
   xmlns:cc="http://creativecommons.org/ns#"
   xmlns:rdf="http://www.w3.org/1999/02/22-rdf-syntax-ns#"
   xmlns:svg="http://www.w3.org/2000/svg"
   xmlns="http://www.w3.org/2000/svg"
   xmlns:sodipodi="http://sodipodi.sourceforge.net/DTD/sodipodi-0.dtd"
   xmlns:inkscape="http://www.inkscape.org/namespaces/inkscape"
   version="1.1"
   width="400px"
   height="400px"
   viewBox="0 0 1000.0 1000.0"
   id="svg3085"
   inkscape:version="0.48.2 r9819"
   sodipodi:docname="fig_emery_appr_liq_da.svg"
   inkscape:export-filename="/Users/oreilly/svn_docs/figs/fig_emery_appr_liq_da.png"
   inkscape:export-xdpi="150"
   inkscape:export-ydpi="150">
  <metadata
     id="metadata3175">
    <rdf:RDF>
      <cc:Work
         rdf:about="">
        <dc:format>image/svg+xml</dc:format>
        <dc:type
           rdf:resource="http://purl.org/dc/dcmitype/StillImage" />
        <dc:title></dc:title>
      </cc:Work>
    </rdf:RDF>
  </metadata>
  <defs
     id="defs3173" />
  <sodipodi:namedview
     pagecolor="#ffffff"
     bordercolor="#666666"
     borderopacity="1"
     objecttolerance="10"
     gridtolerance="10"
     guidetolerance="10"
     inkscape:pageopacity="0"
     inkscape:pageshadow="2"
     inkscape:window-width="1208"
     inkscape:window-height="1051"
     id="namedview3171"
     showgrid="false"
     inkscape:zoom="1.5185118"
     inkscape:cx="184.24792"
     inkscape:cy="184.50423"
     inkscape:window-x="0"
     inkscape:window-y="0"
     inkscape:window-maximized="0"
     inkscape:current-layer="svg3085" />
  <rect
     style="fill:#ffffff;stroke:#ffffff;stroke-width:3.93106341;stroke-linejoin:round;stroke-miterlimit:4;stroke-opacity:1;stroke-dasharray:none;stroke-dashoffset:0"
     id="rect3995"
     width="920.6626"
     height="936.77246"
     x="34.219669"
     y="31.946943" />
  <path
     d="m 145.81207,841.18763 0,-762.9 763,0 0,762.9 -763,0"
     id="path3087"
     inkscape:connector-curvature="0"
     style="fill:none;stroke:#000000;stroke-width:2" />
  <text
     style="font-size:38.70000076px;text-anchor:middle;fill:#000000;font-family:Arial"
     id="text3091"
     font-size="38.7"
     y="944.18762"
     x="527.31207">tick</text>
  <text
     style="font-size:38.70000076px;text-anchor:middle;fill:#000000;font-family:Arial"
     id="text3093"
     font-size="38.7"
     y="906.08759"
     x="188.21207">2</text>
  <text
     style="font-size:38.70000076px;text-anchor:middle;fill:#000000;font-family:Arial"
     id="text3095"
     font-size="38.7"
     y="906.08759"
     x="273.01208">4</text>
  <text
     style="font-size:38.70000076px;text-anchor:middle;fill:#000000;font-family:Arial"
     id="text3097"
     font-size="38.7"
     y="906.08759"
     x="357.81207">6</text>
  <text
     style="font-size:38.70000076px;text-anchor:middle;fill:#000000;font-family:Arial"
     id="text3099"
     font-size="38.7"
     y="906.08759"
     x="442.51208">8</text>
  <text
     style="font-size:38.70000076px;text-anchor:middle;fill:#000000;font-family:Arial"
     id="text3101"
     font-size="38.7"
     y="906.08759"
     x="527.31207">10</text>
  <text
     style="font-size:38.70000076px;text-anchor:middle;fill:#000000;font-family:Arial"
     id="text3103"
     font-size="38.7"
     y="906.08759"
     x="612.11206">12</text>
  <text
     style="font-size:38.70000076px;text-anchor:middle;fill:#000000;font-family:Arial"
     id="text3105"
     font-size="38.7"
     y="906.08759"
     x="696.91211">14</text>
  <text
     style="font-size:38.70000076px;text-anchor:middle;fill:#000000;font-family:Arial"
     id="text3107"
     font-size="38.7"
     y="906.08759"
     x="781.61206">16</text>
  <text
     style="font-size:38.70000076px;text-anchor:middle;fill:#000000;font-family:Arial"
     id="text3109"
     font-size="38.7"
     y="906.08759"
     x="866.41211">18</text>
  <path
     style="fill:none;stroke:#000000;stroke-width:2"
     inkscape:connector-curvature="0"
     id="path3111"
     d="m 145.81207,841.18763 763,0 m -720.6,19.1 0,-38.2 m 84.8,38.2 0,-38.2 m 84.8,38.2 0,-38.2 m 84.7,38.2 0,-38.2 m 84.8,38.2 0,-38.2 m 84.8,38.2 0,-38.2 m 84.8,38.2 0,-38.2 m 84.7,38.2 0,-38.2 m 84.8,38.2 0,-38.2" />
  <path
     style="fill:none;stroke:#000000;stroke-width:2"
     inkscape:connector-curvature="0"
     id="path3113"
     d="m 145.81207,78.28763 763,0 m -720.6,19 0,-38.1 m 84.8,38.1 0,-38.1 m 84.8,38.1 0,-38.1 m 84.7,38.1 0,-38.1 m 84.8,38.1 0,-38.1 m 84.8,38.1 0,-38.1 m 84.8,38.1 0,-38.1 m 84.7,38.1 0,-38.1 m 84.8,38.1 0,-38.1" />
  <text
     style="font-size:38.70000076px;text-anchor:end;fill:#000000;font-family:Arial"
     id="text3117"
     font-size="38.7"
     y="856.48761"
     x="119.11208">-0.2</text>
  <text
     style="font-size:38.70000076px;text-anchor:end;fill:#000000;font-family:Arial"
     id="text3119"
     font-size="38.7"
     y="729.2876"
     x="119.11208">0</text>
  <text
     style="font-size:38.70000076px;text-anchor:end;fill:#000000;font-family:Arial"
     id="text3121"
     font-size="38.7"
     y="602.18762"
     x="119.11208">0.2</text>
  <text
     style="font-size:38.70000076px;text-anchor:end;fill:#000000;font-family:Arial"
     id="text3123"
     font-size="38.7"
     y="474.98764"
     x="119.11208">0.4</text>
  <text
     style="font-size:38.70000076px;text-anchor:end;fill:#000000;font-family:Arial"
     id="text3125"
     font-size="38.7"
     y="347.78763"
     x="119.11208">0.6</text>
  <text
     style="font-size:38.70000076px;text-anchor:end;fill:#000000;font-family:Arial"
     id="text3127"
     font-size="38.7"
     y="220.68764"
     x="119.11208">0.8</text>
  <text
     style="font-size:38.70000076px;text-anchor:end;fill:#000000;font-family:Arial"
     id="text3129"
     font-size="38.7"
     y="93.487633"
     x="119.11208">1</text>
  <path
     style="fill:none;stroke:#000000;stroke-width:2"
     inkscape:connector-curvature="0"
     id="path3131"
     d="m 145.81207,841.18763 0,-762.9 m -19,762.9 38.1,0 m -38.1,-127.1 38.1,0 m -38.1,-127.2 38.1,0 m -38.1,-127.2 38.1,0 m -38.1,-127.1 38.1,0 m -38.1,-127.2 38.1,0 m -38.1,-127.1 38.1,0" />
  <path
     style="fill:none;stroke:#000000;stroke-width:2"
     inkscape:connector-curvature="0"
     id="path3133"
     d="m 908.81207,841.18763 0,-762.9 m -19.1,762.9 38.2,0 m -38.2,-127.1 38.2,0 m -38.2,-127.2 38.2,0 m -38.2,-127.2 38.2,0 m -38.2,-127.1 38.2,0 m -38.2,-127.2 38.2,0 m -38.2,-127.1 38.2,0" />
  <text
     x="270.00507"
     y="355.06973"
     font-size="38.7"
     id="text3141"
     style="font-size:38.70000076px;text-anchor:start;fill:#000000;font-family:Arial">VTA phasic DA</text>
  <text
     x="698.17169"
     y="562.50964"
     font-size="38.7"
     id="text3153"
     style="font-size:38.70000076px;text-anchor:start;fill:#0000ff;font-family:Arial">LHb / RMTg</text>
  <text
     x="650.42761"
     y="343.24026"
     font-size="38.7"
     id="text3159"
     style="font-size:38.70000076px;text-anchor:start;fill:#a020f0;font-family:Arial">CeM Liquid</text>
  <path
     style="fill:none;stroke:#000000;stroke-width:4"
     inkscape:connector-curvature="0"
     id="path3163"
     d="m 145.81207,714.08763 42.4,0 42.4,-563.1 42.4,563.1 84.8,-154.1 42.4,117.9 42.3,-194 42.4,91.9 42.4,138.3 42.4,-504.8 42.4,252.6 42.4,58.1 42.4,63.9 42.3,102.7 42.4,67.1 42.4,-78.3 42.4,-60.8 42.4,191.5" />
  <path
     style="fill:none;stroke:#0000ff;stroke-width:4;stroke-miterlimit:4;stroke-dasharray:4.00000005, 4.00000005;stroke-dashoffset:0"
     inkscape:connector-curvature="0"
     id="path3167"
     d="m 145.81207,714.08763 42.4,0 42.4,0 42.4,0 42.4,0 42.4,0 42.4,0 42.3,0 42.4,0 42.4,0 42.4,0 42.4,0 42.4,-23.5 42.4,-43.8 42.3,-47.5 42.4,75.1 42.4,-19.4 42.4,9.3 42.4,-53.1" />
  <path
     style="fill:none;stroke:#a020f0;stroke-width:4;stroke-miterlimit:4;stroke-dasharray:12, 4;stroke-dashoffset:0"
     inkscape:connector-curvature="0"
     id="path3169"
     d="m 145.81207,650.08763 42.4,8.6 42.4,-22.8 42.4,16.6 42.4,-34.8 42.4,-21.3 42.4,-4.8 42.3,-32.2 42.4,-19.2 42.4,51.3 42.4,-70.5 42.4,-36 42.4,-31.6 42.4,-35 42.3,-30.6 42.4,18.6 42.4,-16.7 42.4,-24.5 42.4,-2.3" />
</svg>
