<?xml version="1.0" encoding="ISO-8859-1" standalone="yes"?>
<svg width="325.472" height="353.96">
  <defs> 
    <marker id="ArrowEnd" viewBox="0 0 10 10" refX="0" refY="5" 
     markerUnits="strokeWidth" 
     markerWidth="4" 
     markerHeight="3" 
     orient="auto"> 
        <path d="M 0 0 L 10 5 L 0 10 z" /> 
    </marker>
    <marker id="ArrowStart" viewBox="0 0 10 10" refX="10" refY="5" 
     markerUnits="strokeWidth" 
     markerWidth="4" 
     markerHeight="3" 
     orient="auto"> 
        <path d="M 10 0 L 0 5 L 10 10 z" /> 
    </marker> </defs>
<g>
<path style="stroke:none; fill-rule:evenodd; fill:#5f5f5f" d="M 177.778 60.8743L 201.7 60.8743L 206.004 50.3513L 181.602 50.1133"/>
<path style="stroke:none; fill-rule:evenodd; fill:#5f5f5f" d="M 202.356 60.6983L 226.278 60.6983L 230.582 50.1753L 206.18 49.9373"/>
<path style="stroke:none; fill-rule:evenodd; fill:#5f5f5f" d="M 237.891 28.9953L 261.813 28.9953L 266.117 18.4723L 241.715 18.2343"/>
<path style="stroke:none; fill-rule:evenodd; fill:#5f5f5f" d="M 266.422 18.6443L 290.344 18.6443L 294.649 8.1203L 270.246 7.88226"/>
<path style="stroke:none; fill-rule:evenodd; fill:#5f5f5f" d="M 97.516 19.6053L 121.438 19.6053L 125.742 9.0813L 101.34 8.84332"/>
<path style="stroke:none; fill-rule:evenodd; fill:#5f5f5f" d="M 25.086 18.8233L 49.008 18.8233L 53.313 8.30029L 28.91 8.06232"/>
<path style="stroke:none; fill-rule:evenodd; fill:#5f5f5f" d="M 57.746 60.8083L 81.668 60.8083L 85.973 50.2843L 61.571 50.0463"/>
<path style="stroke:none; fill-rule:evenodd; fill:#5f5f5f" d="M 37.348 50.5813L 61.27 50.5813L 65.574 40.0583L 41.172 39.8203"/>
<path style="stroke:none; fill-rule:evenodd; fill:#5f5f5f" d="M 248.84 273.32L 273.481 273.32L 292.617 220.687L 268.696 220.687"/>
<path style="stroke:none; fill-rule:evenodd; fill:#5f5f5f" d="M 192.141 230.972L 312.957 230.972L 316.782 220.448L 196.203 220.448"/>
<path style="stroke:none; fill-rule:evenodd; fill:#5f5f5f" d="M 201.649 336.78L 226.289 336.78L 245.426 284.148L 221.504 284.148"/>
<path style="stroke:none; fill-rule:evenodd; fill:#5f5f5f" d="M 177.067 336.48L 201.707 336.48L 220.844 283.847L 196.922 283.847"/>
<path style="stroke:none; fill-rule:evenodd; fill:#5f5f5f" d="M 32.981 273.378L 153.797 273.378L 157.621 262.855L 37.043 262.855"/>
<path style="stroke:none; fill-rule:evenodd; fill:#5f5f5f" d="M 44.766 241.976L 165.582 241.976L 169.407 231.452L 48.828 231.452"/>
<path style="stroke:none; fill-rule:evenodd; fill:#5f5f5f" d="M 57.27 336.655L 81.91 336.655L 101.047 284.023L 77.125 284.023"/>
<path style="stroke:none; fill-rule:evenodd; fill:#5f5f5f" d="M 13.008 326.366L 133.824 326.366L 137.649 315.843L 17.071 315.843"/>
<path style="stroke:#000000; stroke-width:1.59941; fill:none" d="M 141.953 61.1633L 169.141 89.1523L 141.953 61.1633z"/>
<path style="stroke:#000000; stroke-width:1.59941; fill:none" d="M 151.551 61.1633L 141.957 70.7573L 141.957 61.1633L 151.551 61.1633z"/>
<path style="stroke:#000000; stroke-width:1.59941; fill:none" d="M 138.754 189.913L 134.758 203.507L 129.961 194.71L 138.754 189.913z"/>
<path style="stroke:#000000; stroke-width:1.59941; fill:none" d="M 29.196 284.097L 149.149 284.097L 129.957 336.874L 9.20299 336.874L 29.196 284.097z"/>
<path style="stroke:#000000; stroke-width:1.59941; fill:none" d="M 173.145 284.097L 293.899 284.097L 273.907 336.874L 153.953 336.874L 173.145 284.097z"/>
<path style="stroke:#000000; stroke-width:1.59941; fill:none" d="M 177.942 336.878L 197.133 284.101"/>
<path style="stroke:#000000; stroke-width:1.59941; fill:none" d="M 201.934 336.878L 221.125 284.101"/>
<path style="stroke:#000000; stroke-width:1.59941; fill:none" d="M 225.922 336.878L 245.914 284.101"/>
<path style="stroke:#000000; stroke-width:1.59941; fill:none" d="M 249.914 336.878L 269.907 284.101"/>
<path style="stroke:#000000; stroke-width:1.59941; fill:none" d="M 157.95 326.48L 277.903 326.48"/>
<path style="stroke:#000000; stroke-width:1.59941; fill:none" d="M 161.95 316.085L 281.903 316.085"/>
<path style="stroke:#000000; stroke-width:1.59941; fill:none" d="M 165.946 304.89L 285.899 304.89"/>
<path style="stroke:#000000; stroke-width:1.59941; fill:none" d="M 169.145 294.491L 289.899 294.491"/>
<path style="stroke:#000000; stroke-width:1.59941; fill:none" d="M 52.387 220.12L 172.34 220.12L 153.149 273.698L 32.395 273.698L 52.387 220.12z"/>
<path style="stroke:#000000; stroke-width:1.59941; fill:none" d="M 57.188 273.698L 76.379 220.12"/>
<path style="stroke:#000000; stroke-width:1.59941; fill:none" d="M 81.176 273.698L 100.367 220.12"/>
<path style="stroke:#000000; stroke-width:1.59941; fill:none" d="M 105.168 273.698L 124.36 220.12"/>
<path style="stroke:#000000; stroke-width:1.59941; fill:none" d="M 129.16 273.698L 148.352 220.12"/>
<path style="stroke:#000000; stroke-width:1.59941; fill:none" d="M 36.395 262.503L 157.149 262.503"/>
<path style="stroke:#000000; stroke-width:1.59941; fill:none" d="M 40.391 252.109L 161.145 252.109"/>
<path style="stroke:#000000; stroke-width:1.59941; fill:none" d="M 44.391 241.71L 165.145 241.71"/>
<path style="stroke:#000000; stroke-width:1.59941; fill:none" d="M 48.391 231.316L 169.145 231.316"/>
<path style="stroke:#000000; stroke-width:1.59941; fill:none" d="M 196.336 220.12L 317.09 220.12L 297.899 273.698L 177.145 273.698L 196.336 220.12z"/>
<path style="stroke:#000000; stroke-width:1.59941; fill:none" d="M 201.133 273.698L 221.125 220.12"/>
<path style="stroke:#000000; stroke-width:1.59941; fill:none" d="M 225.125 273.698L 245.117 220.12"/>
<path style="stroke:#000000; stroke-width:1.59941; fill:none" d="M 249.114 273.698L 269.106 220.12"/>
<path style="stroke:#000000; stroke-width:1.59941; fill:none" d="M 273.907 273.698L 293.098 220.12"/>
<path style="stroke:#000000; stroke-width:1.59941; fill:none" d="M 181.141 262.503L 301.895 262.503"/>
<path style="stroke:#000000; stroke-width:1.59941; fill:none" d="M 185.141 252.109L 305.094 252.109"/>
<path style="stroke:#000000; stroke-width:1.59941; fill:none" d="M 189.137 241.71L 309.09 241.71"/>
<path style="stroke:#000000; stroke-width:1.59941; fill:none" d="M 193.137 231.316L 313.09 231.316"/>
<path style="stroke:#000000; stroke-width:1.59941; fill:none" d="M 52.387 220.12L 317.086 220.12L 273.903 336.874L 9.20299 336.874L 52.387 220.12z"/>
<path style="stroke:none; fill-rule:evenodd; fill:#000000" d="M 11.16 349.777L 12.957 349.777L 12.957 335.777L 11.16 335.777L 11.16 349.777z"/>
<path style="stroke:none; fill-rule:evenodd; fill:#000000" d="M 15.86 339.765L 15.86 349.773L 17.457 349.773L 17.457 344.257C 17.457 342.214 18.551 340.878 20.239 340.878C 21.532 340.878 22.352 341.64 22.352 342.843L 22.352 349.773L 23.95 349.773L 23.95 342.21C 23.95 340.55 22.688 339.48 20.727 339.48C 19.215 339.48 18.246 340.054 17.352 341.448L 17.352 339.769L 15.86 339.765z"/>
<path style="stroke:none; fill-rule:evenodd; fill:#000000" d="M 26.262 353.96L 27.86 353.96L 27.86 348.679C 28.703 349.714 29.645 350.179 30.953 350.179C 33.547 350.179 35.258 348.105 35.258 344.925C 35.258 341.577 33.614 339.484 30.953 339.484C 29.598 339.484 28.508 340.093 27.762 341.28L 27.762 339.773L 26.262 339.773L 26.262 353.96zM 30.7 340.976C 32.489 340.976 33.657 342.511 33.657 344.882C 33.657 347.136 32.469 348.671 30.7 348.671C 28.989 348.671 27.86 347.155 27.86 344.823C 27.86 342.495 28.989 340.976 30.7 340.976z"/>
<path style="stroke:none; fill-rule:evenodd; fill:#000000" d="M 45.16 349.734L 45.16 339.675L 43.563 339.675L 43.563 345.374C 43.563 347.425 42.469 348.769 40.774 348.769C 39.489 348.769 38.668 348.003 38.668 346.792L 38.668 339.671L 37.071 339.671L 37.071 347.425C 37.071 349.093 38.324 350.167 40.293 350.167C 41.778 350.167 42.723 349.652 43.668 348.327L 43.668 349.726L 45.16 349.734z"/>
<path style="stroke:none; fill-rule:evenodd; fill:#000000" d="M 51.461 339.675L 49.762 339.675L 49.762 336.956L 48.164 336.956L 48.164 339.675L 46.867 339.675L 46.867 340.972L 48.164 340.972L 48.164 348.577C 48.164 349.593 48.864 350.171 50.133 350.171C 50.524 350.171 50.91 350.136 51.461 350.042L 51.461 348.737C 51.246 348.761 50.989 348.773 50.672 348.773C 49.961 348.773 49.766 348.581 49.766 347.87L 49.766 340.976L 51.465 340.976L 51.461 339.675z"/>
<path style="stroke:#000000; stroke-width:1.59941; fill:none" d="M 33.196 336.878L 53.188 284.101"/>
<path style="stroke:#000000; stroke-width:1.59941; fill:none" d="M 57.188 336.878L 77.18 284.101"/>
<path style="stroke:#000000; stroke-width:1.59941; fill:none" d="M 81.977 336.878L 101.168 284.101"/>
<path style="stroke:#000000; stroke-width:1.59941; fill:none" d="M 105.969 336.878L 125.16 284.101"/>
<path style="stroke:#000000; stroke-width:1.59941; fill:none" d="M 13.203 326.48L 133.957 326.48"/>
<path style="stroke:#000000; stroke-width:1.59941; fill:none" d="M 17.2 316.085L 137.953 316.085"/>
<path style="stroke:#000000; stroke-width:1.59941; fill:none" d="M 21.2 304.89L 141.153 304.89"/>
<path style="stroke:#000000; stroke-width:1.59941; fill:none" d="M 25.2 294.491L 145.153 294.491"/>
<path style="stroke:#000000; stroke-width:1.59941; fill:none" d="M 48.391 89.1523L 289.102 89.1523L 249.918 194.71L 9.207 194.71L 48.391 89.1523z"/>
<path style="stroke:none; fill-rule:evenodd; fill:#000000" d="M 16.961 202.175L 16.961 208.573L 18.758 208.573L 18.758 194.573L 16.961 194.573L 16.961 200.573L 9.76199 200.573L 9.76199 194.573L 7.965 194.573L 7.965 208.573L 9.76199 208.573L 9.76199 202.175L 16.961 202.175z"/>
<path style="stroke:none; fill-rule:evenodd; fill:#000000" d="M 23.059 198.476L 21.461 198.476L 21.461 208.573L 23.059 208.573L 23.059 198.476zM 23.059 194.577L 21.461 194.577L 21.461 196.597L 23.059 196.597L 23.059 194.577z"/>
<path style="stroke:none; fill-rule:evenodd; fill:#000000" d="M 33.961 194.577L 32.364 194.577L 32.364 199.784C 31.692 198.8 30.621 198.277 29.278 198.277C 26.672 198.277 24.965 200.351 24.965 203.53C 24.965 206.898 26.637 208.972 29.348 208.972C 30.731 208.972 31.692 208.468 32.559 207.249L 32.559 208.57L 33.957 208.57L 33.961 194.577zM 29.508 199.777C 31.25 199.777 32.36 201.292 32.36 203.663C 32.36 205.956 31.235 207.472 29.528 207.472C 27.746 207.472 26.563 205.937 26.563 203.624C 26.563 201.312 27.742 199.777 29.508 199.777z"/>
<path style="stroke:none; fill-rule:evenodd; fill:#000000" d="M 44.66 194.577L 43.063 194.577L 43.063 199.784C 42.391 198.8 41.321 198.277 39.977 198.277C 37.371 198.277 35.664 200.351 35.664 203.53C 35.664 206.898 37.336 208.972 40.047 208.972C 41.43 208.972 42.391 208.468 43.258 207.249L 43.258 208.57L 44.657 208.57L 44.66 194.577zM 40.207 199.777C 41.95 199.777 43.059 201.292 43.059 203.663C 43.059 205.956 41.934 207.472 40.227 207.472C 38.446 207.472 37.262 205.937 37.262 203.624C 37.262 201.312 38.442 199.777 40.207 199.777z"/>
<path style="stroke:none; fill-rule:evenodd; fill:#000000" d="M 55.66 204.077C 55.66 202.558 55.547 201.644 55.258 200.905C 54.606 199.273 53.067 198.284 51.184 198.284C 48.379 198.284 46.571 200.417 46.571 203.691C 46.571 206.964 48.309 208.98 51.121 208.98C 53.414 208.98 55 207.695 55.403 205.53L 53.785 205.53C 53.344 206.812 52.438 207.48 51.145 207.48C 50.125 207.48 49.254 207.03 48.715 206.198C 48.332 205.636 48.196 205.066 48.176 204.085L 55.66 204.077zM 48.235 202.78C 48.367 200.921 49.5 199.71 51.114 199.71C 52.684 199.71 53.895 201.015 53.895 202.663C 53.895 202.698 53.895 202.737 53.879 202.777L 48.235 202.78z"/>
<path style="stroke:none; fill-rule:evenodd; fill:#000000" d="M 57.762 198.566L 57.762 208.573L 59.36 208.573L 59.36 203.058C 59.36 201.015 60.453 199.679 62.141 199.679C 63.434 199.679 64.254 200.441 64.254 201.644L 64.254 208.573L 65.852 208.573L 65.852 201.011C 65.852 199.351 64.59 198.28 62.629 198.28C 61.117 198.28 60.149 198.855 59.254 200.249L 59.254 198.57L 57.762 198.566z"/>
<path style="stroke:#000000; stroke-width:1.59941; fill:none" d="M 48.391 89.1523L 289.102 89.1523L 249.918 194.71L 9.207 194.71L 48.391 89.1523z"/>
<path style="stroke:#000000; stroke-width:1.59941; fill:none" d="M 33.196 194.714L 72.379 89.1553"/>
<path style="stroke:#000000; stroke-width:1.59941; fill:none" d="M 57.188 194.714L 96.371 89.1553"/>
<path style="stroke:#000000; stroke-width:1.59941; fill:none" d="M 81.977 194.714L 120.36 89.1553"/>
<path style="stroke:#000000; stroke-width:1.59941; fill:none" d="M 105.969 194.714L 144.352 89.1553"/>
<path style="stroke:#000000; stroke-width:1.59941; fill:none" d="M 129.957 194.714L 169.141 89.1553"/>
<path style="stroke:#000000; stroke-width:1.59941; fill:none" d="M 153.95 194.714L 193.133 89.1553"/>
<path style="stroke:#000000; stroke-width:1.59941; fill:none" d="M 177.942 194.714L 217.125 89.1553"/>
<path style="stroke:#000000; stroke-width:1.59941; fill:none" d="M 201.934 194.714L 241.117 89.1553"/>
<path style="stroke:#000000; stroke-width:1.59941; fill:none" d="M 225.922 194.714L 265.106 89.1553"/>
<path style="stroke:#000000; stroke-width:1.59941; fill:none" d="M 13.203 184.316L 253.914 184.316"/>
<path style="stroke:#000000; stroke-width:1.59941; fill:none" d="M 17.2 173.12L 257.91 173.12"/>
<path style="stroke:#000000; stroke-width:1.59941; fill:none" d="M 21.2 162.726L 261.91 162.726"/>
<path style="stroke:#000000; stroke-width:1.59941; fill:none" d="M 25.2 152.327L 265.91 152.327"/>
<path style="stroke:#000000; stroke-width:1.59941; fill:none" d="M 29.196 141.933L 269.907 141.933"/>
<path style="stroke:#000000; stroke-width:1.59941; fill:none" d="M 32.395 131.538L 273.903 131.538"/>
<path style="stroke:#000000; stroke-width:1.59941; fill:none" d="M 36.395 120.339L 277.106 120.339"/>
<path style="stroke:#000000; stroke-width:1.59941; fill:none" d="M 40.391 109.945L 281.102 109.945"/>
<path style="stroke:#000000; stroke-width:1.59941; fill:none" d="M 44.391 99.5463L 285.102 99.5463"/>
<path style="stroke:#000000; stroke-width:1.59941; fill:none" d="M 17.2 39.5703L 137.953 39.5703L 129.957 61.1593L 9.20299 61.1593L 17.2 39.5703z"/>
<path style="stroke:#000000; stroke-width:1.59941; fill:none" d="M 161.95 39.5703L 281.903 39.5703L 273.907 61.1593L 153.953 61.1593L 161.95 39.5703z"/>
<path style="stroke:#000000; stroke-width:1.59941; fill:none" d="M 177.942 61.1633L 185.938 39.5733"/>
<path style="stroke:#000000; stroke-width:1.59941; fill:none" d="M 201.934 61.1633L 209.93 39.5733"/>
<path style="stroke:#000000; stroke-width:1.59941; fill:none" d="M 225.922 61.1633L 233.918 39.5733"/>
<path style="stroke:#000000; stroke-width:1.59941; fill:none" d="M 249.914 61.1633L 257.91 39.5733"/>
<path style="stroke:#000000; stroke-width:1.59941; fill:none" d="M 157.95 50.7653L 277.903 50.7653"/>
<path style="stroke:#000000; stroke-width:1.59941; fill:none" d="M 29.196 8.38226L 149.149 8.38226L 141.153 29.1753L 21.2 29.1753L 29.196 8.38226z"/>
<path style="stroke:#000000; stroke-width:1.59941; fill:none" d="M 45.192 29.1753L 53.188 8.38226"/>
<path style="stroke:#000000; stroke-width:1.59941; fill:none" d="M 69.18 29.1753L 77.176 8.38226"/>
<path style="stroke:#000000; stroke-width:1.59941; fill:none" d="M 93.172 29.1753L 101.168 8.38226"/>
<path style="stroke:#000000; stroke-width:1.59941; fill:none" d="M 117.164 29.1753L 125.16 8.38226"/>
<path style="stroke:#000000; stroke-width:1.59941; fill:none" d="M 25.2 18.7773L 145.153 18.7773"/>
<path style="stroke:#000000; stroke-width:1.59941; fill:none" d="M 173.145 8.38226L 293.899 8.38226L 285.903 29.1753L 165.95 29.1753L 173.145 8.38226z"/>
<path style="stroke:#000000; stroke-width:1.59941; fill:none" d="M 189.938 29.1753L 197.133 8.38226"/>
<path style="stroke:#000000; stroke-width:1.59941; fill:none" d="M 213.93 29.1753L 221.125 8.38226"/>
<path style="stroke:#000000; stroke-width:1.59941; fill:none" d="M 237.918 29.1753L 245.914 8.38226"/>
<path style="stroke:#000000; stroke-width:1.59941; fill:none" d="M 261.91 29.1753L 269.907 8.38226"/>
<path style="stroke:#000000; stroke-width:1.59941; fill:none" d="M 169.145 18.7773L 289.899 18.7773"/>
<path style="stroke:#000000; stroke-width:1.59941; fill:none" d="M 29.196 8.38226L 293.895 8.38226L 273.903 61.1593L 9.20299 61.1593L 29.196 8.38226z"/>
<path style="stroke:none; fill-rule:evenodd; fill:#000000" d="M 16.692 60.7773C 12.688 60.7773 9.965 63.7183 9.965 68.0733C 9.965 72.4293 12.688 75.3703 16.711 75.3703C 18.395 75.3703 19.91 74.8553 21.043 73.9023C 22.555 72.6243 23.461 70.4643 23.461 68.1913C 23.461 63.7023 20.797 60.7773 16.692 60.7773zM 16.692 62.3783C 19.711 62.3783 21.66 64.6593 21.66 68.1523C 21.66 71.4913 19.653 73.7733 16.711 73.7733C 13.75 73.7733 11.766 71.4953 11.766 68.0773C 11.766 64.6593 13.75 62.3783 16.696 62.3783L 16.692 62.3783z"/>
<path style="stroke:none; fill-rule:evenodd; fill:#000000" d="M 33.461 74.9373L 33.461 64.8783L 31.864 64.8783L 31.864 70.5773C 31.864 72.6283 30.77 73.9723 29.074 73.9723C 27.789 73.9723 26.969 73.2063 26.969 71.9953L 26.969 64.8743L 25.371 64.8743L 25.371 72.6283C 25.371 74.2963 26.625 75.3703 28.594 75.3703C 30.078 75.3703 31.024 74.8553 31.969 73.5303L 31.969 74.9293L 33.461 74.9373z"/>
<path style="stroke:none; fill-rule:evenodd; fill:#000000" d="M 39.762 64.8783L 38.063 64.8783L 38.063 62.1593L 36.465 62.1593L 36.465 64.8783L 35.168 64.8783L 35.168 66.1753L 36.465 66.1753L 36.465 73.7803C 36.465 74.7963 37.164 75.3743 38.434 75.3743C 38.824 75.3743 39.211 75.3393 39.762 75.2453L 39.762 73.9413C 39.547 73.9643 39.289 73.9763 38.973 73.9763C 38.262 73.9763 38.067 73.7843 38.067 73.0733L 38.067 66.1793L 39.766 66.1793L 39.762 64.8783z"/>
<path style="stroke:none; fill-rule:evenodd; fill:#000000" d="M 41.16 79.1593L 42.758 79.1593L 42.758 73.8783C 43.602 74.9133 44.543 75.3783 45.852 75.3783C 48.446 75.3783 50.157 73.3043 50.157 70.1243C 50.157 66.7773 48.512 64.6833 45.852 64.6833C 44.496 64.6833 43.407 65.2923 42.66 66.4803L 42.66 64.9723L 41.16 64.9723L 41.16 79.1593zM 45.602 66.1753C 47.391 66.1753 48.559 67.7103 48.559 70.0813C 48.559 72.3353 47.371 73.8703 45.602 73.8703C 43.891 73.8703 42.762 72.3553 42.762 70.0233C 42.762 67.6953 43.891 66.1753 45.602 66.1753z"/>
<path style="stroke:none; fill-rule:evenodd; fill:#000000" d="M 60.16 74.9373L 60.16 64.8783L 58.563 64.8783L 58.563 70.5773C 58.563 72.6283 57.469 73.9723 55.774 73.9723C 54.489 73.9723 53.668 73.2063 53.668 71.9953L 53.668 64.8743L 52.071 64.8743L 52.071 72.6283C 52.071 74.2963 53.324 75.3703 55.293 75.3703C 56.778 75.3703 57.723 74.8553 58.668 73.5303L 58.668 74.9293L 60.16 74.9373z"/>
<path style="stroke:none; fill-rule:evenodd; fill:#000000" d="M 66.36 64.8783L 64.66 64.8783L 64.66 62.1593L 63.063 62.1593L 63.063 64.8783L 61.766 64.8783L 61.766 66.1753L 63.063 66.1753L 63.063 73.7803C 63.063 74.7963 63.762 75.3743 65.032 75.3743C 65.422 75.3743 65.809 75.3393 66.36 75.2453L 66.36 73.9413C 66.145 73.9643 65.887 73.9763 65.571 73.9763C 64.86 73.9763 64.664 73.7843 64.664 73.0733L 64.664 66.1793L 66.364 66.1793L 66.36 64.8783z"/>
<path style="stroke:#000000; stroke-width:1.59941; fill:none" d="M 33.196 61.1633L 41.192 39.5733"/>
<path style="stroke:#000000; stroke-width:1.59941; fill:none" d="M 57.188 61.1633L 65.184 39.5733"/>
<path style="stroke:#000000; stroke-width:1.59941; fill:none" d="M 81.977 61.1633L 89.172 39.5733"/>
<path style="stroke:#000000; stroke-width:1.59941; fill:none" d="M 105.969 61.1633L 113.164 39.5733"/>
<path style="stroke:#000000; stroke-width:1.59941; fill:none" d="M 13.203 50.7653L 133.957 50.7653"/>
<path style="stroke:#000000; stroke-width:1.59941; fill:none" d="M 130 194.78L 189.332 219.659L 130 194.78z"/>
<path style="stroke:none; fill-rule:evenodd; fill:#000000" d="M 11.262 39.9763L 11.262 44.7733L 12.559 44.7733L 12.559 34.2733L 11.262 34.2733L 11.262 38.8703L 5.76199 38.8703L 5.76199 34.2733L 4.465 34.2733L 4.465 44.7733L 5.76199 44.7733L 5.76199 39.9763L 11.262 39.9763z"/>
<path style="stroke:none; fill-rule:evenodd; fill:#000000" d="M 5.20299 57.4763L 8.84399 46.9763L 7.422 46.9763L 4.51599 55.8633L 1.43799 46.9763L 0 46.9763L 3.76999 57.4763L 5.20299 57.4763z"/>
<path style="stroke:none; fill-rule:evenodd; fill:#000000" d="M 21.461 9.17529L 21.461 13.9723L 22.758 13.9723L 22.758 3.47229L 21.461 3.47229L 21.461 8.07031L 15.961 8.07031L 15.961 3.47229L 14.664 3.47229L 14.664 13.9723L 15.961 13.9723L 15.961 9.17529L 21.461 9.17529z"/>
<path style="stroke:none; fill-rule:evenodd; fill:#000000" d="M 15.504 26.6753L 19.145 16.1753L 17.723 16.1753L 14.817 25.0623L 11.739 16.1753L 10.301 16.1753L 14.071 26.6753L 15.504 26.6753z"/>
<path style="stroke:none; fill-rule:evenodd; fill:#000000" d="M 154.559 39.7773L 154.559 44.5733L 155.856 44.5733L 155.856 34.0733L 154.559 34.0733L 154.559 38.6713L 149.059 38.6713L 149.059 34.0733L 147.762 34.0733L 147.762 44.5733L 149.059 44.5733L 149.059 39.7773L 154.559 39.7773z"/>
<path style="stroke:none; fill-rule:evenodd; fill:#000000" d="M 148.504 57.3783L 152.145 46.8783L 150.723 46.8783L 147.817 55.7653L 144.739 46.8783L 143.301 46.8783L 147.071 57.3783L 148.504 57.3783z"/>
<path style="stroke:none; fill-rule:evenodd; fill:#000000" d="M 165.66 11.7773L 165.66 16.5733L 166.957 16.5733L 166.957 6.0733L 165.66 6.0733L 165.66 10.6713L 160.16 10.6713L 160.16 6.0733L 158.864 6.0733L 158.864 16.5733L 160.16 16.5733L 160.16 11.7773L 165.66 11.7773z"/>
<path style="stroke:none; fill-rule:evenodd; fill:#000000" d="M 159.703 29.3783L 163.344 18.8783L 161.922 18.8783L 159.016 27.7653L 155.938 18.8783L 154.5 18.8783L 158.27 29.3783L 159.703 29.3783z"/>
</g>
</svg>