<?xml version="1.0" encoding="UTF-8" standalone="no"?>
<svg
   xmlns:dc="http://purl.org/dc/elements/1.1/"
   xmlns:cc="http://creativecommons.org/ns#"
   xmlns:rdf="http://www.w3.org/1999/02/22-rdf-syntax-ns#"
   xmlns:svg="http://www.w3.org/2000/svg"
   xmlns="http://www.w3.org/2000/svg"
   xmlns:sodipodi="http://sodipodi.sourceforge.net/DTD/sodipodi-0.dtd"
   xmlns:inkscape="http://www.inkscape.org/namespaces/inkscape"
   width="765"
   height="990"
   id="svg2"
   sodipodi:version="0.32"
   inkscape:version="0.46"
   sodipodi:docname="fig_cortical_fun_org_abstraction.svg"
   inkscape:output_extension="org.inkscape.output.svg.inkscape"
   version="1.0"
   inkscape:export-filename="/Users/oreilly/svn_docs/figs/fig_cortical_fun_org_abstraction.png"
   inkscape:export-xdpi="150"
   inkscape:export-ydpi="150">
  <metadata
     id="metadata231">
    <rdf:RDF>
      <cc:Work
         rdf:about="">
        <dc:format>image/svg+xml</dc:format>
        <dc:type
           rdf:resource="http://purl.org/dc/dcmitype/StillImage" />
      </cc:Work>
    </rdf:RDF>
  </metadata>
  <sodipodi:namedview
     inkscape:window-height="480"
     inkscape:window-width="640"
     inkscape:pageshadow="2"
     inkscape:pageopacity="0.0"
     guidetolerance="10.0"
     gridtolerance="10.0"
     objecttolerance="10.0"
     borderopacity="1.0"
     bordercolor="#666666"
     pagecolor="#ffffff"
     id="base"
     showgrid="false"
     inkscape:zoom="2.9594772"
     inkscape:cx="402.59896"
     inkscape:cy="512.34018"
     inkscape:current-layer="svg2" />
  <defs
     id="defs4">
    <marker
       inkscape:stockid="Arrow2Mend"
       orient="auto"
       refY="0.0"
       refX="0.0"
       id="Arrow2Mend"
       style="overflow:visible;">
      <path
         id="path3826"
         style="font-size:12.0;fill-rule:evenodd;stroke-width:0.62500000;stroke-linejoin:round;"
         d="M 8.7185878,4.0337352 L -2.2072895,0.016013256 L 8.7185884,-4.0017078 C 6.9730900,-1.6296469 6.9831476,1.6157441 8.7185878,4.0337352 z "
         transform="scale(0.6) rotate(180) translate(0,0)" />
    </marker>
    <marker
       inkscape:stockid="Arrow2Mstart"
       orient="auto"
       refY="0.0"
       refX="0.0"
       id="Arrow2Mstart"
       style="overflow:visible">
      <path
         id="path3823"
         style="font-size:12.0;fill-rule:evenodd;stroke-width:0.62500000;stroke-linejoin:round"
         d="M 8.7185878,4.0337352 L -2.2072895,0.016013256 L 8.7185884,-4.0017078 C 6.9730900,-1.6296469 6.9831476,1.6157441 8.7185878,4.0337352 z "
         transform="scale(0.6) translate(0,0)" />
    </marker>
    <marker
       inkscape:stockid="Arrow2Lstart"
       orient="auto"
       refY="0.0"
       refX="0.0"
       id="Arrow2Lstart"
       style="overflow:visible">
      <path
         id="path3817"
         style="font-size:12.0;fill-rule:evenodd;stroke-width:0.62500000;stroke-linejoin:round"
         d="M 8.7185878,4.0337352 L -2.2072895,0.016013256 L 8.7185884,-4.0017078 C 6.9730900,-1.6296469 6.9831476,1.6157441 8.7185878,4.0337352 z "
         transform="scale(1.1) translate(1,0)" />
    </marker>
    <marker
       inkscape:stockid="Arrow2Lend"
       orient="auto"
       refY="0.0"
       refX="0.0"
       id="Arrow2Lend"
       style="overflow:visible;">
      <path
         id="path3820"
         style="font-size:12.0;fill-rule:evenodd;stroke-width:0.62500000;stroke-linejoin:round;"
         d="M 8.7185878,4.0337352 L -2.2072895,0.016013256 L 8.7185884,-4.0017078 C 6.9730900,-1.6296469 6.9831476,1.6157441 8.7185878,4.0337352 z "
         transform="scale(1.1) rotate(180) translate(1,0)" />
    </marker>
    <marker
       inkscape:stockid="Arrow1Lend"
       orient="auto"
       refY="0.0"
       refX="0.0"
       id="Arrow1Lend"
       style="overflow:visible;">
      <path
         id="path3802"
         d="M 0.0,0.0 L 5.0,-5.0 L -12.5,0.0 L 5.0,5.0 L 0.0,0.0 z "
         style="fill-rule:evenodd;stroke:#000000;stroke-width:1.0pt;marker-start:none;"
         transform="scale(0.8) rotate(180) translate(12.5,0)" />
    </marker>
    <inkscape:perspective
       sodipodi:type="inkscape:persp3d"
       inkscape:vp_x="0 : 96.803001 : 1"
       inkscape:vp_y="0 : 1000 : 0"
       inkscape:vp_z="243.504 : 96.803001 : 1"
       inkscape:persp3d-origin="121.752 : 64.535334 : 1"
       id="perspective233" />
    <marker
       id="ArrowEnd"
       viewBox="0 0 10 10"
       refX="0"
       refY="5"
       markerUnits="strokeWidth"
       markerWidth="4"
       markerHeight="3"
       orient="auto">
      <path
         d="M 0,0 L 10,5 L 0,10 L 0,0 z"
         id="path7" />
    </marker>
    <marker
       id="ArrowStart"
       viewBox="0 0 10 10"
       refX="10"
       refY="5"
       markerUnits="strokeWidth"
       markerWidth="4"
       markerHeight="3"
       orient="auto">
      <path
         d="M 10,0 L 0,5 L 10,10 L 10,0 z"
         id="path10" />
    </marker>
  </defs>
  <rect
     style="font-size:8px;opacity:1;fill:#b3b3b3;fill-opacity:1;fill-rule:evenodd;stroke:#999999;stroke-width:0.59939075;stroke-linecap:butt;stroke-linejoin:miter;marker:none;marker-start:none;marker-mid:none;marker-end:none;stroke-miterlimit:4;stroke-dasharray:none;stroke-dashoffset:0;stroke-opacity:1;visibility:visible;display:inline;overflow:visible;enable-background:accumulate"
     id="rect3770"
     width="238.9274"
     height="185.14565"
     x="222.65755"
     y="396.66302" />
  <path
     id="path208"
     d="M 332.62076,499.69459 C 332.62076,499.69459 332.62076,499.69459 336.04676,501.12859 C 339.47276,502.56159 346.32776,505.43259 351.90976,507.42459 C 357.48876,509.41759 361.79276,510.53059 366.49626,511.17059 C 371.19936,511.80759 376.30096,511.96759 383.07436,514.51859 C 389.84776,517.06959 398.30096,522.01059 405.95326,528.38559 C 413.60566,534.76059 420.46106,542.57359 417.35166,550.70659 C 414.24626,558.83559 401.17206,567.28459 389.05096,571.43259 C 376.93376,575.57759 365.77356,575.41759 354.53476,573.90159 C 343.29676,572.38959 331.97676,569.51859 321.69176,564.33859 C 311.40976,559.15959 302.16376,551.66359 291.63676,548.71359 C 281.11676,545.76459 269.31676,547.36259 258.47676,545.60859 C 247.63676,543.85459 237.74976,538.75359 233.12876,528.71059 C 228.50776,518.66759 229.14476,503.67859 232.25376,490.36639 C 235.35976,477.05429 240.94176,465.41739 249.94876,452.18229 C 258.95676,438.95239 271.39076,424.12429 291.40276,414.15939 C 311.40976,404.19439 338.99176,399.09335 364.66416,402.28439 C 390.33216,405.47129 414.08996,416.95239 428.03916,427.71429 C 441.98846,438.47529 446.13296,448.51829 448.92596,459.12039 C 451.71496,469.72129 453.14856,480.88239 453.23066,488.61639 C 453.30873,496.34659 452.03526,500.65159 448.52746,505.35459 C 445.01966,510.05759 439.28136,515.15959 433.62126,518.34659 C 427.96496,521.53459 422.38296,522.80759 415.68766,522.56959 C 408.99236,522.33159 401.17986,520.57759 397.27356,519.70259 C 393.37126,518.82759 393.37126,518.82759 393.37126,518.82759"
     style="fill:none;stroke:#000000;stroke-width:1;stroke-miterlimit:4;stroke-dasharray:none" />
  <text
     xml:space="preserve"
     style="font-size:12px;font-style:normal;font-variant:normal;font-weight:normal;font-stretch:normal;text-align:start;line-height:100%;writing-mode:lr-tb;text-anchor:start;fill:#000000;fill-opacity:1;stroke:none;stroke-width:1px;stroke-linecap:butt;stroke-linejoin:miter;stroke-opacity:1;font-family:Arial;-inkscape-font-specification:Arial"
     x="29.2365"
     y="53.431004"
     id="text2934"
     sodipodi:linespacing="100%"><tspan
       sodipodi:role="line"
       id="tspan2936"
       x="29.2365"
       y="53.431004" /></text>
  <text
     sodipodi:linespacing="100%"
     id="text8526"
     y="430.5015"
     x="403.3035"
     style="font-size:8px;font-style:normal;font-variant:normal;font-weight:normal;font-stretch:normal;text-align:start;line-height:100%;writing-mode:lr-tb;text-anchor:start;fill:#ff00ff;fill-opacity:1;stroke:none;stroke-width:1px;stroke-linecap:butt;stroke-linejoin:miter;stroke-opacity:1;font-family:Arial;-inkscape-font-specification:Arial"
     xml:space="preserve"><tspan
       y="430.5015"
       x="403.3035"
       sodipodi:role="line"
       id="tspan8538" /></text>
  <text
     xml:space="preserve"
     style="font-size:14px;font-style:normal;font-variant:normal;font-weight:normal;font-stretch:normal;text-align:start;line-height:100%;writing-mode:lr-tb;text-anchor:start;fill:#000000;fill-opacity:1;stroke:none;stroke-width:1px;stroke-linecap:butt;stroke-linejoin:miter;stroke-opacity:1;font-family:Arial;-inkscape-font-specification:Arial"
     x="416.11951"
     y="444.51901"
     id="text2501"
     sodipodi:linespacing="100%"><tspan
       sodipodi:role="line"
       id="tspan2503"
       x="416.11951"
       y="444.51901" /></text>
  <text
     xml:space="preserve"
     style="font-size:14px;font-style:normal;font-variant:normal;font-weight:normal;font-stretch:normal;text-align:start;line-height:100%;writing-mode:lr-tb;text-anchor:start;fill:#000000;fill-opacity:1;stroke:none;stroke-width:1px;stroke-linecap:butt;stroke-linejoin:miter;stroke-opacity:1;font-family:Arial;-inkscape-font-specification:Arial"
     x="405.306"
     y="471.75299"
     id="text2575"
     sodipodi:linespacing="100%"><tspan
       sodipodi:role="line"
       id="tspan2577"
       x="405.306"
       y="471.75299" /></text>
  <path
     id="path206"
     d="M 322.09776,404.50739 C 322.09776,404.50739 322.09776,404.50739 324.32776,407.77239 C 326.55876,411.03839 331.02376,417.57739 332.45676,422.51829 C 333.89076,427.46029 332.30076,430.80729 332.61376,434.55439 C 332.92976,438.30039 335.16376,442.44439 336.27776,445.95239 C 337.39076,449.46029 337.39076,452.32739 339.70276,455.99539 C 342.01176,459.65939 346.63676,464.12429 349.18776,468.11239 C 351.73876,472.09739 352.21476,475.60439 353.73076,479.83129 C 355.24176,484.05429 357.79276,488.99919 360.26576,494.26059 C 362.73476,499.51859 365.12516,505.10059 366.32436,507.88959 C 367.51966,510.67859 367.51966,510.67859 367.51966,510.67859"
     style="fill:none;stroke:#000000;stroke-width:1;stroke-miterlimit:4;stroke-dasharray:4, 4;stroke-dashoffset:0" />
  <path
     id="path210"
     d="M 242.21876,465.25339 C 242.21876,465.25339 242.21876,465.25339 244.60976,466.68639 C 246.99976,468.12039 251.78176,470.99139 256.08576,473.06139 C 260.39076,475.13239 264.21476,476.40939 267.16376,479.43639 C 270.11376,482.46439 272.18376,487.24539 273.69876,492.42859 C 275.21076,497.60859 276.16776,503.19059 276.16776,509.00659 C 276.16776,514.82359 275.21476,520.88559 272.18376,526.46359 C 269.15676,532.04259 264.05476,537.14359 260.14876,540.17459 C 256.24576,543.20259 253.53476,544.15959 252.17976,544.63559 C 250.82776,545.11259 250.82776,545.11259 250.82776,545.11259"
     style="fill:none;stroke:#000000;stroke-width:1;stroke-miterlimit:4;stroke-dasharray:3, 3;stroke-dashoffset:0" />
  <path
     id="path212"
     d="M 333.10176,499.69459 C 333.10176,499.69459 333.10176,499.69459 330.71076,499.05759 C 328.32076,498.42059 323.53876,497.14759 314.13276,497.54559 C 304.72676,497.94459 290.69576,500.01459 283.68376,501.05359 C 276.66776,502.08859 276.66776,502.08859 276.66776,502.08859"
     style="fill:none;stroke:#000000;stroke-width:1;stroke-miterlimit:4;stroke-dasharray:4, 4;stroke-dashoffset:0" />
  <path
     sodipodi:nodetypes="cc"
     id="path2545"
     d="M 439.16429,482.62016 C 436.36079,481.01816 356.48943,452.09545 356.48943,452.09545"
     style="fill:none;fill-rule:evenodd;stroke:#000000;stroke-width:1px;stroke-linecap:butt;stroke-linejoin:miter;marker-start:url(#Arrow2Mstart);marker-end:url(#Arrow2Mend);stroke-opacity:1" />
  <text
     xml:space="preserve"
     style="font-size:14px;font-style:normal;font-variant:normal;font-weight:normal;font-stretch:normal;text-align:start;line-height:100%;writing-mode:lr-tb;text-anchor:start;fill:#000000;fill-opacity:1;stroke:none;stroke-width:1px;stroke-linecap:butt;stroke-linejoin:miter;stroke-opacity:1;font-family:Arial;-inkscape-font-specification:Arial"
     x="226.683"
     y="383.24249"
     id="text3455"
     sodipodi:linespacing="100%"><tspan
       sodipodi:role="line"
       id="tspan3457"
       x="226.683"
       y="383.24249" /></text>
  <text
     xml:space="preserve"
     style="font-size:14px;font-style:normal;font-variant:normal;font-weight:normal;font-stretch:normal;text-align:start;line-height:100%;writing-mode:lr-tb;text-anchor:start;fill:#000000;fill-opacity:1;stroke:none;stroke-width:1px;stroke-linecap:butt;stroke-linejoin:miter;stroke-opacity:1;font-family:Arial;-inkscape-font-specification:Arial"
     x="339.9249"
     y="449.02606"
     id="text2601"
     sodipodi:linespacing="100%"><tspan
       sodipodi:role="line"
       x="339.9249"
       y="449.02606"
       id="tspan2605"
       style="font-size:12px">Concrete</tspan></text>
  <text
     xml:space="preserve"
     style="font-size:14px;font-style:normal;font-variant:normal;font-weight:normal;font-stretch:normal;text-align:start;line-height:100%;writing-mode:lr-tb;text-anchor:start;fill:#000000;fill-opacity:1;stroke:none;stroke-width:1px;stroke-linecap:butt;stroke-linejoin:miter;stroke-opacity:1;font-family:Arial;-inkscape-font-specification:Arial"
     x="402.43594"
     y="494.30435"
     id="text2609"
     sodipodi:linespacing="100%"><tspan
       sodipodi:role="line"
       id="tspan2611"
       x="402.43594"
       y="494.30435"
       style="font-size:12px">Abstract</tspan></text>
  <text
     xml:space="preserve"
     style="font-size:13.99999905px;font-style:normal;font-variant:normal;font-weight:normal;font-stretch:normal;text-align:start;line-height:100%;writing-mode:lr-tb;text-anchor:start;fill:#000000;fill-opacity:1;stroke:none;stroke-width:1px;stroke-linecap:butt;stroke-linejoin:miter;stroke-opacity:1;font-family:Arial;-inkscape-font-specification:Arial"
     x="520.59906"
     y="339.30493"
     id="text2613"
     sodipodi:linespacing="100%"
     transform="matrix(0.9370247,0.349263,-0.349263,0.9370247,0,0)"><tspan
       sodipodi:role="line"
       id="tspan2615"
       x="520.59906"
       y="339.30493">What</tspan></text>
  <text
     xml:space="preserve"
     style="font-size:14px;font-style:normal;font-variant:normal;font-weight:normal;font-stretch:normal;text-align:start;line-height:100%;writing-mode:lr-tb;text-anchor:start;fill:#000000;fill-opacity:1;stroke:none;stroke-width:1px;stroke-linecap:butt;stroke-linejoin:miter;stroke-opacity:1;font-family:Arial;-inkscape-font-specification:Arial"
     x="520.05817"
     y="248.74619"
     id="text2617"
     sodipodi:linespacing="100%"
     transform="matrix(0.9273041,0.3743088,-0.3743088,0.9273041,0,0)"><tspan
       sodipodi:role="line"
       id="tspan2619"
       x="520.05817"
       y="248.74619">How</tspan></text>
</svg>
