<svg
  width="337.972px"
  height="143.957px"
  viewBox="0 0 337.972 143.957"
  xmlns:inkscape="http://www.inkscape.org/namespaces/inkscape"
  xmlns:sodipodi="http://sodipodi.sourceforge.net/DTD/sodipodi-0.dtd"
  xmlns:xlink="http://www.w3.org/1999/xlink"
  xmlns="http://www.w3.org/2000/svg">
  <defs
    id="Defs" />
  <sodipodi:namedview
    id="namedview478"
    gridtolerance="10"
    guidetolerance="10"
    showgrid="false"
    zoom="1.5948067"
    window-y="0"
    pagecolor="#ffffff"
    pageshadow="2"
    window-width="1298"
    current-layer="svg2"
    borderopacity="1"
    window-height="936"
    cy="71.9785"
    window-x="0"
    bordercolor="#666666"
    objecttolerance="10"
    pageopacity="0"
    cx="168.98599"
    window-maximized="0" />
  <g
    id="g12">
    <path
      id="path14"
      style="fill-rule:evenodd;fill:#ffffff;stroke:none;"
      d="M 0.524084,143.248 L 336.786,143.248 L 336.786,1.66664 L 0.524084,1.66664 L 0.524084,143.248 z " />
    <path
      id="path16"
      style="stroke:#ffffff;stroke-width:0.10000000000000001;fill:none;"
      d="M 0.524084,143.248 L 336.786,143.248 L 336.786,1.66664 L 0.524084,1.66664 L 0.524084,143.248 z " />
    <path
      id="path18"
      style="stroke:#000000;stroke-width:0.95664899999999997;fill:none;"
      d="M 160.762,71.9786 C 160.762,34.9986 129.926,5.01364 91.8831,5.01364 C 53.8444,5.01364 23.0045,34.9946 23.0045,71.9786 C 23.0045,108.959 53.8405,138.943 91.8831,138.943 C 129.922,138.943 160.762,108.963 160.762,71.9786 " />
    <path
      id="path20"
      style="stroke:none;fill-rule:evenodd;fill:#ffff00;"
      d="M 67.778,45.1936 C 67.778,42.6586 65.7233,40.6036 63.1881,40.6036 C 60.653,40.6036 58.5983,42.6586 58.5983,45.1936 C 58.5983,47.7286 60.653,49.7836 63.1881,49.7836 C 65.7233,49.7836 67.778,47.7286 67.778,45.1936 " />
    <path
      id="path22"
      style="stroke:#000000;stroke-width:0.95664899999999997;fill:none;"
      d="M 67.778,45.1936 C 67.778,42.6586 65.7233,40.6036 63.1881,40.6036 C 60.653,40.6036 58.5983,42.6586 58.5983,45.1936 C 58.5983,47.7286 60.653,49.7836 63.1881,49.7836 C 65.7233,49.7836 67.778,47.7286 67.778,45.1936 " />
    <path
      id="path24"
      style="stroke:none;fill-rule:evenodd;fill:#ffff00;"
      d="M 67.778,98.7638 C 67.778,96.2286 65.7233,94.1739 63.1881,94.1739 C 60.653,94.1739 58.5983,96.2286 58.5983,98.7638 C 58.5983,101.299 60.653,103.354 63.1881,103.354 C 65.7233,103.354 67.778,101.299 67.778,98.7638 " />
    <path
      id="path26"
      style="stroke:#000000;stroke-width:0.95664899999999997;fill:none;"
      d="M 67.778,98.7638 C 67.778,96.2286 65.7233,94.1739 63.1881,94.1739 C 60.653,94.1739 58.5983,96.2286 58.5983,98.7638 C 58.5983,101.299 60.653,103.354 63.1881,103.354 C 65.7233,103.354 67.778,101.299 67.778,98.7638 " />
    <path
      id="path28"
      style="stroke:none;fill-rule:evenodd;fill:#ffa400;"
      d="M 79.2545,58.5836 C 79.2545,56.0486 77.1999,53.9946 74.6647,53.9946 C 72.1295,53.9946 70.0749,56.0486 70.0749,58.5836 C 70.0749,61.1196 72.1295,63.1736 74.6647,63.1736 C 77.1999,63.1736 79.2545,61.1196 79.2545,58.5836 " />
    <path
      id="path30"
      style="stroke:#000000;stroke-width:0.95664899999999997;fill:none;"
      d="M 79.2545,58.5836 C 79.2545,56.0486 77.1999,53.9946 74.6647,53.9946 C 72.1295,53.9946 70.0749,56.0486 70.0749,58.5836 C 70.0749,61.1196 72.1295,63.1736 74.6647,63.1736 C 77.1999,63.1736 79.2545,61.1196 79.2545,58.5836 " />
    <path
      id="path32"
      style="stroke:none;fill-rule:evenodd;fill:#ffa400;"
      d="M 79.2545,85.3731 C 79.2545,82.838 77.1999,80.7833 74.6647,80.7833 C 72.1295,80.7833 70.0749,82.838 70.0749,85.3731 C 70.0749,87.9083 72.1295,89.963 74.6647,89.963 C 77.1999,89.963 79.2545,87.9083 79.2545,85.3731 " />
    <path
      id="path34"
      style="fill:none;stroke:#000000;stroke-width:0.95664899999999997;"
      d="M 79.2545,85.3731 C 79.2545,82.838 77.1999,80.7833 74.6647,80.7833 C 72.1295,80.7833 70.0749,82.838 70.0749,85.3731 C 70.0749,87.9083 72.1295,89.963 74.6647,89.963 C 77.1999,89.963 79.2545,87.9083 79.2545,85.3731 " />
    <path
      id="path36"
      style="stroke:none;fill-rule:evenodd;fill:#ffff00;"
      d="M 79.2545,112.158 C 79.2545,109.623 77.1999,107.568 74.6647,107.568 C 72.1295,107.568 70.0749,109.623 70.0749,112.158 C 70.0749,114.693 72.1295,116.748 74.6647,116.748 C 77.1999,116.748 79.2545,114.693 79.2545,112.158 " />
    <path
      id="path38"
      style="stroke:#000000;stroke-width:0.95664899999999997;fill:none;"
      d="M 79.2545,112.158 C 79.2545,109.623 77.1999,107.568 74.6647,107.568 C 72.1295,107.568 70.0749,109.623 70.0749,112.158 C 70.0749,114.693 72.1295,116.748 74.6647,116.748 C 77.1999,116.748 79.2545,114.693 79.2545,112.158 " />
    <path
      id="path40"
      style="stroke:none;fill-rule:evenodd;fill:#ffff00;"
      d="M 79.2545,31.7986 C 79.2545,29.2636 77.1999,27.2086 74.6647,27.2086 C 72.1295,27.2086 70.0749,29.2636 70.0749,31.7986 C 70.0749,34.3336 72.1295,36.3886 74.6647,36.3886 C 77.1999,36.3886 79.2545,34.3336 79.2545,31.7986 " />
    <path
      id="path42"
      style="stroke:#000000;stroke-width:0.95664899999999997;fill:none;"
      d="M 79.2545,31.7986 C 79.2545,29.2636 77.1999,27.2086 74.6647,27.2086 C 72.1295,27.2086 70.0749,29.2636 70.0749,31.7986 C 70.0749,34.3336 72.1295,36.3886 74.6647,36.3886 C 77.1999,36.3886 79.2545,34.3336 79.2545,31.7986 " />
    <path
      id="path44"
      style="fill-rule:evenodd;fill:#ffa400;stroke:none;"
      d="M 90.7351,98.7638 C 90.7351,96.2286 88.6803,94.1739 86.1452,94.1739 C 83.61,94.1739 81.5553,96.2286 81.5553,98.7638 C 81.5553,101.299 83.61,103.354 86.1452,103.354 C 88.6803,103.354 90.7351,101.299 90.7351,98.7638 " />
    <path
      id="path46"
      style="stroke:#000000;stroke-width:0.95664899999999997;fill:none;"
      d="M 90.7351,98.7638 C 90.7351,96.2286 88.6803,94.1739 86.1452,94.1739 C 83.61,94.1739 81.5553,96.2286 81.5553,98.7638 C 81.5553,101.299 83.61,103.354 86.1452,103.354 C 88.6803,103.354 90.7351,101.299 90.7351,98.7638 " />
    <path
      id="path48"
      style="stroke:none;fill-rule:evenodd;fill:#ffff00;"
      d="M 90.7351,112.158 C 90.7351,109.623 88.6803,107.568 86.1452,107.568 C 83.61,107.568 81.5553,109.623 81.5553,112.158 C 81.5553,114.693 83.61,116.748 86.1452,116.748 C 88.6803,116.748 90.7351,114.693 90.7351,112.158 " />
    <path
      id="path50"
      style="stroke:#000000;stroke-width:0.95664899999999997;fill:none;"
      d="M 90.7351,112.158 C 90.7351,109.623 88.6803,107.568 86.1452,107.568 C 83.61,107.568 81.5553,109.623 81.5553,112.158 C 81.5553,114.693 83.61,116.748 86.1452,116.748 C 88.6803,116.748 90.7351,114.693 90.7351,112.158 " />
    <path
      id="path52"
      style="stroke:none;fill-rule:evenodd;fill:#ffff00;"
      d="M 90.7351,31.7986 C 90.7351,29.2636 88.6803,27.2086 86.1452,27.2086 C 83.61,27.2086 81.5553,29.2636 81.5553,31.7986 C 81.5553,34.3336 83.61,36.3886 86.1452,36.3886 C 88.6803,36.3886 90.7351,34.3336 90.7351,31.7986 " />
    <path
      id="path54"
      style="stroke:#000000;stroke-width:0.95664899999999997;fill:none;"
      d="M 90.7351,31.7986 C 90.7351,29.2636 88.6803,27.2086 86.1452,27.2086 C 83.61,27.2086 81.5553,29.2636 81.5553,31.7986 C 81.5553,34.3336 83.61,36.3886 86.1452,36.3886 C 88.6803,36.3886 90.7351,34.3336 90.7351,31.7986 " />
    <path
      id="path56"
      style="fill:#ffff00;stroke:none;fill-rule:evenodd;"
      d="M 56.2975,58.5836 C 56.2975,56.0486 54.2428,53.9946 51.7077,53.9946 C 49.1725,53.9946 47.1178,56.0486 47.1178,58.5836 C 47.1178,61.1196 49.1725,63.1736 51.7077,63.1736 C 54.2428,63.1736 56.2975,61.1196 56.2975,58.5836 " />
    <path
      id="path58"
      style="stroke-width:0.95664899999999997;fill:none;stroke:#000000;"
      d="M 56.2975,58.5836 C 56.2975,56.0486 54.2428,53.9946 51.7077,53.9946 C 49.1725,53.9946 47.1178,56.0486 47.1178,58.5836 C 47.1178,61.1196 49.1725,63.1736 51.7077,63.1736 C 54.2428,63.1736 56.2975,61.1196 56.2975,58.5836 " />
    <path
      id="path60"
      style="fill:#ffff00;stroke:none;fill-rule:evenodd;"
      d="M 56.2975,71.9786 C 56.2975,69.4434 54.2428,67.3888 51.7077,67.3888 C 49.1725,67.3888 47.1178,69.4434 47.1178,71.9786 C 47.1178,74.5138 49.1725,76.5684 51.7077,76.5684 C 54.2428,76.5684 56.2975,74.5138 56.2975,71.9786 " />
    <path
      id="path62"
      style="stroke-width:0.95664899999999997;fill:none;stroke:#000000;"
      d="M 56.2975,71.9786 C 56.2975,69.4434 54.2428,67.3888 51.7077,67.3888 C 49.1725,67.3888 47.1178,69.4434 47.1178,71.9786 C 47.1178,74.5138 49.1725,76.5684 51.7077,76.5684 C 54.2428,76.5684 56.2975,74.5138 56.2975,71.9786 " />
    <path
      id="path64"
      style="stroke:none;fill-rule:evenodd;fill:#ffff00;"
      d="M 56.2975,85.3731 C 56.2975,82.838 54.2428,80.7833 51.7077,80.7833 C 49.1725,80.7833 47.1178,82.838 47.1178,85.3731 C 47.1178,87.9083 49.1725,89.963 51.7077,89.963 C 54.2428,89.963 56.2975,87.9083 56.2975,85.3731 " />
    <path
      id="path66"
      style="stroke:#000000;stroke-width:0.95664899999999997;fill:none;"
      d="M 56.2975,85.3731 C 56.2975,82.838 54.2428,80.7833 51.7077,80.7833 C 49.1725,80.7833 47.1178,82.838 47.1178,85.3731 C 47.1178,87.9083 49.1725,89.963 51.7077,89.963 C 54.2428,89.963 56.2975,87.9083 56.2975,85.3731 " />
    <path
      id="path68"
      style="stroke:none;fill-rule:evenodd;fill:#7e7e7e;"
      d="M 67.778,58.5836 C 67.778,56.0486 65.7233,53.9946 63.1881,53.9946 C 60.653,53.9946 58.5983,56.0486 58.5983,58.5836 C 58.5983,61.1196 60.653,63.1736 63.1881,63.1736 C 65.7233,63.1736 67.778,61.1196 67.778,58.5836 " />
    <path
      id="path70"
      style="fill:none;stroke:#000000;stroke-width:0.95664899999999997;"
      d="M 67.778,58.5836 C 67.778,56.0486 65.7233,53.9946 63.1881,53.9946 C 60.653,53.9946 58.5983,56.0486 58.5983,58.5836 C 58.5983,61.1196 60.653,63.1736 63.1881,63.1736 C 65.7233,63.1736 67.778,61.1196 67.778,58.5836 " />
    <path
      id="path72"
      style="stroke:none;fill-rule:evenodd;fill:#7e7e7e;"
      d="M 67.778,71.9786 C 67.778,69.4434 65.7233,67.3888 63.1881,67.3888 C 60.653,67.3888 58.5983,69.4434 58.5983,71.9786 C 58.5983,74.5138 60.653,76.5684 63.1881,76.5684 C 65.7233,76.5684 67.778,74.5138 67.778,71.9786 " />
    <path
      id="path74"
      style="stroke:#000000;stroke-width:0.95664899999999997;fill:none;"
      d="M 67.778,71.9786 C 67.778,69.4434 65.7233,67.3888 63.1881,67.3888 C 60.653,67.3888 58.5983,69.4434 58.5983,71.9786 C 58.5983,74.5138 60.653,76.5684 63.1881,76.5684 C 65.7233,76.5684 67.778,74.5138 67.778,71.9786 " />
    <path
      id="path76"
      style="stroke:none;fill-rule:evenodd;fill:#7e7e7e;"
      d="M 67.778,85.3731 C 67.778,82.838 65.7233,80.7833 63.1881,80.7833 C 60.653,80.7833 58.5983,82.838 58.5983,85.3731 C 58.5983,87.9083 60.653,89.963 63.1881,89.963 C 65.7233,89.963 67.778,87.9083 67.778,85.3731 " />
    <path
      id="path78"
      style="stroke:#000000;stroke-width:0.95664899999999997;fill:none;"
      d="M 67.778,85.3731 C 67.778,82.838 65.7233,80.7833 63.1881,80.7833 C 60.653,80.7833 58.5983,82.838 58.5983,85.3731 C 58.5983,87.9083 60.653,89.963 63.1881,89.963 C 65.7233,89.963 67.778,87.9083 67.778,85.3731 " />
    <path
      id="path80"
      style="stroke:none;fill-rule:evenodd;fill:#7e7e7e;"
      d="M 67.778,112.158 C 67.778,109.623 65.7233,107.568 63.1881,107.568 C 60.653,107.568 58.5983,109.623 58.5983,112.158 C 58.5983,114.693 60.653,116.748 63.1881,116.748 C 65.7233,116.748 67.778,114.693 67.778,112.158 " />
    <path
      id="path82"
      style="stroke:#000000;stroke-width:0.95664899999999997;fill:none;"
      d="M 67.778,112.158 C 67.778,109.623 65.7233,107.568 63.1881,107.568 C 60.653,107.568 58.5983,109.623 58.5983,112.158 C 58.5983,114.693 60.653,116.748 63.1881,116.748 C 65.7233,116.748 67.778,114.693 67.778,112.158 " />
    <path
      id="path84"
      style="stroke:none;fill-rule:evenodd;fill:#7e7e7e;"
      d="M 67.778,31.7986 C 67.778,29.2636 65.7233,27.2086 63.1881,27.2086 C 60.653,27.2086 58.5983,29.2636 58.5983,31.7986 C 58.5983,34.3336 60.653,36.3886 63.1881,36.3886 C 65.7233,36.3886 67.778,34.3336 67.778,31.7986 " />
    <path
      id="path86"
      style="stroke:#000000;stroke-width:0.95664899999999997;fill:none;"
      d="M 67.778,31.7986 C 67.778,29.2636 65.7233,27.2086 63.1881,27.2086 C 60.653,27.2086 58.5983,29.2636 58.5983,31.7986 C 58.5983,34.3336 60.653,36.3886 63.1881,36.3886 C 65.7233,36.3886 67.778,34.3336 67.778,31.7986 " />
    <path
      id="path88"
      style="stroke:none;fill-rule:evenodd;fill:#7e7e7e;"
      d="M 79.2545,45.1936 C 79.2545,42.6586 77.1999,40.6036 74.6647,40.6036 C 72.1295,40.6036 70.0749,42.6586 70.0749,45.1936 C 70.0749,47.7286 72.1295,49.7836 74.6647,49.7836 C 77.1999,49.7836 79.2545,47.7286 79.2545,45.1936 " />
    <path
      id="path90"
      style="stroke:#000000;stroke-width:0.95664899999999997;fill:none;"
      d="M 79.2545,45.1936 C 79.2545,42.6586 77.1999,40.6036 74.6647,40.6036 C 72.1295,40.6036 70.0749,42.6586 70.0749,45.1936 C 70.0749,47.7286 72.1295,49.7836 74.6647,49.7836 C 77.1999,49.7836 79.2545,47.7286 79.2545,45.1936 " />
    <path
      id="path92"
      style="fill:#7e7e7e;stroke:none;fill-rule:evenodd;"
      d="M 79.2545,71.9786 C 79.2545,69.4434 77.1999,67.3888 74.6647,67.3888 C 72.1295,67.3888 70.0749,69.4434 70.0749,71.9786 C 70.0749,74.5138 72.1295,76.5684 74.6647,76.5684 C 77.1999,76.5684 79.2545,74.5138 79.2545,71.9786 " />
    <path
      id="path94"
      style="stroke:#000000;stroke-width:0.95664899999999997;fill:none;"
      d="M 79.2545,71.9786 C 79.2545,69.4434 77.1999,67.3888 74.6647,67.3888 C 72.1295,67.3888 70.0749,69.4434 70.0749,71.9786 C 70.0749,74.5138 72.1295,76.5684 74.6647,76.5684 C 77.1999,76.5684 79.2545,74.5138 79.2545,71.9786 " />
    <path
      id="path96"
      style="stroke:none;fill-rule:evenodd;fill:#7e7e7e;"
      d="M 79.2545,98.7638 C 79.2545,96.2286 77.1999,94.1739 74.6647,94.1739 C 72.1295,94.1739 70.0749,96.2286 70.0749,98.7638 C 70.0749,101.299 72.1295,103.354 74.6647,103.354 C 77.1999,103.354 79.2545,101.299 79.2545,98.7638 " />
    <path
      id="path98"
      style="stroke:#000000;stroke-width:0.95664899999999997;fill:none;"
      d="M 79.2545,98.7638 C 79.2545,96.2286 77.1999,94.1739 74.6647,94.1739 C 72.1295,94.1739 70.0749,96.2286 70.0749,98.7638 C 70.0749,101.299 72.1295,103.354 74.6647,103.354 C 77.1999,103.354 79.2545,101.299 79.2545,98.7638 " />
    <path
      id="path100"
      style="stroke:none;fill-rule:evenodd;fill:#7e7e7e;"
      d="M 90.7351,45.1936 C 90.7351,42.6586 88.6803,40.6036 86.1452,40.6036 C 83.61,40.6036 81.5553,42.6586 81.5553,45.1936 C 81.5553,47.7286 83.61,49.7836 86.1452,49.7836 C 88.6803,49.7836 90.7351,47.7286 90.7351,45.1936 " />
    <path
      id="path102"
      style="stroke-width:0.95664899999999997;fill:none;stroke:#000000;"
      d="M 90.7351,45.1936 C 90.7351,42.6586 88.6803,40.6036 86.1452,40.6036 C 83.61,40.6036 81.5553,42.6586 81.5553,45.1936 C 81.5553,47.7286 83.61,49.7836 86.1452,49.7836 C 88.6803,49.7836 90.7351,47.7286 90.7351,45.1936 " />
    <path
      id="path104"
      style="stroke:none;fill-rule:evenodd;fill:#7e7e7e;"
      d="M 90.7351,58.5836 C 90.7351,56.0486 88.6803,53.9946 86.1452,53.9946 C 83.61,53.9946 81.5553,56.0486 81.5553,58.5836 C 81.5553,61.1196 83.61,63.1736 86.1452,63.1736 C 88.6803,63.1736 90.7351,61.1196 90.7351,58.5836 " />
    <path
      id="path106"
      style="stroke:#000000;stroke-width:0.95664899999999997;fill:none;"
      d="M 90.7351,58.5836 C 90.7351,56.0486 88.6803,53.9946 86.1452,53.9946 C 83.61,53.9946 81.5553,56.0486 81.5553,58.5836 C 81.5553,61.1196 83.61,63.1736 86.1452,63.1736 C 88.6803,63.1736 90.7351,61.1196 90.7351,58.5836 " />
    <path
      id="path108"
      style="stroke:none;fill-rule:evenodd;fill:#7e7e7e;"
      d="M 90.7351,71.9786 C 90.7351,69.4434 88.6803,67.3888 86.1452,67.3888 C 83.61,67.3888 81.5553,69.4434 81.5553,71.9786 C 81.5553,74.5138 83.61,76.5684 86.1452,76.5684 C 88.6803,76.5684 90.7351,74.5138 90.7351,71.9786 " />
    <path
      id="path110"
      style="stroke-width:0.95664899999999997;fill:none;stroke:#000000;"
      d="M 90.7351,71.9786 C 90.7351,69.4434 88.6803,67.3888 86.1452,67.3888 C 83.61,67.3888 81.5553,69.4434 81.5553,71.9786 C 81.5553,74.5138 83.61,76.5684 86.1452,76.5684 C 88.6803,76.5684 90.7351,74.5138 90.7351,71.9786 " />
    <path
      id="path112"
      style="stroke:none;fill-rule:evenodd;fill:#7e7e7e;"
      d="M 90.7351,85.3731 C 90.7351,82.838 88.6803,80.7833 86.1452,80.7833 C 83.61,80.7833 81.5553,82.838 81.5553,85.3731 C 81.5553,87.9083 83.61,89.963 86.1452,89.963 C 88.6803,89.963 90.7351,87.9083 90.7351,85.3731 " />
    <path
      id="path114"
      style="fill:none;stroke:#000000;stroke-width:0.95664899999999997;"
      d="M 90.7351,85.3731 C 90.7351,82.838 88.6803,80.7833 86.1452,80.7833 C 83.61,80.7833 81.5553,82.838 81.5553,85.3731 C 81.5553,87.9083 83.61,89.963 86.1452,89.963 C 88.6803,89.963 90.7351,87.9083 90.7351,85.3731 " />
    <path
      id="path116"
      style="stroke:none;fill-rule:evenodd;fill:#7e7e7e;"
      d="M 102.215,45.1936 C 102.215,42.6586 100.161,40.6036 97.6261,40.6036 C 95.0901,40.6036 93.0361,42.6586 93.0361,45.1936 C 93.0361,47.7286 95.0901,49.7836 97.6261,49.7836 C 100.161,49.7836 102.215,47.7286 102.215,45.1936 " />
    <path
      id="path118"
      style="stroke-width:0.95664899999999997;fill:none;stroke:#000000;"
      d="M 102.215,45.1936 C 102.215,42.6586 100.161,40.6036 97.6261,40.6036 C 95.0901,40.6036 93.0361,42.6586 93.0361,45.1936 C 93.0361,47.7286 95.0901,49.7836 97.6261,49.7836 C 100.161,49.7836 102.215,47.7286 102.215,45.1936 " />
    <path
      id="path120"
      style="fill:#7e7e7e;stroke:none;fill-rule:evenodd;"
      d="M 102.215,58.5836 C 102.215,56.0486 100.161,53.9946 97.6261,53.9946 C 95.0901,53.9946 93.0361,56.0486 93.0361,58.5836 C 93.0361,61.1196 95.0901,63.1736 97.6261,63.1736 C 100.161,63.1736 102.215,61.1196 102.215,58.5836 " />
    <path
      id="path122"
      style="stroke:#000000;stroke-width:0.95664899999999997;fill:none;"
      d="M 102.215,58.5836 C 102.215,56.0486 100.161,53.9946 97.6261,53.9946 C 95.0901,53.9946 93.0361,56.0486 93.0361,58.5836 C 93.0361,61.1196 95.0901,63.1736 97.6261,63.1736 C 100.161,63.1736 102.215,61.1196 102.215,58.5836 " />
    <path
      id="path124"
      style="stroke:none;fill-rule:evenodd;fill:#7e7e7e;"
      d="M 102.215,71.9786 C 102.215,69.4434 100.161,67.3888 97.6261,67.3888 C 95.0901,67.3888 93.0361,69.4434 93.0361,71.9786 C 93.0361,74.5138 95.0901,76.5684 97.6261,76.5684 C 100.161,76.5684 102.215,74.5138 102.215,71.9786 " />
    <path
      id="path126"
      style="stroke:#000000;stroke-width:0.95664899999999997;fill:none;"
      d="M 102.215,71.9786 C 102.215,69.4434 100.161,67.3888 97.6261,67.3888 C 95.0901,67.3888 93.0361,69.4434 93.0361,71.9786 C 93.0361,74.5138 95.0901,76.5684 97.6261,76.5684 C 100.161,76.5684 102.215,74.5138 102.215,71.9786 " />
    <path
      id="path128"
      style="stroke:none;fill-rule:evenodd;fill:#7e7e7e;"
      d="M 102.215,85.3731 C 102.215,82.838 100.161,80.7833 97.6261,80.7833 C 95.0901,80.7833 93.0361,82.838 93.0361,85.3731 C 93.0361,87.9083 95.0901,89.963 97.6261,89.963 C 100.161,89.963 102.215,87.9083 102.215,85.3731 " />
    <path
      id="path130"
      style="stroke:#000000;stroke-width:0.95664899999999997;fill:none;"
      d="M 102.215,85.3731 C 102.215,82.838 100.161,80.7833 97.6261,80.7833 C 95.0901,80.7833 93.0361,82.838 93.0361,85.3731 C 93.0361,87.9083 95.0901,89.963 97.6261,89.963 C 100.161,89.963 102.215,87.9083 102.215,85.3731 " />
    <path
      id="path132"
      style="stroke:none;fill-rule:evenodd;fill:#7e7e7e;"
      d="M 102.215,98.7638 C 102.215,96.2286 100.161,94.1739 97.6261,94.1739 C 95.0901,94.1739 93.0361,96.2286 93.0361,98.7638 C 93.0361,101.299 95.0901,103.354 97.6261,103.354 C 100.161,103.354 102.215,101.299 102.215,98.7638 " />
    <path
      id="path134"
      style="stroke:#000000;stroke-width:0.95664899999999997;fill:none;"
      d="M 102.215,98.7638 C 102.215,96.2286 100.161,94.1739 97.6261,94.1739 C 95.0901,94.1739 93.0361,96.2286 93.0361,98.7638 C 93.0361,101.299 95.0901,103.354 97.6261,103.354 C 100.161,103.354 102.215,101.299 102.215,98.7638 " />
    <path
      id="path136"
      style="stroke:none;fill-rule:evenodd;fill:#7e7e7e;"
      d="M 102.215,112.158 C 102.215,109.623 100.161,107.568 97.6261,107.568 C 95.0901,107.568 93.0361,109.623 93.0361,112.158 C 93.0361,114.693 95.0901,116.748 97.6261,116.748 C 100.161,116.748 102.215,114.693 102.215,112.158 " />
    <path
      id="path138"
      style="fill:none;stroke:#000000;stroke-width:0.95664899999999997;"
      d="M 102.215,112.158 C 102.215,109.623 100.161,107.568 97.6261,107.568 C 95.0901,107.568 93.0361,109.623 93.0361,112.158 C 93.0361,114.693 95.0901,116.748 97.6261,116.748 C 100.161,116.748 102.215,114.693 102.215,112.158 " />
    <path
      id="path140"
      style="fill:#7e7e7e;stroke:none;fill-rule:evenodd;"
      d="M 102.215,31.7986 C 102.215,29.2636 100.161,27.2086 97.6261,27.2086 C 95.0901,27.2086 93.0361,29.2636 93.0361,31.7986 C 93.0361,34.3336 95.0901,36.3886 97.6261,36.3886 C 100.161,36.3886 102.215,34.3336 102.215,31.7986 " />
    <path
      id="path142"
      style="stroke:#000000;stroke-width:0.95664899999999997;fill:none;"
      d="M 102.215,31.7986 C 102.215,29.2636 100.161,27.2086 97.6261,27.2086 C 95.0901,27.2086 93.0361,29.2636 93.0361,31.7986 C 93.0361,34.3336 95.0901,36.3886 97.6261,36.3886 C 100.161,36.3886 102.215,34.3336 102.215,31.7986 " />
    <path
      id="path144"
      style="stroke:none;fill-rule:evenodd;fill:#7e7e7e;"
      d="M 113.696,45.1936 C 113.696,42.6586 111.641,40.6036 109.106,40.6036 C 106.571,40.6036 104.516,42.6586 104.516,45.1936 C 104.516,47.7286 106.571,49.7836 109.106,49.7836 C 111.641,49.7836 113.696,47.7286 113.696,45.1936 " />
    <path
      id="path146"
      style="stroke-width:0.95664899999999997;fill:none;stroke:#000000;"
      d="M 113.696,45.1936 C 113.696,42.6586 111.641,40.6036 109.106,40.6036 C 106.571,40.6036 104.516,42.6586 104.516,45.1936 C 104.516,47.7286 106.571,49.7836 109.106,49.7836 C 111.641,49.7836 113.696,47.7286 113.696,45.1936 " />
    <path
      id="path148"
      style="stroke:none;fill-rule:evenodd;fill:#7e7e7e;"
      d="M 113.696,58.5836 C 113.696,56.0486 111.641,53.9946 109.106,53.9946 C 106.571,53.9946 104.516,56.0486 104.516,58.5836 C 104.516,61.1196 106.571,63.1736 109.106,63.1736 C 111.641,63.1736 113.696,61.1196 113.696,58.5836 " />
    <path
      id="path150"
      style="stroke:#000000;stroke-width:0.95664899999999997;fill:none;"
      d="M 113.696,58.5836 C 113.696,56.0486 111.641,53.9946 109.106,53.9946 C 106.571,53.9946 104.516,56.0486 104.516,58.5836 C 104.516,61.1196 106.571,63.1736 109.106,63.1736 C 111.641,63.1736 113.696,61.1196 113.696,58.5836 " />
    <path
      id="path152"
      style="stroke:none;fill-rule:evenodd;fill:#7e7e7e;"
      d="M 113.696,71.9786 C 113.696,69.4434 111.641,67.3888 109.106,67.3888 C 106.571,67.3888 104.516,69.4434 104.516,71.9786 C 104.516,74.5138 106.571,76.5684 109.106,76.5684 C 111.641,76.5684 113.696,74.5138 113.696,71.9786 " />
    <path
      id="path154"
      style="stroke:#000000;stroke-width:0.95664899999999997;fill:none;"
      d="M 113.696,71.9786 C 113.696,69.4434 111.641,67.3888 109.106,67.3888 C 106.571,67.3888 104.516,69.4434 104.516,71.9786 C 104.516,74.5138 106.571,76.5684 109.106,76.5684 C 111.641,76.5684 113.696,74.5138 113.696,71.9786 " />
    <path
      id="path156"
      style="stroke:none;fill-rule:evenodd;fill:#7e7e7e;"
      d="M 113.696,85.3731 C 113.696,82.838 111.641,80.7833 109.106,80.7833 C 106.571,80.7833 104.516,82.838 104.516,85.3731 C 104.516,87.9083 106.571,89.963 109.106,89.963 C 111.641,89.963 113.696,87.9083 113.696,85.3731 " />
    <path
      id="path158"
      style="fill:none;stroke:#000000;stroke-width:0.95664899999999997;"
      d="M 113.696,85.3731 C 113.696,82.838 111.641,80.7833 109.106,80.7833 C 106.571,80.7833 104.516,82.838 104.516,85.3731 C 104.516,87.9083 106.571,89.963 109.106,89.963 C 111.641,89.963 113.696,87.9083 113.696,85.3731 " />
    <path
      id="path160"
      style="stroke:none;fill-rule:evenodd;fill:#7e7e7e;"
      d="M 113.696,98.7638 C 113.696,96.2286 111.641,94.1739 109.106,94.1739 C 106.571,94.1739 104.516,96.2286 104.516,98.7638 C 104.516,101.299 106.571,103.354 109.106,103.354 C 111.641,103.354 113.696,101.299 113.696,98.7638 " />
    <path
      id="path162"
      style="fill:none;stroke:#000000;stroke-width:0.95664899999999997;"
      d="M 113.696,98.7638 C 113.696,96.2286 111.641,94.1739 109.106,94.1739 C 106.571,94.1739 104.516,96.2286 104.516,98.7638 C 104.516,101.299 106.571,103.354 109.106,103.354 C 111.641,103.354 113.696,101.299 113.696,98.7638 " />
    <path
      id="path164"
      style="stroke:none;fill-rule:evenodd;fill:#7e7e7e;"
      d="M 113.696,112.158 C 113.696,109.623 111.641,107.568 109.106,107.568 C 106.571,107.568 104.516,109.623 104.516,112.158 C 104.516,114.693 106.571,116.748 109.106,116.748 C 111.641,116.748 113.696,114.693 113.696,112.158 " />
    <path
      id="path166"
      style="stroke:#000000;stroke-width:0.95664899999999997;fill:none;"
      d="M 113.696,112.158 C 113.696,109.623 111.641,107.568 109.106,107.568 C 106.571,107.568 104.516,109.623 104.516,112.158 C 104.516,114.693 106.571,116.748 109.106,116.748 C 111.641,116.748 113.696,114.693 113.696,112.158 " />
    <path
      id="path168"
      style="fill:#7e7e7e;stroke:none;fill-rule:evenodd;"
      d="M 113.696,31.7986 C 113.696,29.2636 111.641,27.2086 109.106,27.2086 C 106.571,27.2086 104.516,29.2636 104.516,31.7986 C 104.516,34.3336 106.571,36.3886 109.106,36.3886 C 111.641,36.3886 113.696,34.3336 113.696,31.7986 " />
    <path
      id="path170"
      style="stroke-width:0.95664899999999997;fill:none;stroke:#000000;"
      d="M 113.696,31.7986 C 113.696,29.2636 111.641,27.2086 109.106,27.2086 C 106.571,27.2086 104.516,29.2636 104.516,31.7986 C 104.516,34.3336 106.571,36.3886 109.106,36.3886 C 111.641,36.3886 113.696,34.3336 113.696,31.7986 " />
    <path
      id="path172"
      style="stroke:none;fill-rule:evenodd;fill:#7e7e7e;"
      d="M 125.176,45.1936 C 125.176,42.6586 123.122,40.6036 120.586,40.6036 C 118.051,40.6036 115.997,42.6586 115.997,45.1936 C 115.997,47.7286 118.051,49.7836 120.586,49.7836 C 123.122,49.7836 125.176,47.7286 125.176,45.1936 " />
    <path
      id="path174"
      style="stroke:#000000;stroke-width:0.95664899999999997;fill:none;"
      d="M 125.176,45.1936 C 125.176,42.6586 123.122,40.6036 120.586,40.6036 C 118.051,40.6036 115.997,42.6586 115.997,45.1936 C 115.997,47.7286 118.051,49.7836 120.586,49.7836 C 123.122,49.7836 125.176,47.7286 125.176,45.1936 " />
    <path
      id="path176"
      style="stroke:none;fill-rule:evenodd;fill:#7e7e7e;"
      d="M 125.176,58.5836 C 125.176,56.0486 123.122,53.9946 120.586,53.9946 C 118.051,53.9946 115.997,56.0486 115.997,58.5836 C 115.997,61.1196 118.051,63.1736 120.586,63.1736 C 123.122,63.1736 125.176,61.1196 125.176,58.5836 " />
    <path
      id="path178"
      style="stroke:#000000;stroke-width:0.95664899999999997;fill:none;"
      d="M 125.176,58.5836 C 125.176,56.0486 123.122,53.9946 120.586,53.9946 C 118.051,53.9946 115.997,56.0486 115.997,58.5836 C 115.997,61.1196 118.051,63.1736 120.586,63.1736 C 123.122,63.1736 125.176,61.1196 125.176,58.5836 " />
    <path
      id="path180"
      style="stroke:none;fill-rule:evenodd;fill:#7e7e7e;"
      d="M 125.176,71.9786 C 125.176,69.4434 123.122,67.3888 120.586,67.3888 C 118.051,67.3888 115.997,69.4434 115.997,71.9786 C 115.997,74.5138 118.051,76.5684 120.586,76.5684 C 123.122,76.5684 125.176,74.5138 125.176,71.9786 " />
    <path
      id="path182"
      style="stroke:#000000;stroke-width:0.95664899999999997;fill:none;"
      d="M 125.176,71.9786 C 125.176,69.4434 123.122,67.3888 120.586,67.3888 C 118.051,67.3888 115.997,69.4434 115.997,71.9786 C 115.997,74.5138 118.051,76.5684 120.586,76.5684 C 123.122,76.5684 125.176,74.5138 125.176,71.9786 " />
    <path
      id="path184"
      style="stroke:none;fill-rule:evenodd;fill:#7e7e7e;"
      d="M 125.176,85.3731 C 125.176,82.838 123.122,80.7833 120.586,80.7833 C 118.051,80.7833 115.997,82.838 115.997,85.3731 C 115.997,87.9083 118.051,89.963 120.586,89.963 C 123.122,89.963 125.176,87.9083 125.176,85.3731 " />
    <path
      id="path186"
      style="stroke:#000000;stroke-width:0.95664899999999997;fill:none;"
      d="M 125.176,85.3731 C 125.176,82.838 123.122,80.7833 120.586,80.7833 C 118.051,80.7833 115.997,82.838 115.997,85.3731 C 115.997,87.9083 118.051,89.963 120.586,89.963 C 123.122,89.963 125.176,87.9083 125.176,85.3731 " />
    <path
      id="path188"
      style="stroke:none;fill-rule:evenodd;fill:#7e7e7e;"
      d="M 125.176,98.7638 C 125.176,96.2286 123.122,94.1739 120.586,94.1739 C 118.051,94.1739 115.997,96.2286 115.997,98.7638 C 115.997,101.299 118.051,103.354 120.586,103.354 C 123.122,103.354 125.176,101.299 125.176,98.7638 " />
    <path
      id="path190"
      style="stroke-width:0.95664899999999997;fill:none;stroke:#000000;"
      d="M 125.176,98.7638 C 125.176,96.2286 123.122,94.1739 120.586,94.1739 C 118.051,94.1739 115.997,96.2286 115.997,98.7638 C 115.997,101.299 118.051,103.354 120.586,103.354 C 123.122,103.354 125.176,101.299 125.176,98.7638 " />
    <path
      id="path192"
      style="fill-rule:evenodd;fill:#7e7e7e;stroke:none;"
      d="M 125.176,112.158 C 125.176,109.623 123.122,107.568 120.586,107.568 C 118.051,107.568 115.997,109.623 115.997,112.158 C 115.997,114.693 118.051,116.748 120.586,116.748 C 123.122,116.748 125.176,114.693 125.176,112.158 " />
    <path
      id="path194"
      style="stroke-width:0.95664899999999997;fill:none;stroke:#000000;"
      d="M 125.176,112.158 C 125.176,109.623 123.122,107.568 120.586,107.568 C 118.051,107.568 115.997,109.623 115.997,112.158 C 115.997,114.693 118.051,116.748 120.586,116.748 C 123.122,116.748 125.176,114.693 125.176,112.158 " />
    <path
      id="path196"
      style="fill:#7e7e7e;stroke:none;fill-rule:evenodd;"
      d="M 125.176,31.7986 C 125.176,29.2636 123.122,27.2086 120.586,27.2086 C 118.051,27.2086 115.997,29.2636 115.997,31.7986 C 115.997,34.3336 118.051,36.3886 120.586,36.3886 C 123.122,36.3886 125.176,34.3336 125.176,31.7986 " />
    <path
      id="path198"
      style="fill:none;stroke:#000000;stroke-width:0.95664899999999997;"
      d="M 125.176,31.7986 C 125.176,29.2636 123.122,27.2086 120.586,27.2086 C 118.051,27.2086 115.997,29.2636 115.997,31.7986 C 115.997,34.3336 118.051,36.3886 120.586,36.3886 C 123.122,36.3886 125.176,34.3336 125.176,31.7986 " />
    <path
      id="path200"
      style="stroke:none;fill-rule:evenodd;fill:#7e7e7e;"
      d="M 136.657,45.1936 C 136.657,42.6586 134.602,40.6036 132.067,40.6036 C 129.532,40.6036 127.477,42.6586 127.477,45.1936 C 127.477,47.7286 129.532,49.7836 132.067,49.7836 C 134.602,49.7836 136.657,47.7286 136.657,45.1936 " />
    <path
      id="path202"
      style="stroke:#000000;stroke-width:0.95664899999999997;fill:none;"
      d="M 136.657,45.1936 C 136.657,42.6586 134.602,40.6036 132.067,40.6036 C 129.532,40.6036 127.477,42.6586 127.477,45.1936 C 127.477,47.7286 129.532,49.7836 132.067,49.7836 C 134.602,49.7836 136.657,47.7286 136.657,45.1936 " />
    <path
      id="path204"
      style="fill:#7e7e7e;stroke:none;fill-rule:evenodd;"
      d="M 136.657,58.5836 C 136.657,56.0486 134.602,53.9946 132.067,53.9946 C 129.532,53.9946 127.477,56.0486 127.477,58.5836 C 127.477,61.1196 129.532,63.1736 132.067,63.1736 C 134.602,63.1736 136.657,61.1196 136.657,58.5836 " />
    <path
      id="path206"
      style="stroke:#000000;stroke-width:0.95664899999999997;fill:none;"
      d="M 136.657,58.5836 C 136.657,56.0486 134.602,53.9946 132.067,53.9946 C 129.532,53.9946 127.477,56.0486 127.477,58.5836 C 127.477,61.1196 129.532,63.1736 132.067,63.1736 C 134.602,63.1736 136.657,61.1196 136.657,58.5836 " />
    <path
      id="path208"
      style="stroke:none;fill-rule:evenodd;fill:#7e7e7e;"
      d="M 136.657,71.9786 C 136.657,69.4434 134.602,67.3888 132.067,67.3888 C 129.532,67.3888 127.477,69.4434 127.477,71.9786 C 127.477,74.5138 129.532,76.5684 132.067,76.5684 C 134.602,76.5684 136.657,74.5138 136.657,71.9786 " />
    <path
      id="path210"
      style="stroke:#000000;stroke-width:0.95664899999999997;fill:none;"
      d="M 136.657,71.9786 C 136.657,69.4434 134.602,67.3888 132.067,67.3888 C 129.532,67.3888 127.477,69.4434 127.477,71.9786 C 127.477,74.5138 129.532,76.5684 132.067,76.5684 C 134.602,76.5684 136.657,74.5138 136.657,71.9786 " />
    <path
      id="path212"
      style="stroke:none;fill-rule:evenodd;fill:#7e7e7e;"
      d="M 136.657,85.3731 C 136.657,82.838 134.602,80.7833 132.067,80.7833 C 129.532,80.7833 127.477,82.838 127.477,85.3731 C 127.477,87.9083 129.532,89.963 132.067,89.963 C 134.602,89.963 136.657,87.9083 136.657,85.3731 " />
    <path
      id="path214"
      style="stroke:#000000;stroke-width:0.95664899999999997;fill:none;"
      d="M 136.657,85.3731 C 136.657,82.838 134.602,80.7833 132.067,80.7833 C 129.532,80.7833 127.477,82.838 127.477,85.3731 C 127.477,87.9083 129.532,89.963 132.067,89.963 C 134.602,89.963 136.657,87.9083 136.657,85.3731 " />
    <path
      id="path216"
      style="stroke:none;fill-rule:evenodd;fill:#7e7e7e;"
      d="M 136.657,98.7638 C 136.657,96.2286 134.602,94.1739 132.067,94.1739 C 129.532,94.1739 127.477,96.2286 127.477,98.7638 C 127.477,101.299 129.532,103.354 132.067,103.354 C 134.602,103.354 136.657,101.299 136.657,98.7638 " />
    <path
      id="path218"
      style="stroke-width:0.95664899999999997;fill:none;stroke:#000000;"
      d="M 136.657,98.7638 C 136.657,96.2286 134.602,94.1739 132.067,94.1739 C 129.532,94.1739 127.477,96.2286 127.477,98.7638 C 127.477,101.299 129.532,103.354 132.067,103.354 C 134.602,103.354 136.657,101.299 136.657,98.7638 " />
    <path
      id="path220"
      style="fill-rule:evenodd;fill:#7e7e7e;stroke:none;"
      d="M 136.657,112.158 C 136.657,109.623 134.602,107.568 132.067,107.568 C 129.532,107.568 127.477,109.623 127.477,112.158 C 127.477,114.693 129.532,116.748 132.067,116.748 C 134.602,116.748 136.657,114.693 136.657,112.158 " />
    <path
      id="path222"
      style="stroke:#000000;stroke-width:0.95664899999999997;fill:none;"
      d="M 136.657,112.158 C 136.657,109.623 134.602,107.568 132.067,107.568 C 129.532,107.568 127.477,109.623 127.477,112.158 C 127.477,114.693 129.532,116.748 132.067,116.748 C 134.602,116.748 136.657,114.693 136.657,112.158 " />
    <path
      id="path224"
      style="fill:#7e7e7e;stroke:none;fill-rule:evenodd;"
      d="M 136.657,31.7986 C 136.657,29.2636 134.602,27.2086 132.067,27.2086 C 129.532,27.2086 127.477,29.2636 127.477,31.7986 C 127.477,34.3336 129.532,36.3886 132.067,36.3886 C 134.602,36.3886 136.657,34.3336 136.657,31.7986 " />
    <path
      id="path226"
      style="stroke:#000000;stroke-width:0.95664899999999997;fill:none;"
      d="M 136.657,31.7986 C 136.657,29.2636 134.602,27.2086 132.067,27.2086 C 129.532,27.2086 127.477,29.2636 127.477,31.7986 C 127.477,34.3336 129.532,36.3886 132.067,36.3886 C 134.602,36.3886 136.657,34.3336 136.657,31.7986 " />
    <path
      id="path228"
      style="fill:#7e7e7e;stroke:none;fill-rule:evenodd;"
      d="M 56.2975,45.1936 C 56.2975,42.6586 54.2428,40.6036 51.7077,40.6036 C 49.1725,40.6036 47.1178,42.6586 47.1178,45.1936 C 47.1178,47.7286 49.1725,49.7836 51.7077,49.7836 C 54.2428,49.7836 56.2975,47.7286 56.2975,45.1936 " />
    <path
      id="path230"
      style="fill:none;stroke:#000000;stroke-width:0.95664899999999997;"
      d="M 56.2975,45.1936 C 56.2975,42.6586 54.2428,40.6036 51.7077,40.6036 C 49.1725,40.6036 47.1178,42.6586 47.1178,45.1936 C 47.1178,47.7286 49.1725,49.7836 51.7077,49.7836 C 54.2428,49.7836 56.2975,47.7286 56.2975,45.1936 " />
    <path
      id="path232"
      style="stroke:none;fill-rule:evenodd;fill:#7e7e7e;"
      d="M 56.2975,98.7638 C 56.2975,96.2286 54.2428,94.1739 51.7077,94.1739 C 49.1725,94.1739 47.1178,96.2286 47.1178,98.7638 C 47.1178,101.299 49.1725,103.354 51.7077,103.354 C 54.2428,103.354 56.2975,101.299 56.2975,98.7638 " />
    <path
      id="path234"
      style="stroke:#000000;stroke-width:0.95664899999999997;fill:none;"
      d="M 56.2975,98.7638 C 56.2975,96.2286 54.2428,94.1739 51.7077,94.1739 C 49.1725,94.1739 47.1178,96.2286 47.1178,98.7638 C 47.1178,101.299 49.1725,103.354 51.7077,103.354 C 54.2428,103.354 56.2975,101.299 56.2975,98.7638 " />
    <path
      id="path236"
      style="fill:#7e7e7e;stroke:none;fill-rule:evenodd;"
      d="M 56.2975,112.158 C 56.2975,109.623 54.2428,107.568 51.7077,107.568 C 49.1725,107.568 47.1178,109.623 47.1178,112.158 C 47.1178,114.693 49.1725,116.748 51.7077,116.748 C 54.2428,116.748 56.2975,114.693 56.2975,112.158 " />
    <path
      id="path238"
      style="stroke-width:0.95664899999999997;fill:none;stroke:#000000;"
      d="M 56.2975,112.158 C 56.2975,109.623 54.2428,107.568 51.7077,107.568 C 49.1725,107.568 47.1178,109.623 47.1178,112.158 C 47.1178,114.693 49.1725,116.748 51.7077,116.748 C 54.2428,116.748 56.2975,114.693 56.2975,112.158 " />
    <path
      id="path240"
      style="stroke:none;fill-rule:evenodd;fill:#7e7e7e;"
      d="M 56.2975,31.7986 C 56.2975,29.2636 54.2428,27.2086 51.7077,27.2086 C 49.1725,27.2086 47.1178,29.2636 47.1178,31.7986 C 47.1178,34.3336 49.1725,36.3886 51.7077,36.3886 C 54.2428,36.3886 56.2975,34.3336 56.2975,31.7986 " />
    <path
      id="path242"
      style="stroke:#000000;stroke-width:0.95664899999999997;fill:none;"
      d="M 56.2975,31.7986 C 56.2975,29.2636 54.2428,27.2086 51.7077,27.2086 C 49.1725,27.2086 47.1178,29.2636 47.1178,31.7986 C 47.1178,34.3336 49.1725,36.3886 51.7077,36.3886 C 54.2428,36.3886 56.2975,34.3336 56.2975,31.7986 " />
    <path
      id="path244"
      style="stroke:#000000;stroke-width:0.95664899999999997;fill:none;"
      d="M 28.7467,98.7638 C 28.7467,98.7638 28.7467,98.7638 26.1959,98.7638 C 23.6452,98.7638 18.5436,98.7638 14.0788,93.9825 C 9.61778,89.2013 5.78968,79.6348 5.15298,70.3888 C 4.51628,61.1426 7.06308,52.2126 10.5709,46.1546 C 14.0788,40.0956 18.5397,36.9086 22.6881,35.6346 C 26.8327,34.3616 30.6569,34.9986 32.5709,35.3186 C 34.4811,35.6346 34.4811,35.6346 34.4811,35.6346 " />
    <path
      id="path246"
      style="stroke:#000000;stroke-width:0.95664899999999997;fill:none;"
      d="M 27.2506,32.4826 L 34.4811,35.6266 L 26.6217,36.2556 " />
    <path
      id="path248"
      style="stroke-width:0.95664899999999997;fill:none;stroke:#000000;"
      d="M 332.958,71.9786 C 332.958,34.9986 302.122,5.01364 264.079,5.01364 C 226.04,5.01364 195.2,34.9946 195.2,71.9786 C 195.2,108.959 226.036,138.943 264.079,138.943 C 302.118,138.943 332.958,108.963 332.958,71.9786 " />
    <path
      id="path250"
      style="stroke:none;fill-rule:evenodd;fill:#ffff00;"
      d="M 239.973,45.1936 C 239.973,42.6586 237.919,40.6036 235.383,40.6036 C 232.848,40.6036 230.793,42.6586 230.793,45.1936 C 230.793,47.7286 232.848,49.7836 235.383,49.7836 C 237.919,49.7836 239.973,47.7286 239.973,45.1936 " />
    <path
      id="path252"
      style="stroke-width:0.95664899999999997;fill:none;stroke:#000000;"
      d="M 239.973,45.1936 C 239.973,42.6586 237.919,40.6036 235.383,40.6036 C 232.848,40.6036 230.793,42.6586 230.793,45.1936 C 230.793,47.7286 232.848,49.7836 235.383,49.7836 C 237.919,49.7836 239.973,47.7286 239.973,45.1936 " />
    <path
      id="path254"
      style="stroke:none;fill-rule:evenodd;fill:#ffff00;"
      d="M 239.973,98.7638 C 239.973,96.2286 237.919,94.1739 235.383,94.1739 C 232.848,94.1739 230.793,96.2286 230.793,98.7638 C 230.793,101.299 232.848,103.354 235.383,103.354 C 237.919,103.354 239.973,101.299 239.973,98.7638 " />
    <path
      id="path256"
      style="stroke:#000000;stroke-width:0.95664899999999997;fill:none;"
      d="M 239.973,98.7638 C 239.973,96.2286 237.919,94.1739 235.383,94.1739 C 232.848,94.1739 230.793,96.2286 230.793,98.7638 C 230.793,101.299 232.848,103.354 235.383,103.354 C 237.919,103.354 239.973,101.299 239.973,98.7638 " />
    <path
      id="path258"
      style="stroke:none;fill-rule:evenodd;fill:#ffa400;"
      d="M 251.454,58.5836 C 251.454,56.0486 249.399,53.9946 246.864,53.9946 C 244.329,53.9946 242.274,56.0486 242.274,58.5836 C 242.274,61.1196 244.329,63.1736 246.864,63.1736 C 249.399,63.1736 251.454,61.1196 251.454,58.5836 " />
    <path
      id="path260"
      style="stroke:#000000;stroke-width:0.95664899999999997;fill:none;"
      d="M 251.454,58.5836 C 251.454,56.0486 249.399,53.9946 246.864,53.9946 C 244.329,53.9946 242.274,56.0486 242.274,58.5836 C 242.274,61.1196 244.329,63.1736 246.864,63.1736 C 249.399,63.1736 251.454,61.1196 251.454,58.5836 " />
    <path
      id="path262"
      style="fill:#ffa400;stroke:none;fill-rule:evenodd;"
      d="M 251.454,85.3731 C 251.454,82.838 249.399,80.7833 246.864,80.7833 C 244.329,80.7833 242.274,82.838 242.274,85.3731 C 242.274,87.9083 244.329,89.963 246.864,89.963 C 249.399,89.963 251.454,87.9083 251.454,85.3731 " />
    <path
      id="path264"
      style="stroke:#000000;stroke-width:0.95664899999999997;fill:none;"
      d="M 251.454,85.3731 C 251.454,82.838 249.399,80.7833 246.864,80.7833 C 244.329,80.7833 242.274,82.838 242.274,85.3731 C 242.274,87.9083 244.329,89.963 246.864,89.963 C 249.399,89.963 251.454,87.9083 251.454,85.3731 " />
    <path
      id="path266"
      style="stroke:none;fill-rule:evenodd;fill:#ffff00;"
      d="M 251.454,112.158 C 251.454,109.623 249.399,107.568 246.864,107.568 C 244.329,107.568 242.274,109.623 242.274,112.158 C 242.274,114.693 244.329,116.748 246.864,116.748 C 249.399,116.748 251.454,114.693 251.454,112.158 " />
    <path
      id="path268"
      style="stroke:#000000;stroke-width:0.95664899999999997;fill:none;"
      d="M 251.454,112.158 C 251.454,109.623 249.399,107.568 246.864,107.568 C 244.329,107.568 242.274,109.623 242.274,112.158 C 242.274,114.693 244.329,116.748 246.864,116.748 C 249.399,116.748 251.454,114.693 251.454,112.158 " />
    <path
      id="path270"
      style="stroke:none;fill-rule:evenodd;fill:#ffff00;"
      d="M 251.454,31.7986 C 251.454,29.2636 249.399,27.2086 246.864,27.2086 C 244.329,27.2086 242.274,29.2636 242.274,31.7986 C 242.274,34.3336 244.329,36.3886 246.864,36.3886 C 249.399,36.3886 251.454,34.3336 251.454,31.7986 " />
    <path
      id="path272"
      style="stroke-width:0.95664899999999997;fill:none;stroke:#000000;"
      d="M 251.454,31.7986 C 251.454,29.2636 249.399,27.2086 246.864,27.2086 C 244.329,27.2086 242.274,29.2636 242.274,31.7986 C 242.274,34.3336 244.329,36.3886 246.864,36.3886 C 249.399,36.3886 251.454,34.3336 251.454,31.7986 " />
    <path
      id="path274"
      style="stroke:none;fill-rule:evenodd;fill:#ffa400;"
      d="M 262.934,98.7638 C 262.934,96.2286 260.879,94.1739 258.344,94.1739 C 255.809,94.1739 253.754,96.2286 253.754,98.7638 C 253.754,101.299 255.809,103.354 258.344,103.354 C 260.879,103.354 262.934,101.299 262.934,98.7638 " />
    <path
      id="path276"
      style="stroke:#000000;stroke-width:0.95664899999999997;fill:none;"
      d="M 262.934,98.7638 C 262.934,96.2286 260.879,94.1739 258.344,94.1739 C 255.809,94.1739 253.754,96.2286 253.754,98.7638 C 253.754,101.299 255.809,103.354 258.344,103.354 C 260.879,103.354 262.934,101.299 262.934,98.7638 " />
    <path
      id="path278"
      style="stroke:none;fill-rule:evenodd;fill:#ffff00;"
      d="M 262.934,112.158 C 262.934,109.623 260.879,107.568 258.344,107.568 C 255.809,107.568 253.754,109.623 253.754,112.158 C 253.754,114.693 255.809,116.748 258.344,116.748 C 260.879,116.748 262.934,114.693 262.934,112.158 " />
    <path
      id="path280"
      style="stroke:#000000;stroke-width:0.95664899999999997;fill:none;"
      d="M 262.934,112.158 C 262.934,109.623 260.879,107.568 258.344,107.568 C 255.809,107.568 253.754,109.623 253.754,112.158 C 253.754,114.693 255.809,116.748 258.344,116.748 C 260.879,116.748 262.934,114.693 262.934,112.158 " />
    <path
      id="path282"
      style="fill-rule:evenodd;fill:#ffff00;stroke:none;"
      d="M 262.934,31.7986 C 262.934,29.2636 260.879,27.2086 258.344,27.2086 C 255.809,27.2086 253.754,29.2636 253.754,31.7986 C 253.754,34.3336 255.809,36.3886 258.344,36.3886 C 260.879,36.3886 262.934,34.3336 262.934,31.7986 " />
    <path
      id="path284"
      style="stroke:#000000;stroke-width:0.95664899999999997;fill:none;"
      d="M 262.934,31.7986 C 262.934,29.2636 260.879,27.2086 258.344,27.2086 C 255.809,27.2086 253.754,29.2636 253.754,31.7986 C 253.754,34.3336 255.809,36.3886 258.344,36.3886 C 260.879,36.3886 262.934,34.3336 262.934,31.7986 " />
    <path
      id="path286"
      style="stroke:none;fill-rule:evenodd;fill:#FF8C00;fill-opacity:1;"
      d="M 274.411,98.7638 C 274.411,96.2286 272.356,94.1739 269.821,94.1739 C 267.286,94.1739 265.231,96.2286 265.231,98.7638 C 265.231,101.299 267.286,103.354 269.821,103.354 C 272.356,103.354 274.411,101.299 274.411,98.7638 " />
    <path
      id="path288"
      style="stroke:#000000;stroke-width:0.95664899999999997;fill:none;"
      d="M 274.411,98.7638 C 274.411,96.2286 272.356,94.1739 269.821,94.1739 C 267.286,94.1739 265.231,96.2286 265.231,98.7638 C 265.231,101.299 267.286,103.354 269.821,103.354 C 272.356,103.354 274.411,101.299 274.411,98.7638 " />
    <path
      id="path290"
      style="stroke:none;fill-rule:evenodd;fill:#FFD700;fill-opacity:1;"
      d="M 274.411,112.158 C 274.411,109.623 272.356,107.568 269.821,107.568 C 267.286,107.568 265.231,109.623 265.231,112.158 C 265.231,114.693 267.286,116.748 269.821,116.748 C 272.356,116.748 274.411,114.693 274.411,112.158 " />
    <path
      id="path292"
      style="stroke:#000000;stroke-width:0.95664899999999997;fill:none;"
      d="M 274.411,112.158 C 274.411,109.623 272.356,107.568 269.821,107.568 C 267.286,107.568 265.231,109.623 265.231,112.158 C 265.231,114.693 267.286,116.748 269.821,116.748 C 272.356,116.748 274.411,114.693 274.411,112.158 " />
    <path
      id="path294"
      style="stroke:none;fill-rule:evenodd;fill:#FFD700;fill-opacity:1;"
      d="M 274.411,31.7986 C 274.411,29.2636 272.356,27.2086 269.821,27.2086 C 267.286,27.2086 265.231,29.2636 265.231,31.7986 C 265.231,34.3336 267.286,36.3886 269.821,36.3886 C 272.356,36.3886 274.411,34.3336 274.411,31.7986 " />
    <path
      id="path296"
      style="stroke:#000000;stroke-width:0.95664899999999997;fill:none;"
      d="M 274.411,31.7986 C 274.411,29.2636 272.356,27.2086 269.821,27.2086 C 267.286,27.2086 265.231,29.2636 265.231,31.7986 C 265.231,34.3336 267.286,36.3886 269.821,36.3886 C 272.356,36.3886 274.411,34.3336 274.411,31.7986 " />
    <path
      id="path298"
      style="stroke:none;fill-rule:evenodd;fill:#FF8C00;fill-opacity:1;"
      d="M 285.891,58.5836 C 285.891,56.0486 283.836,53.9946 281.301,53.9946 C 278.766,53.9946 276.711,56.0486 276.711,58.5836 C 276.711,61.1196 278.766,63.1736 281.301,63.1736 C 283.836,63.1736 285.891,61.1196 285.891,58.5836 " />
    <path
      id="path300"
      style="stroke:#000000;stroke-width:0.95664899999999997;fill:none;"
      d="M 285.891,58.5836 C 285.891,56.0486 283.836,53.9946 281.301,53.9946 C 278.766,53.9946 276.711,56.0486 276.711,58.5836 C 276.711,61.1196 278.766,63.1736 281.301,63.1736 C 283.836,63.1736 285.891,61.1196 285.891,58.5836 " />
    <path
      id="path302"
      style="stroke:none;fill-rule:evenodd;fill:#FF8C00;fill-opacity:1;"
      d="M 285.891,85.3731 C 285.891,82.838 283.836,80.7833 281.301,80.7833 C 278.766,80.7833 276.711,82.838 276.711,85.3731 C 276.711,87.9083 278.766,89.963 281.301,89.963 C 283.836,89.963 285.891,87.9083 285.891,85.3731 " />
    <path
      id="path304"
      style="stroke:#000000;stroke-width:0.95664899999999997;fill:none;"
      d="M 285.891,85.3731 C 285.891,82.838 283.836,80.7833 281.301,80.7833 C 278.766,80.7833 276.711,82.838 276.711,85.3731 C 276.711,87.9083 278.766,89.963 281.301,89.963 C 283.836,89.963 285.891,87.9083 285.891,85.3731 " />
    <path
      id="path306"
      style="stroke:none;fill-rule:evenodd;fill:#FFD700;fill-opacity:1;"
      d="M 285.891,112.158 C 285.891,109.623 283.836,107.568 281.301,107.568 C 278.766,107.568 276.711,109.623 276.711,112.158 C 276.711,114.693 278.766,116.748 281.301,116.748 C 283.836,116.748 285.891,114.693 285.891,112.158 " />
    <path
      id="path308"
      style="stroke:#000000;stroke-width:0.95664899999999997;fill:none;"
      d="M 285.891,112.158 C 285.891,109.623 283.836,107.568 281.301,107.568 C 278.766,107.568 276.711,109.623 276.711,112.158 C 276.711,114.693 278.766,116.748 281.301,116.748 C 283.836,116.748 285.891,114.693 285.891,112.158 " />
    <path
      id="path310"
      style="stroke:none;fill-rule:evenodd;fill:#FFD700;fill-opacity:1;"
      d="M 285.891,31.7986 C 285.891,29.2636 283.836,27.2086 281.301,27.2086 C 278.766,27.2086 276.711,29.2636 276.711,31.7986 C 276.711,34.3336 278.766,36.3886 281.301,36.3886 C 283.836,36.3886 285.891,34.3336 285.891,31.7986 " />
    <path
      id="path312"
      style="fill:none;stroke:#000000;stroke-width:0.95664899999999997;"
      d="M 285.891,31.7986 C 285.891,29.2636 283.836,27.2086 281.301,27.2086 C 278.766,27.2086 276.711,29.2636 276.711,31.7986 C 276.711,34.3336 278.766,36.3886 281.301,36.3886 C 283.836,36.3886 285.891,34.3336 285.891,31.7986 " />
    <path
      id="path314"
      style="fill:#FFD700;fill-opacity:1;stroke:none;fill-rule:evenodd;"
      d="M 297.372,45.1936 C 297.372,42.6586 295.317,40.6036 292.782,40.6036 C 290.247,40.6036 288.192,42.6586 288.192,45.1936 C 288.192,47.7286 290.247,49.7836 292.782,49.7836 C 295.317,49.7836 297.372,47.7286 297.372,45.1936 " />
    <path
      id="path316"
      style="stroke-width:0.95664899999999997;fill:none;stroke:#000000;"
      d="M 297.372,45.1936 C 297.372,42.6586 295.317,40.6036 292.782,40.6036 C 290.247,40.6036 288.192,42.6586 288.192,45.1936 C 288.192,47.7286 290.247,49.7836 292.782,49.7836 C 295.317,49.7836 297.372,47.7286 297.372,45.1936 " />
    <path
      id="path318"
      style="stroke:none;fill-rule:evenodd;fill:#FFD700;fill-opacity:1;"
      d="M 297.372,98.7638 C 297.372,96.2286 295.317,94.1739 292.782,94.1739 C 290.247,94.1739 288.192,96.2286 288.192,98.7638 C 288.192,101.299 290.247,103.354 292.782,103.354 C 295.317,103.354 297.372,101.299 297.372,98.7638 " />
    <path
      id="path320"
      style="stroke:#000000;stroke-width:0.95664899999999997;fill:none;"
      d="M 297.372,98.7638 C 297.372,96.2286 295.317,94.1739 292.782,94.1739 C 290.247,94.1739 288.192,96.2286 288.192,98.7638 C 288.192,101.299 290.247,103.354 292.782,103.354 C 295.317,103.354 297.372,101.299 297.372,98.7638 " />
    <path
      id="path322"
      style="fill-opacity:1;stroke:none;fill-rule:evenodd;fill:#FFD700;"
      d="M 308.852,58.5836 C 308.852,56.0486 306.797,53.9946 304.262,53.9946 C 301.727,53.9946 299.672,56.0486 299.672,58.5836 C 299.672,61.1196 301.727,63.1736 304.262,63.1736 C 306.797,63.1736 308.852,61.1196 308.852,58.5836 " />
    <path
      id="path324"
      style="stroke:#000000;stroke-width:0.95664899999999997;fill:none;"
      d="M 308.852,58.5836 C 308.852,56.0486 306.797,53.9946 304.262,53.9946 C 301.727,53.9946 299.672,56.0486 299.672,58.5836 C 299.672,61.1196 301.727,63.1736 304.262,63.1736 C 306.797,63.1736 308.852,61.1196 308.852,58.5836 " />
    <path
      id="path326"
      style="stroke:none;fill-rule:evenodd;fill:#FFD700;fill-opacity:1;"
      d="M 308.852,71.9786 C 308.852,69.4434 306.797,67.3888 304.262,67.3888 C 301.727,67.3888 299.672,69.4434 299.672,71.9786 C 299.672,74.5138 301.727,76.5684 304.262,76.5684 C 306.797,76.5684 308.852,74.5138 308.852,71.9786 " />
    <path
      id="path328"
      style="stroke:#000000;stroke-width:0.95664899999999997;fill:none;"
      d="M 308.852,71.9786 C 308.852,69.4434 306.797,67.3888 304.262,67.3888 C 301.727,67.3888 299.672,69.4434 299.672,71.9786 C 299.672,74.5138 301.727,76.5684 304.262,76.5684 C 306.797,76.5684 308.852,74.5138 308.852,71.9786 " />
    <path
      id="path330"
      style="fill-opacity:1;stroke:none;fill-rule:evenodd;fill:#FFD700;"
      d="M 308.852,85.3731 C 308.852,82.838 306.797,80.7833 304.262,80.7833 C 301.727,80.7833 299.672,82.838 299.672,85.3731 C 299.672,87.9083 301.727,89.963 304.262,89.963 C 306.797,89.963 308.852,87.9083 308.852,85.3731 " />
    <path
      id="path332"
      style="fill:none;stroke:#000000;stroke-width:0.95664899999999997;"
      d="M 308.852,85.3731 C 308.852,82.838 306.797,80.7833 304.262,80.7833 C 301.727,80.7833 299.672,82.838 299.672,85.3731 C 299.672,87.9083 301.727,89.963 304.262,89.963 C 306.797,89.963 308.852,87.9083 308.852,85.3731 " />
    <path
      id="path334"
      style="stroke:none;fill-rule:evenodd;fill:#ffff00;"
      d="M 228.493,58.5836 C 228.493,56.0486 226.438,53.9946 223.903,53.9946 C 221.368,53.9946 219.313,56.0486 219.313,58.5836 C 219.313,61.1196 221.368,63.1736 223.903,63.1736 C 226.438,63.1736 228.493,61.1196 228.493,58.5836 " />
    <path
      id="path336"
      style="stroke:#000000;stroke-width:0.95664899999999997;fill:none;"
      d="M 228.493,58.5836 C 228.493,56.0486 226.438,53.9946 223.903,53.9946 C 221.368,53.9946 219.313,56.0486 219.313,58.5836 C 219.313,61.1196 221.368,63.1736 223.903,63.1736 C 226.438,63.1736 228.493,61.1196 228.493,58.5836 " />
    <path
      id="path338"
      style="stroke:none;fill-rule:evenodd;fill:#ffff00;"
      d="M 228.493,71.9786 C 228.493,69.4434 226.438,67.3888 223.903,67.3888 C 221.368,67.3888 219.313,69.4434 219.313,71.9786 C 219.313,74.5138 221.368,76.5684 223.903,76.5684 C 226.438,76.5684 228.493,74.5138 228.493,71.9786 " />
    <path
      id="path340"
      style="fill:none;stroke:#000000;stroke-width:0.95664899999999997;"
      d="M 228.493,71.9786 C 228.493,69.4434 226.438,67.3888 223.903,67.3888 C 221.368,67.3888 219.313,69.4434 219.313,71.9786 C 219.313,74.5138 221.368,76.5684 223.903,76.5684 C 226.438,76.5684 228.493,74.5138 228.493,71.9786 " />
    <path
      id="path342"
      style="stroke:none;fill-rule:evenodd;fill:#ffff00;"
      d="M 228.493,85.3731 C 228.493,82.838 226.438,80.7833 223.903,80.7833 C 221.368,80.7833 219.313,82.838 219.313,85.3731 C 219.313,87.9083 221.368,89.963 223.903,89.963 C 226.438,89.963 228.493,87.9083 228.493,85.3731 " />
    <path
      id="path344"
      style="stroke-width:0.95664899999999997;fill:none;stroke:#000000;"
      d="M 228.493,85.3731 C 228.493,82.838 226.438,80.7833 223.903,80.7833 C 221.368,80.7833 219.313,82.838 219.313,85.3731 C 219.313,87.9083 221.368,89.963 223.903,89.963 C 226.438,89.963 228.493,87.9083 228.493,85.3731 " />
    <path
      id="path346"
      style="fill-rule:evenodd;fill:#7e7e7e;stroke:none;"
      d="M 239.973,58.5836 C 239.973,56.0486 237.919,53.9946 235.383,53.9946 C 232.848,53.9946 230.793,56.0486 230.793,58.5836 C 230.793,61.1196 232.848,63.1736 235.383,63.1736 C 237.919,63.1736 239.973,61.1196 239.973,58.5836 " />
    <path
      id="path348"
      style="stroke:#000000;stroke-width:0.95664899999999997;fill:none;"
      d="M 239.973,58.5836 C 239.973,56.0486 237.919,53.9946 235.383,53.9946 C 232.848,53.9946 230.793,56.0486 230.793,58.5836 C 230.793,61.1196 232.848,63.1736 235.383,63.1736 C 237.919,63.1736 239.973,61.1196 239.973,58.5836 " />
    <path
      id="path350"
      style="stroke:none;fill-rule:evenodd;fill:#7e7e7e;"
      d="M 239.973,71.9786 C 239.973,69.4434 237.919,67.3888 235.383,67.3888 C 232.848,67.3888 230.793,69.4434 230.793,71.9786 C 230.793,74.5138 232.848,76.5684 235.383,76.5684 C 237.919,76.5684 239.973,74.5138 239.973,71.9786 " />
    <path
      id="path352"
      style="stroke:#000000;stroke-width:0.95664899999999997;fill:none;"
      d="M 239.973,71.9786 C 239.973,69.4434 237.919,67.3888 235.383,67.3888 C 232.848,67.3888 230.793,69.4434 230.793,71.9786 C 230.793,74.5138 232.848,76.5684 235.383,76.5684 C 237.919,76.5684 239.973,74.5138 239.973,71.9786 " />
    <path
      id="path354"
      style="stroke:none;fill-rule:evenodd;fill:#7e7e7e;"
      d="M 239.973,85.3731 C 239.973,82.838 237.919,80.7833 235.383,80.7833 C 232.848,80.7833 230.793,82.838 230.793,85.3731 C 230.793,87.9083 232.848,89.963 235.383,89.963 C 237.919,89.963 239.973,87.9083 239.973,85.3731 " />
    <path
      id="path356"
      style="fill:none;stroke:#000000;stroke-width:0.95664899999999997;"
      d="M 239.973,85.3731 C 239.973,82.838 237.919,80.7833 235.383,80.7833 C 232.848,80.7833 230.793,82.838 230.793,85.3731 C 230.793,87.9083 232.848,89.963 235.383,89.963 C 237.919,89.963 239.973,87.9083 239.973,85.3731 " />
    <path
      id="path358"
      style="stroke:none;fill-rule:evenodd;fill:#7e7e7e;"
      d="M 239.973,112.158 C 239.973,109.623 237.919,107.568 235.383,107.568 C 232.848,107.568 230.793,109.623 230.793,112.158 C 230.793,114.693 232.848,116.748 235.383,116.748 C 237.919,116.748 239.973,114.693 239.973,112.158 " />
    <path
      id="path360"
      style="stroke:#000000;stroke-width:0.95664899999999997;fill:none;"
      d="M 239.973,112.158 C 239.973,109.623 237.919,107.568 235.383,107.568 C 232.848,107.568 230.793,109.623 230.793,112.158 C 230.793,114.693 232.848,116.748 235.383,116.748 C 237.919,116.748 239.973,114.693 239.973,112.158 " />
    <path
      id="path362"
      style="stroke:none;fill-rule:evenodd;fill:#7e7e7e;"
      d="M 239.973,31.7986 C 239.973,29.2636 237.919,27.2086 235.383,27.2086 C 232.848,27.2086 230.793,29.2636 230.793,31.7986 C 230.793,34.3336 232.848,36.3886 235.383,36.3886 C 237.919,36.3886 239.973,34.3336 239.973,31.7986 " />
    <path
      id="path364"
      style="stroke:#000000;stroke-width:0.95664899999999997;fill:none;"
      d="M 239.973,31.7986 C 239.973,29.2636 237.919,27.2086 235.383,27.2086 C 232.848,27.2086 230.793,29.2636 230.793,31.7986 C 230.793,34.3336 232.848,36.3886 235.383,36.3886 C 237.919,36.3886 239.973,34.3336 239.973,31.7986 " />
    <path
      id="path366"
      style="stroke:none;fill-rule:evenodd;fill:#7e7e7e;"
      d="M 251.454,45.1936 C 251.454,42.6586 249.399,40.6036 246.864,40.6036 C 244.329,40.6036 242.274,42.6586 242.274,45.1936 C 242.274,47.7286 244.329,49.7836 246.864,49.7836 C 249.399,49.7836 251.454,47.7286 251.454,45.1936 " />
    <path
      id="path368"
      style="stroke:#000000;stroke-width:0.95664899999999997;fill:none;"
      d="M 251.454,45.1936 C 251.454,42.6586 249.399,40.6036 246.864,40.6036 C 244.329,40.6036 242.274,42.6586 242.274,45.1936 C 242.274,47.7286 244.329,49.7836 246.864,49.7836 C 249.399,49.7836 251.454,47.7286 251.454,45.1936 " />
    <path
      id="path370"
      style="fill:#7e7e7e;stroke:none;fill-rule:evenodd;"
      d="M 251.454,71.9786 C 251.454,69.4434 249.399,67.3888 246.864,67.3888 C 244.329,67.3888 242.274,69.4434 242.274,71.9786 C 242.274,74.5138 244.329,76.5684 246.864,76.5684 C 249.399,76.5684 251.454,74.5138 251.454,71.9786 " />
    <path
      id="path372"
      style="stroke:#000000;stroke-width:0.95664899999999997;fill:none;"
      d="M 251.454,71.9786 C 251.454,69.4434 249.399,67.3888 246.864,67.3888 C 244.329,67.3888 242.274,69.4434 242.274,71.9786 C 242.274,74.5138 244.329,76.5684 246.864,76.5684 C 249.399,76.5684 251.454,74.5138 251.454,71.9786 " />
    <path
      id="path374"
      style="stroke:none;fill-rule:evenodd;fill:#7e7e7e;"
      d="M 251.454,98.7638 C 251.454,96.2286 249.399,94.1739 246.864,94.1739 C 244.329,94.1739 242.274,96.2286 242.274,98.7638 C 242.274,101.299 244.329,103.354 246.864,103.354 C 249.399,103.354 251.454,101.299 251.454,98.7638 " />
    <path
      id="path376"
      style="stroke:#000000;stroke-width:0.95664899999999997;fill:none;"
      d="M 251.454,98.7638 C 251.454,96.2286 249.399,94.1739 246.864,94.1739 C 244.329,94.1739 242.274,96.2286 242.274,98.7638 C 242.274,101.299 244.329,103.354 246.864,103.354 C 249.399,103.354 251.454,101.299 251.454,98.7638 " />
    <path
      id="path378"
      style="fill-rule:evenodd;fill:#7e7e7e;stroke:none;"
      d="M 262.934,45.1936 C 262.934,42.6586 260.879,40.6036 258.344,40.6036 C 255.809,40.6036 253.754,42.6586 253.754,45.1936 C 253.754,47.7286 255.809,49.7836 258.344,49.7836 C 260.879,49.7836 262.934,47.7286 262.934,45.1936 " />
    <path
      id="path380"
      style="stroke:#000000;stroke-width:0.95664899999999997;fill:none;"
      d="M 262.934,45.1936 C 262.934,42.6586 260.879,40.6036 258.344,40.6036 C 255.809,40.6036 253.754,42.6586 253.754,45.1936 C 253.754,47.7286 255.809,49.7836 258.344,49.7836 C 260.879,49.7836 262.934,47.7286 262.934,45.1936 " />
    <path
      id="path382"
      style="stroke:none;fill-rule:evenodd;fill:#7e7e7e;"
      d="M 262.934,58.5836 C 262.934,56.0486 260.879,53.9946 258.344,53.9946 C 255.809,53.9946 253.754,56.0486 253.754,58.5836 C 253.754,61.1196 255.809,63.1736 258.344,63.1736 C 260.879,63.1736 262.934,61.1196 262.934,58.5836 " />
    <path
      id="path384"
      style="stroke:#000000;stroke-width:0.95664899999999997;fill:none;"
      d="M 262.934,58.5836 C 262.934,56.0486 260.879,53.9946 258.344,53.9946 C 255.809,53.9946 253.754,56.0486 253.754,58.5836 C 253.754,61.1196 255.809,63.1736 258.344,63.1736 C 260.879,63.1736 262.934,61.1196 262.934,58.5836 " />
    <path
      id="path386"
      style="stroke:none;fill-rule:evenodd;fill:#7e7e7e;"
      d="M 262.934,71.9786 C 262.934,69.4434 260.879,67.3888 258.344,67.3888 C 255.809,67.3888 253.754,69.4434 253.754,71.9786 C 253.754,74.5138 255.809,76.5684 258.344,76.5684 C 260.879,76.5684 262.934,74.5138 262.934,71.9786 " />
    <path
      id="path388"
      style="stroke:#000000;stroke-width:0.95664899999999997;fill:none;"
      d="M 262.934,71.9786 C 262.934,69.4434 260.879,67.3888 258.344,67.3888 C 255.809,67.3888 253.754,69.4434 253.754,71.9786 C 253.754,74.5138 255.809,76.5684 258.344,76.5684 C 260.879,76.5684 262.934,74.5138 262.934,71.9786 " />
    <path
      id="path390"
      style="stroke:none;fill-rule:evenodd;fill:#7e7e7e;"
      d="M 262.934,85.3731 C 262.934,82.838 260.879,80.7833 258.344,80.7833 C 255.809,80.7833 253.754,82.838 253.754,85.3731 C 253.754,87.9083 255.809,89.963 258.344,89.963 C 260.879,89.963 262.934,87.9083 262.934,85.3731 " />
    <path
      id="path392"
      style="stroke:#000000;stroke-width:0.95664899999999997;fill:none;"
      d="M 262.934,85.3731 C 262.934,82.838 260.879,80.7833 258.344,80.7833 C 255.809,80.7833 253.754,82.838 253.754,85.3731 C 253.754,87.9083 255.809,89.963 258.344,89.963 C 260.879,89.963 262.934,87.9083 262.934,85.3731 " />
    <path
      id="path394"
      style="stroke:none;fill-rule:evenodd;fill:#7e7e7e;"
      d="M 274.411,45.1936 C 274.411,42.6586 272.356,40.6036 269.821,40.6036 C 267.286,40.6036 265.231,42.6586 265.231,45.1936 C 265.231,47.7286 267.286,49.7836 269.821,49.7836 C 272.356,49.7836 274.411,47.7286 274.411,45.1936 " />
    <path
      id="path396"
      style="stroke:#000000;stroke-width:0.95664899999999997;fill:none;"
      d="M 274.411,45.1936 C 274.411,42.6586 272.356,40.6036 269.821,40.6036 C 267.286,40.6036 265.231,42.6586 265.231,45.1936 C 265.231,47.7286 267.286,49.7836 269.821,49.7836 C 272.356,49.7836 274.411,47.7286 274.411,45.1936 " />
    <path
      id="path398"
      style="stroke:none;fill-rule:evenodd;fill:#7e7e7e;"
      d="M 274.411,58.5836 C 274.411,56.0486 272.356,53.9946 269.821,53.9946 C 267.286,53.9946 265.231,56.0486 265.231,58.5836 C 265.231,61.1196 267.286,63.1736 269.821,63.1736 C 272.356,63.1736 274.411,61.1196 274.411,58.5836 " />
    <path
      id="path400"
      style="stroke:#000000;stroke-width:0.95664899999999997;fill:none;"
      d="M 274.411,58.5836 C 274.411,56.0486 272.356,53.9946 269.821,53.9946 C 267.286,53.9946 265.231,56.0486 265.231,58.5836 C 265.231,61.1196 267.286,63.1736 269.821,63.1736 C 272.356,63.1736 274.411,61.1196 274.411,58.5836 " />
    <path
      id="path402"
      style="stroke:none;fill-rule:evenodd;fill:#7e7e7e;"
      d="M 274.411,71.9786 C 274.411,69.4434 272.356,67.3888 269.821,67.3888 C 267.286,67.3888 265.231,69.4434 265.231,71.9786 C 265.231,74.5138 267.286,76.5684 269.821,76.5684 C 272.356,76.5684 274.411,74.5138 274.411,71.9786 " />
    <path
      id="path404"
      style="stroke:#000000;stroke-width:0.95664899999999997;fill:none;"
      d="M 274.411,71.9786 C 274.411,69.4434 272.356,67.3888 269.821,67.3888 C 267.286,67.3888 265.231,69.4434 265.231,71.9786 C 265.231,74.5138 267.286,76.5684 269.821,76.5684 C 272.356,76.5684 274.411,74.5138 274.411,71.9786 " />
    <path
      id="path406"
      style="stroke:none;fill-rule:evenodd;fill:#7e7e7e;"
      d="M 274.411,85.3731 C 274.411,82.838 272.356,80.7833 269.821,80.7833 C 267.286,80.7833 265.231,82.838 265.231,85.3731 C 265.231,87.9083 267.286,89.963 269.821,89.963 C 272.356,89.963 274.411,87.9083 274.411,85.3731 " />
    <path
      id="path408"
      style="stroke-width:0.95664899999999997;fill:none;stroke:#000000;"
      d="M 274.411,85.3731 C 274.411,82.838 272.356,80.7833 269.821,80.7833 C 267.286,80.7833 265.231,82.838 265.231,85.3731 C 265.231,87.9083 267.286,89.963 269.821,89.963 C 272.356,89.963 274.411,87.9083 274.411,85.3731 " />
    <path
      id="path410"
      style="stroke:none;fill-rule:evenodd;fill:#7e7e7e;"
      d="M 285.891,45.1936 C 285.891,42.6586 283.836,40.6036 281.301,40.6036 C 278.766,40.6036 276.711,42.6586 276.711,45.1936 C 276.711,47.7286 278.766,49.7836 281.301,49.7836 C 283.836,49.7836 285.891,47.7286 285.891,45.1936 " />
    <path
      id="path412"
      style="fill:none;stroke:#000000;stroke-width:0.95664899999999997;"
      d="M 285.891,45.1936 C 285.891,42.6586 283.836,40.6036 281.301,40.6036 C 278.766,40.6036 276.711,42.6586 276.711,45.1936 C 276.711,47.7286 278.766,49.7836 281.301,49.7836 C 283.836,49.7836 285.891,47.7286 285.891,45.1936 " />
    <path
      id="path414"
      style="stroke:none;fill-rule:evenodd;fill:#7e7e7e;"
      d="M 285.891,71.9786 C 285.891,69.4434 283.836,67.3888 281.301,67.3888 C 278.766,67.3888 276.711,69.4434 276.711,71.9786 C 276.711,74.5138 278.766,76.5684 281.301,76.5684 C 283.836,76.5684 285.891,74.5138 285.891,71.9786 " />
    <path
      id="path416"
      style="stroke:#000000;stroke-width:0.95664899999999997;fill:none;"
      d="M 285.891,71.9786 C 285.891,69.4434 283.836,67.3888 281.301,67.3888 C 278.766,67.3888 276.711,69.4434 276.711,71.9786 C 276.711,74.5138 278.766,76.5684 281.301,76.5684 C 283.836,76.5684 285.891,74.5138 285.891,71.9786 " />
    <path
      id="path418"
      style="stroke:none;fill-rule:evenodd;fill:#7e7e7e;"
      d="M 285.891,98.7638 C 285.891,96.2286 283.836,94.1739 281.301,94.1739 C 278.766,94.1739 276.711,96.2286 276.711,98.7638 C 276.711,101.299 278.766,103.354 281.301,103.354 C 283.836,103.354 285.891,101.299 285.891,98.7638 " />
    <path
      id="path420"
      style="stroke:#000000;stroke-width:0.95664899999999997;fill:none;"
      d="M 285.891,98.7638 C 285.891,96.2286 283.836,94.1739 281.301,94.1739 C 278.766,94.1739 276.711,96.2286 276.711,98.7638 C 276.711,101.299 278.766,103.354 281.301,103.354 C 283.836,103.354 285.891,101.299 285.891,98.7638 " />
    <path
      id="path422"
      style="stroke:none;fill-rule:evenodd;fill:#7e7e7e;"
      d="M 297.372,58.5836 C 297.372,56.0486 295.317,53.9946 292.782,53.9946 C 290.247,53.9946 288.192,56.0486 288.192,58.5836 C 288.192,61.1196 290.247,63.1736 292.782,63.1736 C 295.317,63.1736 297.372,61.1196 297.372,58.5836 " />
    <path
      id="path424"
      style="fill:none;stroke:#000000;stroke-width:0.95664899999999997;"
      d="M 297.372,58.5836 C 297.372,56.0486 295.317,53.9946 292.782,53.9946 C 290.247,53.9946 288.192,56.0486 288.192,58.5836 C 288.192,61.1196 290.247,63.1736 292.782,63.1736 C 295.317,63.1736 297.372,61.1196 297.372,58.5836 " />
    <path
      id="path426"
      style="fill:#7e7e7e;stroke:none;fill-rule:evenodd;"
      d="M 297.372,71.9786 C 297.372,69.4434 295.317,67.3888 292.782,67.3888 C 290.247,67.3888 288.192,69.4434 288.192,71.9786 C 288.192,74.5138 290.247,76.5684 292.782,76.5684 C 295.317,76.5684 297.372,74.5138 297.372,71.9786 " />
    <path
      id="path428"
      style="stroke:#000000;stroke-width:0.95664899999999997;fill:none;"
      d="M 297.372,71.9786 C 297.372,69.4434 295.317,67.3888 292.782,67.3888 C 290.247,67.3888 288.192,69.4434 288.192,71.9786 C 288.192,74.5138 290.247,76.5684 292.782,76.5684 C 295.317,76.5684 297.372,74.5138 297.372,71.9786 " />
    <path
      id="path430"
      style="stroke:none;fill-rule:evenodd;fill:#7e7e7e;"
      d="M 297.372,85.3731 C 297.372,82.838 295.317,80.7833 292.782,80.7833 C 290.247,80.7833 288.192,82.838 288.192,85.3731 C 288.192,87.9083 290.247,89.963 292.782,89.963 C 295.317,89.963 297.372,87.9083 297.372,85.3731 " />
    <path
      id="path432"
      style="stroke:#000000;stroke-width:0.95664899999999997;fill:none;"
      d="M 297.372,85.3731 C 297.372,82.838 295.317,80.7833 292.782,80.7833 C 290.247,80.7833 288.192,82.838 288.192,85.3731 C 288.192,87.9083 290.247,89.963 292.782,89.963 C 295.317,89.963 297.372,87.9083 297.372,85.3731 " />
    <path
      id="path434"
      style="stroke:none;fill-rule:evenodd;fill:#7e7e7e;"
      d="M 297.372,112.158 C 297.372,109.623 295.317,107.568 292.782,107.568 C 290.247,107.568 288.192,109.623 288.192,112.158 C 288.192,114.693 290.247,116.748 292.782,116.748 C 295.317,116.748 297.372,114.693 297.372,112.158 " />
    <path
      id="path436"
      style="stroke:#000000;stroke-width:0.95664899999999997;fill:none;"
      d="M 297.372,112.158 C 297.372,109.623 295.317,107.568 292.782,107.568 C 290.247,107.568 288.192,109.623 288.192,112.158 C 288.192,114.693 290.247,116.748 292.782,116.748 C 295.317,116.748 297.372,114.693 297.372,112.158 " />
    <path
      id="path438"
      style="fill-rule:evenodd;fill:#7e7e7e;stroke:none;"
      d="M 297.372,31.7986 C 297.372,29.2636 295.317,27.2086 292.782,27.2086 C 290.247,27.2086 288.192,29.2636 288.192,31.7986 C 288.192,34.3336 290.247,36.3886 292.782,36.3886 C 295.317,36.3886 297.372,34.3336 297.372,31.7986 " />
    <path
      id="path440"
      style="stroke-width:0.95664899999999997;fill:none;stroke:#000000;"
      d="M 297.372,31.7986 C 297.372,29.2636 295.317,27.2086 292.782,27.2086 C 290.247,27.2086 288.192,29.2636 288.192,31.7986 C 288.192,34.3336 290.247,36.3886 292.782,36.3886 C 295.317,36.3886 297.372,34.3336 297.372,31.7986 " />
    <path
      id="path442"
      style="stroke:none;fill-rule:evenodd;fill:#7e7e7e;"
      d="M 308.852,45.1936 C 308.852,42.6586 306.797,40.6036 304.262,40.6036 C 301.727,40.6036 299.672,42.6586 299.672,45.1936 C 299.672,47.7286 301.727,49.7836 304.262,49.7836 C 306.797,49.7836 308.852,47.7286 308.852,45.1936 " />
    <path
      id="path444"
      style="stroke:#000000;stroke-width:0.95664899999999997;fill:none;"
      d="M 308.852,45.1936 C 308.852,42.6586 306.797,40.6036 304.262,40.6036 C 301.727,40.6036 299.672,42.6586 299.672,45.1936 C 299.672,47.7286 301.727,49.7836 304.262,49.7836 C 306.797,49.7836 308.852,47.7286 308.852,45.1936 " />
    <path
      id="path446"
      style="stroke:none;fill-rule:evenodd;fill:#7e7e7e;"
      d="M 308.852,98.7638 C 308.852,96.2286 306.797,94.1739 304.262,94.1739 C 301.727,94.1739 299.672,96.2286 299.672,98.7638 C 299.672,101.299 301.727,103.354 304.262,103.354 C 306.797,103.354 308.852,101.299 308.852,98.7638 " />
    <path
      id="path448"
      style="stroke:#000000;stroke-width:0.95664899999999997;fill:none;"
      d="M 308.852,98.7638 C 308.852,96.2286 306.797,94.1739 304.262,94.1739 C 301.727,94.1739 299.672,96.2286 299.672,98.7638 C 299.672,101.299 301.727,103.354 304.262,103.354 C 306.797,103.354 308.852,101.299 308.852,98.7638 " />
    <path
      id="path450"
      style="stroke:none;fill-rule:evenodd;fill:#7e7e7e;"
      d="M 308.852,112.158 C 308.852,109.623 306.797,107.568 304.262,107.568 C 301.727,107.568 299.672,109.623 299.672,112.158 C 299.672,114.693 301.727,116.748 304.262,116.748 C 306.797,116.748 308.852,114.693 308.852,112.158 " />
    <path
      id="path452"
      style="fill:none;stroke:#000000;stroke-width:0.95664899999999997;"
      d="M 308.852,112.158 C 308.852,109.623 306.797,107.568 304.262,107.568 C 301.727,107.568 299.672,109.623 299.672,112.158 C 299.672,114.693 301.727,116.748 304.262,116.748 C 306.797,116.748 308.852,114.693 308.852,112.158 " />
    <path
      id="path454"
      style="stroke:none;fill-rule:evenodd;fill:#7e7e7e;"
      d="M 308.852,31.7986 C 308.852,29.2636 306.797,27.2086 304.262,27.2086 C 301.727,27.2086 299.672,29.2636 299.672,31.7986 C 299.672,34.3336 301.727,36.3886 304.262,36.3886 C 306.797,36.3886 308.852,34.3336 308.852,31.7986 " />
    <path
      id="path456"
      style="stroke:#000000;stroke-width:0.95664899999999997;fill:none;"
      d="M 308.852,31.7986 C 308.852,29.2636 306.797,27.2086 304.262,27.2086 C 301.727,27.2086 299.672,29.2636 299.672,31.7986 C 299.672,34.3336 301.727,36.3886 304.262,36.3886 C 306.797,36.3886 308.852,34.3336 308.852,31.7986 " />
    <path
      id="path458"
      style="stroke:none;fill-rule:evenodd;fill:#7e7e7e;"
      d="M 228.493,45.1936 C 228.493,42.6586 226.438,40.6036 223.903,40.6036 C 221.368,40.6036 219.313,42.6586 219.313,45.1936 C 219.313,47.7286 221.368,49.7836 223.903,49.7836 C 226.438,49.7836 228.493,47.7286 228.493,45.1936 " />
    <path
      id="path460"
      style="stroke:#000000;stroke-width:0.95664899999999997;fill:none;"
      d="M 228.493,45.1936 C 228.493,42.6586 226.438,40.6036 223.903,40.6036 C 221.368,40.6036 219.313,42.6586 219.313,45.1936 C 219.313,47.7286 221.368,49.7836 223.903,49.7836 C 226.438,49.7836 228.493,47.7286 228.493,45.1936 " />
    <path
      id="path462"
      style="stroke:none;fill-rule:evenodd;fill:#7e7e7e;"
      d="M 228.493,98.7638 C 228.493,96.2286 226.438,94.1739 223.903,94.1739 C 221.368,94.1739 219.313,96.2286 219.313,98.7638 C 219.313,101.299 221.368,103.354 223.903,103.354 C 226.438,103.354 228.493,101.299 228.493,98.7638 " />
    <path
      id="path464"
      style="fill:none;stroke:#000000;stroke-width:0.95664899999999997;"
      d="M 228.493,98.7638 C 228.493,96.2286 226.438,94.1739 223.903,94.1739 C 221.368,94.1739 219.313,96.2286 219.313,98.7638 C 219.313,101.299 221.368,103.354 223.903,103.354 C 226.438,103.354 228.493,101.299 228.493,98.7638 " />
    <path
      id="path466"
      style="stroke:none;fill-rule:evenodd;fill:#7e7e7e;"
      d="M 228.493,112.158 C 228.493,109.623 226.438,107.568 223.903,107.568 C 221.368,107.568 219.313,109.623 219.313,112.158 C 219.313,114.693 221.368,116.748 223.903,116.748 C 226.438,116.748 228.493,114.693 228.493,112.158 " />
    <path
      id="path468"
      style="stroke:#000000;stroke-width:0.95664899999999997;fill:none;"
      d="M 228.493,112.158 C 228.493,109.623 226.438,107.568 223.903,107.568 C 221.368,107.568 219.313,109.623 219.313,112.158 C 219.313,114.693 221.368,116.748 223.903,116.748 C 226.438,116.748 228.493,114.693 228.493,112.158 " />
    <path
      id="path470"
      style="stroke:none;fill-rule:evenodd;fill:#7e7e7e;"
      d="M 228.493,31.7986 C 228.493,29.2636 226.438,27.2086 223.903,27.2086 C 221.368,27.2086 219.313,29.2636 219.313,31.7986 C 219.313,34.3336 221.368,36.3886 223.903,36.3886 C 226.438,36.3886 228.493,34.3336 228.493,31.7986 " />
    <path
      id="path472"
      style="stroke:#000000;stroke-width:0.95664899999999997;fill:none;"
      d="M 228.493,31.7986 C 228.493,29.2636 226.438,27.2086 223.903,27.2086 C 221.368,27.2086 219.313,29.2636 219.313,31.7986 C 219.313,34.3336 221.368,36.3886 223.903,36.3886 C 226.438,36.3886 228.493,34.3336 228.493,31.7986 " />
    <path
      id="path474"
      style="stroke:#000000;stroke-width:0.95664899999999997;fill:none;"
      d="M 200.942,98.7638 C 200.942,98.7638 200.942,98.7638 198.391,98.7638 C 195.84,98.7638 190.739,98.7638 186.274,93.9825 C 181.813,89.2013 177.985,79.6348 177.348,70.3888 C 176.711,61.1426 179.258,52.2126 182.766,46.1546 C 186.274,40.0956 190.735,36.9086 194.883,35.6346 C 199.028,34.3616 202.852,34.9986 204.766,35.3186 C 206.676,35.6346 206.676,35.6346 206.676,35.6346 " />
    <path
      id="path476"
      style="stroke:#000000;stroke-width:0.95664899999999997;fill:none;"
      d="M 199.446,32.4826 L 206.676,35.6266 L 198.817,36.2556 " />
  </g>
</svg>
