<?xml version="1.0" encoding="UTF-8" standalone="no"?>
<svg
  xmlns="http://www.w3.org/2000/svg" version="1.1"
  width="400px"
  height="400px"
  viewBox="0 0 1000.0 1000.0">
<path stroke="#000000" stroke-width="2" fill="none"
  d="M 264.4,726.1 L 264.4,171.9 L 818.7,171.9 L 818.7,726.1 L 264.4,726.1 "
 />

<g>

<text x="541.6" y="801.0" font-family="Arial" font-size="28.0" fill="#000000" text-anchor="middle">
Degree of Degradation
</text>

<text x="289.6" y="773.3" font-family="Arial" font-size="28.0" fill="#000000" text-anchor="middle">
Maximum
</text>

<text x="793.5" y="773.3" font-family="Arial" font-size="28.0" fill="#000000" text-anchor="middle">
Minimum
</text>
<path stroke="#000000" stroke-width="2" fill="none"
  d="M 264.4,726.1 L 818.7,726.1 M 289.6,740.0 L 289.6,712.3 M 415.6,740.0 L 415.6,712.3 M 541.6,740.0 L 541.6,712.3 M 667.5,740.0 L 667.5,712.3 M 793.5,740.0 L 793.5,712.3 "
 />
<path stroke="#000000" stroke-width="2" fill="none"
  d="M 264.4,171.9 L 818.7,171.9 M 289.6,185.7 L 289.6,158.0 M 415.6,185.7 L 415.6,158.0 M 541.6,185.7 L 541.6,158.0 M 667.5,185.7 L 667.5,158.0 M 793.5,185.7 L 793.5,158.0 "
 />

<text x="245.0" y="737.2" font-family="Arial" font-size="28.0" fill="#000000" text-anchor="end">
10
</text>

<text x="245.0" y="667.9" font-family="Arial" font-size="28.0" fill="#000000" text-anchor="end">
20
</text>

<text x="245.0" y="598.7" font-family="Arial" font-size="28.0" fill="#000000" text-anchor="end">
30
</text>

<text x="245.0" y="529.4" font-family="Arial" font-size="28.0" fill="#000000" text-anchor="end">
40
</text>

<text x="245.0" y="460.1" font-family="Arial" font-size="28.0" fill="#000000" text-anchor="end">
50
</text>

<text x="245.0" y="390.8" font-family="Arial" font-size="28.0" fill="#000000" text-anchor="end">
60
</text>

<text x="245.0" y="321.5" font-family="Arial" font-size="28.0" fill="#000000" text-anchor="end">
70
</text>

<text x="245.0" y="252.2" font-family="Arial" font-size="28.0" fill="#000000" text-anchor="end">
80
</text>

<text x="245.0" y="183.0" font-family="Arial" font-size="28.0" fill="#000000" text-anchor="end">
90
</text>
<path stroke="#000000" stroke-width="2" fill="none"
  d="M 264.4,726.1 L 264.4,171.9 M 250.6,726.1 L 278.3,726.1 M 250.6,656.9 L 278.3,656.9 M 250.6,587.6 L 278.3,587.6 M 250.6,518.3 L 278.3,518.3 M 250.6,449.0 L 278.3,449.0 M 250.6,379.7 L 278.3,379.7 M 250.6,310.4 L 278.3,310.4 M 250.6,241.2 L 278.3,241.2 M 250.6,171.9 L 278.3,171.9 "
 />
<path stroke="#000000" stroke-width="2" fill="none"
  d="M 818.7,726.1 L 818.7,171.9 M 804.8,726.1 L 832.6,726.1 M 804.8,656.9 L 832.6,656.9 M 804.8,587.6 L 832.6,587.6 M 804.8,518.3 L 832.6,518.3 M 804.8,449.0 L 832.6,449.0 M 804.8,379.7 L 832.6,379.7 M 804.8,310.4 L 832.6,310.4 M 804.8,241.2 L 832.6,241.2 M 804.8,171.9 L 832.6,171.9 "
 />

</g>

<g transform="translate(0.0,-616.0)">

<g transform="translate(0.0,-0.0)">
<path stroke="#000000" stroke-width="1" fill="none"
  d="M 264.4,726.1 L 297.7,726.1 "
 />

<text x="303.2" y="737.2" font-family="Arial" font-size="22.4" fill="#000000" text-anchor="start">
deg 5
</text>

</g>

<g transform="translate(100.8,-0.0)">
<path stroke="#ff0000" stroke-width="1" fill="none"
  d="M 264.4,726.1 L 297.7,726.1 "
 />

<text x="303.2" y="737.2" font-family="Arial" font-size="22.4" fill="#ff0000" text-anchor="start">
deg 4
</text>

</g>

<g transform="translate(201.6,-0.0)">
<path stroke="#0000ff" stroke-width="1" fill="none"
  d="M 264.4,726.1 L 297.7,726.1 "
 />

<text x="303.2" y="737.2" font-family="Arial" font-size="22.4" fill="#0000ff" text-anchor="start">
deg 3
</text>

</g>

<g transform="translate(302.4,-0.0)">
<path stroke="#218b21" stroke-width="1" fill="none"
  d="M 264.4,726.1 L 297.7,726.1 "
 />

<text x="303.2" y="737.2" font-family="Arial" font-size="22.4" fill="#218b21" text-anchor="start">
deg 2
</text>

</g>

<g transform="translate(403.2,-0.0)">
<path stroke="#a020f0" stroke-width="1" fill="none"
  d="M 264.4,726.1 L 297.7,726.1 "
 />

<text x="303.2" y="737.2" font-family="Arial" font-size="22.4" fill="#a020f0" text-anchor="start">
deg 1
</text>

</g>

</g>

<g>
<path stroke="#000000" stroke-width="1" fill="none"
  d="M 289.6,613.6 
L 415.6,548.9 L 541.6,460.0 L 667.5,349.7 L 793.5,301.8 "
 />
<path stroke="#000000" stroke-width="1" fill="none"
  d="M 295.2,613.6 L 294.8,611.4 L 293.6,609.6 L 291.8,608.4 L 289.6,608.0 L 287.5,608.4 L 285.7,609.6 L 284.5,611.4 L 284.1,613.6 L 284.5,615.7 L 285.7,617.5 L 287.5,618.7 L 289.6,619.1 L 291.8,618.7 L 293.6,617.5 L 294.8,615.7 L 295.2,613.6 M 421.1,548.9 L 420.7,546.8 L 419.5,545.0 L 417.7,543.8 L 415.6,543.3 L 413.5,543.8 L 411.7,545.0 L 410.5,546.8 L 410.1,548.9 L 410.5,551.0 L 411.7,552.8 L 413.5,554.0 L 415.6,554.4 L 417.7,554.0 L 419.5,552.8 L 420.7,551.0 L 421.1,548.9 M 547.1,460.0 L 546.7,457.9 L 545.5,456.1 L 543.7,454.9 L 541.6,454.4 L 539.4,454.9 L 537.7,456.1 L 536.4,457.9 L 536.0,460.0 L 536.4,462.1 L 537.7,463.9 L 539.4,465.1 L 541.6,465.5 L 543.7,465.1 L 545.5,463.9 L 546.7,462.1 L 547.1,460.0 M 673.1,349.7 L 672.7,347.6 L 671.5,345.8 L 669.7,344.6 L 667.5,344.2 L 665.4,344.6 L 663.6,345.8 L 662.4,347.6 L 662.0,349.7 L 662.4,351.8 L 663.6,353.6 L 665.4,354.8 L 667.5,355.2 L 669.7,354.8 L 671.5,353.6 L 672.7,351.8 L 673.1,349.7 M 799.1,301.8 L 798.6,299.7 L 797.4,297.9 L 795.6,296.7 L 793.5,296.2 L 791.4,296.7 L 789.6,297.9 L 788.4,299.7 L 788.0,301.8 L 788.4,303.9 L 789.6,305.7 L 791.4,306.9 L 793.5,307.3 L 795.6,306.9 L 797.4,305.7 L 798.6,303.9 L 799.1,301.8 "
 />
<path stroke="#ff0000" stroke-width="1" fill="none"
  d="
M 415.6,527.0 L 541.6,495.2 L 667.5,360.7 L 793.5,272.9 "
 />
<path stroke="#ff0000" stroke-width="1" fill="none"
  d="M 410.1,532.5 L 410.1,521.4 L 421.1,521.4 L 421.1,532.5 L 410.1,532.5 M 536.0,500.7 L 536.0,489.7 L 547.1,489.7 L 547.1,500.7 L 536.0,500.7 M 662.0,366.2 L 662.0,355.1 L 673.1,355.1 L 673.1,366.2 L 662.0,366.2 M 788.0,278.5 L 788.0,267.4 L 799.1,267.4 L 799.1,278.5 L 788.0,278.5 "
 />
<path stroke="#0000ff" stroke-width="1" fill="none"
  d="M 541.6,464.0 L 667.5,315.6 L 793.5,281.6 "
 />
<path stroke="#0000ff" stroke-width="1" fill="none"
  d="M 536.0,464.0 L 541.6,458.5 L 547.1,464.0 L 541.6,469.6 L 536.0,464.0 M 662.0,315.6 L 667.5,310.0 L 673.1,315.6 L 667.5,321.1 L 662.0,315.6 M 788.0,281.6 L 793.5,276.0 L 799.1,281.6 L 793.5,287.1 L 788.0,281.6 "
 />
<path stroke="#218b21" stroke-width="1" fill="none"
  d="M 667.5,342.2 L 793.5,251.6 "
 />
<path stroke="#218b21" stroke-width="1" fill="none"
  d="M 662.0,347.7 L 667.5,336.7 L 673.1,347.7 L 662.0,347.7 M 788.0,257.1 L 793.5,246.0 L 799.1,257.1 L 788.0,257.1 "
 />
<path stroke="#a020f0" stroke-width="1" fill="none"
  d="M 793.5,241.3 "
 />
<path stroke="#a020f0" stroke-width="1" fill="none"
  d="M 788.0,235.8 L 793.5,246.9 L 799.1,235.8 L 788.0,235.8 "
 />

</g>
</svg>
