<?xml version="1.0" encoding="ISO-8859-1" standalone="yes"?>
<svg width="459.031" height="214.02">
  <defs> 
    <marker id="ArrowEnd" viewBox="0 0 10 10" refX="0" refY="5" 
     markerUnits="strokeWidth" 
     markerWidth="4" 
     markerHeight="3" 
     orient="auto"> 
        <path d="M 0 0 L 10 5 L 0 10 z" /> 
    </marker>
    <marker id="ArrowStart" viewBox="0 0 10 10" refX="10" refY="5" 
     markerUnits="strokeWidth" 
     markerWidth="4" 
     markerHeight="3" 
     orient="auto"> 
        <path d="M 10 0 L 0 5 L 10 10 z" /> 
    </marker> </defs>
<g>
<path style="stroke:#000000; stroke-width:1.9133; fill:none" d="M 409.066 123.168L 439.676 123.168L 439.676 84.9023L 409.066 84.9023L 409.066 123.168z"/>
<path style="stroke:#000000; stroke-width:1.9133; fill:none" d="M 378.453 123.168L 409.062 123.168L 409.062 84.9023L 378.453 84.9023L 378.453 123.168z"/>
<path style="stroke:#000000; stroke-width:1.9133; fill:none" d="M 347.844 123.168L 378.453 123.168L 378.453 84.9023L 347.844 84.9023L 347.844 123.168z"/>
<path style="stroke:none; fill-rule:evenodd; fill:#000000" d="M 356.145 110.32L 359.047 101.922L 357.914 101.922L 355.598 109.035L 353.145 101.922L 352 101.922L 355.004 110.32L 356.145 110.32z"/>
<path style="stroke:none; fill-rule:evenodd; fill:#000000" d="M 78.2422 190.648L 78.2422 196.414L 79.2422 196.414L 79.2422 188.316L 78.5742 188.316C 78.2187 189.559 77.9883 189.731 76.4179 189.926L 76.4179 190.645L 78.2422 190.648z"/>
<path style="stroke:#000000; stroke-width:1.9133; fill:none" d="M 83.8086 82.9883C 83.8086 82.9883 83.8086 82.9883 82.2148 80.4373C 80.6211 77.8873 77.4336 72.7853 72.332 70.2343C 67.2304 67.6833 60.2148 67.6833 55.1133 70.2343C 50.0117 72.7853 46.8242 77.8873 45.2304 80.4373C 43.6367 82.9883 43.6367 82.9883 43.6367 82.9883"/>
<path style="stroke:#000000; stroke-width:1.9133; fill:none" d="M 49.3047 77.5123L 43.6289 82.9843L 46.0625 75.4803"/>
<path style="stroke:none; fill-rule:evenodd; fill:#ffffff" d="M 58.9336 75.3243L 68.5 75.3243L 68.5 61.9333L 58.9336 61.9333L 58.9336 75.3243z"/>
<path style="stroke:#ffffff; stroke-width:0.0; fill:none" d="M 58.9336 75.3243L 68.5 75.3243L 68.5 61.9333L 58.9336 61.9333L 58.9336 75.3243z"/>
<path style="stroke:none; fill-rule:evenodd; fill:#000000" d="M 64.2734 65.4883C 63.5937 65.7033 63.2031 65.8753 62.8086 66.1443C 61.9453 66.7463 61.4492 67.6873 61.4492 68.6913C 61.4492 70.2853 62.6992 71.6133 64.2109 71.6133C 65.8515 71.6133 67.2461 70.1053 67.2461 68.3443C 67.2461 67.4923 66.957 66.6603 66.414 66.0083C 65.9531 65.4493 65.7422 65.2893 64.5547 64.5663C 63.3281 63.8083 62.8515 63.3403 62.8515 62.9103C 62.8515 62.4723 63.2773 62.1253 63.7968 62.1253C 64.2734 62.1253 64.5664 62.2653 65.0625 62.7543C 65.6054 63.2933 65.7929 63.4103 66.125 63.4103C 66.4843 63.4103 66.75 63.1603 66.75 62.8403C 66.75 62.1213 65.582 61.5233 64.1718 61.5233C 62.9101 61.5233 62.1445 62.0313 62.1445 62.8473C 62.1445 63.3283 62.3593 63.7193 62.9492 64.2693L 64.2734 65.4883zM 64.6367 65.8203C 65.5195 66.6723 65.9414 67.6213 65.9414 68.7853C 65.9414 70.1093 65.3242 71.0153 64.3984 71.0153C 63.4765 71.0153 62.8437 69.9613 62.8437 68.4063C 62.8437 66.9453 63.4375 66.0783 64.6367 65.8203z"/>
<path style="stroke:none; fill-rule:evenodd; fill:#000000" d="M 40.1054 96.5193L 38.3515 100.84L 39.1406 100.84L 40.5273 97.4293L 41.9257 100.84L 42.7148 100.84L 40.9375 96.5193L 40.1054 96.5193z"/>
<path style="stroke:none; fill-rule:evenodd; fill:#000000" d="M 45.9414 118.789L 46.6406 118.789L 46.6406 116.722C 46.9687 117.137 47.3398 117.32 47.8515 117.32C 48.8672 117.32 49.5351 116.488 49.5351 115.211C 49.5351 113.867 48.8789 113.023 47.8164 113.023C 47.2734 113.023 46.8398 113.265 46.539 113.738L 46.539 113.137L 45.9414 113.137L 45.9414 118.789zM 47.7187 113.617C 48.3945 113.617 48.8398 114.234 48.8398 115.187C 48.8398 116.094 48.3906 116.711 47.7187 116.711C 47.0703 116.711 46.6445 116.101 46.6445 115.164C 46.6445 114.226 47.0703 113.617 47.7187 113.617z"/>
<path style="stroke:none; fill-rule:evenodd; fill:#000000" d="M 50.3437 113.133L 50.3437 117.117L 51.0429 117.117L 51.0429 115.066C 51.0429 114.504 51.1836 114.133 51.4804 113.914C 51.6718 113.773 51.8593 113.726 52.2929 113.719L 52.2929 113.043C 52.1875 113.027 52.1328 113.019 52.0468 113.019C 51.6289 113.019 51.3125 113.262 50.9414 113.855L 50.9414 113.133L 50.3437 113.133z"/>
<path style="stroke:none; fill-rule:evenodd; fill:#000000" d="M 54.5234 117.117L 56.0586 113.117L 55.3398 113.117L 54.207 116.355L 53.1367 113.117L 52.4179 113.117L 53.8242 117.117L 54.5234 117.117z"/>
<path style="stroke:none; fill-rule:evenodd; fill:#000000" d="M 44.2422 109.875L 44.2422 114.715L 45.039 114.715L 45.039 107.918L 44.4883 107.918C 44.1953 108.961 44.0078 109.105 42.7187 109.269L 42.7187 109.871L 44.2422 109.875z"/>
<path style="stroke:none; fill-rule:evenodd; fill:#000000" d="M 40.4414 110.32L 43.3437 101.922L 42.2109 101.922L 39.8945 109.035L 37.4414 101.922L 36.2968 101.922L 39.3007 110.32L 40.4414 110.32z"/>
<path style="stroke:none; fill-rule:evenodd; fill:#000000" d="M 78.4023 98.4183L 76.6484 102.738L 77.4375 102.738L 78.8242 99.3283L 80.2226 102.738L 81.0117 102.738L 79.2343 98.4183L 78.4023 98.4183z"/>
<path style="stroke:none; fill-rule:evenodd; fill:#000000" d="M 78.7422 112.219L 81.6445 103.82L 80.5117 103.82L 78.1953 110.933L 75.7422 103.82L 74.5976 103.82L 77.6015 112.219L 78.7422 112.219z"/>
<path style="stroke:none; fill-rule:evenodd; fill:#000000" d="M 82.4414 111.777L 82.4414 116.617L 83.2383 116.617L 83.2383 109.82L 82.6875 109.82C 82.3945 110.863 82.207 111.008 80.9179 111.172L 80.9179 111.773L 82.4414 111.777z"/>
<path style="stroke:#000000; stroke-width:1.9133; fill:none" d="M 78.0625 149.945L 78.0625 123.16"/>
<path style="stroke:#000000; stroke-width:1.9133; fill:none" d="M 76.1484 130.812L 78.0586 123.16L 79.9687 130.812"/>
<path style="stroke:none; fill-rule:evenodd; fill:#5f5f5f" d="M 78.0976 146.098L 81.9218 146.098L 81.9218 134.617L 78.0976 134.617L 78.0976 146.098z"/>
<path style="stroke:#000000; stroke-width:0.95664899999999997; fill:none" d="M 78.0976 146.098L 81.9218 146.098L 81.9218 134.617L 78.0976 134.617L 78.0976 146.098z"/>
<path style="stroke:#00ff00; stroke-dasharray:6,3; stroke-width:1.9133; fill:none" d="M 85.7187 134.648L 85.7187 146.125"/>
<path style="stroke:#00ff00; stroke-dasharray:6,3; stroke-width:1.9133; fill:none" d="M 87.6328 138.472L 85.7226 146.125L 83.8125 138.472"/>
<path style="stroke:#000000; stroke-width:1.9133; fill:none" d="M 32.1484 123.168L 62.7578 123.168L 62.7578 84.9023L 32.1484 84.9023L 32.1484 123.168z"/>
<path style="stroke:#000000; stroke-width:1.9133; fill:none" d="M 62.7617 123.168L 93.3715 123.168L 93.3715 84.9023L 62.7617 84.9023L 62.7617 123.168z"/>
<path style="stroke:#000000; stroke-width:1.9133; fill:none" d="M 93.3745 123.168L 123.984 123.168L 123.984 84.9023L 93.3745 84.9023L 93.3745 123.168z"/>
<path style="stroke:#000000; stroke-width:1.9133; fill:none" d="M 32.1484 178.652L 125.898 178.652L 125.898 149.953L 32.1484 149.953L 32.1484 178.652z"/>
<path style="stroke:#00ff00; stroke-dasharray:6,3; stroke-width:2.8699499999999998; fill:none" d="M 55.1093 140.387L 74.2422 107.863"/>
<path style="stroke:none; fill-rule:evenodd; fill:#7e7e7e" d="M 105.645 106.191L 105.645 112.215L 106.645 112.215L 106.645 109.082C 106.645 108.219 106.855 107.656 107.305 107.32C 107.593 107.101 107.875 107.035 108.528 107.023L 108.528 106.058C 108.371 106.039 108.293 106.027 108.168 106.027C 107.559 106.027 107.093 106.394 106.547 107.289L 106.547 106.199L 105.645 106.191z"/>
<path style="stroke:none; fill-rule:evenodd; fill:#7e7e7e" d="M 111.145 111.777L 111.145 116.617L 111.941 116.617L 111.941 109.82L 111.391 109.82C 111.098 110.863 110.91 111.008 109.621 111.172L 109.621 111.773L 111.145 111.777z"/>
<path style="stroke:none; fill-rule:evenodd; fill:#000000" d="M 42.7422 159.906C 42.7343 158.27 41.6133 157.32 39.6992 157.32C 37.875 157.32 36.7461 158.27 36.7461 159.797C 36.7461 160.824 37.2773 161.477 38.3672 161.766L 40.4218 162.32C 41.4648 162.598 41.9414 163.023 41.9414 163.684C 41.9414 164.133 41.7031 164.598 41.3554 164.852C 41.0273 165.082 40.5078 165.207 39.8398 165.207C 38.9453 165.207 38.3359 164.981 37.9414 164.481C 37.6367 164.102 37.5 163.684 37.5507 163.145L 36.5507 163.145C 36.5586 163.922 36.707 164.434 37.0351 164.898C 37.6015 165.688 38.5547 166.106 39.8125 166.106C 40.7968 166.106 41.6015 165.879 42.1367 165.461C 42.6914 165.016 43.0429 164.266 43.0429 163.539C 43.0429 162.504 42.4101 161.746 41.2851 161.434L 39.2109 160.871C 38.2148 160.598 37.8515 160.273 37.8515 159.629C 37.8515 158.777 38.5859 158.211 39.6914 158.211C 41 158.211 41.7343 158.813 41.7461 159.898L 42.7422 159.906z"/>
<path style="stroke:none; fill-rule:evenodd; fill:#000000" d="M 46.1445 165.375L 46.1445 170.215L 46.9414 170.215L 46.9414 163.418L 46.3906 163.418C 46.0976 164.461 45.9101 164.606 44.6211 164.77L 44.6211 165.371L 46.1445 165.375z"/>
<path style="stroke:#000000; stroke-width:1.9133; fill:none" d="M 189.04 82.9883C 189.04 82.9883 189.04 82.9883 187.445 80.4373C 185.852 77.8873 182.665 72.7853 177.562 70.2343C 172.46 67.6833 165.445 67.6833 160.344 70.2343C 155.243 72.7853 152.055 77.8873 150.46 80.4373C 148.868 82.9883 148.868 82.9883 148.868 82.9883"/>
<path style="stroke:#000000; stroke-width:1.9133; fill:none" d="M 154.54 77.5123L 148.863 82.9843L 151.296 75.4803"/>
<path style="stroke:none; fill-rule:evenodd; fill:#ffffff" d="M 164.165 75.3243L 173.73 75.3243L 173.73 61.9333L 164.165 61.9333L 164.165 75.3243z"/>
<path style="stroke:#ffffff; stroke-width:0.0; fill:none" d="M 164.165 75.3243L 173.73 75.3243L 173.73 61.9333L 164.165 61.9333L 164.165 75.3243z"/>
<path style="stroke:none; fill-rule:evenodd; fill:#000000" d="M 169.473 65.4883C 168.792 65.7033 168.402 65.8753 168.008 66.1443C 167.145 66.7463 166.648 67.6873 166.648 68.6913C 166.648 70.2853 167.898 71.6133 169.411 71.6133C 171.051 71.6133 172.445 70.1053 172.445 68.3443C 172.445 67.4923 172.156 66.6603 171.613 66.0083C 171.152 65.4493 170.941 65.2893 169.753 64.5663C 168.527 63.8083 168.051 63.3403 168.051 62.9103C 168.051 62.4723 168.477 62.1253 168.997 62.1253C 169.473 62.1253 169.766 62.2653 170.262 62.7543C 170.805 63.2933 170.993 63.4103 171.324 63.4103C 171.684 63.4103 171.949 63.1603 171.949 62.8403C 171.949 62.1213 170.781 61.5233 169.372 61.5233C 168.109 61.5233 167.344 62.0313 167.344 62.8473C 167.344 63.3283 167.559 63.7193 168.148 64.2693L 169.473 65.4883zM 169.835 65.8203C 170.719 66.6723 171.141 67.6213 171.141 68.7853C 171.141 70.1093 170.523 71.0153 169.598 71.0153C 168.676 71.0153 168.042 69.9613 168.042 68.4063C 168.042 66.9453 168.637 66.0783 169.835 65.8203z"/>
<path style="stroke:#000000; stroke-width:1.9133; fill:none" d="M 183.292 149.945L 183.292 123.16"/>
<path style="stroke:#000000; stroke-width:1.9133; fill:none" d="M 181.378 130.812L 183.29 123.16L 185.199 130.812"/>
<path style="stroke:none; fill-rule:evenodd; fill:#5f5f5f" d="M 183.333 146.098L 187.156 146.098L 187.156 134.617L 183.333 134.617L 183.333 146.098z"/>
<path style="stroke:#000000; stroke-width:0.95664899999999997; fill:none" d="M 183.333 146.098L 187.156 146.098L 187.156 134.617L 183.333 134.617L 183.333 146.098z"/>
<path style="stroke:#00ff00; stroke-dasharray:6,3; stroke-width:1.9133; fill:none" d="M 190.954 134.648L 190.954 146.125"/>
<path style="stroke:#00ff00; stroke-dasharray:6,3; stroke-width:1.9133; fill:none" d="M 192.868 138.472L 190.956 146.125L 189.046 138.472"/>
<path style="stroke:#000000; stroke-width:1.9133; fill:none" d="M 137.378 123.168L 167.988 123.168L 167.988 84.9023L 137.378 84.9023L 137.378 123.168z"/>
<path style="stroke:#000000; stroke-width:1.9133; fill:none" d="M 167.993 123.168L 198.602 123.168L 198.602 84.9023L 167.993 84.9023L 167.993 123.168z"/>
<path style="stroke:#000000; stroke-width:1.9133; fill:none" d="M 198.605 123.168L 229.215 123.168L 229.215 84.9023L 198.605 84.9023L 198.605 123.168z"/>
<path style="stroke:#000000; stroke-width:1.9133; fill:none" d="M 137.378 178.652L 231.128 178.652L 231.128 149.953L 137.378 149.953L 137.378 178.652z"/>
<path style="stroke:#00ff00; stroke-dasharray:6,3; stroke-width:2.8699499999999998; fill:none" d="M 160.34 140.387L 179.473 107.863"/>
<path style="stroke:none; fill-rule:evenodd; fill:#000000" d="M 183.605 98.4183L 181.852 102.738L 182.641 102.738L 184.027 99.3283L 185.426 102.738L 186.215 102.738L 184.438 98.4183L 183.605 98.4183z"/>
<path style="stroke:none; fill-rule:evenodd; fill:#000000" d="M 183.941 112.219L 186.844 103.82L 185.71 103.82L 183.395 110.933L 180.941 103.82L 179.796 103.82L 182.801 112.219L 183.941 112.219z"/>
<path style="stroke:none; fill-rule:evenodd; fill:#000000" d="M 190.094 115.82L 186.52 115.82C 186.605 115.262 186.911 114.906 187.747 114.414L 188.704 113.894C 189.652 113.375 190.141 112.672 190.141 111.832C 190.141 111.265 189.911 110.734 189.508 110.367C 189.105 110.004 188.609 109.828 187.965 109.828C 187.105 109.828 186.46 110.137 186.085 110.715C 185.848 111.078 185.743 111.504 185.723 112.195L 186.579 112.195C 186.605 111.722 186.665 111.437 186.781 111.211C 187.003 110.789 187.454 110.531 187.969 110.531C 188.747 110.531 189.333 111.082 189.333 111.812C 189.333 112.351 189.012 112.816 188.398 113.16L 187.503 113.66C 186.062 114.469 185.645 115.113 185.566 116.621L 190.09 116.621L 190.094 115.82z"/>
<path style="stroke:none; fill-rule:evenodd; fill:#000000" d="M 145.402 96.5193L 143.648 100.84L 144.438 100.84L 145.824 97.4293L 147.223 100.84L 148.012 100.84L 146.234 96.5193L 145.402 96.5193z"/>
<path style="stroke:none; fill-rule:evenodd; fill:#000000" d="M 151.145 118.789L 151.844 118.789L 151.844 116.722C 152.171 117.137 152.542 117.32 153.055 117.32C 154.07 117.32 154.738 116.488 154.738 115.211C 154.738 113.867 154.083 113.023 153.02 113.023C 152.477 113.023 152.042 113.265 151.743 113.738L 151.743 113.137L 151.145 113.137L 151.145 118.789zM 152.917 113.617C 153.594 113.617 154.04 114.234 154.04 115.187C 154.04 116.094 153.59 116.711 152.917 116.711C 152.27 116.711 151.844 116.101 151.844 115.164C 151.844 114.226 152.27 113.617 152.917 113.617z"/>
<path style="stroke:none; fill-rule:evenodd; fill:#000000" d="M 155.542 113.133L 155.542 117.117L 156.243 117.117L 156.243 115.066C 156.243 114.504 156.383 114.133 156.68 113.914C 156.872 113.773 157.059 113.726 157.493 113.719L 157.493 113.043C 157.387 113.027 157.333 113.019 157.247 113.019C 156.829 113.019 156.512 113.262 156.141 113.855L 156.141 113.133L 155.542 113.133z"/>
<path style="stroke:none; fill-rule:evenodd; fill:#000000" d="M 159.723 117.117L 161.258 113.117L 160.54 113.117L 159.406 116.355L 158.335 113.117L 157.618 113.117L 159.023 117.117L 159.723 117.117z"/>
<path style="stroke:none; fill-rule:evenodd; fill:#000000" d="M 145.743 110.32L 148.645 101.922L 147.512 101.922L 145.195 109.035L 142.743 101.922L 141.598 101.922L 144.602 110.32L 145.743 110.32z"/>
<path style="stroke:none; fill-rule:evenodd; fill:#000000" d="M 151.792 113.918L 148.219 113.918C 148.305 113.359 148.609 113.004 149.445 112.512L 150.402 111.992C 151.352 111.472 151.84 110.769 151.84 109.929C 151.84 109.363 151.609 108.832 151.206 108.465C 150.805 108.101 150.309 107.926 149.665 107.926C 148.805 107.926 148.161 108.234 147.786 108.812C 147.546 109.176 147.441 109.601 147.421 110.293L 148.277 110.293C 148.305 109.82 148.363 109.535 148.48 109.308C 148.704 108.887 149.152 108.629 149.667 108.629C 150.445 108.629 151.031 109.179 151.031 109.91C 151.031 110.449 150.71 110.914 150.098 111.258L 149.204 111.758C 147.762 112.566 147.344 113.211 147.266 114.719L 151.79 114.719L 151.792 113.918z"/>
<path style="stroke:none; fill-rule:evenodd; fill:#7e7e7e" d="M 210.844 106.191L 210.844 112.215L 211.844 112.215L 211.844 109.082C 211.844 108.219 212.055 107.656 212.503 107.32C 212.792 107.101 213.074 107.035 213.727 107.023L 213.727 106.058C 213.57 106.039 213.493 106.027 213.368 106.027C 212.758 106.027 212.292 106.394 211.747 107.289L 211.747 106.199L 210.844 106.191z"/>
<path style="stroke:none; fill-rule:evenodd; fill:#7e7e7e" d="M 218.792 115.82L 215.219 115.82C 215.305 115.262 215.609 114.906 216.445 114.414L 217.402 113.894C 218.352 113.375 218.84 112.672 218.84 111.832C 218.84 111.265 218.609 110.734 218.206 110.367C 217.805 110.004 217.309 109.828 216.665 109.828C 215.805 109.828 215.161 110.137 214.786 110.715C 214.546 111.078 214.441 111.504 214.421 112.195L 215.277 112.195C 215.305 111.722 215.363 111.437 215.48 111.211C 215.704 110.789 216.152 110.531 216.667 110.531C 217.445 110.531 218.031 111.082 218.031 111.812C 218.031 112.351 217.71 112.816 217.098 113.16L 216.204 113.66C 214.762 114.469 214.344 115.113 214.266 116.621L 218.79 116.621L 218.792 115.82z"/>
<path style="stroke:none; fill-rule:evenodd; fill:#000000" d="M 148.042 159.906C 148.036 158.27 146.915 157.32 144.999 157.32C 143.176 157.32 142.046 158.27 142.046 159.797C 142.046 160.824 142.579 161.477 143.667 161.766L 145.723 162.32C 146.766 162.598 147.243 163.023 147.243 163.684C 147.243 164.133 147.003 164.598 146.656 164.852C 146.329 165.082 145.809 165.207 145.141 165.207C 144.247 165.207 143.637 164.981 143.243 164.481C 142.938 164.102 142.801 163.684 142.852 163.145L 141.852 163.145C 141.859 163.922 142.008 164.434 142.335 164.898C 142.902 165.688 143.855 166.106 145.113 166.106C 146.098 166.106 146.902 165.879 147.438 165.461C 147.993 165.016 148.344 164.266 148.344 163.539C 148.344 162.504 147.71 161.746 146.585 161.434L 144.512 160.871C 143.516 160.598 143.152 160.273 143.152 159.629C 143.152 158.777 143.887 158.211 144.993 158.211C 146.301 158.211 147.036 158.813 147.046 159.898L 148.042 159.906z"/>
<path style="stroke:none; fill-rule:evenodd; fill:#000000" d="M 153.695 169.418L 150.122 169.418C 150.206 168.859 150.512 168.504 151.348 168.012L 152.305 167.492C 153.253 166.973 153.743 166.27 153.743 165.43C 153.743 164.863 153.512 164.332 153.109 163.965C 152.706 163.602 152.21 163.426 151.566 163.426C 150.706 163.426 150.062 163.734 149.688 164.313C 149.449 164.676 149.344 165.102 149.324 165.793L 150.18 165.793C 150.206 165.32 150.266 165.035 150.383 164.809C 150.605 164.387 151.055 164.129 151.57 164.129C 152.348 164.129 152.934 164.68 152.934 165.41C 152.934 165.949 152.613 166.414 151.999 166.758L 151.105 167.258C 149.665 168.066 149.247 168.711 149.167 170.219L 153.691 170.219L 153.695 169.418z"/>
<path style="stroke:none; fill-rule:evenodd; fill:#000000" d="M 186.188 195.418L 181.96 195.418C 182.062 194.758 182.426 194.336 183.411 193.754L 184.542 193.141C 185.665 192.527 186.243 191.691 186.243 190.699C 186.243 190.027 185.973 189.398 185.497 188.965C 185.023 188.531 184.434 188.328 183.671 188.328C 182.652 188.328 181.895 188.688 181.454 189.367C 181.171 189.797 181.046 190.293 181.023 191.109L 182.023 191.109C 182.055 190.578 182.124 190.254 182.262 189.996C 182.523 189.52 183.046 189.227 183.648 189.227C 184.559 189.227 185.243 189.875 185.243 190.742C 185.243 191.379 184.868 191.926 184.148 192.336L 183.102 192.926C 181.417 193.879 180.926 194.645 180.835 196.422L 186.188 196.422L 186.188 195.418z"/>
<path style="stroke:none; fill-rule:evenodd; fill:#000000" d="M 42.0312 89.1013C 42.0234 88.0903 41.3828 87.5193 40.2383 87.5193C 39.0898 87.5193 38.3437 88.1293 38.3437 89.0703C 38.3437 89.8633 38.7422 90.2423 39.9257 90.5313L 40.6679 90.7153C 41.2187 90.8473 41.4375 91.0513 41.4375 91.4183C 41.4375 91.8903 40.9648 92.2113 40.2578 92.2113C 39.8242 92.2113 39.457 92.0863 39.25 91.8713C 39.125 91.7263 39.0664 91.5823 39.0195 91.2223L 38.1679 91.2223C 38.2031 92.3633 38.8554 92.9143 40.1718 92.9143C 41.4375 92.9143 42.2422 92.2853 42.2422 91.3083C 42.2422 90.5553 41.8242 90.1373 40.832 89.8943L 40.0703 89.7113C 39.4257 89.5583 39.1484 89.3443 39.1484 88.9843C 39.1484 88.5193 39.5547 88.2193 40.2031 88.2193C 40.8398 88.2193 41.1797 88.5233 41.1992 89.1013L 42.0312 89.1013z"/>
<path style="stroke:none; fill-rule:evenodd; fill:#000000" d="M 43.3437 92.7193L 44.1406 92.7193L 44.1406 85.7223L 43.3437 85.7223L 43.3437 92.7193z"/>
<path style="stroke:none; fill-rule:evenodd; fill:#000000" d="M 47.4843 87.5193C 46.0898 87.5193 45.2461 88.5273 45.2461 90.2193C 45.2461 91.9063 46.0781 92.9183 47.4961 92.9183C 48.8906 92.9183 49.7461 91.9103 49.7461 90.2583C 49.7461 88.5193 48.9218 87.5193 47.4883 87.5193L 47.4843 87.5193zM 47.4922 88.2193C 48.3984 88.2193 48.9414 88.9723 48.9414 90.2463C 48.9414 91.4493 48.3828 92.2153 47.4922 92.2153C 46.5937 92.2153 46.0429 91.4613 46.0429 90.2153C 46.0429 88.9803 46.5937 88.2153 47.4922 88.2153L 47.4922 88.2193z"/>
<path style="stroke:none; fill-rule:evenodd; fill:#000000" d="M 55.4414 92.7193L 56.914 87.7193L 56.0156 87.7193L 55.0234 91.6053L 54.039 87.7193L 53.0664 87.7193L 52.1133 91.6053L 51.0937 87.7193L 50.2148 87.7193L 51.6679 92.7193L 52.5664 92.7193L 53.5312 88.7893L 54.5429 92.7193L 55.4414 92.7193z"/>
<path style="stroke:none; fill-rule:evenodd; fill:#000000" d="M 72.9414 87.7193L 72.0429 87.7193L 72.0429 86.9293C 72.0429 86.5943 72.2461 86.4223 72.6406 86.4223C 72.7109 86.4223 72.7422 86.4223 72.9375 86.4223L 72.9375 85.7693C 72.75 85.7343 72.6406 85.7223 72.4687 85.7223C 71.6992 85.7223 71.2422 86.1443 71.2422 86.8673L 71.2422 87.7193L 70.6445 87.7193L 70.6445 88.4183L 71.2422 88.4183L 71.2422 92.7153L 72.039 92.7153L 72.039 88.4183L 72.9375 88.4183L 72.9414 87.7193z"/>
<path style="stroke:none; fill-rule:evenodd; fill:#000000" d="M 78.1601 92.2503C 78.0742 92.2223 78.0351 92.2223 77.9843 92.2223C 77.7031 92.2223 77.5468 92.0823 77.5468 91.8323L 77.5468 88.8903C 77.5468 88.0043 76.9023 87.5273 75.6718 87.5273C 74.9492 87.5273 74.3515 87.7423 74.0156 88.1253C 73.789 88.3873 73.6953 88.6833 73.6757 89.1913L 74.4726 89.1913C 74.539 88.5273 74.8984 88.2223 75.6406 88.2223C 76.3515 88.2223 76.75 88.4923 76.75 88.9763L 76.75 89.1873C 76.75 89.5233 76.5507 89.6683 75.9257 89.7463C 74.8047 89.8903 74.6328 89.9293 74.3281 90.0553C 73.75 90.2933 73.4531 90.7503 73.4531 91.4103C 73.4531 92.3283 74.082 92.9103 75.0976 92.9103C 75.7265 92.9103 76.2343 92.6993 76.8007 92.1953C 76.8554 92.6873 77.1054 92.9103 77.6211 92.9103C 77.7812 92.9103 77.9062 92.8943 78.164 92.8283L 78.1601 92.2503zM 76.7422 91.1333C 76.7422 91.3943 76.6679 91.5583 76.4257 91.7733C 76.1015 92.0663 75.707 92.2153 75.2343 92.2153C 74.6093 92.2153 74.2461 91.9223 74.2461 91.4223C 74.2461 90.9023 74.6015 90.6373 75.457 90.5153C 76.3007 90.4023 76.4726 90.3673 76.7422 90.2423L 76.7422 91.1333z"/>
<path style="stroke:none; fill-rule:evenodd; fill:#000000" d="M 82.5312 89.1013C 82.5234 88.0903 81.8828 87.5193 80.7383 87.5193C 79.5898 87.5193 78.8437 88.1293 78.8437 89.0703C 78.8437 89.8633 79.2422 90.2423 80.4257 90.5313L 81.1679 90.7153C 81.7187 90.8473 81.9375 91.0513 81.9375 91.4183C 81.9375 91.8903 81.4648 92.2113 80.7578 92.2113C 80.3242 92.2113 79.957 92.0863 79.75 91.8713C 79.625 91.7263 79.5664 91.5823 79.5195 91.2223L 78.6679 91.2223C 78.7031 92.3633 79.3554 92.9143 80.6718 92.9143C 81.9375 92.9143 82.7422 92.2853 82.7422 91.3083C 82.7422 90.5553 82.3242 90.1373 81.332 89.8943L 80.5703 89.7113C 79.9257 89.5583 79.6484 89.3443 79.6484 88.9843C 79.6484 88.5193 80.0547 88.2193 80.7031 88.2193C 81.3398 88.2193 81.6797 88.5233 81.6992 89.1013L 82.5312 89.1013z"/>
<path style="stroke:none; fill-rule:evenodd; fill:#000000" d="M 85.5429 87.7193L 84.7461 87.7193L 84.7461 86.3283L 83.9492 86.3283L 83.9492 87.7193L 83.25 87.7193L 83.25 88.4183L 83.9492 88.4183L 83.9492 92.1373C 83.9492 92.6333 84.289 92.9143 84.9023 92.9143C 85.0898 92.9143 85.2812 92.8983 85.5429 92.8513L 85.5429 92.2033C 85.4414 92.2153 85.3203 92.2193 85.1718 92.2193C 84.8398 92.2193 84.7461 92.1253 84.7461 91.7813L 84.7461 88.4223L 85.5429 88.4223L 85.5429 87.7193z"/>
<path style="stroke:none; fill-rule:evenodd; fill:#000000" d="M 101.743 87.6643L 101.743 92.7153L 102.539 92.7153L 102.539 90.0623C 102.539 89.3323 102.715 88.8553 103.09 88.5703C 103.333 88.3873 103.566 88.3283 104.105 88.3163L 104.105 87.5473C 103.973 87.5313 103.907 87.5233 103.8 87.5233C 103.289 87.5233 102.895 87.8323 102.438 88.5823L 102.438 87.6683L 101.743 87.6643z"/>
<path style="stroke:none; fill-rule:evenodd; fill:#000000" d="M 109.145 90.5193C 109.145 89.7343 109.09 89.2623 108.946 88.8793C 108.625 88.0353 107.864 87.5233 106.93 87.5233C 105.543 87.5233 104.648 88.5973 104.648 90.2503C 104.648 91.8983 105.511 92.9183 106.914 92.9183C 108.055 92.9183 108.848 92.2773 109.047 91.1993L 108.243 91.1993C 108.023 91.8673 107.571 92.2193 106.93 92.2193C 106.422 92.2193 105.993 91.9923 105.718 91.5783C 105.528 91.2973 105.461 91.0153 105.453 90.5233L 109.145 90.5193zM 105.477 89.8323C 105.543 88.9063 106.105 88.3053 106.91 88.3053C 107.691 88.3053 108.297 88.9533 108.297 89.7773C 108.297 89.7933 108.297 89.8123 108.289 89.8323L 105.477 89.8323z"/>
<path style="stroke:none; fill-rule:evenodd; fill:#000000" d="M 114.843 92.7193L 116.316 87.7193L 115.418 87.7193L 114.425 91.6053L 113.441 87.7193L 112.468 87.7193L 111.516 91.6053L 110.496 87.7193L 109.618 87.7193L 111.071 92.7193L 111.968 92.7193L 112.934 88.7893L 113.946 92.7193L 114.843 92.7193z"/>
<path style="stroke:none; fill-rule:evenodd; fill:#000000" d="M 148.234 89.1013C 148.227 88.0903 147.585 87.5193 146.441 87.5193C 145.292 87.5193 144.546 88.1293 144.546 89.0703C 144.546 89.8633 144.945 90.2423 146.128 90.5313L 146.872 90.7153C 147.421 90.8473 147.641 91.0513 147.641 91.4183C 147.641 91.8903 147.167 92.2113 146.46 92.2113C 146.027 92.2113 145.661 92.0863 145.454 91.8713C 145.329 91.7263 145.27 91.5823 145.223 91.2223L 144.372 91.2223C 144.406 92.3633 145.059 92.9143 146.374 92.9143C 147.641 92.9143 148.445 92.2853 148.445 91.3083C 148.445 90.5553 148.027 90.1373 147.036 89.8943L 146.273 89.7113C 145.628 89.5583 145.352 89.3443 145.352 88.9843C 145.352 88.5193 145.758 88.2193 146.406 88.2193C 147.042 88.2193 147.383 88.5233 147.402 89.1013L 148.234 89.1013z"/>
<path style="stroke:none; fill-rule:evenodd; fill:#000000" d="M 149.542 92.7193L 150.34 92.7193L 150.34 85.7223L 149.542 85.7223L 149.542 92.7193z"/>
<path style="stroke:none; fill-rule:evenodd; fill:#000000" d="M 153.583 87.5193C 152.188 87.5193 151.344 88.5273 151.344 90.2193C 151.344 91.9063 152.176 92.9183 153.594 92.9183C 154.988 92.9183 155.844 91.9103 155.844 90.2583C 155.844 88.5193 155.02 87.5193 153.585 87.5193L 153.583 87.5193zM 153.594 88.2193C 154.499 88.2193 155.042 88.9723 155.042 90.2463C 155.042 91.4493 154.484 92.2153 153.594 92.2153C 152.695 92.2153 152.145 91.4613 152.145 90.2153C 152.145 88.9803 152.695 88.2153 153.594 88.2153L 153.594 88.2193z"/>
<path style="stroke:none; fill-rule:evenodd; fill:#000000" d="M 161.645 92.7193L 163.118 87.7193L 162.219 87.7193L 161.227 91.6053L 160.243 87.7193L 159.27 87.7193L 158.316 91.6053L 157.296 87.7193L 156.417 87.7193L 157.872 92.7193L 158.77 92.7193L 159.734 88.7893L 160.747 92.7193L 161.645 92.7193z"/>
<path style="stroke:none; fill-rule:evenodd; fill:#000000" d="M 179.145 87.7193L 178.247 87.7193L 178.247 86.9293C 178.247 86.5943 178.449 86.4223 178.844 86.4223C 178.915 86.4223 178.945 86.4223 179.141 86.4223L 179.141 85.7693C 178.954 85.7343 178.844 85.7223 178.671 85.7223C 177.902 85.7223 177.445 86.1443 177.445 86.8673L 177.445 87.7193L 176.848 87.7193L 176.848 88.4183L 177.445 88.4183L 177.445 92.7153L 178.243 92.7153L 178.243 88.4183L 179.141 88.4183L 179.145 87.7193z"/>
<path style="stroke:none; fill-rule:evenodd; fill:#000000" d="M 184.359 92.2503C 184.273 92.2223 184.234 92.2223 184.184 92.2223C 183.902 92.2223 183.747 92.0823 183.747 91.8323L 183.747 88.8903C 183.747 88.0043 183.102 87.5273 181.872 87.5273C 181.148 87.5273 180.551 87.7423 180.215 88.1253C 179.988 88.3873 179.895 88.6833 179.874 89.1913L 180.671 89.1913C 180.738 88.5273 181.098 88.2223 181.84 88.2223C 182.551 88.2223 182.949 88.4923 182.949 88.9763L 182.949 89.1873C 182.949 89.5233 182.749 89.6683 182.124 89.7463C 181.003 89.8903 180.833 89.9293 180.527 90.0553C 179.949 90.2933 179.652 90.7503 179.652 91.4103C 179.652 92.3283 180.281 92.9103 181.296 92.9103C 181.926 92.9103 182.434 92.6993 182.999 92.1953C 183.055 92.6873 183.305 92.9103 183.82 92.9103C 183.98 92.9103 184.105 92.8943 184.363 92.8283L 184.359 92.2503zM 182.941 91.1333C 182.941 91.3943 182.868 91.5583 182.624 91.7733C 182.301 92.0663 181.906 92.2153 181.434 92.2153C 180.809 92.2153 180.445 91.9223 180.445 91.4223C 180.445 90.9023 180.801 90.6373 181.656 90.5153C 182.499 90.4023 182.671 90.3673 182.941 90.2423L 182.941 91.1333z"/>
<path style="stroke:none; fill-rule:evenodd; fill:#000000" d="M 188.734 89.1013C 188.727 88.0903 188.085 87.5193 186.941 87.5193C 185.792 87.5193 185.046 88.1293 185.046 89.0703C 185.046 89.8633 185.445 90.2423 186.628 90.5313L 187.372 90.7153C 187.921 90.8473 188.141 91.0513 188.141 91.4183C 188.141 91.8903 187.667 92.2113 186.96 92.2113C 186.527 92.2113 186.161 92.0863 185.954 91.8713C 185.829 91.7263 185.77 91.5823 185.723 91.2223L 184.872 91.2223C 184.906 92.3633 185.559 92.9143 186.874 92.9143C 188.141 92.9143 188.945 92.2853 188.945 91.3083C 188.945 90.5553 188.527 90.1373 187.536 89.8943L 186.773 89.7113C 186.128 89.5583 185.852 89.3443 185.852 88.9843C 185.852 88.5193 186.258 88.2193 186.906 88.2193C 187.542 88.2193 187.883 88.5233 187.902 89.1013L 188.734 89.1013z"/>
<path style="stroke:none; fill-rule:evenodd; fill:#000000" d="M 191.743 87.7193L 190.945 87.7193L 190.945 86.3283L 190.148 86.3283L 190.148 87.7193L 189.449 87.7193L 189.449 88.4183L 190.148 88.4183L 190.148 92.1373C 190.148 92.6333 190.488 92.9143 191.102 92.9143C 191.29 92.9143 191.48 92.8983 191.743 92.8513L 191.743 92.2033C 191.641 92.2153 191.52 92.2193 191.372 92.2193C 191.04 92.2193 190.945 92.1253 190.945 91.7813L 190.945 88.4223L 191.743 88.4223L 191.743 87.7193z"/>
<path style="stroke:none; fill-rule:evenodd; fill:#000000" d="M 207.941 87.6643L 207.941 92.7153L 208.738 92.7153L 208.738 90.0623C 208.738 89.3323 208.915 88.8553 209.29 88.5703C 209.531 88.3873 209.766 88.3283 210.305 88.3163L 210.305 87.5473C 210.171 87.5313 210.105 87.5233 209.999 87.5233C 209.488 87.5233 209.094 87.8323 208.637 88.5823L 208.637 87.6683L 207.941 87.6643z"/>
<path style="stroke:none; fill-rule:evenodd; fill:#000000" d="M 215.344 90.5193C 215.344 89.7343 215.29 89.2623 215.145 88.8793C 214.824 88.0353 214.062 87.5233 213.128 87.5233C 211.743 87.5233 210.848 88.5973 210.848 90.2503C 210.848 91.8983 211.71 92.9183 213.113 92.9183C 214.253 92.9183 215.046 92.2773 215.247 91.1993L 214.441 91.1993C 214.223 91.8673 213.77 92.2193 213.128 92.2193C 212.622 92.2193 212.191 91.9923 211.917 91.5783C 211.727 91.2973 211.661 91.0153 211.652 90.5233L 215.344 90.5193zM 211.676 89.8323C 211.743 88.9063 212.305 88.3053 213.109 88.3053C 213.891 88.3053 214.497 88.9533 214.497 89.7773C 214.497 89.7933 214.497 89.8123 214.488 89.8323L 211.676 89.8323z"/>
<path style="stroke:none; fill-rule:evenodd; fill:#000000" d="M 221.042 92.7193L 222.516 87.7193L 221.618 87.7193L 220.624 91.6053L 219.641 87.7193L 218.667 87.7193L 217.715 91.6053L 216.695 87.7193L 215.816 87.7193L 217.27 92.7193L 218.167 92.7193L 219.133 88.7893L 220.145 92.7193L 221.042 92.7193z"/>
<path style="stroke:#000000; stroke-width:1.9133; fill:none" d="M 273.223 123.168L 303.832 123.168L 303.832 84.9023L 273.223 84.9023L 273.223 123.168z"/>
<path style="stroke:#000000; stroke-width:1.9133; fill:none" d="M 242.609 123.168L 273.219 123.168L 273.219 84.9023L 242.609 84.9023L 242.609 123.168z"/>
<path style="stroke:#000000; stroke-width:1.9133; fill:none" d="M 303.836 123.168L 334.445 123.168L 334.445 84.9023L 303.836 84.9023L 303.836 123.168z"/>
<path style="stroke:#000000; stroke-width:1.9133; fill:none" d="M 242.609 178.652L 336.359 178.652L 336.359 149.953L 242.609 149.953L 242.609 178.652z"/>
<path style="stroke:#00ff00; stroke-dasharray:6,3; stroke-width:2.8699499999999998; fill:none" d="M 265.57 140.387L 284.703 107.863"/>
<path style="stroke:none; fill-rule:evenodd; fill:#000000" d="M 253.242 159.906C 253.234 158.27 252.113 157.32 250.199 157.32C 248.375 157.32 247.246 158.27 247.246 159.797C 247.246 160.824 247.777 161.477 248.867 161.766L 250.922 162.32C 251.965 162.598 252.441 163.023 252.441 163.684C 252.441 164.133 252.203 164.598 251.855 164.852C 251.527 165.082 251.008 165.207 250.34 165.207C 249.445 165.207 248.836 164.981 248.441 164.481C 248.137 164.102 248 163.684 248.051 163.145L 247.051 163.145C 247.059 163.922 247.207 164.434 247.535 164.898C 248.102 165.688 249.055 166.106 250.312 166.106C 251.297 166.106 252.102 165.879 252.637 165.461C 253.191 165.016 253.543 164.266 253.543 163.539C 253.543 162.504 252.91 161.746 251.785 161.434L 249.711 160.871C 248.715 160.598 248.352 160.273 248.352 159.629C 248.352 158.777 249.086 158.211 250.191 158.211C 251.5 158.211 252.234 158.813 252.246 159.898L 253.242 159.906z"/>
<path style="stroke:none; fill-rule:evenodd; fill:#000000" d="M 256.156 167.117L 256.617 167.117C 257.555 167.117 258.035 167.539 258.035 168.352C 258.035 169.203 257.508 169.711 256.625 169.711C 255.703 169.711 255.25 169.246 255.195 168.242L 254.352 168.242C 254.387 168.781 254.48 169.133 254.645 169.434C 254.984 170.078 255.648 170.41 256.566 170.41C 257.949 170.41 258.84 169.582 258.84 168.301C 258.84 167.441 258.52 166.965 257.734 166.688C 258.336 166.441 258.641 165.961 258.641 165.285C 258.641 164.121 257.875 163.422 256.594 163.422C 255.242 163.422 254.52 164.172 254.492 165.629L 255.336 165.629C 255.344 165.203 255.383 164.965 255.488 164.746C 255.68 164.359 256.102 164.121 256.633 164.121C 257.383 164.121 257.836 164.574 257.836 165.32C 257.836 165.813 257.664 166.113 257.285 166.27C 257.055 166.367 256.754 166.406 256.152 166.418L 256.156 167.117z"/>
<path style="stroke:none; fill-rule:evenodd; fill:#000000" d="M 288.18 192.719L 288.734 192.719C 289.859 192.719 290.438 193.223 290.438 194.191C 290.438 195.207 289.805 195.813 288.742 195.813C 287.637 195.813 287.094 195.254 287.023 194.051L 286.008 194.051C 286.051 194.711 286.168 195.145 286.359 195.516C 286.77 196.305 287.574 196.711 288.684 196.711C 290.355 196.711 291.434 195.715 291.434 194.176C 291.434 193.145 291.035 192.57 290.066 192.238C 290.844 191.941 291.234 191.367 291.234 190.555C 291.234 189.156 290.301 188.32 288.742 188.32C 287.094 188.32 286.215 189.199 286.18 190.906L 287.203 190.906C 287.215 190.43 287.258 190.164 287.387 189.918C 287.617 189.484 288.129 189.219 288.773 189.219C 289.68 189.219 290.23 189.734 290.23 190.574C 290.23 191.133 290.02 191.469 289.555 191.648C 289.273 191.758 288.906 191.805 288.168 191.816L 288.18 192.719z"/>
<path style="stroke:none; fill-rule:evenodd; fill:#7e7e7e" d="M 316.145 106.191L 316.145 112.215L 317.145 112.215L 317.145 109.082C 317.145 108.219 317.355 107.656 317.805 107.32C 318.094 107.101 318.375 107.035 319.027 107.023L 319.027 106.058C 318.871 106.039 318.793 106.027 318.668 106.027C 318.059 106.027 317.594 106.394 317.047 107.289L 317.047 106.199L 316.145 106.191z"/>
<path style="stroke:none; fill-rule:evenodd; fill:#7e7e7e" d="M 321.258 113.519L 321.719 113.519C 322.656 113.519 323.137 113.941 323.137 114.754C 323.137 115.605 322.609 116.113 321.727 116.113C 320.805 116.113 320.352 115.648 320.297 114.644L 319.453 114.644C 319.488 115.183 319.582 115.535 319.746 115.836C 320.086 116.48 320.75 116.812 321.668 116.812C 323.051 116.812 323.941 115.984 323.941 114.703C 323.941 113.844 323.621 113.367 322.836 113.09C 323.438 112.844 323.742 112.363 323.742 111.687C 323.742 110.523 322.977 109.824 321.695 109.824C 320.344 109.824 319.621 110.574 319.594 112.031L 320.438 112.031C 320.445 111.605 320.484 111.367 320.59 111.148C 320.781 110.762 321.203 110.523 321.734 110.523C 322.484 110.523 322.938 110.976 322.938 111.722C 322.938 112.215 322.766 112.515 322.387 112.672C 322.156 112.769 321.855 112.808 321.254 112.82L 321.258 113.519z"/>
<path style="stroke:none; fill-rule:evenodd; fill:#000000" d="M 250.605 96.5193L 248.852 100.84L 249.641 100.84L 251.027 97.4293L 252.426 100.84L 253.215 100.84L 251.438 96.5193L 250.605 96.5193z"/>
<path style="stroke:none; fill-rule:evenodd; fill:#000000" d="M 256.441 118.789L 257.141 118.789L 257.141 116.722C 257.469 117.137 257.84 117.32 258.352 117.32C 259.367 117.32 260.035 116.488 260.035 115.211C 260.035 113.867 259.379 113.023 258.316 113.023C 257.773 113.023 257.34 113.265 257.039 113.738L 257.039 113.137L 256.441 113.137L 256.441 118.789zM 258.219 113.617C 258.895 113.617 259.34 114.234 259.34 115.187C 259.34 116.094 258.891 116.711 258.219 116.711C 257.57 116.711 257.145 116.101 257.145 115.164C 257.145 114.226 257.57 113.617 258.219 113.617z"/>
<path style="stroke:none; fill-rule:evenodd; fill:#000000" d="M 260.742 113.133L 260.742 117.117L 261.441 117.117L 261.441 115.066C 261.441 114.504 261.582 114.133 261.879 113.914C 262.07 113.773 262.258 113.726 262.691 113.719L 262.691 113.043C 262.586 113.027 262.531 113.019 262.445 113.019C 262.027 113.019 261.711 113.262 261.34 113.855L 261.34 113.133L 260.742 113.133z"/>
<path style="stroke:none; fill-rule:evenodd; fill:#000000" d="M 265.023 117.117L 266.559 113.117L 265.84 113.117L 264.707 116.355L 263.637 113.117L 262.918 113.117L 264.324 117.117L 265.023 117.117z"/>
<path style="stroke:none; fill-rule:evenodd; fill:#000000" d="M 250.941 110.32L 253.844 101.922L 252.711 101.922L 250.395 109.035L 247.941 101.922L 246.797 101.922L 249.801 110.32L 250.941 110.32z"/>
<path style="stroke:none; fill-rule:evenodd; fill:#000000" d="M 254.258 111.617L 254.719 111.617C 255.656 111.617 256.137 112.039 256.137 112.851C 256.137 113.703 255.609 114.211 254.727 114.211C 253.805 114.211 253.352 113.746 253.297 112.742L 252.453 112.742C 252.488 113.281 252.582 113.633 252.746 113.933C 253.086 114.578 253.75 114.91 254.668 114.91C 256.051 114.91 256.941 114.082 256.941 112.801C 256.941 111.941 256.621 111.465 255.836 111.187C 256.438 110.941 256.742 110.461 256.742 109.785C 256.742 108.621 255.977 107.922 254.695 107.922C 253.344 107.922 252.621 108.672 252.594 110.129L 253.438 110.129C 253.445 109.703 253.484 109.465 253.59 109.246C 253.781 108.859 254.203 108.621 254.734 108.621C 255.484 108.621 255.938 109.074 255.938 109.82C 255.938 110.312 255.766 110.613 255.387 110.769C 255.156 110.867 254.855 110.906 254.254 110.918L 254.258 111.617z"/>
<path style="stroke:none; fill-rule:evenodd; fill:#000000" d="M 288.902 98.4183L 287.148 102.738L 287.938 102.738L 289.324 99.3283L 290.723 102.738L 291.512 102.738L 289.734 98.4183L 288.902 98.4183z"/>
<path style="stroke:none; fill-rule:evenodd; fill:#000000" d="M 289.242 112.219L 292.145 103.82L 291.012 103.82L 288.695 110.933L 286.242 103.82L 285.098 103.82L 288.102 112.219L 289.242 112.219z"/>
<path style="stroke:none; fill-rule:evenodd; fill:#000000" d="M 292.555 113.519L 293.016 113.519C 293.953 113.519 294.434 113.941 294.434 114.754C 294.434 115.605 293.906 116.113 293.023 116.113C 292.102 116.113 291.648 115.648 291.594 114.644L 290.75 114.644C 290.785 115.183 290.879 115.535 291.043 115.836C 291.383 116.48 292.047 116.812 292.965 116.812C 294.348 116.812 295.238 115.984 295.238 114.703C 295.238 113.844 294.918 113.367 294.133 113.09C 294.734 112.844 295.039 112.363 295.039 111.687C 295.039 110.523 294.273 109.824 292.992 109.824C 291.641 109.824 290.918 110.574 290.891 112.031L 291.734 112.031C 291.742 111.605 291.781 111.367 291.887 111.148C 292.078 110.762 292.5 110.523 293.031 110.523C 293.781 110.523 294.234 110.976 294.234 111.722C 294.234 112.215 294.062 112.515 293.684 112.672C 293.453 112.769 293.152 112.808 292.551 112.82L 292.555 113.519z"/>
<path style="stroke:none; fill-rule:evenodd; fill:#000000" d="M 253.031 89.1013C 253.023 88.0903 252.383 87.5193 251.238 87.5193C 250.09 87.5193 249.344 88.1293 249.344 89.0703C 249.344 89.8633 249.742 90.2423 250.926 90.5313L 251.668 90.7153C 252.219 90.8473 252.438 91.0513 252.438 91.4183C 252.438 91.8903 251.965 92.2113 251.258 92.2113C 250.824 92.2113 250.457 92.0863 250.25 91.8713C 250.125 91.7263 250.066 91.5823 250.02 91.2223L 249.168 91.2223C 249.203 92.3633 249.855 92.9143 251.172 92.9143C 252.438 92.9143 253.242 92.2853 253.242 91.3083C 253.242 90.5553 252.824 90.1373 251.832 89.8943L 251.07 89.7113C 250.426 89.5583 250.148 89.3443 250.148 88.9843C 250.148 88.5193 250.555 88.2193 251.203 88.2193C 251.84 88.2193 252.18 88.5233 252.199 89.1013L 253.031 89.1013z"/>
<path style="stroke:none; fill-rule:evenodd; fill:#000000" d="M 254.344 92.7193L 255.141 92.7193L 255.141 85.7223L 254.344 85.7223L 254.344 92.7193z"/>
<path style="stroke:none; fill-rule:evenodd; fill:#000000" d="M 258.383 87.5193C 256.988 87.5193 256.145 88.5273 256.145 90.2193C 256.145 91.9063 256.977 92.9183 258.395 92.9183C 259.789 92.9183 260.645 91.9103 260.645 90.2583C 260.645 88.5193 259.82 87.5193 258.387 87.5193L 258.383 87.5193zM 258.395 88.2193C 259.301 88.2193 259.844 88.9723 259.844 90.2463C 259.844 91.4493 259.285 92.2153 258.395 92.2153C 257.496 92.2153 256.945 91.4613 256.945 90.2153C 256.945 88.9803 257.496 88.2153 258.395 88.2153L 258.395 88.2193z"/>
<path style="stroke:none; fill-rule:evenodd; fill:#000000" d="M 266.344 92.7193L 267.816 87.7193L 266.918 87.7193L 265.926 91.6053L 264.941 87.7193L 263.969 87.7193L 263.016 91.6053L 261.996 87.7193L 261.117 87.7193L 262.57 92.7193L 263.469 92.7193L 264.434 88.7893L 265.445 92.7193L 266.344 92.7193z"/>
<path style="stroke:none; fill-rule:evenodd; fill:#000000" d="M 283.844 87.7193L 282.945 87.7193L 282.945 86.9293C 282.945 86.5943 283.148 86.4223 283.543 86.4223C 283.613 86.4223 283.645 86.4223 283.84 86.4223L 283.84 85.7693C 283.652 85.7343 283.543 85.7223 283.371 85.7223C 282.602 85.7223 282.145 86.1443 282.145 86.8673L 282.145 87.7193L 281.547 87.7193L 281.547 88.4183L 282.145 88.4183L 282.145 92.7153L 282.941 92.7153L 282.941 88.4183L 283.84 88.4183L 283.844 87.7193z"/>
<path style="stroke:none; fill-rule:evenodd; fill:#000000" d="M 289.16 92.2503C 289.074 92.2223 289.035 92.2223 288.984 92.2223C 288.703 92.2223 288.547 92.0823 288.547 91.8323L 288.547 88.8903C 288.547 88.0043 287.902 87.5273 286.672 87.5273C 285.949 87.5273 285.352 87.7423 285.016 88.1253C 284.789 88.3873 284.695 88.6833 284.676 89.1913L 285.473 89.1913C 285.539 88.5273 285.898 88.2223 286.641 88.2223C 287.352 88.2223 287.75 88.4923 287.75 88.9763L 287.75 89.1873C 287.75 89.5233 287.551 89.6683 286.926 89.7463C 285.805 89.8903 285.633 89.9293 285.328 90.0553C 284.75 90.2933 284.453 90.7503 284.453 91.4103C 284.453 92.3283 285.082 92.9103 286.098 92.9103C 286.727 92.9103 287.234 92.6993 287.801 92.1953C 287.855 92.6873 288.105 92.9103 288.621 92.9103C 288.781 92.9103 288.906 92.8943 289.164 92.8283L 289.16 92.2503zM 287.742 91.1333C 287.742 91.3943 287.668 91.5583 287.426 91.7733C 287.102 92.0663 286.707 92.2153 286.234 92.2153C 285.609 92.2153 285.246 91.9223 285.246 91.4223C 285.246 90.9023 285.602 90.6373 286.457 90.5153C 287.301 90.4023 287.473 90.3673 287.742 90.2423L 287.742 91.1333z"/>
<path style="stroke:none; fill-rule:evenodd; fill:#000000" d="M 293.531 89.1013C 293.523 88.0903 292.883 87.5193 291.738 87.5193C 290.59 87.5193 289.844 88.1293 289.844 89.0703C 289.844 89.8633 290.242 90.2423 291.426 90.5313L 292.168 90.7153C 292.719 90.8473 292.938 91.0513 292.938 91.4183C 292.938 91.8903 292.465 92.2113 291.758 92.2113C 291.324 92.2113 290.957 92.0863 290.75 91.8713C 290.625 91.7263 290.566 91.5823 290.52 91.2223L 289.668 91.2223C 289.703 92.3633 290.355 92.9143 291.672 92.9143C 292.938 92.9143 293.742 92.2853 293.742 91.3083C 293.742 90.5553 293.324 90.1373 292.332 89.8943L 291.57 89.7113C 290.926 89.5583 290.648 89.3443 290.648 88.9843C 290.648 88.5193 291.055 88.2193 291.703 88.2193C 292.34 88.2193 292.68 88.5233 292.699 89.1013L 293.531 89.1013z"/>
<path style="stroke:none; fill-rule:evenodd; fill:#000000" d="M 296.543 87.7193L 295.746 87.7193L 295.746 86.3283L 294.949 86.3283L 294.949 87.7193L 294.25 87.7193L 294.25 88.4183L 294.949 88.4183L 294.949 92.1373C 294.949 92.6333 295.289 92.9143 295.902 92.9143C 296.09 92.9143 296.281 92.8983 296.543 92.8513L 296.543 92.2033C 296.441 92.2153 296.32 92.2193 296.172 92.2193C 295.84 92.2193 295.746 92.1253 295.746 91.7813L 295.746 88.4223L 296.543 88.4223L 296.543 87.7193z"/>
<path style="stroke:none; fill-rule:evenodd; fill:#000000" d="M 312.645 87.6643L 312.645 92.7153L 313.441 92.7153L 313.441 90.0623C 313.441 89.3323 313.617 88.8553 313.992 88.5703C 314.234 88.3873 314.469 88.3283 315.008 88.3163L 315.008 87.5473C 314.875 87.5313 314.809 87.5233 314.703 87.5233C 314.191 87.5233 313.797 87.8323 313.34 88.5823L 313.34 87.6683L 312.645 87.6643z"/>
<path style="stroke:none; fill-rule:evenodd; fill:#000000" d="M 320.043 90.5193C 320.043 89.7343 319.988 89.2623 319.844 88.8793C 319.523 88.0353 318.762 87.5233 317.828 87.5233C 316.441 87.5233 315.547 88.5973 315.547 90.2503C 315.547 91.8983 316.41 92.9183 317.812 92.9183C 318.953 92.9183 319.746 92.2773 319.945 91.1993L 319.141 91.1993C 318.922 91.8673 318.469 92.2193 317.828 92.2193C 317.32 92.2193 316.891 91.9923 316.617 91.5783C 316.426 91.2973 316.359 91.0153 316.352 90.5233L 320.043 90.5193zM 316.375 89.8323C 316.441 88.9063 317.004 88.3053 317.809 88.3053C 318.59 88.3053 319.195 88.9533 319.195 89.7773C 319.195 89.7933 319.195 89.8123 319.188 89.8323L 316.375 89.8323z"/>
<path style="stroke:none; fill-rule:evenodd; fill:#000000" d="M 325.742 92.7193L 327.215 87.7193L 326.316 87.7193L 325.324 91.6053L 324.34 87.7193L 323.367 87.7193L 322.414 91.6053L 321.395 87.7193L 320.516 87.7193L 321.969 92.7193L 322.867 92.7193L 323.832 88.7893L 324.844 92.7193L 325.742 92.7193z"/>
<path style="stroke:#000000; stroke-width:1.9133; fill:none" d="M 430.113 82.9883C 430.113 82.9883 430.113 82.9883 428.52 80.4373C 426.926 77.8873 423.738 72.7853 418.637 70.2343C 413.535 67.6833 406.52 67.6833 401.418 70.2343C 396.316 72.7853 393.129 77.8873 391.535 80.4373C 389.941 82.9883 389.941 82.9883 389.941 82.9883"/>
<path style="stroke:#000000; stroke-width:1.9133; fill:none" d="M 395.613 77.5123L 389.938 82.9843L 392.371 75.4803"/>
<path style="stroke:none; fill-rule:evenodd; fill:#ffffff" d="M 405.238 75.3243L 414.805 75.3243L 414.805 61.9333L 405.238 61.9333L 405.238 75.3243z"/>
<path style="stroke:#ffffff; stroke-width:0.0; fill:none" d="M 405.238 75.3243L 414.805 75.3243L 414.805 61.9333L 405.238 61.9333L 405.238 75.3243z"/>
<path style="stroke:none; fill-rule:evenodd; fill:#000000" d="M 410.57 65.4883C 409.891 65.7033 409.5 65.8753 409.105 66.1443C 408.242 66.7463 407.746 67.6873 407.746 68.6913C 407.746 70.2853 408.996 71.6133 410.508 71.6133C 412.148 71.6133 413.543 70.1053 413.543 68.3443C 413.543 67.4923 413.254 66.6603 412.711 66.0083C 412.25 65.4493 412.039 65.2893 410.852 64.5663C 409.625 63.8083 409.148 63.3403 409.148 62.9103C 409.148 62.4723 409.574 62.1253 410.094 62.1253C 410.57 62.1253 410.863 62.2653 411.359 62.7543C 411.902 63.2933 412.09 63.4103 412.422 63.4103C 412.781 63.4103 413.047 63.1603 413.047 62.8403C 413.047 62.1213 411.879 61.5233 410.469 61.5233C 409.207 61.5233 408.441 62.0313 408.441 62.8473C 408.441 63.3283 408.656 63.7193 409.246 64.2693L 410.57 65.4883zM 410.938 65.8203C 411.82 66.6723 412.242 67.6213 412.242 68.7853C 412.242 70.1093 411.625 71.0153 410.699 71.0153C 409.777 71.0153 409.145 69.9613 409.145 68.4063C 409.145 66.9453 409.738 66.0783 410.938 65.8203z"/>
<path style="stroke:#000000; stroke-width:1.9133; fill:none" d="M 347.844 178.652L 441.594 178.652L 441.594 149.953L 347.844 149.953L 347.844 178.652z"/>
<path style="stroke:#00ff00; stroke-dasharray:6,3; stroke-width:2.8699499999999998; fill:none" d="M 370.801 140.387L 389.934 107.863"/>
<path style="stroke:none; fill-rule:evenodd; fill:#000000" d="M 421.344 106.191L 421.344 112.215L 422.344 112.215L 422.344 109.082C 422.344 108.219 422.555 107.656 423.004 107.32C 423.293 107.101 423.574 107.035 424.227 107.023L 424.227 106.058C 424.07 106.039 423.992 106.027 423.867 106.027C 423.258 106.027 422.793 106.394 422.246 107.289L 422.246 106.199L 421.344 106.191z"/>
<path style="stroke:none; fill-rule:evenodd; fill:#000000" d="M 355.805 96.5193L 354.051 100.84L 354.84 100.84L 356.227 97.4293L 357.625 100.84L 358.414 100.84L 356.637 96.5193L 355.805 96.5193z"/>
<path style="stroke:none; fill-rule:evenodd; fill:#000000" d="M 394.105 98.4183L 392.352 102.738L 393.141 102.738L 394.527 99.3283L 395.926 102.738L 396.715 102.738L 394.938 98.4183L 394.105 98.4183z"/>
<path style="stroke:#00ff00; stroke-dasharray:6,3; stroke-width:2.8699499999999998; fill:none" d="M 399.5 140.387L 418.633 107.863"/>
<path style="stroke:#000000; stroke-width:1.9133; fill:none" d="M 395.668 149.945L 395.668 123.16"/>
<path style="stroke:#000000; stroke-width:1.9133; fill:none" d="M 393.758 130.812L 395.668 123.16L 397.578 130.812"/>
<path style="stroke:none; fill-rule:evenodd; fill:#5f5f5f" d="M 395.707 146.098L 399.531 146.098L 399.531 134.617L 395.707 134.617L 395.707 146.098z"/>
<path style="stroke:#000000; stroke-width:0.95664899999999997; fill:none" d="M 395.707 146.098L 399.531 146.098L 399.531 134.617L 395.707 134.617L 395.707 146.098z"/>
<path style="stroke:none; fill-rule:evenodd; fill:#000000" d="M 358.234 89.1013C 358.227 88.0903 357.586 87.5193 356.441 87.5193C 355.293 87.5193 354.547 88.1293 354.547 89.0703C 354.547 89.8633 354.945 90.2423 356.129 90.5313L 356.871 90.7153C 357.422 90.8473 357.641 91.0513 357.641 91.4183C 357.641 91.8903 357.168 92.2113 356.461 92.2113C 356.027 92.2113 355.66 92.0863 355.453 91.8713C 355.328 91.7263 355.27 91.5823 355.223 91.2223L 354.371 91.2223C 354.406 92.3633 355.059 92.9143 356.375 92.9143C 357.641 92.9143 358.445 92.2853 358.445 91.3083C 358.445 90.5553 358.027 90.1373 357.035 89.8943L 356.273 89.7113C 355.629 89.5583 355.352 89.3443 355.352 88.9843C 355.352 88.5193 355.758 88.2193 356.406 88.2193C 357.043 88.2193 357.383 88.5233 357.402 89.1013L 358.234 89.1013z"/>
<path style="stroke:none; fill-rule:evenodd; fill:#000000" d="M 359.543 92.7193L 360.34 92.7193L 360.34 85.7223L 359.543 85.7223L 359.543 92.7193z"/>
<path style="stroke:none; fill-rule:evenodd; fill:#000000" d="M 363.582 87.5193C 362.188 87.5193 361.344 88.5273 361.344 90.2193C 361.344 91.9063 362.176 92.9183 363.594 92.9183C 364.988 92.9183 365.844 91.9103 365.844 90.2583C 365.844 88.5193 365.02 87.5193 363.586 87.5193L 363.582 87.5193zM 363.594 88.2193C 364.5 88.2193 365.043 88.9723 365.043 90.2463C 365.043 91.4493 364.484 92.2153 363.594 92.2153C 362.695 92.2153 362.145 91.4613 362.145 90.2153C 362.145 88.9803 362.695 88.2153 363.594 88.2153L 363.594 88.2193z"/>
<path style="stroke:none; fill-rule:evenodd; fill:#000000" d="M 371.543 92.7193L 373.016 87.7193L 372.117 87.7193L 371.125 91.6053L 370.141 87.7193L 369.168 87.7193L 368.215 91.6053L 367.195 87.7193L 366.316 87.7193L 367.77 92.7193L 368.668 92.7193L 369.633 88.7893L 370.645 92.7193L 371.543 92.7193z"/>
<path style="stroke:none; fill-rule:evenodd; fill:#000000" d="M 389.043 87.7193L 388.145 87.7193L 388.145 86.9293C 388.145 86.5943 388.348 86.4223 388.742 86.4223C 388.812 86.4223 388.844 86.4223 389.039 86.4223L 389.039 85.7693C 388.852 85.7343 388.742 85.7223 388.57 85.7223C 387.801 85.7223 387.344 86.1443 387.344 86.8673L 387.344 87.7193L 386.746 87.7193L 386.746 88.4183L 387.344 88.4183L 387.344 92.7153L 388.141 92.7153L 388.141 88.4183L 389.039 88.4183L 389.043 87.7193z"/>
<path style="stroke:none; fill-rule:evenodd; fill:#000000" d="M 394.359 92.2503C 394.273 92.2223 394.234 92.2223 394.184 92.2223C 393.902 92.2223 393.746 92.0823 393.746 91.8323L 393.746 88.8903C 393.746 88.0043 393.102 87.5273 391.871 87.5273C 391.148 87.5273 390.551 87.7423 390.215 88.1253C 389.988 88.3873 389.895 88.6833 389.875 89.1913L 390.672 89.1913C 390.738 88.5273 391.098 88.2223 391.84 88.2223C 392.551 88.2223 392.949 88.4923 392.949 88.9763L 392.949 89.1873C 392.949 89.5233 392.75 89.6683 392.125 89.7463C 391.004 89.8903 390.832 89.9293 390.527 90.0553C 389.949 90.2933 389.652 90.7503 389.652 91.4103C 389.652 92.3283 390.281 92.9103 391.297 92.9103C 391.926 92.9103 392.434 92.6993 393 92.1953C 393.055 92.6873 393.305 92.9103 393.82 92.9103C 393.98 92.9103 394.105 92.8943 394.363 92.8283L 394.359 92.2503zM 392.941 91.1333C 392.941 91.3943 392.867 91.5583 392.625 91.7733C 392.301 92.0663 391.906 92.2153 391.434 92.2153C 390.809 92.2153 390.445 91.9223 390.445 91.4223C 390.445 90.9023 390.801 90.6373 391.656 90.5153C 392.5 90.4023 392.672 90.3673 392.941 90.2423L 392.941 91.1333z"/>
<path style="stroke:none; fill-rule:evenodd; fill:#000000" d="M 398.734 89.1013C 398.727 88.0903 398.086 87.5193 396.941 87.5193C 395.793 87.5193 395.047 88.1293 395.047 89.0703C 395.047 89.8633 395.445 90.2423 396.629 90.5313L 397.371 90.7153C 397.922 90.8473 398.141 91.0513 398.141 91.4183C 398.141 91.8903 397.668 92.2113 396.961 92.2113C 396.527 92.2113 396.16 92.0863 395.953 91.8713C 395.828 91.7263 395.77 91.5823 395.723 91.2223L 394.871 91.2223C 394.906 92.3633 395.559 92.9143 396.875 92.9143C 398.141 92.9143 398.945 92.2853 398.945 91.3083C 398.945 90.5553 398.527 90.1373 397.535 89.8943L 396.773 89.7113C 396.129 89.5583 395.852 89.3443 395.852 88.9843C 395.852 88.5193 396.258 88.2193 396.906 88.2193C 397.543 88.2193 397.883 88.5233 397.902 89.1013L 398.734 89.1013z"/>
<path style="stroke:none; fill-rule:evenodd; fill:#000000" d="M 401.742 87.7193L 400.945 87.7193L 400.945 86.3283L 400.148 86.3283L 400.148 87.7193L 399.449 87.7193L 399.449 88.4183L 400.148 88.4183L 400.148 92.1373C 400.148 92.6333 400.488 92.9143 401.102 92.9143C 401.289 92.9143 401.48 92.8983 401.742 92.8513L 401.742 92.2033C 401.641 92.2153 401.52 92.2193 401.371 92.2193C 401.039 92.2193 400.945 92.1253 400.945 91.7813L 400.945 88.4223L 401.742 88.4223L 401.742 87.7193z"/>
<path style="stroke:none; fill-rule:evenodd; fill:#000000" d="M 417.941 87.6643L 417.941 92.7153L 418.738 92.7153L 418.738 90.0623C 418.738 89.3323 418.914 88.8553 419.289 88.5703C 419.531 88.3873 419.766 88.3283 420.305 88.3163L 420.305 87.5473C 420.172 87.5313 420.105 87.5233 420 87.5233C 419.488 87.5233 419.094 87.8323 418.637 88.5823L 418.637 87.6683L 417.941 87.6643z"/>
<path style="stroke:none; fill-rule:evenodd; fill:#000000" d="M 425.242 90.5193C 425.242 89.7343 425.188 89.2623 425.043 88.8793C 424.723 88.0353 423.961 87.5233 423.027 87.5233C 421.641 87.5233 420.746 88.5973 420.746 90.2503C 420.746 91.8983 421.609 92.9183 423.012 92.9183C 424.152 92.9183 424.945 92.2773 425.145 91.1993L 424.34 91.1993C 424.121 91.8673 423.668 92.2193 423.027 92.2193C 422.52 92.2193 422.09 91.9923 421.816 91.5783C 421.625 91.2973 421.559 91.0153 421.551 90.5233L 425.242 90.5193zM 421.578 89.8323C 421.645 88.9063 422.207 88.3053 423.012 88.3053C 423.793 88.3053 424.398 88.9533 424.398 89.7773C 424.398 89.7933 424.398 89.8123 424.391 89.8323L 421.578 89.8323z"/>
<path style="stroke:none; fill-rule:evenodd; fill:#000000" d="M 431.043 92.7193L 432.516 87.7193L 431.617 87.7193L 430.625 91.6053L 429.641 87.7193L 428.668 87.7193L 427.715 91.6053L 426.695 87.7193L 425.816 87.7193L 427.27 92.7193L 428.168 92.7193L 429.133 88.7893L 430.145 92.7193L 431.043 92.7193z"/>
<path style="stroke:none; fill-rule:evenodd; fill:#000000" d="M 358.441 159.906C 358.434 158.27 357.312 157.32 355.398 157.32C 353.574 157.32 352.445 158.27 352.445 159.797C 352.445 160.824 352.977 161.477 354.066 161.766L 356.121 162.32C 357.164 162.598 357.641 163.023 357.641 163.684C 357.641 164.133 357.402 164.598 357.055 164.852C 356.727 165.082 356.207 165.207 355.539 165.207C 354.645 165.207 354.035 164.981 353.641 164.481C 353.336 164.102 353.199 163.684 353.25 163.145L 352.25 163.145C 352.258 163.922 352.406 164.434 352.734 164.898C 353.301 165.688 354.254 166.106 355.512 166.106C 356.496 166.106 357.301 165.879 357.836 165.461C 358.391 165.016 358.742 164.266 358.742 163.539C 358.742 162.504 358.109 161.746 356.984 161.434L 354.91 160.871C 353.914 160.598 353.551 160.273 353.551 159.629C 353.551 158.777 354.285 158.211 355.391 158.211C 356.699 158.211 357.434 158.813 357.445 159.898L 358.441 159.906z"/>
<path style="stroke:none; fill-rule:evenodd; fill:#000000" d="M 362.441 168.52L 362.441 170.219L 363.238 170.219L 363.238 168.52L 364.312 168.52L 364.312 167.82L 363.238 167.82L 363.238 163.422L 362.629 163.422L 359.609 167.641L 359.609 168.52L 362.441 168.52zM 362.441 167.82L 360.348 167.82L 362.441 164.875L 362.441 167.82z"/>
<path style="stroke:none; fill-rule:evenodd; fill:#000000" d="M 394.645 194.418L 394.645 196.418L 395.645 196.418L 395.645 194.418L 396.812 194.418L 396.812 193.52L 395.645 193.52L 395.645 188.32L 394.895 188.32L 391.172 193.367L 391.172 194.418L 394.645 194.418zM 394.645 193.52L 392.051 193.52L 394.645 190.004L 394.645 193.52z"/>
<path style="stroke:none; fill-rule:evenodd; fill:#000000" d="M 361.645 118.789L 362.344 118.789L 362.344 116.722C 362.672 117.137 363.043 117.32 363.555 117.32C 364.57 117.32 365.238 116.488 365.238 115.211C 365.238 113.867 364.582 113.023 363.52 113.023C 362.977 113.023 362.543 113.265 362.242 113.738L 362.242 113.137L 361.645 113.137L 361.645 118.789zM 363.418 113.617C 364.094 113.617 364.539 114.234 364.539 115.187C 364.539 116.094 364.09 116.711 363.418 116.711C 362.77 116.711 362.344 116.101 362.344 115.164C 362.344 114.226 362.77 113.617 363.418 113.617z"/>
<path style="stroke:none; fill-rule:evenodd; fill:#000000" d="M 365.941 113.133L 365.941 117.117L 366.641 117.117L 366.641 115.066C 366.641 114.504 366.781 114.133 367.078 113.914C 367.27 113.773 367.457 113.726 367.891 113.719L 367.891 113.043C 367.785 113.027 367.73 113.019 367.645 113.019C 367.227 113.019 366.91 113.262 366.539 113.855L 366.539 113.133L 365.941 113.133z"/>
<path style="stroke:none; fill-rule:evenodd; fill:#000000" d="M 370.223 117.117L 371.758 113.117L 371.039 113.117L 369.906 116.355L 368.836 113.117L 368.117 113.117L 369.523 117.117L 370.223 117.117z"/>
<path style="stroke:none; fill-rule:evenodd; fill:#000000" d="M 360.543 113.019L 360.543 114.719L 361.34 114.719L 361.34 113.019L 362.414 113.019L 362.414 112.32L 361.34 112.32L 361.34 107.922L 360.73 107.922L 357.711 112.14L 357.711 113.019L 360.543 113.019zM 360.543 112.32L 358.449 112.32L 360.543 109.375L 360.543 112.32z"/>
<path style="stroke:none; fill-rule:evenodd; fill:#000000" d="M 394.441 112.219L 397.344 103.82L 396.211 103.82L 393.895 110.933L 391.441 103.82L 390.297 103.82L 393.301 112.219L 394.441 112.219z"/>
<path style="stroke:none; fill-rule:evenodd; fill:#000000" d="M 398.742 114.918L 398.742 116.617L 399.539 116.617L 399.539 114.918L 400.613 114.918L 400.613 114.219L 399.539 114.219L 399.539 109.82L 398.93 109.82L 395.91 114.039L 395.91 114.918L 398.742 114.918zM 398.742 114.219L 396.648 114.219L 398.742 111.273L 398.742 114.219z"/>
<path style="stroke:none; fill-rule:evenodd; fill:#000000" d="M 427.441 114.918L 427.441 116.617L 428.238 116.617L 428.238 114.918L 429.312 114.918L 429.312 114.219L 428.238 114.219L 428.238 109.82L 427.629 109.82L 424.609 114.039L 424.609 114.918L 427.441 114.918zM 427.441 114.219L 425.348 114.219L 427.441 111.273L 427.441 114.219z"/>
<path style="stroke:#000000; stroke-width:1.9133; fill:none" d="M 288.523 149.945L 288.523 123.16"/>
<path style="stroke:#000000; stroke-width:1.9133; fill:none" d="M 286.613 130.812L 288.523 123.16L 290.434 130.812"/>
<path style="stroke:none; fill-rule:evenodd; fill:#5f5f5f" d="M 288.562 146.098L 292.387 146.098L 292.387 134.617L 288.562 134.617L 288.562 146.098z"/>
<path style="stroke:#000000; stroke-width:0.95664899999999997; fill:none" d="M 288.562 146.098L 292.387 146.098L 292.387 134.617L 288.562 134.617L 288.562 146.098z"/>
<path style="stroke:#00ff00; stroke-dasharray:6,3; stroke-width:1.9133; fill:none" d="M 296.184 134.648L 296.184 146.125"/>
<path style="stroke:#00ff00; stroke-dasharray:6,3; stroke-width:1.9133; fill:none" d="M 298.098 138.472L 296.188 146.125L 294.277 138.472"/>
<path style="stroke:#000000; stroke-width:1.9133; fill:none" d="M 294.27 82.9883C 294.27 82.9883 294.27 82.9883 292.676 80.4373C 291.082 77.8873 287.895 72.7853 282.793 70.2343C 277.691 67.6833 270.676 67.6833 265.574 70.2343C 260.473 72.7853 257.285 77.8873 255.691 80.4373C 254.098 82.9883 254.098 82.9883 254.098 82.9883"/>
<path style="stroke:#000000; stroke-width:1.9133; fill:none" d="M 259.77 77.5123L 254.094 82.9843L 256.527 75.4803"/>
<path style="stroke:none; fill-rule:evenodd; fill:#ffffff" d="M 269.395 75.3243L 278.961 75.3243L 278.961 61.9333L 269.395 61.9333L 269.395 75.3243z"/>
<path style="stroke:#ffffff; stroke-width:0.0; fill:none" d="M 269.395 75.3243L 278.961 75.3243L 278.961 61.9333L 269.395 61.9333L 269.395 75.3243z"/>
<path style="stroke:none; fill-rule:evenodd; fill:#000000" d="M 274.773 65.4883C 274.094 65.7033 273.703 65.8753 273.309 66.1443C 272.445 66.7463 271.949 67.6873 271.949 68.6913C 271.949 70.2853 273.199 71.6133 274.711 71.6133C 276.352 71.6133 277.746 70.1053 277.746 68.3443C 277.746 67.4923 277.457 66.6603 276.914 66.0083C 276.453 65.4493 276.242 65.2893 275.055 64.5663C 273.828 63.8083 273.352 63.3403 273.352 62.9103C 273.352 62.4723 273.777 62.1253 274.297 62.1253C 274.773 62.1253 275.066 62.2653 275.562 62.7543C 276.105 63.2933 276.293 63.4103 276.625 63.4103C 276.984 63.4103 277.25 63.1603 277.25 62.8403C 277.25 62.1213 276.082 61.5233 274.672 61.5233C 273.41 61.5233 272.645 62.0313 272.645 62.8473C 272.645 63.3283 272.859 63.7193 273.449 64.2693L 274.773 65.4883zM 275.137 65.8203C 276.02 66.6723 276.441 67.6213 276.441 68.7853C 276.441 70.1093 275.824 71.0153 274.898 71.0153C 273.977 71.0153 273.344 69.9613 273.344 68.4063C 273.344 66.9453 273.938 66.0783 275.137 65.8203z"/>
<path style="stroke:none; fill-rule:evenodd; fill:#000000" d="M 70.9414 170.918L 70.1445 170.918L 70.1445 169.527L 69.3476 169.527L 69.3476 170.918L 68.6484 170.918L 68.6484 171.617L 69.3476 171.617L 69.3476 175.336C 69.3476 175.832 69.6875 176.113 70.3007 176.113C 70.4883 176.113 70.6797 176.098 70.9414 176.051L 70.9414 175.402C 70.8398 175.414 70.7187 175.418 70.5703 175.418C 70.2383 175.418 70.1445 175.324 70.1445 174.981L 70.1445 171.621L 70.9414 171.621L 70.9414 170.918z"/>
<path style="stroke:none; fill-rule:evenodd; fill:#000000" d="M 73.7812 170.719C 72.3867 170.719 71.5429 171.727 71.5429 173.418C 71.5429 175.106 72.375 176.117 73.7929 176.117C 75.1875 176.117 76.0429 175.109 76.0429 173.457C 76.0429 171.719 75.2187 170.719 73.7851 170.719L 73.7812 170.719zM 73.7929 171.418C 74.6992 171.418 75.2422 172.172 75.2422 173.445C 75.2422 174.648 74.6836 175.414 73.7929 175.414C 72.8945 175.414 72.3437 174.66 72.3437 173.414C 72.3437 172.18 72.8945 171.414 73.7929 171.414L 73.7929 171.418z"/>
<path style="stroke:none; fill-rule:evenodd; fill:#000000" d="M 77.1445 170.863L 77.1445 175.914L 77.9414 175.914L 77.9414 173.125C 77.9414 172.094 78.4765 171.418 79.3007 171.418C 79.9336 171.418 80.3359 171.805 80.3359 172.41L 80.3359 175.914L 81.1328 175.914L 81.1328 172.098C 81.1328 171.262 80.5039 170.719 79.5234 170.719C 78.7695 170.719 78.2812 171.008 77.8359 171.711L 77.8359 170.863L 77.1445 170.863z"/>
<path style="stroke:none; fill-rule:evenodd; fill:#000000" d="M 86.7422 173.719C 86.7422 172.934 86.6875 172.461 86.5429 172.078C 86.2226 171.234 85.4609 170.723 84.5273 170.723C 83.1406 170.723 82.2461 171.797 82.2461 173.449C 82.2461 175.098 83.1093 176.117 84.5117 176.117C 85.6523 176.117 86.4453 175.477 86.6445 174.398L 85.8398 174.398C 85.6211 175.066 85.1679 175.418 84.5273 175.418C 84.0195 175.418 83.5898 175.191 83.3164 174.777C 83.125 174.496 83.0586 174.215 83.0507 173.723L 86.7422 173.719zM 83.0781 173.031C 83.1445 172.106 83.707 171.504 84.5117 171.504C 85.2929 171.504 85.8984 172.152 85.8984 172.977C 85.8984 172.992 85.8984 173.012 85.8906 173.031L 83.0781 173.031z"/>
<path style="stroke:none; fill-rule:evenodd; fill:#7e7e7e" d="M 66.5859 167.176L 91.4565 167.176L 91.4565 165.266L 66.5859 165.266L 66.5859 167.176z"/>
<path style="stroke:#000000; stroke-width:1.9133; fill:none" d="M 66.5859 167.176L 91.4565 167.176L 91.4565 165.266L 66.5859 165.266L 66.5859 167.176z"/>
<path style="stroke:none; fill-rule:evenodd; fill:#000000" d="M 176.145 170.918L 175.348 170.918L 175.348 169.527L 174.551 169.527L 174.551 170.918L 173.852 170.918L 173.852 171.617L 174.551 171.617L 174.551 175.336C 174.551 175.832 174.891 176.113 175.503 176.113C 175.691 176.113 175.883 176.098 176.145 176.051L 176.145 175.402C 176.042 175.414 175.921 175.418 175.773 175.418C 175.441 175.418 175.348 175.324 175.348 174.981L 175.348 171.621L 176.145 171.621L 176.145 170.918z"/>
<path style="stroke:none; fill-rule:evenodd; fill:#000000" d="M 178.984 170.719C 177.59 170.719 176.747 171.727 176.747 173.418C 176.747 175.106 177.579 176.117 178.997 176.117C 180.391 176.117 181.247 175.109 181.247 173.457C 181.247 171.719 180.421 170.719 178.988 170.719L 178.984 170.719zM 178.993 171.418C 179.898 171.418 180.441 172.172 180.441 173.445C 180.441 174.648 179.883 175.414 178.993 175.414C 178.094 175.414 177.542 174.66 177.542 173.414C 177.542 172.18 178.094 171.414 178.993 171.414L 178.993 171.418z"/>
<path style="stroke:none; fill-rule:evenodd; fill:#000000" d="M 182.441 170.863L 182.441 175.914L 183.238 175.914L 183.238 173.125C 183.238 172.094 183.773 171.418 184.598 171.418C 185.23 171.418 185.633 171.805 185.633 172.41L 185.633 175.914L 186.43 175.914L 186.43 172.098C 186.43 171.262 185.801 170.719 184.82 170.719C 184.066 170.719 183.579 171.008 183.133 171.711L 183.133 170.863L 182.441 170.863z"/>
<path style="stroke:none; fill-rule:evenodd; fill:#000000" d="M 191.941 173.719C 191.941 172.934 191.887 172.461 191.743 172.078C 191.421 171.234 190.661 170.723 189.727 170.723C 188.34 170.723 187.445 171.797 187.445 173.449C 187.445 175.098 188.309 176.117 189.71 176.117C 190.852 176.117 191.645 175.477 191.844 174.398L 191.04 174.398C 190.82 175.066 190.368 175.418 189.727 175.418C 189.219 175.418 188.79 175.191 188.516 174.777C 188.324 174.496 188.258 174.215 188.249 173.723L 191.941 173.719zM 188.277 173.031C 188.344 172.106 188.906 171.504 189.71 171.504C 190.493 171.504 191.098 172.152 191.098 172.977C 191.098 172.992 191.098 173.012 191.09 173.031L 188.277 173.031z"/>
<path style="stroke:none; fill-rule:evenodd; fill:#000000" d="M 281.344 170.918L 280.547 170.918L 280.547 169.527L 279.75 169.527L 279.75 170.918L 279.051 170.918L 279.051 171.617L 279.75 171.617L 279.75 175.336C 279.75 175.832 280.09 176.113 280.703 176.113C 280.891 176.113 281.082 176.098 281.344 176.051L 281.344 175.402C 281.242 175.414 281.121 175.418 280.973 175.418C 280.641 175.418 280.547 175.324 280.547 174.981L 280.547 171.621L 281.344 171.621L 281.344 170.918z"/>
<path style="stroke:none; fill-rule:evenodd; fill:#000000" d="M 284.281 170.719C 282.887 170.719 282.043 171.727 282.043 173.418C 282.043 175.106 282.875 176.117 284.293 176.117C 285.688 176.117 286.543 175.109 286.543 173.457C 286.543 171.719 285.719 170.719 284.285 170.719L 284.281 170.719zM 284.293 171.418C 285.199 171.418 285.742 172.172 285.742 173.445C 285.742 174.648 285.184 175.414 284.293 175.414C 283.395 175.414 282.844 174.66 282.844 173.414C 282.844 172.18 283.395 171.414 284.293 171.414L 284.293 171.418z"/>
<path style="stroke:none; fill-rule:evenodd; fill:#000000" d="M 287.645 170.863L 287.645 175.914L 288.441 175.914L 288.441 173.125C 288.441 172.094 288.977 171.418 289.801 171.418C 290.434 171.418 290.836 171.805 290.836 172.41L 290.836 175.914L 291.633 175.914L 291.633 172.098C 291.633 171.262 291.004 170.719 290.023 170.719C 289.27 170.719 288.781 171.008 288.336 171.711L 288.336 170.863L 287.645 170.863z"/>
<path style="stroke:none; fill-rule:evenodd; fill:#000000" d="M 297.145 173.719C 297.145 172.934 297.09 172.461 296.945 172.078C 296.625 171.234 295.863 170.723 294.93 170.723C 293.543 170.723 292.648 171.797 292.648 173.449C 292.648 175.098 293.512 176.117 294.914 176.117C 296.055 176.117 296.848 175.477 297.047 174.398L 296.242 174.398C 296.023 175.066 295.57 175.418 294.93 175.418C 294.422 175.418 293.992 175.191 293.719 174.777C 293.527 174.496 293.461 174.215 293.453 173.723L 297.145 173.719zM 293.477 173.031C 293.543 172.106 294.105 171.504 294.91 171.504C 295.691 171.504 296.297 172.152 296.297 172.977C 296.297 172.992 296.297 173.012 296.289 173.031L 293.477 173.031z"/>
<path style="stroke:none; fill-rule:evenodd; fill:#000000" d="M 386.645 170.918L 385.848 170.918L 385.848 169.527L 385.051 169.527L 385.051 170.918L 384.352 170.918L 384.352 171.617L 385.051 171.617L 385.051 175.336C 385.051 175.832 385.391 176.113 386.004 176.113C 386.191 176.113 386.383 176.098 386.645 176.051L 386.645 175.402C 386.543 175.414 386.422 175.418 386.273 175.418C 385.941 175.418 385.848 175.324 385.848 174.981L 385.848 171.621L 386.645 171.621L 386.645 170.918z"/>
<path style="stroke:none; fill-rule:evenodd; fill:#000000" d="M 389.484 170.719C 388.09 170.719 387.246 171.727 387.246 173.418C 387.246 175.106 388.078 176.117 389.496 176.117C 390.891 176.117 391.746 175.109 391.746 173.457C 391.746 171.719 390.922 170.719 389.488 170.719L 389.484 170.719zM 389.492 171.418C 390.398 171.418 390.941 172.172 390.941 173.445C 390.941 174.648 390.383 175.414 389.492 175.414C 388.594 175.414 388.043 174.66 388.043 173.414C 388.043 172.18 388.594 171.414 389.492 171.414L 389.492 171.418z"/>
<path style="stroke:none; fill-rule:evenodd; fill:#000000" d="M 392.844 170.863L 392.844 175.914L 393.641 175.914L 393.641 173.125C 393.641 172.094 394.176 171.418 395 171.418C 395.633 171.418 396.035 171.805 396.035 172.41L 396.035 175.914L 396.832 175.914L 396.832 172.098C 396.832 171.262 396.203 170.719 395.223 170.719C 394.469 170.719 393.98 171.008 393.535 171.711L 393.535 170.863L 392.844 170.863z"/>
<path style="stroke:none; fill-rule:evenodd; fill:#000000" d="M 402.344 173.719C 402.344 172.934 402.289 172.461 402.145 172.078C 401.824 171.234 401.062 170.723 400.129 170.723C 398.742 170.723 397.848 171.797 397.848 173.449C 397.848 175.098 398.711 176.117 400.113 176.117C 401.254 176.117 402.047 175.477 402.246 174.398L 401.441 174.398C 401.223 175.066 400.77 175.418 400.129 175.418C 399.621 175.418 399.191 175.191 398.918 174.777C 398.727 174.496 398.66 174.215 398.652 173.723L 402.344 173.719zM 398.676 173.031C 398.742 172.106 399.305 171.504 400.109 171.504C 400.891 171.504 401.496 172.152 401.496 172.977C 401.496 172.992 401.496 173.012 401.488 173.031L 398.676 173.031z"/>
<path style="stroke:none; fill-rule:evenodd; fill:#7e7e7e" d="M 171.82 169.086L 194.777 169.086L 194.777 151.867L 171.82 151.867L 171.82 169.086z"/>
<path style="stroke:#000000; stroke-width:1.9133; fill:none" d="M 171.82 169.086L 194.777 169.086L 194.777 151.867L 171.82 151.867L 171.82 169.086z"/>
<path style="stroke:none; fill-rule:evenodd; fill:#7e7e7e" d="M 277.051 169.086L 300.008 169.086L 300.008 151.867L 277.051 151.867L 277.051 169.086z"/>
<path style="stroke:#000000; stroke-width:1.9133; fill:none" d="M 277.051 169.086L 300.008 169.086L 300.008 151.867L 277.051 151.867L 277.051 169.086z"/>
<path style="stroke:none; fill-rule:evenodd; fill:#7e7e7e" d="M 382.281 169.086L 405.238 169.086L 405.238 151.867L 382.281 151.867L 382.281 169.086z"/>
<path style="stroke:#000000; stroke-width:1.9133; fill:none" d="M 382.281 169.086L 405.238 169.086L 405.238 151.867L 382.281 151.867L 382.281 169.086z"/>
<path style="stroke:#000000; stroke-width:1.9133; fill:none" d="M 47.4531 201.613L 409.066 201.613"/>
<path style="stroke:#000000; stroke-width:1.9133; fill:none" d="M 401.414 199.699L 409.066 201.609L 401.414 203.52"/>
<path style="stroke:none; fill-rule:evenodd; fill:#000000" d="M 229.441 206.219L 232.145 206.219L 232.145 205.32L 225.583 205.32L 225.583 206.219L 228.34 206.219L 228.34 213.719L 229.438 213.719L 229.441 206.219z"/>
<path style="stroke:none; fill-rule:evenodd; fill:#000000" d="M 234.145 207.719L 233.145 207.719L 233.145 213.719L 234.145 213.719L 234.145 207.719zM 234.145 205.32L 233.145 205.32L 233.145 206.555L 234.145 206.555L 234.145 205.32z"/>
<path style="stroke:none; fill-rule:evenodd; fill:#000000" d="M 235.743 207.691L 235.743 213.715L 236.743 213.715L 236.743 209.906C 236.743 209.027 237.368 208.32 238.137 208.32C 238.84 208.32 239.238 208.758 239.238 209.535L 239.238 213.715L 240.238 213.715L 240.238 209.906C 240.238 209.027 240.863 208.32 241.633 208.32C 242.324 208.32 242.734 208.77 242.734 209.535L 242.734 213.715L 243.734 213.715L 243.734 209.195C 243.734 208.117 243.113 207.52 241.98 207.52C 241.176 207.52 240.688 207.762 240.124 208.449C 239.77 207.801 239.286 207.52 238.499 207.52C 237.695 207.52 237.165 207.816 236.645 208.539L 236.645 207.691L 235.743 207.691z"/>
<path style="stroke:none; fill-rule:evenodd; fill:#000000" d="M 250.441 211.02C 250.441 210.102 250.375 209.551 250.203 209.106C 249.816 208.121 248.902 207.523 247.785 207.523C 246.121 207.523 245.047 208.816 245.047 210.805C 245.047 212.793 246.082 214.02 247.758 214.02C 249.121 214.02 250.066 213.227 250.309 211.895L 249.355 211.895C 249.094 212.699 248.562 213.117 247.801 213.117C 247.199 213.117 246.688 212.84 246.371 212.324C 246.145 211.977 246.066 211.625 246.055 211.02L 250.441 211.02zM 246.023 210.254C 246.102 209.141 246.781 208.418 247.742 208.418C 248.68 208.418 249.406 209.195 249.406 210.184C 249.406 210.203 249.406 210.227 249.395 210.25L 246.023 210.254z"/>
<path style="stroke:none; fill-rule:evenodd; fill:#ffffff" d="M 16.6015 59.7653L 26.1679 59.7653L 26.1679 46.3753L 16.6015 46.3753L 16.6015 59.7653z"/>
<path style="stroke:#ffffff; stroke-width:0.0; fill:none" d="M 16.6015 59.7653L 26.1679 59.7653L 26.1679 46.3753L 16.6015 46.3753L 16.6015 59.7653z"/>
<path style="stroke:none; fill-rule:evenodd; fill:#000000" d="M 21.9726 49.8903C 21.2929 50.1053 20.9023 50.2773 20.5078 50.5473C 19.6445 51.1483 19.1484 52.0903 19.1484 53.0943C 19.1484 54.6873 20.3984 56.0153 21.9101 56.0153C 23.5507 56.0153 24.9453 54.5083 24.9453 52.7463C 24.9453 51.8943 24.6562 51.0623 24.1133 50.4103C 23.6523 49.8513 23.4414 49.6913 22.2539 48.9693C 21.0273 48.2113 20.5507 47.7423 20.5507 47.3123C 20.5507 46.8753 20.9765 46.5273 21.4961 46.5273C 21.9726 46.5273 22.2656 46.6683 22.7617 47.1563C 23.3047 47.6953 23.4922 47.8123 23.8242 47.8123C 24.1836 47.8123 24.4492 47.5623 24.4492 47.2423C 24.4492 46.5233 23.2812 45.9263 21.8711 45.9263C 20.6093 45.9263 19.8437 46.4333 19.8437 47.2503C 19.8437 47.7303 20.0586 48.1213 20.6484 48.6723L 21.9726 49.8903zM 22.3359 50.2223C 23.2187 51.0743 23.6406 52.0233 23.6406 53.1873C 23.6406 54.5123 23.0234 55.4183 22.0976 55.4183C 21.1757 55.4183 20.5429 54.3633 20.5429 52.8083C 20.5429 51.3473 21.1367 50.4803 22.3359 50.2223z"/>
<path style="stroke:none; fill-rule:evenodd; fill:#000000" d="M 33.3437 53.9183L 32.5468 53.9183L 32.5468 58.9183L 33.3437 58.9183L 33.3437 53.9183zM 33.3437 51.9183L 32.5468 51.9183L 32.5468 52.9453L 33.3437 52.9453L 33.3437 51.9183z"/>
<path style="stroke:none; fill-rule:evenodd; fill:#000000" d="M 34.7422 53.8633L 34.7422 58.9143L 35.539 58.9143L 35.539 56.1253C 35.539 55.0943 36.0742 54.4183 36.8984 54.4183C 37.5312 54.4183 37.9336 54.8053 37.9336 55.4103L 37.9336 58.9143L 38.7304 58.9143L 38.7304 55.0973C 38.7304 54.2623 38.1015 53.7193 37.1211 53.7193C 36.3672 53.7193 35.8789 54.0083 35.4336 54.7113L 35.4336 53.8633L 34.7422 53.8633z"/>
<path style="stroke:none; fill-rule:evenodd; fill:#000000" d="M 40.7422 53.9183L 39.9453 53.9183L 39.9453 58.9183L 40.7422 58.9183L 40.7422 53.9183zM 40.7422 51.9183L 39.9453 51.9183L 39.9453 52.9453L 40.7422 52.9453L 40.7422 51.9183z"/>
<path style="stroke:none; fill-rule:evenodd; fill:#000000" d="M 43.8437 53.9183L 43.0468 53.9183L 43.0468 52.5273L 42.25 52.5273L 42.25 53.9183L 41.5507 53.9183L 41.5507 54.6173L 42.25 54.6173L 42.25 58.3363C 42.25 58.8323 42.5898 59.1133 43.2031 59.1133C 43.3906 59.1133 43.582 59.0973 43.8437 59.0513L 43.8437 58.4023C 43.7422 58.4143 43.6211 58.4183 43.4726 58.4183C 43.1406 58.4183 43.0468 58.3243 43.0468 57.9803L 43.0468 54.6213L 43.8437 54.6213L 43.8437 53.9183z"/>
<path style="stroke:none; fill-rule:evenodd; fill:#000000" d="M 30.5429 42.5193L 29.6445 42.5193L 29.6445 41.7303C 29.6445 41.3943 29.8476 41.2223 30.2422 41.2223C 30.3125 41.2223 30.3437 41.2223 30.539 41.2223L 30.539 40.5703C 30.3515 40.5353 30.2422 40.5233 30.0703 40.5233C 29.3007 40.5233 28.8437 40.9453 28.8437 41.6683L 28.8437 42.5193L 28.2461 42.5193L 28.2461 43.2193L 28.8437 43.2193L 28.8437 47.5153L 29.6406 47.5153L 29.6406 43.2193L 30.539 43.2193L 30.5429 42.5193z"/>
<path style="stroke:none; fill-rule:evenodd; fill:#000000" d="M 32.1445 42.5193L 31.3476 42.5193L 31.3476 47.5193L 32.1445 47.5193L 32.1445 42.5193zM 32.1445 40.5193L 31.3476 40.5193L 31.3476 41.5473L 32.1445 41.5473L 32.1445 40.5193z"/>
<path style="stroke:none; fill-rule:evenodd; fill:#000000" d="M 33.5429 42.4653L 33.5429 47.5153L 34.3398 47.5153L 34.3398 44.7263C 34.3398 43.6953 34.875 43.0193 35.6992 43.0193C 36.332 43.0193 36.7343 43.4063 36.7343 44.0123L 36.7343 47.5153L 37.5312 47.5153L 37.5312 43.6993C 37.5312 42.8633 36.9023 42.3203 35.9218 42.3203C 35.1679 42.3203 34.6797 42.6093 34.2343 43.3123L 34.2343 42.4653L 33.5429 42.4653z"/>
<path style="stroke:none; fill-rule:evenodd; fill:#000000" d="M 43.2617 47.0513C 43.1757 47.0233 43.1367 47.0233 43.0859 47.0233C 42.8047 47.0233 42.6484 46.8833 42.6484 46.6333L 42.6484 43.6913C 42.6484 42.8053 42.0039 42.3283 40.7734 42.3283C 40.0507 42.3283 39.4531 42.5433 39.1172 42.9263C 38.8906 43.1873 38.7968 43.4843 38.7773 43.9923L 39.5742 43.9923C 39.6406 43.3283 40 43.0233 40.7422 43.0233C 41.4531 43.0233 41.8515 43.2933 41.8515 43.7773L 41.8515 43.9883C 41.8515 44.3243 41.6523 44.4693 41.0273 44.5473C 39.9062 44.6913 39.7343 44.7303 39.4297 44.8553C 38.8515 45.0943 38.5547 45.5513 38.5547 46.2113C 38.5547 47.1293 39.1836 47.7113 40.1992 47.7113C 40.8281 47.7113 41.3359 47.5003 41.9023 46.9963C 41.957 47.4883 42.207 47.7113 42.7226 47.7113C 42.8828 47.7113 43.0078 47.6953 43.2656 47.6293L 43.2617 47.0513zM 41.8437 45.9293C 41.8437 46.1913 41.7695 46.3553 41.5273 46.5703C 41.2031 46.8633 40.8086 47.0123 40.3359 47.0123C 39.7109 47.0123 39.3476 46.7193 39.3476 46.2193C 39.3476 45.6993 39.7031 45.4333 40.5586 45.3123C 41.4023 45.1993 41.5742 45.1643 41.8437 45.0393L 41.8437 45.9293z"/>
<path style="stroke:none; fill-rule:evenodd; fill:#000000" d="M 44.2422 47.5193L 45.039 47.5193L 45.039 40.5233L 44.2422 40.5233L 44.2422 47.5193z"/>
<path style="stroke:#ff0000; stroke-dasharray:6,3; stroke-width:1.9133; fill:none" d="M 56.7851 55.9493L 345.691 55.9493L 391.609 17.6833L 437.527 55.9493L 449.004 55.9493"/>
<path style="stroke:#0000ff; stroke-width:1.9133; fill:none" d="M 49.1289 48.2933L 135.227 48.2933L 181.145 10.0273L 227.062 48.2933L 443.262 48.2933"/>
<path style="stroke:#000000; stroke-width:1.9133; fill:none" d="M 366.969 149.945L 366.969 123.16"/>
<path style="stroke:#000000; stroke-width:1.9133; fill:none" d="M 365.055 130.812L 366.965 123.16L 368.875 130.812"/>
<path style="stroke:none; fill-rule:evenodd; fill:#5f5f5f" d="M 367.008 146.098L 370.832 146.098L 370.832 134.617L 367.008 134.617L 367.008 146.098z"/>
<path style="stroke:#000000; stroke-width:0.95664899999999997; fill:none" d="M 367.008 146.098L 370.832 146.098L 370.832 134.617L 367.008 134.617L 367.008 146.098z"/>
<path style="stroke:#000000; stroke-width:1.9133; fill:none" d="M 261.738 149.945L 261.738 123.16"/>
<path style="stroke:#000000; stroke-width:1.9133; fill:none" d="M 259.824 130.812L 261.734 123.16L 263.645 130.812"/>
<path style="stroke:none; fill-rule:evenodd; fill:#5f5f5f" d="M 261.777 146.098L 265.602 146.098L 265.602 134.617L 261.777 134.617L 261.777 146.098z"/>
<path style="stroke:#000000; stroke-width:0.95664899999999997; fill:none" d="M 261.777 146.098L 265.602 146.098L 265.602 134.617L 261.777 134.617L 261.777 146.098z"/>
<path style="stroke:#000000; stroke-width:1.9133; fill:none" d="M 156.508 149.945L 156.508 123.16"/>
<path style="stroke:#000000; stroke-width:1.9133; fill:none" d="M 154.594 130.812L 156.503 123.16L 158.415 130.812"/>
<path style="stroke:none; fill-rule:evenodd; fill:#5f5f5f" d="M 156.542 146.098L 160.368 146.098L 160.368 134.617L 156.542 134.617L 156.542 146.098z"/>
<path style="stroke:#000000; stroke-width:0.95664899999999997; fill:none" d="M 156.542 146.098L 160.368 146.098L 160.368 134.617L 156.542 134.617L 156.542 146.098z"/>
<path style="stroke:#000000; stroke-width:1.9133; fill:none" d="M 51.2773 149.945L 51.2773 123.16"/>
<path style="stroke:#000000; stroke-width:1.9133; fill:none" d="M 49.3633 130.812L 51.2734 123.16L 53.1836 130.812"/>
<path style="stroke:none; fill-rule:evenodd; fill:#5f5f5f" d="M 51.3125 146.098L 55.1367 146.098L 55.1367 134.617L 51.3125 134.617L 51.3125 146.098z"/>
<path style="stroke:#000000; stroke-width:0.95664899999999997; fill:none" d="M 51.3125 146.098L 55.1367 146.098L 55.1367 134.617L 51.3125 134.617L 51.3125 146.098z"/>
<path style="stroke:none; fill-rule:evenodd; fill:#000000" d="M 0.7422 167.719L 1.8398 167.719L 1.8398 159.32L 0.7422 159.32L 0.7422 167.719z"/>
<path style="stroke:none; fill-rule:evenodd; fill:#000000" d="M 3.6445 161.691L 3.6445 167.715L 4.6445 167.715L 4.6445 164.367C 4.6445 163.129 5.2695 162.316 6.2343 162.316C 6.9726 162.316 7.4414 162.777 7.4414 163.508L 7.4414 167.711L 8.4414 167.711L 8.4414 163.156C 8.4414 162.156 7.6992 161.512 6.539 161.512C 5.6484 161.512 5.0742 161.856 4.5468 162.695L 4.5468 161.684L 3.6445 161.691z"/>
<path style="stroke:none; fill-rule:evenodd; fill:#000000" d="M 9.8437 170.223L 10.8437 170.223L 10.8437 167.121C 11.3437 167.742 11.9062 168.02 12.6797 168.02C 14.2226 168.02 15.2383 166.762 15.2383 164.828C 15.2383 162.797 14.2539 161.523 12.6562 161.523C 11.8437 161.523 11.1875 161.891 10.7422 162.602L 10.7422 161.695L 9.8437 161.695L 9.8437 170.223zM 12.5078 162.418C 13.5547 162.418 14.2383 163.352 14.2383 164.801C 14.2383 166.176 13.5429 167.113 12.5078 167.113C 11.5039 167.113 10.8437 166.188 10.8437 164.766C 10.8437 163.344 11.5039 162.418 12.5078 162.418z"/>
<path style="stroke:none; fill-rule:evenodd; fill:#000000" d="M 21.1445 167.754L 21.1445 161.723L 20.1445 161.723L 20.1445 165.168C 20.1445 166.406 19.5 167.219 18.4922 167.219C 17.7304 167.219 17.2461 166.758 17.2461 166.027L 17.2461 161.723L 16.2461 161.723L 16.2461 166.375C 16.2461 167.375 17.0039 168.02 18.1953 168.02C 19.0937 168.02 19.6679 167.711 20.2422 166.918L 20.2422 167.758L 21.1445 167.754z"/>
<path style="stroke:none; fill-rule:evenodd; fill:#000000" d="M 24.8437 161.719L 23.9453 161.719L 23.9453 160.051L 22.9453 160.051L 22.9453 161.719L 22.0468 161.719L 22.0468 162.516L 22.9453 162.516L 22.9453 167.063C 22.9453 167.668 23.3476 168.012 24.0781 168.012C 24.3007 168.012 24.5273 167.988 24.8398 167.93L 24.8398 167.094C 24.7265 167.184 24.5898 167.211 24.4218 167.211C 24.0468 167.211 23.9414 167.098 23.9414 166.668L 23.9414 162.516L 24.8398 162.516L 24.8437 161.719z"/>
<path style="stroke:none; fill-rule:evenodd; fill:#000000" d="M 4.1445 108.418L 7.0468 100.019L 5.914 100.019L 3.5976 107.133L 1.1445 100.019L 0 100.019L 3.0039 108.418L 4.1445 108.418z"/>
<path style="stroke:none; fill-rule:evenodd; fill:#000000" d="M 3.8047 94.5193L 2.0507 98.8403L 2.8398 98.8403L 4.2265 95.4293L 5.625 98.8403L 6.414 98.8403L 4.6367 94.5193L 3.8047 94.5193z"/>
<path style="stroke:none; fill-rule:evenodd; fill:#000000" d="M 416.043 76.6173L 416.043 78.3163L 416.84 78.3163L 416.84 76.6173L 417.914 76.6173L 417.914 75.9183L 416.84 75.9183L 416.84 71.5193L 416.23 71.5193L 413.211 75.7383L 413.211 76.6173L 416.043 76.6173zM 416.043 75.9183L 413.949 75.9183L 416.043 72.9723L 416.043 75.9183z"/>
<path style="stroke:none; fill-rule:evenodd; fill:#000000" d="M 279.156 75.2193L 279.617 75.2193C 280.555 75.2193 281.035 75.6403 281.035 76.4533C 281.035 77.3053 280.508 77.8123 279.625 77.8123C 278.703 77.8123 278.25 77.3473 278.195 76.3443L 277.352 76.3443C 277.387 76.8833 277.48 77.2343 277.645 77.5353C 277.984 78.1793 278.648 78.5123 279.566 78.5123C 280.949 78.5123 281.84 77.6833 281.84 76.4023C 281.84 75.5433 281.52 75.0663 280.734 74.7893C 281.336 74.5433 281.641 74.0623 281.641 73.3873C 281.641 72.2223 280.875 71.5233 279.594 71.5233C 278.242 71.5233 277.52 72.2733 277.492 73.7303L 278.336 73.7303C 278.344 73.3053 278.383 73.0663 278.488 72.8473C 278.68 72.4613 279.102 72.2223 279.633 72.2223C 280.383 72.2223 280.836 72.6763 280.836 73.4223C 280.836 73.9143 280.664 74.2153 280.285 74.3713C 280.055 74.4693 279.754 74.5083 279.152 74.5193L 279.156 75.2193z"/>
<path style="stroke:none; fill-rule:evenodd; fill:#000000" d="M 176.695 77.5193L 173.122 77.5193C 173.206 76.9613 173.512 76.6053 174.348 76.1133L 175.305 75.5943C 176.253 75.0743 176.743 74.3713 176.743 73.5313C 176.743 72.9653 176.512 72.4333 176.109 72.0663C 175.706 71.7033 175.21 71.5273 174.566 71.5273C 173.706 71.5273 173.062 71.8363 172.688 72.4143C 172.449 72.7773 172.344 73.2033 172.324 73.8943L 173.18 73.8943C 173.206 73.4223 173.266 73.1373 173.383 72.9103C 173.605 72.4883 174.055 72.2303 174.57 72.2303C 175.348 72.2303 175.934 72.7813 175.934 73.5123C 175.934 74.0513 175.613 74.5153 174.999 74.8593L 174.105 75.3593C 172.665 76.1683 172.247 76.8123 172.167 78.3203L 176.691 78.3203L 176.695 77.5193z"/>
<path style="stroke:none; fill-rule:evenodd; fill:#000000" d="M 69.0429 73.4763L 69.0429 78.3163L 69.8398 78.3163L 69.8398 71.5193L 69.289 71.5193C 68.9961 72.5623 68.8086 72.7073 67.5195 72.8713L 67.5195 73.4723L 69.0429 73.4763z"/>
</g>
</svg>