<?xml version="1.0" encoding="UTF-8" standalone="no"?>
<!-- Created with Inkscape (http://www.inkscape.org/) -->

<svg
   xmlns:dc="http://purl.org/dc/elements/1.1/"
   xmlns:cc="http://creativecommons.org/ns#"
   xmlns:rdf="http://www.w3.org/1999/02/22-rdf-syntax-ns#"
   xmlns:svg="http://www.w3.org/2000/svg"
   xmlns="http://www.w3.org/2000/svg"
   xmlns:sodipodi="http://sodipodi.sourceforge.net/DTD/sodipodi-0.dtd"
   xmlns:inkscape="http://www.inkscape.org/namespaces/inkscape"
   id="svg2"
   version="1.1"
   inkscape:version="0.48.1 r9760"
   width="440"
   height="146.25"
   xml:space="preserve"
   sodipodi:docname="fig_gears.svg"
   inkscape:export-filename="/Users/oreilly/svn_docs/figs/fig_gears.png"
   inkscape:export-xdpi="150.24815"
   inkscape:export-ydpi="150.24815"><metadata
     id="metadata8"><rdf:RDF><cc:Work
         rdf:about=""><dc:format>image/svg+xml</dc:format><dc:type
           rdf:resource="http://purl.org/dc/dcmitype/StillImage" /><dc:title></dc:title></cc:Work></rdf:RDF></metadata><defs
     id="defs6" /><sodipodi:namedview
     pagecolor="#ffffff"
     bordercolor="#666666"
     borderopacity="1"
     objecttolerance="10"
     gridtolerance="10"
     guidetolerance="10"
     inkscape:pageopacity="0"
     inkscape:pageshadow="2"
     inkscape:window-width="640"
     inkscape:window-height="480"
     id="namedview4"
     showgrid="false"
     inkscape:zoom="1.1667262"
     inkscape:cx="220.93124"
     inkscape:cy="80.569531"
     inkscape:current-layer="g10" /><g
     id="g10"
     inkscape:groupmode="layer"
     inkscape:label="fig_gears"
     transform="matrix(1.25,0,0,-1.25,0,146.25)"><rect
       style="fill:#ffffff;fill-opacity:1;fill-rule:nonzero;stroke:#ffffff;stroke-width:1.21187901;stroke-miterlimit:4;stroke-opacity:1;stroke-dasharray:none;stroke-dashoffset:0"
       id="rect3133"
       width="354.36795"
       height="121.96282"
       x="-3.3001633"
       y="-120.59146"
       transform="scale(1,-1)" /><g
       id="g14"><text
         id="text16"
         transform="matrix(1,0,0,-1,2.69805,105.03)"><tspan
           id="tspan18"
           sodipodi:role="line"
           y="0"
           x="0 6.3827686"
           style="font-size:11.47980022px;font-variant:normal;font-weight:normal;writing-mode:lr-tb;fill:#000000;fill-opacity:1;fill-rule:nonzero;stroke:none;font-family:Helvetica;-inkscape-font-specification:Helvetica">a)</tspan></text>
</g><path
       inkscape:connector-curvature="0"
       id="path20"
       style="fill:none;stroke:#000000;stroke-width:1.91329992;stroke-linecap:butt;stroke-linejoin:miter;stroke-miterlimit:10;stroke-opacity:1;stroke-dasharray:none"
       d="m 101.233,54.8832 c 0,25.3602 -20.5592,45.9188 -45.9193,45.9188 -25.3602,0 -45.91917,-20.5586 -45.91917,-45.9188 0,-25.3602 20.55897,-45.91914 45.91917,-45.91914 25.3601,0 45.9193,20.55894 45.9193,45.91914" /><path
       inkscape:connector-curvature="0"
       id="path22"
       style="fill:none;stroke:#000000;stroke-width:1.91329992;stroke-linecap:butt;stroke-linejoin:miter;stroke-miterlimit:10;stroke-opacity:1;stroke-dasharray:none"
       d="m 33.0715,95.0625 1.6742,6.6965 6.4574,1.913 5.5008,-3.348" /><path
       inkscape:connector-curvature="0"
       id="path24"
       style="fill:none;stroke:#000000;stroke-width:1.91329992;stroke-linecap:butt;stroke-linejoin:miter;stroke-miterlimit:10;stroke-opacity:1;stroke-dasharray:none"
       d="m 55.0746,101.041 4.7832,4.066 7.6531,-1.196 1.9133,-5.261" /><path
       inkscape:connector-curvature="0"
       id="path26"
       style="fill:none;stroke:#000000;stroke-width:1.91329992;stroke-linecap:butt;stroke-linejoin:miter;stroke-miterlimit:10;stroke-opacity:1;stroke-dasharray:none"
       d="m 76.3129,95.6172 6.1234,1.3824 6.2246,-4.6105 -0.7464,-5.5489" /><path
       inkscape:connector-curvature="0"
       id="path28"
       style="fill:none;stroke:#000000;stroke-width:1.91329992;stroke-linecap:butt;stroke-linejoin:miter;stroke-miterlimit:10;stroke-opacity:1;stroke-dasharray:none"
       d="m 93.402,81.2992 6.1191,-1.4031 3.6169,-6.8496 -3.073,-4.6793" /><path
       inkscape:connector-curvature="0"
       id="path30"
       style="fill:none;stroke:#000000;stroke-width:1.91329992;stroke-linecap:butt;stroke-linejoin:miter;stroke-miterlimit:10;stroke-opacity:1;stroke-dasharray:none"
       d="m 101.12,60.0883 4.668,-4.1981 -0.165,-7.7441 -4.959,-2.5981" /><path
       inkscape:connector-curvature="0"
       id="path32"
       style="fill:none;stroke:#000000;stroke-width:1.91329992;stroke-linecap:butt;stroke-linejoin:miter;stroke-miterlimit:10;stroke-opacity:1;stroke-dasharray:none"
       d="m 99.0352,39.0215 2.0148,-5.9457 -3.934,-6.6727 -5.5965,0.1621" /><path
       inkscape:connector-curvature="0"
       id="path34"
       style="fill:none;stroke:#000000;stroke-width:1.91329992;stroke-linecap:butt;stroke-linejoin:miter;stroke-miterlimit:10;stroke-opacity:1;stroke-dasharray:none"
       d="m 87.0309,21.9457 -0.4758,-6.2598 -6.2344,-4.5972 -5.0852,2.3422" /><path
       inkscape:connector-curvature="0"
       id="path36"
       style="fill:none;stroke:#000000;stroke-width:1.91329992;stroke-linecap:butt;stroke-linejoin:miter;stroke-miterlimit:10;stroke-opacity:1;stroke-dasharray:none"
       d="M 68.366,10.3586 65.0207,5.04609 57.3609,3.89336 53.959,8.33984" /><path
       inkscape:connector-curvature="0"
       id="path38"
       style="fill:none;stroke:#000000;stroke-width:1.91329992;stroke-linecap:butt;stroke-linejoin:miter;stroke-miterlimit:10;stroke-opacity:1;stroke-dasharray:none"
       d="M 44.7754,9.56445 39.1391,6.80039 32.0152,9.8418 31.4551,15.4125" /><path
       inkscape:connector-curvature="0"
       id="path40"
       style="fill:none;stroke:#000000;stroke-width:1.91329992;stroke-linecap:butt;stroke-linejoin:miter;stroke-miterlimit:10;stroke-opacity:1;stroke-dasharray:none"
       d="m 25.2887,19.7863 -6.2766,-0.1269 -5.1742,5.7644 1.8433,5.2864" /><path
       inkscape:connector-curvature="0"
       id="path42"
       style="fill:none;stroke:#000000;stroke-width:1.91329992;stroke-linecap:butt;stroke-linejoin:miter;stroke-miterlimit:10;stroke-opacity:1;stroke-dasharray:none"
       d="m 12.3855,37.5402 -5.45152,3.1133 -1.48086,7.6031 4.29571,3.5903" /><path
       inkscape:connector-curvature="0"
       id="path44"
       style="fill:none;stroke:#000000;stroke-width:1.91329992;stroke-linecap:butt;stroke-linejoin:miter;stroke-miterlimit:10;stroke-opacity:1;stroke-dasharray:none"
       d="m 9.075,59.0219 -3.59844,5.1441 1.90938,7.507 5.41836,1.4106" /><path
       inkscape:connector-curvature="0"
       id="path46"
       style="fill:none;stroke:#000000;stroke-width:1.91329992;stroke-linecap:butt;stroke-linejoin:miter;stroke-miterlimit:10;stroke-opacity:1;stroke-dasharray:none"
       d="m 15.6906,79.2973 -0.9715,6.2023 5.0145,5.9039 5.4867,-1.1144" /><path
       inkscape:connector-curvature="0"
       id="path48"
       style="fill:none;stroke:#000000;stroke-width:1.91329992;stroke-linecap:butt;stroke-linejoin:miter;stroke-miterlimit:10;stroke-opacity:1;stroke-dasharray:none"
       d="m 58.7188,53.643 c 0,1.5847 -1.4993,2.8699 -3.3481,2.8699 -1.8492,0 -3.3484,-1.2852 -3.3484,-2.8699 0,-1.5848 1.4992,-2.87 3.3484,-2.87 1.8488,0 3.3481,1.2852 3.3481,2.87" /><path
       inkscape:connector-curvature="0"
       id="path50"
       style="fill:none;stroke:#000000;stroke-width:1.91329992;stroke-linecap:butt;stroke-linejoin:miter;stroke-miterlimit:10;stroke-opacity:1;stroke-dasharray:none"
       d="m 163.415,32.8801 c 0,8.4531 -6.853,15.3066 -15.306,15.3066 -8.454,0 -15.307,-6.8535 -15.307,-15.3066 0,-8.4531 6.853,-15.3063 15.307,-15.3063 8.453,0 15.306,6.8532 15.306,15.3063" /><path
       inkscape:connector-curvature="0"
       id="path52"
       style="fill:none;stroke:#000000;stroke-width:1.91329992;stroke-linecap:butt;stroke-linejoin:miter;stroke-miterlimit:10;stroke-opacity:1;stroke-dasharray:none"
       d="m 156.552,46.1531 6.116,-1.416 3.603,-6.857 -3.083,-4.6731" /><path
       inkscape:connector-curvature="0"
       id="path54"
       style="fill:none;stroke:#000000;stroke-width:1.91329992;stroke-linecap:butt;stroke-linejoin:miter;stroke-miterlimit:10;stroke-opacity:1;stroke-dasharray:none"
       d="m 161.851,24.9215 -0.974,-6.2016 -6.581,-4.0855 -4.882,2.7402" /><path
       inkscape:connector-curvature="0"
       id="path56"
       style="fill:none;stroke:#000000;stroke-width:1.91329992;stroke-linecap:butt;stroke-linejoin:miter;stroke-miterlimit:10;stroke-opacity:1;stroke-dasharray:none"
       d="m 140.736,19.0398 -6.241,0.6754 -4.396,6.3778 2.503,5.0078" /><path
       inkscape:connector-curvature="0"
       id="path58"
       style="fill:none;stroke:#000000;stroke-width:1.91329992;stroke-linecap:butt;stroke-linejoin:miter;stroke-miterlimit:10;stroke-opacity:1;stroke-dasharray:none"
       d="m 134.191,39.8598 0.629,6.2461 6.345,4.4429 5.026,-2.466" /><path
       inkscape:connector-curvature="0"
       id="path60"
       style="fill:none;stroke:#000000;stroke-width:1.91329992;stroke-linecap:butt;stroke-linejoin:miter;stroke-miterlimit:10;stroke-opacity:1;stroke-dasharray:none"
       d="m 151.491,32.6082 c 0,1.5848 -1.499,2.8699 -3.348,2.8699 -1.849,0 -3.348,-1.2851 -3.348,-2.8699 0,-1.5848 1.499,-2.8699 3.348,-2.8699 1.849,0 3.348,1.2851 3.348,2.8699" /><path
       inkscape:connector-curvature="0"
       id="path62"
       style="fill:none;stroke:#000000;stroke-width:1.91329992;stroke-linecap:butt;stroke-linejoin:miter;stroke-miterlimit:10;stroke-opacity:1;stroke-dasharray:none"
       d="m 306.912,54.8828 c 0,25.3602 -20.558,45.9192 -45.919,45.9192 -25.36,0 -45.919,-20.559 -45.919,-45.9192 0,-25.3601 20.559,-45.91913 45.919,-45.91913 25.361,0 45.919,20.55903 45.919,45.91913" /><path
       inkscape:connector-curvature="0"
       id="path64"
       style="fill:none;stroke:#000000;stroke-width:1.91329992;stroke-linecap:butt;stroke-linejoin:miter;stroke-miterlimit:10;stroke-opacity:1;stroke-dasharray:none"
       d="m 238.751,95.0621 1.674,6.6969 6.458,1.913 5.501,-3.348" /><path
       inkscape:connector-curvature="0"
       id="path66"
       style="fill:none;stroke:#000000;stroke-width:1.91329992;stroke-linecap:butt;stroke-linejoin:miter;stroke-miterlimit:10;stroke-opacity:1;stroke-dasharray:none"
       d="m 260.754,101.041 4.784,4.066 7.653,-1.196 1.913,-5.2614" /><path
       inkscape:connector-curvature="0"
       id="path68"
       style="fill:none;stroke:#000000;stroke-width:1.91329992;stroke-linecap:butt;stroke-linejoin:miter;stroke-miterlimit:10;stroke-opacity:1;stroke-dasharray:none"
       d="m 281.992,95.6168 6.124,1.3824 6.225,-4.6105 -0.747,-5.5485" /><path
       inkscape:connector-curvature="0"
       id="path70"
       style="fill:none;stroke:#000000;stroke-width:1.91329992;stroke-linecap:butt;stroke-linejoin:miter;stroke-miterlimit:10;stroke-opacity:1;stroke-dasharray:none"
       d="m 299.082,81.2988 6.118,-1.4031 3.618,-6.8492 -3.073,-4.6797" /><path
       inkscape:connector-curvature="0"
       id="path72"
       style="fill:none;stroke:#000000;stroke-width:1.91329992;stroke-linecap:butt;stroke-linejoin:miter;stroke-miterlimit:10;stroke-opacity:1;stroke-dasharray:none"
       d="m 306.8,60.0883 4.667,-4.1981 -0.164,-7.7445 -4.959,-2.598" /><path
       inkscape:connector-curvature="0"
       id="path74"
       style="fill:none;stroke:#000000;stroke-width:1.91329992;stroke-linecap:butt;stroke-linejoin:miter;stroke-miterlimit:10;stroke-opacity:1;stroke-dasharray:none"
       d="m 304.715,39.0211 2.015,-5.9457 -3.934,-6.6727 -5.597,0.1621" /><path
       inkscape:connector-curvature="0"
       id="path76"
       style="fill:none;stroke:#000000;stroke-width:1.91329992;stroke-linecap:butt;stroke-linejoin:miter;stroke-miterlimit:10;stroke-opacity:1;stroke-dasharray:none"
       d="M 292.711,21.9453 292.234,15.6855 286,11.0887 280.915,13.4309" /><path
       inkscape:connector-curvature="0"
       id="path78"
       style="fill:none;stroke:#000000;stroke-width:1.91329992;stroke-linecap:butt;stroke-linejoin:miter;stroke-miterlimit:10;stroke-opacity:1;stroke-dasharray:none"
       d="M 274.045,10.3582 270.7,5.0457 263.041,3.89336 259.638,8.33945" /><path
       inkscape:connector-curvature="0"
       id="path80"
       style="fill:none;stroke:#000000;stroke-width:1.91329992;stroke-linecap:butt;stroke-linejoin:miter;stroke-miterlimit:10;stroke-opacity:1;stroke-dasharray:none"
       d="M 250.455,9.56406 244.819,6.8 l -7.124,3.0418 -0.56,5.5703" /><path
       inkscape:connector-curvature="0"
       id="path82"
       style="fill:none;stroke:#000000;stroke-width:1.91329992;stroke-linecap:butt;stroke-linejoin:miter;stroke-miterlimit:10;stroke-opacity:1;stroke-dasharray:none"
       d="m 230.968,19.7859 -6.276,-0.1269 -5.174,5.7644 1.843,5.2868" /><path
       inkscape:connector-curvature="0"
       id="path84"
       style="fill:none;stroke:#000000;stroke-width:1.91329992;stroke-linecap:butt;stroke-linejoin:miter;stroke-miterlimit:10;stroke-opacity:1;stroke-dasharray:none"
       d="m 218.065,37.5398 -5.451,3.1133 -1.482,7.6031 4.297,3.5903" /><path
       inkscape:connector-curvature="0"
       id="path86"
       style="fill:none;stroke:#000000;stroke-width:1.91329992;stroke-linecap:butt;stroke-linejoin:miter;stroke-miterlimit:10;stroke-opacity:1;stroke-dasharray:none"
       d="m 214.755,59.0219 -3.599,5.1437 1.91,7.5071 5.418,1.4105" /><path
       inkscape:connector-curvature="0"
       id="path88"
       style="fill:none;stroke:#000000;stroke-width:1.91329992;stroke-linecap:butt;stroke-linejoin:miter;stroke-miterlimit:10;stroke-opacity:1;stroke-dasharray:none"
       d="m 221.37,79.2973 -0.971,6.2019 5.014,5.9039 5.487,-1.114" /><path
       inkscape:connector-curvature="0"
       id="path90"
       style="fill:none;stroke:#000000;stroke-width:1.91329992;stroke-linecap:butt;stroke-linejoin:miter;stroke-miterlimit:10;stroke-opacity:1;stroke-dasharray:none"
       d="m 264.398,53.643 c 0,1.5847 -1.499,2.8699 -3.348,2.8699 -1.849,0 -3.348,-1.2852 -3.348,-2.8699 0,-1.5848 1.499,-2.87 3.348,-2.87 1.849,0 3.348,1.2852 3.348,2.87" /><path
       inkscape:connector-curvature="0"
       id="path92"
       style="fill:none;stroke:#000000;stroke-width:1.91329992;stroke-linecap:butt;stroke-linejoin:miter;stroke-miterlimit:10;stroke-opacity:1;stroke-dasharray:none"
       d="m 335.665,42.6469 c -4.369,7.2367 -13.777,9.5613 -21.014,5.1926 -7.237,-4.3688 -9.562,-13.7778 -5.193,-21.0145 4.369,-7.2367 13.778,-9.5613 21.015,-5.1926 7.236,4.3688 9.561,13.7778 5.192,21.0145" /><path
       inkscape:connector-curvature="0"
       id="path94"
       style="fill:none;stroke:#000000;stroke-width:1.91329992;stroke-linecap:butt;stroke-linejoin:miter;stroke-miterlimit:10;stroke-opacity:1;stroke-dasharray:none"
       d="m 322.93,50.4621 5.967,1.9488 6.629,-4.0078 -0.224,-5.5941" /><path
       inkscape:connector-curvature="0"
       id="path96"
       style="fill:none;stroke:#000000;stroke-width:1.91329992;stroke-linecap:butt;stroke-linejoin:miter;stroke-miterlimit:10;stroke-opacity:1;stroke-dasharray:none"
       d="m 338.439,35.025 2.372,-5.8125 -3.523,-6.8988 -5.595,-0.1774" /><path
       inkscape:connector-curvature="0"
       id="path98"
       style="fill:none;stroke:#000000;stroke-width:1.91329992;stroke-linecap:butt;stroke-linejoin:miter;stroke-miterlimit:10;stroke-opacity:1;stroke-dasharray:none"
       d="m 323.404,19.077 -5.693,-2.6473 -7.059,3.1879 -0.446,5.5808" /><path
       inkscape:connector-curvature="0"
       id="path100"
       style="fill:none;stroke:#000000;stroke-width:1.91329992;stroke-linecap:butt;stroke-linejoin:miter;stroke-miterlimit:10;stroke-opacity:1;stroke-dasharray:none"
       d="m 307.039,33.5176 -2.689,5.6722 3.136,7.0832 5.577,0.4868" /><path
       inkscape:connector-curvature="0"
       id="path102"
       style="fill:none;stroke:#000000;stroke-width:1.91329992;stroke-linecap:butt;stroke-linejoin:miter;stroke-miterlimit:10;stroke-opacity:1;stroke-dasharray:none"
       d="m 326.08,34.5215 c 0,1.5847 -1.5,2.8699 -3.348,2.8699 -1.85,0 -3.349,-1.2852 -3.349,-2.8699 0,-1.5848 1.499,-2.8699 3.349,-2.8699 1.848,0 3.348,1.2851 3.348,2.8699" /><g
       id="g104"><text
         id="text106"
         transform="matrix(1,0,0,-1,209.812,105.03)"><tspan
           id="tspan108"
           sodipodi:role="line"
           y="0"
           x="0 6.3827686"
           style="font-size:11.47980022px;font-variant:normal;font-weight:normal;writing-mode:lr-tb;fill:#000000;fill-opacity:1;fill-rule:nonzero;stroke:none;font-family:Helvetica;-inkscape-font-specification:Helvetica">b)</tspan></text>
</g></g></svg>