<?xml version="1.0" encoding="ISO-8859-1" standalone="yes"?>
<svg width="265.042" height="99.9918">
  <defs> 
    <marker id="ArrowEnd" viewBox="0 0 10 10" refX="0" refY="5" 
     markerUnits="strokeWidth" 
     markerWidth="4" 
     markerHeight="3" 
     orient="auto"> 
        <path d="M 0 0 L 10 5 L 0 10 z" /> 
    </marker>
    <marker id="ArrowStart" viewBox="0 0 10 10" refX="10" refY="5" 
     markerUnits="strokeWidth" 
     markerWidth="4" 
     markerHeight="3" 
     orient="auto"> 
        <path d="M 10 0 L 0 5 L 10 10 z" /> 
    </marker> </defs>
<g>
<path style="stroke:none; fill-rule:evenodd; fill:#5f5f5f" d="M 42.562 34.6168C 42.562 29.3355 38.2808 25.05 32.9956 25.05C 27.7144 25.05 23.4292 29.3316 23.4292 34.6168C 23.4292 39.898 27.7105 44.1832 32.9956 44.1832C 38.2769 44.1832 42.562 39.9019 42.562 34.6168"/>
<path style="stroke:#000000; stroke-width:1.9139600000000001; fill:none" d="M 42.562 34.6168C 42.562 29.3355 38.2808 25.05 32.9956 25.05C 27.7144 25.05 23.4292 29.3316 23.4292 34.6168C 23.4292 39.898 27.7105 44.1832 32.9956 44.1832C 38.2769 44.1832 42.562 39.9019 42.562 34.6168"/>
<path style="stroke:none; fill-rule:evenodd; fill:#ffffff" d="M 69.355 34.6168C 69.355 29.3355 65.0738 25.05 59.7886 25.05C 54.5074 25.05 50.2222 29.3316 50.2222 34.6168C 50.2222 39.898 54.5034 44.1832 59.7886 44.1832C 65.0699 44.1832 69.355 39.9019 69.355 34.6168"/>
<path style="stroke:#000000; stroke-width:1.9139600000000001; fill:none" d="M 69.355 34.6168C 69.355 29.3355 65.0738 25.05 59.7886 25.05C 54.5074 25.05 50.2222 29.3316 50.2222 34.6168C 50.2222 39.898 54.5034 44.1832 59.7886 44.1832C 65.0699 44.1832 69.355 39.9019 69.355 34.6168"/>
<path style="stroke:none; fill-rule:evenodd; fill:#5f5f5f" d="M 29.1636 74.8082C 29.1636 69.5269 24.8824 65.2418 19.5972 65.2418C 14.316 65.2418 10.0308 69.523 10.0308 74.8082C 10.0308 80.0894 14.312 84.3746 19.5972 84.3746C 24.8784 84.3746 29.1636 80.0933 29.1636 74.8082"/>
<path style="stroke:#000000; stroke-width:1.9139600000000001; fill:none" d="M 29.1636 74.8082C 29.1636 69.5269 24.8824 65.2418 19.5972 65.2418C 14.316 65.2418 10.0308 69.523 10.0308 74.8082C 10.0308 80.0894 14.312 84.3746 19.5972 84.3746C 24.8784 84.3746 29.1636 80.0933 29.1636 74.8082"/>
<path style="stroke:none; fill-rule:evenodd; fill:#5f5f5f" d="M 55.9566 74.8082C 55.9566 69.5269 51.6753 65.2418 46.3902 65.2418C 41.1089 65.2418 36.8238 69.523 36.8238 74.8082C 36.8238 80.0894 41.105 84.3746 46.3902 84.3746C 51.6714 84.3746 55.9566 80.0933 55.9566 74.8082"/>
<path style="stroke:#000000; stroke-width:1.9139600000000001; fill:none" d="M 55.9566 74.8082C 55.9566 69.5269 51.6753 65.2418 46.3902 65.2418C 41.1089 65.2418 36.8238 69.523 36.8238 74.8082C 36.8238 80.0894 41.105 84.3746 46.3902 84.3746C 51.6714 84.3746 55.9566 80.0933 55.9566 74.8082"/>
<path style="stroke:none; fill-rule:evenodd; fill:#ffffff" d="M 82.7534 74.8082C 82.7534 69.5269 78.4722 65.2418 73.187 65.2418C 67.9058 65.2418 63.6206 69.523 63.6206 74.8082C 63.6206 80.0894 67.9019 84.3746 73.187 84.3746C 78.4683 84.3746 82.7534 80.0933 82.7534 74.8082"/>
<path style="stroke:#000000; stroke-width:1.9139600000000001; fill:none" d="M 82.7534 74.8082C 82.7534 69.5269 78.4722 65.2418 73.187 65.2418C 67.9058 65.2418 63.6206 69.523 63.6206 74.8082C 63.6206 80.0894 67.9019 84.3746 73.187 84.3746C 78.4683 84.3746 82.7534 80.0933 82.7534 74.8082"/>
<path style="stroke:none; fill-rule:evenodd; fill:#000000" d="M 24.6402 92.9605C 24.2534 90.8355 23.0308 89.8003 20.9019 89.8003C 19.6011 89.8003 18.5503 90.2144 17.8316 91.0152C 16.9566 91.9761 16.4761 93.3628 16.4761 94.9371C 16.4761 96.5386 16.9644 97.9136 17.8863 98.8589C 18.6284 99.6324 19.5855 99.9918 20.8511 99.9918C 23.2183 99.9918 24.5464 98.7105 24.8433 96.1324L 23.5581 96.1324C 23.4527 96.8238 23.3199 97.2925 23.1206 97.6949C 22.7222 98.523 21.8941 98.9918 20.8511 98.9918C 18.9136 98.9918 17.6831 97.4097 17.6831 94.9214C 17.6831 92.3668 18.8589 90.7964 20.7456 90.7964C 21.5308 90.7964 22.2691 91.0425 22.6714 91.4332C 23.0308 91.7769 23.23 92.2066 23.3784 92.9566L 24.6402 92.9605z"/>
<path style="stroke:none; fill-rule:evenodd; fill:#000000" d="M 48.9214 96.6988L 49.9253 99.6988L 51.316 99.6988L 47.8863 89.9019L 46.2808 89.9019L 42.8003 99.6988L 44.1245 99.6988L 45.1558 96.6988L 48.9214 96.6988zM 48.5738 95.6988L 45.4683 95.6988L 47.0738 91.273L 48.5738 95.6988z"/>
<path style="stroke:none; fill-rule:evenodd; fill:#000000" d="M 70.5699 99.6988L 74.312 99.6988C 76.7613 99.6988 78.2691 97.8472 78.2691 94.7964C 78.2691 91.7613 76.7769 89.9058 74.312 89.9058L 70.5699 89.9058L 70.5699 99.6988zM 71.7691 98.6988L 71.7691 90.9019L 74.0933 90.9019C 76.0386 90.9019 77.066 92.2378 77.066 94.8082C 77.066 97.3472 76.0386 98.6988 74.0933 98.6988L 71.7691 98.6988z"/>
<path style="stroke:none; fill-rule:evenodd; fill:#000000" d="M 51.3706 21.199L 55.1128 21.199C 57.562 21.199 59.0699 19.347 59.0699 16.296C 59.0699 13.261 57.5777 11.406 55.1128 11.406L 51.3706 11.406L 51.3706 21.199zM 52.5699 20.199L 52.5699 12.402L 54.8941 12.402C 56.8394 12.402 57.8667 13.738 57.8667 16.308C 57.8667 18.847 56.8394 20.199 54.8941 20.199L 52.5699 20.199z"/>
<path style="stroke:none; fill-rule:evenodd; fill:#000000" d="M 66.2222 18.199L 67.2261 21.199L 68.6167 21.199L 65.187 11.402L 63.5816 11.402L 60.1011 21.199L 61.4253 21.199L 62.4566 18.199L 66.2222 18.199zM 65.8706 17.199L 62.7652 17.199L 64.3706 12.773L 65.8706 17.199z"/>
<path style="stroke:#000000; stroke-width:2.87094; fill:none" d="M 73.1831 65.2378L 59.7886 44.1871"/>
<path style="stroke:#000000; stroke-width:2.87094; fill:none" d="M 32.9917 44.1871L 46.3863 65.2378"/>
<path style="stroke:#000000; stroke-width:2.87094; fill:none" d="M 19.5933 65.2378L 32.9878 44.1871"/>
<path style="stroke:#000000; stroke-width:2.87094; fill:none" d="M 46.3902 65.2378L 59.7847 44.1871"/>
<path style="stroke:#000000; stroke-width:0.95698000000000005; fill:none" d="M 34.9058 44.1871L 73.1831 65.2378"/>
<path style="stroke:#000000; stroke-width:0.95698000000000005; fill:none" d="M 19.5933 65.2378L 59.7847 44.1871"/>
<path style="stroke:none; fill-rule:evenodd; fill:#ffffff" d="M 128.691 34.6168C 128.691 29.3355 124.41 25.05 119.124 25.05C 113.843 25.05 109.558 29.3316 109.558 34.6168C 109.558 39.898 113.839 44.1832 119.124 44.1832C 124.406 44.1832 128.691 39.9019 128.691 34.6168"/>
<path style="stroke:#000000; stroke-width:1.9139600000000001; fill:none" d="M 128.691 34.6168C 128.691 29.3355 124.41 25.05 119.124 25.05C 113.843 25.05 109.558 29.3316 109.558 34.6168C 109.558 39.898 113.839 44.1832 119.124 44.1832C 124.406 44.1832 128.691 39.9019 128.691 34.6168"/>
<path style="stroke:none; fill-rule:evenodd; fill:#5f5f5f" d="M 155.484 34.6168C 155.484 29.3355 151.202 25.05 145.917 25.05C 140.636 25.05 136.351 29.3316 136.351 34.6168C 136.351 39.898 140.632 44.1832 145.917 44.1832C 151.199 44.1832 155.484 39.9019 155.484 34.6168"/>
<path style="stroke:#000000; stroke-width:1.9139600000000001; fill:none" d="M 155.484 34.6168C 155.484 29.3355 151.202 25.05 145.917 25.05C 140.636 25.05 136.351 29.3316 136.351 34.6168C 136.351 39.898 140.632 44.1832 145.917 44.1832C 151.199 44.1832 155.484 39.9019 155.484 34.6168"/>
<path style="stroke:none; fill-rule:evenodd; fill:#ffffff" d="M 115.292 74.8082C 115.292 69.5269 111.011 65.2418 105.726 65.2418C 100.445 65.2418 96.1602 69.523 96.1602 74.8082C 96.1602 80.0894 100.441 84.3746 105.726 84.3746C 111.007 84.3746 115.292 80.0933 115.292 74.8082"/>
<path style="stroke:#000000; stroke-width:1.9139600000000001; fill:none" d="M 115.292 74.8082C 115.292 69.5269 111.011 65.2418 105.726 65.2418C 100.445 65.2418 96.1602 69.523 96.1602 74.8082C 96.1602 80.0894 100.441 84.3746 105.726 84.3746C 111.007 84.3746 115.292 80.0933 115.292 74.8082"/>
<path style="stroke:none; fill-rule:evenodd; fill:#5f5f5f" d="M 142.085 74.8082C 142.085 69.5269 137.804 65.2418 132.519 65.2418C 127.238 65.2418 122.952 69.523 122.952 74.8082C 122.952 80.0894 127.234 84.3746 132.519 84.3746C 137.8 84.3746 142.085 80.0933 142.085 74.8082"/>
<path style="stroke:#000000; stroke-width:1.9139600000000001; fill:none" d="M 142.085 74.8082C 142.085 69.5269 137.804 65.2418 132.519 65.2418C 127.238 65.2418 122.952 69.523 122.952 74.8082C 122.952 80.0894 127.234 84.3746 132.519 84.3746C 137.8 84.3746 142.085 80.0933 142.085 74.8082"/>
<path style="stroke:none; fill-rule:evenodd; fill:#5f5f5f" d="M 168.882 74.8082C 168.882 69.5269 164.601 65.2418 159.316 65.2418C 154.034 65.2418 149.749 69.523 149.749 74.8082C 149.749 80.0894 154.031 84.3746 159.316 84.3746C 164.597 84.3746 168.882 80.0933 168.882 74.8082"/>
<path style="stroke:#000000; stroke-width:1.9139600000000001; fill:none" d="M 168.882 74.8082C 168.882 69.5269 164.601 65.2418 159.316 65.2418C 154.034 65.2418 149.749 69.523 149.749 74.8082C 149.749 80.0894 154.031 84.3746 159.316 84.3746C 164.597 84.3746 168.882 80.0933 168.882 74.8082"/>
<path style="stroke:none; fill-rule:evenodd; fill:#000000" d="M 110.738 92.9605C 110.351 90.8355 109.128 89.8003 106.999 89.8003C 105.699 89.8003 104.648 90.2144 103.929 91.0152C 103.054 91.9761 102.574 93.3628 102.574 94.9371C 102.574 96.5386 103.062 97.9136 103.984 98.8589C 104.726 99.6324 105.683 99.9918 106.949 99.9918C 109.316 99.9918 110.644 98.7105 110.941 96.1324L 109.656 96.1324C 109.55 96.8238 109.417 97.2925 109.218 97.6949C 108.82 98.523 107.992 98.9918 106.949 98.9918C 105.011 98.9918 103.781 97.4097 103.781 94.9214C 103.781 92.3668 104.956 90.7964 106.843 90.7964C 107.628 90.7964 108.367 91.0425 108.769 91.4332C 109.128 91.7769 109.327 92.2066 109.476 92.9566L 110.738 92.9605z"/>
<path style="stroke:none; fill-rule:evenodd; fill:#000000" d="M 135.019 96.6988L 136.023 99.6988L 137.413 99.6988L 133.984 89.9019L 132.378 89.9019L 128.898 99.6988L 130.222 99.6988L 131.253 96.6988L 135.019 96.6988zM 134.671 95.6988L 131.566 95.6988L 133.171 91.273L 134.671 95.6988z"/>
<path style="stroke:none; fill-rule:evenodd; fill:#000000" d="M 156.671 99.6988L 160.413 99.6988C 162.863 99.6988 164.37 97.8472 164.37 94.7964C 164.37 91.7613 162.878 89.9058 160.413 89.9058L 156.671 89.9058L 156.671 99.6988zM 157.87 98.6988L 157.87 90.9019L 160.195 90.9019C 162.14 90.9019 163.167 92.2378 163.167 94.8082C 163.167 97.3472 162.14 98.6988 160.195 98.6988L 157.87 98.6988z"/>
<path style="stroke:none; fill-rule:evenodd; fill:#000000" d="M 118.441 14.46C 118.054 12.336 116.831 11.3 114.702 11.3C 113.402 11.3 112.351 11.714 111.632 12.515C 110.757 13.476 110.277 14.863 110.277 16.437C 110.277 18.039 110.765 19.414 111.687 20.359C 112.429 21.132 113.386 21.492 114.652 21.492C 117.019 21.492 118.347 20.21 118.644 17.632L 117.359 17.632C 117.253 18.324 117.12 18.793 116.921 19.195C 116.523 20.023 115.695 20.492 114.652 20.492C 112.714 20.492 111.484 18.91 111.484 16.421C 111.484 13.867 112.66 12.296 114.546 12.296C 115.331 12.296 116.07 12.543 116.472 12.933C 116.831 13.277 117.031 13.707 117.179 14.457L 118.441 14.46z"/>
<path style="stroke:none; fill-rule:evenodd; fill:#000000" d="M 125.62 18.199L 126.624 21.199L 128.015 21.199L 124.585 11.402L 122.98 11.402L 119.499 21.199L 120.824 21.199L 121.855 18.199L 125.62 18.199zM 125.273 17.199L 122.167 17.199L 123.773 12.773L 125.273 17.199z"/>
<path style="stroke:none; fill-rule:evenodd; fill:#000000" d="M 137.57 21.199L 141.312 21.199C 143.761 21.199 145.269 19.347 145.269 16.296C 145.269 13.261 143.777 11.406 141.312 11.406L 137.57 11.406L 137.57 21.199zM 138.769 20.199L 138.769 12.402L 141.093 12.402C 143.038 12.402 144.066 13.738 144.066 16.308C 144.066 18.847 143.038 20.199 141.093 20.199L 138.769 20.199z"/>
<path style="stroke:none; fill-rule:evenodd; fill:#000000" d="M 152.32 18.199L 153.324 21.199L 154.714 21.199L 151.284 11.402L 149.679 11.402L 146.199 21.199L 147.523 21.199L 148.554 18.199L 152.32 18.199zM 151.972 17.199L 148.867 17.199L 150.472 12.773L 151.972 17.199z"/>
<path style="stroke:#000000; stroke-width:2.87094; fill:none" d="M 159.312 65.2378L 145.917 44.1871"/>
<path style="stroke:#000000; stroke-width:2.87094; fill:none" d="M 119.12 44.1871L 132.515 65.2378"/>
<path style="stroke:#000000; stroke-width:2.87094; fill:none" d="M 105.722 65.2378L 119.117 44.1871"/>
<path style="stroke:#000000; stroke-width:2.87094; fill:none" d="M 132.515 65.2378L 145.91 44.1871"/>
<path style="stroke:#000000; stroke-width:0.95698000000000005; fill:none" d="M 121.034 44.1871L 159.312 65.2378"/>
<path style="stroke:#000000; stroke-width:0.95698000000000005; fill:none" d="M 105.722 65.2378L 145.913 44.1871"/>
<path style="stroke:none; fill-rule:evenodd; fill:#5f5f5f" d="M 214.816 34.6168C 214.816 29.3355 210.534 25.05 205.249 25.05C 199.968 25.05 195.683 29.3316 195.683 34.6168C 195.683 39.898 199.964 44.1832 205.249 44.1832C 210.531 44.1832 214.816 39.9019 214.816 34.6168"/>
<path style="stroke:#000000; stroke-width:1.9139600000000001; fill:none" d="M 214.816 34.6168C 214.816 29.3355 210.534 25.05 205.249 25.05C 199.968 25.05 195.683 29.3316 195.683 34.6168C 195.683 39.898 199.964 44.1832 205.249 44.1832C 210.531 44.1832 214.816 39.9019 214.816 34.6168"/>
<path style="stroke:none; fill-rule:evenodd; fill:#5f5f5f" d="M 241.613 34.6168C 241.613 29.3355 237.331 25.05 232.046 25.05C 226.765 25.05 222.48 29.3316 222.48 34.6168C 222.48 39.898 226.761 44.1832 232.046 44.1832C 237.327 44.1832 241.613 39.9019 241.613 34.6168"/>
<path style="stroke:#000000; stroke-width:1.9139600000000001; fill:none" d="M 241.613 34.6168C 241.613 29.3355 237.331 25.05 232.046 25.05C 226.765 25.05 222.48 29.3316 222.48 34.6168C 222.48 39.898 226.761 44.1832 232.046 44.1832C 237.327 44.1832 241.613 39.9019 241.613 34.6168"/>
<path style="stroke:none; fill-rule:evenodd; fill:#ffffff" d="M 201.417 74.8082C 201.417 69.5269 197.136 65.2418 191.851 65.2418C 186.57 65.2418 182.284 69.523 182.284 74.8082C 182.284 80.0894 186.566 84.3746 191.851 84.3746C 197.132 84.3746 201.417 80.0933 201.417 74.8082"/>
<path style="stroke:#000000; stroke-width:1.9139600000000001; fill:none" d="M 201.417 74.8082C 201.417 69.5269 197.136 65.2418 191.851 65.2418C 186.57 65.2418 182.284 69.523 182.284 74.8082C 182.284 80.0894 186.566 84.3746 191.851 84.3746C 197.132 84.3746 201.417 80.0933 201.417 74.8082"/>
<path style="stroke:none; fill-rule:evenodd; fill:#5f5f5f" d="M 228.214 74.8082C 228.214 69.5269 223.933 65.2418 218.648 65.2418C 213.367 65.2418 209.081 69.523 209.081 74.8082C 209.081 80.0894 213.363 84.3746 218.648 84.3746C 223.929 84.3746 228.214 80.0933 228.214 74.8082"/>
<path style="stroke:#000000; stroke-width:1.9139600000000001; fill:none" d="M 228.214 74.8082C 228.214 69.5269 223.933 65.2418 218.648 65.2418C 213.367 65.2418 209.081 69.523 209.081 74.8082C 209.081 80.0894 213.363 84.3746 218.648 84.3746C 223.929 84.3746 228.214 80.0933 228.214 74.8082"/>
<path style="stroke:none; fill-rule:evenodd; fill:#ffffff" d="M 255.011 74.8082C 255.011 69.5269 250.73 65.2418 245.445 65.2418C 240.163 65.2418 235.878 69.523 235.878 74.8082C 235.878 80.0894 240.16 84.3746 245.445 84.3746C 250.726 84.3746 255.011 80.0933 255.011 74.8082"/>
<path style="stroke:#000000; stroke-width:1.9139600000000001; fill:none" d="M 255.011 74.8082C 255.011 69.5269 250.73 65.2418 245.445 65.2418C 240.163 65.2418 235.878 69.523 235.878 74.8082C 235.878 80.0894 240.16 84.3746 245.445 84.3746C 250.726 84.3746 255.011 80.0933 255.011 74.8082"/>
<path style="stroke:none; fill-rule:evenodd; fill:#000000" d="M 196.941 92.9605C 196.554 90.8355 195.331 89.8003 193.202 89.8003C 191.902 89.8003 190.851 90.2144 190.132 91.0152C 189.257 91.9761 188.777 93.3628 188.777 94.9371C 188.777 96.5386 189.265 97.9136 190.187 98.8589C 190.929 99.6324 191.886 99.9918 193.152 99.9918C 195.519 99.9918 196.847 98.7105 197.144 96.1324L 195.859 96.1324C 195.753 96.8238 195.62 97.2925 195.421 97.6949C 195.023 98.523 194.195 98.9918 193.152 98.9918C 191.214 98.9918 189.984 97.4097 189.984 94.9214C 189.984 92.3668 191.16 90.7964 193.046 90.7964C 193.831 90.7964 194.57 91.0425 194.972 91.4332C 195.331 91.7769 195.531 92.2066 195.679 92.9566L 196.941 92.9605z"/>
<path style="stroke:none; fill-rule:evenodd; fill:#000000" d="M 221.12 96.6988L 222.124 99.6988L 223.515 99.6988L 220.085 89.9019L 218.48 89.9019L 214.999 99.6988L 216.324 99.6988L 217.355 96.6988L 221.12 96.6988zM 220.773 95.6988L 217.667 95.6988L 219.273 91.273L 220.773 95.6988z"/>
<path style="stroke:none; fill-rule:evenodd; fill:#000000" d="M 242.769 99.6988L 246.511 99.6988C 248.96 99.6988 250.468 97.8472 250.468 94.7964C 250.468 91.7613 248.976 89.9058 246.511 89.9058L 242.769 89.9058L 242.769 99.6988zM 243.972 98.6988L 243.972 90.9019L 246.296 90.9019C 248.242 90.9019 249.269 92.2378 249.269 94.8082C 249.269 97.3472 248.242 98.6988 246.296 98.6988L 243.972 98.6988z"/>
<path style="stroke:none; fill-rule:evenodd; fill:#000000" d="M 204.538 14.46C 204.152 12.336 202.929 11.3 200.8 11.3C 199.499 11.3 198.449 11.714 197.73 12.515C 196.855 13.476 196.374 14.863 196.374 16.437C 196.374 18.039 196.863 19.414 197.784 20.359C 198.527 21.132 199.484 21.492 200.749 21.492C 203.117 21.492 204.445 20.21 204.742 17.632L 203.456 17.632C 203.351 18.324 203.218 18.793 203.019 19.195C 202.62 20.023 201.792 20.492 200.749 20.492C 198.812 20.492 197.581 18.91 197.581 16.421C 197.581 13.867 198.757 12.296 200.644 12.296C 201.429 12.296 202.167 12.543 202.57 12.933C 202.929 13.277 203.128 13.707 203.277 14.457L 204.538 14.46z"/>
<path style="stroke:none; fill-rule:evenodd; fill:#000000" d="M 211.722 18.199L 212.726 21.199L 214.117 21.199L 210.687 11.402L 209.081 11.402L 205.601 21.199L 206.925 21.199L 207.956 18.199L 211.722 18.199zM 211.37 17.199L 208.265 17.199L 209.87 12.773L 211.37 17.199z"/>
<path style="stroke:none; fill-rule:evenodd; fill:#000000" d="M 223.671 21.199L 227.413 21.199C 229.863 21.199 231.37 19.347 231.37 16.296C 231.37 13.261 229.878 11.406 227.413 11.406L 223.671 11.406L 223.671 21.199zM 224.87 20.199L 224.87 12.402L 227.195 12.402C 229.14 12.402 230.167 13.738 230.167 16.308C 230.167 18.847 229.14 20.199 227.195 20.199L 224.87 20.199z"/>
<path style="stroke:none; fill-rule:evenodd; fill:#000000" d="M 238.519 18.199L 239.523 21.199L 240.913 21.199L 237.484 11.402L 235.878 11.402L 232.398 21.199L 233.722 21.199L 234.753 18.199L 238.519 18.199zM 238.171 17.199L 235.066 17.199L 236.671 12.773L 238.171 17.199z"/>
<path style="stroke:#000000; stroke-width:2.87094; fill:none" d="M 245.441 65.2378L 232.046 44.1871"/>
<path style="stroke:#000000; stroke-width:2.87094; fill:none" d="M 205.245 44.1871L 218.64 65.2378"/>
<path style="stroke:#000000; stroke-width:2.87094; fill:none" d="M 191.851 65.2378L 205.245 44.1871"/>
<path style="stroke:#000000; stroke-width:2.87094; fill:none" d="M 218.644 65.2378L 232.038 44.1871"/>
<path style="stroke:#000000; stroke-width:0.95698000000000005; fill:none" d="M 207.16 44.1871L 245.437 65.2378"/>
<path style="stroke:#000000; stroke-width:0.95698000000000005; fill:none" d="M 191.851 65.2378L 232.042 44.1871"/>
<path style="stroke:none; fill-rule:evenodd; fill:#000000" d="M 32.3394 14.46C 31.9527 12.336 30.73 11.3 28.6011 11.3C 27.3003 11.3 26.2495 11.714 25.5308 12.515C 24.6558 13.476 24.1753 14.863 24.1753 16.437C 24.1753 18.039 24.6636 19.414 25.5855 20.359C 26.3277 21.132 27.2847 21.492 28.5503 21.492C 30.9175 21.492 32.2456 20.21 32.5425 17.632L 31.2574 17.632C 31.1519 18.324 31.0191 18.793 30.8199 19.195C 30.4214 20.023 29.5933 20.492 28.5503 20.492C 26.6128 20.492 25.3824 18.91 25.3824 16.421C 25.3824 13.867 26.5581 12.296 28.4449 12.296C 29.23 12.296 29.9683 12.543 30.3706 12.933C 30.73 13.277 30.9292 13.707 31.0777 14.457L 32.3394 14.46z"/>
<path style="stroke:none; fill-rule:evenodd; fill:#000000" d="M 39.4214 18.199L 40.4253 21.199L 41.816 21.199L 38.3863 11.402L 36.7808 11.402L 33.3003 21.199L 34.6245 21.199L 35.6558 18.199L 39.4214 18.199zM 39.0738 17.199L 35.9683 17.199L 37.5738 12.773L 39.0738 17.199z"/>
<path style="stroke:none; fill-rule:evenodd; fill:#000000" d="M 15.2144 7.836C 15.1089 7.89799 15.062 7.89799 15.0034 7.89799C 14.6636 7.89799 14.4761 7.726 14.4761 7.425L 14.4761 3.85899C 14.4761 2.785 13.6988 2.203 12.2261 2.203C 11.3589 2.203 10.6402 2.45699 10.2378 2.906C 9.96437 3.214 9.85106 3.562 9.82766 4.16399L 10.773 4.16399C 10.8511 3.433 11.2769 3.105 12.1597 3.105C 13.0034 3.105 13.4761 3.425 13.4761 4.003L 13.4761 4.257C 13.4761 4.66 13.2417 4.83199 12.4995 4.925C 11.1753 5.09699 10.9722 5.144 10.6128 5.29299C 9.92916 5.578 9.58156 6.12099 9.58156 6.906C 9.58156 7.99999 10.3355 8.69099 11.5503 8.69099C 12.3042 8.69099 12.9097 8.41799 13.5855 7.77299C 13.6519 8.406 13.9488 8.69099 14.5699 8.69099C 14.7613 8.69099 14.9097 8.66799 15.2183 8.586L 15.2144 7.836zM 13.4722 6.53899C 13.4722 6.867 13.3863 7.06999 13.105 7.34299C 12.7261 7.70699 12.2691 7.89799 11.7222 7.89799C 10.9995 7.89799 10.5777 7.535 10.5777 6.906C 10.5777 6.257 10.9878 5.925 11.98 5.77299C 12.9605 5.632 13.1597 5.586 13.4722 5.42899L 13.4722 6.53899z"/>
<path style="stroke:none; fill-rule:evenodd; fill:#000000" d="M 16.5269 10.836C 17.6558 9.328 18.3667 7.23399 18.3667 5.42899C 18.3667 3.61299 17.6558 1.519 16.5269 0.00698853L 15.9097 0.00698853C 16.9136 1.65199 17.4722 3.586 17.4722 5.42899C 17.4722 7.257 16.9136 9.203 15.9097 10.836L 16.5269 10.836z"/>
<path style="stroke:none; fill-rule:evenodd; fill:#000000" d="M 95.7692 0L 95.7692 8.39799L 96.6672 8.39799L 96.6672 7.628C 97.1202 8.351 97.7262 8.69499 98.5622 8.69499C 100.136 8.69499 101.163 7.38999 101.163 5.378C 101.163 3.41399 100.183 2.199 98.6132 2.199C 97.7922 2.199 97.2142 2.51099 96.7692 3.19499L 96.7692 0L 95.7692 0zM 98.4212 3.105C 99.4882 3.105 100.175 4.035 100.175 5.46799C 100.175 6.83199 99.4642 7.76499 98.4212 7.76499C 97.4132 7.76499 96.7452 6.84699 96.7452 5.437C 96.7452 4.02699 97.4102 3.10899 98.4212 3.10899L 98.4212 3.105z"/>
<path style="stroke:none; fill-rule:evenodd; fill:#000000" d="M 102.628 10.836C 103.757 9.328 104.468 7.23399 104.468 5.42899C 104.468 3.61299 103.757 1.519 102.628 0.00698853L 102.011 0.00698853C 103.015 1.65199 103.574 3.586 103.574 5.42899C 103.574 7.257 103.015 9.203 102.011 10.836L 102.628 10.836z"/>
<path style="stroke:none; fill-rule:evenodd; fill:#000000" d="M 186.781 4.406C 186.738 3.81999 186.613 3.437 186.382 3.105C 185.976 2.54299 185.257 2.20699 184.425 2.20699C 182.824 2.20699 181.777 3.49999 181.777 5.51099C 181.777 7.464 182.8 8.703 184.417 8.703C 185.839 8.703 186.738 7.828 186.851 6.339L 185.898 6.339C 185.742 7.31599 185.253 7.80399 184.445 7.80399C 183.402 7.80399 182.777 6.94099 182.777 5.51499C 182.777 4.007 183.386 3.10899 184.421 3.10899C 185.214 3.10899 185.714 3.578 185.827 4.41L 186.781 4.406z"/>
<path style="stroke:none; fill-rule:evenodd; fill:#000000" d="M 188.128 10.836C 189.257 9.328 189.968 7.23399 189.968 5.42899C 189.968 3.61299 189.257 1.519 188.128 0.00698853L 187.511 0.00698853C 188.515 1.65199 189.074 3.586 189.074 5.42899C 189.074 7.257 188.515 9.203 187.511 10.836L 188.128 10.836z"/>
</g>
</svg>