<?xml version="1.0" encoding="UTF-8" standalone="no"?>
<svg
   xmlns:dc="http://purl.org/dc/elements/1.1/"
   xmlns:cc="http://creativecommons.org/ns#"
   xmlns:rdf="http://www.w3.org/1999/02/22-rdf-syntax-ns#"
   xmlns:svg="http://www.w3.org/2000/svg"
   xmlns="http://www.w3.org/2000/svg"
   xmlns:sodipodi="http://sodipodi.sourceforge.net/DTD/sodipodi-0.dtd"
   xmlns:inkscape="http://www.inkscape.org/namespaces/inkscape"
   version="1.1"
   width="8.5in"
   height="11in"
   viewBox="0 0 1912.5 2475"
   id="svg2"
   inkscape:version="0.91 r13725"
   sodipodi:docname="fig_deepleabra_wwi_v2v3only_v1p2.svg"
   inkscape:export-filename="/Users/oreilly/svn_docs/figs/fig_deepleabra_wwi_v2v3only_v1p2.png"
   inkscape:export-xdpi="149.95799"
   inkscape:export-ydpi="149.95799">
  <metadata
     id="metadata82">
    <rdf:RDF>
      <cc:Work
         rdf:about="">
        <dc:format>image/svg+xml</dc:format>
        <dc:type
           rdf:resource="http://purl.org/dc/dcmitype/StillImage" />
        <dc:title></dc:title>
      </cc:Work>
    </rdf:RDF>
  </metadata>
  <defs
     id="defs80">
    <marker
       inkscape:isstock="true"
       style="overflow:visible"
       id="marker6416"
       refX="0"
       refY="0"
       orient="auto"
       inkscape:stockid="Arrow1Mend">
      <path
         inkscape:connector-curvature="0"
         transform="matrix(-0.4,0,0,-0.4,-4,0)"
         style="fill:#000000;fill-opacity:1;fill-rule:evenodd;stroke:#000000;stroke-width:1pt;stroke-opacity:1"
         d="M 0,0 5,-5 -12.5,0 5,5 0,0 Z"
         id="path6418" />
    </marker>
    <marker
       inkscape:isstock="true"
       style="overflow:visible"
       id="marker6499"
       refX="0"
       refY="0"
       orient="auto"
       inkscape:stockid="Arrow1Mend">
      <path
         transform="matrix(-0.4,0,0,-0.4,-4,0)"
         style="fill:#000000;fill-opacity:1;fill-rule:evenodd;stroke:#000000;stroke-width:1pt;stroke-opacity:1"
         d="M 0,0 5,-5 -12.5,0 5,5 0,0 Z"
         id="path6501"
         inkscape:connector-curvature="0" />
    </marker>
    <marker
       inkscape:stockid="Arrow1Mend"
       orient="auto"
       refY="0"
       refX="0"
       id="marker5623"
       style="overflow:visible"
       inkscape:isstock="true">
      <path
         id="path5625"
         d="M 0,0 5,-5 -12.5,0 5,5 0,0 Z"
         style="fill:#000000;fill-opacity:1;fill-rule:evenodd;stroke:#000000;stroke-width:1pt;stroke-opacity:1"
         transform="matrix(-0.4,0,0,-0.4,-4,0)"
         inkscape:connector-curvature="0" />
    </marker>
    <marker
       inkscape:stockid="Arrow1Mend"
       orient="auto"
       refY="0"
       refX="0"
       id="marker5211"
       style="overflow:visible"
       inkscape:isstock="true">
      <path
         id="path5213"
         d="M 0,0 5,-5 -12.5,0 5,5 0,0 Z"
         style="fill:#000000;fill-opacity:1;fill-rule:evenodd;stroke:#000000;stroke-width:1pt;stroke-opacity:1"
         transform="matrix(-0.4,0,0,-0.4,-4,0)"
         inkscape:connector-curvature="0" />
    </marker>
    <marker
       inkscape:isstock="true"
       style="overflow:visible"
       id="marker4949"
       refX="0"
       refY="0"
       orient="auto"
       inkscape:stockid="Arrow1Mend">
      <path
         transform="matrix(-0.4,0,0,-0.4,-4,0)"
         style="fill:#000000;fill-opacity:1;fill-rule:evenodd;stroke:#000000;stroke-width:1pt;stroke-opacity:1"
         d="M 0,0 5,-5 -12.5,0 5,5 0,0 Z"
         id="path4951"
         inkscape:connector-curvature="0" />
    </marker>
    <marker
       inkscape:isstock="true"
       style="overflow:visible"
       id="marker4907"
       refX="0"
       refY="0"
       orient="auto"
       inkscape:stockid="Arrow1Mend">
      <path
         transform="matrix(-0.4,0,0,-0.4,-4,0)"
         style="fill:#000000;fill-opacity:1;fill-rule:evenodd;stroke:#000000;stroke-width:1pt;stroke-opacity:1"
         d="M 0,0 5,-5 -12.5,0 5,5 0,0 Z"
         id="path4909"
         inkscape:connector-curvature="0" />
    </marker>
  </defs>
  <sodipodi:namedview
     pagecolor="#ffffff"
     bordercolor="#666666"
     borderopacity="1"
     objecttolerance="10"
     gridtolerance="10"
     guidetolerance="10"
     inkscape:pageopacity="0"
     inkscape:pageshadow="2"
     inkscape:window-width="640"
     inkscape:window-height="480"
     id="namedview78"
     showgrid="false"
     units="in"
     inkscape:zoom="1.9725"
     inkscape:cx="156.46757"
     inkscape:cy="258.11086"
     inkscape:current-layer="svg2" />
  <rect
     style="opacity:1;fill:#ffffff;fill-opacity:1;fill-rule:nonzero;stroke:#ffffff;stroke-width:1.25867116;stroke-linecap:butt;stroke-linejoin:miter;stroke-miterlimit:4;stroke-dasharray:none;stroke-dashoffset:0;stroke-opacity:1"
     id="rect6498"
     width="977.75244"
     height="921.29144"
     x="69.012222"
     y="1493.6584" />
  <path
     style="fill:none;stroke:#000000;stroke-width:2.5;stroke-miterlimit:4;stroke-dasharray:none"
     d="m 232.29342,2104.504 0.8,-16.1 0.7,-17.9 0.7,-19.7 0.8,-21.3 0.7,-22.9 0.8,-23.5 0.7,-23.7 0.8,-23.1 0.7,-24.2 0.8,-21.9 0.7,-18.9 0.8,-16.8 0.7,-15 0.8,-13.4 0.7,-12.6 0.8,-11.8 0.7,-11.3 0.8,-11.2 0.7,-10.7 0.8,-10.4 0.7,-10.1 0.8,-9.1 0.7,-8.2 0.7,-7.1 0.8,-5.9 0.7,-5.1 0.8,-3.7 0.7,-3.3 0.8,-2.4 0.7,-2.2 0.8,-2 0.7,-1.9 0.8,-1.8 0.7,-2.1 0.8,-2.2 0.7,-2.2 0.8,-2.2 0.7,-1.6 0.8,-1.9 0.7,-2 0.8,-1.9 0.7,-1.8 0.8,-1.7 0.7,-2.1 0.7,-2 0.8,-2.1 0.7,-2 0.8,-1.8 0.7,-1.6 0.8,-1.5 0.7,-1.1 0.8,-0.5 0.7,-0.6 0.8,-0.2 0.7,-0.3 0.8,0.2 0.7,0.1 0.8,-0.1 0.7,0.2 0.8,-0.1 0.7,-0.1 0.8,0 0.7,-0.2 0.8,-0.2 0.7,-0.7 0.7,-0.6 0.8,-0.7 0.7,-1.1 0.8,-1.2 0.7,-1 0.8,-1.7 0.7,-1.3 0.8,-1.4 0.7,-1.2 0.8,-1.2 0.7,-1.2 0.8,-1.1 0.7,-1.3 0.8,-1.4 0.7,-1.5 0.8,-1.7 0.7,-1.8 0.8,-2.2 0.7,-1.9 0.8,-1.9 0.7,-1.8 0.7,-1.8 0.8,-1 0.7,-1.1 0.8,-0.9 0.7,-0.4 0.8,-0.4 0.7,-0.1 0.8,0 0.7,0.2 0.8,0.1 0.7,0.2 0.8,0.5 0.7,0.5 0.8,0.8 0.7,0.3 0.8,0.7 0.7,0.9 0.8,0.7 0.7,0.9 0.8,0.5 0.7,0.6 0.7,0.4 0.8,0.1 0.7,-0.1 0.8,-0.4 0.7,-0.8 0.8,-0.8 0.7,-0.8 0.8,-1.3 0.7,-0.8 0.8,-0.8 0.7,-0.5 0.8,-0.1 0.7,0 0.8,0 0.7,0 0.8,0.2 0.7,0 0.8,-0.1 0.7,-0.3 0.7,-0.5 0.8,-0.5 0.7,-0.3 0.8,-0.5 0.7,-0.5 0.8,-0.1 0.7,-0.2 0.8,0.2 0.7,0.1 0.8,0.1 0.7,0.3 0.8,0.5 0.7,0.5 0.8,0.5 0.7,0.5 0.8,0.6 0.7,0.6 0.8,0.4 0.7,0.4 0.8,0 0.7,0.3 0.7,0.1 0.8,0 0.7,0.1 0.8,0.3 0.7,0.1 0.8,0.2 0.7,0.1 0.8,0.3 0.7,0.1 0.8,0 0.7,0 0.8,-0.1 0.7,-0.3 0.8,-0.5 0.7,-0.8 0.8,-0.5 0.7,-0.9 0.8,-0.7 0.7,-0.6 0.8,-1 0.7,-1.1 0.7,-0.6 0.8,-0.6 0.7,-0.6 0.8,-0.8 0.7,-0.4 0.8,-0.5 0.7,-0.3 0.8,-0.2 0.7,0.2 0.8,0.7 0.7,0.9 0.8,0.9 0.7,1.3 0.8,1.1 0.7,1 0.8,0.8 0.7,0.8 0.8,-0.1 0.7,-0.3 0.8,-0.4 0.7,-0.8 0.7,-0.9 0.8,-1.1 0.7,-1.6 0.8,-1.7 0.7,-2.1 0.8,-2.7 0.7,-3.2 0.8,-3.5 0.7,-3.9 0.8,-3.9 0.7,-3.8 0.8,-3.6 0.7,-3.3 0.8,-2.5 0.7,-2.2 0.8,-1.7 0.7,-1.2 0.8,-1 0.7,-0.8 0.8,-0.7 0.7,-0.7 0.7,-0.6 0.8,-0.5 0.7,-0.2 0.8,-0.3 0.7,0.1 0.8,0.1 0.7,0.3 0.8,0.4 0.7,0.7 0.8,0.5 0.7,0.3 0.8,0.3 0.7,0.2 0.8,0.3 0.7,0.2 0.8,0.2 0.7,0.3 0.8,0.4 0.7,0.4 0.7,0.3 0.8,0.2 0.7,0.3 0.8,0.2 0.7,0 0.8,0 0.7,-0.5 0.8,-0.2 0.7,-0.1 0.8,-0.3 0.7,-0.1 0.8,-0.1 0.7,-0.1 0.8,0.1 0.7,0.1 0.8,0.1 0.7,0.1 0.8,-0.1 0.7,0.1 0.8,-0.4 0.7,-0.4 0.7,-0.4 0.8,-0.6 0.7,-0.5 0.8,-0.7 0.7,-0.6 0.8,-0.2 0.7,-0.1 0.8,0.1 0.7,0.5 0.8,0.5 0.7,0.6 0.8,0.7 0.7,0.6 0.8,0.7 0.7,0.2 0.8,0.5 0.7,0.1 0.8,0.2 0.7,0.2 0.8,0.2 0.7,0.2 0.7,0.2 0.8,0.1 0.7,0.1 0.8,0.2 0.7,-0.3 0.8,0 0.7,-0.1 0.8,-0.3 0.7,0.1 0.8,0.1 0.7,0.4 0.8,0.3 0.7,0.7 0.8,0.8 0.7,0.8 0.8,0.8 0.7,0.8 0.8,0.6 0.7,0.3 0.8,0.2 0.7,-0.1 0.7,0 0.8,-0.2 0.7,-0.4 0.8,-0.2 0.7,-0.6 0.8,-0.6 0.7,-0.4 0.8,-0.5 0.7,-0.5 0.8,-0.7 0.7,-0.5 0.8,-0.6 0.7,-0.5 0.8,-0.3 0.7,0 0.8,0.2 0.7,0 0.8,0.2 0.7,0.3 0.8,0.3 0.7,0.4 0.7,0.1 0.8,-0.1 0.7,-0.2 0.8,-0.3 0.7,-0.6 0.8,-0.5 0.7,-0.5 0.8,-0.5 0.7,-0.3 0.8,-0.2 0.7,-0.3 0.8,0.1 0.7,0.3 0.8,0.2 0.7,0.4 0.8,0.5 0.7,0.5 0.8,0.8 0.7,0.5 0.7,0.6 0.8,0.5 0.7,0.4 0.8,0.4 0.7,0.2 0.8,0 0.7,-0.2 0.8,-0.1 0.7,-0.3 0.8,-0.3 0.7,-0.2 0.8,-0.2 0.7,-0.2 0.8,-0.2 0.7,0 0.8,-0.1 0.7,0.1 0.8,-0.1 0.7,0.1 0.8,0.1 0.7,-0.1 0.7,0.2 0.8,0.2 0.7,0.5 0.8,0.2 0.7,0.4 0.8,0.5 0.7,0.2 0.8,0.2 0.7,0 0.8,0.2 0.7,-0.4 0.8,-0.3 0.7,-0.4 0.8,-0.6 0.7,-0.6 0.8,-0.6 0.7,-0.7 0.8,-0.5 0.7,-0.4 0.8,-0.5 0.7,-0.3 0.7,0.1 0.8,-0.1 0.7,0.3 0.8,0.6 0.7,0.4 0.8,0.5 0.7,0.5 0.8,0.5 0.7,0.3 0.8,0.3 0.7,-0.1 0.8,0 0.7,-0.3 0.8,-0.5 0.7,-0.3 0.8,-0.3 0.7,-0.2 0.8,-0.1 0.7,0.1 0.8,0.3 0.7,0.3 0.7,0.2 0.8,0.2 0.7,0.4 0.8,0.1 0.7,0.3 0.8,0.2 0.7,0.3 0.8,0.3 0.7,0.7 0.8,0.6 0.7,0.8 0.8,0.8 0.7,0.9 0.8,0.7 0.7,0.6 0.8,0.1 0.7,0.2 0.8,0.2 0.7,-0.3 0.8,-0.3 0.7,-0.4 0.7,-0.7 0.8,-0.7 0.7,-0.8 0.8,-0.8 0.7,-0.8 0.8,-0.7 0.7,-0.7 0.8,-0.7 0.7,-0.6 0.8,-0.5 0.7,-0.2 0.8,0.1 0.7,-0.2 0.8,-0.4 0.7,-0.2 0.8,0.1 0.7,0.2 0.8,0.3 0.7,0.4 0.7,0.5 0.8,0.6 0.7,0.7 0.8,0.7 0.7,0.7 0.8,0.6 0.7,0.1 0.8,0 0.7,-0.4 0.8,-0.6 0.7,-0.3 0.8,-0.5 0.7,-0.5 0.8,-0.5 0.7,-0.4 0.8,0 0.7,0 0.8,-0.2 0.7,-0.1 0.8,-0.2 0.7,-0.4 0.7,-0.4 0.8,-0.4 0.7,-0.3 0.8,-0.6 0.7,-0.2 0.8,-0.1 0.7,-0.1 0.8,0.3 0.7,0.4 0.8,0.2 0.7,0.4 0.8,0.1 0.7,0.2 0.8,0.2 0.7,0.1 0.8,0.1 0.7,0.2 0.8,0 0.7,0.1 0.8,0.2 0.7,0.3 0.7,0.3 0.8,0.4 0.7,0.4 0.8,0.2 0.7,0.4 0.8,0.4 0.7,0.1 0.8,0.3 0.7,0 0.8,-0.2 0.7,-0.3 0.8,-0.3 0.7,-0.6 0.8,-0.4 0.7,-0.2 0.8,-0.4 0.7,-0.2 0.8,0 0.7,0.1 0.8,0.3 0.7,0.4 0.7,0.4 0.8,0.5 0.7,0.7 0.8,0.6 0.7,0.5 0.8,0.3 0.7,0.3 0.8,0 0.7,-0.2 0.8,-0.5 0.7,-0.9 0.8,-0.9 0.7,-1 0.8,-1 0.7,-0.9 0.8,-0.6 0.7,-0.4 0.8,0 0.7,0.1 0.8,0.4 0.7,0.5 0.7,0.6 0.8,0.6 0.7,0.3 0.8,0.4 0.7,0.7 0.8,0.4 0.7,0.6 0.8,0.4 0.7,0.6 0.8,0.5 0.7,0.5 0.8,0.2 0.7,0 0.8,-0.2 0.7,-0.3 0.8,-0.6 0.7,-0.6 0.8,-0.6 0.7,-0.5 0.7,-0.3 0.8,-0.2 0.7,-0.1 0.8,0.3 0.7,0.6 0.8,0.5 0.7,0.3 0.8,0.5 0.7,0.5 0.8,0.5 0.7,0.4 0.8,0.1 0.7,-0.1 0.8,-0.1 0.7,-0.2 0.8,-0.4 0.7,-0.1 0.8,-0.3 0.7,-0.2 0.8,0 0.7,-0.2 0.7,-0.1 0.8,0.2 0.7,0.1 0.8,-0.1 0.7,0 0.8,-0.2 0.7,-0.4 0.8,-0.2 0.7,-0.4 0.8,-0.3 0.7,-0.2 0.8,-0.4 0.7,-0.2 0.8,-0.1 0.7,0 0.8,-0.2 0.7,0.2 0.8,0 0.7,0 0.8,-0.2 0.7,0.1 0.7,0 0.8,0.2 0.7,0 0.8,0.1 0.7,0.3 0.8,0.2 0.7,0.3 0.8,0.3 0.7,0 0.8,0.1 0.7,-0.1 0.8,-0.3 0.7,-0.4 0.8,-0.4 0.7,-0.5 0.8,-0.5 0.7,-0.5 0.8,-0.6 0.7,-0.1 0.8,-0.2 0.7,-0.1 0.7,-0.1 0.8,0.1 0.7,0.1 0.8,0.2 0.7,0.3 0.8,0.1 0.7,0.2 0.8,0.2 0.7,0.2 0.8,0.3 0.7,0.2 0.8,0.2 0.7,0.4 0.8,0.3 0.7,0.2 0.8,0.6 0.7,0.3 0.8,0.3 0.7,0.2 0.8,0.1 0.7,-0.1 0.7,-0.2 0.8,-0.1 0.7,-0.4 0.8,-0.5 0.7,-0.6 0.8,-0.7 0.7,-0.5 0.8,-0.5 0.7,-0.5 0.8,0 0.7,-0.2 0.8,0 0.7,0.2 0.8,0.3 0.7,0.4 0.8,0.4 0.7,0.2 0.8,0.1 0.7,-0.1 0.8,-0.1 0.7,-0.3 0.7,-0.4 0.8,-0.3 0.7,-0.3 0.8,-0.1 0.7,0 0.8,-0.2 0.7,0.3 0.8,0.1 0.7,0.4 0.8,0.3 0.7,0.2 0.8,0.3 0.7,0.2 0.8,0 0.7,0 0.8,0 0.7,0.1 0.8,0 0.7,0.3 0.7,0.3 0.8,0.3 0.7,0.4 0.8,0.7 0.7,0.4 0.8,0.4 0.7,0.3 0.8,0.2 0.7,0 0.8,-0.3 0.7,-0.3 0.8,-0.5 0.7,-0.5 0.8,-0.6 0.7,-0.5 0.8,-0.6 0.7,-0.6 0.8,-0.5 0.7,-0.6 0.8,-0.5 0.7,-0.3 0.7,-0.3 0.8,-0.2 0.7,-0.1 0.8,0.1 0.7,0.2 0.8,0.3 0.7,0.5 0.8,0.4 0.7,0.4 0.8,0.3 0.7,0.4 0.8,0.3 0.7,0.1 0.8,0.3 0.7,0 0.8,0 0.7,-0.2 0.8,-0.2 0.7,-0.4 0.8,-0.3 0.7,-0.3 0.7,-0.4 0.8,-0.4 0.7,-0.2 0.8,-0.2 0.7,0 0.8,0 0.7,-0.1 0.8,0.2 0.7,0 0.8,-0.1 0.7,0.1 0.8,0.2 0.7,0.1 0.8,0.2 0.7,0.2 0.8,0.4 0.7,-0.1 0.8,0.5 0.7,0.6 0.8,0.4 0.7,0.4 0.7,0.4 0.8,0.4 0.7,0.4 0.8,0.2 0.7,0.2 0.8,0 0.7,-0.3 0.8,-0.4 0.7,-0.3 0.8,-0.3 0.7,-0.1 0.8,-0.3 0.7,0.4 0.8,0 0.7,0.4 0.8,0.4 0.7,0.5 0.8,0.4 0.7,0 0.8,0.1 0.7,-0.2 0.7,-0.4 0.8,-0.5 0.7,-0.3 0.8,-0.6 0.7,-0.5 0.8,-0.3 0.7,-0.4 0.8,-0.1 0.7,-0.2 0.8,0 0.7,-0.1 0.8,0.1 0.7,-0.1 0.8,-0.1 0.7,-0.2 0.8,-0.3 0.7,-0.2 0.8,-0.4 0.7,-0.2 0.7,-0.5 0.8,-0.3 0.7,-0.3 0.8,-0.5 0.7,-0.2 0.8,-0.3 0.7,-0.3 0.8,-0.1 0.7,0 0.8,-0.1 0.7,0.1 0.8,0.2 0.7,0.4 0.8,0.3 0.7,0.4 0.8,0.5 0.7,0.2 0.8,0.3 0.7,0.2 0.8,0 0.7,-0.2 0.7,0 0.8,-0.2 0.7,-0.1 0.8,-0.2 0.7,0 0.8,0.2 0.7,0.1 0.8,0.3 0.7,0.3 0.8,0.3 0.7,0.3 0.8,0 0.7,0.3 0.8,0 0.7,-0.1 0.8,-0.1 0.7,0 0.8,-0.2 0.7,0.3 0.8,0.3 0.7,0.5 0.7,0.7 0.8,0.7 0.7,0.6 0.8,0.6 0.7,0.6 0.8,0.2 0.7,0 0.8,0 0.7,-0.6 0.8,-0.6 0.7,-0.8 0.8,-0.6 0.7,-0.3 0.8,-0.2 0.7,-0.2 0.8,0 0.7,0.1 0.8,0.2 0.7,0.3 0.8,0.3 0.7,-0.1 0.7,-0.2 0.8,-0.4 0.7,-0.4 0.8,-0.6 0.7,-0.5 0.8,-0.4 0.7,-0.4 0.8,-0.4 0.7,-0.3 0.8,0.2 0.7,0.3 0.8,0.3 0.7,0.4 0.8,0.4 0.7,0.2 0.8,0.3 0.7,0.3 0.8,0.2 0.7,0.3 0.8,0.2 0.7,0.3 0.7,0.3 0.8,0.3 0.7,0.2 0.8,0.4 0.7,0.1 0.8,-0.1 0.7,-0.2 0.8,-0.4 0.7,-0.3 0.8,-0.6 0.7,-0.5 0.8,-0.2 0.7,-0.3 0.8,-0.2 0.7,0 0.8,0 0.7,0.2 0.8,0.2 0.7,0.2 0.7,0 0.8,-0.3 0.7,-0.1 0.8,-0.2 0.7,-0.3 0.8,-0.3 0.7,-0.3 0.8,-0.1 0.7,-0.1 0.8,-0.2 0.7,0 0.8,0 0.7,0 0.8,-0.2 0.7,-0.2 0.8,-0.5 0.7,-0.4 0.8,-0.4 0.7,-0.3 0.8,-0.5 0.7,-0.1 0.7,0.3 0.8,0.4 0.7,0.6 0.8,0.9 0.7,1 0.8,1 0.7,0.9 0.8,0.7 0.7,0.6 0.8,0.4 0.7,0.2 0.8,-0.1 0.7,-0.2 0.8,-0.3 0.7,-0.3 0.8,0 0.7,-0.5 0.8,-0.5 0.7,-0.2 0.8,-0.4 0.7,-0.6 0.7,-0.4 0.8,-0.6 0.7,-0.4 0.8,-0.5 0.7,-0.6 0.8,-0.3 0.7,-0.1 0.8,0.2 0.7,0.2 0.8,0.5 0.7,0.4 0.8,0.5 0.7,0.5 0.8,0.4 0.7,0.3 0.8,0.2 0.7,0.2 0.8,0 0.7,0 0.8,-0.3 0.7,0 0.7,0.2 0.8,-0.2 0.7,0.2 0.8,0.1 0.7,0 0.8,0 0.7,0.4 0.8,0.1 0.7,0.2 0.8,0 0.7,-0.1 0.8,0 0.7,-0.1 0.8,-0.1 0.7,0 0.8,-0.2 0.7,-0.1 0.8,0.1 0.7,0.2 0.8,0.1 0.7,0.2 0.7,0.5 0.8,0.3 0.7,0.1 0.8,0.2 0.7,0 0.8,0.1 0.7,0 0.8,-0.2 0.7,-0.2 0.8,-0.4 0.7,-0.4 0.8,-0.1 0.7,-0.3 0.8,-0.3 0.7,-0.2 0.8,-0.2 0.7,-0.1 0.8,-0.3 0.7,-0.3 0.7,0 0.8,-0.1 0.7,-0.1 0.8,-0.2 0.7,-0.4 0.8,-0.2 0.7,-0.1 0.8,-0.1 0.7,-0.1 0.8,-0.5 0.7,-0.1 0.8,0 0.7,0 0.8,0 0.7,0 0.8,0.2 0.7,0.3 0.8,0.3 0.7,0.2 0.8,0.2 0.7,0.2 0.7,0.1 0.8,0 0.7,-0.1 0.8,-0.2 0.7,-0.2 0.8,-0.1 0.7,-0.5"
     id="path4816" />
  <path
     style="fill:none;stroke:#000000;stroke-width:2.49999996;stroke-miterlimit:4;stroke-dasharray:7.49999989,7.49999989;stroke-dashoffset:0"
     d="m 235.29342,1868.704 3.7,-17.7 3.8,-18.2 3.7,-18.3 3.7,-18.3 3.8,-17.6 3.7,-16.8 3.8,-15.4 3.7,-13.8 3.7,-14.8 3.8,-11 3.7,-8.2 3.8,-6.6 3.7,-5.4 3.7,-4.7 3.8,-4 3.7,-3.2 3.7,-2.4 3.8,-1.9 3.7,-1.5 3.8,-1.3 3.7,-0.9 3.7,-0.8 3.8,-0.6 3.7,-0.6 3.7,-0.6 3.8,-0.8 3.7,-1.1 3.8,-1.3 3.7,-0.8 3.7,-1.3 3.8,-2.1 3.7,-2.2 3.7,-2.8 3.8,-3.4 3.7,-4.1 3.8,-4.3 3.7,-4.6 3.7,-4.9 3.8,-4.5 3.7,-4.1 3.8,-3.6 3.7,-2.7 3.7,-1.8 3.8,-1.5 3.7,-0.8 3.7,-0.6 3.8,-0.2 3.7,0 3.8,-0.3 3.7,-0.4 3.7,-0.3 3.8,-0.4 3.7,-0.4 3.7,-0.4 3.8,-0.2 3.7,-0.2 3.8,-0.1 3.7,0.2 3.7,0.1 3.8,0.3 3.7,0.4 3.7,0.4 3.8,0.4 3.7,0.1 3.8,0.3 3.7,0.1 3.7,-0.1 3.8,-0.3 3.7,-0.1 3.7,-0.2 3.8,-0.2 3.7,0 3.8,-0.2 3.7,0.1 3.7,0.1 3.8,0.1 3.7,0 3.8,0.1 3.7,-0.2 3.7,-0.4 3.8,-0.1 3.7,-0.4 3.7,-0.2 3.8,-0.1 3.7,0 3.8,0 3.7,0.1 3.7,0.3 3.8,0.2 3.7,0.3 3.7,0.1 3.8,0.2 3.7,0.2 3.8,0.1 3.7,0.2 3.7,0.2 3.8,0.2 3.7,0.1 3.7,0.2 3.8,0.1 3.7,0 3.8,-0.2 3.7,-0.1 3.7,-0.3 3.8,-0.5 3.7,-0.5 3.7,-0.4 3.8,-0.5 3.7,-0.4 3.8,-0.2 3.7,-0.2 3.7,-0.2 3.8,0.2 3.7,0.5 3.8,0.4 3.7,0.4 3.7,0.3 3.8,0.3 3.7,0.1 3.7,-0.2 3.8,-0.3 3.7,-0.5 3.8,-0.6 3.7,-0.7 3.7,-0.3 3.8,-0.3 3.7,-0.2 3.7,0.2 3.8,0.6 3.7,0.4 3.8,0.5 3.7,0.7 3.7,0.5 3.8,0.1 3.7,-0.1 3.7,-0.1 3.8,-0.3 3.7,-0.5 3.8,-0.5 3.7,-0.5 3.7,-0.5 3.8,-0.4 3.7,-0.2 3.8,0 3.7,-0.1 3.7,0 3.8,0 3.7,0.3 3.7,0.2 3.8,0.3 3.7,0.3 3.8,0.4 3.7,0.2 3.7,0.2 3.8,0.3 3.7,0.1 3.7,0.1 3.8,-0.1 3.7,-0.4 3.8,-0.4 3.7,-0.4 3.7,-0.4 3.8,-0.5 3.7,-0.2 3.7,-0.4 3.8,0 3.7,0.4 3.8,0.3 3.7,0.5 3.7,0.7 3.8,0.8 3.7,0.6 3.7,0.8 3.8,0.5 3.7,0.6 3.8,0.3 3.7,0.4 3.7,0.2 3.8,0 3.7,0.1 3.8,-0.2 3.7,0 3.7,-0.3 3.8,-0.4 3.7,-0.6 3.7,-0.6 3.8,-0.6 3.7,-0.9 3.8,-0.6 3.7,-0.8 3.7,-0.7 3.8,-0.7 3.7,-0.5 3.7,-0.6 3.8,-0.4 3.7,-0.2 3.8,-0.3 3.7,-0.2 3.7,-0.3"
     id="path4814" />
  <path
     style="fill:none;stroke:#008000;stroke-width:2.5;stroke-miterlimit:4;stroke-dasharray:none;marker-end:"
     d="m 232.29342,2143.204 0.8,-6.9 0.7,-7.6 0.7,-8.3 0.8,-9.1 0.7,-9.5 0.8,-9.7 0.7,-9.7 0.8,-9.6 0.7,-9.9 0.8,-9 0.7,-7.5 0.8,-6.2 0.7,-5.3 0.8,-3.9 0.7,-3.3 0.8,-2.8 0.7,-2.5 0.8,-2 0.7,-1.6 0.8,-2 0.7,-1.9 0.8,-1.7 0.7,-1.6 0.7,-1.4 0.8,-0.8 0.7,-0.5 0.8,-0.4 0.7,0.1 0.8,0.3 0.7,0.3 0.8,0 0.7,-0.2 0.8,0.1 0.7,-0.2 0.8,-0.3 0.7,-0.3 0.8,0.5 0.7,0.9 0.8,0.6 0.7,1 0.8,1.1 0.7,0.7 0.8,0.7 0.7,0.5 0.7,-0.5 0.8,-1.3 0.7,-1.2 0.8,-1.8 0.7,-1.4 0.8,-1.8 0.7,-1.5 0.8,-1.1 0.7,-1.1 0.8,-0.6 0.7,-0.6 0.8,0.5 0.7,0 0.8,0.3 0.7,0.4 0.8,0.1 0.7,0.3 0.8,0.8 0.7,0.4 0.8,0.2 0.7,0.2 0.7,0 0.8,0.4 0.7,0 0.8,-0.3 0.7,0.3 0.8,-0.2 0.7,0.2 0.8,-0.5 0.7,-0.2 0.8,0.1 0.7,-0.1 0.8,0.1 0.7,-0.2 0.8,0.1 0.7,0.3 0.8,0.3 0.7,0.4 0.8,0 0.7,0 0.8,-0.3 0.7,-0.3 0.7,-1.3 0.8,-1.4 0.7,-1.5 0.8,-1.2 0.7,-1.1 0.8,-1.4 0.7,-0.6 0.8,-0.5 0.7,-0.1 0.8,0.1 0.7,0.3 0.8,0.2 0.7,0 0.8,0 0.7,-0.2 0.8,-0.1 0.7,-0.4 0.8,-0.3 0.7,0 0.8,-0.7 0.7,-0.3 0.7,-0.4 0.8,-0.3 0.7,-0.6 0.8,-0.2 0.7,-0.1 0.8,0.4 0.7,0.9 0.8,0.9 0.7,1 0.8,1.2 0.7,1.1 0.8,0.8 0.7,0.7 0.8,0.1 0.7,-0.4 0.8,-0.2 0.7,0 0.8,-0.1 0.7,0.2 0.7,1 0.8,0.6 0.7,1 0.8,1 0.7,0.7 0.8,0.2 0.7,0.6 0.8,-0.1 0.7,-0.1 0.8,-0.3 0.7,0 0.8,-0.1 0.7,-0.1 0.8,-0.2 0.7,-0.5 0.8,-0.4 0.7,-0.8 0.8,-1.1 0.7,-1.2 0.8,-1.4 0.7,-1 0.7,-0.9 0.8,-0.3 0.7,-0.2 0.8,0 0.7,0.4 0.8,0.7 0.7,0.7 0.8,0.9 0.7,0.8 0.8,0.7 0.7,0.8 0.8,1.5 0.7,1 0.8,0.6 0.7,1 0.8,0.5 0.7,-0.2 0.8,-0.1 0.7,-0.7 0.8,-1.1 0.7,-1.2 0.7,-1.6 0.8,-1.4 0.7,-1 0.8,-0.4 0.7,-0.2 0.8,0.3 0.7,0.7 0.8,0.6 0.7,0.9 0.8,1.3 0.7,0.8 0.8,0.6 0.7,0.3 0.8,-0.3 0.7,-0.3 0.8,-0.5 0.7,-0.5 0.8,-0.4 0.7,-0.6 0.8,-0.2 0.7,0.1 0.7,0.6 0.8,0.8 0.7,0.9 0.8,1.1 0.7,1.3 0.8,1 0.7,0.5 0.8,0.4 0.7,-0.2 0.8,-0.3 0.7,-1.3 0.8,-1.6 0.7,-1.7 0.8,-2.1 0.7,-1.8 0.8,-2.2 0.7,-1.5 0.8,-0.8 0.7,-1 0.8,-0.1 0.7,0 0.7,0.6 0.8,1.1 0.7,1.5 0.8,1.6 0.7,2 0.8,1.7 0.7,1.9 0.8,1.7 0.7,1.4 0.8,1.5 0.7,1.2 0.8,0.5 0.7,0.2 0.8,-0.2 0.7,0.1 0.8,-0.5 0.7,-0.8 0.8,-0.7 0.7,-0.8 0.7,-1.1 0.8,-1.2 0.7,-1.1 0.8,-1.4 0.7,-0.8 0.8,-1 0.7,-0.7 0.8,-0.7 0.7,0 0.8,0.2 0.7,0.2 0.8,0.2 0.7,0.6 0.8,0.5 0.7,0.6 0.8,0.2 0.7,0.4 0.8,0.5 0.7,0.2 0.8,0 0.7,0.5 0.7,0.1 0.8,0.3 0.7,0.1 0.8,-0.2 0.7,-0.3 0.8,0.2 0.7,-0.2 0.8,-0.1 0.7,-0.4 0.8,-0.3 0.7,-0.5 0.8,-0.4 0.7,-0.9 0.8,-0.8 0.7,-0.6 0.8,-0.9 0.7,-1 0.8,-0.8 0.7,-0.4 0.8,-0.3 0.7,-0.1 0.7,0 0.8,0.2 0.7,0.4 0.8,0.8 0.7,0.5 0.8,0.8 0.7,0.6 0.8,0.6 0.7,0.7 0.8,0.8 0.7,0.8 0.8,0.5 0.7,0.1 0.8,0 0.7,-0.1 0.8,-0.4 0.7,-0.4 0.8,-0.4 0.7,-1 0.8,-0.7 0.7,-0.7 0.7,-0.4 0.8,-0.1 0.7,0.2 0.8,0 0.7,0.4 0.8,-0.1 0.7,0.1 0.8,0.5 0.7,0.4 0.8,0.2 0.7,0.1 0.8,0.5 0.7,0.2 0.8,0.4 0.7,0.4 0.8,0.2 0.7,0 0.8,-0.1 0.7,-0.4 0.8,-1 0.7,-0.6 0.7,-0.8 0.8,-0.7 0.7,-0.6 0.8,-0.4 0.7,-0.2 0.8,0 0.7,0.3 0.8,0.3 0.7,0.4 0.8,0 0.7,-0.1 0.8,-0.4 0.7,-0.6 0.8,-0.6 0.7,-1 0.8,-0.7 0.7,-0.8 0.8,-0.7 0.7,-0.2 0.7,0.2 0.8,0.4 0.7,0.8 0.8,1.2 0.7,1.4 0.8,1.4 0.7,1.7 0.8,1.9 0.7,1.5 0.8,1.2 0.7,1.3 0.8,0.9 0.7,0.5 0.8,0.2 0.7,-0.3 0.8,-0.8 0.7,-1.1 0.8,-1.6 0.7,-1.6 0.8,-1.6 0.7,-1.8 0.7,-1.7 0.8,-1.1 0.7,-0.8 0.8,-0.4 0.7,0.4 0.8,0.4 0.7,0.6 0.8,0.7 0.7,0.7 0.8,0.6 0.7,-0.1 0.8,0.1 0.7,-0.3 0.8,-0.6 0.7,-0.4 0.8,-1.2 0.7,-0.7 0.8,-0.1 0.7,0 0.8,-0.1 0.7,0.4 0.7,0.4 0.8,1 0.7,0.7 0.8,0.7 0.7,0.8 0.8,0.6 0.7,0.3 0.8,-0.3 0.7,0.2 0.8,0 0.7,-0.2 0.8,0.2 0.7,0.2 0.8,-0.3 0.7,0 0.8,0.2 0.7,0 0.8,-0.1 0.7,-0.6 0.8,-0.1 0.7,-0.5 0.7,-0.5 0.8,-0.3 0.7,0 0.8,0.3 0.7,0 0.8,0.6 0.7,0.9 0.8,1.1 0.7,1 0.8,0.9 0.7,0.9 0.8,0.3 0.7,0.5 0.8,-0.2 0.7,-0.5 0.8,-1.1 0.7,-0.7 0.8,-0.7 0.7,-0.5 0.8,-0.6 0.7,0.4 0.7,0.2 0.8,0.7 0.7,1 0.8,0.9 0.7,0.7 0.8,0.6 0.7,0.3 0.8,0.4 0.7,-0.3 0.8,0 0.7,-0.2 0.8,-0.3 0.7,-0.5 0.8,-0.4 0.7,-0.3 0.8,0 0.7,-0.2 0.8,0.3 0.7,0.1 0.7,0.3 0.8,0.4 0.7,0.8 0.8,0.7 0.7,0.3 0.8,0.1 0.7,-0.4 0.8,-0.4 0.7,-0.8 0.8,-1 0.7,-1.3 0.8,-1 0.7,-1.3 0.8,-0.8 0.7,-0.9 0.8,-0.5 0.7,-0.2 0.8,-0.3 0.7,0 0.8,-0.4 0.7,0 0.7,-0.4 0.8,-0.5 0.7,-0.2 0.8,-0.5 0.7,-0.5 0.8,-0.1 0.7,0.3 0.8,0.4 0.7,1 0.8,1.2 0.7,1.8 0.8,1.3 0.7,1.7 0.8,1.5 0.7,1 0.8,0.8 0.7,-0.1 0.8,0 0.7,-0.9 0.8,-0.9 0.7,-0.5 0.7,-1 0.8,-1.3 0.7,-1.1 0.8,-1.3 0.7,-1.1 0.8,-1.3 0.7,-1.2 0.8,-0.8 0.7,-1.1 0.8,-0.7 0.7,-0.2 0.8,0.2 0.7,0.8 0.8,1 0.7,1.6 0.8,1.4 0.7,1.7 0.8,2 0.7,1.2 0.8,1.3 0.7,1.4 0.7,0.7 0.8,0.9 0.7,0.5 0.8,0.7 0.7,0.6 0.8,0.5 0.7,0.5 0.8,0.6 0.7,0.9 0.8,0.4 0.7,0.3 0.8,-0.2 0.7,-0.7 0.8,-0.8 0.7,-0.8 0.8,-1.3 0.7,-1.9 0.8,-1.5 0.7,-1.5 0.8,-1.2 0.7,-1.1 0.7,-0.9 0.8,-0.3 0.7,-0.3 0.8,-0.1 0.7,-0.4 0.8,-0.2 0.7,-0.1 0.8,0.1 0.7,-0.1 0.8,-0.1 0.7,-0.1 0.8,-0.1 0.7,0.3 0.8,0 0.7,-0.1 0.8,0 0.7,0 0.8,-0.3 0.7,-0.4 0.7,-0.2 0.8,-0.4 0.7,0 0.8,-0.2 0.7,-0.2 0.8,-0.2 0.7,-0.3 0.8,-0.1 0.7,-0.1 0.8,0 0.7,0 0.8,0.5 0.7,0.5 0.8,0.8 0.7,1.1 0.8,1.5 0.7,1.3 0.8,1 0.7,0.8 0.8,0.7 0.7,0 0.7,-0.2 0.8,-0.7 0.7,-0.8 0.8,-1.2 0.7,-1 0.8,-1 0.7,-0.5 0.8,-0.7 0.7,-0.4 0.8,0 0.7,-0.1 0.8,0.1 0.7,0.2 0.8,0 0.7,-0.1 0.8,-0.7 0.7,0 0.8,-0.5 0.7,-0.5 0.8,-0.3 0.7,0.2 0.7,0 0.8,0.7 0.7,0.8 0.8,1 0.7,1 0.8,0.9 0.7,1.3 0.8,0.6 0.7,0.1 0.8,0.3 0.7,0.1 0.8,0 0.7,-0.6 0.8,-0.3 0.7,0.2 0.8,-0.2 0.7,-0.3 0.8,-0.3 0.7,-0.3 0.8,-0.5 0.7,-0.6 0.7,-0.7 0.8,-0.9 0.7,-0.9 0.8,-0.6 0.7,-0.5 0.8,-0.7 0.7,-0.4 0.8,0 0.7,0.6 0.8,0.6 0.7,0.9 0.8,1.2 0.7,1.2 0.8,1.6 0.7,0.9 0.8,1.3 0.7,1 0.8,0.9 0.7,0.3 0.8,0 0.7,0 0.7,-0.1 0.8,0.1 0.7,0 0.8,-0.1 0.7,0.3 0.8,-0.1 0.7,0.2 0.8,-0.1 0.7,0.2 0.8,-0.4 0.7,-0.1 0.8,-0.7 0.7,-0.5 0.8,-1.1 0.7,-0.9 0.8,-1.1 0.7,-0.9 0.8,-0.9 0.7,-0.6 0.8,-0.4 0.7,0 0.7,0.1 0.8,0.2 0.7,0 0.8,0.6 0.7,0 0.8,0 0.7,-0.8 0.8,-1 0.7,-0.9 0.8,-1 0.7,-0.9 0.8,-0.3 0.7,0 0.8,0.2 0.7,0.9 0.8,1 0.7,1.4 0.8,1.3 0.7,1.9 0.7,1.2 0.8,0.8 0.7,0.5 0.8,0.6 0.7,0.3 0.8,0 0.7,-0.2 0.8,0.1 0.7,-0.2 0.8,-0.5 0.7,-0.3 0.8,0 0.7,-0.2 0.8,-0.3 0.7,-0.4 0.8,0 0.7,-0.5 0.8,-0.2 0.7,-0.1 0.8,-0.4 0.7,-0.3 0.7,-0.2 0.8,0.1 0.7,0 0.8,0.2 0.7,0.7 0.8,0.9 0.7,0.7 0.8,0.4 0.7,0.8 0.8,0.7 0.7,0.2 0.8,-0.2 0.7,-0.3 0.8,-0.6 0.7,-1.2 0.8,-0.8 0.7,-1.3 0.8,-0.9 0.7,-1 0.8,-0.8 0.7,-0.5 0.7,0.2 0.8,0.4 0.7,0.7 0.8,1.2 0.7,1 0.8,1.3 0.7,1.4 0.8,0.6 0.7,0.2 0.8,0.1 0.7,-0.6 0.8,-0.8 0.7,-1.3 0.8,-1.6 0.7,-1.3 0.8,-0.9 0.7,-0.5 0.8,-0.6 0.7,-0.1 0.8,0 0.7,0.4 0.7,0.5 0.8,0.2 0.7,0.1 0.8,0.1 0.7,-0.4 0.8,-0.8 0.7,-0.7 0.8,-1.1 0.7,-0.8 0.8,-1 0.7,-0.4 0.8,-0.5 0.7,-0.2 0.8,0.7 0.7,0.7 0.8,1.5 0.7,1.1 0.8,1 0.7,1.3 0.8,1.2 0.7,0.8 0.7,0.4 0.8,0.4 0.7,0.2 0.8,0 0.7,-0.2 0.8,0.2 0.7,-0.2 0.8,0.3 0.7,0 0.8,0.2 0.7,0.3 0.8,-0.4 0.7,0.1 0.8,-0.3 0.7,-0.9 0.8,-0.7 0.7,-1 0.8,-0.7 0.7,-1.5 0.7,-1 0.8,-0.7 0.7,-0.8 0.8,-0.7 0.7,-0.3 0.8,0 0.7,0 0.8,0.4 0.7,0.5 0.8,0.8 0.7,0.5 0.8,1.4 0.7,1.1 0.8,0.8 0.7,1 0.8,0.3 0.7,0.6 0.8,0.1 0.7,-0.3 0.8,-0.4 0.7,-0.7 0.7,-1.2 0.8,-1 0.7,-0.7 0.8,-0.8 0.7,-0.5 0.8,-0.5 0.7,0.1 0.8,0.1 0.7,0.9 0.8,0.7 0.7,1.2 0.8,1.4 0.7,1.4 0.8,1.1 0.7,1.3 0.8,0.9 0.7,0.5 0.8,0.2 0.7,-0.1 0.8,-0.8 0.7,-0.3 0.7,-0.4 0.8,-0.4 0.7,-0.3 0.8,-0.2 0.7,-0.3 0.8,0.2 0.7,0.1 0.8,0.1 0.7,-0.5 0.8,-0.4 0.7,-0.7 0.8,-0.3 0.7,-0.6 0.8,-0.5 0.7,-0.1 0.8,0 0.7,-0.2 0.8,-0.1 0.7,0.2 0.8,0.6 0.7,0.1 0.7,0.6 0.8,0.3 0.7,0.2 0.8,0.3 0.7,0.6 0.8,0.3 0.7,-0.2 0.8,-0.8 0.7,-0.7 0.8,-0.5 0.7,-1.2 0.8,-0.7 0.7,-0.9 0.8,-0.5 0.7,-0.4 0.8,0 0.7,0.7 0.8,0.3 0.7,0.6 0.8,0.4 0.7,0.4 0.7,0.1 0.8,0.1 0.7,0.3 0.8,0.7 0.7,0.2 0.8,0 0.7,0.3 0.8,-0.3 0.7,0 0.8,-0.3 0.7,-0.9 0.8,-0.8 0.7,-0.8 0.8,-0.5 0.7,-0.2 0.8,0.2 0.7,1.1 0.8,1.5 0.7,1.9 0.7,1.5 0.8,1 0.7,0.7 0.8,-0.1 0.7,-0.3 0.8,-1.2 0.7,-1.9 0.8,-2.1 0.7,-1.6 0.8,-1.6 0.7,-1.2 0.8,-0.3 0.7,0.1 0.8,0.8 0.7,0.6 0.8,0.8 0.7,1.1 0.8,1 0.7,0.9 0.8,0.7 0.7,0.6 0.7,0.3 0.8,0.1 0.7,0.1 0.8,0.2 0.7,0.1 0.8,-0.3 0.7,-0.1 0.8,-0.4 0.7,-0.1 0.8,-0.9 0.7,0 0.8,-0.7 0.7,-0.7 0.8,-0.6 0.7,-0.4 0.8,-0.3 0.7,-0.3 0.8,-0.1 0.7,0.5 0.8,0.1 0.7,0 0.7,0.3 0.8,0.3 0.7,0.1 0.8,0.1 0.7,0.3 0.8,0.4 0.7,0.5 0.8,0.8 0.7,1 0.8,1.1 0.7,0.9 0.8,0.6 0.7,0.6 0.8,-0.5 0.7,-0.8 0.8,-1.3 0.7,-1.5 0.8,-1.6 0.7,-1.3 0.8,-0.8 0.7,-0.7 0.7,0.2 0.8,1 0.7,1.1 0.8,1.2 0.7,1.2 0.8,0.9 0.7,0.3 0.8,-0.1 0.7,-1.1 0.8,-0.6 0.7,-1.1 0.8,-1 0.7,-0.7 0.8,-0.4 0.7,0.3 0.8,0.8 0.7,1.1 0.8,1.1 0.7,1.4 0.8,1.6 0.7,1.3 0.7,0.8 0.8,0.4 0.7,0.1 0.8,0.4 0.7,-0.3 0.8,-0.6 0.7,-0.4 0.8,-0.2 0.7,-0.3 0.8,-0.2 0.7,-0.2 0.8,-0.1 0.7,0.3 0.8,0.4 0.7,0 0.8,-0.1 0.7,0.4 0.8,0.6 0.7,0.8 0.7,0.3 0.8,0.2 0.7,0.7 0.8,0.4 0.7,0.2 0.8,-0.2 0.7,-0.7 0.8,-1.1 0.7,-1.6 0.8,-2.3 0.7,-1.8 0.8,-2 0.7,-1.8 0.8,-1.7 0.7,-1.3 0.8,-0.6 0.7,0.1 0.8,0.9 0.7,0.9 0.8,0.9 0.7,1.1 0.7,0.9 0.8,0.7 0.7,0.5 0.8,0.2 0.7,-0.2 0.8,0 0.7,-1.4"
     id="path4812" />
  <path
     style="fill:none;stroke:#008000;stroke-width:2.49999996;stroke-miterlimit:4;stroke-dasharray:7.49999989,7.49999989;stroke-dashoffset:0"
     d="m 235.29342,2053.804 3.7,-3.7 3.8,-3.7 3.7,-3.7 3.7,-3.1 3.8,-2.9 3.7,-2.7 3.8,-2 3.7,-1.6 3.7,-1.8 3.8,-0.6 3.7,-0.2 3.8,-0.1 3.7,0.2 3.7,0.4 3.8,0.3 3.7,0.3 3.7,0.2 3.8,0.2 3.7,-0.3 3.8,0 3.7,-0.4 3.7,0.2 3.8,-0.1 3.7,-0.1 3.7,0.1 3.8,0.3 3.7,0.7 3.8,0.7 3.7,0.7 3.7,0.7 3.8,0 3.7,-0.2 3.7,-0.5 3.8,-0.8 3.7,-1.4 3.8,-0.9 3.7,-1.5 3.7,-0.9 3.8,-0.9 3.7,0.1 3.8,0.1 3.7,0.7 3.7,0.8 3.8,0.8 3.7,0.8 3.7,0.6 3.8,0.4 3.7,0.2 3.8,-0.2 3.7,-0.2 3.7,-0.4 3.8,-0.2 3.7,-0.5 3.7,-0.3 3.8,-0.5 3.7,-0.2 3.8,-0.3 3.7,0 3.7,-0.2 3.8,-0.1 3.7,0 3.7,0.1 3.8,0.4 3.7,0.2 3.8,0.4 3.7,0.4 3.7,0.4 3.8,0.3 3.7,0.2 3.7,0 3.8,0.1 3.7,0 3.8,-0.2 3.7,-0.2 3.7,-0.3 3.8,-0.4 3.7,-0.5 3.8,-0.4 3.7,-0.6 3.7,-0.8 3.8,-0.6 3.7,-0.7 3.7,-0.7 3.8,-0.5 3.7,-0.2 3.8,0.2 3.7,0.5 3.7,0.6 3.8,0.7 3.7,0.9 3.7,0.7 3.8,0.5 3.7,0.3 3.8,-0.1 3.7,-0.4 3.7,-0.7 3.8,-1 3.7,-0.9 3.7,-0.9 3.8,-0.7 3.7,-0.4 3.8,-0.5 3.7,0 3.7,0.1 3.8,0.3 3.7,0.5 3.7,0.8 3.8,0.9 3.7,0.7 3.8,0.6 3.7,0.7 3.7,0.3 3.8,0.3 3.7,0.2 3.8,-0.2 3.7,-0.2 3.7,-0.3 3.8,-0.3 3.7,0.1 3.7,-0.1 3.8,0.1 3.7,0.2 3.8,0.2 3.7,0.1 3.7,0 3.8,0.5 3.7,-0.2 3.7,0 3.8,0 3.7,-0.2 3.8,-0.1 3.7,-0.1 3.7,-0.2 3.8,-0.2 3.7,-0.3 3.7,-0.4 3.8,-0.3 3.7,-0.2 3.8,-0.1 3.7,-0.1 3.7,0 3.8,0.6 3.7,0.5 3.8,1 3.7,0.7 3.7,0.9 3.8,0.9 3.7,0.8 3.7,0.6 3.8,0.8 3.7,0.2 3.8,0.1 3.7,0.1 3.7,0 3.8,-0.1 3.7,-0.2 3.7,0.1 3.8,-0.2 3.7,-0.4 3.8,-0.4 3.7,-0.1 3.7,0.1 3.8,-0.4 3.7,0 3.7,-0.2 3.8,0 3.7,0 3.8,0.5 3.7,0.2 3.7,0.2 3.8,0.4 3.7,0.1 3.7,0.4 3.8,0.2 3.7,0.5 3.8,0.1 3.7,0.4 3.7,-0.2 3.8,-0.3 3.7,-0.2 3.8,-0.3 3.7,-0.6 3.7,-0.4 3.8,-0.6 3.7,-0.9 3.7,-0.3 3.8,-0.2 3.7,0.1 3.8,0.2 3.7,0.1 3.7,0.6 3.8,0.3 3.7,0.4 3.7,0.3 3.8,0.5 3.7,0.3 3.8,0.2 3.7,0.1 3.7,0.3"
     id="path4810" />
  <path
     style="fill:none;stroke:#ff0000;stroke-width:2.49999996;stroke-miterlimit:4;stroke-dasharray:7.49999989,7.49999989;stroke-dashoffset:0"
     d="m 235.29342,1886.704 3.7,-15.3 3.8,-15.1 3.7,-15.6 3.7,-14.9 3.8,-14.5 3.7,-13.9 3.8,-12.4 3.7,-11.2 3.7,-12.1 3.8,-8.8 3.7,-6.4 3.8,-5.2 3.7,-4.4 3.7,-3.7 3.8,-3.4 3.7,-3 3.7,-2.6 3.8,-1.9 3.7,-2.5 3.8,-2.1 3.7,-2.5 3.7,-2 3.8,-1.6 3.7,-2 3.7,-1.2 3.8,-1.1 3.7,-0.9 3.8,-0.5 3.7,0 3.7,0.2 3.8,0.1 3.7,0.9 3.7,0.5 3.8,0.6 3.7,0.1 3.8,0.9 3.7,0.7 3.7,0.6 3.8,0.7 3.7,0.5 3.8,0.5 3.7,0.4 3.7,0.2 3.8,-0.4 3.7,-0.6 3.7,-1 3.8,-1.4 3.7,-1.5 3.8,-2.4 3.7,-1.7 3.7,-1.8 3.8,-1.5 3.7,-1.6 3.7,-1.3 3.8,-0.6 3.7,-0.4 3.8,-0.4 3.7,0 3.7,0 3.8,0 3.7,0.1 3.7,0.1 3.8,-0.3 3.7,-0.6 3.8,-0.7 3.7,-0.7 3.7,-1.2 3.8,-1.2 3.7,-1.3 3.7,-1.2 3.8,-1 3.7,-0.8 3.8,-0.1 3.7,0.3 3.7,-0.1 3.8,0.4 3.7,0.4 3.8,0.6 3.7,-0.2 3.7,-0.1 3.8,-0.1 3.7,-0.7 3.7,-0.8 3.8,-0.7 3.7,-0.4 3.8,0 3.7,0 3.7,-0.2 3.8,0.3 3.7,0.2 3.7,0.5 3.8,0.1 3.7,0.2 3.8,0.1 3.7,-0.3 3.7,0.1 3.8,-0.3 3.7,-0.2 3.7,-0.3 3.8,-0.3 3.7,-0.5 3.8,-0.4 3.7,-0.4 3.7,0 3.8,0.1 3.7,-0.1 3.7,0.1 3.8,0.7 3.7,0.7 3.8,0.6 3.7,0.5 3.7,0.3 3.8,0.6 3.7,0.2 3.8,-0.2 3.7,-0.1 3.7,-0.3 3.8,-0.3 3.7,-0.9 3.7,-0.8 3.8,-0.9 3.7,-1 3.8,-0.8 3.7,-0.9 3.7,-0.7 3.8,-0.4 3.7,-0.4 3.7,0.4 3.8,0.6 3.7,0.4 3.8,0.8 3.7,1 3.7,0.4 3.8,0.1 3.7,-0.2 3.7,-0.1 3.8,-0.6 3.7,-0.9 3.8,-0.9 3.7,-1 3.7,-0.9 3.8,-1 3.7,-0.7 3.8,-0.5 3.7,-0.4 3.7,-0.2 3.8,0.2 3.7,0.2 3.7,0.4 3.8,0.9 3.7,1.1 3.8,0.9 3.7,1 3.7,0.6 3.8,0.6 3.7,0.5 3.7,0.1 3.8,0 3.7,0.1 3.8,-0.4 3.7,-0.2 3.7,0 3.8,0.2 3.7,0.3 3.7,0.4 3.8,0.5 3.7,0.8 3.8,0.9 3.7,0.8 3.7,0.9 3.8,0.9 3.7,0.8 3.7,0.8 3.8,0.5 3.7,0.4 3.8,0.1 3.7,0.1 3.7,0.1 3.8,-0.6 3.7,-0.1 3.8,-0.1 3.7,0.1 3.7,0.1 3.8,0 3.7,0.1 3.7,0.4 3.8,0.4 3.7,0.1 3.8,-0.1 3.7,-0.3 3.7,-0.5 3.8,-0.7 3.7,-0.6 3.7,-0.9 3.8,-1 3.7,-0.5 3.8,-0.9 3.7,-0.9 3.7,-0.6"
     id="path4808" />
  <path
     style="fill:none;stroke:#ff0000;stroke-width:2.5;stroke-miterlimit:4;stroke-dasharray:none"
     d="m 232.29342,2106.604 0.8,-14.4 0.7,-16 0.7,-17.7 0.8,-19.6 0.7,-20.7 0.8,-21.9 0.7,-22.1 0.8,-22.2 0.7,-23.5 0.8,-21.5 0.7,-19.3 0.8,-17.1 0.7,-15.4 0.8,-13.6 0.7,-12.6 0.8,-11.5 0.7,-10.5 0.8,-10.1 0.7,-9.7 0.8,-9 0.7,-8.5 0.8,-7.9 0.7,-7.2 0.7,-6.3 0.8,-5.1 0.7,-4.4 0.8,-3.4 0.7,-2.7 0.8,-2.1 0.7,-1.5 0.8,-1.6 0.7,-1.8 0.8,-1.6 0.7,-2.1 0.8,-2 0.7,-2.4 0.8,-2.5 0.7,-2.2 0.8,-2.4 0.7,-2.4 0.8,-2.3 0.7,-2.6 0.8,-2.3 0.7,-2.5 0.7,-2.6 0.8,-2.7 0.7,-2.9 0.8,-2.2 0.7,-2 0.8,-2.3 0.7,-1.5 0.8,-1.4 0.7,-1 0.8,-1 0.7,-1.1 0.8,-0.7 0.7,-0.6 0.8,-0.8 0.7,-0.1 0.8,-0.4 0.7,-0.2 0.8,0 0.7,0.4 0.8,0.1 0.7,-0.3 0.7,0.1 0.8,0 0.7,-0.3 0.8,-0.5 0.7,-0.5 0.8,-0.7 0.7,-0.2 0.8,-0.3 0.7,0.1 0.8,0 0.7,0 0.8,0.5 0.7,0.1 0.8,0.1 0.7,-0.2 0.8,0.1 0.7,-0.2 0.8,-0.6 0.7,-0.6 0.8,-0.9 0.7,-0.8 0.7,-0.8 0.8,-0.4 0.7,-0.7 0.8,-0.8 0.7,-0.5 0.8,0 0.7,-0.1 0.8,-0.7 0.7,-0.1 0.8,-0.6 0.7,-0.8 0.8,-1 0.7,-1.2 0.8,-1.1 0.7,-1.1 0.8,-0.9 0.7,-0.6 0.8,-0.1 0.7,0.6 0.8,0.6 0.7,1.2 0.7,1.1 0.8,0.5 0.7,0.3 0.8,-0.1 0.7,-1 0.8,-1.7 0.7,-1.8 0.8,-2.5 0.7,-2.3 0.8,-2.4 0.7,-2.2 0.8,-1.4 0.7,-0.7 0.8,-0.7 0.7,-0.6 0.8,0 0.7,0.1 0.8,0.3 0.7,0.4 0.7,0.3 0.8,0.1 0.7,0.3 0.8,0.2 0.7,-0.4 0.8,0 0.7,-0.4 0.8,-0.5 0.7,-0.8 0.8,-0.6 0.7,-1.1 0.8,-0.6 0.7,-0.4 0.8,-0.3 0.7,-0.4 0.8,-0.1 0.7,0.3 0.8,0 0.7,0.4 0.8,-0.2 0.7,0.5 0.7,0.3 0.8,0.3 0.7,0.5 0.8,0.3 0.7,0.4 0.8,0.3 0.7,0.4 0.8,0.1 0.7,0.1 0.8,0.1 0.7,-0.1 0.8,-0.4 0.7,-0.2 0.8,-0.3 0.7,-0.3 0.8,-0.3 0.7,-0.8 0.8,-0.4 0.7,-0.4 0.8,-0.5 0.7,-0.7 0.7,-0.3 0.8,-0.1 0.7,0.4 0.8,0.4 0.7,0.5 0.8,0.7 0.7,1.2 0.8,1.3 0.7,1 0.8,1.5 0.7,1.2 0.8,1.2 0.7,1.3 0.8,0.9 0.7,0.7 0.8,0.7 0.7,0.8 0.8,0.1 0.7,0.1 0.8,-0.2 0.7,-0.1 0.7,-0.3 0.8,0 0.7,0 0.8,-0.1 0.7,-0.1 0.8,-0.3 0.7,-0.1 0.8,0 0.7,-0.5 0.8,-0.5 0.7,-1 0.8,-1.1 0.7,-1.6 0.8,-1.1 0.7,-1.4 0.8,-1.2 0.7,-1 0.8,-0.9 0.7,-0.8 0.8,-0.4 0.7,0 0.7,-0.1 0.8,0 0.7,-0.1 0.8,-0.2 0.7,-0.1 0.8,0 0.7,0.2 0.8,0 0.7,0.2 0.8,0.4 0.7,0.2 0.8,0.7 0.7,0.5 0.8,0.6 0.7,0.5 0.8,0.5 0.7,0.3 0.8,0.3 0.7,0.2 0.7,0 0.8,0.1 0.7,-0.2 0.8,-0.2 0.7,-0.6 0.8,-0.4 0.7,-0.6 0.8,-1.2 0.7,-0.4 0.8,-1 0.7,-0.4 0.8,-0.7 0.7,-0.6 0.8,-0.1 0.7,0.3 0.8,0.2 0.7,0.2 0.8,0.3 0.7,0 0.8,0.3 0.7,-0.3 0.7,-0.4 0.8,-0.5 0.7,-1 0.8,-0.6 0.7,-1 0.8,-0.7 0.7,-0.8 0.8,-0.5 0.7,-0.4 0.8,-0.6 0.7,-0.6 0.8,-0.4 0.7,-0.4 0.8,-0.5 0.7,-0.4 0.8,0 0.7,0.1 0.8,0.2 0.7,0.6 0.8,0.8 0.7,0.5 0.7,0.8 0.8,0.4 0.7,0.4 0.8,0.2 0.7,-0.2 0.8,-0.5 0.7,-0.5 0.8,-0.3 0.7,-0.2 0.8,0 0.7,0.2 0.8,-0.2 0.7,0.7 0.8,0.4 0.7,0.3 0.8,0.2 0.7,0.4 0.8,-0.1 0.7,-0.2 0.8,-0.4 0.7,-0.2 0.7,-0.3 0.8,0.3 0.7,-0.1 0.8,-0.1 0.7,-0.3 0.8,-0.3 0.7,-0.3 0.8,-0.5 0.7,-1.2 0.8,-1.2 0.7,-1.1 0.8,-1.5 0.7,-1.5 0.8,-0.9 0.7,-0.3 0.8,-0.1 0.7,0 0.8,0.3 0.7,0.4 0.8,1.1 0.7,0.9 0.7,0.8 0.8,0.6 0.7,0.3 0.8,0.2 0.7,-0.2 0.8,-0.2 0.7,-0.8 0.8,-0.4 0.7,-0.9 0.8,-1.1 0.7,-1.5 0.8,-1.2 0.7,-0.8 0.8,-0.5 0.7,-0.5 0.8,-0.3 0.7,0.2 0.8,0.8 0.7,0.7 0.7,0.8 0.8,0.9 0.7,0.7 0.8,1 0.7,0.2 0.8,0 0.7,0.1 0.8,-0.3 0.7,0 0.8,-0.5 0.7,-0.4 0.8,-0.4 0.7,-0.3 0.8,-0.2 0.7,-0.5 0.8,-0.7 0.7,-0.6 0.8,-0.6 0.7,-0.8 0.8,-0.6 0.7,-1.3 0.7,-0.5 0.8,-0.6 0.7,-0.3 0.8,-0.4 0.7,0.1 0.8,0.4 0.7,0.2 0.8,0.4 0.7,0.2 0.8,0.4 0.7,-0.2 0.8,-0.4 0.7,0 0.8,-0.6 0.7,-0.8 0.8,-0.7 0.7,-0.4 0.8,-0.5 0.7,-0.1 0.8,0 0.7,0.5 0.7,0.3 0.8,0.5 0.7,0.4 0.8,0.3 0.7,0.6 0.8,-0.2 0.7,0.1 0.8,-0.1 0.7,-0.9 0.8,-0.4 0.7,-0.6 0.8,-0.7 0.7,-0.6 0.8,-0.4 0.7,-0.4 0.8,-0.4 0.7,-0.4 0.8,-0.1 0.7,-0.2 0.8,0.1 0.7,-0.3 0.7,-0.6 0.8,-0.1 0.7,-0.3 0.8,-0.4 0.7,-0.2 0.8,-0.2 0.7,0.2 0.8,0.7 0.7,0.8 0.8,0.9 0.7,1.3 0.8,1.3 0.7,1.3 0.8,1.1 0.7,0.8 0.8,0.3 0.7,0.6 0.8,0.1 0.7,-0.1 0.8,0.1 0.7,0.2 0.7,0.2 0.8,0.6 0.7,0.7 0.8,0.3 0.7,0.3 0.8,0.3 0.7,-0.5 0.8,-0.7 0.7,-1.1 0.8,-1.7 0.7,-1.6 0.8,-1.6 0.7,-1.7 0.8,-1.6 0.7,-1.2 0.8,-0.8 0.7,-0.1 0.8,0.5 0.7,0.5 0.7,1.1 0.8,1.2 0.7,1.3 0.8,1.1 0.7,1 0.8,0.6 0.7,0.2 0.8,-0.2 0.7,-0.7 0.8,-1 0.7,-1 0.8,-0.6 0.7,-0.6 0.8,-0.5 0.7,-0.3 0.8,0.2 0.7,0.5 0.8,0 0.7,0.5 0.8,0.6 0.7,0.2 0.7,-0.2 0.8,0 0.7,-0.4 0.8,-0.7 0.7,-0.5 0.8,-0.5 0.7,-0.8 0.8,-0.1 0.7,-0.4 0.8,0 0.7,0.2 0.8,0.2 0.7,0.3 0.8,0.7 0.7,0.6 0.8,0.5 0.7,0.8 0.8,0.5 0.7,0.2 0.8,0.6 0.7,0.7 0.7,0.3 0.8,0.8 0.7,0.8 0.8,0 0.7,0.5 0.8,0.3 0.7,-0.1 0.8,0.5 0.7,-0.3 0.8,-0.3 0.7,-0.3 0.8,-0.3 0.7,-0.1 0.8,0 0.7,0.4 0.8,-0.1 0.7,-0.2 0.8,0.3 0.7,-0.3 0.8,-0.3 0.7,-0.1 0.7,-0.3 0.8,-0.5 0.7,-0.2 0.8,-0.6 0.7,0 0.8,-0.5 0.7,-0.6 0.8,-0.5 0.7,-1.2 0.8,-1 0.7,-1.4 0.8,-1.3 0.7,-0.9 0.8,-1 0.7,-0.1 0.8,0.4 0.7,0.6 0.8,0.7 0.7,1.2 0.8,1 0.7,0.9 0.7,0.5 0.8,0.3 0.7,0 0.8,-0.3 0.7,0.2 0.8,0 0.7,0.2 0.8,0.6 0.7,0.5 0.8,0.9 0.7,0.3 0.8,0.2 0.7,-0.1 0.8,-0.6 0.7,-1 0.8,-1.3 0.7,-1.4 0.8,-1.4 0.7,-1.2 0.7,-0.9 0.8,-0.7 0.7,-0.3 0.8,0.4 0.7,0.3 0.8,0.5 0.7,0.5 0.8,-0.1 0.7,0.3 0.8,-0.2 0.7,0 0.8,-0.3 0.7,-0.5 0.8,-0.5 0.7,0 0.8,-0.2 0.7,0.3 0.8,0.4 0.7,0.6 0.8,0.7 0.7,0.5 0.7,0.5 0.8,0.5 0.7,0.3 0.8,0.6 0.7,-0.2 0.8,0 0.7,-0.2 0.8,0.5 0.7,0 0.8,0.5 0.7,0.2 0.8,0.3 0.7,0 0.8,0 0.7,-0.2 0.8,-0.8 0.7,-0.7 0.8,-0.8 0.7,-0.7 0.8,-0.8 0.7,-0.3 0.7,0 0.8,0.2 0.7,0.3 0.8,0 0.7,0.2 0.8,-0.2 0.7,-0.4 0.8,-0.5 0.7,-1 0.8,-0.8 0.7,-1 0.8,-0.4 0.7,0 0.8,0 0.7,0.6 0.8,0.9 0.7,1.1 0.8,1 0.7,1.2 0.8,1.1 0.7,0.8 0.7,0.5 0.8,0.1 0.7,-0.1 0.8,-0.4 0.7,-0.4 0.8,-0.6 0.7,-0.4 0.8,-0.6 0.7,-0.3 0.8,0.2 0.7,0.1 0.8,0.5 0.7,0.6 0.8,0.9 0.7,0.6 0.8,0.7 0.7,0.5 0.8,0.4 0.7,0.3 0.8,0 0.7,-0.1 0.7,-0.3 0.8,-0.1 0.7,-0.1 0.8,0 0.7,0 0.8,0.1 0.7,0.4 0.8,0.8 0.7,0.5 0.8,0.7 0.7,0.5 0.8,0.4 0.7,0.2 0.8,-0.4 0.7,-0.5 0.8,-0.9 0.7,-1.1 0.8,-1.1 0.7,-1.2 0.8,-1.2 0.7,-0.6 0.7,-0.6 0.8,-0.2 0.7,-0.2 0.8,-0.3 0.7,0.3 0.8,-0.3 0.7,-0.3 0.8,-0.6 0.7,-0.7 0.8,-0.8 0.7,-0.8 0.8,-0.5 0.7,-0.6 0.8,-0.4 0.7,0.1 0.8,0.5 0.7,0.4 0.8,1.1 0.7,1.2 0.7,1.5 0.8,1.5 0.7,1 0.8,1.3 0.7,0.7 0.8,0.4 0.7,0.1 0.8,-0.3 0.7,-0.5 0.8,-0.8 0.7,-0.9 0.8,-0.9 0.7,-1.1 0.8,-1.1 0.7,-0.4 0.8,-0.8 0.7,-0.6 0.8,-0.4 0.7,-0.1 0.8,0.2 0.7,0.6 0.7,0.7 0.8,0.9 0.7,0.7 0.8,1.1 0.7,0.7 0.8,0.6 0.7,0.2 0.8,-0.2 0.7,-0.4 0.8,-0.3 0.7,-0.6 0.8,-0.3 0.7,-0.2 0.8,0 0.7,-0.1 0.8,0 0.7,0 0.8,0.4 0.7,0.1 0.8,-0.3 0.7,-0.3 0.7,-0.1 0.8,-0.2 0.7,-0.1 0.8,0 0.7,0.1 0.8,0 0.7,0 0.8,0.2 0.7,0.3 0.8,0.3 0.7,0.2 0.8,0.5 0.7,0.4 0.8,0.3 0.7,0.7 0.8,0.7 0.7,-0.2 0.8,0.5 0.7,0.6 0.8,0 0.7,0 0.7,-0.1 0.8,0.1 0.7,0.2 0.8,-0.2 0.7,0.3 0.8,0.3 0.7,0.4 0.8,0 0.7,0.1 0.8,0.3 0.7,0.2 0.8,0 0.7,0.3 0.8,-0.4 0.7,-0.2 0.8,-0.1 0.7,0 0.8,0.1 0.7,-0.2 0.8,-0.2 0.7,-0.1 0.7,-0.5 0.8,-0.4 0.7,-0.4 0.8,-0.5 0.7,-0.7 0.8,-0.5 0.7,-0.5 0.8,-0.3 0.7,-0.2 0.8,-0.1 0.7,0.1 0.8,-0.1 0.7,-0.4 0.8,-0.8 0.7,-1 0.8,-1 0.7,-1.2 0.8,-1.4 0.7,-1.5 0.7,-1.4 0.8,-1.1 0.7,-0.6 0.8,-0.7 0.7,-0.3 0.8,0.2 0.7,0.1 0.8,0.5 0.7,0.6 0.8,0.4 0.7,0.6 0.8,0.7 0.7,0.8 0.8,0.6 0.7,0.6 0.8,0.6 0.7,0.5 0.8,0.3 0.7,0.6 0.8,0.2 0.7,0.3 0.7,0.3 0.8,-0.1 0.7,0.1 0.8,-0.2 0.7,0 0.8,0.2 0.7,-0.2 0.8,-0.1 0.7,-0.4 0.8,-0.2 0.7,-0.4 0.8,-0.6 0.7,-0.2 0.8,-0.7 0.7,-0.6 0.8,-0.3 0.7,-0.1 0.8,-0.2 0.7,0.2 0.8,0.4 0.7,0.7 0.7,0.4 0.8,0.9 0.7,0.8 0.8,0.7 0.7,0.8 0.8,0.6 0.7,0.7 0.8,0.4 0.7,0.2 0.8,0.3 0.7,-0.1 0.8,-0.4 0.7,-0.2 0.8,-0.3 0.7,-0.5 0.8,-0.4 0.7,-0.4 0.8,0 0.7,-0.2 0.8,0.2 0.7,0 0.7,0.3 0.8,-0.1 0.7,-0.1 0.8,-0.2 0.7,-0.3 0.8,-0.5 0.7,-0.5 0.8,-0.6 0.7,-0.9 0.8,-0.4 0.7,-0.5 0.8,-0.6 0.7,-0.3 0.8,-0.4 0.7,-0.4 0.8,-0.3 0.7,-0.2 0.8,-0.3 0.7,0.1 0.8,0.1 0.7,0.4 0.7,0.1 0.8,0.6 0.7,0.5 0.8,0.6 0.7,0.5 0.8,0.4 0.7,0.4 0.8,-0.1 0.7,-0.1 0.8,-0.6 0.7,-0.6 0.8,-0.8 0.7,-0.8 0.8,-1.1 0.7,-0.6 0.8,-0.5 0.7,-0.2 0.8,0 0.7,0.1 0.7,0.6 0.8,0.6 0.7,0.3 0.8,0.2 0.7,0.2 0.8,0 0.7,-0.2 0.8,-0.3 0.7,-0.1 0.8,0 0.7,0.1 0.8,0.6 0.7,0.4 0.8,0.5 0.7,1 0.8,1 0.7,0.6 0.8,0.5 0.7,0.5 0.8,-0.1 0.7,0.3 0.7,0 0.8,-0.1 0.7,-0.1 0.8,0.4 0.7,0.1 0.8,0.3 0.7,0.7 0.8,0.4 0.7,1 0.8,0.9 0.7,0.3 0.8,0.4 0.7,0.3 0.8,-0.1 0.7,-0.4 0.8,-0.2 0.7,-1 0.8,-1 0.7,-0.7 0.8,-1.2 0.7,-1.2 0.7,-0.8 0.8,-0.7 0.7,-0.4 0.8,-0.4 0.7,-0.5 0.8,0.4 0.7,0.3 0.8,0.6 0.7,0.6 0.8,1.1 0.7,1 0.8,0.7 0.7,0.8 0.8,1 0.7,0.5 0.8,0.5 0.7,0 0.8,-0.2 0.7,-0.4 0.8,-0.6 0.7,-0.6 0.7,-0.7 0.8,-0.9 0.7,-0.5 0.8,-0.4 0.7,-0.3 0.8,-0.3 0.7,0.3 0.8,0.1 0.7,-0.1 0.8,-0.3 0.7,-0.2 0.8,-0.1 0.7,0.1 0.8,0 0.7,0.2 0.8,0.1 0.7,0.7 0.8,0.7 0.7,0.8 0.8,0.8 0.7,0.5 0.7,0.7 0.8,0.2 0.7,-0.2 0.8,-0.1 0.7,-0.3 0.8,0 0.7,0 0.8,-0.3 0.7,-0.1 0.8,-0.1 0.7,0 0.8,0.3 0.7,-0.1 0.8,0.2 0.7,0.2 0.8,0.3 0.7,0.1 0.8,0.3 0.7,0.2 0.7,0.5 0.8,0.7 0.7,0.3 0.8,0.3 0.7,0.1 0.8,0.1 0.7,0 0.8,-0.2 0.7,-0.2 0.8,-0.9 0.7,-0.6 0.8,-0.9 0.7,-1.2 0.8,-1 0.7,-0.7 0.8,-0.8 0.7,-0.4 0.8,-0.4 0.7,-0.6 0.8,0.2 0.7,-0.2 0.7,0 0.8,0 0.7,-0.1 0.8,-0.3 0.7,-0.4 0.8,0.1 0.7,-0.6"
     id="path76" />
  <path
     d="m 232.93698,2273.1778 0,-747.5 747.5,0 0,747.5 -747.5,0"
     id="path4-2"
     inkscape:connector-curvature="0"
     style="fill:none;stroke:#000000;stroke-width:2" />
  <text
     style="font-size:37.90000153px;font-family:Arial;text-anchor:start;fill:#000000"
     id="text8-4"
     font-size="37.9"
     y="2336.7778"
     x="948.49872">1000</text>
  <text
     style="font-size:37.90000153px;font-family:Arial;text-anchor:middle;fill:#000000"
     id="text10-4"
     font-size="37.9"
     y="2397.479"
     x="607.57965">
    <tspan
       style="font-size:50px"
       id="tspan4303">epoch</tspan>
  </text>
  <text
     style="font-size:37.90000153px;font-family:Arial;text-anchor:middle;fill:#000000"
     id="text12-5"
     font-size="37.9"
     y="2336.7778"
     x="232.93697">0</text>
  <text
     style="font-size:37.90000153px;font-family:Arial;text-anchor:middle;fill:#000000"
     id="text14-7"
     font-size="37.9"
     y="2336.7778"
     x="307.63696">100</text>
  <text
     style="font-size:37.90000153px;font-family:Arial;text-anchor:middle;fill:#000000"
     id="text16-9"
     font-size="37.9"
     y="2336.7778"
     x="382.43698">200</text>
  <text
     style="font-size:37.90000153px;font-family:Arial;text-anchor:middle;fill:#000000"
     id="text18-4"
     font-size="37.9"
     y="2336.7778"
     x="457.13699">300</text>
  <text
     style="font-size:37.90000153px;font-family:Arial;text-anchor:middle;fill:#000000"
     id="text20-0"
     font-size="37.9"
     y="2336.7778"
     x="531.93695">400</text>
  <text
     style="font-size:37.90000153px;font-family:Arial;text-anchor:middle;fill:#000000"
     id="text22-0"
     font-size="37.9"
     y="2336.7778"
     x="606.63696">500</text>
  <text
     style="font-size:37.90000153px;font-family:Arial;text-anchor:middle;fill:#000000"
     id="text24-4"
     font-size="37.9"
     y="2336.7778"
     x="681.43701">600</text>
  <text
     style="font-size:37.90000153px;font-family:Arial;text-anchor:middle;fill:#000000"
     id="text26-4"
     font-size="37.9"
     y="2336.7778"
     x="756.237">700</text>
  <text
     style="font-size:37.90000153px;font-family:Arial;text-anchor:middle;fill:#000000"
     id="text28-1"
     font-size="37.9"
     y="2336.7778"
     x="830.93701">800</text>
  <text
     style="font-size:37.90000153px;font-family:Arial;text-anchor:middle;fill:#000000"
     id="text30-0"
     font-size="37.9"
     y="2336.7778"
     x="905.737">900</text>
  <path
     style="fill:none;stroke:#000000;stroke-width:2"
     inkscape:connector-curvature="0"
     id="path34-0"
     d="m 232.93698,2273.1778 747.5,0 m -747.5,18.7 0,-37.3 m 74.7,37.3 0,-37.3 m 74.8,37.3 0,-37.3 m 74.7,37.3 0,-37.3 m 74.8,37.3 0,-37.3 m 74.7,37.3 0,-37.3 m 74.8,37.3 0,-37.3 m 74.8,37.3 0,-37.3 m 74.7,37.3 0,-37.3 m 74.8,37.3 0,-37.3 m 74.7,37.3 0,-37.3" />
  <path
     style="fill:none;stroke:#000000;stroke-width:2"
     inkscape:connector-curvature="0"
     id="path36-5"
     d="m 232.93698,1525.6778 747.5,0 m -747.5,18.7 0,-37.4 m 74.7,37.4 0,-37.4 m 74.8,37.4 0,-37.4 m 74.7,37.4 0,-37.4 m 74.8,37.4 0,-37.4 m 74.7,37.4 0,-37.4 m 74.8,37.4 0,-37.4 m 74.8,37.4 0,-37.4 m 74.7,37.4 0,-37.4 m 74.8,37.4 0,-37.4 m 74.7,37.4 0,-37.4" />
  <text
     style="font-size:37.90000153px;font-family:Arial;text-anchor:end;fill:#000000"
     id="text40-4"
     font-size="37.9"
     y="2288.1777"
     x="206.73697">0</text>
  <text
     style="font-size:37.90000153px;font-family:Arial;text-anchor:end;fill:#000000"
     id="text42-1"
     font-size="37.9"
     y="2213.3779"
     x="206.73697">0.1</text>
  <text
     style="font-size:37.90000153px;font-family:Arial;text-anchor:end;fill:#000000"
     id="text44-5"
     font-size="37.9"
     y="2138.6777"
     x="206.73697">0.2</text>
  <text
     style="font-size:37.90000153px;font-family:Arial;text-anchor:end;fill:#000000"
     id="text46-1"
     font-size="37.9"
     y="2063.8779"
     x="206.73697">0.3</text>
  <text
     style="font-size:37.90000153px;font-family:Arial;text-anchor:end;fill:#000000"
     id="text48-2"
     font-size="37.9"
     y="1989.1777"
     x="206.73697">0.4</text>
  <text
     style="font-size:37.90000153px;font-family:Arial;text-anchor:end;fill:#000000"
     id="text50-1"
     font-size="37.9"
     y="1914.3779"
     x="206.73697">0.5</text>
  <text
     style="font-size:37.90000153px;font-family:Arial;text-anchor:end;fill:#000000"
     id="text52-7"
     font-size="37.9"
     y="1839.678"
     x="206.73697">0.6</text>
  <text
     style="font-size:37.90000153px;font-family:Arial;text-anchor:end;fill:#000000"
     id="text54-7"
     font-size="37.9"
     y="1764.8779"
     x="206.73697">0.7</text>
  <text
     style="font-size:37.90000153px;font-family:Arial;text-anchor:end;fill:#000000"
     id="text56-2"
     font-size="37.9"
     y="1690.0779"
     x="206.73697">0.8</text>
  <text
     style="font-size:37.90000153px;font-family:Arial;text-anchor:end;fill:#000000"
     id="text58-8"
     font-size="37.9"
     y="1615.3779"
     x="206.73697">0.9</text>
  <text
     style="font-size:37.90000153px;font-family:Arial;text-anchor:end;fill:#000000"
     id="text60-0"
     font-size="37.9"
     y="1540.5779"
     x="206.73697">1</text>
  <path
     style="fill:none;stroke:#000000;stroke-width:2"
     inkscape:connector-curvature="0"
     id="path62-7"
     d="m 232.93698,2273.1778 0,-747.5 m -18.7,747.5 37.3,0 m -37.3,-74.7 37.3,0 m -37.3,-74.8 37.3,0 m -37.3,-74.7 37.3,0 m -37.3,-74.8 37.3,0 m -37.3,-74.7 37.3,0 m -37.3,-74.8 37.3,0 m -37.3,-74.8 37.3,0 m -37.3,-74.7 37.3,0 m -37.3,-74.8 37.3,0 m -37.3,-74.7 37.3,0" />
  <path
     style="fill:none;stroke:#000080;stroke-width:2"
     inkscape:connector-curvature="0"
     id="path88"
     d="m 980.43698,2273.1778 0,-747.5 m -18.7,747.5 37.4,0 m -37.4,-74.7 37.4,0 m -37.4,-74.8 37.4,0 m -37.4,-74.7 37.4,0 m -37.4,-74.8 37.4,0 m -37.4,-74.7 37.4,0 m -37.4,-74.8 37.4,0 m -37.4,-74.8 37.4,0 m -37.4,-74.7 37.4,0 m -37.4,-74.8 37.4,0 m -37.4,-74.7 37.4,0" />
  <text
     sodipodi:linespacing="100%"
     id="text4305"
     y="124.80776"
     x="-2150.1968"
     style="color:#000000;font-style:normal;font-variant:normal;font-weight:normal;font-stretch:normal;font-size:37.5px;line-height:100%;font-family:Arial;-inkscape-font-specification:Arial;text-indent:0;text-align:start;text-decoration:none;text-decoration-line:none;letter-spacing:0px;word-spacing:0px;text-transform:none;direction:ltr;block-progression:tb;writing-mode:lr-tb;text-anchor:start;display:inline;overflow:visible;visibility:visible;fill:#000000;fill-opacity:1;fill-rule:nonzero;stroke:none;stroke-width:1px;stroke-linecap:butt;stroke-linejoin:miter;stroke-opacity:1;marker:none;enable-background:accumulate"
     xml:space="preserve"
     transform="matrix(0,-1,1,0,0,0)"><tspan
       style="font-size:50px"
       y="124.80776"
       x="-2150.1968"
       id="tspan4307"
       sodipodi:role="line">V1p minus-plus cosine</tspan></text>
  <text
     xml:space="preserve"
     style="color:#000000;font-style:normal;font-variant:normal;font-weight:normal;font-stretch:normal;font-size:37.5px;line-height:100%;font-family:Arial;-inkscape-font-specification:Arial;text-indent:0;text-align:start;text-decoration:none;text-decoration-line:none;letter-spacing:0px;word-spacing:0px;text-transform:none;direction:ltr;block-progression:tb;writing-mode:lr-tb;text-anchor:start;display:inline;overflow:visible;visibility:visible;fill:#000000;fill-opacity:1;fill-rule:nonzero;stroke:none;stroke-width:1px;stroke-linecap:butt;stroke-linejoin:miter;stroke-opacity:1;marker:none;enable-background:accumulate"
     x="445.41455"
     y="1574.3125"
     id="text4818"
     sodipodi:linespacing="100%"><tspan
       sodipodi:role="line"
       id="tspan4820"
       x="445.41455"
       y="1574.3125">Intact</tspan></text>
  <text
     xml:space="preserve"
     style="color:#000000;font-style:normal;font-variant:normal;font-weight:normal;font-stretch:normal;font-size:37.5px;line-height:100%;font-family:Arial;-inkscape-font-specification:Arial;text-indent:0;text-align:start;text-decoration:none;text-decoration-line:none;letter-spacing:0px;word-spacing:0px;text-transform:none;direction:ltr;block-progression:tb;writing-mode:lr-tb;text-anchor:start;display:inline;overflow:visible;visibility:visible;fill:#ff0000;fill-opacity:1;fill-rule:nonzero;stroke:none;stroke-width:1px;stroke-linecap:butt;stroke-linejoin:miter;stroke-opacity:1;marker:none;enable-background:accumulate"
     x="448.74707"
     y="1671.1029"
     id="text4822"
     sodipodi:linespacing="100%"><tspan
       sodipodi:role="line"
       id="tspan4824"
       x="448.74707"
       y="1671.1029">V3 only</tspan></text>
  <text
     xml:space="preserve"
     style="color:#000000;font-style:normal;font-variant:normal;font-weight:normal;font-stretch:normal;font-size:37.5px;line-height:100%;font-family:Arial;-inkscape-font-specification:Arial;text-indent:0;text-align:start;text-decoration:none;text-decoration-line:none;letter-spacing:0px;word-spacing:0px;text-transform:none;direction:ltr;block-progression:tb;writing-mode:lr-tb;text-anchor:start;display:inline;overflow:visible;visibility:visible;fill:#008000;fill-opacity:1;fill-rule:nonzero;stroke:none;stroke-width:1px;stroke-linecap:butt;stroke-linejoin:miter;stroke-opacity:1;marker:none;enable-background:accumulate"
     x="448.74707"
     y="2069.9148"
     id="text4826"
     sodipodi:linespacing="100%"><tspan
       sodipodi:role="line"
       id="tspan4828"
       x="448.74707"
       y="2069.9148">V2 only</tspan></text>
  <g
     id="g4940">
    <text
       sodipodi:linespacing="100%"
       id="text4830"
       y="1861.0986"
       x="832.57562"
       style="color:#000000;font-style:normal;font-variant:normal;font-weight:normal;font-stretch:normal;font-size:37.5px;line-height:100%;font-family:Arial;-inkscape-font-specification:Arial;text-indent:0;text-align:start;text-decoration:none;text-decoration-line:none;letter-spacing:0px;word-spacing:0px;text-transform:none;direction:ltr;block-progression:tb;writing-mode:lr-tb;text-anchor:start;display:inline;overflow:visible;visibility:visible;fill:#000000;fill-opacity:1;fill-rule:nonzero;stroke:none;stroke-width:1px;stroke-linecap:butt;stroke-linejoin:miter;stroke-opacity:1;marker:none;enable-background:accumulate"
       xml:space="preserve"><tspan
         y="1861.0986"
         x="832.57562"
         id="tspan4832"
         sodipodi:role="line">test</tspan></text>
    <text
       sodipodi:linespacing="100%"
       id="text6242"
       y="1818.9769"
       x="832.57562"
       style="color:#000000;font-style:normal;font-variant:normal;font-weight:normal;font-stretch:normal;font-size:37.5px;line-height:100%;font-family:Arial;-inkscape-font-specification:Arial;text-indent:0;text-align:start;text-decoration:none;text-decoration-line:none;letter-spacing:0px;word-spacing:0px;text-transform:none;direction:ltr;block-progression:tb;writing-mode:lr-tb;text-anchor:start;display:inline;overflow:visible;visibility:visible;fill:#000000;fill-opacity:1;fill-rule:nonzero;stroke:none;stroke-width:1px;stroke-linecap:butt;stroke-linejoin:miter;stroke-opacity:1;marker:none;enable-background:accumulate"
       xml:space="preserve"><tspan
         y="1818.9769"
         x="832.57562"
         id="tspan6244"
         sodipodi:role="line">train</tspan></text>
    <path
       inkscape:connector-curvature="0"
       id="path4884"
       d="m 819.13256,1810.0149 -34.95205,0"
       style="opacity:1;fill:none;fill-opacity:1;fill-rule:nonzero;stroke:#000000;stroke-width:2.5;stroke-linecap:butt;stroke-linejoin:miter;stroke-miterlimit:4;stroke-dasharray:none;stroke-dashoffset:0;stroke-opacity:1" />
    <path
       style="opacity:1;fill:none;fill-opacity:1;fill-rule:nonzero;stroke:#000000;stroke-width:2.49999996;stroke-linecap:butt;stroke-linejoin:miter;stroke-miterlimit:4;stroke-dasharray:7.49999989,7.49999989;stroke-dashoffset:0;stroke-opacity:1"
       d="m 819.13256,1847.6556 -34.95205,0"
       id="path4886"
       inkscape:connector-curvature="0" />
  </g>
</svg>
