<?xml version="1.0" encoding="ISO-8859-1" standalone="yes"?>
<svg width="224.636" height="331.714">
  <defs> 
    <marker id="ArrowEnd" viewBox="0 0 10 10" refX="0" refY="5" 
     markerUnits="strokeWidth" 
     markerWidth="4" 
     markerHeight="3" 
     orient="auto"> 
        <path d="M 0 0 L 10 5 L 0 10 z" /> 
    </marker>
    <marker id="ArrowStart" viewBox="0 0 10 10" refX="10" refY="5" 
     markerUnits="strokeWidth" 
     markerWidth="4" 
     markerHeight="3" 
     orient="auto"> 
        <path d="M 10 0 L 0 5 L 10 10 z" /> 
    </marker> </defs>
<g>
<path style="stroke:#000000; stroke-width:1.91212; fill:none" d="M 214.615 165.857C 214.615 79.7952 168.814 10.0211 112.318 10.0211C 55.8221 10.0211 10.0211 79.7911 10.0211 165.857C 10.0211 251.92 55.8221 321.693 112.318 321.693C 168.814 321.693 214.615 251.924 214.615 165.857"/>
<path style="stroke:#000000; stroke-width:1.91212; fill:none" d="M 186.888 196.451C 186.888 132.459 153.501 80.5801 112.318 80.5801C 71.1341 80.5801 37.7471 132.459 37.7471 196.451C 37.7471 260.443 71.1341 312.322 112.318 312.322C 153.501 312.322 186.888 260.443 186.888 196.451"/>
<path style="stroke:none; fill-rule:evenodd; fill:#000000" d="M 95.3801 27.2281C 94.9971 25.0991 93.7751 24.0641 91.6461 24.0641C 90.3451 24.0641 89.2941 24.4781 88.5791 25.2791C 87.7041 26.2401 87.2281 27.6271 87.2281 29.2012C 87.2281 30.8032 87.7161 32.1782 88.6341 33.1232C 89.3761 33.8961 90.3331 34.2562 91.5951 34.2562C 93.9581 34.2562 95.2861 32.9741 95.5791 30.3961L 94.2981 30.3961C 94.1931 31.0842 94.0601 31.5562 93.8611 31.9551C 93.4621 32.7831 92.6341 33.2521 91.5911 33.2521C 89.6581 33.2521 88.4271 31.6702 88.4271 29.1812C 88.4271 26.6271 89.5991 25.0562 91.4861 25.0562C 92.2711 25.0562 93.0051 25.3062 93.4081 25.6931C 93.7671 26.0372 93.9661 26.4702 94.1151 27.2202L 95.3801 27.2281z"/>
<path style="stroke:none; fill-rule:evenodd; fill:#000000" d="M 99.7551 26.7601C 97.8021 26.7601 96.6221 28.1581 96.6221 30.5101C 96.6221 32.8571 97.7901 34.2601 99.7711 34.2601C 101.724 34.2601 102.919 32.8611 102.919 30.5641C 102.919 28.1501 101.763 26.7631 99.7591 26.7631L 99.7551 26.7601zM 99.7671 27.7601C 101.048 27.7601 101.814 28.7952 101.814 30.5491C 101.814 32.2051 101.021 33.2562 99.7671 33.2562C 98.4971 33.2562 97.7201 32.2202 97.7201 30.5062C 97.7201 28.8101 98.4971 27.7562 99.7671 27.7562L 99.7671 27.7601z"/>
<path style="stroke:none; fill-rule:evenodd; fill:#000000" d="M 109.118 26.9592L 109.118 27.9631C 108.56 27.1461 107.88 26.7601 106.99 26.7601C 105.22 26.7601 104.021 28.3062 104.021 30.5762C 104.021 31.7202 104.325 32.6541 104.9 33.3221C 105.419 33.9081 106.165 34.2562 106.9 34.2562C 107.779 34.2562 108.392 33.8851 109.017 33.0062L 109.017 33.3691C 109.017 34.3221 108.9 34.9041 108.618 35.2952C 108.325 35.7131 107.751 35.9512 107.072 35.9512C 106.564 35.9512 106.111 35.8181 105.802 35.5721C 105.548 35.3691 105.443 35.1782 105.376 34.7601L 104.243 34.7601C 104.361 36.0721 105.384 36.8531 107.017 36.8531C 108.052 36.8531 108.943 36.5211 109.392 35.9631C 109.923 35.3262 110.122 34.4431 110.122 32.8032L 110.122 26.9592L 109.118 26.9592zM 107.079 27.7601C 108.298 27.7601 109.013 28.7831 109.013 30.5491C 109.013 32.2321 108.282 33.2562 107.091 33.2562C 105.861 33.2562 105.115 32.2202 105.115 30.5062C 105.115 28.8101 105.872 27.7562 107.075 27.7562L 107.079 27.7601z"/>
<path style="stroke:none; fill-rule:evenodd; fill:#000000" d="M 111.919 26.9631L 111.919 33.9592L 113.017 33.9592L 113.017 30.1151C 113.017 28.6931 113.779 27.7601 114.947 27.7601C 115.841 27.7601 116.415 28.2911 116.415 29.1271L 116.415 33.9551L 117.513 33.9551L 117.513 28.6702C 117.513 27.5101 116.654 26.7601 115.318 26.7601C 114.286 26.7601 113.626 27.1581 113.017 28.1351L 113.017 26.9631L 111.919 26.9631z"/>
<path style="stroke:none; fill-rule:evenodd; fill:#000000" d="M 120.517 26.9592L 119.419 26.9592L 119.419 33.9592L 120.517 33.9592L 120.517 26.9592zM 120.517 24.1581L 119.419 24.1581L 119.419 25.6031L 120.517 25.6031L 120.517 24.1581z"/>
<path style="stroke:none; fill-rule:evenodd; fill:#000000" d="M 124.818 26.9592L 123.618 26.9592L 123.618 25.0211L 122.521 25.0211L 122.521 26.9592L 121.622 26.9592L 121.622 27.8571L 122.521 27.8571L 122.521 33.1461C 122.521 33.8531 123.009 34.2521 123.892 34.2521C 124.161 34.2521 124.435 34.2281 124.814 34.1622L 124.814 33.2321C 124.661 33.2482 124.482 33.2521 124.259 33.2521C 123.759 33.2521 123.618 33.1191 123.618 32.6271L 123.618 27.8531L 124.818 27.8531L 124.818 26.9592z"/>
<path style="stroke:none; fill-rule:evenodd; fill:#000000" d="M 127.22 26.9592L 126.122 26.9592L 126.122 33.9592L 127.22 33.9592L 127.22 26.9592zM 127.22 24.1581L 126.122 24.1581L 126.122 25.6031L 127.22 25.6031L 127.22 24.1581z"/>
<path style="stroke:none; fill-rule:evenodd; fill:#000000" d="M 131.935 33.9592L 134.622 26.9592L 133.365 26.9592L 131.384 32.6312L 129.513 26.9592L 128.255 26.9592L 130.716 33.9592L 131.935 33.9592z"/>
<path style="stroke:none; fill-rule:evenodd; fill:#000000" d="M 141.72 30.8611C 141.72 29.7872 141.642 29.1422 141.443 28.6191C 140.993 27.4672 139.927 26.7672 138.622 26.7672C 136.681 26.7672 135.427 28.2601 135.427 30.5562C 135.427 32.8491 136.63 34.2631 138.575 34.2631C 140.161 34.2631 141.263 33.3571 141.54 31.8381L 140.419 31.8381C 140.115 32.7751 139.486 33.2631 138.587 33.2631C 137.88 33.2631 137.279 32.9471 136.904 32.3571C 136.638 31.9592 136.544 31.5601 136.529 30.8651L 141.72 30.8611zM 136.544 29.9202C 136.638 28.6232 137.427 27.7791 138.552 27.7791C 139.65 27.7791 140.49 28.6851 140.49 29.8381C 140.49 29.8611 140.49 29.8881 140.478 29.9161L 136.544 29.9202z"/>
<path style="stroke:none; fill-rule:evenodd; fill:#000000" d="M 95.3801 40.6271C 94.9971 38.4982 93.7751 37.4631 91.6461 37.4631C 90.3451 37.4631 89.2941 37.8771 88.5791 38.6782C 87.7041 39.6381 87.2281 41.0251 87.2281 42.5991C 87.2281 44.2012 87.7161 45.5762 88.6341 46.5211C 89.3761 47.2952 90.3331 47.6541 91.5951 47.6541C 93.9581 47.6541 95.2861 46.3732 95.5791 43.7952L 94.2981 43.7952C 94.1931 44.4821 94.0601 44.9551 93.8611 45.3531C 93.4621 46.1812 92.6341 46.6501 91.5911 46.6501C 89.6581 46.6501 88.4271 45.0681 88.4271 42.5801C 88.4271 40.0251 89.5991 38.4551 91.4861 38.4551C 92.2711 38.4551 93.0051 38.7051 93.4081 39.0922C 93.7671 39.4351 93.9661 39.8691 94.1151 40.6191L 95.3801 40.6271z"/>
<path style="stroke:none; fill-rule:evenodd; fill:#000000" d="M 99.7551 40.1581C 97.8021 40.1581 96.6221 41.5562 96.6221 43.9081C 96.6221 46.2562 97.7901 47.6581 99.7711 47.6581C 101.724 47.6581 102.919 46.2601 102.919 43.9631C 102.919 41.5491 101.763 40.1622 99.7591 40.1622L 99.7551 40.1581zM 99.7671 41.1581C 101.048 41.1581 101.814 42.1931 101.814 43.9471C 101.814 45.6031 101.021 46.6541 99.7671 46.6541C 98.4971 46.6541 97.7201 45.6191 97.7201 43.9041C 97.7201 42.2092 98.4971 41.1541 99.7671 41.1541L 99.7671 41.1581z"/>
<path style="stroke:none; fill-rule:evenodd; fill:#000000" d="M 104.517 40.3611L 104.517 47.3571L 105.615 47.3571L 105.615 43.5131C 105.615 42.0922 106.376 41.1581 107.544 41.1581C 108.439 41.1581 109.013 41.6891 109.013 42.5251L 109.013 47.3531L 110.111 47.3531L 110.111 42.0681C 110.111 40.9081 109.251 40.1581 107.915 40.1581C 106.884 40.1581 106.224 40.5562 105.615 41.5331L 105.615 40.3611L 104.517 40.3611z"/>
<path style="stroke:none; fill-rule:evenodd; fill:#000000" d="M 114.419 40.3611L 113.22 40.3611L 113.22 38.4241L 112.122 38.4241L 112.122 40.3611L 111.224 40.3611L 111.224 41.2601L 112.122 41.2601L 112.122 46.5491C 112.122 47.2562 112.611 47.6541 113.493 47.6541C 113.763 47.6541 114.036 47.6312 114.415 47.5641L 114.415 46.6351C 114.263 46.6501 114.083 46.6541 113.861 46.6541C 113.361 46.6541 113.22 46.5211 113.22 46.0291L 113.22 41.2562L 114.419 41.2562L 114.419 40.3611z"/>
<path style="stroke:none; fill-rule:evenodd; fill:#000000" d="M 115.72 40.3611L 115.72 47.3571L 116.818 47.3571L 116.818 43.7401C 116.818 42.7441 117.075 42.0922 117.622 41.7051C 117.974 41.4551 118.318 41.3771 119.111 41.3611L 119.111 40.2051C 118.919 40.1812 118.825 40.1661 118.673 40.1661C 117.935 40.1661 117.372 40.5922 116.716 41.6351L 116.716 40.3691L 115.72 40.3611z"/>
<path style="stroke:none; fill-rule:evenodd; fill:#000000" d="M 122.857 40.1581C 120.904 40.1581 119.724 41.5562 119.724 43.9081C 119.724 46.2562 120.892 47.6581 122.872 47.6581C 124.825 47.6581 126.021 46.2601 126.021 43.9631C 126.021 41.5491 124.865 40.1622 122.861 40.1622L 122.857 40.1581zM 122.868 41.1581C 124.15 41.1581 124.915 42.1931 124.915 43.9471C 124.915 45.6031 124.122 46.6541 122.868 46.6541C 121.599 46.6541 120.822 45.6191 120.822 43.9041C 120.822 42.2092 121.599 41.1541 122.868 41.1541L 122.868 41.1581z"/>
<path style="stroke:none; fill-rule:evenodd; fill:#000000" d="M 127.618 47.3611L 128.716 47.3611L 128.716 37.5641L 127.618 37.5641L 127.618 47.3611z"/>
<path style="stroke:none; fill-rule:evenodd; fill:#000000" d="M 86.7201 99.6661C 86.7081 97.7672 85.4231 96.6622 83.2201 96.6622C 81.1221 96.6622 79.8251 97.7672 79.8251 99.5491C 79.8251 100.748 80.4501 101.502 81.7281 101.842L 84.1341 102.486C 85.3571 102.806 85.9191 103.306 85.9191 104.076C 85.9191 104.599 85.6381 105.138 85.2201 105.435C 84.8331 105.705 84.2121 105.853 83.4191 105.853C 82.3571 105.853 81.6301 105.592 81.1581 105.006C 80.7941 104.564 80.6341 104.076 80.6261 103.451L 79.5291 103.451C 79.5401 104.346 79.7121 104.931 80.0951 105.467C 80.7551 106.373 81.8681 106.853 83.3411 106.853C 84.4931 106.853 85.4351 106.588 86.0601 106.103C 86.7081 105.584 87.1221 104.709 87.1221 103.865C 87.1221 102.662 86.3761 101.775 85.0601 101.412L 82.6261 100.756C 81.4541 100.435 81.0291 100.06 81.0291 99.3101C 81.0291 98.3181 81.8921 97.6622 83.2001 97.6622C 84.7431 97.6622 85.6111 98.3812 85.6261 99.6661L 86.7201 99.6661z"/>
<path style="stroke:none; fill-rule:evenodd; fill:#000000" d="M 94.7201 103.459C 94.7201 102.385 94.6421 101.74 94.4431 101.217C 93.9931 100.064 92.9271 99.3651 91.6221 99.3651C 89.6811 99.3651 88.4271 100.857 88.4271 103.154C 88.4271 105.447 89.6301 106.861 91.5751 106.861C 93.1611 106.861 94.2631 105.955 94.5401 104.435L 93.4191 104.435C 93.1151 105.373 92.4861 105.861 91.5871 105.861C 90.8801 105.861 90.2791 105.545 89.9041 104.955C 89.6381 104.556 89.5441 104.158 89.5291 103.463L 94.7201 103.459zM 89.5441 102.517C 89.6381 101.22 90.4271 100.377 91.5521 100.377C 92.6501 100.377 93.4901 101.283 93.4901 102.435C 93.4901 102.459 93.4901 102.486 93.4781 102.513L 89.5441 102.517z"/>
<path style="stroke:none; fill-rule:evenodd; fill:#000000" d="M 96.1181 99.5601L 96.1181 106.556L 97.2161 106.556L 97.2161 102.181C 97.2161 101.174 97.9661 100.361 98.8921 100.361C 99.7361 100.361 100.212 100.865 100.212 101.756L 100.212 106.556L 101.31 106.556L 101.31 102.181C 101.31 101.174 102.06 100.361 102.986 100.361C 103.814 100.361 104.306 100.881 104.306 101.756L 104.306 106.556L 105.404 106.556L 105.404 101.31C 105.404 100.056 104.685 99.3611 103.38 99.3611C 102.45 99.3611 101.888 99.6381 101.236 100.416C 100.825 99.6782 100.263 99.3611 99.3571 99.3611C 98.4231 99.3611 97.8101 99.7092 97.2121 100.549L 97.2121 99.5641L 96.1181 99.5601z"/>
<path style="stroke:none; fill-rule:evenodd; fill:#000000" d="M 113.579 105.904C 113.458 105.959 113.404 105.959 113.337 105.959C 112.943 105.959 112.724 105.76 112.724 105.412L 112.724 101.283C 112.724 100.037 111.818 99.3651 110.095 99.3651C 109.083 99.3651 108.243 99.6581 107.775 100.174C 107.458 100.529 107.322 100.931 107.298 101.623L 108.419 101.623C 108.509 100.756 109.017 100.365 110.06 100.365C 111.06 100.365 111.622 100.74 111.622 101.408L 111.622 101.701C 111.622 102.17 111.345 102.369 110.47 102.474C 108.908 102.674 108.669 102.728 108.243 102.9C 107.435 103.232 107.025 103.865 107.025 104.775C 107.025 106.045 107.9 106.849 109.31 106.849C 110.185 106.849 110.892 106.545 111.677 105.83C 111.755 106.533 112.103 106.849 112.822 106.849C 113.044 106.849 113.22 106.826 113.579 106.732L 113.579 105.904zM 111.618 104.338C 111.618 104.705 111.513 104.931 111.177 105.236C 110.724 105.646 110.169 105.857 109.509 105.857C 108.634 105.857 108.126 105.447 108.126 104.748C 108.126 104.021 108.622 103.65 109.822 103.478C 111.005 103.322 111.247 103.267 111.622 103.096L 111.618 104.338z"/>
<path style="stroke:none; fill-rule:evenodd; fill:#000000" d="M 114.72 99.5601L 114.72 106.556L 115.818 106.556L 115.818 102.713C 115.818 101.291 116.579 100.357 117.747 100.357C 118.642 100.357 119.216 100.888 119.216 101.724L 119.216 106.553L 120.314 106.553L 120.314 101.267C 120.314 100.107 119.454 99.3571 118.118 99.3571C 117.087 99.3571 116.427 99.7562 115.818 100.732L 115.818 99.5601L 114.72 99.5601z"/>
<path style="stroke:none; fill-rule:evenodd; fill:#000000" d="M 124.618 99.5601L 123.419 99.5601L 123.419 97.6232L 122.322 97.6232L 122.322 99.5601L 121.423 99.5601L 121.423 100.459L 122.322 100.459L 122.322 105.748C 122.322 106.455 122.81 106.853 123.693 106.853C 123.962 106.853 124.236 106.83 124.615 106.763L 124.615 105.834C 124.462 105.849 124.282 105.853 124.06 105.853C 123.56 105.853 123.419 105.72 123.419 105.228L 123.419 100.455L 124.618 100.455L 124.618 99.5601z"/>
<path style="stroke:none; fill-rule:evenodd; fill:#000000" d="M 127.017 99.5601L 125.919 99.5601L 125.919 106.56L 127.017 106.56L 127.017 99.5601zM 127.017 96.7601L 125.919 96.7601L 125.919 98.2051L 127.017 98.2051L 127.017 96.7601z"/>
<path style="stroke:none; fill-rule:evenodd; fill:#000000" d="M 134.224 101.9C 134.173 101.205 134.025 100.756 133.755 100.357C 133.275 99.7321 132.427 99.3571 131.45 99.3571C 129.56 99.3571 128.325 100.849 128.325 103.174C 128.325 105.428 129.529 106.857 131.435 106.857C 133.111 106.857 134.169 105.857 134.302 104.15L 133.161 104.15C 132.974 105.287 132.388 105.857 131.423 105.857C 130.173 105.857 129.423 104.849 129.423 103.178C 129.423 101.412 130.158 100.361 131.396 100.361C 132.345 100.361 132.947 100.916 133.079 101.904L 134.224 101.9z"/>
<path style="stroke:none; fill-rule:evenodd; fill:#000000" d="M 137.685 96.7601L 134.513 106.826L 135.247 106.826L 138.419 96.7601L 137.685 96.7601z"/>
<path style="stroke:none; fill-rule:evenodd; fill:#000000" d="M 81.2201 115.76L 84.3371 115.76C 85.1111 115.76 85.7241 115.533 86.2551 115.068C 86.8531 114.537 87.1111 113.912 87.1111 113.017C 87.1111 111.193 86.0171 110.166 84.0751 110.166L 80.0131 110.166L 80.0131 119.963L 81.2121 119.963L 81.2201 115.76zM 81.2201 114.76L 81.2201 111.162L 83.8721 111.162C 85.0871 111.162 85.8141 111.838 85.8141 112.959C 85.8141 114.084 85.0911 114.756 83.8721 114.756L 81.2201 114.76z"/>
<path style="stroke:none; fill-rule:evenodd; fill:#000000" d="M 88.7201 112.963L 88.7201 119.959L 89.8181 119.959L 89.8181 116.342C 89.8181 115.346 90.0751 114.693 90.6221 114.306C 90.9741 114.056 91.3181 113.978 92.1111 113.963L 92.1111 112.806C 91.9191 112.783 91.8251 112.767 91.6731 112.767C 90.9351 112.767 90.3721 113.193 89.7161 114.236L 89.7161 112.97L 88.7201 112.963z"/>
<path style="stroke:none; fill-rule:evenodd; fill:#000000" d="M 95.8571 112.76C 93.9041 112.76 92.7241 114.158 92.7241 116.51C 92.7241 118.857 93.8921 120.26 95.8721 120.26C 97.8251 120.26 99.0211 118.861 99.0211 116.564C 99.0211 114.15 97.8651 112.763 95.8611 112.763L 95.8571 112.76zM 95.8681 113.76C 97.1501 113.76 97.9151 114.795 97.9151 116.549C 97.9151 118.205 97.1221 119.256 95.8681 119.256C 94.5991 119.256 93.8221 118.22 93.8221 116.506C 93.8221 114.81 94.5991 113.756 95.8681 113.756L 95.8681 113.76z"/>
<path style="stroke:none; fill-rule:evenodd; fill:#000000" d="M 106.021 115.303C 105.97 114.607 105.822 114.158 105.552 113.76C 105.072 113.135 104.224 112.76 103.247 112.76C 101.357 112.76 100.122 114.252 100.122 116.576C 100.122 118.83 101.325 120.26 103.232 120.26C 104.908 120.26 105.966 119.26 106.099 117.553L 104.958 117.553C 104.771 118.689 104.185 119.26 103.22 119.26C 101.97 119.26 101.22 118.252 101.22 116.58C 101.22 114.814 101.954 113.763 103.193 113.763C 104.142 113.763 104.743 114.318 104.876 115.306L 106.021 115.303z"/>
<path style="stroke:none; fill-rule:evenodd; fill:#000000" d="M 113.318 116.861C 113.318 115.787 113.24 115.142 113.04 114.619C 112.591 113.467 111.525 112.767 110.22 112.767C 108.279 112.767 107.025 114.26 107.025 116.556C 107.025 118.849 108.228 120.263 110.173 120.263C 111.759 120.263 112.861 119.357 113.138 117.838L 112.017 117.838C 111.712 118.775 111.083 119.263 110.185 119.263C 109.478 119.263 108.876 118.947 108.501 118.357C 108.236 117.959 108.142 117.56 108.126 116.865L 113.318 116.861zM 108.146 115.92C 108.24 114.623 109.029 113.779 110.154 113.779C 111.251 113.779 112.091 114.685 112.091 115.838C 112.091 115.861 112.091 115.888 112.079 115.916L 108.146 115.92z"/>
<path style="stroke:none; fill-rule:evenodd; fill:#000000" d="M 120.419 110.158L 119.322 110.158L 119.322 113.826C 118.861 113.127 118.122 112.76 117.197 112.76C 115.4 112.76 114.224 114.213 114.224 116.443C 114.224 118.803 115.368 120.26 117.224 120.26C 118.169 120.26 118.825 119.904 119.419 119.037L 119.419 119.959L 120.419 119.959L 120.419 110.158zM 117.353 113.76C 118.556 113.76 119.318 114.842 119.318 116.537C 119.318 118.174 118.544 119.26 117.365 119.26C 116.134 119.26 115.318 118.166 115.318 116.51C 115.318 114.857 116.13 113.76 117.349 113.76L 117.353 113.76z"/>
<path style="stroke:none; fill-rule:evenodd; fill:#000000" d="M 127.618 119.955L 127.618 112.963L 126.521 112.963L 126.521 116.908C 126.521 118.33 125.786 119.26 124.642 119.26C 123.775 119.26 123.224 118.728 123.224 117.892L 123.224 112.963L 122.126 112.963L 122.126 118.353C 122.126 119.513 122.978 120.26 124.322 120.26C 125.333 120.26 125.978 119.9 126.622 118.982L 126.622 119.955L 127.618 119.955z"/>
<path style="stroke:none; fill-rule:evenodd; fill:#000000" d="M 129.618 112.963L 129.618 119.959L 130.716 119.959L 130.716 116.342C 130.716 115.346 130.974 114.693 131.521 114.306C 131.872 114.056 132.216 113.978 133.009 113.963L 133.009 112.806C 132.818 112.783 132.724 112.767 132.572 112.767C 131.833 112.767 131.271 113.193 130.615 114.236L 130.615 112.97L 129.618 112.963z"/>
<path style="stroke:none; fill-rule:evenodd; fill:#000000" d="M 140.279 119.303C 140.158 119.357 140.103 119.357 140.036 119.357C 139.642 119.357 139.423 119.158 139.423 118.81L 139.423 114.681C 139.423 113.435 138.517 112.763 136.794 112.763C 135.782 112.763 134.943 113.056 134.474 113.572C 134.158 113.928 134.021 114.33 133.997 115.021L 135.118 115.021C 135.208 114.154 135.716 113.763 136.759 113.763C 137.759 113.763 138.322 114.138 138.322 114.806L 138.322 115.099C 138.322 115.568 138.044 115.767 137.169 115.873C 135.607 116.072 135.368 116.127 134.943 116.299C 134.134 116.631 133.724 117.263 133.724 118.174C 133.724 119.443 134.599 120.248 136.009 120.248C 136.884 120.248 137.591 119.943 138.376 119.228C 138.454 119.931 138.802 120.248 139.521 120.248C 139.743 120.248 139.919 120.224 140.279 120.131L 140.279 119.303zM 138.318 117.736C 138.318 118.103 138.212 118.33 137.876 118.635C 137.423 119.045 136.868 119.256 136.208 119.256C 135.333 119.256 134.825 118.846 134.825 118.146C 134.825 117.42 135.322 117.049 136.521 116.877C 137.704 116.72 137.947 116.666 138.322 116.494L 138.318 117.736z"/>
<path style="stroke:none; fill-rule:evenodd; fill:#000000" d="M 141.517 119.959L 142.615 119.959L 142.615 110.162L 141.517 110.162L 141.517 119.959z"/>
<path style="stroke:none; fill-rule:evenodd; fill:#000000" d="M 81.1181 129.947L 82.7081 128.357L 86.1461 133.361L 87.6181 133.361L 83.6031 127.556L 87.5751 123.564L 85.9701 123.564L 81.1111 128.545L 81.1111 123.564L 79.9111 123.564L 79.9111 133.361L 81.1111 133.361L 81.1181 129.947z"/>
<path style="stroke:none; fill-rule:evenodd; fill:#000000" d="M 88.7201 126.361L 88.7201 133.357L 89.8181 133.357L 89.8181 129.513C 89.8181 128.092 90.5791 127.158 91.7471 127.158C 92.6421 127.158 93.2161 127.689 93.2161 128.525L 93.2161 133.353L 94.3141 133.353L 94.3141 128.068C 94.3141 126.908 93.4541 126.158 92.1181 126.158C 91.0871 126.158 90.4271 126.556 89.8181 127.533L 89.8181 126.361L 88.7201 126.361z"/>
<path style="stroke:none; fill-rule:evenodd; fill:#000000" d="M 98.8571 126.158C 96.9041 126.158 95.7241 127.556 95.7241 129.908C 95.7241 132.256 96.8921 133.658 98.8721 133.658C 100.825 133.658 102.021 132.26 102.021 129.963C 102.021 127.549 100.865 126.162 98.8611 126.162L 98.8571 126.158zM 98.8681 127.158C 100.15 127.158 100.915 128.193 100.915 129.947C 100.915 131.603 100.122 132.654 98.8681 132.654C 97.5991 132.654 96.8221 131.619 96.8221 129.904C 96.8221 128.209 97.5991 127.154 98.8681 127.154L 98.8681 127.158z"/>
<path style="stroke:none; fill-rule:evenodd; fill:#000000" d="M 110.032 133.361L 112.091 126.361L 110.833 126.361L 109.443 131.806L 108.064 126.361L 106.7 126.361L 105.365 131.806L 103.935 126.361L 102.704 126.361L 104.736 133.361L 105.993 133.361L 107.345 127.861L 108.763 133.361L 110.032 133.361z"/>
<path style="stroke:none; fill-rule:evenodd; fill:#000000" d="M 113.22 133.361L 114.318 133.361L 114.318 123.564L 113.22 123.564L 113.22 133.361z"/>
<path style="stroke:none; fill-rule:evenodd; fill:#000000" d="M 122.22 130.26C 122.22 129.185 122.142 128.541 121.943 128.017C 121.493 126.865 120.427 126.166 119.122 126.166C 117.181 126.166 115.927 127.658 115.927 129.955C 115.927 132.248 117.13 133.662 119.075 133.662C 120.661 133.662 121.763 132.756 122.04 131.236L 120.919 131.236C 120.615 132.174 119.986 132.662 119.087 132.662C 118.38 132.662 117.779 132.346 117.404 131.756C 117.138 131.357 117.044 130.959 117.029 130.263L 122.22 130.26zM 117.044 129.318C 117.138 128.021 117.927 127.178 119.052 127.178C 120.15 127.178 120.99 128.084 120.99 129.236C 120.99 129.26 120.99 129.287 120.978 129.314L 117.044 129.318z"/>
<path style="stroke:none; fill-rule:evenodd; fill:#000000" d="M 129.318 123.56L 128.22 123.56L 128.22 127.228C 127.759 126.529 127.021 126.162 126.095 126.162C 124.298 126.162 123.122 127.615 123.122 129.846C 123.122 132.205 124.267 133.662 126.122 133.662C 127.068 133.662 127.724 133.306 128.318 132.439L 128.318 133.361L 129.318 133.361L 129.318 123.56zM 126.251 127.158C 127.454 127.158 128.216 128.24 128.216 129.935C 128.216 131.572 127.443 132.658 126.263 132.658C 125.032 132.658 124.216 131.564 124.216 129.908C 124.216 128.256 125.029 127.158 126.247 127.158L 126.251 127.158z"/>
<path style="stroke:none; fill-rule:evenodd; fill:#000000" d="M 135.72 126.361L 135.72 127.365C 135.161 126.549 134.482 126.162 133.591 126.162C 131.822 126.162 130.622 127.709 130.622 129.978C 130.622 131.123 130.927 132.056 131.501 132.724C 132.021 133.31 132.767 133.658 133.501 133.658C 134.38 133.658 134.993 133.287 135.618 132.408L 135.618 132.771C 135.618 133.724 135.501 134.306 135.22 134.697C 134.927 135.115 134.353 135.353 133.673 135.353C 133.165 135.353 132.712 135.22 132.404 134.974C 132.15 134.771 132.044 134.58 131.978 134.162L 130.845 134.162C 130.962 135.474 131.986 136.256 133.618 136.256C 134.654 136.256 135.544 135.924 135.993 135.365C 136.525 134.728 136.724 133.846 136.724 132.205L 136.724 126.361L 135.72 126.361zM 133.681 127.158C 134.9 127.158 135.615 128.181 135.615 129.947C 135.615 131.631 134.884 132.654 133.693 132.654C 132.462 132.654 131.716 131.619 131.716 129.904C 131.716 128.209 132.474 127.154 133.677 127.154L 133.681 127.158z"/>
<path style="stroke:none; fill-rule:evenodd; fill:#000000" d="M 144.517 130.26C 144.517 129.185 144.439 128.541 144.24 128.017C 143.79 126.865 142.724 126.166 141.419 126.166C 139.478 126.166 138.224 127.658 138.224 129.955C 138.224 132.248 139.427 133.662 141.372 133.662C 142.958 133.662 144.06 132.756 144.337 131.236L 143.216 131.236C 142.911 132.174 142.282 132.662 141.384 132.662C 140.677 132.662 140.075 132.346 139.7 131.756C 139.435 131.357 139.341 130.959 139.325 130.263L 144.517 130.26zM 139.345 129.318C 139.439 128.021 140.228 127.178 141.353 127.178C 142.45 127.178 143.29 128.084 143.29 129.236C 143.29 129.26 143.29 129.287 143.279 129.314L 139.345 129.318z"/>
<path style="stroke:none; fill-rule:evenodd; fill:#ff0000" d="M 84.7201 66.9592L 84.7201 68.2241L 85.0361 69.7562L 85.4971 69.7562L 85.8141 68.2241L 85.8141 66.9592L 84.7201 66.9592zM 86.5171 66.9592L 86.5171 68.2241L 86.8331 69.7562L 87.2941 69.7562L 87.6111 68.2241L 87.6111 66.9592L 86.5171 66.9592z"/>
<path style="stroke:none; fill-rule:evenodd; fill:#ff0000" d="M 93.2431 70.7241C 93.2321 69.5331 92.4471 68.8611 91.0481 68.8611C 89.6381 68.8611 88.7241 69.5881 88.7241 70.7092C 88.7241 71.6541 89.2121 72.1031 90.6611 72.4512L 91.5721 72.6702C 92.2471 72.8301 92.5171 73.0721 92.5171 73.5101C 92.5171 74.0721 91.9501 74.4551 91.1071 74.4551C 90.5871 74.4551 90.1501 74.3062 89.9081 74.0491C 89.7591 73.8771 89.6891 73.7012 89.6341 73.2672L 88.6181 73.2672C 88.6611 74.6782 89.4471 75.3531 91.0291 75.3531C 92.5521 75.3531 93.5211 74.6031 93.5211 73.4391C 93.5211 72.5411 93.0091 72.0452 91.7941 71.7562L 90.8611 71.5372C 90.0681 71.3531 89.7281 71.0991 89.7281 70.6741C 89.7281 70.1232 90.2241 69.7631 91.0131 69.7631C 91.7861 69.7631 92.2041 70.0961 92.2281 70.7241L 93.2431 70.7241z"/>
<path style="stroke:none; fill-rule:evenodd; fill:#ff0000" d="M 99.5171 75.0961L 99.5171 69.0641L 98.5171 69.0641L 98.5171 72.5101C 98.5171 73.7482 97.8721 74.5601 96.8681 74.5601C 96.1071 74.5601 95.6221 74.0991 95.6221 73.3691L 95.6221 69.0641L 94.6221 69.0641L 94.6221 73.7172C 94.6221 74.7172 95.3611 75.3611 96.5251 75.3611C 97.4001 75.3611 97.9581 75.0532 98.5171 74.2601L 98.5171 75.0991L 99.5171 75.0961z"/>
<path style="stroke:none; fill-rule:evenodd; fill:#ff0000" d="M 100.919 77.5601L 101.919 77.5601L 101.919 74.4592C 102.419 75.0801 102.982 75.3571 103.759 75.3571C 105.302 75.3571 106.318 74.0991 106.318 72.1661C 106.318 70.1312 105.333 68.8611 103.736 68.8611C 102.923 68.8611 102.267 69.2281 101.822 69.9391L 101.822 69.0331L 100.923 69.0331L 100.919 77.5601zM 103.583 69.7601C 104.63 69.7601 105.318 70.6971 105.318 72.1422C 105.318 73.5172 104.622 74.4551 103.583 74.4551C 102.579 74.4551 101.919 73.5291 101.919 72.1071C 101.919 70.6851 102.579 69.7601 103.583 69.7601z"/>
<path style="stroke:none; fill-rule:evenodd; fill:#ff0000" d="M 112.618 72.3611C 112.618 71.4431 112.552 70.8922 112.38 70.4471C 111.993 69.4631 111.079 68.8651 109.962 68.8651C 108.298 68.8651 107.224 70.1581 107.224 72.1461C 107.224 74.1351 108.259 75.3611 109.931 75.3611C 111.294 75.3611 112.24 74.5681 112.478 73.2401L 111.525 73.2401C 111.267 74.0411 110.732 74.4631 109.97 74.4631C 109.368 74.4631 108.861 74.1851 108.54 73.6702C 108.314 73.3221 108.236 72.9702 108.224 72.3651L 112.618 72.3611zM 108.197 71.5961C 108.275 70.4861 108.95 69.7601 109.915 69.7601C 110.853 69.7601 111.575 70.5372 111.575 71.5251C 111.575 71.5452 111.575 71.5681 111.568 71.5922L 108.197 71.5961z"/>
<path style="stroke:none; fill-rule:evenodd; fill:#ff0000" d="M 113.818 69.0331L 113.818 75.0562L 114.818 75.0562L 114.818 71.9241C 114.818 71.0601 115.029 70.4982 115.478 70.1622C 115.767 69.9431 116.048 69.8771 116.697 69.8611L 116.697 68.8961C 116.54 68.8771 116.462 68.8651 116.337 68.8651C 115.728 68.8651 115.263 69.2321 114.72 70.1312L 114.72 69.0411L 113.818 69.0331z"/>
<path style="stroke:none; fill-rule:evenodd; fill:#ff0000" d="M 122.818 72.3611C 122.818 71.4431 122.751 70.8922 122.579 70.4471C 122.193 69.4631 121.279 68.8651 120.161 68.8651C 118.497 68.8651 117.423 70.1581 117.423 72.1461C 117.423 74.1351 118.458 75.3611 120.13 75.3611C 121.493 75.3611 122.439 74.5681 122.677 73.2401L 121.724 73.2401C 121.466 74.0411 120.931 74.4631 120.169 74.4631C 119.568 74.4631 119.06 74.1851 118.74 73.6702C 118.513 73.3221 118.435 72.9702 118.423 72.3651L 122.818 72.3611zM 118.4 71.5961C 118.478 70.4861 119.154 69.7601 120.118 69.7601C 121.056 69.7601 121.779 70.5372 121.779 71.5251C 121.779 71.5452 121.779 71.5681 121.771 71.5922L 118.4 71.5961z"/>
<path style="stroke:none; fill-rule:evenodd; fill:#ff0000" d="M 127.919 69.0601L 127.919 69.9202C 127.439 69.2012 126.853 68.8611 126.083 68.8611C 124.56 68.8611 123.525 70.2012 123.525 72.1661C 123.525 73.1581 123.786 73.9672 124.279 74.5452C 124.724 75.0532 125.365 75.3531 125.997 75.3531C 126.751 75.3531 127.279 75.0251 127.818 74.2401L 127.818 74.5491C 127.818 75.3611 127.716 75.8571 127.478 76.1891C 127.228 76.5452 126.74 76.7482 126.161 76.7482C 125.732 76.7482 125.345 76.6351 125.083 76.4282C 124.868 76.2562 124.779 76.0961 124.72 75.7401L 123.755 75.7401C 123.857 76.8732 124.736 77.5491 126.146 77.5491C 127.036 77.5491 127.802 77.2631 128.193 76.7831C 128.65 76.2361 128.822 75.4781 128.822 74.0681L 128.822 69.0532L 127.919 69.0601zM 126.181 69.7601C 127.208 69.7601 127.818 70.6351 127.818 72.1422C 127.818 73.5801 127.2 74.4551 126.193 74.4551C 125.15 74.4551 124.521 73.5681 124.521 72.1071C 124.521 70.6581 125.161 69.7601 126.181 69.7601z"/>
<path style="stroke:none; fill-rule:evenodd; fill:#ff0000" d="M 132.755 68.8611C 131.052 68.8611 130.017 70.0762 130.017 72.1111C 130.017 74.1461 131.036 75.3611 132.767 75.3611C 134.47 75.3611 135.517 74.1501 135.517 72.1581C 135.517 70.0681 134.509 68.8651 132.755 68.8651L 132.755 68.8611zM 132.767 69.7601C 133.861 69.7601 134.517 70.6461 134.517 72.1422C 134.517 73.5562 133.841 74.4551 132.767 74.4551C 131.685 74.4551 131.017 73.5681 131.017 72.1071C 131.017 70.6581 131.681 69.7601 132.767 69.7601z"/>
<path style="stroke:none; fill-rule:evenodd; fill:#ff0000" d="M 136.618 66.9592L 136.618 68.2241L 136.935 69.7562L 137.396 69.7562L 137.712 68.2241L 137.712 66.9592L 136.618 66.9592zM 138.419 66.9592L 138.419 68.2241L 138.736 69.7562L 139.197 69.7562L 139.513 68.2241L 139.513 66.9592L 138.419 66.9592z"/>
<path style="stroke:none; fill-rule:evenodd; fill:#ff0000" d="M 98.1181 154.459L 98.1181 155.724L 98.4351 157.256L 98.8961 157.256L 99.2121 155.724L 99.2121 154.459L 98.1181 154.459zM 99.9191 154.459L 99.9191 155.724L 100.236 157.256L 100.697 157.256L 101.013 155.724L 101.013 154.459L 99.9191 154.459z"/>
<path style="stroke:none; fill-rule:evenodd; fill:#ff0000" d="M 107.517 159.861C 107.517 158.943 107.45 158.392 107.279 157.947C 106.892 156.963 105.978 156.365 104.861 156.365C 103.197 156.365 102.122 157.658 102.122 159.646C 102.122 161.635 103.158 162.861 104.829 162.861C 106.193 162.861 107.138 162.068 107.376 160.74L 106.423 160.74C 106.165 161.541 105.63 161.963 104.868 161.963C 104.267 161.963 103.759 161.685 103.439 161.17C 103.212 160.822 103.134 160.47 103.122 159.865L 107.517 159.861zM 103.099 159.096C 103.177 157.986 103.853 157.26 104.818 157.26C 105.755 157.26 106.478 158.037 106.478 159.025C 106.478 159.045 106.478 159.068 106.47 159.092L 103.099 159.096z"/>
<path style="stroke:none; fill-rule:evenodd; fill:#ff0000" d="M 112.618 156.56L 112.618 157.42C 112.138 156.701 111.552 156.361 110.782 156.361C 109.259 156.361 108.224 157.701 108.224 159.666C 108.224 160.658 108.486 161.467 108.978 162.045C 109.423 162.553 110.064 162.853 110.697 162.853C 111.45 162.853 111.978 162.525 112.517 161.74L 112.517 162.049C 112.517 162.861 112.415 163.357 112.177 163.689C 111.927 164.045 111.439 164.248 110.861 164.248C 110.431 164.248 110.044 164.135 109.782 163.928C 109.568 163.756 109.478 163.596 109.419 163.24L 108.454 163.24C 108.556 164.373 109.435 165.049 110.845 165.049C 111.736 165.049 112.501 164.763 112.892 164.283C 113.349 163.736 113.521 162.978 113.521 161.568L 113.521 156.553L 112.618 156.56zM 110.88 157.26C 111.908 157.26 112.517 158.135 112.517 159.642C 112.517 161.08 111.9 161.955 110.892 161.955C 109.849 161.955 109.22 161.068 109.22 159.607C 109.22 158.158 109.861 157.26 110.88 157.26z"/>
<path style="stroke:none; fill-rule:evenodd; fill:#ff0000" d="M 117.454 156.361C 115.751 156.361 114.716 157.576 114.716 159.611C 114.716 161.646 115.736 162.861 117.466 162.861C 119.169 162.861 120.216 161.65 120.216 159.658C 120.216 157.568 119.208 156.365 117.454 156.365L 117.454 156.361zM 117.47 157.26C 118.564 157.26 119.22 158.146 119.22 159.642C 119.22 161.056 118.544 161.955 117.47 161.955C 116.388 161.955 115.72 161.068 115.72 159.607C 115.72 158.158 116.384 157.26 117.47 157.26z"/>
<path style="stroke:none; fill-rule:evenodd; fill:#ff0000" d="M 121.318 154.459L 121.318 155.724L 121.634 157.256L 122.095 157.256L 122.411 155.724L 122.411 154.459L 121.318 154.459zM 123.118 154.459L 123.118 155.724L 123.435 157.256L 123.896 157.256L 124.212 155.724L 124.212 154.459L 123.118 154.459z"/>
<path style="stroke:none; fill-rule:evenodd; fill:#ed89ed" d="M 65.7821 138.861C 64.4581 140.623 63.6181 143.064 63.6181 145.174C 63.6181 147.291 64.4541 149.736 65.7821 151.494L 66.5091 151.494C 65.3571 149.576 64.7161 147.318 64.7161 145.174C 64.7161 143.041 65.3571 140.771 66.5091 138.861L 65.7821 138.861z"/>
<path style="stroke:none; fill-rule:evenodd; fill:#ed89ed" d="M 69.4191 144.459L 72.5361 144.459C 73.3101 144.459 73.9231 144.232 74.4541 143.767C 75.0521 143.236 75.3101 142.611 75.3101 141.717C 75.3101 139.892 74.2161 138.865 72.2751 138.865L 68.2121 138.865L 68.2121 148.662L 69.4111 148.662L 69.4191 144.459zM 69.4191 143.459L 69.4191 139.861L 72.0721 139.861C 73.2861 139.861 74.0131 140.537 74.0131 141.658C 74.0131 142.783 73.2901 143.455 72.0721 143.455L 69.4191 143.459z"/>
<path style="stroke:none; fill-rule:evenodd; fill:#ed89ed" d="M 79.6541 141.459C 77.7001 141.459 76.5211 142.857 76.5211 145.209C 76.5211 147.556 77.6891 148.959 79.6691 148.959C 81.6221 148.959 82.8181 147.56 82.8181 145.263C 82.8181 142.849 81.6611 141.463 79.6581 141.463L 79.6541 141.459zM 79.6691 142.459C 80.9501 142.459 81.7161 143.494 81.7161 145.248C 81.7161 146.904 80.9231 147.955 79.6691 147.955C 78.4001 147.955 77.6221 146.92 77.6221 145.205C 77.6221 143.51 78.4001 142.455 79.6691 142.455L 79.6691 142.459z"/>
<path style="stroke:none; fill-rule:evenodd; fill:#ed89ed" d="M 89.2821 143.599C 89.2711 142.232 88.3721 141.459 86.7751 141.459C 85.1651 141.459 84.1221 142.303 84.1221 143.603C 84.1221 144.701 84.6771 145.22 86.3181 145.623L 87.3491 145.877C 88.1151 146.064 88.4191 146.346 88.4191 146.853C 88.4191 147.51 87.7631 147.951 86.7791 147.951C 86.1771 147.951 85.6651 147.775 85.3841 147.474C 85.2121 147.271 85.1301 147.068 85.0641 146.564L 83.8841 146.564C 83.9351 148.178 84.8371 148.951 86.6581 148.951C 88.4081 148.951 89.5251 148.084 89.5251 146.728C 89.5251 145.685 88.9431 145.111 87.5681 144.775L 86.5091 144.521C 85.6111 144.31 85.2281 144.013 85.2281 143.517C 85.2281 142.877 85.8021 142.459 86.7081 142.459C 87.6031 142.459 88.0831 142.849 88.1111 143.599L 89.2821 143.599z"/>
<path style="stroke:none; fill-rule:evenodd; fill:#ed89ed" d="M 93.5171 141.658L 92.3181 141.658L 92.3181 139.72L 91.2201 139.72L 91.2201 141.658L 90.3221 141.658L 90.3221 142.556L 91.2201 142.556L 91.2201 147.846C 91.2201 148.553 91.7081 148.951 92.5911 148.951C 92.8611 148.951 93.1341 148.928 93.5131 148.861L 93.5131 147.931C 93.3611 147.947 93.1811 147.951 92.9581 147.951C 92.4581 147.951 92.3181 147.818 92.3181 147.326L 92.3181 142.553L 93.5171 142.553L 93.5171 141.658z"/>
<path style="stroke:none; fill-rule:evenodd; fill:#ed89ed" d="M 100.72 145.56C 100.72 144.486 100.642 143.842 100.443 143.318C 99.9931 142.166 98.9271 141.467 97.6221 141.467C 95.6811 141.467 94.4271 142.959 94.4271 145.256C 94.4271 147.549 95.6301 148.963 97.5751 148.963C 99.1611 148.963 100.263 148.056 100.54 146.537L 99.4191 146.537C 99.1151 147.474 98.4861 147.963 97.5871 147.963C 96.8801 147.963 96.2791 147.646 95.9041 147.056C 95.6381 146.658 95.5441 146.26 95.5291 145.564L 100.72 145.56zM 95.5441 144.619C 95.6381 143.322 96.4271 142.478 97.5521 142.478C 98.6501 142.478 99.4901 143.385 99.4901 144.537C 99.4901 144.56 99.4901 144.588 99.4781 144.615L 95.5441 144.619z"/>
<path style="stroke:none; fill-rule:evenodd; fill:#ed89ed" d="M 102.22 141.662L 102.22 148.658L 103.318 148.658L 103.318 145.041C 103.318 144.045 103.575 143.392 104.122 143.006C 104.474 142.756 104.818 142.678 105.611 142.662L 105.611 141.506C 105.419 141.482 105.325 141.467 105.173 141.467C 104.435 141.467 103.872 141.892 103.216 142.935L 103.216 141.67L 102.22 141.662z"/>
<path style="stroke:none; fill-rule:evenodd; fill:#ed89ed" d="M 107.72 141.658L 106.622 141.658L 106.622 148.658L 107.72 148.658L 107.72 141.658zM 107.72 138.861L 106.622 138.861L 106.622 140.306L 107.72 140.306L 107.72 138.861z"/>
<path style="stroke:none; fill-rule:evenodd; fill:#ed89ed" d="M 112.357 141.459C 110.404 141.459 109.224 142.857 109.224 145.209C 109.224 147.556 110.392 148.959 112.372 148.959C 114.325 148.959 115.521 147.56 115.521 145.263C 115.521 142.849 114.365 141.463 112.361 141.463L 112.357 141.459zM 112.368 142.459C 113.65 142.459 114.415 143.494 114.415 145.248C 114.415 146.904 113.622 147.955 112.368 147.955C 111.099 147.955 110.322 146.92 110.322 145.205C 110.322 143.51 111.099 142.455 112.368 142.455L 112.368 142.459z"/>
<path style="stroke:none; fill-rule:evenodd; fill:#ed89ed" d="M 117.017 141.662L 117.017 148.658L 118.115 148.658L 118.115 145.041C 118.115 144.045 118.372 143.392 118.919 143.006C 119.271 142.756 119.615 142.678 120.408 142.662L 120.408 141.506C 120.216 141.482 120.122 141.467 119.97 141.467C 119.232 141.467 118.669 141.892 118.013 142.935L 118.013 141.67L 117.017 141.662z"/>
<path style="stroke:none; fill-rule:evenodd; fill:#ed89ed" d="M 133.181 141.928C 132.798 139.799 131.575 138.763 129.447 138.763C 128.146 138.763 127.095 139.178 126.38 139.978C 125.505 140.939 125.029 142.326 125.029 143.9C 125.029 145.502 125.517 146.877 126.435 147.822C 127.177 148.596 128.134 148.955 129.396 148.955C 131.759 148.955 133.087 147.674 133.38 145.096L 132.099 145.096C 131.993 145.783 131.861 146.256 131.661 146.654C 131.263 147.482 130.435 147.951 129.392 147.951C 127.458 147.951 126.228 146.369 126.228 143.881C 126.228 141.326 127.4 139.756 129.286 139.756C 130.072 139.756 130.806 140.006 131.208 140.392C 131.568 140.736 131.767 141.17 131.915 141.92L 133.181 141.928z"/>
<path style="stroke:none; fill-rule:evenodd; fill:#ed89ed" d="M 137.654 141.459C 135.7 141.459 134.521 142.857 134.521 145.209C 134.521 147.556 135.689 148.959 137.669 148.959C 139.622 148.959 140.818 147.56 140.818 145.263C 140.818 142.849 139.661 141.463 137.658 141.463L 137.654 141.459zM 137.669 142.459C 138.95 142.459 139.716 143.494 139.716 145.248C 139.716 146.904 138.923 147.955 137.669 147.955C 136.4 147.955 135.622 146.92 135.622 145.205C 135.622 143.51 136.4 142.455 137.669 142.455L 137.669 142.459z"/>
<path style="stroke:none; fill-rule:evenodd; fill:#ed89ed" d="M 142.318 141.662L 142.318 148.658L 143.415 148.658L 143.415 145.041C 143.415 144.045 143.673 143.392 144.22 143.006C 144.572 142.756 144.915 142.678 145.708 142.662L 145.708 141.506C 145.517 141.482 145.423 141.467 145.271 141.467C 144.532 141.467 143.97 141.892 143.314 142.935L 143.314 141.67L 142.318 141.662z"/>
<path style="stroke:none; fill-rule:evenodd; fill:#ed89ed" d="M 149.318 141.658L 148.118 141.658L 148.118 139.72L 147.021 139.72L 147.021 141.658L 146.122 141.658L 146.122 142.556L 147.021 142.556L 147.021 147.846C 147.021 148.553 147.509 148.951 148.392 148.951C 148.661 148.951 148.935 148.928 149.314 148.861L 149.314 147.931C 149.161 147.947 148.982 147.951 148.759 147.951C 148.259 147.951 148.118 147.818 148.118 147.326L 148.118 142.553L 149.318 142.553L 149.318 141.658z"/>
<path style="stroke:none; fill-rule:evenodd; fill:#ed89ed" d="M 156.517 145.56C 156.517 144.486 156.439 143.842 156.24 143.318C 155.79 142.166 154.724 141.467 153.419 141.467C 151.478 141.467 150.224 142.959 150.224 145.256C 150.224 147.549 151.427 148.963 153.372 148.963C 154.958 148.963 156.06 148.056 156.337 146.537L 155.216 146.537C 154.911 147.474 154.282 147.963 153.384 147.963C 152.677 147.963 152.075 147.646 151.7 147.056C 151.435 146.658 151.341 146.26 151.325 145.564L 156.517 145.56zM 151.345 144.619C 151.439 143.322 152.228 142.478 153.353 142.478C 154.45 142.478 155.29 143.385 155.29 144.537C 155.29 144.56 155.29 144.588 155.279 144.615L 151.345 144.619z"/>
<path style="stroke:none; fill-rule:evenodd; fill:#ed89ed" d="M 160.927 145.041L 163.282 141.662L 162.025 141.662L 160.341 144.189L 158.658 141.662L 157.388 141.662L 159.728 145.096L 157.255 148.662L 158.525 148.662L 160.302 145.974L 162.056 148.662L 163.353 148.662L 160.927 145.041z"/>
<path style="stroke:none; fill-rule:evenodd; fill:#ed89ed" d="M 164.954 151.498C 166.279 149.74 167.115 147.299 167.115 145.189C 167.115 143.068 166.279 140.627 164.954 138.865L 164.228 138.865C 165.376 140.787 166.017 143.041 166.017 145.189C 166.017 147.322 165.376 149.592 164.228 151.498L 164.954 151.498z"/>
<path style="stroke:#000000; stroke-width:1.91212; fill:none" d="M 159.876 235.877C 159.876 198.689 138.693 168.545 112.56 168.545C 86.4271 168.545 65.2431 198.689 65.2431 235.877C 65.2431 273.06 86.4271 303.209 112.56 303.209C 138.693 303.209 159.876 273.064 159.876 235.877"/>
<path style="stroke:none; fill-rule:evenodd; fill:#000000" d="M 89.5171 197.459L 93.8681 197.459C 94.7791 197.459 95.4541 197.205 95.9701 196.642C 96.4431 196.135 96.7081 195.435 96.7081 194.67C 96.7081 193.49 96.1851 192.775 94.9701 192.291C 95.8451 191.877 96.3101 191.15 96.3101 190.154C 96.3101 189.443 96.0441 188.81 95.5401 188.353C 95.0361 187.885 94.3721 187.666 93.4431 187.666L 89.5131 187.666L 89.5171 197.459zM 90.7201 191.959L 90.7201 188.658L 93.1461 188.658C 93.8451 188.658 94.2361 188.756 94.5751 189.025C 94.9231 189.306 95.1151 189.736 95.1151 190.303C 95.1151 190.857 94.9271 191.295 94.5751 191.58C 94.2401 191.849 93.8491 191.947 93.1461 191.947L 90.7201 191.959zM 90.7201 196.459L 90.7201 192.959L 93.7631 192.959C 94.3651 192.959 94.7671 193.111 95.0601 193.447C 95.3531 193.763 95.5131 194.213 95.5131 194.713C 95.5131 195.197 95.3531 195.646 95.0601 195.967C 94.7671 196.299 94.3651 196.451 93.7631 196.451L 90.7201 196.459z"/>
<path style="stroke:none; fill-rule:evenodd; fill:#000000" d="M 104.478 196.803C 104.357 196.857 104.302 196.857 104.236 196.857C 103.841 196.857 103.622 196.658 103.622 196.31L 103.622 192.181C 103.622 190.935 102.716 190.263 100.993 190.263C 99.9821 190.263 99.1421 190.556 98.6731 191.072C 98.3571 191.428 98.2201 191.83 98.1971 192.521L 99.3181 192.521C 99.4081 191.654 99.9151 191.263 100.958 191.263C 101.958 191.263 102.521 191.638 102.521 192.306L 102.521 192.599C 102.521 193.068 102.243 193.267 101.368 193.373C 99.8061 193.572 99.5681 193.627 99.1421 193.799C 98.3331 194.131 97.9231 194.763 97.9231 195.674C 97.9231 196.943 98.7981 197.748 100.208 197.748C 101.083 197.748 101.79 197.443 102.575 196.728C 102.654 197.431 103.001 197.748 103.72 197.748C 103.943 197.748 104.118 197.724 104.478 197.631L 104.478 196.803zM 102.517 195.236C 102.517 195.603 102.411 195.83 102.075 196.135C 101.622 196.545 101.068 196.756 100.408 196.756C 99.5321 196.756 99.0251 196.346 99.0251 195.646C 99.0251 194.92 99.5211 194.549 100.72 194.377C 101.904 194.22 102.146 194.166 102.521 193.994L 102.517 195.236z"/>
<path style="stroke:none; fill-rule:evenodd; fill:#000000" d="M 110.681 192.4C 110.669 191.033 109.771 190.26 108.173 190.26C 106.564 190.26 105.521 191.103 105.521 192.404C 105.521 193.502 106.075 194.021 107.716 194.424L 108.747 194.678C 109.513 194.865 109.818 195.146 109.818 195.654C 109.818 196.31 109.161 196.752 108.177 196.752C 107.575 196.752 107.064 196.576 106.782 196.275C 106.611 196.072 106.529 195.869 106.462 195.365L 105.282 195.365C 105.333 196.978 106.236 197.752 108.056 197.752C 109.806 197.752 110.923 196.885 110.923 195.529C 110.923 194.486 110.341 193.912 108.966 193.576L 107.908 193.322C 107.009 193.111 106.626 192.814 106.626 192.318C 106.626 191.678 107.2 191.26 108.107 191.26C 109.001 191.26 109.482 191.65 109.509 192.4L 110.681 192.4z"/>
<path style="stroke:none; fill-rule:evenodd; fill:#000000" d="M 113.517 190.459L 112.419 190.459L 112.419 197.459L 113.517 197.459L 113.517 190.459zM 113.517 187.658L 112.419 187.658L 112.419 189.103L 113.517 189.103L 113.517 187.658z"/>
<path style="stroke:none; fill-rule:evenodd; fill:#000000" d="M 120.724 192.803C 120.673 192.107 120.525 191.658 120.255 191.26C 119.775 190.635 118.927 190.26 117.95 190.26C 116.06 190.26 114.825 191.752 114.825 194.076C 114.825 196.33 116.029 197.76 117.935 197.76C 119.611 197.76 120.669 196.76 120.802 195.053L 119.661 195.053C 119.474 196.189 118.888 196.76 117.923 196.76C 116.673 196.76 115.923 195.752 115.923 194.08C 115.923 192.314 116.658 191.263 117.896 191.263C 118.845 191.263 119.447 191.818 119.579 192.806L 120.724 192.803z"/>
<path style="stroke:none; fill-rule:evenodd; fill:#000000" d="M 89.6181 210.76L 93.3611 210.76C 95.8101 210.76 97.3141 208.908 97.3141 205.857C 97.3141 202.822 95.8221 200.963 93.3611 200.963L 89.6181 200.963L 89.6181 210.76zM 90.8181 209.76L 90.8181 201.963L 93.1421 201.963C 95.0871 201.963 96.1151 203.303 96.1151 205.869C 96.1151 208.408 95.0871 209.76 93.1421 209.76L 90.8181 209.76z"/>
<path style="stroke:none; fill-rule:evenodd; fill:#000000" d="M 99.0171 203.763L 99.0171 210.76L 100.115 210.76L 100.115 207.142C 100.115 206.146 100.372 205.494 100.919 205.107C 101.271 204.857 101.615 204.779 102.408 204.763L 102.408 203.607C 102.216 203.584 102.122 203.568 101.97 203.568C 101.232 203.568 100.669 203.994 100.013 205.037L 100.013 203.771L 99.0171 203.763z"/>
<path style="stroke:none; fill-rule:evenodd; fill:#000000" d="M 104.517 203.76L 103.419 203.76L 103.419 210.76L 104.517 210.76L 104.517 203.76zM 104.517 200.959L 103.419 200.959L 103.419 202.404L 104.517 202.404L 104.517 200.959z"/>
<path style="stroke:none; fill-rule:evenodd; fill:#000000" d="M 109.333 210.76L 112.021 203.76L 110.763 203.76L 108.782 209.431L 106.911 203.76L 105.654 203.76L 108.115 210.76L 109.333 210.76z"/>
<path style="stroke:none; fill-rule:evenodd; fill:#000000" d="M 119.118 207.658C 119.118 206.584 119.04 205.939 118.841 205.416C 118.392 204.263 117.325 203.564 116.021 203.564C 114.079 203.564 112.825 205.056 112.825 207.353C 112.825 209.646 114.029 211.06 115.974 211.06C 117.56 211.06 118.661 210.154 118.939 208.635L 117.818 208.635C 117.513 209.572 116.884 210.06 115.986 210.06C 115.279 210.06 114.677 209.744 114.302 209.154C 114.036 208.756 113.943 208.357 113.927 207.662L 119.118 207.658zM 113.947 206.717C 114.04 205.42 114.829 204.576 115.954 204.576C 117.052 204.576 117.892 205.482 117.892 206.635C 117.892 206.658 117.892 206.685 117.88 206.713L 113.947 206.717z"/>
<path style="stroke:none; fill-rule:evenodd; fill:#000000" d="M 125.482 205.701C 125.47 204.334 124.572 203.56 122.974 203.56C 121.365 203.56 120.322 204.404 120.322 205.705C 120.322 206.803 120.876 207.322 122.517 207.724L 123.548 207.978C 124.314 208.166 124.618 208.447 124.618 208.955C 124.618 209.611 123.962 210.053 122.978 210.053C 122.376 210.053 121.865 209.877 121.583 209.576C 121.411 209.373 121.329 209.17 121.263 208.666L 120.083 208.666C 120.134 210.279 121.036 211.053 122.857 211.053C 124.607 211.053 125.724 210.185 125.724 208.83C 125.724 207.787 125.142 207.213 123.767 206.877L 122.708 206.623C 121.81 206.412 121.427 206.115 121.427 205.619C 121.427 204.978 122.001 204.56 122.908 204.56C 123.802 204.56 124.282 204.951 124.31 205.701L 125.482 205.701z"/>
<path style="stroke:none; fill-rule:evenodd; fill:#ed89ed" d="M 82.9821 217.26C 81.6581 219.021 80.8181 221.463 80.8181 223.572C 80.8181 225.689 81.6541 228.135 82.9821 229.892L 83.7081 229.892C 82.5561 227.974 81.9151 225.717 81.9151 223.572C 81.9151 221.439 82.5561 219.17 83.7081 217.26L 82.9821 217.26z"/>
<path style="stroke:none; fill-rule:evenodd; fill:#ed89ed" d="M 90.5641 224.06L 91.5681 227.06L 92.9581 227.06L 89.5321 217.263L 87.9271 217.263L 84.4501 227.06L 85.7751 227.06L 86.8021 224.06L 90.5641 224.06zM 90.2121 223.06L 87.1111 223.06L 88.7161 218.642L 90.2121 223.06z"/>
<path style="stroke:none; fill-rule:evenodd; fill:#ed89ed" d="M 94.1181 220.06L 94.1181 227.056L 95.2161 227.056L 95.2161 222.681C 95.2161 221.674 95.9661 220.861 96.8921 220.861C 97.7361 220.861 98.2121 221.365 98.2121 222.256L 98.2121 227.056L 99.3101 227.056L 99.3101 222.681C 99.3101 221.674 100.06 220.861 100.986 220.861C 101.814 220.861 102.306 221.381 102.306 222.256L 102.306 227.056L 103.404 227.056L 103.404 221.81C 103.404 220.556 102.685 219.861 101.38 219.861C 100.45 219.861 99.8881 220.138 99.2361 220.916C 98.8251 220.178 98.2631 219.861 97.3571 219.861C 96.4231 219.861 95.8101 220.209 95.2121 221.049L 95.2121 220.064L 94.1181 220.06z"/>
<path style="stroke:none; fill-rule:evenodd; fill:#ed89ed" d="M 109.513 220.06L 107.575 225.506L 105.782 220.06L 104.595 220.06L 106.962 227.154L 106.536 228.271C 106.365 228.767 106.111 228.955 105.642 228.955C 105.482 228.955 105.294 228.904 105.056 228.795L 105.056 229.783C 105.282 229.9 105.509 229.951 105.806 229.951C 106.165 229.951 106.556 229.834 106.849 229.619C 107.197 229.365 107.396 229.072 107.611 228.513L 110.728 220.056L 109.513 220.06z"/>
<path style="stroke:none; fill-rule:evenodd; fill:#ed89ed" d="M 116.517 220.06L 116.517 221.064C 115.958 220.248 115.279 219.861 114.388 219.861C 112.618 219.861 111.419 221.408 111.419 223.678C 111.419 224.822 111.724 225.756 112.298 226.424C 112.818 227.01 113.564 227.357 114.298 227.357C 115.177 227.357 115.79 226.986 116.415 226.107L 116.415 226.47C 116.415 227.424 116.298 228.006 116.017 228.396C 115.724 228.814 115.15 229.053 114.47 229.053C 113.962 229.053 113.509 228.92 113.2 228.674C 112.947 228.47 112.841 228.279 112.775 227.861L 111.642 227.861C 111.759 229.174 112.782 229.955 114.415 229.955C 115.45 229.955 116.341 229.623 116.79 229.064C 117.322 228.428 117.521 227.545 117.521 225.904L 117.521 220.06L 116.517 220.06zM 114.482 220.861C 115.7 220.861 116.415 221.885 116.415 223.65C 116.415 225.334 115.685 226.357 114.493 226.357C 113.263 226.357 112.517 225.322 112.517 223.607C 112.517 221.912 113.275 220.857 114.478 220.857L 114.482 220.861z"/>
<path style="stroke:none; fill-rule:evenodd; fill:#ed89ed" d="M 125.118 217.26L 124.021 217.26L 124.021 220.928C 123.56 220.228 122.822 219.861 121.896 219.861C 120.099 219.861 118.923 221.314 118.923 223.545C 118.923 225.904 120.068 227.361 121.923 227.361C 122.868 227.361 123.525 227.006 124.118 226.138L 124.118 227.06L 125.118 227.06L 125.118 217.26zM 122.052 220.861C 123.255 220.861 124.017 221.943 124.017 223.638C 124.017 225.275 123.243 226.361 122.064 226.361C 120.833 226.361 120.017 225.267 120.017 223.611C 120.017 221.959 120.829 220.861 122.048 220.861L 122.052 220.861z"/>
<path style="stroke:none; fill-rule:evenodd; fill:#ed89ed" d="M 133.079 226.404C 132.958 226.459 132.904 226.459 132.837 226.459C 132.443 226.459 132.224 226.26 132.224 225.912L 132.224 221.783C 132.224 220.537 131.318 219.865 129.595 219.865C 128.583 219.865 127.743 220.158 127.275 220.674C 126.958 221.029 126.822 221.431 126.798 222.123L 127.919 222.123C 128.009 221.256 128.517 220.865 129.56 220.865C 130.56 220.865 131.122 221.24 131.122 221.908L 131.122 222.201C 131.122 222.67 130.845 222.869 129.97 222.974C 128.408 223.174 128.169 223.228 127.743 223.4C 126.935 223.732 126.525 224.365 126.525 225.275C 126.525 226.545 127.4 227.349 128.81 227.349C 129.685 227.349 130.392 227.045 131.177 226.33C 131.255 227.033 131.603 227.349 132.322 227.349C 132.544 227.349 132.72 227.326 133.079 227.232L 133.079 226.404zM 131.118 224.838C 131.118 225.205 131.013 225.431 130.677 225.736C 130.224 226.146 129.669 226.357 129.009 226.357C 128.134 226.357 127.626 225.947 127.626 225.248C 127.626 224.521 128.122 224.15 129.322 223.978C 130.505 223.822 130.747 223.767 131.122 223.596L 131.118 224.838z"/>
<path style="stroke:none; fill-rule:evenodd; fill:#ed89ed" d="M 134.22 227.06L 135.318 227.06L 135.318 217.263L 134.22 217.263L 134.22 227.06z"/>
<path style="stroke:none; fill-rule:evenodd; fill:#ed89ed" d="M 143.478 226.404C 143.357 226.459 143.302 226.459 143.236 226.459C 142.841 226.459 142.622 226.26 142.622 225.912L 142.622 221.783C 142.622 220.537 141.716 219.865 139.993 219.865C 138.982 219.865 138.142 220.158 137.673 220.674C 137.357 221.029 137.22 221.431 137.197 222.123L 138.318 222.123C 138.408 221.256 138.915 220.865 139.958 220.865C 140.958 220.865 141.521 221.24 141.521 221.908L 141.521 222.201C 141.521 222.67 141.243 222.869 140.368 222.974C 138.806 223.174 138.568 223.228 138.142 223.4C 137.333 223.732 136.923 224.365 136.923 225.275C 136.923 226.545 137.798 227.349 139.208 227.349C 140.083 227.349 140.79 227.045 141.575 226.33C 141.654 227.033 142.001 227.349 142.72 227.349C 142.943 227.349 143.118 227.326 143.478 227.232L 143.478 226.404zM 141.517 224.838C 141.517 225.205 141.411 225.431 141.075 225.736C 140.622 226.146 140.068 226.357 139.408 226.357C 138.532 226.357 138.025 225.947 138.025 225.248C 138.025 224.521 138.521 224.15 139.72 223.978C 140.904 223.822 141.146 223.767 141.521 223.596L 141.517 224.838z"/>
<path style="stroke:none; fill-rule:evenodd; fill:#ed89ed" d="M 145.017 225.658L 145.017 227.056L 145.814 227.056L 145.814 227.303C 145.814 228.252 145.642 228.525 145.017 228.553L 145.017 229.053C 145.947 229.053 146.415 228.447 146.415 227.279L 146.415 225.654L 145.017 225.658z"/>
<path style="stroke:none; fill-rule:evenodd; fill:#ed89ed" d="M 92.1181 230.658L 91.0211 230.658L 91.0211 238.678L 85.9621 230.658L 84.6221 230.658L 84.6221 240.455L 85.7201 240.455L 85.7201 232.545L 90.7241 240.455L 92.1151 240.455L 92.1181 230.658z"/>
<path style="stroke:none; fill-rule:evenodd; fill:#ed89ed" d="M 99.5641 237.459L 100.568 240.459L 101.958 240.459L 98.5321 230.662L 96.9271 230.662L 93.4501 240.459L 94.7751 240.459L 95.8021 237.459L 99.5641 237.459zM 99.2121 236.459L 96.1111 236.459L 97.7161 232.041L 99.2121 236.459z"/>
<path style="stroke:none; fill-rule:evenodd; fill:#ed89ed" d="M 108.423 235.803C 108.372 235.107 108.224 234.658 107.954 234.26C 107.474 233.635 106.626 233.26 105.65 233.26C 103.759 233.26 102.525 234.752 102.525 237.076C 102.525 239.33 103.728 240.76 105.634 240.76C 107.31 240.76 108.368 239.76 108.501 238.053L 107.361 238.053C 107.173 239.189 106.587 239.76 105.622 239.76C 104.372 239.76 103.622 238.752 103.622 237.08C 103.622 235.314 104.357 234.263 105.595 234.263C 106.544 234.263 107.146 234.818 107.279 235.806L 108.423 235.803z"/>
<path style="stroke:none; fill-rule:evenodd; fill:#ed89ed" d="M 110.017 239.06L 110.017 240.459L 110.814 240.459L 110.814 240.705C 110.814 241.654 110.642 241.928 110.017 241.955L 110.017 242.455C 110.947 242.455 111.415 241.849 111.415 240.681L 111.415 239.056L 110.017 239.06z"/>
<path style="stroke:none; fill-rule:evenodd; fill:#ed89ed" d="M 123.118 237.361C 123.118 236.287 123.04 235.642 122.841 235.119C 122.392 233.967 121.325 233.267 120.021 233.267C 118.079 233.267 116.825 234.76 116.825 237.056C 116.825 239.349 118.029 240.763 119.974 240.763C 121.56 240.763 122.661 239.857 122.939 238.338L 121.818 238.338C 121.513 239.275 120.884 239.763 119.986 239.763C 119.279 239.763 118.677 239.447 118.302 238.857C 118.036 238.459 117.943 238.06 117.927 237.365L 123.118 237.361zM 117.947 236.42C 118.04 235.123 118.829 234.279 119.954 234.279C 121.052 234.279 121.892 235.185 121.892 236.338C 121.892 236.361 121.892 236.388 121.88 236.416L 117.947 236.42z"/>
<path style="stroke:none; fill-rule:evenodd; fill:#ed89ed" d="M 127.118 233.459L 125.919 233.459L 125.919 231.521L 124.822 231.521L 124.822 233.459L 123.923 233.459L 123.923 234.357L 124.822 234.357L 124.822 239.646C 124.822 240.353 125.31 240.752 126.193 240.752C 126.462 240.752 126.736 240.728 127.115 240.662L 127.115 239.732C 126.962 239.748 126.782 239.752 126.56 239.752C 126.06 239.752 125.919 239.619 125.919 239.127L 125.919 234.353L 127.118 234.353L 127.118 233.459z"/>
<path style="stroke:none; fill-rule:evenodd; fill:#ed89ed" d="M 133.724 235.803C 133.673 235.107 133.525 234.658 133.255 234.26C 132.775 233.635 131.927 233.26 130.95 233.26C 129.06 233.26 127.825 234.752 127.825 237.076C 127.825 239.33 129.029 240.76 130.935 240.76C 132.611 240.76 133.669 239.76 133.802 238.053L 132.661 238.053C 132.474 239.189 131.888 239.76 130.923 239.76C 129.673 239.76 128.923 238.752 128.923 237.08C 128.923 235.314 129.658 234.263 130.896 234.263C 131.845 234.263 132.447 234.818 132.579 235.806L 133.724 235.803z"/>
<path style="stroke:none; fill-rule:evenodd; fill:#ed89ed" d="M 135.357 243.299C 136.681 241.541 137.517 239.099 137.517 236.99C 137.517 234.869 136.681 232.428 135.357 230.666L 134.63 230.666C 135.779 232.588 136.419 234.842 136.419 236.99C 136.419 239.123 135.779 241.392 134.63 243.299L 135.357 243.299z"/>
<path style="stroke:none; fill-rule:evenodd; fill:#ff0000" d="M 102.419 254.361L 102.419 255.627L 102.736 257.158L 103.197 257.158L 103.513 255.627L 103.513 254.361L 102.419 254.361zM 104.22 254.361L 104.22 255.627L 104.536 257.158L 104.997 257.158L 105.314 255.627L 105.314 254.361L 104.22 254.361z"/>
<path style="stroke:none; fill-rule:evenodd; fill:#ff0000" d="M 107.618 256.459L 106.618 256.459L 106.618 262.459L 107.618 262.459L 107.618 256.459zM 107.618 254.06L 106.618 254.06L 106.618 255.299L 107.618 255.299L 107.618 254.06z"/>
<path style="stroke:none; fill-rule:evenodd; fill:#ff0000" d="M 114.118 254.06L 113.118 254.06L 113.118 257.205C 112.72 256.588 112.083 256.26 111.282 256.26C 109.736 256.26 108.72 257.517 108.72 259.451C 108.72 261.498 109.732 262.756 111.372 262.756C 112.208 262.756 112.79 262.439 113.314 261.666L 113.314 262.455L 114.111 262.455L 114.118 254.06zM 111.447 257.158C 112.466 257.158 113.118 258.084 113.118 259.529C 113.118 260.928 112.462 261.853 111.458 261.853C 110.415 261.853 109.72 260.916 109.72 259.506C 109.72 258.096 110.411 257.158 111.447 257.158z"/>
<path style="stroke:none; fill-rule:evenodd; fill:#ff0000" d="M 115.419 254.361L 115.419 255.627L 115.736 257.158L 116.197 257.158L 116.513 255.627L 116.513 254.361L 115.419 254.361zM 117.22 254.361L 117.22 255.627L 117.536 257.158L 117.997 257.158L 118.314 255.627L 118.314 254.361L 117.22 254.361z"/>
<path style="stroke:#000000; stroke-width:1.91212; fill:none" d="M 197.404 106.58C 197.404 88.8922 186.704 74.5532 173.505 74.5532C 160.306 74.5532 149.607 88.8881 149.607 106.58C 149.607 124.267 160.306 138.607 173.505 138.607C 186.704 138.607 197.404 124.271 197.404 106.58"/>
<path style="stroke:none; fill-rule:evenodd; fill:#ed89ed" d="M 161.118 97.5601L 161.118 101.357L 162.216 101.357L 162.216 92.9592L 161.118 92.9592L 161.118 96.6581L 156.822 96.6581L 156.822 92.9592L 155.724 92.9592L 155.724 101.357L 156.822 101.357L 156.822 97.5601L 161.118 97.5601z"/>
<path style="stroke:none; fill-rule:evenodd; fill:#ed89ed" d="M 164.818 95.3611L 163.818 95.3611L 163.818 101.361L 164.818 101.361L 164.818 95.3611zM 164.818 92.9592L 163.818 92.9592L 163.818 94.1971L 164.818 94.1971L 164.818 92.9592z"/>
<path style="stroke:none; fill-rule:evenodd; fill:#ed89ed" d="M 166.318 103.861L 167.318 103.861L 167.318 100.76C 167.818 101.381 168.38 101.658 169.158 101.658C 170.7 101.658 171.716 100.4 171.716 98.4672C 171.716 96.4312 170.732 95.1622 169.134 95.1622C 168.322 95.1622 167.665 95.5291 167.22 96.2401L 167.22 95.3342L 166.322 95.3342L 166.318 103.861zM 168.982 96.0601C 170.029 96.0601 170.716 96.9982 170.716 98.4431C 170.716 99.8181 170.021 100.756 168.982 100.756C 167.978 100.756 167.318 99.8301 167.318 98.4081C 167.318 96.9861 167.978 96.0601 168.982 96.0601z"/>
<path style="stroke:none; fill-rule:evenodd; fill:#ed89ed" d="M 172.72 103.861L 173.72 103.861L 173.72 100.76C 174.22 101.381 174.782 101.658 175.56 101.658C 177.103 101.658 178.118 100.4 178.118 98.4672C 178.118 96.4312 177.134 95.1622 175.536 95.1622C 174.724 95.1622 174.068 95.5291 173.622 96.2401L 173.622 95.3342L 172.724 95.3342L 172.72 103.861zM 175.384 96.0601C 176.431 96.0601 177.118 96.9982 177.118 98.4431C 177.118 99.8181 176.423 100.756 175.384 100.756C 174.38 100.756 173.72 99.8301 173.72 98.4081C 173.72 96.9861 174.38 96.0601 175.384 96.0601z"/>
<path style="stroke:none; fill-rule:evenodd; fill:#ed89ed" d="M 181.556 95.1581C 179.853 95.1581 178.818 96.3732 178.818 98.4081C 178.818 100.443 179.837 101.658 181.568 101.658C 183.271 101.658 184.318 100.447 184.318 98.4551C 184.318 96.3651 183.31 95.1622 181.556 95.1622L 181.556 95.1581zM 181.568 96.0601C 182.661 96.0601 183.318 96.9471 183.318 98.4431C 183.318 99.8571 182.642 100.756 181.568 100.756C 180.486 100.756 179.818 99.8691 179.818 98.4081C 179.818 96.9592 180.482 96.0601 181.568 96.0601z"/>
<path style="stroke:none; fill-rule:evenodd; fill:#ed89ed" d="M 185.22 99.0601L 191.017 99.0601L 191.017 98.2631L 185.22 98.2631L 185.22 99.0601z"/>
<path style="stroke:none; fill-rule:evenodd; fill:#ed89ed" d="M 160.224 108.865C 160.181 108.275 160.056 107.896 159.825 107.56C 159.419 106.998 158.7 106.662 157.872 106.662C 156.271 106.662 155.224 107.955 155.224 109.967C 155.224 111.92 156.243 113.158 157.861 113.158C 159.279 113.158 160.177 112.287 160.294 110.795L 159.341 110.795C 159.185 111.771 158.697 112.26 157.892 112.26C 156.849 112.26 156.228 111.396 156.228 109.97C 156.228 108.463 156.837 107.564 157.872 107.564C 158.665 107.564 159.165 108.033 159.275 108.869L 160.224 108.865z"/>
<path style="stroke:none; fill-rule:evenodd; fill:#ed89ed" d="M 166.755 112.299C 166.654 112.357 166.607 112.357 166.544 112.357C 166.208 112.357 166.021 112.185 166.021 111.885L 166.021 108.318C 166.021 107.244 165.243 106.662 163.771 106.662C 162.904 106.662 162.185 106.916 161.782 107.365C 161.509 107.674 161.396 108.021 161.372 108.623L 162.318 108.623C 162.396 107.892 162.822 107.556 163.704 107.556C 164.548 107.556 165.021 107.877 165.021 108.455L 165.021 108.709C 165.021 109.111 164.786 109.283 164.044 109.377C 162.72 109.549 162.517 109.596 162.158 109.744C 161.474 110.029 161.126 110.572 161.126 111.357C 161.126 112.451 161.88 113.142 163.091 113.142C 163.845 113.142 164.45 112.869 165.126 112.224C 165.193 112.857 165.49 113.142 166.107 113.142C 166.298 113.142 166.447 113.119 166.755 113.037L 166.755 112.299zM 165.017 111.002C 165.017 111.33 164.931 111.533 164.65 111.803C 164.271 112.166 163.814 112.357 163.267 112.357C 162.544 112.357 162.118 111.994 162.118 111.365C 162.118 110.717 162.529 110.385 163.521 110.232C 164.501 110.092 164.7 110.045 165.013 109.892L 165.017 111.002z"/>
<path style="stroke:none; fill-rule:evenodd; fill:#ed89ed" d="M 167.818 106.834L 167.818 112.857L 168.818 112.857L 168.818 109.045C 168.818 108.166 169.443 107.459 170.212 107.459C 170.915 107.459 171.314 107.896 171.314 108.674L 171.314 112.853L 172.314 112.853L 172.314 109.041C 172.314 108.162 172.939 107.455 173.708 107.455C 174.4 107.455 174.81 107.904 174.81 108.67L 174.81 112.849L 175.81 112.849L 175.81 108.33C 175.81 107.252 175.189 106.65 174.056 106.65C 173.251 106.65 172.763 106.892 172.2 107.584C 171.845 106.931 171.361 106.65 170.575 106.65C 169.771 106.65 169.24 106.947 168.72 107.674L 168.72 106.826L 167.818 106.834z"/>
<path style="stroke:none; fill-rule:evenodd; fill:#ed89ed" d="M 177.118 115.361L 178.118 115.361L 178.118 112.26C 178.618 112.881 179.181 113.158 179.958 113.158C 181.501 113.158 182.517 111.9 182.517 109.967C 182.517 107.931 181.532 106.662 179.935 106.662C 179.122 106.662 178.466 107.029 178.021 107.74L 178.021 106.834L 177.122 106.834L 177.118 115.361zM 179.782 107.56C 180.829 107.56 181.517 108.498 181.517 109.943C 181.517 111.318 180.822 112.256 179.782 112.256C 178.779 112.256 178.118 111.33 178.118 109.908C 178.118 108.486 178.779 107.56 179.782 107.56z"/>
<path style="stroke:none; fill-rule:evenodd; fill:#ed89ed" d="M 188.517 112.896L 188.517 106.865L 187.517 106.865L 187.517 110.31C 187.517 111.549 186.872 112.361 185.868 112.361C 185.107 112.361 184.622 111.9 184.622 111.17L 184.622 106.865L 183.622 106.865L 183.622 111.517C 183.622 112.517 184.361 113.162 185.525 113.162C 186.4 113.162 186.958 112.853 187.517 112.06L 187.517 112.9L 188.517 112.896z"/>
<path style="stroke:none; fill-rule:evenodd; fill:#ed89ed" d="M 194.345 108.521C 194.333 107.33 193.548 106.658 192.15 106.658C 190.74 106.658 189.825 107.385 189.825 108.506C 189.825 109.451 190.314 109.9 191.763 110.248L 192.673 110.467C 193.349 110.627 193.618 110.869 193.618 111.306C 193.618 111.869 193.052 112.252 192.208 112.252C 191.689 112.252 191.251 112.103 191.009 111.846C 190.861 111.674 190.79 111.498 190.736 111.064L 189.72 111.064C 189.763 112.474 190.548 113.15 192.13 113.15C 193.654 113.15 194.622 112.4 194.622 111.236C 194.622 110.338 194.111 109.842 192.896 109.553L 191.962 109.334C 191.169 109.15 190.829 108.896 190.829 108.47C 190.829 107.92 191.325 107.56 192.115 107.56C 192.888 107.56 193.306 107.892 193.329 108.521L 194.345 108.521z"/>
<path style="stroke:none; fill-rule:evenodd; fill:#ed89ed" d="M 49.4821 52.3611C 48.1581 54.1232 47.3181 56.5641 47.3181 58.6741C 47.3181 60.7911 48.1541 63.2361 49.4821 64.9941L 50.2081 64.9941C 49.0561 63.0762 48.4151 60.8181 48.4151 58.6741C 48.4151 56.5411 49.0561 54.2711 50.2081 52.3611L 49.4821 52.3611z"/>
<path style="stroke:none; fill-rule:evenodd; fill:#ed89ed" d="M 53.2201 57.9592L 56.3371 57.9592C 57.1111 57.9592 57.7241 57.7321 58.2551 57.2672C 58.8531 56.7361 59.1111 56.1111 59.1111 55.2172C 59.1111 53.3922 58.0171 52.3651 56.0751 52.3651L 52.0131 52.3651L 52.0131 62.1622L 53.2121 62.1622L 53.2201 57.9592zM 53.2201 56.9592L 53.2201 53.3611L 55.8721 53.3611C 57.0871 53.3611 57.8141 54.0372 57.8141 55.1581C 57.8141 56.2831 57.0911 56.9551 55.8721 56.9551L 53.2201 56.9592z"/>
<path style="stroke:none; fill-rule:evenodd; fill:#ed89ed" d="M 60.6181 55.1622L 60.6181 62.1581L 61.7161 62.1581L 61.7161 58.5411C 61.7161 57.5452 61.9741 56.8922 62.5211 56.5062C 62.8721 56.2562 63.2161 56.1782 64.0091 56.1622L 64.0091 55.0062C 63.8181 54.9821 63.7241 54.9672 63.5721 54.9672C 62.8331 54.9672 62.2711 55.3922 61.6151 56.4351L 61.6151 55.1702L 60.6181 55.1622z"/>
<path style="stroke:none; fill-rule:evenodd; fill:#ed89ed" d="M 71.1181 59.0601C 71.1181 57.9861 71.0401 57.3422 70.8411 56.8181C 70.3921 55.6661 69.3251 54.9672 68.0211 54.9672C 66.0791 54.9672 64.8251 56.4592 64.8251 58.7562C 64.8251 61.0491 66.0291 62.4631 67.9741 62.4631C 69.5601 62.4631 70.6611 61.5562 70.9391 60.0372L 69.8181 60.0372C 69.5131 60.9741 68.8841 61.4631 67.9861 61.4631C 67.2791 61.4631 66.6771 61.1461 66.3021 60.5562C 66.0361 60.1581 65.9431 59.7601 65.9271 59.0641L 71.1181 59.0601zM 65.9471 58.1191C 66.0401 56.8221 66.8291 55.9781 67.9541 55.9781C 69.0521 55.9781 69.8921 56.8851 69.8921 58.0372C 69.8921 58.0601 69.8921 58.0881 69.8801 58.1151L 65.9471 58.1191z"/>
<path style="stroke:none; fill-rule:evenodd; fill:#ed89ed" d="M 75.0171 55.1581L 73.9191 55.1581L 73.9191 54.0681C 73.9191 53.6031 74.1691 53.3651 74.6501 53.3651C 74.7361 53.3651 74.7751 53.3651 75.0131 53.3651L 75.0131 52.4351C 74.7711 52.3851 74.6261 52.3691 74.4081 52.3691C 73.4151 52.3691 72.8181 52.9592 72.8181 53.9702L 72.8181 55.1661L 71.8181 55.1661L 71.8181 56.0641L 72.8181 56.0641L 72.8181 62.1622L 73.9151 62.1622L 73.9151 56.0641L 75.0131 56.0641L 75.0171 55.1581z"/>
<path style="stroke:none; fill-rule:evenodd; fill:#ed89ed" d="M 76.2201 55.1622L 76.2201 62.1581L 77.3181 62.1581L 77.3181 58.5411C 77.3181 57.5452 77.5751 56.8922 78.1221 56.5062C 78.4741 56.2562 78.8181 56.1782 79.6111 56.1622L 79.6111 55.0062C 79.4191 54.9821 79.3251 54.9672 79.1731 54.9672C 78.4351 54.9672 77.8721 55.3922 77.2161 56.4351L 77.2161 55.1702L 76.2201 55.1622z"/>
<path style="stroke:none; fill-rule:evenodd; fill:#ed89ed" d="M 83.4541 54.9592C 81.5011 54.9592 80.3221 56.3571 80.3221 58.7092C 80.3221 61.0562 81.4901 62.4592 83.4701 62.4592C 85.4231 62.4592 86.6181 61.0601 86.6181 58.7631C 86.6181 56.3491 85.4621 54.9631 83.4581 54.9631L 83.4541 54.9592zM 83.4701 55.9592C 84.7511 55.9592 85.5171 56.9941 85.5171 58.7482C 85.5171 60.4041 84.7241 61.4551 83.4701 61.4551C 82.2001 61.4551 81.4231 60.4202 81.4231 58.7051C 81.4231 57.0101 82.2001 55.9551 83.4701 55.9551L 83.4701 55.9592z"/>
<path style="stroke:none; fill-rule:evenodd; fill:#ed89ed" d="M 88.1181 55.1622L 88.1181 62.1581L 89.2161 62.1581L 89.2161 58.3141C 89.2161 56.8922 89.9781 55.9592 91.1461 55.9592C 92.0401 55.9592 92.6151 56.4901 92.6151 57.3262L 92.6151 62.1541L 93.7121 62.1541L 93.7121 56.8691C 93.7121 55.7092 92.8531 54.9592 91.5171 54.9592C 90.4861 54.9592 89.8251 55.3571 89.2161 56.3342L 89.2161 55.1622L 88.1181 55.1622z"/>
<path style="stroke:none; fill-rule:evenodd; fill:#ed89ed" d="M 98.1181 55.1581L 96.9191 55.1581L 96.9191 53.2202L 95.8221 53.2202L 95.8221 55.1581L 94.9231 55.1581L 94.9231 56.0562L 95.8221 56.0562L 95.8221 61.3461C 95.8221 62.0532 96.3101 62.4512 97.1931 62.4512C 97.4621 62.4512 97.7361 62.4282 98.1151 62.3611L 98.1151 61.4312C 97.9621 61.4471 97.7821 61.4512 97.5601 61.4512C 97.0601 61.4512 96.9191 61.3181 96.9191 60.8262L 96.9191 56.0532L 98.1181 56.0532L 98.1181 55.1581z"/>
<path style="stroke:none; fill-rule:evenodd; fill:#ed89ed" d="M 105.579 61.5062C 105.458 61.5601 105.404 61.5601 105.337 61.5601C 104.943 61.5601 104.724 61.3611 104.724 61.0131L 104.724 56.8851C 104.724 55.6381 103.818 54.9672 102.095 54.9672C 101.083 54.9672 100.243 55.2601 99.7751 55.7751C 99.4581 56.1312 99.3221 56.5331 99.2981 57.2241L 100.419 57.2241C 100.509 56.3571 101.017 55.9672 102.06 55.9672C 103.06 55.9672 103.622 56.3422 103.622 57.0101L 103.622 57.3032C 103.622 57.7711 103.345 57.9702 102.47 58.0762C 100.908 58.2751 100.669 58.3301 100.243 58.5021C 99.4351 58.8342 99.0251 59.4672 99.0251 60.3771C 99.0251 61.6461 99.9001 62.4512 101.31 62.4512C 102.185 62.4512 102.892 62.1461 103.677 61.4312C 103.755 62.1351 104.103 62.4512 104.822 62.4512C 105.044 62.4512 105.22 62.4282 105.579 62.3342L 105.579 61.5062zM 103.618 59.9391C 103.618 60.3062 103.513 60.5331 103.177 60.8381C 102.724 61.2482 102.169 61.4592 101.509 61.4592C 100.634 61.4592 100.126 61.0491 100.126 60.3491C 100.126 59.6232 100.622 59.2521 101.822 59.0801C 103.005 58.9241 103.247 58.8691 103.622 58.6971L 103.618 59.9391z"/>
<path style="stroke:none; fill-rule:evenodd; fill:#ed89ed" d="M 106.72 62.1581L 107.818 62.1581L 107.818 52.3611L 106.72 52.3611L 106.72 62.1581z"/>
<path style="stroke:none; fill-rule:evenodd; fill:#ed89ed" d="M 121.38 55.4282C 120.997 53.2991 119.775 52.2631 117.646 52.2631C 116.345 52.2631 115.294 52.6782 114.579 53.4781C 113.704 54.4391 113.228 55.8262 113.228 57.4001C 113.228 59.0021 113.716 60.3771 114.634 61.3221C 115.376 62.0961 116.333 62.4551 117.595 62.4551C 119.958 62.4551 121.286 61.1741 121.579 58.5961L 120.298 58.5961C 120.193 59.2831 120.06 59.7562 119.861 60.1541C 119.462 60.9821 118.634 61.4512 117.591 61.4512C 115.658 61.4512 114.427 59.8691 114.427 57.3812C 114.427 54.8262 115.599 53.2562 117.486 53.2562C 118.271 53.2562 119.005 53.5062 119.408 53.8922C 119.767 54.2361 119.966 54.6702 120.115 55.4202L 121.38 55.4282z"/>
<path style="stroke:none; fill-rule:evenodd; fill:#ed89ed" d="M 125.857 54.9592C 123.904 54.9592 122.724 56.3571 122.724 58.7092C 122.724 61.0562 123.892 62.4592 125.872 62.4592C 127.825 62.4592 129.021 61.0601 129.021 58.7631C 129.021 56.3491 127.865 54.9631 125.861 54.9631L 125.857 54.9592zM 125.868 55.9592C 127.15 55.9592 127.915 56.9941 127.915 58.7482C 127.915 60.4041 127.122 61.4551 125.868 61.4551C 124.599 61.4551 123.822 60.4202 123.822 58.7051C 123.822 57.0101 124.599 55.9551 125.868 55.9551L 125.868 55.9592z"/>
<path style="stroke:none; fill-rule:evenodd; fill:#ed89ed" d="M 130.517 55.1622L 130.517 62.1581L 131.615 62.1581L 131.615 58.5411C 131.615 57.5452 131.872 56.8922 132.419 56.5062C 132.771 56.2562 133.115 56.1782 133.908 56.1622L 133.908 55.0062C 133.716 54.9821 133.622 54.9672 133.47 54.9672C 132.732 54.9672 132.169 55.3922 131.513 56.4351L 131.513 55.1702L 130.517 55.1622z"/>
<path style="stroke:none; fill-rule:evenodd; fill:#ed89ed" d="M 137.517 55.1581L 136.318 55.1581L 136.318 53.2202L 135.22 53.2202L 135.22 55.1581L 134.322 55.1581L 134.322 56.0562L 135.22 56.0562L 135.22 61.3461C 135.22 62.0532 135.708 62.4512 136.591 62.4512C 136.861 62.4512 137.134 62.4282 137.513 62.3611L 137.513 61.4312C 137.361 61.4471 137.181 61.4512 136.958 61.4512C 136.458 61.4512 136.318 61.3181 136.318 60.8262L 136.318 56.0532L 137.517 56.0532L 137.517 55.1581z"/>
<path style="stroke:none; fill-rule:evenodd; fill:#ed89ed" d="M 144.72 59.0601C 144.72 57.9861 144.642 57.3422 144.443 56.8181C 143.993 55.6661 142.927 54.9672 141.622 54.9672C 139.681 54.9672 138.427 56.4592 138.427 58.7562C 138.427 61.0491 139.63 62.4631 141.575 62.4631C 143.161 62.4631 144.263 61.5562 144.54 60.0372L 143.419 60.0372C 143.115 60.9741 142.486 61.4631 141.587 61.4631C 140.88 61.4631 140.279 61.1461 139.904 60.5562C 139.638 60.1581 139.544 59.7601 139.529 59.0641L 144.72 59.0601zM 139.544 58.1191C 139.638 56.8221 140.427 55.9781 141.552 55.9781C 142.65 55.9781 143.49 56.8851 143.49 58.0372C 143.49 58.0601 143.49 58.0881 143.478 58.1151L 139.544 58.1191z"/>
<path style="stroke:none; fill-rule:evenodd; fill:#ed89ed" d="M 149.228 58.5411L 151.583 55.1622L 150.325 55.1622L 148.642 57.6891L 146.958 55.1622L 145.689 55.1622L 148.029 58.5961L 145.556 62.1622L 146.825 62.1622L 148.603 59.4741L 150.357 62.1622L 151.654 62.1622L 149.228 58.5411z"/>
<path style="stroke:none; fill-rule:evenodd; fill:#ed89ed" d="M 154.982 52.3611L 151.81 62.4282L 152.544 62.4282L 155.716 52.3611L 154.982 52.3611z"/>
<path style="stroke:none; fill-rule:evenodd; fill:#ed89ed" d="M 156.818 62.1581L 161.169 62.1581C 162.079 62.1581 162.755 61.9041 163.271 61.3422C 163.743 60.8342 164.009 60.1351 164.009 59.3691C 164.009 58.1891 163.486 57.4741 162.271 56.9901C 163.146 56.5762 163.611 55.8491 163.611 54.8531C 163.611 54.1422 163.345 53.5101 162.841 53.0532C 162.337 52.5842 161.673 52.3651 160.743 52.3651L 156.814 52.3651L 156.818 62.1581zM 158.017 56.6581L 158.017 53.3571L 160.443 53.3571C 161.142 53.3571 161.532 53.4551 161.872 53.7241C 162.22 54.0062 162.411 54.4351 162.411 55.0021C 162.411 55.5562 162.224 55.9941 161.872 56.2791C 161.536 56.5491 161.146 56.6461 160.443 56.6461L 158.017 56.6581zM 158.017 61.1581L 158.017 57.6581L 161.06 57.6581C 161.661 57.6581 162.064 57.8101 162.357 58.1461C 162.65 58.4631 162.81 58.9122 162.81 59.4122C 162.81 59.8961 162.65 60.3461 162.357 60.6661C 162.064 60.9982 161.661 61.1501 161.06 61.1501L 158.017 61.1581z"/>
<path style="stroke:none; fill-rule:evenodd; fill:#ed89ed" d="M 174.118 57.0601L 170.021 57.0601L 170.021 58.0601L 173.021 58.0601L 173.021 58.3381C 173.021 60.1461 171.728 61.4551 169.935 61.4551C 168.943 61.4551 168.036 61.0881 167.458 60.4471C 166.814 59.7361 166.423 58.5491 166.423 57.3181C 166.423 54.8732 167.79 53.2601 169.865 53.2601C 171.353 53.2601 172.431 54.0532 172.7 55.3571L 173.978 55.3571C 173.63 53.3881 172.134 52.2601 169.904 52.2601C 168.716 52.2601 167.755 52.5681 166.993 53.1931C 165.872 54.1271 165.232 55.6351 165.232 57.3812C 165.232 60.3691 167.06 62.4512 169.697 62.4512C 171.021 62.4512 172.075 61.9631 173.025 60.9202L 173.329 62.2012L 174.118 62.2012L 174.118 57.0601z"/>
<path style="stroke:none; fill-rule:evenodd; fill:#ed89ed" d="M 176.255 64.9982C 177.579 63.2401 178.415 60.7991 178.415 58.6891C 178.415 56.5681 177.579 54.1271 176.255 52.3651L 175.529 52.3651C 176.677 54.2872 177.318 56.5411 177.318 58.6891C 177.318 60.8221 176.677 63.0922 175.529 64.9982L 176.255 64.9982z"/>
</g>
</svg>