<?xml version="1.0" encoding="ISO-8859-1" standalone="yes"?>
<svg width="271.089" height="103.234">
  <defs> 
    <marker id="ArrowEnd" viewBox="0 0 10 10" refX="0" refY="5" 
     markerUnits="strokeWidth" 
     markerWidth="4" 
     markerHeight="3" 
     orient="auto"> 
        <path d="M 0 0 L 10 5 L 0 10 z" /> 
    </marker>
    <marker id="ArrowStart" viewBox="0 0 10 10" refX="10" refY="5" 
     markerUnits="strokeWidth" 
     markerWidth="4" 
     markerHeight="3" 
     orient="auto"> 
        <path d="M 10 0 L 0 5 L 10 10 z" /> 
    </marker> </defs>
<g>
<path style="stroke:#0000ff; stroke-width:0.95664899999999997; fill:none" d="M 80.8203 17.6793L 117.171 17.6793"/>
<path style="stroke:#0000ff; stroke-width:0.95664899999999997; fill:none" d="M 109.519 15.7653L 117.171 17.6753L 109.519 19.5853"/>
<path style="stroke:#ff0000; stroke-width:0.95664899999999997; fill:none" d="M 117.171 75.0783L 139.171 60.7303"/>
<path style="stroke:#ff0000; stroke-width:0.95664899999999997; fill:none" d="M 131.718 63.3083L 139.171 60.7343L 133.808 66.5153"/>
<path style="stroke:#ff0000; stroke-width:0.95664899999999997; fill:none" d="M 142.043 56.6633L 142.043 44.4683"/>
<path style="stroke:#ff0000; stroke-width:0.95664899999999997; fill:none" d="M 140.128 52.1203L 142.039 44.4683L 143.949 52.1203"/>
<path style="stroke:#0000ff; stroke-width:0.95664899999999997; fill:none" d="M 142.523 41.3553L 138.218 27.2453"/>
<path style="stroke:#0000ff; stroke-width:0.95664899999999997; fill:none" d="M 142.121 33.4803L 142.523 41.3553L 138.46 34.5933"/>
<path style="stroke:#0000ff; stroke-width:0.95664899999999997; fill:none" d="M 138.621 35.1243L 138.218 27.2493L 142.281 34.0113"/>
<path style="stroke:none; fill-rule:evenodd; fill:#ffffff" d="M 119.093 28.1563L 158.277 28.1563L 158.277 10.0783L 119.093 10.0783L 119.093 28.1563z"/>
<path style="stroke:#000000; stroke-width:1.9133; fill:none" d="M 119.093 28.1563L 158.277 28.1563L 158.277 10.0783L 119.093 10.0783L 119.093 28.1563z"/>
<path style="stroke:none; fill-rule:evenodd; fill:#000000" d="M 167.097 18.4413L 169.738 18.4413C 170.394 18.4413 170.914 18.2493 171.367 17.8473C 171.875 17.3943 172.093 16.8553 172.093 16.0893C 172.093 14.5273 171.156 13.6443 169.484 13.6443L 165.996 13.6443L 165.996 22.0423L 167.093 22.0423L 167.097 18.4413zM 167.097 17.5423L 167.097 14.5423L 169.347 14.5423C 170.378 14.5423 170.996 15.1053 170.996 16.0423C 170.996 16.9763 170.382 17.5423 169.347 17.5423L 167.097 17.5423z"/>
<path style="stroke:none; fill-rule:evenodd; fill:#000000" d="M 174.796 18.2423L 178.789 18.2423L 178.789 17.3433L 174.796 17.3433L 174.796 14.5463L 179.296 14.5463L 179.296 13.6483L 173.699 13.6483L 173.699 22.0463L 174.796 22.0463L 174.796 18.2423z"/>
<path style="stroke:none; fill-rule:evenodd; fill:#000000" d="M 187.296 16.2693C 186.96 14.4413 185.898 13.5463 184.046 13.5463C 182.914 13.5463 182.003 13.9023 181.378 14.5933C 180.617 15.4213 180.203 16.6173 180.203 17.9763C 180.203 19.3553 180.628 20.5423 181.425 21.3593C 182.07 22.0273 182.902 22.3353 184 22.3353C 186.054 22.3353 187.21 21.2223 187.468 18.9843L 186.363 18.9843C 186.273 19.5743 186.16 19.9763 185.984 20.3203C 185.64 21.0313 184.925 21.4333 184.031 21.4333C 182.363 21.4333 181.304 20.0813 181.304 17.9603C 181.304 15.7813 182.316 14.4373 183.941 14.4373C 184.617 14.4373 185.253 14.6483 185.597 14.9723C 185.906 15.2653 186.078 15.6243 186.207 16.2573L 187.296 16.2693z"/>
<path style="stroke:none; fill-rule:evenodd; fill:#ffffff" d="M 59.7733 27.2453L 80.8163 27.2453L 80.8163 10.0273L 59.7733 10.0273L 59.7733 27.2453z"/>
<path style="stroke:#000000; stroke-width:1.9133; fill:none" d="M 59.7733 27.2453L 80.8163 27.2453L 80.8163 10.0273L 59.7733 10.0273L 59.7733 27.2453z"/>
<path style="stroke:none; fill-rule:evenodd; fill:#000000" d="M 10.1953 10.8433L 12.8363 10.8433C 13.4923 10.8433 14.0113 10.6523 14.4643 10.2493C 14.9723 9.79631 15.1913 9.25731 15.1913 8.49231C 15.1913 6.92931 14.2533 6.04631 12.5823 6.04631L 9.09331 6.04631L 9.09331 14.4453L 10.1913 14.4453L 10.1953 10.8433zM 10.1953 9.9413L 10.1953 6.9413L 12.4453 6.9413C 13.4763 6.9413 14.0933 7.50331 14.0933 8.4413C 14.0933 9.3743 13.4803 9.9413 12.4453 9.9413L 10.1953 9.9413z"/>
<path style="stroke:none; fill-rule:evenodd; fill:#000000" d="M 18.9333 8.24231C 17.2303 8.24231 16.1993 9.4563 16.1993 11.4923C 16.1993 13.5273 17.2183 14.7423 18.9493 14.7423C 20.6523 14.7423 21.6993 13.5313 21.6993 11.5423C 21.6993 9.4523 20.6913 8.2493 18.9413 8.2493L 18.9333 8.24231zM 18.9453 9.1403C 20.0393 9.1403 20.6953 10.0273 20.6953 11.5233C 20.6953 12.9373 20.0193 13.8353 18.9453 13.8353C 17.8633 13.8353 17.1953 12.9493 17.1953 11.4883C 17.1953 10.0383 17.8593 9.1403 18.9453 9.1403z"/>
<path style="stroke:none; fill-rule:evenodd; fill:#000000" d="M 27.2223 10.1053C 27.2103 8.9173 26.4253 8.2453 25.0233 8.2453C 23.6133 8.2453 22.6993 8.97231 22.6993 10.0933C 22.6993 11.0383 23.1873 11.4883 24.6363 11.8353L 25.5463 12.0543C 26.2223 12.2143 26.4923 12.4563 26.4923 12.8943C 26.4923 13.4563 25.9253 13.8393 25.0823 13.8393C 24.5623 13.8393 24.1253 13.6913 23.8823 13.4333C 23.7343 13.2613 23.6643 13.0853 23.6053 12.6523L 22.5893 12.6523C 22.6323 14.0623 23.4183 14.7423 25.0003 14.7423C 26.5233 14.7423 27.4923 13.9923 27.4923 12.8283C 27.4923 11.9293 26.9803 11.4333 25.7653 11.1443L 24.8323 10.9253C 24.0393 10.7423 23.6993 10.4883 23.6993 10.0623C 23.6993 9.51131 24.1953 9.1523 24.9843 9.1523C 25.7573 9.1523 26.1753 9.4803 26.1993 10.1093L 27.2223 10.1053z"/>
<path style="stroke:none; fill-rule:evenodd; fill:#000000" d="M 30.7963 8.4413L 29.8983 8.4413L 29.8983 6.7733L 28.8983 6.7733L 28.8983 8.4413L 28.0003 8.4413L 28.0003 9.23831L 28.8983 9.23831L 28.8983 13.7853C 28.8983 14.3903 29.3003 14.7343 30.0313 14.7343C 30.2533 14.7343 30.4803 14.7103 30.7933 14.6523L 30.7933 13.8163C 30.6793 13.9063 30.5433 13.9333 30.3753 13.9333C 30.0003 13.9333 29.8943 13.8203 29.8943 13.3903L 29.8943 9.23831L 30.7933 9.23831L 30.7963 8.4413z"/>
<path style="stroke:none; fill-rule:evenodd; fill:#000000" d="M 36.9963 11.7423C 36.9963 10.8243 36.9293 10.2733 36.7573 9.82831C 36.3713 8.84331 35.4573 8.2453 34.3393 8.2453C 32.6753 8.2453 31.6013 9.5383 31.6013 11.5273C 31.6013 13.5153 32.6363 14.7423 34.3123 14.7423C 35.6753 14.7423 36.6213 13.9493 36.8633 12.6173L 35.9103 12.6173C 35.6483 13.4213 35.1173 13.8393 34.3553 13.8393C 33.7533 13.8393 33.2423 13.5623 32.9253 13.0463C 32.6993 12.6993 32.6213 12.3473 32.6093 11.7423L 36.9963 11.7423zM 32.5783 10.9763C 32.6563 9.86331 33.3363 9.1403 34.2963 9.1403C 35.2343 9.1403 35.9603 9.9173 35.9603 10.9063C 35.9603 10.9253 35.9603 10.9493 35.9493 10.9723L 32.5783 10.9763z"/>
<path style="stroke:none; fill-rule:evenodd; fill:#000000" d="M 38.2963 8.4133L 38.2963 14.4373L 39.2963 14.4373L 39.2963 11.3043C 39.2963 10.4413 39.5073 9.87831 39.9573 9.5423C 40.2463 9.32431 40.5273 9.25731 41.1793 9.2453L 41.1793 8.28131C 41.0233 8.26131 40.9453 8.2493 40.8203 8.2493C 40.2103 8.2493 39.7463 8.61731 39.1993 9.51131L 39.1993 8.42131L 38.2963 8.4133z"/>
<path style="stroke:none; fill-rule:evenodd; fill:#000000" d="M 42.9963 8.4413L 41.9963 8.4413L 41.9963 14.4413L 42.9963 14.4413L 42.9963 8.4413zM 42.9963 6.0423L 41.9963 6.0423L 41.9963 7.2773L 42.9963 7.2773L 42.9963 6.0423z"/>
<path style="stroke:none; fill-rule:evenodd; fill:#000000" d="M 46.9333 8.24231C 45.2303 8.24231 44.1993 9.4563 44.1993 11.4923C 44.1993 13.5273 45.2183 14.7423 46.9493 14.7423C 48.6523 14.7423 49.6993 13.5313 49.6993 11.5423C 49.6993 9.4523 48.6913 8.2493 46.9413 8.2493L 46.9333 8.24231zM 46.9453 9.1403C 48.0393 9.1403 48.6953 10.0273 48.6953 11.5233C 48.6953 12.9373 48.0193 13.8353 46.9453 13.8353C 45.8633 13.8353 45.1953 12.9493 45.1953 11.4883C 45.1953 10.0383 45.8593 9.1403 46.9453 9.1403z"/>
<path style="stroke:none; fill-rule:evenodd; fill:#000000" d="M 50.9963 8.4133L 50.9963 14.4373L 51.9963 14.4373L 51.9963 11.3043C 51.9963 10.4413 52.2073 9.87831 52.6563 9.5423C 52.9453 9.32431 53.2263 9.25731 53.8783 9.2453L 53.8783 8.28131C 53.7223 8.26131 53.6443 8.2493 53.5193 8.2493C 52.9103 8.2493 52.4453 8.61731 51.8983 9.51131L 51.8983 8.42131L 50.9963 8.4133z"/>
<path style="stroke:none; fill-rule:evenodd; fill:#000000" d="M 15.6953 20.0703C 15.3593 18.2423 14.2963 17.3473 12.4453 17.3473C 11.3123 17.3473 10.4023 17.7023 9.7773 18.3943C 9.0153 19.2223 8.6013 20.4173 8.6013 21.7773C 8.6013 23.1563 9.0273 24.3433 9.8243 25.1603C 10.4683 25.8283 11.3003 26.1363 12.3983 26.1363C 14.4533 26.1363 15.6093 25.0233 15.8673 22.7853L 14.7613 22.7853C 14.6713 23.3743 14.5583 23.7773 14.3823 24.1203C 14.0393 24.8313 13.3243 25.2343 12.4293 25.2343C 10.7613 25.2343 9.70329 23.8823 9.70329 21.7613C 9.70329 19.5813 10.7143 18.2383 12.3393 18.2383C 13.0153 18.2383 13.6523 18.4493 13.9963 18.7733C 14.3043 19.0663 14.4763 19.4253 14.6053 20.0583L 15.6953 20.0703z"/>
<path style="stroke:none; fill-rule:evenodd; fill:#000000" d="M 19.5353 19.6403C 17.8323 19.6403 16.8003 20.8553 16.8003 22.8903C 16.8003 24.9253 17.8203 26.1403 19.5503 26.1403C 21.2533 26.1403 22.3003 24.9293 22.3003 22.9413C 22.3003 20.8513 21.2933 19.6483 19.5433 19.6483L 19.5353 19.6403zM 19.5463 20.5423C 20.6403 20.5423 21.2963 21.4293 21.2963 22.9253C 21.2963 24.3393 20.6213 25.2383 19.5463 25.2383C 18.4643 25.2383 17.7963 24.3513 17.7963 22.8903C 17.7963 21.4413 18.4603 20.5423 19.5463 20.5423z"/>
<path style="stroke:none; fill-rule:evenodd; fill:#000000" d="M 23.5973 19.8163L 23.5973 25.8393L 24.5973 25.8393L 24.5973 22.7063C 24.5973 21.8433 24.8083 21.2813 25.2573 20.9453C 25.5463 20.7263 25.8283 20.6603 26.4803 20.6483L 26.4803 19.6833C 26.3243 19.6633 26.2463 19.6523 26.1213 19.6523C 25.5113 19.6523 25.0463 20.0193 24.5003 20.9133L 24.5003 19.8243L 23.5973 19.8163z"/>
<path style="stroke:none; fill-rule:evenodd; fill:#000000" d="M 29.4963 19.8433L 28.5973 19.8433L 28.5973 18.1753L 27.5973 18.1753L 27.5973 19.8433L 26.6993 19.8433L 26.6993 20.6403L 27.5973 20.6403L 27.5973 25.1873C 27.5973 25.7923 28.0003 26.1363 28.7303 26.1363C 28.9533 26.1363 29.1793 26.1133 29.4923 26.0543L 29.4923 25.2183C 29.3783 25.3083 29.2423 25.3353 29.0743 25.3353C 28.6993 25.3353 28.5933 25.2223 28.5933 24.7923L 28.5933 20.6403L 29.4923 20.6403L 29.4963 19.8433z"/>
<path style="stroke:none; fill-rule:evenodd; fill:#000000" d="M 35.6953 23.1403C 35.6953 22.2223 35.6283 21.6713 35.4573 21.2263C 35.0703 20.2423 34.1563 19.6443 33.0393 19.6443C 31.3753 19.6443 30.3003 20.9373 30.3003 22.9253C 30.3003 24.9133 31.3363 26.1403 33.0113 26.1403C 34.3753 26.1403 35.3203 25.3473 35.5623 24.0153L 34.6093 24.0153C 34.3473 24.8203 33.8163 25.2383 33.0543 25.2383C 32.4533 25.2383 31.9413 24.9603 31.6253 24.4453C 31.3983 24.0973 31.3203 23.7453 31.3083 23.1403L 35.6953 23.1403zM 31.2773 22.3743C 31.3553 21.2613 32.0353 20.5383 32.9963 20.5383C 33.9333 20.5383 34.6603 21.3163 34.6603 22.3043C 34.6603 22.3243 34.6603 22.3473 34.6483 22.3703L 31.2773 22.3743z"/>
<path style="stroke:none; fill-rule:evenodd; fill:#000000" d="M 39.5463 22.7383L 41.5663 19.8433L 40.4883 19.8433L 39.0433 22.0073L 37.5973 19.8433L 36.5073 19.8433L 38.5153 22.7853L 36.3943 25.8393L 37.4843 25.8393L 39.0073 23.5353L 40.5113 25.8393L 41.6253 25.8393L 39.5463 22.7383z"/>
<path style="stroke:none; fill-rule:evenodd; fill:#ffffff" d="M 131.851 45.1873L 154.625 45.1873L 154.625 41.3743L 131.851 41.3743L 131.851 45.1873z"/>
<path style="stroke:#000000; stroke-width:1.9133; fill:none" d="M 131.851 45.1873L 154.625 45.1873L 154.625 41.3743L 131.851 41.3743L 131.851 45.1873z"/>
<path style="stroke:none; fill-rule:evenodd; fill:#000000" d="M 167.898 39.0423L 167 39.0423L 167 37.3743L 166 37.3743L 166 39.0423L 165.101 39.0423L 165.101 39.8393L 166 39.8393L 166 44.3863C 166 44.9923 166.402 45.3353 167.132 45.3353C 167.355 45.3353 167.582 45.3123 167.894 45.2533L 167.894 44.4173C 167.781 44.5073 167.644 44.5353 167.476 44.5353C 167.101 44.5353 166.996 44.4213 166.996 43.9923L 166.996 39.8393L 167.894 39.8393L 167.898 39.0423z"/>
<path style="stroke:none; fill-rule:evenodd; fill:#000000" d="M 168.996 36.6403L 168.996 45.0383L 169.996 45.0383L 169.996 41.6913C 169.996 40.4523 170.621 39.6403 171.586 39.6403C 171.886 39.6403 172.187 39.7423 172.414 39.9173C 172.679 40.1133 172.793 40.4023 172.793 40.8313L 172.793 45.0353L 173.793 45.0353L 173.793 40.4803C 173.793 39.4683 173.074 38.8353 171.91 38.8353C 171.066 38.8353 170.554 39.1013 169.996 39.8433L 169.996 36.6323L 168.996 36.6403z"/>
<path style="stroke:none; fill-rule:evenodd; fill:#000000" d="M 180.738 44.4803C 180.632 44.5383 180.586 44.5383 180.527 44.5383C 180.187 44.5383 180 44.3673 180 44.0663L 180 40.4993C 180 39.4253 179.222 38.8433 177.75 38.8433C 176.882 38.8433 176.164 39.0973 175.761 39.5463C 175.488 39.8553 175.375 40.2023 175.351 40.8043L 176.296 40.8043C 176.375 40.0743 176.8 39.7423 177.683 39.7423C 178.527 39.7423 179 40.0623 179 40.6403L 179 40.8943C 179 41.2963 178.765 41.4683 178.023 41.5623C 176.699 41.7343 176.496 41.7813 176.136 41.9293C 175.453 42.2143 175.105 42.7573 175.105 43.5423C 175.105 44.6363 175.859 45.3283 177.07 45.3283C 177.824 45.3283 178.429 45.0543 179.105 44.4103C 179.171 45.0423 179.468 45.3283 180.086 45.3283C 180.277 45.3283 180.425 45.3043 180.734 45.2223L 180.738 44.4803zM 178.996 43.1793C 178.996 43.5073 178.906 43.7103 178.628 43.9843C 178.25 44.3473 177.793 44.5383 177.246 44.5383C 176.523 44.5383 176.097 44.1753 176.097 43.5463C 176.097 42.8983 176.507 42.5663 177.5 42.4133C 178.48 42.2733 178.679 42.2263 178.992 42.0743L 178.996 43.1793z"/>
<path style="stroke:none; fill-rule:evenodd; fill:#000000" d="M 181.796 45.0423L 182.796 45.0423L 182.796 36.6443L 181.796 36.6443L 181.796 45.0423z"/>
<path style="stroke:none; fill-rule:evenodd; fill:#000000" d="M 189.636 44.4803C 189.531 44.5383 189.484 44.5383 189.425 44.5383C 189.086 44.5383 188.898 44.3673 188.898 44.0663L 188.898 40.4993C 188.898 39.4253 188.121 38.8433 186.648 38.8433C 185.781 38.8433 185.062 39.0973 184.66 39.5463C 184.386 39.8553 184.273 40.2023 184.25 40.8043L 185.195 40.8043C 185.273 40.0743 185.699 39.7423 186.582 39.7423C 187.425 39.7423 187.898 40.0623 187.898 40.6403L 187.898 40.8943C 187.898 41.2963 187.664 41.4683 186.921 41.5623C 185.597 41.7343 185.394 41.7813 185.035 41.9293C 184.351 42.2143 184.003 42.7573 184.003 43.5423C 184.003 44.6363 184.757 45.3283 185.968 45.3283C 186.722 45.3283 187.328 45.0543 188.003 44.4103C 188.07 45.0423 188.367 45.3283 188.984 45.3283C 189.175 45.3283 189.324 45.3043 189.632 45.2223L 189.636 44.4803zM 187.898 43.1793C 187.898 43.5073 187.808 43.7103 187.531 43.9843C 187.152 44.3473 186.695 44.5383 186.148 44.5383C 185.425 44.5383 185 44.1753 185 43.5463C 185 42.8983 185.41 42.5663 186.402 42.4133C 187.382 42.2733 187.582 42.2263 187.894 42.0743L 187.898 43.1793z"/>
<path style="stroke:none; fill-rule:evenodd; fill:#000000" d="M 190.695 39.0153L 190.695 45.0383L 191.695 45.0383L 191.695 41.2303C 191.695 40.3513 192.32 39.6443 193.089 39.6443C 193.793 39.6443 194.191 40.0813 194.191 40.8593L 194.191 45.0383L 195.191 45.0383L 195.191 41.2303C 195.191 40.3513 195.816 39.6443 196.586 39.6443C 197.277 39.6443 197.687 40.0933 197.687 40.8593L 197.687 45.0383L 198.687 45.0383L 198.687 40.5193C 198.687 39.4413 198.066 38.8433 196.933 38.8433C 196.128 38.8433 195.64 39.0853 195.078 39.7733C 194.722 39.1243 194.238 38.8433 193.453 38.8433C 192.648 38.8433 192.117 39.1403 191.597 39.8633L 191.597 39.0153L 190.695 39.0153z"/>
<path style="stroke:none; fill-rule:evenodd; fill:#000000" d="M 205.097 45.0783L 205.097 39.0463L 204.097 39.0463L 204.097 42.4923C 204.097 43.7303 203.453 44.5423 202.445 44.5423C 201.683 44.5423 201.199 44.0813 201.199 43.3513L 201.199 39.0463L 200.199 39.0463L 200.199 43.6993C 200.199 44.6993 200.957 45.3433 202.148 45.3433C 203.046 45.3433 203.621 45.0353 204.195 44.2423L 204.195 45.0813L 205.097 45.0783z"/>
<path style="stroke:none; fill-rule:evenodd; fill:#000000" d="M 210.824 40.7023C 210.812 39.5153 210.027 38.8433 208.625 38.8433C 207.214 38.8433 206.3 39.5703 206.3 40.6913C 206.3 41.6363 206.789 42.0853 208.238 42.4333L 209.148 42.6523C 209.824 42.8123 210.093 43.0543 210.093 43.4923C 210.093 44.0543 209.527 44.4373 208.683 44.4373C 208.164 44.4373 207.726 44.2883 207.484 44.0313C 207.336 43.8593 207.265 43.6833 207.207 43.2493L 206.191 43.2493C 206.234 44.6603 207.019 45.3393 208.601 45.3393C 210.125 45.3393 211.093 44.5893 211.093 43.4253C 211.093 42.5273 210.582 42.0313 209.367 41.7423L 208.433 41.5233C 207.64 41.3393 207.3 41.0853 207.3 40.6603C 207.3 40.1093 207.796 39.7493 208.586 39.7493C 209.359 39.7493 209.777 40.0783 209.8 40.7063L 210.824 40.7023z"/>
<path style="stroke:none; fill-rule:evenodd; fill:#000000" d="M 171.796 75.4293C 171.789 73.7923 170.668 72.8433 168.753 72.8433C 166.929 72.8433 165.8 73.7923 165.8 75.3203C 165.8 76.3473 166.332 76.9993 167.421 77.2883L 169.476 77.8433C 170.519 78.1203 170.996 78.5463 170.996 79.2063C 170.996 79.6563 170.757 80.1203 170.41 80.3743C 170.082 80.6053 169.562 80.7303 168.894 80.7303C 168 80.7303 167.39 80.5033 166.996 80.0033C 166.691 79.6243 166.554 79.2063 166.605 78.6673L 165.605 78.6673C 165.613 79.4453 165.761 79.9563 166.089 80.4213C 166.656 81.2103 167.609 81.6283 168.867 81.6283C 169.851 81.6283 170.656 81.4023 171.191 80.9843C 171.746 80.5383 172.097 79.7883 172.097 79.0623C 172.097 78.0273 171.464 77.2693 170.339 76.9563L 168.265 76.3943C 167.269 76.1203 166.906 75.7963 166.906 75.1523C 166.906 74.3003 167.64 73.7343 168.746 73.7343C 170.054 73.7343 170.789 74.3353 170.8 75.4213L 171.796 75.4293z"/>
<path style="stroke:none; fill-rule:evenodd; fill:#000000" d="M 175.597 75.3433L 174.699 75.3433L 174.699 73.6753L 173.699 73.6753L 173.699 75.3433L 172.8 75.3433L 172.8 76.1403L 173.699 76.1403L 173.699 80.6873C 173.699 81.2923 174.101 81.6363 174.832 81.6363C 175.054 81.6363 175.281 81.6133 175.593 81.5543L 175.593 80.7183C 175.48 80.8083 175.343 80.8353 175.175 80.8353C 174.8 80.8353 174.695 80.7223 174.695 80.2923L 174.695 76.1403L 175.593 76.1403L 175.597 75.3433z"/>
<path style="stroke:none; fill-rule:evenodd; fill:#000000" d="M 176.695 75.3163L 176.695 81.3393L 177.695 81.3393L 177.695 78.2063C 177.695 77.3433 177.906 76.7813 178.355 76.4453C 178.644 76.2263 178.925 76.1603 179.578 76.1483L 179.578 75.1833C 179.421 75.1633 179.343 75.1523 179.218 75.1523C 178.609 75.1523 178.144 75.5193 177.597 76.4133L 177.597 75.3243L 176.695 75.3163z"/>
<path style="stroke:none; fill-rule:evenodd; fill:#000000" d="M 181.398 75.3433L 180.398 75.3433L 180.398 81.3433L 181.398 81.3433L 181.398 75.3433zM 181.398 72.9413L 180.398 72.9413L 180.398 74.1753L 181.398 74.1753L 181.398 72.9413z"/>
<path style="stroke:none; fill-rule:evenodd; fill:#000000" d="M 188.339 80.7813C 188.234 80.8393 188.187 80.8393 188.128 80.8393C 187.789 80.8393 187.601 80.6673 187.601 80.3673L 187.601 76.8003C 187.601 75.7263 186.824 75.1443 185.351 75.1443C 184.484 75.1443 183.765 75.3983 183.363 75.8473C 183.089 76.1563 182.976 76.5033 182.953 77.1053L 183.898 77.1053C 183.976 76.3743 184.402 76.0423 185.285 76.0423C 186.128 76.0423 186.601 76.3633 186.601 76.9413L 186.601 77.1953C 186.601 77.5973 186.367 77.7693 185.625 77.8633C 184.3 78.0353 184.097 78.0813 183.738 78.2303C 183.054 78.5153 182.707 79.0583 182.707 79.8433C 182.707 80.9373 183.46 81.6283 184.671 81.6283C 185.425 81.6283 186.031 81.3553 186.707 80.7103C 186.773 81.3433 187.07 81.6283 187.687 81.6283C 187.878 81.6283 188.027 81.6053 188.336 81.5233L 188.339 80.7813zM 186.597 79.4803C 186.597 79.8083 186.507 80.0113 186.23 80.2853C 185.851 80.6483 185.394 80.8393 184.847 80.8393C 184.125 80.8393 183.699 80.4763 183.699 79.8473C 183.699 79.1993 184.109 78.8673 185.101 78.7143C 186.082 78.5743 186.281 78.5273 186.593 78.3743L 186.597 79.4803z"/>
<path style="stroke:none; fill-rule:evenodd; fill:#000000" d="M 191.496 75.3433L 190.597 75.3433L 190.597 73.6753L 189.597 73.6753L 189.597 75.3433L 188.699 75.3433L 188.699 76.1403L 189.597 76.1403L 189.597 80.6873C 189.597 81.2923 190 81.6363 190.73 81.6363C 190.953 81.6363 191.179 81.6133 191.492 81.5543L 191.492 80.7183C 191.378 80.8083 191.242 80.8353 191.074 80.8353C 190.699 80.8353 190.593 80.7223 190.593 80.2923L 190.593 76.1403L 191.492 76.1403L 191.496 75.3433z"/>
<path style="stroke:none; fill-rule:evenodd; fill:#000000" d="M 197.398 81.3783L 197.398 75.3473L 196.398 75.3473L 196.398 78.7923C 196.398 80.0313 195.753 80.8433 194.746 80.8433C 193.984 80.8433 193.5 80.3823 193.5 79.6523L 193.5 75.3473L 192.5 75.3473L 192.5 79.9993C 192.5 80.9993 193.257 81.6443 194.449 81.6443C 195.347 81.6443 195.921 81.3353 196.496 80.5423L 196.496 81.3823L 197.398 81.3783z"/>
<path style="stroke:none; fill-rule:evenodd; fill:#000000" d="M 198.996 75.3163L 198.996 81.3393L 199.996 81.3393L 199.996 77.5313C 199.996 76.6523 200.621 75.9453 201.39 75.9453C 202.093 75.9453 202.492 76.3823 202.492 77.1603L 202.492 81.3393L 203.492 81.3393L 203.492 77.5313C 203.492 76.6523 204.117 75.9453 204.886 75.9453C 205.578 75.9453 205.988 76.3943 205.988 77.1603L 205.988 81.3393L 206.988 81.3393L 206.988 76.8203C 206.988 75.7423 206.367 75.1443 205.234 75.1443C 204.429 75.1443 203.941 75.3863 203.378 76.0743C 203.023 75.4253 202.539 75.1443 201.753 75.1443C 200.949 75.1443 200.418 75.4413 199.898 76.1633L 199.898 75.3163L 198.996 75.3163z"/>
<path style="stroke:none; fill-rule:evenodd; fill:#000000" d="M 167.722 84.4413C 166.605 85.9493 165.898 88.0423 165.898 89.8513C 165.898 91.6673 166.601 93.7613 167.722 95.2693L 168.336 95.2693C 167.347 93.6243 166.796 91.6913 166.796 89.8513C 166.796 88.0233 167.347 86.0783 168.336 84.4413L 167.722 84.4413z"/>
<path style="stroke:none; fill-rule:evenodd; fill:#000000" d="M 169.597 86.8163L 169.597 92.8393L 170.597 92.8393L 170.597 89.0313C 170.597 88.1523 171.222 87.4453 171.992 87.4453C 172.695 87.4453 173.093 87.8823 173.093 88.6603L 173.093 92.8393L 174.093 92.8393L 174.093 89.0313C 174.093 88.1523 174.718 87.4453 175.488 87.4453C 176.179 87.4453 176.589 87.8943 176.589 88.6603L 176.589 92.8393L 177.589 92.8393L 177.589 88.3203C 177.589 87.2423 176.968 86.6443 175.836 86.6443C 175.031 86.6443 174.543 86.8863 173.98 87.5743C 173.625 86.9253 173.14 86.6443 172.355 86.6443C 171.55 86.6443 171.019 86.9413 170.5 87.6633L 170.5 86.8163L 169.597 86.8163z"/>
<path style="stroke:none; fill-rule:evenodd; fill:#000000" d="M 184.539 92.2813C 184.433 92.3393 184.386 92.3393 184.328 92.3393C 183.988 92.3393 183.8 92.1673 183.8 91.8673L 183.8 88.3003C 183.8 87.2263 183.023 86.6443 181.55 86.6443C 180.683 86.6443 179.964 86.8983 179.562 87.3473C 179.289 87.6563 179.175 88.0033 179.152 88.6053L 180.097 88.6053C 180.175 87.8743 180.601 87.5423 181.484 87.5423C 182.328 87.5423 182.8 87.8633 182.8 88.4413L 182.8 88.6953C 182.8 89.0973 182.566 89.2693 181.824 89.3633C 180.5 89.5353 180.296 89.5813 179.937 89.7303C 179.253 90.0153 178.906 90.5583 178.906 91.3433C 178.906 92.4373 179.66 93.1283 180.871 93.1283C 181.625 93.1283 182.23 92.8553 182.906 92.2103C 182.972 92.8433 183.269 93.1283 183.886 93.1283C 184.078 93.1283 184.226 93.1053 184.535 93.0233L 184.539 92.2813zM 182.796 90.9803C 182.796 91.3083 182.707 91.5113 182.429 91.7853C 182.05 92.1483 181.593 92.3393 181.046 92.3393C 180.324 92.3393 179.898 91.9763 179.898 91.3473C 179.898 90.6993 180.308 90.3673 181.3 90.2143C 182.281 90.0743 182.48 90.0273 182.793 89.8743L 182.796 90.9803z"/>
<path style="stroke:none; fill-rule:evenodd; fill:#000000" d="M 187.695 86.8433L 186.796 86.8433L 186.796 85.1753L 185.796 85.1753L 185.796 86.8433L 184.898 86.8433L 184.898 87.6403L 185.796 87.6403L 185.796 92.1873C 185.796 92.7923 186.199 93.1363 186.929 93.1363C 187.152 93.1363 187.378 93.1133 187.691 93.0543L 187.691 92.2183C 187.578 92.3083 187.441 92.3353 187.273 92.3353C 186.898 92.3353 186.793 92.2223 186.793 91.7923L 186.793 87.6403L 187.691 87.6403L 187.695 86.8433z"/>
<path style="stroke:none; fill-rule:evenodd; fill:#000000" d="M 188.796 86.8163L 188.796 92.8393L 189.796 92.8393L 189.796 89.7063C 189.796 88.8433 190.007 88.2813 190.457 87.9453C 190.746 87.7263 191.027 87.6603 191.679 87.6483L 191.679 86.6833C 191.523 86.6633 191.445 86.6523 191.32 86.6523C 190.71 86.6523 190.246 87.0193 189.699 87.9133L 189.699 86.8243L 188.796 86.8163z"/>
<path style="stroke:none; fill-rule:evenodd; fill:#000000" d="M 193.496 86.8433L 192.496 86.8433L 192.496 92.8433L 193.496 92.8433L 193.496 86.8433zM 193.496 84.4413L 192.496 84.4413L 192.496 85.6753L 193.496 85.6753L 193.496 84.4413z"/>
<path style="stroke:none; fill-rule:evenodd; fill:#000000" d="M 197.648 89.7383L 199.668 86.8433L 198.589 86.8433L 197.144 89.0073L 195.699 86.8433L 194.609 86.8433L 196.617 89.7853L 194.496 92.8393L 195.586 92.8393L 197.109 90.5353L 198.613 92.8393L 199.726 92.8393L 197.648 89.7383z"/>
<path style="stroke:none; fill-rule:evenodd; fill:#000000" d="M 201.152 95.2773C 202.281 93.7693 202.992 91.6753 202.992 89.8703C 202.992 88.0543 202.281 85.9603 201.152 84.4493L 200.535 84.4493C 201.539 86.0973 202.097 88.0273 202.097 89.8703C 202.097 91.6993 201.539 93.6443 200.535 95.2773L 201.152 95.2773z"/>
<path style="stroke:none; fill-rule:evenodd; fill:#000000" d="M 238.48 77.0423L 239.113 77.0423C 240.054 77.0423 240.593 74.9413 240.593 71.3083L 240.593 63.9993C 240.593 59.9723 240.843 58.4843 241.597 57.9603L 241.597 54.9413C 240.843 54.4173 240.593 52.9293 240.593 48.9023L 240.593 41.5933C 240.593 37.9603 240.058 35.8553 239.113 35.8553L 238.48 35.8553L 238.48 38.6523L 238.703 38.6523C 239.398 38.6523 239.593 39.3083 239.593 41.5893L 239.593 49.5313C 239.593 53.1283 239.918 55.3243 240.625 56.4643C 239.921 57.5583 239.593 59.7103 239.593 63.3553L 239.593 71.2963C 239.593 73.5783 239.402 74.2343 238.703 74.2343L 238.48 74.2343L 238.48 77.0423z"/>
<path style="stroke:#0000ff; stroke-width:1.9133; fill:none" d="M 10.0273 65.5113L 23.4183 65.5113"/>
<path style="stroke:#ff0000; stroke-width:1.9133; fill:none" d="M 10.0273 76.9923L 23.4183 76.9923"/>
<path style="stroke:none; fill-rule:evenodd; fill:#000000" d="M 32.1953 64.4413C 32.1953 63.6563 32.1403 63.1833 31.9963 62.8003C 31.6753 61.9563 30.9143 61.4453 29.9803 61.4453C 28.5933 61.4453 27.6993 62.5193 27.6993 64.1713C 27.6993 65.8203 28.5623 66.8393 29.9643 66.8393C 31.1053 66.8393 31.8983 66.1993 32.0973 65.1203L 31.2933 65.1203C 31.0743 65.7883 30.6213 66.1403 29.9803 66.1403C 29.4723 66.1403 29.0433 65.9133 28.7693 65.4993C 28.5783 65.2183 28.5113 64.9373 28.5033 64.4453L 32.1953 64.4413zM 28.5313 63.7533C 28.5973 62.8283 29.1603 62.2263 29.9643 62.2263C 30.7463 62.2263 31.3513 62.8743 31.3513 63.6993C 31.3513 63.7143 31.3513 63.7343 31.3433 63.7533L 28.5313 63.7533z"/>
<path style="stroke:none; fill-rule:evenodd; fill:#000000" d="M 35.3903 64.0543L 37.0743 61.6443L 36.1753 61.6443L 34.9723 63.4453L 33.7693 61.6443L 32.8633 61.6443L 34.5353 64.0933L 32.7653 66.6403L 33.6713 66.6403L 34.9413 64.7183L 36.1913 66.6403L 37.1173 66.6403L 35.3903 64.0543z"/>
<path style="stroke:none; fill-rule:evenodd; fill:#000000" d="M 41.9023 63.3123C 41.8673 62.7853 41.7613 62.4453 41.5703 62.1443C 41.2263 61.7063 40.6253 61.4453 39.9293 61.4453C 38.5823 61.4453 37.7033 62.5193 37.7033 64.1913C 37.7033 65.8123 38.5623 66.8393 39.9183 66.8393C 41.1093 66.8393 41.8673 66.1323 41.9603 64.9173L 41.1523 64.9173C 41.0193 65.7303 40.6053 66.1363 39.9183 66.1363C 39.0313 66.1363 38.5003 65.4023 38.5003 64.1873C 38.5003 62.9063 39.0193 62.1403 39.8983 62.1403C 40.5703 62.1403 40.9963 62.5583 41.0933 63.3083L 41.9023 63.3123z"/>
<path style="stroke:none; fill-rule:evenodd; fill:#000000" d="M 43.4963 61.6403L 42.6993 61.6403L 42.6993 66.6403L 43.4963 66.6403L 43.4963 61.6403zM 43.4963 59.6403L 42.6993 59.6403L 42.6993 60.6673L 43.4963 60.6673L 43.4963 59.6403z"/>
<path style="stroke:none; fill-rule:evenodd; fill:#000000" d="M 46.6953 61.6403L 45.8983 61.6403L 45.8983 60.2493L 45.1013 60.2493L 45.1013 61.6403L 44.4023 61.6403L 44.4023 62.3393L 45.1013 62.3393L 45.1013 66.0583C 45.1013 66.5543 45.4413 66.8353 46.0543 66.8353C 46.2423 66.8353 46.4333 66.8203 46.6953 66.7733L 46.6953 66.1243C 46.5933 66.1363 46.4723 66.1403 46.3243 66.1403C 45.9923 66.1403 45.8983 66.0463 45.8983 65.7023L 45.8983 62.3433L 46.6953 62.3433L 46.6953 61.6403z"/>
<path style="stroke:none; fill-rule:evenodd; fill:#000000" d="M 52.0153 66.1713C 51.9293 66.1443 51.8903 66.1443 51.8393 66.1443C 51.5583 66.1443 51.4023 66.0033 51.4023 65.7533L 51.4023 62.8123C 51.4023 61.9253 50.7573 61.4493 49.5273 61.4493C 48.8043 61.4493 48.2073 61.6633 47.8713 62.0463C 47.6443 62.3083 47.5503 62.6053 47.5313 63.1133L 48.3283 63.1133C 48.3943 62.4493 48.7533 62.1443 49.4963 62.1443C 50.2073 62.1443 50.6053 62.4133 50.6053 62.8983L 50.6053 63.1093C 50.6053 63.4453 50.4063 63.5893 49.7813 63.6673C 48.6603 63.8123 48.4883 63.8513 48.1833 63.9763C 47.6053 64.2143 47.3083 64.6713 47.3083 65.3313C 47.3083 66.2493 47.9373 66.8313 48.9533 66.8313C 49.5823 66.8313 50.0893 66.6203 50.6563 66.1173C 50.7103 66.6093 50.9603 66.8313 51.4763 66.8313C 51.6363 66.8313 51.7613 66.8163 52.0193 66.7493L 52.0153 66.1713zM 50.5973 65.0543C 50.5973 65.3163 50.5233 65.4803 50.2813 65.6953C 49.9573 65.9883 49.5623 66.1363 49.0893 66.1363C 48.4643 66.1363 48.1013 65.8433 48.1013 65.3433C 48.1013 64.8243 48.4573 64.5583 49.3123 64.4373C 50.1563 64.3243 50.3283 64.2883 50.5973 64.1633L 50.5973 65.0543z"/>
<path style="stroke:none; fill-rule:evenodd; fill:#000000" d="M 54.5973 61.6403L 53.8003 61.6403L 53.8003 60.2493L 53.0033 60.2493L 53.0033 61.6403L 52.3043 61.6403L 52.3043 62.3393L 53.0033 62.3393L 53.0033 66.0583C 53.0033 66.5543 53.3433 66.8353 53.9573 66.8353C 54.1443 66.8353 54.3363 66.8203 54.5973 66.7733L 54.5973 66.1243C 54.4963 66.1363 54.3753 66.1403 54.2263 66.1403C 53.8943 66.1403 53.8003 66.0463 53.8003 65.7023L 53.8003 62.3433L 54.5973 62.3433L 54.5973 61.6403z"/>
<path style="stroke:none; fill-rule:evenodd; fill:#000000" d="M 57.5353 61.4413C 56.1403 61.4413 55.2963 62.4493 55.2963 64.1403C 55.2963 65.8283 56.1283 66.8393 57.5463 66.8393C 58.9413 66.8393 59.7963 65.8313 59.7963 64.1793C 59.7963 62.4413 58.9723 61.4413 57.5393 61.4413L 57.5353 61.4413zM 57.5463 62.1403C 58.4533 62.1403 58.9963 62.8943 58.9963 64.1673C 58.9963 65.3703 58.4373 66.1363 57.5463 66.1363C 56.6483 66.1363 56.0973 65.3823 56.0973 64.1363C 56.0973 62.9023 56.6483 62.1363 57.5463 62.1363L 57.5463 62.1403z"/>
<path style="stroke:none; fill-rule:evenodd; fill:#000000" d="M 60.8983 61.5893L 60.8983 66.6403L 61.6953 66.6403L 61.6953 63.9883C 61.6953 63.2573 61.8713 62.7813 62.2463 62.4953C 62.4883 62.3123 62.7223 62.2533 63.2613 62.2423L 63.2613 61.4723C 63.1283 61.4563 63.0623 61.4493 62.9573 61.4493C 62.4453 61.4493 62.0503 61.7573 61.5933 62.5073L 61.5933 61.5933L 60.8983 61.5893z"/>
<path style="stroke:none; fill-rule:evenodd; fill:#000000" d="M 67.1093 61.6403L 65.7223 65.5273L 64.4413 61.6403L 63.5933 61.6403L 65.2853 66.7383L 64.9803 67.5423C 64.8593 67.8983 64.6753 68.0353 64.3393 68.0353C 64.2263 68.0353 64.0933 67.9843 63.9213 67.8823L 63.9213 68.6093C 64.0823 68.6953 64.2463 68.7343 64.4573 68.7343C 64.7143 68.7343 64.9923 68.6483 65.1993 68.4953C 65.4453 68.3163 65.5893 68.1053 65.7423 67.7023L 67.9683 61.6403L 67.1093 61.6403z"/>
<path style="stroke:none; fill-rule:evenodd; fill:#000000" d="M 28.6953 75.0423L 27.8983 75.0423L 27.8983 80.0423L 28.6953 80.0423L 28.6953 75.0423zM 28.6953 73.0423L 27.8983 73.0423L 27.8983 74.0703L 28.6953 74.0703L 28.6953 73.0423z"/>
<path style="stroke:none; fill-rule:evenodd; fill:#000000" d="M 30.0973 74.9883L 30.0973 80.0383L 30.8943 80.0383L 30.8943 77.2493C 30.8943 76.2183 31.4293 75.5423 32.2533 75.5423C 32.8863 75.5423 33.2893 75.9293 33.2893 76.5353L 33.2893 80.0383L 34.0863 80.0383L 34.0863 76.2223C 34.0863 75.3863 33.4573 74.8433 32.4763 74.8433C 31.7223 74.8433 31.2343 75.1323 30.7893 75.8353L 30.7893 74.9883L 30.0973 74.9883z"/>
<path style="stroke:none; fill-rule:evenodd; fill:#000000" d="M 35.3983 73.0423L 35.3983 80.0423L 36.1953 80.0423L 36.1953 77.2533C 36.1953 76.2223 36.7303 75.5463 37.5543 75.5463C 37.8123 75.5463 38.0703 75.6323 38.2613 75.7773C 38.4883 75.9373 38.5863 76.1793 38.5863 76.5383L 38.5863 80.0423L 39.3823 80.0423L 39.3823 76.2263C 39.3823 75.3783 38.7813 74.8473 37.7963 74.8473C 37.0863 74.8473 36.6563 75.0783 36.1833 75.7223L 36.1833 73.0503L 35.3983 73.0423z"/>
<path style="stroke:none; fill-rule:evenodd; fill:#000000" d="M 41.3983 75.0423L 40.6013 75.0423L 40.6013 80.0423L 41.3983 80.0423L 41.3983 75.0423zM 41.3983 73.0423L 40.6013 73.0423L 40.6013 74.0703L 41.3983 74.0703L 41.3983 73.0423z"/>
<path style="stroke:none; fill-rule:evenodd; fill:#000000" d="M 42.5973 73.0423L 42.5973 80.0423L 43.2963 80.0423L 43.2963 79.4023C 43.6793 79.9683 44.1913 80.2423 44.8943 80.2423C 46.2223 80.2423 47.0893 79.1563 47.0893 77.4843C 47.0893 75.8513 46.2653 74.8433 44.9453 74.8433C 44.2573 74.8433 43.7693 75.1133 43.3943 75.7063L 43.3943 73.0423L 42.5973 73.0423zM 44.8043 75.6323C 45.6913 75.6323 46.2653 76.4063 46.2653 77.6013C 46.2653 78.7383 45.6753 79.5113 44.8043 79.5113C 43.9643 79.5113 43.4103 78.7493 43.4103 77.5703C 43.4103 76.3943 43.9643 75.6283 44.8043 75.6283L 44.8043 75.6323z"/>
<path style="stroke:none; fill-rule:evenodd; fill:#000000" d="M 48.8983 75.0423L 48.1013 75.0423L 48.1013 80.0423L 48.8983 80.0423L 48.8983 75.0423zM 48.8983 73.0423L 48.1013 73.0423L 48.1013 74.0703L 48.8983 74.0703L 48.8983 73.0423z"/>
<path style="stroke:none; fill-rule:evenodd; fill:#000000" d="M 51.9963 75.0423L 51.1993 75.0423L 51.1993 73.6523L 50.4023 73.6523L 50.4023 75.0423L 49.7033 75.0423L 49.7033 75.7423L 50.4023 75.7423L 50.4023 79.4603C 50.4023 79.9563 50.7423 80.2383 51.3553 80.2383C 51.5433 80.2383 51.7343 80.2223 51.9963 80.1753L 51.9963 79.5273C 51.8943 79.5383 51.7733 79.5423 51.6253 79.5423C 51.2933 79.5423 51.1993 79.4493 51.1993 79.1053L 51.1993 75.7453L 51.9963 75.7453L 51.9963 75.0423z"/>
<path style="stroke:none; fill-rule:evenodd; fill:#000000" d="M 54.8363 74.8433C 53.4413 74.8433 52.5973 75.8513 52.5973 77.5423C 52.5973 79.2303 53.4293 80.2423 54.8473 80.2423C 56.2423 80.2423 57.0973 79.2343 57.0973 77.5813C 57.0973 75.8433 56.2733 74.8433 54.8393 74.8433L 54.8363 74.8433zM 54.8473 75.5423C 55.7533 75.5423 56.2963 76.2963 56.2963 77.5703C 56.2963 78.7733 55.7383 79.5383 54.8473 79.5383C 53.9493 79.5383 53.3983 78.7853 53.3983 77.5383C 53.3983 76.3043 53.9493 75.5383 54.8473 75.5383L 54.8473 75.5423z"/>
<path style="stroke:none; fill-rule:evenodd; fill:#000000" d="M 58.2963 74.9883L 58.2963 80.0383L 59.0933 80.0383L 59.0933 77.3863C 59.0933 76.6563 59.2693 76.1793 59.6443 75.8943C 59.8863 75.7103 60.1213 75.6523 60.6603 75.6403L 60.6603 74.8703C 60.5273 74.8553 60.4603 74.8473 60.3553 74.8473C 59.8433 74.8473 59.4493 75.1563 58.9923 75.9063L 58.9923 74.9923L 58.2963 74.9883z"/>
<path style="stroke:none; fill-rule:evenodd; fill:#000000" d="M 64.4103 75.0423L 63.0233 78.9293L 61.7423 75.0423L 60.8943 75.0423L 62.5863 80.1403L 62.2813 80.9453C 62.1603 81.3003 61.9763 81.4373 61.6403 81.4373C 61.5273 81.4373 61.3943 81.3863 61.2223 81.2853L 61.2223 82.0113C 61.3823 82.0973 61.5463 82.1363 61.7573 82.1363C 62.0153 82.1363 62.2933 82.0503 62.5003 81.8983C 62.7463 81.7183 62.8903 81.5073 63.0433 81.1053L 65.2693 75.0423L 64.4103 75.0423z"/>
<path style="stroke:#000000; stroke-width:0.95664899999999997; fill:none" d="M 6.1993 84.6443L 73.1643 84.6443L 73.1643 57.8593L 6.1993 57.8593L 6.1993 84.6443z"/>
<path style="stroke:none; fill-rule:evenodd; fill:#0000ff" d="M 95.9923 76.7423L 95.3713 76.7423C 94.4373 76.7423 93.8983 77.3823 93.8983 78.4953L 93.8983 80.7303C 93.8983 81.9723 93.6443 82.4133 92.8553 82.5783L 92.8553 83.4993C 93.6443 83.6603 93.8983 84.1133 93.8983 85.3473L 93.8983 87.5813C 93.8983 88.6913 94.4373 89.3353 95.3713 89.3353L 95.9923 89.3353L 95.9923 88.4373L 95.7813 88.4373C 95.0933 88.4373 94.8983 88.2383 94.8983 87.5463L 94.8983 85.1403C 94.8983 84.0383 94.5703 83.3863 93.8553 83.0383C 94.6323 82.7223 94.8983 82.1753 94.8983 80.9493L 94.8983 78.5423C 94.8983 77.8513 95.0933 77.6523 95.7813 77.6523L 95.9923 77.6523L 95.9923 76.7423z"/>
<path style="stroke:#0000ff; stroke-width:0.95664899999999997; fill:none" d="M 94.2103 82.7303L 90.3863 82.7303"/>
<path style="stroke:#0000ff; stroke-width:0.95664899999999997; fill:none" d="M 90.3863 82.7303L 90.3863 73.1673"/>
<path style="stroke:#0000ff; stroke-width:0.95664899999999997; fill:none" d="M 117.171 27.2453L 90.3863 73.1633"/>
<path style="stroke:#0000ff; stroke-width:0.95664899999999997; fill:none" d="M 95.8943 67.5193L 90.3863 73.1633L 92.5893 65.5933"/>
<path style="stroke:#0000ff; stroke-width:0.95664899999999997; fill:none" d="M 71.2533 27.2453L 90.3863 73.1633"/>
<path style="stroke:#0000ff; stroke-width:0.95664899999999997; fill:none" d="M 89.2073 65.3673L 90.3823 73.1633L 85.6753 66.8353"/>
<path style="stroke:none; fill-rule:evenodd; fill:#000000" d="M 252.996 46.1403L 251.996 46.1403L 251.996 49.2813C 251.597 48.6673 250.96 48.3393 250.16 48.3393C 248.613 48.3393 247.597 49.5973 247.597 51.5313C 247.597 53.5783 248.609 54.8353 250.25 54.8353C 251.086 54.8353 251.668 54.5153 252.191 53.7453L 252.191 54.5353L 252.988 54.5353L 252.996 46.1403zM 250.324 49.2423C 251.343 49.2423 251.992 50.1673 251.992 51.6133C 251.992 53.0113 251.336 53.9373 250.336 53.9373C 249.293 53.9373 248.597 52.9993 248.597 51.5893C 248.597 50.1793 249.289 49.2423 250.324 49.2423z"/>
<path style="stroke:none; fill-rule:evenodd; fill:#000000" d="M 255.398 48.5423L 254.398 48.5423L 254.398 54.5423L 255.398 54.5423L 255.398 48.5423zM 255.398 46.1403L 254.398 46.1403L 254.398 47.3743L 255.398 47.3743L 255.398 46.1403z"/>
<path style="stroke:none; fill-rule:evenodd; fill:#000000" d="M 261.222 50.2023C 261.21 49.0153 260.425 48.3433 259.023 48.3433C 257.613 48.3433 256.699 49.0703 256.699 50.1913C 256.699 51.1363 257.187 51.5853 258.636 51.9333L 259.546 52.1523C 260.222 52.3123 260.492 52.5543 260.492 52.9923C 260.492 53.5543 259.925 53.9373 259.082 53.9373C 258.562 53.9373 258.125 53.7883 257.882 53.5313C 257.734 53.3593 257.664 53.1833 257.605 52.7493L 256.589 52.7493C 256.632 54.1603 257.418 54.8393 259 54.8393C 260.523 54.8393 261.492 54.0893 261.492 52.9253C 261.492 52.0273 260.98 51.5313 259.765 51.2423L 258.832 51.0233C 258.039 50.8393 257.699 50.5853 257.699 50.1603C 257.699 49.6093 258.195 49.2493 258.984 49.2493C 259.757 49.2493 260.175 49.5783 260.199 50.2063L 261.222 50.2023z"/>
<path style="stroke:none; fill-rule:evenodd; fill:#000000" d="M 262.496 52.2423L 268.293 52.2423L 268.293 51.4453L 262.496 51.4453L 262.496 52.2423z"/>
<path style="stroke:none; fill-rule:evenodd; fill:#000000" d="M 248.996 60.0423L 247.996 60.0423L 247.996 66.0423L 248.996 66.0423L 248.996 60.0423zM 248.996 57.6403L 247.996 57.6403L 247.996 58.8743L 248.996 58.8743L 248.996 57.6403z"/>
<path style="stroke:none; fill-rule:evenodd; fill:#000000" d="M 250.597 60.0153L 250.597 66.0383L 251.597 66.0383L 251.597 62.6913C 251.597 61.4523 252.222 60.6403 253.187 60.6403C 253.925 60.6403 254.394 61.1013 254.394 61.8313L 254.394 66.0353L 255.394 66.0353L 255.394 61.4803C 255.394 60.4803 254.652 59.8353 253.492 59.8353C 252.601 59.8353 252.027 60.1793 251.5 61.0193L 251.5 60.0073L 250.597 60.0153z"/>
<path style="stroke:none; fill-rule:evenodd; fill:#000000" d="M 256.996 57.6403L 256.996 66.0383L 257.996 66.0383L 257.996 62.6913C 257.996 61.4523 258.621 60.6403 259.586 60.6403C 259.886 60.6403 260.187 60.7423 260.414 60.9173C 260.679 61.1133 260.793 61.4023 260.793 61.8313L 260.793 66.0353L 261.793 66.0353L 261.793 61.4803C 261.793 60.4683 261.074 59.8353 259.91 59.8353C 259.066 59.8353 258.554 60.1013 257.996 60.8433L 257.996 57.6323L 256.996 57.6403z"/>
<path style="stroke:none; fill-rule:evenodd; fill:#000000" d="M 264.296 60.0423L 263.296 60.0423L 263.296 66.0423L 264.296 66.0423L 264.296 60.0423zM 264.296 57.6403L 263.296 57.6403L 263.296 58.8743L 264.296 58.8743L 264.296 57.6403z"/>
<path style="stroke:none; fill-rule:evenodd; fill:#000000" d="M 265.695 57.6403L 265.695 66.0383L 266.593 66.0383L 266.593 65.2733C 267.046 65.9953 267.652 66.3393 268.488 66.3393C 270.062 66.3393 271.089 65.0353 271.089 63.0233C 271.089 61.0583 270.109 59.8433 268.539 59.8433C 267.718 59.8433 267.14 60.1563 266.695 60.8393L 266.695 57.6403L 265.695 57.6403zM 268.343 60.7493C 269.41 60.7493 270.097 61.6793 270.097 63.1133C 270.097 64.4763 269.386 65.4063 268.343 65.4063C 267.336 65.4063 266.668 64.4883 266.668 63.0783C 266.668 61.6673 267.332 60.7493 268.343 60.7493z"/>
<path style="stroke:none; fill-rule:evenodd; fill:#ffffff" d="M 129.843 60.4923L 150.351 60.4923L 150.351 56.6793L 129.843 56.6793L 129.843 60.4923z"/>
<path style="stroke:#000000; stroke-width:1.9133; fill:none" d="M 129.843 60.4923L 150.351 60.4923L 150.351 56.6793L 129.843 56.6793L 129.843 60.4923z"/>
<path style="stroke:none; fill-rule:evenodd; fill:#ffffff" d="M 99.9103 93.2063L 137.293 93.2063L 137.293 75.1283L 99.9103 75.1283L 99.9103 93.2063z"/>
<path style="stroke:#000000; stroke-width:1.9133; fill:none" d="M 99.9103 93.2063L 137.293 93.2063L 137.293 75.1283L 99.9103 75.1283L 99.9103 93.2063z"/>
<path style="stroke:none; fill-rule:evenodd; fill:#000000" d="M 171.796 54.4293C 171.789 52.7923 170.668 51.8433 168.753 51.8433C 166.929 51.8433 165.8 52.7923 165.8 54.3203C 165.8 55.3473 166.332 55.9993 167.421 56.2883L 169.476 56.8433C 170.519 57.1203 170.996 57.5463 170.996 58.2063C 170.996 58.6563 170.757 59.1203 170.41 59.3743C 170.082 59.6053 169.562 59.7303 168.894 59.7303C 168 59.7303 167.39 59.5033 166.996 59.0033C 166.691 58.6243 166.554 58.2063 166.605 57.6673L 165.605 57.6673C 165.613 58.4453 165.761 58.9563 166.089 59.4213C 166.656 60.2103 167.609 60.6283 168.867 60.6283C 169.851 60.6283 170.656 60.4023 171.191 59.9843C 171.746 59.5383 172.097 58.7883 172.097 58.0623C 172.097 57.0273 171.464 56.2693 170.339 55.9563L 168.265 55.3943C 167.269 55.1203 166.906 54.7963 166.906 54.1523C 166.906 53.3003 167.64 52.7343 168.746 52.7343C 170.054 52.7343 170.789 53.3353 170.8 54.4213L 171.796 54.4293z"/>
<path style="stroke:none; fill-rule:evenodd; fill:#000000" d="M 180.097 51.9413L 179.097 51.9413L 179.097 58.8123L 174.75 51.9413L 173.601 51.9413L 173.601 60.3393L 174.601 60.3393L 174.601 53.5583L 178.902 60.3393L 180.097 60.3393L 180.097 51.9413z"/>
<path style="stroke:none; fill-rule:evenodd; fill:#000000" d="M 181.796 54.3163L 181.796 60.3393L 182.796 60.3393L 182.796 57.2063C 182.796 56.3433 183.007 55.7813 183.457 55.4453C 183.746 55.2263 184.027 55.1603 184.679 55.1483L 184.679 54.1833C 184.523 54.1633 184.445 54.1523 184.32 54.1523C 183.71 54.1523 183.246 54.5193 182.699 55.4133L 182.699 54.3243L 181.796 54.3163z"/>
<path style="stroke:none; fill-rule:evenodd; fill:#000000" d="M 190.722 51.9413C 189.605 53.4493 188.898 55.5423 188.898 57.3513C 188.898 59.1673 189.601 61.2613 190.722 62.7693L 191.336 62.7693C 190.347 61.1243 189.796 59.1913 189.796 57.3513C 189.796 55.5233 190.347 53.5783 191.336 51.9413L 190.722 51.9413z"/>
<path style="stroke:none; fill-rule:evenodd; fill:#000000" d="M 194.695 54.3433L 193.796 54.3433L 193.796 52.6753L 192.796 52.6753L 192.796 54.3433L 191.898 54.3433L 191.898 55.1403L 192.796 55.1403L 192.796 59.6873C 192.796 60.2923 193.199 60.6363 193.929 60.6363C 194.152 60.6363 194.378 60.6133 194.691 60.5543L 194.691 59.7183C 194.578 59.8083 194.441 59.8353 194.273 59.8353C 193.898 59.8353 193.793 59.7223 193.793 59.2923L 193.793 55.1403L 194.691 55.1403L 194.695 54.3433z"/>
<path style="stroke:none; fill-rule:evenodd; fill:#000000" d="M 198.132 54.1403C 196.429 54.1403 195.398 55.3553 195.398 57.3903C 195.398 59.4253 196.418 60.6403 198.148 60.6403C 199.851 60.6403 200.898 59.4293 200.898 57.4413C 200.898 55.3513 199.89 54.1483 198.14 54.1483L 198.132 54.1403zM 198.148 55.0423C 199.242 55.0423 199.898 55.9293 199.898 57.4253C 199.898 58.8393 199.222 59.7383 198.148 59.7383C 197.066 59.7383 196.398 58.8513 196.398 57.3903C 196.398 55.9413 197.062 55.0423 198.148 55.0423z"/>
<path style="stroke:none; fill-rule:evenodd; fill:#000000" d="M 202.195 54.3163L 202.195 60.3393L 203.195 60.3393L 203.195 56.9923C 203.195 55.7533 203.82 54.9413 204.785 54.9413C 205.523 54.9413 205.992 55.4023 205.992 56.1323L 205.992 60.3353L 206.992 60.3353L 206.992 55.7813C 206.992 54.7813 206.25 54.1363 205.089 54.1363C 204.199 54.1363 203.625 54.4803 203.097 55.3203L 203.097 54.3083L 202.195 54.3163z"/>
<path style="stroke:none; fill-rule:evenodd; fill:#000000" d="M 209.398 54.3433L 208.398 54.3433L 208.398 60.3433L 209.398 60.3433L 209.398 54.3433zM 209.398 51.9413L 208.398 51.9413L 208.398 53.1753L 209.398 53.1753L 209.398 51.9413z"/>
<path style="stroke:none; fill-rule:evenodd; fill:#000000" d="M 215.703 56.3473C 215.66 55.7613 215.535 55.3783 215.304 55.0423C 214.898 54.4803 214.179 54.1443 213.351 54.1443C 211.75 54.1443 210.703 55.4373 210.703 57.4493C 210.703 59.4023 211.726 60.6403 213.339 60.6403C 214.761 60.6403 215.66 59.7693 215.773 58.2773L 214.82 58.2773C 214.664 59.2533 214.175 59.7423 213.371 59.7423C 212.328 59.7423 211.703 58.8783 211.703 57.4523C 211.703 55.9453 212.312 55.0463 213.347 55.0463C 214.14 55.0463 214.64 55.5153 214.753 56.3513L 215.703 56.3473z"/>
<path style="stroke:none; fill-rule:evenodd; fill:#000000" d="M 225.339 59.7813C 225.234 59.8393 225.187 59.8393 225.128 59.8393C 224.789 59.8393 224.601 59.6673 224.601 59.3673L 224.601 55.8003C 224.601 54.7263 223.824 54.1443 222.351 54.1443C 221.484 54.1443 220.765 54.3983 220.363 54.8473C 220.089 55.1563 219.976 55.5033 219.953 56.1053L 220.898 56.1053C 220.976 55.3743 221.402 55.0423 222.285 55.0423C 223.128 55.0423 223.601 55.3633 223.601 55.9413L 223.601 56.1953C 223.601 56.5973 223.367 56.7693 222.625 56.8633C 221.3 57.0353 221.097 57.0813 220.738 57.2303C 220.054 57.5153 219.707 58.0583 219.707 58.8433C 219.707 59.9373 220.46 60.6283 221.671 60.6283C 222.425 60.6283 223.031 60.3553 223.707 59.7103C 223.773 60.3433 224.07 60.6283 224.687 60.6283C 224.878 60.6283 225.027 60.6053 225.336 60.5233L 225.339 59.7813zM 223.597 58.4803C 223.597 58.8083 223.507 59.0113 223.23 59.2853C 222.851 59.6483 222.394 59.8393 221.847 59.8393C 221.125 59.8393 220.699 59.4763 220.699 58.8473C 220.699 58.1993 221.109 57.8673 222.101 57.7143C 223.082 57.5743 223.281 57.5273 223.593 57.3743L 223.597 58.4803z"/>
<path style="stroke:none; fill-rule:evenodd; fill:#000000" d="M 231.003 56.3473C 230.96 55.7613 230.836 55.3783 230.605 55.0423C 230.199 54.4803 229.48 54.1443 228.652 54.1443C 227.05 54.1443 226.003 55.4373 226.003 57.4493C 226.003 59.4023 227.027 60.6403 228.64 60.6403C 230.062 60.6403 230.96 59.7693 231.074 58.2773L 230.121 58.2773C 229.964 59.2533 229.476 59.7423 228.671 59.7423C 227.628 59.7423 227.003 58.8783 227.003 57.4523C 227.003 55.9453 227.613 55.0463 228.648 55.0463C 229.441 55.0463 229.941 55.5153 230.054 56.3513L 231.003 56.3473z"/>
<path style="stroke:none; fill-rule:evenodd; fill:#000000" d="M 234.195 54.3433L 233.296 54.3433L 233.296 52.6753L 232.296 52.6753L 232.296 54.3433L 231.398 54.3433L 231.398 55.1403L 232.296 55.1403L 232.296 59.6873C 232.296 60.2923 232.699 60.6363 233.429 60.6363C 233.652 60.6363 233.878 60.6133 234.191 60.5543L 234.191 59.7183C 234.078 59.8083 233.941 59.8353 233.773 59.8353C 233.398 59.8353 233.293 59.7223 233.293 59.2923L 233.293 55.1403L 234.191 55.1403L 234.195 54.3433z"/>
<path style="stroke:none; fill-rule:evenodd; fill:#000000" d="M 235.554 62.7773C 236.683 61.2693 237.394 59.1753 237.394 57.3703C 237.394 55.5543 236.683 53.4603 235.554 51.9493L 234.937 51.9493C 235.941 53.5973 236.5 55.5273 236.5 57.3703C 236.5 59.1993 235.941 61.1443 234.937 62.7773L 235.554 62.7773z"/>
</g>
</svg>