<?xml version="1.0" encoding="UTF-8" standalone="no"?>
<svg
   xmlns:dc="http://purl.org/dc/elements/1.1/"
   xmlns:cc="http://creativecommons.org/ns#"
   xmlns:rdf="http://www.w3.org/1999/02/22-rdf-syntax-ns#"
   xmlns:svg="http://www.w3.org/2000/svg"
   xmlns="http://www.w3.org/2000/svg"
   xmlns:xlink="http://www.w3.org/1999/xlink"
   xmlns:sodipodi="http://sodipodi.sourceforge.net/DTD/sodipodi-0.dtd"
   xmlns:inkscape="http://www.inkscape.org/namespaces/inkscape"
   width="492.309"
   height="171.395"
   id="svg2"
   version="1.1"
   inkscape:version="0.48.1 r9760"
   sodipodi:docname="fig_intact_nonlin_rats.svg"
   inkscape:export-filename="/Users/oreilly/svn_docs/figs/fig_intact_nonlin_rats.png"
   inkscape:export-xdpi="150"
   inkscape:export-ydpi="150">
  <metadata
     id="metadata512">
    <rdf:RDF>
      <cc:Work
         rdf:about="">
        <dc:format>image/svg+xml</dc:format>
        <dc:type
           rdf:resource="http://purl.org/dc/dcmitype/StillImage" />
        <dc:title></dc:title>
      </cc:Work>
    </rdf:RDF>
  </metadata>
  <sodipodi:namedview
     pagecolor="#ffffff"
     bordercolor="#666666"
     borderopacity="1"
     objecttolerance="10"
     gridtolerance="10"
     guidetolerance="10"
     inkscape:pageopacity="0"
     inkscape:pageshadow="2"
     inkscape:window-width="1461"
     inkscape:window-height="981"
     id="namedview510"
     showgrid="false"
     inkscape:zoom="1.4621604"
     inkscape:cx="200.85784"
     inkscape:cy="77.839626"
     inkscape:window-x="0"
     inkscape:window-y="0"
     inkscape:window-maximized="0"
     inkscape:current-layer="svg2" />
  <defs
     id="defs4">
    <linearGradient
       id="linearGradient4527">
      <stop
         style="stop-color:#ff4444;stop-opacity:1;"
         offset="0"
         id="stop4529" />
      <stop
         style="stop-color:#fdfdfd;stop-opacity:1;"
         offset="1"
         id="stop4531" />
    </linearGradient>
    <linearGradient
       id="linearGradient4517">
      <stop
         style="stop-color:#3434ff;stop-opacity:1;"
         offset="0"
         id="stop4519" />
      <stop
         style="stop-color:#ffffff;stop-opacity:1;"
         offset="1"
         id="stop4521" />
    </linearGradient>
    <marker
       id="ArrowEnd"
       viewBox="0 0 10 10"
       refX="0"
       refY="5"
       markerUnits="strokeWidth"
       markerWidth="4"
       markerHeight="3"
       orient="auto">
      <path
         d="M 0 0 L 10 5 L 0 10 z"
         id="path7" />
    </marker>
    <marker
       id="ArrowStart"
       viewBox="0 0 10 10"
       refX="10"
       refY="5"
       markerUnits="strokeWidth"
       markerWidth="4"
       markerHeight="3"
       orient="auto">
      <path
         d="M 10 0 L 0 5 L 10 10 z"
         id="path10" />
    </marker>
    <linearGradient
       inkscape:collect="always"
       xlink:href="#linearGradient4517"
       id="linearGradient4523"
       x1="313.78202"
       y1="124.93"
       x2="357.27798"
       y2="124.93"
       gradientUnits="userSpaceOnUse" />
    <linearGradient
       inkscape:collect="always"
       xlink:href="#linearGradient4517"
       id="linearGradient4525"
       x1="67.10982"
       y1="107.678"
       x2="110.64498"
       y2="107.678"
       gradientUnits="userSpaceOnUse" />
    <linearGradient
       inkscape:collect="always"
       xlink:href="#linearGradient4527"
       id="linearGradient4533"
       x1="164.75803"
       y1="100.4745"
       x2="208.28899"
       y2="100.4745"
       gradientUnits="userSpaceOnUse" />
    <linearGradient
       inkscape:collect="always"
       xlink:href="#linearGradient4527"
       id="linearGradient4541"
       x1="411.74603"
       y1="112.334"
       x2="455.24197"
       y2="112.334"
       gradientUnits="userSpaceOnUse" />
  </defs>
  <rect
     style="fill:#ffffff;fill-opacity:1;fill-rule:nonzero;stroke:#ffffff;stroke-width:1;stroke-linejoin:round;stroke-miterlimit:10;stroke-opacity:1;stroke-dasharray:none;stroke-dashoffset:0"
     id="rect4543"
     width="502.68085"
     height="181.23866"
     x="-4.7874365"
     y="-3.0044684" />
  <path
     inkscape:connector-curvature="0"
     id="path14"
     d="m 335.531,160.516 0,-1.199"
     style="fill:none;stroke:#000000;stroke-width:1.91395998" />
  <path
     inkscape:connector-curvature="0"
     id="path16"
     d="m 433.496,160.516 0,-1.199"
     style="fill:none;stroke:#000000;stroke-width:1.91395998" />
  <path
     inkscape:connector-curvature="0"
     id="path18"
     d="m 335.531,18.567 0,1.199"
     style="fill:none;stroke:#000000;stroke-width:1.91395998" />
  <path
     inkscape:connector-curvature="0"
     id="path20"
     d="m 433.496,18.567 0,1.199"
     style="fill:none;stroke:#000000;stroke-width:1.91395998" />
  <path
     inkscape:connector-curvature="0"
     id="path22"
     d="m 335.531,160.516 0,-2.399"
     style="fill:none;stroke:#000000;stroke-width:1.91395998" />
  <path
     inkscape:connector-curvature="0"
     id="path24"
     d="m 433.496,160.516 0,-2.399"
     style="fill:none;stroke:#000000;stroke-width:1.91395998" />
  <path
     inkscape:connector-curvature="0"
     id="path26"
     d="m 335.531,18.567 0,2.398"
     style="fill:none;stroke:#000000;stroke-width:1.91395998" />
  <path
     inkscape:connector-curvature="0"
     id="path28"
     d="m 433.496,18.567 0,2.398"
     style="fill:none;stroke:#000000;stroke-width:1.91395998" />
  <path
     inkscape:connector-curvature="0"
     id="path30"
     d="m 321.801,171.199 1.598,0 0,-7.898 -1.598,0 0,7.898 z"
     style="fill:#000000;fill-rule:evenodd;stroke:none" />
  <path
     inkscape:connector-curvature="0"
     id="path32"
     d="m 324.801,165.399 0,5.796 1.5,0 0,-3.464 c 0,-0.684 0.484,-1.133 1.223,-1.133 0.648,0 0.972,0.351 0.972,1.035 l 0,3.559 1.5,0 0,-3.887 c 0,-1.278 -0.711,-2.008 -1.949,-2.008 -0.785,0 -1.312,0.281 -1.746,0.91 l 0,-0.808 -1.5,0 z"
     style="fill:#000000;fill-rule:evenodd;stroke:none" />
  <path
     inkscape:connector-curvature="0"
     id="path34"
     d="m 333.949,165.5 -0.847,0 0,-1.574 -1.5,0 0,1.574 -0.746,0 0,1 0.746,0 0,3.543 c 0,0.906 0.484,1.352 1.472,1.352 0.332,0 0.602,-0.028 0.872,-0.114 l 0,-1.011 c -0.153,0.015 -0.239,0.027 -0.348,0.027 -0.402,0 -0.5,-0.117 -0.5,-0.633 l 0,-3.16 0.848,0 0.003,-1.004 z"
     style="fill:#000000;fill-rule:evenodd;stroke:none" />
  <path
     inkscape:connector-curvature="0"
     id="path36"
     d="m 339.957,170.973 c -0.277,-0.242 -0.355,-0.403 -0.355,-0.703 l 0,-3.196 c 0,-1.172 -0.805,-1.769 -2.379,-1.769 -1.57,0 -2.391,0.66 -2.484,1.988 l 1.441,0 c 0.074,-0.598 0.32,-0.789 1.059,-0.789 0.574,0 0.863,0.191 0.863,0.574 0,0.192 -0.094,0.36 -0.254,0.446 -0.199,0.105 -0.199,0.105 -0.938,0.222 l -0.597,0.106 c -1.145,0.191 -1.7,0.777 -1.7,1.812 0,0.488 0.137,0.895 0.403,1.184 0.328,0.34 0.828,0.543 1.344,0.543 0.636,0 1.226,-0.274 1.75,-0.821 0,0.297 0.031,0.403 0.175,0.575 l 1.68,0 -0.008,-0.172 z m -1.859,-2.121 c 0,0.859 -0.426,1.347 -1.184,1.347 -0.5,0 -0.808,-0.261 -0.808,-0.687 0,-0.445 0.234,-0.656 0.851,-0.785 l 0.512,-0.094 c 0.394,-0.07 0.457,-0.094 0.629,-0.18 l 0,0.399 z"
     style="fill:#000000;fill-rule:evenodd;stroke:none" />
  <path
     inkscape:connector-curvature="0"
     id="path38"
     d="m 345.934,167.551 c -0.106,-1.406 -1.051,-2.25 -2.5,-2.25 -1.727,0 -2.735,1.129 -2.735,3.09 0,1.894 0.997,3.004 2.711,3.004 1.403,0 2.379,-0.852 2.52,-2.215 l -1.438,0 c -0.191,0.734 -0.492,1.015 -1.07,1.015 -0.762,0 -1.223,-0.683 -1.223,-1.804 0,-0.543 0.106,-1.055 0.29,-1.399 0.171,-0.32 0.503,-0.492 0.933,-0.492 0.609,0 0.899,0.289 1.07,1.051 l 1.442,0 z"
     style="fill:#000000;fill-rule:evenodd;stroke:none" />
  <path
     inkscape:connector-curvature="0"
     id="path40"
     d="m 349.551,165.5 -0.848,0 0,-1.574 -1.5,0 0,1.574 -0.746,0 0,1 0.746,0 0,3.543 c 0,0.906 0.485,1.352 1.473,1.352 0.332,0 0.602,-0.028 0.871,-0.114 l 0,-1.011 c -0.152,0.015 -0.238,0.027 -0.348,0.027 -0.402,0 -0.5,-0.117 -0.5,-0.633 l 0,-3.16 0.848,0 0.004,-1.004 z"
     style="fill:#000000;fill-rule:evenodd;stroke:none" />
  <path
     inkscape:connector-curvature="0"
     id="path42"
     d="m 431.801,167.598 0,3.597 1.598,0 0,-7.898 -1.598,0 0,3 -3.199,0 0,-3 -1.598,0 0,7.898 1.598,0 0,-3.597 3.199,0 z"
     style="fill:#000000;fill-rule:evenodd;stroke:none" />
  <path
     inkscape:connector-curvature="0"
     id="path44"
     d="m 436.598,163.297 -1.598,0 0,7.898 5.348,0 0,-1.296 -3.75,0 0,-6.602 z"
     style="fill:#000000;fill-rule:evenodd;stroke:none" />
  <path
     inkscape:connector-curvature="0"
     id="path46"
     d="m 286.75,160.516 1.196,0"
     style="fill:none;stroke:#000000;stroke-width:1.91395998" />
  <path
     inkscape:connector-curvature="0"
     id="path48"
     d="m 286.75,154.52 1.196,0"
     style="fill:none;stroke:#000000;stroke-width:1.91395998" />
  <path
     inkscape:connector-curvature="0"
     id="path50"
     d="m 286.75,148.918 1.196,0"
     style="fill:none;stroke:#000000;stroke-width:1.91395998" />
  <path
     inkscape:connector-curvature="0"
     id="path52"
     d="m 286.75,143.32 1.196,0"
     style="fill:none;stroke:#000000;stroke-width:1.91395998" />
  <path
     inkscape:connector-curvature="0"
     id="path54"
     d="m 286.75,137.723 1.196,0"
     style="fill:none;stroke:#000000;stroke-width:1.91395998" />
  <path
     inkscape:connector-curvature="0"
     id="path56"
     d="m 286.75,132.125 1.196,0"
     style="fill:none;stroke:#000000;stroke-width:1.91395998" />
  <path
     inkscape:connector-curvature="0"
     id="path58"
     d="m 286.75,126.129 1.196,0"
     style="fill:none;stroke:#000000;stroke-width:1.91395998" />
  <path
     inkscape:connector-curvature="0"
     id="path60"
     d="m 286.75,120.531 1.196,0"
     style="fill:none;stroke:#000000;stroke-width:1.91395998" />
  <path
     inkscape:connector-curvature="0"
     id="path62"
     d="m 286.75,114.934 1.196,0"
     style="fill:none;stroke:#000000;stroke-width:1.91395998" />
  <path
     inkscape:connector-curvature="0"
     id="path64"
     d="m 286.75,109.332 1.196,0"
     style="fill:none;stroke:#000000;stroke-width:1.91395998" />
  <path
     inkscape:connector-curvature="0"
     id="path66"
     d="m 286.75,103.735 1.196,0"
     style="fill:none;stroke:#000000;stroke-width:1.91395998" />
  <path
     inkscape:connector-curvature="0"
     id="path68"
     d="m 286.75,97.738 1.196,0"
     style="fill:none;stroke:#000000;stroke-width:1.91395998" />
  <path
     inkscape:connector-curvature="0"
     id="path70"
     d="m 286.75,92.141 1.196,0"
     style="fill:none;stroke:#000000;stroke-width:1.91395998" />
  <path
     inkscape:connector-curvature="0"
     id="path72"
     d="m 286.75,86.543 1.196,0"
     style="fill:none;stroke:#000000;stroke-width:1.91395998" />
  <path
     inkscape:connector-curvature="0"
     id="path74"
     d="m 286.75,80.945 1.196,0"
     style="fill:none;stroke:#000000;stroke-width:1.91395998" />
  <path
     inkscape:connector-curvature="0"
     id="path76"
     d="m 286.75,75.348 1.196,0"
     style="fill:none;stroke:#000000;stroke-width:1.91395998" />
  <path
     inkscape:connector-curvature="0"
     id="path78"
     d="m 286.75,69.75 1.196,0"
     style="fill:none;stroke:#000000;stroke-width:1.91395998" />
  <path
     inkscape:connector-curvature="0"
     id="path80"
     d="m 286.75,64.152 1.196,0"
     style="fill:none;stroke:#000000;stroke-width:1.91395998" />
  <path
     inkscape:connector-curvature="0"
     id="path82"
     d="m 286.75,58.152 1.196,0"
     style="fill:none;stroke:#000000;stroke-width:1.91395998" />
  <path
     inkscape:connector-curvature="0"
     id="path84"
     d="m 286.75,52.555 1.196,0"
     style="fill:none;stroke:#000000;stroke-width:1.91395998" />
  <path
     inkscape:connector-curvature="0"
     id="path86"
     d="m 286.75,46.957 1.196,0"
     style="fill:none;stroke:#000000;stroke-width:1.91395998" />
  <path
     inkscape:connector-curvature="0"
     id="path88"
     d="m 286.75,41.359 1.196,0"
     style="fill:none;stroke:#000000;stroke-width:1.91395998" />
  <path
     inkscape:connector-curvature="0"
     id="path90"
     d="m 286.75,35.359 1.196,0"
     style="fill:none;stroke:#000000;stroke-width:1.91395998" />
  <path
     inkscape:connector-curvature="0"
     id="path92"
     d="m 286.75,29.762 1.196,0"
     style="fill:none;stroke:#000000;stroke-width:1.91395998" />
  <path
     inkscape:connector-curvature="0"
     id="path94"
     d="m 286.75,24.164 1.196,0"
     style="fill:none;stroke:#000000;stroke-width:1.91395998" />
  <path
     inkscape:connector-curvature="0"
     id="path96"
     d="m 286.75,18.567 1.196,0"
     style="fill:none;stroke:#000000;stroke-width:1.91395998" />
  <path
     inkscape:connector-curvature="0"
     id="path98"
     d="m 482.278,160.516 -1.2,0"
     style="fill:none;stroke:#000000;stroke-width:1.91395998" />
  <path
     inkscape:connector-curvature="0"
     id="path100"
     d="m 482.278,154.52 -1.2,0"
     style="fill:none;stroke:#000000;stroke-width:1.91395998" />
  <path
     inkscape:connector-curvature="0"
     id="path102"
     d="m 482.278,148.918 -1.2,0"
     style="fill:none;stroke:#000000;stroke-width:1.91395998" />
  <path
     inkscape:connector-curvature="0"
     id="path104"
     d="m 482.278,143.32 -1.2,0"
     style="fill:none;stroke:#000000;stroke-width:1.91395998" />
  <path
     inkscape:connector-curvature="0"
     id="path106"
     d="m 482.278,137.723 -1.2,0"
     style="fill:none;stroke:#000000;stroke-width:1.91395998" />
  <path
     inkscape:connector-curvature="0"
     id="path108"
     d="m 482.278,132.125 -1.2,0"
     style="fill:none;stroke:#000000;stroke-width:1.91395998" />
  <path
     inkscape:connector-curvature="0"
     id="path110"
     d="m 482.278,126.129 -1.2,0"
     style="fill:none;stroke:#000000;stroke-width:1.91395998" />
  <path
     inkscape:connector-curvature="0"
     id="path112"
     d="m 482.278,120.531 -1.2,0"
     style="fill:none;stroke:#000000;stroke-width:1.91395998" />
  <path
     inkscape:connector-curvature="0"
     id="path114"
     d="m 482.278,114.934 -1.2,0"
     style="fill:none;stroke:#000000;stroke-width:1.91395998" />
  <path
     inkscape:connector-curvature="0"
     id="path116"
     d="m 482.278,109.332 -1.2,0"
     style="fill:none;stroke:#000000;stroke-width:1.91395998" />
  <path
     inkscape:connector-curvature="0"
     id="path118"
     d="m 482.278,103.735 -1.2,0"
     style="fill:none;stroke:#000000;stroke-width:1.91395998" />
  <path
     inkscape:connector-curvature="0"
     id="path120"
     d="m 482.278,97.738 -1.2,0"
     style="fill:none;stroke:#000000;stroke-width:1.91395998" />
  <path
     inkscape:connector-curvature="0"
     id="path122"
     d="m 482.278,92.141 -1.2,0"
     style="fill:none;stroke:#000000;stroke-width:1.91395998" />
  <path
     inkscape:connector-curvature="0"
     id="path124"
     d="m 482.278,86.543 -1.2,0"
     style="fill:none;stroke:#000000;stroke-width:1.91395998" />
  <path
     inkscape:connector-curvature="0"
     id="path126"
     d="m 482.278,80.945 -1.2,0"
     style="fill:none;stroke:#000000;stroke-width:1.91395998" />
  <path
     inkscape:connector-curvature="0"
     id="path128"
     d="m 482.278,75.348 -1.2,0"
     style="fill:none;stroke:#000000;stroke-width:1.91395998" />
  <path
     inkscape:connector-curvature="0"
     id="path130"
     d="m 482.278,69.75 -1.2,0"
     style="fill:none;stroke:#000000;stroke-width:1.91395998" />
  <path
     inkscape:connector-curvature="0"
     id="path132"
     d="m 482.278,64.152 -1.2,0"
     style="fill:none;stroke:#000000;stroke-width:1.91395998" />
  <path
     inkscape:connector-curvature="0"
     id="path134"
     d="m 482.278,58.152 -1.2,0"
     style="fill:none;stroke:#000000;stroke-width:1.91395998" />
  <path
     inkscape:connector-curvature="0"
     id="path136"
     d="m 482.278,52.555 -1.2,0"
     style="fill:none;stroke:#000000;stroke-width:1.91395998" />
  <path
     inkscape:connector-curvature="0"
     id="path138"
     d="m 482.278,46.957 -1.2,0"
     style="fill:none;stroke:#000000;stroke-width:1.91395998" />
  <path
     inkscape:connector-curvature="0"
     id="path140"
     d="m 482.278,41.359 -1.2,0"
     style="fill:none;stroke:#000000;stroke-width:1.91395998" />
  <path
     inkscape:connector-curvature="0"
     id="path142"
     d="m 482.278,35.359 -1.2,0"
     style="fill:none;stroke:#000000;stroke-width:1.91395998" />
  <path
     inkscape:connector-curvature="0"
     id="path144"
     d="m 482.278,29.762 -1.2,0"
     style="fill:none;stroke:#000000;stroke-width:1.91395998" />
  <path
     inkscape:connector-curvature="0"
     id="path146"
     d="m 482.278,24.164 -1.2,0"
     style="fill:none;stroke:#000000;stroke-width:1.91395998" />
  <path
     inkscape:connector-curvature="0"
     id="path148"
     d="m 482.278,18.567 -1.2,0"
     style="fill:none;stroke:#000000;stroke-width:1.91395998" />
  <path
     inkscape:connector-curvature="0"
     id="path150"
     d="m 286.75,160.516 2.399,0"
     style="fill:none;stroke:#000000;stroke-width:1.91395998" />
  <path
     inkscape:connector-curvature="0"
     id="path152"
     d="m 286.75,132.125 2.399,0"
     style="fill:none;stroke:#000000;stroke-width:1.91395998" />
  <path
     inkscape:connector-curvature="0"
     id="path154"
     d="m 286.75,103.735 2.399,0"
     style="fill:none;stroke:#000000;stroke-width:1.91395998" />
  <path
     inkscape:connector-curvature="0"
     id="path156"
     d="m 286.75,75.348 2.399,0"
     style="fill:none;stroke:#000000;stroke-width:1.91395998" />
  <path
     inkscape:connector-curvature="0"
     id="path158"
     d="m 286.75,46.957 2.399,0"
     style="fill:none;stroke:#000000;stroke-width:1.91395998" />
  <path
     inkscape:connector-curvature="0"
     id="path160"
     d="m 286.75,18.567 2.399,0"
     style="fill:none;stroke:#000000;stroke-width:1.91395998" />
  <path
     inkscape:connector-curvature="0"
     id="path162"
     d="m 482.278,160.516 -2.399,0"
     style="fill:none;stroke:#000000;stroke-width:1.91395998" />
  <path
     inkscape:connector-curvature="0"
     id="path164"
     d="m 482.278,132.125 -2.399,0"
     style="fill:none;stroke:#000000;stroke-width:1.91395998" />
  <path
     inkscape:connector-curvature="0"
     id="path166"
     d="m 482.278,103.735 -2.399,0"
     style="fill:none;stroke:#000000;stroke-width:1.91395998" />
  <path
     inkscape:connector-curvature="0"
     id="path168"
     d="m 482.278,75.348 -2.399,0"
     style="fill:none;stroke:#000000;stroke-width:1.91395998" />
  <path
     inkscape:connector-curvature="0"
     id="path170"
     d="m 482.278,46.957 -2.399,0"
     style="fill:none;stroke:#000000;stroke-width:1.91395998" />
  <path
     inkscape:connector-curvature="0"
     id="path172"
     d="m 482.278,18.567 -2.399,0"
     style="fill:none;stroke:#000000;stroke-width:1.91395998" />
  <path
     inkscape:connector-curvature="0"
     id="path174"
     d="m 276.949,154.899 c -0.695,0 -1.328,0.296 -1.718,0.796 -0.485,0.672 -0.727,1.704 -0.727,3.125 0,2.594 0.844,3.969 2.449,3.969 1.582,0 2.45,-1.375 2.45,-3.906 0,-1.496 -0.231,-2.492 -0.727,-3.191 -0.391,-0.512 -1.012,-0.797 -1.719,-0.797 l -0.008,0.004 z m 0,0.8 c 1.036,0 1.547,1.039 1.547,3.102 0,2.176 -0.5,3.195 -1.57,3.195 -1.012,0 -1.527,-1.058 -1.527,-3.164 0,-2.101 0.511,-3.133 1.547,-3.133 l 0.003,0 z"
     style="fill:#000000;fill-rule:evenodd;stroke:none" />
  <path
     inkscape:connector-curvature="0"
     id="path176"
     d="m 279.102,126.5 -3.918,0 -0.567,4.211 0.879,0 c 0.446,-0.527 0.813,-0.711 1.414,-0.711 1.032,0 1.688,0.699 1.688,1.828 0,1.098 -0.641,1.766 -1.684,1.766 -0.836,0 -1.347,-0.418 -1.574,-1.277 l -0.953,0 c 0.129,0.609 0.234,0.906 0.461,1.179 0.426,0.567 1.199,0.895 2.055,0.895 1.531,0 2.601,-1.102 2.601,-2.692 0,-1.484 -0.996,-2.504 -2.449,-2.504 -0.535,0 -0.961,0.125 -1.402,0.422 l 0.296,-2.222 3.157,0 -0.004,-0.895 z"
     style="fill:#000000;fill-rule:evenodd;stroke:none" />
  <path
     inkscape:connector-curvature="0"
     id="path178"
     d="m 270.801,100.414 0,5.481 0.898,0 0,-7.7 -0.613,0 c -0.328,1.184 -0.539,1.344 -1.98,1.532 l 0,0.683 1.695,0.004 z"
     style="fill:#000000;fill-rule:evenodd;stroke:none" />
  <path
     inkscape:connector-curvature="0"
     id="path180"
     d="m 276.949,98.199 c -0.695,0 -1.328,0.297 -1.718,0.797 -0.485,0.672 -0.727,1.703 -0.727,3.125 0,2.594 0.844,3.969 2.449,3.969 1.582,0 2.45,-1.375 2.45,-3.906 0,-1.496 -0.231,-2.492 -0.727,-3.192 -0.391,-0.511 -1.012,-0.797 -1.719,-0.797 l -0.008,0.004 z m 0,0.801 c 1.036,0 1.547,1.039 1.547,3.102 0,2.175 -0.5,3.195 -1.57,3.195 -1.012,0 -1.527,-1.059 -1.527,-3.164 0,-2.102 0.511,-3.133 1.547,-3.133 l 0.003,0 z"
     style="fill:#000000;fill-rule:evenodd;stroke:none" />
  <path
     inkscape:connector-curvature="0"
     id="path182"
     d="m 270.801,72.016 0,5.48 0.898,0 0,-7.699 -0.613,0 c -0.328,1.184 -0.539,1.344 -1.98,1.531 l 0,0.684 1.695,0.004 z"
     style="fill:#000000;fill-rule:evenodd;stroke:none" />
  <path
     inkscape:connector-curvature="0"
     id="path184"
     d="m 279.102,69.797 -3.918,0 -0.567,4.211 0.879,0 c 0.446,-0.527 0.813,-0.711 1.414,-0.711 1.032,0 1.688,0.699 1.688,1.828 0,1.098 -0.641,1.766 -1.684,1.766 -0.836,0 -1.347,-0.418 -1.574,-1.278 l -0.953,0 c 0.129,0.61 0.234,0.907 0.461,1.18 0.426,0.566 1.199,0.895 2.055,0.895 1.531,0 2.601,-1.102 2.601,-2.692 0,-1.484 -0.996,-2.504 -2.449,-2.504 -0.535,0 -0.961,0.125 -1.402,0.422 l 0.296,-2.222 3.157,0 -0.004,-0.895 z"
     style="fill:#000000;fill-rule:evenodd;stroke:none" />
  <path
     inkscape:connector-curvature="0"
     id="path186"
     d="m 273.446,48.199 -4.012,0 c 0.094,-0.632 0.437,-1.035 1.375,-1.593 l 1.074,-0.59 c 1.063,-0.59 1.613,-1.387 1.613,-2.336 0,-0.645 -0.257,-1.242 -0.711,-1.66 -0.449,-0.414 -1.007,-0.614 -1.73,-0.614 -0.965,0 -1.688,0.352 -2.106,1.008 -0.265,0.414 -0.386,0.899 -0.406,1.688 l 0.961,0 c 0.031,-0.539 0.098,-0.864 0.227,-1.125 0.25,-0.481 0.754,-0.774 1.332,-0.774 0.875,0 1.531,0.621 1.531,1.449 0,0.61 -0.359,1.133 -1.051,1.528 l -1.004,0.566 c -1.617,0.914 -2.086,1.645 -2.176,3.352 l 5.075,0 0.008,-0.899 z"
     style="fill:#000000;fill-rule:evenodd;stroke:none" />
  <path
     inkscape:connector-curvature="0"
     id="path188"
     d="m 276.949,41.399 c -0.695,0 -1.328,0.296 -1.718,0.796 -0.485,0.672 -0.727,1.704 -0.727,3.125 0,2.594 0.844,3.969 2.449,3.969 1.582,0 2.45,-1.375 2.45,-3.906 0,-1.496 -0.231,-2.492 -0.727,-3.191 -0.391,-0.512 -1.012,-0.797 -1.719,-0.797 l -0.008,0.004 z m 0,0.8 c 1.036,0 1.547,1.039 1.547,3.102 0,2.176 -0.5,3.195 -1.57,3.195 -1.012,0 -1.527,-1.058 -1.527,-3.164 0,-2.101 0.511,-3.133 1.547,-3.133 l 0.003,0 z"
     style="fill:#000000;fill-rule:evenodd;stroke:none" />
  <path
     inkscape:connector-curvature="0"
     id="path190"
     d="m 273.446,20.199 -4.012,0 c 0.094,-0.632 0.437,-1.035 1.375,-1.593 l 1.074,-0.59 c 1.063,-0.59 1.613,-1.387 1.613,-2.336 0,-0.645 -0.257,-1.242 -0.711,-1.66 -0.449,-0.414 -1.007,-0.614 -1.73,-0.614 -0.965,0 -1.688,0.352 -2.106,1.008 -0.265,0.414 -0.386,0.899 -0.406,1.688 l 0.961,0 c 0.031,-0.539 0.098,-0.864 0.227,-1.125 0.25,-0.481 0.754,-0.774 1.332,-0.774 0.875,0 1.531,0.621 1.531,1.449 0,0.61 -0.359,1.133 -1.051,1.528 l -1.004,0.566 c -1.617,0.914 -2.086,1.645 -2.176,3.352 l 5.075,0 0.008,-0.899 z"
     style="fill:#000000;fill-rule:evenodd;stroke:none" />
  <path
     inkscape:connector-curvature="0"
     id="path192"
     d="m 279.102,13.399 -3.918,0 -0.567,4.21 0.879,0 c 0.446,-0.527 0.813,-0.71 1.414,-0.71 1.032,0 1.688,0.699 1.688,1.828 0,1.097 -0.641,1.765 -1.684,1.765 -0.836,0 -1.347,-0.418 -1.574,-1.277 l -0.953,0 c 0.129,0.609 0.234,0.906 0.461,1.18 0.426,0.566 1.199,0.894 2.055,0.894 1.531,0 2.601,-1.101 2.601,-2.691 0,-1.485 -0.996,-2.504 -2.449,-2.504 -0.535,0 -0.961,0.125 -1.402,0.422 l 0.296,-2.223 3.157,0 -0.004,-0.894 z"
     style="fill:#000000;fill-rule:evenodd;stroke:none" />
  <path
     inkscape:connector-curvature="0"
     id="path194"
     d="m 257.801,112.692 1.598,-0.516 0,-1.66 -7.899,2.719 0,1.789 7.899,2.793 0,-1.649 -1.598,-0.527 0,-2.949 z m -1.301,0.441 0,2.051 -3.109,-1.024 3.109,-1.027 z"
     style="fill:#000000;fill-rule:evenodd;stroke:none" />
  <path
     inkscape:connector-curvature="0"
     id="path196"
     d="m 259.399,109.399 0,-3.536 c 0,-0.902 -0.172,-1.507 -0.571,-1.984 -0.398,-0.473 -1.07,-0.773 -1.699,-0.773 -0.777,0 -1.394,0.421 -1.918,1.312 -0.496,-0.73 -0.953,-1.016 -1.625,-1.016 -0.539,0 -1.113,0.266 -1.504,0.704 -0.398,0.457 -0.574,1 -0.574,1.832 l 0,3.461 7.891,0 z m -6.598,-1.602 0,-1.754 c 0,-0.742 0.332,-1.141 0.953,-1.141 0.609,0 0.942,0.399 0.942,1.141 l 0,1.754 -1.895,0 z m 3.199,0 0,-1.973 c 0,-0.804 0.363,-1.222 1.055,-1.222 0.676,0 1.043,0.418 1.043,1.222 l 0,1.973 -2.098,0 z"
     style="fill:#000000;fill-rule:evenodd;stroke:none" />
  <path
     inkscape:connector-curvature="0"
     id="path198"
     d="m 256.199,102.067 1.297,0 0,-5.438 -1.297,0 0,5.438 z"
     style="fill:#000000;fill-rule:evenodd;stroke:none" />
  <path
     inkscape:connector-curvature="0"
     id="path200"
     d="m 256,90.699 0,-3.738 -1.297,0 0,3.738 -1.898,0 0,-4.043 -1.297,0 0,5.641 7.898,0 0,-5.836 -1.296,0 0,4.234 -2.11,0.004 z"
     style="fill:#000000;fill-rule:evenodd;stroke:none" />
  <path
     inkscape:connector-curvature="0"
     id="path202"
     d="m 253.598,85.297 5.797,0 0,-1.5 -3.078,0 c -0.879,0 -1.317,-0.438 -1.317,-1.32 0,-0.16 0.004,-0.266 0.016,-0.473 l -1.516,0 c 0,0.086 0,0.137 0,0.18 0,0.687 0.442,1.289 1.211,1.609 l -1.113,0 0,1.504 z"
     style="fill:#000000;fill-rule:evenodd;stroke:none" />
  <path
     inkscape:connector-curvature="0"
     id="path204"
     d="m 253.598,81.098 5.797,0 0,-1.5 -3.078,0 c -0.879,0 -1.317,-0.438 -1.317,-1.321 0,-0.16 0.004,-0.265 0.016,-0.472 l -1.516,0 c 0,0.086 0,0.137 0,0.18 0,0.687 0.442,1.289 1.211,1.609 l -1.113,0 0,1.504 z"
     style="fill:#000000;fill-rule:evenodd;stroke:none" />
  <path
     inkscape:connector-curvature="0"
     id="path206"
     d="m 253.5,74.359 c 0,1.758 1.16,2.836 3.047,2.836 1.895,0 3.047,-1.074 3.047,-2.847 0,-1.75 -1.16,-2.848 -3.004,-2.848 -1.949,0 -3.09,1.055 -3.09,2.859 z m 1.199,-0.011 c 0,-0.817 0.735,-1.348 1.868,-1.348 1.078,0 1.824,0.551 1.824,1.348 0,0.804 -0.746,1.347 -1.848,1.347 -1.097,0 -1.847,-0.539 -1.847,-1.347 l 0.003,0 z"
     style="fill:#000000;fill-rule:evenodd;stroke:none" />
  <path
     inkscape:connector-curvature="0"
     id="path208"
     d="m 253.598,70.297 5.797,0 0,-1.5 -3.078,0 c -0.879,0 -1.317,-0.438 -1.317,-1.32 0,-0.16 0.004,-0.266 0.016,-0.473 l -1.516,0 c 0,0.086 0,0.137 0,0.18 0,0.687 0.442,1.289 1.211,1.609 l -1.113,0 0,1.504 z"
     style="fill:#000000;fill-rule:evenodd;stroke:none" />
  <path
     inkscape:connector-curvature="0"
     id="path210"
     d="m 255.449,61.348 c -1.21,0.019 -1.945,0.972 -1.945,2.543 0,1.48 0.731,2.402 1.906,2.402 0.379,0 0.711,-0.117 0.93,-0.324 0.199,-0.203 0.297,-0.391 0.477,-0.953 l 0.55,-1.809 c 0.114,-0.379 0.231,-0.508 0.465,-0.508 0.348,0 0.559,0.418 0.559,1.121 0,0.387 -0.067,0.7 -0.188,0.895 -0.105,0.16 -0.214,0.227 -0.504,0.289 l 0,1.477 c 1.239,-0.043 1.895,-0.977 1.895,-2.743 0,-0.804 -0.168,-1.418 -0.508,-1.851 -0.336,-0.43 -0.867,-0.688 -1.43,-0.688 -0.738,0 -1.218,0.379 -1.441,1.149 l -0.539,1.918 c -0.125,0.422 -0.211,0.527 -0.441,0.527 -0.317,0 -0.528,-0.348 -0.528,-0.879 0,-0.726 0.242,-1.086 0.746,-1.097 l -0.004,-1.469 z"
     style="fill:#000000;fill-rule:evenodd;stroke:none" />
  <path
     inkscape:connector-curvature="0"
     id="path212"
     d="m 324.11,6.5 0.515,1.59799 1.66,0 -2.718,-7.898985 -1.789,0 -2.793,7.898985 1.648,0 0.527,-1.59799 2.95,0 z m -0.446,-1.30099 -2.051,0 1.024,-3.10901 1.027,3.10901 z"
     style="fill:#000000;fill-rule:evenodd;stroke:none" />
  <path
     inkscape:connector-curvature="0"
     id="path214"
     d="m 327.199,2.297 0,5.79699 1.5,0 0,-3.46499 c 0,-0.70301 0.375,-1.133 1.004,-1.133 0.489,0 0.793,0.28501 0.793,0.75 l 0,3.84799 1.5,0 0,-3.46499 c 0,-0.70301 0.395,-1.133 1.059,-1.133 0.516,0 0.836,0.28501 0.836,0.75 l 0,3.84799 1.5,0 0,-4.10199 c 0,-1.125 -0.695,-1.79299 -1.871,-1.79299 -0.739,0 -1.262,0.25 -1.719,0.83599 -0.281,-0.531 -0.867,-0.83599 -1.598,-0.83599 -0.672,0 -1.105,0.21899 -1.609,0.79299 l 0,-0.69101 -1.395,-0.00399 z"
     style="fill:#000000;fill-rule:evenodd;stroke:none" />
  <path
     inkscape:connector-curvature="0"
     id="path216"
     d="m 336.699,0.199005 0,7.851985 1.5,0 0,-0.58999 c 0.368,0.57001 0.883,0.83999 1.622,0.83999 1.402,0 2.472,-1.30899 2.472,-3.04699 0,-0.77701 -0.238,-1.56601 -0.633,-2.11701 -0.402,-0.56298 -1.121,-0.92599 -1.839,-0.92599 -0.727,0 -1.254,0.25799 -1.622,0.824 l 0,-2.824001 -1.5,-0.011994 z M 339.5,3.5 c 0.758,0 1.297,0.72299 1.297,1.758 0,1.01199 -0.539,1.738 -1.297,1.738 -0.781,0 -1.297,-0.703 -1.297,-1.76901 C 338.203,4.215 338.731,3.5 339.5,3.5 z"
     style="fill:#000000;fill-rule:evenodd;stroke:none" />
  <path
     inkscape:connector-curvature="0"
     id="path218"
     d="m 344.899,2.26999 -1.5,0 0,5.828 1.5,0 0,-5.828 z m 0,-2.070985 -1.5,0 0,1.296995 1.5,0 0,-1.296995 z"
     style="fill:#000000;fill-rule:evenodd;stroke:none" />
  <path
     inkscape:connector-curvature="0"
     id="path220"
     d="m 350.098,2.297 0,0.89499 C 349.649,2.5 349.156,2.19501 348.496,2.19501 c -1.367,0 -2.394,1.332 -2.394,3.11398 0,1.789 0.937,2.98401 2.359,2.98401 0.672,0 1.078,-0.19101 1.637,-0.793 l 0,0.793 c 0,0.707 -0.527,1.19501 -1.281,1.19501 -0.571,0 -0.946,-0.24201 -1.067,-0.69501 l -1.562,0 c 0.008,0.465 0.179,0.785 0.566,1.117 0.461,0.387 1.102,0.575 1.992,0.575 1.743,0 2.754,-0.78999 2.754,-2.16099 l 0,-6.03501 -1.402,0.008 z M 348.821,3.5 c 0.746,0 1.304,0.754 1.304,1.789 0,1.01199 -0.543,1.707 -1.324,1.707 -0.703,0 -1.195,-0.69101 -1.195,-1.707 0,-1.05401 0.492,-1.789 1.218,-1.789 l -0.003,0 z"
     style="fill:#000000;fill-rule:evenodd;stroke:none" />
  <path
     inkscape:connector-curvature="0"
     id="path222"
     d="m 358.098,8.05499 0,-5.754 -1.5,0 0,3.57401 c 0,0.67599 -0.485,1.121 -1.223,1.121 -0.648,0 -0.972,-0.336 -0.972,-1.02301 l 0,-3.672 -1.5,0 0,4.004 c 0,1.26502 0.71,1.99201 1.949,1.99201 0.785,0 1.312,-0.28501 1.746,-0.926 l 0,0.67999 1.5,0.004 z"
     style="fill:#000000;fill-rule:evenodd;stroke:none" />
  <path
     inkscape:connector-curvature="0"
     id="path224"
     d="m 362.137,2.19901 c -1.758,0 -2.836,1.16 -2.836,3.04699 0,1.89499 1.074,3.047 2.848,3.047 1.75,0 2.847,-1.16 2.847,-3.004 0,-1.949 -1.054,-3.08999 -2.859,-3.08999 z m 0.012,1.19998 c 0.816,0 1.347,0.73401 1.347,1.867 0,1.078 -0.55,1.82401 -1.347,1.82401 -0.805,0 -1.348,-0.74601 -1.348,-1.848 0,-1.09701 0.539,-1.84701 1.348,-1.84701 l 0,0.004 z"
     style="fill:#000000;fill-rule:evenodd;stroke:none" />
  <path
     inkscape:connector-curvature="0"
     id="path226"
     d="m 371.301,8.05499 0,-5.754 -1.5,0 0,3.57401 c 0,0.67599 -0.484,1.121 -1.223,1.121 -0.648,0 -0.972,-0.336 -0.972,-1.02301 l 0,-3.672 -1.5,0 0,4.004 c 0,1.26502 0.711,1.99201 1.949,1.99201 0.785,0 1.312,-0.28501 1.746,-0.926 l 0,0.67999 1.5,0.004 z"
     style="fill:#000000;fill-rule:evenodd;stroke:none" />
  <path
     inkscape:connector-curvature="0"
     id="path228"
     d="m 377.551,4.14899 c -0.02,-1.211 -0.973,-1.94599 -2.543,-1.94599 -1.48,0 -2.402,0.73099 -2.402,1.90601 0,0.379 0.117,0.711 0.324,0.92999 0.203,0.19901 0.391,0.297 0.953,0.47699 l 1.809,0.551 c 0.379,0.113 0.507,0.23001 0.507,0.46402 0,0.34799 -0.418,0.55899 -1.121,0.55899 -0.386,0 -0.699,-0.06601 -0.894,-0.18799 -0.16,-0.10501 -0.227,-0.21402 -0.289,-0.50302 l -1.477,0 c 0.043,1.238 0.977,1.89401 2.742,1.89401 0.805,0 1.418,-0.168 1.852,-0.508 0.43,-0.33599 0.687,-0.867 0.687,-1.42901 0,-0.73899 -0.378,-1.219 -1.148,-1.44199 l -1.918,-0.539 c -0.422,-0.125 -0.527,-0.211 -0.527,-0.44501 0,-0.31698 0.347,-0.52798 0.879,-0.52798 0.726,0 1.086,0.24298 1.097,0.74698 l 1.469,0 z"
     style="fill:#000000;fill-rule:evenodd;stroke:none" />
  <path
     inkscape:connector-curvature="0"
     id="path230"
     d="m 383.5,4.69901 3.461,0 0,-1.297 -3.461,0 0,-1.89801 3.926,0 0,-1.296999 -5.523,0 0,7.898989 1.597,0 0,-3.40698 z"
     style="fill:#000000;fill-rule:evenodd;stroke:none" />
  <path
     inkscape:connector-curvature="0"
     id="path232"
     d="m 393.356,5.69901 c 0.007,-0.129 0.007,-0.18302 0.007,-0.25702 0,-0.58298 -0.085,-1.125 -0.226,-1.53598 C 392.75,2.84799 391.813,2.207 390.633,2.207 c -1.672,0 -2.695,1.19199 -2.695,3.125 0,1.84399 1.011,2.97299 2.664,2.97299 1.304,0 2.363,-0.72299 2.695,-1.83999 l -1.488,0 c -0.184,0.402 -0.602,0.64099 -1.153,0.64099 -0.429,0 -0.773,-0.168 -0.992,-0.461 C 389.528,6.44901 389.473,6.211 389.449,5.711 l 3.907,-0.01199 z m -3.887,-1 c 0.094,-0.86301 0.473,-1.297 1.141,-1.297 0.375,0 0.722,0.17999 0.937,0.47299 0.137,0.211 0.203,0.42999 0.234,0.82001 l -2.312,0.004 z"
     style="fill:#000000;fill-rule:evenodd;stroke:none" />
  <path
     inkscape:connector-curvature="0"
     id="path234"
     d="M 399.356,7.871 C 399.078,7.629 399,7.46899 399,7.168 l 0,-3.19501 c 0,-1.172 -0.804,-1.76999 -2.379,-1.76999 -1.57,0 -2.39,0.66001 -2.484,1.98899 l 1.441,0 c 0.075,-0.598 0.321,-0.78998 1.059,-0.78998 0.574,0 0.863,0.19198 0.863,0.57498 0,0.19101 -0.094,0.35901 -0.254,0.44501 -0.199,0.10501 -0.199,0.10501 -0.937,0.22299 L 395.711,4.75 c -1.144,0.19199 -1.699,0.77701 -1.699,1.81299 0,0.488 0.137,0.89401 0.402,1.18301 0.328,0.34 0.828,0.543 1.344,0.543 0.637,0 1.227,-0.27301 1.75,-0.82001 0,0.297 0.031,0.40201 0.176,0.57401 l 1.679,0 -0.007,-0.172 z M 397.5,5.75 c 0,0.85901 -0.426,1.34799 -1.183,1.34799 -0.5,0 -0.809,-0.26199 -0.809,-0.68799 0,-0.445 0.234,-0.656 0.852,-0.785 l 0.511,-0.09399 C 397.266,5.461 397.328,5.43799 397.5,5.35199 l 0,0.39801 z"
     style="fill:#000000;fill-rule:evenodd;stroke:none" />
  <path
     inkscape:connector-curvature="0"
     id="path236"
     d="m 402.949,2.39899 -0.847,0 0,-1.574985 -1.5,0 0,1.574985 -0.746,0 0,1 0.746,0 0,3.543 c 0,0.906 0.484,1.35101 1.472,1.35101 0.332,0 0.602,-0.02701 0.872,-0.11301 l 0,-1.01199 c -0.153,0.01599 -0.239,0.02701 -0.348,0.02701 -0.402,0 -0.5,-0.11701 -0.5,-0.63202 l 0,-3.16098 0.848,0 0.003,-1.00302 z"
     style="fill:#000000;fill-rule:evenodd;stroke:none" />
  <path
     inkscape:connector-curvature="0"
     id="path238"
     d="m 409.098,8.05499 0,-5.754 -1.5,0 0,3.57401 c 0,0.67599 -0.485,1.121 -1.223,1.121 -0.648,0 -0.972,-0.336 -0.972,-1.02301 l 0,-3.672 -1.5,0 0,4.004 c 0,1.26502 0.71,1.99201 1.949,1.99201 0.785,0 1.312,-0.28501 1.746,-0.926 l 0,0.67999 1.5,0.004 z"
     style="fill:#000000;fill-rule:evenodd;stroke:none" />
  <path
     inkscape:connector-curvature="0"
     id="path240"
     d="m 410.598,2.297 0,5.79699 1.5,0 0,-3.078 c 0,-0.879 0.437,-1.31698 1.32,-1.31698 0.16,0 0.266,0.00399 0.473,0.01599 l 0,-1.51599 c -0.086,0 -0.137,0 -0.18,0 -0.687,0 -1.289,0.44198 -1.609,1.21099 l 0,-1.113 -1.504,0 z"
     style="fill:#000000;fill-rule:evenodd;stroke:none" />
  <path
     inkscape:connector-curvature="0"
     id="path242"
     d="m 419.754,5.69901 c 0.008,-0.129 0.008,-0.18302 0.008,-0.25702 0,-0.58298 -0.086,-1.125 -0.227,-1.53598 -0.386,-1.05802 -1.324,-1.69901 -2.504,-1.69901 -1.671,0 -2.695,1.19199 -2.695,3.125 0,1.84399 1.012,2.97299 2.664,2.97299 1.305,0 2.363,-0.72299 2.696,-1.83999 l -1.489,0 c -0.183,0.402 -0.601,0.64099 -1.152,0.64099 -0.43,0 -0.774,-0.168 -0.992,-0.461 C 415.926,6.44901 415.871,6.211 415.848,5.711 l 3.906,-0.01199 z m -3.883,-1 c 0.094,-0.86301 0.473,-1.297 1.141,-1.297 0.375,0 0.723,0.17999 0.937,0.47299 0.137,0.211 0.204,0.42999 0.235,0.82001 l -2.313,0.004 z"
     style="fill:#000000;fill-rule:evenodd;stroke:none" />
  <path
     inkscape:connector-curvature="0"
     id="path244"
     d="m 422.899,6.5 -1.598,0 0,1.59799 1.598,0 0,-1.59799 z m 0,-4 -1.598,0 0,1.59799 1.598,0 0,-1.59799 z"
     style="fill:#000000;fill-rule:evenodd;stroke:none" />
  <path
     inkscape:connector-curvature="0"
     id="path246"
     d="m 429.199,5 1.864,0 c 0.703,0 1.008,0.27701 1.008,0.93399 0,0.06201 0,0.168 -0.008,0.30801 -0.008,0.20301 -0.008,0.39499 -0.008,0.512 0,0.72699 0.043,0.96499 0.25,1.33999 l 1.707,0 0,-0.293 C 433.766,7.66 433.668,7.5 433.668,7.15201 433.625,4.82401 433.582,4.715 432.578,4.285 c 0.883,-0.34301 1.325,-0.98401 1.325,-1.949 0,-0.629 -0.215,-1.19901 -0.59,-1.589998 -0.352,-0.367004 -0.848,-0.542999 -1.512,-0.542999 l -4.195,0 0,7.898987 1.597,0 L 429.199,5 z m 0,-1.30099 0,-2.19901 1.954,0 c 0.46,0 0.656,0.043 0.851,0.21899 0.192,0.172 0.289,0.461 0.289,0.85502 0,0.40298 -0.105,0.72698 -0.289,0.90298 -0.172,0.16 -0.387,0.21802 -0.851,0.21802 l -1.954,0.004 z"
     style="fill:#000000;fill-rule:evenodd;stroke:none" />
  <path
     inkscape:connector-curvature="0"
     id="path248"
     d="m 440.156,7.871 c -0.277,-0.242 -0.355,-0.40201 -0.355,-0.703 l 0,-3.19501 c 0,-1.172 -0.805,-1.76999 -2.379,-1.76999 -1.57,0 -2.391,0.66001 -2.484,1.98899 l 1.441,0 c 0.074,-0.598 0.32,-0.78998 1.059,-0.78998 0.574,0 0.863,0.19198 0.863,0.57498 0,0.19101 -0.094,0.35901 -0.254,0.44501 -0.199,0.10501 -0.199,0.10501 -0.937,0.22299 L 436.512,4.75 c -1.145,0.19199 -1.699,0.77701 -1.699,1.81299 0,0.488 0.136,0.89401 0.402,1.18301 0.328,0.34 0.828,0.543 1.344,0.543 0.637,0 1.226,-0.27301 1.75,-0.82001 0,0.297 0.031,0.40201 0.176,0.57401 l 1.679,0 -0.008,-0.172 z M 438.301,5.75 c 0,0.85901 -0.426,1.34799 -1.184,1.34799 -0.5,0 -0.808,-0.26199 -0.808,-0.68799 0,-0.445 0.234,-0.656 0.851,-0.785 l 0.512,-0.09399 c 0.395,-0.07001 0.457,-0.09302 0.629,-0.17902 l 0,0.39801 z"
     style="fill:#000000;fill-rule:evenodd;stroke:none" />
  <path
     inkscape:connector-curvature="0"
     id="path250"
     d="m 443.75,2.39899 -0.847,0 0,-1.574985 -1.5,0 0,1.574985 -0.747,0 0,1 0.747,0 0,3.543 c 0,0.906 0.484,1.35101 1.472,1.35101 0.332,0 0.602,-0.02701 0.871,-0.11301 l 0,-1.01199 c -0.152,0.01599 -0.238,0.02701 -0.347,0.02701 -0.403,0 -0.5,-0.11701 -0.5,-0.63202 l 0,-3.16098 0.847,0 0.004,-1.00302 z"
     style="fill:#000000;fill-rule:evenodd;stroke:none" />
  <path
     inkscape:connector-curvature="0"
     id="path252"
     d="m 449.551,4.14899 c -0.02,-1.211 -0.973,-1.94599 -2.543,-1.94599 -1.48,0 -2.402,0.73099 -2.402,1.90601 0,0.379 0.117,0.711 0.324,0.92999 0.203,0.19901 0.391,0.297 0.953,0.47699 l 1.809,0.551 c 0.379,0.113 0.507,0.23001 0.507,0.46402 0,0.34799 -0.418,0.55899 -1.121,0.55899 -0.386,0 -0.699,-0.06601 -0.894,-0.18799 -0.16,-0.10501 -0.227,-0.21402 -0.289,-0.50302 l -1.477,0 c 0.043,1.238 0.977,1.89401 2.742,1.89401 0.805,0 1.418,-0.168 1.852,-0.508 0.43,-0.33599 0.687,-0.867 0.687,-1.42901 0,-0.73899 -0.378,-1.219 -1.148,-1.44199 l -1.918,-0.539 c -0.422,-0.125 -0.527,-0.211 -0.527,-0.44501 0,-0.31698 0.347,-0.52798 0.879,-0.52798 0.726,0 1.086,0.24298 1.097,0.74698 l 1.469,0 z"
     style="fill:#000000;fill-rule:evenodd;stroke:none" />
  <path
     inkscape:connector-curvature="0"
     id="path254"
     d="m 314.739,160.516 41.582,0 0,-71.172 -41.582,0 0,71.172 z"
     style="fill:#ffffff;fill-rule:evenodd;stroke:none" />
  <path
     inkscape:connector-curvature="0"
     id="path256"
     d="m 314.739,160.516 41.582,0 0,-71.172 -41.582,0 0,71.172 z"
     style="fill:none;stroke:#ffffff;stroke-width:0" />
  <path
     inkscape:connector-curvature="0"
     id="path258"
     d="m 314.739,160.516 41.582,0 0,-71.172 -41.582,0 0,71.172 z"
     style="fill:none;stroke:#ffffff;stroke-width:1.91395998" />
  <path
     inkscape:connector-curvature="0"
     id="path260"
     d="m 412.703,160.516 41.582,0 0,-96.364 -41.582,0 0,96.364 z"
     style="fill:#ffffff;fill-rule:evenodd;stroke:none" />
  <path
     inkscape:connector-curvature="0"
     id="path262"
     d="m 412.703,160.516 41.582,0 0,-96.364 -41.582,0 0,96.364 z"
     style="fill:none;stroke:#ffffff;stroke-width:0" />
  <path
     inkscape:connector-curvature="0"
     id="path264"
     d="m 412.703,160.516 41.582,0 0,-96.364 -41.582,0 0,96.364 z"
     style="fill:none;stroke:#ffffff;stroke-width:1.91395998" />
  <path
     inkscape:connector-curvature="0"
     id="path266"
     d="m 314.739,160.516 41.582,0 0,-71.172 -41.582,0 0,71.172 z"
     style="fill:url(#linearGradient4523);stroke:#000000;stroke-width:1.91395998000000001;fill-opacity:1" />
  <path
     inkscape:connector-curvature="0"
     id="path268"
     d="m 412.703,160.516 41.582,0 0,-96.364 -41.582,0 0,96.364 z"
     style="fill:url(#linearGradient4541);stroke:#000000;stroke-width:1.91395998000000001;fill-opacity:1.0" />
  <path
     inkscape:connector-curvature="0"
     id="path270"
     d="m 335.531,103.735 0,-28.387"
     style="fill:none;stroke:#000000;stroke-width:1.91395998" />
  <path
     inkscape:connector-curvature="0"
     id="path272"
     d="m 433.496,80.945 0,-33.984"
     style="fill:none;stroke:#000000;stroke-width:1.91395998" />
  <path
     inkscape:connector-curvature="0"
     id="path274"
     d="m 331.133,103.735 9.195,0"
     style="fill:none;stroke:#000000;stroke-width:1.91395998" />
  <path
     inkscape:connector-curvature="0"
     id="path276"
     d="m 331.133,75.348 9.195,0"
     style="fill:none;stroke:#000000;stroke-width:1.91395998" />
  <path
     inkscape:connector-curvature="0"
     id="path278"
     d="m 428.699,80.945 9.196,0"
     style="fill:none;stroke:#000000;stroke-width:1.91395998" />
  <path
     inkscape:connector-curvature="0"
     id="path280"
     d="m 428.699,46.957 9.196,0"
     style="fill:none;stroke:#000000;stroke-width:1.91395998" />
  <path
     inkscape:connector-curvature="0"
     id="path282"
     d="m 286.75,160.516 195.528,0 0,-141.946 -195.528,0 0,141.946 z"
     style="fill:none;stroke:#000000;stroke-width:1.91395998" />
  <path
     inkscape:connector-curvature="0"
     id="path284"
     d="m 88.8748,160.504 0,-1.199"
     style="fill:none;stroke:#000000;stroke-width:1.91395998" />
  <path
     inkscape:connector-curvature="0"
     id="path286"
     d="m 186.524,160.504 0,-1.199"
     style="fill:none;stroke:#000000;stroke-width:1.91395998" />
  <path
     inkscape:connector-curvature="0"
     id="path288"
     d="m 88.8748,18.43 0,1.199"
     style="fill:none;stroke:#000000;stroke-width:1.91395998" />
  <path
     inkscape:connector-curvature="0"
     id="path290"
     d="m 186.524,18.43 0,1.199"
     style="fill:none;stroke:#000000;stroke-width:1.91395998" />
  <path
     inkscape:connector-curvature="0"
     id="path292"
     d="m 88.8748,160.504 0,-2.398"
     style="fill:none;stroke:#000000;stroke-width:1.91395998" />
  <path
     inkscape:connector-curvature="0"
     id="path294"
     d="m 186.524,160.504 0,-2.398"
     style="fill:none;stroke:#000000;stroke-width:1.91395998" />
  <path
     inkscape:connector-curvature="0"
     id="path296"
     d="m 88.8748,18.43 0,2.398"
     style="fill:none;stroke:#000000;stroke-width:1.91395998" />
  <path
     inkscape:connector-curvature="0"
     id="path298"
     d="m 186.524,18.43 0,2.398"
     style="fill:none;stroke:#000000;stroke-width:1.91395998" />
  <path
     inkscape:connector-curvature="0"
     id="path300"
     d="m 74.8008,171.199 1.598,0 0,-7.898 -1.598,0 0,7.898 z"
     style="fill:#000000;fill-rule:evenodd;stroke:none" />
  <path
     inkscape:connector-curvature="0"
     id="path302"
     d="m 77.8008,165.399 0,5.796 1.5,0 0,-3.464 c 0,-0.684 0.484,-1.133 1.223,-1.133 0.648,0 0.972,0.351 0.972,1.035 l 0,3.559 1.5,0 0,-3.887 c 0,-1.278 -0.711,-2.008 -1.949,-2.008 -0.785,0 -1.312,0.281 -1.746,0.906 l 0,-0.804 -1.5,0 z"
     style="fill:#000000;fill-rule:evenodd;stroke:none" />
  <path
     inkscape:connector-curvature="0"
     id="path304"
     d="m 86.9488,165.5 -0.851,0 0,-1.582 -1.5,0 0,1.582 -0.746,0 0,1 0.746,0 0,3.543 c 0,0.906 0.484,1.352 1.476,1.352 0.332,0 0.602,-0.028 0.872,-0.114 l 0,-1.011 c -0.153,0.019 -0.239,0.027 -0.348,0.027 -0.402,0 -0.5,-0.117 -0.5,-0.633 l 0,-3.16 0.851,0 0,-1.004 z"
     style="fill:#000000;fill-rule:evenodd;stroke:none" />
  <path
     inkscape:connector-curvature="0"
     id="path306"
     d="m 92.9608,170.973 c -0.281,-0.242 -0.359,-0.403 -0.359,-0.703 l 0,-3.196 c 0,-1.172 -0.805,-1.769 -2.379,-1.769 -1.57,0 -2.387,0.656 -2.484,1.984 l 1.441,0 c 0.074,-0.594 0.32,-0.785 1.055,-0.785 0.574,0 0.863,0.191 0.863,0.574 0,0.192 -0.094,0.36 -0.254,0.446 -0.199,0.105 -0.199,0.105 -0.941,0.222 l -0.598,0.106 c -1.145,0.191 -1.699,0.777 -1.699,1.812 0,0.488 0.136,0.895 0.402,1.184 0.328,0.34 0.828,0.543 1.344,0.543 0.637,0 1.226,-0.274 1.75,-0.821 0,0.297 0.031,0.403 0.176,0.575 l 1.683,0 0,-0.172 z m -1.863,-2.125 c 0,0.859 -0.426,1.347 -1.184,1.347 -0.5,0 -0.808,-0.265 -0.808,-0.687 0,-0.445 0.234,-0.656 0.851,-0.785 l 0.512,-0.094 c 0.394,-0.074 0.457,-0.094 0.629,-0.18 l 0,0.399 z"
     style="fill:#000000;fill-rule:evenodd;stroke:none" />
  <path
     inkscape:connector-curvature="0"
     id="path308"
     d="m 98.9418,167.547 c -0.106,-1.402 -1.051,-2.246 -2.5,-2.246 -1.727,0 -2.735,1.129 -2.735,3.09 0,1.894 0.996,3.004 2.715,3.004 1.406,0 2.383,-0.856 2.524,-2.219 l -1.438,0 c -0.191,0.734 -0.492,1.019 -1.074,1.019 -0.762,0 -1.223,-0.683 -1.223,-1.804 0,-0.543 0.106,-1.059 0.289,-1.399 0.172,-0.32 0.504,-0.488 0.934,-0.488 0.609,0 0.902,0.285 1.074,1.047 l 1.434,-0.004 z"
     style="fill:#000000;fill-rule:evenodd;stroke:none" />
  <path
     inkscape:connector-curvature="0"
     id="path310"
     d="m 102.551,165.5 -0.852,0 0,-1.582 -1.5,0 0,1.582 -0.7462,0 0,1 0.7462,0 0,3.543 c 0,0.906 0.485,1.352 1.477,1.352 0.332,0 0.602,-0.028 0.871,-0.114 l 0,-1.011 c -0.152,0.019 -0.238,0.027 -0.348,0.027 -0.402,0 -0.5,-0.117 -0.5,-0.633 l 0,-3.16 0.852,0 0,-1.004 z"
     style="fill:#000000;fill-rule:evenodd;stroke:none" />
  <path
     inkscape:connector-curvature="0"
     id="path312"
     d="m 184.801,167.598 0,3.597 1.598,0 0,-7.898 -1.598,0 0,2.898 -3.199,0 0,-2.898 -1.598,0 0,7.898 1.598,0 0,-3.597 3.199,0 z"
     style="fill:#000000;fill-rule:evenodd;stroke:none" />
  <path
     inkscape:connector-curvature="0"
     id="path314"
     d="m 189.598,163.297 -1.598,0 0,7.898 5.356,0 0,-1.398 -3.754,0 -0.004,-6.5 z"
     style="fill:#000000;fill-rule:evenodd;stroke:none" />
  <path
     inkscape:connector-curvature="0"
     id="path316"
     d="m 39.6485,160.504 1.1992,0"
     style="fill:none;stroke:#000000;stroke-width:1.91395998" />
  <path
     inkscape:connector-curvature="0"
     id="path318"
     d="m 39.6485,151.297 1.1992,0"
     style="fill:none;stroke:#000000;stroke-width:1.91395998" />
  <path
     inkscape:connector-curvature="0"
     id="path320"
     d="m 39.6485,142.492 1.1992,0"
     style="fill:none;stroke:#000000;stroke-width:1.91395998" />
  <path
     inkscape:connector-curvature="0"
     id="path322"
     d="m 39.6485,133.692 1.1992,0"
     style="fill:none;stroke:#000000;stroke-width:1.91395998" />
  <path
     inkscape:connector-curvature="0"
     id="path324"
     d="m 39.6485,124.887 1.1992,0"
     style="fill:none;stroke:#000000;stroke-width:1.91395998" />
  <path
     inkscape:connector-curvature="0"
     id="path326"
     d="m 39.6485,116.082 1.1992,0"
     style="fill:none;stroke:#000000;stroke-width:1.91395998" />
  <path
     inkscape:connector-curvature="0"
     id="path328"
     d="m 39.6485,107.277 1.1992,0"
     style="fill:none;stroke:#000000;stroke-width:1.91395998" />
  <path
     inkscape:connector-curvature="0"
     id="path330"
     d="m 39.6485,98.07 1.1992,0"
     style="fill:none;stroke:#000000;stroke-width:1.91395998" />
  <path
     inkscape:connector-curvature="0"
     id="path332"
     d="m 39.6485,89.266 1.1992,0"
     style="fill:none;stroke:#000000;stroke-width:1.91395998" />
  <path
     inkscape:connector-curvature="0"
     id="path334"
     d="m 39.6485,80.461 1.1992,0"
     style="fill:none;stroke:#000000;stroke-width:1.91395998" />
  <path
     inkscape:connector-curvature="0"
     id="path336"
     d="m 39.6485,71.656 1.1992,0"
     style="fill:none;stroke:#000000;stroke-width:1.91395998" />
  <path
     inkscape:connector-curvature="0"
     id="path338"
     d="m 39.6485,62.856 1.1992,0"
     style="fill:none;stroke:#000000;stroke-width:1.91395998" />
  <path
     inkscape:connector-curvature="0"
     id="path340"
     d="m 39.6485,54.047 1.1992,0"
     style="fill:none;stroke:#000000;stroke-width:1.91395998" />
  <path
     inkscape:connector-curvature="0"
     id="path342"
     d="m 39.6485,44.844 1.1992,0"
     style="fill:none;stroke:#000000;stroke-width:1.91395998" />
  <path
     inkscape:connector-curvature="0"
     id="path344"
     d="m 39.6485,36.039 1.1992,0"
     style="fill:none;stroke:#000000;stroke-width:1.91395998" />
  <path
     inkscape:connector-curvature="0"
     id="path346"
     d="m 39.6485,27.235 1.1992,0"
     style="fill:none;stroke:#000000;stroke-width:1.91395998" />
  <path
     inkscape:connector-curvature="0"
     id="path348"
     d="m 39.6485,18.43 1.1992,0"
     style="fill:none;stroke:#000000;stroke-width:1.91395998" />
  <path
     inkscape:connector-curvature="0"
     id="path350"
     d="m 235.75,160.504 -1.199,0"
     style="fill:none;stroke:#000000;stroke-width:1.91395998" />
  <path
     inkscape:connector-curvature="0"
     id="path352"
     d="m 235.75,151.297 -1.199,0"
     style="fill:none;stroke:#000000;stroke-width:1.91395998" />
  <path
     inkscape:connector-curvature="0"
     id="path354"
     d="m 235.75,142.492 -1.199,0"
     style="fill:none;stroke:#000000;stroke-width:1.91395998" />
  <path
     inkscape:connector-curvature="0"
     id="path356"
     d="m 235.75,133.692 -1.199,0"
     style="fill:none;stroke:#000000;stroke-width:1.91395998" />
  <path
     inkscape:connector-curvature="0"
     id="path358"
     d="m 235.75,124.887 -1.199,0"
     style="fill:none;stroke:#000000;stroke-width:1.91395998" />
  <path
     inkscape:connector-curvature="0"
     id="path360"
     d="m 235.75,116.082 -1.199,0"
     style="fill:none;stroke:#000000;stroke-width:1.91395998" />
  <path
     inkscape:connector-curvature="0"
     id="path362"
     d="m 235.75,107.277 -1.199,0"
     style="fill:none;stroke:#000000;stroke-width:1.91395998" />
  <path
     inkscape:connector-curvature="0"
     id="path364"
     d="m 235.75,98.07 -1.199,0"
     style="fill:none;stroke:#000000;stroke-width:1.91395998" />
  <path
     inkscape:connector-curvature="0"
     id="path366"
     d="m 235.75,89.266 -1.199,0"
     style="fill:none;stroke:#000000;stroke-width:1.91395998" />
  <path
     inkscape:connector-curvature="0"
     id="path368"
     d="m 235.75,80.461 -1.199,0"
     style="fill:none;stroke:#000000;stroke-width:1.91395998" />
  <path
     inkscape:connector-curvature="0"
     id="path370"
     d="m 235.75,71.656 -1.199,0"
     style="fill:none;stroke:#000000;stroke-width:1.91395998" />
  <path
     inkscape:connector-curvature="0"
     id="path372"
     d="m 235.75,62.856 -1.199,0"
     style="fill:none;stroke:#000000;stroke-width:1.91395998" />
  <path
     inkscape:connector-curvature="0"
     id="path374"
     d="m 235.75,54.047 -1.199,0"
     style="fill:none;stroke:#000000;stroke-width:1.91395998" />
  <path
     inkscape:connector-curvature="0"
     id="path376"
     d="m 235.75,44.844 -1.199,0"
     style="fill:none;stroke:#000000;stroke-width:1.91395998" />
  <path
     inkscape:connector-curvature="0"
     id="path378"
     d="m 235.75,36.039 -1.199,0"
     style="fill:none;stroke:#000000;stroke-width:1.91395998" />
  <path
     inkscape:connector-curvature="0"
     id="path380"
     d="m 235.75,27.235 -1.199,0"
     style="fill:none;stroke:#000000;stroke-width:1.91395998" />
  <path
     inkscape:connector-curvature="0"
     id="path382"
     d="m 235.75,18.43 -1.199,0"
     style="fill:none;stroke:#000000;stroke-width:1.91395998" />
  <path
     inkscape:connector-curvature="0"
     id="path384"
     d="m 39.6485,160.504 2.3984,0"
     style="fill:none;stroke:#000000;stroke-width:1.91395998" />
  <path
     inkscape:connector-curvature="0"
     id="path386"
     d="m 39.6485,116.082 2.3984,0"
     style="fill:none;stroke:#000000;stroke-width:1.91395998" />
  <path
     inkscape:connector-curvature="0"
     id="path388"
     d="m 39.6485,71.656 2.3984,0"
     style="fill:none;stroke:#000000;stroke-width:1.91395998" />
  <path
     inkscape:connector-curvature="0"
     id="path390"
     d="m 39.6485,27.235 2.3984,0"
     style="fill:none;stroke:#000000;stroke-width:1.91395998" />
  <path
     inkscape:connector-curvature="0"
     id="path392"
     d="m 235.75,160.504 -2.398,0"
     style="fill:none;stroke:#000000;stroke-width:1.91395998" />
  <path
     inkscape:connector-curvature="0"
     id="path394"
     d="m 235.75,116.082 -2.398,0"
     style="fill:none;stroke:#000000;stroke-width:1.91395998" />
  <path
     inkscape:connector-curvature="0"
     id="path396"
     d="m 235.75,71.656 -2.398,0"
     style="fill:none;stroke:#000000;stroke-width:1.91395998" />
  <path
     inkscape:connector-curvature="0"
     id="path398"
     d="m 235.75,27.235 -2.398,0"
     style="fill:none;stroke:#000000;stroke-width:1.91395998" />
  <path
     inkscape:connector-curvature="0"
     id="path400"
     d="m 20.5508,154.899 c -0.6953,0 -1.3281,0.296 -1.7188,0.796 -0.4843,0.672 -0.7265,1.704 -0.7265,3.125 0,2.594 0.8437,3.973 2.4492,3.973 1.582,0 2.4492,-1.379 2.4492,-3.906 0,-1.496 -0.2304,-2.492 -0.7265,-3.192 -0.3907,-0.511 -1.0118,-0.796 -1.7188,-0.796 l -0.0078,0 z m 0,0.8 c 1.0352,0 1.5469,1.039 1.5469,3.102 0,2.176 -0.5,3.195 -1.5703,3.195 -1.0118,0 -1.5274,-1.062 -1.5274,-3.164 0,-2.101 0.5117,-3.133 1.5469,-3.133 l 0.0039,0 z"
     style="fill:#000000;fill-rule:evenodd;stroke:none" />
  <path
     inkscape:connector-curvature="0"
     id="path402"
     d="m 24.5977,162.598 1.0976,0 0,-1.098 -1.0976,0 0,1.098 z"
     style="fill:#000000;fill-rule:evenodd;stroke:none" />
  <path
     inkscape:connector-curvature="0"
     id="path404"
     d="m 29.6485,154.899 c -0.6954,0 -1.3282,0.296 -1.7188,0.796 -0.4844,0.672 -0.7266,1.704 -0.7266,3.125 0,2.594 0.8438,3.973 2.4493,3.973 1.582,0 2.4492,-1.379 2.4492,-3.906 0,-1.496 -0.2305,-2.492 -0.7266,-3.192 -0.3906,-0.511 -1.0117,-0.796 -1.7187,-0.796 l -0.0078,0 z m 0,0.8 c 1.0351,0 1.5468,1.039 1.5468,3.102 0,2.176 -0.5,3.195 -1.5703,3.195 -1.0117,0 -1.5273,-1.062 -1.5273,-3.164 0,-2.101 0.5117,-3.133 1.5469,-3.133 l 0.0039,0 z"
     style="fill:#000000;fill-rule:evenodd;stroke:none" />
  <path
     inkscape:connector-curvature="0"
     id="path406"
     d="m 20.5508,110.5 c -0.6953,0 -1.3281,0.297 -1.7188,0.797 -0.4843,0.672 -0.7265,1.703 -0.7265,3.125 0,2.594 0.8437,3.973 2.4492,3.973 1.582,0 2.4492,-1.379 2.4492,-3.907 0,-1.496 -0.2304,-2.492 -0.7265,-3.191 -0.3907,-0.512 -1.0118,-0.797 -1.7188,-0.797 l -0.0078,0 z m 0,0.797 c 1.0352,0 1.5469,1.039 1.5469,3.102 0,2.175 -0.5,3.195 -1.5703,3.195 -1.0118,0 -1.5274,-1.063 -1.5274,-3.164 0,-2.102 0.5117,-3.133 1.5469,-3.133 l 0.0039,0 z"
     style="fill:#000000;fill-rule:evenodd;stroke:none" />
  <path
     inkscape:connector-curvature="0"
     id="path408"
     d="m 24.5977,118.199 1.0976,0 0,-1.097 -1.0976,0 0,1.097 z"
     style="fill:#000000;fill-rule:evenodd;stroke:none" />
  <path
     inkscape:connector-curvature="0"
     id="path410"
     d="m 31.8008,110.5 -3.918,0 -0.5664,4.207 0.8789,0 c 0.4453,-0.523 0.8125,-0.707 1.4141,-0.707 1.0312,0 1.6836,0.699 1.6836,1.828 0,1.098 -0.6406,1.766 -1.6836,1.766 -0.8359,0 -1.3477,-0.418 -1.5742,-1.277 l -0.9532,0 c 0.129,0.609 0.2344,0.906 0.461,1.179 0.4258,0.567 1.1992,0.895 2.0547,0.895 1.5312,0 2.6015,-1.102 2.6015,-2.692 0,-1.484 -0.9961,-2.504 -2.4492,-2.504 -0.5312,0 -0.9609,0.125 -1.4023,0.418 l 0.2969,-2.218 3.1562,0 0,-0.895 z"
     style="fill:#000000;fill-rule:evenodd;stroke:none" />
  <path
     inkscape:connector-curvature="0"
     id="path412"
     d="m 20.3985,68.317 0,5.48 0.8984,0 0,-7.699 -0.6133,0 c -0.3281,1.183 -0.539,1.347 -1.9805,1.531 l 0,0.684 1.6954,0.004 z"
     style="fill:#000000;fill-rule:evenodd;stroke:none" />
  <path
     inkscape:connector-curvature="0"
     id="path414"
     d="m 24.5977,73.797 1.0976,0 0,-1.098 -1.0976,0 0,1.098 z"
     style="fill:#000000;fill-rule:evenodd;stroke:none" />
  <path
     inkscape:connector-curvature="0"
     id="path416"
     d="m 29.6485,66.098 c -0.6954,0 -1.3282,0.297 -1.7188,0.797 -0.4844,0.672 -0.7266,1.703 -0.7266,3.125 0,2.593 0.8438,3.972 2.4493,3.972 1.582,0 2.4492,-1.379 2.4492,-3.906 0,-1.496 -0.2305,-2.492 -0.7266,-3.191 -0.3906,-0.512 -1.0117,-0.797 -1.7187,-0.797 l -0.0078,0 z m 0,0.801 c 1.0351,0 1.5468,1.039 1.5468,3.101 0,2.176 -0.5,3.195 -1.5703,3.195 -1.0117,0 -1.5273,-1.062 -1.5273,-3.164 0,-2.101 0.5117,-3.132 1.5469,-3.132 l 0.0039,0 z"
     style="fill:#000000;fill-rule:evenodd;stroke:none" />
  <path
     inkscape:connector-curvature="0"
     id="path418"
     d="m 20.3985,23.914 0,5.481 0.8984,0 0,-7.7 -0.6133,0 c -0.3281,1.184 -0.539,1.348 -1.9805,1.532 l 0,0.683 1.6954,0.004 z"
     style="fill:#000000;fill-rule:evenodd;stroke:none" />
  <path
     inkscape:connector-curvature="0"
     id="path420"
     d="m 24.5977,29.399 1.0976,0 0,-1.098 -1.0976,0 0,1.098 z"
     style="fill:#000000;fill-rule:evenodd;stroke:none" />
  <path
     inkscape:connector-curvature="0"
     id="path422"
     d="m 31.8008,21.699 -3.918,0 -0.5664,4.207 0.8789,0 c 0.4453,-0.523 0.8125,-0.707 1.4141,-0.707 1.0312,0 1.6836,0.7 1.6836,1.828 0,1.098 -0.6406,1.766 -1.6836,1.766 -0.8359,0 -1.3477,-0.418 -1.5742,-1.277 l -0.9532,0 c 0.129,0.609 0.2344,0.906 0.461,1.179 0.4258,0.567 1.1992,0.895 2.0547,0.895 1.5312,0 2.6015,-1.102 2.6015,-2.691 0,-1.485 -0.9961,-2.504 -2.4492,-2.504 -0.5312,0 -0.9609,0.125 -1.4023,0.418 l 0.2969,-2.219 3.1562,0 0,-0.895 z"
     style="fill:#000000;fill-rule:evenodd;stroke:none" />
  <path
     inkscape:connector-curvature="0"
     id="path424"
     d="m 4.5,115.199 0,-3.742 -1.3984,0 0,3.742 -1.6992,0 0,-4.047 -1.39850138,0 0,5.645 7.89850138,0 0,-5.84 -1.3985,0 0,4.242 -2.0039,0 z"
     style="fill:#000000;fill-rule:evenodd;stroke:none" />
  <path
     inkscape:connector-curvature="0"
     id="path426"
     d="m 2.0977,109.797 5.7969,0 0,-1.5 -3.0782,0 c -0.8789,0 -1.3164,-0.438 -1.3164,-1.32 0,-0.16 0,-0.266 0.0117,-0.473 l -1.5117,0 c 0,0.086 0,0.137 0,0.18 0,0.687 0.4414,1.289 1.207,1.613 l -1.1093,0 0,1.5 z"
     style="fill:#000000;fill-rule:evenodd;stroke:none" />
  <path
     inkscape:connector-curvature="0"
     id="path428"
     d="m 2.0977,105.598 5.7969,0 0,-1.5 -3.0782,0 c -0.8789,0 -1.3164,-0.438 -1.3164,-1.321 0,-0.16 0,-0.265 0.0117,-0.472 l -1.5117,0 c 0,0.086 0,0.137 0,0.18 0,0.687 0.4414,1.289 1.207,1.613 l -1.1093,0 0,1.5 z"
     style="fill:#000000;fill-rule:evenodd;stroke:none" />
  <path
     inkscape:connector-curvature="0"
     id="path430"
     d="m 2,98.859 c 0,1.758 1.1602,2.836 3.0469,2.836 1.8945,0 3.0469,-1.074 3.0469,-2.847 C 8.0938,97.098 6.9336,96 5.0899,96 3.1406,96 2,97.055 2,98.859 z m 1.1992,-0.011 c 0,-0.817 0.7344,-1.348 1.8672,-1.348 1.0782,0 1.8282,0.551 1.8282,1.348 0,0.804 -0.7461,1.347 -1.8477,1.347 -1.0977,0 -1.8477,-0.539 -1.8477,-1.347 z"
     style="fill:#000000;fill-rule:evenodd;stroke:none" />
  <path
     inkscape:connector-curvature="0"
     id="path432"
     d="m 2.0977,94.797 5.7969,0 0,-1.5 -3.0782,0 C 3.9375,93.297 3.5,92.859 3.5,91.977 c 0,-0.16 0,-0.266 0.0117,-0.473 L 2,91.504 c 0,0.086 0,0.137 0,0.18 0,0.687 0.4414,1.289 1.207,1.613 l -1.1093,0 0,1.5 z"
     style="fill:#000000;fill-rule:evenodd;stroke:none" />
  <path
     inkscape:connector-curvature="0"
     id="path434"
     d="m 4.8008,85.797 0,-1.863 c 0,-0.703 0.2773,-1.008 0.9336,-1.008 0.0625,0 0.168,0 0.3086,0.008 0.2031,0.008 0.3945,0.008 0.5117,0.008 0.7266,0 0.9649,-0.043 1.3399,-0.25 l 0,-1.715 -0.293,0 C 7.461,81.231 7.3008,81.328 6.9531,81.328 4.625,81.371 4.5156,81.414 4.086,82.418 3.7422,81.535 3.1016,81.09 2.1367,81.09 c -0.625,0 -1.1992,0.215 -1.589798,0.59 -0.367203,0.351 -0.54300338,0.847 -0.54300338,1.512 l 0,4.195 7.89850138,0 0,-1.598 -3.1016,0.008 z m -1.4023,0 -2,0 0,-1.953 c 0,-0.461 0.0429,-0.656 0.1992,-0.852 0.1562,-0.191 0.4179,-0.289 0.7773,-0.289 0.3672,0 0.6602,0.106 0.8203,0.289 0.1446,0.172 0.1993,0.387 0.1993,0.852 l 0.0039,1.953 z"
     style="fill:#000000;fill-rule:evenodd;stroke:none" />
  <path
     inkscape:connector-curvature="0"
     id="path436"
     d="m 7.6719,74.836 c -0.2422,0.281 -0.4023,0.359 -0.7031,0.359 l -3.1953,0 c -1.1719,0 -1.7696,0.805 -1.7696,2.379 0,1.571 0.6563,2.387 1.9844,2.485 l 0,-1.442 c -0.5937,-0.074 -0.7852,-0.32 -0.7852,-1.054 0,-0.575 0.1915,-0.864 0.5743,-0.864 0.1914,0 0.3593,0.094 0.4453,0.254 0.1054,0.199 0.1054,0.199 0.2226,0.942 l 0.1055,0.597 c 0.1914,1.145 0.7773,1.7 1.8125,1.7 0.4883,0 0.8945,-0.137 1.1836,-0.403 0.3398,-0.328 0.543,-0.828 0.543,-1.344 0,-0.636 -0.2735,-1.226 -0.8203,-1.75 0.2968,0 0.4023,-0.031 0.5742,-0.175 l 0,-1.684 -0.1719,0 z m -2.125,1.863 c 0.8594,0 1.3477,0.426 1.3477,1.184 0,0.5 -0.2657,0.809 -0.6876,0.809 -0.4453,0 -0.6562,-0.235 -0.7851,-0.852 L 5.3281,77.328 C 5.2539,76.934 5.2344,76.871 5.1485,76.699 l 0.3984,0 z"
     style="fill:#000000;fill-rule:evenodd;stroke:none" />
  <path
     inkscape:connector-curvature="0"
     id="path438"
     d="m 2.1992,71.246 0,0.852 -1.582001,0 0,1.5 1.582001,0 0,0.746 1,0 0,-0.746 3.543,0 c 0.9063,0 1.3516,-0.485 1.3516,-1.477 0,-0.332 -0.0274,-0.601 -0.1133,-0.871 l -1.0117,0 c 0.0195,0.152 0.0273,0.238 0.0273,0.348 0,0.402 -0.1172,0.5 -0.6328,0.5 l -3.1602,0 0,-0.852 -1.0039,0 z"
     style="fill:#000000;fill-rule:evenodd;stroke:none" />
  <path
     inkscape:connector-curvature="0"
     id="path440"
     d="m 2.0625,68.699 0,1.5 5.8321,0 0,-1.5 -5.8321,0 z m -2.0625,0 0,1.5 1.3985,0 0,-1.5 -1.3985,0 z"
     style="fill:#000000;fill-rule:evenodd;stroke:none" />
  <path
     inkscape:connector-curvature="0"
     id="path442"
     d="m 2,64.559 c 0,1.758 1.1602,2.836 3.0469,2.836 1.8945,0 3.0469,-1.075 3.0469,-2.848 0,-1.75 -1.1602,-2.848 -3.0039,-2.848 C 3.1406,61.699 2,62.754 2,64.559 z m 1.1992,-0.012 c 0,-0.816 0.7344,-1.348 1.8672,-1.348 1.0782,0 1.8282,0.551 1.8282,1.348 0,0.805 -0.7461,1.348 -1.8477,1.348 -1.0977,0 -1.8477,-0.539 -1.8477,-1.348 z"
     style="fill:#000000;fill-rule:evenodd;stroke:none" />
  <path
     inkscape:connector-curvature="0"
     id="path444"
     d="m 89.3988,7.89899 3.535,0 c 0.902,0 1.508,-0.172 1.984,-0.57099 0.473,-0.39801 0.774,-1.07 0.774,-1.699 0,-0.77701 -0.422,-1.39401 -1.309,-1.918 0.727,-0.496 1.008,-0.953 1.008,-1.625 0,-0.539 -0.266,-1.113008 -0.703,-1.503999 -0.457,-0.398011 -1,-0.57400539 -1.832,-0.57400539 l -3.461,0 0.004,7.89099439 z m 1.601,-6.5 1.754,0 c 0.742,0 1.141,0.29602 1.141,0.85101 0,0.543 -0.399,0.84399 -1.141,0.84399 l -1.754,0 0,-1.695 z m 0,3.10101 1.973,0 c 0.805,0 1.223,0.34799 1.223,1.004 0,0.64499 -0.418,0.992 -1.223,0.992 l -1.973,0 0,-1.996 z"
     style="fill:#000000;fill-rule:evenodd;stroke:none" />
  <path
     inkscape:connector-curvature="0"
     id="path446"
     d="m 98.4998,2.06299 -1.5,0 0,5.832 1.5,0 0,-5.832 z m 0,-2.06299 -1.5,0 0,1.39899 1.5,0 0,-1.39899 z"
     style="fill:#000000;fill-rule:evenodd;stroke:none" />
  <path
     inkscape:connector-curvature="0"
     id="path448"
     d="M 104.942,4.246 C 104.836,2.84399 103.891,2 102.442,2 c -1.727,0 -2.7352,1.129 -2.7352,3.09 0,1.89499 0.9962,3.00399 2.7152,3.00399 1.406,0 2.383,-0.85598 2.524,-2.21899 l -1.438,0 c -0.191,0.73401 -0.492,1.01999 -1.074,1.01999 -0.762,0 -1.223,-0.68399 -1.223,-1.80499 0,-0.543 0.106,-1.05899 0.289,-1.39801 0.172,-0.32099 0.504,-0.48899 0.934,-0.48899 0.609,0 0.902,0.28501 1.074,1.047 l 1.434,-0.004 z"
     style="fill:#000000;fill-rule:evenodd;stroke:none" />
  <path
     inkscape:connector-curvature="0"
     id="path450"
     d="m 108.539,2 c -1.758,0 -2.836,1.16 -2.836,3.047 0,1.89499 1.075,3.04699 2.848,3.04699 1.75,0 2.848,-1.16 2.848,-3.00399 0,-1.94901 -1.055,-3.09 -2.86,-3.09 z m 0.012,1.19901 c 0.816,0 1.348,0.73498 1.348,1.86798 0,1.078 -0.551,1.828 -1.348,1.828 -0.805,0 -1.348,-0.746 -1.348,-1.84799 0,-1.09799 0.539,-1.84799 1.348,-1.84799 z"
     style="fill:#000000;fill-rule:evenodd;stroke:none" />
  <path
     inkscape:connector-curvature="0"
     id="path452"
     d="m 112.598,2.09799 0,5.797 1.5,0 0,-3.465 c 0,-0.68399 0.484,-1.13299 1.223,-1.13299 0.648,0 0.972,0.35199 0.972,1.035 l 0,3.55899 1.5,0 0,-3.88699 c 0,-1.27701 -0.711,-2.008 -1.949,-2.008 -0.785,0 -1.313,0.28101 -1.746,0.90601 l 0,-0.80402 -1.5,0 z"
     style="fill:#000000;fill-rule:evenodd;stroke:none" />
  <path
     inkscape:connector-curvature="0"
     id="path454"
     d="m 122.899,7.85199 1.5,0 0,-7.85199 -1.5,0 0,2.82001 C 122.52,2.26199 122.008,2 121.274,2 c -1.407,0 -2.473,1.32001 -2.473,3.05899 0,0.77701 0.238,1.56601 0.629,2.121 0.402,0.555 1.121,0.914 1.84,0.914 0.726,0 1.242,-0.26998 1.625,-0.83999 l 0.004,0.59799 z M 121.598,3.297 c 0.781,0 1.297,0.71499 1.297,1.77701 0,1.01199 -0.528,1.71499 -1.297,1.71499 -0.77,0 -1.297,-0.711 -1.297,-1.73801 0,-1.031 0.527,-1.75799 1.297,-1.75799 l 0,0.004 z"
     style="fill:#000000;fill-rule:evenodd;stroke:none" />
  <path
     inkscape:connector-curvature="0"
     id="path456"
     d="m 127.301,2.06299 -1.5,0 0,5.832 1.5,0 0,-5.832 z m 0,-2.06299 -1.5,0 0,1.39899 1.5,0 0,-1.39899 z"
     style="fill:#000000;fill-rule:evenodd;stroke:none" />
  <path
     inkscape:connector-curvature="0"
     id="path458"
     d="m 131.352,2.19901 -0.852,0 0,-1.582006 -1.5,0 0,1.582006 -0.746,0 0,1 0.746,0 0,3.54299 c 0,0.90699 0.485,1.35199 1.477,1.35199 0.332,0 0.601,-0.027 0.871,-0.113 l 0,-1.012 C 131.196,6.98801 131.11,6.996 131,6.996 c -0.402,0 -0.5,-0.117 -0.5,-0.63299 l 0,-3.16001 0.852,0 0,-1.00399 z"
     style="fill:#000000;fill-rule:evenodd;stroke:none" />
  <path
     inkscape:connector-curvature="0"
     id="path460"
     d="m 133.899,2.06299 -1.5,0 0,5.832 1.5,0 0,-5.832 z m 0,-2.06299 -1.5,0 0,1.39899 1.5,0 0,-1.39899 z"
     style="fill:#000000;fill-rule:evenodd;stroke:none" />
  <path
     inkscape:connector-curvature="0"
     id="path462"
     d="m 137.938,2 c -1.758,0 -2.836,1.16 -2.836,3.047 0,1.89499 1.074,3.04699 2.847,3.04699 1.75,0 2.848,-1.16 2.848,-3.00399 0,-1.94901 -1.055,-3.09 -2.859,-3.09 z m 0.011,1.19901 c 0.817,0 1.348,0.73498 1.348,1.86798 0,1.078 -0.551,1.828 -1.348,1.828 -0.804,0 -1.347,-0.746 -1.347,-1.84799 0,-1.09799 0.539,-1.84799 1.347,-1.84799 z"
     style="fill:#000000;fill-rule:evenodd;stroke:none" />
  <path
     inkscape:connector-curvature="0"
     id="path464"
     d="m 142,2.09799 0,5.797 1.5,0 0,-3.465 c 0,-0.68399 0.485,-1.13299 1.223,-1.13299 0.648,0 0.973,0.35199 0.973,1.035 l 0,3.55899 1.5,0 0,-3.88699 c 0,-1.27701 -0.711,-2.008 -1.95,-2.008 -0.785,0 -1.312,0.28101 -1.746,0.90601 l 0,-0.80402 -1.5,0 z"
     style="fill:#000000;fill-rule:evenodd;stroke:none" />
  <path
     inkscape:connector-curvature="0"
     id="path466"
     d="m 153.563,7.672 c -0.282,-0.24201 -0.36,-0.40201 -0.36,-0.70301 l 0,-3.195 c 0,-1.172 -0.804,-1.76999 -2.379,-1.76999 -1.57,0 -2.386,0.656 -2.484,1.98401 l 1.441,0 c 0.075,-0.59302 0.321,-0.78501 1.055,-0.78501 0.574,0 0.863,0.19199 0.863,0.57401 0,0.19198 -0.093,0.35998 -0.253,0.44598 -0.2,0.10501 -0.2,0.10501 -0.942,0.22202 l -0.598,0.10598 c -1.144,0.19101 -1.699,0.77701 -1.699,1.81202 0,0.48898 0.137,0.89499 0.403,1.18399 0.328,0.33999 0.828,0.543 1.343,0.543 0.637,0 1.227,-0.27301 1.75,-0.82001 0,0.297 0.032,0.40201 0.176,0.574 l 1.684,0 0,-0.17199 z m -1.864,-2.125 c 0,0.85901 -0.425,1.34799 -1.183,1.34799 -0.5,0 -0.809,-0.26599 -0.809,-0.68799 0,-0.44501 0.235,-0.65601 0.852,-0.785 l 0.512,-0.094 c 0.394,-0.074 0.457,-0.09301 0.628,-0.17901 l 0,0.39801 z"
     style="fill:#000000;fill-rule:evenodd;stroke:none" />
  <path
     inkscape:connector-curvature="0"
     id="path468"
     d="m 154.598,7.89899 1.5,0 0,-7.89899 -1.5,0 0,7.89899 z"
     style="fill:#000000;fill-rule:evenodd;stroke:none" />
  <path
     inkscape:connector-curvature="0"
     id="path470"
     d="m 159.699,6.297 -1.597,0 0,1.59799 1.597,0 0,-1.59799 z m 0,-4 -1.597,0 0,1.59799 1.597,0 0,-1.59799 z"
     style="fill:#000000;fill-rule:evenodd;stroke:none" />
  <path
     inkscape:connector-curvature="0"
     id="path472"
     d="m 166,4.797 1.863,0 c 0.704,0 1.008,0.27701 1.008,0.93399 0,0.06201 0,0.168 -0.008,0.30801 -0.007,0.203 -0.007,0.39499 -0.007,0.51199 0,0.72602 0.043,0.965 0.25,1.34 l 1.715,0 0,-0.293 C 170.567,7.457 170.469,7.297 170.469,6.94901 170.426,4.621 170.383,4.51199 169.379,4.082 c 0.883,-0.34399 1.328,-0.98401 1.328,-1.949 0,-0.625 -0.215,-1.19901 -0.59,-1.590001 C 169.766,0.175995 169.27,0 168.606,0 l -4.196,0 0,7.89899 1.598,0 L 166,4.797 z m 0,-1.39801 0,-2 1.953,0 c 0.461,0 0.657,0.043 0.852,0.199 0.191,0.15601 0.289,0.418 0.289,0.77701 0,0.367 -0.105,0.66 -0.289,0.82001 -0.172,0.14499 -0.387,0.19998 -0.852,0.19998 L 166,3.39899 z"
     style="fill:#000000;fill-rule:evenodd;stroke:none" />
  <path
     inkscape:connector-curvature="0"
     id="path474"
     d="M 176.961,7.672 C 176.68,7.42999 176.602,7.26999 176.602,6.96899 l 0,-3.195 c 0,-1.172 -0.805,-1.76999 -2.379,-1.76999 -1.57,0 -2.387,0.656 -2.484,1.98401 l 1.441,0 c 0.074,-0.59302 0.32,-0.78501 1.055,-0.78501 0.574,0 0.863,0.19199 0.863,0.57401 0,0.19198 -0.094,0.35998 -0.254,0.44598 -0.199,0.10501 -0.199,0.10501 -0.941,0.22202 l -0.598,0.10598 c -1.145,0.19101 -1.699,0.77701 -1.699,1.81202 0,0.48898 0.136,0.89499 0.402,1.18399 0.328,0.33999 0.828,0.543 1.344,0.543 0.637,0 1.226,-0.27301 1.75,-0.82001 0,0.297 0.031,0.40201 0.176,0.574 l 1.683,0 0,-0.17199 z m -1.863,-2.125 c 0,0.85901 -0.426,1.34799 -1.184,1.34799 -0.5,0 -0.808,-0.26599 -0.808,-0.68799 0,-0.44501 0.234,-0.65601 0.851,-0.785 l 0.512,-0.094 c 0.394,-0.074 0.457,-0.09301 0.629,-0.17901 l 0,0.39801 z"
     style="fill:#000000;fill-rule:evenodd;stroke:none" />
  <path
     inkscape:connector-curvature="0"
     id="path476"
     d="m 180.551,2.19901 -0.852,0 0,-1.582006 -1.5,0 0,1.582006 -0.746,0 0,1 0.746,0 0,3.54299 c 0,0.90699 0.485,1.35199 1.477,1.35199 0.332,0 0.602,-0.027 0.871,-0.113 l 0,-1.012 c -0.152,0.01902 -0.238,0.02701 -0.348,0.02701 -0.402,0 -0.5,-0.117 -0.5,-0.63299 l 0,-3.16001 0.852,0 0,-1.00399 z"
     style="fill:#000000;fill-rule:evenodd;stroke:none" />
  <path
     inkscape:connector-curvature="0"
     id="path478"
     d="M 186.356,3.94501 C 186.336,2.73499 185.379,2.004 183.809,2.004 c -1.485,0 -2.406,0.73099 -2.406,1.906 0,0.379 0.117,0.711 0.324,0.93 0.203,0.199 0.386,0.29699 0.953,0.47699 l 1.809,0.55001 c 0.378,0.11399 0.507,0.23099 0.507,0.465 0,0.34799 -0.418,0.55899 -1.121,0.55899 -0.386,0 -0.699,-0.06698 -0.894,-0.18799 -0.16,-0.10501 -0.227,-0.21801 -0.289,-0.50399 l -1.477,0 c 0.043,1.24298 0.977,1.89498 2.742,1.89498 0.805,0 1.418,-0.168 1.852,-0.50799 0.43,-0.336 0.687,-0.86701 0.687,-1.42999 0,-0.74201 -0.379,-1.21802 -1.148,-1.44101 L 183.43,4.17599 c -0.422,-0.125 -0.527,-0.21099 -0.527,-0.445 0,-0.31699 0.347,-0.52799 0.882,-0.52799 0.727,0 1.09,0.24201 1.098,0.74201 l 1.473,0 z"
     style="fill:#000000;fill-rule:evenodd;stroke:none" />
  <path
     inkscape:connector-curvature="0"
     id="path480"
     d="m 68.0668,160.504 41.6212,0 0,-105.652 -41.6212,0 0,105.652 z"
     style="fill:#ffffff;fill-rule:evenodd;stroke:none" />
  <path
     inkscape:connector-curvature="0"
     id="path482"
     d="m 68.0668,160.504 41.6212,0 0,-105.652 -41.6212,0 0,105.652 z"
     style="fill:none;stroke:#ffffff;stroke-width:0" />
  <path
     inkscape:connector-curvature="0"
     id="path484"
     d="m 68.0668,160.504 41.6212,0 0,-105.652 -41.6212,0 0,105.652 z"
     style="fill:none;stroke:#ffffff;stroke-width:1.91395998" />
  <path
     inkscape:connector-curvature="0"
     id="path486"
     d="m 165.715,160.504 41.617,0 0,-120.059 -41.617,0 0,120.059 z"
     style="fill:#ffffff;fill-rule:evenodd;stroke:none" />
  <path
     inkscape:connector-curvature="0"
     id="path488"
     d="m 165.715,160.504 41.617,0 0,-120.059 -41.617,0 0,120.059 z"
     style="fill:none;stroke:#ffffff;stroke-width:0" />
  <path
     inkscape:connector-curvature="0"
     id="path490"
     d="m 165.715,160.504 41.617,0 0,-120.059 -41.617,0 0,120.059 z"
     style="fill:none;stroke:#ffffff;stroke-width:1.91395998" />
  <path
     inkscape:connector-curvature="0"
     id="path492"
     d="m 68.0668,160.504 41.6212,0 0,-105.652 -41.6212,0 0,105.652 z"
     style="fill:url(#linearGradient4525);stroke:#000000;stroke-width:1.91395998000000001;fill-opacity:1" />
  <path
     inkscape:connector-curvature="0"
     id="path494"
     d="m 165.715,160.504 41.617,0 0,-120.059 -41.617,0 0,120.059 z"
     style="fill:url(#linearGradient4533);stroke:#000000;stroke-width:1.91395998000000001;fill-opacity:1.0" />
  <path
     inkscape:connector-curvature="0"
     id="path496"
     d="m 88.8748,59.25 0,-8.801"
     style="fill:none;stroke:#000000;stroke-width:1.91395998" />
  <path
     inkscape:connector-curvature="0"
     id="path498"
     d="m 186.524,48.445 0,-15.605"
     style="fill:none;stroke:#000000;stroke-width:1.91395998" />
  <path
     inkscape:connector-curvature="0"
     id="path500"
     d="m 84.0738,59.25 9.204,0"
     style="fill:none;stroke:#000000;stroke-width:1.91395998" />
  <path
     inkscape:connector-curvature="0"
     id="path502"
     d="m 84.0738,50.449 9.204,0"
     style="fill:none;stroke:#000000;stroke-width:1.91395998" />
  <path
     inkscape:connector-curvature="0"
     id="path504"
     d="m 182.121,48.445 9.203,0"
     style="fill:none;stroke:#000000;stroke-width:1.91395998" />
  <path
     inkscape:connector-curvature="0"
     id="path506"
     d="m 182.121,32.84 9.203,0"
     style="fill:none;stroke:#000000;stroke-width:1.91395998" />
  <path
     inkscape:connector-curvature="0"
     id="path508"
     d="m 39.6485,160.504 196.0975,0 0,-142.07 -196.0975,0 0,142.07 z"
     style="fill:none;stroke:#000000;stroke-width:1.91395998" />
</svg>
