<?xml version="1.0" encoding="UTF-8" standalone="no"?>
<svg
  xmlns="http://www.w3.org/2000/svg" version="1.1"
  width="400px"
  height="400px"
  viewBox="0 0 1000.0 1000.0">
<path stroke="#000000" stroke-width="2" fill="none"
  d="M 160.0,951.7 L 160.0,228.9 L 882.8,228.9 L 882.8,951.7 L 160.0,951.7 "
 />

<g>

<text x="911.7" y="1013.1" font-family="Arial" font-size="36.2" fill="#000000" text-anchor="start">
x 1000
</text>

<text x="521.4" y="1049.2" font-family="Arial" font-size="36.2" fill="#000000" text-anchor="middle">
epoch
</text>

<text x="167.1" y="1013.1" font-family="Arial" font-size="36.2" fill="#000000" text-anchor="middle">
0
</text>

<text x="308.8" y="1013.1" font-family="Arial" font-size="36.2" fill="#000000" text-anchor="middle">
0.2
</text>

<text x="450.6" y="1013.1" font-family="Arial" font-size="36.2" fill="#000000" text-anchor="middle">
0.4
</text>

<text x="592.3" y="1013.1" font-family="Arial" font-size="36.2" fill="#000000" text-anchor="middle">
0.6
</text>

<text x="734.0" y="1013.1" font-family="Arial" font-size="36.2" fill="#000000" text-anchor="middle">
0.8
</text>

<text x="875.7" y="1013.1" font-family="Arial" font-size="36.2" fill="#000000" text-anchor="middle">
1
</text>
<path stroke="#000000" stroke-width="2" fill="none"
  d="M 160.0,951.7 L 882.8,951.7 M 167.1,969.7 L 167.1,933.6 M 308.8,969.7 L 308.8,933.6 M 450.6,969.7 L 450.6,933.6 M 592.3,969.7 L 592.3,933.6 M 734.0,969.7 L 734.0,933.6 M 875.7,969.7 L 875.7,933.6 "
 />
<path stroke="#000000" stroke-width="2" fill="none"
  d="M 160.0,228.9 L 882.8,228.9 M 167.1,247.0 L 167.1,210.9 M 308.8,247.0 L 308.8,210.9 M 450.6,247.0 L 450.6,210.9 M 592.3,247.0 L 592.3,210.9 M 734.0,247.0 L 734.0,210.9 M 875.7,247.0 L 875.7,210.9 "
 />

<text x="69.7" y="590.3" font-family="Arial" font-size="36.2" fill="#000080" writing-mode="tb" text-anchor="middle">
V1p lay cos err 3
</text>

<text x="134.7" y="966.1" font-family="Arial" font-size="36.2" fill="#000080" text-anchor="end">
0
</text>

<text x="134.7" y="893.9" font-family="Arial" font-size="36.2" fill="#000080" text-anchor="end">
0.1
</text>

<text x="134.7" y="821.6" font-family="Arial" font-size="36.2" fill="#000080" text-anchor="end">
0.2
</text>

<text x="134.7" y="749.3" font-family="Arial" font-size="36.2" fill="#000080" text-anchor="end">
0.3
</text>

<text x="134.7" y="677.0" font-family="Arial" font-size="36.2" fill="#000080" text-anchor="end">
0.4
</text>

<text x="134.7" y="604.8" font-family="Arial" font-size="36.2" fill="#000080" text-anchor="end">
0.5
</text>

<text x="134.7" y="532.5" font-family="Arial" font-size="36.2" fill="#000080" text-anchor="end">
0.6
</text>

<text x="134.7" y="460.2" font-family="Arial" font-size="36.2" fill="#000080" text-anchor="end">
0.7
</text>

<text x="134.7" y="387.9" font-family="Arial" font-size="36.2" fill="#000080" text-anchor="end">
0.8
</text>

<text x="134.7" y="315.7" font-family="Arial" font-size="36.2" fill="#000080" text-anchor="end">
0.9
</text>

<text x="134.7" y="243.4" font-family="Arial" font-size="36.2" fill="#000080" text-anchor="end">
1
</text>
<path stroke="#000080" stroke-width="2" fill="none"
  d="M 160.0,951.7 L 160.0,228.9 M 142.0,951.7 L 178.1,951.7 M 142.0,879.4 L 178.1,879.4 M 142.0,807.1 L 178.1,807.1 M 142.0,734.9 L 178.1,734.9 M 142.0,662.6 L 178.1,662.6 M 142.0,590.3 L 178.1,590.3 M 142.0,518.0 L 178.1,518.0 M 142.0,445.8 L 178.1,445.8 M 142.0,373.5 L 178.1,373.5 M 142.0,301.2 L 178.1,301.2 M 142.0,228.9 L 178.1,228.9 "
 />
<path stroke="#000080" stroke-width="2" fill="none"
  d="M 882.8,951.7 L 882.8,228.9 M 864.7,951.7 L 900.8,951.7 M 864.7,879.4 L 900.8,879.4 M 864.7,807.1 L 900.8,807.1 M 864.7,734.9 L 900.8,734.9 M 864.7,662.6 L 900.8,662.6 M 864.7,590.3 L 900.8,590.3 M 864.7,518.0 L 900.8,518.0 M 864.7,445.8 L 900.8,445.8 M 864.7,373.5 L 900.8,373.5 M 864.7,301.2 L 900.8,301.2 M 864.7,228.9 L 900.8,228.9 "
 />

</g>

<g transform="translate(0.0,-759.6)">

<g transform="translate(0.0,-0.0)">
<path stroke="#000000" stroke-width="1" fill="none"
  d="M 160.0,951.7 L 181.7,951.7 "
 />

<text x="189.0" y="958.9" font-family="Arial" font-size="14.5" fill="#000000" text-anchor="start">
351623 000: BP 20fg mov4 rot1 tick8 -- predict, sse, lr.05, nobin, meta stats
</text>

</g>

</g>

<g>
<path stroke="#000080" stroke-width="1" fill="none"
  d=""
 />
<path stroke="#000000" stroke-width="1" fill="none"
  d="M 167.1,561.9 
L 167.8,482.2 L 168.5,453.2 L 169.3,439.8 L 170.0,427.5 L 170.7,417.0 L 171.4,405.0 L 172.1,401.0 L 172.8,417.0 L 173.5,400.3 L 174.2,398.0 
L 174.9,398.6 L 175.6,405.3 L 176.3,405.4 L 177.0,398.0 L 177.8,386.7 L 178.5,389.8 L 179.2,390.2 L 179.9,392.8 L 180.6,378.3 L 181.3,388.2 
L 182.0,381.7 L 182.7,381.3 L 183.4,381.5 L 184.1,379.6 L 184.8,375.4 L 185.6,370.2 L 186.3,386.8 L 187.0,371.2 L 187.7,372.4 L 188.4,374.0 
L 189.1,370.7 L 189.8,372.7 L 190.5,375.7 L 191.2,372.5 L 191.9,366.7 L 192.6,384.3 L 193.3,379.4 L 194.1,368.5 L 194.8,368.8 L 195.5,373.8 
L 196.2,366.4 L 196.9,366.4 L 197.6,376.2 L 198.3,370.5 L 199.0,360.9 L 199.7,365.8 L 200.4,364.5 L 201.1,367.1 L 201.8,366.8 L 202.6,367.9 
L 203.3,363.9 L 204.0,365.7 L 204.7,366.3 L 205.4,374.1 L 206.1,363.2 L 206.8,370.5 L 207.5,369.2 L 208.2,360.9 L 208.9,366.4 L 209.6,365.8 
L 210.4,379.5 L 211.1,367.2 L 211.8,369.5 L 212.5,355.3 L 213.2,372.5 L 213.9,366.1 L 214.6,361.0 L 215.3,360.9 L 216.0,369.6 L 216.7,374.0 
L 217.4,361.1 L 218.1,373.7 L 218.9,359.0 L 219.6,364.7 L 220.3,365.8 L 221.0,369.4 L 221.7,366.5 L 222.4,358.6 L 223.1,360.9 L 223.8,352.7 
L 224.5,365.3 L 225.2,363.1 L 225.9,359.7 L 226.6,356.5 L 227.4,366.3 L 228.1,368.9 L 228.8,353.7 L 229.5,359.4 L 230.2,360.7 L 230.9,357.8 
L 231.6,358.9 L 232.3,361.4 L 233.0,364.9 L 233.7,356.2 L 234.4,358.1 L 235.2,354.8 L 235.9,348.8 L 236.6,355.7 L 237.3,357.9 L 238.0,350.8 
L 238.7,361.7 L 239.4,354.4 L 240.1,352.0 L 240.8,354.7 L 241.5,363.6 L 242.2,363.4 L 242.9,352.6 L 243.7,350.1 L 244.4,358.7 L 245.1,353.0 
L 245.8,349.2 L 246.5,354.5 L 247.2,347.7 L 247.9,350.3 L 248.6,361.5 L 249.3,356.5 L 250.0,349.6 L 250.7,355.9 L 251.4,356.4 L 252.2,360.6 
L 252.9,362.1 L 253.6,351.7 L 254.3,351.7 L 255.0,350.0 L 255.7,357.0 L 256.4,353.5 L 257.1,356.9 L 257.8,351.5 L 258.5,345.6 L 259.2,342.7 
L 260.0,349.3 L 260.7,354.4 L 261.4,342.4 L 262.1,354.0 L 262.8,352.3 L 263.5,342.8 L 264.2,360.0 L 264.9,343.9 L 265.6,349.3 L 266.3,342.0 
L 267.0,347.4 L 267.7,352.4 L 268.5,351.7 L 269.2,351.2 L 269.9,354.4 L 270.6,353.4 L 271.3,354.5 L 272.0,350.9 L 272.7,350.2 L 273.4,343.1 
L 274.1,353.7 L 274.8,350.9 L 275.5,349.1 L 276.2,350.8 L 277.0,349.6 L 277.7,360.5 L 278.4,361.0 L 279.1,352.7 L 279.8,350.6 L 280.5,343.1 
L 281.2,347.0 L 281.9,350.4 L 282.6,344.2 L 283.3,344.8 L 284.0,346.9 L 284.8,351.9 L 285.5,338.6 L 286.2,357.3 L 286.9,353.7 L 287.6,351.6 
L 288.3,345.6 L 289.0,354.5 L 289.7,346.0 L 290.4,351.5 L 291.1,347.7 L 291.8,347.0 L 292.5,350.5 L 293.3,345.4 L 294.0,350.3 L 294.7,350.6 
L 295.4,350.8 L 296.1,349.7 L 296.8,342.7 L 297.5,347.7 L 298.2,346.6 L 298.9,348.6 L 299.6,346.9 L 300.3,344.3 L 301.0,346.5 L 301.8,345.4 
L 302.5,357.6 L 303.2,348.0 L 303.9,342.6 L 304.6,341.3 L 305.3,354.7 L 306.0,355.7 L 306.7,351.8 L 307.4,351.4 L 308.1,344.0 L 308.8,347.8 
L 309.6,349.6 L 310.3,344.9 L 311.0,336.2 L 311.7,338.5 L 312.4,349.6 L 313.1,346.3 L 313.8,344.3 L 314.5,344.5 L 315.2,342.5 L 315.9,348.4 
L 316.6,340.4 L 317.3,344.6 L 318.1,341.8 L 318.8,343.3 L 319.5,351.1 L 320.2,348.4 L 320.9,351.1 L 321.6,340.3 L 322.3,346.6 L 323.0,347.2 
L 323.7,343.0 L 324.4,339.0 L 325.1,347.5 L 325.8,340.3 L 326.6,350.1 L 327.3,340.5 L 328.0,343.5 L 328.7,343.4 L 329.4,345.1 L 330.1,338.2 
L 330.8,344.8 L 331.5,340.5 L 332.2,338.3 L 332.9,347.4 L 333.6,350.1 L 334.4,343.7 L 335.1,352.7 L 335.8,341.9 L 336.5,344.9 L 337.2,347.9 
L 337.9,353.4 L 338.6,344.4 L 339.3,336.0 L 340.0,352.3 L 340.7,340.1 L 341.4,346.2 L 342.1,342.5 L 342.9,339.0 L 343.6,348.4 L 344.3,344.4 
L 345.0,343.9 L 345.7,344.3 L 346.4,346.4 L 347.1,332.7 L 347.8,350.9 L 348.5,351.1 L 349.2,342.9 L 349.9,339.5 L 350.6,339.9 L 351.4,338.8 
L 352.1,335.3 L 352.8,343.3 L 353.5,346.3 L 354.2,345.9 L 354.9,341.7 L 355.6,339.2 L 356.3,348.4 L 357.0,344.5 L 357.7,337.3 L 358.4,346.1 
L 359.2,340.2 L 359.9,345.0 L 360.6,344.7 L 361.3,342.9 L 362.0,337.0 L 362.7,341.6 L 363.4,336.9 L 364.1,341.8 L 364.8,340.2 L 365.5,338.5 
L 366.2,339.0 L 366.9,339.2 L 367.7,339.6 L 368.4,347.3 L 369.1,343.9 L 369.8,339.1 L 370.5,333.8 L 371.2,339.4 L 371.9,346.0 L 372.6,341.5 
L 373.3,346.6 L 374.0,341.5 L 374.7,345.0 L 375.4,338.8 L 376.2,337.7 L 376.9,337.5 L 377.6,343.9 L 378.3,350.8 L 379.0,340.3 L 379.7,334.4 
L 380.4,337.8 L 381.1,344.9 L 381.8,341.6 L 382.5,344.6 L 383.2,343.5 L 383.9,340.8 L 384.7,336.7 L 385.4,341.1 L 386.1,339.0 L 386.8,334.0 
L 387.5,340.0 L 388.2,338.5 L 388.9,338.0 L 389.6,341.1 L 390.3,343.6 L 391.0,336.7 L 391.7,336.7 L 392.5,344.4 L 393.2,332.0 L 393.9,334.5 
L 394.6,340.8 L 395.3,350.3 L 396.0,344.7 L 396.7,340.0 L 397.4,343.4 L 398.1,343.4 L 398.8,338.5 L 399.5,333.7 L 400.2,341.1 L 401.0,336.0 
L 401.7,343.7 L 402.4,334.1 L 403.1,333.3 L 403.8,335.2 L 404.5,338.8 L 405.2,343.0 L 405.9,342.8 L 406.6,340.3 L 407.3,340.8 L 408.0,335.4 
L 408.7,333.5 L 409.5,333.5 L 410.2,338.8 L 410.9,332.5 L 411.6,334.7 L 412.3,333.6 L 413.0,340.3 L 413.7,343.6 L 414.4,340.5 L 415.1,336.0 
L 415.8,334.8 L 416.5,340.6 L 417.3,344.3 L 418.0,338.1 L 418.7,344.0 L 419.4,336.4 L 420.1,339.8 L 420.8,335.7 L 421.5,333.0 L 422.2,327.8 
L 422.9,347.6 L 423.6,343.1 L 424.3,334.8 L 425.0,336.4 L 425.8,339.7 L 426.5,339.0 L 427.2,338.9 L 427.9,334.2 L 428.6,343.6 L 429.3,339.0 
L 430.0,339.7 L 430.7,341.1 L 431.4,341.3 L 432.1,333.9 L 432.8,334.1 L 433.5,349.5 L 434.3,341.5 L 435.0,343.2 L 435.7,340.1 L 436.4,338.0 
L 437.1,338.0 L 437.8,339.7 L 438.5,334.2 L 439.2,341.6 L 439.9,343.5 L 440.6,332.8 L 441.3,335.5 L 442.1,333.1 L 442.8,336.7 L 443.5,339.2 
L 444.2,333.3 L 444.9,332.8 L 445.6,334.3 L 446.3,336.3 L 447.0,334.0 L 447.7,338.5 L 448.4,335.4 L 449.1,345.0 L 449.8,334.5 L 450.6,330.3 
L 451.3,344.3 L 452.0,338.8 L 452.7,336.3 L 453.4,338.3 L 454.1,340.1 L 454.8,337.1 L 455.5,336.6 L 456.2,341.9 L 456.9,336.0 L 457.6,331.8 
L 458.3,341.2 L 459.1,331.3 L 459.8,334.1 L 460.5,339.6 L 461.2,342.1 L 461.9,331.7 L 462.6,346.8 L 463.3,338.6 L 464.0,348.0 L 464.7,338.7 
L 465.4,336.1 L 466.1,337.1 L 466.9,332.7 L 467.6,335.7 L 468.3,339.0 L 469.0,337.6 L 469.7,338.1 L 470.4,337.3 L 471.1,343.2 L 471.8,340.9 
L 472.5,341.1 L 473.2,338.2 L 473.9,335.8 L 474.6,329.0 L 475.4,333.0 L 476.1,338.5 L 476.8,342.6 L 477.5,329.8 L 478.2,335.9 L 478.9,336.9 
L 479.6,339.8 L 480.3,336.2 L 481.0,336.1 L 481.7,333.9 L 482.4,344.0 L 483.1,328.6 L 483.9,331.1 L 484.6,335.5 L 485.3,335.6 L 486.0,343.6 
L 486.7,337.7 L 487.4,336.2 L 488.1,330.3 L 488.8,335.6 L 489.5,334.2 L 490.2,332.8 L 490.9,335.9 L 491.7,332.2 L 492.4,330.8 L 493.1,337.0 
L 493.8,330.5 L 494.5,343.0 L 495.2,336.4 L 495.9,338.9 L 496.6,332.1 L 497.3,340.1 L 498.0,335.3 L 498.7,335.6 L 499.4,341.5 L 500.2,330.4 
L 500.9,330.5 L 501.6,334.8 L 502.3,336.5 L 503.0,327.5 L 503.7,340.8 L 504.4,341.3 L 505.1,341.3 L 505.8,336.4 L 506.5,330.3 L 507.2,333.6 
L 507.9,334.8 L 508.7,335.7 L 509.4,339.0 L 510.1,328.5 L 510.8,333.5 L 511.5,334.0 L 512.2,337.3 L 512.9,328.7 L 513.6,338.7 L 514.3,336.9 
L 515.0,339.0 L 515.7,332.4 L 516.5,330.7 L 517.2,336.3 L 517.9,333.5 L 518.6,336.0 L 519.3,329.2 L 520.0,337.0 L 520.7,334.9 L 521.4,332.7 
L 522.1,340.8 L 522.8,341.4 L 523.5,334.5 L 524.2,338.1 L 525.0,332.2 L 525.7,331.7 L 526.4,332.2 L 527.1,332.5 L 527.8,348.7 L 528.5,333.2 
L 529.2,338.4 L 529.9,336.3 L 530.6,341.1 L 531.3,335.7 L 532.0,327.9 L 532.7,336.9 L 533.5,335.1 L 534.2,341.1 L 534.9,340.7 L 535.6,327.8 
L 536.3,332.4 L 537.0,339.9 L 537.7,338.4 L 538.4,342.4 L 539.1,336.9 L 539.8,334.1 L 540.5,333.9 L 541.3,331.9 L 542.0,333.1 L 542.7,328.3 
L 543.4,335.1 L 544.1,336.5 L 544.8,333.3 L 545.5,335.3 L 546.2,327.5 L 546.9,339.7 L 547.6,338.7 L 548.3,339.1 L 549.0,330.1 L 549.8,333.6 
L 550.5,332.0 L 551.2,342.0 L 551.9,330.6 L 552.6,336.5 L 553.3,334.4 L 554.0,336.6 L 554.7,331.5 L 555.4,333.9 L 556.1,330.2 L 556.8,338.5 
L 557.5,336.2 L 558.3,336.3 L 559.0,341.4 L 559.7,334.4 L 560.4,336.6 L 561.1,334.0 L 561.8,330.0 L 562.5,338.9 L 563.2,326.6 L 563.9,328.2 
L 564.6,336.7 L 565.3,332.2 L 566.1,327.4 L 566.8,323.8 L 567.5,336.5 L 568.2,338.2 L 568.9,328.6 L 569.6,337.5 L 570.3,330.3 L 571.0,331.8 
L 571.7,334.1 L 572.4,335.6 L 573.1,340.3 L 573.8,340.5 L 574.6,335.8 L 575.3,334.4 L 576.0,334.6 L 576.7,332.3 L 577.4,336.4 L 578.1,341.1 
L 578.8,333.6 L 579.5,333.1 L 580.2,335.4 L 580.9,336.1 L 581.6,330.1 L 582.3,341.5 L 583.1,333.9 L 583.8,325.0 L 584.5,332.0 L 585.2,336.1 
L 585.9,328.1 L 586.6,331.3 L 587.3,339.5 L 588.0,336.7 L 588.7,335.2 L 589.4,327.4 L 590.1,334.4 L 590.9,341.5 L 591.6,336.7 L 592.3,336.7 
L 593.0,331.5 L 593.7,327.0 L 594.4,335.3 L 595.1,337.9 L 595.8,327.9 L 596.5,337.4 L 597.2,340.9 L 597.9,330.5 L 598.6,338.8 L 599.4,333.8 
L 600.1,332.9 L 600.8,332.5 L 601.5,336.4 L 602.2,328.0 L 602.9,336.9 L 603.6,332.2 L 604.3,337.9 L 605.0,337.3 L 605.7,326.2 L 606.4,331.4 
L 607.1,330.1 L 607.9,328.3 L 608.6,341.4 L 609.3,330.2 L 610.0,328.2 L 610.7,333.7 L 611.4,330.8 L 612.1,335.6 L 612.8,330.2 L 613.5,329.2 
L 614.2,333.9 L 614.9,333.3 L 615.6,330.2 L 616.4,334.6 L 617.1,324.4 L 617.8,335.2 L 618.5,333.3 L 619.2,334.2 L 619.9,339.2 L 620.6,341.0 
L 621.3,328.9 L 622.0,334.5 L 622.7,343.9 L 623.4,333.1 L 624.2,330.8 L 624.9,334.5 L 625.6,335.8 L 626.3,331.0 L 627.0,335.1 L 627.7,334.0 
L 628.4,338.3 L 629.1,333.0 L 629.8,333.7 L 630.5,337.2 L 631.2,332.3 L 631.9,335.1 L 632.7,332.0 L 633.4,338.8 L 634.1,330.0 L 634.8,332.7 
L 635.5,333.0 L 636.2,340.2 L 636.9,331.2 L 637.6,327.2 L 638.3,328.5 L 639.0,339.8 L 639.7,330.2 L 640.4,331.6 L 641.2,332.9 L 641.9,330.5 
L 642.6,328.4 L 643.3,328.2 L 644.0,331.7 L 644.7,332.1 L 645.4,337.2 L 646.1,334.8 L 646.8,328.0 L 647.5,335.3 L 648.2,328.4 L 649.0,335.0 
L 649.7,330.4 L 650.4,327.0 L 651.1,331.2 L 651.8,332.5 L 652.5,330.8 L 653.2,330.1 L 653.9,333.9 L 654.6,333.3 L 655.3,333.8 L 656.0,331.8 
L 656.7,334.9 L 657.5,326.2 L 658.2,330.6 L 658.9,334.5 L 659.6,332.3 L 660.3,338.2 L 661.0,325.6 L 661.7,332.8 L 662.4,334.3 L 663.1,324.1 
L 663.8,330.9 L 664.5,334.8 L 665.2,333.6 L 666.0,331.4 L 666.7,330.4 L 667.4,331.4 L 668.1,333.3 L 668.8,334.4 L 669.5,331.6 L 670.2,334.9 
L 670.9,331.7 L 671.6,335.4 L 672.3,334.1 L 673.0,334.7 L 673.8,325.3 L 674.5,325.9 L 675.2,331.9 L 675.9,324.4 L 676.6,330.6 L 677.3,335.9 
L 678.0,334.1 L 678.7,333.1 L 679.4,332.1 L 680.1,332.3 L 680.8,329.9 L 681.5,329.3 L 682.3,332.6 L 683.0,328.2 L 683.7,328.4 L 684.4,329.4 
L 685.1,331.4 L 685.8,330.2 L 686.5,333.9 L 687.2,336.7 L 687.9,330.8 L 688.6,336.0 L 689.3,332.5 L 690.0,332.9 L 690.8,336.0 L 691.5,333.6 
L 692.2,324.6 L 692.9,338.8 L 693.6,332.6 L 694.3,334.9 L 695.0,329.5 L 695.7,336.7 L 696.4,331.3 L 697.1,333.6 L 697.8,326.6 L 698.6,335.7 
L 699.3,335.7 L 700.0,336.0 L 700.7,335.8 L 701.4,329.5 L 702.1,335.2 L 702.8,329.6 L 703.5,331.3 L 704.2,338.6 L 704.9,330.8 L 705.6,331.7 
L 706.3,336.0 L 707.1,328.7 L 707.8,329.3 L 708.5,327.1 L 709.2,332.3 L 709.9,328.9 L 710.6,334.8 L 711.3,330.7 L 712.0,334.5 L 712.7,334.3 
L 713.4,328.7 L 714.1,329.3 L 714.8,330.2 L 715.6,332.1 L 716.3,330.3 L 717.0,333.2 L 717.7,331.2 L 718.4,332.6 L 719.1,332.1 L 719.8,333.5 
L 720.5,335.8 L 721.2,336.7 L 721.9,336.4 L 722.6,327.0 L 723.4,333.5 L 724.1,330.4 L 724.8,330.3 L 725.5,324.6 L 726.2,327.1 L 726.9,327.2 
L 727.6,327.1 L 728.3,331.6 L 729.0,336.3 L 729.7,331.1 L 730.4,329.1 L 731.1,323.9 L 731.9,325.0 L 732.6,332.5 L 733.3,329.1 L 734.0,331.0 
L 734.7,333.9 L 735.4,333.6 L 736.1,332.5 L 736.8,328.3 L 737.5,331.9 L 738.2,330.9 L 738.9,329.2 L 739.6,334.0 L 740.4,331.4 L 741.1,338.0 
L 741.8,330.7 L 742.5,336.2 L 743.2,335.4 L 743.9,330.2 L 744.6,325.7 L 745.3,325.9 L 746.0,325.0 L 746.7,333.5 L 747.4,327.3 L 748.2,330.2 
L 748.9,330.8 L 749.6,330.0 L 750.3,328.6 L 751.0,325.0 L 751.7,332.0 L 752.4,329.8 L 753.1,327.1 L 753.8,327.7 L 754.5,329.2 L 755.2,337.6 
L 755.9,325.9 L 756.7,331.8 L 757.4,327.5 L 758.1,322.5 L 758.8,332.6 L 759.5,322.3 L 760.2,334.8 L 760.9,325.6 L 761.6,329.7 L 762.3,336.0 
L 763.0,329.8 L 763.7,335.9 L 764.4,337.1 L 765.2,340.5 L 765.9,326.5 L 766.6,334.1 L 767.3,330.6 L 768.0,327.3 L 768.7,324.3 L 769.4,330.5 
L 770.1,330.2 L 770.8,326.7 L 771.5,335.1 L 772.2,331.1 L 773.0,333.0 L 773.7,327.9 L 774.4,337.7 L 775.1,332.1 L 775.8,327.0 L 776.5,330.2 
L 777.2,333.1 L 777.9,327.8 L 778.6,328.6 L 779.3,322.6 L 780.0,322.7 L 780.7,334.6 L 781.5,334.2 L 782.2,334.7 L 782.9,335.9 L 783.6,328.5 
L 784.3,327.9 L 785.0,327.9 L 785.7,327.8 L 786.4,326.0 L 787.1,332.6 L 787.8,338.3 L 788.5,328.8 L 789.2,326.3 L 790.0,329.6 L 790.7,329.3 
L 791.4,328.4 L 792.1,328.9 L 792.8,332.0 L 793.5,335.3 L 794.2,326.7 L 794.9,329.8 L 795.6,331.4 L 796.3,333.8 L 797.0,333.1 L 797.8,323.4 
L 798.5,333.6 L 799.2,331.6 L 799.9,335.6 L 800.6,331.6 L 801.3,334.6 L 802.0,330.1 L 802.7,330.3 L 803.4,331.9 L 804.1,323.8 L 804.8,334.4 
L 805.5,330.7 L 806.3,329.4 L 807.0,328.2 L 807.7,330.8 L 808.4,333.5 L 809.1,329.1 L 809.8,334.8 L 810.5,337.8 L 811.2,332.0 L 811.9,336.9 
L 812.6,323.8 L 813.3,330.4 L 814.0,324.3 L 814.8,329.5 L 815.5,325.6 L 816.2,325.6 L 816.9,331.0 L 817.6,329.5 L 818.3,325.9 L 819.0,330.9 
L 819.7,330.8 L 820.4,329.8 L 821.1,333.5 L 821.8,333.9 L 822.6,327.4 L 823.3,334.3 L 824.0,332.5 L 824.7,336.0 L 825.4,333.9 L 826.1,332.0 
L 826.8,329.8 L 827.5,325.5 L 828.2,331.6 L 828.9,335.5 L 829.6,329.3 L 830.3,325.5 L 831.1,335.0 L 831.8,328.3 L 832.5,332.6 L 833.2,330.3 
L 833.9,327.0 L 834.6,327.8 L 835.3,333.2 L 836.0,335.8 L 836.7,327.6 L 837.4,334.8 L 838.1,325.9 L 838.8,334.0 L 839.6,330.0 L 840.3,331.6 
L 841.0,331.6 L 841.7,328.6 L 842.4,328.4 L 843.1,340.2 L 843.8,332.9 L 844.5,336.4 L 845.2,329.6 L 845.9,331.5 L 846.6,333.4 L 847.3,326.8 
L 848.1,325.7 L 848.8,326.0 L 849.5,332.2 L 850.2,331.2 L 850.9,327.7 L 851.6,327.6 L 852.3,330.6 L 853.0,330.8 L 853.7,324.3 L 854.4,333.7 
L 855.1,331.9 L 855.9,323.1 L 856.6,326.6 L 857.3,328.2 L 858.0,325.7 L 858.7,332.4 L 859.4,327.5 L 860.1,330.2 L 860.8,334.1 L 861.5,334.1 
L 862.2,327.3 L 862.9,337.6 L 863.6,323.8 L 864.4,332.1 L 865.1,329.1 L 865.8,328.4 L 866.5,328.5 L 867.2,335.4 L 867.9,327.9 L 868.6,331.8 
L 869.3,330.2 L 870.0,329.3 L 870.7,331.9 L 871.4,331.4 L 872.1,330.9 L 872.9,332.1 L 873.6,331.6 L 874.3,332.0 L 875.0,324.5 "
 />
<path stroke="#000080" stroke-width="1" fill="none"
  d="



































































































"
 />
<path stroke="#000080" stroke-width="1" fill="none"
  d="



































































































"
 />
<path stroke="#000000" stroke-width="1" fill="none"
  d=""
 />
<path stroke="#000000" stroke-width="1" fill="none"
  d="M 167.1,640.4 
L 167.8,560.1 L 168.5,543.0 L 169.3,529.8 L 170.0,516.6 L 170.7,507.9 L 171.4,499.5 L 172.1,504.5 L 172.8,504.2 L 173.5,490.8 L 174.2,489.2 
L 174.9,492.3 L 175.6,487.6 L 176.3,489.4 L 177.0,478.1 L 177.8,474.8 L 178.5,477.9 L 179.2,480.2 L 179.9,476.3 L 180.6,464.9 L 181.3,483.5 
L 182.0,464.7 L 182.7,461.0 L 183.4,460.8 L 184.1,462.3 L 184.8,463.8 L 185.6,461.0 L 186.3,473.2 L 187.0,459.0 L 187.7,457.5 L 188.4,457.5 
L 189.1,452.5 L 189.8,461.6 L 190.5,463.9 L 191.2,463.9 L 191.9,452.4 L 192.6,461.6 L 193.3,463.8 L 194.1,451.8 L 194.8,458.5 L 195.5,447.4 
L 196.2,450.7 L 196.9,452.5 L 197.6,459.1 L 198.3,456.3 L 199.0,441.4 L 199.7,461.6 L 200.4,455.3 L 201.1,452.6 L 201.8,444.4 L 202.6,456.1 
L 203.3,454.7 L 204.0,445.1 L 204.7,451.7 L 205.4,457.3 L 206.1,448.0 L 206.8,449.6 L 207.5,450.2 L 208.2,447.0 L 208.9,449.9 L 209.6,454.5 
L 210.4,455.7 L 211.1,450.2 L 211.8,448.2 L 212.5,440.5 L 213.2,447.8 L 213.9,454.3 L 214.6,443.6 L 215.3,447.3 L 216.0,449.8 L 216.7,455.6 
L 217.4,439.3 L 218.1,448.9 L 218.9,441.3 L 219.6,449.1 L 220.3,446.4 L 221.0,454.4 L 221.7,447.5 L 222.4,444.9 L 223.1,445.8 L 223.8,436.0 
L 224.5,446.0 L 225.2,448.0 L 225.9,440.5 L 226.6,432.7 L 227.4,443.6 L 228.1,444.9 L 228.8,429.3 L 229.5,441.4 L 230.2,446.6 L 230.9,436.7 
L 231.6,433.5 L 232.3,442.2 L 233.0,440.8 L 233.7,445.6 L 234.4,441.2 L 235.2,436.7 L 235.9,435.8 L 236.6,435.9 L 237.3,442.6 L 238.0,433.6 
L 238.7,437.6 L 239.4,442.1 L 240.1,437.0 L 240.8,438.1 L 241.5,441.6 L 242.2,443.5 L 242.9,436.0 L 243.7,428.7 L 244.4,437.1 L 245.1,429.9 
L 245.8,430.0 L 246.5,431.5 L 247.2,433.5 L 247.9,432.4 L 248.6,433.1 L 249.3,441.1 L 250.0,427.0 L 250.7,436.2 L 251.4,431.5 L 252.2,436.6 
L 252.9,438.4 L 253.6,426.0 L 254.3,428.8 L 255.0,429.8 L 255.7,433.6 L 256.4,424.5 L 257.1,430.7 L 257.8,438.1 L 258.5,419.6 L 259.2,423.4 
L 260.0,426.0 L 260.7,434.8 L 261.4,425.9 L 262.1,436.4 L 262.8,427.1 L 263.5,422.1 L 264.2,435.2 L 264.9,425.8 L 265.6,431.4 L 266.3,419.4 
L 267.0,430.9 L 267.7,429.3 L 268.5,424.1 L 269.2,432.7 L 269.9,432.4 L 270.6,426.3 L 271.3,427.6 L 272.0,427.6 L 272.7,426.1 L 273.4,426.0 
L 274.1,432.7 L 274.8,429.5 L 275.5,428.6 L 276.2,432.2 L 277.0,436.9 L 277.7,436.8 L 278.4,432.5 L 279.1,428.6 L 279.8,429.1 L 280.5,420.6 
L 281.2,427.2 L 281.9,426.3 L 282.6,424.4 L 283.3,427.5 L 284.0,431.1 L 284.8,429.7 L 285.5,414.1 L 286.2,430.1 L 286.9,430.9 L 287.6,428.7 
L 288.3,420.3 L 289.0,427.5 L 289.7,427.8 L 290.4,426.2 L 291.1,427.6 L 291.8,422.6 L 292.5,421.2 L 293.3,424.3 L 294.0,423.6 L 294.7,424.2 
L 295.4,425.1 L 296.1,421.4 L 296.8,418.7 L 297.5,421.2 L 298.2,425.2 L 298.9,428.0 L 299.6,420.5 L 300.3,417.9 L 301.0,414.4 L 301.8,422.1 
L 302.5,423.1 L 303.2,420.7 L 303.9,416.7 L 304.6,422.5 L 305.3,427.1 L 306.0,428.4 L 306.7,431.6 L 307.4,431.2 L 308.1,416.8 L 308.8,424.7 
L 309.6,425.4 L 310.3,420.8 L 311.0,415.2 L 311.7,412.8 L 312.4,427.3 L 313.1,416.7 L 313.8,416.6 L 314.5,414.1 L 315.2,419.6 L 315.9,418.9 
L 316.6,418.2 L 317.3,414.6 L 318.1,420.4 L 318.8,420.6 L 319.5,422.5 L 320.2,422.9 L 320.9,425.0 L 321.6,412.6 L 322.3,416.9 L 323.0,421.2 
L 323.7,414.8 L 324.4,415.6 L 325.1,426.8 L 325.8,419.2 L 326.6,427.6 L 327.3,413.6 L 328.0,416.3 L 328.7,418.3 L 329.4,419.8 L 330.1,412.5 
L 330.8,418.2 L 331.5,412.2 L 332.2,416.8 L 332.9,413.5 L 333.6,418.7 L 334.4,420.5 L 335.1,424.6 L 335.8,414.4 L 336.5,421.5 L 337.2,422.1 
L 337.9,425.5 L 338.6,418.5 L 339.3,409.8 L 340.0,429.2 L 340.7,417.5 L 341.4,420.0 L 342.1,413.1 L 342.9,415.2 L 343.6,415.9 L 344.3,417.8 
L 345.0,427.7 L 345.7,422.4 L 346.4,416.4 L 347.1,413.7 L 347.8,420.1 L 348.5,420.9 L 349.2,413.2 L 349.9,415.2 L 350.6,419.8 L 351.4,416.9 
L 352.1,414.2 L 352.8,414.0 L 353.5,413.7 L 354.2,414.7 L 354.9,416.1 L 355.6,422.0 L 356.3,419.1 L 357.0,416.0 L 357.7,416.5 L 358.4,419.9 
L 359.2,418.9 L 359.9,415.3 L 360.6,424.1 L 361.3,411.9 L 362.0,408.2 L 362.7,413.0 L 363.4,413.4 L 364.1,411.5 L 364.8,411.9 L 365.5,409.7 
L 366.2,407.2 L 366.9,412.7 L 367.7,413.0 L 368.4,420.4 L 369.1,421.0 L 369.8,417.9 L 370.5,411.3 L 371.2,415.6 L 371.9,417.2 L 372.6,413.4 
L 373.3,414.9 L 374.0,421.5 L 374.7,415.8 L 375.4,418.0 L 376.2,417.0 L 376.9,410.0 L 377.6,416.7 L 378.3,420.5 L 379.0,408.8 L 379.7,411.9 
L 380.4,414.3 L 381.1,422.1 L 381.8,418.2 L 382.5,418.7 L 383.2,408.1 L 383.9,416.3 L 384.7,416.2 L 385.4,418.4 L 386.1,413.7 L 386.8,415.8 
L 387.5,419.4 L 388.2,410.6 L 388.9,415.4 L 389.6,414.0 L 390.3,420.7 L 391.0,411.2 L 391.7,413.2 L 392.5,419.4 L 393.2,401.5 L 393.9,412.8 
L 394.6,413.6 L 395.3,420.8 L 396.0,422.6 L 396.7,408.9 L 397.4,418.1 L 398.1,411.7 L 398.8,410.7 L 399.5,411.3 L 400.2,415.9 L 401.0,410.9 
L 401.7,413.8 L 402.4,405.2 L 403.1,411.1 L 403.8,413.5 L 404.5,408.2 L 405.2,416.1 L 405.9,415.5 L 406.6,416.8 L 407.3,414.6 L 408.0,408.3 
L 408.7,409.1 L 409.5,411.3 L 410.2,411.6 L 410.9,408.9 L 411.6,410.6 L 412.3,413.3 L 413.0,414.8 L 413.7,415.6 L 414.4,410.5 L 415.1,413.2 
L 415.8,405.9 L 416.5,408.3 L 417.3,416.4 L 418.0,411.6 L 418.7,416.5 L 419.4,408.7 L 420.1,416.1 L 420.8,412.9 L 421.5,406.8 L 422.2,407.5 
L 422.9,412.4 L 423.6,411.4 L 424.3,408.1 L 425.0,405.5 L 425.8,420.2 L 426.5,414.3 L 427.2,413.7 L 427.9,409.4 L 428.6,415.9 L 429.3,413.0 
L 430.0,408.3 L 430.7,407.6 L 431.4,408.2 L 432.1,412.0 L 432.8,411.8 L 433.5,421.0 L 434.3,413.9 L 435.0,418.7 L 435.7,415.9 L 436.4,414.5 
L 437.1,410.2 L 437.8,406.8 L 438.5,411.0 L 439.2,408.8 L 439.9,416.1 L 440.6,405.8 L 441.3,410.2 L 442.1,403.2 L 442.8,404.1 L 443.5,414.1 
L 444.2,403.2 L 444.9,407.5 L 445.6,408.2 L 446.3,406.4 L 447.0,407.6 L 447.7,409.4 L 448.4,410.2 L 449.1,412.2 L 449.8,408.3 L 450.6,402.7 
L 451.3,409.2 L 452.0,407.4 L 452.7,410.1 L 453.4,408.6 L 454.1,412.4 L 454.8,405.2 L 455.5,408.8 L 456.2,417.8 L 456.9,404.3 L 457.6,403.1 
L 458.3,409.0 L 459.1,406.4 L 459.8,404.9 L 460.5,404.5 L 461.2,411.3 L 461.9,396.6 L 462.6,412.7 L 463.3,411.3 L 464.0,412.8 L 464.7,407.6 
L 465.4,407.5 L 466.1,412.7 L 466.9,403.5 L 467.6,411.0 L 468.3,410.9 L 469.0,409.5 L 469.7,412.3 L 470.4,413.8 L 471.1,410.6 L 471.8,412.2 
L 472.5,409.6 L 473.2,406.0 L 473.9,412.0 L 474.6,402.8 L 475.4,406.0 L 476.1,408.1 L 476.8,413.8 L 477.5,404.5 L 478.2,411.4 L 478.9,407.6 
L 479.6,406.9 L 480.3,408.5 L 481.0,401.4 L 481.7,401.2 L 482.4,413.0 L 483.1,406.4 L 483.9,401.1 L 484.6,401.1 L 485.3,407.7 L 486.0,415.4 
L 486.7,409.5 L 487.4,403.4 L 488.1,405.1 L 488.8,402.0 L 489.5,408.7 L 490.2,402.4 L 490.9,407.4 L 491.7,401.4 L 492.4,403.8 L 493.1,408.4 
L 493.8,399.3 L 494.5,411.0 L 495.2,405.5 L 495.9,409.5 L 496.6,405.7 L 497.3,408.3 L 498.0,403.1 L 498.7,405.4 L 499.4,412.1 L 500.2,399.0 
L 500.9,401.4 L 501.6,407.3 L 502.3,405.1 L 503.0,395.8 L 503.7,406.9 L 504.4,412.8 L 505.1,407.8 L 505.8,404.4 L 506.5,401.4 L 507.2,402.1 
L 507.9,402.6 L 508.7,407.7 L 509.4,405.5 L 510.1,402.4 L 510.8,399.6 L 511.5,410.1 L 512.2,412.1 L 512.9,400.8 L 513.6,404.2 L 514.3,408.9 
L 515.0,407.5 L 515.7,402.8 L 516.5,404.9 L 517.2,404.2 L 517.9,407.1 L 518.6,399.1 L 519.3,403.7 L 520.0,404.4 L 520.7,406.6 L 521.4,403.9 
L 522.1,407.4 L 522.8,408.0 L 523.5,406.4 L 524.2,414.2 L 525.0,407.4 L 525.7,405.1 L 526.4,402.5 L 527.1,402.5 L 527.8,407.2 L 528.5,401.2 
L 529.2,412.0 L 529.9,405.7 L 530.6,402.0 L 531.3,411.9 L 532.0,400.1 L 532.7,408.0 L 533.5,407.5 L 534.2,414.8 L 534.9,411.5 L 535.6,395.9 
L 536.3,402.7 L 537.0,406.1 L 537.7,407.7 L 538.4,411.4 L 539.1,413.0 L 539.8,405.0 L 540.5,404.8 L 541.3,402.6 L 542.0,405.5 L 542.7,399.4 
L 543.4,405.5 L 544.1,404.0 L 544.8,400.0 L 545.5,407.7 L 546.2,400.0 L 546.9,409.5 L 547.6,408.1 L 548.3,408.4 L 549.0,396.9 L 549.8,407.8 
L 550.5,400.3 L 551.2,405.5 L 551.9,397.2 L 552.6,405.6 L 553.3,406.2 L 554.0,398.5 L 554.7,401.0 L 555.4,403.1 L 556.1,402.9 L 556.8,410.9 
L 557.5,403.1 L 558.3,408.4 L 559.0,411.1 L 559.7,400.9 L 560.4,401.9 L 561.1,404.8 L 561.8,402.8 L 562.5,411.1 L 563.2,399.7 L 563.9,396.7 
L 564.6,405.8 L 565.3,402.4 L 566.1,399.7 L 566.8,393.8 L 567.5,410.5 L 568.2,410.1 L 568.9,399.1 L 569.6,399.1 L 570.3,406.1 L 571.0,406.2 
L 571.7,405.1 L 572.4,401.6 L 573.1,401.1 L 573.8,408.3 L 574.6,406.9 L 575.3,400.6 L 576.0,404.7 L 576.7,403.1 L 577.4,404.2 L 578.1,412.8 
L 578.8,401.5 L 579.5,400.2 L 580.2,406.8 L 580.9,412.6 L 581.6,398.1 L 582.3,405.7 L 583.1,403.0 L 583.8,400.1 L 584.5,402.0 L 585.2,412.0 
L 585.9,401.1 L 586.6,405.2 L 587.3,407.8 L 588.0,408.0 L 588.7,403.8 L 589.4,406.4 L 590.1,406.0 L 590.9,414.7 L 591.6,405.4 L 592.3,402.0 
L 593.0,398.2 L 593.7,399.7 L 594.4,396.6 L 595.1,403.2 L 595.8,394.4 L 596.5,406.0 L 597.2,406.8 L 597.9,405.1 L 598.6,408.1 L 599.4,403.2 
L 600.1,407.0 L 600.8,399.5 L 601.5,401.7 L 602.2,398.8 L 602.9,399.8 L 603.6,405.7 L 604.3,402.5 L 605.0,406.4 L 605.7,404.3 L 606.4,405.4 
L 607.1,397.8 L 607.9,399.3 L 608.6,408.8 L 609.3,403.1 L 610.0,403.4 L 610.7,404.2 L 611.4,397.5 L 612.1,403.9 L 612.8,400.8 L 613.5,398.1 
L 614.2,403.2 L 614.9,401.1 L 615.6,399.3 L 616.4,394.7 L 617.1,395.0 L 617.8,402.1 L 618.5,400.4 L 619.2,400.1 L 619.9,401.1 L 620.6,403.6 
L 621.3,397.6 L 622.0,407.1 L 622.7,412.3 L 623.4,398.4 L 624.2,398.7 L 624.9,406.1 L 625.6,402.9 L 626.3,402.5 L 627.0,400.8 L 627.7,404.9 
L 628.4,406.3 L 629.1,402.1 L 629.8,400.4 L 630.5,401.8 L 631.2,402.8 L 631.9,403.3 L 632.7,399.8 L 633.4,405.0 L 634.1,402.3 L 634.8,401.1 
L 635.5,399.5 L 636.2,399.4 L 636.9,399.6 L 637.6,400.5 L 638.3,395.3 L 639.0,407.0 L 639.7,398.2 L 640.4,398.4 L 641.2,396.8 L 641.9,397.1 
L 642.6,399.8 L 643.3,394.0 L 644.0,396.6 L 644.7,404.5 L 645.4,401.1 L 646.1,402.1 L 646.8,392.7 L 647.5,401.2 L 648.2,397.1 L 649.0,407.1 
L 649.7,403.1 L 650.4,400.2 L 651.1,403.5 L 651.8,404.6 L 652.5,400.6 L 653.2,401.3 L 653.9,408.5 L 654.6,402.0 L 655.3,400.7 L 656.0,392.2 
L 656.7,405.0 L 657.5,397.4 L 658.2,400.3 L 658.9,401.3 L 659.6,403.2 L 660.3,408.9 L 661.0,402.7 L 661.7,401.0 L 662.4,398.6 L 663.1,398.4 
L 663.8,397.7 L 664.5,402.8 L 665.2,403.9 L 666.0,399.1 L 666.7,403.4 L 667.4,396.7 L 668.1,401.0 L 668.8,399.0 L 669.5,396.9 L 670.2,400.2 
L 670.9,405.3 L 671.6,407.9 L 672.3,402.5 L 673.0,402.7 L 673.8,397.2 L 674.5,400.7 L 675.2,403.7 L 675.9,395.3 L 676.6,401.0 L 677.3,399.2 
L 678.0,403.9 L 678.7,401.9 L 679.4,401.4 L 680.1,403.5 L 680.8,404.7 L 681.5,400.0 L 682.3,398.9 L 683.0,401.3 L 683.7,395.4 L 684.4,396.8 
L 685.1,390.8 L 685.8,399.5 L 686.5,392.6 L 687.2,398.4 L 687.9,403.3 L 688.6,403.8 L 689.3,397.3 L 690.0,400.5 L 690.8,405.1 L 691.5,396.4 
L 692.2,398.0 L 692.9,402.1 L 693.6,401.2 L 694.3,405.9 L 695.0,400.7 L 695.7,404.7 L 696.4,400.1 L 697.1,401.4 L 697.8,395.5 L 698.6,402.4 
L 699.3,401.6 L 700.0,405.6 L 700.7,407.5 L 701.4,397.9 L 702.1,406.3 L 702.8,399.6 L 703.5,396.9 L 704.2,406.4 L 704.9,397.6 L 705.6,400.2 
L 706.3,408.6 L 707.1,399.0 L 707.8,400.2 L 708.5,397.2 L 709.2,398.7 L 709.9,393.3 L 710.6,401.1 L 711.3,401.6 L 712.0,398.7 L 712.7,400.1 
L 713.4,397.0 L 714.1,398.2 L 714.8,401.0 L 715.6,400.5 L 716.3,400.1 L 717.0,396.4 L 717.7,396.6 L 718.4,400.8 L 719.1,397.5 L 719.8,397.8 
L 720.5,403.3 L 721.2,405.1 L 721.9,408.5 L 722.6,390.7 L 723.4,399.4 L 724.1,399.7 L 724.8,403.2 L 725.5,398.2 L 726.2,401.7 L 726.9,398.5 
L 727.6,393.9 L 728.3,398.2 L 729.0,399.0 L 729.7,399.6 L 730.4,397.3 L 731.1,396.6 L 731.9,396.4 L 732.6,402.6 L 733.3,394.0 L 734.0,396.9 
L 734.7,407.8 L 735.4,397.3 L 736.1,403.7 L 736.8,399.2 L 737.5,400.5 L 738.2,401.9 L 738.9,397.7 L 739.6,402.7 L 740.4,398.5 L 741.1,395.9 
L 741.8,393.7 L 742.5,405.0 L 743.2,399.7 L 743.9,396.1 L 744.6,397.8 L 745.3,400.0 L 746.0,394.5 L 746.7,400.2 L 747.4,396.3 L 748.2,394.5 
L 748.9,403.0 L 749.6,391.9 L 750.3,396.5 L 751.0,394.8 L 751.7,397.0 L 752.4,399.2 L 753.1,390.9 L 753.8,396.0 L 754.5,400.3 L 755.2,407.9 
L 755.9,395.6 L 756.7,396.8 L 757.4,399.5 L 758.1,389.9 L 758.8,398.0 L 759.5,394.5 L 760.2,401.4 L 760.9,395.2 L 761.6,396.5 L 762.3,401.7 
L 763.0,392.7 L 763.7,403.9 L 764.4,399.9 L 765.2,408.1 L 765.9,395.5 L 766.6,404.2 L 767.3,398.5 L 768.0,395.2 L 768.7,391.7 L 769.4,394.9 
L 770.1,402.2 L 770.8,399.2 L 771.5,402.9 L 772.2,406.3 L 773.0,400.2 L 773.7,402.6 L 774.4,405.4 L 775.1,399.7 L 775.8,394.5 L 776.5,398.0 
L 777.2,396.8 L 777.9,389.5 L 778.6,398.2 L 779.3,391.0 L 780.0,392.3 L 780.7,394.7 L 781.5,398.9 L 782.2,395.9 L 782.9,403.7 L 783.6,395.0 
L 784.3,396.1 L 785.0,396.3 L 785.7,398.8 L 786.4,397.8 L 787.1,400.9 L 787.8,401.5 L 788.5,394.5 L 789.2,395.3 L 790.0,395.8 L 790.7,393.2 
L 791.4,399.1 L 792.1,399.2 L 792.8,399.7 L 793.5,397.7 L 794.2,395.4 L 794.9,398.1 L 795.6,401.9 L 796.3,398.0 L 797.0,398.0 L 797.8,399.7 
L 798.5,402.0 L 799.2,396.0 L 799.9,403.3 L 800.6,397.1 L 801.3,402.0 L 802.0,393.7 L 802.7,398.8 L 803.4,399.6 L 804.1,392.6 L 804.8,400.1 
L 805.5,398.1 L 806.3,399.8 L 807.0,396.9 L 807.7,400.7 L 808.4,400.4 L 809.1,397.7 L 809.8,396.4 L 810.5,400.9 L 811.2,402.1 L 811.9,405.4 
L 812.6,395.1 L 813.3,397.7 L 814.0,394.2 L 814.8,396.2 L 815.5,397.2 L 816.2,394.4 L 816.9,398.3 L 817.6,391.6 L 818.3,393.3 L 819.0,394.3 
L 819.7,397.5 L 820.4,402.8 L 821.1,402.4 L 821.8,399.3 L 822.6,393.5 L 823.3,398.1 L 824.0,399.9 L 824.7,402.0 L 825.4,403.3 L 826.1,402.2 
L 826.8,394.7 L 827.5,392.3 L 828.2,393.2 L 828.9,401.4 L 829.6,398.6 L 830.3,393.1 L 831.1,398.3 L 831.8,396.2 L 832.5,401.7 L 833.2,391.3 
L 833.9,394.0 L 834.6,401.2 L 835.3,401.3 L 836.0,395.7 L 836.7,402.7 L 837.4,404.4 L 838.1,398.3 L 838.8,399.7 L 839.6,394.4 L 840.3,398.1 
L 841.0,399.9 L 841.7,394.8 L 842.4,397.1 L 843.1,401.5 L 843.8,399.1 L 844.5,404.8 L 845.2,392.8 L 845.9,398.3 L 846.6,400.5 L 847.3,394.7 
L 848.1,397.1 L 848.8,393.4 L 849.5,402.5 L 850.2,400.0 L 850.9,394.1 L 851.6,391.5 L 852.3,398.0 L 853.0,397.0 L 853.7,391.8 L 854.4,394.8 
L 855.1,394.1 L 855.9,388.9 L 856.6,392.1 L 857.3,394.6 L 858.0,398.7 L 858.7,404.9 L 859.4,397.7 L 860.1,393.6 L 860.8,399.6 L 861.5,400.1 
L 862.2,394.2 L 862.9,408.3 L 863.6,389.3 L 864.4,389.8 L 865.1,392.2 L 865.8,392.6 L 866.5,394.5 L 867.2,398.9 L 867.9,395.0 L 868.6,398.4 
L 869.3,400.3 L 870.0,397.0 L 870.7,397.2 L 871.4,398.6 L 872.1,400.1 L 872.9,396.8 L 873.6,397.4 L 874.3,401.6 L 875.0,391.9 "
 />
<path stroke="#000000" stroke-width="1" fill="none"
  d="



































































































"
 />
<path stroke="#000000" stroke-width="1" fill="none"
  d="



































































































"
 />

</g>
</svg>
