<?xml version="1.0"?>
<!-- Generated by SVGo and Plotinum VG -->
<svg width="328.88pt" height="346.12pt" viewBox="0 0 328.88 346.12"
	xmlns="http://www.w3.org/2000/svg"
	xmlns:xlink="http://www.w3.org/1999/xlink">
<g transform="scale(1, -1) translate(0, -346.12)">
<text x="102.41" y="-334.61" transform="scale(1, -1)"
	style="font-family:Helvetica;font-weight:normal;font-style:normal;font-size:12px">Face Random Prjn Plot</text>
<text x="154.34" y="-3.8789" transform="scale(1, -1)"
	style="font-family:Helvetica;font-weight:normal;font-style:normal;font-size:12px">RndPrjn0</text>
<text x="36.428" y="-15.599" transform="scale(1, -1)"
	style="font-family:Helvetica;font-weight:normal;font-style:normal;font-size:10px">-1</text>
<text x="176.57" y="-15.599" transform="scale(1, -1)"
	style="font-family:Helvetica;font-weight:normal;font-style:normal;font-size:10px">0</text>
<text x="315.05" y="-15.599" transform="scale(1, -1)"
	style="font-family:Helvetica;font-weight:normal;font-style:normal;font-size:10px">1</text>
<path d="M40.874,25.198L40.874,33.198" style="fill:none;stroke:#000000;stroke-width:0.5" />
<path d="M179.35,25.198L179.35,33.198" style="fill:none;stroke:#000000;stroke-width:0.5" />
<path d="M317.83,25.198L317.83,33.198" style="fill:none;stroke:#000000;stroke-width:0.5" />
<path d="M68.569,29.198L68.569,33.198" style="fill:none;stroke:#000000;stroke-width:0.5" />
<path d="M96.264,29.198L96.264,33.198" style="fill:none;stroke:#000000;stroke-width:0.5" />
<path d="M123.96,29.198L123.96,33.198" style="fill:none;stroke:#000000;stroke-width:0.5" />
<path d="M151.65,29.198L151.65,33.198" style="fill:none;stroke:#000000;stroke-width:0.5" />
<path d="M207.05,29.198L207.05,33.198" style="fill:none;stroke:#000000;stroke-width:0.5" />
<path d="M234.74,29.198L234.74,33.198" style="fill:none;stroke:#000000;stroke-width:0.5" />
<path d="M262.44,29.198L262.44,33.198" style="fill:none;stroke:#000000;stroke-width:0.5" />
<path d="M290.13,29.198L290.13,33.198" style="fill:none;stroke:#000000;stroke-width:0.5" />
<path d="M40.874,33.198L317.83,33.198" style="fill:none;stroke:#000000;stroke-width:0.5" />
<g transform="rotate(90)">
<text x="154.69" y="11.52" transform="scale(1, -1)"
	style="font-family:Helvetica;font-weight:normal;font-style:normal;font-size:12px">TrialName</text>
</g>
<text x="15.398" y="-33.749" transform="scale(1, -1)"
	style="font-family:Helvetica;font-weight:normal;font-style:normal;font-size:10px">-1</text>
<text x="18.729" y="-177.44" transform="scale(1, -1)"
	style="font-family:Helvetica;font-weight:normal;font-style:normal;font-size:10px">0</text>
<text x="18.729" y="-321.13" transform="scale(1, -1)"
	style="font-family:Helvetica;font-weight:normal;font-style:normal;font-size:10px">1</text>
<path d="M27.068,38.448L35.068,38.448" style="fill:none;stroke:#000000;stroke-width:0.5" />
<path d="M27.068,182.14L35.068,182.14" style="fill:none;stroke:#000000;stroke-width:0.5" />
<path d="M27.068,325.83L35.068,325.83" style="fill:none;stroke:#000000;stroke-width:0.5" />
<path d="M31.068,67.186L35.068,67.186" style="fill:none;stroke:#000000;stroke-width:0.5" />
<path d="M31.068,95.924L35.068,95.924" style="fill:none;stroke:#000000;stroke-width:0.5" />
<path d="M31.068,124.66L35.068,124.66" style="fill:none;stroke:#000000;stroke-width:0.5" />
<path d="M31.068,153.4L35.068,153.4" style="fill:none;stroke:#000000;stroke-width:0.5" />
<path d="M31.068,210.88L35.068,210.88" style="fill:none;stroke:#000000;stroke-width:0.5" />
<path d="M31.068,239.61L35.068,239.61" style="fill:none;stroke:#000000;stroke-width:0.5" />
<path d="M31.068,268.35L35.068,268.35" style="fill:none;stroke:#000000;stroke-width:0.5" />
<path d="M31.068,297.09L35.068,297.09" style="fill:none;stroke:#000000;stroke-width:0.5" />
<path d="M35.068,38.448L35.068,325.83" style="fill:none;stroke:#000000;stroke-width:0.5" />
<path d="M220.8,170.1A3,3 0 1 1 214.8,170.1A3,3 0 1 1 220.8,170.1Z" style="fill:none;stroke:#800080;stroke-width:0.5" />
<text x="217.8" y="-170.28" transform="scale(1, -1)"
	style="font-family:Times;font-weight:normal;font-style:normal;font-size:10px">Alberto_happy</text>
<path d="M189.31,162.69A3,3 0 1 1 183.31,162.69A3,3 0 1 1 189.31,162.69Z" style="fill:none;stroke:#800080;stroke-width:0.5" />
<path d="M280.77,226.5A3,3 0 1 1 274.77,226.5A3,3 0 1 1 280.77,226.5Z" style="fill:none;stroke:#800080;stroke-width:0.5" />
<text x="186.31" y="-162.88" transform="scale(1, -1)"
	style="font-family:Times;font-weight:normal;font-style:normal;font-size:10px">Alberto_sad</text>
<text x="277.77" y="-226.68" transform="scale(1, -1)"
	style="font-family:Times;font-weight:normal;font-style:normal;font-size:10px">Betty_happy</text>
<path d="M275.63,193.12A3,3 0 1 1 269.63,193.12A3,3 0 1 1 275.63,193.12Z" style="fill:none;stroke:#800080;stroke-width:0.5" />
<text x="272.63" y="-193.3" transform="scale(1, -1)"
	style="font-family:Times;font-weight:normal;font-style:normal;font-size:10px">Betty_sad</text>
<path d="M224.21,188.84A3,3 0 1 1 218.21,188.84A3,3 0 1 1 224.21,188.84Z" style="fill:none;stroke:#800080;stroke-width:0.5" />
<text x="221.21" y="-189.03" transform="scale(1, -1)"
	style="font-family:Times;font-weight:normal;font-style:normal;font-size:10px">Lisa_happy</text>
<path d="M221.35,147.85A3,3 0 1 1 215.35,147.85A3,3 0 1 1 221.35,147.85Z" style="fill:none;stroke:#800080;stroke-width:0.5" />
<text x="218.35" y="-148.03" transform="scale(1, -1)"
	style="font-family:Times;font-weight:normal;font-style:normal;font-size:10px">Lisa_sad</text>
<path d="M154.12,210.59A3,3 0 1 1 148.12,210.59A3,3 0 1 1 154.12,210.59Z" style="fill:none;stroke:#800080;stroke-width:0.5" />
<text x="151.12" y="-210.77" transform="scale(1, -1)"
	style="font-family:Times;font-weight:normal;font-style:normal;font-size:10px">Mark_happy</text>
<path d="M122.63,203.27A3,3 0 1 1 116.63,203.27A3,3 0 1 1 122.63,203.27Z" style="fill:none;stroke:#800080;stroke-width:0.5" />
<path d="M228.19,165.38A3,3 0 1 1 222.19,165.38A3,3 0 1 1 228.19,165.38Z" style="fill:none;stroke:#800080;stroke-width:0.5" />
<text x="119.63" y="-203.46" transform="scale(1, -1)"
	style="font-family:Times;font-weight:normal;font-style:normal;font-size:10px">Mark_sad</text>
<text x="225.19" y="-165.57" transform="scale(1, -1)"
	style="font-family:Times;font-weight:normal;font-style:normal;font-size:10px">Wendy_happy</text>
<path d="M215.94,125.04A3,3 0 1 1 209.94,125.04A3,3 0 1 1 215.94,125.04Z" style="fill:none;stroke:#800080;stroke-width:0.5" />
<text x="212.94" y="-125.22" transform="scale(1, -1)"
	style="font-family:Times;font-weight:normal;font-style:normal;font-size:10px">Wendy_sad</text>
<path d="M196.4,240.94A3,3 0 1 1 190.4,240.94A3,3 0 1 1 196.4,240.94Z" style="fill:none;stroke:#800080;stroke-width:0.5" />
<text x="193.4" y="-241.12" transform="scale(1, -1)"
	style="font-family:Times;font-weight:normal;font-style:normal;font-size:10px">Zane_happy</text>
<path d="M164.94,233.69A3,3 0 1 1 158.94,233.69A3,3 0 1 1 164.94,233.69Z" style="fill:none;stroke:#800080;stroke-width:0.5" />
<text x="161.94" y="-233.88" transform="scale(1, -1)"
	style="font-family:Times;font-weight:normal;font-style:normal;font-size:10px">Zane_sad</text>
<path d="M321.88,324.85A3,3 0 1 1 315.88,324.85A3,3 0 1 1 321.88,324.85Z" style="fill:none;stroke:#800080;stroke-width:0.5" />
<text x="255.51" y="-319.21" transform="scale(1, -1)"
	style="font-family:Helvetica;font-weight:normal;font-style:normal;font-size:12px">RndPrjn1</text>
</g>
</svg>
