<?xml version="1.0" encoding="ISO-8859-1" standalone="yes"?>
<svg width="184.659" height="90.8152">
  <defs> 
    <marker id="ArrowEnd" viewBox="0 0 10 10" refX="0" refY="5" 
     markerUnits="strokeWidth" 
     markerWidth="4" 
     markerHeight="3" 
     orient="auto"> 
        <path d="M 0 0 L 10 5 L 0 10 z" /> 
    </marker>
    <marker id="ArrowStart" viewBox="0 0 10 10" refX="10" refY="5" 
     markerUnits="strokeWidth" 
     markerWidth="4" 
     markerHeight="3" 
     orient="auto"> 
        <path d="M 10 0 L 0 5 L 10 10 z" /> 
    </marker> </defs>
<g>
<path style="stroke:none; fill-rule:evenodd; fill:#ffffff" d="M 14.398 32.9955L 41.1909 32.9955L 41.1909 10.0308L 14.398 10.0308L 14.398 32.9955z"/>
<path style="stroke:#000000; stroke-width:1.9139600000000001; fill:none" d="M 14.398 32.9955L 41.1909 32.9955L 41.1909 10.0308L 14.398 10.0308L 14.398 32.9955z"/>
<path style="stroke:none; fill-rule:evenodd; fill:#ffffff" d="M 33.5386 37.722L 60.3316 37.722L 60.3316 14.7568L 33.5386 14.7568L 33.5386 37.722z"/>
<path style="stroke:#000000; stroke-width:1.9139600000000001; fill:none" d="M 33.5386 37.722L 60.3316 37.722L 60.3316 14.7568L 33.5386 14.7568L 33.5386 37.722z"/>
<path style="stroke:none; fill-rule:evenodd; fill:#ffffff" d="M 52.1402 44.4173L 78.9331 44.4173L 78.9331 21.4525L 52.1402 21.4525L 52.1402 44.4173z"/>
<path style="stroke:#000000; stroke-width:1.9139600000000001; fill:none" d="M 52.1402 44.4173L 78.9331 44.4173L 78.9331 21.4525L 52.1402 21.4525L 52.1402 44.4173z"/>
<path style="stroke:none; fill-rule:evenodd; fill:#000000" d="M 66.1675 32.0423L 68.9917 27.9525L 67.7183 27.9525L 65.562 31.2611L 63.4175 27.9525L 62.1206 27.9525L 64.898 32.0423L 61.937 36.3509L 63.2339 36.3509L 65.5269 32.8626L 67.812 36.3509L 69.1323 36.3509L 66.1675 32.0423z"/>
<path style="stroke:none; fill-rule:evenodd; fill:#000000" d="M 65.7769 14.5498L 68.5073 14.5498C 69.4488 14.5498 69.8706 15.0068 69.8706 16.0388L 69.8706 16.7808C 69.8706 17.2962 69.9566 17.8001 70.105 18.1439L 71.3667 18.1439L 71.3667 17.8822C 70.9722 17.6087 70.8941 17.308 70.8706 16.1908C 70.8589 14.8118 70.6402 14.3938 69.7261 14.0028C 70.6831 13.5428 71.0698 12.9568 71.0698 11.9998C 71.0698 10.5498 70.1636 9.75276 68.523 9.75276L 64.6714 9.75276L 64.6714 18.1517L 65.7691 18.1517L 65.7769 14.5498zM 65.7144 13.6008L 65.7144 10.7218L 68.2964 10.7218C 68.8902 10.7218 69.2339 10.8118 69.4995 11.0428C 69.7847 11.2808 69.9331 11.6598 69.9331 12.1678C 69.9331 13.1518 69.4292 13.6008 68.2925 13.6008L 65.7144 13.6008z"/>
<path style="stroke:none; fill-rule:evenodd; fill:#ffffff" d="M 71.2769 50.1595L 98.07 50.1595L 98.07 27.1947L 71.2769 27.1947L 71.2769 50.1595z"/>
<path style="stroke:#000000; stroke-width:1.9139600000000001; fill:none" d="M 71.2769 50.1595L 98.07 50.1595L 98.07 27.1947L 71.2769 27.1947L 71.2769 50.1595z"/>
<path style="stroke:none; fill-rule:evenodd; fill:#000000" d="M 82.1792 42.1478L 85.9878 42.1478C 86.7847 42.1478 87.3745 41.929 87.8277 41.4486C 88.2417 41.0111 88.4761 40.4134 88.4761 39.7572C 88.4761 38.7455 88.0034 38.1322 86.9058 37.722C 87.6714 37.3666 88.0777 36.7455 88.0777 35.8939C 88.0777 35.2845 87.8511 34.7455 87.4097 34.3509C 86.9722 33.9486 86.398 33.765 85.5894 33.765L 82.1792 33.765L 82.1792 42.1478zM 83.2769 37.4486L 83.2769 34.6517L 85.3159 34.6517C 85.9058 34.6517 86.2339 34.7337 86.5152 34.9642C 86.8081 35.2025 86.9683 35.5658 86.9683 36.0501C 86.9683 36.5189 86.812 36.8939 86.5152 37.1361C 86.2339 37.3626 85.9058 37.4486 85.3159 37.4486L 83.2769 37.4486zM 83.2769 41.2494L 83.2769 38.3509L 85.8745 38.3509C 86.3862 38.3509 86.73 38.4759 86.9839 38.7533C 87.2339 39.0189 87.3706 39.3861 87.3706 39.804C 87.3706 40.2064 87.2339 40.5775 86.9839 40.8392C 86.7339 41.1126 86.3902 41.2416 85.8745 41.2416L 83.2769 41.2494z"/>
<path style="stroke:none; fill-rule:evenodd; fill:#ffffff" d="M 90.418 55.9017L 117.21 55.9017L 117.21 32.9369L 90.418 32.9369L 90.418 55.9017z"/>
<path style="stroke:#000000; stroke-width:1.9139600000000001; fill:none" d="M 90.418 55.9017L 117.21 55.9017L 117.21 32.9369L 90.418 32.9369L 90.418 55.9017z"/>
<path style="stroke:none; fill-rule:evenodd; fill:#000000" d="M 104.468 43.5423L 107.292 39.4525L 106.019 39.4525L 103.863 42.7611L 101.718 39.4525L 100.421 39.4525L 103.199 43.5423L 100.238 47.8509L 101.535 47.8509L 103.828 44.3626L 106.113 47.8509L 107.433 47.8509L 104.468 43.5423z"/>
<path style="stroke:none; fill-rule:evenodd; fill:#000000" d="M 103.878 21.2494L 102.781 21.2494L 102.781 29.6478L 107.98 29.6478L 107.98 28.7494L 103.882 28.7494L 103.878 21.2494z"/>
<path style="stroke:none; fill-rule:evenodd; fill:#ffffff" d="M 109.558 61.6439L 136.351 61.6439L 136.351 38.679L 109.558 38.679L 109.558 61.6439z"/>
<path style="stroke:#000000; stroke-width:1.9139600000000001; fill:none" d="M 109.558 61.6439L 136.351 61.6439L 136.351 38.679L 109.558 38.679L 109.558 61.6439z"/>
<path style="stroke:none; fill-rule:evenodd; fill:#ffffff" d="M 128.695 67.3861L 155.488 67.3861L 155.488 44.4212L 128.695 44.4212L 128.695 67.3861z"/>
<path style="stroke:#000000; stroke-width:1.9139600000000001; fill:none" d="M 128.695 67.3861L 155.488 67.3861L 155.488 44.4212L 128.695 44.4212L 128.695 67.3861z"/>
<path style="stroke:none; fill-rule:evenodd; fill:#ffffff" d="M 147.835 73.1283L 174.628 73.1283L 174.628 50.1634L 147.835 50.1634L 147.835 73.1283z"/>
<path style="stroke:#000000; stroke-width:1.9139600000000001; fill:none" d="M 147.835 73.1283L 174.628 73.1283L 174.628 50.1634L 147.835 50.1634L 147.835 73.1283z"/>
<path style="stroke:none; fill-rule:evenodd; fill:#000000" d="M 161.878 61.7533L 164.968 56.6517L 163.695 56.6517L 161.308 60.7533L 158.855 56.6517L 157.535 56.6517L 160.785 61.7533L 160.785 65.0462L 161.882 65.0462L 161.878 61.7533z"/>
<path style="stroke:none; fill-rule:evenodd; fill:#000000" d="M 65.7105 58.0345L 64.7691 57.7494L 65.2456 56.1673L 64.3355 55.8939L 63.8589 57.4759L 63.0816 57.2416L 62.8589 57.9876L 63.6362 58.222L 62.3198 62.5736C 62.1441 63.1556 62.437 63.6048 63.1519 63.8197C 63.3706 63.8822 63.5972 63.929 63.9214 63.9681L 64.1519 63.1986C 64.023 63.1947 63.8784 63.1634 63.7027 63.1126C 63.3081 62.9955 63.2339 62.8509 63.355 62.4447L 64.5464 58.4994L 65.4878 58.7845L 65.7105 58.0345z"/>
<path style="stroke:none; fill-rule:evenodd; fill:#000000" d="M 67.5698 58.5892L 66.6597 58.3158L 64.9175 64.0736L 65.8277 64.347L 67.5698 58.5892zM 68.2495 56.3353L 67.3277 56.058L 66.98 57.2103L 67.9019 57.4876L 68.2495 56.3353z"/>
<path style="stroke:none; fill-rule:evenodd; fill:#000000" d="M 69.1909 59.1244L 67.4488 64.8822L 68.3706 65.1595L 69.4644 61.5462C 69.7144 60.7142 70.523 60.2259 71.2691 60.4525C 71.9488 60.6556 72.2066 61.1908 71.9839 61.929L 70.7847 65.8939L 71.7066 66.1712L 72.8003 62.558C 73.0503 61.7259 73.8589 61.2376 74.605 61.4642C 75.273 61.6634 75.5386 62.2142 75.3198 62.9408L 74.1206 66.9056L 75.0425 67.183L 76.3472 62.8666C 76.6597 61.8353 76.2417 61.0853 75.1636 60.7572C 74.398 60.5267 73.8628 60.6166 73.1284 61.1009C 72.9761 60.3822 72.5933 59.9798 71.8472 59.7533C 71.0816 59.5228 70.4878 59.6556 69.7847 60.1947L 70.0269 59.3822L 69.1909 59.1244z"/>
<path style="stroke:none; fill-rule:evenodd; fill:#000000" d="M 82.1948 66.5853C 82.4605 65.7064 82.5542 65.1595 82.5191 64.683C 82.4331 63.6283 81.7261 62.7884 80.6519 62.4642C 79.0503 61.9798 77.6441 62.8939 77.0698 64.7845C 76.4995 66.6751 77.1441 68.14 78.7612 68.6283C 80.0777 69.0267 81.2144 68.558 81.8277 67.3744L 80.9058 67.097C 80.4253 67.7767 79.7886 68.015 79.0542 67.7923C 78.4722 67.6166 78.0581 67.2025 77.898 66.6283C 77.7808 66.2337 77.8042 65.8783 77.9605 65.308L 82.1948 66.5853zM 78.1988 64.558C 78.5972 63.515 79.4527 63.0228 80.3784 63.3001C 81.2769 63.5697 81.7456 64.5267 81.4566 65.472C 81.4527 65.4916 81.4448 65.515 81.4292 65.5306L 78.1988 64.558z"/>
<path style="stroke:#000000; stroke-width:1.9139600000000001; fill:none" d="M 10.0308 34.8509L 163.144 80.7845"/>
<path style="stroke:#000000; stroke-width:1.9139600000000001; fill:none" d="M 156.367 76.7533L 163.148 80.7845L 155.269 80.4212"/>
<path style="stroke:none; fill-rule:evenodd; fill:#000000" d="M 26.023 20.4486L 26.8823 22.9486L 28.0738 22.9486L 25.1362 14.5498L 23.7612 14.5498L 20.7769 22.9486L 21.9136 22.9486L 22.7964 20.4486L 26.023 20.4486zM 25.7222 19.5501L 23.062 19.5501L 24.437 15.7298L 25.7222 19.5501z"/>
<path style="stroke:none; fill-rule:evenodd; fill:#000000" d="M 47.2808 23.8744C 46.9448 22.0462 45.8823 21.1517 44.0308 21.1517C 42.898 21.1517 41.9839 21.5072 41.3628 22.1986C 40.6011 23.0267 40.187 24.222 40.187 25.5814C 40.187 26.9603 40.6128 28.1478 41.4097 28.9642C 42.0542 29.6322 42.8862 29.9408 43.9878 29.9408C 46.0464 29.9408 47.2027 28.8275 47.4566 26.5892L 46.3511 26.5892C 46.2612 27.179 46.148 27.5814 45.9722 27.929C 45.6284 28.64 44.9136 29.0423 44.0152 29.0423C 42.3472 29.0423 41.2886 27.6908 41.2886 25.5658C 41.2886 23.3861 42.3003 22.0462 43.9253 22.0462C 44.605 22.0462 45.2378 22.2572 45.5816 22.5814C 45.8902 22.8705 46.062 23.2337 46.1909 23.8666L 47.2808 23.8744z"/>
<path style="stroke:none; fill-rule:evenodd; fill:#000000" d="M 121.722 50.1478L 122.582 52.6478L 123.773 52.6478L 120.835 44.2494L 119.46 44.2494L 116.476 52.6478L 117.613 52.6478L 118.496 50.1478L 121.722 50.1478zM 121.421 49.2494L 118.761 49.2494L 120.136 45.429L 121.421 49.2494z"/>
<path style="stroke:none; fill-rule:evenodd; fill:#000000" d="M 142.078 50.9486L 136.078 50.9486L 136.078 51.847L 140.726 51.847L 135.675 58.4447L 135.675 59.3431L 142.074 59.3431L 142.074 58.4447L 137.042 58.4447L 142.074 51.9212L 142.078 50.9486z"/>
<path style="stroke:none; fill-rule:evenodd; fill:#000000" d="M 161.277 36.5501L 160.179 36.5501L 160.179 44.9486L 165.378 44.9486L 165.378 44.0501L 161.281 44.0501L 161.277 36.5501z"/>
</g>
</svg>