<?xml version="1.0" encoding="ISO-8859-1" standalone="yes"?>
<svg width="205.179" height="84.068">
  <defs> 
    <marker id="ArrowEnd" viewBox="0 0 10 10" refX="0" refY="5" 
     markerUnits="strokeWidth" 
     markerWidth="4" 
     markerHeight="3" 
     orient="auto"> 
        <path d="M 0 0 L 10 5 L 0 10 z" /> 
    </marker>
    <marker id="ArrowStart" viewBox="0 0 10 10" refX="10" refY="5" 
     markerUnits="strokeWidth" 
     markerWidth="4" 
     markerHeight="3" 
     orient="auto"> 
        <path d="M 10 0 L 0 5 L 10 10 z" /> 
    </marker> </defs>
<g>
<path style="stroke:#000000; stroke-width:1.9133; fill:none" d="M 47.1073 50.2073L 156.162 50.2073L 161.901 32.9883L 167.639 50.2073L 182.944 50.2073"/>
<path style="stroke:#000000; stroke-width:1.9133; fill:none" d="M 47.1073 27.2463L 70.0643 27.2463L 70.0643 10.0273L 167.643 10.0273L 167.643 27.2463L 182.948 27.2463"/>
<path style="stroke:#000000; stroke-dasharray:6,3; stroke-width:0.95664899999999997; fill:none" d="M 5.01365 27.2463L 200.166 27.2463"/>
<path style="stroke:#000000; stroke-dasharray:6,3; stroke-width:0.95664899999999997; fill:none" d="M 5.01365 50.2073L 200.166 50.2073"/>
<path style="stroke:none; fill-rule:evenodd; fill:#000000" d="M 9.79875 69.9333L 13.0526 69.9333C 15.1815 69.9333 16.494 68.3433 16.494 65.7303C 16.494 63.1283 15.1972 61.5393 13.0526 61.5393L 9.79875 61.5393L 9.79875 69.9333zM 10.8964 69.0313L 10.8964 62.4333L 12.869 62.4333C 14.5214 62.4333 15.3925 63.5663 15.3925 65.7383C 15.3925 67.8863 14.5214 69.0313 12.869 69.0313L 10.8964 69.0313z"/>
<path style="stroke:none; fill-rule:evenodd; fill:#000000" d="M 22.537 67.4333L 23.3964 69.9333L 24.5878 69.9333L 21.6503 61.5353L 20.2753 61.5353L 17.2909 69.9333L 18.4237 69.9333L 19.3065 67.4333L 22.537 67.4333zM 22.2401 66.5313L 19.58 66.5313L 20.955 62.7103L 22.2401 66.5313z"/>
<path style="stroke:#000000; stroke-width:1.9133; fill:none" d="M 47.1073 73.1683L 64.3261 73.1683L 70.0643 61.6913L 75.8027 73.1683L 156.159 73.1683L 161.897 69.3433L 167.635 73.1683L 181.026 73.1683"/>
<path style="stroke:#000000; stroke-dasharray:6,3; stroke-width:0.95664899999999997; fill:none" d="M 5.01365 50.2073L 200.166 50.2073"/>
<path style="stroke:#000000; stroke-dasharray:6,3; stroke-width:0.95664899999999997; fill:none" d="M 5.01365 73.1683L 200.166 73.1683"/>
<path style="stroke:none; fill-rule:evenodd; fill:#000000" d="M 16.3964 16.2573C 16.0604 14.4293 14.9979 13.5353 13.1464 13.5353C 12.0136 13.5353 11.1034 13.8903 10.4784 14.5823C 9.71675 15.4103 9.30265 16.6053 9.30265 17.9643C 9.30265 19.3433 9.72845 20.5313 10.5253 21.3473C 11.1698 22.0153 12.0018 22.3243 13.0995 22.3243C 15.1542 22.3243 16.3104 21.2103 16.5683 18.9723L 15.4628 18.9723C 15.3729 19.5623 15.2597 19.9643 15.0839 20.3083C 14.7401 21.0193 14.0253 21.4213 13.1307 21.4213C 11.4628 21.4213 10.4042 20.0703 10.4042 17.9493C 10.4042 15.7693 11.4159 14.4253 13.0409 14.4253C 13.7167 14.4253 14.3534 14.6363 14.6972 14.9603C 15.0057 15.2533 15.1776 15.6133 15.3065 16.2463L 16.3964 16.2573z"/>
<path style="stroke:none; fill-rule:evenodd; fill:#000000" d="M 23.8964 16.1213C 23.8886 14.4843 22.7675 13.5353 20.8534 13.5353C 19.0292 13.5353 17.9003 14.4843 17.9003 16.0113C 17.9003 17.0393 18.4315 17.6913 19.5214 17.9803L 21.5761 18.5353C 22.619 18.8123 23.0956 19.2383 23.0956 19.8983C 23.0956 20.3473 22.8573 20.8123 22.5097 21.0663C 22.1815 21.2963 21.662 21.4213 20.994 21.4213C 20.0995 21.4213 19.4901 21.1953 19.0956 20.6953C 18.7909 20.3163 18.6542 19.8983 18.705 19.3593L 17.705 19.3593C 17.7128 20.1363 17.8612 20.6483 18.1893 21.1133C 18.7557 21.9023 19.7089 22.3203 20.9667 22.3203C 21.9511 22.3203 22.7557 22.0933 23.2909 21.6753C 23.8456 21.2303 24.1972 20.4803 24.1972 19.7533C 24.1972 18.7183 23.5643 17.9603 22.4393 17.6483L 20.3651 17.0853C 19.369 16.8123 19.0057 16.4883 19.0057 15.8433C 19.0057 14.9923 19.7401 14.4253 20.8456 14.4253C 22.1542 14.4253 22.8886 15.0273 22.9003 16.1133L 23.8964 16.1213z"/>
<path style="stroke:#ff0000; stroke-width:0.95664899999999997; fill:none" d="M 70.4159 67.5783L 70.4159 79.0543"/>
<path style="stroke:#ff0000; stroke-width:0.95664899999999997; fill:none" d="M 70.4159 67.5783L 68.5057 72.3593"/>
<path style="stroke:#ff0000; stroke-width:0.95664899999999997; fill:none" d="M 70.4159 67.5783L 72.3261 72.3593"/>
<path style="stroke:#ff0000; stroke-width:0.95664899999999997; fill:none" d="M 161.788 68.0033L 161.788 56.5273"/>
<path style="stroke:#ff0000; stroke-width:0.95664899999999997; fill:none" d="M 161.788 68.0033L 163.698 63.2223"/>
<path style="stroke:#ff0000; stroke-width:0.95664899999999997; fill:none" d="M 161.788 68.0033L 159.877 63.2223"/>
<path style="stroke:none; fill-rule:evenodd; fill:#000000" d="M 15.0995 36.6323L 15.0995 42.5933C 15.0995 43.7343 14.3026 44.4293 12.9901 44.4293C 12.3847 44.4293 11.8925 44.2813 11.4979 43.9883C 11.0956 43.6643 10.9042 43.2343 10.9042 42.5933L 10.9042 36.6323L 9.80655 36.6323L 9.80655 42.5543C 9.80655 44.2653 11.0175 45.3283 12.994 45.3283C 14.9472 45.3283 16.205 44.2423 16.205 42.5543L 16.205 36.6323L 15.0995 36.6323z"/>
<path style="stroke:none; fill-rule:evenodd; fill:#000000" d="M 23.8964 39.1213C 23.8886 37.4843 22.7675 36.5353 20.8534 36.5353C 19.0292 36.5353 17.9003 37.4843 17.9003 39.0113C 17.9003 40.0393 18.4315 40.6913 19.5214 40.9803L 21.5761 41.5353C 22.619 41.8123 23.0956 42.2383 23.0956 42.8983C 23.0956 43.3473 22.8573 43.8123 22.5097 44.0663C 22.1815 44.2963 21.662 44.4213 20.994 44.4213C 20.0995 44.4213 19.4901 44.1953 19.0956 43.6953C 18.7909 43.3163 18.6542 42.8983 18.705 42.3593L 17.705 42.3593C 17.7128 43.1363 17.8612 43.6483 18.1893 44.1133C 18.7557 44.9023 19.7089 45.3203 20.9667 45.3203C 21.9511 45.3203 22.7557 45.0933 23.2909 44.6753C 23.8456 44.2303 24.1972 43.4803 24.1972 42.7533C 24.1972 41.7183 23.5643 40.9603 22.4393 40.6483L 20.3651 40.0853C 19.369 39.8123 19.0057 39.4883 19.0057 38.8433C 19.0057 37.9923 19.7401 37.4253 20.8456 37.4253C 22.1542 37.4253 22.8886 38.0273 22.9003 39.1133L 23.8964 39.1213z"/>
<path style="stroke:none; fill-rule:evenodd; fill:#000000" d="M 27.4276 36.6323L 24.7089 45.2613L 25.3378 45.2613L 28.0565 36.6323L 27.4276 36.6323z"/>
<path style="stroke:none; fill-rule:evenodd; fill:#000000" d="M 28.7987 39.0033L 28.7987 45.0273L 29.7987 45.0273L 29.7987 41.8943C 29.7987 41.0313 30.0097 40.4683 30.4589 40.1323C 30.7479 39.9143 31.0292 39.8473 31.6815 39.8353L 31.6815 38.8713C 31.5253 38.8513 31.4472 38.8393 31.3222 38.8393C 30.7128 38.8393 30.2479 39.2073 29.7011 40.1013L 29.7011 39.0113L 28.7987 39.0033z"/>
</g>
</svg>