<?xml version="1.0" encoding="UTF-8" standalone="no"?>
<svg
   xmlns:dc="http://purl.org/dc/elements/1.1/"
   xmlns:cc="http://creativecommons.org/ns#"
   xmlns:rdf="http://www.w3.org/1999/02/22-rdf-syntax-ns#"
   xmlns:svg="http://www.w3.org/2000/svg"
   xmlns="http://www.w3.org/2000/svg"
   xmlns:sodipodi="http://sodipodi.sourceforge.net/DTD/sodipodi-0.dtd"
   xmlns:inkscape="http://www.inkscape.org/namespaces/inkscape"
   version="1.1"
   width="400px"
   height="400px"
   viewBox="0 0 1000.0 1000.0"
   id="svg4404"
   inkscape:version="0.91 r13725"
   sodipodi:docname="fig_cu3d_100_semantics_lrn_cluster.svg"
   inkscape:export-filename="/Users/oreilly/svn_docs/figs/fig_cu3d_100_semantics_lrn_cluster.png"
   inkscape:export-xdpi="150"
   inkscape:export-ydpi="150">
  <metadata
     id="metadata4672">
    <rdf:RDF>
      <cc:Work
         rdf:about="">
        <dc:format>image/svg+xml</dc:format>
        <dc:type
           rdf:resource="http://purl.org/dc/dcmitype/StillImage" />
        <dc:title></dc:title>
      </cc:Work>
    </rdf:RDF>
  </metadata>
  <defs
     id="defs4670" />
  <sodipodi:namedview
     pagecolor="#ffffff"
     bordercolor="#666666"
     borderopacity="1"
     objecttolerance="10"
     gridtolerance="10"
     guidetolerance="10"
     inkscape:pageopacity="0"
     inkscape:pageshadow="2"
     inkscape:window-width="640"
     inkscape:window-height="480"
     id="namedview4668"
     showgrid="false"
     inkscape:zoom="2.0825"
     inkscape:cx="174.06963"
     inkscape:cy="200"
     inkscape:current-layer="svg4404" />
  <rect
     style="opacity:1;fill:#ffffff;fill-opacity:1;fill-rule:nonzero;stroke:#ffffff;stroke-width:2.46929049;stroke-linecap:butt;stroke-linejoin:miter;stroke-miterlimit:4;stroke-dasharray:none;stroke-dashoffset:0;stroke-opacity:1"
     id="rect4693"
     width="1031.2432"
     height="1004.8326"
     x="-18.022558"
     y="-20.423517" />
  <path
     stroke="#000000"
     stroke-width="2"
     fill="none"
     d="M 94.7,890.7 L 94.7,12.7 L 972.7,12.7 L 972.7,890.7 L 94.7,890.7 "
     id="path4406" />
  <text
     style="font-size:44.59999847px;font-family:Arial;text-anchor:middle;fill:#000000"
     id="text4412"
     font-size="44.6"
     y="965.40002"
     x="94.699997">0</text>
  <text
     style="font-size:44.59999847px;font-family:Arial;text-anchor:middle;fill:#000000"
     id="text4414"
     font-size="44.6"
     y="965.40002"
     x="236.3">50</text>
  <text
     style="font-size:44.59999847px;font-family:Arial;text-anchor:middle;fill:#000000"
     id="text4416"
     font-size="44.6"
     y="965.40002"
     x="377.89999">100</text>
  <text
     style="font-size:44.59999847px;font-family:Arial;text-anchor:middle;fill:#000000"
     id="text4418"
     font-size="44.6"
     y="965.40002"
     x="519.5">150</text>
  <text
     style="font-size:44.59999847px;font-family:Arial;text-anchor:middle;fill:#000000"
     id="text4420"
     font-size="44.6"
     y="965.40002"
     x="661.20001">200</text>
  <text
     style="font-size:44.59999847px;font-family:Arial;text-anchor:middle;fill:#000000"
     id="text4422"
     font-size="44.6"
     y="965.40002"
     x="802.79999">250</text>
  <text
     style="font-size:44.59999847px;font-family:Arial;text-anchor:middle;fill:#000000"
     id="text4424"
     font-size="44.6"
     y="965.40002"
     x="944.40002">300</text>
  <path
     style="fill:none;stroke:#000000;stroke-width:2"
     inkscape:connector-curvature="0"
     id="path4426"
     d="m 94.7,890.7 878,0 m -878,22 0,-43.9 m 141.6,43.9 0,-43.9 m 141.6,43.9 0,-43.9 m 141.6,43.9 0,-43.9 m 141.7,43.9 0,-43.9 m 141.6,43.9 0,-43.9 m 141.6,43.9 0,-43.9" />
  <path
     style="fill:none;stroke:#000000;stroke-width:2"
     inkscape:connector-curvature="0"
     id="path4428"
     d="m 94.7,12.7 878,0 m -878,21.9 0,-43.9 m 141.6,43.9 0,-43.9 m 141.6,43.9 0,-43.9 m 141.6,43.9 0,-43.9 m 141.7,43.9 0,-43.9 m 141.6,43.9 0,-43.9 m 141.6,43.9 0,-43.9" />
  <text
     style="font-size:44.59999847px;font-family:Arial;text-anchor:end;fill:#000000"
     id="text4432"
     font-size="44.6"
     y="899.70001"
     x="64">0</text>
  <text
     style="font-size:44.59999847px;font-family:Arial;text-anchor:end;fill:#000000"
     id="text4434"
     font-size="44.6"
     y="727.5"
     x="64">20</text>
  <text
     style="font-size:44.59999847px;font-family:Arial;text-anchor:end;fill:#000000"
     id="text4436"
     font-size="44.6"
     y="555.40002"
     x="64">40</text>
  <text
     style="font-size:44.59999847px;font-family:Arial;text-anchor:end;fill:#000000"
     id="text4438"
     font-size="44.6"
     y="383.20001"
     x="64">60</text>
  <text
     style="font-size:44.59999847px;font-family:Arial;text-anchor:end;fill:#000000"
     id="text4440"
     font-size="44.6"
     y="211"
     x="64">80</text>
  <text
     style="font-size:44.59999847px;font-family:Arial;text-anchor:end;fill:#000000"
     id="text4442"
     font-size="44.6"
     y="38.900002"
     x="64">100</text>
  <path
     style="fill:none;stroke:#000000;stroke-width:2"
     inkscape:connector-curvature="0"
     id="path4444"
     d="m 94.7,890.7 0,-878 m -22,869.4 43.9,0 M 72.7,710 l 43.9,0 m -43.9,-172.2 43.9,0 m -43.9,-172.2 43.9,0 m -43.9,-172.1 43.9,0 M 72.7,21.3 l 43.9,0" />
  <path
     style="fill:none;stroke:#000000;stroke-width:2"
     inkscape:connector-curvature="0"
     id="path4446"
     d="m 972.7,890.7 0,-878 m -21.9,869.4 43.9,0 M 950.8,710 l 43.9,0 m -43.9,-172.2 43.9,0 m -43.9,-172.2 43.9,0 m -43.9,-172.1 43.9,0 m -43.9,-172.2 43.9,0" />
  <g
     id="g4462">
    <path
       stroke="#000000"
       stroke-width="2"
       fill="none"
       d="M 94.7,744.0  L 94.7,744.0 L 94.7,744.0 L 94.7,744.0 L 94.7,877.8 L 153.6,877.8 M 94.7,877.8 L 94.7,877.8 L 94.7,744.0 L 94.7,610.2 L 153.6,610.2  L 153.6,827.7 L 211.9,827.7 L 211.9,862.7 L 269.9,862.7 L 269.9,869.2 L 321.8,869.2 M 269.9,869.2 L 269.9,869.2 L 269.9,862.7 L 269.9,856.3  L 321.8,856.3 L 321.8,860.6 L 371.8,860.6 M 321.8,860.6 L 321.8,860.6 L 321.8,856.3 L 321.8,852.0 L 371.8,852.0 M 321.8,852.0 L 321.8,852.0  L 321.8,856.3 M 269.9,856.3 L 269.9,862.7 M 211.9,862.7 L 211.9,827.7 L 211.9,792.7 L 269.9,792.7 M 269.9,834.9 L 327.1,834.9 L 327.1,843.4  L 381.8,843.4 M 327.1,843.4 L 327.1,843.4 L 327.1,834.9 L 327.1,826.4 L 381.8,826.4 L 381.8,834.8 L 425.7,834.8 M 381.8,834.8 L 381.8,834.8  L 381.8,826.4 L 381.8,818.1 L 425.7,818.1 L 425.7,826.2 L 468.5,826.2 M 425.7,826.2 L 425.7,826.2 L 425.7,818.1 L 425.7,810.0 L 468.5,810.0  L 468.5,817.6 L 507.3,817.6 M 468.5,817.6 L 468.5,817.6 L 468.5,810.0 L 468.5,802.5 L 507.3,802.5 L 507.3,808.9 L 543.5,808.9 M 507.3,808.9  L 507.3,808.9 L 507.3,802.5 L 507.3,796.0 L 543.5,796.0 L 543.5,800.3 L 575.6,800.3 M 543.5,800.3 L 543.5,800.3 L 543.5,796.0 L 543.5,791.7  L 575.6,791.7 M 543.5,791.7 L 543.5,791.7 L 543.5,796.0 M 507.3,796.0 L 507.3,802.5 M 468.5,802.5 L 468.5,810.0 M 425.7,810.0 L 425.7,818.1  M 381.8,818.1 L 381.8,826.4 M 327.1,826.4 L 327.1,834.9 M 269.9,834.9 L 269.9,792.7 M 269.9,750.6 L 327.1,750.6 L 327.1,775.6 L 383.5,775.6  L 383.5,783.1 L 434.6,783.1 M 383.5,783.1 L 383.5,783.1 L 383.5,775.6 L 383.5,768.1 L 434.6,768.1 L 434.6,774.5 L 482.6,774.5 M 434.6,774.5  L 434.6,774.5 L 434.6,768.1 L 434.6,761.6 L 482.6,761.6 L 482.6,765.9 L 520.2,765.9 M 482.6,765.9 L 482.6,765.9 L 482.6,761.6 L 482.6,757.3  L 520.2,757.3 M 482.6,757.3 L 482.6,757.3 L 482.6,761.6 M 434.6,761.6 L 434.6,768.1 M 383.5,768.1 L 383.5,775.6 M 327.1,775.6 L 327.1,750.6  L 327.1,725.6 L 383.5,725.6 L 383.5,741.2 L 439.1,741.2 L 439.1,748.7 L 493.1,748.7 M 439.1,748.7 L 439.1,748.7 L 439.1,741.2 L 439.1,733.6  L 493.1,733.6 L 493.1,740.1 L 538.7,740.1 M 493.1,740.1 L 493.1,740.1 L 493.1,733.6 L 493.1,727.2 L 538.7,727.2 L 538.7,731.5 L 573.6,731.5  M 538.7,731.5 L 538.7,731.5 L 538.7,727.2 L 538.7,722.9 L 573.6,722.9 M 538.7,722.9 L 538.7,722.9 L 538.7,727.2 M 493.1,727.2 L 493.1,733.6  M 439.1,733.6 L 439.1,741.2 M 383.5,741.2 L 383.5,725.6 L 383.5,710.0 L 439.1,710.0 L 439.1,714.3 L 494.0,714.3 M 439.1,714.3 L 439.1,714.3  L 439.1,710.0 L 439.1,705.6 L 494.0,705.6 M 439.1,705.6 L 439.1,705.6 L 439.1,710.0 M 383.5,710.0 L 383.5,725.6 M 327.1,725.6 L 327.1,750.6  M 269.9,750.6 L 269.9,792.7 M 211.9,792.7 L 211.9,827.7 M 153.6,827.7 M 153.6,610.2 L 153.6,392.6 L 211.9,392.6 L 211.9,579.4 L 270.0,579.4  M 270.0,680.9 L 327.6,680.9 L 327.6,697.0 L 383.1,697.0 M 327.6,697.0 L 327.6,697.0 L 327.6,680.9 L 327.6,688.4 L 383.1,688.4 M 327.6,688.4  L 327.6,688.4 L 327.6,680.9 L 327.6,675.5 L 383.1,675.5 L 383.1,679.8 L 405.8,679.8 M 383.1,679.8 L 383.1,679.8 L 383.1,675.5 L 383.1,671.2  L 405.8,671.2 M 383.1,671.2 L 383.1,671.2 L 383.1,675.5 M 327.6,675.5 L 327.6,680.9 L 327.6,662.6 L 383.1,662.6 M 327.6,662.6 L 327.6,662.6  L 327.6,680.9 M 270.0,680.9 L 270.0,579.4 M 270.0,477.9 L 327.6,477.9 L 327.6,563.7 L 384.6,563.7 L 384.6,645.7 L 440.9,645.7 L 440.9,654.0  L 494.9,654.0 M 440.9,654.0 L 440.9,654.0 L 440.9,645.7 L 440.9,637.3 L 494.9,637.3 L 494.9,645.4 L 543.3,645.4 M 494.9,645.4 L 494.9,645.4  L 494.9,637.3 L 494.9,629.3 L 543.3,629.3 M 543.3,636.8 L 587.7,636.8 M 543.3,636.8 L 543.3,636.8 L 543.3,629.3 M 543.3,621.7 L 587.7,621.7  L 587.7,628.2 L 628.1,628.2 M 587.7,628.2 L 587.7,628.2 L 587.7,621.7 L 587.7,615.3 L 628.1,615.3 L 628.1,619.6 L 664.8,619.6 M 628.1,619.6  L 628.1,619.6 L 628.1,615.3 L 628.1,611.0 L 664.8,611.0 M 628.1,611.0 L 628.1,611.0 L 628.1,615.3 M 587.7,615.3 L 587.7,621.7 M 543.3,621.7  L 543.3,629.3 M 494.9,629.3 L 494.9,637.3 M 440.9,637.3 L 440.9,645.7 M 384.6,645.7 L 384.6,563.7 L 384.6,481.8 L 440.9,481.8 L 440.9,520.5  L 495.9,520.5 L 495.9,566.6 L 549.3,566.6 L 549.3,595.9 L 600.8,595.9 L 600.8,602.4 L 649.8,602.4 M 600.8,602.4 L 600.8,602.4 L 600.8,595.9  L 600.8,589.4 L 649.8,589.4 L 649.8,593.7 L 689.9,593.7 M 649.8,593.7 L 649.8,593.7 L 649.8,589.4 L 649.8,585.1 L 689.9,585.1 M 649.8,585.1  L 649.8,585.1 L 649.8,589.4 M 600.8,589.4 L 600.8,595.9 M 549.3,595.9 L 549.3,566.6 L 549.3,537.4 L 600.8,537.4 L 600.8,568.2 L 649.8,568.2  L 649.8,576.5 L 693.8,576.5 M 649.8,576.5 L 649.8,576.5 L 649.8,568.2 L 649.8,559.8 L 693.8,559.8 L 693.8,567.9 L 736.5,567.9 M 693.8,567.9  L 693.8,567.9 L 693.8,559.8 L 693.8,551.8 L 736.5,551.8 L 736.5,559.3 L 775.5,559.3 M 736.5,559.3 L 736.5,559.3 L 736.5,551.8 L 736.5,544.2  L 775.5,544.2 L 775.5,550.7 L 813.9,550.7 M 775.5,550.7 L 775.5,550.7 L 775.5,544.2 L 775.5,537.8 L 813.9,537.8 L 813.9,542.1 L 846.0,542.1  M 813.9,542.1 L 813.9,542.1 M 813.9,537.8 L 813.9,533.5 L 846.0,533.5 M 813.9,533.5 L 813.9,533.5 M 813.9,537.8 M 775.5,537.8 L 775.5,544.2  M 736.5,544.2 L 736.5,551.8 M 693.8,551.8 L 693.8,559.8 M 649.8,559.8 L 649.8,568.2 M 600.8,568.2 L 600.8,537.4 L 600.8,506.6 L 649.8,506.6  L 649.8,518.4 L 698.4,518.4 L 698.4,524.9 L 732.4,524.9 M 698.4,524.9 L 698.4,524.9 L 698.4,518.4 L 698.4,512.0 L 732.4,512.0 L 732.4,516.3  L 757.8,516.3 M 732.4,516.3 L 732.4,516.3 L 732.4,512.0 L 732.4,507.7 L 757.8,507.7 M 732.4,507.7 L 732.4,507.7 L 732.4,512.0 M 698.4,512.0  L 698.4,518.4 M 649.8,518.4 L 649.8,506.6 L 649.8,494.7 L 698.4,494.7 L 698.4,499.1 L 735.2,499.1 M 698.4,499.1 L 698.4,499.1 L 698.4,494.7  L 698.4,490.4 L 735.2,490.4 M 698.4,490.4 L 698.4,490.4 L 698.4,494.7 M 649.8,494.7 L 649.8,506.6 M 600.8,506.6 L 600.8,537.4 M 549.3,537.4  L 549.3,566.6 M 495.9,566.6 L 495.9,520.5 L 495.9,474.3 L 549.3,474.3 L 549.3,481.8 L 602.5,481.8 M 549.3,481.8 L 549.3,481.8 L 549.3,474.3  L 549.3,466.8 L 602.5,466.8 L 602.5,473.2 L 654.7,473.2 M 602.5,473.2 L 602.5,473.2 L 602.5,466.8 L 602.5,460.3 L 654.7,460.3 L 654.7,464.6  L 698.5,464.6 M 654.7,464.6 L 654.7,464.6 L 654.7,460.3 L 654.7,456.0 L 698.5,456.0 M 654.7,456.0 L 654.7,456.0 L 654.7,460.3 M 602.5,460.3  L 602.5,466.8 M 549.3,466.8 L 549.3,474.3 M 495.9,474.3 L 495.9,520.5 M 440.9,520.5 L 440.9,481.8 L 440.9,443.1 L 495.9,443.1 L 495.9,447.4  L 549.7,447.4 M 495.9,447.4 L 495.9,447.4 L 495.9,443.1 L 495.9,438.8 L 549.7,438.8 M 495.9,438.8 L 495.9,438.8 L 495.9,443.1 M 440.9,443.1  L 440.9,481.8 M 384.6,481.8 L 384.6,563.7 M 327.6,563.7 L 327.6,477.9 L 327.6,392.0 L 384.6,392.0 L 384.6,421.8 L 441.1,421.8 L 441.1,430.2  L 493.9,430.2 M 441.1,430.2 L 441.1,430.2 L 441.1,421.8 L 441.1,413.5 L 493.9,413.5 L 493.9,421.6 L 543.1,421.6 M 493.9,421.6 L 493.9,421.6  M 493.9,413.5 L 493.9,405.4 L 543.1,405.4 L 543.1,413.0 L 590.1,413.0 M 543.1,413.0 L 543.1,413.0 L 543.1,405.4 L 543.1,397.9 L 590.1,397.9  L 590.1,404.4 L 635.0,404.4 M 590.1,404.4 L 590.1,404.4 L 590.1,397.9 L 590.1,391.5 L 635.0,391.5 L 635.0,395.8 L 674.3,395.8 M 635.0,395.8  L 635.0,395.8 L 635.0,391.5 L 635.0,387.1 L 674.3,387.1 M 635.0,387.1 L 635.0,387.1 L 635.0,391.5 M 590.1,391.5 L 590.1,397.9 M 543.1,397.9  L 543.1,405.4 M 493.9,405.4 M 493.9,413.5 M 441.1,413.5 L 441.1,421.8 M 384.6,421.8 L 384.6,392.0 L 384.6,362.1 L 441.1,362.1 L 441.1,378.5  L 494.7,378.5 M 441.1,378.5 L 441.1,378.5 L 441.1,362.1 L 441.1,345.7 L 494.7,345.7 L 494.7,362.4 L 545.3,362.4 L 545.3,369.9 L 587.3,369.9  M 545.3,369.9 L 545.3,369.9 L 545.3,362.4 L 545.3,354.9 L 587.3,354.9 L 587.3,361.3 L 627.3,361.3 M 587.3,361.3 L 587.3,361.3 L 587.3,354.9  L 587.3,348.4 L 627.3,348.4 L 627.3,352.7 L 664.9,352.7 M 627.3,352.7 L 627.3,352.7 L 627.3,348.4 L 627.3,344.1 L 664.9,344.1 M 627.3,344.1  L 627.3,344.1 L 627.3,348.4 M 587.3,348.4 L 587.3,354.9 M 545.3,354.9 L 545.3,362.4 M 494.7,362.4 L 494.7,345.7 L 494.7,329.0 L 545.3,329.0  L 545.3,335.5 L 594.7,335.5 M 545.3,335.5 L 545.3,335.5 L 545.3,329.0 L 545.3,322.6 L 594.7,322.6 L 594.7,326.9 L 640.7,326.9 M 594.7,326.9  L 594.7,326.9 L 594.7,322.6 L 594.7,318.3 L 640.7,318.3 M 594.7,318.3 L 594.7,318.3 L 594.7,322.6 M 545.3,322.6 L 545.3,329.0 M 494.7,329.0  L 494.7,345.7 M 441.1,345.7 L 441.1,362.1 M 384.6,362.1 L 384.6,392.0 M 327.6,392.0 L 327.6,477.9 M 270.0,477.9 L 270.0,579.4 M 211.9,579.4  L 211.9,392.6 L 211.9,205.9 L 270.0,205.9 L 270.0,272.0 L 327.8,272.0 L 327.8,290.3 L 384.8,290.3 L 384.8,303.2 L 439.2,303.2 L 439.2,309.7  L 490.8,309.7 M 439.2,309.7 L 439.2,309.7 L 439.2,303.2 L 439.2,296.8 L 490.8,296.8 L 490.8,301.1 L 537.5,301.1 M 490.8,301.1 L 490.8,301.1  L 490.8,296.8 L 490.8,292.5 L 537.5,292.5 M 490.8,292.5 L 490.8,292.5 L 490.8,296.8 M 439.2,296.8 L 439.2,303.2 M 384.8,303.2 L 384.8,290.3  L 384.8,277.4 L 439.2,277.4 M 439.2,283.8 L 490.8,283.8 M 439.2,283.8 L 439.2,283.8 L 439.2,277.4 M 439.2,270.9 L 490.8,270.9 L 490.8,275.2  L 517.4,275.2 M 490.8,275.2 L 490.8,275.2 L 490.8,270.9 L 490.8,266.6 L 517.4,266.6 M 490.8,266.6 L 490.8,266.6 L 490.8,270.9 M 439.2,270.9  L 439.2,277.4 M 384.8,277.4 L 384.8,290.3 M 327.8,290.3 L 327.8,272.0 L 327.8,253.7 L 384.8,253.7 L 384.8,258.0 L 441.4,258.0 M 384.8,258.0  L 384.8,258.0 L 384.8,253.7 L 384.8,249.4 L 441.4,249.4 M 384.8,249.4 L 384.8,249.4 L 384.8,253.7 M 327.8,253.7 L 327.8,272.0 M 270.0,272.0  M 270.0,205.9 L 270.0,139.8 L 327.8,139.8 L 327.8,203.5 L 384.9,203.5 L 384.9,232.2 L 440.9,232.2 M 440.9,240.8 L 492.2,240.8 M 440.9,240.8  L 440.9,240.8 L 440.9,232.2 M 440.9,223.6 L 492.2,223.6 L 492.2,232.2 L 540.2,232.2 M 492.2,232.2 L 492.2,232.2 L 492.2,223.6 L 492.2,223.6  L 540.2,223.6 M 492.2,223.6 L 492.2,223.6 L 492.2,223.6 L 492.2,215.0 L 540.2,215.0 M 492.2,215.0 L 492.2,215.0 L 492.2,223.6 M 440.9,223.6  L 440.9,232.2 M 384.9,232.2 M 384.9,203.5 L 384.9,174.8 L 440.9,174.8 L 440.9,198.8 L 496.2,198.8 L 496.2,206.4 L 548.3,206.4 M 496.2,206.4  L 496.2,206.4 L 496.2,198.8 L 496.2,191.3 L 548.3,191.3 L 548.3,197.8 L 596.0,197.8 M 548.3,197.8 L 548.3,197.8 L 548.3,191.3 L 548.3,184.9  L 596.0,184.9 L 596.0,189.2 L 637.6,189.2 M 596.0,189.2 L 596.0,189.2 L 596.0,184.9 L 596.0,180.6 L 637.6,180.6 M 596.0,180.6 L 596.0,180.6  L 596.0,184.9 M 548.3,184.9 L 548.3,191.3 M 496.2,191.3 L 496.2,198.8 M 440.9,198.8 L 440.9,174.8 L 440.9,150.8 L 496.2,150.8 L 496.2,165.5  L 550.6,165.5 L 550.6,171.9 L 601.5,171.9 M 550.6,171.9 L 550.6,171.9 L 550.6,165.5 L 550.6,159.0 L 601.5,159.0 L 601.5,163.3 L 641.6,163.3  M 601.5,163.3 L 601.5,163.3 L 601.5,159.0 L 601.5,154.7 L 641.6,154.7 M 601.5,154.7 L 601.5,154.7 L 601.5,159.0 M 550.6,159.0 L 550.6,165.5  M 496.2,165.5 L 496.2,150.8 L 496.2,136.2 L 550.6,136.2 L 550.6,146.1 L 602.7,146.1 M 550.6,146.1 L 550.6,146.1 L 550.6,136.2 L 550.6,126.2  L 602.7,126.2 L 602.7,137.5 L 654.2,137.5 M 602.7,137.5 L 602.7,137.5 L 602.7,126.2 L 602.7,114.9 L 654.2,114.9 L 654.2,124.6 L 703.9,124.6  L 703.9,128.9 L 747.1,128.9 M 703.9,128.9 L 703.9,128.9 L 703.9,124.6 L 703.9,120.3 L 747.1,120.3 M 703.9,120.3 L 703.9,120.3 L 703.9,124.6  M 654.2,124.6 L 654.2,114.9 L 654.2,105.2 L 703.9,105.2 L 703.9,111.7 L 750.3,111.7 M 703.9,111.7 L 703.9,111.7 M 703.9,105.2 L 703.9,98.8  L 750.3,98.8 L 750.3,103.1 L 791.9,103.1 M 750.3,103.1 L 750.3,103.1 L 750.3,98.8 L 750.3,94.5 L 791.9,94.5 M 750.3,94.5 L 750.3,94.5  L 750.3,98.8 M 703.9,98.8 M 703.9,105.2 M 654.2,105.2 L 654.2,114.9 M 602.7,114.9 L 602.7,126.2 M 550.6,126.2 L 550.6,136.2 M 496.2,136.2  L 496.2,150.8 M 440.9,150.8 L 440.9,174.8 M 384.9,174.8 M 384.9,203.5 M 327.8,203.5 L 327.8,139.8 L 327.8,76.0 L 384.9,76.0 L 384.9,85.9  L 441.5,85.9 M 384.9,85.9 L 384.9,85.9 M 384.9,76.0 L 384.9,66.2 L 441.5,66.2 L 441.5,77.3 L 496.7,77.3 M 441.5,77.3 L 441.5,77.3  L 441.5,66.2 L 441.5,55.2 L 496.7,55.2 L 496.7,68.6 L 548.3,68.6 M 496.7,68.6 L 496.7,68.6 L 496.7,55.2 L 496.7,41.7 L 548.3,41.7  L 548.3,53.6 L 598.0,53.6 L 598.0,60.0 L 644.0,60.0 M 598.0,60.0 L 598.0,60.0 L 598.0,53.6 L 598.0,47.1 L 644.0,47.1 L 644.0,51.4  L 685.6,51.4 M 644.0,51.4 L 644.0,51.4 L 644.0,47.1 L 644.0,42.8 L 685.6,42.8 M 644.0,42.8 L 644.0,42.8 L 644.0,47.1 M 598.0,47.1  L 598.0,53.6 M 548.3,53.6 L 548.3,41.7 L 548.3,29.9 L 598.0,29.9 L 598.0,34.2 L 644.0,34.2 M 598.0,34.2 L 598.0,34.2 L 598.0,29.9  L 598.0,25.6 L 644.0,25.6 M 598.0,25.6 L 598.0,25.6 L 598.0,29.9 M 548.3,29.9 L 548.3,41.7 M 496.7,41.7 L 496.7,55.2 M 441.5,55.2  L 441.5,66.2 M 384.9,66.2 M 384.9,76.0 M 327.8,76.0 L 327.8,139.8 M 270.0,139.8 M 270.0,205.9 M 211.9,205.9 L 211.9,392.6 M 153.6,392.6  M 153.6,610.2 M 94.7,610.2 L 94.7,744.0 L 94.7,744.0 L 94.7,744.0 L 94.7,744.0 "
       id="path4464" />
    <g
       id="g4466">
      <text
         x="153.6"
         y="886.6"
         font-family="Arial"
         font-size="17.8"
         fill="#ff0000"
         text-anchor="start"
         id="text4468">
globe
</text>
      <text
         x="321.8"
         y="878.0"
         font-family="Arial"
         font-size="17.8"
         fill="#ff0000"
         text-anchor="start"
         id="text4470">
chessboard
</text>
      <text
         x="371.8"
         y="869.4"
         font-family="Arial"
         font-size="17.8"
         fill="#ff0000"
         text-anchor="start"
         id="text4472">
record player
</text>
      <text
         x="371.8"
         y="860.8"
         font-family="Arial"
         font-size="17.8"
         fill="#ff0000"
         text-anchor="start"
         id="text4474">
dice
</text>
      <text
         x="381.8"
         y="852.2"
         font-family="Arial"
         font-size="17.8"
         fill="#ff0000"
         text-anchor="start"
         id="text4476">
headphones
</text>
      <text
         x="425.7"
         y="843.6"
         font-family="Arial"
         font-size="17.8"
         fill="#ff0000"
         text-anchor="start"
         id="text4478">
drums
</text>
      <text
         x="468.5"
         y="834.9"
         font-family="Arial"
         font-size="17.8"
         fill="#ff0000"
         text-anchor="start"
         id="text4480">
synthesizer
</text>
      <text
         x="507.3"
         y="826.3"
         font-family="Arial"
         font-size="17.8"
         fill="#ff0000"
         text-anchor="start"
         id="text4482">
trombone
</text>
      <text
         x="543.5"
         y="817.7"
         font-family="Arial"
         font-size="17.8"
         fill="#ff0000"
         text-anchor="start"
         id="text4484">
trumpet
</text>
      <text
         x="575.6"
         y="809.1"
         font-family="Arial"
         font-size="17.8"
         fill="#ff0000"
         text-anchor="start"
         id="text4486">
guitar
</text>
      <text
         x="575.6"
         y="800.5"
         font-family="Arial"
         font-size="17.8"
         fill="#ff0000"
         text-anchor="start"
         id="text4488">
piano
</text>
      <text
         x="434.6"
         y="791.9"
         font-family="Arial"
         font-size="17.8"
         fill="#ff0000"
         text-anchor="start"
         id="text4490">
telephone
</text>
      <text
         x="482.6"
         y="783.3"
         font-family="Arial"
         font-size="17.8"
         fill="#ff0000"
         text-anchor="start"
         id="text4492">
microwave
</text>
      <text
         x="520.2"
         y="774.7"
         font-family="Arial"
         font-size="17.8"
         fill="#ff0000"
         text-anchor="start"
         id="text4494">
radio
</text>
      <text
         x="520.2"
         y="766.1"
         font-family="Arial"
         font-size="17.8"
         fill="#ff0000"
         text-anchor="start"
         id="text4496">
television
</text>
      <text
         x="493.1"
         y="757.5"
         font-family="Arial"
         font-size="17.8"
         fill="#ff0000"
         text-anchor="start"
         id="text4498">
remote control
</text>
      <text
         x="538.7"
         y="748.9"
         font-family="Arial"
         font-size="17.8"
         fill="#ff0000"
         text-anchor="start"
         id="text4500">
key
</text>
      <text
         x="573.6"
         y="740.3"
         font-family="Arial"
         font-size="17.8"
         fill="#ff0000"
         text-anchor="start"
         id="text4502">
computer
</text>
      <text
         x="573.6"
         y="731.6"
         font-family="Arial"
         font-size="17.8"
         fill="#ff0000"
         text-anchor="start"
         id="text4504">
keyboard
</text>
      <text
         x="494.0"
         y="723.0"
         font-family="Arial"
         font-size="17.8"
         fill="#ff0000"
         text-anchor="start"
         id="text4506">
person
</text>
      <text
         x="494.0"
         y="714.4"
         font-family="Arial"
         font-size="17.8"
         fill="#ff0000"
         text-anchor="start"
         id="text4508">
stereo speaker
</text>
      <text
         x="383.1"
         y="705.8"
         font-family="Arial"
         font-size="17.8"
         fill="#ff0000"
         text-anchor="start"
         id="text4510">
skateboard
</text>
      <text
         x="383.1"
         y="697.2"
         font-family="Arial"
         font-size="17.8"
         fill="#ff0000"
         text-anchor="start"
         id="text4512">
hourglass
</text>
      <text
         x="405.8"
         y="688.6"
         font-family="Arial"
         font-size="17.8"
         fill="#ff0000"
         text-anchor="start"
         id="text4514">
digital camera
</text>
      <text
         x="405.8"
         y="680.0"
         font-family="Arial"
         font-size="17.8"
         fill="#ff0000"
         text-anchor="start"
         id="text4516">
camera
</text>
      <text
         x="383.1"
         y="671.4"
         font-family="Arial"
         font-size="17.8"
         fill="#ff0000"
         text-anchor="start"
         id="text4518">
donut
</text>
      <text
         x="494.9"
         y="662.8"
         font-family="Arial"
         font-size="17.8"
         fill="#ff0000"
         text-anchor="start"
         id="text4520">
doorknob
</text>
      <text
         x="543.3"
         y="654.2"
         font-family="Arial"
         font-size="17.8"
         fill="#ff0000"
         text-anchor="start"
         id="text4522">
toaster
</text>
      <text
         x="587.7"
         y="645.6"
         font-family="Arial"
         font-size="17.8"
         fill="#ff0000"
         text-anchor="start"
         id="text4524">
candle
</text>
      <text
         x="628.1"
         y="637.0"
         font-family="Arial"
         font-size="17.8"
         fill="#ff0000"
         text-anchor="start"
         id="text4526">
traffic light
</text>
      <text
         x="664.8"
         y="628.3"
         font-family="Arial"
         font-size="17.8"
         fill="#ff0000"
         text-anchor="start"
         id="text4528">
lamp
</text>
      <text
         x="664.8"
         y="619.7"
         font-family="Arial"
         font-size="17.8"
         fill="#ff0000"
         text-anchor="start"
         id="text4530">
flashlight
</text>
      <text
         x="649.8"
         y="611.1"
         font-family="Arial"
         font-size="17.8"
         fill="#ff0000"
         text-anchor="start"
         id="text4532">
chandelier
</text>
      <text
         x="689.9"
         y="602.5"
         font-family="Arial"
         font-size="17.8"
         fill="#ff0000"
         text-anchor="start"
         id="text4534">
fireplace
</text>
      <text
         x="689.9"
         y="593.9"
         font-family="Arial"
         font-size="17.8"
         fill="#ff0000"
         text-anchor="start"
         id="text4536">
fire hydrant
</text>
      <text
         x="693.8"
         y="585.3"
         font-family="Arial"
         font-size="17.8"
         fill="#ff0000"
         text-anchor="start"
         id="text4538">
dresser
</text>
      <text
         x="736.5"
         y="576.7"
         font-family="Arial"
         font-size="17.8"
         fill="#ff0000"
         text-anchor="start"
         id="text4540">
bed
</text>
      <text
         x="775.5"
         y="568.1"
         font-family="Arial"
         font-size="17.8"
         fill="#ff0000"
         text-anchor="start"
         id="text4542">
couch
</text>
      <text
         x="813.9"
         y="559.5"
         font-family="Arial"
         font-size="17.8"
         fill="#ff0000"
         text-anchor="start"
         id="text4544">
chair
</text>
      <text
         x="846.0"
         y="550.9"
         font-family="Arial"
         font-size="17.8"
         fill="#ff0000"
         text-anchor="start"
         id="text4546">
kitchen sink
</text>
      <text
         x="846.0"
         y="542.3"
         font-family="Arial"
         font-size="17.8"
         fill="#ff0000"
         text-anchor="start"
         id="text4548">
bathroom sink
</text>
      <text
         x="732.4"
         y="533.7"
         font-family="Arial"
         font-size="17.8"
         fill="#ff0000"
         text-anchor="start"
         id="text4550">
desk lamp
</text>
      <text
         x="757.8"
         y="525.0"
         font-family="Arial"
         font-size="17.8"
         fill="#ff0000"
         text-anchor="start"
         id="text4552">
rolltop desk
</text>
      <text
         x="757.8"
         y="516.4"
         font-family="Arial"
         font-size="17.8"
         fill="#ff0000"
         text-anchor="start"
         id="text4554">
desk
</text>
      <text
         x="735.2"
         y="507.8"
         font-family="Arial"
         font-size="17.8"
         fill="#ff0000"
         text-anchor="start"
         id="text4556">
door handle
</text>
      <text
         x="735.2"
         y="499.2"
         font-family="Arial"
         font-size="17.8"
         fill="#ff0000"
         text-anchor="start"
         id="text4558">
lock
</text>
      <text
         x="602.5"
         y="490.6"
         font-family="Arial"
         font-size="17.8"
         fill="#ff0000"
         text-anchor="start"
         id="text4560">
toilet
</text>
      <text
         x="654.7"
         y="482.0"
         font-family="Arial"
         font-size="17.8"
         fill="#ff0000"
         text-anchor="start"
         id="text4562">
ladder
</text>
      <text
         x="698.5"
         y="473.4"
         font-family="Arial"
         font-size="17.8"
         fill="#ff0000"
         text-anchor="start"
         id="text4564">
hat
</text>
      <text
         x="698.5"
         y="464.8"
         font-family="Arial"
         font-size="17.8"
         fill="#ff0000"
         text-anchor="start"
         id="text4566">
umbrella
</text>
      <text
         x="549.7"
         y="456.2"
         font-family="Arial"
         font-size="17.8"
         fill="#ff0000"
         text-anchor="start"
         id="text4568">
mailbox
</text>
      <text
         x="549.7"
         y="447.6"
         font-family="Arial"
         font-size="17.8"
         fill="#ff0000"
         text-anchor="start"
         id="text4570">
clock
</text>
      <text
         x="493.9"
         y="439.0"
         font-family="Arial"
         font-size="17.8"
         fill="#ff0000"
         text-anchor="start"
         id="text4572">
plate
</text>
      <text
         x="543.1"
         y="430.4"
         font-family="Arial"
         font-size="17.8"
         fill="#ff0000"
         text-anchor="start"
         id="text4574">
blender
</text>
      <text
         x="590.1"
         y="421.8"
         font-family="Arial"
         font-size="17.8"
         fill="#ff0000"
         text-anchor="start"
         id="text4576">
bottle
</text>
      <text
         x="635.0"
         y="413.1"
         font-family="Arial"
         font-size="17.8"
         fill="#ff0000"
         text-anchor="start"
         id="text4578">
cake
</text>
      <text
         x="674.3"
         y="404.5"
         font-family="Arial"
         font-size="17.8"
         fill="#ff0000"
         text-anchor="start"
         id="text4580">
cup
</text>
      <text
         x="674.3"
         y="395.9"
         font-family="Arial"
         font-size="17.8"
         fill="#ff0000"
         text-anchor="start"
         id="text4582">
frying pan
</text>
      <text
         x="494.7"
         y="387.3"
         font-family="Arial"
         font-size="17.8"
         fill="#ff0000"
         text-anchor="start"
         id="text4584">
stapler
</text>
      <text
         x="587.3"
         y="378.7"
         font-family="Arial"
         font-size="17.8"
         fill="#ff0000"
         text-anchor="start"
         id="text4586">
hammer
</text>
      <text
         x="627.3"
         y="370.1"
         font-family="Arial"
         font-size="17.8"
         fill="#ff0000"
         text-anchor="start"
         id="text4588">
pliers
</text>
      <text
         x="664.9"
         y="361.5"
         font-family="Arial"
         font-size="17.8"
         fill="#ff0000"
         text-anchor="start"
         id="text4590">
wrench
</text>
      <text
         x="664.9"
         y="352.9"
         font-family="Arial"
         font-size="17.8"
         fill="#ff0000"
         text-anchor="start"
         id="text4592">
screwdriver
</text>
      <text
         x="594.7"
         y="344.3"
         font-family="Arial"
         font-size="17.8"
         fill="#ff0000"
         text-anchor="start"
         id="text4594">
scissors
</text>
      <text
         x="640.7"
         y="335.7"
         font-family="Arial"
         font-size="17.8"
         fill="#ff0000"
         text-anchor="start"
         id="text4596">
knife
</text>
      <text
         x="640.7"
         y="327.1"
         font-family="Arial"
         font-size="17.8"
         fill="#ff0000"
         text-anchor="start"
         id="text4598">
chess piece
</text>
      <text
         x="490.8"
         y="318.5"
         font-family="Arial"
         font-size="17.8"
         fill="#ff0000"
         text-anchor="start"
         id="text4600">
elephant
</text>
      <text
         x="537.5"
         y="309.8"
         font-family="Arial"
         font-size="17.8"
         fill="#ff0000"
         text-anchor="start"
         id="text4602">
skull
</text>
      <text
         x="537.5"
         y="301.2"
         font-family="Arial"
         font-size="17.8"
         fill="#ff0000"
         text-anchor="start"
         id="text4604">
dinosaur
</text>
      <text
         x="490.8"
         y="292.6"
         font-family="Arial"
         font-size="17.8"
         fill="#ff0000"
         text-anchor="start"
         id="text4606">
banana
</text>
      <text
         x="517.4"
         y="284.0"
         font-family="Arial"
         font-size="17.8"
         fill="#ff0000"
         text-anchor="start"
         id="text4608">
tree
</text>
      <text
         x="517.4"
         y="275.4"
         font-family="Arial"
         font-size="17.8"
         fill="#ff0000"
         text-anchor="start"
         id="text4610">
palm tree
</text>
      <text
         x="441.4"
         y="266.8"
         font-family="Arial"
         font-size="17.8"
         fill="#ff0000"
         text-anchor="start"
         id="text4612">
plant
</text>
      <text
         x="441.4"
         y="258.2"
         font-family="Arial"
         font-size="17.8"
         fill="#ff0000"
         text-anchor="start"
         id="text4614">
fish
</text>
      <text
         x="492.2"
         y="249.6"
         font-family="Arial"
         font-size="17.8"
         fill="#ff0000"
         text-anchor="start"
         id="text4616">
yacht
</text>
      <text
         x="540.2"
         y="241.0"
         font-family="Arial"
         font-size="17.8"
         fill="#ff0000"
         text-anchor="start"
         id="text4618">
anchor
</text>
      <text
         x="540.2"
         y="232.4"
         font-family="Arial"
         font-size="17.8"
         fill="#ff0000"
         text-anchor="start"
         id="text4620">
submarine
</text>
      <text
         x="540.2"
         y="223.8"
         font-family="Arial"
         font-size="17.8"
         fill="#ff0000"
         text-anchor="start"
         id="text4622">
sailboat
</text>
      <text
         x="548.3"
         y="215.2"
         font-family="Arial"
         font-size="17.8"
         fill="#ff0000"
         text-anchor="start"
         id="text4624">
blimp
</text>
      <text
         x="596.0"
         y="206.5"
         font-family="Arial"
         font-size="17.8"
         fill="#ff0000"
         text-anchor="start"
         id="text4626">
hot air balloon
</text>
      <text
         x="637.6"
         y="197.9"
         font-family="Arial"
         font-size="17.8"
         fill="#ff0000"
         text-anchor="start"
         id="text4628">
airplane
</text>
      <text
         x="637.6"
         y="189.3"
         font-family="Arial"
         font-size="17.8"
         fill="#ff0000"
         text-anchor="start"
         id="text4630">
helicopter
</text>
      <text
         x="601.5"
         y="180.7"
         font-family="Arial"
         font-size="17.8"
         fill="#ff0000"
         text-anchor="start"
         id="text4632">
windmill
</text>
      <text
         x="641.6"
         y="172.1"
         font-family="Arial"
         font-size="17.8"
         fill="#ff0000"
         text-anchor="start"
         id="text4634">
fan
</text>
      <text
         x="641.6"
         y="163.5"
         font-family="Arial"
         font-size="17.8"
         fill="#ff0000"
         text-anchor="start"
         id="text4636">
fan blades
</text>
      <text
         x="602.7"
         y="154.9"
         font-family="Arial"
         font-size="17.8"
         fill="#ff0000"
         text-anchor="start"
         id="text4638">
locomotive
</text>
      <text
         x="654.2"
         y="146.3"
         font-family="Arial"
         font-size="17.8"
         fill="#ff0000"
         text-anchor="start"
         id="text4640">
cross
</text>
      <text
         x="747.1"
         y="137.7"
         font-family="Arial"
         font-size="17.8"
         fill="#ff0000"
         text-anchor="start"
         id="text4642">
bicycle
</text>
      <text
         x="747.1"
         y="129.1"
         font-family="Arial"
         font-size="17.8"
         fill="#ff0000"
         text-anchor="start"
         id="text4644">
motorcycle
</text>
      <text
         x="750.3"
         y="120.5"
         font-family="Arial"
         font-size="17.8"
         fill="#ff0000"
         text-anchor="start"
         id="text4646">
road sign
</text>
      <text
         x="791.9"
         y="111.9"
         font-family="Arial"
         font-size="17.8"
         fill="#ff0000"
         text-anchor="start"
         id="text4648">
car
</text>
      <text
         x="791.9"
         y="103.2"
         font-family="Arial"
         font-size="17.8"
         fill="#ff0000"
         text-anchor="start"
         id="text4650">
traffic cone
</text>
      <text
         x="441.5"
         y="94.6"
         font-family="Arial"
         font-size="17.8"
         fill="#ff0000"
         text-anchor="start"
         id="text4652">
handgun
</text>
      <text
         x="496.7"
         y="86.0"
         font-family="Arial"
         font-size="17.8"
         fill="#ff0000"
         text-anchor="start"
         id="text4654">
machinegun
</text>
      <text
         x="548.3"
         y="77.4"
         font-family="Arial"
         font-size="17.8"
         fill="#ff0000"
         text-anchor="start"
         id="text4656">
grenade
</text>
      <text
         x="644.0"
         y="68.8"
         font-family="Arial"
         font-size="17.8"
         fill="#ff0000"
         text-anchor="start"
         id="text4658">
army tank
</text>
      <text
         x="685.6"
         y="60.2"
         font-family="Arial"
         font-size="17.8"
         fill="#ff0000"
         text-anchor="start"
         id="text4660">
heavy cannon
</text>
      <text
         x="685.6"
         y="51.6"
         font-family="Arial"
         font-size="17.8"
         fill="#ff0000"
         text-anchor="start"
         id="text4662">
cannon
</text>
      <text
         x="644.0"
         y="43.0"
         font-family="Arial"
         font-size="17.8"
         fill="#ff0000"
         text-anchor="start"
         id="text4664">
bow and arrow
</text>
      <text
         x="644.0"
         y="34.4"
         font-family="Arial"
         font-size="17.8"
         fill="#ff0000"
         text-anchor="start"
         id="text4666">
rifle
</text>
    </g>
  </g>
</svg>
