<?xml version="1.0" encoding="UTF-8" standalone="no"?>
<svg
   xmlns:dc="http://purl.org/dc/elements/1.1/"
   xmlns:cc="http://creativecommons.org/ns#"
   xmlns:rdf="http://www.w3.org/1999/02/22-rdf-syntax-ns#"
   xmlns:svg="http://www.w3.org/2000/svg"
   xmlns="http://www.w3.org/2000/svg"
   xmlns:sodipodi="http://sodipodi.sourceforge.net/DTD/sodipodi-0.dtd"
   xmlns:inkscape="http://www.inkscape.org/namespaces/inkscape"
   width="184.659"
   height="92.5655"
   id="svg2"
   version="1.1"
   inkscape:version="0.48.0 r9654"
   sodipodi:docname="fig_kt_trials.pdf">
  <metadata
     id="metadata92">
    <rdf:RDF>
      <cc:Work
         rdf:about="">
        <dc:format>image/svg+xml</dc:format>
        <dc:type
           rdf:resource="http://purl.org/dc/dcmitype/StillImage" />
        <dc:title></dc:title>
      </cc:Work>
    </rdf:RDF>
  </metadata>
  <sodipodi:namedview
     pagecolor="#ffffff"
     bordercolor="#666666"
     borderopacity="1"
     objecttolerance="10"
     gridtolerance="10"
     guidetolerance="10"
     inkscape:pageopacity="0"
     inkscape:pageshadow="2"
     inkscape:window-width="1313"
     inkscape:window-height="748"
     id="namedview90"
     showgrid="false"
     inkscape:zoom="2.5993859"
     inkscape:cx="38.893803"
     inkscape:cy="46.282749"
     inkscape:window-x="-2"
     inkscape:window-y="-3"
     inkscape:window-maximized="1"
     inkscape:current-layer="svg2" />
  <defs
     id="defs4">
    <marker
       inkscape:stockid="Arrow2Mend"
       orient="auto"
       refY="0.0"
       refX="0.0"
       id="Arrow2Mend"
       style="overflow:visible;">
      <path
         id="path4034"
         style="font-size:12.0;fill-rule:evenodd;stroke-width:0.62500000;stroke-linejoin:round;"
         d="M 8.7185878,4.0337352 L -2.2072895,0.016013256 L 8.7185884,-4.0017078 C 6.9730900,-1.6296469 6.9831476,1.6157441 8.7185878,4.0337352 z "
         transform="scale(0.6) rotate(180) translate(0,0)" />
    </marker>
    <marker
       inkscape:stockid="Arrow2Lend"
       orient="auto"
       refY="0.0"
       refX="0.0"
       id="Arrow2Lend"
       style="overflow:visible;">
      <path
         id="path4028"
         style="font-size:12.0;fill-rule:evenodd;stroke-width:0.62500000;stroke-linejoin:round;"
         d="M 8.7185878,4.0337352 L -2.2072895,0.016013256 L 8.7185884,-4.0017078 C 6.9730900,-1.6296469 6.9831476,1.6157441 8.7185878,4.0337352 z "
         transform="scale(1.1) rotate(180) translate(1,0)" />
    </marker>
    <marker
       id="ArrowEnd"
       viewBox="0 0 10 10"
       refX="0"
       refY="5"
       markerUnits="strokeWidth"
       markerWidth="4"
       markerHeight="3"
       orient="auto">
      <path
         d="M 0 0 L 10 5 L 0 10 z"
         id="path7" />
    </marker>
    <marker
       id="ArrowStart"
       viewBox="0 0 10 10"
       refX="10"
       refY="5"
       markerUnits="strokeWidth"
       markerWidth="4"
       markerHeight="3"
       orient="auto">
      <path
         d="M 10 0 L 0 5 L 10 10 z"
         id="path10" />
    </marker>
  </defs>
  <text
     xml:space="preserve"
     style="font-size:40px;font-style:normal;font-weight:normal;line-height:125%;letter-spacing:0px;word-spacing:0px;fill:#000000;fill-opacity:1;stroke:none;font-family:Bitstream Vera Sans"
     x="204.27901"
     y="31.781912"
     id="text3128"
     sodipodi:linespacing="125%"><tspan
       sodipodi:role="line"
       id="tspan3130"
       x="204.27901"
       y="31.781912" /></text>
  <g
     id="g3296">
    <path
       style="fill:#ffffff;fill-rule:evenodd;stroke:none"
       d="m 15.397725,41.227106 26.793,0 0,-22.9651 -26.793,0 0,22.9651 z"
       id="path14"
       inkscape:connector-curvature="0" />
    <path
       style="fill:none;stroke:#000000;stroke-width:1.91395998"
       d="m 15.397725,41.227106 26.793,0 0,-22.9651 -26.793,0 0,22.9651 z"
       id="path16"
       inkscape:connector-curvature="0" />
    <path
       style="fill:#ffffff;fill-rule:evenodd;stroke:none"
       d="m 34.538325,46.965306 26.793,0 0,-22.9653 -26.793,0 0,22.9653 z"
       id="path22"
       inkscape:connector-curvature="0" />
    <path
       style="fill:none;stroke:#000000;stroke-width:1.91395998"
       d="m 34.538325,46.965306 26.793,0 0,-22.9653 -26.793,0 0,22.9653 z"
       id="path24"
       inkscape:connector-curvature="0" />
    <path
       style="fill:#ffffff;fill-rule:evenodd;stroke:none"
       d="m 53.679025,52.707506 26.7929,0 0,-22.9648 -26.7929,0 0,22.9648 z"
       id="path28"
       inkscape:connector-curvature="0" />
    <path
       style="fill:none;stroke:#000000;stroke-width:1.91395998"
       d="m 53.679025,52.707506 26.7929,0 0,-22.9648 -26.7929,0 0,22.9648 z"
       id="path30"
       inkscape:connector-curvature="0" />
    <path
       style="fill:#ffffff;fill-rule:evenodd;stroke:none"
       d="m 91.956825,64.191906 26.792005,0 0,-22.9648 -26.792005,0 0,22.9648 z"
       id="path46"
       inkscape:connector-curvature="0" />
    <path
       style="fill:none;stroke:#000000;stroke-width:1.91395998"
       d="m 91.956825,64.191906 26.792005,0 0,-22.9648 -26.792005,0 0,22.9648 z"
       id="path48"
       inkscape:connector-curvature="0" />
    <path
       style="fill:#ffffff;fill-rule:evenodd;stroke:none"
       d="m 111.09683,69.934106 26.79299,0 0,-22.9649 -26.793,0 0,22.9649 z"
       id="path54"
       inkscape:connector-curvature="0" />
    <path
       style="fill:none;stroke:#000000;stroke-width:1.91395998"
       d="m 111.09683,69.934106 26.79299,0 0,-22.9649 -26.793,0 0,22.9649 z"
       id="path56"
       inkscape:connector-curvature="0" />
    <path
       style="fill:#ffffff;fill-rule:evenodd;stroke:none"
       d="m 130.23382,75.676306 26.793,0 0,-22.9649 -26.793,0 0,22.9649 z"
       id="path60"
       inkscape:connector-curvature="0" />
    <path
       style="fill:none;stroke:#000000;stroke-width:1.91395998"
       d="m 130.23382,75.676306 26.793,0 0,-22.9649 -26.793,0 0,22.9649 z"
       id="path62"
       inkscape:connector-curvature="0" />
    <path
       style="fill:#ffffff;fill-rule:evenodd;stroke:none"
       d="m 149.37382,81.418506 26.79301,0 0,-22.9649 -26.79301,0 0,22.9649 z"
       id="path70"
       inkscape:connector-curvature="0" />
    <path
       style="fill:none;stroke:#000000;stroke-width:1.91395998"
       d="m 149.37382,81.418506 26.79301,0 0,-22.9649 -26.79301,0 0,22.9649 z"
       id="path72"
       inkscape:connector-curvature="0" />
    <path
       style="fill:#000000;fill-rule:evenodd;stroke:none"
       d="m 67.249325,66.324706 -0.9414,-0.2851 0.4765,-1.5821 -0.9101,-0.2734 -0.4766,1.582 -0.7773,-0.2343 -0.2227,0.746 0.7773,0.2344 -1.3164,4.3516 c -0.1757,0.582 0.1172,1.0312 0.8321,1.2461 0.2187,0.0625 0.4453,0.1093 0.7695,0.1484 l 0.2305,-0.7695 c -0.1289,-0.0039 -0.2735,-0.0352 -0.4492,-0.086 -0.3946,-0.1171 -0.4688,-0.2617 -0.3477,-0.6679 l 1.1914,-3.9453 0.9414,0.2851 0.2227,-0.75 z"
       id="path78"
       inkscape:connector-curvature="0" />
    <path
       style="fill:#000000;fill-rule:evenodd;stroke:none"
       d="m 69.108625,66.879406 -0.9101,-0.2734 -1.7422,5.7578 0.9102,0.2734 1.7421,-5.7578 z m 0.6797,-2.2539 -0.9218,-0.2773 -0.3477,1.1523 0.9219,0.2773 0.3476,-1.1523 z"
       id="path80"
       inkscape:connector-curvature="0" />
    <path
       style="fill:#000000;fill-rule:evenodd;stroke:none"
       d="m 70.729725,67.414606 -1.7421,5.7578 0.9218,0.2773 1.0938,-3.6133 c 0.25,-0.832 1.0586,-1.3203 1.8047,-1.0937 0.6797,0.2031 0.9375,0.7383 0.7148,1.4765 l -1.1992,3.9649 0.9219,0.2773 1.0937,-3.6132 c 0.25,-0.8321 1.0586,-1.3204 1.8047,-1.0938 0.668,0.1992 0.9336,0.75 0.7148,1.4766 l -1.1992,3.9648 0.9219,0.2774 1.3047,-4.3164 c 0.3125,-1.0313 -0.1055,-1.7813 -1.1836,-2.1094 -0.7656,-0.2305 -1.3008,-0.1406 -2.0352,0.3437 -0.1523,-0.7187 -0.5351,-1.1211 -1.2812,-1.3476 -0.7656,-0.2305 -1.3594,-0.0977 -2.0625,0.4414 l 0.2422,-0.8125 -0.836,-0.2578 z"
       id="path82"
       inkscape:connector-curvature="0" />
    <path
       style="fill:#000000;fill-rule:evenodd;stroke:none"
       d="m 83.733625,74.875506 c 0.2657,-0.8789 0.3594,-1.4258 0.3243,-1.9023 -0.086,-1.0547 -0.793,-1.8946 -1.8672,-2.2188 -1.6016,-0.4844 -3.0078,0.4297 -3.5821,2.3203 -0.5703,1.8906 0.0743,3.3555 1.6914,3.8438 1.3165,0.3984 2.4532,-0.0703 3.0665,-1.2539 l -0.9219,-0.2774 c -0.4805,0.6797 -1.1172,0.918 -1.8516,0.6953 -0.582,-0.1757 -0.9961,-0.5898 -1.1562,-1.164 -0.1172,-0.3946 -0.0938,-0.75 0.0625,-1.3203 l 4.2343,1.2773 z m -3.996,-2.0273 c 0.3984,-1.043 1.2539,-1.5352 2.1796,-1.2579 0.8985,0.2696 1.3672,1.2266 1.0782,2.1719 -0.0039,0.0196 -0.0118,0.043 -0.0274,0.0586 l -3.2304,-0.9726 z"
       id="path84"
       inkscape:connector-curvature="0" />
    <path
       style="fill:none;stroke:#000000;stroke-width:1.86479485"
       d="M 11.545042,43.116523 160.47563,87.94517"
       id="path86"
       inkscape:connector-curvature="0" />
    <path
       style="fill:none;stroke:#000000;stroke-width:2.25275946"
       d="m 155.93421,84.058776 7.8138,4.84653 -9.07903,-0.43677"
       id="path88"
       inkscape:connector-curvature="0" />
    <text
       sodipodi:linespacing="125%"
       id="text3132"
       y="32.166618"
       x="22.312963"
       style="font-size:40px;font-style:normal;font-weight:normal;line-height:125%;letter-spacing:0px;word-spacing:0px;fill:#000000;fill-opacity:1;stroke:none;font-family:Bitstream Vera Sans"
       xml:space="preserve"><tspan
         style="font-size:6px"
         y="32.166618"
         x="22.312963"
         id="tspan3134"
         sodipodi:role="line">cat</tspan></text>
    <text
       xml:space="preserve"
       style="font-size:40px;font-style:normal;font-weight:normal;line-height:125%;letter-spacing:0px;word-spacing:0px;fill:#000000;fill-opacity:1;stroke:none;font-family:Bitstream Vera Sans"
       x="98.869499"
       y="55.248993"
       id="text3136"
       sodipodi:linespacing="125%"><tspan
         sodipodi:role="line"
         id="tspan3138"
         x="98.869499"
         y="55.248993"
         style="font-size:6px">dog</tspan></text>
    <text
       xml:space="preserve"
       style="font-size:40px;font-style:normal;font-weight:normal;line-height:125%;letter-spacing:0px;word-spacing:0px;fill:#000000;fill-opacity:1;stroke:none;font-family:Bitstream Vera Sans"
       x="151.95897"
       y="72.945473"
       id="text3144"
       sodipodi:linespacing="125%"><tspan
         sodipodi:role="line"
         id="tspan3146"
         x="151.95897"
         y="72.945473"
         style="font-size:6px">recall</tspan></text>
    <text
       xml:space="preserve"
       style="font-size:40px;font-style:normal;font-weight:normal;line-height:125%;letter-spacing:0px;word-spacing:0px;fill:#000000;fill-opacity:1;stroke:none;font-family:Bitstream Vera Sans"
       x="9.2329674"
       y="87.949028"
       id="text3164"
       sodipodi:linespacing="125%"><tspan
         sodipodi:role="line"
         id="tspan3166"
         x="9.2329674"
         y="87.949028"
         style="font-size:6px">Categories:</tspan></text>
    <text
       sodipodi:linespacing="125%"
       id="text3960"
       y="16.778374"
       x="47.703564"
       style="font-size:40px;font-style:normal;font-weight:normal;line-height:125%;letter-spacing:0px;word-spacing:0px;fill:#000000;fill-opacity:1;stroke:none;font-family:Bitstream Vera Sans"
       xml:space="preserve"><tspan
         style="font-size:6px"
         y="16.778374"
         x="47.703564"
         id="tspan3962"
         sodipodi:role="line">ignore</tspan></text>
    <text
       sodipodi:linespacing="125%"
       id="text3964"
       y="67.174881"
       x="131.95425"
       style="font-size:40px;font-style:normal;font-weight:normal;line-height:125%;letter-spacing:0px;word-spacing:0px;fill:#000000;fill-opacity:1;stroke:none;font-family:Bitstream Vera Sans"
       xml:space="preserve"><tspan
         style="font-size:6px"
         y="67.174881"
         x="131.95425"
         id="tspan3966"
         sodipodi:role="line">recall</tspan></text>
    <text
       sodipodi:linespacing="125%"
       id="text3972"
       y="38.706631"
       x="40.009449"
       style="font-size:40px;font-style:normal;font-weight:normal;line-height:125%;letter-spacing:0px;word-spacing:0px;fill:#000000;fill-opacity:1;stroke:none;font-family:Bitstream Vera Sans"
       xml:space="preserve"><tspan
         style="font-size:6px"
         y="38.706631"
         x="40.009449"
         id="tspan3974"
         sodipodi:role="line">inch</tspan></text>
    <text
       xml:space="preserve"
       style="font-size:40px;font-style:normal;font-weight:normal;line-height:125%;letter-spacing:0px;word-spacing:0px;fill:#000000;fill-opacity:1;stroke:none;font-family:Bitstream Vera Sans"
       x="62.322418"
       y="43.707809"
       id="text3976"
       sodipodi:linespacing="125%"><tspan
         sodipodi:role="line"
         id="tspan3978"
         x="62.322418"
         y="43.707809"
         style="font-size:6px">tin</tspan></text>
    <text
       sodipodi:linespacing="125%"
       id="text3982"
       y="48.324284"
       x="81.942444"
       style="font-size:40px;font-style:normal;font-weight:normal;line-height:125%;letter-spacing:0px;word-spacing:0px;fill:#000000;fill-opacity:1;stroke:none;font-family:Bitstream Vera Sans"
       xml:space="preserve"><tspan
         style="font-size:8px"
         y="48.324284"
         x="81.942444"
         id="tspan3984"
         sodipodi:role="line">...</tspan></text>
    <text
       xml:space="preserve"
       style="font-size:40px;font-style:normal;font-weight:normal;line-height:125%;letter-spacing:0px;word-spacing:0px;fill:#000000;fill-opacity:1;stroke:none;font-family:Bitstream Vera Sans"
       x="124.26011"
       y="40.245457"
       id="text3990"
       sodipodi:linespacing="125%"><tspan
         sodipodi:role="line"
         id="tspan3992"
         x="124.26011"
         y="40.245457"
         style="font-size:6px">ignore</tspan></text>
    <text
       xml:space="preserve"
       style="font-size:40px;font-style:normal;font-weight:normal;line-height:125%;letter-spacing:0px;word-spacing:0px;fill:#000000;fill-opacity:1;stroke:none;font-family:Bitstream Vera Sans"
       x="92.329514"
       y="25.626616"
       id="text3994"
       sodipodi:linespacing="125%"><tspan
         sodipodi:role="line"
         id="tspan3996"
         x="92.329514"
         y="25.626616"
         style="font-size:8px">...</tspan></text>
    <text
       sodipodi:linespacing="125%"
       id="text3998"
       y="61.789005"
       x="115.02717"
       style="font-size:40px;font-style:normal;font-weight:normal;line-height:125%;letter-spacing:0px;word-spacing:0px;fill:#000000;fill-opacity:1;stroke:none;font-family:Bitstream Vera Sans"
       xml:space="preserve"><tspan
         style="font-size:6px"
         y="61.789005"
         x="115.02717"
         id="tspan4000"
         sodipodi:role="line">aunt</tspan></text>
    <path
       inkscape:connector-curvature="0"
       id="path4002"
       d="m 165.27343,58.476896 c 8.58149,-7.679021 8.58149,-7.679021 8.58149,-7.679021"
       style="fill:none;stroke:#000000;stroke-width:0.69949448px;stroke-linecap:butt;stroke-linejoin:miter;stroke-opacity:1;marker-end:url(#Arrow2Mend)" />
    <path
       style="fill:none;stroke:#000000;stroke-width:0.69949448px;stroke-linecap:butt;stroke-linejoin:miter;stroke-opacity:1;marker-end:url(#Arrow2Mend)"
       d="m 27.933304,18.467446 c 8.581488,-7.679021 8.581488,-7.679021 8.581488,-7.679021"
       id="path4642"
       inkscape:connector-curvature="0" />
    <path
       style="fill:none;stroke:#000000;stroke-width:0.69949448px;stroke-linecap:butt;stroke-linejoin:miter;stroke-opacity:1;marker-end:url(#Arrow2Mend)"
       d="M 69.096872,29.623927 C 77.67836,21.944906 77.67836,21.944906 77.67836,21.944906"
       id="path4644"
       inkscape:connector-curvature="0" />
    <path
       style="fill:none;stroke:#000000;stroke-width:0.69949448px;stroke-linecap:butt;stroke-linejoin:miter;stroke-opacity:1;marker-end:url(#Arrow2Mend)"
       d="m 106.79808,41.934527 c 8.58149,-7.679021 8.58149,-7.679021 8.58149,-7.679021"
       id="path4646"
       inkscape:connector-curvature="0" />
    <path
       style="fill:none;stroke:#000000;stroke-width:0.69949448px;stroke-linecap:butt;stroke-linejoin:miter;stroke-opacity:1;marker-end:url(#Arrow2Mend)"
       d="m 147.57695,53.475715 c 8.58149,-7.679021 8.58149,-7.679021 8.58149,-7.679021"
       id="path4648"
       inkscape:connector-curvature="0" />
    <text
       xml:space="preserve"
       style="font-size:40px;font-style:normal;font-weight:normal;line-height:125%;letter-spacing:0px;word-spacing:0px;fill:#000000;fill-opacity:1;stroke:none;font-family:Bitstream Vera Sans"
       x="30.776491"
       y="8.6995411"
       id="text3926"
       sodipodi:linespacing="125%"><tspan
         sodipodi:role="line"
         id="tspan3928"
         x="30.776491"
         y="8.6995411"
         style="font-size:6px">store</tspan></text>
    <text
       sodipodi:linespacing="125%"
       id="text3930"
       y="20.240728"
       x="72.709473"
       style="font-size:40px;font-style:normal;font-weight:normal;line-height:125%;letter-spacing:0px;word-spacing:0px;fill:#000000;fill-opacity:1;stroke:none;font-family:Bitstream Vera Sans"
       xml:space="preserve"><tspan
         style="font-size:6px"
         y="20.240728"
         x="72.709473"
         id="tspan3932"
         sodipodi:role="line">store</tspan></text>
    <text
       xml:space="preserve"
       style="font-size:40px;font-style:normal;font-weight:normal;line-height:125%;letter-spacing:0px;word-spacing:0px;fill:#000000;fill-opacity:1;stroke:none;font-family:Bitstream Vera Sans"
       x="109.64127"
       y="32.551331"
       id="text3934"
       sodipodi:linespacing="125%"><tspan
         sodipodi:role="line"
         id="tspan3936"
         x="109.64127"
         y="32.551331"
         style="font-size:6px">store</tspan></text>
    <text
       sodipodi:linespacing="125%"
       id="text3938"
       y="47.939579"
       x="168.11664"
       style="font-size:40px;font-style:normal;font-weight:normal;line-height:125%;letter-spacing:0px;word-spacing:0px;fill:#000000;fill-opacity:1;stroke:none;font-family:Bitstream Vera Sans"
       xml:space="preserve"><tspan
         style="font-size:8px"
         y="47.939579"
         x="168.11664"
         id="tspan3940"
         sodipodi:role="line">`tin'</tspan></text>
    <text
       sodipodi:linespacing="125%"
       id="text3942"
       y="42.553688"
       x="148.11189"
       style="font-size:40px;font-style:normal;font-weight:normal;line-height:125%;letter-spacing:0px;word-spacing:0px;fill:#000000;fill-opacity:1;stroke:none;font-family:Bitstream Vera Sans"
       xml:space="preserve"><tspan
         style="font-size:8px"
         y="42.553688"
         x="148.11189"
         id="tspan3944"
         sodipodi:role="line">`dog'</tspan></text>
    <text
       sodipodi:linespacing="125%"
       id="text3946"
       y="88.333725"
       x="54.628304"
       style="font-size:40px;font-style:normal;font-weight:normal;line-height:125%;letter-spacing:0px;word-spacing:0px;fill:#000000;fill-opacity:1;stroke:none;font-family:Bitstream Vera Sans"
       xml:space="preserve"><tspan
         style="font-size:6px"
         y="88.333725"
         x="54.628304"
         id="tspan3948"
         sodipodi:role="line">Animals</tspan></text>
    <text
       xml:space="preserve"
       style="font-size:40px;font-style:normal;font-weight:normal;line-height:125%;letter-spacing:0px;word-spacing:0px;fill:#000000;fill-opacity:1;stroke:none;font-family:Bitstream Vera Sans"
       x="96.176582"
       y="88.333725"
       id="text3950"
       sodipodi:linespacing="125%"><tspan
         sodipodi:role="line"
         id="tspan3952"
         x="96.176582"
         y="88.333725"
         style="font-size:6px">Metals</tspan></text>
  </g>
</svg>
