<?xml version="1.0" encoding="ISO-8859-1" standalone="yes"?>
<svg width="451.757" height="381.598">
  <defs> 
    <marker id="ArrowEnd" viewBox="0 0 10 10" refX="0" refY="5" 
     markerUnits="strokeWidth" 
     markerWidth="4" 
     markerHeight="3" 
     orient="auto"> 
        <path d="M 0 0 L 10 5 L 0 10 z" /> 
    </marker>
    <marker id="ArrowStart" viewBox="0 0 10 10" refX="10" refY="5" 
     markerUnits="strokeWidth" 
     markerWidth="4" 
     markerHeight="3" 
     orient="auto"> 
        <path d="M 10 0 L 0 5 L 10 10 z" /> 
    </marker> </defs>
<g>
<path style="stroke:#000000; stroke-width:1.59941; fill:none" d="M 443.375 325.711L 78.7108 325.711"/>
<path style="stroke:#000000; stroke-width:1.59941; fill:none" d="M 443.375 263.332L 78.7108 263.332"/>
<path style="stroke:#000000; stroke-width:1.59941; fill:none" d="M 440.977 200.157L 78.7108 200.157"/>
<path style="stroke:#000000; stroke-width:1.59941; fill:none" d="M 442.574 136.18L 78.7108 136.18"/>
<path style="stroke:#000000; stroke-width:1.59941; fill:none" d="M 442.574 73.801L 78.7108 73.801"/>
<path style="stroke:#000000; stroke-width:1.59941; fill:none" d="M 443.375 10.625L 79.5118 10.625"/>
<path style="stroke:#808080; stroke-width:1.59941; fill:none" d="M 441.778 325.711L 441.778 10.629"/>
<path style="stroke:none; fill-rule:evenodd; fill:#00ff00" d="M 354.61 325.711L 384.996 325.711L 384.996 141.782L 354.61 141.782L 354.61 325.711z"/>
<path style="stroke:#00ff00; stroke-width:1.59941; fill:none" d="M 354.61 325.711L 384.996 325.711L 384.996 141.782L 354.61 141.782L 354.61 325.711z"/>
<path style="stroke:#000000; stroke-width:1.59941; fill:none" d="M 354.61 325.711L 384.996 325.711L 384.996 141.782L 354.61 141.782L 354.61 325.711z"/>
<path style="stroke:none; fill-rule:evenodd; fill:#ffffff" d="M 369.805 148.973L 369.805 141.778"/>
<path style="stroke:#ffffff; stroke-width:1.59941; fill:none" d="M 369.805 148.973L 369.805 141.778L 369.805 148.973z"/>
<path style="stroke:#000000; stroke-width:1.59941; fill:none" d="M 369.805 148.973L 369.805 141.778L 369.805 148.973z"/>
<path style="stroke:none; fill-rule:evenodd; fill:#ffffff" d="M 373.801 148.973L 368.203 148.973"/>
<path style="stroke:#ffffff; stroke-width:1.59941; fill:none" d="M 373.801 148.973L 368.203 148.973L 373.801 148.973z"/>
<path style="stroke:#000000; stroke-width:1.59941; fill:none" d="M 373.801 148.973L 368.203 148.973L 373.801 148.973z"/>
<path style="stroke:#000000; stroke-width:1.59941; fill:none" d="M 369.805 148.973L 369.805 141.778"/>
<path style="stroke:#000000; stroke-width:1.59941; fill:none" d="M 373.801 148.973L 366.606 148.973"/>
<path style="stroke:none; fill-rule:evenodd; fill:#ffffff" d="M 369.805 134.582L 369.805 141.778"/>
<path style="stroke:#ffffff; stroke-width:1.59941; fill:none" d="M 369.805 134.582L 369.805 141.778L 369.805 134.582z"/>
<path style="stroke:#000000; stroke-width:1.59941; fill:none" d="M 369.805 134.582L 369.805 141.778L 369.805 134.582z"/>
<path style="stroke:none; fill-rule:evenodd; fill:#ffffff" d="M 373.801 133.782L 368.203 133.782"/>
<path style="stroke:#ffffff; stroke-width:1.59941; fill:none" d="M 373.801 133.782L 368.203 133.782L 373.801 133.782z"/>
<path style="stroke:#000000; stroke-width:1.59941; fill:none" d="M 373.801 133.782L 368.203 133.782L 373.801 133.782z"/>
<path style="stroke:#000000; stroke-width:1.59941; fill:none" d="M 369.805 134.582L 369.805 141.778"/>
<path style="stroke:#000000; stroke-width:1.59941; fill:none" d="M 373.801 133.782L 366.606 133.782"/>
<path style="stroke:none; fill-rule:evenodd; fill:#0000ff" d="M 385.797 325.711L 416.184 325.711L 416.184 29.821L 385.797 29.821L 385.797 325.711z"/>
<path style="stroke:#0000ff; stroke-width:1.59941; fill:none" d="M 385.797 325.711L 416.184 325.711L 416.184 29.821L 385.797 29.821L 385.797 325.711z"/>
<path style="stroke:#000000; stroke-width:1.59941; fill:none" d="M 385.797 325.711L 416.184 325.711L 416.184 29.821L 385.797 29.821L 385.797 325.711z"/>
<path style="stroke:none; fill-rule:evenodd; fill:#ffffff" d="M 400.992 35.418L 400.992 28.223"/>
<path style="stroke:#ffffff; stroke-width:1.59941; fill:none" d="M 400.992 35.418L 400.992 28.223L 400.992 35.418z"/>
<path style="stroke:#000000; stroke-width:1.59941; fill:none" d="M 400.992 35.418L 400.992 28.223L 400.992 35.418z"/>
<path style="stroke:none; fill-rule:evenodd; fill:#ffffff" d="M 404.989 35.418L 396.992 35.418"/>
<path style="stroke:#ffffff; stroke-width:1.59941; fill:none" d="M 404.989 35.418L 396.992 35.418L 404.989 35.418z"/>
<path style="stroke:#000000; stroke-width:1.59941; fill:none" d="M 404.989 35.418L 396.992 35.418L 404.989 35.418z"/>
<path style="stroke:#000000; stroke-width:1.59941; fill:none" d="M 402.59 36.215L 396.992 35.418"/>
<path style="stroke:none; fill-rule:evenodd; fill:#ffffff" d="M 400.992 22.621L 400.992 28.219"/>
<path style="stroke:#ffffff; stroke-width:1.59941; fill:none" d="M 400.992 22.621L 400.992 28.219L 400.992 22.621z"/>
<path style="stroke:#000000; stroke-width:1.59941; fill:none" d="M 400.992 22.621L 400.992 28.219L 400.992 22.621z"/>
<path style="stroke:none; fill-rule:evenodd; fill:#ffffff" d="M 404.989 22.621L 396.992 22.621"/>
<path style="stroke:#ffffff; stroke-width:1.59941; fill:none" d="M 404.989 22.621L 396.992 22.621L 404.989 22.621z"/>
<path style="stroke:#000000; stroke-width:1.59941; fill:none" d="M 404.989 22.621L 396.992 22.621L 404.989 22.621z"/>
<path style="stroke:#000000; stroke-width:1.59941; fill:none" d="M 402.59 22.621L 396.992 22.621"/>
<path style="stroke:none; fill-rule:evenodd; fill:#00ff00" d="M 183.473 325.711L 213.86 325.711L 213.86 321.715L 183.473 321.715L 183.473 325.711z"/>
<path style="stroke:#00ff00; stroke-width:1.59941; fill:none" d="M 183.473 325.711L 213.86 325.711L 213.86 321.715L 183.473 321.715L 183.473 325.711z"/>
<path style="stroke:#000000; stroke-width:1.59941; fill:none" d="M 183.473 325.711L 213.86 325.711L 213.86 321.715L 183.473 321.715L 183.473 325.711z"/>
<path style="stroke:none; fill-rule:evenodd; fill:#ffffff" d="M 197.067 322.512L 197.067 320.914"/>
<path style="stroke:#ffffff; stroke-width:1.59941; fill:none" d="M 197.067 322.512L 197.067 320.914L 197.067 322.512z"/>
<path style="stroke:#000000; stroke-width:1.59941; fill:none" d="M 197.067 322.512L 197.067 320.914L 197.067 322.512z"/>
<path style="stroke:none; fill-rule:evenodd; fill:#ffffff" d="M 201.067 322.512L 195.469 322.512"/>
<path style="stroke:#ffffff; stroke-width:1.59941; fill:none" d="M 201.067 322.512L 195.469 322.512L 201.067 322.512z"/>
<path style="stroke:#000000; stroke-width:1.59941; fill:none" d="M 201.067 322.512L 195.469 322.512L 201.067 322.512z"/>
<path style="stroke:#000000; stroke-width:1.59941; fill:none" d="M 197.067 322.512L 197.067 322.512"/>
<path style="stroke:#000000; stroke-width:1.59941; fill:none" d="M 201.067 322.512L 193.071 322.512"/>
<path style="stroke:none; fill-rule:evenodd; fill:#ffffff" d="M 201.067 320.91L 195.469 320.91"/>
<path style="stroke:#ffffff; stroke-width:1.59941; fill:none" d="M 201.067 320.91L 195.469 320.91L 201.067 320.91z"/>
<path style="stroke:#000000; stroke-width:1.59941; fill:none" d="M 201.067 320.91L 195.469 320.91L 201.067 320.91z"/>
<path style="stroke:#000000; stroke-width:1.59941; fill:none" d="M 197.067 320.91L 197.067 322.508"/>
<path style="stroke:#000000; stroke-width:1.59941; fill:none" d="M 201.067 320.91L 193.071 320.91"/>
<path style="stroke:none; fill-rule:evenodd; fill:#0000ff" d="M 213.86 325.711L 242.649 325.711L 242.649 320.914L 213.86 320.914L 213.86 325.711z"/>
<path style="stroke:#0000ff; stroke-width:1.59941; fill:none" d="M 213.86 325.711L 242.649 325.711L 242.649 320.914L 213.86 320.914L 213.86 325.711z"/>
<path style="stroke:#000000; stroke-width:1.59941; fill:none" d="M 213.86 325.711L 242.649 325.711L 242.649 320.914L 213.86 320.914L 213.86 325.711z"/>
<path style="stroke:none; fill-rule:evenodd; fill:#ffffff" d="M 227.453 322.512L 227.453 319.317"/>
<path style="stroke:#ffffff; stroke-width:1.59941; fill:none" d="M 227.453 322.512L 227.453 319.317L 227.453 322.512z"/>
<path style="stroke:#000000; stroke-width:1.59941; fill:none" d="M 227.453 322.512L 227.453 319.317L 227.453 322.512z"/>
<path style="stroke:#000000; stroke-width:1.59941; fill:none" d="M 227.453 324.11L 228.25 320.914"/>
<path style="stroke:#000000; stroke-width:1.59941; fill:none" d="M 231.453 324.11L 224.258 324.11"/>
<path style="stroke:none; fill-rule:evenodd; fill:#ffffff" d="M 227.453 317.711L 227.453 319.309"/>
<path style="stroke:#ffffff; stroke-width:1.59941; fill:none" d="M 227.453 317.711L 227.453 319.309L 227.453 317.711z"/>
<path style="stroke:#000000; stroke-width:1.59941; fill:none" d="M 227.453 317.711L 227.453 319.309L 227.453 317.711z"/>
<path style="stroke:#000000; stroke-width:1.59941; fill:none" d="M 227.453 317.711L 228.25 320.907"/>
<path style="stroke:none; fill-rule:evenodd; fill:#ffffff" d="M 231.453 317.711L 225.856 317.711"/>
<path style="stroke:#ffffff; stroke-width:1.59941; fill:none" d="M 231.453 317.711L 225.856 317.711L 231.453 317.711z"/>
<path style="stroke:#000000; stroke-width:1.59941; fill:none" d="M 231.453 317.711L 225.856 317.711L 231.453 317.711z"/>
<path style="stroke:#000000; stroke-width:1.59941; fill:none" d="M 231.453 317.711L 224.258 317.711"/>
<path style="stroke:none; fill-rule:evenodd; fill:#00ff00" d="M 94.7028 325.711L 125.09 325.711L 125.09 312.918L 94.7028 312.918L 94.7028 325.711z"/>
<path style="stroke:#00ff00; stroke-width:1.59941; fill:none" d="M 94.7028 325.711L 125.09 325.711L 125.09 312.918L 94.7028 312.918L 94.7028 325.711z"/>
<path style="stroke:#000000; stroke-width:1.59941; fill:none" d="M 94.7028 325.711L 125.09 325.711L 125.09 312.918L 94.7028 312.918L 94.7028 325.711z"/>
<path style="stroke:none; fill-rule:evenodd; fill:#ffffff" d="M 109.899 314.512L 109.899 312.114"/>
<path style="stroke:#ffffff; stroke-width:1.59941; fill:none" d="M 109.899 314.512L 109.899 312.114L 109.899 314.512z"/>
<path style="stroke:#000000; stroke-width:1.59941; fill:none" d="M 109.899 314.512L 109.899 312.114L 109.899 314.512z"/>
<path style="stroke:none; fill-rule:evenodd; fill:#ffffff" d="M 113.899 314.512L 105.903 314.512"/>
<path style="stroke:#ffffff; stroke-width:1.59941; fill:none" d="M 113.899 314.512L 105.903 314.512L 113.899 314.512z"/>
<path style="stroke:#000000; stroke-width:1.59941; fill:none" d="M 113.899 314.512L 105.903 314.512L 113.899 314.512z"/>
<path style="stroke:#000000; stroke-width:1.59941; fill:none" d="M 112.297 315.313L 105.903 314.516"/>
<path style="stroke:none; fill-rule:evenodd; fill:#ffffff" d="M 109.899 308.914L 109.899 312.11"/>
<path style="stroke:#ffffff; stroke-width:1.59941; fill:none" d="M 109.899 308.914L 109.899 312.11L 109.899 308.914z"/>
<path style="stroke:#000000; stroke-width:1.59941; fill:none" d="M 109.899 308.914L 109.899 312.11L 109.899 308.914z"/>
<path style="stroke:none; fill-rule:evenodd; fill:#ffffff" d="M 113.899 308.914L 105.903 308.914"/>
<path style="stroke:#ffffff; stroke-width:1.59941; fill:none" d="M 113.899 308.914L 105.903 308.914L 113.899 308.914z"/>
<path style="stroke:#000000; stroke-width:1.59941; fill:none" d="M 113.899 308.914L 105.903 308.914L 113.899 308.914z"/>
<path style="stroke:none; fill-rule:evenodd; fill:#0000ff" d="M 125.094 325.711L 156.281 325.711L 156.281 322.516L 125.094 322.516L 125.094 325.711z"/>
<path style="stroke:#0000ff; stroke-width:1.59941; fill:none" d="M 125.094 325.711L 156.281 325.711L 156.281 322.516L 125.094 322.516L 125.094 325.711z"/>
<path style="stroke:#000000; stroke-width:1.59941; fill:none" d="M 125.094 325.711L 156.281 325.711L 156.281 322.516L 125.094 322.516L 125.094 325.711z"/>
<path style="stroke:#000000; stroke-width:1.59941; fill:none" d="M 138.688 322.512L 139.485 322.512"/>
<path style="stroke:none; fill-rule:evenodd; fill:#ffffff" d="M 142.688 322.512L 137.09 322.512"/>
<path style="stroke:#ffffff; stroke-width:1.59941; fill:none" d="M 142.688 322.512L 137.09 322.512L 142.688 322.512z"/>
<path style="stroke:#000000; stroke-width:1.59941; fill:none" d="M 142.688 322.512L 137.09 322.512L 142.688 322.512z"/>
<path style="stroke:#000000; stroke-width:1.59941; fill:none" d="M 142.688 322.512L 135.492 322.512"/>
<path style="stroke:#000000; stroke-width:1.59941; fill:none" d="M 138.688 322.512L 139.485 322.512"/>
<path style="stroke:none; fill-rule:evenodd; fill:#ffffff" d="M 142.688 322.512L 137.09 322.512"/>
<path style="stroke:#ffffff; stroke-width:1.59941; fill:none" d="M 142.688 322.512L 137.09 322.512L 142.688 322.512z"/>
<path style="stroke:#000000; stroke-width:1.59941; fill:none" d="M 142.688 322.512L 137.09 322.512L 142.688 322.512z"/>
<path style="stroke:#000000; stroke-width:1.59941; fill:none" d="M 142.688 322.512L 135.492 322.512"/>
<path style="stroke:none; fill-rule:evenodd; fill:#00ff00" d="M 266.641 325.711L 297.828 325.711L 297.828 288.129L 266.641 288.129L 266.641 325.711z"/>
<path style="stroke:#00ff00; stroke-width:1.59941; fill:none" d="M 266.641 325.711L 297.828 325.711L 297.828 288.129L 266.641 288.129L 266.641 325.711z"/>
<path style="stroke:#000000; stroke-width:1.59941; fill:none" d="M 266.641 325.711L 297.828 325.711L 297.828 288.129L 266.641 288.129L 266.641 325.711z"/>
<path style="stroke:none; fill-rule:evenodd; fill:#ffffff" d="M 282.637 296.922L 282.637 287.328"/>
<path style="stroke:#ffffff; stroke-width:1.59941; fill:none" d="M 282.637 296.922L 282.637 287.328L 282.637 296.922z"/>
<path style="stroke:#000000; stroke-width:1.59941; fill:none" d="M 282.637 296.922L 282.637 287.328L 282.637 296.922z"/>
<path style="stroke:#000000; stroke-width:1.59941; fill:none" d="M 282.637 297.719L 282.637 288.922"/>
<path style="stroke:#000000; stroke-width:1.59941; fill:none" d="M 286.633 297.719L 278.637 296.922"/>
<path style="stroke:none; fill-rule:evenodd; fill:#ffffff" d="M 282.637 278.528L 282.637 287.325"/>
<path style="stroke:#ffffff; stroke-width:1.59941; fill:none" d="M 282.637 278.528L 282.637 287.325L 282.637 278.528z"/>
<path style="stroke:#000000; stroke-width:1.59941; fill:none" d="M 282.637 278.528L 282.637 287.325L 282.637 278.528z"/>
<path style="stroke:none; fill-rule:evenodd; fill:#ffffff" d="M 285.832 278.528L 280.235 278.528"/>
<path style="stroke:#ffffff; stroke-width:1.59941; fill:none" d="M 285.832 278.528L 280.235 278.528L 285.832 278.528z"/>
<path style="stroke:#000000; stroke-width:1.59941; fill:none" d="M 285.832 278.528L 280.235 278.528L 285.832 278.528z"/>
<path style="stroke:#000000; stroke-width:1.59941; fill:none" d="M 282.637 278.528L 282.637 288.922"/>
<path style="stroke:#000000; stroke-width:1.59941; fill:none" d="M 286.633 278.528L 278.637 278.528"/>
<path style="stroke:none; fill-rule:evenodd; fill:#0000ff" d="M 297.828 325.711L 329.016 325.711L 329.016 269.735L 297.828 269.735L 297.828 325.711z"/>
<path style="stroke:#0000ff; stroke-width:1.59941; fill:none" d="M 297.828 325.711L 329.016 325.711L 329.016 269.735L 297.828 269.735L 297.828 325.711z"/>
<path style="stroke:#000000; stroke-width:1.59941; fill:none" d="M 297.828 325.711L 329.016 325.711L 329.016 269.735L 297.828 269.735L 297.828 325.711z"/>
<path style="stroke:none; fill-rule:evenodd; fill:#ffffff" d="M 313.024 284.125L 313.024 269.731"/>
<path style="stroke:#ffffff; stroke-width:1.59941; fill:none" d="M 313.024 284.125L 313.024 269.731L 313.024 284.125z"/>
<path style="stroke:#000000; stroke-width:1.59941; fill:none" d="M 313.024 284.125L 313.024 269.731L 313.024 284.125z"/>
<path style="stroke:none; fill-rule:evenodd; fill:#ffffff" d="M 317.024 284.125L 309.828 284.125"/>
<path style="stroke:#ffffff; stroke-width:1.59941; fill:none" d="M 317.024 284.125L 309.828 284.125L 317.024 284.125z"/>
<path style="stroke:#000000; stroke-width:1.59941; fill:none" d="M 317.024 284.125L 309.828 284.125L 317.024 284.125z"/>
<path style="stroke:none; fill-rule:evenodd; fill:#ffffff" d="M 313.024 255.336L 313.024 269.731"/>
<path style="stroke:#ffffff; stroke-width:1.59941; fill:none" d="M 313.024 255.336L 313.024 269.731L 313.024 255.336z"/>
<path style="stroke:#000000; stroke-width:1.59941; fill:none" d="M 313.024 255.336L 313.024 269.731L 313.024 255.336z"/>
<path style="stroke:none; fill-rule:evenodd; fill:#ffffff" d="M 317.024 255.336L 309.828 255.336"/>
<path style="stroke:#ffffff; stroke-width:1.59941; fill:none" d="M 317.024 255.336L 309.828 255.336L 317.024 255.336z"/>
<path style="stroke:#000000; stroke-width:1.59941; fill:none" d="M 317.024 255.336L 309.828 255.336L 317.024 255.336z"/>
<path style="stroke:none; fill-rule:evenodd; fill:#ffffff" d="M 93.9028 112.989L 287.43 112.989L 287.43 27.422L 93.9028 27.422L 93.9028 112.989z"/>
<path style="stroke:#ffffff; stroke-width:1.59941; fill:none" d="M 93.9028 112.989L 287.43 112.989L 287.43 27.422L 93.9028 27.422L 93.9028 112.989z"/>
<path style="stroke:#000000; stroke-width:1.59941; fill:none" d="M 287.434 112.989L 287.434 27.422L 93.9058 27.422L 93.9058 112.989L 190.668 112.989L 287.434 112.989z"/>
<path style="stroke:none; fill-rule:evenodd; fill:#00ff00" d="M 109.899 53.813L 129.891 53.813L 129.891 37.821L 109.899 37.821L 109.899 53.813z"/>
<path style="stroke:#00ff00; stroke-width:1.59941; fill:none" d="M 109.899 53.813L 129.891 53.813L 129.891 37.821L 109.899 37.821L 109.899 53.813z"/>
<path style="stroke:#000000; stroke-width:1.59941; fill:none" d="M 129.891 53.813L 129.891 37.821L 109.899 37.821L 109.899 53.813L 120.293 53.813L 129.891 53.813z"/>
<path style="stroke:none; fill-rule:evenodd; fill:#0000ff" d="M 109.098 96.446L 130.688 96.446L 130.688 79.653L 109.098 79.653L 109.098 96.446z"/>
<path style="stroke:#0000ff; stroke-width:1.59941; fill:none" d="M 109.098 96.446L 130.688 96.446L 130.688 79.653L 109.098 79.653L 109.098 96.446z"/>
<path style="stroke:#000000; stroke-width:1.59941; fill:none" d="M 130.692 96.996L 130.692 80.203L 109.102 80.203L 109.102 96.996L 120.297 96.996L 130.692 96.996z"/>
<path style="stroke:#808080; stroke-width:1.59941; fill:none" d="M 77.9098 326.508L 78.7068 10.625"/>
<path style="stroke:none; fill-rule:evenodd; fill:#000000" d="M 322 371.801L 328.239 371.801C 329.789 371.801 331.016 371.34 332.078 370.391C 333.274 369.309 333.793 368.032 333.793 366.215C 333.793 362.5 331.59 360.407 327.676 360.407L 319.496 360.407L 319.496 380.203L 321.996 380.203L 322 371.801zM 322 369.598L 322 362.598L 327.309 362.598C 329.742 362.598 331.196 363.91 331.196 366.098C 331.196 368.282 329.746 369.594 327.309 369.594L 322 369.598z"/>
<path style="stroke:none; fill-rule:evenodd; fill:#000000" d="M 340.098 371.2L 349.535 371.2L 349.535 369L 340.098 369L 340.098 362.602L 350.797 362.602L 350.797 360.403L 337.5 360.403L 337.5 380.2L 340.098 380.2L 340.098 371.2z"/>
<path style="stroke:none; fill-rule:evenodd; fill:#000000" d="M 369.801 366.524C 369.016 362.207 366.512 360.102 362.16 360.102C 359.496 360.102 357.348 360.942 355.879 362.567C 354.086 364.516 353.106 367.332 353.106 370.532C 353.106 373.782 354.11 376.571 355.989 378.492C 357.508 380.063 359.469 380.793 362.051 380.793C 366.891 380.793 369.61 378.192 370.207 372.965L 367.59 372.965C 367.375 374.325 367.102 375.25 366.692 376.039C 365.875 377.672 364.188 378.594 362.063 378.594C 358.113 378.594 355.606 375.446 355.606 370.5C 355.606 365.422 358 362.297 361.844 362.297C 363.449 362.297 364.949 362.782 365.766 363.539C 366.5 364.215 366.91 365.055 367.207 366.516L 369.801 366.524z"/>
<path style="stroke:none; fill-rule:evenodd; fill:#000000" d="M 140.297 361.2L 137.899 361.2L 137.899 377.379L 127.547 361.2L 124.805 361.2L 124.805 380.996L 127.203 380.996L 127.203 364.93L 137.446 380.996L 140.297 380.996L 140.297 361.2z"/>
<path style="stroke:none; fill-rule:evenodd; fill:#000000" d="M 149.672 366.301C 145.703 366.301 143.301 369.157 143.301 373.95C 143.301 378.739 145.676 381.598 149.699 381.598C 153.668 381.598 156.098 378.742 156.098 374.059C 156.098 369.133 153.75 366.301 149.672 366.301zM 149.696 368.399C 152.262 368.399 153.793 370.492 153.793 374.028C 153.793 377.371 152.207 379.492 149.696 379.492C 147.156 379.492 145.598 377.399 145.598 373.946C 145.598 370.52 147.153 368.399 149.696 368.399z"/>
<path style="stroke:none; fill-rule:evenodd; fill:#000000" d="M 170 372.598L 176.239 372.598C 177.789 372.598 179.016 372.137 180.078 371.188C 181.274 370.106 181.793 368.828 181.793 367.012C 181.793 363.297 179.59 361.203 175.676 361.203L 167.496 361.203L 167.496 381L 169.996 381L 170 372.598zM 170 370.399L 170 363.399L 175.309 363.399C 177.742 363.399 179.196 364.711 179.196 366.899C 179.196 369.082 177.746 370.395 175.309 370.395L 170 370.399z"/>
<path style="stroke:none; fill-rule:evenodd; fill:#000000" d="M 188.098 372L 197.535 372L 197.535 369.801L 188.098 369.801L 188.098 363.403L 198.797 363.403L 198.797 361.203L 185.5 361.203L 185.5 381L 188.098 381L 188.098 372z"/>
<path style="stroke:none; fill-rule:evenodd; fill:#000000" d="M 217.699 367.325C 216.914 363.008 214.41 360.903 210.059 360.903C 207.395 360.903 205.246 361.742 203.778 363.367C 201.985 365.317 201.004 368.133 201.004 371.332C 201.004 374.582 202.008 377.371 203.887 379.293C 205.406 380.864 207.367 381.594 209.949 381.594C 214.789 381.594 217.508 378.992 218.106 373.766L 215.489 373.766C 215.274 375.125 215 376.051 214.59 376.84C 213.774 378.473 212.086 379.395 209.961 379.395C 206.012 379.395 203.504 376.246 203.504 371.301C 203.504 366.223 205.899 363.098 209.742 363.098C 211.348 363.098 212.848 363.582 213.664 364.34C 214.399 365.016 214.809 365.856 215.106 367.317L 217.699 367.325z"/>
<path style="stroke:none; fill-rule:evenodd; fill:#000000" d="M 63.6992 336.801L 70.3867 336.801L 70.3867 335.203L 63.6992 335.203L 63.6992 330.805L 71.2969 330.805L 71.2969 329.207L 61.8985 329.207L 61.8985 343.207L 63.6992 343.207L 63.6992 336.801z"/>
<path style="stroke:none; fill-rule:evenodd; fill:#000000" d="M 81.8988 338.7C 81.8988 337.18 81.7848 336.266 81.4958 335.528C 80.8438 333.895 79.3048 332.907 77.4218 332.907C 74.6168 332.907 72.8086 335.039 72.8086 338.313C 72.8086 341.586 74.5468 343.602 77.3598 343.602C 79.6528 343.602 81.2388 342.317 81.6408 340.153L 80.0238 340.153C 79.5818 341.434 78.6758 342.102 77.3828 342.102C 76.3628 342.102 75.4918 341.653 74.9528 340.821C 74.5708 340.258 74.4338 339.688 74.4138 338.707L 81.8988 338.7zM 74.4768 337.403C 74.6098 335.543 75.7418 334.332 77.3558 334.332C 78.9258 334.332 80.1368 335.637 80.1368 337.286C 80.1368 337.321 80.1368 337.36 80.1208 337.399L 74.4768 337.403z"/>
<path style="stroke:none; fill-rule:evenodd; fill:#000000" d="M 92.4998 338.7C 92.4998 337.18 92.3868 336.266 92.0978 335.528C 91.4458 333.895 89.9058 332.907 88.0238 332.907C 85.2188 332.907 83.4098 335.039 83.4098 338.313C 83.4098 341.586 85.1488 343.602 87.9608 343.602C 90.2538 343.602 91.8398 342.317 92.2418 340.153L 90.6248 340.153C 90.1838 341.434 89.2778 342.102 87.9848 342.102C 86.9648 342.102 86.0938 341.653 85.5548 340.821C 85.1718 340.258 85.0348 339.688 85.0158 338.707L 92.4998 338.7zM 85.0738 337.403C 85.2068 335.543 86.3398 334.332 87.9528 334.332C 89.5238 334.332 90.7348 335.637 90.7348 337.286C 90.7348 337.321 90.7348 337.36 90.7188 337.399L 85.0738 337.403z"/>
<path style="stroke:none; fill-rule:evenodd; fill:#000000" d="M 102.801 329.2L 101.203 329.2L 101.203 334.407C 100.531 333.422 99.4608 332.899 98.1168 332.899C 95.5118 332.899 93.8048 334.973 93.8048 338.153C 93.8048 341.52 95.4768 343.594 98.1878 343.594C 99.5708 343.594 100.531 343.09 101.399 341.871L 101.399 343.192L 102.797 343.192L 102.801 329.2zM 98.3478 334.399C 100.09 334.399 101.199 335.914 101.199 338.286C 101.199 340.578 100.074 342.094 98.3668 342.094C 96.5858 342.094 95.4028 340.559 95.4028 338.246C 95.4028 335.934 96.5818 334.399 98.3478 334.399z"/>
<path style="stroke:none; fill-rule:evenodd; fill:#000000" d="M 108.899 333.098L 107.301 333.098L 107.301 331.52C 107.301 330.848 107.668 330.5 108.367 330.5C 108.496 330.5 108.551 330.5 108.899 330.5L 108.899 329.196C 108.543 329.121 108.336 329.102 108.016 329.102C 106.571 329.102 105.703 329.946 105.703 331.387L 105.703 333.098L 104.305 333.098L 104.305 334.395L 105.703 334.395L 105.703 343.192L 107.301 343.192L 107.301 334.395L 108.899 334.395L 108.899 333.098z"/>
<path style="stroke:none; fill-rule:evenodd; fill:#000000" d="M 114.531 332.903C 111.711 332.903 110.004 334.903 110.004 338.25C 110.004 341.598 111.692 343.598 114.551 343.598C 117.371 343.598 119.098 341.602 119.098 338.328C 119.098 334.887 117.43 332.903 114.531 332.903zM 114.551 334.399C 116.399 334.399 117.5 335.848 117.5 338.301C 117.5 340.621 116.36 342.094 114.551 342.094C 112.723 342.094 111.602 340.645 111.602 338.246C 111.602 335.871 112.719 334.399 114.551 334.399z"/>
<path style="stroke:none; fill-rule:evenodd; fill:#000000" d="M 121.301 333.188L 121.301 343.196L 122.899 343.196L 122.899 338.012C 122.899 336.582 123.266 335.649 124.043 335.098C 124.547 334.739 125.031 334.621 126.156 334.606L 126.156 332.965C 125.887 332.93 125.754 332.91 125.543 332.91C 124.508 332.91 123.723 333.524 122.801 335.012L 122.801 333.2L 121.301 333.188z"/>
<path style="stroke:none; fill-rule:evenodd; fill:#000000" d="M 137.031 343.2L 139.985 333.102L 138.184 333.102L 136.192 340.973L 134.215 333.102L 132.258 333.102L 130.34 340.973L 128.289 333.102L 126.524 333.102L 129.438 343.2L 131.239 343.2L 133.176 335.313L 135.207 343.2L 137.031 343.2z"/>
<path style="stroke:none; fill-rule:evenodd; fill:#000000" d="M 150.469 342.258C 150.305 342.297 150.231 342.297 150.137 342.297C 149.602 342.297 149.305 342.012 149.305 341.516L 149.305 335.637C 149.305 333.864 147.996 332.907 145.504 332.907C 144.039 332.907 142.824 333.321 142.149 334.059C 141.688 334.567 141.496 335.137 141.457 336.118L 143.074 336.118C 143.207 334.938 143.942 334.403 145.446 334.403C 146.891 334.403 147.703 334.934 147.703 335.883L 147.703 336.301C 147.703 336.961 147.301 337.246 146.024 337.399C 143.746 337.68 143.399 337.758 142.781 338.004C 141.606 338.477 141.008 339.368 141.008 340.657C 141.008 342.457 142.274 343.594 144.309 343.594C 145.574 343.594 146.59 343.168 147.727 342.16C 147.84 343.145 148.34 343.594 149.375 343.594C 149.699 343.594 149.949 343.559 150.469 343.426L 150.469 342.258zM 147.699 340.016C 147.699 340.547 147.543 340.868 147.055 341.305C 146.391 341.891 145.586 342.196 144.625 342.196C 143.352 342.196 142.606 341.61 142.606 340.602C 142.606 339.559 143.328 339.028 145.074 338.782C 146.797 338.555 147.153 338.481 147.703 338.231L 147.699 340.016z"/>
<path style="stroke:none; fill-rule:evenodd; fill:#000000" d="M 152.199 333.188L 152.199 343.196L 153.797 343.196L 153.797 338.012C 153.797 336.582 154.164 335.649 154.942 335.098C 155.446 334.739 155.93 334.621 157.055 334.606L 157.055 332.965C 156.785 332.93 156.653 332.91 156.442 332.91C 155.406 332.91 154.621 333.524 153.699 335.012L 153.699 333.2L 152.199 333.188z"/>
<path style="stroke:none; fill-rule:evenodd; fill:#000000" d="M 166.801 329.2L 165.203 329.2L 165.203 334.407C 164.531 333.422 163.461 332.899 162.117 332.899C 159.512 332.899 157.805 334.973 157.805 338.153C 157.805 341.52 159.477 343.594 162.188 343.594C 163.571 343.594 164.531 343.09 165.399 341.871L 165.399 343.192L 166.797 343.192L 166.801 329.2zM 162.348 334.399C 164.09 334.399 165.199 335.914 165.199 338.286C 165.199 340.578 164.074 342.094 162.367 342.094C 160.586 342.094 159.403 340.559 159.403 338.246C 159.403 335.934 160.582 334.399 162.348 334.399z"/>
<path style="stroke:none; fill-rule:evenodd; fill:#000000" d="M 203.996 333.317C 203.977 330.59 202.098 329.004 198.871 329.004C 195.801 329.004 193.903 330.567 193.903 333.082C 193.903 334.778 194.805 335.844 196.649 336.321L 200.125 337.231C 201.891 337.684 202.699 338.391 202.699 339.477C 202.699 340.219 202.301 340.981 201.707 341.399C 201.156 341.778 200.278 341.989 199.149 341.989C 197.641 341.989 196.61 341.633 195.942 340.844C 195.426 340.243 195.199 339.586 195.207 338.739L 193.61 338.739C 193.625 340.012 193.875 340.848 194.426 341.61C 195.375 342.903 196.973 343.586 199.082 343.586C 200.735 343.586 202.086 343.207 202.981 342.52C 203.91 341.778 204.5 340.536 204.5 339.332C 204.5 337.618 203.426 336.356 201.524 335.84L 198.008 334.907C 196.321 334.45 195.703 333.914 195.703 332.848C 195.703 331.438 196.965 330.5 198.867 330.5C 201.117 330.5 202.379 331.508 202.399 333.313L 203.996 333.317z"/>
<path style="stroke:none; fill-rule:evenodd; fill:#000000" d="M 209 337.2L 213.598 337.2C 215.188 337.2 215.899 337.961 215.899 339.68L 215.899 340.918C 215.899 341.778 216.047 342.617 216.293 343.192L 218.426 343.192L 218.426 342.754C 217.766 342.293 217.633 341.793 217.598 339.934C 217.578 337.633 217.211 336.942 215.688 336.289C 217.262 335.524 217.899 334.543 217.899 332.95C 217.899 330.532 216.383 329.207 213.641 329.207L 207.203 329.207L 207.203 343.207L 209 343.207L 209 337.2zM 208.969 335.598L 208.969 330.782L 213.285 330.782C 214.281 330.782 214.856 330.934 215.297 331.317C 215.774 331.719 216.024 332.352 216.024 333.196C 216.024 334.844 215.18 335.594 213.281 335.594L 208.969 335.598z"/>
<path style="stroke:none; fill-rule:evenodd; fill:#000000" d="M 231.598 329.2L 230 329.2L 230 340.645L 222.649 329.2L 220.703 329.2L 220.703 343.2L 222.301 343.2L 222.301 331.86L 229.571 343.2L 231.598 343.2L 231.598 329.2z"/>
<path style="stroke:none; fill-rule:evenodd; fill:#000000" d="M 279.598 329.2L 278 329.2L 278 340.645L 270.649 329.2L 268.703 329.2L 268.703 343.2L 270.301 343.2L 270.301 331.86L 277.571 343.2L 279.598 343.2L 279.598 329.2z"/>
<path style="stroke:none; fill-rule:evenodd; fill:#000000" d="M 286.231 332.903C 283.41 332.903 281.703 334.903 281.703 338.25C 281.703 341.598 283.391 343.598 286.25 343.598C 289.071 343.598 290.797 341.602 290.797 338.328C 290.797 334.887 289.129 332.903 286.231 332.903zM 286.25 334.399C 288.098 334.399 289.199 335.848 289.199 338.301C 289.199 340.621 288.059 342.094 286.25 342.094C 284.422 342.094 283.301 340.645 283.301 338.246C 283.301 335.871 284.418 334.399 286.25 334.399z"/>
<path style="stroke:none; fill-rule:evenodd; fill:#000000" d="M 298.5 343.2L 304.848 343.2C 306.176 343.2 307.16 342.836 307.914 342.032C 308.606 341.305 308.992 340.305 308.992 339.211C 308.992 337.524 308.215 336.508 306.399 335.813C 307.699 335.219 308.391 334.184 308.391 332.762C 308.391 331.746 308.004 330.844 307.27 330.192C 306.535 329.52 305.571 329.211 304.215 329.211L 298.492 329.211L 298.5 343.2zM 300.301 335.2L 300.301 330.801L 303.778 330.801C 304.781 330.801 305.34 330.934 305.824 331.293C 306.324 331.672 306.594 332.239 306.594 332.996C 306.594 333.735 306.324 334.321 305.824 334.7C 305.344 335.059 304.781 335.192 303.778 335.192L 300.301 335.2zM 300.301 341.598L 300.301 336.801L 304.676 336.801C 305.539 336.801 306.117 337.012 306.543 337.469C 306.965 337.907 307.196 338.52 307.196 339.207C 307.196 339.875 306.965 340.485 306.543 340.926C 306.121 341.383 305.543 341.594 304.676 341.594L 300.301 341.598z"/>
<path style="stroke:none; fill-rule:evenodd; fill:#000000" d="M 323.399 335.801L 317.602 335.801L 317.602 337.399L 321.801 337.399L 321.801 337.774C 321.801 340.223 319.961 341.993 317.41 341.993C 315.992 341.993 314.707 341.481 313.883 340.59C 312.965 339.606 312.406 337.953 312.406 336.243C 312.406 332.844 314.367 330.602 317.332 330.602C 319.465 330.602 321.004 331.676 321.391 333.45L 323.219 333.45C 322.719 330.625 320.563 329 317.344 329C 315.633 329 314.246 329.438 313.149 330.336C 311.531 331.672 310.61 333.832 310.61 336.336C 310.61 340.614 313.239 343.594 317.024 343.594C 318.922 343.594 320.442 342.891 321.805 341.379L 322.25 343.231L 323.399 343.231L 323.399 335.801z"/>
<path style="stroke:none; fill-rule:evenodd; fill:#000000" d="M 369.699 336.801L 376.387 336.801L 376.387 335.203L 369.699 335.203L 369.699 330.805L 377.297 330.805L 377.297 329.207L 367.899 329.207L 367.899 343.207L 369.699 343.207L 369.699 336.801z"/>
<path style="stroke:none; fill-rule:evenodd; fill:#000000" d="M 387.301 343.157L 387.301 333.098L 385.703 333.098L 385.703 338.797C 385.703 340.848 384.61 342.192 382.914 342.192C 381.629 342.192 380.809 341.426 380.809 340.215L 380.809 333.094L 379.211 333.094L 379.211 340.848C 379.211 342.516 380.465 343.59 382.434 343.59C 383.918 343.59 384.863 343.075 385.809 341.75L 385.809 343.149L 387.301 343.157z"/>
<path style="stroke:none; fill-rule:evenodd; fill:#000000" d="M 389.899 343.2L 391.496 343.2L 391.496 329.2L 389.899 329.2L 389.899 343.2z"/>
<path style="stroke:none; fill-rule:evenodd; fill:#000000" d="M 394.199 343.2L 395.797 343.2L 395.797 329.2L 394.199 329.2L 394.199 343.2z"/>
<path style="stroke:none; fill-rule:evenodd; fill:#000000" d="M 9.5977 271.301L 9.5977 279.598L 11.7969 279.598L 11.7969 273.5L 12.3438 273.5C 15.9102 273.5 18.4922 276.125 18.4922 279.762C 18.4922 281.782 17.7617 283.614 16.4844 284.789C 15.0742 286.098 12.711 286.891 10.2656 286.891C 5.4063 286.891 2.1992 284.114 2.1992 279.922C 2.1992 276.903 3.7422 274.723 6.2852 274.18L 6.2852 271.59C 2.293 272.297 0 275.34 0 279.879C 0 282.297 0.625 284.254 1.8985 285.805C 3.793 288.086 6.8516 289.391 10.4024 289.391C 16.4688 289.391 20.6953 285.657 20.6953 280.286C 20.6953 277.586 19.6914 275.434 17.543 273.496L 20.1797 272.883L 20.1797 271.301L 9.5977 271.301z"/>
<path style="stroke:none; fill-rule:evenodd; fill:#000000" d="M 13.6992 255.5C 11.5235 255.5 10.2188 255.664 9.1563 256.071C 6.8164 256.996 5.4024 259.176 5.4024 261.848C 5.4024 265.828 8.4492 268.391 13.1328 268.391C 17.8125 268.391 20.6992 265.922 20.6992 261.926C 20.6992 258.668 18.8633 256.414 15.7774 255.844L 15.7774 258.141C 17.6289 258.77 18.5977 260.051 18.5977 261.883C 18.5977 263.328 17.9453 264.559 16.75 265.325C 15.9375 265.868 15.1172 266.059 13.7031 266.086L 13.6992 255.5zM 11.8867 265.993C 9.25 265.805 7.5391 264.2 7.5391 261.914C 7.5391 259.688 9.3867 257.973 11.7227 257.973C 11.7774 257.973 11.8281 257.973 11.8828 257.996L 11.8867 265.993z"/>
<path style="stroke:none; fill-rule:evenodd; fill:#000000" d="M 5.8086 252.5L 20.0938 252.5L 20.0938 250.203L 12.2188 250.203C 9.3047 250.203 7.3946 248.684 7.3946 246.344C 7.3946 244.551 8.4844 243.407 10.1992 243.407L 20.0899 243.407L 20.0899 241.11L 9.293 241.11C 6.9219 241.11 5.3946 242.887 5.3946 245.649C 5.3946 247.782 6.211 249.149 8.2031 250.407L 5.8047 250.407L 5.8086 252.5z"/>
<path style="stroke:none; fill-rule:evenodd; fill:#000000" d="M 13.6992 225.2C 11.5235 225.2 10.2188 225.364 9.1563 225.77C 6.8164 226.696 5.4024 228.875 5.4024 231.547C 5.4024 235.528 8.4492 238.09 13.1328 238.09C 17.8125 238.09 20.6992 235.621 20.6992 231.625C 20.6992 228.368 18.8633 226.114 15.7774 225.543L 15.7774 227.84C 17.6289 228.469 18.5977 229.75 18.5977 231.582C 18.5977 233.028 17.9453 234.258 16.75 235.024C 15.9375 235.567 15.1172 235.758 13.7031 235.786L 13.6992 225.2zM 11.8867 235.692C 9.25 235.504 7.5391 233.899 7.5391 231.614C 7.5391 229.387 9.3867 227.672 11.7227 227.672C 11.7774 227.672 11.8281 227.672 11.8828 227.696L 11.8867 235.692z"/>
<path style="stroke:none; fill-rule:evenodd; fill:#000000" d="M 5.8086 222.2L 20.0938 222.2L 20.0938 219.903L 12.6797 219.903C 10.6367 219.903 9.3008 219.391 8.5078 218.313C 7.9922 217.614 7.8281 216.938 7.8008 215.375L 5.4844 215.375C 5.4297 215.754 5.4063 215.942 5.4063 216.239C 5.4063 217.696 6.2774 218.801 8.4063 220.098L 5.8164 220.098L 5.8086 222.2z"/>
<path style="stroke:none; fill-rule:evenodd; fill:#000000" d="M 18.7656 200.555C 18.7969 200.789 18.7969 200.895 18.7969 201.024C 18.7969 201.778 18.3906 202.196 17.6836 202.196L 9.2969 202.196C 6.7656 202.196 5.4024 204.055 5.4024 207.582C 5.4024 209.66 6.0039 211.383 7.0742 212.34C 7.8125 212.993 8.6367 213.27 10.0625 213.325L 10.0625 211.036C 8.2969 210.848 7.5 209.809 7.5 207.684C 7.5 205.641 8.2617 204.496 9.625 204.496L 10.2227 204.496C 11.1719 204.496 11.582 205.067 11.7969 206.852C 12.2031 210.047 12.3125 210.536 12.6641 211.399C 13.3438 213.047 14.6211 213.887 16.4727 213.887C 19.0547 213.887 20.6875 212.102 20.6875 209.235C 20.6875 207.45 20.0703 206.016 18.6211 204.418C 20.043 204.258 20.6875 203.555 20.6875 202.094C 20.6875 201.637 20.6367 201.286 20.4492 200.551L 18.7656 200.555zM 15.5938 204.5C 16.3477 204.5 16.8047 204.719 17.4258 205.399C 18.2617 206.325 18.6914 207.446 18.6914 208.782C 18.6914 210.555 17.8555 211.59 16.4258 211.59C 14.9414 211.59 14.1875 210.582 13.836 208.153C 13.5156 205.75 13.4063 205.262 13.0547 204.496L 15.5938 204.5z"/>
<path style="stroke:none; fill-rule:evenodd; fill:#000000" d="M 0.3008 198.2L 20.0977 198.2L 20.0977 195.903L 0.3008 195.903L 0.3008 198.2z"/>
<path style="stroke:none; fill-rule:evenodd; fill:#000000" d="M 5.8985 189.801L 5.8985 192.098L 20.0977 192.098L 20.0977 189.801L 5.8985 189.801zM 0.3008 189.801L 0.3008 192.098L 3.1328 192.098L 3.1328 189.801L 0.3008 189.801z"/>
<path style="stroke:none; fill-rule:evenodd; fill:#000000" d="M 5.8985 175.899L 5.8985 186.496L 7.8985 186.496L 7.8985 178.547L 18.0664 187.098L 20.0938 187.098L 20.0938 175.5L 18.0938 175.5L 18.0938 184.309L 7.8946 175.899L 5.8985 175.899z"/>
<path style="stroke:none; fill-rule:evenodd; fill:#000000" d="M 18.7656 159.754C 18.7969 159.989 18.7969 160.094 18.7969 160.223C 18.7969 160.977 18.3906 161.395 17.6836 161.395L 9.2969 161.395C 6.7656 161.395 5.4024 163.254 5.4024 166.782C 5.4024 168.86 6.0039 170.582 7.0742 171.539C 7.8125 172.192 8.6367 172.469 10.0625 172.524L 10.0625 170.235C 8.2969 170.047 7.5 169.008 7.5 166.883C 7.5 164.84 8.2617 163.696 9.625 163.696L 10.2227 163.696C 11.1719 163.696 11.582 164.266 11.7969 166.051C 12.2031 169.246 12.3125 169.735 12.6641 170.598C 13.3438 172.246 14.6211 173.086 16.4727 173.086C 19.0547 173.086 20.6875 171.301 20.6875 168.434C 20.6875 166.649 20.0703 165.215 18.6211 163.618C 20.043 163.457 20.6875 162.754 20.6875 161.293C 20.6875 160.836 20.6367 160.485 20.4492 159.75L 18.7656 159.754zM 15.5938 163.7C 16.3477 163.7 16.8047 163.918 17.4258 164.598C 18.2617 165.524 18.6914 166.645 18.6914 167.981C 18.6914 169.754 17.8555 170.789 16.4258 170.789C 14.9414 170.789 14.1875 169.782 13.836 167.352C 13.5156 164.95 13.4063 164.461 13.0547 163.696L 15.5938 163.7z"/>
<path style="stroke:none; fill-rule:evenodd; fill:#000000" d="M 5.8985 152.301L 5.8985 154.598L 1.9375 154.598L 1.9375 156.895L 5.8985 156.895L 5.8985 158.793L 7.6953 158.793L 7.6953 156.895L 18.4414 156.895C 19.8789 156.895 20.6914 155.918 20.6914 154.149C 20.6914 153.606 20.6406 153.063 20.5039 152.297L 18.625 152.297C 18.6758 152.59 18.6914 152.938 18.6914 153.364C 18.6914 154.325 18.4219 154.59 17.4219 154.59L 7.6953 154.59L 7.6953 152.293L 5.8985 152.301z"/>
<path style="stroke:none; fill-rule:evenodd; fill:#000000" d="M 5.8985 147.5L 5.8985 149.797L 20.0977 149.797L 20.0977 147.5L 5.8985 147.5zM 0.3008 147.5L 0.3008 149.797L 3.1328 149.797L 3.1328 147.5L 0.3008 147.5z"/>
<path style="stroke:none; fill-rule:evenodd; fill:#000000" d="M 5.3985 138.227C 5.3985 142.196 8.2539 144.598 13.0469 144.598C 17.836 144.598 20.6953 142.223 20.6953 138.2C 20.6953 134.231 17.8399 131.801 13.1563 131.801C 8.2305 131.801 5.3985 134.149 5.3985 138.227zM 7.5 138.203C 7.5 135.637 9.5938 134.106 13.1289 134.106C 16.4727 134.106 18.5938 135.692 18.5938 138.203C 18.5938 140.743 16.5 142.301 13.0469 142.301C 9.6211 142.301 7.5 140.746 7.5 138.203z"/>
<path style="stroke:none; fill-rule:evenodd; fill:#000000" d="M 5.8086 128.598L 20.0938 128.598L 20.0938 126.301L 12.2188 126.301C 9.3047 126.301 7.3946 124.782 7.3946 122.442C 7.3946 120.649 8.4844 119.504 10.1992 119.504L 20.0899 119.504L 20.0899 117.207L 9.293 117.207C 6.9219 117.207 5.3946 118.985 5.3946 121.746C 5.3946 123.879 6.211 125.246 8.2031 126.504L 5.8047 126.504L 5.8086 128.598z"/>
<path style="stroke:none; fill-rule:evenodd; fill:#000000" d="M 11.5977 102.801L 11.5977 96.262C 11.5977 94 12.6797 92.993 15.1172 92.993L 16.875 92.993C 18.0899 92.993 19.2813 92.778 20.0938 92.422L 20.0938 89.348L 19.4688 89.348C 18.8203 90.34 18.1133 90.539 15.4805 90.594C 12.2227 90.618 11.2461 91.125 10.3242 93.231C 9.2383 91.004 7.8555 90.106 5.6016 90.106C 2.1797 90.106 0.304701 92.258 0.304701 96.153L 0.304701 105.301L 20.1016 105.301L 20.1016 102.801L 11.5977 102.801zM 9.332 102.743L 2.5078 102.743L 2.5078 96.625C 2.5078 95.215 2.7227 94.399 3.2656 93.774C 3.836 93.094 4.7305 92.743 5.9258 92.743C 8.2617 92.743 9.3242 93.938 9.3242 96.629L 9.332 102.743z"/>
<path style="stroke:none; fill-rule:evenodd; fill:#000000" d="M 18.7656 73.653C 18.7969 73.887 18.7969 73.993 18.7969 74.121C 18.7969 74.875 18.3906 75.293 17.6836 75.293L 9.2969 75.293C 6.7656 75.293 5.4024 77.153 5.4024 80.68C 5.4024 82.758 6.0039 84.481 7.0742 85.438C 7.8125 86.09 8.6367 86.368 10.0625 86.422L 10.0625 84.133C 8.2969 83.946 7.5 82.907 7.5 80.782C 7.5 78.739 8.2617 77.594 9.625 77.594L 10.2227 77.594C 11.1719 77.594 11.582 78.164 11.7969 79.95C 12.2031 83.145 12.3125 83.633 12.6641 84.496C 13.3438 86.145 14.6211 86.985 16.4727 86.985C 19.0547 86.985 20.6875 85.2 20.6875 82.332C 20.6875 80.547 20.0703 79.114 18.6211 77.516C 20.043 77.356 20.6875 76.653 20.6875 75.192C 20.6875 74.735 20.6367 74.383 20.4492 73.649L 18.7656 73.653zM 15.5938 77.598C 16.3477 77.598 16.8047 77.817 17.4258 78.496C 18.2617 79.422 18.6914 80.543 18.6914 81.879C 18.6914 83.653 17.8555 84.688 16.4258 84.688C 14.9414 84.688 14.1875 83.68 13.836 81.25C 13.5156 78.848 13.4063 78.36 13.0547 77.594L 15.5938 77.598z"/>
<path style="stroke:none; fill-rule:evenodd; fill:#000000" d="M 5.8985 66.098L 5.8985 68.395L 1.9375 68.395L 1.9375 70.692L 5.8985 70.692L 5.8985 72.59L 7.6953 72.59L 7.6953 70.692L 18.4414 70.692C 19.8789 70.692 20.6914 69.715 20.6914 67.946C 20.6914 67.403 20.6406 66.86 20.5039 66.094L 18.625 66.094C 18.6758 66.387 18.6914 66.735 18.6914 67.16C 18.6914 68.121 18.4219 68.387 17.4219 68.387L 7.6953 68.387L 7.6953 66.09L 5.8985 66.098z"/>
<path style="stroke:none; fill-rule:evenodd; fill:#000000" d="M 13.6992 51.5C 11.5235 51.5 10.2188 51.664 9.1563 52.071C 6.8164 52.996 5.4024 55.176 5.4024 57.848C 5.4024 61.828 8.4492 64.391 13.1328 64.391C 17.8125 64.391 20.6992 61.922 20.6992 57.926C 20.6992 54.668 18.8633 52.414 15.7774 51.844L 15.7774 54.141C 17.6289 54.77 18.5977 56.051 18.5977 57.883C 18.5977 59.328 17.9453 60.559 16.75 61.325C 15.9375 61.868 15.1172 62.059 13.7031 62.086L 13.6992 51.5zM 11.8867 61.993C 9.25 61.805 7.5391 60.2 7.5391 57.914C 7.5391 55.688 9.3867 53.973 11.7227 53.973C 11.7774 53.973 11.8281 53.973 11.8828 53.996L 11.8867 61.993z"/>
<path style="stroke:none; fill-rule:evenodd; fill:#000000" d="M 154.688 88.301L 156.723 94.297L 159.547 94.297L 152.586 74.5L 149.324 74.5L 142.258 94.297L 144.949 94.297L 147.043 88.301L 154.688 88.301zM 153.981 86.2L 147.676 86.2L 150.938 77.2L 153.981 86.2z"/>
<path style="stroke:none; fill-rule:evenodd; fill:#000000" d="M 161.699 94.301L 163.996 94.301L 163.996 74.504L 161.699 74.504L 161.699 94.301z"/>
<path style="stroke:none; fill-rule:evenodd; fill:#000000" d="M 167.699 94.301L 169.996 94.301L 169.996 74.504L 167.699 74.504L 167.699 94.301z"/>
<path style="stroke:none; fill-rule:evenodd; fill:#000000" d="M 186.399 80.098L 184.102 80.098L 184.102 76.137L 181.805 76.137L 181.805 80.098L 179.906 80.098L 179.906 81.895L 181.805 81.895L 181.805 92.641C 181.805 94.078 182.781 94.891 184.551 94.891C 185.094 94.891 185.637 94.84 186.403 94.703L 186.403 92.825C 186.11 92.875 185.762 92.891 185.336 92.891C 184.375 92.891 184.11 92.621 184.11 91.621L 184.11 81.895L 186.406 81.895L 186.399 80.098z"/>
<path style="stroke:none; fill-rule:evenodd; fill:#000000" d="M 201.645 92.969C 201.41 93 201.305 93 201.176 93C 200.422 93 200.004 92.594 200.004 91.887L 200.004 83.5C 200.004 80.969 198.145 79.606 194.617 79.606C 192.539 79.606 190.817 80.207 189.86 81.278C 189.207 82.016 188.93 82.84 188.875 84.266L 191.164 84.266C 191.352 82.5 192.391 81.703 194.516 81.703C 196.559 81.703 197.703 82.465 197.703 83.828L 197.703 84.426C 197.703 85.375 197.133 85.786 195.348 86C 192.153 86.407 191.664 86.516 190.801 86.868C 189.153 87.547 188.313 88.825 188.313 90.676C 188.313 93.258 190.098 94.891 192.965 94.891C 194.75 94.891 196.184 94.274 197.781 92.825C 197.942 94.246 198.645 94.891 200.106 94.891C 200.563 94.891 200.914 94.84 201.649 94.653L 201.645 92.969zM 197.699 89.797C 197.699 90.551 197.481 91.008 196.801 91.633C 195.875 92.469 194.754 92.899 193.418 92.899C 191.645 92.899 190.61 92.063 190.61 90.633C 190.61 89.149 191.617 88.395 194.047 88.043C 196.449 87.723 196.938 87.614 197.703 87.262L 197.699 89.797z"/>
<path style="stroke:none; fill-rule:evenodd; fill:#000000" d="M 214.11 84.024C 214.082 81.196 212.239 79.602 208.957 79.602C 205.649 79.602 203.508 81.317 203.508 83.957C 203.508 86.188 204.645 87.25 208 88.063L 210.11 88.578C 211.676 88.957 212.301 89.528 212.301 90.563C 212.301 91.895 210.973 92.793 208.992 92.793C 207.774 92.793 206.742 92.446 206.172 91.856C 205.821 91.453 205.656 91.051 205.524 90.055L 203.137 90.055C 203.242 93.325 205.078 94.895 208.778 94.895C 212.34 94.895 214.606 93.129 214.606 90.379C 214.606 88.258 213.414 87.086 210.598 86.407L 208.434 85.891C 206.594 85.457 205.809 84.86 205.809 83.852C 205.809 82.547 206.981 81.703 208.84 81.703C 210.668 81.703 211.653 82.504 211.707 84.024L 214.11 84.024z"/>
<path style="stroke:none; fill-rule:evenodd; fill:#000000" d="M 219.699 74.5L 217.403 74.5L 217.403 94.297L 219.699 94.297L 219.699 88.75L 221.883 86.578L 226.66 94.297L 229.442 94.297L 223.664 85.004L 228.578 80.102L 225.692 80.102L 219.699 86.09L 219.699 74.5z"/>
<path style="stroke:none; fill-rule:evenodd; fill:#000000" d="M 241.309 84.024C 241.281 81.196 239.438 79.602 236.156 79.602C 232.848 79.602 230.707 81.317 230.707 83.957C 230.707 86.188 231.844 87.25 235.199 88.063L 237.309 88.578C 238.875 88.957 239.5 89.528 239.5 90.563C 239.5 91.895 238.172 92.793 236.192 92.793C 234.973 92.793 233.942 92.446 233.371 91.856C 233.02 91.453 232.856 91.051 232.723 90.055L 230.336 90.055C 230.442 93.325 232.278 94.895 235.977 94.895C 239.539 94.895 241.805 93.129 241.805 90.379C 241.805 88.258 240.613 87.086 237.797 86.407L 235.633 85.891C 233.793 85.457 233.008 84.86 233.008 83.852C 233.008 82.547 234.18 81.703 236.039 81.703C 237.867 81.703 238.852 82.504 238.906 84.024L 241.309 84.024z"/>
<path style="stroke:none; fill-rule:evenodd; fill:#000000" d="M 151.399 34.5L 157.922 34.5L 157.922 32.301L 142.371 32.301L 142.371 34.5L 148.899 34.5L 148.899 52.098L 151.399 52.098L 151.399 34.5z"/>
<path style="stroke:none; fill-rule:evenodd; fill:#000000" d="M 172.946 50.77C 172.711 50.801 172.606 50.801 172.477 50.801C 171.723 50.801 171.305 50.395 171.305 49.688L 171.305 41.301C 171.305 38.77 169.446 37.407 165.918 37.407C 163.84 37.407 162.117 38.008 161.16 39.078C 160.508 39.817 160.231 40.641 160.176 42.067L 162.465 42.067C 162.653 40.301 163.692 39.504 165.817 39.504C 167.86 39.504 169.004 40.266 169.004 41.629L 169.004 42.227C 169.004 43.176 168.434 43.586 166.649 43.801C 163.453 44.207 162.965 44.317 162.102 44.668C 160.453 45.348 159.613 46.625 159.613 48.477C 159.613 51.059 161.399 52.692 164.266 52.692C 166.051 52.692 167.485 52.075 169.082 50.625C 169.242 52.047 169.946 52.692 171.406 52.692C 171.863 52.692 172.215 52.641 172.949 52.453L 172.946 50.77zM 169 47.594C 169 48.348 168.781 48.805 168.102 49.43C 167.176 50.266 166.055 50.696 164.719 50.696C 162.946 50.696 161.91 49.86 161.91 48.43C 161.91 46.946 162.918 46.192 165.348 45.84C 167.75 45.52 168.239 45.41 169.004 45.059L 169 47.594z"/>
<path style="stroke:none; fill-rule:evenodd; fill:#000000" d="M 185.406 41.821C 185.379 38.993 183.535 37.399 180.254 37.399C 176.946 37.399 174.805 39.114 174.805 41.754C 174.805 43.985 175.942 45.047 179.297 45.86L 181.406 46.375C 182.973 46.754 183.598 47.325 183.598 48.36C 183.598 49.692 182.27 50.59 180.289 50.59C 179.071 50.59 178.039 50.243 177.469 49.653C 177.117 49.25 176.953 48.848 176.821 47.852L 174.434 47.852C 174.539 51.121 176.375 52.692 180.074 52.692C 183.637 52.692 185.903 50.926 185.903 48.176C 185.903 46.055 184.711 44.883 181.895 44.203L 179.731 43.688C 177.891 43.254 177.106 42.657 177.106 41.649C 177.106 40.344 178.278 39.5 180.137 39.5C 181.965 39.5 182.949 40.301 183.004 41.821L 185.406 41.821z"/>
<path style="stroke:none; fill-rule:evenodd; fill:#000000" d="M 190.996 32.301L 188.699 32.301L 188.699 52.098L 190.996 52.098L 190.996 46.551L 193.18 44.379L 197.957 52.098L 200.739 52.098L 194.961 42.805L 199.875 37.903L 196.989 37.903L 190.996 43.891L 190.996 32.301z"/>
<path style="stroke:none; fill-rule:evenodd; fill:#000000" d="M 209.699 58.028L 211.996 58.028L 211.996 50.602C 213.184 52.055 214.508 52.7 216.344 52.7C 219.989 52.7 222.395 49.735 222.395 45.188C 222.395 40.399 220.071 37.403 216.313 37.403C 214.395 37.403 212.852 38.278 211.801 39.965L 211.801 37.817L 209.703 37.817L 209.699 58.028zM 215.969 39.5C 218.469 39.5 220.098 41.715 220.098 45.129C 220.098 48.379 218.442 50.594 215.969 50.594C 213.578 50.594 212.004 48.41 212.004 45.047C 212.004 41.688 213.578 39.5 215.969 39.5z"/>
<path style="stroke:none; fill-rule:evenodd; fill:#000000" d="M 237.946 50.77C 237.711 50.801 237.606 50.801 237.477 50.801C 236.723 50.801 236.305 50.395 236.305 49.688L 236.305 41.301C 236.305 38.77 234.446 37.407 230.918 37.407C 228.84 37.407 227.117 38.008 226.16 39.078C 225.508 39.817 225.231 40.641 225.176 42.067L 227.465 42.067C 227.653 40.301 228.692 39.504 230.817 39.504C 232.86 39.504 234.004 40.266 234.004 41.629L 234.004 42.227C 234.004 43.176 233.434 43.586 231.649 43.801C 228.453 44.207 227.965 44.317 227.102 44.668C 225.453 45.348 224.613 46.625 224.613 48.477C 224.613 51.059 226.399 52.692 229.266 52.692C 231.051 52.692 232.485 52.075 234.082 50.625C 234.242 52.047 234.946 52.692 236.406 52.692C 236.863 52.692 237.215 52.641 237.949 52.453L 237.946 50.77zM 234 47.594C 234 48.348 233.781 48.805 233.102 49.43C 232.176 50.266 231.055 50.696 229.719 50.696C 227.946 50.696 226.91 49.86 226.91 48.43C 226.91 46.946 227.918 46.192 230.348 45.84C 232.75 45.52 233.239 45.41 234.004 45.059L 234 47.594z"/>
<path style="stroke:none; fill-rule:evenodd; fill:#000000" d="M 242.598 37.899L 240.301 37.899L 240.301 52.098L 242.598 52.098L 242.598 37.899zM 242.598 32.301L 240.301 32.301L 240.301 35.133L 242.598 35.133L 242.598 32.301z"/>
<path style="stroke:none; fill-rule:evenodd; fill:#000000" d="M 246.399 37.813L 246.399 52.098L 248.696 52.098L 248.696 44.684C 248.696 42.641 249.207 41.305 250.285 40.512C 250.985 39.996 251.66 39.832 253.223 39.805L 253.223 37.489C 252.844 37.438 252.656 37.41 252.36 37.41C 250.903 37.41 249.797 38.282 248.5 40.41L 248.5 37.821L 246.399 37.813z"/>
<path style="stroke:none; fill-rule:evenodd; fill:#000000" d="M 265.508 41.821C 265.481 38.993 263.637 37.399 260.356 37.399C 257.047 37.399 254.906 39.114 254.906 41.754C 254.906 43.985 256.043 45.047 259.399 45.86L 261.508 46.375C 263.074 46.754 263.699 47.325 263.699 48.36C 263.699 49.692 262.371 50.59 260.391 50.59C 259.172 50.59 258.141 50.243 257.571 49.653C 257.219 49.25 257.055 48.848 256.922 47.852L 254.535 47.852C 254.641 51.121 256.477 52.692 260.176 52.692C 263.739 52.692 266.004 50.926 266.004 48.176C 266.004 46.055 264.813 44.883 261.996 44.203L 259.832 43.688C 257.992 43.254 257.207 42.657 257.207 41.649C 257.207 40.344 258.379 39.5 260.239 39.5C 262.067 39.5 263.051 40.301 263.106 41.821L 265.508 41.821z"/>
<path style="stroke:none; fill-rule:evenodd; fill:#000000" d="M 30.3985 3.914L 30.3985 13.598L 31.9961 13.598L 31.9961 0L 30.8985 0C 30.3125 2.09 29.9336 2.379 27.3555 2.703L 27.3555 3.91L 30.3985 3.914z"/>
<path style="stroke:none; fill-rule:evenodd; fill:#000000" d="M 41.25 0C 39.9844 0 38.836 0.554993 38.125 1.5C 37.2461 2.68399 36.8047 4.5 36.8047 7.004C 36.8047 11.571 38.336 13.996 41.2539 13.996C 44.1289 13.996 45.7031 11.571 45.7031 7.11798C 45.7031 4.48099 45.2813 2.72299 44.3828 1.5C 43.6758 0.539001 42.543 0 41.2578 0L 41.25 0zM 41.25 1.5C 43.086 1.5 44 3.336 44 6.965C 44 10.801 43.1094 12.598 41.2149 12.598C 39.418 12.598 38.5039 10.727 38.5039 7.02399C 38.5039 3.32098 39.4102 1.504 41.2539 1.504L 41.25 1.5z"/>
<path style="stroke:none; fill-rule:evenodd; fill:#000000" d="M 51.9492 0C 50.6836 0 49.5352 0.554993 48.8242 1.5C 47.9453 2.68399 47.5039 4.5 47.5039 7.004C 47.5039 11.571 49.0352 13.996 51.9531 13.996C 54.8281 13.996 56.4024 11.571 56.4024 7.11798C 56.4024 4.48099 55.9805 2.72299 55.082 1.5C 54.375 0.539001 53.2422 0 51.957 0L 51.9492 0zM 51.9492 1.5C 53.7852 1.5 54.6992 3.336 54.6992 6.965C 54.6992 10.801 53.8086 12.598 51.9141 12.598C 50.1172 12.598 49.2031 10.727 49.2031 7.02399C 49.2031 3.32098 50.1094 1.504 51.9531 1.504L 51.9492 1.5z"/>
<path style="stroke:none; fill-rule:evenodd; fill:#000000" d="M 61.2383 0.5C 59.4688 0.5 58 1.961 58 3.75C 58 5.53598 59.4649 7 61.2578 7C 63.0274 7 64.4961 5.539 64.4961 3.789C 64.4961 1.94598 63.0664 0.503998 61.2383 0.503998L 61.2383 0.5zM 61.2383 1.80099C 62.332 1.80099 63.1953 2.668 63.1953 3.76999C 63.1953 4.828 62.3125 5.69998 61.2578 5.69998C 60.1836 5.69998 59.3008 4.81299 59.3008 3.75C 59.3008 2.672 60.1836 1.80099 61.2383 1.80099zM 69.086 0L 61.5078 13.996L 62.7735 13.996L 70.3516 0L 69.086 0zM 70.6406 7.39899C 68.8711 7.39899 67.4024 8.88699 67.4024 10.688C 67.4024 12.504 68.8672 13.996 70.6602 13.996C 72.4141 13.996 73.8988 12.508 73.8988 10.727C 73.8988 8.871 72.4688 7.39899 70.6406 7.39899zM 70.6406 8.69998C 71.7344 8.69998 72.5977 9.59399 72.5977 10.727C 72.5977 11.801 71.7149 12.696 70.6602 12.696C 69.586 12.696 68.7031 11.801 68.7031 10.688C 68.7031 9.59399 69.586 8.69998 70.6406 8.69998z"/>
<path style="stroke:none; fill-rule:evenodd; fill:#000000" d="M 43.3047 69.528C 44.7305 68.688 45.1992 68 45.1992 66.719C 45.1992 64.598 43.5274 63.106 41.1016 63.106C 38.6992 63.106 37.0039 64.598 37.0039 66.719C 37.0039 67.981 37.461 68.668 38.836 69.528C 37.2774 70.27 36.5078 71.399 36.5078 72.891C 36.5078 75.375 38.3789 77.094 41.0547 77.094C 43.7305 77.094 45.6016 75.375 45.6016 72.907C 45.6016 71.399 44.8516 70.27 43.3086 69.524L 43.3047 69.528zM 41.0977 64.598C 42.5586 64.598 43.4961 65.446 43.4961 66.774C 43.4961 68.043 42.543 68.891 41.0977 68.891C 39.6563 68.891 38.6992 68.043 38.6992 66.754C 38.6992 65.446 39.6524 64.598 41.0977 64.598zM 41.0508 70.301C 42.7422 70.301 43.8985 71.364 43.8985 72.938C 43.8985 74.532 42.7461 75.594 41.0117 75.594C 39.3594 75.594 38.2031 74.516 38.2031 72.938C 38.2031 71.364 39.3555 70.301 41.0508 70.301z"/>
<path style="stroke:none; fill-rule:evenodd; fill:#000000" d="M 51.6485 63.102C 50.3828 63.102 49.2344 63.657 48.5235 64.602C 47.6446 65.786 47.2031 67.602 47.2031 70.106C 47.2031 74.672 48.7344 77.098 51.6524 77.098C 54.5274 77.098 56.1016 74.672 56.1016 70.219C 56.1016 67.582 55.6797 65.825 54.7813 64.602C 54.0742 63.641 52.9414 63.102 51.6563 63.102L 51.6485 63.102zM 51.6485 64.598C 53.4844 64.598 54.3985 66.434 54.3985 70.063C 54.3985 73.899 53.5078 75.696 51.6133 75.696C 49.8164 75.696 48.9024 73.825 48.9024 70.121C 48.9024 66.418 49.8086 64.602 51.6524 64.602L 51.6485 64.598z"/>
<path style="stroke:none; fill-rule:evenodd; fill:#000000" d="M 60.9414 63.598C 59.1719 63.598 57.7031 65.059 57.7031 66.848C 57.7031 68.633 59.168 70.098 60.961 70.098C 62.7305 70.098 64.1992 68.637 64.1992 66.887C 64.1992 65.043 62.7696 63.602 60.9414 63.602L 60.9414 63.598zM 60.9414 64.899C 62.0352 64.899 62.8985 65.766 62.8985 66.868C 62.8985 67.926 62.0156 68.797 60.961 68.797C 59.8867 68.797 59.0039 67.91 59.0039 66.848C 59.0039 65.77 59.8867 64.899 60.9414 64.899zM 68.7891 63.102L 61.211 77.098L 62.4766 77.098L 70.0547 63.102L 68.7891 63.102zM 70.3399 70.5C 68.5703 70.5 67.1016 71.989 67.1016 73.789C 67.1016 75.606 68.5664 77.098 70.3594 77.098C 72.1133 77.098 73.5978 75.61 73.5978 73.828C 73.5978 71.973 72.168 70.5 70.3399 70.5zM 70.3399 71.801C 71.4336 71.801 72.2969 72.696 72.2969 73.828C 72.2969 74.903 71.4141 75.797 70.3594 75.797C 69.2852 75.797 68.4024 74.903 68.4024 73.789C 68.4024 72.696 69.2852 71.801 70.3399 71.801z"/>
<path style="stroke:none; fill-rule:evenodd; fill:#000000" d="M 45.3555 129C 45.0274 126.809 43.5664 125.504 41.4883 125.504C 39.9883 125.504 38.6406 126.231 37.832 127.434C 36.9883 128.75 36.6016 130.414 36.6016 132.883C 36.6016 135.157 36.9453 136.61 37.75 137.817C 38.4766 138.907 39.6641 139.496 41.1563 139.496C 43.7383 139.496 45.5977 137.578 45.5977 134.914C 45.5977 132.387 43.8711 130.602 41.4297 130.602C 40.086 130.602 39.0313 131.114 38.3008 132.102C 38.3203 128.825 39.4024 127.004 41.3555 127.004C 42.5508 127.004 43.3828 127.731 43.6563 129L 45.3555 129zM 41.2578 132.098C 42.8828 132.098 43.8946 133.227 43.8946 135.047C 43.8946 136.75 42.75 137.993 41.1992 137.993C 39.6328 137.993 38.4453 136.692 38.4453 134.95C 38.4453 133.266 39.5899 132.098 41.2539 132.098L 41.2578 132.098z"/>
<path style="stroke:none; fill-rule:evenodd; fill:#000000" d="M 51.6485 125.5C 50.3828 125.5 49.2344 126.055 48.5235 127C 47.6446 128.184 47.2031 130 47.2031 132.504C 47.2031 137.071 48.7344 139.496 51.6524 139.496C 54.5274 139.496 56.1016 137.071 56.1016 132.618C 56.1016 129.981 55.6797 128.223 54.7813 127C 54.0742 126.039 52.9414 125.5 51.6563 125.5L 51.6485 125.5zM 51.6485 127C 53.4844 127 54.3985 128.836 54.3985 132.465C 54.3985 136.301 53.5078 138.098 51.6133 138.098C 49.8164 138.098 48.9024 136.227 48.9024 132.524C 48.9024 128.821 49.8086 127.004 51.6524 127.004L 51.6485 127z"/>
<path style="stroke:none; fill-rule:evenodd; fill:#000000" d="M 60.9414 126C 59.1719 126 57.7031 127.461 57.7031 129.25C 57.7031 131.036 59.168 132.5 60.961 132.5C 62.7305 132.5 64.1992 131.039 64.1992 129.289C 64.1992 127.446 62.7696 126.004 60.9414 126.004L 60.9414 126zM 60.9414 127.301C 62.0352 127.301 62.8985 128.168 62.8985 129.27C 62.8985 130.328 62.0156 131.2 60.961 131.2C 59.8867 131.2 59.0039 130.313 59.0039 129.25C 59.0039 128.172 59.8867 127.301 60.9414 127.301zM 68.7891 125.5L 61.211 139.496L 62.4766 139.496L 70.0547 125.5L 68.7891 125.5zM 70.3399 132.899C 68.5703 132.899 67.1016 134.387 67.1016 136.188C 67.1016 138.004 68.5664 139.496 70.3594 139.496C 72.1133 139.496 73.5978 138.008 73.5978 136.227C 73.5978 134.371 72.168 132.899 70.3399 132.899zM 70.3399 134.2C 71.4336 134.2 72.2969 135.094 72.2969 136.227C 72.2969 137.301 71.4141 138.196 70.3594 138.196C 69.2852 138.196 68.4024 137.301 68.4024 136.188C 68.4024 135.094 69.2852 134.2 70.3399 134.2z"/>
<path style="stroke:none; fill-rule:evenodd; fill:#000000" d="M 42.0977 199.801L 42.0977 203.098L 43.6953 203.098L 43.6953 199.801L 45.7735 199.801L 45.7735 198.301L 43.6953 198.301L 43.6953 189.504L 42.461 189.504L 36.336 198.024L 36.336 199.797L 42.0977 199.801zM 42.0977 198.301L 37.8164 198.301L 42.0977 192.375L 42.0977 198.301z"/>
<path style="stroke:none; fill-rule:evenodd; fill:#000000" d="M 51.6485 189.5C 50.3828 189.5 49.2344 190.055 48.5235 191C 47.6446 192.184 47.2031 194 47.2031 196.504C 47.2031 201.071 48.7344 203.496 51.6524 203.496C 54.5274 203.496 56.1016 201.071 56.1016 196.618C 56.1016 193.981 55.6797 192.223 54.7813 191C 54.0742 190.039 52.9414 189.5 51.6563 189.5L 51.6485 189.5zM 51.6485 191C 53.4844 191 54.3985 192.836 54.3985 196.465C 54.3985 200.301 53.5078 202.098 51.6133 202.098C 49.8164 202.098 48.9024 200.227 48.9024 196.524C 48.9024 192.821 49.8086 191.004 51.6524 191.004L 51.6485 191z"/>
<path style="stroke:none; fill-rule:evenodd; fill:#000000" d="M 60.9414 190C 59.1719 190 57.7031 191.461 57.7031 193.25C 57.7031 195.036 59.168 196.5 60.961 196.5C 62.7305 196.5 64.1992 195.039 64.1992 193.289C 64.1992 191.446 62.7696 190.004 60.9414 190.004L 60.9414 190zM 60.9414 191.301C 62.0352 191.301 62.8985 192.168 62.8985 193.27C 62.8985 194.328 62.0156 195.2 60.961 195.2C 59.8867 195.2 59.0039 194.313 59.0039 193.25C 59.0039 192.172 59.8867 191.301 60.9414 191.301zM 68.7891 189.5L 61.211 203.496L 62.4766 203.496L 70.0547 189.5L 68.7891 189.5zM 70.3399 196.899C 68.5703 196.899 67.1016 198.387 67.1016 200.188C 67.1016 202.004 68.5664 203.496 70.3594 203.496C 72.1133 203.496 73.5978 202.008 73.5978 200.227C 73.5978 198.371 72.168 196.899 70.3399 196.899zM 70.3399 198.2C 71.4336 198.2 72.2969 199.094 72.2969 200.227C 72.2969 201.301 71.4141 202.196 70.3594 202.196C 69.2852 202.196 68.4024 201.301 68.4024 200.188C 68.4024 199.094 69.2852 198.2 70.3399 198.2z"/>
<path style="stroke:none; fill-rule:evenodd; fill:#000000" d="M 45.5 264.598L 38.3516 264.598C 38.5235 263.493 39.1367 262.782 40.8047 261.805L 42.7227 260.774C 44.6172 259.743 45.5977 258.348 45.5977 256.684C 45.5977 255.555 45.1367 254.504 44.332 253.778C 43.5274 253.051 42.5313 252.707 41.2461 252.707C 39.5235 252.707 38.2383 253.321 37.4883 254.469C 37.0117 255.196 36.8008 256.039 36.7617 257.418L 38.4531 257.418C 38.5078 256.508 38.625 255.957 38.8555 255.52C 39.2969 254.703 40.1797 254.211 41.2031 254.211C 42.7383 254.211 43.8946 255.301 43.8946 256.758C 43.8946 257.828 43.2617 258.746 42.0469 259.438L 40.2774 260.43C 37.4297 262.036 36.6055 263.317 36.4492 266.305L 45.4961 266.305L 45.5 264.598z"/>
<path style="stroke:none; fill-rule:evenodd; fill:#000000" d="M 51.6485 252.7C 50.3828 252.7 49.2344 253.254 48.5235 254.2C 47.6446 255.383 47.2031 257.2 47.2031 259.703C 47.2031 264.27 48.7344 266.696 51.6524 266.696C 54.5274 266.696 56.1016 264.27 56.1016 259.817C 56.1016 257.18 55.6797 255.422 54.7813 254.2C 54.0742 253.239 52.9414 252.7 51.6563 252.7L 51.6485 252.7zM 51.6485 254.2C 53.4844 254.2 54.3985 256.036 54.3985 259.664C 54.3985 263.5 53.5078 265.297 51.6133 265.297C 49.8164 265.297 48.9024 263.426 48.9024 259.723C 48.9024 256.02 49.8086 254.203 51.6524 254.203L 51.6485 254.2z"/>
<path style="stroke:none; fill-rule:evenodd; fill:#000000" d="M 60.9414 253.2C 59.1719 253.2 57.7031 254.66 57.7031 256.45C 57.7031 258.235 59.168 259.7 60.961 259.7C 62.7305 259.7 64.1992 258.239 64.1992 256.489C 64.1992 254.645 62.7696 253.203 60.9414 253.203L 60.9414 253.2zM 60.9414 254.5C 62.0352 254.5 62.8985 255.368 62.8985 256.469C 62.8985 257.528 62.0156 258.399 60.961 258.399C 59.8867 258.399 59.0039 257.512 59.0039 256.45C 59.0039 255.371 59.8867 254.5 60.9414 254.5zM 68.7891 252.7L 61.211 266.696L 62.4766 266.696L 70.0547 252.7L 68.7891 252.7zM 70.3399 260.098C 68.5703 260.098 67.1016 261.586 67.1016 263.387C 67.1016 265.203 68.5664 266.696 70.3594 266.696C 72.1133 266.696 73.5978 265.207 73.5978 263.426C 73.5978 261.571 72.168 260.098 70.3399 260.098zM 70.3399 261.399C 71.4336 261.399 72.2969 262.293 72.2969 263.426C 72.2969 264.5 71.4141 265.395 70.3594 265.395C 69.2852 265.395 68.4024 264.5 68.4024 263.387C 68.4024 262.293 69.2852 261.399 70.3399 261.399z"/>
<path style="stroke:none; fill-rule:evenodd; fill:#000000" d="M 51.4492 308.5C 50.1836 308.5 49.0352 309.055 48.3242 310C 47.4453 311.184 47.0039 313 47.0039 315.504C 47.0039 320.071 48.5352 322.496 51.4531 322.496C 54.3281 322.496 55.9024 320.071 55.9024 315.618C 55.9024 312.981 55.4805 311.223 54.582 310C 53.875 309.039 52.7422 308.5 51.457 308.5L 51.4492 308.5zM 51.4492 310C 53.2852 310 54.1992 311.836 54.1992 315.465C 54.1992 319.301 53.3086 321.098 51.4141 321.098C 49.6172 321.098 48.7031 319.227 48.7031 315.524C 48.7031 311.821 49.6094 310.004 51.4531 310.004L 51.4492 310z"/>
<path style="stroke:none; fill-rule:evenodd; fill:#000000" d="M 60.6406 309C 58.8711 309 57.4024 310.461 57.4024 312.25C 57.4024 314.036 58.8672 315.5 60.6602 315.5C 62.4297 315.5 63.8985 314.039 63.8985 312.289C 63.8985 310.446 62.4688 309.004 60.6406 309.004L 60.6406 309zM 60.6406 310.301C 61.7344 310.301 62.5977 311.168 62.5977 312.27C 62.5977 313.328 61.7149 314.2 60.6602 314.2C 59.586 314.2 58.7031 313.313 58.7031 312.25C 58.7031 311.172 59.586 310.301 60.6406 310.301zM 68.4883 308.5L 60.9102 322.496L 62.1758 322.496L 69.7539 308.5L 68.4883 308.5zM 70.0391 315.899C 68.2696 315.899 66.8008 317.387 66.8008 319.188C 66.8008 321.004 68.2656 322.496 70.0586 322.496C 71.8125 322.496 73.2969 321.008 73.2969 319.227C 73.2969 317.371 71.8672 315.899 70.0391 315.899zM 70.0391 317.2C 71.1328 317.2 71.9961 318.094 71.9961 319.227C 71.9961 320.301 71.1133 321.196 70.0586 321.196C 68.9844 321.196 68.1016 320.301 68.1016 319.188C 68.1016 318.094 68.9844 317.2 70.0391 317.2z"/>
</g>
</svg>