<?xml version="1.0" encoding="ISO-8859-1" standalone="yes"?>
<svg width="476.644" height="168.203">
  <defs> 
    <marker id="ArrowEnd" viewBox="0 0 10 10" refX="0" refY="5" 
     markerUnits="strokeWidth" 
     markerWidth="4" 
     markerHeight="3" 
     orient="auto"> 
        <path d="M 0 0 L 10 5 L 0 10 z" /> 
    </marker>
    <marker id="ArrowStart" viewBox="0 0 10 10" refX="10" refY="5" 
     markerUnits="strokeWidth" 
     markerWidth="4" 
     markerHeight="3" 
     orient="auto"> 
        <path d="M 10 0 L 0 5 L 10 10 z" /> 
    </marker> </defs>
<g>
<path style="stroke:none; fill-rule:evenodd; fill:#000000" d="M 8.3516 13.07C 8.2031 13.097 8.1367 13.097 8.0508 13.097C 7.5664 13.097 7.2969 12.847 7.2969 12.41L 7.2969 7.21901C 7.2969 5.65201 6.1446 4.808 3.9571 4.808C 2.6719 4.808 1.6016 5.17601 1.0117 5.832C 0.6055 6.285 0.4375 6.785 0.4024 7.66L 1.8242 7.66C 1.9414 6.59401 2.586 6.10901 3.9102 6.10901C 5.1797 6.10901 5.8946 6.582 5.8946 7.42601L 5.8946 7.79701C 5.8946 8.38701 5.5391 8.64 4.418 8.77301C 2.4141 9.02701 2.1094 9.09401 1.5625 9.31201C 0.5274 9.73401 0 10.527 0 11.676C 0 13.281 1.1172 14.293 2.9141 14.293C 4.0313 14.293 4.9297 13.902 5.9297 12.98C 6.0313 13.883 6.4727 14.293 7.3867 14.293C 7.6719 14.293 7.8946 14.261 8.3516 14.14L 8.3516 13.07zM 5.8946 11.129C 5.8946 11.605 5.7578 11.898 5.3242 12.293C 4.7383 12.82 4.0274 13.097 3.1797 13.097C 2.0547 13.097 1.3985 12.566 1.3985 11.66C 1.3985 10.719 2.0352 10.238 3.5781 10.015C 5.0977 9.81201 5.4102 9.742 5.8946 9.51901L 5.8946 11.129z"/>
<path style="stroke:none; fill-rule:evenodd; fill:#000000" d="M 10.3594 17.488C 12.0352 15.277 13.0899 12.207 13.0899 9.554C 13.0899 6.88701 12.0352 3.81601 10.3594 1.601L 9.4375 1.601C 10.8828 4.015 11.6914 6.851 11.6914 9.554C 11.6914 12.238 10.8867 15.09 9.4375 17.488L 10.3594 17.488z"/>
<path style="stroke:#000000; stroke-width:1.59941; fill:none" d="M 87.5508 157.504L 87.5508 156.328"/>
<path style="stroke:#000000; stroke-width:1.59941; fill:none" d="M 183.824 157.504L 183.824 156.328"/>
<path style="stroke:#000000; stroke-width:1.59941; fill:none" d="M 87.5508 18.004L 87.5508 19.179"/>
<path style="stroke:#000000; stroke-width:1.59941; fill:none" d="M 183.824 18.004L 183.824 19.179"/>
<path style="stroke:#000000; stroke-width:1.59941; fill:none" d="M 87.5508 157.504L 87.5508 155.148"/>
<path style="stroke:#000000; stroke-width:1.59941; fill:none" d="M 183.824 157.504L 183.824 155.148"/>
<path style="stroke:#000000; stroke-width:1.59941; fill:none" d="M 87.5508 18.004L 87.5508 20.359"/>
<path style="stroke:#000000; stroke-width:1.59941; fill:none" d="M 183.824 18.004L 183.824 20.359"/>
<path style="stroke:none; fill-rule:evenodd; fill:#000000" d="M 74.0938 168L 75.6914 168L 75.6914 160.301L 74.0938 160.301L 74.0938 168z"/>
<path style="stroke:none; fill-rule:evenodd; fill:#000000" d="M 77.0938 162.301L 77.0938 168L 78.5938 168L 78.5938 164.609C 78.5938 163.941 79.0586 163.5 79.7617 163.5C 80.3789 163.5 80.6914 163.844 80.6914 164.515L 80.6914 168L 82.1914 168L 82.1914 164.18C 82.1914 162.926 81.5 162.203 80.293 162.203C 79.5274 162.203 79.0157 162.48 78.5938 163.101L 78.5938 162.305L 77.0938 162.301z"/>
<path style="stroke:none; fill-rule:evenodd; fill:#000000" d="M 85.9883 162.402L 85.1953 162.402L 85.1953 160.851L 83.6953 160.851L 83.6953 162.402L 82.9453 162.402L 82.9453 163.402L 83.6953 163.402L 83.6953 166.871C 83.6953 167.758 84.168 168.195 85.1328 168.195C 85.4571 168.195 85.7188 168.168 85.9844 168.086L 85.9844 167.086C 85.8438 167.094 85.7617 167.097 85.6602 167.097C 85.2852 167.097 85.1953 166.984 85.1953 166.48L 85.1953 163.402L 85.9883 163.402L 85.9883 162.402z"/>
<path style="stroke:none; fill-rule:evenodd; fill:#000000" d="M 91.9529 167.781C 91.6759 167.543 91.5979 167.387 91.5979 167.09L 91.5979 163.945C 91.5979 162.793 90.8089 162.203 89.2659 162.203C 87.7227 162.203 86.9219 162.851 86.8281 164.16L 88.2305 164.16C 88.3008 163.586 88.5391 163.402 89.2579 163.402C 89.8169 163.402 90.0979 163.59 90.0979 163.965C 90.0979 164.152 90.0039 164.316 89.8479 164.402C 89.6519 164.504 89.6519 164.504 88.9339 164.621L 88.3555 164.722C 87.2461 164.91 86.7031 165.484 86.7031 166.5C 86.7031 166.98 86.836 167.379 87.0938 167.66C 87.4141 167.992 87.9024 168.191 88.3985 168.191C 89.0199 168.191 89.5899 167.922 90.0979 167.387C 90.0979 167.68 90.1289 167.785 90.2739 167.949L 91.9529 167.949L 91.9529 167.781zM 90.0939 165.687C 90.0939 166.523 89.6879 167 88.9689 167C 88.4922 167 88.1992 166.742 88.1992 166.328C 88.1992 165.894 88.4219 165.687 89.0119 165.566L 89.4959 165.476C 89.8709 165.406 89.9299 165.387 90.0939 165.301L 90.0939 165.687z"/>
<path style="stroke:none; fill-rule:evenodd; fill:#000000" d="M 97.8319 164.414C 97.7309 163.031 96.8009 162.203 95.3789 162.203C 93.6879 162.203 92.6949 163.312 92.6949 165.246C 92.6949 167.109 93.6719 168.203 95.3559 168.203C 96.7349 168.203 97.6919 167.363 97.8279 166.019L 96.4299 166.019C 96.2419 166.73 95.9489 167 95.3869 167C 94.6449 167 94.1949 166.336 94.1949 165.242C 94.1949 164.715 94.2969 164.215 94.4769 163.883C 94.6409 163.574 94.9649 163.406 95.3829 163.406C 95.9769 163.406 96.2579 163.683 96.4259 164.418L 97.8319 164.414z"/>
<path style="stroke:none; fill-rule:evenodd; fill:#000000" d="M 101.387 162.402L 100.594 162.402L 100.594 160.851L 99.0939 160.851L 99.0939 162.402L 98.3439 162.402L 98.3439 163.402L 99.0939 163.402L 99.0939 166.871C 99.0939 167.758 99.5669 168.195 100.531 168.195C 100.856 168.195 101.117 168.168 101.383 168.086L 101.383 167.086C 101.242 167.094 101.16 167.097 101.059 167.097C 100.684 167.097 100.594 166.984 100.594 166.48L 100.594 163.402L 101.387 163.402L 101.387 162.402z"/>
<path style="stroke:none; fill-rule:evenodd; fill:#000000" d="M 182.195 164.5L 182.195 168L 183.793 168L 183.793 160.301L 182.195 160.301L 182.195 163.199L 179.098 163.199L 179.098 160.301L 177.5 160.301L 177.5 168L 179.098 168L 179.098 164.5L 182.195 164.5z"/>
<path style="stroke:none; fill-rule:evenodd; fill:#000000" d="M 186.797 160.301L 185.199 160.301L 185.199 168L 190.539 168L 190.539 166.703L 186.797 166.703L 186.797 160.301z"/>
<path style="stroke:#000000; stroke-width:1.59941; fill:none" d="M 39.6133 157.504L 40.7891 157.504"/>
<path style="stroke:#000000; stroke-width:1.59941; fill:none" d="M 39.6133 150.43L 40.7891 150.43"/>
<path style="stroke:#000000; stroke-width:1.59941; fill:none" d="M 39.6133 143.355L 40.7891 143.355"/>
<path style="stroke:#000000; stroke-width:1.59941; fill:none" d="M 39.6133 136.281L 40.7891 136.281"/>
<path style="stroke:#000000; stroke-width:1.59941; fill:none" d="M 39.6133 129.211L 40.7891 129.211"/>
<path style="stroke:#000000; stroke-width:1.59941; fill:none" d="M 39.6133 122.527L 40.7891 122.527"/>
<path style="stroke:#000000; stroke-width:1.59941; fill:none" d="M 39.6133 115.457L 40.7891 115.457"/>
<path style="stroke:#000000; stroke-width:1.59941; fill:none" d="M 39.6133 108.383L 40.7891 108.383"/>
<path style="stroke:#000000; stroke-width:1.59941; fill:none" d="M 39.6133 101.703L 40.7891 101.703"/>
<path style="stroke:#000000; stroke-width:1.59941; fill:none" d="M 39.6133 94.629L 40.7891 94.629"/>
<path style="stroke:#000000; stroke-width:1.59941; fill:none" d="M 39.6133 87.554L 40.7891 87.554"/>
<path style="stroke:#000000; stroke-width:1.59941; fill:none" d="M 39.6133 80.484L 40.7891 80.484"/>
<path style="stroke:#000000; stroke-width:1.59941; fill:none" d="M 39.6133 73.804L 40.7891 73.804"/>
<path style="stroke:#000000; stroke-width:1.59941; fill:none" d="M 39.6133 66.73L 40.7891 66.73"/>
<path style="stroke:#000000; stroke-width:1.59941; fill:none" d="M 39.6133 59.656L 40.7891 59.656"/>
<path style="stroke:#000000; stroke-width:1.59941; fill:none" d="M 39.6133 52.976L 40.7891 52.976"/>
<path style="stroke:#000000; stroke-width:1.59941; fill:none" d="M 39.6133 45.902L 40.7891 45.902"/>
<path style="stroke:#000000; stroke-width:1.59941; fill:none" d="M 39.6133 38.832L 40.7891 38.832"/>
<path style="stroke:#000000; stroke-width:1.59941; fill:none" d="M 39.6133 32.148L 40.7891 32.148"/>
<path style="stroke:#000000; stroke-width:1.59941; fill:none" d="M 39.6133 25.074L 40.7891 25.074"/>
<path style="stroke:#000000; stroke-width:1.59941; fill:none" d="M 39.6133 18.004L 40.7891 18.004"/>
<path style="stroke:#000000; stroke-width:1.59941; fill:none" d="M 231.766 157.504L 230.59 157.504"/>
<path style="stroke:#000000; stroke-width:1.59941; fill:none" d="M 231.766 150.43L 230.59 150.43"/>
<path style="stroke:#000000; stroke-width:1.59941; fill:none" d="M 231.766 143.355L 230.59 143.355"/>
<path style="stroke:#000000; stroke-width:1.59941; fill:none" d="M 231.766 136.281L 230.59 136.281"/>
<path style="stroke:#000000; stroke-width:1.59941; fill:none" d="M 231.766 129.211L 230.59 129.211"/>
<path style="stroke:#000000; stroke-width:1.59941; fill:none" d="M 231.766 122.527L 230.59 122.527"/>
<path style="stroke:#000000; stroke-width:1.59941; fill:none" d="M 231.766 115.457L 230.59 115.457"/>
<path style="stroke:#000000; stroke-width:1.59941; fill:none" d="M 231.766 108.383L 230.59 108.383"/>
<path style="stroke:#000000; stroke-width:1.59941; fill:none" d="M 231.766 101.703L 230.59 101.703"/>
<path style="stroke:#000000; stroke-width:1.59941; fill:none" d="M 231.766 94.629L 230.59 94.629"/>
<path style="stroke:#000000; stroke-width:1.59941; fill:none" d="M 231.766 87.554L 230.59 87.554"/>
<path style="stroke:#000000; stroke-width:1.59941; fill:none" d="M 231.766 80.484L 230.59 80.484"/>
<path style="stroke:#000000; stroke-width:1.59941; fill:none" d="M 231.766 73.804L 230.59 73.804"/>
<path style="stroke:#000000; stroke-width:1.59941; fill:none" d="M 231.766 66.73L 230.59 66.73"/>
<path style="stroke:#000000; stroke-width:1.59941; fill:none" d="M 231.766 59.656L 230.59 59.656"/>
<path style="stroke:#000000; stroke-width:1.59941; fill:none" d="M 231.766 52.976L 230.59 52.976"/>
<path style="stroke:#000000; stroke-width:1.59941; fill:none" d="M 231.766 45.902L 230.59 45.902"/>
<path style="stroke:#000000; stroke-width:1.59941; fill:none" d="M 231.766 38.832L 230.59 38.832"/>
<path style="stroke:#000000; stroke-width:1.59941; fill:none" d="M 231.766 32.148L 230.59 32.148"/>
<path style="stroke:#000000; stroke-width:1.59941; fill:none" d="M 231.766 25.074L 230.59 25.074"/>
<path style="stroke:#000000; stroke-width:1.59941; fill:none" d="M 231.766 18.004L 230.59 18.004"/>
<path style="stroke:#000000; stroke-width:1.59941; fill:none" d="M 39.6133 157.504L 41.9688 157.504"/>
<path style="stroke:#000000; stroke-width:1.59941; fill:none" d="M 39.6133 129.211L 41.9688 129.211"/>
<path style="stroke:#000000; stroke-width:1.59941; fill:none" d="M 39.6133 101.703L 41.9688 101.703"/>
<path style="stroke:#000000; stroke-width:1.59941; fill:none" d="M 39.6133 73.804L 41.9688 73.804"/>
<path style="stroke:#000000; stroke-width:1.59941; fill:none" d="M 39.6133 45.902L 41.9688 45.902"/>
<path style="stroke:#000000; stroke-width:1.59941; fill:none" d="M 39.6133 18.004L 41.9688 18.004"/>
<path style="stroke:#000000; stroke-width:1.59941; fill:none" d="M 231.766 157.504L 229.41 157.504"/>
<path style="stroke:#000000; stroke-width:1.59941; fill:none" d="M 231.766 129.211L 229.41 129.211"/>
<path style="stroke:#000000; stroke-width:1.59941; fill:none" d="M 231.766 101.703L 229.41 101.703"/>
<path style="stroke:#000000; stroke-width:1.59941; fill:none" d="M 231.766 73.804L 229.41 73.804"/>
<path style="stroke:#000000; stroke-width:1.59941; fill:none" d="M 231.766 45.902L 229.41 45.902"/>
<path style="stroke:#000000; stroke-width:1.59941; fill:none" d="M 231.766 18.004L 229.41 18.004"/>
<path style="stroke:none; fill-rule:evenodd; fill:#000000" d="M 20.9453 152.101C 20.25 152.101 19.6172 152.398 19.2266 152.898C 18.7422 153.551 18.5 154.555 18.5 155.933C 18.5 158.453 19.3438 159.793 20.9453 159.793C 22.5274 159.793 23.3946 158.453 23.3946 155.996C 23.3946 154.543 23.1641 153.57 22.668 152.894C 22.2774 152.383 21.6563 152.097 20.9492 152.097L 20.9453 152.101zM 20.9453 152.902C 21.9805 152.902 22.4922 153.91 22.4922 155.902C 22.4922 158.012 21.9922 158.996 20.9219 158.996C 19.9102 158.996 19.3946 157.969 19.3946 155.933C 19.3946 153.898 19.9063 152.902 20.9414 152.902L 20.9453 152.902z"/>
<path style="stroke:none; fill-rule:evenodd; fill:#000000" d="M 24.7969 159.601L 25.8946 159.601L 25.8946 158.504L 24.7969 158.504L 24.7969 159.601z"/>
<path style="stroke:none; fill-rule:evenodd; fill:#000000" d="M 29.8438 152.101C 29.1485 152.101 28.5157 152.398 28.125 152.898C 27.6407 153.551 27.3985 154.555 27.3985 155.933C 27.3985 158.453 28.2422 159.793 29.8438 159.793C 31.4258 159.793 32.293 158.453 32.293 155.996C 32.293 154.543 32.0625 153.57 31.5664 152.894C 31.1758 152.383 30.5547 152.097 29.8477 152.097L 29.8438 152.101zM 29.8438 152.902C 30.8789 152.902 31.3907 153.91 31.3907 155.902C 31.3907 158.012 30.8907 158.996 29.8203 158.996C 28.8086 158.996 28.293 157.969 28.293 155.933C 28.293 153.898 28.8047 152.902 29.8399 152.902L 29.8438 152.902z"/>
<path style="stroke:none; fill-rule:evenodd; fill:#000000" d="M 20.9453 124.199C 20.25 124.199 19.6172 124.496 19.2266 124.996C 18.7422 125.648 18.5 126.652 18.5 128.031C 18.5 130.551 19.3438 131.89 20.9453 131.89C 22.5274 131.89 23.3946 130.551 23.3946 128.094C 23.3946 126.64 23.1641 125.668 22.668 124.992C 22.2774 124.48 21.6563 124.195 20.9492 124.195L 20.9453 124.199zM 20.9453 125C 21.9805 125 22.4922 126.008 22.4922 128C 22.4922 130.109 21.9922 131.094 20.9219 131.094C 19.9102 131.094 19.3946 130.066 19.3946 128.031C 19.3946 125.996 19.9063 125 20.9414 125L 20.9453 125z"/>
<path style="stroke:none; fill-rule:evenodd; fill:#000000" d="M 24.7969 131.699L 25.8946 131.699L 25.8946 130.601L 24.7969 130.601L 24.7969 131.699z"/>
<path style="stroke:none; fill-rule:evenodd; fill:#000000" d="M 32.2422 130.801L 28.3047 130.801C 28.3985 130.187 28.7344 129.793 29.6563 129.254L 30.711 128.683C 31.7539 128.113 32.293 127.336 32.293 126.414C 32.293 125.789 32.0391 125.207 31.5977 124.805C 31.1563 124.402 30.6055 124.211 29.8985 124.211C 28.9492 124.211 28.2422 124.547 27.8321 125.176C 27.5703 125.574 27.4531 126.035 27.4336 126.793L 28.3711 126.793C 28.4024 126.289 28.4649 125.98 28.5938 125.738C 28.836 125.285 29.3281 125.012 29.8985 125.012C 30.7539 125.012 31.3946 125.613 31.3946 126.422C 31.3946 127.012 31.043 127.523 30.3711 127.902L 29.3907 128.453C 27.8125 129.34 27.3477 130.051 27.2657 131.707L 32.25 131.707L 32.2422 130.801z"/>
<path style="stroke:none; fill-rule:evenodd; fill:#000000" d="M 20.9453 96.3006C 20.25 96.3006 19.6172 96.5974 19.2266 97.0974C 18.7422 97.7498 18.5 98.7537 18.5 100.133C 18.5 102.652 19.3438 103.992 20.9453 103.992C 22.5274 103.992 23.3946 102.652 23.3946 100.195C 23.3946 98.742 23.1641 97.7693 22.668 97.0935C 22.2774 96.5818 21.6563 96.2967 20.9492 96.2967L 20.9453 96.3006zM 20.9453 97.1013C 21.9805 97.1013 22.4922 98.1092 22.4922 100.101C 22.4922 102.211 21.9922 103.195 20.9219 103.195C 19.9102 103.195 19.3946 102.168 19.3946 100.133C 19.3946 98.0974 19.9063 97.1013 20.9414 97.1013L 20.9453 97.1013z"/>
<path style="stroke:none; fill-rule:evenodd; fill:#000000" d="M 24.7969 103.801L 25.8946 103.801L 25.8946 102.703L 24.7969 102.703L 24.7969 103.801z"/>
<path style="stroke:none; fill-rule:evenodd; fill:#000000" d="M 30.3946 102L 30.3946 103.797L 31.293 103.797L 31.293 102L 32.4102 102L 32.4102 101.203L 31.293 101.203L 31.293 96.3045L 30.6055 96.3045L 27.1953 101.019L 27.1953 102L 30.3946 102zM 30.3946 101.199L 28.0117 101.199L 30.3946 97.8709L 30.3946 101.199z"/>
<path style="stroke:none; fill-rule:evenodd; fill:#000000" d="M 20.9453 68.402C 20.25 68.402 19.6172 68.699 19.2266 69.199C 18.7422 69.851 18.5 70.855 18.5 72.234C 18.5 74.754 19.3438 76.094 20.9453 76.094C 22.5274 76.094 23.3946 74.754 23.3946 72.297C 23.3946 70.844 23.1641 69.871 22.668 69.195C 22.2774 68.683 21.6563 68.398 20.9492 68.398L 20.9453 68.402zM 20.9453 69.199C 21.9805 69.199 22.4922 70.207 22.4922 72.199C 22.4922 74.308 21.9922 75.293 20.9219 75.293C 19.9102 75.293 19.3946 74.265 19.3946 72.23C 19.3946 70.195 19.9063 69.199 20.9414 69.199L 20.9453 69.199z"/>
<path style="stroke:none; fill-rule:evenodd; fill:#000000" d="M 24.7969 75.902L 25.8946 75.902L 25.8946 74.804L 24.7969 74.804L 24.7969 75.902z"/>
<path style="stroke:none; fill-rule:evenodd; fill:#000000" d="M 32.1797 70.301C 32.0039 69.113 31.2031 68.402 30.0703 68.402C 29.2539 68.402 28.5157 68.801 28.0742 69.461C 27.6133 70.183 27.4024 71.101 27.4024 72.457C 27.4024 73.707 27.5899 74.508 28.0274 75.168C 28.4219 75.765 29.0664 76.094 29.8789 76.094C 31.2852 76.094 32.2969 75.039 32.2969 73.57C 32.2969 72.179 31.3516 71.195 30.0157 71.195C 29.2813 71.195 28.7031 71.465 28.3008 71.992C 28.3086 70.195 28.9063 69.195 29.9805 69.195C 30.6367 69.195 31.0938 69.594 31.2461 70.293L 32.1797 70.301zM 29.9258 72C 30.8281 72 31.3946 72.633 31.3946 73.648C 31.3946 74.601 30.7578 75.297 29.8946 75.297C 29.0235 75.297 28.3633 74.57 28.3633 73.594C 28.3633 72.652 29 72 29.9258 72z"/>
<path style="stroke:none; fill-rule:evenodd; fill:#000000" d="M 20.9453 40.5C 20.25 40.5 19.6172 40.797 19.2266 41.297C 18.7422 41.949 18.5 42.953 18.5 44.332C 18.5 46.851 19.3438 48.191 20.9453 48.191C 22.5274 48.191 23.3946 46.851 23.3946 44.394C 23.3946 42.941 23.1641 41.969 22.668 41.293C 22.2774 40.781 21.6563 40.496 20.9492 40.496L 20.9453 40.5zM 20.9453 41.301C 21.9805 41.301 22.4922 42.308 22.4922 44.301C 22.4922 46.41 21.9922 47.394 20.9219 47.394C 19.9102 47.394 19.3946 46.367 19.3946 44.332C 19.3946 42.297 19.9063 41.301 20.9414 41.301L 20.9453 41.301z"/>
<path style="stroke:none; fill-rule:evenodd; fill:#000000" d="M 24.7969 48L 25.8946 48L 25.8946 46.902L 24.7969 46.902L 24.7969 48z"/>
<path style="stroke:none; fill-rule:evenodd; fill:#000000" d="M 31.043 44.035C 31.8321 43.574 32.0938 43.195 32.0938 42.492C 32.0938 41.324 31.1758 40.508 29.8438 40.508C 28.5274 40.508 27.5938 41.324 27.5938 42.492C 27.5938 43.183 27.836 43.562 28.5664 44.035C 27.7149 44.441 27.293 45.062 27.293 45.883C 27.293 47.25 28.3203 48.195 29.793 48.195C 31.2617 48.195 32.293 47.25 32.293 45.894C 32.293 45.066 31.8828 44.445 31.043 44.035zM 29.8438 41.301C 30.6641 41.301 31.1914 41.773 31.1914 42.515C 31.1914 43.222 30.6563 43.699 29.8438 43.699C 29.0352 43.699 28.4961 43.226 28.4961 42.508C 28.4961 41.777 29.0313 41.304 29.8438 41.304L 29.8438 41.301zM 29.7969 44.5C 30.7461 44.5 31.3946 45.082 31.3946 45.941C 31.3946 46.812 30.7461 47.394 29.7735 47.394C 28.8438 47.394 28.1992 46.804 28.1992 45.941C 28.1992 45.082 28.8438 44.5 29.7969 44.5z"/>
<path style="stroke:none; fill-rule:evenodd; fill:#000000" d="M 20.7969 14.761L 20.7969 20.101L 21.6953 20.101L 21.6953 12.601L 21.0781 12.601C 20.75 13.754 20.5352 13.914 19.0821 14.094L 19.0821 14.758L 20.7969 14.761z"/>
<path style="stroke:none; fill-rule:evenodd; fill:#000000" d="M 24.7969 20.101L 25.8946 20.101L 25.8946 19.004L 24.7969 19.004L 24.7969 20.101z"/>
<path style="stroke:none; fill-rule:evenodd; fill:#000000" d="M 29.8438 12.601C 29.1485 12.601 28.5157 12.898 28.125 13.398C 27.6407 14.051 27.3985 15.054 27.3985 16.433C 27.3985 18.953 28.2422 20.293 29.8438 20.293C 31.4258 20.293 32.293 18.953 32.293 16.496C 32.293 15.043 32.0625 14.07 31.5664 13.394C 31.1758 12.883 30.5547 12.597 29.8477 12.597L 29.8438 12.601zM 29.8438 13.402C 30.8789 13.402 31.3907 14.41 31.3907 16.402C 31.3907 18.511 30.8907 19.496 29.8203 19.496C 28.8086 19.496 28.293 18.469 28.293 16.433C 28.293 14.398 28.8047 13.402 29.8399 13.402L 29.8438 13.402z"/>
<path style="stroke:none; fill-rule:evenodd; fill:#000000" d="M 67.6953 1.30101L 69.9375 1.30101L 69.9375 0.0039978L 63.7422 0.0039978L 63.7422 1.30101L 66.0938 1.30101L 66.0938 7.69901L 67.6914 7.69901L 67.6953 1.30101z"/>
<path style="stroke:none; fill-rule:evenodd; fill:#000000" d="M 70.7969 2L 70.7969 7.69901L 72.2969 7.69901L 72.2969 4.69101C 72.2969 3.832 72.7188 3.40201 73.5664 3.40201C 73.7188 3.40201 73.8242 3.40201 74.0196 3.39801L 74.0196 1.90601C 73.9375 1.90601 73.8867 1.90601 73.8438 1.90601C 73.1836 1.90601 72.6055 2.34001 72.2969 3.101L 72.2969 2.00801L 70.7969 2z"/>
<path style="stroke:none; fill-rule:evenodd; fill:#000000" d="M 79.7539 7.48001C 79.4766 7.242 79.3985 7.086 79.3985 6.789L 79.3985 3.64401C 79.3985 2.492 78.6094 1.90201 77.0664 1.90201C 75.5235 1.90201 74.7227 2.55101 74.6289 3.85901L 76.0313 3.85901C 76.1016 3.285 76.3399 3.101 77.0586 3.101C 77.6172 3.101 77.8985 3.289 77.8985 3.664C 77.8985 3.851 77.8047 4.015 77.6485 4.101C 77.4531 4.203 77.4531 4.203 76.7344 4.32001L 76.1563 4.42201C 75.0469 4.60901 74.5039 5.183 74.5039 6.19901C 74.5039 6.679 74.6367 7.078 74.8946 7.35901C 75.2149 7.69101 75.7031 7.89 76.1992 7.89C 76.8203 7.89 77.3907 7.621 77.8985 7.086C 77.8985 7.379 77.9297 7.48401 78.0742 7.64801L 79.7539 7.64801L 79.7539 7.48001zM 77.8946 5.38701C 77.8946 6.222 77.4883 6.69901 76.7696 6.69901C 76.293 6.69901 76 6.44101 76 6.02701C 76 5.59401 76.2227 5.38701 76.8125 5.265L 77.2969 5.17601C 77.6719 5.10501 77.7305 5.086 77.8946 5L 77.8946 5.38701z"/>
<path style="stroke:none; fill-rule:evenodd; fill:#000000" d="M 80.7969 2L 80.7969 7.69901L 82.2969 7.69901L 82.2969 4.308C 82.2969 3.64 82.7617 3.19901 83.4649 3.19901C 84.0821 3.19901 84.3946 3.543 84.3946 4.21501L 84.3946 7.69901L 85.8946 7.69901L 85.8946 3.879C 85.8946 2.625 85.2031 1.90201 83.9961 1.90201C 83.2305 1.90201 82.7188 2.179 82.2969 2.80101L 82.2969 2.004L 80.7969 2z"/>
<path style="stroke:none; fill-rule:evenodd; fill:#000000" d="M 91.9529 3.81601C 91.9339 2.625 90.9999 1.90201 89.4569 1.90201C 88.0039 1.90201 87.1016 2.617 87.1016 3.76901C 87.1016 4.14 87.2149 4.46501 87.4141 4.679C 87.6133 4.875 87.793 4.96901 88.3399 5.14401L 90.0979 5.683C 90.4649 5.79701 90.5899 5.91 90.5899 6.13701C 90.5899 6.476 90.1799 6.68701 89.4959 6.68701C 89.1169 6.68701 88.8129 6.621 88.625 6.50801C 88.4688 6.40601 88.4063 6.30101 88.3438 6.02301L 86.9063 6.02301C 86.9453 7.246 87.8672 7.88701 89.6019 7.88701C 90.3949 7.88701 90.9959 7.722 91.4179 7.39C 91.8399 7.06201 92.0939 6.539 92.0939 5.98801C 92.0939 5.261 91.7269 4.79701 90.9769 4.578L 89.1129 4.05101C 88.7031 3.92601 88.5977 3.84401 88.5977 3.617C 88.5977 3.308 88.9339 3.097 89.4529 3.097C 90.1599 3.097 90.5119 3.332 90.5199 3.81201L 91.9529 3.81601z"/>
<path style="stroke:none; fill-rule:evenodd; fill:#000000" d="M 94.6949 1.972L 93.1949 1.972L 93.1949 7.69901L 94.6949 7.69901L 94.6949 1.972zM 94.6949 0L 93.1949 0L 93.1949 1.29701L 94.6949 1.29701L 94.6949 0z"/>
<path style="stroke:none; fill-rule:evenodd; fill:#000000" d="M 98.5899 2.101L 97.7969 2.101L 97.7969 0.55101L 96.2969 0.55101L 96.2969 2.101L 95.5469 2.101L 95.5469 3.101L 96.2969 3.101L 96.2969 6.57001C 96.2969 7.457 96.7699 7.89401 97.7349 7.89401C 98.0589 7.89401 98.3199 7.867 98.5859 7.785L 98.5859 6.785C 98.4449 6.793 98.3629 6.79701 98.2619 6.79701C 97.8869 6.79701 97.7969 6.683 97.7969 6.179L 97.7969 3.101L 98.5899 3.101L 98.5899 2.101z"/>
<path style="stroke:none; fill-rule:evenodd; fill:#000000" d="M 101.195 1.972L 99.6949 1.972L 99.6949 7.69901L 101.195 7.69901L 101.195 1.972zM 101.195 0L 99.6949 0L 99.6949 1.29701L 101.195 1.29701L 101.195 0z"/>
<path style="stroke:none; fill-rule:evenodd; fill:#000000" d="M 105.609 7.69901L 107.582 2L 106.016 2L 104.863 6.16L 103.625 2L 102.059 2L 104.063 7.69901L 105.609 7.69901z"/>
<path style="stroke:none; fill-rule:evenodd; fill:#000000" d="M 109.996 1.972L 108.496 1.972L 108.496 7.69901L 109.996 7.69901L 109.996 1.972zM 109.996 0L 108.496 0L 108.496 1.29701L 109.996 1.29701L 109.996 0z"/>
<path style="stroke:none; fill-rule:evenodd; fill:#000000" d="M 113.988 2.101L 113.195 2.101L 113.195 0.55101L 111.695 0.55101L 111.695 2.101L 110.945 2.101L 110.945 3.101L 111.695 3.101L 111.695 6.57001C 111.695 7.457 112.168 7.89401 113.133 7.89401C 113.457 7.89401 113.719 7.867 113.985 7.785L 113.985 6.785C 113.844 6.793 113.762 6.79701 113.66 6.79701C 113.285 6.79701 113.195 6.683 113.195 6.179L 113.195 3.101L 113.988 3.101L 113.988 2.101z"/>
<path style="stroke:none; fill-rule:evenodd; fill:#000000" d="M 118.477 2L 117.289 6.13701L 116.027 2L 114.395 2L 116.527 7.91L 116.527 7.94901C 116.527 8.48401 116.125 8.89401 115.606 8.89401C 115.492 8.89401 115.406 8.89 115.215 8.86301L 115.215 9.953C 115.438 9.98001 115.563 9.992 115.742 9.992C 116.109 9.992 116.559 9.92201 116.813 9.81601C 117.223 9.64801 117.406 9.40601 117.649 8.73001L 120 1.996L 118.477 2z"/>
<path style="stroke:none; fill-rule:evenodd; fill:#000000" d="M 127.195 1.30101L 129.438 1.30101L 129.438 0.0039978L 123.242 0.0039978L 123.242 1.30101L 125.594 1.30101L 125.594 7.69901L 127.192 7.69901L 127.195 1.30101z"/>
<path style="stroke:none; fill-rule:evenodd; fill:#000000" d="M 135.152 5.30101C 135.16 5.17601 135.16 5.125 135.16 5.05101C 135.16 4.48401 135.078 3.957 134.938 3.558C 134.559 2.52701 133.633 1.90601 132.477 1.90601C 130.832 1.90601 129.828 3.082 129.828 4.98001C 129.828 6.793 130.824 7.90601 132.445 7.90601C 133.727 7.90601 134.766 7.19101 135.098 6.09401L 133.637 6.09401C 133.457 6.543 133.043 6.804 132.504 6.804C 132.082 6.804 131.742 6.625 131.531 6.31201C 131.395 6.101 131.344 5.847 131.32 5.308L 135.152 5.30101zM 131.336 4.30101C 131.43 3.43701 131.801 3.004 132.461 3.004C 132.828 3.004 133.172 3.183 133.383 3.476C 133.52 3.68701 133.582 3.90601 133.613 4.29701L 131.336 4.30101z"/>
<path style="stroke:none; fill-rule:evenodd; fill:#000000" d="M 140.852 3.81601C 140.832 2.625 139.899 1.90201 138.356 1.90201C 136.902 1.90201 136 2.617 136 3.76901C 136 4.14 136.113 4.46501 136.313 4.679C 136.512 4.875 136.692 4.96901 137.238 5.14401L 138.996 5.683C 139.363 5.79701 139.488 5.91 139.488 6.13701C 139.488 6.476 139.078 6.68701 138.395 6.68701C 138.016 6.68701 137.711 6.621 137.524 6.50801C 137.367 6.40601 137.305 6.30101 137.242 6.02301L 135.805 6.02301C 135.844 7.246 136.766 7.88701 138.5 7.88701C 139.293 7.88701 139.895 7.722 140.317 7.39C 140.738 7.06201 140.992 6.539 140.992 5.98801C 140.992 5.261 140.625 4.79701 139.875 4.578L 138.012 4.05101C 137.602 3.92601 137.496 3.84401 137.496 3.617C 137.496 3.308 137.832 3.097 138.352 3.097C 139.059 3.097 139.41 3.332 139.418 3.81201L 140.852 3.81601z"/>
<path style="stroke:none; fill-rule:evenodd; fill:#000000" d="M 144.59 2.101L 143.797 2.101L 143.797 0.55101L 142.297 0.55101L 142.297 2.101L 141.547 2.101L 141.547 3.101L 142.297 3.101L 142.297 6.57001C 142.297 7.457 142.77 7.89401 143.735 7.89401C 144.059 7.89401 144.32 7.867 144.586 7.785L 144.586 6.785C 144.445 6.793 144.363 6.79701 144.262 6.79701C 143.887 6.79701 143.797 6.683 143.797 6.179L 143.797 3.101L 144.59 3.101L 144.59 2.101z"/>
<path style="stroke:none; fill-rule:evenodd; fill:#000000" d="M 148.797 7.69901L 152.277 7.69901C 153.168 7.69901 153.762 7.53101 154.227 7.14C 154.692 6.75 154.988 6.097 154.988 5.48401C 154.988 4.726 154.567 4.125 153.672 3.617C 154.402 3.13301 154.688 2.69101 154.688 2.035C 154.688 1.50801 154.426 0.949005 153.996 0.570007C 153.547 0.179001 153.012 0.0110016 152.195 0.0110016L 148.793 0.0110016L 148.797 7.69901zM 150.395 1.30101L 152.09 1.30101C 152.805 1.30101 153.192 1.61301 153.192 2.203C 153.192 2.77701 152.809 3.09401 152.09 3.09401L 150.395 3.09401L 150.395 1.30101zM 150.395 4.40201L 152.305 4.40201C 153.082 4.40201 153.488 4.75 153.488 5.40601C 153.488 6.05101 153.082 6.39801 152.305 6.39801L 150.395 6.39801L 150.395 4.40201z"/>
<path style="stroke:none; fill-rule:evenodd; fill:#000000" d="M 162.207 7.69901L 164.18 2L 162.613 2L 161.461 6.16L 160.223 2L 158.656 2L 160.66 7.69901L 162.207 7.69901z"/>
<path style="stroke:none; fill-rule:evenodd; fill:#000000" d="M 169.754 3.81601C 169.735 2.625 168.801 1.90201 167.258 1.90201C 165.805 1.90201 164.902 2.617 164.902 3.76901C 164.902 4.14 165.016 4.46501 165.215 4.679C 165.414 4.875 165.594 4.96901 166.141 5.14401L 167.899 5.683C 168.266 5.79701 168.391 5.91 168.391 6.13701C 168.391 6.476 167.981 6.68701 167.297 6.68701C 166.918 6.68701 166.613 6.621 166.426 6.50801C 166.27 6.40601 166.207 6.30101 166.145 6.02301L 164.707 6.02301C 164.746 7.246 165.668 7.88701 167.402 7.88701C 168.195 7.88701 168.797 7.722 169.219 7.39C 169.641 7.06201 169.895 6.539 169.895 5.98801C 169.895 5.261 169.527 4.79701 168.777 4.578L 166.914 4.05101C 166.504 3.92601 166.399 3.84401 166.399 3.617C 166.399 3.308 166.735 3.097 167.254 3.097C 167.961 3.097 168.313 3.332 168.32 3.81201L 169.754 3.81601z"/>
<path style="stroke:none; fill-rule:evenodd; fill:#000000" d="M 170.996 7.69901L 172.594 7.69901L 172.594 6.19901L 170.996 6.19901L 170.996 7.69901z"/>
<path style="stroke:none; fill-rule:evenodd; fill:#000000" d="M 176.996 7.69901L 180.016 7.69901C 181.192 7.69901 181.934 7.42601 182.449 6.804C 183.063 6.09001 183.391 5.043 183.391 3.851C 183.391 2.67201 183.063 1.625 182.449 0.89801C 181.934 0.277008 181.199 0.0110016 180.016 0.0110016L 176.996 0.0110016L 176.996 7.69901zM 178.594 6.40201L 178.594 1.304L 180.012 1.304C 181.199 1.304 181.789 2.14401 181.789 3.85901C 181.789 5.56201 181.203 6.40201 180.012 6.40201L 178.594 6.40201z"/>
<path style="stroke:none; fill-rule:evenodd; fill:#000000" d="M 186.695 6.19901L 185.098 6.19901L 185.098 7.69901L 186.695 7.69901L 186.695 6.19901zM 186.695 2.19901L 185.098 2.19901L 185.098 3.69901L 186.695 3.69901L 186.695 2.19901z"/>
<path style="stroke:none; fill-rule:evenodd; fill:#000000" d="M 192.695 4.601L 194.559 4.601C 195.262 4.601 195.567 4.879 195.567 5.535C 195.567 5.597 195.567 5.703 195.559 5.84401C 195.551 6.04701 195.551 6.23801 195.551 6.35501C 195.551 7.082 195.594 7.32001 195.801 7.69501L 197.481 7.69501L 197.481 7.414C 197.262 7.27701 197.168 7.121 197.168 6.78101C 197.125 4.511 197.086 4.40601 196.098 3.98401C 196.965 3.64801 197.402 3.02301 197.402 2.086C 197.402 1.476 197.188 0.914001 196.813 0.535004C 196.461 0.179001 195.965 0.00801086 195.301 0.00801086L 191.106 0.00801086L 191.106 7.707L 192.703 7.707L 192.695 4.601zM 192.695 3.30101L 192.695 1.30101L 194.649 1.30101C 195.109 1.30101 195.305 1.34001 195.5 1.5C 195.692 1.65601 195.789 1.918 195.789 2.27701C 195.789 2.64401 195.684 2.93701 195.5 3.097C 195.328 3.242 195.113 3.29701 194.649 3.29701L 192.695 3.30101z"/>
<path style="stroke:none; fill-rule:evenodd; fill:#000000" d="M 203.555 7.48001C 203.277 7.242 203.199 7.086 203.199 6.789L 203.199 3.64401C 203.199 2.492 202.41 1.90201 200.867 1.90201C 199.324 1.90201 198.524 2.55101 198.43 3.85901L 199.832 3.85901C 199.902 3.285 200.141 3.101 200.859 3.101C 201.418 3.101 201.699 3.289 201.699 3.664C 201.699 3.851 201.606 4.015 201.449 4.101C 201.254 4.203 201.254 4.203 200.535 4.32001L 199.957 4.42201C 198.848 4.60901 198.305 5.183 198.305 6.19901C 198.305 6.679 198.438 7.078 198.695 7.35901C 199.016 7.69101 199.504 7.89 200 7.89C 200.621 7.89 201.192 7.621 201.699 7.086C 201.699 7.379 201.731 7.48401 201.875 7.64801L 203.555 7.64801L 203.555 7.48001zM 201.695 5.38701C 201.695 6.222 201.289 6.69901 200.57 6.69901C 200.094 6.69901 199.801 6.44101 199.801 6.02701C 199.801 5.59401 200.024 5.38701 200.613 5.265L 201.098 5.17601C 201.473 5.10501 201.531 5.086 201.695 5L 201.695 5.38701z"/>
<path style="stroke:none; fill-rule:evenodd; fill:#000000" d="M 207.09 2.101L 206.297 2.101L 206.297 0.55101L 204.797 0.55101L 204.797 2.101L 204.047 2.101L 204.047 3.101L 204.797 3.101L 204.797 6.57001C 204.797 7.457 205.27 7.89401 206.235 7.89401C 206.559 7.89401 206.82 7.867 207.086 7.785L 207.086 6.785C 206.945 6.793 206.863 6.79701 206.762 6.79701C 206.387 6.79701 206.297 6.683 206.297 6.179L 206.297 3.101L 207.09 3.101L 207.09 2.101z"/>
<path style="stroke:none; fill-rule:evenodd; fill:#ffffff" d="M 67.1172 157.504L 107.985 157.504L 107.985 45.906L 67.1172 45.906L 67.1172 157.504z"/>
<path style="stroke:#ffffff; stroke-width:0.0; fill:none" d="M 67.1172 157.504L 107.985 157.504L 107.985 45.906L 67.1172 45.906L 67.1172 157.504z"/>
<path style="stroke:#ffffff; stroke-width:1.59941; fill:none" d="M 67.1172 157.504L 107.985 157.504L 107.985 45.906L 67.1172 45.906L 67.1172 157.504z"/>
<path style="stroke:none; fill-rule:evenodd; fill:#ffffff" d="M 163.395 157.504L 204.262 157.504L 204.262 91.097L 163.395 91.097L 163.395 157.504z"/>
<path style="stroke:#ffffff; stroke-width:0.0; fill:none" d="M 163.395 157.504L 204.262 157.504L 204.262 91.097L 163.395 91.097L 163.395 157.504z"/>
<path style="stroke:#ffffff; stroke-width:1.59941; fill:none" d="M 163.395 157.504L 204.262 157.504L 204.262 91.097L 163.395 91.097L 163.395 157.504z"/>
<path style="stroke:#000000; stroke-width:1.59941; fill:none" d="M 67.1172 157.504L 107.985 157.504L 107.985 45.906L 67.1172 45.906L 67.1172 157.504z"/>
<path style="stroke:#000000; stroke-width:1.59941; fill:none" d="M 163.395 157.504L 204.262 157.504L 204.262 91.097L 163.395 91.097L 163.395 157.504z"/>
<path style="stroke:#000000; stroke-width:1.59941; fill:none" d="M 87.5508 52.976L 87.5508 38.832"/>
<path style="stroke:#000000; stroke-width:1.59941; fill:none" d="M 183.824 98.1638L 183.824 84.019"/>
<path style="stroke:#000000; stroke-width:1.59941; fill:none" d="M 83.2305 52.976L 92.2659 52.976"/>
<path style="stroke:#000000; stroke-width:1.59941; fill:none" d="M 83.2305 38.832L 92.2659 38.832"/>
<path style="stroke:#000000; stroke-width:1.59941; fill:none" d="M 179.109 98.1638L 188.145 98.1638"/>
<path style="stroke:#000000; stroke-width:1.59941; fill:none" d="M 179.109 84.019L 188.145 84.019"/>
<path style="stroke:#000000; stroke-width:1.59941; fill:none" d="M 39.6133 157.504L 231.766 157.504L 231.766 18.008L 39.6133 18.008L 39.6133 157.504z"/>
<path style="stroke:#000000; stroke-dasharray:6,3; stroke-width:1.59941; fill:none" d="M 40.0039 87.949L 230.192 87.949"/>
<path style="stroke:#000000; stroke-width:1.59941; fill:none" d="M 326.031 157.652L 326.031 156.488"/>
<path style="stroke:#000000; stroke-width:1.59941; fill:none" d="M 420.852 157.652L 420.852 156.488"/>
<path style="stroke:#000000; stroke-width:1.59941; fill:none" d="M 326.031 19.695L 326.031 20.859"/>
<path style="stroke:#000000; stroke-width:1.59941; fill:none" d="M 420.852 19.695L 420.852 20.859"/>
<path style="stroke:#000000; stroke-width:1.59941; fill:none" d="M 326.031 157.652L 326.031 155.324"/>
<path style="stroke:#000000; stroke-width:1.59941; fill:none" d="M 420.852 157.652L 420.852 155.324"/>
<path style="stroke:#000000; stroke-width:1.59941; fill:none" d="M 326.031 19.695L 326.031 22.023"/>
<path style="stroke:#000000; stroke-width:1.59941; fill:none" d="M 420.852 19.695L 420.852 22.023"/>
<path style="stroke:none; fill-rule:evenodd; fill:#000000" d="M 312.594 168L 314.192 168L 314.192 160.402L 312.594 160.402L 312.594 168z"/>
<path style="stroke:none; fill-rule:evenodd; fill:#000000" d="M 315.594 162.301L 315.594 168L 317.094 168L 317.094 164.535C 317.094 163.851 317.559 163.402 318.262 163.402C 318.879 163.402 319.192 163.754 319.192 164.437L 319.192 167.996L 320.692 167.996L 320.692 164.176C 320.692 162.922 320 162.203 318.793 162.203C 318.027 162.203 317.516 162.496 317.094 163.152L 317.094 162.301L 315.594 162.301z"/>
<path style="stroke:none; fill-rule:evenodd; fill:#000000" d="M 324.555 162.402L 323.797 162.402L 323.797 160.933L 322.297 160.933L 322.297 162.402L 321.547 162.402L 321.547 163.402L 322.297 163.402L 322.297 166.871C 322.297 167.758 322.762 168.195 323.715 168.195C 324.035 168.195 324.293 168.168 324.551 168.086L 324.551 167.097C 324.418 167.097 324.34 167.097 324.242 167.097C 323.883 167.097 323.797 166.984 323.797 166.48L 323.797 163.402L 324.555 163.402L 324.555 162.402z"/>
<path style="stroke:none; fill-rule:evenodd; fill:#000000" d="M 330.395 167.781C 330.086 167.543 330 167.387 330 167.09L 330 163.945C 330 162.793 329.227 162.207 327.715 162.207C 326.203 162.207 325.418 162.867 325.324 164.207L 326.727 164.207C 326.797 163.601 327.039 163.406 327.754 163.406C 328.317 163.406 328.598 163.594 328.598 163.969C 328.598 164.156 328.504 164.32 328.348 164.406C 328.152 164.508 328.152 164.508 327.434 164.625L 326.856 164.726C 325.746 164.914 325.203 165.488 325.203 166.5C 325.203 166.98 325.336 167.379 325.594 167.66C 325.914 167.992 326.402 168.191 326.899 168.191C 327.52 168.191 328.09 167.922 328.598 167.387C 328.598 167.68 328.629 167.781 328.766 167.949L 330.391 167.949L 330.395 167.781zM 328.594 165.711C 328.594 166.531 328.188 166.996 327.469 166.996C 326.992 166.996 326.699 166.742 326.699 166.34C 326.699 165.914 326.922 165.711 327.512 165.59L 327.996 165.5C 328.371 165.43 328.43 165.41 328.594 165.328L 328.594 165.711z"/>
<path style="stroke:none; fill-rule:evenodd; fill:#000000" d="M 336.172 164.457C 336.067 163.051 335.133 162.207 333.703 162.207C 331.996 162.207 331 163.316 331 165.246C 331 167.109 331.985 168.199 333.684 168.199C 335.07 168.199 336.035 167.367 336.176 166.039L 334.762 166.039C 334.574 166.73 334.277 167 333.707 167C 332.957 167 332.504 166.336 332.504 165.242C 332.504 164.715 332.609 164.215 332.785 163.883C 332.953 163.574 333.281 163.406 333.703 163.406C 334.305 163.406 334.59 163.695 334.758 164.457L 336.172 164.457z"/>
<path style="stroke:none; fill-rule:evenodd; fill:#000000" d="M 339.652 162.402L 338.895 162.402L 338.895 160.933L 337.395 160.933L 337.395 162.402L 336.645 162.402L 336.645 163.402L 337.395 163.402L 337.395 166.871C 337.395 167.758 337.859 168.195 338.813 168.195C 339.133 168.195 339.391 168.168 339.649 168.086L 339.649 167.097C 339.516 167.097 339.438 167.097 339.34 167.097C 338.981 167.097 338.895 166.984 338.895 166.48L 338.895 163.402L 339.652 163.402L 339.652 162.402z"/>
<path style="stroke:none; fill-rule:evenodd; fill:#000000" d="M 419.195 164.5L 419.195 168L 420.793 168L 420.793 160.402L 419.195 160.402L 419.195 163.199L 416.195 163.199L 416.195 160.402L 414.598 160.402L 414.598 168L 416.195 168L 416.195 164.5L 419.195 164.5z"/>
<path style="stroke:none; fill-rule:evenodd; fill:#000000" d="M 423.797 160.402L 422.199 160.402L 422.199 168L 427.473 168L 427.473 166.703L 423.801 166.703L 423.797 160.402z"/>
<path style="stroke:#000000; stroke-width:1.59941; fill:none" d="M 278.621 157.652L 279.785 157.652"/>
<path style="stroke:#000000; stroke-width:1.59941; fill:none" d="M 278.621 150.66L 279.785 150.66"/>
<path style="stroke:#000000; stroke-width:1.59941; fill:none" d="M 278.621 143.664L 279.785 143.664"/>
<path style="stroke:#000000; stroke-width:1.59941; fill:none" d="M 278.621 136.668L 279.785 136.668"/>
<path style="stroke:#000000; stroke-width:1.59941; fill:none" d="M 278.621 129.676L 279.785 129.676"/>
<path style="stroke:#000000; stroke-width:1.59941; fill:none" d="M 278.621 123.066L 279.785 123.066"/>
<path style="stroke:#000000; stroke-width:1.59941; fill:none" d="M 278.621 116.07L 279.785 116.07"/>
<path style="stroke:#000000; stroke-width:1.59941; fill:none" d="M 278.621 109.078L 279.785 109.078"/>
<path style="stroke:#000000; stroke-width:1.59941; fill:none" d="M 278.621 102.472L 279.785 102.472"/>
<path style="stroke:#000000; stroke-width:1.59941; fill:none" d="M 278.621 95.476L 279.785 95.476"/>
<path style="stroke:#000000; stroke-width:1.59941; fill:none" d="M 278.621 88.48L 279.785 88.48"/>
<path style="stroke:#000000; stroke-width:1.59941; fill:none" d="M 278.621 81.484L 279.785 81.484"/>
<path style="stroke:#000000; stroke-width:1.59941; fill:none" d="M 278.621 74.879L 279.785 74.879"/>
<path style="stroke:#000000; stroke-width:1.59941; fill:none" d="M 278.621 67.883L 279.785 67.883"/>
<path style="stroke:#000000; stroke-width:1.59941; fill:none" d="M 278.621 60.89L 279.785 60.89"/>
<path style="stroke:#000000; stroke-width:1.59941; fill:none" d="M 278.621 54.281L 279.785 54.281"/>
<path style="stroke:#000000; stroke-width:1.59941; fill:none" d="M 278.621 47.289L 279.785 47.289"/>
<path style="stroke:#000000; stroke-width:1.59941; fill:none" d="M 278.621 40.293L 279.785 40.293"/>
<path style="stroke:#000000; stroke-width:1.59941; fill:none" d="M 278.621 33.687L 279.785 33.687"/>
<path style="stroke:#000000; stroke-width:1.59941; fill:none" d="M 278.621 26.691L 279.785 26.691"/>
<path style="stroke:#000000; stroke-width:1.59941; fill:none" d="M 278.621 19.695L 279.785 19.695"/>
<path style="stroke:#000000; stroke-width:1.59941; fill:none" d="M 468.262 157.652L 467.098 157.652"/>
<path style="stroke:#000000; stroke-width:1.59941; fill:none" d="M 468.262 150.66L 467.098 150.66"/>
<path style="stroke:#000000; stroke-width:1.59941; fill:none" d="M 468.262 143.664L 467.098 143.664"/>
<path style="stroke:#000000; stroke-width:1.59941; fill:none" d="M 468.262 136.668L 467.098 136.668"/>
<path style="stroke:#000000; stroke-width:1.59941; fill:none" d="M 468.262 129.676L 467.098 129.676"/>
<path style="stroke:#000000; stroke-width:1.59941; fill:none" d="M 468.262 123.066L 467.098 123.066"/>
<path style="stroke:#000000; stroke-width:1.59941; fill:none" d="M 468.262 116.07L 467.098 116.07"/>
<path style="stroke:#000000; stroke-width:1.59941; fill:none" d="M 468.262 109.078L 467.098 109.078"/>
<path style="stroke:#000000; stroke-width:1.59941; fill:none" d="M 468.262 102.472L 467.098 102.472"/>
<path style="stroke:#000000; stroke-width:1.59941; fill:none" d="M 468.262 95.476L 467.098 95.476"/>
<path style="stroke:#000000; stroke-width:1.59941; fill:none" d="M 468.262 88.48L 467.098 88.48"/>
<path style="stroke:#000000; stroke-width:1.59941; fill:none" d="M 468.262 81.484L 467.098 81.484"/>
<path style="stroke:#000000; stroke-width:1.59941; fill:none" d="M 468.262 74.879L 467.098 74.879"/>
<path style="stroke:#000000; stroke-width:1.59941; fill:none" d="M 468.262 67.883L 467.098 67.883"/>
<path style="stroke:#000000; stroke-width:1.59941; fill:none" d="M 468.262 60.89L 467.098 60.89"/>
<path style="stroke:#000000; stroke-width:1.59941; fill:none" d="M 468.262 54.281L 467.098 54.281"/>
<path style="stroke:#000000; stroke-width:1.59941; fill:none" d="M 468.262 47.289L 467.098 47.289"/>
<path style="stroke:#000000; stroke-width:1.59941; fill:none" d="M 468.262 40.293L 467.098 40.293"/>
<path style="stroke:#000000; stroke-width:1.59941; fill:none" d="M 468.262 33.687L 467.098 33.687"/>
<path style="stroke:#000000; stroke-width:1.59941; fill:none" d="M 468.262 26.691L 467.098 26.691"/>
<path style="stroke:#000000; stroke-width:1.59941; fill:none" d="M 468.262 19.695L 467.098 19.695"/>
<path style="stroke:#000000; stroke-width:1.59941; fill:none" d="M 278.621 157.652L 280.949 157.652"/>
<path style="stroke:#000000; stroke-width:1.59941; fill:none" d="M 278.621 129.676L 280.949 129.676"/>
<path style="stroke:#000000; stroke-width:1.59941; fill:none" d="M 278.621 102.472L 280.949 102.472"/>
<path style="stroke:#000000; stroke-width:1.59941; fill:none" d="M 278.621 74.879L 280.949 74.879"/>
<path style="stroke:#000000; stroke-width:1.59941; fill:none" d="M 278.621 47.289L 280.949 47.289"/>
<path style="stroke:#000000; stroke-width:1.59941; fill:none" d="M 278.621 19.695L 280.949 19.695"/>
<path style="stroke:#000000; stroke-width:1.59941; fill:none" d="M 468.262 157.652L 465.934 157.652"/>
<path style="stroke:#000000; stroke-width:1.59941; fill:none" d="M 468.262 129.676L 465.934 129.676"/>
<path style="stroke:#000000; stroke-width:1.59941; fill:none" d="M 468.262 102.472L 465.934 102.472"/>
<path style="stroke:#000000; stroke-width:1.59941; fill:none" d="M 468.262 74.879L 465.934 74.879"/>
<path style="stroke:#000000; stroke-width:1.59941; fill:none" d="M 468.262 47.289L 465.934 47.289"/>
<path style="stroke:#000000; stroke-width:1.59941; fill:none" d="M 468.262 19.695L 465.934 19.695"/>
<path style="stroke:none; fill-rule:evenodd; fill:#000000" d="M 260.195 152.301C 259.516 152.301 258.895 152.597 258.512 153.097C 258.039 153.742 257.801 154.73 257.801 156.09C 257.801 158.57 258.625 159.894 260.199 159.894C 261.75 159.894 262.598 158.578 262.598 156.156C 262.598 154.722 262.371 153.765 261.887 153.101C 261.504 152.59 260.895 152.305 260.203 152.305L 260.195 152.301zM 260.195 153.101C 261.195 153.101 261.695 154.09 261.695 156.055C 261.695 158.129 261.211 159.097 260.176 159.097C 259.195 159.097 258.699 158.086 258.699 156.086C 258.699 154.086 259.192 153.101 260.199 153.101L 260.195 153.101z"/>
<path style="stroke:none; fill-rule:evenodd; fill:#000000" d="M 263.996 159.699L 265.094 159.699L 265.094 158.601L 263.996 158.601L 263.996 159.699z"/>
<path style="stroke:none; fill-rule:evenodd; fill:#000000" d="M 268.895 152.301C 268.215 152.301 267.594 152.597 267.211 153.097C 266.738 153.742 266.5 154.73 266.5 156.09C 266.5 158.57 267.324 159.894 268.899 159.894C 270.449 159.894 271.297 158.578 271.297 156.156C 271.297 154.722 271.07 153.765 270.586 153.101C 270.203 152.59 269.594 152.305 268.902 152.305L 268.895 152.301zM 268.895 153.101C 269.895 153.101 270.395 154.09 270.395 156.055C 270.395 158.129 269.91 159.097 268.875 159.097C 267.895 159.097 267.399 158.086 267.399 156.086C 267.399 154.086 267.891 153.101 268.899 153.101L 268.895 153.101z"/>
<path style="stroke:none; fill-rule:evenodd; fill:#000000" d="M 260.195 124.699C 259.516 124.699 258.895 124.996 258.512 125.496C 258.039 126.14 257.801 127.129 257.801 128.488C 257.801 130.969 258.625 132.293 260.199 132.293C 261.75 132.293 262.598 130.976 262.598 128.555C 262.598 127.121 262.371 126.164 261.887 125.5C 261.504 124.988 260.895 124.703 260.203 124.703L 260.195 124.699zM 260.195 125.5C 261.195 125.5 261.695 126.488 261.695 128.453C 261.695 130.527 261.211 131.496 260.176 131.496C 259.195 131.496 258.699 130.484 258.699 128.484C 258.699 126.484 259.192 125.5 260.199 125.5L 260.195 125.5z"/>
<path style="stroke:none; fill-rule:evenodd; fill:#000000" d="M 263.996 132.101L 265.094 132.101L 265.094 131.004L 263.996 131.004L 263.996 132.101z"/>
<path style="stroke:none; fill-rule:evenodd; fill:#000000" d="M 271.242 131.199L 267.379 131.199C 267.469 130.594 267.801 130.207 268.703 129.676L 269.738 129.113C 270.762 128.551 271.293 127.789 271.293 126.879C 271.293 126.265 271.047 125.691 270.609 125.293C 270.176 124.898 269.637 124.707 268.942 124.707C 268.012 124.707 267.317 125.035 266.914 125.656C 266.656 126.047 266.543 126.5 266.524 127.246L 267.442 127.246C 267.473 126.754 267.535 126.453 267.66 126.219C 267.899 125.777 268.379 125.508 268.934 125.508C 269.77 125.508 270.395 126.101 270.395 126.894C 270.395 127.476 270.051 127.98 269.391 128.355L 268.43 128.898C 266.887 129.773 266.438 130.472 266.352 132.101L 271.242 132.101L 271.242 131.199z"/>
<path style="stroke:none; fill-rule:evenodd; fill:#000000" d="M 260.195 97.1013C 259.516 97.1013 258.895 97.3982 258.512 97.8982C 258.039 98.5428 257.801 99.531 257.801 100.89C 257.801 103.371 258.625 104.695 260.199 104.695C 261.75 104.695 262.598 103.379 262.598 100.957C 262.598 99.5232 262.371 98.5662 261.887 97.9021C 261.504 97.3904 260.895 97.1052 260.203 97.1052L 260.195 97.1013zM 260.195 97.9021C 261.195 97.9021 261.695 98.8904 261.695 100.855C 261.695 102.93 261.211 103.898 260.176 103.898C 259.195 103.898 258.699 102.887 258.699 100.887C 258.699 98.8865 259.192 97.9021 260.199 97.9021L 260.195 97.9021z"/>
<path style="stroke:none; fill-rule:evenodd; fill:#000000" d="M 263.996 104.5L 265.094 104.5L 265.094 103.402L 263.996 103.402L 263.996 104.5z"/>
<path style="stroke:none; fill-rule:evenodd; fill:#000000" d="M 269.395 102.699L 269.395 104.496L 270.293 104.496L 270.293 102.699L 271.445 102.699L 271.445 101.902L 270.293 101.902L 270.293 97.1052L 269.621 97.1052L 266.289 101.738L 266.289 102.703L 269.395 102.699zM 269.395 101.902L 267.098 101.902L 269.395 98.6404L 269.395 101.902z"/>
<path style="stroke:none; fill-rule:evenodd; fill:#000000" d="M 260.195 69.5C 259.516 69.5 258.895 69.797 258.512 70.297C 258.039 70.941 257.801 71.929 257.801 73.289C 257.801 75.769 258.625 77.094 260.199 77.094C 261.75 77.094 262.598 75.777 262.598 73.355C 262.598 71.922 262.371 70.965 261.887 70.301C 261.504 69.789 260.895 69.504 260.203 69.504L 260.195 69.5zM 260.195 70.301C 261.195 70.301 261.695 71.289 261.695 73.254C 261.695 75.328 261.211 76.297 260.176 76.297C 259.195 76.297 258.699 75.285 258.699 73.285C 258.699 71.285 259.192 70.301 260.199 70.301L 260.195 70.301z"/>
<path style="stroke:none; fill-rule:evenodd; fill:#000000" d="M 263.996 76.902L 265.094 76.902L 265.094 75.804L 263.996 75.804L 263.996 76.902z"/>
<path style="stroke:none; fill-rule:evenodd; fill:#000000" d="M 271.219 71.402C 271.043 70.215 270.254 69.504 269.133 69.504C 268.324 69.504 267.598 69.898 267.16 70.551C 266.707 71.265 266.496 72.168 266.496 73.508C 266.496 74.742 266.684 75.531 267.121 76.183C 267.516 76.773 268.164 77.094 268.973 77.094C 270.379 77.094 271.391 76.062 271.391 74.625C 271.391 73.261 270.445 72.301 269.109 72.301C 268.375 72.301 267.797 72.57 267.395 73.097C 267.402 71.301 267.988 70.301 269.047 70.301C 269.695 70.301 270.145 70.699 270.293 71.398L 271.219 71.402zM 269.016 73.101C 269.922 73.101 270.492 73.711 270.492 74.699C 270.492 75.621 269.852 76.297 268.985 76.297C 268.109 76.297 267.445 75.594 267.445 74.648C 267.445 73.738 268.086 73.101 269.016 73.101z"/>
<path style="stroke:none; fill-rule:evenodd; fill:#000000" d="M 260.195 41.902C 259.516 41.902 258.895 42.199 258.512 42.699C 258.039 43.344 257.801 44.332 257.801 45.691C 257.801 48.172 258.625 49.496 260.199 49.496C 261.75 49.496 262.598 48.179 262.598 45.758C 262.598 44.324 262.371 43.367 261.887 42.703C 261.504 42.191 260.895 41.906 260.203 41.906L 260.195 41.902zM 260.195 42.699C 261.195 42.699 261.695 43.687 261.695 45.652C 261.695 47.726 261.211 48.695 260.176 48.695C 259.195 48.695 258.699 47.683 258.699 45.683C 258.699 43.683 259.192 42.699 260.199 42.699L 260.195 42.699z"/>
<path style="stroke:none; fill-rule:evenodd; fill:#000000" d="M 263.996 49.301L 265.094 49.301L 265.094 48.203L 263.996 48.203L 263.996 49.301z"/>
<path style="stroke:none; fill-rule:evenodd; fill:#000000" d="M 270.098 45.39C 270.848 44.937 271.094 44.562 271.094 43.867C 271.094 42.719 270.195 41.906 268.895 41.906C 267.606 41.906 266.695 42.715 266.695 43.867C 266.695 44.551 266.934 44.926 267.652 45.39C 266.813 45.793 266.395 46.406 266.395 47.215C 266.395 48.562 267.422 49.496 268.895 49.496C 270.363 49.496 271.395 48.562 271.395 47.226C 271.395 46.41 270.973 45.797 270.098 45.39zM 268.895 42.699C 269.688 42.699 270.192 43.152 270.192 43.863C 270.192 44.543 269.676 44.996 268.895 44.996C 268.113 44.996 267.598 44.543 267.598 43.851C 267.598 43.152 268.113 42.699 268.895 42.699zM 268.895 45.801C 269.844 45.801 270.492 46.379 270.492 47.242C 270.492 48.113 269.844 48.695 268.875 48.695C 267.945 48.695 267.301 48.105 267.301 47.242C 267.301 46.383 267.945 45.801 268.899 45.801L 268.895 45.801z"/>
<path style="stroke:none; fill-rule:evenodd; fill:#000000" d="M 259.996 16.531L 259.996 21.801L 260.895 21.801L 260.895 14.402L 260.297 14.402C 259.981 15.539 259.774 15.695 258.367 15.871L 258.367 16.527L 259.996 16.531z"/>
<path style="stroke:none; fill-rule:evenodd; fill:#000000" d="M 263.996 21.801L 265.094 21.801L 265.094 20.703L 263.996 20.703L 263.996 21.801z"/>
<path style="stroke:none; fill-rule:evenodd; fill:#000000" d="M 268.895 14.402C 268.215 14.402 267.594 14.699 267.211 15.199C 266.738 15.844 266.5 16.832 266.5 18.191C 266.5 20.672 267.324 21.996 268.899 21.996C 270.449 21.996 271.297 20.679 271.297 18.258C 271.297 16.824 271.07 15.867 270.586 15.203C 270.203 14.691 269.594 14.406 268.902 14.406L 268.895 14.402zM 268.895 15.199C 269.895 15.199 270.395 16.187 270.395 18.152C 270.395 20.226 269.91 21.195 268.875 21.195C 267.895 21.195 267.399 20.183 267.399 18.183C 267.399 16.183 267.891 15.199 268.899 15.199L 268.895 15.199z"/>
<path style="stroke:none; fill-rule:evenodd; fill:#ffffff" d="M 305.824 157.652L 326.031 157.652L 326.031 85.761L 305.824 85.761L 305.824 157.652z"/>
<path style="stroke:#ffffff; stroke-width:0.0; fill:none" d="M 305.824 157.652L 326.031 157.652L 326.031 85.761L 305.824 85.761L 305.824 157.652z"/>
<path style="stroke:#ffffff; stroke-width:1.59941; fill:none" d="M 305.824 157.652L 326.031 157.652L 326.031 85.761L 305.824 85.761L 305.824 157.652z"/>
<path style="stroke:none; fill-rule:evenodd; fill:#ffffff" d="M 400.645 157.652L 420.852 157.652L 420.852 118.793L 400.645 118.793L 400.645 157.652z"/>
<path style="stroke:#ffffff; stroke-width:0.0; fill:none" d="M 400.645 157.652L 420.852 157.652L 420.852 118.793L 400.645 118.793L 400.645 157.652z"/>
<path style="stroke:#ffffff; stroke-width:1.59941; fill:none" d="M 400.645 157.652L 420.852 157.652L 420.852 118.793L 400.645 118.793L 400.645 157.652z"/>
<path style="stroke:#000000; stroke-width:1.59941; fill:none" d="M 310.438 157.66L 342.254 157.66L 342.254 49.129L 310.438 49.129L 310.438 157.66z"/>
<path style="stroke:#000000; stroke-width:1.59941; fill:none" d="M 403.313 157.656L 434.281 157.656L 434.281 75.34L 403.313 75.34L 403.313 157.656z"/>
<path style="stroke:#000000; stroke-width:1.59941; fill:none" d="M 278.621 157.652L 468.262 157.652L 468.262 19.699L 278.621 19.699L 278.621 157.652z"/>
<path style="stroke:#000000; stroke-dasharray:6,3; stroke-width:1.59941; fill:none" d="M 279.008 88.871L 467.094 88.871"/>
<path style="stroke:none; fill-rule:evenodd; fill:#000000" d="M 366.727 81.383C 366.527 80.254 365.895 79.703 364.793 79.703C 364.121 79.703 363.574 79.922 363.203 80.344C 362.75 80.851 362.504 81.586 362.504 82.418C 362.504 83.265 362.758 83.992 363.231 84.492C 363.613 84.898 364.109 85.09 364.766 85.09C 365.992 85.09 366.68 84.406 366.832 83.031L 366.164 83.031C 366.109 83.406 366.039 83.664 365.938 83.883C 365.731 84.332 365.297 84.59 364.754 84.59C 363.746 84.59 363.106 83.742 363.106 82.406C 363.106 81.039 363.715 80.191 364.699 80.191C 365.109 80.191 365.492 80.328 365.703 80.539C 365.891 80.726 365.996 80.961 366.07 81.371L 366.727 81.383z"/>
<path style="stroke:none; fill-rule:evenodd; fill:#000000" d="M 367.594 79.801L 367.594 84.898L 368.192 84.898L 368.192 82.855C 368.192 82.097 368.57 81.601 369.156 81.601C 369.34 81.601 369.52 81.664 369.656 81.769C 369.817 81.887 369.887 82.066 369.887 82.328L 369.887 84.894L 370.485 84.894L 370.485 82.105C 370.485 81.488 370.051 81.097 369.348 81.097C 368.84 81.097 368.527 81.265 368.188 81.734L 368.188 79.797L 367.594 79.801z"/>
<path style="stroke:none; fill-rule:evenodd; fill:#000000" d="M 374.738 84.558C 374.676 84.601 374.649 84.601 374.613 84.601C 374.41 84.601 374.301 84.496 374.301 84.312L 374.301 82.125C 374.301 81.465 373.828 81.109 372.926 81.109C 372.399 81.109 371.957 81.265 371.711 81.543C 371.543 81.734 371.477 81.949 371.461 82.32L 372.039 82.32C 372.086 81.828 372.348 81.601 372.891 81.601C 373.41 81.601 373.699 81.801 373.699 82.164L 373.699 82.32C 373.699 82.57 373.555 82.679 373.098 82.738C 372.285 82.844 372.16 82.875 371.938 82.969C 371.516 83.148 371.305 83.488 371.305 83.976C 371.305 84.66 371.766 85.094 372.504 85.094C 372.965 85.094 373.332 84.922 373.746 84.519C 373.785 84.914 373.969 85.094 374.344 85.094C 374.461 85.094 374.551 85.082 374.738 85.027L 374.738 84.558zM 373.695 83.769C 373.695 83.969 373.641 84.094 373.469 84.258C 373.235 84.48 372.953 84.597 372.613 84.597C 372.164 84.597 371.902 84.375 371.902 83.992C 371.902 83.597 372.156 83.394 372.774 83.301C 373.379 83.215 373.504 83.187 373.699 83.094L 373.695 83.769z"/>
<path style="stroke:none; fill-rule:evenodd; fill:#000000" d="M 375.395 81.207L 375.395 84.898L 375.992 84.898L 375.992 82.855C 375.992 82.097 376.371 81.601 376.957 81.601C 377.402 81.601 377.688 81.883 377.688 82.328L 377.688 84.894L 378.285 84.894L 378.285 82.105C 378.285 81.496 377.828 81.097 377.113 81.097C 376.567 81.097 376.211 81.308 375.887 81.82L 375.887 81.203L 375.395 81.207z"/>
<path style="stroke:none; fill-rule:evenodd; fill:#000000" d="M 382.09 82.469C 382.063 82.078 381.985 81.828 381.848 81.605C 381.598 81.293 381.152 81.105 380.641 81.105C 379.652 81.105 379.004 81.902 379.004 83.14C 379.004 84.34 379.637 85.101 380.633 85.101C 381.512 85.101 382.067 84.566 382.137 83.644L 381.543 83.644C 381.445 84.281 381.141 84.601 380.641 84.601C 379.992 84.601 379.606 84.051 379.606 83.14C 379.606 82.179 379.985 81.605 380.629 81.605C 381.121 81.605 381.434 81.914 381.504 82.469L 382.09 82.469z"/>
<path style="stroke:none; fill-rule:evenodd; fill:#000000" d="M 385.895 83.301C 385.895 82.726 385.852 82.379 385.75 82.097C 385.516 81.48 384.957 81.105 384.274 81.105C 383.258 81.105 382.602 81.902 382.602 83.125C 382.602 84.347 383.235 85.101 384.254 85.101C 385.086 85.101 385.664 84.613 385.809 83.789L 385.227 83.789C 385.07 84.32 384.742 84.597 384.274 84.597C 383.906 84.597 383.594 84.426 383.399 84.109C 383.262 83.894 383.211 83.676 383.207 83.301L 385.895 83.301zM 383.195 82.789C 383.242 82.113 383.656 81.672 384.242 81.672C 384.813 81.672 385.254 82.144 385.254 82.746C 385.254 82.758 385.254 82.773 385.25 82.785L 383.195 82.789z"/>
<path style="stroke:none; fill-rule:evenodd; fill:#000000" d="M 245.094 127.199L 245.094 125.226C 245.094 123.812 244.106 122.902 242.559 122.902C 241.035 122.902 240.199 123.781 240.199 125.39L 240.199 128.797L 247.797 128.797L 247.797 127.199L 245.094 127.199zM 243.797 127.199L 241.5 127.199L 241.5 125.73C 241.5 124.89 241.867 124.504 242.652 124.504C 243.426 124.504 243.797 124.89 243.797 125.73L 243.797 127.199z"/>
<path style="stroke:none; fill-rule:evenodd; fill:#000000" d="M 242.094 122L 247.793 122L 247.793 120.5L 244.785 120.5C 243.926 120.5 243.496 120.062 243.496 119.187C 243.496 119.031 243.504 118.922 243.535 118.719L 241.996 118.719C 241.996 118.805 241.996 118.855 241.996 118.898C 241.996 119.578 242.449 120.176 243.238 120.496L 242.094 120.496L 242.094 122z"/>
<path style="stroke:none; fill-rule:evenodd; fill:#000000" d="M 241.996 115.312C 241.996 117.039 243.137 118.097 244.996 118.097C 246.859 118.097 247.992 117.039 247.992 115.301C 247.992 113.582 246.852 112.504 245.039 112.504C 243.121 112.504 242 113.539 242 115.312L 241.996 115.312zM 243.195 115.301C 243.195 114.515 243.91 114.004 245.016 114.004C 246.067 114.004 246.793 114.535 246.793 115.301C 246.793 116.078 246.067 116.597 244.996 116.597C 243.926 116.597 243.199 116.078 243.199 115.301L 243.195 115.301z"/>
<path style="stroke:none; fill-rule:evenodd; fill:#000000" d="M 242.09 110L 242.09 111.5L 250.094 111.5L 250.094 110L 247.125 110C 247.785 109.648 248.094 109.152 248.094 108.445C 248.094 107.097 246.797 106.101 245.051 106.101C 244.242 106.101 243.434 106.328 242.902 106.703C 242.359 107.074 242 107.769 242 108.441C 242 109.144 242.305 109.64 242.938 109.996L 242.09 110zM 243.195 108.801C 243.195 108.082 243.949 107.601 245.07 107.601C 246.137 107.601 246.891 108.097 246.891 108.801C 246.891 109.512 246.152 110 245.047 110C 243.945 110 243.192 109.515 243.192 108.801L 243.195 108.801z"/>
<path style="stroke:none; fill-rule:evenodd; fill:#000000" d="M 241.996 102.512C 241.996 104.238 243.137 105.297 244.996 105.297C 246.859 105.297 247.992 104.238 247.992 102.5C 247.992 100.781 246.852 99.7029 245.039 99.7029C 243.121 99.7029 242 100.738 242 102.512L 241.996 102.512zM 243.195 102.5C 243.195 101.715 243.91 101.203 245.016 101.203C 246.067 101.203 246.793 101.734 246.793 102.5C 246.793 103.277 246.067 103.797 244.996 103.797C 243.926 103.797 243.199 103.277 243.199 102.5L 243.195 102.5z"/>
<path style="stroke:none; fill-rule:evenodd; fill:#000000" d="M 242.094 98.699L 247.793 98.699L 247.793 97.199L 244.785 97.199C 243.926 97.199 243.496 96.7615 243.496 95.8865C 243.496 95.7302 243.504 95.621 243.535 95.418L 241.996 95.418C 241.996 95.504 241.996 95.554 241.996 95.597C 241.996 96.2771 242.449 96.8748 243.238 97.1951L 242.094 97.1951L 242.094 98.699z"/>
<path style="stroke:none; fill-rule:evenodd; fill:#000000" d="M 242.195 92.043L 242.195 92.801L 240.727 92.801L 240.727 94.301L 242.195 94.301L 242.195 95.051L 243.195 95.051L 243.195 94.301L 246.664 94.301C 247.551 94.301 247.988 93.836 247.988 92.883C 247.988 92.562 247.961 92.304 247.879 92.047L 246.891 92.047C 246.891 92.179 246.891 92.258 246.891 92.355C 246.891 92.715 246.777 92.801 246.274 92.801L 243.195 92.801L 243.195 92.043L 242.195 92.043z"/>
<path style="stroke:none; fill-rule:evenodd; fill:#000000" d="M 242.129 89.5L 242.129 91L 247.793 91L 247.793 89.5L 242.129 89.5zM 240.195 89.5L 240.195 91L 241.492 91L 241.492 89.5L 240.195 89.5z"/>
<path style="stroke:none; fill-rule:evenodd; fill:#000000" d="M 241.996 85.613C 241.996 87.34 243.137 88.398 244.996 88.398C 246.859 88.398 247.992 87.34 247.992 85.601C 247.992 83.883 246.852 82.804 245.039 82.804C 243.121 82.804 242 83.84 242 85.613L 241.996 85.613zM 243.195 85.601C 243.195 84.816 243.91 84.304 245.016 84.304C 246.067 84.304 246.793 84.836 246.793 85.601C 246.793 86.379 246.067 86.898 244.996 86.898C 243.926 86.898 243.199 86.379 243.199 85.601L 243.195 85.601z"/>
<path style="stroke:none; fill-rule:evenodd; fill:#000000" d="M 242.094 81.801L 247.793 81.801L 247.793 80.301L 244.328 80.301C 243.645 80.301 243.195 79.836 243.195 79.133C 243.195 78.515 243.547 78.203 244.231 78.203L 247.789 78.203L 247.789 76.703L 243.969 76.703C 242.715 76.703 241.996 77.394 241.996 78.601C 241.996 79.367 242.289 79.879 242.945 80.301L 242.094 80.301L 242.094 81.801z"/>
<path style="stroke:none; fill-rule:evenodd; fill:#000000" d="M 247.797 72.301L 247.797 68.82C 247.797 67.929 247.633 67.336 247.246 66.871C 246.863 66.406 246.215 66.109 245.609 66.109C 244.859 66.109 244.266 66.519 243.766 67.39C 243.289 66.613 242.852 66.312 242.203 66.312C 241.684 66.312 241.133 66.578 240.758 67.015C 240.375 67.472 240.207 68.015 240.207 68.847L 240.207 72.308L 247.797 72.301zM 241.496 70.699L 241.496 68.945C 241.496 68.203 241.793 67.804 242.348 67.804C 242.891 67.804 243.192 68.203 243.192 68.945L 243.192 70.699L 241.496 70.699zM 244.496 70.699L 244.496 68.789C 244.496 68.011 244.844 67.605 245.5 67.605C 246.145 67.605 246.492 68.008 246.492 68.789L 246.492 70.699L 244.496 70.699z"/>
<path style="stroke:none; fill-rule:evenodd; fill:#000000" d="M 244.797 60.199L 244.797 58.398C 244.797 57.719 245.067 57.426 245.699 57.426C 245.762 57.426 245.863 57.426 246 57.433C 246.195 57.441 246.383 57.441 246.496 57.441C 247.199 57.441 247.43 57.402 247.793 57.203L 247.793 55.5L 247.516 55.5C 247.383 55.738 247.227 55.832 246.891 55.832C 244.652 55.871 244.547 55.914 244.129 56.89C 243.797 56.031 243.184 55.601 242.254 55.601C 241.652 55.601 241.098 55.812 240.723 56.179C 240.371 56.527 240.203 57.011 240.203 57.668L 240.203 61.797L 247.801 61.797L 247.801 60.199L 244.797 60.199zM 243.496 60.199L 241.496 60.199L 241.496 58.308C 241.496 57.859 241.539 57.672 241.695 57.484C 241.852 57.297 242.113 57.203 242.473 57.203C 242.84 57.203 243.133 57.304 243.293 57.484C 243.438 57.648 243.492 57.859 243.492 58.308L 243.496 60.199z"/>
<path style="stroke:none; fill-rule:evenodd; fill:#000000" d="M 245.395 49.504C 245.27 49.496 245.219 49.496 245.145 49.496C 244.578 49.496 244.051 49.578 243.652 49.715C 242.625 50.09 242 51.004 242 52.148C 242 53.773 243.172 54.769 245.07 54.769C 246.883 54.769 247.996 53.785 247.996 52.179C 247.996 50.91 247.293 49.883 246.203 49.558L 246.203 51.004C 246.641 51.179 246.895 51.59 246.895 52.125C 246.895 52.543 246.715 52.879 246.402 53.09C 246.192 53.226 245.938 53.277 245.399 53.297L 245.395 49.504zM 244.395 53.281C 243.531 53.187 243.098 52.82 243.098 52.172C 243.098 51.804 243.277 51.472 243.57 51.261C 243.781 51.125 244 51.062 244.391 51.031L 244.395 53.281z"/>
<path style="stroke:none; fill-rule:evenodd; fill:#000000" d="M 243.953 43.902C 242.735 43.922 241.996 44.847 241.996 46.367C 241.996 47.804 242.711 48.695 243.863 48.695C 244.235 48.695 244.559 48.582 244.774 48.383C 244.969 48.183 245.063 48.004 245.238 47.457L 245.777 45.699C 245.891 45.332 246.004 45.207 246.231 45.207C 246.57 45.207 246.777 45.617 246.777 46.301C 246.777 46.679 246.715 46.984 246.602 47.172C 246.5 47.328 246.399 47.39 246.133 47.453L 246.133 48.894C 247.344 48.855 247.977 47.933 247.977 46.199C 247.977 45.406 247.813 44.804 247.481 44.383C 247.152 43.961 246.629 43.707 246.082 43.707C 245.356 43.707 244.891 44.074 244.672 44.824L 244.145 46.687C 244.02 47.097 243.938 47.203 243.711 47.203C 243.402 47.203 243.192 46.871 243.192 46.363C 243.192 45.668 243.442 45.324 243.949 45.312L 243.953 43.902z"/>
<path style="stroke:none; fill-rule:evenodd; fill:#000000" d="M 242.09 41.199L 242.09 42.699L 250.094 42.699L 250.094 41.199L 247.125 41.199C 247.785 40.847 248.094 40.351 248.094 39.644C 248.094 38.297 246.797 37.301 245.051 37.301C 244.242 37.301 243.434 37.527 242.902 37.902C 242.359 38.273 242 38.969 242 39.64C 242 40.344 242.305 40.84 242.938 41.195L 242.09 41.199zM 243.195 40C 243.195 39.281 243.949 38.801 245.07 38.801C 246.137 38.801 246.891 39.297 246.891 40C 246.891 40.711 246.152 41.199 245.047 41.199C 243.945 41.199 243.192 40.715 243.192 40L 243.195 40z"/>
<path style="stroke:none; fill-rule:evenodd; fill:#000000" d="M 303.996 3.19901L 306.168 3.19901L 306.168 1.90201L 300.043 1.90201L 300.043 3.19901L 302.395 3.19901L 302.395 9.496L 303.992 9.496L 303.996 3.19901z"/>
<path style="stroke:none; fill-rule:evenodd; fill:#000000" d="M 306.895 3.80101L 306.895 9.5L 308.395 9.5L 308.395 6.492C 308.395 5.63301 308.832 5.203 309.707 5.203C 309.863 5.203 309.973 5.211 310.176 5.23801L 310.176 3.703C 310.09 3.703 310.039 3.703 309.996 3.703C 309.317 3.703 308.719 4.15601 308.399 4.94501L 308.399 3.80101L 306.895 3.80101z"/>
<path style="stroke:none; fill-rule:evenodd; fill:#000000" d="M 315.895 9.28101C 315.586 9.043 315.5 8.88701 315.5 8.59001L 315.5 5.44501C 315.5 4.293 314.727 3.707 313.215 3.707C 311.703 3.707 310.918 4.367 310.824 5.707L 312.227 5.707C 312.297 5.101 312.539 4.90601 313.254 4.90601C 313.817 4.90601 314.098 5.09401 314.098 5.46901C 314.098 5.65601 314.004 5.82001 313.848 5.90601C 313.652 6.00801 313.652 6.00801 312.934 6.125L 312.356 6.226C 311.246 6.414 310.703 6.98801 310.703 8C 310.703 8.48001 310.836 8.879 311.094 9.16C 311.414 9.492 311.902 9.69101 312.399 9.69101C 313.02 9.69101 313.59 9.42201 314.098 8.88701C 314.098 9.179 314.129 9.28101 314.266 9.44901L 315.891 9.44901L 315.895 9.28101zM 314.094 7.211C 314.094 8.03101 313.688 8.496 312.969 8.496C 312.492 8.496 312.199 8.242 312.199 7.84001C 312.199 7.414 312.422 7.211 313.012 7.09001L 313.496 7C 313.871 6.929 313.93 6.91 314.094 6.828L 314.094 7.211z"/>
<path style="stroke:none; fill-rule:evenodd; fill:#000000" d="M 316.797 3.80101L 316.797 9.5L 318.297 9.5L 318.297 6.035C 318.297 5.351 318.762 4.90201 319.465 4.90201C 320.082 4.90201 320.395 5.254 320.395 5.93701L 320.395 9.496L 321.895 9.496L 321.895 5.67601C 321.895 4.42201 321.203 3.703 319.996 3.703C 319.231 3.703 318.719 3.996 318.297 4.65201L 318.297 3.80101L 316.797 3.80101z"/>
<path style="stroke:none; fill-rule:evenodd; fill:#000000" d="M 327.992 5.66C 327.973 4.44101 327.047 3.703 325.527 3.703C 324.09 3.703 323.199 4.418 323.199 5.57001C 323.199 5.94101 323.313 6.265 323.512 6.48001C 323.711 6.67601 323.891 6.76901 324.438 6.94501L 326.195 7.48401C 326.563 7.597 326.688 7.711 326.688 7.93701C 326.688 8.27701 326.277 8.48401 325.594 8.48401C 325.215 8.48401 324.91 8.42201 324.723 8.308C 324.567 8.207 324.504 8.10501 324.442 7.84001L 323 7.84001C 323.039 9.05101 323.961 9.683 325.695 9.683C 326.488 9.683 327.09 9.51901 327.512 9.18701C 327.934 8.85901 328.188 8.336 328.188 7.789C 328.188 7.06201 327.82 6.597 327.07 6.379L 325.207 5.851C 324.797 5.726 324.692 5.64401 324.692 5.418C 324.692 5.10901 325.024 4.89801 325.531 4.89801C 326.227 4.89801 326.57 5.14801 326.582 5.65601L 327.992 5.66z"/>
<path style="stroke:none; fill-rule:evenodd; fill:#000000" d="M 330.695 3.836L 329.195 3.836L 329.195 9.5L 330.695 9.5L 330.695 3.836zM 330.695 1.90201L 329.195 1.90201L 329.195 3.19901L 330.695 3.19901L 330.695 1.90201z"/>
<path style="stroke:none; fill-rule:evenodd; fill:#000000" d="M 334.555 3.90201L 333.797 3.90201L 333.797 2.433L 332.297 2.433L 332.297 3.90201L 331.547 3.90201L 331.547 4.90201L 332.297 4.90201L 332.297 8.371C 332.297 9.25801 332.762 9.69501 333.715 9.69501C 334.035 9.69501 334.293 9.668 334.551 9.586L 334.551 8.597C 334.418 8.597 334.34 8.597 334.242 8.597C 333.883 8.597 333.797 8.48401 333.797 7.98001L 333.797 4.90201L 334.555 4.90201L 334.555 3.90201z"/>
<path style="stroke:none; fill-rule:evenodd; fill:#000000" d="M 337.094 3.836L 335.594 3.836L 335.594 9.5L 337.094 9.5L 337.094 3.836zM 337.094 1.90201L 335.594 1.90201L 335.594 3.19901L 337.094 3.19901L 337.094 1.90201z"/>
<path style="stroke:none; fill-rule:evenodd; fill:#000000" d="M 341.469 9.5L 343.418 3.80101L 341.867 3.80101L 340.727 7.976L 339.5 3.80101L 337.949 3.80101L 339.93 9.5L 341.469 9.5z"/>
<path style="stroke:none; fill-rule:evenodd; fill:#000000" d="M 345.895 3.836L 344.395 3.836L 344.395 9.5L 345.895 9.5L 345.895 3.836zM 345.895 1.90201L 344.395 1.90201L 344.395 3.19901L 345.895 3.19901L 345.895 1.90201z"/>
<path style="stroke:none; fill-rule:evenodd; fill:#000000" d="M 349.754 3.90201L 348.996 3.90201L 348.996 2.433L 347.496 2.433L 347.496 3.90201L 346.746 3.90201L 346.746 4.90201L 347.496 4.90201L 347.496 8.371C 347.496 9.25801 347.961 9.69501 348.914 9.69501C 349.235 9.69501 349.492 9.668 349.75 9.586L 349.75 8.597C 349.617 8.597 349.539 8.597 349.442 8.597C 349.082 8.597 348.996 8.48401 348.996 7.98001L 348.996 4.90201L 349.754 4.90201L 349.754 3.90201z"/>
<path style="stroke:none; fill-rule:evenodd; fill:#000000" d="M 354.231 3.80101L 353.059 7.957L 351.813 3.80101L 350.199 3.80101L 352.305 9.711L 352.305 9.75C 352.305 10.285 351.906 10.695 351.395 10.695C 351.281 10.695 351.199 10.687 351.008 10.652L 351.008 11.754C 351.227 11.785 351.352 11.793 351.531 11.793C 351.895 11.793 352.336 11.722 352.59 11.617C 352.996 11.449 353.176 11.207 353.418 10.531L 355.746 3.79701L 354.231 3.80101z"/>
<path style="stroke:none; fill-rule:evenodd; fill:#000000" d="M 362.895 3.19901L 365.067 3.19901L 365.067 1.90201L 358.942 1.90201L 358.942 3.19901L 361.293 3.19901L 361.293 9.496L 362.891 9.496L 362.895 3.19901z"/>
<path style="stroke:none; fill-rule:evenodd; fill:#000000" d="M 370.692 7.101C 370.699 6.976 370.699 6.92601 370.699 6.851C 370.699 6.285 370.617 5.75801 370.481 5.35901C 370.106 4.332 369.192 3.707 368.047 3.707C 366.422 3.707 365.426 4.879 365.426 6.77701C 365.426 8.59001 366.41 9.703 368.016 9.703C 369.285 9.703 370.313 9 370.637 7.91L 369.192 7.91C 369.016 8.347 368.606 8.601 368.07 8.601C 367.652 8.601 367.317 8.42201 367.106 8.10901C 366.969 7.89801 366.918 7.64401 366.899 7.10501L 370.692 7.101zM 366.914 6.101C 367.008 5.23801 367.375 4.804 368.024 4.804C 368.391 4.804 368.723 4.98401 368.934 5.27701C 369.07 5.48801 369.133 5.707 369.164 6.097L 366.914 6.101z"/>
<path style="stroke:none; fill-rule:evenodd; fill:#000000" d="M 376.395 5.66C 376.375 4.44101 375.449 3.703 373.93 3.703C 372.492 3.703 371.602 4.418 371.602 5.57001C 371.602 5.94101 371.715 6.265 371.914 6.48001C 372.113 6.67601 372.293 6.76901 372.84 6.94501L 374.598 7.48401C 374.965 7.597 375.09 7.711 375.09 7.93701C 375.09 8.27701 374.68 8.48401 373.996 8.48401C 373.617 8.48401 373.313 8.42201 373.125 8.308C 372.969 8.207 372.906 8.10501 372.844 7.84001L 371.402 7.84001C 371.442 9.05101 372.363 9.683 374.098 9.683C 374.891 9.683 375.492 9.51901 375.914 9.18701C 376.336 8.85901 376.59 8.336 376.59 7.789C 376.59 7.06201 376.223 6.597 375.473 6.379L 373.609 5.851C 373.199 5.726 373.094 5.64401 373.094 5.418C 373.094 5.10901 373.426 4.89801 373.934 4.89801C 374.629 4.89801 374.973 5.14801 374.985 5.65601L 376.395 5.66z"/>
<path style="stroke:none; fill-rule:evenodd; fill:#000000" d="M 380.055 3.90201L 379.297 3.90201L 379.297 2.433L 377.797 2.433L 377.797 3.90201L 377.047 3.90201L 377.047 4.90201L 377.797 4.90201L 377.797 8.371C 377.797 9.25801 378.262 9.69501 379.215 9.69501C 379.535 9.69501 379.793 9.668 380.051 9.586L 380.051 8.597C 379.918 8.597 379.84 8.597 379.742 8.597C 379.383 8.597 379.297 8.48401 379.297 7.98001L 379.297 4.90201L 380.055 4.90201L 380.055 3.90201z"/>
<path style="stroke:none; fill-rule:evenodd; fill:#000000" d="M 384.094 9.5L 387.574 9.5C 388.465 9.5 389.059 9.336 389.524 8.94901C 389.988 8.56601 390.285 7.918 390.285 7.31201C 390.285 6.56201 389.875 5.96901 389.004 5.46901C 389.781 4.992 390.082 4.554 390.082 3.90601C 390.082 3.38701 389.817 2.836 389.379 2.461C 388.922 2.078 388.379 1.91 387.547 1.91L 384.086 1.91L 384.094 9.5zM 385.695 3.19901L 387.449 3.19901C 388.192 3.19901 388.59 3.496 388.59 4.05101C 388.59 4.59401 388.192 4.89401 387.449 4.89401L 385.695 4.89401L 385.695 3.19901zM 385.695 6.19901L 387.606 6.19901C 388.383 6.19901 388.789 6.54701 388.789 7.203C 388.789 7.847 388.387 8.19501 387.606 8.19501L 385.695 8.19501L 385.695 6.19901z"/>
<path style="stroke:none; fill-rule:evenodd; fill:#000000" d="M 397.469 9.5L 399.418 3.80101L 397.867 3.80101L 396.727 7.976L 395.5 3.80101L 393.949 3.80101L 395.93 9.5L 397.469 9.5z"/>
<path style="stroke:none; fill-rule:evenodd; fill:#000000" d="M 404.895 5.66C 404.875 4.44101 403.949 3.703 402.43 3.703C 400.992 3.703 400.102 4.418 400.102 5.57001C 400.102 5.94101 400.215 6.265 400.414 6.48001C 400.613 6.67601 400.793 6.76901 401.34 6.94501L 403.098 7.48401C 403.465 7.597 403.59 7.711 403.59 7.93701C 403.59 8.27701 403.18 8.48401 402.496 8.48401C 402.117 8.48401 401.813 8.42201 401.625 8.308C 401.469 8.207 401.406 8.10501 401.344 7.84001L 399.902 7.84001C 399.942 9.05101 400.863 9.683 402.598 9.683C 403.391 9.683 403.992 9.51901 404.414 9.18701C 404.836 8.85901 405.09 8.336 405.09 7.789C 405.09 7.06201 404.723 6.597 403.973 6.379L 402.109 5.851C 401.699 5.726 401.594 5.64401 401.594 5.418C 401.594 5.10901 401.926 4.89801 402.434 4.89801C 403.129 4.89801 403.473 5.14801 403.485 5.65601L 404.895 5.66z"/>
<path style="stroke:none; fill-rule:evenodd; fill:#000000" d="M 406.195 9.5L 407.793 9.5L 407.793 8L 406.195 8L 406.195 9.5z"/>
<path style="stroke:none; fill-rule:evenodd; fill:#000000" d="M 412.094 9.5L 415.113 9.5C 416.289 9.5 417.031 9.23001 417.547 8.617C 418.16 7.91 418.488 6.879 418.488 5.69901C 418.488 4.535 418.16 3.504 417.547 2.78101C 417.031 2.168 416.297 1.90601 415.113 1.90601L 412.094 1.90601L 412.094 9.5zM 413.695 8.19901L 413.695 3.19901L 415.113 3.19901C 416.301 3.19901 416.891 4.02301 416.891 5.703C 416.891 7.371 416.301 8.19501 415.113 8.19501L 413.695 8.19901z"/>
<path style="stroke:none; fill-rule:evenodd; fill:#000000" d="M 421.695 8L 420.098 8L 420.098 9.5L 421.695 9.5L 421.695 8zM 421.695 4L 420.098 4L 420.098 5.5L 421.695 5.5L 421.695 4z"/>
<path style="stroke:none; fill-rule:evenodd; fill:#000000" d="M 427.594 3.543L 428.965 9.5L 430.535 9.5L 431.887 3.543L 431.887 9.5L 433.485 9.5L 433.485 1.90201L 431.098 1.90201L 429.746 7.93701L 428.356 1.90201L 425.992 1.90201L 425.992 9.5L 427.59 9.5L 427.594 3.543z"/>
<path style="stroke:none; fill-rule:evenodd; fill:#000000" d="M 437.184 3.69901C 435.457 3.69901 434.399 4.84001 434.399 6.69901C 434.399 8.56201 435.457 9.69501 437.195 9.69501C 438.914 9.69501 439.992 8.554 439.992 6.742C 439.992 4.82401 438.957 3.703 437.184 3.703L 437.184 3.69901zM 437.195 4.90201C 437.981 4.90201 438.492 5.617 438.492 6.722C 438.492 7.77301 437.961 8.5 437.195 8.5C 436.418 8.5 435.899 7.77301 435.899 6.703C 435.899 5.63301 436.418 4.90601 437.195 4.90601L 437.195 4.90201z"/>
<path style="stroke:none; fill-rule:evenodd; fill:#000000" d="M 444.594 9.461L 446.094 9.461L 446.094 1.90201L 444.594 1.90201L 444.594 4.57001C 444.235 3.98001 443.746 3.703 443.051 3.703C 441.715 3.703 440.699 5.004 440.699 6.711C 440.699 7.476 440.926 8.25 441.301 8.79701C 441.684 9.34001 442.367 9.69501 443.051 9.69501C 443.742 9.69501 444.231 9.43701 444.594 8.88701L 444.594 9.461zM 443.395 4.90201C 444.113 4.90201 444.594 5.63701 444.594 6.73001C 444.594 7.77301 444.109 8.496 443.395 8.496C 442.684 8.496 442.195 7.761 442.195 6.711C 442.195 5.64801 442.68 4.90201 443.395 4.90201z"/>
<path style="stroke:none; fill-rule:evenodd; fill:#000000" d="M 452.293 7.101C 452.301 6.976 452.301 6.92601 452.301 6.851C 452.301 6.285 452.219 5.75801 452.082 5.35901C 451.707 4.332 450.793 3.707 449.649 3.707C 448.024 3.707 447.027 4.879 447.027 6.77701C 447.027 8.59001 448.012 9.703 449.617 9.703C 450.887 9.703 451.914 9 452.238 7.91L 450.793 7.91C 450.617 8.347 450.207 8.601 449.672 8.601C 449.254 8.601 448.918 8.42201 448.707 8.10901C 448.57 7.89801 448.52 7.64401 448.5 7.10501L 452.293 7.101zM 448.516 6.101C 448.609 5.23801 448.977 4.804 449.625 4.804C 449.992 4.804 450.324 4.98401 450.535 5.27701C 450.672 5.48801 450.735 5.707 450.766 6.097L 448.516 6.101z"/>
<path style="stroke:none; fill-rule:evenodd; fill:#000000" d="M 453.395 9.5L 454.895 9.5L 454.895 1.90201L 453.395 1.90201L 453.395 9.5z"/>
<path style="stroke:none; fill-rule:evenodd; fill:#000000" d="M 239.895 1.601L 239.895 13.898L 241.192 13.898L 241.192 12.765C 241.871 13.804 242.77 14.297 244.012 14.297C 246.356 14.297 247.887 12.39 247.887 9.44501C 247.887 6.57401 246.418 4.80101 244.059 4.80101C 242.828 4.80101 241.957 5.25 241.293 6.23001L 241.293 1.601L 239.895 1.601zM 243.785 6.097C 245.359 6.097 246.375 7.46501 246.375 9.582C 246.375 11.594 245.328 12.965 243.785 12.965C 242.297 12.965 241.317 11.613 241.317 9.53101C 241.317 7.453 242.297 6.097 243.785 6.097z"/>
<path style="stroke:none; fill-rule:evenodd; fill:#000000" d="M 249.961 17.488C 251.637 15.277 252.692 12.207 252.692 9.554C 252.692 6.88701 251.637 3.81601 249.961 1.601L 249.039 1.601C 250.485 4.015 251.293 6.851 251.293 9.554C 251.293 12.238 250.488 15.09 249.039 17.488L 249.961 17.488z"/>
<path style="stroke:none; fill-rule:evenodd; fill:#000000" d="M 127.777 79.644C 127.578 78.476 126.934 77.906 125.817 77.906C 125.137 77.906 124.586 78.129 124.207 78.558C 123.75 79.074 123.496 79.824 123.496 80.672C 123.496 81.535 123.754 82.273 124.235 82.785C 124.625 83.203 125.125 83.394 125.789 83.394C 127.027 83.394 127.727 82.707 127.879 81.316L 127.203 81.316C 127.149 81.672 127.078 81.918 126.973 82.125C 126.762 82.551 126.324 82.797 125.774 82.797C 124.75 82.797 124.102 81.969 124.102 80.664C 124.102 79.324 124.723 78.5 125.719 78.5C 126.133 78.5 126.524 78.629 126.735 78.836C 126.922 79.015 127.031 79.242 127.109 79.64L 127.777 79.644z"/>
<path style="stroke:none; fill-rule:evenodd; fill:#000000" d="M 128.695 78L 128.695 83.199L 129.293 83.199L 129.293 81.156C 129.293 80.398 129.672 79.902 130.258 79.902C 130.442 79.902 130.621 79.965 130.758 80.07C 130.918 80.187 130.988 80.367 130.988 80.629L 130.988 83.195L 131.586 83.195L 131.586 80.406C 131.586 79.789 131.152 79.398 130.449 79.398C 129.942 79.398 129.629 79.554 129.293 80L 129.293 78L 128.695 78z"/>
<path style="stroke:none; fill-rule:evenodd; fill:#000000" d="M 135.879 82.855C 135.813 82.898 135.781 82.898 135.742 82.898C 135.52 82.898 135.399 82.793 135.399 82.609L 135.399 80.422C 135.399 79.761 134.926 79.406 134.024 79.406C 133.496 79.406 133.055 79.558 132.813 79.832C 132.645 80.019 132.578 80.23 132.563 80.594L 133.141 80.594C 133.188 80.191 133.449 80.004 133.988 80.004C 134.504 80.004 134.797 80.199 134.797 80.551L 134.797 80.703C 134.797 80.945 134.652 81.051 134.195 81.109C 133.383 81.211 133.258 81.242 133.035 81.332C 132.613 81.504 132.402 81.836 132.402 82.312C 132.402 82.976 132.867 83.398 133.617 83.398C 134.082 83.398 134.457 83.226 134.875 82.82C 134.914 83.219 135.098 83.398 135.481 83.398C 135.598 83.398 135.692 83.387 135.883 83.332L 135.879 82.855zM 134.797 82.058C 134.797 82.261 134.742 82.387 134.57 82.554C 134.336 82.781 134.055 82.898 133.715 82.898C 133.266 82.898 133.004 82.672 133.004 82.285C 133.004 81.883 133.258 81.679 133.875 81.582C 134.481 81.496 134.606 81.469 134.801 81.371L 134.797 82.058z"/>
<path style="stroke:none; fill-rule:evenodd; fill:#000000" d="M 136.496 79.508L 136.496 83.199L 137.094 83.199L 137.094 81.156C 137.094 80.398 137.496 79.902 138.113 79.902C 138.586 79.902 138.891 80.183 138.891 80.629L 138.891 83.195L 139.488 83.195L 139.488 80.406C 139.488 79.797 139.012 79.398 138.27 79.398C 137.699 79.398 137.332 79.609 136.992 80.125L 136.992 79.508L 136.496 79.508z"/>
<path style="stroke:none; fill-rule:evenodd; fill:#000000" d="M 143.328 80.738C 143.301 80.406 143.223 80.191 143.078 80C 142.824 79.625 142.375 79.402 141.856 79.402C 140.856 79.402 140.199 80.199 140.199 81.437C 140.199 82.637 140.836 83.398 141.848 83.398C 142.735 83.398 143.297 82.855 143.367 81.926L 142.766 81.926C 142.668 82.504 142.359 82.797 141.848 82.797C 141.192 82.797 140.797 82.285 140.797 81.433C 140.797 80.539 141.184 80 141.836 80C 142.336 80 142.652 80.265 142.723 80.738L 143.328 80.738z"/>
<path style="stroke:none; fill-rule:evenodd; fill:#000000" d="M 147.094 81.5C 147.094 80.949 147.055 80.621 146.949 80.351C 146.715 79.761 146.156 79.402 145.473 79.402C 144.457 79.402 143.801 80.199 143.801 81.422C 143.801 82.644 144.438 83.398 145.473 83.398C 146.317 83.398 146.899 82.906 147.047 82.074L 146.453 82.074C 146.293 82.547 145.961 82.797 145.488 82.797C 145.113 82.797 144.797 82.625 144.598 82.308C 144.457 82.094 144.41 81.879 144.402 81.5L 147.094 81.5zM 144.406 81.066C 144.453 80.383 144.871 79.937 145.465 79.937C 146.043 79.937 146.488 80.418 146.488 81.023C 146.488 81.035 146.488 81.051 146.485 81.066L 144.406 81.066z"/>
<path style="stroke:none; fill-rule:evenodd; fill:#000000" d="M 6.4961 127.199L 6.4961 125.226C 6.4961 123.812 5.5039 122.902 3.961 122.902C 2.4375 122.902 1.6016 123.781 1.6016 125.39L 1.6016 128.801L 9.3008 128.801L 9.3008 127.203L 6.4961 127.199zM 5.1953 127.199L 2.8985 127.199L 2.8985 125.73C 2.8985 124.89 3.2657 124.504 4.0508 124.504C 4.8242 124.504 5.1953 124.89 5.1953 125.73L 5.1953 127.199z"/>
<path style="stroke:none; fill-rule:evenodd; fill:#000000" d="M 3.5938 121.801L 9.293 121.801L 9.293 120.301L 6.2852 120.301C 5.4258 120.301 4.9961 119.879 4.9961 119.031C 4.9961 118.879 4.9961 118.773 4.9922 118.578L 3.5 118.578C 3.5 118.66 3.5 118.711 3.5 118.754C 3.5 119.414 3.9336 119.992 4.6953 120.301L 3.6016 120.301L 3.5938 121.801z"/>
<path style="stroke:none; fill-rule:evenodd; fill:#000000" d="M 3.4961 115.211C 3.4961 116.937 4.6407 117.996 6.4961 117.996C 8.3594 117.996 9.4961 116.937 9.4961 115.199C 9.4961 113.48 8.3555 112.402 6.5391 112.402C 4.6211 112.402 3.4961 113.437 3.4961 115.211zM 4.6953 115.199C 4.6953 114.414 5.4102 113.902 6.5157 113.902C 7.5664 113.902 8.293 114.433 8.293 115.199C 8.293 115.976 7.5664 116.496 6.4961 116.496C 5.4258 116.496 4.6992 115.976 4.6992 115.199L 4.6953 115.199z"/>
<path style="stroke:none; fill-rule:evenodd; fill:#000000" d="M 3.5899 109.801L 3.5899 111.301L 11.5938 111.301L 11.5938 109.801L 8.6172 109.801C 9.2813 109.441 9.5938 108.93 9.5938 108.207C 9.5938 106.824 8.2969 105.805 6.5508 105.805C 5.7422 105.805 4.9336 106.039 4.4024 106.422C 3.8594 106.805 3.5 107.515 3.5 108.207C 3.5 108.93 3.8047 109.437 4.4375 109.801L 3.5899 109.801zM 4.7969 108.551C 4.7969 107.801 5.5078 107.301 6.5703 107.301C 7.5821 107.301 8.293 107.816 8.293 108.551C 8.293 109.289 7.5938 109.801 6.5508 109.801C 5.5078 109.801 4.7969 109.293 4.7969 108.551z"/>
<path style="stroke:none; fill-rule:evenodd; fill:#000000" d="M 3.4961 102.211C 3.4961 103.937 4.6407 104.996 6.4961 104.996C 8.3594 104.996 9.4961 103.937 9.4961 102.199C 9.4961 100.48 8.3555 99.4021 6.5391 99.4021C 4.6211 99.4021 3.4961 100.437 3.4961 102.211zM 4.6953 102.199C 4.6953 101.414 5.4102 100.902 6.5157 100.902C 7.5664 100.902 8.293 101.433 8.293 102.199C 8.293 102.976 7.5664 103.496 6.4961 103.496C 5.4258 103.496 4.6992 102.976 4.6992 102.199L 4.6953 102.199z"/>
<path style="stroke:none; fill-rule:evenodd; fill:#000000" d="M 3.5938 98.199L 9.293 98.199L 9.293 96.699L 6.2852 96.699C 5.4258 96.699 4.9961 96.2771 4.9961 95.429C 4.9961 95.277 4.9961 95.172 4.9922 94.976L 3.5 94.976C 3.5 95.058 3.5 95.109 3.5 95.152C 3.5 95.8123 3.9336 96.3904 4.6953 96.699L 3.6016 96.699L 3.5938 98.199z"/>
<path style="stroke:none; fill-rule:evenodd; fill:#000000" d="M 3.6953 91.609L 3.6953 92.402L 2.1446 92.402L 2.1446 93.902L 3.6953 93.902L 3.6953 94.652L 4.6953 94.652L 4.6953 93.902L 8.1641 93.902C 9.0508 93.902 9.4883 93.429 9.4883 92.465C 9.4883 92.14 9.461 91.879 9.3789 91.613L 8.3789 91.613C 8.3867 91.754 8.3907 91.836 8.3907 91.937C 8.3907 92.312 8.2774 92.402 7.7735 92.402L 4.6953 92.402L 4.6953 91.609L 3.6953 91.609z"/>
<path style="stroke:none; fill-rule:evenodd; fill:#000000" d="M 3.5664 89.101L 3.5664 90.601L 9.293 90.601L 9.293 89.101L 3.5664 89.101zM 1.5938 89.101L 1.5938 90.601L 2.8907 90.601L 2.8907 89.101L 1.5938 89.101z"/>
<path style="stroke:none; fill-rule:evenodd; fill:#000000" d="M 3.4961 85.113C 3.4961 86.84 4.6407 87.898 6.4961 87.898C 8.3594 87.898 9.4961 86.84 9.4961 85.101C 9.4961 83.383 8.3555 82.304 6.5391 82.304C 4.6211 82.304 3.4961 83.34 3.4961 85.113zM 4.6953 85.101C 4.6953 84.316 5.4102 83.804 6.5157 83.804C 7.5664 83.804 8.293 84.336 8.293 85.101C 8.293 85.879 7.5664 86.398 6.4961 86.398C 5.4258 86.398 4.6992 85.879 4.6992 85.101L 4.6953 85.101z"/>
<path style="stroke:none; fill-rule:evenodd; fill:#000000" d="M 3.5938 81.199L 9.293 81.199L 9.293 79.699L 5.9024 79.699C 5.2344 79.699 4.793 79.234 4.793 78.531C 4.793 77.914 5.1367 77.601 5.8086 77.601L 9.293 77.601L 9.293 76.101L 5.4727 76.101C 4.2188 76.101 3.4961 76.793 3.4961 78C 3.4961 78.765 3.7735 79.277 4.3946 79.699L 3.5977 79.699L 3.5938 81.199z"/>
<path style="stroke:none; fill-rule:evenodd; fill:#000000" d="M 9.2969 71.5L 9.2969 68.019C 9.2969 67.129 9.1289 66.535 8.7383 66.07C 8.3477 65.605 7.6953 65.308 7.0821 65.308C 6.3242 65.308 5.7227 65.73 5.2149 66.625C 4.7305 65.894 4.2852 65.609 3.6328 65.609C 3.1055 65.609 2.5469 65.871 2.168 66.301C 1.7774 66.75 1.6094 67.285 1.6094 68.101L 1.6094 71.504L 9.2969 71.5zM 2.8946 69.902L 2.8946 68.207C 2.8946 67.492 3.2071 67.105 3.7969 67.105C 4.3711 67.105 4.6875 67.488 4.6875 68.207L 4.6875 69.902L 2.8946 69.902zM 5.9961 69.902L 5.9961 67.992C 5.9961 67.215 6.3438 66.808 7 66.808C 7.6446 66.808 7.9922 67.215 7.9922 67.992L 7.9922 69.902L 5.9961 69.902z"/>
<path style="stroke:none; fill-rule:evenodd; fill:#000000" d="M 6.1953 59.402L 6.1953 57.539C 6.1953 56.836 6.4727 56.531 7.1289 56.531C 7.1914 56.531 7.2969 56.531 7.4375 56.539C 7.6407 56.547 7.8321 56.547 7.9492 56.547C 8.6758 56.547 8.9141 56.504 9.2891 56.297L 9.2891 54.617L 9.0078 54.617C 8.8711 54.836 8.7149 54.929 8.375 54.929C 6.1055 54.972 6 55.011 5.5781 56C 5.2422 55.133 4.6172 54.695 3.6797 54.695C 3.0703 54.695 2.5078 54.91 2.1289 55.285C 1.7735 55.637 1.6016 56.133 1.6016 56.797L 1.6016 60.992L 9.3008 60.992L 9.3008 59.394L 6.1953 59.402zM 4.8946 59.402L 2.8946 59.402L 2.8946 57.449C 2.8946 56.988 2.9336 56.793 3.0938 56.597C 3.25 56.406 3.5117 56.308 3.8711 56.308C 4.2383 56.308 4.5313 56.414 4.6914 56.597C 4.836 56.769 4.8907 56.984 4.8907 57.449L 4.8946 59.402z"/>
<path style="stroke:none; fill-rule:evenodd; fill:#000000" d="M 6.8946 48.64C 6.7696 48.633 6.7188 48.633 6.6446 48.633C 6.0781 48.633 5.5508 48.715 5.1524 48.855C 4.1211 49.234 3.5 50.16 3.5 51.316C 3.5 52.961 4.6758 53.965 6.5742 53.965C 8.3867 53.965 9.5 52.969 9.5 51.347C 9.5 50.066 8.7852 49.027 7.6875 48.695L 7.6875 50.156C 8.1367 50.336 8.3985 50.75 8.3985 51.289C 8.3985 51.711 8.2188 52.051 7.9063 52.261C 7.6953 52.398 7.4414 52.449 6.9024 52.472L 6.8946 48.64zM 5.8946 52.461C 5.0313 52.367 4.5938 51.996 4.5938 51.336C 4.5938 50.969 4.7735 50.625 5.0664 50.414C 5.2774 50.277 5.4961 50.215 5.8907 50.183L 5.8946 52.461z"/>
<path style="stroke:none; fill-rule:evenodd; fill:#000000" d="M 5.4102 42.941C 4.2188 42.961 3.4961 43.894 3.4961 45.437C 3.4961 46.89 4.211 47.793 5.3633 47.793C 5.7344 47.793 6.0586 47.679 6.2735 47.48C 6.4688 47.281 6.5625 47.101 6.7383 46.554L 7.2774 44.797C 7.3907 44.429 7.5039 44.304 7.7305 44.304C 8.0703 44.304 8.2813 44.715 8.2813 45.398C 8.2813 45.777 8.2149 46.082 8.1016 46.269C 8 46.426 7.8946 46.488 7.6172 46.551L 7.6172 47.988C 8.8399 47.949 9.4805 47.027 9.4805 45.293C 9.4805 44.5 9.3164 43.898 8.9844 43.476C 8.6563 43.054 8.1328 42.801 7.5821 42.801C 6.8555 42.801 6.3907 43.168 6.1719 43.918L 5.6446 45.781C 5.5196 46.191 5.4375 46.297 5.211 46.297C 4.9024 46.297 4.6914 45.961 4.6914 45.441C 4.6914 44.734 4.9258 44.383 5.4063 44.375L 5.4102 42.941z"/>
<path style="stroke:none; fill-rule:evenodd; fill:#000000" d="M 3.5899 40.301L 3.5899 41.801L 11.5938 41.801L 11.5938 40.301L 8.6172 40.301C 9.2813 39.941 9.5938 39.429 9.5938 38.707C 9.5938 37.324 8.2969 36.304 6.5508 36.304C 5.7422 36.304 4.9336 36.539 4.4024 36.922C 3.8594 37.304 3.5 38.015 3.5 38.707C 3.5 39.429 3.8047 39.937 4.4375 40.301L 3.5899 40.301zM 4.7969 39.051C 4.7969 38.301 5.5078 37.801 6.5703 37.801C 7.5821 37.801 8.293 38.316 8.293 39.051C 8.293 39.789 7.5938 40.301 6.5508 40.301C 5.5078 40.301 4.7969 39.793 4.7969 39.051z"/>
</g>
</svg>