<?xml version="1.0" encoding="UTF-8" standalone="no"?>
<svg
   xmlns:dc="http://purl.org/dc/elements/1.1/"
   xmlns:cc="http://creativecommons.org/ns#"
   xmlns:rdf="http://www.w3.org/1999/02/22-rdf-syntax-ns#"
   xmlns:svg="http://www.w3.org/2000/svg"
   xmlns="http://www.w3.org/2000/svg"
   xmlns:sodipodi="http://sodipodi.sourceforge.net/DTD/sodipodi-0.dtd"
   xmlns:inkscape="http://www.inkscape.org/namespaces/inkscape"
   width="205.179"
   height="83.1956"
   id="svg2"
   version="1.1"
   inkscape:version="0.47 r22583"
   sodipodi:docname="fig_pvlv_da_data.pdf"
   inkscape:export-filename="/Users/oreilly/svn_docs/figs/fig_pvlv_da_data.png"
   inkscape:export-xdpi="149.87631"
   inkscape:export-ydpi="149.87631">
  <metadata
     id="metadata52">
    <rdf:RDF>
      <cc:Work
         rdf:about="">
        <dc:format>image/svg+xml</dc:format>
        <dc:type
           rdf:resource="http://purl.org/dc/dcmitype/StillImage" />
        <dc:title></dc:title>
      </cc:Work>
    </rdf:RDF>
  </metadata>
  <sodipodi:namedview
     pagecolor="#ffffff"
     bordercolor="#666666"
     borderopacity="1"
     objecttolerance="10"
     gridtolerance="10"
     guidetolerance="10"
     inkscape:pageopacity="0"
     inkscape:pageshadow="2"
     inkscape:window-width="640"
     inkscape:window-height="484"
     id="namedview50"
     showgrid="false"
     inkscape:zoom="2.6269745"
     inkscape:cx="102.5895"
     inkscape:cy="41.597801"
     inkscape:window-x="0"
     inkscape:window-y="0"
     inkscape:window-maximized="0"
     inkscape:current-layer="svg2" />
  <defs
     id="defs4">
    <inkscape:perspective
       sodipodi:type="inkscape:persp3d"
       inkscape:vp_x="0 : 41.597801 : 1"
       inkscape:vp_y="0 : 1000 : 0"
       inkscape:vp_z="205.179 : 41.597801 : 1"
       inkscape:persp3d-origin="102.5895 : 27.731867 : 1"
       id="perspective54" />
    <marker
       id="ArrowEnd"
       viewBox="0 0 10 10"
       refX="0"
       refY="5"
       markerUnits="strokeWidth"
       markerWidth="4"
       markerHeight="3"
       orient="auto">
      <path
         d="M 0 0 L 10 5 L 0 10 z"
         id="path7" />
    </marker>
    <marker
       id="ArrowStart"
       viewBox="0 0 10 10"
       refX="10"
       refY="5"
       markerUnits="strokeWidth"
       markerWidth="4"
       markerHeight="3"
       orient="auto">
      <path
         d="M 10 0 L 0 5 L 10 10 z"
         id="path10" />
    </marker>
  </defs>
  <g
     id="g12">
    <path
       style="stroke:#000000; stroke-width:1.9133; fill:none"
       d="M 47.1074 50.2073L 156.162 50.2073L 161.901 32.9883L 167.639 50.2073L 182.944 50.2073"
       id="path14" />
    <path
       style="stroke:none; fill-rule:evenodd; fill:#000000"
       d="M 11.0566 41.4223L 13.7871 41.4223C 14.7285 41.4223 15.1504 41.8793 15.1504 42.9103L 15.1504 43.6523C 15.1504 44.1683 15.2363 44.6723 15.3808 45.0153L 16.6386 45.0153L 16.6386 44.7543C 16.248 44.4803 16.166 44.1793 16.1464 43.0623C 16.1347 41.6793 15.916 41.2653 15.0019 40.8753C 15.9589 40.4143 16.3457 39.8283 16.3457 38.8713C 16.3457 37.4223 15.4394 36.6253 13.8027 36.6253L 9.95115 36.6253L 9.95115 45.0233L 11.0488 45.0233L 11.0566 41.4223zM 10.9902 40.4763L 10.9902 37.5973L 13.5722 37.5973C 14.166 37.5973 14.5097 37.6873 14.7754 37.9183C 15.0605 38.1563 15.2089 38.5353 15.2089 39.0433C 15.2089 40.0273 14.705 40.4763 13.5683 40.4763L 10.9902 40.4763z"
       id="path16" />
    <path
       style="stroke:none; fill-rule:evenodd; fill:#000000"
       d="M 23.0566 42.3203C 23.0566 41.4023 22.9902 40.8513 22.8183 40.4063C 22.4316 39.4223 21.5175 38.8243 20.4004 38.8243C 18.7363 38.8243 17.6621 40.1173 17.6621 42.1053C 17.6621 44.0933 18.6972 45.3203 20.373 45.3203C 21.7363 45.3203 22.6816 44.5273 22.9238 43.1953L 21.9707 43.1953C 21.7089 44.0003 21.1777 44.4183 20.416 44.4183C 19.8144 44.4183 19.3027 44.1403 18.9863 43.6253C 18.7597 43.2773 18.6816 42.9253 18.6699 42.3203L 23.0566 42.3203zM 18.6347 41.5543C 18.7128 40.4413 19.3925 39.7183 20.3535 39.7183C 21.291 39.7183 22.0175 40.4963 22.0175 41.4843C 22.0175 41.5043 22.0175 41.5273 22.0058 41.5503L 18.6347 41.5543z"
       id="path18" />
    <path
       style="stroke:none; fill-rule:evenodd; fill:#000000"
       d="M 29.916 45.0233L 31.6816 39.0233L 30.6035 39.0233L 29.4121 43.6913L 28.2324 39.0233L 27.0644 39.0233L 25.9199 43.6913L 24.6933 39.0233L 23.6386 39.0233L 25.3808 45.0233L 26.4589 45.0233L 27.6152 40.3083L 28.83 45.0233L 29.916 45.0233z"
       id="path20" />
    <path
       style="stroke:#000000; stroke-width:1.9133; fill:none"
       d="M 47.1074 27.2463L 70.0644 27.2463L 70.0644 10.0273L 167.643 10.0273L 167.643 27.2463L 182.948 27.2463"
       id="path22" />
    <path
       style="stroke:#000000; stroke-dasharray:6,3; stroke-width:0.95664899999999997; fill:none"
       d="M 5.01365 27.2463L 200.166 27.2463"
       id="path24" />
    <path
       style="stroke:#000000; stroke-dasharray:6,3; stroke-width:0.95664899999999997; fill:none"
       d="M 5.01365 50.2073L 200.166 50.2073"
       id="path26" />
    <path
       style="stroke:none; fill-rule:evenodd; fill:#000000"
       d="M 9.85355 69.9223L 13.1074 69.9223C 15.2363 69.9223 16.5488 68.3323 16.5488 65.7183C 16.5488 63.1173 15.2519 61.5273 13.1074 61.5273L 9.85355 61.5273L 9.85355 69.9223zM 10.955 69.0233L 10.955 62.4253L 12.9277 62.4253C 14.58 62.4253 15.4511 63.5583 15.4511 65.7303C 15.4511 67.8793 14.58 69.0233 12.9277 69.0233L 10.955 69.0233z"
       id="path28" />
    <path
       style="stroke:none; fill-rule:evenodd; fill:#000000"
       d="M 22.5957 67.4223L 23.455 69.9223L 24.6464 69.9223L 21.7089 61.5233L 20.3339 61.5233L 17.3496 69.9223L 18.4824 69.9223L 19.3652 67.4223L 22.5957 67.4223zM 22.2988 66.5233L 19.6386 66.5233L 21.0136 62.7033L 22.2988 66.5233z"
       id="path30" />
    <path
       style="stroke:#000000; stroke-width:1.9133; fill:none"
       d="M 47.1074 73.1683L 64.3261 73.1683L 70.0644 61.6913L 75.8027 73.1683L 156.159 73.1683L 161.897 69.3433L 167.635 73.1683L 181.026 73.1683"
       id="path32" />
    <path
       style="stroke:#ff0000; stroke-width:0.95664899999999997; fill:none"
       d="M 161.905 57.8593L 161.905 69.3363"
       id="path34" />
    <path
       style="stroke:#ff0000; stroke-width:0.95664899999999997; fill:none"
       d="M 163.819 61.6873L 161.909 69.3403L 159.998 61.6873"
       id="path36" />
    <path
       style="stroke:#ff0000; stroke-width:0.95664899999999997; fill:none"
       d="M 70.0684 76.9923L 70.0684 65.5153"
       id="path38" />
    <path
       style="stroke:#ff0000; stroke-width:0.95664899999999997; fill:none"
       d="M 68.1544 73.1683L 70.0644 65.5153L 71.9746 73.1683"
       id="path40" />
    <path
       style="stroke:#000000; stroke-dasharray:6,3; stroke-width:0.95664899999999997; fill:none"
       d="M 5.01365 50.2073L 200.166 50.2073"
       id="path42" />
    <path
       style="stroke:#000000; stroke-dasharray:6,3; stroke-width:0.95664899999999997; fill:none"
       d="M 5.01365 73.1683L 200.166 73.1683"
       id="path44" />
    <path
       style="stroke:none; fill-rule:evenodd; fill:#000000"
       d="M 16.455 16.2503C 16.1191 14.4223 15.0566 13.5273 13.205 13.5273C 12.0722 13.5273 11.1621 13.8823 10.5371 14.5743C 9.77545 15.4023 9.36135 16.5973 9.36135 17.9573C 9.36135 19.3363 9.78715 20.5233 10.5839 21.3403C 11.2285 22.0083 12.0605 22.3163 13.1582 22.3163C 15.2128 22.3163 16.3691 21.2033 16.6269 18.9653L 15.5214 18.9653C 15.4316 19.5543 15.3183 19.9573 15.1425 20.3003C 14.7988 21.0113 14.0839 21.4143 13.1894 21.4143C 11.5214 21.4143 10.4628 20.0623 10.4628 17.9413C 10.4628 15.7613 11.4746 14.4183 13.0996 14.4183C 13.7754 14.4183 14.4121 14.6293 14.7558 14.9533C 15.0644 15.2463 15.2363 15.6053 15.3652 16.2383L 16.455 16.2503z"
       id="path46" />
    <path
       style="stroke:none; fill-rule:evenodd; fill:#000000"
       d="M 23.955 16.1093C 23.9472 14.4723 22.8261 13.5233 20.9121 13.5233C 19.0878 13.5233 17.9589 14.4723 17.9589 16.0003C 17.9589 17.0273 18.4902 17.6793 19.58 17.9683L 21.6347 18.5233C 22.6777 18.8003 23.1543 19.2263 23.1543 19.8863C 23.1543 20.3363 22.916 20.8003 22.5683 21.0543C 22.2402 21.2853 21.7207 21.4103 21.0527 21.4103C 20.1582 21.4103 19.5488 21.1833 19.1543 20.6833C 18.8496 20.3043 18.7128 19.8863 18.7636 19.3473L 17.7636 19.3473C 17.7714 20.1253 17.9199 20.6363 18.248 21.1013C 18.8144 21.8903 19.7675 22.3083 21.0254 22.3083C 22.0097 22.3083 22.8144 22.0823 23.3496 21.6643C 23.9043 21.2183 24.2558 20.4683 24.2558 19.7423C 24.2558 18.7073 23.623 17.9493 22.498 17.6363L 20.4238 17.0743C 19.4277 16.8003 19.0644 16.4763 19.0644 15.8323C 19.0644 14.9803 19.7988 14.4143 20.9043 14.4143C 22.2128 14.4143 22.9472 15.0153 22.9589 16.1013L 23.955 16.1093z"
       id="path48" />
  </g>
</svg>
