<?xml version="1.0" encoding="UTF-8" standalone="no"?>
<!-- Created with Inkscape (http://www.inkscape.org/) -->

<svg
   xmlns:dc="http://purl.org/dc/elements/1.1/"
   xmlns:cc="http://creativecommons.org/ns#"
   xmlns:rdf="http://www.w3.org/1999/02/22-rdf-syntax-ns#"
   xmlns:svg="http://www.w3.org/2000/svg"
   xmlns="http://www.w3.org/2000/svg"
   xmlns:sodipodi="http://sodipodi.sourceforge.net/DTD/sodipodi-0.dtd"
   xmlns:inkscape="http://www.inkscape.org/namespaces/inkscape"
   id="svg3109"
   version="1.1"
   inkscape:version="0.46+devel r21714"
   width="385.86795"
   height="408.34265"
   xml:space="preserve"
   sodipodi:docname="fig_ReynoldsOreillyArchSimBCD.svg"
   inkscape:output_extension="org.inkscape.output.svg.inkscape"
   inkscape:export-filename="/Users/oreilly/svn_docs/figs/fig_ReynoldsOreillyArchSimBCD.png"
   inkscape:export-xdpi="90"
   inkscape:export-ydpi="90"><metadata
     id="metadata3115"><rdf:RDF><cc:Work
         rdf:about=""><dc:format>image/svg+xml</dc:format><dc:type
           rdf:resource="http://purl.org/dc/dcmitype/StillImage" /><dc:title></dc:title></cc:Work></rdf:RDF></metadata><defs
     id="defs3113"><inkscape:perspective
       sodipodi:type="inkscape:persp3d"
       inkscape:vp_x="0 : 0.5 : 1"
       inkscape:vp_y="0 : 1000 : 0"
       inkscape:vp_z="1 : 0.5 : 1"
       inkscape:persp3d-origin="0.5 : 0.33333333 : 1"
       id="perspective3117" /></defs><sodipodi:namedview
     pagecolor="#ffffff"
     bordercolor="#666666"
     borderopacity="1"
     objecttolerance="10"
     gridtolerance="10"
     guidetolerance="10"
     inkscape:pageopacity="0"
     inkscape:pageshadow="2"
     inkscape:window-width="1487"
     inkscape:window-height="1060"
     id="namedview3111"
     showgrid="false"
     inkscape:zoom="2.1454545"
     inkscape:cx="140.53566"
     inkscape:cy="241.51774"
     inkscape:window-x="0"
     inkscape:window-y="0"
     inkscape:window-maximized="0"
     inkscape:current-layer="g3119" /><g
     id="g3119"
     inkscape:groupmode="layer"
     inkscape:label="fig_ReynoldsOreillyArchSim1and2"
     transform="matrix(1.25,0,0,-1.25,-502.48829,421.25413)"><g
       id="g3121" /><path
       d="m 534.601,106.474 170.323,0 0,-42.49181 -170.323,0 0,42.49181 z"
       style="fill:none;stroke:#f51421;stroke-width:1;stroke-linecap:round;stroke-linejoin:round;stroke-miterlimit:10;stroke-opacity:1;stroke-dasharray:none"
       id="path3361" /><path
       id="path3363"
       style="fill:#ffffff;fill-opacity:1;fill-rule:nonzero;stroke:none"
       d="m 429.141,69.03317 77.10809,0 0,34.12981 -77.10809,0 0,-34.12981 z" /><path
       d="m 429.141,103.163 77.10809,0 0,-34.12981 -77.10809,0 0,34.12981 z"
       style="fill:none;stroke:#1a13f9;stroke-width:1;stroke-linecap:round;stroke-linejoin:round;stroke-miterlimit:10;stroke-opacity:1;stroke-dasharray:none"
       id="path3367" /><path
       d="m 540.431,103.314 77.10815,0 0,-34.12981 -77.10815,0 0,34.12981 z"
       style="fill:none;stroke:#f80b1d;stroke-width:1;stroke-linecap:round;stroke-linejoin:round;stroke-miterlimit:10;stroke-opacity:1;stroke-dasharray:none"
       id="path3385" /><path
       d="m 540.431,44.959 77.10815,0 0,-34.12982 -77.10815,0 0,34.12982 z"
       style="fill:none;stroke:#f80b1d;stroke-width:1;stroke-linecap:round;stroke-linejoin:round;stroke-miterlimit:10;stroke-opacity:1;stroke-dasharray:none"
       id="path3409" /><path
       d="M 526.6011,85.7611 514.249,85.8317"
       style="fill:none;stroke:#f80b1d;stroke-width:1;stroke-linecap:round;stroke-linejoin:round;stroke-miterlimit:10;stroke-opacity:1;stroke-dasharray:none"
       id="path3425" /><path
       id="path3427"
       style="fill:#f80b1d;fill-opacity:1;fill-rule:nonzero;stroke:none"
       d="m 508.6491,85.86377 5.5878,-2.13199 0.0241,4.19992 -5.6119,-2.06793 z" /><path
       d="m 508.6491,85.8638 5.5878,-2.132 0.0241,4.1999 -5.6119,-2.0679 z"
       style="fill:none;stroke:#f80b1d;stroke-width:1;stroke-linecap:butt;stroke-linejoin:miter;stroke-miterlimit:10;stroke-opacity:1;stroke-dasharray:none"
       id="path3431" /><path
       id="path3433"
       style="fill:#f80b1d;fill-opacity:1;fill-rule:nonzero;stroke:none"
       d="m 532.201,85.72903 -5.5878,2.13199 -0.0241,-4.19992 5.6119,2.06793 z" /><path
       d="m 532.201,85.729 -5.5878,2.132 -0.0241,-4.1999 5.6119,2.0679 z"
       style="fill:none;stroke:#f80b1d;stroke-width:1;stroke-linecap:butt;stroke-linejoin:miter;stroke-miterlimit:10;stroke-opacity:1;stroke-dasharray:none"
       id="path3437" /><path
       d="m 554.968,69.184 0,-17.48"
       style="fill:none;stroke:#f80b1d;stroke-width:1;stroke-linecap:round;stroke-linejoin:round;stroke-miterlimit:10;stroke-opacity:1;stroke-dasharray:none"
       id="path3441" /><path
       id="path3443"
       style="fill:#f80b1d;fill-opacity:1;fill-rule:nonzero;stroke:none"
       d="m 554.968,46.104 2.1,5.60001 -4.2,0 2.1,-5.60001 z" /><path
       d="m 554.968,46.104 2.1,5.6 -4.2,0 2.1,-5.6 z"
       style="fill:none;stroke:#f80b1d;stroke-width:1;stroke-linecap:butt;stroke-linejoin:miter;stroke-miterlimit:10;stroke-opacity:1;stroke-dasharray:none"
       id="path3447" /><path
       d="m 584.211,44.959 0,16.574"
       style="fill:none;stroke:#f80b1d;stroke-width:1;stroke-linecap:round;stroke-linejoin:round;stroke-miterlimit:10;stroke-opacity:1;stroke-dasharray:none"
       id="path3451" /><path
       id="path3453"
       style="fill:#f80b1d;fill-opacity:1;fill-rule:nonzero;stroke:none"
       d="m 584.211,67.133 -2.1,-5.60001 4.2,0 -2.1,5.60001 z" /><path
       d="m 584.211,67.133 -2.1,-5.6 4.2,0 -2.1,5.6 z"
       style="fill:none;stroke:#f80b1d;stroke-width:1;stroke-linecap:butt;stroke-linejoin:miter;stroke-miterlimit:10;stroke-opacity:1;stroke-dasharray:none"
       id="path3457" /><path
       id="path3459"
       style="fill:#ffffff;fill-opacity:1;fill-rule:nonzero;stroke:none"
       d="m 563.711,47.603 41,0 0,11 -41,0 0,-11 z" /><text
       transform="scale(1,-1)"
       id="text3463"
       x="568.45319"
       y="-50.103001"><tspan
         style="font-size:9px;font-variant:normal;font-weight:normal;writing-mode:lr-tb;fill:#fb0018;fill-opacity:1;fill-rule:nonzero;stroke:none;font-family:Helvetica;-inkscape-font-specification:Helvetica"
         x="568.45319 571.4502 576.45416 581.45819 583.96021 585.95819 590.96222 595.96619"
         y="-50.103001"
         sodipodi:role="line"
         id="tspan3465">(gating)</tspan></text>
<path
       d="m 622.833,103.163 77.10815,0 0,-34.12981 -77.10815,0 0,34.12981 z"
       style="fill:none;stroke:#f80b1d;stroke-width:1;stroke-linecap:round;stroke-linejoin:round;stroke-miterlimit:10;stroke-opacity:1;stroke-dasharray:none"
       id="path3471" /><path
       d="m 622.833,44.959 77.10815,0 0,-34.12982 -77.10815,0 0,34.12982 z"
       style="fill:none;stroke:#f80b1d;stroke-width:1;stroke-linecap:round;stroke-linejoin:round;stroke-miterlimit:10;stroke-opacity:1;stroke-dasharray:none"
       id="path3495" /><path
       d="m 637.368,69.033 0,-16.574"
       style="fill:none;stroke:#f80b1d;stroke-width:1;stroke-linecap:round;stroke-linejoin:round;stroke-miterlimit:10;stroke-opacity:1;stroke-dasharray:none"
       id="path3511" /><path
       id="path3513"
       style="fill:#f80b1d;fill-opacity:1;fill-rule:nonzero;stroke:none"
       d="m 637.368,46.85901 2.1,5.6 -4.2,0 2.1,-5.6 z" /><path
       d="m 637.368,46.859 2.1,5.6 -4.2,0 2.1,-5.6 z"
       style="fill:none;stroke:#f80b1d;stroke-width:1;stroke-linecap:butt;stroke-linejoin:miter;stroke-miterlimit:10;stroke-opacity:1;stroke-dasharray:none"
       id="path3517" /><path
       d="m 679.369,44.959 0,17.48"
       style="fill:none;stroke:#f80b1d;stroke-width:1;stroke-linecap:round;stroke-linejoin:round;stroke-miterlimit:10;stroke-opacity:1;stroke-dasharray:none"
       id="path3521" /><path
       id="path3523"
       style="fill:#f80b1d;fill-opacity:1;fill-rule:nonzero;stroke:none"
       d="m 679.369,68.039 -2.1,-5.6 4.2,0 -2.1,5.6 z" /><path
       d="m 679.369,68.039 -2.1,-5.6 4.2,0 -2.1,5.6 z"
       style="fill:none;stroke:#f80b1d;stroke-width:1;stroke-linecap:butt;stroke-linejoin:miter;stroke-miterlimit:10;stroke-opacity:1;stroke-dasharray:none"
       id="path3527" /><path
       id="path3529"
       style="fill:#ffffff;fill-opacity:1;fill-rule:nonzero;stroke:none"
       d="m 658.869,48.59299 41,0 0,11 -41,0 0,-11 z" /><text
       transform="scale(1,-1)"
       id="text3533"
       x="663.61121"
       y="-51.092991"><tspan
         style="font-size:9px;font-variant:normal;font-weight:normal;writing-mode:lr-tb;fill:#fb0018;fill-opacity:1;fill-rule:nonzero;stroke:none;font-family:Helvetica;-inkscape-font-specification:Helvetica"
         x="663.61121 666.60822 671.61218 676.61621 679.11816 681.11621 686.12018 691.12421"
         y="-51.092991"
         sodipodi:role="line"
         id="tspan3535">(gating)</tspan></text>
<path
       d="M 636.8192,68.7447 609.679,49.5745"
       style="fill:none;stroke:#f80b1d;stroke-width:1.6;stroke-linecap:round;stroke-linejoin:round;stroke-miterlimit:10;stroke-opacity:1;stroke-dasharray:none"
       id="path3539" /><path
       id="path3541"
       style="fill:#f80b1d;fill-opacity:1;fill-rule:nonzero;stroke:none"
       d="m 605.1049,46.34363 5.7856,1.51556 -2.4231,3.43054 -3.3625,-4.9461 z" /><path
       d="m 605.1049,46.3436 5.7856,1.5156 -2.4231,3.4305 -3.3625,-4.9461 z"
       style="fill:none;stroke:#f80b1d;stroke-width:1;stroke-linecap:butt;stroke-linejoin:miter;stroke-miterlimit:10;stroke-opacity:1;stroke-dasharray:none"
       id="path3545" /><text
       transform="scale(1,-1)"
       id="text3555"
       x="402.00909"
       y="-318.5033"><tspan
         style="font-size:24px;font-variant:normal;font-weight:normal;writing-mode:lr-tb;fill:#000000;fill-opacity:1;fill-rule:nonzero;stroke:none;font-family:Helvetica;-inkscape-font-specification:Helvetica"
         x="402.00909"
         y="-318.5033"
         id="tspan3557">B</tspan></text>
<path
       d="m 534.601,336.5033 170.323,0 0,-42.49179 -170.323,0 0,42.49179 z"
       style="fill:none;stroke:#f51421;stroke-width:1;stroke-linecap:round;stroke-linejoin:round;stroke-miterlimit:10;stroke-opacity:1;stroke-dasharray:none"
       id="path3563" /><path
       id="path3565"
       style="fill:#ffffff;fill-opacity:1;fill-rule:nonzero;stroke:none"
       d="m 429.141,299.0625 77.10809,0 0,34.12979 -77.10809,0 0,-34.12979 z" /><path
       d="m 429.141,333.19229 77.10809,0 0,-34.12979 -77.10809,0 0,34.12979 z"
       style="fill:none;stroke:#1a13f9;stroke-width:1;stroke-linecap:round;stroke-linejoin:round;stroke-miterlimit:10;stroke-opacity:1;stroke-dasharray:none"
       id="path3569" /><path
       d="m 540.431,333.34329 77.10815,0 0,-34.12979 -77.10815,0 0,34.12979 z"
       style="fill:none;stroke:#f80b1d;stroke-width:1;stroke-linecap:round;stroke-linejoin:round;stroke-miterlimit:10;stroke-opacity:1;stroke-dasharray:none"
       id="path3587" /><path
       d="m 540.431,272.4527 77.10815,0 0,-37.59421 -77.10815,0 0,37.59421 z"
       style="fill:none;stroke:#f80b1d;stroke-width:1;stroke-linecap:round;stroke-linejoin:round;stroke-miterlimit:10;stroke-opacity:1;stroke-dasharray:none"
       id="path3611" /><path
       d="m 526.6011,315.79041 -12.3521,0.0706"
       style="fill:none;stroke:#f80b1d;stroke-width:1;stroke-linecap:round;stroke-linejoin:round;stroke-miterlimit:10;stroke-opacity:1;stroke-dasharray:none"
       id="path3627" /><path
       id="path3629"
       style="fill:#f80b1d;fill-opacity:1;fill-rule:nonzero;stroke:none"
       d="m 508.6491,315.8931 5.5878,-2.132 0.0241,4.1999 -5.6119,-2.0679 z" /><path
       d="m 508.6491,315.8931 5.5878,-2.13199 0.0241,4.19992 -5.6119,-2.06793 z"
       style="fill:none;stroke:#f80b1d;stroke-width:1;stroke-linecap:butt;stroke-linejoin:miter;stroke-miterlimit:10;stroke-opacity:1;stroke-dasharray:none"
       id="path3633" /><path
       id="path3635"
       style="fill:#f80b1d;fill-opacity:1;fill-rule:nonzero;stroke:none"
       d="m 532.201,315.7584 -5.5878,2.132 -0.0241,-4.2 5.6119,2.068 z" /><path
       d="m 532.201,315.75836 -5.5878,2.13199 -0.0241,-4.19992 5.6119,2.06793 z"
       style="fill:none;stroke:#f80b1d;stroke-width:1;stroke-linecap:butt;stroke-linejoin:miter;stroke-miterlimit:10;stroke-opacity:1;stroke-dasharray:none"
       id="path3639" /><path
       d="m 554.968,299.13669 0,-20.0156"
       style="fill:none;stroke:#f80b1d;stroke-width:1;stroke-linecap:round;stroke-linejoin:round;stroke-miterlimit:10;stroke-opacity:1;stroke-dasharray:none"
       id="path3643" /><path
       id="path3645"
       style="fill:#f80b1d;fill-opacity:1;fill-rule:nonzero;stroke:none"
       d="m 554.968,273.5211 2.1,5.6 -4.2,0 2.1,-5.6 z" /><path
       d="m 554.968,273.52112 2.1,5.59997 -4.2,0 2.1,-5.59997 z"
       style="fill:none;stroke:#f80b1d;stroke-width:1;stroke-linecap:butt;stroke-linejoin:miter;stroke-miterlimit:10;stroke-opacity:1;stroke-dasharray:none"
       id="path3649" /><path
       d="m 584.211,272.4527 0,19.01761"
       style="fill:none;stroke:#f80b1d;stroke-width:1;stroke-linecap:round;stroke-linejoin:round;stroke-miterlimit:10;stroke-opacity:1;stroke-dasharray:none"
       id="path3653" /><path
       id="path3655"
       style="fill:#f80b1d;fill-opacity:1;fill-rule:nonzero;stroke:none"
       d="m 584.211,297.0703 -2.1,-5.6 4.2,0 -2.1,5.6 z" /><path
       d="m 584.211,297.07031 -2.1,-5.6 4.2,0 -2.1,5.6 z"
       style="fill:none;stroke:#f80b1d;stroke-width:1;stroke-linecap:butt;stroke-linejoin:miter;stroke-miterlimit:10;stroke-opacity:1;stroke-dasharray:none"
       id="path3659" /><path
       id="path3661"
       style="fill:#ffffff;fill-opacity:1;fill-rule:nonzero;stroke:none"
       d="m 563.711,275.9226 41,0 0,11 -41,0 0,-11 z" /><text
       transform="scale(1,-1)"
       id="text3665"
       x="568.45319"
       y="-278.42261"><tspan
         style="font-size:9px;font-variant:normal;font-weight:normal;writing-mode:lr-tb;fill:#fb0018;fill-opacity:1;fill-rule:nonzero;stroke:none;font-family:Helvetica;-inkscape-font-specification:Helvetica"
         x="568.45319 571.4502 576.45416 581.45819 583.96021 585.95819 590.96222 595.96619"
         y="-278.42261"
         sodipodi:role="line"
         id="tspan3667">(gating)</tspan></text>
<path
       d="m 622.833,333.19229 77.10815,0 0,-34.12979 -77.10815,0 0,34.12979 z"
       style="fill:none;stroke:#f80b1d;stroke-width:1;stroke-linecap:round;stroke-linejoin:round;stroke-miterlimit:10;stroke-opacity:1;stroke-dasharray:none"
       id="path3673" /><path
       d="m 622.833,272.4527 77.10815,0 0,-37.59421 -77.10815,0 0,37.59421 z"
       style="fill:none;stroke:#f80b1d;stroke-width:1;stroke-linecap:round;stroke-linejoin:round;stroke-miterlimit:10;stroke-opacity:1;stroke-dasharray:none"
       id="path3697" /><path
       d="m 637.369,298.97031 0,-19.01761"
       style="fill:none;stroke:#f80b1d;stroke-width:1;stroke-linecap:round;stroke-linejoin:round;stroke-miterlimit:10;stroke-opacity:1;stroke-dasharray:none"
       id="path3713" /><path
       id="path3715"
       style="fill:#f80b1d;fill-opacity:1;fill-rule:nonzero;stroke:none"
       d="m 637.369,274.3527 2.1,5.6 -4.2,0 2.1,-5.6 z" /><path
       d="m 637.369,274.35269 2.1,5.60001 -4.2,0 2.1,-5.60001 z"
       style="fill:none;stroke:#f80b1d;stroke-width:1;stroke-linecap:butt;stroke-linejoin:miter;stroke-miterlimit:10;stroke-opacity:1;stroke-dasharray:none"
       id="path3719" /><path
       d="m 679.369,272.4527 0,20.01559"
       style="fill:none;stroke:#f80b1d;stroke-width:1;stroke-linecap:round;stroke-linejoin:round;stroke-miterlimit:10;stroke-opacity:1;stroke-dasharray:none"
       id="path3723" /><path
       id="path3725"
       style="fill:#f80b1d;fill-opacity:1;fill-rule:nonzero;stroke:none"
       d="m 679.369,298.0683 -2.1,-5.6 4.2,0 -2.1,5.6 z" /><path
       d="m 679.369,298.0683 -2.1,-5.60001 4.2,0 -2.1,5.60001 z"
       style="fill:none;stroke:#f80b1d;stroke-width:1;stroke-linecap:butt;stroke-linejoin:miter;stroke-miterlimit:10;stroke-opacity:1;stroke-dasharray:none"
       id="path3729" /><path
       id="path3731"
       style="fill:#ffffff;fill-opacity:1;fill-rule:nonzero;stroke:none"
       d="m 658.869,277.014 41,0 0,11 -41,0 0,-11 z" /><text
       transform="scale(1,-1)"
       id="text3735"
       x="663.61121"
       y="-279.51401"><tspan
         style="font-size:9px;font-variant:normal;font-weight:normal;writing-mode:lr-tb;fill:#fb0018;fill-opacity:1;fill-rule:nonzero;stroke:none;font-family:Helvetica;-inkscape-font-specification:Helvetica"
         x="663.61121 666.60822 671.61218 676.61621 679.11816 681.11621 686.12018 691.12421"
         y="-279.51401"
         sodipodi:role="line"
         id="tspan3737">(gating)</tspan></text>
<path
       d="m 429.141,216.833 77.10809,0 0,-34.12979 -77.10809,0 0,34.12979 z"
       style="fill:none;stroke:#1a13f9;stroke-width:1;stroke-linecap:round;stroke-linejoin:round;stroke-miterlimit:10;stroke-opacity:1;stroke-dasharray:none"
       id="path3743" /><path
       d="m 531.765,216.508 77.10815,0 0,-34.12979 -77.10815,0 0,34.12979 z"
       style="fill:none;stroke:#f80b1d;stroke-width:1;stroke-linecap:round;stroke-linejoin:round;stroke-miterlimit:10;stroke-opacity:1;stroke-dasharray:none"
       id="path3761" /><path
       id="path3781"
       style="fill:#ffffff;fill-opacity:1;fill-rule:nonzero;stroke:none"
       d="m 531.765,124.4992 77.10815,0 0,34.12979 -77.10815,0 0,-34.12979 z" /><path
       d="m 531.765,158.629 77.10815,0 0,-34.12979 -77.10815,0 0,34.12979 z"
       style="fill:none;stroke:#f80b1d;stroke-width:1;stroke-linecap:round;stroke-linejoin:round;stroke-miterlimit:10;stroke-opacity:1;stroke-dasharray:none"
       id="path3785" /><path
       d="m 523.7651,199.5905 -9.5161,0.0302"
       style="fill:none;stroke:#f80b1d;stroke-width:1;stroke-linecap:round;stroke-linejoin:round;stroke-miterlimit:10;stroke-opacity:1;stroke-dasharray:none"
       id="path3801" /><path
       id="path3803"
       style="fill:#f80b1d;fill-opacity:1;fill-rule:nonzero;stroke:none"
       d="m 508.649,199.6384 5.5934,-2.1177 0.0133,4.2 -5.6067,-2.0823 z" /><path
       d="m 508.649,199.6384 5.5934,-2.1177 0.0133,4.2 -5.6067,-2.0823 z"
       style="fill:none;stroke:#f80b1d;stroke-width:1;stroke-linecap:butt;stroke-linejoin:miter;stroke-miterlimit:10;stroke-opacity:1;stroke-dasharray:none"
       id="path3807" /><path
       id="path3809"
       style="fill:#f80b1d;fill-opacity:1;fill-rule:nonzero;stroke:none"
       d="m 529.3651,199.5728 -5.5934,2.1177 -0.0133,-4.1999 5.6067,2.0822 z" /><path
       d="m 529.3651,199.5728 -5.5934,2.1177 -0.0133,-4.1999 5.6067,2.0822 z"
       style="fill:none;stroke:#f80b1d;stroke-width:1;stroke-linecap:butt;stroke-linejoin:miter;stroke-miterlimit:10;stroke-opacity:1;stroke-dasharray:none"
       id="path3813" /><path
       d="m 546.302,182.379 0,-17.005"
       style="fill:none;stroke:#f80b1d;stroke-width:1;stroke-linecap:round;stroke-linejoin:round;stroke-miterlimit:10;stroke-opacity:1;stroke-dasharray:none"
       id="path3817" /><path
       id="path3819"
       style="fill:#f80b1d;fill-opacity:1;fill-rule:nonzero;stroke:none"
       d="m 546.302,159.774 2.1,5.6 -4.2,0 2.1,-5.6 z" /><path
       d="m 546.302,159.774 2.1,5.6 -4.2,0 2.1,-5.6 z"
       style="fill:none;stroke:#f80b1d;stroke-width:1;stroke-linecap:butt;stroke-linejoin:miter;stroke-miterlimit:10;stroke-opacity:1;stroke-dasharray:none"
       id="path3823" /><path
       d="m 575.545,158.629 0,16.25"
       style="fill:none;stroke:#f80b1d;stroke-width:1;stroke-linecap:round;stroke-linejoin:round;stroke-miterlimit:10;stroke-opacity:1;stroke-dasharray:none"
       id="path3827" /><path
       id="path3829"
       style="fill:#f80b1d;fill-opacity:1;fill-rule:nonzero;stroke:none"
       d="m 575.545,180.479 -2.1,-5.6 4.2,0 -2.1,5.6 z" /><path
       d="m 575.545,180.479 -2.1,-5.6 4.2,0 -2.1,5.6 z"
       style="fill:none;stroke:#f80b1d;stroke-width:1;stroke-linecap:butt;stroke-linejoin:miter;stroke-miterlimit:10;stroke-opacity:1;stroke-dasharray:none"
       id="path3833" /><path
       id="path3835"
       style="fill:#ffffff;fill-opacity:1;fill-rule:nonzero;stroke:none"
       d="m 555.045,161.163 41,0 0,11 -41,0 0,-11 z" /><text
       transform="scale(1,-1)"
       id="text3839"
       x="559.78717"
       y="-163.66299"><tspan
         style="font-size:9px;font-variant:normal;font-weight:normal;writing-mode:lr-tb;fill:#fb0018;fill-opacity:1;fill-rule:nonzero;stroke:none;font-family:Helvetica;-inkscape-font-specification:Helvetica"
         x="559.78717 562.78418 567.78821 572.79218 575.29419 577.29218 582.2962 587.30017"
         y="-163.66299"
         sodipodi:role="line"
         id="tspan3841">(gating)</tspan></text>
<path
       d="m 632.505,216.833 77.10815,0 0,-34.12979 -77.10815,0 0,34.12979 z"
       style="fill:none;stroke:#f80b1d;stroke-width:1;stroke-linecap:round;stroke-linejoin:round;stroke-miterlimit:10;stroke-opacity:1;stroke-dasharray:none"
       id="path3847" /><path
       d="m 632.577,159.21 77.10815,0 0,-34.12979 -77.10815,0 0,34.12979 z"
       style="fill:none;stroke:#f80b1d;stroke-width:1;stroke-linecap:round;stroke-linejoin:round;stroke-miterlimit:10;stroke-opacity:1;stroke-dasharray:none"
       id="path3871" /><path
       d="m 647.113,182.379 0,-15.245"
       style="fill:none;stroke:#f80b1d;stroke-width:1;stroke-linecap:round;stroke-linejoin:round;stroke-miterlimit:10;stroke-opacity:1;stroke-dasharray:none"
       id="path3887" /><path
       id="path3889"
       style="fill:#f80b1d;fill-opacity:1;fill-rule:nonzero;stroke:none"
       d="m 647.113,161.534 2.1,5.6 -4.2,0 2.1,-5.6 z" /><path
       d="m 647.113,161.534 2.1,5.6 -4.2,0 2.1,-5.6 z"
       style="fill:none;stroke:#f80b1d;stroke-width:1;stroke-linecap:butt;stroke-linejoin:miter;stroke-miterlimit:10;stroke-opacity:1;stroke-dasharray:none"
       id="path3893" /><path
       d="m 689.113,159.634 0,15.245"
       style="fill:none;stroke:#f80b1d;stroke-width:1;stroke-linecap:round;stroke-linejoin:round;stroke-miterlimit:10;stroke-opacity:1;stroke-dasharray:none"
       id="path3897" /><path
       id="path3899"
       style="fill:#f80b1d;fill-opacity:1;fill-rule:nonzero;stroke:none"
       d="m 689.113,180.479 -2.1,-5.6 4.2,0 -2.1,5.6 z" /><path
       d="m 689.113,180.479 -2.1,-5.6 4.2,0 -2.1,5.6 z"
       style="fill:none;stroke:#f80b1d;stroke-width:1;stroke-linecap:butt;stroke-linejoin:miter;stroke-miterlimit:10;stroke-opacity:1;stroke-dasharray:none"
       id="path3903" /><path
       id="path3905"
       style="fill:#ffffff;fill-opacity:1;fill-rule:nonzero;stroke:none"
       d="m 668.613,162.451 41,0 0,11 -41,0 0,-11 z" /><text
       transform="scale(1,-1)"
       id="text3909"
       x="673.35516"
       y="-164.951"><tspan
         style="font-size:9px;font-variant:normal;font-weight:normal;writing-mode:lr-tb;fill:#fb0018;fill-opacity:1;fill-rule:nonzero;stroke:none;font-family:Helvetica;-inkscape-font-specification:Helvetica"
         x="673.35516 676.35217 681.3562 686.36017 688.86218 690.86017 695.8642 700.86816"
         y="-164.951"
         sodipodi:role="line"
         id="tspan3911">(gating)</tspan></text>
<path
       d="m 624.5051,199.6179 -7.632,-0.0246"
       style="fill:none;stroke:#f80b1d;stroke-width:1.6;stroke-linecap:round;stroke-linejoin:round;stroke-miterlimit:10;stroke-opacity:1;stroke-dasharray:none"
       id="path3915" /><path
       id="path3917"
       style="fill:#f80b1d;fill-opacity:1;fill-rule:nonzero;stroke:none"
       d="m 611.2731,199.5752 5.6068,-2.0819 -0.0136,4.2 -5.5932,-2.1181 z" /><path
       d="m 611.2731,199.5752 5.6068,-2.0819 -0.0136,4.2 -5.5932,-2.1181 z"
       style="fill:none;stroke:#f80b1d;stroke-width:1;stroke-linecap:butt;stroke-linejoin:miter;stroke-miterlimit:10;stroke-opacity:1;stroke-dasharray:none"
       id="path3921" /><path
       id="path3923"
       style="fill:#f80b1d;fill-opacity:1;fill-rule:nonzero;stroke:none"
       d="m 630.105,199.636 -5.6067,2.0819 0.0135,-4.2 5.5932,2.1181 z" /><path
       d="m 630.105,199.636 -5.6067,2.0819 0.0135,-4.2 5.5932,2.1181 z"
       style="fill:none;stroke:#f80b1d;stroke-width:1;stroke-linecap:butt;stroke-linejoin:miter;stroke-miterlimit:10;stroke-opacity:1;stroke-dasharray:none"
       id="path3927" /><text
       transform="scale(1,-1)"
       id="text3935"
       x="400.64297"
       y="-199.68401"><tspan
         style="font-size:24px;font-variant:normal;font-weight:normal;writing-mode:lr-tb;fill:#000000;fill-opacity:1;fill-rule:nonzero;stroke:none;font-family:Helvetica;-inkscape-font-specification:Helvetica"
         x="400.64297"
         y="-199.68401"
         id="tspan3937">C</tspan></text>
<text
       transform="scale(1,-1)"
       id="text3941"
       x="401.84698"
       y="-89"><tspan
         style="font-size:24px;font-variant:normal;font-weight:normal;writing-mode:lr-tb;fill:#000000;fill-opacity:1;fill-rule:nonzero;stroke:none;font-family:Helvetica;-inkscape-font-specification:Helvetica"
         x="401.84698"
         y="-89"
         id="tspan3943">D</tspan></text>
<path
       d="m 429.141,225.517 275.783,0"
       style="fill:none;stroke:#000000;stroke-width:2;stroke-linecap:round;stroke-linejoin:round;stroke-miterlimit:10;stroke-opacity:1;stroke-dasharray:none"
       id="path3947" /><path
       d="m 429.141,111.5 280.544,0"
       style="fill:none;stroke:#000000;stroke-width:2;stroke-linecap:round;stroke-linejoin:round;stroke-miterlimit:10;stroke-opacity:1;stroke-dasharray:none"
       id="path3951" /><text
       xml:space="preserve"
       style="font-size:32px;font-style:normal;font-weight:normal;fill:#000000;fill-opacity:1;stroke:none;font-family:Bitstream Vera Sans"
       x="553.3559"
       y="-310.23727"
       id="text4607"
       transform="scale(1,-1)"><tspan
         sodipodi:role="line"
         id="tspan4609"
         x="553.3559"
         y="-310.23727"
         style="font-size:16px">PFC 1</tspan></text>
<text
       xml:space="preserve"
       style="font-size:32px;font-style:normal;font-weight:normal;fill:#000000;fill-opacity:1;stroke:none;font-family:Bitstream Vera Sans"
       x="440.74576"
       y="-319.93219"
       id="text4619"
       transform="scale(1,-1)"><tspan
         sodipodi:role="line"
         id="tspan4621"
         x="440.74576"
         y="-319.93219"
         style="font-size:12.80000019px">Posterior</tspan><tspan
         sodipodi:role="line"
         x="440.74576"
         y="-303.93219"
         id="tspan4623"
         style="font-size:12.80000019px">Cortex</tspan></text>
<text
       transform="scale(1,-1)"
       id="text4625"
       y="-203.5932"
       x="441.49152"
       style="font-size:32px;font-style:normal;font-weight:normal;fill:#000000;fill-opacity:1;stroke:none;font-family:Bitstream Vera Sans"
       xml:space="preserve"><tspan
         style="font-size:12.80000019px"
         y="-203.5932"
         x="441.49152"
         id="tspan4627"
         sodipodi:role="line">Posterior</tspan><tspan
         style="font-size:12.80000019px"
         id="tspan4629"
         y="-187.5932"
         x="441.49152"
         sodipodi:role="line">Cortex</tspan></text>
<text
       transform="scale(1,-1)"
       id="text4639"
       y="-90.983032"
       x="442.98303"
       style="font-size:32px;font-style:normal;font-weight:normal;fill:#000000;fill-opacity:1;stroke:none;font-family:Bitstream Vera Sans"
       xml:space="preserve"><tspan
         style="font-size:12.80000019px"
         y="-90.983032"
         x="442.98303"
         id="tspan4641"
         sodipodi:role="line">Posterior</tspan><tspan
         style="font-size:12.80000019px"
         id="tspan4643"
         y="-74.983032"
         x="442.98303"
         sodipodi:role="line">Cortex</tspan></text>
<text
       transform="scale(1,-1)"
       id="text4647"
       y="-194.64406"
       x="641.3559"
       style="font-size:32px;font-style:normal;font-weight:normal;fill:#280000;fill-opacity:1;stroke:none;font-family:Bitstream Vera Sans"
       xml:space="preserve"><tspan
         style="font-size:16px;fill:#280000;fill-opacity:1"
         y="-194.64406"
         x="641.3559"
         id="tspan4649"
         sodipodi:role="line">Higher</tspan></text>
<text
       transform="scale(1,-1)"
       id="text5423"
       y="-194.64406"
       x="544.40674"
       style="font-size:32px;font-style:normal;font-weight:normal;fill:#000000;fill-opacity:1;stroke:none;font-family:Bitstream Vera Sans"
       xml:space="preserve"><tspan
         style="font-size:16px"
         y="-194.64406"
         x="544.40674"
         id="tspan5425"
         sodipodi:role="line">Lower</tspan></text>
<text
       xml:space="preserve"
       style="font-size:32px;font-style:normal;font-weight:normal;fill:#000000;fill-opacity:1;stroke:none;font-family:Bitstream Vera Sans"
       x="554.84741"
       y="-21.62711"
       id="text5427"
       transform="scale(1,-1)"><tspan
         sodipodi:role="line"
         id="tspan5429"
         x="554.84741"
         y="-21.62711"
         style="font-size:16px">Lower</tspan></text>
<text
       xml:space="preserve"
       style="font-size:32px;font-style:normal;font-weight:normal;fill:#280000;fill-opacity:1;stroke:none;font-family:Bitstream Vera Sans"
       x="633.89825"
       y="-21.62711"
       id="text5431"
       transform="scale(1,-1)"><tspan
         sodipodi:role="line"
         id="tspan5433"
         x="633.89825"
         y="-21.62711"
         style="font-size:16px;fill:#280000;fill-opacity:1">Higher</tspan></text>
<text
       transform="scale(1,-1)"
       id="text5435"
       y="-310.98303"
       x="638.37286"
       style="font-size:32px;font-style:normal;font-weight:normal;fill:#000000;fill-opacity:1;stroke:none;font-family:Bitstream Vera Sans"
       xml:space="preserve"><tspan
         style="font-size:16px"
         y="-310.98303"
         x="638.37286"
         id="tspan5437"
         sodipodi:role="line">PFC 2</tspan></text>
<text
       xml:space="preserve"
       style="font-size:40px;font-style:normal;font-weight:normal;fill:#000000;fill-opacity:1;stroke:none;font-family:Bitstream Vera Sans"
       x="699.15253"
       y="136.10168"
       id="text5439"
       transform="matrix(0.8,0,0,-0.8,0,352)"><tspan
         sodipodi:role="line"
         id="tspan5441"
         x="699.15253"
         y="136.10168" /></text>
<text
       transform="scale(1,-1)"
       id="text5443"
       y="-246.84744"
       x="557.83044"
       style="font-size:32px;font-style:normal;font-weight:normal;fill:#000000;fill-opacity:1;stroke:none;font-family:Bitstream Vera Sans"
       xml:space="preserve"><tspan
         style="font-size:16px"
         y="-246.84744"
         x="557.83044"
         id="tspan5445"
         sodipodi:role="line">BG 1</tspan></text>
<text
       xml:space="preserve"
       style="font-size:32px;font-style:normal;font-weight:normal;fill:#000000;fill-opacity:1;stroke:none;font-family:Bitstream Vera Sans"
       x="645.83051"
       y="-246.84744"
       id="text5447"
       transform="scale(1,-1)"><tspan
         sodipodi:role="line"
         id="tspan5449"
         x="645.83051"
         y="-246.84744"
         style="font-size:16px">BG 2</tspan></text>
<text
       transform="scale(1,-1)"
       id="text5451"
       y="-79.796593"
       x="555.5932"
       style="font-size:32px;font-style:normal;font-weight:normal;fill:#000000;fill-opacity:1;stroke:none;font-family:Bitstream Vera Sans"
       xml:space="preserve"><tspan
         style="font-size:16px"
         y="-79.796593"
         x="555.5932"
         id="tspan5453"
         sodipodi:role="line">PFC 1</tspan></text>
<text
       xml:space="preserve"
       style="font-size:32px;font-style:normal;font-weight:normal;fill:#000000;fill-opacity:1;stroke:none;font-family:Bitstream Vera Sans"
       x="641.3559"
       y="-79.796593"
       id="text5455"
       transform="scale(1,-1)"><tspan
         sodipodi:role="line"
         id="tspan5457"
         x="641.3559"
         y="-79.796593"
         style="font-size:16px">PFC 2</tspan></text>
<text
       xml:space="preserve"
       style="font-size:32px;font-style:normal;font-weight:normal;fill:#000000;fill-opacity:1;stroke:none;font-family:Bitstream Vera Sans"
       x="552.61011"
       y="-136.47456"
       id="text5459"
       transform="scale(1,-1)"><tspan
         sodipodi:role="line"
         id="tspan5461"
         x="552.61011"
         y="-136.47456"
         style="font-size:16px">BG 1</tspan></text>
<text
       transform="scale(1,-1)"
       id="text5463"
       y="-135.72879"
       x="651.05084"
       style="font-size:32px;font-style:normal;font-weight:normal;fill:#000000;fill-opacity:1;stroke:none;font-family:Bitstream Vera Sans"
       xml:space="preserve"><tspan
         style="font-size:16px"
         y="-135.72879"
         x="651.05084"
         id="tspan5465"
         sodipodi:role="line">BG 2</tspan></text>
</g></svg>