<?xml version="1.0" encoding="ISO-8859-1" standalone="yes"?>
<svg width="224.195" height="240.242">
  <defs> 
    <marker id="ArrowEnd" viewBox="0 0 10 10" refX="0" refY="5" 
     markerUnits="strokeWidth" 
     markerWidth="4" 
     markerHeight="3" 
     orient="auto"> 
        <path d="M 0 0 L 10 5 L 0 10 z" /> 
    </marker>
    <marker id="ArrowStart" viewBox="0 0 10 10" refX="10" refY="5" 
     markerUnits="strokeWidth" 
     markerWidth="4" 
     markerHeight="3" 
     orient="auto"> 
        <path d="M 10 0 L 0 5 L 10 10 z" /> 
    </marker> </defs>
<g>
<path style="stroke:none; fill-rule:evenodd; fill:#000000" d="M 54.6485 202.14C 53.4414 202.14 52.3438 202.66 51.6641 203.539C 50.8243 204.676 50.4024 206.422 50.4024 208.824C 50.4024 213.207 51.8672 215.535 54.6524 215.535C 57.3985 215.535 58.9024 213.207 58.9024 208.933C 58.9024 206.402 58.5 204.715 57.6407 203.539C 56.9649 202.644 55.8828 202.14 54.6563 202.14L 54.6485 202.14zM 54.6485 203.539C 56.3516 203.539 57.1954 205.308 57.1954 208.804C 57.1954 212.504 56.3711 214.234 54.6094 214.234C 52.9414 214.234 52.0977 212.433 52.0977 208.859C 52.0977 205.289 52.9414 203.539 54.6446 203.539L 54.6485 203.539z"/>
<path style="stroke:none; fill-rule:evenodd; fill:#000000" d="M 90.3986 205.879L 90.3986 215.136L 91.9966 215.136L 91.9966 202.136L 90.9256 202.136C 90.3556 204.133 89.9886 204.41 87.4766 204.722L 87.4766 205.875L 90.3986 205.879z"/>
<path style="stroke:none; fill-rule:evenodd; fill:#000000" d="M 130.907 213.539L 124.047 213.539C 124.211 212.476 124.801 211.801 126.399 210.867L 128.235 209.879C 130.055 208.89 130.993 207.554 130.993 205.961C 130.993 204.883 130.551 203.875 129.778 203.176C 129.008 202.48 128.051 202.152 126.817 202.152C 125.164 202.152 123.93 202.734 123.215 203.828C 122.758 204.519 122.555 205.32 122.52 206.633L 124.125 206.633C 124.18 205.758 124.286 205.23 124.508 204.812C 124.926 204.031 125.766 203.554 126.735 203.554C 128.196 203.554 129.293 204.601 129.293 205.992C 129.293 207.019 128.692 207.898 127.54 208.558L 125.86 209.511C 123.157 211.051 122.372 212.281 122.223 215.144L 130.903 215.144L 130.907 213.539z"/>
<path style="stroke:none; fill-rule:evenodd; fill:#000000" d="M 161.664 209.14L 162.532 209.14C 164.29 209.14 165.196 209.949 165.196 211.519C 165.196 213.16 164.192 214.136 162.512 214.136C 160.762 214.136 159.903 213.254 159.793 211.351L 158.188 211.351C 158.258 212.394 158.442 213.07 158.754 213.656C 159.414 214.898 160.7 215.539 162.481 215.539C 165.161 215.539 166.891 213.949 166.891 211.496C 166.891 209.851 166.25 208.933 164.692 208.406C 165.891 207.933 166.489 207.015 166.489 205.718C 166.489 203.488 165.004 202.148 162.528 202.148C 159.907 202.148 158.512 203.566 158.457 206.316L 160.059 206.316C 160.075 205.535 160.149 205.097 160.348 204.695C 160.711 203.984 161.512 203.547 162.512 203.547C 163.93 203.547 164.786 204.379 164.786 205.734C 164.786 206.636 164.461 207.179 163.762 207.468C 163.332 207.648 162.774 207.722 161.657 207.738L 161.664 209.14z"/>
<path style="stroke:none; fill-rule:evenodd; fill:#000000" d="M 199.602 211.937L 199.602 215.136L 201.2 215.136L 201.2 211.937L 203.164 211.937L 203.164 210.539L 201.2 210.539L 201.2 202.14L 200.012 202.14L 194.122 210.25L 194.122 211.937L 199.602 211.937zM 199.602 210.539L 195.536 210.539L 199.602 204.859L 199.602 210.539z"/>
<path style="stroke:#000000; stroke-width:1.59941; fill:none" d="M 35.8789 195.07L 215.813 195.07"/>
<path style="stroke:#000000; stroke-width:1.59941; fill:none" d="M 53.4766 195.07L 53.4766 199.867"/>
<path style="stroke:#000000; stroke-width:1.59941; fill:none" d="M 89.4606 195.07L 89.4606 199.867"/>
<path style="stroke:#000000; stroke-width:1.59941; fill:none" d="M 125.45 195.07L 125.45 199.867"/>
<path style="stroke:#000000; stroke-width:1.59941; fill:none" d="M 161.434 195.07L 161.434 199.867"/>
<path style="stroke:#000000; stroke-width:1.59941; fill:none" d="M 197.422 195.07L 197.422 199.867"/>
<path style="stroke:none; fill-rule:evenodd; fill:#000000" d="M 27.1485 165.64C 25.9414 165.64 24.8438 166.16 24.1641 167.039C 23.3243 168.176 22.9024 169.922 22.9024 172.324C 22.9024 176.707 24.3672 179.035 27.1524 179.035C 29.8985 179.035 31.4024 176.707 31.4024 172.433C 31.4024 169.902 31 168.215 30.1407 167.039C 29.4649 166.144 28.3828 165.64 27.1563 165.64L 27.1485 165.64zM 27.1485 167.039C 28.8516 167.039 29.6954 168.808 29.6954 172.304C 29.6954 176.004 28.8711 177.734 27.1094 177.734C 25.4414 177.734 24.5977 175.933 24.5977 172.359C 24.5977 168.789 25.4414 167.039 27.1446 167.039L 27.1485 167.039z"/>
<path style="stroke:none; fill-rule:evenodd; fill:#000000" d="M 26.8985 133.378L 26.8985 142.636L 28.4961 142.636L 28.4961 129.636L 27.4258 129.636C 26.8555 131.632 26.4883 131.91 23.9766 132.222L 23.9766 133.375L 26.8985 133.378z"/>
<path style="stroke:none; fill-rule:evenodd; fill:#000000" d="M 31.4063 105.039L 24.5469 105.039C 24.711 103.976 25.3008 103.3 26.8985 102.367L 28.7344 101.378C 30.5547 100.39 31.4922 99.0543 31.4922 97.4603C 31.4922 96.3823 31.0508 95.3753 30.2774 94.6753C 29.5078 93.9803 28.5508 93.6523 27.3164 93.6523C 25.6641 93.6523 24.4297 94.2343 23.7149 95.3283C 23.2578 96.0193 23.0547 96.8203 23.0196 98.1323L 24.625 98.1323C 24.6797 97.2573 24.7852 96.7303 25.0078 96.3123C 25.4258 95.5312 26.2657 95.0543 27.2344 95.0543C 28.6954 95.0543 29.793 96.1013 29.793 97.4922C 29.793 98.5193 29.1914 99.3983 28.0391 100.058L 26.3594 101.011C 23.6563 102.55 22.8711 103.781 22.7227 106.644L 31.4024 106.644L 31.4063 105.039z"/>
<path style="stroke:none; fill-rule:evenodd; fill:#000000" d="M 26.1641 64.6403L 27.0313 64.6403C 28.7891 64.6403 29.6954 65.4492 29.6954 67.0193C 29.6954 68.6603 28.6914 69.6363 27.0118 69.6363C 25.2618 69.6363 24.4024 68.7533 24.293 66.8513L 22.6875 66.8513C 22.7578 67.8943 22.9414 68.5703 23.2539 69.1562C 23.9141 70.3983 25.1993 71.0393 26.9805 71.0393C 29.6602 71.0393 31.3907 69.4492 31.3907 66.9963C 31.3907 65.3513 30.75 64.4333 29.1914 63.9062C 30.3907 63.4333 30.9883 62.5153 30.9883 61.2183C 30.9883 58.9883 29.5039 57.6483 27.0274 57.6483C 24.4063 57.6483 23.0118 59.0663 22.9571 61.8163L 24.5586 61.8163C 24.5743 61.0353 24.6485 60.5973 24.8477 60.1953C 25.211 59.4843 26.0118 59.0462 27.0118 59.0462C 28.4297 59.0462 29.2852 59.8783 29.2852 61.2343C 29.2852 62.1363 28.961 62.6793 28.2618 62.9683C 27.8321 63.1483 27.2735 63.2223 26.1563 63.2383L 26.1641 64.6403z"/>
<path style="stroke:#ffffff; stroke-width:1.59941; fill:none" d="M 35.8789 195.07L 215.813 195.07L 215.813 51.1253L 35.8789 51.1253L 35.8789 195.07z"/>
<path style="stroke:#000000; stroke-width:1.59941; fill:none" d="M 35.8789 195.07L 215.813 195.07"/>
<path style="stroke:#000000; stroke-width:1.59941; fill:none" d="M 53.4766 195.07L 53.4766 189.472"/>
<path style="stroke:#000000; stroke-width:1.59941; fill:none" d="M 89.4606 195.07L 89.4606 189.472"/>
<path style="stroke:#000000; stroke-width:1.59941; fill:none" d="M 125.45 195.07L 125.45 189.472"/>
<path style="stroke:#000000; stroke-width:1.59941; fill:none" d="M 161.434 195.07L 161.434 189.472"/>
<path style="stroke:#000000; stroke-width:1.59941; fill:none" d="M 197.422 195.07L 197.422 189.472"/>
<path style="stroke:#000000; stroke-width:1.59941; fill:none" d="M 35.8789 51.1213L 215.813 51.1213"/>
<path style="stroke:#000000; stroke-width:1.59941; fill:none" d="M 53.4766 51.1213L 53.4766 55.9173"/>
<path style="stroke:#000000; stroke-width:1.59941; fill:none" d="M 89.4606 51.1213L 89.4606 55.9173"/>
<path style="stroke:#000000; stroke-width:1.59941; fill:none" d="M 125.45 51.1213L 125.45 55.9173"/>
<path style="stroke:#000000; stroke-width:1.59941; fill:none" d="M 161.434 51.1213L 161.434 55.9173"/>
<path style="stroke:#000000; stroke-width:1.59941; fill:none" d="M 197.422 51.1213L 197.422 55.9173"/>
<path style="stroke:#000000; stroke-width:1.59941; fill:none" d="M 35.8789 176.676L 40.6758 176.676"/>
<path style="stroke:#000000; stroke-width:1.59941; fill:none" d="M 35.8789 140.687L 40.6758 140.687"/>
<path style="stroke:#000000; stroke-width:1.59941; fill:none" d="M 35.8789 104.703L 40.6758 104.703"/>
<path style="stroke:#000000; stroke-width:1.59941; fill:none" d="M 35.8789 68.7142L 40.6758 68.7142"/>
<path style="stroke:#000000; stroke-width:1.59941; fill:none" d="M 35.8789 191.07L 36.6758 191.07"/>
<path style="stroke:#000000; stroke-width:1.59941; fill:none" d="M 35.8789 183.875L 36.6758 183.875"/>
<path style="stroke:#000000; stroke-width:1.59941; fill:none" d="M 35.8789 169.476L 36.6758 169.476"/>
<path style="stroke:#000000; stroke-width:1.59941; fill:none" d="M 35.8789 162.281L 36.6758 162.281"/>
<path style="stroke:#000000; stroke-width:1.59941; fill:none" d="M 35.8789 155.085L 36.6758 155.085"/>
<path style="stroke:#000000; stroke-width:1.59941; fill:none" d="M 35.8789 147.886L 36.6758 147.886"/>
<path style="stroke:#000000; stroke-width:1.59941; fill:none" d="M 35.8789 133.492L 36.6758 133.492"/>
<path style="stroke:#000000; stroke-width:1.59941; fill:none" d="M 35.8789 126.292L 36.6758 126.292"/>
<path style="stroke:#000000; stroke-width:1.59941; fill:none" d="M 35.8789 119.097L 36.6758 119.097"/>
<path style="stroke:#000000; stroke-width:1.59941; fill:none" d="M 35.8789 111.902L 36.6758 111.902"/>
<path style="stroke:#000000; stroke-width:1.59941; fill:none" d="M 35.8789 97.5033L 36.6758 97.5033"/>
<path style="stroke:#000000; stroke-width:1.59941; fill:none" d="M 35.8789 90.3083L 36.6758 90.3083"/>
<path style="stroke:#000000; stroke-width:1.59941; fill:none" d="M 35.8789 83.1093L 36.6758 83.1093"/>
<path style="stroke:#000000; stroke-width:1.59941; fill:none" d="M 35.8789 75.9143L 36.6758 75.9143"/>
<path style="stroke:#000000; stroke-width:1.59941; fill:none" d="M 35.8789 61.5193L 36.6758 61.5193"/>
<path style="stroke:#000000; stroke-width:1.59941; fill:none" d="M 35.8789 54.3203L 36.6758 54.3203"/>
<path style="stroke:#000000; stroke-width:1.59941; fill:none" d="M 215.813 195.07L 215.813 51.1253"/>
<path style="stroke:#000000; stroke-width:1.59941; fill:none" d="M 215.813 176.676L 210.215 176.676"/>
<path style="stroke:#000000; stroke-width:1.59941; fill:none" d="M 215.813 140.687L 210.215 140.687"/>
<path style="stroke:#000000; stroke-width:1.59941; fill:none" d="M 215.813 104.703L 210.215 104.703"/>
<path style="stroke:#000000; stroke-width:1.59941; fill:none" d="M 215.813 68.7142L 210.215 68.7142"/>
<path style="stroke:#000000; stroke-width:1.59941; fill:none" d="M 215.813 191.07L 214.215 191.07"/>
<path style="stroke:#000000; stroke-width:1.59941; fill:none" d="M 215.813 183.875L 214.215 183.875"/>
<path style="stroke:#000000; stroke-width:1.59941; fill:none" d="M 215.813 169.476L 214.215 169.476"/>
<path style="stroke:#000000; stroke-width:1.59941; fill:none" d="M 215.813 162.281L 214.215 162.281"/>
<path style="stroke:#000000; stroke-width:1.59941; fill:none" d="M 215.813 155.085L 214.215 155.085"/>
<path style="stroke:#000000; stroke-width:1.59941; fill:none" d="M 215.813 147.886L 214.215 147.886"/>
<path style="stroke:#000000; stroke-width:1.59941; fill:none" d="M 215.813 133.492L 214.215 133.492"/>
<path style="stroke:#000000; stroke-width:1.59941; fill:none" d="M 215.813 126.292L 214.215 126.292"/>
<path style="stroke:#000000; stroke-width:1.59941; fill:none" d="M 215.813 119.097L 214.215 119.097"/>
<path style="stroke:#000000; stroke-width:1.59941; fill:none" d="M 215.813 111.902L 214.215 111.902"/>
<path style="stroke:#000000; stroke-width:1.59941; fill:none" d="M 215.813 97.5033L 214.215 97.5033"/>
<path style="stroke:#000000; stroke-width:1.59941; fill:none" d="M 215.813 90.3083L 214.215 90.3083"/>
<path style="stroke:#000000; stroke-width:1.59941; fill:none" d="M 215.813 83.1093L 214.215 83.1093"/>
<path style="stroke:#000000; stroke-width:1.59941; fill:none" d="M 215.813 75.9143L 214.215 75.9143"/>
<path style="stroke:#000000; stroke-width:1.59941; fill:none" d="M 215.813 61.5193L 214.215 61.5193"/>
<path style="stroke:#000000; stroke-width:1.59941; fill:none" d="M 215.813 54.3203L 214.215 54.3203"/>
<path style="stroke:#000000; stroke-width:1.59941; fill:none" d="M 53.4766 128.695L 89.4606 138.289"/>
<path style="stroke:#000000; stroke-width:1.59941; fill:none" d="M 89.4606 138.289L 125.446 139.886"/>
<path style="stroke:#000000; stroke-width:1.59941; fill:none" d="M 125.45 139.89L 161.434 139.093"/>
<path style="stroke:#000000; stroke-width:1.59941; fill:none" d="M 161.434 139.089L 197.418 139.089"/>
<path style="stroke:#000000; stroke-width:1.59941; fill:none" d="M 53.4766 179.875L 89.4606 132.695"/>
<path style="stroke:#000000; stroke-width:1.59941; fill:none" d="M 89.4606 132.691L 125.446 86.3083"/>
<path style="stroke:#000000; stroke-width:1.59941; fill:none" d="M 125.45 86.3083L 161.434 61.5193"/>
<path style="stroke:#000000; stroke-width:1.59941; fill:none" d="M 161.434 61.5193L 197.418 55.9212"/>
<path style="stroke:none; fill-rule:evenodd; fill:#000000" d="M 48.6758 131.093L 58.2696 131.093L 53.4727 123.097"/>
<path style="stroke:#000000; stroke-width:1.59941; fill:none" d="M 48.6758 131.093L 58.2696 131.093L 53.4727 123.097L 48.6758 131.093z"/>
<path style="stroke:#000000; stroke-width:1.59941; fill:none" d="M 48.6758 131.093L 58.2696 131.093L 53.4727 123.097L 48.6758 131.093z"/>
<path style="stroke:none; fill-rule:evenodd; fill:#000000" d="M 84.6636 141.488L 94.2576 141.488L 89.4606 133.492"/>
<path style="stroke:#000000; stroke-width:1.59941; fill:none" d="M 84.6636 141.488L 94.2576 141.488L 89.4606 133.492L 84.6636 141.488z"/>
<path style="stroke:#000000; stroke-width:1.59941; fill:none" d="M 84.6636 141.488L 94.2576 141.488L 89.4606 133.492L 84.6636 141.488z"/>
<path style="stroke:none; fill-rule:evenodd; fill:#000000" d="M 120.649 142.289L 130.243 142.289L 125.446 134.292"/>
<path style="stroke:#000000; stroke-width:1.59941; fill:none" d="M 120.649 142.289L 130.243 142.289L 125.446 134.292L 120.649 142.289z"/>
<path style="stroke:#000000; stroke-width:1.59941; fill:none" d="M 120.649 142.289L 130.243 142.289L 125.446 134.292L 120.649 142.289z"/>
<path style="stroke:none; fill-rule:evenodd; fill:#000000" d="M 156.637 141.488L 166.231 141.488L 161.434 133.492"/>
<path style="stroke:#000000; stroke-width:1.59941; fill:none" d="M 156.637 141.488L 166.231 141.488L 161.434 133.492L 156.637 141.488z"/>
<path style="stroke:#000000; stroke-width:1.59941; fill:none" d="M 156.637 141.488L 166.231 141.488L 161.434 133.492L 156.637 141.488z"/>
<path style="stroke:none; fill-rule:evenodd; fill:#000000" d="M 192.622 141.488L 202.215 141.488L 197.418 133.492"/>
<path style="stroke:#000000; stroke-width:1.59941; fill:none" d="M 192.622 141.488L 202.215 141.488L 197.418 133.492L 192.622 141.488z"/>
<path style="stroke:#000000; stroke-width:1.59941; fill:none" d="M 192.622 141.488L 202.215 141.488L 197.418 133.492L 192.622 141.488z"/>
<path style="stroke:none; fill-rule:evenodd; fill:#ffffff" d="M 48.6758 182.273L 58.2696 182.273L 53.4727 174.277"/>
<path style="stroke:#ffffff; stroke-width:1.59941; fill:none" d="M 48.6758 182.273L 58.2696 182.273L 53.4727 174.277L 48.6758 182.273z"/>
<path style="stroke:#000000; stroke-width:1.59941; fill:none" d="M 48.6758 182.273L 58.2696 182.273L 53.4727 174.277L 48.6758 182.273z"/>
<path style="stroke:none; fill-rule:evenodd; fill:#ffffff" d="M 84.6636 135.89L 94.2576 135.89L 89.4606 127.093"/>
<path style="stroke:#ffffff; stroke-width:1.59941; fill:none" d="M 84.6636 135.89L 94.2576 135.89L 89.4606 127.093L 84.6636 135.89z"/>
<path style="stroke:#000000; stroke-width:1.59941; fill:none" d="M 84.6636 135.89L 94.2576 135.89L 89.4606 127.093L 84.6636 135.89z"/>
<path style="stroke:none; fill-rule:evenodd; fill:#ffffff" d="M 120.649 89.5073L 130.243 89.5073L 125.446 81.5113"/>
<path style="stroke:#ffffff; stroke-width:1.59941; fill:none" d="M 120.649 89.5073L 130.243 89.5073L 125.446 81.5113L 120.649 89.5073z"/>
<path style="stroke:#000000; stroke-width:1.59941; fill:none" d="M 120.649 89.5073L 130.243 89.5073L 125.446 81.5113L 120.649 89.5073z"/>
<path style="stroke:none; fill-rule:evenodd; fill:#ffffff" d="M 156.637 63.9173L 166.231 63.9173L 161.434 55.9212"/>
<path style="stroke:#ffffff; stroke-width:1.59941; fill:none" d="M 156.637 63.9173L 166.231 63.9173L 161.434 55.9212L 156.637 63.9173z"/>
<path style="stroke:#000000; stroke-width:1.59941; fill:none" d="M 156.637 63.9173L 166.231 63.9173L 161.434 55.9212L 156.637 63.9173z"/>
<path style="stroke:none; fill-rule:evenodd; fill:#ffffff" d="M 192.622 58.3203L 202.215 58.3203L 197.418 50.3242"/>
<path style="stroke:#ffffff; stroke-width:1.59941; fill:none" d="M 192.622 58.3203L 202.215 58.3203L 197.418 50.3242L 192.622 58.3203z"/>
<path style="stroke:#000000; stroke-width:1.59941; fill:none" d="M 192.622 58.3203L 202.215 58.3203L 197.418 50.3242L 192.622 58.3203z"/>
<path style="stroke:none; fill-rule:evenodd; fill:#000000" d="M 0 146.339L 0 147.937L 5.2071 147.937C 4.2227 148.609 3.6993 149.679 3.6993 151.023C 3.6993 153.628 5.7735 155.335 8.9532 155.335C 12.3204 155.335 14.3946 153.664 14.3946 150.953C 14.3946 149.57 13.8907 148.609 12.6719 147.742L 13.9922 147.742L 13.9922 146.343L 0 146.339zM 5.1993 150.792C 5.1993 149.05 6.7149 147.941 9.086 147.941C 11.3789 147.941 12.8946 149.066 12.8946 150.773C 12.8946 152.554 11.3594 153.738 9.0469 153.738C 6.7344 153.738 5.1993 152.558 5.1993 150.792z"/>
<path style="stroke:none; fill-rule:evenodd; fill:#000000" d="M 8.8985 144.437L 10.1954 144.437L 10.1954 134.738L 8.8985 134.738L 8.8985 144.437z"/>
<path style="stroke:none; fill-rule:evenodd; fill:#000000" d="M 8.1016 130.539L 8.1016 126.101C 8.1016 124.999 7.7774 124.125 7.1016 123.371C 6.3321 122.519 5.4258 122.148 4.1328 122.148C 1.4922 122.148 0.00780106 123.718 0.00780106 126.507L 0.00780106 132.343L 14.0078 132.343L 14.0078 130.546L 8.1016 130.539zM 6.5 130.539L 1.6016 130.539L 1.6016 126.789C 1.6016 125.07 2.5196 124.042 4.0508 124.042C 5.5782 124.042 6.5 125.066 6.5 126.789L 6.5 130.539z"/>
<path style="stroke:none; fill-rule:evenodd; fill:#000000" d="M 3.9883 119.937L 13.9961 119.937L 13.9961 118.339L 8.8125 118.339C 7.3828 118.339 6.4493 117.972 5.8985 117.195C 5.5391 116.691 5.4219 116.207 5.4063 115.082L 3.7657 115.082C 3.7305 115.351 3.711 115.484 3.711 115.695C 3.711 116.73 4.3243 117.515 5.8125 118.437L 4 118.437L 3.9883 119.937z"/>
<path style="stroke:none; fill-rule:evenodd; fill:#000000" d="M 3.8985 111.937L 3.8985 113.535L 13.9961 113.535L 13.9961 111.937L 3.8985 111.937zM 0 111.937L 0 113.535L 2.0235 113.535L 2.0235 111.937L 0 111.937z"/>
<path style="stroke:none; fill-rule:evenodd; fill:#000000" d="M 3.9883 109.238L 13.9961 109.238L 13.9961 107.64L 7.7149 107.64C 6.2657 107.64 5.1016 106.566 5.1016 105.238C 5.1016 104.027 5.8282 103.343 7.1055 103.343L 13.9961 103.343L 13.9961 101.746L 7.7149 101.746C 6.2657 101.746 5.1016 100.699 5.1016 99.4023C 5.1016 98.2422 5.8438 97.5503 7.1055 97.5503L 13.9961 97.5503L 13.9961 95.9533L 6.4883 95.9533C 4.6954 95.9533 3.6993 96.9883 3.6993 98.8713C 3.6993 100.21 4.0899 101.015 5.1875 101.957C 4.1446 102.55 3.6993 103.355 3.6993 104.66C 3.6993 105.999 4.1954 106.882 5.3985 107.746L 3.9883 107.746L 3.9883 109.238z"/>
<path style="stroke:none; fill-rule:evenodd; fill:#000000" d="M 9.5 84.6403C 7.9805 84.6403 7.0664 84.7533 6.3282 85.0423C 4.6954 85.6953 3.7071 87.2343 3.7071 89.1172C 3.7071 91.9212 5.8399 93.7303 9.1133 93.7303C 12.3868 93.7303 14.4024 91.9922 14.4024 89.1793C 14.4024 86.8863 13.1172 85.3003 10.9532 84.8983L 10.9532 86.5153C 12.2344 86.9573 12.9024 87.8633 12.9024 89.1562C 12.9024 90.1753 12.4532 91.0462 11.6211 91.5853C 11.0586 91.9683 10.4883 92.1053 9.5078 92.1253L 9.5 84.6403zM 8.2032 92.0623C 6.3438 91.9293 5.1328 90.7962 5.1328 89.1833C 5.1328 87.6133 6.4375 86.4023 8.086 86.4023C 8.1211 86.4023 8.1602 86.4023 8.1993 86.4173L 8.2032 92.0623z"/>
<path style="stroke:#000000; stroke-width:1.59941; fill:none" d="M 36.0586 195.593L 36.0586 51.6483"/>
<path style="stroke:none; fill-rule:evenodd; fill:#000000" d="M 53.6289 222.941L 51.7813 222.941L 50.9414 227.636L 47.9375 227.636L 48.8008 222.941L 46.9766 222.941L 46.1133 227.636L 43.2071 227.636L 43.2071 229.234L 45.8204 229.234L 45.0782 233.429L 42.3438 233.429L 42.3438 235.027L 44.7657 235.027L 43.8555 240.105L 45.6758 240.105L 46.6094 235.027L 49.5821 235.027L 48.6719 240.105L 50.4922 240.105L 51.4258 235.027L 54.2305 235.027L 54.2305 233.429L 51.7149 233.429L 52.4571 229.23L 55 229.23L 55 227.633L 52.7657 227.633L 53.6289 222.941zM 50.6368 229.25L 49.8946 233.422L 46.8985 233.422L 47.6641 229.25L 50.6368 229.25z"/>
<path style="stroke:none; fill-rule:evenodd; fill:#000000" d="M 66.3985 232.238L 71.8985 232.238C 73.2657 232.238 74.3438 231.832 75.2813 230.988C 76.336 230.027 76.793 228.898 76.793 227.289C 76.793 223.996 74.8516 222.144 71.4024 222.144L 64.1954 222.144L 64.1954 239.644L 66.3946 239.644L 66.3985 232.238zM 66.3985 230.238L 66.3985 224.14L 71.0743 224.14C 73.2188 224.14 74.4961 225.281 74.4961 227.187C 74.4961 229.09 73.2188 230.234 71.0743 230.234L 66.3985 230.238z"/>
<path style="stroke:none; fill-rule:evenodd; fill:#000000" d="M 79.6993 227.097L 79.6993 239.636L 81.6993 239.636L 81.6993 233.125C 81.6993 231.332 82.1486 230.156 83.1016 229.465C 83.7186 229.011 84.3126 228.867 85.6956 228.843L 85.6956 226.816C 85.3596 226.769 85.1916 226.746 84.9296 226.746C 83.6366 226.746 82.6526 227.511 81.5 229.375L 81.5 227.105L 79.6993 227.097z"/>
<path style="stroke:none; fill-rule:evenodd; fill:#000000" d="M 98.3006 234.039C 98.3006 232.129 98.1566 230.976 97.7966 230.047C 96.9886 227.992 95.0746 226.746 92.7346 226.746C 89.2496 226.746 87.0036 229.433 87.0036 233.566C 87.0036 237.695 89.1756 240.242 92.6916 240.242C 95.5586 240.242 97.5426 238.593 98.0426 235.832L 96.0196 235.832C 95.4646 237.48 94.3316 238.343 92.7186 238.343C 91.4416 238.343 90.3596 237.773 89.6836 236.722C 89.2036 236.008 89.0356 235.293 89.0116 234.047L 98.3006 234.039zM 89.0936 232.394C 89.2616 230.07 90.6756 228.558 92.6916 228.558C 94.6566 228.558 96.1676 230.187 96.1676 232.25C 96.1676 232.297 96.1676 232.343 96.1446 232.39L 89.0936 232.394z"/>
<path style="stroke:none; fill-rule:evenodd; fill:#000000" d="M 109.809 230.57C 109.786 228.121 108.168 226.742 105.286 226.742C 102.383 226.742 100.504 228.246 100.504 230.566C 100.504 232.527 101.512 233.457 104.485 234.176L 106.356 234.629C 107.747 234.961 108.297 235.465 108.297 236.371C 108.297 237.543 107.114 238.332 105.344 238.332C 104.258 238.332 103.336 238.023 102.829 237.496C 102.516 237.14 102.372 236.781 102.25 235.894L 100.122 235.894C 100.215 238.828 101.844 240.234 105.129 240.234C 108.29 240.234 110.305 238.683 110.305 236.265C 110.305 234.402 109.25 233.375 106.754 232.777L 104.836 232.324C 103.207 231.941 102.512 231.418 102.512 230.531C 102.512 229.386 103.543 228.644 105.18 228.644C 106.79 228.644 107.653 229.308 107.704 230.574L 109.809 230.57z"/>
<path style="stroke:none; fill-rule:evenodd; fill:#000000" d="M 123.602 234.039C 123.602 232.129 123.457 230.976 123.098 230.047C 122.29 227.992 120.375 226.746 118.036 226.746C 114.551 226.746 112.305 229.433 112.305 233.566C 112.305 237.695 114.477 240.242 117.993 240.242C 120.86 240.242 122.844 238.593 123.344 235.832L 121.321 235.832C 120.766 237.48 119.633 238.343 118.02 238.343C 116.743 238.343 115.661 237.773 114.985 236.722C 114.504 236.008 114.336 235.293 114.313 234.047L 123.602 234.039zM 114.395 232.394C 114.563 230.07 115.977 228.558 117.993 228.558C 119.957 228.558 121.469 230.187 121.469 232.25C 121.469 232.297 121.469 232.343 121.446 232.39L 114.395 232.394z"/>
<path style="stroke:none; fill-rule:evenodd; fill:#000000" d="M 126.403 227.097L 126.403 239.636L 128.403 239.636L 128.403 232.754C 128.403 230.207 129.747 228.539 131.809 228.539C 133.391 228.539 134.399 229.492 134.399 230.992L 134.399 239.636L 136.399 239.636L 136.399 230.16C 136.399 228.082 134.832 226.738 132.395 226.738C 130.516 226.738 129.309 227.453 128.2 229.203L 128.2 227.097L 126.403 227.097z"/>
<path style="stroke:none; fill-rule:evenodd; fill:#000000" d="M 144.102 227.039L 142.004 227.039L 142.004 223.613L 140.004 223.613L 140.004 227.039L 138.305 227.039L 138.305 228.636L 140.004 228.636L 140.004 238.226C 140.004 239.508 140.875 240.234 142.454 240.234C 142.938 240.234 143.422 240.187 144.102 240.062L 144.102 238.34C 143.836 238.41 143.516 238.433 143.125 238.433C 142.247 238.433 142.004 238.195 142.004 237.301L 142.004 228.636L 144.102 228.636L 144.102 227.039z"/>
<path style="stroke:none; fill-rule:evenodd; fill:#000000" d="M 157.536 238.465C 157.317 238.539 157.219 238.539 157.098 238.539C 156.395 238.539 156.004 238.183 156.004 237.558L 156.004 230.176C 156.004 227.949 154.375 226.746 151.29 226.746C 149.473 226.746 147.965 227.269 147.129 228.195C 146.559 228.836 146.317 229.551 146.27 230.789L 148.274 230.789C 148.438 229.312 149.348 228.644 151.211 228.644C 153 228.644 154.004 229.312 154.004 230.508L 154.004 231.031C 154.004 231.867 153.508 232.226 151.95 232.418C 149.164 232.773 148.739 232.871 147.981 233.179C 146.543 233.777 145.809 234.898 145.809 236.527C 145.809 238.797 147.379 240.23 149.903 240.23C 151.473 240.23 152.731 239.668 154.137 238.336C 154.278 239.64 154.899 240.23 156.184 240.23C 156.586 240.23 156.895 240.183 157.54 240.011L 157.536 238.465zM 154 235.679C 154 236.351 153.809 236.758 153.215 237.308C 152.407 238.051 151.43 238.433 150.262 238.433C 148.715 238.433 147.809 237.691 147.809 236.422C 147.809 235.105 148.688 234.433 150.813 234.121C 152.911 233.836 153.336 233.738 154.008 233.426L 154 235.679z"/>
<path style="stroke:none; fill-rule:evenodd; fill:#000000" d="M 164.102 227.039L 162.004 227.039L 162.004 223.613L 160.004 223.613L 160.004 227.039L 158.305 227.039L 158.305 228.636L 160.004 228.636L 160.004 238.226C 160.004 239.508 160.875 240.234 162.454 240.234C 162.938 240.234 163.422 240.187 164.102 240.062L 164.102 238.34C 163.836 238.41 163.516 238.433 163.125 238.433C 162.247 238.433 162.004 238.195 162.004 237.301L 162.004 228.636L 164.102 228.636L 164.102 227.039z"/>
<path style="stroke:none; fill-rule:evenodd; fill:#000000" d="M 168.301 227.039L 166.301 227.039L 166.301 239.636L 168.301 239.636L 168.301 227.039zM 168.301 222.14L 166.301 222.14L 166.301 224.668L 168.301 224.668L 168.301 222.14z"/>
<path style="stroke:none; fill-rule:evenodd; fill:#000000" d="M 176.528 226.738C 173.024 226.738 170.903 229.258 170.903 233.488C 170.903 237.715 173 240.238 176.551 240.238C 180.055 240.238 182.2 237.718 182.2 233.586C 182.2 229.238 180.129 226.742 176.528 226.742L 176.528 226.738zM 176.547 228.64C 178.832 228.64 180.196 230.468 180.196 233.562C 180.196 236.484 178.786 238.336 176.547 238.336C 174.286 238.336 172.899 236.508 172.899 233.488C 172.899 230.496 174.286 228.64 176.547 228.64z"/>
<path style="stroke:none; fill-rule:evenodd; fill:#000000" d="M 185.102 227.097L 185.102 239.636L 187.102 239.636L 187.102 232.754C 187.102 230.207 188.446 228.539 190.508 228.539C 192.09 228.539 193.098 229.492 193.098 230.992L 193.098 239.636L 195.098 239.636L 195.098 230.16C 195.098 228.082 193.532 226.738 191.094 226.738C 189.215 226.738 188.008 227.453 186.899 229.203L 186.899 227.097L 185.102 227.097z"/>
<path style="stroke:none; fill-rule:evenodd; fill:#000000" d="M 207.207 230.57C 207.184 228.121 205.567 226.742 202.684 226.742C 199.782 226.742 197.903 228.246 197.903 230.566C 197.903 232.527 198.911 233.457 201.883 234.176L 203.754 234.629C 205.145 234.961 205.696 235.465 205.696 236.371C 205.696 237.543 204.512 238.332 202.743 238.332C 201.657 238.332 200.735 238.023 200.227 237.496C 199.914 237.14 199.77 236.781 199.649 235.894L 197.52 235.894C 197.614 238.828 199.243 240.234 202.528 240.234C 205.688 240.234 207.704 238.683 207.704 236.265C 207.704 234.402 206.649 233.375 204.153 232.777L 202.235 232.324C 200.606 231.941 199.911 231.418 199.911 230.531C 199.911 229.386 200.942 228.644 202.579 228.644C 204.188 228.644 205.051 229.308 205.102 230.574L 207.207 230.57z"/>
<path style="stroke:#000000; stroke-width:1.59941; fill:none" d="M 64.0078 46.2383L 185.055 46.2383L 185.055 8.38226L 64.0078 8.38226L 64.0078 46.2383z"/>
<path style="stroke:none; fill-rule:evenodd; fill:#000000" d="M 110.801 14.8593L 110.801 21.8353L 112 21.8353L 112 12.0393L 111.2 12.0393C 110.774 13.5423 110.497 13.7493 108.614 13.9843L 108.614 14.8513L 110.801 14.8593z"/>
<path style="stroke:none; fill-rule:evenodd; fill:#000000" d="M 130.5 14.6403L 129.305 14.6403L 129.305 12.6283L 128.106 12.6283L 128.106 14.6403L 127.207 14.6403L 127.207 15.5393L 128.106 15.5393L 128.106 20.9922C 128.106 21.7183 128.614 22.1323 129.54 22.1323C 129.821 22.1323 130.106 22.1093 130.504 22.0393L 130.504 21.0892C 130.352 21.1213 130.172 21.1323 129.95 21.1323C 129.45 21.1323 129.309 20.9963 129.309 20.4883L 129.309 15.5393L 130.504 15.5393L 130.5 14.6403z"/>
<path style="stroke:none; fill-rule:evenodd; fill:#000000" d="M 138.579 21.1643C 138.454 21.1403 138.399 21.1403 138.329 21.1403C 137.926 21.1403 137.7 20.9373 137.7 20.5853L 137.7 16.3943C 137.7 15.1283 136.766 14.4492 134.989 14.4492C 133.946 14.4492 133.079 14.7463 132.594 15.2773C 132.266 15.6403 132.129 16.0503 132.102 16.7573L 133.243 16.7573C 133.336 15.9293 133.852 15.5503 134.911 15.5503C 135.926 15.5503 136.5 15.9293 136.5 16.6093L 136.5 16.9062C 136.5 17.3783 136.219 17.5853 135.325 17.6913C 133.727 17.8943 133.485 17.9492 133.051 18.1253C 132.227 18.4642 131.809 19.1013 131.809 20.0273C 131.809 21.3203 132.715 22.1323 134.172 22.1323C 135.079 22.1323 135.809 21.8242 136.618 21.0892C 136.696 21.8083 137.055 22.1323 137.797 22.1323C 138.028 22.1323 138.207 22.1093 138.579 22.0113L 138.579 21.1643zM 136.5 19.5583C 136.5 19.9413 136.395 20.1753 136.059 20.4922C 135.606 20.9173 135.051 21.1363 134.391 21.1363C 133.516 21.1363 133.008 20.7103 133.008 19.9843C 133.008 19.2303 133.504 18.8433 134.704 18.6673C 135.887 18.5033 136.129 18.4492 136.504 18.2693L 136.5 19.5583z"/>
<path style="stroke:none; fill-rule:evenodd; fill:#000000" d="M 139.301 14.6443L 139.301 21.8353L 140.5 21.8353L 140.5 18.1013C 140.5 17.0742 140.762 16.3983 141.317 15.9993C 141.676 15.7422 142.02 15.6562 142.825 15.6443L 142.825 14.4883C 142.633 14.4642 142.536 14.4492 142.383 14.4492C 141.637 14.4492 141.067 14.8863 140.403 15.9573L 140.403 14.6562L 139.301 14.6443z"/>
<path style="stroke:none; fill-rule:evenodd; fill:#000000" d="M 148.899 14.6403L 148.899 15.6603C 148.321 14.8323 147.614 14.4413 146.688 14.4413C 144.848 14.4413 143.606 16.0273 143.606 18.3593C 143.606 19.5353 143.922 20.4963 144.52 21.1793C 145.059 21.7812 145.836 22.1363 146.598 22.1363C 147.512 22.1363 148.149 21.7573 148.801 20.8593L 148.801 21.2223C 148.801 22.1873 148.676 22.7733 148.387 23.1673C 148.082 23.5892 147.489 23.8323 146.782 23.8323C 146.258 23.8323 145.786 23.6992 145.465 23.4603C 145.204 23.2613 145.094 23.0783 145.024 22.6643L 143.848 22.6643C 143.973 24.0233 145.043 24.8353 146.754 24.8353C 147.84 24.8353 148.77 24.4922 149.243 23.9173C 149.797 23.2613 150.008 22.3513 150.008 20.6643L 150.008 14.6443L 148.899 14.6403zM 146.813 15.5393C 148.063 15.5393 148.797 16.5623 148.797 18.3283C 148.797 20.0113 148.047 21.0353 146.825 21.0353C 145.563 21.0353 144.801 19.9993 144.801 18.2853C 144.801 16.5892 145.575 15.5353 146.813 15.5353L 146.813 15.5393z"/>
<path style="stroke:none; fill-rule:evenodd; fill:#000000" d="M 157.5 18.6403C 157.5 17.5393 157.418 16.8783 157.215 16.3433C 156.75 15.1603 155.653 14.4453 154.305 14.4453C 152.301 14.4453 151.008 15.9763 151.008 18.3353C 151.008 20.6913 152.25 22.1443 154.262 22.1443C 155.903 22.1443 157.04 21.2142 157.329 19.6523L 156.18 19.6523C 155.868 20.5663 155.227 21.0423 154.309 21.0423C 153.586 21.0423 152.973 20.7263 152.59 20.1403C 152.321 19.7422 152.223 19.3433 152.211 18.6483L 157.5 18.6403zM 152.18 17.6712C 152.274 16.3353 153.086 15.4683 154.247 15.4683C 155.375 15.4683 156.247 16.4062 156.247 17.5933C 156.247 17.6213 156.247 17.6483 156.235 17.6753L 152.18 17.6712z"/>
<path style="stroke:none; fill-rule:evenodd; fill:#000000" d="M 161.102 14.6403L 159.907 14.6403L 159.907 12.6283L 158.707 12.6283L 158.707 14.6403L 157.809 14.6403L 157.809 15.5393L 158.707 15.5393L 158.707 20.9922C 158.707 21.7183 159.215 22.1323 160.141 22.1323C 160.422 22.1323 160.707 22.1093 161.106 22.0393L 161.106 21.0892C 160.954 21.1213 160.774 21.1323 160.551 21.1323C 160.051 21.1323 159.911 20.9963 159.911 20.4883L 159.911 15.5393L 161.106 15.5393L 161.102 14.6403z"/>
<path style="stroke:none; fill-rule:evenodd; fill:#000000" d="M 167.84 16.6253C 167.829 15.2303 166.879 14.4413 165.196 14.4413C 163.5 14.4413 162.399 15.2962 162.399 16.6172C 162.399 17.7303 162.977 18.2613 164.696 18.6673L 165.774 18.9253C 166.575 19.1133 166.895 19.3983 166.895 19.9173C 166.895 20.5823 166.227 21.0312 165.227 21.0312C 164.614 21.0312 164.09 20.8593 163.805 20.5703C 163.629 20.3753 163.547 20.1753 163.477 19.6833L 162.274 19.6833C 162.329 21.3392 163.258 22.1323 165.137 22.1323C 166.946 22.1323 168.098 21.2493 168.098 19.8753C 168.098 18.8163 167.489 18.2303 166.051 17.8903L 164.946 17.6323C 164.008 17.4173 163.606 17.1172 163.606 16.6133C 163.606 15.9603 164.204 15.5393 165.153 15.5393C 166.086 15.5393 166.586 15.9143 166.618 16.6253L 167.84 16.6253z"/>
<path style="stroke:#000000; stroke-width:1.59941; fill:none" d="M 69.4063 20.9763L 99.3946 20.9763"/>
<path style="stroke:none; fill-rule:evenodd; fill:#000000" d="M 80.8008 22.7773L 87.9966 22.7773L 84.3986 16.7812"/>
<path style="stroke:#000000; stroke-width:1.59941; fill:none" d="M 80.8008 22.7773L 87.9966 22.7773L 84.3986 16.7812L 80.8008 22.7773z"/>
<path style="stroke:#000000; stroke-width:1.59941; fill:none" d="M 80.8008 22.7773L 87.9966 22.7773L 84.3986 16.7812L 80.8008 22.7773z"/>
<path style="stroke:none; fill-rule:evenodd; fill:#000000" d="M 111 27.0393C 110.094 27.0393 109.266 27.4453 108.754 28.1363C 108.122 28.9883 107.805 30.2962 107.805 32.0973C 107.805 35.3823 108.907 37.1283 111.004 37.1283C 113.071 37.1283 114.204 35.3823 114.204 32.1793C 114.204 30.2853 113.903 29.0193 113.254 28.1323C 112.747 27.4293 111.934 27.0353 111.008 27.0353L 111 27.0393zM 111 28.1403C 112.336 28.1403 113 29.4603 113 32.0783C 113 34.8433 112.356 36.1363 110.973 36.1363C 109.664 36.1363 109.004 34.7893 109.004 32.1172C 109.004 29.4492 109.664 28.1403 111.004 28.1403L 111 28.1403z"/>
<path style="stroke:none; fill-rule:evenodd; fill:#000000" d="M 114.899 34.1403L 121.899 34.1403L 121.899 33.1403L 114.899 33.1403L 114.899 34.1403z"/>
<path style="stroke:none; fill-rule:evenodd; fill:#000000" d="M 123.7 34.5393L 123.7 36.8353L 124.899 36.8353L 124.899 34.5393L 126.372 34.5393L 126.372 33.4413L 124.899 33.4413L 124.899 27.0423L 124.008 27.0423L 119.59 33.2463L 119.59 34.5393L 123.7 34.5393zM 123.7 33.4373L 120.649 33.4373L 123.7 29.1283L 123.7 33.4373z"/>
<path style="stroke:none; fill-rule:evenodd; fill:#000000" d="M 142.5 29.6403L 141.305 29.6403L 141.305 27.6283L 140.106 27.6283L 140.106 29.6403L 139.207 29.6403L 139.207 30.5393L 140.106 30.5393L 140.106 35.9922C 140.106 36.7183 140.614 37.1323 141.54 37.1323C 141.821 37.1323 142.106 37.1093 142.504 37.0393L 142.504 36.0892C 142.352 36.1213 142.172 36.1323 141.95 36.1323C 141.45 36.1323 141.309 35.9963 141.309 35.4883L 141.309 30.5393L 142.504 30.5393L 142.5 29.6403z"/>
<path style="stroke:none; fill-rule:evenodd; fill:#000000" d="M 150.579 36.1643C 150.454 36.1403 150.399 36.1403 150.329 36.1403C 149.926 36.1403 149.7 35.9373 149.7 35.5853L 149.7 31.3943C 149.7 30.1283 148.766 29.4492 146.989 29.4492C 145.946 29.4492 145.079 29.7463 144.594 30.2773C 144.266 30.6403 144.129 31.0503 144.102 31.7573L 145.243 31.7573C 145.336 30.9293 145.852 30.5503 146.911 30.5503C 147.926 30.5503 148.5 30.9293 148.5 31.6093L 148.5 31.9062C 148.5 32.3783 148.219 32.5853 147.325 32.6913C 145.727 32.8943 145.485 32.9492 145.051 33.1253C 144.227 33.4642 143.809 34.1013 143.809 35.0273C 143.809 36.3203 144.715 37.1323 146.172 37.1323C 147.079 37.1323 147.809 36.8242 148.618 36.0892C 148.696 36.8083 149.055 37.1323 149.797 37.1323C 150.028 37.1323 150.207 37.1093 150.579 37.0113L 150.579 36.1643zM 148.5 34.5583C 148.5 34.9413 148.395 35.1753 148.059 35.4922C 147.606 35.9173 147.051 36.1363 146.391 36.1363C 145.516 36.1363 145.008 35.7103 145.008 34.9843C 145.008 34.2303 145.504 33.8433 146.704 33.6673C 147.887 33.5033 148.129 33.4492 148.504 33.2693L 148.5 34.5583z"/>
<path style="stroke:none; fill-rule:evenodd; fill:#000000" d="M 151.301 29.6443L 151.301 36.8353L 152.5 36.8353L 152.5 33.1013C 152.5 32.0742 152.762 31.3983 153.317 30.9993C 153.676 30.7422 154.02 30.6562 154.825 30.6443L 154.825 29.4883C 154.633 29.4642 154.536 29.4492 154.383 29.4492C 153.637 29.4492 153.067 29.8863 152.403 30.9573L 152.403 29.6562L 151.301 29.6443z"/>
<path style="stroke:none; fill-rule:evenodd; fill:#000000" d="M 160.899 29.6403L 160.899 30.6603C 160.321 29.8323 159.614 29.4413 158.688 29.4413C 156.848 29.4413 155.606 31.0273 155.606 33.3593C 155.606 34.5353 155.922 35.4963 156.52 36.1793C 157.059 36.7812 157.836 37.1363 158.598 37.1363C 159.512 37.1363 160.149 36.7573 160.801 35.8593L 160.801 36.2223C 160.801 37.1873 160.676 37.7733 160.387 38.1673C 160.082 38.5892 159.489 38.8323 158.782 38.8323C 158.258 38.8323 157.786 38.6992 157.465 38.4603C 157.204 38.2613 157.094 38.0783 157.024 37.6643L 155.848 37.6643C 155.973 39.0233 157.043 39.8353 158.754 39.8353C 159.84 39.8353 160.77 39.4922 161.243 38.9173C 161.797 38.2613 162.008 37.3513 162.008 35.6643L 162.008 29.6443L 160.899 29.6403zM 158.813 30.5393C 160.063 30.5393 160.797 31.5623 160.797 33.3283C 160.797 35.0113 160.047 36.0353 158.825 36.0353C 157.563 36.0353 156.801 34.9993 156.801 33.2853C 156.801 31.5892 157.575 30.5353 158.813 30.5353L 158.813 30.5393z"/>
<path style="stroke:none; fill-rule:evenodd; fill:#000000" d="M 169.5 33.6403C 169.5 32.5393 169.418 31.8783 169.215 31.3433C 168.75 30.1603 167.653 29.4453 166.305 29.4453C 164.301 29.4453 163.008 30.9763 163.008 33.3353C 163.008 35.6913 164.25 37.1443 166.262 37.1443C 167.903 37.1443 169.04 36.2142 169.329 34.6523L 168.18 34.6523C 167.868 35.5663 167.227 36.0423 166.309 36.0423C 165.586 36.0423 164.973 35.7263 164.59 35.1403C 164.321 34.7422 164.223 34.3433 164.211 33.6483L 169.5 33.6403zM 164.18 32.6712C 164.274 31.3353 165.086 30.4683 166.247 30.4683C 167.375 30.4683 168.247 31.4062 168.247 32.5933C 168.247 32.6213 168.247 32.6483 168.235 32.6753L 164.18 32.6712z"/>
<path style="stroke:none; fill-rule:evenodd; fill:#000000" d="M 173.102 29.6403L 171.907 29.6403L 171.907 27.6283L 170.707 27.6283L 170.707 29.6403L 169.809 29.6403L 169.809 30.5393L 170.707 30.5393L 170.707 35.9922C 170.707 36.7183 171.215 37.1323 172.141 37.1323C 172.422 37.1323 172.707 37.1093 173.106 37.0393L 173.106 36.0892C 172.954 36.1213 172.774 36.1323 172.551 36.1323C 172.051 36.1323 171.911 35.9963 171.911 35.4883L 171.911 30.5393L 173.106 30.5393L 173.102 29.6403z"/>
<path style="stroke:none; fill-rule:evenodd; fill:#000000" d="M 179.84 31.6253C 179.829 30.2303 178.879 29.4413 177.196 29.4413C 175.5 29.4413 174.399 30.2962 174.399 31.6172C 174.399 32.7303 174.977 33.2613 176.696 33.6673L 177.774 33.9253C 178.575 34.1133 178.895 34.3983 178.895 34.9173C 178.895 35.5823 178.227 36.0312 177.227 36.0312C 176.614 36.0312 176.09 35.8593 175.805 35.5703C 175.629 35.3753 175.547 35.1753 175.477 34.6833L 174.274 34.6833C 174.329 36.3392 175.258 37.1323 177.137 37.1323C 178.946 37.1323 180.098 36.2493 180.098 34.8753C 180.098 33.8163 179.489 33.2303 178.051 32.8903L 176.946 32.6323C 176.008 32.4173 175.606 32.1172 175.606 31.6133C 175.606 30.9603 176.204 30.5393 177.153 30.5393C 178.086 30.5393 178.586 30.9143 178.618 31.6253L 179.84 31.6253z"/>
<path style="stroke:#000000; stroke-width:1.59941; fill:none" d="M 69.4063 35.3713L 99.3946 35.3713"/>
<path style="stroke:none; fill-rule:evenodd; fill:#ffffff" d="M 80.8008 37.1712L 87.9966 37.1712L 84.3986 31.1753"/>
<path style="stroke:#ffffff; stroke-width:1.59941; fill:none" d="M 80.8008 37.1712L 87.9966 37.1712L 84.3986 31.1753L 80.8008 37.1712z"/>
<path style="stroke:#000000; stroke-width:1.59941; fill:none" d="M 80.8008 37.1712L 87.9966 37.1712L 84.3986 31.1753L 80.8008 37.1712z"/>
<path style="stroke:none; fill-rule:evenodd; fill:#000000" d="M 118.426 18.1172L 120.852 14.6403L 119.559 14.6403L 117.825 17.2303L 116.09 14.6403L 114.782 14.6403L 117.192 18.1712L 114.641 21.8392L 115.95 21.8392L 117.782 19.0703L 119.586 21.8392L 120.922 21.8392L 118.426 18.1172z"/>
<path style="stroke:none; fill-rule:evenodd; fill:#000000" d="M 131.028 33.1172L 133.454 29.6403L 132.161 29.6403L 130.426 32.2303L 128.692 29.6403L 127.383 29.6403L 129.793 33.1712L 127.243 36.8392L 128.551 36.8392L 130.383 34.0703L 132.188 36.8392L 133.524 36.8392L 131.028 33.1172z"/>
<path style="stroke:none; fill-rule:evenodd; fill:#000000" d="M 49.7813 135.316L 49.1485 135.957C 48.1954 136.917 48.6602 137.816 50.4141 138.406L 53.9493 139.589C 55.918 140.246 56.3516 140.746 55.7891 141.656L 57.25 142.144C 58.3164 141.41 59.3008 141.386 61.25 142.039L 64.7852 143.222C 66.5391 143.808 68.1094 143.593 69.0625 142.632L 69.6954 141.992L 68.3204 141.531L 68.1172 141.738C 67.4414 142.417 66.9297 142.507 65.8282 142.14L 62 140.859C 60.2461 140.273 58.8477 140.289 57.5235 140.878C 57.8555 139.859 57.2813 139.277 55.336 138.621L 51.5078 137.339C 50.4102 136.972 50.2852 136.671 50.961 135.988L 51.1641 135.781L 49.7813 135.316z"/>
<path style="stroke:none; fill-rule:evenodd; fill:#ffffff" d="M 43.293 162.175L 94.9216 162.175L 94.9216 145.921L 43.293 145.921L 43.293 162.175z"/>
<path style="stroke:none; fill-rule:evenodd; fill:#000000" d="M 47.5 145.539L 46.2032 145.539L 46.2032 156.039L 52.7032 156.039L 52.7032 154.941L 47.5039 154.941L 47.5 145.539z"/>
<path style="stroke:none; fill-rule:evenodd; fill:#000000" d="M 60.3985 152.64C 60.3985 151.488 60.3125 150.796 60.0977 150.234C 59.6094 148.996 58.461 148.246 57.0508 148.246C 54.9532 148.246 53.6016 149.859 53.6016 152.335C 53.6016 154.812 54.9063 156.339 57.0118 156.339C 58.7305 156.339 59.9219 155.375 60.2227 153.753L 59.0078 153.753C 58.6758 154.73 57.9961 155.238 57.0274 155.238C 56.2618 155.238 55.6094 154.894 55.2071 154.257C 54.9219 153.828 54.8164 153.394 54.8047 152.64L 60.3985 152.64zM 54.8555 151.691C 54.9532 150.296 55.8047 149.39 57.0118 149.39C 58.1914 149.39 59.0977 150.367 59.0977 151.605C 59.0977 151.632 59.0977 151.66 59.086 151.691L 54.8555 151.691z"/>
<path style="stroke:none; fill-rule:evenodd; fill:#000000" d="M 62 148.457L 62 156.035L 63.1993 156.035L 63.1993 151.882C 63.1993 150.347 64.0039 149.339 65.2422 149.339C 66.1914 149.339 66.7969 149.914 66.7969 150.82L 66.7969 156.039L 67.9961 156.039L 67.9961 150.312C 67.9961 149.054 67.0625 148.242 65.6055 148.242C 64.4844 148.242 63.7618 148.675 63.0977 149.73L 63.0977 148.46L 62 148.457z"/>
<path style="stroke:none; fill-rule:evenodd; fill:#000000" d="M 74.8985 148.539L 74.8985 149.589C 74.2969 148.671 73.5625 148.242 72.6016 148.242C 70.6954 148.242 69.4024 149.914 69.4024 152.363C 69.4024 153.601 69.7305 154.609 70.3516 155.332C 70.9102 155.964 71.7188 156.339 72.5078 156.339C 73.4571 156.339 74.1172 155.949 74.7969 155.019L 74.7969 155.402C 74.7969 156.414 74.668 157.027 74.3672 157.437C 74.0547 157.878 73.4375 158.132 72.7071 158.132C 72.1641 158.132 71.6758 157.992 71.3477 157.742C 71.0782 157.531 70.961 157.335 70.8907 156.902L 69.6719 156.902C 69.8008 158.3 70.8985 159.136 72.6602 159.136C 73.7735 159.136 74.7305 158.781 75.2188 158.183C 75.7891 157.499 76.0039 156.558 76.0039 154.8L 76.0039 148.542L 74.8985 148.539zM 72.7149 149.339C 74.0274 149.339 74.8008 150.437 74.8008 152.332C 74.8008 154.136 74.0157 155.234 72.7305 155.234C 71.4063 155.234 70.6016 154.125 70.6016 152.285C 70.6016 150.464 71.4141 149.335 72.7149 149.335L 72.7149 149.339z"/>
<path style="stroke:none; fill-rule:evenodd; fill:#000000" d="M 80.6993 148.539L 79.4024 148.539L 79.4024 146.425L 78.2032 146.425L 78.2032 148.539L 77.2032 148.539L 77.2032 149.539L 78.2032 149.539L 78.2032 155.156C 78.2032 155.906 78.7344 156.332 79.6954 156.332C 79.9883 156.332 80.2852 156.304 80.6993 156.234L 80.6993 155.257C 80.5352 155.242 80.3399 155.238 80.0977 155.238C 79.5547 155.238 79.4063 155.101 79.4063 154.582L 79.4063 149.546L 80.7032 149.546L 80.6993 148.539z"/>
<path style="stroke:none; fill-rule:evenodd; fill:#000000" d="M 82 145.539L 82 156.039L 83.1996 156.039L 83.1996 151.824C 83.1996 150.265 84.0036 149.242 85.2426 149.242C 85.6286 149.242 86.0196 149.371 86.3046 149.589C 86.6486 149.835 86.7926 150.199 86.7926 150.742L 86.7926 156.039L 87.9926 156.039L 87.9926 150.312C 87.9926 149.042 87.0856 148.242 85.6136 148.242C 84.5466 148.242 83.8986 148.582 83.1916 149.535L 83.1916 145.542L 82 145.539z"/>
<path style="stroke:none; fill-rule:evenodd; fill:#000000" d="M 124.899 104.738L 123.7 104.738L 123.7 113.324L 118.168 104.738L 116.704 104.738L 116.704 115.238L 117.903 115.238L 117.903 106.734L 123.375 115.238L 124.899 115.238L 124.899 104.738z"/>
<path style="stroke:none; fill-rule:evenodd; fill:#000000" d="M 132.899 115.21L 132.899 107.742L 131.7 107.742L 131.7 111.937C 131.7 113.449 130.899 114.437 129.649 114.437C 128.704 114.437 128.102 113.875 128.102 112.984L 128.102 107.742L 126.903 107.742L 126.903 113.499C 126.903 114.738 127.832 115.535 129.293 115.535C 130.395 115.535 131.098 115.152 131.797 114.167L 131.797 115.207L 132.899 115.21z"/>
<path style="stroke:none; fill-rule:evenodd; fill:#000000" d="M 135 115.238L 136.2 115.238L 136.2 104.738L 135 104.738L 135 115.238z"/>
<path style="stroke:none; fill-rule:evenodd; fill:#000000" d="M 138.2 115.238L 139.399 115.238L 139.399 104.738L 138.2 104.738L 138.2 115.238z"/>
<path style="stroke:none; fill-rule:evenodd; fill:#000000" d="M 152.899 107.828C 152.887 105.749 151.489 104.542 149.094 104.542C 146.817 104.542 145.403 105.73 145.403 107.648C 145.403 108.937 146.079 109.749 147.461 110.113L 150.067 110.808C 151.391 111.156 151.997 111.691 151.997 112.519C 151.997 113.082 151.696 113.664 151.25 113.984C 150.832 114.273 150.172 114.433 149.325 114.433C 148.188 114.433 147.414 114.156 146.907 113.539C 146.52 113.07 146.348 112.558 146.305 111.898L 145.106 111.898C 145.118 112.851 145.305 113.48 145.719 114.05C 146.434 115.019 147.637 115.531 149.223 115.531C 150.465 115.531 151.481 115.246 152.157 114.726C 152.856 114.164 153.301 113.226 153.301 112.32C 153.301 111.023 152.497 110.07 151.071 109.679L 148.434 108.976C 147.168 108.632 146.707 108.226 146.707 107.421C 146.707 106.355 147.649 105.648 149.067 105.648C 150.747 105.648 151.688 106.429 151.704 107.832L 152.899 107.828z"/>
<path style="stroke:none; fill-rule:evenodd; fill:#000000" d="M 157.7 107.738L 156.403 107.738L 156.403 105.625L 155.204 105.625L 155.204 107.738L 154.204 107.738L 154.204 108.738L 155.204 108.738L 155.204 114.355C 155.204 115.105 155.735 115.531 156.696 115.531C 156.989 115.531 157.286 115.503 157.7 115.433L 157.7 114.457C 157.536 114.441 157.34 114.437 157.098 114.437C 156.555 114.437 156.407 114.3 156.407 113.781L 156.407 108.746L 157.704 108.746L 157.7 107.738z"/>
<path style="stroke:none; fill-rule:evenodd; fill:#000000" d="M 159 107.656L 159 115.234L 160.2 115.234L 160.2 111.316C 160.2 110.238 160.473 109.531 161.047 109.113C 161.422 108.839 161.782 108.753 162.618 108.738L 162.618 107.484C 162.418 107.457 162.317 107.441 162.157 107.441C 161.379 107.441 160.79 107.902 160.098 109.031L 160.098 107.656L 159 107.656z"/>
<path style="stroke:none; fill-rule:evenodd; fill:#000000" d="M 170.2 111.839C 170.2 110.687 170.114 109.996 169.899 109.433C 169.411 108.195 168.262 107.445 166.852 107.445C 164.754 107.445 163.403 109.058 163.403 111.535C 163.403 114.011 164.707 115.539 166.813 115.539C 168.532 115.539 169.723 114.574 170.024 112.953L 168.809 112.953C 168.477 113.929 167.797 114.437 166.829 114.437C 166.063 114.437 165.411 114.093 165.008 113.457C 164.723 113.027 164.618 112.593 164.606 111.839L 170.2 111.839zM 164.657 110.89C 164.754 109.496 165.606 108.589 166.813 108.589C 167.993 108.589 168.899 109.566 168.899 110.804C 168.899 110.832 168.899 110.859 168.887 110.89L 164.657 110.89z"/>
<path style="stroke:none; fill-rule:evenodd; fill:#000000" d="M 171.801 107.656L 171.801 115.234L 173 115.234L 173 111.082C 173 109.546 173.805 108.539 175.043 108.539C 175.993 108.539 176.598 109.113 176.598 110.019L 176.598 115.238L 177.797 115.238L 177.797 109.511C 177.797 108.253 176.864 107.441 175.407 107.441C 174.286 107.441 173.563 107.875 172.899 108.929L 172.899 107.66L 171.801 107.656z"/>
<path style="stroke:none; fill-rule:evenodd; fill:#000000" d="M 184.7 107.738L 184.7 108.789C 184.098 107.871 183.364 107.441 182.403 107.441C 180.497 107.441 179.204 109.113 179.204 111.562C 179.204 112.8 179.532 113.808 180.153 114.531C 180.711 115.164 181.52 115.539 182.309 115.539C 183.258 115.539 183.918 115.148 184.598 114.218L 184.598 114.601C 184.598 115.613 184.469 116.226 184.168 116.636C 183.856 117.078 183.239 117.332 182.508 117.332C 181.965 117.332 181.477 117.191 181.149 116.941C 180.879 116.73 180.762 116.535 180.692 116.101L 179.473 116.101C 179.602 117.499 180.7 118.335 182.461 118.335C 183.575 118.335 184.532 117.98 185.02 117.382C 185.59 116.699 185.805 115.757 185.805 113.999L 185.805 107.742L 184.7 107.738zM 182.512 108.539C 183.825 108.539 184.598 109.636 184.598 111.531C 184.598 113.335 183.813 114.433 182.528 114.433C 181.204 114.433 180.399 113.324 180.399 111.484C 180.399 109.664 181.211 108.535 182.512 108.535L 182.512 108.539z"/>
<path style="stroke:none; fill-rule:evenodd; fill:#000000" d="M 190.5 107.738L 189.204 107.738L 189.204 105.625L 188.004 105.625L 188.004 107.738L 187.004 107.738L 187.004 108.738L 188.004 108.738L 188.004 114.355C 188.004 115.105 188.536 115.531 189.497 115.531C 189.79 115.531 190.086 115.503 190.5 115.433L 190.5 114.457C 190.336 114.441 190.141 114.437 189.899 114.437C 189.356 114.437 189.207 114.3 189.207 113.781L 189.207 108.746L 190.504 108.746L 190.5 107.738z"/>
<path style="stroke:none; fill-rule:evenodd; fill:#000000" d="M 191.801 104.738L 191.801 115.238L 193 115.238L 193 111.023C 193 109.464 193.805 108.441 195.043 108.441C 195.43 108.441 195.821 108.57 196.106 108.789C 196.45 109.035 196.594 109.398 196.594 109.941L 196.594 115.238L 197.793 115.238L 197.793 109.511C 197.793 108.242 196.887 107.441 195.414 107.441C 194.348 107.441 193.7 107.781 192.993 108.734L 192.993 104.742L 191.801 104.738z"/>
<path style="stroke:none; fill-rule:evenodd; fill:#000000" d="M 191.403 128.035L 191.403 127.175C 191.403 125.89 186.793 125.14 178.856 125.14L 162.887 125.14C 153.997 125.14 150.84 124.792 149.692 123.703L 143.094 123.703C 141.95 124.789 138.696 125.14 129.899 125.14L 113.93 125.14C 105.997 125.14 101.407 125.886 101.407 127.175L 101.407 128.035L 107.622 128.035L 107.622 127.753C 107.622 126.832 109.055 126.57 114.028 126.57L 131.34 126.57C 139.278 126.57 143.965 126.101 146.45 125.085C 148.743 126.187 152.664 126.57 161.465 126.57L 178.774 126.57C 183.747 126.57 185.184 126.832 185.184 127.753L 185.184 128.035L 191.403 128.035z"/>
</g>
</svg>