<?xml version="1.0" encoding="UTF-8" standalone="no"?>
<svg
   xmlns:dc="http://purl.org/dc/elements/1.1/"
   xmlns:cc="http://creativecommons.org/ns#"
   xmlns:rdf="http://www.w3.org/1999/02/22-rdf-syntax-ns#"
   xmlns:svg="http://www.w3.org/2000/svg"
   xmlns="http://www.w3.org/2000/svg"
   xmlns:sodipodi="http://sodipodi.sourceforge.net/DTD/sodipodi-0.dtd"
   xmlns:inkscape="http://www.inkscape.org/namespaces/inkscape"
   version="1.1"
   width="400px"
   height="400px"
   viewBox="0 0 1000.0 1000.0"
   id="svg7604"
   inkscape:version="0.48.2 r9819"
   sodipodi:docname="fig_emery_liq_vs_vit_settle.svg"
   inkscape:export-filename="/Users/oreilly/svn_docs/figs/fig_emery_liq_vs_vit_settle.png"
   inkscape:export-xdpi="150"
   inkscape:export-ydpi="150">
  <metadata
     id="metadata7706">
    <rdf:RDF>
      <cc:Work
         rdf:about="">
        <dc:format>image/svg+xml</dc:format>
        <dc:type
           rdf:resource="http://purl.org/dc/dcmitype/StillImage" />
        <dc:title />
      </cc:Work>
    </rdf:RDF>
  </metadata>
  <defs
     id="defs7704">
    <marker
       inkscape:stockid="Arrow1Mend"
       orient="auto"
       refY="0.0"
       refX="0.0"
       id="Arrow1Mend"
       style="overflow:visible;">
      <path
         id="path8605"
         d="M 0.0,0.0 L 5.0,-5.0 L -12.5,0.0 L 5.0,5.0 L 0.0,0.0 z "
         style="fill-rule:evenodd;stroke:#000000;stroke-width:1.0pt;marker-start:none;"
         transform="scale(0.4) rotate(180) translate(10,0)" />
    </marker>
  </defs>
  <sodipodi:namedview
     pagecolor="#ffffff"
     bordercolor="#666666"
     borderopacity="1"
     objecttolerance="10"
     gridtolerance="10"
     guidetolerance="10"
     inkscape:pageopacity="0"
     inkscape:pageshadow="2"
     inkscape:window-width="1644"
     inkscape:window-height="1077"
     id="namedview7702"
     showgrid="false"
     inkscape:zoom="1.11375"
     inkscape:cx="154.35542"
     inkscape:cy="227.48557"
     inkscape:window-x="106"
     inkscape:window-y="21"
     inkscape:window-maximized="0"
     inkscape:current-layer="svg7604" />
  <rect
     style="fill:#ffffff;fill-opacity:1;fill-rule:nonzero;stroke:#ffffff;stroke-width:7.88955498;stroke-linejoin:round;stroke-miterlimit:4;stroke-opacity:1;stroke-dasharray:none;stroke-dashoffset:0"
     id="rect7821"
     width="1363.6168"
     height="752.5802"
     x="-186.94052"
     y="142.53648" />
  <path
     stroke="#000000"
     stroke-width="2"
     fill="none"
     d="M -69.5,797.3 L -69.5,189.9 L 1145.3,189.9 L 1145.3,797.3 L -69.5,797.3 "
     id="path7606" />
  <text
     style="font-size:30.70000076px;text-anchor:middle;fill:#000000;font-family:Arial"
     id="text7610"
     font-size="30.7"
     y="879.29999"
     x="537.90002">cycle</text>
  <text
     style="font-size:30.70000076px;text-anchor:middle;fill:#000000;font-family:Arial"
     id="text7612"
     font-size="30.7"
     y="849"
     x="88.900002">10</text>
  <text
     style="font-size:30.70000076px;text-anchor:middle;fill:#000000;font-family:Arial"
     id="text7614"
     font-size="30.7"
     y="849"
     x="265">20</text>
  <text
     style="font-size:30.70000076px;text-anchor:middle;fill:#000000;font-family:Arial"
     id="text7616"
     font-size="30.7"
     y="849"
     x="441.10001">30</text>
  <text
     style="font-size:30.70000076px;text-anchor:middle;fill:#000000;font-family:Arial"
     id="text7618"
     font-size="30.7"
     y="849"
     x="617.09998">40</text>
  <text
     style="font-size:30.70000076px;text-anchor:middle;fill:#000000;font-family:Arial"
     id="text7620"
     font-size="30.7"
     y="849"
     x="793.20001">50</text>
  <text
     style="font-size:30.70000076px;text-anchor:middle;fill:#000000;font-family:Arial"
     id="text7622"
     font-size="30.7"
     y="849"
     x="969.20001">60</text>
  <text
     style="font-size:30.70000076px;text-anchor:middle;fill:#000000;font-family:Arial"
     id="text7624"
     font-size="30.7"
     y="849"
     x="1145.3">70</text>
  <path
     style="fill:none;stroke:#000000;stroke-width:2"
     inkscape:connector-curvature="0"
     id="path7626"
     d="m -69.5,797.3 1214.8,0 m -1056.4,15.2 0,-30.4 m 176.1,30.4 0,-30.4 m 176.1,30.4 0,-30.4 m 176,30.4 0,-30.4 m 176.1,30.4 0,-30.4 m 176,30.4 0,-30.4 m 176.1,30.4 0,-30.4" />
  <path
     style="fill:none;stroke:#000000;stroke-width:2"
     inkscape:connector-curvature="0"
     id="path7628"
     d="m -69.5,189.9 1214.8,0 m -1056.4,15.2 0,-30.4 m 176.1,30.4 0,-30.4 m 176.1,30.4 0,-30.4 m 176,30.4 0,-30.4 m 176.1,30.4 0,-30.4 m 176,30.4 0,-30.4 m 176.1,30.4 0,-30.4" />
  <text
     style="font-size:30.70000076px;text-anchor:end;fill:#000000;font-family:Arial"
     id="text7632"
     font-size="30.7"
     y="809.5"
     x="-90.800003">0</text>
  <text
     style="font-size:30.70000076px;text-anchor:end;fill:#000000;font-family:Arial"
     id="text7634"
     font-size="30.7"
     y="748.70001"
     x="-90.800003">0.1</text>
  <text
     style="font-size:30.70000076px;text-anchor:end;fill:#000000;font-family:Arial"
     id="text7636"
     font-size="30.7"
     y="688"
     x="-90.800003">0.2</text>
  <text
     style="font-size:30.70000076px;text-anchor:end;fill:#000000;font-family:Arial"
     id="text7638"
     font-size="30.7"
     y="627.29999"
     x="-90.800003">0.3</text>
  <text
     style="font-size:30.70000076px;text-anchor:end;fill:#000000;font-family:Arial"
     id="text7640"
     font-size="30.7"
     y="566.5"
     x="-90.800003">0.4</text>
  <text
     style="font-size:30.70000076px;text-anchor:end;fill:#000000;font-family:Arial"
     id="text7642"
     font-size="30.7"
     y="505.79999"
     x="-90.800003">0.5</text>
  <text
     style="font-size:30.70000076px;text-anchor:end;fill:#000000;font-family:Arial"
     id="text7644"
     font-size="30.7"
     y="445"
     x="-90.800003">0.6</text>
  <text
     style="font-size:30.70000076px;text-anchor:end;fill:#000000;font-family:Arial"
     id="text7646"
     font-size="30.7"
     y="384.29999"
     x="-90.800003">0.7</text>
  <text
     style="font-size:30.70000076px;text-anchor:end;fill:#000000;font-family:Arial"
     id="text7648"
     font-size="30.7"
     y="323.5"
     x="-90.800003">0.8</text>
  <text
     style="font-size:30.70000076px;text-anchor:end;fill:#000000;font-family:Arial"
     id="text7650"
     font-size="30.7"
     y="262.79999"
     x="-90.800003">0.9</text>
  <text
     style="font-size:30.70000076px;text-anchor:end;fill:#000000;font-family:Arial"
     id="text7652"
     font-size="30.7"
     y="202.10001"
     x="-90.800003">1</text>
  <path
     style="fill:none;stroke:#000000;stroke-width:2"
     inkscape:connector-curvature="0"
     id="path7654"
     d="m -69.5,797.3 0,-607.4 m -15.2,607.4 30.4,0 m -30.4,-60.7 30.4,0 m -30.4,-60.8 30.4,0 m -30.4,-60.7 30.4,0 m -30.4,-60.7 30.4,0 m -30.4,-60.8 30.4,0 m -30.4,-60.7 30.4,0 m -30.4,-60.8 30.4,0 m -30.4,-60.7 30.4,0 m -30.4,-60.7 30.4,0 m -30.4,-60.8 30.4,0" />
  <path
     style="fill:none;stroke:#000000;stroke-width:2"
     inkscape:connector-curvature="0"
     id="path7656"
     d="m 1145.3,797.3 0,-607.4 m -15.2,607.4 30.4,0 m -30.4,-60.7 30.4,0 m -30.4,-60.8 30.4,0 m -30.4,-60.7 30.4,0 m -30.4,-60.7 30.4,0 m -30.4,-60.8 30.4,0 m -30.4,-60.7 30.4,0 m -30.4,-60.8 30.4,0 m -30.4,-60.7 30.4,0 m -30.4,-60.7 30.4,0 m -30.4,-60.8 30.4,0" />
  <text
     x="795.67114"
     y="265.52582"
     font-size="30.7"
     id="text7664"
     style="font-size:30.70000076px;text-anchor:start;fill:#000000;font-family:Arial">OFC LV+ Liquid</text>
  <text
     x="731.69812"
     y="372.27756"
     font-size="30.7"
     id="text7670"
     style="font-size:30.70000076px;text-anchor:start;fill:#ff0000;font-family:Arial">OFC LV+ Vitamins</text>
  <text
     x="413.32962"
     y="626.91748"
     font-size="30.7"
     id="text7688"
     style="font-size:30.70000076px;text-anchor:start;fill:#a020f0;font-family:Arial">OFC LV- Bitter</text>
  <path
     style="fill:none;stroke:#000000;stroke-width:4"
     inkscape:connector-curvature="0"
     id="path7692"
     d="m -69.5,797.3 17.6,0 17.6,0 17.6,0 17.6,0 17.6,0 17.6,0 17.6,0 17.6,0 17.6,0 17.6,0 17.6,0 17.7,0 17.6,-110.7 17.6,-83.6 17.6,-52.3 17.6,24.4 17.6,22.5 17.6,-15.5 17.6,-0.4 17.6,4.5 17.6,-2 17.6,-0.2 17.6,-53.1 17.6,-50.4 17.6,-41.8 17.6,-33.5 17.6,-26.8 17.6,-24.4 17.7,-21.8 17.6,-18.8 17.6,-15.7 17.6,-13.1 17.6,-10.6 17.6,-8.7 17.6,-7.1 17.6,-5.6 17.6,-4.6 17.6,-3.6 17.6,-2.9 17.6,-2.3 17.6,-2 17.6,-1.7 17.6,-1.5 17.6,-1.3 17.6,-1.3 17.7,-1.3 17.6,-1.4 17.6,-1.3 17.6,-1.3 17.6,-1.3 17.6,-1.2 17.6,-1.1 17.6,-1 17.6,-0.9 17.6,-0.8 17.6,-0.6 17.6,-0.6 17.6,-0.5 17.6,-0.4 17.6,-0.3 17.6,-0.3 17.6,-0.2 17.7,-0.2 17.6,-0.1 17.6,-0.1 17.6,-0.1 17.6,0 17.6,-0.1 17.6,0" />
  <path
     style="fill:none;stroke:#ff0000;stroke-width:4;stroke-miterlimit:4;stroke-dasharray:4,4;stroke-dashoffset:0"
     inkscape:connector-curvature="0"
     id="path7694"
     d="m -69.5,797.3 17.6,0 17.6,0 17.6,0 17.6,0 17.6,0 17.6,0 17.6,0 17.6,0 17.6,0 17.6,0 17.6,0 17.7,0 17.6,-110.7 17.6,-83.6 17.6,-52.3 17.6,24.4 17.6,22.5 17.6,-15.5 17.6,-0.4 17.6,4.5 17.6,-2 17.6,-0.2 17.6,-1.1 17.6,-46.2 17.6,-42.6 17.6,-34.5 17.6,-27.1 17.6,-19.9 17.7,-14 17.6,-9.5 17.6,-17.4 17.6,-18.9 17.6,-17.5 17.6,-15.4 17.6,-13.1 17.6,-10.9 17.6,-8.8 17.6,-7.3 17.6,-5.8 17.6,-4.7 17.6,-0.2 17.6,6.8 17.6,18.7 17.6,37 17.6,46.8 17.7,44.2 17.6,60.9 17.6,45.9 17.6,39.8 17.6,45.7 17.6,36.4 17.6,28.2 17.6,14 17.6,4.2 17.6,19.9 17.6,15.7 17.6,9.6 17.6,-2.8 17.6,-3.5 17.6,0.5 17.6,0.9 17.6,0.2 17.7,-0.2 17.6,0 17.6,0.1 17.6,0 17.6,0 17.6,0.2 17.6,0.1" />
  <path
     style="fill:none;stroke:#0000ff;stroke-width:4.00000005;stroke-miterlimit:4;stroke-dasharray:12.00000018,4.00000005;stroke-dashoffset:0"
     inkscape:connector-curvature="0"
     id="path7696"
     d="m -69.5,797.3 17.6,0 17.6,0 17.6,0 17.6,0 17.6,0 17.6,0 17.6,0 17.6,0 17.6,0 17.6,0 17.6,0 17.7,0 17.6,0 17.6,0 17.6,0 17.6,0 17.6,0 17.6,0 17.6,0 17.6,0 17.6,-4.2 17.6,-114.8 17.6,-90.8 17.6,-72.8 17.6,-58.5 17.6,-47.1 17.6,-38 17.6,-30.7 17.7,-24.7 17.6,-20 17.6,-16.1 17.6,-13.1 17.6,-10.6 17.6,-8.6 17.6,-6.9 17.6,-5.6 17.6,-4.5 17.6,-3.7 17.6,-2.9 17.6,-2.2 17.6,-1.8 17.6,-1.5 17.6,-1.4 17.6,-1.1 17.6,-1.1 17.7,-1 17.6,-1 17.6,-0.9 17.6,-0.8 17.6,-0.8 17.6,-0.7 17.6,-0.6 17.6,-0.5 17.6,-0.5 17.6,-0.4 17.6,-0.3 17.6,-0.3 17.6,-0.3 17.6,-0.3 17.6,-0.1 17.6,-0.2 17.6,-0.1 17.7,-0.1 17.6,-0.1 17.6,-0.1 17.6,0 17.6,-0.1 17.6,0 17.6,0" />
  <path
     style="fill:none;stroke:#00cd00;stroke-width:4.00000005;stroke-miterlimit:4;stroke-dasharray:4.00000005,8.00000012;stroke-dashoffset:0"
     inkscape:connector-curvature="0"
     id="path7698"
     d="m -69.5,797.3 17.6,0 17.6,0 17.6,0 17.6,0 17.6,0 17.6,0 17.6,0 17.6,0 17.6,0 17.6,0 17.6,0 17.7,0 17.6,0 17.6,0 17.6,0 17.6,0 17.6,0 17.6,0 17.6,0 17.6,0 17.6,0 17.6,0 17.6,-113.9 17.6,-88.8 17.6,-69.7 17.6,-55.5 17.6,-44.4 17.6,-35.6 17.7,-28.5 17.6,-22.5 17.6,-17.7 17.6,-14.5 17.6,-12.3 17.6,-10.6 17.6,-9.1 17.6,-7.8 17.6,-6.6 17.6,-5.6 17.6,-4.7 17.6,109.6 17.6,87.6 17.6,70.1 17.6,56.1 17.6,44.9 17.6,35.9 17.7,28.7 17.6,23 17.6,18.4 17.6,14.7 17.6,11.8 17.6,9.4 17.6,7.5 17.6,6 17.6,4.8 17.6,3.9 17.6,3.1 17.6,2.5 17.6,1.9 17.6,1.6 17.6,1.3 17.6,1 17.6,0.8 17.7,0.6 17.6,0.6 17.6,0.4 17.6,0.3 17.6,0.3 17.6,0.2 17.6,0.1" />
  <path
     style="fill:none;stroke:#a020f0;stroke-width:4.00000005;stroke-miterlimit:4;stroke-dasharray:16.00000025,4.00000005;stroke-dashoffset:0"
     inkscape:connector-curvature="0"
     id="path7700"
     d="m -69.5,797.3 17.6,0 17.6,0 17.6,0 17.6,0 17.6,0 17.6,0 17.6,0 17.6,0 17.6,0 17.6,0 17.6,0 17.7,0 17.6,0 17.6,0 17.6,0 17.6,0 17.6,0 17.6,0 17.6,0 17.6,0 17.6,0 17.6,0 17.6,0 17.6,0 17.6,0 17.6,0 17.6,0 17.6,0 17.7,0 17.6,0 17.6,0 17.6,0 17.6,0 17.6,0 17.6,0 17.6,0 17.6,0 17.6,-6.3 17.6,-111.5 17.6,-88.3 17.6,-66.7 17.6,-43.5 17.6,2.1 17.6,62.8 17.6,50.3 17.7,40.2 17.6,32.2 17.6,25.8 17.6,20.6 17.6,16.4 17.6,13.2 17.6,8 17.6,8.8 17.6,7.2 17.6,5.7 17.6,4.6 17.6,3.7 17.6,3 17.6,2.3 17.6,1.9 17.6,1.5 17.6,1.2 17.7,1 17.6,0.7 17.6,0.7 17.6,0.4 17.6,0.4 17.6,0.4 17.6,0.2" />
  <text
     xml:space="preserve"
     style="font-size:35px;font-style:normal;font-variant:normal;font-weight:normal;font-stretch:normal;text-indent:0;text-align:start;text-decoration:none;line-height:125%;letter-spacing:0px;word-spacing:0px;text-transform:none;direction:ltr;block-progression:tb;writing-mode:lr-tb;text-anchor:start;color:#000000;fill:#000000;fill-opacity:1;fill-rule:nonzero;stroke:none;stroke-width:1px;marker:none;visibility:visible;display:inline;overflow:visible;enable-background:accumulate;font-family:Arial;-inkscape-font-specification:Arial"
     x="-560.50085"
     y="-148.86235"
     id="text7732"
     sodipodi:linespacing="125%"
     transform="matrix(0,-1,1,0,0,0)"><tspan
       sodipodi:role="line"
       id="tspan7734"
       x="-560.50085"
       y="-148.86235">activation</tspan></text>
  <g
     id="g7811"
     transform="translate(-340.06734,-121.21212)">
    <text
       style="font-size:30.70000076px;text-anchor:start;fill:#00cd00;font-family:Arial"
       id="text7682"
       font-size="30.7"
       y="501.34601"
       x="401.96902">ACC Approach Green</text>
    <text
       x="401.96902"
       y="532.77136"
       font-size="30.7"
       id="text7809"
       style="font-size:30.70000076px;text-anchor:start;fill:#00cd00;font-family:Arial">(Veggies)</text>
  </g>
  <g
     id="g7817"
     transform="translate(62.85073,0)">
    <text
       style="font-size:30.70000076px;text-anchor:start;fill:#0000ff;font-family:Arial"
       id="text7676"
       font-size="30.7"
       y="270.01514"
       x="88.8377">ACC Approach Blue</text>
    <text
       x="88.8377"
       y="302.56284"
       font-size="30.7"
       id="text7815"
       style="font-size:30.70000076px;text-anchor:start;fill:#0000ff;font-family:Arial">(Water)</text>
  </g>
  <path
     style="fill:#ffffff;fill-opacity:1;fill-rule:nonzero;stroke:#000000;stroke-width:2;stroke-linejoin:round;stroke-miterlimit:4;stroke-opacity:1;stroke-dasharray:none;stroke-dashoffset:0;marker-end:url(#Arrow1Mend)"
     d="M 250.95398,226.26263 243.32211,125.70146"
     id="path7823"
     inkscape:connector-curvature="0"
     transform="scale(2.5,2.5)" />
  <text
     xml:space="preserve"
     style="font-size:35px;font-style:normal;font-variant:normal;font-weight:normal;font-stretch:normal;text-indent:0;text-align:start;text-decoration:none;line-height:125%;letter-spacing:0px;word-spacing:0px;text-transform:none;direction:ltr;block-progression:tb;writing-mode:lr-tb;text-anchor:start;color:#000000;fill:#000000;fill-opacity:1;fill-rule:nonzero;stroke:none;stroke-width:1px;marker:none;visibility:visible;display:inline;overflow:visible;enable-background:accumulate;font-family:Arial;-inkscape-font-specification:Arial"
     x="-581.32452"
     y="561.01337"
     id="text9037"
     sodipodi:linespacing="125%"
     transform="matrix(-0.09237085,-0.99572467,0.99572467,-0.09237085,0,0)"
     inkscape:transform-center-y="13.468013"><tspan
       sodipodi:role="line"
       id="tspan9039"
       x="-581.32452"
       y="561.01337">Inhibition</tspan></text>
</svg>
