<?xml version="1.0" encoding="ISO-8859-1" standalone="yes"?>
<svg width="245.097" height="140.984">
  <defs> 
    <marker id="ArrowEnd" viewBox="0 0 10 10" refX="0" refY="5" 
     markerUnits="strokeWidth" 
     markerWidth="4" 
     markerHeight="3" 
     orient="auto"> 
        <path d="M 0 0 L 10 5 L 0 10 z" /> 
    </marker>
    <marker id="ArrowStart" viewBox="0 0 10 10" refX="10" refY="5" 
     markerUnits="strokeWidth" 
     markerWidth="4" 
     markerHeight="3" 
     orient="auto"> 
        <path d="M 10 0 L 0 5 L 10 10 z" /> 
    </marker> </defs>
<g>
<path style="stroke:#000000; stroke-width:1.9133; fill:none" d="M 14.0351 10.0273L 14.0351 128.652"/>
<path style="stroke:#000000; stroke-width:1.9133; fill:none" d="M 14.0351 128.652L 218.757 128.652"/>
<path style="stroke:#000000; stroke-width:1.9133; fill:none" d="M 14.0351 117.172L 21.6875 117.172L 33.164 42.5543L 38.9023 96.125L 65.6875 96.125L 73.3398 50.207L 80.9921 96.125L 109.687 96.125L 117.34 50.207L 124.992 96.125L 155.601 96.125L 168.992 40.6403L 180.468 115.258L 188.121 115.258"/>
<path style="stroke:#000000; stroke-dasharray:6,3; stroke-width:1.9133; fill:none" d="M 21.6875 117.172L 33.164 71.2539L 36.9882 117.172L 63.7734 117.172L 73.3359 50.207L 80.9882 117.172L 109.683 117.172L 117.336 48.2933L 126.902 117.172L 153.687 117.172L 167.078 76.9961L 180.468 115.262"/>
<path style="stroke:none; fill-rule:evenodd; fill:#000000" d="M 173.402 4.09729L 173.402 12.4963L 174.3 12.4963L 174.3 11.7303C 174.754 12.4533 175.359 12.7973 176.195 12.7973C 177.769 12.7973 178.797 11.4923 178.797 9.4803C 178.797 7.5153 177.816 6.30029 176.246 6.30029C 175.425 6.30029 174.847 6.6133 174.402 7.2973L 174.402 4.09729L 173.402 4.09729zM 176.05 7.20729C 177.117 7.20729 177.804 8.13629 177.804 9.5703C 177.804 10.9333 177.093 11.8633 176.05 11.8633C 175.043 11.8633 174.375 10.9453 174.375 9.53529C 174.375 8.12529 175.039 7.20729 176.05 7.20729z"/>
<path style="stroke:none; fill-rule:evenodd; fill:#000000" d="M 185.101 9.7973C 185.101 8.8793 185.035 8.32829 184.863 7.8833C 184.476 6.8983 183.562 6.30029 182.445 6.30029C 180.781 6.30029 179.707 7.59329 179.707 9.58229C 179.707 11.5703 180.742 12.7973 182.418 12.7973C 183.781 12.7973 184.726 12.0043 184.968 10.6723L 184.015 10.6723C 183.754 11.4763 183.222 11.8943 182.461 11.8943C 181.859 11.8943 181.347 11.6173 181.031 11.1013C 180.804 10.7543 180.726 10.4023 180.714 9.7973L 185.101 9.7973zM 180.679 9.0313C 180.757 7.9183 181.437 7.1953 182.398 7.1953C 183.336 7.1953 184.062 7.97229 184.062 8.9613C 184.062 8.9803 184.062 9.0043 184.05 9.0273L 180.679 9.0313z"/>
<path style="stroke:none; fill-rule:evenodd; fill:#000000" d="M 190.629 8.16029C 190.617 6.97229 189.832 6.30029 188.429 6.30029C 187.019 6.30029 186.105 7.0273 186.105 8.1483C 186.105 9.09329 186.593 9.5433 188.043 9.8903L 188.953 10.1093C 189.629 10.2693 189.898 10.5113 189.898 10.9493C 189.898 11.5113 189.332 11.8943 188.488 11.8943C 187.968 11.8943 187.531 11.7463 187.289 11.4883C 187.14 11.3163 187.07 11.1403 187.011 10.7073L 185.996 10.7073C 186.039 12.1173 186.824 12.7973 188.406 12.7973C 189.929 12.7973 190.898 12.0473 190.898 10.8833C 190.898 9.9843 190.386 9.4883 189.172 9.1993L 188.238 8.9803C 187.445 8.7973 187.105 8.5433 187.105 8.11729C 187.105 7.5663 187.601 7.20729 188.39 7.20729C 189.164 7.20729 189.582 7.53529 189.605 8.16429L 190.629 8.16029z"/>
<path style="stroke:none; fill-rule:evenodd; fill:#000000" d="M 194.199 6.49629L 193.3 6.49629L 193.3 4.82829L 192.3 4.82829L 192.3 6.49629L 191.402 6.49629L 191.402 7.2933L 192.3 7.2933L 192.3 11.8403C 192.3 12.4453 192.703 12.7893 193.433 12.7893C 193.656 12.7893 193.882 12.7653 194.195 12.7073L 194.195 11.8713C 194.082 11.9613 193.945 11.9883 193.777 11.9883C 193.402 11.9883 193.297 11.8753 193.297 11.4453L 193.297 7.2933L 194.195 7.2933L 194.199 6.49629z"/>
<path style="stroke:none; fill-rule:evenodd; fill:#000000" d="M 202.726 8.16029C 202.714 6.97229 201.929 6.30029 200.527 6.30029C 199.117 6.30029 198.203 7.0273 198.203 8.1483C 198.203 9.09329 198.691 9.5433 200.14 9.8903L 201.05 10.1093C 201.726 10.2693 201.996 10.5113 201.996 10.9493C 201.996 11.5113 201.429 11.8943 200.586 11.8943C 200.066 11.8943 199.629 11.7463 199.386 11.4883C 199.238 11.3163 199.168 11.1403 199.109 10.7073L 198.093 10.7073C 198.136 12.1173 198.922 12.7973 200.504 12.7973C 202.027 12.7973 202.996 12.0473 202.996 10.8833C 202.996 9.9843 202.484 9.4883 201.269 9.1993L 200.336 8.9803C 199.543 8.7973 199.203 8.5433 199.203 8.11729C 199.203 7.5663 199.699 7.20729 200.488 7.20729C 201.261 7.20729 201.679 7.53529 201.703 8.16429L 202.726 8.16029z"/>
<path style="stroke:none; fill-rule:evenodd; fill:#000000" d="M 206.402 6.49629L 205.504 6.49629L 205.504 4.82829L 204.504 4.82829L 204.504 6.49629L 203.605 6.49629L 203.605 7.2933L 204.504 7.2933L 204.504 11.8403C 204.504 12.4453 204.906 12.7893 205.636 12.7893C 205.859 12.7893 206.086 12.7653 206.398 12.7073L 206.398 11.8713C 206.285 11.9613 206.148 11.9883 205.98 11.9883C 205.605 11.9883 205.5 11.8753 205.5 11.4453L 205.5 7.2933L 206.398 7.2933L 206.402 6.49629z"/>
<path style="stroke:none; fill-rule:evenodd; fill:#000000" d="M 208.402 6.49629L 207.402 6.49629L 207.402 12.4963L 208.402 12.4963L 208.402 6.49629zM 208.402 4.09729L 207.402 4.09729L 207.402 5.33229L 208.402 5.33229L 208.402 4.09729z"/>
<path style="stroke:none; fill-rule:evenodd; fill:#000000" d="M 210 6.46829L 210 12.4923L 211 12.4923L 211 8.6833C 211 7.80429 211.625 7.09729 212.394 7.09729C 213.097 7.09729 213.496 7.53529 213.496 8.3123L 213.496 12.4923L 214.496 12.4923L 214.496 8.6833C 214.496 7.80429 215.121 7.09729 215.89 7.09729C 216.582 7.09729 216.992 7.5473 216.992 8.3123L 216.992 12.4923L 217.992 12.4923L 217.992 7.97229C 217.992 6.8943 217.371 6.2973 216.238 6.2973C 215.433 6.2973 214.945 6.53929 214.382 7.2263C 214.027 6.57829 213.543 6.2973 212.757 6.2973C 211.953 6.2973 211.422 6.59329 210.902 7.3163L 210.902 6.46829L 210 6.46829z"/>
<path style="stroke:none; fill-rule:evenodd; fill:#000000" d="M 224.402 12.5313L 224.402 6.50029L 223.402 6.50029L 223.402 9.9453C 223.402 11.1833 222.757 11.9963 221.75 11.9963C 220.988 11.9963 220.504 11.5353 220.504 10.8043L 220.504 6.50029L 219.504 6.50029L 219.504 11.1523C 219.504 12.1523 220.261 12.7973 221.453 12.7973C 222.351 12.7973 222.925 12.4883 223.5 11.6953L 223.5 12.5353L 224.402 12.5313z"/>
<path style="stroke:none; fill-rule:evenodd; fill:#000000" d="M 225.902 12.4963L 226.902 12.4963L 226.902 4.09729L 225.902 4.09729L 225.902 12.4963z"/>
<path style="stroke:none; fill-rule:evenodd; fill:#000000" d="M 233.3 12.5313L 233.3 6.50029L 232.3 6.50029L 232.3 9.9453C 232.3 11.1833 231.656 11.9963 230.648 11.9963C 229.886 11.9963 229.402 11.5353 229.402 10.8043L 229.402 6.50029L 228.402 6.50029L 228.402 11.1523C 228.402 12.1523 229.16 12.7973 230.351 12.7973C 231.25 12.7973 231.824 12.4883 232.398 11.6953L 232.398 12.5353L 233.3 12.5313z"/>
<path style="stroke:none; fill-rule:evenodd; fill:#000000" d="M 239.129 8.16029C 239.117 6.97229 238.332 6.30029 236.929 6.30029C 235.519 6.30029 234.605 7.0273 234.605 8.1483C 234.605 9.09329 235.093 9.5433 236.543 9.8903L 237.453 10.1093C 238.129 10.2693 238.398 10.5113 238.398 10.9493C 238.398 11.5113 237.832 11.8943 236.988 11.8943C 236.468 11.8943 236.031 11.7463 235.789 11.4883C 235.64 11.3163 235.57 11.1403 235.511 10.7073L 234.496 10.7073C 234.539 12.1173 235.324 12.7973 236.906 12.7973C 238.429 12.7973 239.398 12.0473 239.398 10.8833C 239.398 9.9843 238.886 9.4883 237.672 9.1993L 236.738 8.9803C 235.945 8.7973 235.605 8.5433 235.605 8.11729C 235.605 7.5663 236.101 7.20729 236.89 7.20729C 237.664 7.20729 238.082 7.53529 238.105 8.16429L 239.129 8.16029z"/>
<path style="stroke:none; fill-rule:evenodd; fill:#000000" d="M 179.16 25.8983L 180.925 19.8983L 179.847 19.8983L 178.656 24.5663L 177.476 19.8983L 176.308 19.8983L 175.164 24.5663L 173.937 19.8983L 172.882 19.8983L 174.625 25.8983L 175.703 25.8983L 176.859 21.1833L 178.074 25.8983L 179.16 25.8983z"/>
<path style="stroke:none; fill-rule:evenodd; fill:#000000" d="M 184.238 19.6953C 182.535 19.6953 181.504 20.9103 181.504 22.9453C 181.504 24.9803 182.523 26.1953 184.254 26.1953C 185.957 26.1953 187.004 24.9843 187.004 22.9963C 187.004 20.9063 185.996 19.7033 184.246 19.7033L 184.238 19.6953zM 184.25 20.5973C 185.343 20.5973 186 21.4843 186 22.9803C 186 24.3943 185.324 25.2933 184.25 25.2933C 183.168 25.2933 182.5 24.4063 182.5 22.9453C 182.5 21.4963 183.164 20.5973 184.25 20.5973z"/>
<path style="stroke:none; fill-rule:evenodd; fill:#000000" d="M 188.3 19.8713L 188.3 25.8943L 189.3 25.8943L 189.3 22.7613C 189.3 21.8983 189.511 21.3363 189.961 21.0003C 190.25 20.7813 190.531 20.7153 191.183 20.7033L 191.183 19.7383C 191.027 19.7183 190.949 19.7073 190.824 19.7073C 190.214 19.7073 189.75 20.0743 189.203 20.9683L 189.203 19.8793L 188.3 19.8713z"/>
<path style="stroke:none; fill-rule:evenodd; fill:#000000" d="M 196.328 21.5583C 196.316 20.3713 195.531 19.6993 194.129 19.6993C 192.718 19.6993 191.804 20.4253 191.804 21.5473C 191.804 22.4923 192.293 22.9413 193.742 23.2893L 194.652 23.5073C 195.328 23.6683 195.597 23.9103 195.597 24.3473C 195.597 24.9103 195.031 25.2933 194.187 25.2933C 193.668 25.2933 193.23 25.1443 192.988 24.8863C 192.84 24.7153 192.769 24.5393 192.711 24.1053L 191.695 24.1053C 191.738 25.5153 192.523 26.1953 194.105 26.1953C 195.629 26.1953 196.597 25.4453 196.597 24.2813C 196.597 23.3833 196.086 22.8863 194.871 22.5973L 193.937 22.3793C 193.144 22.1953 192.804 21.9413 192.804 21.5153C 192.804 20.9653 193.3 20.6053 194.09 20.6053C 194.863 20.6053 195.281 20.9333 195.304 21.5623L 196.328 21.5583z"/>
<path style="stroke:none; fill-rule:evenodd; fill:#000000" d="M 200 19.8983L 199.101 19.8983L 199.101 18.2303L 198.101 18.2303L 198.101 19.8983L 197.203 19.8983L 197.203 20.6953L 198.101 20.6953L 198.101 25.2423C 198.101 25.8473 198.504 26.1913 199.234 26.1913C 199.457 26.1913 199.683 26.1683 199.996 26.1093L 199.996 25.2733C 199.882 25.3633 199.746 25.3903 199.578 25.3903C 199.203 25.3903 199.097 25.2773 199.097 24.8473L 199.097 20.6953L 199.996 20.6953L 200 19.8983z"/>
<path style="stroke:none; fill-rule:evenodd; fill:#000000" d="M 208.527 21.5583C 208.515 20.3713 207.73 19.6993 206.328 19.6993C 204.918 19.6993 204.004 20.4253 204.004 21.5473C 204.004 22.4923 204.492 22.9413 205.941 23.2893L 206.851 23.5073C 207.527 23.6683 207.797 23.9103 207.797 24.3473C 207.797 24.9103 207.23 25.2933 206.386 25.2933C 205.867 25.2933 205.429 25.1443 205.187 24.8863C 205.039 24.7153 204.968 24.5393 204.91 24.1053L 203.894 24.1053C 203.937 25.5153 204.722 26.1953 206.304 26.1953C 207.828 26.1953 208.797 25.4453 208.797 24.2813C 208.797 23.3833 208.285 22.8863 207.07 22.5973L 206.136 22.3793C 205.343 22.1953 205.004 21.9413 205.004 21.5153C 205.004 20.9653 205.5 20.6053 206.289 20.6053C 207.062 20.6053 207.48 20.9333 207.504 21.5623L 208.527 21.5583z"/>
<path style="stroke:none; fill-rule:evenodd; fill:#000000" d="M 212.101 19.8983L 211.203 19.8983L 211.203 18.2303L 210.203 18.2303L 210.203 19.8983L 209.304 19.8983L 209.304 20.6953L 210.203 20.6953L 210.203 25.2423C 210.203 25.8473 210.605 26.1913 211.336 26.1913C 211.558 26.1913 211.785 26.1683 212.097 26.1093L 212.097 25.2733C 211.984 25.3633 211.847 25.3903 211.679 25.3903C 211.304 25.3903 211.199 25.2773 211.199 24.8473L 211.199 20.6953L 212.097 20.6953L 212.101 19.8983z"/>
<path style="stroke:none; fill-rule:evenodd; fill:#000000" d="M 214.101 19.8983L 213.101 19.8983L 213.101 25.8983L 214.101 25.8983L 214.101 19.8983zM 214.101 17.4963L 213.101 17.4963L 213.101 18.7303L 214.101 18.7303L 214.101 17.4963z"/>
<path style="stroke:none; fill-rule:evenodd; fill:#000000" d="M 215.699 19.8713L 215.699 25.8943L 216.699 25.8943L 216.699 22.0863C 216.699 21.2073 217.324 20.5003 218.093 20.5003C 218.797 20.5003 219.195 20.9373 219.195 21.7153L 219.195 25.8943L 220.195 25.8943L 220.195 22.0863C 220.195 21.2073 220.82 20.5003 221.59 20.5003C 222.281 20.5003 222.691 20.9493 222.691 21.7153L 222.691 25.8943L 223.691 25.8943L 223.691 21.3753C 223.691 20.2973 223.07 19.6993 221.937 19.6993C 221.132 19.6993 220.644 19.9413 220.082 20.6293C 219.726 19.9803 219.242 19.6993 218.457 19.6993C 217.652 19.6993 217.121 19.9963 216.601 20.7183L 216.601 19.8713L 215.699 19.8713z"/>
<path style="stroke:none; fill-rule:evenodd; fill:#000000" d="M 230.101 25.9333L 230.101 19.9023L 229.101 19.9023L 229.101 23.3473C 229.101 24.5863 228.457 25.3983 227.449 25.3983C 226.687 25.3983 226.203 24.9373 226.203 24.2073L 226.203 19.9023L 225.203 19.9023L 225.203 24.5543C 225.203 25.5543 225.961 26.1993 227.152 26.1993C 228.05 26.1993 228.625 25.8903 229.199 25.0973L 229.199 25.9373L 230.101 25.9333z"/>
<path style="stroke:none; fill-rule:evenodd; fill:#000000" d="M 231.699 25.8983L 232.699 25.8983L 232.699 17.5003L 231.699 17.5003L 231.699 25.8983z"/>
<path style="stroke:none; fill-rule:evenodd; fill:#000000" d="M 239 25.9333L 239 19.9023L 238 19.9023L 238 23.3473C 238 24.5863 237.355 25.3983 236.347 25.3983C 235.586 25.3983 235.101 24.9373 235.101 24.2073L 235.101 19.9023L 234.101 19.9023L 234.101 24.5543C 234.101 25.5543 234.859 26.1993 236.05 26.1993C 236.949 26.1993 237.523 25.8903 238.097 25.0973L 238.097 25.9373L 239 25.9333z"/>
<path style="stroke:none; fill-rule:evenodd; fill:#000000" d="M 244.828 21.5583C 244.816 20.3713 244.031 19.6993 242.629 19.6993C 241.218 19.6993 240.304 20.4253 240.304 21.5473C 240.304 22.4923 240.793 22.9413 242.242 23.2893L 243.152 23.5073C 243.828 23.6683 244.097 23.9103 244.097 24.3473C 244.097 24.9103 243.531 25.2933 242.687 25.2933C 242.168 25.2933 241.73 25.1443 241.488 24.8863C 241.34 24.7153 241.269 24.5393 241.211 24.1053L 240.195 24.1053C 240.238 25.5153 241.023 26.1953 242.605 26.1953C 244.129 26.1953 245.097 25.4453 245.097 24.2813C 245.097 23.3833 244.586 22.8863 243.371 22.5973L 242.437 22.3793C 241.644 22.1953 241.304 21.9413 241.304 21.5153C 241.304 20.9653 241.8 20.6053 242.59 20.6053C 243.363 20.6053 243.781 20.9333 243.804 21.5623L 244.828 21.5583z"/>
<path style="stroke:#000000; stroke-dasharray:6,3; stroke-width:1.9133; fill:none" d="M 147.964 23.4223L 170.922 23.4223"/>
<path style="stroke:#000000; stroke-width:1.9133; fill:none" d="M 147.964 10.0273L 170.922 10.0273"/>
<path style="stroke:none; fill-rule:evenodd; fill:#000000" d="M 4.0625 115.469C 2.875 115.48 2.20312 116.266 2.20312 117.668C 2.20312 119.078 2.92968 119.992 4.05078 119.992C 4.99614 119.992 5.44534 119.504 5.79294 118.055L 6.01174 117.145C 6.17184 116.469 6.41404 116.199 6.85154 116.199C 7.41404 116.199 7.79684 116.766 7.79684 117.609C 7.79684 118.129 7.64844 118.566 7.39064 118.809C 7.21874 118.957 7.04294 119.027 6.60934 119.086L 6.60934 120.102C 8.01954 120.059 8.69924 119.273 8.69924 117.691C 8.69924 116.168 7.94924 115.199 6.78514 115.199C 5.88674 115.199 5.39064 115.711 5.10154 116.926L 4.88281 117.859C 4.69922 118.652 4.44531 118.992 4.01953 118.992C 3.46875 118.992 3.10937 118.496 3.10937 117.707C 3.10937 116.934 3.4375 116.516 4.0664 116.492L 4.0625 115.469z"/>
<path style="stroke:none; fill-rule:evenodd; fill:#000000" d="M 10.9023 114.195L 10.9023 113.195L 7.80074 113.195C 8.42184 112.695 8.69924 112.133 8.69924 111.359C 8.69924 109.816 7.44144 108.801 5.50784 108.801C 3.47656 108.801 2.20312 109.785 2.20312 111.383C 2.20312 112.195 2.57031 112.852 3.28125 113.297L 2.375 113.297L 2.375 114.195L 10.9023 114.195zM 3.10156 111.531C 3.10156 110.484 4.03906 109.801 5.48434 109.801C 6.85934 109.801 7.79684 110.496 7.79684 111.531C 7.79684 112.535 6.87114 113.195 5.44924 113.195C 4.02734 113.195 3.10156 112.535 3.10156 111.531z"/>
<path style="stroke:none; fill-rule:evenodd; fill:#000000" d="M 2.40234 106.695L 2.40234 107.695L 8.40234 107.695L 8.40234 106.695L 2.40234 106.695zM 0 106.695L 0 107.695L 1.23437 107.695L 1.23437 106.695L 0 106.695z"/>
<path style="stroke:none; fill-rule:evenodd; fill:#000000" d="M 0 104.297L 0 105.297L 8.39844 105.297L 8.39844 104.297L 6.05854 104.297L 5.14064 103.363L 8.39844 101.324L 8.39844 100.137L 4.47265 102.602L 2.40234 100.504L 2.40234 101.734L 4.93354 104.293L 0 104.297z"/>
<path style="stroke:none; fill-rule:evenodd; fill:#000000" d="M 5.69924 94.1953C 4.78125 94.1953 4.23046 94.2617 3.78515 94.4336C 2.80078 94.8203 2.20312 95.7344 2.20312 96.8515C 2.20312 98.5156 3.49609 99.5898 5.48434 99.5898C 7.47264 99.5898 8.69924 98.5547 8.69924 96.8789C 8.69924 95.5156 7.90624 94.5703 6.57424 94.3281L 6.57424 95.2812C 7.37894 95.543 7.79684 96.0742 7.79684 96.8359C 7.79684 97.4375 7.51954 97.9492 7.00394 98.2656C 6.65624 98.4922 6.30464 98.5703 5.69924 98.582L 5.69924 94.1953zM 4.93354 98.6172C 3.82031 98.5391 3.09765 97.8594 3.09765 96.8984C 3.09765 95.9609 3.875 95.2344 4.86328 95.2344C 4.88281 95.2344 4.90624 95.2344 4.92964 95.2461L 4.93354 98.6172z"/>
<path style="stroke:none; fill-rule:evenodd; fill:#000000" d="M 4.0625 88.668C 2.875 88.6797 2.20312 89.4648 2.20312 90.8672C 2.20312 92.2773 2.92968 93.1914 4.05078 93.1914C 4.99614 93.1914 5.44534 92.7031 5.79294 91.2539L 6.01174 90.3437C 6.17184 89.668 6.41404 89.3984 6.85154 89.3984C 7.41404 89.3984 7.79684 89.9648 7.79684 90.8086C 7.79684 91.3281 7.64844 91.7656 7.39064 92.0078C 7.21874 92.1562 7.04294 92.2265 6.60934 92.2851L 6.60934 93.3008C 8.01954 93.2578 8.69924 92.4726 8.69924 90.8906C 8.69924 89.3672 7.94924 88.3984 6.78514 88.3984C 5.88674 88.3984 5.39064 88.9101 5.10154 90.125L 4.88281 91.0586C 4.69922 91.8515 4.44531 92.1914 4.01953 92.1914C 3.46875 92.1914 3.10937 91.6953 3.10937 90.9062C 3.10937 90.1328 3.4375 89.7148 4.0664 89.6914L 4.0625 88.668z"/>
<path style="stroke:none; fill-rule:evenodd; fill:#000000" d="M 10.9023 84.1953L 10.9023 83.1953L 7.80074 83.1953C 8.42184 82.6953 8.69924 82.1328 8.69924 81.3594C 8.69924 79.8164 7.44144 78.8008 5.50784 78.8008C 3.47656 78.8008 2.20312 79.7851 2.20312 81.3828C 2.20312 82.1953 2.57031 82.8515 3.28125 83.2969L 2.375 83.2969L 2.375 84.1953L 10.9023 84.1953zM 3.10156 81.5312C 3.10156 80.4844 4.03906 79.8008 5.48434 79.8008C 6.85934 79.8008 7.79684 80.4961 7.79684 81.5312C 7.79684 82.5351 6.87114 83.1953 5.44924 83.1953C 4.02734 83.1953 3.10156 82.5351 3.10156 81.5312z"/>
<path style="stroke:none; fill-rule:evenodd; fill:#000000" d="M 5.69924 72.4961C 4.78125 72.4961 4.23046 72.5625 3.78515 72.7344C 2.80078 73.1211 2.20312 74.0351 2.20312 75.1523C 2.20312 76.8164 3.49609 77.8906 5.48434 77.8906C 7.47264 77.8906 8.69924 76.8555 8.69924 75.1797C 8.69924 73.8164 7.90624 72.8711 6.57424 72.6289L 6.57424 73.582C 7.37894 73.8437 7.79684 74.375 7.79684 75.1367C 7.79684 75.7383 7.51954 76.25 7.00394 76.5664C 6.65624 76.793 6.30464 76.8711 5.69924 76.8828L 5.69924 72.4961zM 4.93354 76.918C 3.82031 76.8398 3.09765 76.1601 3.09765 75.1992C 3.09765 74.2617 3.875 73.5351 4.86328 73.5351C 4.88281 73.5351 4.90624 73.5351 4.92964 73.5469L 4.93354 76.918z"/>
<path style="stroke:none; fill-rule:evenodd; fill:#000000" d="M 2.375 71.1953L 8.39844 71.1953L 8.39844 70.1953L 5.26564 70.1953C 4.40234 70.1953 3.83984 69.9844 3.5039 69.5351C 3.28515 69.2461 3.21875 68.9648 3.20703 68.3125L 2.24218 68.3125C 2.22265 68.4687 2.21093 68.5469 2.21093 68.6719C 2.21093 69.2812 2.57812 69.7461 3.47265 70.293L 2.38281 70.293L 2.375 71.1953z"/>
<path style="stroke:none; fill-rule:evenodd; fill:#000000" d="M 4.0625 59.9687C 2.875 59.9805 2.20312 60.7656 2.20312 62.168C 2.20312 63.5781 2.92968 64.4922 4.05078 64.4922C 4.99614 64.4922 5.44534 64.0039 5.79294 62.5547L 6.01174 61.6445C 6.17184 60.9687 6.41404 60.6992 6.85154 60.6992C 7.41404 60.6992 7.79684 61.2656 7.79684 62.1094C 7.79684 62.6289 7.64844 63.0664 7.39064 63.3086C 7.21874 63.457 7.04294 63.5273 6.60934 63.5859L 6.60934 64.6015C 8.01954 64.5586 8.69924 63.7734 8.69924 62.1914C 8.69924 60.668 7.94924 59.6992 6.78514 59.6992C 5.88674 59.6992 5.39064 60.2109 5.10154 61.4258L 4.88281 62.3594C 4.69922 63.1523 4.44531 63.4922 4.01953 63.4922C 3.46875 63.4922 3.10937 62.9961 3.10937 62.207C 3.10937 61.4336 3.4375 61.0156 4.0664 60.9922L 4.0625 59.9687z"/>
<path style="stroke:none; fill-rule:evenodd; fill:#000000" d="M 5.69924 53.3984C 4.78125 53.3984 4.23046 53.4648 3.78515 53.6367C 2.80078 54.0234 2.20312 54.9375 2.20312 56.0547C 2.20312 57.7187 3.49609 58.793 5.48434 58.793C 7.47264 58.793 8.69924 57.7578 8.69924 56.082C 8.69924 54.7187 7.90624 53.7734 6.57424 53.5312L 6.57424 54.4844C 7.37894 54.7461 7.79684 55.2773 7.79684 56.0391C 7.79684 56.6406 7.51954 57.1523 7.00394 57.4687C 6.65624 57.6953 6.30464 57.7734 5.69924 57.7851L 5.69924 53.3984zM 4.93354 57.8164C 3.82031 57.7383 3.09765 57.0586 3.09765 56.0976C 3.09765 55.1601 3.875 54.4336 4.86328 54.4336C 4.88281 54.4336 4.90624 54.4336 4.92964 54.4453L 4.93354 57.8164z"/>
<path style="stroke:none; fill-rule:evenodd; fill:#000000" d="M 4.40625 47.4923C 3.82031 47.5353 3.4375 47.6603 3.10156 47.8903C 2.53906 48.2973 2.20312 49.0153 2.20312 49.8437C 2.20312 51.4453 3.49609 52.4922 5.50784 52.4922C 7.46094 52.4922 8.69924 51.4687 8.69924 49.8555C 8.69924 48.4333 7.82814 47.5353 6.33594 47.4223L 6.33594 48.3753C 7.31254 48.5313 7.80074 49.0193 7.80074 49.8242C 7.80074 50.8672 6.93754 51.4922 5.51174 51.4922C 4.0039 51.4922 3.10546 50.8828 3.10546 49.8476C 3.10546 49.0543 3.57422 48.5543 4.41015 48.4413L 4.40625 47.4923z"/>
<path style="stroke:none; fill-rule:evenodd; fill:#000000" d="M 2.19922 44.0583C 2.19922 45.7613 3.41406 46.7933 5.44924 46.7933C 7.48434 46.7933 8.69924 45.7733 8.69924 44.0433C 8.69924 42.3403 7.48824 41.2933 5.50004 41.2933C 3.41015 41.2933 2.20703 42.3003 2.20703 44.0503L 2.19922 44.0583zM 3.10156 44.0473C 3.10156 42.9533 3.98828 42.2973 5.48434 42.2973C 6.89844 42.2973 7.79684 42.9723 7.79684 44.0473C 7.79684 45.1293 6.91014 45.7973 5.44924 45.7973C 4 45.7973 3.10156 45.1333 3.10156 44.0473z"/>
<path style="stroke:none; fill-rule:evenodd; fill:#000000" d="M 2.375 39.9963L 8.39844 39.9963L 8.39844 38.9963L 5.05074 38.9963C 3.8125 38.9963 3 38.3713 3 37.4063C 3 36.6683 3.46093 36.1993 4.1914 36.1993L 8.39454 36.1993L 8.39454 35.1993L 3.83984 35.1993C 2.83984 35.1993 2.19531 35.9413 2.19531 37.1013C 2.19531 37.9923 2.53906 38.5663 3.3789 39.0933L 2.36718 39.0933L 2.375 39.9963z"/>
<path style="stroke:none; fill-rule:evenodd; fill:#000000" d="M 0 28.6953L 0 29.6953L 3.14062 29.6953C 2.52734 30.0933 2.19922 30.7303 2.19922 31.5313C 2.19922 33.0783 3.45703 34.0933 5.39064 34.0933C 7.43754 34.0933 8.69534 33.0823 8.69534 31.4413C 8.69534 30.6053 8.37504 30.0233 7.60544 29.5003L 8.39454 29.5003L 8.39454 28.7033L 0 28.6953zM 3.10156 31.3713C 3.10156 30.3513 4.02734 29.7033 5.47264 29.7033C 6.87114 29.7033 7.79684 30.3593 7.79684 31.3593C 7.79684 32.4023 6.86324 33.0973 5.44924 33.0973C 4.03906 33.0973 3.10156 32.4063 3.10156 31.3713z"/>
<path style="stroke:none; fill-rule:evenodd; fill:#000000" d="M 32.3007 134.785C 32.2929 133.148 31.1718 132.199 29.2578 132.199C 27.4335 132.199 26.3046 133.148 26.3046 134.676C 26.3046 135.703 26.8359 136.355 27.9257 136.645L 29.9804 137.199C 31.0234 137.477 31.5 137.902 31.5 138.562C 31.5 139.012 31.2617 139.477 30.914 139.73C 30.5859 139.961 30.0664 140.086 29.3984 140.086C 28.5039 140.086 27.8945 139.859 27.5 139.359C 27.1953 138.98 27.0585 138.562 27.1093 138.023L 26.1093 138.023C 26.1171 138.801 26.2656 139.312 26.5937 139.777C 27.1601 140.566 28.1132 140.984 29.3711 140.984C 30.3554 140.984 31.1601 140.758 31.6953 140.34C 32.25 139.895 32.6015 139.145 32.6015 138.418C 32.6015 137.383 31.9687 136.625 30.8437 136.312L 28.7695 135.75C 27.7734 135.477 27.4101 135.152 27.4101 134.508C 27.4101 133.656 28.1445 133.09 29.25 133.09C 30.5585 133.09 31.2929 133.691 31.3046 134.777L 32.3007 134.785z"/>
<path style="stroke:none; fill-rule:evenodd; fill:#000000" d="M 75 132.297L 74 132.297L 74 139.168L 69.6523 132.297L 68.5039 132.297L 68.5039 140.695L 69.5039 140.695L 69.5039 133.914L 73.8046 140.695L 75 140.695L 75 132.297z"/>
<path style="stroke:none; fill-rule:evenodd; fill:#000000" d="M 120.902 132.297L 119.902 132.297L 119.902 139.168L 115.554 132.297L 114.406 132.297L 114.406 140.695L 115.406 140.695L 115.406 133.914L 119.707 140.695L 120.902 140.695L 120.902 132.297z"/>
<path style="stroke:none; fill-rule:evenodd; fill:#000000" d="M 170.57 140.695L 172.898 133.684L 172.898 140.695L 173.898 140.695L 173.898 132.297L 172.433 132.297L 170.023 139.617L 167.57 132.297L 166.105 132.297L 166.105 140.695L 167.105 140.695L 167.105 133.684L 169.457 140.695L 170.57 140.695z"/>
</g>
</svg>