<?xml version="1.0" encoding="ISO-8859-1" standalone="yes"?>
<svg width="315.226" height="171.004">
  <defs> 
    <marker id="ArrowEnd" viewBox="0 0 10 10" refX="0" refY="5" 
     markerUnits="strokeWidth" 
     markerWidth="4" 
     markerHeight="3" 
     orient="auto"> 
        <path d="M 0 0 L 10 5 L 0 10 z" /> 
    </marker>
    <marker id="ArrowStart" viewBox="0 0 10 10" refX="10" refY="5" 
     markerUnits="strokeWidth" 
     markerWidth="4" 
     markerHeight="3" 
     orient="auto"> 
        <path d="M 10 0 L 0 5 L 10 10 z" /> 
    </marker> </defs>
<g>
<path style="stroke:none; fill-rule:evenodd; fill:#ffffff" d="M 182.168 117.004C 182.168 108.555 175.316 101.699 166.863 101.699C 158.414 101.699 151.558 108.551 151.558 117.004C 151.558 125.453 158.41 132.309 166.863 132.309C 175.312 132.309 182.168 125.457 182.168 117.004"/>
<path style="stroke:#000000; stroke-width:1.9133; fill:none" d="M 182.168 117.004C 182.168 108.555 175.316 101.699 166.863 101.699C 158.414 101.699 151.558 108.551 151.558 117.004C 151.558 125.453 158.41 132.309 166.863 132.309C 175.312 132.309 182.168 125.457 182.168 117.004"/>
<path style="stroke:none; fill-rule:evenodd; fill:#000000" d="M 154.632 114.949L 154.632 120L 155.429 120L 155.429 116.824C 155.429 116.094 155.953 115.504 156.601 115.504C 157.191 115.504 157.527 115.871 157.527 116.516L 157.527 120L 158.324 120L 158.324 116.824C 158.324 116.094 158.847 115.504 159.496 115.504C 160.074 115.504 160.422 115.879 160.422 116.516L 160.422 120L 161.218 120L 161.218 116.211C 161.218 115.305 160.703 114.805 159.761 114.805C 159.093 114.805 158.687 115.016 158.218 115.613C 157.922 115.051 157.519 114.805 156.867 114.805C 156.199 114.805 155.757 115.055 155.324 115.66L 155.324 114.949L 154.632 114.949z"/>
<path style="stroke:none; fill-rule:evenodd; fill:#000000" d="M 167.05 119.531C 166.964 119.504 166.925 119.504 166.875 119.504C 166.593 119.504 166.437 119.363 166.437 119.113L 166.437 116.172C 166.437 115.285 165.793 114.809 164.562 114.809C 163.839 114.809 163.242 115.023 162.906 115.406C 162.679 115.668 162.586 115.965 162.566 116.473L 163.363 116.473C 163.429 115.809 163.789 115.504 164.531 115.504C 165.242 115.504 165.64 115.773 165.64 116.258L 165.64 116.469C 165.64 116.805 165.441 116.949 164.816 117.027C 163.695 117.172 163.523 117.211 163.218 117.336C 162.64 117.574 162.343 118.031 162.343 118.691C 162.343 119.609 162.972 120.191 163.988 120.191C 164.617 120.191 165.125 119.98 165.691 119.477C 165.746 119.969 165.996 120.191 166.511 120.191C 166.672 120.191 166.796 120.176 167.054 120.109L 167.05 119.531zM 165.632 118.414C 165.632 118.676 165.558 118.84 165.316 119.055C 164.992 119.348 164.597 119.496 164.125 119.496C 163.5 119.496 163.136 119.203 163.136 118.703C 163.136 118.184 163.492 117.918 164.347 117.797C 165.191 117.684 165.363 117.648 165.632 117.523L 165.632 118.414z"/>
<path style="stroke:none; fill-rule:evenodd; fill:#000000" d="M 169.632 115L 168.836 115L 168.836 113.609L 168.039 113.609L 168.039 115L 167.339 115L 167.339 115.699L 168.039 115.699L 168.039 119.418C 168.039 119.914 168.379 120.195 168.992 120.195C 169.179 120.195 169.371 120.18 169.632 120.133L 169.632 119.484C 169.531 119.496 169.41 119.5 169.261 119.5C 168.929 119.5 168.836 119.406 168.836 119.062L 168.836 115.703L 169.632 115.703L 169.632 115z"/>
<path style="stroke:none; fill-rule:evenodd; fill:#000000" d="M 174.437 116.672C 174.402 116.145 174.296 115.805 174.105 115.504C 173.761 115.066 173.16 114.805 172.464 114.805C 171.117 114.805 170.238 115.879 170.238 117.551C 170.238 119.172 171.097 120.199 172.453 120.199C 173.644 120.199 174.402 119.492 174.496 118.277L 173.687 118.277C 173.554 119.09 173.14 119.496 172.453 119.496C 171.566 119.496 171.035 118.762 171.035 117.547C 171.035 116.266 171.554 115.5 172.433 115.5C 173.105 115.5 173.531 115.918 173.629 116.668L 174.437 116.672z"/>
<path style="stroke:none; fill-rule:evenodd; fill:#000000" d="M 175.332 113L 175.332 120L 176.129 120L 176.129 117.211C 176.129 116.18 176.664 115.504 177.488 115.504C 177.746 115.504 178.004 115.59 178.195 115.734C 178.422 115.895 178.519 116.137 178.519 116.496L 178.519 120L 179.316 120L 179.316 116.184C 179.316 115.336 178.714 114.805 177.73 114.805C 177.019 114.805 176.589 115.035 176.117 115.68L 176.117 113.008L 175.332 113z"/>
<path style="stroke:none; fill-rule:evenodd; fill:#000000" d="M 275.132 148.102L 276.23 148.102L 276.23 139.703L 275.132 139.703L 275.132 148.102z"/>
<path style="stroke:none; fill-rule:evenodd; fill:#000000" d="M 278.031 142.074L 278.031 148.098L 279.031 148.098L 279.031 144.75C 279.031 143.512 279.656 142.699 280.621 142.699C 281.359 142.699 281.828 143.16 281.828 143.891L 281.828 148.094L 282.828 148.094L 282.828 143.539C 282.828 142.539 282.086 141.895 280.925 141.895C 280.035 141.895 279.461 142.238 278.933 143.078L 278.933 142.066L 278.031 142.074z"/>
<path style="stroke:none; fill-rule:evenodd; fill:#000000" d="M 284.234 150.605L 285.234 150.605L 285.234 147.504C 285.734 148.125 286.296 148.402 287.07 148.402C 288.613 148.402 289.629 147.145 289.629 145.211C 289.629 143.18 288.644 141.906 287.046 141.906C 286.234 141.906 285.578 142.273 285.132 142.984L 285.132 142.078L 284.234 142.078L 284.234 150.605zM 286.898 142.801C 287.945 142.801 288.629 143.734 288.629 145.184C 288.629 146.559 287.933 147.496 286.898 147.496C 285.894 147.496 285.234 146.57 285.234 145.148C 285.234 143.727 285.894 142.801 286.898 142.801z"/>
<path style="stroke:none; fill-rule:evenodd; fill:#000000" d="M 295.531 148.137L 295.531 142.105L 294.531 142.105L 294.531 145.551C 294.531 146.789 293.886 147.602 292.879 147.602C 292.117 147.602 291.632 147.141 291.632 146.41L 291.632 142.105L 290.632 142.105L 290.632 146.758C 290.632 147.758 291.39 148.402 292.582 148.402C 293.48 148.402 294.054 148.094 294.629 147.301L 294.629 148.141L 295.531 148.137z"/>
<path style="stroke:none; fill-rule:evenodd; fill:#000000" d="M 299.234 142.102L 298.336 142.102L 298.336 140.434L 297.336 140.434L 297.336 142.102L 296.437 142.102L 296.437 142.898L 297.336 142.898L 297.336 147.445C 297.336 148.051 297.738 148.395 298.468 148.395C 298.691 148.395 298.918 148.371 299.23 148.312L 299.23 147.477C 299.117 147.566 298.98 147.594 298.812 147.594C 298.437 147.594 298.332 147.48 298.332 147.051L 298.332 142.898L 299.23 142.898L 299.234 142.102z"/>
<path style="stroke:none; fill-rule:evenodd; fill:#000000" d="M 194.265 84.902L 192.89 84.902C 190.832 84.902 189.632 87.922 189.632 93.145L 189.632 103.648C 189.632 109.496 189.066 111.574 187.308 112.328L 187.308 116.668C 189.066 117.422 189.632 119.559 189.632 125.348L 189.632 135.852C 189.632 141.07 190.828 144.09 192.89 144.09L 194.265 144.09L 194.265 139.992L 193.82 139.992C 192.355 139.992 191.937 139.051 191.937 135.781L 191.937 124.402C 191.937 119.184 191.164 116.105 189.5 114.469C 191.312 112.961 191.937 110.383 191.937 104.598L 191.937 93.219C 191.937 89.949 192.355 89.004 193.82 89.004L 194.265 89.004L 194.265 84.902z"/>
<path style="stroke:none; fill-rule:evenodd; fill:#000000" d="M 279.472 84.402L 280.332 86.902L 281.523 86.902L 278.586 78.504L 277.211 78.504L 274.226 86.902L 275.359 86.902L 276.242 84.402L 279.472 84.402zM 279.175 83.5L 276.515 83.5L 277.89 79.68L 279.175 83.5z"/>
<path style="stroke:none; fill-rule:evenodd; fill:#000000" d="M 287.039 82.906C 286.996 82.32 286.871 81.938 286.64 81.602C 286.234 81.039 285.515 80.703 284.687 80.703C 283.086 80.703 282.039 81.996 282.039 84.008C 282.039 85.961 283.062 87.199 284.675 87.199C 286.097 87.199 286.996 86.328 287.109 84.836L 286.156 84.836C 286 85.812 285.511 86.301 284.707 86.301C 283.664 86.301 283.039 85.438 283.039 84.012C 283.039 82.504 283.648 81.605 284.683 81.605C 285.476 81.605 285.976 82.074 286.089 82.91L 287.039 82.906z"/>
<path style="stroke:none; fill-rule:evenodd; fill:#000000" d="M 290.332 80.902L 289.433 80.902L 289.433 79.234L 288.433 79.234L 288.433 80.902L 287.535 80.902L 287.535 81.699L 288.433 81.699L 288.433 86.246C 288.433 86.852 288.836 87.195 289.566 87.195C 289.789 87.195 290.015 87.172 290.328 87.113L 290.328 86.277C 290.214 86.367 290.078 86.395 289.91 86.395C 289.535 86.395 289.429 86.281 289.429 85.852L 289.429 81.699L 290.328 81.699L 290.332 80.902z"/>
<path style="stroke:none; fill-rule:evenodd; fill:#000000" d="M 292.332 80.902L 291.332 80.902L 291.332 86.902L 292.332 86.902L 292.332 80.902zM 292.332 78.5L 291.332 78.5L 291.332 79.734L 292.332 79.734L 292.332 78.5z"/>
<path style="stroke:none; fill-rule:evenodd; fill:#000000" d="M 296.406 86.902L 298.711 80.902L 297.632 80.902L 295.937 85.762L 294.332 80.902L 293.254 80.902L 295.363 86.902L 296.406 86.902z"/>
<path style="stroke:none; fill-rule:evenodd; fill:#000000" d="M 304.832 84.203C 304.832 83.285 304.765 82.734 304.593 82.289C 304.207 81.305 303.293 80.707 302.175 80.707C 300.511 80.707 299.437 82 299.437 83.988C 299.437 85.977 300.472 87.203 302.148 87.203C 303.511 87.203 304.457 86.41 304.699 85.078L 303.746 85.078C 303.484 85.883 302.953 86.301 302.191 86.301C 301.589 86.301 301.078 86.023 300.761 85.508C 300.535 85.16 300.457 84.809 300.445 84.203L 304.832 84.203zM 300.414 83.434C 300.492 82.32 301.172 81.598 302.132 81.598C 303.07 81.598 303.796 82.375 303.796 83.363C 303.796 83.383 303.796 83.406 303.785 83.43L 300.414 83.434z"/>
<path style="stroke:none; fill-rule:evenodd; fill:#000000" d="M 274.832 92.375L 274.832 98.3984L 275.832 98.3984L 275.832 94.5898C 275.832 93.7109 276.457 93.004 277.226 93.004C 277.929 93.004 278.328 93.441 278.328 94.2188L 278.328 98.3984L 279.328 98.3984L 279.328 94.5898C 279.328 93.7109 279.953 93.004 280.722 93.004C 281.414 93.004 281.824 93.453 281.824 94.2188L 281.824 98.3984L 282.824 98.3984L 282.824 93.8789C 282.824 92.801 282.203 92.203 281.07 92.203C 280.265 92.203 279.777 92.445 279.214 93.133C 278.859 92.484 278.375 92.203 277.589 92.203C 276.785 92.203 276.254 92.5 275.734 93.223L 275.734 92.375L 274.832 92.375z"/>
<path style="stroke:none; fill-rule:evenodd; fill:#000000" d="M 289.531 95.7031C 289.531 94.7852 289.464 94.2344 289.293 93.7891C 288.906 92.805 287.992 92.207 286.875 92.207C 285.211 92.207 284.136 93.5 284.136 95.4883C 284.136 97.4766 285.172 98.7031 286.847 98.7031C 288.211 98.7031 289.156 97.9102 289.398 96.5781L 288.445 96.5781C 288.183 97.3828 287.652 97.8008 286.89 97.8008C 286.289 97.8008 285.777 97.5234 285.461 97.0078C 285.234 96.6602 285.156 96.3086 285.144 95.7031L 289.531 95.7031zM 285.113 94.9336C 285.191 93.8203 285.871 93.098 286.832 93.098C 287.769 93.098 288.496 93.875 288.496 94.8633C 288.496 94.8828 288.496 94.9062 288.484 94.9297L 285.113 94.9336z"/>
<path style="stroke:none; fill-rule:evenodd; fill:#000000" d="M 290.734 92.375L 290.734 98.3984L 291.734 98.3984L 291.734 94.5898C 291.734 93.7109 292.359 93.004 293.129 93.004C 293.832 93.004 294.23 93.441 294.23 94.2188L 294.23 98.3984L 295.23 98.3984L 295.23 94.5898C 295.23 93.7109 295.855 93.004 296.625 93.004C 297.316 93.004 297.726 93.453 297.726 94.2188L 297.726 98.3984L 298.726 98.3984L 298.726 93.8789C 298.726 92.801 298.105 92.203 296.972 92.203C 296.168 92.203 295.679 92.445 295.117 93.133C 294.761 92.484 294.277 92.203 293.492 92.203C 292.687 92.203 292.156 92.5 291.636 93.223L 291.636 92.375L 290.734 92.375z"/>
<path style="stroke:none; fill-rule:evenodd; fill:#000000" d="M 302.672 92.203C 300.968 92.203 299.937 93.418 299.937 95.4531C 299.937 97.4883 300.957 98.7031 302.687 98.7031C 304.39 98.7031 305.437 97.4922 305.437 95.5039C 305.437 93.414 304.429 92.211 302.679 92.211L 302.672 92.203zM 302.683 93.102C 303.777 93.102 304.433 93.9883 304.433 95.4844C 304.433 96.8984 303.757 97.7969 302.683 97.7969C 301.601 97.7969 300.933 96.9102 300.933 95.4492C 300.933 94 301.597 93.102 302.683 93.102z"/>
<path style="stroke:none; fill-rule:evenodd; fill:#000000" d="M 306.734 92.375L 306.734 98.3984L 307.734 98.3984L 307.734 95.2656C 307.734 94.4023 307.945 93.8398 308.394 93.5039C 308.683 93.285 308.964 93.219 309.617 93.207L 309.617 92.242C 309.461 92.223 309.382 92.211 309.257 92.211C 308.648 92.211 308.183 92.578 307.636 93.473L 307.636 92.383L 306.734 92.375z"/>
<path style="stroke:none; fill-rule:evenodd; fill:#000000" d="M 314.187 92.402L 312.523 97.0703L 310.988 92.402L 309.968 92.402L 312 98.457L 311.636 99.4102C 311.488 99.8359 311.273 99.9961 310.871 99.9961C 310.734 99.9961 310.574 99.9609 310.367 99.8906L 310.367 100.746C 310.558 100.848 310.754 100.895 311.007 100.895C 311.316 100.895 311.648 100.793 311.902 100.609C 312.199 100.395 312.371 100.141 312.554 99.6602L 315.226 92.398L 314.187 92.402z"/>
<path style="stroke:#000000; stroke-width:1.9133; fill:none" d="M 166.984 101.633L 166.984 63.355"/>
<path style="stroke:#000000; stroke-width:1.9133; fill:none" d="M 165.07 71.008L 166.98 63.355L 168.89 71.008"/>
<path style="stroke:none; fill-rule:evenodd; fill:#000000" d="M 16.1991 9.145C 16.0781 9.19901 16.0234 9.19901 15.9531 9.19901C 15.5585 9.19901 15.3359 9 15.3359 8.65199L 15.3359 4.52299C 15.3359 3.27699 14.4296 2.605 12.707 2.605C 11.6952 2.605 10.8554 2.895 10.3866 3.414C 10.0702 3.77 9.93351 4.168 9.91011 4.85899L 11.0312 4.85899C 11.121 3.996 11.6288 3.605 12.6718 3.605C 13.6718 3.605 14.2343 3.98 14.2343 4.64799L 14.2343 4.94099C 14.2343 5.41 13.957 5.60899 13.082 5.715C 11.5195 5.914 11.2812 5.96899 10.8554 6.14101C 10.0468 6.47301 9.63661 7.105 9.63661 8.01601C 9.63661 9.285 10.5155 10.09 11.9257 10.09C 12.8046 10.09 13.5077 9.785 14.2929 9.07001C 14.371 9.77299 14.7187 10.09 15.4374 10.09C 15.664 10.09 15.8359 10.066 16.1952 9.97301L 16.1991 9.145zM 14.2343 7.578C 14.2343 7.94501 14.1288 8.172 13.7929 8.47701C 13.3398 8.88699 12.7851 9.09801 12.1249 9.09801C 11.2499 9.09801 10.7421 8.688 10.7421 7.98801C 10.7421 7.26199 11.2382 6.89101 12.4374 6.71899C 13.621 6.562 13.8632 6.508 14.2382 6.336L 14.2343 7.578z"/>
<path style="stroke:none; fill-rule:evenodd; fill:#000000" d="M 17.7695 12.641C 19.0937 10.883 19.9296 8.438 19.9296 6.332C 19.9296 4.211 19.0937 1.77 17.7695 0.00799561L 17.0429 0.00799561C 18.1913 1.92999 18.832 4.18401 18.832 6.332C 18.832 8.465 18.1913 10.734 17.0429 12.641L 17.7695 12.641z"/>
<path style="stroke:none; fill-rule:evenodd; fill:#000000" d="M 34.6952 9.80099L 37.1718 0.0039978L 35.7812 0.0039978L 33.9882 7.96899L 31.7655 0.0039978L 30.4296 0.0039978L 28.2616 7.96899L 26.4296 0.0039978L 25.039 0.0039978L 27.5429 9.80099L 28.9062 9.80099L 31.0859 1.78101L 33.3359 9.80099L 34.6952 9.80099z"/>
<path style="stroke:none; fill-rule:evenodd; fill:#000000" d="M 44.2343 6.703C 44.2343 5.629 44.1562 4.98399 43.957 4.461C 43.5077 3.30901 42.4413 2.60899 41.1366 2.60899C 39.1952 2.60899 37.9413 4.10201 37.9413 6.39799C 37.9413 8.69099 39.1445 10.105 41.0937 10.105C 42.6835 10.105 43.7812 9.19901 44.0624 7.67999L 42.9374 7.67999C 42.6327 8.617 41.9999 9.105 41.1054 9.105C 40.3984 9.105 39.7968 8.789 39.4218 8.203C 39.1562 7.80499 39.0624 7.40601 39.0468 6.711L 44.2343 6.703zM 39.0585 5.758C 39.1523 4.461 39.9413 3.617 41.0663 3.617C 42.164 3.617 43.0077 4.52699 43.0077 5.67599C 43.0077 5.69901 43.0077 5.72701 42.996 5.754L 39.0585 5.758z"/>
<path style="stroke:none; fill-rule:evenodd; fill:#000000" d="M 46.7343 2.80099L 45.6366 2.80099L 45.6366 9.80099L 46.7343 9.80099L 46.7343 2.80099zM 46.7343 0L 45.6366 0L 45.6366 1.44099L 46.7343 1.44099L 46.7343 0z"/>
<path style="stroke:none; fill-rule:evenodd; fill:#000000" d="M 53.2343 2.80099L 53.2343 3.80099C 52.6757 2.98399 51.996 2.60201 51.1054 2.60201C 49.3359 2.60201 48.1366 4.14799 48.1366 6.418C 48.1366 7.562 48.4413 8.496 49.0155 9.164C 49.5351 9.75 50.2812 10.098 51.0155 10.098C 51.8945 10.098 52.5077 9.72701 53.1327 8.84801L 53.1327 9.211C 53.1327 10.164 53.0155 10.746 52.7343 11.137C 52.4413 11.555 51.8671 11.793 51.1874 11.793C 50.6796 11.793 50.2265 11.66 49.9218 11.414C 49.6679 11.211 49.5624 11.023 49.496 10.602L 48.3632 10.602C 48.4804 11.914 49.5038 12.695 51.1366 12.695C 52.1718 12.695 53.0624 12.363 53.5116 11.805C 54.039 11.168 54.2421 10.285 54.2421 8.645L 54.2421 2.80099L 53.2343 2.80099zM 51.1952 3.60201C 52.414 3.60201 53.1288 4.625 53.1288 6.39101C 53.1288 8.07401 52.3984 9.09801 51.207 9.09801C 49.9765 9.09801 49.2304 8.062 49.2304 6.34801C 49.2304 4.65199 49.9882 3.59801 51.1913 3.59801L 51.1952 3.60201z"/>
<path style="stroke:none; fill-rule:evenodd; fill:#000000" d="M 56.1327 0L 56.1327 9.797L 57.2304 9.797L 57.2304 5.953C 57.2304 4.53101 57.9882 3.60201 59.1601 3.60201C 59.5234 3.60201 59.8905 3.71899 60.164 3.918C 60.4882 4.14101 60.6249 4.47701 60.6249 4.96899L 60.6249 9.797L 61.7226 9.797L 61.7226 4.51199C 61.7226 3.34 60.871 2.605 59.496 2.605C 58.496 2.605 57.8905 2.90601 57.2265 3.75L 57.2265 0.0039978L 56.1327 0z"/>
<path style="stroke:none; fill-rule:evenodd; fill:#000000" d="M 66.0312 2.80099L 64.832 2.80099L 64.832 0.854996L 63.7343 0.854996L 63.7343 2.80099L 62.8359 2.80099L 62.8359 3.69901L 63.7343 3.69901L 63.7343 8.98801C 63.7343 9.69501 64.2226 10.094 65.1054 10.094C 65.3749 10.094 65.6484 10.07 66.0312 10.004L 66.0312 9.07401C 65.8788 9.09 65.6991 9.09399 65.4765 9.09399C 64.9765 9.09399 64.8359 8.961 64.8359 8.46899L 64.8359 3.69501L 66.0351 3.69501L 66.0312 2.80099z"/>
<path style="stroke:none; fill-rule:evenodd; fill:#000000" d="M 66.832 7.203L 73.6288 7.203L 73.6288 6.30499L 66.832 6.30499L 66.832 7.203z"/>
<path style="stroke:none; fill-rule:evenodd; fill:#000000" d="M 74.9335 0L 74.9335 9.797L 75.9335 9.797L 75.9335 8.90199C 76.4687 9.711 77.1835 10.098 78.164 10.098C 80.0195 10.098 81.2304 8.59399 81.2304 6.27C 81.2304 4.004 80.0741 2.60201 78.2148 2.60201C 77.246 2.60201 76.5585 2.957 76.0351 3.73L 76.0351 0L 74.9335 0zM 78.0234 3.629C 79.2655 3.629 80.0702 4.711 80.0702 6.38699C 80.0702 7.98 79.2421 9.062 78.0234 9.062C 76.8476 9.062 76.0702 7.992 76.0702 6.34399C 76.0702 4.69901 76.8437 3.625 78.0234 3.625L 78.0234 3.629z"/>
<path style="stroke:none; fill-rule:evenodd; fill:#000000" d="M 88.7963 9.145C 88.6753 9.19901 88.6213 9.19901 88.5503 9.19901C 88.1563 9.19901 87.9333 9 87.9333 8.65199L 87.9333 4.52299C 87.9333 3.27699 87.0273 2.605 85.3043 2.605C 84.2933 2.605 83.4533 2.895 82.9843 3.414C 82.6679 3.77 82.5312 4.168 82.5077 4.85899L 83.6293 4.85899C 83.7183 3.996 84.2263 3.605 85.2693 3.605C 86.2693 3.605 86.8323 3.98 86.8323 4.64799L 86.8323 4.94099C 86.8323 5.41 86.5543 5.60899 85.6793 5.715C 84.1173 5.914 83.8793 5.96899 83.4533 6.14101C 82.6445 6.47301 82.2343 7.105 82.2343 8.01601C 82.2343 9.285 83.1132 10.09 84.5233 10.09C 85.4023 10.09 86.1053 9.785 86.8903 9.07001C 86.9683 9.77299 87.3163 10.09 88.0353 10.09C 88.2613 10.09 88.4333 10.066 88.7933 9.97301L 88.7963 9.145zM 86.8323 7.578C 86.8323 7.94501 86.7263 8.172 86.3903 8.47701C 85.9373 8.88699 85.3823 9.09801 84.7223 9.09801C 83.8473 9.09801 83.3393 8.688 83.3393 7.98801C 83.3393 7.26199 83.8363 6.89101 85.0353 6.71899C 86.2183 6.562 86.4613 6.508 86.8363 6.336L 86.8323 7.578z"/>
<path style="stroke:none; fill-rule:evenodd; fill:#000000" d="M 95.0003 4.73801C 94.9883 3.375 94.0893 2.60201 92.4923 2.60201C 90.8823 2.60201 89.8393 3.44501 89.8393 4.746C 89.8393 5.84399 90.3943 6.36301 92.0353 6.76601L 93.0663 7.02C 93.8323 7.207 94.1363 7.48801 94.1363 7.996C 94.1363 8.65199 93.4803 9.09399 92.4963 9.09399C 91.8943 9.09399 91.3823 8.918 91.1013 8.617C 90.9293 8.414 90.8473 8.211 90.7813 7.707L 89.6013 7.707C 89.6523 9.32001 90.5543 10.094 92.3753 10.094C 94.1253 10.094 95.2423 9.22701 95.2423 7.871C 95.2423 6.828 94.6603 6.254 93.2853 5.918L 92.2263 5.664C 91.3283 5.453 90.9453 5.15601 90.9453 4.66C 90.9453 4.02 91.5193 3.60201 92.4253 3.60201C 93.3203 3.60201 93.8003 3.992 93.8283 4.73801L 95.0003 4.73801z"/>
<path style="stroke:none; fill-rule:evenodd; fill:#000000" d="M 102.632 6.703C 102.632 5.629 102.554 4.98399 102.355 4.461C 101.906 3.30901 100.839 2.60899 99.5353 2.60899C 97.5933 2.60899 96.3393 4.10201 96.3393 6.39799C 96.3393 8.69099 97.5433 10.105 99.4923 10.105C 101.082 10.105 102.179 9.19901 102.461 7.67999L 101.336 7.67999C 101.031 8.617 100.398 9.105 99.5043 9.105C 98.7963 9.105 98.1953 8.789 97.8203 8.203C 97.5543 7.80499 97.4613 7.40601 97.4453 6.711L 102.632 6.703zM 97.4613 5.758C 97.5543 4.461 98.3433 3.617 99.4683 3.617C 100.566 3.617 101.41 4.52699 101.41 5.67599C 101.41 5.69901 101.41 5.72701 101.398 5.754L 97.4613 5.758z"/>
<path style="stroke:none; fill-rule:evenodd; fill:#000000" d="M 109.832 0L 108.734 0L 108.734 3.664C 108.273 2.96899 107.535 2.60201 106.609 2.60201C 104.812 2.60201 103.636 4.05499 103.636 6.285C 103.636 8.645 104.781 10.098 106.636 10.098C 107.582 10.098 108.242 9.742 108.832 8.875L 108.832 9.797L 109.832 9.797L 109.832 0zM 106.765 3.60201C 107.968 3.60201 108.73 4.68401 108.73 6.375C 108.73 8.01199 107.957 9.09399 106.777 9.09399C 105.55 9.09399 104.734 8 104.734 6.34801C 104.734 4.69901 105.546 3.59801 106.765 3.59801L 106.765 3.60201z"/>
<path style="stroke:none; fill-rule:evenodd; fill:#000000" d="M 151.332 0L 151.332 9.797L 152.332 9.797L 152.332 8.90199C 152.867 9.711 153.582 10.098 154.562 10.098C 156.418 10.098 157.629 8.59399 157.629 6.27C 157.629 4.004 156.472 2.60201 154.613 2.60201C 153.644 2.60201 152.957 2.957 152.433 3.73L 152.433 0L 151.332 0zM 154.422 3.629C 155.664 3.629 156.468 4.711 156.468 6.38699C 156.468 7.98 155.64 9.062 154.422 9.062C 153.246 9.062 152.468 7.992 152.468 6.34399C 152.468 4.69901 153.242 3.625 154.422 3.625L 154.422 3.629z"/>
<path style="stroke:none; fill-rule:evenodd; fill:#000000" d="M 159.269 12.641C 160.593 10.883 161.429 8.438 161.429 6.332C 161.429 4.211 160.593 1.77 159.269 0.00799561L 158.543 0.00799561C 159.691 1.92999 160.332 4.18401 160.332 6.332C 160.332 8.465 159.691 10.734 158.543 12.641L 159.269 12.641z"/>
<path style="stroke:none; fill-rule:evenodd; fill:#000000" d="M 172.582 6.80099L 173.586 9.80099L 174.976 9.80099L 171.55 0.0039978L 169.945 0.0039978L 166.464 9.80099L 167.789 9.80099L 168.816 6.80099L 172.582 6.80099zM 172.234 5.80099L 169.129 5.80099L 170.734 1.379L 172.234 5.80099z"/>
<path style="stroke:none; fill-rule:evenodd; fill:#000000" d="M 181.539 5.14101C 181.488 4.44901 181.339 4 181.07 3.605C 180.589 2.98 179.742 2.605 178.761 2.605C 176.871 2.605 175.636 4.09801 175.636 6.422C 175.636 8.67599 176.843 10.102 178.75 10.102C 180.425 10.102 181.488 9.10201 181.621 7.39101L 180.476 7.39101C 180.289 8.53101 179.703 9.10201 178.734 9.10201C 177.484 9.10201 176.734 8.09399 176.734 6.422C 176.734 4.65601 177.468 3.605 178.707 3.605C 179.656 3.605 180.257 4.15601 180.394 5.14101L 181.539 5.14101z"/>
<path style="stroke:none; fill-rule:evenodd; fill:#000000" d="M 185.332 2.80099L 184.132 2.80099L 184.132 0.854996L 183.035 0.854996L 183.035 2.80099L 182.136 2.80099L 182.136 3.69901L 183.035 3.69901L 183.035 8.98801C 183.035 9.69501 183.523 10.094 184.406 10.094C 184.675 10.094 184.949 10.07 185.332 10.004L 185.332 9.07401C 185.179 9.09 185 9.09399 184.777 9.09399C 184.277 9.09399 184.136 8.961 184.136 8.46899L 184.136 3.69501L 185.336 3.69501L 185.332 2.80099z"/>
<path style="stroke:none; fill-rule:evenodd; fill:#000000" d="M 187.632 2.80099L 186.535 2.80099L 186.535 9.80099L 187.632 9.80099L 187.632 2.80099zM 187.632 0L 186.535 0L 186.535 1.44099L 187.632 1.44099L 187.632 0z"/>
<path style="stroke:none; fill-rule:evenodd; fill:#000000" d="M 192.347 9.80099L 195.039 2.80099L 193.781 2.80099L 191.8 8.47301L 189.925 2.80099L 188.668 2.80099L 191.129 9.80099L 192.347 9.80099z"/>
<path style="stroke:none; fill-rule:evenodd; fill:#000000" d="M 202.398 9.145C 202.277 9.19901 202.222 9.19901 202.152 9.19901C 201.757 9.19901 201.535 9 201.535 8.65199L 201.535 4.52299C 201.535 3.27699 200.629 2.605 198.906 2.605C 197.894 2.605 197.054 2.895 196.586 3.414C 196.269 3.77 196.132 4.168 196.109 4.85899L 197.23 4.85899C 197.32 3.996 197.828 3.605 198.871 3.605C 199.871 3.605 200.433 3.98 200.433 4.64799L 200.433 4.94099C 200.433 5.41 200.156 5.60899 199.281 5.715C 197.718 5.914 197.48 5.96899 197.054 6.14101C 196.246 6.47301 195.836 7.105 195.836 8.01601C 195.836 9.285 196.714 10.09 198.125 10.09C 199.004 10.09 199.707 9.785 200.492 9.07001C 200.57 9.77299 200.918 10.09 201.636 10.09C 201.863 10.09 202.035 10.066 202.394 9.97301L 202.398 9.145zM 200.433 7.578C 200.433 7.94501 200.328 8.172 199.992 8.47701C 199.539 8.88699 198.984 9.09801 198.324 9.09801C 197.449 9.09801 196.941 8.688 196.941 7.98801C 196.941 7.26199 197.437 6.89101 198.636 6.71899C 199.82 6.562 200.062 6.508 200.437 6.336L 200.433 7.578z"/>
<path style="stroke:none; fill-rule:evenodd; fill:#000000" d="M 206.132 2.80099L 204.933 2.80099L 204.933 0.854996L 203.836 0.854996L 203.836 2.80099L 202.937 2.80099L 202.937 3.69901L 203.836 3.69901L 203.836 8.98801C 203.836 9.69501 204.324 10.094 205.207 10.094C 205.476 10.094 205.75 10.07 206.132 10.004L 206.132 9.07401C 205.98 9.09 205.8 9.09399 205.578 9.09399C 205.078 9.09399 204.937 8.961 204.937 8.46899L 204.937 3.69501L 206.136 3.69501L 206.132 2.80099z"/>
<path style="stroke:none; fill-rule:evenodd; fill:#000000" d="M 208.433 2.80099L 207.336 2.80099L 207.336 9.80099L 208.433 9.80099L 208.433 2.80099zM 208.433 0L 207.336 0L 207.336 1.44099L 208.433 1.44099L 208.433 0z"/>
<path style="stroke:none; fill-rule:evenodd; fill:#000000" d="M 213.07 2.60201C 211.117 2.60201 209.933 4.004 209.933 6.35201C 209.933 8.69901 211.101 10.098 213.082 10.098C 215.035 10.098 216.23 8.69901 216.23 6.40601C 216.23 3.992 215.074 2.605 213.07 2.605L 213.07 2.60201zM 213.082 3.60201C 214.363 3.60201 215.129 4.63699 215.129 6.39101C 215.129 8.047 214.336 9.09801 213.082 9.09801C 211.812 9.09801 211.035 8.062 211.035 6.34801C 211.035 4.65199 211.812 3.59801 213.082 3.59801L 213.082 3.60201z"/>
<path style="stroke:none; fill-rule:evenodd; fill:#000000" d="M 217.832 2.80499L 217.832 9.80099L 218.929 9.80099L 218.929 5.957C 218.929 4.535 219.668 3.605 220.8 3.605C 221.668 3.605 222.226 4.13699 222.226 4.97301L 222.226 9.80099L 223.324 9.80099L 223.324 4.51601C 223.324 3.355 222.464 2.60899 221.129 2.60899C 220.097 2.60899 219.437 3.008 218.828 3.98399L 218.828 2.812L 217.832 2.80499z"/>
<path style="stroke:none; fill-rule:evenodd; fill:#000000" d="M 224.832 7.203L 231.629 7.203L 231.629 6.30499L 224.832 6.30499L 224.832 7.203z"/>
<path style="stroke:none; fill-rule:evenodd; fill:#000000" d="M 232.832 0L 232.832 9.797L 233.832 9.797L 233.832 8.90199C 234.367 9.711 235.082 10.098 236.062 10.098C 237.918 10.098 239.129 8.59399 239.129 6.27C 239.129 4.004 237.972 2.60201 236.113 2.60201C 235.144 2.60201 234.457 2.957 233.933 3.73L 233.933 0L 232.832 0zM 235.922 3.629C 237.164 3.629 237.968 4.711 237.968 6.38699C 237.968 7.98 237.14 9.062 235.922 9.062C 234.746 9.062 233.968 7.992 233.968 6.34399C 233.968 4.69901 234.742 3.625 235.922 3.625L 235.922 3.629z"/>
<path style="stroke:none; fill-rule:evenodd; fill:#000000" d="M 246.699 9.145C 246.578 9.19901 246.523 9.19901 246.453 9.19901C 246.058 9.19901 245.836 9 245.836 8.65199L 245.836 4.52299C 245.836 3.27699 244.929 2.605 243.207 2.605C 242.195 2.605 241.355 2.895 240.886 3.414C 240.57 3.77 240.433 4.168 240.41 4.85899L 241.531 4.85899C 241.621 3.996 242.129 3.605 243.172 3.605C 244.172 3.605 244.734 3.98 244.734 4.64799L 244.734 4.94099C 244.734 5.41 244.457 5.60899 243.582 5.715C 242.019 5.914 241.781 5.96899 241.355 6.14101C 240.546 6.47301 240.136 7.105 240.136 8.01601C 240.136 9.285 241.015 10.09 242.425 10.09C 243.304 10.09 244.007 9.785 244.793 9.07001C 244.871 9.77299 245.218 10.09 245.937 10.09C 246.164 10.09 246.336 10.066 246.695 9.97301L 246.699 9.145zM 244.734 7.578C 244.734 7.94501 244.629 8.172 244.293 8.47701C 243.839 8.88699 243.285 9.09801 242.625 9.09801C 241.75 9.09801 241.242 8.688 241.242 7.98801C 241.242 7.26199 241.738 6.89101 242.937 6.71899C 244.121 6.562 244.363 6.508 244.738 6.336L 244.734 7.578z"/>
<path style="stroke:none; fill-rule:evenodd; fill:#000000" d="M 252.898 4.73801C 252.886 3.375 251.988 2.60201 250.39 2.60201C 248.781 2.60201 247.738 3.44501 247.738 4.746C 247.738 5.84399 248.293 6.36301 249.933 6.76601L 250.964 7.02C 251.73 7.207 252.035 7.48801 252.035 7.996C 252.035 8.65199 251.379 9.09399 250.394 9.09399C 249.793 9.09399 249.281 8.918 249 8.617C 248.828 8.414 248.746 8.211 248.679 7.707L 247.5 7.707C 247.55 9.32001 248.453 10.094 250.273 10.094C 252.023 10.094 253.14 9.22701 253.14 7.871C 253.14 6.828 252.558 6.254 251.183 5.918L 250.125 5.664C 249.226 5.453 248.843 5.15601 248.843 4.66C 248.843 4.02 249.418 3.60201 250.324 3.60201C 251.218 3.60201 251.699 3.992 251.726 4.73801L 252.898 4.73801z"/>
<path style="stroke:none; fill-rule:evenodd; fill:#000000" d="M 260.632 6.703C 260.632 5.629 260.554 4.98399 260.355 4.461C 259.906 3.30901 258.839 2.60899 257.535 2.60899C 255.593 2.60899 254.339 4.10201 254.339 6.39799C 254.339 8.69099 255.543 10.105 257.492 10.105C 259.082 10.105 260.179 9.19901 260.461 7.67999L 259.336 7.67999C 259.031 8.617 258.398 9.105 257.504 9.105C 256.796 9.105 256.195 8.789 255.82 8.203C 255.554 7.80499 255.461 7.40601 255.445 6.711L 260.632 6.703zM 255.461 5.758C 255.554 4.461 256.343 3.617 257.468 3.617C 258.566 3.617 259.41 4.52699 259.41 5.67599C 259.41 5.69901 259.41 5.72701 259.398 5.754L 255.461 5.758z"/>
<path style="stroke:none; fill-rule:evenodd; fill:#000000" d="M 267.734 0L 266.636 0L 266.636 3.664C 266.175 2.96899 265.437 2.60201 264.511 2.60201C 262.714 2.60201 261.539 4.05499 261.539 6.285C 261.539 8.645 262.683 10.098 264.539 10.098C 265.484 10.098 266.144 9.742 266.734 8.875L 266.734 9.797L 267.734 9.797L 267.734 0zM 264.664 3.60201C 265.867 3.60201 266.629 4.68401 266.629 6.375C 266.629 8.01199 265.855 9.09399 264.675 9.09399C 263.449 9.09399 262.632 8 262.632 6.34801C 262.632 4.69901 263.445 3.59801 264.664 3.59801L 264.664 3.60201z"/>
<path style="stroke:none; fill-rule:evenodd; fill:#ffffff" d="M 40.6366 143.758C 40.6366 135.309 33.7851 128.453 25.332 128.453C 16.8827 128.453 10.0273 135.305 10.0273 143.758C 10.0273 152.207 16.8788 159.062 25.332 159.062C 33.7812 159.062 40.6366 152.211 40.6366 143.758"/>
<path style="stroke:#000000; stroke-width:1.9133; fill:none" d="M 40.6366 143.758C 40.6366 135.309 33.7851 128.453 25.332 128.453C 16.8827 128.453 10.0273 135.305 10.0273 143.758C 10.0273 152.207 16.8788 159.062 25.332 159.062C 33.7812 159.062 40.6366 152.211 40.6366 143.758"/>
<path style="stroke:none; fill-rule:evenodd; fill:#000000" d="M 26.9726 144.703L 27.832 147.203L 29.0234 147.203L 26.0859 138.805L 24.7109 138.805L 21.7265 147.203L 22.8593 147.203L 23.7421 144.703L 26.9726 144.703zM 26.6757 143.801L 24.0155 143.801L 25.3905 139.98L 26.6757 143.801z"/>
<path style="stroke:none; fill-rule:evenodd; fill:#ffffff" d="M 76.9882 143.758C 76.9882 135.309 70.1366 128.453 61.6835 128.453C 53.2343 128.453 46.3788 135.305 46.3788 143.758C 46.3788 152.207 53.2304 159.062 61.6835 159.062C 70.1327 159.062 76.9882 152.211 76.9882 143.758"/>
<path style="stroke:#000000; stroke-width:1.9133; fill:none" d="M 76.9882 143.758C 76.9882 135.309 70.1366 128.453 61.6835 128.453C 53.2343 128.453 46.3788 135.305 46.3788 143.758C 46.3788 152.207 53.2304 159.062 61.6835 159.062C 70.1327 159.062 76.9882 152.211 76.9882 143.758"/>
<path style="stroke:none; fill-rule:evenodd; fill:#000000" d="M 59.2343 147.203L 63.0429 147.203C 63.8398 147.203 64.4296 146.984 64.8827 146.504C 65.2968 146.066 65.5312 145.469 65.5312 144.812C 65.5312 143.801 65.0585 143.188 63.957 142.777C 64.7226 142.422 65.1288 141.801 65.1288 140.949C 65.1288 140.34 64.9023 139.801 64.4609 139.406C 64.0234 139.004 63.4491 138.82 62.6405 138.82L 59.2304 138.82L 59.2343 147.203zM 60.332 142.5L 60.332 139.703L 62.3749 139.703C 62.9648 139.703 63.2929 139.785 63.5741 140.016C 63.8671 140.254 64.0273 140.617 64.0273 141.102C 64.0273 141.57 63.871 141.945 63.5741 142.188C 63.2929 142.414 62.9648 142.5 62.3749 142.5L 60.332 142.5zM 60.332 146.301L 60.332 143.402L 62.9296 143.402C 63.4413 143.402 63.7851 143.527 64.039 143.805C 64.289 144.07 64.4257 144.438 64.4257 144.855C 64.4257 145.258 64.289 145.629 64.039 145.895C 63.789 146.168 63.4452 146.297 62.9296 146.297L 60.332 146.301z"/>
<path style="stroke:none; fill-rule:evenodd; fill:#ffffff" d="M 58.8124 48.09C 58.8124 39.641 51.9609 32.785 43.5077 32.785C 35.0585 32.785 28.2031 39.637 28.2031 48.09C 28.2031 56.539 35.0546 63.395 43.5077 63.395C 51.957 63.395 58.8124 56.543 58.8124 48.09"/>
<path style="stroke:#000000; stroke-width:1.9133; fill:none" d="M 58.8124 48.09C 58.8124 39.641 51.9609 32.785 43.5077 32.785C 35.0585 32.785 28.2031 39.637 28.2031 48.09C 28.2031 56.539 35.0546 63.395 43.5077 63.395C 51.957 63.395 58.8124 56.543 58.8124 48.09"/>
<path style="stroke:none; fill-rule:evenodd; fill:#000000" d="M 44.5312 47.102L 40.9335 47.102L 40.9335 48L 43.5312 48L 43.5312 48.234C 43.5312 49.777 42.4335 50.895 40.914 50.895C 40.0702 50.895 39.3046 50.582 38.8124 50.035C 38.2655 49.43 37.9335 48.418 37.9335 47.367C 37.9335 45.281 39.0976 43.902 40.8593 43.902C 42.1249 43.902 43.039 44.57 43.2695 45.668L 44.3554 45.668C 44.0585 43.977 42.7695 43 40.8515 43C 39.832 43 39.0038 43.266 38.3476 43.805C 37.3866 44.609 36.832 45.91 36.832 47.418C 36.832 49.996 38.4023 51.793 40.6679 51.793C 41.8046 51.793 42.7109 51.367 43.5273 50.457L 43.8046 51.57L 44.5234 51.57L 44.5312 47.102z"/>
<path style="stroke:none; fill-rule:evenodd; fill:#000000" d="M 48.371 45.301C 46.6679 45.301 45.6366 46.516 45.6366 48.551C 45.6366 50.586 46.6562 51.801 48.3866 51.801C 50.0898 51.801 51.1366 50.59 51.1366 48.602C 51.1366 46.512 50.1288 45.309 48.3788 45.309L 48.371 45.301zM 48.3827 46.203C 49.4765 46.203 50.1327 47.09 50.1327 48.586C 50.1327 50 49.457 50.898 48.3827 50.898C 47.3007 50.898 46.6327 50.012 46.6327 48.551C 46.6327 47.102 47.2968 46.203 48.3827 46.203z"/>
<path style="stroke:none; fill-rule:evenodd; fill:#ffffff" d="M 230.05 145.672C 230.05 137.223 223.199 130.367 214.746 130.367C 206.296 130.367 199.441 137.219 199.441 145.672C 199.441 154.121 206.293 160.977 214.746 160.977C 223.195 160.977 230.05 154.125 230.05 145.672"/>
<path style="stroke:#000000; stroke-width:1.9133; fill:none" d="M 230.05 145.672C 230.05 137.223 223.199 130.367 214.746 130.367C 206.296 130.367 199.441 137.219 199.441 145.672C 199.441 154.121 206.293 160.977 214.746 160.977C 223.195 160.977 230.05 154.125 230.05 145.672"/>
<path style="stroke:none; fill-rule:evenodd; fill:#000000" d="M 216.375 146.602L 217.234 149.102L 218.425 149.102L 215.488 140.703L 214.113 140.703L 211.129 149.102L 212.261 149.102L 213.144 146.602L 216.375 146.602zM 216.074 145.703L 213.414 145.703L 214.789 141.883L 216.074 145.703z"/>
<path style="stroke:none; fill-rule:evenodd; fill:#ffffff" d="M 266.406 145.672C 266.406 137.223 259.554 130.367 251.101 130.367C 242.652 130.367 235.796 137.219 235.796 145.672C 235.796 154.121 242.648 160.977 251.101 160.977C 259.55 160.977 266.406 154.125 266.406 145.672"/>
<path style="stroke:#000000; stroke-width:1.9133; fill:none" d="M 266.406 145.672C 266.406 137.223 259.554 130.367 251.101 130.367C 242.652 130.367 235.796 137.219 235.796 145.672C 235.796 154.121 242.648 160.977 251.101 160.977C 259.55 160.977 266.406 154.125 266.406 145.672"/>
<path style="stroke:none; fill-rule:evenodd; fill:#000000" d="M 248.632 149.102L 252.441 149.102C 253.238 149.102 253.828 148.883 254.281 148.402C 254.695 147.965 254.929 147.367 254.929 146.711C 254.929 145.699 254.457 145.086 253.355 144.676C 254.121 144.32 254.527 143.699 254.527 142.848C 254.527 142.238 254.3 141.699 253.859 141.305C 253.422 140.902 252.847 140.719 252.039 140.719L 248.629 140.719L 248.632 149.102zM 249.734 144.402L 249.734 141.605L 251.777 141.605C 252.367 141.605 252.695 141.688 252.976 141.918C 253.269 142.156 253.429 142.52 253.429 143.004C 253.429 143.473 253.273 143.848 252.976 144.09C 252.695 144.316 252.367 144.402 251.777 144.402L 249.734 144.402zM 249.734 148.203L 249.734 145.305L 252.332 145.305C 252.843 145.305 253.187 145.43 253.441 145.707C 253.691 145.973 253.828 146.34 253.828 146.758C 253.828 147.16 253.691 147.531 253.441 147.797C 253.191 148.07 252.847 148.199 252.332 148.199L 249.734 148.203z"/>
<path style="stroke:none; fill-rule:evenodd; fill:#ffff00" d="M 230.05 90.184C 230.05 81.734 223.199 74.879 214.746 74.879C 206.296 74.879 199.441 81.73 199.441 90.184C 199.441 98.6328 206.293 105.488 214.746 105.488C 223.195 105.488 230.05 98.6367 230.05 90.184"/>
<path style="stroke:#000000; stroke-width:1.9133; fill:none" d="M 230.05 90.184C 230.05 81.734 223.199 74.879 214.746 74.879C 206.296 74.879 199.441 81.73 199.441 90.184C 199.441 98.6328 206.293 105.488 214.746 105.488C 223.195 105.488 230.05 98.6367 230.05 90.184"/>
<path style="stroke:none; fill-rule:evenodd; fill:#000000" d="M 216.375 91.102L 217.234 93.6016L 218.425 93.6016L 215.488 85.203L 214.113 85.203L 211.129 93.6016L 212.261 93.6016L 213.144 91.102L 216.375 91.102zM 216.074 90.203L 213.414 90.203L 214.789 86.383L 216.074 90.203z"/>
<path style="stroke:none; fill-rule:evenodd; fill:#ffffff" d="M 266.406 90.184C 266.406 81.734 259.554 74.879 251.101 74.879C 242.652 74.879 235.796 81.73 235.796 90.184C 235.796 98.6328 242.648 105.488 251.101 105.488C 259.55 105.488 266.406 98.6367 266.406 90.184"/>
<path style="stroke:#000000; stroke-width:1.9133; fill:none" d="M 266.406 90.184C 266.406 81.734 259.554 74.879 251.101 74.879C 242.652 74.879 235.796 81.73 235.796 90.184C 235.796 98.6328 242.648 105.488 251.101 105.488C 259.55 105.488 266.406 98.6367 266.406 90.184"/>
<path style="stroke:none; fill-rule:evenodd; fill:#000000" d="M 248.632 93.6016L 252.441 93.6016C 253.238 93.6016 253.828 93.383 254.281 92.902C 254.695 92.465 254.929 91.867 254.929 91.211C 254.929 90.199 254.457 89.586 253.355 89.176C 254.121 88.82 254.527 88.199 254.527 87.348C 254.527 86.738 254.3 86.199 253.859 85.805C 253.422 85.402 252.847 85.219 252.039 85.219L 248.629 85.219L 248.632 93.6016zM 249.734 88.902L 249.734 86.105L 251.777 86.105C 252.367 86.105 252.695 86.188 252.976 86.418C 253.269 86.656 253.429 87.02 253.429 87.504C 253.429 87.973 253.273 88.348 252.976 88.59C 252.695 88.816 252.367 88.902 251.777 88.902L 249.734 88.902zM 249.734 92.703L 249.734 89.805L 252.332 89.805C 252.843 89.805 253.187 89.93 253.441 90.207C 253.691 90.473 253.828 90.84 253.828 91.258C 253.828 91.66 253.691 92.031 253.441 92.297C 253.191 92.57 252.847 92.699 252.332 92.699L 249.734 92.703z"/>
<path style="stroke:none; fill-rule:evenodd; fill:#ffffff" d="M 182.168 48.09C 182.168 39.641 175.316 32.785 166.863 32.785C 158.414 32.785 151.558 39.637 151.558 48.09C 151.558 56.539 158.41 63.395 166.863 63.395C 175.312 63.395 182.168 56.543 182.168 48.09"/>
<path style="stroke:#000000; stroke-width:1.9133; fill:none" d="M 182.168 48.09C 182.168 39.641 175.316 32.785 166.863 32.785C 158.414 32.785 151.558 39.637 151.558 48.09C 151.558 56.539 158.41 63.395 166.863 63.395C 175.312 63.395 182.168 56.543 182.168 48.09"/>
<path style="stroke:none; fill-rule:evenodd; fill:#000000" d="M 167.933 47.102L 164.336 47.102L 164.336 48L 166.933 48L 166.933 48.234C 166.933 49.777 165.836 50.895 164.316 50.895C 163.472 50.895 162.707 50.582 162.214 50.035C 161.668 49.43 161.336 48.418 161.336 47.367C 161.336 45.281 162.5 43.902 164.261 43.902C 165.527 43.902 166.441 44.57 166.672 45.668L 167.757 45.668C 167.461 43.977 166.172 43 164.254 43C 163.234 43 162.406 43.266 161.75 43.805C 160.789 44.609 160.234 45.91 160.234 47.418C 160.234 49.996 161.804 51.793 164.07 51.793C 165.207 51.793 166.113 51.367 166.929 50.457L 167.207 51.57L 167.925 51.57L 167.933 47.102z"/>
<path style="stroke:none; fill-rule:evenodd; fill:#000000" d="M 171.769 45.301C 170.066 45.301 169.035 46.516 169.035 48.551C 169.035 50.586 170.054 51.801 171.785 51.801C 173.488 51.801 174.535 50.59 174.535 48.602C 174.535 46.512 173.527 45.309 171.777 45.309L 171.769 45.301zM 171.781 46.203C 172.875 46.203 173.531 47.09 173.531 48.586C 173.531 50 172.855 50.898 171.781 50.898C 170.699 50.898 170.031 50.012 170.031 48.551C 170.031 47.102 170.695 46.203 171.781 46.203z"/>
<path style="stroke:#000000; stroke-width:0.95664899999999997; fill:none" d="M 61.6757 128.449L 44.457 63.398"/>
<path style="stroke:#000000; stroke-width:0.95664899999999997; fill:none" d="M 44.5663 71.285L 44.4609 63.398L 48.2655 70.305"/>
<path style="stroke:#000000; stroke-width:3.8266; fill:none" d="M 25.3241 128.449L 40.6288 63.398"/>
<path style="stroke:#000000; stroke-width:3.8266; fill:none" d="M 37.0155 70.41L 40.6288 63.398L 40.7343 71.285"/>
</g>
</svg>