<?xml version="1.0" encoding="ISO-8859-1" standalone="yes"?>
<svg width="182.62" height="106.98">
  <defs> 
    <marker id="ArrowEnd" viewBox="0 0 10 10" refX="0" refY="5" 
     markerUnits="strokeWidth" 
     markerWidth="4" 
     markerHeight="3" 
     orient="auto"> 
        <path d="M 0 0 L 10 5 L 0 10 z" /> 
    </marker>
    <marker id="ArrowStart" viewBox="0 0 10 10" refX="10" refY="5" 
     markerUnits="strokeWidth" 
     markerWidth="4" 
     markerHeight="3" 
     orient="auto"> 
        <path d="M 10 0 L 0 5 L 10 10 z" /> 
    </marker> </defs>
<g>
<path style="stroke:#000000; stroke-width:1.59941; fill:none" d="M 35.1635 72.1792C 35.1635 64.7846 29.1713 58.7885 21.7729 58.7885C 14.3784 58.7885 8.38226 64.7807 8.38226 72.1792C 8.38226 79.5737 14.3745 85.5698 21.7729 85.5698C 29.1674 85.5698 35.1635 79.5776 35.1635 72.1792"/>
<path style="stroke:#000000; stroke-width:1.59941; fill:none" d="M 81.7416 72.1792C 81.7416 64.7846 75.7495 58.7885 68.351 58.7885C 60.9565 58.7885 54.9604 64.7807 54.9604 72.1792C 54.9604 79.5737 60.9526 85.5698 68.351 85.5698C 75.7456 85.5698 81.7416 79.5776 81.7416 72.1792"/>
<path style="stroke:#000000; stroke-width:1.59941; fill:none" d="M 127.663 71.519C 127.663 64.1245 121.671 58.1284 114.273 58.1284C 106.878 58.1284 100.882 64.1206 100.882 71.519C 100.882 78.9135 106.874 84.9096 114.273 84.9096C 121.667 84.9096 127.663 78.9174 127.663 71.519"/>
<path style="stroke:#000000; stroke-width:1.59941; fill:none" d="M 174.237 71.519C 174.237 64.1245 168.245 58.1284 160.847 58.1284C 153.452 58.1284 147.456 64.1206 147.456 71.519C 147.456 78.9135 153.448 84.9096 160.847 84.9096C 168.241 84.9096 174.237 78.9174 174.237 71.519"/>
<path style="stroke:#000000; stroke-width:1.59941; fill:none" d="M 103.444 21.7729C 103.444 14.3783 97.4524 8.38226 90.0544 8.38226C 82.6596 8.38226 76.6635 14.3743 76.6635 21.7729C 76.6635 29.1675 82.6557 35.1635 90.0544 35.1635C 97.4484 35.1635 103.444 29.1714 103.444 21.7729"/>
<path style="stroke:none; fill-rule:evenodd; fill:#ff0000" d="M 15.6323 69.9565L 15.6323 75.0073L 16.4292 75.0073L 16.4292 72.3549C 16.4292 71.6245 16.6049 71.1479 16.9838 70.8628C 17.226 70.6792 17.4604 70.6206 18.0073 70.6089L 18.0073 69.8393C 17.8745 69.8237 17.8081 69.8159 17.7026 69.8159C 17.187 69.8159 16.7924 70.1245 16.3315 70.8745L 16.3315 69.9604L 15.6323 69.9565z"/>
<path style="stroke:none; fill-rule:evenodd; fill:#ff0000" d="M 23.0346 72.8081C 23.0346 72.0229 22.9799 71.5503 22.8354 71.1674C 22.5151 70.3237 21.7534 69.812 20.8198 69.812C 19.4331 69.812 18.5385 70.8862 18.5385 72.5385C 18.5385 74.1909 19.4057 75.2065 20.812 75.2065C 21.9565 75.2065 22.7495 74.562 22.9526 73.4839L 22.144 73.4839C 21.9252 74.1557 21.4721 74.5073 20.8237 74.5073C 20.3159 74.5073 19.8823 74.2807 19.6088 73.8667C 19.4174 73.5854 19.351 73.3003 19.3393 72.812L 23.0346 72.8081zM 19.3706 72.1128C 19.437 71.1831 20.0034 70.5776 20.8081 70.5776C 21.5932 70.5776 22.1987 71.2299 22.1987 72.0542C 22.1987 72.0737 22.1987 72.0893 22.1909 72.1089L 19.3706 72.1128z"/>
<path style="stroke:none; fill-rule:evenodd; fill:#ff0000" d="M 28.3354 68.0073L 27.5385 68.0073L 27.5385 70.6089C 27.2026 70.0854 26.6674 69.8042 25.9956 69.8042C 24.6948 69.8042 23.8393 70.8511 23.8393 72.4526C 23.8393 74.1518 24.6518 75.1987 25.9721 75.1987C 26.644 75.1987 27.1127 74.9487 27.5346 74.3393L 27.5346 74.9995L 28.3315 74.9995L 28.3354 68.0073zM 26.1088 70.5073C 26.9799 70.5073 27.5346 71.2924 27.5346 72.5268C 27.5346 73.7182 26.9721 74.5034 26.1206 74.5034C 25.2299 74.5034 24.6401 73.7065 24.6401 72.5073C 24.6401 71.3081 25.2299 70.5073 26.1127 70.5073L 26.1088 70.5073z"/>
<path style="stroke:#000000; stroke-width:1.59941; fill:none" d="M 60.6948 78.8745L 75.9995 78.8745L 75.9995 65.4839L 60.6948 65.4839L 60.6948 78.8745z"/>
<path style="stroke:none; fill-rule:evenodd; fill:#0000ff" d="M 105.534 67.4096L 105.534 74.4096L 106.233 74.4096L 106.233 73.769C 106.616 74.3393 107.128 74.6089 107.831 74.6089C 109.159 74.6089 110.026 73.5229 110.026 71.8549C 110.026 70.2221 109.202 69.2143 107.882 69.2143C 107.194 69.2143 106.706 69.4799 106.331 70.0659L 106.331 67.4135L 105.534 67.4096zM 107.749 69.9839C 108.64 69.9839 109.214 70.7573 109.214 71.9604C 109.214 73.1011 108.62 73.8784 107.749 73.8784C 106.905 73.8784 106.351 73.1128 106.351 71.9331C 106.351 70.7534 106.905 69.9878 107.749 69.9878L 107.749 69.9839z"/>
<path style="stroke:none; fill-rule:evenodd; fill:#0000ff" d="M 111.132 74.4096L 111.929 74.4096L 111.929 67.4096L 111.132 67.4096L 111.132 74.4096z"/>
<path style="stroke:none; fill-rule:evenodd; fill:#0000ff" d="M 117.132 74.3901L 117.132 69.4096L 116.335 69.4096L 116.335 72.2261C 116.335 73.2378 115.8 73.9057 114.972 73.9057C 114.343 73.9057 113.94 73.5268 113.94 72.9292L 113.94 69.4096L 113.144 69.4096L 113.144 73.2495C 113.144 74.0737 113.769 74.6049 114.753 74.6049C 115.495 74.6049 115.968 74.3511 116.44 73.6948L 116.44 74.3862L 117.132 74.3901z"/>
<path style="stroke:none; fill-rule:evenodd; fill:#0000ff" d="M 122.733 72.2104C 122.733 71.4253 122.679 70.9526 122.534 70.5698C 122.214 69.7261 121.452 69.2143 120.519 69.2143C 119.132 69.2143 118.237 70.2885 118.237 71.9409C 118.237 73.5932 119.105 74.6089 120.511 74.6089C 121.655 74.6089 122.448 73.9643 122.651 72.8862L 121.843 72.8862C 121.624 73.5581 121.171 73.9096 120.523 73.9096C 120.015 73.9096 119.581 73.6831 119.308 73.269C 119.116 72.9878 119.05 72.7026 119.038 72.2143L 122.733 72.2104zM 119.069 71.5112C 119.136 70.5815 119.702 69.9761 120.507 69.9761C 121.292 69.9761 121.897 70.6284 121.897 71.4526C 121.897 71.4721 121.897 71.4878 121.89 71.5073L 119.069 71.5112z"/>
<path style="stroke:#000000; stroke-width:1.59941; fill:none" d="M 154.03 77.9174L 161.683 62.6128L 169.335 77.9174L 154.03 77.9174"/>
<path style="stroke:#000000; stroke-width:1.59941; fill:none" d="M 22.0112 58.7846L 79.4096 28.1753"/>
<path style="stroke:#000000; stroke-width:1.59941; fill:none" d="M 73.0151 29.7729L 79.4096 28.1753L 74.519 32.5932"/>
<path style="stroke:#000000; stroke-width:1.59941; fill:none" d="M 67.9331 58.7846L 85.1518 33.9135"/>
<path style="stroke:#000000; stroke-width:1.59941; fill:none" d="M 80.1948 38.2612L 85.1479 33.9135L 82.8237 40.0815"/>
<path style="stroke:#000000; stroke-width:1.59941; fill:none" d="M 115.765 58.7846L 94.7224 33.9135"/>
<path style="stroke:#000000; stroke-width:1.59941; fill:none" d="M 97.6284 39.8276L 94.7184 33.9135L 100.069 37.7612"/>
<path style="stroke:#000000; stroke-width:1.59941; fill:none" d="M 161.683 58.7846L 102.374 28.1753"/>
<path style="stroke:#000000; stroke-width:1.59941; fill:none" d="M 107.319 32.5268L 102.37 28.1753L 108.788 29.687"/>
<path style="stroke:none; fill-rule:evenodd; fill:#000000" d="M 87.9334 22.6987L 87.9334 22.2495C 87.9334 21.8315 88.0424 21.6675 88.7264 21.0659C 89.4804 20.4175 89.7304 19.9873 89.7304 19.3553C 89.7304 18.2373 88.9254 17.5193 87.6594 17.5193C 86.2612 17.5193 85.5307 18.2803 85.5307 19.7533L 86.3276 19.7533C 86.3276 19.3043 86.3745 19.0273 86.4995 18.7923C 86.6909 18.4293 87.0932 18.2223 87.6324 18.2223C 88.4094 18.2223 88.9254 18.6673 88.9254 19.3233C 88.9254 19.7653 88.7064 20.144 88.1714 20.5971C 87.5814 21.1089 87.5814 21.1089 87.4094 21.3315C 87.1987 21.6011 87.1284 21.8237 87.1284 22.1714L 87.1284 22.7026L 87.9334 22.6987zM 87.9334 23.6089L 87.1362 23.6089L 87.1362 24.6089L 87.9334 24.6089L 87.9334 23.6089z"/>
<path style="stroke:none; fill-rule:evenodd; fill:#000000" d="M 93.3354 22.6987L 93.3354 22.2495C 93.3354 21.8315 93.4444 21.6675 94.1284 21.0659C 94.8824 20.4175 95.1324 19.9873 95.1324 19.3553C 95.1324 18.2373 94.3274 17.5193 93.0624 17.5193C 91.6634 17.5193 90.9334 18.2803 90.9334 19.7533L 91.7304 19.7533C 91.7304 19.3043 91.7764 19.0273 91.9014 18.7923C 92.0934 18.4293 92.4954 18.2223 93.0344 18.2223C 93.8124 18.2223 94.3274 18.6673 94.3274 19.3233C 94.3274 19.7653 94.1084 20.144 93.5734 20.5971C 92.9834 21.1089 92.9834 21.1089 92.8124 21.3315C 92.6014 21.6011 92.5304 21.8237 92.5304 22.1714L 92.5304 22.7026L 93.3354 22.6987zM 93.3354 23.6089L 92.5384 23.6089L 92.5384 24.6089L 93.3354 24.6089L 93.3354 23.6089z"/>
<path style="stroke:#000000; stroke-width:0.799705; fill:none" d="M 6.46426 95.1362L 6.70256 94.4214L 6.70256 93.7065L 6.70256 93.23L 6.94086 92.5151L 6.94086 92.0385L 7.17916 91.3237L 7.17916 90.8471L 7.17916 90.3706L 7.41736 90.1323L 7.41736 89.6557L 7.65566 89.4175L 7.65566 89.1792L 7.89396 88.9409L 7.89396 88.7026L 7.89396 88.7026L 8.13226 88.7026L 8.13226 88.7026L 8.13226 88.7026L 8.37056 88.9409L 8.37056 89.1792L 8.37056 89.4175L 8.60876 89.894L 8.60876 90.3706L 8.84706 90.6089L 8.84706 91.3237L 9.08536 91.8003L 9.08536 92.2768L 9.08536 92.9917L 9.32366 93.4682L 9.32366 94.1831L 9.56196 94.8979L 9.56196 95.3745L 9.80016 96.0893L 9.80016 96.8042L 9.80016 97.2807L 10.0385 97.9956L 10.0385 98.4721L 10.2768 98.9487L 10.2768 99.4253L 10.2768 99.9018L 10.5151 100.378L 10.5151 100.617L 10.7534 100.855L 10.7534 101.093L 10.9916 101.331L 10.9916 101.331L 10.9916 101.57L 11.2299 101.57L 11.2299 101.331L 11.4682 101.331L 11.4682 101.093L 11.4682 100.617L 11.7065 100.378L 11.7065 100.14L 11.9448 99.6635L 11.9448 99.187L 12.1831 98.7104L 12.1831 97.9956L 12.1831 97.519L 12.4213 96.8042L 12.4213 96.3276L 12.4213 95.6128L 12.6596 94.8979L 12.6596 94.4214L 12.6596 93.7065L 12.8979 92.9917L 12.8979 92.5151L 13.1362 91.8003L 13.1362 91.3237L 13.3745 90.8471L 13.3745 90.3706L 13.3745 89.894L 13.6127 89.6557L 13.6127 89.4175L 13.851 88.9409L 13.851 88.9409L 13.851 88.7026L 14.0893 88.7026L 14.0893 88.7026L 14.3276 88.7026L 14.3276 88.9409L 14.5659 88.9409L 14.5659 89.1792L 14.5659 89.6557L 14.8042 89.894L 14.8042 90.3706L 15.0424 90.8471L 15.0424 91.3237L 15.0424 91.8003L 15.2807 92.5151L 15.2807 92.9917L 15.519 93.7065L 15.519 94.1831L 15.7573 94.8979L 15.7573 95.6128L 15.7573 96.0893L 15.9956 96.8042L 15.9956 97.519L 16.2338 97.9956L 16.2338 98.4721L 16.2338 99.187L 16.4721 99.6635L 16.4721 99.9018L 16.4721 100.378L 16.7104 100.617L 16.9487 101.093L 16.9487 101.093L 16.9487 101.331L 16.9487 101.57L 17.187 101.57L 17.187 101.331L 17.4252 101.331L 17.4252 101.093L 17.6635 100.855L 17.6635 100.617L 17.6635 100.378L 17.9018 99.9018L 17.9018 99.4253L 18.1401 98.9487L 18.1401 98.4721L 18.1401 97.9956L 18.3784 97.2807L 18.3784 96.8042L 18.6166 96.0893L 18.6166 95.6128L 18.8549 94.8979L 18.8549 94.1831L 18.8549 93.4682L 19.0932 92.9917L 19.0932 92.2768L 19.3315 91.8003L 19.3315 91.3237L 19.3315 90.8471L 19.5698 90.3706L 19.5698 89.894L 19.8081 89.6557L 19.8081 89.1792L 20.0463 88.9409L 20.0463 88.9409L 20.0463 88.7026L 20.2846 88.7026L 20.2846 88.7026L 20.5229 88.7026L 20.5229 88.9409L 20.5229 89.1792L 20.7612 89.4175L 20.7612 89.6557L 20.7612 89.894L 20.9995 90.3706L 21.2377 90.8471L 21.2377 91.3237L 21.2377 92.0385L 21.476 92.5151L 21.476 92.9917L 21.476 93.7065L 21.7143 94.4214L 21.7143 95.1362L 21.7143 95.6128L 21.9526 96.3276L 21.9526 97.0425L 22.1909 97.519L 22.1909 97.9956L 22.4292 98.7104L 22.4292 99.187L 22.4292 99.6635L 22.6674 100.14L 22.6674 100.378L 22.9057 100.855L 22.9057 101.093L 23.144 101.331L 23.144 101.331L 23.144 101.57L 23.3823 101.57L 23.3823 101.331L 23.6206 101.331L 23.6206 101.093L 23.6206 100.855L 23.8588 100.617L 23.8588 100.378L 24.0971 99.9018L 24.0971 99.4253L 24.3354 98.9487L 24.3354 98.4721L 24.3354 97.7573L 24.5737 97.2807L 24.5737 96.5659L 24.812 96.0893L 24.812 95.3745L 24.812 94.6596L 25.0502 94.1831L 25.0502 93.4682L 25.0502 92.7534L 25.2885 92.2768L 25.2885 91.8003L 25.5268 91.0854L 25.5268 90.6089L 25.5268 90.1323L 25.7651 89.894L 25.7651 89.4175L 26.0034 89.1792L 26.0034 88.9409L 26.0034 88.7026L 26.2416 88.7026L 26.2416 88.7026L 26.4799 88.7026L 26.4799 88.7026L 26.7182 88.9409L 26.7182 89.1792L 26.7182 89.4175L 26.9565 89.6557L 26.9565 90.1323L 27.1948 90.6089L 27.1948 91.0854L 27.1948 91.562L 27.4331 92.0385L 27.4331 92.5151L 27.6713 93.23L 27.6713 93.9448L 27.9096 94.4214L 27.9096 95.1362L 27.9096 95.8511L 28.1479 96.3276L 28.1479 97.0425L 28.3862 97.519L 28.3862 98.2339L 28.3862 98.7104L 28.6245 99.187L 28.6245 99.6635L 28.8627 100.14L 28.8627 100.378L 28.8627 100.855L 29.101 101.093L 29.101 101.331L 29.101 101.331L 29.3393 101.57L 29.5776 101.57L 29.5776 101.331L 29.5776 101.331L 29.8159 101.093L 29.8159 100.855L 29.8159 100.617L 30.0542 100.14L 30.0542 99.9018L 30.2924 99.4253L 30.2924 98.9487L 30.2924 98.2339L 30.5307 97.7573L 30.5307 97.2807L 30.769 96.5659L 30.769 95.8511L 31.0073 95.3745L 31.0073 94.6596L 31.0073 93.9448L 31.2456 93.4682L 31.2456 92.7534L 31.4838 92.2768L 31.4838 91.562L 31.4838 91.0854L 31.7221 90.6089L 31.7221 90.1323L 31.9604 89.894L 31.9604 89.4175L 32.1987 89.1792L 32.1987 88.9409L 32.1987 88.7026L 32.437 88.7026L 32.437 88.7026L 32.6752 88.7026L 32.6752 88.7026L 32.6752 88.9409L 32.9135 89.1792L 32.9135 89.4175L 33.1518 89.6557L 33.1518 90.1323L 33.3901 90.6089L 33.3901 91.0854L 33.3901 91.562L 33.3901 92.0385L 33.6284 92.7534L 33.6284 93.23L 33.8666 93.9448L 33.8666 94.6596L 33.8666 95.1362L 34.1049 95.8511L 34.1049 96.5659L 34.3432 97.0425L 34.3432 97.7573L 34.5815 98.2339L 34.5815 98.9487L 34.5815 99.4253L 34.8198 99.9018L 34.8198 100.14L 35.0581 100.617L 35.0581 100.855L 35.2963 101.093L 35.2963 101.331L 35.2963 101.331L 35.5346 101.57L 35.5346 101.57L 35.7729 101.331L 35.7729 101.331L 35.7729 101.093L 36.0112 100.855L 36.0112 100.617L 36.2495 100.14L 36.2495 99.6635L 36.4877 99.187L 36.4877 98.7104L 36.4877 98.2339L 36.726 97.7573L 36.726 97.0425L 36.9643 96.5659L 36.9643 95.8511L 36.9643 95.1362L 36.9643 95.1362"/>
<path style="stroke:#000000; stroke-width:0.799705; fill:none" d="M 4.55416 85.5698L 4.55416 102.788"/>
<path style="stroke:#000000; stroke-width:0.799705; fill:none" d="M 4.55416 102.788L 38.9916 102.788"/>
<path style="stroke:#000000; stroke-width:0.799705; fill:none" d="M 53.0424 95.1362L 53.2807 94.4214L 53.2807 93.7065L 53.2807 93.23L 53.519 92.5151L 53.519 92.0385L 53.7573 91.3237L 53.7573 90.8471L 53.7573 90.3706L 53.9956 90.1323L 53.9956 89.6557L 54.2338 89.4175L 54.2338 89.1792L 54.4721 88.9409L 54.4721 88.7026L 54.4721 88.7026L 54.7104 88.7026L 54.7104 88.7026L 54.7104 88.7026L 54.9487 88.9409L 54.9487 89.1792L 54.9487 89.4175L 55.187 89.894L 55.187 90.3706L 55.4252 90.6089L 55.4252 91.3237L 55.6635 91.8003L 55.6635 92.2768L 55.6635 92.9917L 55.9018 93.4682L 55.9018 94.1831L 56.1401 94.8979L 56.1401 95.3745L 56.3784 96.0893L 56.3784 96.8042L 56.3784 97.2807L 56.6166 97.9956L 56.6166 98.4721L 56.8549 98.9487L 56.8549 99.4253L 56.8549 99.9018L 57.0932 100.378L 57.0932 100.617L 57.3315 100.855L 57.3315 101.093L 57.5698 101.331L 57.5698 101.331L 57.5698 101.57L 57.8081 101.57L 57.8081 101.331L 58.0463 101.331L 58.0463 101.093L 58.0463 100.617L 58.2846 100.378L 58.2846 100.14L 58.5229 99.6635L 58.5229 99.187L 58.7612 98.7104L 58.7612 97.9956L 58.7612 97.519L 58.9995 96.8042L 58.9995 96.3276L 58.9995 95.6128L 59.2377 94.8979L 59.2377 94.4214L 59.2377 93.7065L 59.476 92.9917L 59.476 92.5151L 59.7143 91.8003L 59.7143 91.3237L 59.9526 90.8471L 59.9526 90.3706L 59.9526 89.894L 60.1909 89.6557L 60.1909 89.4175L 60.4292 88.9409L 60.4292 88.9409L 60.4292 88.7026L 60.6674 88.7026L 60.6674 88.7026L 60.9057 88.7026L 60.9057 88.9409L 61.144 88.9409L 61.144 89.1792L 61.144 89.6557L 61.3823 89.894L 61.3823 90.3706L 61.6206 90.8471L 61.6206 91.3237L 61.6206 91.8003L 61.8588 92.5151L 61.8588 92.9917L 62.0971 93.7065L 62.0971 94.1831L 62.3354 94.8979L 62.3354 95.6128L 62.3354 96.0893L 62.5737 96.8042L 62.5737 97.519L 62.812 97.9956L 62.812 98.4721L 62.812 99.187L 63.0502 99.6635L 63.0502 99.9018L 63.0502 100.378L 63.2885 100.617L 63.5268 101.093L 63.5268 101.093L 63.5268 101.331L 63.5268 101.57L 63.7651 101.57L 63.7651 101.331L 64.0034 101.331L 64.0034 101.093L 64.2416 100.855L 64.2416 100.617L 64.2416 100.378L 64.4799 99.9018L 64.4799 99.4253L 64.7182 98.9487L 64.7182 98.4721L 64.7182 97.9956L 64.9565 97.2807L 64.9565 96.8042L 65.1948 96.0893L 65.1948 95.6128L 65.4331 94.8979L 65.4331 94.1831L 65.4331 93.4682L 65.6713 92.9917L 65.6713 92.2768L 65.9096 91.8003L 65.9096 91.3237L 65.9096 90.8471L 66.1479 90.3706L 66.1479 89.894L 66.3862 89.6557L 66.3862 89.1792L 66.6245 88.9409L 66.6245 88.9409L 66.6245 88.7026L 66.8627 88.7026L 66.8627 88.7026L 67.101 88.7026L 67.101 88.9409L 67.101 89.1792L 67.3393 89.4175L 67.3393 89.6557L 67.3393 89.894L 67.5776 90.3706L 67.8159 90.8471L 67.8159 91.3237L 67.8159 92.0385L 68.0542 92.5151L 68.0542 92.9917L 68.0542 93.7065L 68.2924 94.4214L 68.2924 95.1362L 68.2924 95.6128L 68.5307 96.3276L 68.5307 97.0425L 68.769 97.519L 68.769 97.9956L 69.0073 98.7104L 69.0073 99.187L 69.0073 99.6635L 69.2456 100.14L 69.2456 100.378L 69.4838 100.855L 69.4838 101.093L 69.7221 101.331L 69.7221 101.331L 69.7221 101.57L 69.9604 101.57L 69.9604 101.331L 70.1987 101.331L 70.1987 101.093L 70.1987 100.855L 70.437 100.617L 70.437 100.378L 70.6752 99.9018L 70.6752 99.4253L 70.9135 98.9487L 70.9135 98.4721L 70.9135 97.7573L 71.1518 97.2807L 71.1518 96.5659L 71.3901 96.0893L 71.3901 95.3745L 71.3901 94.6596L 71.6284 94.1831L 71.6284 93.4682L 71.6284 92.7534L 71.8666 92.2768L 71.8666 91.8003L 72.1049 91.0854L 72.1049 90.6089L 72.1049 90.1323L 72.3432 89.894L 72.3432 89.4175L 72.5815 89.1792L 72.5815 88.9409L 72.5815 88.7026L 72.8198 88.7026L 72.8198 88.7026L 73.0581 88.7026L 73.0581 88.7026L 73.2963 88.9409L 73.2963 89.1792L 73.2963 89.4175L 73.5346 89.6557L 73.5346 90.1323L 73.7729 90.6089L 73.7729 91.0854L 73.7729 91.562L 74.0112 92.0385L 74.0112 92.5151L 74.2495 93.23L 74.2495 93.9448L 74.4877 94.4214L 74.4877 95.1362L 74.4877 95.8511L 74.726 96.3276L 74.726 97.0425L 74.9643 97.519L 74.9643 98.2339L 74.9643 98.7104L 75.2026 99.187L 75.2026 99.6635L 75.4409 100.14L 75.4409 100.378L 75.4409 100.855L 75.6792 101.093L 75.6792 101.331L 75.6792 101.331L 75.9174 101.57L 76.1557 101.57L 76.1557 101.331L 76.1557 101.331L 76.394 101.093L 76.394 100.855L 76.394 100.617L 76.6323 100.14L 76.6323 99.9018L 76.8706 99.4253L 76.8706 98.9487L 76.8706 98.2339L 77.1088 97.7573L 77.1088 97.2807L 77.3471 96.5659L 77.3471 95.8511L 77.5854 95.3745L 77.5854 94.6596L 77.5854 93.9448L 77.8237 93.4682L 77.8237 92.7534L 78.062 92.2768L 78.062 91.562L 78.062 91.0854L 78.3002 90.6089L 78.3002 90.1323L 78.5385 89.894L 78.5385 89.4175L 78.7768 89.1792L 78.7768 88.9409L 78.7768 88.7026L 79.0151 88.7026L 79.0151 88.7026L 79.2534 88.7026L 79.2534 88.7026L 79.2534 88.9409L 79.4916 89.1792L 79.4916 89.4175L 79.7299 89.6557L 79.7299 90.1323L 79.9682 90.6089L 79.9682 91.0854L 79.9682 91.562L 79.9682 92.0385L 80.2065 92.7534L 80.2065 93.23L 80.4448 93.9448L 80.4448 94.6596L 80.4448 95.1362L 80.6831 95.8511L 80.6831 96.5659L 80.9213 97.0425L 80.9213 97.7573L 81.1596 98.2339L 81.1596 98.9487L 81.1596 99.4253L 81.3979 99.9018L 81.3979 100.14L 81.6362 100.617L 81.6362 100.855L 81.8745 101.093L 81.8745 101.331L 81.8745 101.331L 82.1127 101.57L 82.1127 101.57L 82.351 101.331L 82.351 101.331L 82.351 101.093L 82.5893 100.855L 82.5893 100.617L 82.8276 100.14L 82.8276 99.6635L 83.0659 99.187L 83.0659 98.7104L 83.0659 98.2339L 83.3042 97.7573L 83.3042 97.0425L 83.5424 96.5659L 83.5424 95.8511L 83.5424 95.1362L 83.5424 95.1362"/>
<path style="stroke:#000000; stroke-width:0.799705; fill:none" d="M 51.1284 85.5698L 51.1284 102.788"/>
<path style="stroke:#000000; stroke-width:0.799705; fill:none" d="M 51.1284 102.788L 85.5659 102.788"/>
<path style="stroke:#000000; stroke-width:0.799705; fill:none" d="M 99.5624 93.8823L 99.8004 94.8354L 99.8004 95.312L 100.038 96.0268L 100.038 96.7417L 100.038 97.2182L 100.276 97.9331L 100.276 98.4096L 100.515 98.8862L 100.515 99.3628L 100.515 99.8393L 100.753 100.316L 100.753 100.554L 100.991 100.792L 100.991 101.031L 101.23 101.269L 101.23 101.269L 101.23 101.507L 101.468 101.507L 101.468 101.269L 101.706 101.269L 101.706 101.031L 101.706 100.554L 101.944 100.316L 101.944 100.078L 102.183 99.6011L 102.183 99.1245L 102.421 98.6479L 102.421 97.9331L 102.421 97.4565L 102.659 96.7417L 102.659 96.2651L 102.659 95.5503L 102.897 94.8354L 102.897 94.3589L 102.897 93.644L 103.136 92.9292L 103.136 92.4526L 103.374 91.7378L 103.374 91.2612L 103.612 90.7846L 103.612 90.3081L 103.612 89.8315L 103.851 89.5932L 103.851 89.355L 104.089 88.8784L 104.089 88.8784L 104.089 88.6401L 104.327 88.6401L 104.327 88.6401L 104.565 88.6401L 104.565 88.8784L 104.804 88.8784L 104.804 89.1167L 104.804 89.5932L 105.042 89.8315L 105.042 90.3081L 105.28 90.7846L 105.28 91.2612L 105.28 91.7378L 105.519 92.4526L 105.519 92.9292L 105.757 93.644L 105.757 94.1206L 105.995 94.8354L 105.995 95.5503L 105.995 96.0268L 106.233 96.7417L 106.233 97.4565L 106.472 97.9331L 106.472 98.4096L 106.472 99.1245L 106.71 99.6011L 106.71 99.8393L 106.71 100.316L 106.948 100.554L 107.187 101.031L 107.187 101.031L 107.187 101.269L 107.187 101.507L 107.425 101.507L 107.425 101.269L 107.663 101.269L 107.663 101.031L 107.901 100.792L 107.901 100.554L 107.901 100.316L 108.14 99.8393L 108.14 99.3628L 108.378 98.8862L 108.378 98.4096L 108.378 97.9331L 108.616 97.2182L 108.616 96.7417L 108.855 96.0268L 108.855 95.5503L 109.093 94.8354L 109.093 94.1206L 109.093 93.4057L 109.331 92.9292L 109.331 92.2143L 109.569 91.7378L 109.569 91.2612L 109.569 90.7846L 109.808 90.3081L 109.808 89.8315L 110.046 89.5932L 110.046 89.1167L 110.284 88.8784L 110.284 88.8784L 110.284 88.6401L 110.523 88.6401L 110.523 88.6401L 110.761 88.6401L 110.761 88.8784L 110.761 89.1167L 110.999 89.355L 110.999 89.5932L 110.999 89.8315L 111.237 90.3081L 111.476 90.7846L 111.476 91.2612L 111.476 91.9761L 111.714 92.4526L 111.714 92.9292L 111.714 93.644L 111.952 94.3589L 111.952 95.0737L 111.952 95.5503L 112.19 96.2651L 112.19 96.98L 112.429 97.4565L 112.429 97.9331L 112.667 98.6479L 112.667 99.1245L 112.667 99.6011L 112.905 100.078L 112.905 100.316L 113.144 100.792L 113.144 101.031L 113.382 101.269L 113.382 101.269L 113.382 101.507L 113.62 101.507L 113.62 101.269L 113.858 101.269L 113.858 101.031L 113.858 100.792L 114.097 100.554L 114.097 100.316L 114.335 99.8393L 114.335 99.3628L 114.573 98.8862L 114.573 98.4096L 114.573 97.6948L 114.812 97.2182L 114.812 96.5034L 115.05 96.0268L 115.05 95.312L 115.05 94.5971L 115.288 94.1206L 115.288 93.4057L 115.288 92.6909L 115.526 92.2143L 115.526 91.7378L 115.765 91.0229L 115.765 90.5464L 115.765 90.0698L 116.003 89.8315L 116.003 89.355L 116.241 89.1167L 116.241 88.8784L 116.241 88.6401L 116.48 88.6401L 116.48 88.6401L 116.718 88.6401L 116.718 88.6401L 116.956 88.8784L 116.956 89.1167L 116.956 89.355L 117.194 89.5932L 117.194 90.0698L 117.433 90.5464L 117.433 91.0229L 117.433 91.4995L 117.671 91.9761L 117.671 92.4526L 117.909 93.1675L 117.909 93.8823L 118.147 94.3589L 118.147 95.0737L 118.147 95.7885L 118.386 96.2651L 118.386 96.98L 118.624 97.4565L 118.624 98.1714L 118.624 98.6479L 118.862 99.1245L 118.862 99.6011L 119.101 100.078L 119.101 100.316L 119.101 100.792L 119.339 101.031L 119.339 101.269L 119.339 101.269L 119.577 101.507L 119.815 101.507L 119.815 101.269L 119.815 101.269L 120.054 101.031L 120.054 100.792L 120.054 100.554L 120.292 100.078L 120.292 99.8393L 120.53 99.3628L 120.53 98.8862L 120.53 98.1714L 120.769 97.6948L 120.769 97.2182L 121.007 96.5034L 121.007 95.7885L 121.245 95.312L 121.245 94.5971L 121.245 93.8823L 121.483 93.4057L 121.483 92.6909L 121.722 92.2143L 121.722 91.4995L 121.722 91.0229L 121.96 90.5464L 121.96 90.0698L 122.198 89.8315L 122.198 89.355L 122.437 89.1167L 122.437 88.8784L 122.437 88.6401L 122.675 88.6401L 122.675 88.6401L 122.913 88.6401L 122.913 88.6401L 122.913 88.8784L 123.151 89.1167L 123.151 89.355L 123.39 89.5932L 123.39 90.0698L 123.628 90.5464L 123.628 91.0229L 123.628 91.4995L 123.628 91.9761L 123.866 92.6909L 123.866 93.1675L 124.105 93.8823L 124.105 94.5971L 124.105 95.0737L 124.343 95.7885L 124.343 96.5034L 124.581 96.98L 124.581 97.6948L 124.819 98.1714L 124.819 98.8862L 124.819 99.3628L 125.058 99.8393L 125.058 100.078L 125.296 100.554L 125.296 100.792L 125.534 101.031L 125.534 101.269L 125.534 101.269L 125.773 101.507L 125.773 101.507L 126.011 101.269L 126.011 101.269L 126.011 101.031L 126.249 100.792L 126.249 100.554L 126.487 100.078L 126.487 99.6011L 126.726 99.1245L 126.726 98.6479L 126.726 98.1714L 126.964 97.6948L 126.964 96.98L 127.202 96.5034L 127.202 95.7885L 127.202 95.0737L 127.44 94.5971L 127.44 93.8823L 127.44 93.1675L 127.679 92.6909L 127.917 91.9761L 127.917 91.4995L 127.917 91.0229L 128.155 90.5464L 128.155 90.0698L 128.155 89.5932L 128.394 89.355L 128.394 89.1167L 128.394 88.8784L 128.632 88.6401L 128.632 88.6401L 128.87 88.6401L 128.87 88.6401L 129.108 88.6401L 129.108 88.8784L 129.108 89.1167L 129.347 89.355L 129.347 89.8315L 129.585 90.0698L 129.585 90.5464L 129.585 91.0229L 129.823 91.4995L 129.823 92.2143L 130.062 92.6909L 130.062 93.4057L 130.3 93.8823L 130.3 94.5971L 130.3 95.312L 130.538 97.2221"/>
<path style="stroke:#000000; stroke-width:0.799705; fill:none" d="M 97.0504 85.5698L 97.0504 102.788"/>
<path style="stroke:#000000; stroke-width:0.799705; fill:none" d="M 97.0504 102.788L 131.487 102.788"/>
<path style="stroke:#000000; stroke-width:0.799705; fill:none" d="M 146.136 93.8823L 146.374 94.8354L 146.374 95.312L 146.612 96.0268L 146.612 96.7417L 146.612 97.2182L 146.851 97.9331L 146.851 98.4096L 147.089 98.8862L 147.089 99.3628L 147.089 99.8393L 147.327 100.316L 147.327 100.554L 147.565 100.792L 147.565 101.031L 147.804 101.269L 147.804 101.269L 147.804 101.507L 148.042 101.507L 148.042 101.269L 148.28 101.269L 148.28 101.031L 148.28 100.554L 148.519 100.316L 148.519 100.078L 148.757 99.6011L 148.757 99.1245L 148.995 98.6479L 148.995 97.9331L 148.995 97.4565L 149.233 96.7417L 149.233 96.2651L 149.233 95.5503L 149.472 94.8354L 149.472 94.3589L 149.472 93.644L 149.71 92.9292L 149.71 92.4526L 149.948 91.7378L 149.948 91.2612L 150.187 90.7846L 150.187 90.3081L 150.187 89.8315L 150.425 89.5932L 150.425 89.355L 150.663 88.8784L 150.663 88.8784L 150.663 88.6401L 150.901 88.6401L 150.901 88.6401L 151.14 88.6401L 151.14 88.8784L 151.378 88.8784L 151.378 89.1167L 151.378 89.5932L 151.616 89.8315L 151.616 90.3081L 151.855 90.7846L 151.855 91.2612L 151.855 91.7378L 152.093 92.4526L 152.093 92.9292L 152.331 93.644L 152.331 94.1206L 152.569 94.8354L 152.569 95.5503L 152.569 96.0268L 152.808 96.7417L 152.808 97.4565L 153.046 97.9331L 153.046 98.4096L 153.046 99.1245L 153.284 99.6011L 153.284 99.8393L 153.284 100.316L 153.523 100.554L 153.761 101.031L 153.761 101.031L 153.761 101.269L 153.761 101.507L 153.999 101.507L 153.999 101.269L 154.237 101.269L 154.237 101.031L 154.476 100.792L 154.476 100.554L 154.476 100.316L 154.714 99.8393L 154.714 99.3628L 154.952 98.8862L 154.952 98.4096L 154.952 97.9331L 155.19 97.2182L 155.19 96.7417L 155.429 96.0268L 155.429 95.5503L 155.667 94.8354L 155.667 94.1206L 155.667 93.4057L 155.905 92.9292L 155.905 92.2143L 156.144 91.7378L 156.144 91.2612L 156.144 90.7846L 156.382 90.3081L 156.382 89.8315L 156.62 89.5932L 156.62 89.1167L 156.858 88.8784L 156.858 88.8784L 156.858 88.6401L 157.097 88.6401L 157.097 88.6401L 157.335 88.6401L 157.335 88.8784L 157.335 89.1167L 157.573 89.355L 157.573 89.5932L 157.573 89.8315L 157.812 90.3081L 158.05 90.7846L 158.05 91.2612L 158.05 91.9761L 158.288 92.4526L 158.288 92.9292L 158.288 93.644L 158.526 94.3589L 158.526 95.0737L 158.526 95.5503L 158.765 96.2651L 158.765 96.98L 159.003 97.4565L 159.003 97.9331L 159.241 98.6479L 159.241 99.1245L 159.241 99.6011L 159.48 100.078L 159.48 100.316L 159.718 100.792L 159.718 101.031L 159.956 101.269L 159.956 101.269L 159.956 101.507L 160.194 101.507L 160.194 101.269L 160.433 101.269L 160.433 101.031L 160.433 100.792L 160.671 100.554L 160.671 100.316L 160.909 99.8393L 160.909 99.3628L 161.147 98.8862L 161.147 98.4096L 161.147 97.6948L 161.386 97.2182L 161.386 96.5034L 161.624 96.0268L 161.624 95.312L 161.624 94.5971L 161.862 94.1206L 161.862 93.4057L 161.862 92.6909L 162.101 92.2143L 162.101 91.7378L 162.339 91.0229L 162.339 90.5464L 162.339 90.0698L 162.577 89.8315L 162.577 89.355L 162.815 89.1167L 162.815 88.8784L 162.815 88.6401L 163.054 88.6401L 163.054 88.6401L 163.292 88.6401L 163.292 88.6401L 163.53 88.8784L 163.53 89.1167L 163.53 89.355L 163.769 89.5932L 163.769 90.0698L 164.007 90.5464L 164.007 91.0229L 164.007 91.4995L 164.245 91.9761L 164.245 92.4526L 164.483 93.1675L 164.483 93.8823L 164.722 94.3589L 164.722 95.0737L 164.722 95.7885L 164.96 96.2651L 164.96 96.98L 165.198 97.4565L 165.198 98.1714L 165.198 98.6479L 165.437 99.1245L 165.437 99.6011L 165.675 100.078L 165.675 100.316L 165.675 100.792L 165.913 101.031L 165.913 101.269L 165.913 101.269L 166.151 101.507L 166.39 101.507L 166.39 101.269L 166.39 101.269L 166.628 101.031L 166.628 100.792L 166.628 100.554L 166.866 100.078L 166.866 99.8393L 167.105 99.3628L 167.105 98.8862L 167.105 98.1714L 167.343 97.6948L 167.343 97.2182L 167.581 96.5034L 167.581 95.7885L 167.819 95.312L 167.819 94.5971L 167.819 93.8823L 168.058 93.4057L 168.058 92.6909L 168.296 92.2143L 168.296 91.4995L 168.296 91.0229L 168.534 90.5464L 168.534 90.0698L 168.773 89.8315L 168.773 89.355L 169.011 89.1167L 169.011 88.8784L 169.011 88.6401L 169.249 88.6401L 169.249 88.6401L 169.487 88.6401L 169.487 88.6401L 169.487 88.8784L 169.726 89.1167L 169.726 89.355L 169.964 89.5932L 169.964 90.0698L 170.202 90.5464L 170.202 91.0229L 170.202 91.4995L 170.202 91.9761L 170.44 92.6909L 170.44 93.1675L 170.679 93.8823L 170.679 94.5971L 170.679 95.0737L 170.917 95.7885L 170.917 96.5034L 171.155 96.98L 171.155 97.6948L 171.394 98.1714L 171.394 98.8862L 171.394 99.3628L 171.632 99.8393L 171.632 100.078L 171.87 100.554L 171.87 100.792L 172.108 101.031L 172.108 101.269L 172.108 101.269L 172.347 101.507L 172.347 101.507L 172.585 101.269L 172.585 101.269L 172.585 101.031L 172.823 100.792L 172.823 100.554L 173.062 100.078L 173.062 99.6011L 173.3 99.1245L 173.3 98.6479L 173.3 98.1714L 173.538 97.6948L 173.538 96.98L 173.776 96.5034L 173.776 95.7885L 173.776 95.0737L 174.015 94.5971L 174.015 93.8823L 174.015 93.1675L 174.253 92.6909L 174.491 91.9761L 174.491 91.4995L 174.491 91.0229L 174.73 90.5464L 174.73 90.0698L 174.73 89.5932L 174.968 89.355L 174.968 89.1167L 174.968 88.8784L 175.206 88.6401L 175.206 88.6401L 175.444 88.6401L 175.444 88.6401L 175.683 88.6401L 175.683 88.8784L 175.683 89.1167L 175.921 89.355L 175.921 89.8315L 176.159 90.0698L 176.159 90.5464L 176.159 91.0229L 176.397 91.4995L 176.397 92.2143L 176.636 92.6909L 176.636 93.4057L 176.874 93.8823L 176.874 94.5971L 176.874 95.312L 177.112 97.2221"/>
<path style="stroke:#000000; stroke-width:0.799705; fill:none" d="M 143.624 85.5698L 143.624 102.788"/>
<path style="stroke:#000000; stroke-width:0.799705; fill:none" d="M 143.624 102.788L 178.062 102.788"/>
</g>
</svg>