<?xml version="1.0" encoding="UTF-8" standalone="no"?>
<svg
   xmlns:dc="http://purl.org/dc/elements/1.1/"
   xmlns:cc="http://creativecommons.org/ns#"
   xmlns:rdf="http://www.w3.org/1999/02/22-rdf-syntax-ns#"
   xmlns:svg="http://www.w3.org/2000/svg"
   xmlns="http://www.w3.org/2000/svg"
   xmlns:sodipodi="http://sodipodi.sourceforge.net/DTD/sodipodi-0.dtd"
   xmlns:inkscape="http://www.inkscape.org/namespaces/inkscape"
   version="1.1"
   width="400px"
   height="400px"
   viewBox="0 0 1000.0 1000.0"
   id="svg2"
   inkscape:version="0.48.2 r9819"
   sodipodi:docname="fig_neuron_spiking.svg">
  <metadata
     id="metadata114">
    <rdf:RDF>
      <cc:Work
         rdf:about="">
        <dc:format>image/svg+xml</dc:format>
        <dc:type
           rdf:resource="http://purl.org/dc/dcmitype/StillImage" />
      </cc:Work>
    </rdf:RDF>
  </metadata>
  <defs
     id="defs112" />
  <sodipodi:namedview
     pagecolor="#ffffff"
     bordercolor="#666666"
     borderopacity="1"
     objecttolerance="10"
     gridtolerance="10"
     guidetolerance="10"
     inkscape:pageopacity="0"
     inkscape:pageshadow="2"
     inkscape:window-width="1521"
     inkscape:window-height="1108"
     id="namedview110"
     showgrid="false"
     inkscape:zoom="2.225"
     inkscape:cx="200"
     inkscape:cy="217.97753"
     inkscape:window-x="118"
     inkscape:window-y="0"
     inkscape:window-maximized="0"
     inkscape:current-layer="svg2" />
  <rect
     style="fill:#ffffff;fill-opacity:1;fill-rule:nonzero;stroke:#ffffff;stroke-width:0.61482424;stroke-linejoin:round;stroke-miterlimit:4;stroke-opacity:1;stroke-dasharray:0.61482424, 0.61482424;stroke-dashoffset:0"
     id="rect3091"
     width="1181.2114"
     height="919.39441"
     x="-81.21138"
     y="-0.29326531" />
  <path
     stroke="#000000"
     stroke-width="2"
     fill="none"
     d="M 27.2,806.7 L 27.2,117.5 L 1061.1,117.5 L 1061.1,806.7 L 27.2,806.7 "
     id="path4" />
  <text
     style="font-size:34.90000153px;text-anchor:middle;fill:#000000;font-family:Arial"
     id="text8"
     font-size="34.9"
     y="899.79999"
     x="544.09998">cycle</text>
  <text
     style="font-size:34.90000153px;text-anchor:middle;fill:#000000;font-family:Arial"
     id="text10"
     font-size="34.9"
     y="865.29999"
     x="27.200001">0</text>
  <text
     style="font-size:34.90000153px;text-anchor:middle;fill:#000000;font-family:Arial"
     id="text12"
     font-size="34.9"
     y="865.29999"
     x="130.60001">20</text>
  <text
     style="font-size:34.90000153px;text-anchor:middle;fill:#000000;font-family:Arial"
     id="text14"
     font-size="34.9"
     y="865.29999"
     x="234">40</text>
  <text
     style="font-size:34.90000153px;text-anchor:middle;fill:#000000;font-family:Arial"
     id="text16"
     font-size="34.9"
     y="865.29999"
     x="337.29999">60</text>
  <text
     style="font-size:34.90000153px;text-anchor:middle;fill:#000000;font-family:Arial"
     id="text18"
     font-size="34.9"
     y="865.29999"
     x="440.70001">80</text>
  <text
     style="font-size:34.90000153px;text-anchor:middle;fill:#000000;font-family:Arial"
     id="text20"
     font-size="34.9"
     y="865.29999"
     x="544.09998">100</text>
  <text
     style="font-size:34.90000153px;text-anchor:middle;fill:#000000;font-family:Arial"
     id="text22"
     font-size="34.9"
     y="865.29999"
     x="647.5">120</text>
  <text
     style="font-size:34.90000153px;text-anchor:middle;fill:#000000;font-family:Arial"
     id="text24"
     font-size="34.9"
     y="865.29999"
     x="750.90002">140</text>
  <text
     style="font-size:34.90000153px;text-anchor:middle;fill:#000000;font-family:Arial"
     id="text26"
     font-size="34.9"
     y="865.29999"
     x="854.29999">160</text>
  <text
     style="font-size:34.90000153px;text-anchor:middle;fill:#000000;font-family:Arial"
     id="text28"
     font-size="34.9"
     y="865.29999"
     x="957.70001">180</text>
  <text
     style="font-size:34.90000153px;text-anchor:middle;fill:#000000;font-family:Arial"
     id="text30"
     font-size="34.9"
     y="865.29999"
     x="1061.1">200</text>
  <path
     style="fill:none;stroke:#000000;stroke-width:2"
     inkscape:connector-curvature="0"
     id="path32"
     d="m 27.2,806.7 1033.9,0 M 27.2,824 l 0,-34.5 m 103.4,34.5 0,-34.5 M 234,824 l 0,-34.5 m 103.3,34.5 0,-34.5 m 103.4,34.5 0,-34.5 m 103.4,34.5 0,-34.5 m 103.4,34.5 0,-34.5 m 103.4,34.5 0,-34.5 m 103.4,34.5 0,-34.5 m 103.4,34.5 0,-34.5 m 103.4,34.5 0,-34.5" />
  <path
     style="fill:none;stroke:#000000;stroke-width:2"
     inkscape:connector-curvature="0"
     id="path34"
     d="m 27.2,117.5 1033.9,0 m -1033.9,17.2 0,-34.5 m 103.4,34.5 0,-34.5 m 103.4,34.5 0,-34.5 m 103.3,34.5 0,-34.5 m 103.4,34.5 0,-34.5 m 103.4,34.5 0,-34.5 m 103.4,34.5 0,-34.5 m 103.4,34.5 0,-34.5 m 103.4,34.5 0,-34.5 m 103.4,34.5 0,-34.5 m 103.4,34.5 0,-34.5" />
  <text
     style="font-size:34.90000153px;text-anchor:end;fill:#000000;font-family:Arial"
     id="text38"
     font-size="34.9"
     y="757.79999"
     x="3.0999999">0</text>
  <text
     style="font-size:34.90000153px;text-anchor:end;fill:#000000;font-family:Arial"
     id="text40"
     font-size="34.9"
     y="632.5"
     x="3.0999999">0.2</text>
  <text
     style="font-size:34.90000153px;text-anchor:end;fill:#000000;font-family:Arial"
     id="text42"
     font-size="34.9"
     y="507.20001"
     x="3.0999999">0.4</text>
  <text
     style="font-size:34.90000153px;text-anchor:end;fill:#000000;font-family:Arial"
     id="text44"
     font-size="34.9"
     y="381.89999"
     x="3.0999999">0.6</text>
  <text
     style="font-size:34.90000153px;text-anchor:end;fill:#000000;font-family:Arial"
     id="text46"
     font-size="34.9"
     y="256.60001"
     x="3.0999999">0.8</text>
  <text
     style="font-size:34.90000153px;text-anchor:end;fill:#000000;font-family:Arial"
     id="text48"
     font-size="34.9"
     y="131.2"
     x="3.0999999">1</text>
  <path
     style="fill:none;stroke:#000000;stroke-width:2"
     inkscape:connector-curvature="0"
     id="path50"
     d="m 27.2,806.7 0,-689.2 m -17.3,626.6 34.5,0 M 9.9,618.7 l 34.5,0 M 9.9,493.4 l 34.5,0 M 9.9,368.1 l 34.5,0 M 9.9,242.8 l 34.5,0 M 9.9,117.5 l 34.5,0" />
  <path
     style="fill:none;stroke:#000000;stroke-width:2"
     inkscape:connector-curvature="0"
     id="path52"
     d="m 1061.1,806.7 0,-689.2 m -17.3,626.6 34.5,0 m -34.5,-125.4 34.5,0 m -34.5,-125.3 34.5,0 m -34.5,-125.3 34.5,0 m -34.5,-125.3 34.5,0 m -34.5,-125.3 34.5,0" />
  <g
     transform="translate(0.0,-785.2)"
     id="g54">
    <g
       transform="translate(0.0,-0.0)"
       id="g56">
      <path
         stroke="#000000"
         stroke-width="4"
         fill="none"
         d="M 27.2,806.7 L 68.5,806.7 "
         id="path58" />
      <text
         x="75.4"
         y="820.5"
         font-family="Arial"
         font-size="34.9"
         fill="#000000"
         text-anchor="start"
         id="text60">
net
</text>
    </g>
    <g
       transform="translate(0.0,38.4)"
       id="g62">
      <path
         stroke="#ff0000"
         stroke-width="4"
         fill="none"
         d="M 27.2,806.7 L 68.5,806.7 "
         id="path64" />
      <text
         x="75.4"
         y="820.5"
         font-family="Arial"
         font-size="34.9"
         fill="#ff0000"
         text-anchor="start"
         id="text66">
I net
</text>
    </g>
    <g
       transform="translate(345.5,-0.0)"
       id="g68">
      <path
         stroke="#0000ff"
         stroke-width="4"
         fill="none"
         d="M 27.2,806.7 L 68.5,806.7 "
         id="path70" />
      <text
         x="75.4"
         y="820.5"
         font-family="Arial"
         font-size="34.9"
         fill="#0000ff"
         text-anchor="start"
         id="text72">
v m
</text>
    </g>
    <g
       transform="translate(345.5,38.4)"
       id="g74">
      <path
         stroke="#00cd00"
         stroke-width="4"
         fill="none"
         d="M 27.2,806.7 L 68.5,806.7 "
         id="path76" />
      <text
         x="75.4"
         y="820.5"
         font-family="Arial"
         font-size="34.9"
         fill="#00cd00"
         text-anchor="start"
         id="text78">
act
</text>
    </g>
    <g
       transform="translate(690.9,-0.0)"
       id="g80">
      <path
         stroke="#a020f0"
         stroke-width="4"
         fill="none"
         d="M 27.2,806.7 L 68.5,806.7 "
         id="path82" />
      <text
         x="75.4"
         y="820.5"
         font-family="Arial"
         font-size="34.9"
         fill="#a020f0"
         text-anchor="start"
         id="text84">
act eq
</text>
    </g>
    <g
       transform="translate(690.9,38.4)"
       id="g86">
      <path
         stroke="#ffa500"
         stroke-width="4"
         fill="none"
         d="M 27.2,806.7 L 68.5,806.7 "
         id="path88" />
      <text
         x="75.4"
         y="820.5"
         font-family="Arial"
         font-size="34.9"
         fill="#ffa500"
         text-anchor="start"
         id="text90">
adapt
</text>
    </g>
  </g>
  <g
     id="g92">
    <path
       stroke="#000000"
       stroke-width="4"
       fill="none"
       d="M 27.2,744.1  L 32.3,744.1 L 37.5,744.1 L 42.7,744.1 L 47.9,744.1 L 53.0,744.1 L 58.2,744.1 L 63.4,744.1 L 68.5,744.1 L 73.7,744.1 L 78.9,581.1  L 84.0,568.6 L 89.2,556.1 L 94.4,556.1 L 99.6,556.1 L 104.7,556.1 L 109.9,556.1 L 115.1,556.1 L 120.2,556.1 L 125.4,556.1 L 130.6,556.1  L 135.7,556.1 L 140.9,556.1 L 146.1,556.1 L 151.2,556.1 L 156.4,556.1 L 161.6,556.1 L 166.8,556.1 L 171.9,556.1 L 177.1,556.1 L 182.3,556.1  L 187.4,556.1 L 192.6,556.1 L 197.8,556.1 L 202.9,556.1 L 208.1,556.1 L 213.3,556.1 L 218.4,556.1 L 223.6,556.1 L 228.8,556.1 L 234.0,556.1  L 239.1,556.1 L 244.3,556.1 L 249.5,556.1 L 254.6,556.1 L 259.8,556.1 L 265.0,556.1 L 270.1,556.1 L 275.3,556.1 L 280.5,556.1 L 285.7,556.1  L 290.8,556.1 L 296.0,556.1 L 301.2,556.1 L 306.3,556.1 L 311.5,556.1 L 316.7,556.1 L 321.8,556.1 L 327.0,556.1 L 332.2,556.1 L 337.3,556.1  L 342.5,556.1 L 347.7,556.1 L 352.9,556.1 L 358.0,556.1 L 363.2,556.1 L 368.4,556.1 L 373.5,556.1 L 378.7,556.1 L 383.9,556.1 L 389.0,556.1  L 394.2,556.1 L 399.4,556.1 L 404.6,556.1 L 409.7,556.1 L 414.9,556.1 L 420.1,556.1 L 425.2,556.1 L 430.4,556.1 L 435.6,556.1 L 440.7,556.1  L 445.9,556.1 L 451.1,556.1 L 456.2,556.1 L 461.4,556.1 L 466.6,556.1 L 471.8,556.1 L 476.9,556.1 L 482.1,556.1 L 487.3,556.1 L 492.4,556.1  L 497.6,556.1 L 502.8,556.1 L 507.9,556.1 L 513.1,556.1 L 518.3,556.1 L 523.5,556.1 L 528.6,556.1 L 533.8,556.1 L 539.0,556.1 L 544.1,556.1  L 549.3,556.1 L 554.5,556.1 L 559.6,556.1 L 564.8,556.1 L 570.0,556.1 L 575.1,556.1 L 580.3,556.1 L 585.5,556.1 L 590.7,556.1 L 595.8,556.1  L 601.0,556.1 L 606.2,556.1 L 611.3,556.1 L 616.5,556.1 L 621.7,556.1 L 626.8,556.1 L 632.0,556.1 L 637.2,556.1 L 642.3,556.1 L 647.5,556.1  L 652.7,556.1 L 657.9,556.1 L 663.0,556.1 L 668.2,556.1 L 673.4,556.1 L 678.5,556.1 L 683.7,556.1 L 688.9,556.1 L 694.0,556.1 L 699.2,556.1  L 704.4,556.1 L 709.6,556.1 L 714.7,556.1 L 719.9,556.1 L 725.1,556.1 L 730.2,556.1 L 735.4,556.1 L 740.6,556.1 L 745.7,556.1 L 750.9,556.1  L 756.1,556.1 L 761.2,556.1 L 766.4,556.1 L 771.6,556.1 L 776.8,556.1 L 781.9,556.1 L 787.1,556.1 L 792.3,556.1 L 797.4,556.1 L 802.6,556.1  L 807.8,556.1 L 812.9,556.1 L 818.1,556.1 L 823.3,556.1 L 828.5,556.1 L 833.6,556.1 L 838.8,556.1 L 844.0,556.1 L 849.1,556.1 L 854.3,719.0  L 859.5,731.5 L 864.6,744.1 L 869.8,744.1 L 875.0,744.1 L 880.1,744.1 L 885.3,744.1 L 890.5,744.1 L 895.7,744.1 L 900.8,744.1 L 906.0,744.1  L 911.2,744.1 L 916.3,744.1 L 921.5,744.1 L 926.7,744.1 L 931.8,744.1 L 937.0,744.1 L 942.2,744.1 L 947.3,744.1 L 952.5,744.1 L 957.7,744.1  L 962.9,744.1 L 968.0,744.1 L 973.2,744.1 L 978.4,744.1 L 983.5,744.1 L 988.7,744.1 L 993.9,744.1 L 999.0,744.1 L 1004.2,744.1 L 1009.4,744.1  L 1014.6,744.1 L 1019.7,744.1 L 1024.9,744.1 L 1030.1,744.1 L 1035.2,744.1 L 1040.4,744.1 L 1045.6,744.1 L 1050.7,744.1 L 1055.9,744.1 "
       id="path94" />
    <path
       stroke="#ff0000"
       stroke-width="4"
       fill="none"
       d="M 27.2,744.1  L 32.3,744.1 L 37.5,744.1 L 42.7,744.1 L 47.9,744.1 L 53.0,744.1 L 58.2,744.1 L 63.4,744.1 L 68.5,744.1 L 73.7,744.1 L 78.9,639.6  L 84.0,648.5 L 89.2,657.0 L 94.4,670.9 L 99.6,681.2 L 104.7,685.3 L 109.9,673.6 L 115.1,577.5 L 120.2,117.5 L 125.4,624.3 L 130.6,643.1  L 135.7,658.7 L 140.9,671.4 L 146.1,680.9 L 151.2,685.3 L 156.4,678.5 L 161.6,626.9 L 166.8,117.5 L 171.9,117.5 L 177.1,624.3 L 182.3,642.2  L 187.4,657.2 L 192.6,669.4 L 197.8,678.9 L 202.9,684.6 L 208.1,683.7 L 213.3,664.5 L 218.4,530.1 L 223.6,117.5 L 228.8,624.3 L 234.0,641.5  L 239.1,655.8 L 244.3,667.6 L 249.5,676.9 L 254.6,683.3 L 259.8,685.3 L 265.0,678.1 L 270.1,638.2 L 275.3,199.7 L 280.5,117.5 L 285.7,624.3  L 290.8,640.8 L 296.0,654.5 L 301.2,665.9 L 306.3,675.0 L 311.5,681.7 L 316.7,685.2 L 321.8,683.4 L 327.0,668.6 L 332.2,589.1 L 337.3,117.5  L 342.5,624.3 L 347.7,640.1 L 352.9,653.3 L 358.0,664.3 L 363.2,673.2 L 368.4,680.0 L 373.5,684.3 L 378.7,685.1 L 383.9,679.5 L 389.0,654.4  L 394.2,486.8 L 399.4,117.5 L 404.6,624.3 L 409.7,639.5 L 414.9,652.3 L 420.1,662.9 L 425.2,671.6 L 430.4,678.3 L 435.6,683.1 L 440.7,685.3  L 445.9,683.7 L 451.1,673.9 L 456.2,633.0 L 461.4,221.3 L 466.6,117.5 L 471.8,624.3 L 476.9,639.0 L 482.1,651.4 L 487.3,661.6 L 492.4,670.1  L 497.6,676.8 L 502.8,681.8 L 507.9,684.7 L 513.1,685.1 L 518.3,681.2 L 523.5,666.1 L 528.6,597.5 L 533.8,117.5 L 539.0,624.3 L 544.1,638.6  L 549.3,650.5 L 554.5,660.5 L 559.6,668.7 L 564.8,675.4 L 570.0,680.4 L 575.1,683.8 L 580.3,685.3 L 585.5,684.1 L 590.7,677.7 L 595.8,655.6  L 601.0,533.5 L 606.2,117.5 L 611.3,624.3 L 616.5,638.2 L 621.7,649.8 L 626.8,659.5 L 632.0,667.6 L 637.2,674.1 L 642.3,679.2 L 647.5,682.9  L 652.7,685.0 L 657.9,685.2 L 663.0,682.3 L 668.2,672.7 L 673.4,638.3 L 678.5,369.0 L 683.7,117.5 L 688.9,624.3 L 694.0,637.9 L 699.2,649.2  L 704.4,658.7 L 709.6,666.6 L 714.7,673.0 L 719.9,678.1 L 725.1,681.9 L 730.2,684.4 L 735.4,685.4 L 740.6,684.3 L 745.7,679.4 L 750.9,664.6  L 756.1,603.2 L 761.2,117.5 L 766.4,117.5 L 771.6,624.3 L 776.8,637.6 L 781.9,648.7 L 787.1,658.0 L 792.3,665.8 L 797.4,672.1 L 802.6,677.2  L 807.8,681.1 L 812.9,683.8 L 818.1,685.2 L 823.3,685.1 L 828.5,682.5 L 833.6,674.6 L 838.8,649.8 L 844.0,508.6 L 849.1,117.5 L 854.3,727.4  L 859.5,733.6 L 864.6,739.5 L 869.8,736.5 L 875.0,733.8 L 880.1,731.3 L 885.3,729.1 L 890.5,727.1 L 895.7,725.3 L 900.8,723.6 L 906.0,722.2  L 911.2,720.9 L 916.3,719.7 L 921.5,718.6 L 926.7,717.7 L 931.8,716.8 L 937.0,716.1 L 942.2,715.4 L 947.3,714.9 L 952.5,714.4 L 957.7,713.9  L 962.9,713.6 L 968.0,713.3 L 973.2,713.0 L 978.4,712.8 L 983.5,712.6 L 988.7,712.4 L 993.9,712.3 L 999.0,712.3 L 1004.2,712.2 L 1009.4,712.2  L 1014.6,712.2 L 1019.7,712.2 L 1024.9,712.3 L 1030.1,712.3 L 1035.2,712.4 L 1040.4,712.5 L 1045.6,712.6 L 1050.7,712.7 L 1055.9,712.9 "
       id="path96" />
    <path
       stroke="#ff0000"
       stroke-width="4"
       fill="none"
       d="M 113.3,117.5 L 127.1,117.5 L 120.2,117.5 L 120.2,124.3 L 120.2,110.6 L 120.2,117.5 L 113.3,110.6 L 127.1,124.3 L 120.2,117.5 L 127.1,110.6 L 113.3,124.3 M 159.9,117.5 L 173.6,117.5 L 166.8,117.5 L 166.8,124.3 L 166.8,110.6 L 166.8,117.5 L 159.9,110.6 L 173.6,124.3 L 166.8,117.5 L 173.6,110.6 L 159.9,124.3 M 165.0,117.5 L 178.8,117.5 L 171.9,117.5 L 171.9,124.3 L 171.9,110.6 L 171.9,117.5 L 165.0,110.6 L 178.8,124.3 L 171.9,117.5 L 178.8,110.6 L 165.0,124.3 M 216.7,117.5 L 230.5,117.5 L 223.6,117.5 L 223.6,124.3 L 223.6,110.6 L 223.6,117.5 L 216.7,110.6 L 230.5,124.3 L 223.6,117.5 L 230.5,110.6 L 216.7,124.3 M 273.6,117.5 L 287.4,117.5 L 280.5,117.5 L 280.5,124.3 L 280.5,110.6 L 280.5,117.5 L 273.6,110.6 L 287.4,124.3 L 280.5,117.5 L 287.4,110.6 L 273.6,124.3 M 330.5,117.5 L 344.2,117.5 L 337.3,117.5 L 337.3,124.3 L 337.3,110.6 L 337.3,117.5 L 330.5,110.6 L 344.2,124.3 L 337.3,117.5 L 344.2,110.6 L 330.5,124.3 M 392.5,117.5 L 406.3,117.5 L 399.4,117.5 L 399.4,124.3 L 399.4,110.6 L 399.4,117.5 L 392.5,110.6 L 406.3,124.3 L 399.4,117.5 L 406.3,110.6 L 392.5,124.3 M 459.7,117.5 L 473.5,117.5 L 466.6,117.5 L 466.6,124.3 L 466.6,110.6 L 466.6,117.5 L 459.7,110.6 L 473.5,124.3 L 466.6,117.5 L 473.5,110.6 L 459.7,124.3 M 526.9,117.5 L 540.7,117.5 L 533.8,117.5 L 533.8,124.3 L 533.8,110.6 L 533.8,117.5 L 526.9,110.6 L 540.7,124.3 L 533.8,117.5 L 540.7,110.6 L 526.9,124.3 M 599.3,117.5 L 613.1,117.5 L 606.2,117.5 L 606.2,124.3 L 606.2,110.6 L 606.2,117.5 L 599.3,110.6 L 613.1,124.3 L 606.2,117.5 L 613.1,110.6 L 599.3,124.3 M 676.8,117.5 L 690.6,117.5 L 683.7,117.5 L 683.7,124.3 L 683.7,110.6 L 683.7,117.5 L 676.8,110.6 L 690.6,124.3 L 683.7,117.5 L 690.6,110.6 L 676.8,124.3 M 754.4,117.5 L 768.1,117.5 L 761.2,117.5 L 761.2,124.3 L 761.2,110.6 L 761.2,117.5 L 754.4,110.6 L 768.1,124.3 L 761.2,117.5 L 768.1,110.6 L 754.4,124.3 M 759.5,117.5 L 773.3,117.5 L 766.4,117.5 L 766.4,124.3 L 766.4,110.6 L 766.4,117.5 L 759.5,110.6 L 773.3,124.3 L 766.4,117.5 L 773.3,110.6 L 759.5,124.3 M 842.2,117.5 L 856.0,117.5 L 849.1,117.5 L 849.1,124.3 L 849.1,110.6 L 849.1,117.5 L 842.2,110.6 L 856.0,124.3 L 849.1,117.5 L 856.0,110.6 L 842.2,124.3 "
       id="path98" />
    <path
       stroke="#0000ff"
       stroke-width="4"
       fill="none"
       d="M 27.2,556.1  L 32.3,556.1 L 37.5,556.1 L 42.7,556.1 L 47.9,556.1 L 53.0,556.1 L 58.2,556.1 L 63.4,556.1 L 68.5,556.1 L 73.7,556.1 L 78.9,524.7  L 84.0,496.1 L 89.2,470.0 L 94.4,448.0 L 99.6,429.2 L 104.7,411.6 L 109.9,390.5 L 115.1,340.6 L 120.2,556.1 L 125.4,521.7 L 130.6,493.0  L 135.7,469.0 L 140.9,448.8 L 146.1,431.4 L 151.2,415.3 L 156.4,397.3 L 161.6,363.7 L 166.8,117.5 L 171.9,556.1 L 177.1,523.3 L 182.3,495.8  L 187.4,472.8 L 192.6,453.5 L 197.8,437.0 L 202.9,422.2 L 208.1,407.1 L 213.3,386.3 L 218.4,325.1 L 223.6,556.1 L 228.8,524.7 L 234.0,498.4  L 239.1,476.3 L 244.3,457.8 L 249.5,442.1 L 254.6,428.2 L 259.8,414.9 L 265.0,399.5 L 270.1,372.0 L 275.3,213.0 L 280.5,556.1 L 285.7,525.9  L 290.8,500.7 L 296.0,479.6 L 301.2,461.8 L 306.3,446.7 L 311.5,433.6 L 316.7,421.6 L 321.8,408.9 L 327.0,391.8 L 332.2,350.8 L 337.3,556.1  L 342.5,527.1 L 347.7,502.9 L 352.9,482.5 L 358.0,465.4 L 363.2,451.0 L 368.4,438.5 L 373.5,427.3 L 378.7,416.3 L 383.9,403.6 L 389.0,383.3  L 394.2,312.7 L 399.4,556.1 L 404.6,528.2 L 409.7,504.8 L 414.9,485.2 L 420.1,468.7 L 425.2,454.8 L 430.4,442.8 L 435.6,432.2 L 440.7,422.3  L 445.9,411.8 L 451.1,398.4 L 456.2,372.6 L 461.4,223.3 L 466.6,556.1 L 471.8,529.1 L 476.9,506.5 L 482.1,487.5 L 487.3,471.6 L 492.4,458.1  L 497.6,446.6 L 502.8,436.5 L 507.9,427.3 L 513.1,418.2 L 518.3,407.8 L 523.5,392.8 L 528.6,357.3 L 533.8,556.1 L 539.0,530.0 L 544.1,508.0  L 549.3,489.6 L 554.5,474.2 L 559.6,461.1 L 564.8,450.0 L 570.0,440.3 L 575.1,431.6 L 580.3,423.3 L 585.5,414.6 L 590.7,403.9 L 595.8,386.5  L 601.0,332.5 L 606.2,556.1 L 611.3,530.7 L 616.5,509.3 L 621.7,491.4 L 626.8,476.4 L 632.0,463.7 L 637.2,452.9 L 642.3,443.5 L 647.5,435.2  L 652.7,427.5 L 657.9,419.7 L 663.0,411.1 L 668.2,399.5 L 673.4,377.5 L 678.5,274.7 L 683.7,556.1 L 688.9,531.3 L 694.0,510.4 L 699.2,492.9  L 704.4,478.2 L 709.6,465.8 L 714.7,455.3 L 719.9,446.2 L 725.1,438.1 L 730.2,430.8 L 735.4,423.7 L 740.6,416.2 L 745.7,407.1 L 750.9,393.6  L 756.1,361.6 L 761.2,117.5 L 766.4,556.1 L 771.6,531.8 L 776.8,511.4 L 781.9,494.2 L 787.1,479.8 L 792.3,467.6 L 797.4,457.2 L 802.6,448.3  L 807.8,440.5 L 812.9,433.5 L 818.1,426.8 L 823.3,420.0 L 828.5,412.3 L 833.6,402.3 L 838.8,384.7 L 844.0,324.7 L 849.1,556.1 L 854.3,563.1  L 859.5,571.9 L 864.6,582.4 L 869.8,591.9 L 875.0,600.5 L 880.1,608.3 L 885.3,615.3 L 890.5,621.7 L 895.7,627.4 L 900.8,632.5 L 906.0,637.1  L 911.2,641.2 L 916.3,644.9 L 921.5,648.2 L 926.7,651.1 L 931.8,653.7 L 937.0,656.0 L 942.2,658.0 L 947.3,659.7 L 952.5,661.2 L 957.7,662.5  L 962.9,663.6 L 968.0,664.6 L 973.2,665.3 L 978.4,666.0 L 983.5,666.4 L 988.7,666.8 L 993.9,667.1 L 999.0,667.2 L 1004.2,667.3 L 1009.4,667.3  L 1014.6,667.2 L 1019.7,667.0 L 1024.9,666.8 L 1030.1,666.6 L 1035.2,666.2 L 1040.4,665.9 L 1045.6,665.5 L 1050.7,665.0 L 1055.9,664.5 "
       id="path100" />
    <path
       stroke="#0000ff"
       stroke-width="4"
       fill="none"
       d="M 159.9,117.5 L 173.6,117.5 L 166.8,117.5 L 166.8,124.3 L 166.8,110.6 L 166.8,117.5 L 159.9,110.6 L 173.6,124.3 L 166.8,117.5 L 173.6,110.6 L 159.9,124.3 M 754.4,117.5 L 768.1,117.5 L 761.2,117.5 L 761.2,124.3 L 761.2,110.6 L 761.2,117.5 L 754.4,110.6 L 768.1,124.3 L 761.2,117.5 L 768.1,110.6 L 754.4,124.3 "
       id="path102" />
    <path
       stroke="#00cd00"
       stroke-width="4"
       fill="none"
       d="M 27.2,744.1  L 32.3,744.1 L 37.5,744.1 L 42.7,744.1 L 47.9,744.1 L 53.0,744.1 L 58.2,744.1 L 63.4,744.1 L 68.5,744.1 L 73.7,744.1 L 78.9,744.1  L 84.0,744.1 L 89.2,744.1 L 94.4,744.1 L 99.6,744.1 L 104.7,744.1 L 109.9,744.1 L 115.1,744.1 L 120.2,117.5 L 125.4,744.1 L 130.6,744.1  L 135.7,744.1 L 140.9,744.1 L 146.1,744.1 L 151.2,744.1 L 156.4,744.1 L 161.6,744.1 L 166.8,744.1 L 171.9,117.5 L 177.1,744.1 L 182.3,744.1  L 187.4,744.1 L 192.6,744.1 L 197.8,744.1 L 202.9,744.1 L 208.1,744.1 L 213.3,744.1 L 218.4,744.1 L 223.6,117.5 L 228.8,744.1 L 234.0,744.1  L 239.1,744.1 L 244.3,744.1 L 249.5,744.1 L 254.6,744.1 L 259.8,744.1 L 265.0,744.1 L 270.1,744.1 L 275.3,744.1 L 280.5,117.5 L 285.7,744.1  L 290.8,744.1 L 296.0,744.1 L 301.2,744.1 L 306.3,744.1 L 311.5,744.1 L 316.7,744.1 L 321.8,744.1 L 327.0,744.1 L 332.2,744.1 L 337.3,117.5  L 342.5,744.1 L 347.7,744.1 L 352.9,744.1 L 358.0,744.1 L 363.2,744.1 L 368.4,744.1 L 373.5,744.1 L 378.7,744.1 L 383.9,744.1 L 389.0,744.1  L 394.2,744.1 L 399.4,117.5 L 404.6,744.1 L 409.7,744.1 L 414.9,744.1 L 420.1,744.1 L 425.2,744.1 L 430.4,744.1 L 435.6,744.1 L 440.7,744.1  L 445.9,744.1 L 451.1,744.1 L 456.2,744.1 L 461.4,744.1 L 466.6,117.5 L 471.8,744.1 L 476.9,744.1 L 482.1,744.1 L 487.3,744.1 L 492.4,744.1  L 497.6,744.1 L 502.8,744.1 L 507.9,744.1 L 513.1,744.1 L 518.3,744.1 L 523.5,744.1 L 528.6,744.1 L 533.8,117.5 L 539.0,744.1 L 544.1,744.1  L 549.3,744.1 L 554.5,744.1 L 559.6,744.1 L 564.8,744.1 L 570.0,744.1 L 575.1,744.1 L 580.3,744.1 L 585.5,744.1 L 590.7,744.1 L 595.8,744.1  L 601.0,744.1 L 606.2,117.5 L 611.3,744.1 L 616.5,744.1 L 621.7,744.1 L 626.8,744.1 L 632.0,744.1 L 637.2,744.1 L 642.3,744.1 L 647.5,744.1  L 652.7,744.1 L 657.9,744.1 L 663.0,744.1 L 668.2,744.1 L 673.4,744.1 L 678.5,744.1 L 683.7,117.5 L 688.9,744.1 L 694.0,744.1 L 699.2,744.1  L 704.4,744.1 L 709.6,744.1 L 714.7,744.1 L 719.9,744.1 L 725.1,744.1 L 730.2,744.1 L 735.4,744.1 L 740.6,744.1 L 745.7,744.1 L 750.9,744.1  L 756.1,744.1 L 761.2,744.1 L 766.4,117.5 L 771.6,744.1 L 776.8,744.1 L 781.9,744.1 L 787.1,744.1 L 792.3,744.1 L 797.4,744.1 L 802.6,744.1  L 807.8,744.1 L 812.9,744.1 L 818.1,744.1 L 823.3,744.1 L 828.5,744.1 L 833.6,744.1 L 838.8,744.1 L 844.0,744.1 L 849.1,117.5 L 854.3,744.1  L 859.5,744.1 L 864.6,744.1 L 869.8,744.1 L 875.0,744.1 L 880.1,744.1 L 885.3,744.1 L 890.5,744.1 L 895.7,744.1 L 900.8,744.1 L 906.0,744.1  L 911.2,744.1 L 916.3,744.1 L 921.5,744.1 L 926.7,744.1 L 931.8,744.1 L 937.0,744.1 L 942.2,744.1 L 947.3,744.1 L 952.5,744.1 L 957.7,744.1  L 962.9,744.1 L 968.0,744.1 L 973.2,744.1 L 978.4,744.1 L 983.5,744.1 L 988.7,744.1 L 993.9,744.1 L 999.0,744.1 L 1004.2,744.1 L 1009.4,744.1  L 1014.6,744.1 L 1019.7,744.1 L 1024.9,744.1 L 1030.1,744.1 L 1035.2,744.1 L 1040.4,744.1 L 1045.6,744.1 L 1050.7,744.1 L 1055.9,744.1 "
       id="path104" />
    <path
       stroke="#a020f0"
       stroke-width="4"
       fill="none"
       d="M 27.2,744.1  L 32.3,744.1 L 37.5,744.1 L 42.7,744.1 L 47.9,744.1 L 53.0,744.1 L 58.2,744.1 L 63.4,744.1 L 68.5,744.1 L 73.7,744.1 L 78.9,744.1  L 84.0,744.1 L 89.2,744.1 L 94.4,744.1 L 99.6,744.1 L 104.7,744.1 L 109.9,744.1 L 115.1,744.1 L 120.2,414.3 L 125.4,430.8 L 130.6,445.7  L 135.7,459.2 L 140.9,471.6 L 146.1,483.0 L 151.2,493.4 L 156.4,503.1 L 161.6,512.0 L 166.8,520.3 L 171.9,311.9 L 177.1,326.3 L 182.3,339.8  L 187.4,352.4 L 192.6,364.3 L 197.8,375.5 L 202.9,386.0 L 208.1,395.9 L 213.3,405.4 L 218.4,414.3 L 223.6,262.1 L 228.8,274.1 L 234.0,285.6  L 239.1,296.5 L 244.3,306.9 L 249.5,316.8 L 254.6,326.3 L 259.8,335.4 L 265.0,344.1 L 270.1,352.4 L 275.3,360.4 L 280.5,242.8 L 285.7,252.6  L 290.8,262.1 L 296.0,271.2 L 301.2,279.9 L 306.3,288.3 L 311.5,296.5 L 316.7,304.3 L 321.8,311.9 L 327.0,319.2 L 332.2,326.3 L 337.3,230.5  L 342.5,238.7 L 347.7,246.8 L 352.9,254.5 L 358.0,262.1 L 363.2,269.4 L 368.4,276.4 L 373.5,283.3 L 378.7,290.0 L 383.9,296.5 L 389.0,302.8  L 394.2,308.9 L 399.4,229.0 L 404.6,236.0 L 409.7,242.8 L 414.9,249.4 L 420.1,255.8 L 425.2,262.1 L 430.4,268.2 L 435.6,274.1 L 440.7,279.9  L 445.9,285.6 L 451.1,291.1 L 456.2,296.5 L 461.4,301.8 L 466.6,234.0 L 471.8,239.9 L 476.9,245.6 L 482.1,251.2 L 487.3,256.7 L 492.4,262.1  L 497.6,267.3 L 502.8,272.4 L 507.9,277.4 L 513.1,282.4 L 518.3,287.2 L 523.5,291.9 L 528.6,296.5 L 533.8,237.7 L 539.0,242.8 L 544.1,247.7  L 549.3,252.6 L 554.5,257.4 L 559.6,262.1 L 564.8,266.6 L 570.0,271.2 L 575.1,275.6 L 580.3,279.9 L 585.5,284.2 L 590.7,288.3 L 595.8,292.5  L 601.0,296.5 L 606.2,245.0 L 611.3,249.4 L 616.5,253.7 L 621.7,257.9 L 626.8,262.1 L 632.0,266.1 L 637.2,270.2 L 642.3,274.1 L 647.5,278.0  L 652.7,281.8 L 657.9,285.6 L 663.0,289.3 L 668.2,292.9 L 673.4,296.5 L 678.5,300.0 L 683.7,254.5 L 688.9,258.3 L 694.0,262.1 L 699.2,265.7  L 704.4,269.4 L 709.6,272.9 L 714.7,276.4 L 719.9,279.9 L 725.1,283.3 L 730.2,286.7 L 735.4,290.0 L 740.6,293.3 L 745.7,296.5 L 750.9,299.7  L 756.1,302.8 L 761.2,305.9 L 766.4,265.4 L 771.6,268.7 L 776.8,272.0 L 781.9,275.2 L 787.1,278.3 L 792.3,281.5 L 797.4,284.6 L 802.6,287.6  L 807.8,290.6 L 812.9,293.6 L 818.1,296.5 L 823.3,299.4 L 828.5,302.2 L 833.6,305.0 L 838.8,307.8 L 844.0,310.6 L 849.1,274.1 L 854.3,277.0  L 859.5,279.9 L 864.6,282.8 L 869.8,285.6 L 875.0,288.3 L 880.1,291.1 L 885.3,293.8 L 890.5,296.5 L 895.7,299.1 L 900.8,301.8 L 906.0,304.3  L 911.2,306.9 L 916.3,309.4 L 921.5,311.9 L 926.7,314.4 L 931.8,316.8 L 937.0,319.2 L 942.2,321.6 L 947.3,324.0 L 952.5,326.3 L 957.7,328.6  L 962.9,330.9 L 968.0,333.2 L 973.2,335.4 L 978.4,337.6 L 983.5,339.8 L 988.7,342.0 L 993.9,344.1 L 999.0,346.2 L 1004.2,348.3 L 1009.4,350.4  L 1014.6,352.4 L 1019.7,354.5 L 1024.9,356.5 L 1030.1,358.5 L 1035.2,360.4 L 1040.4,362.4 L 1045.6,364.3 L 1050.7,366.2 L 1055.9,368.1 "
       id="path106" />
    <path
       stroke="#ffa500"
       stroke-width="4"
       fill="none"
       d="M 27.2,744.1  L 32.3,744.1 L 37.5,744.1 L 42.7,744.1 L 47.9,744.1 L 53.0,744.1 L 58.2,744.1 L 63.4,744.1 L 68.5,744.1 L 73.7,744.1 L 78.9,744.1  L 84.0,744.0 L 89.2,744.0 L 94.4,744.0 L 99.6,743.9 L 104.7,743.9 L 109.9,743.9 L 115.1,743.8 L 120.2,738.8 L 125.4,738.8 L 130.6,738.8  L 135.7,738.8 L 140.9,738.8 L 146.1,738.8 L 151.2,738.8 L 156.4,738.8 L 161.6,738.8 L 166.8,738.7 L 171.9,733.7 L 177.1,733.8 L 182.3,733.8  L 187.4,733.9 L 192.6,733.9 L 197.8,733.9 L 202.9,734.0 L 208.1,734.0 L 213.3,734.0 L 218.4,734.0 L 223.6,729.1 L 228.8,729.2 L 234.0,729.2  L 239.1,729.3 L 244.3,729.4 L 249.5,729.5 L 254.6,729.5 L 259.8,729.6 L 265.0,729.7 L 270.1,729.7 L 275.3,729.7 L 280.5,724.8 L 285.7,724.9  L 290.8,725.0 L 296.0,725.1 L 301.2,725.2 L 306.3,725.3 L 311.5,725.4 L 316.7,725.5 L 321.8,725.6 L 327.0,725.7 L 332.2,725.8 L 337.3,720.8  L 342.5,721.0 L 347.7,721.2 L 352.9,721.3 L 358.0,721.4 L 363.2,721.6 L 368.4,721.7 L 373.5,721.8 L 378.7,721.9 L 383.9,722.0 L 389.0,722.1  L 394.2,722.2 L 399.4,717.3 L 404.6,717.5 L 409.7,717.7 L 414.9,717.8 L 420.1,718.0 L 425.2,718.2 L 430.4,718.3 L 435.6,718.5 L 440.7,718.6  L 445.9,718.7 L 451.1,718.9 L 456.2,719.0 L 461.4,719.1 L 466.6,714.2 L 471.8,714.4 L 476.9,714.6 L 482.1,714.8 L 487.3,715.0 L 492.4,715.1  L 497.6,715.3 L 502.8,715.5 L 507.9,715.6 L 513.1,715.8 L 518.3,716.0 L 523.5,716.1 L 528.6,716.3 L 533.8,711.4 L 539.0,711.6 L 544.1,711.8  L 549.3,712.0 L 554.5,712.2 L 559.6,712.4 L 564.8,712.6 L 570.0,712.8 L 575.1,713.0 L 580.3,713.2 L 585.5,713.4 L 590.7,713.5 L 595.8,713.7  L 601.0,713.9 L 606.2,709.0 L 611.3,709.3 L 616.5,709.5 L 621.7,709.7 L 626.8,709.9 L 632.0,710.1 L 637.2,710.4 L 642.3,710.6 L 647.5,710.8  L 652.7,711.0 L 657.9,711.1 L 663.0,711.3 L 668.2,711.5 L 673.4,711.7 L 678.5,711.8 L 683.7,707.0 L 688.9,707.3 L 694.0,707.5 L 699.2,707.8  L 704.4,708.0 L 709.6,708.2 L 714.7,708.4 L 719.9,708.7 L 725.1,708.9 L 730.2,709.1 L 735.4,709.3 L 740.6,709.5 L 745.7,709.7 L 750.9,709.9  L 756.1,710.1 L 761.2,710.2 L 766.4,705.4 L 771.6,705.6 L 776.8,705.9 L 781.9,706.1 L 787.1,706.4 L 792.3,706.6 L 797.4,706.9 L 802.6,707.1  L 807.8,707.3 L 812.9,707.5 L 818.1,707.8 L 823.3,708.0 L 828.5,708.2 L 833.6,708.4 L 838.8,708.6 L 844.0,708.8 L 849.1,704.0 L 854.3,704.3  L 859.5,704.5 L 864.6,704.8 L 869.8,705.1 L 875.0,705.4 L 880.1,705.7 L 885.3,706.0 L 890.5,706.3 L 895.7,706.5 L 900.8,706.8 L 906.0,707.1  L 911.2,707.4 L 916.3,707.7 L 921.5,708.0 L 926.7,708.2 L 931.8,708.5 L 937.0,708.8 L 942.2,709.1 L 947.3,709.3 L 952.5,709.6 L 957.7,709.9  L 962.9,710.1 L 968.0,710.4 L 973.2,710.7 L 978.4,710.9 L 983.5,711.2 L 988.7,711.5 L 993.9,711.7 L 999.0,712.0 L 1004.2,712.2 L 1009.4,712.5  L 1014.6,712.7 L 1019.7,713.0 L 1024.9,713.2 L 1030.1,713.5 L 1035.2,713.7 L 1040.4,714.0 L 1045.6,714.2 L 1050.7,714.5 L 1055.9,714.7 "
       id="path108" />
  </g>
</svg>
