<?xml version="1.0" encoding="ISO-8859-1" standalone="yes"?>
<svg width="419.528" height="246.164">
  <defs> 
    <marker id="ArrowEnd" viewBox="0 0 10 10" refX="0" refY="5" 
     markerUnits="strokeWidth" 
     markerWidth="4" 
     markerHeight="3" 
     orient="auto"> 
        <path d="M 0 0 L 10 5 L 0 10 z" /> 
    </marker>
    <marker id="ArrowStart" viewBox="0 0 10 10" refX="10" refY="5" 
     markerUnits="strokeWidth" 
     markerWidth="4" 
     markerHeight="3" 
     orient="auto"> 
        <path d="M 10 0 L 0 5 L 10 10 z" /> 
    </marker> </defs>
<g>
<path style="stroke:none; fill-rule:evenodd; fill:#000000" d="M 117.047 171.008C 117.047 170.121 116.847 169.535 116.363 169.004C 115.707 168.289 114.625 167.902 113.218 167.902C 110.875 167.902 109.523 168.996 109.523 170.895C 109.523 172.402 110.293 173.137 112.293 173.508L 113.668 173.774C 115.015 174.027 115.519 174.399 115.519 175.188C 115.519 176 114.765 176.492 113.535 176.492C 112.16 176.492 111.39 175.918 111.324 174.875L 109.355 174.875C 109.472 176.957 110.91 178.094 113.41 178.094C 115.933 178.094 117.425 176.922 117.425 174.945C 117.425 173.414 116.644 172.609 114.824 172.266L 113.289 171.973C 111.847 171.695 111.429 171.414 111.429 170.707C 111.429 169.977 112.086 169.504 113.121 169.504C 114.394 169.504 115.105 170.031 115.175 171.012L 117.047 171.008z"/>
<path style="stroke:none; fill-rule:evenodd; fill:#000000" d="M 124.718 177.797L 126.718 177.797L 126.718 168L 124.718 168L 124.718 174.68L 120.871 168L 118.82 168L 118.82 177.797L 120.82 177.797L 120.82 171.047L 124.718 177.797z"/>
<path style="stroke:none; fill-rule:evenodd; fill:#000000" d="M 134.508 173.274C 134.375 171.481 133.187 170.402 131.363 170.402C 129.191 170.402 127.922 171.828 127.922 174.305C 127.922 176.699 129.175 178.098 131.336 178.098C 133.101 178.098 134.332 177.02 134.508 175.297L 132.703 175.297C 132.461 176.235 132.086 176.598 131.355 176.598C 130.402 176.598 129.82 175.731 129.82 174.305C 129.82 173.613 129.953 172.961 130.183 172.527C 130.398 172.121 130.816 171.902 131.355 171.902C 132.121 171.902 132.484 172.277 132.703 173.274L 134.508 173.274z"/>
<path style="stroke:none; fill-rule:evenodd; fill:#bd00ff" d="M 157.05 129.098L 150.336 133.652L 149.898 125.777"/>
<path style="stroke:#bd00ff; stroke-width:1.9133; fill:none" d="M 157.05 129.098L 150.336 133.652L 149.898 125.777L 157.05 129.098z"/>
<path style="stroke:#000000; stroke-width:1.9133; fill:none" d="M 138.734 173.07C 138.734 165.777 131.05 159.867 121.574 159.867C 112.097 159.867 104.414 165.777 104.414 173.07C 104.414 180.363 112.097 186.274 121.574 186.274C 131.05 186.274 138.734 180.363 138.734 173.07"/>
<path style="stroke:#bd00ff; stroke-dasharray:6,3; stroke-width:1.9133; fill:none" d="M 128.062 162.781L 150.062 133.606"/>
<path style="stroke:#000000; stroke-width:1.9133; fill:none" d="M 350.191 31.5433C 350.191 19.6603 318.062 10.0273 278.425 10.0273C 238.793 10.0273 206.66 19.6603 206.66 31.5433C 206.66 43.4263 238.789 53.0593 278.425 53.0593C 318.058 53.0593 350.191 43.4263 350.191 31.5433"/>
<path style="stroke:none; fill-rule:evenodd; fill:#dfdfdf" d="M 236.828 98.8203C 236.828 93.5083 229.828 89.2033 221.195 89.2033C 212.562 89.2033 205.562 93.5083 205.562 98.8203C 205.562 104.133 212.562 108.438 221.195 108.438C 229.828 108.438 236.828 104.133 236.828 98.8203"/>
<path style="stroke:#dfdfdf; stroke-width:0.95664899999999997; fill:none" d="M 236.828 98.8203C 236.828 93.5083 229.828 89.2033 221.195 89.2033C 212.562 89.2033 205.562 93.5083 205.562 98.8203C 205.562 104.133 212.562 108.438 221.195 108.438C 229.828 108.438 236.828 104.133 236.828 98.8203"/>
<path style="stroke:none; fill-rule:evenodd; fill:#ffff00" d="M 196.804 101.727C 196.804 93.2773 185.672 86.4223 171.933 86.4223C 158.199 86.4223 147.062 93.2743 147.062 101.727C 147.062 110.176 158.195 117.031 171.933 117.031C 185.668 117.031 196.804 110.18 196.804 101.727"/>
<path style="stroke:#000000; stroke-width:0.95664899999999997; fill:none" d="M 196.804 101.727C 196.804 93.2773 185.672 86.4223 171.933 86.4223C 158.199 86.4223 147.062 93.2743 147.062 101.727C 147.062 110.176 158.195 117.031 171.933 117.031C 185.668 117.031 196.804 110.18 196.804 101.727"/>
<path style="stroke:#000000; stroke-width:1.9133; fill:none" d="M 252.23 107.426C 252.23 92.7423 225.808 80.8323 193.215 80.8323C 160.621 80.8323 134.199 92.7383 134.199 107.426C 134.199 122.109 160.621 134.02 193.215 134.02C 225.808 134.02 252.23 122.113 252.23 107.426"/>
<path style="stroke:#000000; stroke-width:1.9133; fill:none" d="M 281.468 217.004C 281.468 206.442 266.91 197.872 248.945 197.872C 230.984 197.872 216.422 206.434 216.422 217.004C 216.422 227.567 230.984 236.137 248.945 236.137C 266.906 236.137 281.468 227.575 281.468 217.004"/>
<path style="stroke:#000000; stroke-width:1.9133; fill:none" d="M 279.078 158.156C 279.078 147.594 264.519 139.024 246.554 139.024C 228.593 139.024 214.031 147.586 214.031 158.156C 214.031 168.719 228.593 177.289 246.554 177.289C 264.515 177.289 279.078 168.727 279.078 158.156"/>
<path style="stroke:none; fill-rule:evenodd; fill:#000000" d="M 241.242 158.297L 237.347 158.297L 237.347 159.996L 239.558 159.996C 239.508 160.551 239.375 160.891 239.082 161.246C 238.605 161.84 237.871 162.195 237.097 162.195C 235.484 162.195 234.324 160.777 234.324 158.77C 234.324 156.672 235.347 155.399 237.043 155.399C 237.734 155.399 238.32 155.598 238.761 155.985C 239.039 156.223 239.187 156.449 239.359 156.953L 241.238 156.953C 241 154.961 239.371 153.699 237.023 153.699C 234.226 153.699 232.32 155.77 232.32 158.797C 232.32 161.746 234.238 163.895 236.867 163.895C 238.172 163.895 239.05 163.426 239.8 162.317L 240.039 163.609L 241.238 163.609L 241.242 158.297z"/>
<path style="stroke:none; fill-rule:evenodd; fill:#000000" d="M 245.117 160.098L 247.64 160.098C 249.449 160.098 250.613 158.824 250.613 156.836C 250.613 154.875 249.496 153.801 247.449 153.801L 243.117 153.801L 243.117 163.598L 245.117 163.598L 245.117 160.098zM 245.117 158.399L 245.117 155.5L 247.019 155.5C 248.105 155.5 248.609 155.961 248.609 156.953C 248.609 157.93 248.105 158.395 247.019 158.395L 245.117 158.399z"/>
<path style="stroke:none; fill-rule:evenodd; fill:#000000" d="M 258.136 160.598C 258.148 160.438 258.148 160.367 258.148 160.274C 258.148 159.539 258.043 158.859 257.871 158.34C 257.39 157.008 256.226 156.203 254.765 156.203C 252.691 156.203 251.418 157.711 251.418 160.145C 251.418 162.469 252.675 163.899 254.722 163.899C 256.34 163.899 257.652 162.981 258.07 161.563L 256.222 161.563C 255.996 162.152 255.472 162.496 254.793 162.496C 254.258 162.496 253.832 162.27 253.562 161.867C 253.39 161.602 253.324 161.281 253.297 160.598L 258.136 160.598zM 253.312 159.399C 253.429 158.199 253.898 157.602 254.73 157.602C 255.199 157.602 255.625 157.848 255.894 158.258C 256.066 158.551 256.148 158.856 256.187 159.399L 253.312 159.399z"/>
<path style="stroke:#000000; stroke-width:1.9133; fill:none" d="M 409.5 194.129C 409.5 184.524 394.132 176.738 375.168 176.738C 356.207 176.738 340.836 184.524 340.836 194.129C 340.836 203.735 356.203 211.52 375.168 211.52C 394.129 211.52 409.5 203.735 409.5 194.129"/>
<path style="stroke:none; fill-rule:evenodd; fill:#ff0000" d="M 225.504 202.653C 225.504 200.543 223.793 198.828 221.679 198.828C 219.57 198.828 217.855 200.54 217.855 202.653C 217.855 204.762 219.566 206.477 221.679 206.477C 223.789 206.477 225.504 204.766 225.504 202.653"/>
<path style="stroke:#ff0000; stroke-width:1.9133; fill:none" d="M 225.504 202.653C 225.504 200.543 223.793 198.828 221.679 198.828C 219.57 198.828 217.855 200.54 217.855 202.653C 217.855 204.762 219.566 206.477 221.679 206.477C 223.789 206.477 225.504 204.766 225.504 202.653"/>
<path style="stroke:none; fill-rule:evenodd; fill:#ff0000" d="M 240.425 137.602C 240.425 136.758 239.742 136.074 238.898 136.074C 238.054 136.074 237.371 136.758 237.371 137.602C 237.371 138.445 238.054 139.129 238.898 139.129C 239.742 139.129 240.425 138.445 240.425 137.602"/>
<path style="stroke:#ff0000; stroke-width:1.9133; fill:none" d="M 240.425 137.602C 240.425 136.758 239.742 136.074 238.898 136.074C 238.054 136.074 237.371 136.758 237.371 137.602C 237.371 138.445 238.054 139.129 238.898 139.129C 239.742 139.129 240.425 138.445 240.425 137.602"/>
<path style="stroke:#ff0000; stroke-dasharray:6,3; stroke-width:0.95664899999999997; fill:none" d="M 225.98 116.555L 239.371 137.598"/>
<path style="stroke:none; fill-rule:evenodd; fill:#ff0000" d="M 208.117 113.199C 207.715 113.199 207.468 113.414 207.468 113.797C 207.468 113.977 207.558 114.168 207.707 114.274C 207.808 114.356 207.957 114.391 208.23 114.391L 210.566 114.391C 211.558 114.391 212.246 114.129 212.808 113.531C 213.332 112.981 213.609 112.27 213.609 111.43L 213.609 110.891C 213.609 109.09 212.328 107.699 210.656 107.699L 208.23 107.699C 207.922 107.699 207.843 107.711 207.742 107.781C 207.57 107.887 207.468 108.09 207.468 108.297C 207.468 108.68 207.699 108.895 208.117 108.895L 208.117 113.199zM 209.32 113.199L 209.32 108.902L 210.554 108.902C 211.148 108.902 211.574 109.082 211.91 109.473C 212.234 109.852 212.414 110.348 212.414 110.875L 212.414 111.391C 212.414 111.961 212.269 112.356 211.953 112.703C 211.605 113.059 211.234 113.195 210.562 113.195L 209.32 113.199z"/>
<path style="stroke:none; fill-rule:evenodd; fill:#ff0000" d="M 216.593 113.199C 217.609 112.34 218.281 111.774 218.593 111.488C 219.738 110.469 220.015 110.039 220.015 109.301C 220.015 108.043 218.968 107.102 217.558 107.102C 216.879 107.102 216.222 107.328 215.761 107.738C 215.371 108.09 215.07 108.645 215.07 109.008C 215.07 109.301 215.332 109.551 215.636 109.551C 215.875 109.551 216.09 109.422 216.148 109.238C 216.273 108.895 216.285 108.871 216.398 108.742C 216.648 108.465 217.047 108.301 217.5 108.301C 218.238 108.301 218.808 108.742 218.808 109.32C 218.808 109.703 218.617 109.953 217.476 110.985C 216.965 111.449 216.75 111.629 214.832 113.203L 214.832 114.391L 220.043 114.391L 220.043 113.383C 220.043 113.109 220.023 113.004 219.965 112.902C 219.863 112.731 219.668 112.629 219.472 112.629C 219.117 112.629 218.937 112.817 218.902 113.195L 216.593 113.199z"/>
<path style="stroke:#000000; stroke-width:0.95664899999999997; fill:none" d="M 5.24221 74.4493L 113.175 74.4493L 113.175 27.5943L 5.24221 27.5943L 5.24221 74.4493z"/>
<path style="stroke:none; fill-rule:evenodd; fill:#0000ff" d="M 43.8359 35.2973C 43.8476 35.1373 43.8476 35.0673 43.8476 34.9733C 43.8476 34.2383 43.7422 33.5593 43.5703 33.0393C 43.0898 31.7073 41.9258 30.9023 40.4648 30.9023C 38.3906 30.9023 37.1172 32.4103 37.1172 34.8443C 37.1172 37.1683 38.375 38.5983 40.4219 38.5983C 42.0391 38.5983 43.3515 37.6803 43.7695 36.2623L 41.9219 36.2623C 41.6953 36.8523 41.1719 37.1953 40.4922 37.1953C 39.957 37.1953 39.5312 36.9693 39.2617 36.5673C 39.0898 36.3013 39.0234 35.9813 38.9961 35.2973L 43.8359 35.2973zM 39.0156 34.0983C 39.1328 32.8993 39.6015 32.3013 40.4336 32.3013C 40.9023 32.3013 41.3281 32.5473 41.5976 32.9573C 41.7695 33.2503 41.8515 33.5553 41.8906 34.0983L 39.0156 34.0983z"/>
<path style="stroke:none; fill-rule:evenodd; fill:#0000ff" d="M 48.9726 34.6723L 51.3281 31.1023L 49.0781 31.1023L 47.9141 33.2503L 46.7383 31.1023L 44.4883 31.1023L 46.8437 34.6723L 44.4336 38.2973L 46.6836 38.2973L 47.9141 36.0473L 49.1328 38.2973L 51.3828 38.2973L 48.9726 34.6723z"/>
<path style="stroke:none; fill-rule:evenodd; fill:#0000ff" d="M 58.7109 33.7743C 58.5781 31.9813 57.3906 30.9023 55.5664 30.9023C 53.3945 30.9023 52.125 32.3283 52.125 34.8053C 52.125 37.1993 53.3789 38.5983 55.5391 38.5983C 57.3047 38.5983 58.5351 37.5203 58.7109 35.7973L 56.9062 35.7973C 56.6641 36.7353 56.2891 37.0983 55.5586 37.0983C 54.6055 37.0983 54.0234 36.2313 54.0234 34.8053C 54.0234 34.1133 54.1562 33.4613 54.3867 33.0273C 54.6015 32.6213 55.0195 32.4023 55.5586 32.4023C 56.3242 32.4023 56.6875 32.7773 56.9062 33.7743L 58.7109 33.7743z"/>
<path style="stroke:none; fill-rule:evenodd; fill:#0000ff" d="M 61.918 31.0673L 60.0195 31.0673L 60.0195 38.2973L 61.918 38.2973L 61.918 31.0673zM 61.918 28.5003L 60.0195 28.5003L 60.0195 30.1993L 61.918 30.1993L 61.918 28.5003z"/>
<path style="stroke:none; fill-rule:evenodd; fill:#0000ff" d="M 66.9493 31.1993L 65.9223 31.1993L 65.9223 29.2743L 64.0234 29.2743L 64.0234 31.1993L 63.1133 31.1993L 63.1133 32.3993L 64.0234 32.3993L 64.0234 36.8833C 64.0234 38.0273 64.625 38.5983 65.8633 38.5983C 66.2773 38.5983 66.6133 38.5593 66.9493 38.4533L 66.9493 37.1493C 66.7653 37.1803 66.6603 37.1993 66.5273 37.1993C 66.0393 37.1993 65.9223 37.0513 65.9223 36.3993L 65.9223 32.4023L 66.9493 32.4023L 66.9493 31.1993z"/>
<path style="stroke:none; fill-rule:evenodd; fill:#0000ff" d="M 74.3363 38.0593C 74.0113 37.7503 73.9183 37.5513 73.9183 37.1723L 73.9183 33.1373C 73.9183 31.6603 72.9143 30.9023 70.9533 30.9023C 68.9963 30.9023 67.9763 31.7463 67.8553 33.4533L 69.6793 33.4533C 69.7733 32.6603 70.0823 32.4023 71.0193 32.4023C 71.7503 32.4023 72.1133 32.6453 72.1133 33.1293C 72.1133 33.3713 71.9963 33.5863 71.7933 33.6953C 71.5393 33.8283 71.5393 33.8283 70.6093 33.9773L 69.8553 34.1093C 68.4183 34.3523 67.7183 35.0943 67.7183 36.4023C 67.7183 37.0203 67.8903 37.5353 68.2263 37.8993C 68.6403 38.3283 69.2693 38.5863 69.9143 38.5863C 70.7183 38.5863 71.4573 38.2383 72.1133 37.5513C 72.1133 37.9263 72.1483 38.0633 72.3243 38.2773L 74.3283 38.2773L 74.3363 38.0593zM 72.1173 35.3953C 72.1173 36.4813 71.5823 37.0983 70.6363 37.0983C 70.0113 37.0983 69.6213 36.7623 69.6213 36.2273C 69.6213 35.6643 69.9143 35.3993 70.6873 35.2353L 71.3283 35.1173C 71.8203 35.0243 71.9023 35.0003 72.1133 34.8913L 72.1173 35.3953z"/>
<path style="stroke:none; fill-rule:evenodd; fill:#0000ff" d="M 78.8473 31.1993L 77.8203 31.1993L 77.8203 29.2743L 75.9223 29.2743L 75.9223 31.1993L 75.0113 31.1993L 75.0113 32.3993L 75.9223 32.3993L 75.9223 36.8833C 75.9223 38.0273 76.5233 38.5983 77.7613 38.5983C 78.1753 38.5983 78.5113 38.5593 78.8473 38.4533L 78.8473 37.1493C 78.6643 37.1803 78.5583 37.1993 78.4253 37.1993C 77.9373 37.1993 77.8203 37.0513 77.8203 36.3993L 77.8203 32.4023L 78.8473 32.4023L 78.8473 31.1993z"/>
<path style="stroke:none; fill-rule:evenodd; fill:#0000ff" d="M 83.2543 30.8993C 81.0623 30.8993 79.7183 32.3633 79.7183 34.7463C 79.7183 37.1413 81.0583 38.5943 83.2653 38.5943C 85.4453 38.5943 86.8123 37.1293 86.8123 34.8013C 86.8123 32.3403 85.5003 30.8993 83.2503 30.8993L 83.2543 30.8993zM 83.2693 32.3993C 84.2693 32.3993 84.9183 33.3363 84.9183 34.7743C 84.9183 36.1413 84.2423 37.0943 83.2693 37.0943C 82.2853 37.0943 81.6213 36.1453 81.6213 34.7463C 81.6213 33.3483 82.2813 32.3993 83.2693 32.3993z"/>
<path style="stroke:none; fill-rule:evenodd; fill:#0000ff" d="M 88.2183 31.0983L 88.2183 38.2973L 90.1173 38.2973L 90.1173 34.5203C 90.1173 33.4423 90.6683 32.9023 91.7773 32.9023C 91.9763 32.9023 92.1133 32.8953 92.3713 32.8673L 92.3713 31.0083C 92.2653 31.0083 92.1953 31.0083 92.1443 31.0083C 91.2813 31.0083 90.5273 31.5513 90.1213 32.4923L 90.1213 31.1063L 88.2183 31.0983z"/>
<path style="stroke:none; fill-rule:evenodd; fill:#0000ff" d="M 97.8943 31.0983L 96.3943 36.3283L 94.8003 31.0983L 92.7423 31.0983L 95.4333 38.5513L 95.4333 38.6023C 95.4333 39.2773 94.9253 39.7933 94.2693 39.7933C 94.1253 39.7933 94.0153 39.7893 93.7773 39.7703L 93.7773 41.1453C 94.0543 41.1803 94.2183 41.1953 94.4453 41.1953C 94.9143 41.1953 95.4723 41.1063 95.7973 40.9733C 96.3163 40.7623 96.5473 40.4573 96.8513 39.6063L 99.8243 31.1023L 97.8943 31.0983z"/>
<path style="stroke:none; fill-rule:evenodd; fill:#ff0000" d="M 32.9883 50.0743C 32.9883 47.9653 31.2773 46.2503 29.1641 46.2503C 27.0547 46.2503 25.3398 47.9613 25.3398 50.0743C 25.3398 52.1843 27.0508 53.8993 29.1641 53.8993C 31.2734 53.8993 32.9883 52.1883 32.9883 50.0743"/>
<path style="stroke:#ff0000; stroke-width:1.9133; fill:none" d="M 32.9883 50.0743C 32.9883 47.9653 31.2773 46.2503 29.1641 46.2503C 27.0547 46.2503 25.3398 47.9613 25.3398 50.0743C 25.3398 52.1843 27.0508 53.8993 29.1641 53.8993C 31.2734 53.8993 32.9883 52.1883 32.9883 50.0743"/>
<path style="stroke:none; fill-rule:evenodd; fill:#ff0000" d="M 40.6172 45.4693L 38.7187 45.4693L 38.7187 52.6993L 40.6172 52.6993L 40.6172 45.4693zM 40.6172 42.8993L 38.7187 42.8993L 38.7187 44.5983L 40.6172 44.5983L 40.6172 42.8993z"/>
<path style="stroke:none; fill-rule:evenodd; fill:#ff0000" d="M 42.3203 45.5003L 42.3203 52.6993L 44.2187 52.6993L 44.2187 48.3323C 44.2187 47.4733 44.8164 46.9023 45.7187 46.9023C 46.5156 46.9023 46.9141 47.3483 46.9141 48.2113L 46.9141 52.6993L 48.8125 52.6993L 48.8125 47.8203C 48.8125 46.2193 47.9297 45.3013 46.3867 45.3013C 45.4101 45.3013 44.7539 45.6763 44.2148 46.5123L 44.2148 45.5003L 42.3203 45.5003z"/>
<path style="stroke:none; fill-rule:evenodd; fill:#ff0000" d="M 50.6172 42.8993L 50.6172 52.6953L 52.5156 52.6953L 52.5156 48.3283C 52.5156 47.4923 53.1172 46.8993 53.9609 46.8993C 54.3594 46.8993 54.6836 47.0473 54.8984 47.3443C 55.0586 47.5863 55.1133 47.7743 55.1133 48.2463L 55.1133 52.6953L 57.0117 52.6953L 57.0117 47.8173C 57.0117 46.9143 56.7695 46.2703 56.2734 45.8523C 55.8555 45.5043 55.25 45.3013 54.6445 45.3013C 53.7148 45.3013 53.043 45.6883 52.5156 46.5123L 52.5156 42.9023L 50.6172 42.8993z"/>
<path style="stroke:none; fill-rule:evenodd; fill:#ff0000" d="M 60.6172 45.4693L 58.7187 45.4693L 58.7187 52.6993L 60.6172 52.6993L 60.6172 45.4693zM 60.6172 42.8993L 58.7187 42.8993L 58.7187 44.5983L 60.6172 44.5983L 60.6172 42.8993z"/>
<path style="stroke:none; fill-rule:evenodd; fill:#ff0000" d="M 62.418 42.8993L 62.418 52.6883L 64.3164 52.6883L 64.3164 51.9493C 64.7656 52.6603 65.3906 52.9963 66.2973 52.9963C 68.0113 52.9963 69.3123 51.3443 69.3123 49.1493C 69.3123 48.1683 69.0193 47.1723 68.5433 46.4733C 68.0543 45.7623 67.1753 45.3013 66.2973 45.3013C 65.4062 45.3013 64.7695 45.6493 64.3164 46.4023L 64.3164 42.8993L 62.418 42.8993zM 65.8673 46.8993C 66.7693 46.8993 67.4143 47.8283 67.4143 49.1603C 67.4143 50.4653 66.7733 51.3953 65.8673 51.3953C 64.9375 51.3953 64.3203 50.4923 64.3203 49.1213C 64.3203 47.8203 64.9492 46.8993 65.8673 46.8993z"/>
<path style="stroke:none; fill-rule:evenodd; fill:#ff0000" d="M 72.5193 45.4693L 70.6213 45.4693L 70.6213 52.6993L 72.5193 52.6993L 72.5193 45.4693zM 72.5193 42.8993L 70.6213 42.8993L 70.6213 44.5983L 72.5193 44.5983L 72.5193 42.8993z"/>
<path style="stroke:none; fill-rule:evenodd; fill:#ff0000" d="M 77.5503 45.5983L 76.5233 45.5983L 76.5233 43.6723L 74.6253 43.6723L 74.6253 45.5983L 73.7153 45.5983L 73.7153 46.7973L 74.6253 46.7973L 74.6253 51.2813C 74.6253 52.4263 75.2263 52.9963 76.4653 52.9963C 76.8793 52.9963 77.2153 52.9573 77.5503 52.8523L 77.5503 51.5473C 77.3673 51.5783 77.2613 51.5983 77.1293 51.5983C 76.6403 51.5983 76.5233 51.4493 76.5233 50.7973L 76.5233 46.8013L 77.5503 46.8013L 77.5503 45.5983z"/>
<path style="stroke:none; fill-rule:evenodd; fill:#ff0000" d="M 81.9533 45.2973C 79.7613 45.2973 78.4183 46.7623 78.4183 49.1453C 78.4183 51.5393 79.7583 52.9923 81.9653 52.9923C 84.1443 52.9923 85.5113 51.5273 85.5113 49.1993C 85.5113 46.7383 84.1993 45.2973 81.9493 45.2973L 81.9533 45.2973zM 81.9683 46.7973C 82.9683 46.7973 83.6173 47.7353 83.6173 49.1723C 83.6173 50.5393 82.9413 51.4923 81.9683 51.4923C 80.9843 51.4923 80.3203 50.5433 80.3203 49.1453C 80.3203 47.7463 80.9803 46.7973 81.9683 46.7973z"/>
<path style="stroke:none; fill-rule:evenodd; fill:#ff0000" d="M 86.9183 45.5003L 86.9183 52.6993L 88.8163 52.6993L 88.8163 48.9223C 88.8163 47.8443 89.3673 47.3053 90.4763 47.3053C 90.6753 47.3053 90.8123 47.2973 91.0703 47.2703L 91.0703 45.4103C 90.9653 45.4103 90.8943 45.4103 90.8433 45.4103C 89.9803 45.4103 89.2263 45.9533 88.8203 46.8953L 88.8203 45.5083L 86.9183 45.5003z"/>
<path style="stroke:none; fill-rule:evenodd; fill:#ff0000" d="M 96.5933 45.5003L 95.0933 50.7313L 93.5003 45.5003L 91.4413 45.5003L 94.1323 52.9533L 94.1323 53.0043C 94.1323 53.6803 93.6253 54.1953 92.9683 54.1953C 92.8243 54.1953 92.7153 54.1923 92.4763 54.1723L 92.4763 55.5473C 92.7543 55.5823 92.9183 55.5983 93.1443 55.5983C 93.6133 55.5983 94.1723 55.5083 94.4963 55.3753C 95.0153 55.1643 95.2463 54.8593 95.5503 54.0083L 98.5233 45.5043L 96.5933 45.5003z"/>
<path style="stroke:#ff0000; stroke-dasharray:6,3; stroke-width:1.9133; fill:none" d="M 10.0273 50.0743L 31.0703 50.0743"/>
<path style="stroke:#bd00ff; stroke-dasharray:6,3; stroke-width:1.9133; fill:none" d="M 10.0273 63.4693L 29.1601 63.4693"/>
<path style="stroke:none; fill-rule:evenodd; fill:#bd00ff" d="M 32.1953 59.3403L 32.6523 67.4423L 25.6719 63.7743"/>
<path style="stroke:#bd00ff; stroke-width:1.9133; fill:none" d="M 32.1953 59.3403L 32.6523 67.4423L 25.6719 63.7743L 32.1953 59.3403z"/>
<path style="stroke:none; fill-rule:evenodd; fill:#bd00ff" d="M 37.1172 59.2973L 37.1172 66.4963L 39.0156 66.4963L 39.0156 62.1293C 39.0156 61.2423 39.4961 60.6993 40.2969 60.6993C 40.9219 60.6993 41.3125 61.0633 41.3125 61.6413L 41.3125 66.4923L 43.2109 66.4923L 43.2109 62.1253C 43.2109 61.2383 43.6719 60.6953 44.4375 60.6953C 45.0351 60.6953 45.4062 61.0593 45.4062 61.6373L 45.4062 66.4883L 47.3047 66.4883L 47.3047 61.3443C 47.3047 59.9303 46.457 59.0943 45.0234 59.0943C 44.1211 59.0943 43.4844 59.4303 42.9258 60.2113C 42.582 59.5003 41.8672 59.0943 40.9765 59.0943C 40.1562 59.0943 39.625 59.3873 39.0117 60.1563L 39.0117 59.2933L 37.1172 59.2973z"/>
<path style="stroke:none; fill-rule:evenodd; fill:#bd00ff" d="M 52.2539 59.0983C 50.0625 59.0983 48.7187 60.5633 48.7187 62.9453C 48.7187 65.3403 50.0586 66.7933 52.2656 66.7933C 54.4453 66.7933 55.8125 65.3283 55.8125 63.0003C 55.8125 60.5393 54.5 59.0983 52.25 59.0983L 52.2539 59.0983zM 52.2695 60.5983C 53.2695 60.5983 53.918 61.5353 53.918 62.9733C 53.918 64.3403 53.2422 65.2933 52.2695 65.2933C 51.2851 65.2933 50.6211 64.3443 50.6211 62.9453C 50.6211 61.5473 51.2812 60.5983 52.2695 60.5983z"/>
<path style="stroke:none; fill-rule:evenodd; fill:#bd00ff" d="M 61.8203 66.4883L 63.7187 66.4883L 63.7187 56.6993L 61.8203 56.6993L 61.8203 60.2033C 61.3555 59.4493 60.7305 59.1023 59.8398 59.1023C 58.125 59.1023 56.8242 60.7703 56.8242 62.9653C 56.8242 63.9453 57.1172 64.9423 57.5937 65.6413C 58.082 66.3403 58.9609 66.7973 59.8398 66.7973C 60.7305 66.7973 61.3555 66.4613 61.8203 65.7503L 61.8203 66.4883zM 60.2695 60.6993C 61.1992 60.6993 61.8164 61.6173 61.8164 62.9853C 61.8164 64.2893 61.1875 65.1923 60.2695 65.1923C 59.3515 65.1923 58.7226 64.2743 58.7226 62.9573C 58.7226 61.6293 59.3515 60.6953 60.2695 60.6953L 60.2695 60.6993z"/>
<path style="stroke:none; fill-rule:evenodd; fill:#bd00ff" d="M 71.9183 66.4923L 71.9183 59.3013L 70.0193 59.3013L 70.0193 63.7893C 70.0193 64.6373 69.4223 65.1953 68.5193 65.1953C 67.7223 65.1953 67.3243 64.7743 67.3243 63.9103L 67.3243 59.3013L 65.4258 59.3013L 65.4258 64.3093C 65.4258 65.8913 66.3083 66.7973 67.8513 66.7973C 68.8283 66.7973 69.4843 66.4423 70.0233 65.6413L 70.0233 66.4923L 71.9183 66.4923z"/>
<path style="stroke:none; fill-rule:evenodd; fill:#bd00ff" d="M 73.7183 66.5003L 75.6173 66.5003L 75.6173 56.7033L 73.7183 56.7033L 73.7183 66.5003z"/>
<path style="stroke:none; fill-rule:evenodd; fill:#bd00ff" d="M 83.5353 66.2623C 83.2113 65.9533 83.1173 65.7543 83.1173 65.3753L 83.1173 61.3403C 83.1173 59.8633 82.1133 59.1063 80.1523 59.1063C 78.1953 59.1063 77.1753 59.9493 77.0543 61.6563L 78.8793 61.6563C 78.9723 60.8633 79.2813 60.6063 80.2183 60.6063C 80.9493 60.6063 81.3123 60.8483 81.3123 61.3323C 81.3123 61.5743 81.1953 61.7893 80.9923 61.8993C 80.7383 62.0313 80.7383 62.0313 79.8083 62.1803L 79.0543 62.3133C 77.6173 62.5553 76.9183 63.2973 76.9183 64.6063C 76.9183 65.2233 77.0903 65.7383 77.4253 66.1023C 77.8403 66.5313 78.4683 66.7893 79.1133 66.7893C 79.9183 66.7893 80.6563 66.4423 81.3123 65.7543C 81.3123 66.1293 81.3473 66.2663 81.5233 66.4813L 83.5273 66.4813L 83.5353 66.2623zM 81.3203 63.5943C 81.3203 64.6803 80.7853 65.2973 79.8403 65.2973C 79.2153 65.2973 78.8243 64.9613 78.8243 64.4263C 78.8243 63.8633 79.1173 63.5983 79.8903 63.4343L 80.5313 63.3173C 81.0233 63.2233 81.1053 63.1993 81.3163 63.0903L 81.3203 63.5943z"/>
<path style="stroke:none; fill-rule:evenodd; fill:#bd00ff" d="M 87.9493 59.3993L 86.9223 59.3993L 86.9223 57.4733L 85.0233 57.4733L 85.0233 59.3993L 84.1133 59.3993L 84.1133 60.5983L 85.0233 60.5983L 85.0233 65.0823C 85.0233 66.2273 85.6253 66.7973 86.8633 66.7973C 87.2773 66.7973 87.6133 66.7583 87.9493 66.6523L 87.9493 65.3483C 87.7653 65.3793 87.6603 65.3993 87.5273 65.3993C 87.0393 65.3993 86.9223 65.2503 86.9223 64.5983L 86.9223 60.6023L 87.9493 60.6023L 87.9493 59.3993z"/>
<path style="stroke:none; fill-rule:evenodd; fill:#bd00ff" d="M 92.4533 59.0983C 90.2613 59.0983 88.9183 60.5633 88.9183 62.9453C 88.9183 65.3403 90.2583 66.7933 92.4653 66.7933C 94.6443 66.7933 96.0113 65.3283 96.0113 63.0003C 96.0113 60.5393 94.6993 59.0983 92.4493 59.0983L 92.4533 59.0983zM 92.4683 60.5983C 93.4683 60.5983 94.1173 61.5353 94.1173 62.9733C 94.1173 64.3403 93.4413 65.2933 92.4683 65.2933C 91.4843 65.2933 90.8203 64.3443 90.8203 62.9453C 90.8203 61.5473 91.4803 60.5983 92.4683 60.5983z"/>
<path style="stroke:none; fill-rule:evenodd; fill:#bd00ff" d="M 97.4183 59.2973L 97.4183 66.4963L 99.3163 66.4963L 99.3163 62.7193C 99.3163 61.6413 99.8673 61.1023 100.976 61.1023C 101.175 61.1023 101.312 61.0943 101.57 61.0673L 101.57 59.2073C 101.465 59.2073 101.394 59.2073 101.343 59.2073C 100.48 59.2073 99.7263 59.7503 99.3203 60.6923L 99.3203 59.3053L 97.4183 59.2973z"/>
<path style="stroke:none; fill-rule:evenodd; fill:#bd00ff" d="M 107.093 59.2973L 105.593 64.5273L 104 59.2973L 101.941 59.2973L 104.632 66.7503L 104.632 66.8013C 104.632 67.4773 104.125 67.9923 103.468 67.9923C 103.324 67.9923 103.215 67.9883 102.976 67.9693L 102.976 69.3443C 103.254 69.3793 103.418 69.3953 103.644 69.3953C 104.113 69.3953 104.672 69.3053 104.996 69.1723C 105.515 68.9613 105.746 68.6563 106.05 67.8053L 109.023 59.3013L 107.093 59.2973z"/>
<path style="stroke:#0000ff; stroke-width:1.9133; fill:none" d="M 10.0273 36.6843L 31.0703 36.6843"/>
<path style="stroke:#0000ff; stroke-width:1.9133; fill:none" d="M 23.4219 34.7703L 31.0742 36.6803L 23.4219 38.5903"/>
<path style="stroke:none; fill-rule:evenodd; fill:#000000" d="M 178.683 122.899C 178.656 121.344 177.472 120.402 175.515 120.402C 173.672 120.402 172.523 121.328 172.523 122.817C 172.523 123.297 172.672 123.715 172.929 123.996C 173.183 124.25 173.414 124.371 174.121 124.598L 176.382 125.293C 176.855 125.438 177.019 125.586 177.019 125.883C 177.019 126.324 176.496 126.594 175.625 126.594C 175.144 126.594 174.754 126.504 174.511 126.352C 174.312 126.211 174.23 126.07 174.152 125.695L 172.316 125.695C 172.367 127.27 173.539 128.094 175.75 128.094C 176.758 128.094 177.523 127.883 178.062 127.453C 178.597 127.027 178.922 126.356 178.922 125.645C 178.922 124.707 178.449 124.102 177.488 123.82L 175.09 123.137C 174.562 122.977 174.429 122.871 174.429 122.574C 174.429 122.176 174.859 121.902 175.515 121.902C 176.414 121.902 176.859 122.227 176.871 122.899L 178.683 122.899z"/>
<path style="stroke:none; fill-rule:evenodd; fill:#000000" d="M 183.347 120.699L 182.32 120.699L 182.32 118.774L 180.422 118.774L 180.422 120.699L 179.511 120.699L 179.511 121.899L 180.422 121.899L 180.422 126.383C 180.422 127.527 181.023 128.098 182.261 128.098C 182.675 128.098 183.011 128.059 183.347 127.953L 183.347 126.649C 183.164 126.68 183.058 126.699 182.925 126.699C 182.437 126.699 182.32 126.551 182.32 125.899L 182.32 121.902L 183.347 121.902L 183.347 120.699z"/>
<path style="stroke:none; fill-rule:evenodd; fill:#000000" d="M 184.617 120.598L 184.617 127.797L 186.515 127.797L 186.515 124.02C 186.515 122.942 187.066 122.402 188.175 122.402C 188.375 122.402 188.511 122.395 188.769 122.367L 188.769 120.508C 188.664 120.508 188.593 120.508 188.543 120.508C 187.679 120.508 186.925 121.051 186.519 121.992L 186.519 120.606L 184.617 120.598z"/>
<path style="stroke:none; fill-rule:evenodd; fill:#000000" d="M 191.82 120.567L 189.922 120.567L 189.922 127.797L 191.82 127.797L 191.82 120.567zM 191.82 118L 189.922 118L 189.922 119.699L 191.82 119.699L 191.82 118z"/>
<path style="stroke:none; fill-rule:evenodd; fill:#000000" d="M 199.738 127.559C 199.414 127.25 199.32 127.051 199.32 126.672L 199.32 122.637C 199.32 121.16 198.316 120.402 196.355 120.402C 194.398 120.402 193.379 121.246 193.258 122.953L 195.082 122.953C 195.175 122.16 195.484 121.902 196.422 121.902C 197.152 121.902 197.515 122.145 197.515 122.629C 197.515 122.871 197.398 123.086 197.195 123.195C 196.941 123.328 196.941 123.328 196.011 123.477L 195.258 123.609C 193.82 123.852 193.121 124.594 193.121 125.902C 193.121 126.52 193.293 127.035 193.629 127.399C 194.043 127.828 194.672 128.086 195.316 128.086C 196.121 128.086 196.859 127.738 197.515 127.051C 197.515 127.426 197.55 127.563 197.726 127.777L 199.73 127.777L 199.738 127.559zM 197.519 124.895C 197.519 125.981 196.984 126.598 196.039 126.598C 195.414 126.598 195.023 126.262 195.023 125.727C 195.023 125.164 195.316 124.899 196.09 124.735L 196.73 124.617C 197.222 124.524 197.304 124.5 197.515 124.391L 197.519 124.895z"/>
<path style="stroke:none; fill-rule:evenodd; fill:#000000" d="M 204.25 120.699L 203.222 120.699L 203.222 118.774L 201.324 118.774L 201.324 120.699L 200.414 120.699L 200.414 121.899L 201.324 121.899L 201.324 126.383C 201.324 127.527 201.925 128.098 203.164 128.098C 203.578 128.098 203.914 128.059 204.25 127.953L 204.25 126.649C 204.066 126.68 203.961 126.699 203.828 126.699C 203.34 126.699 203.222 126.551 203.222 125.899L 203.222 121.902L 204.25 121.902L 204.25 120.699z"/>
<path style="stroke:none; fill-rule:evenodd; fill:#000000" d="M 211.918 127.793L 211.918 120.602L 210.019 120.602L 210.019 125.09C 210.019 125.938 209.422 126.496 208.519 126.496C 207.722 126.496 207.324 126.074 207.324 125.211L 207.324 120.602L 205.425 120.602L 205.425 125.609C 205.425 127.192 206.308 128.098 207.851 128.098C 208.828 128.098 209.484 127.742 210.023 126.942L 210.023 127.793L 211.918 127.793z"/>
<path style="stroke:none; fill-rule:evenodd; fill:#000000" d="M 213.617 120.598L 213.617 127.797L 215.515 127.797L 215.515 123.43C 215.515 122.543 215.996 122 216.797 122C 217.422 122 217.812 122.363 217.812 122.942L 217.812 127.793L 219.711 127.793L 219.711 123.426C 219.711 122.539 220.172 121.996 220.937 121.996C 221.535 121.996 221.906 122.359 221.906 122.938L 221.906 127.789L 223.804 127.789L 223.804 122.645C 223.804 121.231 222.957 120.395 221.523 120.395C 220.621 120.395 219.984 120.731 219.425 121.512C 219.082 120.801 218.367 120.395 217.476 120.395C 216.656 120.395 216.125 120.688 215.511 121.457L 215.511 120.594L 213.617 120.598z"/>
<path style="stroke:#ff0000; stroke-dasharray:6,3; stroke-width:2.8699499999999998; fill:none" d="M 250.379 178.258L 254.203 193.563"/>
<path style="stroke:none; fill-rule:evenodd; fill:#000000" d="M 264.617 185.098L 266.617 185.098L 266.617 175.301L 264.617 175.301L 264.617 185.098z"/>
<path style="stroke:none; fill-rule:evenodd; fill:#000000" d="M 268.32 177.899L 268.32 185.098L 270.218 185.098L 270.218 180.731C 270.218 179.871 270.816 179.301 271.718 179.301C 272.515 179.301 272.914 179.746 272.914 180.609L 272.914 185.098L 274.812 185.098L 274.812 180.219C 274.812 178.617 273.929 177.699 272.386 177.699C 271.41 177.699 270.754 178.074 270.215 178.91L 270.215 177.899L 268.32 177.899z"/>
<path style="stroke:none; fill-rule:evenodd; fill:#000000" d="M 281.117 185.09L 283.015 185.09L 283.015 175.301L 281.117 175.301L 281.117 178.805C 280.652 178.051 280.027 177.703 279.136 177.703C 277.422 177.703 276.121 179.371 276.121 181.567C 276.121 182.547 276.414 183.543 276.89 184.242C 277.379 184.942 278.258 185.399 279.136 185.399C 280.027 185.399 280.652 185.063 281.117 184.352L 281.117 185.09zM 279.57 179.297C 280.5 179.297 281.117 180.215 281.117 181.582C 281.117 182.887 280.488 183.789 279.57 183.789C 278.652 183.789 278.023 182.871 278.023 181.555C 278.023 180.227 278.652 179.293 279.57 179.293L 279.57 179.297z"/>
<path style="stroke:none; fill-rule:evenodd; fill:#000000" d="M 286.617 177.867L 284.718 177.867L 284.718 185.098L 286.617 185.098L 286.617 177.867zM 286.617 175.297L 284.718 175.297L 284.718 176.996L 286.617 176.996L 286.617 175.297z"/>
<path style="stroke:none; fill-rule:evenodd; fill:#000000" d="M 288.418 177.899L 288.418 185.098L 290.316 185.098L 290.316 181.32C 290.316 180.242 290.867 179.703 291.976 179.703C 292.175 179.703 292.312 179.695 292.57 179.668L 292.57 177.809C 292.465 177.809 292.394 177.809 292.343 177.809C 291.48 177.809 290.726 178.352 290.32 179.293L 290.32 177.906L 288.418 177.899z"/>
<path style="stroke:none; fill-rule:evenodd; fill:#000000" d="M 299.836 182.098C 299.847 181.938 299.847 181.867 299.847 181.774C 299.847 181.039 299.742 180.359 299.57 179.84C 299.09 178.508 297.925 177.703 296.465 177.703C 294.39 177.703 293.117 179.211 293.117 181.645C 293.117 183.969 294.375 185.399 296.422 185.399C 298.039 185.399 299.351 184.481 299.769 183.063L 297.922 183.063C 297.695 183.652 297.172 183.996 296.492 183.996C 295.957 183.996 295.531 183.77 295.261 183.367C 295.09 183.102 295.023 182.781 294.996 182.098L 299.836 182.098zM 295.015 180.899C 295.132 179.699 295.601 179.102 296.433 179.102C 296.902 179.102 297.328 179.348 297.597 179.758C 297.769 180.051 297.851 180.356 297.89 180.899L 295.015 180.899z"/>
<path style="stroke:none; fill-rule:evenodd; fill:#000000" d="M 307.211 180.57C 307.078 178.777 305.89 177.699 304.066 177.699C 301.894 177.699 300.625 179.125 300.625 181.602C 300.625 183.996 301.879 185.395 304.039 185.395C 305.804 185.395 307.035 184.317 307.211 182.594L 305.406 182.594C 305.164 183.531 304.789 183.895 304.058 183.895C 303.105 183.895 302.523 183.027 302.523 181.602C 302.523 180.91 302.656 180.258 302.886 179.824C 303.101 179.418 303.519 179.199 304.058 179.199C 304.824 179.199 305.187 179.574 305.406 180.57L 307.211 180.57z"/>
<path style="stroke:none; fill-rule:evenodd; fill:#000000" d="M 311.75 178L 310.722 178L 310.722 176.074L 308.824 176.074L 308.824 178L 307.914 178L 307.914 179.199L 308.824 179.199L 308.824 183.684C 308.824 184.828 309.425 185.399 310.664 185.399C 311.078 185.399 311.414 185.359 311.75 185.254L 311.75 183.949C 311.566 183.981 311.461 184 311.328 184C 310.84 184 310.722 183.852 310.722 183.199L 310.722 179.203L 311.75 179.203L 311.75 178z"/>
<path style="stroke:none; fill-rule:evenodd; fill:#000000" d="M 163.82 181.797L 167.64 181.797C 169.129 181.797 170.066 181.449 170.722 180.656C 171.5 179.746 171.914 178.414 171.914 176.895C 171.914 175.391 171.5 174.059 170.722 173.133C 170.066 172.34 169.144 172.004 167.64 172.004L 163.82 172.004L 163.82 181.797zM 165.82 180.098L 165.82 173.699L 167.636 173.699C 169.16 173.699 169.914 174.754 169.914 176.902C 169.914 179.039 169.16 180.094 167.636 180.094L 165.82 180.098z"/>
<path style="stroke:none; fill-rule:evenodd; fill:#000000" d="M 175.32 174.567L 173.422 174.567L 173.422 181.797L 175.32 181.797L 175.32 174.567zM 175.32 172L 173.422 172L 173.422 173.699L 175.32 173.699L 175.32 172z"/>
<path style="stroke:none; fill-rule:evenodd; fill:#000000" d="M 177.019 174.598L 177.019 181.797L 178.918 181.797L 178.918 178.02C 178.918 176.942 179.468 176.402 180.578 176.402C 180.777 176.402 180.914 176.395 181.172 176.367L 181.172 174.508C 181.066 174.508 180.996 174.508 180.945 174.508C 180.082 174.508 179.328 175.051 178.922 175.992L 178.922 174.606L 177.019 174.598z"/>
<path style="stroke:none; fill-rule:evenodd; fill:#000000" d="M 188.437 178.797C 188.449 178.637 188.449 178.567 188.449 178.473C 188.449 177.738 188.343 177.059 188.172 176.539C 187.691 175.207 186.527 174.402 185.066 174.402C 182.992 174.402 181.718 175.91 181.718 178.344C 181.718 180.668 182.976 182.098 185.023 182.098C 186.64 182.098 187.953 181.18 188.371 179.762L 186.523 179.762C 186.297 180.352 185.773 180.695 185.093 180.695C 184.558 180.695 184.132 180.469 183.863 180.067C 183.691 179.801 183.625 179.481 183.597 178.797L 188.437 178.797zM 183.613 177.598C 183.73 176.399 184.199 175.801 185.031 175.801C 185.5 175.801 185.925 176.047 186.195 176.457C 186.367 176.75 186.449 177.055 186.488 177.598L 183.613 177.598z"/>
<path style="stroke:none; fill-rule:evenodd; fill:#000000" d="M 195.91 177.274C 195.777 175.481 194.59 174.402 192.765 174.402C 190.593 174.402 189.324 175.828 189.324 178.305C 189.324 180.699 190.578 182.098 192.738 182.098C 194.504 182.098 195.734 181.02 195.91 179.297L 194.105 179.297C 193.863 180.235 193.488 180.598 192.758 180.598C 191.804 180.598 191.222 179.731 191.222 178.305C 191.222 177.613 191.355 176.961 191.586 176.527C 191.8 176.121 192.218 175.902 192.758 175.902C 193.523 175.902 193.886 176.277 194.105 177.274L 195.91 177.274z"/>
<path style="stroke:none; fill-rule:evenodd; fill:#000000" d="M 200.347 174.699L 199.32 174.699L 199.32 172.774L 197.422 172.774L 197.422 174.699L 196.511 174.699L 196.511 175.899L 197.422 175.899L 197.422 180.383C 197.422 181.527 198.023 182.098 199.261 182.098C 199.675 182.098 200.011 182.059 200.347 181.953L 200.347 180.649C 200.164 180.68 200.058 180.699 199.925 180.699C 199.437 180.699 199.32 180.551 199.32 179.899L 199.32 175.902L 200.347 175.902L 200.347 174.699z"/>
<path style="stroke:none; fill-rule:evenodd; fill:#000000" d="M 349.148 188.098L 348.121 188.098L 348.121 186.172L 346.222 186.172L 346.222 188.098L 345.312 188.098L 345.312 189.297L 346.222 189.297L 346.222 193.781C 346.222 194.926 346.824 195.497 348.062 195.497C 348.476 195.497 348.812 195.458 349.148 195.352L 349.148 194.047C 348.965 194.078 348.859 194.098 348.726 194.098C 348.238 194.098 348.121 193.949 348.121 193.297L 348.121 189.301L 349.148 189.301L 349.148 188.098z"/>
<path style="stroke:none; fill-rule:evenodd; fill:#000000" d="M 350.418 185.399L 350.418 195.196L 352.316 195.196L 352.316 190.828C 352.316 189.992 352.918 189.399 353.761 189.399C 354.16 189.399 354.484 189.547 354.699 189.844C 354.859 190.086 354.914 190.274 354.914 190.746L 354.914 195.196L 356.812 195.196L 356.812 190.317C 356.812 189.414 356.57 188.77 356.074 188.352C 355.656 188.004 355.05 187.801 354.445 187.801C 353.515 187.801 352.843 188.188 352.316 189.012L 352.316 185.402L 350.418 185.399z"/>
<path style="stroke:none; fill-rule:evenodd; fill:#000000" d="M 364.738 194.961C 364.414 194.652 364.32 194.453 364.32 194.074L 364.32 190.039C 364.32 188.563 363.316 187.805 361.355 187.805C 359.398 187.805 358.379 188.649 358.258 190.356L 360.082 190.356C 360.175 189.563 360.484 189.305 361.422 189.305C 362.152 189.305 362.515 189.547 362.515 190.031C 362.515 190.274 362.398 190.488 362.195 190.598C 361.941 190.731 361.941 190.731 361.011 190.879L 360.258 191.012C 358.82 191.254 358.121 191.996 358.121 193.305C 358.121 193.922 358.293 194.438 358.629 194.801C 359.043 195.231 359.672 195.489 360.316 195.489C 361.121 195.489 361.859 195.141 362.515 194.453C 362.515 194.828 362.55 194.965 362.726 195.18L 364.73 195.18L 364.738 194.961zM 362.519 192.293C 362.519 193.379 361.984 193.996 361.039 193.996C 360.414 193.996 360.023 193.66 360.023 193.125C 360.023 192.563 360.316 192.297 361.09 192.133L 361.73 192.016C 362.222 191.922 362.304 191.899 362.515 191.789L 362.519 192.293z"/>
<path style="stroke:none; fill-rule:evenodd; fill:#000000" d="M 366.117 195.2L 368.015 195.2L 368.015 185.402L 366.117 185.402L 366.117 195.2z"/>
<path style="stroke:none; fill-rule:evenodd; fill:#000000" d="M 375.937 194.961C 375.613 194.652 375.519 194.453 375.519 194.074L 375.519 190.039C 375.519 188.563 374.515 187.805 372.554 187.805C 370.597 187.805 369.578 188.649 369.457 190.356L 371.281 190.356C 371.375 189.563 371.683 189.305 372.621 189.305C 373.351 189.305 373.715 189.547 373.715 190.031C 373.715 190.274 373.597 190.488 373.394 190.598C 373.14 190.731 373.14 190.731 372.211 190.879L 371.457 191.012C 370.019 191.254 369.32 191.996 369.32 193.305C 369.32 193.922 369.492 194.438 369.828 194.801C 370.242 195.231 370.871 195.489 371.515 195.489C 372.32 195.489 373.058 195.141 373.715 194.453C 373.715 194.828 373.75 194.965 373.925 195.18L 375.929 195.18L 375.937 194.961zM 373.718 192.293C 373.718 193.379 373.183 193.996 372.238 193.996C 371.613 193.996 371.222 193.66 371.222 193.125C 371.222 192.563 371.515 192.297 372.289 192.133L 372.929 192.016C 373.422 191.922 373.504 191.899 373.715 191.789L 373.718 192.293z"/>
<path style="stroke:none; fill-rule:evenodd; fill:#000000" d="M 377.117 188L 377.117 195.2L 379.015 195.2L 379.015 190.832C 379.015 189.945 379.496 189.402 380.297 189.402C 380.922 189.402 381.312 189.766 381.312 190.344L 381.312 195.196L 383.211 195.196L 383.211 190.828C 383.211 189.942 383.672 189.399 384.437 189.399C 385.035 189.399 385.406 189.762 385.406 190.34L 385.406 195.192L 387.304 195.192L 387.304 190.047C 387.304 188.633 386.457 187.797 385.023 187.797C 384.121 187.797 383.484 188.133 382.925 188.914C 382.582 188.203 381.867 187.797 380.976 187.797C 380.156 187.797 379.625 188.09 379.011 188.859L 379.011 187.996L 377.117 188z"/>
<path style="stroke:none; fill-rule:evenodd; fill:#000000" d="M 395.519 195.192L 395.519 188L 393.621 188L 393.621 192.488C 393.621 193.336 393.023 193.895 392.121 193.895C 391.324 193.895 390.925 193.473 390.925 192.609L 390.925 188L 389.027 188L 389.027 193.008C 389.027 194.59 389.91 195.497 391.453 195.497C 392.429 195.497 393.086 195.141 393.625 194.34L 393.625 195.192L 395.519 195.192z"/>
<path style="stroke:none; fill-rule:evenodd; fill:#000000" d="M 403.183 190.297C 403.156 188.742 401.972 187.801 400.015 187.801C 398.172 187.801 397.023 188.727 397.023 190.215C 397.023 190.695 397.172 191.113 397.429 191.395C 397.683 191.649 397.914 191.77 398.621 191.996L 400.882 192.692C 401.355 192.836 401.519 192.985 401.519 193.281C 401.519 193.723 400.996 193.992 400.125 193.992C 399.644 193.992 399.254 193.902 399.011 193.75C 398.812 193.609 398.73 193.469 398.652 193.094L 396.816 193.094C 396.867 194.668 398.039 195.493 400.25 195.493C 401.258 195.493 402.023 195.282 402.562 194.852C 403.097 194.426 403.422 193.754 403.422 193.043C 403.422 192.106 402.949 191.5 401.988 191.219L 399.59 190.535C 399.062 190.375 398.929 190.27 398.929 189.973C 398.929 189.574 399.359 189.301 400.015 189.301C 400.914 189.301 401.359 189.625 401.371 190.297L 403.183 190.297z"/>
<path style="stroke:#0000ff; stroke-width:1.9133; fill:none" d="M 240.332 50.0673L 217.375 81.1563"/>
<path style="stroke:#0000ff; stroke-width:1.9133; fill:none" d="M 223.457 76.1373L 217.375 81.1563L 220.379 73.8633"/>
<path style="stroke:#0000ff; stroke-width:3.8266; fill:none" d="M 306.34 52.9383L 359.433 174.91"/>
<path style="stroke:#0000ff; stroke-width:3.8266; fill:none" d="M 307.64 60.7193L 306.343 52.9423L 311.152 59.1953"/>
<path style="stroke:#0000ff; stroke-width:3.8266; fill:none" d="M 358.136 167.129L 359.433 174.906L 354.625 168.652"/>
<path style="stroke:#ff0000; stroke-dasharray:6,3; stroke-width:2.8699499999999998; fill:none" d="M 165.234 116.555L 223.109 205.043"/>
<path style="stroke:none; fill-rule:evenodd; fill:#000000" d="M 249.418 20.2193L 247.519 20.2193L 247.519 30.3953L 249.418 30.3953L 249.418 26.6413C 249.867 27.4263 250.508 27.7973 251.41 27.7973C 253.136 27.7973 254.414 26.1603 254.414 23.9573C 254.414 22.9383 254.121 21.9183 253.644 21.2463C 253.168 20.5633 252.277 20.1063 251.414 20.1063C 250.511 20.1063 249.875 20.4923 249.422 21.2973L 249.418 20.2193zM 250.968 21.6993C 251.898 21.6993 252.515 22.6133 252.515 23.9813C 252.515 25.2813 251.875 26.1953 250.968 26.1953C 250.05 26.1953 249.422 25.2973 249.422 23.9533C 249.422 22.6133 250.05 21.6993 250.968 21.6993z"/>
<path style="stroke:none; fill-rule:evenodd; fill:#000000" d="M 255.718 20.2973L 255.718 27.4963L 257.617 27.4963L 257.617 23.7193C 257.617 22.6413 258.168 22.1023 259.277 22.1023C 259.476 22.1023 259.613 22.0943 259.871 22.0673L 259.871 20.2073C 259.765 20.2073 259.695 20.2073 259.644 20.2073C 258.781 20.2073 258.027 20.7503 257.621 21.6923L 257.621 20.3053L 255.718 20.2973z"/>
<path style="stroke:none; fill-rule:evenodd; fill:#000000" d="M 267.136 24.5003C 267.148 24.3403 267.148 24.2703 267.148 24.1763C 267.148 23.4423 267.043 22.7623 266.871 22.2423C 266.39 20.9103 265.226 20.1063 263.765 20.1063C 261.691 20.1063 260.418 21.6133 260.418 24.0473C 260.418 26.3713 261.675 27.8013 263.722 27.8013C 265.34 27.8013 266.652 26.8833 267.07 25.4653L 265.222 25.4653C 264.996 26.0553 264.472 26.3993 263.793 26.3993C 263.258 26.3993 262.832 26.1723 262.562 25.7703C 262.39 25.5043 262.324 25.1843 262.297 24.5003L 267.136 24.5003zM 262.312 23.2973C 262.429 22.0983 262.898 21.5003 263.73 21.5003C 264.199 21.5003 264.625 21.7463 264.894 22.1563C 265.066 22.4493 265.148 22.7543 265.187 23.2973L 262.312 23.2973z"/>
<path style="stroke:none; fill-rule:evenodd; fill:#000000" d="M 270.406 17.9383L 267.648 27.6993L 268.543 27.6993L 271.3 17.9383L 270.406 17.9383z"/>
<path style="stroke:none; fill-rule:evenodd; fill:#000000" d="M 272.117 20.2973L 272.117 27.4963L 274.015 27.4963L 274.015 23.1293C 274.015 22.2423 274.496 21.6993 275.297 21.6993C 275.922 21.6993 276.312 22.0633 276.312 22.6413L 276.312 27.4923L 278.211 27.4923L 278.211 23.1253C 278.211 22.2383 278.672 21.6953 279.437 21.6953C 280.035 21.6953 280.406 22.0593 280.406 22.6373L 280.406 27.4883L 282.304 27.4883L 282.304 22.3443C 282.304 20.9303 281.457 20.0943 280.023 20.0943C 279.121 20.0943 278.484 20.4303 277.925 21.2113C 277.582 20.5003 276.867 20.0943 275.976 20.0943C 275.156 20.0943 274.625 20.3873 274.011 21.1563L 274.011 20.2933L 272.117 20.2973z"/>
<path style="stroke:none; fill-rule:evenodd; fill:#000000" d="M 287.254 20.0983C 285.062 20.0983 283.718 21.5633 283.718 23.9453C 283.718 26.3403 285.058 27.7933 287.265 27.7933C 289.445 27.7933 290.812 26.3283 290.812 24.0003C 290.812 21.5393 289.5 20.0983 287.25 20.0983L 287.254 20.0983zM 287.269 21.5983C 288.269 21.5983 288.918 22.5353 288.918 23.9733C 288.918 25.3403 288.242 26.2933 287.269 26.2933C 286.285 26.2933 285.621 25.3443 285.621 23.9453C 285.621 22.5473 286.281 21.5983 287.269 21.5983z"/>
<path style="stroke:none; fill-rule:evenodd; fill:#000000" d="M 295.449 20.3993L 294.422 20.3993L 294.422 18.4733L 292.523 18.4733L 292.523 20.3993L 291.613 20.3993L 291.613 21.5983L 292.523 21.5983L 292.523 26.0823C 292.523 27.2273 293.125 27.7973 294.363 27.7973C 294.777 27.7973 295.113 27.7583 295.449 27.6523L 295.449 26.3483C 295.265 26.3793 295.16 26.3993 295.027 26.3993C 294.539 26.3993 294.422 26.2503 294.422 25.5983L 294.422 21.6023L 295.449 21.6023L 295.449 20.3993z"/>
<path style="stroke:none; fill-rule:evenodd; fill:#000000" d="M 299.953 20.0983C 297.761 20.0983 296.418 21.5633 296.418 23.9453C 296.418 26.3403 297.758 27.7933 299.965 27.7933C 302.144 27.7933 303.511 26.3283 303.511 24.0003C 303.511 21.5393 302.199 20.0983 299.949 20.0983L 299.953 20.0983zM 299.968 21.5983C 300.968 21.5983 301.617 22.5353 301.617 23.9733C 301.617 25.3403 300.941 26.2933 299.968 26.2933C 298.984 26.2933 298.32 25.3443 298.32 23.9453C 298.32 22.5473 298.98 21.5983 299.968 21.5983z"/>
<path style="stroke:none; fill-rule:evenodd; fill:#000000" d="M 304.82 20.2973L 304.82 27.4963L 306.718 27.4963L 306.718 23.7193C 306.718 22.6413 307.269 22.1023 308.379 22.1023C 308.578 22.1023 308.715 22.0943 308.972 22.0673L 308.972 20.2073C 308.867 20.2073 308.797 20.2073 308.746 20.2073C 307.882 20.2073 307.129 20.7503 306.722 21.6923L 306.722 20.3053L 304.82 20.2973z"/>
<path style="stroke:none; fill-rule:evenodd; fill:#000000" d="M 257.508 36.3713C 257.375 34.5783 256.187 33.5003 254.363 33.5003C 252.191 33.5003 250.922 34.9263 250.922 37.4023C 250.922 39.7973 252.175 41.1953 254.336 41.1953C 256.101 41.1953 257.332 40.1173 257.508 38.3953L 255.703 38.3953C 255.461 39.3323 255.086 39.6953 254.355 39.6953C 253.402 39.6953 252.82 38.8283 252.82 37.4023C 252.82 36.7113 252.953 36.0593 253.183 35.6253C 253.398 35.2193 253.816 35.0003 254.355 35.0003C 255.121 35.0003 255.484 35.3753 255.703 36.3713L 257.508 36.3713z"/>
<path style="stroke:none; fill-rule:evenodd; fill:#000000" d="M 261.953 33.5003C 259.761 33.5003 258.418 34.9653 258.418 37.3483C 258.418 39.7423 259.758 41.1953 261.965 41.1953C 264.144 41.1953 265.511 39.7313 265.511 37.4023C 265.511 34.9423 264.199 33.5003 261.949 33.5003L 261.953 33.5003zM 261.968 35.0003C 262.968 35.0003 263.617 35.9383 263.617 37.3753C 263.617 38.7423 262.941 39.6953 261.968 39.6953C 260.984 39.6953 260.32 38.7463 260.32 37.3483C 260.32 35.9493 260.98 35.0003 261.968 35.0003z"/>
<path style="stroke:none; fill-rule:evenodd; fill:#000000" d="M 266.918 33.6993L 266.918 40.8993L 268.816 40.8993L 268.816 37.1213C 268.816 36.0433 269.367 35.5043 270.476 35.5043C 270.675 35.5043 270.812 35.4963 271.07 35.4693L 271.07 33.6093C 270.965 33.6093 270.894 33.6093 270.843 33.6093C 269.98 33.6093 269.226 34.1523 268.82 35.0943L 268.82 33.7073L 266.918 33.6993z"/>
<path style="stroke:none; fill-rule:evenodd; fill:#000000" d="M 275.347 33.7973L 274.32 33.7973L 274.32 31.8713L 272.422 31.8713L 272.422 33.7973L 271.511 33.7973L 271.511 34.9963L 272.422 34.9963L 272.422 39.4813C 272.422 40.6253 273.023 41.1953 274.261 41.1953C 274.675 41.1953 275.011 41.1563 275.347 41.0513L 275.347 39.7463C 275.164 39.7773 275.058 39.7973 274.925 39.7973C 274.437 39.7973 274.32 39.6493 274.32 38.9963L 274.32 35.0003L 275.347 35.0003L 275.347 33.7973z"/>
<path style="stroke:none; fill-rule:evenodd; fill:#000000" d="M 282.836 37.8993C 282.847 37.7383 282.847 37.6683 282.847 37.5743C 282.847 36.8403 282.742 36.1603 282.57 35.6413C 282.09 34.3093 280.925 33.5043 279.465 33.5043C 277.39 33.5043 276.117 35.0123 276.117 37.4453C 276.117 39.7703 277.375 41.1993 279.422 41.1993C 281.039 41.1993 282.351 40.2813 282.769 38.8633L 280.922 38.8633C 280.695 39.4533 280.172 39.7973 279.492 39.7973C 278.957 39.7973 278.531 39.5703 278.261 39.1683C 278.09 38.9023 278.023 38.5823 277.996 37.8993L 282.836 37.8993zM 278.015 36.6993C 278.132 35.5003 278.601 34.9023 279.433 34.9023C 279.902 34.9023 280.328 35.1493 280.597 35.5593C 280.769 35.8523 280.851 36.1563 280.89 36.6993L 278.015 36.6993z"/>
<path style="stroke:none; fill-rule:evenodd; fill:#000000" d="M 287.972 37.2743L 290.328 33.7033L 288.078 33.7033L 286.914 35.8523L 285.738 33.7033L 283.488 33.7033L 285.843 37.2743L 283.433 40.8993L 285.683 40.8993L 286.914 38.6493L 288.132 40.8993L 290.382 40.8993L 287.972 37.2743z"/>
<path style="stroke:none; fill-rule:evenodd; fill:#000000" d="M 243.242 214.797L 239.347 214.797L 239.347 216.497L 241.558 216.497C 241.508 217.051 241.375 217.391 241.082 217.747C 240.605 218.34 239.871 218.696 239.097 218.696C 237.484 218.696 236.324 217.278 236.324 215.27C 236.324 213.172 237.347 211.899 239.043 211.899C 239.734 211.899 240.32 212.098 240.761 212.485C 241.039 212.723 241.187 212.95 241.359 213.453L 243.238 213.453C 243 211.461 241.371 210.2 239.023 210.2C 236.226 210.2 234.32 212.27 234.32 215.297C 234.32 218.247 236.238 220.395 238.867 220.395C 240.172 220.395 241.05 219.926 241.8 218.817L 242.039 220.11L 243.238 220.11L 243.242 214.797z"/>
<path style="stroke:none; fill-rule:evenodd; fill:#000000" d="M 247.117 216.598L 249.64 216.598C 251.449 216.598 252.613 215.325 252.613 213.336C 252.613 211.375 251.496 210.301 249.449 210.301L 245.117 210.301L 245.117 220.098L 247.117 220.098L 247.117 216.598zM 247.117 214.899L 247.117 212L 249.019 212C 250.105 212 250.609 212.461 250.609 213.453C 250.609 214.43 250.105 214.895 249.019 214.895L 247.117 214.899z"/>
<path style="stroke:none; fill-rule:evenodd; fill:#000000" d="M 255.918 212.868L 254.019 212.868L 254.019 220.098L 255.918 220.098L 255.918 212.868zM 255.918 210.297L 254.019 210.297L 254.019 211.997L 255.918 211.997L 255.918 210.297z"/>
<path style="stroke:none; fill-rule:evenodd; fill:#ff0000" d="M 240.425 137.602C 240.425 136.758 239.742 136.074 238.898 136.074C 238.054 136.074 237.371 136.758 237.371 137.602C 237.371 138.445 238.054 139.129 238.898 139.129C 239.742 139.129 240.425 138.445 240.425 137.602"/>
<path style="stroke:#ff0000; stroke-width:1.9133; fill:none" d="M 240.425 137.602C 240.425 136.758 239.742 136.074 238.898 136.074C 238.054 136.074 237.371 136.758 237.371 137.602C 237.371 138.445 238.054 139.129 238.898 139.129C 239.742 139.129 240.425 138.445 240.425 137.602"/>
<path style="stroke:none; fill-rule:evenodd; fill:#ff0000" d="M 258.449 194.903C 258.449 192.793 256.738 191.078 254.625 191.078C 252.515 191.078 250.8 192.789 250.8 194.903C 250.8 197.012 252.511 198.727 254.625 198.727C 256.734 198.727 258.449 197.016 258.449 194.903"/>
<path style="stroke:#ff0000; stroke-width:1.9133; fill:none" d="M 258.449 194.903C 258.449 192.793 256.738 191.078 254.625 191.078C 252.515 191.078 250.8 192.789 250.8 194.903C 250.8 197.012 252.511 198.727 254.625 198.727C 256.734 198.727 258.449 197.016 258.449 194.903"/>
<path style="stroke:none; fill-rule:evenodd; fill:#ff0000" d="M 339.265 197.68C 339.265 196.836 338.582 196.153 337.738 196.153C 336.894 196.153 336.211 196.836 336.211 197.68C 336.211 198.524 336.894 199.208 337.738 199.208C 338.582 199.208 339.265 198.524 339.265 197.68"/>
<path style="stroke:#ff0000; stroke-width:1.9133; fill:none" d="M 339.265 197.68C 339.265 196.836 338.582 196.153 337.738 196.153C 336.894 196.153 336.211 196.836 336.211 197.68C 336.211 198.524 336.894 199.208 337.738 199.208C 338.582 199.208 339.265 198.524 339.265 197.68"/>
<path style="stroke:#ff0000; stroke-dasharray:6,3; stroke-width:0.0; fill:none" d="M 283.105 211.637L 334.461 199.043"/>
<path style="stroke:none; fill-rule:evenodd; fill:#0000ff" d="M 156.418 110.699C 156.015 110.699 155.769 110.914 155.769 111.297C 155.769 111.477 155.859 111.668 156.008 111.774C 156.109 111.856 156.258 111.891 156.531 111.891L 158.867 111.891C 159.859 111.891 160.547 111.629 161.109 111.031C 161.632 110.481 161.91 109.77 161.91 108.93L 161.91 108.391C 161.91 106.59 160.629 105.199 158.957 105.199L 156.531 105.199C 156.222 105.199 156.144 105.211 156.043 105.281C 155.871 105.387 155.769 105.59 155.769 105.797C 155.769 106.18 156 106.395 156.418 106.395L 156.418 110.699zM 157.617 110.699L 157.617 106.402L 158.851 106.402C 159.445 106.402 159.871 106.582 160.207 106.973C 160.531 107.352 160.711 107.848 160.711 108.375L 160.711 108.891C 160.711 109.461 160.566 109.856 160.25 110.203C 159.902 110.559 159.531 110.695 158.859 110.695L 157.617 110.699z"/>
<path style="stroke:none; fill-rule:evenodd; fill:#0000ff" d="M 166.519 104.574L 164.101 105.199C 163.648 105.313 163.5 105.449 163.5 105.777C 163.5 106.106 163.718 106.367 164.008 106.367C 164.117 106.367 164.148 106.359 164.359 106.301L 165.32 106.039L 165.32 110.692L 164.207 110.692C 163.922 110.692 163.843 110.703 163.746 110.774C 163.582 110.879 163.48 111.082 163.48 111.289C 163.48 111.469 163.57 111.66 163.718 111.766C 163.808 111.848 163.968 111.883 164.234 111.883L 167.699 111.883C 167.925 111.883 168.097 111.848 168.179 111.801C 168.351 111.684 168.453 111.492 168.453 111.285C 168.453 111.094 168.363 110.914 168.211 110.797C 168.097 110.715 168.004 110.692 167.691 110.692L 166.523 110.692L 166.519 104.574z"/>
<path style="stroke:none; fill-rule:evenodd; fill:#000000" d="M 172.418 97.6563L 166.515 97.6563L 166.515 98.0823C 167.965 98.1643 168.218 98.3523 168.218 99.2703L 168.218 101.051C 168.218 101.914 167.726 102.289 166.582 102.289C 165.511 102.289 164.793 101.965 164.23 101.231C 163.48 100.277 163.125 98.8053 163.125 96.7583C 163.125 93.1923 164.203 91.2933 166.285 91.2933C 167.074 91.2933 167.812 91.5983 168.57 92.2463C 169.308 92.8913 169.703 93.4733 170.304 94.7703L 170.734 94.7703L 170.734 90.7423L 170.273 90.7423C 170.035 91.3443 169.847 91.5313 169.523 91.5313C 169.371 91.5313 169.113 91.4653 168.738 91.2933C 167.73 90.8833 166.91 90.6923 166.086 90.6923C 162.683 90.6923 160.132 93.3363 160.132 96.8753C 160.132 100.41 162.625 102.887 166.211 102.887C 167.968 102.887 169.832 102.477 170.925 101.828L 170.925 99.6523C 170.925 98.4223 171.117 98.2153 172.425 98.0783L 172.418 97.6563z"/>
<path style="stroke:none; fill-rule:evenodd; fill:#000000" d="M 177.125 94.5003C 174.929 94.5003 173.218 96.2893 173.218 98.6063C 173.218 101.039 174.859 102.793 177.125 102.793C 179.351 102.793 181.015 101.024 181.015 98.6563C 181.015 96.2743 179.355 94.5003 177.125 94.5003zM 177.144 95.0983C 178.175 95.0983 178.515 96.0163 178.515 98.7543C 178.515 101.324 178.16 102.192 177.125 102.192C 176.074 102.192 175.718 101.34 175.718 98.9023C 175.718 95.9653 176.039 95.0943 177.144 95.0943L 177.144 95.0983z"/>
<path style="stroke:none; fill-rule:evenodd; fill:#000000" d="M 216.019 100.598L 216.019 96.1763C 216.019 95.6723 216.093 95.3633 216.242 95.2543C 216.347 95.1723 216.457 95.1373 216.75 95.1063L 216.75 94.9063L 214.781 94.9063L 214.781 95.1063C 215.109 95.1293 215.234 95.1643 215.367 95.2383C 215.539 95.3563 215.621 95.6563 215.621 96.1763L 215.621 99.0043L 212.367 94.8993L 210.925 94.8993L 210.925 95.0983C 211.277 95.0983 211.394 95.1643 211.722 95.5553L 211.722 99.2273C 211.722 100.082 211.609 100.242 210.925 100.289L 210.925 100.488L 212.894 100.488L 212.894 100.289C 212.261 100.258 212.125 100.067 212.125 99.2273L 212.125 95.9693L 215.879 100.59L 216.019 100.598z"/>
<path style="stroke:none; fill-rule:evenodd; fill:#000000" d="M 219.023 96.5983C 217.965 96.5983 217.222 97.4143 217.222 98.5863C 217.222 99.7353 217.98 100.594 219.008 100.594C 220.035 100.594 220.82 99.6953 220.82 98.5203C 220.82 97.4063 220.07 96.5983 219.027 96.5983L 219.023 96.5983zM 218.914 96.8993C 219.621 96.8993 220.117 97.6843 220.117 98.8093C 220.117 99.7353 219.738 100.293 219.105 100.293C 218.777 100.293 218.468 100.098 218.289 99.7703C 218.054 99.3443 217.922 98.7703 217.922 98.1883C 217.922 97.4103 218.316 96.9023 218.914 96.9023L 218.914 96.8993z"/>
<path style="stroke:none; fill-rule:evenodd; fill:#000000" d="M 227.066 97.5273L 224.929 97.5273L 224.929 97.6763C 225.312 97.6993 225.422 97.7233 225.531 97.7933C 225.664 97.8673 225.718 98.0633 225.718 98.4263L 225.718 99.7933C 225.718 100.063 225.195 100.289 224.578 100.289C 223.179 100.289 222.32 99.3203 222.32 97.7353C 222.32 96.9343 222.554 96.1603 222.925 95.7423C 223.293 95.3243 223.82 95.0983 224.394 95.0983C 224.867 95.0983 225.277 95.2623 225.609 95.5783C 225.863 95.8203 225.996 96.0593 226.207 96.5943L 226.398 96.5943L 226.332 94.7973L 226.148 94.7973C 226.097 94.9533 225.945 95.0703 225.765 95.0703C 225.683 95.0703 225.547 95.0473 225.394 94.9883C 225.011 94.8633 224.621 94.7973 224.238 94.7973C 222.539 94.7973 221.324 96.0313 221.324 97.7463C 221.324 98.5673 221.554 99.1993 222.035 99.6953C 222.605 100.274 223.429 100.594 224.371 100.594C 225.105 100.594 226.175 100.305 226.519 100.012L 226.519 98.3203C 226.519 97.8323 226.613 97.7233 227.066 97.6803L 227.066 97.5273z"/>
<path style="stroke:none; fill-rule:evenodd; fill:#000000" d="M 229.222 96.5983C 228.164 96.5983 227.422 97.4143 227.422 98.5863C 227.422 99.7353 228.179 100.594 229.207 100.594C 230.234 100.594 231.019 99.6953 231.019 98.5203C 231.019 97.4063 230.269 96.5983 229.226 96.5983L 229.222 96.5983zM 229.113 96.8993C 229.82 96.8993 230.316 97.6843 230.316 98.8093C 230.316 99.7353 229.937 100.293 229.304 100.293C 228.976 100.293 228.668 100.098 228.488 99.7703C 228.254 99.3443 228.121 98.7703 228.121 98.1883C 228.121 97.4103 228.515 96.9023 229.113 96.9023L 229.113 96.8993z"/>
<path style="stroke:none; fill-rule:evenodd; fill:#ed89ed" d="M 134.226 80.2073L 133.293 80.7193L 137.324 88.0513L 141.879 85.5473L 141.425 84.7233L 137.808 86.7113L 134.226 80.2073z"/>
<path style="stroke:none; fill-rule:evenodd; fill:#ed89ed" d="M 142.097 76.9343L 144.5 75.6133L 144.047 74.7893L 138.293 77.9493L 138.746 78.7743L 141.156 77.4493L 144.734 83.9573L 145.668 83.4453L 142.097 76.9343z"/>
<path style="stroke:none; fill-rule:evenodd; fill:#ed89ed" d="M 148.461 77.9733L 150.761 76.7073C 151.332 76.3953 151.691 75.9733 151.89 75.4063C 152.109 74.7623 152.039 74.1843 151.675 73.5123C 150.918 72.1373 149.679 71.8093 148.23 72.6063L 145.203 74.2703L 149.234 81.6023L 150.168 81.0903L 148.461 77.9733zM 148.008 77.1493L 146.593 74.5743L 148.543 73.5043C 149.437 73.0123 150.234 73.2033 150.679 74.0043C 151.121 74.8093 150.851 75.5823 149.961 76.0743L 148.008 77.1493z"/>
<path style="stroke:none; fill-rule:evenodd; fill:#ed89ed" d="M 241.562 71.2623L 240.765 70.5553L 235.207 76.8093L 239.093 80.2623L 239.718 79.5593L 236.632 76.8173L 241.562 71.2623z"/>
<path style="stroke:none; fill-rule:evenodd; fill:#ed89ed" d="M 247.191 77.6493L 249.242 79.4693L 249.867 78.7663L 244.961 74.4063L 244.336 75.1093L 246.394 76.9383L 241.461 82.4883L 242.258 83.1953L 247.191 77.6493z"/>
<path style="stroke:none; fill-rule:evenodd; fill:#ed89ed" d="M 245.281 85.7773L 247.691 87.9183C 249.269 89.3203 251.289 88.9963 253.019 87.0553C 254.742 85.1173 254.832 83.0783 253.246 81.6683L 250.836 79.5273L 245.281 85.7773zM 246.707 85.7813L 251.015 80.9343L 252.488 82.2423C 253.722 83.3403 253.632 84.7503 252.218 86.3483C 250.816 87.9263 249.418 88.1883 248.183 87.0863L 246.707 85.7813z"/>
</g>
</svg>