<?xml version="1.0" encoding="ISO-8859-1" standalone="yes"?>
<svg width="386.297" height="402.801">
  <defs> 
    <marker id="ArrowEnd" viewBox="0 0 10 10" refX="0" refY="5" 
     markerUnits="strokeWidth" 
     markerWidth="4" 
     markerHeight="3" 
     orient="auto"> 
        <path d="M 0 0 L 10 5 L 0 10 z" /> 
    </marker>
    <marker id="ArrowStart" viewBox="0 0 10 10" refX="10" refY="5" 
     markerUnits="strokeWidth" 
     markerWidth="4" 
     markerHeight="3" 
     orient="auto"> 
        <path d="M 10 0 L 0 5 L 10 10 z" /> 
    </marker> </defs>
<g>
<path style="stroke:#000000; stroke-width:0.10000000000000001; fill:none" d="M 368.34 102.582L 385.133 102.582L 381.136 110.578L 364.344 110.578"/>
<path style="stroke:none; fill-rule:evenodd; fill:#000000" d="M 371.539 103.383L 371.539 117.778L 364.344 110.582"/>
<path style="stroke:#000000; stroke-width:0.10000000000000001; fill:none" d="M 371.539 103.383L 371.539 117.778L 364.344 110.582L 371.539 103.383z"/>
<path style="stroke:#000000; stroke-width:0.10000000000000001; fill:none" d="M 313.961 119.375L 327.554 226.536L 313.961 119.375z"/>
<path style="stroke:none; fill-rule:evenodd; fill:#000000" d="M 321.957 124.973L 307.562 127.371L 313.957 119.375"/>
<path style="stroke:#000000; stroke-width:0.10000000000000001; fill:none" d="M 321.957 124.973L 307.562 127.371L 313.957 119.375L 321.957 124.973z"/>
<path style="stroke:#000000; stroke-width:0.10000000000000001; fill:none" d="M 317.16 226.536L 305.168 119.375L 317.16 226.536z"/>
<path style="stroke:none; fill-rule:evenodd; fill:#000000" d="M 309.16 220.938L 323.554 219.34L 317.16 226.536"/>
<path style="stroke:#000000; stroke-width:0.10000000000000001; fill:none" d="M 309.16 220.938L 323.554 219.34L 317.16 226.536L 309.16 220.938z"/>
<path style="stroke:#000000; stroke-width:0.10000000000000001; fill:none" d="M 286.769 232.934L 247.586 226.539L 286.769 232.934z"/>
<path style="stroke:none; fill-rule:evenodd; fill:#000000" d="M 277.972 239.332L 280.371 224.938L 286.765 232.934"/>
<path style="stroke:#000000; stroke-width:0.10000000000000001; fill:none" d="M 277.972 239.332L 280.371 224.938L 286.765 232.934L 277.972 239.332z"/>
<path style="stroke:#000000; stroke-width:0.10000000000000001; fill:none" d="M 241.187 108.18L 281.968 110.578L 241.187 108.18z"/>
<path style="stroke:none; fill-rule:evenodd; fill:#000000" d="M 249.183 101.782L 248.386 116.176L 241.191 108.18"/>
<path style="stroke:#000000; stroke-width:0.10000000000000001; fill:none" d="M 249.183 101.782L 248.386 116.176L 241.191 108.18L 249.183 101.782z"/>
<path style="stroke:#000000; stroke-width:0.10000000000000001; fill:none" d="M 264.379 51.403L 281.968 51.403L 268.375 85.789L 251.582 85.789"/>
<path style="stroke:none; fill-rule:evenodd; fill:#000000" d="M 257.98 78.59L 257.98 92.184L 251.586 85.789"/>
<path style="stroke:#000000; stroke-width:0.10000000000000001; fill:none" d="M 257.98 78.59L 257.98 92.184L 251.586 85.789L 257.98 78.59z"/>
<path style="stroke:#000000; stroke-width:0.10000000000000001; fill:none" d="M 303.562 226.536L 221.195 119.375L 303.562 226.536z"/>
<path style="stroke:none; fill-rule:evenodd; fill:#000000" d="M 293.968 225.739L 305.164 216.942L 303.566 226.536"/>
<path style="stroke:#000000; stroke-width:0.10000000000000001; fill:none" d="M 293.968 225.739L 305.164 216.942L 303.566 226.536L 293.968 225.739z"/>
<path style="stroke:#000000; stroke-width:0.10000000000000001; fill:none" d="M 204.398 119.375L 292.363 226.536L 204.398 119.375z"/>
<path style="stroke:none; fill-rule:evenodd; fill:#000000" d="M 214.797 120.176L 203.601 128.973L 204.398 119.379"/>
<path style="stroke:#000000; stroke-width:0.10000000000000001; fill:none" d="M 214.797 120.176L 203.601 128.973L 204.398 119.379L 214.797 120.176z"/>
<path style="stroke:#000000; stroke-width:0.10000000000000001; fill:none" d="M 293.968 119.375L 268.379 151.36L 293.968 119.375z"/>
<path style="stroke:none; fill-rule:evenodd; fill:#000000" d="M 294.765 128.973L 283.57 120.176L 293.965 119.379"/>
<path style="stroke:#000000; stroke-width:0.10000000000000001; fill:none" d="M 294.765 128.973L 283.57 120.176L 293.965 119.379L 294.765 128.973z"/>
<path style="stroke:#000000; stroke-width:0.10000000000000001; fill:none" d="M 250.785 151.364L 280.371 119.379L 250.785 151.364z"/>
<path style="stroke:none; fill-rule:evenodd; fill:#000000" d="M 250.785 140.969L 261.179 150.563L 250.785 151.36"/>
<path style="stroke:#000000; stroke-width:0.10000000000000001; fill:none" d="M 250.785 140.969L 261.179 150.563L 250.785 151.36L 250.785 140.969z"/>
<path style="stroke:#000000; stroke-width:0.10000000000000001; fill:none" d="M 361.14 360.086L 238.789 247.328L 361.14 360.086z"/>
<path style="stroke:none; fill-rule:evenodd; fill:#000000" d="M 350.746 360.086L 360.34 349.692L 361.136 360.086"/>
<path style="stroke:#000000; stroke-width:0.10000000000000001; fill:none" d="M 350.746 360.086L 360.34 349.692L 361.136 360.086L 350.746 360.086z"/>
<path style="stroke:#000000; stroke-width:0.10000000000000001; fill:none" d="M 225.191 252.129L 346.746 360.086L 225.191 252.129z"/>
<path style="stroke:none; fill-rule:evenodd; fill:#000000" d="M 235.59 251.328L 225.996 261.723L 225.199 252.129"/>
<path style="stroke:#000000; stroke-width:0.10000000000000001; fill:none" d="M 235.59 251.328L 225.996 261.723L 225.199 252.129L 235.59 251.328z"/>
<path style="stroke:#000000; stroke-width:0.10000000000000001; fill:none" d="M 188.406 119.375L 162.816 151.36L 188.406 119.375z"/>
<path style="stroke:none; fill-rule:evenodd; fill:#000000" d="M 189.207 128.973L 178.011 120.176L 188.406 119.379"/>
<path style="stroke:#000000; stroke-width:0.10000000000000001; fill:none" d="M 189.207 128.973L 178.011 120.176L 188.406 119.379L 189.207 128.973z"/>
<path style="stroke:#000000; stroke-width:0.10000000000000001; fill:none" d="M 146.82 151.364L 171.609 119.379L 146.82 151.364z"/>
<path style="stroke:none; fill-rule:evenodd; fill:#000000" d="M 145.222 140.969L 156.418 149.762L 146.824 151.36"/>
<path style="stroke:#000000; stroke-width:0.10000000000000001; fill:none" d="M 145.222 140.969L 156.418 149.762L 146.824 151.36L 145.222 140.969z"/>
<path style="stroke:#000000; stroke-width:0.10000000000000001; fill:none" d="M 154.816 252.129L 195.597 284.114L 154.816 252.129z"/>
<path style="stroke:none; fill-rule:evenodd; fill:#000000" d="M 164.414 250.528L 155.621 261.723L 154.824 252.129"/>
<path style="stroke:#000000; stroke-width:0.10000000000000001; fill:none" d="M 164.414 250.528L 155.621 261.723L 154.824 252.129L 164.414 250.528z"/>
<path style="stroke:none; fill-rule:evenodd; fill:#7a7a7a" d="M 112.433 288.114L 149.218 288.114L 140.422 309.703L 103.636 309.703"/>
<path style="stroke:#7a7a7a; stroke-width:0.10000000000000001; fill:none" d="M 112.433 288.114L 149.218 288.114L 140.422 309.703L 103.636 309.703L 112.433 288.114z"/>
<path style="stroke:#000000; stroke-width:0.10000000000000001; fill:none" d="M 112.433 288.114L 149.218 288.114L 140.422 309.703L 103.636 309.703L 112.433 288.114z"/>
<path style="stroke:none; fill-rule:evenodd; fill:#ffff00" d="M 113.832 289.196L 146.937 289.196L 139.023 308.625L 105.918 308.625"/>
<path style="stroke:#ffff00; stroke-width:0.10000000000000001; fill:none" d="M 113.832 289.196L 146.937 289.196L 139.023 308.625L 105.918 308.625L 113.832 289.196z"/>
<path style="stroke:none; fill-rule:evenodd; fill:#7a7a7a" d="M 153.218 288.114L 190.004 288.114L 182.008 309.703L 144.422 309.703"/>
<path style="stroke:#7a7a7a; stroke-width:0.10000000000000001; fill:none" d="M 153.218 288.114L 190.004 288.114L 182.008 309.703L 144.422 309.703L 153.218 288.114z"/>
<path style="stroke:#000000; stroke-width:0.10000000000000001; fill:none" d="M 153.218 288.114L 190.004 288.114L 182.008 309.703L 144.422 309.703L 153.218 288.114z"/>
<path style="stroke:#ffffff; stroke-width:0.10000000000000001; fill:none" d="M 166.812 299.309L 166.812 299.309z"/>
<path style="stroke:none; fill-rule:evenodd; fill:#7a7a7a" d="M 102.039 312.907L 138.824 312.907L 130.027 334.496L 93.2422 334.496"/>
<path style="stroke:#7a7a7a; stroke-width:0.10000000000000001; fill:none" d="M 102.039 312.907L 138.824 312.907L 130.027 334.496L 93.2422 334.496L 102.039 312.907z"/>
<path style="stroke:#000000; stroke-width:0.10000000000000001; fill:none" d="M 102.039 312.907L 138.824 312.907L 130.027 334.496L 93.2422 334.496L 102.039 312.907z"/>
<path style="stroke:none; fill-rule:evenodd; fill:#ffff00" d="M 104.156 314.746L 135.824 314.746L 127.91 333.457L 96.2422 333.457"/>
<path style="stroke:#ffff00; stroke-width:0.10000000000000001; fill:none" d="M 104.156 314.746L 135.824 314.746L 127.91 333.457L 96.2422 333.457L 104.156 314.746z"/>
<path style="stroke:none; fill-rule:evenodd; fill:#7a7a7a" d="M 142.824 312.907L 180.41 312.907L 171.617 334.496L 134.832 334.496"/>
<path style="stroke:#7a7a7a; stroke-width:0.10000000000000001; fill:none" d="M 142.824 312.907L 180.41 312.907L 171.617 334.496L 134.832 334.496L 142.824 312.907z"/>
<path style="stroke:#000000; stroke-width:0.10000000000000001; fill:none" d="M 142.824 312.907L 180.41 312.907L 171.617 334.496L 134.832 334.496L 142.824 312.907z"/>
<path style="stroke:#ffffff; stroke-width:0.10000000000000001; fill:none" d="M 156.418 323.301L 156.418 323.301z"/>
<path style="stroke:none; fill-rule:evenodd; fill:#7a7a7a" d="M 91.6402 338.496L 128.426 338.496L 120.429 360.086L 82.8442 360.086"/>
<path style="stroke:#7a7a7a; stroke-width:0.10000000000000001; fill:none" d="M 91.6402 338.496L 128.426 338.496L 120.429 360.086L 82.8442 360.086L 91.6402 338.496z"/>
<path style="stroke:#000000; stroke-width:0.10000000000000001; fill:none" d="M 91.6402 338.496L 128.426 338.496L 120.429 360.086L 82.8442 360.086L 91.6402 338.496z"/>
<path style="stroke:#ffffff; stroke-width:0.10000000000000001; fill:none" d="M 105.234 348.891L 105.234 348.891z"/>
<path style="stroke:none; fill-rule:evenodd; fill:#7a7a7a" d="M 133.226 338.496L 170.011 338.496L 161.215 360.086L 124.429 360.086"/>
<path style="stroke:#7a7a7a; stroke-width:0.10000000000000001; fill:none" d="M 133.226 338.496L 170.011 338.496L 161.215 360.086L 124.429 360.086L 133.226 338.496z"/>
<path style="stroke:#000000; stroke-width:0.10000000000000001; fill:none" d="M 133.226 338.496L 170.011 338.496L 161.215 360.086L 124.429 360.086L 133.226 338.496z"/>
<path style="stroke:none; fill-rule:evenodd; fill:#ffff00" d="M 135.344 339.575L 167.011 339.575L 159.097 359.004L 127.429 359.004"/>
<path style="stroke:#ffff00; stroke-width:0.10000000000000001; fill:none" d="M 135.344 339.575L 167.011 339.575L 159.097 359.004L 127.429 359.004L 135.344 339.575z"/>
<path style="stroke:none; fill-rule:evenodd; fill:#7a7a7a" d="M 81.2462 363.286L 118.832 363.286L 110.039 384.875L 73.2542 384.875"/>
<path style="stroke:#7a7a7a; stroke-width:0.10000000000000001; fill:none" d="M 81.2462 363.286L 118.832 363.286L 110.039 384.875L 73.2542 384.875L 81.2462 363.286z"/>
<path style="stroke:#000000; stroke-width:0.10000000000000001; fill:none" d="M 81.2462 363.286L 118.832 363.286L 110.039 384.875L 73.2542 384.875L 81.2462 363.286z"/>
<path style="stroke:none; fill-rule:evenodd; fill:#ffffff" d="M 95.6402 375.282L 94.8442 375.282"/>
<path style="stroke:#ffffff; stroke-width:0.10000000000000001; fill:none" d="M 95.6402 375.282L 94.8442 375.282L 95.6402 375.282z"/>
<path style="stroke:none; fill-rule:evenodd; fill:#7a7a7a" d="M 122.832 363.286L 159.617 363.286L 150.82 384.875L 114.035 384.875"/>
<path style="stroke:#7a7a7a; stroke-width:0.10000000000000001; fill:none" d="M 122.832 363.286L 159.617 363.286L 150.82 384.875L 114.035 384.875L 122.832 363.286z"/>
<path style="stroke:#000000; stroke-width:0.10000000000000001; fill:none" d="M 122.832 363.286L 159.617 363.286L 150.82 384.875L 114.035 384.875L 122.832 363.286z"/>
<path style="stroke:none; fill-rule:evenodd; fill:#ffff00" d="M 124.23 365.125L 157.336 365.125L 149.422 383.836L 116.316 383.836"/>
<path style="stroke:#ffff00; stroke-width:0.10000000000000001; fill:none" d="M 124.23 365.125L 157.336 365.125L 149.422 383.836L 116.316 383.836L 124.23 365.125z"/>
<path style="stroke:#000000; stroke-width:0.10000000000000001; fill:none" d="M 113.234 284.118L 195.601 284.118L 155.617 384.879L 73.2502 384.879L 113.234 284.118z"/>
<path style="stroke:none; fill-rule:evenodd; fill:#7a7a7a" d="M 194.804 288.114L 231.59 288.114L 222.793 309.703L 186.008 309.703"/>
<path style="stroke:#7a7a7a; stroke-width:0.10000000000000001; fill:none" d="M 194.804 288.114L 231.59 288.114L 222.793 309.703L 186.008 309.703L 194.804 288.114z"/>
<path style="stroke:#000000; stroke-width:0.10000000000000001; fill:none" d="M 194.804 288.114L 231.59 288.114L 222.793 309.703L 186.008 309.703L 194.804 288.114z"/>
<path style="stroke:none; fill-rule:evenodd; fill:#ffff00" d="M 196.203 289.196L 229.308 289.196L 221.394 308.625L 188.289 308.625"/>
<path style="stroke:#ffff00; stroke-width:0.10000000000000001; fill:none" d="M 196.203 289.196L 229.308 289.196L 221.394 308.625L 188.289 308.625L 196.203 289.196z"/>
<path style="stroke:none; fill-rule:evenodd; fill:#7a7a7a" d="M 235.59 288.114L 272.375 288.114L 264.379 309.703L 226.793 309.703"/>
<path style="stroke:#7a7a7a; stroke-width:0.10000000000000001; fill:none" d="M 235.59 288.114L 272.375 288.114L 264.379 309.703L 226.793 309.703L 235.59 288.114z"/>
<path style="stroke:#000000; stroke-width:0.10000000000000001; fill:none" d="M 235.59 288.114L 272.375 288.114L 264.379 309.703L 226.793 309.703L 235.59 288.114z"/>
<path style="stroke:#ffffff; stroke-width:0.10000000000000001; fill:none" d="M 249.183 299.309L 249.183 299.309z"/>
<path style="stroke:none; fill-rule:evenodd; fill:#7a7a7a" d="M 184.41 312.907L 221.195 312.907L 212.398 334.496L 175.613 334.496"/>
<path style="stroke:#7a7a7a; stroke-width:0.10000000000000001; fill:none" d="M 184.41 312.907L 221.195 312.907L 212.398 334.496L 175.613 334.496L 184.41 312.907z"/>
<path style="stroke:#000000; stroke-width:0.10000000000000001; fill:none" d="M 184.41 312.907L 221.195 312.907L 212.398 334.496L 175.613 334.496L 184.41 312.907z"/>
<path style="stroke:none; fill-rule:evenodd; fill:#ffff00" d="M 186.527 314.746L 218.195 314.746L 210.281 333.457L 178.613 333.457"/>
<path style="stroke:#ffff00; stroke-width:0.10000000000000001; fill:none" d="M 186.527 314.746L 218.195 314.746L 210.281 333.457L 178.613 333.457L 186.527 314.746z"/>
<path style="stroke:none; fill-rule:evenodd; fill:#7a7a7a" d="M 225.191 312.907L 262.777 312.907L 253.98 334.496L 216.394 334.496"/>
<path style="stroke:#7a7a7a; stroke-width:0.10000000000000001; fill:none" d="M 225.191 312.907L 262.777 312.907L 253.98 334.496L 216.394 334.496L 225.191 312.907z"/>
<path style="stroke:#000000; stroke-width:0.10000000000000001; fill:none" d="M 225.191 312.907L 262.777 312.907L 253.98 334.496L 216.394 334.496L 225.191 312.907z"/>
<path style="stroke:#ffffff; stroke-width:0.10000000000000001; fill:none" d="M 238.789 323.301L 238.789 323.301z"/>
<path style="stroke:none; fill-rule:evenodd; fill:#7a7a7a" d="M 174.011 338.496L 210.797 338.496L 202.801 360.086L 165.215 360.086"/>
<path style="stroke:#7a7a7a; stroke-width:0.10000000000000001; fill:none" d="M 174.011 338.496L 210.797 338.496L 202.801 360.086L 165.215 360.086L 174.011 338.496z"/>
<path style="stroke:#000000; stroke-width:0.10000000000000001; fill:none" d="M 174.011 338.496L 210.797 338.496L 202.801 360.086L 165.215 360.086L 174.011 338.496z"/>
<path style="stroke:#ffffff; stroke-width:0.10000000000000001; fill:none" d="M 187.605 348.891L 187.605 348.891z"/>
<path style="stroke:none; fill-rule:evenodd; fill:#7a7a7a" d="M 215.597 338.496L 252.383 338.496L 243.59 360.086L 206.804 360.086"/>
<path style="stroke:#7a7a7a; stroke-width:0.10000000000000001; fill:none" d="M 215.597 338.496L 252.383 338.496L 243.59 360.086L 206.804 360.086L 215.597 338.496z"/>
<path style="stroke:#000000; stroke-width:0.10000000000000001; fill:none" d="M 215.597 338.496L 252.383 338.496L 243.59 360.086L 206.804 360.086L 215.597 338.496z"/>
<path style="stroke:none; fill-rule:evenodd; fill:#ffff00" d="M 217.715 339.575L 249.383 339.575L 241.468 359.004L 209.801 359.004"/>
<path style="stroke:#ffff00; stroke-width:0.10000000000000001; fill:none" d="M 217.715 339.575L 249.383 339.575L 241.468 359.004L 209.801 359.004L 217.715 339.575z"/>
<path style="stroke:none; fill-rule:evenodd; fill:#7a7a7a" d="M 163.617 363.286L 201.203 363.286L 192.406 384.875L 155.621 384.875"/>
<path style="stroke:#7a7a7a; stroke-width:0.10000000000000001; fill:none" d="M 163.617 363.286L 201.203 363.286L 192.406 384.875L 155.621 384.875L 163.617 363.286z"/>
<path style="stroke:#000000; stroke-width:0.10000000000000001; fill:none" d="M 163.617 363.286L 201.203 363.286L 192.406 384.875L 155.621 384.875L 163.617 363.286z"/>
<path style="stroke:none; fill-rule:evenodd; fill:#ffffff" d="M 178.011 375.282L 177.215 375.282"/>
<path style="stroke:#ffffff; stroke-width:0.10000000000000001; fill:none" d="M 178.011 375.282L 177.215 375.282L 178.011 375.282z"/>
<path style="stroke:none; fill-rule:evenodd; fill:#7a7a7a" d="M 205.199 363.286L 241.984 363.286L 233.191 384.875L 196.406 384.875"/>
<path style="stroke:#7a7a7a; stroke-width:0.10000000000000001; fill:none" d="M 205.199 363.286L 241.984 363.286L 233.191 384.875L 196.406 384.875L 205.199 363.286z"/>
<path style="stroke:#000000; stroke-width:0.10000000000000001; fill:none" d="M 205.199 363.286L 241.984 363.286L 233.191 384.875L 196.406 384.875L 205.199 363.286z"/>
<path style="stroke:none; fill-rule:evenodd; fill:#ffff00" d="M 206.597 365.125L 239.703 365.125L 231.789 383.836L 198.683 383.836"/>
<path style="stroke:#ffff00; stroke-width:0.10000000000000001; fill:none" d="M 206.597 365.125L 239.703 365.125L 231.789 383.836L 198.683 383.836L 206.597 365.125z"/>
<path style="stroke:#000000; stroke-width:0.10000000000000001; fill:none" d="M 195.601 284.118L 277.968 284.118L 237.984 384.879L 155.617 384.879L 195.601 284.118z"/>
<path style="stroke:#000000; stroke-width:0.10000000000000001; fill:none" d="M 113.234 284.118L 277.972 284.118L 237.988 384.879L 73.2502 384.879L 113.234 284.118z"/>
<path style="stroke:#000000; stroke-width:0.10000000000000001; fill:none" d="M 113.234 284.118L 195.601 284.118L 155.617 384.879L 73.2502 384.879L 113.234 284.118z"/>
<path style="stroke:none; fill-rule:evenodd; fill:#7a7a7a" d="M 112.433 154.563L 149.218 154.563L 140.422 176.153L 103.636 176.153"/>
<path style="stroke:#7a7a7a; stroke-width:0.10000000000000001; fill:none" d="M 112.433 154.563L 149.218 154.563L 140.422 176.153L 103.636 176.153L 112.433 154.563z"/>
<path style="stroke:#000000; stroke-width:0.10000000000000001; fill:none" d="M 112.433 154.563L 149.218 154.563L 140.422 176.153L 103.636 176.153L 112.433 154.563z"/>
<path style="stroke:none; fill-rule:evenodd; fill:#ffffff" d="M 124.429 164.961L 128.426 164.961L 126.828 167.36L 122.832 167.36"/>
<path style="stroke:#ffffff; stroke-width:0.10000000000000001; fill:none" d="M 124.429 164.961L 128.426 164.961L 126.828 167.36L 122.832 167.36L 124.429 164.961z"/>
<path style="stroke:none; fill-rule:evenodd; fill:#7a7a7a" d="M 153.218 154.563L 190.004 154.563L 182.008 176.153L 144.422 176.153"/>
<path style="stroke:#7a7a7a; stroke-width:0.10000000000000001; fill:none" d="M 153.218 154.563L 190.004 154.563L 182.008 176.153L 144.422 176.153L 153.218 154.563z"/>
<path style="stroke:#000000; stroke-width:0.10000000000000001; fill:none" d="M 153.218 154.563L 190.004 154.563L 182.008 176.153L 144.422 176.153L 153.218 154.563z"/>
<path style="stroke:#ffffff; stroke-width:0.10000000000000001; fill:none" d="M 166.812 166.559L 166.812 166.559z"/>
<path style="stroke:none; fill-rule:evenodd; fill:#7a7a7a" d="M 102.039 180.153L 138.824 180.153L 130.027 201.743L 93.2422 201.743"/>
<path style="stroke:#7a7a7a; stroke-width:0.10000000000000001; fill:none" d="M 102.039 180.153L 138.824 180.153L 130.027 201.743L 93.2422 201.743L 102.039 180.153z"/>
<path style="stroke:#000000; stroke-width:0.10000000000000001; fill:none" d="M 102.039 180.153L 138.824 180.153L 130.027 201.743L 93.2422 201.743L 102.039 180.153z"/>
<path style="stroke:none; fill-rule:evenodd; fill:#ffff00" d="M 110.836 187.352L 124.429 187.352L 121.234 194.547L 107.64 194.547"/>
<path style="stroke:#ffff00; stroke-width:0.10000000000000001; fill:none" d="M 110.836 187.352L 124.429 187.352L 121.234 194.547L 107.64 194.547L 110.836 187.352z"/>
<path style="stroke:none; fill-rule:evenodd; fill:#7a7a7a" d="M 142.824 180.153L 180.41 180.153L 171.617 201.743L 134.832 201.743"/>
<path style="stroke:#7a7a7a; stroke-width:0.10000000000000001; fill:none" d="M 142.824 180.153L 180.41 180.153L 171.617 201.743L 134.832 201.743L 142.824 180.153z"/>
<path style="stroke:#000000; stroke-width:0.10000000000000001; fill:none" d="M 142.824 180.153L 180.41 180.153L 171.617 201.743L 134.832 201.743L 142.824 180.153z"/>
<path style="stroke:#ffffff; stroke-width:0.10000000000000001; fill:none" d="M 156.418 190.551L 156.418 190.551z"/>
<path style="stroke:none; fill-rule:evenodd; fill:#7a7a7a" d="M 91.6402 205.746L 128.426 205.746L 120.429 226.536L 82.8442 226.536"/>
<path style="stroke:#7a7a7a; stroke-width:0.10000000000000001; fill:none" d="M 91.6402 205.746L 128.426 205.746L 120.429 226.536L 82.8442 226.536L 91.6402 205.746z"/>
<path style="stroke:#000000; stroke-width:0.10000000000000001; fill:none" d="M 91.6402 205.746L 128.426 205.746L 120.429 226.536L 82.8442 226.536L 91.6402 205.746z"/>
<path style="stroke:#ffffff; stroke-width:0.10000000000000001; fill:none" d="M 105.234 216.141L 105.234 216.141z"/>
<path style="stroke:none; fill-rule:evenodd; fill:#7a7a7a" d="M 133.226 205.746L 170.011 205.746L 161.215 226.536L 124.429 226.536"/>
<path style="stroke:#7a7a7a; stroke-width:0.10000000000000001; fill:none" d="M 133.226 205.746L 170.011 205.746L 161.215 226.536L 124.429 226.536L 133.226 205.746z"/>
<path style="stroke:#000000; stroke-width:0.10000000000000001; fill:none" d="M 133.226 205.746L 170.011 205.746L 161.215 226.536L 124.429 226.536L 133.226 205.746z"/>
<path style="stroke:none; fill-rule:evenodd; fill:#ffff00" d="M 136.023 207.465L 163.371 207.465L 156.894 224.016L 130.265 224.016"/>
<path style="stroke:#ffff00; stroke-width:0.10000000000000001; fill:none" d="M 136.023 207.465L 163.371 207.465L 156.894 224.016L 130.265 224.016L 136.023 207.465z"/>
<path style="stroke:none; fill-rule:evenodd; fill:#7a7a7a" d="M 81.2462 230.536L 118.832 230.536L 110.039 252.125L 73.2542 252.125"/>
<path style="stroke:#7a7a7a; stroke-width:0.10000000000000001; fill:none" d="M 81.2462 230.536L 118.832 230.536L 110.039 252.125L 73.2542 252.125L 81.2462 230.536z"/>
<path style="stroke:#000000; stroke-width:0.10000000000000001; fill:none" d="M 81.2462 230.536L 118.832 230.536L 110.039 252.125L 73.2542 252.125L 81.2462 230.536z"/>
<path style="stroke:none; fill-rule:evenodd; fill:#ffffff" d="M 95.6402 242.532L 94.8442 242.532"/>
<path style="stroke:#ffffff; stroke-width:0.10000000000000001; fill:none" d="M 95.6402 242.532L 94.8442 242.532L 95.6402 242.532z"/>
<path style="stroke:none; fill-rule:evenodd; fill:#7a7a7a" d="M 122.832 230.536L 159.617 230.536L 150.82 252.125L 114.035 252.125"/>
<path style="stroke:#7a7a7a; stroke-width:0.10000000000000001; fill:none" d="M 122.832 230.536L 159.617 230.536L 150.82 252.125L 114.035 252.125L 122.832 230.536z"/>
<path style="stroke:#000000; stroke-width:0.10000000000000001; fill:none" d="M 122.832 230.536L 159.617 230.536L 150.82 252.125L 114.035 252.125L 122.832 230.536z"/>
<path style="stroke:none; fill-rule:evenodd; fill:#ffff00" d="M 124.91 233.094L 155.136 233.094L 147.941 250.364L 117.715 250.364"/>
<path style="stroke:#ffff00; stroke-width:0.10000000000000001; fill:none" d="M 124.91 233.094L 155.136 233.094L 147.941 250.364L 117.715 250.364L 124.91 233.094z"/>
<path style="stroke:#000000; stroke-width:0.10000000000000001; fill:none" d="M 113.234 151.364L 195.601 151.364L 155.617 252.125L 73.2502 252.125L 113.234 151.364z"/>
<path style="stroke:none; fill-rule:evenodd; fill:#7a7a7a" d="M 194.804 154.563L 231.59 154.563L 222.793 176.153L 186.008 176.153"/>
<path style="stroke:#7a7a7a; stroke-width:0.10000000000000001; fill:none" d="M 194.804 154.563L 231.59 154.563L 222.793 176.153L 186.008 176.153L 194.804 154.563z"/>
<path style="stroke:#000000; stroke-width:0.10000000000000001; fill:none" d="M 194.804 154.563L 231.59 154.563L 222.793 176.153L 186.008 176.153L 194.804 154.563z"/>
<path style="stroke:none; fill-rule:evenodd; fill:#ffffff" d="M 208.398 166.559L 207.601 166.559"/>
<path style="stroke:#ffffff; stroke-width:0.10000000000000001; fill:none" d="M 208.398 166.559L 207.601 166.559L 208.398 166.559z"/>
<path style="stroke:none; fill-rule:evenodd; fill:#7a7a7a" d="M 235.59 154.563L 272.375 154.563L 264.379 176.153L 226.793 176.153"/>
<path style="stroke:#7a7a7a; stroke-width:0.10000000000000001; fill:none" d="M 235.59 154.563L 272.375 154.563L 264.379 176.153L 226.793 176.153L 235.59 154.563z"/>
<path style="stroke:#000000; stroke-width:0.10000000000000001; fill:none" d="M 235.59 154.563L 272.375 154.563L 264.379 176.153L 226.793 176.153L 235.59 154.563z"/>
<path style="stroke:#ffffff; stroke-width:0.10000000000000001; fill:none" d="M 249.183 166.559L 249.183 166.559z"/>
<path style="stroke:none; fill-rule:evenodd; fill:#7a7a7a" d="M 184.41 180.153L 221.195 180.153L 212.398 201.743L 175.613 201.743"/>
<path style="stroke:#7a7a7a; stroke-width:0.10000000000000001; fill:none" d="M 184.41 180.153L 221.195 180.153L 212.398 201.743L 175.613 201.743L 184.41 180.153z"/>
<path style="stroke:#000000; stroke-width:0.10000000000000001; fill:none" d="M 184.41 180.153L 221.195 180.153L 212.398 201.743L 175.613 201.743L 184.41 180.153z"/>
<path style="stroke:#ffffff; stroke-width:0.10000000000000001; fill:none" d="M 198.004 190.551L 198.004 190.551z"/>
<path style="stroke:none; fill-rule:evenodd; fill:#7a7a7a" d="M 225.191 180.153L 262.777 180.153L 253.98 201.743L 216.394 201.743"/>
<path style="stroke:#7a7a7a; stroke-width:0.10000000000000001; fill:none" d="M 225.191 180.153L 262.777 180.153L 253.98 201.743L 216.394 201.743L 225.191 180.153z"/>
<path style="stroke:#000000; stroke-width:0.10000000000000001; fill:none" d="M 225.191 180.153L 262.777 180.153L 253.98 201.743L 216.394 201.743L 225.191 180.153z"/>
<path style="stroke:#ffffff; stroke-width:0.10000000000000001; fill:none" d="M 238.789 190.551L 238.789 190.551z"/>
<path style="stroke:none; fill-rule:evenodd; fill:#7a7a7a" d="M 174.011 205.746L 210.797 205.746L 202.801 226.536L 165.215 226.536"/>
<path style="stroke:#7a7a7a; stroke-width:0.10000000000000001; fill:none" d="M 174.011 205.746L 210.797 205.746L 202.801 226.536L 165.215 226.536L 174.011 205.746z"/>
<path style="stroke:#000000; stroke-width:0.10000000000000001; fill:none" d="M 174.011 205.746L 210.797 205.746L 202.801 226.536L 165.215 226.536L 174.011 205.746z"/>
<path style="stroke:#ffffff; stroke-width:0.10000000000000001; fill:none" d="M 187.605 216.141L 187.605 216.141z"/>
<path style="stroke:none; fill-rule:evenodd; fill:#7a7a7a" d="M 215.597 205.746L 252.383 205.746L 243.59 226.536L 206.804 226.536"/>
<path style="stroke:#7a7a7a; stroke-width:0.10000000000000001; fill:none" d="M 215.597 205.746L 252.383 205.746L 243.59 226.536L 206.804 226.536L 215.597 205.746z"/>
<path style="stroke:#000000; stroke-width:0.10000000000000001; fill:none" d="M 215.597 205.746L 252.383 205.746L 243.59 226.536L 206.804 226.536L 215.597 205.746z"/>
<path style="stroke:#ffffff; stroke-width:0.10000000000000001; fill:none" d="M 229.191 216.141L 229.191 216.141z"/>
<path style="stroke:none; fill-rule:evenodd; fill:#7a7a7a" d="M 163.617 230.536L 201.203 230.536L 192.406 252.125L 155.621 252.125"/>
<path style="stroke:#7a7a7a; stroke-width:0.10000000000000001; fill:none" d="M 163.617 230.536L 201.203 230.536L 192.406 252.125L 155.621 252.125L 163.617 230.536z"/>
<path style="stroke:#000000; stroke-width:0.10000000000000001; fill:none" d="M 163.617 230.536L 201.203 230.536L 192.406 252.125L 155.621 252.125L 163.617 230.536z"/>
<path style="stroke:none; fill-rule:evenodd; fill:#ffffff" d="M 178.011 242.532L 177.215 242.532"/>
<path style="stroke:#ffffff; stroke-width:0.10000000000000001; fill:none" d="M 178.011 242.532L 177.215 242.532L 178.011 242.532z"/>
<path style="stroke:none; fill-rule:evenodd; fill:#7a7a7a" d="M 205.199 230.536L 241.984 230.536L 233.191 252.125L 196.406 252.125"/>
<path style="stroke:#7a7a7a; stroke-width:0.10000000000000001; fill:none" d="M 205.199 230.536L 241.984 230.536L 233.191 252.125L 196.406 252.125L 205.199 230.536z"/>
<path style="stroke:#000000; stroke-width:0.10000000000000001; fill:none" d="M 205.199 230.536L 241.984 230.536L 233.191 252.125L 196.406 252.125L 205.199 230.536z"/>
<path style="stroke:#ffffff; stroke-width:0.10000000000000001; fill:none" d="M 218.797 242.532L 218.797 242.532z"/>
<path style="stroke:#000000; stroke-width:0.10000000000000001; fill:none" d="M 195.601 151.364L 277.968 151.364L 237.984 252.125L 155.617 252.125L 195.601 151.364z"/>
<path style="stroke:#000000; stroke-width:0.10000000000000001; fill:none" d="M 113.234 151.364L 277.972 151.364L 237.988 252.125L 73.2502 252.125L 113.234 151.364z"/>
<path style="stroke:#000000; stroke-width:0.10000000000000001; fill:none" d="M 113.234 151.364L 195.601 151.364L 155.617 252.125L 73.2502 252.125L 113.234 151.364z"/>
<path style="stroke:none; fill-rule:evenodd; fill:#7a7a7a" d="M 194.804 21.813L 231.59 21.813L 222.793 43.403L 186.008 43.403"/>
<path style="stroke:#7a7a7a; stroke-width:0.10000000000000001; fill:none" d="M 194.804 21.813L 231.59 21.813L 222.793 43.403L 186.008 43.403L 194.804 21.813z"/>
<path style="stroke:#000000; stroke-width:0.10000000000000001; fill:none" d="M 194.804 21.813L 231.59 21.813L 222.793 43.403L 186.008 43.403L 194.804 21.813z"/>
<path style="stroke:none; fill-rule:evenodd; fill:#ffffff" d="M 208.398 33.008L 207.601 33.008"/>
<path style="stroke:#ffffff; stroke-width:0.10000000000000001; fill:none" d="M 208.398 33.008L 207.601 33.008L 208.398 33.008z"/>
<path style="stroke:none; fill-rule:evenodd; fill:#7a7a7a" d="M 184.41 47.403L 221.195 47.403L 212.398 68.993L 175.613 68.993"/>
<path style="stroke:#7a7a7a; stroke-width:0.10000000000000001; fill:none" d="M 184.41 47.403L 221.195 47.403L 212.398 68.993L 175.613 68.993L 184.41 47.403z"/>
<path style="stroke:#000000; stroke-width:0.10000000000000001; fill:none" d="M 184.41 47.403L 221.195 47.403L 212.398 68.993L 175.613 68.993L 184.41 47.403z"/>
<path style="stroke:#ffffff; stroke-width:0.10000000000000001; fill:none" d="M 198.004 57.797L 198.004 57.797z"/>
<path style="stroke:none; fill-rule:evenodd; fill:#7a7a7a" d="M 174.011 72.196L 210.797 72.196L 202.801 93.786L 165.215 93.786"/>
<path style="stroke:#7a7a7a; stroke-width:0.10000000000000001; fill:none" d="M 174.011 72.196L 210.797 72.196L 202.801 93.786L 165.215 93.786L 174.011 72.196z"/>
<path style="stroke:#000000; stroke-width:0.10000000000000001; fill:none" d="M 174.011 72.196L 210.797 72.196L 202.801 93.786L 165.215 93.786L 174.011 72.196z"/>
<path style="stroke:none; fill-rule:evenodd; fill:#ffff00" d="M 175.41 73.274L 208.515 73.274L 201.32 92.703L 167.496 92.703"/>
<path style="stroke:#ffff00; stroke-width:0.10000000000000001; fill:none" d="M 175.41 73.274L 208.515 73.274L 201.32 92.703L 167.496 92.703L 175.41 73.274z"/>
<path style="stroke:none; fill-rule:evenodd; fill:#7a7a7a" d="M 163.617 97.786L 201.203 97.786L 192.406 119.375L 155.621 119.375"/>
<path style="stroke:#7a7a7a; stroke-width:0.10000000000000001; fill:none" d="M 163.617 97.786L 201.203 97.786L 192.406 119.375L 155.621 119.375L 163.617 97.786z"/>
<path style="stroke:#000000; stroke-width:0.10000000000000001; fill:none" d="M 163.617 97.786L 201.203 97.786L 192.406 119.375L 155.621 119.375L 163.617 97.786z"/>
<path style="stroke:none; fill-rule:evenodd; fill:#ffff00" d="M 165.094 98.864L 198.918 98.864L 191.004 118.293L 157.898 118.293"/>
<path style="stroke:#ffff00; stroke-width:0.10000000000000001; fill:none" d="M 165.094 98.864L 198.918 98.864L 191.004 118.293L 157.898 118.293L 165.094 98.864z"/>
<path style="stroke:#000000; stroke-width:0.10000000000000001; fill:none" d="M 195.601 17.813L 237.183 17.813L 196.402 119.371L 155.621 119.371L 195.601 17.813z"/>
<path style="stroke:none; fill-rule:evenodd; fill:#7a7a7a" d="M 235.59 21.813L 272.375 21.813L 264.379 43.403L 226.793 43.403"/>
<path style="stroke:#7a7a7a; stroke-width:0.10000000000000001; fill:none" d="M 235.59 21.813L 272.375 21.813L 264.379 43.403L 226.793 43.403L 235.59 21.813z"/>
<path style="stroke:#000000; stroke-width:0.10000000000000001; fill:none" d="M 235.59 21.813L 272.375 21.813L 264.379 43.403L 226.793 43.403L 235.59 21.813z"/>
<path style="stroke:#ffffff; stroke-width:0.10000000000000001; fill:none" d="M 249.183 33.008L 249.183 33.008z"/>
<path style="stroke:none; fill-rule:evenodd; fill:#7a7a7a" d="M 225.191 47.403L 262.777 47.403L 253.98 68.993L 216.394 68.993"/>
<path style="stroke:#7a7a7a; stroke-width:0.10000000000000001; fill:none" d="M 225.191 47.403L 262.777 47.403L 253.98 68.993L 216.394 68.993L 225.191 47.403z"/>
<path style="stroke:#000000; stroke-width:0.10000000000000001; fill:none" d="M 225.191 47.403L 262.777 47.403L 253.98 68.993L 216.394 68.993L 225.191 47.403z"/>
<path style="stroke:#ffffff; stroke-width:0.10000000000000001; fill:none" d="M 238.789 57.797L 238.789 57.797z"/>
<path style="stroke:none; fill-rule:evenodd; fill:#7a7a7a" d="M 215.597 72.196L 252.383 72.196L 243.59 93.786L 206.804 93.786"/>
<path style="stroke:#7a7a7a; stroke-width:0.10000000000000001; fill:none" d="M 215.597 72.196L 252.383 72.196L 243.59 93.786L 206.804 93.786L 215.597 72.196z"/>
<path style="stroke:#000000; stroke-width:0.10000000000000001; fill:none" d="M 215.597 72.196L 252.383 72.196L 243.59 93.786L 206.804 93.786L 215.597 72.196z"/>
<path style="stroke:#ffffff; stroke-width:0.10000000000000001; fill:none" d="M 229.191 82.59L 229.191 82.59z"/>
<path style="stroke:none; fill-rule:evenodd; fill:#7a7a7a" d="M 205.199 97.786L 241.984 97.786L 233.191 119.375L 196.406 119.375"/>
<path style="stroke:#7a7a7a; stroke-width:0.10000000000000001; fill:none" d="M 205.199 97.786L 241.984 97.786L 233.191 119.375L 196.406 119.375L 205.199 97.786z"/>
<path style="stroke:#000000; stroke-width:0.10000000000000001; fill:none" d="M 205.199 97.786L 241.984 97.786L 233.191 119.375L 196.406 119.375L 205.199 97.786z"/>
<path style="stroke:#ffffff; stroke-width:0.10000000000000001; fill:none" d="M 218.797 108.981L 218.797 108.981z"/>
<path style="stroke:#000000; stroke-width:0.10000000000000001; fill:none" d="M 237.187 17.813L 277.968 17.813L 237.984 119.371L 196.402 119.371L 237.187 17.813z"/>
<path style="stroke:#000000; stroke-width:0.10000000000000001; fill:none" d="M 195.601 17.813L 277.968 17.813L 237.984 119.371L 155.617 119.371L 195.601 17.813z"/>
<path style="stroke:#000000; stroke-width:0.10000000000000001; fill:none" d="M 195.601 17.813L 237.183 17.813L 196.402 119.371L 155.621 119.371L 195.601 17.813z"/>
<path style="stroke:none; fill-rule:evenodd; fill:#7a7a7a" d="M 287.57 363.286L 324.355 363.286L 315.562 384.875L 278.777 384.875"/>
<path style="stroke:#7a7a7a; stroke-width:0.10000000000000001; fill:none" d="M 287.57 363.286L 324.355 363.286L 315.562 384.875L 278.777 384.875L 287.57 363.286z"/>
<path style="stroke:#000000; stroke-width:0.10000000000000001; fill:none" d="M 287.57 363.286L 324.355 363.286L 315.562 384.875L 278.777 384.875L 287.57 363.286z"/>
<path style="stroke:#ffffff; stroke-width:0.10000000000000001; fill:none" d="M 301.164 375.282L 301.164 375.282z"/>
<path style="stroke:none; fill-rule:evenodd; fill:#7a7a7a" d="M 328.355 363.286L 365.941 363.286L 357.144 384.875L 320.359 384.875"/>
<path style="stroke:#7a7a7a; stroke-width:0.10000000000000001; fill:none" d="M 328.355 363.286L 365.941 363.286L 357.144 384.875L 320.359 384.875L 328.355 363.286z"/>
<path style="stroke:#000000; stroke-width:0.10000000000000001; fill:none" d="M 328.355 363.286L 365.941 363.286L 357.144 384.875L 320.359 384.875L 328.355 363.286z"/>
<path style="stroke:none; fill-rule:evenodd; fill:#ffff00" d="M 329.832 365.125L 363.656 365.125L 355.742 383.836L 322.636 383.836"/>
<path style="stroke:#ffff00; stroke-width:0.10000000000000001; fill:none" d="M 329.832 365.125L 363.656 365.125L 355.742 383.836L 322.636 383.836L 329.832 365.125z"/>
<path style="stroke:#000000; stroke-width:0.10000000000000001; fill:none" d="M 289.168 360.086L 371.535 360.086L 361.14 384.875L 278.773 384.875L 289.168 360.086z"/>
<path style="stroke:#000000; stroke-width:0.10000000000000001; fill:none" d="M 289.168 360.086L 371.535 360.086L 361.14 384.875L 278.773 384.875L 289.168 360.086z"/>
<path style="stroke:none; fill-rule:evenodd; fill:#7a7a7a" d="M 287.57 230.536L 324.355 230.536L 315.562 252.125L 278.777 252.125"/>
<path style="stroke:#7a7a7a; stroke-width:0.10000000000000001; fill:none" d="M 287.57 230.536L 324.355 230.536L 315.562 252.125L 278.777 252.125L 287.57 230.536z"/>
<path style="stroke:#000000; stroke-width:0.10000000000000001; fill:none" d="M 287.57 230.536L 324.355 230.536L 315.562 252.125L 278.777 252.125L 287.57 230.536z"/>
<path style="stroke:none; fill-rule:evenodd; fill:#ffff00" d="M 288.968 232.375L 322.074 232.375L 314.16 251.086L 281.054 251.086"/>
<path style="stroke:#ffff00; stroke-width:0.10000000000000001; fill:none" d="M 288.968 232.375L 322.074 232.375L 314.16 251.086L 281.054 251.086L 288.968 232.375z"/>
<path style="stroke:#000000; stroke-width:0.10000000000000001; fill:none" d="M 289.168 226.536L 329.949 226.536L 320.355 252.125L 278.773 252.125L 289.168 226.536z"/>
<path style="stroke:#000000; stroke-width:0.10000000000000001; fill:none" d="M 289.168 226.536L 329.949 226.536L 320.355 252.125L 278.773 252.125L 289.168 226.536z"/>
<path style="stroke:none; fill-rule:evenodd; fill:#7a7a7a" d="M 287.57 97.786L 324.355 97.786L 315.562 119.375L 278.777 119.375"/>
<path style="stroke:#7a7a7a; stroke-width:0.10000000000000001; fill:none" d="M 287.57 97.786L 324.355 97.786L 315.562 119.375L 278.777 119.375L 287.57 97.786z"/>
<path style="stroke:#000000; stroke-width:0.10000000000000001; fill:none" d="M 287.57 97.786L 324.355 97.786L 315.562 119.375L 278.777 119.375L 287.57 97.786z"/>
<path style="stroke:none; fill-rule:evenodd; fill:#ffff00" d="M 288.968 98.864L 322.074 98.864L 314.16 118.293L 281.054 118.293"/>
<path style="stroke:#ffff00; stroke-width:0.10000000000000001; fill:none" d="M 288.968 98.864L 322.074 98.864L 314.16 118.293L 281.054 118.293L 288.968 98.864z"/>
<path style="stroke:none; fill-rule:evenodd; fill:#7a7a7a" d="M 328.355 97.786L 365.941 97.786L 357.144 119.375L 320.359 119.375"/>
<path style="stroke:#7a7a7a; stroke-width:0.10000000000000001; fill:none" d="M 328.355 97.786L 365.941 97.786L 357.144 119.375L 320.359 119.375L 328.355 97.786z"/>
<path style="stroke:#000000; stroke-width:0.10000000000000001; fill:none" d="M 328.355 97.786L 365.941 97.786L 357.144 119.375L 320.359 119.375L 328.355 97.786z"/>
<path style="stroke:none; fill-rule:evenodd; fill:#ffffff" d="M 342.75 108.981L 341.953 108.981"/>
<path style="stroke:#ffffff; stroke-width:0.10000000000000001; fill:none" d="M 342.75 108.981L 341.953 108.981L 342.75 108.981z"/>
<path style="stroke:#000000; stroke-width:0.10000000000000001; fill:none" d="M 289.168 93.786L 371.535 93.786L 361.14 119.375L 278.773 119.375L 289.168 93.786z"/>
<path style="stroke:#000000; stroke-width:0.10000000000000001; fill:none" d="M 289.168 93.786L 371.535 93.786L 361.14 119.375L 278.773 119.375L 289.168 93.786z"/>
<path style="stroke:none; fill-rule:evenodd; fill:#000000" d="M 41.8042 341.301L 43.6012 341.301L 43.6012 327.301L 41.8042 327.301L 41.8042 341.301z"/>
<path style="stroke:none; fill-rule:evenodd; fill:#000000" d="M 46.5042 331.289L 46.5042 341.297L 48.1012 341.297L 48.1012 335.782C 48.1012 333.739 49.1952 332.403 50.8832 332.403C 52.1762 332.403 52.9962 333.164 52.9962 334.368L 52.9962 341.297L 54.5942 341.297L 54.5942 333.735C 54.5942 332.075 53.3322 331.004 51.3712 331.004C 49.8592 331.004 48.8902 331.578 47.9962 332.973L 47.9962 331.293L 46.5042 331.289z"/>
<path style="stroke:none; fill-rule:evenodd; fill:#000000" d="M 56.9062 345.485L 58.5042 345.485L 58.5042 340.203C 59.3472 341.239 60.2892 341.703 61.5972 341.703C 64.1912 341.703 65.9022 339.629 65.9022 336.45C 65.9022 333.102 64.2582 331.008 61.5972 331.008C 60.2422 331.008 59.1522 331.618 58.4062 332.805L 58.4062 331.297L 56.9062 331.297L 56.9062 345.485zM 61.3442 332.5C 63.1332 332.5 64.3012 334.036 64.3012 336.407C 64.3012 338.66 63.1132 340.196 61.3442 340.196C 59.6332 340.196 58.5042 338.68 58.5042 336.348C 58.5042 334.02 59.6332 332.5 61.3442 332.5z"/>
<path style="stroke:none; fill-rule:evenodd; fill:#000000" d="M 75.9062 341.258L 75.9062 331.2L 74.3082 331.2L 74.3082 336.899C 74.3082 338.95 73.2152 340.293 71.5192 340.293C 70.2342 340.293 69.4142 339.528 69.4142 338.317L 69.4142 331.196L 67.8162 331.196L 67.8162 338.95C 67.8162 340.618 69.0702 341.692 71.0392 341.692C 72.5232 341.692 73.4682 341.176 74.4142 339.852L 74.4142 341.25L 75.9062 341.258z"/>
<path style="stroke:none; fill-rule:evenodd; fill:#000000" d="M 82.1052 331.2L 80.4062 331.2L 80.4062 328.481L 78.8082 328.481L 78.8082 331.2L 77.5112 331.2L 77.5112 332.496L 78.8082 332.496L 78.8082 340.102C 78.8082 341.118 79.5082 341.696 80.7772 341.696C 81.1682 341.696 81.5542 341.66 82.1052 341.567L 82.1052 340.262C 81.8902 340.286 81.6332 340.297 81.3162 340.297C 80.6052 340.297 80.4102 340.106 80.4102 339.395L 80.4102 332.5L 82.1092 332.5L 82.1052 331.2z"/>
<path style="stroke:none; fill-rule:evenodd; fill:#000000" d="M 128.605 281.5L 134 281.5C 137.531 281.5 139.703 278.852 139.703 274.493C 139.703 270.157 137.554 267.504 134 267.504L 128.605 267.504L 128.605 281.5zM 130.406 279.899L 130.406 269.102L 133.695 269.102C 136.449 269.102 137.902 270.953 137.902 274.508C 137.902 278.024 136.449 279.895 133.695 279.895L 130.406 279.899z"/>
<path style="stroke:none; fill-rule:evenodd; fill:#000000" d="M 143.605 271.399L 142.008 271.399L 142.008 281.496L 143.605 281.496L 143.605 271.399zM 143.605 267.5L 142.008 267.5L 142.008 269.52L 143.605 269.52L 143.605 267.5z"/>
<path style="stroke:none; fill-rule:evenodd; fill:#000000" d="M 146.304 271.489L 146.304 281.496L 147.902 281.496L 147.902 275.215C 147.902 273.766 148.976 272.602 150.304 272.602C 151.515 272.602 152.199 273.328 152.199 274.606L 152.199 281.496L 153.797 281.496L 153.797 275.215C 153.797 273.766 154.844 272.602 156.14 272.602C 157.301 272.602 157.992 273.344 157.992 274.606L 157.992 281.496L 159.59 281.496L 159.59 273.989C 159.59 272.196 158.554 271.2 156.672 271.2C 155.332 271.2 154.527 271.59 153.586 272.688C 152.992 271.645 152.187 271.2 150.883 271.2C 149.543 271.2 148.66 271.696 147.797 272.899L 147.797 271.489L 146.304 271.489z"/>
<path style="stroke:none; fill-rule:evenodd; fill:#000000" d="M 175.402 277.301L 176.84 281.5L 178.832 281.5L 173.922 267.5L 171.621 267.5L 166.633 281.5L 168.531 281.5L 170.008 277.301L 175.402 277.301zM 174.902 275.801L 170.453 275.801L 172.754 269.43L 174.902 275.801z"/>
<path style="stroke:none; fill-rule:evenodd; fill:#000000" d="M 208.804 280.598L 214.199 280.598C 217.73 280.598 219.902 277.95 219.902 273.59C 219.902 269.254 217.754 266.602 214.199 266.602L 208.804 266.602L 208.804 280.598zM 210.605 279L 210.605 268.203L 213.894 268.203C 216.648 268.203 218.101 270.055 218.101 273.61C 218.101 277.125 216.648 278.996 213.894 278.996L 210.605 279z"/>
<path style="stroke:none; fill-rule:evenodd; fill:#000000" d="M 223.906 270.5L 222.308 270.5L 222.308 280.598L 223.906 280.598L 223.906 270.5zM 223.906 266.598L 222.308 266.598L 222.308 268.618L 223.906 268.618L 223.906 266.598z"/>
<path style="stroke:none; fill-rule:evenodd; fill:#000000" d="M 226.605 270.59L 226.605 280.598L 228.203 280.598L 228.203 274.317C 228.203 272.868 229.277 271.703 230.605 271.703C 231.816 271.703 232.5 272.43 232.5 273.707L 232.5 280.598L 234.097 280.598L 234.097 274.317C 234.097 272.868 235.144 271.703 236.441 271.703C 237.601 271.703 238.293 272.446 238.293 273.707L 238.293 280.598L 239.89 280.598L 239.89 273.09C 239.89 271.297 238.855 270.301 236.972 270.301C 235.633 270.301 234.828 270.692 233.886 271.789C 233.293 270.746 232.488 270.301 231.183 270.301C 229.844 270.301 228.961 270.797 228.097 272L 228.097 270.59L 226.605 270.59z"/>
<path style="stroke:none; fill-rule:evenodd; fill:#000000" d="M 248.105 280.598L 254.453 280.598C 255.781 280.598 256.765 280.235 257.519 279.43C 258.211 278.703 258.597 277.703 258.597 276.61C 258.597 274.922 257.82 273.907 256.004 273.211C 257.304 272.618 257.996 271.582 257.996 270.16C 257.996 269.145 257.609 268.243 256.875 267.59C 256.14 266.918 255.176 266.61 253.82 266.61L 248.097 266.61L 248.105 280.598zM 249.906 272.598L 249.906 268.2L 253.383 268.2C 254.386 268.2 254.945 268.332 255.429 268.692C 255.929 269.071 256.199 269.637 256.199 270.395C 256.199 271.133 255.929 271.719 255.429 272.098C 254.949 272.457 254.386 272.59 253.383 272.59L 249.906 272.598zM 249.906 279L 249.906 274.203L 254.281 274.203C 255.144 274.203 255.722 274.414 256.148 274.871C 256.57 275.309 256.801 275.922 256.801 276.61C 256.801 277.278 256.57 277.887 256.148 278.328C 255.726 278.786 255.148 278.996 254.281 278.996L 249.906 279z"/>
<path style="stroke:none; fill-rule:evenodd; fill:#000000" d="M 90.8042 387.801L 89.0082 387.801L 89.0082 401.801L 97.7072 401.801L 97.7072 400.203L 90.8082 400.203L 90.8042 387.801z"/>
<path style="stroke:none; fill-rule:evenodd; fill:#000000" d="M 126.804 395.801L 131.402 395.801C 132.992 395.801 133.703 396.563 133.703 398.282L 133.703 399.52C 133.703 400.379 133.851 401.219 134.097 401.793L 136.23 401.793L 136.23 401.356C 135.57 400.895 135.437 400.395 135.402 398.536C 135.383 396.235 135.015 395.543 133.492 394.891C 135.066 394.125 135.703 393.145 135.703 391.551C 135.703 389.133 134.187 387.809 131.445 387.809L 125.008 387.809L 125.008 401.809L 126.804 401.809L 126.804 395.801zM 126.773 394.2L 126.773 389.383L 131.09 389.383C 132.086 389.383 132.66 389.536 133.101 389.918C 133.578 390.321 133.828 390.953 133.828 391.797C 133.828 393.446 132.984 394.196 131.086 394.196L 126.773 394.2z"/>
<path style="stroke:none; fill-rule:evenodd; fill:#000000" d="M 171.105 387.801L 169.308 387.801L 169.308 401.801L 178.008 401.801L 178.008 400.203L 171.109 400.203L 171.105 387.801z"/>
<path style="stroke:none; fill-rule:evenodd; fill:#000000" d="M 210.203 395.801L 214.801 395.801C 216.39 395.801 217.101 396.563 217.101 398.282L 217.101 399.52C 217.101 400.379 217.25 401.219 217.496 401.793L 219.629 401.793L 219.629 401.356C 218.968 400.895 218.836 400.395 218.801 398.536C 218.781 396.235 218.414 395.543 216.89 394.891C 218.465 394.125 219.101 393.145 219.101 391.551C 219.101 389.133 217.586 387.809 214.844 387.809L 208.406 387.809L 208.406 401.809L 210.203 401.809L 210.203 395.801zM 210.176 394.2L 210.176 389.383L 214.492 389.383C 215.488 389.383 216.062 389.536 216.504 389.918C 216.98 390.321 217.23 390.953 217.23 391.797C 217.23 393.446 216.386 394.196 214.488 394.196L 210.176 394.2z"/>
<path style="stroke:none; fill-rule:evenodd; fill:#000000" d="M 277.504 89.801L 282.898 89.801C 286.429 89.801 288.601 87.153 288.601 82.793C 288.601 78.457 286.453 75.805 282.898 75.805L 277.504 75.805L 277.504 89.801zM 279.304 88.2L 279.304 77.403L 282.594 77.403C 285.347 77.403 286.801 79.254 286.801 82.809C 286.801 86.325 285.347 88.196 282.594 88.196L 279.304 88.2z"/>
<path style="stroke:none; fill-rule:evenodd; fill:#000000" d="M 292.504 79.7L 290.906 79.7L 290.906 89.797L 292.504 89.797L 292.504 79.7zM 292.504 75.801L 290.906 75.801L 290.906 77.821L 292.504 77.821L 292.504 75.801z"/>
<path style="stroke:none; fill-rule:evenodd; fill:#000000" d="M 295.203 79.789L 295.203 89.797L 296.801 89.797L 296.801 83.5161C 296.801 82.067 297.875 80.903 299.203 80.903C 300.414 80.903 301.097 81.629 301.097 82.907L 301.097 89.797L 302.695 89.797L 302.695 83.5161C 302.695 82.067 303.742 80.903 305.039 80.903C 306.199 80.903 306.89 81.645 306.89 82.907L 306.89 89.797L 308.488 89.797L 308.488 82.289C 308.488 80.496 307.453 79.5 305.57 79.5C 304.23 79.5 303.426 79.8911 302.484 80.989C 301.89 79.946 301.086 79.5 299.781 79.5C 298.441 79.5 297.558 79.996 296.695 81.2L 296.695 79.789L 295.203 79.789z"/>
<path style="stroke:none; fill-rule:evenodd; fill:#000000" d="M 324.301 85.598L 325.738 89.797L 327.73 89.797L 322.82 75.797L 320.519 75.797L 315.531 89.797L 317.429 89.797L 318.906 85.598L 324.301 85.598zM 323.801 84.098L 319.351 84.098L 321.652 77.7271L 323.801 84.098z"/>
<path style="stroke:none; fill-rule:evenodd; fill:#000000" d="M 336.605 89.801L 342 89.801C 345.531 89.801 347.703 87.153 347.703 82.793C 347.703 78.457 345.554 75.805 342 75.805L 336.605 75.805L 336.605 89.801zM 338.406 88.2L 338.406 77.403L 341.695 77.403C 344.449 77.403 345.902 79.254 345.902 82.809C 345.902 86.325 344.449 88.196 341.695 88.196L 338.406 88.2z"/>
<path style="stroke:none; fill-rule:evenodd; fill:#000000" d="M 351.703 79.7L 350.105 79.7L 350.105 89.797L 351.703 89.797L 351.703 79.7zM 351.703 75.801L 350.105 75.801L 350.105 77.821L 351.703 77.821L 351.703 75.801z"/>
<path style="stroke:none; fill-rule:evenodd; fill:#000000" d="M 354.304 79.789L 354.304 89.797L 355.902 89.797L 355.902 83.5161C 355.902 82.067 356.976 80.903 358.304 80.903C 359.515 80.903 360.199 81.629 360.199 82.907L 360.199 89.797L 361.797 89.797L 361.797 83.5161C 361.797 82.067 362.844 80.903 364.14 80.903C 365.301 80.903 365.992 81.645 365.992 82.907L 365.992 89.797L 367.59 89.797L 367.59 82.289C 367.59 80.496 366.554 79.5 364.672 79.5C 363.332 79.5 362.527 79.8911 361.586 80.989C 360.992 79.946 360.187 79.5 358.883 79.5C 357.543 79.5 356.66 79.996 355.797 81.2L 355.797 79.789L 354.304 79.789z"/>
<path style="stroke:none; fill-rule:evenodd; fill:#000000" d="M 375.804 89.801L 382.152 89.801C 383.48 89.801 384.465 89.438 385.218 88.633C 385.91 87.907 386.297 86.907 386.297 85.813C 386.297 84.125 385.519 83.11 383.703 82.414C 385.004 81.821 385.695 80.786 385.695 79.364C 385.695 78.348 385.308 77.446 384.574 76.793C 383.84 76.121 382.875 75.813 381.519 75.813L 375.797 75.813L 375.804 89.801zM 377.605 81.801L 377.605 77.403L 381.082 77.403C 382.086 77.403 382.644 77.536 383.129 77.895C 383.629 78.274 383.898 78.84 383.898 79.598C 383.898 80.336 383.629 80.922 383.129 81.301C 382.648 81.66 382.086 81.793 381.082 81.793L 377.605 81.801zM 377.605 88.2L 377.605 83.403L 381.98 83.403C 382.844 83.403 383.422 83.614 383.847 84.071C 384.269 84.508 384.5 85.121 384.5 85.809C 384.5 86.477 384.269 87.086 383.847 87.528C 383.426 87.985 382.847 88.196 381.98 88.196L 377.605 88.2z"/>
<path style="stroke:none; fill-rule:evenodd; fill:#000000" d="M 176.105 14L 181.5 14C 185.031 14 187.203 11.3521 187.203 6.99304C 187.203 2.65704 185.054 0.00402832 181.5 0.00402832L 176.105 0.00402832L 176.105 14zM 177.906 12.399L 177.906 1.60205L 181.195 1.60205C 183.949 1.60205 185.402 3.453 185.402 7.008C 185.402 10.524 183.949 12.395 181.195 12.395L 177.906 12.399z"/>
<path style="stroke:none; fill-rule:evenodd; fill:#000000" d="M 191.203 3.89905L 189.605 3.89905L 189.605 13.996L 191.203 13.996L 191.203 3.89905zM 191.203 0L 189.605 0L 189.605 2.02002L 191.203 2.02002L 191.203 0z"/>
<path style="stroke:none; fill-rule:evenodd; fill:#000000" d="M 193.804 3.98901L 193.804 13.996L 195.402 13.996L 195.402 7.71503C 195.402 6.26605 196.476 5.10205 197.804 5.10205C 199.015 5.10205 199.699 5.828 199.699 7.10602L 199.699 13.996L 201.297 13.996L 201.297 7.71503C 201.297 6.26605 202.344 5.10205 203.64 5.10205C 204.801 5.10205 205.492 5.84399 205.492 7.10602L 205.492 13.996L 207.09 13.996L 207.09 6.48901C 207.09 4.69604 206.054 3.70001 204.172 3.70001C 202.832 3.70001 202.027 4.09003 201.086 5.18805C 200.492 4.14502 199.687 3.70001 198.383 3.70001C 197.043 3.70001 196.16 4.19604 195.297 5.39905L 195.297 3.98901L 193.804 3.98901z"/>
<path style="stroke:none; fill-rule:evenodd; fill:#000000" d="M 222.902 9.80103L 224.34 14L 226.332 14L 221.422 0L 219.121 0L 214.133 14L 216.031 14L 217.508 9.80103L 222.902 9.80103zM 222.402 8.30103L 217.953 8.30103L 220.254 1.92999L 222.402 8.30103z"/>
<path style="stroke:none; fill-rule:evenodd; fill:#000000" d="M 237.804 14L 243.199 14C 246.73 14 248.902 11.3521 248.902 6.99304C 248.902 2.65704 246.754 0.00402832 243.199 0.00402832L 237.804 0.00402832L 237.804 14zM 239.605 12.399L 239.605 1.60205L 242.894 1.60205C 245.648 1.60205 247.101 3.453 247.101 7.008C 247.101 10.524 245.648 12.395 242.894 12.395L 239.605 12.399z"/>
<path style="stroke:none; fill-rule:evenodd; fill:#000000" d="M 252.804 3.89905L 251.207 3.89905L 251.207 13.996L 252.804 13.996L 252.804 3.89905zM 252.804 0L 251.207 0L 251.207 2.02002L 252.804 2.02002L 252.804 0z"/>
<path style="stroke:none; fill-rule:evenodd; fill:#000000" d="M 255.504 3.98901L 255.504 13.996L 257.101 13.996L 257.101 7.71503C 257.101 6.26605 258.176 5.10205 259.504 5.10205C 260.715 5.10205 261.398 5.828 261.398 7.10602L 261.398 13.996L 262.996 13.996L 262.996 7.71503C 262.996 6.26605 264.043 5.10205 265.34 5.10205C 266.5 5.10205 267.191 5.84399 267.191 7.10602L 267.191 13.996L 268.789 13.996L 268.789 6.48901C 268.789 4.69604 267.754 3.70001 265.871 3.70001C 264.531 3.70001 263.726 4.09003 262.785 5.18805C 262.191 4.14502 261.386 3.70001 260.082 3.70001C 258.742 3.70001 257.859 4.19604 256.996 5.39905L 256.996 3.98901L 255.504 3.98901z"/>
<path style="stroke:none; fill-rule:evenodd; fill:#000000" d="M 277.004 14L 283.351 14C 284.679 14 285.664 13.637 286.418 12.832C 287.109 12.106 287.496 11.106 287.496 10.012C 287.496 8.32501 286.718 7.30902 284.902 6.61401C 286.203 6.02002 286.894 4.98505 286.894 3.56305C 286.894 2.547 286.508 1.64502 285.773 0.993042C 285.039 0.321045 284.074 0.0120239 282.718 0.0120239L 276.996 0.0120239L 277.004 14zM 278.804 6L 278.804 1.60205L 282.281 1.60205C 283.285 1.60205 283.844 1.73505 284.328 2.09399C 284.828 2.47302 285.097 3.039 285.097 3.797C 285.097 4.53601 284.828 5.12103 284.328 5.5C 283.847 5.86005 283.285 5.99304 282.281 5.99304L 278.804 6zM 278.804 12.399L 278.804 7.60205L 283.179 7.60205C 284.043 7.60205 284.621 7.81305 285.047 8.27002C 285.468 8.70703 285.699 9.32104 285.699 10.008C 285.699 10.676 285.468 11.286 285.047 11.7271C 284.625 12.184 284.047 12.395 283.179 12.395L 278.804 12.399z"/>
<path style="stroke:none; fill-rule:evenodd; fill:#000000" d="M 294.406 388.801L 292.609 388.801L 292.609 402.801L 301.308 402.801L 301.308 401.203L 294.41 401.203L 294.406 388.801z"/>
<path style="stroke:none; fill-rule:evenodd; fill:#000000" d="M 334.804 395.801L 339.402 395.801C 340.992 395.801 341.703 396.563 341.703 398.282L 341.703 399.52C 341.703 400.379 341.851 401.219 342.097 401.793L 344.23 401.793L 344.23 401.356C 343.57 400.895 343.437 400.395 343.402 398.536C 343.383 396.235 343.015 395.543 341.492 394.891C 343.066 394.125 343.703 393.145 343.703 391.551C 343.703 389.133 342.187 387.809 339.445 387.809L 333.008 387.809L 333.008 401.809L 334.804 401.809L 334.804 395.801zM 334.773 394.2L 334.773 389.383L 339.09 389.383C 340.086 389.383 340.66 389.536 341.101 389.918C 341.578 390.321 341.828 390.953 341.828 391.797C 341.828 393.446 340.984 394.196 339.086 394.196L 334.773 394.2z"/>
<path style="stroke:none; fill-rule:evenodd; fill:#000000" d="M 293.027 271.301L 297.883 257.301L 295.984 257.301L 292.109 269.149L 288.004 257.301L 286.086 257.301L 291.113 271.301L 293.027 271.301z"/>
<path style="stroke:none; fill-rule:evenodd; fill:#000000" d="M 305.105 258.899L 309.683 258.899L 309.683 257.301L 298.707 257.301L 298.707 258.899L 303.301 258.899L 303.301 271.297L 305.097 271.297L 305.105 258.899z"/>
<path style="stroke:none; fill-rule:evenodd; fill:#000000" d="M 319.101 267.098L 320.539 271.297L 322.531 271.297L 317.621 257.297L 315.32 257.297L 310.332 271.297L 312.23 271.297L 313.707 267.098L 319.101 267.098zM 318.601 265.598L 314.152 265.598L 316.453 259.227L 318.601 265.598z"/>
<path style="stroke:none; fill-rule:evenodd; fill:#000000" d="M 290.336 18.899C 286.332 18.899 283.609 21.84 283.609 26.196C 283.609 30.551 286.332 33.493 290.355 33.493C 292.039 33.493 293.554 32.9771 294.687 32.024C 296.199 30.746 297.105 28.586 297.105 26.313C 297.105 21.825 294.441 18.899 290.336 18.899zM 290.336 20.5C 293.355 20.5 295.304 22.782 295.304 26.274C 295.304 29.614 293.297 31.895 290.355 31.895C 287.394 31.895 285.41 29.618 285.41 26.2C 285.41 22.782 287.394 20.5 290.34 20.5L 290.336 20.5z"/>
<path style="stroke:none; fill-rule:evenodd; fill:#000000" d="M 299.203 23.09L 299.203 33.098L 300.801 33.098L 300.801 27.914C 300.801 26.485 301.168 25.551 301.945 25C 302.449 24.6411 302.933 24.524 304.058 24.508L 304.058 22.868C 303.789 22.832 303.656 22.813 303.445 22.813C 302.41 22.813 301.625 23.426 300.703 24.914L 300.703 23.1021L 299.203 23.09z"/>
<path style="stroke:none; fill-rule:evenodd; fill:#000000" d="M 305.304 19.098L 305.304 33.098L 306.703 33.098L 306.703 31.813C 307.461 32.953 308.472 33.496 309.859 33.496C 312.484 33.496 314.199 31.348 314.199 28.036C 314.199 24.801 312.551 22.801 309.906 22.801C 308.527 22.801 307.551 23.305 306.804 24.403L 306.804 19.098L 305.304 19.098zM 309.636 24.25C 311.418 24.25 312.57 25.805 312.57 28.203C 312.57 30.485 311.383 32.039 309.636 32.039C 307.949 32.039 306.836 30.504 306.836 28.145C 306.836 25.786 307.945 24.25 309.636 24.25z"/>
<path style="stroke:none; fill-rule:evenodd; fill:#000000" d="M 317.804 23L 316.207 23L 316.207 33.098L 317.804 33.098L 317.804 23zM 317.804 19.098L 316.207 19.098L 316.207 21.118L 317.804 21.118L 317.804 19.098z"/>
<path style="stroke:none; fill-rule:evenodd; fill:#000000" d="M 324.105 23L 322.406 23L 322.406 20.282L 320.808 20.282L 320.808 23L 319.511 23L 319.511 24.297L 320.808 24.297L 320.808 31.903C 320.808 32.918 321.508 33.496 322.777 33.496C 323.168 33.496 323.554 33.461 324.105 33.368L 324.105 32.063C 323.89 32.086 323.633 32.098 323.316 32.098C 322.605 32.098 322.41 31.907 322.41 31.196L 322.41 24.301L 324.109 24.301L 324.105 23z"/>
<path style="stroke:none; fill-rule:evenodd; fill:#000000" d="M 334.773 32.16C 334.609 32.2 334.535 32.2 334.441 32.2C 333.906 32.2 333.609 31.914 333.609 31.418L 333.609 25.539C 333.609 23.7661 332.301 22.809 329.808 22.809C 328.344 22.809 327.129 23.223 326.453 23.961C 325.992 24.469 325.801 25.039 325.761 26.02L 327.379 26.02C 327.511 24.84 328.246 24.305 329.75 24.305C 331.195 24.305 332.008 24.836 332.008 25.786L 332.008 26.203C 332.008 26.864 331.605 27.149 330.328 27.301C 328.051 27.582 327.703 27.66 327.086 27.907C 325.91 28.379 325.312 29.27 325.312 30.559C 325.312 32.36 326.578 33.496 328.613 33.496C 329.879 33.496 330.894 33.071 332.031 32.063C 332.144 33.047 332.644 33.496 333.679 33.496C 334.004 33.496 334.254 33.461 334.773 33.328L 334.773 32.16zM 332.004 29.914C 332.004 30.446 331.847 30.7661 331.359 31.203C 330.695 31.789 329.89 32.094 328.929 32.094C 327.656 32.094 326.91 31.508 326.91 30.5C 326.91 29.457 327.633 28.926 329.379 28.68C 331.101 28.453 331.457 28.379 332.008 28.129L 332.004 29.914z"/>
<path style="stroke:none; fill-rule:evenodd; fill:#000000" d="M 336.504 33.098L 338.101 33.098L 338.101 19.098L 336.504 19.098L 336.504 33.098z"/>
<path style="stroke:none; fill-rule:evenodd; fill:#000000" d="M 320.004 123.899L 318.207 123.899L 318.207 137.899L 326.906 137.899L 326.906 136.301L 320.008 136.301L 320.004 123.899z"/>
<path style="stroke:none; fill-rule:evenodd; fill:#000000" d="M 337.672 136.957C 337.508 136.996 337.433 136.996 337.34 136.996C 336.804 136.996 336.508 136.711 336.508 136.215L 336.508 130.336C 336.508 128.563 335.199 127.606 332.707 127.606C 331.242 127.606 330.027 128.02 329.351 128.758C 328.89 129.266 328.699 129.836 328.66 130.817L 330.277 130.817C 330.41 129.637 331.144 129.102 332.648 129.102C 334.094 129.102 334.906 129.633 334.906 130.582L 334.906 131C 334.906 131.66 334.504 131.946 333.226 132.098C 330.949 132.379 330.601 132.457 329.984 132.703C 328.808 133.176 328.211 134.067 328.211 135.356C 328.211 137.157 329.476 138.293 331.511 138.293C 332.777 138.293 333.793 137.868 334.929 136.86C 335.043 137.844 335.543 138.293 336.578 138.293C 336.902 138.293 337.152 138.258 337.672 138.125L 337.672 136.957zM 334.906 134.715C 334.906 135.246 334.75 135.567 334.261 136.004C 333.597 136.59 332.793 136.895 331.832 136.895C 330.558 136.895 329.812 136.309 329.812 135.301C 329.812 134.258 330.535 133.727 332.281 133.481C 334.004 133.254 334.359 133.18 334.91 132.93L 334.906 134.715z"/>
<path style="stroke:none; fill-rule:evenodd; fill:#000000" d="M 342.906 127.801L 341.207 127.801L 341.207 125.082L 339.609 125.082L 339.609 127.801L 338.312 127.801L 338.312 129.098L 339.609 129.098L 339.609 136.703C 339.609 137.719 340.308 138.297 341.578 138.297C 341.968 138.297 342.355 138.262 342.906 138.168L 342.906 136.864C 342.691 136.887 342.433 136.899 342.117 136.899C 341.406 136.899 341.211 136.707 341.211 135.996L 341.211 129.102L 342.91 129.102L 342.906 127.801z"/>
<path style="stroke:none; fill-rule:evenodd; fill:#000000" d="M 353.304 133.399C 353.304 131.879 353.191 130.965 352.902 130.227C 352.25 128.594 350.711 127.606 348.828 127.606C 346.023 127.606 344.215 129.739 344.215 133.012C 344.215 136.286 345.953 138.301 348.765 138.301C 351.058 138.301 352.644 137.016 353.047 134.852L 351.429 134.852C 350.988 136.133 350.082 136.801 348.789 136.801C 347.769 136.801 346.898 136.352 346.359 135.52C 345.976 134.957 345.84 134.387 345.82 133.407L 353.304 133.399zM 345.879 132.106C 346.011 130.246 347.144 129.036 348.758 129.036C 350.328 129.036 351.539 130.34 351.539 131.989C 351.539 132.024 351.539 132.063 351.523 132.102L 345.879 132.106z"/>
<path style="stroke:none; fill-rule:evenodd; fill:#000000" d="M 355.304 127.887L 355.304 137.895L 356.902 137.895L 356.902 132.711C 356.902 131.282 357.269 130.348 358.047 129.797C 358.551 129.438 359.035 129.321 360.16 129.305L 360.16 127.664C 359.89 127.629 359.758 127.61 359.547 127.61C 358.511 127.61 357.726 128.223 356.804 129.711L 356.804 127.899L 355.304 127.887z"/>
<path style="stroke:none; fill-rule:evenodd; fill:#000000" d="M 370.672 136.957C 370.508 136.996 370.433 136.996 370.34 136.996C 369.804 136.996 369.508 136.711 369.508 136.215L 369.508 130.336C 369.508 128.563 368.199 127.606 365.707 127.606C 364.242 127.606 363.027 128.02 362.351 128.758C 361.89 129.266 361.699 129.836 361.66 130.817L 363.277 130.817C 363.41 129.637 364.144 129.102 365.648 129.102C 367.094 129.102 367.906 129.633 367.906 130.582L 367.906 131C 367.906 131.66 367.504 131.946 366.226 132.098C 363.949 132.379 363.601 132.457 362.984 132.703C 361.808 133.176 361.211 134.067 361.211 135.356C 361.211 137.157 362.476 138.293 364.511 138.293C 365.777 138.293 366.793 137.868 367.929 136.86C 368.043 137.844 368.543 138.293 369.578 138.293C 369.902 138.293 370.152 138.258 370.672 138.125L 370.672 136.957zM 367.906 134.715C 367.906 135.246 367.75 135.567 367.261 136.004C 366.597 136.59 365.793 136.895 364.832 136.895C 363.558 136.895 362.812 136.309 362.812 135.301C 362.812 134.258 363.535 133.727 365.281 133.481C 367.004 133.254 367.359 133.18 367.91 132.93L 367.906 134.715z"/>
<path style="stroke:none; fill-rule:evenodd; fill:#000000" d="M 372.406 137.899L 374.004 137.899L 374.004 123.899L 372.406 123.899L 372.406 137.899z"/>
<path style="stroke:none; fill-rule:evenodd; fill:#000000" d="M 1.8046 199.5L 6.2421 199.5C 7.3437 199.5 8.2187 199.176 8.9726 198.5C 9.8242 197.731 10.1953 196.825 10.1953 195.532C 10.1953 192.891 8.625 191.407 5.8359 191.407L 0 191.407L 0 205.407L 1.7968 205.407L 1.8046 199.5zM 1.8046 197.899L 1.8046 193L 5.5546 193C 7.2734 193 8.3007 193.918 8.3007 195.45C 8.3007 196.977 7.2773 197.899 5.5546 197.899L 1.8046 197.899z"/>
<path style="stroke:none; fill-rule:evenodd; fill:#000000" d="M 16.3359 195.102C 13.5156 195.102 11.8085 197.102 11.8085 200.45C 11.8085 203.797 13.496 205.797 16.3554 205.797C 19.1757 205.797 20.9023 203.801 20.9023 200.528C 20.9023 197.086 19.2343 195.102 16.3359 195.102zM 16.3554 196.598C 18.2031 196.598 19.3046 198.047 19.3046 200.5C 19.3046 202.821 18.164 204.293 16.3554 204.293C 14.5273 204.293 13.4062 202.844 13.4062 200.446C 13.4062 198.071 14.5234 196.598 16.3554 196.598z"/>
<path style="stroke:none; fill-rule:evenodd; fill:#000000" d="M 30.1092 198.145C 30.0902 196.2 28.7852 195.102 26.4652 195.102C 24.1252 195.102 22.6093 196.297 22.6093 198.137C 22.6093 199.692 23.4222 200.43 25.8242 201L 27.3362 201.36C 28.4572 201.625 28.9022 202.02 28.9022 202.743C 28.9022 203.668 27.9572 204.297 26.5432 204.297C 25.6722 204.297 24.9372 204.059 24.5312 203.649C 24.2812 203.371 24.1642 203.094 24.0662 202.407L 22.3632 202.407C 22.4374 204.7 23.7422 205.797 26.3672 205.797C 28.8942 205.797 30.5082 204.567 30.5082 202.653C 30.5082 201.176 29.6562 200.36 27.6402 199.887L 26.0902 199.528C 24.7732 199.227 24.2112 198.809 24.2112 198.106C 24.2112 197.2 25.0472 196.606 26.3632 196.606C 27.6642 196.606 28.3632 197.137 28.4022 198.149L 30.1092 198.145z"/>
<path style="stroke:none; fill-rule:evenodd; fill:#000000" d="M 36.2032 195.301L 34.5042 195.301L 34.5042 192.582L 32.9062 192.582L 32.9062 195.301L 31.6092 195.301L 31.6092 196.598L 32.9062 196.598L 32.9062 204.203C 32.9062 205.219 33.6052 205.797 34.8752 205.797C 35.2652 205.797 35.6522 205.762 36.2032 205.668L 36.2032 204.364C 35.9882 204.387 35.7302 204.399 35.4142 204.399C 34.7032 204.399 34.5082 204.207 34.5082 203.496L 34.5082 196.602L 36.2072 196.602L 36.2032 195.301z"/>
<path style="stroke:none; fill-rule:evenodd; fill:#000000" d="M 46.6052 200.899C 46.6052 199.379 46.4922 198.465 46.2032 197.727C 45.5512 196.094 44.0112 195.106 42.1292 195.106C 39.3242 195.106 37.5152 197.239 37.5152 200.512C 37.5152 203.786 39.2542 205.801 42.0662 205.801C 44.3592 205.801 45.9452 204.516 46.3472 202.352L 44.7302 202.352C 44.2892 203.633 43.3832 204.301 42.0902 204.301C 41.0702 204.301 40.1992 203.852 39.6602 203.02C 39.2772 202.457 39.1402 201.887 39.1212 200.907L 46.6052 200.899zM 39.1792 199.606C 39.3122 197.746 40.4452 196.536 42.0582 196.536C 43.6292 196.536 44.8402 197.84 44.8402 199.489C 44.8402 199.524 44.8402 199.563 44.8242 199.602L 39.1792 199.606z"/>
<path style="stroke:none; fill-rule:evenodd; fill:#000000" d="M 48.6052 195.387L 48.6052 205.395L 50.2032 205.395L 50.2032 200.211C 50.2032 198.782 50.5702 197.848 51.3472 197.297C 51.8512 196.938 52.3362 196.821 53.4612 196.805L 53.4612 195.164C 53.1912 195.129 53.0582 195.11 52.8472 195.11C 51.8122 195.11 51.0272 195.723 50.1052 197.211L 50.1052 195.399L 48.6052 195.387z"/>
<path style="stroke:none; fill-rule:evenodd; fill:#000000" d="M 56.6052 195.301L 55.0082 195.301L 55.0082 205.399L 56.6052 205.399L 56.6052 195.301zM 56.6052 191.399L 55.0082 191.399L 55.0082 193.418L 56.6052 193.418L 56.6052 191.399z"/>
<path style="stroke:none; fill-rule:evenodd; fill:#000000" d="M 63.2342 195.102C 60.4142 195.102 58.7072 197.102 58.7072 200.45C 58.7072 203.797 60.3942 205.797 63.2542 205.797C 66.0742 205.797 67.8012 203.801 67.8012 200.528C 67.8012 197.086 66.1332 195.102 63.2342 195.102zM 63.2542 196.598C 65.1012 196.598 66.2032 198.047 66.2032 200.5C 66.2032 202.821 65.0622 204.293 63.2542 204.293C 61.4262 204.293 60.3042 202.844 60.3042 200.446C 60.3042 198.071 61.4222 196.598 63.2542 196.598z"/>
<path style="stroke:none; fill-rule:evenodd; fill:#000000" d="M 70.0042 195.387L 70.0042 205.395L 71.6012 205.395L 71.6012 200.211C 71.6012 198.782 71.9682 197.848 72.7462 197.297C 73.2502 196.938 73.7342 196.821 74.8592 196.805L 74.8592 195.164C 74.5902 195.129 74.4572 195.11 74.2462 195.11C 73.2112 195.11 72.4262 195.723 71.5042 197.211L 71.5042 195.399L 70.0042 195.387z"/>
<path style="stroke:none; fill-rule:evenodd; fill:#000000" d="M 267.406 345.801L 272.004 345.801C 273.594 345.801 274.304 346.563 274.304 348.282L 274.304 349.52C 274.304 350.379 274.453 351.219 274.699 351.793L 276.832 351.793L 276.832 351.356C 276.172 350.895 276.039 350.395 276.004 348.536C 275.984 346.235 275.617 345.543 274.094 344.891C 275.668 344.125 276.304 343.145 276.304 341.551C 276.304 339.133 274.789 337.809 272.047 337.809L 265.609 337.809L 265.609 351.809L 267.406 351.809L 267.406 345.801zM 267.375 344.2L 267.375 339.383L 271.691 339.383C 272.687 339.383 273.261 339.536 273.703 339.918C 274.179 340.321 274.429 340.953 274.429 341.797C 274.429 343.446 273.586 344.196 271.687 344.196L 267.375 344.2z"/>
<path style="stroke:none; fill-rule:evenodd; fill:#000000" d="M 287.605 347.301C 287.605 345.782 287.492 344.868 287.203 344.129C 286.551 342.496 285.011 341.508 283.129 341.508C 280.324 341.508 278.515 343.641 278.515 346.914C 278.515 350.188 280.254 352.203 283.066 352.203C 285.359 352.203 286.945 350.918 287.347 348.754L 285.73 348.754C 285.289 350.036 284.383 350.703 283.09 350.703C 282.07 350.703 281.199 350.254 280.66 349.422C 280.277 348.86 280.14 348.289 280.121 347.309L 287.605 347.301zM 280.179 346.004C 280.312 344.145 281.445 342.934 283.058 342.934C 284.629 342.934 285.84 344.239 285.84 345.887C 285.84 345.922 285.84 345.961 285.824 346L 280.179 346.004z"/>
<path style="stroke:none; fill-rule:evenodd; fill:#000000" d="M 296.711 344.543C 296.691 342.598 295.386 341.5 293.066 341.5C 290.726 341.5 289.211 342.696 289.211 344.536C 289.211 346.09 290.023 346.828 292.426 347.399L 293.937 347.758C 295.058 348.024 295.504 348.418 295.504 349.141C 295.504 350.067 294.558 350.696 293.144 350.696C 292.273 350.696 291.539 350.457 291.133 350.047C 290.883 349.77 290.765 349.493 290.668 348.805L 288.965 348.805C 289.039 351.098 290.344 352.196 292.968 352.196C 295.496 352.196 297.109 350.965 297.109 349.051C 297.109 347.575 296.258 346.758 294.242 346.286L 292.691 345.926C 291.375 345.625 290.812 345.207 290.812 344.504C 290.812 343.598 291.648 343.004 292.965 343.004C 294.265 343.004 294.965 343.536 295.004 344.547L 296.711 344.543z"/>
<path style="stroke:none; fill-rule:evenodd; fill:#000000" d="M 298.906 355.985L 300.504 355.985L 300.504 350.703C 301.347 351.739 302.289 352.203 303.597 352.203C 306.191 352.203 307.902 350.129 307.902 346.95C 307.902 343.602 306.258 341.508 303.597 341.508C 302.242 341.508 301.152 342.118 300.406 343.305L 300.406 341.797L 298.906 341.797L 298.906 355.985zM 303.344 343C 305.133 343 306.301 344.536 306.301 346.907C 306.301 349.16 305.113 350.696 303.344 350.696C 301.633 350.696 300.504 349.18 300.504 346.848C 300.504 344.52 301.633 343 303.344 343z"/>
<path style="stroke:none; fill-rule:evenodd; fill:#000000" d="M 313.836 341.5C 311.015 341.5 309.308 343.5 309.308 346.848C 309.308 350.196 310.996 352.196 313.855 352.196C 316.676 352.196 318.402 350.2 318.402 346.926C 318.402 343.485 316.734 341.5 313.836 341.5zM 313.855 343C 315.703 343 316.804 344.45 316.804 346.903C 316.804 349.223 315.664 350.696 313.855 350.696C 312.027 350.696 310.906 349.246 310.906 346.848C 310.906 344.473 312.023 343 313.855 343z"/>
<path style="stroke:none; fill-rule:evenodd; fill:#000000" d="M 320.605 341.789L 320.605 351.797L 322.203 351.797L 322.203 346.282C 322.203 344.239 323.297 342.903 324.984 342.903C 326.277 342.903 327.097 343.664 327.097 344.868L 327.097 351.797L 328.695 351.797L 328.695 344.235C 328.695 342.575 327.433 341.504 325.472 341.504C 323.961 341.504 322.992 342.078 322.097 343.473L 322.097 341.793L 320.605 341.789z"/>
<path style="stroke:none; fill-rule:evenodd; fill:#000000" d="M 338.312 344.543C 338.293 342.598 336.988 341.5 334.668 341.5C 332.328 341.5 330.812 342.696 330.812 344.536C 330.812 346.09 331.625 346.828 334.027 347.399L 335.539 347.758C 336.66 348.024 337.105 348.418 337.105 349.141C 337.105 350.067 336.16 350.696 334.746 350.696C 333.875 350.696 333.14 350.457 332.734 350.047C 332.484 349.77 332.367 349.493 332.269 348.805L 330.566 348.805C 330.64 351.098 331.945 352.196 334.57 352.196C 337.097 352.196 338.711 350.965 338.711 349.051C 338.711 347.575 337.859 346.758 335.844 346.286L 334.293 345.926C 332.976 345.625 332.414 345.207 332.414 344.504C 332.414 343.598 333.25 343.004 334.566 343.004C 335.867 343.004 336.566 343.536 336.605 344.547L 338.312 344.543z"/>
<path style="stroke:none; fill-rule:evenodd; fill:#000000" d="M 349.406 347.301C 349.406 345.782 349.293 344.868 349.004 344.129C 348.351 342.496 346.812 341.508 344.929 341.508C 342.125 341.508 340.316 343.641 340.316 346.914C 340.316 350.188 342.054 352.203 344.867 352.203C 347.16 352.203 348.746 350.918 349.148 348.754L 347.531 348.754C 347.09 350.036 346.183 350.703 344.89 350.703C 343.871 350.703 343 350.254 342.461 349.422C 342.078 348.86 341.941 348.289 341.922 347.309L 349.406 347.301zM 341.98 346.004C 342.113 344.145 343.246 342.934 344.859 342.934C 346.429 342.934 347.64 344.239 347.64 345.887C 347.64 345.922 347.64 345.961 347.625 346L 341.98 346.004z"/>
</g>
</svg>