<?xml version="1.0" encoding="UTF-8" standalone="no"?>
<!-- Created with Inkscape (http://www.inkscape.org/) -->

<svg
   xmlns:dc="http://purl.org/dc/elements/1.1/"
   xmlns:cc="http://creativecommons.org/ns#"
   xmlns:rdf="http://www.w3.org/1999/02/22-rdf-syntax-ns#"
   xmlns:svg="http://www.w3.org/2000/svg"
   xmlns="http://www.w3.org/2000/svg"
   xmlns:sodipodi="http://sodipodi.sourceforge.net/DTD/sodipodi-0.dtd"
   xmlns:inkscape="http://www.inkscape.org/namespaces/inkscape"
   id="svg2"
   version="1.1"
   inkscape:version="0.47 r22583"
   width="658.75"
   height="671.25"
   xml:space="preserve"
   sodipodi:docname="fig_recirc.pdf"><metadata
     id="metadata8"><rdf:RDF><cc:Work
         rdf:about=""><dc:format>image/svg+xml</dc:format><dc:type
           rdf:resource="http://purl.org/dc/dcmitype/StillImage" /><dc:title></dc:title></cc:Work></rdf:RDF></metadata><defs
     id="defs6"><inkscape:perspective
       sodipodi:type="inkscape:persp3d"
       inkscape:vp_x="0 : 0.5 : 1"
       inkscape:vp_y="0 : 1000 : 0"
       inkscape:vp_z="1 : 0.5 : 1"
       inkscape:persp3d-origin="0.5 : 0.33333333 : 1"
       id="perspective10" /></defs><sodipodi:namedview
     pagecolor="#ffffff"
     bordercolor="#666666"
     borderopacity="1"
     objecttolerance="10"
     gridtolerance="10"
     guidetolerance="10"
     inkscape:pageopacity="0"
     inkscape:pageshadow="2"
     inkscape:window-width="1077"
     inkscape:window-height="768"
     id="namedview4"
     showgrid="false"
     inkscape:zoom="0.36945996"
     inkscape:cx="329.375"
     inkscape:cy="335.625"
     inkscape:window-x="0"
     inkscape:window-y="0"
     inkscape:window-maximized="0"
     inkscape:current-layer="g12" /><g
     id="g12"
     inkscape:groupmode="layer"
     inkscape:label="fig_recirc"
     transform="matrix(1.25,0,0,-1.25,0,671.25)"><g
       id="g14"
       transform="scale(0.1,0.1)"><path
         d="m 86.1367,3049.62 2685.41,0 0,622.434 -2685.41,0 0,-622.434 z"
         style="fill:none;stroke:#000000;stroke-opacity:1;stroke-width:15.7529;stroke-linecap:butt;stroke-linejoin:miter;stroke-miterlimit:10;stroke-dasharray:none"
         id="path16" /><path
         d="m 779.27,3364.68 c 0,139.2 -112.848,252.05 -252.047,252.05 -139.2,0 -252.047,-112.85 -252.047,-252.05 0,-139.2 112.847,-252.04 252.047,-252.04 139.199,0 252.047,112.84 252.047,252.04"
         style="fill:#ffffff;fill-opacity:1;fill-rule:evenodd;stroke:none"
         id="path18" /><path
         d="m 779.27,3364.68 c 0,139.2 -112.848,252.05 -252.047,252.05 -139.2,0 -252.047,-112.85 -252.047,-252.05 0,-139.2 112.847,-252.04 252.047,-252.04 139.199,0 252.047,112.84 252.047,252.04"
         style="fill:none;stroke:#000000;stroke-opacity:1;stroke-width:15.7529;stroke-linecap:butt;stroke-linejoin:miter;stroke-miterlimit:10;stroke-dasharray:none"
         id="path20" /><path
         d="m 2039.5,3364.68 c 0,139.2 -112.84,252.05 -252.04,252.05 -139.2,0 -252.05,-112.85 -252.05,-252.05 0,-139.2 112.85,-252.04 252.05,-252.04 139.2,0 252.04,112.84 252.04,252.04"
         style="fill:none;stroke:#000000;stroke-opacity:1;stroke-width:15.7529;stroke-linecap:butt;stroke-linejoin:miter;stroke-miterlimit:10;stroke-dasharray:none"
         id="path22" /><path
         d="m 2204.91,3191.4 c 0,13.05 -10.58,23.63 -23.63,23.63 -13.05,0 -23.63,-10.58 -23.63,-23.63 0,-13.05 10.58,-23.63 23.63,-23.63 13.05,0 23.63,10.58 23.63,23.63"
         style="fill:none;stroke:#000000;stroke-opacity:1;stroke-width:7.87647;stroke-linecap:butt;stroke-linejoin:miter;stroke-miterlimit:10;stroke-dasharray:none"
         id="path24" /><path
         d="m 2393.95,3191.4 c 0,13.05 -10.59,23.63 -23.63,23.63 -13.05,0 -23.63,-10.58 -23.63,-23.63 0,-13.05 10.58,-23.63 23.63,-23.63 13.04,0 23.63,10.58 23.63,23.63"
         style="fill:none;stroke:#000000;stroke-opacity:1;stroke-width:7.87647;stroke-linecap:butt;stroke-linejoin:miter;stroke-miterlimit:10;stroke-dasharray:none"
         id="path26" /><path
         d="m 2582.98,3191.4 c 0,13.05 -10.58,23.63 -23.63,23.63 -13.05,0 -23.63,-10.58 -23.63,-23.63 0,-13.05 10.58,-23.63 23.63,-23.63 13.05,0 23.63,10.58 23.63,23.63"
         style="fill:none;stroke:#000000;stroke-opacity:1;stroke-width:7.87647;stroke-linecap:butt;stroke-linejoin:miter;stroke-miterlimit:10;stroke-dasharray:none"
         id="path28" /><path
         d="m 23.125,340.117 2685.41,0 0,622.434 -2685.41,0 0,-622.434 z"
         style="fill:none;stroke:#000000;stroke-opacity:1;stroke-width:15.7529;stroke-linecap:butt;stroke-linejoin:miter;stroke-miterlimit:10;stroke-dasharray:none"
         id="path30" /><path
         d="m 716.258,655.176 c 0,139.199 -112.848,252.047 -252.047,252.047 -139.199,0 -252.047,-112.848 -252.047,-252.047 0,-139.199 112.848,-252.047 252.047,-252.047 139.199,0 252.047,112.848 252.047,252.047"
         style="fill:#404040;fill-opacity:1;fill-rule:evenodd;stroke:none"
         id="path32" /><path
         d="m 716.258,655.176 c 0,139.199 -112.848,252.047 -252.047,252.047 -139.199,0 -252.047,-112.848 -252.047,-252.047 0,-139.199 112.848,-252.047 252.047,-252.047 139.199,0 252.047,112.848 252.047,252.047"
         style="fill:none;stroke:#000000;stroke-opacity:1;stroke-width:15.7529;stroke-linecap:butt;stroke-linejoin:miter;stroke-miterlimit:10;stroke-dasharray:none"
         id="path34" /><path
         d="m 1346.38,655.176 c 0,139.199 -112.85,252.047 -252.05,252.047 -139.201,0 -252.049,-112.848 -252.049,-252.047 0,-139.199 112.848,-252.047 252.049,-252.047 139.2,0 252.05,112.848 252.05,252.047"
         style="fill:none;stroke:#000000;stroke-opacity:1;stroke-width:15.7529;stroke-linecap:butt;stroke-linejoin:miter;stroke-miterlimit:10;stroke-dasharray:none"
         id="path36" /><path
         d="m 1976.49,655.176 c 0,139.199 -112.85,252.047 -252.04,252.047 -139.2,0 -252.05,-112.848 -252.05,-252.047 0,-139.199 112.85,-252.047 252.05,-252.047 139.19,0 252.04,112.848 252.04,252.047"
         style="fill:#404040;fill-opacity:1;fill-rule:evenodd;stroke:none"
         id="path38" /><path
         d="m 1976.49,655.176 c 0,139.199 -112.85,252.047 -252.04,252.047 -139.2,0 -252.05,-112.848 -252.05,-252.047 0,-139.199 112.85,-252.047 252.05,-252.047 139.19,0 252.04,112.848 252.04,252.047"
         style="fill:none;stroke:#000000;stroke-opacity:1;stroke-width:15.7529;stroke-linecap:butt;stroke-linejoin:miter;stroke-miterlimit:10;stroke-dasharray:none"
         id="path40" /><path
         d="m 2141.9,481.895 c 0,13.046 -10.58,23.628 -23.63,23.628 -13.05,0 -23.63,-10.582 -23.63,-23.628 0,-13.047 10.58,-23.629 23.63,-23.629 13.05,0 23.63,10.582 23.63,23.629"
         style="fill:none;stroke:#000000;stroke-opacity:1;stroke-width:7.87647;stroke-linecap:butt;stroke-linejoin:miter;stroke-miterlimit:10;stroke-dasharray:none"
         id="path42" /><path
         d="m 2330.93,481.895 c 0,13.046 -10.58,23.628 -23.63,23.628 -13.04,0 -23.62,-10.582 -23.62,-23.628 0,-13.047 10.58,-23.629 23.62,-23.629 13.05,0 23.63,10.582 23.63,23.629"
         style="fill:none;stroke:#000000;stroke-opacity:1;stroke-width:7.87647;stroke-linecap:butt;stroke-linejoin:miter;stroke-miterlimit:10;stroke-dasharray:none"
         id="path44" /><path
         d="m 2519.97,481.895 c 0,13.046 -10.58,23.628 -23.63,23.628 -13.05,0 -23.63,-10.582 -23.63,-23.628 0,-13.047 10.58,-23.629 23.63,-23.629 13.05,0 23.63,10.582 23.63,23.629"
         style="fill:none;stroke:#000000;stroke-opacity:1;stroke-width:7.87647;stroke-linecap:butt;stroke-linejoin:miter;stroke-miterlimit:10;stroke-dasharray:none"
         id="path46" /><path
         d="m 2543.59,3994.8 2685.41,0 0,622.434 -2685.41,0 0,-622.434 z"
         style="fill:none;stroke:#000000;stroke-opacity:1;stroke-width:15.7529;stroke-linecap:butt;stroke-linejoin:miter;stroke-miterlimit:10;stroke-dasharray:none"
         id="path48" /><path
         d="m 3236.73,4309.86 c 0,139.2 -112.85,252.05 -252.05,252.05 -139.2,0 -252.04,-112.85 -252.04,-252.05 0,-139.2 112.84,-252.05 252.04,-252.05 139.2,0 252.05,112.85 252.05,252.05"
         style="fill:none;stroke:#000000;stroke-opacity:1;stroke-width:15.7529;stroke-linecap:butt;stroke-linejoin:miter;stroke-miterlimit:10;stroke-dasharray:none"
         id="path50" /><path
         d="m 3866.85,4309.86 c 0,139.2 -112.85,252.05 -252.05,252.05 -139.2,0 -252.05,-112.85 -252.05,-252.05 0,-139.2 112.85,-252.05 252.05,-252.05 139.2,0 252.05,112.85 252.05,252.05"
         style="fill:#bfbfbf;fill-opacity:1;fill-rule:evenodd;stroke:none"
         id="path52" /><path
         d="m 3866.85,4309.86 c 0,139.2 -112.85,252.05 -252.05,252.05 -139.2,0 -252.05,-112.85 -252.05,-252.05 0,-139.2 112.85,-252.05 252.05,-252.05 139.2,0 252.05,112.85 252.05,252.05"
         style="fill:none;stroke:#000000;stroke-opacity:1;stroke-width:15.7529;stroke-linecap:butt;stroke-linejoin:miter;stroke-miterlimit:10;stroke-dasharray:none"
         id="path54" /><path
         d="m 4496.96,4309.86 c 0,139.2 -112.84,252.05 -252.04,252.05 -139.2,0 -252.05,-112.85 -252.05,-252.05 0,-139.2 112.85,-252.05 252.05,-252.05 139.2,0 252.04,112.85 252.04,252.05"
         style="fill:none;stroke:#000000;stroke-opacity:1;stroke-width:15.7529;stroke-linecap:butt;stroke-linejoin:miter;stroke-miterlimit:10;stroke-dasharray:none"
         id="path56" /><path
         d="m 4662.37,4136.58 c 0,13.04 -10.58,23.63 -23.63,23.63 -13.04,0 -23.63,-10.59 -23.63,-23.63 0,-13.05 10.59,-23.63 23.63,-23.63 13.05,0 23.63,10.58 23.63,23.63"
         style="fill:none;stroke:#000000;stroke-opacity:1;stroke-width:7.87647;stroke-linecap:butt;stroke-linejoin:miter;stroke-miterlimit:10;stroke-dasharray:none"
         id="path58" /><path
         d="m 4851.41,4136.58 c 0,13.04 -10.59,23.63 -23.63,23.63 -13.05,0 -23.63,-10.59 -23.63,-23.63 0,-13.05 10.58,-23.63 23.63,-23.63 13.04,0 23.63,10.58 23.63,23.63"
         style="fill:none;stroke:#000000;stroke-opacity:1;stroke-width:7.87647;stroke-linecap:butt;stroke-linejoin:miter;stroke-miterlimit:10;stroke-dasharray:none"
         id="path60" /><path
         d="m 5040.44,4136.58 c 0,13.04 -10.58,23.63 -23.63,23.63 -13.04,0 -23.63,-10.59 -23.63,-23.63 0,-13.05 10.59,-23.63 23.63,-23.63 13.05,0 23.63,10.58 23.63,23.63"
         style="fill:none;stroke:#000000;stroke-opacity:1;stroke-width:7.87647;stroke-linecap:butt;stroke-linejoin:miter;stroke-miterlimit:10;stroke-dasharray:none"
         id="path62" /><path
         d="m 2543.59,1285.29 2685.41,0 0,622.434 -2685.41,0 0,-622.434 z"
         style="fill:none;stroke:#000000;stroke-opacity:1;stroke-width:15.7529;stroke-linecap:butt;stroke-linejoin:miter;stroke-miterlimit:10;stroke-dasharray:none"
         id="path64" /><path
         d="m 3236.73,1600.35 c 0,139.2 -112.85,252.05 -252.05,252.05 -139.2,0 -252.04,-112.85 -252.04,-252.05 0,-139.2 112.84,-252.05 252.04,-252.05 139.2,0 252.05,112.85 252.05,252.05"
         style="fill:#808080;fill-opacity:1;fill-rule:evenodd;stroke:none"
         id="path66" /><path
         d="m 3236.73,1600.35 c 0,139.2 -112.85,252.05 -252.05,252.05 -139.2,0 -252.04,-112.85 -252.04,-252.05 0,-139.2 112.84,-252.05 252.04,-252.05 139.2,0 252.05,112.85 252.05,252.05"
         style="fill:none;stroke:#000000;stroke-opacity:1;stroke-width:15.7529;stroke-linecap:butt;stroke-linejoin:miter;stroke-miterlimit:10;stroke-dasharray:none"
         id="path68" /><path
         d="m 3866.85,1600.35 c 0,139.2 -112.85,252.05 -252.05,252.05 -139.2,0 -252.05,-112.85 -252.05,-252.05 0,-139.2 112.85,-252.05 252.05,-252.05 139.2,0 252.05,112.85 252.05,252.05"
         style="fill:#bfbfbf;fill-opacity:1;fill-rule:evenodd;stroke:none"
         id="path70" /><path
         d="m 3866.85,1600.35 c 0,139.2 -112.85,252.05 -252.05,252.05 -139.2,0 -252.05,-112.85 -252.05,-252.05 0,-139.2 112.85,-252.05 252.05,-252.05 139.2,0 252.05,112.85 252.05,252.05"
         style="fill:none;stroke:#000000;stroke-opacity:1;stroke-width:15.7529;stroke-linecap:butt;stroke-linejoin:miter;stroke-miterlimit:10;stroke-dasharray:none"
         id="path72" /><path
         d="m 4496.96,1600.35 c 0,139.2 -112.84,252.05 -252.04,252.05 -139.2,0 -252.05,-112.85 -252.05,-252.05 0,-139.2 112.85,-252.05 252.05,-252.05 139.2,0 252.04,112.85 252.04,252.05"
         style="fill:#dfdfdf;fill-opacity:1;fill-rule:evenodd;stroke:none"
         id="path74" /><path
         d="m 4496.96,1600.35 c 0,139.2 -112.84,252.05 -252.04,252.05 -139.2,0 -252.05,-112.85 -252.05,-252.05 0,-139.2 112.85,-252.05 252.05,-252.05 139.2,0 252.04,112.85 252.04,252.05"
         style="fill:none;stroke:#000000;stroke-opacity:1;stroke-width:15.7529;stroke-linecap:butt;stroke-linejoin:miter;stroke-miterlimit:10;stroke-dasharray:none"
         id="path76" /><path
         d="m 4662.37,1427.07 c 0,13.05 -10.58,23.63 -23.63,23.63 -13.04,0 -23.63,-10.58 -23.63,-23.63 0,-13.05 10.59,-23.63 23.63,-23.63 13.05,0 23.63,10.58 23.63,23.63"
         style="fill:none;stroke:#000000;stroke-opacity:1;stroke-width:7.87647;stroke-linecap:butt;stroke-linejoin:miter;stroke-miterlimit:10;stroke-dasharray:none"
         id="path78" /><path
         d="m 4851.41,1427.07 c 0,13.05 -10.59,23.63 -23.63,23.63 -13.05,0 -23.63,-10.58 -23.63,-23.63 0,-13.05 10.58,-23.63 23.63,-23.63 13.04,0 23.63,10.58 23.63,23.63"
         style="fill:none;stroke:#000000;stroke-opacity:1;stroke-width:7.87647;stroke-linecap:butt;stroke-linejoin:miter;stroke-miterlimit:10;stroke-dasharray:none"
         id="path80" /><path
         d="m 5040.44,1427.07 c 0,13.05 -10.58,23.63 -23.63,23.63 -13.04,0 -23.63,-10.58 -23.63,-23.63 0,-13.05 10.59,-23.63 23.63,-23.63 13.05,0 23.63,10.58 23.63,23.63"
         style="fill:none;stroke:#000000;stroke-opacity:1;stroke-width:7.87647;stroke-linecap:butt;stroke-linejoin:miter;stroke-miterlimit:10;stroke-dasharray:none"
         id="path82" /><path
         d="M 23.1289,970.234 2543.6,1915.41"
         style="fill:none;stroke:#000000;stroke-opacity:1;stroke-width:15.7529;stroke-linecap:butt;stroke-linejoin:miter;stroke-miterlimit:10;stroke-dasharray:94.5176,31.5059;stroke-dashoffset:0"
         id="path84" /><path
         d="m 2455.56,1903.43 88.04,11.98 -74.21,-48.86"
         style="fill:none;stroke:#000000;stroke-opacity:1;stroke-width:15.7529;stroke-linecap:butt;stroke-linejoin:miter;stroke-miterlimit:10;stroke-dasharray:94.5176,31.5059;stroke-dashoffset:0"
         id="path86" /><path
         d="M 2732.64,970.234 5253.11,1915.41"
         style="fill:none;stroke:#000000;stroke-opacity:1;stroke-width:15.7529;stroke-linecap:butt;stroke-linejoin:miter;stroke-miterlimit:10;stroke-dasharray:94.5176,31.5059;stroke-dashoffset:0"
         id="path88" /><path
         d="m 5165.07,1903.43 88.04,11.98 -74.22,-48.86"
         style="fill:none;stroke:#000000;stroke-opacity:1;stroke-width:15.7529;stroke-linecap:butt;stroke-linejoin:miter;stroke-miterlimit:10;stroke-dasharray:94.5176,31.5059;stroke-dashoffset:0"
         id="path90" /><path
         d="M 2732.64,340.117 5253.11,1285.29"
         style="fill:none;stroke:#000000;stroke-opacity:1;stroke-width:15.7529;stroke-linecap:butt;stroke-linejoin:miter;stroke-miterlimit:10;stroke-dasharray:94.5176,31.5059;stroke-dashoffset:0"
         id="path92" /><path
         d="m 5165.07,1273.31 88.04,11.98 -74.22,-48.86"
         style="fill:none;stroke:#000000;stroke-opacity:1;stroke-width:15.7529;stroke-linecap:butt;stroke-linejoin:miter;stroke-miterlimit:10;stroke-dasharray:94.5176,31.5059;stroke-dashoffset:0"
         id="path94" /><path
         d="m 2795.65,3679.74 2457.46,945.18"
         style="fill:none;stroke:#000000;stroke-opacity:1;stroke-width:15.7529;stroke-linecap:butt;stroke-linejoin:miter;stroke-miterlimit:10;stroke-dasharray:94.5176,31.5059;stroke-dashoffset:0"
         id="path96" /><path
         d="m 5165.17,4612.2 87.94,12.72 -73.8,-49.48"
         style="fill:none;stroke:#000000;stroke-opacity:1;stroke-width:15.7529;stroke-linecap:butt;stroke-linejoin:miter;stroke-miterlimit:10;stroke-dasharray:94.5176,31.5059;stroke-dashoffset:0"
         id="path98" /><path
         d="M 2795.65,3049.62 5253.11,3994.8"
         style="fill:none;stroke:#000000;stroke-opacity:1;stroke-width:15.7529;stroke-linecap:butt;stroke-linejoin:miter;stroke-miterlimit:10;stroke-dasharray:94.5176,31.5059;stroke-dashoffset:0"
         id="path100" /><path
         d="m 5165.17,3982.07 87.94,12.73 -73.8,-49.48"
         style="fill:none;stroke:#000000;stroke-opacity:1;stroke-width:15.7529;stroke-linecap:butt;stroke-linejoin:miter;stroke-miterlimit:10;stroke-dasharray:94.5176,31.5059;stroke-dashoffset:0"
         id="path102" /><path
         d="M 86.1406,3679.74 2543.6,4624.92"
         style="fill:none;stroke:#000000;stroke-opacity:1;stroke-width:15.7529;stroke-linecap:butt;stroke-linejoin:miter;stroke-miterlimit:10;stroke-dasharray:94.5176,31.5059;stroke-dashoffset:0"
         id="path104" /><path
         d="m 2455.66,4612.2 87.94,12.72 -73.8,-49.48"
         style="fill:none;stroke:#000000;stroke-opacity:1;stroke-width:15.7529;stroke-linecap:butt;stroke-linejoin:miter;stroke-miterlimit:10;stroke-dasharray:94.5176,31.5059;stroke-dashoffset:0"
         id="path106" /><path
         d="M 464.211,907.223 1157.34,3112.64"
         style="fill:none;stroke:#000000;stroke-opacity:1;stroke-width:15.7529;stroke-linecap:butt;stroke-linejoin:miter;stroke-miterlimit:10;stroke-dasharray:none"
         id="path108" /><path
         d="m 1112.58,3035.88 44.76,76.76 -7.19,-88.57"
         style="fill:none;stroke:#000000;stroke-opacity:1;stroke-width:15.7529;stroke-linecap:butt;stroke-linejoin:miter;stroke-miterlimit:10;stroke-dasharray:none"
         id="path110" /><path
         d="m 1094.33,907.223 63.01,2205.417"
         style="fill:none;stroke:#000000;stroke-opacity:1;stroke-width:15.7529;stroke-linecap:butt;stroke-linejoin:miter;stroke-miterlimit:10;stroke-dasharray:none"
         id="path112" /><path
         d="m 1135.18,3026.59 22.16,86.05 17.21,-87.17"
         style="fill:none;stroke:#000000;stroke-opacity:1;stroke-width:15.7529;stroke-linecap:butt;stroke-linejoin:miter;stroke-miterlimit:10;stroke-dasharray:none"
         id="path114" /><path
         d="M 1724.45,907.223 1157.34,3112.64"
         style="fill:none;stroke:#000000;stroke-opacity:1;stroke-width:15.7529;stroke-linecap:butt;stroke-linejoin:miter;stroke-miterlimit:10;stroke-dasharray:none"
         id="path116" /><path
         d="m 1159.85,3023.82 -2.51,88.82 40.65,-79.01"
         style="fill:none;stroke:#000000;stroke-opacity:1;stroke-width:15.7529;stroke-linecap:butt;stroke-linejoin:miter;stroke-miterlimit:10;stroke-dasharray:none"
         id="path118" /><g
         id="g120"
         transform="scale(10,10)"><text
           transform="matrix(1,0,0,-1,103.132,62.0473)"
           id="text122"><tspan
             style="fill:#000000;fill-opacity:1;fill-rule:nonzero;stroke:none;font-family:Times;font-variant:normal;font-weight:bold;font-size:26.78;writing-mode:lr;-inkscape-font-specification:Times-Bold"
             x="0"
             y="0"
             id="tspan124">t</tspan></text>
<text
           transform="matrix(1,0,0,-1,112.58395,54.63558)"
           id="text126"><tspan
             style="fill:#000000;fill-opacity:1;fill-rule:nonzero;stroke:none;font-family:Times;font-variant:normal;font-weight:bold;font-size:18.9035;writing-mode:lr;-inkscape-font-specification:Times-Bold"
             x="0"
             y="0"
             id="tspan128">k</tspan></text>
<text
           transform="matrix(1,0,0,-1,2.31295,11.63788)"
           id="text130"><tspan
             style="fill:#000000;fill-opacity:1;fill-rule:nonzero;stroke:none;font-family:Times;font-variant:normal;font-weight:bold;font-size:26.78;writing-mode:lr;-inkscape-font-specification:Times-Bold"
             x="0 17.86226 24.55726 39.82186 46.51686"
             y="0"
             sodipodi:role="line"
             id="tspan132">T = 0</tspan><tspan
             style="fill:#000000;fill-opacity:1;fill-rule:nonzero;stroke:none;font-family:Times;font-variant:normal;font-weight:bold;font-size:26.78;writing-mode:lr;-inkscape-font-specification:Times-Bold"
             x="6.30117 24.16343 30.85843 46.12303 52.81803"
             y="-270.95"
             sodipodi:role="line"
             id="tspan134">T = 1</tspan></text>
</g><path
         d="m 1409.39,3364.68 c 0,139.2 -112.85,252.05 -252.05,252.05 -139.2,0 -252.047,-112.85 -252.047,-252.05 0,-139.2 112.847,-252.04 252.047,-252.04 139.2,0 252.05,112.84 252.05,252.04"
         style="fill:#dfdfdf;fill-opacity:1;fill-rule:evenodd;stroke:none"
         id="path136" /><path
         d="m 1409.39,3364.68 c 0,139.2 -112.85,252.05 -252.05,252.05 -139.2,0 -252.047,-112.85 -252.047,-252.05 0,-139.2 112.847,-252.04 252.047,-252.04 139.2,0 252.05,112.84 252.05,252.04"
         style="fill:none;stroke:#000000;stroke-opacity:1;stroke-width:15.7529;stroke-linecap:butt;stroke-linejoin:miter;stroke-miterlimit:10;stroke-dasharray:none"
         id="path138" /><g
         id="g140"
         transform="scale(10,10)"><text
           transform="matrix(1,0,0,-1,109.433,332.998)"
           id="text142"><tspan
             style="fill:#000000;fill-opacity:1;fill-rule:nonzero;stroke:none;font-family:Times;font-variant:normal;font-weight:bold;font-size:26.78;writing-mode:lr;-inkscape-font-specification:Times-Bold"
             x="0"
             y="0"
             id="tspan144">h</tspan></text>
<text
           transform="matrix(1,0,0,-1,122.0353,325.58628)"
           id="text146"><tspan
             style="fill:#000000;fill-opacity:1;fill-rule:nonzero;stroke:none;font-family:Times;font-variant:normal;font-weight:bold;font-size:18.9035;writing-mode:lr;-inkscape-font-specification:Times-Bold"
             x="0"
             y="0"
             id="tspan148">j</tspan><tspan
             style="fill:#000000;fill-opacity:1;fill-rule:nonzero;stroke:none;font-family:Times;font-variant:normal;font-weight:bold;font-size:18.9035;writing-mode:lr;-inkscape-font-specification:Times-Bold"
             x="0"
             y="-17.3285"
             id="tspan150">*</tspan></text>
<text
           transform="matrix(1,0,0,-1,462.2993,477.92578)"
           id="text152"><tspan
             style="fill:#000000;fill-opacity:1;fill-rule:nonzero;stroke:none;font-family:Times;font-variant:normal;font-weight:bold;font-size:26.78;writing-mode:lr;-inkscape-font-specification:Times-Bold"
             x="0 17.86226 24.55726 39.82186 46.51686"
             y="0"
             sodipodi:role="line"
             id="tspan154">T = 3</tspan><tspan
             style="fill:#000000;fill-opacity:1;fill-rule:nonzero;stroke:none;font-family:Times;font-variant:normal;font-weight:bold;font-size:26.78;writing-mode:lr;-inkscape-font-specification:Times-Bold"
             x="0 17.86226 24.55726 39.82186 46.51686"
             y="270.951"
             sodipodi:role="line"
             id="tspan156">T = 2</tspan></text>
</g><path
         d="M 2984.68,1852.4 3614.8,4057.81"
         style="fill:none;stroke:#000000;stroke-opacity:1;stroke-width:15.7529;stroke-linecap:butt;stroke-linejoin:miter;stroke-miterlimit:10;stroke-dasharray:none"
         id="path158" /><path
         d="m 3560.41,3975.05 64.15,116.93 -7.31,-133.17"
         style="fill:#9f9f9f;fill-opacity:1;fill-rule:evenodd;stroke:none"
         id="path160" /><path
         d="m 3572.06,3979.91 42.74,77.9 -4.87,-88.72"
         style="fill:none;stroke:#000000;stroke-opacity:1;stroke-width:15.7529;stroke-linecap:butt;stroke-linejoin:miter;stroke-miterlimit:10;stroke-dasharray:none"
         id="path162" /><path
         d="m 3614.8,1852.4 0,2205.41"
         style="fill:none;stroke:#000000;stroke-opacity:1;stroke-width:15.7529;stroke-linecap:butt;stroke-linejoin:miter;stroke-miterlimit:10;stroke-dasharray:none"
         id="path164" /><path
         d="m 3585.24,3963.29 29.56,130.06 29.56,-130.06"
         style="fill:#9f9f9f;fill-opacity:1;fill-rule:evenodd;stroke:none"
         id="path166" /><path
         d="m 3595.11,3971.17 19.69,86.64 19.69,-86.64"
         style="fill:none;stroke:#000000;stroke-opacity:1;stroke-width:15.7529;stroke-linecap:butt;stroke-linejoin:miter;stroke-miterlimit:10;stroke-dasharray:none"
         id="path168" /><path
         d="M 4244.92,1852.4 3614.8,4057.81"
         style="fill:none;stroke:#000000;stroke-opacity:1;stroke-width:15.7529;stroke-linecap:butt;stroke-linejoin:miter;stroke-miterlimit:10;stroke-dasharray:none"
         id="path170" /><path
         d="m 3612.34,3958.81 -7.3,133.17 64.15,-116.93"
         style="fill:#9f9f9f;fill-opacity:1;fill-rule:evenodd;stroke:none"
         id="path172" /><path
         d="m 3619.67,3969.09 -4.87,88.72 42.74,-77.9"
         style="fill:none;stroke:#000000;stroke-opacity:1;stroke-width:15.7529;stroke-linecap:butt;stroke-linejoin:miter;stroke-miterlimit:10;stroke-dasharray:none"
         id="path174" /><path
         d="M 1409.39,3238.66 3425.77,1726.38"
         style="fill:none;stroke:#000000;stroke-opacity:1;stroke-width:15.7529;stroke-linecap:butt;stroke-linejoin:miter;stroke-miterlimit:10;stroke-dasharray:none"
         id="path176" /><path
         d="m 3367.89,1806.73 86.31,-101.68 -121.79,54.39"
         style="fill:#9f9f9f;fill-opacity:1;fill-rule:evenodd;stroke:none"
         id="path178" /><path
         d="m 3368.27,1794.11 57.5,-67.73 -81.13,36.23"
         style="fill:none;stroke:#000000;stroke-opacity:1;stroke-width:15.7529;stroke-linecap:butt;stroke-linejoin:miter;stroke-miterlimit:10;stroke-dasharray:none"
         id="path180" /><path
         d="M 1409.39,3238.66 4055.88,1726.38"
         style="fill:none;stroke:#000000;stroke-opacity:1;stroke-width:15.7529;stroke-linecap:butt;stroke-linejoin:miter;stroke-miterlimit:10;stroke-dasharray:none"
         id="path182" /><path
         d="m 3988.48,1798.93 98.26,-90.19 -127.59,38.87"
         style="fill:#9f9f9f;fill-opacity:1;fill-rule:evenodd;stroke:none"
         id="path184" /><path
         d="m 3990.43,1786.46 65.45,-60.08 -84.99,25.89"
         style="fill:none;stroke:#000000;stroke-opacity:1;stroke-width:15.7529;stroke-linecap:butt;stroke-linejoin:miter;stroke-miterlimit:10;stroke-dasharray:none"
         id="path186" /><path
         d="M 1409.39,3238.66 2795.65,1726.38"
         style="fill:none;stroke:#000000;stroke-opacity:1;stroke-width:15.7529;stroke-linecap:butt;stroke-linejoin:miter;stroke-miterlimit:10;stroke-dasharray:none"
         id="path188" /><path
         d="m 2753.57,1816.02 66.09,-115.84 -109.67,75.9"
         style="fill:#9f9f9f;fill-opacity:1;fill-rule:evenodd;stroke:none"
         id="path190" /><path
         d="m 2751.62,1803.55 44.03,-77.17 -73.06,50.56"
         style="fill:none;stroke:#000000;stroke-opacity:1;stroke-width:15.7529;stroke-linecap:butt;stroke-linejoin:miter;stroke-miterlimit:10;stroke-dasharray:none"
         id="path192" /><g
         id="g194"
         transform="scale(10,10)"><text
           transform="matrix(1,0,0,-1,364.63,149.153)"
           id="text196"><tspan
             style="fill:#000000;fill-opacity:1;fill-rule:nonzero;stroke:none;font-family:Times;font-variant:normal;font-weight:bold;font-size:18.9035;writing-mode:lr;-inkscape-font-specification:Times-Bold"
             x="0"
             y="0"
             id="tspan198">k</tspan></text>
<text
           transform="matrix(1,0,0,-1,348.8773,156.56472)"
           id="text200"><tspan
             style="fill:#000000;fill-opacity:1;fill-rule:nonzero;stroke:none;font-family:Times;font-variant:normal;font-weight:bold;font-size:26.78;writing-mode:lr;-inkscape-font-specification:Times-Bold"
             x="0"
             y="0"
             id="tspan202">o</tspan><tspan
             style="fill:#000000;fill-opacity:1;fill-rule:nonzero;stroke:none;font-family:Times;font-variant:normal;font-weight:bold;font-size:26.78;writing-mode:lr;-inkscape-font-specification:Times-Bold"
             x="0"
             y="-270.951"
             id="tspan204">h</tspan></text>
<text
           transform="matrix(1,0,0,-1,361.4796,420.104)"
           id="text206"><tspan
             style="fill:#000000;fill-opacity:1;fill-rule:nonzero;stroke:none;font-family:Times;font-variant:normal;font-weight:bold;font-size:18.9035;writing-mode:lr;-inkscape-font-specification:Times-Bold"
             x="0"
             y="0"
             id="tspan208">j</tspan></text>
<text
           transform="matrix(1,0,0,-1,109.4326,11.638)"
           id="text210"><tspan
             style="fill:#000000;fill-opacity:1;fill-rule:nonzero;stroke:none;font-family:Times;font-variant:normal;font-weight:bold;font-size:26.78;writing-mode:lr;-inkscape-font-specification:Times-Bold"
             x="0 17.86226 31.25226 43.14258 56.53258 68.4229 77.34064 84.03564 100.39822 113.78822 122.70596 131.6237 143.51402 155.40434"
             y="0"
             sodipodi:role="line"
             id="tspan212">Target Pattern</tspan><tspan
             style="fill:#000000;fill-opacity:1;fill-rule:nonzero;stroke:none;font-family:Times;font-variant:normal;font-weight:bold;font-size:26.78;writing-mode:lr;-inkscape-font-specification:Times-Bold"
             x="245.746 265.08116 276.97148 288.8618 302.2518 317.14148 327.5589 336.47664 348.36696 363.25664 375.14696 384.0647 395.95502"
             y="-94.5176"
             sodipodi:role="line"
             id="tspan214">Reconstructed</tspan><tspan
             style="fill:#000000;fill-opacity:1;fill-rule:nonzero;stroke:none;font-family:Times;font-variant:normal;font-weight:bold;font-size:26.78;writing-mode:lr;-inkscape-font-specification:Times-Bold"
             x="245.746 262.10858 275.49858 284.41632 293.33406 305.22438 317.1147"
             y="-67.7375"
             sodipodi:role="line"
             id="tspan216">Pattern</tspan><tspan
             style="fill:#000000;fill-opacity:1;fill-rule:nonzero;stroke:none;font-family:Times;font-variant:normal;font-weight:bold;font-size:26.78;writing-mode:lr;-inkscape-font-specification:Times-Bold"
             x="-107.12 -87.78484 -75.89452 -64.0042 -56.55936 -44.66904 -32.77872 -17.88904 -10.4442 2.9458 11.86354 19.30838 32.69838 47.58806 54.28306 63.2008 84.03564 91.48048 106.37016 115.2879 128.6779 143.56758 150.26258 172.57032 179.26532 204.54564 216.43596 235.77112 243.21596 255.10628 262.55112 269.99596 283.38596 298.27564 313.16532 319.86032 326.55532 339.94532 353.33532 366.72532 380.11532"
             y="-505.9075"
             sodipodi:role="line"
             id="tspan218">Recirculation (Hinton &amp; McClelland, 1988)</tspan></text>
</g></g></g></svg>