<?xml version="1.0" encoding="ISO-8859-1" standalone="yes"?>
<svg width="261.219" height="249.52">
  <defs> 
    <marker id="ArrowEnd" viewBox="0 0 10 10" refX="0" refY="5" 
     markerUnits="strokeWidth" 
     markerWidth="4" 
     markerHeight="3" 
     orient="auto"> 
        <path d="M 0 0 L 10 5 L 0 10 z" /> 
    </marker>
    <marker id="ArrowStart" viewBox="0 0 10 10" refX="10" refY="5" 
     markerUnits="strokeWidth" 
     markerWidth="4" 
     markerHeight="3" 
     orient="auto"> 
        <path d="M 10 0 L 0 5 L 10 10 z" /> 
    </marker> </defs>
<g>
<path style="stroke:none; fill-rule:evenodd; fill:#000000" d="M 45.5234 220.449L 45.5234 226.215L 46.5234 226.215L 46.5234 218.117L 45.8554 218.117C 45.5 219.359 45.2695 219.531 43.6992 219.727L 43.6992 220.445L 45.5234 220.449z"/>
<path style="stroke:none; fill-rule:evenodd; fill:#000000" d="M 27.7226 193.219L 33.5195 193.219L 33.5195 192.422L 27.7226 192.422L 27.7226 193.219z"/>
<path style="stroke:none; fill-rule:evenodd; fill:#000000" d="M 28.3203 197.449L 28.3203 203.215L 29.3203 203.215L 29.3203 195.117L 28.6523 195.117C 28.2968 196.359 28.0664 196.531 26.4961 196.727L 26.4961 197.445L 28.3203 197.449z"/>
<path style="stroke:none; fill-rule:evenodd; fill:#000000" d="M 69.7504 192.418L 67.4214 192.418L 67.4214 190.078L 66.6254 190.078L 66.6254 192.418L 64.1992 192.418L 64.1992 193.215L 66.6254 193.215L 66.6254 195.629L 67.4214 195.629L 67.4214 193.215L 69.7504 193.215L 69.7504 192.418z"/>
<path style="stroke:none; fill-rule:evenodd; fill:#000000" d="M 64.7226 197.449L 64.7226 203.215L 65.7226 203.215L 65.7226 195.117L 65.0546 195.117C 64.6992 196.359 64.4687 196.531 62.8984 196.727L 62.8984 197.445L 64.7226 197.449z"/>
<path style="stroke:#000000; stroke-width:1.9133; fill:none" d="M 10.0429 212.258L 46.4062 212.258L 46.4062 183.551L 10.0429 183.551L 10.0429 212.258z"/>
<path style="stroke:#000000; stroke-width:1.9133; fill:none" d="M 46.4062 212.262L 82.7694 212.262L 82.7694 183.555L 46.4062 183.555L 46.4062 212.262z"/>
<path style="stroke:#000000; stroke-width:1.9133; fill:none" d="M 94.2534 212.262L 130.617 212.262L 130.617 183.555L 94.2534 183.555L 94.2534 212.262z"/>
<path style="stroke:#000000; stroke-width:1.9133; fill:none" d="M 130.617 212.266L 166.98 212.266L 166.98 183.559L 130.617 183.559L 130.617 212.266z"/>
<path style="stroke:#000000; stroke-width:1.9133; fill:none" d="M 178.464 212.266L 214.828 212.266L 214.828 183.559L 178.464 183.559L 178.464 212.266z"/>
<path style="stroke:#000000; stroke-width:1.9133; fill:none" d="M 214.828 212.266L 251.191 212.266L 251.191 183.559L 214.828 183.559L 214.828 212.266z"/>
<path style="stroke:none; fill-rule:evenodd; fill:#000000" d="M 112.023 193.219L 117.82 193.219L 117.82 192.422L 112.023 192.422L 112.023 193.219z"/>
<path style="stroke:none; fill-rule:evenodd; fill:#000000" d="M 115.265 202.219L 111.039 202.219C 111.14 201.559 111.503 201.137 112.488 200.555L 113.621 199.941C 114.742 199.328 115.32 198.492 115.32 197.5C 115.32 196.828 115.05 196.199 114.574 195.766C 114.101 195.332 113.511 195.129 112.75 195.129C 111.73 195.129 110.972 195.488 110.531 196.168C 110.25 196.598 110.125 197.094 110.101 197.91L 111.101 197.91C 111.132 197.379 111.203 197.055 111.339 196.797C 111.601 196.32 112.125 196.027 112.726 196.027C 113.636 196.027 114.32 196.676 114.32 197.543C 114.32 198.18 113.945 198.727 113.226 199.137L 112.179 199.727C 110.496 200.68 110.003 201.445 109.914 203.223L 115.265 203.223L 115.265 202.219z"/>
<path style="stroke:none; fill-rule:evenodd; fill:#000000" d="M 153.953 192.418L 151.625 192.418L 151.625 190.078L 150.828 190.078L 150.828 192.418L 148.402 192.418L 148.402 193.215L 150.828 193.215L 150.828 195.629L 151.625 195.629L 151.625 193.215L 153.953 193.215L 153.953 192.418z"/>
<path style="stroke:none; fill-rule:evenodd; fill:#000000" d="M 151.664 202.219L 147.437 202.219C 147.539 201.559 147.902 201.137 148.886 200.555L 150.019 199.941C 151.14 199.328 151.718 198.492 151.718 197.5C 151.718 196.828 151.449 196.199 150.972 195.766C 150.5 195.332 149.91 195.129 149.148 195.129C 148.128 195.129 147.371 195.488 146.929 196.168C 146.648 196.598 146.523 197.094 146.5 197.91L 147.5 197.91C 147.531 197.379 147.601 197.055 147.738 196.797C 148 196.32 148.523 196.027 149.125 196.027C 150.035 196.027 150.718 196.676 150.718 197.543C 150.718 198.18 150.343 198.727 149.625 199.137L 148.578 199.727C 146.894 200.68 146.402 201.445 146.312 203.223L 151.664 203.223L 151.664 202.219z"/>
<path style="stroke:none; fill-rule:evenodd; fill:#000000" d="M 196.222 193.219L 202.019 193.219L 202.019 192.422L 196.222 192.422L 196.222 193.219z"/>
<path style="stroke:none; fill-rule:evenodd; fill:#000000" d="M 196.359 199.52L 196.914 199.52C 198.039 199.52 198.617 200.023 198.617 200.992C 198.617 202.008 197.984 202.613 196.921 202.613C 195.816 202.613 195.273 202.055 195.203 200.852L 194.187 200.852C 194.23 201.512 194.347 201.945 194.539 202.316C 194.949 203.105 195.753 203.512 196.863 203.512C 198.535 203.512 199.613 202.516 199.613 200.977C 199.613 199.945 199.214 199.371 198.246 199.039C 199.023 198.742 199.414 198.168 199.414 197.355C 199.414 195.957 198.48 195.121 196.921 195.121C 195.273 195.121 194.394 196 194.359 197.707L 195.382 197.707C 195.394 197.23 195.437 196.965 195.566 196.719C 195.796 196.285 196.308 196.02 196.953 196.02C 197.859 196.02 198.41 196.535 198.41 197.375C 198.41 197.934 198.199 198.27 197.734 198.449C 197.453 198.559 197.085 198.605 196.347 198.617L 196.359 199.52z"/>
<path style="stroke:none; fill-rule:evenodd; fill:#000000" d="M 238.152 192.418L 235.824 192.418L 235.824 190.078L 235.027 190.078L 235.027 192.418L 232.601 192.418L 232.601 193.215L 235.027 193.215L 235.027 195.629L 235.824 195.629L 235.824 193.215L 238.152 193.215L 238.152 192.418z"/>
<path style="stroke:none; fill-rule:evenodd; fill:#000000" d="M 232.66 199.52L 233.214 199.52C 234.339 199.52 234.918 200.023 234.918 200.992C 234.918 202.008 234.285 202.613 233.222 202.613C 232.117 202.613 231.574 202.055 231.503 200.852L 230.488 200.852C 230.531 201.512 230.648 201.945 230.839 202.316C 231.25 203.105 232.054 203.512 233.164 203.512C 234.835 203.512 235.914 202.516 235.914 200.977C 235.914 199.945 235.515 199.371 234.546 199.039C 235.324 198.742 235.714 198.168 235.714 197.355C 235.714 195.957 234.781 195.121 233.222 195.121C 231.574 195.121 230.695 196 230.66 197.707L 231.683 197.707C 231.695 197.23 231.738 196.965 231.867 196.719C 232.097 196.285 232.609 196.02 233.253 196.02C 234.16 196.02 234.711 196.535 234.711 197.375C 234.711 197.934 234.5 198.27 234.035 198.449C 233.753 198.559 233.386 198.605 232.648 198.617L 232.66 199.52z"/>
<path style="stroke:none; fill-rule:evenodd; fill:#000000" d="M 213.457 222.52L 214.011 222.52C 215.136 222.52 215.714 223.023 215.714 223.992C 215.714 225.008 215.082 225.613 214.019 225.613C 212.914 225.613 212.371 225.055 212.3 223.852L 211.285 223.852C 211.328 224.512 211.445 224.945 211.636 225.316C 212.046 226.105 212.851 226.512 213.961 226.512C 215.632 226.512 216.711 225.516 216.711 223.977C 216.711 222.945 216.312 222.371 215.343 222.039C 216.121 221.742 216.511 221.168 216.511 220.355C 216.511 218.957 215.578 218.121 214.019 218.121C 212.371 218.121 211.492 219 211.457 220.707L 212.48 220.707C 212.492 220.23 212.535 219.965 212.664 219.719C 212.894 219.285 213.406 219.02 214.05 219.02C 214.957 219.02 215.507 219.535 215.507 220.375C 215.507 220.934 215.296 221.27 214.832 221.449C 214.55 221.559 214.183 221.605 213.445 221.617L 213.457 222.52z"/>
<path style="stroke:none; fill-rule:evenodd; fill:#000000" d="M 132.464 225.219L 128.238 225.219C 128.339 224.559 128.703 224.137 129.687 223.555L 130.82 222.941C 131.941 222.328 132.519 221.492 132.519 220.5C 132.519 219.828 132.25 219.199 131.773 218.766C 131.3 218.332 130.711 218.129 129.949 218.129C 128.929 218.129 128.171 218.488 127.73 219.168C 127.449 219.598 127.324 220.094 127.3 220.91L 128.3 220.91C 128.332 220.379 128.402 220.055 128.539 219.797C 128.8 219.32 129.324 219.027 129.925 219.027C 130.835 219.027 131.519 219.676 131.519 220.543C 131.519 221.18 131.144 221.727 130.425 222.137L 129.378 222.727C 127.695 223.68 127.203 224.445 127.113 226.223L 132.464 226.223L 132.464 225.219z"/>
<path style="stroke:#000000; stroke-width:1.9133; fill:none" d="M 10.039 156.758L 46.4023 156.758L 46.4023 128.051L 10.039 128.051L 10.039 156.758z"/>
<path style="stroke:#000000; stroke-width:1.9133; fill:none" d="M 46.4023 156.758L 82.7654 156.758L 82.7654 128.051L 46.4023 128.051L 46.4023 156.758z"/>
<path style="stroke:#000000; stroke-width:1.9133; fill:none" d="M 94.2504 156.758L 130.613 156.758L 130.613 128.051L 94.2504 128.051L 94.2504 156.758z"/>
<path style="stroke:#000000; stroke-width:1.9133; fill:none" d="M 130.613 156.762L 166.976 156.762L 166.976 128.055L 130.613 128.055L 130.613 156.762z"/>
<path style="stroke:#000000; stroke-width:1.9133; fill:none" d="M 178.461 156.762L 214.824 156.762L 214.824 128.055L 178.461 128.055L 178.461 156.762z"/>
<path style="stroke:#000000; stroke-width:1.9133; fill:none" d="M 214.824 156.766L 251.187 156.766L 251.187 128.059L 214.824 128.059L 214.824 156.766z"/>
<path style="stroke:none; fill-rule:evenodd; fill:#000000" d="M 106.082 133.918L 104.328 138.238L 105.117 138.238L 106.503 134.828L 107.902 138.238L 108.691 138.238L 106.914 133.918L 106.082 133.918z"/>
<path style="stroke:none; fill-rule:evenodd; fill:#000000" d="M 190.281 133.918L 188.527 138.238L 189.316 138.238L 190.703 134.828L 192.101 138.238L 192.89 138.238L 191.113 133.918L 190.281 133.918z"/>
<path style="stroke:#000000; stroke-width:1.9133; fill:none" d="M 25.3554 237.141L 233.972 237.141"/>
<path style="stroke:#000000; stroke-width:1.9133; fill:none" d="M 226.324 235.227L 233.976 237.137L 226.324 239.047"/>
<path style="stroke:none; fill-rule:evenodd; fill:#000000" d="M 121.222 241.719L 123.925 241.719L 123.925 240.82L 117.363 240.82L 117.363 241.719L 120.121 241.719L 120.121 249.219L 121.218 249.219L 121.222 241.719z"/>
<path style="stroke:none; fill-rule:evenodd; fill:#000000" d="M 125.921 243.219L 124.921 243.219L 124.921 249.219L 125.921 249.219L 125.921 243.219zM 125.921 240.82L 124.921 240.82L 124.921 242.055L 125.921 242.055L 125.921 240.82z"/>
<path style="stroke:none; fill-rule:evenodd; fill:#000000" d="M 127.523 243.191L 127.523 249.215L 128.523 249.215L 128.523 245.406C 128.523 244.527 129.148 243.82 129.918 243.82C 130.621 243.82 131.019 244.258 131.019 245.035L 131.019 249.215L 132.019 249.215L 132.019 245.406C 132.019 244.527 132.644 243.82 133.414 243.82C 134.105 243.82 134.515 244.27 134.515 245.035L 134.515 249.215L 135.515 249.215L 135.515 244.695C 135.515 243.617 134.894 243.02 133.761 243.02C 132.957 243.02 132.468 243.262 131.906 243.949C 131.55 243.301 131.066 243.02 130.281 243.02C 129.476 243.02 128.945 243.316 128.425 244.039L 128.425 243.191L 127.523 243.191z"/>
<path style="stroke:none; fill-rule:evenodd; fill:#000000" d="M 142.222 246.52C 142.222 245.602 142.156 245.051 141.984 244.605C 141.597 243.621 140.683 243.023 139.566 243.023C 137.902 243.023 136.828 244.316 136.828 246.305C 136.828 248.293 137.863 249.52 139.539 249.52C 140.902 249.52 141.847 248.727 142.089 247.395L 141.136 247.395C 140.875 248.199 140.343 248.617 139.582 248.617C 138.98 248.617 138.468 248.34 138.152 247.824C 137.925 247.477 137.847 247.125 137.835 246.52L 142.222 246.52zM 137.8 245.754C 137.878 244.641 138.558 243.918 139.519 243.918C 140.457 243.918 141.183 244.695 141.183 245.684C 141.183 245.703 141.183 245.727 141.171 245.75L 137.8 245.754z"/>
<path style="stroke:none; fill-rule:evenodd; fill:#000000" d="M 27.7226 86.121L 33.5195 86.121L 33.5195 85.324L 27.7226 85.324L 27.7226 86.121z"/>
<path style="stroke:none; fill-rule:evenodd; fill:#000000" d="M 28.3203 90.25L 28.3203 96.016L 29.3203 96.016L 29.3203 87.918L 28.6523 87.918C 28.2968 89.16 28.0664 89.332 26.4961 89.527L 26.4961 90.246L 28.3203 90.25z"/>
<path style="stroke:none; fill-rule:evenodd; fill:#000000" d="M 69.7504 85.32L 67.4214 85.32L 67.4214 82.98L 66.6254 82.98L 66.6254 85.32L 64.1992 85.32L 64.1992 86.117L 66.6254 86.117L 66.6254 88.531L 67.4214 88.531L 67.4214 86.117L 69.7504 86.117L 69.7504 85.32z"/>
<path style="stroke:none; fill-rule:evenodd; fill:#000000" d="M 64.7226 90.25L 64.7226 96.016L 65.7226 96.016L 65.7226 87.918L 65.0546 87.918C 64.6992 89.16 64.4687 89.332 62.8984 89.527L 62.8984 90.246L 64.7226 90.25z"/>
<path style="stroke:none; fill-rule:evenodd; fill:#000000" d="M 21.8828 21.02L 20.1289 25.34L 20.9179 25.34L 22.3046 21.93L 23.7031 25.34L 24.4922 25.34L 22.7148 21.02L 21.8828 21.02z"/>
<path style="stroke:#000000; stroke-width:1.9133; fill:none" d="M 10.0429 105.113L 46.4062 105.113L 46.4062 76.406L 10.0429 76.406L 10.0429 105.113z"/>
<path style="stroke:#000000; stroke-width:1.9133; fill:none" d="M 46.4062 105.117L 82.7694 105.117L 82.7694 76.41L 46.4062 76.41L 46.4062 105.117z"/>
<path style="stroke:#000000; stroke-width:1.9133; fill:none" d="M 65.5078 76.43L 65.5078 49.645"/>
<path style="stroke:#000000; stroke-width:1.9133; fill:none" d="M 63.5937 57.293L 65.5039 49.641L 67.4144 57.293"/>
<path style="stroke:#000000; stroke-width:1.9133; fill:none" d="M 94.2534 105.117L 130.617 105.117L 130.617 76.41L 94.2534 76.41L 94.2534 105.117z"/>
<path style="stroke:#000000; stroke-width:1.9133; fill:none" d="M 130.617 105.121L 166.98 105.121L 166.98 76.414L 130.617 76.414L 130.617 105.121z"/>
<path style="stroke:#000000; stroke-width:1.9133; fill:none" d="M 149.718 76.43L 149.718 49.645"/>
<path style="stroke:#000000; stroke-width:1.9133; fill:none" d="M 147.804 57.297L 149.714 49.645L 151.625 57.297"/>
<path style="stroke:#000000; stroke-width:1.9133; fill:none" d="M 178.464 105.121L 214.828 105.121L 214.828 76.414L 178.464 76.414L 178.464 105.121z"/>
<path style="stroke:#000000; stroke-width:1.9133; fill:none" d="M 214.828 105.121L 251.191 105.121L 251.191 76.414L 214.828 76.414L 214.828 105.121z"/>
<path style="stroke:#000000; stroke-width:1.9133; fill:none" d="M 233.929 76.434L 233.929 49.648"/>
<path style="stroke:#000000; stroke-width:1.9133; fill:none" d="M 232.015 57.301L 233.925 49.648L 235.835 57.301"/>
<path style="stroke:none; fill-rule:evenodd; fill:#000000" d="M 112.023 86.121L 117.82 86.121L 117.82 85.324L 112.023 85.324L 112.023 86.121z"/>
<path style="stroke:none; fill-rule:evenodd; fill:#000000" d="M 115.265 95.02L 111.039 95.02C 111.14 94.359 111.503 93.938 112.488 93.356L 113.621 92.742C 114.742 92.129 115.32 91.293 115.32 90.301C 115.32 89.629 115.05 89 114.574 88.566C 114.101 88.133 113.511 87.93 112.75 87.93C 111.73 87.93 110.972 88.289 110.531 88.969C 110.25 89.398 110.125 89.895 110.101 90.711L 111.101 90.711C 111.132 90.18 111.203 89.856 111.339 89.598C 111.601 89.121 112.125 88.828 112.726 88.828C 113.636 88.828 114.32 89.477 114.32 90.344C 114.32 90.98 113.945 91.527 113.226 91.938L 112.179 92.527C 110.496 93.48 110.003 94.246 109.914 96.023L 115.265 96.023L 115.265 95.02z"/>
<path style="stroke:none; fill-rule:evenodd; fill:#000000" d="M 153.953 85.32L 151.625 85.32L 151.625 82.98L 150.828 82.98L 150.828 85.32L 148.402 85.32L 148.402 86.117L 150.828 86.117L 150.828 88.531L 151.625 88.531L 151.625 86.117L 153.953 86.117L 153.953 85.32z"/>
<path style="stroke:none; fill-rule:evenodd; fill:#000000" d="M 151.664 95.02L 147.437 95.02C 147.539 94.359 147.902 93.938 148.886 93.356L 150.019 92.742C 151.14 92.129 151.718 91.293 151.718 90.301C 151.718 89.629 151.449 89 150.972 88.566C 150.5 88.133 149.91 87.93 149.148 87.93C 148.128 87.93 147.371 88.289 146.929 88.969C 146.648 89.398 146.523 89.895 146.5 90.711L 147.5 90.711C 147.531 90.18 147.601 89.856 147.738 89.598C 148 89.121 148.523 88.828 149.125 88.828C 150.035 88.828 150.718 89.477 150.718 90.344C 150.718 90.98 150.343 91.527 149.625 91.938L 148.578 92.527C 146.894 93.48 146.402 94.246 146.312 96.023L 151.664 96.023L 151.664 95.02z"/>
<path style="stroke:none; fill-rule:evenodd; fill:#000000" d="M 196.222 86.121L 202.019 86.121L 202.019 85.324L 196.222 85.324L 196.222 86.121z"/>
<path style="stroke:none; fill-rule:evenodd; fill:#000000" d="M 196.359 92.32L 196.914 92.32C 198.039 92.32 198.617 92.824 198.617 93.793C 198.617 94.809 197.984 95.414 196.921 95.414C 195.816 95.414 195.273 94.856 195.203 93.652L 194.187 93.652C 194.23 94.313 194.347 94.746 194.539 95.117C 194.949 95.906 195.753 96.313 196.863 96.313C 198.535 96.313 199.613 95.316 199.613 93.777C 199.613 92.746 199.214 92.172 198.246 91.84C 199.023 91.543 199.414 90.969 199.414 90.156C 199.414 88.758 198.48 87.922 196.921 87.922C 195.273 87.922 194.394 88.801 194.359 90.508L 195.382 90.508C 195.394 90.031 195.437 89.766 195.566 89.52C 195.796 89.086 196.308 88.82 196.953 88.82C 197.859 88.82 198.41 89.336 198.41 90.176C 198.41 90.734 198.199 91.07 197.734 91.25C 197.453 91.359 197.085 91.406 196.347 91.418L 196.359 92.32z"/>
<path style="stroke:none; fill-rule:evenodd; fill:#000000" d="M 238.152 85.32L 235.824 85.32L 235.824 82.98L 235.027 82.98L 235.027 85.32L 232.601 85.32L 232.601 86.117L 235.027 86.117L 235.027 88.531L 235.824 88.531L 235.824 86.117L 238.152 86.117L 238.152 85.32z"/>
<path style="stroke:none; fill-rule:evenodd; fill:#000000" d="M 232.66 92.32L 233.214 92.32C 234.339 92.32 234.918 92.824 234.918 93.793C 234.918 94.809 234.285 95.414 233.222 95.414C 232.117 95.414 231.574 94.856 231.503 93.652L 230.488 93.652C 230.531 94.313 230.648 94.746 230.839 95.117C 231.25 95.906 232.054 96.313 233.164 96.313C 234.835 96.313 235.914 95.316 235.914 93.777C 235.914 92.746 235.515 92.172 234.546 91.84C 235.324 91.543 235.714 90.969 235.714 90.156C 235.714 88.758 234.781 87.922 233.222 87.922C 231.574 87.922 230.695 88.801 230.66 90.508L 231.683 90.508C 231.695 90.031 231.738 89.766 231.867 89.52C 232.097 89.086 232.609 88.82 233.253 88.82C 234.16 88.82 234.711 89.336 234.711 90.176C 234.711 90.734 234.5 91.07 234.035 91.25C 233.753 91.359 233.386 91.406 232.648 91.418L 232.66 92.32z"/>
<path style="stroke:none; fill-rule:evenodd; fill:#000000" d="M 106.082 21.02L 104.328 25.34L 105.117 25.34L 106.503 21.93L 107.902 25.34L 108.691 25.34L 106.914 21.02L 106.082 21.02z"/>
<path style="stroke:none; fill-rule:evenodd; fill:#000000" d="M 190.281 21.02L 188.527 25.34L 189.316 25.34L 190.703 21.93L 192.101 25.34L 192.89 25.34L 191.113 21.02L 190.281 21.02z"/>
<path style="stroke:none; fill-rule:evenodd; fill:#000000" d="M 21.8828 133.918L 20.1289 138.238L 20.9179 138.238L 22.3046 134.828L 23.7031 138.238L 24.4922 138.238L 22.7148 133.918L 21.8828 133.918z"/>
<path style="stroke:none; fill-rule:evenodd; fill:#000000" d="M 18.4218 141.793L 18.4218 147.816L 19.4218 147.816L 19.4218 144.684C 19.4218 143.82 19.6328 143.258 20.082 142.922C 20.3711 142.703 20.6523 142.637 21.3046 142.625L 21.3046 141.66C 21.1484 141.641 21.0703 141.629 20.9453 141.629C 20.3359 141.629 19.8711 141.996 19.3242 142.891L 19.3242 141.801L 18.4218 141.793z"/>
<path style="stroke:none; fill-rule:evenodd; fill:#000000" d="M 24.2461 139.418C 23.1289 140.926 22.4218 143.02 22.4218 144.828C 22.4218 146.645 23.125 148.738 24.2461 150.246L 24.8593 150.246C 23.8711 148.602 23.3203 146.668 23.3203 144.828C 23.3203 143 23.8711 141.055 24.8593 139.418L 24.2461 139.418z"/>
<path style="stroke:none; fill-rule:evenodd; fill:#000000" d="M 28.3203 142.051L 28.3203 147.816L 29.3203 147.816L 29.3203 139.719L 28.6523 139.719C 28.2968 140.961 28.0664 141.133 26.4961 141.328L 26.4961 142.047L 28.3203 142.051z"/>
<path style="stroke:none; fill-rule:evenodd; fill:#000000" d="M 32.7773 150.254C 33.9062 148.746 34.6172 146.652 34.6172 144.848C 34.6172 143.031 33.9062 140.938 32.7773 139.426L 32.1601 139.426C 33.164 141.074 33.7226 143.004 33.7226 144.848C 33.7226 146.676 33.164 148.621 32.1601 150.254L 32.7773 150.254z"/>
<path style="stroke:none; fill-rule:evenodd; fill:#000000" d="M 54.8203 141.793L 54.8203 147.816L 55.8203 147.816L 55.8203 144.684C 55.8203 143.82 56.0312 143.258 56.4804 142.922C 56.7695 142.703 57.0507 142.637 57.7031 142.625L 57.7031 141.66C 57.5468 141.641 57.4687 141.629 57.3437 141.629C 56.7343 141.629 56.2695 141.996 55.7226 142.891L 55.7226 141.801L 54.8203 141.793z"/>
<path style="stroke:none; fill-rule:evenodd; fill:#000000" d="M 60.5468 139.418C 59.4296 140.926 58.7226 143.02 58.7226 144.828C 58.7226 146.645 59.4257 148.738 60.5468 150.246L 61.1601 150.246C 60.1718 148.602 59.6211 146.668 59.6211 144.828C 59.6211 143 60.1718 141.055 61.1601 139.418L 60.5468 139.418z"/>
<path style="stroke:none; fill-rule:evenodd; fill:#000000" d="M 64.7226 142.051L 64.7226 147.816L 65.7226 147.816L 65.7226 139.719L 65.0546 139.719C 64.6992 140.961 64.4687 141.133 62.8984 141.328L 62.8984 142.047L 64.7226 142.051z"/>
<path style="stroke:none; fill-rule:evenodd; fill:#000000" d="M 69.0784 150.254C 70.2074 148.746 70.9184 146.652 70.9184 144.848C 70.9184 143.031 70.2074 140.938 69.0784 139.426L 68.4614 139.426C 69.4644 141.074 70.0234 143.004 70.0234 144.848C 70.0234 146.676 69.4644 148.621 68.4614 150.254L 69.0784 150.254z"/>
<path style="stroke:none; fill-rule:evenodd; fill:#000000" d="M 102.722 141.793L 102.722 147.816L 103.722 147.816L 103.722 144.684C 103.722 143.82 103.933 143.258 104.382 142.922C 104.671 142.703 104.953 142.637 105.605 142.625L 105.605 141.66C 105.449 141.641 105.371 141.629 105.246 141.629C 104.636 141.629 104.171 141.996 103.625 142.891L 103.625 141.801L 102.722 141.793z"/>
<path style="stroke:none; fill-rule:evenodd; fill:#000000" d="M 108.445 139.418C 107.328 140.926 106.621 143.02 106.621 144.828C 106.621 146.645 107.324 148.738 108.445 150.246L 109.058 150.246C 108.07 148.602 107.519 146.668 107.519 144.828C 107.519 143 108.07 141.055 109.058 139.418L 108.445 139.418z"/>
<path style="stroke:none; fill-rule:evenodd; fill:#000000" d="M 115.265 146.82L 111.039 146.82C 111.14 146.16 111.503 145.738 112.488 145.156L 113.621 144.543C 114.742 143.93 115.32 143.094 115.32 142.102C 115.32 141.43 115.05 140.801 114.574 140.367C 114.101 139.934 113.511 139.73 112.75 139.73C 111.73 139.73 110.972 140.09 110.531 140.77C 110.25 141.199 110.125 141.695 110.101 142.512L 111.101 142.512C 111.132 141.98 111.203 141.656 111.339 141.398C 111.601 140.922 112.125 140.629 112.726 140.629C 113.636 140.629 114.32 141.277 114.32 142.145C 114.32 142.781 113.945 143.328 113.226 143.738L 112.179 144.328C 110.496 145.281 110.003 146.047 109.914 147.824L 115.265 147.824L 115.265 146.82z"/>
<path style="stroke:none; fill-rule:evenodd; fill:#000000" d="M 116.976 150.254C 118.105 148.746 118.816 146.652 118.816 144.848C 118.816 143.031 118.105 140.938 116.976 139.426L 116.359 139.426C 117.363 141.074 117.921 143.004 117.921 144.848C 117.921 146.676 117.363 148.621 116.359 150.254L 116.976 150.254z"/>
<path style="stroke:none; fill-rule:evenodd; fill:#000000" d="M 139.023 141.793L 139.023 147.816L 140.023 147.816L 140.023 144.684C 140.023 143.82 140.234 143.258 140.683 142.922C 140.972 142.703 141.253 142.637 141.906 142.625L 141.906 141.66C 141.75 141.641 141.671 141.629 141.546 141.629C 140.937 141.629 140.472 141.996 139.925 142.891L 139.925 141.801L 139.023 141.793z"/>
<path style="stroke:none; fill-rule:evenodd; fill:#000000" d="M 144.746 139.418C 143.628 140.926 142.921 143.02 142.921 144.828C 142.921 146.645 143.625 148.738 144.746 150.246L 145.359 150.246C 144.371 148.602 143.82 146.668 143.82 144.828C 143.82 143 144.371 141.055 145.359 139.418L 144.746 139.418z"/>
<path style="stroke:none; fill-rule:evenodd; fill:#000000" d="M 151.664 146.82L 147.437 146.82C 147.539 146.16 147.902 145.738 148.886 145.156L 150.019 144.543C 151.14 143.93 151.718 143.094 151.718 142.102C 151.718 141.43 151.449 140.801 150.972 140.367C 150.5 139.934 149.91 139.73 149.148 139.73C 148.128 139.73 147.371 140.09 146.929 140.77C 146.648 141.199 146.523 141.695 146.5 142.512L 147.5 142.512C 147.531 141.98 147.601 141.656 147.738 141.398C 148 140.922 148.523 140.629 149.125 140.629C 150.035 140.629 150.718 141.277 150.718 142.145C 150.718 142.781 150.343 143.328 149.625 143.738L 148.578 144.328C 146.894 145.281 146.402 146.047 146.312 147.824L 151.664 147.824L 151.664 146.82z"/>
<path style="stroke:none; fill-rule:evenodd; fill:#000000" d="M 153.378 150.254C 154.507 148.746 155.218 146.652 155.218 144.848C 155.218 143.031 154.507 140.938 153.378 139.426L 152.761 139.426C 153.765 141.074 154.324 143.004 154.324 144.848C 154.324 146.676 153.765 148.621 152.761 150.254L 153.378 150.254z"/>
<path style="stroke:#000000; stroke-width:1.9133; fill:none" d="M 27.2422 183.57L 27.2422 156.785"/>
<path style="stroke:#000000; stroke-width:1.9133; fill:none" d="M 25.3281 164.438L 27.2382 156.785L 29.1484 164.438"/>
<path style="stroke:none; fill-rule:evenodd; fill:#5f5f5f" d="M 27.2773 179.727L 31.1015 179.727L 31.1015 168.246L 27.2773 168.246L 27.2773 179.727z"/>
<path style="stroke:#000000; stroke-width:0.95664899999999997; fill:none" d="M 27.2773 179.727L 31.1015 179.727L 31.1015 168.246L 27.2773 168.246L 27.2773 179.727z"/>
<path style="stroke:#000000; stroke-dasharray:6,3; stroke-width:2.8699499999999998; fill:none" d="M 46.3789 156.797L 32.9882 174.016"/>
<path style="stroke:none; fill-rule:evenodd; fill:#ffffff" d="M 34.8984 174.008L 44.4648 174.008L 44.4648 160.617L 34.8984 160.617L 34.8984 174.008z"/>
<path style="stroke:#ffffff; stroke-width:0.0; fill:none" d="M 34.8984 174.008L 44.4648 174.008L 44.4648 160.617L 34.8984 160.617L 34.8984 174.008z"/>
<path style="stroke:none; fill-rule:evenodd; fill:#000000" d="M 40.25 164.191C 39.5703 164.406 39.1796 164.578 38.7851 164.848C 37.9218 165.449 37.4257 166.391 37.4257 167.395C 37.4257 168.988 38.6757 170.316 40.1875 170.316C 41.8281 170.316 43.2226 168.809 43.2226 167.047C 43.2226 166.195 42.9336 165.363 42.3906 164.711C 41.9296 164.152 41.7187 163.992 40.5312 163.27C 39.3046 162.512 38.8281 162.043 38.8281 161.613C 38.8281 161.176 39.2539 160.828 39.7734 160.828C 40.25 160.828 40.5429 160.969 41.039 161.457C 41.582 161.996 41.7695 162.113 42.1015 162.113C 42.4609 162.113 42.7265 161.863 42.7265 161.543C 42.7265 160.824 41.5586 160.227 40.1484 160.227C 38.8867 160.227 38.1211 160.734 38.1211 161.551C 38.1211 162.031 38.3359 162.422 38.9257 162.973L 40.25 164.191zM 40.6172 164.523C 41.5 165.375 41.9218 166.324 41.9218 167.488C 41.9218 168.813 41.3046 169.719 40.3789 169.719C 39.457 169.719 38.8242 168.664 38.8242 167.109C 38.8242 165.648 39.4179 164.781 40.6172 164.523z"/>
<path style="stroke:none; fill-rule:evenodd; fill:#000000" d="M 43.3203 168.492L 43.3203 174.516L 44.3203 174.516L 44.3203 171.383C 44.3203 170.52 44.5312 169.957 44.9804 169.621C 45.2695 169.402 45.5507 169.336 46.2031 169.324L 46.2031 168.359C 46.0468 168.34 45.9687 168.328 45.8437 168.328C 45.2343 168.328 44.7695 168.695 44.2226 169.59L 44.2226 168.5L 43.3203 168.492z"/>
<path style="stroke:#000000; stroke-width:1.9133; fill:none" d="M 111.425 183.57L 111.425 156.785"/>
<path style="stroke:#000000; stroke-width:1.9133; fill:none" d="M 109.511 164.438L 111.421 156.785L 113.332 164.438"/>
<path style="stroke:none; fill-rule:evenodd; fill:#5f5f5f" d="M 111.464 179.727L 115.289 179.727L 115.289 168.246L 111.464 168.246L 111.464 179.727z"/>
<path style="stroke:#000000; stroke-width:0.95664899999999997; fill:none" d="M 111.464 179.727L 115.289 179.727L 115.289 168.246L 111.464 168.246L 111.464 179.727z"/>
<path style="stroke:#000000; stroke-dasharray:6,3; stroke-width:2.8699499999999998; fill:none" d="M 130.566 156.797L 117.175 174.016"/>
<path style="stroke:none; fill-rule:evenodd; fill:#ffffff" d="M 119.082 174.008L 128.648 174.008L 128.648 160.617L 119.082 160.617L 119.082 174.008z"/>
<path style="stroke:#ffffff; stroke-width:0.0; fill:none" d="M 119.082 174.008L 128.648 174.008L 128.648 160.617L 119.082 160.617L 119.082 174.008z"/>
<path style="stroke:none; fill-rule:evenodd; fill:#000000" d="M 124.449 164.191C 123.769 164.406 123.378 164.578 122.984 164.848C 122.121 165.449 121.625 166.391 121.625 167.395C 121.625 168.988 122.875 170.316 124.386 170.316C 126.027 170.316 127.421 168.809 127.421 167.047C 127.421 166.195 127.132 165.363 126.589 164.711C 126.128 164.152 125.918 163.992 124.73 163.27C 123.503 162.512 123.027 162.043 123.027 161.613C 123.027 161.176 123.453 160.828 123.972 160.828C 124.449 160.828 124.742 160.969 125.238 161.457C 125.781 161.996 125.968 162.113 126.3 162.113C 126.66 162.113 126.925 161.863 126.925 161.543C 126.925 160.824 125.757 160.227 124.347 160.227C 123.085 160.227 122.32 160.734 122.32 161.551C 122.32 162.031 122.535 162.422 123.125 162.973L 124.449 164.191zM 124.816 164.523C 125.699 165.375 126.121 166.324 126.121 167.488C 126.121 168.813 125.503 169.719 124.578 169.719C 123.656 169.719 123.023 168.664 123.023 167.109C 123.023 165.648 123.617 164.781 124.816 164.523z"/>
<path style="stroke:none; fill-rule:evenodd; fill:#000000" d="M 127.523 168.492L 127.523 174.516L 128.523 174.516L 128.523 171.383C 128.523 170.52 128.734 169.957 129.183 169.621C 129.472 169.402 129.753 169.336 130.406 169.324L 130.406 168.359C 130.25 168.34 130.171 168.328 130.046 168.328C 129.437 168.328 128.972 168.695 128.425 169.59L 128.425 168.5L 127.523 168.492z"/>
<path style="stroke:#000000; stroke-width:1.9133; fill:none" d="M 195.613 183.57L 195.613 156.785"/>
<path style="stroke:#000000; stroke-width:1.9133; fill:none" d="M 193.699 164.438L 195.609 156.785L 197.519 164.438"/>
<path style="stroke:none; fill-rule:evenodd; fill:#5f5f5f" d="M 195.648 179.727L 199.472 179.727L 199.472 168.246L 195.648 168.246L 195.648 179.727z"/>
<path style="stroke:#000000; stroke-width:0.95664899999999997; fill:none" d="M 195.648 179.727L 199.472 179.727L 199.472 168.246L 195.648 168.246L 195.648 179.727z"/>
<path style="stroke:#000000; stroke-dasharray:6,3; stroke-width:2.8699499999999998; fill:none" d="M 214.75 156.797L 201.359 174.016"/>
<path style="stroke:none; fill-rule:evenodd; fill:#ffffff" d="M 203.265 174.008L 212.832 174.008L 212.832 160.617L 203.265 160.617L 203.265 174.008z"/>
<path style="stroke:#ffffff; stroke-width:0.0; fill:none" d="M 203.265 174.008L 212.832 174.008L 212.832 160.617L 203.265 160.617L 203.265 174.008z"/>
<path style="stroke:none; fill-rule:evenodd; fill:#000000" d="M 208.652 164.191C 207.972 164.406 207.582 164.578 207.187 164.848C 206.324 165.449 205.828 166.391 205.828 167.395C 205.828 168.988 207.078 170.316 208.589 170.316C 210.23 170.316 211.625 168.809 211.625 167.047C 211.625 166.195 211.335 165.363 210.793 164.711C 210.332 164.152 210.121 163.992 208.933 163.27C 207.707 162.512 207.23 162.043 207.23 161.613C 207.23 161.176 207.656 160.828 208.175 160.828C 208.652 160.828 208.945 160.969 209.441 161.457C 209.984 161.996 210.171 162.113 210.503 162.113C 210.863 162.113 211.128 161.863 211.128 161.543C 211.128 160.824 209.961 160.227 208.55 160.227C 207.289 160.227 206.523 160.734 206.523 161.551C 206.523 162.031 206.738 162.422 207.328 162.973L 208.652 164.191zM 209.015 164.523C 209.898 165.375 210.32 166.324 210.32 167.488C 210.32 168.813 209.703 169.719 208.777 169.719C 207.855 169.719 207.222 168.664 207.222 167.109C 207.222 165.648 207.816 164.781 209.015 164.523z"/>
<path style="stroke:none; fill-rule:evenodd; fill:#000000" d="M 211.722 168.492L 211.722 174.516L 212.722 174.516L 212.722 171.383C 212.722 170.52 212.933 169.957 213.382 169.621C 213.671 169.402 213.953 169.336 214.605 169.324L 214.605 168.359C 214.449 168.34 214.371 168.328 214.246 168.328C 213.636 168.328 213.171 168.695 212.625 169.59L 212.625 168.5L 211.722 168.492z"/>
<path style="stroke:none; fill-rule:evenodd; fill:#000000" d="M 186.921 141.793L 186.921 147.816L 187.921 147.816L 187.921 144.684C 187.921 143.82 188.132 143.258 188.582 142.922C 188.871 142.703 189.152 142.637 189.804 142.625L 189.804 141.66C 189.648 141.641 189.57 141.629 189.445 141.629C 188.835 141.629 188.371 141.996 187.824 142.891L 187.824 141.801L 186.921 141.793z"/>
<path style="stroke:none; fill-rule:evenodd; fill:#000000" d="M 192.648 139.418C 191.531 140.926 190.824 143.02 190.824 144.828C 190.824 146.645 191.527 148.738 192.648 150.246L 193.261 150.246C 192.273 148.602 191.722 146.668 191.722 144.828C 191.722 143 192.273 141.055 193.261 139.418L 192.648 139.418z"/>
<path style="stroke:none; fill-rule:evenodd; fill:#000000" d="M 196.257 144.121L 196.812 144.121C 197.937 144.121 198.515 144.625 198.515 145.594C 198.515 146.609 197.882 147.215 196.82 147.215C 195.714 147.215 195.171 146.656 195.101 145.453L 194.085 145.453C 194.128 146.113 194.246 146.547 194.437 146.918C 194.847 147.707 195.652 148.113 196.761 148.113C 198.433 148.113 199.511 147.117 199.511 145.578C 199.511 144.547 199.113 143.973 198.144 143.641C 198.921 143.344 199.312 142.77 199.312 141.957C 199.312 140.559 198.378 139.723 196.82 139.723C 195.171 139.723 194.293 140.602 194.257 142.309L 195.281 142.309C 195.293 141.832 195.335 141.566 195.464 141.32C 195.695 140.887 196.207 140.621 196.851 140.621C 197.757 140.621 198.308 141.137 198.308 141.977C 198.308 142.535 198.097 142.871 197.632 143.051C 197.351 143.16 196.984 143.207 196.246 143.219L 196.257 144.121z"/>
<path style="stroke:none; fill-rule:evenodd; fill:#000000" d="M 201.179 150.254C 202.308 148.746 203.019 146.652 203.019 144.848C 203.019 143.031 202.308 140.938 201.179 139.426L 200.562 139.426C 201.566 141.074 202.125 143.004 202.125 144.848C 202.125 146.676 201.566 148.621 200.562 150.254L 201.179 150.254z"/>
<path style="stroke:none; fill-rule:evenodd; fill:#000000" d="M 225.121 141.793L 225.121 147.816L 226.121 147.816L 226.121 144.684C 226.121 143.82 226.332 143.258 226.781 142.922C 227.07 142.703 227.351 142.637 228.003 142.625L 228.003 141.66C 227.847 141.641 227.769 141.629 227.644 141.629C 227.035 141.629 226.57 141.996 226.023 142.891L 226.023 141.801L 225.121 141.793z"/>
<path style="stroke:none; fill-rule:evenodd; fill:#000000" d="M 230.847 139.418C 229.73 140.926 229.023 143.02 229.023 144.828C 229.023 146.645 229.726 148.738 230.847 150.246L 231.461 150.246C 230.472 148.602 229.921 146.668 229.921 144.828C 229.921 143 230.472 141.055 231.461 139.418L 230.847 139.418z"/>
<path style="stroke:none; fill-rule:evenodd; fill:#000000" d="M 234.457 144.121L 235.011 144.121C 236.136 144.121 236.714 144.625 236.714 145.594C 236.714 146.609 236.082 147.215 235.019 147.215C 233.914 147.215 233.371 146.656 233.3 145.453L 232.285 145.453C 232.328 146.113 232.445 146.547 232.636 146.918C 233.046 147.707 233.851 148.113 234.961 148.113C 236.632 148.113 237.711 147.117 237.711 145.578C 237.711 144.547 237.312 143.973 236.343 143.641C 237.121 143.344 237.511 142.77 237.511 141.957C 237.511 140.559 236.578 139.723 235.019 139.723C 233.371 139.723 232.492 140.602 232.457 142.309L 233.48 142.309C 233.492 141.832 233.535 141.566 233.664 141.32C 233.894 140.887 234.406 140.621 235.05 140.621C 235.957 140.621 236.507 141.137 236.507 141.977C 236.507 142.535 236.296 142.871 235.832 143.051C 235.55 143.16 235.183 143.207 234.445 143.219L 234.457 144.121z"/>
<path style="stroke:none; fill-rule:evenodd; fill:#000000" d="M 239.378 150.254C 240.507 148.746 241.218 146.652 241.218 144.848C 241.218 143.031 240.507 140.938 239.378 139.426L 238.761 139.426C 239.765 141.074 240.324 143.004 240.324 144.848C 240.324 146.676 239.765 148.621 238.761 150.254L 239.378 150.254z"/>
<path style="stroke:#000000; stroke-width:1.9133; fill:none" d="M 10.0273 49.652L 46.3789 49.652L 46.3789 11.387L 10.0273 11.387L 10.0273 49.652z"/>
<path style="stroke:#000000; stroke-width:1.9133; fill:none" d="M 46.3789 49.652L 82.7304 49.652L 82.7304 11.387L 46.3789 11.387L 46.3789 49.652z"/>
<path style="stroke:none; fill-rule:evenodd; fill:#000000" d="M 54.4531 37.52L 52.125 37.52L 52.125 35.18L 51.3281 35.18L 51.3281 37.52L 48.9023 37.52L 48.9023 38.316L 51.3281 38.316L 51.3281 40.73L 52.125 40.73L 52.125 38.316L 54.4531 38.316L 54.4531 37.52z"/>
<path style="stroke:#000000; stroke-width:1.9133; fill:none" d="M 94.2114 49.652L 130.562 49.652L 130.562 11.387L 94.2114 11.387L 94.2114 49.652z"/>
<path style="stroke:#000000; stroke-width:1.9133; fill:none" d="M 130.566 49.652L 166.918 49.652L 166.918 11.387L 130.566 11.387L 130.566 49.652z"/>
<path style="stroke:#000000; stroke-width:1.9133; fill:none" d="M 178.398 49.652L 214.75 49.652L 214.75 11.387L 178.398 11.387L 178.398 49.652z"/>
<path style="stroke:#000000; stroke-width:1.9133; fill:none" d="M 214.75 49.652L 251.101 49.652L 251.101 11.387L 214.75 11.387L 214.75 49.652z"/>
<path style="stroke:none; fill-rule:evenodd; fill:#000000" d="M 140.55 37.52L 138.222 37.52L 138.222 35.18L 137.425 35.18L 137.425 37.52L 135 37.52L 135 38.316L 137.425 38.316L 137.425 40.73L 138.222 40.73L 138.222 38.316L 140.55 38.316L 140.55 37.52z"/>
<path style="stroke:none; fill-rule:evenodd; fill:#000000" d="M 224.75 37.52L 222.421 37.52L 222.421 35.18L 221.625 35.18L 221.625 37.52L 219.199 37.52L 219.199 38.316L 221.625 38.316L 221.625 40.73L 222.421 40.73L 222.421 38.316L 224.75 38.316L 224.75 37.52z"/>
<path style="stroke:none; fill-rule:evenodd; fill:#000000" d="M 228.484 11.52L 226.73 15.84L 227.519 15.84L 228.906 12.43L 230.304 15.84L 231.093 15.84L 229.316 11.52L 228.484 11.52z"/>
<path style="stroke:none; fill-rule:evenodd; fill:#000000" d="M 222.949 17.668L 221.675 21.621L 221.332 19.852C 220.988 18.094 220.621 17.52 219.851 17.52C 219.507 17.52 219.199 17.68 219.015 17.945C 218.765 18.301 218.707 18.59 218.683 19.559L 218.683 19.707L 218.933 19.707C 218.953 19.387 218.976 19.207 219.023 19.039C 219.148 18.656 219.421 18.418 219.753 18.418C 220.062 18.418 220.281 18.613 220.496 19.086C 220.769 19.684 221.066 20.738 221.183 21.594L 221.32 22.551C 221.289 22.664 221.16 23.035 220.941 23.66C 220.714 24.293 220.644 24.629 220.644 25.023C 220.644 25.566 220.882 25.922 221.25 25.922C 221.718 25.922 222.027 25.336 222.027 24.418C 222.027 24.063 221.972 23.512 221.835 22.648L 224.164 17.664L 222.949 17.668z"/>
<path style="stroke:#000000; stroke-width:1.9133; fill:none" d="M 76.9924 24.777L 101.863 30.516"/>
<path style="stroke:#000000; stroke-width:1.9133; fill:none" d="M 94.8394 26.934L 101.863 30.516L 93.9764 30.656"/>
<path style="stroke:#000000; stroke-width:1.9133; fill:none" d="M 163.089 24.777L 187.961 30.516"/>
<path style="stroke:#000000; stroke-width:1.9133; fill:none" d="M 180.937 26.934L 187.961 30.516L 180.074 30.656"/>
<path style="stroke:none; fill-rule:evenodd; fill:#000000" d="M 25.4492 3.418L 31.4609 3.418L 31.4609 2.82001L 25.4492 2.82001L 25.4492 3.418z"/>
<path style="stroke:none; fill-rule:evenodd; fill:#000000" d="M 65.2226 0L 64.625 0L 64.625 2.71899L 61.8437 2.71899L 61.8437 3.31601L 64.625 3.31601L 64.625 6.11301L 65.2226 6.11301L 65.2226 3.31601L 67.9104 3.31601L 67.9104 2.71899L 65.2226 2.71899L 65.2226 0z"/>
<path style="stroke:none; fill-rule:evenodd; fill:#000000" d="M 109.648 3.418L 115.66 3.418L 115.66 2.82001L 109.648 2.82001L 109.648 3.418z"/>
<path style="stroke:none; fill-rule:evenodd; fill:#000000" d="M 149.421 0L 148.824 0L 148.824 2.71899L 146.043 2.71899L 146.043 3.31601L 148.824 3.31601L 148.824 6.11301L 149.421 6.11301L 149.421 3.31601L 152.109 3.31601L 152.109 2.71899L 149.421 2.71899L 149.421 0z"/>
<path style="stroke:none; fill-rule:evenodd; fill:#000000" d="M 193.847 3.418L 199.859 3.418L 199.859 2.82001L 193.847 2.82001L 193.847 3.418z"/>
<path style="stroke:none; fill-rule:evenodd; fill:#000000" d="M 233.523 0L 232.925 0L 232.925 2.71899L 230.144 2.71899L 230.144 3.31601L 232.925 3.31601L 232.925 6.11301L 233.523 6.11301L 233.523 3.31601L 236.211 3.31601L 236.211 2.71899L 233.523 2.71899L 233.523 0z"/>
<path style="stroke:none; fill-rule:evenodd; fill:#ffffff" d="M 55.9453 45.816L 65.5117 45.816L 65.5117 32.426L 55.9453 32.426L 55.9453 45.816z"/>
<path style="stroke:#ffffff; stroke-width:0.0; fill:none" d="M 55.9453 45.816L 65.5117 45.816L 65.5117 32.426L 55.9453 32.426L 55.9453 45.816z"/>
<path style="stroke:none; fill-rule:evenodd; fill:#000000" d="M 61.25 35.988C 60.5703 36.203 60.1796 36.375 59.7851 36.645C 58.9218 37.246 58.4257 38.188 58.4257 39.191C 58.4257 40.785 59.6757 42.113 61.1875 42.113C 62.8281 42.113 64.2226 40.606 64.2226 38.844C 64.2226 37.992 63.9336 37.16 63.3906 36.508C 62.9296 35.949 62.7187 35.789 61.5312 35.066C 60.3046 34.309 59.8281 33.84 59.8281 33.41C 59.8281 32.973 60.2539 32.625 60.7734 32.625C 61.25 32.625 61.5429 32.766 62.039 33.254C 62.582 33.793 62.7695 33.91 63.1015 33.91C 63.4609 33.91 63.7265 33.66 63.7265 33.34C 63.7265 32.621 62.5586 32.023 61.1484 32.023C 59.8867 32.023 59.1211 32.531 59.1211 33.348C 59.1211 33.828 59.3359 34.219 59.9257 34.77L 61.25 35.988zM 61.6172 36.32C 62.5 37.172 62.9218 38.121 62.9218 39.285C 62.9218 40.609 62.3046 41.516 61.3789 41.516C 60.457 41.516 59.8242 40.461 59.8242 38.906C 59.8242 37.445 60.4179 36.578 61.6172 36.32z"/>
<path style="stroke:none; fill-rule:evenodd; fill:#000000" d="M 64.4218 40.395L 64.4218 46.418L 65.4218 46.418L 65.4218 43.285C 65.4218 42.422 65.6328 41.859 66.0824 41.523C 66.3714 41.305 66.6524 41.238 67.3044 41.227L 67.3044 40.262C 67.1484 40.242 67.0704 40.23 66.9454 40.23C 66.3354 40.23 65.8711 40.598 65.3242 41.492L 65.3242 40.402L 64.4218 40.395z"/>
<path style="stroke:none; fill-rule:evenodd; fill:#000000" d="M 70.1484 30.32C 69.0314 31.828 68.3244 33.922 68.3244 35.73C 68.3244 37.547 69.0274 39.641 70.1484 41.148L 70.7614 41.148C 69.7734 39.504 69.2224 37.57 69.2224 35.73C 69.2224 33.902 69.7734 31.957 70.7614 30.32L 70.1484 30.32z"/>
<path style="stroke:none; fill-rule:evenodd; fill:#000000" d="M 74.2224 32.949L 74.2224 38.715L 75.2224 38.715L 75.2224 30.617L 74.5544 30.617C 74.1994 31.859 73.9684 32.031 72.3984 32.227L 72.3984 32.945L 74.2224 32.949z"/>
<path style="stroke:none; fill-rule:evenodd; fill:#000000" d="M 78.6794 41.152C 79.8084 39.645 80.5194 37.551 80.5194 35.746C 80.5194 33.93 79.8084 31.836 78.6794 30.324L 78.0624 30.324C 79.0664 31.973 79.6254 33.902 79.6254 35.746C 79.6254 37.574 79.0664 39.52 78.0624 41.152L 78.6794 41.152z"/>
<path style="stroke:none; fill-rule:evenodd; fill:#000000" d="M 58.1836 11.52L 56.4296 15.84L 57.2187 15.84L 58.6054 12.43L 60.0039 15.84L 60.7929 15.84L 59.0156 11.52L 58.1836 11.52z"/>
<path style="stroke:none; fill-rule:evenodd; fill:#000000" d="M 52.6484 17.668L 51.375 21.621L 51.0312 19.852C 50.6875 18.094 50.3203 17.52 49.5507 17.52C 49.207 17.52 48.8984 17.68 48.7148 17.945C 48.4648 18.301 48.4062 18.59 48.3828 19.559L 48.3828 19.707L 48.6328 19.707C 48.6523 19.387 48.6757 19.207 48.7226 19.039C 48.8476 18.656 49.1211 18.418 49.4531 18.418C 49.7617 18.418 49.9804 18.613 50.1953 19.086C 50.4687 19.684 50.7656 20.738 50.8828 21.594L 51.0195 22.551C 50.9882 22.664 50.8593 23.035 50.6406 23.66C 50.414 24.293 50.3437 24.629 50.3437 25.023C 50.3437 25.566 50.582 25.922 50.9492 25.922C 51.4179 25.922 51.7265 25.336 51.7265 24.418C 51.7265 24.063 51.6718 23.512 51.5351 22.648L 53.8632 17.664L 52.6484 17.668z"/>
<path style="stroke:none; fill-rule:evenodd; fill:#000000" d="M 58.5234 25.32L 61.4257 16.922L 60.2929 16.922L 57.9765 24.035L 55.5234 16.922L 54.3789 16.922L 57.3828 25.32L 58.5234 25.32z"/>
<path style="stroke:none; fill-rule:evenodd; fill:#000000" d="M 64.4453 16.918C 63.3281 18.426 62.6211 20.52 62.6211 22.328C 62.6211 24.145 63.3242 26.238 64.4453 27.746L 65.0586 27.746C 64.0703 26.102 63.5195 24.168 63.5195 22.328C 63.5195 20.5 64.0703 18.555 65.0586 16.918L 64.4453 16.918z"/>
<path style="stroke:none; fill-rule:evenodd; fill:#000000" d="M 68.5234 19.551L 68.5234 25.316L 69.5234 25.316L 69.5234 17.219L 68.8554 17.219C 68.5004 18.461 68.2694 18.633 66.6994 18.828L 66.6994 19.547L 68.5234 19.551z"/>
<path style="stroke:none; fill-rule:evenodd; fill:#000000" d="M 72.9764 27.754C 74.1054 26.246 74.8164 24.152 74.8164 22.348C 74.8164 20.531 74.1054 18.438 72.9764 16.926L 72.3594 16.926C 73.3634 18.574 73.9214 20.504 73.9214 22.348C 73.9214 24.176 73.3634 26.121 72.3594 27.754L 72.9764 27.754z"/>
<path style="stroke:none; fill-rule:evenodd; fill:#000000" d="M 22.1211 34.918L 25.0234 26.52L 23.8906 26.52L 21.5742 33.633L 19.1211 26.52L 17.9765 26.52L 20.9804 34.918L 22.1211 34.918z"/>
<path style="stroke:none; fill-rule:evenodd; fill:#000000" d="M 28.0468 26.52C 26.9296 28.027 26.2226 30.121 26.2226 31.93C 26.2226 33.746 26.9257 35.84 28.0468 37.348L 28.6601 37.348C 27.6718 35.703 27.1211 33.77 27.1211 31.93C 27.1211 30.102 27.6718 28.156 28.6601 26.52L 28.0468 26.52z"/>
<path style="stroke:none; fill-rule:evenodd; fill:#000000" d="M 32.2734 26.82C 31.5195 26.82 30.8359 27.152 30.414 27.719C 29.8906 28.43 29.6289 29.52 29.6289 31.02C 29.6289 33.758 30.539 35.215 32.2773 35.215C 33.9882 35.215 34.9257 33.762 34.9257 31.09C 34.9257 29.512 34.6757 28.453 34.1406 27.719C 33.7187 27.145 33.0468 26.82 32.2812 26.82L 32.2734 26.82zM 32.2734 27.719C 33.375 27.719 33.9218 28.824 33.9218 31.016C 33.9218 33.332 33.3906 34.414 32.25 34.414C 31.1718 34.414 30.625 33.285 30.625 31.051C 30.625 28.816 31.1679 27.719 32.2734 27.719z"/>
<path style="stroke:none; fill-rule:evenodd; fill:#000000" d="M 36.5781 37.356C 37.707 35.848 38.4179 33.754 38.4179 31.949C 38.4179 30.133 37.707 28.039 36.5781 26.527L 35.9609 26.527C 36.9648 28.176 37.5234 30.106 37.5234 31.949C 37.5234 33.777 36.9648 35.723 35.9609 37.356L 36.5781 37.356z"/>
<path style="stroke:none; fill-rule:evenodd; fill:#000000" d="M 106.421 34.918L 109.324 26.52L 108.191 26.52L 105.875 33.633L 103.421 26.52L 102.277 26.52L 105.281 34.918L 106.421 34.918z"/>
<path style="stroke:none; fill-rule:evenodd; fill:#000000" d="M 112.246 26.52C 111.128 28.027 110.421 30.121 110.421 31.93C 110.421 33.746 111.125 35.84 112.246 37.348L 112.859 37.348C 111.871 35.703 111.32 33.77 111.32 31.93C 111.32 30.102 111.871 28.156 112.859 26.52L 112.246 26.52z"/>
<path style="stroke:none; fill-rule:evenodd; fill:#000000" d="M 116.32 29.152L 116.32 34.918L 117.32 34.918L 117.32 26.82L 116.652 26.82C 116.296 28.063 116.066 28.234 114.496 28.43L 114.496 29.148L 116.32 29.152z"/>
<path style="stroke:none; fill-rule:evenodd; fill:#000000" d="M 120.777 37.356C 121.906 35.848 122.617 33.754 122.617 31.949C 122.617 30.133 121.906 28.039 120.777 26.527L 120.16 26.527C 121.164 28.176 121.722 30.106 121.722 31.949C 121.722 33.777 121.164 35.723 120.16 37.356L 120.777 37.356z"/>
<path style="stroke:none; fill-rule:evenodd; fill:#000000" d="M 144.281 11.52L 142.527 15.84L 143.316 15.84L 144.703 12.43L 146.101 15.84L 146.89 15.84L 145.113 11.52L 144.281 11.52z"/>
<path style="stroke:none; fill-rule:evenodd; fill:#000000" d="M 138.75 17.668L 137.476 21.621L 137.132 19.852C 136.789 18.094 136.421 17.52 135.652 17.52C 135.308 17.52 135 17.68 134.816 17.945C 134.566 18.301 134.507 18.59 134.484 19.559L 134.484 19.707L 134.734 19.707C 134.753 19.387 134.777 19.207 134.824 19.039C 134.949 18.656 135.222 18.418 135.554 18.418C 135.863 18.418 136.082 18.613 136.296 19.086C 136.57 19.684 136.867 20.738 136.984 21.594L 137.121 22.551C 137.089 22.664 136.961 23.035 136.742 23.66C 136.515 24.293 136.445 24.629 136.445 25.023C 136.445 25.566 136.683 25.922 137.05 25.922C 137.519 25.922 137.828 25.336 137.828 24.418C 137.828 24.063 137.773 23.512 137.636 22.648L 139.964 17.664L 138.75 17.668z"/>
<path style="stroke:none; fill-rule:evenodd; fill:#000000" d="M 144.621 25.32L 147.523 16.922L 146.39 16.922L 144.074 24.035L 141.621 16.922L 140.476 16.922L 143.48 25.32L 144.621 25.32z"/>
<path style="stroke:none; fill-rule:evenodd; fill:#000000" d="M 150.546 16.918C 149.429 18.426 148.722 20.52 148.722 22.328C 148.722 24.145 149.425 26.238 150.546 27.746L 151.16 27.746C 150.171 26.102 149.621 24.168 149.621 22.328C 149.621 20.5 150.171 18.555 151.16 16.918L 150.546 16.918z"/>
<path style="stroke:none; fill-rule:evenodd; fill:#000000" d="M 157.363 24.32L 153.136 24.32C 153.238 23.66 153.601 23.238 154.585 22.656L 155.718 22.043C 156.839 21.43 157.418 20.594 157.418 19.602C 157.418 18.93 157.148 18.301 156.671 17.867C 156.199 17.434 155.609 17.23 154.847 17.23C 153.828 17.23 153.07 17.59 152.628 18.27C 152.347 18.699 152.222 19.195 152.199 20.012L 153.199 20.012C 153.23 19.48 153.3 19.156 153.437 18.898C 153.699 18.422 154.222 18.129 154.824 18.129C 155.734 18.129 156.418 18.777 156.418 19.645C 156.418 20.281 156.043 20.828 155.324 21.238L 154.277 21.828C 152.593 22.781 152.101 23.547 152.011 25.324L 157.363 25.324L 157.363 24.32z"/>
<path style="stroke:none; fill-rule:evenodd; fill:#000000" d="M 159.078 27.754C 160.207 26.246 160.918 24.152 160.918 22.348C 160.918 20.531 160.207 18.438 159.078 16.926L 158.461 16.926C 159.464 18.574 160.023 20.504 160.023 22.348C 160.023 24.176 159.464 26.121 158.461 27.754L 159.078 27.754z"/>
<path style="stroke:none; fill-rule:evenodd; fill:#ffffff" d="M 140.128 45.816L 149.695 45.816L 149.695 32.426L 140.128 32.426L 140.128 45.816z"/>
<path style="stroke:#ffffff; stroke-width:0.0; fill:none" d="M 140.128 45.816L 149.695 45.816L 149.695 32.426L 140.128 32.426L 140.128 45.816z"/>
<path style="stroke:none; fill-rule:evenodd; fill:#000000" d="M 145.449 35.988C 144.769 36.203 144.378 36.375 143.984 36.645C 143.121 37.246 142.625 38.188 142.625 39.191C 142.625 40.785 143.875 42.113 145.386 42.113C 147.027 42.113 148.421 40.606 148.421 38.844C 148.421 37.992 148.132 37.16 147.589 36.508C 147.128 35.949 146.918 35.789 145.73 35.066C 144.503 34.309 144.027 33.84 144.027 33.41C 144.027 32.973 144.453 32.625 144.972 32.625C 145.449 32.625 145.742 32.766 146.238 33.254C 146.781 33.793 146.968 33.91 147.3 33.91C 147.66 33.91 147.925 33.66 147.925 33.34C 147.925 32.621 146.757 32.023 145.347 32.023C 144.085 32.023 143.32 32.531 143.32 33.348C 143.32 33.828 143.535 34.219 144.125 34.77L 145.449 35.988zM 145.816 36.32C 146.699 37.172 147.121 38.121 147.121 39.285C 147.121 40.609 146.503 41.516 145.578 41.516C 144.656 41.516 144.023 40.461 144.023 38.906C 144.023 37.445 144.617 36.578 145.816 36.32z"/>
<path style="stroke:none; fill-rule:evenodd; fill:#000000" d="M 148.621 40.395L 148.621 46.418L 149.621 46.418L 149.621 43.285C 149.621 42.422 149.832 41.859 150.281 41.523C 150.57 41.305 150.851 41.238 151.503 41.227L 151.503 40.262C 151.347 40.242 151.269 40.23 151.144 40.23C 150.535 40.23 150.07 40.598 149.523 41.492L 149.523 40.402L 148.621 40.395z"/>
<path style="stroke:none; fill-rule:evenodd; fill:#ffffff" d="M 224.312 45.816L 233.878 45.816L 233.878 32.426L 224.312 32.426L 224.312 45.816z"/>
<path style="stroke:#ffffff; stroke-width:0.0; fill:none" d="M 224.312 45.816L 233.878 45.816L 233.878 32.426L 224.312 32.426L 224.312 45.816z"/>
<path style="stroke:none; fill-rule:evenodd; fill:#000000" d="M 229.652 35.988C 228.972 36.203 228.582 36.375 228.187 36.645C 227.324 37.246 226.828 38.188 226.828 39.191C 226.828 40.785 228.078 42.113 229.589 42.113C 231.23 42.113 232.625 40.606 232.625 38.844C 232.625 37.992 232.335 37.16 231.793 36.508C 231.332 35.949 231.121 35.789 229.933 35.066C 228.707 34.309 228.23 33.84 228.23 33.41C 228.23 32.973 228.656 32.625 229.175 32.625C 229.652 32.625 229.945 32.766 230.441 33.254C 230.984 33.793 231.171 33.91 231.503 33.91C 231.863 33.91 232.128 33.66 232.128 33.34C 232.128 32.621 230.961 32.023 229.55 32.023C 228.289 32.023 227.523 32.531 227.523 33.348C 227.523 33.828 227.738 34.219 228.328 34.77L 229.652 35.988zM 230.015 36.32C 230.898 37.172 231.32 38.121 231.32 39.285C 231.32 40.609 230.703 41.516 229.777 41.516C 228.855 41.516 228.222 40.461 228.222 38.906C 228.222 37.445 228.816 36.578 230.015 36.32z"/>
<path style="stroke:none; fill-rule:evenodd; fill:#000000" d="M 232.722 40.395L 232.722 46.418L 233.722 46.418L 233.722 43.285C 233.722 42.422 233.933 41.859 234.382 41.523C 234.671 41.305 234.953 41.238 235.605 41.227L 235.605 40.262C 235.449 40.242 235.371 40.23 235.246 40.23C 234.636 40.23 234.171 40.598 233.625 41.492L 233.625 40.402L 232.722 40.395z"/>
<path style="stroke:none; fill-rule:evenodd; fill:#000000" d="M 228.82 25.32L 231.722 16.922L 230.589 16.922L 228.273 24.035L 225.82 16.922L 224.675 16.922L 227.679 25.32L 228.82 25.32z"/>
<path style="stroke:none; fill-rule:evenodd; fill:#000000" d="M 234.746 16.918C 233.628 18.426 232.921 20.52 232.921 22.328C 232.921 24.145 233.625 26.238 234.746 27.746L 235.359 27.746C 234.371 26.102 233.82 24.168 233.82 22.328C 233.82 20.5 234.371 18.555 235.359 16.918L 234.746 16.918z"/>
<path style="stroke:none; fill-rule:evenodd; fill:#000000" d="M 238.359 21.621L 238.914 21.621C 240.039 21.621 240.617 22.125 240.617 23.094C 240.617 24.109 239.984 24.715 238.921 24.715C 237.816 24.715 237.273 24.156 237.203 22.953L 236.187 22.953C 236.23 23.613 236.347 24.047 236.539 24.418C 236.949 25.207 237.753 25.613 238.863 25.613C 240.535 25.613 241.613 24.617 241.613 23.078C 241.613 22.047 241.214 21.473 240.246 21.141C 241.023 20.844 241.414 20.27 241.414 19.457C 241.414 18.059 240.48 17.223 238.921 17.223C 237.273 17.223 236.394 18.102 236.359 19.809L 237.382 19.809C 237.394 19.332 237.437 19.066 237.566 18.82C 237.796 18.387 238.308 18.121 238.953 18.121C 239.859 18.121 240.41 18.637 240.41 19.477C 240.41 20.035 240.199 20.371 239.734 20.551C 239.453 20.66 239.085 20.707 238.347 20.719L 238.359 21.621z"/>
<path style="stroke:none; fill-rule:evenodd; fill:#000000" d="M 243.277 27.754C 244.406 26.246 245.117 24.152 245.117 22.348C 245.117 20.531 244.406 18.438 243.277 16.926L 242.66 16.926C 243.664 18.574 244.222 20.504 244.222 22.348C 244.222 24.176 243.664 26.121 242.66 27.754L 243.277 27.754z"/>
<path style="stroke:none; fill-rule:evenodd; fill:#000000" d="M 238.546 30.32C 237.429 31.828 236.722 33.922 236.722 35.73C 236.722 37.547 237.425 39.641 238.546 41.148L 239.16 41.148C 238.171 39.504 237.621 37.57 237.621 35.73C 237.621 33.902 238.171 31.957 239.16 30.32L 238.546 30.32z"/>
<path style="stroke:none; fill-rule:evenodd; fill:#000000" d="M 242.16 35.02L 242.714 35.02C 243.839 35.02 244.418 35.523 244.418 36.492C 244.418 37.508 243.785 38.113 242.722 38.113C 241.617 38.113 241.074 37.555 241.003 36.352L 239.988 36.352C 240.031 37.012 240.148 37.445 240.339 37.816C 240.75 38.606 241.554 39.012 242.664 39.012C 244.335 39.012 245.414 38.016 245.414 36.477C 245.414 35.445 245.015 34.871 244.046 34.539C 244.824 34.242 245.214 33.668 245.214 32.856C 245.214 31.457 244.281 30.621 242.722 30.621C 241.074 30.621 240.195 31.5 240.16 33.207L 241.183 33.207C 241.195 32.73 241.238 32.465 241.367 32.219C 241.597 31.785 242.109 31.52 242.753 31.52C 243.66 31.52 244.211 32.035 244.211 32.875C 244.211 33.434 244 33.77 243.535 33.949C 243.253 34.059 242.886 34.106 242.148 34.117L 242.16 35.02z"/>
<path style="stroke:none; fill-rule:evenodd; fill:#000000" d="M 247.078 41.152C 248.207 39.645 248.918 37.551 248.918 35.746C 248.918 33.93 248.207 31.836 247.078 30.324L 246.461 30.324C 247.464 31.973 248.023 33.902 248.023 35.746C 248.023 37.574 247.464 39.52 246.461 41.152L 247.078 41.152z"/>
<path style="stroke:none; fill-rule:evenodd; fill:#000000" d="M 154.347 30.32C 153.23 31.828 152.523 33.922 152.523 35.73C 152.523 37.547 153.226 39.641 154.347 41.148L 154.961 41.148C 153.972 39.504 153.421 37.57 153.421 35.73C 153.421 33.902 153.972 31.957 154.961 30.32L 154.347 30.32z"/>
<path style="stroke:none; fill-rule:evenodd; fill:#000000" d="M 161.164 37.719L 156.937 37.719C 157.039 37.059 157.402 36.637 158.386 36.055L 159.519 35.441C 160.64 34.828 161.218 33.992 161.218 33C 161.218 32.328 160.949 31.699 160.472 31.266C 160 30.832 159.41 30.629 158.648 30.629C 157.628 30.629 156.871 30.988 156.429 31.668C 156.148 32.098 156.023 32.594 156 33.41L 157 33.41C 157.031 32.879 157.101 32.555 157.238 32.297C 157.5 31.82 158.023 31.527 158.625 31.527C 159.535 31.527 160.218 32.176 160.218 33.043C 160.218 33.68 159.843 34.227 159.125 34.637L 158.078 35.227C 156.394 36.18 155.902 36.945 155.812 38.723L 161.164 38.723L 161.164 37.719z"/>
<path style="stroke:none; fill-rule:evenodd; fill:#000000" d="M 162.878 41.152C 164.007 39.645 164.718 37.551 164.718 35.746C 164.718 33.93 164.007 31.836 162.878 30.324L 162.261 30.324C 163.265 31.973 163.824 33.902 163.824 35.746C 163.824 37.574 163.265 39.52 162.261 41.152L 162.878 41.152z"/>
<path style="stroke:none; fill-rule:evenodd; fill:#5f5f5f" d="M 65.5429 72.578L 69.3674 72.578L 69.3674 61.098L 65.5429 61.098L 65.5429 72.578z"/>
<path style="stroke:#000000; stroke-width:0.95664899999999997; fill:none" d="M 65.5429 72.578L 69.3674 72.578L 69.3674 61.098L 65.5429 61.098L 65.5429 72.578z"/>
<path style="stroke:#000000; stroke-dasharray:6,3; stroke-width:2.8699499999999998; fill:none" d="M 69.3394 66.871L 130.562 49.652"/>
<path style="stroke:none; fill-rule:evenodd; fill:#ffffff" d="M 94.2114 66.859L 103.777 66.859L 103.777 53.469L 94.2114 53.469L 94.2114 66.859z"/>
<path style="stroke:#ffffff; stroke-width:0.0; fill:none" d="M 94.2114 66.859L 103.777 66.859L 103.777 53.469L 94.2114 53.469L 94.2114 66.859z"/>
<path style="stroke:none; fill-rule:evenodd; fill:#000000" d="M 99.5504 56.988C 98.8714 57.203 98.4804 57.375 98.0854 57.645C 97.2224 58.246 96.7264 59.188 96.7264 60.191C 96.7264 61.785 97.9764 63.113 99.4884 63.113C 101.128 63.113 102.523 61.606 102.523 59.844C 102.523 58.992 102.234 58.16 101.691 57.508C 101.23 56.949 101.019 56.789 99.8324 56.066C 98.6054 55.309 98.1284 54.84 98.1284 54.41C 98.1284 53.973 98.5544 53.625 99.0744 53.625C 99.5504 53.625 99.8434 53.766 100.339 54.254C 100.882 54.793 101.07 54.91 101.402 54.91C 101.761 54.91 102.027 54.66 102.027 54.34C 102.027 53.621 100.859 53.023 99.4494 53.023C 98.1874 53.023 97.4214 53.531 97.4214 54.348C 97.4214 54.828 97.6364 55.219 98.2264 55.77L 99.5504 56.988zM 99.9144 57.32C 100.796 58.172 101.218 59.121 101.218 60.285C 101.218 61.609 100.601 62.516 99.6754 62.516C 98.7534 62.516 98.1214 61.461 98.1214 59.906C 98.1214 58.445 98.7144 57.578 99.9144 57.32z"/>
<path style="stroke:none; fill-rule:evenodd; fill:#000000" d="M 105.093 67.418L 107.398 61.418L 106.32 61.418L 104.625 66.277L 103.019 61.418L 101.941 61.418L 104.05 67.418L 105.093 67.418z"/>
<path style="stroke:none; fill-rule:evenodd; fill:#5f5f5f" d="M 149.73 72.578L 153.554 72.578L 153.554 61.098L 149.73 61.098L 149.73 72.578z"/>
<path style="stroke:#000000; stroke-width:0.95664899999999997; fill:none" d="M 149.73 72.578L 153.554 72.578L 153.554 61.098L 149.73 61.098L 149.73 72.578z"/>
<path style="stroke:#000000; stroke-dasharray:6,3; stroke-width:2.8699499999999998; fill:none" d="M 153.523 66.871L 214.746 49.652"/>
<path style="stroke:none; fill-rule:evenodd; fill:#ffffff" d="M 178.394 66.859L 187.961 66.859L 187.961 53.469L 178.394 53.469L 178.394 66.859z"/>
<path style="stroke:#ffffff; stroke-width:0.0; fill:none" d="M 178.394 66.859L 187.961 66.859L 187.961 53.469L 178.394 53.469L 178.394 66.859z"/>
<path style="stroke:none; fill-rule:evenodd; fill:#000000" d="M 183.75 56.988C 183.07 57.203 182.679 57.375 182.285 57.645C 181.421 58.246 180.925 59.188 180.925 60.191C 180.925 61.785 182.175 63.113 183.687 63.113C 185.328 63.113 186.722 61.606 186.722 59.844C 186.722 58.992 186.433 58.16 185.89 57.508C 185.429 56.949 185.218 56.789 184.031 56.066C 182.804 55.309 182.328 54.84 182.328 54.41C 182.328 53.973 182.753 53.625 183.273 53.625C 183.75 53.625 184.043 53.766 184.539 54.254C 185.082 54.793 185.269 54.91 185.601 54.91C 185.961 54.91 186.226 54.66 186.226 54.34C 186.226 53.621 185.058 53.023 183.648 53.023C 182.386 53.023 181.621 53.531 181.621 54.348C 181.621 54.828 181.835 55.219 182.425 55.77L 183.75 56.988zM 184.117 57.32C 185 58.172 185.421 59.121 185.421 60.285C 185.421 61.609 184.804 62.516 183.878 62.516C 182.957 62.516 182.324 61.461 182.324 59.906C 182.324 58.445 182.918 57.578 184.117 57.32z"/>
<path style="stroke:none; fill-rule:evenodd; fill:#000000" d="M 189.293 67.418L 191.597 61.418L 190.519 61.418L 188.824 66.277L 187.218 61.418L 186.14 61.418L 188.25 67.418L 189.293 67.418z"/>
<path style="stroke:#000000; stroke-dasharray:6,3; stroke-width:1.9133; fill:none" d="M 38.7265 158.707C 38.7265 158.707 38.7265 158.707 38.4101 150.098C 38.0937 141.488 37.457 124.27 37.1367 108.645C 36.8203 93.02 36.8203 78.992 40.0039 68.148C 43.1914 57.309 49.5664 49.656 52.7578 45.828C 55.9453 42.004 55.9453 42.004 55.9453 42.004"/>
<path style="stroke:#000000; stroke-dasharray:6,3; stroke-width:1.9133; fill:none" d="M 49.5781 46.652L 55.9453 42L 52.5156 49.102"/>
<path style="stroke:none; fill-rule:evenodd; fill:#000000" d="M 51.0468 158.52C 49.9296 160.027 49.2226 162.121 49.2226 163.93C 49.2226 165.746 49.9257 167.84 51.0468 169.348L 51.6601 169.348C 50.6718 167.703 50.1211 165.77 50.1211 163.93C 50.1211 162.102 50.6718 160.156 51.6601 158.52L 51.0468 158.52z"/>
<path style="stroke:none; fill-rule:evenodd; fill:#000000" d="M 55.1211 161.152L 55.1211 166.918L 56.1211 166.918L 56.1211 158.82L 55.4531 158.82C 55.0976 160.063 54.8672 160.234 53.2968 160.43L 53.2968 161.148L 55.1211 161.152z"/>
<path style="stroke:none; fill-rule:evenodd; fill:#000000" d="M 59.5781 169.356C 60.707 167.848 61.4179 165.754 61.4179 163.949C 61.4179 162.133 60.707 160.039 59.5781 158.527L 58.9609 158.527C 59.9648 160.176 60.5234 162.106 60.5234 163.949C 60.5234 165.777 59.9648 167.723 58.9609 169.356L 59.5781 169.356z"/>
<path style="stroke:none; fill-rule:evenodd; fill:#000000" d="M 135.246 160.418C 134.128 161.926 133.421 164.02 133.421 165.828C 133.421 167.645 134.125 169.738 135.246 171.246L 135.859 171.246C 134.871 169.602 134.32 167.668 134.32 165.828C 134.32 164 134.871 162.055 135.859 160.418L 135.246 160.418z"/>
<path style="stroke:none; fill-rule:evenodd; fill:#000000" d="M 142.066 167.82L 137.839 167.82C 137.941 167.16 138.304 166.738 139.289 166.156L 140.421 165.543C 141.543 164.93 142.121 164.094 142.121 163.102C 142.121 162.43 141.851 161.801 141.375 161.367C 140.902 160.934 140.312 160.73 139.55 160.73C 138.531 160.73 137.773 161.09 137.332 161.77C 137.05 162.199 136.925 162.695 136.902 163.512L 137.902 163.512C 137.933 162.98 138.003 162.656 138.14 162.398C 138.402 161.922 138.925 161.629 139.527 161.629C 140.437 161.629 141.121 162.277 141.121 163.145C 141.121 163.781 140.746 164.328 140.027 164.738L 138.98 165.328C 137.296 166.281 136.804 167.047 136.714 168.824L 142.066 168.824L 142.066 167.82z"/>
<path style="stroke:none; fill-rule:evenodd; fill:#000000" d="M 143.777 171.254C 144.906 169.746 145.617 167.652 145.617 165.848C 145.617 164.031 144.906 161.938 143.777 160.426L 143.16 160.426C 144.164 162.074 144.722 164.004 144.722 165.848C 144.722 167.676 144.164 169.621 143.16 171.254L 143.777 171.254z"/>
<path style="stroke:none; fill-rule:evenodd; fill:#000000" d="M 219.347 160.418C 218.23 161.926 217.523 164.02 217.523 165.828C 217.523 167.645 218.226 169.738 219.347 171.246L 219.961 171.246C 218.972 169.602 218.421 167.668 218.421 165.828C 218.421 164 218.972 162.055 219.961 160.418L 219.347 160.418z"/>
<path style="stroke:none; fill-rule:evenodd; fill:#000000" d="M 223.058 165.121L 223.613 165.121C 224.738 165.121 225.316 165.625 225.316 166.594C 225.316 167.609 224.683 168.215 223.621 168.215C 222.515 168.215 221.972 167.656 221.902 166.453L 220.886 166.453C 220.929 167.113 221.046 167.547 221.238 167.918C 221.648 168.707 222.453 169.113 223.562 169.113C 225.234 169.113 226.312 168.117 226.312 166.578C 226.312 165.547 225.914 164.973 224.945 164.641C 225.722 164.344 226.113 163.77 226.113 162.957C 226.113 161.559 225.179 160.723 223.621 160.723C 221.972 160.723 221.093 161.602 221.058 163.309L 222.082 163.309C 222.093 162.832 222.136 162.566 222.265 162.32C 222.496 161.887 223.007 161.621 223.652 161.621C 224.558 161.621 225.109 162.137 225.109 162.977C 225.109 163.535 224.898 163.871 224.433 164.051C 224.152 164.16 223.785 164.207 223.046 164.219L 223.058 165.121z"/>
<path style="stroke:none; fill-rule:evenodd; fill:#000000" d="M 227.878 171.254C 229.007 169.746 229.718 167.652 229.718 165.848C 229.718 164.031 229.007 161.938 227.878 160.426L 227.261 160.426C 228.265 162.074 228.824 164.004 228.824 165.848C 228.824 167.676 228.265 169.621 227.261 171.254L 227.878 171.254z"/>
<path style="stroke:#000000; stroke-dasharray:6,3; stroke-width:1.9133; fill:none" d="M 122.91 158.707C 122.91 158.707 122.91 158.707 122.593 150.098C 122.277 141.488 121.64 124.27 121.32 108.645C 121.003 93.02 121.003 78.992 124.187 68.148C 127.375 57.309 133.75 49.656 136.941 45.828C 140.128 42.004 140.128 42.004 140.128 42.004"/>
<path style="stroke:#000000; stroke-dasharray:6,3; stroke-width:1.9133; fill:none" d="M 133.761 46.652L 140.128 42L 136.699 49.102"/>
<path style="stroke:#000000; stroke-dasharray:6,3; stroke-width:1.9133; fill:none" d="M 209.007 158.707C 209.007 158.707 209.007 158.707 208.691 150.098C 208.375 141.488 207.738 124.27 207.418 108.645C 207.101 93.02 207.101 78.992 210.285 68.148C 213.472 57.309 219.847 49.656 223.039 45.828C 226.226 42.004 226.226 42.004 226.226 42.004"/>
<path style="stroke:#000000; stroke-dasharray:6,3; stroke-width:1.9133; fill:none" d="M 219.859 46.652L 226.226 42L 222.796 49.102"/>
<path style="stroke:none; fill-rule:evenodd; fill:#000000" d="M 190.621 34.918L 193.523 26.52L 192.39 26.52L 190.074 33.633L 187.621 26.52L 186.476 26.52L 189.48 34.918L 190.621 34.918z"/>
<path style="stroke:none; fill-rule:evenodd; fill:#000000" d="M 196.445 26.52C 195.328 28.027 194.621 30.121 194.621 31.93C 194.621 33.746 195.324 35.84 196.445 37.348L 197.058 37.348C 196.07 35.703 195.519 33.77 195.519 31.93C 195.519 30.102 196.07 28.156 197.058 26.52L 196.445 26.52z"/>
<path style="stroke:none; fill-rule:evenodd; fill:#000000" d="M 203.363 33.918L 199.136 33.918C 199.238 33.258 199.601 32.836 200.585 32.254L 201.718 31.641C 202.839 31.027 203.418 30.191 203.418 29.199C 203.418 28.527 203.148 27.898 202.671 27.465C 202.199 27.031 201.609 26.828 200.847 26.828C 199.828 26.828 199.07 27.188 198.628 27.867C 198.347 28.297 198.222 28.793 198.199 29.609L 199.199 29.609C 199.23 29.078 199.3 28.754 199.437 28.496C 199.699 28.02 200.222 27.727 200.824 27.727C 201.734 27.727 202.418 28.375 202.418 29.242C 202.418 29.879 202.043 30.426 201.324 30.836L 200.277 31.426C 198.593 32.379 198.101 33.145 198.011 34.922L 203.363 34.922L 203.363 33.918z"/>
<path style="stroke:none; fill-rule:evenodd; fill:#000000" d="M 204.976 37.356C 206.105 35.848 206.816 33.754 206.816 31.949C 206.816 30.133 206.105 28.039 204.976 26.527L 204.359 26.527C 205.363 28.176 205.921 30.106 205.921 31.949C 205.921 33.777 205.363 35.723 204.359 37.356L 204.976 37.356z"/>
</g>
</svg>