<?xml version="1.0" encoding="ISO-8859-1" standalone="yes"?>
<svg width="292.939" height="312.692">
  <defs> 
    <marker id="ArrowEnd" viewBox="0 0 10 10" refX="0" refY="5" 
     markerUnits="strokeWidth" 
     markerWidth="4" 
     markerHeight="3" 
     orient="auto"> 
        <path d="M 0 0 L 10 5 L 0 10 z" /> 
    </marker>
    <marker id="ArrowStart" viewBox="0 0 10 10" refX="10" refY="5" 
     markerUnits="strokeWidth" 
     markerWidth="4" 
     markerHeight="3" 
     orient="auto"> 
        <path d="M 10 0 L 0 5 L 10 10 z" /> 
    </marker> </defs>
<g>
<path style="stroke:#000000; stroke-width:0.10000000000000001; fill:none" d="M 134.876 107.095L 158.063 209.454L 134.876 107.095z"/>
<path style="stroke:none; fill-rule:evenodd; fill:#000000" d="M 142.872 111.892L 129.278 115.087L 134.876 107.091"/>
<path style="stroke:#000000; stroke-width:0.10000000000000001; fill:none" d="M 142.872 111.892L 129.278 115.087L 134.876 107.091L 142.872 111.892z"/>
<path style="stroke:#000000; stroke-width:0.10000000000000001; fill:none" d="M 20.5161 223.052L 101.286 223.052L 81.2941 302.22L 0.524078 302.22L 20.5161 223.052z"/>
<path style="stroke:#000000; stroke-width:0.10000000000000001; fill:none" d="M 110.083 223.052L 190.852 223.052L 170.86 302.22L 90.0911 302.22L 110.083 223.052z"/>
<path style="stroke:#000000; stroke-width:0.10000000000000001; fill:none" d="M 199.649 223.052L 280.419 223.052L 260.427 302.22L 179.657 302.22L 199.649 223.052z"/>
<path style="stroke:#000000; stroke-width:0.10000000000000001; fill:none" d="M 24.5161 209.454L 292.415 209.454L 269.227 302.22L 0.528076 302.22L 24.5161 209.454z"/>
<path style="stroke:none; fill-rule:evenodd; fill:#000000" d="M 6.28607 310.427L 7.28607 310.427L 7.28607 302.829L 6.28607 302.829L 6.28607 310.427z"/>
<path style="stroke:none; fill-rule:evenodd; fill:#000000" d="M 8.88408 304.985L 8.88408 310.427L 9.78207 310.427L 9.78207 307.45C 9.78207 306.349 10.3601 305.63 11.2591 305.63C 11.9421 305.63 12.3801 306.04 12.3801 306.688L 12.3801 310.427L 13.2781 310.427L 13.2781 306.314C 13.2781 305.411 12.5911 304.829 11.5201 304.829C 10.6961 304.829 10.1691 305.138 9.68108 305.899L 9.68108 304.989L 8.88408 304.985z"/>
<path style="stroke:none; fill-rule:evenodd; fill:#000000" d="M 14.4851 312.692L 15.3841 312.692L 15.3841 309.829C 15.8371 310.38 16.3481 310.626 17.0561 310.626C 18.4581 310.626 19.3801 309.501 19.3801 307.778C 19.3801 305.966 18.5051 304.829 17.0871 304.829C 16.3641 304.829 15.7821 305.161 15.3841 305.806L 15.3841 304.985L 14.4851 304.985L 14.4851 312.692zM 16.9031 305.626C 17.8561 305.626 18.4811 306.462 18.4811 307.755C 18.4811 308.985 17.8481 309.821 16.9031 309.821C 15.9891 309.821 15.3881 308.997 15.3881 307.724C 15.3881 306.454 15.9891 305.626 16.9031 305.626z"/>
<path style="stroke:none; fill-rule:evenodd; fill:#000000" d="M 24.7861 310.392L 24.7861 305.028L 23.8881 305.028L 23.8881 308.036C 23.8881 309.118 23.3331 309.825 22.4661 309.825C 21.8091 309.825 21.3911 309.423 21.3911 308.782L 21.3911 305.028L 20.4931 305.028L 20.4931 309.161C 20.4931 310.052 21.1571 310.622 22.2001 310.622C 22.9851 310.622 23.4851 310.349 23.9891 309.642L 23.9891 310.388L 24.7861 310.392z"/>
<path style="stroke:none; fill-rule:evenodd; fill:#000000" d="M 28.1841 305.028L 27.3881 305.028L 27.3881 303.485L 26.4891 303.485L 26.4891 305.028L 25.6921 305.028L 25.6921 305.728L 26.4891 305.728L 26.4891 309.778C 26.4891 310.317 26.8481 310.626 27.5051 310.626C 27.7041 310.626 27.9031 310.606 28.1881 310.56L 28.1881 309.868C 28.0871 309.841 27.9661 309.833 27.8171 309.833C 27.4851 309.833 27.3911 309.735 27.3911 309.36L 27.3911 305.735L 28.1881 305.735L 28.1841 305.028z"/>
<path style="stroke:#000000; stroke-width:0.10000000000000001; fill:none" d="M 24.5161 209.454L 292.415 209.454L 269.227 302.22L 0.528076 302.22L 24.5161 209.454z"/>
<path style="stroke:#000000; stroke-width:0.10000000000000001; fill:none" d="M 20.5161 27.9231L 101.286 27.9231L 81.2941 107.091L 0.524078 107.091L 20.5161 27.9231z"/>
<path style="stroke:#000000; stroke-width:0.10000000000000001; fill:none" d="M 110.083 27.9231L 190.852 27.9231L 170.86 107.091L 90.0911 107.091L 110.083 27.9231z"/>
<path style="stroke:#000000; stroke-width:0.10000000000000001; fill:none" d="M 199.649 27.9231L 280.419 27.9231L 260.427 107.091L 179.657 107.091L 199.649 27.9231z"/>
<path style="stroke:none; fill-rule:evenodd; fill:#000000" d="M 25.3521 38.5281L 27.4811 32.1771L 27.4811 38.5281L 28.3801 38.5281L 28.3801 30.9311L 27.0441 30.9311L 24.8521 37.5521L 22.6181 30.9311L 21.2861 30.9311L 21.2861 38.5281L 22.1841 38.5281L 22.1841 32.1771L 24.3331 38.5281L 25.3521 38.5281z"/>
<path style="stroke:none; fill-rule:evenodd; fill:#000000" d="M 32.1221 32.9271C 30.6021 32.9271 29.6841 34.0091 29.6841 35.8251C 29.6841 37.6381 30.5911 38.7241 32.1341 38.7241C 33.6491 38.7241 34.5831 37.6421 34.5831 35.8681C 34.5831 34.0011 33.6841 32.9271 32.1221 32.9271zM 32.1341 33.7281C 33.1021 33.7281 33.6811 34.5211 33.6811 35.8561C 33.6811 37.1221 33.0831 37.9231 32.1341 37.9231C 31.1731 37.9231 30.5871 37.1301 30.5871 35.8251C 30.5871 34.5281 31.1731 33.7281 32.1341 33.7281z"/>
<path style="stroke:none; fill-rule:evenodd; fill:#000000" d="M 35.5831 33.0831L 35.5831 38.5241L 36.4811 38.5241L 36.4811 35.5481C 36.4811 34.4461 37.0591 33.7281 37.9581 33.7281C 38.6411 33.7281 39.0791 34.1381 39.0791 34.7861L 39.0791 38.5241L 39.9771 38.5241L 39.9771 34.4111C 39.9771 33.5091 39.2901 32.9271 38.2201 32.9271C 37.3951 32.9271 36.8681 33.2351 36.3801 33.9971L 36.3801 33.0871L 35.5831 33.0831z"/>
<path style="stroke:none; fill-rule:evenodd; fill:#000000" d="M 42.0831 33.1261L 41.1841 33.1261L 41.1841 38.5241L 42.0831 38.5241L 42.0831 33.1261zM 42.0831 30.9271L 41.1841 30.9271L 41.1841 32.0361L 42.0831 32.0361L 42.0831 30.9271z"/>
<path style="stroke:none; fill-rule:evenodd; fill:#000000" d="M 45.4851 33.1261L 44.6881 33.1261L 44.6881 31.5831L 43.7901 31.5831L 43.7901 33.1261L 42.9931 33.1261L 42.9931 33.8251L 43.7901 33.8251L 43.7901 37.8761C 43.7901 38.4151 44.1491 38.7241 44.8061 38.7241C 45.0051 38.7241 45.2041 38.7041 45.4891 38.6571L 45.4891 37.9661C 45.3881 37.9381 45.2661 37.9311 45.1181 37.9311C 44.7861 37.9311 44.6921 37.8331 44.6921 37.4581L 44.6921 33.8331L 45.4891 33.8331L 45.4851 33.1261z"/>
<path style="stroke:none; fill-rule:evenodd; fill:#000000" d="M 49.7241 32.9271C 48.2041 32.9271 47.2861 34.0091 47.2861 35.8251C 47.2861 37.6381 48.1921 38.7241 49.7351 38.7241C 51.2511 38.7241 52.1841 37.6421 52.1841 35.8681C 52.1841 34.0011 51.2861 32.9271 49.7241 32.9271zM 49.7351 33.7281C 50.7041 33.7281 51.2821 34.5211 51.2821 35.8561C 51.2821 37.1221 50.6841 37.9231 49.7351 37.9231C 48.7741 37.9231 48.1881 37.1301 48.1881 35.8251C 48.1881 34.5281 48.7741 33.7281 49.7351 33.7281z"/>
<path style="stroke:none; fill-rule:evenodd; fill:#000000" d="M 53.1841 33.0831L 53.1841 38.5241L 54.0831 38.5241L 54.0831 35.6921C 54.0831 34.9111 54.2781 34.4031 54.6921 34.0991C 54.9581 33.9031 55.2161 33.8411 55.8171 33.8291L 55.8171 32.9621C 55.6731 32.9421 55.5981 32.9351 55.4811 32.9351C 54.9151 32.9351 54.4851 33.2671 53.9811 34.0751L 53.9811 33.0911L 53.1841 33.0831z"/>
<path style="stroke:none; fill-rule:evenodd; fill:#000000" d="M 116.286 33.1731C 116.274 31.6921 115.251 30.8291 113.493 30.8291C 111.821 30.8291 110.786 31.6811 110.786 33.0561C 110.786 33.9811 111.278 34.5641 112.282 34.8251L 114.177 35.3251C 115.138 35.5751 115.579 35.9581 115.579 36.5521C 115.579 36.9541 115.36 37.3721 115.04 37.6031C 114.739 37.8101 114.259 37.9231 113.645 37.9231C 112.825 37.9231 112.263 37.7281 111.895 37.2861C 111.614 36.9541 111.489 36.5871 111.485 36.1141L 110.587 36.1141C 110.595 36.7981 110.731 37.2511 111.036 37.6611C 111.556 38.3561 112.438 38.7241 113.598 38.7241C 114.509 38.7241 115.251 38.5211 115.743 38.1461C 116.255 37.7431 116.579 37.0711 116.579 36.4191C 116.579 35.4891 115.993 34.8061 114.954 34.5281L 113.036 34.0241C 112.114 33.7781 111.778 33.4891 111.778 32.9071C 111.778 32.1421 112.454 31.6341 113.477 31.6341C 114.688 31.6341 115.364 32.1851 115.376 33.1771L 116.286 33.1731z"/>
<path style="stroke:none; fill-rule:evenodd; fill:#000000" d="M 116.985 40.7941L 117.884 40.7941L 117.884 37.9311C 118.337 38.4811 118.848 38.7281 119.556 38.7281C 120.958 38.7281 121.88 37.6031 121.88 35.8801C 121.88 34.0671 121.005 32.9311 119.587 32.9311C 118.864 32.9311 118.282 33.2631 117.884 33.9071L 117.884 33.0871L 116.985 33.0871L 116.985 40.7941zM 119.403 33.7281C 120.356 33.7281 120.981 34.5641 120.981 35.8561C 120.981 37.0871 120.348 37.9231 119.403 37.9231C 118.489 37.9231 117.888 37.0991 117.888 35.8251C 117.888 34.5561 118.489 33.7281 119.403 33.7281z"/>
<path style="stroke:none; fill-rule:evenodd; fill:#000000" d="M 128.184 36.1261C 128.184 35.2901 128.122 34.7861 127.97 34.3761C 127.618 33.4781 126.79 32.9311 125.774 32.9311C 124.263 32.9311 123.29 34.0871 123.29 35.8601C 123.29 37.6341 124.235 38.7281 125.77 38.7281C 127.02 38.7281 127.884 38.0361 128.106 36.8761L 127.231 36.8761C 126.993 37.5671 126.501 37.9271 125.802 37.9271C 125.251 37.9271 124.778 37.6881 124.485 37.2471C 124.278 36.9501 124.204 36.6491 124.192 36.1301L 128.184 36.1261zM 124.224 35.3881C 124.294 34.3801 124.907 33.7281 125.782 33.7281C 126.634 33.7281 127.286 34.4311 127.286 35.3251C 127.286 35.3451 127.286 35.3641 127.278 35.3841L 124.224 35.3881z"/>
<path style="stroke:none; fill-rule:evenodd; fill:#000000" d="M 133.247 38.0211C 133.153 38.0281 133.11 38.0281 133.059 38.0281C 132.755 38.0281 132.587 37.8761 132.587 37.6061L 132.587 34.4151C 132.587 33.4541 131.884 32.9351 130.544 32.9351C 129.759 32.9351 129.102 33.1611 128.739 33.5671C 128.493 33.8451 128.388 34.1571 128.368 34.6961L 129.227 34.6961C 129.298 34.0361 129.688 33.7351 130.489 33.7351C 131.259 33.7351 131.688 34.0211 131.688 34.5361L 131.688 34.7631C 131.688 35.1221 131.474 35.2781 130.786 35.3601C 129.563 35.5131 129.376 35.5561 129.044 35.6881C 128.411 35.9461 128.091 36.4311 128.091 37.1301C 128.091 38.1061 128.778 38.7281 129.891 38.7281C 130.579 38.7281 131.134 38.5011 131.755 37.9701C 131.817 38.4931 132.087 38.7281 132.653 38.7281C 132.829 38.7281 132.966 38.7081 133.247 38.6421L 133.247 38.0211zM 131.684 36.7781C 131.684 37.0561 131.602 37.2281 131.345 37.4581C 130.993 37.7671 130.567 37.9271 130.059 37.9271C 129.388 37.9271 128.993 37.6181 128.993 37.0871C 128.993 36.5361 129.376 36.2591 130.298 36.1261C 131.208 36.0091 131.395 35.9701 131.688 35.8371L 131.684 36.7781z"/>
<path style="stroke:none; fill-rule:evenodd; fill:#000000" d="M 133.985 30.9271L 133.087 30.9271L 133.087 38.5241L 133.985 38.5241L 133.985 36.4071L 134.817 35.5791L 136.638 38.5281L 137.696 38.5281L 135.493 34.9971L 137.368 33.1341L 136.266 33.1341L 133.981 35.3921L 133.985 30.9271z"/>
<path style="stroke:none; fill-rule:evenodd; fill:#000000" d="M 142.583 36.1261C 142.583 35.2901 142.52 34.7861 142.368 34.3761C 142.016 33.4781 141.188 32.9311 140.173 32.9311C 138.661 32.9311 137.688 34.0871 137.688 35.8601C 137.688 37.6341 138.634 38.7281 140.169 38.7281C 141.419 38.7281 142.282 38.0361 142.505 36.8761L 141.63 36.8761C 141.391 37.5671 140.899 37.9271 140.2 37.9271C 139.649 37.9271 139.177 37.6881 138.884 37.2471C 138.677 36.9501 138.602 36.6491 138.591 36.1301L 142.583 36.1261zM 138.626 35.3881C 138.696 34.3801 139.309 33.7281 140.184 33.7281C 141.036 33.7281 141.688 34.4311 141.688 35.3251C 141.688 35.3451 141.688 35.3641 141.681 35.3841L 138.626 35.3881z"/>
<path style="stroke:none; fill-rule:evenodd; fill:#000000" d="M 142.786 33.0831L 142.786 38.5241L 143.684 38.5241L 143.684 35.6921C 143.684 34.9111 143.88 34.4031 144.294 34.0991C 144.559 33.9031 144.817 33.8411 145.419 33.8291L 145.419 32.9621C 145.274 32.9421 145.2 32.9351 145.083 32.9351C 144.516 32.9351 144.087 33.2671 143.583 34.0751L 143.583 33.0911L 142.786 33.0831z"/>
<path style="stroke:none; fill-rule:evenodd; fill:#000000" d="M 149.837 34.5991C 149.829 33.5321 149.122 32.9311 147.868 32.9311C 146.606 32.9311 145.786 33.5791 145.786 34.5791C 145.786 35.4231 146.224 35.8251 147.52 36.1341L 148.333 36.3291C 148.938 36.4741 149.177 36.6881 149.177 37.0791C 149.177 37.5831 148.665 37.9231 147.899 37.9231C 147.431 37.9231 147.032 37.7941 146.809 37.5751C 146.673 37.4271 146.61 37.2741 146.559 36.9071L 145.638 36.9071C 145.677 38.1381 146.388 38.7281 147.821 38.7281C 149.2 38.7281 150.079 38.0601 150.079 37.0171C 150.079 36.2161 149.622 35.7711 148.532 35.5131L 147.696 35.3171C 146.985 35.1531 146.684 34.9271 146.684 34.5481C 146.684 34.0561 147.13 33.7351 147.833 33.7351C 148.524 33.7351 148.899 34.0361 148.919 34.6031L 149.837 34.5991z"/>
<path style="stroke:none; fill-rule:evenodd; fill:#000000" d="M 201.485 35.8761L 202.716 34.6421L 205.38 38.5281L 206.52 38.5281L 203.411 34.0281L 206.489 30.9351L 205.247 30.9351L 201.485 34.7901L 201.485 30.9351L 200.485 30.9351L 200.485 38.5321L 201.485 38.5321L 201.485 35.8761z"/>
<path style="stroke:none; fill-rule:evenodd; fill:#000000" d="M 211.384 36.1261C 211.384 35.2901 211.321 34.7861 211.169 34.3761C 210.817 33.4781 209.989 32.9311 208.974 32.9311C 207.462 32.9311 206.489 34.0871 206.489 35.8601C 206.489 37.6341 207.434 38.7281 208.97 38.7281C 210.22 38.7281 211.083 38.0361 211.306 36.8761L 210.431 36.8761C 210.192 37.5671 209.7 37.9271 209.001 37.9271C 208.45 37.9271 207.977 37.6881 207.684 37.2471C 207.477 36.9501 207.403 36.6491 207.391 36.1301L 211.384 36.1261zM 207.427 35.3881C 207.497 34.3801 208.11 33.7281 208.985 33.7281C 209.837 33.7281 210.489 34.4311 210.489 35.3251C 210.489 35.3451 210.489 35.3641 210.481 35.3841L 207.427 35.3881z"/>
<path style="stroke:none; fill-rule:evenodd; fill:#000000" d="M 214.919 33.1261L 213.415 37.3171L 212.024 33.1261L 211.102 33.1261L 212.942 38.6221L 212.61 39.4891C 212.477 39.8761 212.282 40.0211 211.915 40.0211C 211.79 40.0211 211.645 39.9741 211.462 39.8761L 211.462 40.6851C 211.638 40.7781 211.813 40.8211 212.04 40.8211C 212.317 40.8211 212.618 40.7311 212.848 40.5641C 213.118 40.3681 213.274 40.1421 213.438 39.7041L 215.86 33.1261L 214.919 33.1261z"/>
<path style="stroke:none; fill-rule:evenodd; fill:#000000" d="M 216.286 30.9271L 216.286 38.5241L 217.083 38.5241L 217.083 37.8291C 217.485 38.4351 218.024 38.7241 218.766 38.7241C 220.165 38.7241 221.079 37.5601 221.079 35.7631C 221.079 34.0091 220.188 32.9271 218.759 32.9271C 218.016 32.9271 217.485 33.2041 217.083 33.8171L 217.083 30.9271L 216.286 30.9271zM 218.626 33.7351C 219.591 33.7351 220.216 34.5751 220.216 35.8761C 220.216 37.1101 219.571 37.9541 218.626 37.9541C 217.712 37.9541 217.11 37.1261 217.11 35.8451C 217.11 34.5671 217.712 33.7351 218.626 33.7351z"/>
<path style="stroke:none; fill-rule:evenodd; fill:#000000" d="M 224.923 32.9271C 223.403 32.9271 222.485 34.0091 222.485 35.8251C 222.485 37.6381 223.391 38.7241 224.934 38.7241C 226.45 38.7241 227.384 37.6421 227.384 35.8681C 227.384 34.0011 226.485 32.9271 224.923 32.9271zM 224.934 33.7281C 225.903 33.7281 226.481 34.5211 226.481 35.8561C 226.481 37.1221 225.884 37.9231 224.934 37.9231C 223.974 37.9231 223.388 37.1301 223.388 35.8251C 223.388 34.5281 223.974 33.7281 224.934 33.7281z"/>
<path style="stroke:none; fill-rule:evenodd; fill:#000000" d="M 233.247 38.0211C 233.153 38.0281 233.11 38.0281 233.059 38.0281C 232.755 38.0281 232.587 37.8761 232.587 37.6061L 232.587 34.4151C 232.587 33.4541 231.884 32.9351 230.544 32.9351C 229.759 32.9351 229.102 33.1611 228.739 33.5671C 228.493 33.8451 228.388 34.1571 228.368 34.6961L 229.227 34.6961C 229.298 34.0361 229.688 33.7351 230.489 33.7351C 231.259 33.7351 231.688 34.0211 231.688 34.5361L 231.688 34.7631C 231.688 35.1221 231.474 35.2781 230.786 35.3601C 229.563 35.5131 229.376 35.5561 229.044 35.6881C 228.411 35.9461 228.091 36.4311 228.091 37.1301C 228.091 38.1061 228.778 38.7281 229.891 38.7281C 230.579 38.7281 231.134 38.5011 231.755 37.9701C 231.817 38.4931 232.087 38.7281 232.653 38.7281C 232.829 38.7281 232.966 38.7081 233.247 38.6421L 233.247 38.0211zM 231.684 36.7781C 231.684 37.0561 231.602 37.2281 231.345 37.4581C 230.993 37.7671 230.567 37.9271 230.059 37.9271C 229.388 37.9271 228.993 37.6181 228.993 37.0871C 228.993 36.5361 229.376 36.2591 230.298 36.1261C 231.208 36.0091 231.395 35.9701 231.688 35.8371L 231.684 36.7781z"/>
<path style="stroke:none; fill-rule:evenodd; fill:#000000" d="M 233.184 33.0831L 233.184 38.5241L 234.083 38.5241L 234.083 35.6921C 234.083 34.9111 234.278 34.4031 234.692 34.0991C 234.958 33.9031 235.216 33.8411 235.817 33.8291L 235.817 32.9621C 235.673 32.9421 235.598 32.9351 235.481 32.9351C 234.915 32.9351 234.485 33.2671 233.981 34.0751L 233.981 33.0911L 233.184 33.0831z"/>
<path style="stroke:none; fill-rule:evenodd; fill:#000000" d="M 241.684 30.9271L 240.786 30.9271L 240.786 33.7631C 240.427 33.2161 239.845 32.9271 239.118 32.9271C 237.712 32.9271 236.79 34.0521 236.79 35.7741C 236.79 37.5991 237.692 38.7241 239.153 38.7241C 239.899 38.7241 240.419 38.4581 240.884 37.8101L 240.884 38.5241L 241.681 38.5241L 241.684 30.9271zM 239.259 33.7281C 240.188 33.7281 240.782 34.5521 240.782 35.8451C 240.782 37.0951 240.181 37.9231 239.27 37.9231C 238.317 37.9231 237.684 37.0871 237.684 35.8251C 237.684 34.5641 238.313 33.7281 239.259 33.7281z"/>
<path style="stroke:#000000; stroke-width:0.10000000000000001; fill:none" d="M 24.5161 14.3251L 292.415 14.3251L 269.227 107.091L 0.528076 107.091L 24.5161 14.3251z"/>
<path style="stroke:none; fill-rule:evenodd; fill:#000000" d="M 10.9851 111.829L 10.9851 115.329L 11.9851 115.329L 11.9851 107.731L 10.9851 107.731L 10.9851 111.028L 7.08707 111.028L 7.08707 107.731L 6.08707 107.731L 6.08707 115.329L 7.08707 115.329L 7.08707 111.829L 10.9851 111.829z"/>
<path style="stroke:none; fill-rule:evenodd; fill:#000000" d="M 14.3841 109.927L 13.4851 109.927L 13.4851 115.325L 14.3841 115.325L 14.3841 109.927zM 14.3841 107.728L 13.4851 107.728L 13.4851 108.837L 14.3841 108.837L 14.3841 107.728z"/>
<path style="stroke:none; fill-rule:evenodd; fill:#000000" d="M 20.3841 107.728L 19.4851 107.728L 19.4851 110.564C 19.1261 110.017 18.5441 109.728 17.8171 109.728C 16.4111 109.728 15.4891 110.853 15.4891 112.575C 15.4891 114.399 16.3911 115.524 17.8521 115.524C 18.5981 115.524 19.1181 115.259 19.5831 114.61L 19.5831 115.325L 20.3801 115.325L 20.3841 107.728zM 17.9621 110.528C 18.8911 110.528 19.4851 111.353 19.4851 112.646C 19.4851 113.896 18.8841 114.724 17.9741 114.724C 17.0201 114.724 16.3881 113.888 16.3881 112.626C 16.3881 111.364 17.0161 110.528 17.9621 110.528z"/>
<path style="stroke:none; fill-rule:evenodd; fill:#000000" d="M 26.0831 107.728L 25.1841 107.728L 25.1841 110.564C 24.8251 110.017 24.2431 109.728 23.5161 109.728C 22.1101 109.728 21.1881 110.853 21.1881 112.575C 21.1881 114.399 22.0911 115.524 23.5521 115.524C 24.2981 115.524 24.8171 115.259 25.2821 114.61L 25.2821 115.325L 26.0791 115.325L 26.0831 107.728zM 23.6611 110.528C 24.5911 110.528 25.1841 111.353 25.1841 112.646C 25.1841 113.896 24.5831 114.724 23.6731 114.724C 22.7201 114.724 22.0871 113.888 22.0871 112.626C 22.0871 111.364 22.7161 110.528 23.6611 110.528z"/>
<path style="stroke:none; fill-rule:evenodd; fill:#000000" d="M 31.9851 112.927C 31.9851 112.091 31.9231 111.587 31.7701 111.177C 31.4191 110.278 30.5911 109.731 29.5751 109.731C 28.0631 109.731 27.0911 110.888 27.0911 112.661C 27.0911 114.435 28.0361 115.528 29.5711 115.528C 30.8211 115.528 31.6841 114.837 31.9071 113.677L 31.0321 113.677C 30.7941 114.368 30.3021 114.728 29.6021 114.728C 29.0521 114.728 28.5791 114.489 28.2861 114.048C 28.0791 113.751 28.0051 113.45 27.9931 112.931L 31.9851 112.927zM 28.0241 112.188C 28.0951 111.181 28.7081 110.528 29.5831 110.528C 30.4341 110.528 31.0871 111.231 31.0871 112.126C 31.0871 112.146 31.0871 112.165 31.0791 112.185L 28.0241 112.188z"/>
<path style="stroke:none; fill-rule:evenodd; fill:#000000" d="M 33.1841 109.884L 33.1841 115.325L 34.0831 115.325L 34.0831 112.349C 34.0831 111.247 34.6611 110.528 35.5591 110.528C 36.2431 110.528 36.6811 110.938 36.6811 111.587L 36.6811 115.325L 37.5791 115.325L 37.5791 111.212C 37.5791 110.31 36.8911 109.728 35.8211 109.728C 34.9971 109.728 34.4701 110.036 33.9811 110.798L 33.9811 109.888L 33.1841 109.884z"/>
<path style="stroke:#000000; stroke-width:0.10000000000000001; fill:none" d="M 24.5161 14.3251L 292.415 14.3251L 269.227 107.091L 0.528076 107.091L 24.5161 14.3251z"/>
<path style="stroke:#000000; stroke-width:0.10000000000000001; fill:none" d="M 51.6921 107.095L 74.8801 209.454L 51.6921 107.095z"/>
<path style="stroke:none; fill-rule:evenodd; fill:#000000" d="M 59.6881 111.892L 46.0951 115.087L 51.6921 107.091"/>
<path style="stroke:#000000; stroke-width:0.10000000000000001; fill:none" d="M 59.6881 111.892L 46.0951 115.087L 51.6921 107.091L 59.6881 111.892z"/>
<path style="stroke:#000000; stroke-width:0.10000000000000001; fill:none" d="M 222.841 107.095L 246.028 209.454L 222.841 107.095z"/>
<path style="stroke:none; fill-rule:evenodd; fill:#000000" d="M 230.837 111.892L 217.243 115.087L 222.841 107.091"/>
<path style="stroke:#000000; stroke-width:0.10000000000000001; fill:none" d="M 230.837 111.892L 217.243 115.087L 222.841 107.091L 230.837 111.892z"/>
<path style="stroke:#000000; stroke-width:0.10000000000000001; fill:none" d="M 74.9971 26.3371L 74.9971 0.524109L 49.1841 0.524109L 49.1841 25.3841"/>
<path style="stroke:none; fill-rule:evenodd; fill:#000000" d="M 49.1811 28.2471L 43.4461 20.5991L 56.8291 20.5991"/>
<path style="stroke:#000000; stroke-width:0.10000000000000001; fill:none" d="M 49.1811 28.2471L 43.4461 20.5991L 56.8291 20.5991L 49.1811 28.2471z"/>
<path style="stroke:#000000; stroke-width:0.10000000000000001; fill:none" d="M 258.575 26.3371L 258.575 0.524109L 232.763 0.524109L 232.763 25.3841"/>
<path style="stroke:none; fill-rule:evenodd; fill:#000000" d="M 232.759 28.2471L 227.024 20.5991L 240.407 20.5991"/>
<path style="stroke:#000000; stroke-width:0.10000000000000001; fill:none" d="M 232.759 28.2471L 227.024 20.5991L 240.407 20.5991L 232.759 28.2471z"/>
<path style="stroke:#000000; stroke-width:0.10000000000000001; fill:none" d="M 168.696 26.3371L 168.696 0.524109L 142.884 0.524109L 142.884 25.3841"/>
<path style="stroke:none; fill-rule:evenodd; fill:#000000" d="M 142.884 28.2471L 137.149 20.5991L 150.532 20.5991"/>
<path style="stroke:#000000; stroke-width:0.10000000000000001; fill:none" d="M 142.884 28.2471L 137.149 20.5991L 150.532 20.5991L 142.884 28.2471z"/>
<path style="stroke:none; fill-rule:evenodd; fill:#000000" d="M 25.3521 234.528L 27.4811 228.177L 27.4811 234.528L 28.3801 234.528L 28.3801 226.931L 27.0441 226.931L 24.8521 233.552L 22.6181 226.931L 21.2861 226.931L 21.2861 234.528L 22.1841 234.528L 22.1841 228.177L 24.3331 234.528L 25.3521 234.528z"/>
<path style="stroke:none; fill-rule:evenodd; fill:#000000" d="M 32.1221 228.927C 30.6021 228.927 29.6841 230.009 29.6841 231.825C 29.6841 233.638 30.5911 234.724 32.1341 234.724C 33.6491 234.724 34.5831 233.642 34.5831 231.868C 34.5831 230.001 33.6841 228.927 32.1221 228.927zM 32.1341 229.728C 33.1021 229.728 33.6811 230.521 33.6811 231.856C 33.6811 233.122 33.0831 233.923 32.1341 233.923C 31.1731 233.923 30.5871 233.13 30.5871 231.825C 30.5871 230.528 31.1731 229.728 32.1341 229.728z"/>
<path style="stroke:none; fill-rule:evenodd; fill:#000000" d="M 35.5831 229.083L 35.5831 234.524L 36.4811 234.524L 36.4811 231.548C 36.4811 230.446 37.0591 229.728 37.9581 229.728C 38.6411 229.728 39.0791 230.138 39.0791 230.786L 39.0791 234.524L 39.9771 234.524L 39.9771 230.411C 39.9771 229.509 39.2901 228.927 38.2201 228.927C 37.3951 228.927 36.8681 229.235 36.3801 229.997L 36.3801 229.087L 35.5831 229.083z"/>
<path style="stroke:none; fill-rule:evenodd; fill:#000000" d="M 42.0831 229.126L 41.1841 229.126L 41.1841 234.524L 42.0831 234.524L 42.0831 229.126zM 42.0831 226.927L 41.1841 226.927L 41.1841 228.036L 42.0831 228.036L 42.0831 226.927z"/>
<path style="stroke:none; fill-rule:evenodd; fill:#000000" d="M 45.4851 229.126L 44.6881 229.126L 44.6881 227.583L 43.7901 227.583L 43.7901 229.126L 42.9931 229.126L 42.9931 229.825L 43.7901 229.825L 43.7901 233.876C 43.7901 234.415 44.1491 234.724 44.8061 234.724C 45.0051 234.724 45.2041 234.704 45.4891 234.657L 45.4891 233.966C 45.3881 233.938 45.2661 233.931 45.1181 233.931C 44.7861 233.931 44.6921 233.833 44.6921 233.458L 44.6921 229.833L 45.4891 229.833L 45.4851 229.126z"/>
<path style="stroke:none; fill-rule:evenodd; fill:#000000" d="M 49.7241 228.927C 48.2041 228.927 47.2861 230.009 47.2861 231.825C 47.2861 233.638 48.1921 234.724 49.7351 234.724C 51.2511 234.724 52.1841 233.642 52.1841 231.868C 52.1841 230.001 51.2861 228.927 49.7241 228.927zM 49.7351 229.728C 50.7041 229.728 51.2821 230.521 51.2821 231.856C 51.2821 233.122 50.6841 233.923 49.7351 233.923C 48.7741 233.923 48.1881 233.13 48.1881 231.825C 48.1881 230.528 48.7741 229.728 49.7351 229.728z"/>
<path style="stroke:none; fill-rule:evenodd; fill:#000000" d="M 53.1841 229.083L 53.1841 234.524L 54.0831 234.524L 54.0831 231.692C 54.0831 230.911 54.2781 230.403 54.6921 230.099C 54.9581 229.903 55.2161 229.841 55.8171 229.829L 55.8171 228.962C 55.6731 228.942 55.5981 228.935 55.4811 228.935C 54.9151 228.935 54.4851 229.267 53.9811 230.075L 53.9811 229.091L 53.1841 229.083z"/>
<path style="stroke:none; fill-rule:evenodd; fill:#000000" d="M 116.286 229.173C 116.274 227.692 115.251 226.829 113.493 226.829C 111.821 226.829 110.786 227.681 110.786 229.056C 110.786 229.981 111.278 230.564 112.282 230.825L 114.177 231.325C 115.138 231.575 115.579 231.958 115.579 232.552C 115.579 232.954 115.36 233.372 115.04 233.603C 114.739 233.81 114.259 233.923 113.645 233.923C 112.825 233.923 112.263 233.728 111.895 233.286C 111.614 232.954 111.489 232.587 111.485 232.114L 110.587 232.114C 110.595 232.798 110.731 233.251 111.036 233.661C 111.556 234.356 112.438 234.724 113.598 234.724C 114.509 234.724 115.251 234.521 115.743 234.146C 116.255 233.743 116.579 233.071 116.579 232.419C 116.579 231.489 115.993 230.806 114.954 230.528L 113.036 230.024C 112.114 229.778 111.778 229.489 111.778 228.907C 111.778 228.142 112.454 227.634 113.477 227.634C 114.688 227.634 115.364 228.185 115.376 229.177L 116.286 229.173z"/>
<path style="stroke:none; fill-rule:evenodd; fill:#000000" d="M 116.985 236.794L 117.884 236.794L 117.884 233.931C 118.337 234.481 118.848 234.728 119.556 234.728C 120.958 234.728 121.88 233.603 121.88 231.88C 121.88 230.067 121.005 228.931 119.587 228.931C 118.864 228.931 118.282 229.263 117.884 229.907L 117.884 229.087L 116.985 229.087L 116.985 236.794zM 119.403 229.728C 120.356 229.728 120.981 230.564 120.981 231.856C 120.981 233.087 120.348 233.923 119.403 233.923C 118.489 233.923 117.888 233.099 117.888 231.825C 117.888 230.556 118.489 229.728 119.403 229.728z"/>
<path style="stroke:none; fill-rule:evenodd; fill:#000000" d="M 128.184 232.126C 128.184 231.29 128.122 230.786 127.97 230.376C 127.618 229.478 126.79 228.931 125.774 228.931C 124.263 228.931 123.29 230.087 123.29 231.86C 123.29 233.634 124.235 234.728 125.77 234.728C 127.02 234.728 127.884 234.036 128.106 232.876L 127.231 232.876C 126.993 233.567 126.501 233.927 125.802 233.927C 125.251 233.927 124.778 233.688 124.485 233.247C 124.278 232.95 124.204 232.649 124.192 232.13L 128.184 232.126zM 124.224 231.388C 124.294 230.38 124.907 229.728 125.782 229.728C 126.634 229.728 127.286 230.431 127.286 231.325C 127.286 231.345 127.286 231.364 127.278 231.384L 124.224 231.388z"/>
<path style="stroke:none; fill-rule:evenodd; fill:#000000" d="M 133.247 234.021C 133.153 234.028 133.11 234.028 133.059 234.028C 132.755 234.028 132.587 233.876 132.587 233.606L 132.587 230.415C 132.587 229.454 131.884 228.935 130.544 228.935C 129.759 228.935 129.102 229.161 128.739 229.567C 128.493 229.845 128.388 230.157 128.368 230.696L 129.227 230.696C 129.298 230.036 129.688 229.735 130.489 229.735C 131.259 229.735 131.688 230.021 131.688 230.536L 131.688 230.763C 131.688 231.122 131.474 231.278 130.786 231.36C 129.563 231.513 129.376 231.556 129.044 231.688C 128.411 231.946 128.091 232.431 128.091 233.13C 128.091 234.106 128.778 234.728 129.891 234.728C 130.579 234.728 131.134 234.501 131.755 233.97C 131.817 234.493 132.087 234.728 132.653 234.728C 132.829 234.728 132.966 234.708 133.247 234.642L 133.247 234.021zM 131.684 232.778C 131.684 233.056 131.602 233.228 131.345 233.458C 130.993 233.767 130.567 233.927 130.059 233.927C 129.388 233.927 128.993 233.618 128.993 233.087C 128.993 232.536 129.376 232.259 130.298 232.126C 131.208 232.009 131.395 231.97 131.688 231.837L 131.684 232.778z"/>
<path style="stroke:none; fill-rule:evenodd; fill:#000000" d="M 133.985 226.927L 133.087 226.927L 133.087 234.524L 133.985 234.524L 133.985 232.407L 134.817 231.579L 136.638 234.528L 137.696 234.528L 135.493 230.997L 137.368 229.134L 136.266 229.134L 133.981 231.392L 133.985 226.927z"/>
<path style="stroke:none; fill-rule:evenodd; fill:#000000" d="M 142.583 232.126C 142.583 231.29 142.52 230.786 142.368 230.376C 142.016 229.478 141.188 228.931 140.173 228.931C 138.661 228.931 137.688 230.087 137.688 231.86C 137.688 233.634 138.634 234.728 140.169 234.728C 141.419 234.728 142.282 234.036 142.505 232.876L 141.63 232.876C 141.391 233.567 140.899 233.927 140.2 233.927C 139.649 233.927 139.177 233.688 138.884 233.247C 138.677 232.95 138.602 232.649 138.591 232.13L 142.583 232.126zM 138.626 231.388C 138.696 230.38 139.309 229.728 140.184 229.728C 141.036 229.728 141.688 230.431 141.688 231.325C 141.688 231.345 141.688 231.364 141.681 231.384L 138.626 231.388z"/>
<path style="stroke:none; fill-rule:evenodd; fill:#000000" d="M 142.786 229.083L 142.786 234.524L 143.684 234.524L 143.684 231.692C 143.684 230.911 143.88 230.403 144.294 230.099C 144.559 229.903 144.817 229.841 145.419 229.829L 145.419 228.962C 145.274 228.942 145.2 228.935 145.083 228.935C 144.516 228.935 144.087 229.267 143.583 230.075L 143.583 229.091L 142.786 229.083z"/>
<path style="stroke:none; fill-rule:evenodd; fill:#000000" d="M 149.837 230.599C 149.829 229.532 149.122 228.931 147.868 228.931C 146.606 228.931 145.786 229.579 145.786 230.579C 145.786 231.423 146.224 231.825 147.52 232.134L 148.333 232.329C 148.938 232.474 149.177 232.688 149.177 233.079C 149.177 233.583 148.665 233.923 147.899 233.923C 147.431 233.923 147.032 233.794 146.809 233.575C 146.673 233.427 146.61 233.274 146.559 232.907L 145.638 232.907C 145.677 234.138 146.388 234.728 147.821 234.728C 149.2 234.728 150.079 234.06 150.079 233.017C 150.079 232.216 149.622 231.771 148.532 231.513L 147.696 231.317C 146.985 231.153 146.684 230.927 146.684 230.548C 146.684 230.056 147.13 229.735 147.833 229.735C 148.524 229.735 148.899 230.036 148.919 230.603L 149.837 230.599z"/>
<path style="stroke:none; fill-rule:evenodd; fill:#000000" d="M 201.485 231.876L 202.716 230.642L 205.38 234.528L 206.52 234.528L 203.411 230.028L 206.489 226.935L 205.247 226.935L 201.485 230.79L 201.485 226.935L 200.485 226.935L 200.485 234.532L 201.485 234.532L 201.485 231.876z"/>
<path style="stroke:none; fill-rule:evenodd; fill:#000000" d="M 211.384 232.126C 211.384 231.29 211.321 230.786 211.169 230.376C 210.817 229.478 209.989 228.931 208.974 228.931C 207.462 228.931 206.489 230.087 206.489 231.86C 206.489 233.634 207.434 234.728 208.97 234.728C 210.22 234.728 211.083 234.036 211.306 232.876L 210.431 232.876C 210.192 233.567 209.7 233.927 209.001 233.927C 208.45 233.927 207.977 233.688 207.684 233.247C 207.477 232.95 207.403 232.649 207.391 232.13L 211.384 232.126zM 207.427 231.388C 207.497 230.38 208.11 229.728 208.985 229.728C 209.837 229.728 210.489 230.431 210.489 231.325C 210.489 231.345 210.489 231.364 210.481 231.384L 207.427 231.388z"/>
<path style="stroke:none; fill-rule:evenodd; fill:#000000" d="M 214.919 229.126L 213.415 233.317L 212.024 229.126L 211.102 229.126L 212.942 234.622L 212.61 235.489C 212.477 235.876 212.282 236.021 211.915 236.021C 211.79 236.021 211.645 235.974 211.462 235.876L 211.462 236.685C 211.638 236.778 211.813 236.821 212.04 236.821C 212.317 236.821 212.618 236.731 212.848 236.564C 213.118 236.368 213.274 236.142 213.438 235.704L 215.86 229.126L 214.919 229.126z"/>
<path style="stroke:none; fill-rule:evenodd; fill:#000000" d="M 216.286 226.927L 216.286 234.524L 217.083 234.524L 217.083 233.829C 217.485 234.435 218.024 234.724 218.766 234.724C 220.165 234.724 221.079 233.56 221.079 231.763C 221.079 230.009 220.188 228.927 218.759 228.927C 218.016 228.927 217.485 229.204 217.083 229.817L 217.083 226.927L 216.286 226.927zM 218.626 229.735C 219.591 229.735 220.216 230.575 220.216 231.876C 220.216 233.11 219.571 233.954 218.626 233.954C 217.712 233.954 217.11 233.126 217.11 231.845C 217.11 230.567 217.712 229.735 218.626 229.735z"/>
<path style="stroke:none; fill-rule:evenodd; fill:#000000" d="M 224.923 228.927C 223.403 228.927 222.485 230.009 222.485 231.825C 222.485 233.638 223.391 234.724 224.934 234.724C 226.45 234.724 227.384 233.642 227.384 231.868C 227.384 230.001 226.485 228.927 224.923 228.927zM 224.934 229.728C 225.903 229.728 226.481 230.521 226.481 231.856C 226.481 233.122 225.884 233.923 224.934 233.923C 223.974 233.923 223.388 233.13 223.388 231.825C 223.388 230.528 223.974 229.728 224.934 229.728z"/>
<path style="stroke:none; fill-rule:evenodd; fill:#000000" d="M 233.247 234.021C 233.153 234.028 233.11 234.028 233.059 234.028C 232.755 234.028 232.587 233.876 232.587 233.606L 232.587 230.415C 232.587 229.454 231.884 228.935 230.544 228.935C 229.759 228.935 229.102 229.161 228.739 229.567C 228.493 229.845 228.388 230.157 228.368 230.696L 229.227 230.696C 229.298 230.036 229.688 229.735 230.489 229.735C 231.259 229.735 231.688 230.021 231.688 230.536L 231.688 230.763C 231.688 231.122 231.474 231.278 230.786 231.36C 229.563 231.513 229.376 231.556 229.044 231.688C 228.411 231.946 228.091 232.431 228.091 233.13C 228.091 234.106 228.778 234.728 229.891 234.728C 230.579 234.728 231.134 234.501 231.755 233.97C 231.817 234.493 232.087 234.728 232.653 234.728C 232.829 234.728 232.966 234.708 233.247 234.642L 233.247 234.021zM 231.684 232.778C 231.684 233.056 231.602 233.228 231.345 233.458C 230.993 233.767 230.567 233.927 230.059 233.927C 229.388 233.927 228.993 233.618 228.993 233.087C 228.993 232.536 229.376 232.259 230.298 232.126C 231.208 232.009 231.395 231.97 231.688 231.837L 231.684 232.778z"/>
<path style="stroke:none; fill-rule:evenodd; fill:#000000" d="M 233.184 229.083L 233.184 234.524L 234.083 234.524L 234.083 231.692C 234.083 230.911 234.278 230.403 234.692 230.099C 234.958 229.903 235.216 229.841 235.817 229.829L 235.817 228.962C 235.673 228.942 235.598 228.935 235.481 228.935C 234.915 228.935 234.485 229.267 233.981 230.075L 233.981 229.091L 233.184 229.083z"/>
<path style="stroke:none; fill-rule:evenodd; fill:#000000" d="M 241.684 226.927L 240.786 226.927L 240.786 229.763C 240.427 229.216 239.845 228.927 239.118 228.927C 237.712 228.927 236.79 230.052 236.79 231.774C 236.79 233.599 237.692 234.724 239.153 234.724C 239.899 234.724 240.419 234.458 240.884 233.81L 240.884 234.524L 241.681 234.524L 241.684 226.927zM 239.259 229.728C 240.188 229.728 240.782 230.552 240.782 231.845C 240.782 233.095 240.181 233.923 239.27 233.923C 238.317 233.923 237.684 233.087 237.684 231.825C 237.684 230.564 238.313 229.728 239.259 229.728z"/>
</g>
</svg>