<?xml version="1.0" encoding="UTF-8" standalone="no"?>
<svg
   xmlns:dc="http://purl.org/dc/elements/1.1/"
   xmlns:cc="http://creativecommons.org/ns#"
   xmlns:rdf="http://www.w3.org/1999/02/22-rdf-syntax-ns#"
   xmlns:svg="http://www.w3.org/2000/svg"
   xmlns="http://www.w3.org/2000/svg"
   xmlns:sodipodi="http://sodipodi.sourceforge.net/DTD/sodipodi-0.dtd"
   xmlns:inkscape="http://www.inkscape.org/namespaces/inkscape"
   version="1.1"
   width="400px"
   height="400px"
   viewBox="0 0 1000.0 1000.0"
   id="svg3396"
   sodipodi:docname="fig_deepleabra_wwi_emer_v1p_lrn.svg"
   inkscape:version="0.92.2 5c3e80d, 2017-08-06"
   inkscape:export-filename="/Users/oreilly/ccngit/figs/fig_deepleabra_wwi_emer_v1p_lrn.png"
   inkscape:export-xdpi="149.95399"
   inkscape:export-ydpi="149.95399">
  <metadata
     id="metadata3402">
    <rdf:RDF>
      <cc:Work
         rdf:about="">
        <dc:format>image/svg+xml</dc:format>
        <dc:type
           rdf:resource="http://purl.org/dc/dcmitype/StillImage" />
        <dc:title></dc:title>
      </cc:Work>
    </rdf:RDF>
  </metadata>
  <defs
     id="defs3400" />
  <sodipodi:namedview
     pagecolor="#ffffff"
     bordercolor="#666666"
     borderopacity="1"
     objecttolerance="10"
     gridtolerance="10"
     guidetolerance="10"
     inkscape:pageopacity="0"
     inkscape:pageshadow="2"
     inkscape:window-width="640"
     inkscape:window-height="480"
     id="namedview3398"
     showgrid="false"
     inkscape:zoom="3.94"
     inkscape:cx="105.58376"
     inkscape:cy="189.19426"
     inkscape:current-layer="svg3396" />
  <path
     stroke="#000000"
     stroke-width="2"
     fill="none"
     d="M 160.0,824.5 L 160.0,101.7 L 882.8,101.7 L 882.8,824.5 L 160.0,824.5 "
     id="path3312" />
  <text
     style="font-size:46.66666668px;font-family:Arial;text-anchor:middle;fill:#000000;-inkscape-font-specification:'Arial, Normal';font-weight:normal;font-style:normal;font-stretch:normal;font-variant:normal;text-align:center;writing-mode:lr;font-variant-ligatures:normal;font-variant-caps:normal;font-variant-numeric:normal;font-feature-settings:normal;"
     id="text3314"
     font-size="36.2"
     y="940.401"
     x="521.40002">epoch</text>
  <text
     style="font-size:46.66666668px;font-family:Arial;text-anchor:middle;fill:#000000;-inkscape-font-specification:'Arial, Normal';font-weight:normal;font-style:normal;font-stretch:normal;font-variant:normal;text-align:center;writing-mode:lr;font-variant-ligatures:normal;font-variant-caps:normal;font-variant-numeric:normal;font-feature-settings:normal;"
     id="text3316"
     font-size="36.2"
     y="885.90002"
     x="231.7">100</text>
  <text
     style="font-size:46.66666668px;font-family:Arial;text-anchor:middle;fill:#000000;-inkscape-font-specification:'Arial, Normal';font-weight:normal;font-style:normal;font-stretch:normal;font-variant:normal;text-align:center;writing-mode:lr;font-variant-ligatures:normal;font-variant-caps:normal;font-variant-numeric:normal;font-feature-settings:normal;"
     id="text3324"
     font-size="36.2"
     y="885.90002"
     x="521.40002">500</text>
  <text
     style="font-size:46.66666668px;font-family:Arial;text-anchor:middle;fill:#000000;-inkscape-font-specification:'Arial, Normal';font-weight:normal;font-style:normal;font-stretch:normal;font-variant:normal;text-align:center;writing-mode:lr;font-variant-ligatures:normal;font-variant-caps:normal;font-variant-numeric:normal;font-feature-settings:normal;"
     id="text3334"
     font-size="36.2"
     y="885.90002"
     x="883.5">1000</text>
  <path
     style="fill:none;stroke:#000000;stroke-width:2"
     inkscape:connector-curvature="0"
     id="path3336"
     d="m 160,824.5 h 722.8 m -651.1,18 v -36.1 m 72.5,36.1 v -36.1 m 72.4,36.1 v -36.1 m 72.4,36.1 v -36.1 m 72.4,36.1 v -36.1 m 72.4,36.1 v -36.1 m 72.4,36.1 v -36.1 m 72.5,36.1 v -36.1 m 72.4,36.1 v -36.1 m 72.4,36.1 v -36.1" />
  <path
     style="fill:none;stroke:#000000;stroke-width:2"
     inkscape:connector-curvature="0"
     id="path3338"
     d="M 160,101.7 H 882.8 M 231.7,119.8 V 83.7 m 72.5,36.1 V 83.7 m 72.4,36.1 V 83.7 M 449,119.8 V 83.7 m 72.4,36.1 V 83.7 m 72.4,36.1 V 83.7 m 72.4,36.1 V 83.7 m 72.5,36.1 V 83.7 m 72.4,36.1 V 83.7 m 72.4,36.1 V 83.7" />
  <text
     style="font-style:normal;font-variant:normal;font-weight:normal;font-stretch:normal;font-size:46.66666794px;font-family:Arial;-inkscape-font-specification:'Arial, Normal';font-variant-ligatures:normal;font-variant-caps:normal;font-variant-numeric:normal;font-feature-settings:normal;text-align:center;writing-mode:lr-tb;text-anchor:middle;fill:#000000"
     id="text3342"
     font-size="36.2"
     y="838.90002"
     x="120.11664">0</text>
  <text
     style="font-style:normal;font-variant:normal;font-weight:normal;font-stretch:normal;font-size:46.66666794px;font-family:Arial;-inkscape-font-specification:'Arial, Normal';font-variant-ligatures:normal;font-variant-caps:normal;font-variant-numeric:normal;font-feature-settings:normal;text-align:center;writing-mode:lr-tb;text-anchor:middle;fill:#000000"
     id="text3352"
     font-size="36.2"
     y="477.60001"
     x="100.29241">0.5</text>
  <text
     style="font-style:normal;font-variant:normal;font-weight:normal;font-stretch:normal;font-size:46.66666794px;font-family:Arial;-inkscape-font-specification:'Arial, Normal';font-variant-ligatures:normal;font-variant-caps:normal;font-variant-numeric:normal;font-feature-settings:normal;text-align:center;writing-mode:lr-tb;text-anchor:middle;fill:#000000"
     id="text3362"
     font-size="36.2"
     y="116.2"
     x="126.45127">1</text>
  <path
     style="fill:#000000;stroke:#000000;stroke-width:2"
     inkscape:connector-curvature="0"
     id="path3364"
     d="M 160,824.5 V 101.7 m -18,722.8 h 36.1 M 142,752.2 h 36.1 M 142,679.9 h 36.1 M 142,607.7 h 36.1 M 142,535.4 h 36.1 M 142,463.1 h 36.1 M 142,390.8 h 36.1 M 142,318.6 h 36.1 M 142,246.3 h 36.1 M 142,174 h 36.1 M 142,101.7 h 36.1" />
  <path
     style="fill:none;stroke:#000000;stroke-width:2"
     inkscape:connector-curvature="0"
     id="path3366"
     d="M 882.8,824.5 V 101.7 m -18.1,722.8 h 36.1 m -36.1,-72.3 h 36.1 m -36.1,-72.3 h 36.1 m -36.1,-72.2 h 36.1 m -36.1,-72.3 h 36.1 m -36.1,-72.3 h 36.1 m -36.1,-72.3 h 36.1 m -36.1,-72.2 h 36.1 m -36.1,-72.3 h 36.1 M 864.7,174 h 36.1 m -36.1,-72.3 h 36.1" />
  <path
     inkscape:connector-curvature="0"
     style="fill:none;stroke:#7eff00;stroke-width:2.5;stroke-miterlimit:4;stroke-dasharray:none"
     id="path3378"
     d="" />
  <path
     inkscape:connector-curvature="0"
     style="fill:none;stroke:#7eff00;stroke-width:2.5;stroke-miterlimit:4;stroke-dasharray:none"
     id="path3382"
     d="" />
  <path
     inkscape:connector-curvature="0"
     style="fill:none;stroke:#7eff00;stroke-width:2.5;stroke-miterlimit:4;stroke-dasharray:none"
     id="path3384"
     d="" />
  <path
     inkscape:connector-curvature="0"
     style="fill:none;stroke:#800080;stroke-width:2.5;stroke-miterlimit:4;stroke-dasharray:none"
     id="path3386"
     d="" />
  <path
     inkscape:connector-curvature="0"
     style="fill:none;stroke:#800080;stroke-width:2.5;stroke-miterlimit:4;stroke-dasharray:none"
     id="path3390"
     d="" />
  <path
     inkscape:connector-curvature="0"
     style="fill:none;stroke:#800080;stroke-width:2.5;stroke-miterlimit:4;stroke-dasharray:none"
     id="path3392"
     d="" />
  <text
     xml:space="preserve"
     style="color:#000000;font-style:normal;font-variant:normal;font-weight:normal;font-stretch:normal;font-size:46.66666794px;line-height:100%;font-family:Arial;-inkscape-font-specification:'Arial, Normal';font-variant-ligatures:normal;font-variant-caps:normal;font-variant-numeric:normal;font-feature-settings:normal;text-indent:0;text-align:center;text-decoration:none;text-decoration-line:none;letter-spacing:0px;word-spacing:0px;text-transform:none;writing-mode:lr-tb;direction:ltr;text-anchor:middle;display:inline;overflow:visible;visibility:visible;fill:#000000;fill-opacity:1;fill-rule:nonzero;stroke:none;stroke-width:2.5px;stroke-linecap:butt;stroke-linejoin:miter;stroke-opacity:1;marker:none;enable-background:accumulate"
     x="-459.12933"
     y="58.234776"
     id="text4649"
     transform="rotate(-90)"><tspan
       sodipodi:role="line"
       id="tspan4647"
       x="-459.12933"
       y="58.234776"
       style="font-style:normal;font-variant:normal;font-weight:normal;font-stretch:normal;font-size:46.66666794px;font-family:Arial;-inkscape-font-specification:'Arial, Normal';font-variant-ligatures:normal;font-variant-caps:normal;font-variant-numeric:normal;font-feature-settings:normal;text-align:center;writing-mode:lr-tb;text-anchor:middle;stroke-width:2.5px">Prediction Error (Correlation)</tspan></text>
  <text
     xml:space="preserve"
     style="color:#000000;font-style:normal;font-variant:normal;font-weight:normal;font-stretch:normal;font-size:33.33333206px;line-height:100%;font-family:Arial;-inkscape-font-specification:Arial;text-indent:0;text-align:start;text-decoration:none;text-decoration-line:none;letter-spacing:0px;word-spacing:0px;text-transform:none;writing-mode:lr-tb;direction:ltr;text-anchor:start;display:inline;overflow:visible;visibility:visible;fill:#000000;fill-opacity:1;fill-rule:nonzero;stroke:none;stroke-width:2.5px;stroke-linecap:butt;stroke-linejoin:miter;stroke-opacity:1;marker:none;enable-background:accumulate"
     x="618.02032"
     y="362.94418"
     id="text4661"><tspan
       sodipodi:role="line"
       id="tspan4659"
       x="618.02032"
       y="362.94418"
       style="stroke-width:2.5px">V1p (low res)</tspan></text>
  <text
     xml:space="preserve"
     style="color:#000000;font-style:normal;font-variant:normal;font-weight:normal;font-stretch:normal;font-size:33.33333206px;line-height:100%;font-family:Arial;-inkscape-font-specification:Arial;text-indent:0;text-align:start;text-decoration:none;text-decoration-line:none;letter-spacing:0px;word-spacing:0px;text-transform:none;writing-mode:lr-tb;direction:ltr;text-anchor:start;display:inline;overflow:visible;visibility:visible;fill:#000000;fill-opacity:1;fill-rule:nonzero;stroke:none;stroke-width:2.5px;stroke-linecap:butt;stroke-linejoin:miter;stroke-opacity:1;marker:none;enable-background:accumulate"
     x="618.02032"
     y="475.25381"
     id="text4665"><tspan
       sodipodi:role="line"
       id="tspan4663"
       x="618.02032"
       y="475.25381"
       style="stroke-width:2.5px">V1hp (high res)</tspan></text>
  <path
     id="path5630"
     d=""
     inkscape:connector-curvature="0"
     style="fill:none;stroke:#7eff00;stroke-width:1" />
  <path
     id="path5634"
     d=""
     inkscape:connector-curvature="0"
     style="fill:none;stroke:#7eff00;stroke-width:1" />
  <path
     id="path5636"
     d=""
     inkscape:connector-curvature="0"
     style="fill:none;stroke:#7eff00;stroke-width:1" />
  <path
     id="path5638"
     d=""
     inkscape:connector-curvature="0"
     style="fill:none;stroke:#800080;stroke-width:1" />
  <path
     id="path5632"
     d="m 167.32386,670.65838 0.7,-95.5 0.8,-42.2 0.7,-10.8 0.7,-26.3 0.7,-10.9 0.7,-0.4 0.7,-29.9 0.7,4 0.7,-1 0.7,-7.4 0.7,1.2 0.7,-7.9 0.7,-8.6 0.8,-1.6 0.7,-9.6 0.7,-5.9 0.7,9.8 0.7,1.5 0.7,-7.2 0.7,-2.6 0.7,14.2 0.7,3 0.7,-21.5 0.7,-3.8 0.8,-6.3 0.7,2.8 0.7,-3.5 0.7,1.4 0.7,15.2 0.7,-13.3 0.7,7.1 0.7,-14 0.7,-2 0.7,4.7 0.7,-3.6 0.7,9.5 0.8,-6.2 0.7,-5.6 0.7,-4.4 0.7,2.7 0.7,4.4 0.7,7.3 0.7,0.2 0.7,0.3 0.7,-10.4 0.7,3.7 0.7,-7.4 0.7,9.7 0.8,8.8 0.7,-4.7 0.7,-5.9 0.7,-2.4 0.7,-5.1 0.7,3.3 0.7,6.7 0.7,3.1 0.7,-9.4 0.7,-17.2 0.7,35.4 0.8,-12.6 0.7,6.5 0.7,-23.5 0.7,10.9 0.7,4.9 0.7,8.8 0.7,-11.9 0.7,-4.2 0.7,10.3 0.7,-1 0.7,3.5 0.7,-11.8 0.8,1.4 0.7,7.1 0.7,-4 0.7,-2.2 0.7,-8.6 0.7,0.1 0.7,-0.2 0.7,10.3 0.7,-0.5 0.7,-6.6 0.7,-0.2 0.7,25.9 0.8,-8.9 0.7,-13.7 0.7,6.2 0.7,4.3 0.7,-4.1 0.7,-18 0.7,18.5 0.7,-0.4 0.7,6.6 0.7,-8 0.7,3.6 0.8,2.7 0.7,-4.2 0.7,-2.6 0.7,4.7 0.7,2.5 0.7,-9.3 0.7,-11.2 0.7,13.4 0.7,12 0.7,0.3 0.7,-18.4 0.7,-8.4 0.8,2 0.7,12.3 0.7,-9.2 0.7,17.1 0.7,-6 0.7,-4.7 0.7,2 0.7,15.9 0.7,-20.1 0.7,5.6 0.7,-16.7 0.7,11.1 0.8,9.5 0.7,-9.6 0.7,1.6 0.7,-5.6 0.7,1.1 0.7,6.8 0.7,3 0.7,-8.2 0.7,0.9 0.7,15.1 0.7,-14.9 0.8,13.5 0.7,-5.2 0.7,-6.1 0.7,-9.8 0.7,5.4 0.7,10.8 0.7,-2.1 0.7,-11.8 0.7,5.4 0.7,1 0.7,4.3 0.7,-0.4 0.8,6.5 0.7,-3.8 0.7,-0.4 0.7,-1.2 0.7,12.9 0.7,-16.7 0.7,-1.5 0.7,18.3 0.7,-8.3 0.7,-6.5 0.7,-5.6 0.7,7.2 0.8,13.3 0.7,-13.4 0.7,-15.6 0.7,-1.2 0.7,38.4 0.7,-12.7 0.7,-14.8 0.7,-0.3 0.7,12 0.7,-0.3 0.7,-16.8 0.8,7.7 0.7,-8.8 0.7,29.1 0.7,-12.5 0.7,-9.9 0.7,1.4 0.7,16.9 0.7,-21.4 0.7,3.6 0.7,-0.8 0.7,12.8 0.7,2.8 0.8,-5.1 0.7,-0.8 0.7,3.8 0.7,-14.7 0.7,11.6 0.7,3.5 0.7,-5.7 0.7,-7.9 0.7,8.9 0.7,-10 0.7,20.5 0.7,-11.5 0.8,-15.4 0.7,5.7 0.7,2.8 0.7,2.2 0.7,1.1 0.7,10.1 0.7,1 0.7,-19.4 0.7,17.4 0.7,8.2 0.7,-12.7 0.8,7 0.7,18.5 0.7,-24.7 0.7,-6.7 0.7,5.6 0.7,11.5 0.7,-13.8 0.7,-0.7 0.7,4.5 0.7,5.2 0.7,-2.3 0.7,-5.3 0.8,-4.2 0.7,18.5 0.7,-13.9 0.7,-0.6 0.7,-3.7 0.7,8.1 0.7,7.3 0.7,-14 0.7,7.1 0.7,-8.7 0.7,10.5 0.7,3.9 0.8,-0.6 0.7,1.3 0.7,-14.5 0.7,7.9 0.7,9.9 0.7,-14.1 0.7,11.7 0.7,-20.7 0.7,21.1 0.7,1.2 0.7,-6.8 0.8,-9.1 0.7,6.2 0.7,17.3 0.7,-12.4 0.7,-3.1 0.7,-7.3 0.7,8.4 0.7,-4.1 0.7,-7.9 0.7,5.7 0.7,0.9 0.7,-7.7 0.8,9 0.7,-1.2 0.7,1.3 0.7,1.3 0.7,-1.9 0.7,6.6 0.7,0.2 0.7,-6 0.7,4.4 0.7,6.6 0.7,-8.3 0.7,8.2 0.8,-15 0.7,11 0.7,2.3 0.7,-7.7 0.7,-4.7 0.7,9.6 0.7,-11.6 0.7,9.9 0.7,-0.2 0.7,-15.6 0.7,-0.6 0.8,6.5 0.7,-2.9 0.7,12.2 0.7,-10.7 0.7,-7.5 0.7,5.7 0.7,8.8 0.7,-6.2 0.7,15.7 0.7,-18.7 0.7,23.3 0.7,-4.6 0.8,-17.9 0.7,21.9 0.7,-14.8 0.7,-4.1 0.7,-1.9 0.7,12.9 0.7,-9.1 0.7,9.5 0.7,-1.2 0.7,-4 0.7,-6.3 0.7,4.1 0.8,4.3 0.7,0.1 0.7,-7.6 0.7,-2 0.7,5.9 0.7,-7.5 0.7,12.3 0.7,-7.5 0.7,-2.7 0.7,4.8 0.7,-0.1 0.7,-10.6 0.8,11.1 0.7,2 0.7,-2.6 0.7,-0.7 0.7,0.6 0.7,-4.8 0.7,13.8 0.7,-8.2 0.7,5.9 0.7,-15.8 0.7,10.7 0.8,-15.2 0.7,16.5 0.7,-5.5 0.7,-13.1 0.7,-1.8 0.7,22.7 0.7,-2.1 0.7,-13.9 0.7,9.9 0.7,-8.3 0.7,10.5 0.7,1.2 0.8,-7.3 0.7,5.4 0.7,-8.7 0.7,10.3 0.7,7.2 0.7,-10 0.7,19.1 0.7,-21.3 0.7,5.1 0.7,-19.5 0.7,13.4 0.7,13.2 0.8,-14.7 0.7,-3 0.7,-2.8 0.7,8.1 0.7,21.1 0.7,-16.8 0.7,5.4 0.7,-2.4 0.7,-18.5 0.7,8.1 0.7,7.7 0.8,-22.6 0.7,20.5 0.7,-15 0.7,7.8 0.7,7.3 0.7,-11.2 0.7,12 0.7,-8.5 0.7,18.5 0.7,-4 0.7,-0.3 0.7,-7 0.8,-10 0.7,-2.2 0.7,3.7 0.7,14.3 0.7,-3.9 0.7,-3.1 0.7,5.2 0.7,-9.7 0.7,-5.4 0.7,18.7 0.7,-17.8 0.7,10.2 0.8,11.8 0.7,-7.7 0.7,-5.6 0.7,0.5 0.7,-7.1 0.7,3.9 0.7,5.4 0.7,-7.7 0.7,-0.2 0.7,6.6 0.7,2.1 0.8,6.6 0.7,-20.3 0.7,2.1 0.7,1.4 0.7,5.3 0.7,-4.7 0.7,-0.5 0.7,7.4 0.7,-10.2 0.7,14.1 0.7,-5.8 0.7,-4.8 0.8,7 0.7,-9.1 0.7,16.8 0.7,-14.7 0.7,-7.8 0.7,14 0.7,4.8 0.7,-11.6 0.7,8.8 0.7,1.6 0.7,-9.5 0.7,-10 0.8,2.5 0.7,11.4 0.7,-22.2 0.7,43.2 0.7,-25.9 0.7,7.4 0.7,-8.2 0.7,1.4 0.7,-10.5 0.7,-0.6 0.7,3.5 0.8,17.7 0.7,-1 0.7,-12.2 0.7,7.9 0.7,-14 0.7,13.5 0.7,9.2 0.7,-4.7 0.7,-8 0.7,6.2 0.7,2.1 0.7,-10.4 0.8,1.2 0.7,0.5 0.7,-10.9 0.7,4 0.7,6.1 0.7,17.7 0.7,-19.3 0.7,0.2 0.7,0.5 0.7,-3 0.7,9.3 0.7,-20.4 0.8,14.4 0.7,6.1 0.7,5.9 0.7,-9.6 0.7,2.4 0.7,-1.6 0.7,-9.7 0.7,5.5 0.7,5.5 0.7,0.9 0.7,4.1 0.8,-11.1 0.7,0.1 0.7,6 0.7,3.7 0.7,3.7 0.7,-15.4 0.7,3.8 0.7,4.5 0.7,-5.4 0.7,-2.5 0.7,-8.5 0.7,21.4 0.8,-0.7 0.7,-16.9 0.7,12.6 0.7,-2.7 0.7,5.1 0.7,-1.8 0.7,-4.9 0.7,8.4 0.7,-3.7 0.7,-12.9 0.7,16.9 0.7,-15.2 0.8,-5.4 0.7,24 0.7,-8.4 0.7,1.2 0.7,-7.6 0.7,13.9 0.7,-9.5 0.7,-0.4 0.7,-2.3 0.7,0.2 0.7,-0.9 0.8,-15.8 0.7,10.3 0.7,14.3 0.7,-14.5 0.7,3.5 0.7,-1.7 0.7,3.4 0.7,-1.6 0.7,3.7 0.7,4.5 0.7,-13.7 0.7,6.9 0.8,3.7 0.7,-9.5 0.7,-10.6 0.7,16.7 0.7,6.8 0.7,-7.2 0.7,-2.9 0.7,8.7 0.7,-5 0.7,-2.4 0.7,-7 0.7,-1.2 0.8,14.6 0.7,-2.1 0.7,9.5 0.7,-14.8 0.7,11.7 0.7,-18.6 0.7,16.6 0.7,-18.4 0.7,15.7 0.7,-6.2 0.7,12.6 0.8,-7.1 0.7,3.8 0.7,-11.9 0.7,3.1 0.7,3.8 0.7,2.8 0.7,-11.1 0.7,27.3 0.7,-26.3 0.7,1.6 0.7,-3.3 0.7,3.6 0.8,9.7 0.7,-2.9 0.7,-3.2 0.7,-12.4 0.7,10.2 0.7,-3.5 0.7,5.3 0.7,-1.7 0.7,10.8 0.7,-16.7 0.7,16.8 0.7,-11.9 0.8,-11.7 0.7,-2.2 0.7,14.2 0.7,10.4 0.7,5.8 0.7,-14.3 0.7,-1 0.7,-7.3 0.7,6.3 0.7,12.9 0.7,-7.9 0.8,3.7 0.7,9.6 0.7,-13.1 0.7,-8.6 0.7,1.9 0.7,-4.7 0.7,12.7 0.7,-8.7 0.7,2.9 0.7,2.5 0.7,-6.9 0.7,-0.2 0.8,4.7 0.7,-6.6 0.7,3.4 0.7,6.4 0.7,-11 0.7,22.3 0.7,-9.3 0.7,-3.7 0.7,3.4 0.7,-10.9 0.7,-3 0.7,5.9 0.8,3.7 0.7,5.5 0.7,-11.8 0.7,4.2 0.7,5.3 0.7,-6.1 0.7,16.3 0.7,-14.3 0.7,-5.2 0.7,13.5 0.7,-3.5 0.8,-9.4 0.7,-2.5 0.7,19.3 0.7,3.4 0.7,-4.5 0.7,-12.5 0.7,3 0.7,4.4 0.7,-8.1 0.7,10 0.7,0.2 0.7,-23 0.8,17.6 0.7,-10.8 0.7,13.7 0.7,0.8 0.7,1 0.7,-5.1 0.7,6.1 0.7,-2 0.7,-7.6 0.7,-4.1 0.7,4.2 0.7,7.2 0.8,1.1 0.7,-13.1 0.7,27.1 0.7,-28.3 0.7,13.9 0.7,-10.6 0.7,19.4 0.7,-10.2 0.7,-21.3 0.7,10.4 0.7,5.4 0.7,-16 0.8,23.2 0.7,3.9 0.7,-9.9 0.7,7.8 0.7,-8.1 0.7,-2 0.7,4.5 0.7,-13.5 0.7,7.3 0.7,-3 0.7,9.8 0.8,-7.9 0.7,2 0.7,2.7 0.7,8.1 0.7,-12.4 0.7,6.8 0.7,9.5 0.7,-3.6 0.7,-14.9 0.7,-4.8 0.7,-0.7 0.7,15.6 0.8,-3.1 0.7,-0.2 0.7,-5.5 0.7,-1.9 0.7,9.8 0.7,3.7 0.7,-7 0.7,-9.1 0.7,12.3 0.7,-11.5 0.7,15.5 0.7,-7.5 0.8,3.1 0.7,-2.2 0.7,-9.9 0.7,10.1 0.7,8.3 0.7,-2 0.7,-1.5 0.7,-8.6 0.7,-6.8 0.7,7.5 0.7,-5.5 0.8,5.9 0.7,-7.9 0.7,15.7 0.7,1.1 0.7,-15.6 0.7,5.4 0.7,3.4 0.7,1.6 0.7,-2.6 0.7,-4.9 0.7,-9.4 0.7,23.4 0.8,-6 0.7,-6.6 0.7,-4.6 0.7,13.7 0.7,-9.1 0.7,-8.4 0.7,4.4 0.7,20.5 0.7,-14.3 0.7,-3.9 0.7,4.8 0.7,-4.8 0.8,4.9 0.7,7.5 0.7,-13.7 0.7,12 0.7,5.6 0.7,-10.3 0.7,13.8 0.7,-24.8 0.7,16.5 0.7,-21.1 0.7,12.5 0.8,0.8 0.7,5.6 0.7,14.3 0.7,-20.6 0.7,-9.7 0.7,11.4 0.7,-3.5 0.7,16.6 0.7,-2.3 0.7,2.9 0.7,-12.4 0.7,11.8 0.8,-10.3 0.7,14.4 0.7,-16.6 0.7,1.2 0.7,1.2 0.7,-1.9 0.7,4.8 0.7,-14.1 0.7,1.8 0.7,18.1 0.7,-12.2 0.7,-0.6 0.8,-2.5 0.7,3.1 0.7,0.8 0.7,6.6 0.7,-14.7 0.7,12.1 0.7,-2.6 0.7,-10.2 0.7,11.7 0.7,-2.8 0.7,-2.6 0.8,12.8 0.7,-1.7 0.7,-19.4 0.7,2.6 0.7,11 0.7,-0.8 0.7,-1.6 0.7,6.4 0.7,-2.5 0.7,-10.3 0.7,10.6 0.7,1.4 0.8,5.2 0.7,-7.1 0.7,4.1 0.7,-14.8 0.7,-9.1 0.7,9 0.7,-2.5 0.7,19.1 0.7,-13.7 0.7,14 0.7,-9.9 0.7,1.2 0.8,6.6 0.7,-19.3 0.7,9.8 0.7,1.4 0.7,11.6 0.7,-19.1 0.7,-5.8 0.7,18.4 0.7,-0.4 0.7,-6.2 0.7,-0.9 0.8,9.1 0.7,-20.4 0.7,21.3 0.7,-0.7 0.7,-12.9 0.7,19.2 0.7,-16.3 0.7,0.4 0.7,-0.7 0.7,-2.9 0.7,4.4 0.7,4.7 0.8,6.8 0.7,-7.2 0.7,-15.6 0.7,14.4 0.7,3.3 0.7,17.9 0.7,-26.5 0.7,-2 0.7,7.9 0.7,-10.2 0.7,11.3 0.7,-11 0.8,11.9 0.7,2.5 0.7,-9.9 0.7,13.7 0.7,-10.8 0.7,-2.3 0.7,0.9 0.7,8.2 0.7,-11 0.7,1.8 0.7,-3.6 0.8,20.2 0.7,-8.5 0.7,-7.8 0.7,-3.3 0.7,6.8 0.7,0.4 0.7,-8.7 0.7,7.6 0.7,-6 0.7,-1.4 0.7,-0.5 0.7,0.5 0.8,20.7 0.7,-15.6 0.7,6.4 0.7,18 0.7,-12.9 0.7,-11.3 0.7,-8.8 0.7,14.9 0.7,11.5 0.7,-10.6 0.7,-5.9 0.7,2.4 0.8,-4.6 0.7,-2.9 0.7,-1.1 0.7,5.3 0.7,-1.4 0.7,3.5 0.7,7.9 0.7,-1.2 0.7,-12.2 0.7,-0.6 0.7,-6 0.8,4.5 0.7,15.2 0.7,-22.4 0.7,9.9 0.7,10.5 0.7,-8.1 0.7,-6 0.7,-3.6 0.7,16.2 0.7,-1.5 0.7,-4.4 0.7,-4.5 0.8,4.7 0.7,-4.3 0.7,11.8 0.7,-1.4 0.7,-7.9 0.7,0.9 0.7,-5.9 0.7,-3.6 0.7,17.1 0.7,2.4 0.7,-18.2 0.7,17.3 0.8,-3.6 0.7,7.5 0.7,-14.5 0.7,2.6 0.7,7.3 0.7,-0.2 0.7,-14.3 0.7,23 0.7,-27.3 0.7,4 0.7,7.4 0.8,-5.7 0.7,4.2 0.7,16.3 0.7,-9.2 0.7,-16.1 0.7,4 0.7,-0.2 0.7,7 0.7,-3.4 0.7,8.2 0.7,-4.7 0.7,1.1 0.8,-0.4 0.7,4.2 0.7,-0.1 0.7,-1.4 0.7,-22.2 0.7,20.9 0.7,6.3 0.7,1.6 0.7,0.2 0.7,-9.7 0.7,1.7 0.7,-11.2 0.8,5.9 0.7,2.7 0.7,-2.9 0.7,-6.7 0.7,3.5 0.7,-9.3 0.7,15.7 0.7,-6.5 0.7,-2.8 0.7,12.6 0.7,-2.2 0.8,5.5 0.7,-11 0.7,3.6 0.7,-7.4 0.7,17.1 0.7,-9.7 0.7,-4.2 0.7,17.2 0.7,-6.4 0.7,-7.3 0.7,8.8 0.7,-8.8 0.8,-8.2 0.7,-6.2 0.7,5.2 0.7,11.9 0.7,13.1 0.7,-13 0.7,9.5 0.7,-1.8 0.7,-0.9 0.7,-3.7 0.7,-9 0.7,0.4 0.8,7.5 0.7,-10.8 0.7,-1.4 0.7,12.5 0.7,-6.1 0.7,-1.7 0.7,17.2 0.7,-7.1 0.7,-13 0.7,15.6 0.7,-8.9 0.7,-3.8 0.8,-2.3 0.7,4.3 0.7,0.7 0.7,1.4 0.7,5.2 0.7,-10.6 0.7,4.1 0.7,5.1 0.7,-9.2 0.7,13.1 0.7,-22 0.8,10.4 0.7,14.9 0.7,-3.2 0.7,-1 0.7,-0.4 0.7,-3.3 0.7,13.6 0.7,-21.4 0.7,12.5 0.7,-10.8 0.7,-3.2 0.7,15.6 0.8,-7.2 0.7,12.3 0.7,-9.7 0.7,4 0.7,0.3 0.7,-9.3 0.7,-1 0.7,0.8 0.7,-1.3 0.7,11.5 0.7,-12.7 0.7,10.1 0.8,-5.9 0.7,3.2 0.7,8 0.7,-13.3"
     inkscape:connector-curvature="0"
     style="fill:none;stroke:#ff0000;stroke-width:2.5;stroke-miterlimit:4;stroke-dasharray:none" />
  <path
     id="path5640"
     d="m 167.32386,711.45838 0.7,-58.4 0.8,-37.2 0.7,-18.3 0.7,-14.7 0.7,-17.7 0.7,-12.9 0.7,-9.2 0.7,-1.5 0.7,-8 0.7,3.9 0.7,-2.7 0.7,-4.4 0.7,-11.5 0.8,-5.5 0.7,-13.1 0.7,-1 0.7,2.3 0.7,-1.7 0.7,-2.3 0.7,3.3 0.7,6.8 0.7,-10.4 0.7,3.4 0.7,-17.4 0.8,3.2 0.7,10.6 0.7,-16.2 0.7,0.1 0.7,16.1 0.7,-18.9 0.7,5.8 0.7,-3.9 0.7,-9.1 0.7,-4.8 0.7,0.5 0.7,6.4 0.8,7.2 0.7,-12.5 0.7,-2 0.7,1.7 0.7,9.8 0.7,-3 0.7,1.4 0.7,3.8 0.7,-9.1 0.7,2.5 0.7,-8.7 0.7,2.1 0.8,0.5 0.7,14.6 0.7,-15.4 0.7,-8.4 0.7,4.9 0.7,20.6 0.7,-19 0.7,15.7 0.7,-14.8 0.7,-20 0.7,31.8 0.8,-8.5 0.7,-0.6 0.7,-14.1 0.7,7.1 0.7,1.8 0.7,-2.2 0.7,-5.1 0.7,10.6 0.7,2.1 0.7,0.2 0.7,-3.4 0.7,-13.2 0.8,7 0.7,-8.8 0.7,3.3 0.7,9.8 0.7,0.1 0.7,-3.9 0.7,-6.3 0.7,13.1 0.7,-4.8 0.7,-13.3 0.7,5 0.7,19.6 0.8,-5.3 0.7,-21.7 0.7,20 0.7,-17.3 0.7,13.4 0.7,-6.3 0.7,2.7 0.7,-3.5 0.7,10.5 0.7,-2.9 0.7,-3 0.8,3.3 0.7,1.1 0.7,-7.7 0.7,1.9 0.7,1.1 0.7,-5.4 0.7,2.8 0.7,-1.3 0.7,11.1 0.7,5.9 0.7,-25.6 0.7,-0.5 0.8,3.1 0.7,-3.8 0.7,8.5 0.7,6.4 0.7,-3 0.7,5.4 0.7,-9.6 0.7,10.1 0.7,-16.6 0.7,15.8 0.7,-6.4 0.7,-6 0.8,5.9 0.7,-2.2 0.7,-3.9 0.7,5.8 0.7,-12.3 0.7,13.7 0.7,-5.6 0.7,-3.6 0.7,4.7 0.7,17.9 0.7,-24.8 0.8,8 0.7,5.1 0.7,-2.3 0.7,-6.9 0.7,-3.8 0.7,7 0.7,13.2 0.7,-13.7 0.7,2.5 0.7,-2.3 0.7,-4.2 0.7,5.9 0.8,8.9 0.7,-16.1 0.7,2.4 0.7,2.5 0.7,5.5 0.7,-4.6 0.7,5.9 0.7,1 0.7,-2.5 0.7,-3.6 0.7,-1.5 0.7,9.1 0.8,-5.8 0.7,6.8 0.7,-18.4 0.7,2.6 0.7,18.2 0.7,-6.6 0.7,-8.9 0.7,2 0.7,-4.1 0.7,10.1 0.7,-10.5 0.8,10.7 0.7,-1.9 0.7,3.4 0.7,-3.3 0.7,-2.2 0.7,1.6 0.7,5.7 0.7,-23.8 0.7,5.3 0.7,6.6 0.7,0.6 0.7,-1.2 0.8,3.4 0.7,4.2 0.7,0.6 0.7,-0.5 0.7,2.7 0.7,-1.2 0.7,-12.1 0.7,-1 0.7,17.2 0.7,-12.5 0.7,5.1 0.7,-9.9 0.8,3.4 0.7,8 0.7,-5.6 0.7,3 0.7,-6.1 0.7,8.4 0.7,5.1 0.7,-15.8 0.7,20 0.7,0.4 0.7,-10.5 0.8,10.1 0.7,-0.8 0.7,-13.5 0.7,0.5 0.7,3.1 0.7,0.6 0.7,0.9 0.7,2.3 0.7,-5 0.7,2.6 0.7,7.8 0.7,-17.6 0.8,11.7 0.7,-4.3 0.7,-1.4 0.7,1.5 0.7,3.9 0.7,-4.3 0.7,18.8 0.7,-22.7 0.7,2.5 0.7,7 0.7,-3.5 0.7,2.3 0.8,-3.9 0.7,18 0.7,-28.4 0.7,18 0.7,-3.1 0.7,-10.9 0.7,11.8 0.7,-8.5 0.7,5.2 0.7,2.5 0.7,6.6 0.8,-18.2 0.7,16.6 0.7,0.3 0.7,-7.5 0.7,4.4 0.7,-5.5 0.7,-0.8 0.7,8.7 0.7,-16.5 0.7,3.7 0.7,-1.1 0.7,3.3 0.8,-2.6 0.7,14.9 0.7,-9.2 0.7,-2.1 0.7,0.7 0.7,2.4 0.7,-3.4 0.7,10 0.7,-22.4 0.7,15.5 0.7,-1.5 0.7,1.9 0.8,-3.7 0.7,-3 0.7,-4.1 0.7,8.4 0.7,0.6 0.7,4.8 0.7,-20.7 0.7,12.6 0.7,-1.6 0.7,-8.1 0.7,13.2 0.8,-5.7 0.7,-1.1 0.7,5.4 0.7,-11.5 h 0.7 l 0.7,-2.9 0.7,5.9 0.7,-9.2 0.7,27.5 0.7,-30.4 0.7,25 0.7,-6 0.8,-7.3 0.7,8.1 0.7,-12.3 0.7,7 0.7,-4.7 0.7,4.2 0.7,5.5 0.7,-6.8 0.7,8.5 0.7,-6.3 0.7,-3.1 0.7,2.6 0.8,7.4 0.7,0.5 0.7,-9.1 0.7,0.2 0.7,0.5 0.7,-8.4 0.7,18.3 0.7,-8.5 0.7,-2.8 0.7,2.9 0.7,1.3 0.7,-6.1 0.8,2.3 0.7,-3.5 0.7,-0.8 0.7,3 0.7,-15.3 0.7,17.5 0.7,5.4 0.7,-6.2 0.7,-0.2 0.7,-8.3 0.7,13.4 0.8,-12.5 0.7,15 0.7,-11 0.7,-5.2 0.7,2.9 0.7,8.6 0.7,-9.9 0.7,9.7 0.7,-4 0.7,-2.2 0.7,8.1 0.7,8.1 0.8,-11.1 0.7,-7.1 0.7,3.7 0.7,3.8 0.7,12.9 0.7,-2.9 0.7,-2.7 0.7,-5.7 0.7,-2.7 0.7,-13.3 0.7,10.5 0.7,5.3 0.8,-3 0.7,-3.4 0.7,5 0.7,-1.6 0.7,12.4 0.7,-6.3 0.7,-2.8 0.7,-0.4 0.7,-12.1 0.7,9.2 0.7,3.9 0.8,-15.2 0.7,12.3 0.7,-8.1 0.7,2.7 0.7,2 0.7,-1.7 0.7,5.7 0.7,-8.3 0.7,13 0.7,-9.2 0.7,3.8 0.7,3.5 0.8,-9.6 0.7,-8 0.7,6.2 0.7,1.6 0.7,8.7 0.7,-9.4 0.7,-0.9 0.7,2.8 0.7,-2.3 0.7,15.3 0.7,-19.9 0.7,6.7 0.8,23.5 0.7,-21.1 0.7,-2.5 0.7,9.6 0.7,-14.4 0.7,4.4 0.7,7.6 0.7,-8.3 0.7,-8.5 0.7,14.5 0.7,-0.7 0.8,10.8 0.7,-5.4 0.7,-15.1 0.7,18.4 0.7,-11.2 0.7,-2.8 0.7,-8.4 0.7,15.5 0.7,-11.1 0.7,6.7 0.7,1.7 0.7,-6.8 0.8,4.3 0.7,2.6 0.7,9.5 0.7,-11.8 0.7,-8 0.7,5.2 0.7,3.6 0.7,-2.7 0.7,11.4 0.7,-13.7 0.7,7.1 0.7,-18.7 0.8,9.3 0.7,2.2 0.7,-9.8 0.7,32.2 0.7,-20.8 0.7,9.7 0.7,-26.6 0.7,13.6 0.7,-14.5 0.7,13.9 0.7,-9.6 0.8,24 0.7,-9.6 0.7,0.2 0.7,8.2 0.7,-21.5 0.7,5.5 0.7,12.1 0.7,3.3 0.7,-24.1 0.7,25 0.7,-5.2 0.7,-12.4 0.8,0.4 0.7,6.1 0.7,-3 0.7,2.8 0.7,0.3 0.7,7.1 0.7,-10.7 0.7,5.3 0.7,-2.5 0.7,2.4 0.7,-1.9 0.7,-9.8 0.8,-0.7 0.7,10.3 0.7,2.6 0.7,0.3 0.7,-7.7 0.7,4.4 0.7,-7.5 0.7,4.5 0.7,7 0.7,9.6 0.7,-5.4 0.8,-24.8 0.7,12.7 0.7,11.7 0.7,2.8 0.7,-9.2 0.7,-7 0.7,4.7 0.7,6.9 0.7,-2.3 0.7,-3.2 0.7,-10.8 0.7,12.7 0.8,-5.6 0.7,0.9 0.7,4.8 0.7,4.4 0.7,-4.1 0.7,-0.7 0.7,0.8 0.7,2.1 0.7,-5.7 0.7,-6 0.7,12.4 0.7,-11 0.8,-3.4 0.7,4.1 0.7,4.3 0.7,2.9 0.7,-9.3 0.7,9.9 0.7,-12.6 0.7,15.9 0.7,-4.8 0.7,-8.2 0.7,10.6 0.8,-15.6 0.7,3 0.7,7.8 0.7,-3.4 0.7,4.1 0.7,-8.2 0.7,5 0.7,-10.1 0.7,6.1 0.7,12 0.7,-11.8 0.7,-4.6 0.8,-4.8 0.7,7.4 0.7,-11.4 0.7,12.1 0.7,-0.4 0.7,13.8 0.7,-11.7 0.7,1.7 0.7,5.5 0.7,-9 0.7,-1.3 0.7,-4.5 0.8,10.1 0.7,2.3 0.7,5.2 0.7,-13.4 0.7,10.3 0.7,-7.9 0.7,0.4 0.7,-1.6 0.7,7.6 0.7,-4.4 0.7,7.8 0.8,7 0.7,-16 0.7,-9.3 0.7,13.1 0.7,-5.7 0.7,9.6 0.7,-14 0.7,20.3 0.7,-15.6 0.7,-8.8 0.7,8.2 0.7,-1.7 0.8,16.5 0.7,-13.9 0.7,6.4 0.7,-16.4 0.7,6.8 0.7,0.9 h 0.7 l 0.7,1.6 0.7,9.9 0.7,-12.7 0.7,13.8 0.7,-5.9 0.8,-12 0.7,-0.1 0.7,-0.6 0.7,17 0.7,3.5 0.7,-19.9 0.7,10.5 0.7,-2.6 0.7,1.5 0.7,-5.6 0.7,13.6 0.8,-1.6 0.7,8.9 0.7,-11.9 0.7,-7.9 0.7,-0.1 0.7,5.4 0.7,-9.9 0.7,9.7 0.7,-4.7 0.7,7.7 0.7,-2.3 0.7,-4.9 0.8,3.8 0.7,-5 0.7,0.6 0.7,3.7 0.7,-1.2 0.7,8.1 0.7,-14 0.7,17.9 0.7,-11.2 0.7,-1.8 0.7,-7.2 0.7,6.4 0.8,-5.2 0.7,12.3 0.7,-5.3 0.7,6.9 0.7,1.7 0.7,-9.6 0.7,15.6 0.7,-12 0.7,-8.5 0.7,11.7 0.7,-9.3 0.8,6.5 0.7,-13.2 0.7,20.1 0.7,5.2 0.7,-8.9 0.7,-10.1 0.7,11.6 0.7,4.2 0.7,-14 0.7,8.6 0.7,-6.2 0.7,-3.3 0.8,-1.8 0.7,-2.4 0.7,6.4 0.7,10.3 0.7,1.3 0.7,-10.3 0.7,-3.4 0.7,-1.3 0.7,-3.7 0.7,3.2 0.7,3.4 0.7,8.2 0.8,-1.3 0.7,-11.2 0.7,17.8 0.7,-17.6 0.7,-1.1 0.7,15.4 0.7,-8.4 0.7,5.6 0.7,-14.4 0.7,-1.5 0.7,8 0.7,1 0.8,-5 0.7,4.4 0.7,3.1 0.7,3.1 0.7,-2.2 0.7,0.4 0.7,3 0.7,-12.3 0.7,8.2 0.7,-1.3 0.7,5.1 0.8,-19.2 0.7,22.3 0.7,-3 0.7,4.7 0.7,-15.4 0.7,6.3 0.7,3.5 0.7,-3 0.7,-9.3 0.7,2 0.7,-0.7 0.7,7.5 0.8,6.8 0.7,-12.3 0.7,-3.2 0.7,5.3 0.7,-6.9 0.7,7.9 0.7,-2.6 0.7,-3.8 0.7,2.8 0.7,-8.5 0.7,20.3 0.7,-9.4 0.8,7.4 0.7,-4 0.7,-4.2 0.7,-0.3 0.7,14.3 0.7,-14.9 0.7,5.9 0.7,-4.5 0.7,-0.4 0.7,7.9 0.7,-7 0.8,-5.4 0.7,0.9 0.7,16.5 0.7,-4.9 0.7,-7.2 0.7,9.6 0.7,-9.3 0.7,5.5 0.7,-0.2 0.7,-3.4 0.7,-6.4 0.7,16.2 0.8,-8.1 0.7,-4.1 0.7,-4.2 0.7,7 0.7,-6.1 0.7,2.1 0.7,1.8 0.7,12 0.7,-9.6 0.7,-5.4 0.7,-1.3 0.7,4.8 0.8,-2.1 0.7,6 0.7,-7.8 0.7,2.8 0.7,16.9 0.7,-17 0.7,4 0.7,-9.6 0.7,7.8 0.7,-0.6 0.7,2.5 0.8,3.7 0.7,-5 0.7,14.8 0.7,-17.2 0.7,6 0.7,4.6 0.7,-6.4 0.7,8.6 0.7,4.8 0.7,-14.2 0.7,-2.8 0.7,17.1 0.8,-15.4 0.7,11.8 0.7,-17.2 0.7,4.1 0.7,7.3 0.7,-5.8 0.7,-3.1 0.7,1.5 0.7,-8.5 0.7,11.3 0.7,-17.3 0.7,11.7 0.8,3.7 0.7,2 0.7,-8.4 0.7,13.1 0.7,-16.7 0.7,3.9 0.7,9.1 0.7,-16.8 0.7,20 0.7,-10.7 0.7,8.4 0.8,-0.4 0.7,3.4 0.7,-10.4 0.7,-1 0.7,1.7 0.7,-9.3 0.7,7.2 0.7,10.4 0.7,-10 0.7,-3.1 0.7,4 0.7,2 0.8,12.8 0.7,-11.4 0.7,-1.7 0.7,0.2 0.7,-5 0.7,0.5 0.7,3.6 0.7,3 0.7,-3.9 0.7,10 0.7,-4.8 0.7,-0.8 0.8,7 0.7,-15.2 0.7,8.8 0.7,-1.6 0.7,11.6 0.7,-14.7 0.7,-3.9 0.7,2.6 0.7,9 0.7,-6.4 0.7,2.1 0.8,10.1 0.7,-15.9 0.7,12.4 0.7,-1.1 0.7,-3.7 0.7,2.5 0.7,-11.2 0.7,-3.7 0.7,4.6 0.7,-3.7 0.7,14.9 0.7,0.2 0.8,-9.9 0.7,3.9 0.7,-11.3 0.7,11 0.7,2.1 0.7,9.8 0.7,-12.1 0.7,3.4 0.7,-3.6 0.7,-14 0.7,18.1 0.7,-10.9 0.8,14.7 0.7,-9.4 0.7,-12 0.7,15 0.7,-2.7 0.7,5.4 0.7,-16.5 0.7,18.4 0.7,-0.5 0.7,-11.4 0.7,-0.4 0.8,9.1 0.7,-12.6 0.7,1.4 0.7,-4.7 0.7,8.4 0.7,7.2 0.7,-10.9 0.7,5.9 0.7,-1.7 0.7,-9 0.7,13.3 0.7,-8.4 0.8,19.1 0.7,-10.6 0.7,0.1 0.7,15.7 0.7,-13 0.7,-8.9 0.7,-9.4 0.7,7.5 0.7,13 0.7,6.2 0.7,-19 0.7,1.7 0.8,8.3 0.7,-4.9 0.7,-4.4 0.7,4.3 0.7,-4.3 0.7,5 0.7,6.9 0.7,-5.8 0.7,7 0.7,-12.4 0.7,-1.8 0.8,11.8 0.7,3.7 0.7,-4.3 0.7,-3.2 0.7,9.1 0.7,-9.8 0.7,0.6 0.7,-4.7 0.7,6.7 0.7,4.8 0.7,-3.5 0.7,-9.7 0.8,13 0.7,-7.2 0.7,0.3 0.7,7.9 0.7,-3.1 0.7,-6 0.7,-1.5 0.7,0.1 0.7,15.4 0.7,-2.3 0.7,-19.3 0.7,13.8 0.8,-1.8 0.7,1.7 0.7,-12.5 0.7,13.8 0.7,0.9 0.7,-5.6 0.7,-6.5 0.7,4.9 0.7,-5 0.7,-4.5 0.7,12.7 0.8,-2.1 0.7,-3.5 0.7,6.1 0.7,1.4 0.7,-12.2 0.7,7 0.7,4.1 0.7,12.8 0.7,-14.1 0.7,1.8 0.7,-5.5 0.7,-6.3 0.8,1.9 0.7,6.2 0.7,5 0.7,-1.6 0.7,-9.3 h 0.7 l 0.7,4.2 0.7,10.1 0.7,-12.1 0.7,-1.8 0.7,9.6 0.7,-6.3 0.8,-5.8 0.7,9 0.7,-6.2 0.7,-4.5 0.7,4.4 0.7,3.4 0.7,-2 0.7,-4.3 0.7,-6.1 0.7,5.2 0.7,-2.4 0.8,16.5 0.7,-8.8 0.7,8.6 0.7,-4.3 0.7,6.2 0.7,-6.9 0.7,-12.2 0.7,19.5 0.7,-2.3 0.7,-1.7 0.7,-5.3 0.7,-7.3 0.8,5.5 0.7,-14.5 0.7,13.6 0.7,-1.9 0.7,15.9 0.7,-14.6 0.7,8.5 0.7,4.5 0.7,-7.5 0.7,0.6 0.7,1.1 0.7,-0.3 0.8,-4.7 0.7,1.1 0.7,3.6 0.7,-1.6 0.7,-11.1 0.7,1.8 0.7,17.4 0.7,2.1 0.7,-19.6 0.7,9 0.7,9.3 0.7,-17.6 0.8,-2.7 0.7,11.7 0.7,0.7 0.7,-3.8 0.7,4.9 0.7,-1.4 0.7,-4.3 0.7,-4.2 0.7,-3 0.7,11.4 0.7,-3.6 0.8,-0.9 0.7,10.6 0.7,-6.2 0.7,2.5 0.7,-3.8 0.7,0.6 0.7,7.9 0.7,-15.2 0.7,13.8 0.7,-12.4 0.7,1.4 0.7,4.1 0.8,7.4 0.7,6.2 0.7,-11.7 0.7,2.4 0.7,-0.8 0.7,-0.3 0.7,-13.4 0.7,8.2 0.7,2.8 0.7,3.9 0.7,-2.6 0.7,-0.4 0.8,9.8 0.7,-14.7 0.7,11.5 0.7,-7.8"
     inkscape:connector-curvature="0"
     style="fill:none;stroke:#0000ff;stroke-width:2.5;stroke-miterlimit:4;stroke-dasharray:none" />
  <path
     id="path5642"
     d=""
     inkscape:connector-curvature="0"
     style="fill:none;stroke:#800080;stroke-width:1" />
  <path
     id="path5644"
     d=""
     inkscape:connector-curvature="0"
     style="fill:none;stroke:#800080;stroke-width:1" />
</svg>
