<?xml version="1.0" encoding="ISO-8859-1" standalone="yes"?>
<svg width="493.996" height="153.293">
  <defs> 
    <marker id="ArrowEnd" viewBox="0 0 10 10" refX="0" refY="5" 
     markerUnits="strokeWidth" 
     markerWidth="4" 
     markerHeight="3" 
     orient="auto"> 
        <path d="M 0 0 L 10 5 L 0 10 z" /> 
    </marker>
    <marker id="ArrowStart" viewBox="0 0 10 10" refX="10" refY="5" 
     markerUnits="strokeWidth" 
     markerWidth="4" 
     markerHeight="3" 
     orient="auto"> 
        <path d="M 10 0 L 0 5 L 10 10 z" /> 
    </marker> </defs>
<g>
<path style="stroke:#000000; stroke-width:2.36294; fill:none" d="M 140.249 32.488L 140.249 124.324"/>
<path style="stroke:#000000; stroke-width:2.36294; fill:none" d="M 138.676 38.789L 140.249 32.488L 141.824 38.789"/>
<path style="stroke:#000000; stroke-width:2.36294; fill:none" d="M 141.829 118.023L 140.253 124.324L 138.68 118.023"/>
<path style="stroke:#000000; stroke-width:2.36294; fill:none" d="M 155.559 32.488L 209.129 78.406"/>
<path style="stroke:#000000; stroke-width:2.36294; fill:none" d="M 159.316 37.785L 155.559 32.492L 161.368 35.394"/>
<path style="stroke:#000000; stroke-width:2.36294; fill:none" d="M 205.371 73.109L 209.129 78.402L 203.32 75.5"/>
<path style="stroke:#000000; stroke-width:2.36294; fill:none" d="M 209.129 86.058L 155.559 124.324"/>
<path style="stroke:#000000; stroke-width:2.36294; fill:none" d="M 203.086 88.441L 209.129 86.062L 204.918 91.004"/>
<path style="stroke:#000000; stroke-width:2.36294; fill:none" d="M 161.598 121.945L 155.555 124.324L 159.766 119.383"/>
<path style="stroke:none; fill-rule:evenodd; fill:#000000" d="M 221.77 78.273C 225.402 78.25 226.316 78.168 227.5 77.687C 229.68 76.859 230.863 75.23 230.863 73.172C 230.863 70.074 228.316 68.308 223.832 68.308L 215.195 68.308L 215.195 69.008C 217.086 69.168 217.465 69.594 217.465 71.461L 217.465 83.25C 217.465 84.902 217.113 85.433 215.844 85.598C 215.766 85.598 215.492 85.648 215.195 85.703L 215.195 86.402L 224.137 86.402L 224.137 85.703C 222.008 85.437 221.766 85.195 221.766 83.246L 221.77 78.273zM 221.77 70.144C 221.77 69.527 222.23 69.207 223.121 69.207C 225.371 69.207 226.266 70.391 226.266 73.293C 226.266 74.984 225.941 76.008 225.238 76.625C 224.59 77.16 223.695 77.348 221.77 77.348L 221.77 70.144z"/>
<path style="stroke:none; fill-rule:evenodd; fill:#000000" d="M 237.004 74.105L 231.945 74.105L 231.945 74.703C 233.078 74.863 233.367 75.215 233.367 76.289L 233.367 84.187C 233.367 85.289 233.105 85.582 231.945 85.797L 231.945 86.394L 239.066 86.394L 239.066 85.797C 237.395 85.691 237.066 85.34 237.066 83.668L 237.066 78.578C 237.066 77.18 237.82 76.019 238.711 76.019C 238.926 76.019 239.168 76.207 239.465 76.637C 239.977 77.363 240.383 77.605 241.082 77.605C 242.078 77.605 242.781 76.851 242.781 75.801C 242.781 74.59 241.871 73.699 240.613 73.699C 239.277 73.699 238.258 74.43 237 76.25L 237.004 74.105z"/>
<path style="stroke:none; fill-rule:evenodd; fill:#000000" d="M 248.668 74.105L 243.496 74.105L 243.496 74.703C 244.715 74.945 244.965 75.187 244.965 76.289L 244.965 84.187C 244.965 85.289 244.773 85.5 243.496 85.797L 243.496 86.394L 249.895 86.394L 249.895 85.797C 248.98 85.664 248.668 85.289 248.668 84.273L 248.668 74.105zM 246.781 67.906C 245.617 67.906 244.672 68.851 244.672 69.992C 244.672 71.211 245.562 72.101 246.758 72.101C 247.949 72.101 248.871 71.211 248.871 70.015C 248.871 68.851 247.953 67.902 246.785 67.902L 246.781 67.906z"/>
<path style="stroke:none; fill-rule:evenodd; fill:#000000" d="M 256.168 74.105L 251.031 74.105L 251.031 74.703C 252.223 74.891 252.465 75.16 252.465 76.289L 252.465 84.187C 252.465 85.316 252.25 85.555 251.031 85.797L 251.031 86.394L 257.484 86.394L 257.484 85.797C 256.492 85.664 256.168 85.262 256.168 84.262L 256.168 77.066C 256.168 76.961 256.355 76.691 256.621 76.449C 257.211 75.832 257.852 75.508 258.469 75.508C 259.406 75.508 259.863 76.234 259.863 77.742L 259.863 84.265C 259.863 85.262 259.516 85.691 258.605 85.801L 258.605 86.398L 264.898 86.398L 264.898 85.801C 263.84 85.723 263.566 85.398 263.566 84.265L 263.566 77.504C 263.566 75.187 262.156 73.703 259.973 73.703C 258.379 73.703 257.152 74.461 256.168 76.062L 256.168 74.105z"/>
<path style="stroke:none; fill-rule:evenodd; fill:#000000" d="M 276.398 83.484C 275.402 84.621 274.703 85 273.598 85C 271.254 85 269.773 82.652 269.773 78.984C 269.773 76.207 270.633 74.504 272.035 74.504C 272.465 74.504 272.871 74.719 273.031 75.019C 273.164 75.262 273.164 75.262 273.164 76.406C 273.188 77.738 273.676 78.363 274.672 78.363C 275.801 78.363 276.504 77.719 276.504 76.668C 276.504 74.996 274.715 73.703 272.367 73.703C 268.738 73.703 266.066 76.555 266.066 80.426C 266.066 84.137 268.469 86.801 271.777 86.801C 273.832 86.801 275.328 85.965 276.879 83.969L 276.398 83.484z"/>
<path style="stroke:none; fill-rule:evenodd; fill:#000000" d="M 282.867 74.105L 277.695 74.105L 277.695 74.703C 278.914 74.945 279.164 75.187 279.164 76.289L 279.164 84.187C 279.164 85.289 278.973 85.5 277.695 85.797L 277.695 86.394L 284.094 86.394L 284.094 85.797C 283.18 85.664 282.867 85.289 282.867 84.273L 282.867 74.105zM 280.98 67.906C 279.816 67.906 278.871 68.851 278.871 69.992C 278.871 71.211 279.762 72.101 280.957 72.101C 282.148 72.101 283.07 71.211 283.07 70.015C 283.07 68.851 282.152 67.902 280.984 67.902L 280.98 67.906z"/>
<path style="stroke:none; fill-rule:evenodd; fill:#000000" d="M 290.371 74.105L 285.234 74.105L 285.234 74.703C 286.402 74.891 286.672 75.16 286.672 76.289L 286.672 89.742C 286.672 90.84 286.461 91.082 285.184 91.297L 285.184 91.894L 292.492 91.894L 292.492 91.297C 290.836 91.219 290.375 90.687 290.375 88.898L 290.375 85.141C 291.676 86.359 292.379 86.695 293.57 86.695C 296.602 86.695 298.77 83.914 298.77 79.957C 298.77 76.242 296.754 73.699 293.766 73.699C 292.18 73.699 291.211 74.324 290.375 75.898L 290.371 74.105zM 290.367 77.078C 290.367 76.894 290.609 76.465 290.934 76.117C 291.477 75.531 292.102 75.207 292.695 75.207C 294.105 75.207 294.758 76.808 294.758 80.312C 294.758 83.625 294 85.203 292.449 85.203C 291.555 85.203 290.766 84.59 290.359 83.574L 290.367 77.078z"/>
<path style="stroke:none; fill-rule:evenodd; fill:#000000" d="M 305.066 68.305L 299.996 68.305L 299.996 68.902C 300.934 68.984 301.363 69.469 301.363 70.465L 301.363 84.183C 301.363 85.176 300.91 85.715 299.996 85.797L 299.996 86.394L 306.395 86.394L 306.395 85.797C 305.5 85.773 305.066 85.262 305.066 84.187L 305.066 68.305z"/>
<path style="stroke:none; fill-rule:evenodd; fill:#000000" d="M 317.832 83.058C 316.762 84.41 315.934 84.906 314.781 84.906C 313.738 84.906 312.961 84.418 312.398 83.465C 311.918 82.594 311.703 81.695 311.598 79.812L 318.344 79.812C 318.184 77.566 317.785 76.308 316.926 75.293C 316.043 74.25 314.812 73.715 313.34 73.715C 309.996 73.715 307.746 76.375 307.746 80.305C 307.746 84.23 309.941 86.812 313.262 86.812C 315.43 86.812 316.742 85.953 318.48 83.445L 317.832 83.058zM 311.461 78.805C 311.539 75.582 312.023 74.504 313.336 74.504C 314.086 74.504 314.594 74.933 314.809 75.765C 314.941 76.273 314.996 77.027 315.047 78.398L 315.047 78.801L 311.461 78.805z"/>
<path style="stroke:none; fill-rule:evenodd; fill:#000000" d="M 328.074 77.676L 328.074 73.762L 327.484 73.762C 327.324 74.164 327.164 74.301 326.84 74.301C 326.68 74.301 326.41 74.25 325.984 74.113C 325.102 73.816 324.48 73.711 323.891 73.711C 321.449 73.711 319.676 75.367 319.676 77.609C 319.676 79.371 320.777 80.598 323.492 81.746C 325.32 82.547 326.07 83.215 326.07 84.066C 326.07 85.105 325.27 85.801 324.062 85.801C 322.188 85.801 320.957 84.621 320.395 82.332L 319.645 82.332L 319.645 86.699L 320.312 86.699C 320.605 86.137 320.766 85.949 321.008 85.949C 321.141 85.949 321.355 86 321.625 86.109C 322.348 86.43 323.773 86.695 324.523 86.695C 326.965 86.695 328.66 85.047 328.66 82.644C 328.66 80.754 327.613 79.609 324.945 78.488C 323.117 77.719 322.363 77.051 322.363 76.144C 322.363 75.265 323.113 74.598 324.129 74.598C 324.824 74.598 325.547 74.891 326.137 75.457C 326.699 75.992 326.992 76.476 327.395 77.664L 328.074 77.676z"/>
<path style="stroke:none; fill-rule:evenodd; fill:#000000" d="M 330.895 91.226C 334.02 89.426 335.363 87.648 335.363 85.332C 335.363 83.476 334.262 82.211 332.645 82.211C 331.301 82.211 330.41 83.109 330.41 84.476C 330.41 85.73 331.223 86.605 332.395 86.605C 332.527 86.605 332.691 86.605 332.855 86.605C 332.934 86.508 332.988 86.508 333.043 86.508C 333.34 86.508 333.559 86.746 333.559 87.098C 333.559 88.113 332.633 89.242 330.594 90.633L 330.895 91.226z"/>
<path style="stroke:none; fill-rule:evenodd; fill:#000000" d="M 360.359 82.336C 358.773 83.984 357.914 84.621 356.598 85.129C 355.82 85.445 354.934 85.605 354.18 85.605C 352.406 85.605 350.711 84.672 349.934 83.285C 349.156 81.871 348.781 79.949 348.781 77.277C 348.781 71.75 350.5 68.812 353.727 68.812C 354.988 68.812 356.145 69.289 357.301 70.305C 358.453 71.344 359.074 72.223 360.016 74.25L 360.688 74.25L 360.688 67.992L 359.961 67.992C 359.586 68.926 359.293 69.219 358.785 69.219C 358.547 69.219 358.145 69.113 357.555 68.844C 355.977 68.203 354.691 67.906 353.402 67.906C 348.074 67.906 344.082 72.027 344.082 77.484C 344.082 82.996 348.02 86.902 353.566 86.902C 355.465 86.902 357.047 86.449 358.52 85.461C 359.375 84.875 359.965 84.34 361.172 83.004L 360.359 82.336z"/>
<path style="stroke:none; fill-rule:evenodd; fill:#000000" d="M 368.781 73.703C 365.402 73.703 362.77 76.527 362.77 80.183C 362.77 84.027 365.297 86.797 368.781 86.797C 372.211 86.797 374.766 84 374.766 80.262C 374.766 76.496 372.211 73.699 368.781 73.699L 368.781 73.703zM 368.809 74.504C 370.359 74.504 370.867 75.992 370.867 80.43C 370.867 84.594 370.332 86 368.781 86C 367.203 86 366.672 84.621 366.672 80.672C 366.672 75.91 367.152 74.504 368.809 74.504z"/>
<path style="stroke:none; fill-rule:evenodd; fill:#000000" d="M 380.996 74.105L 375.898 74.105L 375.898 74.703C 377.074 74.863 377.367 75.187 377.367 76.289L 377.367 84.187C 377.367 85.289 377.074 85.582 375.898 85.797L 375.898 86.394L 382.324 86.394L 382.324 85.797C 381.371 85.664 381.07 85.285 381.07 84.262L 381.07 77.066C 381.07 76.906 381.496 76.394 381.844 76.125C 382.406 75.695 382.859 75.508 383.316 75.508C 384.359 75.508 384.762 76.125 384.762 77.742L 384.762 84.265C 384.762 85.367 384.473 85.719 383.5 85.801L 383.5 86.398L 389.766 86.398L 389.766 85.801C 388.797 85.695 388.465 85.289 388.465 84.265L 388.465 77.07C 388.465 76.937 388.891 76.426 389.242 76.156C 389.832 75.699 390.285 75.512 390.742 75.512C 391.758 75.512 392.164 76.156 392.164 77.746L 392.164 84.269C 392.164 85.398 391.879 85.723 390.891 85.805L 390.891 86.402L 397.262 86.402L 397.262 85.805C 396.172 85.754 395.867 85.43 395.867 84.269L 395.867 77.508C 395.867 75.191 394.449 73.707 392.262 73.707C 390.742 73.707 389.727 74.332 388.34 76.066C 387.539 74.355 386.605 73.707 384.926 73.707C 383.246 73.707 382.02 74.437 381.004 76.066L 380.996 74.105z"/>
<path style="stroke:none; fill-rule:evenodd; fill:#000000" d="M 403.469 74.105L 398.332 74.105L 398.332 74.703C 399.5 74.891 399.77 75.16 399.77 76.289L 399.77 89.742C 399.77 90.84 399.559 91.082 398.281 91.297L 398.281 91.894L 405.59 91.894L 405.59 91.297C 403.934 91.219 403.473 90.687 403.473 88.898L 403.473 85.141C 404.773 86.359 405.477 86.695 406.668 86.695C 409.699 86.695 411.867 83.914 411.867 79.957C 411.867 76.242 409.852 73.699 406.863 73.699C 405.277 73.699 404.309 74.324 403.473 75.898L 403.469 74.105zM 403.469 77.078C 403.469 76.894 403.711 76.465 404.035 76.117C 404.578 75.531 405.203 75.207 405.797 75.207C 407.207 75.207 407.859 76.808 407.859 80.312C 407.859 83.625 407.102 85.203 405.551 85.203C 404.656 85.203 403.867 84.59 403.461 83.574L 403.469 77.078z"/>
<path style="stroke:none; fill-rule:evenodd; fill:#000000" d="M 421.867 86.754C 423.012 86.371 423.652 86.269 425.391 86.086L 427.047 85.906L 427.047 85.308C 425.887 85.258 425.566 84.91 425.566 83.758L 425.566 74.113L 420.168 74.113L 420.168 74.711C 421.535 74.816 421.867 75.141 421.867 76.301L 421.867 83.926C 420.984 84.812 420.422 85.109 419.672 85.109C 418.574 85.109 418.172 84.574 418.172 83.207L 418.172 74.113L 413.102 74.113L 413.102 74.711C 414.246 74.926 414.469 75.168 414.469 76.293L 414.469 83.051C 414.469 85.41 415.797 86.805 418.008 86.805C 419.391 86.805 420.32 86.394 421.867 85.105L 421.867 86.754z"/>
<path style="stroke:none; fill-rule:evenodd; fill:#000000" d="M 435.734 74.105L 433.168 74.105L 433.168 69.535L 432.508 69.535C 430.895 71.863 429.832 73.082 428.109 74.57L 428.109 75.301L 429.473 75.301L 429.473 83.91C 429.473 85.637 430.625 86.699 432.48 86.699C 434.281 86.699 435.355 85.902 436.457 83.723L 435.777 83.43C 435.234 84.43 434.801 84.801 434.23 84.801C 433.469 84.801 433.172 84.351 433.172 83.289L 433.172 75.305L 435.738 75.305L 435.734 74.105z"/>
<path style="stroke:none; fill-rule:evenodd; fill:#000000" d="M 449.125 84.707L 448.852 84.973C 448.77 85.051 448.688 85.078 448.551 85.078C 448.168 85.078 447.977 84.84 447.977 84.406L 447.977 77.387C 447.977 75.129 445.949 73.703 442.695 73.703C 439.684 73.703 437.656 75.078 437.656 77.098C 437.656 78.199 438.301 78.875 439.402 78.875C 440.477 78.875 441.227 78.234 441.227 77.328C 441.227 76.957 441.066 76.609 440.746 76.18C 440.508 75.914 440.426 75.754 440.426 75.594C 440.426 75.035 441.176 74.605 442.117 74.605C 443.676 74.605 444.375 75.328 444.375 76.965L 444.375 78.918C 441.191 79.883 439.879 80.418 438.891 81.09C 437.742 81.891 437.18 82.805 437.18 83.957C 437.18 85.59 438.438 86.797 440.148 86.797C 441.672 86.797 442.902 86.254 444.375 84.898C 444.668 86.281 445.254 86.797 446.559 86.797C 447.703 86.797 448.527 86.367 449.539 85.265L 449.125 84.707zM 444.367 83.726C 443.637 84.555 443.098 84.875 442.449 84.875C 441.641 84.875 441.07 84.152 441.07 83.082C 441.07 81.531 442.172 80.406 444.367 79.844L 444.367 83.726z"/>
<path style="stroke:none; fill-rule:evenodd; fill:#000000" d="M 458.035 74.105L 455.468 74.105L 455.468 69.535L 454.809 69.535C 453.195 71.863 452.133 73.082 450.41 74.57L 450.41 75.301L 451.773 75.301L 451.773 83.91C 451.773 85.637 452.926 86.699 454.782 86.699C 456.582 86.699 457.657 85.902 458.757 83.723L 458.079 83.43C 457.535 84.43 457.101 84.801 456.532 84.801C 455.77 84.801 455.473 84.351 455.473 83.289L 455.473 75.305L 458.04 75.305L 458.035 74.105z"/>
<path style="stroke:none; fill-rule:evenodd; fill:#000000" d="M 464.368 74.105L 459.196 74.105L 459.196 74.703C 460.415 74.945 460.665 75.187 460.665 76.289L 460.665 84.187C 460.665 85.289 460.473 85.5 459.196 85.797L 459.196 86.394L 465.593 86.394L 465.593 85.797C 464.679 85.664 464.368 85.289 464.368 84.273L 464.368 74.105zM 462.48 67.906C 461.316 67.906 460.371 68.851 460.371 69.992C 460.371 71.211 461.262 72.101 462.457 72.101C 463.649 72.101 464.571 71.211 464.571 70.015C 464.571 68.851 463.652 67.902 462.485 67.902L 462.48 67.906z"/>
<path style="stroke:none; fill-rule:evenodd; fill:#000000" d="M 472.98 73.703C 469.601 73.703 466.968 76.527 466.968 80.183C 466.968 84.027 469.496 86.797 472.98 86.797C 476.41 86.797 478.965 84 478.965 80.262C 478.965 76.496 476.41 73.699 472.98 73.699L 472.98 73.703zM 473.007 74.504C 474.559 74.504 475.066 75.992 475.066 80.43C 475.066 84.594 474.532 86 472.98 86C 471.402 86 470.871 84.621 470.871 80.672C 470.871 75.91 471.351 74.504 473.007 74.504z"/>
<path style="stroke:none; fill-rule:evenodd; fill:#000000" d="M 485.265 74.105L 480.129 74.105L 480.129 74.703C 481.321 74.891 481.563 75.16 481.563 76.289L 481.563 84.187C 481.563 85.316 481.348 85.555 480.129 85.797L 480.129 86.394L 486.582 86.394L 486.582 85.797C 485.59 85.664 485.265 85.262 485.265 84.262L 485.265 77.066C 485.265 76.961 485.454 76.691 485.718 76.449C 486.309 75.832 486.949 75.508 487.566 75.508C 488.504 75.508 488.96 76.234 488.96 77.742L 488.96 84.265C 488.96 85.262 488.613 85.691 487.704 85.801L 487.704 86.398L 493.996 86.398L 493.996 85.801C 492.938 85.723 492.665 85.398 492.665 84.265L 492.665 77.504C 492.665 75.187 491.254 73.703 489.071 73.703C 487.476 73.703 486.249 74.461 485.265 76.062L 485.265 74.105z"/>
<path style="stroke:none; fill-rule:evenodd; fill:#000000" d="M 36.4531 12.426L 35.6718 12.426C 34.7851 14.523 34.2461 15.359 33.3047 16.223C 32.2031 17.215 30.6953 17.703 28.625 17.703C 26.9843 17.703 26.4726 17.355 26.4726 16.207L 26.4726 3.57001C 26.4726 1.562 26.8515 1.215 29.2265 1.10901L 29.2265 0.410004L 19.8828 0.410004L 19.8828 1.10901C 21.6914 1.215 22.1718 1.64101 22.1718 3.004L 22.1718 15.914C 22.1718 17.273 21.8281 17.566 19.8828 17.805L 19.8828 18.504L 35.3593 18.504L 36.4531 12.426z"/>
<path style="stroke:none; fill-rule:evenodd; fill:#000000" d="M 47.9335 15.156C 46.8635 16.508 46.0355 17.004 44.8825 17.004C 43.8395 17.004 43.0625 16.515 42.4995 15.562C 42.0195 14.691 41.8045 13.793 41.6995 11.91L 48.4455 11.91C 48.2855 9.664 47.8865 8.40601 47.0275 7.39101C 46.1445 6.34801 44.9145 5.812 43.4415 5.812C 40.0976 5.812 37.8476 8.47301 37.8476 12.402C 37.8476 16.328 40.0429 18.91 43.3635 18.91C 45.5315 18.91 46.8435 18.051 48.5815 15.543L 47.9335 15.156zM 41.5585 10.906C 41.6365 7.683 42.1215 6.605 43.4335 6.605C 44.1835 6.605 44.6915 7.035 44.9065 7.867C 45.0395 8.375 45.0935 9.129 45.1445 10.5L 45.1445 10.902L 41.5585 10.906z"/>
<path style="stroke:none; fill-rule:evenodd; fill:#000000" d="M 61.7225 16.808L 61.4495 17.074C 61.3675 17.152 61.2855 17.18 61.1485 17.18C 60.7655 17.18 60.5745 16.941 60.5745 16.508L 60.5745 9.48801C 60.5745 7.23 58.5465 5.80501 55.2925 5.80501C 52.2815 5.80501 50.2535 7.18001 50.2535 9.19901C 50.2535 10.301 50.8985 10.976 51.9995 10.976C 53.0745 10.976 53.8245 10.336 53.8245 9.43001C 53.8245 9.058 53.6645 8.711 53.3435 8.28101C 53.1055 8.015 53.0235 7.855 53.0235 7.69501C 53.0235 7.13701 53.7735 6.707 54.7145 6.707C 56.2735 6.707 56.9725 7.43001 56.9725 9.06601L 56.9725 11.019C 53.7895 11.984 52.4765 12.519 51.4885 13.191C 50.3395 13.992 49.7775 14.906 49.7775 16.058C 49.7775 17.691 51.0355 18.898 52.7465 18.898C 54.2695 18.898 55.4995 18.355 56.9725 17C 57.2655 18.383 57.8515 18.898 59.1565 18.898C 60.3005 18.898 61.1245 18.469 62.1365 17.367L 61.7225 16.808zM 56.9685 15.828C 56.2385 16.656 55.6995 16.976 55.0505 16.976C 54.2425 16.976 53.6715 16.254 53.6715 15.183C 53.6715 13.633 54.7735 12.508 56.9685 11.945L 56.9685 15.828z"/>
<path style="stroke:none; fill-rule:evenodd; fill:#000000" d="M 68.3045 6.203L 63.2465 6.203L 63.2465 6.80101C 64.3785 6.961 64.6675 7.312 64.6675 8.38701L 64.6675 16.285C 64.6675 17.387 64.4065 17.68 63.2465 17.894L 63.2465 18.492L 70.3675 18.492L 70.3675 17.894C 68.6955 17.789 68.3675 17.437 68.3675 15.765L 68.3675 10.676C 68.3675 9.27701 69.1215 8.117 70.0115 8.117C 70.2265 8.117 70.4685 8.30501 70.7655 8.73401C 71.2775 9.461 71.6835 9.703 72.3825 9.703C 73.3785 9.703 74.0815 8.94901 74.0815 7.89801C 74.0815 6.687 73.1715 5.797 71.9145 5.797C 70.5785 5.797 69.5585 6.52701 68.3005 8.34801L 68.3045 6.203z"/>
<path style="stroke:none; fill-rule:evenodd; fill:#000000" d="M 80.0665 6.203L 74.9295 6.203L 74.9295 6.80101C 76.1215 6.98801 76.3635 7.258 76.3635 8.38701L 76.3635 16.285C 76.3635 17.414 76.1485 17.652 74.9295 17.894L 74.9295 18.492L 81.3825 18.492L 81.3825 17.894C 80.3905 17.762 80.0665 17.359 80.0665 16.359L 80.0665 9.164C 80.0665 9.058 80.2535 8.789 80.5195 8.547C 81.1095 7.93001 81.7495 7.605 82.3675 7.605C 83.3045 7.605 83.7615 8.332 83.7615 9.84L 83.7615 16.363C 83.7615 17.359 83.4145 17.789 82.5035 17.898L 82.5035 18.496L 88.7965 18.496L 88.7965 17.898C 87.7385 17.82 87.4645 17.496 87.4645 16.363L 87.4645 9.601C 87.4645 7.285 86.0545 5.80101 83.8715 5.80101C 82.2775 5.80101 81.0505 6.558 80.0665 8.16L 80.0665 6.203z"/>
<path style="stroke:none; fill-rule:evenodd; fill:#000000" d="M 94.8675 6.203L 89.6955 6.203L 89.6955 6.80101C 90.9145 7.043 91.1645 7.285 91.1645 8.38701L 91.1645 16.285C 91.1645 17.387 90.9725 17.598 89.6955 17.894L 89.6955 18.492L 96.0935 18.492L 96.0935 17.894C 95.1795 17.762 94.8675 17.387 94.8675 16.371L 94.8675 6.203zM 92.9805 0.0039978C 91.8165 0.0039978 90.8715 0.949005 90.8715 2.09C 90.8715 3.308 91.7615 4.19901 92.9575 4.19901C 94.1485 4.19901 95.0705 3.308 95.0705 2.11301C 95.0705 0.949005 94.1525 0 92.9845 0L 92.9805 0.0039978z"/>
<path style="stroke:none; fill-rule:evenodd; fill:#000000" d="M 102.368 6.203L 97.2305 6.203L 97.2305 6.80101C 98.4215 6.98801 98.6645 7.258 98.6645 8.38701L 98.6645 16.285C 98.6645 17.414 98.4495 17.652 97.2305 17.894L 97.2305 18.492L 103.684 18.492L 103.684 17.894C 102.691 17.762 102.368 17.359 102.368 16.359L 102.368 9.164C 102.368 9.058 102.555 8.789 102.82 8.547C 103.411 7.93001 104.051 7.605 104.667 7.605C 105.605 7.605 106.062 8.332 106.062 9.84L 106.062 16.363C 106.062 17.359 105.715 17.789 104.805 17.898L 104.805 18.496L 111.098 18.496L 111.098 17.898C 110.04 17.82 109.766 17.496 109.766 16.363L 109.766 9.601C 109.766 7.285 108.355 5.80101 106.171 5.80101C 104.579 5.80101 103.352 6.558 102.368 8.16L 102.368 6.203z"/>
<path style="stroke:none; fill-rule:evenodd; fill:#000000" d="M 124.477 7.80501L 124.477 6.40601L 120.999 6.40601C 119.824 5.97301 119.074 5.808 118.003 5.808C 114.82 5.808 112.574 7.578 112.574 10.125C 112.574 11.035 112.917 11.918 113.536 12.668C 114.122 13.308 114.628 13.656 115.883 14.195C 113.738 14.918 112.652 15.933 112.652 17.328C 112.652 18.426 113.141 18.906 114.878 19.523C 113.167 19.762 112.273 20.433 112.273 21.531C 112.273 23.082 114.281 23.996 117.661 23.996C 122.109 23.996 124.469 22.613 124.469 19.976C 124.469 17.926 122.816 16.699 120.094 16.699L 118.363 16.699C 116.23 16.699 115.695 16.508 115.695 15.734C 115.695 14.91 116.441 14.301 117.512 14.301L 118.71 14.301C 119.965 14.301 120.633 14.144 121.542 13.609C 122.747 12.918 123.359 11.828 123.359 10.414C 123.359 9.351 123.042 8.55101 122.301 7.80501L 124.477 7.80501zM 120.23 19.902C 121.671 19.902 122.368 20.348 122.368 21.211C 122.368 22.414 120.898 23.098 118.249 23.098C 115.898 23.098 114.671 22.496 114.671 21.344C 114.671 20.793 114.855 20.508 115.605 19.902L 120.23 19.902zM 118.02 6.605C 119.262 6.605 119.77 7.629 119.77 10.129C 119.77 12.629 119.266 13.598 118.02 13.598C 116.749 13.598 116.27 12.629 116.27 10.129C 116.27 7.601 116.773 6.605 118.02 6.605z"/>
<path style="stroke:none; fill-rule:evenodd; fill:#000000" d="M 147.167 7.27701L 147.167 7.918C 148.704 8.101 148.887 8.23801 148.887 9.01201C 148.887 10.078 148.411 10.961 146.868 12.887L 142.809 7.168C 145.637 6.125 146.868 4.94901 146.868 3.269C 146.868 1.293 145.102 0.00799561 142.395 0.00799561C 139.18 0.00799561 137.171 1.64101 137.171 4.23801C 137.171 5.414 137.497 6.269 138.579 8.117C 134.805 9.98801 133.372 11.676 133.372 14.191C 133.372 16.945 135.48 18.902 138.473 18.902C 140.449 18.902 142.21 18.207 144.402 16.574C 146.003 18.34 146.965 18.902 148.383 18.902C 149.208 18.902 150.227 18.558 150.868 18.074C 151.292 17.726 151.641 17.301 152.309 16.207L 152.738 15.515L 152.204 15.195C 151.749 15.914 151.292 16.211 150.652 16.211C 149.637 16.211 148.969 15.703 147.469 13.781C 148.949 11.754 149.247 11.324 149.973 10.176L 150.699 9C 151.184 8.226 151.508 8.039 152.665 7.933L 152.665 7.293L 147.167 7.27701zM 140.27 10.855C 142.305 13.867 142.902 14.726 143.773 15.855C 142.73 16.605 142.062 16.902 141.372 16.902C 140.57 16.902 139.665 16.473 138.997 15.773C 137.852 14.566 137.074 12.844 137.074 11.445C 137.074 10.453 137.57 9.78101 139.012 8.918L 140.27 10.855zM 142.301 6.39801C 140.883 4.633 140.32 3.48 140.32 2.383C 140.32 1.44501 140.855 0.882996 141.71 0.882996C 143.02 0.882996 144.171 2.433 144.171 4.226C 144.171 5.32401 143.637 5.937 142.296 6.394L 142.301 6.39801z"/>
<path style="stroke:none; fill-rule:evenodd; fill:#000000" d="M 178.77 2.19501L 178.77 15.797C 178.77 17.293 178.406 17.613 176.445 17.801L 176.445 18.5L 185.335 18.5L 185.335 17.801C 183.243 17.535 182.973 17.242 182.973 15.348L 182.973 3.558C 182.973 1.64101 183.374 1.23801 185.335 1.105L 185.335 0.406006L 178.59 0.406006L 173.234 13.043L 167.878 0.406006L 161.105 0.406006L 161.105 1.105C 163.046 1.265 163.473 1.61301 163.473 3L 163.473 15.668C 163.473 17.265 163.128 17.586 161.051 17.801L 161.051 18.5L 167.316 18.5L 167.316 17.801C 165.094 17.644 164.579 17.133 164.579 15.156L 164.579 2.59801L 171.312 18.504L 172.031 18.504L 178.77 2.19501z"/>
<path style="stroke:none; fill-rule:evenodd; fill:#000000" d="M 196.734 15.156C 195.665 16.508 194.835 17.004 193.684 17.004C 192.641 17.004 191.863 16.515 191.301 15.562C 190.82 14.691 190.605 13.793 190.499 11.91L 197.247 11.91C 197.085 9.664 196.688 8.40601 195.829 7.39101C 194.945 6.34801 193.715 5.812 192.243 5.812C 188.898 5.812 186.648 8.47301 186.648 12.402C 186.648 16.328 188.844 18.91 192.165 18.91C 194.331 18.91 195.645 18.051 197.383 15.543L 196.734 15.156zM 190.359 10.906C 190.438 7.683 190.921 6.605 192.234 6.605C 192.984 6.605 193.493 7.035 193.708 7.867C 193.84 8.375 193.895 9.129 193.945 10.5L 193.945 10.902L 190.359 10.906z"/>
<path style="stroke:none; fill-rule:evenodd; fill:#000000" d="M 203.395 6.203L 198.297 6.203L 198.297 6.80101C 199.473 6.961 199.766 7.285 199.766 8.38701L 199.766 16.285C 199.766 17.387 199.473 17.68 198.297 17.894L 198.297 18.492L 204.723 18.492L 204.723 17.894C 203.77 17.762 203.469 17.383 203.469 16.359L 203.469 9.164C 203.469 9.004 203.895 8.492 204.242 8.22301C 204.805 7.793 205.258 7.605 205.715 7.605C 206.758 7.605 207.16 8.22301 207.16 9.84L 207.16 16.363C 207.16 17.465 206.871 17.816 205.898 17.898L 205.898 18.496L 212.164 18.496L 212.164 17.898C 211.195 17.793 210.863 17.387 210.863 16.363L 210.863 9.168C 210.863 9.035 211.289 8.52301 211.641 8.254C 212.23 7.797 212.684 7.60901 213.141 7.60901C 214.156 7.60901 214.562 8.254 214.562 9.84401L 214.562 16.367C 214.562 17.496 214.277 17.82 213.289 17.902L 213.289 18.5L 219.66 18.5L 219.66 17.902C 218.57 17.851 218.266 17.527 218.266 16.367L 218.266 9.605C 218.266 7.289 216.848 5.80501 214.66 5.80501C 213.141 5.80501 212.125 6.43001 210.738 8.164C 209.938 6.453 209.004 5.80501 207.324 5.80501C 205.645 5.80501 204.418 6.535 203.402 8.164L 203.395 6.203z"/>
<path style="stroke:none; fill-rule:evenodd; fill:#000000" d="M 226.879 5.80501C 223.5 5.80501 220.867 8.629 220.867 12.285C 220.867 16.129 223.395 18.898 226.879 18.898C 230.309 18.898 232.863 16.101 232.863 12.363C 232.863 8.59801 230.309 5.80101 226.879 5.80101L 226.879 5.80501zM 226.906 6.605C 228.457 6.605 228.965 8.09401 228.965 12.531C 228.965 16.695 228.43 18.101 226.879 18.101C 225.301 18.101 224.77 16.723 224.77 12.773C 224.77 8.01201 225.25 6.605 226.906 6.605z"/>
<path style="stroke:none; fill-rule:evenodd; fill:#000000" d="M 239.406 6.203L 234.348 6.203L 234.348 6.80101C 235.48 6.961 235.77 7.312 235.77 8.38701L 235.77 16.285C 235.77 17.387 235.508 17.68 234.348 17.894L 234.348 18.492L 241.469 18.492L 241.469 17.894C 239.797 17.789 239.469 17.437 239.469 15.765L 239.469 10.676C 239.469 9.27701 240.223 8.117 241.113 8.117C 241.328 8.117 241.57 8.30501 241.867 8.73401C 242.379 9.461 242.785 9.703 243.484 9.703C 244.48 9.703 245.184 8.94901 245.184 7.89801C 245.184 6.687 244.273 5.797 243.016 5.797C 241.68 5.797 240.66 6.52701 239.402 8.34801L 239.406 6.203z"/>
<path style="stroke:none; fill-rule:evenodd; fill:#000000" d="M 258.32 6.203L 254.27 6.203L 254.27 6.84C 255.422 6.89101 255.742 7.078 255.742 7.71901C 255.742 8.01201 255.691 8.25 255.449 8.914L 253.625 14.023L 251.695 9.101C 251.16 7.746 251.16 7.746 251.16 7.53101C 251.16 7.16 251.48 6.922 252.152 6.867L 252.578 6.84401L 252.578 6.207L 245.871 6.207L 245.871 6.851C 246.488 6.93001 246.648 7.01201 246.809 7.25C 246.887 7.25 248.098 9.871 248.555 10.992L 251.781 18.887L 251.297 20.305C 250.84 21.641 250.141 22.496 249.523 22.496C 249.285 22.496 249.07 22.281 249.07 22.035C 249.07 22.012 249.07 21.957 249.07 21.875C 249.117 21.742 249.164 21.605 249.164 21.496C 249.164 20.711 248.516 20.164 247.598 20.164C 246.598 20.164 245.871 20.859 245.871 21.883C 245.871 23.117 246.941 24 248.473 24C 249.383 24 250.16 23.68 250.727 23.121C 251.289 22.508 251.824 21.437 252.766 18.93L 256.762 8.32401C 257.215 7.203 257.484 6.937 258.316 6.855L 258.32 6.203z"/>
<path style="stroke:none; fill-rule:evenodd; fill:#000000" d="M 5.7226 129.703L 0.0781021 129.703L 0.0781021 130.402C 0.6133 130.402 1.0742 130.801 2.3672 132.324L 2.3672 144.965C 2.3672 146.484 1.9648 146.855 0 147.098L 0 147.797L 6.0781 147.797L 6.0781 147.098C 4.0468 146.859 3.5742 146.351 3.5742 144.453L 3.5742 133.715L 15.5234 148.301L 16.2734 148.301L 16.2734 132.543C 16.2734 131.019 16.6172 130.672 18.3437 130.402L 18.3437 129.703L 12.5898 129.703L 12.5898 130.402C 14.5664 130.586 15.0742 131.148 15.0742 133.043L 15.0742 141.184L 5.7226 129.703z"/>
<path style="stroke:none; fill-rule:evenodd; fill:#000000" d="M 29.7343 144.457C 28.664 145.809 27.8359 146.305 26.6836 146.305C 25.6406 146.305 24.8633 145.816 24.3007 144.863C 23.8203 143.992 23.6054 143.094 23.5 141.211L 30.2461 141.211C 30.0859 138.965 29.6875 137.707 28.8281 136.691C 27.9453 135.648 26.7148 135.113 25.2422 135.113C 21.8984 135.113 19.6484 137.773 19.6484 141.703C 19.6484 145.629 21.8437 148.211 25.164 148.211C 27.332 148.211 28.6445 147.351 30.3828 144.844L 29.7343 144.457zM 23.3593 140.203C 23.4375 136.98 23.9218 135.902 25.2343 135.902C 25.9843 135.902 26.4922 136.332 26.707 137.164C 26.8398 137.672 26.8945 138.426 26.9453 139.797L 26.9453 140.199L 23.3593 140.203z"/>
<path style="stroke:none; fill-rule:evenodd; fill:#000000" d="M 37.582 135.105C 34.2031 135.105 31.5703 137.93 31.5703 141.586C 31.5703 145.43 34.0976 148.199 37.582 148.199C 41.0117 148.199 43.5665 145.402 43.5665 141.664C 43.5665 137.898 41.0117 135.101 37.582 135.101L 37.582 135.105zM 37.6093 135.906C 39.1601 135.906 39.6679 137.394 39.6679 141.832C 39.6679 145.996 39.1328 147.402 37.582 147.402C 36.0039 147.402 35.4726 146.023 35.4726 142.074C 35.4726 137.312 35.9531 135.906 37.6093 135.906z"/>
<path style="stroke:none; fill-rule:evenodd; fill:#000000" d="M 55.2965 144.887C 54.3005 146.023 53.6015 146.402 52.4965 146.402C 50.1525 146.402 48.6715 144.055 48.6715 140.387C 48.6715 137.609 49.5315 135.906 50.9335 135.906C 51.3635 135.906 51.7695 136.121 51.9295 136.422C 52.0625 136.664 52.0625 136.664 52.0625 137.809C 52.0855 139.141 52.5745 139.766 53.5705 139.766C 54.6995 139.766 55.4025 139.121 55.4025 138.07C 55.4025 136.398 53.6135 135.105 51.2655 135.105C 47.6365 135.105 44.9645 137.957 44.9645 141.828C 44.9645 145.539 47.3675 148.203 50.6755 148.203C 52.7305 148.203 54.2265 147.367 55.7775 145.371L 55.2965 144.887z"/>
<path style="stroke:none; fill-rule:evenodd; fill:#000000" d="M 62.7815 135.105C 59.4025 135.105 56.7695 137.93 56.7695 141.586C 56.7695 145.43 59.2965 148.199 62.7815 148.199C 66.2105 148.199 68.7655 145.402 68.7655 141.664C 68.7655 137.898 66.2105 135.101 62.7815 135.101L 62.7815 135.105zM 62.8085 135.906C 64.3595 135.906 64.8675 137.394 64.8675 141.832C 64.8675 145.996 64.3315 147.402 62.7815 147.402C 61.2035 147.402 60.6715 146.023 60.6715 142.074C 60.6715 137.312 61.1525 135.906 62.8085 135.906z"/>
<path style="stroke:none; fill-rule:evenodd; fill:#000000" d="M 75.3045 135.504L 70.2465 135.504L 70.2465 136.101C 71.3785 136.262 71.6675 136.613 71.6675 137.687L 71.6675 145.586C 71.6675 146.687 71.4065 146.98 70.2465 147.195L 70.2465 147.793L 77.3675 147.793L 77.3675 147.195C 75.6955 147.09 75.3675 146.738 75.3675 145.066L 75.3675 139.976C 75.3675 138.578 76.1215 137.418 77.0115 137.418C 77.2265 137.418 77.4685 137.605 77.7655 138.035C 78.2775 138.762 78.6835 139.004 79.3825 139.004C 80.3785 139.004 81.0815 138.25 81.0815 137.199C 81.0815 135.988 80.1715 135.098 78.9145 135.098C 77.5785 135.098 76.5585 135.828 75.3005 137.648L 75.3045 135.504z"/>
<path style="stroke:none; fill-rule:evenodd; fill:#000000" d="M 89.5355 135.504L 86.9685 135.504L 86.9685 130.934L 86.3085 130.934C 84.6955 133.262 83.6325 134.48 81.9105 135.969L 81.9105 136.699L 83.2735 136.699L 83.2735 145.309C 83.2735 147.035 84.4255 148.098 86.2815 148.098C 88.0815 148.098 89.1565 147.301 90.2575 145.121L 89.5785 144.828C 89.0355 145.828 88.6015 146.199 88.0315 146.199C 87.2695 146.199 86.9725 145.75 86.9725 144.687L 86.9725 136.703L 89.5395 136.703L 89.5355 135.504z"/>
<path style="stroke:none; fill-rule:evenodd; fill:#000000" d="M 101.036 144.457C 99.9645 145.809 99.1365 146.305 97.9845 146.305C 96.9415 146.305 96.1645 145.816 95.6015 144.863C 95.1215 143.992 94.9065 143.094 94.8005 141.211L 101.546 141.211C 101.387 138.965 100.988 137.707 100.128 136.691C 99.2465 135.648 98.0155 135.113 96.5425 135.113C 93.1995 135.113 90.9495 137.773 90.9495 141.703C 90.9495 145.629 93.1445 148.211 96.4645 148.211C 98.6325 148.211 99.9455 147.351 101.684 144.844L 101.036 144.457zM 94.6605 140.203C 94.7385 136.98 95.2225 135.902 96.5355 135.902C 97.2855 135.902 97.7925 136.332 98.0075 137.164C 98.1405 137.672 98.1955 138.426 98.2465 139.797L 98.2465 140.199L 94.6605 140.203z"/>
<path style="stroke:none; fill-rule:evenodd; fill:#000000" d="M 115.128 147.164C 114.704 147.031 114.516 146.926 114.329 146.633L 110.368 140.551L 113.07 137.191C 113.579 136.578 114.113 136.285 114.945 136.152L 114.945 135.516L 110.449 135.516L 110.449 136.148C 110.688 136.172 110.902 136.199 110.984 136.199C 111.598 136.223 111.812 136.383 111.812 136.781C 111.812 137.176 111.546 137.629 110.796 138.476C 110.637 138.633 110.238 139.137 109.835 139.691C 109.676 139.508 109.57 139.348 109.488 139.242C 108.633 138.133 107.938 136.992 107.938 136.648C 107.938 136.332 108.312 136.172 109.195 136.144L 109.195 135.512L 102.503 135.512L 102.503 136.148C 103.199 136.254 103.359 136.387 103.895 137.187L 107.32 142.441C 106.546 143.426 105.82 144.309 105.581 144.68C 104.081 146.652 103.546 147.105 102.559 147.16L 102.559 147.797L 107.081 147.797L 107.081 147.156C 106.122 147.105 105.747 146.918 105.747 146.516C 105.747 146.117 106.441 144.992 107.458 143.758C 107.508 143.68 107.695 143.465 107.883 143.223L 109.008 144.906C 109.622 145.789 109.891 146.297 109.891 146.617C 109.891 146.937 109.516 147.098 108.688 147.152L 108.688 147.793L 115.141 147.793L 115.128 147.164z"/>
<path style="stroke:none; fill-rule:evenodd; fill:#000000" d="M 137.77 136.578L 137.77 137.219C 139.305 137.402 139.488 137.539 139.488 138.312C 139.488 139.379 139.012 140.262 137.469 142.187L 133.411 136.469C 136.238 135.426 137.469 134.25 137.469 132.57C 137.469 130.594 135.704 129.309 132.997 129.309C 129.781 129.309 127.773 130.941 127.773 133.539C 127.773 134.715 128.098 135.57 129.18 137.418C 125.406 139.289 123.973 140.976 123.973 143.492C 123.973 146.246 126.081 148.203 129.074 148.203C 131.051 148.203 132.812 147.508 135.003 145.875C 136.605 147.641 137.566 148.203 138.984 148.203C 139.809 148.203 140.829 147.859 141.469 147.375C 141.895 147.027 142.243 146.601 142.911 145.508L 143.34 144.816L 142.805 144.496C 142.352 145.215 141.895 145.512 141.253 145.512C 140.238 145.512 139.57 145.004 138.07 143.082C 139.551 141.055 139.848 140.625 140.574 139.476L 141.301 138.301C 141.786 137.527 142.109 137.34 143.266 137.234L 143.266 136.594L 137.77 136.578zM 130.868 140.156C 132.902 143.168 133.499 144.027 134.372 145.156C 133.329 145.906 132.661 146.203 131.969 146.203C 131.167 146.203 130.262 145.773 129.594 145.074C 128.449 143.867 127.671 142.144 127.671 140.746C 127.671 139.754 128.167 139.082 129.609 138.219L 130.868 140.156zM 132.898 135.699C 131.48 133.934 130.917 132.781 130.917 131.684C 130.917 130.746 131.454 130.184 132.309 130.184C 133.618 130.184 134.77 131.734 134.77 133.527C 134.77 134.625 134.234 135.238 132.895 135.695L 132.898 135.699z"/>
<path style="stroke:none; fill-rule:evenodd; fill:#000000" d="M 164.969 139.105L 164.969 145.219C 164.969 146.519 164.503 146.891 162.493 147.105L 162.493 147.805L 171.594 147.805L 171.594 147.105C 169.691 146.867 169.27 146.519 169.27 145.215L 169.27 132.305C 169.27 130.973 169.796 130.547 171.594 130.41L 171.594 129.711L 162.493 129.711L 162.493 130.41C 164.417 130.543 164.969 130.969 164.969 132.301L 164.969 137.809L 158.473 137.809L 158.473 132.301C 158.473 130.973 158.999 130.547 160.859 130.41L 160.859 129.711L 151.835 129.711L 151.835 130.41C 153.676 130.57 154.171 130.969 154.171 132.305L 154.171 145.215C 154.171 146.519 153.762 146.867 151.835 147.105L 151.835 147.805L 160.859 147.805L 160.859 147.105C 158.926 146.894 158.473 146.523 158.473 145.219L 158.473 139.105L 164.969 139.105z"/>
<path style="stroke:none; fill-rule:evenodd; fill:#000000" d="M 177.77 135.504L 172.598 135.504L 172.598 136.101C 173.816 136.344 174.066 136.586 174.066 137.687L 174.066 145.586C 174.066 146.687 173.874 146.898 172.598 147.195L 172.598 147.793L 178.997 147.793L 178.997 147.195C 178.081 147.062 177.77 146.687 177.77 145.672L 177.77 135.504zM 175.878 129.305C 174.715 129.305 173.77 130.25 173.77 131.391C 173.77 132.609 174.661 133.5 175.855 133.5C 177.046 133.5 177.969 132.609 177.969 131.414C 177.969 130.25 177.051 129.301 175.883 129.301L 175.878 129.305z"/>
<path style="stroke:none; fill-rule:evenodd; fill:#000000" d="M 185.27 135.504L 180.133 135.504L 180.133 136.101C 181.301 136.289 181.57 136.559 181.57 137.687L 181.57 151.141C 181.57 152.238 181.359 152.48 180.081 152.695L 180.081 153.293L 187.391 153.293L 187.391 152.695C 185.734 152.617 185.273 152.086 185.273 150.297L 185.273 146.539C 186.574 147.758 187.277 148.094 188.469 148.094C 191.499 148.094 193.667 145.312 193.667 141.355C 193.667 137.641 191.652 135.098 188.665 135.098C 187.079 135.098 186.109 135.723 185.273 137.297L 185.27 135.504zM 185.27 138.476C 185.27 138.293 185.512 137.863 185.835 137.516C 186.378 136.93 187.003 136.605 187.598 136.605C 189.008 136.605 189.661 138.207 189.661 141.711C 189.661 145.023 188.902 146.601 187.352 146.601C 186.458 146.601 185.667 145.988 185.262 144.973L 185.27 138.476z"/>
<path style="stroke:none; fill-rule:evenodd; fill:#000000" d="M 200.168 135.504L 195.031 135.504L 195.031 136.101C 196.199 136.289 196.469 136.559 196.469 137.687L 196.469 151.141C 196.469 152.238 196.258 152.48 194.98 152.695L 194.98 153.293L 202.289 153.293L 202.289 152.695C 200.633 152.617 200.172 152.086 200.172 150.297L 200.172 146.539C 201.473 147.758 202.176 148.094 203.367 148.094C 206.398 148.094 208.566 145.312 208.566 141.355C 208.566 137.641 206.551 135.098 203.562 135.098C 201.977 135.098 201.008 135.723 200.172 137.297L 200.168 135.504zM 200.168 138.476C 200.168 138.293 200.41 137.863 200.734 137.516C 201.277 136.93 201.902 136.605 202.496 136.605C 203.906 136.605 204.559 138.207 204.559 141.711C 204.559 145.023 203.801 146.601 202.25 146.601C 201.355 146.601 200.566 145.988 200.16 144.973L 200.168 138.476z"/>
<path style="stroke:none; fill-rule:evenodd; fill:#000000" d="M 216.082 135.105C 212.703 135.105 210.07 137.93 210.07 141.586C 210.07 145.43 212.598 148.199 216.082 148.199C 219.512 148.199 222.066 145.402 222.066 141.664C 222.066 137.898 219.512 135.101 216.082 135.101L 216.082 135.105zM 216.109 135.906C 217.66 135.906 218.168 137.394 218.168 141.832C 218.168 145.996 217.633 147.402 216.082 147.402C 214.504 147.402 213.973 146.023 213.973 142.074C 213.973 137.312 214.453 135.906 216.109 135.906z"/>
<path style="stroke:none; fill-rule:evenodd; fill:#000000" d="M 233.797 144.887C 232.801 146.023 232.102 146.402 230.996 146.402C 228.652 146.402 227.172 144.055 227.172 140.387C 227.172 137.609 228.031 135.906 229.434 135.906C 229.863 135.906 230.27 136.121 230.43 136.422C 230.562 136.664 230.562 136.664 230.562 137.809C 230.586 139.141 231.074 139.766 232.07 139.766C 233.199 139.766 233.902 139.121 233.902 138.07C 233.902 136.398 232.113 135.105 229.766 135.105C 226.137 135.105 223.465 137.957 223.465 141.828C 223.465 145.539 225.867 148.203 229.176 148.203C 231.23 148.203 232.727 147.367 234.277 145.371L 233.797 144.887z"/>
<path style="stroke:none; fill-rule:evenodd; fill:#000000" d="M 247.324 146.105L 247.051 146.371C 246.969 146.449 246.887 146.476 246.75 146.476C 246.367 146.476 246.176 146.238 246.176 145.805L 246.176 138.785C 246.176 136.527 244.148 135.101 240.895 135.101C 237.883 135.101 235.855 136.476 235.855 138.496C 235.855 139.598 236.5 140.273 237.602 140.273C 238.676 140.273 239.426 139.633 239.426 138.726C 239.426 138.355 239.266 138.008 238.945 137.578C 238.707 137.312 238.625 137.152 238.625 136.992C 238.625 136.434 239.375 136.004 240.316 136.004C 241.875 136.004 242.574 136.726 242.574 138.363L 242.574 140.316C 239.391 141.281 238.078 141.816 237.09 142.488C 235.941 143.289 235.379 144.203 235.379 145.355C 235.379 146.988 236.637 148.195 238.348 148.195C 239.871 148.195 241.102 147.652 242.574 146.297C 242.867 147.68 243.453 148.195 244.758 148.195C 245.902 148.195 246.727 147.766 247.738 146.664L 247.324 146.105zM 242.566 145.129C 241.836 145.957 241.297 146.277 240.648 146.277C 239.84 146.277 239.27 145.555 239.27 144.484C 239.27 142.934 240.371 141.809 242.566 141.246L 242.566 145.129z"/>
<path style="stroke:none; fill-rule:evenodd; fill:#000000" d="M 253.496 135.504L 248.398 135.504L 248.398 136.101C 249.574 136.262 249.867 136.586 249.867 137.687L 249.867 145.586C 249.867 146.687 249.574 146.98 248.398 147.195L 248.398 147.793L 254.824 147.793L 254.824 147.195C 253.871 147.062 253.57 146.684 253.57 145.66L 253.57 138.465C 253.57 138.305 253.996 137.793 254.344 137.523C 254.906 137.094 255.359 136.906 255.816 136.906C 256.859 136.906 257.262 137.523 257.262 139.141L 257.262 145.664C 257.262 146.766 256.973 147.117 256 147.199L 256 147.797L 262.266 147.797L 262.266 147.199C 261.297 147.094 260.965 146.687 260.965 145.664L 260.965 138.469C 260.965 138.336 261.391 137.824 261.742 137.555C 262.332 137.098 262.785 136.91 263.242 136.91C 264.258 136.91 264.664 137.555 264.664 139.144L 264.664 145.668C 264.664 146.797 264.379 147.121 263.391 147.203L 263.391 147.801L 269.762 147.801L 269.762 147.203C 268.672 147.152 268.367 146.828 268.367 145.668L 268.367 138.906C 268.367 136.59 266.949 135.105 264.762 135.105C 263.242 135.105 262.227 135.73 260.84 137.465C 260.039 135.754 259.105 135.105 257.426 135.105C 255.746 135.105 254.52 135.836 253.504 137.465L 253.496 135.504z"/>
<path style="stroke:none; fill-rule:evenodd; fill:#000000" d="M 276.07 135.504L 270.934 135.504L 270.934 136.101C 272.102 136.289 272.371 136.559 272.371 137.687L 272.371 151.141C 272.371 152.238 272.16 152.48 270.883 152.695L 270.883 153.293L 278.191 153.293L 278.191 152.695C 276.535 152.617 276.074 152.086 276.074 150.297L 276.074 146.539C 277.375 147.758 278.078 148.094 279.27 148.094C 282.301 148.094 284.469 145.312 284.469 141.355C 284.469 137.641 282.453 135.098 279.465 135.098C 277.879 135.098 276.91 135.723 276.074 137.297L 276.07 135.504zM 276.066 138.476C 276.066 138.293 276.309 137.863 276.633 137.516C 277.176 136.93 277.801 136.605 278.395 136.605C 279.805 136.605 280.457 138.207 280.457 141.711C 280.457 145.023 279.699 146.601 278.148 146.601C 277.254 146.601 276.465 145.988 276.059 144.973L 276.066 138.476z"/>
<path style="stroke:none; fill-rule:evenodd; fill:#000000" d="M 294.367 148.152C 295.512 147.769 296.152 147.668 297.891 147.484L 299.547 147.305L 299.547 146.707C 298.387 146.656 298.066 146.309 298.066 145.156L 298.066 135.512L 292.668 135.512L 292.668 136.109C 294.035 136.215 294.367 136.539 294.367 137.699L 294.367 145.324C 293.484 146.211 292.922 146.508 292.172 146.508C 291.074 146.508 290.672 145.973 290.672 144.605L 290.672 135.512L 285.602 135.512L 285.602 136.109C 286.746 136.324 286.969 136.566 286.969 137.691L 286.969 144.449C 286.969 146.809 288.297 148.203 290.508 148.203C 291.891 148.203 292.82 147.793 294.367 146.504L 294.367 148.152z"/>
<path style="stroke:none; fill-rule:evenodd; fill:#000000" d="M 309.172 139.074L 309.172 135.16L 308.582 135.16C 308.422 135.562 308.262 135.699 307.938 135.699C 307.777 135.699 307.508 135.648 307.082 135.512C 306.199 135.215 305.578 135.109 304.988 135.109C 302.547 135.109 300.773 136.766 300.773 139.008C 300.773 140.769 301.875 141.996 304.59 143.144C 306.418 143.945 307.168 144.613 307.168 145.465C 307.168 146.504 306.367 147.199 305.16 147.199C 303.285 147.199 302.055 146.019 301.492 143.73L 300.742 143.73L 300.742 148.098L 301.41 148.098C 301.703 147.535 301.863 147.348 302.105 147.348C 302.238 147.348 302.453 147.398 302.723 147.508C 303.445 147.828 304.871 148.094 305.621 148.094C 308.062 148.094 309.758 146.445 309.758 144.043C 309.758 142.152 308.711 141.008 306.043 139.887C 304.215 139.117 303.461 138.449 303.461 137.543C 303.461 136.664 304.211 135.996 305.227 135.996C 305.922 135.996 306.645 136.289 307.234 136.855C 307.797 137.391 308.09 137.875 308.492 139.062L 309.172 139.074z"/>
</g>
</svg>