<?xml version="1.0" encoding="ISO-8859-1" standalone="yes"?>
<svg width="466.008" height="342.898">
  <defs> 
    <marker id="ArrowEnd" viewBox="0 0 10 10" refX="0" refY="5" 
     markerUnits="strokeWidth" 
     markerWidth="4" 
     markerHeight="3" 
     orient="auto"> 
        <path d="M 0 0 L 10 5 L 0 10 z" /> 
    </marker>
    <marker id="ArrowStart" viewBox="0 0 10 10" refX="10" refY="5" 
     markerUnits="strokeWidth" 
     markerWidth="4" 
     markerHeight="3" 
     orient="auto"> 
        <path d="M 10 0 L 0 5 L 10 10 z" /> 
    </marker> </defs>
<g>
<path style="stroke:#000000; stroke-width:1.4399999999999999; stroke-linecap:round; fill:none" d="M 132.539 317.184L 132.539 314.785M 262.859 317.184L 262.859 314.785M 393.179 317.184L 393.179 314.785M 132.539 33.742L 132.539 36.141M 262.859 33.742L 262.859 36.141M 393.179 33.742L 393.179 36.141"/>
<path style="stroke:#000000; stroke-width:1.4399999999999999; stroke-linecap:round; fill:none" d="M 132.539 317.184L 132.539 312.387M 262.859 317.184L 262.859 312.387M 393.179 317.184L 393.179 312.387M 132.539 33.742L 132.539 38.539M 262.859 33.742L 262.859 38.539M 393.179 33.742L 393.179 38.539"/>
<path style="stroke:none; fill-rule:evenodd; fill:#000000" d="M 128.601 342.402L 131.8 342.402L 131.8 326.703L 128.601 326.703L 128.601 337.371L 122.34 326.703L 119.004 326.703L 119.004 342.402L 122.203 342.402L 122.203 331.52L 128.601 342.402z"/>
<path style="stroke:none; fill-rule:evenodd; fill:#000000" d="M 138 336.801L 142.039 336.801C 144.933 336.801 146.793 334.758 146.793 331.57C 146.793 328.43 145.007 326.703 141.73 326.703L 134.797 326.703L 134.797 342.402L 137.996 342.402L 138 336.801zM 138 334.102L 138 329.402L 141.047 329.402C 142.789 329.402 143.593 330.152 143.593 331.762C 143.593 333.348 142.789 334.098 141.047 334.098L 138 334.102z"/>
<path style="stroke:none; fill-rule:evenodd; fill:#000000" d="M 262.058 333.902L 255.726 333.902L 255.726 336.602L 259.324 336.602C 259.238 337.484 259.023 338.027 258.547 338.586C 257.769 339.535 256.574 340.098 255.316 340.098C 252.695 340.098 250.808 337.824 250.808 334.609C 250.808 331.242 252.476 329.203 255.23 329.203C 256.355 329.203 257.308 329.52 258.027 330.137C 258.48 330.516 258.718 330.879 259 331.688L 262.054 331.688C 261.664 328.453 259.027 326.402 255.226 326.402C 250.691 326.402 247.601 329.75 247.601 334.652C 247.601 339.422 250.711 342.898 254.968 342.898C 257.082 342.898 258.511 342.141 259.718 340.363L 260.105 342.441L 262.05 342.441L 262.058 333.902z"/>
<path style="stroke:none; fill-rule:evenodd; fill:#000000" d="M 274.398 335.301L 274.398 342.398L 277.695 342.398L 277.695 326.699L 274.398 326.699L 274.398 332.598L 268.199 332.598L 268.199 326.699L 265 326.699L 265 342.398L 268.199 342.398L 268.199 335.301L 274.398 335.301z"/>
<path style="stroke:none; fill-rule:evenodd; fill:#000000" d="M 366.199 342.402L 369.398 342.402L 369.398 326.703L 366.199 326.703L 366.199 337.371L 359.937 326.703L 356.601 326.703L 356.601 342.402L 359.8 342.402L 359.8 331.52L 366.199 342.402z"/>
<path style="stroke:none; fill-rule:evenodd; fill:#000000" d="M 375.601 336.801L 379.64 336.801C 382.535 336.801 384.394 334.758 384.394 331.57C 384.394 328.43 382.609 326.703 379.332 326.703L 372.398 326.703L 372.398 342.402L 375.597 342.402L 375.601 336.801zM 375.601 334.102L 375.601 329.402L 378.648 329.402C 380.39 329.402 381.195 330.152 381.195 331.762C 381.195 333.348 380.39 334.098 378.648 334.098L 375.601 334.102z"/>
<path style="stroke:none; fill-rule:evenodd; fill:#000000" d="M 385.964 338.703L 396.847 338.703L 396.847 336.203L 385.964 336.203L 385.964 338.703z"/>
<path style="stroke:none; fill-rule:evenodd; fill:#000000" d="M 399.5 342.402L 406.574 342.402C 408.382 342.402 409.593 342.059 410.543 341.262C 411.488 340.465 412.093 339.133 412.093 337.883C 412.093 336.332 411.25 335.105 409.464 334.074C 410.922 333.086 411.492 332.18 411.492 330.848C 411.492 329.773 410.961 328.633 410.086 327.855C 409.172 327.059 408.086 326.715 406.422 326.715L 399.496 326.715L 399.5 342.402zM 402.699 329.402L 406.211 329.402C 407.695 329.402 408.496 330.016 408.496 331.16C 408.496 332.281 407.699 332.898 406.211 332.898L 402.699 332.898L 402.699 329.402zM 402.699 335.602L 406.648 335.602C 408.257 335.602 409.097 336.316 409.097 337.66C 409.097 338.98 408.257 339.695 406.648 339.695L 402.699 339.695L 402.699 335.602z"/>
<path style="stroke:none; fill-rule:evenodd; fill:#000000" d="M 414.8 342.402L 417.8 342.402L 417.8 326.703L 414.8 326.703L 414.8 342.402z"/>
<path style="stroke:none; fill-rule:evenodd; fill:#000000" d="M 423.601 335.297L 423.601 326.707L 420.601 326.707L 420.601 342.406L 423.601 342.406L 423.601 338.586L 424.808 337.27L 427.593 342.41L 431.132 342.41L 426.879 335.176L 430.851 330.785L 427.418 330.785L 423.601 335.297z"/>
<path style="stroke:#000000; stroke-width:1.4399999999999999; stroke-linecap:round; fill:none" d="M 67.5003 317.184L 69.8983 317.184M 67.5003 303.023L 69.8983 303.023M 67.5003 288.863L 69.8983 288.863M 67.5003 274.703L 69.8983 274.703M 67.5003 260.543L 69.8983 260.543M 67.5003 246.141L 69.8983 246.141M 67.5003 231.98L 69.8983 231.98M 67.5003 217.82L 69.8983 217.82M 67.5003 203.66L 69.8983 203.66M 67.5003 189.5L 69.8983 189.5M 67.5003 175.344L 69.8983 175.344M 67.5003 161.184L 69.8983 161.184M 67.5003 147.023L 69.8983 147.023M 67.5003 132.863L 69.8983 132.863M 67.5003 118.703L 69.8983 118.703M 67.5003 104.543L 69.8983 104.543M 67.5003 90.383L 69.8983 90.383M 67.5003 76.223L 69.8983 76.223M 67.5003 62.062L 69.8983 62.062M 67.5003 47.902L 69.8983 47.902M 67.5003 33.742L 69.8983 33.742M 458.461 317.184L 456.062 317.184M 458.461 303.023L 456.062 303.023M 458.461 288.863L 456.062 288.863M 458.461 274.703L 456.062 274.703M 458.461 260.543L 456.062 260.543M 458.461 246.141L 456.062 246.141M 458.461 231.98L 456.062 231.98M 458.461 217.82L 456.062 217.82M 458.461 203.66L 456.062 203.66M 458.461 189.5L 456.062 189.5M 458.461 175.344L 456.062 175.344M 458.461 161.184L 456.062 161.184M 458.461 147.023L 456.062 147.023M 458.461 132.863L 456.062 132.863M 458.461 118.703L 456.062 118.703M 458.461 104.543L 456.062 104.543M 458.461 90.383L 456.062 90.383M 458.461 76.223L 456.062 76.223M 458.461 62.062L 456.062 62.062M 458.461 47.902L 456.062 47.902M 458.461 33.742L 456.062 33.742"/>
<path style="stroke:#000000; stroke-width:1.4399999999999999; stroke-linecap:round; fill:none" d="M 67.5003 317.184L 72.2973 317.184M 67.5003 246.141L 72.2973 246.141M 67.5003 175.344L 72.2973 175.344M 67.5003 104.543L 72.2973 104.543M 67.5003 33.742L 72.2973 33.742M 458.461 317.184L 453.664 317.184M 458.461 246.141L 453.664 246.141M 458.461 175.344L 453.664 175.344M 458.461 104.543L 453.664 104.543M 458.461 33.742L 453.664 33.742"/>
<path style="stroke:none; fill-rule:evenodd; fill:#000000" d="M 47.5503 309.102C 46.1443 309.102 44.8633 309.73 44.0743 310.801C 43.0933 312.137 42.6053 314.184 42.6053 317.008C 42.6053 322.156 44.3083 324.895 47.5543 324.895C 50.7543 324.895 52.5043 322.16 52.5043 317.137C 52.5043 314.164 52.0353 312.18 51.0313 310.801C 50.2463 309.715 48.9843 309.102 47.5543 309.102L 47.5503 309.102zM 47.5503 310.801C 49.5903 310.801 50.6013 312.867 50.6013 316.953C 50.6013 321.273 49.6133 323.297 47.5073 323.297C 45.5113 323.297 44.5043 321.191 44.5043 317.02C 44.5043 312.848 45.5113 310.805 47.5503 310.805L 47.5503 310.801z"/>
<path style="stroke:none; fill-rule:evenodd; fill:#000000" d="M 51.8983 238L 43.9803 238L 42.8363 246.32L 44.5973 246.32C 45.4883 245.266 46.2263 244.898 47.4253 244.898C 49.4923 244.898 50.8003 246.297 50.8003 248.559C 50.8003 250.754 49.5193 252.09 47.4293 252.09C 45.7573 252.09 44.7343 251.254 44.2773 249.535L 42.3633 249.535C 42.6213 250.789 42.8363 251.391 43.2933 251.953C 44.1563 253.117 45.7143 253.789 47.4453 253.789C 50.5393 253.789 52.7033 251.543 52.7033 248.297C 52.7033 245.273 50.6913 243.191 47.7503 243.191C 46.6723 243.191 45.8043 243.473 44.9183 244.129L 45.5233 239.891L 51.9063 239.891L 51.8983 238z"/>
<path style="stroke:none; fill-rule:evenodd; fill:#000000" d="M 35.3007 171.605L 35.3007 182.5L 37.0976 182.5L 37.0976 167.203L 35.8437 167.203C 35.1757 169.555 34.7421 169.879 31.8007 170.246L 31.8007 171.602L 35.3007 171.605z"/>
<path style="stroke:none; fill-rule:evenodd; fill:#000000" d="M 47.5503 167.203C 46.1443 167.203 44.8633 167.832 44.0743 168.902C 43.0933 170.238 42.6053 172.285 42.6053 175.109C 42.6053 180.258 44.3083 182.996 47.5543 182.996C 50.7543 182.996 52.5043 180.262 52.5043 175.238C 52.5043 172.266 52.0353 170.281 51.0313 168.902C 50.2463 167.816 48.9843 167.203 47.5543 167.203L 47.5503 167.203zM 47.5503 168.902C 49.5903 168.902 50.6013 170.969 50.6013 175.055C 50.6013 179.375 49.6133 181.398 47.5073 181.398C 45.5113 181.398 44.5043 179.293 44.5043 175.121C 44.5043 170.949 45.5113 168.906 47.5503 168.906L 47.5503 168.902z"/>
<path style="stroke:none; fill-rule:evenodd; fill:#000000" d="M 35.3007 100.805L 35.3007 111.699L 37.0976 111.699L 37.0976 96.402L 35.8437 96.402C 35.1757 98.754 34.7421 99.078 31.8007 99.445L 31.8007 100.801L 35.3007 100.805z"/>
<path style="stroke:none; fill-rule:evenodd; fill:#000000" d="M 51.8983 96.402L 43.9803 96.402L 42.8363 104.723L 44.5973 104.723C 45.4883 103.668 46.2263 103.301 47.4253 103.301C 49.4923 103.301 50.8003 104.699 50.8003 106.961C 50.8003 109.156 49.5193 110.492 47.4293 110.492C 45.7573 110.492 44.7343 109.656 44.2773 107.938L 42.3633 107.938C 42.6213 109.191 42.8363 109.793 43.2933 110.355C 44.1563 111.52 45.7143 112.191 47.4453 112.191C 50.5393 112.191 52.7033 109.945 52.7033 106.699C 52.7033 103.676 50.6913 101.594 47.7503 101.594C 46.6723 101.594 45.8043 101.875 44.9183 102.531L 45.5233 98.293L 51.9063 98.293L 51.8983 96.402z"/>
<path style="stroke:none; fill-rule:evenodd; fill:#000000" d="M 40.4923 39L 32.4687 39C 32.6601 37.75 33.3476 36.957 35.2226 35.855L 37.3711 34.695C 39.5003 33.535 40.5973 31.961 40.5973 30.086C 40.5973 28.816 40.0823 27.633 39.1753 26.812C 38.2733 25.996 37.1562 25.609 35.7148 25.609C 33.7812 25.609 32.3398 26.297 31.5 27.59C 30.9648 28.406 30.7265 29.355 30.6835 30.906L 32.582 30.906C 32.6445 29.887 32.7734 29.27 33.0351 28.777C 33.5312 27.863 34.5234 27.309 35.6718 27.309C 37.3984 27.309 38.6953 28.535 38.6953 30.168C 38.6953 31.371 37.9843 32.402 36.6211 33.18L 34.6328 34.297C 31.4375 36.102 30.5039 37.543 30.332 40.898L 40.4883 40.898L 40.4923 39z"/>
<path style="stroke:none; fill-rule:evenodd; fill:#000000" d="M 47.5503 25.602C 46.1443 25.602 44.8633 26.23 44.0743 27.301C 43.0933 28.637 42.6053 30.684 42.6053 33.508C 42.6053 38.656 44.3083 41.395 47.5543 41.395C 50.7543 41.395 52.5043 38.66 52.5043 33.637C 52.5043 30.664 52.0353 28.68 51.0313 27.301C 50.2463 26.215 48.9843 25.602 47.5543 25.602L 47.5503 25.602zM 47.5503 27.301C 49.5903 27.301 50.6013 29.367 50.6013 33.453C 50.6013 37.773 49.6133 39.797 47.5073 39.797C 45.5113 39.797 44.5043 37.691 44.5043 33.52C 44.5043 29.348 45.5113 27.305 47.5503 27.305L 47.5503 27.301z"/>
<path style="stroke:none; fill-rule:evenodd; fill:#000000" d="M 12.5 222.082L 15.6992 221.047L 15.6992 217.723L 0 223.164L 0 226.75L 15.6992 232.344L 15.6992 229.039L 12.5 227.984L 12.5 222.082zM 9.8007 222.965L 9.8007 227.066L 3.6718 225.016L 9.8007 222.965z"/>
<path style="stroke:none; fill-rule:evenodd; fill:#000000" d="M 15.6992 215.5L 15.6992 208.426C 15.6992 206.617 15.3554 205.406 14.5585 204.457C 13.7617 203.512 12.4296 202.906 11.1796 202.906C 9.6289 202.906 8.4023 203.75 7.37111 205.535C 6.3828 204.078 5.47651 203.508 4.1445 203.508C 3.0703 203.508 1.9296 204.039 1.1523 204.914C 0.359303 205.828 0.0117035 206.914 0.0117035 208.578L 0.0117035 215.504L 15.6992 215.5zM 2.6992 212.301L 2.6992 208.789C 2.6992 207.305 3.3125 206.504 4.457 206.504C 5.5781 206.504 6.1953 207.301 6.1953 208.789L 6.1953 212.301L 2.6992 212.301zM 8.9023 212.301L 8.9023 208.352C 8.9023 206.742 9.6171 205.902 10.9609 205.902C 12.2812 205.902 12.9961 206.742 12.9961 208.352L 12.9961 212.301L 8.9023 212.301z"/>
<path style="stroke:none; fill-rule:evenodd; fill:#000000" d="M 9.5 200.84L 12 200.84L 12 189.957L 9.5 189.957L 9.5 200.84z"/>
<path style="stroke:none; fill-rule:evenodd; fill:#000000" d="M 8.9023 178.203L 8.9023 170.621L 6.2031 170.621L 6.2031 178.203L 2.7031 178.203L 2.7031 170.016L 0.00390244 170.016L 0.00390244 181.402L 15.7031 181.402L 15.7031 169.625L 13.0039 169.625L 13.0039 178.203L 8.9023 178.203z"/>
<path style="stroke:none; fill-rule:evenodd; fill:#000000" d="M 4 167.301L 15.6992 167.301L 15.6992 164.301L 9.5429 164.301C 7.7851 164.301 6.9023 163.422 6.9023 161.656C 6.9023 161.336 6.9101 161.121 6.9296 160.711L 3.9023 160.711C 3.9023 160.883 3.9023 160.988 3.9023 161.074C 3.9023 162.449 4.7851 163.652 6.3281 164.301L 4.0039 164.301L 4 167.301z"/>
<path style="stroke:none; fill-rule:evenodd; fill:#000000" d="M 4 158.902L 15.6992 158.902L 15.6992 155.902L 9.5429 155.902C 7.7851 155.902 6.9023 155.023 6.9023 153.258C 6.9023 152.938 6.9101 152.723 6.9296 152.312L 3.9023 152.312C 3.9023 152.484 3.9023 152.59 3.9023 152.676C 3.9023 154.051 4.7851 155.254 6.3281 155.902L 4.0039 155.902L 4 158.902z"/>
<path style="stroke:none; fill-rule:evenodd; fill:#000000" d="M 3.8007 145.375C 3.8007 148.926 6.16401 151.102 10 151.102C 13.8554 151.102 16.1953 148.93 16.1953 145.355C 16.1953 141.828 13.8359 139.605 10.0859 139.605C 6.12111 139.605 3.8007 141.738 3.8007 145.375zM 6.1992 145.352C 6.1992 143.688 7.7148 142.602 10.0429 142.602C 12.2578 142.602 13.7968 143.727 13.7968 145.352C 13.7968 146.996 12.2617 148.098 10 148.098C 7.7382 148.098 6.2031 146.996 6.2031 145.352L 6.1992 145.352z"/>
<path style="stroke:none; fill-rule:evenodd; fill:#000000" d="M 4 137.301L 15.6992 137.301L 15.6992 134.301L 9.5429 134.301C 7.7851 134.301 6.9023 133.422 6.9023 131.656C 6.9023 131.336 6.9101 131.121 6.9296 130.711L 3.9023 130.711C 3.9023 130.883 3.9023 130.988 3.9023 131.074C 3.9023 132.449 4.7851 133.652 6.3281 134.301L 4.0039 134.301L 4 137.301z"/>
<path style="stroke:none; fill-rule:evenodd; fill:#000000" d="M 7.7968 119.395C 5.3125 119.438 3.8046 121.344 3.8046 124.488C 3.8046 127.457 5.2968 129.301 7.6992 129.301C 8.47651 129.301 9.1484 129.062 9.60151 128.652C 10.0117 128.242 10.207 127.875 10.5742 126.746L 11.6992 123.129C 11.9335 122.371 12.1718 122.109 12.6484 122.109C 13.3593 122.109 13.7929 122.949 13.7929 124.352C 13.7929 125.125 13.6445 125.75 13.3906 126.141C 13.1601 126.461 12.9257 126.59 12.3046 126.719L 12.3046 129.672C 14.8554 129.586 16.1953 127.715 16.1953 124.184C 16.1953 122.57 15.8515 121.344 15.1601 120.48C 14.4687 119.621 13.3867 119.102 12.2421 119.102C 10.7304 119.102 9.7539 119.859 9.3007 121.398L 8.1992 125.234C 7.9414 126.078 7.7695 126.293 7.2929 126.293C 6.6445 126.293 6.2109 125.598 6.2109 124.531C 6.2109 123.074 6.7343 122.355 7.8046 122.332L 7.7968 119.395z"/>
<path style="stroke:none; fill-rule:evenodd; fill:#000000" d="M 119 2.703L 123.613 2.703L 123.613 0.0039978L 111 0.0039978L 111 2.703L 115.797 2.703L 115.797 15.703L 118.996 15.703L 119 2.703z"/>
<path style="stroke:none; fill-rule:evenodd; fill:#000000" d="M 125.3 4L 125.3 15.699L 128.3 15.699L 128.3 9.543C 128.3 7.785 129.179 6.90201 130.945 6.90201C 131.265 6.90201 131.48 6.91 131.89 6.92999L 131.89 3.90201C 131.718 3.90201 131.613 3.90201 131.527 3.90201C 130.152 3.90201 128.949 4.785 128.3 6.328L 128.3 4.004L 125.3 4z"/>
<path style="stroke:none; fill-rule:evenodd; fill:#000000" d="M 143.617 15.332C 143.058 14.836 142.902 14.512 142.902 13.902L 142.902 7.40201C 142.902 5.01999 141.289 3.80499 138.144 3.80499C 135 3.80499 133.367 5.15601 133.172 7.883L 136.058 7.883C 136.207 6.61301 136.699 6.203 138.172 6.203C 139.324 6.203 139.902 6.59399 139.902 7.379C 139.902 7.76999 139.711 8.117 139.39 8.293C 138.984 8.508 138.984 8.508 137.507 8.746L 136.312 8.961C 134.023 9.35199 132.91 10.551 132.91 12.66C 132.91 13.66 133.187 14.488 133.718 15.078C 134.379 15.773 135.382 16.188 136.406 16.188C 137.683 16.188 138.859 15.625 139.906 14.52C 139.906 15.125 139.968 15.34 140.257 15.688L 143.621 15.688L 143.617 15.332zM 139.902 11.023C 139.902 12.793 139.047 13.797 137.527 13.797C 136.523 13.797 135.902 13.254 135.902 12.379C 135.902 11.461 136.371 11.027 137.613 10.762L 138.636 10.566C 139.425 10.414 139.554 10.371 139.898 10.199L 139.902 11.023z"/>
<path style="stroke:none; fill-rule:evenodd; fill:#000000" d="M 148.8 4.039L 145.8 4.039L 145.8 15.699L 148.8 15.699L 148.8 4.039zM 148.8 0L 145.8 0L 145.8 2.69901L 148.8 2.69901L 148.8 0z"/>
<path style="stroke:none; fill-rule:evenodd; fill:#000000" d="M 151.699 4L 151.699 15.699L 154.699 15.699L 154.699 8.621C 154.699 7.22299 155.672 6.30499 157.144 6.30499C 158.441 6.30499 159.093 7.02701 159.093 8.422L 159.093 15.699L 162.093 15.699L 162.093 7.85501C 162.093 5.27701 160.672 3.80099 158.191 3.80099C 156.617 3.80099 155.562 4.39499 154.699 5.71899L 154.699 4L 151.699 4z"/>
<path style="stroke:none; fill-rule:evenodd; fill:#000000" d="M 168 4.039L 165 4.039L 165 15.699L 168 15.699L 168 4.039zM 168 0L 165 0L 165 2.69901L 168 2.69901L 168 0z"/>
<path style="stroke:none; fill-rule:evenodd; fill:#000000" d="M 170.902 4L 170.902 15.699L 173.902 15.699L 173.902 8.621C 173.902 7.22299 174.875 6.30499 176.347 6.30499C 177.644 6.30499 178.297 7.02701 178.297 8.422L 178.297 15.699L 181.297 15.699L 181.297 7.85501C 181.297 5.27701 179.875 3.80099 177.394 3.80099C 175.82 3.80099 174.765 4.39499 173.902 5.71899L 173.902 4L 170.902 4z"/>
<path style="stroke:none; fill-rule:evenodd; fill:#000000" d="M 191.5 3.996L 191.5 5.789C 190.59 4.40601 189.593 3.797 188.25 3.797C 185.48 3.797 183.402 6.508 183.402 10.125C 183.402 13.766 185.304 16.191 188.183 16.191C 189.547 16.191 190.367 15.781 191.496 14.504L 191.496 16.094C 191.496 17.508 190.441 18.488 188.929 18.488C 187.789 18.488 187.035 18.004 186.797 17.094L 183.672 17.094C 183.691 17.996 184.039 18.621 184.816 19.27C 185.746 20.023 187.043 20.387 188.836 20.387C 192.359 20.387 194.394 18.809 194.394 16.059L 194.394 3.98401L 191.5 3.996zM 188.89 6.30099C 190.418 6.30099 191.554 7.89801 191.554 10.086C 191.554 12.23 190.441 13.695 188.847 13.695C 187.406 13.695 186.402 12.23 186.402 10.086C 186.402 7.85501 187.406 6.30099 188.89 6.30099z"/>
<path style="stroke:none; fill-rule:evenodd; fill:#000000" d="M 208.425 3.80099C 204.875 3.80099 202.699 6.164 202.699 10C 202.699 13.855 204.871 16.195 208.445 16.195C 211.972 16.195 214.195 13.836 214.195 10.086C 214.195 6.121 212.062 3.80099 208.425 3.80099zM 208.449 6.203C 210.113 6.203 211.199 7.71899 211.199 10.047C 211.199 12.262 210.074 13.801 208.449 13.801C 206.804 13.801 205.703 12.266 205.703 10.004C 205.703 7.742 206.804 6.207 208.449 6.207L 208.449 6.203z"/>
<path style="stroke:none; fill-rule:evenodd; fill:#000000" d="M 216.5 4L 216.5 15.699L 219.5 15.699L 219.5 8.621C 219.5 7.22299 220.472 6.30499 221.945 6.30499C 223.242 6.30499 223.894 7.02701 223.894 8.422L 223.894 15.699L 226.894 15.699L 226.894 7.85501C 226.894 5.27701 225.472 3.80099 222.992 3.80099C 221.418 3.80099 220.363 4.39499 219.5 5.71899L 219.5 4L 216.5 4z"/>
<path style="stroke:none; fill-rule:evenodd; fill:#000000" d="M 245.402 15.703L 248.601 15.703L 248.601 0.0039978L 245.402 0.0039978L 245.402 10.672L 239.14 0.0039978L 235.804 0.0039978L 235.804 15.703L 239.004 15.703L 239.004 4.82001L 245.402 15.703z"/>
<path style="stroke:none; fill-rule:evenodd; fill:#000000" d="M 254.8 10.102L 258.84 10.102C 261.734 10.102 263.593 8.05899 263.593 4.871C 263.593 1.73001 261.808 0.0039978 258.531 0.0039978L 251.597 0.0039978L 251.597 15.703L 254.797 15.703L 254.8 10.102zM 254.8 7.40201L 254.8 2.703L 257.847 2.703C 259.59 2.703 260.394 3.453 260.394 5.06201C 260.394 6.64801 259.59 7.39801 257.847 7.39801L 254.8 7.40201z"/>
<path style="stroke:none; fill-rule:evenodd; fill:#000000" d="M 281.617 15.332C 281.058 14.836 280.902 14.512 280.902 13.902L 280.902 7.40201C 280.902 5.01999 279.289 3.80499 276.144 3.80499C 273 3.80499 271.367 5.15601 271.172 7.883L 274.058 7.883C 274.207 6.61301 274.699 6.203 276.172 6.203C 277.324 6.203 277.902 6.59399 277.902 7.379C 277.902 7.76999 277.711 8.117 277.39 8.293C 276.984 8.508 276.984 8.508 275.507 8.746L 274.312 8.961C 272.023 9.35199 270.91 10.551 270.91 12.66C 270.91 13.66 271.187 14.488 271.718 15.078C 272.379 15.773 273.382 16.188 274.406 16.188C 275.683 16.188 276.859 15.625 277.906 14.52C 277.906 15.125 277.968 15.34 278.257 15.688L 281.621 15.688L 281.617 15.332zM 277.902 11.023C 277.902 12.793 277.047 13.797 275.527 13.797C 274.523 13.797 273.902 13.254 273.902 12.379C 273.902 11.461 274.371 11.027 275.613 10.762L 276.636 10.566C 277.425 10.414 277.554 10.371 277.898 10.199L 277.902 11.023z"/>
<path style="stroke:none; fill-rule:evenodd; fill:#000000" d="M 289.16 4.30099L 287.402 4.30099L 287.402 3.18799C 287.402 2.60199 287.656 2.30499 288.207 2.30499C 288.461 2.30499 288.797 2.30099 289.05 2.293L 289.05 0.0700073C 288.496 0.0310059 287.75 0.00799561 287.343 0.00799561C 285.363 0.00799561 284.402 0.953003 284.402 2.91L 284.402 4.30499L 282.707 4.30499L 282.707 6.30499L 284.402 6.30499L 284.402 15.703L 287.402 15.703L 287.402 6.30499L 289.16 6.30499L 289.16 4.30099z"/>
<path style="stroke:none; fill-rule:evenodd; fill:#000000" d="M 296.004 4.30099L 294.304 4.30099L 294.304 1.14499L 291.304 1.14499L 291.304 4.30099L 289.808 4.30099L 289.808 6.30099L 291.304 6.30099L 291.304 13.461C 291.304 15.293 292.273 16.199 294.257 16.199C 294.925 16.199 295.464 16.137 296.004 15.965L 296.004 13.848C 295.699 13.883 295.527 13.902 295.308 13.902C 294.504 13.902 294.304 13.668 294.304 12.633L 294.304 6.30499L 296.004 6.30499L 296.004 4.30099z"/>
<path style="stroke:none; fill-rule:evenodd; fill:#000000" d="M 308.019 10.801C 308.039 10.543 308.039 10.434 308.039 10.281C 308.039 9.11301 307.867 8.02701 307.586 7.207C 306.812 5.086 304.929 3.80499 302.578 3.80499C 299.23 3.80499 297.179 6.23401 297.179 10.156C 297.179 13.906 299.207 16.203 302.511 16.203C 305.121 16.203 307.238 14.715 307.91 12.422L 304.929 12.422C 304.566 13.359 303.722 13.902 302.621 13.902C 301.757 13.902 301.066 13.535 300.636 12.879C 300.359 12.445 300.25 11.922 300.207 10.809L 308.019 10.801zM 300.242 8.80099C 300.433 7.004 301.191 6.10199 302.527 6.10199C 303.281 6.10199 303.972 6.47299 304.406 7.086C 304.683 7.52301 304.812 7.98401 304.879 8.797L 300.242 8.80099z"/>
<path style="stroke:none; fill-rule:evenodd; fill:#000000" d="M 310.101 4L 310.101 15.699L 313.101 15.699L 313.101 9.543C 313.101 7.785 313.98 6.90201 315.746 6.90201C 316.066 6.90201 316.281 6.91 316.691 6.92999L 316.691 3.90201C 316.519 3.90201 316.414 3.90201 316.328 3.90201C 314.953 3.90201 313.75 4.785 313.101 6.328L 313.101 4.004L 310.101 4z"/>
<path style="stroke:none; fill-rule:evenodd; fill:#000000" d="M 334.019 12.5L 335.054 15.699L 338.379 15.699L 332.937 0L 329.351 0L 323.757 15.699L 327.062 15.699L 328.117 12.5L 334.019 12.5zM 333.136 9.80099L 329.035 9.80099L 331.086 3.672L 333.136 9.80099z"/>
<path style="stroke:none; fill-rule:evenodd; fill:#000000" d="M 350.312 9.40201L 346.402 9.40201L 346.402 5.48801L 343.804 5.48801L 343.804 9.40201L 339.886 9.40201L 339.886 11.902L 343.804 11.902L 343.804 15.902L 346.402 15.902L 346.402 11.902L 350.312 11.902L 350.312 9.40201z"/>
<path style="stroke:none; fill-rule:evenodd; fill:#000000" d="M 365.699 2.703L 370.312 2.703L 370.312 0.0039978L 357.699 0.0039978L 357.699 2.703L 362.496 2.703L 362.496 15.703L 365.695 15.703L 365.699 2.703z"/>
<path style="stroke:none; fill-rule:evenodd; fill:#000000" d="M 372 4L 372 15.699L 375 15.699L 375 9.543C 375 7.785 375.879 6.90201 377.644 6.90201C 377.964 6.90201 378.179 6.91 378.59 6.92999L 378.59 3.90201C 378.418 3.90201 378.312 3.90201 378.226 3.90201C 376.851 3.90201 375.648 4.785 375 6.328L 375 4.004L 372 4z"/>
<path style="stroke:none; fill-rule:evenodd; fill:#000000" d="M 383.5 4.039L 380.5 4.039L 380.5 15.699L 383.5 15.699L 383.5 4.039zM 383.5 0L 380.5 0L 380.5 2.69901L 383.5 2.69901L 383.5 0z"/>
<path style="stroke:none; fill-rule:evenodd; fill:#000000" d="M 396.32 15.332C 395.761 14.836 395.605 14.512 395.605 13.902L 395.605 7.40201C 395.605 5.01999 393.992 3.80499 390.847 3.80499C 387.703 3.80499 386.07 5.15601 385.875 7.883L 388.761 7.883C 388.91 6.61301 389.402 6.203 390.875 6.203C 392.027 6.203 392.605 6.59399 392.605 7.379C 392.605 7.76999 392.414 8.117 392.093 8.293C 391.687 8.508 391.687 8.508 390.211 8.746L 389.015 8.961C 386.726 9.35199 385.613 10.551 385.613 12.66C 385.613 13.66 385.89 14.488 386.422 15.078C 387.082 15.773 388.086 16.188 389.109 16.188C 390.386 16.188 391.562 15.625 392.609 14.52C 392.609 15.125 392.672 15.34 392.961 15.688L 396.324 15.688L 396.32 15.332zM 392.601 11.023C 392.601 12.793 391.746 13.797 390.226 13.797C 389.222 13.797 388.601 13.254 388.601 12.379C 388.601 11.461 389.07 11.027 390.312 10.762L 391.336 10.566C 392.125 10.414 392.254 10.371 392.597 10.199L 392.601 11.023z"/>
<path style="stroke:none; fill-rule:evenodd; fill:#000000" d="M 398.5 15.703L 401.5 15.703L 401.5 0.0039978L 398.5 0.0039978L 398.5 15.703z"/>
<path style="stroke:none; fill-rule:evenodd; fill:#000000" d="M 413.91 7.797C 413.867 5.31201 411.961 3.80499 408.816 3.80499C 405.847 3.80499 404.004 5.297 404.004 7.69901C 404.004 8.47699 404.242 9.14801 404.652 9.60199C 405.062 10.012 405.429 10.207 406.558 10.574L 410.175 11.699C 410.933 11.934 411.195 12.172 411.195 12.648C 411.195 13.359 410.355 13.793 408.953 13.793C 408.179 13.793 407.554 13.645 407.164 13.391C 406.843 13.16 406.714 12.926 406.586 12.305L 403.632 12.305C 403.718 14.855 405.59 16.195 409.121 16.195C 410.734 16.195 411.961 15.852 412.824 15.16C 413.683 14.469 414.203 13.387 414.203 12.242C 414.203 10.73 413.445 9.754 411.906 9.30099L 408.07 8.19901C 407.226 7.94101 407.011 7.76999 407.011 7.293C 407.011 6.64499 407.707 6.211 408.773 6.211C 410.23 6.211 410.949 6.73401 410.972 7.80499L 413.91 7.797z"/>
<path style="stroke:none; fill-rule:evenodd; fill:#ffffff" d="M 95.8203 317.184L 169.5 317.184L 169.5 283.348L 95.8203 283.348L 95.8203 317.184z"/>
<path style="stroke:#ffffff; stroke-width:1.4399999999999999; stroke-linecap:round; fill:none" d="M 95.8203 317.184L 169.5 317.184L 169.5 283.348L 95.8203 283.348L 95.8203 317.184z"/>
<path style="stroke:none; fill-rule:evenodd; fill:#ffffff" d="M 226.14 317.184L 299.82 317.184L 299.82 184.707L 226.14 184.707L 226.14 317.184z"/>
<path style="stroke:#ffffff; stroke-width:1.4399999999999999; stroke-linecap:round; fill:none" d="M 226.14 317.184L 299.82 317.184L 299.82 184.707L 226.14 184.707L 226.14 317.184z"/>
<path style="stroke:none; fill-rule:evenodd; fill:#ffffff" d="M 356.218 317.184L 430.136 317.184L 430.136 145.586L 356.218 145.586L 356.218 317.184z"/>
<path style="stroke:#ffffff; stroke-width:1.4399999999999999; stroke-linecap:round; fill:none" d="M 356.218 317.184L 430.136 317.184L 430.136 145.586L 356.218 145.586L 356.218 317.184z"/>
<path style="stroke:#000000; stroke-width:1.4399999999999999; stroke-linecap:round; fill:none" d="M 95.8203 317.184L 169.5 317.184L 169.5 283.348L 95.8203 283.348L 95.8203 317.184z"/>
<path style="stroke:#000000; stroke-width:1.4399999999999999; stroke-linecap:round; fill:none" d="M 226.14 317.184L 299.82 317.184L 299.82 184.707L 226.14 184.707L 226.14 317.184z"/>
<path style="stroke:#000000; stroke-width:1.4399999999999999; stroke-linecap:round; fill:none" d="M 356.218 317.184L 430.136 317.184L 430.136 145.586L 356.218 145.586L 356.218 317.184z"/>
<path style="stroke:#000000; stroke-width:1.4399999999999999; stroke-linecap:round; fill:none" d="M 132.539 293.184L 132.539 273.504M 262.859 211.582L 262.859 157.582M 393.179 179.422L 393.179 111.984"/>
<path style="stroke:#000000; stroke-width:1.4399999999999999; stroke-linecap:round; fill:none" d="M 123.422 293.184L 141.66 293.184M 123.422 273.5L 141.66 273.5M 253.742 211.582L 271.98 211.582M 253.742 157.582L 271.98 157.582M 384.058 179.422L 402.297 179.422M 384.058 111.98L 402.297 111.98"/>
<path style="stroke:#000000; stroke-width:1.4399999999999999; stroke-linecap:round; fill:none" d="M 67.5003 317.184L 458.457 317.184L 458.457 33.746L 67.5003 33.746L 67.5003 317.184z"/>
</g>
</svg>