<?xml version="1.0" encoding="ISO-8859-1" standalone="yes"?>
<svg width="440.848" height="255.438">
  <defs> 
    <marker id="ArrowEnd" viewBox="0 0 10 10" refX="0" refY="5" 
     markerUnits="strokeWidth" 
     markerWidth="4" 
     markerHeight="3" 
     orient="auto"> 
        <path d="M 0 0 L 10 5 L 0 10 z" /> 
    </marker>
    <marker id="ArrowStart" viewBox="0 0 10 10" refX="10" refY="5" 
     markerUnits="strokeWidth" 
     markerWidth="4" 
     markerHeight="3" 
     orient="auto"> 
        <path d="M 10 0 L 0 5 L 10 10 z" /> 
    </marker> </defs>
<g>
<path style="stroke:none; fill-rule:evenodd; fill:#ffffff" d="M 170.555 195.148L 428.106 195.148L 428.106 10.0273L 170.555 10.0273L 170.555 195.148z"/>
<path style="stroke:#ffffff; stroke-dasharray:6,3; stroke-width:1.9133; fill:none" d="M 170.555 195.148L 428.106 195.148L 428.106 10.0273L 170.555 10.0273L 170.555 195.148z"/>
<path style="stroke:#000000; stroke-width:1.9133; fill:none" d="M 371.512 36.9453C 371.512 25.0623 339.383 15.4303 299.746 15.4303C 260.114 15.4303 227.981 25.0623 227.981 36.9453C 227.981 48.8283 260.11 58.4613 299.746 58.4613C 339.379 58.4613 371.512 48.8283 371.512 36.9453"/>
<path style="stroke:#000000; stroke-width:0.95664899999999997; fill:none" d="M 267.871 107.125C 267.871 98.6763 256.739 91.8203 243 91.8203C 229.266 91.8203 218.129 98.6723 218.129 107.125C 218.129 115.574 229.262 122.43 243 122.43C 256.735 122.43 267.871 115.578 267.871 107.125"/>
<path style="stroke:none; fill-rule:evenodd; fill:#000000" d="M 194.188 101.539L 190.293 101.539L 190.293 103.238L 192.504 103.238C 192.454 103.793 192.321 104.133 192.028 104.488C 191.551 105.082 190.817 105.437 190.043 105.437C 188.43 105.437 187.27 104.019 187.27 102.012C 187.27 99.9143 188.293 98.6413 189.989 98.6413C 190.68 98.6413 191.266 98.8403 191.707 99.2273C 191.985 99.4653 192.133 99.6913 192.305 100.195L 194.184 100.195C 193.946 98.2033 192.317 96.9413 189.969 96.9413C 187.172 96.9413 185.266 99.0123 185.266 102.039C 185.266 104.988 187.184 107.137 189.813 107.137C 191.118 107.137 191.996 106.668 192.746 105.559L 192.985 106.851L 194.184 106.851L 194.188 101.539z"/>
<path style="stroke:none; fill-rule:evenodd; fill:#000000" d="M 200.25 96.9413C 198.887 96.9413 197.762 97.3943 196.93 98.2893C 196.063 99.2233 195.567 100.582 195.567 102.039C 195.567 103.492 196.059 104.867 196.93 105.789C 197.77 106.695 198.868 107.137 200.262 107.137C 201.653 107.137 202.75 106.699 203.594 105.789C 204.434 104.898 204.957 103.48 204.957 102.105C 204.957 100.586 204.465 99.2233 203.594 98.2893C 202.739 97.3713 201.657 96.9413 200.25 96.9413zM 200.266 98.6413C 201.914 98.6413 202.965 99.9773 202.965 102.094C 202.965 104.086 201.879 105.437 200.266 105.437C 198.641 105.437 197.567 104.086 197.567 102.039C 197.567 99.9923 198.641 98.6413 200.266 98.6413z"/>
<path style="stroke:#000000; stroke-width:0.95664899999999997; fill:none" d="M 218.125 107.125C 218.125 98.6763 206.993 91.8203 193.254 91.8203C 179.52 91.8203 168.383 98.6723 168.383 107.125C 168.383 115.574 179.516 122.43 193.254 122.43C 206.989 122.43 218.125 115.578 218.125 107.125"/>
<path style="stroke:#000000; stroke-width:1.9133; fill:none" d="M 273.551 112.824C 273.551 98.1413 247.129 86.2303 214.536 86.2303C 181.942 86.2303 155.52 98.1373 155.52 112.824C 155.52 127.508 181.942 139.418 214.536 139.418C 247.129 139.418 273.551 127.512 273.551 112.824"/>
<path style="stroke:#000000; stroke-width:1.9133; fill:none" d="M 303.758 226.278C 303.758 215.715 289.2 207.145 271.235 207.145C 253.274 207.145 238.711 215.707 238.711 226.278C 238.711 236.84 253.274 245.41 271.235 245.41C 289.196 245.41 303.758 236.848 303.758 226.278"/>
<path style="stroke:#000000; stroke-width:1.9133; fill:none" d="M 300.399 163.555C 300.399 152.992 285.84 144.422 267.875 144.422C 249.914 144.422 235.352 152.984 235.352 163.555C 235.352 174.117 249.914 182.687 267.875 182.687C 285.836 182.687 300.399 174.125 300.399 163.555"/>
<path style="stroke:none; fill-rule:evenodd; fill:#000000" d="M 262.586 163.742L 258.692 163.742L 258.692 165.441L 260.903 165.441C 260.852 165.996 260.719 166.336 260.426 166.691C 259.95 167.285 259.215 167.641 258.442 167.641C 256.828 167.641 255.668 166.223 255.668 164.215C 255.668 162.117 256.692 160.844 258.387 160.844C 259.078 160.844 259.664 161.043 260.106 161.43C 260.383 161.668 260.532 161.894 260.704 162.398L 262.582 162.398C 262.344 160.406 260.715 159.144 258.368 159.144C 255.571 159.144 253.664 161.215 253.664 164.242C 253.664 167.191 255.582 169.34 258.211 169.34C 259.516 169.34 260.395 168.871 261.145 167.762L 261.383 169.055L 262.582 169.055L 262.586 163.742z"/>
<path style="stroke:none; fill-rule:evenodd; fill:#000000" d="M 266.465 165.539L 268.989 165.539C 270.797 165.539 271.961 164.266 271.961 162.277C 271.961 160.316 270.844 159.242 268.797 159.242L 264.465 159.242L 264.465 169.039L 266.465 169.039L 266.465 165.539zM 266.465 163.84L 266.465 160.941L 268.368 160.941C 269.454 160.941 269.957 161.402 269.957 162.394C 269.957 163.371 269.454 163.836 268.368 163.836L 266.465 163.84z"/>
<path style="stroke:none; fill-rule:evenodd; fill:#000000" d="M 279.383 166.039C 279.395 165.879 279.395 165.809 279.395 165.715C 279.395 164.98 279.289 164.301 279.118 163.781C 278.637 162.449 277.473 161.644 276.012 161.644C 273.938 161.644 272.664 163.152 272.664 165.586C 272.664 167.91 273.922 169.34 275.969 169.34C 277.586 169.34 278.899 168.422 279.317 167.004L 277.469 167.004C 277.243 167.594 276.719 167.937 276.039 167.937C 275.504 167.937 275.078 167.711 274.809 167.309C 274.637 167.043 274.571 166.723 274.543 166.039L 279.383 166.039zM 274.559 164.84C 274.676 163.641 275.145 163.043 275.977 163.043C 276.446 163.043 276.871 163.289 277.141 163.699C 277.313 163.992 277.395 164.297 277.434 164.84L 274.559 164.84z"/>
<path style="stroke:#000000; stroke-width:1.9133; fill:none" d="M 430.821 199.528C 430.821 189.922 415.454 182.137 396.489 182.137C 377.528 182.137 362.157 189.922 362.157 199.528C 362.157 209.133 377.524 216.918 396.489 216.918C 415.45 216.918 430.821 209.133 430.821 199.528"/>
<path style="stroke:none; fill-rule:evenodd; fill:#ff0000" d="M 247.793 210.473C 247.793 208.364 246.082 206.649 243.969 206.649C 241.86 206.649 240.145 208.36 240.145 210.473C 240.145 212.582 241.856 214.297 243.969 214.297C 246.078 214.297 247.793 212.586 247.793 210.473"/>
<path style="stroke:#ff0000; stroke-width:1.9133; fill:none" d="M 247.793 210.473C 247.793 208.364 246.082 206.649 243.969 206.649C 241.86 206.649 240.145 208.36 240.145 210.473C 240.145 212.582 241.856 214.297 243.969 214.297C 246.078 214.297 247.793 212.586 247.793 210.473"/>
<path style="stroke:none; fill-rule:evenodd; fill:#ff0000" d="M 281.774 204.293C 281.774 202.184 280.063 200.469 277.95 200.469C 275.84 200.469 274.125 202.18 274.125 204.293C 274.125 206.403 275.836 208.117 277.95 208.117C 280.059 208.117 281.774 206.407 281.774 204.293"/>
<path style="stroke:#ff0000; stroke-width:1.9133; fill:none" d="M 281.774 204.293C 281.774 202.184 280.063 200.469 277.95 200.469C 275.84 200.469 274.125 202.18 274.125 204.293C 274.125 206.403 275.836 208.117 277.95 208.117C 280.059 208.117 281.774 206.407 281.774 204.293"/>
<path style="stroke:none; fill-rule:evenodd; fill:#ff0000" d="M 264.043 143C 264.043 140.891 262.332 139.176 260.219 139.176C 258.11 139.176 256.395 140.887 256.395 143C 256.395 145.109 258.106 146.824 260.219 146.824C 262.328 146.824 264.043 145.113 264.043 143"/>
<path style="stroke:#ff0000; stroke-width:1.9133; fill:none" d="M 264.043 143C 264.043 140.891 262.332 139.176 260.219 139.176C 258.11 139.176 256.395 140.887 256.395 143C 256.395 145.109 258.106 146.824 260.219 146.824C 262.328 146.824 264.043 145.113 264.043 143"/>
<path style="stroke:none; fill-rule:evenodd; fill:#ff0000" d="M 360.664 204.227C 360.664 202.117 358.954 200.403 356.84 200.403C 354.731 200.403 353.016 202.114 353.016 204.227C 353.016 206.336 354.727 208.051 356.84 208.051C 358.95 208.051 360.664 206.34 360.664 204.227"/>
<path style="stroke:#ff0000; stroke-width:1.9133; fill:none" d="M 360.664 204.227C 360.664 202.117 358.954 200.403 356.84 200.403C 354.731 200.403 353.016 202.114 353.016 204.227C 353.016 206.336 354.727 208.051 356.84 208.051C 358.95 208.051 360.664 206.34 360.664 204.227"/>
<path style="stroke:none; fill-rule:evenodd; fill:#00ff00" d="M 177.766 116.141C 177.364 116.141 177.118 116.355 177.118 116.738C 177.118 116.918 177.207 117.109 177.356 117.215C 177.457 117.297 177.606 117.332 177.879 117.332L 180.215 117.332C 181.207 117.332 181.895 117.07 182.457 116.473C 182.981 115.922 183.258 115.211 183.258 114.371L 183.258 113.832C 183.258 112.031 181.977 110.641 180.305 110.641L 177.879 110.641C 177.571 110.641 177.493 110.652 177.391 110.723C 177.219 110.828 177.118 111.031 177.118 111.238C 177.118 111.621 177.348 111.836 177.766 111.836L 177.766 116.141zM 178.965 116.141L 178.965 111.844L 180.2 111.844C 180.793 111.844 181.219 112.023 181.555 112.414C 181.879 112.793 182.059 113.289 182.059 113.816L 182.059 114.332C 182.059 114.902 181.914 115.297 181.598 115.644C 181.25 116 180.879 116.137 180.207 116.137L 178.965 116.141z"/>
<path style="stroke:none; fill-rule:evenodd; fill:#00ff00" d="M 187.864 110.016L 185.446 110.641C 184.993 110.754 184.844 110.891 184.844 111.219C 184.844 111.547 185.063 111.809 185.352 111.809C 185.461 111.809 185.493 111.801 185.704 111.742L 186.664 111.48L 186.664 116.133L 185.551 116.133C 185.266 116.133 185.188 116.144 185.09 116.215C 184.926 116.32 184.825 116.523 184.825 116.73C 184.825 116.91 184.914 117.101 185.063 117.207C 185.153 117.289 185.313 117.324 185.578 117.324L 189.043 117.324C 189.27 117.324 189.442 117.289 189.524 117.242C 189.696 117.125 189.797 116.934 189.797 116.727C 189.797 116.535 189.707 116.355 189.555 116.238C 189.442 116.156 189.348 116.133 189.036 116.133L 187.868 116.133L 187.864 110.016z"/>
<path style="stroke:none; fill-rule:evenodd; fill:#000000" d="M 148.793 179.449C 148.793 178.562 148.594 177.977 148.11 177.445C 147.454 176.73 146.371 176.344 144.965 176.344C 142.621 176.344 141.27 177.437 141.27 179.336C 141.27 180.844 142.039 181.578 144.039 181.949L 145.414 182.215C 146.762 182.469 147.266 182.84 147.266 183.629C 147.266 184.441 146.512 184.934 145.282 184.934C 143.907 184.934 143.137 184.359 143.071 183.316L 141.102 183.316C 141.219 185.398 142.657 186.535 145.157 186.535C 147.68 186.535 149.172 185.363 149.172 183.387C 149.172 181.855 148.391 181.051 146.571 180.707L 145.036 180.414C 143.594 180.137 143.176 179.855 143.176 179.148C 143.176 178.418 143.832 177.945 144.868 177.945C 146.141 177.945 146.852 178.473 146.922 179.453L 148.793 179.449z"/>
<path style="stroke:none; fill-rule:evenodd; fill:#000000" d="M 156.364 186.242L 158.364 186.242L 158.364 176.445L 156.364 176.445L 156.364 183.125L 152.516 176.445L 150.465 176.445L 150.465 186.242L 152.465 186.242L 152.465 179.492L 156.364 186.242z"/>
<path style="stroke:none; fill-rule:evenodd; fill:#000000" d="M 166.254 181.715C 166.121 179.922 164.934 178.844 163.11 178.844C 160.938 178.844 159.668 180.269 159.668 182.746C 159.668 185.141 160.922 186.539 163.082 186.539C 164.848 186.539 166.078 185.461 166.254 183.738L 164.45 183.738C 164.207 184.676 163.832 185.039 163.102 185.039C 162.149 185.039 161.567 184.172 161.567 182.746C 161.567 182.055 161.7 181.402 161.93 180.969C 162.145 180.562 162.563 180.344 163.102 180.344C 163.868 180.344 164.231 180.719 164.45 181.715L 166.254 181.715z"/>
<path style="stroke:none; fill-rule:evenodd; fill:#00ff00" d="M 188.758 137.535L 182.043 142.09L 181.606 134.215"/>
<path style="stroke:#00ff00; stroke-width:1.9133; fill:none" d="M 188.758 137.535L 182.043 142.09L 181.606 134.215L 188.758 137.535z"/>
<path style="stroke:none; fill-rule:evenodd; fill:#00ff00" d="M 219.633 38.4103L 226.86 34.7193L 226.325 42.5863"/>
<path style="stroke:#00ff00; stroke-width:1.9133; fill:none" d="M 219.633 38.4103L 226.86 34.7193L 226.325 42.5863L 219.633 38.4103z"/>
<path style="stroke:#000000; stroke-width:0.95664899999999997; fill:none" d="M 5.24611 188.859L 113.18 188.859L 113.18 142.004L 5.24611 142.004L 5.24611 188.859z"/>
<path style="stroke:none; fill-rule:evenodd; fill:#0000ff" d="M 43.8828 149.742C 43.8945 149.582 43.8945 149.512 43.8945 149.418C 43.8945 148.684 43.789 148.004 43.6172 147.484C 43.1367 146.152 41.9726 145.348 40.5117 145.348C 38.4375 145.348 37.164 146.855 37.164 149.289C 37.164 151.613 38.4218 153.043 40.4687 153.043C 42.0859 153.043 43.3984 152.125 43.8164 150.707L 41.9687 150.707C 41.7422 151.297 41.2187 151.641 40.539 151.641C 40.0039 151.641 39.5781 151.414 39.3086 151.012C 39.1367 150.746 39.0703 150.426 39.0429 149.742L 43.8828 149.742zM 39.0586 148.539C 39.1758 147.34 39.6445 146.742 40.4765 146.742C 40.9453 146.742 41.3711 146.988 41.6406 147.398C 41.8125 147.691 41.8945 147.996 41.9336 148.539L 39.0586 148.539z"/>
<path style="stroke:none; fill-rule:evenodd; fill:#0000ff" d="M 49.0195 149.113L 51.3746 145.543L 49.125 145.543L 47.9609 147.691L 46.7851 145.543L 44.5351 145.543L 46.8906 149.113L 44.4804 152.738L 46.7304 152.738L 47.9609 150.488L 49.1797 152.738L 51.4296 152.738L 49.0195 149.113z"/>
<path style="stroke:none; fill-rule:evenodd; fill:#0000ff" d="M 58.6566 148.215C 58.5236 146.422 57.3356 145.344 55.5116 145.344C 53.3396 145.344 52.0706 146.769 52.0706 149.246C 52.0706 151.641 53.3246 153.039 55.4846 153.039C 57.2496 153.039 58.4806 151.961 58.6566 150.238L 56.8516 150.238C 56.6096 151.176 56.2346 151.539 55.5036 151.539C 54.5506 151.539 53.9686 150.672 53.9686 149.246C 53.9686 148.555 54.1016 147.902 54.3316 147.469C 54.5466 147.062 54.9646 146.844 55.5036 146.844C 56.2696 146.844 56.6326 147.219 56.8516 148.215L 58.6566 148.215z"/>
<path style="stroke:none; fill-rule:evenodd; fill:#0000ff" d="M 61.9646 145.508L 60.0666 145.508L 60.0666 152.738L 61.9646 152.738L 61.9646 145.508zM 61.9646 142.941L 60.0666 142.941L 60.0666 144.641L 61.9646 144.641L 61.9646 142.941z"/>
<path style="stroke:none; fill-rule:evenodd; fill:#0000ff" d="M 66.8946 145.641L 65.8676 145.641L 65.8676 143.715L 63.9686 143.715L 63.9686 145.641L 63.0586 145.641L 63.0586 146.84L 63.9686 146.84L 63.9686 151.324C 63.9686 152.469 64.5706 153.039 65.8086 153.039C 66.2226 153.039 66.5586 153 66.8946 152.894L 66.8946 151.59C 66.7106 151.621 66.6056 151.641 66.4726 151.641C 65.9846 151.641 65.8676 151.492 65.8676 150.84L 65.8676 146.844L 66.8946 146.844L 66.8946 145.641z"/>
<path style="stroke:none; fill-rule:evenodd; fill:#0000ff" d="M 74.3826 152.504C 74.0586 152.195 73.9646 151.996 73.9646 151.617L 73.9646 147.582C 73.9646 146.105 72.9606 145.348 70.9996 145.348C 69.0426 145.348 68.0236 146.191 67.9026 147.898L 69.7266 147.898C 69.8206 147.105 70.1286 146.848 71.0666 146.848C 71.7966 146.848 72.1606 147.09 72.1606 147.574C 72.1606 147.816 72.0426 148.031 71.8396 148.141C 71.5856 148.273 71.5856 148.273 70.6566 148.422L 69.9026 148.555C 68.4646 148.797 67.7656 149.539 67.7656 150.848C 67.7656 151.465 67.9376 151.98 68.2736 152.344C 68.6876 152.773 69.3166 153.031 69.9606 153.031C 70.7656 153.031 71.5036 152.684 72.1606 151.996C 72.1606 152.371 72.1956 152.508 72.3706 152.723L 74.3746 152.723L 74.3826 152.504zM 72.1636 149.836C 72.1636 150.922 71.6286 151.539 70.6836 151.539C 70.0586 151.539 69.6676 151.203 69.6676 150.668C 69.6676 150.105 69.9606 149.84 70.7346 149.676L 71.3746 149.559C 71.8676 149.465 71.9496 149.441 72.1606 149.332L 72.1636 149.836z"/>
<path style="stroke:none; fill-rule:evenodd; fill:#0000ff" d="M 78.7926 145.641L 77.7656 145.641L 77.7656 143.715L 75.8676 143.715L 75.8676 145.641L 74.9566 145.641L 74.9566 146.84L 75.8676 146.84L 75.8676 151.324C 75.8676 152.469 76.4686 153.039 77.7066 153.039C 78.1206 153.039 78.4566 153 78.7926 152.894L 78.7926 151.59C 78.6096 151.621 78.5036 151.641 78.3706 151.641C 77.8826 151.641 77.7656 151.492 77.7656 150.84L 77.7656 146.844L 78.7926 146.844L 78.7926 145.641z"/>
<path style="stroke:none; fill-rule:evenodd; fill:#0000ff" d="M 83.3006 145.34C 81.1096 145.34 79.7656 146.805 79.7656 149.187C 79.7656 151.582 81.1056 153.035 83.3126 153.035C 85.4926 153.035 86.8596 151.57 86.8596 149.242C 86.8596 146.781 85.5466 145.34 83.2966 145.34L 83.3006 145.34zM 83.3126 146.84C 84.3126 146.84 84.9606 147.777 84.9606 149.215C 84.9606 150.582 84.2856 151.535 83.3126 151.535C 82.3276 151.535 81.6636 150.586 81.6636 149.187C 81.6636 147.789 82.3246 146.84 83.3126 146.84z"/>
<path style="stroke:none; fill-rule:evenodd; fill:#0000ff" d="M 88.2656 145.539L 88.2656 152.738L 90.1636 152.738L 90.1636 148.961C 90.1636 147.883 90.7146 147.344 91.8246 147.344C 92.0236 147.344 92.1606 147.336 92.4176 147.309L 92.4176 145.449C 92.3126 145.449 92.2426 145.449 92.1916 145.449C 91.3276 145.449 90.5746 145.992 90.1676 146.934L 90.1676 145.547L 88.2656 145.539z"/>
<path style="stroke:none; fill-rule:evenodd; fill:#0000ff" d="M 97.9416 145.539L 96.4416 150.769L 94.8476 145.539L 92.7886 145.539L 95.4806 152.992L 95.4806 153.043C 95.4806 153.719 94.9726 154.234 94.3166 154.234C 94.1716 154.234 94.0626 154.23 93.8246 154.211L 93.8246 155.586C 94.1016 155.621 94.2656 155.637 94.4926 155.637C 94.9606 155.637 95.5196 155.547 95.8436 155.414C 96.3636 155.203 96.5936 154.898 96.8986 154.047L 99.8706 145.543L 97.9416 145.539z"/>
<path style="stroke:none; fill-rule:evenodd; fill:#ff0000" d="M 32.9883 164.488C 32.9883 162.379 31.2773 160.664 29.164 160.664C 27.0547 160.664 25.3398 162.375 25.3398 164.488C 25.3398 166.598 27.0508 168.312 29.164 168.312C 31.2734 168.312 32.9883 166.601 32.9883 164.488"/>
<path style="stroke:#ff0000; stroke-width:1.9133; fill:none" d="M 32.9883 164.488C 32.9883 162.379 31.2773 160.664 29.164 160.664C 27.0547 160.664 25.3398 162.375 25.3398 164.488C 25.3398 166.598 27.0508 168.312 29.164 168.312C 31.2734 168.312 32.9883 166.601 32.9883 164.488"/>
<path style="stroke:none; fill-rule:evenodd; fill:#ff0000" d="M 40.5625 159.809L 38.664 159.809L 38.664 167.039L 40.5625 167.039L 40.5625 159.809zM 40.5625 157.242L 38.664 157.242L 38.664 158.941L 40.5625 158.941L 40.5625 157.242z"/>
<path style="stroke:none; fill-rule:evenodd; fill:#ff0000" d="M 42.2656 159.84L 42.2656 167.039L 44.164 167.039L 44.164 162.672C 44.164 161.812 44.7617 161.242 45.664 161.242C 46.4609 161.242 46.8594 161.687 46.8594 162.551L 46.8594 167.039L 48.7578 167.039L 48.7578 162.16C 48.7578 160.559 47.875 159.641 46.332 159.641C 45.3554 159.641 44.6992 160.016 44.1601 160.851L 44.1601 159.84L 42.2656 159.84z"/>
<path style="stroke:none; fill-rule:evenodd; fill:#ff0000" d="M 50.5626 157.242L 50.5626 167.039L 52.4606 167.039L 52.4606 162.672C 52.4606 161.836 53.0626 161.242 53.9066 161.242C 54.3046 161.242 54.6286 161.391 54.8436 161.687C 55.0036 161.93 55.0586 162.117 55.0586 162.59L 55.0586 167.039L 56.9566 167.039L 56.9566 162.16C 56.9566 161.258 56.7146 160.613 56.2186 160.195C 55.8006 159.848 55.1956 159.644 54.5896 159.644C 53.6606 159.644 52.9886 160.031 52.4606 160.855L 52.4606 157.246L 50.5626 157.242z"/>
<path style="stroke:none; fill-rule:evenodd; fill:#ff0000" d="M 60.6636 159.809L 58.7656 159.809L 58.7656 167.039L 60.6636 167.039L 60.6636 159.809zM 60.6636 157.242L 58.7656 157.242L 58.7656 158.941L 60.6636 158.941L 60.6636 157.242z"/>
<path style="stroke:none; fill-rule:evenodd; fill:#ff0000" d="M 62.3636 157.242L 62.3636 167.031L 64.2616 167.031L 64.2616 166.293C 64.7106 167.004 65.3356 167.34 66.2426 167.34C 67.9566 167.34 69.2576 165.687 69.2576 163.492C 69.2576 162.512 68.9646 161.516 68.4886 160.816C 67.9996 160.105 67.1206 159.644 66.2426 159.644C 65.3516 159.644 64.7146 159.992 64.2616 160.746L 64.2616 157.242L 62.3636 157.242zM 65.8126 161.242C 66.7146 161.242 67.3596 162.172 67.3596 163.504C 67.3596 164.809 66.7186 165.738 65.8126 165.738C 64.8826 165.738 64.2656 164.836 64.2656 163.465C 64.2656 162.164 64.8946 161.242 65.8126 161.242z"/>
<path style="stroke:none; fill-rule:evenodd; fill:#ff0000" d="M 72.5626 159.809L 70.6636 159.809L 70.6636 167.039L 72.5626 167.039L 72.5626 159.809zM 72.5626 157.242L 70.6636 157.242L 70.6636 158.941L 72.5626 158.941L 72.5626 157.242z"/>
<path style="stroke:none; fill-rule:evenodd; fill:#ff0000" d="M 77.4956 159.941L 76.4686 159.941L 76.4686 158.016L 74.5706 158.016L 74.5706 159.941L 73.6606 159.941L 73.6606 161.141L 74.5706 161.141L 74.5706 165.625C 74.5706 166.769 75.1716 167.34 76.4106 167.34C 76.8246 167.34 77.1606 167.301 77.4956 167.195L 77.4956 165.891C 77.3126 165.922 77.2066 165.941 77.0746 165.941C 76.5856 165.941 76.4686 165.793 76.4686 165.141L 76.4686 161.144L 77.4956 161.144L 77.4956 159.941z"/>
<path style="stroke:none; fill-rule:evenodd; fill:#ff0000" d="M 81.9996 159.641C 79.8086 159.641 78.4646 161.105 78.4646 163.488C 78.4646 165.883 79.8046 167.336 82.0116 167.336C 84.1916 167.336 85.5586 165.871 85.5586 163.543C 85.5586 161.082 84.2456 159.641 81.9956 159.641L 81.9996 159.641zM 82.0156 161.141C 83.0156 161.141 83.6636 162.078 83.6636 163.516C 83.6636 164.883 82.9886 165.836 82.0156 165.836C 81.0316 165.836 80.3676 164.887 80.3676 163.488C 80.3676 162.09 81.0276 161.141 82.0156 161.141z"/>
<path style="stroke:none; fill-rule:evenodd; fill:#ff0000" d="M 86.9646 159.84L 86.9646 167.039L 88.8636 167.039L 88.8636 163.262C 88.8636 162.184 89.4136 161.644 90.5236 161.644C 90.7226 161.644 90.8596 161.637 91.1176 161.609L 91.1176 159.75C 91.0116 159.75 90.9416 159.75 90.8906 159.75C 90.0276 159.75 89.2736 160.293 88.8676 161.234L 88.8676 159.848L 86.9646 159.84z"/>
<path style="stroke:none; fill-rule:evenodd; fill:#ff0000" d="M 96.6406 159.84L 95.1406 165.07L 93.5466 159.84L 91.4886 159.84L 94.1796 167.293L 94.1796 167.344C 94.1796 168.019 93.6716 168.535 93.0156 168.535C 92.8706 168.535 92.7616 168.531 92.5236 168.512L 92.5236 169.887C 92.8006 169.922 92.9646 169.937 93.1916 169.937C 93.6606 169.937 94.2186 169.848 94.5426 169.715C 95.0626 169.504 95.2926 169.199 95.5976 168.348L 98.5706 159.844L 96.6406 159.84z"/>
<path style="stroke:#00ff00; stroke-dasharray:6,3; stroke-width:1.9133; fill:none" d="M 10.0273 177.879L 29.1601 177.879"/>
<path style="stroke:none; fill-rule:evenodd; fill:#00ff00" d="M 32.1992 173.75L 32.6562 181.851L 25.6758 178.184"/>
<path style="stroke:#00ff00; stroke-width:1.9133; fill:none" d="M 32.1992 173.75L 32.6562 181.851L 25.6758 178.184L 32.1992 173.75z"/>
<path style="stroke:none; fill-rule:evenodd; fill:#00ff00" d="M 37.164 173.742L 37.164 180.941L 39.0625 180.941L 39.0625 176.574C 39.0625 175.687 39.5429 175.144 40.3437 175.144C 40.9687 175.144 41.3594 175.508 41.3594 176.086L 41.3594 180.937L 43.2578 180.937L 43.2578 176.57C 43.2578 175.684 43.7187 175.141 44.4844 175.141C 45.082 175.141 45.4531 175.504 45.4531 176.082L 45.4531 180.934L 47.3515 180.934L 47.3515 175.789C 47.3515 174.375 46.5039 173.539 45.0703 173.539C 44.1679 173.539 43.5312 173.875 42.9726 174.656C 42.6289 173.945 41.914 173.539 41.0234 173.539C 40.2031 173.539 39.6718 173.832 39.0586 174.601L 39.0586 173.738L 37.164 173.742z"/>
<path style="stroke:none; fill-rule:evenodd; fill:#00ff00" d="M 52.3006 173.539C 50.1094 173.539 48.7656 175.004 48.7656 177.387C 48.7656 179.781 50.1054 181.234 52.3126 181.234C 54.4926 181.234 55.8596 179.769 55.8596 177.441C 55.8596 174.98 54.5466 173.539 52.2966 173.539L 52.3006 173.539zM 52.3126 175.039C 53.3126 175.039 53.9606 175.977 53.9606 177.414C 53.9606 178.781 53.2856 179.734 52.3126 179.734C 51.3276 179.734 50.6636 178.785 50.6636 177.387C 50.6636 175.988 51.3246 175.039 52.3126 175.039z"/>
<path style="stroke:none; fill-rule:evenodd; fill:#00ff00" d="M 61.8636 180.934L 63.7616 180.934L 63.7616 171.144L 61.8636 171.144L 61.8636 174.648C 61.3986 173.894 60.7736 173.547 59.8826 173.547C 58.1676 173.547 56.8676 175.215 56.8676 177.41C 56.8676 178.391 57.1606 179.387 57.6366 180.086C 58.1246 180.785 59.0036 181.242 59.8826 181.242C 60.7736 181.242 61.3986 180.906 61.8636 180.195L 61.8636 180.934zM 60.3126 175.141C 61.2426 175.141 61.8596 176.059 61.8596 177.426C 61.8596 178.73 61.2306 179.633 60.3126 179.633C 59.3946 179.633 58.7656 178.715 58.7656 177.398C 58.7656 176.07 59.3946 175.137 60.3126 175.137L 60.3126 175.141z"/>
<path style="stroke:none; fill-rule:evenodd; fill:#00ff00" d="M 71.8636 180.934L 71.8636 173.742L 69.9646 173.742L 69.9646 178.23C 69.9646 179.078 69.3676 179.637 68.4646 179.637C 67.6676 179.637 67.2696 179.215 67.2696 178.351L 67.2696 173.742L 65.3706 173.742L 65.3706 178.75C 65.3706 180.332 66.2536 181.238 67.7966 181.238C 68.7736 181.238 69.4296 180.883 69.9686 180.082L 69.9686 180.934L 71.8636 180.934z"/>
<path style="stroke:none; fill-rule:evenodd; fill:#00ff00" d="M 73.6636 180.941L 75.5626 180.941L 75.5626 171.144L 73.6636 171.144L 73.6636 180.941z"/>
<path style="stroke:none; fill-rule:evenodd; fill:#00ff00" d="M 83.5816 180.703C 83.2576 180.394 83.1636 180.195 83.1636 179.816L 83.1636 175.781C 83.1636 174.305 82.1606 173.547 80.1996 173.547C 78.2426 173.547 77.2226 174.391 77.1016 176.098L 78.9256 176.098C 79.0196 175.305 79.3276 175.047 80.2656 175.047C 80.9956 175.047 81.3596 175.289 81.3596 175.773C 81.3596 176.016 81.2426 176.23 81.0386 176.34C 80.7856 176.473 80.7856 176.473 79.8556 176.621L 79.1016 176.754C 77.6636 176.996 76.9646 177.738 76.9646 179.047C 76.9646 179.664 77.1366 180.18 77.4726 180.543C 77.8866 180.973 78.5156 181.23 79.1606 181.23C 79.9646 181.23 80.7036 180.883 81.3596 180.195C 81.3596 180.57 81.3946 180.707 81.5706 180.922L 83.5746 180.922L 83.5816 180.703zM 81.3636 178.035C 81.3636 179.121 80.8276 179.738 79.8826 179.738C 79.2576 179.738 78.8676 179.402 78.8676 178.867C 78.8676 178.305 79.1606 178.039 79.9336 177.875L 80.5746 177.758C 81.0666 177.664 81.1486 177.641 81.3596 177.531L 81.3636 178.035z"/>
<path style="stroke:none; fill-rule:evenodd; fill:#00ff00" d="M 87.9956 173.84L 86.9686 173.84L 86.9686 171.914L 85.0706 171.914L 85.0706 173.84L 84.1606 173.84L 84.1606 175.039L 85.0706 175.039L 85.0706 179.523C 85.0706 180.668 85.6716 181.238 86.9106 181.238C 87.3246 181.238 87.6606 181.199 87.9956 181.094L 87.9956 179.789C 87.8126 179.82 87.7066 179.84 87.5746 179.84C 87.0856 179.84 86.9686 179.691 86.9686 179.039L 86.9686 175.043L 87.9956 175.043L 87.9956 173.84z"/>
<path style="stroke:none; fill-rule:evenodd; fill:#00ff00" d="M 92.4996 173.539C 90.3086 173.539 88.9646 175.004 88.9646 177.387C 88.9646 179.781 90.3046 181.234 92.5116 181.234C 94.6916 181.234 96.0586 179.769 96.0586 177.441C 96.0586 174.98 94.7456 173.539 92.4956 173.539L 92.4996 173.539zM 92.5156 175.039C 93.5156 175.039 94.1636 175.977 94.1636 177.414C 94.1636 178.781 93.4886 179.734 92.5156 179.734C 91.5316 179.734 90.8676 178.785 90.8676 177.387C 90.8676 175.988 91.5276 175.039 92.5156 175.039z"/>
<path style="stroke:none; fill-rule:evenodd; fill:#00ff00" d="M 97.3636 173.742L 97.3636 180.941L 99.2616 180.941L 99.2616 177.164C 99.2616 176.086 99.8126 175.547 100.922 175.547C 101.121 175.547 101.258 175.539 101.516 175.512L 101.516 173.652C 101.411 173.652 101.34 173.652 101.289 173.652C 100.426 173.652 99.6716 174.195 99.2656 175.137L 99.2656 173.75L 97.3636 173.742z"/>
<path style="stroke:none; fill-rule:evenodd; fill:#00ff00" d="M 107.141 173.742L 105.641 178.973L 104.047 173.742L 101.989 173.742L 104.68 181.195L 104.68 181.246C 104.68 181.922 104.172 182.437 103.516 182.437C 103.371 182.437 103.262 182.434 103.024 182.414L 103.024 183.789C 103.301 183.824 103.465 183.84 103.692 183.84C 104.161 183.84 104.719 183.75 105.043 183.617C 105.563 183.406 105.793 183.101 106.098 182.25L 109.071 173.746L 107.141 173.742z"/>
<path style="stroke:#0000ff; stroke-width:1.9133; fill:none" d="M 10.0312 151.094L 31.0742 151.094"/>
<path style="stroke:#0000ff; stroke-width:1.9133; fill:none" d="M 23.4218 149.18L 31.0742 151.09L 23.4218 153"/>
<path style="stroke:none; fill-rule:evenodd; fill:#000000" d="M 105.782 95.9413L 109.129 86.1443L 107.11 86.1443L 104.981 93.5313L 102.813 86.1443L 100.793 86.1443L 104.086 95.9413L 105.782 95.9413z"/>
<path style="stroke:none; fill-rule:evenodd; fill:#000000" d="M 114.563 87.8403L 117.371 87.8403L 117.371 86.1413L 109.551 86.1413L 109.551 87.8403L 112.563 87.8403L 112.563 95.9373L 114.563 95.9373L 114.563 87.8403z"/>
<path style="stroke:none; fill-rule:evenodd; fill:#000000" d="M 124.274 93.9413L 124.914 95.9413L 126.977 95.9413L 123.602 86.1443L 121.379 86.1443L 117.911 95.9413L 119.957 95.9413L 120.61 93.9413L 124.274 93.9413zM 123.727 92.2423L 121.184 92.2423L 122.454 88.4843L 123.727 92.2423z"/>
<path style="stroke:#000000; stroke-width:1.9133; fill:none" d="M 170.442 181.508C 170.442 174.215 162.758 168.305 153.282 168.305C 143.805 168.305 136.121 174.215 136.121 181.508C 136.121 188.801 143.805 194.711 153.282 194.711C 162.758 194.711 170.442 188.801 170.442 181.508"/>
<path style="stroke:#000000; stroke-width:1.9133; fill:none" d="M 129.891 90.5983C 129.891 83.5003 122.473 77.7423 113.321 77.7423C 104.172 77.7423 96.7496 83.4963 96.7496 90.5983C 96.7496 97.6953 104.168 103.453 113.321 103.453C 122.469 103.453 129.891 97.6993 129.891 90.5983"/>
<path style="stroke:#00ff00; stroke-dasharray:6,3; stroke-width:1.9133; fill:none" d="M 117.676 76.9923C 117.676 76.9923 117.676 76.9923 117.993 76.7543C 118.309 76.5163 118.946 76.0393 122.852 72.6093C 126.758 69.1843 133.93 62.8053 138.477 59.6953C 143.02 56.5903 144.93 56.7463 147.961 55.2343C 150.989 53.7233 155.133 50.5313 164.145 47.3443C 173.153 44.1563 187.024 40.9693 197.625 39.4533C 208.227 37.9413 215.559 38.1013 219.227 38.1013C 222.891 38.1013 222.891 37.9453 222.891 37.8633C 222.891 37.7853 222.891 37.7853 222.891 37.7853"/>
<path style="stroke:none; fill-rule:evenodd; fill:#000000" d="M 285.864 190.539L 287.864 190.539L 287.864 180.742L 285.864 180.742L 285.864 190.539z"/>
<path style="stroke:none; fill-rule:evenodd; fill:#000000" d="M 289.664 183.34L 289.664 190.539L 291.563 190.539L 291.563 186.172C 291.563 185.312 292.161 184.742 293.063 184.742C 293.86 184.742 294.258 185.187 294.258 186.051L 294.258 190.539L 296.157 190.539L 296.157 185.66C 296.157 184.059 295.274 183.141 293.731 183.141C 292.754 183.141 292.098 183.516 291.559 184.351L 291.559 183.34L 289.664 183.34z"/>
<path style="stroke:none; fill-rule:evenodd; fill:#000000" d="M 302.364 190.531L 304.262 190.531L 304.262 180.742L 302.364 180.742L 302.364 184.246C 301.899 183.492 301.274 183.144 300.383 183.144C 298.668 183.144 297.368 184.812 297.368 187.008C 297.368 187.988 297.661 188.984 298.137 189.684C 298.625 190.383 299.504 190.84 300.383 190.84C 301.274 190.84 301.899 190.504 302.364 189.793L 302.364 190.531zM 300.813 184.742C 301.743 184.742 302.36 185.66 302.36 187.027C 302.36 188.332 301.731 189.234 300.813 189.234C 299.895 189.234 299.266 188.316 299.266 187C 299.266 185.672 299.895 184.738 300.813 184.738L 300.813 184.742z"/>
<path style="stroke:none; fill-rule:evenodd; fill:#000000" d="M 307.965 183.309L 306.067 183.309L 306.067 190.539L 307.965 190.539L 307.965 183.309zM 307.965 180.742L 306.067 180.742L 306.067 182.441L 307.965 182.441L 307.965 180.742z"/>
<path style="stroke:none; fill-rule:evenodd; fill:#000000" d="M 309.664 183.34L 309.664 190.539L 311.563 190.539L 311.563 186.762C 311.563 185.684 312.114 185.144 313.223 185.144C 313.422 185.144 313.559 185.137 313.817 185.109L 313.817 183.25C 313.711 183.25 313.641 183.25 313.59 183.25C 312.727 183.25 311.973 183.793 311.567 184.734L 311.567 183.348L 309.664 183.34z"/>
<path style="stroke:none; fill-rule:evenodd; fill:#000000" d="M 321.082 187.539C 321.094 187.379 321.094 187.309 321.094 187.215C 321.094 186.48 320.989 185.801 320.817 185.281C 320.336 183.949 319.172 183.144 317.711 183.144C 315.637 183.144 314.364 184.652 314.364 187.086C 314.364 189.41 315.621 190.84 317.668 190.84C 319.286 190.84 320.598 189.922 321.016 188.504L 319.168 188.504C 318.942 189.094 318.418 189.437 317.739 189.437C 317.204 189.437 316.778 189.211 316.508 188.809C 316.336 188.543 316.27 188.223 316.243 187.539L 321.082 187.539zM 316.258 186.34C 316.375 185.141 316.844 184.543 317.676 184.543C 318.145 184.543 318.571 184.789 318.84 185.199C 319.012 185.492 319.094 185.797 319.133 186.34L 316.258 186.34z"/>
<path style="stroke:none; fill-rule:evenodd; fill:#000000" d="M 328.555 186.016C 328.422 184.223 327.235 183.144 325.411 183.144C 323.239 183.144 321.969 184.57 321.969 187.047C 321.969 189.441 323.223 190.84 325.383 190.84C 327.149 190.84 328.379 189.762 328.555 188.039L 326.75 188.039C 326.508 188.977 326.133 189.34 325.403 189.34C 324.45 189.34 323.868 188.473 323.868 187.047C 323.868 186.355 324 185.703 324.231 185.269C 324.446 184.863 324.864 184.644 325.403 184.644C 326.168 184.644 326.532 185.019 326.75 186.016L 328.555 186.016z"/>
<path style="stroke:none; fill-rule:evenodd; fill:#000000" d="M 332.996 183.441L 331.969 183.441L 331.969 181.516L 330.071 181.516L 330.071 183.441L 329.161 183.441L 329.161 184.641L 330.071 184.641L 330.071 189.125C 330.071 190.269 330.672 190.84 331.911 190.84C 332.325 190.84 332.661 190.801 332.996 190.695L 332.996 189.391C 332.813 189.422 332.707 189.441 332.575 189.441C 332.086 189.441 331.969 189.293 331.969 188.641L 331.969 184.644L 332.996 184.644L 332.996 183.441z"/>
<path style="stroke:none; fill-rule:evenodd; fill:#000000" d="M 185.164 187.242L 188.985 187.242C 190.473 187.242 191.411 186.894 192.067 186.101C 192.844 185.191 193.258 183.859 193.258 182.34C 193.258 180.836 192.844 179.504 192.067 178.578C 191.411 177.785 190.489 177.449 188.985 177.449L 185.164 177.449L 185.164 187.242zM 187.164 185.539L 187.164 179.141L 188.981 179.141C 190.504 179.141 191.258 180.195 191.258 182.344C 191.258 184.48 190.504 185.535 188.981 185.535L 187.164 185.539z"/>
<path style="stroke:none; fill-rule:evenodd; fill:#000000" d="M 196.664 180.008L 194.766 180.008L 194.766 187.238L 196.664 187.238L 196.664 180.008zM 196.664 177.441L 194.766 177.441L 194.766 179.141L 196.664 179.141L 196.664 177.441z"/>
<path style="stroke:none; fill-rule:evenodd; fill:#000000" d="M 198.364 180.039L 198.364 187.238L 200.262 187.238L 200.262 183.461C 200.262 182.383 200.813 181.844 201.922 181.844C 202.121 181.844 202.258 181.836 202.516 181.809L 202.516 179.949C 202.411 179.949 202.34 179.949 202.289 179.949C 201.426 179.949 200.672 180.492 200.266 181.434L 200.266 180.047L 198.364 180.039z"/>
<path style="stroke:none; fill-rule:evenodd; fill:#000000" d="M 209.782 184.242C 209.793 184.082 209.793 184.012 209.793 183.918C 209.793 183.184 209.688 182.504 209.516 181.984C 209.036 180.652 207.871 179.848 206.411 179.848C 204.336 179.848 203.063 181.355 203.063 183.789C 203.063 186.113 204.321 187.543 206.368 187.543C 207.985 187.543 209.297 186.625 209.715 185.207L 207.868 185.207C 207.641 185.797 207.118 186.141 206.438 186.141C 205.903 186.141 205.477 185.914 205.207 185.512C 205.036 185.246 204.969 184.926 204.942 184.242L 209.782 184.242zM 204.961 183.039C 205.078 181.84 205.547 181.242 206.379 181.242C 206.848 181.242 207.274 181.488 207.543 181.898C 207.715 182.191 207.797 182.496 207.836 183.039L 204.961 183.039z"/>
<path style="stroke:none; fill-rule:evenodd; fill:#000000" d="M 217.157 182.715C 217.024 180.922 215.836 179.844 214.012 179.844C 211.84 179.844 210.571 181.269 210.571 183.746C 210.571 186.141 211.825 187.539 213.985 187.539C 215.75 187.539 216.981 186.461 217.157 184.738L 215.352 184.738C 215.11 185.676 214.735 186.039 214.004 186.039C 213.051 186.039 212.469 185.172 212.469 183.746C 212.469 183.055 212.602 182.402 212.832 181.969C 213.047 181.562 213.465 181.344 214.004 181.344C 214.77 181.344 215.133 181.719 215.352 182.715L 217.157 182.715z"/>
<path style="stroke:none; fill-rule:evenodd; fill:#000000" d="M 221.696 180.141L 220.668 180.141L 220.668 178.215L 218.77 178.215L 218.77 180.141L 217.86 180.141L 217.86 181.34L 218.77 181.34L 218.77 185.824C 218.77 186.969 219.371 187.539 220.61 187.539C 221.024 187.539 221.36 187.5 221.696 187.394L 221.696 186.09C 221.512 186.121 221.407 186.141 221.274 186.141C 220.786 186.141 220.668 185.992 220.668 185.34L 220.668 181.344L 221.696 181.344L 221.696 180.141z"/>
<path style="stroke:none; fill-rule:evenodd; fill:#000000" d="M 255.387 225.039L 251.493 225.039L 251.493 226.739L 253.704 226.739C 253.653 227.293 253.52 227.633 253.227 227.989C 252.75 228.582 252.016 228.938 251.243 228.938C 249.629 228.938 248.469 227.52 248.469 225.512C 248.469 223.414 249.493 222.141 251.188 222.141C 251.879 222.141 252.465 222.34 252.907 222.727C 253.184 222.965 253.332 223.192 253.504 223.695L 255.383 223.695C 255.145 221.703 253.516 220.442 251.168 220.442C 248.371 220.442 246.465 222.512 246.465 225.539C 246.465 228.489 248.383 230.637 251.012 230.637C 252.317 230.637 253.196 230.168 253.946 229.059L 254.184 230.352L 255.383 230.352L 255.387 225.039z"/>
<path style="stroke:none; fill-rule:evenodd; fill:#000000" d="M 259.266 226.84L 261.789 226.84C 263.598 226.84 264.762 225.567 264.762 223.578C 264.762 221.617 263.645 220.543 261.598 220.543L 257.266 220.543L 257.266 230.34L 259.266 230.34L 259.266 226.84zM 259.266 225.141L 259.266 222.242L 261.168 222.242C 262.254 222.242 262.758 222.703 262.758 223.695C 262.758 224.672 262.254 225.137 261.168 225.137L 259.266 225.141z"/>
<path style="stroke:none; fill-rule:evenodd; fill:#000000" d="M 267.965 223.11L 266.067 223.11L 266.067 230.34L 267.965 230.34L 267.965 223.11zM 267.965 220.539L 266.067 220.539L 266.067 222.239L 267.965 222.239L 267.965 220.539z"/>
<path style="stroke:none; fill-rule:evenodd; fill:#000000" d="M 271.75 220.778L 268.993 230.539L 269.887 230.539L 272.645 220.778L 271.75 220.778z"/>
<path style="stroke:none; fill-rule:evenodd; fill:#000000" d="M 280.793 223.551C 280.793 222.664 280.594 222.078 280.11 221.547C 279.454 220.832 278.371 220.445 276.965 220.445C 274.621 220.445 273.27 221.539 273.27 223.438C 273.27 224.945 274.039 225.68 276.039 226.051L 277.414 226.317C 278.762 226.57 279.266 226.942 279.266 227.731C 279.266 228.543 278.512 229.035 277.282 229.035C 275.907 229.035 275.137 228.461 275.071 227.418L 273.102 227.418C 273.219 229.5 274.657 230.637 277.157 230.637C 279.68 230.637 281.172 229.465 281.172 227.489C 281.172 225.957 280.391 225.153 278.571 224.809L 277.036 224.516C 275.594 224.239 275.176 223.957 275.176 223.25C 275.176 222.52 275.832 222.047 276.868 222.047C 278.141 222.047 278.852 222.575 278.922 223.555L 280.793 223.551z"/>
<path style="stroke:none; fill-rule:evenodd; fill:#000000" d="M 288.364 230.34L 290.364 230.34L 290.364 220.543L 288.364 220.543L 288.364 227.223L 284.516 220.543L 282.465 220.543L 282.465 230.34L 284.465 230.34L 284.465 223.59L 288.364 230.34z"/>
<path style="stroke:none; fill-rule:evenodd; fill:#000000" d="M 292.063 223.141L 292.063 230.34L 293.961 230.34L 293.961 226.563C 293.961 225.485 294.512 224.945 295.621 224.945C 295.821 224.945 295.957 224.938 296.215 224.91L 296.215 223.051C 296.11 223.051 296.039 223.051 295.989 223.051C 295.125 223.051 294.371 223.594 293.965 224.535L 293.965 223.149L 292.063 223.141z"/>
<path style="stroke:none; fill-rule:evenodd; fill:#000000" d="M 370.395 193.539L 369.368 193.539L 369.368 191.613L 367.469 191.613L 367.469 193.539L 366.559 193.539L 366.559 194.738L 367.469 194.738L 367.469 199.223C 367.469 200.367 368.071 200.938 369.309 200.938C 369.723 200.938 370.059 200.899 370.395 200.793L 370.395 199.489C 370.211 199.52 370.106 199.539 369.973 199.539C 369.485 199.539 369.368 199.391 369.368 198.739L 369.368 194.742L 370.395 194.742L 370.395 193.539z"/>
<path style="stroke:none; fill-rule:evenodd; fill:#000000" d="M 371.766 190.84L 371.766 200.637L 373.664 200.637L 373.664 196.269C 373.664 195.434 374.266 194.84 375.11 194.84C 375.508 194.84 375.832 194.988 376.047 195.285C 376.207 195.527 376.262 195.715 376.262 196.187L 376.262 200.637L 378.161 200.637L 378.161 195.758C 378.161 194.855 377.918 194.211 377.422 193.793C 377.004 193.445 376.399 193.242 375.793 193.242C 374.864 193.242 374.192 193.629 373.664 194.453L 373.664 190.844L 371.766 190.84z"/>
<path style="stroke:none; fill-rule:evenodd; fill:#000000" d="M 386.082 200.403C 385.758 200.094 385.664 199.895 385.664 199.516L 385.664 195.48C 385.664 194.004 384.661 193.246 382.7 193.246C 380.743 193.246 379.723 194.09 379.602 195.797L 381.426 195.797C 381.52 195.004 381.828 194.746 382.766 194.746C 383.496 194.746 383.86 194.988 383.86 195.473C 383.86 195.715 383.743 195.93 383.539 196.039C 383.286 196.172 383.286 196.172 382.356 196.32L 381.602 196.453C 380.164 196.695 379.465 197.438 379.465 198.746C 379.465 199.364 379.637 199.879 379.973 200.242C 380.387 200.672 381.016 200.93 381.661 200.93C 382.465 200.93 383.204 200.582 383.86 199.895C 383.86 200.27 383.895 200.407 384.071 200.621L 386.075 200.621L 386.082 200.403zM 383.864 197.735C 383.864 198.82 383.328 199.438 382.383 199.438C 381.758 199.438 381.368 199.102 381.368 198.567C 381.368 198.004 381.661 197.739 382.434 197.575L 383.075 197.457C 383.567 197.364 383.649 197.34 383.86 197.231L 383.864 197.735z"/>
<path style="stroke:none; fill-rule:evenodd; fill:#000000" d="M 387.364 200.641L 389.262 200.641L 389.262 190.844L 387.364 190.844L 387.364 200.641z"/>
<path style="stroke:none; fill-rule:evenodd; fill:#000000" d="M 397.282 200.403C 396.957 200.094 396.864 199.895 396.864 199.516L 396.864 195.48C 396.864 194.004 395.86 193.246 393.899 193.246C 391.942 193.246 390.922 194.09 390.801 195.797L 392.625 195.797C 392.719 195.004 393.028 194.746 393.965 194.746C 394.696 194.746 395.059 194.988 395.059 195.473C 395.059 195.715 394.942 195.93 394.739 196.039C 394.485 196.172 394.485 196.172 393.555 196.32L 392.801 196.453C 391.364 196.695 390.664 197.438 390.664 198.746C 390.664 199.364 390.836 199.879 391.172 200.242C 391.586 200.672 392.215 200.93 392.86 200.93C 393.664 200.93 394.403 200.582 395.059 199.895C 395.059 200.27 395.094 200.407 395.27 200.621L 397.274 200.621L 397.282 200.403zM 395.063 197.735C 395.063 198.82 394.528 199.438 393.582 199.438C 392.957 199.438 392.567 199.102 392.567 198.567C 392.567 198.004 392.86 197.739 393.633 197.575L 394.274 197.457C 394.766 197.364 394.848 197.34 395.059 197.231L 395.063 197.735z"/>
<path style="stroke:none; fill-rule:evenodd; fill:#000000" d="M 398.465 193.441L 398.465 200.641L 400.364 200.641L 400.364 196.273C 400.364 195.387 400.844 194.844 401.645 194.844C 402.27 194.844 402.661 195.207 402.661 195.785L 402.661 200.637L 404.559 200.637L 404.559 196.269C 404.559 195.383 405.02 194.84 405.786 194.84C 406.383 194.84 406.754 195.203 406.754 195.781L 406.754 200.633L 408.653 200.633L 408.653 195.488C 408.653 194.074 407.805 193.238 406.371 193.238C 405.469 193.238 404.832 193.574 404.274 194.355C 403.93 193.644 403.215 193.238 402.325 193.238C 401.504 193.238 400.973 193.531 400.36 194.301L 400.36 193.437L 398.465 193.441z"/>
<path style="stroke:none; fill-rule:evenodd; fill:#000000" d="M 416.864 200.633L 416.864 193.441L 414.965 193.441L 414.965 197.93C 414.965 198.778 414.368 199.336 413.465 199.336C 412.668 199.336 412.27 198.914 412.27 198.051L 412.27 193.441L 410.371 193.441L 410.371 198.45C 410.371 200.032 411.254 200.938 412.797 200.938C 413.774 200.938 414.43 200.582 414.969 199.782L 414.969 200.633L 416.864 200.633z"/>
<path style="stroke:none; fill-rule:evenodd; fill:#000000" d="M 424.528 195.738C 424.5 194.184 423.317 193.242 421.36 193.242C 419.516 193.242 418.368 194.168 418.368 195.656C 418.368 196.137 418.516 196.555 418.774 196.836C 419.028 197.09 419.258 197.211 419.965 197.438L 422.227 198.133C 422.7 198.278 422.864 198.426 422.864 198.723C 422.864 199.164 422.34 199.434 421.469 199.434C 420.989 199.434 420.598 199.344 420.356 199.192C 420.157 199.051 420.075 198.91 419.996 198.535L 418.161 198.535C 418.211 200.11 419.383 200.934 421.594 200.934C 422.602 200.934 423.368 200.723 423.907 200.293C 424.442 199.867 424.766 199.195 424.766 198.485C 424.766 197.547 424.293 196.942 423.332 196.66L 420.934 195.977C 420.407 195.816 420.274 195.711 420.274 195.414C 420.274 195.016 420.704 194.742 421.36 194.742C 422.258 194.742 422.704 195.066 422.715 195.738L 424.528 195.738z"/>
<path style="stroke:#00ff00; stroke-dasharray:6,3; stroke-width:1.9133; fill:none" d="M 159.77 171.219L 181.77 142.043"/>
<path style="stroke:#0000ff; stroke-width:1.9133; fill:none" d="M 261.653 55.4653L 238.696 86.5553"/>
<path style="stroke:#0000ff; stroke-width:1.9133; fill:none" d="M 244.778 81.5353L 238.696 86.5553L 241.7 79.2623"/>
<path style="stroke:#0000ff; stroke-width:1.9133; fill:none" d="M 327.661 58.3363L 380.754 180.309"/>
<path style="stroke:#0000ff; stroke-width:1.9133; fill:none" d="M 328.961 66.1173L 327.664 58.3403L 332.473 64.5943"/>
<path style="stroke:#0000ff; stroke-width:1.9133; fill:none" d="M 379.457 172.527L 380.754 180.305L 375.946 174.051"/>
<path style="stroke:#ff0000; stroke-dasharray:6,3; stroke-width:1.9133; fill:none" d="M 186.555 121.953L 244.43 210.442"/>
<path style="stroke:none; fill-rule:evenodd; fill:#000000" d="M 230.664 107.84L 232.664 107.84L 232.664 98.0433L 230.664 98.0433L 230.664 104.723L 226.817 98.0433L 224.766 98.0433L 224.766 107.84L 226.766 107.84L 226.766 101.09L 230.664 107.84z"/>
<path style="stroke:none; fill-rule:evenodd; fill:#000000" d="M 238.75 97.9413C 237.387 97.9413 236.262 98.3943 235.43 99.2893C 234.563 100.223 234.067 101.582 234.067 103.039C 234.067 104.492 234.559 105.867 235.43 106.789C 236.27 107.695 237.368 108.137 238.762 108.137C 240.153 108.137 241.25 107.699 242.094 106.789C 242.934 105.898 243.457 104.48 243.457 103.105C 243.457 101.586 242.965 100.223 242.094 99.2893C 241.239 98.3713 240.157 97.9413 238.75 97.9413zM 238.766 99.6413C 240.414 99.6413 241.465 100.977 241.465 103.094C 241.465 105.086 240.379 106.437 238.766 106.437C 237.141 106.437 236.067 105.086 236.067 103.039C 236.067 100.992 237.141 99.6413 238.766 99.6413z"/>
<path style="stroke:none; fill-rule:evenodd; fill:#000000" d="M 253.489 102.539L 249.594 102.539L 249.594 104.238L 251.805 104.238C 251.754 104.793 251.621 105.133 251.328 105.488C 250.852 106.082 250.118 106.437 249.344 106.437C 247.731 106.437 246.571 105.019 246.571 103.012C 246.571 100.914 247.594 99.6413 249.289 99.6413C 249.981 99.6413 250.567 99.8403 251.008 100.227C 251.286 100.465 251.434 100.691 251.606 101.195L 253.485 101.195C 253.246 99.2033 251.618 97.9413 249.27 97.9413C 246.473 97.9413 244.567 100.012 244.567 103.039C 244.567 105.988 246.485 108.137 249.114 108.137C 250.418 108.137 251.297 107.668 252.047 106.559L 252.286 107.851L 253.485 107.851L 253.489 102.539z"/>
<path style="stroke:none; fill-rule:evenodd; fill:#000000" d="M 259.551 97.9413C 258.188 97.9413 257.063 98.3943 256.231 99.2893C 255.364 100.223 254.868 101.582 254.868 103.039C 254.868 104.492 255.36 105.867 256.231 106.789C 257.071 107.695 258.168 108.137 259.563 108.137C 260.954 108.137 262.051 107.699 262.895 106.789C 263.735 105.898 264.258 104.48 264.258 103.105C 264.258 101.586 263.766 100.223 262.895 99.2893C 262.039 98.3713 260.957 97.9413 259.551 97.9413zM 259.563 99.6413C 261.211 99.6413 262.262 100.977 262.262 103.094C 262.262 105.086 261.176 106.437 259.563 106.437C 257.938 106.437 256.864 105.086 256.864 103.039C 256.864 100.992 257.938 99.6413 259.563 99.6413z"/>
<path style="stroke:#ff0000; stroke-dasharray:6,3; stroke-width:1.9133; fill:none" d="M 302.496 217.567L 355.789 204.004"/>
<path style="stroke:#ff0000; stroke-dasharray:6,3; stroke-width:1.9133; fill:none" d="M 271.489 183.168L 276.332 199.157"/>
<path style="stroke:none; fill-rule:evenodd; fill:#000000" d="M 200.028 126.34C 200 124.785 198.817 123.844 196.86 123.844C 195.016 123.844 193.868 124.769 193.868 126.258C 193.868 126.738 194.016 127.156 194.274 127.437C 194.528 127.691 194.758 127.812 195.465 128.039L 197.727 128.734C 198.2 128.879 198.364 129.027 198.364 129.324C 198.364 129.766 197.84 130.035 196.969 130.035C 196.489 130.035 196.098 129.945 195.856 129.793C 195.657 129.652 195.575 129.512 195.496 129.137L 193.661 129.137C 193.711 130.711 194.883 131.535 197.094 131.535C 198.102 131.535 198.868 131.324 199.407 130.894C 199.942 130.469 200.266 129.797 200.266 129.086C 200.266 128.148 199.793 127.543 198.832 127.262L 196.434 126.578C 195.907 126.418 195.774 126.312 195.774 126.016C 195.774 125.617 196.204 125.344 196.86 125.344C 197.758 125.344 198.204 125.668 198.215 126.34L 200.028 126.34z"/>
<path style="stroke:none; fill-rule:evenodd; fill:#000000" d="M 204.696 124.141L 203.668 124.141L 203.668 122.215L 201.77 122.215L 201.77 124.141L 200.86 124.141L 200.86 125.34L 201.77 125.34L 201.77 129.824C 201.77 130.969 202.371 131.539 203.61 131.539C 204.024 131.539 204.36 131.5 204.696 131.394L 204.696 130.09C 204.512 130.121 204.407 130.141 204.274 130.141C 203.786 130.141 203.668 129.992 203.668 129.34L 203.668 125.344L 204.696 125.344L 204.696 124.141z"/>
<path style="stroke:none; fill-rule:evenodd; fill:#000000" d="M 205.965 124.039L 205.965 131.238L 207.864 131.238L 207.864 127.461C 207.864 126.383 208.414 125.844 209.524 125.844C 209.723 125.844 209.86 125.836 210.118 125.809L 210.118 123.949C 210.012 123.949 209.942 123.949 209.891 123.949C 209.028 123.949 208.274 124.492 207.868 125.434L 207.868 124.047L 205.965 124.039z"/>
<path style="stroke:none; fill-rule:evenodd; fill:#000000" d="M 213.164 124.008L 211.266 124.008L 211.266 131.238L 213.164 131.238L 213.164 124.008zM 213.164 121.441L 211.266 121.441L 211.266 123.141L 213.164 123.141L 213.164 121.441z"/>
<path style="stroke:none; fill-rule:evenodd; fill:#000000" d="M 221.082 131.004C 220.758 130.695 220.664 130.496 220.664 130.117L 220.664 126.082C 220.664 124.605 219.661 123.848 217.7 123.848C 215.743 123.848 214.723 124.691 214.602 126.398L 216.426 126.398C 216.52 125.605 216.828 125.348 217.766 125.348C 218.496 125.348 218.86 125.59 218.86 126.074C 218.86 126.316 218.743 126.531 218.539 126.641C 218.286 126.773 218.286 126.773 217.356 126.922L 216.602 127.055C 215.164 127.297 214.465 128.039 214.465 129.348C 214.465 129.965 214.637 130.48 214.973 130.844C 215.387 131.273 216.016 131.531 216.661 131.531C 217.465 131.531 218.204 131.184 218.86 130.496C 218.86 130.871 218.895 131.008 219.071 131.223L 221.075 131.223L 221.082 131.004zM 218.864 128.336C 218.864 129.422 218.328 130.039 217.383 130.039C 216.758 130.039 216.368 129.703 216.368 129.168C 216.368 128.605 216.661 128.34 217.434 128.176L 218.075 128.059C 218.567 127.965 218.649 127.941 218.86 127.832L 218.864 128.336z"/>
<path style="stroke:none; fill-rule:evenodd; fill:#000000" d="M 225.594 124.141L 224.567 124.141L 224.567 122.215L 222.668 122.215L 222.668 124.141L 221.758 124.141L 221.758 125.34L 222.668 125.34L 222.668 129.824C 222.668 130.969 223.27 131.539 224.508 131.539C 224.922 131.539 225.258 131.5 225.594 131.394L 225.594 130.09C 225.411 130.121 225.305 130.141 225.172 130.141C 224.684 130.141 224.567 129.992 224.567 129.34L 224.567 125.344L 225.594 125.344L 225.594 124.141z"/>
<path style="stroke:none; fill-rule:evenodd; fill:#000000" d="M 233.266 131.234L 233.266 124.043L 231.368 124.043L 231.368 128.531C 231.368 129.379 230.77 129.937 229.868 129.937C 229.071 129.937 228.672 129.516 228.672 128.652L 228.672 124.043L 226.774 124.043L 226.774 129.051C 226.774 130.633 227.657 131.539 229.2 131.539C 230.176 131.539 230.832 131.184 231.371 130.383L 231.371 131.234L 233.266 131.234z"/>
<path style="stroke:none; fill-rule:evenodd; fill:#000000" d="M 234.965 124.039L 234.965 131.238L 236.864 131.238L 236.864 126.871C 236.864 125.984 237.344 125.441 238.145 125.441C 238.77 125.441 239.161 125.805 239.161 126.383L 239.161 131.234L 241.059 131.234L 241.059 126.867C 241.059 125.98 241.52 125.437 242.286 125.437C 242.883 125.437 243.254 125.801 243.254 126.379L 243.254 131.23L 245.153 131.23L 245.153 126.086C 245.153 124.672 244.305 123.836 242.871 123.836C 241.969 123.836 241.332 124.172 240.774 124.953C 240.43 124.242 239.715 123.836 238.825 123.836C 238.004 123.836 237.473 124.129 236.86 124.898L 236.86 124.035L 234.965 124.039z"/>
<path style="stroke:none; fill-rule:evenodd; fill:#ff0000" d="M 234.766 117.141C 234.364 117.141 234.118 117.355 234.118 117.738C 234.118 117.918 234.207 118.109 234.356 118.215C 234.457 118.297 234.606 118.332 234.879 118.332L 237.215 118.332C 238.207 118.332 238.895 118.07 239.457 117.473C 239.981 116.922 240.258 116.211 240.258 115.371L 240.258 114.832C 240.258 113.031 238.977 111.641 237.305 111.641L 234.879 111.641C 234.571 111.641 234.493 111.652 234.391 111.723C 234.219 111.828 234.118 112.031 234.118 112.238C 234.118 112.621 234.348 112.836 234.766 112.836L 234.766 117.141zM 235.965 117.141L 235.965 112.844L 237.2 112.844C 237.793 112.844 238.219 113.023 238.555 113.414C 238.879 113.793 239.059 114.289 239.059 114.816L 239.059 115.332C 239.059 115.902 238.914 116.297 238.598 116.644C 238.25 117 237.879 117.137 237.207 117.137L 235.965 117.141z"/>
<path style="stroke:none; fill-rule:evenodd; fill:#ff0000" d="M 243.239 117.141C 244.254 116.281 244.926 115.715 245.239 115.43C 246.383 114.41 246.661 113.98 246.661 113.242C 246.661 111.984 245.614 111.043 244.204 111.043C 243.524 111.043 242.868 111.269 242.407 111.68C 242.016 112.031 241.715 112.586 241.715 112.949C 241.715 113.242 241.977 113.492 242.282 113.492C 242.52 113.492 242.735 113.363 242.793 113.18C 242.918 112.836 242.93 112.812 243.043 112.684C 243.293 112.406 243.692 112.242 244.145 112.242C 244.883 112.242 245.454 112.684 245.454 113.262C 245.454 113.644 245.262 113.894 244.121 114.926C 243.61 115.391 243.395 115.57 241.477 117.144L 241.477 118.332L 246.688 118.332L 246.688 117.324C 246.688 117.051 246.668 116.945 246.61 116.844C 246.508 116.672 246.313 116.57 246.118 116.57C 245.762 116.57 245.582 116.758 245.547 117.137L 243.239 117.141z"/>
<path style="stroke:#ff0000; stroke-dasharray:6,3; stroke-width:1.9133; fill:none" d="M 10.1015 164.516L 20.7578 164.516"/>
<path style="stroke:#ff0000; stroke-dasharray:6,3; stroke-width:1.9133; fill:none" d="M 247.266 122.121L 255.743 136.414"/>
<path style="stroke:none; fill-rule:evenodd; fill:#000000" d="M 255.555 32.5393L 254.465 32.5393L 254.465 31.8163C 254.465 31.4343 254.621 31.2423 254.961 31.2423C 255.118 31.2423 255.328 31.2693 255.485 31.3243L 255.485 29.8833C 255.137 29.8593 254.668 29.8443 254.414 29.8443C 253.168 29.8443 252.567 30.4373 252.567 31.6643L 252.567 32.5393L 251.555 32.5393L 251.555 33.7383L 252.567 33.7383L 252.567 39.6373L 254.465 39.6373L 254.465 33.7383L 255.555 33.7383L 255.555 32.5393z"/>
<path style="stroke:none; fill-rule:evenodd; fill:#000000" d="M 256.664 32.4413L 256.664 39.6413L 258.563 39.6413L 258.563 35.8633C 258.563 34.7853 259.114 34.2463 260.223 34.2463C 260.422 34.2463 260.559 34.2383 260.817 34.2113L 260.817 32.3513C 260.711 32.3513 260.641 32.3513 260.59 32.3513C 259.727 32.3513 258.973 32.8943 258.567 33.8363L 258.567 32.4493L 256.664 32.4413z"/>
<path style="stroke:none; fill-rule:evenodd; fill:#000000" d="M 265.102 32.2423C 262.911 32.2423 261.567 33.7073 261.567 36.0903C 261.567 38.4843 262.907 39.9373 265.114 39.9373C 267.293 39.9373 268.661 38.4733 268.661 36.1443C 268.661 33.6843 267.348 32.2423 265.098 32.2423L 265.102 32.2423zM 265.114 33.7423C 266.114 33.7423 266.762 34.6803 266.762 36.1173C 266.762 37.4843 266.086 38.4373 265.114 38.4373C 264.129 38.4373 263.465 37.4883 263.465 36.0903C 263.465 34.6913 264.125 33.7423 265.114 33.7423z"/>
<path style="stroke:none; fill-rule:evenodd; fill:#000000" d="M 269.965 32.4413L 269.965 39.6413L 271.864 39.6413L 271.864 35.2733C 271.864 34.4143 272.461 33.8443 273.364 33.8443C 274.161 33.8443 274.559 34.2893 274.559 35.1523L 274.559 39.6413L 276.457 39.6413L 276.457 34.7623C 276.457 33.1603 275.575 32.2423 274.032 32.2423C 273.055 32.2423 272.399 32.6173 271.86 33.4533L 271.86 32.4413L 269.965 32.4413z"/>
<path style="stroke:none; fill-rule:evenodd; fill:#000000" d="M 281.395 32.5393L 280.368 32.5393L 280.368 30.6133L 278.469 30.6133L 278.469 32.5393L 277.559 32.5393L 277.559 33.7383L 278.469 33.7383L 278.469 38.2233C 278.469 39.3673 279.071 39.9373 280.309 39.9373C 280.723 39.9373 281.059 39.8983 281.395 39.7933L 281.395 38.4883C 281.211 38.5193 281.106 38.5393 280.973 38.5393C 280.485 38.5393 280.368 38.3913 280.368 37.7383L 280.368 33.7423L 281.395 33.7423L 281.395 32.5393z"/>
<path style="stroke:none; fill-rule:evenodd; fill:#000000" d="M 288.883 39.4023C 288.559 39.0943 288.465 38.8943 288.465 38.5163L 288.465 34.4803C 288.465 33.0043 287.461 32.2463 285.5 32.2463C 283.543 32.2463 282.524 33.0903 282.403 34.7973L 284.227 34.7973C 284.321 34.0043 284.629 33.7463 285.567 33.7463C 286.297 33.7463 286.661 33.9883 286.661 34.4733C 286.661 34.7153 286.543 34.9303 286.34 35.0393C 286.086 35.1723 286.086 35.1723 285.157 35.3203L 284.403 35.4533C 282.965 35.6953 282.266 36.4373 282.266 37.7463C 282.266 38.3633 282.438 38.8793 282.774 39.2423C 283.188 39.6723 283.817 39.9303 284.461 39.9303C 285.266 39.9303 286.004 39.5823 286.661 38.8943C 286.661 39.2693 286.696 39.4063 286.871 39.6213L 288.875 39.6213L 288.883 39.4023zM 286.664 36.7343C 286.664 37.8203 286.129 38.4373 285.184 38.4373C 284.559 38.4373 284.168 38.1013 284.168 37.5663C 284.168 37.0043 284.461 36.7383 285.235 36.5743L 285.875 36.4573C 286.368 36.3633 286.45 36.3403 286.661 36.2303L 286.664 36.7343z"/>
<path style="stroke:none; fill-rule:evenodd; fill:#000000" d="M 290.164 39.6413L 292.063 39.6413L 292.063 29.8443L 290.164 29.8443L 290.164 39.6413z"/>
<path style="stroke:none; fill-rule:evenodd; fill:#000000" d="M 303.754 35.1133C 303.621 33.3203 302.434 32.2423 300.61 32.2423C 298.438 32.2423 297.168 33.6683 297.168 36.1443C 297.168 38.5393 298.422 39.9373 300.582 39.9373C 302.348 39.9373 303.578 38.8593 303.754 37.1373L 301.95 37.1373C 301.707 38.0743 301.332 38.4373 300.602 38.4373C 299.649 38.4373 299.067 37.5703 299.067 36.1443C 299.067 35.4533 299.2 34.8013 299.43 34.3673C 299.645 33.9613 300.063 33.7423 300.602 33.7423C 301.368 33.7423 301.731 34.1173 301.95 35.1133L 303.754 35.1133z"/>
<path style="stroke:none; fill-rule:evenodd; fill:#000000" d="M 308.2 32.2423C 306.008 32.2423 304.664 33.7073 304.664 36.0903C 304.664 38.4843 306.004 39.9373 308.211 39.9373C 310.391 39.9373 311.758 38.4733 311.758 36.1443C 311.758 33.6843 310.446 32.2423 308.196 32.2423L 308.2 32.2423zM 308.215 33.7423C 309.215 33.7423 309.864 34.6803 309.864 36.1173C 309.864 37.4843 309.188 38.4373 308.215 38.4373C 307.231 38.4373 306.567 37.4883 306.567 36.0903C 306.567 34.6913 307.227 33.7423 308.215 33.7423z"/>
<path style="stroke:none; fill-rule:evenodd; fill:#000000" d="M 313.164 32.4413L 313.164 39.6413L 315.063 39.6413L 315.063 35.8633C 315.063 34.7853 315.614 34.2463 316.723 34.2463C 316.922 34.2463 317.059 34.2383 317.317 34.2113L 317.317 32.3513C 317.211 32.3513 317.141 32.3513 317.09 32.3513C 316.227 32.3513 315.473 32.8943 315.067 33.8363L 315.067 32.4493L 313.164 32.4413z"/>
<path style="stroke:none; fill-rule:evenodd; fill:#000000" d="M 321.594 32.5393L 320.567 32.5393L 320.567 30.6133L 318.668 30.6133L 318.668 32.5393L 317.758 32.5393L 317.758 33.7383L 318.668 33.7383L 318.668 38.2233C 318.668 39.3673 319.27 39.9373 320.508 39.9373C 320.922 39.9373 321.258 39.8983 321.594 39.7933L 321.594 38.4883C 321.411 38.5193 321.305 38.5393 321.172 38.5393C 320.684 38.5393 320.567 38.3913 320.567 37.7383L 320.567 33.7423L 321.594 33.7423L 321.594 32.5393z"/>
<path style="stroke:none; fill-rule:evenodd; fill:#000000" d="M 329.082 36.6413C 329.094 36.4803 329.094 36.4103 329.094 36.3163C 329.094 35.5823 328.989 34.9023 328.817 34.3833C 328.336 33.0513 327.172 32.2463 325.711 32.2463C 323.637 32.2463 322.364 33.7543 322.364 36.1873C 322.364 38.5123 323.621 39.9413 325.668 39.9413C 327.286 39.9413 328.598 39.0233 329.016 37.6053L 327.168 37.6053C 326.942 38.1953 326.418 38.5393 325.739 38.5393C 325.204 38.5393 324.778 38.3123 324.508 37.9103C 324.336 37.6443 324.27 37.3243 324.243 36.6413L 329.082 36.6413zM 324.258 35.4413C 324.375 34.2423 324.844 33.6443 325.676 33.6443C 326.145 33.6443 326.571 33.8913 326.84 34.3013C 327.012 34.5943 327.094 34.8983 327.133 35.4413L 324.258 35.4413z"/>
<path style="stroke:none; fill-rule:evenodd; fill:#000000" d="M 334.219 36.0163L 336.575 32.4453L 334.325 32.4453L 333.161 34.5943L 331.985 32.4453L 329.735 32.4453L 332.09 36.0163L 329.68 39.6413L 331.93 39.6413L 333.161 37.3913L 334.379 39.6413L 336.629 39.6413L 334.219 36.0163z"/>
</g>
</svg>