<?xml version="1.0" encoding="UTF-8" standalone="no"?>
<svg
  xmlns="http://www.w3.org/2000/svg" version="1.1"
  width="400px"
  height="400px"
  viewBox="0 0 1000.0 1000.0">
<path stroke="#000000" stroke-width="2" fill="none"
  d="M 169.4,866.0 L 169.4,120.6 L 914.8,120.6 L 914.8,866.0 L 169.4,866.0 "
 />

<g>

<text x="542.1" y="966.6" font-family="Arial" font-size="37.8" fill="#000000" text-anchor="middle">
g bar e
</text>

<text x="169.4" y="929.3" font-family="Arial" font-size="37.8" fill="#000000" text-anchor="middle">
0.1
</text>

<text x="299.0" y="929.3" font-family="Arial" font-size="37.8" fill="#000000" text-anchor="middle">
0.2
</text>

<text x="428.6" y="929.3" font-family="Arial" font-size="37.8" fill="#000000" text-anchor="middle">
0.3
</text>

<text x="558.3" y="929.3" font-family="Arial" font-size="37.8" fill="#000000" text-anchor="middle">
0.4
</text>

<text x="687.9" y="929.3" font-family="Arial" font-size="37.8" fill="#000000" text-anchor="middle">
0.5
</text>

<text x="817.5" y="929.3" font-family="Arial" font-size="37.8" fill="#000000" text-anchor="middle">
0.6
</text>
<path stroke="#000000" stroke-width="2" fill="none"
  d="M 169.4,866.0 L 914.8,866.0 M 169.4,884.6 L 169.4,847.3 M 299.0,884.6 L 299.0,847.3 M 428.6,884.6 L 428.6,847.3 M 558.3,884.6 L 558.3,847.3 M 687.9,884.6 L 687.9,847.3 M 817.5,884.6 L 817.5,847.3 "
 />
<path stroke="#000000" stroke-width="2" fill="none"
  d="M 169.4,120.6 L 914.8,120.6 M 169.4,139.2 L 169.4,102.0 M 299.0,139.2 L 299.0,102.0 M 428.6,139.2 L 428.6,102.0 M 558.3,139.2 L 558.3,102.0 M 687.9,139.2 L 687.9,102.0 M 817.5,139.2 L 817.5,102.0 "
 />

<text x="76.2" y="493.3" font-family="Arial" font-size="37.8" fill="#000000" writing-mode="tb" text-anchor="middle">
rate
</text>

<text x="143.3" y="880.9" font-family="Arial" font-size="37.8" fill="#000000" text-anchor="end">
0
</text>

<text x="143.3" y="806.4" font-family="Arial" font-size="37.8" fill="#000000" text-anchor="end">
0.1
</text>

<text x="143.3" y="731.8" font-family="Arial" font-size="37.8" fill="#000000" text-anchor="end">
0.2
</text>

<text x="143.3" y="657.3" font-family="Arial" font-size="37.8" fill="#000000" text-anchor="end">
0.3
</text>

<text x="143.3" y="582.7" font-family="Arial" font-size="37.8" fill="#000000" text-anchor="end">
0.4
</text>

<text x="143.3" y="508.2" font-family="Arial" font-size="37.8" fill="#000000" text-anchor="end">
0.5
</text>

<text x="143.3" y="433.7" font-family="Arial" font-size="37.8" fill="#000000" text-anchor="end">
0.6
</text>

<text x="143.3" y="359.1" font-family="Arial" font-size="37.8" fill="#000000" text-anchor="end">
0.7
</text>

<text x="143.3" y="284.6" font-family="Arial" font-size="37.8" fill="#000000" text-anchor="end">
0.8
</text>

<text x="143.3" y="210.0" font-family="Arial" font-size="37.8" fill="#000000" text-anchor="end">
0.9
</text>

<text x="143.3" y="135.5" font-family="Arial" font-size="37.8" fill="#000000" text-anchor="end">
1
</text>
<path stroke="#000000" stroke-width="2" fill="none"
  d="M 169.4,866.0 L 169.4,120.6 M 150.8,866.0 L 188.0,866.0 M 150.8,791.4 L 188.0,791.4 M 150.8,716.9 L 188.0,716.9 M 150.8,642.4 L 188.0,642.4 M 150.8,567.8 L 188.0,567.8 M 150.8,493.3 L 188.0,493.3 M 150.8,418.8 L 188.0,418.8 M 150.8,344.2 L 188.0,344.2 M 150.8,269.7 L 188.0,269.7 M 150.8,195.1 L 188.0,195.1 M 150.8,120.6 L 188.0,120.6 "
 />
<path stroke="#000000" stroke-width="2" fill="none"
  d="M 914.8,866.0 L 914.8,120.6 M 896.1,866.0 L 933.4,866.0 M 896.1,791.4 L 933.4,791.4 M 896.1,716.9 L 933.4,716.9 M 896.1,642.4 L 933.4,642.4 M 896.1,567.8 L 933.4,567.8 M 896.1,493.3 L 933.4,493.3 M 896.1,418.8 L 933.4,418.8 M 896.1,344.2 L 933.4,344.2 M 896.1,269.7 L 933.4,269.7 M 896.1,195.1 L 933.4,195.1 M 896.1,120.6 L 933.4,120.6 "
 />

</g>

<g transform="translate(0.0,-831.0)">

<g transform="translate(0.0,-0.0)">
<path stroke="#000000" stroke-width="4" fill="none"
  d="M 169.4,866.0 L 214.1,866.0 "
 />

<text x="221.6" y="880.9" font-family="Arial" font-size="30.2" fill="#000000" text-anchor="start">
rate
</text>

</g>

<g transform="translate(136.0,-0.0)">
<path stroke="#ff0000" stroke-width="4" fill="none"
  d="M 169.4,866.0 L 214.1,866.0 "
 />

<text x="221.6" y="880.9" font-family="Arial" font-size="30.2" fill="#ff0000" text-anchor="start">
spike
</text>

</g>

</g>

<g>
<path stroke="#000000" stroke-width="4" fill="none"
  d="M 169.4,865.9 
L 201.8,856.6 L 234.2,786.2 L 266.6,714.6 L 299.0,668.1 L 331.4,503.9 L 363.8,512.5 L 396.2,432.9 L 428.6,401.3 L 461.1,352.9 L 493.5,329.3 
L 525.9,262.2 L 558.3,274.0 L 590.7,257.8 L 623.1,234.0 L 655.5,269.1 L 687.9,225.6 L 720.3,212.3 L 752.7,196.4 L 785.1,199.0 L 817.5,201.5 
L 850.0,197.3 L 882.4,184.2 L 914.8,182.3 "
 />
<path stroke="#000000" stroke-width="4" fill="none"
  d="M 176.8,865.9 L 176.3,863.1 L 174.7,860.7 L 172.2,859.0 L 169.4,858.5 L 166.5,859.0 L 164.1,860.7 L 162.5,863.1 L 161.9,865.9 L 162.5,868.8 L 164.1,871.2 L 166.5,872.8 L 169.4,873.4 L 172.2,872.8 L 174.7,871.2 L 176.3,868.8 L 176.8,865.9 M 209.2,856.6 L 208.7,853.8 L 207.1,851.4 L 204.6,849.7 L 201.8,849.2 L 198.9,849.7 L 196.5,851.4 L 194.9,853.8 L 194.3,856.6 L 194.9,859.5 L 196.5,861.9 L 198.9,863.5 L 201.8,864.1 L 204.6,863.5 L 207.1,861.9 L 208.7,859.5 L 209.2,856.6 M 241.7,786.2 L 241.1,783.4 L 239.5,781.0 L 237.1,779.3 L 234.2,778.8 L 231.3,779.3 L 228.9,781.0 L 227.3,783.4 L 226.7,786.2 L 227.3,789.1 L 228.9,791.5 L 231.3,793.1 L 234.2,793.7 L 237.1,793.1 L 239.5,791.5 L 241.1,789.1 L 241.7,786.2 M 274.1,714.6 L 273.5,711.8 L 271.9,709.3 L 269.5,707.7 L 266.6,707.2 L 263.8,707.7 L 261.3,709.3 L 259.7,711.8 L 259.2,714.6 L 259.7,717.5 L 261.3,719.9 L 263.8,721.5 L 266.6,722.1 L 269.5,721.5 L 271.9,719.9 L 273.5,717.5 L 274.1,714.6 M 306.5,668.1 L 305.9,665.3 L 304.3,662.9 L 301.9,661.3 L 299.0,660.7 L 296.2,661.3 L 293.7,662.9 L 292.1,665.3 L 291.6,668.1 L 292.1,671.0 L 293.7,673.4 L 296.2,675.0 L 299.0,675.6 L 301.9,675.0 L 304.3,673.4 L 305.9,671.0 L 306.5,668.1 M 338.9,503.9 L 338.3,501.0 L 336.7,498.6 L 334.3,497.0 L 331.4,496.4 L 328.6,497.0 L 326.2,498.6 L 324.5,501.0 L 324.0,503.9 L 324.5,506.7 L 326.2,509.1 L 328.6,510.8 L 331.4,511.3 L 334.3,510.8 L 336.7,509.1 L 338.3,506.7 L 338.9,503.9 M 371.3,512.5 L 370.7,509.6 L 369.1,507.2 L 366.7,505.6 L 363.8,505.0 L 361.0,505.6 L 358.6,507.2 L 356.9,509.6 L 356.4,512.5 L 356.9,515.3 L 358.6,517.7 L 361.0,519.4 L 363.8,519.9 L 366.7,519.4 L 369.1,517.7 L 370.7,515.3 L 371.3,512.5 M 403.7,432.9 L 403.1,430.1 L 401.5,427.7 L 399.1,426.0 L 396.2,425.5 L 393.4,426.0 L 391.0,427.7 L 389.4,430.1 L 388.8,432.9 L 389.4,435.8 L 391.0,438.2 L 393.4,439.8 L 396.2,440.4 L 399.1,439.8 L 401.5,438.2 L 403.1,435.8 L 403.7,432.9 M 436.1,401.3 L 435.5,398.4 L 433.9,396.0 L 431.5,394.4 L 428.6,393.8 L 425.8,394.4 L 423.4,396.0 L 421.8,398.4 L 421.2,401.3 L 421.8,404.1 L 423.4,406.5 L 425.8,408.1 L 428.6,408.7 L 431.5,408.1 L 433.9,406.5 L 435.5,404.1 L 436.1,401.3 M 468.5,352.9 L 467.9,350.1 L 466.3,347.6 L 463.9,346.0 L 461.1,345.5 L 458.2,346.0 L 455.8,347.6 L 454.2,350.1 L 453.6,352.9 L 454.2,355.8 L 455.8,358.2 L 458.2,359.8 L 461.1,360.4 L 463.9,359.8 L 466.3,358.2 L 467.9,355.8 L 468.5,352.9 M 500.9,329.3 L 500.4,326.4 L 498.7,324.0 L 496.3,322.4 L 493.5,321.8 L 490.6,322.4 L 488.2,324.0 L 486.6,326.4 L 486.0,329.3 L 486.6,332.1 L 488.2,334.5 L 490.6,336.2 L 493.5,336.7 L 496.3,336.2 L 498.7,334.5 L 500.4,332.1 L 500.9,329.3 M 533.3,262.2 L 532.8,259.4 L 531.1,256.9 L 528.7,255.3 L 525.9,254.8 L 523.0,255.3 L 520.6,256.9 L 519.0,259.4 L 518.4,262.2 L 519.0,265.1 L 520.6,267.5 L 523.0,269.1 L 525.9,269.7 L 528.7,269.1 L 531.1,267.5 L 532.8,265.1 L 533.3,262.2 M 565.7,274.0 L 565.2,271.2 L 563.6,268.7 L 561.1,267.1 L 558.3,266.6 L 555.4,267.1 L 553.0,268.7 L 551.4,271.2 L 550.8,274.0 L 551.4,276.9 L 553.0,279.3 L 555.4,280.9 L 558.3,281.5 L 561.1,280.9 L 563.6,279.3 L 565.2,276.9 L 565.7,274.0 M 598.1,257.8 L 597.6,255.0 L 596.0,252.5 L 593.5,250.9 L 590.7,250.4 L 587.8,250.9 L 585.4,252.5 L 583.8,255.0 L 583.2,257.8 L 583.8,260.7 L 585.4,263.1 L 587.8,264.7 L 590.7,265.3 L 593.5,264.7 L 596.0,263.1 L 597.6,260.7 L 598.1,257.8 M 630.6,234.0 L 630.0,231.1 L 628.4,228.7 L 625.9,227.1 L 623.1,226.5 L 620.2,227.1 L 617.8,228.7 L 616.2,231.1 L 615.6,234.0 L 616.2,236.9 L 617.8,239.3 L 620.2,240.9 L 623.1,241.5 L 625.9,240.9 L 628.4,239.3 L 630.0,236.9 L 630.6,234.0 M 663.0,269.1 L 662.4,266.2 L 660.8,263.8 L 658.4,262.2 L 655.5,261.6 L 652.7,262.2 L 650.2,263.8 L 648.6,266.2 L 648.1,269.1 L 648.6,271.9 L 650.2,274.4 L 652.7,276.0 L 655.5,276.5 L 658.4,276.0 L 660.8,274.4 L 662.4,271.9 L 663.0,269.1 M 695.4,225.6 L 694.8,222.7 L 693.2,220.3 L 690.8,218.7 L 687.9,218.1 L 685.1,218.7 L 682.6,220.3 L 681.0,222.7 L 680.5,225.6 L 681.0,228.4 L 682.6,230.9 L 685.1,232.5 L 687.9,233.0 L 690.8,232.5 L 693.2,230.9 L 694.8,228.4 L 695.4,225.6 M 727.8,212.3 L 727.2,209.4 L 725.6,207.0 L 723.2,205.4 L 720.3,204.8 L 717.5,205.4 L 715.0,207.0 L 713.4,209.4 L 712.9,212.3 L 713.4,215.1 L 715.0,217.5 L 717.5,219.2 L 720.3,219.7 L 723.2,219.2 L 725.6,217.5 L 727.2,215.1 L 727.8,212.3 M 760.2,196.4 L 759.6,193.5 L 758.0,191.1 L 755.6,189.5 L 752.7,188.9 L 749.9,189.5 L 747.5,191.1 L 745.8,193.5 L 745.3,196.4 L 745.8,199.2 L 747.5,201.6 L 749.9,203.2 L 752.7,203.8 L 755.6,203.2 L 758.0,201.6 L 759.6,199.2 L 760.2,196.4 M 792.6,199.0 L 792.0,196.2 L 790.4,193.8 L 788.0,192.1 L 785.1,191.6 L 782.3,192.1 L 779.9,193.8 L 778.2,196.2 L 777.7,199.0 L 778.2,201.9 L 779.9,204.3 L 782.3,205.9 L 785.1,206.5 L 788.0,205.9 L 790.4,204.3 L 792.0,201.9 L 792.6,199.0 M 825.0,201.5 L 824.4,198.7 L 822.8,196.3 L 820.4,194.7 L 817.5,194.1 L 814.7,194.7 L 812.3,196.3 L 810.7,198.7 L 810.1,201.5 L 810.7,204.4 L 812.3,206.8 L 814.7,208.4 L 817.5,209.0 L 820.4,208.4 L 822.8,206.8 L 824.4,204.4 L 825.0,201.5 M 857.4,197.3 L 856.8,194.5 L 855.2,192.1 L 852.8,190.4 L 850.0,189.9 L 847.1,190.4 L 844.7,192.1 L 843.1,194.5 L 842.5,197.3 L 843.1,200.2 L 844.7,202.6 L 847.1,204.2 L 850.0,204.8 L 852.8,204.2 L 855.2,202.6 L 856.8,200.2 L 857.4,197.3 M 889.8,184.2 L 889.2,181.4 L 887.6,178.9 L 885.2,177.3 L 882.4,176.8 L 879.5,177.3 L 877.1,178.9 L 875.5,181.4 L 874.9,184.2 L 875.5,187.1 L 877.1,189.5 L 879.5,191.1 L 882.4,191.7 L 885.2,191.1 L 887.6,189.5 L 889.2,187.1 L 889.8,184.2 M 922.2,182.3 L 921.7,179.5 L 920.0,177.0 L 917.6,175.4 L 914.8,174.9 L 911.9,175.4 L 909.5,177.0 L 907.9,179.5 L 907.3,182.3 L 907.9,185.2 L 909.5,187.6 L 911.9,189.2 L 914.8,189.8 L 917.6,189.2 L 920.0,187.6 L 921.7,185.2 L 922.2,182.3 "
 />
<path stroke="#ff0000" stroke-width="4" fill="none"
  d="M 169.4,866.0 
L 201.8,817.0 L 234.2,769.6 L 266.6,663.3 L 299.0,624.2 L 331.4,592.6 L 363.8,544.7 L 396.2,501.7 L 428.6,446.1 L 461.1,403.8 L 493.5,352.8 
L 525.9,324.4 L 558.3,320.0 L 590.7,265.2 L 623.1,247.0 L 655.5,222.9 L 687.9,211.7 L 720.3,208.3 L 752.7,207.3 L 785.1,219.4 L 817.5,203.0 
L 850.0,199.3 L 882.4,195.8 L 914.8,202.8 "
 />
<path stroke="#ff0000" stroke-width="4" fill="none"
  d="M 161.9,873.4 L 161.9,858.5 L 176.8,858.5 L 176.8,873.4 L 161.9,873.4 M 194.3,824.5 L 194.3,809.6 L 209.2,809.6 L 209.2,824.5 L 194.3,824.5 M 226.7,777.1 L 226.7,762.2 L 241.7,762.2 L 241.7,777.1 L 226.7,777.1 M 259.2,670.8 L 259.2,655.9 L 274.1,655.9 L 274.1,670.8 L 259.2,670.8 M 291.6,631.7 L 291.6,616.7 L 306.5,616.7 L 306.5,631.7 L 291.6,631.7 M 324.0,600.0 L 324.0,585.1 L 338.9,585.1 L 338.9,600.0 L 324.0,600.0 M 356.4,552.2 L 356.4,537.3 L 371.3,537.3 L 371.3,552.2 L 356.4,552.2 M 388.8,509.1 L 388.8,494.2 L 403.7,494.2 L 403.7,509.1 L 388.8,509.1 M 421.2,453.5 L 421.2,438.6 L 436.1,438.6 L 436.1,453.5 L 421.2,453.5 M 453.6,411.3 L 453.6,396.4 L 468.5,396.4 L 468.5,411.3 L 453.6,411.3 M 486.0,360.2 L 486.0,345.3 L 500.9,345.3 L 500.9,360.2 L 486.0,360.2 M 518.4,331.9 L 518.4,316.9 L 533.3,316.9 L 533.3,331.9 L 518.4,331.9 M 550.8,327.5 L 550.8,312.6 L 565.7,312.6 L 565.7,327.5 L 550.8,327.5 M 583.2,272.6 L 583.2,257.7 L 598.1,257.7 L 598.1,272.6 L 583.2,272.6 M 615.6,254.5 L 615.6,239.6 L 630.6,239.6 L 630.6,254.5 L 615.6,254.5 M 648.1,230.3 L 648.1,215.4 L 663.0,215.4 L 663.0,230.3 L 648.1,230.3 M 680.5,219.1 L 680.5,204.2 L 695.4,204.2 L 695.4,219.1 L 680.5,219.1 M 712.9,215.7 L 712.9,200.8 L 727.8,200.8 L 727.8,215.7 L 712.9,215.7 M 745.3,214.7 L 745.3,199.8 L 760.2,199.8 L 760.2,214.7 L 745.3,214.7 M 777.7,226.8 L 777.7,211.9 L 792.6,211.9 L 792.6,226.8 L 777.7,226.8 M 810.1,210.5 L 810.1,195.6 L 825.0,195.6 L 825.0,210.5 L 810.1,210.5 M 842.5,206.7 L 842.5,191.8 L 857.4,191.8 L 857.4,206.7 L 842.5,206.7 M 874.9,203.2 L 874.9,188.3 L 889.8,188.3 L 889.8,203.2 L 874.9,203.2 M 907.3,210.3 L 907.3,195.4 L 922.2,195.4 L 922.2,210.3 L 907.3,210.3 "
 />

</g>
</svg>
