<?xml version="1.0" encoding="ISO-8859-1" standalone="yes"?>
<svg width="486.882" height="375.782">
  <defs> 
    <marker id="ArrowEnd" viewBox="0 0 10 10" refX="0" refY="5" 
     markerUnits="strokeWidth" 
     markerWidth="4" 
     markerHeight="3" 
     orient="auto"> 
        <path d="M 0 0 L 10 5 L 0 10 z" /> 
    </marker>
    <marker id="ArrowStart" viewBox="0 0 10 10" refX="10" refY="5" 
     markerUnits="strokeWidth" 
     markerWidth="4" 
     markerHeight="3" 
     orient="auto"> 
        <path d="M 10 0 L 0 5 L 10 10 z" /> 
    </marker> </defs>
<g>
<path style="stroke:#000000; stroke-width:1.59941; fill:none" d="M 109.836 320.934L 109.836 318.536"/>
<path style="stroke:#000000; stroke-width:1.59941; fill:none" d="M 155.418 320.934L 155.418 318.536"/>
<path style="stroke:#000000; stroke-width:1.59941; fill:none" d="M 201.801 320.934L 201.801 318.536"/>
<path style="stroke:#000000; stroke-width:1.59941; fill:none" d="M 248.184 320.934L 248.184 318.536"/>
<path style="stroke:#000000; stroke-width:1.59941; fill:none" d="M 293.77 320.934L 293.77 318.536"/>
<path style="stroke:#000000; stroke-width:1.59941; fill:none" d="M 340.153 320.934L 340.153 318.536"/>
<path style="stroke:#000000; stroke-width:1.59941; fill:none" d="M 386.532 320.934L 386.532 318.536"/>
<path style="stroke:#000000; stroke-width:1.59941; fill:none" d="M 432.117 320.934L 432.117 318.536"/>
<path style="stroke:#000000; stroke-width:1.59941; fill:none" d="M 478.5 320.934L 478.5 318.536"/>
<path style="stroke:#000000; stroke-width:1.59941; fill:none" d="M 109.836 37.039L 109.836 39.438"/>
<path style="stroke:#000000; stroke-width:1.59941; fill:none" d="M 155.418 37.039L 155.418 39.438"/>
<path style="stroke:#000000; stroke-width:1.59941; fill:none" d="M 201.801 37.039L 201.801 39.438"/>
<path style="stroke:#000000; stroke-width:1.59941; fill:none" d="M 248.184 37.039L 248.184 39.438"/>
<path style="stroke:#000000; stroke-width:1.59941; fill:none" d="M 293.77 37.039L 293.77 39.438"/>
<path style="stroke:#000000; stroke-width:1.59941; fill:none" d="M 340.153 37.039L 340.153 39.438"/>
<path style="stroke:#000000; stroke-width:1.59941; fill:none" d="M 386.532 37.039L 386.532 39.438"/>
<path style="stroke:#000000; stroke-width:1.59941; fill:none" d="M 432.117 37.039L 432.117 39.438"/>
<path style="stroke:#000000; stroke-width:1.59941; fill:none" d="M 478.5 37.039L 478.5 39.438"/>
<path style="stroke:#000000; stroke-width:1.59941; fill:none" d="M 109.836 320.934L 109.836 316.137"/>
<path style="stroke:#000000; stroke-width:1.59941; fill:none" d="M 201.801 320.934L 201.801 316.137"/>
<path style="stroke:#000000; stroke-width:1.59941; fill:none" d="M 293.77 320.934L 293.77 316.137"/>
<path style="stroke:#000000; stroke-width:1.59941; fill:none" d="M 386.532 320.934L 386.532 316.137"/>
<path style="stroke:#000000; stroke-width:1.59941; fill:none" d="M 478.5 320.934L 478.5 316.137"/>
<path style="stroke:#000000; stroke-width:1.59941; fill:none" d="M 109.836 37.039L 109.836 41.836"/>
<path style="stroke:#000000; stroke-width:1.59941; fill:none" d="M 201.801 37.039L 201.801 41.836"/>
<path style="stroke:#000000; stroke-width:1.59941; fill:none" d="M 293.77 37.039L 293.77 41.836"/>
<path style="stroke:#000000; stroke-width:1.59941; fill:none" d="M 386.532 37.039L 386.532 41.836"/>
<path style="stroke:#000000; stroke-width:1.59941; fill:none" d="M 478.5 37.039L 478.5 41.836"/>
<path style="stroke:none; fill-rule:evenodd; fill:#000000" d="M 109.344 327.493C 107.938 327.493 106.656 328.121 105.867 329.192C 104.887 330.528 104.399 332.579 104.399 335.403C 104.399 340.551 106.102 343.289 109.348 343.289C 112.547 343.289 114.297 340.555 114.297 335.532C 114.297 332.559 113.828 330.575 112.824 329.192C 112.039 328.106 110.778 327.493 109.348 327.493L 109.344 327.493zM 109.344 329.196C 111.383 329.196 112.391 331.258 112.391 335.348C 112.391 339.668 111.403 341.692 109.301 341.692C 107.305 341.692 106.297 339.586 106.297 335.41C 106.297 331.239 107.305 329.196 109.344 329.196z"/>
<path style="stroke:none; fill-rule:evenodd; fill:#000000" d="M 207.082 340.891L 199.059 340.891C 199.25 339.645 199.938 338.848 201.813 337.746L 203.961 336.586C 206.09 335.426 207.188 333.852 207.188 331.981C 207.188 330.711 206.672 329.528 205.77 328.707C 204.867 327.891 203.75 327.5 202.309 327.5C 200.375 327.5 198.93 328.188 198.094 329.481C 197.559 330.297 197.321 331.246 197.278 332.797L 199.176 332.797C 199.239 331.778 199.367 331.157 199.629 330.668C 200.125 329.754 201.117 329.2 202.266 329.2C 203.992 329.2 205.289 330.426 205.289 332.063C 205.289 333.266 204.578 334.297 203.215 335.075L 201.231 336.192C 198.035 337.996 197.106 339.438 196.93 342.793L 207.086 342.793L 207.082 340.891z"/>
<path style="stroke:none; fill-rule:evenodd; fill:#000000" d="M 295.391 339.094L 295.391 342.789L 297.188 342.789L 297.188 339.094L 299.414 339.094L 299.414 337.395L 297.188 337.395L 297.188 327.496L 295.778 327.496L 288.793 337.094L 288.793 339.094L 295.391 339.094zM 295.391 337.395L 290.461 337.395L 295.391 330.727L 295.391 337.395z"/>
<path style="stroke:none; fill-rule:evenodd; fill:#000000" d="M 390.844 331.493C 390.481 328.985 388.852 327.493 386.535 327.493C 384.864 327.493 383.364 328.313 382.465 329.672C 381.524 331.161 381.094 333.035 381.094 335.821C 381.094 338.387 381.481 340.028 382.379 341.387C 383.192 342.614 384.524 343.285 386.199 343.285C 389.098 343.285 391.184 341.133 391.184 338.137C 391.184 335.293 389.242 333.289 386.504 333.289C 384.996 333.289 383.809 333.868 382.989 334.989C 383.008 331.262 384.211 329.192 386.387 329.192C 387.719 329.192 388.645 330.028 388.946 331.489L 390.844 331.493zM 386.282 334.993C 388.133 334.993 389.293 336.254 389.293 338.293C 389.293 340.2 387.985 341.59 386.219 341.59C 384.434 341.59 383.078 340.137 383.078 338.184C 383.078 336.301 384.387 334.993 386.285 334.993L 386.282 334.993z"/>
<path style="stroke:none; fill-rule:evenodd; fill:#000000" d="M 480.535 334.746C 482.082 333.797 482.59 333.02 482.59 331.575C 482.59 329.18 480.731 327.496 478.039 327.496C 475.371 327.496 473.492 329.18 473.492 331.575C 473.492 332.996 473.992 333.774 475.504 334.746C 473.758 335.586 472.895 336.86 472.895 338.543C 472.895 341.348 475.012 343.289 478.043 343.289C 481.071 343.289 483.192 341.348 483.192 338.563C 483.192 336.86 482.324 335.586 480.535 334.746zM 478.043 329.196C 479.656 329.196 480.692 330.141 480.692 331.625C 480.692 333.043 479.637 333.989 478.043 333.989C 476.449 333.989 475.395 333.043 475.395 331.602C 475.395 330.141 476.449 329.192 478.043 329.192L 478.043 329.196zM 478.043 335.594C 479.973 335.594 481.293 336.797 481.293 338.582C 481.293 340.387 479.977 341.59 478 341.59C 476.114 341.59 474.797 340.368 474.797 338.582C 474.797 336.801 476.114 335.594 478.043 335.594z"/>
<path style="stroke:none; fill-rule:evenodd; fill:#000000" d="M 153.094 355.391L 149.895 355.391L 149.895 371.09L 160.696 371.09L 160.696 368.391L 153.094 368.391L 153.094 355.391z"/>
<path style="stroke:none; fill-rule:evenodd; fill:#000000" d="M 172.707 366.192C 172.727 365.934 172.727 365.825 172.727 365.672C 172.727 364.504 172.555 363.418 172.274 362.598C 171.5 360.477 169.621 359.196 167.266 359.196C 163.922 359.196 161.871 361.625 161.871 365.547C 161.871 369.297 163.899 371.594 167.203 371.594C 169.813 371.594 171.93 370.106 172.598 367.813L 169.621 367.813C 169.258 368.746 168.414 369.293 167.313 369.293C 166.449 369.293 165.758 368.926 165.328 368.27C 165.051 367.836 164.942 367.309 164.899 366.196L 172.707 366.192zM 164.934 364.192C 165.125 362.395 165.883 361.493 167.219 361.493C 167.973 361.493 168.664 361.864 169.098 362.477C 169.375 362.914 169.508 363.375 169.571 364.188L 164.934 364.192z"/>
<path style="stroke:none; fill-rule:evenodd; fill:#000000" d="M 184.707 370.727C 184.153 370.231 183.996 369.907 183.996 369.297L 183.996 362.797C 183.996 360.414 182.383 359.2 179.239 359.2C 176.094 359.2 174.457 360.551 174.266 363.282L 177.149 363.282C 177.297 362.008 177.789 361.598 179.262 361.598C 180.414 361.598 180.992 361.989 180.992 362.774C 180.992 363.164 180.801 363.512 180.481 363.688C 180.074 363.903 180.074 363.903 178.598 364.145L 177.403 364.36C 175.114 364.75 174 365.95 174 368.063C 174 369.063 174.278 369.891 174.809 370.481C 175.469 371.176 176.469 371.59 177.496 371.59C 178.774 371.59 179.949 371.028 180.996 369.922C 180.996 370.528 181.059 370.743 181.348 371.09L 184.707 371.09L 184.707 370.727zM 180.992 366.418C 180.992 368.188 180.137 369.192 178.617 369.192C 177.614 369.192 176.992 368.649 176.992 367.774C 176.992 366.856 177.461 366.422 178.703 366.16L 179.727 365.965C 180.516 365.813 180.645 365.77 180.989 365.594L 180.992 366.418z"/>
<path style="stroke:none; fill-rule:evenodd; fill:#000000" d="M 186.789 359.391L 186.789 371.09L 189.789 371.09L 189.789 364.934C 189.789 363.176 190.668 362.293 192.43 362.293C 192.75 362.293 192.965 362.301 193.375 362.325L 193.375 359.293C 193.203 359.293 193.098 359.293 193.012 359.293C 191.637 359.293 190.434 360.18 189.789 361.719L 189.789 359.391L 186.789 359.391z"/>
<path style="stroke:none; fill-rule:evenodd; fill:#000000" d="M 195.192 359.391L 195.192 371.09L 198.192 371.09L 198.192 364.012C 198.192 362.614 199.164 361.696 200.641 361.696C 201.938 361.696 202.59 362.418 202.59 363.817L 202.59 371.094L 205.59 371.094L 205.59 363.25C 205.59 360.672 204.168 359.196 201.688 359.196C 200.114 359.196 199.059 359.789 198.196 361.118L 198.196 359.395L 195.192 359.391z"/>
<path style="stroke:none; fill-rule:evenodd; fill:#000000" d="M 211.492 359.434L 208.492 359.434L 208.492 371.09L 211.492 371.09L 211.492 359.434zM 211.492 355.391L 208.492 355.391L 208.492 358.09L 211.492 358.09L 211.492 355.391z"/>
<path style="stroke:none; fill-rule:evenodd; fill:#000000" d="M 214.391 359.391L 214.391 371.09L 217.391 371.09L 217.391 364.012C 217.391 362.614 218.364 361.696 219.84 361.696C 221.137 361.696 221.789 362.418 221.789 363.817L 221.789 371.094L 224.789 371.094L 224.789 363.25C 224.789 360.672 223.367 359.196 220.887 359.196C 219.313 359.196 218.258 359.789 217.395 361.118L 217.395 359.395L 214.391 359.391z"/>
<path style="stroke:none; fill-rule:evenodd; fill:#000000" d="M 234.992 359.391L 234.992 361.184C 234.086 359.801 233.09 359.192 231.746 359.192C 228.977 359.192 226.899 361.903 226.899 365.52C 226.899 369.16 228.801 371.586 231.684 371.586C 233.047 371.586 233.867 371.176 234.996 369.899L 234.996 371.489C 234.996 372.903 233.942 373.883 232.434 373.883C 231.293 373.883 230.539 373.399 230.301 372.489L 227.176 372.489C 227.196 373.391 227.543 374.016 228.321 374.664C 229.25 375.418 230.547 375.782 232.34 375.782C 235.864 375.782 237.899 374.203 237.899 371.457L 237.899 359.383L 234.992 359.391zM 232.379 361.692C 233.906 361.692 235.039 363.289 235.039 365.477C 235.039 367.621 233.926 369.086 232.336 369.086C 230.899 369.086 229.895 367.621 229.895 365.477C 229.895 363.246 230.899 361.692 232.383 361.692L 232.379 361.692z"/>
<path style="stroke:none; fill-rule:evenodd; fill:#000000" d="M 253.692 358.094L 258.301 358.094L 258.301 355.395L 245.692 355.395L 245.692 358.094L 250.489 358.094L 250.489 371.094L 253.688 371.094L 253.692 358.094z"/>
<path style="stroke:none; fill-rule:evenodd; fill:#000000" d="M 259.992 359.391L 259.992 371.09L 262.992 371.09L 262.992 364.934C 262.992 363.176 263.871 362.293 265.633 362.293C 265.953 362.293 266.168 362.301 266.578 362.325L 266.578 359.293C 266.406 359.293 266.301 359.293 266.215 359.293C 264.84 359.293 263.637 360.18 262.992 361.719L 262.992 359.391L 259.992 359.391z"/>
<path style="stroke:none; fill-rule:evenodd; fill:#000000" d="M 271.492 359.434L 268.492 359.434L 268.492 371.09L 271.492 371.09L 271.492 359.434zM 271.492 355.391L 268.492 355.391L 268.492 358.09L 271.492 358.09L 271.492 355.391z"/>
<path style="stroke:none; fill-rule:evenodd; fill:#000000" d="M 284.305 370.727C 283.75 370.231 283.594 369.907 283.594 369.297L 283.594 362.797C 283.594 360.414 281.981 359.2 278.836 359.2C 275.692 359.2 274.055 360.551 273.864 363.282L 276.746 363.282C 276.895 362.008 277.387 361.598 278.86 361.598C 280.012 361.598 280.59 361.989 280.59 362.774C 280.59 363.164 280.399 363.512 280.078 363.688C 279.672 363.903 279.672 363.903 278.196 364.145L 277 364.36C 274.711 364.75 273.598 365.95 273.598 368.063C 273.598 369.063 273.875 369.891 274.406 370.481C 275.067 371.176 276.067 371.59 277.094 371.59C 278.371 371.59 279.547 371.028 280.594 369.922C 280.594 370.528 280.656 370.743 280.946 371.09L 284.305 371.09L 284.305 370.727zM 280.594 366.418C 280.594 368.188 279.739 369.192 278.219 369.192C 277.215 369.192 276.594 368.649 276.594 367.774C 276.594 366.856 277.063 366.422 278.305 366.16L 279.328 365.965C 280.117 365.813 280.246 365.77 280.59 365.594L 280.594 366.418z"/>
<path style="stroke:none; fill-rule:evenodd; fill:#000000" d="M 286.492 371.094L 289.492 371.094L 289.492 355.395L 286.492 355.395L 286.492 371.094z"/>
<path style="stroke:none; fill-rule:evenodd; fill:#000000" d="M 301.895 363.192C 301.852 360.703 299.946 359.196 296.805 359.196C 293.836 359.196 291.996 360.688 291.996 363.09C 291.996 363.868 292.231 364.539 292.645 364.993C 293.055 365.403 293.422 365.598 294.551 365.965L 298.168 367.09C 298.926 367.325 299.188 367.563 299.188 368.039C 299.188 368.75 298.348 369.184 296.946 369.184C 296.172 369.184 295.547 369.035 295.156 368.782C 294.836 368.551 294.707 368.317 294.574 367.696L 291.621 367.696C 291.707 370.243 293.578 371.586 297.11 371.586C 298.723 371.586 299.949 371.243 300.813 370.551C 301.672 369.86 302.192 368.778 302.192 367.629C 302.192 366.118 301.434 365.141 299.895 364.688L 296.059 363.586C 295.215 363.328 295 363.157 295 362.68C 295 362.032 295.696 361.598 296.762 361.598C 298.219 361.598 298.938 362.121 298.957 363.192L 301.895 363.192z"/>
<path style="stroke:none; fill-rule:evenodd; fill:#000000" d="M 315.52 359.192C 311.969 359.192 309.793 361.555 309.793 365.391C 309.793 369.246 311.965 371.59 315.543 371.59C 319.074 371.59 321.293 369.231 321.293 365.481C 321.293 361.516 319.164 359.196 315.524 359.196L 315.52 359.192zM 315.543 361.594C 317.207 361.594 318.293 363.11 318.293 365.438C 318.293 367.653 317.168 369.192 315.543 369.192C 313.899 369.192 312.797 367.657 312.797 365.395C 312.797 363.133 313.899 361.598 315.543 361.598L 315.543 361.594z"/>
<path style="stroke:none; fill-rule:evenodd; fill:#000000" d="M 323.59 359.391L 323.59 371.09L 326.59 371.09L 326.59 364.012C 326.59 362.614 327.563 361.696 329.039 361.696C 330.336 361.696 330.989 362.418 330.989 363.817L 330.989 371.094L 333.989 371.094L 333.989 363.25C 333.989 360.672 332.567 359.196 330.086 359.196C 328.512 359.196 327.457 359.789 326.594 361.118L 326.594 359.395L 323.59 359.391z"/>
<path style="stroke:none; fill-rule:evenodd; fill:#000000" d="M 352.211 367.891L 353.246 371.09L 356.571 371.09L 351.133 355.391L 347.551 355.391L 341.961 371.09L 345.262 371.09L 346.317 367.891L 352.211 367.891zM 351.324 365.192L 347.223 365.192L 349.274 359.067L 351.324 365.192z"/>
<path style="stroke:none; fill-rule:evenodd; fill:#000000" d="M 371.719 360.688C 371.614 359.328 371.332 358.465 370.664 357.582C 369.461 355.985 367.524 355.102 365.18 355.102C 360.75 355.102 357.996 358.274 357.996 363.371C 357.996 368.422 360.727 371.598 365.094 371.598C 368.985 371.598 371.59 369.332 371.785 365.723L 368.637 365.723C 368.446 367.746 367.172 368.899 365.168 368.899C 362.668 368.899 361.203 366.875 361.203 363.446C 361.203 359.977 362.731 357.903 365.278 357.903C 366.395 357.903 367.324 358.285 367.93 359.032C 368.274 359.457 368.446 359.86 368.641 360.692L 371.719 360.688z"/>
<path style="stroke:none; fill-rule:evenodd; fill:#000000" d="M 383.492 355.391L 380.293 355.391L 380.293 371.09L 391.094 371.09L 391.094 368.391L 383.492 368.391L 383.492 355.391z"/>
<path style="stroke:none; fill-rule:evenodd; fill:#000000" d="M 396.293 359.434L 393.293 359.434L 393.293 371.09L 396.293 371.09L 396.293 359.434zM 396.293 355.391L 393.293 355.391L 393.293 358.09L 396.293 358.09L 396.293 355.391z"/>
<path style="stroke:none; fill-rule:evenodd; fill:#000000" d="M 408.696 363.192C 408.653 360.703 406.746 359.196 403.606 359.196C 400.637 359.196 398.797 360.688 398.797 363.09C 398.797 363.868 399.032 364.539 399.446 364.993C 399.856 365.403 400.223 365.598 401.352 365.965L 404.969 367.09C 405.727 367.325 405.989 367.563 405.989 368.039C 405.989 368.75 405.149 369.184 403.746 369.184C 402.973 369.184 402.348 369.035 401.957 368.782C 401.637 368.551 401.508 368.317 401.375 367.696L 398.422 367.696C 398.508 370.243 400.379 371.586 403.91 371.586C 405.524 371.586 406.75 371.243 407.614 370.551C 408.473 369.86 408.992 368.778 408.992 367.629C 408.992 366.118 408.235 365.141 406.696 364.688L 402.86 363.586C 402.016 363.328 401.801 363.157 401.801 362.68C 401.801 362.032 402.496 361.598 403.563 361.598C 405.02 361.598 405.739 362.121 405.758 363.192L 408.696 363.192z"/>
<path style="stroke:none; fill-rule:evenodd; fill:#000000" d="M 416.289 359.696L 414.594 359.696L 414.594 356.543L 411.594 356.543L 411.594 359.696L 410.098 359.696L 410.098 361.696L 411.594 361.696L 411.594 368.856C 411.594 370.688 412.563 371.594 414.543 371.594C 415.211 371.594 415.746 371.532 416.289 371.36L 416.289 369.243C 415.985 369.278 415.813 369.297 415.594 369.297C 414.789 369.297 414.594 369.063 414.594 368.028L 414.594 361.7L 416.289 361.7L 416.289 359.696z"/>
<path style="stroke:#000000; stroke-width:1.59941; fill:none" d="M 86.6448 320.934L 89.0428 320.934"/>
<path style="stroke:#000000; stroke-width:1.59941; fill:none" d="M 86.6448 307.34L 89.0428 307.34"/>
<path style="stroke:#000000; stroke-width:1.59941; fill:none" d="M 86.6448 294.543L 89.0428 294.543"/>
<path style="stroke:#000000; stroke-width:1.59941; fill:none" d="M 86.6448 281.75L 89.0428 281.75"/>
<path style="stroke:#000000; stroke-width:1.59941; fill:none" d="M 86.6448 268.953L 89.0428 268.953"/>
<path style="stroke:#000000; stroke-width:1.59941; fill:none" d="M 86.6448 256.157L 89.0428 256.157"/>
<path style="stroke:#000000; stroke-width:1.59941; fill:none" d="M 86.6448 243.364L 89.0428 243.364"/>
<path style="stroke:#000000; stroke-width:1.59941; fill:none" d="M 86.6448 230.567L 89.0428 230.567"/>
<path style="stroke:#000000; stroke-width:1.59941; fill:none" d="M 86.6448 217.774L 89.0428 217.774"/>
<path style="stroke:#000000; stroke-width:1.59941; fill:none" d="M 86.6448 204.977L 89.0428 204.977"/>
<path style="stroke:#000000; stroke-width:1.59941; fill:none" d="M 86.6448 191.383L 89.0428 191.383"/>
<path style="stroke:#000000; stroke-width:1.59941; fill:none" d="M 86.6448 178.586L 89.0428 178.586"/>
<path style="stroke:#000000; stroke-width:1.59941; fill:none" d="M 86.6448 165.793L 89.0428 165.793"/>
<path style="stroke:#000000; stroke-width:1.59941; fill:none" d="M 86.6448 152.996L 89.0428 152.996"/>
<path style="stroke:#000000; stroke-width:1.59941; fill:none" d="M 86.6448 140.2L 89.0428 140.2"/>
<path style="stroke:#000000; stroke-width:1.59941; fill:none" d="M 86.6448 127.407L 89.0428 127.407"/>
<path style="stroke:#000000; stroke-width:1.59941; fill:none" d="M 86.6448 114.61L 89.0428 114.61"/>
<path style="stroke:#000000; stroke-width:1.59941; fill:none" d="M 86.6448 101.817L 89.0428 101.817"/>
<path style="stroke:#000000; stroke-width:1.59941; fill:none" d="M 86.6448 88.219L 89.0428 88.219"/>
<path style="stroke:#000000; stroke-width:1.59941; fill:none" d="M 86.6448 75.426L 89.0428 75.426"/>
<path style="stroke:#000000; stroke-width:1.59941; fill:none" d="M 86.6448 62.629L 89.0428 62.629"/>
<path style="stroke:#000000; stroke-width:1.59941; fill:none" d="M 86.6448 49.832L 89.0428 49.832"/>
<path style="stroke:#000000; stroke-width:1.59941; fill:none" d="M 86.6448 37.039L 89.0428 37.039"/>
<path style="stroke:#000000; stroke-width:1.59941; fill:none" d="M 478.5 320.934L 476.102 320.934"/>
<path style="stroke:#000000; stroke-width:1.59941; fill:none" d="M 478.5 307.34L 476.102 307.34"/>
<path style="stroke:#000000; stroke-width:1.59941; fill:none" d="M 478.5 294.543L 476.102 294.543"/>
<path style="stroke:#000000; stroke-width:1.59941; fill:none" d="M 478.5 281.75L 476.102 281.75"/>
<path style="stroke:#000000; stroke-width:1.59941; fill:none" d="M 478.5 268.953L 476.102 268.953"/>
<path style="stroke:#000000; stroke-width:1.59941; fill:none" d="M 478.5 256.157L 476.102 256.157"/>
<path style="stroke:#000000; stroke-width:1.59941; fill:none" d="M 478.5 243.364L 476.102 243.364"/>
<path style="stroke:#000000; stroke-width:1.59941; fill:none" d="M 478.5 230.567L 476.102 230.567"/>
<path style="stroke:#000000; stroke-width:1.59941; fill:none" d="M 478.5 217.774L 476.102 217.774"/>
<path style="stroke:#000000; stroke-width:1.59941; fill:none" d="M 478.5 204.977L 476.102 204.977"/>
<path style="stroke:#000000; stroke-width:1.59941; fill:none" d="M 478.5 191.383L 476.102 191.383"/>
<path style="stroke:#000000; stroke-width:1.59941; fill:none" d="M 478.5 178.586L 476.102 178.586"/>
<path style="stroke:#000000; stroke-width:1.59941; fill:none" d="M 478.5 165.793L 476.102 165.793"/>
<path style="stroke:#000000; stroke-width:1.59941; fill:none" d="M 478.5 152.996L 476.102 152.996"/>
<path style="stroke:#000000; stroke-width:1.59941; fill:none" d="M 478.5 140.2L 476.102 140.2"/>
<path style="stroke:#000000; stroke-width:1.59941; fill:none" d="M 478.5 127.407L 476.102 127.407"/>
<path style="stroke:#000000; stroke-width:1.59941; fill:none" d="M 478.5 114.61L 476.102 114.61"/>
<path style="stroke:#000000; stroke-width:1.59941; fill:none" d="M 478.5 101.817L 476.102 101.817"/>
<path style="stroke:#000000; stroke-width:1.59941; fill:none" d="M 478.5 88.219L 476.102 88.219"/>
<path style="stroke:#000000; stroke-width:1.59941; fill:none" d="M 478.5 75.426L 476.102 75.426"/>
<path style="stroke:#000000; stroke-width:1.59941; fill:none" d="M 478.5 62.629L 476.102 62.629"/>
<path style="stroke:#000000; stroke-width:1.59941; fill:none" d="M 478.5 49.832L 476.102 49.832"/>
<path style="stroke:#000000; stroke-width:1.59941; fill:none" d="M 478.5 37.039L 476.102 37.039"/>
<path style="stroke:#000000; stroke-width:1.59941; fill:none" d="M 86.6448 307.34L 91.4418 307.34"/>
<path style="stroke:#000000; stroke-width:1.59941; fill:none" d="M 86.6448 243.364L 91.4418 243.364"/>
<path style="stroke:#000000; stroke-width:1.59941; fill:none" d="M 86.6448 178.586L 91.4418 178.586"/>
<path style="stroke:#000000; stroke-width:1.59941; fill:none" d="M 86.6448 114.61L 91.4418 114.61"/>
<path style="stroke:#000000; stroke-width:1.59941; fill:none" d="M 86.6448 49.832L 91.4418 49.832"/>
<path style="stroke:#000000; stroke-width:1.59941; fill:none" d="M 478.5 307.34L 473.703 307.34"/>
<path style="stroke:#000000; stroke-width:1.59941; fill:none" d="M 478.5 243.364L 473.703 243.364"/>
<path style="stroke:#000000; stroke-width:1.59941; fill:none" d="M 478.5 178.586L 473.703 178.586"/>
<path style="stroke:#000000; stroke-width:1.59941; fill:none" d="M 478.5 114.61L 473.703 114.61"/>
<path style="stroke:#000000; stroke-width:1.59941; fill:none" d="M 478.5 49.832L 473.703 49.832"/>
<path style="stroke:none; fill-rule:evenodd; fill:#000000" d="M 67.0428 297.094C 65.6368 297.094 64.3558 297.723 63.5668 298.793C 62.5858 300.129 62.0978 302.18 62.0978 305.004C 62.0978 310.153 63.8008 312.891 67.0468 312.891C 70.2458 312.891 71.9958 310.157 71.9958 305.133C 71.9958 302.161 71.5278 300.176 70.5238 298.793C 69.7388 297.707 68.4768 297.094 67.0468 297.094L 67.0428 297.094zM 67.0428 298.793C 69.0818 298.793 70.0898 300.856 70.0898 304.946C 70.0898 309.266 69.1018 311.289 66.9998 311.289C 65.0038 311.289 63.9958 309.184 63.9958 305.008C 63.9958 300.836 65.0038 298.793 67.0428 298.793z"/>
<path style="stroke:none; fill-rule:evenodd; fill:#000000" d="M 59.9848 245.692L 51.961 245.692C 52.1524 244.446 52.8399 243.649 54.7149 242.547L 56.8633 241.387C 58.9918 240.227 60.0898 238.653 60.0898 236.782C 60.0898 235.512 59.5738 234.329 58.6718 233.508C 57.7698 232.692 56.6524 232.301 55.211 232.301C 53.2774 232.301 51.8321 232.989 50.9961 234.282C 50.461 235.098 50.2227 236.047 50.1797 237.598L 52.0782 237.598C 52.1407 236.579 52.2696 235.957 52.5313 235.469C 53.0274 234.555 54.0196 234 55.168 234C 56.8946 234 58.1918 235.227 58.1918 236.864C 58.1918 238.067 57.4808 239.098 56.1172 239.875L 54.1329 240.993C 50.9376 242.797 50.0079 244.239 49.8321 247.594L 59.9888 247.594L 59.9848 245.692z"/>
<path style="stroke:none; fill-rule:evenodd; fill:#000000" d="M 71.3908 232.293L 63.4728 232.293L 62.3278 240.618L 64.0898 240.618C 64.9808 239.563 65.7228 239.196 66.9178 239.196C 68.9848 239.196 70.2928 240.594 70.2928 242.86C 70.2928 245.055 69.0118 246.391 66.9218 246.391C 65.2498 246.391 64.2268 245.555 63.7698 243.836L 61.8558 243.836C 62.1138 245.09 62.3278 245.692 62.7848 246.254C 63.6488 247.418 65.2068 248.09 66.9378 248.09C 70.0318 248.09 72.1958 245.84 72.1958 242.598C 72.1958 239.571 70.1838 237.493 67.2418 237.493C 66.1638 237.493 65.2968 237.778 64.4098 238.434L 65.0158 234.192L 71.3988 234.192L 71.3908 232.293z"/>
<path style="stroke:none; fill-rule:evenodd; fill:#000000" d="M 59.3908 168.293L 51.4727 168.293L 50.3282 176.618L 52.0899 176.618C 52.9805 175.563 53.7227 175.196 54.918 175.196C 56.9844 175.196 58.2928 176.594 58.2928 178.86C 58.2928 181.055 57.0118 182.391 54.9219 182.391C 53.25 182.391 52.2266 181.555 51.7696 179.836L 49.8555 179.836C 50.1133 181.09 50.3282 181.692 50.7852 182.254C 51.6485 183.418 53.2071 184.09 54.9376 184.09C 58.0318 184.09 60.1958 181.84 60.1958 178.598C 60.1958 175.571 58.1838 173.493 55.2422 173.493C 54.1641 173.493 53.2969 173.778 52.4102 174.434L 53.0157 170.192L 59.3988 170.192L 59.3908 168.293z"/>
<path style="stroke:none; fill-rule:evenodd; fill:#000000" d="M 67.0428 168.293C 65.6368 168.293 64.3558 168.922 63.5668 169.993C 62.5858 171.329 62.0978 173.379 62.0978 176.203C 62.0978 181.352 63.8008 184.09 67.0468 184.09C 70.2458 184.09 71.9958 181.356 71.9958 176.332C 71.9958 173.36 71.5278 171.375 70.5238 169.993C 69.7388 168.907 68.4768 168.293 67.0468 168.293L 67.0428 168.293zM 67.0428 169.993C 69.0818 169.993 70.0898 172.055 70.0898 176.145C 70.0898 180.465 69.1018 182.489 66.9998 182.489C 65.0038 182.489 63.9958 180.383 63.9958 176.207C 63.9958 172.036 65.0038 169.993 67.0428 169.993z"/>
<path style="stroke:none; fill-rule:evenodd; fill:#000000" d="M 60.2928 103.594L 50.0938 103.594L 50.0938 105.493L 58.3318 105.493C 54.6954 110.684 53.2149 113.871 52.0704 118.891L 54.0899 118.891C 54.9258 113.996 56.8438 109.789 60.2848 105.192L 60.2928 103.594z"/>
<path style="stroke:none; fill-rule:evenodd; fill:#000000" d="M 71.3908 103.594L 63.4728 103.594L 62.3278 111.918L 64.0898 111.918C 64.9808 110.864 65.7228 110.496 66.9178 110.496C 68.9848 110.496 70.2928 111.895 70.2928 114.161C 70.2928 116.356 69.0118 117.692 66.9218 117.692C 65.2498 117.692 64.2268 116.856 63.7698 115.137L 61.8558 115.137C 62.1138 116.391 62.3278 116.993 62.7848 117.555C 63.6488 118.719 65.2068 119.391 66.9378 119.391C 70.0318 119.391 72.1958 117.141 72.1958 113.899C 72.1958 110.871 70.1838 108.793 67.2418 108.793C 66.1638 108.793 65.2968 109.079 64.4098 109.735L 65.0158 105.493L 71.3988 105.493L 71.3908 103.594z"/>
<path style="stroke:none; fill-rule:evenodd; fill:#000000" d="M 42.793 43.196L 42.793 54.09L 44.5899 54.09L 44.5899 38.793L 43.336 38.793C 42.668 41.145 42.2344 41.469 39.293 41.836L 39.293 43.192L 42.793 43.196z"/>
<path style="stroke:none; fill-rule:evenodd; fill:#000000" d="M 55.043 38.793C 53.6368 38.793 52.3555 39.422 51.5665 40.493C 50.586 41.829 50.0977 43.879 50.0977 46.703C 50.0977 51.852 51.8008 54.59 55.0469 54.59C 58.2458 54.59 59.9958 51.856 59.9958 46.832C 59.9958 43.86 59.5278 41.875 58.5238 40.493C 57.7388 39.407 56.4766 38.793 55.0469 38.793L 55.043 38.793zM 55.043 40.493C 57.0821 40.493 58.0898 42.555 58.0898 46.645C 58.0898 50.965 57.1018 52.989 55 52.989C 53.004 52.989 51.9961 50.883 51.9961 46.707C 51.9961 42.536 53.004 40.493 55.043 40.493z"/>
<path style="stroke:none; fill-rule:evenodd; fill:#000000" d="M 67.0428 38.793C 65.6368 38.793 64.3558 39.422 63.5668 40.493C 62.5858 41.829 62.0978 43.879 62.0978 46.703C 62.0978 51.852 63.8008 54.59 67.0468 54.59C 70.2458 54.59 71.9958 51.856 71.9958 46.832C 71.9958 43.86 71.5278 41.875 70.5238 40.493C 69.7388 39.407 68.4768 38.793 67.0468 38.793L 67.0428 38.793zM 67.0428 40.493C 69.0818 40.493 70.0898 42.555 70.0898 46.645C 70.0898 50.965 69.1018 52.989 66.9998 52.989C 65.0038 52.989 63.9958 50.883 63.9958 46.707C 63.9958 42.536 65.0038 40.493 67.0428 40.493z"/>
<path style="stroke:none; fill-rule:evenodd; fill:#000000" d="M 0.890701 225.344C 0.890701 227.512 2.6446 229.289 4.7891 229.289C 6.9297 229.289 8.6876 227.512 8.6876 225.344C 8.6876 223.2 6.9336 221.395 4.8321 221.395C 2.629 221.395 0.890701 223.133 0.890701 225.344zM 2.9922 225.344C 2.9922 224.325 3.7891 223.496 4.8008 223.496C 5.7696 223.496 6.586 224.344 6.586 225.344C 6.586 226.364 5.7696 227.192 4.7774 227.192C 3.8086 227.192 2.9922 226.368 2.9922 225.344zM 0.683601 216.707L 16.3907 225.254L 16.3907 223.594L 0.683601 215.067L 0.683601 216.707zM 8.3907 215.141C 8.3907 217.309 10.1641 219.09 12.3282 219.09C 14.5118 219.09 16.2852 217.313 16.2852 215.141C 16.2852 212.996 14.5118 211.192 12.3907 211.192C 10.1407 211.192 8.3868 212.93 8.3868 215.141L 8.3907 215.141zM 10.5274 215.133C 10.5274 214.121 11.3477 213.297 12.3633 213.297C 13.3321 213.297 14.1524 214.137 14.1524 215.133C 14.1524 216.145 13.3321 216.965 12.3399 216.965C 11.3477 216.965 10.5274 216.149 10.5274 215.133z"/>
<path style="stroke:none; fill-rule:evenodd; fill:#000000" d="M 5.586 189.868C 4.2266 189.973 3.3633 190.254 2.4805 190.922C 0.8829 192.125 0 194.063 0 196.407C 0 200.836 3.1719 203.59 8.2696 203.59C 13.3204 203.59 16.4961 200.86 16.4961 196.493C 16.4961 192.602 14.2305 189.996 10.6211 189.801L 10.6211 192.95C 12.6446 193.141 13.7969 194.414 13.7969 196.418C 13.7969 198.918 11.7735 200.383 8.3438 200.383C 4.875 200.383 2.8008 198.856 2.8008 196.309C 2.8008 195.192 3.1836 194.262 3.9297 193.657C 4.3555 193.313 4.7579 193.141 5.5899 192.946L 5.586 189.868z"/>
<path style="stroke:none; fill-rule:evenodd; fill:#000000" d="M 4.0938 182.465C 4.0938 186.016 6.4571 188.192 10.293 188.192C 14.1485 188.192 16.4922 186.02 16.4922 182.442C 16.4922 178.911 14.1329 176.692 10.3829 176.692C 6.418 176.692 4.0977 178.821 4.0977 182.461L 4.0938 182.465zM 6.4922 182.442C 6.4922 180.778 8.0079 179.692 10.336 179.692C 12.5508 179.692 14.0899 180.817 14.0899 182.442C 14.0899 184.086 12.5547 185.188 10.293 185.188C 8.0313 185.188 6.4961 184.086 6.4961 182.442L 6.4922 182.442z"/>
<path style="stroke:none; fill-rule:evenodd; fill:#000000" d="M 4.293 174.395L 15.9922 174.395L 15.9922 171.395L 9.836 171.395C 8.0782 171.395 7.1954 170.516 7.1954 168.754C 7.1954 168.434 7.2032 168.219 7.2266 167.809L 4.1954 167.809C 4.1954 167.981 4.1954 168.086 4.1954 168.172C 4.1954 169.547 5.0821 170.75 6.6211 171.395L 4.293 171.395L 4.293 174.395z"/>
<path style="stroke:none; fill-rule:evenodd; fill:#000000" d="M 4.293 165.993L 15.9922 165.993L 15.9922 162.993L 9.836 162.993C 8.0782 162.993 7.1954 162.114 7.1954 160.352C 7.1954 160.032 7.2032 159.817 7.2266 159.407L 4.1954 159.407C 4.1954 159.579 4.1954 159.684 4.1954 159.77C 4.1954 161.145 5.0821 162.348 6.6211 162.993L 4.293 162.993L 4.293 165.993z"/>
<path style="stroke:none; fill-rule:evenodd; fill:#000000" d="M 11.0938 147.68C 10.836 147.661 10.7266 147.661 10.5743 147.661C 9.4063 147.661 8.3204 147.832 7.5 148.114C 5.379 148.887 4.0977 150.766 4.0977 153.121C 4.0977 156.465 6.5274 158.516 10.4493 158.516C 14.1993 158.516 16.4961 156.489 16.4961 153.184C 16.4961 150.575 15.0079 148.457 12.7149 147.789L 12.7149 150.766C 13.6524 151.129 14.1954 151.973 14.1954 153.075C 14.1954 153.938 13.8282 154.629 13.1719 155.059C 12.7383 155.336 12.211 155.446 11.0977 155.489L 11.0938 147.68zM 9.0938 155.453C 7.2969 155.262 6.3946 154.504 6.3946 153.168C 6.3946 152.414 6.7657 151.723 7.379 151.289C 7.8165 151.012 8.2774 150.879 9.0899 150.817L 9.0938 155.453z"/>
<path style="stroke:none; fill-rule:evenodd; fill:#000000" d="M 8.6954 135.723C 5.8165 135.938 4.0938 137.844 4.0938 140.77C 4.0938 144.254 6.3907 146.289 10.379 146.289C 14.2344 146.289 16.4883 144.278 16.4883 140.813C 16.4883 137.977 14.7383 136.004 11.9532 135.723L 11.9532 138.637C 13.4961 139.028 14.0899 139.637 14.0899 140.809C 14.0899 142.352 12.6876 143.286 10.379 143.286C 9.2618 143.286 8.2071 143.071 7.504 142.7C 6.8477 142.352 6.4961 141.68 6.4961 140.809C 6.4961 139.571 7.1016 138.985 8.6954 138.637L 8.6954 135.723z"/>
<path style="stroke:none; fill-rule:evenodd; fill:#000000" d="M 4.5899 128.493L 4.5899 130.188L 1.4415 130.188L 1.4415 133.188L 4.5899 133.188L 4.5899 134.684L 6.5899 134.684L 6.5899 133.188L 13.75 133.188C 15.5821 133.188 16.4883 132.219 16.4883 130.239C 16.4883 129.571 16.4258 129.036 16.254 128.493L 14.1368 128.493C 14.1719 128.797 14.1915 128.969 14.1915 129.188C 14.1915 129.993 13.9571 130.188 12.9219 130.188L 6.5938 130.188L 6.5938 128.493L 4.5899 128.493z"/>
<path style="stroke:none; fill-rule:evenodd; fill:#000000" d="M 104.61 12.793L 105.645 15.993L 108.969 15.993L 103.532 0.292999L 99.9488 0.292999L 94.3598 15.993L 97.6598 15.993L 98.7148 12.793L 104.61 12.793zM 103.723 10.094L 99.6208 10.094L 101.672 3.96899L 103.723 10.094z"/>
<path style="stroke:none; fill-rule:evenodd; fill:#000000" d="M 111.192 15.993L 118.266 15.993C 120.074 15.993 121.285 15.649 122.235 14.852C 123.18 14.059 123.785 12.723 123.785 11.473C 123.785 9.92599 122.938 8.69598 121.153 7.664C 122.614 6.67599 123.184 5.76999 123.184 4.43799C 123.184 3.36398 122.653 2.22299 121.778 1.44598C 120.864 0.648987 119.778 0.304993 118.114 0.304993L 111.188 0.304993L 111.192 15.993zM 114.391 2.99298L 117.903 2.99298C 119.387 2.99298 120.188 3.60599 120.188 4.75C 120.188 5.871 119.391 6.48898 117.903 6.48898L 114.391 6.48898L 114.391 2.99298zM 114.391 9.19199L 118.34 9.19199C 119.949 9.19199 120.789 9.90698 120.789 11.25C 120.789 12.571 119.949 13.286 118.34 13.286L 114.391 13.286L 114.391 9.19199z"/>
<path style="stroke:none; fill-rule:evenodd; fill:#000000" d="M 125.856 12.293L 136.735 12.293L 136.735 9.793L 125.856 9.793L 125.856 12.293z"/>
<path style="stroke:none; fill-rule:evenodd; fill:#000000" d="M 148.41 12.793L 149.446 15.993L 152.77 15.993L 147.332 0.292999L 143.75 0.292999L 138.16 15.993L 141.461 15.993L 142.516 12.793L 148.41 12.793zM 147.524 10.094L 143.422 10.094L 145.473 3.96899L 147.524 10.094z"/>
<path style="stroke:none; fill-rule:evenodd; fill:#000000" d="M 167.918 5.586C 167.813 4.22699 167.532 3.36398 166.864 2.48099C 165.66 0.882996 163.723 0 161.379 0C 156.949 0 154.196 3.172 154.196 8.26999C 154.196 13.321 156.926 16.496 161.293 16.496C 165.184 16.496 167.789 14.231 167.985 10.621L 164.836 10.621C 164.645 12.645 163.371 13.797 161.367 13.797C 158.867 13.797 157.403 11.774 157.403 8.34399C 157.403 4.875 158.93 2.80099 161.477 2.80099C 162.594 2.80099 163.524 3.18399 164.129 3.92999C 164.473 4.35599 164.645 4.758 164.84 5.59L 167.918 5.586z"/>
<path style="stroke:none; fill-rule:evenodd; fill:#000000" d="M 179.692 0.292999L 176.492 0.292999L 176.492 15.993L 187.293 15.993L 187.293 13.293L 179.692 13.293L 179.692 0.292999z"/>
<path style="stroke:none; fill-rule:evenodd; fill:#000000" d="M 192.492 4.332L 189.492 4.332L 189.492 15.989L 192.492 15.989L 192.492 4.332zM 192.492 0.292999L 189.492 0.292999L 189.492 2.99298L 192.492 2.99298L 192.492 0.292999z"/>
<path style="stroke:none; fill-rule:evenodd; fill:#000000" d="M 204.895 8.09C 204.852 5.60199 202.946 4.09399 199.805 4.09399C 196.836 4.09399 194.996 5.586 194.996 7.98898C 194.996 8.76599 195.231 9.43799 195.645 9.89099C 196.055 10.301 196.422 10.496 197.551 10.864L 201.168 11.989C 201.926 12.223 202.188 12.461 202.188 12.938C 202.188 13.649 201.348 14.082 199.946 14.082C 199.172 14.082 198.547 13.934 198.156 13.68C 197.836 13.45 197.707 13.215 197.574 12.594L 194.621 12.594C 194.707 15.141 196.578 16.485 200.11 16.485C 201.723 16.485 202.949 16.141 203.813 15.45C 204.672 14.758 205.192 13.676 205.192 12.528C 205.192 11.016 204.434 10.039 202.895 9.586L 199.059 8.48499C 198.215 8.22699 198 8.05499 198 7.57898C 198 6.92999 198.696 6.496 199.762 6.496C 201.219 6.496 201.938 7.01999 201.957 8.09L 204.895 8.09z"/>
<path style="stroke:none; fill-rule:evenodd; fill:#000000" d="M 212.492 4.59399L 210.797 4.59399L 210.797 1.44199L 207.797 1.44199L 207.797 4.59399L 206.301 4.59399L 206.301 6.59399L 207.797 6.59399L 207.797 13.754C 207.797 15.586 208.766 16.493 210.746 16.493C 211.414 16.493 211.949 16.43 212.492 16.258L 212.492 14.141C 212.188 14.176 212.016 14.196 211.797 14.196C 210.992 14.196 210.797 13.961 210.797 12.926L 210.797 6.59799L 212.492 6.59799L 212.492 4.59399z"/>
<path style="stroke:none; fill-rule:evenodd; fill:#000000" d="M 224.094 0.292999L 220.895 0.292999L 220.895 15.993L 231.696 15.993L 231.696 13.293L 224.094 13.293L 224.094 0.292999z"/>
<path style="stroke:none; fill-rule:evenodd; fill:#000000" d="M 243.707 11.094C 243.727 10.836 243.727 10.727 243.727 10.575C 243.727 9.40698 243.555 8.32098 243.274 7.5C 242.5 5.379 240.621 4.09799 238.266 4.09799C 234.922 4.09799 232.871 6.52798 232.871 10.45C 232.871 14.2 234.899 16.496 238.203 16.496C 240.813 16.496 242.93 15.008 243.598 12.715L 240.621 12.715C 240.258 13.649 239.414 14.196 238.313 14.196C 237.449 14.196 236.758 13.829 236.328 13.172C 236.051 12.739 235.942 12.211 235.899 11.098L 243.707 11.094zM 235.934 9.09399C 236.125 7.297 236.883 6.39499 238.219 6.39499C 238.973 6.39499 239.664 6.76599 240.098 7.379C 240.375 7.81699 240.508 8.27798 240.571 9.09L 235.934 9.09399z"/>
<path style="stroke:none; fill-rule:evenodd; fill:#000000" d="M 255.707 15.625C 255.153 15.129 254.996 14.805 254.996 14.196L 254.996 7.69598C 254.996 5.31299 253.383 4.09799 250.239 4.09799C 247.094 4.09799 245.457 5.44998 245.266 8.17999L 248.149 8.17999C 248.297 6.90698 248.789 6.496 250.262 6.496C 251.414 6.496 251.992 6.88699 251.992 7.672C 251.992 8.06299 251.801 8.41098 251.481 8.586C 251.074 8.80099 251.074 8.80099 249.598 9.043L 248.403 9.258C 246.114 9.64899 245 10.848 245 12.961C 245 13.961 245.278 14.789 245.809 15.379C 246.469 16.075 247.469 16.489 248.496 16.489C 249.774 16.489 250.949 15.926 251.996 14.821C 251.996 15.426 252.059 15.641 252.348 15.989L 255.707 15.989L 255.707 15.625zM 251.992 11.317C 251.992 13.086 251.137 14.09 249.617 14.09C 248.614 14.09 247.992 13.547 247.992 12.672C 247.992 11.754 248.461 11.321 249.703 11.059L 250.727 10.864C 251.516 10.711 251.645 10.668 251.989 10.493L 251.992 11.317z"/>
<path style="stroke:none; fill-rule:evenodd; fill:#000000" d="M 257.789 4.293L 257.789 15.993L 260.789 15.993L 260.789 9.836C 260.789 8.07898 261.668 7.19598 263.43 7.19598C 263.75 7.19598 263.965 7.203 264.375 7.22699L 264.375 4.19598C 264.203 4.19598 264.098 4.19598 264.012 4.19598C 262.637 4.19598 261.434 5.082 260.789 6.621L 260.789 4.293L 257.789 4.293z"/>
<path style="stroke:none; fill-rule:evenodd; fill:#000000" d="M 266.192 4.293L 266.192 15.993L 269.192 15.993L 269.192 8.914C 269.192 7.51599 270.164 6.59799 271.641 6.59799C 272.938 6.59799 273.59 7.32098 273.59 8.71899L 273.59 15.996L 276.59 15.996L 276.59 8.15298C 276.59 5.57498 275.168 4.09799 272.688 4.09799C 271.114 4.09799 270.059 4.69199 269.196 6.01999L 269.196 4.297L 266.192 4.293z"/>
<path style="stroke:none; fill-rule:evenodd; fill:#000000" d="M 282.492 4.332L 279.492 4.332L 279.492 15.989L 282.492 15.989L 282.492 4.332zM 282.492 0.292999L 279.492 0.292999L 279.492 2.99298L 282.492 2.99298L 282.492 0.292999z"/>
<path style="stroke:none; fill-rule:evenodd; fill:#000000" d="M 285.391 4.293L 285.391 15.993L 288.391 15.993L 288.391 8.914C 288.391 7.51599 289.364 6.59799 290.84 6.59799C 292.137 6.59799 292.789 7.32098 292.789 8.71899L 292.789 15.996L 295.789 15.996L 295.789 8.15298C 295.789 5.57498 294.367 4.09799 291.887 4.09799C 290.313 4.09799 289.258 4.69199 288.395 6.01999L 288.395 4.297L 285.391 4.293z"/>
<path style="stroke:none; fill-rule:evenodd; fill:#000000" d="M 305.992 4.289L 305.992 6.082C 305.086 4.69998 304.09 4.09 302.746 4.09C 299.977 4.09 297.899 6.80099 297.899 10.418C 297.899 14.059 299.801 16.485 302.684 16.485C 304.047 16.485 304.867 16.075 305.996 14.797L 305.996 16.387C 305.996 17.801 304.942 18.782 303.434 18.782C 302.293 18.782 301.539 18.297 301.301 17.387L 298.176 17.387C 298.196 18.289 298.543 18.914 299.321 19.563C 300.25 20.317 301.547 20.68 303.34 20.68C 306.864 20.68 308.899 19.102 308.899 16.356L 308.899 4.28198L 305.992 4.289zM 303.379 6.59399C 304.906 6.59399 306.039 8.19199 306.039 10.379C 306.039 12.524 304.926 13.989 303.336 13.989C 301.899 13.989 300.895 12.524 300.895 10.379C 300.895 8.14899 301.899 6.59399 303.383 6.59399L 303.379 6.59399z"/>
<path style="stroke:none; fill-rule:evenodd; fill:#000000" d="M 320.895 4.332L 317.895 4.332L 317.895 15.989L 320.895 15.989L 320.895 4.332zM 320.895 0.292999L 317.895 0.292999L 317.895 2.99298L 320.895 2.99298L 320.895 0.292999z"/>
<path style="stroke:none; fill-rule:evenodd; fill:#000000" d="M 323.789 4.293L 323.789 15.993L 326.789 15.993L 326.789 8.914C 326.789 7.51599 327.762 6.59799 329.239 6.59799C 330.535 6.59799 331.188 7.32098 331.188 8.71899L 331.188 15.996L 334.188 15.996L 334.188 8.15298C 334.188 5.57498 332.766 4.09799 330.285 4.09799C 328.711 4.09799 327.656 4.69199 326.793 6.01999L 326.793 4.297L 323.789 4.293z"/>
<path style="stroke:none; fill-rule:evenodd; fill:#000000" d="M 352.492 8.89099L 352.492 15.989L 355.789 15.989L 355.789 0.289001L 352.492 0.289001L 352.492 6.18799L 346.297 6.18799L 346.297 0.289001L 343.098 0.289001L 343.098 15.989L 346.297 15.989L 346.297 8.89099L 352.492 8.89099z"/>
<path style="stroke:none; fill-rule:evenodd; fill:#000000" d="M 361.692 4.332L 358.692 4.332L 358.692 15.989L 361.692 15.989L 361.692 4.332zM 361.692 0.292999L 358.692 0.292999L 358.692 2.99298L 361.692 2.99298L 361.692 0.292999z"/>
<path style="stroke:none; fill-rule:evenodd; fill:#000000" d="M 367.492 4.289L 364.492 4.289L 364.492 20.692L 367.492 20.692L 367.492 14.614C 368.223 15.895 369.258 16.496 370.723 16.496C 373.524 16.496 375.59 13.86 375.59 10.309C 375.59 8.664 375.117 7.02399 374.34 5.94199C 373.567 4.84 372.121 4.10199 370.723 4.10199C 369.258 4.10199 368.227 4.73099 367.492 6.02798L 367.492 4.289zM 370.043 6.59399C 371.574 6.59399 372.59 8.09799 372.59 10.348C 372.59 12.485 371.532 13.993 370.043 13.993C 368.532 13.993 367.496 12.512 367.496 10.305C 367.496 8.10199 368.532 6.59399 370.043 6.59399z"/>
<path style="stroke:none; fill-rule:evenodd; fill:#000000" d="M 380.692 4.289L 377.692 4.289L 377.692 20.692L 380.692 20.692L 380.692 14.614C 381.422 15.895 382.457 16.496 383.922 16.496C 386.723 16.496 388.789 13.86 388.789 10.309C 388.789 8.664 388.317 7.02399 387.539 5.94199C 386.766 4.84 385.321 4.10199 383.922 4.10199C 382.457 4.10199 381.426 4.73099 380.692 6.02798L 380.692 4.289zM 383.242 6.59399C 384.774 6.59399 385.789 8.09799 385.789 10.348C 385.789 12.485 384.731 13.993 383.242 13.993C 381.731 13.993 380.696 12.512 380.696 10.305C 380.696 8.10199 381.731 6.59399 383.242 6.59399z"/>
<path style="stroke:none; fill-rule:evenodd; fill:#000000" d="M 396.121 4.09399C 392.571 4.09399 390.395 6.457 390.395 10.293C 390.395 14.149 392.567 16.493 396.145 16.493C 399.676 16.493 401.895 14.133 401.895 10.383C 401.895 6.418 399.766 4.09799 396.125 4.09799L 396.121 4.09399zM 396.141 6.49298C 397.805 6.49298 398.891 8.008 398.891 10.336C 398.891 12.551 397.766 14.09 396.141 14.09C 394.496 14.09 393.395 12.555 393.395 10.293C 393.395 8.03198 394.496 6.496 396.141 6.496L 396.141 6.49298z"/>
<path style="stroke:none; fill-rule:evenodd; fill:#000000" d="M 413.391 3.73099L 416.235 15.993L 419.489 15.993L 422.289 3.73099L 422.289 15.993L 425.489 15.993L 425.489 0.292999L 420.621 0.292999L 417.864 12.774L 415.02 0.292999L 410.196 0.292999L 410.196 15.993L 413.395 15.993L 413.391 3.73099z"/>
<path style="stroke:none; fill-rule:evenodd; fill:#000000" d="M 433.219 4.09399C 429.668 4.09399 427.492 6.457 427.492 10.293C 427.492 14.149 429.664 16.493 433.242 16.493C 436.774 16.493 438.992 14.133 438.992 10.383C 438.992 6.418 436.864 4.09799 433.223 4.09799L 433.219 4.09399zM 433.242 6.49298C 434.906 6.49298 435.992 8.008 435.992 10.336C 435.992 12.551 434.867 14.09 433.242 14.09C 431.598 14.09 430.496 12.555 430.496 10.293C 430.496 8.03198 431.598 6.496 433.242 6.496L 433.242 6.49298z"/>
<path style="stroke:none; fill-rule:evenodd; fill:#000000" d="M 448.692 15.996L 451.692 15.996L 451.692 0.292999L 448.692 0.292999L 448.692 5.84399C 447.93 4.64899 446.906 4.09399 445.442 4.09399C 442.633 4.09399 440.496 6.78198 440.496 10.317C 440.496 11.895 440.973 13.5 441.758 14.629C 442.563 15.754 444 16.493 445.442 16.493C 446.903 16.493 447.926 15.957 448.692 14.813L 448.692 15.996zM 446.094 6.59399C 447.656 6.59399 448.692 8.10599 448.692 10.36C 448.692 12.504 447.637 13.993 446.094 13.993C 444.555 13.993 443.496 12.485 443.496 10.317C 443.496 8.129 444.551 6.59399 446.094 6.59399z"/>
<path style="stroke:none; fill-rule:evenodd; fill:#000000" d="M 464.406 11.094C 464.426 10.836 464.426 10.727 464.426 10.575C 464.426 9.40698 464.254 8.32098 463.973 7.5C 463.199 5.379 461.321 4.09799 458.965 4.09799C 455.621 4.09799 453.571 6.52798 453.571 10.45C 453.571 14.2 455.598 16.496 458.903 16.496C 461.512 16.496 463.629 15.008 464.297 12.715L 461.321 12.715C 460.957 13.649 460.114 14.196 459.012 14.196C 458.149 14.196 457.457 13.829 457.028 13.172C 456.75 12.739 456.641 12.211 456.598 11.098L 464.406 11.094zM 456.633 9.09399C 456.824 7.297 457.582 6.39499 458.918 6.39499C 459.672 6.39499 460.364 6.76599 460.797 7.379C 461.074 7.81699 461.207 8.27798 461.27 9.09L 456.633 9.09399z"/>
<path style="stroke:none; fill-rule:evenodd; fill:#000000" d="M 466.594 15.993L 469.594 15.993L 469.594 0.292999L 466.594 0.292999L 466.594 15.993z"/>
<path style="stroke:#ff0000; stroke-width:1.59941; fill:none" d="M 109.836 49.832L 155.418 49.832L 201.801 75.422L 248.184 75.422L 293.766 101.809L 340.149 101.809L 386.532 101.809L 432.114 101.809"/>
<path style="stroke:none; fill-rule:evenodd; fill:#ffffff" d="M 114.102 49.832C 114.102 48.77 113.571 47.703 112.77 46.903C 111.973 46.106 110.906 45.571 109.84 45.571C 108.778 45.571 107.711 46.102 106.91 46.903C 106.114 47.7 105.578 48.766 105.578 49.832C 105.578 50.895 106.11 51.965 106.91 52.762C 107.707 53.559 108.774 54.094 109.84 54.094C 110.903 54.094 111.973 53.563 112.77 52.762C 113.567 51.965 114.102 50.899 114.102 49.832"/>
<path style="stroke:#ffffff; stroke-width:1.59941; fill:none" d="M 114.102 49.832C 114.102 48.77 113.571 47.703 112.77 46.903C 111.973 46.106 110.906 45.571 109.84 45.571C 108.778 45.571 107.711 46.102 106.91 46.903C 106.114 47.7 105.578 48.766 105.578 49.832C 105.578 50.895 106.11 51.965 106.91 52.762C 107.707 53.559 108.774 54.094 109.84 54.094C 110.903 54.094 111.973 53.563 112.77 52.762C 113.567 51.965 114.102 50.899 114.102 49.832"/>
<path style="stroke:#000000; stroke-width:1.59941; fill:none" d="M 114.102 49.832C 114.102 48.77 113.571 47.703 112.77 46.903C 111.973 46.106 110.906 45.571 109.84 45.571C 108.778 45.571 107.711 46.102 106.91 46.903C 106.114 47.7 105.578 48.766 105.578 49.832C 105.578 50.895 106.11 51.965 106.91 52.762C 107.707 53.559 108.774 54.094 109.84 54.094C 110.903 54.094 111.973 53.563 112.77 52.762C 113.567 51.965 114.102 50.899 114.102 49.832"/>
<path style="stroke:none; fill-rule:evenodd; fill:#ffffff" d="M 159.949 49.832C 159.949 48.77 159.684 47.703 158.887 46.903C 158.09 46.106 156.754 45.571 155.559 45.571C 154.364 45.571 153.293 46.102 152.496 46.903C 151.699 47.7 151.164 48.766 151.164 49.832C 151.164 50.895 151.696 51.965 152.496 52.762C 153.293 53.559 154.36 54.094 155.559 54.094C 156.758 54.094 158.09 53.563 158.887 52.762C 159.684 51.965 159.949 50.899 159.949 49.832"/>
<path style="stroke:#ffffff; stroke-width:1.59941; fill:none" d="M 159.949 49.832C 159.949 48.77 159.684 47.703 158.887 46.903C 158.09 46.106 156.754 45.571 155.559 45.571C 154.364 45.571 153.293 46.102 152.496 46.903C 151.699 47.7 151.164 48.766 151.164 49.832C 151.164 50.895 151.696 51.965 152.496 52.762C 153.293 53.559 154.36 54.094 155.559 54.094C 156.758 54.094 158.09 53.563 158.887 52.762C 159.684 51.965 159.949 50.899 159.949 49.832"/>
<path style="stroke:#000000; stroke-width:1.59941; fill:none" d="M 159.949 49.832C 159.949 48.77 159.684 47.703 158.887 46.903C 158.09 46.106 156.754 45.571 155.559 45.571C 154.364 45.571 153.293 46.102 152.496 46.903C 151.699 47.7 151.164 48.766 151.164 49.832C 151.164 50.895 151.696 51.965 152.496 52.762C 153.293 53.559 154.36 54.094 155.559 54.094C 156.758 54.094 158.09 53.563 158.887 52.762C 159.684 51.965 159.949 50.899 159.949 49.832"/>
<path style="stroke:none; fill-rule:evenodd; fill:#ffffff" d="M 206.067 75.559C 206.067 74.36 205.535 73.293 204.735 72.496C 203.938 71.7 202.871 71.164 201.805 71.164C 200.742 71.164 199.676 71.696 198.875 72.496C 198.078 73.293 197.543 74.36 197.543 75.559C 197.543 76.758 198.074 78.09 198.875 78.887C 199.672 79.684 200.739 79.95 201.805 79.95C 202.867 79.95 203.938 79.684 204.735 78.887C 205.532 78.09 206.067 76.758 206.067 75.559"/>
<path style="stroke:#ffffff; stroke-width:1.59941; fill:none" d="M 206.067 75.559C 206.067 74.36 205.535 73.293 204.735 72.496C 203.938 71.7 202.871 71.164 201.805 71.164C 200.742 71.164 199.676 71.696 198.875 72.496C 198.078 73.293 197.543 74.36 197.543 75.559C 197.543 76.758 198.074 78.09 198.875 78.887C 199.672 79.684 200.739 79.95 201.805 79.95C 202.867 79.95 203.938 79.684 204.735 78.887C 205.532 78.09 206.067 76.758 206.067 75.559"/>
<path style="stroke:#000000; stroke-width:1.59941; fill:none" d="M 206.067 75.559C 206.067 74.36 205.535 73.293 204.735 72.496C 203.938 71.7 202.871 71.164 201.805 71.164C 200.742 71.164 199.676 71.696 198.875 72.496C 198.078 73.293 197.543 74.36 197.543 75.559C 197.543 76.758 198.074 78.09 198.875 78.887C 199.672 79.684 200.739 79.95 201.805 79.95C 202.867 79.95 203.938 79.684 204.735 78.887C 205.532 78.09 206.067 76.758 206.067 75.559"/>
<path style="stroke:none; fill-rule:evenodd; fill:#ffffff" d="M 252.449 75.559C 252.449 74.36 251.918 73.293 251.117 72.496C 250.321 71.7 249.254 71.164 248.055 71.164C 246.86 71.164 245.524 71.696 244.727 72.496C 243.93 73.293 243.664 74.36 243.664 75.559C 243.664 76.758 243.93 78.09 244.727 78.887C 245.524 79.684 246.86 79.95 248.055 79.95C 249.254 79.95 250.321 79.684 251.117 78.887C 251.914 78.09 252.449 76.758 252.449 75.559"/>
<path style="stroke:#ffffff; stroke-width:1.59941; fill:none" d="M 252.449 75.559C 252.449 74.36 251.918 73.293 251.117 72.496C 250.321 71.7 249.254 71.164 248.055 71.164C 246.86 71.164 245.524 71.696 244.727 72.496C 243.93 73.293 243.664 74.36 243.664 75.559C 243.664 76.758 243.93 78.09 244.727 78.887C 245.524 79.684 246.86 79.95 248.055 79.95C 249.254 79.95 250.321 79.684 251.117 78.887C 251.914 78.09 252.449 76.758 252.449 75.559"/>
<path style="stroke:#000000; stroke-width:1.59941; fill:none" d="M 252.449 75.559C 252.449 74.36 251.918 73.293 251.117 72.496C 250.321 71.7 249.254 71.164 248.055 71.164C 246.86 71.164 245.524 71.696 244.727 72.496C 243.93 73.293 243.664 74.36 243.664 75.559C 243.664 76.758 243.93 78.09 244.727 78.887C 245.524 79.684 246.86 79.95 248.055 79.95C 249.254 79.95 250.321 79.684 251.117 78.887C 251.914 78.09 252.449 76.758 252.449 75.559"/>
<path style="stroke:none; fill-rule:evenodd; fill:#ffffff" d="M 298.297 101.68C 298.297 100.481 298.032 99.149 297.235 98.352C 296.438 97.555 295.106 97.289 293.906 97.289C 292.707 97.289 291.641 97.555 290.844 98.352C 290.047 99.149 289.512 100.481 289.512 101.68C 289.512 102.879 290.043 103.946 290.844 104.743C 291.641 105.539 292.707 106.075 293.906 106.075C 295.106 106.075 296.438 105.543 297.235 104.743C 298.032 103.946 298.297 102.879 298.297 101.68"/>
<path style="stroke:#ffffff; stroke-width:1.59941; fill:none" d="M 298.297 101.68C 298.297 100.481 298.032 99.149 297.235 98.352C 296.438 97.555 295.106 97.289 293.906 97.289C 292.707 97.289 291.641 97.555 290.844 98.352C 290.047 99.149 289.512 100.481 289.512 101.68C 289.512 102.879 290.043 103.946 290.844 104.743C 291.641 105.539 292.707 106.075 293.906 106.075C 295.106 106.075 296.438 105.543 297.235 104.743C 298.032 103.946 298.297 102.879 298.297 101.68"/>
<path style="stroke:#000000; stroke-width:1.59941; fill:none" d="M 298.297 101.68C 298.297 100.481 298.032 99.149 297.235 98.352C 296.438 97.555 295.106 97.289 293.906 97.289C 292.707 97.289 291.641 97.555 290.844 98.352C 290.047 99.149 289.512 100.481 289.512 101.68C 289.512 102.879 290.043 103.946 290.844 104.743C 291.641 105.539 292.707 106.075 293.906 106.075C 295.106 106.075 296.438 105.543 297.235 104.743C 298.032 103.946 298.297 102.879 298.297 101.68"/>
<path style="stroke:none; fill-rule:evenodd; fill:#ffffff" d="M 344.414 101.68C 344.414 100.481 343.883 99.149 343.082 98.352C 342.285 97.555 341.219 97.289 340.153 97.289C 339.09 97.289 338.02 97.555 337.223 98.352C 336.426 99.149 335.891 100.481 335.891 101.68C 335.891 102.879 336.422 103.946 337.223 104.743C 338.02 105.539 339.086 106.075 340.153 106.075C 341.215 106.075 342.282 105.543 343.082 104.743C 343.879 103.946 344.414 102.879 344.414 101.68"/>
<path style="stroke:#ffffff; stroke-width:1.59941; fill:none" d="M 344.414 101.68C 344.414 100.481 343.883 99.149 343.082 98.352C 342.285 97.555 341.219 97.289 340.153 97.289C 339.09 97.289 338.02 97.555 337.223 98.352C 336.426 99.149 335.891 100.481 335.891 101.68C 335.891 102.879 336.422 103.946 337.223 104.743C 338.02 105.539 339.086 106.075 340.153 106.075C 341.215 106.075 342.282 105.543 343.082 104.743C 343.879 103.946 344.414 102.879 344.414 101.68"/>
<path style="stroke:#000000; stroke-width:1.59941; fill:none" d="M 344.414 101.68C 344.414 100.481 343.883 99.149 343.082 98.352C 342.285 97.555 341.219 97.289 340.153 97.289C 339.09 97.289 338.02 97.555 337.223 98.352C 336.426 99.149 335.891 100.481 335.891 101.68C 335.891 102.879 336.422 103.946 337.223 104.743C 338.02 105.539 339.086 106.075 340.153 106.075C 341.215 106.075 342.282 105.543 343.082 104.743C 343.879 103.946 344.414 102.879 344.414 101.68"/>
<path style="stroke:none; fill-rule:evenodd; fill:#ffffff" d="M 390.797 101.68C 390.797 100.481 390.266 99.149 389.465 98.352C 388.668 97.555 387.602 97.289 386.403 97.289C 385.203 97.289 383.871 97.555 383.074 98.352C 382.278 99.149 382.012 100.481 382.012 101.68C 382.012 102.879 382.278 103.946 383.074 104.743C 383.871 105.539 385.203 106.075 386.403 106.075C 387.602 106.075 388.668 105.543 389.465 104.743C 390.262 103.946 390.797 102.879 390.797 101.68"/>
<path style="stroke:#ffffff; stroke-width:1.59941; fill:none" d="M 390.797 101.68C 390.797 100.481 390.266 99.149 389.465 98.352C 388.668 97.555 387.602 97.289 386.403 97.289C 385.203 97.289 383.871 97.555 383.074 98.352C 382.278 99.149 382.012 100.481 382.012 101.68C 382.012 102.879 382.278 103.946 383.074 104.743C 383.871 105.539 385.203 106.075 386.403 106.075C 387.602 106.075 388.668 105.543 389.465 104.743C 390.262 103.946 390.797 102.879 390.797 101.68"/>
<path style="stroke:#000000; stroke-width:1.59941; fill:none" d="M 390.797 101.68C 390.797 100.481 390.266 99.149 389.465 98.352C 388.668 97.555 387.602 97.289 386.403 97.289C 385.203 97.289 383.871 97.555 383.074 98.352C 382.278 99.149 382.012 100.481 382.012 101.68C 382.012 102.879 382.278 103.946 383.074 104.743C 383.871 105.539 385.203 106.075 386.403 106.075C 387.602 106.075 388.668 105.543 389.465 104.743C 390.262 103.946 390.797 102.879 390.797 101.68"/>
<path style="stroke:none; fill-rule:evenodd; fill:#ffffff" d="M 436.383 101.68C 436.383 100.481 435.852 99.149 435.051 98.352C 434.254 97.555 433.188 97.289 432.121 97.289C 431.059 97.289 429.992 97.555 429.192 98.352C 428.395 99.149 427.86 100.481 427.86 101.68C 427.86 102.879 428.391 103.946 429.192 104.743C 429.989 105.539 431.055 106.075 432.121 106.075C 433.184 106.075 434.25 105.543 435.051 104.743C 435.848 103.946 436.383 102.879 436.383 101.68"/>
<path style="stroke:#ffffff; stroke-width:1.59941; fill:none" d="M 436.383 101.68C 436.383 100.481 435.852 99.149 435.051 98.352C 434.254 97.555 433.188 97.289 432.121 97.289C 431.059 97.289 429.992 97.555 429.192 98.352C 428.395 99.149 427.86 100.481 427.86 101.68C 427.86 102.879 428.391 103.946 429.192 104.743C 429.989 105.539 431.055 106.075 432.121 106.075C 433.184 106.075 434.25 105.543 435.051 104.743C 435.848 103.946 436.383 102.879 436.383 101.68"/>
<path style="stroke:#000000; stroke-width:1.59941; fill:none" d="M 436.383 101.68C 436.383 100.481 435.852 99.149 435.051 98.352C 434.254 97.555 433.188 97.289 432.121 97.289C 431.059 97.289 429.992 97.555 429.192 98.352C 428.395 99.149 427.86 100.481 427.86 101.68C 427.86 102.879 428.391 103.946 429.192 104.743C 429.989 105.539 431.055 106.075 432.121 106.075C 433.184 106.075 434.25 105.543 435.051 104.743C 435.848 103.946 436.383 102.879 436.383 101.68"/>
<path style="stroke:#000000; stroke-dasharray:6,3; stroke-width:1.59941; fill:none" d="M 109.836 307.34L 155.418 281.75L 201.801 204.981L 248.184 153L 293.766 127.411L 340.149 101.821L 386.532 75.434L 432.114 49.844"/>
<path style="stroke:none; fill-rule:evenodd; fill:#ffffff" d="M 105.836 311.336L 113.832 311.336L 113.832 304.141L 105.836 304.141L 105.836 311.336z"/>
<path style="stroke:#ffffff; stroke-width:1.59941; fill:none" d="M 105.836 311.336L 113.832 311.336L 113.832 304.141L 105.836 304.141L 105.836 311.336z"/>
<path style="stroke:#000000; stroke-width:1.59941; fill:none" d="M 105.836 311.336L 113.832 311.336L 113.832 304.141L 105.836 304.141L 105.836 311.336z"/>
<path style="stroke:none; fill-rule:evenodd; fill:#ffffff" d="M 152.219 285.746L 159.414 285.746L 159.414 277.75L 152.219 277.75L 152.219 285.746z"/>
<path style="stroke:#ffffff; stroke-width:1.59941; fill:none" d="M 152.219 285.746L 159.414 285.746L 159.414 277.75L 152.219 277.75L 152.219 285.746z"/>
<path style="stroke:#000000; stroke-width:1.59941; fill:none" d="M 152.219 285.746L 159.414 285.746L 159.414 277.75L 152.219 277.75L 152.219 285.746z"/>
<path style="stroke:none; fill-rule:evenodd; fill:#ffffff" d="M 197.805 208.176L 205.801 208.176L 205.801 200.981L 197.805 200.981L 197.805 208.176z"/>
<path style="stroke:#ffffff; stroke-width:1.59941; fill:none" d="M 197.805 208.176L 205.801 208.176L 205.801 200.981L 197.805 200.981L 197.805 208.176z"/>
<path style="stroke:#000000; stroke-width:1.59941; fill:none" d="M 197.805 208.176L 205.801 208.176L 205.801 200.981L 197.805 200.981L 197.805 208.176z"/>
<path style="stroke:none; fill-rule:evenodd; fill:#ffffff" d="M 244.188 156.996L 252.184 156.996L 252.184 149L 244.188 149L 244.188 156.996z"/>
<path style="stroke:#ffffff; stroke-width:1.59941; fill:none" d="M 244.188 156.996L 252.184 156.996L 252.184 149L 244.188 149L 244.188 156.996z"/>
<path style="stroke:#000000; stroke-width:1.59941; fill:none" d="M 244.188 156.996L 252.184 156.996L 252.184 149L 244.188 149L 244.188 156.996z"/>
<path style="stroke:none; fill-rule:evenodd; fill:#ffffff" d="M 290.571 130.606L 297.766 130.606L 297.766 123.411L 290.571 123.411L 290.571 130.606z"/>
<path style="stroke:#ffffff; stroke-width:1.59941; fill:none" d="M 290.571 130.606L 297.766 130.606L 297.766 123.411L 290.571 123.411L 290.571 130.606z"/>
<path style="stroke:#000000; stroke-width:1.59941; fill:none" d="M 290.571 130.606L 297.766 130.606L 297.766 123.411L 290.571 123.411L 290.571 130.606z"/>
<path style="stroke:none; fill-rule:evenodd; fill:#ffffff" d="M 336.153 105.012L 344.149 105.012L 344.149 97.817L 336.153 97.817L 336.153 105.012z"/>
<path style="stroke:#ffffff; stroke-width:1.59941; fill:none" d="M 336.153 105.012L 344.149 105.012L 344.149 97.817L 336.153 97.817L 336.153 105.012z"/>
<path style="stroke:#000000; stroke-width:1.59941; fill:none" d="M 336.153 105.012L 344.149 105.012L 344.149 97.817L 336.153 97.817L 336.153 105.012z"/>
<path style="stroke:none; fill-rule:evenodd; fill:#ffffff" d="M 382.535 79.422L 389.731 79.422L 389.731 72.227L 382.535 72.227L 382.535 79.422z"/>
<path style="stroke:#ffffff; stroke-width:1.59941; fill:none" d="M 382.535 79.422L 389.731 79.422L 389.731 72.227L 382.535 72.227L 382.535 79.422z"/>
<path style="stroke:#000000; stroke-width:1.59941; fill:none" d="M 382.535 79.422L 389.731 79.422L 389.731 72.227L 382.535 72.227L 382.535 79.422z"/>
<path style="stroke:none; fill-rule:evenodd; fill:#ffffff" d="M 428.117 53.832L 436.114 53.832L 436.114 45.836L 428.117 45.836L 428.117 53.832z"/>
<path style="stroke:#ffffff; stroke-width:1.59941; fill:none" d="M 428.117 53.832L 436.114 53.832L 436.114 45.836L 428.117 45.836L 428.117 53.832z"/>
<path style="stroke:#000000; stroke-width:1.59941; fill:none" d="M 428.117 53.832L 436.114 53.832L 436.114 45.836L 428.117 45.836L 428.117 53.832z"/>
<path style="stroke:#000000; stroke-width:1.59941; fill:none" d="M 86.6448 320.934L 478.496 320.934L 478.496 37.039L 86.6448 37.039L 86.6448 320.934z"/>
<path style="stroke:none; fill-rule:evenodd; fill:#ffffff" d="M 298.567 278.551L 425.719 278.551L 425.719 222.575L 298.567 222.575L 298.567 278.551z"/>
<path style="stroke:#ffffff; stroke-width:1.59941; fill:none" d="M 298.567 278.551L 425.719 278.551L 425.719 222.575L 298.567 222.575L 298.567 278.551z"/>
<path style="stroke:#ffffff; stroke-width:1.59941; fill:none" d="M 298.567 278.551L 425.719 278.551L 425.719 222.575L 298.567 222.575L 298.567 278.551z"/>
<path style="stroke:#000000; stroke-width:1.59941; fill:none" d="M 298.567 278.551L 425.719 278.551L 425.719 222.575L 298.567 222.575L 298.567 278.551z"/>
<path style="stroke:#000000; stroke-width:1.59941; fill:none" d="M 309.762 239.364L 351.344 239.364"/>
<path style="stroke:none; fill-rule:evenodd; fill:#ffffff" d="M 314.028 239.231C 314.028 238.032 313.496 236.7 312.696 235.903C 311.899 235.106 310.832 234.84 309.633 234.84C 308.434 234.84 307.102 235.106 306.305 235.903C 305.508 236.7 305.242 238.032 305.242 239.231C 305.242 240.43 305.508 241.496 306.305 242.293C 307.102 243.09 308.434 243.625 309.633 243.625C 310.832 243.625 311.899 243.094 312.696 242.293C 313.492 241.496 314.028 240.43 314.028 239.231"/>
<path style="stroke:#ffffff; stroke-width:1.59941; fill:none" d="M 314.028 239.231C 314.028 238.032 313.496 236.7 312.696 235.903C 311.899 235.106 310.832 234.84 309.633 234.84C 308.434 234.84 307.102 235.106 306.305 235.903C 305.508 236.7 305.242 238.032 305.242 239.231C 305.242 240.43 305.508 241.496 306.305 242.293C 307.102 243.09 308.434 243.625 309.633 243.625C 310.832 243.625 311.899 243.094 312.696 242.293C 313.492 241.496 314.028 240.43 314.028 239.231"/>
<path style="stroke:#000000; stroke-width:1.59941; fill:none" d="M 314.028 239.231C 314.028 238.032 313.496 236.7 312.696 235.903C 311.899 235.106 310.832 234.84 309.633 234.84C 308.434 234.84 307.102 235.106 306.305 235.903C 305.508 236.7 305.242 238.032 305.242 239.231C 305.242 240.43 305.508 241.496 306.305 242.293C 307.102 243.09 308.434 243.625 309.633 243.625C 310.832 243.625 311.899 243.094 312.696 242.293C 313.492 241.496 314.028 240.43 314.028 239.231"/>
<path style="stroke:none; fill-rule:evenodd; fill:#ffffff" d="M 355.879 239.231C 355.879 238.032 355.614 236.7 354.817 235.903C 354.02 235.106 352.684 234.84 351.489 234.84C 350.293 234.84 349.223 235.106 348.426 235.903C 347.629 236.7 347.094 238.032 347.094 239.231C 347.094 240.43 347.625 241.496 348.426 242.293C 349.223 243.09 350.289 243.625 351.489 243.625C 352.688 243.625 354.02 243.094 354.817 242.293C 355.614 241.496 355.879 240.43 355.879 239.231"/>
<path style="stroke:#ffffff; stroke-width:1.59941; fill:none" d="M 355.879 239.231C 355.879 238.032 355.614 236.7 354.817 235.903C 354.02 235.106 352.684 234.84 351.489 234.84C 350.293 234.84 349.223 235.106 348.426 235.903C 347.629 236.7 347.094 238.032 347.094 239.231C 347.094 240.43 347.625 241.496 348.426 242.293C 349.223 243.09 350.289 243.625 351.489 243.625C 352.688 243.625 354.02 243.094 354.817 242.293C 355.614 241.496 355.879 240.43 355.879 239.231"/>
<path style="stroke:#000000; stroke-width:1.59941; fill:none" d="M 355.879 239.231C 355.879 238.032 355.614 236.7 354.817 235.903C 354.02 235.106 352.684 234.84 351.489 234.84C 350.293 234.84 349.223 235.106 348.426 235.903C 347.629 236.7 347.094 238.032 347.094 239.231C 347.094 240.43 347.625 241.496 348.426 242.293C 349.223 243.09 350.289 243.625 351.489 243.625C 352.688 243.625 354.02 243.094 354.817 242.293C 355.614 241.496 355.879 240.43 355.879 239.231"/>
<path style="stroke:none; fill-rule:evenodd; fill:#000000" d="M 371.309 238.891L 372.688 242.891L 374.598 242.891L 369.891 229.493L 367.688 229.493L 362.906 242.891L 364.727 242.891L 366.141 238.891L 371.309 238.891zM 370.832 237.493L 366.567 237.493L 368.77 231.325L 370.832 237.493z"/>
<path style="stroke:none; fill-rule:evenodd; fill:#000000" d="M 376.293 242.891L 382.34 242.891C 383.606 242.891 384.543 242.543 385.262 241.774C 385.922 241.079 386.289 240.121 386.289 239.075C 386.289 237.461 385.543 236.485 383.805 235.825C 385.035 235.258 385.692 234.266 385.692 232.903C 385.692 231.93 385.324 231.067 384.629 230.442C 383.934 229.801 383.016 229.504 381.731 229.504L 376.297 229.504L 376.293 242.891zM 377.992 235.293L 377.992 230.996L 381.305 230.996C 382.258 230.996 382.793 231.125 383.254 231.477C 383.731 231.844 383.989 232.403 383.989 233.145C 383.989 233.868 383.731 234.442 383.254 234.813C 382.797 235.164 382.262 235.293 381.305 235.293L 377.992 235.293zM 377.992 241.391L 377.992 236.793L 382.176 236.793C 383.004 236.793 383.555 236.993 383.961 237.434C 384.364 237.852 384.586 238.442 384.586 239.098C 384.586 239.739 384.367 240.325 383.961 240.746C 383.559 241.184 383.004 241.387 382.176 241.387L 377.992 241.391z"/>
<path style="stroke:none; fill-rule:evenodd; fill:#000000" d="M 395.391 229.493L 393.692 229.493L 393.692 242.891L 401.989 242.891L 401.989 241.391L 395.391 241.391L 395.391 229.493z"/>
<path style="stroke:none; fill-rule:evenodd; fill:#000000" d="M 405.192 233.293L 403.594 233.293L 403.594 242.891L 405.192 242.891L 405.192 233.293zM 405.192 229.493L 403.594 229.493L 403.594 231.414L 405.192 231.414L 405.192 229.493z"/>
<path style="stroke:none; fill-rule:evenodd; fill:#000000" d="M 414.547 235.942C 414.528 234.059 413.285 232.996 411.071 232.996C 408.84 232.996 407.395 234.153 407.395 235.93C 407.395 237.434 408.156 238.149 410.406 238.7L 411.821 239.047C 412.871 239.301 413.289 239.688 413.289 240.383C 413.289 241.282 412.395 241.887 411.063 241.887C 410.242 241.887 409.547 241.653 409.164 241.246C 408.93 240.973 408.821 240.7 408.727 240.02L 407.121 240.02C 407.192 242.231 408.438 243.289 410.942 243.289C 413.352 243.289 414.891 242.098 414.891 240.246C 414.891 238.817 414.094 238.028 412.207 237.571L 410.758 237.223C 409.528 236.93 409 236.528 409 235.848C 409 234.969 409.785 234.399 411.028 234.399C 412.25 234.399 412.906 234.93 412.946 235.946L 414.547 235.942z"/>
<path style="stroke:none; fill-rule:evenodd; fill:#000000" d="M 420.391 233.293L 418.793 233.293L 418.793 230.61L 417.293 230.61L 417.293 233.293L 415.992 233.293L 415.992 234.59L 417.293 234.59L 417.293 241.782C 417.293 242.743 417.949 243.286 419.145 243.286C 419.508 243.286 419.875 243.25 420.391 243.161L 420.391 241.895C 420.188 241.961 419.946 241.985 419.649 241.985C 418.981 241.985 418.797 241.805 418.797 241.129L 418.797 234.586L 420.395 234.586L 420.391 233.293z"/>
<path style="stroke:#000000; stroke-dasharray:6,3; stroke-width:1.59941; fill:none" d="M 309.762 261.754L 351.344 261.754"/>
<path style="stroke:none; fill-rule:evenodd; fill:#ffffff" d="M 305.762 265.754L 312.957 265.754L 312.957 257.758L 305.762 257.758L 305.762 265.754z"/>
<path style="stroke:#ffffff; stroke-width:1.59941; fill:none" d="M 305.762 265.754L 312.957 265.754L 312.957 257.758L 305.762 257.758L 305.762 265.754z"/>
<path style="stroke:#000000; stroke-width:1.59941; fill:none" d="M 305.762 265.754L 312.957 265.754L 312.957 257.758L 305.762 257.758L 305.762 265.754z"/>
<path style="stroke:none; fill-rule:evenodd; fill:#ffffff" d="M 348.149 265.754L 355.344 265.754L 355.344 257.758L 348.149 257.758L 348.149 265.754z"/>
<path style="stroke:#ffffff; stroke-width:1.59941; fill:none" d="M 348.149 265.754L 355.344 265.754L 355.344 257.758L 348.149 257.758L 348.149 265.754z"/>
<path style="stroke:#000000; stroke-width:1.59941; fill:none" d="M 348.149 265.754L 355.344 265.754L 355.344 257.758L 348.149 257.758L 348.149 265.754z"/>
<path style="stroke:none; fill-rule:evenodd; fill:#000000" d="M 371.309 261.293L 372.688 265.293L 374.598 265.293L 369.891 251.895L 367.688 251.895L 362.906 265.293L 364.727 265.293L 366.141 261.293L 371.309 261.293zM 370.832 259.891L 366.567 259.891L 368.77 253.723L 370.832 259.891z"/>
<path style="stroke:none; fill-rule:evenodd; fill:#000000" d="M 386.969 256.039C 386.438 253.118 384.746 251.692 381.809 251.692C 380.012 251.692 378.559 252.258 377.571 253.36C 376.36 254.676 375.699 256.582 375.699 258.743C 375.699 260.938 376.375 262.829 377.645 264.125C 378.672 265.188 379.992 265.68 381.739 265.68C 385.004 265.68 386.84 263.922 387.246 260.387L 385.485 260.387C 385.34 261.301 385.156 261.922 384.879 262.453C 384.328 263.551 383.192 264.172 381.754 264.172C 379.09 264.172 377.399 262.047 377.399 258.711C 377.399 255.286 379.012 253.176 381.606 253.176C 382.688 253.176 383.699 253.504 384.25 254.016C 384.742 254.469 385.02 255.036 385.223 256.024L 386.969 256.039z"/>
<path style="stroke:none; fill-rule:evenodd; fill:#000000" d="M 396.391 251.891L 394.692 251.891L 394.692 265.289L 402.989 265.289L 402.989 263.789L 396.391 263.789L 396.391 251.891z"/>
<path style="stroke:none; fill-rule:evenodd; fill:#000000" d="M 406.192 255.692L 404.594 255.692L 404.594 265.289L 406.192 265.289L 406.192 255.692zM 406.192 251.891L 404.594 251.891L 404.594 253.813L 406.192 253.813L 406.192 251.891z"/>
<path style="stroke:none; fill-rule:evenodd; fill:#000000" d="M 415.547 258.34C 415.528 256.457 414.285 255.395 412.071 255.395C 409.84 255.395 408.395 256.551 408.395 258.329C 408.395 259.832 409.156 260.547 411.406 261.098L 412.821 261.446C 413.871 261.7 414.289 262.086 414.289 262.782C 414.289 263.68 413.395 264.286 412.063 264.286C 411.242 264.286 410.547 264.051 410.164 263.645C 409.93 263.371 409.821 263.098 409.727 262.418L 408.121 262.418C 408.192 264.629 409.438 265.688 411.942 265.688C 414.352 265.688 415.891 264.496 415.891 262.645C 415.891 261.215 415.094 260.426 413.207 259.969L 411.758 259.621C 410.528 259.329 410 258.926 410 258.246C 410 257.368 410.785 256.797 412.028 256.797C 413.25 256.797 413.906 257.329 413.946 258.344L 415.547 258.34z"/>
<path style="stroke:none; fill-rule:evenodd; fill:#000000" d="M 421.391 255.692L 419.793 255.692L 419.793 253.008L 418.293 253.008L 418.293 255.692L 416.992 255.692L 416.992 256.989L 418.293 256.989L 418.293 264.18C 418.293 265.141 418.949 265.684 420.145 265.684C 420.508 265.684 420.875 265.649 421.391 265.559L 421.391 264.293C 421.188 264.36 420.946 264.383 420.649 264.383C 419.981 264.383 419.797 264.203 419.797 263.528L 419.797 256.985L 421.395 256.985L 421.391 255.692z"/>
</g>
</svg>