<?xml version="1.0" encoding="UTF-8" standalone="no"?>
<!-- Created with Inkscape (http://www.inkscape.org/) -->

<svg
   xmlns:dc="http://purl.org/dc/elements/1.1/"
   xmlns:cc="http://creativecommons.org/ns#"
   xmlns:rdf="http://www.w3.org/1999/02/22-rdf-syntax-ns#"
   xmlns:svg="http://www.w3.org/2000/svg"
   xmlns="http://www.w3.org/2000/svg"
   xmlns:xlink="http://www.w3.org/1999/xlink"
   xmlns:sodipodi="http://sodipodi.sourceforge.net/DTD/sodipodi-0.dtd"
   xmlns:inkscape="http://www.inkscape.org/namespaces/inkscape"
   width="744.09448819"
   height="1052.3622047"
   id="svg2195"
   sodipodi:version="0.32"
   inkscape:version="0.48.2 r9819"
   sodipodi:docname="fig_brain_puzzle_blue_sky_pieces.svg"
   inkscape:output_extension="org.inkscape.output.svg.inkscape"
   inkscape:export-filename="/Users/oreilly/svn_docs/figs/fig_brain_puzzle_blue_sky.png"
   inkscape:export-xdpi="235.88"
   inkscape:export-ydpi="235.88"
   sodipodi:modified="TRUE"
   version="1.1">
  <defs
     id="defs2197">
    <inkscape:perspective
       sodipodi:type="inkscape:persp3d"
       inkscape:vp_x="0 : 526.18109 : 1"
       inkscape:vp_y="0 : 1000 : 0"
       inkscape:vp_z="744.09448 : 526.18109 : 1"
       inkscape:persp3d-origin="372.04724 : 350.78739 : 1"
       id="perspective55" />
    <linearGradient
       id="linearGradient4206">
      <stop
         id="stop4208"
         offset="0"
         style="stop-color:#ffffff;stop-opacity:1;" />
      <stop
         style="stop-color:#eae5fd;stop-opacity:1;"
         offset="1"
         id="stop4212" />
    </linearGradient>
    <linearGradient
       id="linearGradient7812">
      <stop
         id="stop7814"
         offset="0"
         style="stop-color:#280997;stop-opacity:1;" />
      <stop
         id="stop7816"
         offset="1"
         style="stop-color:#c39bf6;stop-opacity:1;" />
    </linearGradient>
    <linearGradient
       id="linearGradient4810">
      <stop
         style="stop-color:#653ff2;stop-opacity:1;"
         offset="0"
         id="stop4812" />
      <stop
         style="stop-color:#f4dbff;stop-opacity:1;"
         offset="1"
         id="stop4814" />
    </linearGradient>
    <linearGradient
       inkscape:collect="always"
       xlink:href="#linearGradient4810"
       id="linearGradient5799"
       gradientUnits="userSpaceOnUse"
       x1="312.85715"
       y1="650.57648"
       x2="493.57144"
       y2="650.57648" />
    <linearGradient
       inkscape:collect="always"
       xlink:href="#linearGradient4810"
       id="linearGradient5803"
       gradientUnits="userSpaceOnUse"
       x1="312.85715"
       y1="650.57648"
       x2="493.57144"
       y2="650.57648" />
    <linearGradient
       inkscape:collect="always"
       xlink:href="#linearGradient7812"
       id="linearGradient6838"
       x1="311.35715"
       y1="650.57648"
       x2="495.07144"
       y2="650.57648"
       gradientUnits="userSpaceOnUse" />
    <linearGradient
       inkscape:collect="always"
       xlink:href="#linearGradient7812"
       id="linearGradient7824"
       x1="311.35715"
       y1="650.57648"
       x2="495.07144"
       y2="650.57648"
       gradientUnits="userSpaceOnUse" />
    <marker
       orient="auto"
       markerHeight="3"
       markerWidth="4"
       markerUnits="strokeWidth"
       refY="5"
       refX="10"
       viewBox="0 0 10 10"
       id="ArrowStart">
      <path
         id="path8137"
         d="M 10 0 L 0 5 L 10 10 z" />
    </marker>
    <marker
       orient="auto"
       markerHeight="3"
       markerWidth="4"
       markerUnits="strokeWidth"
       refY="5"
       refX="0"
       viewBox="0 0 10 10"
       id="ArrowEnd">
      <path
         id="path8134"
         d="M 0 0 L 10 5 L 0 10 z" />
    </marker>
    <linearGradient
       inkscape:collect="always"
       xlink:href="#linearGradient4810"
       id="linearGradient10594"
       x1="106.98521"
       y1="393.43359"
       x2="547.3006"
       y2="393.43359"
       gradientUnits="userSpaceOnUse"
       gradientTransform="matrix(0.7695344,-0.132254,0.1356897,0.7500495,183.68476,233.80728)" />
    <linearGradient
       inkscape:collect="always"
       xlink:href="#linearGradient7812"
       id="linearGradient11577"
       gradientUnits="userSpaceOnUse"
       x1="311.35715"
       y1="650.57648"
       x2="495.07144"
       y2="650.57648"
       gradientTransform="matrix(0.7695344,-0.132254,0.1356897,0.7500495,183.68476,233.80728)" />
    <linearGradient
       inkscape:collect="always"
       xlink:href="#linearGradient4810"
       id="linearGradient2182"
       gradientUnits="userSpaceOnUse"
       x1="312.85715"
       y1="650.57648"
       x2="493.57144"
       y2="650.57648" />
    <linearGradient
       inkscape:collect="always"
       xlink:href="#linearGradient7812"
       id="linearGradient2184"
       gradientUnits="userSpaceOnUse"
       x1="311.35715"
       y1="650.57648"
       x2="495.07144"
       y2="650.57648" />
    <linearGradient
       inkscape:collect="always"
       xlink:href="#linearGradient4810"
       id="linearGradient2475"
       gradientUnits="userSpaceOnUse"
       gradientTransform="matrix(0.7695344,-0.132254,0.1356897,0.7500495,183.68476,233.80728)"
       x1="106.98521"
       y1="393.43359"
       x2="547.3006"
       y2="393.43359" />
    <linearGradient
       inkscape:collect="always"
       xlink:href="#linearGradient7812"
       id="linearGradient2477"
       gradientUnits="userSpaceOnUse"
       gradientTransform="matrix(0.7695344,-0.132254,0.1356897,0.7500495,183.68476,233.80728)"
       x1="311.35715"
       y1="650.57648"
       x2="495.07144"
       y2="650.57648" />
    <linearGradient
       inkscape:collect="always"
       xlink:href="#linearGradient4810"
       id="linearGradient2488"
       gradientUnits="userSpaceOnUse"
       gradientTransform="matrix(0.7695344,-0.132254,0.1356897,0.7500495,183.68476,233.80728)"
       x1="106.98521"
       y1="393.43359"
       x2="547.3006"
       y2="393.43359" />
    <linearGradient
       inkscape:collect="always"
       xlink:href="#linearGradient7812"
       id="linearGradient2490"
       gradientUnits="userSpaceOnUse"
       gradientTransform="matrix(0.7695344,-0.132254,0.1356897,0.7500495,183.68476,233.80728)"
       x1="311.35715"
       y1="650.57648"
       x2="495.07144"
       y2="650.57648" />
    <linearGradient
       inkscape:collect="always"
       xlink:href="#linearGradient4810"
       id="linearGradient2504"
       gradientUnits="userSpaceOnUse"
       gradientTransform="matrix(0.7695344,-0.132254,0.1356897,0.7500495,183.68476,233.80728)"
       x1="106.98521"
       y1="393.43359"
       x2="547.3006"
       y2="393.43359" />
    <linearGradient
       inkscape:collect="always"
       xlink:href="#linearGradient7812"
       id="linearGradient2506"
       gradientUnits="userSpaceOnUse"
       gradientTransform="matrix(0.7695344,-0.132254,0.1356897,0.7500495,183.68476,233.80728)"
       x1="311.35715"
       y1="650.57648"
       x2="495.07144"
       y2="650.57648" />
    <linearGradient
       inkscape:collect="always"
       xlink:href="#linearGradient4810"
       id="linearGradient2517"
       gradientUnits="userSpaceOnUse"
       gradientTransform="matrix(0.7695344,-0.132254,0.1356897,0.7500495,183.68476,233.80728)"
       x1="106.98521"
       y1="393.43359"
       x2="547.3006"
       y2="393.43359" />
    <linearGradient
       inkscape:collect="always"
       xlink:href="#linearGradient7812"
       id="linearGradient2519"
       gradientUnits="userSpaceOnUse"
       gradientTransform="matrix(0.7695344,-0.132254,0.1356897,0.7500495,183.68476,233.80728)"
       x1="311.35715"
       y1="650.57648"
       x2="495.07144"
       y2="650.57648" />
    <linearGradient
       inkscape:collect="always"
       xlink:href="#linearGradient4810"
       id="linearGradient2521"
       gradientUnits="userSpaceOnUse"
       gradientTransform="matrix(0.7695344,-0.132254,0.1356897,0.7500495,183.68476,233.80728)"
       x1="106.98521"
       y1="393.43359"
       x2="547.3006"
       y2="393.43359" />
    <linearGradient
       inkscape:collect="always"
       xlink:href="#linearGradient7812"
       id="linearGradient2523"
       gradientUnits="userSpaceOnUse"
       gradientTransform="matrix(0.7695344,-0.132254,0.1356897,0.7500495,183.68476,233.80728)"
       x1="311.35715"
       y1="650.57648"
       x2="495.07144"
       y2="650.57648" />
    <linearGradient
       inkscape:collect="always"
       xlink:href="#linearGradient4810"
       id="linearGradient3507"
       gradientUnits="userSpaceOnUse"
       gradientTransform="matrix(0.7695344,-0.132254,0.1356897,0.7500495,-84.88667,142.37871)"
       x1="106.98521"
       y1="393.43359"
       x2="547.3006"
       y2="393.43359" />
    <linearGradient
       inkscape:collect="always"
       xlink:href="#linearGradient7812"
       id="linearGradient3509"
       gradientUnits="userSpaceOnUse"
       gradientTransform="matrix(0.7695344,-0.132254,0.1356897,0.7500495,-84.88667,142.37871)"
       x1="311.35715"
       y1="650.57648"
       x2="495.07144"
       y2="650.57648" />
    <linearGradient
       inkscape:collect="always"
       xlink:href="#linearGradient4810"
       id="linearGradient3512"
       gradientUnits="userSpaceOnUse"
       gradientTransform="matrix(0.7695344,-0.132254,0.1356897,0.7500495,-84.88667,142.37871)"
       x1="106.98521"
       y1="393.43359"
       x2="547.3006"
       y2="393.43359" />
    <linearGradient
       inkscape:collect="always"
       xlink:href="#linearGradient7812"
       id="linearGradient3514"
       gradientUnits="userSpaceOnUse"
       gradientTransform="matrix(0.7695344,-0.132254,0.1356897,0.7500495,-84.88667,142.37871)"
       x1="311.35715"
       y1="650.57648"
       x2="495.07144"
       y2="650.57648" />
    <linearGradient
       inkscape:collect="always"
       xlink:href="#linearGradient4810"
       id="linearGradient3517"
       gradientUnits="userSpaceOnUse"
       gradientTransform="matrix(0.7695344,-0.132254,0.1356897,0.7500495,-84.88667,142.37871)"
       x1="106.98521"
       y1="393.43359"
       x2="547.3006"
       y2="393.43359" />
    <linearGradient
       inkscape:collect="always"
       xlink:href="#linearGradient7812"
       id="linearGradient3519"
       gradientUnits="userSpaceOnUse"
       gradientTransform="matrix(0.7695344,-0.132254,0.1356897,0.7500495,-84.88667,142.37871)"
       x1="311.35715"
       y1="650.57648"
       x2="495.07144"
       y2="650.57648" />
    <linearGradient
       inkscape:collect="always"
       xlink:href="#linearGradient4810"
       id="linearGradient3522"
       gradientUnits="userSpaceOnUse"
       gradientTransform="matrix(0.7695344,-0.132254,0.1356897,0.7500495,-84.88667,142.37871)"
       x1="106.98521"
       y1="393.43359"
       x2="547.3006"
       y2="393.43359" />
    <linearGradient
       inkscape:collect="always"
       xlink:href="#linearGradient7812"
       id="linearGradient3524"
       gradientUnits="userSpaceOnUse"
       gradientTransform="matrix(0.7695344,-0.132254,0.1356897,0.7500495,-84.88667,142.37871)"
       x1="311.35715"
       y1="650.57648"
       x2="495.07144"
       y2="650.57648" />
    <linearGradient
       inkscape:collect="always"
       xlink:href="#linearGradient4810"
       id="linearGradient3527"
       gradientUnits="userSpaceOnUse"
       gradientTransform="matrix(0.7695344,-0.132254,0.1356897,0.7500495,-84.88667,142.37871)"
       x1="106.98521"
       y1="393.43359"
       x2="547.3006"
       y2="393.43359" />
    <linearGradient
       inkscape:collect="always"
       xlink:href="#linearGradient7812"
       id="linearGradient3529"
       gradientUnits="userSpaceOnUse"
       gradientTransform="matrix(0.7695344,-0.132254,0.1356897,0.7500495,-84.88667,142.37871)"
       x1="311.35715"
       y1="650.57648"
       x2="495.07144"
       y2="650.57648" />
    <linearGradient
       inkscape:collect="always"
       xlink:href="#linearGradient4810"
       id="linearGradient11851"
       x1="-118.25799"
       y1="773.30463"
       x2="-18.332869"
       y2="773.30463"
       gradientUnits="userSpaceOnUse" />
    <linearGradient
       inkscape:collect="always"
       xlink:href="#linearGradient4810"
       id="linearGradient11873"
       x1="-92.831429"
       y1="721.57806"
       x2="-43.707115"
       y2="721.57806"
       gradientUnits="userSpaceOnUse"
       gradientTransform="translate(187.85714,202.85714)" />
    <linearGradient
       inkscape:collect="always"
       xlink:href="#linearGradient4810"
       id="linearGradient11967"
       x1="-120.24822"
       y1="648.40387"
       x2="-57.637787"
       y2="648.40387"
       gradientUnits="userSpaceOnUse"
       gradientTransform="translate(300.71429,90.714286)" />
    <linearGradient
       inkscape:collect="always"
       xlink:href="#linearGradient4810"
       id="linearGradient11978"
       x1="-18.879917"
       y1="613.45239"
       x2="45.119022"
       y2="613.45239"
       gradientUnits="userSpaceOnUse"
       gradientTransform="translate(175.71429,79.285714)" />
    <linearGradient
       inkscape:collect="always"
       xlink:href="#linearGradient4810"
       id="linearGradient11988"
       x1="50.119709"
       y1="591.03864"
       x2="106.50062"
       y2="591.03864"
       gradientUnits="userSpaceOnUse"
       gradientTransform="translate(158.57143,306.42857)" />
    <linearGradient
       inkscape:collect="always"
       xlink:href="#linearGradient4810"
       id="linearGradient12012"
       x1="115.27431"
       y1="632.20673"
       x2="199.92831"
       y2="632.20673"
       gradientUnits="userSpaceOnUse"
       gradientTransform="translate(-19.285715,1.4285718)" />
    <linearGradient
       inkscape:collect="always"
       xlink:href="#linearGradient4810"
       id="linearGradient12022"
       x1="219.41772"
       y1="608.01447"
       x2="273.05136"
       y2="608.01447"
       gradientUnits="userSpaceOnUse" />
    <linearGradient
       inkscape:collect="always"
       xlink:href="#linearGradient4810"
       id="linearGradient12033"
       x1="295.71396"
       y1="570.68573"
       x2="354.19339"
       y2="570.68573"
       gradientUnits="userSpaceOnUse"
       gradientTransform="translate(-112.85714,65.714286)" />
    <linearGradient
       inkscape:collect="always"
       xlink:href="#linearGradient4810"
       id="linearGradient12045"
       x1="377.39474"
       y1="581.64569"
       x2="436.71771"
       y2="581.64569"
       gradientUnits="userSpaceOnUse"
       gradientTransform="translate(-30,77.142857)" />
    <linearGradient
       inkscape:collect="always"
       xlink:href="#linearGradient4810"
       id="linearGradient12059"
       x1="288.65204"
       y1="641.88934"
       x2="373.241"
       y2="641.88934"
       gradientUnits="userSpaceOnUse"
       gradientTransform="translate(-29.285714,2.8571429)" />
    <linearGradient
       inkscape:collect="always"
       xlink:href="#linearGradient4810"
       id="linearGradient12076"
       x1="519.60736"
       y1="612.50861"
       x2="601.89764"
       y2="612.50861"
       gradientUnits="userSpaceOnUse"
       gradientTransform="translate(-47.857143,58.571429)" />
    <linearGradient
       inkscape:collect="always"
       xlink:href="#linearGradient4810"
       id="linearGradient12086"
       x1="472.00159"
       y1="659.71777"
       x2="522.2489"
       y2="659.71777"
       gradientUnits="userSpaceOnUse"
       gradientTransform="translate(-442.85715,224.28571)" />
    <linearGradient
       inkscape:collect="always"
       xlink:href="#linearGradient4810"
       id="linearGradient12099"
       x1="546.12384"
       y1="703.15698"
       x2="613.40497"
       y2="703.15698"
       gradientUnits="userSpaceOnUse"
       gradientTransform="translate(-129.28572,18.571429)" />
    <linearGradient
       inkscape:collect="always"
       xlink:href="#linearGradient4810"
       id="linearGradient12112"
       x1="421.87717"
       y1="715.47437"
       x2="475.48633"
       y2="715.47437"
       gradientUnits="userSpaceOnUse"
       gradientTransform="translate(-56.428571,11.428571)" />
    <linearGradient
       inkscape:collect="always"
       xlink:href="#linearGradient4810"
       id="linearGradient12123"
       x1="484.8866"
       y1="742.11438"
       x2="554.02216"
       y2="742.11438"
       gradientUnits="userSpaceOnUse"
       gradientTransform="translate(-376.42857,37.857147)" />
    <linearGradient
       inkscape:collect="always"
       xlink:href="#linearGradient4810"
       id="linearGradient12136"
       x1="557.34558"
       y1="795.63898"
       x2="630.92609"
       y2="795.63898"
       gradientUnits="userSpaceOnUse"
       gradientTransform="translate(-65,-27.142857)" />
    <linearGradient
       inkscape:collect="always"
       xlink:href="#linearGradient4810"
       id="linearGradient12148"
       x1="513.91241"
       y1="857.47455"
       x2="572.00946"
       y2="857.47455"
       gradientUnits="userSpaceOnUse"
       gradientTransform="translate(-68.571429,-2.8571429)" />
    <linearGradient
       inkscape:collect="always"
       xlink:href="#linearGradient4810"
       id="linearGradient12159"
       x1="491.35962"
       y1="792.96118"
       x2="553.34027"
       y2="792.96118"
       gradientUnits="userSpaceOnUse"
       gradientTransform="translate(-62.142857,-7.1428571)" />
    <linearGradient
       inkscape:collect="always"
       xlink:href="#linearGradient4810"
       id="linearGradient12173"
       x1="396.49075"
       y1="796.87598"
       x2="479.22559"
       y2="796.87598"
       gradientUnits="userSpaceOnUse"
       gradientTransform="translate(-37.142857,10.714285)" />
    <linearGradient
       inkscape:collect="always"
       xlink:href="#linearGradient4810"
       id="linearGradient12184"
       x1="449.54379"
       y1="875.54535"
       x2="507.49432"
       y2="875.54535"
       gradientUnits="userSpaceOnUse"
       gradientTransform="translate(-58.571429,0)" />
    <linearGradient
       inkscape:collect="always"
       xlink:href="#linearGradient4810"
       id="linearGradient12196"
       x1="406.67914"
       y1="932.07355"
       x2="475.26562"
       y2="932.07355"
       gradientUnits="userSpaceOnUse"
       gradientTransform="translate(-112.85714,-230)" />
    <linearGradient
       inkscape:collect="always"
       xlink:href="#linearGradient4810"
       id="linearGradient12211"
       x1="324.42712"
       y1="814.27808"
       x2="383.25699"
       y2="814.27808"
       gradientUnits="userSpaceOnUse"
       gradientTransform="translate(-42.857143,-2.1428571)" />
    <linearGradient
       inkscape:collect="always"
       xlink:href="#linearGradient4810"
       id="linearGradient12223"
       x1="331.69348"
       y1="703.17743"
       x2="396.2262"
       y2="703.17743"
       gradientUnits="userSpaceOnUse"
       gradientTransform="translate(-282.85714,-37.142857)" />
    <linearGradient
       inkscape:collect="always"
       xlink:href="#linearGradient4810"
       id="linearGradient12238"
       x1="219.28606"
       y1="703.3653"
       x2="290.93964"
       y2="703.3653"
       gradientUnits="userSpaceOnUse" />
    <linearGradient
       inkscape:collect="always"
       xlink:href="#linearGradient4810"
       id="linearGradient12251"
       x1="104.34562"
       y1="710.13214"
       x2="166.45145"
       y2="710.13214"
       gradientUnits="userSpaceOnUse" />
    <linearGradient
       inkscape:collect="always"
       xlink:href="#linearGradient4810"
       id="linearGradient12264"
       x1="24.180725"
       y1="730.08289"
       x2="88.802689"
       y2="730.08289"
       gradientUnits="userSpaceOnUse"
       gradientTransform="translate(370,-85)" />
    <linearGradient
       inkscape:collect="always"
       xlink:href="#linearGradient4810"
       id="linearGradient12275"
       x1="-95.012566"
       y1="877.56818"
       x2="-16.386152"
       y2="877.56818"
       gradientUnits="userSpaceOnUse"
       gradientTransform="translate(404.28571,-292.14286)" />
    <linearGradient
       inkscape:collect="always"
       xlink:href="#linearGradient4810"
       id="linearGradient12288"
       x1="46.759434"
       y1="797.95544"
       x2="93.225586"
       y2="797.95544"
       gradientUnits="userSpaceOnUse" />
    <linearGradient
       inkscape:collect="always"
       xlink:href="#linearGradient4810"
       id="linearGradient12303"
       x1="115.57222"
       y1="782.63281"
       x2="174.34641"
       y2="782.63281"
       gradientUnits="userSpaceOnUse"
       gradientTransform="translate(284.28571,150.71429)" />
    <linearGradient
       inkscape:collect="always"
       xlink:href="#linearGradient4810"
       id="linearGradient12318"
       x1="192.56168"
       y1="800.49731"
       x2="271.14355"
       y2="800.49731"
       gradientUnits="userSpaceOnUse" />
    <linearGradient
       inkscape:collect="always"
       xlink:href="#linearGradient4810"
       id="linearGradient12329"
       x1="-27.994715"
       y1="924.30182"
       x2="19.765732"
       y2="924.30182"
       gradientUnits="userSpaceOnUse"
       gradientTransform="translate(77.857143,-188.57143)" />
    <linearGradient
       inkscape:collect="always"
       xlink:href="#linearGradient4810"
       id="linearGradient12342"
       x1="65.25425"
       y1="936.37842"
       x2="133.64992"
       y2="936.37842"
       gradientUnits="userSpaceOnUse"
       gradientTransform="translate(252.14286,-67.857143)" />
    <linearGradient
       inkscape:collect="always"
       xlink:href="#linearGradient4810"
       id="linearGradient12356"
       x1="81.622704"
       y1="855.87817"
       x2="136.54874"
       y2="855.87817"
       gradientUnits="userSpaceOnUse" />
    <linearGradient
       inkscape:collect="always"
       xlink:href="#linearGradient4810"
       id="linearGradient12370"
       x1="153.40443"
       y1="943.49231"
       x2="226.03175"
       y2="943.49231"
       gradientUnits="userSpaceOnUse" />
    <linearGradient
       inkscape:collect="always"
       xlink:href="#linearGradient4810"
       id="linearGradient12383"
       x1="143.47221"
       y1="870.02582"
       x2="215.04385"
       y2="870.02582"
       gradientUnits="userSpaceOnUse" />
    <linearGradient
       inkscape:collect="always"
       xlink:href="#linearGradient4810"
       id="linearGradient12395"
       x1="254.23384"
       y1="868.21375"
       x2="308.7402"
       y2="868.21375"
       gradientUnits="userSpaceOnUse" />
    <linearGradient
       inkscape:collect="always"
       xlink:href="#linearGradient4810"
       id="linearGradient12407"
       x1="245.79234"
       y1="932.49829"
       x2="310.3924"
       y2="932.49829"
       gradientUnits="userSpaceOnUse" />
    <linearGradient
       inkscape:collect="always"
       xlink:href="#linearGradient4810"
       id="linearGradient12420"
       x1="325.01709"
       y1="929.33527"
       x2="387.82626"
       y2="929.33527"
       gradientUnits="userSpaceOnUse" />
    <linearGradient
       inkscape:collect="always"
       xlink:href="#linearGradient4810"
       id="linearGradient12422"
       gradientUnits="userSpaceOnUse"
       x1="-118.25799"
       y1="773.30463"
       x2="-18.332869"
       y2="773.30463" />
  </defs>
  <sodipodi:namedview
     id="base"
     pagecolor="#ffffff"
     bordercolor="#666666"
     borderopacity="1.0"
     gridtolerance="10000"
     guidetolerance="10"
     objecttolerance="10"
     inkscape:pageopacity="0.0"
     inkscape:pageshadow="2"
     inkscape:zoom="0.98994949"
     inkscape:cx="265.4496"
     inkscape:cy="251.18376"
     inkscape:document-units="px"
     inkscape:current-layer="layer1"
     inkscape:window-width="1748"
     inkscape:window-height="1119"
     inkscape:window-x="121"
     inkscape:window-y="22"
     showgrid="false"
     inkscape:window-maximized="0" />
  <metadata
     id="metadata2200">
    <rdf:RDF>
      <cc:Work
         rdf:about="">
        <dc:format>image/svg+xml</dc:format>
        <dc:type
           rdf:resource="http://purl.org/dc/dcmitype/StillImage" />
        <dc:title></dc:title>
      </cc:Work>
    </rdf:RDF>
  </metadata>
  <g
     inkscape:label="Layer 1"
     inkscape:groupmode="layer"
     id="layer1">
    <rect
       style="fill:#ffffff;stroke:#ffffff;stroke-width:0.97972751;stroke-linejoin:round;stroke-miterlimit:4;stroke-opacity:1;stroke-dasharray:none;stroke-dashoffset:0"
       id="rect12424"
       width="549.01282"
       height="440.38412"
       x="21.723356"
       y="542.76941" />
    <path
       sodipodi:type="arc"
       style="opacity:0.77837836;fill:#000000;fill-opacity:1;stroke:#00d100;stroke-opacity:1"
       id="path3218"
       sodipodi:cx="499.28571"
       sodipodi:cy="645.2193"
       sodipodi:rx="13.571428"
       sodipodi:ry="0"
       d="M 512.85713 645.2193 A 13.571428 0 0 1 1  485.71428,645.2193 A 13.571428 0 0 1 1  512.85713 645.2193 z" />
    <path
       inkscape:connector-curvature="0"
       style="color:#000000;fill:url(#linearGradient12211);fill-opacity:1;stroke:#000000;stroke-width:2;stroke-linecap:butt;stroke-linejoin:miter;stroke-miterlimit:4;stroke-opacity:1;stroke-dasharray:none;stroke-dashoffset:0;marker:none;visibility:visible;display:inline;overflow:visible;enable-background:accumulate"
       d="m 305.39703,785.16003 c -3.83879,-0.0943 -2.99019,0.2298 -6.64266,0.15761 0,0 -4.57693,4.36013 -6.99848,6.30263 -1.31327,1.05347 -3.53862,1.42345 -4.04061,3.03046 -0.63497,2.03272 0.20877,4.94132 2.02031,6.06091 3.03804,1.87761 7.04515,-1.78204 10.6066,-1.51522 1.7528,0.13132 4.00153,0.10502 5.05076,1.51522 1.35673,1.82349 0.21558,4.55593 0,6.81853 -0.2114,2.21872 0.52593,5.23624 -1.26269,6.566 -2.64847,1.96902 -7.08294,0.78995 -9.84899,-1.01016 -1.70648,-1.11056 -1.29555,-4.2377 -3.03046,-5.3033 -1.43638,-0.88224 -3.64438,-1.18186 -5.05076,-0.25254 -2.84415,1.87939 -3.63008,9.52248 -3.63008,9.52248 5.72107,1.22144 7.53268,3.67115 7.55974,6.594 0,0 5.64171,-0.36566 7.6871,1.30866 2.22617,1.82231 1.36093,5.73828 3.03045,8.08122 1.83888,2.58062 4.18185,6.47376 7.32361,6.06091 4.60858,-0.6056 7.07598,-6.82602 8.08122,-11.36422 0.70343,-3.17566 -3.35769,-6.75887 -1.76777,-9.59644 0.57312,-1.02286 2.12252,-1.43006 3.283,-1.2627 4.93264,0.71138 6.88593,9.03518 11.86929,9.09138 2.71061,0.0306 5.18716,-2.46431 6.56599,-4.79823 1.68355,-2.84971 1.42145,-6.54293 1.26269,-9.84898 -0.0911,-1.89699 0.2216,-4.37104 -1.26269,-5.55584 -2.43422,-1.94307 -7.17414,2.23452 -9.34391,0 -1.9947,-2.05423 -1.44832,-6.28288 0.25254,-8.5863 2.48262,-3.36214 12.28861,-4.17049 12.28861,-4.17049 -6.13217,-2.66752 -28.44807,-7.70913 -34.00281,-7.84559 z"
       id="path10732"
       sodipodi:nodetypes="ccssssssssssccsscsssscsssscc" />
    <g
       id="g10540"
       transform="translate(390.71428,-21.428572)"
       style="fill:url(#linearGradient11851);fill-opacity:1">
      <path
         id="path10458"
         style="fill:url(#linearGradient12422);fill-opacity:1;stroke:#000000;stroke-width:2;stroke-linejoin:round;stroke-miterlimit:4;stroke-opacity:1;stroke-dasharray:none;stroke-dashoffset:0"
         d="m -38.27352,796.53586 c 0.52752,-2.28564 -2.01983,-4.644 -4.10715,-5.71428 -1.16527,-0.59749 -3.16743,1.0656 -3.92857,0 -1.28011,-1.79215 0.53648,-4.74334 2.14286,-6.25 1.98006,-1.85714 5.74158,-3.84404 7.85714,-2.14286 1.85779,1.4939 -0.68011,4.78091 -0.35714,7.14286 0.17851,1.30547 0.0436,3.22018 1.25,3.75 1.73203,0.76066 3.75241,-1.07862 5.17857,-2.32143 0.84671,-0.73785 0.98097,-2.07374 1.78572,-2.85715 0.84122,-0.81891 2.58929,-1.74106 2.58929,-1.74106 -4.07888,-2.06899 -4.02693,-3.07881 -4.9107,-7.18749 -0.2186,-1.01629 0.06233,-2.22602 0.71428,-3.03571 0.95174,-1.18203 2.5899,-1.93299 4.10715,-1.96429 1.81289,-0.0374 3.32737,2.84306 5,2.14286 1.3561,-0.5677 1.51314,-2.64002 1.60714,-4.10714 0.12558,-1.95936 -0.75561,-3.86984 -1.42857,-5.71429 -1.02194,-2.80093 -3.91329,-8.04193 -6.42857,-9.64285 -2.86272,-1.82205 -5.73817,-1.35529 -7.67858,1.42857 -1.31472,1.88621 0.92853,4.75025 2.5,6.42857 0.67344,0.71923 2.31601,0.33384 2.67858,1.25 0.47181,1.19222 -0.59431,2.59778 -1.42858,3.57143 -2.20522,2.57365 -5.36149,5.10997 -8.75,5.17857 -2.63603,0.0533 -5.04065,-1.9469 -6.96428,-3.75 -2.4582,-2.30419 -4.76131,-5.25525 -5.35714,-8.57143 -0.3654,-2.03369 0.15001,-4.3223 1.25,-6.07143 0.83658,-1.33028 3.05254,-1.44892 3.75,-2.85714 0.79254,-1.60021 1.18324,-4.01971 0,-5.35715 -2.26504,-2.56022 -9.53088,-1.47744 -12.9092,-1.31786 -2.02733,0.10494 -2.06621,-0.29226 -3.17704,1.45 -1.24966,1.95999 1.25125,4.48864 1.60714,6.78572 0.36556,2.35949 0.57841,4.7556 0.53571,7.14286 -0.01929,1.07785 -0.695595,3.20974 -0.695595,3.20974 -1.800955,3.06249 -42.869855,-21.73836 -44.761355,-16.5291 -1.8915,5.20925 -3.4964,10.2949 -4.8229,15.33746 -0.6633,2.52129 -5.2976,21.33365 -5.8227,23.84347 -0.525,2.50982 19.83863,5.79832 19.479965,8.12582 0,0 1.359765,-5.35867 0.03024,-7.33384 -1.14804,-1.70555 -4.77669,-0.49172 -5.71428,-2.32143 -0.92174,-1.79877 -0.17883,-4.66752 1.42857,-5.89286 1.56287,-1.19139 3.94039,-0.0447 5.89285,0.17858 2.11084,0.24135 4.34816,0.30295 6.25,1.25 1.28323,0.639 3.04135,1.43409 3.21429,2.85714 0.13943,1.1473 -1.1596,2.02755 -1.96429,2.85714 -0.7709,0.79475 -2.53322,0.86666 -2.67857,1.96429 -0.20013,1.51136 2.08292,2.2581 2.85715,3.57143 0.55574,0.94271 0.241,2.61206 1.25,3.03571 2.19118,0.92001 4.35223,-1.92821 6.60714,-2.67857 2.21926,-0.7385 4.47354,-1.43302 6.78571,-1.78572 2.59177,-0.39535 6.08126,1.57154 7.85715,-0.35714 1.08937,-1.1831 0.91599,-3.64314 -0.17858,-4.82143 -1.10055,-1.18473 -3.66248,0.59196 -4.82142,-0.53571 -1.55055,-1.50871 -1.40531,-4.32671 -0.89286,-6.42857 0.41468,-1.70083 1.48068,-3.48158 3.03571,-4.28572 2.11491,-1.09366 5.14259,-1.29145 7.14286,0 1.70097,1.09821 2.0035,3.57285 2.5,5.53572 0.40975,1.61989 0.57659,3.34356 0.35714,5 -0.19037,1.43694 -1.51027,2.65995 -1.42857,4.10714 0.093,1.64802 1.32059,3.03303 2.14286,4.46429 1.11026,1.93254 1.56719,5.08543 3.75,5.53571 2.49042,0.51374 3.88573,-4.11712 6.42857,-4.10714 2.83971,0.0111 4.58854,0.60253 5.44643,3.08035 0,0 3.80114,-0.83195 4.19643,-2.54464 z"
         inkscape:connector-curvature="0"
         sodipodi:nodetypes="ssssssssscsscscscsssscssssscssccscccssscsssssssssssssssscssccs" />
    </g>
    <path
       inkscape:connector-curvature="0"
       id="path10476"
       d="m 138.77531,944.41005 c 0.0427,-2.38726 -0.17015,-4.78337 -0.53571,-7.14286 -0.35589,-2.29708 -2.8568,-4.82573 -1.60714,-6.78572 1.11083,-1.74226 1.14971,-1.34506 3.19295,-1.29046 0,0 -2.27151,-4.42302 -3.8094,-6.4279 -1.88387,-2.45592 -7.33079,-3.56672 -6.566,-6.56599 0.36857,-1.44541 3.13464,-0.32306 4.29315,-1.26269 0.9653,-0.78292 0.70073,-2.64565 1.76777,-3.28299 1.73446,-1.03598 4.47551,1.25225 6.06091,0 1.42601,-1.12635 1.98529,-3.63597 1.26269,-5.3033 -0.80962,-1.86813 -3.36558,-2.40545 -5.3033,-3.03046 -3.06119,-0.98735 -6.72716,-2.46376 -9.59645,-1.01015 -2.08644,1.05701 -3.60288,5.91204 -3.60288,5.91204 -0.73715,1.45892 -18.39815,-8.38931 -19.25555,-6.63662 -0.8574,1.75269 -7.837798,17.4857 -8.801198,19.66249 -4.0192,9.08174 41.869198,23.35715 41.387758,26.2518 0,0 1.09311,-2.00934 1.1124,-3.08719 z"
       style="fill:url(#linearGradient11873);fill-opacity:1;stroke:#000000;stroke-width:2;stroke-linejoin:round;stroke-miterlimit:4;stroke-opacity:1;stroke-dasharray:none;stroke-dashoffset:0"
       sodipodi:nodetypes="csscsssssssscsccc" />
    <path
       inkscape:connector-curvature="0"
       id="path10499"
       d="m 210.03848,714.64079 c -3.2618,3.21536 -5.635,5.76111 -6.6139,7.06692 -10.0588,12.93896 -14.6076,19.37521 -21.919,29.79024 -1.0156,1.44662 17.8899,9.37727 17.47189,11.45903 0,0 1.87358,-4.94431 3.96002,-6.00132 2.86929,-1.45361 9.3924,1.2728 12.18311,2.48205 0,0 -0.011,-4.88014 1.74983,-6.34409 1.69416,-1.4085 4.36517,-0.85961 6.56599,-0.75762 1.63271,0.0757 3.58869,-0.0892 4.79822,1.01015 1.04424,0.94909 0.98681,2.65674 1.26269,4.04061 0.36356,1.8237 -0.86808,4.30185 0.50508,5.55584 1.67832,1.53266 4.75362,0.94972 6.81853,0 2.11528,-0.97289 3.92076,-3.06045 4.54569,-5.3033 0.96205,-3.45278 1.41047,-8.94949 -1.76777,-10.6066 -1.73615,-0.90521 -3.35714,2.31072 -5.3033,2.52538 -3.00405,0.33134 -7.24558,0.54789 -8.83884,-2.0203 -1.14093,-1.83909 -0.0243,-4.79237 1.51523,-6.31346 1.351,-1.33479 4.00189,-0.17086 5.55584,-1.26269 2.0444,-1.43643 3.81945,-6.78656 3.81945,-6.78656 -3.15816,2.85334 -23.04696,-21.74963 -26.30876,-18.53428 z"
       style="color:#000000;fill:url(#linearGradient11967);fill-opacity:1;stroke:#000000;stroke-width:2;stroke-linecap:butt;stroke-linejoin:miter;stroke-miterlimit:4;stroke-opacity:1;stroke-dasharray:none;stroke-dashoffset:0;marker:none;visibility:visible;display:inline;overflow:visible;enable-background:accumulate"
       sodipodi:nodetypes="scccscsssssssssssscs" />
    <path
       sodipodi:nodetypes="sssssssssssssssssssssssssssssssssssscscccsssssssssssssssssscs"
       inkscape:connector-curvature="0"
       id="path10517"
       d="m 374.46428,598.61218 c 0.86101,-1.19459 1.63495,-2.92527 1.07143,-4.28572 -0.26564,-0.64132 -1.24759,-0.63294 -1.78572,-1.07143 -1.56754,-1.27731 -3.42805,-2.55967 -4.10714,-4.46428 -0.34043,-0.95478 -0.23668,-2.11102 0.17857,-3.03572 0.68969,-1.53583 2.016,-2.92714 3.57143,-3.57142 1.15485,-0.47835 2.54536,-0.33367 3.75,0 1.00346,0.27794 2.00037,0.81706 2.67857,1.60714 0.92156,1.07358 0.43246,3.13994 1.60715,3.92857 1.03781,0.69674 2.79623,0.80797 3.75,0 1.93386,-1.63823 0.99051,-4.97883 1.25,-7.5 0.15247,-1.48146 0.86262,-3.14139 0.17857,-4.46429 -1.30432,-2.52246 -4.30315,-4.63175 -7.14286,-4.64285 -2.54284,-0.01 -3.93815,4.62088 -6.42857,4.10714 -2.18281,-0.45028 -2.63974,-3.60317 -3.75,-5.53571 -0.82227,-1.43126 -2.04986,-2.81627 -2.14286,-4.46429 -0.0817,-1.44719 1.2382,-2.6702 1.42857,-4.10714 0.21945,-1.65644 0.0526,-3.38011 -0.35714,-5 -0.4965,-1.96287 -0.79903,-4.43751 -2.5,-5.53572 -2.00027,-1.29145 -5.02795,-1.09366 -7.14286,0 -1.55503,0.80414 -2.62103,2.58489 -3.03571,4.28572 -0.51245,2.10186 -0.65769,4.91986 0.89286,6.42857 1.15894,1.12767 3.72087,-0.64902 4.82142,0.53571 1.09457,1.17829 1.26795,3.63833 0.17858,4.82143 -1.77589,1.92868 -5.26538,-0.0382 -7.85715,0.35714 -2.31217,0.3527 -4.56645,1.04722 -6.78571,1.78572 -2.25491,0.75036 -4.41596,3.59858 -6.60714,2.67857 -1.009,-0.42365 -0.69426,-2.093 -1.25,-3.03571 -0.77423,-1.31333 -3.05728,-2.06007 -2.85715,-3.57143 0.14535,-1.09763 1.90767,-1.16954 2.67857,-1.96429 0.80469,-0.82959 2.10372,-1.70984 1.96429,-2.85714 -0.17294,-1.42305 -1.93106,-2.21814 -3.21429,-2.85714 -1.90184,-0.94705 -4.13916,-1.00865 -6.25,-1.25 -1.95246,-0.22328 -4.32998,-1.36997 -5.89285,-0.17858 -1.6074,1.22534 -2.35031,4.09409 -1.42857,5.89286 0.93759,1.82971 4.56624,0.61588 5.71428,2.32143 1.32953,1.97517 -1.45881,9.56599 -1.45881,9.56599 -0.77628,2.4416 -17.60679,-6.66615 -17.86159,-4.11887 -0.2548,2.54727 0.5671,9.55995 0.4444,12.15615 -0.4931,10.38528 3.7803,27.20217 8.1762,38.25013 2.1772,5.47208 9.422,-7.60177 10.90523,-5.9122 0,0 5.22018,1.08268 6.22314,-0.11977 1.37309,-1.6462 1.30389,-4.88012 -0.17857,-6.42857 -1.15552,-1.20695 -3.97731,0.96423 -5,-0.35715 -1.40771,-1.81884 -0.17685,-4.98185 1.25,-6.78571 1.0086,-1.2751 2.87331,-1.62975 4.46429,-1.96429 1.5145,-0.31846 3.47107,-1.01097 4.64285,0 1.23013,1.06131 0.98901,3.22014 0.71429,4.82143 -0.19361,1.12848 -1.68642,1.8935 -1.60714,3.03572 0.0915,1.31847 1.00401,3.10872 2.32143,3.21428 2.51731,0.2017 3.99264,-3.23212 5.35714,-5.35714 1.47558,-2.29801 3.37349,-4.99686 2.85714,-7.67857 -0.65333,-3.39313 -7.01324,-4.22346 -6.96428,-7.67857 0.0292,-2.06262 2.29115,-3.93801 4.28571,-4.46429 3.42338,-0.90329 8.19671,0.10184 10.17857,3.03572 1.43891,2.13012 -0.69767,5.10805 -0.71428,7.67857 -0.01,1.49282 -1.00209,3.84695 0.35714,4.46428 2.09199,0.95014 3.2412,-3.98701 5.53571,-4.10714 1.51898,-0.0795 3.15592,1.01122 3.92857,2.32143 1.0587,1.79526 0.625,5.53571 0.625,5.53571 0,0 4.97792,-2.57548 6.33929,-4.46428 z"
       style="fill:url(#linearGradient12275);fill-opacity:1;stroke:#000000;stroke-width:2;stroke-linejoin:round;stroke-miterlimit:4;stroke-opacity:1;stroke-dasharray:none;stroke-dashoffset:0" />
    <path
       id="path10552"
       d="m 51.093498,748.8409 c 2.0111,2.86881 5.849,5.70152 10.1834,8.25119 6.1708,3.62988 13.348,6.68603 17.6931,8.45582 3.6985,1.50645 7.947699,-3.20296 11.690169,-2.31622 0,0 1.64838,-4.25024 0.41126,-5.86951 -1.46163,-1.91314 -5.502919,0.69126 -7.142859,-1.07143 -1.05728,-1.13642 -0.61065,-3.1115 -0.35714,-4.64285 0.29615,-1.78893 0.5956,-4.0545 2.14286,-5 2.952899,-1.80444 7.969879,3.2196 10.357139,0.71428 1.40574,-1.47526 -0.2196,-9.04167 -1.07143,-10.89286 -1.76084,-3.82664 -8.473429,-0.25993 -8.214279,-4.46428 0.12472,-2.02347 7.541389,-5.57403 9.017854,-6.51786 0,0 0.612265,-4.36545 -0.446435,-6.16071 -0.77265,-1.31021 -2.40959,-2.40093 -3.92857,-2.32143 -2.29451,0.12013 -3.44372,5.05728 -5.535709,4.10714 -1.35923,-0.61733 -0.36714,-2.97146 -0.35714,-4.46428 0.01661,-2.57052 2.153189,-5.54845 0.71428,-7.67857 -1.98186,-2.93388 -6.75519,-3.93901 -10.17857,-3.03572 -1.99456,0.52628 -4.25651,2.40167 -4.28571,4.46429 -0.04896,3.45511 6.31095,4.28544 6.96428,7.67857 0.51635,2.68171 -1.38156,5.38056 -2.85714,7.67857 -1.3645,2.12502 -2.83983,5.55884 -5.35714,5.35714 -1.31742,-0.10556 -2.22993,-1.89581 -2.32143,-3.21428 -0.07928,-1.14222 1.41353,-1.90724 1.60714,-3.03572 0.27472,-1.60129 0.51584,-3.76012 -0.71429,-4.82143 -1.17178,-1.01097 -3.12835,-0.31846 -4.64285,0 -1.59098,0.33454 -3.45569,0.68919 -4.46429,1.96429 -1.42685,1.80386 -2.65771,4.96687 -1.25,6.78571 1.02269,1.32138 3.84448,-0.8498 5,0.35715 1.48246,1.54845 1.55166,4.78237 0.17857,6.42857 -1.00296,1.20245 -5.15171,0.29834 -5.15171,0.29834 2.72274,1.87807 -9.74346,10.02731 -7.68336,12.96609 z"
       style="color:#000000;fill:url(#linearGradient12329);fill-opacity:1;stroke:#000000;stroke-width:2;stroke-linecap:butt;stroke-linejoin:miter;stroke-miterlimit:4;stroke-opacity:1;stroke-dasharray:none;stroke-dashoffset:0;marker:none;visibility:visible;display:inline;overflow:visible;enable-background:accumulate"
       inkscape:connector-curvature="0"
       sodipodi:nodetypes="ssscssssssscsssssssssssssssssscs" />
    <path
       inkscape:connector-curvature="0"
       id="path10761"
       d="m 183.14219,707.90632 c 1.12029,-0.98489 2.92036,-1.84622 4.29315,-1.26269 2.00977,0.85429 2.85687,3.63148 3.03045,5.80837 0.0635,0.79607 -0.74861,1.47431 -0.75761,2.27285 -0.0266,2.28977 0.25636,5.10576 2.0203,6.56599 1.17437,0.97217 3.02457,0.60738 4.54569,0.50507 1.73149,-0.11646 4.97233,-0.66878 6.06091,-2.0203 1.74333,-2.16442 1.37696,-5.79639 -0.75761,-7.57614 -0.92571,-0.77183 -2.35992,1.02334 -3.53553,0.75761 -2.69334,-0.6088 -5.2243,-2.63734 -6.56599,-5.05076 -1.23319,-2.21824 -1.46951,-5.14006 -0.75762,-7.57615 0.57158,-1.95596 2.08346,-3.68162 3.78807,-4.79822 1.38347,-0.90624 3.3032,-1.96991 4.79823,-1.26269 2.00896,0.95034 2.81562,3.83883 2.77792,6.06091 -0.0255,1.50563 -2.35573,2.57259 -2.02031,4.04061 0.52132,2.28163 3.33205,3.5635 5.55584,4.29315 3.36028,1.10254 7.56916,1.55882 10.6066,-0.25254 1.74869,-1.04282 2.50788,-3.33548 3.03046,-5.3033 0.51855,-1.95262 0.98825,-4.29881 0,-6.06091 -0.86863,-1.54882 -2.77219,-2.68822 -4.54569,-2.77792 -2.33139,-0.11787 -4.11803,3.82379 -6.31345,3.03046 -2.09012,-0.75528 -2.96805,-3.84667 -2.77792,-6.06092 0.30563,-3.55932 6.37215,-8.71286 6.37215,-8.71286 -2.75946,1.43702 -12.62646,-21.97511 -18.96886,-18.67946 -4.0413,2.09996 -28.4093,18.57919 -34.7176,24.6616 -4.3092,4.15487 22.4932,23.45494 21.5868,25.36485 0,0 1.52485,-4.44854 3.25162,-5.96661 z"
       style="fill:url(#linearGradient11978);fill-opacity:1;stroke:#000000;stroke-width:2;stroke-linejoin:round;stroke-miterlimit:4;stroke-opacity:1;stroke-dasharray:none;stroke-dashoffset:0"
       sodipodi:nodetypes="ssscsscsssssscssssscsscsscs" />
    <path
       sodipodi:nodetypes="ssssssssssscsscs"
       inkscape:connector-curvature="0"
       id="path10770"
       d="m 258.13115,895.4694 c -2.7978,1.39177 -6.49245,1.7684 -8.33376,4.29314 -1.81032,2.48224 -3.45183,6.70635 -1.51523,9.09138 2.5492,3.13949 9.36316,-2.45206 12.12183,0.50507 2.06801,2.21678 1.43055,6.56987 -0.25254,9.09138 -1.48524,2.2251 -4.73701,2.59993 -7.3236,3.28299 -3.43382,0.9068 -7.90784,3.31884 -10.60661,1.01015 -2.11478,-1.80911 -0.19777,-5.56775 -0.50507,-8.33375 -0.34842,-3.13603 1.34944,-8.02114 -1.51523,-9.34391 -2.94906,-1.36174 -5.2584,4.00506 -8.33376,5.05076 -2.16509,0.73618 -4.67164,1.54531 -6.81853,0.75761 -1.95664,-0.7179 -4.23445,-4.41971 -4.23445,-4.41971 1.8907,-2.55937 -14.5329,-20.72361 -10.4761,-23.34346 8.8039,-5.68548 21.0125,-10.24076 32.19978,-11.7515 7.47561,-1.00951 8.12529,3.15145 21.53417,21.49284 0,0 -3.85085,1.57731 -5.9409,2.61701 z"
       style="fill:url(#linearGradient11988);fill-opacity:1;stroke:#000000;stroke-width:2;stroke-linejoin:round;stroke-miterlimit:4;stroke-opacity:1;stroke-dasharray:none;stroke-dashoffset:0" />
    <path
       id="path10778"
       d="m 367.63922,878.87687 c 1.24549,-2.29779 4.1869,-4.20642 6.78572,-3.92857 1.75974,0.18814 2.15888,3.58826 3.92857,3.57143 2.94735,-0.028 6.20343,-3.13256 6.42857,-6.07143 0.20736,-2.70677 -2.64017,-5.08663 -5,-6.42857 -1.66866,-0.94889 -3.9529,-1.47738 -5.71429,-0.71429 -1.48578,0.64369 -1.23803,3.94739 -2.85714,3.92857 -1.88218,-0.0219 -2.30851,-2.99281 -3.21429,-4.64285 -1.181,-2.15139 -3.54715,-4.43048 -2.85714,-6.78572 0.64988,-2.21825 4.57855,-1.91534 5.71429,-3.92857 0.99611,-1.76572 1.63438,-4.49706 0.35714,-6.07143 -1.51682,-1.86969 -7.05671,-1.61449 -9.46429,-1.60714 -3.85573,0.0118 -5.79026,0.35545 -9.10714,2.32143 -1.67965,0.99556 -1.21077,3.25209 -0.89286,5.17856 0.27955,1.69402 3.88719,2.38689 4.64286,3.92858 0.73542,1.50037 -1.81284,1.7185 -3.03572,2.85715 -1.21977,1.13575 -3.70574,0.76081 -5.35714,0.53571 -2.20362,-0.30037 -4.30322,-1.13061 -6.42857,-1.78572 -3.7967,-1.17028 -2.92997,-1.41312 -3.75,-3.39286 -0.38657,-0.93326 2.82405,-1.39694 2.50001,-5.17857 -0.15876,-1.8528 -1.59315,-4.17478 -3.39286,-4.64285 -3.20951,-0.83473 -2.86091,-0.43997 -5.71429,1.25 -1.74432,1.03311 -9.16099,4.58367 -9.28571,6.60714 -0.25915,4.20435 6.45344,0.63764 8.21428,4.46428 0.85183,1.85119 2.47717,9.4176 1.07143,10.89286 -2.38726,2.50532 -7.40424,-2.51872 -10.35714,-0.71428 -1.54726,0.9455 -1.84671,3.21107 -2.14286,5 -0.25351,1.53135 -0.70014,3.50643 0.35714,4.64285 1.63994,1.76269 5.68123,-0.84171 7.14286,1.07143 1.23712,1.61927 -0.65583,5.89399 -0.65583,5.89399 4.10396,0.50742 -11.42232,2.76017 -2.84626,5.60902 7.77876,2.5813 23.31714,-2.64911 31.85176,-3.64531 9.7667,-1.14002 8.08593,-0.97423 13.31964,-1.65365 0,0 -1.32011,-4.56987 -0.24074,-6.56119 z"
       style="fill:url(#linearGradient12342);fill-opacity:1;stroke:#000000;stroke-width:2;stroke-linejoin:round;stroke-miterlimit:4;stroke-opacity:1;stroke-dasharray:none;stroke-dashoffset:0"
       inkscape:connector-curvature="0"
       sodipodi:nodetypes="sscssscsssscssssssssscsssssssccscs" />
    <path
       id="path10800"
       d="m 187.3833,930.89133 c 2.35928,-1.48809 1.56693,-5.66437 0.75761,-8.33375 -0.81629,-2.69238 -6.27733,-3.92658 -5.3033,-6.566 1.74912,-4.73972 10.13847,-4.46746 14.89975,-2.77792 2.08239,0.73894 4.26226,4.83979 4.65029,7.01506 0.47235,2.64799 -0.92988,4.07167 -3.13506,5.61185 -1.0352,0.72302 -2.94324,-0.93843 -3.78807,0 -1.07603,1.19524 0.42078,3.19219 0.50507,4.79823 0.10589,2.01753 -0.82559,4.21699 0,6.06091 1.29125,2.88395 6.38605,3.22878 7.07107,6.31345 0.27796,1.25169 -1.84294,2.29594 -1.51523,3.53554 0.78316,2.9624 4.33534,6.23366 7.32361,5.55584 3.04745,-0.69124 3.80989,-5.2465 4.29315,-8.33376 0.23756,-1.51765 -1.60447,-3.26407 -0.75762,-4.54569 1.57579,-2.38479 5.67138,-3.06054 8.33376,-2.0203 1.4135,0.55228 2.01553,2.35871 2.52538,3.78807 1.16503,3.26618 1.1567,4.56504 1.18872,8.03263 0.0296,3.20863 1.82112,10.27669 -0.93618,11.91788 -1.42484,0.84809 -3.07441,-1.2556 -4.54569,-2.0203 -1.30659,-0.6791 -2.31624,-2.31839 -3.78807,-2.27285 -1.63369,0.0505 -2.48699,2.27022 -4.04061,2.77792 -2.7217,0.88941 -6.51423,-1.72362 -8.58629,0.25254 -0.79426,0.7575 -0.28315,2.18586 -0.25254,3.283 0.0711,2.54674 0.84142,5.034 1.01015,7.57614 0.0948,1.42791 -0.0614,4.34837 -0.0614,4.34837 -8.26285,-3.03954 -33.21877,-8.3869 -41.43937,-9.04402 0,0 -1.32011,-4.56987 -0.24074,-6.56119 1.24549,-2.29779 4.18691,-4.20642 6.78572,-3.92857 1.75974,0.18814 2.15889,3.58826 3.92858,3.57143 2.94735,-0.028 6.20343,-3.13256 6.42857,-6.07143 0.20736,-2.70677 -2.64018,-5.08663 -5,-6.42857 -1.66866,-0.94889 -3.9529,-1.47738 -5.71429,-0.71429 -1.48578,0.64369 -1.23804,3.94739 -2.85714,3.92857 -1.88218,-0.0219 -2.30851,-2.99281 -3.21429,-4.64285 -1.181,-2.15139 -3.54715,-4.43048 -2.85714,-6.78572 0.64988,-2.21825 4.57855,-1.91534 5.71429,-3.92857 0.99611,-1.76572 1.63438,-4.49706 0.35714,-6.07143 -1.51682,-1.86969 -7.05671,-1.61449 -8.99619,-1.68109 0,0 -2.72824,-5.86717 -1.31762,-8.28825 1.41221,-2.4238 5.2524,-2.84979 8.03572,-2.5 1.803,0.22659 3.6462,1.33765 4.64285,2.85714 0.92338,1.40778 -0.43557,3.77025 0.71429,5 1.37142,1.46671 4.31276,2.48908 5.71848,1.74561 0,0 9.36266,8.13241 13.46268,5.54637 z"
       style="fill:url(#linearGradient12370);stroke:#000000;stroke-width:2;stroke-linejoin:round;stroke-miterlimit:4;stroke-opacity:1;stroke-dasharray:none;stroke-dashoffset:0;fill-opacity:1.0"
       inkscape:connector-curvature="0"
       sodipodi:nodetypes="sssscssssssssssscsscssccccsscssscsssscsssscs" />
    <path
       id="path10816"
       d="m 84.297148,813.06505 c -0.80475,0.78341 -0.93901,2.1193 -1.78572,2.85715 -1.42616,1.24281 -3.44654,3.08209 -5.17857,2.32143 -1.2064,-0.52982 -1.07149,-2.44453 -1.25,-3.75 -0.32297,-2.36195 2.21493,-5.64896 0.35714,-7.14286 -2.11556,-1.70118 -5.87708,0.28572 -7.85714,2.14286 -1.60638,1.50666 -3.42297,4.45785 -2.14286,6.25 0.76114,1.0656 2.7633,-0.59749 3.92857,0 2.08732,1.07028 4.63467,3.42864 4.10715,5.71428 -0.39529,1.71269 -4.79181,2.46673 -4.79181,2.46673 -1.45327,-2.55573 -3.2021,-3.23645 -6.04181,-3.24755 -2.54284,-0.01 -3.93815,4.62088 -6.42857,4.10714 -2.18281,-0.45028 -2.63974,-3.60317 -3.75,-5.53571 -0.82227,-1.43126 -2.04986,-2.81627 -2.14286,-4.46429 -0.0817,-1.44719 1.2382,-2.6702 1.42857,-4.10714 0.21945,-1.65644 0.05261,-3.38011 -0.35714,-5 -0.4965,-1.96287 -2.76332,-4.25894 -4.46429,-5.80358 0,0 2.30214,-12.04714 2.32143,-13.12499 0.0427,-2.38726 -0.17015,-4.78337 -0.53571,-7.14286 -0.35589,-2.29708 -2.8568,-4.82573 -1.60714,-6.78572 1.11083,-1.74226 1.50685,-1.34506 3.57142,-1.42857 3.41556,-0.13815 10.41354,-1.13165 12.67858,1.42857 1.18324,1.33744 0.79254,3.75694 0,5.35715 -0.69746,1.40822 -2.91342,1.52686 -3.75,2.85714 -1.09999,1.74913 -1.6154,4.03774 -1.25,6.07143 0.59583,3.31618 2.89894,6.26724 5.35714,8.57143 1.92363,1.8031 4.32825,3.80333 6.96428,3.75 3.38851,-0.0686 6.54478,-2.60492 8.75,-5.17857 0.83427,-0.97365 1.90039,-2.37921 1.42858,-3.57143 -0.36257,-0.91616 -2.00514,-0.53077 -2.67858,-1.25 -1.57147,-1.67832 -3.81472,-4.54236 -2.5,-6.42857 1.94041,-2.78386 4.28015,-2.71491 7.14287,-0.89286 2.51528,1.60092 5.94234,6.30621 6.96428,9.10714 0.67296,1.84445 1.55415,3.75493 1.42857,5.71429 -0.094,1.46712 -0.25104,3.53944 -1.60714,4.10714 -1.67263,0.7002 -3.18711,-2.18022 -5,-2.14286 -1.51725,0.0313 -3.15541,0.78226 -4.10715,1.96429 -0.65195,0.80969 -0.93288,2.01942 -0.71428,3.03571 0.88377,4.10868 1.90325,5.38636 6.041805,7.44398 0,0 -1.688395,0.91079 -2.529615,1.7297 z"
       style="fill:url(#linearGradient12288);stroke:#000000;stroke-width:2;stroke-linejoin:round;stroke-miterlimit:4;stroke-opacity:1;stroke-dasharray:none;stroke-dashoffset:0;fill-opacity:1.0"
       inkscape:connector-curvature="0"
       sodipodi:nodetypes="sssssssssccsscssccsscssssscsssscscscsscs" />
    <path
       id="path10833"
       d="m 417.68887,648.17146 c 1.18324,1.33744 0.79254,3.75694 0,5.35715 -0.69746,1.40822 -2.91342,1.52686 -3.75,2.85714 -1.09999,1.74913 -1.6154,4.03774 -1.25,6.07143 0.59583,3.31618 2.89894,6.26724 5.35714,8.57143 1.92363,1.8031 4.32825,3.80333 6.96428,3.75 3.38851,-0.0686 6.54478,-2.60492 8.75,-5.17857 0.83427,-0.97365 1.90039,-2.37921 1.42858,-3.57143 -0.36257,-0.91616 -2.00514,-0.53077 -2.67858,-1.25 -1.57147,-1.67832 -3.81472,-4.54236 -2.5,-6.42857 1.94041,-2.78386 4.28015,-2.71491 7.15386,-0.61997 0,0 2.52709,-4.63241 3.04145,-7.30325 0.41389,-2.14917 -1.43402,-4.91256 0,-6.56599 0.78,-0.89935 2.34806,-0.42067 3.53554,-0.50507 1.67935,-0.11935 3.69092,-0.99262 5.05076,0 1.78471,1.30275 0.23559,5.0107 2.0203,6.31345 1.29185,0.94299 3.66728,1.13095 4.79823,0 3.21429,-3.21429 2.01065,-3.56585 1.78571,-8.27992 -0.36464,-7.6421 -5.32945,-8.79847 -7.59409,-8.89267 -4.51364,-0.18774 -8.27898,8.43592 -12.12183,6.06091 -3.0075,-1.85874 1.92656,-7.64208 0,-10.6066 -1.35532,-2.08551 -7.00979,-3.29197 -7.00979,-3.29197 -2.25617,0.68821 -7.47433,3.05686 -9.15265,1.5242 -1.37316,-1.25399 -0.14152,-3.73214 -0.50508,-5.55584 -0.27588,-1.38387 -0.21845,-3.09152 -1.26269,-4.04061 -1.20953,-1.09933 -3.16551,-0.93449 -4.79822,-1.01015 -2.20082,-0.10199 -4.87183,-0.65088 -6.56599,0.75762 -1.76086,1.46395 -2.10697,6.43338 -2.10697,6.43338 1.85106,0.49239 1.19274,0.494 2.00236,2.36213 0.7226,1.66733 0.52046,3.46266 -0.90555,4.58901 -1.5854,1.25225 -4.32645,-1.03598 -6.06091,0 -1.06704,0.63734 -0.80247,2.50007 -1.76777,3.28299 -1.15851,0.93963 -3.92458,-0.18272 -4.29315,1.26269 -0.76479,2.99927 4.68213,4.11007 6.566,6.56599 1.53789,2.00488 3.48928,6.23926 3.48928,6.23926 3.11676,-0.46489 10.11474,-1.45839 12.37978,1.10183 z"
       style="fill:url(#linearGradient12264);fill-opacity:1;stroke:#000000;stroke-width:2;stroke-linejoin:round;stroke-miterlimit:4;stroke-opacity:1;stroke-dasharray:none;stroke-dashoffset:0"
       inkscape:connector-curvature="0"
       sodipodi:nodetypes="ssssscsssscsssssscssscssssscsssssscs" />
    <path
       id="path10850"
       d="m 124.94416,833.72462 c 1.80767,-0.96666 0.86903,-4.57257 2.67857,-5.53571 2.22927,-1.18655 3.01415,-2.82286 4.64286,-0.89287 2.84183,3.36751 4.2823,11.14875 2.5,15.17858 -0.83438,1.88655 -2.40954,4.1034 -4.46429,4.28571 -2.13776,0.18968 -3.83958,-2.05386 -5.35714,-3.57142 -1.21405,-1.21405 -1.20029,-3.83551 -2.85714,-4.28572 -2.23504,-0.60732 -4.74068,1.27896 -6.25,3.03572 -1.17783,1.37093 -1.89098,3.39359 -1.60715,5.17857 0.27491,1.72893 1.98251,2.88731 3.03572,4.28571 1.14649,1.52224 1.83552,3.67798 3.57143,4.46429 1.19409,0.54088 2.76437,0.42396 3.92857,-0.17857 1.20547,-0.62389 1.14462,-3.28738 2.5,-3.21429 2.37527,0.12809 3.13669,3.77314 3.75,6.07143 0.96736,3.62504 2.59524,8.93481 -0.35714,11.25 -1.5801,1.23908 -4.52144,0.21671 -5.89286,-1.25 -1.14986,-1.22975 0.20909,-3.59222 -0.71429,-5 -0.99665,-1.51949 -2.83985,-2.63055 -4.64285,-2.85714 -2.78332,-0.34979 -6.62351,0.0762 -8.03572,2.5 -1.41062,2.42108 1.69642,8.0357 1.69642,8.0357 -3.94503,-0.16678 -5.87956,0.17687 -9.19644,2.14285 -1.67965,0.99556 -1.21077,3.25209 -0.89286,5.17856 0.27955,1.69402 3.88719,2.38689 4.64286,3.92858 0.73542,1.50037 -1.81284,1.7185 -3.03572,2.85715 -1.21977,1.13575 -3.70574,0.76081 -5.357145,0.53571 -2.20362,-0.30037 -4.30322,-1.13061 -6.42857,-1.78572 -3.7967,-1.17028 -2.92997,-1.41312 -3.75,-3.39286 -0.38657,-0.93326 2.82405,-1.39694 2.50001,-5.17857 -0.15876,-1.8528 -1.59315,-4.17478 -3.39286,-4.64285 -3.20951,-0.83473 -2.86091,-0.43997 -5.53572,0.625 0,0 4.71006,-2.4862 6.07143,-4.375 0.86101,-1.19459 1.63495,-2.92527 1.07143,-4.28572 -0.26564,-0.64132 -1.24759,-0.63294 -1.78572,-1.07143 -1.56754,-1.27731 -3.42805,-2.55967 -4.10714,-4.46428 -0.34043,-0.95478 -0.23668,-2.11102 0.17857,-3.03572 0.68969,-1.53583 2.016,-2.92714 3.57143,-3.57142 1.15485,-0.47835 2.54536,-0.33367 3.75,0 1.00346,0.27794 2.00037,0.81706 2.67857,1.60714 0.92156,1.07358 0.43246,3.13994 1.60715,3.92857 1.03781,0.69674 2.79623,0.80797 3.75,0 1.933865,-1.63823 0.990515,-4.97883 1.250005,-7.5 0.15247,-1.48146 -0.38738,-4.65925 -0.922485,-5.90423 0,0 4.396525,-0.7094 4.791815,-2.42209 0.52752,-2.28564 -2.01983,-4.644 -4.10715,-5.71428 -1.165275,-0.59749 -3.167435,1.0656 -3.928575,0 -1.28011,-1.79215 0.53648,-4.74334 2.14286,-6.25 1.980065,-1.85714 5.741585,-3.84404 7.857145,-2.14286 1.85779,1.4939 -0.68011,4.78091 -0.35714,7.14286 0.17851,1.30547 0.0436,3.22018 1.25,3.75 1.73203,0.76066 3.75241,-1.07862 5.17857,-2.32143 0.84671,-0.73785 0.98097,-2.07374 1.78572,-2.85715 0.84122,-0.81891 1.99391,-1.86362 1.99391,-1.86362 0.82811,1.01015 6.69328,4.60302 8.60106,3.58282 z"
       style="fill:url(#linearGradient12356);stroke:#000000;stroke-width:2;stroke-linejoin:round;stroke-miterlimit:4;stroke-opacity:1;stroke-dasharray:none;stroke-dashoffset:0;fill-opacity:1.0"
       inkscape:connector-curvature="0"
       sodipodi:nodetypes="sscssssssssssscsssscssssssssscssssssssssscssssssssscs" />
    <path
       id="path10872"
       d="m 193.19167,889.22255 c 1.75894,1.20053 3.98957,1.52565 6.06092,2.0203 2.23481,0.53368 5.46321,2.8655 6.81853,1.01016 2.93134,-4.0128 -3.60128,-9.39632 -6.56599,-13.38452 -0.95946,-1.29069 -2.7629,-1.87251 -3.53554,-3.283 -1.35645,-2.47628 -3.59297,-6.42197 -1.51523,-8.33376 1.66795,-1.53474 4.36611,1.22187 6.56599,1.76777 3.68654,0.91481 8.11753,4.86258 11.11168,2.52538 3.05313,-2.38324 1.76731,-6.61937 0.78825,-10.36675 -0.96345,-3.6876 -3.03456,-9.20858 -6.34409,-11.09899 -1.90048,-1.08556 -5.01837,-1.54762 -6.56599,0 -1.42857,1.42857 1.42857,4.63234 0,6.06091 -2.38095,2.38095 -7.21419,1.7324 -10.10152,0 -2.45423,-1.47254 -4.15157,-7.77003 -4.15157,-7.77003 -2.27239,2.96335 -5.76387,8.91115 -9.48549,8.02257 -4.10698,-0.98059 -1.89886,-8.80707 -5.05077,-11.61675 -1.51071,-1.34668 -3.97324,-2.62105 -5.80837,-1.76777 -2.3253,1.08119 -2.93639,6.41239 -2.93639,6.41239 2.9359,2.70883 4.37637,10.49007 2.59407,14.5199 -0.83438,1.88655 -2.40954,4.1034 -4.46429,4.28571 -2.13776,0.18968 -3.83958,-2.05386 -5.35714,-3.57142 -1.21405,-1.21405 -1.20029,-3.83551 -2.85714,-4.28572 -2.23504,-0.60732 -4.74068,1.27896 -6.25,3.03572 -1.17783,1.37093 -1.89098,3.39359 -1.60715,5.17857 0.27491,1.72893 1.98251,2.88731 3.03572,4.28571 1.14649,1.52224 1.83552,3.67798 3.57143,4.46429 1.19409,0.54088 2.76437,0.42396 3.92857,-0.17857 1.20547,-0.62389 1.14462,-3.28738 2.5,-3.21429 2.37527,0.12809 3.13669,3.77314 3.75,6.07143 0.96736,3.62504 2.59524,8.93481 -0.15271,11.49307 0,0 9.74146,7.87987 13.84148,5.29383 2.35928,-1.48809 1.56693,-5.66437 0.75761,-8.33375 -0.81629,-2.69238 -6.27733,-3.92658 -5.3033,-6.566 1.74912,-4.73972 10.13847,-4.46746 14.89975,-2.77792 2.08239,0.73894 4.26226,4.83979 4.34545,6.28545 0,0 1.85413,2.70417 3.48323,3.81608 z"
       style="fill:url(#linearGradient12383);stroke:#000000;stroke-width:2;stroke-linejoin:round;stroke-miterlimit:4;stroke-opacity:1;stroke-dasharray:none;stroke-dashoffset:0;fill-opacity:1.0"
       inkscape:connector-curvature="0"
       sodipodi:nodetypes="sssssssscsssscssscssssssssssscsssscs" />
    <path
       id="path10889"
       d="m 425.20199,952.05356 c 1.83513,-0.85328 4.29766,0.42109 5.80837,1.76777 3.15191,2.80968 0.94379,10.63616 5.05077,11.61675 3.72162,0.88858 7.2131,-5.05922 9.37454,-8.21646 0.90222,-1.31794 0.70119,-2.08008 0.97952,-3.65283 0.51364,-2.90238 2.35422,-6.7723 0.25254,-8.83884 -1.32188,-1.29978 -3.70581,0.13345 -5.55584,0.25254 -3.03468,0.19535 -6.87053,2.83495 -9.09137,0.75762 -3.7506,-3.50824 -2.04879,-10.81368 0.25254,-15.40483 1.04877,-2.09229 3.26088,-3.83404 5.55583,-4.29315 2.22256,-0.44463 5.52031,-0.2432 6.566,1.76777 0.90913,1.74834 -2.44711,3.63202 -2.02031,5.55584 0.54146,2.44066 2.8134,5.52781 5.3033,5.3033 2.65123,-0.23906 3.07036,-4.35024 4.54569,-6.56599 1.38477,-2.07974 3.68513,-5.09029 4.04061,-7.56346 0.29941,-2.08307 -0.62685,-3.04254 -1.76777,-4.81091 -0.8415,-1.30429 -3.37337,-1.48676 -3.53553,-3.03046 -0.18821,-1.79166 2.29897,-2.78412 3.28299,-4.29315 1.04952,-1.60947 2.2999,-3.18974 2.77792,-5.05076 0.41884,-1.63065 1.13355,-3.80596 0,-5.05076 -1.82164,-2.00041 -5.37568,-0.75062 -8.08122,-0.75762 -2.87321,-0.008 -7.75694,0.92442 -9.65772,3.07905 -1.50463,1.70557 0.85259,2.27208 1.32396,4.4971 0.46975,2.21739 3.80811,4.44474 2.52539,6.31345 -3.71616,5.41382 -19.3102,-0.0993 -19.3102,-0.0993 0.61272,4.86726 1.81636,5.21882 -1.39793,8.43311 -1.13095,1.13095 -3.50638,0.94299 -4.79823,0 -1.78471,-1.30275 -0.23559,-5.0107 -2.0203,-6.31345 -1.35984,-0.99262 -3.37141,-0.11935 -5.05076,0 -1.18748,0.0844 -2.75554,-0.39428 -3.53554,0.50507 -1.43402,1.65343 0.41389,4.41682 0,6.56599 -0.51436,2.67084 -3.04145,7.30325 -3.04145,7.30325 2.50429,1.32803 5.93135,6.03332 6.95329,8.83425 0.67296,1.84445 1.55415,3.75493 1.42857,5.71429 -0.094,1.46712 -0.25104,3.53944 -1.60714,4.10714 -1.67263,0.7002 -3.18711,-2.18022 -5,-2.14286 -1.51725,0.0313 -3.15541,0.78226 -4.10715,1.96429 -0.65195,0.80969 -0.93288,2.01942 -0.71428,3.03571 0.88377,4.10868 1.90325,5.38636 5,7.36608 1.33421,0.95413 7.19938,4.547 9.10716,3.5268 1.80767,-0.96666 0.86903,-4.57257 2.67857,-5.53571 2.22927,-1.18655 3.01415,-2.82286 4.54879,-0.23419 0,0 0.61109,-5.3312 2.93639,-6.41239 z"
       style="fill:url(#linearGradient12303);fill-opacity:1;stroke:#000000;stroke-width:2;stroke-linejoin:round;stroke-miterlimit:4;stroke-opacity:1;stroke-dasharray:none;stroke-dashoffset:0"
       inkscape:connector-curvature="0"
       sodipodi:nodetypes="ssscsssssssssscsssssccsscsssssscscscsscsscs" />
    <path
       id="path10912"
       d="m 153.79573,715.4763 c -0.1314,-1.35097 1.17582,-2.47287 2.0203,-3.53553 1.92714,-2.42503 5.71668,-3.41852 6.81853,-6.31345 0.93261,-2.45027 0.2695,-5.41651 -0.75761,-7.82869 -0.91214,-2.14218 -2.22426,-5.12473 -4.54569,-5.3033 -2.32143,-0.17857 -4.61979,2.31999 -5.3033,4.54569 -0.56353,1.835 1.95626,3.68761 1.51523,5.55584 -0.49309,2.08875 -2.14952,4.90243 -4.29315,4.79822 -3.12796,-0.15206 -3.38113,-5.32273 -5.55584,-7.57614 -1.41509,-1.46629 -4.79822,-3.6618 -4.79822,-3.6618 -1.08859,1.47779 -4.32943,2.03011 -6.06092,2.14657 -1.52112,0.10231 -3.37132,0.4671 -4.54569,-0.50507 -1.76394,-1.46023 -2.04692,-4.27622 -2.0203,-6.56599 0.009,-0.79854 0.82109,-1.47678 0.75761,-2.27285 -0.17358,-2.17689 -1.02068,-4.95408 -3.03045,-5.80837 -1.37279,-0.58353 -3.17286,0.2778 -4.29315,1.26269 -1.72677,1.51807 -2.77792,6.18718 -2.77792,6.18718 0,0 -1.99621,4.75075 -4.04061,6.18718 -1.55395,1.09183 -4.20484,-0.0721 -5.55584,1.26269 -1.53956,1.52109 -2.65616,4.47437 -1.51523,6.31346 1.59326,2.56819 5.83479,2.35164 8.83884,2.0203 1.94616,-0.21466 3.56715,-3.43059 5.3033,-2.52538 3.17824,1.65711 2.72982,7.15382 1.76777,10.6066 -0.62493,2.24285 -0.28755,2.5447 -2.21157,3.7791 0,0 5.65447,1.20646 7.00979,3.29197 1.92656,2.96452 -3.0075,8.74786 0,10.6066 3.84285,2.37501 7.60819,-6.24865 12.12183,-6.06091 2.26464,0.0942 7.22945,1.25057 7.20631,8.73948 0,0 15.59404,5.51317 19.3102,0.0993 1.28272,-1.86871 -2.05564,-4.09606 -2.52539,-6.31345 -0.47137,-2.22502 -2.82859,-2.79153 -1.04079,-4.14258 0,0 -7.3994,-4.89084 -7.79804,-8.98941 z"
       style="fill:url(#linearGradient12251);stroke:#000000;stroke-width:2;stroke-linejoin:round;stroke-miterlimit:4;stroke-opacity:1;stroke-dasharray:none;stroke-dashoffset:0;fill-opacity:1.0"
       inkscape:connector-curvature="0"
       sodipodi:nodetypes="ssssssssscsscssscsssssscssscsscs" />
    <path
       sodipodi:nodetypes="ssssssssssscsscssssscsssssscsssssscssssssssscccs"
       inkscape:connector-curvature="0"
       id="path10941"
       d="m 156.22829,604.52542 c -2.7978,1.39177 -6.49245,1.7684 -8.33376,4.29314 -1.81032,2.48224 -3.45183,6.70635 -1.51523,9.09138 2.5492,3.13949 9.36316,-2.45206 12.12183,0.50507 2.06801,2.21678 1.43055,6.56987 -0.25254,9.09138 -1.48524,2.2251 -4.73701,2.59993 -7.3236,3.28299 -3.43382,0.9068 -7.90784,3.31884 -10.60661,1.01015 -2.11478,-1.80911 -0.19777,-5.56775 -0.50507,-8.33375 -0.34842,-3.13603 1.34944,-8.02114 -1.51523,-9.34391 -2.94906,-1.36174 -5.25839,4.00506 -8.33375,5.05076 -2.16509,0.73618 -4.67164,1.54531 -6.81853,0.75761 -1.95664,-0.7179 -4.54569,-4.54568 -4.54569,-4.54568 0,0 -6.00782,5.27951 -6.31345,8.83883 -0.19013,2.21425 0.6878,5.30564 2.77792,6.06092 2.19542,0.79333 3.98206,-3.14833 6.31345,-3.03046 1.7735,0.0897 3.67706,1.2291 4.54569,2.77792 0.98825,1.7621 0.51855,4.10829 0,6.06091 -0.52258,1.96782 -1.28177,4.26048 -3.03046,5.3033 -3.03744,1.81136 -7.24632,1.35508 -10.6066,0.25254 -2.22379,-0.72965 -5.03452,-2.01152 -5.55584,-4.29315 -0.33542,-1.46802 1.9948,-2.53498 2.02031,-4.04061 0.0377,-2.22208 -0.76896,-5.11057 -2.77792,-6.06091 -1.49503,-0.70722 -3.41476,0.35645 -4.79823,1.26269 -1.704615,1.1166 -3.216495,2.84226 -3.788075,4.79822 -0.71189,2.43609 -0.47557,5.35791 0.75762,7.57615 1.34169,2.41342 3.872655,4.44196 6.565995,5.05076 1.17561,0.26573 2.60982,-1.52944 3.53553,-0.75761 2.13457,1.77975 2.50094,5.41172 0.50507,7.70241 0,0 3.1306,2.44805 4.54569,3.91434 2.17471,2.25341 2.42788,7.42408 5.55584,7.57614 2.14363,0.10421 3.80006,-2.70947 4.29315,-4.79822 0.44103,-1.86823 -2.07876,-3.72084 -1.51523,-5.55584 0.68351,-2.2257 2.98187,-4.72426 5.3033,-4.54569 2.32143,0.17857 3.63355,3.16112 4.54569,5.3033 1.02711,2.41218 1.69022,5.37842 0.75761,7.82869 0,0 7.19261,4.13028 10.10152,2.27284 2.68578,-1.71496 2.31829,-6.17127 2.0203,-9.34391 -0.22223,-2.36607 -3.52416,-4.30971 -2.77791,-6.56599 1.04269,-3.15259 5.32053,-4.45003 8.58629,-5.05076 4.9543,-0.91133 13.4492,-2.29867 14.89975,2.52538 1.02898,3.42205 -5.29808,4.80064 -7.82868,7.3236 -1.3917,1.38749 -3.31615,2.46637 -4.04061,4.29315 -0.58962,1.48676 -1.13095,3.66728 0,4.79823 4.10714,4.10714 11.82751,1.55045 17.42513,0 2.36518,-0.65512 4.861,-1.80979 5.93464,-3.53555 2.38826,-3.5163 3.085,-13.60103 3.085,-13.60103 -3.50566,0.0726 -9.17071,-30.92253 -17.47342,-43.81674 0,0 -3.85084,1.57731 -5.94089,2.61701 z"
       style="fill:url(#linearGradient12012);fill-opacity:1;stroke:#000000;stroke-width:2;stroke-linejoin:round;stroke-miterlimit:4;stroke-opacity:1;stroke-dasharray:none;stroke-dashoffset:0" />
    <path
       id="path10969"
       d="m 251.02291,627.3405 c 3.11007,-0.5121 4.68639,5.54995 7.82868,5.3033 3.56245,-0.27963 6.22227,-4.13163 7.82868,-7.32361 1.33311,-2.64892 2.82259,-6.4917 1.01016,-8.83883 -2.91039,-3.769 -11.36843,1.85038 -14.14214,-2.02031 -2.39459,-3.34163 -1.55853,-10.63149 2.27284,-12.12183 2.74586,-1.06809 4.16478,4.81954 7.07107,5.3033 3.22991,0.53763 6.07149,-2.9181 9.15917,-3.46839 -2.9541,-3.84709 -7.4426,-21.56752 -11.82185,-21.73357 -17.517,-0.66424 -33.82312,-1.26682 -39.36255,0.69351 -3.83935,1.3587 17.99995,25.35089 24.83171,51.09208 0,0 2.30077,-6.38781 5.32423,-6.88565 z"
       style="fill:url(#linearGradient12022);stroke:#000000;stroke-width:2;stroke-linejoin:round;stroke-miterlimit:4;stroke-opacity:1;stroke-dasharray:none;stroke-dashoffset:0;fill-opacity:1.0"
       inkscape:connector-curvature="0"
       sodipodi:nodetypes="ssssssscsscs" />
    <path
       id="path10977"
       d="m 198.52238,632.69817 c 1.39873,1.79147 1.09711,4.828 0,6.81852 -0.91313,1.65672 -3.75502,1.45241 -4.79823,3.03046 -1.74006,2.63216 -2.17702,6.25877 -1.51523,9.34391 1.05771,4.93087 3.36275,11.77762 8.33376,12.62691 3.02041,0.51603 6.25235,-2.68502 7.32361,-5.55584 1.14284,-3.06265 -2.50817,-6.36412 -2.02031,-9.59645 0.25869,-1.71395 1.16451,-3.47212 2.52539,-4.54568 2.95047,-2.32755 7.72016,-5.09675 10.85914,-3.03046 2.62522,1.7281 1.5568,6.21475 1.26269,9.34391 -0.17437,1.85521 -2.52553,3.60094 -1.76777,5.3033 2.05423,4.61492 9.4254,8.42487 13.8896,6.06092 2.42206,-1.28257 2.03817,-5.3909 1.51523,-8.08123 -0.47674,-2.45268 -2.75984,-4.1681 -4.04061,-6.31345 -0.88852,-1.48831 -3.32891,-3.00981 -2.52539,-4.54568 1.96086,-3.74802 11.12106,2.69015 12.62691,-1.2627 1.50584,-3.95285 -9.20594,-6.88581 -9.20594,-6.88581 -1.70013,-0.62688 -4.18606,-18.96838 -13.98905,-22.98935 -9.80299,-4.02097 -26.92302,-3.60132 -31.76536,-4.18221 -4.84234,-0.58089 4.81211,23.51134 3.00529,21.49761 3.6535,0.31883 8.15029,0.22761 10.28627,2.96332 z"
       style="fill:url(#linearGradient12033);fill-opacity:1;stroke:#000000;stroke-width:2;stroke-linejoin:round;stroke-miterlimit:4;stroke-opacity:1;stroke-dasharray:none;stroke-dashoffset:0"
       inkscape:connector-curvature="0"
       sodipodi:nodetypes="ssssssssssscsssscsscs" />
    <path
       id="path10988"
       d="m 355.12066,665.08741 c -0.47674,-2.45268 -2.75984,-4.1681 -4.04061,-6.31345 -0.88852,-1.48831 -3.32891,-3.00981 -2.52539,-4.54568 1.96086,-3.74802 11.12106,2.69015 12.62691,-1.2627 1.50584,-3.95285 -9.20594,-6.88581 -9.20594,-6.88581 1.94362,0.4824 -8.62129,-24.18751 -0.0616,-20.80108 8.55964,3.38644 32.74427,9.5061 45.06298,24.81138 5.99927,3.15558 6.40929,34.5236 8.7407,36.30643 0,0 -2.45117,6.39843 -5.14015,6.21757 -2.93844,-0.19764 -3.80136,-4.72668 -4.54569,-7.57614 -0.72367,-2.77038 1.42206,-5.97269 0.25254,-8.5863 -0.85405,-1.9086 -3.0433,-2.90377 -4.79822,-4.04061 -2.27513,-1.47382 -5.02763,-4.97665 -7.32361,-3.53553 -1.99635,1.25305 -0.97396,4.92468 0,7.07106 0.73952,1.62974 3.36417,1.87862 4.04061,3.53554 0.82968,2.03229 0.44421,4.58674 -0.50507,6.56599 -0.79839,1.66464 -2.24886,3.34304 -4.04062,3.78807 -3.72596,0.92544 -8.36753,-0.34551 -11.11167,-3.03046 -1.69438,-1.65783 -3.11601,-4.71644 -2.02031,-6.81853 0.73825,-1.41632 3.56775,-0.25243 4.54569,-1.51522 1.49827,-1.93468 0.89253,-4.90748 0.50507,-7.32361 -0.3886,-2.42327 -0.56808,-5.75088 -2.77791,-6.81853 -1.89492,-0.9155 -4.61583,0.23788 -6.06092,1.76777 -1.54243,1.6329 -1.11053,4.35656 -1.51523,6.56599 -0.33676,1.8385 0.42005,4.10443 -0.75761,5.55584 -1.57697,1.94354 -6.81853,2.39911 -6.81853,2.39911 -1.41161,-4.28628 -4.29315,-7.57614 -4.29315,-7.57614 2.6746,-1.1563 2.29071,-5.26463 1.76777,-7.95496 z"
       style="fill:url(#linearGradient12045);fill-opacity:1;stroke:#000000;stroke-width:2;stroke-linejoin:round;stroke-miterlimit:4;stroke-opacity:1;stroke-dasharray:none;stroke-dashoffset:0"
       inkscape:connector-curvature="0"
       sodipodi:nodetypes="sssscsccsssssssssssssssssccs" />
    <path
       sodipodi:nodetypes="ssssssssssssccscscs"
       inkscape:connector-curvature="0"
       id="path11002"
       d="m 43.026228,883.19348 c -0.15627,2.84416 -0.45937,6.42652 -2.77791,8.08122 -1.30186,0.92912 -3.21515,0.22798 -4.79823,0 -1.47643,-0.21262 -3.09881,-2.15634 -4.29315,-1.26269 -1.68501,1.26079 -0.9682,4.44491 0,6.31345 0.80587,1.55527 2.62357,2.50055 4.29315,3.03046 2.88846,0.91676 6.27618,1.12178 9.09137,0 2.04668,-0.81555 2.64989,-5.03425 4.79823,-4.54569 2.98789,0.67948 3.17003,5.52421 3.28299,8.5863 0.0972,2.63478 -0.3419,5.78087 -2.27284,7.57614 -1.13677,1.0569 -3.57444,-0.20062 -4.54569,1.01016 -1.00079,1.2476 -0.81529,3.42221 0,4.79822 2.05477,3.46793 11.14963,6.01204 11.14963,6.01204 0.56022,-3.12753 22.26968,6.10158 21.4133,1.71961 -1.13554,-5.79451 -3.01784,-23.26885 -5.50926,-30.71626 -2.49142,-7.4474 -5.59197,-15.34709 -9.16397,-22.95076 -3.57517,-7.60407 -19.23717,-21.33472 -25.38825,-28.32019 -3.07554,-3.49274 3.56981,33.1712 1.77956,30.91488 0,0 3.13042,6.30695 2.94107,9.75311 z"
       style="fill:url(#linearGradient12086);fill-opacity:1;stroke:#000000;stroke-width:2;stroke-linejoin:round;stroke-miterlimit:4;stroke-opacity:1;stroke-dasharray:none;stroke-dashoffset:0" />
    <path
       id="path11012"
       d="m 126.12232,770.50606 c 0.38738,4.23233 4.91436,9.77006 1.76777,12.62691 -1.60235,1.4548 -4.50034,-0.33346 -6.31346,-1.51523 -1.86183,-1.21352 -2.71,-3.52327 -4.04061,-5.3033 -0.93751,-1.25415 -1.22377,-3.97896 -2.77792,-3.78807 -1.98599,0.24393 -1.41048,3.75028 -2.27284,5.55583 -0.8281,1.73382 -1.668,3.48234 -3.02724,5.02695 2.92581,-2.17855 42.92875,23.46645 46.13081,20.85843 7.63984,-6.21708 19.15151,-18.12308 20.98599,-31.65992 0.73909,-5.45389 -20.59818,-4.89236 -20.86759,-8.79527 0,0 -3.00115,4.58753 -5.08871,5.98352 -1.90353,1.27293 -4.38564,2.72019 -6.56599,2.0203 -2.11605,-0.67925 -3.36088,-3.1874 -4.04061,-5.3033 -0.87577,-2.72612 2.02877,-6.34048 0.25253,-8.58629 -1.81271,-2.29192 -5.66445,-1.80877 -8.58629,-1.76777 -1.46999,0.0206 -3.28226,-0.0573 -4.29315,1.01015 -1.64638,1.73843 0.37157,5.32124 -1.38896,7.44987 0,0 -0.0504,4.2573 0.12627,6.18719 z"
       style="fill:url(#linearGradient12123);fill-opacity:1;stroke:#000000;stroke-width:2;stroke-linejoin:round;stroke-miterlimit:4;stroke-opacity:1;stroke-dasharray:none;stroke-dashoffset:0"
       inkscape:connector-curvature="0"
       sodipodi:nodetypes="ssssssccscsssscscs" />
    <path
       id="path11019"
       d="m 463.45246,804.87361 c 8.54202,-3.14198 13.02264,-4.95851 26.38691,-13.63171 4.95424,-3.21523 -43.20733,-22.83183 -39.57912,-25.10104 -1.57596,2.60312 -3.05261,6.13827 -6.06414,7.09489 -3.21117,1.02003 -7.21226,-4.3704 -9.84899,-2.27285 -1.84456,1.46737 -1.61547,5.35473 0,7.07107 1.90744,2.02654 5.55202,0.42086 8.33376,0.50508 3.61806,0.10954 8.40379,-2.65962 10.85914,0 1.43209,1.55123 0.46114,4.43632 -0.50508,6.31345 -0.95696,1.85913 -2.83398,3.32373 -4.79822,4.04061 -1.89786,0.69266 -4.11212,0.53275 -6.06092,0 -2.07497,-0.56724 -3.40474,-3.29022 -5.55584,-3.283 -2.45422,0.008 -5.69963,1.41185 -6.31345,3.78808 -0.92445,3.57876 5.59635,9.71912 5.59635,9.71912 6.592,2.66031 6.11807,1.34201 12.38968,5.21664 0,0 10.63256,2.205 15.15992,0.53966 z"
       style="color:#000000;fill:url(#linearGradient12159);fill-opacity:1;stroke:#000000;stroke-width:2;stroke-linecap:butt;stroke-linejoin:miter;stroke-miterlimit:4;stroke-opacity:1;stroke-dasharray:none;stroke-dashoffset:0;marker:none;visibility:visible;display:inline;overflow:visible;enable-background:accumulate"
       inkscape:connector-curvature="0"
       sodipodi:nodetypes="cscsssssssscsccc" />
    <path
       id="path11034"
       d="m 478.9374,658.38528 c 3.11007,-0.5121 4.68639,5.54995 7.82868,5.3033 3.56245,-0.27963 6.22227,-4.13163 7.82868,-7.32361 1.33311,-2.64892 2.82259,-6.4917 1.01016,-8.83883 -2.91039,-3.769 -11.36843,1.85038 -14.14214,-2.02031 -2.39459,-3.34163 -1.55853,-10.63149 2.27284,-12.12183 2.74586,-1.06809 4.16478,4.81954 7.07107,5.3033 3.22991,0.53763 6.07149,-2.9181 9.34391,-3.03046 3.46876,-0.1191 7.96555,-0.21032 10.10153,2.52539 1.39873,1.79147 1.09711,4.828 0,6.81852 -0.91313,1.65672 -3.75502,1.45241 -4.79823,3.03046 -1.74006,2.63216 -2.17702,6.25877 -1.51523,9.34391 1.05771,4.93087 3.36275,11.77762 8.33376,12.62691 3.02041,0.51603 6.25235,-2.68502 7.32361,-5.55584 1.14284,-3.06265 -2.50817,-6.36412 -2.02031,-9.59645 0.25869,-1.71395 1.16451,-3.47212 2.52539,-4.54568 2.95047,-2.32755 7.72016,-5.09675 10.85914,-3.03046 2.62522,1.7281 1.5568,6.21475 1.26269,9.34391 -0.17437,1.85521 -2.52553,3.60094 -1.76777,5.3033 2.05423,4.61492 9.4254,8.42487 13.63706,5.93465 0,0 2.88154,3.28986 4.54569,7.44987 1.31502,3.28727 5.09033,11.19759 4.29314,14.64721 -0.79086,3.42222 -4.25509,5.86698 -7.3236,7.57615 -1.73095,0.96414 -3.83545,1.44517 -5.80838,1.26269 -1.72803,-0.15983 -3.934,-0.5154 -4.79822,-2.02031 -0.97235,-1.69319 0.32061,-3.90538 0.75761,-5.80837 0.47663,-2.07557 1.97861,-3.93174 2.02031,-6.06092 0.0533,-2.71679 0.27961,-6.89662 -2.27285,-7.82868 -4.56159,-1.66573 -11.27223,3.29991 -12.12183,8.08122 -0.47426,2.66898 3.86115,4.02232 4.79823,6.56599 1.16725,3.16846 2.0683,6.98966 0.75761,10.10153 -1.06684,2.53292 -5.83191,5.42818 -8.33376,6.56599 -2.48182,1.1287 -3.33538,0.07 -6.06091,0 -3.69693,-0.0949 -8.81012,0.80576 -10.85914,-2.27285 -1.23489,-1.85539 -0.10746,-4.80813 1.26269,-6.56599 0.85661,-1.09901 2.99264,-0.62369 3.78807,-1.76776 1.78382,-2.56569 1.7491,-6.38052 0.75761,-9.34392 -0.64324,-1.92255 -2.14452,-3.82816 -4.04061,-4.54568 -2.61713,-0.99037 -5.65406,0.20426 -8.33375,1.01015 -1.6223,0.48789 -4.06039,0.64976 -4.54569,2.27284 -0.86445,2.8911 4.36298,4.81665 4.54569,7.82869 0.15527,2.55966 -1.55633,6.18268 -4.04061,6.81852 -3.83375,0.98122 -4.62073,-5.70218 -8.33376,-7.07106 -3.79446,-1.3989 -11.99557,-0.63135 -11.99557,-0.63135 2.89334,-3.89511 3.21127,-13.7273 3.21127,-13.7273 2.48357,-0.17428 -1.41301,-13.03834 -2.34831,-15.12118 0,0 2.30077,-6.38782 5.32423,-6.88566 z"
       style="fill:url(#linearGradient12076);fill-opacity:1;stroke:#000000;stroke-width:2;stroke-linejoin:round;stroke-miterlimit:4;stroke-opacity:1;stroke-dasharray:none;stroke-dashoffset:0"
       inkscape:connector-curvature="0"
       sodipodi:nodetypes="ssssssscssssssssssscccsssscssssccsssssssscscccs" />
    <path
       id="path11059"
       d="m 333.86413,650.65323 c 1.14712,3.26492 5.34189,4.69896 6.81853,7.82868 1.31095,2.77853 3.40964,6.6727 1.51523,9.09138 -3.38388,4.32036 -10.98162,2.03391 -16.41498,1.26269 -2.84837,-0.4043 -6.15269,-0.89565 -8.08122,-3.03046 -2.21732,-2.45449 -2.50499,-6.28879 -2.52539,-9.59645 -0.009,-1.3883 0.44851,-2.77097 1.01016,-4.04061 0.85951,-1.94297 4.48147,-3.40091 3.53553,-5.3033 -1.87734,-3.77555 -8.68474,-2.25377 -12.62691,-0.75761 -3.00513,1.14053 -4.62259,4.4713 -6.81853,6.81852 -0.61134,0.65345 -1.85406,1.12964 -1.76776,2.02031 0.31824,3.28484 4.97055,4.41091 7.82868,6.06092 1.73288,1.0004 5.16118,0.31123 5.55584,2.27284 0.51658,2.5676 -1.70578,3.22976 -3.77013,4.84155 -2.32132,1.81243 -6.54654,4.39539 -9.36185,5.25997 -4.35209,1.33653 -13.76333,0.38515 -13.76333,0.38515 0.17314,-2.45553 -0.75312,-3.415 -1.89404,-5.18337 -0.8415,-1.30429 -3.37337,-1.48676 -3.53553,-3.03046 -0.18821,-1.79166 2.29897,-2.78412 3.28299,-4.29315 1.04952,-1.60947 2.2999,-3.18974 2.77792,-5.05076 0.41884,-1.63065 1.13355,-3.80596 0,-5.05076 -1.82164,-2.00041 -5.37568,-0.75062 -8.08122,-0.75762 -2.87321,-0.008 -7.75694,0.92442 -9.37455,3.43357 0,0 -7.3994,-4.89084 -7.79804,-8.98941 -0.1314,-1.35097 1.17582,-2.47287 2.0203,-3.53553 1.92714,-2.42503 5.71668,-3.41852 6.81853,-6.31345 0,0 7.19262,4.13028 10.10153,2.27284 2.68578,-1.71496 2.31829,-6.17127 2.0203,-9.34391 -0.22223,-2.36607 -3.52416,-4.30971 -2.77791,-6.56599 1.04269,-3.15259 5.32053,-4.45003 8.58629,-5.05076 4.9543,-0.91133 13.4492,-2.29867 14.89975,2.52538 1.02898,3.42205 -5.29808,4.80064 -7.82868,7.3236 -1.3917,1.38749 -3.31615,2.46637 -4.04061,4.29315 -0.58962,1.48676 -1.13095,3.66728 0,4.79823 4.10714,4.10714 11.82751,1.55045 17.42513,0 2.36518,-0.65512 4.861,-1.80979 6.18718,-3.66181 0,0 8.20111,-0.76755 11.99557,0.63135 3.71303,1.36888 4.50001,8.05228 8.46002,6.56599 0,0 -1.74723,7.97447 -0.3788,11.86929 z"
       style="fill:url(#linearGradient12059);fill-opacity:1;stroke:#000000;stroke-width:2;stroke-linejoin:round;stroke-miterlimit:4;stroke-opacity:1;stroke-dasharray:none;stroke-dashoffset:0"
       inkscape:connector-curvature="0"
       sodipodi:nodetypes="sssssssssscsscscsssssccsscssssssssscscs" />
    <path
       sodipodi:nodetypes="sssssssssssscsssscsccsssssssssssccssssssssssssssssscs"
       inkscape:connector-curvature="0"
       id="path11085"
       d="m 469.48221,713.59215 c -0.15627,2.84416 -0.45937,6.42652 -2.77791,8.08122 -1.30186,0.92912 -3.21515,0.22798 -4.79823,0 -1.47643,-0.21262 -3.09881,-2.15634 -4.29315,-1.26269 -1.68501,1.26079 -0.9682,4.44491 0,6.31345 0.80587,1.55527 2.62357,2.50055 4.29315,3.03046 2.88846,0.91676 6.27618,1.12178 9.09137,0 2.04667,-0.81555 2.64988,-5.03425 4.79822,-4.54569 2.98789,0.67948 3.17003,5.52421 3.28299,8.5863 0.0972,2.63478 -0.3419,5.78087 -2.27284,7.57614 -1.13677,1.0569 -3.57444,-0.20062 -4.54568,1.01016 -1.00079,1.2476 -0.81529,3.42221 0,4.79822 2.05476,3.46793 10.85914,6.18719 10.85914,6.18719 0,0 -2.45813,4.79119 -4.54569,6.18718 -1.90353,1.27293 -4.38564,2.72019 -6.56598,2.0203 -2.11605,-0.67925 -3.36088,-3.1874 -4.04061,-5.3033 -0.87577,-2.72612 2.02877,-6.34048 0.25253,-8.58629 -1.81271,-2.29192 -5.66445,-1.80877 -8.58629,-1.76777 -1.46999,0.0206 -3.28226,-0.0573 -4.29315,1.01015 -1.64638,1.73843 0.37157,5.32124 -1.26269,7.07107 -1.65833,1.77577 -4.64158,1.74867 -7.07107,1.76777 -2.59314,0.0204 -5.74469,0.0681 -7.57614,-1.76777 -1.58633,-1.59022 -1.26106,-4.33423 -1.51523,-6.56599 -0.14288,-1.25458 -0.92646,-2.93014 0,-3.78807 1.61061,-1.49148 4.38463,0.75057 6.56599,0.50507 2.54003,-0.28587 5.96887,-0.10532 7.32361,-2.27284 1.7605,-2.8167 -0.47107,-6.69575 -1.51523,-9.84899 -1.01801,-3.07428 -1.37019,-7.9509 -4.54569,-8.5863 -1.81783,-0.36374 -2.89133,2.3224 -4.29315,3.53554 -1.89254,1.63782 -3.06354,4.82144 -5.55584,5.05076 -2.07033,0.1905 -3.49429,-2.25827 -5.3033,-3.28299 -2.55518,-1.44739 -6.30084,-1.53271 -7.82868,-4.04061 -2.01461,-3.30692 -0.12627,-11.36422 -0.12627,-11.36422 0.67091,-3.19708 -3.1044,-11.1074 -4.79823,-14.64721 0,0 5.1153,-0.83438 6.69227,-2.77792 1.17766,-1.45141 0.42085,-3.71734 0.75761,-5.55584 0.4047,-2.20943 -0.0272,-4.93309 1.51523,-6.56599 1.44509,-1.52989 4.166,-2.68327 6.06092,-1.76777 2.20983,1.06765 2.38931,4.39526 2.77791,6.81853 0.38746,2.41613 0.9932,5.38893 -0.50507,7.32361 -0.97794,1.26279 -3.80744,0.0989 -4.54569,1.51522 -1.0957,2.10209 0.32593,5.1607 2.02031,6.81853 2.74414,2.68495 7.38571,3.9559 11.11167,3.03046 1.79176,-0.44503 3.24223,-2.12343 4.04062,-3.78807 0.94928,-1.97925 1.33475,-4.5337 0.50507,-6.56599 -0.67644,-1.65692 -3.30109,-1.9058 -4.04061,-3.53554 -0.97396,-2.14638 -1.99635,-5.81801 0,-7.07106 2.29598,-1.44112 5.04848,2.06171 7.32361,3.53553 1.75492,1.13684 3.94417,2.13201 4.79822,4.04061 1.16952,2.61361 -0.97621,5.81592 -0.25254,8.5863 0.74433,2.84946 1.60725,7.3785 4.54569,7.57614 2.68898,0.18086 5.80838,-6.56599 5.80838,-6.56599 0,0 3.2198,6.40283 3.03045,9.84899 z"
       style="fill:url(#linearGradient12099);fill-opacity:1;stroke:#000000;stroke-width:2;stroke-linejoin:round;stroke-miterlimit:4;stroke-opacity:1;stroke-dasharray:none;stroke-dashoffset:0" />
    <path
       id="path11096"
       d="m 545.88975,799.45023 c -0.22007,-1.37593 -0.57577,-3.06644 -1.76777,-3.78807 -1.58589,-0.96008 -3.73955,0.62383 -5.55584,0.25253 -2.47146,-0.50524 -5.83582,-0.9597 -6.81853,-3.28299 -0.93332,-2.20652 1.82705,-4.46458 2.27285,-6.81853 0.59607,-3.1473 1.62211,-6.59428 0.50507,-9.59645 -1.01731,-2.73415 -3.14383,-6.34705 -6.06091,-6.31345 -2.7405,0.0316 -4.80107,3.42621 -5.55584,6.06091 -1.01396,3.53945 3.16405,7.35947 2.0203,10.85914 -0.61048,1.86796 -2.45106,3.35601 -4.29315,4.04061 -1.81656,0.67512 -5.80837,-0.25254 -5.80837,-0.25254 1.66438,-3.28416 -0.0273,-7.7634 -2.02031,-10.85914 -1.11246,-1.72794 -3.02987,-3.90882 -5.05076,-3.53553 -3.39798,0.62766 -2.42982,7.86134 -5.80838,8.5863 -3.28915,0.70577 -8.15795,-1.96667 -8.58629,-5.3033 -0.326,-2.53938 4.35111,-3.17928 5.3033,-5.55584 1.34623,-3.36006 -0.37881,-10.85914 -0.37881,-10.85914 2.12304,-1.13781 6.88811,-4.03307 7.95495,-6.56599 1.31069,-3.11187 0.40964,-6.93307 -0.75761,-10.10153 -0.93708,-2.54367 -5.27249,-3.89701 -4.79823,-6.56599 0.8496,-4.78131 7.56024,-9.74695 12.12183,-8.08122 2.55246,0.93206 2.3261,5.11189 2.27285,7.82868 -0.0417,2.12918 -1.54368,3.98535 -2.02031,6.06092 -0.437,1.90299 -1.72996,4.11518 -0.75761,5.80837 0.86422,1.50491 3.07019,1.86048 4.79822,2.02031 1.97293,0.18248 4.07743,-0.29855 5.80838,-1.26269 3.06851,-1.70917 6.53274,-4.15393 7.57614,-7.44988 0,0 -1.76207,8.43611 0.25254,11.74303 1.52784,2.5079 5.2735,2.59322 7.82868,4.04061 1.80901,1.02472 3.23297,3.47349 5.3033,3.28299 2.4923,-0.22932 3.6633,-3.41294 5.55584,-5.05076 1.40182,-1.21314 2.47532,-3.89928 4.29315,-3.53554 3.1755,0.6354 3.52768,5.51202 4.54569,8.5863 1.04416,3.15324 3.27573,7.03229 1.51523,9.84899 -1.35474,2.16752 -4.78358,1.98697 -7.32361,2.27284 -2.18136,0.2455 -4.95538,-1.99655 -6.56599,-0.50507 -0.92646,0.85793 -0.14288,2.53349 0,3.78807 0.25417,2.23176 -0.0711,4.97577 1.51523,6.56599 1.83145,1.83591 4.983,1.78819 7.57614,1.76777 2.42949,-0.0191 5.41274,0.008 6.9448,-1.38896 0,0 -0.0504,4.25729 0.12627,6.18718 0.38738,4.23233 4.91436,9.77006 1.76777,12.62691 -1.60235,1.4548 -4.50034,-0.33346 -6.31346,-1.51523 -1.86183,-1.21352 -2.71,-3.52327 -4.04061,-5.3033 -0.93751,-1.25415 -1.22377,-3.97896 -2.77792,-3.78807 -1.98599,0.24393 -1.41048,3.75028 -2.27284,5.55583 -0.8281,1.73382 -1.668,3.48234 -3.03046,5.42957 0,0 0.83984,-3.84166 0.50508,-5.93464 z"
       style="fill:url(#linearGradient12136);fill-opacity:1;stroke:#000000;stroke-width:2;stroke-linejoin:round;stroke-miterlimit:4;stroke-opacity:1;stroke-dasharray:none;stroke-dashoffset:0"
       inkscape:connector-curvature="0"
       sodipodi:nodetypes="sssssssssscssssscsssscsssscsssssssssssccsssssscs" />
    <path
       sodipodi:nodetypes="csssscsssssssssssssscscc"
       inkscape:connector-curvature="0"
       id="path11115"
       d="m 460.15767,830.67715 c 0,0 -9.80599,0.80834 -12.28861,4.17048 -1.70086,2.30342 -2.24724,6.53207 -0.25254,8.5863 2.16977,2.23452 6.90969,-1.94307 9.34391,0 1.48429,1.1848 1.1716,3.65885 1.26269,5.55584 0.15876,3.30605 0.42086,6.99927 -0.75761,9.84898 0,0 5.74938,-4.04747 8.83883,-5.05076 1.92818,-0.62617 4.17861,-1.25801 6.06092,-0.50508 0.94115,0.37646 1.69077,1.31425 2.0203,2.27285 0.85011,2.47295 1.4026,6.04012 -0.50507,7.82868 -1.16679,1.09394 -3.63794,-1.10083 -4.79823,0 -1.1619,1.10235 -1.11527,3.44882 -0.25253,4.79822 1.46513,2.29158 4.87198,2.73815 7.57614,3.03046 2.54539,0.27515 5.501,0.23681 7.57614,-1.26269 1.46496,-1.05858 2.66894,-2.99652 2.52538,-4.79822 -0.10029,-1.2587 -1.87354,-1.83257 -2.27284,-3.03046 -0.47916,-1.43747 -0.83412,-3.28071 0,-4.54569 0.70583,-1.07042 2.28733,-1.80842 3.53554,-1.51523 2.15107,0.50526 3.53081,2.97683 4.29314,5.05077 0.9584,2.60735 -0.90153,5.70619 0,8.33375 1.24595,3.63137 7.22642,9.11225 7.22642,9.11225 5.15585,-9.00247 3.3961,-20.05298 -1.0863,-25.12974 -4.4824,-5.07677 -19.2636,-14.78639 -25.40622,-18.22381 -6.14258,-3.43743 -5.66865,-2.11913 -12.63946,-4.5269 z"
       style="color:#000000;fill:url(#linearGradient12148);fill-opacity:1;stroke:#000000;stroke-width:2;stroke-linecap:butt;stroke-linejoin:miter;stroke-miterlimit:4;stroke-opacity:1;stroke-dasharray:none;stroke-dashoffset:0;marker:none;visibility:visible;display:inline;overflow:visible;enable-background:accumulate" />
    <path
       sodipodi:nodetypes="sssscsssssssssssssscscs"
       inkscape:connector-curvature="0"
       id="path11129"
       d="m 393.72437,877.6058 c 1.1238,-2.36868 2.75787,-5.1804 5.3033,-5.80838 4.08481,-1.00776 8.28179,6.49113 11.86929,4.29315 2.89349,-1.77278 2.58014,-6.97433 1.26269,-10.10153 -1.18964,-2.82381 -7.19733,-5.55584 -7.19733,-5.55584 0,0 6.8858,-2.78478 9.97525,-3.78807 1.92818,-0.62617 4.17861,-1.25801 6.06092,-0.50508 0.94115,0.37646 1.69077,1.31425 2.0203,2.27285 0.85011,2.47295 1.4026,6.04012 -0.50507,7.82868 -1.16679,1.09394 -3.63794,-1.10083 -4.79823,0 -1.1619,1.10235 -1.11527,3.44882 -0.25253,4.79822 1.46513,2.29158 4.87198,2.73815 7.57614,3.03046 2.54539,0.27515 5.501,0.23681 7.57614,-1.26269 1.46496,-1.05858 2.66894,-2.99652 2.52538,-4.79822 -0.10029,-1.2587 -1.87354,-1.83257 -2.27284,-3.03046 -0.47916,-1.43747 -0.83412,-3.28071 0,-4.54569 0.70583,-1.07042 2.28733,-1.80842 3.53554,-1.51523 2.15107,0.50526 3.53081,2.97683 4.29314,5.05077 0.9584,2.60735 -0.90153,5.70619 0,8.33375 1.24595,3.63137 7.22642,9.11226 7.22642,9.11226 -2.56988,6.51535 -2.96551,6.42616 -9.74233,13.20997 -3.95467,3.95874 -44.04986,-11.06314 -46.20818,-8.26744 0,0 0.51198,-6.13784 1.752,-8.75148 z"
       style="fill:url(#linearGradient12184);fill-opacity:1;stroke:#000000;stroke-width:2;stroke-linejoin:round;stroke-miterlimit:4;stroke-opacity:1;stroke-dasharray:none;stroke-dashoffset:0" />
    <path
       id="path11142"
       d="m 366.44859,753.85306 c 0,0 4.0654,-3.9958 6.43768,-5.98752 2.0244,-1.69964 6.23905,-2.15598 6.31345,-4.79822 0.10593,-3.7603 -1.89291,-4.47336 -5.80838,-5.80838 0,0 5.58327,-1.95299 7.07107,-4.54569 1.17387,-2.04564 1.72464,-5.22837 0.25254,-7.07107 -1.97852,-2.47662 -6.9764,0.3401 -9.34391,-1.76776 -2.10784,-1.87666 -4.33943,-5.91926 -2.52538,-8.08122 1.69127,-2.01564 5.23118,1.42987 7.82868,1.01015 2.49027,-0.40239 5.6782,-1.03288 6.81853,-3.283 0,0 3.99181,0.92766 5.80837,0.25254 1.84209,-0.6846 3.68267,-2.17265 4.29315,-4.04061 1.14375,-3.49967 -3.03426,-7.31969 -2.0203,-10.85914 0.75477,-2.6347 2.81534,-6.02933 5.55584,-6.06091 2.91708,-0.0336 5.0436,3.5793 6.06091,6.31345 1.11704,3.00217 0.091,6.44915 -0.50507,9.59645 -0.4458,2.35395 -3.20617,4.61201 -2.27285,6.81853 0.98271,2.32329 4.34707,2.77775 6.81853,3.28299 1.81629,0.3713 3.96995,-1.21261 5.55584,-0.25253 1.192,0.72163 1.5477,2.41214 1.76777,3.78807 0.33476,2.09298 -0.50508,5.93464 -0.50508,5.93464 -1.57273,2.2005 -3.04938,5.73565 -6.06091,6.69227 -3.21117,1.02003 -7.21226,-4.3704 -9.84899,-2.27285 -1.84456,1.46737 -1.61547,5.35473 0,7.07107 1.90744,2.02654 5.55202,0.42086 8.33376,0.50508 3.61806,0.10954 8.40379,-2.65962 10.85914,0 1.43209,1.55123 0.46114,4.43632 -0.50508,6.31345 -0.95696,1.85913 -2.83398,3.32373 -4.79822,4.04061 -1.89786,0.69266 -4.11212,0.53275 -6.06092,0 -2.07497,-0.56724 -3.40474,-3.29022 -5.55584,-3.283 -2.45422,0.008 -5.69963,1.41185 -6.31345,3.78808 -0.92445,3.57876 6.35396,9.84538 6.35396,9.84538 -5.75336,-2.28872 -28.06926,-7.33033 -34.00484,-7.14086 z"
       style="color:#000000;fill:url(#linearGradient12112);fill-opacity:1;stroke:#000000;stroke-width:2;stroke-linecap:butt;stroke-linejoin:miter;stroke-miterlimit:4;stroke-opacity:1;stroke-dasharray:none;stroke-dashoffset:0;marker:none;visibility:visible;display:inline;overflow:visible;enable-background:accumulate"
       inkscape:connector-curvature="0"
       sodipodi:nodetypes="csccssssscsssssssssscsssssssscscc" />
    <path
       id="path11165"
       d="m 424.49685,841.60051 c -2.00483,0.894 -1.61127,4.49952 -3.53553,5.55584 -2.06618,1.13422 -4.719,0.15275 -7.07107,0 -1.94842,-0.12653 -4.60996,0.78387 -5.80837,-0.75761 -1.30095,-1.67337 -0.82794,-4.9068 0.75761,-6.31346 1.00752,-0.89385 2.88827,0.69725 4.04061,0 1.70738,-1.03309 2.73782,-3.3081 2.77792,-5.3033 0.071,-3.53883 -1.60421,-7.62769 -4.54569,-9.59645 -2.73187,-1.82846 -7.57411,-2.87812 -9.84898,-0.50507 -1.87229,1.95309 1.88673,5.62254 0.75761,8.08122 -1.03323,2.24988 -3.70174,3.54226 -6.06091,4.29315 -2.246,0.71487 -7.14504,-0.15057 -7.14504,-0.15057 0.16606,-3.84667 2.67458,-6.92251 -0.43111,-8.94081 -2.78068,-1.80709 -6.25169,2.32773 -9.09137,4.04061 -3.02828,1.82664 -4.92261,7.49934 -8.33376,6.566 -2.69905,-0.7385 -2.51665,-5.07801 -3.03046,-7.82869 -0.18548,-0.99297 -0.63208,-2.24249 0,-3.03045 1.45687,-1.81616 5.80892,0.58277 6.81853,-1.51523 1.91002,-3.9691 -5.29433,-11.72137 -5.29433,-11.72137 2.5784,-1.46385 4.80076,-2.12601 4.28418,-4.69361 -0.39466,-1.96161 -3.82296,-1.27244 -5.55584,-2.27284 -2.85813,-1.65001 -7.51044,-2.77608 -7.82868,-6.06092 -0.0863,-0.89067 1.15642,-1.36686 1.76776,-2.02031 2.19594,-2.34722 3.8134,-5.67799 6.81853,-6.81852 3.94217,-1.49616 10.74957,-3.01794 12.62691,0.75761 0.94594,1.90239 -2.67602,3.36033 -3.53553,5.3033 -0.56165,1.26964 -1.01873,2.65231 -1.01016,4.04061 0.0204,3.30766 0.30807,7.14196 2.52539,9.59645 1.92853,2.13481 5.23285,2.62616 8.08122,3.03046 5.43336,0.77122 13.0311,3.05767 16.41498,-1.26269 1.89441,-2.41868 -0.20428,-6.31285 -1.51523,-9.09138 -1.47664,-3.12972 -5.67141,-4.56376 -6.81853,-7.82868 -1.36843,-3.89482 0.37881,-11.8693 0.37881,-11.8693 2.35801,-0.13076 4.06961,-3.75378 3.91434,-6.31344 -0.18271,-3.01204 -5.41014,-4.93759 -4.54569,-7.82869 0.4853,-1.62308 2.92339,-1.78495 4.54569,-2.27284 2.67969,-0.80589 5.71662,-2.00052 8.33375,-1.01015 1.89609,0.71752 3.39737,2.62313 4.04061,4.54568 0.99149,2.9634 1.02621,6.77823 -0.75761,9.34392 -0.79543,1.14407 -2.93146,0.66875 -3.78807,1.76776 -1.37015,1.75786 -2.49758,4.7106 -1.26269,6.56599 2.04902,3.07861 7.16221,2.17795 10.85914,2.27285 2.72553,0.07 3.57909,1.1287 6.43972,0 0,0 1.72504,7.49908 0.37881,10.85914 -0.95219,2.37656 -5.6293,3.01646 -5.3033,5.55584 0.42834,3.33663 5.29714,6.00907 8.58629,5.3033 3.37856,-0.72496 2.4104,-7.95864 5.80838,-8.5863 2.02089,-0.37329 3.9383,1.80759 5.05076,3.53553 1.99305,3.09574 3.68469,7.57498 2.02031,10.85914 -1.14033,2.25012 -4.32826,2.88061 -6.81853,3.283 -2.5975,0.41972 -6.13741,-3.02579 -7.82868,-1.01015 -1.81405,2.16196 0.41754,6.20456 2.52538,8.08122 2.36751,2.10786 7.36539,-0.70886 9.34391,1.76776 1.4721,1.8427 0.92133,5.02543 -0.25254,7.07107 -1.4878,2.5927 -7.07107,4.54569 -7.07107,4.54569 -0.42334,-0.68472 -4.87307,-2.43739 -5.80838,-2.02031 z"
       style="fill:url(#linearGradient12173);fill-opacity:1;stroke:#000000;stroke-width:2;stroke-linejoin:round;stroke-miterlimit:4;stroke-opacity:1;stroke-dasharray:none;stroke-dashoffset:0"
       inkscape:connector-curvature="0"
       sodipodi:nodetypes="sssssscsssscsssssscsscsssssssssscssssssssccssssscssssscs" />
    <path
       id="path11181"
       d="m 326.30668,679.17306 c -4.98336,-0.0562 -6.93665,-8.38 -11.86929,-9.09138 -1.16048,-0.16736 -2.70988,0.23984 -3.283,1.2627 -1.58992,2.83757 2.4712,6.42078 1.76777,9.59644 -1.00524,4.5382 -3.47264,10.75862 -8.33376,11.49049 0,0 0.49006,7.82154 -1.76777,10.48033 -1.25797,1.48136 -4.2355,0.34171 -5.55583,1.76777 -1.99755,2.15753 -3.09958,5.85128 -2.02031,8.5863 1.00268,2.54094 4.08691,4.54568 6.81853,4.54568 2.42811,0 4.13297,-2.56456 6.06092,-4.04061 0.71051,-0.54397 1.18264,-1.45302 2.0203,-1.76776 2.04881,-0.76981 5.12192,-1.64466 6.56599,0 1.28827,1.46721 -0.63108,3.85995 -0.75761,5.80837 -0.10365,1.59605 0.50578,3.2809 0,4.79823 -0.6655,1.99649 -2.52002,3.3712 -3.78807,5.05076 -1.5927,2.10957 -4.78577,6.44151 -4.78577,6.44151 8.52149,-0.4415 33.70816,-6.6707 53.83762,-21.39453 3.5614,-1.93548 -43.59766,-12.22736 -41.96503,-13.67114 0,0 0.51199,-6.13784 1.75201,-8.75148 1.1238,-2.36868 2.75787,-5.1804 5.3033,-5.80838 4.08481,-1.00776 8.28179,6.49113 11.86929,4.29315 2.89349,-1.77278 2.58014,-6.97433 1.26269,-10.10153 -1.18964,-2.82381 -6.9448,-4.9245 -6.9448,-4.9245 -1.00002,2.96527 -3.47657,5.46015 -6.18718,5.42958 z"
       style="fill:url(#linearGradient12196);fill-opacity:1;stroke:#000000;stroke-width:2;stroke-linejoin:round;stroke-miterlimit:4;stroke-opacity:1;stroke-dasharray:none;stroke-dashoffset:0"
       inkscape:connector-curvature="0"
       sodipodi:nodetypes="sssscsssssssssscccsssscs" />
    <path
       sodipodi:nodetypes="csssssssssscsscscsssssssssssscc"
       inkscape:connector-curvature="0"
       id="path11201"
       d="m 377.0519,957.03081 c 0,0 3.19307,-4.33193 4.78577,-6.4415 1.26805,-1.67956 3.12257,-3.05427 3.78807,-5.05076 0.50578,-1.51733 -0.10365,-3.20218 0,-4.79823 0.12653,-1.94842 2.04588,-4.34116 0.75761,-5.80837 -1.44407,-1.64466 -4.51718,-0.76981 -6.56599,0 -0.83766,0.31474 -1.30979,1.22379 -2.0203,1.76776 -1.92795,1.47605 -3.63281,4.04061 -6.06092,4.04061 -2.73162,0 -5.81585,-2.00474 -6.81853,-4.54568 -1.07927,-2.73502 0.0228,-6.42877 2.02031,-8.5863 1.32033,-1.42606 4.29786,-0.28641 5.55583,-1.76777 2.25783,-2.65879 1.76777,-10.48033 1.76777,-10.48033 -2.88922,0.28658 -5.23219,-3.60656 -7.07107,-6.18718 -1.66952,-2.34294 -0.80428,-6.25891 -3.03045,-8.08122 -2.04539,-1.67432 -7.6871,-1.30866 -7.6871,-1.30866 0.41746,4.66002 2.32534,11.85277 -0.39412,15.70333 -1.59738,2.26177 -5.09392,3.21185 -7.70242,2.77792 0,0 -0.24151,8.46076 -3.40926,10.10152 -2.17669,1.12743 -5.06806,-0.60713 -7.07107,-2.0203 -1.77509,-1.25237 -1.61623,-5.3532 -3.78807,-5.3033 -3.4081,0.0783 -5.91498,5.19626 -5.55584,8.58629 0.26338,2.48609 3.2162,3.92708 5.3033,5.30331 1.89225,1.24774 4.04687,2.51686 6.31345,2.52538 2.07906,0.008 3.81539,-2.86493 5.80838,-2.27285 2.08246,0.61867 3.1251,3.23452 3.78807,5.3033 0.66793,2.08426 1.38198,4.86883 0,6.566 -1.57408,1.93309 -4.83618,1.68045 -7.3236,1.51522 -3.55961,-0.23645 -6.59996,-4.218 -10.10153,-3.53553 -2.75154,0.53628 -6.07989,2.76227 -6.31345,5.55584 -0.28917,3.45874 6.02454,8.09311 6.02454,8.09311 13.35674,0.89085 27.66756,-0.94821 45.00062,-1.65161 z"
       style="fill:url(#linearGradient12420);stroke:#000000;stroke-width:2;stroke-linejoin:round;stroke-miterlimit:4;stroke-opacity:1;stroke-dasharray:none;stroke-dashoffset:0;fill-opacity:1.0" />
    <path
       id="path11212"
       d="m 284.86302,948.56901 c 0.23356,-2.79357 3.56191,-5.01956 6.31345,-5.55584 3.50157,-0.68247 6.54192,3.29908 10.10153,3.53553 2.48742,0.16523 5.74952,0.41787 7.3236,-1.51522 1.38198,-1.69717 0.66793,-4.48174 0,-6.566 -0.66297,-2.06878 -1.70561,-4.68463 -3.78807,-5.3033 -1.99299,-0.59208 -3.72932,2.28085 -5.80838,2.27285 -2.26658,-0.009 -4.4212,-1.27764 -6.31345,-2.52538 -2.0871,-1.37623 -5.03992,-2.81722 -5.3033,-5.30331 -0.35914,-3.39003 2.14774,-8.50799 5.55584,-8.58629 2.17184,-0.0499 2.01298,4.05093 3.78807,5.3033 2.00301,1.41317 4.89438,3.14773 7.07107,2.0203 3.16775,-1.64076 3.40926,-10.10152 3.40926,-10.10152 -2.85344,-0.43272 -4.23331,-3.79446 -6.69226,-5.05076 -2.89359,-1.47836 -6.13079,-3.26194 -9.34391,-2.77792 -3.3014,0.49731 -5.07248,4.84127 -8.33376,5.55584 -1.5817,0.34656 -3.21538,-1.09894 -4.79822,-0.75762 -3.44628,0.74316 -8.87582,5.65781 -8.87582,5.65781 -0.007,3.05807 1.78413,10.12613 -0.97317,11.76732 -1.42484,0.84809 -3.07441,-1.2556 -4.54569,-2.0203 -1.30659,-0.6791 -2.31624,-2.31839 -3.78807,-2.27285 -1.63369,0.0505 -2.48699,2.27022 -4.04061,2.77792 -2.7217,0.88941 -6.51423,-1.72363 -8.58629,0.25254 -0.79426,0.7575 -0.28315,2.18586 -0.25254,3.283 0.0711,2.54674 0.84142,5.034 1.01015,7.57614 0.0948,1.42791 -0.0614,4.34837 -0.0614,4.34837 8.13999,3.15001 33.95317,9.50472 42.95654,12.0785 0,0 -6.31371,-4.63437 -6.02454,-8.09311 z"
       style="fill:url(#linearGradient12407);stroke:#000000;stroke-width:2;stroke-linejoin:round;stroke-miterlimit:4;stroke-opacity:1;stroke-dasharray:none;stroke-dashoffset:0;fill-opacity:1.0"
       inkscape:connector-curvature="0"
       sodipodi:nodetypes="sssssssssssscsssscsscssccccs" />
    <path
       id="path11226"
       d="m 260.61936,681.63619 c -4.35209,1.33653 -13.76333,0.38515 -13.76333,0.38515 -0.48175,2.10071 -2.78211,5.11126 -4.16688,7.191 -1.47533,2.21575 -1.89446,6.32693 -4.54569,6.56599 -2.4899,0.22451 -4.76184,-2.86264 -5.3033,-5.3033 -0.4268,-1.92382 2.92944,-3.8075 2.02031,-5.55584 -1.04569,-2.01097 -4.34344,-2.2124 -6.566,-1.76777 -2.29495,0.45911 -4.50706,2.20086 -5.55583,4.29315 -2.30133,4.59115 -4.00314,11.89659 -0.25254,15.40483 2.22084,2.07733 6.05669,-0.56227 9.09137,-0.75762 1.85003,-0.11909 4.23396,-1.55232 5.55584,-0.25254 2.10168,2.06654 0.2611,5.93646 -0.25254,8.83884 -0.27833,1.57275 -0.0773,2.33489 -0.86857,3.84672 0,0 1.69734,6.29749 4.15157,7.77003 2.88733,1.7324 7.72057,2.38095 10.10152,0 1.42857,-1.42857 -1.42857,-4.63234 0,-6.06091 1.54762,-1.54762 4.66551,-1.08556 6.56599,0 3.30953,1.89041 5.38064,7.41139 6.2025,11.10533 0,0 7.0189,0.49205 8.94979,3.16307 l 2.65165,-17.04632 c 0,0 1.23968,-3.84341 2.65165,-4.79823 2.91293,-1.96982 7.94711,0.54328 10.35407,-2.0203 1.33648,-1.42344 0.98822,-6.18139 1.11475,-8.12981 0.24003,-3.69611 2.74855,-6.77195 -0.35714,-8.79025 -2.78068,-1.80709 -6.25169,2.32773 -9.09137,4.04061 -3.02828,1.82664 -4.92261,7.49934 -8.33376,6.566 -2.69905,-0.7385 -2.51665,-5.07801 -3.03046,-7.82869 -0.18548,-0.99297 -0.63208,-2.24249 0,-3.03045 1.45687,-1.81616 5.80892,0.58277 6.81853,-1.51523 1.91002,-3.9691 -5.29433,-11.72136 -5.29433,-11.72136 -1.80727,1.96036 -6.03249,4.54332 -8.8478,5.4079 z"
       style="fill:url(#linearGradient12238);stroke:#000000;stroke-width:2;stroke-linejoin:round;stroke-miterlimit:4;stroke-opacity:1;stroke-dasharray:none;stroke-dashoffset:0;fill-opacity:1.0"
       inkscape:connector-curvature="0"
       sodipodi:nodetypes="scsssssssssscsssscccsscsssssscs" />
    <path
       id="path11249"
       d="m 53.523644,671.00984 c 2.91293,-1.96982 7.94711,0.54328 10.35407,-2.0203 1.33648,-1.42344 0.98822,-6.18139 1.18872,-7.97925 0,0 4.89904,0.86544 7.14504,0.15057 2.35917,-0.75089 5.02768,-2.04327 6.06091,-4.29315 1.12912,-2.45868 -2.6299,-6.12813 -0.75761,-8.08122 2.27487,-2.37305 7.11711,-1.32339 9.84898,0.50507 2.94148,1.96876 4.61672,6.05762 4.54569,9.59645 -0.0401,1.9952 -1.07054,4.27021 -2.77792,5.3033 -1.15234,0.69725 -3.03309,-0.89385 -4.04061,0 -1.58555,1.40666 -2.05856,4.64009 -0.75761,6.31346 1.19841,1.54148 3.85995,0.63108 5.80837,0.75761 2.35207,0.15275 5.00489,1.13422 7.07107,0 1.92426,-1.05632 1.5307,-4.66184 3.535526,-5.55584 0.93531,-0.41708 5.38504,1.33559 6.31346,1.76777 3.41039,1.58756 5.40923,2.30062 5.3033,6.06092 -0.0744,2.64224 -4.28905,3.09858 -6.31345,4.79822 -2.37228,1.99172 -6.891116,6.32427 -6.891116,6.32427 -3.79763,-0.30312 -32.31963,-3.19014 -38.59174,-4.47393 -3.53811,-1.35845 -7.2458,-3.23961 -10.04397,-4.7657 -2.72735,-1.48747 3.52945,1.41811 3.52945,1.41811 0,0 -1.94253,-4.87154 -0.53056,-5.82636 z"
       style="fill:url(#linearGradient12223);fill-opacity:1;stroke:#000000;stroke-width:2;stroke-linejoin:round;stroke-miterlimit:4;stroke-opacity:1;stroke-dasharray:none;stroke-dashoffset:0"
       inkscape:connector-curvature="0"
       sodipodi:nodetypes="sscsssscssssssccsccscs" />
    <path
       id="path11271"
       d="m 197.73736,802.60196 c -1.0352,0.72302 -2.94324,-0.93843 -3.78807,0 -1.07603,1.19524 0.42078,3.19219 0.50507,4.79823 0.10589,2.01753 -0.82559,4.21699 0,6.06091 1.29125,2.88394 6.38605,3.22878 7.07107,6.31345 0.27796,1.25169 -1.84294,2.29594 -1.51523,3.53554 0.78316,2.9624 4.33534,6.23366 7.32361,5.55584 3.04745,-0.69124 3.80989,-5.2465 4.29315,-8.33376 0.23756,-1.51765 -1.60447,-3.26407 -0.75762,-4.54569 1.57579,-2.38479 5.67138,-3.06054 8.33376,-2.0203 1.4135,0.55228 2.01553,2.35871 2.52538,3.78807 1.16503,3.26618 1.1567,4.56504 1.2257,8.18319 0,0 5.42955,-4.91465 8.87583,-5.65781 1.58284,-0.34132 3.21652,1.10418 4.79822,0.75762 3.26128,-0.71457 5.03236,-5.05853 8.33376,-5.55584 3.21312,-0.48402 6.45032,1.29956 9.34391,2.77792 2.45895,1.2563 3.83882,4.61804 6.56599,5.05076 2.73477,0.43393 6.23131,-0.51615 7.82869,-2.77792 2.71946,-3.85056 0.81158,-11.04331 0.53571,-15.87555 -0.16865,-3.00317 -1.98026,-5.45288 -7.79587,-6.62201 -2.16774,-0.35658 -2.18869,-2.04964 -4.86167,0.52674 -2.31587,2.23217 -1.01016,7.32361 -1.01016,9.59645 0,2.27284 -9.81352,3.38421 -12.6269,0.25254 -2.66551,-2.96707 3.32953,-8.31729 1.51522,-11.86929 -1.91917,-3.75729 -8.86951,-2.48696 -11.11167,-6.06092 -2.73219,-4.35506 2.35002,-11.30923 -0.75762,-15.40483 -1.93089,-2.54475 -8.94979,-3.0368 -8.94979,-3.0368 1.12065,3.74104 2.40647,7.97717 -0.64666,10.36041 -2.99415,2.3372 -7.42514,-1.61057 -11.11168,-2.52538 -2.19988,-0.5459 -4.89804,-3.30251 -6.56599,-1.76777 -2.07774,1.91179 0.15878,5.85748 1.51523,8.33376 0.77264,1.41049 2.57608,1.99231 3.53554,3.283 2.96471,3.9882 9.49733,9.37172 6.56599,13.38452 -1.35532,1.85534 -4.58372,-0.47648 -6.81853,-1.01016 -2.07135,-0.49465 -4.30198,-0.81977 -6.06092,-2.0203 -1.6291,-1.11191 -3.48323,-3.81608 -3.48323,-3.81608 0.77719,3.3776 -0.62504,4.80128 -2.83022,6.34146 z"
       style="fill:url(#linearGradient12318);stroke:#000000;stroke-width:2;stroke-linejoin:round;stroke-miterlimit:4;stroke-opacity:1;stroke-dasharray:none;stroke-dashoffset:0;fill-opacity:1.0"
       inkscape:connector-curvature="0"
       sodipodi:nodetypes="ssssssssssscsssscsccsssssccsssssssscs" />
    <path
       sodipodi:nodetypes="cssssscssssssssssccscc"
       inkscape:connector-curvature="0"
       id="path11288"
       d="m 255.31605,859.54931 c 3.10764,3.96933 -1.97457,10.9235 0.75762,15.27856 2.24216,3.57396 9.1925,2.30363 11.11167,6.06092 1.81431,3.552 -4.18073,8.90222 -1.51522,11.86929 2.81338,3.13167 12.6269,2.0203 12.6269,-0.25254 0,-2.27284 -1.30571,-7.36428 1.01016,-9.59645 2.67298,-2.57638 2.69393,-0.88332 4.95621,-0.32651 0,0 0.78593,-7.64309 3.63008,-9.52248 1.40638,-0.92932 3.61438,-0.6297 5.05076,0.25254 1.73491,1.0656 1.32398,4.19274 3.03046,5.3033 2.76605,1.80011 7.20052,2.97918 9.84899,1.01016 1.78862,-1.32976 1.05129,-4.34728 1.26269,-6.566 0.21558,-2.2626 1.35673,-4.99504 0,-6.81853 -1.04923,-1.4102 -3.29796,-1.3839 -5.05076,-1.51522 -3.56145,-0.26682 -7.56856,3.39283 -10.6066,1.51522 -1.81154,-1.11959 -2.65528,-4.02819 -2.02031,-6.06091 0.50199,-1.60701 2.72734,-1.97699 4.04061,-3.03046 2.42155,-1.9425 6.99848,-6.30263 6.99848,-6.30263 -3.79763,-0.55566 -26.51125,-2.68507 -32.78336,-3.96886 -3.53811,-1.35845 -7.2458,-3.23961 -10.04397,-4.7657 -2.72735,-1.48747 3.65572,1.92318 3.65572,1.92318 z"
       style="fill:url(#linearGradient12395);stroke:#000000;stroke-width:2;stroke-linejoin:round;stroke-miterlimit:4;stroke-opacity:1;stroke-dasharray:none;stroke-dashoffset:0;fill-opacity:1.0" />
  </g>
</svg>
