<?xml version="1.0" encoding="UTF-8" standalone="no"?>
<svg
   xmlns:dc="http://purl.org/dc/elements/1.1/"
   xmlns:cc="http://creativecommons.org/ns#"
   xmlns:rdf="http://www.w3.org/1999/02/22-rdf-syntax-ns#"
   xmlns:svg="http://www.w3.org/2000/svg"
   xmlns="http://www.w3.org/2000/svg"
   xmlns:sodipodi="http://sodipodi.sourceforge.net/DTD/sodipodi-0.dtd"
   xmlns:inkscape="http://www.inkscape.org/namespaces/inkscape"
   width="215.207"
   height="134.855"
   id="svg2"
   version="1.1"
   inkscape:version="0.47 r22583"
   sodipodi:docname="fig_diffusion.svg"
   inkscape:export-filename="/Users/oreilly/svn_docs/figs/fig_diffusion.png"
   inkscape:export-xdpi="149.95818"
   inkscape:export-ydpi="149.95818">
  <metadata
     id="metadata84">
    <rdf:RDF>
      <cc:Work
         rdf:about="">
        <dc:format>image/svg+xml</dc:format>
        <dc:type
           rdf:resource="http://purl.org/dc/dcmitype/StillImage" />
        <dc:title></dc:title>
      </cc:Work>
    </rdf:RDF>
  </metadata>
  <sodipodi:namedview
     pagecolor="#ffffff"
     bordercolor="#666666"
     borderopacity="1"
     objecttolerance="10"
     gridtolerance="10"
     guidetolerance="10"
     inkscape:pageopacity="0"
     inkscape:pageshadow="2"
     inkscape:window-width="856"
     inkscape:window-height="864"
     id="namedview82"
     showgrid="false"
     inkscape:zoom="1.8983353"
     inkscape:cx="107.6035"
     inkscape:cy="67.427498"
     inkscape:window-x="603"
     inkscape:window-y="18"
     inkscape:window-maximized="0"
     inkscape:current-layer="svg2" />
  <defs
     id="defs4">
    <inkscape:perspective
       sodipodi:type="inkscape:persp3d"
       inkscape:vp_x="0 : 67.427498 : 1"
       inkscape:vp_y="0 : 1000 : 0"
       inkscape:vp_z="215.207 : 67.427498 : 1"
       inkscape:persp3d-origin="107.6035 : 44.951665 : 1"
       id="perspective86" />
    <marker
       id="ArrowEnd"
       viewBox="0 0 10 10"
       refX="0"
       refY="5"
       markerUnits="strokeWidth"
       markerWidth="4"
       markerHeight="3"
       orient="auto">
      <path
         d="M 0 0 L 10 5 L 0 10 z"
         id="path7" />
    </marker>
    <marker
       id="ArrowStart"
       viewBox="0 0 10 10"
       refX="10"
       refY="5"
       markerUnits="strokeWidth"
       markerWidth="4"
       markerHeight="3"
       orient="auto">
      <path
         d="M 10 0 L 0 5 L 10 10 z"
         id="path10" />
    </marker>
  </defs>
  <rect
     style="fill:#ffffff;fill-opacity:1;fill-rule:nonzero;stroke:#ffffff;stroke-width:1;stroke-miterlimit:10;stroke-opacity:1;stroke-dasharray:none;stroke-dashoffset:0"
     id="rect2969"
     width="217.03226"
     height="135.90855"
     x="0"
     y="-0.52677733" />
  <path
     id="path14"
     d="m 10.0273,124.828 195.1527,0 0,-114.7967 -195.1527,0 0,114.7967 z"
     style="fill:none;stroke:#000000;stroke-width:1.91330004" />
  <path
     id="path18"
     d="m 155.438,32.9883 c 0,-2.11 -1.711,-3.824 -3.825,-3.824 -2.109,0 -3.824,1.711 -3.824,3.824 0,2.109 1.711,3.824 3.824,3.824 2.11,0 3.825,-1.711 3.825,-3.824"
     style="fill:#000000;fill-rule:evenodd;stroke:none" />
  <path
     id="path28"
     d="m 166.918,59.7732 c 0,-2.1093 -1.711,-3.8242 -3.824,-3.8242 -2.109,0 -3.824,1.711 -3.824,3.8242 0,2.1094 1.711,3.8243 3.824,3.8243 2.109,0 3.824,-1.711 3.824,-3.8243"
     style="fill:#000000;fill-rule:evenodd;stroke:none" />
  <path
     id="path32"
     d="m 132.477,98.0389 c 0,-2.1094 -1.711,-3.8243 -3.825,-3.8243 -2.109,0 -3.824,1.711 -3.824,3.8243 0,2.1091 1.711,3.8241 3.824,3.8241 2.11,0 3.825,-1.711 3.825,-3.8241"
     style="fill:#000000;fill-rule:evenodd;stroke:none" />
  <path
     id="path38"
     d="m 140.133,55.949 c 0,-2.1097 -1.711,-3.8237 -3.824,-3.8237 -2.11,0 -3.824,1.71 -3.824,3.8237 0,2.1094 1.71,3.8242 3.824,3.8242 2.109,0 3.824,-1.7109 3.824,-3.8242"
     style="fill:#000000;fill-rule:evenodd;stroke:none" />
  <path
     id="path42"
     d="m 186.051,71.2537 c 0,-2.1094 -1.711,-3.8242 -3.824,-3.8242 -2.11,0 -3.825,1.7109 -3.825,3.8242 0,2.1094 1.711,3.8242 3.825,3.8242 2.109,0 3.824,-1.7109 3.824,-3.8242"
     style="fill:#000000;fill-rule:evenodd;stroke:none" />
  <path
     id="path48"
     d="m 166.918,90.3865 c 0,-2.1094 -1.711,-3.8242 -3.824,-3.8242 -2.109,0 -3.824,1.7109 -3.824,3.8242 0,2.1094 1.711,3.8242 3.824,3.8242 2.109,0 3.824,-1.7109 3.824,-3.8242"
     style="fill:#000000;fill-rule:evenodd;stroke:none" />
  <path
     id="path52"
     d="m 124.824,75.0818 c 0,-2.1093 -1.711,-3.8242 -3.824,-3.8242 -2.109,0 -3.824,1.7109 -3.824,3.8242 0,2.1094 1.711,3.8243 3.824,3.8243 2.11,0 3.824,-1.711 3.824,-3.8243"
     style="fill:#000000;fill-rule:evenodd;stroke:none" />
  <path
     id="path58"
     d="m 124.824,59.7732 -38.2652,0"
     style="fill:none;stroke:#000000;stroke-width:1.91330004" />
  <path
     id="path60"
     d="m 94.2108,61.6873 -7.652,-1.9102 7.652,-1.9101"
     style="fill:none;stroke:#000000;stroke-width:1.91330004" />
  <path
     id="path64"
     d="m 67.4257,59.7732 c 0,-2.1093 -1.7109,-3.8242 -3.8242,-3.8242 -2.1094,0 -3.8242,1.711 -3.8242,3.8242 0,2.1094 1.7109,3.8243 3.8242,3.8243 2.1094,0 3.8242,-1.711 3.8242,-3.8243"
     style="fill:#000000;fill-rule:evenodd;stroke:none" />
  <g
     id="g2937"
     style="fill:#ff0000;stroke:#ff0000">
    <path
       style="fill:#ff0000;stroke:#ff0000;stroke-width:1.91330003999999998"
       d="m 147.785,40.6403 c 0,-2.109 -1.711,-3.824 -3.824,-3.824 -2.109,0 -3.824,1.711 -3.824,3.824 0,2.109 1.711,3.824 3.824,3.824 2.109,0 3.824,-1.711 3.824,-3.824"
       id="path16" />
    <path
       style="fill:#ff0000;stroke:#ff0000;stroke-width:1.91330003999999998"
       d="m 201.356,52.1213 c 0,-2.11 -1.711,-3.825 -3.825,-3.825 -2.109,0 -3.824,1.711 -3.824,3.825 0,2.109 1.711,3.8238 3.824,3.8238 2.11,0 3.825,-1.7108 3.825,-3.8238"
       id="path22" />
    <path
       style="fill:#ff0000;stroke:#ff0000;stroke-width:1.91330003999999998"
       d="m 174.57,94.2146 c 0,-2.1093 -1.71,-3.8242 -3.824,-3.8242 -2.109,0 -3.824,1.711 -3.824,3.8242 0,2.1094 1.711,3.8243 3.824,3.8243 2.11,0 3.824,-1.711 3.824,-3.8243"
       id="path24" />
    <path
       style="fill:#ff0000;stroke:#ff0000;stroke-width:1.91330003999999998"
       d="m 132.477,59.7732 c 0,-2.1093 -1.711,-3.8242 -3.825,-3.8242 -2.109,0 -3.824,1.711 -3.824,3.8242 0,2.1094 1.711,3.8243 3.824,3.8243 2.11,0 3.825,-1.711 3.825,-3.8243"
       id="path26" />
    <path
       style="fill:#ff0000;stroke:#ff0000;stroke-width:1.91330003999999998"
       d="m 151.61,105.695 c 0,-2.109 -1.711,-3.824 -3.825,-3.824 -2.109,0 -3.824,1.711 -3.824,3.824 0,2.11 1.711,3.824 3.824,3.824 2.11,0 3.825,-1.711 3.825,-3.824"
       id="path36" />
    <path
       style="fill:#ff0000;stroke:#ff0000;stroke-width:1.91330003999999998"
       d="m 159.266,98.0389 c 0,-2.1094 -1.711,-3.8243 -3.824,-3.8243 -2.11,0 -3.825,1.711 -3.825,3.8243 0,2.1091 1.711,3.8241 3.825,3.8241 2.109,0 3.824,-1.711 3.824,-3.8241"
       id="path46" />
    <path
       style="fill:#ff0000;stroke:#ff0000;stroke-width:1.91330003999999998"
       d="m 147.785,78.9061 c 0,-2.1094 -1.711,-3.8243 -3.824,-3.8243 -2.109,0 -3.824,1.711 -3.824,3.8243 0,2.1093 1.711,3.8242 3.824,3.8242 2.109,0 3.824,-1.711 3.824,-3.8242"
       id="path56" />
    <path
       style="fill:#ff0000;stroke:#ff0000;stroke-width:1.91330003999999998"
       d="m 101.863,52.1213 c 0,-2.11 -1.711,-3.825 -3.8242,-3.825 -2.109,0 -3.824,1.711 -3.824,3.825 0,2.109 1.711,3.8238 3.824,3.8238 2.1102,0 3.8242,-1.7108 3.8242,-3.8238"
       id="path62" />
    <path
       style="fill:#ff0000;stroke:#ff0000;stroke-width:1.91330003999999998"
       d="m 63.121,80.3435 c 0,-2.1093 -1.7109,-3.8242 -3.8242,-3.8242 -2.1093,0 -3.8242,1.711 -3.8242,3.8242 0,2.1094 1.711,3.8243 3.8242,3.8243 2.1094,0 3.8242,-1.711 3.8242,-3.8243"
       id="path68" />
  </g>
  <path
     id="path70"
     d="m 25.332,75.0818 c 0,-2.1093 -1.711,-3.8242 -3.8242,-3.8242 -2.1094,0 -3.8242,1.7109 -3.8242,3.8242 0,2.1094 1.7109,3.8243 3.8242,3.8243 2.1093,0 3.8242,-1.711 3.8242,-3.8243"
     style="fill:#000000;fill-rule:evenodd;stroke:none" />
  <g
     id="g2926"
     style="fill:#0000ff;stroke:#0000ff">
    <path
       style="fill:#0000ff;stroke:#0000ff;stroke-width:1.91330003999999998"
       d="m 155.438,32.9883 c 0,-2.11 -1.711,-3.824 -3.825,-3.824 -2.109,0 -3.824,1.711 -3.824,3.824 0,2.109 1.711,3.824 3.824,3.824 2.11,0 3.825,-1.711 3.825,-3.824"
       id="path20" />
    <path
       style="fill:#0000ff;stroke:#0000ff;stroke-width:1.91330003999999998"
       d="m 166.918,59.7732 c 0,-2.1093 -1.711,-3.8242 -3.824,-3.8242 -2.109,0 -3.824,1.711 -3.824,3.8242 0,2.1094 1.711,3.8243 3.824,3.8243 2.109,0 3.824,-1.711 3.824,-3.8243"
       id="path30" />
    <path
       style="fill:#0000ff;stroke:#0000ff;stroke-width:1.91330003999999998"
       d="m 132.477,98.0389 c 0,-2.1094 -1.711,-3.8243 -3.825,-3.8243 -2.109,0 -3.824,1.711 -3.824,3.8243 0,2.1091 1.711,3.8241 3.824,3.8241 2.11,0 3.825,-1.711 3.825,-3.8241"
       id="path34" />
    <path
       style="fill:#0000ff;stroke:#0000ff;stroke-width:1.91330003999999998"
       d="m 140.133,55.949 c 0,-2.1097 -1.711,-3.8237 -3.824,-3.8237 -2.11,0 -3.824,1.71 -3.824,3.8237 0,2.1094 1.71,3.8242 3.824,3.8242 2.109,0 3.824,-1.7109 3.824,-3.8242"
       id="path40" />
    <path
       style="fill:#0000ff;stroke:#0000ff;stroke-width:1.91330003999999998"
       d="m 186.051,71.2537 c 0,-2.1094 -1.711,-3.8242 -3.824,-3.8242 -2.11,0 -3.825,1.7109 -3.825,3.8242 0,2.1094 1.711,3.8242 3.825,3.8242 2.109,0 3.824,-1.7109 3.824,-3.8242"
       id="path44" />
    <path
       style="fill:#0000ff;stroke:#0000ff;stroke-width:1.91330003999999998"
       d="m 166.918,90.3865 c 0,-2.1094 -1.711,-3.8242 -3.824,-3.8242 -2.109,0 -3.824,1.7109 -3.824,3.8242 0,2.1094 1.711,3.8242 3.824,3.8242 2.109,0 3.824,-1.7109 3.824,-3.8242"
       id="path50" />
    <path
       style="fill:#0000ff;stroke:#0000ff;stroke-width:1.91330003999999998"
       d="m 124.824,75.0818 c 0,-2.1093 -1.711,-3.8242 -3.824,-3.8242 -2.109,0 -3.824,1.7109 -3.824,3.8242 0,2.1094 1.711,3.8243 3.824,3.8243 2.11,0 3.824,-1.711 3.824,-3.8243"
       id="path54" />
    <path
       style="fill:#0000ff;stroke:#0000ff;stroke-width:1.91330003999999998"
       d="m 67.4257,59.7732 c 0,-2.1093 -1.7109,-3.8242 -3.8242,-3.8242 -2.1094,0 -3.8242,1.711 -3.8242,3.8242 0,2.1094 1.7109,3.8243 3.8242,3.8243 2.1094,0 3.8242,-1.711 3.8242,-3.8243"
       id="path66" />
    <path
       style="fill:#0000ff;stroke:#0000ff;stroke-width:1.91330003999999998"
       d="m 25.332,75.0818 c 0,-2.1093 -1.711,-3.8242 -3.8242,-3.8242 -2.1094,0 -3.8242,1.7109 -3.8242,3.8242 0,2.1094 1.7109,3.8243 3.8242,3.8243 2.1093,0 3.8242,-1.711 3.8242,-3.8243"
       id="path72" />
  </g>
  <path
     id="path74"
     d="m 105.692,78.9061 0,45.9179"
     style="fill:none;stroke:#000000;stroke-width:1.91330004" />
  <path
     id="path76"
     d="m 105.692,10.0273 0,45.9178"
     style="fill:none;stroke:#000000;stroke-width:1.91330004" />
  <path
     id="path78"
     d="m 118.129,74.1248 -38.2662,0"
     style="fill:none;stroke:#000000;stroke-width:1.91330004" />
  <path
     id="path80"
     d="m 87.5158,76.0389 -7.653,-1.9102 7.653,-1.9102"
     style="fill:none;stroke:#000000;stroke-width:1.91330004" />
</svg>
