<?xml version="1.0" encoding="ISO-8859-1" standalone="yes"?>
<svg width="167.371" height="87.7446">
  <defs> 
    <marker id="ArrowEnd" viewBox="0 0 10 10" refX="0" refY="5" 
     markerUnits="strokeWidth" 
     markerWidth="4" 
     markerHeight="3" 
     orient="auto"> 
        <path d="M 0 0 L 10 5 L 0 10 z" /> 
    </marker>
    <marker id="ArrowStart" viewBox="0 0 10 10" refX="10" refY="5" 
     markerUnits="strokeWidth" 
     markerWidth="4" 
     markerHeight="3" 
     orient="auto"> 
        <path d="M 10 0 L 0 5 L 10 10 z" /> 
    </marker> </defs>
<g>
<path style="stroke:#000000; stroke-width:1.9133; fill:none" d="M 32.9804 35.6274C 32.9804 29.2875 27.8437 24.1508 21.5039 24.1508C 15.164 24.1508 10.0273 29.2875 10.0273 35.6274C 10.0273 41.9672 15.164 47.1039 21.5039 47.1039C 27.8437 47.1039 32.9804 41.9672 32.9804 35.6274"/>
<path style="stroke:#000000; stroke-width:1.9133; fill:none" d="M 71.246 35.6274C 71.246 29.2875 66.1093 24.1508 59.7695 24.1508C 53.4296 24.1508 48.2929 29.2875 48.2929 35.6274C 48.2929 41.9672 53.4296 47.1039 59.7695 47.1039C 66.1093 47.1039 71.246 41.9672 71.246 35.6274"/>
<path style="stroke:none; fill-rule:evenodd; fill:#000000" d="M 56.8085 39.0609L 60.6171 39.0609C 61.414 39.0609 62.0039 38.8422 62.457 38.3617C 62.871 37.9242 63.1054 37.3266 63.1054 36.6703C 63.1054 35.6586 62.6328 35.0453 61.5312 34.6352C 62.2968 34.2797 62.7031 33.6586 62.7031 32.807C 62.7031 32.1977 62.4765 31.6586 62.0351 31.2641C 61.5976 30.8617 61.0234 30.6781 60.2148 30.6781L 56.8046 30.6781L 56.8085 39.0609zM 57.9101 34.3617L 57.9101 31.5648L 59.9531 31.5648C 60.5429 31.5648 60.871 31.6469 61.1523 31.8774C 61.4453 32.1156 61.6054 32.4789 61.6054 32.9633C 61.6054 33.432 61.4492 33.807 61.1523 34.0492C 60.871 34.2758 60.5429 34.3617 59.9531 34.3617L 57.9101 34.3617zM 57.9101 38.1586L 57.9101 35.2602L 60.5078 35.2602C 61.0195 35.2602 61.3632 35.3852 61.6171 35.6625C 61.8671 35.9281 62.0039 36.2953 62.0039 36.7133C 62.0039 37.1156 61.8671 37.4867 61.6171 37.7524C 61.3671 38.0258 61.0234 38.1547 60.5078 38.1547L 57.9101 38.1586z"/>
<path style="stroke:#000000; stroke-width:2.8699499999999998; fill:none" d="M 32.9804 35.6274L 48.2851 35.6274"/>
<path style="stroke:#000000; stroke-width:2.8699499999999998; fill:none" d="M 40.6328 33.7172L 48.2851 35.6274L 40.6328 37.5375"/>
<path style="stroke:none; fill-rule:evenodd; fill:#000000" d="M 19.7499 36.5609L 20.6093 39.0609L 21.8007 39.0609L 18.8632 30.6625L 17.4882 30.6625L 14.5039 39.0609L 15.6367 39.0609L 16.5195 36.5609L 19.7499 36.5609zM 19.4531 35.6586L 16.7929 35.6586L 18.1679 31.8383L 19.4531 35.6586z"/>
<path style="stroke:none; fill-rule:evenodd; fill:#000000" d="M 25.0078 33.2914L 25.0078 39.057L 26.0078 39.057L 26.0078 30.9594L 25.3398 30.9594C 24.9843 32.2016 24.7539 32.3734 23.1835 32.5688L 23.1835 33.2875L 25.0078 33.2914z"/>
<path style="stroke:#000000; stroke-width:1.9133; fill:none" d="M 119.078 35.6274C 119.078 29.2875 113.941 24.1508 107.601 24.1508C 101.262 24.1508 96.1251 29.2875 96.1251 35.6274C 96.1251 41.9672 101.262 47.1039 107.601 47.1039C 113.941 47.1039 119.078 41.9672 119.078 35.6274"/>
<path style="stroke:#000000; stroke-width:1.9133; fill:none" d="M 157.344 66.2406C 157.344 59.9008 152.207 54.7641 145.867 54.7641C 139.527 54.7641 134.39 59.9008 134.39 66.2406C 134.39 72.5806 139.527 77.7172 145.867 77.7172C 152.207 77.7172 157.344 72.5806 157.344 66.2406"/>
<path style="stroke:#000000; stroke-width:1.9133; fill:none" d="M 157.344 35.6274C 157.344 29.2875 152.207 24.1508 145.867 24.1508C 139.527 24.1508 134.39 29.2875 134.39 35.6274C 134.39 41.9672 139.527 47.1039 145.867 47.1039C 152.207 47.1039 157.344 41.9672 157.344 35.6274"/>
<path style="stroke:none; fill-rule:evenodd; fill:#000000" d="M 142.91 39.0609L 146.719 39.0609C 147.515 39.0609 148.105 38.8422 148.558 38.3617C 148.972 37.9242 149.207 37.3266 149.207 36.6703C 149.207 35.6586 148.734 35.0453 147.633 34.6352C 148.398 34.2797 148.805 33.6586 148.805 32.807C 148.805 32.1977 148.578 31.6586 148.137 31.2641C 147.699 30.8617 147.125 30.6781 146.316 30.6781L 142.906 30.6781L 142.91 39.0609zM 144.008 34.3617L 144.008 31.5648L 146.051 31.5648C 146.64 31.5648 146.969 31.6469 147.25 31.8774C 147.543 32.1156 147.703 32.4789 147.703 32.9633C 147.703 33.432 147.547 33.807 147.25 34.0492C 146.969 34.2758 146.64 34.3617 146.051 34.3617L 144.008 34.3617zM 144.008 38.1586L 144.008 35.2602L 146.605 35.2602C 147.117 35.2602 147.461 35.3852 147.715 35.6625C 147.965 35.9281 148.101 36.2953 148.101 36.7133C 148.101 37.1156 147.965 37.4867 147.715 37.7524C 147.465 38.0258 147.121 38.1547 146.605 38.1547L 144.008 38.1586z"/>
<path style="stroke:none; fill-rule:evenodd; fill:#000000" d="M 149.609 63.8852C 149.273 62.057 148.211 61.1625 146.359 61.1625C 145.226 61.1625 144.316 61.518 143.691 62.2094C 142.93 63.0375 142.515 64.2328 142.515 65.5922C 142.515 66.9711 142.941 68.1586 143.738 68.975C 144.383 69.6431 145.215 69.9516 146.312 69.9516C 148.367 69.9516 149.523 68.8383 149.781 66.6L 148.676 66.6C 148.586 67.1898 148.472 67.5922 148.297 67.9359C 147.953 68.6469 147.238 69.0492 146.344 69.0492C 144.676 69.0492 143.617 67.6977 143.617 65.5766C 143.617 63.3969 144.629 62.0531 146.254 62.0531C 146.93 62.0531 147.566 62.2641 147.91 62.5883C 148.219 62.8813 148.39 63.2406 148.519 63.8734L 149.609 63.8852z"/>
<path style="stroke:#000000; stroke-width:2.8699499999999998; fill:none" d="M 119.078 35.6274L 134.383 35.6274"/>
<path style="stroke:#000000; stroke-width:2.8699499999999998; fill:none" d="M 126.73 33.7172L 134.383 35.6274L 126.73 37.5375"/>
<path style="stroke:#000000; stroke-width:1.9133; fill:none" d="M 119.078 66.2406C 119.078 59.9008 113.941 54.7641 107.601 54.7641C 101.262 54.7641 96.1251 59.9008 96.1251 66.2406C 96.1251 72.5806 101.262 77.7172 107.601 77.7172C 113.941 77.7172 119.078 72.5806 119.078 66.2406"/>
<path style="stroke:#000000; stroke-width:2.8699499999999998; fill:none" d="M 119.078 66.2406L 134.383 66.2406"/>
<path style="stroke:#000000; stroke-width:2.8699499999999998; fill:none" d="M 126.73 64.3306L 134.383 66.2406L 126.73 68.1508"/>
<path style="stroke:none; fill-rule:evenodd; fill:#000000" d="M 105.848 36.5609L 106.707 39.0609L 107.898 39.0609L 104.961 30.6625L 103.586 30.6625L 100.601 39.0609L 101.734 39.0609L 102.617 36.5609L 105.848 36.5609zM 105.551 35.6586L 102.89 35.6586L 104.265 31.8383L 105.551 35.6586z"/>
<path style="stroke:none; fill-rule:evenodd; fill:#000000" d="M 111.109 33.2914L 111.109 39.057L 112.109 39.057L 112.109 30.9594L 111.441 30.9594C 111.086 32.2016 110.855 32.3734 109.285 32.5688L 109.285 33.2875L 111.109 33.2914z"/>
<path style="stroke:none; fill-rule:evenodd; fill:#000000" d="M 105.848 67.1586L 106.707 69.6586L 107.898 69.6586L 104.961 61.2602L 103.586 61.2602L 100.601 69.6586L 101.734 69.6586L 102.617 67.1586L 105.848 67.1586zM 105.551 66.2602L 102.89 66.2602L 104.265 62.4398L 105.551 66.2602z"/>
<path style="stroke:none; fill-rule:evenodd; fill:#000000" d="M 113.851 68.6586L 109.625 68.6586C 109.726 67.9984 110.09 67.5766 111.074 66.9945L 112.207 66.3813C 113.328 65.7681 113.906 64.932 113.906 63.9398C 113.906 63.268 113.637 62.6391 113.16 62.2055C 112.687 61.7719 112.098 61.5688 111.336 61.5688C 110.316 61.5688 109.558 61.9281 109.117 62.6078C 108.836 63.0375 108.711 63.5336 108.687 64.35L 109.687 64.35C 109.719 63.8188 109.789 63.4945 109.926 63.2367C 110.187 62.7602 110.711 62.4672 111.312 62.4672C 112.222 62.4672 112.906 63.1156 112.906 63.9828C 112.906 64.6195 112.531 65.1664 111.812 65.5766L 110.765 66.1664C 109.082 67.1195 108.59 67.8852 108.5 69.6625L 113.851 69.6625L 113.851 68.6586z"/>
<path style="stroke:none; fill-rule:evenodd; fill:#000000" d="M 8.207 4.86165L 7.1093 4.86165L 7.1093 13.2602L 12.3085 13.2602L 12.3085 12.3617L 8.21091 12.3617L 8.207 4.86165z"/>
<path style="stroke:none; fill-rule:evenodd; fill:#000000" d="M 14.3085 7.26064L 13.3085 7.26064L 13.3085 13.2602L 14.3085 13.2602L 14.3085 7.26064zM 14.3085 4.86165L 13.3085 4.86165L 13.3085 6.09665L 14.3085 6.09665L 14.3085 4.86165z"/>
<path style="stroke:none; fill-rule:evenodd; fill:#000000" d="M 20.1367 8.92065C 20.1249 7.73264 19.3398 7.06065 17.9374 7.06065C 16.5273 7.06065 15.6132 7.78764 15.6132 8.90865C 15.6132 9.85365 16.1015 10.3036 17.5507 10.6506L 18.4609 10.8696C 19.1367 11.0296 19.4062 11.2716 19.4062 11.7096C 19.4062 12.2719 18.8398 12.6547 17.996 12.6547C 17.4765 12.6547 17.039 12.5063 16.7968 12.2484C 16.6484 12.0766 16.5781 11.9006 16.5195 11.4676L 15.5039 11.4676C 15.5468 12.8774 16.332 13.557 17.914 13.557C 19.4374 13.557 20.4062 12.807 20.4062 11.6426C 20.4062 10.7446 19.8945 10.2486 18.6796 9.95965L 17.746 9.74065C 16.9531 9.55665 16.6132 9.30364 16.6132 8.87765C 16.6132 8.32664 17.1093 7.96764 17.8984 7.96764C 18.6718 7.96764 19.0898 8.29565 19.1132 8.92464L 20.1367 8.92065z"/>
<path style="stroke:none; fill-rule:evenodd; fill:#000000" d="M 23.8085 7.26064L 22.9101 7.26064L 22.9101 5.59264L 21.9101 5.59264L 21.9101 7.26064L 21.0117 7.26064L 21.0117 8.05665L 21.9101 8.05665L 21.9101 12.6039C 21.9101 13.2094 22.3124 13.5531 23.0429 13.5531C 23.2656 13.5531 23.4921 13.5297 23.8046 13.4711L 23.8046 12.6352C 23.6913 12.725 23.5546 12.7524 23.3867 12.7524C 23.0117 12.7524 22.9062 12.6391 22.9062 12.2094L 22.9062 8.05665L 23.8046 8.05665L 23.8085 7.26064z"/>
<path style="stroke:none; fill-rule:evenodd; fill:#000000" d="M 30.207 7.49065L 30.207 13.2563L 31.207 13.2563L 31.207 5.15865L 30.539 5.15865C 30.1835 6.40064 29.9531 6.57265 28.3828 6.76765L 28.3828 7.48665L 30.207 7.49065z"/>
<path style="stroke:none; fill-rule:evenodd; fill:#000000" d="M 36.1093 12.0606L 34.9101 12.0606L 34.9101 13.2602L 36.1093 13.2602L 36.1093 12.0606zM 36.1093 7.26064L 34.9101 7.26064L 34.9101 8.45965L 36.1093 8.45965L 36.1093 7.26064z"/>
<path style="stroke:none; fill-rule:evenodd; fill:#000000" d="M 45.4492 10.7606L 46.3085 13.2602L 47.4999 13.2602L 44.5624 4.86165L 43.1874 4.86165L 40.2031 13.2602L 41.3359 13.2602L 42.2187 10.7606L 45.4492 10.7606zM 45.1523 9.86165L 42.4921 9.86165L 43.8671 6.04165L 45.1523 9.86165z"/>
<path style="stroke:none; fill-rule:evenodd; fill:#000000" d="M 48.207 10.9596L 54.0039 10.9596L 54.0039 10.1626L 48.207 10.1626L 48.207 10.9596z"/>
<path style="stroke:none; fill-rule:evenodd; fill:#000000" d="M 60.5976 10.1936L 54.9843 7.81865L 54.9843 8.72465L 59.5039 10.6036L 54.9843 12.4516L 54.9843 13.3578L 60.5976 10.9826L 60.5976 10.1936z"/>
<path style="stroke:none; fill-rule:evenodd; fill:#000000" d="M 62.0078 13.2602L 65.8163 13.2602C 66.6132 13.2602 67.2031 13.0414 67.6562 12.5609C 68.0703 12.1236 68.3046 11.5256 68.3046 10.8696C 68.3046 9.85764 67.832 9.24464 66.7304 8.83465C 67.496 8.47865 67.9023 7.85764 67.9023 7.00665C 67.9023 6.39664 67.6757 5.85764 67.2343 5.46365C 66.7968 5.06065 66.2226 4.87765 65.414 4.87765L 62.0039 4.87765L 62.0078 13.2602zM 63.1093 8.56065L 63.1093 5.76365L 65.1523 5.76365C 65.7421 5.76365 66.0703 5.84665 66.3515 6.07664C 66.6445 6.31464 66.8046 6.67864 66.8046 7.16264C 66.8046 7.63165 66.6484 8.00665 66.3515 8.24864C 66.0703 8.47465 65.7421 8.56065 65.1523 8.56065L 63.1093 8.56065zM 63.1093 12.3617L 63.1093 9.46365L 65.707 9.46365C 66.2187 9.46365 66.5624 9.58865 66.8163 9.86565C 67.0663 10.1316 67.2031 10.4986 67.2031 10.9166C 67.2031 11.3186 67.0663 11.6896 66.8163 11.9556C 66.5663 12.2289 66.2226 12.3578 65.707 12.3578L 63.1093 12.3617z"/>
<path style="stroke:none; fill-rule:evenodd; fill:#000000" d="M 98.1091 4.86165L 97.0121 4.86165L 97.0121 13.2602L 102.211 13.2602L 102.211 12.3617L 98.1131 12.3617L 98.1091 4.86165z"/>
<path style="stroke:none; fill-rule:evenodd; fill:#000000" d="M 104.207 7.26064L 103.207 7.26064L 103.207 13.2602L 104.207 13.2602L 104.207 7.26064zM 104.207 4.86165L 103.207 4.86165L 103.207 6.09665L 104.207 6.09665L 104.207 4.86165z"/>
<path style="stroke:none; fill-rule:evenodd; fill:#000000" d="M 110.035 8.92065C 110.023 7.73264 109.238 7.06065 107.836 7.06065C 106.426 7.06065 105.512 7.78764 105.512 8.90865C 105.512 9.85365 106 10.3036 107.449 10.6506L 108.359 10.8696C 109.035 11.0296 109.305 11.2716 109.305 11.7096C 109.305 12.2719 108.738 12.6547 107.894 12.6547C 107.375 12.6547 106.937 12.5063 106.695 12.2484C 106.547 12.0766 106.476 11.9006 106.418 11.4676L 105.402 11.4676C 105.445 12.8774 106.23 13.557 107.812 13.557C 109.336 13.557 110.305 12.807 110.305 11.6426C 110.305 10.7446 109.793 10.2486 108.578 9.95965L 107.644 9.74065C 106.851 9.55665 106.512 9.30364 106.512 8.87765C 106.512 8.32664 107.008 7.96764 107.797 7.96764C 108.57 7.96764 108.988 8.29565 109.012 8.92464L 110.035 8.92065z"/>
<path style="stroke:none; fill-rule:evenodd; fill:#000000" d="M 113.707 7.26064L 112.808 7.26064L 112.808 5.59264L 111.808 5.59264L 111.808 7.26064L 110.91 7.26064L 110.91 8.05665L 111.808 8.05665L 111.808 12.6039C 111.808 13.2094 112.211 13.5531 112.941 13.5531C 113.164 13.5531 113.39 13.5297 113.703 13.4711L 113.703 12.6352C 113.59 12.725 113.453 12.7524 113.285 12.7524C 112.91 12.7524 112.805 12.6391 112.805 12.2094L 112.805 8.05665L 113.703 8.05665L 113.707 7.26064z"/>
<path style="stroke:none; fill-rule:evenodd; fill:#000000" d="M 122.953 12.2602L 118.726 12.2602C 118.828 11.5996 119.191 11.1786 120.176 10.5966L 121.308 9.98264C 122.43 9.36964 123.008 8.53365 123.008 7.54165C 123.008 6.86964 122.738 6.24065 122.262 5.80665C 121.789 5.37364 121.199 5.17065 120.437 5.17065C 119.418 5.17065 118.66 5.52965 118.219 6.20965C 117.937 6.63865 117.812 7.13564 117.789 7.95164L 118.789 7.95164C 118.82 7.42065 118.89 7.09665 119.027 6.83865C 119.289 6.36165 119.812 6.06865 120.414 6.06865C 121.324 6.06865 122.008 6.71764 122.008 7.58465C 122.008 8.22064 121.633 8.76765 120.914 9.17864L 119.867 9.76765C 118.183 10.7206 117.691 11.4866 117.601 13.2641L 122.953 13.2641L 122.953 12.2602z"/>
<path style="stroke:none; fill-rule:evenodd; fill:#000000" d="M 126.008 12.0606L 124.808 12.0606L 124.808 13.2602L 126.008 13.2602L 126.008 12.0606zM 126.008 7.26064L 124.808 7.26064L 124.808 8.45965L 126.008 8.45965L 126.008 7.26064z"/>
<path style="stroke:none; fill-rule:evenodd; fill:#000000" d="M 135.348 10.7606L 136.207 13.2602L 137.398 13.2602L 134.461 4.86165L 133.086 4.86165L 130.101 13.2602L 131.234 13.2602L 132.117 10.7606L 135.348 10.7606zM 135.051 9.86165L 132.39 9.86165L 133.765 6.04165L 135.051 9.86165z"/>
<path style="stroke:none; fill-rule:evenodd; fill:#000000" d="M 138.109 10.9596L 143.906 10.9596L 143.906 10.1626L 138.109 10.1626L 138.109 10.9596z"/>
<path style="stroke:none; fill-rule:evenodd; fill:#000000" d="M 150.496 10.1936L 144.883 7.81865L 144.883 8.72465L 149.402 10.6036L 144.883 12.4516L 144.883 13.3578L 150.496 10.9826L 150.496 10.1936z"/>
<path style="stroke:none; fill-rule:evenodd; fill:#000000" d="M 158.609 7.48665C 158.273 5.65865 157.211 4.76365 155.359 4.76365C 154.226 4.76365 153.316 5.11964 152.691 5.81065C 151.93 6.63865 151.515 7.83465 151.515 9.19365C 151.515 10.5726 151.941 11.7606 152.738 12.5766C 153.383 13.2445 154.215 13.5531 155.312 13.5531C 157.367 13.5531 158.523 12.4398 158.781 10.2016L 157.676 10.2016C 157.586 10.7916 157.472 11.1936 157.297 11.5376C 156.953 12.2484 156.238 12.6508 155.344 12.6508C 153.676 12.6508 152.617 11.2996 152.617 9.17864C 152.617 6.99864 153.629 5.65465 155.254 5.65465C 155.93 5.65465 156.566 5.86565 156.91 6.18964C 157.219 6.48264 157.39 6.84264 157.519 7.47465L 158.609 7.48665z"/>
<path style="stroke:#000000; stroke-dasharray:6,3; stroke-width:0.95664899999999997; fill:none" d="M 84.6401 5.01365L 84.6401 81.5453"/>
</g>
</svg>