<?xml version="1.0" encoding="ISO-8859-1" standalone="yes"?>
<svg width="299.365" height="235.769">
  <defs> 
    <marker id="ArrowEnd" viewBox="0 0 10 10" refX="0" refY="5" 
     markerUnits="strokeWidth" 
     markerWidth="4" 
     markerHeight="3" 
     orient="auto"> 
        <path d="M 0 0 L 10 5 L 0 10 z" /> 
    </marker>
    <marker id="ArrowStart" viewBox="0 0 10 10" refX="10" refY="5" 
     markerUnits="strokeWidth" 
     markerWidth="4" 
     markerHeight="3" 
     orient="auto"> 
        <path d="M 10 0 L 0 5 L 10 10 z" /> 
    </marker> </defs>
<g>
<path style="stroke:none; fill-rule:evenodd; fill:#ffffff" d="M 0.550301 235.245L 297.882 235.245L 297.882 3.88208L 0.550301 3.88208L 0.550301 235.245z"/>
<path style="stroke:#ffffff; stroke-width:0.10000000000000001; fill:none" d="M 0.550301 235.245L 297.882 235.245L 297.882 3.88208L 0.550301 3.88208L 0.550301 235.245z"/>
<path style="stroke:#ff0000; stroke-dasharray:6,3; stroke-width:1.9133; fill:none" d="M 258.206 120.995L 220.444 195.089"/>
<path style="stroke:#ed89ed; stroke-dasharray:6,3; stroke-width:2.8699499999999998; fill:none" d="M 113.843 148.241L 149.214 112.87"/>
<path style="stroke:#ed89ed; stroke-dasharray:6,3; stroke-width:2.8699499999999998; fill:none" d="M 103.804 190.788L 121.968 119.085"/>
<path style="stroke:none; fill-rule:evenodd; fill:#00ffff" d="M 237.874 210.339C 237.874 199.776 223.316 191.206 205.351 191.206C 187.39 191.206 172.827 199.768 172.827 210.339C 172.827 220.901 187.39 229.472 205.351 229.472C 223.312 229.472 237.874 220.909 237.874 210.339"/>
<path style="stroke:#000000; stroke-width:0.95664899999999997; fill:none" d="M 237.874 210.339C 237.874 199.776 223.316 191.206 205.351 191.206C 187.39 191.206 172.827 199.768 172.827 210.339C 172.827 220.901 187.39 229.472 205.351 229.472C 223.312 229.472 237.874 220.909 237.874 210.339"/>
<path style="stroke:none; fill-rule:evenodd; fill:#000000" d="M 202.589 207.858C 202.581 206.222 201.46 205.272 199.546 205.272C 197.722 205.272 196.593 206.222 196.593 207.749C 196.593 208.776 197.124 209.429 198.214 209.718L 200.269 210.272C 201.312 210.55 201.788 210.976 201.788 211.636C 201.788 212.085 201.55 212.55 201.202 212.804C 200.874 213.034 200.355 213.159 199.687 213.159C 198.792 213.159 198.183 212.933 197.788 212.433C 197.484 212.054 197.347 211.636 197.398 211.097L 196.398 211.097C 196.405 211.874 196.554 212.386 196.882 212.851C 197.448 213.64 198.401 214.058 199.659 214.058C 200.644 214.058 201.448 213.831 201.984 213.413C 202.538 212.968 202.89 212.218 202.89 211.491C 202.89 210.456 202.257 209.698 201.132 209.386L 199.058 208.823C 198.062 208.55 197.698 208.226 197.698 207.581C 197.698 206.729 198.433 206.163 199.538 206.163C 200.847 206.163 201.581 206.765 201.593 207.851L 202.589 207.858z"/>
<path style="stroke:none; fill-rule:evenodd; fill:#000000" d="M 210.886 205.37L 209.886 205.37L 209.886 212.241L 205.538 205.37L 204.39 205.37L 204.39 213.768L 205.39 213.768L 205.39 206.987L 209.691 213.768L 210.886 213.768L 210.886 205.37z"/>
<path style="stroke:none; fill-rule:evenodd; fill:#000000" d="M 212.487 207.745L 212.487 213.768L 213.487 213.768L 213.487 210.636C 213.487 209.772 213.698 209.21 214.148 208.874C 214.437 208.655 214.718 208.589 215.37 208.577L 215.37 207.612C 215.214 207.593 215.136 207.581 215.011 207.581C 214.401 207.581 213.937 207.948 213.39 208.843L 213.39 207.753L 212.487 207.745z"/>
<path style="stroke:#000000; stroke-width:0.95664899999999997; fill:none" d="M 147.05 30.1431C 147.05 19.7721 122.409 11.3621 92.0153 11.3621C 61.6203 11.3621 36.9803 19.7721 36.9803 30.1431C 36.9803 40.5151 61.6203 48.9251 92.0153 48.9251C 122.409 48.9251 147.05 40.5151 147.05 30.1431"/>
<path style="stroke:none; fill-rule:evenodd; fill:#000000" d="M 51.9873 29.9721L 54.6283 29.9721C 55.2843 29.9721 55.8043 29.7801 56.2573 29.3781C 56.7653 28.9251 56.9843 28.3861 56.9843 27.6201C 56.9843 26.0581 56.0463 25.1751 54.3743 25.1751L 50.8863 25.1751L 50.8863 33.5731L 51.9843 33.5731L 51.9873 29.9721zM 51.9873 29.0731L 51.9873 26.0731L 54.2373 26.0731C 55.2693 26.0731 55.8863 26.6361 55.8863 27.5731C 55.8863 28.5071 55.2733 29.0731 54.2373 29.0731L 51.9873 29.0731z"/>
<path style="stroke:none; fill-rule:evenodd; fill:#000000" d="M 60.7263 27.3701C 59.0233 27.3701 57.9913 28.5851 57.9913 30.6201C 57.9913 32.6551 59.0113 33.8701 60.7413 33.8701C 62.4443 33.8701 63.4913 32.6591 63.4913 30.6711C 63.4913 28.5811 62.4843 27.3781 60.7343 27.3781L 60.7263 27.3701zM 60.7373 28.2721C 61.8313 28.2721 62.4873 29.1591 62.4873 30.6551C 62.4873 32.0691 61.8123 32.9681 60.7373 32.9681C 59.6553 32.9681 58.9873 32.0811 58.9873 30.6201C 58.9873 29.1711 59.6513 28.2721 60.7373 28.2721z"/>
<path style="stroke:none; fill-rule:evenodd; fill:#000000" d="M 69.0153 29.2331C 69.0033 28.0461 68.2183 27.3741 66.8163 27.3741C 65.4053 27.3741 64.4913 28.1001 64.4913 29.2221C 64.4913 30.1671 64.9803 30.6161 66.4293 30.9641L 67.3393 31.1821C 68.0153 31.3431 68.2843 31.5851 68.2843 32.0221C 68.2843 32.5851 67.7183 32.9681 66.8743 32.9681C 66.3553 32.9681 65.9173 32.8191 65.6753 32.5611C 65.5273 32.3901 65.4563 32.2141 65.3983 31.7801L 64.3823 31.7801C 64.4253 33.1901 65.2103 33.8701 66.7923 33.8701C 68.3163 33.8701 69.2843 33.1201 69.2843 31.9561C 69.2843 31.0581 68.7733 30.5611 67.5583 30.2721L 66.6243 30.0541C 65.8313 29.8701 65.4913 29.6161 65.4913 29.1901C 65.4913 28.6401 65.9873 28.2801 66.7773 28.2801C 67.5503 28.2801 67.9683 28.6081 67.9913 29.2371L 69.0153 29.2331z"/>
<path style="stroke:none; fill-rule:evenodd; fill:#000000" d="M 72.5893 27.5731L 71.6913 27.5731L 71.6913 25.9051L 70.6913 25.9051L 70.6913 27.5731L 69.7923 27.5731L 69.7923 28.3701L 70.6913 28.3701L 70.6913 32.9171C 70.6913 33.5221 71.0933 33.8661 71.8233 33.8661C 72.0463 33.8661 72.2733 33.8431 72.5853 33.7841L 72.5853 32.9481C 72.4723 33.0381 72.3353 33.0651 72.1673 33.0651C 71.7923 33.0651 71.6873 32.9521 71.6873 32.5221L 71.6873 28.3701L 72.5853 28.3701L 72.5893 27.5731z"/>
<path style="stroke:none; fill-rule:evenodd; fill:#000000" d="M 78.7883 30.8701C 78.7883 29.9521 78.7223 29.4011 78.5503 28.9561C 78.1633 27.9721 77.2493 27.3741 76.1323 27.3741C 74.4683 27.3741 73.3943 28.6671 73.3943 30.6551C 73.3943 32.6431 74.4293 33.8701 76.1053 33.8701C 77.4683 33.8701 78.4133 33.0771 78.6553 31.7451L 77.7023 31.7451C 77.4413 32.5501 76.9093 32.9681 76.1483 32.9681C 75.5463 32.9681 75.0343 32.6901 74.7183 32.1751C 74.4913 31.8271 74.4133 31.4751 74.4013 30.8701L 78.7883 30.8701zM 74.3663 30.1041C 74.4443 28.9911 75.1243 28.2681 76.0853 28.2681C 77.0233 28.2681 77.7493 29.0461 77.7493 30.0341C 77.7493 30.0541 77.7493 30.0771 77.7373 30.1001L 74.3663 30.1041z"/>
<path style="stroke:none; fill-rule:evenodd; fill:#000000" d="M 80.0893 27.5461L 80.0893 33.5691L 81.0893 33.5691L 81.0893 30.4361C 81.0893 29.5731 81.3003 29.0111 81.7493 28.6751C 82.0383 28.4561 82.3193 28.3901 82.9723 28.3781L 82.9723 27.4131C 82.8163 27.3931 82.7373 27.3821 82.6123 27.3821C 82.0033 27.3821 81.5383 27.7491 80.9913 28.6431L 80.9913 27.5541L 80.0893 27.5461z"/>
<path style="stroke:none; fill-rule:evenodd; fill:#000000" d="M 84.7883 27.5731L 83.7883 27.5731L 83.7883 33.5731L 84.7883 33.5731L 84.7883 27.5731zM 84.7883 25.1711L 83.7883 25.1711L 83.7883 26.4051L 84.7883 26.4051L 84.7883 25.1711z"/>
<path style="stroke:none; fill-rule:evenodd; fill:#000000" d="M 88.8233 27.3701C 87.1203 27.3701 86.0893 28.5851 86.0893 30.6201C 86.0893 32.6551 87.1093 33.8701 88.8393 33.8701C 90.5423 33.8701 91.5893 32.6591 91.5893 30.6711C 91.5893 28.5811 90.5813 27.3781 88.8313 27.3781L 88.8233 27.3701zM 88.8393 28.2721C 89.9333 28.2721 90.5893 29.1591 90.5893 30.6551C 90.5893 32.0691 89.9133 32.9681 88.8393 32.9681C 87.7573 32.9681 87.0893 32.0811 87.0893 30.6201C 87.0893 29.1711 87.7533 28.2721 88.8393 28.2721z"/>
<path style="stroke:none; fill-rule:evenodd; fill:#000000" d="M 92.7883 27.5461L 92.7883 33.5691L 93.7883 33.5691L 93.7883 30.4361C 93.7883 29.5731 93.9993 29.0111 94.4483 28.6751C 94.7373 28.4561 95.0193 28.3901 95.6713 28.3781L 95.6713 27.4131C 95.5153 27.3931 95.4373 27.3821 95.3123 27.3821C 94.7023 27.3821 94.2373 27.7491 93.6913 28.6431L 93.6913 27.5541L 92.7883 27.5461z"/>
<path style="stroke:none; fill-rule:evenodd; fill:#000000" d="M 106.687 27.8001C 106.351 25.9721 105.288 25.0771 103.437 25.0771C 102.304 25.0771 101.394 25.4321 100.769 26.1241C 100.007 26.9521 99.5933 28.1471 99.5933 29.5071C 99.5933 30.8861 100.019 32.0731 100.816 32.8901C 101.46 33.5581 102.292 33.8661 103.39 33.8661C 105.444 33.8661 106.601 32.7531 106.859 30.5151L 105.753 30.5151C 105.663 31.1041 105.55 31.5071 105.374 31.8501C 105.03 32.5611 104.316 32.9641 103.421 32.9641C 101.753 32.9641 100.694 31.6121 100.694 29.4911C 100.694 27.3111 101.706 25.9681 103.331 25.9681C 104.007 25.9681 104.644 26.1791 104.987 26.5031C 105.296 26.7961 105.468 27.1551 105.597 27.7881L 106.687 27.8001z"/>
<path style="stroke:none; fill-rule:evenodd; fill:#000000" d="M 110.425 27.3701C 108.722 27.3701 107.691 28.5851 107.691 30.6201C 107.691 32.6551 108.71 33.8701 110.441 33.8701C 112.144 33.8701 113.191 32.6591 113.191 30.6711C 113.191 28.5811 112.183 27.3781 110.433 27.3781L 110.425 27.3701zM 110.437 28.2721C 111.53 28.2721 112.187 29.1591 112.187 30.6551C 112.187 32.0691 111.511 32.9681 110.437 32.9681C 109.355 32.9681 108.687 32.0811 108.687 30.6201C 108.687 29.1711 109.351 28.2721 110.437 28.2721z"/>
<path style="stroke:none; fill-rule:evenodd; fill:#000000" d="M 114.487 27.5461L 114.487 33.5691L 115.487 33.5691L 115.487 30.4361C 115.487 29.5731 115.698 29.0111 116.148 28.6751C 116.437 28.4561 116.718 28.3901 117.37 28.3781L 117.37 27.4131C 117.214 27.3931 117.136 27.3821 117.011 27.3821C 116.401 27.3821 115.937 27.7491 115.39 28.6431L 115.39 27.5541L 114.487 27.5461z"/>
<path style="stroke:none; fill-rule:evenodd; fill:#000000" d="M 120.386 27.5731L 119.487 27.5731L 119.487 25.9051L 118.487 25.9051L 118.487 27.5731L 117.589 27.5731L 117.589 28.3701L 118.487 28.3701L 118.487 32.9171C 118.487 33.5221 118.89 33.8661 119.62 33.8661C 119.843 33.8661 120.069 33.8431 120.382 33.7841L 120.382 32.9481C 120.269 33.0381 120.132 33.0651 119.964 33.0651C 119.589 33.0651 119.484 32.9521 119.484 32.5221L 119.484 28.3701L 120.382 28.3701L 120.386 27.5731z"/>
<path style="stroke:none; fill-rule:evenodd; fill:#000000" d="M 126.589 30.8701C 126.589 29.9521 126.523 29.4011 126.351 28.9561C 125.964 27.9721 125.05 27.3741 123.933 27.3741C 122.269 27.3741 121.194 28.6671 121.194 30.6551C 121.194 32.6431 122.23 33.8701 123.905 33.8701C 125.269 33.8701 126.214 33.0771 126.456 31.7451L 125.503 31.7451C 125.241 32.5501 124.71 32.9681 123.948 32.9681C 123.347 32.9681 122.835 32.6901 122.519 32.1751C 122.292 31.8271 122.214 31.4751 122.202 30.8701L 126.589 30.8701zM 122.167 30.1041C 122.245 28.9911 122.925 28.2681 123.886 28.2681C 124.823 28.2681 125.55 29.0461 125.55 30.0341C 125.55 30.0541 125.55 30.0771 125.538 30.1001L 122.167 30.1041z"/>
<path style="stroke:none; fill-rule:evenodd; fill:#000000" d="M 130.441 30.4681L 132.46 27.5731L 131.382 27.5731L 129.937 29.7371L 128.491 27.5731L 127.401 27.5731L 129.409 30.5151L 127.288 33.5691L 128.378 33.5691L 129.901 31.2651L 131.405 33.5691L 132.519 33.5691L 130.441 30.4681z"/>
<path style="stroke:#000000; stroke-width:0.95664899999999997; fill:none" d="M 267.589 30.1431C 267.589 19.7721 242.948 11.3621 212.554 11.3621C 182.159 11.3621 157.519 19.7721 157.519 30.1431C 157.519 40.5151 182.159 48.9251 212.554 48.9251C 242.948 48.9251 267.589 40.5151 267.589 30.1431"/>
<path style="stroke:none; fill-rule:evenodd; fill:#000000" d="M 177.386 29.7721L 181.378 29.7721L 181.378 28.8741L 177.386 28.8741L 177.386 26.0771L 181.886 26.0771L 181.886 25.1791L 176.288 25.1791L 176.288 33.5771L 177.386 33.5771L 177.386 29.7721z"/>
<path style="stroke:none; fill-rule:evenodd; fill:#000000" d="M 183.089 27.5461L 183.089 33.5691L 184.089 33.5691L 184.089 30.4361C 184.089 29.5731 184.3 29.0111 184.749 28.6751C 185.038 28.4561 185.319 28.3901 185.972 28.3781L 185.972 27.4131C 185.816 27.3931 185.737 27.3821 185.612 27.3821C 185.003 27.3821 184.538 27.7491 183.991 28.6431L 183.991 27.5541L 183.089 27.5461z"/>
<path style="stroke:none; fill-rule:evenodd; fill:#000000" d="M 189.226 27.3701C 187.523 27.3701 186.491 28.5851 186.491 30.6201C 186.491 32.6551 187.511 33.8701 189.241 33.8701C 190.944 33.8701 191.991 32.6591 191.991 30.6711C 191.991 28.5811 190.984 27.3781 189.234 27.3781L 189.226 27.3701zM 189.237 28.2721C 190.331 28.2721 190.987 29.1591 190.987 30.6551C 190.987 32.0691 190.312 32.9681 189.237 32.9681C 188.155 32.9681 187.487 32.0811 187.487 30.6201C 187.487 29.1711 188.151 28.2721 189.237 28.2721z"/>
<path style="stroke:none; fill-rule:evenodd; fill:#000000" d="M 193.288 27.5461L 193.288 33.5691L 194.288 33.5691L 194.288 30.2221C 194.288 28.9831 194.913 28.1711 195.878 28.1711C 196.616 28.1711 197.085 28.6321 197.085 29.3621L 197.085 33.5651L 198.085 33.5651L 198.085 29.0111C 198.085 28.0111 197.343 27.3661 196.183 27.3661C 195.292 27.3661 194.718 27.7101 194.191 28.5501L 194.191 27.5381L 193.288 27.5461z"/>
<path style="stroke:none; fill-rule:evenodd; fill:#000000" d="M 201.788 27.5731L 200.89 27.5731L 200.89 25.9051L 199.89 25.9051L 199.89 27.5731L 198.991 27.5731L 198.991 28.3701L 199.89 28.3701L 199.89 32.9171C 199.89 33.5221 200.292 33.8661 201.023 33.8661C 201.245 33.8661 201.472 33.8431 201.784 33.7841L 201.784 32.9481C 201.671 33.0381 201.534 33.0651 201.366 33.0651C 200.991 33.0651 200.886 32.9521 200.886 32.5221L 200.886 28.3701L 201.784 28.3701L 201.788 27.5731z"/>
<path style="stroke:none; fill-rule:evenodd; fill:#000000" d="M 208.128 33.0111C 208.023 33.0691 207.976 33.0691 207.917 33.0691C 207.577 33.0691 207.39 32.8971 207.39 32.5971L 207.39 29.0301C 207.39 27.9561 206.612 27.3741 205.14 27.3741C 204.273 27.3741 203.554 27.6281 203.151 28.0771C 202.878 28.3861 202.765 28.7331 202.741 29.3351L 203.687 29.3351C 203.765 28.6041 204.191 28.2721 205.073 28.2721C 205.917 28.2721 206.39 28.5931 206.39 29.1711L 206.39 29.4251C 206.39 29.8271 206.155 29.9991 205.413 30.0931C 204.089 30.2651 203.886 30.3111 203.527 30.4601C 202.843 30.7451 202.495 31.2881 202.495 32.0731C 202.495 33.1671 203.249 33.8581 204.46 33.8581C 205.214 33.8581 205.819 33.5851 206.495 32.9401C 206.562 33.5731 206.859 33.8581 207.476 33.8581C 207.667 33.8581 207.816 33.8351 208.124 33.7531L 208.128 33.0111zM 206.386 31.7101C 206.386 32.0381 206.296 32.2411 206.019 32.5151C 205.64 32.8781 205.183 33.0691 204.636 33.0691C 203.913 33.0691 203.487 32.7061 203.487 32.0771C 203.487 31.4291 203.898 31.0971 204.89 30.9441C 205.87 30.8041 206.069 30.7571 206.382 30.6041L 206.386 31.7101z"/>
<path style="stroke:none; fill-rule:evenodd; fill:#000000" d="M 209.187 33.5731L 210.187 33.5731L 210.187 25.1751L 209.187 25.1751L 209.187 33.5731z"/>
<path style="stroke:none; fill-rule:evenodd; fill:#000000" d="M 221.788 27.8001C 221.452 25.9721 220.39 25.0771 218.538 25.0771C 217.405 25.0771 216.495 25.4321 215.87 26.1241C 215.109 26.9521 214.694 28.1471 214.694 29.5071C 214.694 30.8861 215.12 32.0731 215.917 32.8901C 216.562 33.5581 217.394 33.8661 218.491 33.8661C 220.546 33.8661 221.702 32.7531 221.96 30.5151L 220.855 30.5151C 220.765 31.1041 220.651 31.5071 220.476 31.8501C 220.132 32.5611 219.417 32.9641 218.523 32.9641C 216.855 32.9641 215.796 31.6121 215.796 29.4911C 215.796 27.3111 216.808 25.9681 218.433 25.9681C 219.109 25.9681 219.745 26.1791 220.089 26.5031C 220.398 26.7961 220.569 27.1551 220.698 27.7881L 221.788 27.8001z"/>
<path style="stroke:none; fill-rule:evenodd; fill:#000000" d="M 225.624 27.3701C 223.921 27.3701 222.89 28.5851 222.89 30.6201C 222.89 32.6551 223.909 33.8701 225.64 33.8701C 227.343 33.8701 228.39 32.6591 228.39 30.6711C 228.39 28.5811 227.382 27.3781 225.632 27.3781L 225.624 27.3701zM 225.636 28.2721C 226.73 28.2721 227.386 29.1591 227.386 30.6551C 227.386 32.0691 226.71 32.9681 225.636 32.9681C 224.554 32.9681 223.886 32.0811 223.886 30.6201C 223.886 29.1711 224.55 28.2721 225.636 28.2721z"/>
<path style="stroke:none; fill-rule:evenodd; fill:#000000" d="M 229.589 27.5461L 229.589 33.5691L 230.589 33.5691L 230.589 30.4361C 230.589 29.5731 230.8 29.0111 231.249 28.6751C 231.538 28.4561 231.819 28.3901 232.472 28.3781L 232.472 27.4131C 232.316 27.3931 232.237 27.3821 232.112 27.3821C 231.503 27.3821 231.038 27.7491 230.491 28.6431L 230.491 27.5541L 229.589 27.5461z"/>
<path style="stroke:none; fill-rule:evenodd; fill:#000000" d="M 235.589 27.5731L 234.691 27.5731L 234.691 25.9051L 233.691 25.9051L 233.691 27.5731L 232.792 27.5731L 232.792 28.3701L 233.691 28.3701L 233.691 32.9171C 233.691 33.5221 234.093 33.8661 234.823 33.8661C 235.046 33.8661 235.273 33.8431 235.585 33.7841L 235.585 32.9481C 235.472 33.0381 235.335 33.0651 235.167 33.0651C 234.792 33.0651 234.687 32.9521 234.687 32.5221L 234.687 28.3701L 235.585 28.3701L 235.589 27.5731z"/>
<path style="stroke:none; fill-rule:evenodd; fill:#000000" d="M 241.788 30.8701C 241.788 29.9521 241.722 29.4011 241.55 28.9561C 241.163 27.9721 240.249 27.3741 239.132 27.3741C 237.468 27.3741 236.394 28.6671 236.394 30.6551C 236.394 32.6431 237.429 33.8701 239.105 33.8701C 240.468 33.8701 241.413 33.0771 241.655 31.7451L 240.702 31.7451C 240.441 32.5501 239.909 32.9681 239.148 32.9681C 238.546 32.9681 238.034 32.6901 237.718 32.1751C 237.491 31.8271 237.413 31.4751 237.401 30.8701L 241.788 30.8701zM 237.366 30.1041C 237.444 28.9911 238.124 28.2681 239.085 28.2681C 240.023 28.2681 240.749 29.0461 240.749 30.0341C 240.749 30.0541 240.749 30.0771 240.737 30.1001L 237.366 30.1041z"/>
<path style="stroke:none; fill-rule:evenodd; fill:#000000" d="M 245.538 30.4681L 247.558 27.5731L 246.48 27.5731L 245.034 29.7371L 243.589 27.5731L 242.499 27.5731L 244.507 30.5151L 242.386 33.5691L 243.476 33.5691L 244.999 31.2651L 246.503 33.5691L 247.616 33.5691L 245.538 30.4681z"/>
<path style="stroke:none; fill-rule:evenodd; fill:#00ffff" d="M 197.694 97.4561C 197.694 89.0071 186.562 82.1511 172.823 82.1511C 159.089 82.1511 147.952 89.0031 147.952 97.4561C 147.952 105.905 159.085 112.761 172.823 112.761C 186.558 112.761 197.694 105.909 197.694 97.4561"/>
<path style="stroke:#000000; stroke-width:0.95664899999999997; fill:none" d="M 197.694 97.4561C 197.694 89.0071 186.562 82.1511 172.823 82.1511C 159.089 82.1511 147.952 89.0031 147.952 97.4561C 147.952 105.905 159.085 112.761 172.823 112.761C 186.558 112.761 197.694 105.909 197.694 97.4561"/>
<path style="stroke:none; fill-rule:evenodd; fill:#ffff00" d="M 147.948 97.4561C 147.948 89.0071 136.816 82.1511 123.077 82.1511C 109.343 82.1511 98.2063 89.0031 98.2063 97.4561C 98.2063 105.905 109.339 112.761 123.077 112.761C 136.812 112.761 147.948 105.909 147.948 97.4561"/>
<path style="stroke:#000000; stroke-width:0.95664899999999997; fill:none" d="M 147.948 97.4561C 147.948 89.0071 136.816 82.1511 123.077 82.1511C 109.343 82.1511 98.2063 89.0031 98.2063 97.4561C 98.2063 105.905 109.339 112.761 123.077 112.761C 136.812 112.761 147.948 105.909 147.948 97.4561"/>
<path style="stroke:#000000; stroke-width:0.95664899999999997; fill:none" d="M 203.433 97.4561C 203.433 84.7761 178.593 74.4991 147.948 74.4991C 117.308 74.4991 92.4643 84.7761 92.4643 97.4561C 92.4643 110.136 117.304 120.413 147.948 120.413C 178.589 120.413 203.433 110.136 203.433 97.4561"/>
<path style="stroke:none; fill-rule:evenodd; fill:#ffff00" d="M 230.222 154.854C 230.222 144.292 215.663 135.722 197.698 135.722C 179.737 135.722 165.175 144.284 165.175 154.854C 165.175 165.417 179.737 173.987 197.698 173.987C 215.659 173.987 230.222 165.425 230.222 154.854"/>
<path style="stroke:#000000; stroke-width:0.95664899999999997; fill:none" d="M 230.222 154.854C 230.222 144.292 215.663 135.722 197.698 135.722C 179.737 135.722 165.175 144.284 165.175 154.854C 165.175 165.417 179.737 173.987 197.698 173.987C 215.659 173.987 230.222 165.425 230.222 154.854"/>
<path style="stroke:none; fill-rule:evenodd; fill:#000000" d="M 194.886 153.87L 191.288 153.87L 191.288 154.768L 193.886 154.768L 193.886 155.003C 193.886 156.546 192.788 157.663 191.269 157.663C 190.425 157.663 189.659 157.35 189.167 156.804C 188.62 156.198 188.288 155.186 188.288 154.136C 188.288 152.05 189.452 150.671 191.214 150.671C 192.48 150.671 193.394 151.339 193.624 152.436L 194.71 152.436C 194.413 150.745 193.124 149.768 191.206 149.768C 190.187 149.768 189.359 150.034 188.702 150.573C 187.741 151.378 187.187 152.679 187.187 154.186C 187.187 156.765 188.757 158.561 191.023 158.561C 192.159 158.561 193.066 158.136 193.882 157.225L 194.159 158.339L 194.878 158.339L 194.886 153.87z"/>
<path style="stroke:none; fill-rule:evenodd; fill:#000000" d="M 197.687 154.671L 200.327 154.671C 200.984 154.671 201.503 154.479 201.956 154.077C 202.464 153.624 202.683 153.085 202.683 152.319C 202.683 150.757 201.745 149.874 200.073 149.874L 196.585 149.874L 196.585 158.272L 197.683 158.272L 197.687 154.671zM 197.687 153.772L 197.687 150.772L 199.937 150.772C 200.968 150.772 201.585 151.335 201.585 152.272C 201.585 153.206 200.972 153.772 199.937 153.772L 197.687 153.772z"/>
<path style="stroke:none; fill-rule:evenodd; fill:#000000" d="M 209.187 155.573C 209.187 154.655 209.12 154.104 208.948 153.659C 208.562 152.675 207.648 152.077 206.53 152.077C 204.866 152.077 203.792 153.37 203.792 155.358C 203.792 157.347 204.827 158.573 206.503 158.573C 207.866 158.573 208.812 157.78 209.054 156.448L 208.101 156.448C 207.839 157.253 207.308 157.671 206.546 157.671C 205.944 157.671 205.433 157.393 205.116 156.878C 204.89 156.53 204.812 156.179 204.8 155.573L 209.187 155.573zM 204.769 154.804C 204.847 153.69 205.527 152.968 206.487 152.968C 207.425 152.968 208.151 153.745 208.151 154.733C 208.151 154.753 208.151 154.776 208.14 154.8L 204.769 154.804z"/>
<path style="stroke:none; fill-rule:evenodd; fill:#ff0000" d="M 182.39 196.948C 182.39 194.839 180.679 193.124 178.566 193.124C 176.456 193.124 174.741 194.835 174.741 196.948C 174.741 199.058 176.452 200.772 178.566 200.772C 180.675 200.772 182.39 199.061 182.39 196.948"/>
<path style="stroke:#ff0000; stroke-width:1.9133; fill:none" d="M 182.39 196.948C 182.39 194.839 180.679 193.124 178.566 193.124C 176.456 193.124 174.741 194.835 174.741 196.948C 174.741 199.058 176.452 200.772 178.566 200.772C 180.675 200.772 182.39 199.061 182.39 196.948"/>
<path style="stroke:none; fill-rule:evenodd; fill:#ff0000" d="M 209.175 189.296C 209.175 187.186 207.464 185.472 205.351 185.472C 203.241 185.472 201.527 187.183 201.527 189.296C 201.527 191.405 203.237 193.12 205.351 193.12C 207.46 193.12 209.175 191.409 209.175 189.296"/>
<path style="stroke:#ff0000; stroke-width:1.9133; fill:none" d="M 209.175 189.296C 209.175 187.186 207.464 185.472 205.351 185.472C 203.241 185.472 201.527 187.183 201.527 189.296C 201.527 191.405 203.237 193.12 205.351 193.12C 207.46 193.12 209.175 191.409 209.175 189.296"/>
<path style="stroke:none; fill-rule:evenodd; fill:#ff0000" d="M 191.952 133.808C 191.952 131.698 190.241 129.983 188.128 129.983C 186.019 129.983 184.304 131.694 184.304 133.808C 184.304 135.917 186.015 137.632 188.128 137.632C 190.237 137.632 191.952 135.921 191.952 133.808"/>
<path style="stroke:#ff0000; stroke-width:1.9133; fill:none" d="M 191.952 133.808C 191.952 131.698 190.241 129.983 188.128 129.983C 186.019 129.983 184.304 131.694 184.304 133.808C 184.304 135.917 186.015 137.632 188.128 137.632C 190.237 137.632 191.952 135.921 191.952 133.808"/>
<path style="stroke:#ff0000; stroke-dasharray:6,3; stroke-width:1.9133; fill:none" d="M 197.694 173.987L 205.347 189.292"/>
<path style="stroke:#ff0000; stroke-dasharray:6,3; stroke-width:1.9133; fill:none" d="M 174.734 112.761L 188.124 133.804"/>
<path style="stroke:none; fill-rule:evenodd; fill:#ff0000" d="M 158.187 108.671L 160.323 108.671C 161.722 108.671 162.581 107.612 162.581 105.87C 162.581 104.136 161.73 103.073 160.323 103.073L 158.187 103.073L 158.187 108.671zM 158.886 108.073L 158.886 103.675L 160.198 103.675C 161.3 103.675 161.882 104.429 161.882 105.878C 161.882 107.308 161.304 108.073 160.198 108.073L 158.886 108.073z"/>
<path style="stroke:none; fill-rule:evenodd; fill:#ff0000" d="M 166.948 108.073L 164.105 108.073C 164.171 107.628 164.417 107.343 165.077 106.948L 165.839 106.534C 166.593 106.12 166.984 105.558 166.984 104.886C 166.984 104.432 166.804 104.007 166.48 103.714C 166.163 103.421 165.765 103.284 165.253 103.284C 164.569 103.284 164.058 103.522 163.761 103.975C 163.573 104.261 163.487 104.593 163.472 105.136L 164.14 105.136C 164.159 104.78 164.206 104.565 164.296 104.393C 164.468 104.077 164.819 103.882 165.222 103.882C 165.827 103.882 166.284 104.315 166.284 104.89C 166.284 105.311 166.034 105.679 165.558 105.952L 164.862 106.347C 163.741 106.983 163.413 107.491 163.355 108.675L 166.952 108.675L 166.948 108.073z"/>
<path style="stroke:none; fill-rule:evenodd; fill:#ff0000" d="M 155.187 116.272L 160.984 116.272L 160.984 115.475L 155.187 115.475L 155.187 116.272z"/>
<path style="stroke:none; fill-rule:evenodd; fill:#0000ff" d="M 108.487 108.671L 110.624 108.671C 112.023 108.671 112.882 107.612 112.882 105.87C 112.882 104.136 112.03 103.073 110.624 103.073L 108.487 103.073L 108.487 108.671zM 109.187 108.073L 109.187 103.675L 110.499 103.675C 111.601 103.675 112.183 104.429 112.183 105.878C 112.183 107.308 111.605 108.073 110.499 108.073L 109.187 108.073z"/>
<path style="stroke:none; fill-rule:evenodd; fill:#0000ff" d="M 115.288 104.827L 115.288 108.671L 115.987 108.671L 115.987 103.272L 115.534 103.272C 115.292 104.1 115.136 104.214 114.069 104.343L 114.069 104.819L 115.288 104.827z"/>
<path style="stroke:#0000ff; stroke-width:1.9133; fill:none" d="M 129.773 17.0971C 129.773 17.0971 129.773 17.0971 132.163 15.6631C 134.554 14.2291 139.335 11.3581 144.28 10.4011C 149.222 9.44809 154.323 10.4011 158.468 12.3111C 162.612 14.2221 165.8 17.0931 167.394 18.5261C 168.987 19.9601 168.987 19.9601 168.987 19.9601"/>
<path style="stroke:#0000ff; stroke-width:1.9133; fill:none" d="M 137.319 14.8001L 129.773 17.0971L 135.347 11.5221"/>
<path style="stroke:#0000ff; stroke-width:1.9133; fill:none" d="M 164.585 13.4251L 168.991 19.9641L 162.027 16.2681"/>
<path style="stroke:#0000ff; stroke-width:1.9133; fill:none" d="M 119.249 45.7961L 146.034 74.4951"/>
<path style="stroke:#0000ff; stroke-width:1.9133; fill:none" d="M 142.214 67.5971L 146.034 74.4951L 139.417 70.2101"/>
<path style="stroke:#0000ff; stroke-width:1.9133; fill:none" d="M 190.042 47.7101L 149.866 74.4951"/>
<path style="stroke:#0000ff; stroke-width:1.9133; fill:none" d="M 157.292 71.8431L 149.866 74.4951L 155.171 68.6591"/>
<path style="stroke:none; fill-rule:evenodd; fill:#ff0000" d="M 156.53 111.37L 148.804 113.854L 150.593 106.175"/>
<path style="stroke:#ff0000; stroke-width:1.9133; fill:none" d="M 156.53 111.37L 148.804 113.854L 150.593 106.175L 156.53 111.37z"/>
<path style="stroke:none; fill-rule:evenodd; fill:#000000" d="M 183.288 59.9721L 182.589 59.9721L 182.589 62.0651C 182.327 61.6791 181.905 61.4721 181.382 61.4721C 180.362 61.4721 179.694 62.3041 179.694 63.5811C 179.694 64.9321 180.355 65.7681 181.425 65.7681C 181.972 65.7681 182.351 65.5581 182.691 65.0421L 182.691 65.5691L 183.288 65.5691L 183.288 59.9721zM 181.507 62.0731C 182.167 62.0731 182.585 62.6821 182.585 63.6361C 182.585 64.5581 182.159 65.1671 181.511 65.1671C 180.835 65.1671 180.386 64.5501 180.386 63.6201C 180.386 62.6901 180.831 62.0731 181.503 62.0731L 181.507 62.0731z"/>
<path style="stroke:none; fill-rule:evenodd; fill:#000000" d="M 185.878 61.4721C 184.765 61.4721 184.089 62.2721 184.089 63.6201C 184.089 64.9641 184.757 65.7681 185.886 65.7681C 186.999 65.7681 187.683 64.9681 187.683 63.6511C 187.683 62.2681 187.023 61.4721 185.878 61.4721zM 185.886 62.0731C 186.573 62.0731 186.984 62.6591 186.984 63.6431C 186.984 64.5771 186.562 65.1671 185.886 65.1671C 185.206 65.1671 184.788 64.5851 184.788 63.6201C 184.788 62.6671 185.206 62.0731 185.886 62.0731z"/>
<path style="stroke:none; fill-rule:evenodd; fill:#000000" d="M 188.487 61.5851L 188.487 65.5691L 189.187 65.5691L 189.187 63.5181C 189.187 62.9561 189.327 62.5851 189.624 62.3661C 189.816 62.2251 190.003 62.1791 190.437 62.1711L 190.437 61.4951C 190.331 61.4791 190.277 61.4721 190.191 61.4721C 189.773 61.4721 189.456 61.7141 189.085 62.3081L 189.085 61.5851L 188.487 61.5851z"/>
<path style="stroke:none; fill-rule:evenodd; fill:#000000" d="M 193.941 62.6791C 193.933 61.9091 193.405 61.4751 192.46 61.4751C 191.511 61.4751 190.894 61.9561 190.894 62.6941C 190.894 63.3191 191.214 63.6161 192.167 63.8431L 192.765 63.9871C 193.21 64.0931 193.386 64.2531 193.386 64.5421C 193.386 64.9131 193.019 65.1671 192.472 65.1671C 192.136 65.1671 191.851 65.0691 191.691 64.8971C 191.593 64.7841 191.55 64.6671 191.511 64.3781L 190.851 64.3781C 190.878 65.3191 191.398 65.7681 192.441 65.7681C 193.444 65.7681 194.085 65.2761 194.085 64.5031C 194.085 63.9091 193.749 63.5811 192.948 63.3901L 192.335 63.2451C 191.816 63.1241 191.593 62.9561 191.593 62.6751C 191.593 62.3111 191.925 62.0731 192.448 62.0731C 192.964 62.0731 193.241 62.2801 193.257 62.6791L 193.941 62.6791z"/>
<path style="stroke:none; fill-rule:evenodd; fill:#000000" d="M 198.484 65.1981C 198.413 65.2721 198.382 65.2721 198.343 65.2721C 198.116 65.2721 197.991 65.1591 197.991 64.9561L 197.991 62.5771C 197.991 61.8621 197.476 61.4751 196.491 61.4751C 195.913 61.4751 195.433 61.6401 195.167 61.9321C 194.987 62.1321 194.909 62.3581 194.894 62.7491L 195.515 62.7491C 195.566 62.2841 195.847 62.0731 196.425 62.0731C 196.98 62.0731 197.292 62.2841 197.292 62.6671L 197.292 62.8351C 197.292 63.1001 197.136 63.2141 196.644 63.2761C 195.761 63.3901 195.628 63.4211 195.386 63.5181C 194.933 63.7061 194.698 64.0651 194.698 64.5851C 194.698 65.3081 195.206 65.7651 196.019 65.7651C 196.527 65.7651 196.933 65.5851 197.386 65.1551C 197.429 65.5771 197.628 65.7651 198.046 65.7651C 198.175 65.7651 198.277 65.7491 198.484 65.6941L 198.484 65.1981zM 197.288 64.3041C 197.288 64.5151 197.23 64.6431 197.05 64.8151C 196.804 65.0501 196.503 65.1711 196.148 65.1711C 195.675 65.1711 195.398 64.9361 195.398 64.5381C 195.398 64.1241 195.667 63.9131 196.316 63.8111C 196.956 63.7221 197.089 63.6941 197.292 63.5931L 197.288 64.3041z"/>
<path style="stroke:none; fill-rule:evenodd; fill:#000000" d="M 199.187 65.5731L 199.886 65.5731L 199.886 59.9751L 199.187 59.9751L 199.187 65.5731z"/>
<path style="stroke:none; fill-rule:evenodd; fill:#000000" d="M 182.839 70.3781C 182.831 69.6081 182.304 69.1751 181.359 69.1751C 180.409 69.1751 179.792 69.6551 179.792 70.3931C 179.792 71.0181 180.112 71.3151 181.066 71.5421L 181.663 71.6861C 182.109 71.7921 182.284 71.9521 182.284 72.2411C 182.284 72.6121 181.917 72.8661 181.37 72.8661C 181.034 72.8661 180.749 72.7681 180.589 72.5971C 180.491 72.4831 180.448 72.3661 180.409 72.0771L 179.749 72.0771C 179.777 73.0181 180.296 73.4681 181.339 73.4681C 182.343 73.4681 182.984 72.9751 182.984 72.2021C 182.984 71.6081 182.648 71.2801 181.847 71.0891L 181.234 70.9441C 180.714 70.8231 180.491 70.6551 180.491 70.3741C 180.491 70.0111 180.823 69.7721 181.347 69.7721C 181.862 69.7721 182.14 69.9791 182.155 70.3781L 182.839 70.3781z"/>
<path style="stroke:none; fill-rule:evenodd; fill:#000000" d="M 185.288 69.2721L 184.691 69.2721L 184.691 68.1631L 183.991 68.1631L 183.991 69.2721L 183.491 69.2721L 183.491 69.7721L 183.991 69.7721L 183.991 72.8311C 183.991 73.2371 184.265 73.4721 184.765 73.4721C 184.917 73.4721 185.069 73.4561 185.284 73.4171L 185.284 72.8621C 185.21 72.8701 185.116 72.8741 185.007 72.8741C 184.757 72.8741 184.687 72.8001 184.687 72.5181L 184.687 69.7801L 185.284 69.7801L 185.288 69.2721z"/>
<path style="stroke:none; fill-rule:evenodd; fill:#000000" d="M 185.987 69.2841L 185.987 73.2681L 186.687 73.2681L 186.687 71.2181C 186.687 70.6551 186.827 70.2841 187.124 70.0651C 187.316 69.9251 187.503 69.8781 187.937 69.8701L 187.937 69.1941C 187.831 69.1791 187.777 69.1711 187.691 69.1711C 187.273 69.1711 186.956 69.4131 186.585 70.0071L 186.585 69.2841L 185.987 69.2841z"/>
<path style="stroke:none; fill-rule:evenodd; fill:#000000" d="M 189.187 69.2721L 188.487 69.2721L 188.487 73.2721L 189.187 73.2721L 189.187 69.2721zM 189.187 67.6711L 188.487 67.6711L 188.487 68.4951L 189.187 68.4951L 189.187 67.6711z"/>
<path style="stroke:none; fill-rule:evenodd; fill:#000000" d="M 193.78 72.8971C 193.71 72.9721 193.679 72.9721 193.64 72.9721C 193.413 72.9721 193.288 72.8581 193.288 72.6551L 193.288 70.2761C 193.288 69.5611 192.773 69.1751 191.788 69.1751C 191.21 69.1751 190.73 69.3391 190.464 69.6321C 190.284 69.8311 190.206 70.0581 190.191 70.4481L 190.812 70.4481C 190.862 69.9831 191.144 69.7721 191.722 69.7721C 192.277 69.7721 192.589 69.9831 192.589 70.3661L 192.589 70.5341C 192.589 70.8001 192.433 70.9131 191.941 70.9751C 191.058 71.0891 190.925 71.1201 190.683 71.2181C 190.23 71.4051 189.995 71.7651 189.995 72.2841C 189.995 73.0071 190.503 73.4641 191.316 73.4641C 191.823 73.4641 192.23 73.2841 192.683 72.8541C 192.726 73.2761 192.925 73.4641 193.343 73.4641C 193.472 73.4641 193.573 73.4481 193.78 73.3931L 193.78 72.8971zM 192.589 72.0031C 192.589 72.2141 192.53 72.3431 192.351 72.5151C 192.105 72.7491 191.804 72.8701 191.448 72.8701C 190.976 72.8701 190.698 72.6361 190.698 72.2371C 190.698 71.8231 190.968 71.6121 191.616 71.5111C 192.257 71.4211 192.39 71.3931 192.593 71.2921L 192.589 72.0031z"/>
<path style="stroke:none; fill-rule:evenodd; fill:#000000" d="M 195.886 69.2721L 195.288 69.2721L 195.288 68.1631L 194.589 68.1631L 194.589 69.2721L 194.089 69.2721L 194.089 69.7721L 194.589 69.7721L 194.589 72.8311C 194.589 73.2371 194.862 73.4721 195.362 73.4721C 195.515 73.4721 195.667 73.4561 195.882 73.4171L 195.882 72.8621C 195.808 72.8701 195.714 72.8741 195.605 72.8741C 195.355 72.8741 195.284 72.8001 195.284 72.5181L 195.284 69.7801L 195.882 69.7801L 195.886 69.2721z"/>
<path style="stroke:none; fill-rule:evenodd; fill:#000000" d="M 199.788 73.2961L 199.788 69.2761L 199.089 69.2761L 199.089 71.5301C 199.089 72.3391 198.691 72.8741 198.066 72.8741C 197.593 72.8741 197.292 72.5731 197.292 72.0931L 197.292 69.2761L 196.593 69.2761L 196.593 72.3781C 196.593 73.0461 197.085 73.4751 197.859 73.4751C 198.441 73.4751 198.816 73.2721 199.187 72.7411L 199.187 73.3001L 199.788 73.2961z"/>
<path style="stroke:none; fill-rule:evenodd; fill:#000000" d="M 200.886 69.2841L 200.886 73.2681L 201.585 73.2681L 201.585 70.8001C 201.585 70.2291 201.984 69.7721 202.48 69.7721C 202.929 69.7721 203.183 70.0581 203.183 70.5581L 203.183 73.2681L 203.882 73.2681L 203.882 70.8001C 203.882 70.2291 204.304 69.7721 204.831 69.7721C 205.3 69.7721 205.581 70.0651 205.581 70.5581L 205.581 73.2681L 206.28 73.2681L 206.28 70.2801C 206.28 69.5651 205.859 69.1711 205.097 69.1711C 204.554 69.1711 204.226 69.3231 203.843 69.7571C 203.605 69.3471 203.277 69.1711 202.745 69.1711C 202.202 69.1711 201.843 69.3661 201.491 69.8471L 201.491 69.2841L 200.886 69.2841z"/>
<path style="stroke:#ff0000; stroke-dasharray:6,3; stroke-width:1.9133; fill:none" d="M 134.558 110.85L 180.476 198.862"/>
<path style="stroke:none; fill-rule:evenodd; fill:#0000ff" d="M 116.316 119.272L 113.987 119.272L 113.987 116.932L 113.191 116.932L 113.191 119.272L 110.765 119.272L 110.765 120.069L 113.191 120.069L 113.191 122.483L 113.987 122.483L 113.987 120.069L 116.316 120.069L 116.316 119.272z"/>
<path style="stroke:none; fill-rule:evenodd; fill:#0000ff" d="M 116.589 113.444L 124.702 113.202L 120.851 120.085"/>
<path style="stroke:#0000ff; stroke-width:1.9133; fill:none" d="M 116.589 113.444L 124.702 113.202L 120.851 120.085L 116.589 113.444z"/>
<path style="stroke:none; fill-rule:evenodd; fill:#000000" d="M 124.089 96.4721L 120.491 96.4721L 120.491 97.3701L 123.089 97.3701L 123.089 97.6041C 123.089 99.1471 121.991 100.265 120.472 100.265C 119.628 100.265 118.862 99.9521 118.37 99.4051C 117.823 98.8001 117.491 97.7881 117.491 96.7371C 117.491 94.6511 118.655 93.2721 120.417 93.2721C 121.683 93.2721 122.597 93.9401 122.827 95.0381L 123.913 95.0381C 123.616 93.3471 122.327 92.3701 120.409 92.3701C 119.39 92.3701 118.562 92.6361 117.905 93.1751C 116.944 93.9791 116.39 95.2801 116.39 96.7881C 116.39 99.3661 117.96 101.163 120.226 101.163C 121.362 101.163 122.269 100.737 123.085 99.8271L 123.362 100.94L 124.081 100.94L 124.089 96.4721z"/>
<path style="stroke:none; fill-rule:evenodd; fill:#000000" d="M 127.925 94.6711C 126.222 94.6711 125.191 95.8861 125.191 97.9211C 125.191 99.9561 126.21 101.171 127.941 101.171C 129.644 101.171 130.691 99.9601 130.691 97.9721C 130.691 95.8821 129.683 94.6791 127.933 94.6791L 127.925 94.6711zM 127.937 95.5731C 129.03 95.5731 129.687 96.4601 129.687 97.9561C 129.687 99.3701 129.011 100.268 127.937 100.268C 126.855 100.268 126.187 99.3821 126.187 97.9211C 126.187 96.4721 126.851 95.5731 127.937 95.5731z"/>
<path style="stroke:none; fill-rule:evenodd; fill:#000000" d="M 165.386 92.4721L 164.386 92.4721L 164.386 99.3431L 160.038 92.4721L 158.89 92.4721L 158.89 100.87L 159.89 100.87L 159.89 94.0891L 164.191 100.87L 165.386 100.87L 165.386 92.4721z"/>
<path style="stroke:none; fill-rule:evenodd; fill:#000000" d="M 169.425 94.6711C 167.722 94.6711 166.691 95.8861 166.691 97.9211C 166.691 99.9561 167.71 101.171 169.441 101.171C 171.144 101.171 172.191 99.9601 172.191 97.9721C 172.191 95.8821 171.183 94.6791 169.433 94.6791L 169.425 94.6711zM 169.437 95.5731C 170.53 95.5731 171.187 96.4601 171.187 97.9561C 171.187 99.3701 170.511 100.268 169.437 100.268C 168.355 100.268 167.687 99.3821 167.687 97.9211C 167.687 96.4721 168.351 95.5731 169.437 95.5731z"/>
<path style="stroke:none; fill-rule:evenodd; fill:#000000" d="M 180.886 96.4721L 177.288 96.4721L 177.288 97.3701L 179.886 97.3701L 179.886 97.6041C 179.886 99.1471 178.788 100.265 177.269 100.265C 176.425 100.265 175.659 99.9521 175.167 99.4051C 174.62 98.8001 174.288 97.7881 174.288 96.7371C 174.288 94.6511 175.452 93.2721 177.214 93.2721C 178.48 93.2721 179.394 93.9401 179.624 95.0381L 180.71 95.0381C 180.413 93.3471 179.124 92.3701 177.206 92.3701C 176.187 92.3701 175.359 92.6361 174.702 93.1751C 173.741 93.9791 173.187 95.2801 173.187 96.7881C 173.187 99.3661 174.757 101.163 177.023 101.163C 178.159 101.163 179.066 100.737 179.882 99.8271L 180.159 100.94L 180.878 100.94L 180.886 96.4721z"/>
<path style="stroke:none; fill-rule:evenodd; fill:#000000" d="M 184.726 94.6711C 183.023 94.6711 181.991 95.8861 181.991 97.9211C 181.991 99.9561 183.011 101.171 184.741 101.171C 186.444 101.171 187.491 99.9601 187.491 97.9721C 187.491 95.8821 186.484 94.6791 184.734 94.6791L 184.726 94.6711zM 184.737 95.5731C 185.831 95.5731 186.487 96.4601 186.487 97.9561C 186.487 99.3701 185.812 100.268 184.737 100.268C 183.655 100.268 182.987 99.3821 182.987 97.9211C 182.987 96.4721 183.651 95.5731 184.737 95.5731z"/>
<path style="stroke:none; fill-rule:evenodd; fill:#ffff00" d="M 294.351 99.3701C 294.351 88.8081 279.792 80.2371 261.827 80.2371C 243.866 80.2371 229.304 88.8001 229.304 99.3701C 229.304 109.932 243.866 118.503 261.827 118.503C 279.788 118.503 294.351 109.94 294.351 99.3701"/>
<path style="stroke:#000000; stroke-width:0.95664899999999997; fill:none" d="M 294.351 99.3701C 294.351 88.8081 279.792 80.2371 261.827 80.2371C 243.866 80.2371 229.304 88.8001 229.304 99.3701C 229.304 109.932 243.866 118.503 261.827 118.503C 279.788 118.503 294.351 109.94 294.351 99.3701"/>
<path style="stroke:none; fill-rule:evenodd; fill:#ff0000" d="M 261.823 120.417C 261.823 118.308 260.112 116.593 257.999 116.593C 255.89 116.593 254.175 118.304 254.175 120.417C 254.175 122.526 255.886 124.241 257.999 124.241C 260.109 124.241 261.823 122.53 261.823 120.417"/>
<path style="stroke:#ff0000; stroke-width:1.9133; fill:none" d="M 261.823 120.417C 261.823 118.308 260.112 116.593 257.999 116.593C 255.89 116.593 254.175 118.304 254.175 120.417C 254.175 122.526 255.886 124.241 257.999 124.241C 260.109 124.241 261.823 122.53 261.823 120.417"/>
<path style="stroke:none; fill-rule:evenodd; fill:#000000" d="M 241.788 90.5731L 240.89 90.5731L 240.89 88.9051L 239.89 88.9051L 239.89 90.5731L 238.991 90.5731L 238.991 91.3701L 239.89 91.3701L 239.89 95.9171C 239.89 96.5221 240.292 96.8661 241.023 96.8661C 241.245 96.8661 241.472 96.8431 241.784 96.7841L 241.784 95.9481C 241.671 96.0381 241.534 96.0651 241.366 96.0651C 240.991 96.0651 240.886 95.9521 240.886 95.5221L 240.886 91.3701L 241.784 91.3701L 241.788 90.5731z"/>
<path style="stroke:none; fill-rule:evenodd; fill:#000000" d="M 242.886 88.1711L 242.886 96.5691L 243.886 96.5691L 243.886 93.2221C 243.886 91.9831 244.511 91.1711 245.476 91.1711C 245.777 91.1711 246.077 91.2721 246.304 91.4481C 246.569 91.6431 246.683 91.9321 246.683 92.3621L 246.683 96.5651L 247.683 96.5651L 247.683 92.0111C 247.683 90.9991 246.964 90.3661 245.8 90.3661C 244.956 90.3661 244.444 90.6321 243.886 91.3741L 243.886 88.1631L 242.886 88.1711z"/>
<path style="stroke:none; fill-rule:evenodd; fill:#000000" d="M 254.628 96.0111C 254.523 96.0691 254.476 96.0691 254.417 96.0691C 254.077 96.0691 253.89 95.8971 253.89 95.5971L 253.89 92.0301C 253.89 90.9561 253.112 90.3741 251.64 90.3741C 250.773 90.3741 250.054 90.6281 249.651 91.0771C 249.378 91.3861 249.265 91.7331 249.241 92.3351L 250.187 92.3351C 250.265 91.6041 250.691 91.2721 251.573 91.2721C 252.417 91.2721 252.89 91.5931 252.89 92.1711L 252.89 92.4251C 252.89 92.8271 252.655 92.9991 251.913 93.0931C 250.589 93.2651 250.386 93.3111 250.027 93.4601C 249.343 93.7451 248.995 94.2881 248.995 95.0731C 248.995 96.1671 249.749 96.8581 250.96 96.8581C 251.714 96.8581 252.319 96.5851 252.995 95.9401C 253.062 96.5731 253.359 96.8581 253.976 96.8581C 254.167 96.8581 254.316 96.8351 254.624 96.7531L 254.628 96.0111zM 252.886 94.7101C 252.886 95.0381 252.796 95.2411 252.519 95.5151C 252.14 95.8781 251.683 96.0691 251.136 96.0691C 250.413 96.0691 249.987 95.7061 249.987 95.0771C 249.987 94.4291 250.398 94.0971 251.39 93.9441C 252.37 93.8041 252.569 93.7571 252.882 93.6041L 252.886 94.7101z"/>
<path style="stroke:none; fill-rule:evenodd; fill:#000000" d="M 255.589 96.5731L 256.589 96.5731L 256.589 88.1751L 255.589 88.1751L 255.589 96.5731z"/>
<path style="stroke:none; fill-rule:evenodd; fill:#000000" d="M 263.53 96.0111C 263.425 96.0691 263.378 96.0691 263.319 96.0691C 262.98 96.0691 262.792 95.8971 262.792 95.5971L 262.792 92.0301C 262.792 90.9561 262.015 90.3741 260.542 90.3741C 259.675 90.3741 258.956 90.6281 258.554 91.0771C 258.28 91.3861 258.167 91.7331 258.144 92.3351L 259.089 92.3351C 259.167 91.6041 259.593 91.2721 260.476 91.2721C 261.319 91.2721 261.792 91.5931 261.792 92.1711L 261.792 92.4251C 261.792 92.8271 261.558 92.9991 260.816 93.0931C 259.491 93.2651 259.288 93.3111 258.929 93.4601C 258.245 93.7451 257.898 94.2881 257.898 95.0731C 257.898 96.1671 258.651 96.8581 259.862 96.8581C 260.616 96.8581 261.222 96.5851 261.898 95.9401C 261.964 96.5731 262.261 96.8581 262.878 96.8581C 263.069 96.8581 263.218 96.8351 263.527 96.7531L 263.53 96.0111zM 261.788 94.7101C 261.788 95.0381 261.698 95.2411 261.421 95.5151C 261.042 95.8781 260.585 96.0691 260.038 96.0691C 259.316 96.0691 258.89 95.7061 258.89 95.0771C 258.89 94.4291 259.3 94.0971 260.292 93.9441C 261.273 93.8041 261.472 93.7571 261.784 93.6041L 261.788 94.7101z"/>
<path style="stroke:none; fill-rule:evenodd; fill:#000000" d="M 264.589 90.5461L 264.589 96.5691L 265.589 96.5691L 265.589 92.7611C 265.589 91.8821 266.214 91.1751 266.984 91.1751C 267.687 91.1751 268.085 91.6121 268.085 92.3901L 268.085 96.5691L 269.085 96.5691L 269.085 92.7611C 269.085 91.8821 269.71 91.1751 270.48 91.1751C 271.171 91.1751 271.581 91.6241 271.581 92.3901L 271.581 96.5691L 272.581 96.5691L 272.581 92.0501C 272.581 90.9721 271.96 90.3741 270.827 90.3741C 270.023 90.3741 269.534 90.6161 268.972 91.3041C 268.616 90.6551 268.132 90.3741 267.347 90.3741C 266.542 90.3741 266.011 90.6711 265.491 91.3931L 265.491 90.5461L 264.589 90.5461z"/>
<path style="stroke:none; fill-rule:evenodd; fill:#000000" d="M 278.886 96.6081L 278.886 90.5771L 277.886 90.5771L 277.886 94.0221C 277.886 95.2611 277.241 96.0731 276.234 96.0731C 275.472 96.0731 274.987 95.6121 274.987 94.8821L 274.987 90.5771L 273.987 90.5771L 273.987 95.2291C 273.987 96.2291 274.745 96.8741 275.937 96.8741C 276.835 96.8741 277.409 96.5651 277.984 95.7721L 277.984 96.6121L 278.886 96.6081z"/>
<path style="stroke:none; fill-rule:evenodd; fill:#000000" d="M 284.714 92.2331C 284.702 91.0461 283.917 90.3741 282.515 90.3741C 281.105 90.3741 280.191 91.1001 280.191 92.2221C 280.191 93.1671 280.679 93.6161 282.128 93.9641L 283.038 94.1821C 283.714 94.3431 283.984 94.5851 283.984 95.0221C 283.984 95.5851 283.417 95.9681 282.573 95.9681C 282.054 95.9681 281.616 95.8191 281.374 95.5611C 281.226 95.3901 281.155 95.2141 281.097 94.7801L 280.081 94.7801C 280.124 96.1901 280.909 96.8701 282.491 96.8701C 284.015 96.8701 284.984 96.1201 284.984 94.9561C 284.984 94.0581 284.472 93.5611 283.257 93.2721L 282.323 93.0541C 281.53 92.8701 281.191 92.6161 281.191 92.1901C 281.191 91.6401 281.687 91.2801 282.476 91.2801C 283.249 91.2801 283.667 91.6081 283.691 92.2371L 284.714 92.2331z"/>
<path style="stroke:none; fill-rule:evenodd; fill:#000000" d="M 242.136 107.671L 244.554 100.671L 243.609 100.671L 241.679 106.597L 239.632 100.671L 238.679 100.671L 241.183 107.671L 242.136 107.671z"/>
<path style="stroke:none; fill-rule:evenodd; fill:#000000" d="M 249.319 105.573L 250.034 107.671L 251.027 107.671L 248.581 100.671L 247.437 100.671L 244.952 107.671L 245.898 107.671L 246.632 105.573L 249.319 105.573zM 249.073 104.87L 246.855 104.87L 247.999 101.655L 249.073 104.87z"/>
<path style="stroke:none; fill-rule:evenodd; fill:#000000" d="M 251.987 106.671L 251.987 107.671L 252.585 107.671L 252.585 107.835C 252.585 108.468 252.456 108.651 251.987 108.667L 251.987 109.065C 252.651 109.065 252.987 108.636 252.987 107.815L 252.987 106.671L 251.987 106.671z"/>
<path style="stroke:none; fill-rule:evenodd; fill:#000000" d="M 257.538 107.671L 259.956 100.671L 259.011 100.671L 257.081 106.597L 255.034 100.671L 254.081 100.671L 256.585 107.671L 257.538 107.671z"/>
<path style="stroke:none; fill-rule:evenodd; fill:#000000" d="M 261.886 100.671L 260.987 100.671L 260.987 107.671L 265.284 107.671L 265.284 106.972L 261.886 106.972L 261.886 100.671z"/>
<path style="stroke:none; fill-rule:evenodd; fill:#000000" d="M 266.288 106.671L 266.288 107.671L 266.886 107.671L 266.886 107.835C 266.886 108.468 266.757 108.651 266.288 108.667L 266.288 109.065C 266.952 109.065 267.288 108.636 267.288 107.815L 267.288 106.671L 266.288 106.671z"/>
<path style="stroke:none; fill-rule:evenodd; fill:#000000" d="M 272.679 107.671L 274.687 101.827L 274.687 107.671L 275.484 107.671L 275.484 100.671L 274.245 100.671L 272.21 106.768L 270.136 100.671L 268.898 100.671L 268.898 107.671L 269.694 107.671L 269.694 101.827L 271.722 107.671L 272.679 107.671z"/>
<path style="stroke:none; fill-rule:evenodd; fill:#000000" d="M 276.886 107.671L 279.605 107.671C 281.386 107.671 282.48 106.347 282.48 104.167C 282.48 101.999 281.394 100.675 279.605 100.675L 276.886 100.675L 276.886 107.671zM 277.788 106.972L 277.788 101.374L 279.452 101.374C 280.847 101.374 281.585 102.335 281.585 104.179C 281.585 105.999 280.851 106.972 279.452 106.972L 277.788 106.972z"/>
<path style="stroke:none; fill-rule:evenodd; fill:#ffff00" d="M 133.577 210.339C 133.577 199.776 119.019 191.206 101.054 191.206C 83.0933 191.206 68.5303 199.768 68.5303 210.339C 68.5303 220.901 83.0933 229.472 101.054 229.472C 119.015 229.472 133.577 220.909 133.577 210.339"/>
<path style="stroke:#000000; stroke-width:0.95664899999999997; fill:none" d="M 133.577 210.339C 133.577 199.776 119.019 191.206 101.054 191.206C 83.0933 191.206 68.5303 199.768 68.5303 210.339C 68.5303 220.901 83.0933 229.472 101.054 229.472C 119.015 229.472 133.577 220.909 133.577 210.339"/>
<path style="stroke:none; fill-rule:evenodd; fill:#000000" d="M 98.2883 207.858C 98.2803 206.222 97.1593 205.272 95.2453 205.272C 93.4213 205.272 92.2923 206.222 92.2923 207.749C 92.2923 208.776 92.8233 209.429 93.9133 209.718L 95.9683 210.272C 97.0113 210.55 97.4873 210.976 97.4873 211.636C 97.4873 212.085 97.2493 212.55 96.9013 212.804C 96.5733 213.034 96.0543 213.159 95.3863 213.159C 94.4913 213.159 93.8823 212.933 93.4873 212.433C 93.1833 212.054 93.0463 211.636 93.0973 211.097L 92.0973 211.097C 92.1053 211.874 92.2533 212.386 92.5813 212.851C 93.1483 213.64 94.1013 214.058 95.3593 214.058C 96.3433 214.058 97.1483 213.831 97.6833 213.413C 98.2373 212.968 98.5893 212.218 98.5893 211.491C 98.5893 210.456 97.9563 209.698 96.8313 209.386L 94.7573 208.823C 93.7613 208.55 93.3983 208.226 93.3983 207.581C 93.3983 206.729 94.1323 206.163 95.2373 206.163C 96.5463 206.163 97.2803 206.765 97.2923 207.851L 98.2883 207.858z"/>
<path style="stroke:none; fill-rule:evenodd; fill:#000000" d="M 106.589 205.37L 105.589 205.37L 105.589 212.241L 101.241 205.37L 100.093 205.37L 100.093 213.768L 101.093 213.768L 101.093 206.987L 105.394 213.768L 106.589 213.768L 106.589 205.37z"/>
<path style="stroke:none; fill-rule:evenodd; fill:#000000" d="M 112.792 209.776C 112.749 209.19 112.624 208.808 112.394 208.472C 111.987 207.909 111.269 207.573 110.441 207.573C 108.839 207.573 107.792 208.866 107.792 210.878C 107.792 212.831 108.816 214.069 110.429 214.069C 111.851 214.069 112.749 213.198 112.862 211.706L 111.909 211.706C 111.753 212.683 111.265 213.171 110.46 213.171C 109.417 213.171 108.792 212.308 108.792 210.882C 108.792 209.374 109.401 208.476 110.437 208.476C 111.23 208.476 111.73 208.944 111.843 209.78L 112.792 209.776z"/>
<path style="stroke:none; fill-rule:evenodd; fill:#ffffff" d="M 6.1983 170.003L 98.0933 170.003L 98.0933 124.058L 6.1983 124.058L 6.1983 170.003z"/>
<path style="stroke:#000000; stroke-width:0.95664899999999997; fill:none" d="M 6.1983 170.003L 98.0933 170.003L 98.0933 124.058L 6.1983 124.058L 6.1983 170.003z"/>
<path style="stroke:#ff0000; stroke-dasharray:6,3; stroke-width:1.9133; fill:none" d="M 10.0303 147.026L 31.0893 147.026"/>
<path style="stroke:none; fill-rule:evenodd; fill:#0000ff" d="M 42.6873 134.37C 42.6873 133.452 42.6203 132.901 42.4483 132.456C 42.0623 131.472 41.1483 130.874 40.0303 130.874C 38.3663 130.874 37.2923 132.167 37.2923 134.155C 37.2923 136.143 38.3273 137.37 40.0033 137.37C 41.3703 137.37 42.3163 136.577 42.5543 135.245L 41.6013 135.245C 41.3393 136.05 40.8083 136.472 40.0423 136.472C 39.4413 136.472 38.9293 136.194 38.6093 135.679C 38.3823 135.331 38.3043 134.979 38.2923 134.374L 42.6873 134.37zM 38.2693 133.604C 38.3473 132.491 39.0273 131.768 39.9913 131.768C 40.9333 131.768 41.6553 132.546 41.6553 133.534C 41.6553 133.554 41.6553 133.577 41.6483 133.6L 38.2693 133.604z"/>
<path style="stroke:none; fill-rule:evenodd; fill:#0000ff" d="M 46.5423 133.972L 48.5623 131.077L 47.4843 131.077L 46.0383 133.237L 44.5933 131.077L 43.5033 131.077L 45.5113 134.018L 43.3863 137.073L 44.4763 137.073L 46.0033 134.765L 47.5073 137.073L 48.6203 137.073L 46.5423 133.972z"/>
<path style="stroke:none; fill-rule:evenodd; fill:#0000ff" d="M 54.3983 133.073C 54.3553 132.487 54.2303 132.108 53.9993 131.772C 53.5933 131.21 52.8743 130.874 52.0423 130.874C 50.4413 130.874 49.3903 132.167 49.3903 134.179C 49.3903 136.132 50.4133 137.37 52.0303 137.37C 53.4523 137.37 54.3513 136.495 54.4683 135.003L 53.5153 135.003C 53.3593 135.979 52.8703 136.468 52.0623 136.468C 51.0193 136.468 50.3943 135.604 50.3943 134.179C 50.3943 132.671 51.0033 131.772 52.0383 131.772C 52.8313 131.772 53.3313 132.237 53.4443 133.073L 54.3983 133.073z"/>
<path style="stroke:none; fill-rule:evenodd; fill:#0000ff" d="M 56.3863 131.073L 55.3863 131.073L 55.3863 137.073L 56.3863 137.073L 56.3863 131.073zM 56.3863 128.671L 55.3863 128.671L 55.3863 129.901L 56.3863 129.901L 56.3863 128.671z"/>
<path style="stroke:none; fill-rule:evenodd; fill:#0000ff" d="M 60.1873 131.073L 59.2883 131.073L 59.2883 129.401L 58.2883 129.401L 58.2883 131.073L 57.3903 131.073L 57.3903 131.87L 58.2883 131.87L 58.2883 136.417C 58.2883 137.022 58.6913 137.366 59.4213 137.366C 59.6443 137.366 59.8703 137.343 60.1833 137.284L 60.1833 136.448C 60.0693 136.538 59.9333 136.565 59.7653 136.565C 59.3903 136.565 59.2843 136.452 59.2843 136.022L 59.2843 131.87L 60.1833 131.87L 60.1873 131.073z"/>
<path style="stroke:none; fill-rule:evenodd; fill:#0000ff" d="M 66.6323 136.511C 66.5273 136.573 66.4803 136.573 66.4213 136.573C 66.0813 136.573 65.8903 136.401 65.8903 136.1L 65.8903 132.534C 65.8903 131.46 65.1123 130.878 63.6403 130.878C 62.7733 130.878 62.0543 131.132 61.6513 131.581C 61.3783 131.89 61.2653 132.237 61.2413 132.835L 62.1873 132.835C 62.2653 132.108 62.6913 131.776 63.5733 131.776C 64.4173 131.776 64.8903 132.097 64.8903 132.675L 64.8903 132.929C 64.8903 133.331 64.6553 133.503 63.9133 133.597C 62.5893 133.768 62.3863 133.815 62.0273 133.964C 61.3433 134.249 60.9953 134.792 60.9953 135.577C 60.9953 136.671 61.7493 137.362 62.9643 137.362C 63.7183 137.362 64.3233 137.089 64.9993 136.444C 65.0663 137.077 65.3623 137.362 65.9843 137.362C 66.1753 137.362 66.3233 137.339 66.6363 137.257L 66.6323 136.511zM 64.8863 135.21C 64.8863 135.538 64.8003 135.741 64.5193 136.015C 64.1403 136.378 63.6833 136.569 63.1363 136.569C 62.4133 136.569 61.9873 136.206 61.9873 135.577C 61.9873 134.929 62.3983 134.597 63.3903 134.44C 64.3703 134.3 64.5693 134.253 64.8823 134.1L 64.8863 135.21z"/>
<path style="stroke:none; fill-rule:evenodd; fill:#0000ff" d="M 69.6873 131.073L 68.7883 131.073L 68.7883 129.401L 67.7883 129.401L 67.7883 131.073L 66.8903 131.073L 66.8903 131.87L 67.7883 131.87L 67.7883 136.417C 67.7883 137.022 68.1913 137.366 68.9213 137.366C 69.1443 137.366 69.3703 137.343 69.6833 137.284L 69.6833 136.448C 69.5693 136.538 69.4333 136.565 69.2653 136.565C 68.8903 136.565 68.7843 136.452 68.7843 136.022L 68.7843 131.87L 69.6833 131.87L 69.6873 131.073z"/>
<path style="stroke:none; fill-rule:evenodd; fill:#0000ff" d="M 73.1243 130.87C 71.4213 130.87 70.3903 132.085 70.3903 134.12C 70.3903 136.155 71.4093 137.37 73.1403 137.37C 74.8433 137.37 75.8903 136.159 75.8903 134.167C 75.8903 132.077 74.8823 130.874 73.1283 130.874L 73.1243 130.87zM 73.1363 131.772C 74.2303 131.772 74.8863 132.659 74.8863 134.155C 74.8863 135.569 74.2103 136.468 73.1363 136.468C 72.0543 136.468 71.3863 135.581 71.3863 134.12C 71.3863 132.671 72.0503 131.772 73.1363 131.772z"/>
<path style="stroke:none; fill-rule:evenodd; fill:#0000ff" d="M 77.1873 131.046L 77.1873 137.069L 78.1873 137.069L 78.1873 133.936C 78.1873 133.073 78.3983 132.507 78.8473 132.175C 79.1363 131.956 79.4173 131.89 80.0693 131.878L 80.0693 130.913C 79.9133 130.893 79.8313 130.882 79.7063 130.882C 79.0973 130.882 78.6283 131.249 78.0853 132.147L 78.0853 131.058L 77.1873 131.046z"/>
<path style="stroke:none; fill-rule:evenodd; fill:#0000ff" d="M 84.7453 131.073L 83.0813 135.737L 81.5463 131.073L 80.5273 131.073L 82.5583 137.128L 82.1913 138.081C 82.0423 138.507 81.8233 138.667 81.4213 138.667C 81.2843 138.667 81.1243 138.632 80.9173 138.561L 80.9173 139.417C 81.1093 139.518 81.3083 139.565 81.5583 139.565C 81.8663 139.565 82.1983 139.464 82.4523 139.28C 82.7493 139.065 82.9213 138.811 83.1053 138.331L 85.7803 131.069L 84.7453 131.073z"/>
<path style="stroke:none; fill-rule:evenodd; fill:#ff0000" d="M 33.0033 147.026C 33.0033 144.913 31.2923 143.198 29.1753 143.198C 27.0623 143.198 25.3473 144.909 25.3473 147.026C 25.3473 149.14 27.0583 150.854 29.1753 150.854C 31.2883 150.854 33.0033 149.143 33.0033 147.026"/>
<path style="stroke:#ff0000; stroke-width:1.9133; fill:none" d="M 33.0033 147.026C 33.0033 144.913 31.2923 143.198 29.1753 143.198C 27.0623 143.198 25.3473 144.909 25.3473 147.026C 25.3473 149.14 27.0583 150.854 29.1753 150.854C 31.2883 150.854 33.0033 149.143 33.0033 147.026"/>
<path style="stroke:none; fill-rule:evenodd; fill:#ff0000" d="M 38.4873 144.472L 37.4873 144.472L 37.4873 150.472L 38.4873 150.472L 38.4873 144.472zM 38.4873 142.073L 37.4873 142.073L 37.4873 143.304L 38.4873 143.304L 38.4873 142.073z"/>
<path style="stroke:none; fill-rule:evenodd; fill:#ff0000" d="M 40.1873 144.444L 40.1873 150.468L 41.1873 150.468L 41.1873 147.12C 41.1873 145.882 41.8123 145.069 42.7773 145.069C 43.5153 145.069 43.9843 145.53 43.9843 146.261L 43.9843 150.464L 44.9843 150.464L 44.9843 145.913C 44.9843 144.913 44.2413 144.268 43.0813 144.268C 42.1873 144.268 41.6163 144.612 41.0893 145.452L 41.0893 144.44L 40.1873 144.444z"/>
<path style="stroke:none; fill-rule:evenodd; fill:#ff0000" d="M 46.5893 142.073L 46.5893 150.472L 47.5893 150.472L 47.5893 147.124C 47.5893 145.886 48.2143 145.073 49.1793 145.073C 49.4803 145.073 49.7803 145.175 50.0073 145.35C 50.2733 145.546 50.3863 145.835 50.3863 146.265L 50.3863 150.468L 51.3863 150.468L 51.3863 145.917C 51.3863 144.905 50.6673 144.272 49.5033 144.272C 48.6593 144.272 48.1483 144.538 47.5893 145.28L 47.5893 142.077L 46.5893 142.073z"/>
<path style="stroke:none; fill-rule:evenodd; fill:#ff0000" d="M 53.8863 144.472L 52.8863 144.472L 52.8863 150.472L 53.8863 150.472L 53.8863 144.472zM 53.8863 142.073L 52.8863 142.073L 52.8863 143.304L 53.8863 143.304L 53.8863 142.073z"/>
<path style="stroke:none; fill-rule:evenodd; fill:#ff0000" d="M 55.2883 142.073L 55.2883 150.472L 56.1873 150.472L 56.1873 149.702C 56.6403 150.425 57.2453 150.768 58.0813 150.768C 59.6553 150.768 60.6833 149.464 60.6833 147.452C 60.6833 145.487 59.7063 144.272 58.1323 144.272C 57.3123 144.272 56.7343 144.585 56.2883 145.265L 56.2883 142.069L 55.2883 142.073zM 57.9373 145.179C 59.0033 145.179 59.6913 146.108 59.6913 147.542C 59.6913 148.905 58.9803 149.839 57.9373 149.839C 56.9293 149.839 56.2613 148.921 56.2613 147.511C 56.2613 146.1 56.9253 145.182 57.9373 145.182L 57.9373 145.179z"/>
<path style="stroke:none; fill-rule:evenodd; fill:#ff0000" d="M 62.7883 144.472L 61.7883 144.472L 61.7883 150.472L 62.7883 150.472L 62.7883 144.472zM 62.7883 142.073L 61.7883 142.073L 61.7883 143.304L 62.7883 143.304L 62.7883 142.073z"/>
<path style="stroke:none; fill-rule:evenodd; fill:#ff0000" d="M 66.5893 144.472L 65.6913 144.472L 65.6913 142.8L 64.6913 142.8L 64.6913 144.472L 63.7923 144.472L 63.7923 145.268L 64.6913 145.268L 64.6913 149.815C 64.6913 150.421 65.0933 150.765 65.8233 150.765C 66.0463 150.765 66.2733 150.741 66.5853 150.682L 66.5853 149.847C 66.4723 149.936 66.3353 149.964 66.1673 149.964C 65.7923 149.964 65.6873 149.85 65.6873 149.421L 65.6873 145.268L 66.5853 145.268L 66.5893 144.472z"/>
<path style="stroke:none; fill-rule:evenodd; fill:#ff0000" d="M 69.9253 144.272C 68.2223 144.272 67.1913 145.487 67.1913 147.522C 67.1913 149.558 68.2103 150.772 69.9413 150.772C 71.6443 150.772 72.6913 149.561 72.6913 147.569C 72.6913 145.479 71.6833 144.276 69.9293 144.276L 69.9253 144.272zM 69.9373 145.171C 71.0303 145.171 71.6873 146.058 71.6873 147.554C 71.6873 148.968 71.0113 149.866 69.9373 149.866C 68.8553 149.866 68.1873 148.979 68.1873 147.518C 68.1873 146.069 68.8513 145.171 69.9373 145.171z"/>
<path style="stroke:none; fill-rule:evenodd; fill:#ff0000" d="M 73.9873 144.444L 73.9873 150.468L 74.9873 150.468L 74.9873 147.335C 74.9873 146.472 75.1983 145.905 75.6483 145.573C 75.9373 145.354 76.2183 145.288 76.8703 145.276L 76.8703 144.311C 76.7143 144.292 76.6323 144.28 76.5073 144.28C 75.8983 144.28 75.4293 144.647 74.8863 145.546L 74.8863 144.456L 73.9873 144.444z"/>
<path style="stroke:none; fill-rule:evenodd; fill:#ff0000" d="M 81.5423 144.472L 79.8783 149.136L 78.3433 144.472L 77.3233 144.472L 79.3553 150.526L 78.9873 151.479C 78.8393 151.905 78.6203 152.065 78.2183 152.065C 78.0813 152.065 77.9213 152.03 77.7143 151.96L 77.7143 152.815C 77.9053 152.917 78.1053 152.964 78.3553 152.964C 78.6633 152.964 78.9953 152.862 79.2493 152.679C 79.5463 152.464 79.7183 152.21 79.9013 151.729L 82.5773 144.468L 81.5423 144.472z"/>
<path style="stroke:#ed89ed; stroke-dasharray:6,3; stroke-width:1.9133; fill:none" d="M 10.0303 160.429L 29.1753 160.429"/>
<path style="stroke:none; fill-rule:evenodd; fill:#ed89ed" d="M 32.2103 156.3L 32.6673 164.405L 25.6833 160.733"/>
<path style="stroke:#ed89ed; stroke-width:1.9133; fill:none" d="M 32.2103 156.3L 32.6673 164.405L 25.6833 160.733L 32.2103 156.3z"/>
<path style="stroke:none; fill-rule:evenodd; fill:#ed89ed" d="M 37.5893 157.847L 37.5893 163.87L 38.5893 163.87L 38.5893 160.058C 38.5893 159.179 39.2143 158.472 39.9843 158.472C 40.6873 158.472 41.0853 158.909 41.0853 159.686L 41.0853 163.866L 42.0853 163.866L 42.0853 160.054C 42.0853 159.175 42.7103 158.468 43.4803 158.468C 44.1713 158.468 44.5813 158.917 44.5813 159.682L 44.5813 163.862L 45.5813 163.862L 45.5813 159.343C 45.5813 158.265 44.9563 157.663 43.8273 157.663C 43.0233 157.663 42.5343 157.905 41.9723 158.589C 41.6163 157.94 41.1323 157.663 40.3473 157.663C 39.5423 157.663 39.0113 157.96 38.4913 158.686L 38.4913 157.839L 37.5893 157.847z"/>
<path style="stroke:none; fill-rule:evenodd; fill:#ed89ed" d="M 49.5273 157.671C 47.8233 157.671 46.7923 158.886 46.7923 160.921C 46.7923 162.956 47.8123 164.171 49.5423 164.171C 51.2453 164.171 52.2923 162.96 52.2923 160.968C 52.2923 158.878 51.2843 157.675 49.5303 157.675L 49.5273 157.671zM 49.5383 158.573C 50.6323 158.573 51.2883 159.46 51.2883 160.956C 51.2883 162.37 50.6123 163.268 49.5383 163.268C 48.4563 163.268 47.7883 162.382 47.7883 160.921C 47.7883 159.472 48.4523 158.573 49.5383 158.573z"/>
<path style="stroke:none; fill-rule:evenodd; fill:#ed89ed" d="M 58.4873 155.472L 57.4873 155.472L 57.4873 158.608C 57.0893 157.995 56.4523 157.671 55.6553 157.671C 54.1093 157.671 53.0933 158.929 53.0933 160.862C 53.0933 162.909 54.0813 164.167 55.6873 164.167C 56.5033 164.167 57.0733 163.847 57.5893 163.077L 57.5893 163.87L 58.4873 163.87L 58.4873 155.472zM 55.8163 158.573C 56.8353 158.573 57.4843 159.499 57.4843 160.944C 57.4843 162.343 56.8273 163.268 55.8273 163.268C 54.7843 163.268 54.0893 162.331 54.0893 160.921C 54.0893 159.511 54.7803 158.573 55.8163 158.573z"/>
<path style="stroke:none; fill-rule:evenodd; fill:#ed89ed" d="M 64.7883 163.905L 64.7883 157.874L 63.7883 157.874L 63.7883 161.319C 63.7883 162.558 63.1443 163.37 62.1403 163.37C 61.3783 163.37 60.8943 162.909 60.8943 162.179L 60.8943 157.874L 59.8943 157.874L 59.8943 162.526C 59.8943 163.526 60.6513 164.171 61.8433 164.171C 62.7413 164.171 63.3163 163.862 63.8903 163.069L 63.8903 163.909L 64.7883 163.905z"/>
<path style="stroke:none; fill-rule:evenodd; fill:#ed89ed" d="M 66.3863 163.87L 67.3863 163.87L 67.3863 155.472L 66.3863 155.472L 66.3863 163.87z"/>
<path style="stroke:none; fill-rule:evenodd; fill:#ed89ed" d="M 74.2343 163.308C 74.1283 163.37 74.0813 163.37 74.0233 163.37C 73.6833 163.37 73.4913 163.198 73.4913 162.897L 73.4913 159.331C 73.4913 158.257 72.7143 157.675 71.2413 157.675C 70.3743 157.675 69.6553 157.929 69.2533 158.378C 68.9803 158.686 68.8663 159.034 68.8433 159.632L 69.7883 159.632C 69.8663 158.905 70.2923 158.573 71.1753 158.573C 72.0193 158.573 72.4913 158.893 72.4913 159.472L 72.4913 159.725C 72.4913 160.128 72.2573 160.3 71.5153 160.393C 70.1913 160.565 69.9873 160.612 69.6283 160.761C 68.9443 161.046 68.5973 161.589 68.5973 162.374C 68.5973 163.468 69.3513 164.159 70.5663 164.159C 71.3193 164.159 71.9253 163.886 72.6013 163.241C 72.6673 163.874 72.9643 164.159 73.5853 164.159C 73.7773 164.159 73.9253 164.136 74.2373 164.054L 74.2343 163.308zM 72.4873 162.011C 72.4873 162.339 72.4013 162.542 72.1203 162.815C 71.7413 163.179 71.2843 163.37 70.7373 163.37C 70.0153 163.37 69.5893 163.007 69.5893 162.378C 69.5893 161.729 69.9993 161.397 70.9913 161.241C 71.9723 161.1 72.1713 161.054 72.4843 160.901L 72.4873 162.011z"/>
<path style="stroke:none; fill-rule:evenodd; fill:#ed89ed" d="M 77.3863 157.87L 76.4873 157.87L 76.4873 156.198L 75.4873 156.198L 75.4873 157.87L 74.5893 157.87L 74.5893 158.667L 75.4873 158.667L 75.4873 163.214C 75.4873 163.819 75.8903 164.163 76.6203 164.163C 76.8433 164.163 77.0693 164.14 77.3823 164.081L 77.3823 163.245C 77.2693 163.335 77.1323 163.362 76.9643 163.362C 76.5893 163.362 76.4843 163.249 76.4843 162.819L 76.4843 158.667L 77.3823 158.667L 77.3863 157.87z"/>
<path style="stroke:none; fill-rule:evenodd; fill:#ed89ed" d="M 80.8233 157.671C 79.1203 157.671 78.0893 158.886 78.0893 160.921C 78.0893 162.956 79.1093 164.171 80.8393 164.171C 82.5423 164.171 83.5893 162.96 83.5893 160.968C 83.5893 158.878 82.5813 157.675 80.8273 157.675L 80.8233 157.671zM 80.8393 158.573C 81.9333 158.573 82.5893 159.46 82.5893 160.956C 82.5893 162.37 81.9133 163.268 80.8393 163.268C 79.7573 163.268 79.0893 162.382 79.0893 160.921C 79.0893 159.472 79.7533 158.573 80.8393 158.573z"/>
<path style="stroke:none; fill-rule:evenodd; fill:#ed89ed" d="M 84.8863 157.847L 84.8863 163.87L 85.8863 163.87L 85.8863 160.737C 85.8863 159.874 86.0973 159.308 86.5463 158.975C 86.8353 158.757 87.1163 158.69 87.7693 158.679L 87.7693 157.714C 87.6123 157.694 87.5303 157.682 87.4053 157.682C 86.7963 157.682 86.3273 158.05 85.7843 158.948L 85.7843 157.858L 84.8863 157.847z"/>
<path style="stroke:none; fill-rule:evenodd; fill:#ed89ed" d="M 92.3433 157.87L 90.6793 162.534L 89.1443 157.87L 88.1243 157.87L 90.1553 163.925L 89.7883 164.878C 89.6403 165.304 89.4213 165.464 89.0193 165.464C 88.8823 165.464 88.7223 165.429 88.5153 165.358L 88.5153 166.214C 88.7063 166.315 88.9053 166.362 89.1553 166.362C 89.4643 166.362 89.7963 166.261 90.0503 166.077C 90.3473 165.862 90.5193 165.608 90.7023 165.128L 93.3783 157.866L 92.3433 157.87z"/>
<path style="stroke:#0000ff; stroke-width:1.9133; fill:none" d="M 10.0273 133.628L 31.0853 133.628"/>
<path style="stroke:#0000ff; stroke-width:1.9133; fill:none" d="M 23.4373 131.714L 31.0893 133.624L 23.4373 135.534"/>
<path style="stroke:#0000ff; stroke-width:1.9133; fill:none" d="M 230.007 47.8581L 258.687 81.3191"/>
<path style="stroke:#0000ff; stroke-width:1.9133; fill:none" d="M 233.534 54.9131L 230.007 47.8581L 236.437 52.4211"/>
<path style="stroke:#0000ff; stroke-width:1.9133; fill:none" d="M 255.159 74.2651L 258.687 81.3191L 252.257 76.7571"/>
</g>
</svg>