<?xml version="1.0" encoding="ISO-8859-1" standalone="yes"?>
<svg width="402.715" height="104.234">
  <defs> 
    <marker id="ArrowEnd" viewBox="0 0 10 10" refX="0" refY="5" 
     markerUnits="strokeWidth" 
     markerWidth="4" 
     markerHeight="3" 
     orient="auto"> 
        <path d="M 0 0 L 10 5 L 0 10 z" /> 
    </marker>
    <marker id="ArrowStart" viewBox="0 0 10 10" refX="10" refY="5" 
     markerUnits="strokeWidth" 
     markerWidth="4" 
     markerHeight="3" 
     orient="auto"> 
        <path d="M 10 0 L 0 5 L 10 10 z" /> 
    </marker> </defs>
<g>
<path style="stroke:#000000; stroke-width:1.9133; fill:none" d="M 10.0273 86.5585L 115.258 86.5585L 115.258 17.6833L 10.0273 17.6833L 10.0273 86.5585z"/>
<path style="stroke:none; fill-rule:evenodd; fill:#000000" d="M 30.2539 46.2499L 32.8945 46.2499C 33.5507 46.2499 34.0703 46.0585 34.5234 45.6561C 35.0312 45.203 35.25 44.6639 35.25 43.8983C 35.25 42.3358 34.3124 41.453 32.6406 41.453L 29.1523 41.453L 29.1523 49.8514L 30.25 49.8514L 30.2539 46.2499zM 30.2539 45.3514L 30.2539 42.3514L 32.5039 42.3514C 33.5351 42.3514 34.1523 42.9139 34.1523 43.8514C 34.1523 44.785 33.539 45.3514 32.5039 45.3514L 30.2539 45.3514z"/>
<path style="stroke:none; fill-rule:evenodd; fill:#000000" d="M 36.6562 41.4491L 36.6562 49.8475L 37.6562 49.8475L 37.6562 46.4999C 37.6562 45.2616 38.2812 44.4491 39.246 44.4491C 39.5468 44.4491 39.8476 44.5506 40.0742 44.7264C 40.3398 44.9217 40.4531 45.2108 40.4531 45.6405L 40.4531 49.8436L 41.4531 49.8436L 41.4531 45.2889C 41.4531 44.2772 40.7343 43.6444 39.5703 43.6444C 38.7265 43.6444 38.2148 43.91 37.6562 44.6522L 37.6562 41.4413L 36.6562 41.4491z"/>
<path style="stroke:none; fill-rule:evenodd; fill:#000000" d="M 45.3906 43.6483C 43.6874 43.6483 42.6562 44.8631 42.6562 46.8983C 42.6562 48.9335 43.6757 50.1483 45.4062 50.1483C 47.1093 50.1483 48.1562 48.9374 48.1562 46.9491C 48.1562 44.8592 47.1484 43.6561 45.3984 43.6561L 45.3906 43.6483zM 45.4062 44.5506C 46.5 44.5506 47.1562 45.4374 47.1562 46.9335C 47.1562 48.3475 46.4804 49.246 45.4062 49.246C 44.3242 49.246 43.6562 48.3592 43.6562 46.8983C 43.6562 45.4491 44.3203 44.5506 45.4062 44.5506z"/>
<path style="stroke:none; fill-rule:evenodd; fill:#000000" d="M 49.4531 43.8241L 49.4531 49.8475L 50.4531 49.8475L 50.4531 46.4999C 50.4531 45.2616 51.0781 44.4491 52.0429 44.4491C 52.7812 44.4491 53.25 44.91 53.25 45.6405L 53.25 49.8436L 54.25 49.8436L 54.25 45.2889C 54.25 44.2889 53.5078 43.6444 52.3476 43.6444C 51.457 43.6444 50.8828 43.9881 50.3554 44.828L 50.3554 43.8163L 49.4531 43.8241z"/>
<path style="stroke:none; fill-rule:evenodd; fill:#000000" d="M 58.1914 43.6483C 56.4882 43.6483 55.457 44.8631 55.457 46.8983C 55.457 48.9335 56.4765 50.1483 58.207 50.1483C 59.9101 50.1483 60.957 48.9374 60.957 46.9491C 60.957 44.8592 59.9492 43.6561 58.1992 43.6561L 58.1914 43.6483zM 58.2031 44.5506C 59.2968 44.5506 59.9531 45.4374 59.9531 46.9335C 59.9531 48.3475 59.2773 49.246 58.2031 49.246C 57.121 49.246 56.4531 48.3592 56.4531 46.8983C 56.4531 45.4491 57.1171 44.5506 58.2031 44.5506z"/>
<path style="stroke:none; fill-rule:evenodd; fill:#000000" d="M 62.1562 49.8514L 63.1562 49.8514L 63.1562 41.453L 62.1562 41.453L 62.1562 49.8514z"/>
<path style="stroke:none; fill-rule:evenodd; fill:#000000" d="M 67.0937 43.6483C 65.3906 43.6483 64.3593 44.8631 64.3593 46.8983C 64.3593 48.9335 65.3789 50.1483 67.1093 50.1483C 68.8124 50.1483 69.8593 48.9374 69.8593 46.9491C 69.8593 44.8592 68.8515 43.6561 67.1015 43.6561L 67.0937 43.6483zM 67.1054 44.5506C 68.1992 44.5506 68.8554 45.4374 68.8554 46.9335C 68.8554 48.3475 68.1796 49.246 67.1054 49.246C 66.0234 49.246 65.3554 48.3592 65.3554 46.8983C 65.3554 45.4491 66.0195 44.5506 67.1054 44.5506z"/>
<path style="stroke:none; fill-rule:evenodd; fill:#000000" d="M 75.0546 43.8514L 75.0546 44.7069C 74.5742 43.9881 73.9882 43.6522 73.2187 43.6522C 71.6914 43.6522 70.6601 44.9921 70.6601 46.9569C 70.6601 47.9491 70.9218 48.7577 71.414 49.3358C 71.8593 49.8436 72.5 50.1444 73.1328 50.1444C 73.8867 50.1444 74.414 49.8163 74.9531 49.0311L 74.9531 49.3397C 74.9531 50.1522 74.8515 50.6483 74.6132 50.9803C 74.3632 51.3358 73.875 51.5389 73.2968 51.5389C 72.8671 51.5389 72.4804 51.4256 72.2187 51.2186C 72.0039 51.0467 71.914 50.8866 71.8554 50.5311L 70.8906 50.5311C 70.9921 51.6639 71.871 52.3397 73.2812 52.3397C 74.1718 52.3397 74.9374 52.0545 75.3281 51.5741C 75.7851 51.0272 75.957 50.2694 75.957 48.8592L 75.957 43.8436L 75.0546 43.8514zM 73.3164 44.5506C 74.3437 44.5506 74.9531 45.4256 74.9531 46.9335C 74.9531 48.371 74.3359 49.246 73.3281 49.246C 72.2851 49.246 71.6562 48.3592 71.6562 46.8983C 71.6562 45.4491 72.2968 44.5506 73.3164 44.5506z"/>
<path style="stroke:none; fill-rule:evenodd; fill:#000000" d="M 78.3554 43.8514L 77.3554 43.8514L 77.3554 49.8514L 78.3554 49.8514L 78.3554 43.8514zM 78.3554 41.4491L 77.3554 41.4491L 77.3554 42.6835L 78.3554 42.6835L 78.3554 41.4491z"/>
<path style="stroke:none; fill-rule:evenodd; fill:#000000" d="M 84.6601 45.8553C 84.6171 45.2694 84.4921 44.8866 84.2617 44.5506C 83.8554 43.9881 83.1367 43.6522 82.3085 43.6522C 80.707 43.6522 79.6601 44.9452 79.6601 46.9569C 79.6601 48.91 80.6835 50.1483 82.2968 50.1483C 83.7187 50.1483 84.6171 49.2772 84.7304 47.785L 83.7773 47.785C 83.621 48.7616 83.1328 49.2499 82.3281 49.2499C 81.2851 49.2499 80.6601 48.3866 80.6601 46.9608C 80.6601 45.453 81.2695 44.5545 82.3046 44.5545C 83.0976 44.5545 83.5976 45.0233 83.7109 45.8592L 84.6601 45.8553z"/>
<path style="stroke:none; fill-rule:evenodd; fill:#000000" d="M 91.0972 49.2889C 90.9922 49.3475 90.9452 49.3475 90.8862 49.3475C 90.5472 49.3475 90.3592 49.1756 90.3592 48.8749L 90.3592 45.3085C 90.3592 44.2342 89.5822 43.6522 88.1092 43.6522C 87.2422 43.6522 86.5232 43.9061 86.1212 44.3553C 85.8472 44.6639 85.7342 45.0116 85.7112 45.6131L 86.6562 45.6131C 86.7342 44.8827 87.1602 44.5506 88.0432 44.5506C 88.8862 44.5506 89.3592 44.871 89.3592 45.4491L 89.3592 45.703C 89.3592 46.1053 89.1252 46.2772 88.3832 46.371C 87.0582 46.5428 86.8552 46.5897 86.4962 46.7381C 85.8122 47.0233 85.4652 47.5663 85.4652 48.3514C 85.4652 49.4452 86.2182 50.1366 87.4292 50.1366C 88.1832 50.1366 88.7892 49.8631 89.4652 49.2186C 89.5312 49.8514 89.8282 50.1366 90.4452 50.1366C 90.6362 50.1366 90.7852 50.1131 91.0942 50.0311L 91.0972 49.2889zM 89.3552 47.9881C 89.3552 48.3163 89.2652 48.5194 88.9882 48.7928C 88.6092 49.1561 88.1522 49.3475 87.6052 49.3475C 86.8832 49.3475 86.4572 48.9842 86.4572 48.3553C 86.4572 47.7069 86.8672 47.3749 87.8592 47.2225C 88.8402 47.0819 89.0392 47.035 89.3512 46.8827L 89.3552 47.9881z"/>
<path style="stroke:none; fill-rule:evenodd; fill:#000000" d="M 92.1562 49.8514L 93.1562 49.8514L 93.1562 41.453L 92.1562 41.453L 92.1562 49.8514z"/>
<path style="stroke:none; fill-rule:evenodd; fill:#000000" d="M 30.1562 52.8514L 29.0585 52.8514L 29.0585 61.2499L 34.2578 61.2499L 34.2578 60.3514L 30.1601 60.3514L 30.1562 52.8514z"/>
<path style="stroke:none; fill-rule:evenodd; fill:#000000" d="M 37.6914 55.0506C 35.9882 55.0506 34.957 56.2655 34.957 58.3006C 34.957 60.3358 35.9765 61.5506 37.707 61.5506C 39.4101 61.5506 40.457 60.3397 40.457 58.3514C 40.457 56.2616 39.4492 55.0585 37.6992 55.0585L 37.6914 55.0506zM 37.7031 55.9491C 38.7968 55.9491 39.4531 56.8358 39.4531 58.3319C 39.4531 59.746 38.7773 60.6444 37.7031 60.6444C 36.621 60.6444 35.9531 59.7577 35.9531 58.2967C 35.9531 56.8475 36.6171 55.9491 37.7031 55.9491z"/>
<path style="stroke:none; fill-rule:evenodd; fill:#000000" d="M 44.0937 55.0506C 42.3906 55.0506 41.3593 56.2655 41.3593 58.3006C 41.3593 60.3358 42.3789 61.5506 44.1093 61.5506C 45.8124 61.5506 46.8593 60.3397 46.8593 58.3514C 46.8593 56.2616 45.8515 55.0585 44.1015 55.0585L 44.0937 55.0506zM 44.1054 55.9491C 45.1992 55.9491 45.8554 56.8358 45.8554 58.3319C 45.8554 59.746 45.1796 60.6444 44.1054 60.6444C 43.0234 60.6444 42.3554 59.7577 42.3554 58.2967C 42.3554 56.8475 43.0195 55.9491 44.1054 55.9491z"/>
<path style="stroke:none; fill-rule:evenodd; fill:#000000" d="M 47.9531 63.7538L 48.9531 63.7538L 48.9531 60.6522C 49.4531 61.2733 50.0156 61.5506 50.789 61.5506C 52.332 61.5506 53.3476 60.2928 53.3476 58.3592C 53.3476 56.328 52.3632 55.0545 50.7656 55.0545C 49.9531 55.0545 49.2968 55.4217 48.8515 56.1327L 48.8515 55.2264L 47.9531 55.2264L 47.9531 63.7538zM 50.621 55.9491C 51.6679 55.9491 52.3515 56.8827 52.3515 58.3319C 52.3515 59.7069 51.6562 60.6444 50.621 60.6444C 49.6171 60.6444 48.957 59.7186 48.957 58.2967C 48.957 56.8749 49.6171 55.9491 50.621 55.9491z"/>
<path style="stroke:#000000; stroke-width:1.9133; fill:none" d="M 287.457 86.5585L 392.687 86.5585L 392.687 17.6833L 287.457 17.6833L 287.457 86.5585z"/>
<path style="stroke:none; fill-rule:evenodd; fill:#000000" d="M 312.554 49.8514L 315.457 41.453L 314.324 41.453L 312.008 48.5663L 309.554 41.453L 308.41 41.453L 311.414 49.8514L 312.554 49.8514z"/>
<path style="stroke:none; fill-rule:evenodd; fill:#000000" d="M 317.355 43.8514L 316.355 43.8514L 316.355 49.8514L 317.355 49.8514L 317.355 43.8514zM 317.355 41.4491L 316.355 41.4491L 316.355 42.6835L 317.355 42.6835L 317.355 41.4491z"/>
<path style="stroke:none; fill-rule:evenodd; fill:#000000" d="M 323.281 45.5116C 323.269 44.3241 322.484 43.6522 321.082 43.6522C 319.672 43.6522 318.758 44.3788 318.758 45.4999C 318.758 46.4452 319.246 46.8944 320.695 47.2421L 321.605 47.4608C 322.281 47.621 322.551 47.8631 322.551 48.3006C 322.551 48.8631 321.984 49.246 321.14 49.246C 320.621 49.246 320.183 49.0975 319.941 48.8397C 319.793 48.6678 319.722 48.4921 319.664 48.0585L 318.648 48.0585C 318.691 49.4686 319.476 50.1483 321.058 50.1483C 322.582 50.1483 323.551 49.3983 323.551 48.2342C 323.551 47.3358 323.039 46.8397 321.824 46.5506L 320.89 46.3319C 320.097 46.1483 319.758 45.8944 319.758 45.4686C 319.758 44.9178 320.254 44.5585 321.043 44.5585C 321.816 44.5585 322.234 44.8866 322.258 45.5155L 323.281 45.5116z"/>
<path style="stroke:none; fill-rule:evenodd; fill:#000000" d="M 329.554 49.8866L 329.554 43.8553L 328.554 43.8553L 328.554 47.3006C 328.554 48.5389 327.91 49.3514 326.902 49.3514C 326.14 49.3514 325.656 48.8905 325.656 48.16L 325.656 43.8553L 324.656 43.8553L 324.656 48.5077C 324.656 49.5077 325.414 50.1522 326.605 50.1522C 327.504 50.1522 328.078 49.8436 328.652 49.0506L 328.652 49.8905L 329.554 49.8866z"/>
<path style="stroke:none; fill-rule:evenodd; fill:#000000" d="M 333.492 43.6483C 331.789 43.6483 330.758 44.8631 330.758 46.8983C 330.758 48.9335 331.777 50.1483 333.508 50.1483C 335.211 50.1483 336.258 48.9374 336.258 46.9491C 336.258 44.8592 335.25 43.6561 333.5 43.6561L 333.492 43.6483zM 333.504 44.5506C 334.597 44.5506 335.254 45.4374 335.254 46.9335C 335.254 48.3475 334.578 49.246 333.504 49.246C 332.422 49.246 331.754 48.3592 331.754 46.8983C 331.754 45.4491 332.418 44.5506 333.504 44.5506z"/>
<path style="stroke:none; fill-rule:evenodd; fill:#000000" d="M 341.781 45.5116C 341.769 44.3241 340.984 43.6522 339.582 43.6522C 338.172 43.6522 337.258 44.3788 337.258 45.4999C 337.258 46.4452 337.746 46.8944 339.195 47.2421L 340.105 47.4608C 340.781 47.621 341.051 47.8631 341.051 48.3006C 341.051 48.8631 340.484 49.246 339.64 49.246C 339.121 49.246 338.683 49.0975 338.441 48.8397C 338.293 48.6678 338.222 48.4921 338.164 48.0585L 337.148 48.0585C 337.191 49.4686 337.976 50.1483 339.558 50.1483C 341.082 50.1483 342.051 49.3983 342.051 48.2342C 342.051 47.3358 341.539 46.8397 340.324 46.5506L 339.39 46.3319C 338.597 46.1483 338.258 45.8944 338.258 45.4686C 338.258 44.9178 338.754 44.5585 339.543 44.5585C 340.316 44.5585 340.734 44.8866 340.758 45.5155L 341.781 45.5116z"/>
<path style="stroke:none; fill-rule:evenodd; fill:#000000" d="M 343.054 52.3514L 344.054 52.3514L 344.054 49.2499C 344.554 49.871 345.117 50.1483 345.89 50.1483C 347.433 50.1483 348.449 48.8905 348.449 46.9569C 348.449 44.9256 347.465 43.6522 345.867 43.6522C 345.054 43.6522 344.398 44.0194 343.953 44.7303L 343.953 43.8241L 343.054 43.8241L 343.054 52.3514zM 345.718 44.5506C 346.765 44.5506 347.449 45.4842 347.449 46.9335C 347.449 48.3085 346.754 49.246 345.718 49.246C 344.715 49.246 344.054 48.3202 344.054 46.8983C 344.054 45.4764 344.715 44.5506 345.718 44.5506z"/>
<path style="stroke:none; fill-rule:evenodd; fill:#000000" d="M 354.996 49.2889C 354.89 49.3475 354.844 49.3475 354.785 49.3475C 354.445 49.3475 354.258 49.1756 354.258 48.8749L 354.258 45.3085C 354.258 44.2342 353.48 43.6522 352.008 43.6522C 351.14 43.6522 350.422 43.9061 350.019 44.3553C 349.746 44.6639 349.633 45.0116 349.609 45.6131L 350.554 45.6131C 350.633 44.8827 351.058 44.5506 351.941 44.5506C 352.785 44.5506 353.258 44.871 353.258 45.4491L 353.258 45.703C 353.258 46.1053 353.023 46.2772 352.281 46.371C 350.957 46.5428 350.754 46.5897 350.394 46.7381C 349.711 47.0233 349.363 47.5663 349.363 48.3514C 349.363 49.4452 350.117 50.1366 351.328 50.1366C 352.082 50.1366 352.687 49.8631 353.363 49.2186C 353.429 49.8514 353.726 50.1366 354.344 50.1366C 354.535 50.1366 354.683 50.1131 354.992 50.0311L 354.996 49.2889zM 353.254 47.9881C 353.254 48.3163 353.164 48.5194 352.886 48.7928C 352.508 49.1561 352.051 49.3475 351.504 49.3475C 350.781 49.3475 350.355 48.9842 350.355 48.3553C 350.355 47.7069 350.765 47.3749 351.758 47.2225C 352.738 47.0819 352.937 47.035 353.25 46.8827L 353.254 47.9881z"/>
<path style="stroke:none; fill-rule:evenodd; fill:#000000" d="M 358.156 43.8514L 357.258 43.8514L 357.258 42.1835L 356.258 42.1835L 356.258 43.8514L 355.359 43.8514L 355.359 44.6483L 356.258 44.6483L 356.258 49.1952C 356.258 49.8006 356.66 50.1444 357.39 50.1444C 357.613 50.1444 357.84 50.121 358.152 50.0624L 358.152 49.2264C 358.039 49.3163 357.902 49.3436 357.734 49.3436C 357.359 49.3436 357.254 49.2303 357.254 48.8006L 357.254 44.6483L 358.152 44.6483L 358.156 43.8514z"/>
<path style="stroke:none; fill-rule:evenodd; fill:#000000" d="M 360.156 43.8514L 359.156 43.8514L 359.156 49.8514L 360.156 49.8514L 360.156 43.8514zM 360.156 41.4491L 359.156 41.4491L 359.156 42.6835L 360.156 42.6835L 360.156 41.4491z"/>
<path style="stroke:none; fill-rule:evenodd; fill:#000000" d="M 367.097 49.2889C 366.992 49.3475 366.945 49.3475 366.886 49.3475C 366.547 49.3475 366.359 49.1756 366.359 48.8749L 366.359 45.3085C 366.359 44.2342 365.582 43.6522 364.109 43.6522C 363.242 43.6522 362.523 43.9061 362.121 44.3553C 361.847 44.6639 361.734 45.0116 361.711 45.6131L 362.656 45.6131C 362.734 44.8827 363.16 44.5506 364.043 44.5506C 364.886 44.5506 365.359 44.871 365.359 45.4491L 365.359 45.703C 365.359 46.1053 365.125 46.2772 364.383 46.371C 363.058 46.5428 362.855 46.5897 362.496 46.7381C 361.812 47.0233 361.465 47.5663 361.465 48.3514C 361.465 49.4452 362.218 50.1366 363.429 50.1366C 364.183 50.1366 364.789 49.8631 365.465 49.2186C 365.531 49.8514 365.828 50.1366 366.445 50.1366C 366.636 50.1366 366.785 50.1131 367.094 50.0311L 367.097 49.2889zM 365.355 47.9881C 365.355 48.3163 365.265 48.5194 364.988 48.7928C 364.609 49.1561 364.152 49.3475 363.605 49.3475C 362.883 49.3475 362.457 48.9842 362.457 48.3553C 362.457 47.7069 362.867 47.3749 363.859 47.2225C 364.84 47.0819 365.039 47.035 365.351 46.8827L 365.355 47.9881z"/>
<path style="stroke:none; fill-rule:evenodd; fill:#000000" d="M 368.156 49.8514L 369.156 49.8514L 369.156 41.453L 368.156 41.453L 368.156 49.8514z"/>
<path style="stroke:none; fill-rule:evenodd; fill:#000000" d="M 314.855 55.3397C 314.847 53.703 313.726 52.7538 311.812 52.7538C 309.988 52.7538 308.859 53.703 308.859 55.2303C 308.859 56.2577 309.39 56.91 310.48 57.1991L 312.535 57.7538C 313.578 58.0311 314.054 58.4569 314.054 59.1171C 314.054 59.5663 313.816 60.0311 313.468 60.285C 313.14 60.5155 312.621 60.6405 311.953 60.6405C 311.058 60.6405 310.449 60.4139 310.054 59.9139C 309.75 59.535 309.613 59.1171 309.664 58.578L 308.664 58.578C 308.672 59.3553 308.82 59.8671 309.148 60.3319C 309.715 61.121 310.668 61.5389 311.926 61.5389C 312.91 61.5389 313.715 61.3124 314.25 60.8944C 314.804 60.4491 315.156 59.6991 315.156 58.9725C 315.156 57.9374 314.523 57.1795 313.398 56.8671L 311.324 56.3045C 310.328 56.0311 309.965 55.7069 309.965 55.0624C 309.965 54.2108 310.699 53.6444 311.804 53.6444C 313.113 53.6444 313.847 54.246 313.859 55.3319L 314.855 55.3397z"/>
<path style="stroke:none; fill-rule:evenodd; fill:#000000" d="M 317.254 52.8514L 316.254 52.8514L 316.254 61.2499L 317.254 61.2499L 317.254 58.91L 318.187 57.9921L 320.226 61.2499L 321.414 61.2499L 318.949 57.3241L 321.047 55.2538L 319.816 55.2538L 317.258 57.785L 317.254 52.8514z"/>
<path style="stroke:none; fill-rule:evenodd; fill:#000000" d="M 327.355 58.5506C 327.355 57.6327 327.289 57.0819 327.117 56.6366C 326.73 55.6522 325.816 55.0545 324.699 55.0545C 323.035 55.0545 321.961 56.3475 321.961 58.3358C 321.961 60.3241 322.996 61.5506 324.672 61.5506C 326.035 61.5506 326.98 60.7577 327.222 59.4256L 326.269 59.4256C 326.008 60.2303 325.476 60.6483 324.715 60.6483C 324.113 60.6483 323.601 60.371 323.285 59.8553C 323.058 59.5077 322.98 59.1561 322.968 58.5506L 327.355 58.5506zM 322.933 57.785C 323.011 56.6717 323.691 55.9491 324.652 55.9491C 325.59 55.9491 326.316 56.7264 326.316 57.7147C 326.316 57.7342 326.316 57.7577 326.304 57.7811L 322.933 57.785z"/>
<path style="stroke:none; fill-rule:evenodd; fill:#000000" d="M 330.656 55.2499L 329.758 55.2499L 329.758 53.5819L 328.758 53.5819L 328.758 55.2499L 327.859 55.2499L 327.859 56.0467L 328.758 56.0467L 328.758 60.5936C 328.758 61.1991 329.16 61.5428 329.89 61.5428C 330.113 61.5428 330.34 61.5194 330.652 61.4608L 330.652 60.6249C 330.539 60.7147 330.402 60.7421 330.234 60.7421C 329.859 60.7421 329.754 60.6288 329.754 60.1991L 329.754 56.0467L 330.652 56.0467L 330.656 55.2499z"/>
<path style="stroke:none; fill-rule:evenodd; fill:#000000" d="M 336.359 57.2538C 336.316 56.6678 336.191 56.285 335.961 55.9491C 335.554 55.3866 334.836 55.0506 334.008 55.0506C 332.406 55.0506 331.359 56.3436 331.359 58.3553C 331.359 60.3085 332.383 61.5467 333.996 61.5467C 335.418 61.5467 336.316 60.6756 336.429 59.1835L 335.476 59.1835C 335.32 60.16 334.832 60.6483 334.027 60.6483C 332.984 60.6483 332.359 59.785 332.359 58.3592C 332.359 56.8514 332.968 55.953 334.004 55.953C 334.797 55.953 335.297 56.4217 335.41 57.2577L 336.359 57.2538z"/>
<path style="stroke:none; fill-rule:evenodd; fill:#000000" d="M 337.554 52.8514L 337.554 61.2499L 338.554 61.2499L 338.554 57.9022C 338.554 56.6639 339.179 55.8514 340.144 55.8514C 340.445 55.8514 340.746 55.953 340.972 56.1288C 341.238 56.3241 341.351 56.6131 341.351 57.0428L 341.351 61.246L 342.351 61.246L 342.351 56.6913C 342.351 55.6795 341.633 55.0467 340.468 55.0467C 339.625 55.0467 339.113 55.3124 338.554 56.0545L 338.554 52.8436L 337.554 52.8514z"/>
<path style="stroke:none; fill-rule:evenodd; fill:#000000" d="M 343.754 63.7538L 344.754 63.7538L 344.754 60.6522C 345.254 61.2733 345.816 61.5506 346.59 61.5506C 348.133 61.5506 349.148 60.2928 349.148 58.3592C 349.148 56.328 348.164 55.0545 346.566 55.0545C 345.754 55.0545 345.097 55.4217 344.652 56.1327L 344.652 55.2264L 343.754 55.2264L 343.754 63.7538zM 346.418 55.9491C 347.465 55.9491 348.148 56.8827 348.148 58.3319C 348.148 59.7069 347.453 60.6444 346.418 60.6444C 345.414 60.6444 344.754 59.7186 344.754 58.2967C 344.754 56.8749 345.414 55.9491 346.418 55.9491z"/>
<path style="stroke:none; fill-rule:evenodd; fill:#000000" d="M 355.597 60.6874C 355.492 60.746 355.445 60.746 355.386 60.746C 355.047 60.746 354.859 60.5741 354.859 60.2733L 354.859 56.7069C 354.859 55.6327 354.082 55.0506 352.609 55.0506C 351.742 55.0506 351.023 55.3045 350.621 55.7538C 350.347 56.0624 350.234 56.41 350.211 57.0116L 351.156 57.0116C 351.234 56.2811 351.66 55.9491 352.543 55.9491C 353.386 55.9491 353.859 56.2694 353.859 56.8475L 353.859 57.1014C 353.859 57.5038 353.625 57.6756 352.883 57.7694C 351.558 57.9413 351.355 57.9881 350.996 58.1366C 350.312 58.4217 349.965 58.9647 349.965 59.7499C 349.965 60.8436 350.718 61.535 351.929 61.535C 352.683 61.535 353.289 61.2616 353.965 60.6171C 354.031 61.2499 354.328 61.535 354.945 61.535C 355.136 61.535 355.285 61.5116 355.594 61.4295L 355.597 60.6874zM 353.855 59.3905C 353.855 59.7186 353.765 59.9217 353.488 60.1952C 353.109 60.5585 352.652 60.7499 352.105 60.7499C 351.383 60.7499 350.957 60.3866 350.957 59.7577C 350.957 59.1092 351.367 58.7772 352.359 58.6249C 353.34 58.4842 353.539 58.4374 353.851 58.285L 353.855 59.3905z"/>
<path style="stroke:none; fill-rule:evenodd; fill:#000000" d="M 361.554 52.8514L 360.554 52.8514L 360.554 55.9921C 360.156 55.3788 359.519 55.0506 358.718 55.0506C 357.172 55.0506 356.156 56.3085 356.156 58.2421C 356.156 60.2889 357.168 61.5467 358.808 61.5467C 359.644 61.5467 360.226 61.2264 360.75 60.4569L 360.75 61.246L 361.547 61.246L 361.554 52.8514zM 358.883 55.9491C 359.902 55.9491 360.551 56.8749 360.551 58.3202C 360.551 59.7186 359.894 60.6444 358.894 60.6444C 357.851 60.6444 357.156 59.7069 357.156 58.2967C 357.156 56.8866 357.847 55.9491 358.883 55.9491z"/>
<path style="stroke:#000000; stroke-width:1.9133; fill:none" d="M 264.496 52.1171C 264.496 28.8749 236.23 10.0273 201.359 10.0273C 166.492 10.0273 138.222 28.871 138.222 52.1171C 138.222 75.3592 166.488 94.2069 201.359 94.2069C 236.226 94.2069 264.496 75.3631 264.496 52.1171"/>
<path style="stroke:none; fill-rule:evenodd; fill:#000000" d="M 183.156 44.078C 182.82 42.2499 181.758 41.3553 179.906 41.3553C 178.773 41.3553 177.863 41.7108 177.238 42.4022C 176.476 43.2303 176.062 44.4256 176.062 45.785C 176.062 47.1639 176.488 48.3514 177.285 49.1678C 177.929 49.8358 178.761 50.1444 179.859 50.1444C 181.914 50.1444 183.07 49.0311 183.328 46.7928L 182.222 46.7928C 182.133 47.3827 182.019 47.785 181.844 48.1288C 181.5 48.8397 180.785 49.2421 179.89 49.2421C 178.222 49.2421 177.164 47.8905 177.164 45.7694C 177.164 43.5897 178.176 42.246 179.801 42.246C 180.476 42.246 181.113 42.4569 181.457 42.7811C 181.765 43.0741 181.937 43.4335 182.066 44.0663L 183.156 44.078z"/>
<path style="stroke:none; fill-rule:evenodd; fill:#000000" d="M 189.754 47.1483C 189.754 46.2303 189.687 45.6795 189.515 45.2342C 189.129 44.2499 188.215 43.6522 187.097 43.6522C 185.433 43.6522 184.359 44.9452 184.359 46.9335C 184.359 48.9217 185.394 50.1483 187.07 50.1483C 188.433 50.1483 189.379 49.3553 189.621 48.0233L 188.668 48.0233C 188.406 48.828 187.875 49.246 187.113 49.246C 186.511 49.246 186 48.9686 185.683 48.453C 185.457 48.1053 185.379 47.7538 185.367 47.1483L 189.754 47.1483zM 185.336 46.3827C 185.414 45.2694 186.094 44.5467 187.054 44.5467C 187.992 44.5467 188.718 45.3241 188.718 46.3124C 188.718 46.3319 188.718 46.3553 188.707 46.3788L 185.336 46.3827z"/>
<path style="stroke:none; fill-rule:evenodd; fill:#000000" d="M 190.953 43.8241L 190.953 49.8475L 191.953 49.8475L 191.953 46.4999C 191.953 45.2616 192.578 44.4491 193.543 44.4491C 194.281 44.4491 194.75 44.91 194.75 45.6405L 194.75 49.8436L 195.75 49.8436L 195.75 45.2889C 195.75 44.2889 195.008 43.6444 193.847 43.6444C 192.957 43.6444 192.383 43.9881 191.855 44.828L 191.855 43.8163L 190.953 43.8241z"/>
<path style="stroke:none; fill-rule:evenodd; fill:#000000" d="M 199.453 43.8514L 198.554 43.8514L 198.554 42.1835L 197.554 42.1835L 197.554 43.8514L 196.656 43.8514L 196.656 44.6483L 197.554 44.6483L 197.554 49.1952C 197.554 49.8006 197.957 50.1444 198.687 50.1444C 198.91 50.1444 199.136 50.121 199.449 50.0624L 199.449 49.2264C 199.336 49.3163 199.199 49.3436 199.031 49.3436C 198.656 49.3436 198.551 49.2303 198.551 48.8006L 198.551 44.6483L 199.449 44.6483L 199.453 43.8514z"/>
<path style="stroke:none; fill-rule:evenodd; fill:#000000" d="M 200.554 43.8241L 200.554 49.8475L 201.554 49.8475L 201.554 46.7147C 201.554 45.8514 201.765 45.2889 202.215 44.953C 202.504 44.7342 202.785 44.6678 203.437 44.6561L 203.437 43.6913C 203.281 43.6717 203.203 43.66 203.078 43.66C 202.468 43.66 202.004 44.0272 201.457 44.9217L 201.457 43.8319L 200.554 43.8241z"/>
<path style="stroke:none; fill-rule:evenodd; fill:#000000" d="M 209.695 49.2889C 209.59 49.3475 209.543 49.3475 209.484 49.3475C 209.144 49.3475 208.957 49.1756 208.957 48.8749L 208.957 45.3085C 208.957 44.2342 208.179 43.6522 206.707 43.6522C 205.84 43.6522 205.121 43.9061 204.718 44.3553C 204.445 44.6639 204.332 45.0116 204.308 45.6131L 205.254 45.6131C 205.332 44.8827 205.758 44.5506 206.64 44.5506C 207.484 44.5506 207.957 44.871 207.957 45.4491L 207.957 45.703C 207.957 46.1053 207.722 46.2772 206.98 46.371C 205.656 46.5428 205.453 46.5897 205.094 46.7381C 204.41 47.0233 204.062 47.5663 204.062 48.3514C 204.062 49.4452 204.816 50.1366 206.027 50.1366C 206.781 50.1366 207.386 49.8631 208.062 49.2186C 208.129 49.8514 208.426 50.1366 209.043 50.1366C 209.234 50.1366 209.383 50.1131 209.691 50.0311L 209.695 49.2889zM 207.953 47.9881C 207.953 48.3163 207.863 48.5194 207.586 48.7928C 207.207 49.1561 206.75 49.3475 206.203 49.3475C 205.48 49.3475 205.054 48.9842 205.054 48.3553C 205.054 47.7069 205.465 47.3749 206.457 47.2225C 207.437 47.0819 207.636 47.035 207.949 46.8827L 207.953 47.9881z"/>
<path style="stroke:none; fill-rule:evenodd; fill:#000000" d="M 210.754 49.8514L 211.754 49.8514L 211.754 41.453L 210.754 41.453L 210.754 49.8514z"/>
<path style="stroke:none; fill-rule:evenodd; fill:#000000" d="M 177.656 57.4491L 182.211 57.4491L 182.211 56.5506L 177.656 56.5506L 177.656 53.7538L 182.355 53.7538L 182.355 52.8553L 176.558 52.8553L 176.558 61.2538L 182.558 61.2538L 182.558 60.3553L 177.66 60.3553L 177.656 57.4491z"/>
<path style="stroke:none; fill-rule:evenodd; fill:#000000" d="M 186.508 58.1483L 188.527 55.2538L 187.449 55.2538L 186.004 57.4178L 184.558 55.2538L 183.468 55.2538L 185.476 58.1952L 183.355 61.2499L 184.445 61.2499L 185.968 58.9452L 187.472 61.2499L 188.586 61.2499L 186.508 58.1483z"/>
<path style="stroke:none; fill-rule:evenodd; fill:#000000" d="M 194.855 58.5506C 194.855 57.6327 194.789 57.0819 194.617 56.6366C 194.23 55.6522 193.316 55.0545 192.199 55.0545C 190.535 55.0545 189.461 56.3475 189.461 58.3358C 189.461 60.3241 190.496 61.5506 192.172 61.5506C 193.535 61.5506 194.48 60.7577 194.722 59.4256L 193.769 59.4256C 193.508 60.2303 192.976 60.6483 192.215 60.6483C 191.613 60.6483 191.101 60.371 190.785 59.8553C 190.558 59.5077 190.48 59.1561 190.468 58.5506L 194.855 58.5506zM 190.433 57.785C 190.511 56.6717 191.191 55.9491 192.152 55.9491C 193.09 55.9491 193.816 56.7264 193.816 57.7147C 193.816 57.7342 193.816 57.7577 193.804 57.7811L 190.433 57.785z"/>
<path style="stroke:none; fill-rule:evenodd; fill:#000000" d="M 200.761 57.2538C 200.718 56.6678 200.594 56.285 200.363 55.9491C 199.957 55.3866 199.238 55.0506 198.41 55.0506C 196.808 55.0506 195.761 56.3436 195.761 58.3553C 195.761 60.3085 196.785 61.5467 198.398 61.5467C 199.82 61.5467 200.718 60.6756 200.832 59.1835L 199.879 59.1835C 199.722 60.16 199.234 60.6483 198.429 60.6483C 197.386 60.6483 196.761 59.785 196.761 58.3592C 196.761 56.8514 197.371 55.953 198.406 55.953C 199.199 55.953 199.699 56.4217 199.812 57.2577L 200.761 57.2538z"/>
<path style="stroke:none; fill-rule:evenodd; fill:#000000" d="M 206.656 61.285L 206.656 55.2538L 205.656 55.2538L 205.656 58.6991C 205.656 59.9374 205.011 60.7499 204.004 60.7499C 203.242 60.7499 202.758 60.2889 202.758 59.5585L 202.758 55.2538L 201.758 55.2538L 201.758 59.9061C 201.758 60.9061 202.515 61.5506 203.707 61.5506C 204.605 61.5506 205.179 61.2421 205.754 60.4491L 205.754 61.2889L 206.656 61.285z"/>
<path style="stroke:none; fill-rule:evenodd; fill:#000000" d="M 210.355 55.2499L 209.457 55.2499L 209.457 53.5819L 208.457 53.5819L 208.457 55.2499L 207.558 55.2499L 207.558 56.0467L 208.457 56.0467L 208.457 60.5936C 208.457 61.1991 208.859 61.5428 209.59 61.5428C 209.812 61.5428 210.039 61.5194 210.351 61.4608L 210.351 60.6249C 210.238 60.7147 210.101 60.7421 209.933 60.7421C 209.558 60.7421 209.453 60.6288 209.453 60.1991L 209.453 56.0467L 210.351 56.0467L 210.355 55.2499z"/>
<path style="stroke:none; fill-rule:evenodd; fill:#000000" d="M 212.355 55.2499L 211.355 55.2499L 211.355 61.2499L 212.355 61.2499L 212.355 55.2499zM 212.355 52.8514L 211.355 52.8514L 211.355 54.0858L 212.355 54.0858L 212.355 52.8514z"/>
<path style="stroke:none; fill-rule:evenodd; fill:#000000" d="M 216.426 61.2499L 218.73 55.2499L 217.652 55.2499L 215.957 60.1092L 214.351 55.2499L 213.273 55.2499L 215.383 61.2499L 216.426 61.2499z"/>
<path style="stroke:none; fill-rule:evenodd; fill:#000000" d="M 224.855 58.5506C 224.855 57.6327 224.789 57.0819 224.617 56.6366C 224.23 55.6522 223.316 55.0545 222.199 55.0545C 220.535 55.0545 219.461 56.3475 219.461 58.3358C 219.461 60.3241 220.496 61.5506 222.172 61.5506C 223.535 61.5506 224.48 60.7577 224.722 59.4256L 223.769 59.4256C 223.508 60.2303 222.976 60.6483 222.215 60.6483C 221.613 60.6483 221.101 60.371 220.785 59.8553C 220.558 59.5077 220.48 59.1561 220.468 58.5506L 224.855 58.5506zM 220.433 57.785C 220.511 56.6717 221.191 55.9491 222.152 55.9491C 223.09 55.9491 223.816 56.7264 223.816 57.7147C 223.816 57.7342 223.816 57.7577 223.804 57.7811L 220.433 57.785z"/>
<path style="stroke:#000000; stroke-width:1.9133; fill:none" d="M 115.258 25.3323L 153.523 25.3323"/>
<path style="stroke:#000000; stroke-width:1.9133; fill:none" d="M 145.871 23.4183L 153.523 25.3283L 145.871 27.2383"/>
<path style="stroke:#000000; stroke-width:1.9133; fill:none" d="M 153.523 78.9061L 115.258 78.9061"/>
<path style="stroke:#000000; stroke-width:1.9133; fill:none" d="M 122.91 80.8202L 115.258 78.91L 122.91 76.9999"/>
<path style="stroke:#000000; stroke-width:1.9133; fill:none" d="M 287.457 25.3323L 249.191 25.3323"/>
<path style="stroke:#000000; stroke-width:1.9133; fill:none" d="M 256.844 27.2463L 249.191 25.3363L 256.844 23.4253"/>
<path style="stroke:#000000; stroke-width:1.9133; fill:none" d="M 249.187 78.9061L 287.453 78.9061"/>
<path style="stroke:#000000; stroke-width:1.9133; fill:none" d="M 279.801 76.9921L 287.453 78.9022L 279.801 80.8124"/>
</g>
</svg>