<?xml version="1.0" encoding="UTF-8" standalone="no"?>
<svg
   xmlns:dc="http://purl.org/dc/elements/1.1/"
   xmlns:cc="http://creativecommons.org/ns#"
   xmlns:rdf="http://www.w3.org/1999/02/22-rdf-syntax-ns#"
   xmlns:svg="http://www.w3.org/2000/svg"
   xmlns="http://www.w3.org/2000/svg"
   xmlns:sodipodi="http://sodipodi.sourceforge.net/DTD/sodipodi-0.dtd"
   xmlns:inkscape="http://www.inkscape.org/namespaces/inkscape"
   version="1.1"
   width="400px"
   height="400px"
   viewBox="0 0 1000.0 1000.0"
   id="svg2"
   inkscape:version="0.91 r13725"
   sodipodi:docname="interspersed_long_percent_correct.svg">
  <metadata
     id="metadata118">
    <rdf:RDF>
      <cc:Work
         rdf:about="">
        <dc:format>image/svg+xml</dc:format>
        <dc:type
           rdf:resource="http://purl.org/dc/dcmitype/StillImage" />
      </cc:Work>
    </rdf:RDF>
  </metadata>
  <defs
     id="defs116" />
  <sodipodi:namedview
     pagecolor="#ffffff"
     bordercolor="#666666"
     borderopacity="1"
     objecttolerance="10"
     gridtolerance="10"
     guidetolerance="10"
     inkscape:pageopacity="0"
     inkscape:pageshadow="2"
     inkscape:window-width="1870"
     inkscape:window-height="998"
     id="namedview114"
     showgrid="false"
     inkscape:zoom="2"
     inkscape:cx="2.2e+02"
     inkscape:cy="1.6e+02"
     inkscape:window-x="0"
     inkscape:window-y="0"
     inkscape:window-maximized="0"
     inkscape:current-layer="svg2" />
  <path
     stroke="#000000"
     stroke-width="2"
     fill="none"
     d="M 264.4,726.1 L 264.4,171.9 L 818.7,171.9 L 818.7,726.1 L 264.4,726.1 "
     id="path4" />
  <g
     id="g6">
    <text
       x="541.6"
       y="801.0"
       font-family="Arial"
       font-size="27.7"
       fill="#000000"
       text-anchor="middle"
       id="text8">
Degree of Degradation
</text>
    <text
       x="289.6"
       y="773.3"
       font-family="Arial"
       font-size="27.7"
       fill="#000000"
       text-anchor="middle"
       id="text10">
Maximum
</text>
    <text
       x="793.5"
       y="773.3"
       font-family="Arial"
       font-size="27.7"
       fill="#000000"
       text-anchor="middle"
       id="text12">
Minimum
</text>
    <path
       stroke="#000000"
       stroke-width="2"
       fill="none"
       d="M 264.4,726.1 L 818.7,726.1 M 289.6,740.0 L 289.6,712.3 M 415.6,740.0 L 415.6,712.3 M 541.6,740.0 L 541.6,712.3 M 667.5,740.0 L 667.5,712.3 M 793.5,740.0 L 793.5,712.3 "
       id="path14" />
    <path
       stroke="#000000"
       stroke-width="2"
       fill="none"
       d="M 264.4,171.9 L 818.7,171.9 M 289.6,185.7 L 289.6,158.0 M 415.6,185.7 L 415.6,158.0 M 541.6,185.7 L 541.6,158.0 M 667.5,185.7 L 667.5,158.0 M 793.5,185.7 L 793.5,158.0 "
       id="path16" />
    <text
       x="245.0"
       y="737.2"
       font-family="Arial"
       font-size="27.7"
       fill="#000000"
       text-anchor="end"
       id="text18">
10
</text>
    <text
       x="245.0"
       y="667.9"
       font-family="Arial"
       font-size="27.7"
       fill="#000000"
       text-anchor="end"
       id="text20">
20
</text>
    <text
       x="245.0"
       y="598.7"
       font-family="Arial"
       font-size="27.7"
       fill="#000000"
       text-anchor="end"
       id="text22">
30
</text>
    <text
       x="245.0"
       y="529.4"
       font-family="Arial"
       font-size="27.7"
       fill="#000000"
       text-anchor="end"
       id="text24">
40
</text>
    <text
       x="245.0"
       y="460.1"
       font-family="Arial"
       font-size="27.7"
       fill="#000000"
       text-anchor="end"
       id="text26">
50
</text>
    <text
       x="245.0"
       y="390.8"
       font-family="Arial"
       font-size="27.7"
       fill="#000000"
       text-anchor="end"
       id="text28">
60
</text>
    <text
       x="245.0"
       y="321.5"
       font-family="Arial"
       font-size="27.7"
       fill="#000000"
       text-anchor="end"
       id="text30">
70
</text>
    <text
       x="245.0"
       y="252.2"
       font-family="Arial"
       font-size="27.7"
       fill="#000000"
       text-anchor="end"
       id="text32">
80
</text>
    <text
       x="245.0"
       y="183.0"
       font-family="Arial"
       font-size="27.7"
       fill="#000000"
       text-anchor="end"
       id="text34">
90
</text>
    <path
       stroke="#000000"
       stroke-width="2"
       fill="none"
       d="M 264.4,726.1 L 264.4,171.9 M 250.6,726.1 L 278.3,726.1 M 250.6,656.9 L 278.3,656.9 M 250.6,587.6 L 278.3,587.6 M 250.6,518.3 L 278.3,518.3 M 250.6,449.0 L 278.3,449.0 M 250.6,379.7 L 278.3,379.7 M 250.6,310.4 L 278.3,310.4 M 250.6,241.2 L 278.3,241.2 M 250.6,171.9 L 278.3,171.9 "
       id="path36" />
    <path
       stroke="#000000"
       stroke-width="2"
       fill="none"
       d="M 818.7,726.1 L 818.7,171.9 M 804.8,726.1 L 832.6,726.1 M 804.8,656.9 L 832.6,656.9 M 804.8,587.6 L 832.6,587.6 M 804.8,518.3 L 832.6,518.3 M 804.8,449.0 L 832.6,449.0 M 804.8,379.7 L 832.6,379.7 M 804.8,310.4 L 832.6,310.4 M 804.8,241.2 L 832.6,241.2 M 804.8,171.9 L 832.6,171.9 "
       id="path38" />
  </g>
  <g
     id="g72">
    <path
       stroke="#000000"
       stroke-width="1.5"
       fill="none"
       d="M 289.6,668.4  L 415.6,552.9 L 541.6,460.6 L 667.5,368.2 L 793.5,252.7 "
       id="path74"
       style="stroke-width:2.5;stroke-miterlimit:4;stroke-dasharray:none" />
    <path
       stroke="#000000"
       stroke-width="1.5"
       fill="none"
       d=" "
       id="path76" />
    <path
       stroke="#000000"
       stroke-width="1.5"
       fill="#000000"
       d="M 295.2,668.4 L 294.8,666.3 L 293.6,664.5 L 291.8,663.3 L 289.6,662.9 L 287.5,663.3 L 285.7,664.5 L 284.5,666.3 L 284.1,668.4 L 284.5,670.5 L 285.7,672.3 L 287.5,673.5 L 289.6,673.9 L 291.8,673.5 L 293.6,672.3 L 294.8,670.5 L 295.2,668.4 M 421.1,552.9 L 420.7,550.8 L 419.5,549.0 L 417.7,547.8 L 415.6,547.4 L 413.5,547.8 L 411.7,549.0 L 410.5,550.8 L 410.1,552.9 L 410.5,555.1 L 411.7,556.9 L 413.5,558.1 L 415.6,558.5 L 417.7,558.1 L 419.5,556.9 L 420.7,555.1 L 421.1,552.9 M 547.1,460.6 L 546.7,458.4 L 545.5,456.6 L 543.7,455.4 L 541.6,455.0 L 539.4,455.4 L 537.7,456.6 L 536.4,458.4 L 536.0,460.6 L 536.4,462.7 L 537.7,464.5 L 539.4,465.7 L 541.6,466.1 L 543.7,465.7 L 545.5,464.5 L 546.7,462.7 L 547.1,460.6 M 673.1,368.2 L 672.7,366.1 L 671.5,364.3 L 669.7,363.1 L 667.5,362.6 L 665.4,363.1 L 663.6,364.3 L 662.4,366.1 L 662.0,368.2 L 662.4,370.3 L 663.6,372.1 L 665.4,373.3 L 667.5,373.7 L 669.7,373.3 L 671.5,372.1 L 672.7,370.3 L 673.1,368.2 M 799.1,252.7 L 798.6,250.6 L 797.4,248.8 L 795.6,247.6 L 793.5,247.2 L 791.4,247.6 L 789.6,248.8 L 788.4,250.6 L 788.0,252.7 L 788.4,254.8 L 789.6,256.6 L 791.4,257.8 L 793.5,258.2 L 795.6,257.8 L 797.4,256.6 L 798.6,254.8 L 799.1,252.7 "
       id="path78" />
    <path
       stroke="#000000"
       stroke-width="1.5"
       fill="none"
       d=" M 278.5,698.8 L 300.7,698.8 M 278.5,638.0 L 300.7,638.0 M 289.6,698.8 L 289.6,638.0 M 289.6,668.4    M 404.5,603.2 L 426.7,603.2 M 404.5,502.7 L 426.7,502.7 M 415.6,603.2 L 415.6,502.7 M 415.6,552.9   M 530.5,508.1 L 552.7,508.1 M 530.5,413.0 L 552.7,413.0 M 541.6,508.1 L 541.6,413.0 M 541.6,460.6   M 656.5,412.8 L 678.6,412.8 M 656.5,323.5 L 678.6,323.5 M 667.5,412.8 L 667.5,323.5 M 667.5,368.2   M 782.4,283.1 L 804.6,283.1 M 782.4,222.3 L 804.6,222.3 M 793.5,283.1 L 793.5,222.3 M 793.5,252.7  "
       id="path80" />
    <path
       stroke="#ff0000"
       stroke-width="1.5"
       fill="none"
       d=" M 415.6,495.2 L 541.6,414.4 L 667.5,368.2 L 793.5,345.1 "
       id="path82"
       style="stroke-width:2.5;stroke-miterlimit:4;stroke-dasharray:20,20;stroke-dashoffset:0" />
    <path
       stroke="#ff0000"
       stroke-width="1.5"
       fill="none"
       d=" "
       id="path84" />
    <path
       stroke="#ff0000"
       stroke-width="1.5"
       fill="#ff0000"
       d="M 410.1,500.7 L 410.1,489.7 L 421.1,489.7 L 421.1,500.7 L 410.1,500.7 M 536.0,419.9 L 536.0,408.8 L 547.1,408.8 L 547.1,419.9 L 536.0,419.9 M 662.0,373.7 L 662.0,362.6 L 673.1,362.6 L 673.1,373.7 L 662.0,373.7 M 788.0,350.6 L 788.0,339.5 L 799.1,339.5 L 799.1,350.6 L 788.0,350.6 "
       id="path86" />
    <path
       stroke="#ff0000"
       stroke-width="1.5"
       fill="none"
       d="  M 404.5,529.5 L 426.7,529.5 M 404.5,460.9 L 426.7,460.9 M 415.6,529.5 L 415.6,460.9 M 415.6,495.2   M 530.5,460.2 L 552.7,460.2 M 530.5,368.5 L 552.7,368.5 M 541.6,460.2 L 541.6,368.5 M 541.6,414.4   M 656.5,411.4 L 678.6,411.4 M 656.5,325.0 L 678.6,325.0 M 667.5,411.4 L 667.5,325.0 M 667.5,368.2   M 782.4,388.0 L 804.6,388.0 M 782.4,302.2 L 804.6,302.2 M 793.5,388.0 L 793.5,302.2 M 793.5,345.1  "
       id="path88" />
    <path
       stroke="#0000ff"
       stroke-width="1.5"
       fill="none"
       d="M 541.6,368.2 L 667.5,310.4 L 793.5,275.8 "
       id="path90"
       style="stroke-width:2.5;stroke-miterlimit:4;stroke-dasharray:20,5,2.5,5;stroke-dashoffset:0" />
    <path
       stroke="#0000ff"
       stroke-width="1.5"
       fill="none"
       d=""
       id="path92" />
    <path
       stroke="#0000ff"
       stroke-width="1.5"
       fill="#0000ff"
       d="M 536.0,368.2 L 541.6,362.6 L 547.1,368.2 L 541.6,373.7 L 536.0,368.2 M 662.0,310.4 L 667.5,304.9 L 673.1,310.4 L 667.5,316.0 L 662.0,310.4 M 788.0,275.8 L 793.5,270.3 L 799.1,275.8 L 793.5,281.3 L 788.0,275.8 "
       id="path94" />
    <path
       stroke="#0000ff"
       stroke-width="1.5"
       fill="none"
       d=" M 530.5,400.8 L 552.7,400.8 M 530.5,335.5 L 552.7,335.5 M 541.6,400.8 L 541.6,335.5 M 541.6,368.2   M 656.5,350.0 L 678.6,350.0 M 656.5,270.9 L 678.6,270.9 M 667.5,350.0 L 667.5,270.9 M 667.5,310.4   M 782.4,313.3 L 804.6,313.3 M 782.4,238.3 L 804.6,238.3 M 793.5,313.3 L 793.5,238.3 M 793.5,275.8  "
       id="path96" />
    <path
       stroke="#218b21"
       stroke-width="1.5"
       fill="none"
       d="M 667.5,368.2 L 793.5,264.3 "
       id="path98"
       style="stroke-width:2.5;stroke-miterlimit:4;stroke-dasharray:10,5;stroke-dashoffset:0" />
    <path
       stroke="#218b21"
       stroke-width="1.5"
       fill="none"
       d=""
       id="path100" />
    <path
       stroke="#218b21"
       stroke-width="1.5"
       fill="#218b21"
       d="M 662.0,373.7 L 667.5,362.6 L 673.1,373.7 L 662.0,373.7 M 788.0,269.8 L 793.5,258.7 L 799.1,269.8 L 788.0,269.8 "
       id="path102" />
    <path
       stroke="#218b21"
       stroke-width="1.5"
       fill="none"
       d=" M 656.5,402.7 L 678.6,402.7 M 656.5,333.6 L 678.6,333.6 M 667.5,402.7 L 667.5,333.6 M 667.5,368.2   M 782.4,294.4 L 804.6,294.4 M 782.4,234.1 L 804.6,234.1 M 793.5,294.4 L 793.5,234.1 M 793.5,264.3  "
       id="path104" />
    <path
       stroke="#800080"
       stroke-width="1.5"
       fill="none"
       d="M 793.5,241.2 "
       id="path106" />
    <path
       stroke="#800080"
       stroke-width="1.5"
       fill="none"
       d=""
       id="path108" />
    <path
       stroke="#800080"
       stroke-width="1.5"
       fill="#800080"
       d="M 788.0,235.6 L 793.5,246.7 L 799.1,235.6 L 788.0,235.6 "
       id="path110" />
    <path
       stroke="#800080"
       stroke-width="1.5"
       fill="none"
       d=" M 782.4,271.6 L 804.6,271.6 M 782.4,210.7 L 804.6,210.7 M 793.5,271.6 L 793.5,210.7 M 793.5,241.2  "
       id="path112" />
  </g>
  <g
     id="g5622"
     transform="translate(-5,-20)">
    <path
       d="M 300,230 360,230"
       id="path4314"
       inkscape:connector-curvature="0"
       style="fill:none;stroke:#000000;stroke-width:2.5;stroke-miterlimit:4;stroke-dasharray:none" />
    <text
       x="385.55197"
       y="236.14589"
       font-size="21.0"
       id="text4316"
       style="font-style:normal;font-variant:normal;font-weight:normal;font-stretch:normal;font-size:23.05px;line-height:150%;font-family:Arial;-inkscape-font-specification:'Arial, Normal';text-align:start;writing-mode:lr-tb;text-anchor:start;fill:#000000;stroke-width:2.5;stroke-miterlimit:4;stroke-dasharray:none"
       sodipodi:linespacing="150%">
      <tspan
         style="font-style:normal;font-variant:normal;font-weight:normal;font-stretch:normal;font-size:23.05px;line-height:150%;font-family:Arial;-inkscape-font-specification:'Arial, Normal';text-align:start;writing-mode:lr-tb;text-anchor:start;stroke-width:2.5;stroke-miterlimit:4;stroke-dasharray:none"
         id="tspan4411">series length 5</tspan>
    </text>
    <path
       d="M 300,260 360,260"
       id="path4320"
       inkscape:connector-curvature="0"
       style="fill:none;stroke:#ff0000;stroke-width:2.5;stroke-miterlimit:4;stroke-dasharray:20, 20;stroke-dashoffset:0" />
    <text
       x="384.1864"
       y="265.36578"
       font-size="21.0"
       id="text4322"
       style="font-style:normal;font-variant:normal;font-weight:normal;font-stretch:normal;font-size:23.05px;line-height:150%;font-family:Arial;-inkscape-font-specification:'Arial, Normal';text-align:start;writing-mode:lr-tb;text-anchor:start;fill:#ff0000;stroke-width:2.5;stroke-miterlimit:4;stroke-dasharray:none"
       sodipodi:linespacing="150%">
      <tspan
         style="font-style:normal;font-variant:normal;font-weight:normal;font-stretch:normal;font-size:23.05px;line-height:150%;font-family:Arial;-inkscape-font-specification:'Arial, Normal';text-align:start;writing-mode:lr-tb;text-anchor:start;stroke-width:2.5;stroke-miterlimit:4;stroke-dasharray:none"
         id="tspan4419">series length 4</tspan>
    </text>
    <path
       d="M 300,290 360,290"
       id="path4326"
       inkscape:connector-curvature="0"
       style="fill:none;stroke:#0000ff;stroke-width:2.5;stroke-miterlimit:4;stroke-dasharray:20, 5, 2.5, 5;stroke-dashoffset:0" />
    <text
       x="383.07883"
       y="294.61942"
       font-size="21.0"
       id="text4328"
       style="font-style:normal;font-variant:normal;font-weight:normal;font-stretch:normal;font-size:23.05px;line-height:150%;font-family:Arial;-inkscape-font-specification:'Arial, Normal';text-align:start;writing-mode:lr-tb;text-anchor:start;fill:#0000ff;stroke-width:2.5;stroke-miterlimit:4;stroke-dasharray:none"
       sodipodi:linespacing="150%">
      <tspan
         style="font-style:normal;font-variant:normal;font-weight:normal;font-stretch:normal;font-size:23.05px;line-height:150%;font-family:Arial;-inkscape-font-specification:'Arial, Normal';text-align:start;writing-mode:lr-tb;text-anchor:start;stroke-width:2.5;stroke-miterlimit:4;stroke-dasharray:none"
         id="tspan4413">series length 3</tspan>
    </text>
    <path
       d="M 300,320 360,320"
       id="path4332"
       inkscape:connector-curvature="0"
       style="fill:none;stroke:#218b21;stroke-width:2.5;stroke-miterlimit:4;stroke-dasharray:7.5, 7.5;stroke-dashoffset:0" />
    <text
       x="382.54303"
       y="323.83939"
       font-size="21.0"
       id="text4334"
       style="font-style:normal;font-variant:normal;font-weight:normal;font-stretch:normal;font-size:23.05px;line-height:150%;font-family:Arial;-inkscape-font-specification:'Arial, Normal';text-align:start;writing-mode:lr-tb;text-anchor:start;fill:#218b21;stroke-width:2.5;stroke-miterlimit:4;stroke-dasharray:none"
       sodipodi:linespacing="150%">
      <tspan
         style="font-style:normal;font-variant:normal;font-weight:normal;font-stretch:normal;font-size:23.05px;line-height:150%;font-family:Arial;-inkscape-font-specification:'Arial, Normal';text-align:start;writing-mode:lr-tb;text-anchor:start;stroke-width:2.5;stroke-miterlimit:4;stroke-dasharray:none"
         id="tspan4415">series length 2</tspan>
    </text>
    <path
       d="M 360,350 360,350"
       id="path4338"
       inkscape:connector-curvature="0"
       style="fill:none;stroke:#800080;stroke-width:2.5;stroke-miterlimit:4;stroke-dasharray:none" />
    <text
       x="382.54303"
       y="353.0592"
       font-size="21.0"
       id="text4340"
       style="font-style:normal;font-variant:normal;font-weight:normal;font-stretch:normal;font-size:23.05px;line-height:150%;font-family:Arial;-inkscape-font-specification:'Arial, Normal';text-align:start;writing-mode:lr-tb;text-anchor:start;fill:#800080;stroke-width:2.5;stroke-miterlimit:4;stroke-dasharray:none"
       sodipodi:linespacing="150%">
      <tspan
         style="font-style:normal;font-variant:normal;font-weight:normal;font-stretch:normal;font-size:23.05px;line-height:150%;font-family:Arial;-inkscape-font-specification:'Arial, Normal';text-align:start;writing-mode:lr-tb;text-anchor:start;stroke-width:2.5;stroke-miterlimit:4;stroke-dasharray:none"
         id="tspan4417">series length 1</tspan>
    </text>
  </g>
</svg>
