<?xml version="1.0" encoding="UTF-8" standalone="no"?>
<svg
   xmlns:dc="http://purl.org/dc/elements/1.1/"
   xmlns:cc="http://creativecommons.org/ns#"
   xmlns:rdf="http://www.w3.org/1999/02/22-rdf-syntax-ns#"
   xmlns:svg="http://www.w3.org/2000/svg"
   xmlns="http://www.w3.org/2000/svg"
   xmlns:sodipodi="http://sodipodi.sourceforge.net/DTD/sodipodi-0.dtd"
   xmlns:inkscape="http://www.inkscape.org/namespaces/inkscape"
   version="1.1"
   width="400px"
   height="400px"
   viewBox="0 0 1000.0 1000.0"
   id="svg2"
   inkscape:version="0.91 r13725"
   sodipodi:docname="interspersed_short_percent_correct.svg">
  <metadata
     id="metadata118">
    <rdf:RDF>
      <cc:Work
         rdf:about="">
        <dc:format>image/svg+xml</dc:format>
        <dc:type
           rdf:resource="http://purl.org/dc/dcmitype/StillImage" />
      </cc:Work>
    </rdf:RDF>
  </metadata>
  <defs
     id="defs116" />
  <sodipodi:namedview
     pagecolor="#ffffff"
     bordercolor="#666666"
     borderopacity="1"
     objecttolerance="10"
     gridtolerance="10"
     guidetolerance="10"
     inkscape:pageopacity="0"
     inkscape:pageshadow="2"
     inkscape:window-width="1542"
     inkscape:window-height="914"
     id="namedview114"
     showgrid="false"
     inkscape:zoom="2.5"
     inkscape:cx="1.8e+02"
     inkscape:cy="2.3e+02"
     inkscape:window-x="818"
     inkscape:window-y="366"
     inkscape:window-maximized="0"
     inkscape:current-layer="svg2" />
  <path
     stroke="#000000"
     stroke-width="2"
     fill="none"
     d="M 264.4,726.1 L 264.4,171.9 L 818.7,171.9 L 818.7,726.1 L 264.4,726.1 "
     id="path4" />
  <g
     id="g6">
    <text
       x="541.6"
       y="801.0"
       font-family="Arial"
       font-size="27.7"
       fill="#000000"
       text-anchor="middle"
       id="text8">
Degree of Degradation
</text>
    <text
       x="289.6"
       y="773.3"
       font-family="Arial"
       font-size="27.7"
       fill="#000000"
       text-anchor="middle"
       id="text10">
Maximum
</text>
    <text
       x="793.5"
       y="773.3"
       font-family="Arial"
       font-size="27.7"
       fill="#000000"
       text-anchor="middle"
       id="text12">
Minimum
</text>
    <path
       stroke="#000000"
       stroke-width="2"
       fill="none"
       d="M 264.4,726.1 L 818.7,726.1 M 289.6,740.0 L 289.6,712.3 M 415.6,740.0 L 415.6,712.3 M 541.6,740.0 L 541.6,712.3 M 667.5,740.0 L 667.5,712.3 M 793.5,740.0 L 793.5,712.3 "
       id="path14" />
    <path
       stroke="#000000"
       stroke-width="2"
       fill="none"
       d="M 264.4,171.9 L 818.7,171.9 M 289.6,185.7 L 289.6,158.0 M 415.6,185.7 L 415.6,158.0 M 541.6,185.7 L 541.6,158.0 M 667.5,185.7 L 667.5,158.0 M 793.5,185.7 L 793.5,158.0 "
       id="path16" />
    <text
       x="245.0"
       y="737.2"
       font-family="Arial"
       font-size="27.7"
       fill="#000000"
       text-anchor="end"
       id="text18">
10
</text>
    <text
       x="245.0"
       y="667.9"
       font-family="Arial"
       font-size="27.7"
       fill="#000000"
       text-anchor="end"
       id="text20">
20
</text>
    <text
       x="245.0"
       y="598.7"
       font-family="Arial"
       font-size="27.7"
       fill="#000000"
       text-anchor="end"
       id="text22">
30
</text>
    <text
       x="245.0"
       y="529.4"
       font-family="Arial"
       font-size="27.7"
       fill="#000000"
       text-anchor="end"
       id="text24">
40
</text>
    <text
       x="245.0"
       y="460.1"
       font-family="Arial"
       font-size="27.7"
       fill="#000000"
       text-anchor="end"
       id="text26">
50
</text>
    <text
       x="245.0"
       y="390.8"
       font-family="Arial"
       font-size="27.7"
       fill="#000000"
       text-anchor="end"
       id="text28">
60
</text>
    <text
       x="245.0"
       y="321.5"
       font-family="Arial"
       font-size="27.7"
       fill="#000000"
       text-anchor="end"
       id="text30">
70
</text>
    <text
       x="245.0"
       y="252.2"
       font-family="Arial"
       font-size="27.7"
       fill="#000000"
       text-anchor="end"
       id="text32">
80
</text>
    <text
       x="245.0"
       y="183.0"
       font-family="Arial"
       font-size="27.7"
       fill="#000000"
       text-anchor="end"
       id="text34">
90
</text>
    <path
       stroke="#000000"
       stroke-width="2"
       fill="none"
       d="M 264.4,726.1 L 264.4,171.9 M 250.6,726.1 L 278.3,726.1 M 250.6,656.9 L 278.3,656.9 M 250.6,587.6 L 278.3,587.6 M 250.6,518.3 L 278.3,518.3 M 250.6,449.0 L 278.3,449.0 M 250.6,379.7 L 278.3,379.7 M 250.6,310.4 L 278.3,310.4 M 250.6,241.2 L 278.3,241.2 M 250.6,171.9 L 278.3,171.9 "
       id="path36" />
    <path
       stroke="#000000"
       stroke-width="2"
       fill="none"
       d="M 818.7,726.1 L 818.7,171.9 M 804.8,726.1 L 832.6,726.1 M 804.8,656.9 L 832.6,656.9 M 804.8,587.6 L 832.6,587.6 M 804.8,518.3 L 832.6,518.3 M 804.8,449.0 L 832.6,449.0 M 804.8,379.7 L 832.6,379.7 M 804.8,310.4 L 832.6,310.4 M 804.8,241.2 L 832.6,241.2 M 804.8,171.9 L 832.6,171.9 "
       id="path38" />
  </g>
  <g
     id="g72">
    <path
       stroke="#000000"
       stroke-width="1.5"
       fill="none"
       d="M 289.6,703.0  L 415.6,587.6 L 541.6,541.4 L 667.5,460.6 L 793.5,379.7 "
       id="path74"
       style="stroke-width:2.5;stroke-miterlimit:4;stroke-dasharray:none" />
    <path
       stroke="#000000"
       stroke-width="1.5"
       fill="none"
       d=" "
       id="path76" />
    <path
       stroke="#000000"
       stroke-width="1.5"
       fill="#000000"
       d="M 295.2,703.0 L 294.8,700.9 L 293.6,699.1 L 291.8,697.9 L 289.6,697.5 L 287.5,697.9 L 285.7,699.1 L 284.5,700.9 L 284.1,703.0 L 284.5,705.2 L 285.7,707.0 L 287.5,708.2 L 289.6,708.6 L 291.8,708.2 L 293.6,707.0 L 294.8,705.2 L 295.2,703.0 M 421.1,587.6 L 420.7,585.5 L 419.5,583.7 L 417.7,582.5 L 415.6,582.0 L 413.5,582.5 L 411.7,583.7 L 410.5,585.5 L 410.1,587.6 L 410.5,589.7 L 411.7,591.5 L 413.5,592.7 L 415.6,593.1 L 417.7,592.7 L 419.5,591.5 L 420.7,589.7 L 421.1,587.6 M 547.1,541.4 L 546.7,539.3 L 545.5,537.5 L 543.7,536.3 L 541.6,535.8 L 539.4,536.3 L 537.7,537.5 L 536.4,539.3 L 536.0,541.4 L 536.4,543.5 L 537.7,545.3 L 539.4,546.5 L 541.6,546.9 L 543.7,546.5 L 545.5,545.3 L 546.7,543.5 L 547.1,541.4 M 673.1,460.6 L 672.7,458.4 L 671.5,456.6 L 669.7,455.4 L 667.5,455.0 L 665.4,455.4 L 663.6,456.6 L 662.4,458.4 L 662.0,460.6 L 662.4,462.7 L 663.6,464.5 L 665.4,465.7 L 667.5,466.1 L 669.7,465.7 L 671.5,464.5 L 672.7,462.7 L 673.1,460.6 M 799.1,379.7 L 798.6,377.6 L 797.4,375.8 L 795.6,374.6 L 793.5,374.2 L 791.4,374.6 L 789.6,375.8 L 788.4,377.6 L 788.0,379.7 L 788.4,381.8 L 789.6,383.6 L 791.4,384.8 L 793.5,385.3 L 795.6,384.8 L 797.4,383.6 L 798.6,381.8 L 799.1,379.7 "
       id="path78" />
    <path
       stroke="#000000"
       stroke-width="1.5"
       fill="none"
       d=" M 278.5,733.2 L 300.7,733.2 M 278.5,672.9 L 300.7,672.9 M 289.6,733.2 L 289.6,672.9 M 289.6,703.0    M 404.5,623.7 L 426.7,623.7 M 404.5,551.4 L 426.7,551.4 M 415.6,623.7 L 415.6,551.4 M 415.6,587.6   M 530.5,584.3 L 552.7,584.3 M 530.5,498.5 L 552.7,498.5 M 541.6,584.3 L 541.6,498.5 M 541.6,541.4   M 656.5,498.9 L 678.6,498.9 M 656.5,422.3 L 678.6,422.3 M 667.5,498.9 L 667.5,422.3 M 667.5,460.6   M 782.4,417.2 L 804.6,417.2 M 782.4,342.2 L 804.6,342.2 M 793.5,417.2 L 793.5,342.2 M 793.5,379.7  "
       id="path80" />
    <path
       stroke="#ff0000"
       stroke-width="1.5"
       fill="none"
       d=" M 415.6,576.0 L 541.6,495.2 L 667.5,414.4 L 793.5,345.1 "
       id="path82"
       style="stroke-width:2.5;stroke-miterlimit:4;stroke-dasharray:20,20;stroke-dashoffset:0" />
    <path
       stroke="#ff0000"
       stroke-width="1.5"
       fill="none"
       d=" "
       id="path84" />
    <path
       stroke="#ff0000"
       stroke-width="1.5"
       fill="#ff0000"
       d="M 410.1,581.6 L 410.1,570.5 L 421.1,570.5 L 421.1,581.6 L 410.1,581.6 M 536.0,500.7 L 536.0,489.7 L 547.1,489.7 L 547.1,500.7 L 536.0,500.7 M 662.0,419.9 L 662.0,408.8 L 673.1,408.8 L 673.1,419.9 L 662.0,419.9 M 788.0,350.6 L 788.0,339.5 L 799.1,339.5 L 799.1,350.6 L 788.0,350.6 "
       id="path86" />
    <path
       stroke="#ff0000"
       stroke-width="1.5"
       fill="none"
       d="  M 404.5,614.2 L 426.7,614.2 M 404.5,537.8 L 426.7,537.8 M 415.6,614.2 L 415.6,537.8 M 415.6,576.0   M 530.5,525.3 L 552.7,525.3 M 530.5,465.1 L 552.7,465.1 M 541.6,525.3 L 541.6,465.1 M 541.6,495.2   M 656.5,440.7 L 678.6,440.7 M 656.5,388.0 L 678.6,388.0 M 667.5,440.7 L 667.5,388.0 M 667.5,414.4   M 782.4,372.9 L 804.6,372.9 M 782.4,317.3 L 804.6,317.3 M 793.5,372.9 L 793.5,317.3 M 793.5,345.1  "
       id="path88" />
    <path
       stroke="#0000ff"
       stroke-width="1.5"
       fill="none"
       d="M 541.6,425.9 L 667.5,345.1 L 793.5,275.8 "
       id="path90"
       style="stroke-width:2.5;stroke-miterlimit:4;stroke-dasharray:10,5,2.5,5;stroke-dashoffset:0" />
    <path
       stroke="#0000ff"
       stroke-width="1.5"
       fill="none"
       d=""
       id="path92" />
    <path
       stroke="#0000ff"
       stroke-width="1.5"
       fill="#0000ff"
       d="M 536.0,425.9 L 541.6,420.4 L 547.1,425.9 L 541.6,431.5 L 536.0,425.9 M 662.0,345.1 L 667.5,339.5 L 673.1,345.1 L 667.5,350.6 L 662.0,345.1 M 788.0,275.8 L 793.5,270.3 L 799.1,275.8 L 793.5,281.3 L 788.0,275.8 "
       id="path94" />
    <path
       stroke="#0000ff"
       stroke-width="1.5"
       fill="none"
       d=" M 530.5,449.6 L 552.7,449.6 M 530.5,402.2 L 552.7,402.2 M 541.6,449.6 L 541.6,402.2 M 541.6,425.9   M 656.5,375.5 L 678.6,375.5 M 656.5,314.6 L 678.6,314.6 M 667.5,375.5 L 667.5,314.6 M 667.5,345.1   M 782.4,310.1 L 804.6,310.1 M 782.4,241.5 L 804.6,241.5 M 793.5,310.1 L 793.5,241.5 M 793.5,275.8  "
       id="path96" />
    <path
       stroke="#218b21"
       stroke-width="1.5"
       fill="none"
       d="M 667.5,333.5 L 793.5,298.9 "
       id="path98"
       style="stroke-width:2.5;stroke-miterlimit:4;stroke-dasharray:10,5;stroke-dashoffset:0" />
    <path
       stroke="#218b21"
       stroke-width="1.5"
       fill="none"
       d=""
       id="path100" />
    <path
       stroke="#218b21"
       stroke-width="1.5"
       fill="#218b21"
       d="M 662.0,339.1 L 667.5,328.0 L 673.1,339.1 L 662.0,339.1 M 788.0,304.4 L 793.5,293.4 L 799.1,304.4 L 788.0,304.4 "
       id="path102" />
    <path
       stroke="#218b21"
       stroke-width="1.5"
       fill="none"
       d=" M 656.5,356.0 L 678.6,356.0 M 656.5,311.0 L 678.6,311.0 M 667.5,356.0 L 667.5,311.0 M 667.5,333.5   M 782.4,321.3 L 804.6,321.3 M 782.4,276.5 L 804.6,276.5 M 793.5,321.3 L 793.5,276.5 M 793.5,298.9  "
       id="path104" />
    <path
       stroke="#800080"
       stroke-width="1.5"
       fill="none"
       d="M 793.5,264.3 "
       id="path106" />
    <path
       stroke="#800080"
       stroke-width="1.5"
       fill="none"
       d=""
       id="path108" />
    <path
       stroke="#800080"
       stroke-width="1.5"
       fill="#800080"
       d="M 788.0,258.7 L 793.5,269.8 L 799.1,258.7 L 788.0,258.7 "
       id="path110" />
    <path
       stroke="#800080"
       stroke-width="1.5"
       fill="none"
       d=" M 782.4,294.4 L 804.6,294.4 M 782.4,234.1 L 804.6,234.1 M 793.5,294.4 L 793.5,234.1 M 793.5,264.3  "
       id="path112" />
    <g
       id="g5622"
       transform="translate(3,-18)">
      <path
         d="M 300,230 360,230"
         id="path4314"
         inkscape:connector-curvature="0"
         style="fill:none;stroke:#000000;stroke-width:2.5;stroke-miterlimit:4;stroke-dasharray:none" />
      <text
         x="385.55197"
         y="236.14589"
         font-size="21.0"
         id="text4316"
         style="font-style:normal;font-variant:normal;font-weight:normal;font-stretch:normal;font-size:23.05px;line-height:150%;font-family:Arial;-inkscape-font-specification:'Arial, Normal';text-align:start;writing-mode:lr-tb;text-anchor:start;fill:#000000;stroke-width:2.5;stroke-miterlimit:4;stroke-dasharray:none"
         sodipodi:linespacing="150%">
        <tspan
           style="font-style:normal;font-variant:normal;font-weight:normal;font-stretch:normal;font-size:23.05px;line-height:150%;font-family:Arial;-inkscape-font-specification:'Arial, Normal';text-align:start;writing-mode:lr-tb;text-anchor:start;stroke-width:2.5;stroke-miterlimit:4;stroke-dasharray:none"
           id="tspan4411">series length 5</tspan>
      </text>
      <path
         d="M 300,260 360,260"
         id="path4320"
         inkscape:connector-curvature="0"
         style="fill:none;stroke:#ff0000;stroke-width:2.5;stroke-miterlimit:4;stroke-dasharray:20, 20;stroke-dashoffset:0" />
      <text
         x="384.1864"
         y="265.36578"
         font-size="21.0"
         id="text4322"
         style="font-style:normal;font-variant:normal;font-weight:normal;font-stretch:normal;font-size:23.05px;line-height:150%;font-family:Arial;-inkscape-font-specification:'Arial, Normal';text-align:start;writing-mode:lr-tb;text-anchor:start;fill:#ff0000;stroke-width:2.5;stroke-miterlimit:4;stroke-dasharray:none"
         sodipodi:linespacing="150%">
        <tspan
           style="font-style:normal;font-variant:normal;font-weight:normal;font-stretch:normal;font-size:23.05px;line-height:150%;font-family:Arial;-inkscape-font-specification:'Arial, Normal';text-align:start;writing-mode:lr-tb;text-anchor:start;stroke-width:2.5;stroke-miterlimit:4;stroke-dasharray:none"
           id="tspan4419">series length 4</tspan>
      </text>
      <path
         d="M 300,290 360,290"
         id="path4326"
         inkscape:connector-curvature="0"
         style="fill:none;stroke:#0000ff;stroke-width:2.5;stroke-miterlimit:4;stroke-dasharray:20, 5, 2.5, 5;stroke-dashoffset:0" />
      <text
         x="383.07883"
         y="294.61942"
         font-size="21.0"
         id="text4328"
         style="font-style:normal;font-variant:normal;font-weight:normal;font-stretch:normal;font-size:23.05px;line-height:150%;font-family:Arial;-inkscape-font-specification:'Arial, Normal';text-align:start;writing-mode:lr-tb;text-anchor:start;fill:#0000ff;stroke-width:2.5;stroke-miterlimit:4;stroke-dasharray:none"
         sodipodi:linespacing="150%">
        <tspan
           style="font-style:normal;font-variant:normal;font-weight:normal;font-stretch:normal;font-size:23.05px;line-height:150%;font-family:Arial;-inkscape-font-specification:'Arial, Normal';text-align:start;writing-mode:lr-tb;text-anchor:start;stroke-width:2.5;stroke-miterlimit:4;stroke-dasharray:none"
           id="tspan4413">series length 3</tspan>
      </text>
      <path
         d="M 300,320 360,320"
         id="path4332"
         inkscape:connector-curvature="0"
         style="fill:none;stroke:#218b21;stroke-width:2.5;stroke-miterlimit:4;stroke-dasharray:7.5, 7.5;stroke-dashoffset:0" />
      <text
         x="382.54303"
         y="323.83939"
         font-size="21.0"
         id="text4334"
         style="font-style:normal;font-variant:normal;font-weight:normal;font-stretch:normal;font-size:23.05px;line-height:150%;font-family:Arial;-inkscape-font-specification:'Arial, Normal';text-align:start;writing-mode:lr-tb;text-anchor:start;fill:#218b21;stroke-width:2.5;stroke-miterlimit:4;stroke-dasharray:none"
         sodipodi:linespacing="150%">
        <tspan
           style="font-style:normal;font-variant:normal;font-weight:normal;font-stretch:normal;font-size:23.05px;line-height:150%;font-family:Arial;-inkscape-font-specification:'Arial, Normal';text-align:start;writing-mode:lr-tb;text-anchor:start;stroke-width:2.5;stroke-miterlimit:4;stroke-dasharray:none"
           id="tspan4415">series length 2</tspan>
      </text>
      <path
         d="M 360,350 360,350"
         id="path4338"
         inkscape:connector-curvature="0"
         style="fill:none;stroke:#800080;stroke-width:2.5;stroke-miterlimit:4;stroke-dasharray:none" />
      <text
         x="382.54303"
         y="353.0592"
         font-size="21.0"
         id="text4340"
         style="font-style:normal;font-variant:normal;font-weight:normal;font-stretch:normal;font-size:23.05px;line-height:150%;font-family:Arial;-inkscape-font-specification:'Arial, Normal';text-align:start;writing-mode:lr-tb;text-anchor:start;fill:#800080;stroke-width:2.5;stroke-miterlimit:4;stroke-dasharray:none"
         sodipodi:linespacing="150%">
        <tspan
           style="font-style:normal;font-variant:normal;font-weight:normal;font-stretch:normal;font-size:23.05px;line-height:150%;font-family:Arial;-inkscape-font-specification:'Arial, Normal';text-align:start;writing-mode:lr-tb;text-anchor:start;stroke-width:2.5;stroke-miterlimit:4;stroke-dasharray:none"
           id="tspan4417">series length 1</tspan>
      </text>
    </g>
  </g>
</svg>
