<?xml version="1.0" encoding="ISO-8859-1" standalone="yes"?>
<svg width="123.531" height="169.09">
  <defs> 
    <marker id="ArrowEnd" viewBox="0 0 10 10" refX="0" refY="5" 
     markerUnits="strokeWidth" 
     markerWidth="4" 
     markerHeight="3" 
     orient="auto"> 
        <path d="M 0 0 L 10 5 L 0 10 z" /> 
    </marker>
    <marker id="ArrowStart" viewBox="0 0 10 10" refX="10" refY="5" 
     markerUnits="strokeWidth" 
     markerWidth="4" 
     markerHeight="3" 
     orient="auto"> 
        <path d="M 10 0 L 0 5 L 10 10 z" /> 
    </marker> </defs>
<g>
<path style="stroke:none; fill-rule:evenodd; fill:#000000" d="M 16.1991 9.145C 16.0781 9.19901 16.0234 9.19901 15.9531 9.19901C 15.5585 9.19901 15.3359 9 15.3359 8.65199L 15.3359 4.52299C 15.3359 3.27699 14.4296 2.605 12.707 2.605C 11.6952 2.605 10.8554 2.895 10.3866 3.414C 10.0702 3.77 9.93351 4.168 9.91011 4.85899L 11.0312 4.85899C 11.121 3.996 11.6288 3.605 12.6718 3.605C 13.6718 3.605 14.2343 3.98 14.2343 4.64799L 14.2343 4.94099C 14.2343 5.41 13.957 5.60899 13.082 5.715C 11.5195 5.914 11.2812 5.96899 10.8554 6.14101C 10.0468 6.47301 9.63661 7.105 9.63661 8.01601C 9.63661 9.285 10.5155 10.09 11.9257 10.09C 12.8046 10.09 13.5077 9.785 14.2929 9.07001C 14.371 9.77299 14.7187 10.09 15.4374 10.09C 15.664 10.09 15.8359 10.066 16.1952 9.97301L 16.1991 9.145zM 14.2343 7.578C 14.2343 7.94501 14.1288 8.172 13.7929 8.47701C 13.3398 8.88699 12.7851 9.09801 12.1249 9.09801C 11.2499 9.09801 10.7421 8.688 10.7421 7.98801C 10.7421 7.26199 11.2382 6.89101 12.4374 6.71899C 13.621 6.562 13.8632 6.508 14.2382 6.336L 14.2343 7.578z"/>
<path style="stroke:none; fill-rule:evenodd; fill:#000000" d="M 17.7695 12.641C 19.0937 10.883 19.9296 8.438 19.9296 6.332C 19.9296 4.211 19.0937 1.77 17.7695 0.00799561L 17.0429 0.00799561C 18.1913 1.92999 18.832 4.18401 18.832 6.332C 18.832 8.465 18.1913 10.734 17.0429 12.641L 17.7695 12.641z"/>
<path style="stroke:none; fill-rule:evenodd; fill:#000000" d="M 34.6952 9.80099L 37.1718 0.0039978L 35.7812 0.0039978L 33.9882 7.96899L 31.7655 0.0039978L 30.4296 0.0039978L 28.2616 7.96899L 26.4296 0.0039978L 25.039 0.0039978L 27.5429 9.80099L 28.9062 9.80099L 31.0859 1.78101L 33.3359 9.80099L 34.6952 9.80099z"/>
<path style="stroke:none; fill-rule:evenodd; fill:#000000" d="M 44.2343 6.703C 44.2343 5.629 44.1562 4.98399 43.957 4.461C 43.5077 3.30901 42.4413 2.60899 41.1366 2.60899C 39.1952 2.60899 37.9413 4.10201 37.9413 6.39799C 37.9413 8.69099 39.1445 10.105 41.0937 10.105C 42.6835 10.105 43.7812 9.19901 44.0624 7.67999L 42.9374 7.67999C 42.6327 8.617 41.9999 9.105 41.1054 9.105C 40.3984 9.105 39.7968 8.789 39.4218 8.203C 39.1562 7.80499 39.0624 7.40601 39.0468 6.711L 44.2343 6.703zM 39.0585 5.758C 39.1523 4.461 39.9413 3.617 41.0663 3.617C 42.164 3.617 43.0077 4.52699 43.0077 5.67599C 43.0077 5.69901 43.0077 5.72701 42.996 5.754L 39.0585 5.758z"/>
<path style="stroke:none; fill-rule:evenodd; fill:#000000" d="M 46.7343 2.80099L 45.6366 2.80099L 45.6366 9.80099L 46.7343 9.80099L 46.7343 2.80099zM 46.7343 0L 45.6366 0L 45.6366 1.44099L 46.7343 1.44099L 46.7343 0z"/>
<path style="stroke:none; fill-rule:evenodd; fill:#000000" d="M 53.2343 2.80099L 53.2343 3.80099C 52.6757 2.98399 51.996 2.60201 51.1054 2.60201C 49.3359 2.60201 48.1366 4.14799 48.1366 6.418C 48.1366 7.562 48.4413 8.496 49.0155 9.164C 49.5351 9.75 50.2812 10.098 51.0155 10.098C 51.8945 10.098 52.5077 9.72701 53.1327 8.84801L 53.1327 9.211C 53.1327 10.164 53.0155 10.746 52.7343 11.137C 52.4413 11.555 51.8671 11.793 51.1874 11.793C 50.6796 11.793 50.2265 11.66 49.9218 11.414C 49.6679 11.211 49.5624 11.023 49.496 10.602L 48.3632 10.602C 48.4804 11.914 49.5038 12.695 51.1366 12.695C 52.1718 12.695 53.0624 12.363 53.5116 11.805C 54.039 11.168 54.2421 10.285 54.2421 8.645L 54.2421 2.80099L 53.2343 2.80099zM 51.1952 3.60201C 52.414 3.60201 53.1288 4.625 53.1288 6.39101C 53.1288 8.07401 52.3984 9.09801 51.207 9.09801C 49.9765 9.09801 49.2304 8.062 49.2304 6.34801C 49.2304 4.65199 49.9882 3.59801 51.1913 3.59801L 51.1952 3.60201z"/>
<path style="stroke:none; fill-rule:evenodd; fill:#000000" d="M 56.1327 0L 56.1327 9.797L 57.2304 9.797L 57.2304 5.953C 57.2304 4.53101 57.9882 3.60201 59.1601 3.60201C 59.5234 3.60201 59.8905 3.71899 60.164 3.918C 60.4882 4.14101 60.6249 4.47701 60.6249 4.96899L 60.6249 9.797L 61.7226 9.797L 61.7226 4.51199C 61.7226 3.34 60.871 2.605 59.496 2.605C 58.496 2.605 57.8905 2.90601 57.2265 3.75L 57.2265 0.0039978L 56.1327 0z"/>
<path style="stroke:none; fill-rule:evenodd; fill:#000000" d="M 66.0312 2.80099L 64.832 2.80099L 64.832 0.854996L 63.7343 0.854996L 63.7343 2.80099L 62.8359 2.80099L 62.8359 3.69901L 63.7343 3.69901L 63.7343 8.98801C 63.7343 9.69501 64.2226 10.094 65.1054 10.094C 65.3749 10.094 65.6484 10.07 66.0312 10.004L 66.0312 9.07401C 65.8788 9.09 65.6991 9.09399 65.4765 9.09399C 64.9765 9.09399 64.8359 8.961 64.8359 8.46899L 64.8359 3.69501L 66.0351 3.69501L 66.0312 2.80099z"/>
<path style="stroke:none; fill-rule:evenodd; fill:#000000" d="M 66.832 7.203L 73.6288 7.203L 73.6288 6.30499L 66.832 6.30499L 66.832 7.203z"/>
<path style="stroke:none; fill-rule:evenodd; fill:#000000" d="M 74.9335 0L 74.9335 9.797L 75.9335 9.797L 75.9335 8.90199C 76.4687 9.711 77.1835 10.098 78.164 10.098C 80.0195 10.098 81.2304 8.59399 81.2304 6.27C 81.2304 4.004 80.0741 2.60201 78.2148 2.60201C 77.246 2.60201 76.5585 2.957 76.0351 3.73L 76.0351 0L 74.9335 0zM 78.0234 3.629C 79.2655 3.629 80.0702 4.711 80.0702 6.38699C 80.0702 7.98 79.2421 9.062 78.0234 9.062C 76.8476 9.062 76.0702 7.992 76.0702 6.34399C 76.0702 4.69901 76.8437 3.625 78.0234 3.625L 78.0234 3.629z"/>
<path style="stroke:none; fill-rule:evenodd; fill:#000000" d="M 88.7963 9.145C 88.6753 9.19901 88.6213 9.19901 88.5503 9.19901C 88.1563 9.19901 87.9333 9 87.9333 8.65199L 87.9333 4.52299C 87.9333 3.27699 87.0273 2.605 85.3043 2.605C 84.2933 2.605 83.4533 2.895 82.9843 3.414C 82.6679 3.77 82.5312 4.168 82.5077 4.85899L 83.6293 4.85899C 83.7183 3.996 84.2263 3.605 85.2693 3.605C 86.2693 3.605 86.8323 3.98 86.8323 4.64799L 86.8323 4.94099C 86.8323 5.41 86.5543 5.60899 85.6793 5.715C 84.1173 5.914 83.8793 5.96899 83.4533 6.14101C 82.6445 6.47301 82.2343 7.105 82.2343 8.01601C 82.2343 9.285 83.1132 10.09 84.5233 10.09C 85.4023 10.09 86.1053 9.785 86.8903 9.07001C 86.9683 9.77299 87.3163 10.09 88.0353 10.09C 88.2613 10.09 88.4333 10.066 88.7933 9.97301L 88.7963 9.145zM 86.8323 7.578C 86.8323 7.94501 86.7263 8.172 86.3903 8.47701C 85.9373 8.88699 85.3823 9.09801 84.7223 9.09801C 83.8473 9.09801 83.3393 8.688 83.3393 7.98801C 83.3393 7.26199 83.8363 6.89101 85.0353 6.71899C 86.2183 6.562 86.4613 6.508 86.8363 6.336L 86.8323 7.578z"/>
<path style="stroke:none; fill-rule:evenodd; fill:#000000" d="M 95.0003 4.73801C 94.9883 3.375 94.0893 2.60201 92.4923 2.60201C 90.8823 2.60201 89.8393 3.44501 89.8393 4.746C 89.8393 5.84399 90.3943 6.36301 92.0353 6.76601L 93.0663 7.02C 93.8323 7.207 94.1363 7.48801 94.1363 7.996C 94.1363 8.65199 93.4803 9.09399 92.4963 9.09399C 91.8943 9.09399 91.3823 8.918 91.1013 8.617C 90.9293 8.414 90.8473 8.211 90.7813 7.707L 89.6013 7.707C 89.6523 9.32001 90.5543 10.094 92.3753 10.094C 94.1253 10.094 95.2423 9.22701 95.2423 7.871C 95.2423 6.828 94.6603 6.254 93.2853 5.918L 92.2263 5.664C 91.3283 5.453 90.9453 5.15601 90.9453 4.66C 90.9453 4.02 91.5193 3.60201 92.4253 3.60201C 93.3203 3.60201 93.8003 3.992 93.8283 4.73801L 95.0003 4.73801z"/>
<path style="stroke:none; fill-rule:evenodd; fill:#000000" d="M 102.632 6.703C 102.632 5.629 102.554 4.98399 102.355 4.461C 101.906 3.30901 100.839 2.60899 99.5353 2.60899C 97.5933 2.60899 96.3393 4.10201 96.3393 6.39799C 96.3393 8.69099 97.5433 10.105 99.4923 10.105C 101.082 10.105 102.179 9.19901 102.461 7.67999L 101.336 7.67999C 101.031 8.617 100.398 9.105 99.5043 9.105C 98.7963 9.105 98.1953 8.789 97.8203 8.203C 97.5543 7.80499 97.4613 7.40601 97.4453 6.711L 102.632 6.703zM 97.4613 5.758C 97.5543 4.461 98.3433 3.617 99.4683 3.617C 100.566 3.617 101.41 4.52699 101.41 5.67599C 101.41 5.69901 101.41 5.72701 101.398 5.754L 97.4613 5.758z"/>
<path style="stroke:none; fill-rule:evenodd; fill:#000000" d="M 109.832 0L 108.734 0L 108.734 3.664C 108.273 2.96899 107.535 2.60201 106.609 2.60201C 104.812 2.60201 103.636 4.05499 103.636 6.285C 103.636 8.645 104.781 10.098 106.636 10.098C 107.582 10.098 108.242 9.742 108.832 8.875L 108.832 9.797L 109.832 9.797L 109.832 0zM 106.765 3.60201C 107.968 3.60201 108.73 4.68401 108.73 6.375C 108.73 8.01199 107.957 9.09399 106.777 9.09399C 105.55 9.09399 104.734 8 104.734 6.34801C 104.734 4.69901 105.546 3.59801 106.765 3.59801L 106.765 3.60201z"/>
<path style="stroke:none; fill-rule:evenodd; fill:#ffffff" d="M 40.6366 143.758C 40.6366 135.309 33.7851 128.453 25.332 128.453C 16.8827 128.453 10.0273 135.305 10.0273 143.758C 10.0273 152.207 16.8788 159.062 25.332 159.062C 33.7812 159.062 40.6366 152.211 40.6366 143.758"/>
<path style="stroke:#000000; stroke-width:1.9133; fill:none" d="M 40.6366 143.758C 40.6366 135.309 33.7851 128.453 25.332 128.453C 16.8827 128.453 10.0273 135.305 10.0273 143.758C 10.0273 152.207 16.8788 159.062 25.332 159.062C 33.7812 159.062 40.6366 152.211 40.6366 143.758"/>
<path style="stroke:none; fill-rule:evenodd; fill:#000000" d="M 26.9726 144.703L 27.832 147.203L 29.0234 147.203L 26.0859 138.805L 24.7109 138.805L 21.7265 147.203L 22.8593 147.203L 23.7421 144.703L 26.9726 144.703zM 26.6757 143.801L 24.0155 143.801L 25.3905 139.98L 26.6757 143.801z"/>
<path style="stroke:none; fill-rule:evenodd; fill:#ffff00" d="M 76.9882 143.758C 76.9882 135.309 70.1366 128.453 61.6835 128.453C 53.2343 128.453 46.3788 135.305 46.3788 143.758C 46.3788 152.207 53.2304 159.062 61.6835 159.062C 70.1327 159.062 76.9882 152.211 76.9882 143.758"/>
<path style="stroke:#000000; stroke-width:1.9133; fill:none" d="M 76.9882 143.758C 76.9882 135.309 70.1366 128.453 61.6835 128.453C 53.2343 128.453 46.3788 135.305 46.3788 143.758C 46.3788 152.207 53.2304 159.062 61.6835 159.062C 70.1327 159.062 76.9882 152.211 76.9882 143.758"/>
<path style="stroke:none; fill-rule:evenodd; fill:#000000" d="M 59.2343 147.203L 63.0429 147.203C 63.8398 147.203 64.4296 146.984 64.8827 146.504C 65.2968 146.066 65.5312 145.469 65.5312 144.812C 65.5312 143.801 65.0585 143.188 63.957 142.777C 64.7226 142.422 65.1288 141.801 65.1288 140.949C 65.1288 140.34 64.9023 139.801 64.4609 139.406C 64.0234 139.004 63.4491 138.82 62.6405 138.82L 59.2304 138.82L 59.2343 147.203zM 60.332 142.5L 60.332 139.703L 62.3749 139.703C 62.9648 139.703 63.2929 139.785 63.5741 140.016C 63.8671 140.254 64.0273 140.617 64.0273 141.102C 64.0273 141.57 63.871 141.945 63.5741 142.188C 63.2929 142.414 62.9648 142.5 62.3749 142.5L 60.332 142.5zM 60.332 146.301L 60.332 143.402L 62.9296 143.402C 63.4413 143.402 63.7851 143.527 64.039 143.805C 64.289 144.07 64.4257 144.438 64.4257 144.855C 64.4257 145.258 64.289 145.629 64.039 145.895C 63.789 146.168 63.4452 146.297 62.9296 146.297L 60.332 146.301z"/>
<path style="stroke:none; fill-rule:evenodd; fill:#ffff00" d="M 58.8124 48.09C 58.8124 39.641 51.9609 32.785 43.5077 32.785C 35.0585 32.785 28.2031 39.637 28.2031 48.09C 28.2031 56.539 35.0546 63.395 43.5077 63.395C 51.957 63.395 58.8124 56.543 58.8124 48.09"/>
<path style="stroke:#000000; stroke-width:1.9133; fill:none" d="M 58.8124 48.09C 58.8124 39.641 51.9609 32.785 43.5077 32.785C 35.0585 32.785 28.2031 39.637 28.2031 48.09C 28.2031 56.539 35.0546 63.395 43.5077 63.395C 51.957 63.395 58.8124 56.543 58.8124 48.09"/>
<path style="stroke:none; fill-rule:evenodd; fill:#000000" d="M 44.5312 47.102L 40.9335 47.102L 40.9335 48L 43.5312 48L 43.5312 48.234C 43.5312 49.777 42.4335 50.895 40.914 50.895C 40.0702 50.895 39.3046 50.582 38.8124 50.035C 38.2655 49.43 37.9335 48.418 37.9335 47.367C 37.9335 45.281 39.0976 43.902 40.8593 43.902C 42.1249 43.902 43.039 44.57 43.2695 45.668L 44.3554 45.668C 44.0585 43.977 42.7695 43 40.8515 43C 39.832 43 39.0038 43.266 38.3476 43.805C 37.3866 44.609 36.832 45.91 36.832 47.418C 36.832 49.996 38.4023 51.793 40.6679 51.793C 41.8046 51.793 42.7109 51.367 43.5273 50.457L 43.8046 51.57L 44.5234 51.57L 44.5312 47.102z"/>
<path style="stroke:none; fill-rule:evenodd; fill:#000000" d="M 48.371 45.301C 46.6679 45.301 45.6366 46.516 45.6366 48.551C 45.6366 50.586 46.6562 51.801 48.3866 51.801C 50.0898 51.801 51.1366 50.59 51.1366 48.602C 51.1366 46.512 50.1288 45.309 48.3788 45.309L 48.371 45.301zM 48.3827 46.203C 49.4765 46.203 50.1327 47.09 50.1327 48.586C 50.1327 50 49.457 50.898 48.3827 50.898C 47.3007 50.898 46.6327 50.012 46.6327 48.551C 46.6327 47.102 47.2968 46.203 48.3827 46.203z"/>
<path style="stroke:#000000; stroke-width:3.8266; fill:none" d="M 61.6757 128.449L 44.457 63.398"/>
<path style="stroke:#000000; stroke-width:3.8266; fill:none" d="M 44.5663 71.285L 44.4609 63.398L 48.2655 70.305"/>
<path style="stroke:#000000; stroke-dasharray:6,3; stroke-width:1.9133; fill:none" d="M 25.3241 128.449L 40.6288 63.398"/>
<path style="stroke:#000000; stroke-dasharray:6,3; stroke-width:1.9133; fill:none" d="M 37.0155 70.41L 40.6288 63.398L 40.7343 71.285"/>
<path style="stroke:#000000; stroke-width:0.95664899999999997; fill:none" d="M 64.0702 74.879L 39.1991 92.098"/>
<path style="stroke:#000000; stroke-width:0.95664899999999997; fill:none" d="M 46.5781 89.312L 39.1991 92.094L 44.3984 86.168"/>
<path style="stroke:none; fill-rule:evenodd; fill:#000000" d="M 72.7343 74.102L 74.207 69.102L 73.3085 69.102L 72.3163 72.988L 71.332 69.102L 70.3593 69.102L 69.4062 72.988L 68.3866 69.102L 67.5077 69.102L 68.9609 74.102L 69.8593 74.102L 70.8241 70.172L 71.8359 74.102L 72.7343 74.102z"/>
<path style="stroke:none; fill-rule:evenodd; fill:#000000" d="M 79.2343 71.902C 79.2343 71.117 79.1796 70.645 79.0351 70.262C 78.7148 69.418 77.9531 68.906 77.0195 68.906C 75.6327 68.906 74.7382 69.98 74.7382 71.633C 74.7382 73.281 75.6015 74.301 77.0038 74.301C 78.1445 74.301 78.9374 73.66 79.1366 72.582L 78.332 72.582C 78.1132 73.25 77.6601 73.602 77.0195 73.602C 76.5116 73.602 76.082 73.375 75.8085 72.961C 75.6171 72.68 75.5507 72.398 75.5429 71.906L 79.2343 71.902zM 75.5663 71.215C 75.6327 70.289 76.1952 69.688 76.9999 69.688C 77.7812 69.688 78.3866 70.336 78.3866 71.16C 78.3866 71.176 78.3866 71.195 78.3788 71.215L 75.5663 71.215z"/>
<path style="stroke:none; fill-rule:evenodd; fill:#000000" d="M 81.0312 69.102L 80.2343 69.102L 80.2343 74.102L 81.0312 74.102L 81.0312 69.102zM 81.0312 67.102L 80.2343 67.102L 80.2343 68.129L 81.0312 68.129L 81.0312 67.102z"/>
<path style="stroke:none; fill-rule:evenodd; fill:#000000" d="M 85.7343 69.102L 85.7343 69.812C 85.3323 69.191 84.8393 68.902 84.1913 68.902C 82.9101 68.902 82.039 70.016 82.039 71.648C 82.039 72.473 82.2577 73.145 82.6718 73.625C 83.0468 74.047 83.5823 74.297 84.1093 74.297C 84.7423 74.297 85.1833 74.035 85.6323 73.418L 85.6323 73.672C 85.6323 74.344 85.5463 74.75 85.3433 75.027C 85.1323 75.32 84.7143 75.492 84.2263 75.492C 83.8593 75.492 83.5313 75.398 83.3083 75.23C 83.1249 75.09 83.0507 74.961 82.9999 74.668L 82.1796 74.668C 82.2655 75.621 83.0038 76.191 84.1873 76.191C 84.9373 76.191 85.5783 75.953 85.9063 75.551C 86.2893 75.094 86.4333 74.461 86.4333 73.285L 86.4333 69.098L 85.7343 69.102zM 84.2423 69.602C 85.1173 69.602 85.6293 70.344 85.6293 71.629C 85.6293 72.852 85.1053 73.598 84.2503 73.598C 83.3673 73.598 82.832 72.844 82.832 71.598C 82.832 70.363 83.3753 69.598 84.2383 69.598L 84.2423 69.602z"/>
<path style="stroke:none; fill-rule:evenodd; fill:#000000" d="M 87.8323 67.102L 87.8323 74.102L 88.6293 74.102L 88.6293 71.312C 88.6293 70.281 89.1643 69.605 89.9883 69.605C 90.2463 69.605 90.5043 69.691 90.6953 69.836C 90.9223 69.996 91.0193 70.238 91.0193 70.598L 91.0193 74.102L 91.8163 74.102L 91.8163 70.285C 91.8163 69.438 91.2143 68.906 90.2303 68.906C 89.5193 68.906 89.0893 69.137 88.6173 69.781L 88.6173 67.109L 87.8323 67.102z"/>
<path style="stroke:none; fill-rule:evenodd; fill:#000000" d="M 94.8323 69.102L 94.0353 69.102L 94.0353 67.711L 93.2383 67.711L 93.2383 69.102L 92.5393 69.102L 92.5393 69.801L 93.2383 69.801L 93.2383 73.52C 93.2383 74.016 93.5783 74.297 94.1913 74.297C 94.3793 74.297 94.5703 74.281 94.8323 74.234L 94.8323 73.586C 94.7303 73.598 94.6093 73.602 94.4613 73.602C 94.1293 73.602 94.0353 73.508 94.0353 73.164L 94.0353 69.805L 94.8323 69.805L 94.8323 69.102z"/>
<path style="stroke:none; fill-rule:evenodd; fill:#000000" d="M 72.1327 76.602L 71.3359 76.602L 71.3359 79.219C 71.0116 78.688 70.4882 78.402 69.8359 78.402C 68.5702 78.402 67.7382 79.449 67.7382 81.051C 67.7382 82.75 68.5507 83.797 69.871 83.797C 70.5429 83.797 71.0116 83.547 71.4335 82.938L 71.4335 83.594L 72.1327 83.594L 72.1327 76.602zM 69.957 79.102C 70.7968 79.102 71.332 79.887 71.332 81.121C 71.332 82.312 70.789 83.098 69.9687 83.098C 69.1093 83.098 68.539 82.301 68.539 81.098C 68.539 79.898 69.1093 79.098 69.9609 79.098L 69.957 79.102z"/>
<path style="stroke:none; fill-rule:evenodd; fill:#000000" d="M 77.6327 81.402C 77.6327 80.617 77.5781 80.145 77.4335 79.762C 77.1132 78.918 76.3515 78.406 75.4179 78.406C 74.0312 78.406 73.1366 79.48 73.1366 81.133C 73.1366 82.781 73.9999 83.801 75.4023 83.801C 76.5429 83.801 77.3359 83.16 77.5351 82.082L 76.7304 82.082C 76.5116 82.75 76.0585 83.102 75.4179 83.102C 74.9101 83.102 74.4804 82.875 74.207 82.461C 74.0155 82.18 73.9491 81.898 73.9413 81.406L 77.6327 81.402zM 73.9648 80.715C 74.0312 79.789 74.5937 79.188 75.3984 79.188C 76.1796 79.188 76.7851 79.836 76.7851 80.66C 76.7851 80.676 76.7851 80.695 76.7773 80.715L 73.9648 80.715z"/>
<path style="stroke:none; fill-rule:evenodd; fill:#000000" d="M 82.539 80.273C 82.5038 79.746 82.3984 79.406 82.207 79.105C 81.8632 78.668 81.2616 78.406 80.5663 78.406C 79.2187 78.406 78.3398 79.48 78.3398 81.152C 78.3398 82.773 79.1991 83.801 80.5546 83.801C 81.746 83.801 82.5038 83.094 82.5976 81.879L 81.789 81.879C 81.6562 82.691 81.2421 83.098 80.5546 83.098C 79.6679 83.098 79.1366 82.363 79.1366 81.148C 79.1366 79.867 79.6562 79.102 80.5351 79.102C 81.207 79.102 81.6327 79.52 81.7304 80.27L 82.539 80.273z"/>
<path style="stroke:none; fill-rule:evenodd; fill:#000000" d="M 83.5313 78.547L 83.5313 83.598L 84.3283 83.598L 84.3283 80.945C 84.3283 80.215 84.5043 79.738 84.8793 79.453C 85.1213 79.27 85.3553 79.211 85.8943 79.199L 85.8943 78.43C 85.7613 78.414 85.6953 78.406 85.5893 78.406C 85.0783 78.406 84.6833 78.715 84.2263 79.465L 84.2263 78.551L 83.5313 78.547z"/>
<path style="stroke:none; fill-rule:evenodd; fill:#000000" d="M 90.9333 81.402C 90.9333 80.617 90.8793 80.145 90.7343 79.762C 90.4143 78.918 89.6523 78.406 88.7183 78.406C 87.3323 78.406 86.4373 79.48 86.4373 81.133C 86.4373 82.781 87.3003 83.801 88.7033 83.801C 89.8433 83.801 90.6363 83.16 90.8363 82.082L 90.0313 82.082C 89.8123 82.75 89.3593 83.102 88.7183 83.102C 88.2113 83.102 87.7813 82.875 87.5073 82.461C 87.3163 82.18 87.2503 81.898 87.2423 81.406L 90.9333 81.402zM 87.2653 80.715C 87.3323 79.789 87.8943 79.188 88.6993 79.188C 89.4803 79.188 90.0863 79.836 90.0863 80.66C 90.0863 80.676 90.0863 80.695 90.0783 80.715L 87.2653 80.715z"/>
<path style="stroke:none; fill-rule:evenodd; fill:#000000" d="M 96.4493 83.133C 96.3633 83.105 96.3243 83.105 96.2733 83.105C 95.9923 83.105 95.8363 82.965 95.8363 82.715L 95.8363 79.773C 95.8363 78.887 95.1913 78.41 93.9613 78.41C 93.2383 78.41 92.6403 78.625 92.3043 79.008C 92.0783 79.27 91.9843 79.566 91.9643 80.074L 92.7613 80.074C 92.8283 79.41 93.1873 79.105 93.9293 79.105C 94.6403 79.105 95.0393 79.375 95.0393 79.859L 95.0393 80.07C 95.0393 80.406 94.8393 80.551 94.2143 80.629C 93.0933 80.773 92.9223 80.812 92.6173 80.938C 92.0393 81.176 91.7423 81.633 91.7423 82.293C 91.7423 83.211 92.3713 83.793 93.3863 83.793C 94.0153 83.793 94.5233 83.582 95.0893 83.078C 95.1443 83.57 95.3943 83.793 95.9103 83.793C 96.0703 83.793 96.1953 83.777 96.4533 83.711L 96.4493 83.133zM 95.0313 82.016C 95.0313 82.277 94.9573 82.441 94.7143 82.656C 94.3903 82.949 93.9963 83.098 93.5233 83.098C 92.8983 83.098 92.5353 82.805 92.5353 82.305C 92.5353 81.785 92.8903 81.52 93.7463 81.398C 94.5893 81.285 94.7613 81.25 95.0313 81.125L 95.0313 82.016z"/>
<path style="stroke:none; fill-rule:evenodd; fill:#000000" d="M 100.824 79.984C 100.816 78.973 100.175 78.402 99.0313 78.402C 97.8823 78.402 97.1363 79.012 97.1363 79.953C 97.1363 80.746 97.5353 81.125 98.7183 81.414L 99.4613 81.598C 100.011 81.73 100.23 81.934 100.23 82.301C 100.23 82.773 99.7573 83.094 99.0503 83.094C 98.6173 83.094 98.2503 82.969 98.0433 82.754C 97.9183 82.609 97.8593 82.465 97.8123 82.105L 96.9613 82.105C 96.9963 83.246 97.6483 83.797 98.9643 83.797C 100.23 83.797 101.035 83.168 101.035 82.191C 101.035 81.438 100.617 81.02 99.6253 80.777L 98.8633 80.594C 98.2183 80.441 97.9413 80.227 97.9413 79.867C 97.9413 79.402 98.3473 79.102 98.9963 79.102C 99.6323 79.102 99.9723 79.406 99.9923 79.984L 100.824 79.984z"/>
<path style="stroke:none; fill-rule:evenodd; fill:#000000" d="M 106.332 81.402C 106.332 80.617 106.277 80.145 106.132 79.762C 105.812 78.918 105.05 78.406 104.117 78.406C 102.73 78.406 101.836 79.48 101.836 81.133C 101.836 82.781 102.699 83.801 104.101 83.801C 105.242 83.801 106.035 83.16 106.234 82.082L 105.429 82.082C 105.211 82.75 104.757 83.102 104.117 83.102C 103.609 83.102 103.179 82.875 102.906 82.461C 102.714 82.18 102.648 81.898 102.64 81.406L 106.332 81.402zM 102.668 80.715C 102.734 79.789 103.296 79.188 104.101 79.188C 104.882 79.188 105.488 79.836 105.488 80.66C 105.488 80.676 105.488 80.695 105.48 80.715L 102.668 80.715z"/>
<path style="stroke:none; fill-rule:evenodd; fill:#000000" d="M 111.433 76.602L 110.636 76.602L 110.636 79.219C 110.312 78.688 109.789 78.402 109.136 78.402C 107.871 78.402 107.039 79.449 107.039 81.051C 107.039 82.75 107.851 83.797 109.172 83.797C 109.843 83.797 110.312 83.547 110.734 82.938L 110.734 83.594L 111.433 83.594L 111.433 76.602zM 109.254 79.102C 110.093 79.102 110.629 79.887 110.629 81.121C 110.629 82.312 110.086 83.098 109.265 83.098C 108.406 83.098 107.836 82.301 107.836 81.098C 107.836 79.898 108.406 79.098 109.257 79.098L 109.254 79.102z"/>
<path style="stroke:none; fill-rule:evenodd; fill:#000000" d="M 88.0313 102.801L 89.5043 97.8008L 88.6053 97.8008L 87.6133 101.688L 86.6293 97.8008L 85.6563 97.8008L 84.7033 101.688L 83.6833 97.8008L 82.8046 97.8008L 84.2573 102.801L 85.1563 102.801L 86.1213 98.8711L 87.1323 102.801L 88.0313 102.801z"/>
<path style="stroke:none; fill-rule:evenodd; fill:#000000" d="M 94.5313 100.602C 94.5313 99.8164 94.4763 99.3438 94.3323 98.9609C 94.0113 98.1172 93.2503 97.6055 92.3163 97.6055C 90.9293 97.6055 90.0353 98.6797 90.0353 100.332C 90.0353 101.98 90.8983 103 92.3003 103C 93.4413 103 94.2343 102.359 94.4333 101.281L 93.6293 101.281C 93.4103 101.949 92.9573 102.301 92.3163 102.301C 91.8083 102.301 91.3793 102.074 91.1053 101.66C 90.9143 101.379 90.8473 101.098 90.8393 100.605L 94.5313 100.602zM 90.8673 99.9141C 90.9333 98.9883 91.4963 98.3867 92.3003 98.3867C 93.0823 98.3867 93.6873 99.0352 93.6873 99.8594C 93.6873 99.875 93.6873 99.8945 93.6793 99.9141L 90.8673 99.9141z"/>
<path style="stroke:none; fill-rule:evenodd; fill:#000000" d="M 96.3323 97.8008L 95.5353 97.8008L 95.5353 102.801L 96.3323 102.801L 96.3323 97.8008zM 96.3323 95.8008L 95.5353 95.8008L 95.5353 96.8281L 96.3323 96.8281L 96.3323 95.8008z"/>
<path style="stroke:none; fill-rule:evenodd; fill:#000000" d="M 101.031 97.8008L 101.031 98.5117C 100.629 97.8906 100.136 97.6016 99.4883 97.6016C 98.2073 97.6016 97.3363 98.7148 97.3363 100.348C 97.3363 101.172 97.5543 101.844 97.9683 102.324C 98.3433 102.746 98.8793 102.996 99.4063 102.996C 100.039 102.996 100.48 102.734 100.929 102.117L 100.929 102.371C 100.929 103.043 100.843 103.449 100.64 103.727C 100.429 104.02 100.011 104.191 99.5233 104.191C 99.1563 104.191 98.8283 104.098 98.6053 103.93C 98.4223 103.789 98.3473 103.66 98.2963 103.367L 97.4763 103.367C 97.5623 104.32 98.3003 104.891 99.4843 104.891C 100.234 104.891 100.875 104.652 101.203 104.25C 101.586 103.793 101.73 103.16 101.73 101.984L 101.73 97.7969L 101.031 97.8008zM 99.5433 98.3008C 100.418 98.3008 100.929 99.043 100.929 100.328C 100.929 101.551 100.406 102.297 99.5503 102.297C 98.6683 102.297 98.1323 101.543 98.1323 100.297C 98.1323 99.0625 98.6753 98.2969 99.5393 98.2969L 99.5433 98.3008z"/>
<path style="stroke:none; fill-rule:evenodd; fill:#000000" d="M 103.132 95.8008L 103.132 102.801L 103.929 102.801L 103.929 100.012C 103.929 98.9805 104.464 98.3047 105.289 98.3047C 105.546 98.3047 105.804 98.3906 105.996 98.5352C 106.222 98.6953 106.32 98.9375 106.32 99.2969L 106.32 102.801L 107.117 102.801L 107.117 98.9844C 107.117 98.1367 106.515 97.6055 105.531 97.6055C 104.82 97.6055 104.39 97.8359 103.918 98.4805L 103.918 95.8086L 103.132 95.8008z"/>
<path style="stroke:none; fill-rule:evenodd; fill:#000000" d="M 110.132 97.8008L 109.336 97.8008L 109.336 96.4102L 108.539 96.4102L 108.539 97.8008L 107.839 97.8008L 107.839 98.5L 108.539 98.5L 108.539 102.219C 108.539 102.715 108.879 102.996 109.492 102.996C 109.679 102.996 109.871 102.98 110.132 102.934L 110.132 102.285C 110.031 102.297 109.91 102.301 109.761 102.301C 109.429 102.301 109.336 102.207 109.336 101.863L 109.336 98.5039L 110.132 98.5039L 110.132 97.8008z"/>
<path style="stroke:none; fill-rule:evenodd; fill:#000000" d="M 84.1323 107.301L 83.3363 107.301L 83.3363 112.301L 84.1323 112.301L 84.1323 107.301zM 84.1323 105.301L 83.3363 105.301L 83.3363 106.328L 84.1323 106.328L 84.1323 105.301z"/>
<path style="stroke:none; fill-rule:evenodd; fill:#000000" d="M 85.5313 107.246L 85.5313 112.297L 86.3283 112.297L 86.3283 109.508C 86.3283 108.477 86.8633 107.801 87.6873 107.801C 88.3203 107.801 88.7223 108.188 88.7223 108.793L 88.7223 112.297L 89.5193 112.297L 89.5193 108.48C 89.5193 107.645 88.8903 107.102 87.9103 107.102C 87.1563 107.102 86.6683 107.391 86.2223 108.094L 86.2223 107.246L 85.5313 107.246z"/>
<path style="stroke:none; fill-rule:evenodd; fill:#000000" d="M 94.6363 108.973C 94.6013 108.445 94.4963 108.105 94.3043 107.805C 93.9613 107.367 93.3593 107.105 92.6643 107.105C 91.3163 107.105 90.4373 108.18 90.4373 109.852C 90.4373 111.473 91.2963 112.5 92.6523 112.5C 93.8433 112.5 94.6013 111.793 94.6953 110.578L 93.8863 110.578C 93.7543 111.391 93.3393 111.797 92.6523 111.797C 91.7653 111.797 91.2343 111.062 91.2343 109.848C 91.2343 108.566 91.7543 107.801 92.6323 107.801C 93.3043 107.801 93.7303 108.219 93.8283 108.969L 94.6363 108.973z"/>
<path style="stroke:none; fill-rule:evenodd; fill:#000000" d="M 95.6323 107.246L 95.6323 112.297L 96.4293 112.297L 96.4293 109.645C 96.4293 108.914 96.6053 108.438 96.9803 108.152C 97.2223 107.969 97.4573 107.91 97.9963 107.898L 97.9963 107.129C 97.8633 107.113 97.7963 107.105 97.6913 107.105C 97.1793 107.105 96.7853 107.414 96.3283 108.164L 96.3283 107.25L 95.6323 107.246z"/>
<path style="stroke:none; fill-rule:evenodd; fill:#000000" d="M 103.031 110.102C 103.031 109.316 102.976 108.844 102.832 108.461C 102.511 107.617 101.75 107.105 100.816 107.105C 99.4293 107.105 98.5353 108.18 98.5353 109.832C 98.5353 111.48 99.3983 112.5 100.8 112.5C 101.941 112.5 102.734 111.859 102.933 110.781L 102.129 110.781C 101.91 111.449 101.457 111.801 100.816 111.801C 100.308 111.801 99.8793 111.574 99.6053 111.16C 99.4143 110.879 99.3473 110.598 99.3393 110.105L 103.031 110.102zM 99.3673 109.414C 99.4333 108.488 99.9963 107.887 100.8 107.887C 101.582 107.887 102.187 108.535 102.187 109.359C 102.187 109.375 102.187 109.395 102.179 109.414L 99.3673 109.414z"/>
<path style="stroke:none; fill-rule:evenodd; fill:#000000" d="M 108.55 111.832C 108.464 111.805 108.425 111.805 108.375 111.805C 108.093 111.805 107.937 111.664 107.937 111.414L 107.937 108.473C 107.937 107.586 107.293 107.109 106.062 107.109C 105.339 107.109 104.742 107.324 104.406 107.707C 104.179 107.969 104.086 108.266 104.066 108.773L 104.863 108.773C 104.929 108.109 105.289 107.805 106.031 107.805C 106.742 107.805 107.14 108.074 107.14 108.559L 107.14 108.77C 107.14 109.105 106.941 109.25 106.316 109.328C 105.195 109.473 105.023 109.512 104.718 109.637C 104.14 109.875 103.843 110.332 103.843 110.992C 103.843 111.91 104.472 112.492 105.488 112.492C 106.117 112.492 106.625 112.281 107.191 111.777C 107.246 112.27 107.496 112.492 108.011 112.492C 108.172 112.492 108.296 112.477 108.554 112.41L 108.55 111.832zM 107.132 110.715C 107.132 110.977 107.058 111.141 106.816 111.355C 106.492 111.648 106.097 111.797 105.625 111.797C 105 111.797 104.636 111.504 104.636 111.004C 104.636 110.484 104.992 110.219 105.847 110.098C 106.691 109.984 106.863 109.949 107.132 109.824L 107.132 110.715z"/>
<path style="stroke:none; fill-rule:evenodd; fill:#000000" d="M 112.922 108.688C 112.914 107.676 112.273 107.105 111.129 107.105C 109.98 107.105 109.234 107.715 109.234 108.656C 109.234 109.449 109.632 109.828 110.816 110.117L 111.558 110.301C 112.109 110.434 112.328 110.637 112.328 111.004C 112.328 111.477 111.855 111.797 111.148 111.797C 110.714 111.797 110.347 111.672 110.14 111.457C 110.015 111.312 109.957 111.168 109.91 110.809L 109.058 110.809C 109.093 111.949 109.746 112.5 111.062 112.5C 112.328 112.5 113.132 111.871 113.132 110.895C 113.132 110.141 112.714 109.723 111.722 109.48L 110.961 109.297C 110.316 109.145 110.039 108.93 110.039 108.57C 110.039 108.105 110.445 107.805 111.093 107.805C 111.73 107.805 112.07 108.109 112.089 108.688L 112.922 108.688z"/>
<path style="stroke:none; fill-rule:evenodd; fill:#000000" d="M 118.433 110.102C 118.433 109.316 118.379 108.844 118.234 108.461C 117.914 107.617 117.152 107.105 116.218 107.105C 114.832 107.105 113.937 108.18 113.937 109.832C 113.937 111.48 114.8 112.5 116.203 112.5C 117.343 112.5 118.136 111.859 118.336 110.781L 117.531 110.781C 117.312 111.449 116.859 111.801 116.218 111.801C 115.711 111.801 115.281 111.574 115.007 111.16C 114.816 110.879 114.75 110.598 114.742 110.105L 118.433 110.102zM 114.765 109.414C 114.832 108.488 115.394 107.887 116.199 107.887C 116.98 107.887 117.586 108.535 117.586 109.359C 117.586 109.375 117.586 109.395 117.578 109.414L 114.765 109.414z"/>
<path style="stroke:none; fill-rule:evenodd; fill:#000000" d="M 123.531 105.301L 122.734 105.301L 122.734 107.918C 122.41 107.387 121.886 107.102 121.234 107.102C 119.968 107.102 119.136 108.148 119.136 109.75C 119.136 111.449 119.949 112.496 121.269 112.496C 121.941 112.496 122.41 112.246 122.832 111.637L 122.832 112.293L 123.531 112.293L 123.531 105.301zM 121.355 107.801C 122.195 107.801 122.73 108.586 122.73 109.82C 122.73 111.012 122.187 111.797 121.367 111.797C 120.507 111.797 119.937 111 119.937 109.797C 119.937 108.598 120.507 107.797 121.359 107.797L 121.355 107.801z"/>
<path style="stroke:#000000; stroke-width:0.95664899999999997; fill:none" d="M 79.3749 105.488L 62.1562 116.965"/>
<path style="stroke:#000000; stroke-width:0.95664899999999997; fill:none" d="M 69.5859 114.316L 62.1601 116.969L 67.4648 111.133"/>
</g>
</svg>