<?xml version="1.0" encoding="UTF-8" standalone="no"?>
<svg
  xmlns="http://www.w3.org/2000/svg" version="1.1"
  width="400px"
  height="400px"
  viewBox="0 0 1000.0 1000.0">
<path stroke="#000000" stroke-width="2" fill="none"
  d="M 264.4,726.1 L 264.4,171.9 L 818.7,171.9 L 818.7,726.1 L 264.4,726.1 "
 />

<g>

<text x="541.6" y="801.0" font-family="Arial" font-size="28.0" fill="#000000" text-anchor="middle">
Degree of Degradation
</text>

<text x="289.6" y="773.3" font-family="Arial" font-size="28.0" fill="#000000" text-anchor="middle">
Maximum
</text>

<text x="793.5" y="773.3" font-family="Arial" font-size="28.0" fill="#000000" text-anchor="middle">
Minimum
</text>
<path stroke="#000000" stroke-width="2" fill="none"
  d="M 264.4,726.1 L 818.7,726.1 M 289.6,740.0 L 289.6,712.3 M 415.6,740.0 L 415.6,712.3 M 541.6,740.0 L 541.6,712.3 M 667.5,740.0 L 667.5,712.3 M 793.5,740.0 L 793.5,712.3 "
 />
<path stroke="#000000" stroke-width="2" fill="none"
  d="M 264.4,171.9 L 818.7,171.9 M 289.6,185.7 L 289.6,158.0 M 415.6,185.7 L 415.6,158.0 M 541.6,185.7 L 541.6,158.0 M 667.5,185.7 L 667.5,158.0 M 793.5,185.7 L 793.5,158.0 "
 />

<text x="245.0" y="737.2" font-family="Arial" font-size="28.0" fill="#000000" text-anchor="end">
10
</text>

<text x="245.0" y="667.9" font-family="Arial" font-size="28.0" fill="#000000" text-anchor="end">
20
</text>

<text x="245.0" y="598.7" font-family="Arial" font-size="28.0" fill="#000000" text-anchor="end">
30
</text>

<text x="245.0" y="529.4" font-family="Arial" font-size="28.0" fill="#000000" text-anchor="end">
40
</text>

<text x="245.0" y="460.1" font-family="Arial" font-size="28.0" fill="#000000" text-anchor="end">
50
</text>

<text x="245.0" y="390.8" font-family="Arial" font-size="28.0" fill="#000000" text-anchor="end">
60
</text>

<text x="245.0" y="321.5" font-family="Arial" font-size="28.0" fill="#000000" text-anchor="end">
70
</text>

<text x="245.0" y="252.2" font-family="Arial" font-size="28.0" fill="#000000" text-anchor="end">
80
</text>

<text x="245.0" y="183.0" font-family="Arial" font-size="28.0" fill="#000000" text-anchor="end">
90
</text>
<path stroke="#000000" stroke-width="2" fill="none"
  d="M 264.4,726.1 L 264.4,171.9 M 250.6,726.1 L 278.3,726.1 M 250.6,656.9 L 278.3,656.9 M 250.6,587.6 L 278.3,587.6 M 250.6,518.3 L 278.3,518.3 M 250.6,449.0 L 278.3,449.0 M 250.6,379.7 L 278.3,379.7 M 250.6,310.4 L 278.3,310.4 M 250.6,241.2 L 278.3,241.2 M 250.6,171.9 L 278.3,171.9 "
 />
<path stroke="#000000" stroke-width="2" fill="none"
  d="M 818.7,726.1 L 818.7,171.9 M 804.8,726.1 L 832.6,726.1 M 804.8,656.9 L 832.6,656.9 M 804.8,587.6 L 832.6,587.6 M 804.8,518.3 L 832.6,518.3 M 804.8,449.0 L 832.6,449.0 M 804.8,379.7 L 832.6,379.7 M 804.8,310.4 L 832.6,310.4 M 804.8,241.2 L 832.6,241.2 M 804.8,171.9 L 832.6,171.9 "
 />

</g>

<g transform="translate(0.0,-616.0)">

<g transform="translate(0.0,-0.0)">
<path stroke="#000000" stroke-width="1" fill="none"
  d="M 264.4,726.1 L 297.7,726.1 "
 />

<text x="303.2" y="737.2" font-family="Arial" font-size="22.4" fill="#000000" text-anchor="start">
deg 5
</text>

</g>

<g transform="translate(100.8,-0.0)">
<path stroke="#ff0000" stroke-width="1" fill="none"
  d="M 264.4,726.1 L 297.7,726.1 "
 />

<text x="303.2" y="737.2" font-family="Arial" font-size="22.4" fill="#ff0000" text-anchor="start">
deg 4
</text>

</g>

<g transform="translate(201.6,-0.0)">
<path stroke="#0000ff" stroke-width="1" fill="none"
  d="M 264.4,726.1 L 297.7,726.1 "
 />

<text x="303.2" y="737.2" font-family="Arial" font-size="22.4" fill="#0000ff" text-anchor="start">
deg 3
</text>

</g>

<g transform="translate(302.4,-0.0)">
<path stroke="#218b21" stroke-width="1" fill="none"
  d="M 264.4,726.1 L 297.7,726.1 "
 />

<text x="303.2" y="737.2" font-family="Arial" font-size="22.4" fill="#218b21" text-anchor="start">
deg 2
</text>

</g>

<g transform="translate(403.2,-0.0)">
<path stroke="#a020f0" stroke-width="1" fill="none"
  d="M 264.4,726.1 L 297.7,726.1 "
 />

<text x="303.2" y="737.2" font-family="Arial" font-size="22.4" fill="#a020f0" text-anchor="start">
deg 1
</text>

</g>

</g>

<g>
<path stroke="#000000" stroke-width="1" fill="none"
  d="M 289.6,613.6 
L 415.6,532.1 L 541.6,462.9 L 667.5,358.9 L 793.5,255.0 "
 />
<path stroke="#000000" stroke-width="1" fill="none"
  d="M 295.2,613.6 L 294.8,611.4 L 293.6,609.6 L 291.8,608.4 L 289.6,608.0 L 287.5,608.4 L 285.7,609.6 L 284.5,611.4 L 284.1,613.6 L 284.5,615.7 L 285.7,617.5 L 287.5,618.7 L 289.6,619.1 L 291.8,618.7 L 293.6,617.5 L 294.8,615.7 L 295.2,613.6 M 421.1,532.1 L 420.7,530.0 L 419.5,528.2 L 417.7,527.0 L 415.6,526.6 L 413.5,527.0 L 411.7,528.2 L 410.5,530.0 L 410.1,532.1 L 410.5,534.3 L 411.7,536.1 L 413.5,537.3 L 415.6,537.7 L 417.7,537.3 L 419.5,536.1 L 420.7,534.3 L 421.1,532.1 M 547.1,462.9 L 546.7,460.7 L 545.5,458.9 L 543.7,457.7 L 541.6,457.3 L 539.4,457.7 L 537.7,458.9 L 536.4,460.7 L 536.0,462.9 L 536.4,465.0 L 537.7,466.8 L 539.4,468.0 L 541.6,468.4 L 543.7,468.0 L 545.5,466.8 L 546.7,465.0 L 547.1,462.9 M 673.1,358.9 L 672.7,356.8 L 671.5,355.0 L 669.7,353.8 L 667.5,353.4 L 665.4,353.8 L 663.6,355.0 L 662.4,356.8 L 662.0,358.9 L 662.4,361.1 L 663.6,362.9 L 665.4,364.1 L 667.5,364.5 L 669.7,364.1 L 671.5,362.9 L 672.7,361.1 L 673.1,358.9 M 799.1,255.0 L 798.6,252.9 L 797.4,251.1 L 795.6,249.9 L 793.5,249.5 L 791.4,249.9 L 789.6,251.1 L 788.4,252.9 L 788.0,255.0 L 788.4,257.1 L 789.6,258.9 L 791.4,260.1 L 793.5,260.6 L 795.6,260.1 L 797.4,258.9 L 798.6,257.1 L 799.1,255.0 "
 />
<path stroke="#ff0000" stroke-width="1" fill="none"
  d="
M 415.6,552.9 L 541.6,497.5 L 667.5,386.7 L 793.5,296.6 "
 />
<path stroke="#ff0000" stroke-width="1" fill="none"
  d="M 410.1,558.5 L 410.1,547.4 L 421.1,547.4 L 421.1,558.5 L 410.1,558.5 M 536.0,503.0 L 536.0,492.0 L 547.1,492.0 L 547.1,503.0 L 536.0,503.0 M 662.0,392.2 L 662.0,381.1 L 673.1,381.1 L 673.1,392.2 L 662.0,392.2 M 788.0,302.1 L 788.0,291.0 L 799.1,291.0 L 799.1,302.1 L 788.0,302.1 "
 />
<path stroke="#0000ff" stroke-width="1" fill="none"
  d="M 541.6,518.3 L 667.5,414.4 L 793.5,317.4 "
 />
<path stroke="#0000ff" stroke-width="1" fill="none"
  d="M 536.0,518.3 L 541.6,512.7 L 547.1,518.3 L 541.6,523.8 L 536.0,518.3 M 662.0,414.4 L 667.5,408.8 L 673.1,414.4 L 667.5,419.9 L 662.0,414.4 M 788.0,317.4 L 793.5,311.8 L 799.1,317.4 L 793.5,322.9 L 788.0,317.4 "
 />
<path stroke="#218b21" stroke-width="1" fill="none"
  d="M 667.5,449.0 L 793.5,365.9 "
 />
<path stroke="#218b21" stroke-width="1" fill="none"
  d="M 662.0,454.6 L 667.5,443.5 L 673.1,454.6 L 662.0,454.6 M 788.0,371.4 L 793.5,360.3 L 799.1,371.4 L 788.0,371.4 "
 />
<path stroke="#a020f0" stroke-width="1" fill="none"
  d="M 793.5,386.7 "
 />
<path stroke="#a020f0" stroke-width="1" fill="none"
  d="M 788.0,381.1 L 793.5,392.2 L 799.1,381.1 L 788.0,381.1 "
 />

</g>
</svg>
