<?xml version="1.0" encoding="ISO-8859-1" standalone="yes"?>
<svg width="382.297" height="156.491">
  <defs> 
    <marker id="ArrowEnd" viewBox="0 0 10 10" refX="0" refY="5" 
     markerUnits="strokeWidth" 
     markerWidth="4" 
     markerHeight="3" 
     orient="auto"> 
        <path d="M 0 0 L 10 5 L 0 10 z" /> 
    </marker>
    <marker id="ArrowStart" viewBox="0 0 10 10" refX="10" refY="5" 
     markerUnits="strokeWidth" 
     markerWidth="4" 
     markerHeight="3" 
     orient="auto"> 
        <path d="M 10 0 L 0 5 L 10 10 z" /> 
    </marker> </defs>
<g>
<path style="stroke:none; fill-rule:evenodd; fill:#000000" d="M 9.1367 17.791C 7.4336 17.791 6.4023 19.006 6.4023 21.041C 6.4023 23.073 7.4219 24.287 9.1523 24.287C 10.8555 24.287 11.9023 23.077 11.9023 21.088C 11.9023 18.998 10.8945 17.791 9.1406 17.791L 9.1367 17.791zM 9.1484 18.69C 10.2422 18.69 10.8984 19.577 10.8984 21.073C 10.8984 22.487 10.2227 23.385 9.1484 23.385C 8.0664 23.385 7.3984 22.498 7.3984 21.037C 7.3984 19.588 8.0625 18.69 9.1484 18.69z"/>
<path style="stroke:none; fill-rule:evenodd; fill:#000000" d="M 18 24.026L 18 17.994L 17 17.994L 17 21.44C 17 22.678 16.3555 23.491 15.3516 23.491C 14.5898 23.491 14.1055 23.03 14.1055 22.299L 14.1055 17.994L 13.1055 17.994L 13.1055 22.647C 13.1055 23.647 13.8438 24.291 15.0078 24.291C 15.8828 24.291 16.4414 23.983 17 23.19L 17 24.03L 18 24.026z"/>
<path style="stroke:none; fill-rule:evenodd; fill:#000000" d="M 21.5977 17.991L 20.6992 17.991L 20.6992 16.33L 19.6992 16.33L 19.6992 17.991L 18.8008 17.991L 18.8008 18.787L 19.6992 18.787L 19.6992 23.334C 19.6992 23.94 20.1016 24.284 20.832 24.284C 21.0547 24.284 21.2812 24.26 21.5938 24.201L 21.5938 23.366C 21.4805 23.451 21.3438 23.483 21.1758 23.483C 20.8008 23.483 20.6953 23.369 20.6953 22.94L 20.6953 18.787L 21.5938 18.787L 21.5977 17.991z"/>
<path style="stroke:none; fill-rule:evenodd; fill:#000000" d="M 22.5 26.491L 23.5 26.491L 23.5 23.389C 24 24.01 24.5625 24.287 25.3398 24.287C 26.8828 24.287 27.8984 23.03 27.8984 21.1C 27.8984 19.069 26.9141 17.795 25.3164 17.795C 24.5039 17.795 23.8477 18.162 23.4023 18.873L 23.4023 17.967L 22.5039 17.967L 22.5 26.491zM 25.1641 18.69C 26.2109 18.69 26.8945 19.627 26.8945 21.073C 26.8945 22.448 26.1992 23.385 25.1641 23.385C 24.1602 23.385 23.5 22.459 23.5 21.037C 23.5 19.616 24.1602 18.69 25.1641 18.69z"/>
<path style="stroke:none; fill-rule:evenodd; fill:#000000" d="M 33.8984 24.026L 33.8984 17.994L 32.8984 17.994L 32.8984 21.44C 32.8984 22.678 32.2539 23.491 31.25 23.491C 30.4883 23.491 30.0039 23.03 30.0039 22.299L 30.0039 17.994L 29.0039 17.994L 29.0039 22.647C 29.0039 23.647 29.7422 24.291 30.9062 24.291C 31.7812 24.291 32.3398 23.983 32.8984 23.19L 32.8984 24.03L 33.8984 24.026z"/>
<path style="stroke:none; fill-rule:evenodd; fill:#000000" d="M 37.5977 17.991L 36.6992 17.991L 36.6992 16.33L 35.6992 16.33L 35.6992 17.991L 34.8008 17.991L 34.8008 18.787L 35.6992 18.787L 35.6992 23.334C 35.6992 23.94 36.1016 24.284 36.832 24.284C 37.0547 24.284 37.2812 24.26 37.5938 24.201L 37.5938 23.366C 37.4805 23.451 37.3438 23.483 37.1758 23.483C 36.8008 23.483 36.6953 23.369 36.6953 22.94L 36.6953 18.787L 37.5938 18.787L 37.5977 17.991z"/>
<path style="stroke:none; fill-rule:evenodd; fill:#000000" d="M 14.3984 113.592L 13.3984 113.592L 13.3984 119.592L 14.3984 119.592L 14.3984 113.592zM 14.3984 111.19L 13.3984 111.19L 13.3984 112.428L 14.3984 112.428L 14.3984 111.19z"/>
<path style="stroke:none; fill-rule:evenodd; fill:#000000" d="M 16 113.565L 16 119.588L 17 119.588L 17 116.241C 17 115.002 17.625 114.19 18.5898 114.19C 19.3281 114.19 19.7969 114.651 19.7969 115.381L 19.7969 119.584L 20.7969 119.584L 20.7969 115.03C 20.7969 114.03 20.0547 113.385 18.8945 113.385C 18 113.385 17.4297 113.729 16.9023 114.569L 16.9023 113.557L 16 113.565z"/>
<path style="stroke:none; fill-rule:evenodd; fill:#000000" d="M 22.1992 122.092L 23.1992 122.092L 23.1992 118.991C 23.6992 119.612 24.2617 119.889 25.0391 119.889C 26.582 119.889 27.5977 118.631 27.5977 116.702C 27.5977 114.67 26.6133 113.397 25.0156 113.397C 24.2031 113.397 23.5469 113.764 23.1016 114.475L 23.1016 113.569L 22.2031 113.569L 22.1992 122.092zM 24.8633 114.291C 25.9102 114.291 26.5938 115.229 26.5938 116.674C 26.5938 118.049 25.8984 118.987 24.8633 118.987C 23.8594 118.987 23.1992 118.061 23.1992 116.639C 23.1992 115.217 23.8594 114.291 24.8633 114.291z"/>
<path style="stroke:none; fill-rule:evenodd; fill:#000000" d="M 33.5977 119.627L 33.5977 113.596L 32.5977 113.596L 32.5977 117.041C 32.5977 118.28 31.9531 119.092 30.9492 119.092C 30.1875 119.092 29.7031 118.631 29.7031 117.901L 29.7031 113.596L 28.7031 113.596L 28.7031 118.248C 28.7031 119.248 29.4414 119.893 30.6055 119.893C 31.4805 119.893 32.0391 119.584 32.5977 118.791L 32.5977 119.631L 33.5977 119.627z"/>
<path style="stroke:none; fill-rule:evenodd; fill:#000000" d="M 37.2969 113.592L 36.3984 113.592L 36.3984 111.932L 35.3984 111.932L 35.3984 113.592L 34.5 113.592L 34.5 114.389L 35.3984 114.389L 35.3984 118.936C 35.3984 119.541 35.8008 119.885 36.5312 119.885C 36.7539 119.885 36.9805 119.862 37.293 119.803L 37.293 118.967C 37.1797 119.053 37.043 119.084 36.875 119.084C 36.5 119.084 36.3945 118.971 36.3945 118.541L 36.3945 114.389L 37.293 114.389L 37.2969 113.592z"/>
<path style="stroke:none; fill-rule:evenodd; fill:#000000" d="M 1 61.991L 0 61.991L 0 67.991L 1 67.991L 1 61.991zM 1 59.592L 0 59.592L 0 60.83L 1 60.83L 1 59.592z"/>
<path style="stroke:none; fill-rule:evenodd; fill:#000000" d="M 2.5977 61.963L 2.5977 67.987L 3.5977 67.987L 3.5977 64.639C 3.5977 63.401 4.2227 62.588 5.1875 62.588C 5.9258 62.588 6.3945 63.049 6.3945 63.78L 6.3945 67.983L 7.3945 67.983L 7.3945 63.428C 7.3945 62.428 6.6523 61.784 5.4922 61.784C 4.5977 61.784 4.0273 62.127 3.5 62.967L 3.5 61.955L 2.5977 61.963z"/>
<path style="stroke:none; fill-rule:evenodd; fill:#000000" d="M 11.0977 61.991L 10.1992 61.991L 10.1992 60.33L 9.1992 60.33L 9.1992 61.991L 8.3008 61.991L 8.3008 62.787L 9.1992 62.787L 9.1992 67.334C 9.1992 67.94 9.6016 68.284 10.332 68.284C 10.5547 68.284 10.7812 68.26 11.0938 68.201L 11.0938 67.366C 10.9805 67.451 10.8438 67.483 10.6758 67.483C 10.3008 67.483 10.1953 67.369 10.1953 66.94L 10.1953 62.787L 11.0938 62.787L 11.0977 61.991z"/>
<path style="stroke:none; fill-rule:evenodd; fill:#000000" d="M 17.2969 65.291C 17.2969 64.373 17.2305 63.823 17.0586 63.377C 16.6719 62.393 15.7578 61.795 14.6406 61.795C 12.9766 61.795 11.9023 63.088 11.9023 65.077C 11.9023 67.065 12.9375 68.287 14.6094 68.287C 15.9727 68.287 16.918 67.494 17.1562 66.166L 16.2031 66.166C 15.9453 66.967 15.4102 67.389 14.6484 67.389C 14.0469 67.389 13.5391 67.112 13.2188 66.596C 12.9922 66.248 12.9141 65.897 12.9023 65.291L 17.2969 65.291zM 12.8789 64.526C 12.957 63.416 13.6328 62.69 14.5977 62.69C 15.5352 62.69 16.2578 63.467 16.2578 64.455C 16.2578 64.475 16.2578 64.498 16.25 64.522L 12.8789 64.526z"/>
<path style="stroke:none; fill-rule:evenodd; fill:#000000" d="M 18.5977 61.963L 18.5977 67.987L 19.5977 67.987L 19.5977 64.854C 19.5977 63.991 19.8086 63.424 20.2578 63.092C 20.5469 62.873 20.8281 62.807 21.4766 62.795L 21.4766 61.83C 21.3203 61.811 21.2422 61.799 21.1172 61.799C 20.5078 61.799 20.043 62.166 19.5 63.065L 19.5 61.975L 18.5977 61.963z"/>
<path style="stroke:none; fill-rule:evenodd; fill:#000000" d="M 22.3984 61.963L 22.3984 67.987L 23.3984 67.987L 23.3984 64.639C 23.3984 63.401 24.0234 62.588 24.9883 62.588C 25.7266 62.588 26.1953 63.049 26.1953 63.78L 26.1953 67.983L 27.1953 67.983L 27.1953 63.428C 27.1953 62.428 26.4531 61.784 25.293 61.784C 24.3984 61.784 23.8281 62.127 23.3008 62.967L 23.3008 61.955L 22.3984 61.963z"/>
<path style="stroke:none; fill-rule:evenodd; fill:#000000" d="M 34.1367 67.428C 34.0352 67.487 33.9883 67.487 33.9258 67.487C 33.5859 67.487 33.4023 67.315 33.4023 67.014L 33.4023 63.448C 33.4023 62.373 32.625 61.791 31.1523 61.791C 30.2852 61.791 29.5664 62.045 29.1641 62.494C 28.8906 62.803 28.7773 63.151 28.7539 63.752L 29.6992 63.752C 29.7773 63.022 30.2031 62.69 31.0859 62.69C 31.9297 62.69 32.4023 63.01 32.4023 63.588L 32.4023 63.842C 32.4023 64.244 32.168 64.416 31.4258 64.51C 30.1016 64.682 29.8984 64.729 29.5391 64.877C 28.8555 65.162 28.5078 65.705 28.5078 66.491C 28.5078 67.584 29.2617 68.276 30.4727 68.276C 31.2266 68.276 31.832 68.002 32.5078 67.358C 32.5742 67.991 32.8711 68.276 33.4883 68.276C 33.6797 68.276 33.8281 68.252 34.1367 68.17L 34.1367 67.428zM 32.3984 66.131C 32.3984 66.459 32.3086 66.662 32.0312 66.932C 31.6523 67.295 31.1953 67.487 30.6484 67.487C 29.9258 67.487 29.5039 67.123 29.5039 66.494C 29.5039 65.846 29.9141 65.514 30.9062 65.362C 31.8867 65.221 32.0859 65.174 32.3984 65.022L 32.3984 66.131z"/>
<path style="stroke:none; fill-rule:evenodd; fill:#000000" d="M 35.1992 67.991L 36.1992 67.991L 36.1992 59.592L 35.1992 59.592L 35.1992 67.991z"/>
<path style="stroke:none; fill-rule:evenodd; fill:#000000" d="M 0.0977001 73.366L 0.0977001 79.389L 1.0977 79.389L 1.0977 76.256C 1.0977 75.393 1.3086 74.827 1.7578 74.494C 2.0469 74.276 2.3281 74.209 2.9766 74.198L 2.9766 73.233C 2.8203 73.213 2.7422 73.201 2.6172 73.201C 2.0078 73.201 1.543 73.569 1 74.467L 1 73.377L 0.0977001 73.366z"/>
<path style="stroke:none; fill-rule:evenodd; fill:#000000" d="M 9 76.6898C 9 75.772 8.9336 75.221 8.7617 74.776C 8.375 73.791 7.4609 73.194 6.3438 73.194C 4.6797 73.194 3.6055 74.487 3.6055 76.4749C 3.6055 78.4632 4.6406 79.6859 6.3125 79.6859C 7.6758 79.6859 8.6211 78.8929 8.8594 77.5648L 7.9062 77.5648C 7.6484 78.3656 7.1133 78.7874 6.3516 78.7874C 5.75 78.7874 5.2422 78.5101 4.9219 77.9945C 4.6953 77.6468 4.6172 77.2952 4.6055 76.6898L 9 76.6898zM 4.5781 75.924C 4.6562 74.815 5.332 74.088 6.2969 74.088C 7.2344 74.088 7.957 74.866 7.957 75.854C 7.957 75.873 7.957 75.897 7.9492 75.92L 4.5781 75.924z"/>
<path style="stroke:none; fill-rule:evenodd; fill:#000000" d="M 10.0977 81.8929L 11.0977 81.8929L 11.0977 78.7913C 11.5977 79.4124 12.1602 79.6898 12.9375 79.6898C 14.4805 79.6898 15.4961 78.432 15.4961 76.5023C 15.4961 74.471 14.5117 73.198 12.9141 73.198C 12.1016 73.198 11.4453 73.565 11 74.276L 11 73.369L 10.1016 73.369L 10.0977 81.8929zM 12.7656 74.092C 13.8125 74.092 14.4961 75.03 14.4961 76.4749C 14.4961 77.8499 13.8008 78.7874 12.7656 78.7874C 11.7617 78.7874 11.1016 77.8617 11.1016 76.4398C 11.1016 75.018 11.7617 74.092 12.7656 74.092z"/>
<path style="stroke:none; fill-rule:evenodd; fill:#000000" d="M 20.9219 75.053C 20.9102 73.866 20.125 73.194 18.7266 73.194C 17.3164 73.194 16.4023 73.92 16.4023 75.041C 16.4023 75.987 16.8906 76.4359 18.3398 76.7835L 19.25 77.0023C 19.9258 77.1624 20.1953 77.4046 20.1953 77.8421C 20.1953 78.4046 19.6289 78.7874 18.7852 78.7874C 18.2656 78.7874 17.8281 78.639 17.5859 78.3812C 17.4375 78.2093 17.3672 78.0335 17.3086 77.5999L 16.293 77.5999C 16.3359 79.0101 17.1211 79.6859 18.7031 79.6859C 20.2266 79.6859 21.1953 78.9359 21.1953 77.7718C 21.1953 76.8734 20.6836 76.377 19.4688 76.088L 18.5352 75.869C 17.7422 75.686 17.4023 75.432 17.4023 75.006C 17.4023 74.455 17.8984 74.096 18.6875 74.096C 19.4609 74.096 19.8789 74.424 19.9023 75.057L 20.9219 75.053z"/>
<path style="stroke:#000000; stroke-width:1.91229; fill:none" d="M 66.2266 117.112C 66.2266 110.776 61.0898 105.639 54.7539 105.639C 48.418 105.639 43.2812 110.776 43.2812 117.112C 43.2812 123.448 48.418 128.584 54.7539 128.584C 61.0898 128.584 66.2266 123.448 66.2266 117.112"/>
<path style="stroke:#000000; stroke-width:1.91229; fill:none" d="M 106.383 117.112C 106.383 110.776 101.246 105.639 94.91 105.639C 88.574 105.639 83.4375 110.776 83.4375 117.112C 83.4375 123.448 88.574 128.584 94.91 128.584C 101.246 128.584 106.383 123.448 106.383 117.112"/>
<path style="stroke:#000000; stroke-width:1.91229; fill:none" d="M 66.2266 21.494C 66.2266 15.159 61.0898 10.022 54.7539 10.022C 48.418 10.022 43.2812 15.159 43.2812 21.494C 43.2812 27.83 48.418 32.967 54.7539 32.967C 61.0898 32.967 66.2266 27.83 66.2266 21.494"/>
<path style="stroke:#000000; stroke-width:1.91229; fill:none" d="M 106.383 21.494C 106.383 15.159 101.246 10.022 94.91 10.022C 88.574 10.022 83.4375 15.159 83.4375 21.494C 83.4375 27.83 88.574 32.967 94.91 32.967C 101.246 32.967 106.383 27.83 106.383 21.494"/>
<path style="stroke:#000000; stroke-width:1.91229; fill:none" d="M 66.2266 69.303C 66.2266 62.967 61.0898 57.83 54.7539 57.83C 48.418 57.83 43.2812 62.967 43.2812 69.303C 43.2812 75.639 48.418 80.7757 54.7539 80.7757C 61.0898 80.7757 66.2266 75.639 66.2266 69.303"/>
<path style="stroke:#000000; stroke-width:1.91229; fill:none" d="M 106.383 69.303C 106.383 62.967 101.246 57.83 94.91 57.83C 88.574 57.83 83.4375 62.967 83.4375 69.303C 83.4375 75.639 88.574 80.7757 94.91 80.7757C 101.246 80.7757 106.383 75.639 106.383 69.303"/>
<path style="stroke:#000000; stroke-width:1.91229; fill:none" d="M 54.7539 105.635L 54.7539 80.7757"/>
<path style="stroke:#000000; stroke-width:1.91229; fill:none" d="M 52.8398 88.4242L 54.75 80.7757L 56.6602 88.4242"/>
<path style="stroke:#000000; stroke-width:1.91229; fill:none" d="M 94.91 105.635L 94.91 80.7757"/>
<path style="stroke:#000000; stroke-width:1.91229; fill:none" d="M 93 88.4242L 94.91 80.7757L 96.82 88.4242"/>
<path style="stroke:#000000; stroke-width:1.91229; fill:none" d="M 146.543 117.112C 146.543 110.776 141.406 105.639 135.07 105.639C 128.734 105.639 123.598 110.776 123.598 117.112C 123.598 123.448 128.734 128.584 135.07 128.584C 141.406 128.584 146.543 123.448 146.543 117.112"/>
<path style="stroke:#000000; stroke-width:1.91229; fill:none" d="M 146.543 21.494C 146.543 15.159 141.406 10.022 135.07 10.022C 128.734 10.022 123.598 15.159 123.598 21.494C 123.598 27.83 128.734 32.967 135.07 32.967C 141.406 32.967 146.543 27.83 146.543 21.494"/>
<path style="stroke:#000000; stroke-width:1.91229; fill:none" d="M 146.543 69.303C 146.543 62.967 141.406 57.83 135.07 57.83C 128.734 57.83 123.598 62.967 123.598 69.303C 123.598 75.639 128.734 80.7757 135.07 80.7757C 141.406 80.7757 146.543 75.639 146.543 69.303"/>
<path style="stroke:#000000; stroke-width:1.91229; fill:none" d="M 135.07 105.635L 135.07 80.7757"/>
<path style="stroke:#000000; stroke-width:1.91229; fill:none" d="M 133.156 88.4242L 135.066 80.7757L 136.977 88.4242"/>
<path style="stroke:#000000; stroke-width:1.91229; fill:none" d="M 135.07 57.854L 135.07 32.994"/>
<path style="stroke:#000000; stroke-width:1.91229; fill:none" d="M 133.156 40.643L 135.066 32.994L 136.977 40.643"/>
<path style="stroke:#000000; stroke-width:1.91229; fill:none" d="M 94.91 57.83L 94.91 32.971"/>
<path style="stroke:#000000; stroke-width:1.91229; fill:none" d="M 93 40.619L 94.91 32.971L 96.82 40.619"/>
<path style="stroke:#000000; stroke-width:1.91229; fill:none" d="M 54.7539 57.83L 54.7539 32.971"/>
<path style="stroke:#000000; stroke-width:1.91229; fill:none" d="M 52.8398 40.619L 54.75 32.971L 56.6602 40.619"/>
<path style="stroke:#000000; stroke-width:1.91229; fill:none" d="M 188.633 117.112C 188.633 110.776 183.496 105.639 177.16 105.639C 170.824 105.639 165.688 110.776 165.688 117.112C 165.688 123.448 170.824 128.584 177.16 128.584C 183.496 128.584 188.633 123.448 188.633 117.112"/>
<path style="stroke:#000000; stroke-width:1.91229; fill:none" d="M 188.633 21.494C 188.633 15.159 183.496 10.022 177.16 10.022C 170.824 10.022 165.688 15.159 165.688 21.494C 165.688 27.83 170.824 32.967 177.16 32.967C 183.496 32.967 188.633 27.83 188.633 21.494"/>
<path style="stroke:#000000; stroke-width:1.91229; fill:none" d="M 188.633 69.303C 188.633 62.967 183.496 57.83 177.16 57.83C 170.824 57.83 165.688 62.967 165.688 69.303C 165.688 75.639 170.824 80.7757 177.16 80.7757C 183.496 80.7757 188.633 75.639 188.633 69.303"/>
<path style="stroke:#000000; stroke-width:1.91229; fill:none" d="M 177.156 105.635L 177.156 80.7757"/>
<path style="stroke:#000000; stroke-width:1.91229; fill:none" d="M 175.246 88.4242L 177.156 80.7757L 179.066 88.4242"/>
<path style="stroke:#000000; stroke-width:1.91229; fill:none" d="M 177.156 57.854L 177.156 32.994"/>
<path style="stroke:#000000; stroke-width:1.91229; fill:none" d="M 175.246 40.643L 177.156 32.994L 179.066 40.643"/>
<path style="stroke:none; fill-rule:evenodd; fill:#000000" d="M 97.398 112.092L 97.398 118.053C 97.398 119.194 96.602 119.889 95.289 119.889C 94.684 119.889 94.191 119.741 93.797 119.448C 93.395 119.123 93.203 118.694 93.203 118.053L 93.203 112.092L 92.105 112.092L 92.105 118.014C 92.105 119.725 93.316 120.787 95.293 120.787C 97.246 120.787 98.504 119.702 98.504 118.014L 98.504 112.092L 97.398 112.092z"/>
<path style="stroke:none; fill-rule:evenodd; fill:#000000" d="M 138.5 114.58C 138.488 112.944 137.371 111.991 135.457 111.991C 133.633 111.991 132.504 112.94 132.504 114.467C 132.504 115.495 133.035 116.147 134.125 116.436L 136.176 116.991C 137.219 117.268 137.695 117.694 137.695 118.354C 137.695 118.803 137.461 119.268 137.109 119.522C 136.781 119.752 136.262 119.877 135.594 119.877C 134.699 119.877 134.09 119.655 133.691 119.151C 133.387 118.772 133.25 118.354 133.301 117.819L 132.301 117.819C 132.309 118.596 132.457 119.104 132.785 119.573C 133.352 120.362 134.305 120.78 135.562 120.78C 136.547 120.78 137.352 120.553 137.887 120.135C 138.441 119.69 138.793 118.94 138.793 118.213C 138.793 117.178 138.156 116.42 137.035 116.108L 134.961 115.545C 133.965 115.272 133.602 114.948 133.602 114.303C 133.602 113.452 134.336 112.885 135.441 112.885C 136.75 112.885 137.484 113.491 137.496 114.573L 138.5 114.58z"/>
<path style="stroke:none; fill-rule:evenodd; fill:#000000" d="M 177.898 112.991L 180.602 112.991L 180.602 112.092L 174.039 112.092L 174.039 112.991L 176.797 112.991L 176.797 120.491L 177.895 120.491L 177.898 112.991z"/>
<path style="stroke:none; fill-rule:evenodd; fill:#000000" d="M 90.824 16.491L 88.105 25.119L 88.734 25.119L 91.453 16.491L 90.824 16.491z"/>
<path style="stroke:none; fill-rule:evenodd; fill:#000000" d="M 97 24.924L 97 18.893L 96 18.893L 96 22.338C 96 23.577 95.355 24.389 94.352 24.389C 93.59 24.389 93.105 23.928 93.105 23.198L 93.105 18.893L 92.105 18.893L 92.105 23.545C 92.105 24.545 92.844 25.19 94.008 25.19C 94.883 25.19 95.441 24.881 96 24.088L 96 24.928L 97 24.924z"/>
<path style="stroke:none; fill-rule:evenodd; fill:#000000" d="M 100.426 16.491L 97.707 25.119L 98.336 25.119L 101.055 16.491L 100.426 16.491z"/>
<path style="stroke:none; fill-rule:evenodd; fill:#000000" d="M 131.523 16.491L 128.805 25.119L 129.434 25.119L 132.152 16.491L 131.523 16.491z"/>
<path style="stroke:none; fill-rule:evenodd; fill:#000000" d="M 137.023 20.553C 137.012 19.366 136.227 18.694 134.828 18.694C 133.418 18.694 132.504 19.42 132.504 20.541C 132.504 21.487 132.992 21.936 134.441 22.284L 135.352 22.502C 136.027 22.662 136.297 22.905 136.297 23.342C 136.297 23.905 135.73 24.287 134.887 24.287C 134.367 24.287 133.93 24.139 133.688 23.881C 133.539 23.709 133.469 23.534 133.41 23.1L 132.395 23.1C 132.438 24.51 133.223 25.186 134.805 25.186C 136.328 25.186 137.297 24.436 137.297 23.272C 137.297 22.373 136.785 21.877 135.57 21.588L 134.637 21.369C 133.844 21.186 133.504 20.932 133.504 20.506C 133.504 19.955 134 19.596 134.789 19.596C 135.562 19.596 135.98 19.924 136.004 20.557L 137.023 20.553z"/>
<path style="stroke:none; fill-rule:evenodd; fill:#000000" d="M 140.426 16.491L 137.707 25.119L 138.336 25.119L 141.055 16.491L 140.426 16.491z"/>
<path style="stroke:none; fill-rule:evenodd; fill:#000000" d="M 175.023 16.491L 172.305 25.119L 172.934 25.119L 175.652 16.491L 175.023 16.491z"/>
<path style="stroke:none; fill-rule:evenodd; fill:#000000" d="M 178.5 18.889L 177.602 18.889L 177.602 17.229L 176.602 17.229L 176.602 18.889L 175.703 18.889L 175.703 19.686L 176.602 19.686L 176.602 24.233C 176.602 24.838 177.004 25.182 177.734 25.182C 177.957 25.182 178.184 25.159 178.496 25.1L 178.496 24.264C 178.383 24.35 178.246 24.381 178.078 24.381C 177.703 24.381 177.598 24.268 177.598 23.838L 177.598 19.686L 178.496 19.686L 178.5 18.889z"/>
<path style="stroke:none; fill-rule:evenodd; fill:#000000" d="M 181.426 16.491L 178.707 25.119L 179.336 25.119L 182.055 16.491L 181.426 16.491z"/>
<path style="stroke:none; fill-rule:evenodd; fill:#000000" d="M 55.3672 120.491L 57.6953 113.483L 57.6953 120.491L 58.6953 120.491L 58.6953 112.092L 57.2305 112.092L 54.8203 119.412L 52.3672 112.092L 50.9023 112.092L 50.9023 120.491L 51.9023 120.491L 51.9023 113.483L 54.2539 120.491L 55.3672 120.491z"/>
<path style="stroke:none; fill-rule:evenodd; fill:#000000" d="M 49.7266 16.491L 47.0078 25.119L 47.6367 25.119L 50.3555 16.491L 49.7266 16.491z"/>
<path style="stroke:none; fill-rule:evenodd; fill:#000000" d="M 51.0977 18.866L 51.0977 24.889L 52.0977 24.889L 52.0977 21.08C 52.0977 20.201 52.7227 19.494 53.4922 19.494C 54.1953 19.494 54.5938 19.932 54.5938 20.709L 54.5938 24.889L 55.5938 24.889L 55.5938 21.08C 55.5938 20.201 56.2188 19.494 56.9883 19.494C 57.6797 19.494 58.0898 19.944 58.0898 20.709L 58.0898 24.889L 59.0898 24.889L 59.0898 20.369C 59.0898 19.291 58.4688 18.69 57.3359 18.69C 56.5312 18.69 56.043 18.932 55.4805 19.623C 55.125 18.971 54.6406 18.69 53.8555 18.69C 53.0508 18.69 52.5195 18.987 52 19.713L 52 18.866L 51.0977 18.866z"/>
<path style="stroke:none; fill-rule:evenodd; fill:#000000" d="M 62.5234 16.491L 59.8047 25.119L 60.4336 25.119L 63.1523 16.491L 62.5234 16.491z"/>
<path style="stroke:#000000; stroke-width:1.91229; fill:none" d="M 247.984 117.112C 247.984 110.776 242.848 105.639 236.512 105.639C 230.176 105.639 225.039 110.776 225.039 117.112C 225.039 123.448 230.176 128.584 236.512 128.584C 242.848 128.584 247.984 123.448 247.984 117.112"/>
<path style="stroke:#000000; stroke-width:1.91229; fill:none" d="M 288.145 117.112C 288.145 110.776 283.008 105.639 276.672 105.639C 270.336 105.639 265.199 110.776 265.199 117.112C 265.199 123.448 270.336 128.584 276.672 128.584C 283.008 128.584 288.145 123.448 288.145 117.112"/>
<path style="stroke:#000000; stroke-width:1.91229; fill:none" d="M 247.984 21.494C 247.984 15.159 242.848 10.022 236.512 10.022C 230.176 10.022 225.039 15.159 225.039 21.494C 225.039 27.83 230.176 32.967 236.512 32.967C 242.848 32.967 247.984 27.83 247.984 21.494"/>
<path style="stroke:#000000; stroke-width:1.91229; fill:none" d="M 288.145 21.494C 288.145 15.159 283.008 10.022 276.672 10.022C 270.336 10.022 265.199 15.159 265.199 21.494C 265.199 27.83 270.336 32.967 276.672 32.967C 283.008 32.967 288.145 27.83 288.145 21.494"/>
<path style="stroke:#000000; stroke-width:1.91229; fill:none" d="M 247.984 69.303C 247.984 62.967 242.848 57.83 236.512 57.83C 230.176 57.83 225.039 62.967 225.039 69.303C 225.039 75.639 230.176 80.7757 236.512 80.7757C 242.848 80.7757 247.984 75.639 247.984 69.303"/>
<path style="stroke:#000000; stroke-width:1.91229; fill:none" d="M 288.145 69.303C 288.145 62.967 283.008 57.83 276.672 57.83C 270.336 57.83 265.199 62.967 265.199 69.303C 265.199 75.639 270.336 80.7757 276.672 80.7757C 283.008 80.7757 288.145 75.639 288.145 69.303"/>
<path style="stroke:#000000; stroke-width:1.91229; fill:none" d="M 236.512 105.635L 236.512 80.7757"/>
<path style="stroke:#000000; stroke-width:1.91229; fill:none" d="M 234.602 88.4242L 236.512 80.7757L 238.422 88.4242"/>
<path style="stroke:#000000; stroke-width:1.91229; fill:none" d="M 276.672 105.635L 276.672 80.7757"/>
<path style="stroke:#000000; stroke-width:1.91229; fill:none" d="M 274.758 88.4242L 276.668 80.7757L 278.578 88.4242"/>
<path style="stroke:#000000; stroke-width:1.91229; fill:none" d="M 328.301 117.112C 328.301 110.776 323.164 105.639 316.828 105.639C 310.492 105.639 305.355 110.776 305.355 117.112C 305.355 123.448 310.492 128.584 316.828 128.584C 323.164 128.584 328.301 123.448 328.301 117.112"/>
<path style="stroke:#000000; stroke-width:1.91229; fill:none" d="M 328.301 21.494C 328.301 15.159 323.164 10.022 316.828 10.022C 310.492 10.022 305.355 15.159 305.355 21.494C 305.355 27.83 310.492 32.967 316.828 32.967C 323.164 32.967 328.301 27.83 328.301 21.494"/>
<path style="stroke:#000000; stroke-width:1.91229; fill:none" d="M 328.301 69.303C 328.301 62.967 323.164 57.83 316.828 57.83C 310.492 57.83 305.355 62.967 305.355 69.303C 305.355 75.639 310.492 80.7757 316.828 80.7757C 323.164 80.7757 328.301 75.639 328.301 69.303"/>
<path style="stroke:#000000; stroke-width:1.91229; fill:none" d="M 316.828 105.635L 316.828 80.7757"/>
<path style="stroke:#000000; stroke-width:1.91229; fill:none" d="M 314.918 88.4242L 316.828 80.7757L 318.738 88.4242"/>
<path style="stroke:#000000; stroke-width:1.91229; fill:none" d="M 316.828 57.854L 316.828 32.994"/>
<path style="stroke:#000000; stroke-width:1.91229; fill:none" d="M 314.918 40.643L 316.828 32.994L 318.738 40.643"/>
<path style="stroke:#000000; stroke-width:1.91229; fill:none" d="M 276.672 57.83L 276.672 32.971"/>
<path style="stroke:#000000; stroke-width:1.91229; fill:none" d="M 274.758 40.619L 276.668 32.971L 278.578 40.619"/>
<path style="stroke:#000000; stroke-width:1.91229; fill:none" d="M 236.512 57.83L 236.512 32.971"/>
<path style="stroke:#000000; stroke-width:1.91229; fill:none" d="M 234.602 40.619L 236.512 32.971L 238.422 40.619"/>
<path style="stroke:#000000; stroke-width:1.91229; fill:none" d="M 370.391 117.112C 370.391 110.776 365.254 105.639 358.918 105.639C 352.582 105.639 347.445 110.776 347.445 117.112C 347.445 123.448 352.582 128.584 358.918 128.584C 365.254 128.584 370.391 123.448 370.391 117.112"/>
<path style="stroke:#000000; stroke-width:1.91229; fill:none" d="M 370.391 21.494C 370.391 15.159 365.254 10.022 358.918 10.022C 352.582 10.022 347.445 15.159 347.445 21.494C 347.445 27.83 352.582 32.967 358.918 32.967C 365.254 32.967 370.391 27.83 370.391 21.494"/>
<path style="stroke:#000000; stroke-width:1.91229; fill:none" d="M 370.391 69.303C 370.391 62.967 365.254 57.83 358.918 57.83C 352.582 57.83 347.445 62.967 347.445 69.303C 347.445 75.639 352.582 80.7757 358.918 80.7757C 365.254 80.7757 370.391 75.639 370.391 69.303"/>
<path style="stroke:#000000; stroke-width:1.91229; fill:none" d="M 358.918 105.635L 358.918 80.7757"/>
<path style="stroke:#000000; stroke-width:1.91229; fill:none" d="M 357.004 88.4242L 358.914 80.7757L 360.824 88.4242"/>
<path style="stroke:#000000; stroke-width:1.91229; fill:none" d="M 358.918 57.854L 358.918 32.994"/>
<path style="stroke:#000000; stroke-width:1.91229; fill:none" d="M 357.004 40.643L 358.914 32.994L 360.824 40.643"/>
<path style="stroke:none; fill-rule:evenodd; fill:#000000" d="M 279.098 112.092L 279.098 118.053C 279.098 119.194 278.301 119.889 276.988 119.889C 276.383 119.889 275.891 119.741 275.496 119.448C 275.094 119.123 274.902 118.694 274.902 118.053L 274.902 112.092L 273.805 112.092L 273.805 118.014C 273.805 119.725 275.016 120.787 276.992 120.787C 278.945 120.787 280.203 119.702 280.203 118.014L 280.203 112.092L 279.098 112.092z"/>
<path style="stroke:none; fill-rule:evenodd; fill:#000000" d="M 320.297 114.58C 320.285 112.944 319.168 111.991 317.254 111.991C 315.43 111.991 314.301 112.94 314.301 114.467C 314.301 115.495 314.832 116.147 315.922 116.436L 317.973 116.991C 319.016 117.268 319.492 117.694 319.492 118.354C 319.492 118.803 319.258 119.268 318.906 119.522C 318.578 119.752 318.059 119.877 317.391 119.877C 316.496 119.877 315.887 119.655 315.488 119.151C 315.184 118.772 315.047 118.354 315.098 117.819L 314.098 117.819C 314.105 118.596 314.254 119.104 314.582 119.573C 315.148 120.362 316.102 120.78 317.359 120.78C 318.344 120.78 319.148 120.553 319.684 120.135C 320.238 119.69 320.59 118.94 320.59 118.213C 320.59 117.178 319.953 116.42 318.832 116.108L 316.758 115.545C 315.762 115.272 315.398 114.948 315.398 114.303C 315.398 113.452 316.133 112.885 317.238 112.885C 318.547 112.885 319.281 113.491 319.293 114.573L 320.297 114.58z"/>
<path style="stroke:none; fill-rule:evenodd; fill:#000000" d="M 359.699 112.991L 362.402 112.991L 362.402 112.092L 355.84 112.092L 355.84 112.991L 358.598 112.991L 358.598 120.491L 359.695 120.491L 359.699 112.991z"/>
<path style="stroke:none; fill-rule:evenodd; fill:#000000" d="M 272.625 16.491L 269.906 25.119L 270.535 25.119L 273.254 16.491L 272.625 16.491z"/>
<path style="stroke:none; fill-rule:evenodd; fill:#000000" d="M 278.797 24.924L 278.797 18.893L 277.797 18.893L 277.797 22.338C 277.797 23.577 277.152 24.389 276.148 24.389C 275.387 24.389 274.902 23.928 274.902 23.198L 274.902 18.893L 273.902 18.893L 273.902 23.545C 273.902 24.545 274.641 25.19 275.805 25.19C 276.68 25.19 277.238 24.881 277.797 24.088L 277.797 24.928L 278.797 24.924z"/>
<path style="stroke:none; fill-rule:evenodd; fill:#000000" d="M 282.125 16.491L 279.406 25.119L 280.035 25.119L 282.754 16.491L 282.125 16.491z"/>
<path style="stroke:none; fill-rule:evenodd; fill:#000000" d="M 313.227 16.491L 310.508 25.119L 311.137 25.119L 313.855 16.491L 313.227 16.491z"/>
<path style="stroke:none; fill-rule:evenodd; fill:#000000" d="M 318.824 20.553C 318.812 19.366 318.027 18.694 316.629 18.694C 315.219 18.694 314.305 19.42 314.305 20.541C 314.305 21.487 314.793 21.936 316.242 22.284L 317.152 22.502C 317.828 22.662 318.098 22.905 318.098 23.342C 318.098 23.905 317.531 24.287 316.688 24.287C 316.168 24.287 315.73 24.139 315.488 23.881C 315.34 23.709 315.27 23.534 315.211 23.1L 314.195 23.1C 314.238 24.51 315.023 25.186 316.605 25.186C 318.129 25.186 319.098 24.436 319.098 23.272C 319.098 22.373 318.586 21.877 317.371 21.588L 316.438 21.369C 315.645 21.186 315.305 20.932 315.305 20.506C 315.305 19.955 315.801 19.596 316.59 19.596C 317.363 19.596 317.781 19.924 317.805 20.557L 318.824 20.553z"/>
<path style="stroke:none; fill-rule:evenodd; fill:#000000" d="M 322.125 16.491L 319.406 25.119L 320.035 25.119L 322.754 16.491L 322.125 16.491z"/>
<path style="stroke:none; fill-rule:evenodd; fill:#000000" d="M 356.727 16.491L 354.008 25.119L 354.637 25.119L 357.355 16.491L 356.727 16.491z"/>
<path style="stroke:none; fill-rule:evenodd; fill:#000000" d="M 360.199 18.889L 359.301 18.889L 359.301 17.229L 358.301 17.229L 358.301 18.889L 357.402 18.889L 357.402 19.686L 358.301 19.686L 358.301 24.233C 358.301 24.838 358.703 25.182 359.434 25.182C 359.656 25.182 359.883 25.159 360.195 25.1L 360.195 24.264C 360.082 24.35 359.945 24.381 359.777 24.381C 359.402 24.381 359.297 24.268 359.297 23.838L 359.297 19.686L 360.195 19.686L 360.199 18.889z"/>
<path style="stroke:none; fill-rule:evenodd; fill:#000000" d="M 363.125 16.491L 360.406 25.119L 361.035 25.119L 363.754 16.491L 363.125 16.491z"/>
<path style="stroke:none; fill-rule:evenodd; fill:#000000" d="M 237.066 120.491L 239.395 113.483L 239.395 120.491L 240.395 120.491L 240.395 112.092L 238.93 112.092L 236.52 119.412L 234.066 112.092L 232.602 112.092L 232.602 120.491L 233.602 120.491L 233.602 113.483L 235.953 120.491L 237.066 120.491z"/>
<path style="stroke:none; fill-rule:evenodd; fill:#000000" d="M 231.523 16.491L 228.805 25.119L 229.434 25.119L 232.152 16.491L 231.523 16.491z"/>
<path style="stroke:none; fill-rule:evenodd; fill:#000000" d="M 232.898 18.866L 232.898 24.889L 233.898 24.889L 233.898 21.08C 233.898 20.201 234.523 19.494 235.293 19.494C 235.996 19.494 236.395 19.932 236.395 20.709L 236.395 24.889L 237.395 24.889L 237.395 21.08C 237.395 20.201 238.02 19.494 238.789 19.494C 239.48 19.494 239.891 19.944 239.891 20.709L 239.891 24.889L 240.891 24.889L 240.891 20.369C 240.891 19.291 240.27 18.69 239.137 18.69C 238.332 18.69 237.844 18.932 237.281 19.623C 236.926 18.971 236.441 18.69 235.656 18.69C 234.852 18.69 234.32 18.987 233.801 19.713L 233.801 18.866L 232.898 18.866z"/>
<path style="stroke:none; fill-rule:evenodd; fill:#000000" d="M 244.227 16.491L 241.508 25.119L 242.137 25.119L 244.855 16.491L 244.227 16.491z"/>
<path style="stroke:none; fill-rule:evenodd; fill:#000000" d="M 229.398 67.905L 229.398 71.889L 230.098 71.889L 230.098 69.42C 230.098 68.85 230.496 68.393 230.992 68.393C 231.441 68.393 231.695 68.678 231.695 69.178L 231.695 71.889L 232.395 71.889L 232.395 69.42C 232.395 68.85 232.816 68.393 233.344 68.393C 233.812 68.393 234.094 68.686 234.094 69.178L 234.094 71.889L 234.793 71.889L 234.793 68.901C 234.793 68.186 234.371 67.791 233.609 67.791C 233.066 67.791 232.738 67.944 232.355 68.377C 232.117 67.967 231.789 67.791 231.258 67.791C 230.715 67.791 230.355 67.987 230.004 68.467L 230.004 67.905L 229.398 67.905z"/>
<path style="stroke:none; fill-rule:evenodd; fill:#000000" d="M 238.898 71.912L 238.898 67.893L 238.199 67.893L 238.199 70.147C 238.199 70.955 237.801 71.491 237.176 71.491C 236.703 71.491 236.402 71.19 236.402 70.709L 236.402 67.893L 235.703 67.893L 235.703 70.994C 235.703 71.662 236.195 72.092 236.973 72.092C 237.555 72.092 237.926 71.889 238.301 71.358L 238.301 71.916L 238.898 71.912z"/>
<path style="stroke:none; fill-rule:evenodd; fill:#000000" d="M 242.848 68.998C 242.84 68.229 242.312 67.791 241.367 67.791C 240.418 67.791 239.801 68.272 239.801 69.01C 239.801 69.635 240.121 69.932 241.074 70.159L 241.672 70.303C 242.117 70.409 242.293 70.569 242.293 70.858C 242.293 71.229 241.926 71.483 241.379 71.483C 241.043 71.483 240.758 71.385 240.602 71.213C 240.504 71.1 240.461 70.983 240.422 70.694L 239.762 70.694C 239.789 71.635 240.309 72.084 241.352 72.084C 242.355 72.084 242.996 71.592 242.996 70.819C 242.996 70.225 242.66 69.897 241.859 69.705L 241.246 69.561C 240.727 69.44 240.504 69.272 240.504 68.991C 240.504 68.627 240.832 68.389 241.359 68.389C 241.875 68.389 242.152 68.596 242.168 68.994L 242.848 68.998z"/>
<path style="stroke:none; fill-rule:evenodd; fill:#000000" d="M 245.199 67.889L 244.602 67.889L 244.602 66.78L 243.902 66.78L 243.902 67.889L 243.402 67.889L 243.402 68.389L 243.902 68.389L 243.902 71.448C 243.902 71.854 244.176 72.088 244.676 72.088C 244.828 72.088 244.98 72.073 245.195 72.034L 245.195 71.479C 245.121 71.487 245.027 71.491 244.918 71.491C 244.668 71.491 244.598 71.416 244.598 71.135L 244.598 68.397L 245.195 68.397L 245.199 67.889z"/>
<path style="stroke:none; fill-rule:evenodd; fill:#000000" d="M 269.898 66.291L 269.898 71.889L 270.496 71.889L 270.496 71.377C 270.801 71.858 271.203 72.088 271.758 72.088C 272.809 72.088 273.492 71.225 273.492 69.897C 273.492 68.6 272.848 67.795 271.812 67.795C 271.273 67.795 270.891 67.991 270.598 68.428L 270.598 66.295L 269.898 66.291zM 271.664 68.366C 272.375 68.366 272.832 68.983 272.832 69.94C 272.832 70.846 272.359 71.467 271.664 71.467C 270.992 71.467 270.551 70.858 270.551 69.916C 270.551 68.979 270.992 68.366 271.664 68.366z"/>
<path style="stroke:none; fill-rule:evenodd; fill:#000000" d="M 277.5 71.912L 277.5 67.893L 276.801 67.893L 276.801 70.147C 276.801 70.955 276.402 71.491 275.777 71.491C 275.305 71.491 275.004 71.19 275.004 70.709L 275.004 67.893L 274.305 67.893L 274.305 70.994C 274.305 71.662 274.797 72.092 275.574 72.092C 276.156 72.092 276.527 71.889 276.902 71.358L 276.902 71.916L 277.5 71.912z"/>
<path style="stroke:none; fill-rule:evenodd; fill:#000000" d="M 281.348 68.998C 281.34 68.229 280.812 67.791 279.867 67.791C 278.918 67.791 278.301 68.272 278.301 69.01C 278.301 69.635 278.621 69.932 279.574 70.159L 280.172 70.303C 280.617 70.409 280.793 70.569 280.793 70.858C 280.793 71.229 280.426 71.483 279.879 71.483C 279.543 71.483 279.258 71.385 279.102 71.213C 279.004 71.1 278.961 70.983 278.922 70.694L 278.262 70.694C 278.289 71.635 278.809 72.084 279.852 72.084C 280.855 72.084 281.496 71.592 281.496 70.819C 281.496 70.225 281.16 69.897 280.359 69.705L 279.746 69.561C 279.227 69.44 279.004 69.272 279.004 68.991C 279.004 68.627 279.332 68.389 279.859 68.389C 280.375 68.389 280.652 68.596 280.668 68.994L 281.348 68.998z"/>
<path style="stroke:none; fill-rule:evenodd; fill:#000000" d="M 283.699 67.889L 283.102 67.889L 283.102 66.78L 282.402 66.78L 282.402 67.889L 281.902 67.889L 281.902 68.389L 282.402 68.389L 282.402 71.448C 282.402 71.854 282.676 72.088 283.176 72.088C 283.328 72.088 283.48 72.073 283.695 72.034L 283.695 71.479C 283.621 71.487 283.527 71.491 283.418 71.491C 283.168 71.491 283.098 71.416 283.098 71.135L 283.098 68.397L 283.695 68.397L 283.699 67.889z"/>
<path style="stroke:none; fill-rule:evenodd; fill:#000000" d="M 312.797 67.889L 312.797 68.459C 312.48 68.002 312.094 67.787 311.586 67.787C 310.582 67.787 309.902 68.674 309.902 69.975C 309.902 70.631 310.078 71.166 310.41 71.549C 310.711 71.885 311.141 72.084 311.566 72.084C 312.074 72.084 312.43 71.866 312.793 71.342L 312.793 71.557C 312.793 72.119 312.727 72.463 312.566 72.694C 312.398 72.936 312.07 73.08 311.676 73.08C 311.387 73.08 311.125 72.998 310.949 72.846C 310.805 72.721 310.746 72.604 310.707 72.342L 310.059 72.342C 310.125 73.119 310.707 73.58 311.637 73.58C 312.223 73.58 312.73 73.389 312.988 73.069C 313.289 72.701 313.402 72.194 313.402 71.248L 313.402 67.885L 312.797 67.889zM 311.703 68.389C 312.387 68.389 312.793 68.963 312.793 69.959C 312.793 70.909 312.383 71.483 311.711 71.483C 311.02 71.483 310.598 70.901 310.598 69.936C 310.598 68.983 311.023 68.389 311.703 68.389z"/>
<path style="stroke:none; fill-rule:evenodd; fill:#000000" d="M 317.598 71.912L 317.598 67.893L 316.898 67.893L 316.898 70.147C 316.898 70.955 316.5 71.491 315.875 71.491C 315.402 71.491 315.102 71.19 315.102 70.709L 315.102 67.893L 314.402 67.893L 314.402 70.994C 314.402 71.662 314.895 72.092 315.672 72.092C 316.254 72.092 316.625 71.889 317 71.358L 317 71.916L 317.598 71.912z"/>
<path style="stroke:none; fill-rule:evenodd; fill:#000000" d="M 321.547 68.998C 321.539 68.229 321.012 67.791 320.066 67.791C 319.117 67.791 318.5 68.272 318.5 69.01C 318.5 69.635 318.82 69.932 319.773 70.159L 320.371 70.303C 320.816 70.409 320.992 70.569 320.992 70.858C 320.992 71.229 320.625 71.483 320.078 71.483C 319.742 71.483 319.457 71.385 319.301 71.213C 319.203 71.1 319.16 70.983 319.121 70.694L 318.461 70.694C 318.488 71.635 319.008 72.084 320.051 72.084C 321.055 72.084 321.695 71.592 321.695 70.819C 321.695 70.225 321.359 69.897 320.559 69.705L 319.945 69.561C 319.426 69.44 319.203 69.272 319.203 68.991C 319.203 68.627 319.531 68.389 320.059 68.389C 320.574 68.389 320.852 68.596 320.867 68.994L 321.547 68.998z"/>
<path style="stroke:none; fill-rule:evenodd; fill:#000000" d="M 323.898 67.889L 323.301 67.889L 323.301 66.78L 322.602 66.78L 322.602 67.889L 322.102 67.889L 322.102 68.389L 322.602 68.389L 322.602 71.448C 322.602 71.854 322.875 72.088 323.375 72.088C 323.527 72.088 323.68 72.073 323.895 72.034L 323.895 71.479C 323.82 71.487 323.727 71.491 323.617 71.491C 323.367 71.491 323.297 71.416 323.297 71.135L 323.297 68.397L 323.895 68.397L 323.898 67.889z"/>
<path style="stroke:none; fill-rule:evenodd; fill:#000000" d="M 349.898 67.905L 349.898 71.889L 350.598 71.889L 350.598 69.721C 350.598 68.92 351.02 68.393 351.676 68.393C 352.176 68.393 352.496 68.694 352.496 69.166L 352.496 71.889L 353.195 71.889L 353.195 68.877C 353.195 68.217 352.68 67.791 351.879 67.791C 351.262 67.791 350.863 68.018 350.5 68.573L 350.5 67.905L 349.898 67.905z"/>
<path style="stroke:none; fill-rule:evenodd; fill:#000000" d="M 357.297 71.912L 357.297 67.893L 356.598 67.893L 356.598 70.147C 356.598 70.955 356.199 71.491 355.574 71.491C 355.102 71.491 354.801 71.19 354.801 70.709L 354.801 67.893L 354.102 67.893L 354.102 70.994C 354.102 71.662 354.594 72.092 355.371 72.092C 355.953 72.092 356.324 71.889 356.699 71.358L 356.699 71.916L 357.297 71.912z"/>
<path style="stroke:none; fill-rule:evenodd; fill:#000000" d="M 361.25 68.998C 361.242 68.229 360.715 67.791 359.77 67.791C 358.82 67.791 358.203 68.272 358.203 69.01C 358.203 69.635 358.523 69.932 359.477 70.159L 360.074 70.303C 360.52 70.409 360.695 70.569 360.695 70.858C 360.695 71.229 360.328 71.483 359.781 71.483C 359.445 71.483 359.16 71.385 359.004 71.213C 358.906 71.1 358.863 70.983 358.824 70.694L 358.164 70.694C 358.191 71.635 358.711 72.084 359.754 72.084C 360.758 72.084 361.398 71.592 361.398 70.819C 361.398 70.225 361.062 69.897 360.262 69.705L 359.648 69.561C 359.129 69.44 358.906 69.272 358.906 68.991C 358.906 68.627 359.234 68.389 359.762 68.389C 360.277 68.389 360.555 68.596 360.57 68.994L 361.25 68.998z"/>
<path style="stroke:none; fill-rule:evenodd; fill:#000000" d="M 363.598 67.889L 363 67.889L 363 66.78L 362.301 66.78L 362.301 67.889L 361.801 67.889L 361.801 68.389L 362.301 68.389L 362.301 71.448C 362.301 71.854 362.574 72.088 363.074 72.088C 363.227 72.088 363.379 72.073 363.594 72.034L 363.594 71.479C 363.52 71.487 363.426 71.491 363.316 71.491C 363.066 71.491 362.996 71.416 362.996 71.135L 362.996 68.397L 363.594 68.397L 363.598 67.889z"/>
<path style="stroke:none; fill-rule:evenodd; fill:#000000" d="M 366.297 70.369L 366.297 70.01C 366.297 69.674 366.383 69.541 366.914 69.057C 367.5 68.534 367.695 68.19 367.695 67.678C 367.695 66.78 367.062 66.201 366.07 66.201C 364.973 66.201 364.398 66.823 364.398 68.022L 365.098 68.022C 365.098 67.662 365.133 67.444 365.223 67.256C 365.359 66.967 365.656 66.803 366.047 66.803C 366.613 66.803 366.992 67.155 366.992 67.682C 366.992 68.034 366.82 68.334 366.406 68.698C 365.945 69.104 365.945 69.104 365.812 69.284C 365.652 69.498 365.594 69.674 365.594 69.951L 365.594 70.373L 366.297 70.369zM 366.297 71.092L 365.598 71.092L 365.598 71.889L 366.297 71.889L 366.297 71.092z"/>
<path style="stroke:#000000; stroke-width:1.91229; fill:none" d="M 276.73 105.6L 236.555 80.7288"/>
<path style="stroke:#000000; stroke-width:1.91229; fill:none" d="M 242.051 86.3773L 236.555 80.7288L 244.062 83.1273"/>
<path style="stroke:#000000; stroke-width:1.91229; fill:none" d="M 316.91 105.6L 236.555 80.7288"/>
<path style="stroke:#000000; stroke-width:1.91229; fill:none" d="M 243.293 84.8148L 236.555 80.7288L 244.426 81.1624"/>
<path style="stroke:#000000; stroke-width:1.91229; fill:none" d="M 359.004 105.6L 238.469 80.7288"/>
<path style="stroke:#000000; stroke-width:1.91229; fill:none" d="M 245.57 84.1468L 238.469 80.7288L 246.344 80.4046"/>
<path style="stroke:#000000; stroke-width:1.91229; fill:none" d="M 276.73 105.6L 316.906 80.7288"/>
<path style="stroke:#000000; stroke-width:1.91229; fill:none" d="M 309.402 83.1273L 316.91 80.7288L 311.414 86.3773"/>
<path style="stroke:#000000; stroke-width:1.91229; fill:none" d="M 276.73 105.6L 359 80.7288"/>
<path style="stroke:#000000; stroke-width:1.91229; fill:none" d="M 351.129 81.1117L 359.004 80.7288L 352.238 84.7718"/>
<path style="stroke:#000000; stroke-width:1.91229; fill:none" d="M 316.91 103.686L 360.914 80.7288"/>
<path style="stroke:#000000; stroke-width:1.91229; fill:none" d="M 353.254 82.5687L 360.918 80.7288L 355.023 85.9593"/>
<path style="stroke:#000000; stroke-width:1.91229; fill:none" d="M 316.91 105.6L 276.734 80.7288"/>
<path style="stroke:#000000; stroke-width:1.91229; fill:none" d="M 282.23 86.3773L 276.734 80.7288L 284.242 83.1273"/>
<path style="stroke:#000000; stroke-width:1.91229; fill:none" d="M 359.004 105.6L 316.914 80.7288"/>
<path style="stroke:#000000; stroke-width:1.91229; fill:none" d="M 322.523 86.264L 316.914 80.7288L 324.469 82.971"/>
<path style="stroke:none; fill-rule:evenodd; fill:#000000" d="M 224.699 134.092L 224.699 142.491L 225.598 142.491L 225.598 141.725C 226.051 142.448 226.656 142.791 227.492 142.791C 229.066 142.791 230.094 141.487 230.094 139.475C 230.094 137.51 229.117 136.295 227.543 136.295C 226.723 136.295 226.145 136.608 225.699 137.295L 225.699 134.096L 224.699 134.092zM 227.344 137.202C 228.41 137.202 229.098 138.127 229.098 139.565C 229.098 140.928 228.387 141.858 227.344 141.858C 226.336 141.858 225.672 140.94 225.672 139.53C 225.672 138.12 226.336 137.202 227.344 137.202z"/>
<path style="stroke:none; fill-rule:evenodd; fill:#000000" d="M 231.555 144.924C 232.684 143.416 233.395 141.323 233.395 139.518C 233.395 137.702 232.684 135.608 231.555 134.096L 230.934 134.096C 231.938 135.741 232.496 137.674 232.496 139.518C 232.496 141.346 231.938 143.291 230.934 144.924L 231.555 144.924z"/>
<path style="stroke:none; fill-rule:evenodd; fill:#000000" d="M 245.094 136.721C 244.758 134.889 243.695 133.995 241.848 133.995C 240.719 133.995 239.805 134.35 239.18 135.041C 238.418 135.87 238.004 137.065 238.004 138.424C 238.004 139.803 238.43 140.991 239.227 141.807C 239.871 142.475 240.703 142.784 241.801 142.784C 243.855 142.784 245.012 141.674 245.266 139.432L 244.16 139.432C 244.07 140.022 243.957 140.424 243.781 140.768C 243.438 141.479 242.727 141.877 241.828 141.877C 240.16 141.877 239.102 140.526 239.102 138.405C 239.102 136.225 240.113 134.881 241.734 134.881C 242.41 134.881 243.043 135.092 243.391 135.416C 243.699 135.709 243.871 136.069 244 136.702L 245.094 136.721z"/>
<path style="stroke:none; fill-rule:evenodd; fill:#000000" d="M 248.938 136.291C 247.234 136.291 246.203 137.506 246.203 139.541C 246.203 141.573 247.223 142.787 248.953 142.787C 250.656 142.787 251.703 141.577 251.703 139.588C 251.703 137.498 250.695 136.291 248.941 136.291L 248.938 136.291zM 248.949 137.19C 250.043 137.19 250.699 138.077 250.699 139.573C 250.699 140.987 250.023 141.885 248.949 141.885C 247.867 141.885 247.199 140.998 247.199 139.537C 247.199 138.088 247.863 137.19 248.949 137.19z"/>
<path style="stroke:none; fill-rule:evenodd; fill:#000000" d="M 252.898 136.463L 252.898 142.487L 253.898 142.487L 253.898 139.139C 253.898 137.901 254.523 137.088 255.488 137.088C 256.227 137.088 256.695 137.549 256.695 138.28L 256.695 142.483L 257.695 142.483L 257.695 137.928C 257.695 136.928 256.953 136.284 255.793 136.284C 254.898 136.284 254.328 136.627 253.801 137.467L 253.801 136.455L 252.898 136.463z"/>
<path style="stroke:none; fill-rule:evenodd; fill:#000000" d="M 259.297 136.491L 259.297 143.393C 259.297 143.991 259.105 144.186 258.52 144.186C 258.488 144.186 258.488 144.186 258.293 144.186L 258.293 144.952C 258.41 144.971 258.469 144.983 258.621 144.983C 259.723 144.983 260.297 144.549 260.297 143.737L 260.297 136.487L 259.297 136.491zM 260.297 134.092L 259.297 134.092L 259.297 135.291L 260.297 135.291L 260.297 134.092z"/>
<path style="stroke:none; fill-rule:evenodd; fill:#000000" d="M 266.699 142.526L 266.699 136.495L 265.699 136.495L 265.699 139.94C 265.699 141.178 265.055 141.991 264.051 141.991C 263.289 141.991 262.805 141.53 262.805 140.799L 262.805 136.495L 261.805 136.495L 261.805 141.147C 261.805 142.147 262.543 142.791 263.707 142.791C 264.582 142.791 265.141 142.483 265.699 141.69L 265.699 142.53L 266.699 142.526z"/>
<path style="stroke:none; fill-rule:evenodd; fill:#000000" d="M 268.199 136.463L 268.199 142.487L 269.199 142.487L 269.199 139.139C 269.199 137.901 269.824 137.088 270.789 137.088C 271.527 137.088 271.996 137.549 271.996 138.28L 271.996 142.483L 272.996 142.483L 272.996 137.928C 272.996 136.928 272.254 136.284 271.094 136.284C 270.199 136.284 269.629 136.627 269.102 137.467L 269.102 136.455L 268.199 136.463z"/>
<path style="stroke:none; fill-rule:evenodd; fill:#000000" d="M 279.203 138.498C 279.156 137.909 279.031 137.53 278.805 137.194C 278.398 136.631 277.68 136.295 276.852 136.295C 275.25 136.295 274.203 137.588 274.203 139.6C 274.203 141.553 275.227 142.787 276.84 142.787C 278.258 142.787 279.156 141.916 279.273 140.424L 278.324 140.424C 278.168 141.401 277.68 141.889 276.875 141.889C 275.832 141.889 275.207 141.026 275.207 139.6C 275.207 138.092 275.816 137.194 276.852 137.194C 277.645 137.194 278.145 137.662 278.254 138.498L 279.203 138.498z"/>
<path style="stroke:none; fill-rule:evenodd; fill:#000000" d="M 282.5 136.491L 281.602 136.491L 281.602 134.83L 280.602 134.83L 280.602 136.491L 279.703 136.491L 279.703 137.287L 280.602 137.287L 280.602 141.834C 280.602 142.44 281.004 142.784 281.734 142.784C 281.957 142.784 282.184 142.76 282.496 142.702L 282.496 141.866C 282.383 141.952 282.246 141.983 282.078 141.983C 281.703 141.983 281.598 141.87 281.598 141.44L 281.598 137.287L 282.496 137.287L 282.5 136.491z"/>
<path style="stroke:none; fill-rule:evenodd; fill:#000000" d="M 284.398 136.491L 283.398 136.491L 283.398 142.491L 284.398 142.491L 284.398 136.491zM 284.398 134.092L 283.398 134.092L 283.398 135.33L 284.398 135.33L 284.398 134.092z"/>
<path style="stroke:none; fill-rule:evenodd; fill:#000000" d="M 288.566 142.491L 290.871 136.491L 289.793 136.491L 288.098 141.354L 286.492 136.491L 285.414 136.491L 287.523 142.491L 288.566 142.491z"/>
<path style="stroke:none; fill-rule:evenodd; fill:#000000" d="M 296.898 139.791C 296.898 138.873 296.832 138.323 296.66 137.877C 296.273 136.893 295.359 136.295 294.242 136.295C 292.578 136.295 291.504 137.588 291.504 139.577C 291.504 141.565 292.539 142.787 294.211 142.787C 295.574 142.787 296.52 141.995 296.758 140.666L 295.805 140.666C 295.547 141.467 295.012 141.889 294.25 141.889C 293.648 141.889 293.141 141.612 292.82 141.096C 292.594 140.748 292.516 140.397 292.504 139.791L 296.898 139.791zM 292.477 139.026C 292.555 137.916 293.23 137.19 294.195 137.19C 295.133 137.19 295.855 137.967 295.855 138.955C 295.855 138.975 295.855 138.998 295.848 139.022L 292.477 139.026z"/>
<path style="stroke:none; fill-rule:evenodd; fill:#000000" d="M 301.398 136.463L 301.398 142.487L 302.398 142.487L 302.398 139.354C 302.398 138.491 302.609 137.924 303.059 137.592C 303.348 137.373 303.629 137.307 304.277 137.295L 304.277 136.33C 304.121 136.311 304.043 136.299 303.918 136.299C 303.309 136.299 302.844 136.666 302.301 137.565L 302.301 136.475L 301.398 136.463z"/>
<path style="stroke:none; fill-rule:evenodd; fill:#000000" d="M 310.297 139.791C 310.297 138.873 310.23 138.323 310.059 137.877C 309.672 136.893 308.758 136.295 307.641 136.295C 305.977 136.295 304.902 137.588 304.902 139.577C 304.902 141.565 305.938 142.787 307.609 142.787C 308.973 142.787 309.918 141.995 310.156 140.666L 309.203 140.666C 308.945 141.467 308.41 141.889 307.648 141.889C 307.047 141.889 306.539 141.612 306.219 141.096C 305.992 140.748 305.914 140.397 305.902 139.791L 310.297 139.791zM 305.879 139.026C 305.957 137.916 306.633 137.19 307.598 137.19C 308.535 137.19 309.258 137.967 309.258 138.955C 309.258 138.975 309.258 138.998 309.25 139.022L 305.879 139.026z"/>
<path style="stroke:none; fill-rule:evenodd; fill:#000000" d="M 311.398 144.991L 312.398 144.991L 312.398 141.889C 312.898 142.51 313.461 142.787 314.238 142.787C 315.781 142.787 316.797 141.53 316.797 139.6C 316.797 137.569 315.812 136.295 314.215 136.295C 313.402 136.295 312.746 136.662 312.301 137.373L 312.301 136.467L 311.402 136.467L 311.398 144.991zM 314.062 137.19C 315.109 137.19 315.793 138.127 315.793 139.573C 315.793 140.948 315.098 141.885 314.062 141.885C 313.059 141.885 312.398 140.959 312.398 139.537C 312.398 138.116 313.059 137.19 314.062 137.19z"/>
<path style="stroke:none; fill-rule:evenodd; fill:#000000" d="M 318 136.463L 318 142.487L 319 142.487L 319 139.354C 319 138.491 319.211 137.924 319.66 137.592C 319.949 137.373 320.23 137.307 320.879 137.295L 320.879 136.33C 320.723 136.311 320.645 136.299 320.52 136.299C 319.91 136.299 319.445 136.666 318.902 137.565L 318.902 136.475L 318 136.463z"/>
<path style="stroke:none; fill-rule:evenodd; fill:#000000" d="M 326.898 139.791C 326.898 138.873 326.832 138.323 326.66 137.877C 326.273 136.893 325.359 136.295 324.242 136.295C 322.578 136.295 321.504 137.588 321.504 139.577C 321.504 141.565 322.539 142.787 324.211 142.787C 325.574 142.787 326.52 141.995 326.758 140.666L 325.805 140.666C 325.547 141.467 325.012 141.889 324.25 141.889C 323.648 141.889 323.141 141.612 322.82 141.096C 322.594 140.748 322.516 140.397 322.504 139.791L 326.898 139.791zM 322.477 139.026C 322.555 137.916 323.23 137.19 324.195 137.19C 325.133 137.19 325.855 137.967 325.855 138.955C 325.855 138.975 325.855 138.998 325.848 139.022L 322.477 139.026z"/>
<path style="stroke:none; fill-rule:evenodd; fill:#000000" d="M 332.422 138.155C 332.41 136.967 331.625 136.295 330.227 136.295C 328.816 136.295 327.902 137.022 327.902 138.143C 327.902 139.088 328.391 139.537 329.84 139.885L 330.75 140.104C 331.426 140.264 331.695 140.506 331.695 140.944C 331.695 141.506 331.129 141.889 330.285 141.889C 329.766 141.889 329.328 141.741 329.086 141.483C 328.938 141.311 328.867 141.135 328.809 140.702L 327.793 140.702C 327.836 142.112 328.621 142.787 330.203 142.787C 331.727 142.787 332.695 142.037 332.695 140.873C 332.695 139.975 332.184 139.479 330.969 139.19L 330.035 138.971C 329.242 138.787 328.902 138.534 328.902 138.108C 328.902 137.557 329.398 137.198 330.188 137.198C 330.961 137.198 331.379 137.526 331.402 138.159L 332.422 138.155z"/>
<path style="stroke:none; fill-rule:evenodd; fill:#000000" d="M 339 139.791C 339 138.873 338.934 138.323 338.762 137.877C 338.375 136.893 337.461 136.295 336.344 136.295C 334.68 136.295 333.605 137.588 333.605 139.577C 333.605 141.565 334.641 142.787 336.312 142.787C 337.676 142.787 338.621 141.995 338.859 140.666L 337.906 140.666C 337.648 141.467 337.113 141.889 336.352 141.889C 335.75 141.889 335.242 141.612 334.922 141.096C 334.695 140.748 334.617 140.397 334.605 139.791L 339 139.791zM 334.578 139.026C 334.656 137.916 335.332 137.19 336.297 137.19C 337.234 137.19 337.957 137.967 337.957 138.955C 337.957 138.975 337.957 138.998 337.949 139.022L 334.578 139.026z"/>
<path style="stroke:none; fill-rule:evenodd; fill:#000000" d="M 340.297 136.463L 340.297 142.487L 341.297 142.487L 341.297 139.139C 341.297 137.901 341.922 137.088 342.887 137.088C 343.625 137.088 344.094 137.549 344.094 138.28L 344.094 142.483L 345.094 142.483L 345.094 137.928C 345.094 136.928 344.352 136.284 343.191 136.284C 342.297 136.284 341.727 136.627 341.199 137.467L 341.199 136.455L 340.297 136.463z"/>
<path style="stroke:none; fill-rule:evenodd; fill:#000000" d="M 348.797 136.491L 347.898 136.491L 347.898 134.83L 346.898 134.83L 346.898 136.491L 346 136.491L 346 137.287L 346.898 137.287L 346.898 141.834C 346.898 142.44 347.301 142.784 348.031 142.784C 348.254 142.784 348.48 142.76 348.793 142.702L 348.793 141.866C 348.68 141.952 348.543 141.983 348.375 141.983C 348 141.983 347.895 141.87 347.895 141.44L 347.895 137.287L 348.793 137.287L 348.797 136.491z"/>
<path style="stroke:none; fill-rule:evenodd; fill:#000000" d="M 355.234 141.928C 355.133 141.987 355.086 141.987 355.023 141.987C 354.684 141.987 354.5 141.815 354.5 141.514L 354.5 137.948C 354.5 136.873 353.723 136.291 352.25 136.291C 351.383 136.291 350.664 136.545 350.262 136.995C 349.988 137.303 349.875 137.651 349.852 138.252L 350.797 138.252C 350.875 137.522 351.301 137.19 352.184 137.19C 353.027 137.19 353.5 137.51 353.5 138.088L 353.5 138.342C 353.5 138.745 353.266 138.916 352.523 139.01C 351.199 139.182 350.996 139.229 350.637 139.377C 349.953 139.662 349.605 140.205 349.605 140.991C 349.605 142.084 350.359 142.776 351.57 142.776C 352.324 142.776 352.93 142.502 353.605 141.858C 353.672 142.491 353.969 142.776 354.586 142.776C 354.777 142.776 354.926 142.752 355.234 142.67L 355.234 141.928zM 353.5 140.631C 353.5 140.959 353.41 141.162 353.133 141.432C 352.754 141.795 352.297 141.987 351.75 141.987C 351.027 141.987 350.605 141.623 350.605 140.995C 350.605 140.346 351.016 140.014 352.008 139.862C 352.988 139.721 353.188 139.674 353.5 139.522L 353.5 140.631z"/>
<path style="stroke:none; fill-rule:evenodd; fill:#000000" d="M 358.297 136.491L 357.398 136.491L 357.398 134.83L 356.398 134.83L 356.398 136.491L 355.5 136.491L 355.5 137.287L 356.398 137.287L 356.398 141.834C 356.398 142.44 356.801 142.784 357.531 142.784C 357.754 142.784 357.98 142.76 358.293 142.702L 358.293 141.866C 358.18 141.952 358.043 141.983 357.875 141.983C 357.5 141.983 357.395 141.87 357.395 141.44L 357.395 137.287L 358.293 137.287L 358.297 136.491z"/>
<path style="stroke:none; fill-rule:evenodd; fill:#000000" d="M 360.297 136.491L 359.297 136.491L 359.297 142.491L 360.297 142.491L 360.297 136.491zM 360.297 134.092L 359.297 134.092L 359.297 135.33L 360.297 135.33L 360.297 134.092z"/>
<path style="stroke:none; fill-rule:evenodd; fill:#000000" d="M 364.336 136.291C 362.633 136.291 361.602 137.506 361.602 139.541C 361.602 141.573 362.621 142.787 364.352 142.787C 366.055 142.787 367.102 141.577 367.102 139.588C 367.102 137.498 366.094 136.291 364.34 136.291L 364.336 136.291zM 364.348 137.19C 365.441 137.19 366.098 138.077 366.098 139.573C 366.098 140.987 365.422 141.885 364.348 141.885C 363.266 141.885 362.598 140.998 362.598 139.537C 362.598 138.088 363.262 137.19 364.348 137.19z"/>
<path style="stroke:none; fill-rule:evenodd; fill:#000000" d="M 368.398 136.463L 368.398 142.487L 369.398 142.487L 369.398 139.139C 369.398 137.901 370.023 137.088 370.988 137.088C 371.727 137.088 372.195 137.549 372.195 138.28L 372.195 142.483L 373.195 142.483L 373.195 137.928C 373.195 136.928 372.453 136.284 371.293 136.284C 370.398 136.284 369.828 136.627 369.301 137.467L 369.301 136.455L 368.398 136.463z"/>
<path style="stroke:none; fill-rule:evenodd; fill:#000000" d="M 378.922 138.155C 378.91 136.967 378.125 136.295 376.727 136.295C 375.316 136.295 374.402 137.022 374.402 138.143C 374.402 139.088 374.891 139.537 376.34 139.885L 377.25 140.104C 377.926 140.264 378.195 140.506 378.195 140.944C 378.195 141.506 377.629 141.889 376.785 141.889C 376.266 141.889 375.828 141.741 375.586 141.483C 375.438 141.311 375.367 141.135 375.309 140.702L 374.293 140.702C 374.336 142.112 375.121 142.787 376.703 142.787C 378.227 142.787 379.195 142.037 379.195 140.873C 379.195 139.975 378.684 139.479 377.469 139.19L 376.535 138.971C 375.742 138.787 375.402 138.534 375.402 138.108C 375.402 137.557 375.898 137.198 376.688 137.198C 377.461 137.198 377.879 137.526 377.902 138.159L 378.922 138.155z"/>
<path style="stroke:#000000; stroke-width:1.91229; fill:none" d="M 236.555 57.768L 276.73 32.897"/>
<path style="stroke:#000000; stroke-width:1.91229; fill:none" d="M 269.223 35.295L 276.73 32.897L 271.234 38.545"/>
<path style="stroke:#000000; stroke-width:1.91229; fill:none" d="M 276.73 57.768L 316.906 32.897"/>
<path style="stroke:#000000; stroke-width:1.91229; fill:none" d="M 309.402 35.295L 316.91 32.897L 311.414 38.545"/>
<path style="stroke:#000000; stroke-width:1.91229; fill:none" d="M 316.91 57.768L 359 32.897"/>
<path style="stroke:#000000; stroke-width:1.91229; fill:none" d="M 351.445 35.139L 359 32.897L 353.391 38.432"/>
<path style="stroke:#000000; stroke-width:1.91229; fill:none" d="M 359.004 57.768L 316.914 32.897"/>
<path style="stroke:#000000; stroke-width:1.91229; fill:none" d="M 322.523 38.432L 316.914 32.897L 324.469 35.139"/>
<path style="stroke:#000000; stroke-width:1.91229; fill:none" d="M 316.91 57.768L 276.734 32.897"/>
<path style="stroke:#000000; stroke-width:1.91229; fill:none" d="M 282.23 38.545L 276.734 32.897L 284.242 35.295"/>
<path style="stroke:#000000; stroke-width:1.91229; fill:none" d="M 276.73 57.768L 359 32.897"/>
<path style="stroke:#000000; stroke-width:1.91229; fill:none" d="M 351.129 33.276L 359.004 32.893L 352.238 36.936"/>
<path style="stroke:#000000; stroke-width:1.91229; fill:none" d="M 359.004 57.768L 276.734 32.897"/>
<path style="stroke:#000000; stroke-width:1.91229; fill:none" d="M 283.5 36.936L 276.734 32.893L 284.609 33.276"/>
<path style="stroke:#000000; stroke-width:1.91229; fill:none" d="M 236.555 57.768L 316.91 32.897"/>
<path style="stroke:#000000; stroke-width:1.91229; fill:none" d="M 309.039 33.33L 316.91 32.897L 310.172 36.983"/>
<path style="stroke:#000000; stroke-width:1.91229; fill:none" d="M 236.555 57.768L 359.004 32.897"/>
<path style="stroke:#000000; stroke-width:1.91229; fill:none" d="M 351.129 32.541L 359.004 32.893L 351.891 36.287"/>
<path style="stroke:none; fill-rule:evenodd; fill:#000000" d="M 191.699 121.889L 193.098 121.889L 193.098 120.491L 191.699 120.491L 191.699 121.889z"/>
<path style="stroke:none; fill-rule:evenodd; fill:#000000" d="M 195.398 121.889L 196.797 121.889L 196.797 120.491L 195.398 120.491L 195.398 121.889z"/>
<path style="stroke:none; fill-rule:evenodd; fill:#000000" d="M 199.199 121.889L 200.598 121.889L 200.598 120.491L 199.199 120.491L 199.199 121.889z"/>
<path style="stroke:none; fill-rule:evenodd; fill:#000000" d="M 191.699 74.092L 193.098 74.092L 193.098 72.694L 191.699 72.694L 191.699 74.092z"/>
<path style="stroke:none; fill-rule:evenodd; fill:#000000" d="M 195.398 74.092L 196.797 74.092L 196.797 72.694L 195.398 72.694L 195.398 74.092z"/>
<path style="stroke:none; fill-rule:evenodd; fill:#000000" d="M 199.199 74.092L 200.598 74.092L 200.598 72.694L 199.199 72.694L 199.199 74.092z"/>
<path style="stroke:none; fill-rule:evenodd; fill:#000000" d="M 191.699 26.291L 193.098 26.291L 193.098 24.893L 191.699 24.893L 191.699 26.291z"/>
<path style="stroke:none; fill-rule:evenodd; fill:#000000" d="M 195.398 26.291L 196.797 26.291L 196.797 24.893L 195.398 24.893L 195.398 26.291z"/>
<path style="stroke:none; fill-rule:evenodd; fill:#000000" d="M 199.199 26.291L 200.598 26.291L 200.598 24.893L 199.199 24.893L 199.199 26.291z"/>
<path style="stroke:none; fill-rule:evenodd; fill:#000000" d="M 373.5 121.889L 374.898 121.889L 374.898 120.491L 373.5 120.491L 373.5 121.889z"/>
<path style="stroke:none; fill-rule:evenodd; fill:#000000" d="M 377.199 121.889L 378.598 121.889L 378.598 120.491L 377.199 120.491L 377.199 121.889z"/>
<path style="stroke:none; fill-rule:evenodd; fill:#000000" d="M 380.898 121.889L 382.297 121.889L 382.297 120.491L 380.898 120.491L 380.898 121.889z"/>
<path style="stroke:none; fill-rule:evenodd; fill:#000000" d="M 373.5 74.092L 374.898 74.092L 374.898 72.694L 373.5 72.694L 373.5 74.092z"/>
<path style="stroke:none; fill-rule:evenodd; fill:#000000" d="M 377.199 74.092L 378.598 74.092L 378.598 72.694L 377.199 72.694L 377.199 74.092z"/>
<path style="stroke:none; fill-rule:evenodd; fill:#000000" d="M 380.898 74.092L 382.297 74.092L 382.297 72.694L 380.898 72.694L 380.898 74.092z"/>
<path style="stroke:none; fill-rule:evenodd; fill:#000000" d="M 373.5 26.291L 374.898 26.291L 374.898 24.893L 373.5 24.893L 373.5 26.291z"/>
<path style="stroke:none; fill-rule:evenodd; fill:#000000" d="M 377.199 26.291L 378.598 26.291L 378.598 24.893L 377.199 24.893L 377.199 26.291z"/>
<path style="stroke:none; fill-rule:evenodd; fill:#000000" d="M 380.898 26.291L 382.297 26.291L 382.297 24.893L 380.898 24.893L 380.898 26.291z"/>
<path style="stroke:none; fill-rule:evenodd; fill:#000000" d="M 48.4375 141.928C 48.3359 141.987 48.2891 141.987 48.2266 141.987C 47.8867 141.987 47.7031 141.815 47.7031 141.514L 47.7031 137.948C 47.7031 136.873 46.9258 136.291 45.4531 136.291C 44.5859 136.291 43.8672 136.545 43.4648 136.995C 43.1914 137.303 43.0781 137.651 43.0547 138.252L 44 138.252C 44.0781 137.522 44.5039 137.19 45.3867 137.19C 46.2305 137.19 46.7031 137.51 46.7031 138.088L 46.7031 138.342C 46.7031 138.745 46.4688 138.916 45.7266 139.01C 44.4023 139.182 44.1992 139.229 43.8398 139.377C 43.1562 139.662 42.8086 140.205 42.8086 140.991C 42.8086 142.084 43.5625 142.776 44.7734 142.776C 45.5273 142.776 46.1328 142.502 46.8086 141.858C 46.875 142.491 47.1719 142.776 47.7891 142.776C 47.9805 142.776 48.1289 142.752 48.4375 142.67L 48.4375 141.928zM 46.6992 140.631C 46.6992 140.959 46.6094 141.162 46.332 141.432C 45.9531 141.795 45.4961 141.987 44.9492 141.987C 44.2266 141.987 43.8047 141.623 43.8047 140.995C 43.8047 140.346 44.2148 140.014 45.207 139.862C 46.1875 139.721 46.3867 139.674 46.6992 139.522L 46.6992 140.631z"/>
<path style="stroke:none; fill-rule:evenodd; fill:#000000" d="M 49.7578 144.924C 50.8867 143.416 51.5977 141.323 51.5977 139.518C 51.5977 137.702 50.8867 135.608 49.7578 134.096L 49.1367 134.096C 50.1406 135.741 50.6992 137.674 50.6992 139.518C 50.6992 141.346 50.1406 143.291 49.1367 144.924L 49.7578 144.924z"/>
<path style="stroke:none; fill-rule:evenodd; fill:#000000" d="M 63.293 136.721C 62.957 134.889 61.8945 133.995 60.0469 133.995C 58.918 133.995 58.0039 134.35 57.3789 135.041C 56.6172 135.87 56.2031 137.065 56.2031 138.424C 56.2031 139.803 56.6289 140.991 57.4258 141.807C 58.0703 142.475 58.9023 142.784 60 142.784C 62.0547 142.784 63.2109 141.674 63.4648 139.432L 62.3594 139.432C 62.2695 140.022 62.1562 140.424 61.9805 140.768C 61.6367 141.479 60.9258 141.877 60.0273 141.877C 58.3594 141.877 57.3008 140.526 57.3008 138.405C 57.3008 136.225 58.3125 134.881 59.9336 134.881C 60.6094 134.881 61.2422 135.092 61.5898 135.416C 61.8984 135.709 62.0703 136.069 62.1992 136.702L 63.293 136.721z"/>
<path style="stroke:none; fill-rule:evenodd; fill:#000000" d="M 67.1367 136.291C 65.4336 136.291 64.4023 137.506 64.4023 139.541C 64.4023 141.573 65.4219 142.787 67.1523 142.787C 68.8555 142.787 69.9023 141.577 69.9023 139.588C 69.9023 137.498 68.8945 136.291 67.1406 136.291L 67.1367 136.291zM 67.1484 137.19C 68.2422 137.19 68.8984 138.077 68.8984 139.573C 68.8984 140.987 68.2227 141.885 67.1484 141.885C 66.0664 141.885 65.3984 140.998 65.3984 139.537C 65.3984 138.088 66.0625 137.19 67.1484 137.19z"/>
<path style="stroke:none; fill-rule:evenodd; fill:#000000" d="M 71.1992 136.463L 71.1992 142.487L 72.1992 142.487L 72.1992 138.678C 72.1992 137.799 72.8242 137.092 73.5938 137.092C 74.2969 137.092 74.6953 137.53 74.6953 138.307L 74.6953 142.487L 75.6953 142.487L 75.6953 138.678C 75.6953 137.799 76.3203 137.092 77.0898 137.092C 77.7812 137.092 78.1914 137.541 78.1914 138.307L 78.1914 142.487L 79.1914 142.487L 79.1914 137.967C 79.1914 136.889 78.5703 136.287 77.4375 136.287C 76.6328 136.287 76.1445 136.53 75.582 137.221C 75.2266 136.569 74.7422 136.287 73.957 136.287C 73.1523 136.287 72.6211 136.584 72.1016 137.311L 72.1016 136.463L 71.1992 136.463z"/>
<path style="stroke:none; fill-rule:evenodd; fill:#000000" d="M 80.5 134.092L 80.5 142.491L 81.3984 142.491L 81.3984 141.725C 81.8516 142.448 82.457 142.791 83.293 142.791C 84.867 142.791 85.895 141.487 85.895 139.475C 85.895 137.51 84.918 136.295 83.3438 136.295C 82.5234 136.295 81.9453 136.608 81.5 137.295L 81.5 134.096L 80.5 134.092zM 83.1445 137.202C 84.211 137.202 84.898 138.127 84.898 139.565C 84.898 140.928 84.188 141.858 83.1445 141.858C 82.1367 141.858 81.4727 140.94 81.4727 139.53C 81.4727 138.12 82.1367 137.202 83.1445 137.202z"/>
<path style="stroke:none; fill-rule:evenodd; fill:#000000" d="M 88 136.491L 87 136.491L 87 142.491L 88 142.491L 88 136.491zM 88 134.092L 87 134.092L 87 135.33L 88 135.33L 88 134.092z"/>
<path style="stroke:none; fill-rule:evenodd; fill:#000000" d="M 89.699 136.463L 89.699 142.487L 90.699 142.487L 90.699 139.139C 90.699 137.901 91.324 137.088 92.289 137.088C 93.027 137.088 93.496 137.549 93.496 138.28L 93.496 142.483L 94.496 142.483L 94.496 137.928C 94.496 136.928 93.754 136.284 92.594 136.284C 91.699 136.284 91.129 136.627 90.602 137.467L 90.602 136.455L 89.699 136.463z"/>
<path style="stroke:none; fill-rule:evenodd; fill:#000000" d="M 101.336 141.928C 101.234 141.987 101.188 141.987 101.125 141.987C 100.785 141.987 100.602 141.815 100.602 141.514L 100.602 137.948C 100.602 136.873 99.824 136.291 98.352 136.291C 97.484 136.291 96.766 136.545 96.363 136.995C 96.09 137.303 95.977 137.651 95.953 138.252L 96.898 138.252C 96.977 137.522 97.402 137.19 98.285 137.19C 99.129 137.19 99.602 137.51 99.602 138.088L 99.602 138.342C 99.602 138.745 99.367 138.916 98.625 139.01C 97.301 139.182 97.098 139.229 96.738 139.377C 96.055 139.662 95.707 140.205 95.707 140.991C 95.707 142.084 96.461 142.776 97.672 142.776C 98.426 142.776 99.031 142.502 99.707 141.858C 99.773 142.491 100.07 142.776 100.688 142.776C 100.879 142.776 101.027 142.752 101.336 142.67L 101.336 141.928zM 99.598 140.631C 99.598 140.959 99.508 141.162 99.23 141.432C 98.852 141.795 98.395 141.987 97.848 141.987C 97.125 141.987 96.703 141.623 96.703 140.995C 96.703 140.346 97.113 140.014 98.105 139.862C 99.086 139.721 99.285 139.674 99.598 139.522L 99.598 140.631z"/>
<path style="stroke:none; fill-rule:evenodd; fill:#000000" d="M 104.5 136.491L 103.602 136.491L 103.602 134.83L 102.602 134.83L 102.602 136.491L 101.703 136.491L 101.703 137.287L 102.602 137.287L 102.602 141.834C 102.602 142.44 103.004 142.784 103.734 142.784C 103.957 142.784 104.184 142.76 104.496 142.702L 104.496 141.866C 104.383 141.952 104.246 141.983 104.078 141.983C 103.703 141.983 103.598 141.87 103.598 141.44L 103.598 137.287L 104.496 137.287L 104.5 136.491z"/>
<path style="stroke:none; fill-rule:evenodd; fill:#000000" d="M 107.938 136.291C 106.234 136.291 105.203 137.506 105.203 139.541C 105.203 141.573 106.223 142.787 107.953 142.787C 109.656 142.787 110.703 141.577 110.703 139.588C 110.703 137.498 109.695 136.291 107.941 136.291L 107.938 136.291zM 107.949 137.19C 109.043 137.19 109.699 138.077 109.699 139.573C 109.699 140.987 109.023 141.885 107.949 141.885C 106.867 141.885 106.199 140.998 106.199 139.537C 106.199 138.088 106.863 137.19 107.949 137.19z"/>
<path style="stroke:none; fill-rule:evenodd; fill:#000000" d="M 112 136.463L 112 142.487L 113 142.487L 113 139.354C 113 138.491 113.211 137.924 113.66 137.592C 113.949 137.373 114.23 137.307 114.879 137.295L 114.879 136.33C 114.723 136.311 114.645 136.299 114.52 136.299C 113.91 136.299 113.445 136.666 112.902 137.565L 112.902 136.475L 112 136.463z"/>
<path style="stroke:none; fill-rule:evenodd; fill:#000000" d="M 116.699 136.491L 115.699 136.491L 115.699 142.491L 116.699 142.491L 116.699 136.491zM 116.699 134.092L 115.699 134.092L 115.699 135.33L 116.699 135.33L 116.699 134.092z"/>
<path style="stroke:none; fill-rule:evenodd; fill:#000000" d="M 123.734 141.928C 123.633 141.987 123.586 141.987 123.523 141.987C 123.184 141.987 123 141.815 123 141.514L 123 137.948C 123 136.873 122.223 136.291 120.75 136.291C 119.883 136.291 119.164 136.545 118.762 136.995C 118.488 137.303 118.375 137.651 118.352 138.252L 119.297 138.252C 119.375 137.522 119.801 137.19 120.684 137.19C 121.527 137.19 122 137.51 122 138.088L 122 138.342C 122 138.745 121.766 138.916 121.023 139.01C 119.699 139.182 119.496 139.229 119.137 139.377C 118.453 139.662 118.105 140.205 118.105 140.991C 118.105 142.084 118.859 142.776 120.07 142.776C 120.824 142.776 121.43 142.502 122.105 141.858C 122.172 142.491 122.469 142.776 123.086 142.776C 123.277 142.776 123.426 142.752 123.734 142.67L 123.734 141.928zM 122 140.631C 122 140.959 121.91 141.162 121.633 141.432C 121.254 141.795 120.797 141.987 120.25 141.987C 119.527 141.987 119.105 141.623 119.105 140.995C 119.105 140.346 119.516 140.014 120.508 139.862C 121.488 139.721 121.688 139.674 122 139.522L 122 140.631z"/>
<path style="stroke:none; fill-rule:evenodd; fill:#000000" d="M 124.699 142.491L 125.699 142.491L 125.699 134.092L 124.699 134.092L 124.699 142.491z"/>
<path style="stroke:none; fill-rule:evenodd; fill:#000000" d="M 132.422 134.092C 131.305 135.6 130.602 137.694 130.602 139.502C 130.602 141.319 131.305 143.412 132.422 144.92L 133.035 144.92C 132.051 143.276 131.5 141.342 131.5 139.502C 131.5 137.674 132.047 135.729 133.035 134.092L 132.422 134.092z"/>
<path style="stroke:none; fill-rule:evenodd; fill:#000000" d="M 139.398 139.791C 139.398 138.873 139.332 138.323 139.16 137.877C 138.773 136.893 137.859 136.295 136.742 136.295C 135.078 136.295 134.004 137.588 134.004 139.577C 134.004 141.565 135.039 142.787 136.711 142.787C 138.074 142.787 139.02 141.995 139.258 140.666L 138.305 140.666C 138.047 141.467 137.512 141.889 136.75 141.889C 136.148 141.889 135.641 141.612 135.32 141.096C 135.094 140.748 135.016 140.397 135.004 139.791L 139.398 139.791zM 134.977 139.026C 135.055 137.916 135.73 137.19 136.695 137.19C 137.633 137.19 138.355 137.967 138.355 138.955C 138.355 138.975 138.355 138.998 138.348 139.022L 134.977 139.026z"/>
<path style="stroke:none; fill-rule:evenodd; fill:#000000" d="M 140.699 142.491L 141.699 142.491L 141.699 134.092L 140.699 134.092L 140.699 142.491z"/>
<path style="stroke:none; fill-rule:evenodd; fill:#000000" d="M 148.297 139.791C 148.297 138.873 148.23 138.323 148.059 137.877C 147.672 136.893 146.758 136.295 145.641 136.295C 143.977 136.295 142.902 137.588 142.902 139.577C 142.902 141.565 143.938 142.787 145.609 142.787C 146.973 142.787 147.918 141.995 148.156 140.666L 147.203 140.666C 146.945 141.467 146.41 141.889 145.648 141.889C 145.047 141.889 144.539 141.612 144.219 141.096C 143.992 140.748 143.914 140.397 143.902 139.791L 148.297 139.791zM 143.879 139.026C 143.957 137.916 144.633 137.19 145.598 137.19C 146.535 137.19 147.258 137.967 147.258 138.955C 147.258 138.975 147.258 138.998 147.25 139.022L 143.879 139.026z"/>
<path style="stroke:none; fill-rule:evenodd; fill:#000000" d="M 149.598 136.463L 149.598 142.487L 150.598 142.487L 150.598 138.678C 150.598 137.799 151.223 137.092 151.992 137.092C 152.695 137.092 153.094 137.53 153.094 138.307L 153.094 142.487L 154.094 142.487L 154.094 138.678C 154.094 137.799 154.719 137.092 155.488 137.092C 156.18 137.092 156.59 137.541 156.59 138.307L 156.59 142.487L 157.59 142.487L 157.59 137.967C 157.59 136.889 156.969 136.287 155.836 136.287C 155.031 136.287 154.543 136.53 153.98 137.221C 153.625 136.569 153.141 136.287 152.355 136.287C 151.551 136.287 151.02 136.584 150.5 137.311L 150.5 136.463L 149.598 136.463z"/>
<path style="stroke:none; fill-rule:evenodd; fill:#000000" d="M 164.297 139.791C 164.297 138.873 164.23 138.323 164.059 137.877C 163.672 136.893 162.758 136.295 161.641 136.295C 159.977 136.295 158.902 137.588 158.902 139.577C 158.902 141.565 159.938 142.787 161.609 142.787C 162.973 142.787 163.918 141.995 164.156 140.666L 163.203 140.666C 162.945 141.467 162.41 141.889 161.648 141.889C 161.047 141.889 160.539 141.612 160.219 141.096C 159.992 140.748 159.914 140.397 159.902 139.791L 164.297 139.791zM 159.879 139.026C 159.957 137.916 160.633 137.19 161.598 137.19C 162.535 137.19 163.258 137.967 163.258 138.955C 163.258 138.975 163.258 138.998 163.25 139.022L 159.879 139.026z"/>
<path style="stroke:none; fill-rule:evenodd; fill:#000000" d="M 165.5 136.463L 165.5 142.487L 166.5 142.487L 166.5 139.139C 166.5 137.901 167.125 137.088 168.09 137.088C 168.828 137.088 169.297 137.549 169.297 138.28L 169.297 142.483L 170.297 142.483L 170.297 137.928C 170.297 136.928 169.555 136.284 168.395 136.284C 167.5 136.284 166.93 136.627 166.402 137.467L 166.402 136.455L 165.5 136.463z"/>
<path style="stroke:none; fill-rule:evenodd; fill:#000000" d="M 174 136.491L 173.102 136.491L 173.102 134.83L 172.102 134.83L 172.102 136.491L 171.203 136.491L 171.203 137.287L 172.102 137.287L 172.102 141.834C 172.102 142.44 172.504 142.784 173.234 142.784C 173.457 142.784 173.684 142.76 173.996 142.702L 173.996 141.866C 173.883 141.952 173.746 141.983 173.578 141.983C 173.203 141.983 173.098 141.87 173.098 141.44L 173.098 137.287L 173.996 137.287L 174 136.491z"/>
<path style="stroke:none; fill-rule:evenodd; fill:#000000" d="M 180.438 141.928C 180.336 141.987 180.289 141.987 180.227 141.987C 179.887 141.987 179.703 141.815 179.703 141.514L 179.703 137.948C 179.703 136.873 178.926 136.291 177.453 136.291C 176.586 136.291 175.867 136.545 175.465 136.995C 175.191 137.303 175.078 137.651 175.055 138.252L 176 138.252C 176.078 137.522 176.504 137.19 177.387 137.19C 178.23 137.19 178.703 137.51 178.703 138.088L 178.703 138.342C 178.703 138.745 178.469 138.916 177.727 139.01C 176.402 139.182 176.199 139.229 175.84 139.377C 175.156 139.662 174.809 140.205 174.809 140.991C 174.809 142.084 175.562 142.776 176.773 142.776C 177.527 142.776 178.133 142.502 178.809 141.858C 178.875 142.491 179.172 142.776 179.789 142.776C 179.98 142.776 180.129 142.752 180.438 142.67L 180.438 141.928zM 178.699 140.631C 178.699 140.959 178.609 141.162 178.332 141.432C 177.953 141.795 177.496 141.987 176.949 141.987C 176.227 141.987 175.805 141.623 175.805 140.995C 175.805 140.346 176.215 140.014 177.207 139.862C 178.188 139.721 178.387 139.674 178.699 139.522L 178.699 140.631z"/>
<path style="stroke:none; fill-rule:evenodd; fill:#000000" d="M 181.5 142.491L 182.5 142.491L 182.5 134.092L 181.5 134.092L 181.5 142.491z"/>
<path style="stroke:none; fill-rule:evenodd; fill:#000000" d="M 184.258 144.924C 185.387 143.416 186.098 141.323 186.098 139.518C 186.098 137.702 185.387 135.608 184.258 134.096L 183.637 134.096C 184.641 135.741 185.199 137.674 185.199 139.518C 185.199 141.346 184.641 143.291 183.637 144.924L 184.258 144.924z"/>
<path style="stroke:none; fill-rule:evenodd; fill:#000000" d="M 59.0977 147.963L 59.0977 153.987L 60.0977 153.987L 60.0977 150.854C 60.0977 149.991 60.3086 149.424 60.7578 149.092C 61.0469 148.873 61.3281 148.807 61.9766 148.795L 61.9766 147.83C 61.8203 147.811 61.7422 147.799 61.6172 147.799C 61.0078 147.799 60.543 148.166 60 149.065L 60 147.975L 59.0977 147.963z"/>
<path style="stroke:none; fill-rule:evenodd; fill:#000000" d="M 68 151.291C 68 150.373 67.9336 149.823 67.7617 149.377C 67.375 148.393 66.4609 147.795 65.3438 147.795C 63.6797 147.795 62.6055 149.088 62.6055 151.077C 62.6055 153.065 63.6406 154.287 65.3125 154.287C 66.6758 154.287 67.6211 153.495 67.8594 152.166L 66.9062 152.166C 66.6484 152.967 66.1133 153.389 65.3516 153.389C 64.75 153.389 64.2422 153.112 63.9219 152.596C 63.6953 152.248 63.6172 151.897 63.6055 151.291L 68 151.291zM 63.5781 150.526C 63.6562 149.416 64.332 148.69 65.2969 148.69C 66.2344 148.69 66.957 149.467 66.957 150.455C 66.957 150.475 66.957 150.498 66.9492 150.522L 63.5781 150.526z"/>
<path style="stroke:none; fill-rule:evenodd; fill:#000000" d="M 69.0977 156.491L 70.0977 156.491L 70.0977 153.389C 70.5977 154.01 71.1602 154.287 71.9375 154.287C 73.4805 154.287 74.4961 153.03 74.4961 151.1C 74.4961 149.069 73.5117 147.795 71.9141 147.795C 71.1016 147.795 70.4453 148.162 70 148.873L 70 147.967L 69.1016 147.967L 69.0977 156.491zM 71.7656 148.69C 72.8125 148.69 73.4961 149.627 73.4961 151.073C 73.4961 152.448 72.8008 153.385 71.7656 153.385C 70.7617 153.385 70.1016 152.459 70.1016 151.037C 70.1016 149.616 70.7617 148.69 71.7656 148.69z"/>
<path style="stroke:none; fill-rule:evenodd; fill:#000000" d="M 75.6992 147.963L 75.6992 153.987L 76.6992 153.987L 76.6992 150.854C 76.6992 149.991 76.9102 149.424 77.3594 149.092C 77.6484 148.873 77.9297 148.807 78.5781 148.795L 78.5781 147.83C 78.4219 147.811 78.3438 147.799 78.2188 147.799C 77.6094 147.799 77.1445 148.166 76.6016 149.065L 76.6016 147.975L 75.6992 147.963z"/>
<path style="stroke:none; fill-rule:evenodd; fill:#000000" d="M 84.598 151.291C 84.598 150.373 84.531 149.823 84.359 149.377C 83.9727 148.393 83.0586 147.795 81.9414 147.795C 80.2773 147.795 79.2031 149.088 79.2031 151.077C 79.2031 153.065 80.2383 154.287 81.9102 154.287C 83.2734 154.287 84.219 153.495 84.457 152.166L 83.5039 152.166C 83.2461 152.967 82.7109 153.389 81.9492 153.389C 81.3477 153.389 80.8398 153.112 80.5195 152.596C 80.293 152.248 80.2148 151.897 80.2031 151.291L 84.598 151.291zM 80.1797 150.526C 80.2578 149.416 80.9336 148.69 81.8984 148.69C 82.8359 148.69 83.5586 149.467 83.5586 150.455C 83.5586 150.475 83.5586 150.498 83.5508 150.522L 80.1797 150.526z"/>
<path style="stroke:none; fill-rule:evenodd; fill:#000000" d="M 90.125 149.655C 90.113 148.467 89.328 147.795 87.93 147.795C 86.52 147.795 85.605 148.522 85.605 149.643C 85.605 150.588 86.094 151.037 87.543 151.385L 88.453 151.604C 89.129 151.764 89.398 152.006 89.398 152.444C 89.398 153.006 88.832 153.389 87.988 153.389C 87.469 153.389 87.031 153.241 86.789 152.983C 86.641 152.811 86.57 152.635 86.512 152.202L 85.496 152.202C 85.539 153.612 86.324 154.287 87.906 154.287C 89.43 154.287 90.398 153.537 90.398 152.373C 90.398 151.475 89.887 150.979 88.672 150.69L 87.738 150.471C 86.945 150.287 86.605 150.034 86.605 149.608C 86.605 149.057 87.102 148.698 87.891 148.698C 88.664 148.698 89.082 149.026 89.105 149.659L 90.125 149.655z"/>
<path style="stroke:none; fill-rule:evenodd; fill:#000000" d="M 96.699 151.291C 96.699 150.373 96.633 149.823 96.461 149.377C 96.074 148.393 95.16 147.795 94.043 147.795C 92.379 147.795 91.305 149.088 91.305 151.077C 91.305 153.065 92.34 154.287 94.012 154.287C 95.375 154.287 96.32 153.495 96.559 152.166L 95.605 152.166C 95.348 152.967 94.812 153.389 94.051 153.389C 93.449 153.389 92.941 153.112 92.621 152.596C 92.395 152.248 92.316 151.897 92.305 151.291L 96.699 151.291zM 92.277 150.526C 92.355 149.416 93.031 148.69 93.996 148.69C 94.934 148.69 95.656 149.467 95.656 150.455C 95.656 150.475 95.656 150.498 95.648 150.522L 92.277 150.526z"/>
<path style="stroke:none; fill-rule:evenodd; fill:#000000" d="M 98 147.963L 98 153.987L 99 153.987L 99 150.639C 99 149.401 99.625 148.588 100.59 148.588C 101.328 148.588 101.797 149.049 101.797 149.78L 101.797 153.983L 102.797 153.983L 102.797 149.428C 102.797 148.428 102.055 147.784 100.895 147.784C 100 147.784 99.43 148.127 98.902 148.967L 98.902 147.955L 98 147.963z"/>
<path style="stroke:none; fill-rule:evenodd; fill:#000000" d="M 106.398 147.991L 105.5 147.991L 105.5 146.33L 104.5 146.33L 104.5 147.991L 103.602 147.991L 103.602 148.787L 104.5 148.787L 104.5 153.334C 104.5 153.94 104.902 154.284 105.633 154.284C 105.855 154.284 106.082 154.26 106.395 154.202L 106.395 153.366C 106.281 153.452 106.145 153.483 105.977 153.483C 105.602 153.483 105.496 153.37 105.496 152.94L 105.496 148.787L 106.395 148.787L 106.398 147.991z"/>
<path style="stroke:none; fill-rule:evenodd; fill:#000000" d="M 112.836 153.428C 112.734 153.487 112.688 153.487 112.625 153.487C 112.285 153.487 112.102 153.315 112.102 153.014L 112.102 149.448C 112.102 148.373 111.324 147.791 109.852 147.791C 108.984 147.791 108.266 148.045 107.863 148.495C 107.59 148.803 107.477 149.151 107.453 149.752L 108.398 149.752C 108.477 149.022 108.902 148.69 109.785 148.69C 110.629 148.69 111.102 149.01 111.102 149.588L 111.102 149.842C 111.102 150.245 110.867 150.416 110.125 150.51C 108.801 150.682 108.598 150.729 108.238 150.877C 107.555 151.162 107.207 151.705 107.207 152.491C 107.207 153.584 107.961 154.276 109.172 154.276C 109.926 154.276 110.531 154.002 111.207 153.358C 111.273 153.991 111.57 154.276 112.188 154.276C 112.379 154.276 112.527 154.252 112.836 154.17L 112.836 153.428zM 111.098 152.131C 111.098 152.459 111.008 152.662 110.73 152.932C 110.352 153.295 109.895 153.487 109.348 153.487C 108.625 153.487 108.203 153.123 108.203 152.495C 108.203 151.846 108.613 151.514 109.605 151.362C 110.586 151.221 110.785 151.174 111.098 151.022L 111.098 152.131z"/>
<path style="stroke:none; fill-rule:evenodd; fill:#000000" d="M 116 147.991L 115.102 147.991L 115.102 146.33L 114.102 146.33L 114.102 147.991L 113.203 147.991L 113.203 148.787L 114.102 148.787L 114.102 153.334C 114.102 153.94 114.504 154.284 115.234 154.284C 115.457 154.284 115.684 154.26 115.996 154.202L 115.996 153.366C 115.883 153.452 115.746 153.483 115.578 153.483C 115.203 153.483 115.098 153.37 115.098 152.94L 115.098 148.787L 115.996 148.787L 116 147.991z"/>
<path style="stroke:none; fill-rule:evenodd; fill:#000000" d="M 118 147.991L 117 147.991L 117 153.991L 118 153.991L 118 147.991zM 118 145.592L 117 145.592L 117 146.83L 118 146.83L 118 145.592z"/>
<path style="stroke:none; fill-rule:evenodd; fill:#000000" d="M 122.035 147.791C 120.332 147.791 119.301 149.006 119.301 151.041C 119.301 153.073 120.32 154.287 122.051 154.287C 123.754 154.287 124.801 153.077 124.801 151.088C 124.801 148.998 123.793 147.791 122.039 147.791L 122.035 147.791zM 122.047 148.69C 123.141 148.69 123.797 149.577 123.797 151.073C 123.797 152.487 123.121 153.385 122.047 153.385C 120.965 153.385 120.297 152.498 120.297 151.037C 120.297 149.588 120.961 148.69 122.047 148.69z"/>
<path style="stroke:none; fill-rule:evenodd; fill:#000000" d="M 126 147.963L 126 153.987L 127 153.987L 127 150.639C 127 149.401 127.625 148.588 128.59 148.588C 129.328 148.588 129.797 149.049 129.797 149.78L 129.797 153.983L 130.797 153.983L 130.797 149.428C 130.797 148.428 130.055 147.784 128.895 147.784C 128 147.784 127.43 148.127 126.902 148.967L 126.902 147.955L 126 147.963z"/>
<path style="stroke:none; fill-rule:evenodd; fill:#000000" d="M 136.625 149.655C 136.613 148.467 135.828 147.795 134.43 147.795C 133.02 147.795 132.105 148.522 132.105 149.643C 132.105 150.588 132.594 151.037 134.043 151.385L 134.953 151.604C 135.629 151.764 135.898 152.006 135.898 152.444C 135.898 153.006 135.332 153.389 134.488 153.389C 133.969 153.389 133.531 153.241 133.289 152.983C 133.141 152.811 133.07 152.635 133.012 152.202L 131.996 152.202C 132.039 153.612 132.824 154.287 134.406 154.287C 135.93 154.287 136.898 153.537 136.898 152.373C 136.898 151.475 136.387 150.979 135.172 150.69L 134.238 150.471C 133.445 150.287 133.105 150.034 133.105 149.608C 133.105 149.057 133.602 148.698 134.391 148.698C 135.164 148.698 135.582 149.026 135.605 149.659L 136.625 149.655z"/>
</g>
</svg>