<?xml version="1.0" encoding="ISO-8859-1" standalone="yes"?>
<svg width="469.281" height="342.996">
  <defs> 
    <marker id="ArrowEnd" viewBox="0 0 10 10" refX="0" refY="5" 
     markerUnits="strokeWidth" 
     markerWidth="4" 
     markerHeight="3" 
     orient="auto"> 
        <path d="M 0 0 L 10 5 L 0 10 z" /> 
    </marker>
    <marker id="ArrowStart" viewBox="0 0 10 10" refX="10" refY="5" 
     markerUnits="strokeWidth" 
     markerWidth="4" 
     markerHeight="3" 
     orient="auto"> 
        <path d="M 10 0 L 0 5 L 10 10 z" /> 
    </marker> </defs>
<g>
<path style="stroke:#000000; stroke-width:1.59941; fill:none" d="M 119.426 320.641L 119.426 318.243"/>
<path style="stroke:#000000; stroke-width:1.59941; fill:none" d="M 216.989 320.641L 216.989 318.243"/>
<path style="stroke:#000000; stroke-width:1.59941; fill:none" d="M 314.555 320.641L 314.555 318.243"/>
<path style="stroke:#000000; stroke-width:1.59941; fill:none" d="M 412.117 320.641L 412.117 318.243"/>
<path style="stroke:#000000; stroke-width:1.59941; fill:none" d="M 119.426 36.746L 119.426 39.145"/>
<path style="stroke:#000000; stroke-width:1.59941; fill:none" d="M 216.989 36.746L 216.989 39.145"/>
<path style="stroke:#000000; stroke-width:1.59941; fill:none" d="M 314.555 36.746L 314.555 39.145"/>
<path style="stroke:#000000; stroke-width:1.59941; fill:none" d="M 412.117 36.746L 412.117 39.145"/>
<path style="stroke:#000000; stroke-width:1.59941; fill:none" d="M 119.426 320.641L 119.426 315.844"/>
<path style="stroke:#000000; stroke-width:1.59941; fill:none" d="M 216.989 320.641L 216.989 315.844"/>
<path style="stroke:#000000; stroke-width:1.59941; fill:none" d="M 314.555 320.641L 314.555 315.844"/>
<path style="stroke:#000000; stroke-width:1.59941; fill:none" d="M 412.117 320.641L 412.117 315.844"/>
<path style="stroke:#000000; stroke-width:1.59941; fill:none" d="M 119.426 36.746L 119.426 41.543"/>
<path style="stroke:#000000; stroke-width:1.59941; fill:none" d="M 216.989 36.746L 216.989 41.543"/>
<path style="stroke:#000000; stroke-width:1.59941; fill:none" d="M 314.555 36.746L 314.555 41.543"/>
<path style="stroke:#000000; stroke-width:1.59941; fill:none" d="M 412.117 36.746L 412.117 41.543"/>
<path style="stroke:none; fill-rule:evenodd; fill:#000000" d="M 103.192 342.5L 105.192 342.5L 105.192 326.801L 103.192 326.801L 103.192 342.5z"/>
<path style="stroke:none; fill-rule:evenodd; fill:#000000" d="M 108.891 342.5L 114.965 342.5C 118.942 342.5 121.387 339.532 121.387 334.641C 121.387 329.778 118.965 326.801 114.965 326.801L 108.891 326.801L 108.891 342.5zM 110.891 340.7L 110.891 328.602L 114.617 328.602C 117.739 328.602 119.387 330.68 119.387 334.66C 119.387 338.598 117.739 340.696 114.617 340.696L 110.891 340.7z"/>
<path style="stroke:none; fill-rule:evenodd; fill:#000000" d="M 135.492 331.379C 135.473 328.293 133.348 326.5 129.707 326.5C 126.242 326.5 124.098 328.27 124.098 331.114C 124.098 333.032 125.114 334.239 127.188 334.774L 131.098 335.805C 133.086 336.321 133.992 337.117 133.992 338.348C 133.992 339.188 133.539 340.047 132.871 340.524C 132.246 340.953 131.254 341.192 129.981 341.192C 128.278 341.192 127.114 340.785 126.356 339.887C 125.774 339.203 125.516 338.453 125.5 337.489L 123.703 337.489C 123.723 338.934 124.004 339.883 124.625 340.75C 125.696 342.219 127.5 342.996 129.883 342.996C 131.75 342.996 133.274 342.567 134.282 341.789C 135.332 340.95 135.996 339.547 135.996 338.188C 135.996 336.25 134.785 334.825 132.649 334.242L 128.696 333.188C 126.797 332.672 126.102 332.067 126.102 330.86C 126.102 329.266 127.532 328.207 129.692 328.207C 132.246 328.207 133.676 329.344 133.699 331.387L 135.492 331.379z"/>
<path style="stroke:none; fill-rule:evenodd; fill:#000000" d="M 200.793 342.5L 202.793 342.5L 202.793 326.801L 200.793 326.801L 200.793 342.5z"/>
<path style="stroke:none; fill-rule:evenodd; fill:#000000" d="M 206.492 342.5L 212.567 342.5C 216.543 342.5 218.989 339.532 218.989 334.641C 218.989 329.778 216.567 326.801 212.567 326.801L 206.492 326.801L 206.492 342.5zM 208.492 340.7L 208.492 328.602L 212.219 328.602C 215.34 328.602 216.989 330.68 216.989 334.66C 216.989 338.598 215.34 340.696 212.219 340.696L 208.492 340.7z"/>
<path style="stroke:none; fill-rule:evenodd; fill:#000000" d="M 224.192 335.7L 229.391 335.7C 231.188 335.7 231.989 336.563 231.989 338.512L 231.989 339.918C 231.989 340.891 232.156 341.844 232.434 342.492L 234.844 342.492L 234.844 342C 234.082 341.485 233.93 340.926 233.883 338.836C 233.864 336.254 233.453 335.481 231.758 334.746C 233.559 333.887 234.282 332.789 234.282 331C 234.282 328.289 232.571 326.801 229.469 326.801L 222.188 326.801L 222.188 342.5L 224.188 342.5L 224.192 335.7zM 224.207 333.95L 224.207 328.532L 229.063 328.532C 230.184 328.532 230.832 328.703 231.328 329.133C 231.867 329.586 232.149 330.297 232.149 331.246C 232.149 333.102 231.199 333.942 229.063 333.942L 224.207 333.95z"/>
<path style="stroke:none; fill-rule:evenodd; fill:#000000" d="M 296.891 335.301L 305.512 335.301L 305.512 333.504L 296.891 333.504L 296.891 328.606L 305.789 328.606L 305.789 326.809L 294.891 326.809L 294.891 342.508L 306.188 342.508L 306.188 340.711L 296.891 340.711L 296.891 335.301z"/>
<path style="stroke:none; fill-rule:evenodd; fill:#000000" d="M 309.293 342.5L 315.367 342.5C 319.344 342.5 321.789 339.532 321.789 334.641C 321.789 329.778 319.367 326.801 315.367 326.801L 309.293 326.801L 309.293 342.5zM 311.293 340.7L 311.293 328.602L 315.02 328.602C 318.141 328.602 319.789 330.68 319.789 334.66C 319.789 338.598 318.141 340.696 315.02 340.696L 311.293 340.7z"/>
<path style="stroke:none; fill-rule:evenodd; fill:#000000" d="M 335.891 331.379C 335.871 328.293 333.746 326.5 330.106 326.5C 326.641 326.5 324.496 328.27 324.496 331.114C 324.496 333.032 325.512 334.239 327.586 334.774L 331.496 335.805C 333.485 336.321 334.391 337.117 334.391 338.348C 334.391 339.188 333.938 340.047 333.27 340.524C 332.645 340.953 331.653 341.192 330.379 341.192C 328.676 341.192 327.512 340.785 326.754 339.887C 326.172 339.203 325.914 338.453 325.899 337.489L 324.102 337.489C 324.121 338.934 324.403 339.883 325.024 340.75C 326.094 342.219 327.899 342.996 330.282 342.996C 332.149 342.996 333.672 342.567 334.68 341.789C 335.731 340.95 336.395 339.547 336.395 338.188C 336.395 336.25 335.184 334.825 333.047 334.242L 329.094 333.188C 327.196 332.672 326.5 332.067 326.5 330.86C 326.5 329.266 327.93 328.207 330.09 328.207C 332.645 328.207 334.074 329.344 334.098 331.387L 335.891 331.379z"/>
<path style="stroke:none; fill-rule:evenodd; fill:#000000" d="M 393.594 335.301L 402.215 335.301L 402.215 333.504L 393.594 333.504L 393.594 328.606L 402.492 328.606L 402.492 326.809L 391.594 326.809L 391.594 342.508L 402.891 342.508L 402.891 340.711L 393.594 340.711L 393.594 335.301z"/>
<path style="stroke:none; fill-rule:evenodd; fill:#000000" d="M 405.992 342.5L 412.067 342.5C 416.043 342.5 418.489 339.532 418.489 334.641C 418.489 329.778 416.067 326.801 412.067 326.801L 405.992 326.801L 405.992 342.5zM 407.992 340.7L 407.992 328.602L 411.719 328.602C 414.84 328.602 416.489 330.68 416.489 334.66C 416.489 338.598 414.84 340.696 411.719 340.696L 407.992 340.7z"/>
<path style="stroke:none; fill-rule:evenodd; fill:#000000" d="M 423.692 335.7L 428.891 335.7C 430.688 335.7 431.489 336.563 431.489 338.512L 431.489 339.918C 431.489 340.891 431.656 341.844 431.934 342.492L 434.344 342.492L 434.344 342C 433.582 341.485 433.43 340.926 433.383 338.836C 433.364 336.254 432.953 335.481 431.258 334.746C 433.059 333.887 433.782 332.789 433.782 331C 433.782 328.289 432.071 326.801 428.969 326.801L 421.688 326.801L 421.688 342.5L 423.688 342.5L 423.692 335.7zM 423.707 333.95L 423.707 328.532L 428.563 328.532C 429.684 328.532 430.332 328.703 430.828 329.133C 431.367 329.586 431.649 330.297 431.649 331.246C 431.649 333.102 430.699 333.942 428.563 333.942L 423.707 333.95z"/>
<path style="stroke:#000000; stroke-width:1.59941; fill:none" d="M 70.6448 320.641L 73.0428 320.641"/>
<path style="stroke:#000000; stroke-width:1.59941; fill:none" d="M 70.6448 303.848L 73.0428 303.848"/>
<path style="stroke:#000000; stroke-width:1.59941; fill:none" d="M 70.6448 287.055L 73.0428 287.055"/>
<path style="stroke:#000000; stroke-width:1.59941; fill:none" d="M 70.6448 270.258L 73.0428 270.258"/>
<path style="stroke:#000000; stroke-width:1.59941; fill:none" d="M 70.6448 253.465L 73.0428 253.465"/>
<path style="stroke:#000000; stroke-width:1.59941; fill:none" d="M 70.6448 236.672L 73.0428 236.672"/>
<path style="stroke:#000000; stroke-width:1.59941; fill:none" d="M 70.6448 219.879L 73.0428 219.879"/>
<path style="stroke:#000000; stroke-width:1.59941; fill:none" d="M 70.6448 203.086L 73.0428 203.086"/>
<path style="stroke:#000000; stroke-width:1.59941; fill:none" d="M 70.6448 187.09L 73.0428 187.09"/>
<path style="stroke:#000000; stroke-width:1.59941; fill:none" d="M 70.6448 170.297L 73.0428 170.297"/>
<path style="stroke:#000000; stroke-width:1.59941; fill:none" d="M 70.6448 153.504L 73.0428 153.504"/>
<path style="stroke:#000000; stroke-width:1.59941; fill:none" d="M 70.6448 136.707L 73.0428 136.707"/>
<path style="stroke:#000000; stroke-width:1.59941; fill:none" d="M 70.6448 119.914L 73.0428 119.914"/>
<path style="stroke:#000000; stroke-width:1.59941; fill:none" d="M 70.6448 103.121L 73.0428 103.121"/>
<path style="stroke:#000000; stroke-width:1.59941; fill:none" d="M 70.6448 87.129L 73.0428 87.129"/>
<path style="stroke:#000000; stroke-width:1.59941; fill:none" d="M 70.6448 70.332L 73.0428 70.332"/>
<path style="stroke:#000000; stroke-width:1.59941; fill:none" d="M 70.6448 53.539L 73.0428 53.539"/>
<path style="stroke:#000000; stroke-width:1.59941; fill:none" d="M 70.6448 36.746L 73.0428 36.746"/>
<path style="stroke:#000000; stroke-width:1.59941; fill:none" d="M 460.899 320.641L 458.5 320.641"/>
<path style="stroke:#000000; stroke-width:1.59941; fill:none" d="M 460.899 303.848L 458.5 303.848"/>
<path style="stroke:#000000; stroke-width:1.59941; fill:none" d="M 460.899 287.055L 458.5 287.055"/>
<path style="stroke:#000000; stroke-width:1.59941; fill:none" d="M 460.899 270.258L 458.5 270.258"/>
<path style="stroke:#000000; stroke-width:1.59941; fill:none" d="M 460.899 253.465L 458.5 253.465"/>
<path style="stroke:#000000; stroke-width:1.59941; fill:none" d="M 460.899 236.672L 458.5 236.672"/>
<path style="stroke:#000000; stroke-width:1.59941; fill:none" d="M 460.899 219.879L 458.5 219.879"/>
<path style="stroke:#000000; stroke-width:1.59941; fill:none" d="M 460.899 203.086L 458.5 203.086"/>
<path style="stroke:#000000; stroke-width:1.59941; fill:none" d="M 460.899 187.09L 458.5 187.09"/>
<path style="stroke:#000000; stroke-width:1.59941; fill:none" d="M 460.899 170.297L 458.5 170.297"/>
<path style="stroke:#000000; stroke-width:1.59941; fill:none" d="M 460.899 153.504L 458.5 153.504"/>
<path style="stroke:#000000; stroke-width:1.59941; fill:none" d="M 460.899 136.707L 458.5 136.707"/>
<path style="stroke:#000000; stroke-width:1.59941; fill:none" d="M 460.899 119.914L 458.5 119.914"/>
<path style="stroke:#000000; stroke-width:1.59941; fill:none" d="M 460.899 103.121L 458.5 103.121"/>
<path style="stroke:#000000; stroke-width:1.59941; fill:none" d="M 460.899 87.129L 458.5 87.129"/>
<path style="stroke:#000000; stroke-width:1.59941; fill:none" d="M 460.899 70.332L 458.5 70.332"/>
<path style="stroke:#000000; stroke-width:1.59941; fill:none" d="M 460.899 53.539L 458.5 53.539"/>
<path style="stroke:#000000; stroke-width:1.59941; fill:none" d="M 460.899 36.746L 458.5 36.746"/>
<path style="stroke:#000000; stroke-width:1.59941; fill:none" d="M 70.6448 320.641L 75.4418 320.641"/>
<path style="stroke:#000000; stroke-width:1.59941; fill:none" d="M 70.6448 287.055L 75.4418 287.055"/>
<path style="stroke:#000000; stroke-width:1.59941; fill:none" d="M 70.6448 253.465L 75.4418 253.465"/>
<path style="stroke:#000000; stroke-width:1.59941; fill:none" d="M 70.6448 219.879L 75.4418 219.879"/>
<path style="stroke:#000000; stroke-width:1.59941; fill:none" d="M 70.6448 187.09L 75.4418 187.09"/>
<path style="stroke:#000000; stroke-width:1.59941; fill:none" d="M 70.6448 153.504L 75.4418 153.504"/>
<path style="stroke:#000000; stroke-width:1.59941; fill:none" d="M 70.6448 119.914L 75.4418 119.914"/>
<path style="stroke:#000000; stroke-width:1.59941; fill:none" d="M 70.6448 87.129L 75.4418 87.129"/>
<path style="stroke:#000000; stroke-width:1.59941; fill:none" d="M 70.6448 53.539L 75.4418 53.539"/>
<path style="stroke:#000000; stroke-width:1.59941; fill:none" d="M 460.899 320.641L 456.102 320.641"/>
<path style="stroke:#000000; stroke-width:1.59941; fill:none" d="M 460.899 287.055L 456.102 287.055"/>
<path style="stroke:#000000; stroke-width:1.59941; fill:none" d="M 460.899 253.465L 456.102 253.465"/>
<path style="stroke:#000000; stroke-width:1.59941; fill:none" d="M 460.899 219.879L 456.102 219.879"/>
<path style="stroke:#000000; stroke-width:1.59941; fill:none" d="M 460.899 187.09L 456.102 187.09"/>
<path style="stroke:#000000; stroke-width:1.59941; fill:none" d="M 460.899 153.504L 456.102 153.504"/>
<path style="stroke:#000000; stroke-width:1.59941; fill:none" d="M 460.899 119.914L 456.102 119.914"/>
<path style="stroke:#000000; stroke-width:1.59941; fill:none" d="M 460.899 87.129L 456.102 87.129"/>
<path style="stroke:#000000; stroke-width:1.59941; fill:none" d="M 460.899 53.539L 456.102 53.539"/>
<path style="stroke:none; fill-rule:evenodd; fill:#000000" d="M 51.0428 309.602C 49.6368 309.602 48.3558 310.231 47.5668 311.301C 46.5858 312.637 46.0978 314.688 46.0978 317.512C 46.0978 322.66 47.8008 325.399 51.0468 325.399C 54.2458 325.399 55.9958 322.664 55.9958 317.641C 55.9958 314.668 55.5278 312.684 54.5238 311.301C 53.7388 310.215 52.4768 309.602 51.0468 309.602L 51.0428 309.602zM 51.0428 311.301C 53.0818 311.301 54.0898 313.364 54.0898 317.453C 54.0898 321.774 53.1018 323.797 50.9998 323.797C 49.0038 323.797 47.9958 321.692 47.9958 317.516C 47.9958 313.344 49.0038 311.301 51.0428 311.301z"/>
<path style="stroke:none; fill-rule:evenodd; fill:#000000" d="M 55.9848 289.399L 47.9608 289.399C 48.1528 288.153 48.8398 287.356 50.7148 286.254L 52.8638 285.094C 54.9918 283.934 56.0898 282.36 56.0898 280.489C 56.0898 279.219 55.5738 278.036 54.6718 277.215C 53.7698 276.399 52.6528 276.008 51.2108 276.008C 49.2778 276.008 47.8318 276.696 46.9958 277.989C 46.4608 278.805 46.2228 279.754 46.1798 281.305L 48.0778 281.305C 48.1408 280.286 48.2698 279.664 48.5318 279.176C 49.0278 278.262 50.0198 277.707 51.1678 277.707C 52.8948 277.707 54.1918 278.934 54.1918 280.571C 54.1918 281.774 53.4808 282.805 52.1168 283.582L 50.1328 284.7C 46.9378 286.504 46.0078 287.946 45.8318 291.301L 55.9888 291.301L 55.9848 289.399z"/>
<path style="stroke:none; fill-rule:evenodd; fill:#000000" d="M 52.2928 254.801L 52.2928 258.496L 54.0898 258.496L 54.0898 254.801L 56.3168 254.801L 56.3168 253.102L 54.0898 253.102L 54.0898 243.203L 52.6798 243.203L 45.6958 252.801L 45.6958 254.801L 52.2928 254.801zM 52.2928 253.102L 47.3638 253.102L 52.2928 246.434L 52.2928 253.102z"/>
<path style="stroke:none; fill-rule:evenodd; fill:#000000" d="M 55.8438 213.602C 55.4808 211.094 53.8518 209.602 51.5348 209.602C 49.8638 209.602 48.3638 210.422 47.4648 211.782C 46.5238 213.27 46.0938 215.145 46.0938 217.93C 46.0938 220.496 46.4808 222.137 47.3788 223.496C 48.1918 224.723 49.5238 225.395 51.1988 225.395C 54.0978 225.395 56.1838 223.243 56.1838 220.246C 56.1838 217.403 54.2418 215.399 51.5038 215.399C 49.9958 215.399 48.8088 215.977 47.9888 217.098C 48.0078 213.371 49.2108 211.301 51.3868 211.301C 52.7188 211.301 53.6448 212.137 53.9458 213.598L 55.8438 213.602zM 51.2818 217.098C 53.1328 217.098 54.2928 218.36 54.2928 220.399C 54.2928 222.305 52.9848 223.696 51.2188 223.696C 49.4338 223.696 48.0778 222.243 48.0778 220.289C 48.0778 218.407 49.3868 217.098 51.2848 217.098L 51.2818 217.098z"/>
<path style="stroke:none; fill-rule:evenodd; fill:#000000" d="M 53.5348 183.254C 55.0818 182.305 55.5898 181.528 55.5898 180.082C 55.5898 177.688 53.7308 176.004 51.0388 176.004C 48.3708 176.004 46.4918 177.688 46.4918 180.082C 46.4918 181.504 46.9918 182.282 48.5038 183.254C 46.7578 184.094 45.8948 185.368 45.8948 187.051C 45.8948 189.856 48.0118 191.797 51.0428 191.797C 54.0708 191.797 56.1918 189.856 56.1918 187.071C 56.1918 185.368 55.3238 184.094 53.5348 183.254zM 51.0428 177.7C 52.6558 177.7 53.6918 178.645 53.6918 180.129C 53.6918 181.547 52.6368 182.493 51.0428 182.493C 49.4488 182.493 48.3948 181.547 48.3948 180.106C 48.3948 178.645 49.4488 177.696 51.0428 177.696L 51.0428 177.7zM 51.0428 184.098C 52.9728 184.098 54.2928 185.301 54.2928 187.086C 54.2928 188.891 52.9768 190.094 50.9998 190.094C 49.1138 190.094 47.7968 188.871 47.7968 187.086C 47.7968 185.305 49.1138 184.098 51.0428 184.098z"/>
<path style="stroke:none; fill-rule:evenodd; fill:#000000" d="M 38.793 146.805L 38.793 157.7L 40.5899 157.7L 40.5899 142.403L 39.336 142.403C 38.668 144.754 38.2344 145.078 35.293 145.446L 35.293 146.801L 38.793 146.805z"/>
<path style="stroke:none; fill-rule:evenodd; fill:#000000" d="M 51.0428 142.403C 49.6368 142.403 48.3558 143.032 47.5668 144.102C 46.5858 145.438 46.0978 147.489 46.0978 150.313C 46.0978 155.461 47.8008 158.2 51.0468 158.2C 54.2458 158.2 55.9958 155.465 55.9958 150.442C 55.9958 147.469 55.5278 145.485 54.5238 144.102C 53.7388 143.016 52.4768 142.403 51.0468 142.403L 51.0428 142.403zM 51.0428 144.102C 53.0818 144.102 54.0898 146.164 54.0898 150.254C 54.0898 154.575 53.1018 156.598 50.9998 156.598C 49.0038 156.598 47.9958 154.493 47.9958 150.317C 47.9958 146.145 49.0038 144.102 51.0428 144.102z"/>
<path style="stroke:none; fill-rule:evenodd; fill:#000000" d="M 38.793 114.106L 38.793 125L 40.5899 125L 40.5899 109.703L 39.336 109.703C 38.668 112.055 38.2344 112.379 35.293 112.746L 35.293 114.102L 38.793 114.106z"/>
<path style="stroke:none; fill-rule:evenodd; fill:#000000" d="M 55.9848 123.098L 47.9608 123.098C 48.1528 121.852 48.8398 121.055 50.7148 119.953L 52.8638 118.793C 54.9918 117.633 56.0898 116.059 56.0898 114.188C 56.0898 112.918 55.5738 111.735 54.6718 110.914C 53.7698 110.098 52.6528 109.707 51.2108 109.707C 49.2778 109.707 47.8318 110.395 46.9958 111.688C 46.4608 112.504 46.2228 113.453 46.1798 115.004L 48.0778 115.004C 48.1408 113.985 48.2698 113.364 48.5318 112.875C 49.0278 111.961 50.0198 111.407 51.1678 111.407C 52.8948 111.407 54.1918 112.633 54.1918 114.27C 54.1918 115.473 53.4808 116.504 52.1168 117.282L 50.1328 118.399C 46.9378 120.203 46.0078 121.645 45.8318 125L 55.9888 125L 55.9848 123.098z"/>
<path style="stroke:none; fill-rule:evenodd; fill:#000000" d="M 38.793 80.504L 38.793 91.399L 40.5899 91.399L 40.5899 76.102L 39.336 76.102C 38.668 78.453 38.2344 78.778 35.293 79.145L 35.293 80.5L 38.793 80.504z"/>
<path style="stroke:none; fill-rule:evenodd; fill:#000000" d="M 52.2928 87.7L 52.2928 91.395L 54.0898 91.395L 54.0898 87.7L 56.3168 87.7L 56.3168 86L 54.0898 86L 54.0898 76.102L 52.6798 76.102L 45.6958 85.7L 45.6958 87.7L 52.2928 87.7zM 52.2928 86L 47.3638 86L 52.2928 79.332L 52.2928 86z"/>
<path style="stroke:none; fill-rule:evenodd; fill:#000000" d="M 38.793 46.903L 38.793 57.797L 40.5899 57.797L 40.5899 42.5L 39.336 42.5C 38.668 44.852 38.2344 45.176 35.293 45.543L 35.293 46.899L 38.793 46.903z"/>
<path style="stroke:none; fill-rule:evenodd; fill:#000000" d="M 55.8438 46.5C 55.4808 43.993 53.8518 42.5 51.5348 42.5C 49.8638 42.5 48.3638 43.321 47.4648 44.68C 46.5238 46.168 46.0938 48.043 46.0938 50.828C 46.0938 53.395 46.4808 55.036 47.3788 56.395C 48.1918 57.621 49.5238 58.293 51.1988 58.293C 54.0978 58.293 56.1838 56.141 56.1838 53.145C 56.1838 50.301 54.2418 48.297 51.5038 48.297C 49.9958 48.297 48.8088 48.875 47.9888 49.996C 48.0078 46.27 49.2108 44.2 51.3868 44.2C 52.7188 44.2 53.6448 45.036 53.9458 46.496L 55.8438 46.5zM 51.2818 50C 53.1328 50 54.2928 51.262 54.2928 53.301C 54.2928 55.207 52.9848 56.598 51.2188 56.598C 49.4338 56.598 48.0778 55.145 48.0778 53.192C 48.0778 51.309 49.3868 50 51.2848 50L 51.2818 50z"/>
<path style="stroke:none; fill-rule:evenodd; fill:#000000" d="M 9.1915 267L 9.1915 259.422L 6.4922 259.422L 6.4922 267L 2.9922 267L 2.9922 258.817L 0.292999 258.817L 0.292999 270.2L 15.9922 270.2L 15.9922 258.43L 13.293 258.43L 13.293 267L 9.1915 267z"/>
<path style="stroke:none; fill-rule:evenodd; fill:#000000" d="M 4.293 256.102L 15.9922 256.102L 15.9922 253.102L 9.836 253.102C 8.0782 253.102 7.1954 252.223 7.1954 250.461C 7.1954 250.141 7.2032 249.926 7.2266 249.516L 4.1954 249.516C 4.1954 249.688 4.1954 249.793 4.1954 249.879C 4.1954 251.254 5.0821 252.457 6.6211 253.102L 4.293 253.102L 4.293 256.102z"/>
<path style="stroke:none; fill-rule:evenodd; fill:#000000" d="M 4.293 247.7L 15.9922 247.7L 15.9922 244.7L 9.836 244.7C 8.0782 244.7 7.1954 243.821 7.1954 242.059C 7.1954 241.739 7.2032 241.524 7.2266 241.114L 4.1954 241.114C 4.1954 241.286 4.1954 241.391 4.1954 241.477C 4.1954 242.852 5.0821 244.055 6.6211 244.7L 4.293 244.7L 4.293 247.7z"/>
<path style="stroke:none; fill-rule:evenodd; fill:#000000" d="M 4.0938 234.172C 4.0938 237.723 6.4571 239.899 10.293 239.899C 14.1485 239.899 16.4922 237.727 16.4922 234.149C 16.4922 230.618 14.1329 228.399 10.3829 228.399C 6.418 228.399 4.0977 230.528 4.0977 234.168L 4.0938 234.172zM 6.4922 234.149C 6.4922 232.485 8.0079 231.399 10.336 231.399C 12.5508 231.399 14.0899 232.524 14.0899 234.149C 14.0899 235.793 12.5547 236.895 10.293 236.895C 8.0313 236.895 6.4961 235.793 6.4961 234.149L 6.4922 234.149z"/>
<path style="stroke:none; fill-rule:evenodd; fill:#000000" d="M 4.293 226.102L 15.9922 226.102L 15.9922 223.102L 9.836 223.102C 8.0782 223.102 7.1954 222.223 7.1954 220.461C 7.1954 220.141 7.2032 219.926 7.2266 219.516L 4.1954 219.516C 4.1954 219.688 4.1954 219.793 4.1954 219.879C 4.1954 221.254 5.0821 222.457 6.6211 223.102L 4.293 223.102L 4.293 226.102z"/>
<path style="stroke:none; fill-rule:evenodd; fill:#000000" d="M 8.0899 208.196C 5.6016 208.239 4.0938 210.145 4.0938 213.286C 4.0938 216.254 5.586 218.094 7.9883 218.094C 8.7657 218.094 9.4376 217.86 9.8907 217.446C 10.3008 217.036 10.4961 216.668 10.8633 215.539L 11.9883 211.922C 12.2227 211.164 12.461 210.903 12.9376 210.903C 13.6485 210.903 14.0821 211.743 14.0821 213.145C 14.0821 213.918 13.9336 214.543 13.6797 214.934C 13.4493 215.254 13.2149 215.383 12.5938 215.516L 12.5938 218.469C 15.1407 218.383 16.4844 216.512 16.4844 212.981C 16.4844 211.368 16.1407 210.141 15.4493 209.278C 14.7579 208.418 13.6758 207.899 12.5274 207.899C 11.0157 207.899 10.0391 208.657 9.586 210.196L 8.4844 214.032C 8.2266 214.875 8.0547 215.09 7.5782 215.09C 6.9297 215.09 6.4961 214.395 6.4961 213.328C 6.4961 211.871 7.0196 211.153 8.0899 211.133L 8.0899 208.196z"/>
<path style="stroke:none; fill-rule:evenodd; fill:#000000" d="M 4.5899 194.602L 4.5899 196.297L 1.4415 196.297L 1.4415 199.297L 4.5899 199.297L 4.5899 200.793L 6.5899 200.793L 6.5899 199.297L 13.75 199.297C 15.5821 199.297 16.4883 198.328 16.4883 196.348C 16.4883 195.68 16.4258 195.145 16.254 194.602L 14.1368 194.602C 14.1719 194.907 14.1915 195.078 14.1915 195.297C 14.1915 196.102 13.9571 196.297 12.9219 196.297L 6.5938 196.297L 6.5938 194.602L 4.5899 194.602z"/>
<path style="stroke:none; fill-rule:evenodd; fill:#000000" d="M 4.0938 187.371C 4.0938 190.922 6.4571 193.098 10.293 193.098C 14.1485 193.098 16.4922 190.926 16.4922 187.348C 16.4922 183.817 14.1329 181.598 10.3829 181.598C 6.418 181.598 4.0977 183.727 4.0977 187.368L 4.0938 187.371zM 6.4922 187.348C 6.4922 185.684 8.0079 184.598 10.336 184.598C 12.5508 184.598 14.0899 185.723 14.0899 187.348C 14.0899 188.993 12.5547 190.094 10.293 190.094C 8.0313 190.094 6.4961 188.993 6.4961 187.348L 6.4922 187.348z"/>
<path style="stroke:none; fill-rule:evenodd; fill:#000000" d="M 5.586 159.973C 4.2266 160.078 3.3633 160.36 2.4805 161.028C 0.8829 162.231 0 164.168 0 166.512C 0 170.942 3.1719 173.696 8.2696 173.696C 13.3204 173.696 16.4961 170.965 16.4961 166.598C 16.4961 162.707 14.2305 160.102 10.6211 159.907L 10.6211 163.055C 12.6446 163.246 13.7969 164.52 13.7969 166.524C 13.7969 169.024 11.7735 170.489 8.3438 170.489C 4.875 170.489 2.8008 168.961 2.8008 166.414C 2.8008 165.297 3.1836 164.368 3.9297 163.762C 4.3555 163.418 4.7579 163.246 5.5899 163.051L 5.586 159.973z"/>
<path style="stroke:none; fill-rule:evenodd; fill:#000000" d="M 4.293 157.7L 15.9922 157.7L 15.9922 154.7L 9.836 154.7C 8.0782 154.7 7.1954 153.821 7.1954 152.059C 7.1954 151.739 7.2032 151.524 7.2266 151.114L 4.1954 151.114C 4.1954 151.286 4.1954 151.391 4.1954 151.477C 4.1954 152.852 5.0821 154.055 6.6211 154.7L 4.293 154.7L 4.293 157.7z"/>
<path style="stroke:none; fill-rule:evenodd; fill:#000000" d="M 4.3321 146.2L 4.3321 149.2L 15.9883 149.2L 15.9883 146.2L 4.3321 146.2zM 0.292999 146.2L 0.292999 149.2L 2.9922 149.2L 2.9922 146.2L 0.292999 146.2z"/>
<path style="stroke:none; fill-rule:evenodd; fill:#000000" d="M 4.5899 138.2L 4.5899 139.895L 1.4415 139.895L 1.4415 142.895L 4.5899 142.895L 4.5899 144.391L 6.5899 144.391L 6.5899 142.895L 13.75 142.895C 15.5821 142.895 16.4883 141.926 16.4883 139.946C 16.4883 139.278 16.4258 138.743 16.254 138.2L 14.1368 138.2C 14.1719 138.504 14.1915 138.676 14.1915 138.895C 14.1915 139.7 13.9571 139.895 12.9219 139.895L 6.5938 139.895L 6.5938 138.2L 4.5899 138.2z"/>
<path style="stroke:none; fill-rule:evenodd; fill:#000000" d="M 11.0938 126.188C 10.836 126.168 10.7266 126.168 10.5743 126.168C 9.4063 126.168 8.3204 126.34 7.5 126.621C 5.379 127.395 4.0977 129.274 4.0977 131.629C 4.0977 134.973 6.5274 137.024 10.4493 137.024C 14.1993 137.024 16.4961 134.996 16.4961 131.692C 16.4961 129.082 15.0079 126.965 12.7149 126.297L 12.7149 129.274C 13.6524 129.637 14.1954 130.481 14.1954 131.582C 14.1954 132.446 13.8282 133.137 13.1719 133.567C 12.7383 133.844 12.211 133.953 11.0977 133.996L 11.0938 126.188zM 9.0938 133.957C 7.2969 133.766 6.3946 133.008 6.3946 131.672C 6.3946 130.918 6.7657 130.227 7.379 129.793C 7.8165 129.516 8.2774 129.383 9.0899 129.321L 9.0938 133.957z"/>
<path style="stroke:none; fill-rule:evenodd; fill:#000000" d="M 4.293 124.102L 15.9922 124.102L 15.9922 121.102L 9.836 121.102C 8.0782 121.102 7.1954 120.223 7.1954 118.461C 7.1954 118.141 7.2032 117.926 7.2266 117.516L 4.1954 117.516C 4.1954 117.688 4.1954 117.793 4.1954 117.879C 4.1954 119.254 5.0821 120.457 6.6211 121.102L 4.293 121.102L 4.293 124.102z"/>
<path style="stroke:none; fill-rule:evenodd; fill:#000000" d="M 4.3321 112.598L 4.3321 115.598L 15.9883 115.598L 15.9883 112.598L 4.3321 112.598zM 0.292999 112.598L 0.292999 115.598L 2.9922 115.598L 2.9922 112.598L 0.292999 112.598z"/>
<path style="stroke:none; fill-rule:evenodd; fill:#000000" d="M 4.0938 104.571C 4.0938 108.121 6.4571 110.297 10.293 110.297C 14.1485 110.297 16.4922 108.125 16.4922 104.547C 16.4922 101.016 14.1329 98.797 10.3829 98.797C 6.418 98.797 4.0977 100.926 4.0977 104.567L 4.0938 104.571zM 6.4922 104.551C 6.4922 102.887 8.0079 101.801 10.336 101.801C 12.5508 101.801 14.0899 102.926 14.0899 104.551C 14.0899 106.196 12.5547 107.297 10.293 107.297C 8.0313 107.297 6.4961 106.196 6.4961 104.551L 6.4922 104.551z"/>
<path style="stroke:none; fill-rule:evenodd; fill:#000000" d="M 4.293 96.5L 15.9922 96.5L 15.9922 93.5L 8.9141 93.5C 7.5157 93.5 6.5977 92.528 6.5977 91.051C 6.5977 89.754 7.3204 89.102 8.7188 89.102L 15.9961 89.102L 15.9961 86.102L 8.1524 86.102C 5.5743 86.102 4.0977 87.524 4.0977 90.004C 4.0977 91.578 4.6915 92.633 6.0196 93.496L 4.2969 93.496L 4.293 96.5z"/>
<path style="stroke:none; fill-rule:evenodd; fill:#000000" d="M 127.492 10.098L 131.489 10.098C 134.352 10.098 136.192 8.05499 136.192 4.86798C 136.192 1.72699 134.422 0 131.172 0L 124.293 0L 124.293 15.7L 127.492 15.7L 127.492 10.098zM 127.492 7.39899L 127.492 2.69998L 130.485 2.69998C 132.196 2.69998 132.989 3.44998 132.989 5.05899C 132.989 6.64499 132.199 7.39499 130.485 7.39499L 127.492 7.39899z"/>
<path style="stroke:none; fill-rule:evenodd; fill:#000000" d="M 148.305 10.801C 148.324 10.543 148.324 10.434 148.324 10.282C 148.324 9.11398 148.153 8.02798 147.871 7.207C 147.098 5.086 145.219 3.80499 142.864 3.80499C 139.52 3.80499 137.469 6.23499 137.469 10.157C 137.469 13.907 139.496 16.203 142.801 16.203C 145.41 16.203 147.528 14.715 148.196 12.422L 145.219 12.422C 144.856 13.356 144.012 13.903 142.91 13.903C 142.047 13.903 141.356 13.536 140.926 12.879C 140.649 12.446 140.539 11.918 140.496 10.805L 148.305 10.801zM 140.532 8.80099C 140.723 7.004 141.481 6.10199 142.817 6.10199C 143.571 6.10199 144.262 6.47299 144.696 7.086C 144.973 7.52399 145.106 7.98499 145.168 8.797L 140.532 8.80099z"/>
<path style="stroke:none; fill-rule:evenodd; fill:#000000" d="M 150.391 4L 150.391 15.7L 153.391 15.7L 153.391 9.543C 153.391 7.78598 154.27 6.90298 156.032 6.90298C 156.352 6.90298 156.567 6.91 156.977 6.93399L 156.977 3.90298C 156.805 3.90298 156.699 3.90298 156.614 3.90298C 155.239 3.90298 154.035 4.789 153.391 6.328L 153.391 4L 150.391 4z"/>
<path style="stroke:none; fill-rule:evenodd; fill:#000000" d="M 168.297 7.797C 168.254 5.30899 166.348 3.80099 163.207 3.80099C 160.239 3.80099 158.399 5.293 158.399 7.69598C 158.399 8.47299 158.633 9.14499 159.047 9.59799C 159.457 10.008 159.824 10.203 160.953 10.571L 164.571 11.696C 165.328 11.93 165.59 12.168 165.59 12.645C 165.59 13.356 164.75 13.789 163.348 13.789C 162.574 13.789 161.949 13.641 161.559 13.387C 161.239 13.157 161.11 12.922 160.977 12.301L 158.024 12.301C 158.11 14.848 159.981 16.192 163.512 16.192C 165.125 16.192 166.352 15.848 167.215 15.157C 168.074 14.465 168.594 13.383 168.594 12.235C 168.594 10.723 167.836 9.746 166.297 9.293L 162.461 8.19199C 161.617 7.93399 161.403 7.76199 161.403 7.28598C 161.403 6.63699 162.098 6.203 163.164 6.203C 164.621 6.203 165.34 6.72699 165.36 7.797L 168.297 7.797z"/>
<path style="stroke:none; fill-rule:evenodd; fill:#000000" d="M 180.707 10.801C 180.727 10.543 180.727 10.434 180.727 10.282C 180.727 9.11398 180.555 8.02798 180.274 7.207C 179.5 5.086 177.621 3.80499 175.266 3.80499C 171.922 3.80499 169.871 6.23499 169.871 10.157C 169.871 13.907 171.899 16.203 175.203 16.203C 177.813 16.203 179.93 14.715 180.598 12.422L 177.621 12.422C 177.258 13.356 176.414 13.903 175.313 13.903C 174.449 13.903 173.758 13.536 173.328 12.879C 173.051 12.446 172.942 11.918 172.899 10.805L 180.707 10.801zM 172.934 8.80099C 173.125 7.004 173.883 6.10199 175.219 6.10199C 175.973 6.10199 176.664 6.47299 177.098 7.086C 177.375 7.52399 177.508 7.98499 177.571 8.797L 172.934 8.80099z"/>
<path style="stroke:none; fill-rule:evenodd; fill:#000000" d="M 188.949 15.7L 192.965 4L 189.77 4L 187.418 12.567L 184.895 4L 181.699 4L 185.778 15.7L 188.949 15.7z"/>
<path style="stroke:none; fill-rule:evenodd; fill:#000000" d="M 204.805 10.801C 204.824 10.543 204.824 10.434 204.824 10.282C 204.824 9.11398 204.653 8.02798 204.371 7.207C 203.598 5.086 201.719 3.80499 199.364 3.80499C 196.02 3.80499 193.969 6.23499 193.969 10.157C 193.969 13.907 195.996 16.203 199.301 16.203C 201.91 16.203 204.028 14.715 204.696 12.422L 201.719 12.422C 201.356 13.356 200.512 13.903 199.41 13.903C 198.547 13.903 197.856 13.536 197.426 12.879C 197.149 12.446 197.039 11.918 196.996 10.805L 204.805 10.801zM 197.032 8.80099C 197.223 7.004 197.981 6.10199 199.317 6.10199C 200.071 6.10199 200.762 6.47299 201.196 7.086C 201.473 7.52399 201.606 7.98499 201.668 8.797L 197.032 8.80099z"/>
<path style="stroke:none; fill-rule:evenodd; fill:#000000" d="M 206.891 4L 206.891 15.7L 209.891 15.7L 209.891 9.543C 209.891 7.78598 210.77 6.90298 212.532 6.90298C 212.852 6.90298 213.067 6.91 213.477 6.93399L 213.477 3.90298C 213.305 3.90298 213.199 3.90298 213.114 3.90298C 211.739 3.90298 210.535 4.789 209.891 6.328L 209.891 4L 206.891 4z"/>
<path style="stroke:none; fill-rule:evenodd; fill:#000000" d="M 225.207 15.332C 224.653 14.836 224.496 14.512 224.496 13.903L 224.496 7.40298C 224.496 5.01999 222.883 3.80499 219.739 3.80499C 216.594 3.80499 214.957 5.15698 214.766 7.88699L 217.649 7.88699C 217.797 6.61398 218.289 6.203 219.762 6.203C 220.914 6.203 221.492 6.59399 221.492 7.379C 221.492 7.76999 221.301 8.11798 220.981 8.293C 220.574 8.508 220.574 8.508 219.098 8.75L 217.903 8.965C 215.614 9.35599 214.5 10.555 214.5 12.668C 214.5 13.668 214.778 14.496 215.309 15.086C 215.969 15.782 216.969 16.196 217.996 16.196C 219.274 16.196 220.449 15.633 221.496 14.528C 221.496 15.133 221.559 15.348 221.848 15.696L 225.207 15.696L 225.207 15.332zM 221.492 11.024C 221.492 12.793 220.637 13.797 219.117 13.797C 218.114 13.797 217.492 13.254 217.492 12.379C 217.492 11.461 217.961 11.028 219.203 10.766L 220.227 10.571C 221.016 10.418 221.145 10.375 221.489 10.2L 221.492 11.024z"/>
<path style="stroke:none; fill-rule:evenodd; fill:#000000" d="M 232.391 4.30099L 230.696 4.30099L 230.696 1.14899L 227.696 1.14899L 227.696 4.30099L 226.199 4.30099L 226.199 6.30099L 227.696 6.30099L 227.696 13.461C 227.696 15.293 228.664 16.2 230.645 16.2C 231.313 16.2 231.848 16.137 232.391 15.965L 232.391 13.848C 232.086 13.883 231.914 13.903 231.696 13.903C 230.891 13.903 230.696 13.668 230.696 12.633L 230.696 6.30499L 232.391 6.30499L 232.391 4.30099z"/>
<path style="stroke:none; fill-rule:evenodd; fill:#000000" d="M 237.594 4.039L 234.594 4.039L 234.594 15.696L 237.594 15.696L 237.594 4.039zM 237.594 0L 234.594 0L 234.594 2.69998L 237.594 2.69998L 237.594 0z"/>
<path style="stroke:none; fill-rule:evenodd; fill:#000000" d="M 245.621 3.80099C 242.071 3.80099 239.895 6.164 239.895 10C 239.895 13.856 242.067 16.2 245.645 16.2C 249.176 16.2 251.395 13.84 251.395 10.09C 251.395 6.125 249.266 3.80499 245.625 3.80499L 245.621 3.80099zM 245.641 6.19998C 247.305 6.19998 248.391 7.715 248.391 10.043C 248.391 12.258 247.266 13.797 245.641 13.797C 243.996 13.797 242.895 12.262 242.895 10C 242.895 7.73898 243.996 6.203 245.641 6.203L 245.641 6.19998z"/>
<path style="stroke:none; fill-rule:evenodd; fill:#000000" d="M 253.59 4L 253.59 15.7L 256.59 15.7L 256.59 8.621C 256.59 7.22299 257.563 6.30499 259.039 6.30499C 260.336 6.30499 260.989 7.02798 260.989 8.42599L 260.989 15.703L 263.989 15.703L 263.989 7.85999C 263.989 5.28198 262.567 3.80499 260.086 3.80499C 258.512 3.80499 257.457 4.39899 256.594 5.72699L 256.594 4.004L 253.59 4z"/>
<path style="stroke:none; fill-rule:evenodd; fill:#000000" d="M 276.297 7.797C 276.254 5.30899 274.348 3.80099 271.207 3.80099C 268.239 3.80099 266.399 5.293 266.399 7.69598C 266.399 8.47299 266.633 9.14499 267.047 9.59799C 267.457 10.008 267.824 10.203 268.953 10.571L 272.571 11.696C 273.328 11.93 273.59 12.168 273.59 12.645C 273.59 13.356 272.75 13.789 271.348 13.789C 270.574 13.789 269.949 13.641 269.559 13.387C 269.239 13.157 269.11 12.922 268.977 12.301L 266.024 12.301C 266.11 14.848 267.981 16.192 271.512 16.192C 273.125 16.192 274.352 15.848 275.215 15.157C 276.074 14.465 276.594 13.383 276.594 12.235C 276.594 10.723 275.836 9.746 274.297 9.293L 270.461 8.19199C 269.617 7.93399 269.403 7.76199 269.403 7.28598C 269.403 6.63699 270.098 6.203 271.164 6.203C 272.621 6.203 273.34 6.72699 273.36 7.797L 276.297 7.797z"/>
<path style="stroke:none; fill-rule:evenodd; fill:#000000" d="M 287.895 4.039L 284.895 4.039L 284.895 15.696L 287.895 15.696L 287.895 4.039zM 287.895 0L 284.895 0L 284.895 2.69998L 287.895 2.69998L 287.895 0z"/>
<path style="stroke:none; fill-rule:evenodd; fill:#000000" d="M 290.891 4L 290.891 15.7L 293.891 15.7L 293.891 8.621C 293.891 7.22299 294.864 6.30499 296.34 6.30499C 297.637 6.30499 298.289 7.02798 298.289 8.42599L 298.289 15.703L 301.289 15.703L 301.289 7.85999C 301.289 5.28198 299.867 3.80499 297.387 3.80499C 295.813 3.80499 294.758 4.39899 293.895 5.72699L 293.895 4.004L 290.891 4z"/>
<path style="stroke:none; fill-rule:evenodd; fill:#000000" d="M 315.09 4.30099L 313.395 4.30099L 313.395 1.14899L 310.395 1.14899L 310.395 4.30099L 308.899 4.30099L 308.899 6.30099L 310.395 6.30099L 310.395 13.461C 310.395 15.293 311.364 16.2 313.344 16.2C 314.012 16.2 314.547 16.137 315.09 15.965L 315.09 13.848C 314.785 13.883 314.614 13.903 314.395 13.903C 313.59 13.903 313.395 13.668 313.395 12.633L 313.395 6.30499L 315.09 6.30499L 315.09 4.30099z"/>
<path style="stroke:none; fill-rule:evenodd; fill:#000000" d="M 317.293 0L 317.293 15.7L 320.293 15.7L 320.293 8.621C 320.293 7.26999 321.266 6.30499 322.629 6.30499C 323.278 6.30499 323.797 6.547 324.141 7.02798C 324.399 7.418 324.485 7.72299 324.485 8.48898L 324.485 15.7L 327.485 15.7L 327.485 7.85599C 327.485 6.40698 327.098 5.36798 326.301 4.69598C 325.633 4.133 324.664 3.80499 323.696 3.80499C 322.211 3.80499 321.133 4.422 320.293 5.72699L 320.293 0.0039978L 317.293 0z"/>
<path style="stroke:none; fill-rule:evenodd; fill:#000000" d="M 340.305 10.801C 340.324 10.543 340.324 10.434 340.324 10.282C 340.324 9.11398 340.153 8.02798 339.871 7.207C 339.098 5.086 337.219 3.80499 334.864 3.80499C 331.52 3.80499 329.469 6.23499 329.469 10.157C 329.469 13.907 331.496 16.203 334.801 16.203C 337.41 16.203 339.528 14.715 340.196 12.422L 337.219 12.422C 336.856 13.356 336.012 13.903 334.91 13.903C 334.047 13.903 333.356 13.536 332.926 12.879C 332.649 12.446 332.539 11.918 332.496 10.805L 340.305 10.801zM 332.532 8.80099C 332.723 7.004 333.481 6.10199 334.817 6.10199C 335.571 6.10199 336.262 6.47299 336.696 7.086C 336.973 7.52399 337.106 7.98499 337.168 8.797L 332.532 8.80099z"/>
<path style="stroke:none; fill-rule:evenodd; fill:#000000" d="M 351.594 3.43799L 354.438 15.7L 357.692 15.7L 360.492 3.43799L 360.492 15.7L 363.692 15.7L 363.692 0L 358.824 0L 356.067 12.481L 353.223 0L 348.399 0L 348.399 15.7L 351.598 15.7L 351.594 3.43799z"/>
<path style="stroke:none; fill-rule:evenodd; fill:#000000" d="M 371.52 3.80099C 367.969 3.80099 365.793 6.164 365.793 10C 365.793 13.856 367.965 16.2 371.543 16.2C 375.074 16.2 377.293 13.84 377.293 10.09C 377.293 6.125 375.164 3.80499 371.524 3.80499L 371.52 3.80099zM 371.543 6.19998C 373.207 6.19998 374.293 7.715 374.293 10.043C 374.293 12.258 373.168 13.797 371.543 13.797C 369.899 13.797 368.797 12.262 368.797 10C 368.797 7.73898 369.899 6.203 371.543 6.203L 371.543 6.19998z"/>
<path style="stroke:none; fill-rule:evenodd; fill:#000000" d="M 386.992 15.703L 389.992 15.703L 389.992 0L 386.992 0L 386.992 5.55099C 386.231 4.35599 385.207 3.80099 383.742 3.80099C 380.934 3.80099 378.797 6.48898 378.797 10.024C 378.797 11.602 379.274 13.207 380.059 14.336C 380.864 15.461 382.301 16.2 383.742 16.2C 385.203 16.2 386.227 15.664 386.992 14.52L 386.992 15.703zM 384.391 6.30099C 385.953 6.30099 386.989 7.81299 386.989 10.067C 386.989 12.211 385.934 13.7 384.391 13.7C 382.852 13.7 381.793 12.192 381.793 10.024C 381.793 7.836 382.848 6.30099 384.391 6.30099z"/>
<path style="stroke:none; fill-rule:evenodd; fill:#000000" d="M 402.707 10.801C 402.727 10.543 402.727 10.434 402.727 10.282C 402.727 9.11398 402.555 8.02798 402.274 7.207C 401.5 5.086 399.621 3.80499 397.266 3.80499C 393.922 3.80499 391.871 6.23499 391.871 10.157C 391.871 13.907 393.899 16.203 397.203 16.203C 399.813 16.203 401.93 14.715 402.598 12.422L 399.621 12.422C 399.258 13.356 398.414 13.903 397.313 13.903C 396.449 13.903 395.758 13.536 395.328 12.879C 395.051 12.446 394.942 11.918 394.899 10.805L 402.707 10.801zM 394.934 8.80099C 395.125 7.004 395.883 6.10199 397.219 6.10199C 397.973 6.10199 398.664 6.47299 399.098 7.086C 399.375 7.52399 399.508 7.98499 399.571 8.797L 394.934 8.80099z"/>
<path style="stroke:none; fill-rule:evenodd; fill:#000000" d="M 404.891 15.7L 407.891 15.7L 407.891 0L 404.891 0L 404.891 15.7z"/>
<path style="stroke:#000000; stroke-width:1.59941; fill:none" d="M 88.2388 320.641L 109.028 320.641L 109.028 271.86L 88.2388 271.86L 88.2388 320.641z"/>
<path style="stroke:#000000; stroke-width:1.59941; fill:none" d="M 185.801 320.641L 206.59 320.641L 206.59 208.684L 185.801 208.684L 185.801 320.641z"/>
<path style="stroke:#000000; stroke-width:1.59941; fill:none" d="M 283.364 320.641L 304.153 320.641L 304.153 215.082L 283.364 215.082L 283.364 320.641z"/>
<path style="stroke:#000000; stroke-width:1.59941; fill:none" d="M 380.93 320.641L 401.719 320.641L 401.719 225.477L 380.93 225.477L 380.93 320.641z"/>
<path style="stroke:#000000; stroke-width:1.59941; fill:none" d="M 98.6328 275.059L 98.6328 268.664"/>
<path style="stroke:#000000; stroke-width:1.59941; fill:none" d="M 196.199 225.477L 196.199 191.09"/>
<path style="stroke:#000000; stroke-width:1.59941; fill:none" d="M 293.762 219.078L 293.762 211.883"/>
<path style="stroke:#000000; stroke-width:1.59941; fill:none" d="M 391.324 228.676L 391.324 221.481"/>
<path style="stroke:#000000; stroke-width:1.59941; fill:none" d="M 89.0348 275.059L 107.426 275.059"/>
<path style="stroke:#000000; stroke-width:1.59941; fill:none" d="M 89.0348 268.66L 107.426 268.66"/>
<path style="stroke:#000000; stroke-width:1.59941; fill:none" d="M 187.403 225.477L 204.992 225.477"/>
<path style="stroke:#000000; stroke-width:1.59941; fill:none" d="M 187.403 191.09L 204.992 191.09"/>
<path style="stroke:#000000; stroke-width:1.59941; fill:none" d="M 284.965 219.078L 303.356 219.078"/>
<path style="stroke:#000000; stroke-width:1.59941; fill:none" d="M 284.965 211.883L 303.356 211.883"/>
<path style="stroke:#000000; stroke-width:1.59941; fill:none" d="M 382.528 228.676L 400.918 228.676"/>
<path style="stroke:#000000; stroke-width:1.59941; fill:none" d="M 382.528 221.477L 400.918 221.477"/>
<path style="stroke:none; fill-rule:evenodd; fill:#9f9f9f" d="M 109.032 320.641L 129.821 320.641L 129.821 276.66L 109.032 276.66L 109.032 320.641z"/>
<path style="stroke:#9f9f9f; stroke-width:0.0; fill:none" d="M 109.032 320.641L 129.821 320.641L 129.821 276.66L 109.032 276.66L 109.032 320.641z"/>
<path style="stroke:#000000; stroke-width:1.59941; fill:none" d="M 109.032 320.641L 129.821 320.641L 129.821 276.66L 109.032 276.66L 109.032 320.641z"/>
<path style="stroke:none; fill-rule:evenodd; fill:#9f9f9f" d="M 206.594 320.641L 227.383 320.641L 227.383 106.321L 206.594 106.321L 206.594 320.641z"/>
<path style="stroke:#9f9f9f; stroke-width:0.0; fill:none" d="M 206.594 320.641L 227.383 320.641L 227.383 106.321L 206.594 106.321L 206.594 320.641z"/>
<path style="stroke:#000000; stroke-width:1.59941; fill:none" d="M 206.594 320.641L 227.383 320.641L 227.383 106.321L 206.594 106.321L 206.594 320.641z"/>
<path style="stroke:none; fill-rule:evenodd; fill:#9f9f9f" d="M 304.156 320.641L 324.946 320.641L 324.946 239.871L 304.156 239.871L 304.156 320.641z"/>
<path style="stroke:#9f9f9f; stroke-width:0.0; fill:none" d="M 304.156 320.641L 324.946 320.641L 324.946 239.871L 304.156 239.871L 304.156 320.641z"/>
<path style="stroke:#000000; stroke-width:1.59941; fill:none" d="M 304.156 320.641L 324.946 320.641L 324.946 239.871L 304.156 239.871L 304.156 320.641z"/>
<path style="stroke:none; fill-rule:evenodd; fill:#9f9f9f" d="M 401.723 320.641L 422.512 320.641L 422.512 239.075L 401.723 239.075L 401.723 320.641z"/>
<path style="stroke:#9f9f9f; stroke-width:0.0; fill:none" d="M 401.723 320.641L 422.512 320.641L 422.512 239.075L 401.723 239.075L 401.723 320.641z"/>
<path style="stroke:#000000; stroke-width:1.59941; fill:none" d="M 401.723 320.641L 422.512 320.641L 422.512 239.075L 401.723 239.075L 401.723 320.641z"/>
<path style="stroke:#000000; stroke-width:1.59941; fill:none" d="M 109.032 320.641L 129.821 320.641L 129.821 276.66L 109.032 276.66L 109.032 320.641z"/>
<path style="stroke:#000000; stroke-width:1.59941; fill:none" d="M 206.594 320.641L 227.383 320.641L 227.383 106.321L 206.594 106.321L 206.594 320.641z"/>
<path style="stroke:#000000; stroke-width:1.59941; fill:none" d="M 304.156 320.641L 324.946 320.641L 324.946 239.871L 304.156 239.871L 304.156 320.641z"/>
<path style="stroke:#000000; stroke-width:1.59941; fill:none" d="M 401.723 320.641L 422.512 320.641L 422.512 239.075L 401.723 239.075L 401.723 320.641z"/>
<path style="stroke:#000000; stroke-width:1.59941; fill:none" d="M 119.426 279.856L 119.426 274.258"/>
<path style="stroke:#000000; stroke-width:1.59941; fill:none" d="M 216.989 131.11L 216.989 82.328"/>
<path style="stroke:#000000; stroke-width:1.59941; fill:none" d="M 314.555 244.668L 314.555 235.075"/>
<path style="stroke:#000000; stroke-width:1.59941; fill:none" d="M 412.117 241.469L 412.117 236.672"/>
<path style="stroke:#000000; stroke-width:1.59941; fill:none" d="M 110.629 279.856L 128.223 279.856"/>
<path style="stroke:#000000; stroke-width:1.59941; fill:none" d="M 110.629 274.258L 128.223 274.258"/>
<path style="stroke:#000000; stroke-width:1.59941; fill:none" d="M 208.192 131.11L 226.582 131.11"/>
<path style="stroke:#000000; stroke-width:1.59941; fill:none" d="M 208.192 82.328L 226.582 82.328"/>
<path style="stroke:#000000; stroke-width:1.59941; fill:none" d="M 305.758 244.668L 324.149 244.668"/>
<path style="stroke:#000000; stroke-width:1.59941; fill:none" d="M 305.758 235.075L 324.149 235.075"/>
<path style="stroke:#000000; stroke-width:1.59941; fill:none" d="M 403.321 241.469L 421.711 241.469"/>
<path style="stroke:#000000; stroke-width:1.59941; fill:none" d="M 403.321 236.672L 421.711 236.672"/>
<path style="stroke:none; fill-rule:evenodd; fill:#000000" d="M 129.821 320.641L 150.61 320.641L 150.61 258.266L 129.821 258.266L 129.821 320.641z"/>
<path style="stroke:#000000; stroke-width:0.0; fill:none" d="M 129.821 320.641L 150.61 320.641L 150.61 258.266L 129.821 258.266L 129.821 320.641z"/>
<path style="stroke:#000000; stroke-width:1.59941; fill:none" d="M 129.821 320.641L 150.61 320.641L 150.61 258.266L 129.821 258.266L 129.821 320.641z"/>
<path style="stroke:none; fill-rule:evenodd; fill:#000000" d="M 227.387 320.641L 248.176 320.641L 248.176 199.887L 227.387 199.887L 227.387 320.641z"/>
<path style="stroke:#000000; stroke-width:0.0; fill:none" d="M 227.387 320.641L 248.176 320.641L 248.176 199.887L 227.387 199.887L 227.387 320.641z"/>
<path style="stroke:#000000; stroke-width:1.59941; fill:none" d="M 227.387 320.641L 248.176 320.641L 248.176 199.887L 227.387 199.887L 227.387 320.641z"/>
<path style="stroke:none; fill-rule:evenodd; fill:#000000" d="M 324.949 320.641L 345.739 320.641L 345.739 116.719L 324.949 116.719L 324.949 320.641z"/>
<path style="stroke:#000000; stroke-width:0.0; fill:none" d="M 324.949 320.641L 345.739 320.641L 345.739 116.719L 324.949 116.719L 324.949 320.641z"/>
<path style="stroke:#000000; stroke-width:1.59941; fill:none" d="M 324.949 320.641L 345.739 320.641L 345.739 116.719L 324.949 116.719L 324.949 320.641z"/>
<path style="stroke:none; fill-rule:evenodd; fill:#000000" d="M 422.516 320.641L 443.305 320.641L 443.305 171.899L 422.516 171.899L 422.516 320.641z"/>
<path style="stroke:#000000; stroke-width:0.0; fill:none" d="M 422.516 320.641L 443.305 320.641L 443.305 171.899L 422.516 171.899L 422.516 320.641z"/>
<path style="stroke:#000000; stroke-width:1.59941; fill:none" d="M 422.516 320.641L 443.305 320.641L 443.305 171.899L 422.516 171.899L 422.516 320.641z"/>
<path style="stroke:#000000; stroke-width:1.59941; fill:none" d="M 129.821 320.641L 150.61 320.641L 150.61 258.266L 129.821 258.266L 129.821 320.641z"/>
<path style="stroke:#000000; stroke-width:1.59941; fill:none" d="M 227.387 320.641L 248.176 320.641L 248.176 199.887L 227.387 199.887L 227.387 320.641z"/>
<path style="stroke:#000000; stroke-width:1.59941; fill:none" d="M 324.949 320.641L 345.739 320.641L 345.739 116.719L 324.949 116.719L 324.949 320.641z"/>
<path style="stroke:#000000; stroke-width:1.59941; fill:none" d="M 422.516 320.641L 443.305 320.641L 443.305 171.899L 422.516 171.899L 422.516 320.641z"/>
<path style="stroke:#000000; stroke-width:1.59941; fill:none" d="M 140.219 263.063L 140.219 253.469"/>
<path style="stroke:#000000; stroke-width:1.59941; fill:none" d="M 237.782 211.883L 237.782 188.696"/>
<path style="stroke:#000000; stroke-width:1.59941; fill:none" d="M 335.348 139.907L 335.348 93.524"/>
<path style="stroke:#000000; stroke-width:1.59941; fill:none" d="M 432.91 177.493L 432.91 166.297"/>
<path style="stroke:#000000; stroke-width:1.59941; fill:none" d="M 130.621 263.063L 149.012 263.063"/>
<path style="stroke:#000000; stroke-width:1.59941; fill:none" d="M 130.621 253.465L 149.012 253.465"/>
<path style="stroke:#000000; stroke-width:1.59941; fill:none" d="M 228.985 211.883L 246.574 211.883"/>
<path style="stroke:#000000; stroke-width:1.59941; fill:none" d="M 228.985 188.692L 246.574 188.692"/>
<path style="stroke:#000000; stroke-width:1.59941; fill:none" d="M 326.551 139.907L 344.141 139.907"/>
<path style="stroke:#000000; stroke-width:1.59941; fill:none" d="M 326.551 93.524L 344.141 93.524"/>
<path style="stroke:#000000; stroke-width:1.59941; fill:none" d="M 424.114 177.493L 442.504 177.493"/>
<path style="stroke:#000000; stroke-width:1.59941; fill:none" d="M 424.114 166.297L 442.504 166.297"/>
<path style="stroke:#000000; stroke-width:1.59941; fill:none" d="M 70.6448 320.641L 460.899 320.641L 460.899 36.746L 70.6448 36.746L 70.6448 320.641z"/>
<path style="stroke:none; fill-rule:evenodd; fill:#ffffff" d="M 82.6408 122.313L 199.395 122.313L 199.395 43.942L 82.6408 43.942L 82.6408 122.313z"/>
<path style="stroke:#ffffff; stroke-width:0.0; fill:none" d="M 82.6408 122.313L 199.395 122.313L 199.395 43.942L 82.6408 43.942L 82.6408 122.313z"/>
<path style="stroke:#ffffff; stroke-width:1.59941; fill:none" d="M 82.6408 122.313L 199.395 122.313L 199.395 43.942L 82.6408 43.942L 82.6408 122.313z"/>
<path style="stroke:#000000; stroke-width:1.59941; fill:none" d="M 82.6408 122.313L 199.395 122.313L 199.395 43.942L 82.6408 43.942L 82.6408 122.313z"/>
<path style="stroke:#000000; stroke-width:1.59941; fill:none" d="M 93.0348 71.934L 135.418 71.934L 135.418 48.746L 93.0348 48.746L 93.0348 71.934z"/>
<path style="stroke:none; fill-rule:evenodd; fill:#000000" d="M 147.692 64.301L 149.391 64.301L 149.391 50.903L 147.692 50.903L 147.692 64.301z"/>
<path style="stroke:none; fill-rule:evenodd; fill:#000000" d="M 152.192 54.676L 152.192 64.297L 153.789 64.297L 153.789 58.969C 153.789 56.996 154.797 55.703 156.344 55.703C 157.532 55.703 158.285 56.442 158.285 57.602L 158.285 64.297L 159.785 64.297L 159.785 57.028C 159.785 55.43 158.602 54.403 156.762 54.403C 155.34 54.403 154.43 54.953 153.59 56.293L 153.59 54.68L 152.192 54.676z"/>
<path style="stroke:none; fill-rule:evenodd; fill:#000000" d="M 165.891 54.7L 164.293 54.7L 164.293 52.016L 162.793 52.016L 162.793 54.7L 161.492 54.7L 161.492 55.996L 162.793 55.996L 162.793 63.188C 162.793 64.149 163.449 64.692 164.645 64.692C 165.008 64.692 165.375 64.657 165.891 64.567L 165.891 63.301C 165.688 63.368 165.446 63.391 165.149 63.391C 164.481 63.391 164.297 63.211 164.297 62.536L 164.297 55.993L 165.895 55.993L 165.891 54.7z"/>
<path style="stroke:none; fill-rule:evenodd; fill:#000000" d="M 176.133 63.399C 175.973 63.399 175.899 63.399 175.809 63.399C 175.285 63.399 174.996 63.125 174.996 62.649L 174.996 57.016C 174.996 55.317 173.742 54.403 171.367 54.403C 169.969 54.403 168.805 54.805 168.16 55.516C 167.719 56.008 167.535 56.559 167.5 57.508L 169.055 57.508C 169.184 56.332 169.887 55.797 171.332 55.797C 172.719 55.797 173.5 56.309 173.5 57.227L 173.5 57.629C 173.5 58.27 173.114 58.547 171.899 58.692C 169.723 58.965 169.391 59.039 168.801 59.278C 167.676 59.735 167.106 60.598 167.106 61.844C 167.106 63.586 168.313 64.688 170.258 64.688C 171.465 64.688 172.438 64.274 173.52 63.297C 173.629 64.254 174.106 64.688 175.094 64.688C 175.403 64.688 175.641 64.653 176.137 64.528L 176.133 63.399zM 173.492 61.274C 173.492 61.789 173.344 62.102 172.883 62.528C 172.258 63.098 171.5 63.395 170.598 63.395C 169.399 63.395 168.699 62.825 168.699 61.844C 168.699 60.828 169.379 60.313 171.024 60.071C 172.645 59.852 172.977 59.778 173.496 59.536L 173.492 61.274z"/>
<path style="stroke:none; fill-rule:evenodd; fill:#000000" d="M 185.156 57.899C 185.082 56.953 184.883 56.34 184.516 55.801C 183.86 54.922 182.703 54.403 181.367 54.403C 178.785 54.403 177.102 56.453 177.102 59.641C 177.102 62.735 178.75 64.696 181.352 64.696C 183.641 64.696 185.086 63.328 185.274 60.985L 183.739 60.985C 183.485 62.524 182.696 63.293 181.399 63.293C 179.715 63.293 178.711 61.914 178.711 59.637C 178.711 57.231 179.696 55.797 181.364 55.797C 182.645 55.797 183.449 56.551 183.633 57.895L 185.156 57.899z"/>
<path style="stroke:none; fill-rule:evenodd; fill:#000000" d="M 190.391 54.7L 188.793 54.7L 188.793 52.016L 187.293 52.016L 187.293 54.7L 185.992 54.7L 185.992 55.996L 187.293 55.996L 187.293 63.188C 187.293 64.149 187.949 64.692 189.145 64.692C 189.508 64.692 189.875 64.657 190.391 64.567L 190.391 63.301C 190.188 63.368 189.946 63.391 189.649 63.391C 188.981 63.391 188.797 63.211 188.797 62.536L 188.797 55.993L 190.395 55.993L 190.391 54.7z"/>
<path style="stroke:none; fill-rule:evenodd; fill:#9f9f9f" d="M 93.0348 94.325L 135.418 94.325L 135.418 71.934L 93.0348 71.934L 93.0348 94.325z"/>
<path style="stroke:#9f9f9f; stroke-width:0.0; fill:none" d="M 93.0348 94.325L 135.418 94.325L 135.418 71.934L 93.0348 71.934L 93.0348 94.325z"/>
<path style="stroke:#000000; stroke-width:1.59941; fill:none" d="M 93.0348 94.325L 135.418 94.325L 135.418 71.934L 93.0348 71.934L 93.0348 94.325z"/>
<path style="stroke:#000000; stroke-width:1.59941; fill:none" d="M 93.0348 94.325L 135.418 94.325L 135.418 71.934L 93.0348 71.934L 93.0348 94.325z"/>
<path style="stroke:none; fill-rule:evenodd; fill:#000000" d="M 149.192 80.598L 155.555 80.598L 155.555 79.098L 149.192 79.098L 149.192 74.801L 156.489 74.801L 156.489 73.301L 147.489 73.301L 147.489 86.7L 149.188 86.7L 149.192 80.598z"/>
<path style="stroke:none; fill-rule:evenodd; fill:#000000" d="M 166.492 82.399C 166.492 80.93 166.383 80.051 166.106 79.336C 165.481 77.758 164.012 76.805 162.211 76.805C 159.528 76.805 157.801 78.856 157.801 82.008C 157.801 85.157 159.481 87.102 162.196 87.102C 164.41 87.102 165.942 85.864 166.332 83.778L 164.782 83.778C 164.36 85.039 163.489 85.7 162.25 85.7C 161.274 85.7 160.442 85.262 159.922 84.457C 159.555 83.91 159.426 83.36 159.406 82.407L 166.492 82.399zM 159.465 81.145C 159.594 79.364 160.676 78.203 162.223 78.203C 163.731 78.203 164.887 79.453 164.887 81.032C 164.887 81.067 164.887 81.102 164.871 81.141L 159.465 81.145z"/>
<path style="stroke:none; fill-rule:evenodd; fill:#000000" d="M 177.133 85.797C 176.973 85.797 176.899 85.797 176.809 85.797C 176.285 85.797 175.996 85.524 175.996 85.047L 175.996 79.414C 175.996 77.715 174.742 76.801 172.367 76.801C 170.969 76.801 169.805 77.203 169.16 77.914C 168.719 78.407 168.535 78.957 168.5 79.907L 170.055 79.907C 170.184 78.731 170.887 78.196 172.332 78.196C 173.719 78.196 174.5 78.707 174.5 79.625L 174.5 80.028C 174.5 80.668 174.114 80.946 172.899 81.09C 170.723 81.364 170.391 81.438 169.801 81.676C 168.676 82.133 168.106 82.996 168.106 84.243C 168.106 85.985 169.313 87.086 171.258 87.086C 172.465 87.086 173.438 86.672 174.52 85.696C 174.629 86.653 175.106 87.086 176.094 87.086C 176.403 87.086 176.641 87.051 177.137 86.926L 177.133 85.797zM 174.492 83.676C 174.492 84.192 174.344 84.504 173.883 84.93C 173.258 85.5 172.5 85.797 171.598 85.797C 170.399 85.797 169.699 85.227 169.699 84.246C 169.699 83.231 170.379 82.715 172.024 82.473C 173.645 82.254 173.977 82.18 174.496 81.938L 174.492 83.676z"/>
<path style="stroke:none; fill-rule:evenodd; fill:#000000" d="M 182.192 77.098L 180.594 77.098L 180.594 74.414L 179.094 74.414L 179.094 77.098L 177.793 77.098L 177.793 78.395L 179.094 78.395L 179.094 85.586C 179.094 86.547 179.75 87.09 180.946 87.09C 181.309 87.09 181.676 87.055 182.192 86.965L 182.192 85.7C 181.989 85.766 181.746 85.789 181.449 85.789C 180.782 85.789 180.598 85.61 180.598 84.934L 180.598 78.391L 182.196 78.391L 182.192 77.098z"/>
<path style="stroke:none; fill-rule:evenodd; fill:#000000" d="M 93.0348 116.715L 135.418 116.715L 135.418 94.325L 93.0348 94.325L 93.0348 116.715z"/>
<path style="stroke:#000000; stroke-width:0.0; fill:none" d="M 93.0348 116.715L 135.418 116.715L 135.418 94.325L 93.0348 94.325L 93.0348 116.715z"/>
<path style="stroke:#000000; stroke-width:1.59941; fill:none" d="M 93.0348 116.715L 135.418 116.715L 135.418 94.325L 93.0348 94.325L 93.0348 116.715z"/>
<path style="stroke:#000000; stroke-width:1.59941; fill:none" d="M 93.0348 116.715L 135.418 116.715L 135.418 94.325L 93.0348 94.325L 93.0348 116.715z"/>
<path style="stroke:none; fill-rule:evenodd; fill:#000000" d="M 147.391 109.098L 152.59 109.098C 155.992 109.098 158.086 106.563 158.086 102.391C 158.086 98.239 156.012 95.703 152.59 95.703L 147.391 95.703L 147.391 109.098zM 149.094 107.598L 149.094 97.2L 152.293 97.2C 154.973 97.2 156.387 98.985 156.387 102.407C 156.387 105.789 154.973 107.594 152.293 107.594L 149.094 107.598z"/>
<path style="stroke:none; fill-rule:evenodd; fill:#000000" d="M 161.891 99.5L 160.293 99.5L 160.293 109.098L 161.891 109.098L 161.891 99.5zM 161.891 95.7L 160.293 95.7L 160.293 97.621L 161.891 97.621L 161.891 95.7z"/>
<path style="stroke:none; fill-rule:evenodd; fill:#000000" d="M 164.492 99.477L 164.492 109.098L 166.09 109.098L 166.09 103.028C 166.09 101.629 167.09 100.5 168.324 100.5C 169.449 100.5 170.086 101.2 170.086 102.438L 170.086 109.098L 171.684 109.098L 171.684 103.028C 171.684 101.629 172.656 100.5 173.864 100.5C 174.942 100.5 175.582 101.219 175.582 102.438L 175.582 109.098L 177.18 109.098L 177.18 101.883C 177.18 100.157 176.188 99.203 174.387 99.203C 173.102 99.203 172.332 99.586 171.434 100.657C 170.867 99.637 170.094 99.203 168.844 99.203C 167.559 99.203 166.715 99.68 165.891 100.836L 165.891 99.481L 164.492 99.477z"/>
</g>
</svg>