<?xml version="1.0" encoding="ISO-8859-1" standalone="yes"?>
<svg width="173.695" height="171.004">
  <defs> 
    <marker id="ArrowEnd" viewBox="0 0 10 10" refX="0" refY="5" 
     markerUnits="strokeWidth" 
     markerWidth="4" 
     markerHeight="3" 
     orient="auto"> 
        <path d="M 0 0 L 10 5 L 0 10 z" /> 
    </marker>
    <marker id="ArrowStart" viewBox="0 0 10 10" refX="10" refY="5" 
     markerUnits="strokeWidth" 
     markerWidth="4" 
     markerHeight="3" 
     orient="auto"> 
        <path d="M 10 0 L 0 5 L 10 10 z" /> 
    </marker> </defs>
<g>
<path style="stroke:none; fill-rule:evenodd; fill:#ffffff" d="M 40.6373 117.004C 40.6373 108.555 33.7853 101.699 25.3323 101.699C 16.8833 101.699 10.0273 108.551 10.0273 117.004C 10.0273 125.453 16.8793 132.309 25.3323 132.309C 33.7813 132.309 40.6373 125.457 40.6373 117.004"/>
<path style="stroke:#000000; stroke-width:1.9133; fill:none" d="M 40.6373 117.004C 40.6373 108.555 33.7853 101.699 25.3323 101.699C 16.8833 101.699 10.0273 108.551 10.0273 117.004C 10.0273 125.453 16.8793 132.309 25.3323 132.309C 33.7813 132.309 40.6373 125.457 40.6373 117.004"/>
<path style="stroke:none; fill-rule:evenodd; fill:#000000" d="M 13.1013 114.949L 13.1013 120L 13.8983 120L 13.8983 116.824C 13.8983 116.094 14.4223 115.504 15.0703 115.504C 15.6603 115.504 15.9963 115.871 15.9963 116.516L 15.9963 120L 16.7933 120L 16.7933 116.824C 16.7933 116.094 17.3163 115.504 17.9653 115.504C 18.5433 115.504 18.8913 115.879 18.8913 116.516L 18.8913 120L 19.6873 120L 19.6873 116.211C 19.6873 115.305 19.1723 114.805 18.2303 114.805C 17.5623 114.805 17.1563 115.016 16.6873 115.613C 16.3913 115.051 15.9883 114.805 15.3363 114.805C 14.6683 114.805 14.2263 115.055 13.7933 115.66L 13.7933 114.949L 13.1013 114.949z"/>
<path style="stroke:none; fill-rule:evenodd; fill:#000000" d="M 25.5193 119.531C 25.4333 119.504 25.3943 119.504 25.3443 119.504C 25.0623 119.504 24.9063 119.363 24.9063 119.113L 24.9063 116.172C 24.9063 115.285 24.2623 114.809 23.0313 114.809C 22.3083 114.809 21.7113 115.023 21.3753 115.406C 21.1483 115.668 21.0553 115.965 21.0353 116.473L 21.8323 116.473C 21.8983 115.809 22.2583 115.504 23.0003 115.504C 23.7113 115.504 24.1093 115.773 24.1093 116.258L 24.1093 116.469C 24.1093 116.805 23.9103 116.949 23.2853 117.027C 22.1643 117.172 21.9923 117.211 21.6873 117.336C 21.1093 117.574 20.8123 118.031 20.8123 118.691C 20.8123 119.609 21.4413 120.191 22.4573 120.191C 23.0863 120.191 23.5943 119.98 24.1603 119.477C 24.2153 119.969 24.4653 120.191 24.9803 120.191C 25.1413 120.191 25.2653 120.176 25.5233 120.109L 25.5193 119.531zM 24.1013 118.414C 24.1013 118.676 24.0273 118.84 23.7853 119.055C 23.4613 119.348 23.0663 119.496 22.5943 119.496C 21.9693 119.496 21.6053 119.203 21.6053 118.703C 21.6053 118.184 21.9613 117.918 22.8163 117.797C 23.6603 117.684 23.8323 117.648 24.1013 117.523L 24.1013 118.414z"/>
<path style="stroke:none; fill-rule:evenodd; fill:#000000" d="M 28.1013 115L 27.3053 115L 27.3053 113.609L 26.5083 113.609L 26.5083 115L 25.8083 115L 25.8083 115.699L 26.5083 115.699L 26.5083 119.418C 26.5083 119.914 26.8483 120.195 27.4613 120.195C 27.6483 120.195 27.8403 120.18 28.1013 120.133L 28.1013 119.484C 28.0003 119.496 27.8793 119.5 27.7303 119.5C 27.3983 119.5 27.3053 119.406 27.3053 119.062L 27.3053 115.703L 28.1013 115.703L 28.1013 115z"/>
<path style="stroke:none; fill-rule:evenodd; fill:#000000" d="M 32.9063 116.672C 32.8713 116.145 32.7653 115.805 32.5743 115.504C 32.2303 115.066 31.6293 114.805 30.9333 114.805C 29.5863 114.805 28.7073 115.879 28.7073 117.551C 28.7073 119.172 29.5663 120.199 30.9223 120.199C 32.1133 120.199 32.8713 119.492 32.9653 118.277L 32.1563 118.277C 32.0233 119.09 31.6093 119.496 30.9223 119.496C 30.0353 119.496 29.5043 118.762 29.5043 117.547C 29.5043 116.266 30.0233 115.5 30.9023 115.5C 31.5743 115.5 32.0003 115.918 32.0983 116.668L 32.9063 116.672z"/>
<path style="stroke:none; fill-rule:evenodd; fill:#000000" d="M 33.8013 113L 33.8013 120L 34.5983 120L 34.5983 117.211C 34.5983 116.18 35.1333 115.504 35.9573 115.504C 36.2153 115.504 36.4733 115.59 36.6643 115.734C 36.8913 115.895 36.9883 116.137 36.9883 116.496L 36.9883 120L 37.7853 120L 37.7853 116.184C 37.7853 115.336 37.1833 114.805 36.1993 114.805C 35.4883 114.805 35.0583 115.035 34.5863 115.68L 34.5863 113.008L 33.8013 113z"/>
<path style="stroke:none; fill-rule:evenodd; fill:#000000" d="M 133.601 148.102L 134.699 148.102L 134.699 139.703L 133.601 139.703L 133.601 148.102z"/>
<path style="stroke:none; fill-rule:evenodd; fill:#000000" d="M 136.5 142.074L 136.5 148.098L 137.5 148.098L 137.5 144.75C 137.5 143.512 138.125 142.699 139.09 142.699C 139.828 142.699 140.297 143.16 140.297 143.891L 140.297 148.094L 141.297 148.094L 141.297 143.539C 141.297 142.539 140.555 141.895 139.394 141.895C 138.504 141.895 137.93 142.238 137.402 143.078L 137.402 142.066L 136.5 142.074z"/>
<path style="stroke:none; fill-rule:evenodd; fill:#000000" d="M 142.703 150.605L 143.703 150.605L 143.703 147.504C 144.203 148.125 144.765 148.402 145.539 148.402C 147.082 148.402 148.098 147.145 148.098 145.211C 148.098 143.18 147.113 141.906 145.515 141.906C 144.703 141.906 144.047 142.273 143.601 142.984L 143.601 142.078L 142.703 142.078L 142.703 150.605zM 145.367 142.801C 146.414 142.801 147.098 143.734 147.098 145.184C 147.098 146.559 146.402 147.496 145.367 147.496C 144.363 147.496 143.703 146.57 143.703 145.148C 143.703 143.727 144.363 142.801 145.367 142.801z"/>
<path style="stroke:none; fill-rule:evenodd; fill:#000000" d="M 154 148.137L 154 142.105L 153 142.105L 153 145.551C 153 146.789 152.355 147.602 151.348 147.602C 150.586 147.602 150.101 147.141 150.101 146.41L 150.101 142.105L 149.101 142.105L 149.101 146.758C 149.101 147.758 149.859 148.402 151.051 148.402C 151.949 148.402 152.523 148.094 153.098 147.301L 153.098 148.141L 154 148.137z"/>
<path style="stroke:none; fill-rule:evenodd; fill:#000000" d="M 157.703 142.102L 156.805 142.102L 156.805 140.434L 155.805 140.434L 155.805 142.102L 154.906 142.102L 154.906 142.898L 155.805 142.898L 155.805 147.445C 155.805 148.051 156.207 148.395 156.937 148.395C 157.16 148.395 157.387 148.371 157.699 148.312L 157.699 147.477C 157.586 147.566 157.449 147.594 157.281 147.594C 156.906 147.594 156.801 147.48 156.801 147.051L 156.801 142.898L 157.699 142.898L 157.703 142.102z"/>
<path style="stroke:none; fill-rule:evenodd; fill:#000000" d="M 52.7343 84.902L 51.3593 84.902C 49.3013 84.902 48.1013 87.922 48.1013 93.145L 48.1013 103.648C 48.1013 109.496 47.5353 111.574 45.7773 112.328L 45.7773 116.668C 47.5353 117.422 48.1013 119.559 48.1013 125.348L 48.1013 135.852C 48.1013 141.07 49.2973 144.09 51.3593 144.09L 52.7343 144.09L 52.7343 139.992L 52.2893 139.992C 50.8243 139.992 50.4063 139.051 50.4063 135.781L 50.4063 124.402C 50.4063 119.184 49.6333 116.105 47.9693 114.469C 49.7813 112.961 50.4063 110.383 50.4063 104.598L 50.4063 93.219C 50.4063 89.949 50.8243 89.004 52.2893 89.004L 52.7343 89.004L 52.7343 84.902z"/>
<path style="stroke:none; fill-rule:evenodd; fill:#000000" d="M 137.941 84.402L 138.801 86.902L 139.992 86.902L 137.055 78.504L 135.68 78.504L 132.695 86.902L 133.828 86.902L 134.711 84.402L 137.941 84.402zM 137.644 83.5L 134.984 83.5L 136.359 79.68L 137.644 83.5z"/>
<path style="stroke:none; fill-rule:evenodd; fill:#000000" d="M 145.508 82.906C 145.465 82.32 145.34 81.938 145.109 81.602C 144.703 81.039 143.984 80.703 143.156 80.703C 141.555 80.703 140.508 81.996 140.508 84.008C 140.508 85.961 141.531 87.199 143.144 87.199C 144.566 87.199 145.465 86.328 145.578 84.836L 144.625 84.836C 144.469 85.812 143.98 86.301 143.176 86.301C 142.133 86.301 141.508 85.438 141.508 84.012C 141.508 82.504 142.117 81.605 143.152 81.605C 143.945 81.605 144.445 82.074 144.558 82.91L 145.508 82.906z"/>
<path style="stroke:none; fill-rule:evenodd; fill:#000000" d="M 148.801 80.902L 147.902 80.902L 147.902 79.234L 146.902 79.234L 146.902 80.902L 146.004 80.902L 146.004 81.699L 146.902 81.699L 146.902 86.246C 146.902 86.852 147.305 87.195 148.035 87.195C 148.258 87.195 148.484 87.172 148.797 87.113L 148.797 86.277C 148.683 86.367 148.547 86.395 148.379 86.395C 148.004 86.395 147.898 86.281 147.898 85.852L 147.898 81.699L 148.797 81.699L 148.801 80.902z"/>
<path style="stroke:none; fill-rule:evenodd; fill:#000000" d="M 150.801 80.902L 149.801 80.902L 149.801 86.902L 150.801 86.902L 150.801 80.902zM 150.801 78.5L 149.801 78.5L 149.801 79.734L 150.801 79.734L 150.801 78.5z"/>
<path style="stroke:none; fill-rule:evenodd; fill:#000000" d="M 154.875 86.902L 157.18 80.902L 156.101 80.902L 154.406 85.762L 152.801 80.902L 151.723 80.902L 153.832 86.902L 154.875 86.902z"/>
<path style="stroke:none; fill-rule:evenodd; fill:#000000" d="M 163.301 84.203C 163.301 83.285 163.234 82.734 163.062 82.289C 162.676 81.305 161.762 80.707 160.644 80.707C 158.98 80.707 157.906 82 157.906 83.988C 157.906 85.977 158.941 87.203 160.617 87.203C 161.98 87.203 162.926 86.41 163.168 85.078L 162.215 85.078C 161.953 85.883 161.422 86.301 160.66 86.301C 160.058 86.301 159.547 86.023 159.23 85.508C 159.004 85.16 158.926 84.809 158.914 84.203L 163.301 84.203zM 158.883 83.434C 158.961 82.32 159.641 81.598 160.601 81.598C 161.539 81.598 162.265 82.375 162.265 83.363C 162.265 83.383 162.265 83.406 162.254 83.43L 158.883 83.434z"/>
<path style="stroke:none; fill-rule:evenodd; fill:#000000" d="M 133.301 92.375L 133.301 98.3984L 134.301 98.3984L 134.301 94.5898C 134.301 93.7109 134.926 93.004 135.695 93.004C 136.398 93.004 136.797 93.441 136.797 94.2188L 136.797 98.3984L 137.797 98.3984L 137.797 94.5898C 137.797 93.7109 138.422 93.004 139.191 93.004C 139.883 93.004 140.293 93.453 140.293 94.2188L 140.293 98.3984L 141.293 98.3984L 141.293 93.8789C 141.293 92.801 140.672 92.203 139.539 92.203C 138.734 92.203 138.246 92.445 137.683 93.133C 137.328 92.484 136.844 92.203 136.058 92.203C 135.254 92.203 134.723 92.5 134.203 93.223L 134.203 92.375L 133.301 92.375z"/>
<path style="stroke:none; fill-rule:evenodd; fill:#000000" d="M 148 95.7031C 148 94.7852 147.933 94.2344 147.762 93.7891C 147.375 92.805 146.461 92.207 145.344 92.207C 143.68 92.207 142.605 93.5 142.605 95.4883C 142.605 97.4766 143.641 98.7031 145.316 98.7031C 146.68 98.7031 147.625 97.9102 147.867 96.5781L 146.914 96.5781C 146.652 97.3828 146.121 97.8008 145.359 97.8008C 144.758 97.8008 144.246 97.5234 143.93 97.0078C 143.703 96.6602 143.625 96.3086 143.613 95.7031L 148 95.7031zM 143.582 94.9336C 143.66 93.8203 144.34 93.098 145.301 93.098C 146.238 93.098 146.965 93.875 146.965 94.8633C 146.965 94.8828 146.965 94.9062 146.953 94.9297L 143.582 94.9336z"/>
<path style="stroke:none; fill-rule:evenodd; fill:#000000" d="M 149.203 92.375L 149.203 98.3984L 150.203 98.3984L 150.203 94.5898C 150.203 93.7109 150.828 93.004 151.598 93.004C 152.301 93.004 152.699 93.441 152.699 94.2188L 152.699 98.3984L 153.699 98.3984L 153.699 94.5898C 153.699 93.7109 154.324 93.004 155.094 93.004C 155.785 93.004 156.195 93.453 156.195 94.2188L 156.195 98.3984L 157.195 98.3984L 157.195 93.8789C 157.195 92.801 156.574 92.203 155.441 92.203C 154.637 92.203 154.148 92.445 153.586 93.133C 153.23 92.484 152.746 92.203 151.961 92.203C 151.156 92.203 150.625 92.5 150.105 93.223L 150.105 92.375L 149.203 92.375z"/>
<path style="stroke:none; fill-rule:evenodd; fill:#000000" d="M 161.141 92.203C 159.437 92.203 158.406 93.418 158.406 95.4531C 158.406 97.4883 159.426 98.7031 161.156 98.7031C 162.859 98.7031 163.906 97.4922 163.906 95.5039C 163.906 93.414 162.898 92.211 161.148 92.211L 161.141 92.203zM 161.152 93.102C 162.246 93.102 162.902 93.9883 162.902 95.4844C 162.902 96.8984 162.226 97.7969 161.152 97.7969C 160.07 97.7969 159.402 96.9102 159.402 95.4492C 159.402 94 160.066 93.102 161.152 93.102z"/>
<path style="stroke:none; fill-rule:evenodd; fill:#000000" d="M 165.203 92.375L 165.203 98.3984L 166.203 98.3984L 166.203 95.2656C 166.203 94.4023 166.414 93.8398 166.863 93.5039C 167.152 93.285 167.433 93.219 168.086 93.207L 168.086 92.242C 167.93 92.223 167.851 92.211 167.726 92.211C 167.117 92.211 166.652 92.578 166.105 93.473L 166.105 92.383L 165.203 92.375z"/>
<path style="stroke:none; fill-rule:evenodd; fill:#000000" d="M 172.656 92.402L 170.992 97.0703L 169.457 92.402L 168.437 92.402L 170.469 98.457L 170.105 99.4102C 169.957 99.8359 169.742 99.9961 169.34 99.9961C 169.203 99.9961 169.043 99.9609 168.836 99.8906L 168.836 100.746C 169.027 100.848 169.223 100.895 169.476 100.895C 169.785 100.895 170.117 100.793 170.371 100.609C 170.668 100.395 170.84 100.141 171.023 99.6602L 173.695 92.398L 172.656 92.402z"/>
<path style="stroke:#000000; stroke-width:1.9133; fill:none" d="M 25.4533 101.633L 25.4533 63.355"/>
<path style="stroke:#000000; stroke-width:1.9133; fill:none" d="M 23.5393 71.008L 25.4493 63.355L 27.3593 71.008"/>
<path style="stroke:none; fill-rule:evenodd; fill:#000000" d="M 9.8013 0L 9.8013 9.797L 10.8013 9.797L 10.8013 8.90199C 11.3363 9.711 12.0513 10.098 13.0313 10.098C 14.8873 10.098 16.0983 8.59399 16.0983 6.27C 16.0983 4.004 14.9413 2.60201 13.0823 2.60201C 12.1133 2.60201 11.4263 2.957 10.9023 3.73L 10.9023 0L 9.8013 0zM 12.8913 3.629C 14.1333 3.629 14.9373 4.711 14.9373 6.38699C 14.9373 7.98 14.1093 9.062 12.8913 9.062C 11.7153 9.062 10.9373 7.992 10.9373 6.34399C 10.9373 4.69901 11.7113 3.625 12.8913 3.625L 12.8913 3.629z"/>
<path style="stroke:none; fill-rule:evenodd; fill:#000000" d="M 17.7383 12.641C 19.0623 10.883 19.8983 8.438 19.8983 6.332C 19.8983 4.211 19.0623 1.77 17.7383 0.00799561L 17.0123 0.00799561C 18.1603 1.92999 18.8013 4.18401 18.8013 6.332C 18.8013 8.465 18.1603 10.734 17.0123 12.641L 17.7383 12.641z"/>
<path style="stroke:none; fill-rule:evenodd; fill:#000000" d="M 31.0513 6.80099L 32.0553 9.80099L 33.4453 9.80099L 30.0193 0.0039978L 28.4143 0.0039978L 24.9333 9.80099L 26.2583 9.80099L 27.2853 6.80099L 31.0513 6.80099zM 30.7033 5.80099L 27.5983 5.80099L 29.2033 1.379L 30.7033 5.80099z"/>
<path style="stroke:none; fill-rule:evenodd; fill:#000000" d="M 40.0083 5.14101C 39.9573 4.44901 39.8083 4 39.5393 3.605C 39.0583 2.98 38.2113 2.605 37.2303 2.605C 35.3403 2.605 34.1053 4.09801 34.1053 6.422C 34.1053 8.67599 35.3123 10.102 37.2193 10.102C 38.8943 10.102 39.9573 9.10201 40.0903 7.39101L 38.9453 7.39101C 38.7583 8.53101 38.1723 9.10201 37.2033 9.10201C 35.9533 9.10201 35.2033 8.09399 35.2033 6.422C 35.2033 4.65601 35.9373 3.605 37.1763 3.605C 38.1253 3.605 38.7263 4.15601 38.8633 5.14101L 40.0083 5.14101z"/>
<path style="stroke:none; fill-rule:evenodd; fill:#000000" d="M 43.8013 2.80099L 42.6013 2.80099L 42.6013 0.854996L 41.5043 0.854996L 41.5043 2.80099L 40.6053 2.80099L 40.6053 3.69901L 41.5043 3.69901L 41.5043 8.98801C 41.5043 9.69501 41.9923 10.094 42.8753 10.094C 43.1443 10.094 43.4183 10.07 43.8013 10.004L 43.8013 9.07401C 43.6483 9.09 43.4693 9.09399 43.2463 9.09399C 42.7463 9.09399 42.6053 8.961 42.6053 8.46899L 42.6053 3.69501L 43.8053 3.69501L 43.8013 2.80099z"/>
<path style="stroke:none; fill-rule:evenodd; fill:#000000" d="M 46.1013 2.80099L 45.0043 2.80099L 45.0043 9.80099L 46.1013 9.80099L 46.1013 2.80099zM 46.1013 0L 45.0043 0L 45.0043 1.44099L 46.1013 1.44099L 46.1013 0z"/>
<path style="stroke:none; fill-rule:evenodd; fill:#000000" d="M 50.8163 9.80099L 53.5083 2.80099L 52.2503 2.80099L 50.2693 8.47301L 48.3943 2.80099L 47.1373 2.80099L 49.5983 9.80099L 50.8163 9.80099z"/>
<path style="stroke:none; fill-rule:evenodd; fill:#000000" d="M 60.8673 9.145C 60.7463 9.19901 60.6913 9.19901 60.6213 9.19901C 60.2263 9.19901 60.0043 9 60.0043 8.65199L 60.0043 4.52299C 60.0043 3.27699 59.0983 2.605 57.3753 2.605C 56.3633 2.605 55.5233 2.895 55.0553 3.414C 54.7383 3.77 54.6013 4.168 54.5783 4.85899L 55.6993 4.85899C 55.7893 3.996 56.2973 3.605 57.3403 3.605C 58.3403 3.605 58.9023 3.98 58.9023 4.64799L 58.9023 4.94099C 58.9023 5.41 58.6253 5.60899 57.7503 5.715C 56.1873 5.914 55.9493 5.96899 55.5233 6.14101C 54.7153 6.47301 54.3053 7.105 54.3053 8.01601C 54.3053 9.285 55.1833 10.09 56.5943 10.09C 57.4733 10.09 58.1763 9.785 58.9613 9.07001C 59.0393 9.77299 59.3873 10.09 60.1053 10.09C 60.3323 10.09 60.5043 10.066 60.8633 9.97301L 60.8673 9.145zM 58.9023 7.578C 58.9023 7.94501 58.7973 8.172 58.4613 8.47701C 58.0083 8.88699 57.4533 9.09801 56.7933 9.09801C 55.9183 9.09801 55.4103 8.688 55.4103 7.98801C 55.4103 7.26199 55.9063 6.89101 57.1053 6.71899C 58.2893 6.562 58.5313 6.508 58.9063 6.336L 58.9023 7.578z"/>
<path style="stroke:none; fill-rule:evenodd; fill:#000000" d="M 64.6013 2.80099L 63.4023 2.80099L 63.4023 0.854996L 62.3053 0.854996L 62.3053 2.80099L 61.4063 2.80099L 61.4063 3.69901L 62.3053 3.69901L 62.3053 8.98801C 62.3053 9.69501 62.7933 10.094 63.6763 10.094C 63.9453 10.094 64.2193 10.07 64.6013 10.004L 64.6013 9.07401C 64.4493 9.09 64.2693 9.09399 64.0473 9.09399C 63.5473 9.09399 63.4063 8.961 63.4063 8.46899L 63.4063 3.69501L 64.6053 3.69501L 64.6013 2.80099z"/>
<path style="stroke:none; fill-rule:evenodd; fill:#000000" d="M 66.9023 2.80099L 65.8053 2.80099L 65.8053 9.80099L 66.9023 9.80099L 66.9023 2.80099zM 66.9023 0L 65.8053 0L 65.8053 1.44099L 66.9023 1.44099L 66.9023 0z"/>
<path style="stroke:none; fill-rule:evenodd; fill:#000000" d="M 71.5393 2.60201C 69.5863 2.60201 68.4023 4.004 68.4023 6.35201C 68.4023 8.69901 69.5703 10.098 71.5513 10.098C 73.5043 10.098 74.6993 8.69901 74.6993 6.40601C 74.6993 3.992 73.5433 2.605 71.5393 2.605L 71.5393 2.60201zM 71.5513 3.60201C 72.8323 3.60201 73.5983 4.63699 73.5983 6.39101C 73.5983 8.047 72.8053 9.09801 71.5513 9.09801C 70.2813 9.09801 69.5043 8.062 69.5043 6.34801C 69.5043 4.65199 70.2813 3.59801 71.5513 3.59801L 71.5513 3.60201z"/>
<path style="stroke:none; fill-rule:evenodd; fill:#000000" d="M 76.3013 2.80499L 76.3013 9.80099L 77.3983 9.80099L 77.3983 5.957C 77.3983 4.535 78.1373 3.605 79.2693 3.605C 80.1373 3.605 80.6953 4.13699 80.6953 4.97301L 80.6953 9.80099L 81.7933 9.80099L 81.7933 4.51601C 81.7933 3.355 80.9333 2.60899 79.5983 2.60899C 78.5663 2.60899 77.9063 3.008 77.2973 3.98399L 77.2973 2.812L 76.3013 2.80499z"/>
<path style="stroke:none; fill-rule:evenodd; fill:#000000" d="M 83.3013 7.203L 90.0983 7.203L 90.0983 6.30499L 83.3013 6.30499L 83.3013 7.203z"/>
<path style="stroke:none; fill-rule:evenodd; fill:#000000" d="M 91.3013 0L 91.3013 9.797L 92.3013 9.797L 92.3013 8.90199C 92.8363 9.711 93.5513 10.098 94.5313 10.098C 96.3873 10.098 97.5983 8.59399 97.5983 6.27C 97.5983 4.004 96.4413 2.60201 94.5823 2.60201C 93.6133 2.60201 92.9263 2.957 92.4023 3.73L 92.4023 0L 91.3013 0zM 94.3913 3.629C 95.6333 3.629 96.4373 4.711 96.4373 6.38699C 96.4373 7.98 95.6093 9.062 94.3913 9.062C 93.2153 9.062 92.4373 7.992 92.4373 6.34399C 92.4373 4.69901 93.2113 3.625 94.3913 3.625L 94.3913 3.629z"/>
<path style="stroke:none; fill-rule:evenodd; fill:#000000" d="M 105.168 9.145C 105.047 9.19901 104.992 9.19901 104.922 9.19901C 104.527 9.19901 104.305 9 104.305 8.65199L 104.305 4.52299C 104.305 3.27699 103.398 2.605 101.676 2.605C 100.664 2.605 99.8243 2.895 99.3553 3.414C 99.0393 3.77 98.9023 4.168 98.8793 4.85899L 100 4.85899C 100.09 3.996 100.598 3.605 101.641 3.605C 102.641 3.605 103.203 3.98 103.203 4.64799L 103.203 4.94099C 103.203 5.41 102.926 5.60899 102.051 5.715C 100.488 5.914 100.25 5.96899 99.8243 6.14101C 99.0153 6.47301 98.6053 7.105 98.6053 8.01601C 98.6053 9.285 99.4843 10.09 100.894 10.09C 101.773 10.09 102.476 9.785 103.262 9.07001C 103.34 9.77299 103.687 10.09 104.406 10.09C 104.633 10.09 104.805 10.066 105.164 9.97301L 105.168 9.145zM 103.203 7.578C 103.203 7.94501 103.098 8.172 102.762 8.47701C 102.308 8.88699 101.754 9.09801 101.094 9.09801C 100.219 9.09801 99.7113 8.688 99.7113 7.98801C 99.7113 7.26199 100.207 6.89101 101.406 6.71899C 102.59 6.562 102.832 6.508 103.207 6.336L 103.203 7.578z"/>
<path style="stroke:none; fill-rule:evenodd; fill:#000000" d="M 111.367 4.73801C 111.355 3.375 110.457 2.60201 108.859 2.60201C 107.25 2.60201 106.207 3.44501 106.207 4.746C 106.207 5.84399 106.762 6.36301 108.402 6.76601L 109.433 7.02C 110.199 7.207 110.504 7.48801 110.504 7.996C 110.504 8.65199 109.848 9.09399 108.863 9.09399C 108.262 9.09399 107.75 8.918 107.469 8.617C 107.297 8.414 107.215 8.211 107.148 7.707L 105.969 7.707C 106.019 9.32001 106.922 10.094 108.742 10.094C 110.492 10.094 111.609 9.22701 111.609 7.871C 111.609 6.828 111.027 6.254 109.652 5.918L 108.594 5.664C 107.695 5.453 107.312 5.15601 107.312 4.66C 107.312 4.02 107.887 3.60201 108.793 3.60201C 109.687 3.60201 110.168 3.992 110.195 4.73801L 111.367 4.73801z"/>
<path style="stroke:none; fill-rule:evenodd; fill:#000000" d="M 119.101 6.703C 119.101 5.629 119.023 4.98399 118.824 4.461C 118.375 3.30901 117.308 2.60899 116.004 2.60899C 114.062 2.60899 112.808 4.10201 112.808 6.39799C 112.808 8.69099 114.012 10.105 115.961 10.105C 117.551 10.105 118.648 9.19901 118.93 7.67999L 117.805 7.67999C 117.5 8.617 116.867 9.105 115.973 9.105C 115.265 9.105 114.664 8.789 114.289 8.203C 114.023 7.80499 113.93 7.40601 113.914 6.711L 119.101 6.703zM 113.93 5.758C 114.023 4.461 114.812 3.617 115.937 3.617C 117.035 3.617 117.879 4.52699 117.879 5.67599C 117.879 5.69901 117.879 5.72701 117.867 5.754L 113.93 5.758z"/>
<path style="stroke:none; fill-rule:evenodd; fill:#000000" d="M 126.203 0L 125.105 0L 125.105 3.664C 124.644 2.96899 123.906 2.60201 122.98 2.60201C 121.183 2.60201 120.008 4.05499 120.008 6.285C 120.008 8.645 121.152 10.098 123.008 10.098C 123.953 10.098 124.613 9.742 125.203 8.875L 125.203 9.797L 126.203 9.797L 126.203 0zM 123.133 3.60201C 124.336 3.60201 125.098 4.68401 125.098 6.375C 125.098 8.01199 124.324 9.09399 123.144 9.09399C 121.918 9.09399 121.101 8 121.101 6.34801C 121.101 4.69901 121.914 3.59801 123.133 3.59801L 123.133 3.60201z"/>
<path style="stroke:none; fill-rule:evenodd; fill:#ffff00" d="M 88.5193 145.672C 88.5193 137.223 81.6683 130.367 73.2153 130.367C 64.7653 130.367 57.9103 137.219 57.9103 145.672C 57.9103 154.121 64.7623 160.977 73.2153 160.977C 81.6643 160.977 88.5193 154.125 88.5193 145.672"/>
<path style="stroke:#000000; stroke-width:1.9133; fill:none" d="M 88.5193 145.672C 88.5193 137.223 81.6683 130.367 73.2153 130.367C 64.7653 130.367 57.9103 137.219 57.9103 145.672C 57.9103 154.121 64.7623 160.977 73.2153 160.977C 81.6643 160.977 88.5193 154.125 88.5193 145.672"/>
<path style="stroke:none; fill-rule:evenodd; fill:#000000" d="M 74.8443 146.602L 75.7033 149.102L 76.8943 149.102L 73.9573 140.703L 72.5823 140.703L 69.5983 149.102L 70.7303 149.102L 71.6133 146.602L 74.8443 146.602zM 74.5433 145.703L 71.8833 145.703L 73.2583 141.883L 74.5433 145.703z"/>
<path style="stroke:none; fill-rule:evenodd; fill:#ffffff" d="M 124.875 145.672C 124.875 137.223 118.023 130.367 109.57 130.367C 101.121 130.367 94.2653 137.219 94.2653 145.672C 94.2653 154.121 101.117 160.977 109.57 160.977C 118.019 160.977 124.875 154.125 124.875 145.672"/>
<path style="stroke:#000000; stroke-width:1.9133; fill:none" d="M 124.875 145.672C 124.875 137.223 118.023 130.367 109.57 130.367C 101.121 130.367 94.2653 137.219 94.2653 145.672C 94.2653 154.121 101.117 160.977 109.57 160.977C 118.019 160.977 124.875 154.125 124.875 145.672"/>
<path style="stroke:none; fill-rule:evenodd; fill:#000000" d="M 107.101 149.102L 110.91 149.102C 111.707 149.102 112.297 148.883 112.75 148.402C 113.164 147.965 113.398 147.367 113.398 146.711C 113.398 145.699 112.926 145.086 111.824 144.676C 112.59 144.32 112.996 143.699 112.996 142.848C 112.996 142.238 112.769 141.699 112.328 141.305C 111.891 140.902 111.316 140.719 110.508 140.719L 107.098 140.719L 107.101 149.102zM 108.203 144.402L 108.203 141.605L 110.246 141.605C 110.836 141.605 111.164 141.688 111.445 141.918C 111.738 142.156 111.898 142.52 111.898 143.004C 111.898 143.473 111.742 143.848 111.445 144.09C 111.164 144.316 110.836 144.402 110.246 144.402L 108.203 144.402zM 108.203 148.203L 108.203 145.305L 110.801 145.305C 111.312 145.305 111.656 145.43 111.91 145.707C 112.16 145.973 112.297 146.34 112.297 146.758C 112.297 147.16 112.16 147.531 111.91 147.797C 111.66 148.07 111.316 148.199 110.801 148.199L 108.203 148.203z"/>
<path style="stroke:none; fill-rule:evenodd; fill:#ffff00" d="M 88.5193 90.184C 88.5193 81.734 81.6683 74.879 73.2153 74.879C 64.7653 74.879 57.9103 81.73 57.9103 90.184C 57.9103 98.6328 64.7623 105.488 73.2153 105.488C 81.6643 105.488 88.5193 98.6367 88.5193 90.184"/>
<path style="stroke:#000000; stroke-width:1.9133; fill:none" d="M 88.5193 90.184C 88.5193 81.734 81.6683 74.879 73.2153 74.879C 64.7653 74.879 57.9103 81.73 57.9103 90.184C 57.9103 98.6328 64.7623 105.488 73.2153 105.488C 81.6643 105.488 88.5193 98.6367 88.5193 90.184"/>
<path style="stroke:none; fill-rule:evenodd; fill:#000000" d="M 74.8443 91.102L 75.7033 93.6016L 76.8943 93.6016L 73.9573 85.203L 72.5823 85.203L 69.5983 93.6016L 70.7303 93.6016L 71.6133 91.102L 74.8443 91.102zM 74.5433 90.203L 71.8833 90.203L 73.2583 86.383L 74.5433 90.203z"/>
<path style="stroke:none; fill-rule:evenodd; fill:#ffffff" d="M 124.875 90.184C 124.875 81.734 118.023 74.879 109.57 74.879C 101.121 74.879 94.2653 81.73 94.2653 90.184C 94.2653 98.6328 101.117 105.488 109.57 105.488C 118.019 105.488 124.875 98.6367 124.875 90.184"/>
<path style="stroke:#000000; stroke-width:1.9133; fill:none" d="M 124.875 90.184C 124.875 81.734 118.023 74.879 109.57 74.879C 101.121 74.879 94.2653 81.73 94.2653 90.184C 94.2653 98.6328 101.117 105.488 109.57 105.488C 118.019 105.488 124.875 98.6367 124.875 90.184"/>
<path style="stroke:none; fill-rule:evenodd; fill:#000000" d="M 107.101 93.6016L 110.91 93.6016C 111.707 93.6016 112.297 93.383 112.75 92.902C 113.164 92.465 113.398 91.867 113.398 91.211C 113.398 90.199 112.926 89.586 111.824 89.176C 112.59 88.82 112.996 88.199 112.996 87.348C 112.996 86.738 112.769 86.199 112.328 85.805C 111.891 85.402 111.316 85.219 110.508 85.219L 107.098 85.219L 107.101 93.6016zM 108.203 88.902L 108.203 86.105L 110.246 86.105C 110.836 86.105 111.164 86.188 111.445 86.418C 111.738 86.656 111.898 87.02 111.898 87.504C 111.898 87.973 111.742 88.348 111.445 88.59C 111.164 88.816 110.836 88.902 110.246 88.902L 108.203 88.902zM 108.203 92.703L 108.203 89.805L 110.801 89.805C 111.312 89.805 111.656 89.93 111.91 90.207C 112.16 90.473 112.297 90.84 112.297 91.258C 112.297 91.66 112.16 92.031 111.91 92.297C 111.66 92.57 111.316 92.699 110.801 92.699L 108.203 92.703z"/>
<path style="stroke:none; fill-rule:evenodd; fill:#ffff00" d="M 40.6373 48.09C 40.6373 39.641 33.7853 32.785 25.3323 32.785C 16.8833 32.785 10.0273 39.637 10.0273 48.09C 10.0273 56.539 16.8793 63.395 25.3323 63.395C 33.7813 63.395 40.6373 56.543 40.6373 48.09"/>
<path style="stroke:#000000; stroke-width:1.9133; fill:none" d="M 40.6373 48.09C 40.6373 39.641 33.7853 32.785 25.3323 32.785C 16.8833 32.785 10.0273 39.637 10.0273 48.09C 10.0273 56.539 16.8793 63.395 25.3323 63.395C 33.7813 63.395 40.6373 56.543 40.6373 48.09"/>
<path style="stroke:none; fill-rule:evenodd; fill:#000000" d="M 26.4023 47.102L 22.8053 47.102L 22.8053 48L 25.4023 48L 25.4023 48.234C 25.4023 49.777 24.3053 50.895 22.7853 50.895C 21.9413 50.895 21.1763 50.582 20.6833 50.035C 20.1373 49.43 19.8053 48.418 19.8053 47.367C 19.8053 45.281 20.9693 43.902 22.7303 43.902C 23.9963 43.902 24.9103 44.57 25.1413 45.668L 26.2263 45.668C 25.9303 43.977 24.6413 43 22.7233 43C 21.7033 43 20.8753 43.266 20.2193 43.805C 19.2583 44.609 18.7033 45.91 18.7033 47.418C 18.7033 49.996 20.2733 51.793 22.5393 51.793C 23.6763 51.793 24.5823 51.367 25.3983 50.457L 25.6763 51.57L 26.3943 51.57L 26.4023 47.102z"/>
<path style="stroke:none; fill-rule:evenodd; fill:#000000" d="M 30.2383 45.301C 28.5353 45.301 27.5043 46.516 27.5043 48.551C 27.5043 50.586 28.5233 51.801 30.2543 51.801C 31.9573 51.801 33.0043 50.59 33.0043 48.602C 33.0043 46.512 31.9963 45.309 30.2463 45.309L 30.2383 45.301zM 30.2503 46.203C 31.3443 46.203 32.0003 47.09 32.0003 48.586C 32.0003 50 31.3243 50.898 30.2503 50.898C 29.1683 50.898 28.5003 50.012 28.5003 48.551C 28.5003 47.102 29.1643 46.203 30.2503 46.203z"/>
<path style="stroke:none; fill-rule:evenodd; fill:#000000" d="M 87.3363 52.801L 88.0513 54.898L 89.0433 54.898L 86.5983 47.898L 85.4533 47.898L 82.9693 54.898L 83.9143 54.898L 84.6483 52.801L 87.3363 52.801zM 87.0863 52.102L 84.8673 52.102L 86.0123 48.887L 87.0863 52.102z"/>
<path style="stroke:none; fill-rule:evenodd; fill:#000000" d="M 93.7073 51.574C 93.6723 51.047 93.5663 50.707 93.3753 50.406C 93.0313 49.969 92.4303 49.707 91.7343 49.707C 90.3873 49.707 89.5083 50.781 89.5083 52.453C 89.5083 54.074 90.3673 55.102 91.7233 55.102C 92.9143 55.102 93.6723 54.395 93.7653 53.18L 92.9573 53.18C 92.8243 53.992 92.4103 54.398 91.7233 54.398C 90.8363 54.398 90.3053 53.664 90.3053 52.449C 90.3053 51.168 90.8243 50.402 91.7033 50.402C 92.3753 50.402 92.8013 50.82 92.8983 51.57L 93.7073 51.574z"/>
<path style="stroke:none; fill-rule:evenodd; fill:#000000" d="M 96.3013 49.902L 95.5043 49.902L 95.5043 48.512L 94.7073 48.512L 94.7073 49.902L 94.0083 49.902L 94.0083 50.602L 94.7073 50.602L 94.7073 54.32C 94.7073 54.816 95.0473 55.098 95.6603 55.098C 95.8483 55.098 96.0393 55.082 96.3013 55.035L 96.3013 54.387C 96.1993 54.398 96.0783 54.402 95.9303 54.402C 95.5983 54.402 95.5043 54.309 95.5043 53.965L 95.5043 50.605L 96.3013 50.605L 96.3013 49.902z"/>
<path style="stroke:none; fill-rule:evenodd; fill:#000000" d="M 98.0003 49.902L 97.2033 49.902L 97.2033 54.902L 98.0003 54.902L 98.0003 49.902zM 98.0003 47.902L 97.2033 47.902L 97.2033 48.93L 98.0003 48.93L 98.0003 47.902z"/>
<path style="stroke:none; fill-rule:evenodd; fill:#000000" d="M 101.43 54.902L 103.351 49.902L 102.453 49.902L 101.039 53.953L 99.7033 49.902L 98.8053 49.902L 100.562 54.902L 101.43 54.902z"/>
<path style="stroke:none; fill-rule:evenodd; fill:#000000" d="M 108.621 54.434C 108.535 54.406 108.496 54.406 108.445 54.406C 108.164 54.406 108.008 54.266 108.008 54.016L 108.008 51.074C 108.008 50.188 107.363 49.711 106.133 49.711C 105.41 49.711 104.812 49.926 104.476 50.309C 104.25 50.57 104.156 50.867 104.137 51.375L 104.933 51.375C 105 50.711 105.359 50.406 106.101 50.406C 106.812 50.406 107.211 50.676 107.211 51.16L 107.211 51.371C 107.211 51.707 107.012 51.852 106.387 51.93C 105.265 52.074 105.094 52.113 104.789 52.238C 104.211 52.477 103.914 52.934 103.914 53.594C 103.914 54.512 104.543 55.094 105.558 55.094C 106.187 55.094 106.695 54.883 107.262 54.379C 107.316 54.871 107.566 55.094 108.082 55.094C 108.242 55.094 108.367 55.078 108.625 55.012L 108.621 54.434zM 107.203 53.312C 107.203 53.574 107.129 53.738 106.887 53.953C 106.562 54.246 106.168 54.395 105.695 54.395C 105.07 54.395 104.707 54.102 104.707 53.602C 104.707 53.082 105.062 52.816 105.918 52.695C 106.762 52.582 106.933 52.547 107.203 52.422L 107.203 53.312z"/>
<path style="stroke:none; fill-rule:evenodd; fill:#000000" d="M 111.203 49.902L 110.406 49.902L 110.406 48.512L 109.609 48.512L 109.609 49.902L 108.91 49.902L 108.91 50.602L 109.609 50.602L 109.609 54.32C 109.609 54.816 109.949 55.098 110.562 55.098C 110.75 55.098 110.941 55.082 111.203 55.035L 111.203 54.387C 111.101 54.398 110.98 54.402 110.832 54.402C 110.5 54.402 110.406 54.309 110.406 53.965L 110.406 50.605L 111.203 50.605L 111.203 49.902z"/>
<path style="stroke:none; fill-rule:evenodd; fill:#000000" d="M 116.402 52.703C 116.402 51.918 116.348 51.445 116.203 51.062C 115.883 50.219 115.121 49.707 114.187 49.707C 112.801 49.707 111.906 50.781 111.906 52.434C 111.906 54.082 112.769 55.102 114.172 55.102C 115.312 55.102 116.105 54.461 116.305 53.383L 115.5 53.383C 115.281 54.051 114.828 54.402 114.187 54.402C 113.68 54.402 113.25 54.176 112.976 53.762C 112.785 53.48 112.719 53.199 112.711 52.707L 116.402 52.703zM 112.734 52.012C 112.801 51.086 113.363 50.484 114.168 50.484C 114.949 50.484 115.555 51.133 115.555 51.957C 115.555 51.973 115.555 51.992 115.547 52.012L 112.734 52.012z"/>
<path style="stroke:none; fill-rule:evenodd; fill:#000000" d="M 121.5 47.902L 120.703 47.902L 120.703 50.52C 120.379 49.988 119.855 49.703 119.203 49.703C 117.937 49.703 117.105 50.75 117.105 52.352C 117.105 54.051 117.918 55.098 119.238 55.098C 119.91 55.098 120.379 54.848 120.801 54.238L 120.801 54.895L 121.5 54.895L 121.5 47.902zM 119.324 50.402C 120.164 50.402 120.699 51.188 120.699 52.422C 120.699 53.613 120.156 54.398 119.336 54.398C 118.476 54.398 117.906 53.602 117.906 52.398C 117.906 51.199 118.476 50.398 119.328 50.398L 119.324 50.402z"/>
<path style="stroke:#000000; stroke-width:0.95664899999999997; fill:none" d="M 98.0823 57.656L 75.1253 72.961"/>
<path style="stroke:#000000; stroke-width:0.95664899999999997; fill:none" d="M 82.5513 70.312L 75.1253 72.965L 80.4303 67.129"/>
</g>
</svg>