<?xml version="1.0" encoding="UTF-8" standalone="no"?>
<svg
   xmlns:dc="http://purl.org/dc/elements/1.1/"
   xmlns:cc="http://creativecommons.org/ns#"
   xmlns:rdf="http://www.w3.org/1999/02/22-rdf-syntax-ns#"
   xmlns:svg="http://www.w3.org/2000/svg"
   xmlns="http://www.w3.org/2000/svg"
   xmlns:sodipodi="http://sodipodi.sourceforge.net/DTD/sodipodi-0.dtd"
   xmlns:inkscape="http://www.inkscape.org/namespaces/inkscape"
   version="1.1"
   width="400px"
   height="400px"
   viewBox="0 0 1000.0 1000.0"
   id="svg2"
   inkscape:version="0.48.2 r9819"
   sodipodi:docname="fig_objrec_ti_fffb_batch_results.svg"
   inkscape:export-filename="/Users/oreilly/svn_docs/figs/fig_objrec_ti_fffb_batch_results.png"
   inkscape:export-xdpi="150.00735"
   inkscape:export-ydpi="150.00735">
  <metadata
     id="metadata64">
    <rdf:RDF>
      <cc:Work
         rdf:about="">
        <dc:format>image/svg+xml</dc:format>
        <dc:type
           rdf:resource="http://purl.org/dc/dcmitype/StillImage" />
        <dc:title></dc:title>
      </cc:Work>
    </rdf:RDF>
  </metadata>
  <defs
     id="defs62" />
  <sodipodi:namedview
     pagecolor="#ffffff"
     bordercolor="#666666"
     borderopacity="1"
     objecttolerance="10"
     gridtolerance="10"
     guidetolerance="10"
     inkscape:pageopacity="0"
     inkscape:pageshadow="2"
     inkscape:window-width="1342"
     inkscape:window-height="1061"
     id="namedview60"
     showgrid="false"
     inkscape:zoom="1.6263456"
     inkscape:cx="168.26776"
     inkscape:cy="155.30798"
     inkscape:window-x="104"
     inkscape:window-y="37"
     inkscape:window-maximized="0"
     inkscape:current-layer="svg2" />
  <rect
     style="fill:#ffffff;fill-opacity:1;fill-rule:nonzero;stroke:#ffffff;stroke-width:9.53216934;stroke-linejoin:round;stroke-miterlimit:4;stroke-opacity:1;stroke-dasharray:none;stroke-dashoffset:0"
     id="rect3623"
     width="947.54999"
     height="1085.5665"
     x="28.953159"
     y="59.059784" />
  <path
     stroke="#000000"
     stroke-width="2"
     fill="none"
     d="M 192.0,824.3 L 192.0,99.6 L 916.7,99.6 L 916.7,824.3 L 192.0,824.3 "
     id="path4" />
  <path
     style="fill:none;stroke:#000000;stroke-width:2"
     inkscape:connector-curvature="0"
     id="path18"
     d="m 192,824.3 724.7,0 m -677.5,18.2 0,-36.3 m 78.8,36.3 0,-36.3 m 78.8,36.3 0,-36.3 m 78.8,36.3 0,-36.3 m 78.8,36.3 0,-36.3 m 78.7,36.3 0,-36.3 m 78.8,36.3 0,-36.3 m 78.8,36.3 0,-36.3 m 78.8,36.3 0,-36.3" />
  <path
     style="fill:none;stroke:#000000;stroke-width:2"
     inkscape:connector-curvature="0"
     id="path20"
     d="m 192,99.6 724.7,0 m -677.5,18.1 0,-36.3 m 78.8,36.3 0,-36.3 m 78.8,36.3 0,-36.3 m 78.8,36.3 0,-36.3 m 78.8,36.3 0,-36.3 m 78.7,36.3 0,-36.3 m 78.8,36.3 0,-36.3 m 78.8,36.3 0,-36.3 m 78.8,36.3 0,-36.3" />
  <text
     style="font-size:36.70000076px;text-anchor:end;fill:#000000;font-family:Arial"
     id="text24"
     font-size="36.7"
     y="838.79999"
     x="166.60001">50</text>
  <text
     style="font-size:36.70000076px;text-anchor:end;fill:#000000;font-family:Arial"
     id="text26"
     font-size="36.7"
     y="766.40002"
     x="166.60001">55</text>
  <text
     style="font-size:36.70000076px;text-anchor:end;fill:#000000;font-family:Arial"
     id="text28"
     font-size="36.7"
     y="693.90002"
     x="166.60001">60</text>
  <text
     style="font-size:36.70000076px;text-anchor:end;fill:#000000;font-family:Arial"
     id="text30"
     font-size="36.7"
     y="621.40002"
     x="166.60001">65</text>
  <text
     style="font-size:36.70000076px;text-anchor:end;fill:#000000;font-family:Arial"
     id="text32"
     font-size="36.7"
     y="548.90002"
     x="166.60001">70</text>
  <text
     style="font-size:36.70000076px;text-anchor:end;fill:#000000;font-family:Arial"
     id="text34"
     font-size="36.7"
     y="476.39999"
     x="166.60001">75</text>
  <text
     style="font-size:36.70000076px;text-anchor:end;fill:#000000;font-family:Arial"
     id="text36"
     font-size="36.7"
     y="404"
     x="166.60001">80</text>
  <text
     style="font-size:36.70000076px;text-anchor:end;fill:#000000;font-family:Arial"
     id="text38"
     font-size="36.7"
     y="331.5"
     x="166.60001">85</text>
  <text
     style="font-size:36.70000076px;text-anchor:end;fill:#000000;font-family:Arial"
     id="text40"
     font-size="36.7"
     y="259"
     x="166.60001">90</text>
  <text
     style="font-size:36.70000076px;text-anchor:end;fill:#000000;font-family:Arial"
     id="text42"
     font-size="36.7"
     y="186.5"
     x="166.60001">95</text>
  <text
     style="font-size:36.70000076px;text-anchor:end;fill:#000000;font-family:Arial"
     id="text44"
     font-size="36.7"
     y="114.1"
     x="166.60001">100</text>
  <path
     style="fill:none;stroke:#000000;stroke-width:2"
     inkscape:connector-curvature="0"
     id="path46"
     d="m 192,824.3 0,-724.7 m -18.2,724.7 36.3,0 m -36.3,-72.4 36.3,0 m -36.3,-72.5 36.3,0 m -36.3,-72.5 36.3,0 m -36.3,-72.5 36.3,0 m -36.3,-72.5 36.3,0 m -36.3,-72.4 36.3,0 m -36.3,-72.5 36.3,0 m -36.3,-72.5 36.3,0 m -36.3,-72.5 36.3,0 m -36.3,-72.4 36.3,0" />
  <path
     style="fill:none;stroke:#000000;stroke-width:2"
     inkscape:connector-curvature="0"
     id="path48"
     d="m 916.7,824.3 0,-724.7 m -18.1,724.7 36.3,0 m -36.3,-72.4 36.3,0 m -36.3,-72.5 36.3,0 m -36.3,-72.5 36.3,0 m -36.3,-72.5 36.3,0 m -36.3,-72.5 36.3,0 m -36.3,-72.4 36.3,0 m -36.3,-72.5 36.3,0 m -36.3,-72.5 36.3,0 m -36.3,-72.5 36.3,0 m -36.3,-72.4 36.3,0" />
  <path
     stroke="none"
     fill="#000000"
     d="M 253.5,826.3 L 253.5,444.7 L 380.3,444.7 L 380.3,826.3  M 303.5,452.8 L 332.5,452.8 M 303.5,437.3 L 332.5,437.3 M 318.0,452.8 L 318.0,437.3 M 318.0,445.0   M 412.0,826.3 L 412.0,267.2 L 538.8,267.2 L 538.8,826.3  M 461.1,273.8 L 490.1,273.8 M 461.1,263.5 L 490.1,263.5 M 475.6,273.8 L 475.6,263.5 M 475.6,268.6  M 570.5,826.3 L 570.5,165.3 L 697.3,165.3 L 697.3,826.3  M 618.6,169.8 L 647.6,169.8 M 618.6,164.9 L 647.6,164.9 M 633.1,169.8 L 633.1,164.9 M 633.1,167.3  M 729.1,826.3 L 729.1,133.6 L 855.9,133.6 L 855.9,826.3  M 776.2,136.9 L 805.2,136.9 M 776.2,134.7 L 805.2,134.7 M 790.7,136.9 L 790.7,134.7 M 790.7,135.8  "
     id="path58" />
  <text
     xml:space="preserve"
     style="font-size:4px;font-style:normal;font-variant:normal;font-weight:normal;font-stretch:normal;text-indent:0;text-align:start;text-decoration:none;line-height:100%;letter-spacing:0px;word-spacing:0px;text-transform:none;direction:ltr;block-progression:tb;writing-mode:lr-tb;text-anchor:start;color:#000000;fill:#000000;fill-opacity:1;fill-rule:nonzero;stroke:none;stroke-width:1px;marker:none;visibility:visible;display:inline;overflow:visible;enable-background:accumulate;font-family:Arial;-inkscape-font-specification:Arial"
     x="-176.46925"
     y="147.28619"
     id="text3062"
     sodipodi:linespacing="100%"
     transform="scale(2.5,2.5)"><tspan
       sodipodi:role="line"
       id="tspan3064"
       x="-176.46925"
       y="147.28619" /></text>
  <text
     xml:space="preserve"
     style="font-size:60px;font-style:normal;font-variant:normal;font-weight:normal;font-stretch:normal;text-indent:0;text-align:start;text-decoration:none;line-height:100%;letter-spacing:0px;word-spacing:0px;text-transform:none;direction:ltr;block-progression:tb;writing-mode:lr-tb;text-anchor:start;color:#000000;fill:#000000;fill-opacity:1;fill-rule:nonzero;stroke:none;stroke-width:1px;marker:none;visibility:visible;display:inline;overflow:visible;enable-background:accumulate;font-family:Arial;-inkscape-font-specification:Arial"
     x="-672.83661"
     y="93.934166"
     id="text3066"
     sodipodi:linespacing="100%"
     transform="matrix(0,-1,1,0,0,0)"><tspan
       sodipodi:role="line"
       id="tspan3068"
       x="-672.83661"
       y="93.934166">Percent Correct</tspan></text>
  <path
     id="path3507"
     d="m 303.85,451.70032 29,0 m -29,-15.5 29,0 m -14.5,15.5 0,-15.5 m 0,7.7 m 143.1,-171.2 29,0 m -29,-10.3 29,0 m -14.5,10.3 0,-10.3 m 0,5.1 m 143,-98.8 29,0 m -29,-4.9 29,0 m -14.5,4.9 0,-4.9 m 0,2.4 m 143.1,-30.4 29,0 m -29,-2.2 29,0 m -14.5,2.2 0,-2.2 m 0,1.1"
     inkscape:connector-curvature="0"
     style="fill:none;stroke:#000000;stroke-width:4" />
  <text
     xml:space="preserve"
     style="font-size:60px;font-style:normal;font-variant:normal;font-weight:normal;font-stretch:normal;text-indent:0;text-align:start;text-decoration:none;line-height:100%;letter-spacing:0px;word-spacing:0px;text-transform:none;direction:ltr;block-progression:tb;writing-mode:lr-tb;text-anchor:start;color:#000000;fill:#000000;fill-opacity:1;fill-rule:nonzero;stroke:none;stroke-width:1px;marker:none;visibility:visible;display:inline;overflow:visible;enable-background:accumulate;font-family:Arial;-inkscape-font-specification:Arial"
     x="823.73737"
     y="419.18991"
     id="text3607"
     sodipodi:linespacing="100%"
     transform="matrix(0.70710678,0.70710678,-0.70710678,0.70710678,0,0)"><tspan
       sodipodi:role="line"
       id="tspan3609"
       x="823.73737"
       y="419.18991">No TI, Bg</tspan></text>
  <text
     transform="matrix(0.70710678,0.70710678,-0.70710678,0.70710678,0,0)"
     sodipodi:linespacing="100%"
     id="text3611"
     y="308.85147"
     x="937.23987"
     style="font-size:60px;font-style:normal;font-variant:normal;font-weight:normal;font-stretch:normal;text-indent:0;text-align:start;text-decoration:none;line-height:100%;letter-spacing:0px;word-spacing:0px;text-transform:none;direction:ltr;block-progression:tb;writing-mode:lr-tb;text-anchor:start;color:#000000;fill:#000000;fill-opacity:1;fill-rule:nonzero;stroke:none;stroke-width:1px;marker:none;visibility:visible;display:inline;overflow:visible;enable-background:accumulate;font-family:Arial;-inkscape-font-specification:Arial"
     xml:space="preserve"><tspan
       y="308.85147"
       x="937.23987"
       id="tspan3613"
       sodipodi:role="line">TI, Bg</tspan></text>
  <text
     transform="matrix(0.70710678,0.70710678,-0.70710678,0.70710678,0,0)"
     sodipodi:linespacing="100%"
     id="text3615"
     y="195.8004"
     x="1047.1268"
     style="font-size:60px;font-style:normal;font-variant:normal;font-weight:normal;font-stretch:normal;text-indent:0;text-align:start;text-decoration:none;line-height:100%;letter-spacing:0px;word-spacing:0px;text-transform:none;direction:ltr;block-progression:tb;writing-mode:lr-tb;text-anchor:start;color:#000000;fill:#000000;fill-opacity:1;fill-rule:nonzero;stroke:none;stroke-width:1px;marker:none;visibility:visible;display:inline;overflow:visible;enable-background:accumulate;font-family:Arial;-inkscape-font-specification:Arial"
     xml:space="preserve"><tspan
       y="195.8004"
       x="1047.1268"
       id="tspan3617"
       sodipodi:role="line">No TI, No Bg</tspan></text>
  <text
     xml:space="preserve"
     style="font-size:60px;font-style:normal;font-variant:normal;font-weight:normal;font-stretch:normal;text-indent:0;text-align:start;text-decoration:none;line-height:100%;letter-spacing:0px;word-spacing:0px;text-transform:none;direction:ltr;block-progression:tb;writing-mode:lr-tb;text-anchor:start;color:#000000;fill:#000000;fill-opacity:1;fill-rule:nonzero;stroke:none;stroke-width:1px;marker:none;visibility:visible;display:inline;overflow:visible;enable-background:accumulate;font-family:Arial;-inkscape-font-specification:Arial"
     x="1160.6293"
     y="85.462006"
     id="text3619"
     sodipodi:linespacing="100%"
     transform="matrix(0.70710678,0.70710678,-0.70710678,0.70710678,0,0)"><tspan
       sodipodi:role="line"
       id="tspan3621"
       x="1160.6293"
       y="85.462006">TI, No Bg</tspan></text>
</svg>
