<?xml version="1.0" encoding="ISO-8859-1" standalone="yes"?>
<svg width="205.179" height="224.523">
  <defs> 
    <marker id="ArrowEnd" viewBox="0 0 10 10" refX="0" refY="5" 
     markerUnits="strokeWidth" 
     markerWidth="4" 
     markerHeight="3" 
     orient="auto"> 
        <path d="M 0 0 L 10 5 L 0 10 z" /> 
    </marker>
    <marker id="ArrowStart" viewBox="0 0 10 10" refX="10" refY="5" 
     markerUnits="strokeWidth" 
     markerWidth="4" 
     markerHeight="3" 
     orient="auto"> 
        <path d="M 10 0 L 0 5 L 10 10 z" /> 
    </marker> </defs>
<g>
<path style="stroke:#000000; stroke-width:1.9133; fill:none" d="M 47.1073 65.023L 156.162 65.023L 161.901 47.804L 167.639 65.023L 182.944 65.023"/>
<path style="stroke:none; fill-rule:evenodd; fill:#000000" d="M 10.9979 56.199L 13.7284 56.199C 14.6698 56.199 15.0917 56.656 15.0917 57.687L 15.0917 58.429C 15.0917 58.945 15.1776 59.449 15.3222 59.793L 16.58 59.793L 16.58 59.531C 16.1893 59.258 16.1073 58.957 16.0878 57.84C 16.0761 56.457 15.8573 56.043 14.9433 55.652C 15.9003 55.191 16.287 54.605 16.287 53.648C 16.287 52.199 15.3807 51.402 13.744 51.402L 9.89255 51.402L 9.89255 59.801L 10.9901 59.801L 10.9979 56.199zM 10.9315 55.254L 10.9315 52.375L 13.5136 52.375C 14.1073 52.375 14.4511 52.465 14.7167 52.695C 15.0018 52.933 15.1503 53.312 15.1503 53.82C 15.1503 54.804 14.6464 55.254 13.5097 55.254L 10.9315 55.254z"/>
<path style="stroke:none; fill-rule:evenodd; fill:#000000" d="M 22.9979 57.101C 22.9979 56.183 22.9315 55.633 22.7597 55.187C 22.3729 54.203 21.4589 53.605 20.3417 53.605C 18.6776 53.605 17.6034 54.898 17.6034 56.887C 17.6034 58.875 18.6386 60.101 20.3143 60.101C 21.6776 60.101 22.6229 59.308 22.8651 57.976L 21.912 57.976C 21.6503 58.781 21.119 59.199 20.3573 59.199C 19.7557 59.199 19.244 58.922 18.9276 58.406C 18.7011 58.058 18.6229 57.707 18.6112 57.101L 22.9979 57.101zM 18.58 56.336C 18.6581 55.222 19.3378 54.5 20.2987 54.5C 21.2362 54.5 21.9628 55.277 21.9628 56.265C 21.9628 56.285 21.9628 56.308 21.9511 56.332L 18.58 56.336z"/>
<path style="stroke:none; fill-rule:evenodd; fill:#000000" d="M 29.8573 59.801L 31.6229 53.801L 30.5448 53.801L 29.3534 58.469L 28.1737 53.801L 27.0057 53.801L 25.8612 58.469L 24.6347 53.801L 23.58 53.801L 25.3222 59.801L 26.4003 59.801L 27.5565 55.086L 28.7714 59.801L 29.8573 59.801z"/>
<path style="stroke:#000000; stroke-width:1.9133; fill:none" d="M 47.1073 42.062L 70.0643 42.062L 70.0643 24.844L 167.643 24.844L 167.643 42.062L 182.948 42.062"/>
<path style="stroke:#000000; stroke-dasharray:6,3; stroke-width:0.95664899999999997; fill:none" d="M 5.01365 42.062L 200.166 42.062"/>
<path style="stroke:#000000; stroke-dasharray:6,3; stroke-width:0.95664899999999997; fill:none" d="M 5.01365 65.023L 200.166 65.023"/>
<path style="stroke:none; fill-rule:evenodd; fill:#000000" d="M 9.79875 84.699L 13.0526 84.699C 15.1815 84.699 16.494 83.109 16.494 80.496C 16.494 77.894 15.1972 76.304 13.0526 76.304L 9.79875 76.304L 9.79875 84.699zM 10.8964 83.801L 10.8964 77.203L 12.869 77.203C 14.5214 77.203 15.3925 78.336 15.3925 80.508C 15.3925 82.656 14.5214 83.801 12.869 83.801L 10.8964 83.801z"/>
<path style="stroke:none; fill-rule:evenodd; fill:#000000" d="M 22.537 82.199L 23.3964 84.699L 24.5878 84.699L 21.6503 76.301L 20.2753 76.301L 17.2909 84.699L 18.4237 84.699L 19.3065 82.199L 22.537 82.199zM 22.2401 81.301L 19.58 81.301L 20.955 77.48L 22.2401 81.301z"/>
<path style="stroke:#000000; stroke-width:1.9133; fill:none" d="M 47.1073 87.98L 64.3261 87.98L 70.0643 76.504L 75.8027 87.98L 156.159 87.98L 161.897 84.156L 167.635 87.98L 181.026 87.98"/>
<path style="stroke:#000000; stroke-dasharray:6,3; stroke-width:0.95664899999999997; fill:none" d="M 5.01365 65.023L 200.166 65.023"/>
<path style="stroke:#000000; stroke-dasharray:6,3; stroke-width:0.95664899999999997; fill:none" d="M 5.01365 87.98L 200.166 87.98"/>
<path style="stroke:none; fill-rule:evenodd; fill:#000000" d="M 10.9979 163.402L 13.7284 163.402C 14.6698 163.402 15.0917 163.859 15.0917 164.89L 15.0917 165.633C 15.0917 166.148 15.1776 166.652 15.3222 166.996L 16.58 166.996L 16.58 166.734C 16.1893 166.461 16.1073 166.16 16.0878 165.043C 16.0761 163.66 15.8573 163.246 14.9433 162.855C 15.9003 162.394 16.287 161.808 16.287 160.851C 16.287 159.402 15.3807 158.605 13.744 158.605L 9.89255 158.605L 9.89255 167.004L 10.9901 167.004L 10.9979 163.402zM 10.9315 162.457L 10.9315 159.578L 13.5136 159.578C 14.1073 159.578 14.4511 159.668 14.7167 159.898C 15.0018 160.137 15.1503 160.515 15.1503 161.023C 15.1503 162.008 14.6464 162.457 13.5097 162.457L 10.9315 162.457z"/>
<path style="stroke:none; fill-rule:evenodd; fill:#000000" d="M 22.9979 164.301C 22.9979 163.383 22.9315 162.832 22.7597 162.387C 22.3729 161.402 21.4589 160.804 20.3417 160.804C 18.6776 160.804 17.6034 162.097 17.6034 164.086C 17.6034 166.074 18.6386 167.301 20.3143 167.301C 21.6776 167.301 22.6229 166.508 22.8651 165.176L 21.912 165.176C 21.6503 165.98 21.119 166.398 20.3573 166.398C 19.7557 166.398 19.244 166.121 18.9276 165.605C 18.7011 165.258 18.6229 164.906 18.6112 164.301L 22.9979 164.301zM 18.58 163.535C 18.6581 162.422 19.3378 161.699 20.2987 161.699C 21.2362 161.699 21.9628 162.476 21.9628 163.465C 21.9628 163.484 21.9628 163.508 21.9511 163.531L 18.58 163.535z"/>
<path style="stroke:none; fill-rule:evenodd; fill:#000000" d="M 29.8573 167L 31.6229 161L 30.5448 161L 29.3534 165.668L 28.1737 161L 27.0057 161L 25.8612 165.668L 24.6347 161L 23.58 161L 25.3222 167L 26.4003 167L 27.5565 162.285L 28.7714 167L 29.8573 167z"/>
<path style="stroke:#000000; stroke-width:1.9133; fill:none" d="M 47.1073 149.207L 70.0643 149.207L 70.0643 131.988L 167.643 131.988L 167.643 149.207L 182.948 149.207"/>
<path style="stroke:#000000; stroke-dasharray:6,3; stroke-width:0.95664899999999997; fill:none" d="M 5.01365 149.207L 200.166 149.207"/>
<path style="stroke:#000000; stroke-dasharray:6,3; stroke-width:0.95664899999999997; fill:none" d="M 5.01365 172.168L 200.166 172.168"/>
<path style="stroke:none; fill-rule:evenodd; fill:#000000" d="M 9.79875 191.902L 13.0526 191.902C 15.1815 191.902 16.494 190.312 16.494 187.699C 16.494 185.097 15.1972 183.508 13.0526 183.508L 9.79875 183.508L 9.79875 191.902zM 10.8964 191L 10.8964 184.402L 12.869 184.402C 14.5214 184.402 15.3925 185.535 15.3925 187.707C 15.3925 189.855 14.5214 191 12.869 191L 10.8964 191z"/>
<path style="stroke:none; fill-rule:evenodd; fill:#000000" d="M 22.537 189.402L 23.3964 191.902L 24.5878 191.902L 21.6503 183.504L 20.2753 183.504L 17.2909 191.902L 18.4237 191.902L 19.3065 189.402L 22.537 189.402zM 22.2401 188.5L 19.58 188.5L 20.955 184.679L 22.2401 188.5z"/>
<path style="stroke:#000000; stroke-dasharray:6,3; stroke-width:0.95664899999999997; fill:none" d="M 5.01365 172.168L 200.166 172.168"/>
<path style="stroke:#000000; stroke-dasharray:6,3; stroke-width:0.95664899999999997; fill:none" d="M 5.01365 195.125L 200.166 195.125"/>
<path style="stroke:none; fill-rule:evenodd; fill:#000000" d="M 10.2401 7.84C 10.1347 7.89801 10.0878 7.89801 10.0292 7.89801C 9.68935 7.89801 9.50185 7.72601 9.50185 7.42599L 9.50185 3.85901C 9.50185 2.785 8.72455 2.203 7.25185 2.203C 6.38475 2.203 5.66595 2.457 5.26365 2.90601C 4.99015 3.215 4.87685 3.56201 4.85345 4.164L 5.79875 4.164C 5.87685 3.43301 6.30265 3.10101 7.18545 3.10101C 8.02925 3.10101 8.50185 3.422 8.50185 4L 8.50185 4.254C 8.50185 4.65601 8.26755 4.828 7.52535 4.922C 6.20115 5.09399 5.99795 5.14001 5.63865 5.289C 4.95505 5.57401 4.60735 6.117 4.60735 6.90201C 4.60735 7.996 5.36125 8.68701 6.57225 8.68701C 7.32615 8.68701 7.93155 8.414 8.60735 7.76901C 8.67375 8.40201 8.97065 8.68701 9.58785 8.68701C 9.77925 8.68701 9.92765 8.664 10.2362 8.582L 10.2401 7.84zM 8.49795 6.539C 8.49795 6.867 8.40815 7.07001 8.13075 7.34399C 7.75185 7.707 7.29485 7.89801 6.74795 7.89801C 6.02535 7.89801 5.59955 7.535 5.59955 6.90601C 5.59955 6.258 6.00975 5.92599 7.00185 5.77301C 7.98235 5.633 8.18155 5.586 8.49405 5.43301L 8.49795 6.539z"/>
<path style="stroke:none; fill-rule:evenodd; fill:#000000" d="M 11.455 10.836C 12.5839 9.328 13.2948 7.23401 13.2948 5.42902C 13.2948 3.61301 12.5839 1.51901 11.455 0.00799561L 10.8378 0.00799561C 11.8417 1.65601 12.4003 3.586 12.4003 5.42902C 12.4003 7.258 11.8417 9.203 10.8378 10.836L 11.455 10.836z"/>
<path style="stroke:none; fill-rule:evenodd; fill:#000000" d="M 22.9393 5.90201L 23.7987 8.40201L 24.9901 8.40201L 22.0526 0.0039978L 20.6776 0.0039978L 17.6933 8.40201L 18.8261 8.40201L 19.7089 5.90201L 22.9393 5.90201zM 22.6425 5L 19.9823 5L 21.3573 1.17902L 22.6425 5z"/>
<path style="stroke:none; fill-rule:evenodd; fill:#000000" d="M 30.5057 4.40601C 30.4628 3.82001 30.3378 3.43701 30.1073 3.10101C 29.7011 2.539 28.9823 2.203 28.1542 2.203C 26.5526 2.203 25.5057 3.496 25.5057 5.508C 25.5057 7.461 26.5292 8.69901 28.1425 8.69901C 29.5643 8.69901 30.4628 7.828 30.5761 6.336L 29.6229 6.336C 29.4667 7.31201 28.9784 7.80099 28.1737 7.80099C 27.1307 7.80099 26.5057 6.93701 26.5057 5.51102C 26.5057 4.004 27.1151 3.10501 28.1503 3.10501C 28.9433 3.10501 29.4433 3.57401 29.5565 4.41L 30.5057 4.40601z"/>
<path style="stroke:none; fill-rule:evenodd; fill:#000000" d="M 36.5995 10.902L 36.5995 2.40601L 35.8026 2.40601L 35.8026 3.19101C 35.3495 2.55402 34.662 2.207 33.8612 2.207C 32.2557 2.207 31.2089 3.51102 31.2089 5.52301C 31.2089 7.48801 32.1854 8.703 33.7597 8.703C 34.5878 8.703 35.1581 8.39401 35.6034 7.715L 35.6034 10.902L 36.5995 10.902zM 33.9511 3.10901C 34.9706 3.10901 35.6268 4.02701 35.6268 5.47202C 35.6268 6.84702 34.9628 7.76501 33.9511 7.76501C 32.8964 7.76501 32.1972 6.836 32.1972 5.43701C 32.1972 4.05099 32.8964 3.10901 33.9511 3.10901z"/>
<path style="stroke:none; fill-rule:evenodd; fill:#000000" d="M 42.7987 8.43701L 42.7987 2.40601L 41.7987 2.40601L 41.7987 5.85101C 41.7987 7.09 41.1542 7.90201 40.1464 7.90201C 39.3847 7.90201 38.9003 7.44101 38.9003 6.711L 38.9003 2.40601L 37.9003 2.40601L 37.9003 7.05801C 37.9003 8.05801 38.6581 8.703 39.8495 8.703C 40.7479 8.703 41.3222 8.39401 41.8964 7.60101L 41.8964 8.44101L 42.7987 8.43701z"/>
<path style="stroke:none; fill-rule:evenodd; fill:#000000" d="M 45.2988 2.40201L 44.2987 2.40201L 44.2987 8.40201L 45.2988 8.40201L 45.2988 2.40201zM 45.2988 0L 44.2987 0L 44.2987 1.23401L 45.2988 1.23401L 45.2988 0z"/>
<path style="stroke:none; fill-rule:evenodd; fill:#000000" d="M 51.2245 4.06201C 51.2128 2.875 50.4277 2.203 49.0253 2.203C 47.6152 2.203 46.7011 2.92902 46.7011 4.05099C 46.7011 4.996 47.1893 5.44501 48.6386 5.793L 49.5488 6.01102C 50.2245 6.172 50.494 6.414 50.494 6.85101C 50.494 7.414 49.9277 7.797 49.0839 7.797C 48.5643 7.797 48.1268 7.64801 47.8848 7.39001C 47.7363 7.21899 47.6659 7.043 47.6073 6.60901L 46.5918 6.60901C 46.6348 8.01901 47.4198 8.69901 49.0018 8.69901C 50.5253 8.69901 51.494 7.94901 51.494 6.785C 51.494 5.88699 50.9823 5.39001 49.7675 5.10101L 48.8339 4.883C 48.0409 4.69901 47.7011 4.44501 47.7011 4.01901C 47.7011 3.46899 48.1973 3.10901 48.9863 3.10901C 49.7598 3.10901 50.1777 3.43701 50.2011 4.06601L 51.2245 4.06201z"/>
<path style="stroke:none; fill-rule:evenodd; fill:#000000" d="M 53.5995 2.40201L 52.5995 2.40201L 52.5995 8.40201L 53.5995 8.40201L 53.5995 2.40201zM 53.5995 0L 52.5995 0L 52.5995 1.23401L 53.5995 1.23401L 53.5995 0z"/>
<path style="stroke:none; fill-rule:evenodd; fill:#000000" d="M 57.3964 2.40201L 56.4979 2.40201L 56.4979 0.734009L 55.4979 0.734009L 55.4979 2.40201L 54.5995 2.40201L 54.5995 3.19901L 55.4979 3.19901L 55.4979 7.746C 55.4979 8.35101 55.9003 8.69501 56.6307 8.69501C 56.8534 8.69501 57.08 8.672 57.3925 8.61301L 57.3925 7.77701C 57.2793 7.867 57.1425 7.89401 56.9745 7.89401C 56.5995 7.89401 56.494 7.78101 56.494 7.35101L 56.494 3.19901L 57.3925 3.19901L 57.3964 2.40201z"/>
<path style="stroke:none; fill-rule:evenodd; fill:#000000" d="M 59.2988 2.40201L 58.2988 2.40201L 58.2988 8.40201L 59.2988 8.40201L 59.2988 2.40201zM 59.2988 0L 58.2988 0L 58.2988 1.23401L 59.2988 1.23401L 59.2988 0z"/>
<path style="stroke:none; fill-rule:evenodd; fill:#000000" d="M 63.3339 2.19901C 61.6307 2.19901 60.5995 3.414 60.5995 5.44901C 60.5995 7.48401 61.619 8.69901 63.3495 8.69901C 65.0527 8.69901 66.0995 7.48801 66.0995 5.5C 66.0995 3.41 65.0918 2.207 63.3418 2.207L 63.3339 2.19901zM 63.3495 3.10101C 64.4434 3.10101 65.0995 3.98801 65.0995 5.48401C 65.0995 6.89801 64.4238 7.797 63.3495 7.797C 62.2675 7.797 61.5995 6.91 61.5995 5.44901C 61.5995 4 62.2636 3.10101 63.3495 3.10101z"/>
<path style="stroke:none; fill-rule:evenodd; fill:#000000" d="M 67.3964 2.375L 67.3964 8.39801L 68.3964 8.39801L 68.3964 5.05099C 68.3964 3.81201 69.0214 3 69.9863 3C 70.7245 3 71.1934 3.461 71.1934 4.19101L 71.1934 8.39401L 72.1934 8.39401L 72.1934 3.84C 72.1934 2.84 71.4511 2.19501 70.2909 2.19501C 69.4003 2.19501 68.8261 2.539 68.2988 3.379L 68.2988 2.367L 67.3964 2.375z"/>
<path style="stroke:none; fill-rule:evenodd; fill:#000000" d="M 4.69725 109.101L 4.69725 117.5L 5.59565 117.5L 5.59565 116.734C 6.04875 117.457 6.65425 117.801 7.49015 117.801C 9.06435 117.801 10.0917 116.496 10.0917 114.484C 10.0917 112.519 9.11125 111.304 7.54095 111.304C 6.72065 111.304 6.14255 111.617 5.69725 112.301L 5.69725 109.101L 4.69725 109.101zM 7.34565 112.211C 8.41205 112.211 9.09955 113.14 9.09955 114.574C 9.09955 115.937 8.38865 116.867 7.34565 116.867C 6.33785 116.867 5.66985 115.949 5.66985 114.539C 5.66985 113.129 6.33395 112.211 7.34565 112.211z"/>
<path style="stroke:none; fill-rule:evenodd; fill:#000000" d="M 11.455 119.933C 12.5839 118.426 13.2948 116.332 13.2948 114.527C 13.2948 112.711 12.5839 110.617 11.455 109.105L 10.8378 109.105C 11.8417 110.754 12.4003 112.683 12.4003 114.527C 12.4003 116.355 11.8417 118.301 10.8378 119.933L 11.455 119.933z"/>
<path style="stroke:none; fill-rule:evenodd; fill:#000000" d="M 21.5995 110L 24.3026 110L 24.3026 109.101L 17.7401 109.101L 17.7401 110L 20.4979 110L 20.4979 117.5L 21.5956 117.5L 21.5995 110z"/>
<path style="stroke:none; fill-rule:evenodd; fill:#000000" d="M 25.2987 111.472L 25.2987 117.496L 26.2987 117.496L 26.2987 114.363C 26.2987 113.5 26.5097 112.937 26.9589 112.601C 27.2479 112.383 27.5292 112.316 28.1815 112.304L 28.1815 111.34C 28.0253 111.32 27.9472 111.308 27.8222 111.308C 27.2128 111.308 26.7479 111.676 26.2011 112.57L 26.2011 111.48L 25.2987 111.472z"/>
<path style="stroke:none; fill-rule:evenodd; fill:#000000" d="M 34.4393 116.937C 34.3339 116.996 34.287 116.996 34.2284 116.996C 33.8886 116.996 33.7011 116.824 33.7011 116.523L 33.7011 112.957C 33.7011 111.883 32.9237 111.301 31.4511 111.301C 30.5839 111.301 29.8651 111.554 29.4628 112.004C 29.1893 112.312 29.0761 112.66 29.0526 113.261L 29.9979 113.261C 30.0761 112.531 30.5018 112.199 31.3847 112.199C 32.2284 112.199 32.7011 112.519 32.7011 113.097L 32.7011 113.351C 32.7011 113.754 32.4667 113.926 31.7245 114.019C 30.4003 114.191 30.1972 114.238 29.8378 114.387C 29.1542 114.672 28.8065 115.215 28.8065 116C 28.8065 117.094 29.5604 117.785 30.7714 117.785C 31.5253 117.785 32.1307 117.511 32.8065 116.867C 32.8729 117.5 33.1698 117.785 33.787 117.785C 33.9784 117.785 34.1268 117.761 34.4354 117.679L 34.4393 116.937zM 32.6972 115.64C 32.6972 115.969 32.6073 116.172 32.33 116.445C 31.9511 116.808 31.494 117 30.9472 117C 30.2245 117 29.7987 116.637 29.7987 116.008C 29.7987 115.359 30.2089 115.027 31.2011 114.875C 32.1815 114.734 32.3807 114.687 32.6933 114.535L 32.6972 115.64z"/>
<path style="stroke:none; fill-rule:evenodd; fill:#000000" d="M 36.3964 111.5L 35.3964 111.5L 35.3964 117.5L 36.3964 117.5L 36.3964 111.5zM 36.3964 109.101L 35.3964 109.101L 35.3964 110.336L 36.3964 110.336L 36.3964 109.101z"/>
<path style="stroke:none; fill-rule:evenodd; fill:#000000" d="M 37.9979 111.472L 37.9979 117.496L 38.9979 117.496L 38.9979 114.148C 38.9979 112.91 39.6229 112.097 40.5878 112.097C 41.3261 112.097 41.7948 112.558 41.7948 113.289L 41.7948 117.492L 42.7948 117.492L 42.7948 112.937C 42.7948 111.937 42.0526 111.293 40.8925 111.293C 40.0018 111.293 39.4276 111.637 38.9003 112.476L 38.9003 111.465L 37.9979 111.472z"/>
<path style="stroke:none; fill-rule:evenodd; fill:#000000" d="M 49.4979 114.801C 49.4979 113.883 49.4315 113.332 49.2598 112.887C 48.8729 111.902 47.9589 111.304 46.8418 111.304C 45.1777 111.304 44.1034 112.597 44.1034 114.586C 44.1034 116.574 45.1386 117.801 46.8143 117.801C 48.1777 117.801 49.1229 117.008 49.3652 115.676L 48.412 115.676C 48.1503 116.48 47.619 116.898 46.8573 116.898C 46.2557 116.898 45.744 116.621 45.4277 116.105C 45.2011 115.758 45.1229 115.406 45.1113 114.801L 49.4979 114.801zM 45.08 114.035C 45.1581 112.922 45.8378 112.199 46.7988 112.199C 47.7363 112.199 48.4628 112.976 48.4628 113.965C 48.4628 113.984 48.4628 114.008 48.4511 114.031L 45.08 114.035z"/>
<path style="stroke:none; fill-rule:evenodd; fill:#000000" d="M 55.6973 109.101L 54.6973 109.101L 54.6973 112.242C 54.2988 111.629 53.662 111.301 52.8613 111.301C 51.3143 111.301 50.2988 112.558 50.2988 114.492C 50.2988 116.539 51.3104 117.797 52.9511 117.797C 53.787 117.797 54.369 117.476 54.8925 116.707L 54.8925 117.496L 55.6893 117.496L 55.6973 109.101zM 53.0253 112.199C 54.0448 112.199 54.6934 113.125 54.6934 114.57C 54.6934 115.969 54.037 116.894 53.037 116.894C 51.994 116.894 51.2988 115.957 51.2988 114.547C 51.2988 113.137 51.9902 112.199 53.0253 112.199z"/>
<path style="stroke:none; fill-rule:evenodd; fill:#000000" d="M 57.3964 116.301L 57.3964 117.5L 58.0956 117.5L 58.0956 117.715C 58.0956 118.535 57.9473 118.773 57.3964 118.797L 57.3964 119.195C 58.1934 119.195 58.5956 118.676 58.5956 117.683L 58.5956 116.301L 57.3964 116.301z"/>
<path style="stroke:none; fill-rule:evenodd; fill:#000000" d="M 63.5995 111.472L 63.5995 117.496L 64.5995 117.496L 64.5995 114.363C 64.5995 113.5 64.8104 112.937 65.2598 112.601C 65.5488 112.383 65.83 112.316 66.4823 112.304L 66.4823 111.34C 66.3261 111.32 66.2479 111.308 66.1229 111.308C 65.5136 111.308 65.0488 111.676 64.5018 112.57L 64.5018 111.48L 63.5995 111.472z"/>
<path style="stroke:none; fill-rule:evenodd; fill:#000000" d="M 72.4979 114.801C 72.4979 113.883 72.4315 113.332 72.2598 112.887C 71.8729 111.902 70.9589 111.304 69.8418 111.304C 68.1777 111.304 67.1034 112.597 67.1034 114.586C 67.1034 116.574 68.1386 117.801 69.8143 117.801C 71.1777 117.801 72.1229 117.008 72.3652 115.676L 71.412 115.676C 71.1503 116.48 70.619 116.898 69.8573 116.898C 69.2557 116.898 68.744 116.621 68.4277 116.105C 68.2011 115.758 68.1229 115.406 68.1113 114.801L 72.4979 114.801zM 68.08 114.035C 68.1581 112.922 68.8378 112.199 69.7988 112.199C 70.7363 112.199 71.4628 112.976 71.4628 113.965C 71.4628 113.984 71.4628 114.008 71.4511 114.031L 68.08 114.035z"/>
<path style="stroke:none; fill-rule:evenodd; fill:#000000" d="M 79.3573 117.5L 81.1226 111.5L 80.0448 111.5L 78.8534 116.168L 77.6738 111.5L 76.5057 111.5L 75.3613 116.168L 74.1348 111.5L 73.08 111.5L 74.8223 117.5L 75.9003 117.5L 77.0565 112.785L 78.2714 117.5L 79.3573 117.5z"/>
<path style="stroke:none; fill-rule:evenodd; fill:#000000" d="M 87.3375 116.937C 87.2326 116.996 87.1855 116.996 87.1265 116.996C 86.7876 116.996 86.5995 116.824 86.5995 116.523L 86.5995 112.957C 86.5995 111.883 85.8225 111.301 84.3495 111.301C 83.4826 111.301 82.7635 111.554 82.3615 112.004C 82.0875 112.312 81.9745 112.66 81.9515 113.261L 82.8965 113.261C 82.9745 112.531 83.4006 112.199 84.2835 112.199C 85.1265 112.199 85.5995 112.519 85.5995 113.097L 85.5995 113.351C 85.5995 113.754 85.3655 113.926 84.6226 114.019C 83.2985 114.191 83.0956 114.238 82.7365 114.387C 82.0526 114.672 81.7046 115.215 81.7046 116C 81.7046 117.094 82.4585 117.785 83.6695 117.785C 84.4235 117.785 85.0295 117.511 85.7046 116.867C 85.7715 117.5 86.0686 117.785 86.6855 117.785C 86.8765 117.785 87.0256 117.761 87.3335 117.679L 87.3375 116.937zM 85.5995 115.64C 85.5995 115.969 85.5096 116.172 85.2326 116.445C 84.8535 116.808 84.3965 117 83.8495 117C 83.1265 117 82.7015 116.637 82.7015 116.008C 82.7015 115.359 83.1115 115.027 84.1035 114.875C 85.0835 114.734 85.2835 114.687 85.5956 114.535L 85.5995 115.64z"/>
<path style="stroke:none; fill-rule:evenodd; fill:#000000" d="M 88.3965 111.472L 88.3965 117.496L 89.3965 117.496L 89.3965 114.363C 89.3965 113.5 89.6076 112.937 90.0565 112.601C 90.3456 112.383 90.6265 112.316 91.2795 112.304L 91.2795 111.34C 91.1226 111.32 91.0445 111.308 90.9195 111.308C 90.3105 111.308 89.8456 111.676 89.2985 112.57L 89.2985 111.48L 88.3965 111.472z"/>
<path style="stroke:none; fill-rule:evenodd; fill:#000000" d="M 97.1975 109.101L 96.1975 109.101L 96.1975 112.242C 95.7985 111.629 95.1615 111.301 94.3615 111.301C 92.8145 111.301 91.7985 112.558 91.7985 114.492C 91.7985 116.539 92.8105 117.797 94.4515 117.797C 95.2876 117.797 95.8695 117.476 96.3925 116.707L 96.3925 117.496L 97.1895 117.496L 97.1975 109.101zM 94.5256 112.199C 95.5445 112.199 96.1936 113.125 96.1936 114.57C 96.1936 115.969 95.5376 116.894 94.5376 116.894C 93.4945 116.894 92.7985 115.957 92.7985 114.547C 92.7985 113.137 93.4905 112.199 94.5256 112.199z"/>
<path style="stroke:none; fill-rule:evenodd; fill:#000000" d="M 104.135 111.301C 102.432 111.301 101.401 112.515 101.401 114.551C 101.401 116.586 102.42 117.801 104.151 117.801C 105.854 117.801 106.901 116.59 106.901 114.601C 106.901 112.511 105.893 111.308 104.143 111.308L 104.135 111.301zM 104.147 112.199C 105.241 112.199 105.897 113.086 105.897 114.582C 105.897 115.996 105.221 116.894 104.147 116.894C 103.065 116.894 102.397 116.008 102.397 114.547C 102.397 113.097 103.061 112.199 104.147 112.199z"/>
<path style="stroke:none; fill-rule:evenodd; fill:#000000" d="M 108.198 111.472L 108.198 117.496L 109.198 117.496L 109.198 113.687C 109.198 112.808 109.823 112.101 110.592 112.101C 111.295 112.101 111.694 112.539 111.694 113.316L 111.694 117.496L 112.694 117.496L 112.694 113.687C 112.694 112.808 113.319 112.101 114.088 112.101C 114.78 112.101 115.19 112.551 115.19 113.316L 115.19 117.496L 116.19 117.496L 116.19 112.976C 116.19 111.898 115.569 111.301 114.436 111.301C 113.631 111.301 113.143 111.543 112.58 112.23C 112.225 111.582 111.741 111.301 110.955 111.301C 110.151 111.301 109.62 111.597 109.1 112.32L 109.1 111.472L 108.198 111.472z"/>
<path style="stroke:none; fill-rule:evenodd; fill:#000000" d="M 118.698 111.5L 117.698 111.5L 117.698 117.5L 118.698 117.5L 118.698 111.5zM 118.698 109.101L 117.698 109.101L 117.698 110.336L 118.698 110.336L 118.698 109.101z"/>
<path style="stroke:none; fill-rule:evenodd; fill:#000000" d="M 124.526 113.164C 124.514 111.976 123.729 111.304 122.327 111.304C 120.916 111.304 120.002 112.031 120.002 113.152C 120.002 114.097 120.491 114.547 121.94 114.894L 122.85 115.113C 123.526 115.273 123.795 115.515 123.795 115.953C 123.795 116.515 123.229 116.898 122.385 116.898C 121.866 116.898 121.428 116.75 121.186 116.492C 121.038 116.32 120.967 116.144 120.909 115.711L 119.893 115.711C 119.936 117.121 120.721 117.801 122.303 117.801C 123.827 117.801 124.795 117.051 124.795 115.887C 124.795 114.988 124.284 114.492 123.069 114.203L 122.135 113.984C 121.342 113.801 121.002 113.547 121.002 113.121C 121.002 112.57 121.498 112.211 122.288 112.211C 123.061 112.211 123.479 112.539 123.502 113.168L 124.526 113.164z"/>
<path style="stroke:none; fill-rule:evenodd; fill:#000000" d="M 130.327 113.164C 130.315 111.976 129.53 111.304 128.127 111.304C 126.717 111.304 125.803 112.031 125.803 113.152C 125.803 114.097 126.291 114.547 127.741 114.894L 128.651 115.113C 129.327 115.273 129.596 115.515 129.596 115.953C 129.596 116.515 129.03 116.898 128.186 116.898C 127.666 116.898 127.229 116.75 126.987 116.492C 126.838 116.32 126.768 116.144 126.709 115.711L 125.694 115.711C 125.737 117.121 126.522 117.801 128.104 117.801C 129.627 117.801 130.596 117.051 130.596 115.887C 130.596 114.988 130.084 114.492 128.87 114.203L 127.936 113.984C 127.143 113.801 126.803 113.547 126.803 113.121C 126.803 112.57 127.299 112.211 128.088 112.211C 128.862 112.211 129.28 112.539 129.303 113.168L 130.327 113.164z"/>
<path style="stroke:none; fill-rule:evenodd; fill:#000000" d="M 132.698 111.5L 131.698 111.5L 131.698 117.5L 132.698 117.5L 132.698 111.5zM 132.698 109.101L 131.698 109.101L 131.698 110.336L 132.698 110.336L 132.698 109.101z"/>
<path style="stroke:none; fill-rule:evenodd; fill:#000000" d="M 136.635 111.301C 134.932 111.301 133.901 112.515 133.901 114.551C 133.901 116.586 134.92 117.801 136.651 117.801C 138.354 117.801 139.401 116.59 139.401 114.601C 139.401 112.511 138.393 111.308 136.643 111.308L 136.635 111.301zM 136.647 112.199C 137.741 112.199 138.397 113.086 138.397 114.582C 138.397 115.996 137.721 116.894 136.647 116.894C 135.565 116.894 134.897 116.008 134.897 114.547C 134.897 113.097 135.561 112.199 136.647 112.199z"/>
<path style="stroke:none; fill-rule:evenodd; fill:#000000" d="M 140.698 111.472L 140.698 117.496L 141.698 117.496L 141.698 114.148C 141.698 112.91 142.323 112.097 143.288 112.097C 144.026 112.097 144.495 112.558 144.495 113.289L 144.495 117.492L 145.495 117.492L 145.495 112.937C 145.495 111.937 144.752 111.293 143.592 111.293C 142.702 111.293 142.127 111.637 141.6 112.476L 141.6 111.465L 140.698 111.472z"/>
<path style="stroke:#000000; stroke-width:1.9133; fill:none" d="M 46.1503 172.406L 181.995 172.406"/>
<path style="stroke:#000000; stroke-width:1.9133; fill:none" d="M 47.1073 194.887L 65.2831 195.363L 71.0214 176.23L 76.7598 195.363L 157.116 195.363L 162.854 214.496L 168.592 195.363L 181.983 195.363"/>
<path style="stroke:none; fill-rule:evenodd; fill:#000000" d="M 16.3964 31.129C 16.0604 29.301 14.9979 28.406 13.1464 28.406C 12.0136 28.406 11.1034 28.761 10.4784 29.453C 9.71675 30.281 9.30265 31.476 9.30265 32.836C 9.30265 34.215 9.72845 35.402 10.5253 36.219C 11.1698 36.887 12.0018 37.195 13.0995 37.195C 15.1542 37.195 16.3104 36.082 16.5683 33.844L 15.4628 33.844C 15.3729 34.433 15.2597 34.836 15.0839 35.179C 14.7401 35.89 14.0253 36.293 13.1307 36.293C 11.4628 36.293 10.4042 34.941 10.4042 32.82C 10.4042 30.64 11.4159 29.297 13.0409 29.297C 13.7167 29.297 14.3534 29.508 14.6972 29.832C 15.0057 30.125 15.1776 30.484 15.3065 31.117L 16.3964 31.129z"/>
<path style="stroke:none; fill-rule:evenodd; fill:#000000" d="M 23.8964 30.988C 23.8886 29.351 22.7675 28.402 20.8534 28.402C 19.0292 28.402 17.9003 29.351 17.9003 30.879C 17.9003 31.906 18.4315 32.558 19.5214 32.847L 21.5761 33.402C 22.619 33.679 23.0956 34.105 23.0956 34.765C 23.0956 35.215 22.8573 35.679 22.5097 35.933C 22.1815 36.164 21.662 36.289 20.994 36.289C 20.0995 36.289 19.4901 36.062 19.0956 35.562C 18.7909 35.183 18.6542 34.765 18.705 34.226L 17.705 34.226C 17.7128 35.004 17.8612 35.515 18.1893 35.98C 18.7557 36.769 19.7089 37.187 20.9667 37.187C 21.9511 37.187 22.7557 36.961 23.2909 36.543C 23.8456 36.097 24.1972 35.347 24.1972 34.621C 24.1972 33.586 23.5643 32.828 22.4393 32.515L 20.3651 31.953C 19.369 31.679 19.0057 31.355 19.0057 30.711C 19.0057 29.859 19.7401 29.293 20.8456 29.293C 22.1542 29.293 22.8886 29.894 22.9003 30.98L 23.8964 30.988z"/>
<path style="stroke:none; fill-rule:evenodd; fill:#000000" d="M 16.3964 138.226C 16.0604 136.398 14.9979 135.504 13.1464 135.504C 12.0136 135.504 11.1034 135.859 10.4784 136.551C 9.71675 137.379 9.30265 138.574 9.30265 139.933C 9.30265 141.312 9.72845 142.5 10.5253 143.316C 11.1698 143.984 12.0018 144.293 13.0995 144.293C 15.1542 144.293 16.3104 143.179 16.5683 140.941L 15.4628 140.941C 15.3729 141.531 15.2597 141.933 15.0839 142.277C 14.7401 142.988 14.0253 143.39 13.1307 143.39C 11.4628 143.39 10.4042 142.039 10.4042 139.918C 10.4042 137.738 11.4159 136.394 13.0409 136.394C 13.7167 136.394 14.3534 136.605 14.6972 136.929C 15.0057 137.222 15.1776 137.582 15.3065 138.215L 16.3964 138.226z"/>
<path style="stroke:none; fill-rule:evenodd; fill:#000000" d="M 23.8964 138.09C 23.8886 136.453 22.7675 135.504 20.8534 135.504C 19.0292 135.504 17.9003 136.453 17.9003 137.98C 17.9003 139.008 18.4315 139.66 19.5214 139.949L 21.5761 140.504C 22.619 140.781 23.0956 141.207 23.0956 141.867C 23.0956 142.316 22.8573 142.781 22.5097 143.035C 22.1815 143.265 21.662 143.39 20.994 143.39C 20.0995 143.39 19.4901 143.164 19.0956 142.664C 18.7909 142.285 18.6542 141.867 18.705 141.328L 17.705 141.328C 17.7128 142.105 17.8612 142.617 18.1893 143.082C 18.7557 143.871 19.7089 144.289 20.9667 144.289C 21.9511 144.289 22.7557 144.062 23.2909 143.644C 23.8456 143.199 24.1972 142.449 24.1972 141.722C 24.1972 140.687 23.5643 139.929 22.4393 139.617L 20.3651 139.054C 19.369 138.781 19.0057 138.457 19.0057 137.812C 19.0057 136.961 19.7401 136.394 20.8456 136.394C 22.1542 136.394 22.8886 136.996 22.9003 138.082L 23.8964 138.09z"/>
<path style="stroke:#ff0000; stroke-width:0.95664899999999997; fill:none" d="M 69.6543 82.058L 69.6543 93.785"/>
<path style="stroke:#ff0000; stroke-width:0.95664899999999997; fill:none" d="M 69.6543 82.058L 67.7011 86.941"/>
<path style="stroke:#ff0000; stroke-width:0.95664899999999997; fill:none" d="M 69.6543 82.058L 71.6073 86.941"/>
<path style="stroke:#ff0000; stroke-width:0.95664899999999997; fill:none" d="M 162.495 83.082L 162.495 71.355"/>
<path style="stroke:#ff0000; stroke-width:0.95664899999999997; fill:none" d="M 162.495 83.082L 164.448 78.199"/>
<path style="stroke:#ff0000; stroke-width:0.95664899999999997; fill:none" d="M 162.495 83.082L 160.541 78.199"/>
</g>
</svg>