<?xml version="1.0" encoding="ISO-8859-1" standalone="yes"?>
<svg width="205.339" height="152.07">
  <defs> 
    <marker id="ArrowEnd" viewBox="0 0 10 10" refX="0" refY="5" 
     markerUnits="strokeWidth" 
     markerWidth="4" 
     markerHeight="3" 
     orient="auto"> 
        <path d="M 0 0 L 10 5 L 0 10 z" /> 
    </marker>
    <marker id="ArrowStart" viewBox="0 0 10 10" refX="10" refY="5" 
     markerUnits="strokeWidth" 
     markerWidth="4" 
     markerHeight="3" 
     orient="auto"> 
        <path d="M 10 0 L 0 5 L 10 10 z" /> 
    </marker> </defs>
<g>
<path style="stroke:none; fill-rule:evenodd; fill:#000000" d="M 11.0136 85.8593L 9.91595 85.8593L 9.91595 94.2573L 15.1151 94.2573L 15.1151 93.3593L 11.0175 93.3593L 11.0136 85.8593z"/>
<path style="stroke:none; fill-rule:evenodd; fill:#000000" d="M 19.9159 94.2573L 22.8183 85.8593L 21.6855 85.8593L 19.369 92.9723L 16.9159 85.8593L 15.7714 85.8593L 18.7753 94.2573L 19.9159 94.2573z"/>
<path style="stroke:#000000; stroke-width:1.9133; fill:none" d="M 47.2675 96.6053L 156.322 96.6053L 162.061 79.3863L 167.799 96.6053L 183.104 96.6053"/>
<path style="stroke:none; fill-rule:evenodd; fill:#000000" d="M 11.1151 112.757L 13.7558 112.757C 14.412 112.757 14.9315 112.566 15.3847 112.163C 15.8925 111.71 16.1112 111.171 16.1112 110.405C 16.1112 108.843 15.1737 107.96 13.5019 107.96L 10.0136 107.96L 10.0136 116.359L 11.1112 116.359L 11.1151 112.757zM 11.1151 111.859L 11.1151 108.859L 13.3651 108.859C 14.3964 108.859 15.0136 109.421 15.0136 110.359C 15.0136 111.292 14.4003 111.859 13.3651 111.859L 11.1151 111.859z"/>
<path style="stroke:none; fill-rule:evenodd; fill:#000000" d="M 21.1151 116.359L 24.0175 107.96L 22.8847 107.96L 20.5683 115.073L 18.1151 107.96L 16.9706 107.96L 19.9745 116.359L 21.1151 116.359z"/>
<path style="stroke:#000000; stroke-width:1.9133; fill:none" d="M 47.2675 50.2023L 156.322 50.2023L 162.061 32.9843L 167.799 50.2023L 183.104 50.2023"/>
<path style="stroke:none; fill-rule:evenodd; fill:#000000" d="M 11.2167 44.3593L 13.9472 44.3593C 14.8886 44.3593 15.3105 44.8163 15.3105 45.8473L 15.3105 46.5893C 15.3105 47.1053 15.3964 47.6093 15.5409 47.9523L 16.7987 47.9523L 16.7987 47.6913C 16.4081 47.4173 16.3261 47.1163 16.3065 45.9993C 16.2948 44.6163 16.0761 44.2023 15.162 43.8123C 16.119 43.3513 16.5058 42.7653 16.5058 41.8083C 16.5058 40.3593 15.5995 39.5623 13.9628 39.5623L 10.1112 39.5623L 10.1112 47.9603L 11.2089 47.9603L 11.2167 44.3593zM 11.1503 43.4133L 11.1503 40.5343L 13.7323 40.5343C 14.3261 40.5343 14.6698 40.6243 14.9355 40.8553C 15.2206 41.0933 15.369 41.4723 15.369 41.9803C 15.369 42.9643 14.8651 43.4133 13.7284 43.4133L 11.1503 43.4133z"/>
<path style="stroke:none; fill-rule:evenodd; fill:#000000" d="M 23.2167 45.2573C 23.2167 44.3393 23.1503 43.7883 22.9784 43.3433C 22.5917 42.3593 21.6776 41.7613 20.5605 41.7613C 18.8964 41.7613 17.8222 43.0543 17.8222 45.0423C 17.8222 47.0303 18.8573 48.2573 20.5331 48.2573C 21.8964 48.2573 22.8417 47.4643 23.0839 46.1323L 22.1308 46.1323C 21.869 46.9373 21.3378 47.3553 20.5761 47.3553C 19.9745 47.3553 19.4628 47.0773 19.1464 46.5623C 18.9198 46.2143 18.8417 45.8623 18.83 45.2573L 23.2167 45.2573zM 18.7948 44.4913C 18.8729 43.3783 19.5526 42.6553 20.5136 42.6553C 21.4511 42.6553 22.1776 43.4333 22.1776 44.4213C 22.1776 44.4413 22.1776 44.4643 22.1659 44.4873L 18.7948 44.4913z"/>
<path style="stroke:none; fill-rule:evenodd; fill:#000000" d="M 30.0761 47.9603L 31.8417 41.9603L 30.7636 41.9603L 29.5722 46.6283L 28.3925 41.9603L 27.2245 41.9603L 26.08 46.6283L 24.8534 41.9603L 23.7987 41.9603L 25.5409 47.9603L 26.619 47.9603L 27.7753 43.2453L 28.9901 47.9603L 30.0761 47.9603z"/>
<path style="stroke:#000000; stroke-width:1.9133; fill:none" d="M 47.2675 119.562L 64.4863 119.562L 70.2245 102.343L 75.9628 119.562L 156.319 119.562L 162.057 102.343L 167.795 119.562L 181.186 119.562"/>
<path style="stroke:#000000; stroke-width:1.9133; fill:none" d="M 47.2675 27.2453L 70.2245 27.2453L 70.2245 10.0273L 167.803 10.0273L 167.803 27.2453L 183.108 27.2453"/>
<path style="stroke:#000000; stroke-dasharray:6,3; stroke-width:0.95664899999999997; fill:none" d="M 5.17375 50.6833L 200.326 50.6833"/>
<path style="stroke:#000000; stroke-dasharray:6,3; stroke-width:0.95664899999999997; fill:none" d="M 5.17375 73.6443L 200.326 73.6443"/>
<path style="stroke:#000000; stroke-dasharray:6,3; stroke-width:0.95664899999999997; fill:none" d="M 5.17375 96.6053L 200.326 96.6053"/>
<path style="stroke:#000000; stroke-dasharray:6,3; stroke-width:0.95664899999999997; fill:none" d="M 5.17375 119.562L 200.326 119.562"/>
<path style="stroke:#000000; stroke-dasharray:6,3; stroke-width:0.95664899999999997; fill:none" d="M 5.17375 142.523L 200.326 142.523"/>
<path style="stroke:#000000; stroke-dasharray:6,3; stroke-width:0.95664899999999997; fill:none" d="M 5.01365 27.4053L 200.166 27.4053"/>
<path style="stroke:none; fill-rule:evenodd; fill:#000000" d="M 16.6151 19.1873C 16.2792 17.3593 15.2167 16.4643 13.3651 16.4643C 12.2323 16.4643 11.3222 16.8193 10.6972 17.5113C 9.93555 18.3393 9.52145 19.5343 9.52145 20.8943C 9.52145 22.2733 9.94725 23.4603 10.744 24.2773C 11.3886 24.9453 12.2206 25.2533 13.3183 25.2533C 15.3729 25.2533 16.5292 24.1403 16.787 21.9023L 15.6815 21.9023C 15.5917 22.4913 15.4784 22.8943 15.3026 23.2373C 14.9589 23.9483 14.244 24.3513 13.3495 24.3513C 11.6815 24.3513 10.6229 22.9993 10.6229 20.8783C 10.6229 18.6983 11.6347 17.3553 13.2597 17.3553C 13.9355 17.3553 14.5722 17.5663 14.9159 17.8903C 15.2245 18.1833 15.3964 18.5423 15.5253 19.1753L 16.6151 19.1873z"/>
<path style="stroke:none; fill-rule:evenodd; fill:#000000" d="M 24.1151 19.0463C 24.1073 17.4093 22.9862 16.4603 21.0722 16.4603C 19.2479 16.4603 18.119 17.4093 18.119 18.9373C 18.119 19.9643 18.6503 20.6163 19.7401 20.9053L 21.7948 21.4603C 22.8378 21.7373 23.3144 22.1633 23.3144 22.8233C 23.3144 23.2733 23.0761 23.7373 22.7284 23.9913C 22.4003 24.2223 21.8808 24.3473 21.2128 24.3473C 20.3183 24.3473 19.7089 24.1203 19.3144 23.6203C 19.0097 23.2413 18.8729 22.8233 18.9237 22.2843L 17.9237 22.2843C 17.9315 23.0623 18.08 23.5733 18.4081 24.0383C 18.9745 24.8273 19.9276 25.2453 21.1855 25.2453C 22.1698 25.2453 22.9745 25.0193 23.5097 24.6013C 24.0644 24.1553 24.4159 23.4053 24.4159 22.6793C 24.4159 21.6443 23.7831 20.8863 22.6581 20.5733L 20.5839 20.0113C 19.5878 19.7373 19.2245 19.4133 19.2245 18.7693C 19.2245 17.9173 19.9589 17.3513 21.0644 17.3513C 22.3729 17.3513 23.1073 17.9523 23.119 19.0383L 24.1151 19.0463z"/>
<path style="stroke:none; fill-rule:evenodd; fill:#000000" d="M 13.1151 63.0583L 15.8183 63.0583L 15.8183 62.1593L 9.25585 62.1593L 9.25585 63.0583L 12.0136 63.0583L 12.0136 70.5583L 13.1112 70.5583L 13.1151 63.0583z"/>
<path style="stroke:none; fill-rule:evenodd; fill:#000000" d="M 17.7167 64.5583L 16.7167 64.5583L 16.7167 70.5583L 17.7167 70.5583L 17.7167 64.5583zM 17.7167 62.1593L 16.7167 62.1593L 16.7167 63.3943L 17.7167 63.3943L 17.7167 62.1593z"/>
<path style="stroke:none; fill-rule:evenodd; fill:#000000" d="M 19.3144 64.5303L 19.3144 70.5543L 20.3144 70.5543L 20.3144 66.7453C 20.3144 65.8663 20.9394 65.1593 21.7089 65.1593C 22.412 65.1593 22.8105 65.5973 22.8105 66.3743L 22.8105 70.5543L 23.8105 70.5543L 23.8105 66.7453C 23.8105 65.8663 24.4355 65.1593 25.205 65.1593C 25.8964 65.1593 26.3065 65.6093 26.3065 66.3743L 26.3065 70.5543L 27.3065 70.5543L 27.3065 66.0343C 27.3065 64.9563 26.6855 64.3593 25.5526 64.3593C 24.7479 64.3593 24.2597 64.6013 23.6972 65.2883C 23.3417 64.6403 22.8573 64.3593 22.0722 64.3593C 21.2675 64.3593 20.7362 64.6553 20.2167 65.3783L 20.2167 64.5303L 19.3144 64.5303z"/>
<path style="stroke:none; fill-rule:evenodd; fill:#000000" d="M 29.8144 64.5583L 28.8144 64.5583L 28.8144 70.5583L 29.8144 70.5583L 29.8144 64.5583zM 29.8144 62.1593L 28.8144 62.1593L 28.8144 63.3943L 29.8144 63.3943L 29.8144 62.1593z"/>
<path style="stroke:none; fill-rule:evenodd; fill:#000000" d="M 31.5136 64.5303L 31.5136 70.5543L 32.5136 70.5543L 32.5136 67.2063C 32.5136 65.9683 33.1386 65.1553 34.1034 65.1553C 34.8417 65.1553 35.3105 65.6163 35.3105 66.3473L 35.3105 70.5503L 36.3105 70.5503L 36.3105 65.9953C 36.3105 64.9953 35.5683 64.3513 34.4081 64.3513C 33.5175 64.3513 32.9433 64.6953 32.4159 65.5343L 32.4159 64.5233L 31.5136 64.5303z"/>
<path style="stroke:none; fill-rule:evenodd; fill:#000000" d="M 41.7167 64.5583L 41.7167 65.4133C 41.2362 64.6953 40.6503 64.3593 39.8808 64.3593C 38.3534 64.3593 37.3222 65.6983 37.3222 67.6633C 37.3222 68.6553 37.5839 69.4643 38.0761 70.0423C 38.5214 70.5503 39.162 70.8513 39.7948 70.8513C 40.5487 70.8513 41.0761 70.5233 41.6151 69.7373L 41.6151 70.0463C 41.6151 70.8593 41.5136 71.3553 41.2753 71.6873C 41.0253 72.0423 40.537 72.2453 39.9589 72.2453C 39.5292 72.2453 39.1425 72.1323 38.8808 71.9253C 38.6659 71.7533 38.5761 71.5933 38.5175 71.2373L 37.5526 71.2373C 37.6542 72.3703 38.5331 73.0463 39.9433 73.0463C 40.8339 73.0463 41.5995 72.7613 41.9901 72.2803C 42.4472 71.7343 42.619 70.9763 42.619 69.5663L 42.619 64.5503L 41.7167 64.5583zM 39.9745 65.2573C 41.0019 65.2573 41.6112 66.1323 41.6112 67.6403C 41.6112 69.0773 40.994 69.9523 39.9862 69.9523C 38.9433 69.9523 38.3144 69.0663 38.3144 67.6053C 38.3144 66.1553 38.955 65.2573 39.9745 65.2573z"/>
<path style="stroke:#000000; stroke-width:1.9133; fill:none" d="M 47.162 72.9873L 71.0878 72.9873L 161.916 55.4093L 167.776 72.9873L 182.912 72.9873"/>
<path style="stroke:none; fill-rule:evenodd; fill:#000000" d="M 10.0136 139.757L 13.2675 139.757C 15.3964 139.757 16.7089 138.167 16.7089 135.554C 16.7089 132.952 15.412 131.362 13.2675 131.362L 10.0136 131.362L 10.0136 139.757zM 11.1151 138.859L 11.1151 132.261L 13.0878 132.261C 14.7401 132.261 15.6112 133.394 15.6112 135.566C 15.6112 137.714 14.7401 138.859 13.0878 138.859L 11.1151 138.859z"/>
<path style="stroke:none; fill-rule:evenodd; fill:#000000" d="M 22.7558 137.257L 23.6151 139.757L 24.8065 139.757L 21.869 131.359L 20.494 131.359L 17.5097 139.757L 18.6425 139.757L 19.5253 137.257L 22.7558 137.257zM 22.4589 136.359L 19.7987 136.359L 21.1737 132.538L 22.4589 136.359z"/>
<path style="stroke:#000000; stroke-width:1.9133; fill:none" d="M 47.2675 142.042L 64.4863 142.042L 70.2245 130.566L 75.9628 142.042L 156.319 142.042L 162.057 138.218L 167.795 142.042L 181.186 142.042"/>
<path style="stroke:#ed89ed; stroke-dasharray:6,3; stroke-width:0.95664899999999997; fill:none" d="M 166.803 38.8083C 166.803 38.8083 166.803 38.8083 169.733 39.6203C 172.662 40.4333 178.522 42.0623 182.752 45.1523C 186.983 48.2413 189.588 52.8003 190.725 58.9873C 191.862 65.1713 191.537 72.9843 187.471 77.8663C 183.405 82.7493 175.588 84.7023 171.686 85.6793C 167.779 86.6553 167.779 86.6553 167.779 86.6553"/>
<path style="stroke:#ed89ed; stroke-dasharray:6,3; stroke-width:0.95664899999999997; fill:none" d="M 183.557 86.6633L 167.783 86.6633L 181.701 79.2413"/>
<path style="stroke:#ed89ed; stroke-dasharray:6,3; stroke-width:0.95664899999999997; fill:none" d="M 191.221 65.1753C 191.221 65.1753 191.221 65.1753 191.061 68.1053C 190.901 71.0343 190.576 76.8943 190.248 82.9173C 189.924 88.9373 189.6 95.1243 188.135 99.3553C 186.67 103.585 184.069 105.862 180.811 107.491C 177.557 109.116 173.651 110.093 171.697 110.581C 169.744 111.069 169.744 111.069 169.744 111.069"/>
<path style="stroke:#ed89ed; stroke-dasharray:6,3; stroke-width:0.95664899999999997; fill:none" d="M 185.51 111.077L 169.737 111.077L 183.655 103.655"/>
<path style="stroke:#ff0000; stroke-width:0.95664899999999997; fill:none" d="M 161.916 109.124L 161.916 120.843"/>
<path style="stroke:#ff0000; stroke-width:0.95664899999999997; fill:none" d="M 161.92 109.124L 159.967 114.007"/>
<path style="stroke:#ff0000; stroke-width:0.95664899999999997; fill:none" d="M 161.92 109.124L 163.869 114.007"/>
<path style="stroke:#ff0000; stroke-width:0.95664899999999997; fill:none" d="M 69.9511 134.679L 69.9511 146.398"/>
<path style="stroke:#ff0000; stroke-width:0.95664899999999997; fill:none" d="M 69.9511 134.679L 67.9979 139.562"/>
<path style="stroke:#ff0000; stroke-width:0.95664899999999997; fill:none" d="M 69.9511 134.679L 71.9003 139.562"/>
<path style="stroke:#ff0000; stroke-width:0.95664899999999997; fill:none" d="M 69.791 109.445L 69.791 121.163"/>
<path style="stroke:#ff0000; stroke-width:0.95664899999999997; fill:none" d="M 69.7948 109.445L 67.8418 114.327"/>
<path style="stroke:#ff0000; stroke-width:0.95664899999999997; fill:none" d="M 69.7948 109.445L 71.744 114.327"/>
<path style="stroke:#ff0000; stroke-width:0.95664899999999997; fill:none" d="M 161.76 85.8473L 161.76 97.5663"/>
<path style="stroke:#ff0000; stroke-width:0.95664899999999997; fill:none" d="M 161.76 85.8473L 159.807 90.7303"/>
<path style="stroke:#ff0000; stroke-width:0.95664899999999997; fill:none" d="M 161.76 85.8473L 163.709 90.7303"/>
<path style="stroke:#ff0000; stroke-width:0.95664899999999997; fill:none" d="M 162.737 137.609L 162.737 125.89"/>
<path style="stroke:#ff0000; stroke-width:0.95664899999999997; fill:none" d="M 162.737 137.609L 164.69 132.726"/>
<path style="stroke:#ff0000; stroke-width:0.95664899999999997; fill:none" d="M 162.737 137.609L 160.787 132.726"/>
<path style="stroke:#ed89ed; stroke-dasharray:6,3; stroke-width:0.95664899999999997; fill:none" d="M 78.1698 50.5273C 78.1698 50.5273 78.1698 50.5273 76.705 51.8273C 75.2401 53.1283 72.3105 55.7343 70.5215 58.6633C 68.7323 61.5933 68.08 64.8473 67.9198 69.4053C 67.7598 73.9603 68.08 79.8233 69.0565 84.2143C 70.0331 88.6093 71.6581 91.5383 72.4745 93.0033C 73.287 94.4683 73.287 94.4683 73.287 94.4683"/>
<path style="stroke:#ed89ed; stroke-dasharray:6,3; stroke-width:0.95664899999999997; fill:none" d="M 69.2011 79.2373L 73.287 94.4723L 62.5097 82.9523"/>
<path style="stroke:#ed89ed; stroke-dasharray:6,3; stroke-width:0.95664899999999997; fill:none" d="M 100.475 50.6873C 100.475 50.6873 100.475 50.6873 99.0098 51.9873C 97.5448 53.2883 94.6147 55.8943 92.8257 58.8233C 91.0367 61.7533 90.3848 65.0073 90.2247 69.5663C 90.0647 74.1203 90.3848 79.9843 91.3617 84.3743C 92.3378 88.7693 93.9628 91.6983 94.7787 93.1633C 95.5918 94.6283 95.5918 94.6283 95.5918 94.6283"/>
<path style="stroke:#ed89ed; stroke-dasharray:6,3; stroke-width:0.95664899999999997; fill:none" d="M 91.5018 79.3983L 95.5878 94.6323L 84.8107 83.1123"/>
<path style="stroke:#ed89ed; stroke-dasharray:6,3; stroke-width:0.95664899999999997; fill:none" d="M 122.776 49.8703C 122.776 49.8703 122.776 49.8703 121.311 51.1713C 119.846 52.4723 116.916 55.0773 115.127 58.0073C 113.338 60.9373 112.686 64.1913 112.526 68.7493C 112.365 73.3043 112.686 79.1673 113.662 83.5583C 114.639 87.9523 116.264 90.8823 117.08 92.3473C 117.893 93.8123 117.893 93.8123 117.893 93.8123"/>
<path style="stroke:#ed89ed; stroke-dasharray:6,3; stroke-width:0.95664899999999997; fill:none" d="M 113.807 78.5813L 117.893 93.8163L 107.115 82.2963"/>
<path style="stroke:#ed89ed; stroke-dasharray:6,3; stroke-width:0.95664899999999997; fill:none" d="M 145.08 51.0033C 145.08 51.0033 145.08 51.0033 143.615 52.3043C 142.151 53.6053 139.221 56.2103 137.432 59.1403C 135.643 62.0693 134.99 65.3233 134.83 69.8823C 134.67 74.4373 134.99 80.3003 135.967 84.6913C 136.944 89.0853 138.569 92.0153 139.385 93.4803C 140.197 94.9453 140.197 94.9453 140.197 94.9453"/>
<path style="stroke:#ed89ed; stroke-dasharray:6,3; stroke-width:0.95664899999999997; fill:none" d="M 136.108 79.7183L 140.194 94.9523L 129.416 83.4333"/>
</g>
</svg>