<svg
  width="1072.7384pt"
  height="765.6042pt"
  viewBox="0 0 1072.7384 765.6042"
  xmlns:inkscape="http://www.inkscape.org/namespaces/inkscape"
  xmlns:sodipodi="http://sodipodi.sourceforge.net/DTD/sodipodi-0.dtd"
  xmlns:xlink="http://www.w3.org/1999/xlink"
  xmlns="http://www.w3.org/2000/svg">
  <defs
    id="Defs" />
  <sodipodi:namedview
    id="namedview326"
    inkscape:cx="0"
    inkscape:cy="0"
    inkscape:zoom="2.0526905"
    inkscape:document-units="pt"
    inkscape:current-layer="Layer1">
    <inkscape:grid
      id="grid822"
      spacingx="12"
      spacingy="12"
      type="xygrid"
      units="pt" />
  </sodipodi:namedview>
  <g
    id="LayerBG"
    inkscape:groupmode="layer"
    style=""
    sodipodi:insensitive="true">
    <rect
      id="rect545"
      style="stroke:none;stroke-opacity:1;stroke-width:1px;fill:#FFFFFF;fill-opacity:1;"
      x="11.443651"
      y="8.114198"
      width="1061.1742"
      height="753.8141" />
  </g>
  <g
    id="Layer1"
    inkscape:groupmode="layer"
    style="">
    <text
      id="text408"
      style="fill:#191B22;font-family:Liberation Sans;font-variant:normal;font-weight:normal;stroke-width:2px;font-style:normal;font-size:12px;"
      transform="translate(0,753.38)"
      x="540.58"
      y="-731.65" />
    <text
      id="text768"
      style="font-style:normal;font-size:12px;fill:#191B22;font-family:Liberation Sans;stroke-width:2px;font-variant:normal;font-weight:normal;"
      transform="translate(0,753.38)"
      x="563.8"
      y="8.320313" />
    <path
      id="path841"
      style="stroke:#191B22;stroke-width:2px;fill:none;"
      transform="translate(0,753.38) scale(1,-1)"
      d="M 216.03,12.578002 L 216.03,20.578003 " />
    <path
      id="path7"
      style="fill:none;stroke:#191B22;stroke-width:2px;"
      transform="translate(0,753.38) scale(1,-1)"
      d="M 944.02,12.578002 L 944.02,20.578003 " />
    <path
      id="path654"
      style="stroke:#191B22;stroke-width:2px;fill:none;"
      transform="translate(0,753.38) scale(1,-1)"
      d="M 361.63,16.578003 L 361.63,20.578003 " />
    <path
      id="path651"
      style="stroke-width:2px;fill:none;stroke:#191B22;"
      transform="translate(0,753.38) scale(1,-1)"
      d="M 507.23,16.578003 L 507.23,20.578003 " />
    <path
      id="path647"
      style="fill:none;stroke:#191B22;stroke-width:2px;"
      transform="translate(0,753.38) scale(1,-1)"
      d="M 652.83,16.578003 L 652.83,20.578003 " />
    <path
      id="path255"
      style="stroke:#191B22;stroke-width:2px;fill:none;"
      transform="translate(0,753.38) scale(1,-1)"
      d="M 798.42,16.578003 L 798.42,20.578003 " />
    <path
      id="path703"
      style="fill:none;stroke:#191B22;stroke-width:2px;"
      transform="translate(0,753.38) scale(1,-1)"
      d="M 70.435005,20.578003 L 1060.5,20.578003 " />
    <g
      id="g757"
      transform="matrix(-4.371139e-08,1,1,4.371139e-08,-753.38,-3.2931286e-05)">
      <text
        id="text872"
        style="fill:#191B22;font-family:Liberation Sans;font-variant:normal;stroke-width:2px;font-weight:normal;font-style:normal;font-size:12px;"
        transform="scale(1, -1)"
        x="398.21"
        y="-14.273378" />
    </g>
    <path
      id="path5"
      style="stroke-width:2px;fill:none;stroke:#191B22;"
      transform="translate(0,753.38) scale(1,-1)"
      d="M 56.629005,29.370972 L 64.629005,29.370972 " />
    <path
      id="path106"
      style="stroke-width:2px;fill:none;stroke:#191B22;"
      transform="translate(0,753.38) scale(1,-1)"
      d="M 56.629005,375.88 L 64.629005,375.88 " />
    <path
      id="path979"
      style="stroke:#191B22;stroke-width:2px;fill:none;"
      transform="translate(0,753.38) scale(1,-1)"
      d="M 56.629005,722.38 L 64.629005,722.38 " />
    <path
      id="path97"
      style="stroke:#191B22;stroke-width:2px;fill:none;"
      transform="translate(0,753.38) scale(1,-1)"
      d="M 60.629005,98.66998 L 64.629005,98.66998 " />
    <path
      id="path217"
      style="stroke-width:2px;fill:none;stroke:#191B22;"
      transform="translate(0,753.38) scale(1,-1)"
      d="M 60.629005,167.97003 L 64.629005,167.97003 " />
    <path
      id="path144"
      style="stroke:#191B22;stroke-width:2px;fill:none;"
      transform="translate(0,753.38) scale(1,-1)"
      d="M 60.629005,237.27002 L 64.629005,237.27002 " />
    <path
      id="path330"
      style="fill:none;stroke:#191B22;stroke-width:2px;"
      transform="translate(0,753.38) scale(1,-1)"
      d="M 60.629005,306.58 L 64.629005,306.58 " />
    <path
      id="path300"
      style="fill:none;stroke:#191B22;stroke-width:2px;"
      transform="translate(0,753.38) scale(1,-1)"
      d="M 60.629005,445.18 L 64.629005,445.18 " />
    <path
      id="path236"
      style="fill:none;stroke:#191B22;stroke-width:2px;"
      transform="translate(0,753.38) scale(1,-1)"
      d="M 60.629005,514.48 L 64.629005,514.48 " />
    <path
      id="path774"
      style="fill:none;stroke:#191B22;stroke-width:2px;"
      transform="translate(0,753.38) scale(1,-1)"
      d="M 60.629005,583.78 L 64.629005,583.78 " />
    <path
      id="path295"
      style="stroke-width:2px;fill:none;stroke:#191B22;"
      transform="translate(0,753.38) scale(1,-1)"
      d="M 60.629005,653.08 L 64.629005,653.08 " />
    <path
      id="path876"
      style="stroke-width:2px;fill:none;stroke:#191B22;"
      transform="translate(0,753.38) scale(1,-1)"
      d="M 64.629005,29.370972 L 64.629005,722.38 " />
    <path
      id="path732"
      style="stroke-width:4px;stroke-dasharray:8,4;stroke-opacity:1;fill:none;stroke:#000000;"
      transform="translate(0,753.38) scale(1,-1)"
      d="M 134.5,29.370972 L 227.68,98.66998 L 320.86,167.97003 L 414.05,237.27002 L 507.23,306.58 L 600.41,375.88 L 693.59,445.18 L 786.78,514.48 L 879.96,583.78 L 973.14,653.08 " />
    <path
      id="path935"
      style="fill:none;stroke:#FD8F00;stroke-width:4px;"
      transform="translate(0,753.38) scale(1,-1)"
      d="M 134.5,722.38 L 227.68,722.38 L 320.86,722.38 L 414.05,722.38 L 507.23,722.38 L 600.41,722.38 L 693.59,700.73 L 786.78,159.31 L 879.96,29.370972 L 973.14,29.370972 " />
    <path
      id="path13"
      style="stroke:#66AFFF;stroke-width:4px;fill:none;"
      transform="translate(0,753.38) scale(1,-1)"
      d="M 134.5,324.55 L 227.68,328.02 L 320.86,350.32 L 414.05,343.18 L 507.23,344.37 L 600.41,390.39 L 693.59,455.13 L 786.78,648.23 L 879.96,29.370972 L 973.14,29.370972 " />
    <text
      id="text646"
      style="stroke-opacity:1;fill:#191B22;text-align:AlignLeft;font-family:Arial;stroke:#000000;stroke-width:1px;fill-opacity:1;font-size:24px;"
      transform="none"
      x="11.550808"
      y="731.29254">
      <tspan
        id="tspan674"
        x="11.550808"
        y="731.29254">0.0</tspan>
    </text>
    <text
      id="text360"
      style="text-align:AlignLeft;stroke:#000000;fill:#191B22;stroke-width:1px;fill-opacity:1;font-size:24px;font-family:Arial;stroke-opacity:1;"
      transform="none"
      x="15.448132"
      y="385.40503">
      <tspan
        id="tspan674"
        x="15.448132"
        y="385.40503">0.5</tspan>
    </text>
    <text
      id="text575"
      style="stroke-opacity:1;stroke-width:1px;fill-opacity:1;fill:#191B22;font-size:24px;text-align:AlignLeft;font-family:Arial;stroke:#000000;"
      transform="none"
      x="15.448132"
      y="39.03038">
      <tspan
        id="tspan674"
        x="15.448132"
        y="39.03038">1.0</tspan>
    </text>
    <text
      id="text423"
      style="fill:#191B22;stroke:#000000;stroke-width:1px;fill-opacity:1;text-align:AlignLeft;font-size:36px;font-family:Arial;stroke-opacity:1;"
      transform="none"
      x="343.31052"
      y="69.657364">
      <tspan
        id="tspan674"
        x="343.31052"
        y="69.657364">Gated</tspan>
    </text>
    <text
      id="text162"
      style="text-align:AlignLeft;font-family:Arial;stroke-opacity:1;fill:#191B22;stroke:#000000;stroke-width:1px;fill-opacity:1;font-size:36px;"
      transform="none"
      x="368.5312"
      y="387.93597">
      <tspan
        id="tspan674"
        x="368.5312"
        y="387.93597">RT</tspan>
    </text>
    <text
      id="text354"
      style="stroke-width:1px;fill-opacity:1;font-size:36px;font-family:Arial;stroke-opacity:1;fill:#191B22;text-align:AlignLeft;stroke:#000000;"
      transform="none"
      x="355.4781"
      y="610.3152">
      <tspan
        id="tspan674"
        x="355.4781"
        y="610.3152">Cost</tspan>
    </text>
    <text
      id="text833"
      style="stroke:#000000;fill:#191B22;text-align:AlignLeft;font-size:24px;stroke-opacity:1;stroke-width:1px;fill-opacity:1;font-family:Liberation Sans;"
      transform="scale(0,0)"
      x="NaN"
      y="NaN">
      <tspan
        id="tspan598"
        x="NaN"
        y="NaN">Gated</tspan>
    </text>
  </g>
</svg>
