<?xml version="1.0" encoding="ISO-8859-1" standalone="yes"?>
<svg width="265.042" height="99.9918">
  <defs> 
    <marker id="ArrowEnd" viewBox="0 0 10 10" refX="0" refY="5" 
     markerUnits="strokeWidth" 
     markerWidth="4" 
     markerHeight="3" 
     orient="auto"> 
        <path d="M 0 0 L 10 5 L 0 10 z" /> 
    </marker>
    <marker id="ArrowStart" viewBox="0 0 10 10" refX="10" refY="5" 
     markerUnits="strokeWidth" 
     markerWidth="4" 
     markerHeight="3" 
     orient="auto"> 
        <path d="M 10 0 L 0 5 L 10 10 z" /> 
    </marker> </defs>
<g>
<path style="stroke:none; fill-rule:evenodd; fill:#5f5f5f" d="M 42.562 34.6168C 42.562 29.3355 38.2808 25.05 32.9956 25.05C 27.7144 25.05 23.4292 29.3316 23.4292 34.6168C 23.4292 39.898 27.7105 44.1832 32.9956 44.1832C 38.2769 44.1832 42.562 39.9019 42.562 34.6168"/>
<path style="stroke:#000000; stroke-width:1.9139600000000001; fill:none" d="M 42.562 34.6168C 42.562 29.3355 38.2808 25.05 32.9956 25.05C 27.7144 25.05 23.4292 29.3316 23.4292 34.6168C 23.4292 39.898 27.7105 44.1832 32.9956 44.1832C 38.2769 44.1832 42.562 39.9019 42.562 34.6168"/>
<path style="stroke:none; fill-rule:evenodd; fill:#ffffff" d="M 69.355 34.6168C 69.355 29.3355 65.0738 25.05 59.7886 25.05C 54.5074 25.05 50.2222 29.3316 50.2222 34.6168C 50.2222 39.898 54.5034 44.1832 59.7886 44.1832C 65.0699 44.1832 69.355 39.9019 69.355 34.6168"/>
<path style="stroke:#000000; stroke-width:1.9139600000000001; fill:none" d="M 69.355 34.6168C 69.355 29.3355 65.0738 25.05 59.7886 25.05C 54.5074 25.05 50.2222 29.3316 50.2222 34.6168C 50.2222 39.898 54.5034 44.1832 59.7886 44.1832C 65.0699 44.1832 69.355 39.9019 69.355 34.6168"/>
<path style="stroke:none; fill-rule:evenodd; fill:#5f5f5f" d="M 29.1636 74.8082C 29.1636 69.5269 24.8824 65.2418 19.5972 65.2418C 14.316 65.2418 10.0308 69.523 10.0308 74.8082C 10.0308 80.0894 14.312 84.3746 19.5972 84.3746C 24.8784 84.3746 29.1636 80.0933 29.1636 74.8082"/>
<path style="stroke:#000000; stroke-width:1.9139600000000001; fill:none" d="M 29.1636 74.8082C 29.1636 69.5269 24.8824 65.2418 19.5972 65.2418C 14.316 65.2418 10.0308 69.523 10.0308 74.8082C 10.0308 80.0894 14.312 84.3746 19.5972 84.3746C 24.8784 84.3746 29.1636 80.0933 29.1636 74.8082"/>
<path style="stroke:none; fill-rule:evenodd; fill:#5f5f5f" d="M 55.9566 74.8082C 55.9566 69.5269 51.6753 65.2418 46.3902 65.2418C 41.1089 65.2418 36.8238 69.523 36.8238 74.8082C 36.8238 80.0894 41.105 84.3746 46.3902 84.3746C 51.6714 84.3746 55.9566 80.0933 55.9566 74.8082"/>
<path style="stroke:#000000; stroke-width:1.9139600000000001; fill:none" d="M 55.9566 74.8082C 55.9566 69.5269 51.6753 65.2418 46.3902 65.2418C 41.1089 65.2418 36.8238 69.523 36.8238 74.8082C 36.8238 80.0894 41.105 84.3746 46.3902 84.3746C 51.6714 84.3746 55.9566 80.0933 55.9566 74.8082"/>
<path style="stroke:none; fill-rule:evenodd; fill:#ffffff" d="M 82.7534 74.8082C 82.7534 69.5269 78.4722 65.2418 73.187 65.2418C 67.9058 65.2418 63.6206 69.523 63.6206 74.8082C 63.6206 80.0894 67.9019 84.3746 73.187 84.3746C 78.4683 84.3746 82.7534 80.0933 82.7534 74.8082"/>
<path style="stroke:#000000; stroke-width:1.9139600000000001; fill:none" d="M 82.7534 74.8082C 82.7534 69.5269 78.4722 65.2418 73.187 65.2418C 67.9058 65.2418 63.6206 69.523 63.6206 74.8082C 63.6206 80.0894 67.9019 84.3746 73.187 84.3746C 78.4683 84.3746 82.7534 80.0933 82.7534 74.8082"/>
<path style="stroke:none; fill-rule:evenodd; fill:#000000" d="M 24.6402 92.9605C 24.2534 90.8355 23.0308 89.8003 20.9019 89.8003C 19.6011 89.8003 18.5503 90.2144 17.8316 91.0152C 16.9566 91.9761 16.4761 93.3628 16.4761 94.9371C 16.4761 96.5386 16.9644 97.9136 17.8863 98.8589C 18.6284 99.6324 19.5855 99.9918 20.8511 99.9918C 23.2183 99.9918 24.5464 98.7105 24.8433 96.1324L 23.5581 96.1324C 23.4527 96.8238 23.3199 97.2925 23.1206 97.6949C 22.7222 98.523 21.8941 98.9918 20.8511 98.9918C 18.9136 98.9918 17.6831 97.4097 17.6831 94.9214C 17.6831 92.3668 18.8589 90.7964 20.7456 90.7964C 21.5308 90.7964 22.2691 91.0425 22.6714 91.4332C 23.0308 91.7769 23.23 92.2066 23.3784 92.9566L 24.6402 92.9605z"/>
<path style="stroke:none; fill-rule:evenodd; fill:#000000" d="M 48.9214 96.6988L 49.9253 99.6988L 51.316 99.6988L 47.8863 89.9019L 46.2808 89.9019L 42.8003 99.6988L 44.1245 99.6988L 45.1558 96.6988L 48.9214 96.6988zM 48.5738 95.6988L 45.4683 95.6988L 47.0738 91.273L 48.5738 95.6988z"/>
<path style="stroke:#000000; stroke-width:2.87094; fill:none" d="M 73.1831 65.2378L 59.7886 44.1871"/>
<path style="stroke:#000000; stroke-width:2.87094; fill:none" d="M 32.9917 44.1871L 46.3863 65.2378"/>
<path style="stroke:#000000; stroke-width:2.87094; fill:none" d="M 19.5933 65.2378L 32.9878 44.1871"/>
<path style="stroke:#000000; stroke-width:2.87094; fill:none" d="M 46.3902 65.2378L 59.7847 44.1871"/>
<path style="stroke:#000000; stroke-width:0.95698000000000005; fill:none" d="M 34.9058 44.1871L 73.1831 65.2378"/>
<path style="stroke:#000000; stroke-width:0.95698000000000005; fill:none" d="M 19.5933 65.2378L 59.7847 44.1871"/>
<path style="stroke:none; fill-rule:evenodd; fill:#ffffff" d="M 128.691 34.6168C 128.691 29.3355 124.41 25.05 119.124 25.05C 113.843 25.05 109.558 29.3316 109.558 34.6168C 109.558 39.898 113.839 44.1832 119.124 44.1832C 124.406 44.1832 128.691 39.9019 128.691 34.6168"/>
<path style="stroke:#000000; stroke-width:1.9139600000000001; fill:none" d="M 128.691 34.6168C 128.691 29.3355 124.41 25.05 119.124 25.05C 113.843 25.05 109.558 29.3316 109.558 34.6168C 109.558 39.898 113.839 44.1832 119.124 44.1832C 124.406 44.1832 128.691 39.9019 128.691 34.6168"/>
<path style="stroke:none; fill-rule:evenodd; fill:#5f5f5f" d="M 155.484 34.6168C 155.484 29.3355 151.202 25.05 145.917 25.05C 140.636 25.05 136.351 29.3316 136.351 34.6168C 136.351 39.898 140.632 44.1832 145.917 44.1832C 151.199 44.1832 155.484 39.9019 155.484 34.6168"/>
<path style="stroke:#000000; stroke-width:1.9139600000000001; fill:none" d="M 155.484 34.6168C 155.484 29.3355 151.202 25.05 145.917 25.05C 140.636 25.05 136.351 29.3316 136.351 34.6168C 136.351 39.898 140.632 44.1832 145.917 44.1832C 151.199 44.1832 155.484 39.9019 155.484 34.6168"/>
<path style="stroke:none; fill-rule:evenodd; fill:#ffffff" d="M 115.292 74.8082C 115.292 69.5269 111.011 65.2418 105.726 65.2418C 100.445 65.2418 96.1602 69.523 96.1602 74.8082C 96.1602 80.0894 100.441 84.3746 105.726 84.3746C 111.007 84.3746 115.292 80.0933 115.292 74.8082"/>
<path style="stroke:#000000; stroke-width:1.9139600000000001; fill:none" d="M 115.292 74.8082C 115.292 69.5269 111.011 65.2418 105.726 65.2418C 100.445 65.2418 96.1602 69.523 96.1602 74.8082C 96.1602 80.0894 100.441 84.3746 105.726 84.3746C 111.007 84.3746 115.292 80.0933 115.292 74.8082"/>
<path style="stroke:none; fill-rule:evenodd; fill:#5f5f5f" d="M 142.085 74.8082C 142.085 69.5269 137.804 65.2418 132.519 65.2418C 127.238 65.2418 122.952 69.523 122.952 74.8082C 122.952 80.0894 127.234 84.3746 132.519 84.3746C 137.8 84.3746 142.085 80.0933 142.085 74.8082"/>
<path style="stroke:#000000; stroke-width:1.9139600000000001; fill:none" d="M 142.085 74.8082C 142.085 69.5269 137.804 65.2418 132.519 65.2418C 127.238 65.2418 122.952 69.523 122.952 74.8082C 122.952 80.0894 127.234 84.3746 132.519 84.3746C 137.8 84.3746 142.085 80.0933 142.085 74.8082"/>
<path style="stroke:none; fill-rule:evenodd; fill:#5f5f5f" d="M 168.882 74.8082C 168.882 69.5269 164.601 65.2418 159.316 65.2418C 154.034 65.2418 149.749 69.523 149.749 74.8082C 149.749 80.0894 154.031 84.3746 159.316 84.3746C 164.597 84.3746 168.882 80.0933 168.882 74.8082"/>
<path style="stroke:#000000; stroke-width:1.9139600000000001; fill:none" d="M 168.882 74.8082C 168.882 69.5269 164.601 65.2418 159.316 65.2418C 154.034 65.2418 149.749 69.523 149.749 74.8082C 149.749 80.0894 154.031 84.3746 159.316 84.3746C 164.597 84.3746 168.882 80.0933 168.882 74.8082"/>
<path style="stroke:none; fill-rule:evenodd; fill:#000000" d="M 110.738 92.9605C 110.351 90.8355 109.128 89.8003 106.999 89.8003C 105.699 89.8003 104.648 90.2144 103.929 91.0152C 103.054 91.9761 102.574 93.3628 102.574 94.9371C 102.574 96.5386 103.062 97.9136 103.984 98.8589C 104.726 99.6324 105.683 99.9918 106.949 99.9918C 109.316 99.9918 110.644 98.7105 110.941 96.1324L 109.656 96.1324C 109.55 96.8238 109.417 97.2925 109.218 97.6949C 108.82 98.523 107.992 98.9918 106.949 98.9918C 105.011 98.9918 103.781 97.4097 103.781 94.9214C 103.781 92.3668 104.956 90.7964 106.843 90.7964C 107.628 90.7964 108.367 91.0425 108.769 91.4332C 109.128 91.7769 109.327 92.2066 109.476 92.9566L 110.738 92.9605z"/>
<path style="stroke:none; fill-rule:evenodd; fill:#000000" d="M 135.019 96.6988L 136.023 99.6988L 137.413 99.6988L 133.984 89.9019L 132.378 89.9019L 128.898 99.6988L 130.222 99.6988L 131.253 96.6988L 135.019 96.6988zM 134.671 95.6988L 131.566 95.6988L 133.171 91.273L 134.671 95.6988z"/>
<path style="stroke:#000000; stroke-width:2.87094; fill:none" d="M 159.312 65.2378L 145.917 44.1871"/>
<path style="stroke:#000000; stroke-width:2.87094; fill:none" d="M 119.12 44.1871L 132.515 65.2378"/>
<path style="stroke:#000000; stroke-width:2.87094; fill:none" d="M 105.722 65.2378L 119.117 44.1871"/>
<path style="stroke:#000000; stroke-width:2.87094; fill:none" d="M 132.515 65.2378L 145.91 44.1871"/>
<path style="stroke:#000000; stroke-width:0.95698000000000005; fill:none" d="M 121.034 44.1871L 159.312 65.2378"/>
<path style="stroke:#000000; stroke-width:0.95698000000000005; fill:none" d="M 105.722 65.2378L 145.913 44.1871"/>
<path style="stroke:none; fill-rule:evenodd; fill:#5f5f5f" d="M 214.816 34.6168C 214.816 29.3355 210.534 25.05 205.249 25.05C 199.968 25.05 195.683 29.3316 195.683 34.6168C 195.683 39.898 199.964 44.1832 205.249 44.1832C 210.531 44.1832 214.816 39.9019 214.816 34.6168"/>
<path style="stroke:#000000; stroke-width:1.9139600000000001; fill:none" d="M 214.816 34.6168C 214.816 29.3355 210.534 25.05 205.249 25.05C 199.968 25.05 195.683 29.3316 195.683 34.6168C 195.683 39.898 199.964 44.1832 205.249 44.1832C 210.531 44.1832 214.816 39.9019 214.816 34.6168"/>
<path style="stroke:none; fill-rule:evenodd; fill:#5f5f5f" d="M 241.613 34.6168C 241.613 29.3355 237.331 25.05 232.046 25.05C 226.765 25.05 222.48 29.3316 222.48 34.6168C 222.48 39.898 226.761 44.1832 232.046 44.1832C 237.327 44.1832 241.613 39.9019 241.613 34.6168"/>
<path style="stroke:#000000; stroke-width:1.9139600000000001; fill:none" d="M 241.613 34.6168C 241.613 29.3355 237.331 25.05 232.046 25.05C 226.765 25.05 222.48 29.3316 222.48 34.6168C 222.48 39.898 226.761 44.1832 232.046 44.1832C 237.327 44.1832 241.613 39.9019 241.613 34.6168"/>
<path style="stroke:none; fill-rule:evenodd; fill:#ffffff" d="M 201.417 74.8082C 201.417 69.5269 197.136 65.2418 191.851 65.2418C 186.57 65.2418 182.284 69.523 182.284 74.8082C 182.284 80.0894 186.566 84.3746 191.851 84.3746C 197.132 84.3746 201.417 80.0933 201.417 74.8082"/>
<path style="stroke:#000000; stroke-width:1.9139600000000001; fill:none" d="M 201.417 74.8082C 201.417 69.5269 197.136 65.2418 191.851 65.2418C 186.57 65.2418 182.284 69.523 182.284 74.8082C 182.284 80.0894 186.566 84.3746 191.851 84.3746C 197.132 84.3746 201.417 80.0933 201.417 74.8082"/>
<path style="stroke:none; fill-rule:evenodd; fill:#5f5f5f" d="M 228.214 74.8082C 228.214 69.5269 223.933 65.2418 218.648 65.2418C 213.367 65.2418 209.081 69.523 209.081 74.8082C 209.081 80.0894 213.363 84.3746 218.648 84.3746C 223.929 84.3746 228.214 80.0933 228.214 74.8082"/>
<path style="stroke:#000000; stroke-width:1.9139600000000001; fill:none" d="M 228.214 74.8082C 228.214 69.5269 223.933 65.2418 218.648 65.2418C 213.367 65.2418 209.081 69.523 209.081 74.8082C 209.081 80.0894 213.363 84.3746 218.648 84.3746C 223.929 84.3746 228.214 80.0933 228.214 74.8082"/>
<path style="stroke:none; fill-rule:evenodd; fill:#ffffff" d="M 255.011 74.8082C 255.011 69.5269 250.73 65.2418 245.445 65.2418C 240.163 65.2418 235.878 69.523 235.878 74.8082C 235.878 80.0894 240.16 84.3746 245.445 84.3746C 250.726 84.3746 255.011 80.0933 255.011 74.8082"/>
<path style="stroke:#000000; stroke-width:1.9139600000000001; fill:none" d="M 255.011 74.8082C 255.011 69.5269 250.73 65.2418 245.445 65.2418C 240.163 65.2418 235.878 69.523 235.878 74.8082C 235.878 80.0894 240.16 84.3746 245.445 84.3746C 250.726 84.3746 255.011 80.0933 255.011 74.8082"/>
<path style="stroke:none; fill-rule:evenodd; fill:#000000" d="M 196.941 92.9605C 196.554 90.8355 195.331 89.8003 193.202 89.8003C 191.902 89.8003 190.851 90.2144 190.132 91.0152C 189.257 91.9761 188.777 93.3628 188.777 94.9371C 188.777 96.5386 189.265 97.9136 190.187 98.8589C 190.929 99.6324 191.886 99.9918 193.152 99.9918C 195.519 99.9918 196.847 98.7105 197.144 96.1324L 195.859 96.1324C 195.753 96.8238 195.62 97.2925 195.421 97.6949C 195.023 98.523 194.195 98.9918 193.152 98.9918C 191.214 98.9918 189.984 97.4097 189.984 94.9214C 189.984 92.3668 191.16 90.7964 193.046 90.7964C 193.831 90.7964 194.57 91.0425 194.972 91.4332C 195.331 91.7769 195.531 92.2066 195.679 92.9566L 196.941 92.9605z"/>
<path style="stroke:none; fill-rule:evenodd; fill:#000000" d="M 221.12 96.6988L 222.124 99.6988L 223.515 99.6988L 220.085 89.9019L 218.48 89.9019L 214.999 99.6988L 216.324 99.6988L 217.355 96.6988L 221.12 96.6988zM 220.773 95.6988L 217.667 95.6988L 219.273 91.273L 220.773 95.6988z"/>
<path style="stroke:#000000; stroke-width:2.87094; fill:none" d="M 245.441 65.2378L 232.046 44.1871"/>
<path style="stroke:#000000; stroke-width:2.87094; fill:none" d="M 205.245 44.1871L 218.64 65.2378"/>
<path style="stroke:#000000; stroke-width:2.87094; fill:none" d="M 191.851 65.2378L 205.245 44.1871"/>
<path style="stroke:#000000; stroke-width:2.87094; fill:none" d="M 218.644 65.2378L 232.038 44.1871"/>
<path style="stroke:#000000; stroke-width:0.95698000000000005; fill:none" d="M 207.16 44.1871L 245.437 65.2378"/>
<path style="stroke:#000000; stroke-width:0.95698000000000005; fill:none" d="M 191.851 65.2378L 232.042 44.1871"/>
<path style="stroke:none; fill-rule:evenodd; fill:#000000" d="M 15.2144 7.836C 15.1089 7.89799 15.062 7.89799 15.0034 7.89799C 14.6636 7.89799 14.4761 7.726 14.4761 7.425L 14.4761 3.85899C 14.4761 2.785 13.6988 2.203 12.2261 2.203C 11.3589 2.203 10.6402 2.45699 10.2378 2.906C 9.96437 3.214 9.85106 3.562 9.82766 4.16399L 10.773 4.16399C 10.8511 3.433 11.2769 3.105 12.1597 3.105C 13.0034 3.105 13.4761 3.425 13.4761 4.003L 13.4761 4.257C 13.4761 4.66 13.2417 4.83199 12.4995 4.925C 11.1753 5.09699 10.9722 5.144 10.6128 5.29299C 9.92916 5.578 9.58156 6.12099 9.58156 6.906C 9.58156 7.99999 10.3355 8.69099 11.5503 8.69099C 12.3042 8.69099 12.9097 8.41799 13.5855 7.77299C 13.6519 8.406 13.9488 8.69099 14.5699 8.69099C 14.7613 8.69099 14.9097 8.66799 15.2183 8.586L 15.2144 7.836zM 13.4722 6.53899C 13.4722 6.867 13.3863 7.06999 13.105 7.34299C 12.7261 7.70699 12.2691 7.89799 11.7222 7.89799C 10.9995 7.89799 10.5777 7.535 10.5777 6.906C 10.5777 6.257 10.9878 5.925 11.98 5.77299C 12.9605 5.632 13.1597 5.586 13.4722 5.42899L 13.4722 6.53899z"/>
<path style="stroke:none; fill-rule:evenodd; fill:#000000" d="M 16.5269 10.836C 17.6558 9.328 18.3667 7.23399 18.3667 5.42899C 18.3667 3.61299 17.6558 1.519 16.5269 0.00698853L 15.9097 0.00698853C 16.9136 1.65199 17.4722 3.586 17.4722 5.42899C 17.4722 7.257 16.9136 9.203 15.9097 10.836L 16.5269 10.836z"/>
<path style="stroke:none; fill-rule:evenodd; fill:#000000" d="M 95.7692 0L 95.7692 8.39799L 96.6672 8.39799L 96.6672 7.628C 97.1202 8.351 97.7262 8.69499 98.5622 8.69499C 100.136 8.69499 101.163 7.38999 101.163 5.378C 101.163 3.41399 100.183 2.199 98.6132 2.199C 97.7922 2.199 97.2142 2.51099 96.7692 3.19499L 96.7692 0L 95.7692 0zM 98.4212 3.105C 99.4882 3.105 100.175 4.035 100.175 5.46799C 100.175 6.83199 99.4642 7.76499 98.4212 7.76499C 97.4132 7.76499 96.7452 6.84699 96.7452 5.437C 96.7452 4.02699 97.4102 3.10899 98.4212 3.10899L 98.4212 3.105z"/>
<path style="stroke:none; fill-rule:evenodd; fill:#000000" d="M 102.628 10.836C 103.757 9.328 104.468 7.23399 104.468 5.42899C 104.468 3.61299 103.757 1.519 102.628 0.00698853L 102.011 0.00698853C 103.015 1.65199 103.574 3.586 103.574 5.42899C 103.574 7.257 103.015 9.203 102.011 10.836L 102.628 10.836z"/>
<path style="stroke:none; fill-rule:evenodd; fill:#000000" d="M 186.781 4.406C 186.738 3.81999 186.613 3.437 186.382 3.105C 185.976 2.54299 185.257 2.20699 184.425 2.20699C 182.824 2.20699 181.777 3.49999 181.777 5.51099C 181.777 7.464 182.8 8.703 184.417 8.703C 185.839 8.703 186.738 7.828 186.851 6.339L 185.898 6.339C 185.742 7.31599 185.253 7.80399 184.445 7.80399C 183.402 7.80399 182.777 6.94099 182.777 5.51499C 182.777 4.007 183.386 3.10899 184.421 3.10899C 185.214 3.10899 185.714 3.578 185.827 4.41L 186.781 4.406z"/>
<path style="stroke:none; fill-rule:evenodd; fill:#000000" d="M 188.128 10.836C 189.257 9.328 189.968 7.23399 189.968 5.42899C 189.968 3.61299 189.257 1.519 188.128 0.00698853L 187.511 0.00698853C 188.515 1.65199 189.074 3.586 189.074 5.42899C 189.074 7.257 188.515 9.203 187.511 10.836L 188.128 10.836z"/>
<path style="stroke:none; fill-rule:evenodd; fill:#000000" d="M 70.4722 99.6988L 74.8238 99.6988C 75.7339 99.6988 76.4097 99.4449 76.9253 98.8824C 77.398 98.3746 77.6636 97.6753 77.6636 96.9097C 77.6636 95.73 77.1441 95.0152 75.9292 94.5308C 76.8003 94.1168 77.2613 93.3902 77.2613 92.3941C 77.2613 91.6832 76.9956 91.0503 76.4917 90.5933C 75.9878 90.1246 75.3238 89.9097 74.3941 89.9097L 70.4644 89.9097L 70.4722 99.6988zM 71.6714 94.1988L 71.6714 90.9019L 74.0972 90.9019C 74.7964 90.9019 75.187 90.9996 75.5269 91.2691C 75.8745 91.5503 76.066 91.98 76.066 92.5464C 76.066 93.1011 75.8784 93.5386 75.5269 93.8238C 75.191 94.0933 74.8003 94.191 74.0972 94.191L 71.6714 94.1988zM 71.6714 98.6988L 71.6714 95.1988L 74.7144 95.1988C 75.316 95.1988 75.7183 95.3511 76.0113 95.6832C 76.3042 96.0035 76.4644 96.4488 76.4644 96.9488C 76.4644 97.4332 76.3042 97.8824 76.0113 98.2027C 75.7183 98.5347 75.316 98.6871 74.7144 98.6871L 71.6714 98.6988z"/>
<path style="stroke:none; fill-rule:evenodd; fill:#000000" d="M 156.57 99.6988L 160.921 99.6988C 161.831 99.6988 162.507 99.4449 163.023 98.8824C 163.495 98.3746 163.761 97.6753 163.761 96.9097C 163.761 95.73 163.242 95.0152 162.027 94.5308C 162.898 94.1168 163.359 93.3902 163.359 92.3941C 163.359 91.6832 163.093 91.0503 162.589 90.5933C 162.085 90.1246 161.421 89.9097 160.492 89.9097L 156.562 89.9097L 156.57 99.6988zM 157.769 94.1988L 157.769 90.9019L 160.195 90.9019C 160.894 90.9019 161.284 90.9996 161.624 91.2691C 161.972 91.5503 162.163 91.98 162.163 92.5464C 162.163 93.1011 161.976 93.5386 161.624 93.8238C 161.288 94.0933 160.898 94.191 160.195 94.191L 157.769 94.1988zM 157.769 98.6988L 157.769 95.1988L 160.812 95.1988C 161.413 95.1988 161.816 95.3511 162.109 95.6832C 162.402 96.0035 162.562 96.4488 162.562 96.9488C 162.562 97.4332 162.402 97.8824 162.109 98.2027C 161.816 98.5347 161.413 98.6871 160.812 98.6871L 157.769 98.6988z"/>
<path style="stroke:none; fill-rule:evenodd; fill:#000000" d="M 242.671 99.6988L 247.023 99.6988C 247.933 99.6988 248.609 99.4449 249.124 98.8824C 249.597 98.3746 249.863 97.6753 249.863 96.9097C 249.863 95.73 249.343 95.0152 248.128 94.5308C 248.999 94.1168 249.46 93.3902 249.46 92.3941C 249.46 91.6832 249.195 91.0503 248.691 90.5933C 248.187 90.1246 247.523 89.9097 246.593 89.9097L 242.663 89.9097L 242.671 99.6988zM 243.87 94.1988L 243.87 90.9019L 246.296 90.9019C 246.995 90.9019 247.386 90.9996 247.726 91.2691C 248.074 91.5503 248.265 91.98 248.265 92.5464C 248.265 93.1011 248.077 93.5386 247.726 93.8238C 247.39 94.0933 246.999 94.191 246.296 94.191L 243.87 94.1988zM 243.87 98.6988L 243.87 95.1988L 246.913 95.1988C 247.515 95.1988 247.917 95.3511 248.21 95.6832C 248.503 96.0035 248.663 96.4488 248.663 96.9488C 248.663 97.4332 248.503 97.8824 248.21 98.2027C 247.917 98.5347 247.515 98.6871 246.913 98.6871L 243.87 98.6988z"/>
<path style="stroke:none; fill-rule:evenodd; fill:#000000" d="M 29.8199 18.199L 30.8238 21.199L 32.2144 21.199L 28.7847 11.402L 27.1792 11.402L 23.6988 21.199L 25.023 21.199L 26.0542 18.199L 29.8199 18.199zM 29.4722 17.199L 26.3667 17.199L 27.9722 12.773L 29.4722 17.199z"/>
<path style="stroke:none; fill-rule:evenodd; fill:#000000" d="M 41.2378 14.46C 40.8511 12.336 39.6284 11.3 37.4995 11.3C 36.1988 11.3 35.148 11.714 34.4292 12.515C 33.5542 13.476 33.0738 14.863 33.0738 16.437C 33.0738 18.039 33.562 19.414 34.4839 20.359C 35.2261 21.132 36.1831 21.492 37.4488 21.492C 39.816 21.492 41.1441 20.21 41.441 17.632L 40.1558 17.632C 40.0503 18.324 39.9175 18.793 39.7183 19.195C 39.3199 20.023 38.4917 20.492 37.4488 20.492C 35.5113 20.492 34.2808 18.91 34.2808 16.421C 34.2808 13.867 35.4566 12.296 37.3433 12.296C 38.1284 12.296 38.8667 12.543 39.2691 12.933C 39.6284 13.277 39.8277 13.707 39.9761 14.457L 41.2378 14.46z"/>
<path style="stroke:none; fill-rule:evenodd; fill:#000000" d="M 56.5191 18.199L 57.523 21.199L 58.9136 21.199L 55.4839 11.402L 53.8784 11.402L 50.398 21.199L 51.7222 21.199L 52.7534 18.199L 56.5191 18.199zM 56.1714 17.199L 53.066 17.199L 54.6714 12.773L 56.1714 17.199z"/>
<path style="stroke:none; fill-rule:evenodd; fill:#000000" d="M 60.2691 21.199L 64.6206 21.199C 65.5308 21.199 66.2066 20.945 66.7222 20.382C 67.1949 19.875 67.4605 19.175 67.4605 18.41C 67.4605 17.23 66.941 16.515 65.7261 16.031C 66.5972 15.617 67.0581 14.89 67.0581 13.894C 67.0581 13.183 66.7925 12.55 66.2886 12.093C 65.7847 11.625 65.1206 11.41 64.191 11.41L 60.2613 11.41L 60.2691 21.199zM 61.4722 15.699L 61.4722 12.402L 63.898 12.402C 64.5972 12.402 64.9878 12.5 65.3277 12.769C 65.6753 13.05 65.8667 13.48 65.8667 14.046C 65.8667 14.601 65.6792 15.039 65.3277 15.324C 64.9917 15.593 64.6011 15.691 63.898 15.691L 61.4722 15.699zM 61.4722 20.199L 61.4722 16.699L 64.5152 16.699C 65.1167 16.699 65.5191 16.851 65.812 17.183C 66.105 17.503 66.2652 17.949 66.2652 18.449C 66.2652 18.933 66.105 19.382 65.812 19.703C 65.5191 20.035 65.1167 20.187 64.5152 20.187L 61.4722 20.199z"/>
<path style="stroke:none; fill-rule:evenodd; fill:#000000" d="M 115.921 18.199L 116.925 21.199L 118.316 21.199L 114.886 11.402L 113.281 11.402L 109.8 21.199L 111.124 21.199L 112.156 18.199L 115.921 18.199zM 115.574 17.199L 112.468 17.199L 114.074 12.773L 115.574 17.199z"/>
<path style="stroke:none; fill-rule:evenodd; fill:#000000" d="M 127.339 14.46C 126.952 12.336 125.73 11.3 123.601 11.3C 122.3 11.3 121.249 11.714 120.531 12.515C 119.656 13.476 119.175 14.863 119.175 16.437C 119.175 18.039 119.663 19.414 120.585 20.359C 121.327 21.132 122.284 21.492 123.55 21.492C 125.917 21.492 127.245 20.21 127.542 17.632L 126.257 17.632C 126.152 18.324 126.019 18.793 125.82 19.195C 125.421 20.023 124.593 20.492 123.55 20.492C 121.613 20.492 120.382 18.91 120.382 16.421C 120.382 13.867 121.558 12.296 123.445 12.296C 124.23 12.296 124.968 12.543 125.37 12.933C 125.73 13.277 125.929 13.707 126.077 14.457L 127.339 14.46z"/>
<path style="stroke:none; fill-rule:evenodd; fill:#000000" d="M 142.722 18.199L 143.726 21.199L 145.117 21.199L 141.687 11.402L 140.081 11.402L 136.601 21.199L 137.925 21.199L 138.956 18.199L 142.722 18.199zM 142.37 17.199L 139.265 17.199L 140.87 12.773L 142.37 17.199z"/>
<path style="stroke:none; fill-rule:evenodd; fill:#000000" d="M 146.37 21.199L 150.722 21.199C 151.632 21.199 152.308 20.945 152.824 20.382C 153.296 19.875 153.562 19.175 153.562 18.41C 153.562 17.23 153.042 16.515 151.827 16.031C 152.699 15.617 153.16 14.89 153.16 13.894C 153.16 13.183 152.894 12.55 152.39 12.093C 151.886 11.625 151.222 11.41 150.292 11.41L 146.363 11.41L 146.37 21.199zM 147.57 15.699L 147.57 12.402L 149.995 12.402C 150.695 12.402 151.085 12.5 151.425 12.769C 151.773 13.05 151.964 13.48 151.964 14.046C 151.964 14.601 151.777 15.039 151.425 15.324C 151.089 15.593 150.699 15.691 149.995 15.691L 147.57 15.699zM 147.57 20.199L 147.57 16.699L 150.613 16.699C 151.214 16.699 151.617 16.851 151.91 17.183C 152.202 17.503 152.363 17.949 152.363 18.449C 152.363 18.933 152.202 19.382 151.91 19.703C 151.617 20.035 151.214 20.187 150.613 20.187L 147.57 20.199z"/>
<path style="stroke:none; fill-rule:evenodd; fill:#000000" d="M 202.019 18.199L 203.023 21.199L 204.413 21.199L 200.984 11.402L 199.378 11.402L 195.898 21.199L 197.222 21.199L 198.253 18.199L 202.019 18.199zM 201.671 17.199L 198.566 17.199L 200.171 12.773L 201.671 17.199z"/>
<path style="stroke:none; fill-rule:evenodd; fill:#000000" d="M 213.441 14.46C 213.054 12.336 211.831 11.3 209.702 11.3C 208.402 11.3 207.351 11.714 206.632 12.515C 205.757 13.476 205.277 14.863 205.277 16.437C 205.277 18.039 205.765 19.414 206.687 20.359C 207.429 21.132 208.386 21.492 209.652 21.492C 212.019 21.492 213.347 20.21 213.644 17.632L 212.359 17.632C 212.253 18.324 212.12 18.793 211.921 19.195C 211.523 20.023 210.695 20.492 209.652 20.492C 207.714 20.492 206.484 18.91 206.484 16.421C 206.484 13.867 207.66 12.296 209.546 12.296C 210.331 12.296 211.07 12.543 211.472 12.933C 211.831 13.277 212.031 13.707 212.179 14.457L 213.441 14.46z"/>
<path style="stroke:none; fill-rule:evenodd; fill:#000000" d="M 228.82 18.199L 229.824 21.199L 231.214 21.199L 227.784 11.402L 226.179 11.402L 222.699 21.199L 224.023 21.199L 225.054 18.199L 228.82 18.199zM 228.472 17.199L 225.367 17.199L 226.972 12.773L 228.472 17.199z"/>
<path style="stroke:none; fill-rule:evenodd; fill:#000000" d="M 232.472 21.199L 236.824 21.199C 237.734 21.199 238.41 20.945 238.925 20.382C 239.398 19.875 239.663 19.175 239.663 18.41C 239.663 17.23 239.144 16.515 237.929 16.031C 238.8 15.617 239.261 14.89 239.261 13.894C 239.261 13.183 238.995 12.55 238.492 12.093C 237.988 11.625 237.324 11.41 236.394 11.41L 232.464 11.41L 232.472 21.199zM 233.671 15.699L 233.671 12.402L 236.097 12.402C 236.796 12.402 237.187 12.5 237.527 12.769C 237.874 13.05 238.066 13.48 238.066 14.046C 238.066 14.601 237.878 15.039 237.527 15.324C 237.191 15.593 236.8 15.691 236.097 15.691L 233.671 15.699zM 233.671 20.199L 233.671 16.699L 236.714 16.699C 237.316 16.699 237.718 16.851 238.011 17.183C 238.304 17.503 238.464 17.949 238.464 18.449C 238.464 18.933 238.304 19.382 238.011 19.703C 237.718 20.035 237.316 20.187 236.714 20.187L 233.671 20.199z"/>
</g>
</svg>