<?xml version="1.0" encoding="ISO-8859-1" standalone="yes"?>
<svg width="184.659" height="92.5655">
  <defs> 
    <marker id="ArrowEnd" viewBox="0 0 10 10" refX="0" refY="5" 
     markerUnits="strokeWidth" 
     markerWidth="4" 
     markerHeight="3" 
     orient="auto"> 
        <path d="M 0 0 L 10 5 L 0 10 z" /> 
    </marker>
    <marker id="ArrowStart" viewBox="0 0 10 10" refX="10" refY="5" 
     markerUnits="strokeWidth" 
     markerWidth="4" 
     markerHeight="3" 
     orient="auto"> 
        <path d="M 10 0 L 0 5 L 10 10 z" /> 
    </marker> </defs>
<g>
<path style="stroke:none; fill-rule:evenodd; fill:#ffffff" d="M 13.8589 34.6871L 40.6519 34.6871L 40.6519 11.722L 13.8589 11.722L 13.8589 34.6871z"/>
<path style="stroke:#000000; stroke-width:1.9139600000000001; fill:none" d="M 13.8589 34.6871L 40.6519 34.6871L 40.6519 11.722L 13.8589 11.722L 13.8589 34.6871z"/>
<path style="stroke:none; fill-rule:evenodd; fill:#000000" d="M 27.3784 20.8316L 27.3784 26.5972L 28.3784 26.5972L 28.3784 18.5L 27.7105 18.5C 27.355 19.7457 27.1245 19.9175 25.5542 20.1089L 25.5542 20.8277L 27.3784 20.8316z"/>
<path style="stroke:none; fill-rule:evenodd; fill:#000000" d="M 29.2769 0L 28.1792 0L 28.1792 8.398L 33.3784 8.398L 33.3784 7.5L 29.2808 7.5L 29.2769 0z"/>
<path style="stroke:none; fill-rule:evenodd; fill:#ffffff" d="M 32.9995 40.4253L 59.7925 40.4253L 59.7925 17.46L 32.9995 17.46L 32.9995 40.4253z"/>
<path style="stroke:#000000; stroke-width:1.9139600000000001; fill:none" d="M 32.9995 40.4253L 59.7925 40.4253L 59.7925 17.46L 32.9995 17.46L 32.9995 40.4253z"/>
<path style="stroke:none; fill-rule:evenodd; fill:#000000" d="M 48.023 29.898L 48.8823 32.398L 50.0738 32.398L 47.1362 23.9996L 45.7612 23.9996L 42.7769 32.398L 43.9136 32.398L 44.7964 29.898L 48.023 29.898zM 47.7222 28.9996L 45.062 28.9996L 46.437 25.1792L 47.7222 28.9996z"/>
<path style="stroke:none; fill-rule:evenodd; fill:#ffffff" d="M 52.1402 46.1675L 78.9331 46.1675L 78.9331 23.2027L 52.1402 23.2027L 52.1402 46.1675z"/>
<path style="stroke:#000000; stroke-width:1.9139600000000001; fill:none" d="M 52.1402 46.1675L 78.9331 46.1675L 78.9331 23.2027L 52.1402 23.2027L 52.1402 46.1675z"/>
<path style="stroke:none; fill-rule:evenodd; fill:#000000" d="M 66.1675 33.7925L 68.9917 29.7027L 67.7183 29.7027L 65.562 33.0113L 63.4175 29.7027L 62.1206 29.7027L 64.898 33.7925L 61.937 38.1011L 63.2339 38.1011L 65.5269 34.6128L 67.812 38.1011L 69.1323 38.1011L 66.1675 33.7925z"/>
<path style="stroke:none; fill-rule:evenodd; fill:#000000" d="M 46.48 5.8L 45.3823 5.8L 45.3823 14.199L 50.5816 14.199L 50.5816 13.3L 46.4839 13.3L 46.48 5.8z"/>
<path style="stroke:none; fill-rule:evenodd; fill:#000000" d="M 65.7769 16.3L 68.5073 16.3C 69.4488 16.3 69.8706 16.757 69.8706 17.789L 69.8706 18.531C 69.8706 19.0464 69.9566 19.5503 70.105 19.8941L 71.3667 19.8941L 71.3667 19.6324C 70.9722 19.3589 70.8941 19.0582 70.8706 17.941C 70.8589 16.562 70.6402 16.144 69.7261 15.753C 70.6831 15.293 71.0698 14.707 71.0698 13.75C 71.0698 12.3 70.1636 11.503 68.523 11.503L 64.6714 11.503L 64.6714 19.9019L 65.7691 19.9019L 65.7769 16.3zM 65.7144 15.351L 65.7144 12.472L 68.2964 12.472C 68.8902 12.472 69.2339 12.562 69.4995 12.793C 69.7847 13.031 69.9331 13.41 69.9331 13.918C 69.9331 14.902 69.4292 15.351 68.2925 15.351L 65.7144 15.351z"/>
<path style="stroke:none; fill-rule:evenodd; fill:#ffffff" d="M 71.2769 51.9097L 98.07 51.9097L 98.07 28.9449L 71.2769 28.9449L 71.2769 51.9097z"/>
<path style="stroke:#000000; stroke-width:1.9139600000000001; fill:none" d="M 71.2769 51.9097L 98.07 51.9097L 98.07 28.9449L 71.2769 28.9449L 71.2769 51.9097z"/>
<path style="stroke:none; fill-rule:evenodd; fill:#000000" d="M 82.1792 43.898L 85.9878 43.898C 86.7847 43.898 87.3745 43.6792 87.8277 43.1988C 88.2417 42.7613 88.4761 42.1636 88.4761 41.5074C 88.4761 40.4957 88.0034 39.8824 86.9058 39.4722C 87.6714 39.1168 88.0777 38.4957 88.0777 37.6441C 88.0777 37.0347 87.8511 36.4957 87.4097 36.1011C 86.9722 35.6988 86.398 35.5152 85.5894 35.5152L 82.1792 35.5152L 82.1792 43.898zM 83.2769 39.1988L 83.2769 36.4019L 85.3159 36.4019C 85.9058 36.4019 86.2339 36.4839 86.5152 36.7144C 86.8081 36.9527 86.9683 37.316 86.9683 37.8003C 86.9683 38.2691 86.812 38.6441 86.5152 38.8863C 86.2339 39.1128 85.9058 39.1988 85.3159 39.1988L 83.2769 39.1988zM 83.2769 42.9996L 83.2769 40.1011L 85.8745 40.1011C 86.3862 40.1011 86.73 40.2261 86.9839 40.5035C 87.2339 40.7691 87.3706 41.1363 87.3706 41.5542C 87.3706 41.9566 87.2339 42.3277 86.9839 42.5894C 86.7339 42.8628 86.3902 42.9918 85.8745 42.9918L 83.2769 42.9996z"/>
<path style="stroke:none; fill-rule:evenodd; fill:#000000" d="M 84.7769 17.3L 83.6792 17.3L 83.6792 25.6988L 88.8784 25.6988L 88.8784 24.8003L 84.7808 24.8003L 84.7769 17.3z"/>
<path style="stroke:none; fill-rule:evenodd; fill:#ffffff" d="M 90.418 57.6519L 117.21 57.6519L 117.21 34.6871L 90.418 34.6871L 90.418 57.6519z"/>
<path style="stroke:#000000; stroke-width:1.9139600000000001; fill:none" d="M 90.418 57.6519L 117.21 57.6519L 117.21 34.6871L 90.418 34.6871L 90.418 57.6519z"/>
<path style="stroke:none; fill-rule:evenodd; fill:#000000" d="M 104.468 45.2925L 107.292 41.2027L 106.019 41.2027L 103.863 44.5113L 101.718 41.2027L 100.421 41.2027L 103.199 45.2925L 100.238 49.6011L 101.535 49.6011L 103.828 46.1128L 106.113 49.6011L 107.433 49.6011L 104.468 45.2925z"/>
<path style="stroke:none; fill-rule:evenodd; fill:#000000" d="M 103.878 22.9996L 102.781 22.9996L 102.781 31.398L 107.98 31.398L 107.98 30.4996L 103.882 30.4996L 103.878 22.9996z"/>
<path style="stroke:none; fill-rule:evenodd; fill:#ffffff" d="M 109.558 63.3941L 136.351 63.3941L 136.351 40.4292L 109.558 40.4292L 109.558 63.3941z"/>
<path style="stroke:#000000; stroke-width:1.9139600000000001; fill:none" d="M 109.558 63.3941L 136.351 63.3941L 136.351 40.4292L 109.558 40.4292L 109.558 63.3941z"/>
<path style="stroke:none; fill-rule:evenodd; fill:#000000" d="M 123.078 28.8003L 121.98 28.8003L 121.98 37.1988L 127.179 37.1988L 127.179 36.3003L 123.082 36.3003L 123.078 28.8003z"/>
<path style="stroke:none; fill-rule:evenodd; fill:#ffffff" d="M 128.695 69.1363L 155.488 69.1363L 155.488 46.1714L 128.695 46.1714L 128.695 69.1363z"/>
<path style="stroke:#000000; stroke-width:1.9139600000000001; fill:none" d="M 128.695 69.1363L 155.488 69.1363L 155.488 46.1714L 128.695 46.1714L 128.695 69.1363z"/>
<path style="stroke:none; fill-rule:evenodd; fill:#000000" d="M 139.679 61.1011L 143.488 61.1011C 144.285 61.1011 144.875 60.8824 145.328 60.4019C 145.742 59.9644 145.976 59.3668 145.976 58.7105C 145.976 57.6988 145.503 57.0855 144.406 56.6753C 145.171 56.3199 145.578 55.6988 145.578 54.8472C 145.578 54.2378 145.351 53.6988 144.91 53.3042C 144.472 52.9019 143.898 52.7183 143.089 52.7183L 139.679 52.7183L 139.679 61.1011zM 140.777 56.398L 140.777 53.6011L 142.816 53.6011C 143.406 53.6011 143.734 53.6832 144.015 53.9136C 144.308 54.1519 144.468 54.5152 144.468 54.9996C 144.468 55.4683 144.312 55.8433 144.015 56.0855C 143.734 56.3121 143.406 56.398 142.816 56.398L 140.777 56.398zM 140.777 60.1988L 140.777 57.3003L 143.375 57.3003C 143.886 57.3003 144.23 57.4253 144.484 57.7027C 144.734 57.9683 144.871 58.3355 144.871 58.7535C 144.871 59.1558 144.734 59.5269 144.484 59.7886C 144.234 60.0621 143.89 60.191 143.375 60.191L 140.777 60.1988z"/>
<path style="stroke:none; fill-rule:evenodd; fill:#000000" d="M 142.179 34.4996L 141.082 34.4996L 141.082 42.898L 146.281 42.898L 146.281 41.9996L 142.183 41.9996L 142.179 34.4996z"/>
<path style="stroke:none; fill-rule:evenodd; fill:#000000" d="M 125.918 54.3003L 121.613 54.3003C 121.714 53.6402 122.085 53.2183 123.089 52.6363L 124.242 52.023C 125.382 51.4097 125.972 50.5738 125.972 49.5816C 125.972 48.9097 125.695 48.2808 125.21 47.8472C 124.726 47.4136 124.125 47.2105 123.351 47.2105C 122.316 47.2105 121.539 47.5699 121.089 48.2496C 120.804 48.6792 120.675 49.1753 120.652 49.9878L 121.675 49.9878C 121.707 49.4566 121.777 49.1324 121.918 48.8746C 122.183 48.398 122.718 48.1089 123.339 48.1089C 124.269 48.1089 124.968 48.7574 124.968 49.6207C 124.968 50.2574 124.585 50.8042 123.851 51.2144L 122.781 51.8042C 121.058 52.7574 120.558 53.523 120.464 55.3003L 125.914 55.3003L 125.918 54.3003z"/>
<path style="stroke:none; fill-rule:evenodd; fill:#ffffff" d="M 147.835 74.8785L 174.628 74.8785L 174.628 51.9136L 147.835 51.9136L 147.835 74.8785z"/>
<path style="stroke:#000000; stroke-width:1.9139600000000001; fill:none" d="M 147.835 74.8785L 174.628 74.8785L 174.628 51.9136L 147.835 51.9136L 147.835 74.8785z"/>
<path style="stroke:none; fill-rule:evenodd; fill:#000000" d="M 161.48 44.9996L 164.21 44.9996C 165.152 44.9996 165.574 45.4566 165.574 46.4878L 165.574 47.23C 165.574 47.7457 165.66 48.2496 165.808 48.5933L 167.07 48.5933L 167.07 48.3316C 166.675 48.0582 166.597 47.7574 166.574 46.6402C 166.562 45.2613 166.343 44.8433 165.429 44.4527C 166.386 43.9918 166.773 43.4058 166.773 42.4488C 166.773 40.9996 165.867 40.2027 164.226 40.2027L 160.375 40.2027L 160.375 48.6011L 161.472 48.6011L 161.48 44.9996zM 161.414 44.0503L 161.414 41.1714L 163.996 41.1714C 164.589 41.1714 164.933 41.2613 165.199 41.4918C 165.484 41.73 165.632 42.1089 165.632 42.6168C 165.632 43.6011 165.128 44.0503 163.992 44.0503L 161.414 44.0503z"/>
<path style="stroke:none; fill-rule:evenodd; fill:#000000" d="M 161.878 63.5035L 164.968 58.4019L 163.695 58.4019L 161.308 62.5035L 158.855 58.4019L 157.535 58.4019L 160.785 63.5035L 160.785 66.7964L 161.882 66.7964L 161.878 63.5035z"/>
<path style="stroke:none; fill-rule:evenodd; fill:#000000" d="M 65.7105 59.7847L 64.7691 59.4996L 65.2456 57.9175L 64.3355 57.6441L 63.8589 59.2261L 63.0816 58.9918L 62.8589 59.7378L 63.6362 59.9722L 62.3198 64.3238C 62.1441 64.9058 62.437 65.355 63.1519 65.5699C 63.3706 65.6324 63.5972 65.6792 63.9214 65.7183L 64.1519 64.9488C 64.023 64.9449 63.8784 64.9136 63.7027 64.8628C 63.3081 64.7457 63.2339 64.6011 63.355 64.1949L 64.5464 60.2496L 65.4878 60.5347L 65.7105 59.7847z"/>
<path style="stroke:none; fill-rule:evenodd; fill:#000000" d="M 67.5698 60.3394L 66.6597 60.066L 64.9175 65.8238L 65.8277 66.0972L 67.5698 60.3394zM 68.2495 58.0855L 67.3277 57.8082L 66.98 58.9605L 67.9019 59.2378L 68.2495 58.0855z"/>
<path style="stroke:none; fill-rule:evenodd; fill:#000000" d="M 69.1909 60.8746L 67.4488 66.6324L 68.3706 66.9097L 69.4644 63.2964C 69.7144 62.4644 70.523 61.9761 71.2691 62.2027C 71.9488 62.4058 72.2066 62.941 71.9839 63.6792L 70.7847 67.6441L 71.7066 67.9214L 72.8003 64.3082C 73.0503 63.4761 73.8589 62.9878 74.605 63.2144C 75.273 63.4136 75.5386 63.9644 75.3198 64.691L 74.1206 68.6558L 75.0425 68.9332L 76.3472 64.6168C 76.6597 63.5855 76.2417 62.8355 75.1636 62.5074C 74.398 62.2769 73.8628 62.3668 73.1284 62.8511C 72.9761 62.1324 72.5933 61.73 71.8472 61.5035C 71.0816 61.273 70.4878 61.4058 69.7847 61.9449L 70.0269 61.1324L 69.1909 60.8746z"/>
<path style="stroke:none; fill-rule:evenodd; fill:#000000" d="M 82.1948 68.3355C 82.4605 67.4566 82.5542 66.9097 82.5191 66.4332C 82.4331 65.3785 81.7261 64.5386 80.6519 64.2144C 79.0503 63.73 77.6441 64.6441 77.0698 66.5347C 76.4995 68.4253 77.1441 69.8902 78.7612 70.3785C 80.0777 70.7769 81.2144 70.3082 81.8277 69.1246L 80.9058 68.8472C 80.4253 69.5269 79.7886 69.7652 79.0542 69.5425C 78.4722 69.3668 78.0581 68.9527 77.898 68.3785C 77.7808 67.9839 77.8042 67.6285 77.9605 67.0582L 82.1948 68.3355zM 78.1988 66.3082C 78.5972 65.2652 79.4527 64.773 80.3784 65.0503C 81.2769 65.3199 81.7456 66.2769 81.4566 67.2222C 81.4527 67.2418 81.4448 67.2652 81.4292 67.2808L 78.1988 66.3082z"/>
<path style="stroke:#000000; stroke-width:1.9139600000000001; fill:none" d="M 10.0308 36.6011L 163.144 82.5347"/>
<path style="stroke:#000000; stroke-width:1.9139600000000001; fill:none" d="M 156.367 78.5035L 163.148 82.5347L 155.269 82.1714"/>
</g>
</svg>