<?xml version="1.0" encoding="ISO-8859-1" standalone="yes"?>
<svg width="271.545" height="150.665">
  <defs> 
    <marker id="ArrowEnd" viewBox="0 0 10 10" refX="0" refY="5" 
     markerUnits="strokeWidth" 
     markerWidth="4" 
     markerHeight="3" 
     orient="auto"> 
        <path d="M 0 0 L 10 5 L 0 10 z" /> 
    </marker>
    <marker id="ArrowStart" viewBox="0 0 10 10" refX="10" refY="5" 
     markerUnits="strokeWidth" 
     markerWidth="4" 
     markerHeight="3" 
     orient="auto"> 
        <path d="M 10 0 L 0 5 L 10 10 z" /> 
    </marker> </defs>
<g>
<path style="stroke:none; fill-rule:evenodd; fill:#ff0000" d="M 44.4634 143.629L 73.6118 143.629L 73.6118 126.266L 44.4634 126.266L 44.4634 143.629z"/>
<path style="stroke:#ff0000; stroke-width:0.10000000000000001; fill:none" d="M 44.4634 143.629L 73.6118 143.629L 73.6118 126.266L 44.4634 126.266L 44.4634 143.629z"/>
<path style="stroke:none; fill-rule:evenodd; fill:#ff0000" d="M 54.3852 146.73C 54.3852 144.848 52.8618 143.32 50.9751 143.32C 49.0923 143.32 47.5649 144.844 47.5649 146.73C 47.5649 148.613 49.0884 150.141 50.9751 150.141C 52.8579 150.141 54.3852 148.617 54.3852 146.73"/>
<path style="stroke:#ff0000; stroke-width:0.10000000000000001; fill:none" d="M 54.3852 146.73C 54.3852 144.848 52.8618 143.32 50.9751 143.32C 49.0923 143.32 47.5649 144.844 47.5649 146.73C 47.5649 148.613 49.0884 150.141 50.9751 150.141C 52.8579 150.141 54.3852 148.617 54.3852 146.73"/>
<path style="stroke:none; fill-rule:evenodd; fill:#ff0000" d="M 69.272 146.73C 69.272 144.848 67.7485 143.32 65.8618 143.32C 63.979 143.32 62.4517 144.844 62.4517 146.73C 62.4517 148.613 63.9751 150.141 65.8618 150.141C 67.7446 150.141 69.272 148.617 69.272 146.73"/>
<path style="stroke:#ff0000; stroke-width:0.10000000000000001; fill:none" d="M 69.272 146.73C 69.272 144.848 67.7485 143.32 65.8618 143.32C 63.979 143.32 62.4517 144.844 62.4517 146.73C 62.4517 148.613 63.9751 150.141 65.8618 150.141C 67.7446 150.141 69.272 148.617 69.272 146.73"/>
<path style="stroke:none; fill-rule:evenodd; fill:#ff0000" d="M 73.3032 143.629L 77.9517 143.629L 77.9517 134.949L 73.3032 134.949L 73.3032 143.629z"/>
<path style="stroke:#ff0000; stroke-width:0.10000000000000001; fill:none" d="M 73.3032 143.629L 77.9517 143.629L 77.9517 134.949L 73.3032 134.949L 73.3032 143.629z"/>
<path style="stroke:none; fill-rule:evenodd; fill:#000000" d="M 17.7759 85.4023L 17.7759 86.668L 18.0923 88.1953L 18.5532 88.1953L 18.8696 86.668L 18.8696 85.4023L 17.7759 85.4023zM 19.5767 85.4023L 19.5767 86.668L 19.8931 88.1953L 20.354 88.1953L 20.6704 86.668L 20.6704 85.4023L 19.5767 85.4023z"/>
<path style="stroke:none; fill-rule:evenodd; fill:#000000" d="M 23.479 89.9023L 26.2095 89.9023C 27.1509 89.9023 27.5728 90.3594 27.5728 91.3906L 27.5728 92.1328C 27.5728 92.6484 27.6587 93.1523 27.8032 93.4961L 29.0571 93.4961L 29.0571 93.2344C 28.6704 92.9609 28.5923 92.6602 28.5688 91.543C 28.5571 90.1641 28.3384 89.7461 27.4204 89.3555C 28.3813 88.8945 28.7681 88.3086 28.7681 87.3516C 28.7681 85.9023 27.8618 85.1055 26.2212 85.1055L 22.3696 85.1055L 22.3696 93.5039L 23.4673 93.5039L 23.479 89.9023zM 23.4126 88.957L 23.4126 86.0781L 25.9907 86.0781C 26.5845 86.0781 26.9282 86.168 27.1938 86.3984C 27.479 86.6367 27.6274 87.0156 27.6274 87.5234C 27.6274 88.5078 27.1235 88.957 25.9868 88.957L 23.4126 88.957z"/>
<path style="stroke:none; fill-rule:evenodd; fill:#000000" d="M 35.479 90.8008C 35.479 89.8828 35.4126 89.332 35.2407 88.8867C 34.854 87.9023 33.9399 87.3047 32.8228 87.3047C 31.1587 87.3047 30.0845 88.5977 30.0845 90.5859C 30.0845 92.5742 31.1196 93.7969 32.7915 93.7969C 34.1548 93.7969 35.1001 93.0039 35.3384 91.6758L 34.3852 91.6758C 34.1274 92.4766 33.5923 92.8984 32.8306 92.8984C 32.229 92.8984 31.7212 92.6211 31.4009 92.1055C 31.1743 91.7578 31.0962 91.4062 31.0845 90.8008L 35.479 90.8008zM 31.0571 90.0352C 31.1352 88.9258 31.811 88.1992 32.7759 88.1992C 33.7134 88.1992 34.436 88.9766 34.436 89.9648C 34.436 89.9844 34.436 90.0078 34.4282 90.0312L 31.0571 90.0352z"/>
<path style="stroke:none; fill-rule:evenodd; fill:#000000" d="M 41.6782 85.1016L 40.6782 85.1016L 40.6782 88.2461C 40.2798 87.6289 39.6431 87.3047 38.8423 87.3047C 37.2954 87.3047 36.2798 88.5664 36.2798 90.4961C 36.2798 92.543 37.2915 93.8008 38.9321 93.8008C 39.7681 93.8008 40.3501 93.4844 40.8774 92.7109L 40.8774 93.5L 41.6743 93.5L 41.6782 85.1016zM 39.0063 88.2031C 40.0259 88.2031 40.6782 89.1289 40.6782 90.5742C 40.6782 91.9727 40.022 92.8984 39.0181 92.8984C 37.9751 92.8984 37.2798 91.9609 37.2798 90.5508C 37.2798 89.1406 37.9712 88.2031 39.0063 88.2031z"/>
<path style="stroke:none; fill-rule:evenodd; fill:#000000" d="M 42.8774 85.4023L 42.8774 86.668L 43.1938 88.1953L 43.6548 88.1953L 43.9712 86.668L 43.9712 85.4023L 42.8774 85.4023zM 44.6782 85.4023L 44.6782 86.668L 44.9946 88.1953L 45.4556 88.1953L 45.772 86.668L 45.772 85.4023L 44.6782 85.4023z"/>
<path style="stroke:#000000; stroke-width:1.91229; fill:none" d="M 10.022 103.449L 54.0259 103.449L 54.0259 76.6641L 10.022 76.6641L 10.022 103.449z"/>
<path style="stroke:none; fill-rule:evenodd; fill:#000000" d="M 70.8774 85.4023L 70.8774 86.668L 71.1938 88.1953L 71.6548 88.1953L 71.9712 86.668L 71.9712 85.4023L 70.8774 85.4023zM 72.6782 85.4023L 72.6782 86.668L 72.9946 88.1953L 73.4556 88.1953L 73.772 86.668L 73.772 85.4023L 72.6782 85.4023z"/>
<path style="stroke:none; fill-rule:evenodd; fill:#000000" d="M 78.479 86L 81.1821 86L 81.1821 85.1016L 74.6196 85.1016L 74.6196 86L 77.3774 86L 77.3774 93.5L 78.4751 93.5L 78.479 86z"/>
<path style="stroke:none; fill-rule:evenodd; fill:#000000" d="M 82.1782 87.4766L 82.1782 93.5L 83.1782 93.5L 83.1782 90.3672C 83.1782 89.5039 83.3892 88.9375 83.8384 88.6055C 84.1274 88.3867 84.4087 88.3203 85.0571 88.3086L 85.0571 87.3438C 84.9009 87.3242 84.8228 87.3125 84.6978 87.3125C 84.0884 87.3125 83.6235 87.6797 83.0806 88.5781L 83.0806 87.4883L 82.1782 87.4766z"/>
<path style="stroke:none; fill-rule:evenodd; fill:#000000" d="M 90.776 93.5352L 90.776 87.5039L 89.776 87.5039L 89.776 90.9492C 89.776 92.1875 89.131 93 88.1274 93C 87.3657 93 86.8813 92.5391 86.8813 91.8086L 86.8813 87.5039L 85.8813 87.5039L 85.8813 92.1562C 85.8813 93.1562 86.6196 93.8008 87.7837 93.8008C 88.6587 93.8008 89.217 93.4922 89.776 92.6992L 89.776 93.5391L 90.776 93.5352z"/>
<path style="stroke:none; fill-rule:evenodd; fill:#000000" d="M 96.983 89.5078C 96.936 88.918 96.811 88.5391 96.584 88.2031C 96.178 87.6406 95.459 87.3047 94.631 87.3047C 93.03 87.3047 91.983 88.5977 91.983 90.6094C 91.983 92.5625 93.006 93.7969 94.62 93.7969C 96.038 93.7969 96.936 92.9258 97.053 91.4336L 96.104 91.4336C 95.948 92.4102 95.459 92.8984 94.655 92.8984C 93.612 92.8984 92.987 92.0352 92.987 90.6094C 92.987 89.1016 93.596 88.2031 94.631 88.2031C 95.424 88.2031 95.924 88.6719 96.034 89.5078L 96.983 89.5078z"/>
<path style="stroke:none; fill-rule:evenodd; fill:#000000" d="M 98.877 85.1016L 97.877 85.1016L 97.877 93.5L 98.877 93.5L 98.877 91.1602L 99.807 90.2422L 101.842 93.5L 103.03 93.5L 100.565 89.5742L 102.659 87.5039L 101.428 87.5039L 98.874 90.0352L 98.877 85.1016z"/>
<path style="stroke:none; fill-rule:evenodd; fill:#000000" d="M 103.678 85.4023L 103.678 86.668L 103.995 88.1953L 104.456 88.1953L 104.772 86.668L 104.772 85.4023L 103.678 85.4023zM 105.479 85.4023L 105.479 86.668L 105.795 88.1953L 106.256 88.1953L 106.573 86.668L 106.573 85.4023L 105.479 85.4023z"/>
<path style="stroke:#000000; stroke-width:1.91229; fill:none" d="M 67.4165 103.453L 111.42 103.453L 111.42 76.668L 67.4165 76.668L 67.4165 103.453z"/>
<path style="stroke:none; fill-rule:evenodd; fill:#000000" d="M 13.4829 109.609C 13.436 109.02 13.311 108.641 13.0845 108.305C 12.6782 107.742 11.9595 107.406 11.1313 107.406C 9.52981 107.406 8.48291 108.699 8.48291 110.711C 8.48291 112.664 9.50631 113.898 11.1196 113.898C 12.5376 113.898 13.436 113.027 13.5532 111.535L 12.604 111.535C 12.4478 112.512 11.9595 113 11.1548 113C 10.1118 113 9.48681 112.137 9.48681 110.711C 9.48681 109.203 10.0962 108.305 11.1313 108.305C 11.9243 108.305 12.4243 108.773 12.5337 109.609L 13.4829 109.609z"/>
<path style="stroke:none; fill-rule:evenodd; fill:#000000" d="M 17.0142 107.402C 15.311 107.402 14.2798 108.617 14.2798 110.652C 14.2798 112.684 15.2993 113.898 17.0298 113.898C 18.7329 113.898 19.7798 112.688 19.7798 110.699C 19.7798 108.609 18.772 107.402 17.0181 107.402L 17.0142 107.402zM 17.0259 108.301C 18.1196 108.301 18.7759 109.188 18.7759 110.684C 18.7759 112.098 18.1001 112.996 17.0259 112.996C 15.9438 112.996 15.2759 112.109 15.2759 110.648C 15.2759 109.199 15.9399 108.301 17.0259 108.301z"/>
<path style="stroke:none; fill-rule:evenodd; fill:#000000" d="M 20.979 113.602L 21.979 113.602L 21.979 105.203L 20.979 105.203L 20.979 113.602z"/>
<path style="stroke:none; fill-rule:evenodd; fill:#000000" d="M 25.9165 107.402C 24.2134 107.402 23.1821 108.617 23.1821 110.652C 23.1821 112.684 24.2017 113.898 25.9321 113.898C 27.6352 113.898 28.6821 112.688 28.6821 110.699C 28.6821 108.609 27.6743 107.402 25.9204 107.402L 25.9165 107.402zM 25.9282 108.301C 27.022 108.301 27.6782 109.188 27.6782 110.684C 27.6782 112.098 27.0024 112.996 25.9282 112.996C 24.8462 112.996 24.1782 112.109 24.1782 110.648C 24.1782 109.199 24.8423 108.301 25.9282 108.301z"/>
<path style="stroke:none; fill-rule:evenodd; fill:#000000" d="M 29.979 107.574L 29.979 113.598L 30.979 113.598L 30.979 110.465C 30.979 109.602 31.1899 109.035 31.6392 108.703C 31.9282 108.484 32.2095 108.418 32.8579 108.406L 32.8579 107.441C 32.7017 107.422 32.6235 107.41 32.4985 107.41C 31.8892 107.41 31.4243 107.777 30.8813 108.676L 30.8813 107.586L 29.979 107.574z"/>
<path style="stroke:none; fill-rule:evenodd; fill:#000000" d="M 87.7017 109.266C 87.6899 108.078 86.9048 107.406 85.5063 107.406C 84.0962 107.406 83.1821 108.133 83.1821 109.254C 83.1821 110.199 83.6704 110.648 85.1196 110.996L 86.0298 111.215C 86.7056 111.375 86.9751 111.617 86.9751 112.055C 86.9751 112.617 86.4087 113 85.5649 113C 85.0454 113 84.6079 112.852 84.3657 112.594C 84.2173 112.422 84.147 112.246 84.0884 111.812L 83.0728 111.812C 83.1157 113.223 83.9009 113.898 85.4829 113.898C 87.0063 113.898 87.9751 113.148 87.9751 111.984C 87.9751 111.086 87.4634 110.59 86.2485 110.301L 85.3149 110.082C 84.522 109.898 84.1821 109.645 84.1821 109.219C 84.1821 108.668 84.6782 108.309 85.4673 108.309C 86.2407 108.309 86.6587 108.637 86.6821 109.27L 87.7017 109.266z"/>
<path style="stroke:none; fill-rule:evenodd; fill:#000000" d="M 89.178 105.203L 89.178 113.602L 90.178 113.602L 90.178 110.254C 90.178 109.016 90.803 108.203 91.768 108.203C 92.069 108.203 92.37 108.305 92.596 108.48C 92.862 108.676 92.975 108.965 92.975 109.395L 92.975 113.598L 93.975 113.598L 93.975 109.043C 93.975 108.031 93.256 107.398 92.092 107.398C 91.249 107.398 90.737 107.664 90.178 108.41L 90.178 105.199L 89.178 105.203z"/>
<path style="stroke:none; fill-rule:evenodd; fill:#000000" d="M 100.917 113.039C 100.815 113.098 100.768 113.098 100.706 113.098C 100.366 113.098 100.182 112.926 100.182 112.625L 100.182 109.059C 100.182 107.984 99.405 107.402 97.932 107.402C 97.065 107.402 96.346 107.656 95.944 108.105C 95.67 108.414 95.557 108.762 95.534 109.363L 96.479 109.363C 96.557 108.633 96.983 108.301 97.866 108.301C 98.709 108.301 99.182 108.621 99.182 109.199L 99.182 109.453C 99.182 109.855 98.948 110.027 98.206 110.121C 96.881 110.293 96.678 110.34 96.319 110.488C 95.635 110.773 95.288 111.316 95.288 112.102C 95.288 113.195 96.041 113.887 97.252 113.887C 98.006 113.887 98.612 113.613 99.288 112.969C 99.354 113.602 99.651 113.887 100.268 113.887C 100.459 113.887 100.608 113.863 100.917 113.781L 100.917 113.039zM 99.178 111.742C 99.178 112.07 99.088 112.273 98.811 112.543C 98.432 112.906 97.975 113.098 97.428 113.098C 96.706 113.098 96.284 112.734 96.284 112.105C 96.284 111.457 96.694 111.125 97.686 110.973C 98.667 110.832 98.866 110.785 99.178 110.633L 99.178 111.742z"/>
<path style="stroke:none; fill-rule:evenodd; fill:#000000" d="M 101.776 116.102L 102.776 116.102L 102.776 113C 103.276 113.621 103.838 113.898 104.616 113.898C 106.159 113.898 107.174 112.641 107.174 110.711C 107.174 108.68 106.19 107.406 104.592 107.406C 103.78 107.406 103.124 107.773 102.678 108.484L 102.678 107.578L 101.78 107.578L 101.776 116.102zM 104.444 108.301C 105.491 108.301 106.174 109.238 106.174 110.684C 106.174 112.059 105.479 112.996 104.444 112.996C 103.44 112.996 102.78 112.07 102.78 110.648C 102.78 109.227 103.44 108.301 104.444 108.301z"/>
<path style="stroke:none; fill-rule:evenodd; fill:#000000" d="M 113.479 110.902C 113.479 109.984 113.413 109.434 113.241 108.988C 112.854 108.004 111.94 107.406 110.823 107.406C 109.159 107.406 108.084 108.699 108.084 110.688C 108.084 112.676 109.12 113.898 110.791 113.898C 112.155 113.898 113.1 113.105 113.338 111.777L 112.385 111.777C 112.127 112.578 111.592 113 110.831 113C 110.229 113 109.721 112.723 109.401 112.207C 109.174 111.859 109.096 111.508 109.084 110.902L 113.479 110.902zM 109.057 110.137C 109.135 109.027 109.811 108.301 110.776 108.301C 111.713 108.301 112.436 109.078 112.436 110.066C 112.436 110.086 112.436 110.109 112.428 110.133L 109.057 110.137z"/>
<path style="stroke:#000000; stroke-width:1.91229; fill:none" d="M 59.7681 126.41L 44.4634 103.453"/>
<path style="stroke:#000000; stroke-width:1.91229; fill:none" d="M 47.1157 110.875L 44.4673 103.453L 50.2993 108.754"/>
<path style="stroke:#000000; stroke-width:1.91229; fill:none" d="M 59.7681 126.41L 75.0728 103.453"/>
<path style="stroke:#000000; stroke-width:1.91229; fill:none" d="M 69.2407 108.754L 75.0728 103.453L 72.4243 110.875"/>
<path style="stroke:#000000; stroke-width:1.91229; fill:none" d="M 17.6743 51.789L 105.682 51.789L 105.682 25.004L 17.6743 25.004L 17.6743 51.789z"/>
<path style="stroke:none; fill-rule:evenodd; fill:#000000" d="M 28.7798 36.91C 28.7329 36.32 28.6079 35.941 28.3813 35.605C 27.9751 35.043 27.2563 34.707 26.4282 34.707C 24.8267 34.707 23.7798 36 23.7798 38.012C 23.7798 39.965 24.8032 41.199 26.4165 41.199C 27.8345 41.199 28.7329 40.328 28.8501 38.836L 27.9009 38.836C 27.7446 39.812 27.2563 40.301 26.4517 40.301C 25.4087 40.301 24.7837 39.438 24.7837 38.012C 24.7837 36.504 25.3931 35.605 26.4282 35.605C 27.2212 35.605 27.7212 36.074 27.8306 36.91L 28.7798 36.91z"/>
<path style="stroke:none; fill-rule:evenodd; fill:#000000" d="M 32.3149 34.703C 30.6118 34.703 29.5806 35.918 29.5806 37.953C 29.5806 39.984 30.6001 41.199 32.3306 41.199C 34.0337 41.199 35.0806 39.988 35.0806 38C 35.0806 35.91 34.0728 34.703 32.3188 34.703L 32.3149 34.703zM 32.3267 35.602C 33.4204 35.602 34.0767 36.488 34.0767 37.984C 34.0767 39.398 33.4009 40.297 32.3267 40.297C 31.2446 40.297 30.5767 39.41 30.5767 37.949C 30.5767 36.5 31.2407 35.602 32.3267 35.602z"/>
<path style="stroke:none; fill-rule:evenodd; fill:#000000" d="M 36.2759 40.902L 37.2759 40.902L 37.2759 32.504L 36.2759 32.504L 36.2759 40.902z"/>
<path style="stroke:none; fill-rule:evenodd; fill:#000000" d="M 41.2134 34.703C 39.5102 34.703 38.479 35.918 38.479 37.953C 38.479 39.984 39.4985 41.199 41.229 41.199C 42.9321 41.199 43.979 39.988 43.979 38C 43.979 35.91 42.9712 34.703 41.2173 34.703L 41.2134 34.703zM 41.229 35.602C 42.3228 35.602 42.979 36.488 42.979 37.984C 42.979 39.398 42.3032 40.297 41.229 40.297C 40.147 40.297 39.479 39.41 39.479 37.949C 39.479 36.5 40.1431 35.602 41.229 35.602z"/>
<path style="stroke:none; fill-rule:evenodd; fill:#000000" d="M 45.2759 34.875L 45.2759 40.898L 46.2759 40.898L 46.2759 37.766C 46.2759 36.902 46.4868 36.336 46.936 36.004C 47.2251 35.785 47.5063 35.719 48.1548 35.707L 48.1548 34.742C 47.9985 34.723 47.9204 34.711 47.7954 34.711C 47.186 34.711 46.7212 35.078 46.1782 35.977L 46.1782 34.887L 45.2759 34.875z"/>
<path style="stroke:none; fill-rule:evenodd; fill:#000000" d="M 74.3032 36.566C 74.2915 35.379 73.5063 34.707 72.1079 34.707C 70.6978 34.707 69.7837 35.434 69.7837 36.555C 69.7837 37.5 70.272 37.949 71.7212 38.297L 72.6313 38.516C 73.3071 38.676 73.5767 38.918 73.5767 39.355C 73.5767 39.918 73.0102 40.301 72.1665 40.301C 71.647 40.301 71.2095 40.152 70.9673 39.895C 70.8188 39.723 70.7485 39.547 70.6899 39.113L 69.6743 39.113C 69.7173 40.523 70.5024 41.199 72.0845 41.199C 73.6079 41.199 74.5767 40.449 74.5767 39.285C 74.5767 38.387 74.0649 37.891 72.8501 37.602L 71.9165 37.383C 71.1235 37.199 70.7837 36.945 70.7837 36.52C 70.7837 35.969 71.2798 35.609 72.0688 35.609C 72.8423 35.609 73.2602 35.938 73.2837 36.57L 74.3032 36.566z"/>
<path style="stroke:none; fill-rule:evenodd; fill:#000000" d="M 75.7759 32.5L 75.7759 40.898L 76.7759 40.898L 76.7759 37.551C 76.7759 36.312 77.4009 35.5 78.3657 35.5C 78.6665 35.5 78.9673 35.602 79.1938 35.777C 79.4595 35.973 79.5728 36.262 79.5728 36.691L 79.5728 40.895L 80.5728 40.895L 80.5728 36.34C 80.5728 35.328 79.854 34.695 78.6899 34.695C 77.8462 34.695 77.3345 34.961 76.7759 35.707L 76.7759 32.496L 75.7759 32.5z"/>
<path style="stroke:none; fill-rule:evenodd; fill:#000000" d="M 87.5142 40.34C 87.4126 40.398 87.3657 40.398 87.3032 40.398C 86.9634 40.398 86.7798 40.227 86.7798 39.926L 86.7798 36.359C 86.7798 35.285 86.0024 34.703 84.5298 34.703C 83.6626 34.703 82.9438 34.957 82.5415 35.406C 82.2681 35.715 82.1548 36.062 82.1313 36.664L 83.0767 36.664C 83.1548 35.934 83.5806 35.602 84.4634 35.602C 85.3071 35.602 85.7798 35.922 85.7798 36.5L 85.7798 36.754C 85.7798 37.156 85.5454 37.328 84.8032 37.422C 83.479 37.594 83.2759 37.641 82.9165 37.789C 82.2329 38.074 81.8852 38.617 81.8852 39.402C 81.8852 40.496 82.6392 41.188 83.8501 41.188C 84.604 41.188 85.2095 40.914 85.8852 40.27C 85.9517 40.902 86.2485 41.188 86.8657 41.188C 87.0571 41.188 87.2056 41.164 87.5142 41.082L 87.5142 40.34zM 85.7759 39.043C 85.7759 39.371 85.686 39.574 85.4087 39.844C 85.0298 40.207 84.5728 40.398 84.0259 40.398C 83.3032 40.398 82.8813 40.035 82.8813 39.406C 82.8813 38.758 83.2915 38.426 84.2837 38.273C 85.2642 38.133 85.4634 38.086 85.7759 37.934L 85.7759 39.043z"/>
<path style="stroke:none; fill-rule:evenodd; fill:#000000" d="M 88.3774 43.402L 89.377 43.402L 89.377 40.301C 89.877 40.922 90.44 41.199 91.217 41.199C 92.76 41.199 93.776 39.941 93.776 38.012C 93.776 35.98 92.791 34.707 91.194 34.707C 90.381 34.707 89.725 35.074 89.28 35.785L 89.28 34.879L 88.3813 34.879L 88.3774 43.402zM 91.041 35.602C 92.088 35.602 92.772 36.539 92.772 37.984C 92.772 39.359 92.077 40.297 91.041 40.297C 90.038 40.297 89.377 39.371 89.377 37.949C 89.377 36.527 90.038 35.602 91.041 35.602z"/>
<path style="stroke:none; fill-rule:evenodd; fill:#000000" d="M 100.077 38.203C 100.077 37.285 100.01 36.734 99.838 36.289C 99.452 35.305 98.538 34.707 97.42 34.707C 95.756 34.707 94.682 36 94.682 37.988C 94.682 39.977 95.717 41.199 97.389 41.199C 98.752 41.199 99.698 40.406 99.936 39.078L 98.983 39.078C 98.725 39.879 98.19 40.301 97.428 40.301C 96.827 40.301 96.319 40.023 95.999 39.508C 95.772 39.16 95.694 38.809 95.682 38.203L 100.077 38.203zM 95.659 37.438C 95.737 36.328 96.413 35.602 97.377 35.602C 98.315 35.602 99.038 36.379 99.038 37.367C 99.038 37.387 99.038 37.41 99.03 37.434L 95.659 37.438z"/>
<path style="stroke:#000000; stroke-width:1.91229; fill:none" d="M 57.854 38.398C 57.854 32.059 49.2915 26.922 38.7212 26.922C 28.1587 26.922 19.5884 32.059 19.5884 38.398C 19.5884 44.738 28.1509 49.875 38.7212 49.875C 49.2837 49.875 57.854 44.738 57.854 38.398"/>
<path style="stroke:#000000; stroke-width:1.91229; fill:none" d="M 103.772 38.402C 103.772 32.062 95.209 26.926 84.6392 26.926C 74.0767 26.926 65.5063 32.062 65.5063 38.402C 65.5063 44.742 74.0688 49.879 84.6392 49.879C 95.202 49.879 103.772 44.742 103.772 38.402"/>
<path style="stroke:none; fill-rule:evenodd; fill:#000000" d="M 111.577 37.301L 114.217 37.301C 114.874 37.301 115.393 37.109 115.842 36.707C 116.35 36.254 116.569 35.715 116.569 34.949C 116.569 33.387 115.631 32.504 113.959 32.504L 110.471 32.504L 110.471 40.902L 111.569 40.902L 111.577 37.301zM 111.577 36.402L 111.577 33.402L 113.827 33.402C 114.858 33.402 115.471 33.965 115.471 34.902C 115.471 35.836 114.858 36.402 113.827 36.402L 111.577 36.402z"/>
<path style="stroke:none; fill-rule:evenodd; fill:#000000" d="M 119.178 37.102L 123.17 37.102L 123.17 36.203L 119.178 36.203L 119.178 33.406L 123.678 33.406L 123.678 32.508L 118.081 32.508L 118.081 40.906L 119.178 40.906L 119.178 37.102z"/>
<path style="stroke:none; fill-rule:evenodd; fill:#000000" d="M 131.674 35.133C 131.338 33.301 130.276 32.406 128.428 32.406C 127.299 32.406 126.385 32.762 125.76 33.453C 124.999 34.281 124.584 35.477 124.584 36.836C 124.584 38.215 125.01 39.402 125.807 40.219C 126.452 40.887 127.284 41.195 128.381 41.195C 130.436 41.195 131.592 40.086 131.846 37.844L 130.741 37.844C 130.651 38.434 130.538 38.836 130.362 39.18C 130.018 39.891 129.307 40.289 128.409 40.289C 126.741 40.289 125.682 38.938 125.682 36.816C 125.682 34.637 126.694 33.293 128.315 33.293C 128.991 33.293 129.624 33.504 129.971 33.828C 130.28 34.121 130.452 34.48 130.581 35.113L 131.674 35.133z"/>
<path style="stroke:#000000; stroke-width:1.91229; fill:none" d="M 38.7212 47.965L 32.9829 74.75"/>
<path style="stroke:#000000; stroke-width:1.91229; fill:none" d="M 36.4556 67.672L 32.9868 74.75L 32.7212 66.871"/>
<path style="stroke:#000000; stroke-width:1.91229; fill:none" d="M 84.6392 47.965L 92.291 74.75"/>
<path style="stroke:#000000; stroke-width:1.91229; fill:none" d="M 92.034 66.871L 92.295 74.75L 88.3579 67.922"/>
<path style="stroke:none; fill-rule:evenodd; fill:#ff0000" d="M 184.127 143.629L 213.276 143.629L 213.276 126.266L 184.127 126.266L 184.127 143.629z"/>
<path style="stroke:#ff0000; stroke-width:0.0; fill:none" d="M 184.127 143.629L 213.276 143.629L 213.276 126.266L 184.127 126.266L 184.127 143.629z"/>
<path style="stroke:none; fill-rule:evenodd; fill:#ff0000" d="M 194.053 146.73C 194.053 144.848 192.53 143.32 190.643 143.32C 188.76 143.32 187.233 144.844 187.233 146.73C 187.233 148.613 188.756 150.141 190.643 150.141C 192.526 150.141 194.053 148.617 194.053 146.73"/>
<path style="stroke:#ff0000; stroke-width:0.0; fill:none" d="M 194.053 146.73C 194.053 144.848 192.53 143.32 190.643 143.32C 188.76 143.32 187.233 144.844 187.233 146.73C 187.233 148.613 188.756 150.141 190.643 150.141C 192.526 150.141 194.053 148.617 194.053 146.73"/>
<path style="stroke:none; fill-rule:evenodd; fill:#ff0000" d="M 208.936 146.73C 208.936 144.848 207.413 143.32 205.526 143.32C 203.643 143.32 202.116 144.844 202.116 146.73C 202.116 148.613 203.639 150.141 205.526 150.141C 207.409 150.141 208.936 148.617 208.936 146.73"/>
<path style="stroke:#ff0000; stroke-width:0.0; fill:none" d="M 208.936 146.73C 208.936 144.848 207.413 143.32 205.526 143.32C 203.643 143.32 202.116 144.844 202.116 146.73C 202.116 148.613 203.639 150.141 205.526 150.141C 207.409 150.141 208.936 148.617 208.936 146.73"/>
<path style="stroke:none; fill-rule:evenodd; fill:#ff0000" d="M 212.967 143.629L 217.616 143.629L 217.616 134.949L 212.967 134.949L 212.967 143.629z"/>
<path style="stroke:#ff0000; stroke-width:0.0; fill:none" d="M 212.967 143.629L 217.616 143.629L 217.616 134.949L 212.967 134.949L 212.967 143.629z"/>
<path style="stroke:none; fill-rule:evenodd; fill:#000000" d="M 157.479 85.4023L 157.479 86.668L 157.795 88.1953L 158.256 88.1953L 158.573 86.668L 158.573 85.4023L 157.479 85.4023zM 159.276 85.4023L 159.276 86.668L 159.592 88.1953L 160.053 88.1953L 160.37 86.668L 160.37 85.4023L 159.276 85.4023z"/>
<path style="stroke:none; fill-rule:evenodd; fill:#000000" d="M 163.178 89.9023L 165.909 89.9023C 166.85 89.9023 167.272 90.3594 167.272 91.3906L 167.272 92.1328C 167.272 92.6484 167.358 93.1523 167.502 93.4961L 168.756 93.4961L 168.756 93.2344C 168.37 92.9609 168.291 92.6602 168.268 91.543C 168.256 90.1641 168.038 89.7461 167.12 89.3555C 168.081 88.8945 168.467 88.3086 168.467 87.3516C 168.467 85.9023 167.561 85.1055 165.92 85.1055L 162.069 85.1055L 162.069 93.5039L 163.167 93.5039L 163.178 89.9023zM 163.112 88.957L 163.112 86.0781L 165.69 86.0781C 166.284 86.0781 166.627 86.168 166.893 86.3984C 167.178 86.6367 167.327 87.0156 167.327 87.5234C 167.327 88.5078 166.823 88.957 165.686 88.957L 163.112 88.957z"/>
<path style="stroke:none; fill-rule:evenodd; fill:#000000" d="M 175.178 90.8008C 175.178 89.8828 175.112 89.332 174.94 88.8867C 174.553 87.9023 173.639 87.3047 172.522 87.3047C 170.858 87.3047 169.784 88.5977 169.784 90.5859C 169.784 92.5742 170.819 93.7969 172.491 93.7969C 173.854 93.7969 174.799 93.0039 175.038 91.6758L 174.084 91.6758C 173.827 92.4766 173.291 92.8984 172.53 92.8984C 171.928 92.8984 171.42 92.6211 171.1 92.1055C 170.874 91.7578 170.795 91.4062 170.784 90.8008L 175.178 90.8008zM 170.756 90.0352C 170.834 88.9258 171.51 88.1992 172.475 88.1992C 173.413 88.1992 174.135 88.9766 174.135 89.9648C 174.135 89.9844 174.135 90.0078 174.127 90.0312L 170.756 90.0352z"/>
<path style="stroke:none; fill-rule:evenodd; fill:#000000" d="M 181.276 85.1016L 180.276 85.1016L 180.276 88.2461C 179.877 87.6289 179.241 87.3047 178.44 87.3047C 176.893 87.3047 175.877 88.5664 175.877 90.4961C 175.877 92.543 176.889 93.8008 178.53 93.8008C 179.366 93.8008 179.948 93.4844 180.475 92.7109L 180.475 93.5L 181.272 93.5L 181.276 85.1016zM 178.608 88.2031C 179.627 88.2031 180.28 89.1289 180.28 90.5742C 180.28 91.9727 179.624 92.8984 178.62 92.8984C 177.577 92.8984 176.881 91.9609 176.881 90.5508C 176.881 89.1406 177.573 88.2031 178.608 88.2031z"/>
<path style="stroke:none; fill-rule:evenodd; fill:#000000" d="M 182.577 85.4023L 182.577 86.668L 182.893 88.1953L 183.354 88.1953L 183.67 86.668L 183.67 85.4023L 182.577 85.4023zM 184.377 85.4023L 184.377 86.668L 184.694 88.1953L 185.155 88.1953L 185.471 86.668L 185.471 85.4023L 184.377 85.4023z"/>
<path style="stroke:#000000; stroke-width:1.91229; fill:none" d="M 149.69 103.449L 193.694 103.449L 193.694 76.6641L 149.69 76.6641L 149.69 103.449z"/>
<path style="stroke:none; fill-rule:evenodd; fill:#000000" d="M 210.577 85.4023L 210.577 86.668L 210.893 88.1953L 211.354 88.1953L 211.67 86.668L 211.67 85.4023L 210.577 85.4023zM 212.377 85.4023L 212.377 86.668L 212.694 88.1953L 213.155 88.1953L 213.471 86.668L 213.471 85.4023L 212.377 85.4023z"/>
<path style="stroke:none; fill-rule:evenodd; fill:#000000" d="M 218.178 86L 220.881 86L 220.881 85.1016L 214.319 85.1016L 214.319 86L 217.077 86L 217.077 93.5L 218.174 93.5L 218.178 86z"/>
<path style="stroke:none; fill-rule:evenodd; fill:#000000" d="M 221.877 87.4766L 221.877 93.5L 222.877 93.5L 222.877 90.3672C 222.877 89.5039 223.088 88.9375 223.538 88.6055C 223.827 88.3867 224.108 88.3203 224.756 88.3086L 224.756 87.3438C 224.6 87.3242 224.522 87.3125 224.397 87.3125C 223.788 87.3125 223.323 87.6797 222.78 88.5781L 222.78 87.4883L 221.877 87.4766z"/>
<path style="stroke:none; fill-rule:evenodd; fill:#000000" d="M 230.479 93.5352L 230.479 87.5039L 229.479 87.5039L 229.479 90.9492C 229.479 92.1875 228.834 93 227.831 93C 227.069 93 226.584 92.5391 226.584 91.8086L 226.584 87.5039L 225.584 87.5039L 225.584 92.1562C 225.584 93.1562 226.323 93.8008 227.487 93.8008C 228.362 93.8008 228.92 93.4922 229.479 92.6992L 229.479 93.5391L 230.479 93.5352z"/>
<path style="stroke:none; fill-rule:evenodd; fill:#000000" d="M 236.682 89.5078C 236.635 88.918 236.51 88.5391 236.284 88.2031C 235.877 87.6406 235.159 87.3047 234.331 87.3047C 232.729 87.3047 231.682 88.5977 231.682 90.6094C 231.682 92.5625 232.706 93.7969 234.319 93.7969C 235.737 93.7969 236.635 92.9258 236.752 91.4336L 235.803 91.4336C 235.647 92.4102 235.159 92.8984 234.354 92.8984C 233.311 92.8984 232.686 92.0352 232.686 90.6094C 232.686 89.1016 233.295 88.2031 234.331 88.2031C 235.124 88.2031 235.624 88.6719 235.733 89.5078L 236.682 89.5078z"/>
<path style="stroke:none; fill-rule:evenodd; fill:#000000" d="M 238.577 85.1016L 237.577 85.1016L 237.577 93.5L 238.577 93.5L 238.577 91.1602L 239.506 90.2422L 241.541 93.5L 242.729 93.5L 240.264 89.5742L 242.358 87.5039L 241.127 87.5039L 238.573 90.0352L 238.577 85.1016z"/>
<path style="stroke:none; fill-rule:evenodd; fill:#000000" d="M 243.276 85.4023L 243.276 86.668L 243.592 88.1953L 244.053 88.1953L 244.37 86.668L 244.37 85.4023L 243.276 85.4023zM 245.077 85.4023L 245.077 86.668L 245.393 88.1953L 245.854 88.1953L 246.17 86.668L 246.17 85.4023L 245.077 85.4023z"/>
<path style="stroke:#000000; stroke-width:1.91229; fill:none" d="M 207.084 103.453L 251.088 103.453L 251.088 76.668L 207.084 76.668L 207.084 103.453z"/>
<path style="stroke:none; fill-rule:evenodd; fill:#000000" d="M 153.182 109.609C 153.135 109.02 153.01 108.641 152.784 108.305C 152.377 107.742 151.659 107.406 150.831 107.406C 149.229 107.406 148.182 108.699 148.182 110.711C 148.182 112.664 149.206 113.898 150.819 113.898C 152.237 113.898 153.135 113.027 153.252 111.535L 152.303 111.535C 152.147 112.512 151.659 113 150.854 113C 149.811 113 149.186 112.137 149.186 110.711C 149.186 109.203 149.795 108.305 150.831 108.305C 151.624 108.305 152.124 108.773 152.233 109.609L 153.182 109.609z"/>
<path style="stroke:none; fill-rule:evenodd; fill:#000000" d="M 156.616 107.402C 154.913 107.402 153.881 108.617 153.881 110.652C 153.881 112.684 154.901 113.898 156.631 113.898C 158.334 113.898 159.381 112.688 159.381 110.699C 159.381 108.609 158.374 107.402 156.62 107.402L 156.616 107.402zM 156.627 108.301C 157.721 108.301 158.377 109.188 158.377 110.684C 158.377 112.098 157.702 112.996 156.627 112.996C 155.545 112.996 154.877 112.109 154.877 110.648C 154.877 109.199 155.541 108.301 156.627 108.301z"/>
<path style="stroke:none; fill-rule:evenodd; fill:#000000" d="M 160.678 113.602L 161.678 113.602L 161.678 105.203L 160.678 105.203L 160.678 113.602z"/>
<path style="stroke:none; fill-rule:evenodd; fill:#000000" d="M 165.616 107.402C 163.913 107.402 162.881 108.617 162.881 110.652C 162.881 112.684 163.901 113.898 165.631 113.898C 167.334 113.898 168.381 112.688 168.381 110.699C 168.381 108.609 167.374 107.402 165.62 107.402L 165.616 107.402zM 165.627 108.301C 166.721 108.301 167.377 109.188 167.377 110.684C 167.377 112.098 166.702 112.996 165.627 112.996C 164.545 112.996 163.877 112.109 163.877 110.648C 163.877 109.199 164.541 108.301 165.627 108.301z"/>
<path style="stroke:none; fill-rule:evenodd; fill:#000000" d="M 169.577 107.574L 169.577 113.598L 170.577 113.598L 170.577 110.465C 170.577 109.602 170.788 109.035 171.237 108.703C 171.526 108.484 171.807 108.418 172.456 108.406L 172.456 107.441C 172.299 107.422 172.221 107.41 172.096 107.41C 171.487 107.41 171.022 107.777 170.479 108.676L 170.479 107.586L 169.577 107.574z"/>
<path style="stroke:none; fill-rule:evenodd; fill:#000000" d="M 227.401 109.266C 227.389 108.078 226.604 107.406 225.206 107.406C 223.795 107.406 222.881 108.133 222.881 109.254C 222.881 110.199 223.37 110.648 224.819 110.996L 225.729 111.215C 226.405 111.375 226.674 111.617 226.674 112.055C 226.674 112.617 226.108 113 225.264 113C 224.745 113 224.307 112.852 224.065 112.594C 223.917 112.422 223.846 112.246 223.788 111.812L 222.772 111.812C 222.815 113.223 223.6 113.898 225.182 113.898C 226.706 113.898 227.674 113.148 227.674 111.984C 227.674 111.086 227.163 110.59 225.948 110.301L 225.014 110.082C 224.221 109.898 223.881 109.645 223.881 109.219C 223.881 108.668 224.377 108.309 225.167 108.309C 225.94 108.309 226.358 108.637 226.381 109.27L 227.401 109.266z"/>
<path style="stroke:none; fill-rule:evenodd; fill:#000000" d="M 228.877 105.203L 228.877 113.602L 229.877 113.602L 229.877 110.254C 229.877 109.016 230.502 108.203 231.467 108.203C 231.768 108.203 232.069 108.305 232.295 108.48C 232.561 108.676 232.674 108.965 232.674 109.395L 232.674 113.598L 233.674 113.598L 233.674 109.043C 233.674 108.031 232.956 107.398 231.791 107.398C 230.948 107.398 230.436 107.664 229.877 108.41L 229.877 105.199L 228.877 105.203z"/>
<path style="stroke:none; fill-rule:evenodd; fill:#000000" d="M 240.616 113.039C 240.514 113.098 240.467 113.098 240.405 113.098C 240.065 113.098 239.881 112.926 239.881 112.625L 239.881 109.059C 239.881 107.984 239.104 107.402 237.631 107.402C 236.764 107.402 236.045 107.656 235.643 108.105C 235.37 108.414 235.256 108.762 235.233 109.363L 236.178 109.363C 236.256 108.633 236.682 108.301 237.565 108.301C 238.409 108.301 238.881 108.621 238.881 109.199L 238.881 109.453C 238.881 109.855 238.647 110.027 237.905 110.121C 236.581 110.293 236.377 110.34 236.018 110.488C 235.334 110.773 234.987 111.316 234.987 112.102C 234.987 113.195 235.741 113.887 236.952 113.887C 237.706 113.887 238.311 113.613 238.987 112.969C 239.053 113.602 239.35 113.887 239.967 113.887C 240.159 113.887 240.307 113.863 240.616 113.781L 240.616 113.039zM 238.877 111.742C 238.877 112.07 238.788 112.273 238.51 112.543C 238.131 112.906 237.674 113.098 237.127 113.098C 236.405 113.098 235.983 112.734 235.983 112.105C 235.983 111.457 236.393 111.125 237.385 110.973C 238.366 110.832 238.565 110.785 238.877 110.633L 238.877 111.742z"/>
<path style="stroke:none; fill-rule:evenodd; fill:#000000" d="M 241.479 116.102L 242.479 116.102L 242.479 113C 242.979 113.621 243.541 113.898 244.319 113.898C 245.862 113.898 246.877 112.641 246.877 110.711C 246.877 108.68 245.893 107.406 244.295 107.406C 243.483 107.406 242.827 107.773 242.381 108.484L 242.381 107.578L 241.483 107.578L 241.479 116.102zM 244.143 108.301C 245.19 108.301 245.874 109.238 245.874 110.684C 245.874 112.059 245.178 112.996 244.143 112.996C 243.139 112.996 242.479 112.07 242.479 110.648C 242.479 109.227 243.139 108.301 244.143 108.301z"/>
<path style="stroke:none; fill-rule:evenodd; fill:#000000" d="M 253.077 110.902C 253.077 109.984 253.01 109.434 252.838 108.988C 252.452 108.004 251.538 107.406 250.42 107.406C 248.756 107.406 247.682 108.699 247.682 110.688C 247.682 112.676 248.717 113.898 250.389 113.898C 251.752 113.898 252.698 113.105 252.936 111.777L 251.983 111.777C 251.725 112.578 251.19 113 250.428 113C 249.827 113 249.319 112.723 248.999 112.207C 248.772 111.859 248.694 111.508 248.682 110.902L 253.077 110.902zM 248.659 110.137C 248.737 109.027 249.413 108.301 250.377 108.301C 251.315 108.301 252.038 109.078 252.038 110.066C 252.038 110.086 252.038 110.109 252.03 110.133L 248.659 110.137z"/>
<path style="stroke:#000000; stroke-width:1.91229; fill:none" d="M 199.436 126.41L 184.131 103.453"/>
<path style="stroke:#000000; stroke-width:1.91229; fill:none" d="M 186.78 110.875L 184.131 103.453L 189.963 108.754"/>
<path style="stroke:#000000; stroke-width:1.91229; fill:none" d="M 199.436 126.41L 214.741 103.453"/>
<path style="stroke:#000000; stroke-width:1.91229; fill:none" d="M 208.909 108.754L 214.741 103.453L 212.092 110.875"/>
<path style="stroke:#000000; stroke-width:1.91229; fill:none" d="M 157.342 51.789L 245.35 51.789L 245.35 25.004L 157.342 25.004L 157.342 51.789z"/>
<path style="stroke:none; fill-rule:evenodd; fill:#ffff00" d="M 197.522 38.398C 197.522 32.059 188.959 26.922 178.389 26.922C 167.827 26.922 159.256 32.059 159.256 38.398C 159.256 44.738 167.819 49.875 178.389 49.875C 188.952 49.875 197.522 44.738 197.522 38.398"/>
<path style="stroke:#000000; stroke-width:1.91229; fill:none" d="M 197.522 38.398C 197.522 32.059 188.959 26.922 178.389 26.922C 167.827 26.922 159.256 32.059 159.256 38.398C 159.256 44.738 167.819 49.875 178.389 49.875C 188.952 49.875 197.522 44.738 197.522 38.398"/>
<path style="stroke:none; fill-rule:evenodd; fill:#000000" d="M 168.483 36.91C 168.436 36.32 168.311 35.941 168.084 35.605C 167.678 35.043 166.959 34.707 166.131 34.707C 164.53 34.707 163.483 36 163.483 38.012C 163.483 39.965 164.506 41.199 166.12 41.199C 167.538 41.199 168.436 40.328 168.553 38.836L 167.604 38.836C 167.448 39.812 166.959 40.301 166.155 40.301C 165.112 40.301 164.487 39.438 164.487 38.012C 164.487 36.504 165.096 35.605 166.131 35.605C 166.924 35.605 167.424 36.074 167.534 36.91L 168.483 36.91z"/>
<path style="stroke:none; fill-rule:evenodd; fill:#000000" d="M 171.917 34.703C 170.213 34.703 169.182 35.918 169.182 37.953C 169.182 39.984 170.202 41.199 171.932 41.199C 173.635 41.199 174.682 39.988 174.682 38C 174.682 35.91 173.674 34.703 171.92 34.703L 171.917 34.703zM 171.928 35.602C 173.022 35.602 173.678 36.488 173.678 37.984C 173.678 39.398 173.002 40.297 171.928 40.297C 170.846 40.297 170.178 39.41 170.178 37.949C 170.178 36.5 170.842 35.602 171.928 35.602z"/>
<path style="stroke:none; fill-rule:evenodd; fill:#000000" d="M 175.979 40.902L 176.979 40.902L 176.979 32.504L 175.979 32.504L 175.979 40.902z"/>
<path style="stroke:none; fill-rule:evenodd; fill:#000000" d="M 180.917 34.703C 179.213 34.703 178.182 35.918 178.182 37.953C 178.182 39.984 179.202 41.199 180.932 41.199C 182.635 41.199 183.682 39.988 183.682 38C 183.682 35.91 182.674 34.703 180.92 34.703L 180.917 34.703zM 180.928 35.602C 182.022 35.602 182.678 36.488 182.678 37.984C 182.678 39.398 182.002 40.297 180.928 40.297C 179.846 40.297 179.178 39.41 179.178 37.949C 179.178 36.5 179.842 35.602 180.928 35.602z"/>
<path style="stroke:none; fill-rule:evenodd; fill:#000000" d="M 184.877 34.875L 184.877 40.898L 185.877 40.898L 185.877 37.766C 185.877 36.902 186.088 36.336 186.538 36.004C 186.827 35.785 187.108 35.719 187.756 35.707L 187.756 34.742C 187.6 34.723 187.522 34.711 187.397 34.711C 186.788 34.711 186.323 35.078 185.78 35.977L 185.78 34.887L 184.877 34.875z"/>
<path style="stroke:none; fill-rule:evenodd; fill:#000000" d="M 214.002 36.566C 213.991 35.379 213.206 34.707 211.807 34.707C 210.397 34.707 209.483 35.434 209.483 36.555C 209.483 37.5 209.971 37.949 211.42 38.297L 212.331 38.516C 213.006 38.676 213.276 38.918 213.276 39.355C 213.276 39.918 212.709 40.301 211.866 40.301C 211.346 40.301 210.909 40.152 210.667 39.895C 210.518 39.723 210.448 39.547 210.389 39.113L 209.374 39.113C 209.417 40.523 210.202 41.199 211.784 41.199C 213.307 41.199 214.276 40.449 214.276 39.285C 214.276 38.387 213.764 37.891 212.549 37.602L 211.616 37.383C 210.823 37.199 210.483 36.945 210.483 36.52C 210.483 35.969 210.979 35.609 211.768 35.609C 212.541 35.609 212.959 35.938 212.983 36.57L 214.002 36.566z"/>
<path style="stroke:none; fill-rule:evenodd; fill:#000000" d="M 215.479 32.5L 215.479 40.898L 216.479 40.898L 216.479 37.551C 216.479 36.312 217.104 35.5 218.069 35.5C 218.37 35.5 218.67 35.602 218.897 35.777C 219.163 35.973 219.276 36.262 219.276 36.691L 219.276 40.895L 220.276 40.895L 220.276 36.34C 220.276 35.328 219.557 34.695 218.393 34.695C 217.549 34.695 217.038 34.961 216.479 35.707L 216.479 32.496L 215.479 32.5z"/>
<path style="stroke:none; fill-rule:evenodd; fill:#000000" d="M 227.213 40.34C 227.112 40.398 227.065 40.398 227.002 40.398C 226.663 40.398 226.479 40.227 226.479 39.926L 226.479 36.359C 226.479 35.285 225.702 34.703 224.229 34.703C 223.362 34.703 222.643 34.957 222.241 35.406C 221.967 35.715 221.854 36.062 221.831 36.664L 222.776 36.664C 222.854 35.934 223.28 35.602 224.163 35.602C 225.006 35.602 225.479 35.922 225.479 36.5L 225.479 36.754C 225.479 37.156 225.245 37.328 224.502 37.422C 223.178 37.594 222.975 37.641 222.616 37.789C 221.932 38.074 221.584 38.617 221.584 39.402C 221.584 40.496 222.338 41.188 223.549 41.188C 224.303 41.188 224.909 40.914 225.584 40.27C 225.651 40.902 225.948 41.188 226.565 41.188C 226.756 41.188 226.905 41.164 227.213 41.082L 227.213 40.34zM 225.479 39.043C 225.479 39.371 225.389 39.574 225.112 39.844C 224.733 40.207 224.276 40.398 223.729 40.398C 223.006 40.398 222.584 40.035 222.584 39.406C 222.584 38.758 222.995 38.426 223.987 38.273C 224.967 38.133 225.167 38.086 225.479 37.934L 225.479 39.043z"/>
<path style="stroke:none; fill-rule:evenodd; fill:#000000" d="M 228.077 43.402L 229.077 43.402L 229.077 40.301C 229.577 40.922 230.139 41.199 230.917 41.199C 232.459 41.199 233.475 39.941 233.475 38.012C 233.475 35.98 232.491 34.707 230.893 34.707C 230.081 34.707 229.424 35.074 228.979 35.785L 228.979 34.879L 228.081 34.879L 228.077 43.402zM 230.745 35.602C 231.791 35.602 232.475 36.539 232.475 37.984C 232.475 39.359 231.78 40.297 230.745 40.297C 229.741 40.297 229.081 39.371 229.081 37.949C 229.081 36.527 229.741 35.602 230.745 35.602z"/>
<path style="stroke:none; fill-rule:evenodd; fill:#000000" d="M 239.678 38.203C 239.678 37.285 239.612 36.734 239.44 36.289C 239.053 35.305 238.139 34.707 237.022 34.707C 235.358 34.707 234.284 36 234.284 37.988C 234.284 39.977 235.319 41.199 236.991 41.199C 238.354 41.199 239.299 40.406 239.538 39.078L 238.584 39.078C 238.327 39.879 237.791 40.301 237.03 40.301C 236.428 40.301 235.92 40.023 235.6 39.508C 235.374 39.16 235.295 38.809 235.284 38.203L 239.678 38.203zM 235.256 37.438C 235.334 36.328 236.01 35.602 236.975 35.602C 237.913 35.602 238.635 36.379 238.635 37.367C 238.635 37.387 238.635 37.41 238.627 37.434L 235.256 37.438z"/>
<path style="stroke:#000000; stroke-width:1.91229; fill:none" d="M 243.44 38.402C 243.44 32.062 234.877 26.926 224.307 26.926C 213.745 26.926 205.174 32.062 205.174 38.402C 205.174 44.742 213.737 49.879 224.307 49.879C 234.87 49.879 243.44 44.742 243.44 38.402"/>
<path style="stroke:none; fill-rule:evenodd; fill:#000000" d="M 251.178 37.301L 253.819 37.301C 254.475 37.301 254.995 37.109 255.444 36.707C 255.952 36.254 256.17 35.715 256.17 34.949C 256.17 33.387 255.233 32.504 253.561 32.504L 250.073 32.504L 250.073 40.902L 251.17 40.902L 251.178 37.301zM 251.178 36.402L 251.178 33.402L 253.428 33.402C 254.459 33.402 255.073 33.965 255.073 34.902C 255.073 35.836 254.459 36.402 253.428 36.402L 251.178 36.402z"/>
<path style="stroke:none; fill-rule:evenodd; fill:#000000" d="M 258.877 37.102L 262.87 37.102L 262.87 36.203L 258.877 36.203L 258.877 33.406L 263.377 33.406L 263.377 32.508L 257.78 32.508L 257.78 40.906L 258.877 40.906L 258.877 37.102z"/>
<path style="stroke:none; fill-rule:evenodd; fill:#000000" d="M 271.374 35.133C 271.038 33.301 269.975 32.406 268.127 32.406C 266.999 32.406 266.084 32.762 265.459 33.453C 264.698 34.281 264.284 35.477 264.284 36.836C 264.284 38.215 264.709 39.402 265.506 40.219C 266.151 40.887 266.983 41.195 268.081 41.195C 270.135 41.195 271.291 40.086 271.545 37.844L 270.44 37.844C 270.35 38.434 270.237 38.836 270.061 39.18C 269.717 39.891 269.006 40.289 268.108 40.289C 266.44 40.289 265.381 38.938 265.381 36.816C 265.381 34.637 266.393 33.293 268.014 33.293C 268.69 33.293 269.323 33.504 269.67 33.828C 269.979 34.121 270.151 34.48 270.28 35.113L 271.374 35.133z"/>
<path style="stroke:#000000; stroke-width:1.91229; fill:none" d="M 178.389 47.965L 172.651 74.75"/>
<path style="stroke:#000000; stroke-width:1.91229; fill:none" d="M 176.124 67.672L 172.655 74.75L 172.389 66.871"/>
<path style="stroke:#000000; stroke-width:1.91229; fill:none" d="M 224.307 47.965L 231.959 74.75"/>
<path style="stroke:#000000; stroke-width:1.91229; fill:none" d="M 231.698 66.871L 231.959 74.75L 228.022 67.922"/>
<path style="stroke:#000000; stroke-width:1.91229; fill:none" d="M 178.393 11.613L 178.393 25.004"/>
<path style="stroke:none; fill-rule:evenodd; fill:#ffff00" d="M 181.53 16.398L 178.393 28.945L 175.256 16.398"/>
<path style="stroke:#000000; stroke-width:1.91229; fill:none" d="M 180.303 17.355L 178.393 25.004L 176.483 17.355"/>
<path style="stroke:none; fill-rule:evenodd; fill:#000000" d="M 161.877 2.375L 161.877 8.39799L 162.877 8.39799L 162.877 5.26601C 162.877 4.40199 163.088 3.836 163.538 3.504C 163.827 3.285 164.108 3.21899 164.756 3.207L 164.756 2.242C 164.6 2.22301 164.522 2.211 164.397 2.211C 163.788 2.211 163.323 2.578 162.78 3.47701L 162.78 2.38699L 161.877 2.375z"/>
<path style="stroke:none; fill-rule:evenodd; fill:#000000" d="M 170.776 5.703C 170.776 4.785 170.709 4.23399 170.538 3.789C 170.151 2.80499 169.237 2.207 168.12 2.207C 166.456 2.207 165.381 3.5 165.381 5.48801C 165.381 7.47701 166.417 8.69901 168.088 8.69901C 169.452 8.69901 170.397 7.90601 170.635 6.578L 169.682 6.578C 169.424 7.379 168.889 7.80099 168.127 7.80099C 167.526 7.80099 167.018 7.52299 166.698 7.008C 166.471 6.66 166.393 6.30901 166.381 5.703L 170.776 5.703zM 166.358 4.938C 166.436 3.828 167.112 3.10201 168.077 3.10201C 169.014 3.10201 169.737 3.879 169.737 4.867C 169.737 4.88699 169.737 4.91 169.729 4.93401L 166.358 4.938z"/>
<path style="stroke:none; fill-rule:evenodd; fill:#000000" d="M 177.635 8.40199L 179.401 2.40199L 178.323 2.40199L 177.131 7.07001L 175.952 2.40199L 174.784 2.40199L 173.639 7.07001L 172.413 2.40199L 171.358 2.40199L 173.1 8.40199L 174.178 8.40199L 175.334 3.688L 176.549 8.40199L 177.635 8.40199z"/>
<path style="stroke:none; fill-rule:evenodd; fill:#000000" d="M 185.713 7.84C 185.612 7.89799 185.565 7.89799 185.502 7.89799C 185.163 7.89799 184.979 7.72701 184.979 7.42599L 184.979 3.85899C 184.979 2.785 184.202 2.203 182.729 2.203C 181.862 2.203 181.143 2.457 180.741 2.90601C 180.467 3.215 180.354 3.562 180.331 4.164L 181.276 4.164C 181.354 3.43401 181.78 3.10201 182.663 3.10201C 183.506 3.10201 183.979 3.422 183.979 4L 183.979 4.254C 183.979 4.65601 183.745 4.828 183.002 4.922C 181.678 5.09399 181.475 5.14101 181.116 5.289C 180.432 5.57401 180.084 6.117 180.084 6.90199C 180.084 7.996 180.838 8.688 182.049 8.688C 182.803 8.688 183.409 8.414 184.084 7.77C 184.151 8.40199 184.448 8.688 185.065 8.688C 185.256 8.688 185.405 8.664 185.713 8.582L 185.713 7.84zM 183.979 6.543C 183.979 6.871 183.889 7.07401 183.612 7.34399C 183.233 7.707 182.776 7.89799 182.229 7.89799C 181.506 7.89799 181.084 7.535 181.084 6.90601C 181.084 6.258 181.495 5.92599 182.487 5.77299C 183.467 5.633 183.667 5.586 183.979 5.43401L 183.979 6.543z"/>
<path style="stroke:none; fill-rule:evenodd; fill:#000000" d="M 186.776 2.375L 186.776 8.39799L 187.776 8.39799L 187.776 5.26601C 187.776 4.40199 187.987 3.836 188.436 3.504C 188.725 3.285 189.006 3.21899 189.655 3.207L 189.655 2.242C 189.499 2.22301 189.42 2.211 189.295 2.211C 188.686 2.211 188.221 2.578 187.678 3.47701L 187.678 2.38699L 186.776 2.375z"/>
<path style="stroke:none; fill-rule:evenodd; fill:#000000" d="M 195.479 0L 194.479 0L 194.479 3.145C 194.081 2.52699 193.444 2.203 192.643 2.203C 191.096 2.203 190.081 3.465 190.081 5.395C 190.081 7.44099 191.092 8.69901 192.733 8.69901C 193.569 8.69901 194.151 8.383 194.678 7.60899L 194.678 8.39799L 195.475 8.39799L 195.479 0zM 192.807 3.10201C 193.827 3.10201 194.479 4.02699 194.479 5.47301C 194.479 6.871 193.823 7.797 192.819 7.797C 191.776 7.797 191.081 6.85899 191.081 5.44901C 191.081 4.039 191.772 3.10201 192.807 3.10201z"/>
<path style="stroke:none; fill-rule:evenodd; fill:#000000" d="M 43.7759 2.375L 43.7759 8.39799L 44.7759 8.39799L 44.7759 5.26601C 44.7759 4.40199 44.9868 3.836 45.436 3.504C 45.7251 3.285 46.0063 3.21899 46.6548 3.207L 46.6548 2.242C 46.4985 2.22301 46.4204 2.211 46.2954 2.211C 45.686 2.211 45.2212 2.578 44.6782 3.47701L 44.6782 2.38699L 43.7759 2.375z"/>
<path style="stroke:none; fill-rule:evenodd; fill:#000000" d="M 52.6782 5.703C 52.6782 4.785 52.6118 4.23399 52.4399 3.789C 52.0532 2.80499 51.1392 2.207 50.022 2.207C 48.3579 2.207 47.2837 3.5 47.2837 5.48801C 47.2837 7.47701 48.3188 8.69901 49.9907 8.69901C 51.354 8.69901 52.2993 7.90601 52.5376 6.578L 51.5845 6.578C 51.3267 7.379 50.7915 7.80099 50.0298 7.80099C 49.4282 7.80099 48.9204 7.52299 48.6001 7.008C 48.3735 6.66 48.2954 6.30901 48.2837 5.703L 52.6782 5.703zM 48.2563 4.938C 48.3345 3.828 49.0102 3.10201 49.9751 3.10201C 50.9126 3.10201 51.6352 3.879 51.6352 4.867C 51.6352 4.88699 51.6352 4.91 51.6274 4.93401L 48.2563 4.938z"/>
<path style="stroke:none; fill-rule:evenodd; fill:#000000" d="M 59.5337 8.40199L 61.2993 2.40199L 60.2212 2.40199L 59.0298 7.07001L 57.8501 2.40199L 56.6821 2.40199L 55.5376 7.07001L 54.311 2.40199L 53.2563 2.40199L 54.9985 8.40199L 56.0767 8.40199L 57.2329 3.688L 58.4478 8.40199L 59.5337 8.40199z"/>
<path style="stroke:none; fill-rule:evenodd; fill:#000000" d="M 67.6157 7.84C 67.5142 7.89799 67.4673 7.89799 67.4048 7.89799C 67.0649 7.89799 66.8813 7.72701 66.8813 7.42599L 66.8813 3.85899C 66.8813 2.785 66.104 2.203 64.6313 2.203C 63.7642 2.203 63.0454 2.457 62.6431 2.90601C 62.3696 3.215 62.2563 3.562 62.2329 4.164L 63.1782 4.164C 63.2563 3.43401 63.6821 3.10201 64.5649 3.10201C 65.4087 3.10201 65.8813 3.422 65.8813 4L 65.8813 4.254C 65.8813 4.65601 65.647 4.828 64.9048 4.922C 63.5806 5.09399 63.3774 5.14101 63.0181 5.289C 62.3345 5.57401 61.9868 6.117 61.9868 6.90199C 61.9868 7.996 62.7407 8.688 63.9517 8.688C 64.7056 8.688 65.311 8.414 65.9868 7.77C 66.0532 8.40199 66.3501 8.688 66.9673 8.688C 67.1587 8.688 67.3071 8.664 67.6157 8.582L 67.6157 7.84zM 65.8774 6.543C 65.8774 6.871 65.7876 7.07401 65.5102 7.34399C 65.1313 7.707 64.6743 7.89799 64.1274 7.89799C 63.4048 7.89799 62.9829 7.535 62.9829 6.90601C 62.9829 6.258 63.3931 5.92599 64.3852 5.77299C 65.3657 5.633 65.5649 5.586 65.8774 5.43401L 65.8774 6.543z"/>
<path style="stroke:none; fill-rule:evenodd; fill:#000000" d="M 68.6782 2.375L 68.6782 8.39799L 69.6782 8.39799L 69.6782 5.26601C 69.6782 4.40199 69.8892 3.836 70.3384 3.504C 70.6274 3.285 70.9087 3.21899 71.5571 3.207L 71.5571 2.242C 71.4009 2.22301 71.3228 2.211 71.1978 2.211C 70.5884 2.211 70.1235 2.578 69.5806 3.47701L 69.5806 2.38699L 68.6782 2.375z"/>
<path style="stroke:none; fill-rule:evenodd; fill:#000000" d="M 77.3774 0L 76.3774 0L 76.3774 3.145C 75.979 2.52699 75.3423 2.203 74.5415 2.203C 72.9946 2.203 71.979 3.465 71.979 5.395C 71.979 7.44099 72.9907 8.69901 74.6313 8.69901C 75.4673 8.69901 76.0493 8.383 76.5767 7.60899L 76.5767 8.39799L 77.3735 8.39799L 77.3774 0zM 74.7056 3.10201C 75.7251 3.10201 76.3774 4.02699 76.3774 5.47301C 76.3774 6.871 75.7212 7.797 74.7173 7.797C 73.6743 7.797 72.979 6.85899 72.979 5.44901C 72.979 4.039 73.6704 3.10201 74.7056 3.10201z"/>
</g>
</svg>