<?xml version="1.0" encoding="UTF-8" standalone="no"?>
<svg
   xmlns:dc="http://purl.org/dc/elements/1.1/"
   xmlns:cc="http://creativecommons.org/ns#"
   xmlns:rdf="http://www.w3.org/1999/02/22-rdf-syntax-ns#"
   xmlns:svg="http://www.w3.org/2000/svg"
   xmlns="http://www.w3.org/2000/svg"
   xmlns:sodipodi="http://sodipodi.sourceforge.net/DTD/sodipodi-0.dtd"
   xmlns:inkscape="http://www.inkscape.org/namespaces/inkscape"
   version="1.1"
   width="8.5in"
   height="11in"
   viewBox="0 0 1912.5 2475"
   id="svg2"
   inkscape:version="0.91 r13725"
   sodipodi:docname="fig_deepleabra_wwi_no_lip_pre.svg"
   inkscape:export-filename="/Users/oreilly/svn_docs/figs/fig_deepleabra_wwi_no_lip_pre.png"
   inkscape:export-xdpi="149.95799"
   inkscape:export-ydpi="149.95799">
  <metadata
     id="metadata90">
    <rdf:RDF>
      <cc:Work
         rdf:about="">
        <dc:format>image/svg+xml</dc:format>
        <dc:type
           rdf:resource="http://purl.org/dc/dcmitype/StillImage" />
        <dc:title></dc:title>
      </cc:Work>
    </rdf:RDF>
  </metadata>
  <defs
     id="defs88">
    <marker
       inkscape:stockid="Arrow1Mend"
       orient="auto"
       refY="0"
       refX="0"
       id="marker5746"
       style="overflow:visible"
       inkscape:isstock="true">
      <path
         id="path5748"
         d="M 0,0 5,-5 -12.5,0 5,5 0,0 Z"
         style="fill:#000000;fill-opacity:1;fill-rule:evenodd;stroke:#000000;stroke-width:1pt;stroke-opacity:1"
         transform="matrix(-0.4,0,0,-0.4,-4,0)"
         inkscape:connector-curvature="0" />
    </marker>
    <marker
       inkscape:isstock="true"
       style="overflow:visible"
       id="marker5398"
       refX="0"
       refY="0"
       orient="auto"
       inkscape:stockid="Arrow1Mend">
      <path
         transform="matrix(-0.4,0,0,-0.4,-4,0)"
         style="fill:#0000ff;fill-opacity:1;fill-rule:evenodd;stroke:#000000;stroke-width:1pt;stroke-opacity:1"
         d="M 0,0 5,-5 -12.5,0 5,5 0,0 Z"
         id="path5400"
         inkscape:connector-curvature="0" />
    </marker>
    <marker
       inkscape:stockid="Arrow1Mend"
       orient="auto"
       refY="0"
       refX="0"
       id="marker4937"
       style="overflow:visible"
       inkscape:isstock="true">
      <path
         inkscape:connector-curvature="0"
         id="path4939"
         d="M 0,0 5,-5 -12.5,0 5,5 0,0 Z"
         style="fill:#000000;fill-opacity:1;fill-rule:evenodd;stroke:#000000;stroke-width:1pt;stroke-opacity:1"
         transform="matrix(-0.4,0,0,-0.4,-4,0)" />
    </marker>
    <marker
       inkscape:isstock="true"
       style="overflow:visible"
       id="marker8240"
       refX="0"
       refY="0"
       orient="auto"
       inkscape:stockid="Arrow1Mend">
      <path
         inkscape:connector-curvature="0"
         transform="matrix(-0.4,0,0,-0.4,-4,0)"
         style="fill:#000000;fill-opacity:1;fill-rule:evenodd;stroke:#000000;stroke-width:1pt;stroke-opacity:1"
         d="M 0,0 5,-5 -12.5,0 5,5 0,0 Z"
         id="path8242" />
    </marker>
    <marker
       inkscape:stockid="Arrow1Mend"
       orient="auto"
       refY="0"
       refX="0"
       id="marker6905"
       style="overflow:visible"
       inkscape:isstock="true">
      <path
         id="path6907"
         d="M 0,0 5,-5 -12.5,0 5,5 0,0 Z"
         style="fill:#000000;fill-opacity:1;fill-rule:evenodd;stroke:#000000;stroke-width:1pt;stroke-opacity:1"
         transform="matrix(-0.4,0,0,-0.4,-4,0)"
         inkscape:connector-curvature="0" />
    </marker>
    <marker
       inkscape:isstock="true"
       style="overflow:visible"
       id="marker6499"
       refX="0"
       refY="0"
       orient="auto"
       inkscape:stockid="Arrow1Mend">
      <path
         transform="matrix(-0.4,0,0,-0.4,-4,0)"
         style="fill:#000000;fill-opacity:1;fill-rule:evenodd;stroke:#000000;stroke-width:1pt;stroke-opacity:1"
         d="M 0,0 5,-5 -12.5,0 5,5 0,0 Z"
         id="path6501"
         inkscape:connector-curvature="0" />
    </marker>
    <marker
       inkscape:stockid="Arrow1Mend"
       orient="auto"
       refY="0"
       refX="0"
       id="marker5211"
       style="overflow:visible"
       inkscape:isstock="true">
      <path
         id="path5213"
         d="M 0,0 5,-5 -12.5,0 5,5 0,0 Z"
         style="fill:#000000;fill-opacity:1;fill-rule:evenodd;stroke:#000000;stroke-width:1pt;stroke-opacity:1"
         transform="matrix(-0.4,0,0,-0.4,-4,0)"
         inkscape:connector-curvature="0" />
    </marker>
    <marker
       inkscape:isstock="true"
       style="overflow:visible"
       id="marker4949"
       refX="0"
       refY="0"
       orient="auto"
       inkscape:stockid="Arrow1Mend">
      <path
         transform="matrix(-0.4,0,0,-0.4,-4,0)"
         style="fill:#000000;fill-opacity:1;fill-rule:evenodd;stroke:#000000;stroke-width:1pt;stroke-opacity:1"
         d="M 0,0 5,-5 -12.5,0 5,5 0,0 Z"
         id="path4951"
         inkscape:connector-curvature="0" />
    </marker>
    <marker
       inkscape:isstock="true"
       style="overflow:visible"
       id="marker6060"
       refX="0"
       refY="0"
       orient="auto"
       inkscape:stockid="Arrow1Mend">
      <path
         transform="matrix(-0.4,0,0,-0.4,-4,0)"
         style="fill:#0000ff;fill-opacity:1;fill-rule:evenodd;stroke:#000000;stroke-width:1pt;stroke-opacity:1"
         d="M 0,0 5,-5 -12.5,0 5,5 0,0 Z"
         id="path6062"
         inkscape:connector-curvature="0" />
    </marker>
    <marker
       inkscape:stockid="Arrow1Mend"
       orient="auto"
       refY="0"
       refX="0"
       id="marker5796"
       style="overflow:visible"
       inkscape:isstock="true">
      <path
         inkscape:connector-curvature="0"
         id="path5798"
         d="M 0,0 5,-5 -12.5,0 5,5 0,0 Z"
         style="fill:#0000ff;fill-opacity:1;fill-rule:evenodd;stroke:#000000;stroke-width:1pt;stroke-opacity:1"
         transform="matrix(-0.4,0,0,-0.4,-4,0)" />
    </marker>
    <marker
       inkscape:stockid="Arrow1Mend"
       orient="auto"
       refY="0"
       refX="0"
       id="marker8240-4"
       style="overflow:visible"
       inkscape:isstock="true">
      <path
         id="path8242-2"
         d="M 0,0 5,-5 -12.5,0 5,5 0,0 Z"
         style="fill:#000000;fill-opacity:1;fill-rule:evenodd;stroke:#000000;stroke-width:1pt;stroke-opacity:1"
         transform="matrix(-0.4,0,0,-0.4,-4,0)"
         inkscape:connector-curvature="0" />
    </marker>
    <marker
       inkscape:isstock="true"
       style="overflow:visible"
       id="marker6905-2"
       refX="0"
       refY="0"
       orient="auto"
       inkscape:stockid="Arrow1Mend">
      <path
         inkscape:connector-curvature="0"
         transform="matrix(-0.4,0,0,-0.4,-4,0)"
         style="fill:#000000;fill-opacity:1;fill-rule:evenodd;stroke:#000000;stroke-width:1pt;stroke-opacity:1"
         d="M 0,0 5,-5 -12.5,0 5,5 0,0 Z"
         id="path6907-0" />
    </marker>
    <marker
       inkscape:stockid="Arrow1Mend"
       orient="auto"
       refY="0"
       refX="0"
       id="marker6499-5"
       style="overflow:visible"
       inkscape:isstock="true">
      <path
         inkscape:connector-curvature="0"
         id="path6501-3"
         d="M 0,0 5,-5 -12.5,0 5,5 0,0 Z"
         style="fill:#000000;fill-opacity:1;fill-rule:evenodd;stroke:#000000;stroke-width:1pt;stroke-opacity:1"
         transform="matrix(-0.4,0,0,-0.4,-4,0)" />
    </marker>
    <marker
       inkscape:stockid="Arrow1Mend"
       orient="auto"
       refY="0"
       refX="0"
       id="marker4949-2"
       style="overflow:visible"
       inkscape:isstock="true">
      <path
         inkscape:connector-curvature="0"
         id="path4951-4"
         d="M 0,0 5,-5 -12.5,0 5,5 0,0 Z"
         style="fill:#000000;fill-opacity:1;fill-rule:evenodd;stroke:#000000;stroke-width:1pt;stroke-opacity:1"
         transform="matrix(-0.4,0,0,-0.4,-4,0)" />
    </marker>
    <marker
       inkscape:isstock="true"
       style="overflow:visible;"
       id="marker6905-8"
       refX="0.0"
       refY="0.0"
       orient="auto"
       inkscape:stockid="Arrow1Mend">
      <path
         transform="scale(0.4) rotate(180) translate(10,0)"
         style="fill-rule:evenodd;stroke:#000000;stroke-width:1pt;stroke-opacity:1;fill:#000000;fill-opacity:1"
         d="M 0.0,0.0 L 5.0,-5.0 L -12.5,0.0 L 5.0,5.0 L 0.0,0.0 z "
         id="path6907-2" />
    </marker>
    <marker
       inkscape:stockid="Arrow1Mend"
       orient="auto"
       refY="0.0"
       refX="0.0"
       id="marker6499-1"
       style="overflow:visible;"
       inkscape:isstock="true">
      <path
         id="path6501-8"
         d="M 0.0,0.0 L 5.0,-5.0 L -12.5,0.0 L 5.0,5.0 L 0.0,0.0 z "
         style="fill-rule:evenodd;stroke:#000000;stroke-width:1pt;stroke-opacity:1;fill:#000000;fill-opacity:1"
         transform="scale(0.4) rotate(180) translate(10,0)" />
    </marker>
    <marker
       inkscape:isstock="true"
       style="overflow:visible;"
       id="marker5623-5"
       refX="0.0"
       refY="0.0"
       orient="auto"
       inkscape:stockid="Arrow1Mend">
      <path
         transform="scale(0.4) rotate(180) translate(10,0)"
         style="fill-rule:evenodd;stroke:#000000;stroke-width:1pt;stroke-opacity:1;fill:#000000;fill-opacity:1"
         d="M 0.0,0.0 L 5.0,-5.0 L -12.5,0.0 L 5.0,5.0 L 0.0,0.0 z "
         id="path5625-8" />
    </marker>
    <marker
       inkscape:isstock="true"
       style="overflow:visible;"
       id="marker5211-1"
       refX="0.0"
       refY="0.0"
       orient="auto"
       inkscape:stockid="Arrow1Mend">
      <path
         transform="scale(0.4) rotate(180) translate(10,0)"
         style="fill-rule:evenodd;stroke:#000000;stroke-width:1pt;stroke-opacity:1;fill:#000000;fill-opacity:1"
         d="M 0.0,0.0 L 5.0,-5.0 L -12.5,0.0 L 5.0,5.0 L 0.0,0.0 z "
         id="path5213-6" />
    </marker>
    <marker
       inkscape:stockid="Arrow1Mend"
       orient="auto"
       refY="0.0"
       refX="0.0"
       id="marker4949-4"
       style="overflow:visible;"
       inkscape:isstock="true">
      <path
         id="path4951-2"
         d="M 0.0,0.0 L 5.0,-5.0 L -12.5,0.0 L 5.0,5.0 L 0.0,0.0 z "
         style="fill-rule:evenodd;stroke:#000000;stroke-width:1pt;stroke-opacity:1;fill:#000000;fill-opacity:1"
         transform="scale(0.4) rotate(180) translate(10,0)" />
    </marker>
    <marker
       inkscape:stockid="Arrow1Mend"
       orient="auto"
       refY="0.0"
       refX="0.0"
       id="marker4907-3"
       style="overflow:visible;"
       inkscape:isstock="true">
      <path
         id="path4909-9"
         d="M 0.0,0.0 L 5.0,-5.0 L -12.5,0.0 L 5.0,5.0 L 0.0,0.0 z "
         style="fill-rule:evenodd;stroke:#000000;stroke-width:1pt;stroke-opacity:1;fill:#000000;fill-opacity:1"
         transform="scale(0.4) rotate(180) translate(10,0)" />
    </marker>
  </defs>
  <sodipodi:namedview
     pagecolor="#ffffff"
     bordercolor="#666666"
     borderopacity="1"
     objecttolerance="10"
     gridtolerance="10"
     guidetolerance="10"
     inkscape:pageopacity="0"
     inkscape:pageshadow="2"
     inkscape:window-width="640"
     inkscape:window-height="480"
     id="namedview86"
     showgrid="false"
     units="in"
     inkscape:zoom="1.9725"
     inkscape:cx="186.42348"
     inkscape:cy="223.38439"
     inkscape:current-layer="svg2" />
  <rect
     style="opacity:1;fill:#ffffff;fill-opacity:1;fill-rule:nonzero;stroke:#ffffff;stroke-width:1.25104606;stroke-linecap:butt;stroke-linejoin:miter;stroke-miterlimit:4;stroke-dasharray:none;stroke-dashoffset:0;stroke-opacity:1"
     id="rect7432"
     width="1070.9653"
     height="933.84595"
     x="64.010353"
     y="1485.897" />
  <path
     d="m 231.23016,2278.0875 0,-747.5 747.50004,0 0,747.5 -747.50004,0"
     id="path4-3"
     inkscape:connector-curvature="0"
     style="fill:none;stroke:#000000;stroke-width:2" />
  <text
     style="font-size:37.90000153px;font-family:Arial;text-anchor:start;fill:#000000"
     id="text8-5"
     font-size="37.9"
     y="2341.6877"
     x="946.79193">1000</text>
  <text
     style="font-size:37.90000153px;font-family:Arial;text-anchor:middle;fill:#000000"
     id="text10-5"
     font-size="37.9"
     y="2402.3889"
     x="605.87286">
    <tspan
       style="font-size:50px"
       id="tspan4303">epoch</tspan>
  </text>
  <text
     style="font-size:37.90000153px;font-family:Arial;text-anchor:middle;fill:#000000"
     id="text12-3"
     font-size="37.9"
     y="2341.6877"
     x="231.23016">0</text>
  <text
     style="font-size:37.90000153px;font-family:Arial;text-anchor:middle;fill:#000000"
     id="text14-3"
     font-size="37.9"
     y="2341.6877"
     x="305.93015">100</text>
  <text
     style="font-size:37.90000153px;font-family:Arial;text-anchor:middle;fill:#000000"
     id="text16-7"
     font-size="37.9"
     y="2341.6877"
     x="380.73013">200</text>
  <text
     style="font-size:37.90000153px;font-family:Arial;text-anchor:middle;fill:#000000"
     id="text18-7"
     font-size="37.9"
     y="2341.6877"
     x="455.43015">300</text>
  <text
     style="font-size:37.90000153px;font-family:Arial;text-anchor:middle;fill:#000000"
     id="text20-9"
     font-size="37.9"
     y="2341.6877"
     x="530.2301">400</text>
  <text
     style="font-size:37.90000153px;font-family:Arial;text-anchor:middle;fill:#000000"
     id="text22-9"
     font-size="37.9"
     y="2341.6877"
     x="604.93018">500</text>
  <text
     style="font-size:37.90000153px;font-family:Arial;text-anchor:middle;fill:#000000"
     id="text24-5"
     font-size="37.9"
     y="2341.6877"
     x="679.73022">600</text>
  <text
     style="font-size:37.90000153px;font-family:Arial;text-anchor:middle;fill:#000000"
     id="text26-6"
     font-size="37.9"
     y="2341.6877"
     x="754.53021">700</text>
  <text
     style="font-size:37.90000153px;font-family:Arial;text-anchor:middle;fill:#000000"
     id="text28-6"
     font-size="37.9"
     y="2341.6877"
     x="829.23022">800</text>
  <text
     style="font-size:37.90000153px;font-family:Arial;text-anchor:middle;fill:#000000"
     id="text30-3"
     font-size="37.9"
     y="2341.6877"
     x="904.03021">900</text>
  <path
     style="fill:none;stroke:#000000;stroke-width:2"
     inkscape:connector-curvature="0"
     id="path34-3"
     d="m 231.23016,2278.0875 747.50004,0 m -747.50004,18.7 0,-37.3 m 74.7,37.3 0,-37.3 m 74.8,37.3 0,-37.3 m 74.7,37.3 0,-37.3 m 74.8,37.3 0,-37.3 m 74.7,37.3 0,-37.3 m 74.8,37.3 0,-37.3 m 74.8,37.3 0,-37.3 m 74.7,37.3 0,-37.3 m 74.8,37.3 0,-37.3 m 74.70004,37.3 0,-37.3" />
  <path
     style="fill:none;stroke:#000000;stroke-width:2"
     inkscape:connector-curvature="0"
     id="path36-6"
     d="m 231.23016,1530.5875 747.50004,0 m -747.50004,18.7 0,-37.4 m 74.7,37.4 0,-37.4 m 74.8,37.4 0,-37.4 m 74.7,37.4 0,-37.4 m 74.8,37.4 0,-37.4 m 74.7,37.4 0,-37.4 m 74.8,37.4 0,-37.4 m 74.8,37.4 0,-37.4 m 74.7,37.4 0,-37.4 m 74.8,37.4 0,-37.4 m 74.70004,37.4 0,-37.4" />
  <text
     style="font-size:37.90000153px;font-family:Arial;text-anchor:end;fill:#000000"
     id="text40-4"
     font-size="37.9"
     y="2293.0876"
     x="205.03015">0</text>
  <text
     style="font-size:37.90000153px;font-family:Arial;text-anchor:end;fill:#000000"
     id="text42-4"
     font-size="37.9"
     y="2218.2878"
     x="205.03015">0.1</text>
  <text
     style="font-size:37.90000153px;font-family:Arial;text-anchor:end;fill:#000000"
     id="text44-6"
     font-size="37.9"
     y="2143.5876"
     x="205.03015">0.2</text>
  <text
     style="font-size:37.90000153px;font-family:Arial;text-anchor:end;fill:#000000"
     id="text46-2"
     font-size="37.9"
     y="2068.7878"
     x="205.03015">0.3</text>
  <text
     style="font-size:37.90000153px;font-family:Arial;text-anchor:end;fill:#000000"
     id="text48-5"
     font-size="37.9"
     y="1994.0875"
     x="205.03015">0.4</text>
  <text
     style="font-size:37.90000153px;font-family:Arial;text-anchor:end;fill:#000000"
     id="text50-6"
     font-size="37.9"
     y="1919.2876"
     x="205.03015">0.5</text>
  <text
     style="font-size:37.90000153px;font-family:Arial;text-anchor:end;fill:#000000"
     id="text52-3"
     font-size="37.9"
     y="1844.5876"
     x="205.03015">0.6</text>
  <text
     style="font-size:37.90000153px;font-family:Arial;text-anchor:end;fill:#000000"
     id="text54-8"
     font-size="37.9"
     y="1769.7876"
     x="205.03015">0.7</text>
  <text
     style="font-size:37.90000153px;font-family:Arial;text-anchor:end;fill:#000000"
     id="text56-3"
     font-size="37.9"
     y="1694.9877"
     x="205.03015">0.8</text>
  <text
     style="font-size:37.90000153px;font-family:Arial;text-anchor:end;fill:#000000"
     id="text58-3"
     font-size="37.9"
     y="1620.2876"
     x="205.03015">0.9</text>
  <text
     style="font-size:37.90000153px;font-family:Arial;text-anchor:end;fill:#000000"
     id="text60-9"
     font-size="37.9"
     y="1545.4877"
     x="205.03015">1</text>
  <path
     style="fill:none;stroke:#000000;stroke-width:2"
     inkscape:connector-curvature="0"
     id="path62-2"
     d="m 231.23016,2278.0875 0,-747.5 m -18.7,747.5 37.3,0 m -37.3,-74.7 37.3,0 m -37.3,-74.8 37.3,0 m -37.3,-74.7 37.3,0 m -37.3,-74.8 37.3,0 m -37.3,-74.7 37.3,0 m -37.3,-74.8 37.3,0 m -37.3,-74.8 37.3,0 m -37.3,-74.7 37.3,0 m -37.3,-74.8 37.3,0 m -37.3,-74.7 37.3,0" />
  <path
     style="fill:none;stroke:#000080;stroke-width:2"
     inkscape:connector-curvature="0"
     id="path88-5"
     d="m 978.7302,2278.0875 0,-747.5 m -18.70004,747.5 37.40004,0 m -37.40004,-74.7 37.40004,0 m -37.40004,-74.8 37.40004,0 m -37.40004,-74.7 37.40004,0 m -37.40004,-74.8 37.40004,0 m -37.40004,-74.7 37.40004,0 m -37.40004,-74.8 37.40004,0 m -37.40004,-74.8 37.40004,0 m -37.40004,-74.7 37.40004,0 m -37.40004,-74.8 37.40004,0 m -37.40004,-74.7 37.40004,0" />
  <text
     xml:space="preserve"
     style="color:#000000;font-style:normal;font-variant:normal;font-weight:normal;font-stretch:normal;font-size:37.5px;line-height:100%;font-family:Arial;-inkscape-font-specification:Arial;text-indent:0;text-align:start;text-decoration:none;text-decoration-line:none;letter-spacing:0px;word-spacing:0px;text-transform:none;direction:ltr;block-progression:tb;writing-mode:lr-tb;text-anchor:start;display:inline;overflow:visible;visibility:visible;fill:#000000;fill-opacity:1;fill-rule:nonzero;stroke:none;stroke-width:1px;stroke-linecap:butt;stroke-linejoin:miter;stroke-opacity:1;marker:none;enable-background:accumulate"
     x="-2205.0088"
     y="121.31261"
     id="text4299"
     sodipodi:linespacing="100%"
     transform="matrix(0,-1,1,0,0,0)"><tspan
       sodipodi:role="line"
       id="tspan4301"
       x="-2205.0088"
       y="121.31261"
       style="font-size:50px">TEO Obj feat decode err %</tspan></text>
  <text
     sodipodi:linespacing="100%"
     id="text4865"
     y="1990.2047"
     x="616.65845"
     style="color:#000000;font-style:normal;font-variant:normal;font-weight:normal;font-stretch:normal;font-size:37.5px;line-height:100%;font-family:Arial;-inkscape-font-specification:Arial;text-indent:0;text-align:start;text-decoration:none;text-decoration-line:none;letter-spacing:0px;word-spacing:0px;text-transform:none;direction:ltr;block-progression:tb;writing-mode:lr-tb;text-anchor:start;display:inline;overflow:visible;visibility:visible;fill:#ff0000;fill-opacity:1;fill-rule:nonzero;stroke:none;stroke-width:1px;stroke-linecap:butt;stroke-linejoin:miter;stroke-opacity:1;marker:none;enable-background:accumulate"
     xml:space="preserve"><tspan
       y="1990.2047"
       x="616.65845"
       id="tspan4867"
       sodipodi:role="line">no LIP pretrain</tspan></text>
  <text
     xml:space="preserve"
     style="color:#000000;font-style:normal;font-variant:normal;font-weight:normal;font-stretch:normal;font-size:37.5px;line-height:100%;font-family:Arial;-inkscape-font-specification:Arial;text-indent:0;text-align:start;text-decoration:none;text-decoration-line:none;letter-spacing:0px;word-spacing:0px;text-transform:none;direction:ltr;block-progression:tb;writing-mode:lr-tb;text-anchor:start;display:inline;overflow:visible;visibility:visible;fill:#000000;fill-opacity:1;fill-rule:nonzero;stroke:none;stroke-width:1px;stroke-linecap:butt;stroke-linejoin:miter;stroke-opacity:1;marker:none;enable-background:accumulate"
     x="614.57623"
     y="2100.7893"
     id="text5980"
     sodipodi:linespacing="100%"><tspan
       sodipodi:role="line"
       id="tspan5982"
       x="614.57623"
       y="2100.7893">Std</tspan></text>
  <path
     style="fill:none;stroke:#000000;stroke-width:2.5;stroke-miterlimit:4;stroke-dasharray:none"
     d="m 232.85819,1621.7839 0.8,8.8 0.7,10.5 0.7,11.6 0.8,14.3 0.7,14.8 0.8,17 0.7,16.8 0.8,16.5 0.7,17.3 0.8,15.6 0.7,13.8 0.8,10.8 0.7,8.6 0.8,7.2 0.7,6.2 0.8,4.6 0.7,3.4 0.8,4.3 0.7,4.8 0.8,5.1 0.7,5.2 0.8,5.7 0.7,5.1 0.7,5.6 0.8,4.9 0.7,4.2 0.8,4.7 0.7,3.5 0.8,4.4 0.7,4 0.8,4.4 0.7,4.7 0.8,6.2 0.7,6.9 0.8,6.3 0.7,6.2 0.8,6.1 0.7,4.8 0.8,4.8 0.7,4.4 0.8,4.4 0.7,4.3 0.8,4.7 0.7,4.9 0.7,5.6 0.8,6 0.7,7.6 0.8,7.3 0.7,7 0.8,5.8 0.7,5.4 0.8,4.2 0.7,3 0.8,2.2 0.7,0.9 0.8,0.1 0.7,-0.5 0.8,-0.5 0.7,0.6 0.8,0.4 0.7,1.6 0.8,2.9 0.7,3.7 0.8,4.2 0.7,5.8 0.7,6.8 0.8,6.9 0.7,6.5 0.8,6.9 0.7,6.4 0.8,6.1 0.7,5.7 0.8,4.7 0.7,3.8 0.8,2.2 0.7,1.6 0.8,1.2 0.7,0.3 0.8,0.4 0.7,-0.3 0.8,0.6 0.7,0.7 0.8,0.4 0.7,1.5 0.8,2.2 0.7,2.4 0.7,3.1 0.8,3 0.7,3 0.8,3.4 0.7,2.7 0.8,3.3 0.7,1.4 0.8,2.4 0.7,1.6 0.8,0.7 0.7,0.6 0.8,0.2 0.7,0.1 0.8,1 0.7,1.7 0.8,2 0.7,1.7 0.8,2.7 0.7,2.9 0.8,3 0.7,2.9 0.7,3.1 0.8,2.9 0.7,3.4 0.8,2 0.7,2.7 0.8,3.1 0.7,2.6 0.8,2.6 0.7,2.6 0.8,1.7 0.7,0.6 0.8,0.4 0.7,0.4 0.8,-0.7 0.7,-0.7 0.8,-0.6 0.7,-1.3 0.8,-1 0.7,-0.7 0.7,-0.1 0.8,0 0.7,-0.3 0.8,0.8 0.7,0.9 0.8,1.3 0.7,1.6 0.8,1.7 0.7,2.1 0.8,1.9 0.7,1.7 0.8,1.6 0.7,0.8 0.8,0.1 0.7,0 0.8,-0.5 0.7,-0.8 0.8,-1 0.7,-0.3 0.8,0.8 0.7,0 0.7,1.1 0.8,1.2 0.7,2.3 0.8,2.4 0.7,2.4 0.8,2 0.7,2.2 0.8,2.2 0.7,2.3 0.8,2.2 0.7,1.7 0.8,1.8 0.7,1 0.8,1.5 0.7,1.1 0.8,0 0.7,0.3 0.8,0 0.7,-0.2 0.8,-0.4 0.7,0.2 0.7,0.2 0.8,0.3 0.7,-0.1 0.8,0.1 0.7,0.1 0.8,0 0.7,-0.2 0.8,-0.4 0.7,-1.3 0.8,-1.5 0.7,-1.4 0.8,-1.1 0.7,-0.8 0.8,-0.5 0.7,-0.3 0.8,0.6 0.7,0.7 0.8,1.8 0.7,1.8 0.8,2.4 0.7,1.9 0.7,2.1 0.8,1.2 0.7,1.4 0.8,0.2 0.7,0.7 0.8,0 0.7,-0.1 0.8,-0.1 0.7,0.1 0.8,0.5 0.7,0.5 0.8,0.9 0.7,1.8 0.8,1.5 0.7,2.4 0.8,1.8 0.7,2.5 0.8,2.3 0.7,2.7 0.8,1.9 0.7,2.5 0.7,1.8 0.8,1.6 0.7,1.1 0.8,0.5 0.7,0.6 0.8,-0.2 0.7,-0.1 0.8,-1.1 0.7,-1.7 0.8,-1.5 0.7,-1.5 0.8,-1.8 0.7,-1.8 0.8,-1.8 0.7,-1.1 0.8,-1.1 0.7,-0.6 0.8,0.1 0.7,0.4 0.7,0.7 0.8,1.3 0.7,1 0.8,0.8 0.7,0.6 0.8,0.9 0.7,0 0.8,-0.2 0.7,-0.3 0.8,0.1 0.7,0 0.8,0.6 0.7,0.4 0.8,1.6 0.7,1.4 0.8,1.6 0.7,1.6 0.8,1.1 0.7,0.4 0.8,0 0.7,0 0.7,-0.7 0.8,-1 0.7,-0.3 0.8,-0.3 0.7,-0.3 0.8,-0.1 0.7,0.8 0.8,0.6 0.7,0.6 0.8,0.2 0.7,0.4 0.8,-0.2 0.7,-0.1 0.8,-0.3 0.7,0.1 0.8,0.2 0.7,0.5 0.8,0.9 0.7,1.3 0.8,1.2 0.7,1.4 0.7,1.3 0.8,1.4 0.7,0.2 0.8,-0.4 0.7,-0.6 0.8,-1.1 0.7,-1.7 0.8,-1.3 0.7,-1.7 0.8,-1.5 0.7,-1.4 0.8,-1.4 0.7,-0.7 0.8,-0.3 0.7,-0.4 0.8,-0.4 0.7,-0.3 0.8,0.1 0.7,-0.1 0.8,0.3 0.7,0.9 0.7,0.5 0.8,0.9 0.7,1.2 0.8,1.1 0.7,1.7 0.8,1.5 0.7,1.4 0.8,1.3 0.7,0.8 0.8,1 0.7,1.3 0.8,0.9 0.7,0.4 0.8,-0.2 0.7,-0.1 0.8,-0.2 0.7,-0.3 0.8,-0.4 0.7,-0.9 0.8,-0.9 0.7,-0.4 0.7,-0.5 0.8,0.1 0.7,0.3 0.8,1.1 0.7,0.5 0.8,1 0.7,0.9 0.8,0.8 0.7,0.7 0.8,0.5 0.7,-0.2 0.8,-0.2 0.7,-0.4 0.8,-0.5 0.7,-0.1 0.8,0 0.7,-0.4 0.8,-0.1 0.7,0.5 0.7,0.3 0.8,0.3 0.7,0.4 0.8,-0.3 0.7,-0.6 0.8,-0.1 0.7,-0.4 0.8,-0.6 0.7,-0.6 0.8,-0.6 0.7,-1 0.8,-0.4 0.7,-0.3 0.8,-0.2 0.7,0.5 0.8,0.6 0.7,0.3 0.8,0.5 0.7,0.8 0.8,0.5 0.7,0.5 0.7,0.9 0.8,-0.4 0.7,-0.5 0.8,-0.5 0.7,-0.5 0.8,-0.5 0.7,-0.2 0.8,-0.2 0.7,0.1 0.8,-0.1 0.7,0 0.8,0 0.7,0.3 0.8,0.4 0.7,0 0.8,0.4 0.7,0.2 0.8,-0.4 0.7,0.8 0.8,0.4 0.7,0 0.7,-0.1 0.8,-0.3 0.7,-0.4 0.8,-0.8 0.7,-0.5 0.8,-0.4 0.7,-0.3 0.8,-0.1 0.7,0.4 0.8,0.7 0.7,0.9 0.8,0.9 0.7,1 0.8,0.9 0.7,0 0.8,0 0.7,0.1 0.8,0 0.7,-0.5 0.8,-0.4 0.7,-0.3 0.7,-0.4 0.8,-0.3 0.7,-0.1 0.8,-0.6 0.7,-1.4 0.8,-1.3 0.7,-1.3 0.8,-1.5 0.7,-1.5 0.8,-1.6 0.7,-0.5 0.8,-0.1 0.7,0.1 0.8,1.2 0.7,1.9 0.8,2.1 0.7,2.4 0.8,2.1 0.7,1.9 0.8,1.4 0.7,1.3 0.7,1 0.8,0.2 0.7,0.2 0.8,-0.3 0.7,0 0.8,0.3 0.7,-0.2 0.8,-0.6 0.7,-0.1 0.8,-0.5 0.7,-0.6 0.8,-0.6 0.7,-0.7 0.8,-0.3 0.7,0.1 0.8,-0.1 0.7,0.2 0.8,0.2 0.7,0.1 0.7,0.1 0.8,0.1 0.7,-0.9 0.8,-0.9 0.7,-1.1 0.8,-0.7 0.7,-0.9 0.8,-0.4 0.7,0.3 0.8,0.4 0.7,0.8 0.8,0.8 0.7,0.4 0.8,0.9 0.7,0.5 0.8,0 0.7,-0.4 0.8,-0.8 0.7,-0.7 0.8,-0.5 0.7,-0.7 0.7,0 0.8,0.1 0.7,0.4 0.8,0.7 0.7,0.5 0.8,1.2 0.7,0.3 0.8,0.3 0.7,0.4 0.8,-0.2 0.7,-0.5 0.8,-0.8 0.7,-0.5 0.8,-0.9 0.7,-1 0.8,-0.9 0.7,-0.6 0.8,-0.2 0.7,-0.4 0.8,-0.5 0.7,-0.1 0.7,0.1 0.8,-0.1 0.7,0.2 0.8,0.1 0.7,-0.2 0.8,0.1 0.7,0.2 0.8,-0.2 0.7,0.1 0.8,0.4 0.7,0.8 0.8,0.6 0.7,0.9 0.8,0.8 0.7,1.1 0.8,1.1 0.7,0.6 0.8,0.7 0.7,0.5 0.8,0.1 0.7,-0.3 0.7,-0.3 0.8,-0.8 0.7,-0.5 0.8,-0.8 0.7,-1.2 0.8,-0.6 0.7,-0.5 0.8,-0.2 0.7,-0.1 0.8,0.5 0.7,0.9 0.8,1.3 0.7,1.1 0.8,1.5 0.7,1.4 0.8,0.9 0.7,0.5 0.8,0.1 0.7,-0.2 0.8,-0.9 0.7,-0.7 0.7,-1.2 0.8,-1.1 0.7,-1.2 0.8,-0.5 0.7,-0.5 0.8,0 0.7,0.3 0.8,0.8 0.7,0.9 0.8,0.9 0.7,1.1 0.8,1.7 0.7,1.1 0.8,0.9 0.7,0.5 0.8,0.2 0.7,0.1 0.8,-0.4 0.7,-0.7 0.7,-0.4 0.8,-0.5 0.7,-0.4 0.8,-0.2 0.7,0 0.8,0.4 0.7,0.6 0.8,0.3 0.7,0.2 0.8,-0.1 0.7,-0.5 0.8,-0.2 0.7,-0.6 0.8,-0.6 0.7,-0.7 0.8,-0.6 0.7,-0.5 0.8,-0.3 0.7,-0.3 0.8,0.2 0.7,0 0.7,-0.2 0.8,-0.3 0.7,-0.1 0.8,0.2 0.7,-0.3 0.8,0 0.7,-0.2 0.8,-0.4 0.7,0.1 0.8,-0.1 0.7,-0.2 0.8,0.3 0.7,0.2 0.8,0.3 0.7,0.2 0.8,-0.2 0.7,0 0.8,-0.3 0.7,-0.4 0.8,-1.1 0.7,-0.9 0.7,-0.6 0.8,-0.6 0.7,0.2 0.8,0.3 0.7,0.6 0.8,1.2 0.7,1.4 0.8,1 0.7,1.1 0.8,0.5 0.7,0.6 0.8,0.2 0.7,-0.4 0.8,-0.1 0.7,-0.7 0.8,-0.1 0.7,-0.3 0.8,0 0.7,-0.1 0.8,-0.7 0.7,-0.5 0.7,-0.5 0.8,-0.4 0.7,-0.3 0.8,-0.2 0.7,0.2 0.8,0.4 0.7,1 0.8,1.5 0.7,1.7 0.8,1.6 0.7,1.8 0.8,1.3 0.7,0.8 0.8,0.3 0.7,-0.1 0.8,-0.6 0.7,-1.1 0.8,-1.2 0.7,-1.4 0.8,-1.4 0.7,-1.1 0.7,-0.8 0.8,-0.4 0.7,0 0.8,0.6 0.7,0.9 0.8,1.1 0.7,1 0.8,1 0.7,1 0.8,0.6 0.7,0.5 0.8,0.3 0.7,-0.1 0.8,-0.3 0.7,-0.3 0.8,-0.1 0.7,0.2 0.8,-0.3 0.7,0.2 0.8,-0.2 0.7,-0.4 0.7,-0.2 0.8,-0.8 0.7,-1 0.8,-1 0.7,-1.1 0.8,-0.8 0.7,-1.1 0.8,-1 0.7,-0.7 0.8,-0.2 0.7,0 0.8,-0.3 0.7,-0.3 0.8,0.2 0.7,0.2 0.8,0.2 0.7,0.4 0.8,0.3 0.7,0.9 0.7,0.4 0.8,0.6 0.7,0.5 0.8,0.2 0.7,0.6 0.8,0.5 0.7,0.4 0.8,0.2 0.7,0.5 0.8,0.9 0.7,0.9 0.8,0.6 0.7,0.2 0.8,0.5 0.7,-0.2 0.8,-0.1 0.7,-1 0.8,-0.7 0.7,-1 0.8,-0.9 0.7,-0.6 0.7,-0.1 0.8,0.2 0.7,0.8 0.8,1.1 0.7,1 0.8,1 0.7,0.5 0.8,0.5 0.7,0.1 0.8,-0.5 0.7,-0.7 0.8,-1.2 0.7,-1.2 0.8,-1.4 0.7,-1 0.8,-0.6 0.7,0.1 0.8,-0.3 0.7,0.5 0.8,0.4 0.7,0.7 0.7,0.7 0.8,0.8 0.7,0.9 0.8,0.3 0.7,0.1 0.8,0.2 0.7,0.2 0.8,0.2 0.7,0.3 0.8,0.1 0.7,-0.1 0.8,0.2 0.7,0 0.8,-0.1 0.7,-0.2 0.8,-0.2 0.7,0.1 0.8,-0.4 0.7,-0.1 0.8,0 0.7,0 0.7,-0.2 0.8,0 0.7,-0.1 0.8,0.1 0.7,0 0.8,0.3 0.7,-0.1 0.8,-0.1 0.7,-0.1 0.8,0.1 0.7,-0.3 0.8,-0.3 0.7,-1 0.8,-0.7 0.7,-0.9 0.8,-0.8 0.7,-0.5 0.8,-0.3 0.7,-0.2 0.8,0.1 0.7,0.4 0.7,0.6 0.8,0.4 0.7,0.8 0.8,0.6 0.7,0.4 0.8,0.2 0.7,0.3 0.8,-0.4 0.7,0 0.8,-0.5 0.7,-0.3 0.8,-0.2 0.7,-0.1 0.8,0.3 0.7,0.3 0.8,0.5 0.7,1.1 0.8,1.4 0.7,1.4 0.7,1.5 0.8,1.4 0.7,1.4 0.8,1.2 0.7,0.9 0.8,1 0.7,0.3 0.8,0.3 0.7,-0.1 0.8,-0.1 0.7,-0.3 0.8,-0.7 0.7,-1 0.8,-1 0.7,-1.2 0.8,-1.6 0.7,-1.1 0.8,-1.5 0.7,-1.1 0.8,-0.9 0.7,-0.6 0.7,-0.4 0.8,-0.1 0.7,0.2 0.8,0 0.7,0.1 0.8,-0.2 0.7,-0.3 0.8,-0.3 0.7,-0.1 0.8,-0.4 0.7,-0.5 0.8,0 0.7,0 0.8,0.4 0.7,0.4 0.8,0.2 0.7,-0.1 0.8,-0.1 0.7,-0.3 0.8,-1 0.7,-1 0.7,-1 0.8,-0.6 0.7,-0.3 0.8,-0.3 0.7,0.4 0.8,1 0.7,1.4 0.8,1.5 0.7,1.3 0.8,1.4 0.7,1.3 0.8,0.9 0.7,0.6 0.8,0.2 0.7,-0.4 0.8,0 0.7,-0.2 0.8,-0.4 0.7,-0.4 0.8,-0.6 0.7,-0.2 0.7,0 0.8,0.2 0.7,0.5 0.8,0.9 0.7,1.1 0.8,1.1 0.7,1 0.8,1.3 0.7,1.1 0.8,0.4 0.7,0.1 0.8,-0.7 0.7,-1.2 0.8,-1.5 0.7,-1.6 0.8,-1.7 0.7,-1.6 0.8,-1.7 0.7,-1.5 0.8,-0.8 0.7,-0.7 0.7,-0.5 0.8,-0.2 0.7,0.1 0.8,-0.3 0.7,-0.2 0.8,0.2 0.7,0.1 0.8,0.5 0.7,0.2 0.8,0.6 0.7,0.6 0.8,0.8 0.7,1 0.8,1.1 0.7,1.3 0.8,1.1 0.7,1.2 0.8,1.1 0.7,1 0.7,1 0.8,0.6 0.7,0.4 0.8,-0.2 0.7,-0.1 0.8,-0.5 0.7,-0.6 0.8,-1 0.7,-1 0.8,-1 0.7,-1 0.8,-0.5 0.7,-0.4 0.8,-0.1 0.7,-0.1 0.8,0.3 0.7,0 0.8,0.1 0.7,0.2 0.8,-0.4 0.7,-0.4 0.7,-1.2 0.8,-1 0.7,-1 0.8,-1 0.7,-0.9 0.8,-0.8 0.7,-0.6 0.8,-0.3 0.7,-0.1 0.8,0.1 0.7,0.4 0.8,0.3 0.7,0.3 0.8,0.5 0.7,0.6 0.8,0.3 0.7,0.5 0.8,0.6 0.7,0.1 0.8,0.5 0.7,0.5 0.7,0.4 0.8,0.3 0.7,0.7 0.8,0.4 0.7,0.5 0.8,0.7 0.7,0.6 0.8,0.3 0.7,0.1 0.8,-0.4 0.7,-0.5 0.8,-0.2 0.7,-0.5 0.8,-0.4 0.7,-0.1 0.8,-0.3 0.7,0.3 0.8,0.9 0.7,1 0.8,0.8 0.7,0.7 0.7,0.7 0.8,0.3 0.7,0 0.8,-0.1 0.7,-0.3 0.8,-0.4 0.7,-0.6 0.8,-0.7 0.7,-0.7 0.8,-0.5 0.7,-0.3 0.8,-0.6 0.7,-0.7 0.8,-0.8 0.7,-0.6 0.8,-0.4 0.7,-0.4 0.8,-0.3 0.7,-0.1 0.8,0.4 0.7,0.8 0.7,0.6 0.8,0.8 0.7,1.3 0.8,1.1 0.7,0.7 0.8,0.4 0.7,-0.3 0.8,0 0.7,-0.6 0.8,-0.6 0.7,-0.5 0.8,-0.6 0.7,-0.5 0.8,-0.5 0.7,-0.3 0.8,-0.4 0.7,-0.5 0.8,-0.7 0.7,-0.8 0.7,-1.7 0.8,-1.8 0.7,-1.5 0.8,-1.6 0.7,-1 0.8,-0.6 0.7,0 0.8,0.6 0.7,0.9 0.8,1.7 0.7,1.9 0.8,2.2 0.7,1.8 0.8,1.9 0.7,1.2 0.8,1 0.7,0.6 0.80001,0.6 0.7,0.6 0.8,0.3 0.7,0.3 0.7,0.5 0.8,0.3 0.7,0.5 0.8,0.6 0.7,0.7 0.8,0.3 0.7,0.6"
     id="path4700"
     inkscape:connector-curvature="0" />
  <path
     style="fill:none;stroke:#000000;stroke-width:2.49999996;stroke-miterlimit:4;stroke-dasharray:7.49999989,7.49999989;stroke-dashoffset:0"
     d="m 235.85819,1698.1839 3.7,7.1 3.8,7.5 3.7,7.2 3.7,6.2 3.8,5.6 3.7,5.9 3.8,4.8 3.7,3.7 3.7,3.4 3.8,3.2 3.7,3.5 3.8,4.7 3.7,4.2 3.7,5.6 3.8,6.9 3.7,6.7 3.7,8.7 3.8,8.3 3.7,7.9 3.8,8.1 3.7,7.9 3.7,6.4 3.8,5 3.7,4.7 3.7,4.7 3.8,4.9 3.7,2.4 3.8,3 3.7,3.4 3.7,4.3 3.8,3.9 3.7,3.9 3.7,5.4 3.8,6.1 3.7,6.4 3.8,6.1 3.7,6 3.7,5.6 3.8,5.3 3.7,4.5 3.8,3.4 3.7,3.4 3.7,1.7 3.8,1.1 3.7,0.9 3.7,-0.4 3.8,0.5 3.7,0.7 3.8,1 3.7,0.9 3.7,0.8 3.8,2.1 3.7,2.2 3.7,2.8 3.8,3.4 3.7,4.1 3.8,3.9 3.7,4.2 3.7,4.8 3.8,5.2 3.7,5.2 3.7,3.5 3.8,4.1 3.7,3.5 3.8,2.4 3.7,1.9 3.7,1.5 3.8,2 3.7,1.5 3.7,1.9 3.8,2.3 3.7,3.3 3.8,3.4 3.7,3.2 3.7,3.5 3.8,1.9 3.7,2.1 3.8,0.9 3.7,0.8 3.7,0 3.8,-0.6 3.7,0.5 3.7,-0.4 3.8,0.3 3.7,0.8 3.8,2 3.7,2.4 3.7,2.6 3.8,2.7 3.7,3 3.7,4.1 3.8,3.1 3.7,4 3.8,3.9 3.7,3.5 3.7,2.3 3.8,2.3 3.7,2.4 3.7,1.5 3.8,2.3 3.7,0.8 3.8,0.6 3.7,0.4 3.7,0.7 3.8,-0.4 3.7,-0.5 3.7,-0.7 3.8,-1 3.7,-0.9 3.8,-1.1 3.7,-0.2 3.7,0.9 3.8,1.6 3.7,1.6 3.8,2.2 3.7,1.8 3.7,1.3 3.8,1.7 3.7,0.1 3.7,-0.8 3.8,-1.4 3.7,-1.4 3.8,-2.3 3.7,-1.8 3.7,-2.2 3.8,-0.5 3.7,-0.1 3.7,-0.2 3.8,0.2 3.7,0.1 3.8,0.8 3.7,-0.5 3.7,0.3 3.8,-0.9 3.7,-1.4 3.7,-1.2 3.8,-1.1 3.7,-1.5 3.8,-1.4 3.7,0.7 3.7,0.6 3.8,2 3.7,1.8 3.8,2.5 3.7,2.4 3.7,2.6 3.8,2.2 3.7,0.8 3.7,1.3 3.8,0.3 3.7,0.7 3.8,0.3 3.7,-0.1 3.7,0.9 3.8,1.5 3.7,1.6 3.7,-0.2 3.8,0.2 3.7,-0.4 3.8,-0.4 3.7,-0.9 3.7,-1.7 3.8,-1.8 3.7,-2 3.7,-1.1 3.8,-1.7 3.7,-1.1 3.8,-1 3.7,-2 3.7,-1.3 3.8,-2.4 3.7,-2.9 3.7,-2.6 3.8,-2.2 3.7,-2.7 3.8,-2.1 3.7,-1.7 3.7,-1.1 3.8,0.6 3.7,0.9 3.8,2 3.7,2.3 3.7,2.9 3.8,3.8 3.7,3.5 3.7,3.6 3.8,3 3.7,2.1 3.8,2.1 3.7,1.7 3.7,1.1 3.8,0.8 3.7,0.3 3.7,0.5 3.8,0.7 3.7,0.7 3.80001,0.8 3.7,1.5 3.7,1.6"
     id="path4698"
     inkscape:connector-curvature="0" />
  <text
     style="font-size:37.90000153px;font-family:Arial;text-anchor:start;fill:#0000ff;"
     id="text66"
     font-size="37.9"
     y="2290.8469"
     x="1002.5875">0</text>
  <text
     style="font-size:37.90000153px;font-family:Arial;text-anchor:start;fill:#0000ff;"
     id="text68"
     font-size="37.9"
     y="2216.0471"
     x="1002.5875">0.1</text>
  <text
     style="font-size:37.90000153px;font-family:Arial;text-anchor:start;fill:#0000ff;"
     id="text70"
     font-size="37.9"
     y="2141.3469"
     x="1002.5875">0.2</text>
  <text
     style="font-size:37.90000153px;font-family:Arial;text-anchor:start;fill:#0000ff;"
     id="text72-9"
     font-size="37.9"
     y="2066.5471"
     x="1002.5875">0.3</text>
  <text
     style="font-size:37.90000153px;font-family:Arial;text-anchor:start;fill:#0000ff;"
     id="text74"
     font-size="37.9"
     y="1991.8469"
     x="1002.5875">0.4</text>
  <text
     style="font-size:37.90000153px;font-family:Arial;text-anchor:start;fill:#0000ff;"
     id="text76"
     font-size="37.9"
     y="1917.047"
     x="1002.5875">0.5</text>
  <text
     style="font-size:37.90000153px;font-family:Arial;text-anchor:start;fill:#0000ff;"
     id="text78-2"
     font-size="37.9"
     y="1842.347"
     x="1002.5875">0.6</text>
  <text
     style="font-size:37.90000153px;font-family:Arial;text-anchor:start;fill:#0000ff;"
     id="text80"
     font-size="37.9"
     y="1767.547"
     x="1002.5875">0.7</text>
  <text
     style="font-size:37.90000153px;font-family:Arial;text-anchor:start;fill:#0000ff;"
     id="text82"
     font-size="37.9"
     y="1692.7471"
     x="1002.5875">0.8</text>
  <text
     style="font-size:37.90000153px;font-family:Arial;text-anchor:start;fill:#0000ff;"
     id="text84"
     font-size="37.9"
     y="1618.047"
     x="1002.5875">0.9</text>
  <text
     style="font-size:37.90000153px;font-family:Arial;text-anchor:start;fill:#0000ff;"
     id="text86"
     font-size="37.9"
     y="1543.2471"
     x="1002.5875">1</text>
  <text
     sodipodi:linespacing="100%"
     id="text4305"
     y="-1084.6178"
     x="1651.3279"
     style="color:#000000;font-style:normal;font-variant:normal;font-weight:normal;font-stretch:normal;font-size:37.5px;line-height:100%;font-family:Arial;-inkscape-font-specification:Arial;text-indent:0;text-align:start;text-decoration:none;text-decoration-line:none;letter-spacing:0px;word-spacing:0px;text-transform:none;direction:ltr;block-progression:tb;writing-mode:lr-tb;text-anchor:start;display:inline;overflow:visible;visibility:visible;fill:#0000ff;fill-opacity:1;fill-rule:nonzero;stroke:none;stroke-width:1px;stroke-linecap:butt;stroke-linejoin:miter;stroke-opacity:1;marker:none;enable-background:accumulate;"
     xml:space="preserve"
     transform="matrix(0,1,-1,0,0,0)"><tspan
       style="font-size:50px;fill:#0000ff;"
       y="-1084.6178"
       x="1651.3279"
       id="tspan4307"
       sodipodi:role="line">V1p minus-plus cosine</tspan></text>
  <text
     xml:space="preserve"
     style="color:#000000;font-style:normal;font-variant:normal;font-weight:normal;font-stretch:normal;font-size:37.5px;line-height:100%;font-family:Arial;-inkscape-font-specification:Arial;text-indent:0;text-align:start;text-decoration:none;text-decoration-line:none;letter-spacing:0px;word-spacing:0px;text-transform:none;direction:ltr;block-progression:tb;writing-mode:lr-tb;text-anchor:start;display:inline;overflow:visible;visibility:visible;fill:#008000;fill-opacity:1;fill-rule:nonzero;stroke:none;stroke-width:1px;stroke-linecap:butt;stroke-linejoin:miter;stroke-opacity:1;marker:none;enable-background:accumulate"
     x="609.44055"
     y="1663.8208"
     id="text5294"
     sodipodi:linespacing="100%"><tspan
       sodipodi:role="line"
       id="tspan5296"
       x="609.44055"
       y="1663.8208">no LIP pretrain</tspan></text>
  <text
     sodipodi:linespacing="100%"
     id="text5298"
     y="1574.4678"
     x="612.94202"
     style="color:#000000;font-style:normal;font-variant:normal;font-weight:normal;font-stretch:normal;font-size:37.5px;line-height:100%;font-family:Arial;-inkscape-font-specification:Arial;text-indent:0;text-align:start;text-decoration:none;text-decoration-line:none;letter-spacing:0px;word-spacing:0px;text-transform:none;direction:ltr;block-progression:tb;writing-mode:lr-tb;text-anchor:start;display:inline;overflow:visible;visibility:visible;fill:#0000ff;fill-opacity:1;fill-rule:nonzero;stroke:none;stroke-width:1px;stroke-linecap:butt;stroke-linejoin:miter;stroke-opacity:1;marker:none;enable-background:accumulate"
     xml:space="preserve"><tspan
       y="1574.4678"
       x="612.94202"
       id="tspan5300"
       sodipodi:role="line">Std</tspan></text>
  <path
     style="fill:none;stroke:#ff0000;stroke-width:2.49999996;stroke-miterlimit:4;stroke-dasharray:7.49999989,7.49999989;stroke-dashoffset:0"
     d="m 232.05019,1644.8475 3.7,9.8 3.7,10.4 3.8,10.1 3.7,10.3 3.7,10.7 3.8,9.9 3.7,9.9 3.8,9 3.7,9.7 3.7,6.2 3.8,4.3 3.7,2 3.8,0.8 3.7,0 3.7,-1.5 3.8,-2.2 3.7,-1.7 3.7,-1.3 3.8,-0.8 3.7,1.1 3.8,2.6 3.7,3.6 3.7,5.1 3.8,5.2 3.7,5.3 3.7,5.7 3.8,5.7 3.7,4.8 3.8,3.9 3.7,3 3.7,1.4 3.8,1.7 3.7,0.6 3.7,0.3 3.8,0.3 3.7,1.3 3.8,0.8 3.7,1.5 3.7,2.5 3.8,3.7 3.7,5.5 3.8,6 3.7,5.6 3.7,7.2 3.8,6.9 3.7,7.8 3.7,6.9 3.8,6.9 3.7,6.1 3.8,4.8 3.7,4.3 3.7,3.6 3.8,2.4 3.7,2.2 3.7,1 3.8,0.4 3.7,0.7 3.8,1.4 3.7,1.9 3.7,3.6 3.8,3.7 3.7,3.6 3.7,4.9 3.8,5.6 3.7,4.7 3.8,2.9 3.7,2.9 3.7,-0.4 3.8,-1.3 3.7,-2.1 3.7,-2.1 3.8,-2.8 3.7,-1.4 3.8,-1.3 3.7,-0.3 3.7,1.9 3.8,2.1 3.7,2.7 3.8,4.7 3.7,3 3.7,2.5 3.8,3 3.7,2.3 3.7,2.9 3.8,3.2 3.7,2.3 3.8,2.7 3.7,2.6 3.7,2.6 3.8,1.9 3.7,1 3.7,-0.1 3.8,-1.1 3.7,-1.4 3.8,-2 3.7,-2.7 3.7,-2 3.8,-1.2 3.7,-0.7 3.7,1 3.8,1.1 3.7,1.9 3.8,2.6 3.7,2.2 3.7,2.4 3.8,1.4 3.7,0.9 3.7,0.5 3.8,0 3.7,-1.1 3.8,-1.4 3.7,-1.5 3.7,-1.7 3.8,-1.3 3.7,-1.8 3.8,-1.9 3.7,-2.2 3.7,-2.1 3.8,-1.5 3.7,-1.7 3.7,-0.9 3.8,-1.5 3.7,-0.2 3.8,-0.3 3.7,0.3 3.7,1.3 3.8,2.2 3.7,2 3.7,2.9 3.8,3.5 3.7,3.4 3.8,3.5 3.7,3.4 3.7,2.6 3.8,2.7 3.7,0.9 3.7,-0.1 3.8,-1 3.7,-1 3.8,-2.2 3.7,-1.1 3.7,-0.9 3.8,-0.6 3.7,0.7 3.8,1 3.7,1.3 3.7,1.9 3.8,1.4 3.7,1.4 3.7,0 3.8,-0.1 3.7,-1.1 3.8,0 3.7,-1.1 3.7,-1.1 3.8,-0.5 3.7,0.3 3.7,-0.4 3.8,0.1 3.7,0.2 3.8,-0.8 3.7,0.1 3.7,-1.9 3.8,-2.3 3.7,-2 3.7,-3 3.8,-2.6 3.7,-3 3.8,-2.8 3.7,-2.2 3.7,-0.6 3.8,-0.5 3.7,1.1 3.7,1.4 3.8,3.2 3.7,2.7 3.8,2.9 3.7,3.3 3.7,1.6 3.8,3.6 3.7,1.7 3.8,1.3 3.7,1.7 3.7,0.4 3.8,1.5 3.7,1.3 3.7,2.1 3.8,0.3 3.7,0.9 3.8,-1 3.7,-0.3 3.7,-2.6 3.8,-1.8 3.7,-2.8 3.7,-3.4 3.8,-2.9 3.7,-4.5 3.8,-3.2 3.7,-2.7 3.7,-2.8"
     id="path5368"
     inkscape:connector-curvature="0" />
  <path
     style="fill:none;stroke:#ff0000;stroke-width:2.5;stroke-miterlimit:4;stroke-dasharray:none"
     d="m 232.05018,1593.5475 0.7,6.7 0.8,9.2 0.7,9.5 0.7,12.3 0.8,13.2 0.7,14.2 0.8,15.4 0.7,15.9 0.8,16.1 0.7,15.8 0.8,14.1 0.7,12.1 0.8,10.9 0.7,10 0.8,9.6 0.7,8.8 0.8,8 0.7,7.7 0.8,7 0.7,7.9 0.8,6.7 0.7,7.1 0.8,7.2 0.7,7.1 0.7,7.1 0.8,6.8 0.7,7.1 0.8,6.9 0.7,6.7 0.8,5.3 0.7,5.1 0.8,3.5 0.7,4.7 0.8,4 0.7,3.3 0.8,4 0.7,4.3 0.8,4.6 0.7,5.8 0.8,5.2 0.7,5.2 0.8,5.6 0.7,4.8 0.8,3.7 0.7,3.9 0.7,4 0.8,5 0.7,3.9 0.8,5 0.7,4.2 0.8,5.6 0.7,6.1 0.8,4.8 0.7,5.6 0.8,3.8 0.7,2.9 0.8,2.5 0.7,1.5 0.8,1.4 0.7,1.1 0.8,1.2 0.7,1.2 0.8,2 0.7,1.7 0.8,3.6 0.7,3.3 0.7,3.9 0.8,3.7 0.7,3.3 0.8,3.7 0.7,1.8 0.8,2.9 0.7,2.5 0.8,1.7 0.7,2.2 0.8,2 0.7,3.2 0.8,2.7 0.7,4.2 0.8,4.5 0.7,5.1 0.8,5.2 0.7,4.6 0.8,4.2 0.7,3.8 0.8,2.5 0.7,2.1 0.7,1.1 0.8,0 0.7,-0.7 0.8,-0.9 0.7,-0.4 0.8,0 0.7,0.5 0.8,2.1 0.7,2.3 0.8,3.6 0.7,3.8 0.8,4.3 0.7,4.7 0.8,4.7 0.7,3.4 0.8,3.9 0.7,2.3 0.8,2.2 0.7,1.2 0.8,1.9 0.7,1.5 0.7,1 0.8,1.2 0.7,1.1 0.8,1 0.7,0.7 0.8,0.8 0.7,0.9 0.8,0.4 0.7,0.3 0.8,0.3 0.7,1.2 0.8,0.7 0.7,1 0.8,1.2 0.7,1.6 0.8,1.1 0.7,0.4 0.8,0.2 0.7,0.5 0.7,-0.2 0.8,-0.4 0.7,0.7 0.8,-0.7 0.7,0.8 0.8,1 0.7,1.8 0.8,2.6 0.7,2.3 0.8,2.6 0.7,2.4 0.8,1.9 0.7,1.3 0.8,1 0.7,1 0.8,-0.2 0.7,-0.4 0.8,-0.2 0.7,-0.4 0.8,-0.8 0.7,0.7 0.7,0.2 0.8,0.1 0.7,0.3 0.8,0.2 0.7,0.6 0.8,0.5 0.7,0.4 0.8,0 0.7,0.2 0.8,-0.5 0.7,0.5 0.8,0.2 0.7,-0.2 0.8,0.3 0.7,0.5 0.8,0.5 0.7,1 0.8,0.7 0.7,1.8 0.8,1.4 0.7,1.6 0.7,1.6 0.8,1.8 0.7,1.7 0.8,1.6 0.7,1.3 0.8,1.7 0.7,0.6 0.8,0.7 0.7,0 0.8,0.1 0.7,0.4 0.8,0.5 0.7,-0.3 0.8,0.3 0.7,0.4 0.8,1.2 0.7,1.4 0.8,1.3 0.7,1.4 0.8,1.5 0.7,0.9 0.7,0.5 0.8,-0.3 0.7,0.1 0.8,-0.7 0.7,-0.4 0.8,-1 0.7,-0.8 0.8,-0.3 0.7,0.8 0.8,1 0.7,1.4 0.8,1.7 0.7,2.5 0.8,2.3 0.7,2.2 0.8,1.7 0.7,2.1 0.8,1.4 0.7,1.3 0.8,0.4 0.7,0.3 0.7,0.1 0.8,-0.1 0.7,-0.4 0.8,-0.2 0.7,-0.7 0.8,-0.6 0.7,-0.9 0.8,-1 0.7,-1.3 0.8,-0.7 0.7,-0.9 0.8,-0.4 0.7,-0.2 0.8,0.3 0.7,0.6 0.8,1.8 0.7,2.1 0.8,2.2 0.7,3 0.7,2.6 0.8,2 0.7,2.1 0.8,1.8 0.7,1.3 0.8,0.7 0.7,0.8 0.8,0.1 0.7,0.3 0.8,0.4 0.7,0 0.8,0.2 0.7,-0.1 0.8,-0.3 0.7,0 0.8,-0.9 0.7,-1.4 0.8,-0.9 0.7,-0.9 0.8,-1.4 0.7,-0.9 0.7,-0.7 0.8,-0.9 0.7,-1 0.8,-0.7 0.7,-0.2 0.8,-0.5 0.7,-0.3 0.8,-0.4 0.7,-0.1 0.8,-0.8 0.7,-0.2 0.8,0.4 0.7,0.6 0.8,0.3 0.7,0.3 0.8,0.9 0.7,0.3 0.8,0.6 0.7,1 0.8,0.9 0.7,0.9 0.7,0.1 0.8,0.9 0.7,0.7 0.8,0.5 0.7,0.6 0.8,0.8 0.7,0.4 0.8,0.8 0.7,0.7 0.8,0.3 0.7,0.5 0.8,0 0.7,0.1 0.8,-0.1 0.7,-0.6 0.8,-1 0.7,-1.2 0.8,-0.8 0.7,-1.1 0.8,-0.6 0.7,-0.3 0.7,0.4 0.8,0.7 0.7,0.9 0.8,1.4 0.7,1.2 0.8,1.6 0.7,1.2 0.8,1.2 0.7,1.1 0.8,0.7 0.7,0.4 0.8,0.7 0.7,0.4 0.8,-0.4 0.7,0.2 0.8,-0.6 0.7,-0.4 0.8,-0.9 0.7,-0.8 0.8,-0.7 0.7,-0.9 0.7,-0.9 0.8,-0.5 0.7,-0.4 0.8,-0.8 0.7,-0.2 0.8,-0.3 0.7,-0.3 0.8,-0.7 0.7,-0.2 0.8,-0.3 0.7,-0.3 0.8,0.4 0.7,-0.1 0.8,0.2 0.7,0.5 0.8,0.2 0.7,0.3 0.8,0.9 0.7,0.1 0.7,0.4 0.8,0.1 0.7,-0.4 0.8,-0.2 0.7,0 0.8,0.1 0.7,-0.3 0.8,0.5 0.7,0.3 0.8,0.4 0.7,1.1 0.8,0.8 0.7,0.9 0.8,0.7 0.7,0.9 0.8,-0.2 0.7,-0.1 0.8,-0.7 0.7,-0.9 0.8,-0.9 0.7,-0.6 0.7,-0.9 0.8,-0.5 0.7,-0.5 0.8,0.3 0.7,0.2 0.8,0.7 0.7,0.5 0.8,0.9 0.7,0.5 0.8,0.2 0.7,0.2 0.8,0 0.7,0.4 0.8,0.2 0.7,0.3 0.8,0.4 0.7,0.4 0.8,1.2 0.7,1 0.8,1.2 0.7,0.4 0.7,0.6 0.8,-0.1 0.7,-0.2 0.8,-1.1 0.7,-1.9 0.8,-1.2 0.7,-2 0.8,-1.3 0.7,-1.4 0.8,-0.2 0.7,0.4 0.8,0.5 0.7,1.8 0.8,1 0.7,2 0.8,1.7 0.7,1.4 0.8,0.5 0.7,0.2 0.8,-0.6 0.7,-0.5 0.7,-0.3 0.8,-1.3 0.7,-0.7 0.8,-0.9 0.7,-0.5 0.8,-0.5 0.7,-0.2 0.8,0 0.7,-0.6 0.8,0.1 0.7,-0.4 0.8,0.1 0.7,-0.3 0.8,0.1 0.7,0.3 0.8,0.3 0.7,-0.1 0.8,0.3 0.7,0.4 0.8,-0.3 0.7,0 0.7,-0.3 0.8,-0.6 0.7,-0.6 0.8,-0.5 0.7,0 0.8,-0.5 0.7,-0.1 0.8,0.1 0.7,0.6 0.8,1 0.7,0.9 0.8,1.3 0.7,1.4 0.8,1.1 0.7,1 0.8,0.5 0.7,0.5 0.8,0 0.7,-0.5 0.7,-1.2 0.8,-0.9 0.7,-1.1 0.8,-0.8 0.7,-0.8 0.8,-0.3 0.7,0.1 0.8,-0.3 0.7,-0.1 0.8,0.2 0.7,0.3 0.8,0 0.7,0.2 0.8,0.4 0.7,-0.2 0.8,0.4 0.7,1 0.8,1.4 0.7,1 0.8,0.9 0.7,0.9 0.7,0.5 0.8,0.3 0.7,-0.1 0.8,0.1 0.7,-0.6 0.8,-0.4 0.7,-0.9 0.8,-0.6 0.7,-0.7 0.8,-0.5 0.7,-0.6 0.8,-0.3 0.7,-0.8 0.8,-0.6 0.7,-0.1 0.8,-0.2 0.7,0 0.8,0.5 0.7,0.5 0.8,1.1 0.7,0.5 0.7,0.7 0.8,0.7 0.7,0.8 0.8,0.1 0.7,0 0.8,-0.4 0.7,-0.5 0.8,-0.9 0.7,-0.9 0.8,-1 0.7,-0.8 0.8,-0.4 0.7,-0.2 0.8,-0.2 0.7,0.6 0.8,0.8 0.7,1.5 0.8,1.5 0.7,1.6 0.8,1.8 0.7,2.1 0.7,1.6 0.8,1.8 0.7,1 0.8,1 0.7,1.2 0.8,0.2 0.7,0.2 0.8,-0.2 0.7,-0.7 0.8,-0.7 0.7,-1.5 0.8,-1.3 0.7,-1.3 0.8,-1.7 0.7,-1.9 0.8,-1 0.7,-1 0.8,-0.8 0.7,-0.4 0.8,0.7 0.7,0.1 0.7,0.3 0.8,0.5 0.7,-0.1 0.8,-0.2 0.7,-0.5 0.8,-1 0.7,-1.2 0.8,-1.5 0.7,-1.7 0.8,-0.8 0.7,-1.3 0.8,-1 0.7,-0.6 0.8,0.1 0.7,0.2 0.8,0.2 0.7,0.5 0.8,0.8 0.7,1.5 0.7,1.6 0.8,1.6 0.7,1.5 0.8,1.8 0.7,1.6 0.8,1.4 0.7,1.2 0.8,0.6 0.7,0.9 0.8,-0.1 0.7,-0.1 0.8,-0.8 0.7,-0.9 0.8,-0.7 0.7,-1.2 0.8,-1.3 0.7,-1.4 0.8,-1.1 0.7,-0.8 0.8,-0.4 0.7,-0.4 0.7,0.1 0.8,0.5 0.7,0.7 0.8,0.8 0.7,0.8 0.8,0.7 0.7,0.5 0.8,0.3 0.7,0.2 0.8,-0.4 0.7,0.1 0.8,-0.6 0.7,-0.5 0.8,-0.4 0.7,-0.4 0.8,0.2 0.7,0.6 0.8,0.4 0.7,0.5 0.8,1.1 0.7,0.7 0.70001,0.9 0.79999,0.8 0.70001,0.5 0.79999,0.4 0.70001,0.1 0.79999,0 0.70001,-0.3 0.79999,-0.2 0.70001,0.1 0.79999,-0.1 0.70001,0.1 0.79999,0 0.70001,-0.1 0.79999,0.5 0.70001,0.2 0.79999,0.4 0.70001,0.3 0.79999,0.1 0.70001,-0.1 0.79999,0 0.70001,-0.3 0.7,-0.5 0.8,-0.5 0.7,0 0.8,-0.1 0.7,-0.1 0.8,0.4 0.7,0.5 0.8,0.9 0.7,1 0.8,1 0.7,0.8 0.8,0 0.7,0 0.8,-0.4 0.7,-0.7 0.8,-1.2 0.7,-1.1 0.8,-1.1 0.7,-0.6 0.8,-0.8 0.7,-0.1 0.7,0.1 0.8,0.2 0.7,0.4 0.8,0.1 0.7,0.4 0.8,0.1 0.7,0.2 0.8,0.1 0.7,0.5 0.8,0.4 0.7,0.2 0.8,0.6 0.7,0.4 0.8,0.2 0.7,0.1 0.8,-0.6 0.7,-0.8 0.8,-0.9 0.7,-1.3 0.8,-1.3 0.7,-1.3 0.7,-1 0.8,-1.1 0.7,-0.4 0.8,0.2 0.7,0.4 0.8,0.7 0.7,1.5 0.8,1.1 0.7,1.7 0.8,1.2 0.7,0.8 0.8,0.7 0.7,0.1 0.8,-0.4 0.7,-0.9 0.8,-1 0.7,-1.1 0.8,-1 0.7,-0.8 0.7,-0.5 0.8,0 0.7,0.2 0.8,0.5 0.7,0.4 0.8,0.6 0.7,0.2 0.8,0.6 0.7,0.5 0.8,0.1 0.7,0.1 0.8,0.3 0.7,0.6 0.8,0 0.7,0.5 0.8,0.7 0.7,0.1 0.8,0 0.7,0.2 0.8,-0.1 0.7,0.2 0.7,-0.3 0.8,-0.2 0.7,-0.3 0.8,-0.3 0.7,-0.5 0.8,-0.4 0.7,-0.6 0.8,-1.1 0.7,-0.8 0.8,-0.7 0.7,-0.7 0.8,-0.5 0.7,-0.1 0.8,-0.1 0.7,0.1 0.8,0.3 0.7,0.1 0.8,0.7 0.7,0.1 0.8,0.3 0.7,0 0.7,0.4 0.8,-0.1 0.7,0.4 0.8,0.7 0.7,0.8 0.8,0.4 0.7,0.6 0.8,0.7 0.7,0.7 0.8,0.3 0.7,0.5 0.8,0.3 0.7,0.3 0.8,-0.3 0.7,-0.5 0.8,-0.4 0.7,-0.5 0.8,-0.7 0.7,-0.4 0.8,-1.2 0.7,-0.6 0.7,-0.5 0.8,-0.3 0.7,-0.1 0.8,0.1 0.7,0.3 0.8,0.2 0.7,-0.1 0.8,-0.1 0.7,-0.1 0.8,-0.3 0.7,-0.3 0.8,-0.5 0.7,-0.6 0.8,-0.6 0.7,-0.9 0.8,-0.3 0.7,-0.7 0.8,-0.1 0.7,0.4 0.8,0 0.7,0.5 0.7,0.9 0.8,0.9 0.7,1.1 0.8,1.5 0.7,1.1 0.8,1.2 0.7,0.5 0.8,0.7 0.7,0.3 0.8,0.1 0.7,-0.4 0.8,-0.5 0.7,-0.8 0.8,-1.5 0.7,-1.3 0.8,-1.4 0.7,-1.7 0.8,-1.6 0.7,-1 0.7,-0.7 0.8,-0.7 0.7,-0.1 0.8,0.9 0.7,0.9 0.8,1.1 0.7,1.6 0.8,1.6 0.7,1.7 0.8,1.4 0.7,1.4 0.8,1.3 0.7,1 0.8,1 0.7,0.7 0.8,0.4 0.7,0.2 0.8,-0.1 0.7,-0.1 0.8,-0.2 0.7,-1.1 0.7,-0.4 0.8,-0.9 0.7,-0.9 0.8,-1.2 0.7,-1.5 0.8,-1.1 0.7,-1.2 0.8,-1.3 0.7,-0.9 0.8,-0.8 0.7,-0.2 0.8,0.1 0.7,0.7 0.8,1.2 0.7,1.5 0.8,1.6 0.7,1.8 0.8,1.3 0.7,1.1 0.8,0.6 0.7,0.4 0.7,-0.6 0.8,-1.3 0.7,-1.2 0.8,-1.1 0.7,-1.5 0.8,-1 0.7,-0.9 0.8,-0.3 0.7,0 0.8,0.5 0.7,0.9 0.8,1.3 0.7,1.2 0.8,1.3 0.7,1.2 0.8,1.3 0.7,0.3 0.8,0.7 0.7,-0.3 0.8,-0.6 0.7,-1.2 0.7,-1.7 0.8,-1.5 0.7,-1.6 0.8,-1.5 0.7,-0.8 0.8,-0.8 0.7,-0.3 0.8,0.6 0.7,0.4 0.8,0.8 0.7,0.9 0.8,0.5 0.7,0.8 0.8,0.3 0.7,0.3 0.8,0.2 0.7,0.4 0.8,0.7 0.7,0 0.8,0.5 0.7,0.4 0.7,0.2 0.8,0.2 0.7,0 0.8,-0.3 0.7,0 0.8,-0.4 0.7,-0.1 0.8,0.2 0.7,0.2 0.8,0.3 0.7,0.4 0.8,0.4 0.7,0.6 0.8,0.6 0.7,0.6 0.8,0.3 0.7,0.7 0.8,0.6 0.7,0.7 0.7,0.7 0.8,0.5 0.7,0.5 0.8,0.2 0.7,-0.2 0.8,-0.5 0.7,-0.9 0.8,-1.2 0.7,-1.6 0.8,-1.4 0.7,-1.5 0.8,-1.1 0.7,-0.4 0.8,-0.2 0.7,0.3 0.8,0.7 0.7,1 0.8,1.2 0.7,1.4 0.8,1 0.7,0.8 0.7,0.5 0.8,0.2 0.7,-0.7 0.8,-0.5 0.7,-0.6 0.8,-1.5 0.7,-1 0.8,-1.3 0.7,-1.3 0.8,-0.7 0.7,-1.3 0.8,-0.8 0.7,-0.2 0.8,-1.1 0.7,-0.7 0.8,-0.7 0.7,-0.5 0.8,-0.4 0.7,-0.3 0.8,0.4 0.7,0.4 0.7,0.8 0.8,1.4 0.7,1.1 0.8,1.7 0.7,1.5 0.8,0.9 0.7,0.7 0.8,0.3 0.7,0.2 0.8,0.2 0.7,-0.5 0.8,-0.8 0.7,-0.4 0.8,-0.2 0.7,0.2 0.8,0.3 0.7,0.3 0.8,0.7 0.7,0.6 0.8,0.9 0.7,0.4 0.7,0.2 0.8,0.3 0.7,-0.1 0.8,-1 0.7,-1.1 0.8,-0.8 0.7,-0.9 0.8,-0.7 0.7,-0.5 0.8,-0.6 0.7,0.1 0.8,0.3 0.7,0.6 0.8,0.4 0.7,0.5 0.8,0.3 0.7,0.5 0.8,-0.2 0.7,-0.1 0.8,0.2 0.7,0.1 0.7,-0.3 0.8,0.1 0.7,0.2 0.8,0.3 0.7,0.3 0.8,0.5 0.7,0.3 0.8,0.3 0.7,0.2 0.8,0.2 0.7,0.5 0.8,0 0.7,0.1 0.8,0.4 0.7,-0.2 0.8,-0.3 0.7,-0.6 0.8,-0.1 0.7,-1 0.7,-1 0.8,-1.3 0.7,-1 0.8,-0.9 0.7,-0.7 0.8,0.1 0.7,0.5 0.8,0.7 0.7,0.9 0.8,1.2 0.7,0.9 0.8,0.5 0.7,0.4 0.8,-0.4 0.7,-0.6 0.8,-1.6 0.7,-1.2 0.8,-1.4 0.7,-0.8 0.8,-0.9 0.7,-0.3 0.7,0 0.8,0.2 0.7,0.3 0.8,0.8 0.7,0.4 0.8,0.5 0.7,0.6"
     id="path82"
     inkscape:connector-curvature="0" />
  <path
     style="fill:none;stroke:#0000ff;stroke-width:2.5;stroke-miterlimit:4;stroke-dasharray:none"
     d="m 232.75018,2110.0475 0.8,-16.1 0.7,-17.9 0.7,-19.7 0.8,-21.3 0.7,-22.9 0.8,-23.5 0.7,-23.7 0.8,-23.1 0.7,-24.2 0.8,-21.9 0.7,-18.9 0.8,-16.8 0.7,-15 0.8,-13.4 0.7,-12.6 0.8,-11.8 0.7,-11.3 0.8,-11.2 0.7,-10.7 0.8,-10.4 0.7,-10.1 0.8,-9.1 0.7,-8.2 0.7,-7.1 0.8,-5.9 0.7,-5.1 0.8,-3.7 0.7,-3.3 0.8,-2.4 0.7,-2.2 0.8,-2 0.7,-1.9 0.8,-1.8 0.7,-2.1 0.8,-2.2 0.7,-2.2 0.8,-2.2 0.7,-1.6 0.8,-1.9 0.7,-2 0.8,-1.9 0.7,-1.8 0.8,-1.7 0.7,-2.1 0.7,-2 0.8,-2.1 0.7,-2 0.8,-1.8 0.7,-1.6 0.8,-1.5 0.7,-1.1 0.8,-0.5 0.7,-0.6 0.8,-0.2 0.7,-0.3 0.8,0.2 0.7,0.1 0.8,-0.1 0.7,0.2 0.8,-0.1 0.7,-0.1 0.8,0 0.7,-0.2 0.8,-0.2 0.7,-0.7 0.7,-0.6 0.8,-0.7 0.7,-1.1 0.8,-1.2 0.7,-1 0.8,-1.7 0.7,-1.3 0.8,-1.4 0.7,-1.2 0.8,-1.2 0.7,-1.2 0.8,-1.1 0.7,-1.3 0.8,-1.4 0.7,-1.5 0.8,-1.7 0.7,-1.8 0.8,-2.2 0.7,-1.9 0.8,-1.9 0.7,-1.8 0.7,-1.8 0.8,-1 0.7,-1.1 0.8,-0.9 0.7,-0.4 0.8,-0.4 0.7,-0.1 0.8,0 0.7,0.2 0.8,0.1 0.7,0.2 0.8,0.5 0.7,0.5 0.8,0.8 0.7,0.3 0.8,0.7 0.7,0.9 0.8,0.7 0.7,0.9 0.8,0.5 0.7,0.6 0.7,0.4 0.8,0.1 0.7,-0.1 0.8,-0.4 0.7,-0.8 0.8,-0.8 0.7,-0.8 0.8,-1.3 0.7,-0.8 0.8,-0.8 0.7,-0.5 0.8,-0.1 0.7,0 0.8,0 0.7,0 0.8,0.2 0.7,0 0.8,-0.1 0.7,-0.3 0.7,-0.5 0.8,-0.5 0.7,-0.3 0.8,-0.5 0.7,-0.5 0.8,-0.1 0.7,-0.2 0.8,0.2 0.7,0.1 0.8,0.1 0.7,0.3 0.8,0.5 0.7,0.5 0.8,0.5 0.7,0.5 0.8,0.6 0.7,0.6 0.8,0.4 0.7,0.4 0.8,0 0.7,0.3 0.7,0.1 0.8,0 0.7,0.1 0.8,0.3 0.7,0.1 0.8,0.2 0.7,0.1 0.8,0.3 0.7,0.1 0.8,0 0.7,0 0.8,-0.1 0.7,-0.3 0.8,-0.5 0.7,-0.8 0.8,-0.5 0.7,-0.9 0.8,-0.7 0.7,-0.6 0.8,-1 0.7,-1.1 0.7,-0.6 0.8,-0.6 0.7,-0.6 0.8,-0.8 0.7,-0.4 0.8,-0.5 0.7,-0.3 0.8,-0.2 0.7,0.2 0.8,0.7 0.7,0.9 0.8,0.9 0.7,1.3 0.8,1.1 0.7,1 0.8,0.8 0.7,0.8 0.8,-0.1 0.7,-0.3 0.8,-0.4 0.7,-0.8 0.7,-0.9 0.8,-1.1 0.7,-1.6 0.8,-1.7 0.7,-2.1 0.8,-2.7 0.7,-3.2 0.8,-3.5 0.7,-3.9 0.8,-3.9 0.7,-3.8 0.8,-3.6 0.7,-3.3 0.8,-2.5 0.7,-2.2 0.8,-1.7 0.7,-1.2 0.8,-1 0.7,-0.8 0.8,-0.7 0.7,-0.7 0.7,-0.6 0.8,-0.5 0.7,-0.2 0.8,-0.3 0.7,0.1 0.8,0.1 0.7,0.3 0.8,0.4 0.7,0.7 0.8,0.5 0.7,0.3 0.8,0.3 0.7,0.2 0.8,0.3 0.7,0.2 0.8,0.2 0.7,0.3 0.8,0.4 0.7,0.4 0.7,0.3 0.8,0.2 0.7,0.3 0.8,0.2 0.7,0 0.8,0 0.7,-0.5 0.8,-0.2 0.7,-0.1 0.8,-0.3 0.7,-0.1 0.8,-0.1 0.7,-0.1 0.8,0.1 0.7,0.1 0.8,0.1 0.7,0.1 0.8,-0.1 0.7,0.1 0.8,-0.4 0.7,-0.4 0.7,-0.4 0.8,-0.6 0.7,-0.5 0.8,-0.7 0.7,-0.6 0.8,-0.2 0.7,-0.1 0.8,0.1 0.7,0.5 0.8,0.5 0.7,0.6 0.8,0.7 0.7,0.6 0.8,0.7 0.7,0.2 0.8,0.5 0.7,0.1 0.8,0.2 0.7,0.2 0.8,0.2 0.7,0.2 0.7,0.2 0.8,0.1 0.7,0.1 0.8,0.2 0.7,-0.3 0.8,0 0.7,-0.1 0.8,-0.3 0.7,0.1 0.8,0.1 0.7,0.4 0.8,0.3 0.7,0.7 0.8,0.8 0.7,0.8 0.8,0.8 0.7,0.8 0.8,0.6 0.7,0.3 0.8,0.2 0.7,-0.1 0.7,0 0.8,-0.2 0.7,-0.4 0.8,-0.2 0.7,-0.6 0.8,-0.6 0.7,-0.4 0.8,-0.5 0.7,-0.5 0.8,-0.7 0.7,-0.5 0.8,-0.6 0.7,-0.5 0.8,-0.3 0.7,0 0.8,0.2 0.7,0 0.8,0.2 0.7,0.3 0.8,0.3 0.7,0.4 0.7,0.1 0.8,-0.1 0.7,-0.2 0.8,-0.3 0.7,-0.6 0.8,-0.5 0.7,-0.5 0.8,-0.5 0.7,-0.3 0.8,-0.2 0.7,-0.3 0.8,0.1 0.7,0.3 0.8,0.2 0.7,0.4 0.8,0.5 0.7,0.5 0.8,0.8 0.7,0.5 0.7,0.6 0.8,0.5 0.7,0.4 0.8,0.4 0.7,0.2 0.8,0 0.7,-0.2 0.8,-0.1 0.7,-0.3 0.8,-0.3 0.7,-0.2 0.8,-0.2 0.7,-0.2 0.8,-0.2 0.7,0 0.8,-0.1 0.7,0.1 0.8,-0.1 0.7,0.1 0.8,0.1 0.7,-0.1 0.7,0.2 0.8,0.2 0.7,0.5 0.8,0.2 0.7,0.4 0.8,0.5 0.7,0.2 0.8,0.2 0.7,0 0.8,0.2 0.7,-0.4 0.8,-0.3 0.7,-0.4 0.8,-0.6 0.7,-0.6 0.8,-0.6 0.7,-0.7 0.8,-0.5 0.7,-0.4 0.8,-0.5 0.7,-0.3 0.7,0.1 0.8,-0.1 0.7,0.3 0.8,0.6 0.7,0.4 0.8,0.5 0.7,0.5 0.8,0.5 0.7,0.3 0.8,0.3 0.7,-0.1 0.8,0 0.7,-0.3 0.8,-0.5 0.7,-0.3 0.8,-0.3 0.7,-0.2 0.8,-0.1 0.7,0.1 0.8,0.3 0.7,0.3 0.7,0.2 0.8,0.2 0.7,0.4 0.8,0.1 0.7,0.3 0.8,0.2 0.7,0.3 0.8,0.3 0.7,0.7 0.8,0.6 0.7,0.8 0.8,0.8 0.7,0.9 0.8,0.7 0.7,0.6 0.8,0.1 0.7,0.2 0.8,0.2 0.7,-0.3 0.8,-0.3 0.7,-0.4 0.7,-0.7 0.8,-0.7 0.7,-0.8 0.8,-0.8 0.7,-0.8 0.8,-0.7 0.7,-0.7 0.8,-0.7 0.7,-0.6 0.8,-0.5 0.7,-0.2 0.8,0.1 0.7,-0.2 0.8,-0.4 0.7,-0.2 0.8,0.1 0.7,0.2 0.8,0.3 0.7,0.4 0.7,0.5 0.8,0.6 0.7,0.7 0.8,0.7 0.7,0.7 0.8,0.6 0.7,0.1 0.8,0 0.7,-0.4 0.8,-0.6 0.7,-0.3 0.8,-0.5 0.7,-0.5 0.8,-0.5 0.7,-0.4 0.8,0 0.7,0 0.8,-0.2 0.7,-0.1 0.8,-0.2 0.7,-0.4 0.7,-0.4 0.8,-0.4 0.7,-0.3 0.8,-0.6 0.7,-0.2 0.8,-0.1 0.7,-0.1 0.8,0.3 0.7,0.4 0.8,0.2 0.7,0.4 0.8,0.1 0.7,0.2 0.8,0.2 0.7,0.1 0.8,0.1 0.7,0.2 0.8,0 0.7,0.1 0.8,0.2 0.7,0.3 0.7,0.3 0.8,0.4 0.7,0.4 0.8,0.2 0.7,0.4 0.8,0.4 0.7,0.1 0.8,0.3 0.7,0 0.8,-0.2 0.7,-0.3 0.8,-0.3 0.7,-0.6 0.8,-0.4 0.7,-0.2 0.8,-0.4 0.7,-0.2 0.8,0 0.7,0.1 0.8,0.3 0.7,0.4 0.7,0.4 0.8,0.5 0.7,0.7 0.8,0.6 0.7,0.5 0.8,0.3 0.7,0.3 0.8,0 0.7,-0.2 0.8,-0.5 0.7,-0.9 0.8,-0.9 0.7,-1 0.8,-1 0.7,-0.9 0.8,-0.6 0.7,-0.4 0.8,0 0.7,0.1 0.8,0.4 0.7,0.5 0.7,0.6 0.8,0.6 0.7,0.3 0.8,0.4 0.7,0.7 0.8,0.4 0.7,0.6 0.8,0.4 0.7,0.6 0.8,0.5 0.7,0.5 0.8,0.2 0.7,0 0.8,-0.2 0.7,-0.3 0.8,-0.6 0.7,-0.6 0.8,-0.6 0.7,-0.5 0.7,-0.3 0.8,-0.2 0.7,-0.1 0.8,0.3 0.7,0.6 0.8,0.5 0.7,0.3 0.8,0.5 0.7,0.5 0.8,0.5 0.7,0.4 0.8,0.1 0.7,-0.1 0.8,-0.1 0.7,-0.2 0.8,-0.4 0.7,-0.1 0.8,-0.3 0.7,-0.2 0.8,0 0.7,-0.2 0.7,-0.1 0.8,0.2 0.7,0.1 0.8,-0.1 0.7,0 0.8,-0.2 0.7,-0.4 0.8,-0.2 0.7,-0.4 0.8,-0.3 0.7,-0.2 0.8,-0.4 0.7,-0.2 0.8,-0.1 0.7,0 0.8,-0.2 0.7,0.2 0.8,0 0.7,0 0.8,-0.2 0.7,0.1 0.70001,0 0.79999,0.2 0.70001,0 0.79999,0.1 0.70001,0.3 0.79999,0.2 0.70001,0.3 0.79999,0.3 0.70001,0 0.79999,0.1 0.70001,-0.1 0.79999,-0.3 0.70001,-0.4 0.79999,-0.4 0.70001,-0.5 0.79999,-0.5 0.70001,-0.5 0.79999,-0.6 0.70001,-0.1 0.79999,-0.2 0.70001,-0.1 0.7,-0.1 0.8,0.1 0.7,0.1 0.8,0.2 0.7,0.3 0.8,0.1 0.7,0.2 0.8,0.2 0.7,0.2 0.8,0.3 0.7,0.2 0.8,0.2 0.7,0.4 0.8,0.3 0.7,0.2 0.8,0.6 0.7,0.3 0.8,0.3 0.7,0.2 0.8,0.1 0.7,-0.1 0.7,-0.2 0.8,-0.1 0.7,-0.4 0.8,-0.5 0.7,-0.6 0.8,-0.7 0.7,-0.5 0.8,-0.5 0.7,-0.5 0.8,0 0.7,-0.2 0.8,0 0.7,0.2 0.8,0.3 0.7,0.4 0.8,0.4 0.7,0.2 0.8,0.1 0.7,-0.1 0.8,-0.1 0.7,-0.3 0.7,-0.4 0.8,-0.3 0.7,-0.3 0.8,-0.1 0.7,0 0.8,-0.2 0.7,0.3 0.8,0.1 0.7,0.4 0.8,0.3 0.7,0.2 0.8,0.3 0.7,0.2 0.8,0 0.7,0 0.8,0 0.7,0.1 0.8,0 0.7,0.3 0.7,0.3 0.8,0.3 0.7,0.4 0.8,0.7 0.7,0.4 0.8,0.4 0.7,0.3 0.8,0.2 0.7,0 0.8,-0.3 0.7,-0.3 0.8,-0.5 0.7,-0.5 0.8,-0.6 0.7,-0.5 0.8,-0.6 0.7,-0.6 0.8,-0.5 0.7,-0.6 0.8,-0.5 0.7,-0.3 0.7,-0.3 0.8,-0.2 0.7,-0.1 0.8,0.1 0.7,0.2 0.8,0.3 0.7,0.5 0.8,0.4 0.7,0.4 0.8,0.3 0.7,0.4 0.8,0.3 0.7,0.1 0.8,0.3 0.7,0 0.8,0 0.7,-0.2 0.8,-0.2 0.7,-0.4 0.8,-0.3 0.7,-0.3 0.7,-0.4 0.8,-0.4 0.7,-0.2 0.8,-0.2 0.7,0 0.8,0 0.7,-0.1 0.8,0.2 0.7,0 0.8,-0.1 0.7,0.1 0.8,0.2 0.7,0.1 0.8,0.2 0.7,0.2 0.8,0.4 0.7,-0.1 0.8,0.5 0.7,0.6 0.8,0.4 0.7,0.4 0.7,0.4 0.8,0.4 0.7,0.4 0.8,0.2 0.7,0.2 0.8,0 0.7,-0.3 0.8,-0.4 0.7,-0.3 0.8,-0.3 0.7,-0.1 0.8,-0.3 0.7,0.4 0.8,0 0.7,0.4 0.8,0.4 0.7,0.5 0.8,0.4 0.7,0 0.8,0.1 0.7,-0.2 0.7,-0.4 0.8,-0.5 0.7,-0.3 0.8,-0.6 0.7,-0.5 0.8,-0.3 0.7,-0.4 0.8,-0.1 0.7,-0.2 0.8,0 0.7,-0.1 0.8,0.1 0.7,-0.1 0.8,-0.1 0.7,-0.2 0.8,-0.3 0.7,-0.2 0.8,-0.4 0.7,-0.2 0.7,-0.5 0.8,-0.3 0.7,-0.3 0.8,-0.5 0.7,-0.2 0.8,-0.3 0.7,-0.3 0.8,-0.1 0.7,0 0.8,-0.1 0.7,0.1 0.8,0.2 0.7,0.4 0.8,0.3 0.7,0.4 0.8,0.5 0.7,0.2 0.8,0.3 0.7,0.2 0.8,0 0.7,-0.2 0.7,0 0.8,-0.2 0.7,-0.1 0.8,-0.2 0.7,0 0.8,0.2 0.7,0.1 0.8,0.3 0.7,0.3 0.8,0.3 0.7,0.3 0.8,0 0.7,0.3 0.8,0 0.7,-0.1 0.8,-0.1 0.7,0 0.8,-0.2 0.7,0.3 0.8,0.3 0.7,0.5 0.7,0.7 0.8,0.7 0.7,0.6 0.8,0.6 0.7,0.6 0.8,0.2 0.7,0 0.8,0 0.7,-0.6 0.8,-0.6 0.7,-0.8 0.8,-0.6 0.7,-0.3 0.8,-0.2 0.7,-0.2 0.8,0 0.7,0.1 0.8,0.2 0.7,0.3 0.8,0.3 0.7,-0.1 0.7,-0.2 0.8,-0.4 0.7,-0.4 0.8,-0.6 0.7,-0.5 0.8,-0.4 0.7,-0.4 0.8,-0.4 0.7,-0.3 0.8,0.2 0.7,0.3 0.8,0.3 0.7,0.4 0.8,0.4 0.7,0.2 0.8,0.3 0.7,0.3 0.8,0.2 0.7,0.3 0.8,0.2 0.7,0.3 0.7,0.3 0.8,0.3 0.7,0.2 0.8,0.4 0.7,0.1 0.8,-0.1 0.7,-0.2 0.8,-0.4 0.7,-0.3 0.8,-0.6 0.7,-0.5 0.8,-0.2 0.7,-0.3 0.8,-0.2 0.7,0 0.8,0 0.7,0.2 0.8,0.2 0.7,0.2 0.7,0 0.8,-0.3 0.7,-0.1 0.8,-0.2 0.7,-0.3 0.8,-0.3 0.7,-0.3 0.8,-0.1 0.7,-0.1 0.8,-0.2 0.7,0 0.8,0 0.7,0 0.8,-0.2 0.7,-0.2 0.8,-0.5 0.7,-0.4 0.8,-0.4 0.7,-0.3 0.8,-0.5 0.7,-0.1 0.7,0.3 0.8,0.4 0.7,0.6 0.8,0.9 0.7,1 0.8,1 0.7,0.9 0.8,0.7 0.7,0.6 0.8,0.4 0.7,0.2 0.8,-0.1 0.7,-0.2 0.8,-0.3 0.7,-0.3 0.8,0 0.7,-0.5 0.8,-0.5 0.7,-0.2 0.8,-0.4 0.7,-0.6 0.7,-0.4 0.8,-0.6 0.7,-0.4 0.8,-0.5 0.7,-0.6 0.8,-0.3 0.7,-0.1 0.8,0.2 0.7,0.2 0.8,0.5 0.7,0.4 0.8,0.5 0.7,0.5 0.8,0.4 0.7,0.3 0.8,0.2 0.7,0.2 0.8,0 0.7,0 0.8,-0.3 0.7,0 0.7,0.2 0.8,-0.2 0.7,0.2 0.8,0.1 0.7,0 0.8,0 0.7,0.4 0.8,0.1 0.7,0.2 0.8,0 0.7,-0.1 0.8,0 0.7,-0.1 0.8,-0.1 0.7,0 0.8,-0.2 0.7,-0.1 0.8,0.1 0.7,0.2 0.8,0.1 0.7,0.2 0.7,0.5 0.8,0.3 0.7,0.1 0.8,0.2 0.7,0 0.8,0.1 0.7,0 0.8,-0.2 0.7,-0.2 0.8,-0.4 0.7,-0.4 0.8,-0.1 0.7,-0.3 0.8,-0.3 0.7,-0.2 0.8,-0.2 0.7,-0.1 0.8,-0.3 0.7,-0.3 0.7,0 0.8,-0.1 0.7,-0.1 0.8,-0.2 0.7,-0.4 0.8,-0.2 0.7,-0.1 0.8,-0.1 0.7,-0.1 0.8,-0.5 0.7,-0.1 0.8,0 0.7,0 0.8,0 0.7,0 0.8,0.2 0.7,0.3 0.8,0.3 0.7,0.2 0.8,0.2 0.7,0.2 0.7,0.1 0.8,0 0.7,-0.1 0.8,-0.2 0.7,-0.2 0.8,-0.1 0.7,-0.5"
     id="path5380"
     inkscape:connector-curvature="0" />
  <path
     style="fill:none;stroke:#0000ff;stroke-width:2.49999996;stroke-miterlimit:4;stroke-dasharray:7.49999989,7.49999989;stroke-dashoffset:0"
     d="m 235.75019,1874.2475 3.7,-17.7 3.8,-18.2 3.7,-18.3 3.7,-18.3 3.8,-17.6 3.7,-16.8 3.8,-15.4 3.7,-13.8 3.7,-14.8 3.8,-11 3.7,-8.2 3.8,-6.6 3.7,-5.4 3.7,-4.7 3.8,-4 3.7,-3.2 3.7,-2.4 3.8,-1.9 3.7,-1.5 3.8,-1.3 3.7,-0.9 3.7,-0.8 3.8,-0.6 3.7,-0.6 3.7,-0.6 3.8,-0.8 3.7,-1.1 3.8,-1.3 3.7,-0.8 3.7,-1.3 3.8,-2.1 3.7,-2.2 3.7,-2.8 3.8,-3.4 3.7,-4.1 3.8,-4.3 3.7,-4.6 3.7,-4.9 3.8,-4.5 3.7,-4.1 3.8,-3.6 3.7,-2.7 3.7,-1.8 3.8,-1.5 3.7,-0.8 3.7,-0.6 3.8,-0.2 3.7,0 3.8,-0.3 3.7,-0.4 3.7,-0.3 3.8,-0.4 3.7,-0.4 3.7,-0.4 3.8,-0.2 3.7,-0.2 3.8,-0.1 3.7,0.2 3.7,0.1 3.8,0.3 3.7,0.4 3.7,0.4 3.8,0.4 3.7,0.1 3.8,0.3 3.7,0.1 3.7,-0.1 3.8,-0.3 3.7,-0.1 3.7,-0.2 3.8,-0.2 3.7,0 3.8,-0.2 3.7,0.1 3.7,0.1 3.8,0.1 3.7,0 3.8,0.1 3.7,-0.2 3.7,-0.4 3.8,-0.1 3.7,-0.4 3.7,-0.2 3.8,-0.1 3.7,0 3.8,0 3.7,0.1 3.7,0.3 3.8,0.2 3.7,0.3 3.7,0.1 3.8,0.2 3.7,0.2 3.8,0.1 3.7,0.2 3.7,0.2 3.8,0.2 3.7,0.1 3.7,0.2 3.8,0.1 3.7,0 3.8,-0.2 3.7,-0.1 3.7,-0.3 3.8,-0.5 3.7,-0.5 3.7,-0.4 3.8,-0.5 3.7,-0.4 3.8,-0.2 3.7,-0.2 3.7,-0.2 3.8,0.2 3.7,0.5 3.8,0.4 3.7,0.4 3.7,0.3 3.8,0.3 3.7,0.1 3.7,-0.2 3.8,-0.3 3.7,-0.5 3.8,-0.6 3.7,-0.7 3.7,-0.3 3.8,-0.3 3.7,-0.2 3.7,0.2 3.8,0.6 3.7,0.4 3.8,0.5 3.7,0.7 3.7,0.5 3.8,0.1 3.7,-0.1 3.7,-0.1 3.8,-0.3 3.7,-0.5 3.8,-0.5 3.7,-0.5 3.7,-0.5 3.8,-0.4 3.7,-0.2 3.8,0 3.7,-0.1 3.7,0 3.8,0 3.7,0.3 3.7,0.2 3.8,0.3 3.7,0.3 3.8,0.4 3.7,0.2 3.7,0.2 3.8,0.3 3.7,0.1 3.7,0.1 3.8,-0.1 3.7,-0.4 3.8,-0.4 3.7,-0.4 3.7,-0.4 3.8,-0.5 3.7,-0.2 3.7,-0.4 3.8,0 3.7,0.4 3.8,0.3 3.7,0.5 3.7,0.7 3.8,0.8 3.7,0.6 3.7,0.8 3.8,0.5 3.7,0.6 3.8,0.3 3.7,0.4 3.7,0.2 3.8,0 3.7,0.1 3.8,-0.2 3.7,0 3.7,-0.3 3.8,-0.4 3.7,-0.6 3.7,-0.6 3.8,-0.6 3.7,-0.9 3.8,-0.6 3.7,-0.8 3.7,-0.7 3.8,-0.7 3.7,-0.5 3.7,-0.6 3.8,-0.4 3.7,-0.2 3.8,-0.3 3.7,-0.2 3.7,-0.3"
     id="path5378"
     inkscape:connector-curvature="0" />
  <path
     style="fill:none;stroke:#008000;stroke-width:2.49999996;stroke-miterlimit:4;stroke-dasharray:7.49999989,7.49999989;stroke-dashoffset:0"
     d="m 232.05019,1971.2475 3.7,-24.8 3.7,-25.5 3.8,-25.7 3.7,-25.9 3.7,-25.1 3.8,-24.2 3.7,-22 3.8,-19.9 3.7,-21.1 3.7,-15.8 3.8,-12 3.7,-9 3.8,-7.6 3.7,-6.1 3.7,-4.8 3.8,-3.9 3.7,-2.8 3.7,-2.4 3.8,-1.6 3.7,-1.5 3.8,-1 3.7,-1.1 3.7,-0.8 3.8,-1.3 3.7,-1.4 3.7,-1.4 3.8,-1.8 3.7,-1.6 3.8,-1.5 3.7,-1.3 3.7,-1.2 3.8,-1.2 3.7,-1.2 3.7,-1.7 3.8,-1.9 3.7,-2.6 3.8,-3.3 3.7,-4.1 3.7,-4.4 3.8,-4.8 3.7,-4.8 3.8,-4.3 3.7,-3.8 3.7,-2.9 3.8,-2.3 3.7,-1.9 3.7,-1 3.8,-0.8 3.7,-0.6 3.8,-0.4 3.7,-0.6 3.7,-0.7 3.8,-0.5 3.7,-0.5 3.7,-0.4 3.8,-0.4 3.7,-0.1 3.8,0.1 3.7,0.2 3.7,0.2 3.8,0.4 3.7,0.3 3.7,0.5 3.8,0.4 3.7,0.6 3.8,0.6 3.7,0.4 3.7,0.5 3.8,0.4 3.7,0.4 3.7,0.1 3.8,0.3 3.7,0.2 3.8,0 3.7,0 3.7,0.1 3.8,0.4 3.7,0.4 3.8,0.6 3.7,0.3 3.7,0.5 3.8,0.2 3.7,0.4 3.7,0.1 3.8,-0.1 3.7,-0.4 3.8,-0.7 3.7,-0.8 3.7,-1 3.8,-0.8 3.7,-0.7 3.7,-0.6 3.8,-0.5 3.7,-0.3 3.8,-0.2 3.7,0.2 3.7,0.4 3.8,0.3 3.7,0.5 3.7,0.3 3.8,0.5 3.7,0.2 3.8,0.3 3.7,0.3 3.7,0.4 3.8,0.1 3.7,-0.1 3.7,-0.1 3.8,0 3.7,0 3.8,-0.3 3.7,-0.2 3.7,-0.2 3.8,-0.3 3.7,-0.1 3.8,-0.2 3.7,-0.2 3.7,-0.3 3.8,-0.1 3.7,-0.3 3.7,0 3.8,-0.1 3.7,0.4 3.8,0.4 3.7,0.7 3.7,0.9 3.8,0.8 3.7,1.2 3.7,0.7 3.8,0.8 3.7,0.5 3.8,0 3.7,-0.2 3.7,-0.4 3.8,-0.6 3.7,-0.9 3.7,-1.1 3.8,-1 3.7,-1 3.8,-0.7 3.7,-0.6 3.7,-0.3 3.8,-0.2 3.7,0.2 3.8,0.5 3.7,1 3.7,0.8 3.8,0.9 3.7,1 3.7,0.8 3.8,0.8 3.7,0.3 3.8,0.2 3.7,0.1 3.7,0 3.8,-0.4 3.7,-0.2 3.7,-0.1 3.8,-0.2 3.7,0.2 3.8,-0.1 3.7,-0.1 3.7,0 3.8,-0.1 3.7,0 3.7,0 3.8,-0.2 3.7,-0.2 3.8,0.1 3.7,0 3.7,0.2 3.8,0 3.7,0.2 3.7,0.2 3.8,0.1 3.7,0.2 3.8,-0.1 3.7,0.4 3.7,0 3.8,-0.2 3.7,0.3 3.8,0 3.7,0 3.7,0 3.8,-0.3 3.7,-0.4 3.7,-0.4 3.8,-0.7 3.7,-0.5 3.8,-0.6 3.7,-0.8 3.7,-0.4 3.8,-0.3 3.7,-0.2 3.7,-0.2 3.8,0.3 3.7,0.3 3.8,0 3.7,0.4 3.7,0.3"
     id="path5376"
     inkscape:connector-curvature="0" />
  <path
     style="fill:none;stroke:#008000;stroke-width:2.5;stroke-miterlimit:4;stroke-dasharray:none"
     d="m 232.05019,2149.3475 0.7,-12.9 0.8,-14.7 0.7,-16.4 0.7,-18.1 0.8,-20 0.7,-21.6 0.8,-22.9 0.7,-23.2 0.8,-25.4 0.7,-23.8 0.8,-21.9 0.7,-19.9 0.8,-18.3 0.7,-16.5 0.8,-14.6 0.7,-13.2 0.8,-11.6 0.7,-10.4 0.8,-9.3 0.7,-8.5 0.8,-7.8 0.7,-7.2 0.8,-6.5 0.7,-6 0.7,-5.9 0.8,-5.6 0.7,-5.8 0.8,-5.5 0.7,-5.6 0.8,-5.3 0.7,-5.1 0.8,-5 0.7,-4 0.8,-3.9 0.7,-2.8 0.8,-2.8 0.7,-2 0.8,-1.8 0.7,-1.6 0.8,-1.6 0.7,-1.8 0.8,-2.1 0.7,-2.2 0.8,-2.2 0.7,-2.3 0.7,-2.2 0.8,-2 0.7,-1.7 0.8,-1.2 0.7,-1.3 0.8,-0.7 0.7,-0.8 0.8,-0.6 0.7,-0.9 0.8,-1.1 0.7,-1.2 0.8,-1.3 0.7,-1.5 0.8,-1.6 0.7,-1.8 0.8,-1.7 0.7,-1.9 0.8,-1.7 0.7,-1.3 0.8,-1.4 0.7,-1.6 0.7,-1.3 0.8,-1.6 0.7,-1.6 0.8,-1.5 0.7,-1.5 0.8,-1.7 0.7,-2 0.8,-1.9 0.7,-2 0.8,-1.5 0.7,-1.9 0.8,-1.7 0.7,-1.5 0.8,-1.1 0.7,-1.3 0.8,-0.6 0.7,-0.2 0.8,-0.1 0.7,0.5 0.8,1 0.7,0.9 0.7,1.5 0.8,1.5 0.7,1.6 0.8,1.1 0.7,1.3 0.8,0.4 0.7,0.3 0.8,-0.3 0.7,-0.7 0.8,-1.4 0.7,-1.2 0.8,-1.8 0.7,-1.7 0.8,-1.5 0.7,-1.5 0.8,-1.6 0.7,-1.1 0.8,-1.3 0.7,-0.7 0.8,-1 0.7,-1.1 0.7,-1.3 0.8,-1.1 0.7,-1.1 0.8,-1.2 0.7,-0.8 0.8,-0.9 0.7,-0.6 0.8,-0.2 0.7,0 0.8,0.4 0.7,0.3 0.8,0.7 0.7,0.7 0.8,0.8 0.7,0.9 0.8,0.9 0.7,1.1 0.8,0.8 0.7,1.1 0.7,0.8 0.8,0.7 0.7,0.5 0.8,0.8 0.7,0.1 0.8,0 0.7,-0.2 0.8,-0.7 0.7,-0.3 0.8,-0.4 0.7,-0.3 0.8,-0.4 0.7,-0.6 0.8,-0.2 0.7,-0.3 0.8,-0.1 0.7,-0.2 0.8,0 0.7,-0.3 0.8,-0.1 0.7,-0.7 0.7,-0.2 0.8,-0.1 0.7,-0.3 0.8,-0.3 0.7,-0.2 0.8,-0.5 0.7,-0.4 0.8,-0.3 0.7,0 0.8,-0.3 0.7,-0.5 0.8,-0.2 0.7,0 0.8,-0.2 0.7,0.1 0.8,-0.2 0.7,-0.3 0.8,-0.2 0.7,-0.6 0.8,-0.8 0.7,-0.7 0.7,-1 0.8,-0.8 0.7,-0.8 0.8,-0.7 0.7,-0.6 0.8,-0.2 0.7,0.2 0.8,0.3 0.7,0.6 0.8,0.8 0.7,0.7 0.8,0.9 0.7,0.8 0.8,0.7 0.7,0.7 0.8,0.3 0.7,0 0.8,0 0.7,-0.5 0.8,-0.7 0.7,-0.8 0.7,-0.7 0.8,-1 0.7,-1.5 0.8,-1.5 0.7,-1.7 0.8,-1.9 0.7,-2.3 0.8,-2.5 0.7,-2.7 0.8,-3.1 0.7,-3.2 0.8,-2.9 0.7,-3 0.8,-2.7 0.7,-2.3 0.8,-1.6 0.7,-1.5 0.8,-1.1 0.7,-0.8 0.8,-0.1 0.7,-0.2 0.7,-0.2 0.8,0.3 0.7,0 0.8,-0.2 0.7,-0.1 0.8,-0.1 0.7,-0.2 0.8,-0.2 0.7,-0.2 0.8,-0.5 0.7,-0.5 0.8,-0.6 0.7,-0.3 0.8,-0.5 0.7,-0.2 0.8,-0.4 0.7,-0.4 0.8,-0.2 0.7,-0.3 0.7,0 0.8,0.1 0.7,-0.4 0.8,-0.3 0.7,-0.2 0.8,-0.3 0.7,-0.2 0.8,-0.1 0.7,0.1 0.8,0 0.7,0.5 0.8,0.4 0.7,0.6 0.8,0.5 0.7,0.3 0.8,0.2 0.7,-0.2 0.8,-0.1 0.7,-0.5 0.8,-0.3 0.7,-0.5 0.7,-0.4 0.8,-0.3 0.7,-0.2 0.8,-0.1 0.7,-0.2 0.8,0.2 0.7,-0.2 0.8,0 0.7,-0.1 0.8,0.2 0.7,0.5 0.8,0.5 0.7,0.7 0.8,0.5 0.7,1 0.8,0.8 0.7,0.5 0.8,0.2 0.7,-0.4 0.8,-0.6 0.7,-0.9 0.7,-1 0.8,-1 0.7,-1.1 0.8,-0.5 0.7,-0.1 0.8,-0.1 0.7,0.6 0.8,0.7 0.7,1 0.8,1.2 0.7,0.8 0.8,1 0.7,0.7 0.8,0.6 0.7,0.4 0.8,-0.1 0.7,-0.2 0.8,-0.3 0.7,-0.5 0.8,-0.4 0.7,-0.8 0.7,-0.8 0.8,-0.4 0.7,-0.5 0.8,-0.4 0.7,-0.3 0.8,-0.3 0.7,-0.3 0.8,-0.4 0.7,-0.4 0.8,-0.6 0.7,-0.2 0.8,-0.5 0.7,-0.5 0.8,-0.3 0.7,-0.2 0.8,0.2 0.7,0.1 0.8,0.2 0.7,0.1 0.8,0 0.7,0.2 0.7,-0.1 0.8,-0.2 0.7,-0.2 0.8,-0.1 0.7,0 0.8,0.1 0.7,0 0.8,0.5 0.7,0.6 0.8,0.6 0.7,0.8 0.8,0.6 0.7,0.7 0.8,0.7 0.7,0.4 0.8,0.6 0.7,0.3 0.8,0.1 0.7,0.2 0.7,-0.3 0.8,0 0.7,-0.1 0.8,-0.2 0.7,-0.3 0.8,-0.2 0.7,-0.4 0.8,-0.2 0.7,-0.2 0.8,-0.3 0.7,-0.4 0.8,0 0.7,-0.2 0.8,-0.1 0.7,0 0.8,0 0.7,-0.2 0.8,0 0.7,-0.3 0.8,-0.2 0.7,-0.3 0.7,-0.3 0.8,-0.2 0.7,0 0.8,-0.1 0.7,0.4 0.8,0.3 0.7,0.7 0.8,0.3 0.7,0.4 0.8,0.4 0.7,0 0.8,-0.1 0.7,-0.3 0.8,-0.4 0.7,-0.5 0.8,-0.5 0.7,0 0.8,-0.1 0.7,0.3 0.8,0.5 0.7,0.7 0.7,0.7 0.8,1 0.7,0.6 0.8,0.8 0.7,0.4 0.8,0.1 0.7,0.1 0.8,-0.2 0.7,-0.4 0.8,-0.6 0.7,-0.5 0.8,-0.4 0.7,-0.8 0.8,-0.6 0.7,-0.5 0.8,-0.2 0.7,-0.2 0.8,-0.2 0.7,0 0.8,0.1 0.7,0 0.7,0.1 0.8,0.1 0.7,0 0.8,-0.2 0.7,-0.2 0.8,-0.2 0.7,-0.2 0.8,-0.3 0.7,0.2 0.8,0.1 0.7,0 0.8,0.4 0.7,0.5 0.8,0.6 0.7,0.5 0.8,0.7 0.7,0.7 0.8,0.7 0.7,0.6 0.8,0.5 0.7,0.5 0.7,0.3 0.8,0 0.7,-0.2 0.8,-0.2 0.7,-0.6 0.8,-0.2 0.7,-0.3 0.8,-0.1 0.7,0 0.8,0.1 0.7,0.1 0.8,0 0.7,0.4 0.8,0 0.7,0 0.8,-0.1 0.7,-0.2 0.8,-0.4 0.7,-0.2 0.7,0.1 0.8,-0.1 0.7,0.2 0.8,0.1 0.7,0.1 0.8,0 0.7,0 0.8,0.1 0.7,-0.1 0.8,-0.2 0.7,-0.5 0.8,-0.3 0.7,-0.5 0.8,-0.3 0.7,-0.3 0.8,-0.1 0.7,-0.2 0.8,-0.1 0.7,0.4 0.8,0.6 0.7,0.9 0.7,0.7 0.8,0.6 0.7,0.6 0.8,0.1 0.7,0.1 0.8,-0.4 0.7,-0.5 0.8,-0.8 0.7,-0.6 0.8,-0.7 0.7,-0.1 0.8,0.1 0.7,0.6 0.8,0.8 0.7,1 0.8,1.1 0.7,1 0.8,0.9 0.7,0.5 0.8,0.1 0.7,-0.3 0.7,-0.6 0.8,-0.8 0.7,-1 0.8,-1 0.7,-1 0.8,-0.7 0.7,-0.4 0.8,0 0.7,0.3 0.8,0.6 0.7,0.7 0.8,0.7 0.7,0.8 0.8,0.9 0.7,0.5 0.8,0.1 0.7,-0.1 0.8,-0.6 0.7,-0.6 0.8,-0.8 0.7,-1.1 0.7,-1 0.8,-1.2 0.7,-1 0.8,-1.1 0.7,-1.1 0.8,-0.3 0.7,-0.3 0.8,0 0.7,0 0.8,0.4 0.7,1 0.8,1.1 0.7,1.1 0.8,1 0.7,0.9 0.8,0.5 0.7,0.5 0.8,0.2 0.7,0 0.8,-0.5 0.7,-0.2 0.7,-0.3 0.8,-0.7 0.7,0.1 0.8,0.4 0.7,0.3 0.8,0.2 0.7,0.3 0.8,0.6 0.7,0.3 0.8,0.2 0.7,0.2 0.8,0.1 0.7,-0.2 0.8,-0.3 0.7,-0.1 0.8,0 0.7,-0.4 0.8,-0.3 0.7,-0.2 0.7,-0.6 0.8,-0.7 0.7,-0.2 0.8,-0.6 0.7,-0.5 0.8,-0.6 0.7,-0.2 0.8,0.1 0.7,-0.2 0.8,0.1 0.7,0.1 0.8,0.3 0.7,0.2 0.8,0.3 0.7,0.6 0.8,0.6 0.7,0.6 0.8,0.7 0.7,1 0.8,0.7 0.7,0.9 0.7,0.5 0.8,0.5 0.7,0.2 0.8,-0.1 0.7,0.1 0.8,0.1 0.7,-0.2 0.8,-0.4 0.7,-0.3 0.8,-0.3 0.7,-0.7 0.8,-0.6 0.7,-0.9 0.8,-0.7 0.7,-1 0.8,-0.8 0.7,-0.7 0.8,-0.6 0.7,-0.3 0.8,-0.3 0.7,0 0.7,0.3 0.8,0 0.7,0.2 0.8,0.2 0.7,0 0.8,0 0.7,0 0.8,0 0.7,-0.2 0.8,-0.1 0.7,-0.1 0.8,-0.2 0.7,0 0.8,0 0.7,0.2 0.8,0 0.7,-0.2 0.8,0 0.7,0.2 0.8,0 0.7,0.1 0.7,0.2 0.8,0.2 0.7,0.3 0.8,0.4 0.7,0.4 0.8,0.4 0.7,0.5 0.8,0.5 0.7,0.3 0.8,0 0.7,0 0.8,0.3 0.7,0.2 0.8,0.1 0.7,0.1 0.8,0.3 0.7,0.1 0.8,0.2 0.7,0.1 0.8,0.1 0.7,-0.2 0.7,-0.3 0.8,-0.5 0.7,-0.5 0.8,-0.5 0.7,-0.5 0.8,-0.2 0.7,-0.5 0.8,-0.4 0.7,-0.2 0.8,-0.2 0.7,0 0.8,0 0.7,0 0.8,-0.1 0.7,-0.2 0.8,0 0.7,0 0.8,-0.1 0.7,0.1 0.8,-0.4 0.7,0.1 0.7,-0.1 0.8,0 0.7,0.1 0.8,0.2 0.7,0.2 0.8,0.5 0.7,0.2 0.8,0.5 0.7,0.5 0.8,0.6 0.7,0.6 0.8,0.3 0.7,0.2 0.8,0 0.7,-0.2 0.8,-0.3 0.7,-0.9 0.8,-0.5 0.7,-0.5 0.7,-0.6 0.8,-0.3 0.7,0.2 0.8,0.4 0.7,0.7 0.8,1.2 0.7,0.9 0.8,0.7 0.7,0.4 0.8,0.3 0.7,-0.1 0.8,-0.6 0.7,-0.8 0.8,-1 0.7,-1.1 0.8,-1.2 0.7,-1 0.8,-0.5 0.7,-0.6 0.8,-0.2 0.7,0 0.7,0.4 0.8,0.2 0.7,0.6 0.8,0.8 0.7,0.7 0.8,0.7 0.7,0.5 0.8,0.7 0.7,0.3 0.8,0.2 0.7,0.1 0.8,0 0.7,0 0.8,-0.1 0.7,-0.1 0.8,0 0.7,0.1 0.8,-0.1 0.7,0.1 0.8,-0.2 0.7,-0.2 0.7,-0.2 0.8,-0.2 0.7,-0.4 0.8,-0.4 0.7,-0.4 0.8,0 0.7,-0.1 0.8,0.1 0.7,0.1 0.8,0.3 0.7,0.1 0.8,0.2 0.7,0.2 0.8,0.2 0.7,0.2 0.8,-0.1 0.7,0.2 0.8,0 0.7,0.1 0.8,0.4 0.7,0.3 0.7,0.5 0.8,0.4 0.7,0.4 0.8,0.3 0.7,0.2 0.8,0.1 0.7,-0.1 0.8,-0.4 0.7,-0.5 0.8,-0.7 0.7,-0.6 0.8,-0.5 0.7,-0.7 0.8,-0.6 0.7,-0.4 0.8,-0.4 0.7,-0.3 0.8,-0.4 0.7,-0.3 0.8,-0.3 0.7,-0.5 0.7,-0.7 0.8,-0.3 0.7,-0.2 0.8,-0.2 0.7,-0.1 0.8,0.3 0.7,0.2 0.8,0.5 0.7,0.8 0.8,0.8 0.7,0.7 0.8,0.7 0.7,0.5 0.8,0.7 0.7,0.2 0.8,0.3 0.7,0 0.8,-0.1 0.7,-0.4 0.7,-0.6 0.8,-0.6 0.7,-0.5 0.8,-0.8 0.7,-0.5 0.8,-0.6 0.7,-0.4 0.8,-0.2 0.7,-0.2 0.8,0.2 0.7,0.1 0.8,-0.1 0.7,0.4 0.8,0.1 0.7,0.2 0.8,0.1 0.7,0.1 0.8,0.1 0.7,0.4 0.8,0.5 0.7,0.8 0.7,0.7 0.8,0.9 0.7,0.9 0.8,1 0.7,1.1 0.8,0.5 0.7,0.6 0.8,0.1 0.7,-0.5 0.8,-0.7 0.7,-1.1 0.8,-1.2 0.7,-1.3 0.8,-1.4 0.7,-1.4 0.8,-1 0.7,-0.7 0.8,-0.2 0.7,0.1 0.8,0.5 0.7,0.8 0.7,0.8 0.8,1.2 0.7,0.9 0.8,0.6 0.7,0.3 0.8,0.5 0.7,0 0.8,-0.3 0.7,-0.6 0.8,-0.6 0.7,-0.9 0.8,-1 0.7,-0.5 0.8,-0.7 0.7,-0.6 0.8,-0.4 0.7,-0.3 0.8,-0.2 0.7,0.1 0.8,0.2 0.7,0.4 0.7,0.6 0.8,0.1 0.7,0.4 0.8,0.3 0.7,0.3 0.8,0.6 0.7,0.5 0.8,0.4 0.7,0.6 0.8,0.6 0.7,0.7 0.8,0.9 0.7,0.6 0.8,0.5 0.7,0.1 0.8,-0.3 0.7,-0.2 0.8,-0.8 0.7,-0.7 0.8,-0.8 0.7,-0.7 0.7,-0.6 0.8,-0.8 0.7,-0.3 0.8,-0.2 0.7,0.1 0.8,0.4 0.7,0.2 0.8,0.4 0.7,0.4 0.8,0.8 0.7,0.8 0.8,0.6 0.7,0.4 0.8,0.5 0.7,0.1 0.8,0 0.7,-0.5 0.8,-0.6 0.7,-0.7 0.7,-0.8 0.8,-0.7 0.7,-0.8 0.8,-0.4 0.7,-0.2 0.8,0 0.7,0.2 0.8,0.4 0.7,0.5 0.8,0.7 0.7,0.4 0.8,0.1 0.7,0.2 0.8,-0.3 0.7,-0.5 0.8,-0.7 0.7,-0.9 0.8,-0.9 0.7,-0.9 0.8,-0.6 0.7,-0.3 0.7,0.4 0.8,0.4 0.7,1 0.8,0.9 0.7,0.9 0.8,1.1 0.7,0.8 0.8,0.4 0.7,0.1 0.8,0 0.7,-0.2 0.8,-0.2 0.7,-0.6 0.8,-0.1 0.7,-0.2 0.8,-0.2 0.7,0 0.8,-0.2 0.7,-0.1 0.8,-0.3 0.7,-0.4 0.7,-0.5 0.8,-0.5 0.7,-0.1 0.8,-0.2 0.7,-0.1 0.8,0.2 0.7,0.4 0.8,0.4 0.7,0.8 0.8,0.3 0.7,0.5 0.8,0.3 0.7,-0.3 0.8,0 0.7,-0.5 0.8,-0.6 0.7,-0.7 0.8,-0.7 0.7,-0.8 0.8,-0.6 0.7,-0.4 0.7,-0.3 0.8,-0.2 0.7,0 0.8,0.3 0.7,0.6 0.8,0.6 0.7,0.6 0.8,0.7 0.7,0.8 0.8,0.4 0.7,0.5 0.8,0.5 0.7,0.2 0.8,0.2 0.7,-0.1 0.8,0 0.7,0 0.8,0 0.7,0.1 0.8,-0.3 0.7,-0.3 0.7,-0.5 0.8,-0.5 0.7,-0.6 0.8,-0.7 0.7,-0.7 0.8,-0.6 0.7,-0.6 0.8,-0.6 0.7,-0.5 0.8,-0.2 0.7,-0.1 0.8,-0.2 0.7,0.1 0.8,0.1 0.7,0.3 0.8,0.3 0.7,0.4 0.8,0.4 0.7,0.8 0.7,0.7 0.8,0.6 0.7,0.5 0.8,0.4 0.7,0.4 0.8,0.1 0.7,0 0.8,-0.1 0.7,-0.4 0.8,-0.4 0.7,-0.2 0.8,0.1 0.7,-0.1 0.8,0.5 0.7,0.6 0.8,0.8 0.7,0.8 0.8,0.8 0.7,0.7 0.8,0.4 0.7,0.3 0.7,-0.1 0.8,-0.3 0.7,-0.4 0.8,-0.7 0.7,-0.5 0.8,-0.6 0.7,-1"
     id="path84"
     inkscape:connector-curvature="0" />
  <g
     id="layer1"
     inkscape:label="Layer 1"
     transform="matrix(2.5,0,0,2.5,-5.0548517,171.40745)">
    <g
       id="g4940"
       transform="matrix(0.40000001,0,0,0.40000001,1.7218354,-81.033728)">
      <text
         xml:space="preserve"
         style="color:#000000;font-style:normal;font-variant:normal;font-weight:normal;font-stretch:normal;font-size:37.5px;line-height:100%;font-family:Arial;-inkscape-font-specification:Arial;text-indent:0;text-align:start;text-decoration:none;text-decoration-line:none;letter-spacing:0px;word-spacing:0px;text-transform:none;direction:ltr;block-progression:tb;writing-mode:lr-tb;text-anchor:start;display:inline;overflow:visible;visibility:visible;fill:#000000;fill-opacity:1;fill-rule:nonzero;stroke:none;stroke-width:1px;stroke-linecap:butt;stroke-linejoin:miter;stroke-opacity:1;marker:none;enable-background:accumulate"
         x="832.57562"
         y="1861.0986"
         id="text4830"
         sodipodi:linespacing="100%"><tspan
           sodipodi:role="line"
           id="tspan4832"
           x="832.57562"
           y="1861.0986">test</tspan></text>
      <text
         xml:space="preserve"
         style="color:#000000;font-style:normal;font-variant:normal;font-weight:normal;font-stretch:normal;font-size:37.5px;line-height:100%;font-family:Arial;-inkscape-font-specification:Arial;text-indent:0;text-align:start;text-decoration:none;text-decoration-line:none;letter-spacing:0px;word-spacing:0px;text-transform:none;direction:ltr;block-progression:tb;writing-mode:lr-tb;text-anchor:start;display:inline;overflow:visible;visibility:visible;fill:#000000;fill-opacity:1;fill-rule:nonzero;stroke:none;stroke-width:1px;stroke-linecap:butt;stroke-linejoin:miter;stroke-opacity:1;marker:none;enable-background:accumulate"
         x="832.57562"
         y="1818.9769"
         id="text6242"
         sodipodi:linespacing="100%"><tspan
           sodipodi:role="line"
           id="tspan6244"
           x="832.57562"
           y="1818.9769">train</tspan></text>
      <path
         style="opacity:1;fill:none;fill-opacity:1;fill-rule:nonzero;stroke:#000000;stroke-width:2.5;stroke-linecap:butt;stroke-linejoin:miter;stroke-miterlimit:4;stroke-dasharray:none;stroke-dashoffset:0;stroke-opacity:1"
         d="m 819.13256,1810.0149 -34.95205,0"
         id="path4884"
         inkscape:connector-curvature="0" />
      <path
         inkscape:connector-curvature="0"
         id="path4886"
         d="m 819.13256,1847.6556 -34.95205,0"
         style="opacity:1;fill:none;fill-opacity:1;fill-rule:nonzero;stroke:#000000;stroke-width:2.5;stroke-linecap:butt;stroke-linejoin:miter;stroke-miterlimit:4;stroke-dasharray:7.49999989, 7.49999989;stroke-dashoffset:0;stroke-opacity:1" />
    </g>
  </g>
</svg>
