<?xml version="1.0" encoding="ISO-8859-1" standalone="yes"?>
<svg width="428.091" height="374.211">
  <defs> 
    <marker id="ArrowEnd" viewBox="0 0 10 10" refX="0" refY="5" 
     markerUnits="strokeWidth" 
     markerWidth="4" 
     markerHeight="3" 
     orient="auto"> 
        <path d="M 0 0 L 10 5 L 0 10 z" /> 
    </marker>
    <marker id="ArrowStart" viewBox="0 0 10 10" refX="10" refY="5" 
     markerUnits="strokeWidth" 
     markerWidth="4" 
     markerHeight="3" 
     orient="auto"> 
        <path d="M 10 0 L 0 5 L 10 10 z" /> 
    </marker> </defs>
<g>
<path style="stroke:#000000; stroke-width:0.10000000000000001; fill:none" d="M 306.012 38.1101L 306.012 85.2891L 306.012 38.1101z"/>
<path style="stroke:none; fill-rule:evenodd; fill:#000000" d="M 313.211 45.3051L 298.817 45.3051L 306.012 38.1101"/>
<path style="stroke:#000000; stroke-width:0.10000000000000001; fill:none" d="M 313.211 45.3051L 298.817 45.3051L 306.012 38.1101L 313.211 45.3051z"/>
<path style="stroke:#000000; stroke-width:0.10000000000000001; fill:none" d="M 306.012 199.649L 306.012 247.629L 306.012 199.649z"/>
<path style="stroke:none; fill-rule:evenodd; fill:#000000" d="M 313.211 206.848L 298.817 206.051L 306.012 199.657"/>
<path style="stroke:#000000; stroke-width:0.10000000000000001; fill:none" d="M 313.211 206.848L 298.817 206.051L 306.012 199.657L 313.211 206.848z"/>
<path style="stroke:#000000; stroke-width:0.10000000000000001; fill:none" d="M 33.3134 122.879L 20.5204 122.879L 3.72718 161.262L 16.5204 161.262"/>
<path style="stroke:none; fill-rule:evenodd; fill:#000000" d="M 10.1214 168.461L 10.1214 154.067L 16.5164 161.262"/>
<path style="stroke:#000000; stroke-width:0.10000000000000001; fill:none" d="M 10.1214 168.461L 10.1214 154.067L 16.5164 161.262L 10.1214 168.461z"/>
<path style="stroke:#000000; stroke-width:0.10000000000000001; fill:none" d="M 261.231 94.8871L 156.473 94.8871L 261.231 94.8871z"/>
<path style="stroke:none; fill-rule:evenodd; fill:#000000" d="M 254.032 102.086L 254.032 87.6921L 261.227 94.8871"/>
<path style="stroke:#000000; stroke-width:0.10000000000000001; fill:none" d="M 254.032 102.086L 254.032 87.6921L 261.227 94.8871L 254.032 102.086z"/>
<path style="stroke:#000000; stroke-width:0.10000000000000001; fill:none" d="M 150.071 110.082L 254.032 110.082L 150.071 110.082z"/>
<path style="stroke:none; fill-rule:evenodd; fill:#000000" d="M 156.469 103.684L 157.266 117.278L 150.071 110.082"/>
<path style="stroke:#000000; stroke-width:0.10000000000000001; fill:none" d="M 156.469 103.684L 157.266 117.278L 150.071 110.082L 156.469 103.684z"/>
<path style="stroke:#000000; stroke-width:0.10000000000000001; fill:none" d="M 82.0984 86.0901L 81.3014 36.5121L 82.0984 86.0901z"/>
<path style="stroke:none; fill-rule:evenodd; fill:#000000" d="M 74.8994 78.8951L 89.2934 78.8951L 82.0984 86.0901"/>
<path style="stroke:#000000; stroke-width:0.10000000000000001; fill:none" d="M 74.8994 78.8951L 89.2934 78.8951L 82.0984 86.0901L 74.8994 78.8951z"/>
<path style="stroke:#000000; stroke-width:0.10000000000000001; fill:none" d="M 221.242 345.196L 169.266 345.196L 221.242 345.196z"/>
<path style="stroke:none; fill-rule:evenodd; fill:#000000" d="M 214.848 352.395L 214.848 338L 221.242 345.196"/>
<path style="stroke:#000000; stroke-width:0.10000000000000001; fill:none" d="M 214.848 352.395L 214.848 338L 221.242 345.196L 214.848 352.395z"/>
<path style="stroke:#000000; stroke-width:0.10000000000000001; fill:none" d="M 254.832 257.231L 111.688 195.657L 254.832 257.231z"/>
<path style="stroke:none; fill-rule:evenodd; fill:#000000" d="M 245.235 261.227L 250.832 248.434L 254.828 257.231"/>
<path style="stroke:#000000; stroke-width:0.10000000000000001; fill:none" d="M 245.235 261.227L 250.832 248.434L 254.828 257.231L 245.235 261.227z"/>
<path style="stroke:#000000; stroke-width:0.10000000000000001; fill:none" d="M 349.196 283.618L 349.992 328.399L 349.196 283.618z"/>
<path style="stroke:none; fill-rule:evenodd; fill:#000000" d="M 356.395 290.817L 342 290.817L 349.196 283.621"/>
<path style="stroke:#000000; stroke-width:0.10000000000000001; fill:none" d="M 356.395 290.817L 342 290.817L 349.196 283.621L 356.395 290.817z"/>
<path style="stroke:#000000; stroke-width:0.10000000000000001; fill:none" d="M 168.465 287.618L 167.668 26.1141L 168.465 287.618z"/>
<path style="stroke:none; fill-rule:evenodd; fill:#000000" d="M 161.266 280.418L 175.66 280.418L 168.465 287.614"/>
<path style="stroke:#000000; stroke-width:0.10000000000000001; fill:none" d="M 161.266 280.418L 175.66 280.418L 168.465 287.614L 161.266 280.418z"/>
<path style="stroke:#000000; stroke-width:0.10000000000000001; fill:none" d="M 70.8994 283.618L 70.8994 199.649L 70.8994 283.618z"/>
<path style="stroke:none; fill-rule:evenodd; fill:#000000" d="M 64.5004 277.223L 78.0944 277.223L 70.8994 283.618"/>
<path style="stroke:#000000; stroke-width:0.10000000000000001; fill:none" d="M 64.5004 277.223L 78.0944 277.223L 70.8994 283.618L 64.5004 277.223z"/>
<path style="stroke:none; fill-rule:evenodd; fill:#7a7a7a" d="M 14.1214 6.12109L 62.9034 6.12109L 48.5084 38.1061L 0.527985 38.1061"/>
<path style="stroke:#7a7a7a; stroke-width:0.10000000000000001; fill:none" d="M 14.1214 6.12109L 62.9034 6.12109L 48.5084 38.1061L 0.527985 38.1061L 14.1214 6.12109z"/>
<path style="stroke:#000000; stroke-width:0.10000000000000001; fill:none" d="M 14.1214 6.12109L 62.9034 6.12109L 48.5084 38.1061L 0.527985 38.1061L 14.1214 6.12109z"/>
<path style="stroke:#ffffff; stroke-width:0.10000000000000001; fill:none" d="M 31.7154 22.1181L 31.7154 22.1181z"/>
<path style="stroke:none; fill-rule:evenodd; fill:#7a7a7a" d="M 68.5004 6.12109L 116.481 6.12109L 102.887 38.1061L 54.1064 38.1061"/>
<path style="stroke:#7a7a7a; stroke-width:0.10000000000000001; fill:none" d="M 68.5004 6.12109L 116.481 6.12109L 102.887 38.1061L 54.1064 38.1061L 68.5004 6.12109z"/>
<path style="stroke:#000000; stroke-width:0.10000000000000001; fill:none" d="M 68.5004 6.12109L 116.481 6.12109L 102.887 38.1061L 54.1064 38.1061L 68.5004 6.12109z"/>
<path style="stroke:#ffffff; stroke-width:0.10000000000000001; fill:none" d="M 85.2934 22.1181L 85.2934 22.1181z"/>
<path style="stroke:none; fill-rule:evenodd; fill:#7a7a7a" d="M 122.082 6.12109L 170.864 6.12109L 156.469 38.1061L 107.688 38.1061"/>
<path style="stroke:#7a7a7a; stroke-width:0.10000000000000001; fill:none" d="M 122.082 6.12109L 170.864 6.12109L 156.469 38.1061L 107.688 38.1061L 122.082 6.12109z"/>
<path style="stroke:#000000; stroke-width:0.10000000000000001; fill:none" d="M 122.082 6.12109L 170.864 6.12109L 156.469 38.1061L 107.688 38.1061L 122.082 6.12109z"/>
<path style="stroke:none; fill-rule:evenodd; fill:#ffffff" d="M 122.082 7.71906L 170.063 7.71906L 155.668 38.1061L 107.688 38.1061"/>
<path style="stroke:#ffffff; stroke-width:0.10000000000000001; fill:none" d="M 122.082 7.71906L 170.063 7.71906L 155.668 38.1061L 107.688 38.1061L 122.082 7.71906z"/>
<path style="stroke:none; fill-rule:evenodd; fill:#000000" d="M 26.5594 22.0471L 26.5594 29.3091L 27.7584 29.3091L 27.7584 19.1101L 26.9224 19.1101C 26.4774 20.6761 26.1884 20.8911 24.2274 21.1371L 24.2274 22.0391L 26.5594 22.0471z"/>
<path style="stroke:none; fill-rule:evenodd; fill:#000000" d="M 84.4894 28.0121L 79.0864 28.0121C 79.2154 27.1841 79.6804 26.6571 80.9384 25.9261L 82.3834 25.1571C 83.8174 24.3871 84.5554 23.3401 84.5554 22.0981C 84.5554 21.2541 84.2074 20.4691 83.6024 19.9261C 82.9964 19.3831 82.2424 19.1251 81.2704 19.1251C 79.9694 19.1251 78.9964 19.5861 78.4304 20.4461C 78.0714 20.9891 77.9104 21.6211 77.8834 22.6571L 79.1574 22.6571C 79.2004 21.9691 79.2854 21.5511 79.4614 21.2191C 79.7934 20.6021 80.4614 20.2271 81.2274 20.2271C 82.3834 20.2271 83.2544 21.0471 83.2544 22.1411C 83.2544 22.9461 82.7784 23.6371 81.8644 24.1531L 80.5324 24.8991C 78.3874 26.1061 77.7664 27.0711 77.6494 29.3171L 84.4854 29.3171L 84.4894 28.0121z"/>
<path style="stroke:none; fill-rule:evenodd; fill:#000000" d="M 133.84 24.6101L 134.532 24.6101C 135.93 24.6101 136.657 25.2431 136.657 26.4651C 136.657 27.7431 135.864 28.5081 134.539 28.5081C 133.157 28.5081 132.481 27.8211 132.391 26.3441L 131.125 26.3441C 131.18 27.1571 131.324 27.6841 131.571 28.1371C 132.09 29.1061 133.098 29.6021 134.496 29.6021C 136.602 29.6021 137.957 28.3561 137.957 26.4341C 137.957 25.1451 137.45 24.4261 136.215 24.0121C 137.176 23.6411 137.657 22.9221 137.657 21.9071C 137.657 20.1571 136.489 19.1101 134.539 19.1101C 132.477 19.1101 131.379 20.2271 131.336 22.3991L 132.606 22.3991C 132.617 21.7821 132.676 21.4341 132.836 21.1181C 133.121 20.5591 133.758 20.2111 134.551 20.2111C 135.676 20.2111 136.356 20.8641 136.356 21.9301C 136.356 22.6411 136.098 23.0671 135.532 23.2931C 135.184 23.4341 134.739 23.4891 133.84 23.5041L 133.84 24.6101z"/>
<path style="stroke:#000000; stroke-width:0.10000000000000001; fill:none" d="M 16.5204 0.524109L 178.86 0.524109L 162.067 38.1101L 0.527985 38.1101L 16.5204 0.524109z"/>
<path style="stroke:none; fill-rule:evenodd; fill:#000000" d="M 1.96159 51.6101L 3.36008 51.6101L 3.36008 41.1101L 1.96159 41.1101L 1.96159 51.6101z"/>
<path style="stroke:none; fill-rule:evenodd; fill:#000000" d="M 5.55928 44.0281L 5.55928 51.6061L 6.75848 51.6061L 6.75848 47.4541C 6.75848 45.9181 7.56318 44.9111 8.80138 44.9111C 9.75038 44.9111 10.3564 45.4851 10.3564 46.3911L 10.3564 51.6101L 11.5554 51.6101L 11.5554 45.8831C 11.5554 44.6251 10.6214 43.8131 9.16438 43.8131C 8.04338 43.8131 7.32098 44.2471 6.65688 45.3011L 6.65688 44.0321L 5.55928 44.0281z"/>
<path style="stroke:none; fill-rule:evenodd; fill:#000000" d="M 13.3604 54.7501L 14.5594 54.7501L 14.5594 50.8131C 15.1884 51.5751 15.8874 51.9111 16.8564 51.9111C 18.7824 51.9111 20.0554 50.3401 20.0554 47.9341C 20.0554 45.3991 18.8284 43.8131 16.8444 43.8131C 15.8324 43.8131 15.0164 44.2741 14.4614 45.1681L 14.4614 44.0281L 13.3644 44.0281L 13.3604 54.7501zM 16.6684 44.9111C 17.9924 44.9111 18.8604 46.0861 18.8604 47.9031C 18.8604 49.6291 17.9814 50.8051 16.6684 50.8051C 15.3994 50.8051 14.5634 49.6451 14.5634 47.8601C 14.5634 46.0751 15.3994 44.9111 16.6684 44.9111z"/>
<path style="stroke:none; fill-rule:evenodd; fill:#000000" d="M 27.4614 51.5821L 27.4614 44.1141L 26.2624 44.1141L 26.2624 48.3091C 26.2624 49.8211 25.4614 50.8091 24.2114 50.8091C 23.2664 50.8091 22.6644 50.2471 22.6644 49.3561L 22.6644 44.1141L 21.4654 44.1141L 21.4654 49.8711C 21.4654 51.1101 22.3954 51.9071 23.8564 51.9071C 24.9574 51.9071 25.6604 51.5241 26.3604 50.5391L 26.3604 51.5791L 27.4614 51.5821z"/>
<path style="stroke:none; fill-rule:evenodd; fill:#000000" d="M 32.2624 44.1101L 30.9654 44.1101L 30.9654 41.9971L 29.7664 41.9971L 29.7664 44.1101L 28.7664 44.1101L 28.7664 45.1101L 29.7664 45.1101L 29.7664 50.7271C 29.7664 51.4771 30.2974 51.9031 31.2584 51.9031C 31.5514 51.9031 31.8484 51.8751 32.2624 51.8051L 32.2624 50.8291C 32.0984 50.8131 31.9034 50.8091 31.6604 50.8091C 31.1174 50.8091 30.9694 50.6721 30.9694 50.1531L 30.9694 45.1181L 32.2664 45.1181L 32.2624 44.1101z"/>
<path style="stroke:#000000; stroke-width:0.10000000000000001; fill:none" d="M 16.5204 0.524109L 178.86 0.524109L 162.067 38.1101L 0.527985 38.1101L 16.5204 0.524109z"/>
<path style="stroke:none; fill-rule:evenodd; fill:#7a7a7a" d="M 14.1214 327.602L 62.9034 327.602L 48.5084 360.387L 0.527985 360.387"/>
<path style="stroke:#7a7a7a; stroke-width:0.10000000000000001; fill:none" d="M 14.1214 327.602L 62.9034 327.602L 48.5084 360.387L 0.527985 360.387L 14.1214 327.602z"/>
<path style="stroke:#000000; stroke-width:0.10000000000000001; fill:none" d="M 14.1214 327.602L 62.9034 327.602L 48.5084 360.387L 0.527985 360.387L 14.1214 327.602z"/>
<path style="stroke:none; fill-rule:evenodd; fill:#ffffff" d="M 22.9184 337.2L 46.1064 337.2L 38.9104 352.391L 15.7234 352.391"/>
<path style="stroke:#ffffff; stroke-width:0.10000000000000001; fill:none" d="M 22.9184 337.2L 46.1064 337.2L 38.9104 352.391L 15.7234 352.391L 22.9184 337.2z"/>
<path style="stroke:#000000; stroke-width:0.10000000000000001; fill:none" d="M 33.3134 283.618L 87.6924 283.618L 54.1064 360.387L 0.527985 360.387L 33.3134 283.618z"/>
<path style="stroke:none; fill-rule:evenodd; fill:#ffffff" d="M 86.0944 292.414L 131.676 292.414L 118.082 321.2L 73.3014 321.2"/>
<path style="stroke:#ffffff; stroke-width:0.10000000000000001; fill:none" d="M 86.0944 292.414L 131.676 292.414L 118.082 321.2L 73.3014 321.2L 86.0944 292.414z"/>
<path style="stroke:none; fill-rule:evenodd; fill:#7a7a7a" d="M 68.5004 327.602L 116.481 327.602L 102.887 360.387L 54.1064 360.387"/>
<path style="stroke:#7a7a7a; stroke-width:0.10000000000000001; fill:none" d="M 68.5004 327.602L 116.481 327.602L 102.887 360.387L 54.1064 360.387L 68.5004 327.602z"/>
<path style="stroke:#000000; stroke-width:0.10000000000000001; fill:none" d="M 68.5004 327.602L 116.481 327.602L 102.887 360.387L 54.1064 360.387L 68.5004 327.602z"/>
<path style="stroke:#000000; stroke-width:0.10000000000000001; fill:none" d="M 87.6964 283.618L 141.274 283.618L 107.688 360.387L 54.1104 360.387L 87.6964 283.618z"/>
<path style="stroke:none; fill-rule:evenodd; fill:#7a7a7a" d="M 138.875 290.016L 187.657 290.016L 173.262 322L 124.481 322"/>
<path style="stroke:#7a7a7a; stroke-width:0.10000000000000001; fill:none" d="M 138.875 290.016L 187.657 290.016L 173.262 322L 124.481 322L 138.875 290.016z"/>
<path style="stroke:#000000; stroke-width:0.10000000000000001; fill:none" d="M 138.875 290.016L 187.657 290.016L 173.262 322L 124.481 322L 138.875 290.016z"/>
<path style="stroke:none; fill-rule:evenodd; fill:#7a7a7a" d="M 122.082 327.602L 170.864 327.602L 156.469 360.387L 107.688 360.387"/>
<path style="stroke:#7a7a7a; stroke-width:0.10000000000000001; fill:none" d="M 122.082 327.602L 170.864 327.602L 156.469 360.387L 107.688 360.387L 122.082 327.602z"/>
<path style="stroke:#000000; stroke-width:0.10000000000000001; fill:none" d="M 122.082 327.602L 170.864 327.602L 156.469 360.387L 107.688 360.387L 122.082 327.602z"/>
<path style="stroke:none; fill-rule:evenodd; fill:#7a7a7a" d="M 30.9144 290.016L 79.6964 290.016L 65.3014 322L 16.5204 322"/>
<path style="stroke:#7a7a7a; stroke-width:0.10000000000000001; fill:none" d="M 30.9144 290.016L 79.6964 290.016L 65.3014 322L 16.5204 322L 30.9144 290.016z"/>
<path style="stroke:#000000; stroke-width:0.10000000000000001; fill:none" d="M 30.9144 290.016L 79.6964 290.016L 65.3014 322L 16.5204 322L 30.9144 290.016z"/>
<path style="stroke:#ffffff; stroke-width:0.10000000000000001; fill:none" d="M 47.7074 306.012L 47.7074 306.012z"/>
<path style="stroke:none; fill-rule:evenodd; fill:#000000" d="M 20.9854 337.911L 22.0634 341.11L 23.5594 341.11L 19.8754 330.61L 18.1494 330.61L 14.4074 341.11L 15.8284 341.11L 16.9344 337.911L 20.9854 337.911zM 20.6104 336.809L 17.2744 336.809L 19.0004 332.055L 20.6104 336.809z"/>
<path style="stroke:none; fill-rule:evenodd; fill:#000000" d="M 28.1414 336.102C 28.0824 335.34 27.9264 334.848 27.6414 334.414C 27.1294 333.727 26.2314 333.317 25.1884 333.317C 23.1764 333.317 21.8644 334.93 21.8644 337.438C 21.8644 339.871 23.1454 341.414 25.1724 341.414C 26.9534 341.414 28.0824 340.348 28.2274 338.524L 27.0204 338.524C 26.8214 339.715 26.2034 340.313 25.1804 340.313C 23.8604 340.313 23.0674 339.231 23.0674 337.438C 23.0674 335.547 23.8404 334.418 25.1534 334.418C 26.1574 334.418 26.7894 335.024 26.9344 336.106L 28.1414 336.102z"/>
<path style="stroke:none; fill-rule:evenodd; fill:#000000" d="M 29.8604 333.61L 28.5634 333.61L 28.5634 331.497L 27.3644 331.497L 27.3644 333.61L 26.3644 333.61L 26.3644 334.61L 27.3644 334.61L 27.3644 340.227C 27.3644 340.977 27.8954 341.403 28.8564 341.403C 29.1494 341.403 29.4464 341.375 29.8604 341.305L 29.8604 340.329C 29.6964 340.313 29.5004 340.309 29.2584 340.309C 28.7154 340.309 28.5674 340.172 28.5674 339.653L 28.5674 334.618L 29.8644 334.618L 29.8604 333.61z"/>
<path style="stroke:none; fill-rule:evenodd; fill:#7a7a7a" d="M 85.2934 290.016L 133.274 290.016L 118.879 322L 70.8994 322"/>
<path style="stroke:#7a7a7a; stroke-width:0.10000000000000001; fill:none" d="M 85.2934 290.016L 133.274 290.016L 118.879 322L 70.8994 322L 85.2934 290.016z"/>
<path style="stroke:#000000; stroke-width:0.10000000000000001; fill:none" d="M 85.2934 290.016L 133.274 290.016L 118.879 322L 70.8994 322L 85.2934 290.016z"/>
<path style="stroke:none; fill-rule:evenodd; fill:#000000" d="M 89.0594 295.446L 89.0594 302.707L 90.2584 302.707L 90.2584 292.508L 89.4224 292.508C 88.9774 294.075 88.6884 294.289 86.7274 294.536L 86.7274 295.438L 89.0594 295.446z"/>
<path style="stroke:none; fill-rule:evenodd; fill:#000000" d="M 92.1604 301.211L 92.1604 302.711L 92.9574 302.711L 92.9574 302.973C 92.9574 303.985 92.7854 304.278 92.1604 304.309L 92.1604 304.809C 93.0944 304.809 93.5594 304.164 93.5594 302.93L 93.5594 301.211L 92.1604 301.211z"/>
<path style="stroke:none; fill-rule:evenodd; fill:#000000" d="M 96.4424 298.012L 97.1334 298.012C 98.5324 298.012 99.2584 298.645 99.2584 299.868C 99.2584 301.145 98.4654 301.911 97.1414 301.911C 95.7584 301.911 95.0824 301.223 94.9924 299.747L 93.7274 299.747C 93.7824 300.559 93.9264 301.086 94.1724 301.539C 94.6924 302.508 95.7004 303.004 97.0984 303.004C 99.2034 303.004 100.559 301.758 100.559 299.836C 100.559 298.547 100.051 297.829 98.8174 297.414C 99.7784 297.043 100.258 296.325 100.258 295.309C 100.258 293.559 99.0904 292.512 97.1414 292.512C 95.0784 292.512 93.9814 293.629 93.9384 295.801L 95.2074 295.801C 95.2194 295.184 95.2784 294.836 95.4384 294.52C 95.7234 293.961 96.3604 293.614 97.1534 293.614C 98.2784 293.614 98.9574 294.266 98.9574 295.332C 98.9574 296.043 98.7004 296.469 98.1334 296.696C 97.7854 296.836 97.3404 296.891 96.4424 296.907L 96.4424 298.012z"/>
<path style="stroke:#ffffff; stroke-width:0.10000000000000001; fill:none" d="M 85.2934 344.399L 85.2934 344.399z"/>
<path style="stroke:none; fill-rule:evenodd; fill:#000000" d="M 72.2624 333.848L 72.2624 341.11L 73.4614 341.11L 73.4614 330.911L 72.6254 330.911C 72.1804 332.477 71.8914 332.692 69.9304 332.938L 69.9304 333.84L 72.2624 333.848z"/>
<path style="stroke:none; fill-rule:evenodd; fill:#000000" d="M 75.3604 339.61L 75.3604 341.11L 76.1574 341.11L 76.1574 341.371C 76.1574 342.383 75.9854 342.676 75.3604 342.707L 75.3604 343.207C 76.2934 343.207 76.7584 342.563 76.7584 341.329L 76.7584 339.61L 75.3604 339.61z"/>
<path style="stroke:none; fill-rule:evenodd; fill:#000000" d="M 84.5864 339.809L 79.1844 339.809C 79.3134 338.981 79.7784 338.454 81.0354 337.723L 82.4814 336.954C 83.9144 336.184 84.6534 335.137 84.6534 333.895C 84.6534 333.051 84.3054 332.266 83.7004 331.723C 83.0944 331.18 82.3404 330.922 81.3674 330.922C 80.0674 330.922 79.0944 331.383 78.5284 332.243C 78.1684 332.786 78.0084 333.418 77.9814 334.454L 79.2544 334.454C 79.2974 333.766 79.3834 333.348 79.5594 333.016C 79.8914 332.399 80.5594 332.024 81.3244 332.024C 82.4814 332.024 83.3524 332.844 83.3524 333.938C 83.3524 334.743 82.8754 335.434 81.9614 335.95L 80.6294 336.696C 78.4854 337.903 77.8644 338.868 77.7464 341.114L 84.5824 341.114L 84.5864 339.809z"/>
<path style="stroke:#ffffff; stroke-width:0.10000000000000001; fill:none" d="M 155.668 306.012L 155.668 306.012z"/>
<path style="stroke:#ffffff; stroke-width:0.10000000000000001; fill:none" d="M 138.875 344.399L 138.875 344.399z"/>
<path style="stroke:none; fill-rule:evenodd; fill:#000000" d="M 125.86 333.848L 125.86 341.11L 127.059 341.11L 127.059 330.911L 126.223 330.911C 125.778 332.477 125.489 332.692 123.528 332.938L 123.528 333.84L 125.86 333.848z"/>
<path style="stroke:none; fill-rule:evenodd; fill:#000000" d="M 128.262 338.309L 135.559 338.309L 135.559 337.309L 128.262 337.309L 128.262 338.309z"/>
<path style="stroke:none; fill-rule:evenodd; fill:#000000" d="M 138.559 333.61L 137.262 333.61L 137.262 331.497L 136.063 331.497L 136.063 333.61L 135.063 333.61L 135.063 334.61L 136.063 334.61L 136.063 340.227C 136.063 340.977 136.594 341.403 137.555 341.403C 137.848 341.403 138.145 341.375 138.559 341.305L 138.559 340.329C 138.395 340.313 138.2 340.309 137.957 340.309C 137.414 340.309 137.266 340.172 137.266 339.653L 137.266 334.618L 138.563 334.618L 138.559 333.61z"/>
<path style="stroke:none; fill-rule:evenodd; fill:#000000" d="M 144.364 335.668C 144.348 334.161 143.375 333.313 141.641 333.313C 139.895 333.313 138.762 334.219 138.762 335.621C 138.762 336.805 139.367 337.364 141.16 337.797L 142.285 338.071C 143.121 338.27 143.453 338.575 143.453 339.121C 143.453 339.825 142.742 340.301 141.684 340.301C 141.032 340.301 140.481 340.118 140.176 339.809C 139.989 339.598 139.903 339.387 139.828 338.86L 138.551 338.86C 138.606 340.579 139.582 341.403 141.555 341.403C 143.45 341.403 144.66 340.465 144.66 339.008C 144.66 337.883 144.028 337.266 142.524 336.903L 141.367 336.629C 140.387 336.399 139.965 336.082 139.965 335.551C 139.965 334.86 140.586 334.411 141.571 334.411C 142.539 334.411 143.063 334.844 143.09 335.668L 144.364 335.668z"/>
<path style="stroke:none; fill-rule:evenodd; fill:#000000" d="M 144.86 330.61L 143.66 330.61L 143.66 341.11L 144.86 341.11L 144.86 338.176L 146.032 337.028L 148.594 341.114L 150.082 341.114L 146.985 336.207L 149.617 333.618L 148.071 333.618L 144.86 336.766L 144.86 330.61z"/>
<path style="stroke:#000000; stroke-width:0.10000000000000001; fill:none" d="M 141.274 283.618L 194.852 283.618L 162.067 360.387L 107.688 360.387L 141.274 283.618z"/>
<path style="stroke:#000000; stroke-width:0.10000000000000001; fill:none" d="M 33.3134 283.618L 194.852 283.618L 162.067 360.387L 0.527985 360.387L 33.3134 283.618z"/>
<path style="stroke:#000000; stroke-width:0.10000000000000001; fill:none" d="M 33.3134 283.618L 87.6924 283.618L 54.1064 360.387L 0.527985 360.387L 33.3134 283.618z"/>
<path style="stroke:none; fill-rule:evenodd; fill:#7a7a7a" d="M 262.828 251.629L 311.61 251.629L 297.215 283.614L 249.235 283.614"/>
<path style="stroke:#7a7a7a; stroke-width:0.10000000000000001; fill:none" d="M 262.828 251.629L 311.61 251.629L 297.215 283.614L 249.235 283.614L 262.828 251.629z"/>
<path style="stroke:#000000; stroke-width:0.10000000000000001; fill:none" d="M 262.828 251.629L 311.61 251.629L 297.215 283.614L 249.235 283.614L 262.828 251.629z"/>
<path style="stroke:none; fill-rule:evenodd; fill:#ffffff" d="M 269.227 257.231L 301.211 257.231L 290.817 278.821L 258.832 278.821"/>
<path style="stroke:#ffffff; stroke-width:0.10000000000000001; fill:none" d="M 269.227 257.231L 301.211 257.231L 290.817 278.821L 258.832 278.821L 269.227 257.231z"/>
<path style="stroke:none; fill-rule:evenodd; fill:#000000" d="M 269.684 254.711L 270.762 257.911L 272.258 257.911L 268.574 247.411L 266.848 247.411L 263.106 257.911L 264.528 257.911L 265.633 254.711L 269.684 254.711zM 269.309 253.61L 265.973 253.61L 267.7 248.856L 269.309 253.61z"/>
<path style="stroke:none; fill-rule:evenodd; fill:#000000" d="M 276.84 252.903C 276.782 252.141 276.625 251.649 276.34 251.215C 275.828 250.528 274.93 250.118 273.887 250.118C 271.875 250.118 270.563 251.731 270.563 254.239C 270.563 256.672 271.844 258.215 273.871 258.215C 275.653 258.215 276.782 257.149 276.926 255.325L 275.719 255.325C 275.52 256.516 274.903 257.114 273.879 257.114C 272.559 257.114 271.766 256.032 271.766 254.239C 271.766 252.348 272.539 251.219 273.852 251.219C 274.856 251.219 275.489 251.825 275.633 252.907L 276.84 252.903z"/>
<path style="stroke:none; fill-rule:evenodd; fill:#000000" d="M 278.559 250.411L 277.262 250.411L 277.262 248.297L 276.063 248.297L 276.063 250.411L 275.063 250.411L 275.063 251.411L 276.063 251.411L 276.063 257.028C 276.063 257.778 276.594 258.204 277.555 258.204C 277.848 258.204 278.145 258.176 278.559 258.106L 278.559 257.129C 278.395 257.114 278.2 257.11 277.957 257.11C 277.414 257.11 277.266 256.973 277.266 256.454L 277.266 251.418L 278.563 251.418L 278.559 250.411z"/>
<path style="stroke:none; fill-rule:evenodd; fill:#7a7a7a" d="M 317.207 251.629L 365.188 251.629L 351.594 283.614L 302.813 283.614"/>
<path style="stroke:#7a7a7a; stroke-width:0.10000000000000001; fill:none" d="M 317.207 251.629L 365.188 251.629L 351.594 283.614L 302.813 283.614L 317.207 251.629z"/>
<path style="stroke:#000000; stroke-width:0.10000000000000001; fill:none" d="M 317.207 251.629L 365.188 251.629L 351.594 283.614L 302.813 283.614L 317.207 251.629z"/>
<path style="stroke:none; fill-rule:evenodd; fill:#ffffff" d="M 318.008 253.231L 361.989 253.231L 349.996 282.016L 306.016 282.016"/>
<path style="stroke:#ffffff; stroke-width:0.10000000000000001; fill:none" d="M 318.008 253.231L 361.989 253.231L 349.996 282.016L 306.016 282.016L 318.008 253.231z"/>
<path style="stroke:none; fill-rule:evenodd; fill:#000000" d="M 325.66 250.497C 325.649 248.418 324.25 247.211 321.856 247.211C 319.578 247.211 318.164 248.399 318.164 250.317C 318.164 251.606 318.84 252.418 320.223 252.782L 322.828 253.477C 324.153 253.825 324.758 254.36 324.758 255.188C 324.758 255.75 324.457 256.332 324.012 256.653C 323.594 256.942 322.934 257.102 322.086 257.102C 320.95 257.102 320.176 256.825 319.668 256.207C 319.282 255.739 319.11 255.227 319.067 254.567L 317.867 254.567C 317.879 255.52 318.067 256.149 318.481 256.719C 319.196 257.688 320.399 258.2 321.985 258.2C 323.227 258.2 324.242 257.914 324.918 257.395C 325.617 256.832 326.063 255.895 326.063 254.989C 326.063 253.692 325.258 252.739 323.832 252.348L 321.196 251.645C 319.93 251.301 319.469 250.895 319.469 250.09C 319.469 249.024 320.41 248.317 321.828 248.317C 323.508 248.317 324.45 249.098 324.465 250.5L 325.66 250.497z"/>
<path style="stroke:none; fill-rule:evenodd; fill:#000000" d="M 330.961 254.512C 330.961 253.36 330.875 252.668 330.66 252.106C 330.172 250.868 329.024 250.118 327.614 250.118C 325.516 250.118 324.164 251.731 324.164 254.207C 324.164 256.684 325.469 258.211 327.574 258.211C 329.293 258.211 330.485 257.247 330.785 255.625L 329.571 255.625C 329.239 256.602 328.559 257.11 327.59 257.11C 326.824 257.11 326.172 256.766 325.77 256.129C 325.485 255.7 325.379 255.266 325.367 254.512L 330.961 254.512zM 325.418 253.563C 325.516 252.168 326.367 251.262 327.574 251.262C 328.754 251.262 329.66 252.239 329.66 253.477C 329.66 253.504 329.66 253.532 329.649 253.563L 325.418 253.563z"/>
<path style="stroke:none; fill-rule:evenodd; fill:#000000" d="M 335.461 261.012L 335.461 250.414L 334.364 250.414L 334.364 251.375C 333.813 250.559 332.977 250.114 331.996 250.114C 330.043 250.114 328.766 251.743 328.766 254.247C 328.766 256.696 329.989 258.207 331.953 258.207C 332.992 258.207 333.703 257.844 334.258 257.047L 334.258 261.008L 335.461 261.012zM 332.188 251.274C 333.465 251.274 334.289 252.422 334.289 254.239C 334.289 255.965 333.457 257.118 332.188 257.118C 330.867 257.118 329.989 255.954 329.989 254.196C 329.989 252.457 330.864 251.274 332.188 251.274z"/>
<path style="stroke:none; fill-rule:evenodd; fill:#7a7a7a" d="M 370.789 251.629L 419.571 251.629L 405.176 283.614L 356.395 283.614"/>
<path style="stroke:#7a7a7a; stroke-width:0.10000000000000001; fill:none" d="M 370.789 251.629L 419.571 251.629L 405.176 283.614L 356.395 283.614L 370.789 251.629z"/>
<path style="stroke:#000000; stroke-width:0.10000000000000001; fill:none" d="M 370.789 251.629L 419.571 251.629L 405.176 283.614L 356.395 283.614L 370.789 251.629z"/>
<path style="stroke:none; fill-rule:evenodd; fill:#ffffff" d="M 388.383 267.625L 387.586 267.625"/>
<path style="stroke:#ffffff; stroke-width:0.10000000000000001; fill:none" d="M 388.383 267.625L 387.586 267.625L 388.383 267.625z"/>
<path style="stroke:none; fill-rule:evenodd; fill:#000000" d="M 375.86 248.512L 379.293 248.512L 379.293 247.414L 371.063 247.414L 371.063 248.512L 374.559 248.512L 374.559 257.911L 375.856 257.911L 375.86 248.512z"/>
<path style="stroke:none; fill-rule:evenodd; fill:#000000" d="M 381.864 252.469C 381.848 250.961 380.875 250.114 379.141 250.114C 377.395 250.114 376.262 251.02 376.262 252.422C 376.262 253.606 376.867 254.164 378.66 254.598L 379.785 254.871C 380.621 255.071 380.953 255.375 380.953 255.922C 380.953 256.625 380.242 257.102 379.184 257.102C 378.532 257.102 377.981 256.918 377.676 256.61C 377.489 256.399 377.403 256.188 377.328 255.661L 376.051 255.661C 376.106 257.379 377.082 258.204 379.055 258.204C 380.95 258.204 382.16 257.266 382.16 255.809C 382.16 254.684 381.528 254.067 380.024 253.704L 378.867 253.43C 377.887 253.2 377.465 252.883 377.465 252.352C 377.465 251.661 378.086 251.211 379.071 251.211C 380.039 251.211 380.563 251.645 380.59 252.469L 381.864 252.469z"/>
<path style="stroke:none; fill-rule:evenodd; fill:#000000" d="M 382.36 247.411L 381.16 247.411L 381.16 257.911L 382.36 257.911L 382.36 254.977L 383.532 253.829L 386.094 257.914L 387.582 257.914L 384.485 253.008L 387.117 250.418L 385.571 250.418L 382.36 253.567L 382.36 247.411z"/>
<path style="stroke:#000000; stroke-width:0.10000000000000001; fill:none" d="M 266.028 246.032L 427.567 246.032L 410.774 283.618L 249.235 283.618L 266.028 246.032z"/>
<path style="stroke:none; fill-rule:evenodd; fill:#000000" d="M 254.36 286.911L 257.793 286.911L 257.793 285.813L 249.563 285.813L 249.563 286.911L 253.059 286.911L 253.059 296.309L 254.356 296.309L 254.36 286.911z"/>
<path style="stroke:none; fill-rule:evenodd; fill:#000000" d="M 259.059 285.809L 259.059 296.309L 260.258 296.309L 260.258 292.094C 260.258 290.536 261.063 289.512 262.301 289.512C 262.688 289.512 263.078 289.641 263.364 289.86C 263.707 290.106 263.852 290.469 263.852 291.012L 263.852 296.309L 265.051 296.309L 265.051 290.582C 265.051 289.313 264.145 288.512 262.672 288.512C 261.606 288.512 260.957 288.852 260.25 289.805L 260.25 285.813L 259.059 285.809z"/>
<path style="stroke:none; fill-rule:evenodd; fill:#000000" d="M 273.762 295.606C 273.633 295.61 273.578 295.61 273.504 295.61C 273.09 295.61 272.864 295.395 272.864 295.02L 272.864 290.579C 272.864 289.239 271.887 288.516 270.028 288.516C 268.934 288.516 268.028 288.836 267.524 289.407C 267.18 289.801 267.035 290.239 267.008 291L 268.215 291C 268.313 290.047 268.86 289.614 269.985 289.614C 271.063 289.614 271.668 290.016 271.668 290.739L 271.668 291.055C 271.668 291.559 271.367 291.774 270.414 291.891C 268.715 292.106 268.457 292.164 267.996 292.352C 267.117 292.711 266.672 293.387 266.672 294.371C 266.672 295.739 267.621 296.606 269.149 296.606C 270.098 296.606 270.86 296.286 271.711 295.532C 271.797 296.27 272.172 296.606 272.95 296.606C 273.192 296.606 273.379 296.579 273.77 296.481L 273.762 295.606zM 271.66 293.899C 271.66 294.289 271.547 294.528 271.18 294.848C 270.684 295.282 270.086 295.504 269.371 295.504C 268.422 295.504 267.867 295.071 267.867 294.329C 267.867 293.559 268.407 293.168 269.707 292.985C 270.992 292.817 271.254 292.762 271.664 292.582L 271.66 293.899z"/>
<path style="stroke:none; fill-rule:evenodd; fill:#000000" d="M 275.059 296.309L 276.258 296.309L 276.258 285.809L 275.059 285.809L 275.059 296.309z"/>
<path style="stroke:none; fill-rule:evenodd; fill:#000000" d="M 284.961 295.606C 284.832 295.61 284.778 295.61 284.703 295.61C 284.289 295.61 284.063 295.395 284.063 295.02L 284.063 290.579C 284.063 289.239 283.086 288.516 281.227 288.516C 280.133 288.516 279.227 288.836 278.723 289.407C 278.379 289.801 278.235 290.239 278.207 291L 279.414 291C 279.512 290.047 280.059 289.614 281.184 289.614C 282.262 289.614 282.867 290.016 282.867 290.739L 282.867 291.055C 282.867 291.559 282.567 291.774 281.614 291.891C 279.914 292.106 279.657 292.164 279.196 292.352C 278.317 292.711 277.871 293.387 277.871 294.371C 277.871 295.739 278.821 296.606 280.348 296.606C 281.297 296.606 282.059 296.286 282.91 295.532C 282.996 296.27 283.371 296.606 284.149 296.606C 284.391 296.606 284.578 296.579 284.969 296.481L 284.961 295.606zM 282.86 293.899C 282.86 294.289 282.746 294.528 282.379 294.848C 281.883 295.282 281.285 295.504 280.571 295.504C 279.621 295.504 279.067 295.071 279.067 294.329C 279.067 293.559 279.606 293.168 280.907 292.985C 282.192 292.817 282.453 292.762 282.864 292.582L 282.86 293.899z"/>
<path style="stroke:none; fill-rule:evenodd; fill:#000000" d="M 286.262 288.731L 286.262 296.309L 287.461 296.309L 287.461 291.582C 287.461 290.493 288.258 289.614 289.246 289.614C 290.145 289.614 290.657 290.157 290.657 291.121L 290.657 296.309L 291.856 296.309L 291.856 291.582C 291.856 290.493 292.653 289.614 293.641 289.614C 294.528 289.614 295.051 290.172 295.051 291.121L 295.051 296.309L 296.25 296.309L 296.25 290.625C 296.25 289.266 295.469 288.512 294.051 288.512C 293.039 288.512 292.434 288.825 291.723 289.704C 291.278 288.871 290.668 288.512 289.684 288.512C 288.672 288.512 288.008 288.887 287.356 289.797L 287.356 288.727L 286.262 288.731z"/>
<path style="stroke:none; fill-rule:evenodd; fill:#000000" d="M 304.16 296.282L 304.16 288.813L 302.961 288.813L 302.961 293.008C 302.961 294.52 302.16 295.508 300.91 295.508C 299.965 295.508 299.364 294.946 299.364 294.055L 299.364 288.813L 298.164 288.813L 298.164 294.571C 298.164 295.809 299.094 296.606 300.555 296.606C 301.657 296.606 302.36 296.223 303.059 295.239L 303.059 296.278L 304.16 296.282z"/>
<path style="stroke:none; fill-rule:evenodd; fill:#000000" d="M 311.567 290.871C 311.551 289.364 310.578 288.516 308.844 288.516C 307.098 288.516 305.965 289.422 305.965 290.825C 305.965 292.008 306.571 292.567 308.364 293L 309.489 293.274C 310.324 293.473 310.657 293.778 310.657 294.325C 310.657 295.028 309.946 295.504 308.887 295.504C 308.235 295.504 307.684 295.321 307.379 295.012C 307.192 294.801 307.106 294.59 307.032 294.063L 305.754 294.063C 305.809 295.782 306.785 296.606 308.758 296.606C 310.653 296.606 311.864 295.668 311.864 294.211C 311.864 293.086 311.231 292.469 309.727 292.106L 308.571 291.832C 307.59 291.602 307.168 291.286 307.168 290.754C 307.168 290.063 307.789 289.614 308.774 289.614C 309.742 289.614 310.266 290.047 310.293 290.871L 311.567 290.871z"/>
<path style="stroke:#000000; stroke-width:0.10000000000000001; fill:none" d="M 266.028 246.032L 427.567 246.032L 410.774 283.618L 249.235 283.618L 266.028 246.032z"/>
<path style="stroke:none; fill-rule:evenodd; fill:#7a7a7a" d="M 230.039 327.602L 278.02 327.602L 264.426 360.387L 215.645 360.387"/>
<path style="stroke:#7a7a7a; stroke-width:0.10000000000000001; fill:none" d="M 230.039 327.602L 278.02 327.602L 264.426 360.387L 215.645 360.387L 230.039 327.602z"/>
<path style="stroke:#000000; stroke-width:0.10000000000000001; fill:none" d="M 230.039 327.602L 278.02 327.602L 264.426 360.387L 215.645 360.387L 230.039 327.602z"/>
<path style="stroke:none; fill-rule:evenodd; fill:#ffffff" d="M 235.641 333.2L 268.426 333.2L 258.832 355.59L 226.047 355.59"/>
<path style="stroke:#ffffff; stroke-width:0.10000000000000001; fill:none" d="M 235.641 333.2L 268.426 333.2L 258.832 355.59L 226.047 355.59L 235.641 333.2z"/>
<path style="stroke:none; fill-rule:evenodd; fill:#000000" d="M 236.883 331.512L 237.961 334.711L 239.457 334.711L 235.774 324.211L 234.047 324.211L 230.305 334.711L 231.727 334.711L 232.832 331.512L 236.883 331.512zM 236.508 330.411L 233.172 330.411L 234.899 325.657L 236.508 330.411z"/>
<path style="stroke:none; fill-rule:evenodd; fill:#000000" d="M 243.239 329.704C 243.18 328.942 243.024 328.45 242.739 328.016C 242.227 327.329 241.328 326.918 240.285 326.918C 238.274 326.918 236.961 328.532 236.961 331.039C 236.961 333.473 238.242 335.016 240.27 335.016C 242.051 335.016 243.18 333.95 243.324 332.125L 242.117 332.125C 241.918 333.317 241.301 333.914 240.278 333.914C 238.957 333.914 238.164 332.832 238.164 331.039C 238.164 329.149 238.938 328.02 240.25 328.02C 241.254 328.02 241.887 328.625 242.032 329.707L 243.239 329.704z"/>
<path style="stroke:none; fill-rule:evenodd; fill:#000000" d="M 244.961 327.211L 243.664 327.211L 243.664 325.098L 242.465 325.098L 242.465 327.211L 241.465 327.211L 241.465 328.211L 242.465 328.211L 242.465 333.829C 242.465 334.579 242.996 335.004 243.957 335.004C 244.25 335.004 244.547 334.977 244.961 334.907L 244.961 333.93C 244.797 333.914 244.602 333.911 244.36 333.911C 243.817 333.911 243.668 333.774 243.668 333.254L 243.668 328.219L 244.965 328.219L 244.961 327.211z"/>
<path style="stroke:none; fill-rule:evenodd; fill:#7a7a7a" d="M 283.621 327.602L 332.403 327.602L 318.008 360.387L 269.227 360.387"/>
<path style="stroke:#7a7a7a; stroke-width:0.10000000000000001; fill:none" d="M 283.621 327.602L 332.403 327.602L 318.008 360.387L 269.227 360.387L 283.621 327.602z"/>
<path style="stroke:#000000; stroke-width:0.10000000000000001; fill:none" d="M 283.621 327.602L 332.403 327.602L 318.008 360.387L 269.227 360.387L 283.621 327.602z"/>
<path style="stroke:none; fill-rule:evenodd; fill:#ffffff" d="M 294.016 338.797L 314.008 338.797L 307.614 351.59L 287.621 351.59"/>
<path style="stroke:#ffffff; stroke-width:0.10000000000000001; fill:none" d="M 294.016 338.797L 314.008 338.797L 307.614 351.59L 287.621 351.59L 294.016 338.797z"/>
<path style="stroke:none; fill-rule:evenodd; fill:#000000" d="M 292.16 327.297C 292.149 325.219 290.75 324.012 288.356 324.012C 286.078 324.012 284.664 325.2 284.664 327.118C 284.664 328.407 285.34 329.219 286.723 329.582L 289.328 330.278C 290.653 330.625 291.258 331.161 291.258 331.989C 291.258 332.551 290.957 333.133 290.512 333.454C 290.094 333.743 289.434 333.903 288.586 333.903C 287.45 333.903 286.676 333.625 286.168 333.008C 285.782 332.539 285.61 332.028 285.567 331.368L 284.367 331.368C 284.379 332.321 284.567 332.95 284.981 333.52C 285.696 334.489 286.899 335 288.485 335C 289.727 335 290.742 334.715 291.418 334.196C 292.117 333.633 292.563 332.696 292.563 331.789C 292.563 330.493 291.758 329.539 290.332 329.149L 287.696 328.446C 286.43 328.102 285.969 327.696 285.969 326.891C 285.969 325.825 286.91 325.118 288.328 325.118C 290.008 325.118 290.95 325.899 290.965 327.301L 292.16 327.297z"/>
<path style="stroke:none; fill-rule:evenodd; fill:#000000" d="M 298.262 331.309C 298.262 330.157 298.176 329.465 297.961 328.903C 297.473 327.664 296.324 326.914 294.914 326.914C 292.817 326.914 291.465 328.528 291.465 331.004C 291.465 333.481 292.77 335.008 294.875 335.008C 296.594 335.008 297.785 334.043 298.086 332.422L 296.871 332.422C 296.539 333.399 295.86 333.907 294.891 333.907C 294.125 333.907 293.473 333.563 293.071 332.926C 292.785 332.497 292.68 332.063 292.668 331.309L 298.262 331.309zM 292.715 330.364C 292.813 328.969 293.664 328.063 294.871 328.063C 296.051 328.063 296.957 329.039 296.957 330.278C 296.957 330.305 296.957 330.332 296.946 330.364L 292.715 330.364z"/>
<path style="stroke:none; fill-rule:evenodd; fill:#000000" d="M 302.762 337.809L 302.762 327.211L 301.664 327.211L 301.664 328.172C 301.114 327.356 300.278 326.911 299.297 326.911C 297.344 326.911 296.067 328.539 296.067 331.043C 296.067 333.493 297.289 335.004 299.254 335.004C 300.293 335.004 301.004 334.641 301.559 333.844L 301.559 337.805L 302.762 337.809zM 299.489 328.075C 300.766 328.075 301.59 329.223 301.59 331.039C 301.59 332.766 300.758 333.918 299.489 333.918C 298.168 333.918 297.289 332.754 297.289 330.997C 297.289 329.258 298.164 328.075 299.489 328.075z"/>
<path style="stroke:none; fill-rule:evenodd; fill:#7a7a7a" d="M 338 327.602L 385.981 327.602L 371.586 360.387L 323.606 360.387"/>
<path style="stroke:#7a7a7a; stroke-width:0.10000000000000001; fill:none" d="M 338 327.602L 385.981 327.602L 371.586 360.387L 323.606 360.387L 338 327.602z"/>
<path style="stroke:#000000; stroke-width:0.10000000000000001; fill:none" d="M 338 327.602L 385.981 327.602L 371.586 360.387L 323.606 360.387L 338 327.602z"/>
<path style="stroke:none; fill-rule:evenodd; fill:#ffffff" d="M 340.399 331.602L 380.383 331.602L 369.188 357.192L 328.407 357.192"/>
<path style="stroke:#ffffff; stroke-width:0.10000000000000001; fill:none" d="M 340.399 331.602L 380.383 331.602L 369.188 357.192L 328.407 357.192L 340.399 331.602z"/>
<path style="stroke:none; fill-rule:evenodd; fill:#000000" d="M 343.059 325.309L 346.492 325.309L 346.492 324.211L 338.262 324.211L 338.262 325.309L 341.758 325.309L 341.758 334.707L 343.055 334.707L 343.059 325.309z"/>
<path style="stroke:none; fill-rule:evenodd; fill:#000000" d="M 349.067 329.27C 349.051 327.762 348.078 326.914 346.344 326.914C 344.598 326.914 343.465 327.821 343.465 329.223C 343.465 330.407 344.071 330.965 345.864 331.399L 346.989 331.672C 347.824 331.871 348.157 332.176 348.157 332.723C 348.157 333.426 347.446 333.903 346.387 333.903C 345.735 333.903 345.184 333.719 344.879 333.411C 344.692 333.2 344.606 332.989 344.532 332.461L 343.254 332.461C 343.309 334.18 344.285 335.004 346.258 335.004C 348.153 335.004 349.364 334.067 349.364 332.61C 349.364 331.485 348.731 330.868 347.227 330.504L 346.071 330.231C 345.09 330 344.668 329.684 344.668 329.153C 344.668 328.461 345.289 328.012 346.274 328.012C 347.242 328.012 347.766 328.446 347.793 329.27L 349.067 329.27z"/>
<path style="stroke:none; fill-rule:evenodd; fill:#000000" d="M 349.559 324.211L 348.36 324.211L 348.36 334.711L 349.559 334.711L 349.559 331.778L 350.731 330.629L 353.293 334.715L 354.782 334.715L 351.684 329.809L 354.317 327.219L 352.77 327.219L 349.559 330.368L 349.559 324.211z"/>
<path style="stroke:#000000; stroke-width:0.10000000000000001; fill:none" d="M 232.442 322.004L 393.981 322.004L 377.188 360.387L 215.649 360.387L 232.442 322.004z"/>
<path style="stroke:#000000; stroke-width:0.10000000000000001; fill:none" d="M 232.442 322.004L 393.981 322.004L 377.188 360.387L 215.649 360.387L 232.442 322.004z"/>
<path style="stroke:none; fill-rule:evenodd; fill:#7a7a7a" d="M 47.7074 90.0901L 96.4894 90.0901L 82.0944 122.875L 33.3134 122.875"/>
<path style="stroke:#7a7a7a; stroke-width:0.10000000000000001; fill:none" d="M 47.7074 90.0901L 96.4894 90.0901L 82.0944 122.875L 33.3134 122.875L 47.7074 90.0901z"/>
<path style="stroke:#000000; stroke-width:0.10000000000000001; fill:none" d="M 47.7074 90.0901L 96.4894 90.0901L 82.0944 122.875L 33.3134 122.875L 47.7074 90.0901z"/>
<path style="stroke:none; fill-rule:evenodd; fill:#ffffff" d="M 48.5084 90.8911L 94.0904 90.8911L 81.2974 122.079L 34.9144 122.079"/>
<path style="stroke:#ffffff; stroke-width:0.10000000000000001; fill:none" d="M 48.5084 90.8911L 94.0904 90.8911L 81.2974 122.079L 34.9144 122.079L 48.5084 90.8911z"/>
<path style="stroke:none; fill-rule:evenodd; fill:#7a7a7a" d="M 30.9144 128.477L 79.6964 128.477L 65.3014 161.262L 16.5204 161.262"/>
<path style="stroke:#7a7a7a; stroke-width:0.10000000000000001; fill:none" d="M 30.9144 128.477L 79.6964 128.477L 65.3014 161.262L 16.5204 161.262L 30.9144 128.477z"/>
<path style="stroke:#000000; stroke-width:0.10000000000000001; fill:none" d="M 30.9144 128.477L 79.6964 128.477L 65.3014 161.262L 16.5204 161.262L 30.9144 128.477z"/>
<path style="stroke:#ffffff; stroke-width:0.10000000000000001; fill:none" d="M 47.7074 145.27L 47.7074 145.27z"/>
<path style="stroke:none; fill-rule:evenodd; fill:#7a7a7a" d="M 14.1214 166.864L 62.9034 166.864L 48.5084 199.649L 0.527985 199.649"/>
<path style="stroke:#7a7a7a; stroke-width:0.10000000000000001; fill:none" d="M 14.1214 166.864L 62.9034 166.864L 48.5084 199.649L 0.527985 199.649L 14.1214 166.864z"/>
<path style="stroke:#000000; stroke-width:0.10000000000000001; fill:none" d="M 14.1214 166.864L 62.9034 166.864L 48.5084 199.649L 0.527985 199.649L 14.1214 166.864z"/>
<path style="stroke:#ffffff; stroke-width:0.10000000000000001; fill:none" d="M 31.7154 183.657L 31.7154 183.657z"/>
<path style="stroke:#000000; stroke-width:0.10000000000000001; fill:none" d="M 50.1064 84.4931L 103.684 84.4931L 54.1064 199.649L 0.527985 199.649L 50.1064 84.4931z"/>
<path style="stroke:none; fill-rule:evenodd; fill:#7a7a7a" d="M 101.289 90.0901L 150.071 90.0901L 135.676 122.875L 87.6964 122.875"/>
<path style="stroke:#7a7a7a; stroke-width:0.10000000000000001; fill:none" d="M 101.289 90.0901L 150.071 90.0901L 135.676 122.875L 87.6964 122.875L 101.289 90.0901z"/>
<path style="stroke:#000000; stroke-width:0.10000000000000001; fill:none" d="M 101.289 90.0901L 150.071 90.0901L 135.676 122.875L 87.6964 122.875L 101.289 90.0901z"/>
<path style="stroke:none; fill-rule:evenodd; fill:#ffffff" d="M 118.883 106.883L 118.086 106.883"/>
<path style="stroke:#ffffff; stroke-width:0.10000000000000001; fill:none" d="M 118.883 106.883L 118.086 106.883L 118.883 106.883z"/>
<path style="stroke:none; fill-rule:evenodd; fill:#000000" d="M 103.961 95.4421L 103.961 100.711L 104.86 100.711L 104.86 93.3131L 104.262 93.3131C 103.942 94.4501 103.735 94.6061 102.324 94.7821L 102.324 95.4381L 103.961 95.4421z"/>
<path style="stroke:none; fill-rule:evenodd; fill:#000000" d="M 108.059 98.7111L 113.258 98.7111L 113.258 98.0121L 108.059 98.0121L 108.059 98.7111z"/>
<path style="stroke:none; fill-rule:evenodd; fill:#7a7a7a" d="M 85.2934 128.477L 133.274 128.477L 118.879 161.262L 70.8994 161.262"/>
<path style="stroke:#7a7a7a; stroke-width:0.10000000000000001; fill:none" d="M 85.2934 128.477L 133.274 128.477L 118.879 161.262L 70.8994 161.262L 85.2934 128.477z"/>
<path style="stroke:#000000; stroke-width:0.10000000000000001; fill:none" d="M 85.2934 128.477L 133.274 128.477L 118.879 161.262L 70.8994 161.262L 85.2934 128.477z"/>
<path style="stroke:none; fill-rule:evenodd; fill:#ffffff" d="M 85.2934 130.075L 132.473 130.075L 118.879 160.461L 72.4964 160.461"/>
<path style="stroke:#ffffff; stroke-width:0.10000000000000001; fill:none" d="M 85.2934 130.075L 132.473 130.075L 118.879 160.461L 72.4964 160.461L 85.2934 130.075z"/>
<path style="stroke:none; fill-rule:evenodd; fill:#000000" d="M 91.7624 138.012L 91.7624 139.11L 92.3604 139.11L 92.3604 139.289C 92.3604 139.985 92.2314 140.184 91.7624 140.207L 91.7624 140.606C 92.4924 140.606 92.8604 140.141 92.8604 139.25L 92.8604 138.008L 91.7624 138.012z"/>
<path style="stroke:none; fill-rule:evenodd; fill:#7a7a7a" d="M 68.5004 166.864L 116.481 166.864L 102.887 199.649L 54.1064 199.649"/>
<path style="stroke:#7a7a7a; stroke-width:0.10000000000000001; fill:none" d="M 68.5004 166.864L 116.481 166.864L 102.887 199.649L 54.1064 199.649L 68.5004 166.864z"/>
<path style="stroke:#000000; stroke-width:0.10000000000000001; fill:none" d="M 68.5004 166.864L 116.481 166.864L 102.887 199.649L 54.1064 199.649L 68.5004 166.864z"/>
<path style="stroke:#ffffff; stroke-width:0.10000000000000001; fill:none" d="M 85.2934 183.657L 85.2934 183.657z"/>
<path style="stroke:none; fill-rule:evenodd; fill:#000000" d="M 74.9614 175.61L 74.9614 176.707L 75.5594 176.707L 75.5594 176.887C 75.5594 177.582 75.4304 177.782 74.9614 177.805L 74.9614 178.204C 75.6924 178.204 76.0594 177.739 76.0594 176.848L 76.0594 175.606L 74.9614 175.61z"/>
<path style="stroke:none; fill-rule:evenodd; fill:#000000" d="M 122.559 106.61L 121.262 106.61L 121.262 104.497L 120.063 104.497L 120.063 106.61L 119.063 106.61L 119.063 107.61L 120.063 107.61L 120.063 113.227C 120.063 113.977 120.594 114.403 121.555 114.403C 121.848 114.403 122.145 114.375 122.559 114.305L 122.559 113.329C 122.395 113.313 122.2 113.309 121.957 113.309C 121.414 113.309 121.266 113.172 121.266 112.653L 121.266 107.618L 122.563 107.618L 122.559 106.61z"/>
<path style="stroke:none; fill-rule:evenodd; fill:#000000" d="M 135.36 102.61L 134.16 102.61L 134.16 113.11L 135.36 113.11L 135.36 110.176L 136.532 109.028L 139.094 113.114L 140.582 113.114L 137.485 108.207L 140.117 105.618L 138.571 105.618L 135.36 108.766L 135.36 102.61z"/>
<path style="stroke:none; fill-rule:evenodd; fill:#000000" d="M 56.6414 110.309L 57.3324 110.309C 58.7314 110.309 59.4574 110.942 59.4574 112.164C 59.4574 113.442 58.6644 114.207 57.3404 114.207C 55.9574 114.207 55.2824 113.52 55.1924 112.043L 53.9264 112.043C 53.9814 112.856 54.1254 113.383 54.3714 113.836C 54.8914 114.805 55.8994 115.301 57.2974 115.301C 59.4034 115.301 60.7584 114.055 60.7584 112.133C 60.7584 110.844 60.2504 110.125 59.0164 109.711C 59.9774 109.34 60.4574 108.621 60.4574 107.606C 60.4574 105.856 59.2894 104.809 57.3404 104.809C 55.2784 104.809 54.1804 105.926 54.1374 108.098L 55.4074 108.098C 55.4184 107.481 55.4774 107.133 55.6374 106.817C 55.9224 106.258 56.5594 105.911 57.3524 105.911C 58.4774 105.911 59.1574 106.563 59.1574 107.629C 59.1574 108.34 58.8994 108.766 58.3324 108.993C 57.9854 109.133 57.5394 109.188 56.6414 109.204L 56.6414 110.309z"/>
<path style="stroke:none; fill-rule:evenodd; fill:#000000" d="M 43.9894 152.11L 38.5864 152.11C 38.7154 151.282 39.1804 150.754 40.4384 150.024L 41.8834 149.254C 43.3174 148.485 44.0554 147.438 44.0554 146.196C 44.0554 145.352 43.7074 144.567 43.1024 144.024C 42.4964 143.481 41.7424 143.223 40.7704 143.223C 39.4694 143.223 38.4964 143.684 37.9304 144.543C 37.5714 145.086 37.4104 145.719 37.3834 146.754L 38.6574 146.754C 38.7004 146.067 38.7854 145.649 38.9614 145.317C 39.2934 144.7 39.9614 144.325 40.7274 144.325C 41.8834 144.325 42.7544 145.145 42.7544 146.239C 42.7544 147.043 42.2784 147.735 41.3644 148.25L 40.0324 148.997C 37.8874 150.204 37.2664 151.168 37.1494 153.414L 43.9854 153.414L 43.9894 152.11z"/>
<path style="stroke:none; fill-rule:evenodd; fill:#000000" d="M 23.6604 183.747L 23.6604 191.008L 24.8604 191.008L 24.8604 180.809L 24.0244 180.809C 23.5784 182.375 23.2894 182.59 21.3284 182.836L 21.3284 183.739L 23.6604 183.747z"/>
<path style="stroke:none; fill-rule:evenodd; fill:#000000" d="M 130.164 109.571C 130.149 108.063 129.176 107.215 127.442 107.215C 125.696 107.215 124.563 108.121 124.563 109.524C 124.563 110.707 125.168 111.266 126.961 111.7L 128.086 111.973C 128.922 112.172 129.254 112.477 129.254 113.024C 129.254 113.727 128.543 114.204 127.485 114.204C 126.832 114.204 126.282 114.02 125.977 113.711C 125.789 113.5 125.703 113.289 125.629 112.762L 124.352 112.762C 124.407 114.481 125.383 115.305 127.356 115.305C 129.25 115.305 130.461 114.368 130.461 112.911C 130.461 111.786 129.828 111.168 128.324 110.805L 127.168 110.532C 126.188 110.301 125.766 109.985 125.766 109.454C 125.766 108.762 126.387 108.313 127.371 108.313C 128.34 108.313 128.864 108.747 128.891 109.571L 130.164 109.571z"/>
<path style="stroke:none; fill-rule:evenodd; fill:#000000" d="M 94.8604 146.149L 94.8604 153.411L 96.0594 153.411L 96.0594 143.211L 95.2234 143.211C 94.7784 144.778 94.4894 144.993 92.5284 145.239L 92.5284 146.141L 94.8604 146.149z"/>
<path style="stroke:none; fill-rule:evenodd; fill:#000000" d="M 102.242 148.711L 102.934 148.711C 104.332 148.711 105.059 149.344 105.059 150.567C 105.059 151.844 104.266 152.61 102.942 152.61C 101.559 152.61 100.883 151.922 100.793 150.446L 99.5284 150.446C 99.5824 151.258 99.7274 151.786 99.9734 152.239C 100.492 153.207 101.5 153.704 102.899 153.704C 105.004 153.704 106.36 152.457 106.36 150.536C 106.36 149.247 105.852 148.528 104.617 148.114C 105.578 147.743 106.059 147.024 106.059 146.008C 106.059 144.258 104.891 143.211 102.942 143.211C 100.879 143.211 99.7824 144.329 99.7394 146.5L 101.008 146.5C 101.02 145.883 101.078 145.536 101.239 145.219C 101.524 144.661 102.16 144.313 102.953 144.313C 104.078 144.313 104.758 144.965 104.758 146.032C 104.758 146.743 104.5 147.168 103.934 147.395C 103.586 147.536 103.141 147.59 102.242 147.606L 102.242 148.711z"/>
<path style="stroke:none; fill-rule:evenodd; fill:#000000" d="M 78.0594 183.747L 78.0594 191.008L 79.2584 191.008L 79.2584 180.809L 78.4224 180.809C 77.9774 182.375 77.6884 182.59 75.7274 182.836L 75.7274 183.739L 78.0594 183.747z"/>
<path style="stroke:none; fill-rule:evenodd; fill:#000000" d="M 90.3874 189.711L 84.9854 189.711C 85.1144 188.883 85.5784 188.356 86.8364 187.625L 88.2824 186.856C 89.7154 186.086 90.4534 185.039 90.4534 183.797C 90.4534 182.954 90.1064 182.168 89.5004 181.625C 88.8954 181.082 88.1414 180.825 87.1684 180.825C 85.8674 180.825 84.8954 181.286 84.3284 182.145C 83.9694 182.688 83.8094 183.321 83.7824 184.356L 85.0554 184.356C 85.0984 183.668 85.1844 183.25 85.3604 182.918C 85.6924 182.301 86.3604 181.926 87.1254 181.926C 88.2824 181.926 89.1534 182.747 89.1534 183.84C 89.1534 184.645 88.6764 185.336 87.7624 185.852L 86.4304 186.598C 84.2854 187.805 83.6644 188.77 83.5474 191.016L 90.3834 191.016L 90.3874 189.711z"/>
<path style="stroke:#000000; stroke-width:0.10000000000000001; fill:none" d="M 103.688 84.4931L 158.067 84.4931L 107.688 199.649L 54.1104 199.649L 103.688 84.4931z"/>
<path style="stroke:#000000; stroke-width:0.10000000000000001; fill:none" d="M 50.1064 84.4931L 158.063 84.4931L 107.684 199.649L 0.524086 199.649L 50.1064 84.4931z"/>
<path style="stroke:#000000; stroke-width:0.10000000000000001; fill:none" d="M 50.1064 84.4931L 103.684 84.4931L 54.1064 199.649L 0.527985 199.649L 50.1064 84.4931z"/>
<path style="stroke:none; fill-rule:evenodd; fill:#7a7a7a" d="M 262.828 90.0901L 311.61 90.0901L 297.215 122.875L 249.235 122.875"/>
<path style="stroke:#7a7a7a; stroke-width:0.10000000000000001; fill:none" d="M 262.828 90.0901L 311.61 90.0901L 297.215 122.875L 249.235 122.875L 262.828 90.0901z"/>
<path style="stroke:#000000; stroke-width:0.10000000000000001; fill:none" d="M 262.828 90.0901L 311.61 90.0901L 297.215 122.875L 249.235 122.875L 262.828 90.0901z"/>
<path style="stroke:none; fill-rule:evenodd; fill:#ffffff" d="M 265.227 91.6921L 308.41 91.6921L 295.617 121.278L 253.235 121.278"/>
<path style="stroke:#ffffff; stroke-width:0.10000000000000001; fill:none" d="M 265.227 91.6921L 308.41 91.6921L 295.617 121.278L 253.235 121.278L 265.227 91.6921z"/>
<path style="stroke:none; fill-rule:evenodd; fill:#7a7a7a" d="M 246.836 128.477L 294.817 128.477L 281.223 161.262L 232.442 161.262"/>
<path style="stroke:#7a7a7a; stroke-width:0.10000000000000001; fill:none" d="M 246.836 128.477L 294.817 128.477L 281.223 161.262L 232.442 161.262L 246.836 128.477z"/>
<path style="stroke:#000000; stroke-width:0.10000000000000001; fill:none" d="M 246.836 128.477L 294.817 128.477L 281.223 161.262L 232.442 161.262L 246.836 128.477z"/>
<path style="stroke:#ffffff; stroke-width:0.10000000000000001; fill:none" d="M 263.629 145.27L 263.629 145.27z"/>
<path style="stroke:none; fill-rule:evenodd; fill:#7a7a7a" d="M 230.039 166.864L 278.02 166.864L 264.426 199.649L 215.645 199.649"/>
<path style="stroke:#7a7a7a; stroke-width:0.10000000000000001; fill:none" d="M 230.039 166.864L 278.02 166.864L 264.426 199.649L 215.645 199.649L 230.039 166.864z"/>
<path style="stroke:#000000; stroke-width:0.10000000000000001; fill:none" d="M 230.039 166.864L 278.02 166.864L 264.426 199.649L 215.645 199.649L 230.039 166.864z"/>
<path style="stroke:#ffffff; stroke-width:0.10000000000000001; fill:none" d="M 246.836 183.657L 246.836 183.657z"/>
<path style="stroke:#000000; stroke-width:0.10000000000000001; fill:none" d="M 266.028 84.4931L 319.606 84.4931L 269.227 199.649L 215.649 199.649L 266.028 84.4931z"/>
<path style="stroke:none; fill-rule:evenodd; fill:#7a7a7a" d="M 317.207 90.0901L 365.188 90.0901L 351.594 122.875L 302.813 122.875"/>
<path style="stroke:#7a7a7a; stroke-width:0.10000000000000001; fill:none" d="M 317.207 90.0901L 365.188 90.0901L 351.594 122.875L 302.813 122.875L 317.207 90.0901z"/>
<path style="stroke:#000000; stroke-width:0.10000000000000001; fill:none" d="M 317.207 90.0901L 365.188 90.0901L 351.594 122.875L 302.813 122.875L 317.207 90.0901z"/>
<path style="stroke:#ffffff; stroke-width:0.10000000000000001; fill:none" d="M 334.004 106.883L 334.004 106.883z"/>
<path style="stroke:none; fill-rule:evenodd; fill:#000000" d="M 319.86 95.4421L 319.86 100.711L 320.758 100.711L 320.758 93.3131L 320.16 93.3131C 319.84 94.4501 319.633 94.6061 318.223 94.7821L 318.223 95.4381L 319.86 95.4421z"/>
<path style="stroke:none; fill-rule:evenodd; fill:#7a7a7a" d="M 300.414 128.477L 349.196 128.477L 334.801 161.262L 286.02 161.262"/>
<path style="stroke:#7a7a7a; stroke-width:0.10000000000000001; fill:none" d="M 300.414 128.477L 349.196 128.477L 334.801 161.262L 286.02 161.262L 300.414 128.477z"/>
<path style="stroke:#000000; stroke-width:0.10000000000000001; fill:none" d="M 300.414 128.477L 349.196 128.477L 334.801 161.262L 286.02 161.262L 300.414 128.477z"/>
<path style="stroke:none; fill-rule:evenodd; fill:#ffffff" d="M 301.215 130.075L 345.996 130.075L 332.403 160.461L 287.621 160.461"/>
<path style="stroke:#ffffff; stroke-width:0.10000000000000001; fill:none" d="M 301.215 130.075L 345.996 130.075L 332.403 160.461L 287.621 160.461L 301.215 130.075z"/>
<path style="stroke:none; fill-rule:evenodd; fill:#7a7a7a" d="M 283.621 166.864L 332.403 166.864L 318.008 199.649L 269.227 199.649"/>
<path style="stroke:#7a7a7a; stroke-width:0.10000000000000001; fill:none" d="M 283.621 166.864L 332.403 166.864L 318.008 199.649L 269.227 199.649L 283.621 166.864z"/>
<path style="stroke:#000000; stroke-width:0.10000000000000001; fill:none" d="M 283.621 166.864L 332.403 166.864L 318.008 199.649L 269.227 199.649L 283.621 166.864z"/>
<path style="stroke:#ffffff; stroke-width:0.10000000000000001; fill:none" d="M 300.414 183.657L 300.414 183.657z"/>
<path style="stroke:#000000; stroke-width:0.10000000000000001; fill:none" d="M 319.61 84.4931L 373.188 84.4931L 323.61 199.649L 269.231 199.649L 319.61 84.4931z"/>
<path style="stroke:#000000; stroke-width:0.10000000000000001; fill:none" d="M 266.028 84.4931L 373.188 84.4931L 323.61 199.649L 215.653 199.649L 266.028 84.4931z"/>
<path style="stroke:#000000; stroke-width:0.10000000000000001; fill:none" d="M 266.028 84.4931L 319.606 84.4931L 269.227 199.649L 215.649 199.649L 266.028 84.4931z"/>
<path style="stroke:none; fill-rule:evenodd; fill:#7a7a7a" d="M 230.039 6.12109L 278.02 6.12109L 264.426 38.1061L 215.645 38.1061"/>
<path style="stroke:#7a7a7a; stroke-width:0.10000000000000001; fill:none" d="M 230.039 6.12109L 278.02 6.12109L 264.426 38.1061L 215.645 38.1061L 230.039 6.12109z"/>
<path style="stroke:#000000; stroke-width:0.10000000000000001; fill:none" d="M 230.039 6.12109L 278.02 6.12109L 264.426 38.1061L 215.645 38.1061L 230.039 6.12109z"/>
<path style="stroke:#ffffff; stroke-width:0.10000000000000001; fill:none" d="M 246.836 22.1181L 246.836 22.1181z"/>
<path style="stroke:none; fill-rule:evenodd; fill:#7a7a7a" d="M 283.621 6.12109L 332.403 6.12109L 318.008 38.1061L 269.227 38.1061"/>
<path style="stroke:#7a7a7a; stroke-width:0.10000000000000001; fill:none" d="M 283.621 6.12109L 332.403 6.12109L 318.008 38.1061L 269.227 38.1061L 283.621 6.12109z"/>
<path style="stroke:#000000; stroke-width:0.10000000000000001; fill:none" d="M 283.621 6.12109L 332.403 6.12109L 318.008 38.1061L 269.227 38.1061L 283.621 6.12109z"/>
<path style="stroke:#ffffff; stroke-width:0.10000000000000001; fill:none" d="M 300.414 22.1181L 300.414 22.1181z"/>
<path style="stroke:none; fill-rule:evenodd; fill:#7a7a7a" d="M 338 6.12109L 385.981 6.12109L 371.586 38.1061L 323.606 38.1061"/>
<path style="stroke:#7a7a7a; stroke-width:0.10000000000000001; fill:none" d="M 338 6.12109L 385.981 6.12109L 371.586 38.1061L 323.606 38.1061L 338 6.12109z"/>
<path style="stroke:#000000; stroke-width:0.10000000000000001; fill:none" d="M 338 6.12109L 385.981 6.12109L 371.586 38.1061L 323.606 38.1061L 338 6.12109z"/>
<path style="stroke:none; fill-rule:evenodd; fill:#ffffff" d="M 338 7.71906L 384.383 7.71906L 370.789 37.3051L 325.207 37.3051"/>
<path style="stroke:#ffffff; stroke-width:0.10000000000000001; fill:none" d="M 338 7.71906L 384.383 7.71906L 370.789 37.3051L 325.207 37.3051L 338 7.71906z"/>
<path style="stroke:none; fill-rule:evenodd; fill:#000000" d="M 247.262 22.0471L 247.262 29.3091L 248.461 29.3091L 248.461 19.1101L 247.625 19.1101C 247.18 20.6761 246.891 20.8911 244.93 21.1371L 244.93 22.0391L 247.262 22.0471z"/>
<path style="stroke:none; fill-rule:evenodd; fill:#000000" d="M 304.387 28.0121L 298.985 28.0121C 299.114 27.1841 299.578 26.6571 300.836 25.9261L 302.282 25.1571C 303.715 24.3871 304.453 23.3401 304.453 22.0981C 304.453 21.2541 304.106 20.4691 303.5 19.9261C 302.895 19.3831 302.141 19.1251 301.168 19.1251C 299.867 19.1251 298.895 19.5861 298.328 20.4461C 297.969 20.9891 297.809 21.6211 297.782 22.6571L 299.055 22.6571C 299.098 21.9691 299.184 21.5511 299.36 21.2191C 299.692 20.6021 300.36 20.2271 301.125 20.2271C 302.282 20.2271 303.153 21.0471 303.153 22.1411C 303.153 22.9461 302.676 23.6371 301.762 24.1531L 300.43 24.8991C 298.285 26.1061 297.664 27.0711 297.547 29.3171L 304.383 29.3171L 304.387 28.0121z"/>
<path style="stroke:none; fill-rule:evenodd; fill:#000000" d="M 354.539 24.6101L 355.231 24.6101C 356.629 24.6101 357.356 25.2431 357.356 26.4651C 357.356 27.7431 356.563 28.5081 355.239 28.5081C 353.856 28.5081 353.18 27.8211 353.09 26.3441L 351.824 26.3441C 351.879 27.1571 352.024 27.6841 352.27 28.1371C 352.789 29.1061 353.797 29.6021 355.196 29.6021C 357.301 29.6021 358.657 28.3561 358.657 26.4341C 358.657 25.1451 358.149 24.4261 356.914 24.0121C 357.875 23.6411 358.356 22.9221 358.356 21.9071C 358.356 20.1571 357.188 19.1101 355.239 19.1101C 353.176 19.1101 352.078 20.2271 352.035 22.3991L 353.305 22.3991C 353.317 21.7821 353.375 21.4341 353.535 21.1181C 353.821 20.5591 354.457 20.2111 355.25 20.2111C 356.375 20.2111 357.055 20.8641 357.055 21.9301C 357.055 22.6411 356.797 23.0671 356.231 23.2931C 355.883 23.4341 355.438 23.4891 354.539 23.5041L 354.539 24.6101z"/>
<path style="stroke:#000000; stroke-width:0.10000000000000001; fill:none" d="M 232.442 0.524109L 393.981 0.524109L 377.188 38.1101L 215.649 38.1101L 232.442 0.524109z"/>
<path style="stroke:none; fill-rule:evenodd; fill:#000000" d="M 221.293 40.1101C 218.297 40.1101 216.262 42.3251 216.262 45.6101C 216.262 48.8911 218.297 51.1061 221.309 51.1061C 222.571 51.1061 223.703 50.7191 224.547 50.0001C 225.68 49.0391 226.352 47.4111 226.352 45.7001C 226.352 42.3171 224.36 40.1141 221.289 40.1141L 221.293 40.1101zM 221.293 41.2111C 223.578 41.2111 225.055 42.9691 225.055 45.6681C 225.055 48.2471 223.535 50.0081 221.305 50.0081C 219.063 50.0081 217.559 48.2501 217.559 45.6101C 217.559 42.9731 219.063 41.2111 221.293 41.2111z"/>
<path style="stroke:none; fill-rule:evenodd; fill:#000000" d="M 233.762 50.7821L 233.762 43.3131L 232.563 43.3131L 232.563 47.5081C 232.563 49.0201 231.762 50.0081 230.512 50.0081C 229.567 50.0081 228.965 49.4461 228.965 48.5551L 228.965 43.3131L 227.766 43.3131L 227.766 49.0711C 227.766 50.3091 228.696 51.1061 230.157 51.1061C 231.258 51.1061 231.961 50.7231 232.66 49.7391L 232.66 50.7781L 233.762 50.7821z"/>
<path style="stroke:none; fill-rule:evenodd; fill:#000000" d="M 238.559 43.3091L 237.262 43.3091L 237.262 41.1961L 236.063 41.1961L 236.063 43.3091L 235.063 43.3091L 235.063 44.3091L 236.063 44.3091L 236.063 49.9261C 236.063 50.6761 236.594 51.1021 237.555 51.1021C 237.848 51.1021 238.145 51.0751 238.559 51.0041L 238.559 50.0281C 238.395 50.0121 238.2 50.0081 237.957 50.0081C 237.414 50.0081 237.266 49.8711 237.266 49.3521L 237.266 44.3171L 238.563 44.3171L 238.559 43.3091z"/>
<path style="stroke:none; fill-rule:evenodd; fill:#000000" d="M 239.66 53.9501L 240.86 53.9501L 240.86 50.0121C 241.489 50.7741 242.188 51.1101 243.157 51.1101C 245.082 51.1101 246.356 49.5391 246.356 47.1331C 246.356 44.5981 245.129 43.0121 243.145 43.0121C 242.133 43.0121 241.317 43.4731 240.762 44.3681L 240.762 43.2271L 239.664 43.2271L 239.66 53.9501zM 242.965 44.1101C 244.289 44.1101 245.157 45.2861 245.157 47.1021C 245.157 48.8291 244.278 50.0041 242.965 50.0041C 241.696 50.0041 240.86 48.8441 240.86 47.0591C 240.86 45.2741 241.696 44.1101 242.965 44.1101z"/>
<path style="stroke:none; fill-rule:evenodd; fill:#000000" d="M 253.762 50.7821L 253.762 43.3131L 252.563 43.3131L 252.563 47.5081C 252.563 49.0201 251.762 50.0081 250.512 50.0081C 249.567 50.0081 248.965 49.4461 248.965 48.5551L 248.965 43.3131L 247.766 43.3131L 247.766 49.0711C 247.766 50.3091 248.696 51.1061 250.157 51.1061C 251.258 51.1061 251.961 50.7231 252.66 49.7391L 252.66 50.7781L 253.762 50.7821z"/>
<path style="stroke:none; fill-rule:evenodd; fill:#000000" d="M 258.559 43.3091L 257.262 43.3091L 257.262 41.1961L 256.063 41.1961L 256.063 43.3091L 255.063 43.3091L 255.063 44.3091L 256.063 44.3091L 256.063 49.9261C 256.063 50.6761 256.594 51.1021 257.555 51.1021C 257.848 51.1021 258.145 51.0751 258.559 51.0041L 258.559 50.0281C 258.395 50.0121 258.2 50.0081 257.957 50.0081C 257.414 50.0081 257.266 49.8711 257.266 49.3521L 257.266 44.3171L 258.563 44.3171L 258.559 43.3091z"/>
<path style="stroke:#000000; stroke-width:0.10000000000000001; fill:none" d="M 232.442 0.524109L 393.981 0.524109L 377.188 38.1101L 215.649 38.1101L 232.442 0.524109z"/>
<path style="stroke:none; fill-rule:evenodd; fill:#000000" d="M 3.16078 207.809L 6.48898 207.809C 7.31709 207.809 7.96938 207.567 8.53938 207.067C 9.17638 206.497 9.45738 205.825 9.45738 204.868C 9.45738 202.914 8.28938 201.813 6.20768 201.813L 1.86008 201.813L 1.86008 212.313L 3.15688 212.313L 3.16078 207.809zM 3.16078 206.711L 3.16078 202.914L 5.98898 202.914C 7.28578 202.914 8.05938 203.625 8.05938 204.813C 8.05938 205.997 7.28968 206.711 5.98898 206.711L 3.16078 206.711z"/>
<path style="stroke:none; fill-rule:evenodd; fill:#000000" d="M 12.7624 207.512L 17.8054 207.512L 17.8054 206.414L 12.7624 206.414L 12.7624 202.914L 18.4614 202.914L 18.4614 201.817L 11.4614 201.817L 11.4614 212.317L 12.7584 212.317L 12.7624 207.512z"/>
<path style="stroke:none; fill-rule:evenodd; fill:#000000" d="M 28.4894 205.071C 28.0714 202.747 26.7504 201.614 24.4504 201.614C 23.0434 201.614 21.9074 202.059 21.1294 202.922C 20.1844 203.957 19.6644 205.454 19.6644 207.153C 19.6644 208.879 20.1964 210.36 21.1884 211.383C 21.9924 212.215 23.0284 212.606 24.3914 212.606C 26.9504 212.606 28.3874 211.239 28.7034 208.477L 27.3174 208.477C 27.2034 209.207 27.0594 209.704 26.8404 210.129C 26.4074 211.004 25.5124 211.504 24.3874 211.504C 22.2934 211.504 20.9654 209.805 20.9654 207.137C 20.9654 204.395 22.2354 202.711 24.2744 202.711C 25.1254 202.711 25.9184 202.981 26.3524 203.407C 26.7394 203.782 26.9574 204.25 27.1174 205.067L 28.4894 205.071z"/>
<path style="stroke:none; fill-rule:evenodd; fill:#000000" d="M 29.0594 214.809L 37.6574 214.809L 37.6574 214.11L 29.0594 214.11L 29.0594 214.809z"/>
<path style="stroke:none; fill-rule:evenodd; fill:#000000" d="M 44.0864 212.309L 47.0594 203.516L 47.0594 212.309L 48.2584 212.309L 48.2584 201.809L 46.4144 201.809L 43.3874 210.954L 40.3054 201.809L 38.4654 201.809L 38.4654 212.309L 39.6644 212.309L 39.6644 203.516L 42.6644 212.309L 44.0864 212.309z"/>
<path style="stroke:none; fill-rule:evenodd; fill:#000000" d="M 56.9614 211.606C 56.8324 211.61 56.7784 211.61 56.7034 211.61C 56.2894 211.61 56.0634 211.395 56.0634 211.02L 56.0634 206.579C 56.0634 205.239 55.0864 204.516 53.2274 204.516C 52.1334 204.516 51.2274 204.836 50.7234 205.407C 50.3794 205.801 50.2354 206.239 50.2074 207L 51.4144 207C 51.5124 206.047 52.0594 205.614 53.1844 205.614C 54.2624 205.614 54.8674 206.016 54.8674 206.739L 54.8674 207.055C 54.8674 207.559 54.5674 207.774 53.6144 207.891C 51.9144 208.106 51.6574 208.164 51.1964 208.352C 50.3174 208.711 49.8714 209.387 49.8714 210.371C 49.8714 211.739 50.8214 212.606 52.3484 212.606C 53.2974 212.606 54.0594 212.286 54.9104 211.532C 54.9964 212.27 55.3714 212.606 56.1494 212.606C 56.3914 212.606 56.5784 212.579 56.9694 212.481L 56.9614 211.606zM 54.8604 209.899C 54.8604 210.289 54.7464 210.528 54.3794 210.848C 53.8834 211.282 53.2854 211.504 52.5714 211.504C 51.6214 211.504 51.0674 211.071 51.0674 210.329C 51.0674 209.559 51.6064 209.168 52.9074 208.985C 54.1924 208.817 54.4534 208.762 54.8644 208.582L 54.8604 209.899z"/>
<path style="stroke:none; fill-rule:evenodd; fill:#000000" d="M 59.5594 204.809L 58.3604 204.809L 58.3604 212.309L 59.5594 212.309L 59.5594 204.809zM 59.5594 201.809L 58.3604 201.809L 58.3604 203.325L 59.5594 203.325L 59.5594 201.809z"/>
<path style="stroke:none; fill-rule:evenodd; fill:#000000" d="M 61.4614 204.731L 61.4614 212.309L 62.6604 212.309L 62.6604 208.157C 62.6604 206.621 63.4654 205.614 64.7034 205.614C 65.6534 205.614 66.2584 206.188 66.2584 207.094L 66.2584 212.313L 67.4574 212.313L 67.4574 206.586C 67.4574 205.329 66.5244 204.516 65.0674 204.516C 63.9464 204.516 63.2234 204.95 62.5594 206.004L 62.5594 204.735L 61.4614 204.731z"/>
<path style="stroke:none; fill-rule:evenodd; fill:#000000" d="M 72.1604 204.809L 70.8644 204.809L 70.8644 202.696L 69.6644 202.696L 69.6644 204.809L 68.6644 204.809L 68.6644 205.809L 69.6644 205.809L 69.6644 211.426C 69.6644 212.176 70.1964 212.602 71.1574 212.602C 71.4504 212.602 71.7464 212.575 72.1604 212.504L 72.1604 211.528C 71.9964 211.512 71.8014 211.508 71.5594 211.508C 71.0164 211.508 70.8674 211.371 70.8674 210.852L 70.8674 205.817L 72.1644 205.817L 72.1604 204.809z"/>
<path style="stroke:none; fill-rule:evenodd; fill:#000000" d="M 218.262 207.809L 221.59 207.809C 222.418 207.809 223.071 207.567 223.641 207.067C 224.278 206.497 224.559 205.825 224.559 204.868C 224.559 202.914 223.391 201.813 221.309 201.813L 216.961 201.813L 216.961 212.313L 218.258 212.313L 218.262 207.809zM 218.262 206.711L 218.262 202.914L 221.09 202.914C 222.387 202.914 223.16 203.625 223.16 204.813C 223.16 205.997 222.391 206.711 221.09 206.711L 218.262 206.711z"/>
<path style="stroke:none; fill-rule:evenodd; fill:#000000" d="M 227.86 207.512L 232.903 207.512L 232.903 206.414L 227.86 206.414L 227.86 202.914L 233.559 202.914L 233.559 201.817L 226.559 201.817L 226.559 212.317L 227.856 212.317L 227.86 207.512z"/>
<path style="stroke:none; fill-rule:evenodd; fill:#000000" d="M 243.59 205.071C 243.172 202.747 241.852 201.614 239.551 201.614C 238.145 201.614 237.008 202.059 236.231 202.922C 235.285 203.957 234.766 205.454 234.766 207.153C 234.766 208.879 235.297 210.36 236.289 211.383C 237.094 212.215 238.129 212.606 239.492 212.606C 242.051 212.606 243.489 211.239 243.805 208.477L 242.418 208.477C 242.305 209.207 242.16 209.704 241.942 210.129C 241.508 211.004 240.614 211.504 239.489 211.504C 237.395 211.504 236.067 209.805 236.067 207.137C 236.067 204.395 237.336 202.711 239.375 202.711C 240.227 202.711 241.02 202.981 241.453 203.407C 241.84 203.782 242.059 204.25 242.219 205.067L 243.59 205.071z"/>
<path style="stroke:none; fill-rule:evenodd; fill:#000000" d="M 244.16 214.809L 252.758 214.809L 252.758 214.11L 244.16 214.11L 244.16 214.809z"/>
<path style="stroke:none; fill-rule:evenodd; fill:#000000" d="M 262.66 206.809L 258.262 206.809L 258.262 207.907L 261.461 207.907L 261.461 208.2C 261.461 210.118 260.09 211.504 258.192 211.504C 257.137 211.504 256.18 211.11 255.567 210.422C 254.883 209.661 254.469 208.387 254.469 207.067C 254.469 204.442 255.93 202.715 258.137 202.715C 259.727 202.715 260.875 203.575 261.16 205L 262.524 205C 262.157 202.852 260.555 201.614 258.168 201.614C 256.899 201.614 255.867 201.946 255.055 202.621C 253.856 203.625 253.168 205.254 253.168 207.141C 253.168 210.364 255.117 212.61 257.922 212.61C 259.328 212.61 260.453 212.086 261.465 210.965L 261.801 212.344L 262.664 212.344L 262.66 206.809z"/>
<path style="stroke:none; fill-rule:evenodd; fill:#000000" d="M 271.36 211.606C 271.231 211.61 271.176 211.61 271.102 211.61C 270.688 211.61 270.461 211.395 270.461 211.02L 270.461 206.579C 270.461 205.239 269.485 204.516 267.625 204.516C 266.532 204.516 265.625 204.836 265.121 205.407C 264.778 205.801 264.633 206.239 264.606 207L 265.813 207C 265.91 206.047 266.457 205.614 267.582 205.614C 268.66 205.614 269.266 206.016 269.266 206.739L 269.266 207.055C 269.266 207.559 268.965 207.774 268.012 207.891C 266.313 208.106 266.055 208.164 265.594 208.352C 264.715 208.711 264.27 209.387 264.27 210.371C 264.27 211.739 265.219 212.606 266.746 212.606C 267.696 212.606 268.457 212.286 269.309 211.532C 269.395 212.27 269.77 212.606 270.547 212.606C 270.789 212.606 270.977 212.579 271.367 212.481L 271.36 211.606zM 269.262 209.899C 269.262 210.289 269.149 210.528 268.782 210.848C 268.285 211.282 267.688 211.504 266.973 211.504C 266.024 211.504 265.469 211.071 265.469 210.329C 265.469 209.559 266.008 209.168 267.309 208.985C 268.594 208.817 268.856 208.762 269.266 208.582L 269.262 209.899z"/>
<path style="stroke:none; fill-rule:evenodd; fill:#000000" d="M 275.36 204.809L 274.063 204.809L 274.063 202.696L 272.864 202.696L 272.864 204.809L 271.864 204.809L 271.864 205.809L 272.864 205.809L 272.864 211.426C 272.864 212.176 273.395 212.602 274.356 212.602C 274.649 212.602 274.946 212.575 275.36 212.504L 275.36 211.528C 275.196 211.512 275 211.508 274.758 211.508C 274.215 211.508 274.067 211.371 274.067 210.852L 274.067 205.817L 275.364 205.817L 275.36 204.809z"/>
<path style="stroke:none; fill-rule:evenodd; fill:#000000" d="M 283.059 208.911C 283.059 207.758 282.973 207.067 282.758 206.504C 282.27 205.266 281.121 204.516 279.711 204.516C 277.614 204.516 276.262 206.129 276.262 208.606C 276.262 211.082 277.567 212.61 279.672 212.61C 281.391 212.61 282.582 211.645 282.883 210.024L 281.668 210.024C 281.336 211 280.657 211.508 279.688 211.508C 278.922 211.508 278.27 211.164 277.867 210.528C 277.582 210.098 277.477 209.664 277.465 208.911L 283.059 208.911zM 277.516 207.965C 277.614 206.571 278.465 205.664 279.672 205.664C 280.852 205.664 281.758 206.641 281.758 207.879C 281.758 207.907 281.758 207.934 281.746 207.965L 277.516 207.965z"/>
<path style="stroke:none; fill-rule:evenodd; fill:#000000" d="M 225.86 368.411L 221.461 368.411L 221.461 369.508L 224.66 369.508L 224.66 369.801C 224.66 371.719 223.289 373.106 221.391 373.106C 220.336 373.106 219.379 372.711 218.766 372.024C 218.082 371.262 217.668 369.989 217.668 368.668C 217.668 366.043 219.129 364.317 221.336 364.317C 222.926 364.317 224.074 365.176 224.36 366.602L 225.723 366.602C 225.356 364.454 223.754 363.215 221.367 363.215C 220.098 363.215 219.067 363.547 218.254 364.223C 217.055 365.227 216.367 366.856 216.367 368.743C 216.367 371.965 218.317 374.211 221.121 374.211C 222.528 374.211 223.653 373.688 224.664 372.567L 225 373.946L 225.864 373.946L 225.86 368.411z"/>
<path style="stroke:none; fill-rule:evenodd; fill:#000000" d="M 229.461 369.411L 232.789 369.411C 233.617 369.411 234.27 369.168 234.84 368.668C 235.477 368.098 235.758 367.426 235.758 366.469C 235.758 364.516 234.59 363.414 232.508 363.414L 228.16 363.414L 228.16 373.914L 229.457 373.914L 229.461 369.411zM 229.461 368.309L 229.461 364.512L 232.289 364.512C 233.586 364.512 234.36 365.223 234.36 366.411C 234.36 367.594 233.59 368.309 232.289 368.309L 229.461 368.309z"/>
<path style="stroke:none; fill-rule:evenodd; fill:#000000" d="M 238.66 366.411L 237.461 366.411L 237.461 373.911L 238.66 373.911L 238.66 366.411zM 238.66 363.411L 237.461 363.411L 237.461 364.926L 238.66 364.926L 238.66 363.411z"/>
<path style="stroke:none; fill-rule:evenodd; fill:#000000" d="M 242.957 363.411L 239.547 374.196L 240.336 374.196L 243.746 363.411L 242.957 363.411z"/>
<path style="stroke:none; fill-rule:evenodd; fill:#000000" d="M 252.16 366.497C 252.149 364.418 250.75 363.211 248.356 363.211C 246.078 363.211 244.664 364.399 244.664 366.317C 244.664 367.606 245.34 368.418 246.723 368.782L 249.328 369.477C 250.653 369.825 251.258 370.36 251.258 371.188C 251.258 371.75 250.957 372.332 250.512 372.653C 250.094 372.942 249.434 373.102 248.586 373.102C 247.45 373.102 246.676 372.825 246.168 372.207C 245.782 371.739 245.61 371.227 245.567 370.567L 244.367 370.567C 244.379 371.52 244.567 372.149 244.981 372.719C 245.696 373.688 246.899 374.2 248.485 374.2C 249.727 374.2 250.742 373.914 251.418 373.395C 252.117 372.832 252.563 371.895 252.563 370.989C 252.563 369.692 251.758 368.739 250.332 368.348L 247.696 367.645C 246.43 367.301 245.969 366.895 245.969 366.09C 245.969 365.024 246.91 364.317 248.328 364.317C 250.008 364.317 250.95 365.098 250.965 366.5L 252.16 366.497z"/>
<path style="stroke:none; fill-rule:evenodd; fill:#000000" d="M 262.559 363.411L 261.36 363.411L 261.36 371.997L 255.828 363.411L 254.364 363.411L 254.364 373.911L 255.563 373.911L 255.563 365.407L 261.035 373.911L 262.559 373.911L 262.559 363.411z"/>
<path style="stroke:none; fill-rule:evenodd; fill:#000000" d="M 264.66 366.329L 264.66 373.907L 265.86 373.907L 265.86 369.989C 265.86 368.911 266.133 368.204 266.707 367.786C 267.082 367.512 267.442 367.426 268.278 367.411L 268.278 366.157C 268.078 366.129 267.977 366.114 267.817 366.114C 267.039 366.114 266.45 366.575 265.758 367.704L 265.758 366.329L 264.66 366.329z"/>
<path style="stroke:none; fill-rule:evenodd; fill:#000000" d="M 9.05938 366.497C 9.04739 364.418 7.64909 363.211 5.25459 363.211C 2.97718 363.211 1.56318 364.399 1.56318 366.317C 1.56318 367.606 2.23898 368.418 3.62178 368.782L 6.22718 369.477C 7.55148 369.825 8.15738 370.36 8.15738 371.188C 8.15738 371.75 7.85638 372.332 7.41078 372.653C 6.99288 372.942 6.33268 373.102 5.48508 373.102C 4.34828 373.102 3.57488 372.825 3.06709 372.207C 2.68038 371.739 2.50848 371.227 2.46548 370.567L 1.26628 370.567C 1.27798 371.52 1.46548 372.149 1.87959 372.719C 2.59438 373.688 3.79758 374.2 5.38348 374.2C 6.62568 374.2 7.64128 373.914 8.31738 373.395C 9.01638 372.832 9.46138 371.895 9.46138 370.989C 9.46138 369.692 8.65738 368.739 7.23119 368.348L 4.59438 367.645C 3.32878 367.301 2.86788 366.895 2.86788 366.09C 2.86788 365.024 3.80928 364.317 5.22718 364.317C 6.90688 364.317 7.84838 365.098 7.86438 366.5L 9.05938 366.497z"/>
<path style="stroke:none; fill-rule:evenodd; fill:#000000" d="M 13.8604 366.411L 12.5634 366.411L 12.5634 364.297L 11.3644 364.297L 11.3644 366.411L 10.3644 366.411L 10.3644 367.411L 11.3644 367.411L 11.3644 373.028C 11.3644 373.778 11.8954 374.204 12.8564 374.204C 13.1494 374.204 13.4464 374.176 13.8604 374.106L 13.8604 373.129C 13.6964 373.114 13.5004 373.11 13.2584 373.11C 12.7154 373.11 12.5674 372.973 12.5674 372.454L 12.5674 367.418L 13.8644 367.418L 13.8604 366.411z"/>
<path style="stroke:none; fill-rule:evenodd; fill:#000000" d="M 15.1604 366.329L 15.1604 373.907L 16.3604 373.907L 16.3604 369.989C 16.3604 368.911 16.6334 368.204 17.2074 367.786C 17.5824 367.512 17.9424 367.426 18.7784 367.411L 18.7784 366.157C 18.5784 366.129 18.4774 366.114 18.3174 366.114C 17.5394 366.114 16.9504 366.575 16.2584 367.704L 16.2584 366.329L 15.1604 366.329z"/>
<path style="stroke:none; fill-rule:evenodd; fill:#000000" d="M 21.1604 366.411L 19.9614 366.411L 19.9614 373.911L 21.1604 373.911L 21.1604 366.411zM 21.1604 363.411L 19.9614 363.411L 19.9614 364.926L 21.1604 364.926L 21.1604 363.411z"/>
<path style="stroke:none; fill-rule:evenodd; fill:#000000" d="M 29.8604 373.207C 29.7314 373.211 29.6764 373.211 29.6024 373.211C 29.1884 373.211 28.9614 372.997 28.9614 372.621L 28.9614 368.18C 28.9614 366.84 27.9854 366.118 26.1254 366.118C 25.0324 366.118 24.1254 366.438 23.6214 367.008C 23.2784 367.403 23.1334 367.84 23.1064 368.602L 24.3134 368.602C 24.4104 367.649 24.9574 367.215 26.0824 367.215C 27.1604 367.215 27.7664 367.618 27.7664 368.34L 27.7664 368.657C 27.7664 369.161 27.4654 369.375 26.5124 369.493C 24.8134 369.707 24.5554 369.766 24.0944 369.954C 23.2154 370.313 22.7704 370.989 22.7704 371.973C 22.7704 373.34 23.7194 374.207 25.2464 374.207C 26.1964 374.207 26.9574 373.887 27.8094 373.133C 27.8954 373.871 28.2704 374.207 29.0474 374.207C 29.2894 374.207 29.4774 374.18 29.8674 374.082L 29.8604 373.207zM 27.7624 371.5C 27.7624 371.891 27.6494 372.129 27.2824 372.45C 26.7854 372.883 26.1884 373.106 25.4734 373.106C 24.5244 373.106 23.9694 372.672 23.9694 371.93C 23.9694 371.161 24.5084 370.77 25.8094 370.586C 27.0944 370.418 27.3564 370.364 27.7664 370.184L 27.7624 371.5z"/>
<path style="stroke:none; fill-rule:evenodd; fill:#000000" d="M 33.8604 366.411L 32.5634 366.411L 32.5634 364.297L 31.3644 364.297L 31.3644 366.411L 30.3644 366.411L 30.3644 367.411L 31.3644 367.411L 31.3644 373.028C 31.3644 373.778 31.8954 374.204 32.8564 374.204C 33.1494 374.204 33.4464 374.176 33.8604 374.106L 33.8604 373.129C 33.6964 373.114 33.5004 373.11 33.2584 373.11C 32.7154 373.11 32.5674 372.973 32.5674 372.454L 32.5674 367.418L 33.8644 367.418L 33.8604 366.411z"/>
<path style="stroke:none; fill-rule:evenodd; fill:#000000" d="M 41.0594 373.883L 41.0594 366.414L 39.8604 366.414L 39.8604 370.61C 39.8604 372.121 39.0594 373.11 37.8094 373.11C 36.8644 373.11 36.2624 372.547 36.2624 371.657L 36.2624 366.414L 35.0634 366.414L 35.0634 372.172C 35.0634 373.411 35.9924 374.207 37.4534 374.207C 38.5554 374.207 39.2584 373.825 39.9574 372.84L 39.9574 373.879L 41.0594 373.883z"/>
<path style="stroke:none; fill-rule:evenodd; fill:#000000" d="M 43.1604 366.329L 43.1604 373.907L 44.3604 373.907L 44.3604 369.18C 44.3604 368.09 45.1574 367.211 46.1454 367.211C 47.0434 367.211 47.5554 367.754 47.5554 368.719L 47.5554 373.907L 48.7544 373.907L 48.7544 369.18C 48.7544 368.09 49.5514 367.211 50.5394 367.211C 51.4264 367.211 51.9504 367.77 51.9504 368.719L 51.9504 373.907L 53.1494 373.907L 53.1494 368.223C 53.1494 366.864 52.3674 366.11 50.9504 366.11C 49.9384 366.11 49.3324 366.422 48.6214 367.301C 48.1764 366.469 47.5674 366.11 46.5824 366.11C 45.5714 366.11 44.9074 366.485 44.2544 367.395L 44.2544 366.325L 43.1604 366.329z"/>
<path style="stroke:none; fill-rule:evenodd; fill:#000000" d="M 334.66 106.911L 333.364 106.911L 333.364 104.797L 332.164 104.797L 332.164 106.911L 331.164 106.911L 331.164 107.911L 332.164 107.911L 332.164 113.528C 332.164 114.278 332.696 114.704 333.657 114.704C 333.95 114.704 334.246 114.676 334.66 114.606L 334.66 113.629C 334.496 113.614 334.301 113.61 334.059 113.61C 333.516 113.61 333.367 113.473 333.367 112.954L 333.367 107.918L 334.664 107.918L 334.66 106.911z"/>
<path style="stroke:none; fill-rule:evenodd; fill:#000000" d="M 347.461 102.911L 346.262 102.911L 346.262 113.411L 347.461 113.411L 347.461 110.477L 348.633 109.329L 351.196 113.414L 352.684 113.414L 349.586 108.508L 352.219 105.918L 350.672 105.918L 347.461 109.067L 347.461 102.911z"/>
<path style="stroke:none; fill-rule:evenodd; fill:#000000" d="M 268.742 110.61L 269.434 110.61C 270.832 110.61 271.559 111.243 271.559 112.465C 271.559 113.743 270.766 114.508 269.442 114.508C 268.059 114.508 267.383 113.821 267.293 112.344L 266.028 112.344C 266.082 113.157 266.227 113.684 266.473 114.137C 266.992 115.106 268 115.602 269.399 115.602C 271.504 115.602 272.86 114.356 272.86 112.434C 272.86 111.145 272.352 110.426 271.117 110.012C 272.078 109.641 272.559 108.922 272.559 107.907C 272.559 106.157 271.391 105.11 269.442 105.11C 267.379 105.11 266.282 106.227 266.239 108.399L 267.508 108.399C 267.52 107.782 267.578 107.434 267.739 107.118C 268.024 106.559 268.66 106.211 269.453 106.211C 270.578 106.211 271.258 106.864 271.258 107.93C 271.258 108.641 271 109.067 270.434 109.293C 270.086 109.434 269.641 109.489 268.742 109.504L 268.742 110.61z"/>
<path style="stroke:none; fill-rule:evenodd; fill:#000000" d="M 256.086 152.411L 250.684 152.411C 250.813 151.582 251.278 151.055 252.535 150.325L 253.981 149.555C 255.414 148.786 256.153 147.739 256.153 146.497C 256.153 145.653 255.805 144.868 255.2 144.325C 254.594 143.782 253.84 143.524 252.867 143.524C 251.567 143.524 250.594 143.985 250.028 144.844C 249.668 145.387 249.508 146.02 249.481 147.055L 250.754 147.055C 250.797 146.368 250.883 145.95 251.059 145.618C 251.391 145 252.059 144.625 252.824 144.625C 253.981 144.625 254.852 145.446 254.852 146.539C 254.852 147.344 254.375 148.036 253.461 148.551L 252.129 149.297C 249.985 150.504 249.364 151.469 249.246 153.715L 256.082 153.715L 256.086 152.411z"/>
<path style="stroke:none; fill-rule:evenodd; fill:#000000" d="M 235.762 184.047L 235.762 191.309L 236.961 191.309L 236.961 181.11L 236.125 181.11C 235.68 182.676 235.391 182.891 233.43 183.137L 233.43 184.039L 235.762 184.047z"/>
<path style="stroke:none; fill-rule:evenodd; fill:#000000" d="M 342.164 109.871C 342.149 108.364 341.176 107.516 339.442 107.516C 337.696 107.516 336.563 108.422 336.563 109.825C 336.563 111.008 337.168 111.567 338.961 112L 340.086 112.274C 340.922 112.473 341.254 112.778 341.254 113.325C 341.254 114.028 340.543 114.504 339.485 114.504C 338.832 114.504 338.282 114.321 337.977 114.012C 337.789 113.801 337.703 113.59 337.629 113.063L 336.352 113.063C 336.407 114.782 337.383 115.606 339.356 115.606C 341.25 115.606 342.461 114.668 342.461 113.211C 342.461 112.086 341.828 111.469 340.324 111.106L 339.168 110.832C 338.188 110.602 337.766 110.286 337.766 109.754C 337.766 109.063 338.387 108.614 339.371 108.614C 340.34 108.614 340.864 109.047 340.891 109.871L 342.164 109.871z"/>
<path style="stroke:none; fill-rule:evenodd; fill:#000000" d="M 306.961 146.446L 306.961 153.707L 308.16 153.707L 308.16 143.508L 307.324 143.508C 306.879 145.075 306.59 145.289 304.629 145.536L 304.629 146.438L 306.961 146.446z"/>
<path style="stroke:none; fill-rule:evenodd; fill:#000000" d="M 314.242 149.012L 314.934 149.012C 316.332 149.012 317.059 149.645 317.059 150.868C 317.059 152.145 316.266 152.911 314.942 152.911C 313.559 152.911 312.883 152.223 312.793 150.747L 311.528 150.747C 311.582 151.559 311.727 152.086 311.973 152.539C 312.492 153.508 313.5 154.004 314.899 154.004C 317.004 154.004 318.36 152.758 318.36 150.836C 318.36 149.547 317.852 148.829 316.617 148.414C 317.578 148.043 318.059 147.325 318.059 146.309C 318.059 144.559 316.891 143.512 314.942 143.512C 312.879 143.512 311.782 144.629 311.739 146.801L 313.008 146.801C 313.02 146.184 313.078 145.836 313.239 145.52C 313.524 144.961 314.16 144.614 314.953 144.614C 316.078 144.614 316.758 145.266 316.758 146.332C 316.758 147.043 316.5 147.469 315.934 147.696C 315.586 147.836 315.141 147.891 314.242 147.907L 314.242 149.012z"/>
<path style="stroke:none; fill-rule:evenodd; fill:#000000" d="M 290.16 184.047L 290.16 191.309L 291.36 191.309L 291.36 181.11L 290.524 181.11C 290.078 182.676 289.789 182.891 287.828 183.137L 287.828 184.039L 290.16 184.047z"/>
<path style="stroke:none; fill-rule:evenodd; fill:#000000" d="M 302.489 190.012L 297.086 190.012C 297.215 189.184 297.68 188.657 298.938 187.926L 300.383 187.157C 301.817 186.387 302.555 185.34 302.555 184.098C 302.555 183.254 302.207 182.469 301.602 181.926C 300.996 181.383 300.242 181.125 299.27 181.125C 297.969 181.125 296.996 181.586 296.43 182.446C 296.071 182.989 295.91 183.621 295.883 184.657L 297.157 184.657C 297.2 183.969 297.285 183.551 297.461 183.219C 297.793 182.602 298.461 182.227 299.227 182.227C 300.383 182.227 301.254 183.047 301.254 184.141C 301.254 184.946 300.778 185.637 299.864 186.153L 298.532 186.899C 296.387 188.106 295.766 189.071 295.649 191.317L 302.485 191.317L 302.489 190.012z"/>
</g>
</svg>