<?xml version="1.0" encoding="ISO-8859-1" standalone="yes"?>
<svg width="104.181" height="79.3213">
  <defs> 
    <marker id="ArrowEnd" viewBox="0 0 10 10" refX="0" refY="5" 
     markerUnits="strokeWidth" 
     markerWidth="4" 
     markerHeight="3" 
     orient="auto"> 
        <path d="M 0 0 L 10 5 L 0 10 z" /> 
    </marker>
    <marker id="ArrowStart" viewBox="0 0 10 10" refX="10" refY="5" 
     markerUnits="strokeWidth" 
     markerWidth="4" 
     markerHeight="3" 
     orient="auto"> 
        <path d="M 10 0 L 0 5 L 10 10 z" /> 
    </marker> </defs>
<g>
<path style="stroke:#000000; stroke-width:1.91229; fill:none" d="M 44.4477 57.8267C 44.4477 51.4907 39.311 46.354 32.9751 46.354C 26.6391 46.354 21.5024 51.4907 21.5024 57.8267C 21.5024 64.1626 26.6391 69.2993 32.9751 69.2993C 39.311 69.2993 44.4477 64.1626 44.4477 57.8267"/>
<path style="stroke:#000000; stroke-width:1.91229; fill:none" d="M 32.9673 21.4946C 32.9673 15.1587 27.8306 10.022 21.4946 10.022C 15.1587 10.022 10.022 15.1587 10.022 21.4946C 10.022 27.8306 15.1587 32.9673 21.4946 32.9673C 27.8306 32.9673 32.9673 27.8306 32.9673 21.4946"/>
<path style="stroke:#000000; stroke-width:1.91229; fill:none" d="M 52.0884 46.354L 52.0884 32.9712"/>
<path style="stroke:#000000; stroke-width:1.91229; fill:none" d="M 50.1782 40.6157L 52.0884 32.9673L 53.9985 40.6157"/>
<path style="stroke:#000000; stroke-width:1.91229; fill:none" d="M 63.5649 57.8267C 63.5649 51.4907 58.4282 46.354 52.0923 46.354C 45.7563 46.354 40.6196 51.4907 40.6196 57.8267C 40.6196 64.1626 45.7563 69.2993 52.0923 69.2993C 58.4282 69.2993 63.5649 64.1626 63.5649 57.8267"/>
<path style="stroke:#000000; stroke-width:1.91229; fill:none" d="M 63.5649 21.4946C 63.5649 15.1587 58.4282 10.022 52.0923 10.022C 45.7563 10.022 40.6196 15.1587 40.6196 21.4946C 40.6196 27.8306 45.7563 32.9673 52.0923 32.9673C 58.4282 32.9673 63.5649 27.8306 63.5649 21.4946"/>
<path style="stroke:#000000; stroke-width:1.91229; fill:none" d="M 94.1588 21.4946C 94.1588 15.1587 89.0218 10.022 82.686 10.022C 76.3501 10.022 71.2134 15.1587 71.2134 21.4946C 71.2134 27.8306 76.3501 32.9673 82.686 32.9673C 89.0218 32.9673 94.1588 27.8306 94.1588 21.4946"/>
<path style="stroke:#000000; stroke-width:1.91229; fill:none" d="M 82.6821 57.8267C 82.6821 51.4907 77.5454 46.354 71.2095 46.354C 64.8735 46.354 59.7368 51.4907 59.7368 57.8267C 59.7368 64.1626 64.8735 69.2993 71.2095 69.2993C 77.5454 69.2993 82.6821 64.1626 82.6821 57.8267"/>
<path style="stroke:none; fill-rule:evenodd; fill:#000000" d="M 87.0845 68.2212L 88.8813 68.2212L 88.8813 66.4243L 87.0845 66.4243L 87.0845 68.2212z"/>
<path style="stroke:none; fill-rule:evenodd; fill:#000000" d="M 91.7838 68.2212L 93.5808 68.2212L 93.5808 66.4243L 91.7838 66.4243L 91.7838 68.2212z"/>
<path style="stroke:none; fill-rule:evenodd; fill:#000000" d="M 96.5848 68.2212L 98.3818 68.2212L 98.3818 66.4243L 96.5848 66.4243L 96.5848 68.2212z"/>
<path style="stroke:#000000; stroke-width:1.91229; fill:none" d="M 71.2563 46.3228L 82.7329 32.9321"/>
<path style="stroke:#000000; stroke-width:1.91229; fill:none" d="M 76.3071 37.4946L 82.7329 32.9321L 79.2095 39.9829"/>
<path style="stroke:#000000; stroke-width:1.91229; fill:none" d="M 32.9907 46.3228L 21.5141 32.9321"/>
<path style="stroke:#000000; stroke-width:1.91229; fill:none" d="M 25.0376 39.9829L 21.5141 32.9321L 27.9399 37.4946"/>
<path style="stroke:none; fill-rule:evenodd; fill:#000000" d="M 16.3852 21.3228L 19.0259 21.3228C 19.6821 21.3228 20.2016 21.1314 20.6509 20.729C 21.1587 20.2759 21.3774 19.7368 21.3774 18.9712C 21.3774 17.4087 20.4399 16.5259 18.768 16.5259L 15.2798 16.5259L 15.2798 24.9243L 16.3774 24.9243L 16.3852 21.3228zM 16.3852 20.4243L 16.3852 17.4243L 18.6352 17.4243C 19.6665 17.4243 20.2798 17.9868 20.2798 18.9243C 20.2798 19.8579 19.6665 20.4243 18.6352 20.4243L 16.3852 20.4243z"/>
<path style="stroke:none; fill-rule:evenodd; fill:#000000" d="M 24.9868 19.1548L 24.9868 24.9204L 25.9868 24.9204L 25.9868 16.8228L 25.3188 16.8228C 24.9634 18.065 24.7329 18.2407 23.1626 18.4321L 23.1626 19.1509L 24.9868 19.1548z"/>
<path style="stroke:none; fill-rule:evenodd; fill:#000000" d="M 46.9868 21.3228L 49.6274 21.3228C 50.2837 21.3228 50.8032 21.1314 51.2524 20.729C 51.7602 20.2759 51.979 19.7368 51.979 18.9712C 51.979 17.4087 51.0415 16.5259 49.3696 16.5259L 45.8813 16.5259L 45.8813 24.9243L 46.979 24.9243L 46.9868 21.3228zM 46.9868 20.4243L 46.9868 17.4243L 49.2368 17.4243C 50.268 17.4243 50.8813 17.9868 50.8813 18.9243C 50.8813 19.8579 50.268 20.4243 49.2368 20.4243L 46.9868 20.4243z"/>
<path style="stroke:none; fill-rule:evenodd; fill:#000000" d="M 58.3266 23.9243L 54.1001 23.9243C 54.2016 23.2642 54.5649 22.8423 55.5493 22.2603L 56.6821 21.647C 57.8032 21.0337 58.3813 20.2017 58.3813 19.2056C 58.3813 18.5337 58.1118 17.9048 57.6352 17.4712C 57.1626 17.0376 56.5727 16.8345 55.811 16.8345C 54.7915 16.8345 54.0337 17.1939 53.5923 17.8735C 53.311 18.3032 53.186 18.7993 53.1626 19.6157L 54.1626 19.6157C 54.1938 19.0806 54.2641 18.7564 54.4009 18.5024C 54.6626 18.0259 55.186 17.7329 55.7876 17.7329C 56.6977 17.7329 57.3813 18.3814 57.3813 19.2485C 57.3813 19.8853 57.0063 20.4321 56.2876 20.8423L 55.2407 21.4321C 53.5571 22.3853 53.0649 23.1509 52.9751 24.9243L 58.3266 24.9243L 58.3266 23.9243z"/>
<path style="stroke:none; fill-rule:evenodd; fill:#000000" d="M 77.5845 21.3228L 80.2251 21.3228C 80.8813 21.3228 81.4009 21.1314 81.8501 20.729C 82.3579 20.2759 82.5766 19.7368 82.5766 18.9712C 82.5766 17.4087 81.6391 16.5259 79.9673 16.5259L 76.479 16.5259L 76.479 24.9243L 77.5766 24.9243L 77.5845 21.3228zM 77.5845 20.4243L 77.5845 17.4243L 79.8345 17.4243C 80.8657 17.4243 81.479 17.9868 81.479 18.9243C 81.479 19.8579 80.8657 20.4243 79.8345 20.4243L 77.5845 20.4243z"/>
<path style="stroke:none; fill-rule:evenodd; fill:#000000" d="M 85.7212 21.2212L 86.2759 21.2212C 87.4009 21.2212 87.979 21.7251 87.979 22.6939C 87.979 23.7095 87.3462 24.315 86.2837 24.315C 85.1782 24.315 84.6352 23.7564 84.5649 22.5532L 83.5493 22.5532C 83.5923 23.2134 83.7095 23.647 83.9009 24.0181C 84.311 24.8071 85.1157 25.2134 86.2251 25.2134C 87.897 25.2134 88.9751 24.2173 88.9751 22.6782C 88.9751 21.647 88.5766 21.0728 87.6079 20.7407C 88.3188 20.4439 88.6782 19.8696 88.6782 19.0571C 88.6782 17.6587 87.7602 16.8228 86.2329 16.8228C 84.6157 16.8228 83.7563 17.7056 83.7212 19.4126L 84.7212 19.4126C 84.729 18.936 84.7759 18.6704 84.9009 18.4243C 85.1274 17.9907 85.6274 17.7251 86.2524 17.7251C 87.1391 17.7251 87.6743 18.2407 87.6743 19.0806C 87.6743 19.6392 87.4712 19.9751 87.0337 20.1548C 86.7641 20.2642 86.4165 20.311 85.7134 20.3228L 85.7212 21.2212z"/>
<path style="stroke:none; fill-rule:evenodd; fill:#000000" d="M 27.8852 57.6235L 30.5259 57.6235C 31.1821 57.6235 31.7016 57.4321 32.1509 57.0298C 32.6587 56.5767 32.8774 56.0376 32.8774 55.272C 32.8774 53.7095 31.9399 52.8267 30.268 52.8267L 26.7798 52.8267L 26.7798 61.2251L 27.8774 61.2251L 27.8852 57.6235zM 27.8852 56.7212L 27.8852 53.7212L 30.1352 53.7212C 31.1665 53.7212 31.7798 54.2837 31.7798 55.2212C 31.7798 56.1548 31.1665 56.7212 30.1352 56.7212L 27.8852 56.7212z"/>
<path style="stroke:none; fill-rule:evenodd; fill:#000000" d="M 36.4868 55.4556L 36.4868 61.2212L 37.4868 61.2212L 37.4868 53.1235L 36.8188 53.1235C 36.4634 54.3657 36.2329 54.5415 34.6626 54.7329L 34.6626 55.4517L 36.4868 55.4556z"/>
<path style="stroke:none; fill-rule:evenodd; fill:#000000" d="M 46.9868 57.6235L 49.6274 57.6235C 50.2837 57.6235 50.8032 57.4321 51.2524 57.0298C 51.7602 56.5767 51.979 56.0376 51.979 55.272C 51.979 53.7095 51.0415 52.8267 49.3696 52.8267L 45.8813 52.8267L 45.8813 61.2251L 46.979 61.2251L 46.9868 57.6235zM 46.9868 56.7212L 46.9868 53.7212L 49.2368 53.7212C 50.268 53.7212 50.8813 54.2837 50.8813 55.2212C 50.8813 56.1548 50.268 56.7212 49.2368 56.7212L 46.9868 56.7212z"/>
<path style="stroke:none; fill-rule:evenodd; fill:#000000" d="M 58.3266 60.2212L 54.1001 60.2212C 54.2016 59.561 54.5649 59.1392 55.5493 58.5571L 56.6821 57.9439C 57.8032 57.3306 58.3813 56.4985 58.3813 55.5024C 58.3813 54.8306 58.1118 54.2017 57.6352 53.7681C 57.1626 53.3345 56.5727 53.1314 55.811 53.1314C 54.7915 53.1314 54.0337 53.4907 53.5923 54.1704C 53.311 54.6001 53.186 55.0962 53.1626 55.9126L 54.1626 55.9126C 54.1938 55.3774 54.2641 55.0532 54.4009 54.7993C 54.6626 54.3228 55.186 54.0298 55.7876 54.0298C 56.6977 54.0298 57.3813 54.6782 57.3813 55.5454C 57.3813 56.1821 57.0063 56.729 56.2876 57.1392L 55.2407 57.729C 53.5571 58.6821 53.0649 59.4478 52.9751 61.2212L 58.3266 61.2212L 58.3266 60.2212z"/>
<path style="stroke:none; fill-rule:evenodd; fill:#000000" d="M 66.186 57.6235L 68.8266 57.6235C 69.4829 57.6235 70.0024 57.4321 70.4516 57.0298C 70.9595 56.5767 71.1782 56.0376 71.1782 55.272C 71.1782 53.7095 70.2407 52.8267 68.5688 52.8267L 65.0806 52.8267L 65.0806 61.2251L 66.1782 61.2251L 66.186 57.6235zM 66.186 56.7212L 66.186 53.7212L 68.436 53.7212C 69.4673 53.7212 70.0806 54.2837 70.0806 55.2212C 70.0806 56.1548 69.4673 56.7212 68.436 56.7212L 66.186 56.7212z"/>
<path style="stroke:none; fill-rule:evenodd; fill:#000000" d="M 74.2212 57.522L 74.7759 57.522C 75.9009 57.522 76.479 58.0259 76.479 58.9946C 76.479 60.0103 75.8462 60.6157 74.7837 60.6157C 73.6782 60.6157 73.1352 60.0571 73.0649 58.854L 72.0493 58.854C 72.0923 59.5142 72.2095 59.9478 72.4009 60.3189C 72.811 61.1079 73.6157 61.5142 74.7251 61.5142C 76.397 61.5142 77.4751 60.5181 77.4751 58.979C 77.4751 57.9478 77.0766 57.3735 76.1079 57.0415C 76.8188 56.7446 77.1782 56.1704 77.1782 55.3579C 77.1782 53.9595 76.2602 53.1235 74.7329 53.1235C 73.1157 53.1235 72.2563 54.0064 72.2212 55.7134L 73.2212 55.7134C 73.229 55.2368 73.2759 54.9712 73.4009 54.7251C 73.6274 54.2915 74.1274 54.0259 74.7524 54.0259C 75.6391 54.0259 76.1743 54.5415 76.1743 55.3814C 76.1743 55.94 75.9712 56.2759 75.5337 56.4556C 75.2641 56.565 74.9165 56.6118 74.2134 56.6235L 74.2212 57.522z"/>
</g>
</svg>