<?xml version="1.0" encoding="UTF-8" standalone="no"?>
<!-- Created with Inkscape (http://www.inkscape.org/) -->
<svg
   xmlns:dc="http://purl.org/dc/elements/1.1/"
   xmlns:cc="http://creativecommons.org/ns#"
   xmlns:rdf="http://www.w3.org/1999/02/22-rdf-syntax-ns#"
   xmlns:svg="http://www.w3.org/2000/svg"
   xmlns="http://www.w3.org/2000/svg"
   xmlns:xlink="http://www.w3.org/1999/xlink"
   xmlns:sodipodi="http://sodipodi.sourceforge.net/DTD/sodipodi-0.dtd"
   xmlns:inkscape="http://www.inkscape.org/namespaces/inkscape"
   width="744.09448819"
   height="1052.3622047"
   id="svg2"
   sodipodi:version="0.32"
   inkscape:version="0.46"
   sodipodi:docname="fig_divLaborStriatum.svg"
   inkscape:output_extension="org.inkscape.output.svg.inkscape">
  <defs
     id="defs4">
    <linearGradient
       id="linearGradient3329">
      <stop
         id="stop3331"
         offset="0"
         style="stop-color:#d6db7a;stop-opacity:1;" />
      <stop
         id="stop3333"
         offset="1"
         style="stop-color:#d4db7a;stop-opacity:0;" />
    </linearGradient>
    <linearGradient
       id="linearGradient6192">
      <stop
         style="stop-color:#dbb47a;stop-opacity:1;"
         offset="0"
         id="stop6194" />
      <stop
         style="stop-color:#ffb500;stop-opacity:0;"
         offset="1"
         id="stop6196" />
    </linearGradient>
    <linearGradient
       id="linearGradient6186">
      <stop
         id="stop6188"
         offset="0"
         style="stop-color:#1359ca;stop-opacity:0.52549022;" />
      <stop
         id="stop6190"
         offset="1"
         style="stop-color:#81a7ef;stop-opacity:0;" />
    </linearGradient>
    <linearGradient
       id="linearGradient6157">
      <stop
         style="stop-color:#db7a7a;stop-opacity:1;"
         offset="0"
         id="stop6159" />
      <stop
         style="stop-color:#db7a7a;stop-opacity:0;"
         offset="1"
         id="stop6161" />
    </linearGradient>
    <marker
       inkscape:stockid="Arrow1Lend"
       orient="auto"
       refY="0.0"
       refX="0.0"
       id="Arrow1Lend"
       style="overflow:visible;">
      <path
         id="path3283"
         d="M 0.0,0.0 L 5.0,-5.0 L -12.5,0.0 L 5.0,5.0 L 0.0,0.0 z "
         style="fill-rule:evenodd;stroke:#000000;stroke-width:1.0pt;marker-start:none;"
         transform="scale(0.8) rotate(180) translate(12.5,0)" />
    </marker>
    <marker
       inkscape:stockid="Arrow1Lstart"
       orient="auto"
       refY="0.0"
       refX="0.0"
       id="Arrow1Lstart"
       style="overflow:visible">
      <path
         id="path3280"
         d="M 0.0,0.0 L 5.0,-5.0 L -12.5,0.0 L 5.0,5.0 L 0.0,0.0 z "
         style="fill-rule:evenodd;stroke:#000000;stroke-width:1.0pt;marker-start:none"
         transform="scale(0.8) translate(12.5,0)" />
    </marker>
    <inkscape:perspective
       sodipodi:type="inkscape:persp3d"
       inkscape:vp_x="0 : 526.18109 : 1"
       inkscape:vp_y="0 : 1000 : 0"
       inkscape:vp_z="744.09448 : 526.18109 : 1"
       inkscape:persp3d-origin="372.04724 : 350.78739 : 1"
       id="perspective10" />
    <inkscape:perspective
       id="perspective2467"
       inkscape:persp3d-origin="372.04724 : 350.78739 : 1"
       inkscape:vp_z="744.09448 : 526.18109 : 1"
       inkscape:vp_y="0 : 1000 : 0"
       inkscape:vp_x="0 : 526.18109 : 1"
       sodipodi:type="inkscape:persp3d" />
    <radialGradient
       inkscape:collect="always"
       xlink:href="#linearGradient6157"
       id="radialGradient6163"
       cx="244.28572"
       cy="350.21933"
       fx="244.28572"
       fy="350.21933"
       r="82.85714"
       gradientTransform="matrix(1,0,0,1.0689655,0,-24.153063)"
       gradientUnits="userSpaceOnUse" />
    <radialGradient
       inkscape:collect="always"
       xlink:href="#linearGradient6186"
       id="radialGradient6180"
       gradientUnits="userSpaceOnUse"
       gradientTransform="matrix(1,0,0,1.0689655,0,-24.153063)"
       cx="244.28572"
       cy="350.21933"
       fx="244.28572"
       fy="350.21933"
       r="82.85714" />
    <radialGradient
       inkscape:collect="always"
       xlink:href="#linearGradient6192"
       id="radialGradient6184"
       gradientUnits="userSpaceOnUse"
       gradientTransform="matrix(1,0,0,1.0689655,0,-24.153063)"
       cx="244.28572"
       cy="350.21933"
       fx="244.28572"
       fy="350.21933"
       r="82.85714" />
    <radialGradient
       inkscape:collect="always"
       xlink:href="#linearGradient3329"
       id="radialGradient2545"
       gradientUnits="userSpaceOnUse"
       gradientTransform="matrix(1,0,0,1.0689655,0,-24.153063)"
       cx="244.28572"
       cy="350.21933"
       fx="244.28572"
       fy="350.21933"
       r="82.85714" />
  </defs>
  <sodipodi:namedview
     id="base"
     pagecolor="#ffffff"
     bordercolor="#666666"
     borderopacity="1.0"
     gridtolerance="10000"
     guidetolerance="10"
     objecttolerance="10"
     inkscape:pageopacity="0.0"
     inkscape:pageshadow="2"
     inkscape:zoom="0.7"
     inkscape:cx="340.49912"
     inkscape:cy="610.84012"
     inkscape:document-units="px"
     inkscape:current-layer="layer1"
     showgrid="false"
     inkscape:window-width="1203"
     inkscape:window-height="801"
     inkscape:window-x="1822"
     inkscape:window-y="82" />
  <metadata
     id="metadata7">
    <rdf:RDF>
      <cc:Work
         rdf:about="">
        <dc:format>image/svg+xml</dc:format>
        <dc:type
           rdf:resource="http://purl.org/dc/dcmitype/StillImage" />
      </cc:Work>
    </rdf:RDF>
  </metadata>
  <g
     inkscape:label="Layer 1"
     inkscape:groupmode="layer"
     id="layer1">
    <path
       style="fill:none;fill-rule:evenodd;stroke:#000000;stroke-width:2;stroke-linecap:butt;stroke-linejoin:miter;stroke-opacity:1;stroke-miterlimit:4;stroke-dasharray:none"
       d="M 143.57143,597.36218 C 172.14286,510.93361 142.14285,473.07647 145.71428,440.93361 C 149.28571,408.79075 167.85714,407.36218 187.14286,348.07647 C 207.03547,286.92511 186.42857,285.21932 230,270.21932 C 273.57143,255.21932 317.85714,253.07647 340,297.36218 C 362.14286,341.6479 455,360.93361 455,360.93361 C 455,360.93361 525,408.79075 495.71429,513.79075 C 466.42857,618.79075 336.42857,696.6479 336.42857,696.6479 L 211.36075,616.06536 L 143.57143,597.36218 z"
       id="path2473"
       sodipodi:nodetypes="csssscsccc"
       inkscape:export-filename="/home/pauli/svn/docs/figs/fig_divLaborStriatum.png"
       inkscape:export-xdpi="600"
       inkscape:export-ydpi="600" />
    <text
       xml:space="preserve"
       style="font-size:16px;font-style:normal;font-variant:normal;font-weight:normal;font-stretch:normal;text-align:start;line-height:125%;writing-mode:lr-tb;text-anchor:start;fill:#000000;fill-opacity:1;stroke:none;stroke-width:1px;stroke-linecap:butt;stroke-linejoin:miter;stroke-opacity:1;font-family:Bitstream Vera Sans;-inkscape-font-specification:Bitstream Vera Sans"
       x="64.900116"
       y="253.79076"
       id="text3245"
       sodipodi:linespacing="125%"
       inkscape:export-filename="/home/pauli/svn/docs/figs/fig_divLaborStriatum.png"
       inkscape:export-xdpi="600"
       inkscape:export-ydpi="600"><tspan
         sodipodi:role="line"
         id="tspan3247"
         x="64.900116"
         y="253.79076">Dorsal</tspan></text>
    <text
       xml:space="preserve"
       style="font-size:16px;font-style:normal;font-variant:normal;font-weight:normal;font-stretch:normal;text-align:start;line-height:125%;writing-mode:lr-tb;text-anchor:start;fill:#000000;fill-opacity:1;stroke:none;stroke-width:1px;stroke-linecap:butt;stroke-linejoin:miter;stroke-opacity:1;font-family:Bitstream Vera Sans;-inkscape-font-specification:Bitstream Vera Sans"
       x="62.857143"
       y="662.36218"
       id="text3249"
       sodipodi:linespacing="125%"
       inkscape:export-filename="/home/pauli/svn/docs/figs/fig_divLaborStriatum.png"
       inkscape:export-xdpi="600"
       inkscape:export-ydpi="600"><tspan
         sodipodi:role="line"
         id="tspan3251"
         x="62.857143"
         y="662.36218">Ventral</tspan></text>
    <text
       xml:space="preserve"
       style="font-size:16px;font-style:normal;font-variant:normal;font-weight:normal;font-stretch:normal;text-align:start;line-height:125%;writing-mode:lr-tb;text-anchor:start;fill:#000000;fill-opacity:1;stroke:none;stroke-width:1px;stroke-linecap:butt;stroke-linejoin:miter;stroke-opacity:1;font-family:Bitstream Vera Sans;-inkscape-font-specification:Bitstream Vera Sans"
       x="77.14286"
       y="714.86218"
       id="text3253"
       sodipodi:linespacing="125%"
       inkscape:export-filename="/home/pauli/svn/docs/figs/fig_divLaborStriatum.png"
       inkscape:export-xdpi="600"
       inkscape:export-ydpi="600"><tspan
         sodipodi:role="line"
         id="tspan3255"
         x="77.14286"
         y="714.86218">Medial</tspan></text>
    <text
       xml:space="preserve"
       style="font-size:16px;font-style:normal;font-variant:normal;font-weight:normal;font-stretch:normal;text-align:start;line-height:125%;writing-mode:lr-tb;text-anchor:start;fill:#000000;fill-opacity:1;stroke:none;stroke-width:1px;stroke-linecap:butt;stroke-linejoin:miter;stroke-opacity:1;font-family:Bitstream Vera Sans;-inkscape-font-specification:Bitstream Vera Sans"
       x="473.57144"
       y="714.86218"
       id="text3257"
       sodipodi:linespacing="125%"
       inkscape:export-filename="/home/pauli/svn/docs/figs/fig_divLaborStriatum.png"
       inkscape:export-xdpi="600"
       inkscape:export-ydpi="600"><tspan
         sodipodi:role="line"
         id="tspan3259"
         x="473.57144"
         y="714.86218">Lateral</tspan></text>
    <path
       style="fill:none;fill-rule:evenodd;stroke:#000000;stroke-width:1px;stroke-linecap:butt;stroke-linejoin:miter;stroke-opacity:1"
       d="M 200,610.21933 C 200.82151,609.39782 195.98773,602.25059 195,600.93361 C 193.33122,598.70857 192.85714,593.83347 192.85714,590.93361 C 192.85714,587.89078 192.20851,584.24243 192.85714,581.6479 C 193.17856,580.36224 200.97686,580.93361 202.85714,580.93361 C 205.51913,580.93361 202.61905,575.45742 201.42857,573.07647 C 199.73978,569.69888 200.05177,567.97293 201.42857,565.21932 C 202.29177,563.49293 210.40097,564.50504 212.14286,564.50504 C 213.32266,564.50504 217.04459,569.4559 218.57143,570.21932 C 221.79219,571.82971 224.34227,574.53332 227.14286,575.93361 C 229.56872,577.14654 232.13264,580.03309 234.28571,581.6479 C 236.87181,583.58747 238.665,585.40647 240,588.07647 C 242.25005,592.57657 238.57339,593.61071 236.42857,595.21932 C 233.6689,597.28908 232.80223,598.07647 228.57143,598.07647 C 224.5354,598.07647 221.83249,595.06414 219.28571,593.79075 C 217.11395,592.70487 219.25742,598.99113 220.71429,600.93361 C 222.15492,602.85445 218.93299,609.4962 218.57143,610.21933 C 217.53103,612.30011 215.32884,614.89048 213.57143,616.6479 C 213.23471,616.98461 212.61905,616.6479 212.14286,616.6479"
       id="path3263"
       inkscape:export-filename="/home/pauli/svn/docs/figs/fig_divLaborStriatum.png"
       inkscape:export-xdpi="600"
       inkscape:export-ydpi="600" />
    <path
       style="fill:none;fill-rule:evenodd;stroke:#000000;stroke-width:1px;stroke-linecap:butt;stroke-linejoin:miter;stroke-opacity:1"
       d="M 251.42857,577.36218 C 250.32955,578.4612 245.47504,569.2658 244.28571,568.07647 C 241.66278,565.45353 239.30823,562.38469 237.14286,560.21932 C 234.53726,557.61373 231.14643,555.00772 228.57143,553.07647 C 225.21032,550.55563 223.46082,549.80688 220,548.07647 C 216.17602,546.16448 214.02942,547.87477 212.85714,550.21932 C 211.05357,553.82646 214.59018,556.95237 215.71429,558.07647 C 217.84394,560.20612 219.59904,563.38979 222.14286,565.93361 C 225.49608,569.28683 228.32177,572.17494 231.42857,574.50504 C 234.04991,576.47105 237.63,576.89147 240,578.07647 C 242.73719,579.44506 245.5051,580.21932 249.28571,580.21932 C 250.47619,580.21932 250.71429,578.31456 251.42857,577.36218 z"
       id="path3265"
       inkscape:export-filename="/home/pauli/svn/docs/figs/fig_divLaborStriatum.png"
       inkscape:export-xdpi="600"
       inkscape:export-ydpi="600" />
    <path
       style="fill:none;fill-rule:evenodd;stroke:#000000;stroke-width:1px;stroke-linecap:butt;stroke-linejoin:miter;stroke-opacity:1"
       d="M 260.71429,560.93361 C 264.02201,560.93361 255.10138,557.41287 252.14286,555.93361 C 248.69676,554.21056 248.21742,553.43674 245.71429,550.93361 C 243.1569,548.37622 241.489,546.05446 240,543.07647 C 238.21391,539.50428 237.85714,536.52058 237.85714,532.36218 C 237.85714,527.94213 238.66678,525.7429 240,523.07647 C 240.96604,521.14438 245.33804,519.95624 247.14286,519.50504 C 250.60897,518.63851 252.05585,517.7102 252.85714,514.50504 C 253.76135,510.8882 252.11744,510.24474 255,507.36218 C 257.7062,504.65598 262.40802,509.7702 262.85714,510.21932 C 264.87852,512.2407 268.8999,513.85853 270.71429,515.21932 C 273.37776,517.21693 276.14533,517.5777 278.57143,518.79075 C 281.53374,520.27191 284.1017,522.70844 285.71429,525.93361 C 287.56319,529.63142 285.65064,532.61676 285,535.21932 C 284.11324,538.76636 281.48894,540.41299 277.85714,539.50504 C 273.6485,538.45288 274.42895,534.93285 272.14286,539.50504 C 271.48479,540.82118 273.57143,546.84067 273.57143,549.50504 C 273.57143,552.29187 268.20691,551.11587 265.71429,552.36218 C 260.94323,554.74771 263.27746,561.788 256.42857,559.50504 C 252.74863,558.27839 250.75318,556.12191 247.14286,555.21932 C 246.68088,555.10383 246.19048,555.21932 245.71429,555.21932"
       id="path3267"
       inkscape:export-filename="/home/pauli/svn/docs/figs/fig_divLaborStriatum.png"
       inkscape:export-xdpi="600"
       inkscape:export-ydpi="600" />
    <path
       style="fill:none;fill-rule:evenodd;stroke:#000000;stroke-width:1px;stroke-linecap:butt;stroke-linejoin:miter;stroke-opacity:1"
       d="M 298.57143,509.50504 C 296.3821,508.95771 292.27665,506.00051 289.28571,504.50504 C 286.68908,503.20672 284.52954,500.58076 282.14286,498.79075 C 279.25937,496.62814 277.29378,495.37025 275,493.07647 C 272.89913,490.97559 271.01962,489.09609 269.28571,487.36218 C 267.02541,485.10188 266.90488,481.17194 265.71429,478.79075 C 264.16957,475.70133 265.14887,471.05241 265.71429,468.79075 C 266.2865,466.50192 271.17808,465.81766 273.57143,465.21932 C 276.96314,464.3714 281.54977,465.63707 283.57143,466.6479 C 287.25584,468.4901 289.99583,469.50295 292.85714,470.93361 C 296.39273,472.70141 296.7426,473.3905 300,476.6479 C 302.45796,479.10586 302.14286,482.82697 302.14286,486.6479 C 302.14286,489.5646 306.10649,492.43231 307.14286,494.50504 C 309.11307,498.44546 307.44506,500.42536 305,501.6479 C 301.83422,503.23079 301.36269,510.90067 295.71429,508.07647"
       id="path3269"
       inkscape:export-filename="/home/pauli/svn/docs/figs/fig_divLaborStriatum.png"
       inkscape:export-xdpi="600"
       inkscape:export-ydpi="600" />
    <path
       style="fill:none;fill-rule:evenodd;stroke:#000000;stroke-width:1px;stroke-linecap:butt;stroke-linejoin:miter;stroke-opacity:1"
       d="M 322.14286,460.93361 C 319.9939,462.00809 319.55973,465.68653 315.71429,466.6479 C 312.52724,467.44466 312.06753,469.82452 307.14286,467.36218 C 303.64095,465.61123 301.81104,464.50504 297.14286,464.50504 C 293.46166,464.50504 291.54834,461.73773 288.57143,459.50504 C 286.05638,457.61875 285.38261,454.88765 283.57143,453.07647 C 281.73571,451.24075 280.51758,447.28964 280,445.21932 C 279.07151,441.50536 277.8046,437.36218 282.85714,437.36218 C 286.41316,437.36218 291.12718,438.79075 291.42857,438.79075 C 294.20522,438.79075 293.7509,433.61128 295.71429,431.6479 C 297.97834,429.38384 297.85714,426.97214 297.85714,423.07647 C 297.85714,420.6504 301.90625,418.79075 304.28571,418.79075 C 308.35703,418.79075 311.62459,421.38876 315,423.07647 C 318.43932,424.79613 320.66162,424.83585 324.28571,426.6479 C 327.06235,428.03621 329.37963,429.52852 332.14286,430.21932 C 335.1958,430.98256 336.79015,434.51391 337.85714,436.6479 C 339.6094,440.1524 336.43569,443.77652 335.71429,445.21932 C 334.37302,447.90186 331.81336,450.54882 329.28571,453.07647 C 326.2945,456.06768 325.76935,456.4005 322.14286,460.93361 z"
       id="path3271"
       inkscape:export-filename="/home/pauli/svn/docs/figs/fig_divLaborStriatum.png"
       inkscape:export-xdpi="600"
       inkscape:export-ydpi="600" />
    <path
       sodipodi:type="arc"
       style="fill:url(#radialGradient6163);fill-opacity:1;stroke:none;stroke-width:2;stroke-linecap:round;stroke-linejoin:round;stroke-miterlimit:4;stroke-dasharray:none;stroke-dashoffset:0;stroke-opacity:1"
       id="path6155"
       sodipodi:cx="244.28572"
       sodipodi:cy="350.21933"
       sodipodi:rx="82.85714"
       sodipodi:ry="88.571426"
       d="M 327.14286,350.21933 A 82.85714,88.571426 0 1 1 161.42858,350.21933 A 82.85714,88.571426 0 1 1 327.14286,350.21933 z"
       transform="matrix(1.1767767,0,0,1,23.851149,253.44888)"
       inkscape:export-filename="/home/pauli/svn/docs/figs/fig_divLaborStriatum.png"
       inkscape:export-xdpi="600"
       inkscape:export-ydpi="600" />
    <path
       style="fill:none;fill-rule:evenodd;stroke:#000000;stroke-width:1px;stroke-linecap:butt;stroke-linejoin:miter;stroke-opacity:1"
       d="M 360.71429,428.79075 C 358.77326,430.73178 353.00049,429.21957 349.28571,427.36218 C 346.45721,425.94793 343.80046,424.01978 342.14286,422.36218 C 340.51897,420.7383 334.43701,419.9 332.85714,419.50504 C 329.575,418.6845 326.92446,418.02187 324.28571,417.36218 C 321.44695,416.65249 319.77554,414.28057 317.85714,412.36218 C 314.56197,409.06701 312.38445,406.25574 310,403.07647 C 307.82352,400.1745 307.14286,396.04228 307.14286,392.36218 C 307.14286,387.50967 307.62727,385.92745 311.42857,383.07647 C 314.0643,381.09967 317.9846,381.6479 321.42857,381.6479 C 323.89589,381.6479 318.69105,374.26925 318.57143,373.79075 C 317.65409,370.1214 316.22181,367.66295 315,365.21932 C 313.08633,361.39199 313.47733,358.99285 317.14286,358.07647 C 319.37282,357.51898 323.19373,355.13518 325.71429,354.50504 C 328.90041,353.70851 332.54663,353.1541 335.71429,352.36218 C 338.82904,351.58349 343.19896,352.36218 346.42857,352.36218 C 350.74643,352.36218 352.1585,354.33038 355.71429,355.21932 C 358.4615,355.90613 360.49467,358.57114 362.14286,360.21932 C 365.12788,363.20435 367.74893,365.8254 370,368.07647 C 373.08206,371.15853 372.85714,373.42458 372.85714,378.07647 C 372.85714,381.94156 370.31279,384.19224 368.57143,385.93361 C 365.38218,389.12286 362.14286,385.7996 362.14286,391.6479 C 362.14286,396.95698 361.15464,397.08825 365,400.93361 C 367.39586,403.32947 369.26396,404.46153 370.71429,407.36218 C 372.33158,410.59677 373.19675,412.43233 372.14286,416.6479 C 371.29652,420.03323 367.87092,421.63412 366.42857,423.07647 C 364.10861,425.39643 364.50515,425.75806 360.71429,428.79075 z"
       id="path3273"
       inkscape:export-filename="/home/pauli/svn/docs/figs/fig_divLaborStriatum.png"
       inkscape:export-xdpi="600"
       inkscape:export-ydpi="600" />
    <path
       style="fill:none;fill-rule:evenodd;stroke:#000000;stroke-width:1px;stroke-linecap:butt;stroke-linejoin:miter;marker-start:url(#Arrow1Lstart);marker-end:url(#Arrow1Lend);stroke-opacity:1"
       d="M 90.5798,275.32593 L 90.5798,628.89736"
       id="path3275"
       inkscape:export-filename="/home/pauli/svn/docs/figs/fig_divLaborStriatum.png"
       inkscape:export-xdpi="600"
       inkscape:export-ydpi="600" />
    <path
       style="fill:none;fill-rule:evenodd;stroke:#000000;stroke-width:1px;stroke-linecap:butt;stroke-linejoin:miter;marker-start:url(#Arrow1Lstart);marker-end:url(#Arrow1Lend);stroke-opacity:1"
       d="M 146.7288,708.89734 L 458.15737,708.89734"
       id="path4578"
       inkscape:export-filename="/home/pauli/svn/docs/figs/fig_divLaborStriatum.png"
       inkscape:export-xdpi="600"
       inkscape:export-ydpi="600" />
    <path
       sodipodi:type="arc"
       style="fill:url(#radialGradient6180);fill-opacity:1;stroke:none;stroke-width:2;stroke-linecap:round;stroke-linejoin:round;stroke-miterlimit:4;stroke-dasharray:none;stroke-dashoffset:0;stroke-opacity:1"
       id="path6178"
       sodipodi:cx="244.28572"
       sodipodi:cy="350.21933"
       sodipodi:rx="82.85714"
       sodipodi:ry="88.571426"
       d="M 327.14286,350.21933 A 82.85714,88.571426 0 1 1 161.42858,350.21933 A 82.85714,88.571426 0 1 1 327.14286,350.21933 z"
       transform="matrix(1.5059471,0,0,1.4162806,33.553358,-7.1437534)"
       inkscape:export-filename="/home/pauli/svn/docs/figs/fig_divLaborStriatum.png"
       inkscape:export-xdpi="600"
       inkscape:export-ydpi="600" />
    <path
       sodipodi:type="arc"
       style="fill:url(#radialGradient6184);fill-opacity:1;stroke:none;stroke-width:2;stroke-linecap:round;stroke-linejoin:round;stroke-miterlimit:4;stroke-dasharray:none;stroke-dashoffset:0;stroke-opacity:1"
       id="path6182"
       sodipodi:cx="244.28572"
       sodipodi:cy="350.21933"
       sodipodi:rx="82.85714"
       sodipodi:ry="88.571426"
       d="M 327.14286,350.21933 A 82.85714,88.571426 0 1 1 161.42858,350.21933 A 82.85714,88.571426 0 1 1 327.14286,350.21933 z"
       transform="matrix(1,0,0,1.433388,2.8571355,-124.48572)"
       inkscape:export-filename="/home/pauli/svn/docs/figs/fig_divLaborStriatum.png"
       inkscape:export-xdpi="600"
       inkscape:export-ydpi="600" />
    <text
       xml:space="preserve"
       style="font-size:16px;font-style:normal;font-variant:normal;font-weight:normal;font-stretch:normal;text-align:start;line-height:125%;writing-mode:lr-tb;text-anchor:start;fill:#000000;fill-opacity:1;stroke:none;stroke-width:1px;stroke-linecap:butt;stroke-linejoin:miter;stroke-opacity:1;font-family:Bitstream Vera Sans;-inkscape-font-specification:Bitstream Vera Sans"
       x="220.71428"
       y="380.93359"
       id="text6143"
       sodipodi:linespacing="125%"
       inkscape:export-filename="/home/pauli/svn/docs/figs/fig_divLaborStriatum.png"
       inkscape:export-xdpi="600"
       inkscape:export-ydpi="600"><tspan
         sodipodi:role="line"
         id="tspan6145"
         x="220.71428"
         y="380.93359">R - O</tspan></text>
    <text
       xml:space="preserve"
       style="font-size:16px;font-style:normal;font-variant:normal;font-weight:normal;font-stretch:normal;text-align:start;line-height:125%;writing-mode:lr-tb;text-anchor:start;fill:#000000;fill-opacity:1;stroke:none;stroke-width:1px;stroke-linecap:butt;stroke-linejoin:miter;stroke-opacity:1;font-family:Bitstream Vera Sans;-inkscape-font-specification:Bitstream Vera Sans"
       x="295.3967"
       y="611.69867"
       id="text6147"
       sodipodi:linespacing="125%"
       inkscape:export-filename="/home/pauli/svn/docs/figs/fig_divLaborStriatum.png"
       inkscape:export-xdpi="600"
       inkscape:export-ydpi="600"><tspan
         sodipodi:role="line"
         id="tspan6149"
         x="295.3967"
         y="611.69867">S - O</tspan></text>
    <text
       xml:space="preserve"
       style="font-size:16px;font-style:normal;font-variant:normal;font-weight:normal;font-stretch:normal;text-align:start;line-height:125%;writing-mode:lr-tb;text-anchor:start;fill:#000000;fill-opacity:1;stroke:none;stroke-width:1px;stroke-linecap:butt;stroke-linejoin:miter;stroke-opacity:1;font-family:Bitstream Vera Sans;-inkscape-font-specification:Bitstream Vera Sans"
       x="392.33719"
       y="481.53406"
       id="text6151"
       sodipodi:linespacing="125%"
       inkscape:export-filename="/home/pauli/svn/docs/figs/fig_divLaborStriatum.png"
       inkscape:export-xdpi="600"
       inkscape:export-ydpi="600"><tspan
         sodipodi:role="line"
         id="tspan6153"
         x="392.33719"
         y="481.53406">S - R</tspan></text>
    <path
       sodipodi:type="arc"
       style="fill:url(#radialGradient2545);fill-opacity:1.0;stroke:none;stroke-width:2;stroke-linecap:round;stroke-linejoin:round;stroke-miterlimit:4;stroke-dasharray:none;stroke-dashoffset:0;stroke-opacity:1"
       id="path2543"
       sodipodi:cx="244.28572"
       sodipodi:cy="350.21933"
       sodipodi:rx="82.85714"
       sodipodi:ry="88.571426"
       d="M 327.14286,350.21933 A 82.85714,88.571426 0 1 1 161.42858,350.21933 A 82.85714,88.571426 0 1 1 327.14286,350.21933 z"
       transform="matrix(0.7988403,0,0,0.7148763,164.97411,126.20665)"
       inkscape:export-filename="/home/pauli/svn/docs/figs/fig_divLaborStriatum.png"
       inkscape:export-xdpi="600"
       inkscape:export-ydpi="600" />
    <text
       xml:space="preserve"
       style="font-size:16px;font-style:normal;font-variant:normal;font-weight:normal;font-stretch:normal;text-align:start;line-height:125%;writing-mode:lr-tb;text-anchor:start;fill:#000000;fill-opacity:1;stroke:none;stroke-width:1px;stroke-linecap:butt;stroke-linejoin:miter;stroke-opacity:1;font-family:Bitstream Vera Sans;-inkscape-font-specification:Bitstream Vera Sans"
       x="400"
       y="276.64789"
       id="text3335"
       sodipodi:linespacing="125%"
       inkscape:export-filename="/home/pauli/svn/docs/figs/fig_divLaborStriatum.png"
       inkscape:export-xdpi="600"
       inkscape:export-ydpi="600"><tspan
         sodipodi:role="line"
         id="tspan3337"
         x="400"
         y="276.64789">Occulomotor</tspan></text>
    <path
       style="fill:none;fill-rule:evenodd;stroke:#000000;stroke-width:1px;stroke-linecap:butt;stroke-linejoin:miter;stroke-opacity:1;marker-start:url(#Arrow1Lstart);marker-end:url(#Arrow1Lend)"
       d="M 377.14286,365.21932 C 387.14286,318.07647 437.14286,282.36218 437.14286,282.36218"
       id="path3339"
       inkscape:export-filename="/home/pauli/svn/docs/figs/fig_divLaborStriatum.png"
       inkscape:export-xdpi="600"
       inkscape:export-ydpi="600" />
    <text
       xml:space="preserve"
       style="font-size:16px;font-style:normal;font-variant:normal;font-weight:normal;font-stretch:normal;text-align:start;line-height:125%;writing-mode:lr-tb;text-anchor:start;fill:#000000;fill-opacity:1;stroke:none;stroke-width:1px;stroke-linecap:butt;stroke-linejoin:miter;stroke-opacity:1;font-family:Bitstream Vera Sans;-inkscape-font-specification:Bitstream Vera Sans"
       x="160"
       y="242.36218"
       id="text4383"
       sodipodi:linespacing="125%"
       inkscape:export-filename="/home/pauli/svn/docs/figs/fig_divLaborStriatum.png"
       inkscape:export-xdpi="600"
       inkscape:export-ydpi="600"><tspan
         sodipodi:role="line"
         id="tspan4385"
         x="160"
         y="242.36218">m. Prefrontal</tspan></text>
    <text
       xml:space="preserve"
       style="font-size:16px;font-style:normal;font-variant:normal;font-weight:normal;font-stretch:normal;text-align:start;line-height:125%;writing-mode:lr-tb;text-anchor:start;fill:#000000;fill-opacity:1;stroke:none;stroke-width:1px;stroke-linecap:butt;stroke-linejoin:miter;stroke-opacity:1;font-family:Bitstream Vera Sans;-inkscape-font-specification:Bitstream Vera Sans"
       x="440"
       y="659.50507"
       id="text4387"
       sodipodi:linespacing="125%"
       inkscape:export-filename="/home/pauli/svn/docs/figs/fig_divLaborStriatum.png"
       inkscape:export-xdpi="600"
       inkscape:export-ydpi="600"><tspan
         sodipodi:role="line"
         id="tspan4389"
         x="440"
         y="659.50507">Orbitofrontal</tspan></text>
    <text
       xml:space="preserve"
       style="font-size:16px;font-style:normal;font-variant:normal;font-weight:normal;font-stretch:normal;text-align:start;line-height:125%;writing-mode:lr-tb;text-anchor:start;fill:#000000;fill-opacity:1;stroke:none;stroke-width:1px;stroke-linecap:butt;stroke-linejoin:miter;stroke-opacity:1;font-family:Bitstream Vera Sans;-inkscape-font-specification:Bitstream Vera Sans"
       x="527.14288"
       y="489.50504"
       id="text4391"
       sodipodi:linespacing="125%"
       inkscape:export-filename="/home/pauli/svn/docs/figs/fig_divLaborStriatum.png"
       inkscape:export-xdpi="600"
       inkscape:export-ydpi="600"><tspan
         sodipodi:role="line"
         id="tspan4393"
         x="527.14288"
         y="489.50504">l. Prefrontal</tspan></text>
    <path
       style="fill:none;fill-rule:evenodd;stroke:#000000;stroke-width:1px;stroke-linecap:butt;stroke-linejoin:miter;marker-start:url(#Arrow1Lstart);marker-end:url(#Arrow1Lend);stroke-opacity:1"
       d="M 222.08346,355.08669 C 178.01059,302.53514 194.89901,253.76992 194.89901,253.76992"
       id="path4395"
       inkscape:export-filename="/home/pauli/svn/docs/figs/fig_divLaborStriatum.png"
       inkscape:export-xdpi="600"
       inkscape:export-ydpi="600" />
    <path
       style="fill:none;fill-rule:evenodd;stroke:#000000;stroke-width:1px;stroke-linecap:butt;stroke-linejoin:miter;stroke-opacity:1;marker-start:url(#Arrow1Lstart);marker-end:url(#Arrow1Lend)"
       d="M 444.28572,493.79075 C 525.71429,529.50504 571.42857,500.93361 571.42857,500.93361"
       id="path5439"
       inkscape:export-filename="/home/pauli/svn/docs/figs/fig_divLaborStriatum.png"
       inkscape:export-xdpi="600"
       inkscape:export-ydpi="600" />
    <path
       style="fill:none;fill-rule:evenodd;stroke:#000000;stroke-width:1px;stroke-linecap:butt;stroke-linejoin:miter;stroke-opacity:1;marker-start:url(#Arrow1Lstart);marker-end:url(#Arrow1Lend)"
       d="M 330,626.6479 C 372.85714,669.50504 467.14286,676.6479 467.14286,676.6479"
       id="path6483"
       inkscape:export-filename="/home/pauli/svn/docs/figs/fig_divLaborStriatum.png"
       inkscape:export-xdpi="600"
       inkscape:export-ydpi="600" />
  </g>
</svg>
