<?xml version="1.0" encoding="UTF-8" standalone="no"?>
<svg
   xmlns:dc="http://purl.org/dc/elements/1.1/"
   xmlns:cc="http://creativecommons.org/ns#"
   xmlns:rdf="http://www.w3.org/1999/02/22-rdf-syntax-ns#"
   xmlns:svg="http://www.w3.org/2000/svg"
   xmlns="http://www.w3.org/2000/svg"
   xmlns:sodipodi="http://sodipodi.sourceforge.net/DTD/sodipodi-0.dtd"
   xmlns:inkscape="http://www.inkscape.org/namespaces/inkscape"
   version="1.1"
   width="8.5in"
   height="11in"
   viewBox="0 0 1912.5 2475"
   id="svg2"
   inkscape:version="0.91 r13725"
   sodipodi:docname="fig_deepleabra_wwi_train_lcurve_v23mt.svg"
   inkscape:export-filename="/Users/oreilly/svn_docs/figs/fig_deepleabra_wwi_train_lcurve_v23mt.png"
   inkscape:export-xdpi="149.95799"
   inkscape:export-ydpi="149.95799">
  <metadata
     id="metadata90">
    <rdf:RDF>
      <cc:Work
         rdf:about="">
        <dc:format>image/svg+xml</dc:format>
        <dc:type
           rdf:resource="http://purl.org/dc/dcmitype/StillImage" />
        <dc:title></dc:title>
      </cc:Work>
    </rdf:RDF>
  </metadata>
  <defs
     id="defs88">
    <marker
       inkscape:stockid="Arrow1Mend"
       orient="auto"
       refY="0"
       refX="0"
       id="marker4937"
       style="overflow:visible"
       inkscape:isstock="true">
      <path
         inkscape:connector-curvature="0"
         id="path4939"
         d="M 0,0 5,-5 -12.5,0 5,5 0,0 Z"
         style="fill:#000000;fill-opacity:1;fill-rule:evenodd;stroke:#000000;stroke-width:1pt;stroke-opacity:1"
         transform="matrix(-0.4,0,0,-0.4,-4,0)" />
    </marker>
    <marker
       inkscape:isstock="true"
       style="overflow:visible"
       id="marker8240"
       refX="0"
       refY="0"
       orient="auto"
       inkscape:stockid="Arrow1Mend">
      <path
         inkscape:connector-curvature="0"
         transform="matrix(-0.4,0,0,-0.4,-4,0)"
         style="fill:#000000;fill-opacity:1;fill-rule:evenodd;stroke:#000000;stroke-width:1pt;stroke-opacity:1"
         d="M 0,0 5,-5 -12.5,0 5,5 0,0 Z"
         id="path8242" />
    </marker>
    <marker
       inkscape:stockid="Arrow1Mend"
       orient="auto"
       refY="0"
       refX="0"
       id="marker6905"
       style="overflow:visible"
       inkscape:isstock="true">
      <path
         id="path6907"
         d="M 0,0 5,-5 -12.5,0 5,5 0,0 Z"
         style="fill:#000000;fill-opacity:1;fill-rule:evenodd;stroke:#000000;stroke-width:1pt;stroke-opacity:1"
         transform="matrix(-0.4,0,0,-0.4,-4,0)"
         inkscape:connector-curvature="0" />
    </marker>
    <marker
       inkscape:isstock="true"
       style="overflow:visible"
       id="marker6499"
       refX="0"
       refY="0"
       orient="auto"
       inkscape:stockid="Arrow1Mend">
      <path
         transform="matrix(-0.4,0,0,-0.4,-4,0)"
         style="fill:#000000;fill-opacity:1;fill-rule:evenodd;stroke:#000000;stroke-width:1pt;stroke-opacity:1"
         d="M 0,0 5,-5 -12.5,0 5,5 0,0 Z"
         id="path6501"
         inkscape:connector-curvature="0" />
    </marker>
    <marker
       inkscape:stockid="Arrow1Mend"
       orient="auto"
       refY="0"
       refX="0"
       id="marker5211"
       style="overflow:visible"
       inkscape:isstock="true">
      <path
         id="path5213"
         d="M 0,0 5,-5 -12.5,0 5,5 0,0 Z"
         style="fill:#000000;fill-opacity:1;fill-rule:evenodd;stroke:#000000;stroke-width:1pt;stroke-opacity:1"
         transform="matrix(-0.4,0,0,-0.4,-4,0)"
         inkscape:connector-curvature="0" />
    </marker>
    <marker
       inkscape:isstock="true"
       style="overflow:visible"
       id="marker4949"
       refX="0"
       refY="0"
       orient="auto"
       inkscape:stockid="Arrow1Mend">
      <path
         transform="matrix(-0.4,0,0,-0.4,-4,0)"
         style="fill:#000000;fill-opacity:1;fill-rule:evenodd;stroke:#000000;stroke-width:1pt;stroke-opacity:1"
         d="M 0,0 5,-5 -12.5,0 5,5 0,0 Z"
         id="path4951"
         inkscape:connector-curvature="0" />
    </marker>
  </defs>
  <sodipodi:namedview
     pagecolor="#ffffff"
     bordercolor="#666666"
     borderopacity="1"
     objecttolerance="10"
     gridtolerance="10"
     guidetolerance="10"
     inkscape:pageopacity="0"
     inkscape:pageshadow="2"
     inkscape:window-width="640"
     inkscape:window-height="480"
     id="namedview86"
     showgrid="false"
     units="in"
     inkscape:zoom="1.9725001"
     inkscape:cx="184.96069"
     inkscape:cy="245.38645"
     inkscape:current-layer="svg2" />
  <rect
     style="opacity:1;fill:#ffffff;fill-opacity:1;fill-rule:nonzero;stroke:#ffffff;stroke-width:1.20089674;stroke-linecap:butt;stroke-linejoin:miter;stroke-miterlimit:4;stroke-dasharray:none;stroke-dashoffset:0;stroke-opacity:1"
     id="rect7432"
     width="986.77222"
     height="933.89612"
     x="43.418842"
     y="1431.3044" />
  <path
     d="m 210.66373,2223.52 0,-747.5 747.5,0 0,747.5 -747.5,0"
     id="path4-3"
     inkscape:connector-curvature="0"
     style="fill:none;stroke:#000000;stroke-width:2" />
  <text
     style="font-size:37.90000153px;font-family:Arial;text-anchor:start;fill:#000000"
     id="text8-5"
     font-size="37.9"
     y="2287.1201"
     x="926.22546">1000</text>
  <text
     style="font-size:37.90000153px;font-family:Arial;text-anchor:middle;fill:#000000"
     id="text10-5"
     font-size="37.9"
     y="2347.8213"
     x="585.3064">
    <tspan
       style="font-size:50px"
       id="tspan4303">epoch</tspan>
  </text>
  <text
     style="font-size:37.90000153px;font-family:Arial;text-anchor:middle;fill:#000000"
     id="text12-3"
     font-size="37.9"
     y="2287.1201"
     x="210.66371">0</text>
  <text
     style="font-size:37.90000153px;font-family:Arial;text-anchor:middle;fill:#000000"
     id="text14-3"
     font-size="37.9"
     y="2287.1201"
     x="285.36371">100</text>
  <text
     style="font-size:37.90000153px;font-family:Arial;text-anchor:middle;fill:#000000"
     id="text16-7"
     font-size="37.9"
     y="2287.1201"
     x="360.1637">200</text>
  <text
     style="font-size:37.90000153px;font-family:Arial;text-anchor:middle;fill:#000000"
     id="text18-7"
     font-size="37.9"
     y="2287.1201"
     x="434.86371">300</text>
  <text
     style="font-size:37.90000153px;font-family:Arial;text-anchor:middle;fill:#000000"
     id="text20-9"
     font-size="37.9"
     y="2287.1201"
     x="509.6637">400</text>
  <text
     style="font-size:37.90000153px;font-family:Arial;text-anchor:middle;fill:#000000"
     id="text22-9"
     font-size="37.9"
     y="2287.1201"
     x="584.36371">500</text>
  <text
     style="font-size:37.90000153px;font-family:Arial;text-anchor:middle;fill:#000000"
     id="text24-5"
     font-size="37.9"
     y="2287.1201"
     x="659.16376">600</text>
  <text
     style="font-size:37.90000153px;font-family:Arial;text-anchor:middle;fill:#000000"
     id="text26-6"
     font-size="37.9"
     y="2287.1201"
     x="733.96375">700</text>
  <text
     style="font-size:37.90000153px;font-family:Arial;text-anchor:middle;fill:#000000"
     id="text28-6"
     font-size="37.9"
     y="2287.1201"
     x="808.66376">800</text>
  <text
     style="font-size:37.90000153px;font-family:Arial;text-anchor:middle;fill:#000000"
     id="text30-3"
     font-size="37.9"
     y="2287.1201"
     x="883.46375">900</text>
  <path
     style="fill:none;stroke:#000000;stroke-width:2"
     inkscape:connector-curvature="0"
     id="path34-3"
     d="m 210.66373,2223.52 747.5,0 m -747.5,18.7 0,-37.3 m 74.7,37.3 0,-37.3 m 74.8,37.3 0,-37.3 m 74.7,37.3 0,-37.3 m 74.8,37.3 0,-37.3 m 74.7,37.3 0,-37.3 m 74.8,37.3 0,-37.3 m 74.8,37.3 0,-37.3 m 74.7,37.3 0,-37.3 m 74.8,37.3 0,-37.3 m 74.7,37.3 0,-37.3" />
  <path
     style="fill:none;stroke:#000000;stroke-width:2"
     inkscape:connector-curvature="0"
     id="path36-6"
     d="m 210.66373,1476.02 747.5,0 m -747.5,18.7 0,-37.4 m 74.7,37.4 0,-37.4 m 74.8,37.4 0,-37.4 m 74.7,37.4 0,-37.4 m 74.8,37.4 0,-37.4 m 74.7,37.4 0,-37.4 m 74.8,37.4 0,-37.4 m 74.8,37.4 0,-37.4 m 74.7,37.4 0,-37.4 m 74.8,37.4 0,-37.4 m 74.7,37.4 0,-37.4" />
  <text
     style="font-size:37.90000153px;font-family:Arial;text-anchor:end;fill:#000000"
     id="text40-4"
     font-size="37.9"
     y="2238.52"
     x="184.46371">0</text>
  <text
     style="font-size:37.90000153px;font-family:Arial;text-anchor:end;fill:#000000"
     id="text42-4"
     font-size="37.9"
     y="2163.7202"
     x="184.46371">0.1</text>
  <text
     style="font-size:37.90000153px;font-family:Arial;text-anchor:end;fill:#000000"
     id="text44-6"
     font-size="37.9"
     y="2089.02"
     x="184.46371">0.2</text>
  <text
     style="font-size:37.90000153px;font-family:Arial;text-anchor:end;fill:#000000"
     id="text46-2"
     font-size="37.9"
     y="2014.2203"
     x="184.46371">0.3</text>
  <text
     style="font-size:37.90000153px;font-family:Arial;text-anchor:end;fill:#000000"
     id="text48-5"
     font-size="37.9"
     y="1939.52"
     x="184.46371">0.4</text>
  <text
     style="font-size:37.90000153px;font-family:Arial;text-anchor:end;fill:#000000"
     id="text50-6"
     font-size="37.9"
     y="1864.7201"
     x="184.46371">0.5</text>
  <text
     style="font-size:37.90000153px;font-family:Arial;text-anchor:end;fill:#000000"
     id="text52-3"
     font-size="37.9"
     y="1790.0201"
     x="184.46371">0.6</text>
  <text
     style="font-size:37.90000153px;font-family:Arial;text-anchor:end;fill:#000000"
     id="text54-8"
     font-size="37.9"
     y="1715.2201"
     x="184.46371">0.7</text>
  <text
     style="font-size:37.90000153px;font-family:Arial;text-anchor:end;fill:#000000"
     id="text56-3"
     font-size="37.9"
     y="1640.4202"
     x="184.46371">0.8</text>
  <text
     style="font-size:37.90000153px;font-family:Arial;text-anchor:end;fill:#000000"
     id="text58-3"
     font-size="37.9"
     y="1565.7201"
     x="184.46371">0.9</text>
  <text
     style="font-size:37.90000153px;font-family:Arial;text-anchor:end;fill:#000000"
     id="text60-9"
     font-size="37.9"
     y="1490.9202"
     x="184.46371">1</text>
  <path
     style="fill:none;stroke:#000000;stroke-width:2"
     inkscape:connector-curvature="0"
     id="path62-2"
     d="m 210.66373,2223.52 0,-747.5 m -18.7,747.5 37.3,0 m -37.3,-74.7 37.3,0 m -37.3,-74.8 37.3,0 m -37.3,-74.7 37.3,0 m -37.3,-74.8 37.3,0 m -37.3,-74.7 37.3,0 m -37.3,-74.8 37.3,0 m -37.3,-74.8 37.3,0 m -37.3,-74.7 37.3,0 m -37.3,-74.8 37.3,0 m -37.3,-74.7 37.3,0" />
  <path
     style="fill:none;stroke:#000080;stroke-width:2"
     inkscape:connector-curvature="0"
     id="path88"
     d="m 958.16373,2223.52 0,-747.5 m -18.7,747.5 37.4,0 m -37.4,-74.7 37.4,0 m -37.4,-74.8 37.4,0 m -37.4,-74.7 37.4,0 m -37.4,-74.8 37.4,0 m -37.4,-74.7 37.4,0 m -37.4,-74.8 37.4,0 m -37.4,-74.8 37.4,0 m -37.4,-74.7 37.4,0 m -37.4,-74.8 37.4,0 m -37.4,-74.7 37.4,0" />
  <path
     style="fill:none;stroke:#0000ff;stroke-width:2.5;stroke-miterlimit:4;stroke-dasharray:none"
     d="m 211.36373,1541.22 0.8,11.8 0.7,12.9 0.7,13.8 0.8,16.3 0.7,16.7 0.8,17.4 0.7,17.6 0.8,15.9 0.7,17.3 0.8,14.3 0.7,12.3 0.8,9.8 0.7,8.1 0.8,6.3 0.7,5.2 0.8,5.1 0.7,4 0.8,5.1 0.7,5.2 0.8,5.5 0.7,5.3 0.8,5.9 0.7,5.7 0.7,5.3 0.8,5.4 0.7,4.6 0.8,4.7 0.7,4 0.8,3.5 0.7,4 0.8,4.1 0.7,4.8 0.8,4.6 0.7,5.7 0.8,5.2 0.7,5.5 0.8,5.8 0.7,4.6 0.8,5.6 0.7,5.6 0.8,5.7 0.7,6.5 0.8,5.7 0.7,7 0.7,6.9 0.8,8.3 0.7,7.6 0.8,7 0.7,5.8 0.8,5.7 0.7,4.2 0.8,2.3 0.7,3.5 0.8,2 0.7,1.9 0.8,0.7 0.7,1 0.8,1.4 0.7,0.7 0.8,1.4 0.7,0.5 0.8,1.4 0.7,0.4 0.8,1.4 0.7,2.6 0.7,2.2 0.8,3.6 0.7,4.4 0.8,5.7 0.7,5 0.8,6.4 0.7,6.4 0.8,6.1 0.7,5.7 0.8,5 0.7,4.1 0.8,3 0.7,3.3 0.8,2 0.7,1.2 0.8,1.2 0.7,0.6 0.8,1.4 0.7,-0.4 0.8,0.7 0.7,0.8 0.7,1.5 0.8,1.1 0.7,2 0.8,2.2 0.7,3.1 0.8,3 0.7,4.1 0.8,4.3 0.7,3.1 0.8,3.8 0.7,3.6 0.8,2.4 0.7,1.7 0.8,0.7 0.7,1.3 0.8,-0.6 0.7,-1.2 0.8,-1.9 0.7,-2.1 0.8,-2.5 0.7,-1.4 0.7,-1.9 0.8,-0.4 0.7,0 0.8,1.1 0.7,2.4 0.8,2.6 0.7,2.3 0.8,3.5 0.7,3.1 0.8,2.6 0.7,1.4 0.8,0.9 0.7,0.9 0.8,0.4 0.7,1.4 0.8,1.4 0.7,0.1 0.8,0.6 0.7,0.9 0.7,0.4 0.8,-0.1 0.7,-0.5 0.8,-0.1 0.7,-0.7 0.8,-0.5 0.7,0.4 0.8,0.3 0.7,1.5 0.8,1.9 0.7,1.6 0.8,1.9 0.7,0.9 0.8,0 0.7,0.8 0.8,-0.8 0.7,-1.6 0.8,-1.4 0.7,-1.5 0.8,-0.8 0.7,-1 0.7,0 0.8,-0.3 0.7,0.6 0.8,0.5 0.7,0.7 0.8,0.2 0.7,1 0.8,0.3 0.7,0.8 0.8,0.2 0.7,0.5 0.8,1.2 0.7,1 0.8,1.2 0.7,2 0.8,1.2 0.7,1.4 0.8,2.2 0.7,1.8 0.8,1.7 0.7,2.7 0.7,2.2 0.8,2.5 0.7,1.3 0.8,1.6 0.7,1.4 0.8,1.1 0.7,-0.7 0.8,-0.8 0.7,-1.6 0.8,-3 0.7,-3.1 0.8,-2.2 0.7,-2.5 0.8,-2.4 0.7,-1.4 0.8,-0.4 0.7,0 0.8,1.1 0.7,1.5 0.8,1.9 0.7,1.9 0.7,1.1 0.8,1.2 0.7,1.7 0.8,0.4 0.7,1 0.8,1.7 0.7,2.2 0.8,2.6 0.7,3.8 0.8,3.8 0.7,4 0.8,4.3 0.7,4.3 0.8,3.5 0.7,2.9 0.8,1.9 0.7,1.2 0.8,0.6 0.7,0.5 0.8,0.1 0.7,1.1 0.7,1.1 0.8,1.2 0.7,1 0.8,2.3 0.7,2 0.8,2.6 0.7,2 0.8,1.2 0.7,0.5 0.8,0.5 0.7,-0.1 0.8,-0.8 0.7,-0.4 0.8,-0.9 0.7,-1.5 0.8,-0.9 0.7,-1 0.8,-0.7 0.7,0.2 0.7,0.2 0.8,0.5 0.7,0.7 0.8,0.6 0.7,0.9 0.8,1.1 0.7,0.9 0.8,0.1 0.7,0.1 0.8,0.3 0.7,-1.1 0.8,-0.6 0.7,-1 0.8,-1.4 0.7,-1.2 0.8,-1.7 0.7,-1.8 0.8,-1.3 0.7,-2 0.8,-1.1 0.7,-0.4 0.7,-0.1 0.8,0.4 0.7,1.2 0.8,2 0.7,2.2 0.8,1.9 0.7,2.6 0.8,2.1 0.7,1.5 0.8,1 0.7,0.6 0.8,0.1 0.7,-0.1 0.8,-0.1 0.7,0 0.8,-0.5 0.7,0 0.8,0 0.7,0.2 0.8,0.3 0.7,0.4 0.7,0.5 0.8,0.7 0.7,0 0.8,0.2 0.7,0.5 0.8,0 0.7,-0.4 0.8,0.3 0.7,-0.2 0.8,-0.9 0.7,-0.5 0.8,-0.9 0.7,-1 0.8,-1 0.7,-0.9 0.8,-1.4 0.7,-1.4 0.8,-1.2 0.7,-0.9 0.8,-0.8 0.7,-0.2 0.7,-0.4 0.8,0.1 0.7,0.4 0.8,-0.2 0.7,0.5 0.8,1 0.7,0.5 0.8,0.9 0.7,0.1 0.8,0.6 0.7,1.2 0.8,1.1 0.7,1.2 0.8,1 0.7,0.7 0.8,0.5 0.7,0.5 0.8,0.4 0.7,0 0.8,-0.6 0.7,-0.7 0.7,-0.8 0.8,-0.8 0.7,-0.8 0.8,-0.4 0.7,-0.3 0.8,0.2 0.7,-0.1 0.8,0.6 0.7,0.5 0.8,0.6 0.7,0.9 0.8,1.1 0.7,0.6 0.8,0.6 0.7,0.9 0.8,0.8 0.7,0.6 0.8,-0.2 0.7,0.5 0.7,0 0.8,-0.2 0.7,0 0.8,-1.2 0.7,-0.5 0.8,-1.2 0.7,-0.5 0.8,-0.5 0.7,-0.6 0.8,-0.2 0.7,-0.1 0.8,0.2 0.7,0.1 0.8,0.7 0.7,0.9 0.8,0.9 0.7,0.4 0.8,0.4 0.7,0.3 0.8,-0.1 0.7,0.5 0.7,0.1 0.8,0.1 0.7,-0.5 0.8,-0.1 0.7,-0.1 0.8,0 0.7,-0.3 0.8,-0.1 0.7,-0.1 0.8,-0.4 0.7,0 0.8,0.3 0.7,0.3 0.8,0.6 0.7,0.3 0.8,0.6 0.7,0.3 0.8,0.1 0.7,-0.1 0.8,-0.8 0.7,-1.1 0.7,-1.8 0.8,-1.7 0.7,-1.9 0.8,-2 0.7,-1.9 0.8,-1.6 0.7,-0.7 0.8,-0.1 0.7,0.8 0.8,1 0.7,1.9 0.8,1.6 0.7,1.9 0.8,2.3 0.7,1.5 0.8,1.6 0.7,1.2 0.8,1.4 0.7,0.6 0.8,0.8 0.7,1 0.7,1 0.8,0.9 0.7,0.1 0.8,0.3 0.7,-0.3 0.8,-0.5 0.7,-1.3 0.8,-1.2 0.7,-1.3 0.8,-1.7 0.7,-1.2 0.8,-1.1 0.7,-1 0.8,-0.5 0.7,-0.3 0.8,0.1 0.7,-0.2 0.8,-0.2 0.7,0.4 0.8,0 0.7,-0.3 0.7,0.3 0.8,0.2 0.7,0.9 0.8,0.7 0.7,1 0.8,1.5 0.7,1.4 0.8,1.4 0.7,1.3 0.8,0.9 0.7,0.8 0.8,0 0.7,-0.3 0.8,-0.3 0.7,-0.7 0.8,-1 0.7,-0.8 0.8,-1 0.7,-0.8 0.7,-1.1 0.8,-0.7 0.7,-0.7 0.8,-0.5 0.7,-0.3 0.8,0.2 0.7,0.6 0.8,0.8 0.7,1.7 0.8,1.7 0.7,1.2 0.8,1.1 0.7,0.6 0.8,0.1 0.7,-0.3 0.8,-1.3 0.7,-1.2 0.8,-1.2 0.7,-1.5 0.8,-1 0.7,-0.5 0.7,0.3 0.8,0.3 0.7,0.4 0.8,0.8 0.7,-0.1 0.8,-0.2 0.7,-0.1 0.8,-0.9 0.7,-0.9 0.8,-0.3 0.7,-1 0.8,-0.6 0.7,-0.4 0.8,0.1 0.7,0.4 0.8,0.4 0.7,-0.2 0.8,0.1 0.7,-0.1 0.8,-0.8 0.7,-1.3 0.7,-0.7 0.8,-0.9 0.7,-0.9 0.8,-0.4 0.7,-0.5 0.8,-0.7 0.7,0.6 0.8,0.7 0.7,0.9 0.8,1.2 0.7,1.8 0.8,1.3 0.7,2.2 0.8,1.5 0.7,1.8 0.8,2.1 0.7,1.4 0.8,0.3 0.7,0.2 0.8,-0.6 0.7,-0.7 0.7,-1.1 0.8,-1.4 0.7,-1.8 0.8,-1.5 0.7,-1.3 0.8,-0.5 0.7,-0.5 0.8,0.2 0.7,0.3 0.8,0.8 0.7,0.8 0.8,1 0.7,0.5 0.8,0.4 0.7,-0.1 0.8,-0.3 0.7,-0.9 0.8,-0.7 0.7,-0.7 0.8,-0.8 0.7,-0.5 0.7,-0.4 0.8,0.2 0.7,0.5 0.8,1 0.7,0.4 0.8,0.4 0.7,-0.1 0.8,0.3 0.7,-0.1 0.8,-0.2 0.7,-0.6 0.8,-0.3 0.7,-0.6 0.8,0 0.7,0 0.8,0.2 0.7,0.1 0.8,0.7 0.7,0.4 0.7,0.6 0.8,0.5 0.7,1.2 0.8,1.1 0.7,1.3 0.8,1.5 0.7,1.2 0.8,0.9 0.7,0.7 0.8,0 0.7,-0.3 0.8,-0.8 0.7,-1.2 0.8,-1.4 0.7,-1.2 0.8,-1.4 0.7,-1.3 0.8,-0.2 0.7,-0.5 0.8,-0.2 0.7,0.3 0.7,0.6 0.8,0 0.7,0.6 0.8,0.7 0.7,0.1 0.8,0.3 0.7,0.1 0.8,-0.3 0.7,0 0.8,-0.5 0.7,-0.5 0.8,-0.1 0.7,0 0.8,-0.3 0.7,0.5 0.8,0.5 0.7,0.3 0.8,0 0.7,0.2 0.8,-0.1 0.7,-0.6 0.7,-0.6 0.8,-0.9 0.7,-1 0.8,-0.7 0.7,-0.2 0.8,0 0.7,0.4 0.8,1 0.7,1.5 0.8,1.9 0.7,1.9 0.8,2.4 0.7,2.4 0.8,2.2 0.7,1.7 0.8,1.4 0.7,0.5 0.8,0.4 0.7,-1.2 0.8,-1.3 0.7,-2.3 0.7,-2.3 0.8,-2 0.7,-2.2 0.8,-1.5 0.7,-0.3 0.8,0.4 0.7,0.9 0.8,1.3 0.7,1.5 0.8,1.7 0.7,1.4 0.8,0.5 0.7,-0.2 0.8,-0.7 0.7,-0.9 0.8,-1.7 0.7,-1.8 0.8,-1.5 0.7,-0.8 0.8,-0.7 0.7,0 0.7,-0.2 0.8,0.5 0.7,0.8 0.8,1 0.7,1.3 0.8,0.7 0.7,0.5 0.8,0.6 0.7,0.6 0.8,-0.2 0.7,0.5 0.8,0.1 0.7,0.7 0.8,0.5 0.7,0.4 0.8,1.4 0.7,1.2 0.8,1.4 0.7,1.2 0.8,1.1 0.7,0.7 0.7,0.4 0.8,0.1 0.7,-0.5 0.8,-0.8 0.7,-1.2 0.8,-0.5 0.7,-0.9 0.8,-0.7 0.7,-0.7 0.8,-0.2 0.7,0.3 0.8,-0.2 0.7,0.2 0.8,0.2 0.7,0.1 0.8,-0.3 0.7,-0.5 0.8,-0.7 0.7,-1.4 0.7,-0.9 0.8,-1.2 0.7,-1.3 0.8,-1.8 0.7,-0.9 0.8,-0.6 0.7,-0.4 0.8,-0.4 0.7,-0.2 0.8,0.7 0.7,1 0.8,0.9 0.7,1.1 0.8,1.1 0.7,0.7 0.8,0.6 0.7,0.3 0.8,-0.1 0.7,-0.4 0.8,-0.1 0.7,-0.6 0.7,-0.4 0.8,-0.5 0.7,0.3 0.8,0.6 0.7,0.8 0.8,0.6 0.7,0.4 0.8,1 0.7,0.4 0.8,-0.1 0.7,-0.3 0.8,-0.2 0.7,-0.3 0.8,-0.5 0.7,0 0.8,0.2 0.7,0.8 0.8,0.5 0.7,1.1 0.8,0.9 0.7,0.4 0.7,0 0.8,0 0.7,-0.5 0.8,-0.9 0.7,-0.8 0.8,-0.2 0.7,0 0.8,0 0.7,0.7 0.8,1.3 0.7,0.9 0.8,1.1 0.7,0.6 0.8,-0.1 0.7,-0.3 0.8,-1.3 0.7,-0.6 0.8,-1.4 0.7,-2.1 0.8,-1.8 0.7,-1.6 0.7,-1.4 0.8,-1.2 0.7,-0.6 0.8,-0.1 0.7,0.1 0.8,0.9 0.7,1.1 0.8,1 0.7,1 0.8,1.1 0.7,0.3 0.8,0.1 0.7,-1.3 0.8,-0.9 0.7,-1 0.8,-0.8 0.7,-1 0.8,0.1 0.7,0.9 0.8,1 0.7,1.4 0.7,1.7 0.8,1.6 0.7,1.1 0.8,1.1 0.7,0.7 0.8,-0.1 0.7,-0.7 0.8,-0.5 0.7,-0.5 0.8,-0.7 0.7,-0.5 0.8,-0.7 0.7,-0.4 0.8,-0.8 0.7,-0.4 0.8,0.1 0.7,0 0.8,-0.2 0.7,0 0.7,1.2 0.8,1.1 0.7,1.2 0.8,2 0.7,1.9 0.8,2.3 0.7,2.3 0.8,2.1 0.7,1.5 0.8,1.1 0.7,1 0.8,-0.2 0.7,-1.2 0.8,-1.4 0.7,-1.8 0.8,-2.2 0.7,-2.2 0.8,-2.4 0.7,-1.9 0.8,-1.2 0.7,-0.7 0.7,-0.1 0.8,-0.3 0.7,0.6 0.8,0.4 0.7,0.6 0.8,0 0.7,-0.5 0.8,0 0.7,0.1 0.8,-0.3 0.7,-0.1 0.8,0.8 0.7,0.6 0.8,1 0.7,0.9 0.8,0.9 0.7,0.3 0.8,0.4 0.7,-0.4 0.8,-1.3 0.7,-1.1 0.7,-1.4 0.8,-0.9 0.7,-1.2 0.8,-0.9 0.7,-0.7 0.8,0.5 0.7,0.8 0.8,0.8 0.7,1 0.8,1.4 0.7,1.5 0.8,1 0.7,0.5 0.8,0.2 0.7,-0.2 0.8,-0.7 0.7,-1.3 0.8,-1.4 0.7,-1.2 0.8,-0.8 0.7,-0.5 0.7,-0.1 0.8,0.5 0.7,0.8 0.8,1.2 0.7,1.3 0.8,1 0.7,0.7 0.8,0.6 0.7,-0.1 0.8,-0.8 0.7,-0.5 0.8,-1.1 0.7,-0.8 0.8,-1.2 0.7,-0.7 0.8,-0.9 0.7,-0.3 0.8,-0.1 0.7,-0.8 0.8,-0.2 0.7,-0.5 0.7,0 0.8,-0.2 0.7,0.1 0.8,-0.3 0.7,0.6 0.8,1 0.7,1.2 0.8,1.7 0.7,1.3 0.8,1.9 0.7,1.6 0.8,1.6 0.7,0.5 0.8,0.3 0.7,0.2 0.8,-0.4 0.7,-0.5 0.8,-1.1 0.7,-0.9 0.7,-0.7 0.8,-0.6 0.7,-0.5 0.8,-0.8 0.7,-0.2 0.8,0.1 0.7,0 0.8,-0.1 0.7,-0.5 0.8,0.2 0.7,0.6 0.8,0.7 0.7,0.6 0.8,0.6 0.7,0.6 0.8,0.6 0.7,0.7 0.8,0.2 0.7,0 0.8,0 0.7,-0.3 0.7,-1.1 0.8,-0.8 0.7,-0.5 0.8,-0.6 0.7,-0.6 0.8,-0.8 0.7,-0.8 0.8,-0.5 0.7,-0.5 0.8,-0.5 0.7,-0.5 0.8,0 0.7,-0.2 0.8,0.1 0.7,0 0.8,-0.1 0.7,0.4 0.8,0.3 0.7,-0.3 0.8,-0.2 0.7,-0.2 0.7,0.1 0.8,-0.2 0.7,0.2 0.8,0.3 0.7,1 0.8,1 0.7,1 0.8,0.9 0.7,1.2 0.8,0.5 0.7,0.1 0.8,-0.1 0.7,-0.2 0.8,-0.5 0.7,-0.5 0.8,-0.6 0.7,-0.4 0.8,-0.6 0.7,-0.2 0.8,0.1 0.7,0.2 0.7,0.2 0.8,0.5 0.7,0 0.8,-0.1 0.7,0.2 0.8,0.1 0.7,-0.2 0.8,-0.1 0.7,-0.9 0.8,-0.4 0.7,-0.7 0.8,-0.7 0.7,-0.4 0.8,0.6 0.7,0.1 0.8,1 0.7,0.1 0.8,0.6 0.7,0.6 0.8,0.8 0.7,0.1 0.7,-0.6 0.8,-0.7 0.7,-1.3 0.8,-1.1 0.7,-0.8 0.8,-1 0.7,-0.8 0.8,-0.3 0.7,-0.2 0.8,0 0.7,0.8 0.8,0.2 0.7,1.4 0.8,0.3 0.7,0.8 0.8,0.6 0.7,0.6 0.8,0.3 0.7,0.2 0.7,-0.3 0.8,-1 0.7,-0.8 0.8,-1 0.7,-0.8 0.8,-1.1 0.7,-0.9 0.8,-0.4 0.7,-0.6 0.8,0.7 0.7,0.5 0.8,0.8 0.7,0.6 0.8,0.9 0.7,0.9 0.8,0.9 0.7,0.3 0.8,0.3 0.7,0.6 0.8,0.4 0.7,0.3 0.7,0.4 0.8,0.4 0.7,0.7 0.8,0.6 0.7,1.1 0.8,0.3 0.7,0.7"
     id="path4587" />
  <path
     style="fill:none;stroke:#0000ff;stroke-width:2.49999996;stroke-miterlimit:4;stroke-dasharray:7.49999989,7.49999989;stroke-dashoffset:0"
     d="m 214.36373,1650.02 3.7,5.3 3.8,6.1 3.7,5.9 3.7,5.6 3.8,5 3.7,5 3.8,4.5 3.7,3.2 3.7,3 3.8,2.8 3.7,2.1 3.8,3.3 3.7,2.3 3.7,2.9 3.8,3.2 3.7,2.6 3.7,4.2 3.8,4.2 3.7,3.3 3.8,3.8 3.7,3.2 3.7,2.5 3.8,1.5 3.7,1.3 3.7,2.2 3.8,1.6 3.7,-0.8 3.8,-0.9 3.7,-0.8 3.7,0.4 3.8,-0.1 3.7,-0.1 3.7,1.6 3.8,1.1 3.7,2.2 3.8,2.9 3.7,2.4 3.7,3 3.8,2.7 3.7,1.8 3.8,0.7 3.7,-1 3.7,-0.6 3.8,-1.2 3.7,-2.4 3.7,-3.3 3.8,-3.3 3.7,-2.5 3.8,-2.3 3.7,-2.1 3.7,-0.9 3.8,-0.6 3.7,0.2 3.7,0.8 3.8,1.4 3.7,2 3.8,1.4 3.7,1.9 3.7,2.1 3.8,1.4 3.7,1.5 3.7,0.6 3.8,1.1 3.7,1.4 3.8,1.1 3.7,0.8 3.7,0.9 3.8,2 3.7,1.4 3.7,1.4 3.8,2 3.7,2.1 3.8,1.4 3.7,1.3 3.7,0.1 3.8,-0.3 3.7,-1.3 3.8,-1.4 3.7,-1.3 3.7,-3.1 3.8,-3 3.7,-2.4 3.7,-1.6 3.8,-1.1 3.7,-0.8 3.8,0.7 3.7,1.8 3.7,1.4 3.8,1.8 3.7,2.9 3.7,4.4 3.8,3.4 3.7,3.7 3.8,4.1 3.7,2.9 3.7,2 3.8,1.9 3.7,1.3 3.7,0.4 3.8,-0.6 3.7,-2 3.8,-1.7 3.7,-2.2 3.7,-1.8 3.8,-1.6 3.7,-0.7 3.7,-0.1 3.8,0.2 3.7,1.6 3.8,1.5 3.7,2.4 3.7,3.6 3.8,4 3.7,3.6 3.8,2.7 3.7,3.3 3.7,3.2 3.8,3.1 3.7,1 3.7,0.7 3.8,-0.7 3.7,-1.1 3.8,-2.4 3.7,-2.7 3.7,-4.5 3.8,-3.4 3.7,-3.4 3.7,-3.7 3.8,-3.3 3.7,-2.6 3.8,-1.7 3.7,-1.1 3.7,-0.6 3.8,-0.6 3.7,0.1 3.7,1.4 3.8,2.2 3.7,3.1 3.8,3.5 3.7,5.2 3.7,4.4 3.8,4.9 3.7,4.1 3.8,3.6 3.7,2 3.7,1.1 3.8,0.2 3.7,-0.6 3.7,-1.5 3.8,-1.3 3.7,-0.6 3.8,-0.6 3.7,-0.4 3.7,0.2 3.8,-0.5 3.7,0.2 3.7,-2.3 3.8,-0.7 3.7,-0.7 3.8,-1.9 3.7,-1.5 3.7,-0.2 3.8,0.6 3.7,0.2 3.7,1.3 3.8,1.6 3.7,0.9 3.8,1.7 3.7,0.4 3.7,0.3 3.8,-0.6 3.7,-1.2 3.7,-1.1 3.8,-0.3 3.7,-1.6 3.8,-1 3.7,-0.2 3.7,0 3.8,-0.4 3.7,-0.7 3.8,-0.5 3.7,-0.2 3.7,-1.5 3.8,-1.2 3.7,-2.2 3.7,-2 3.8,-2.4 3.7,-2.1 3.8,-0.6 3.7,0.1 3.7,0.9 3.8,2.1 3.7,2.7 3.7,3.6 3.8,4.3 3.7,4.6 3.8,4.7 3.7,5.1 3.7,3.6"
     id="path122" />
  <text
     xml:space="preserve"
     style="color:#000000;font-style:normal;font-variant:normal;font-weight:normal;font-stretch:normal;font-size:37.5px;line-height:100%;font-family:Arial;-inkscape-font-specification:Arial;text-indent:0;text-align:start;text-decoration:none;text-decoration-line:none;letter-spacing:0px;word-spacing:0px;text-transform:none;direction:ltr;block-progression:tb;writing-mode:lr-tb;text-anchor:start;display:inline;overflow:visible;visibility:visible;fill:#000000;fill-opacity:1;fill-rule:nonzero;stroke:none;stroke-width:1px;stroke-linecap:butt;stroke-linejoin:miter;stroke-opacity:1;marker:none;enable-background:accumulate"
     x="-2092.7144"
     y="100.74617"
     id="text4299"
     sodipodi:linespacing="100%"
     transform="matrix(0,-1,1,0,0,0)"><tspan
       sodipodi:role="line"
       id="tspan4301"
       x="-2092.7144"
       y="100.74617"
       style="font-size:50px">Obj feat decode err %</tspan></text>
  <text
     sodipodi:linespacing="100%"
     id="text4865"
     y="1757.5636"
     x="578.36853"
     style="color:#000000;font-style:normal;font-variant:normal;font-weight:normal;font-stretch:normal;font-size:37.5px;line-height:100%;font-family:Arial;-inkscape-font-specification:Arial;text-indent:0;text-align:start;text-decoration:none;text-decoration-line:none;letter-spacing:0px;word-spacing:0px;text-transform:none;direction:ltr;block-progression:tb;writing-mode:lr-tb;text-anchor:start;display:inline;overflow:visible;visibility:visible;fill:#ff0000;fill-opacity:1;fill-rule:nonzero;stroke:none;stroke-width:1px;stroke-linecap:butt;stroke-linejoin:miter;stroke-opacity:1;marker:none;enable-background:accumulate"
     xml:space="preserve"><tspan
       y="1757.5636"
       x="578.36853"
       id="tspan4867"
       sodipodi:role="line">MT</tspan></text>
  <text
     xml:space="preserve"
     style="color:#000000;font-style:normal;font-variant:normal;font-weight:normal;font-stretch:normal;font-size:37.5px;line-height:100%;font-family:Arial;-inkscape-font-specification:Arial;text-indent:0;text-align:start;text-decoration:none;text-decoration-line:none;letter-spacing:0px;word-spacing:0px;text-transform:none;direction:ltr;block-progression:tb;writing-mode:lr-tb;text-anchor:start;display:inline;overflow:visible;visibility:visible;fill:#0000ff;fill-opacity:1;fill-rule:nonzero;stroke:none;stroke-width:1px;stroke-linecap:butt;stroke-linejoin:miter;stroke-opacity:1;marker:none;enable-background:accumulate"
     x="581.54895"
     y="1822.7233"
     id="text4883"
     sodipodi:linespacing="100%"><tspan
       sodipodi:role="line"
       id="tspan4885"
       x="581.54895"
       y="1822.7233">V3</tspan></text>
  <path
     style="fill:none;stroke:#ff0000;stroke-width:2.5;stroke-miterlimit:4;stroke-dasharray:none"
     d="m 212.73065,1508.1108 0.8,5.8 0.7,6.8 0.7,7.6 0.8,8.5 0.7,9.5 0.8,10.4 0.7,9.4 0.8,8.6 0.7,9.8 0.8,7.9 0.7,6.9 0.8,5.7 0.7,5.1 0.8,4.2 0.7,3.9 0.8,4 0.7,3.5 0.8,4.9 0.7,4.8 0.8,5.4 0.7,5.4 0.8,4.8 0.7,4.9 0.7,5.2 0.8,4.5 0.7,3.4 0.8,3.6 0.7,2.8 0.8,2.2 0.7,1.9 0.8,2.4 0.7,2.3 0.8,2.9 0.7,4 0.8,3.5 0.7,5.3 0.8,4.9 0.7,4.8 0.8,5.2 0.7,4.4 0.8,4.2 0.7,3.6 0.8,2.9 0.7,1.7 0.7,1.3 0.8,1 0.7,1.7 0.8,0.9 0.7,0.8 0.8,0.6 0.7,0.4 0.8,0.5 0.7,-0.7 0.8,0.2 0.7,0.1 0.8,-0.8 0.7,-1 0.8,-0.4 0.7,0.1 0.8,0.1 0.7,1.9 0.8,2 0.7,2.7 0.8,2 0.7,4.1 0.7,4.6 0.8,4.5 0.7,4.1 0.8,4.6 0.7,4.5 0.8,3.6 0.7,3 0.8,3.4 0.7,3.3 0.8,2.1 0.7,2 0.8,1.2 0.7,1 0.8,0.2 0.7,0.4 0.8,0.3 0.7,-0.3 0.8,0.2 0.7,-0.3 0.8,0.1 0.7,0.2 0.7,1.1 0.8,1.6 0.7,2.5 0.8,1.8 0.7,1.3 0.8,1.7 0.7,1.4 0.8,2.2 0.7,1 0.8,1.6 0.7,1.1 0.8,1.7 0.7,1.4 0.8,1.2 0.7,3.3 0.8,2.6 0.7,1.5 0.8,0.9 0.7,0.7 0.8,-0.7 0.7,-0.8 0.7,-1.3 0.8,-1.5 0.7,-1.9 0.8,-1.2 0.7,-0.1 0.8,0.2 0.7,1.6 0.8,2.2 0.7,2.9 0.8,3.2 0.7,2.3 0.8,2.7 0.7,2.1 0.8,0.9 0.7,0 0.8,1 0.7,0.2 0.8,0.1 0.7,0.9 0.7,0.9 0.8,0.9 0.7,1.2 0.8,1.5 0.7,0.6 0.8,0.9 0.7,0.2 0.8,-1.3 0.7,-1.4 0.8,-2.5 0.7,-1.5 0.8,-0.8 0.7,-1.5 0.8,-0.2 0.7,0.6 0.8,1.2 0.7,1.7 0.8,2.4 0.7,3.2 0.8,3 0.7,2.6 0.7,1.9 0.8,1.2 0.7,1.1 0.8,1.2 0.7,0.5 0.8,0.5 0.7,0.2 0.8,-0.5 0.7,0.4 0.8,-0.3 0.7,0 0.8,0.5 0.7,0.1 0.8,0.7 0.7,-0.3 0.8,0.3 0.7,0.2 0.8,1.6 0.7,0.8 0.8,1.4 0.7,1.1 0.7,2.2 0.8,2.1 0.7,1.6 0.8,1.8 0.7,1.1 0.8,0.2 0.7,-0.1 0.8,-2.2 0.7,-3.2 0.8,-4.6 0.7,-4.5 0.8,-5.4 0.7,-4.6 0.8,-4.1 0.7,-2 0.8,-0.9 0.7,0.5 0.8,1.5 0.7,3.1 0.8,4 0.7,2.9 0.7,2.7 0.8,2.4 0.7,1.3 0.8,0.7 0.7,0.4 0.8,0.5 0.7,0.3 0.8,1.3 0.7,1.2 0.8,0.6 0.7,1.7 0.8,1.7 0.7,1.3 0.8,0.7 0.7,0.6 0.8,0.7 0.7,1.5 0.8,0.3 0.7,0.7 0.8,1.3 0.7,1.9 0.7,2.5 0.8,1.8 0.7,1.4 0.8,1.2 0.7,1.1 0.8,0.6 0.7,-1.6 0.8,-2.1 0.7,-2.1 0.8,-3.3 0.7,-3.4 0.8,-4 0.7,-2.7 0.8,-1.9 0.7,-1.8 0.8,0.1 0.7,0.2 0.8,1.2 0.7,3 0.7,2.6 0.8,1.9 0.7,0.1 0.8,0.1 0.7,-0.2 0.8,-1 0.7,-2.9 0.8,-2.4 0.7,-2.9 0.8,-2.6 0.7,-1.8 0.8,0.1 0.7,1.4 0.8,1.1 0.7,3.9 0.8,2.7 0.7,3.2 0.8,3.4 0.7,3.5 0.8,3.7 0.7,1.4 0.7,1.4 0.8,1.1 0.7,1 0.8,0.3 0.7,-0.7 0.8,-0.1 0.7,-0.8 0.8,-0.8 0.7,-0.9 0.8,0.4 0.7,-1.5 0.8,0.4 0.7,0 0.8,0.3 0.7,0.5 0.8,0.7 0.7,1.3 0.8,0.2 0.7,-0.3 0.8,0.6 0.7,0.9 0.7,0.4 0.8,0.1 0.7,0 0.8,-0.6 0.7,-0.8 0.8,-1.4 0.7,-1.2 0.8,-2.3 0.7,-2 0.8,-1.7 0.7,-2.2 0.8,-1.4 0.7,-0.4 0.8,-0.1 0.7,0.1 0.8,0.1 0.7,0.6 0.8,1.9 0.7,2.1 0.8,2.2 0.7,1.7 0.7,2.1 0.8,1.6 0.7,2.4 0.8,1.3 0.7,0.9 0.8,0.3 0.7,-0.5 0.8,-1.1 0.7,-1.3 0.8,-1 0.7,0.7 0.8,0.3 0.7,0.8 0.8,0.6 0.7,0.8 0.8,1.4 0.7,1.5 0.8,0.4 0.7,-0.2 0.8,-2 0.7,-1.1 0.7,-2.3 0.8,-2.9 0.7,-2.1 0.8,-1.3 0.7,-1 0.8,0.1 0.7,0.4 0.8,1.5 0.7,2.6 0.8,3.3 0.7,3.1 0.8,2.9 0.7,2.6 0.8,1.9 0.7,1.4 0.8,0.5 0.7,-0.5 0.8,-0.6 0.7,-0.6 0.7,-0.8 0.8,-1.6 0.7,-0.7 0.8,-1 0.7,-0.4 0.8,-0.3 0.7,-0.5 0.8,-0.5 0.7,-0.8 0.8,-0.8 0.7,-1.6 0.8,-1.2 0.7,-2.5 0.8,-1.8 0.7,-1.1 0.8,-1.8 0.7,-1.2 0.8,-1.3 0.7,-0.7 0.8,0.1 0.7,1 0.7,0.8 0.8,1 0.7,1 0.8,1.9 0.7,2.2 0.8,1 0.7,0.7 0.8,0.9 0.7,0.7 0.8,-0.3 0.7,-1.2 0.8,-0.4 0.7,-0.9 0.8,-0.8 0.7,-0.1 0.8,-0.6 0.7,0.2 0.8,0.7 0.7,1.1 0.8,0.3 0.7,-1 0.7,-1 0.8,-1.1 0.7,-2.1 0.8,-2.3 0.7,-2.8 0.8,-2.5 0.7,-1.6 0.8,-1.1 0.7,0.6 0.8,1.7 0.7,2.5 0.8,3.4 0.7,3.7 0.8,3 0.7,3.2 0.8,2.7 0.7,2.9 0.8,2.7 0.7,1.4 0.8,1.7 0.7,0.2 0.7,1.1 0.8,1.7 0.7,1.1 0.8,0.7 0.7,-1 0.8,-1.3 0.7,-2.3 0.8,-3.4 0.7,-4 0.8,-4.2 0.7,-4.5 0.8,-3.4 0.7,-3 0.8,-1.5 0.7,1.3 0.8,2.2 0.7,3.9 0.8,4.3 0.7,4.2 0.8,4.7 0.7,3.8 0.7,2.4 0.8,1 0.7,0.1 0.8,-0.6 0.7,-0.3 0.8,0 0.7,-1.2 0.8,-0.6 0.7,0.1 0.8,0.2 0.7,0.9 0.8,-0.3 0.7,0.8 0.8,0 0.7,-1.4 0.8,-1.4 0.7,-1.2 0.8,-1.3 0.7,-2.9 0.7,-3.1 0.8,-3.3 0.7,-4.3 0.8,-3.3 0.7,-2.5 0.8,-2 0.7,-1.7 0.8,-0.7 0.7,1 0.8,2.3 0.7,1.3 0.8,2.7 0.7,2.5 0.8,1.4 0.7,0 0.8,0.3 0.7,0.3 0.8,0 0.7,0.5 0.8,0.9 0.7,0.8 0.7,2.2 0.8,3.2 0.7,3.7 0.8,3.9 0.7,2.3 0.8,1.3 0.7,0.5 0.8,-1.3 0.7,-2.2 0.8,-2.3 0.7,-2.8 0.8,-3.4 0.7,-2.7 0.8,-1 0.7,-0.9 0.8,0.6 0.7,2.2 0.8,2.5 0.7,2.1 0.8,2 0.7,1.8 0.7,1.1 0.8,1.5 0.7,0.7 0.8,0 0.7,-0.1 0.8,-0.2 0.7,0.3 0.8,-0.2 0.7,0.1 0.8,-0.7 0.7,0.7 0.8,0 0.7,0.4 0.8,0.6 0.7,0.4 0.8,1.6 0.7,1.7 0.8,2.2 0.7,2.1 0.8,1.5 0.7,2.3 0.7,1.1 0.8,0.3 0.7,-0.2 0.8,-1.5 0.7,-1.6 0.8,-1.2 0.7,-1.7 0.8,-2.1 0.7,-1.7 0.8,-0.6 0.7,-0.2 0.8,-0.7 0.7,-1 0.8,0.3 0.7,-1.3 0.8,-2.2 0.7,-3 0.8,-3 0.7,-2.9 0.8,-3.8 0.7,-2.4 0.7,-2.5 0.8,-1.3 0.7,-0.3 0.8,0.1 0.7,-0.2 0.8,0.5 0.7,0.7 0.8,0.4 0.7,-0.4 0.8,-2.6 0.7,-1 0.8,-0.6 0.7,-1.6 0.8,-0.9 0.7,0.6 0.8,2 0.7,2.9 0.8,4.2 0.7,4.3 0.7,5 0.8,5.7 0.7,4.9 0.8,3.2 0.7,2.2 0.8,1.1 0.7,-0.5 0.8,-0.1 0.7,-2.3 0.8,-2.1 0.7,-1 0.8,-0.3 0.7,-0.8 0.8,0.6 0.7,0.3 0.8,0.9 0.7,1 0.8,1.6 0.7,1.1 0.8,0.5 0.7,0.6 0.7,1 0.8,-0.1 0.7,0.8 0.8,0 0.7,-0.4 0.8,-1.3 0.7,-1.9 0.8,-2 0.7,-2.3 0.8,-1.9 0.7,-1.3 0.8,-0.1 0.7,0.7 0.8,1 0.7,1.5 0.8,2.8 0.7,2 0.8,2.2 0.7,1.3 0.8,0.3 0.7,-0.6 0.7,-0.7 0.8,0.3 0.7,0.4 0.8,0.7 0.7,2 0.8,2.3 0.7,2.5999 0.8,1.9 0.7,2 0.8,1.1 0.7,0 0.8,-1.9 0.7,-2.3 0.8,-3.6999 0.7,-3 0.8,-3.2 0.7,-2.3 0.8,-1.3 0.7,-2.1 0.8,-0.4 0.7,-0.8 0.7,-0.4 0.8,-0.6 0.7,-0.9 0.8,-0.6 0.7,-1.8 0.8,-1.3 0.7,0.1 0.8,0.2 0.7,0.9 0.8,2.6 0.7,2.3 0.8,3.2 0.7,3.4 0.8,2.6 0.7,2.3 0.8,1.3 0.7,0.3 0.8,-1.3 0.7,-2.6 0.8,-2.6 0.7,-3.2 0.7,-3.6 0.8,-3.5 0.7,-3.6 0.8,-1.9 0.7,-1.3 0.8,-1.9 0.7,-1.1 0.8,-1.1 0.7,-1 0.8,-0.5 0.7,-0.3 0.8,-0.8 0.7,-0.1 0.8,0.3 0.7,1.1 0.8,0.4 0.7,1.7 0.8,2.3 0.7,2 0.8,0.9 0.7,0.2 0.7,0.5 0.8,0.2 0.7,0 0.8,-0.3 0.7,-0.3 0.8,-0.1 0.7,1.3 0.8,2 0.7,2.9 0.8,3.4 0.7,3 0.8,3.7 0.7,2.4 0.8,2.5 0.7,1.1 0.8,0.4999 0.7,-1.0999 0.8,-2.2 0.7,-2.7 0.7,-3.8 0.8,-4.3 0.7,-3.2 0.8,-2.6 0.7,-2.6 0.8,-1.8 0.7,-0.1 0.8,-0.2 0.7,2.1 0.8,1.4 0.7,2.7 0.8,2 0.7,1.5 0.8,2 0.7,0.4 0.8,-0.3 0.7,-0.3 0.8,-0.5 0.7,-1.1 0.8,-2.4 0.7,-2 0.7,-1.8 0.8,-1.3 0.7,-1.4 0.8,-0.7 0.7,-1.5 0.8,0.8 0.7,-0.2 0.8,0.9 0.7,1 0.8,-0.1 0.7,1 0.8,0.4 0.7,-1 0.8,0 0.7,-0.1 0.8,0.6 0.7,1.1 0.8,1 0.7,2.8 0.8,2.7 0.7,4.8 0.7,3.6 0.8,2.7 0.7,1.7 0.8,1.7999 0.7,0.4 0.8,-0.3 0.7,-0.9999 0.8,-2.5 0.7,-1.1 0.8,-1.9 0.7,-2.1 0.8,-1.4 0.7,-1.5 0.8,-1.4 0.7,-2.4 0.8,-1.9 0.7,-2.1 0.8,-1.6 0.7,-1.9 0.8,-1.1 0.7,-1.3 0.7,0.7 0.8,0.6 0.7,1.4 0.8,2.6 0.7,2.3 0.8,2.8 0.7,3.1 0.8,0.9 0.7,1.5 0.8,-0.1 0.7,-0.7 0.8,-2.2 0.7,-3.3 0.8,-2.7 0.7,-2.5 0.8,-1.2 0.7,-0.8 0.8,-0.2 0.7,1.6 0.8,1.5 0.7,3 0.7,2.3 0.8,1.3 0.7,1 0.8,0 0.7,-1.1 0.8,-0.8 0.7,-1.2 0.8,-1.2 0.7,-1.4 0.8,-0.4 0.7,-0.3 0.8,-0.7 0.7,-0.4 0.8,-0.6 0.7,-0.4 0.8,-0.7 0.7,-1.6 0.8,-1.2 0.7,-0.4 0.7,0.3 0.8,0.7 0.7,0.6 0.8,1.7 0.7,2.1 0.8,2.6 0.7,2.5 0.8,2.5 0.7,1.8 0.8,3.2 0.7,2 0.8,2 0.7,0.7 0.8,1.2 0.7,0.9999 0.8,0.4 0.7,-0.2 0.8,-1.1999 0.7,-0.7 0.8,-1.2 0.7,-1.9 0.7,-2.5 0.8,-1.6 0.7,-1.6 0.8,-1.7 0.7,-1.4 0.8,-2.2 0.7,-1 0.8,-1.3 0.7,-0.9 0.8,-1.3 0.7,-1.1 0.8,-0.6 0.7,-0.4 0.8,-0.6 0.7,-1.1 0.8,-0.3 0.7,0.2 0.8,0.5 0.7,-0.3 0.8,-0.8 0.7,-0.7 0.7,0.5 0.8,0.6 0.7,1.4 0.8,0.8 0.7,2.2 0.8,2.7 0.7,2.7 0.8,2.5 0.7,1.6 0.8,1 0.7,-0.1 0.8,-2.2 0.7,-2.9 0.8,-3.9 0.7,-4.1 0.8,-4.2 0.7,-3.6 0.8,-2.8 0.7,-1.8 0.8,-0.7 0.7,1.1 0.7,0.7 0.8,1.9 0.7,2.1 0.8,1.4 0.7,1.7 0.8,2 0.7,2.3 0.8,2.4 0.7,1.6 0.8,2.4 0.7,2.4 0.8,2 0.7,1.6 0.8,1.2 0.7,0.9 0.8,0.1 0.7,0 0.8,-1.6 0.7,-1.7 0.8,-1.2 0.7,-1 0.7,-1 0.8,-1.5 0.7,-1.6 0.8,-0.4 0.7,0.4 0.8,-0.2 0.7,0.7 0.8,0.6 0.7,0.9 0.8,1.7 0.7,1.4 0.8,1.4 0.7,0.3 0.8,1 0.7,-0.9 0.8,-1.6 0.7,-1.4 0.8,-2.3 0.7,-1.8 0.7,-2.2 0.8,-2.5 0.7,-1 0.8,-0.6 0.7,0.5 0.8,1.1 0.7,0.5 0.8,0.1 0.7,0.2 0.8,0.3 0.7,0.2 0.8,0.5 0.7,0.7 0.8,1.6 0.7,0.7 0.8,2.4 0.7,2.6 0.8,3 0.7,3.1 0.8,1.5 0.7,0.7 0.7,-0.9 0.8,-0.9 0.7,-1.6 0.8,-1.9 0.7,-2.6 0.8,-2.5 0.7,-1.8 0.8,-1.3 0.7,-0.4 0.8,-0.6 0.7,0.8 0.8,1.1 0.7,0.6 0.8,1.6 0.7,0.9 0.8,1 0.7,1.2 0.8,0.9 0.7,0 0.8,-0.7 0.7,-0.2 0.7,0.2 0.8,-1 0.7,0.1 0.8,-0.1 0.7,1.5 0.8,2.7 0.7,2.1 0.8,2.2 0.7,3.3 0.8,2.9999 0.7,2.6 0.8,2.3 0.7,1.2 0.8,-0.4 0.7,-0.5 0.8,-1.1 0.7,-1.5 0.8,-2.8 0.7,-2.3 0.8,-2.7999 0.7,-2.3 0.7,-3.2 0.8,-1.4 0.7,-0.8 0.8,-0.3 0.7,0.3 0.8,-0.7 0.7,0.9 0.8,0.9 0.7,0.9 0.8,1.1 0.7,0.1 0.8,-0.7 0.7,-0.7 0.8,0.6 0.7,0.2 0.8,0.3 0.7,0.7 0.8,0.9 0.7,0.3 0.8,1.1 0.7,0.7 0.7,-0.1 0.8,-0.3 0.7,-1.8 0.8,-2.6 0.7,-3.2 0.8,-3.7 0.7,-3.6 0.8,-2.9 0.7,-3.8 0.8,-2.8 0.7,-1.1 0.8,-0.8 0.7,0.6 0.8,1.5 0.7,1.6 0.8,1.6 0.7,1.6 0.8,1.7 0.7,1 0.7,-0.5 0.8,-0.8 0.7,-1.6 0.8,-1.8 0.7,-1.8 0.8,-1.3 0.7,-1 0.8,-0.1 0.7,-0.2 0.8,1.9 0.7,1.5 0.8,2.7 0.7,2.3 0.8,3.6 0.7,2.9 0.8,2.2 0.7,2.6 0.8,3.4 0.7,2.8 0.8,2.6 0.7,2.0999 0.7,2.2 0.8,1.8 0.7,2.2 0.8,1.2 0.7,1.6 0.8,0.2 0.7,1"
     id="path4591" />
  <path
     style="fill:none;stroke:#ff0000;stroke-width:2.49999996;stroke-miterlimit:4;stroke-dasharray:7.49999989,7.49999989;stroke-dashoffset:0"
     d="m 215.73065,1571.9108 3.7,5.5 3.8,5.7 3.7,6.4 3.7,6.8 3.8,6.5 3.7,6.9 3.8,6.1 3.7,6.5 3.7,6.9 3.8,6.5 3.7,7 3.8,7.6 3.7,6.6 3.7,7.1 3.8,7.3 3.7,6.4 3.7,7.3 3.8,6 3.7,4.8 3.8,4.2 3.7,2.3 3.7,2.5 3.8,1.7 3.7,1.5 3.7,1 3.8,1.9 3.7,1.2 3.8,1.9 3.7,2 3.7,3.9 3.8,2.7 3.7,2.9 3.7,3.9 3.8,2.6 3.7,3.3 3.8,2.6 3.7,1 3.7,1.3 3.8,-1.4 3.7,-1.8 3.8,-3 3.7,-4.4 3.7,-5.2 3.8,-4.4 3.7,-5.1 3.7,-3.9 3.8,-3 3.7,-1.2 3.8,-0.1 3.7,0.4 3.7,2 3.8,1.4 3.7,1.2 3.7,0.2 3.8,-1.1 3.7,-0.9 3.8,-2.5 3.7,-2.7 3.7,-3.2 3.8,-3.1 3.7,-2.8 3.7,-1.8 3.8,-0.6 3.7,-1.2 3.8,0.9 3.7,0.6 3.7,1.6 3.8,1.8 3.7,2.7 3.7,2.2 3.8,3.2 3.7,3.3 3.8,2.9 3.7,3.1 3.7,2 3.8,1.8 3.7,1.6 3.8,0.4 3.7,0.1 3.7,-1 3.8,-0.4 3.7,-1.4 3.7,-1 3.8,-0.5 3.7,-0.8 3.8,0.5 3.7,0.6 3.7,0.1 3.8,-0.4 3.7,0.4 3.7,0.6 3.8,0.6 3.7,0.7 3.8,0 3.7,0.3 3.7,0 3.8,0.7 3.7,0.4 3.7,0.7 3.8,0.4 3.7,0 3.8,-0.6 3.7,-1.1 3.7,-0.2 3.8,-0.1 3.7,-0.9 3.7,-0.7 3.8,0.1 3.7,-0.1 3.8,0.1 3.7,0.3 3.7,0.7 3.8,0.7 3.7,0.8 3.8,0.6 3.7,0.2 3.7,0 3.8,0.3 3.7,1.4 3.7,-0.4 3.8,-0.7 3.7,0 3.8,0.7 3.7,-0.2 3.7,-1 3.8,0 3.7,-0.7 3.7,-0.5 3.8,-0.7 3.7,-0.8 3.8,-0.9 3.7,-0.4 3.7,0.3 3.8,0.4 3.7,0 3.7,0.6 3.8,1.6 3.7,2.4 3.8,1.3 3.7,2.2 3.7,2.1 3.8,3.1 3.7,1.3 3.8,1.7 3.7,2.1 3.7,1.1 3.8,0.4 3.7,-0.6 3.7,-0.8 3.8,-1.1 3.7,-1.6 3.8,-1.2 3.7,-1.4 3.7,-1 3.8,-1.6 3.7,0.2 3.7,-1.2 3.8,-0.9 3.7,-0.6 3.8,-0.1 3.7,-0.9 3.7,-1.3 3.8,0.2 3.7,0.4 3.7,0.7 3.8,1.2 3.7,1.3 3.8,2.1 3.7,1.5 3.7,1.1 3.8,1.2 3.7,0.2 3.7,-0.4 3.8,-0.4 3.7,-0.4 3.8,-1.6 3.7,-0.8 3.7,-0.9 3.8,-0.2 3.7,-0.7 3.8,-0.5 3.7,0.1 3.7,-0.1 3.8,-0.3 3.7,0 3.7,0.5 3.8,0 3.7,-0.7 3.8,0.2 3.7,0.1 3.7,1.1 3.8,0.5 3.7,1.4 3.7,1.6 3.8,2 3.7,1.8 3.8,2.7 3.7,3 3.7,2.7"
     id="path84" />
  <path
     style="fill:none;stroke:#000000;stroke-width:2.49999996;stroke-miterlimit:4;stroke-dasharray:none"
     d="m 213.43793,1619.3418 0.8,17.2 0.7,17.1 0.7,18.4 0.8,19.1 0.7,18.4 0.8,18.4 0.7,17.9 0.8,15.3 0.7,16.3 0.8,12.1 0.7,9.8 0.8,6.1 0.7,5 0.8,4.4 0.7,3.6 0.8,2.7 0.7,2.6 0.8,2 0.7,2.6 0.8,2.2 0.7,1.5 0.8,1.5 0.7,0.7 0.7,-0.5 0.8,0.6 0.7,-0.2 0.8,0.5 0.7,-0.5 0.8,1.1 0.7,0.8 0.8,1.2 0.7,1.9 0.8,2.6 0.7,2.5 0.8,1.7 0.7,1.9 0.8,1.1 0.7,1 0.8,0.3 0.7,-0.1 0.8,0.1 0.7,-0.4 0.8,0.2 0.7,1.3 0.7,2.2 0.8,2.6 0.7,3.8 0.8,4.1 0.7,4.7 0.8,4 0.7,3.5 0.8,2.6 0.7,0.9 0.8,0.8 0.7,-1.8 0.8,-2.1 0.7,-3.3 0.8,-2.9 0.7,-3.5 0.8,-3.1 0.7,-3.2 0.8,-1.7 0.7,-1.3 0.8,-0.6 0.7,0.4 0.7,0.1 0.8,1.1 0.7,1.2 0.8,1.4 0.7,1.2 0.8,1.6 0.7,3.1 0.8,2.7 0.7,3 0.8,2.6 0.7,3.2 0.8,2.5 0.7,2.2 0.8,1.2 0.7,-0.1 0.8,-0.7 0.7,-2.1 0.8,-2.2 0.7,-4.3 0.8,-3 0.7,-3.1 0.7,-2.3 0.8,-2.5 0.7,-2.1 0.8,-1.4 0.7,-0.1 0.8,-0.3 0.7,0.5 0.8,1.2 0.7,1.1 0.8,0.4 0.7,1.3 0.8,0.7 0.7,1.3 0.8,0.8 0.7,1.6 0.8,0.2 0.7,0.6 0.8,0.8 0.7,0 0.8,-0.2 0.7,-0.3 0.7,-1 0.8,-1.2 0.7,-1.7 0.8,-1.4 0.7,-1.4 0.8,-0.3 0.7,-1.7 0.8,0.5 0.7,0.9 0.8,1.4 0.7,1 0.8,1.4 0.7,1.3 0.8,0.7 0.7,0.4 0.8,0.4 0.7,-1.5 0.8,-2.1 0.7,-2.1 0.7,-2.7 0.8,-3.4 0.7,-2.9 0.8,-3.2 0.7,-1.9 0.8,-1.8 0.7,-1.2 0.8,0.7 0.7,2.6 0.8,2.6 0.7,2.6 0.8,3.5 0.7,3.1 0.8,2.3 0.7,1.5 0.8,0.6 0.7,-1.9 0.8,-3.4 0.7,-3.9 0.8,-4.2 0.7,-4.2 0.7,-3.8 0.8,-3.7 0.7,-1.4 0.8,-1.7 0.7,-0.3 0.8,1.3 0.7,2.3 0.8,2.1 0.7,2.8 0.8,2.5 0.7,3.1 0.8,2.7 0.7,3.1 0.8,3.8 0.7,2.7 0.8,2.3 0.7,1.3 0.8,1.9 0.7,0 0.8,-1.2 0.7,-0.7 0.7,-1.6 0.8,-1.9 0.7,-1.5 0.8,-2.1 0.7,-0.4 0.8,-0.7 0.7,0.5 0.8,1.2 0.7,0.9 0.8,-0.1 0.7,1.2 0.8,0.8 0.7,1.6 0.8,0.6 0.7,1.4 0.8,1.7 0.7,1.5 0.8,1.6 0.7,2.6 0.8,1.5 0.7,2.6 0.7,1.3 0.8,0.9 0.7,0.5 0.8,0.1 0.7,0.3 0.8,-0.2 0.7,-2.2 0.8,-2.4 0.7,-3.4 0.8,-3.2 0.7,-4.1 0.8,-3.8 0.7,-4.4 0.8,-3.5 0.7,-3.3 0.8,-1.2 0.7,0.2 0.8,0.9 0.7,4 0.8,3.9 0.7,5.3 0.7,5.1 0.8,5 0.7,5 0.8,3.2 0.7,1.7 0.8,-0.4 0.7,-0.7 0.8,-3.3 0.7,-3 0.8,-3.9 0.7,-3.8 0.8,-4.2 0.7,-2.8 0.8,-2.5 0.7,-2.8 0.8,-1.6 0.7,-3.2 0.8,-1.6 0.7,-1.5 0.7,-0.2 0.8,-0.3 0.7,0.7 0.8,1.2 0.7,1.8 0.8,2.2 0.7,2.1 0.8,1.9 0.7,1.5 0.8,0.1 0.7,-0.6 0.8,0 0.7,-0.2 0.8,-0.5 0.7,1.8 0.8,1.4 0.7,1.8 0.8,1.6 0.7,2.1 0.8,1.5 0.7,0.3 0.7,-0.8 0.8,-1.4 0.7,-2.3 0.8,-2 0.7,-2.8 0.8,-2.3 0.7,-1.7 0.8,-1.4 0.7,-0.5 0.8,0.4 0.7,-0.9 0.8,-0.2 0.7,-0.3 0.8,0.2 0.7,0.2 0.8,0.3 0.7,1.3 0.8,1.8 0.7,2.6 0.8,2.7 0.7,3.2 0.7,3 0.8,2.9 0.7,0.9 0.8,0.9 0.7,-1 0.8,-1.8 0.7,-2.6 0.8,-3.7 0.7,-3.3 0.8,-3.4 0.7,-3.1 0.8,-2.5 0.7,-0.7 0.8,-0.8 0.7,0 0.8,2 0.7,1.7 0.8,2.6 0.7,2.5 0.8,2.5 0.7,2 0.7,1.3 0.8,0.5 0.7,0.2 0.8,-1.2 0.7,-2.9 0.8,-3.9 0.7,-3.7 0.8,-4 0.7,-4.9 0.8,-4.2 0.7,-3.7 0.8,-3.4 0.7,-2.1 0.8,-0.6 0.7,-0.1 0.8,1.2 0.7,1.4 0.8,2.2 0.7,1.6 0.8,1.8 0.7,1.6 0.7,1.1 0.8,0.8 0.7,-0.5 0.8,-0.9 0.7,-1.5 0.8,-0.6 0.7,-0.6 0.8,-0.2 0.7,0.4 0.8,1 0.7,2.2 0.8,2.4 0.7,4.7 0.8,4.6 0.7,4.6 0.8,4.2 0.7,4.4 0.8,3.5 0.7,2.7 0.7,1.7 0.8,0 0.7,0.7 0.8,-1.9 0.7,-2.7 0.8,-3.4 0.7,-2.4 0.8,-3.7 0.7,-3 0.8,-2.9 0.7,-4.2 0.8,-2.2 0.7,-1.9 0.8,-0.4 0.7,0 0.8,1 0.7,1.5 0.8,2.5 0.7,2.7 0.8,2.1 0.7,3.8 0.7,3.2 0.8,2.3 0.7,1.8 0.8,1.3 0.7,0.6 0.8,0.7 0.7,0 0.8,-1.1 0.7,-0.5 0.8,-2 0.7,-1.5 0.8,-2 0.7,-3 0.8,-2.3 0.7,-2.4 0.8,-2.5 0.7,-3 0.8,-2.4 0.7,-2 0.8,-2.4 0.7,-0.3 0.7,-0.5 0.8,-0.2 0.7,1.1 0.8,1.6 0.7,1.3 0.8,1.4 0.7,1.6 0.8,2.3 0.7,2 0.8,0.7 0.7,1.9 0.8,1.5 0.7,1.8 0.8,2.3 0.7,2.3 0.8,2.4 0.7,2.4 0.8,3.7 0.7,4.2 0.8,4 0.7,4.5 0.7,5 0.8,5 0.7,3.6 0.8,2.2 0.7,0.3 0.8,-1.1 0.7,-3.9 0.8,-5.5 0.7,-6.6 0.8,-7.8 0.7,-7.8 0.8,-6.1 0.7,-5.2 0.8,-3.1 0.7,-1.4 0.8,-0.3 0.7,-0.1 0.8,0.9 0.7,1 0.8,1.4 0.7,1.1 0.7,1.2 0.8,0.9 0.7,1.4 0.8,2.5 0.7,2.4 0.8,3.7 0.7,3.8 0.8,1.4 0.7,1.7 0.8,-0.3 0.7,-0.9 0.8,-1.5 0.7,-2.2 0.8,-2.8 0.7,-2.7 0.8,-1.5 0.7,-1.2 0.8,-0.2 0.7,0.6 0.7,0.5 0.8,0.3 0.7,0.3 0.8,-0.2 0.7,0.1 0.8,0.3 0.7,-0.2 0.8,0.8 0.7,2.1 0.8,2.1 0.7,2.2 0.8,2.1 0.7,1.8 0.8,0.7 0.7,0.1 0.8,-1.2 0.7,-2 0.8,-2.4 0.7,-2.4 0.8,-2.9 0.7,-2.3 0.7,-1.7 0.8,-0.4 0.7,-1 0.8,-1 0.7,-0.9 0.8,-0.5 0.7,-1 0.8,-1.5 0.7,-2.2 0.8,-1.7 0.7,-1.8 0.8,-1.3 0.7,-1.5 0.8,-0.1 0.7,-0.2 0.8,2.1 0.7,1.8 0.8,2.9 0.7,2.7 0.8,3.4 0.7,3.2 0.7,2.2 0.8,2.2 0.7,2.9 0.8,2.6 0.7,1.9 0.8,1.9 0.7,3.2 0.8,3 0.7,3.8 0.8,2.4 0.7,2.8 0.8,1.5 0.7,1.5 0.8,0.6 0.7,0 0.8,0.2 0.7,-0.7 0.8,-0.5 0.7,-0.8 0.8,-1 0.7,-1.4 0.7,-1.2 0.8,-1.5 0.7,-2.6 0.8,-2.1 0.7,-3.1 0.8,-2.3 0.7,-1.8 0.8,-1.5 0.7,-1.1 0.8,0 0.7,-0.4 0.8,-0.9 0.7,0.1 0.8,-0.9 0.7,-0.3 0.8,-1.2 0.7,-0.9 0.8,-1.4 0.7,-1 0.8,-1.3 0.7,-0.6 0.7,-0.1 0.8,0.4 0.7,-0.1 0.8,-0.2 0.7,0.3 0.8,-0.3 0.7,-0.7 0.8,-1.4 0.7,-1.8 0.8,-2.4 0.7,-2.6 0.8,-3.2 0.7,-3.4 0.8,-2.9 0.7,-2.4 0.8,-0.4 0.7,-0.5 0.8,1.6 0.7,2.1 0.7,2.6 0.8,3.8 0.7,3.6 0.8,2.8 0.7,3.2 0.8,1.7 0.7,1.2 0.8,1 0.7,-0.5 0.8,0 0.7,0.6 0.8,0.4 0.7,0.6 0.8,1.3 0.7,2 0.8,1.6 0.7,1.6 0.8,2 0.7,2 0.8,1 0.7,0.5 0.7,-0.4 0.8,-1.4 0.7,-2.2 0.8,-3.2 0.7,-2.2 0.8,-3.1 0.7,-3.5 0.8,-1.9 0.7,-1.8 0.8,-1 0.7,0.1 0.8,0.4 0.7,1.1 0.8,0.1 0.7,-1.5 0.8,0.1 0.7,-1.2 0.8,-2.1 0.7,-2.1 0.8,-2.8 0.7,-2.6 0.7,-2.7 0.8,-1.8 0.7,-1.9 0.8,-1 0.7,-0.5 0.8,0.5 0.7,-0.5 0.8,1.9 0.7,2.4 0.8,4.1 0.7,4.1 0.8,3.5 0.7,3.6 0.8,2.9 0.7,2.7 0.8,1.4 0.7,-0.6 0.8,-1.5 0.7,-2.4 0.8,-3.3 0.7,-3.6 0.7,-4 0.8,-3.3 0.7,-1.5 0.8,-2.6 0.7,-0.7 0.8,0.2 0.7,1.2 0.8,0.7 0.7,1.5 0.8,1.6 0.7,0.7 0.8,0.6 0.7,1 0.8,-0.6 0.7,-0.5 0.8,-0.1 0.7,-0.8 0.8,0.6 0.7,0.2 0.8,0.6 0.7,1.4 0.7,0.2 0.8,0.6 0.7,0.6 0.8,0.6 0.7,-0.7 0.8,-1.4 0.7,-2.1 0.8,-2.1 0.7,-2.7 0.8,-2 0.7,-2.1 0.8,-0.7 0.7,0.5 0.8,1.2 0.7,2.3 0.8,3.2 0.7,3.6 0.8,5 0.7,5 0.8,4.4 0.7,2.8 0.7,3.1 0.8,2.1 0.7,2.8 0.8,1.9 0.7,1.3 0.8,0.7 0.7,0.9 0.8,0.2 0.7,0.4 0.8,0.6 0.7,0.3 0.8,-0.4 0.7,0.1 0.8,-0.8 0.7,-1.3 0.8,-1.1 0.7,-0.1 0.8,-0.7 0.7,-1.2 0.7,-2.1 0.8,-1.5 0.7,-1.4 0.8,-1.5 0.7,-0.5 0.8,0 0.7,-1.5 0.8,-1.7 0.7,-2.2 0.8,-3 0.7,-3.6 0.8,-4.2 0.7,-5.1 0.8,-5 0.7,-5.7 0.8,-5.1 0.7,-3.1 0.8,-2.3 0.7,-0.1 0.8,1 0.7,1.6 0.7,1.9 0.8,2.1 0.7,4.2 0.8,2.6 0.7,2.7 0.8,2.4 0.7,1.6 0.8,1.8 0.7,2 0.8,2 0.7,1.4 0.8,1.2 0.7,0.1 0.8,1.4 0.7,0.4 0.8,0.4 0.7,1 0.8,0.2 0.7,1.5 0.8,1.1 0.7,1.8 0.7,1.8 0.8,2.7 0.7,1.1 0.8,0.9 0.7,0.9 0.8,0.2 0.7,0.2 0.8,0.6 0.7,0.9 0.8,0.7 0.7,-0.4 0.8,1 0.7,0.2 0.8,0.2 0.7,-0.8 0.8,-1.6 0.7,-2.2 0.8,-2.6 0.7,-3 0.8,-1.5 0.7,-2.4 0.7,-1.6 0.8,-0.4 0.7,1.4 0.8,0.6 0.7,0.8 0.8,0.8 0.7,1.8 0.8,-0.2 0.7,-1.6 0.8,-2.2 0.7,-3.4 0.8,-4 0.7,-5.2 0.8,-5 0.7,-4.7 0.8,-4.1 0.7,-2.5 0.8,-1.8 0.7,-0.7 0.8,-0.1 0.7,1.3 0.7,2.4 0.8,2 0.7,1.6 0.8,1.9 0.7,2 0.8,1.5 0.7,0.2 0.8,-0.2 0.7,0 0.8,-1.8 0.7,-1.3 0.8,-2.4 0.7,-2.8 0.8,-2.8 0.7,-1.8 0.8,-1.2 0.7,-0.8 0.8,-0.7 0.7,1.1 0.7,2.1 0.8,1.6 0.7,1.6 0.8,2.5 0.7,2.7 0.8,2.1 0.7,1.4 0.8,1.4 0.7,0 0.8,1.1 0.7,1.1 0.8,0.1 0.7,-0.1 0.8,-0.1 0.7,0.5 0.8,0.1 0.7,-0.2 0.8,-0.3 0.7,0.3 0.8,-0.2 0.7,-0.7 0.7,-1.3 0.8,-0.9 0.7,-1.5 0.8,-0.6 0.7,-0.1 0.8,-0.9 0.7,-0.8 0.8,0.2 0.7,1 0.8,1.5 0.7,0.9 0.8,1.8 0.7,1.9 0.8,2 0.7,1.9 0.8,1.8 0.7,0.6 0.8,1.4 0.7,0.4 0.8,-0.4 0.7,-1.7 0.7,-1.3 0.8,-1.1 0.7,-1.3 0.8,-1.6 0.7,-1.6 0.8,0.5 0.7,0.6 0.8,0.7 0.7,0.7 0.8,1 0.7,0.3 0.8,0 0.7,0.3 0.8,-1.4 0.7,-1.6 0.8,-1.6 0.7,-1.8 0.8,-1.7 0.7,-1.7 0.8,-1.6 0.7,0 0.7,-1.1 0.8,-1.8 0.7,-0.8 0.8,-1 0.7,-0.5 0.8,-0.7 0.7,0.3 0.8,0.6 0.7,0.4 0.8,1.9 0.7,1.9 0.8,2.2 0.7,2.1 0.8,1.1 0.7,1 0.8,1.2 0.7,-1.2 0.8,-0.7 0.7,-1.8 0.8,-2.4 0.7,-2.6 0.7,-3.5 0.8,-2.3 0.7,-3 0.8,-2.7 0.7,-1.3 0.8,-0.4 0.7,1.7 0.8,2.9 0.7,4.2 0.8,4.5 0.7,6.2 0.8,5.9 0.7,6.1 0.8,4.8 0.7,3.9 0.8,2.5 0.7,0.8 0.8,1.6 0.7,0 0.7,0.6 0.8,-0.4 0.7,0.3 0.8,-0.5 0.7,-0.7 0.8,-0.8 0.7,-1.2 0.8,-0.8 0.7,-3.3 0.8,-2.8 0.7,-2.2 0.8,-1.7 0.7,-1.1 0.8,-0.9 0.7,-0.1 0.8,-0.7 0.7,0.2 0.8,0.1 0.7,0.8 0.8,-0.8 0.7,0 0.7,-0.2 0.8,0.9 0.7,0.9 0.8,1.4 0.7,1.9 0.8,1.7 0.7,2 0.8,0.9 0.7,-0.4 0.8,0 0.7,-1.6 0.8,-1.9 0.7,-2.6 0.8,-1.8 0.7,-1.9 0.8,-0.7 0.7,-0.1 0.8,0.3 0.7,0.2 0.8,1 0.7,0.5 0.7,0.6 0.8,-0.6 0.7,-1.2 0.8,-1.6 0.7,-1.2 0.8,-2.9 0.7,-2.1 0.8,-1.8 0.7,-0.6 0.8,-1.3 0.7,0 0.8,0.1 0.7,1.3 0.8,1 0.7,1.4 0.8,1.5 0.7,0.6 0.8,0.5 0.7,-0.2 0.8,-0.5 0.7,-0.3 0.7,-0.9 0.8,0.9 0.7,0.4 0.8,0.4 0.7,0.8 0.8,1.8 0.7,1.7 0.8,1.3 0.7,0.7 0.8,0.6 0.7,-0.4 0.8,-1.4 0.7,-0.9 0.8,-2.1 0.7,-1.5 0.8,-1.9 0.7,-1.9 0.8,-2 0.7,-2 0.8,-1.9 0.7,-1 0.7,-2 0.8,-1.3 0.7,-1.3 0.8,-0.9 0.7,-0.6 0.8,-0.3 0.7,0.3 0.8,1.4 0.7,0.6 0.8,1.1 0.7,1.2 0.8,1.1 0.7,0.9 0.8,0.5 0.7,0.2 0.8,0.4 0.7,0 0.8,-0.2 0.7,0.1 0.7,1.3 0.8,1.6 0.7,0.8 0.8,2.1 0.7,2 0.8,1.1 0.7,1.9 0.8,1 0.7,0.4 0.8,0.4 0.7,0.1 0.8,-0.3 0.7,-0.3 0.8,0.2 0.7,0.2 0.8,1.8 0.7,0.4 0.8,0.9 0.7,1.2 0.8,1.7 0.7,0.6 0.7,0.3 0.8,0.4 0.7,0.2 0.8,0.1 0.7,-0.6 0.8,-0.7 0.7,-0.8"
     id="path4583" />
  <path
     style="fill:none;stroke:#000000;stroke-width:2.49999996;stroke-miterlimit:4;stroke-dasharray:7.49999989,7.49999989;stroke-dashoffset:0"
     d="m 216.43793,1702.8418 3.7,2.6 3.8,2.7 3.7,1.9 3.7,0.8 3.8,-0.1 3.7,-0.3 3.8,-1 3.7,-1.8 3.7,-2.1 3.8,-1.9 3.7,-1.8 3.8,-0.5 3.7,-0.5 3.7,0.2 3.8,1 3.7,0.2 3.7,2.6 3.8,2.3 3.7,2.2 3.8,2.1 3.7,1.7 3.7,1.5 3.8,0 3.7,-0.5 3.7,0 3.8,-0.8 3.7,-2.9 3.8,-3.4 3.7,-3.5 3.7,-1.6 3.8,-2 3.7,-1.5 3.7,0.8 3.8,0.5 3.7,0.9 3.8,1.4 3.7,1.6 3.7,1.5 3.8,0.4 3.7,-0.6 3.8,-1.6 3.7,-3.4 3.7,-3.3 3.8,-3.4 3.7,-3.7 3.7,-4.2 3.8,-4.2 3.7,-3.3 3.8,-3.1 3.7,-2.9 3.7,-1.9 3.8,-1.2 3.7,-1.3 3.7,-1.3 3.8,-0.8 3.7,-0.6 3.8,-1 3.7,-0.1 3.7,0.1 3.8,0.2 3.7,0 3.7,0.2 3.8,0.7 3.7,1 3.8,1.1 3.7,0.5 3.7,0.2 3.8,0.6 3.7,-0.1 3.7,-0.5 3.8,-0.5 3.7,-0.6 3.8,-0.3 3.7,0.1 3.7,-0.9 3.8,-0.3 3.7,-0.7 3.8,0.4 3.7,0.3 3.7,-0.6 3.8,-0.1 3.7,-0.1 3.7,0.1 3.8,0 3.7,0.4 3.8,0.8 3.7,1.4 3.7,0.1 3.8,0.5 3.7,-0.1 3.7,0.7 3.8,0.1 3.7,0 3.8,0.8 3.7,-0.6 3.7,-0.2 3.8,0.9 3.7,1.1 3.7,1.8 3.8,2.5 3.7,1.7 3.8,1.8 3.7,1.9 3.7,2.1 3.8,1.5 3.7,0.6 3.7,1.1 3.8,0.7 3.7,0.4 3.8,-0.1 3.7,-0.2 3.7,1.5 3.8,1.9 3.7,1.2 3.8,0.9 3.7,1.4 3.7,1.2 3.8,1.8 3.7,0.1 3.7,-0.3 3.8,-1.2 3.7,-1 3.8,-2.1 3.7,-2.2 3.7,-3.2 3.8,-2.1 3.7,-1.6 3.7,-1.8 3.8,-1.7 3.7,-1.3 3.8,-0.9 3.7,-0.1 3.7,-0.7 3.8,-0.5 3.7,-0.4 3.7,0.2 3.8,0.5 3.7,1.2 3.8,1.7 3.7,3 3.7,2.4 3.8,2.8 3.7,2.8 3.8,2.1 3.7,2.5 3.7,1.6 3.8,1.6 3.7,1 3.7,-0.7 3.8,-0.1 3.7,-0.3 3.8,-0.5 3.7,-1.2 3.7,-1 3.8,-2.1 3.7,-1.5 3.7,-2.9 3.8,-0.5 3.7,-0.3 3.8,-0.7 3.7,0.3 3.7,0.7 3.8,1.6 3.7,0.7 3.7,1.2 3.8,0.8 3.7,-0.7 3.8,-1.3 3.7,-2.5 3.7,-2.5 3.8,-3.8 3.7,-4.1 3.7,-4.3 3.8,-2.9 3.7,-3.5 3.8,-2 3.7,-0.6 3.7,0.1 3.8,0.4 3.7,1.2 3.8,2 3.7,2.2 3.7,1 3.8,1.5 3.7,0.2 3.7,0.4 3.8,-0.5 3.7,-1.2 3.8,-0.8 3.7,0.5 3.7,-0.2 3.8,0.7 3.7,1 3.7,1.3 3.8,2 3.7,2.6 3.8,2.2 3.7,3 3.7,1.8"
     id="path5877" />
  <text
     xml:space="preserve"
     style="color:#000000;font-style:normal;font-variant:normal;font-weight:normal;font-stretch:normal;font-size:37.5px;line-height:100%;font-family:Arial;-inkscape-font-specification:Arial;text-indent:0;text-align:start;text-decoration:none;text-decoration-line:none;letter-spacing:0px;word-spacing:0px;text-transform:none;direction:ltr;block-progression:tb;writing-mode:lr-tb;text-anchor:start;display:inline;overflow:visible;visibility:visible;fill:#000000;fill-opacity:1;fill-rule:nonzero;stroke:none;stroke-width:1px;stroke-linecap:butt;stroke-linejoin:miter;stroke-opacity:1;marker:none;enable-background:accumulate"
     x="579.43427"
     y="1661.5576"
     id="text5980"
     sodipodi:linespacing="100%"><tspan
       sodipodi:role="line"
       id="tspan5982"
       x="579.43427"
       y="1661.5576">V2</tspan></text>
  <g
     id="layer1"
     inkscape:label="Layer 1"
     transform="matrix(2.5,0,0,2.5,1.2822544,-57.996821)">
    <g
       id="g4940"
       transform="matrix(0.40000001,0,0,0.40000001,1.7218354,-81.033728)">
      <text
         xml:space="preserve"
         style="color:#000000;font-style:normal;font-variant:normal;font-weight:normal;font-stretch:normal;font-size:37.5px;line-height:100%;font-family:Arial;-inkscape-font-specification:Arial;text-indent:0;text-align:start;text-decoration:none;text-decoration-line:none;letter-spacing:0px;word-spacing:0px;text-transform:none;direction:ltr;block-progression:tb;writing-mode:lr-tb;text-anchor:start;display:inline;overflow:visible;visibility:visible;fill:#000000;fill-opacity:1;fill-rule:nonzero;stroke:none;stroke-width:1px;stroke-linecap:butt;stroke-linejoin:miter;stroke-opacity:1;marker:none;enable-background:accumulate"
         x="832.57562"
         y="1861.0986"
         id="text4830"
         sodipodi:linespacing="100%"><tspan
           sodipodi:role="line"
           id="tspan4832"
           x="832.57562"
           y="1861.0986">test</tspan></text>
      <text
         xml:space="preserve"
         style="color:#000000;font-style:normal;font-variant:normal;font-weight:normal;font-stretch:normal;font-size:37.5px;line-height:100%;font-family:Arial;-inkscape-font-specification:Arial;text-indent:0;text-align:start;text-decoration:none;text-decoration-line:none;letter-spacing:0px;word-spacing:0px;text-transform:none;direction:ltr;block-progression:tb;writing-mode:lr-tb;text-anchor:start;display:inline;overflow:visible;visibility:visible;fill:#000000;fill-opacity:1;fill-rule:nonzero;stroke:none;stroke-width:1px;stroke-linecap:butt;stroke-linejoin:miter;stroke-opacity:1;marker:none;enable-background:accumulate"
         x="832.57562"
         y="1818.9769"
         id="text6242"
         sodipodi:linespacing="100%"><tspan
           sodipodi:role="line"
           id="tspan6244"
           x="832.57562"
           y="1818.9769">train</tspan></text>
      <path
         style="opacity:1;fill:none;fill-opacity:1;fill-rule:nonzero;stroke:#000000;stroke-width:2.5;stroke-linecap:butt;stroke-linejoin:miter;stroke-miterlimit:4;stroke-dasharray:none;stroke-dashoffset:0;stroke-opacity:1"
         d="m 819.13256,1810.0149 -34.95205,0"
         id="path4884"
         inkscape:connector-curvature="0" />
      <path
         inkscape:connector-curvature="0"
         id="path4886"
         d="m 819.13256,1847.6556 -34.95205,0"
         style="opacity:1;fill:none;fill-opacity:1;fill-rule:nonzero;stroke:#000000;stroke-width:2.5;stroke-linecap:butt;stroke-linejoin:miter;stroke-miterlimit:4;stroke-dasharray:7.49999989, 7.49999989;stroke-dashoffset:0;stroke-opacity:1" />
    </g>
  </g>
</svg>
