<?xml version="1.0" encoding="ISO-8859-1" standalone="yes"?>
<svg width="263.75" height="193.606">
  <defs> 
    <marker id="ArrowEnd" viewBox="0 0 10 10" refX="0" refY="5" 
     markerUnits="strokeWidth" 
     markerWidth="4" 
     markerHeight="3" 
     orient="auto"> 
        <path d="M 0 0 L 10 5 L 0 10 z" /> 
    </marker>
    <marker id="ArrowStart" viewBox="0 0 10 10" refX="10" refY="5" 
     markerUnits="strokeWidth" 
     markerWidth="4" 
     markerHeight="3" 
     orient="auto"> 
        <path d="M 10 0 L 0 5 L 10 10 z" /> 
    </marker> </defs>
<g>
<path style="stroke:none; fill-rule:evenodd; fill:#ffffff" d="M 9.34305 191.619L 260.754 191.619L 260.754 3.22775L 9.34305 3.22775L 9.34305 191.619z"/>
<path style="stroke:#ffffff; stroke-width:0.10000000000000001; fill:none" d="M 9.34305 191.619L 260.754 191.619L 260.754 3.22775L 9.34305 3.22775L 9.34305 191.619z"/>
<path style="stroke:#000000; stroke-dasharray:6,3; stroke-width:1.9139600000000001; fill:none" d="M 161.414 13.2008C 161.414 13.2008 161.414 13.2008 159.183 16.4668C 156.953 19.7318 152.488 26.2708 151.054 31.2128C 149.621 36.1538 151.211 39.5018 150.898 43.2478C 150.582 46.9938 148.347 51.1378 147.234 54.6458C 146.121 58.1538 146.121 61.0208 143.808 64.6888C 141.5 68.3528 136.875 72.8178 134.324 76.8058C 131.773 80.7908 131.297 84.2988 129.781 88.5248C 128.269 92.7478 125.718 97.6928 123.246 102.955C 120.777 108.213 118.386 113.795 117.187 116.584C 115.992 119.373 115.992 119.373 115.992 119.373"/>
<path style="stroke:#000000; stroke-width:1.9139600000000001; fill:none" d="M 150.89 108.388C 150.89 108.388 150.89 108.388 147.465 109.822C 144.039 111.255 137.183 114.127 131.601 116.119C 126.023 118.111 121.718 119.224 117.015 119.865C 112.312 120.502 107.211 120.662 100.437 123.212C 93.6636 125.763 85.2103 130.705 77.5578 137.08C 69.9055 143.455 63.05 151.267 66.1594 159.4C 69.2648 167.529 82.3391 175.978 94.4605 180.127C 106.578 184.271 117.738 184.111 128.976 182.595C 140.215 181.084 151.535 178.212 161.82 173.033C 172.101 167.853 181.347 160.357 191.875 157.408C 202.394 154.459 214.195 156.056 225.035 154.302C 235.875 152.548 245.761 147.447 250.383 137.404C 255.004 127.361 254.367 112.373 251.258 99.0598C 248.152 85.7478 242.57 74.1108 233.562 60.8768C 224.554 47.6458 212.121 32.8178 192.109 22.8528C 172.101 12.8878 144.519 7.78676 118.847 10.9778C 93.1786 14.1658 69.4212 25.6458 55.4719 36.4078C 41.5227 47.1698 37.3781 57.2128 34.5852 67.8138C 31.7961 78.4158 30.3625 89.5758 30.2805 97.3098C 30.2023 105.041 31.4758 109.345 34.9837 114.048C 38.4914 118.752 44.2297 123.853 49.8898 127.041C 55.5462 130.228 61.1282 131.502 67.8234 131.263C 74.5187 131.025 82.3314 129.271 86.2375 128.396C 90.1395 127.521 90.1395 127.521 90.1395 127.521"/>
<path style="stroke:#000000; stroke-dasharray:6,3; stroke-width:1.9139600000000001; fill:none" d="M 241.293 73.9468C 241.293 73.9468 241.293 73.9468 238.902 75.3808C 236.511 76.8138 231.73 79.6848 227.426 81.7558C 223.121 83.8258 219.297 85.1028 216.347 88.1308C 213.398 91.1578 211.328 95.9388 209.812 101.123C 208.3 106.303 207.343 111.884 207.343 117.701C 207.343 123.517 208.297 129.58 211.328 135.158C 214.355 140.736 219.457 145.837 223.363 148.869C 227.265 151.896 229.976 152.853 231.332 153.33C 232.683 153.806 232.683 153.806 232.683 153.806"/>
<path style="stroke:#000000; stroke-dasharray:6,3; stroke-width:1.9139600000000001; fill:none" d="M 150.414 108.388C 150.414 108.388 150.414 108.388 152.804 107.752C 155.195 107.115 159.976 105.842 169.383 106.24C 178.789 106.638 192.82 108.709 199.832 109.748C 206.847 110.783 206.847 110.783 206.847 110.783"/>
<path style="stroke:#000000; stroke-width:2.87094; fill:none" d="M 46.1359 74.9038C 46.1359 74.9038 46.1359 74.9038 49.8 72.9938C 53.4641 71.0838 60.8 67.2558 67.257 64.4668C 73.7103 61.6778 79.2923 59.9238 83.6789 58.8098C 88.0618 57.6968 91.2495 57.2168 94.1206 58.2558C 96.9875 59.2908 99.5386 61.8418 99.6985 68.2988C 99.8545 74.7518 97.6285 85.1188 96.5106 90.2988C 95.3976 95.4778 95.3976 95.4778 95.3976 95.4778"/>
<path style="stroke:#000000; stroke-width:2.87094; fill:none" d="M 53.8118 73.0598L 46.1398 74.9038L 52.0383 69.6698"/>
<path style="stroke:#000000; stroke-width:2.87094; fill:none" d="M 98.8856 88.3918L 95.4055 95.4708L 95.1476 87.5838"/>
<path style="stroke:none; fill-rule:evenodd; fill:#ffffff" d="M 15.0461 103.127L 69.5734 103.127L 69.5734 76.8218L 15.0461 76.8218L 15.0461 103.127z"/>
<path style="stroke:#ffffff; stroke-width:2.87094; fill:none" d="M 15.0461 103.127L 69.5734 103.127L 69.5734 76.8218L 15.0461 76.8218L 15.0461 103.127z"/>
<path style="stroke:none; fill-rule:evenodd; fill:#000000" d="M 21.1789 85.8648C 21.0734 85.9278 21.0266 85.9278 20.968 85.9278C 20.6281 85.9278 20.4406 85.7558 20.4406 85.4548L 20.4406 81.8878C 20.4406 80.8138 19.6633 80.2318 18.1906 80.2318C 17.3234 80.2318 16.6047 80.4858 16.2023 80.9348C 15.9289 81.2438 15.8156 81.5918 15.7922 82.1928L 16.7375 82.1928C 16.8156 81.4628 17.2414 81.1348 18.1242 81.1348C 18.968 81.1348 19.4406 81.4548 19.4406 82.0328L 19.4406 82.2868C 19.4406 82.6888 19.2063 82.8608 18.4641 82.9548C 17.1398 83.1268 16.9367 83.1738 16.5773 83.3218C 15.8937 83.6068 15.5461 84.1498 15.5461 84.9348C 15.5461 86.0288 16.3 86.7208 17.5148 86.7208C 18.2687 86.7208 18.8742 86.4468 19.55 85.8028C 19.6164 86.4348 19.9133 86.7208 20.5344 86.7208C 20.7258 86.7208 20.8742 86.6968 21.1828 86.6148L 21.1789 85.8648zM 19.4367 84.5678C 19.4367 84.8958 19.3508 85.0988 19.0695 85.3728C 18.6906 85.7358 18.2336 85.9278 17.6867 85.9278C 16.9641 85.9278 16.5422 85.5638 16.5422 84.9348C 16.5422 84.2868 16.9523 83.9548 17.9445 83.8028C 18.925 83.6618 19.1242 83.6148 19.4367 83.4588L 19.4367 84.5678z"/>
<path style="stroke:none; fill-rule:evenodd; fill:#000000" d="M 22.0344 78.0288L 22.0344 86.4278L 22.9328 86.4278L 22.9328 85.6578C 23.3859 86.3808 23.9914 86.7238 24.8273 86.7238C 26.4016 86.7238 27.4289 85.4198 27.4289 83.4078C 27.4289 81.4428 26.4484 80.2278 24.8781 80.2278C 24.0578 80.2278 23.4797 80.5408 23.0344 81.2238L 23.0344 78.0288L 22.0344 78.0288zM 24.6867 81.1348C 25.7531 81.1348 26.4406 82.0638 26.4406 83.4978C 26.4406 84.8608 25.7297 85.7948 24.6867 85.7948C 23.6789 85.7948 23.0109 84.8768 23.0109 83.4668C 23.0109 82.0558 23.675 81.1378 24.6867 81.1378L 24.6867 81.1348z"/>
<path style="stroke:none; fill-rule:evenodd; fill:#000000" d="M 32.8664 82.0878C 32.8547 80.8998 32.0695 80.2318 30.6672 80.2318C 29.257 80.2318 28.3391 80.9588 28.3391 82.0758C 28.3391 83.0208 28.8273 83.4708 30.2766 83.8178L 31.1867 84.0368C 31.8625 84.1968 32.132 84.4388 32.132 84.8768C 32.132 85.4388 31.5656 85.8218 30.7219 85.8218C 30.2023 85.8218 29.7648 85.6738 29.5227 85.4158C 29.3742 85.2438 29.3039 85.0678 29.2492 84.6348L 28.2336 84.6348C 28.2766 86.0448 29.0617 86.7238 30.6437 86.7238C 32.1672 86.7238 33.1359 85.9738 33.1359 84.8098C 33.1359 83.9118 32.6242 83.4158 31.4094 83.1268L 30.4758 82.9078C 29.6828 82.7238 29.343 82.4708 29.343 82.0448C 29.343 81.4938 29.8391 81.1348 30.6281 81.1348C 31.4055 81.1348 31.8234 81.4628 31.8469 82.0918L 32.8664 82.0878z"/>
<path style="stroke:none; fill-rule:evenodd; fill:#000000" d="M 36.4367 80.4278L 35.5383 80.4278L 35.5383 78.7598L 34.5383 78.7598L 34.5383 80.4278L 33.6398 80.4278L 33.6398 81.2238L 34.5383 81.2238L 34.5383 85.7708C 34.5383 86.3768 34.9406 86.7208 35.6712 86.7208C 35.8937 86.7208 36.1203 86.6968 36.4328 86.6378L 36.4328 85.8028C 36.3195 85.8918 36.1828 85.9198 36.0148 85.9198C 35.6398 85.9198 35.5344 85.8058 35.5344 85.3768L 35.5344 81.2238L 36.4328 81.2238L 36.4367 80.4278z"/>
<path style="stroke:none; fill-rule:evenodd; fill:#000000" d="M 37.5344 80.3998L 37.5344 86.4238L 38.5344 86.4238L 38.5344 83.2908C 38.5344 82.4278 38.7453 81.8648 39.1945 81.5288C 39.4837 81.3098 39.7648 81.2438 40.4172 81.2318L 40.4172 80.2668C 40.2609 80.2478 40.1789 80.2358 40.0539 80.2358C 39.4445 80.2358 38.9797 80.6028 38.4328 81.5018L 38.4328 80.4118L 37.5344 80.3998z"/>
<path style="stroke:none; fill-rule:evenodd; fill:#000000" d="M 46.6789 85.8648C 46.5734 85.9278 46.5266 85.9278 46.468 85.9278C 46.1281 85.9278 45.9406 85.7558 45.9406 85.4548L 45.9406 81.8878C 45.9406 80.8138 45.1633 80.2318 43.6906 80.2318C 42.8234 80.2318 42.1047 80.4858 41.7023 80.9348C 41.4289 81.2438 41.3156 81.5918 41.2922 82.1928L 42.2375 82.1928C 42.3156 81.4628 42.7414 81.1348 43.6242 81.1348C 44.468 81.1348 44.9406 81.4548 44.9406 82.0328L 44.9406 82.2868C 44.9406 82.6888 44.7063 82.8608 43.9641 82.9548C 42.6398 83.1268 42.4367 83.1738 42.0773 83.3218C 41.3937 83.6068 41.0462 84.1498 41.0462 84.9348C 41.0462 86.0288 41.8 86.7208 43.0148 86.7208C 43.7687 86.7208 44.3742 86.4468 45.05 85.8028C 45.1164 86.4348 45.4133 86.7208 46.0344 86.7208C 46.2258 86.7208 46.3742 86.6968 46.6828 86.6148L 46.6789 85.8648zM 44.9367 84.5678C 44.9367 84.8958 44.8508 85.0988 44.5695 85.3728C 44.1906 85.7358 43.7337 85.9278 43.1867 85.9278C 42.4641 85.9278 42.0422 85.5638 42.0422 84.9348C 42.0422 84.2868 42.4523 83.9548 43.4445 83.8028C 44.425 83.6618 44.6242 83.6148 44.9367 83.4588L 44.9367 84.5678z"/>
<path style="stroke:none; fill-rule:evenodd; fill:#000000" d="M 52.343 82.4308C 52.3 81.8458 52.175 81.4628 51.9445 81.1308C 51.5383 80.5678 50.8195 80.2318 49.9875 80.2318C 48.3859 80.2318 47.3391 81.5248 47.3391 83.5368C 47.3391 85.4898 48.3625 86.7278 49.9797 86.7278C 51.4016 86.7278 52.3 85.8528 52.4133 84.3648L 51.4602 84.3648C 51.3039 85.3418 50.8156 85.8298 50.007 85.8298C 48.9641 85.8298 48.3391 84.9668 48.3391 83.5408C 48.3391 82.0328 48.9484 81.1348 49.9837 81.1348C 50.7766 81.1348 51.2766 81.6028 51.3898 82.4348L 52.343 82.4308z"/>
<path style="stroke:none; fill-rule:evenodd; fill:#000000" d="M 55.6359 80.4278L 54.7375 80.4278L 54.7375 78.7598L 53.7375 78.7598L 53.7375 80.4278L 52.8391 80.4278L 52.8391 81.2238L 53.7375 81.2238L 53.7375 85.7708C 53.7375 86.3768 54.1398 86.7208 54.8703 86.7208C 55.093 86.7208 55.3195 86.6968 55.632 86.6378L 55.632 85.8028C 55.5187 85.8918 55.382 85.9198 55.2141 85.9198C 54.8391 85.9198 54.7337 85.8058 54.7337 85.3768L 54.7337 81.2238L 55.632 81.2238L 55.6359 80.4278z"/>
<path style="stroke:none; fill-rule:evenodd; fill:#000000" d="M 18.175 91.7278C 16.4719 91.7278 15.4406 92.9388 15.4406 94.9778C 15.4406 97.0098 16.4602 98.2278 18.1906 98.2278C 19.8937 98.2278 20.9406 97.0168 20.9406 95.0248C 20.9406 92.9348 19.9328 91.7318 18.1789 91.7318L 18.175 91.7278zM 18.1867 92.6268C 19.2805 92.6268 19.9367 93.5138 19.9367 95.0098C 19.9367 96.4238 19.2609 97.3218 18.1867 97.3218C 17.1047 97.3218 16.4406 96.4348 16.4406 94.9738C 16.4406 93.5248 17.1047 92.6268 18.1867 92.6268z"/>
<path style="stroke:none; fill-rule:evenodd; fill:#000000" d="M 27.0344 97.9628L 27.0344 91.9278L 26.0344 91.9278L 26.0344 95.3728C 26.0344 96.6108 25.3898 97.4238 24.3859 97.4238C 23.6242 97.4238 23.1398 96.9628 23.1398 96.2318L 23.1398 91.9278L 22.1398 91.9278L 22.1398 96.5798C 22.1398 97.5798 22.8977 98.2238 24.0891 98.2238C 24.9875 98.2238 25.5617 97.9158 26.132 97.1228L 26.132 97.9628L 27.0344 97.9628z"/>
<path style="stroke:none; fill-rule:evenodd; fill:#000000" d="M 30.7375 91.9278L 29.8391 91.9278L 29.8391 90.2598L 28.8391 90.2598L 28.8391 91.9278L 27.9406 91.9278L 27.9406 92.7238L 28.8391 92.7238L 28.8391 97.2708C 28.8391 97.8768 29.2414 98.2208 29.9719 98.2208C 30.1945 98.2208 30.4211 98.1968 30.7336 98.1378L 30.7336 97.3028C 30.6203 97.3918 30.4836 97.4198 30.3156 97.4198C 29.9406 97.4198 29.8352 97.3058 29.8352 96.8768L 29.8352 92.7238L 30.7336 92.7238L 30.7375 91.9278z"/>
<path style="stroke:none; fill-rule:evenodd; fill:#000000" d="M 36.9367 95.2278C 36.9367 94.3098 36.8703 93.7598 36.6984 93.3138C 36.3117 92.3298 35.3977 91.7318 34.2805 91.7318C 32.6164 91.7318 31.5422 93.0248 31.5422 95.0138C 31.5422 97.0018 32.5773 98.2278 34.2531 98.2278C 35.6164 98.2278 36.5656 97.4348 36.8039 96.1028L 35.8508 96.1028C 35.5891 96.9078 35.0578 97.3258 34.2962 97.3258C 33.6945 97.3258 33.1828 97.0488 32.8664 96.5328C 32.6398 96.1848 32.5617 95.8338 32.55 95.2278L 36.9367 95.2278zM 32.5148 94.4588C 32.593 93.3458 33.2727 92.6228 34.2375 92.6228C 35.1789 92.6228 35.9016 93.3998 35.9016 94.3878C 35.9016 94.4078 35.9016 94.4308 35.8937 94.4548L 32.5148 94.4588z"/>
<path style="stroke:none; fill-rule:evenodd; fill:#000000" d="M 38.2375 91.8998L 38.2375 97.9238L 39.2375 97.9238L 39.2375 94.7908C 39.2375 93.9278 39.4484 93.3648 39.8977 93.0288C 40.1867 92.8098 40.468 92.7438 41.1203 92.7318L 41.1203 91.7668C 40.9641 91.7478 40.882 91.7358 40.757 91.7358C 40.1477 91.7358 39.6828 92.1028 39.1359 93.0018L 39.1359 91.9118L 38.2375 91.8998z"/>
<path style="stroke:none; fill-rule:evenodd; fill:#000000" d="M 45.2375 97.9278L 46.2375 97.9278L 46.2375 89.5288L 45.2375 89.5288L 45.2375 97.9278z"/>
<path style="stroke:none; fill-rule:evenodd; fill:#000000" d="M 50.0734 91.7278C 48.3703 91.7278 47.3391 92.9388 47.3391 94.9778C 47.3391 97.0098 48.3587 98.2278 50.0891 98.2278C 51.7922 98.2278 52.8391 97.0168 52.8391 95.0248C 52.8391 92.9348 51.8313 91.7318 50.0773 91.7318L 50.0734 91.7278zM 50.0852 92.6268C 51.1789 92.6268 51.8352 93.5138 51.8352 95.0098C 51.8352 96.4238 51.1594 97.3218 50.0852 97.3218C 49.0031 97.3218 48.3391 96.4348 48.3391 94.9738C 48.3391 93.5248 49.0031 92.6268 50.0852 92.6268z"/>
<path style="stroke:none; fill-rule:evenodd; fill:#000000" d="M 56.4719 91.7278C 54.7687 91.7278 53.7375 92.9388 53.7375 94.9778C 53.7375 97.0098 54.757 98.2278 56.4875 98.2278C 58.1907 98.2278 59.2375 97.0168 59.2375 95.0248C 59.2375 92.9348 58.2298 91.7318 56.4758 91.7318L 56.4719 91.7278zM 56.4875 92.6268C 57.5814 92.6268 58.2375 93.5138 58.2375 95.0098C 58.2375 96.4238 57.5618 97.3218 56.4875 97.3218C 55.4055 97.3218 54.7414 96.4348 54.7414 94.9738C 54.7414 93.5248 55.4055 92.6268 56.4875 92.6268z"/>
<path style="stroke:none; fill-rule:evenodd; fill:#000000" d="M 60.3353 100.431L 61.3353 100.431L 61.3353 97.3298C 61.8353 97.9508 62.3978 98.2278 63.175 98.2278C 64.718 98.2278 65.7337 96.9708 65.7337 95.0368C 65.7337 93.0018 64.7493 91.7318 63.1516 91.7318C 62.3391 91.7318 61.6828 92.0988 61.2375 92.8098L 61.2375 91.9038L 60.3391 91.9038L 60.3353 100.431zM 63.0032 92.6268C 64.05 92.6268 64.7375 93.5638 64.7375 95.0098C 64.7375 96.3848 64.0423 97.3218 63.0032 97.3218C 61.9993 97.3218 61.3391 96.3958 61.3391 94.9738C 61.3391 93.5528 61.9993 92.6268 63.0032 92.6268z"/>
<path style="stroke:none; fill-rule:evenodd; fill:#ffffff" d="M 104.965 114.99L 172.902 114.99L 172.902 78.3138L 104.965 78.3138L 104.965 114.99z"/>
<path style="stroke:#ffffff; stroke-width:2.87094; fill:none" d="M 104.965 114.99L 172.902 114.99L 172.902 78.3138L 104.965 78.3138L 104.965 114.99z"/>
<path style="stroke:none; fill-rule:evenodd; fill:#000000" d="M 110.445 82.9308C 110.402 82.3458 110.277 81.9628 110.047 81.6308C 109.64 81.0678 108.922 80.7318 108.09 80.7318C 106.488 80.7318 105.441 82.0248 105.441 84.0368C 105.441 85.9898 106.465 87.2278 108.082 87.2278C 109.504 87.2278 110.402 86.3528 110.515 84.8648L 109.562 84.8648C 109.406 85.8418 108.918 86.3298 108.109 86.3298C 107.066 86.3298 106.441 85.4668 106.441 84.0408C 106.441 82.5328 107.05 81.6348 108.086 81.6348C 108.879 81.6348 109.379 82.1028 109.492 82.9348L 110.445 82.9308z"/>
<path style="stroke:none; fill-rule:evenodd; fill:#000000" d="M 113.875 80.7278C 112.172 80.7278 111.14 81.9388 111.14 83.9778C 111.14 86.0098 112.16 87.2278 113.89 87.2278C 115.593 87.2278 116.64 86.0168 116.64 84.0248C 116.64 81.9348 115.633 80.7318 113.879 80.7318L 113.875 80.7278zM 113.886 81.6268C 114.98 81.6268 115.636 82.5138 115.636 84.0098C 115.636 85.4238 114.961 86.3218 113.886 86.3218C 112.804 86.3218 112.14 85.4348 112.14 83.9738C 112.14 82.5248 112.804 81.6268 113.886 81.6268z"/>
<path style="stroke:none; fill-rule:evenodd; fill:#000000" d="M 117.937 80.8998L 117.937 86.9238L 118.937 86.9238L 118.937 83.5758C 118.937 82.3378 119.562 81.5248 120.527 81.5248C 121.265 81.5248 121.734 81.9858 121.734 82.7168L 121.734 86.9198L 122.734 86.9198L 122.734 82.3688C 122.734 81.3688 121.992 80.7238 120.832 80.7238C 119.941 80.7238 119.367 81.0678 118.84 81.9078L 118.84 80.8958L 117.937 80.8998z"/>
<path style="stroke:none; fill-rule:evenodd; fill:#000000" d="M 128.945 82.9308C 128.902 82.3458 128.777 81.9628 128.547 81.6308C 128.14 81.0678 127.422 80.7318 126.59 80.7318C 124.988 80.7318 123.941 82.0248 123.941 84.0368C 123.941 85.9898 124.965 87.2278 126.582 87.2278C 128.004 87.2278 128.902 86.3528 129.015 84.8648L 128.062 84.8648C 127.906 85.8418 127.418 86.3298 126.609 86.3298C 125.566 86.3298 124.941 85.4668 124.941 84.0408C 124.941 82.5328 125.55 81.6348 126.586 81.6348C 127.379 81.6348 127.879 82.1028 127.992 82.9348L 128.945 82.9308z"/>
<path style="stroke:none; fill-rule:evenodd; fill:#000000" d="M 130.035 80.8998L 130.035 86.9238L 131.035 86.9238L 131.035 83.7908C 131.035 82.9278 131.246 82.3648 131.695 82.0288C 131.984 81.8098 132.265 81.7438 132.918 81.7318L 132.918 80.7668C 132.761 80.7478 132.679 80.7358 132.554 80.7358C 131.945 80.7358 131.48 81.1028 130.933 82.0018L 130.933 80.9118L 130.035 80.8998z"/>
<path style="stroke:none; fill-rule:evenodd; fill:#000000" d="M 138.937 84.2278C 138.937 83.3098 138.871 82.7598 138.699 82.3138C 138.312 81.3298 137.398 80.7318 136.281 80.7318C 134.617 80.7318 133.543 82.0248 133.543 84.0138C 133.543 86.0018 134.578 87.2278 136.254 87.2278C 137.617 87.2278 138.566 86.4348 138.804 85.1028L 137.851 85.1028C 137.59 85.9078 137.058 86.3258 136.297 86.3258C 135.695 86.3258 135.183 86.0488 134.867 85.5328C 134.64 85.1848 134.562 84.8338 134.55 84.2278L 138.937 84.2278zM 134.515 83.4588C 134.593 82.3458 135.273 81.6228 136.238 81.6228C 137.179 81.6228 137.902 82.3998 137.902 83.3878C 137.902 83.4078 137.902 83.4308 137.894 83.4548L 134.515 83.4588z"/>
<path style="stroke:none; fill-rule:evenodd; fill:#000000" d="M 142.336 80.9278L 141.437 80.9278L 141.437 79.2598L 140.437 79.2598L 140.437 80.9278L 139.539 80.9278L 139.539 81.7238L 140.437 81.7238L 140.437 86.2708C 140.437 86.8768 140.84 87.2208 141.57 87.2208C 141.793 87.2208 142.019 87.1968 142.332 87.1378L 142.332 86.3028C 142.218 86.3918 142.082 86.4198 141.914 86.4198C 141.539 86.4198 141.433 86.3058 141.433 85.8768L 141.433 81.7238L 142.332 81.7238L 142.336 80.9278z"/>
<path style="stroke:none; fill-rule:evenodd; fill:#000000" d="M 148.535 84.2278C 148.535 83.3098 148.468 82.7598 148.297 82.3138C 147.91 81.3298 146.996 80.7318 145.879 80.7318C 144.215 80.7318 143.14 82.0248 143.14 84.0138C 143.14 86.0018 144.176 87.2278 145.851 87.2278C 147.215 87.2278 148.164 86.4348 148.402 85.1028L 147.449 85.1028C 147.187 85.9078 146.656 86.3258 145.894 86.3258C 145.293 86.3258 144.781 86.0488 144.465 85.5328C 144.238 85.1848 144.16 84.8338 144.148 84.2278L 148.535 84.2278zM 144.117 83.4588C 144.195 82.3458 144.875 81.6228 145.84 81.6228C 146.781 81.6228 147.504 82.3998 147.504 83.3878C 147.504 83.4078 147.504 83.4308 147.496 83.4548L 144.117 83.4588z"/>
<path style="stroke:none; fill-rule:evenodd; fill:#000000" d="M 107.761 90.0288C 106.644 91.5368 105.937 93.6308 105.937 95.4388C 105.937 97.2558 106.64 99.3488 107.761 100.861L 108.375 100.861C 107.386 99.2168 106.836 97.2828 106.836 95.4388C 106.836 93.6108 107.386 91.6658 108.375 90.0288L 107.761 90.0288z"/>
<path style="stroke:none; fill-rule:evenodd; fill:#000000" d="M 110.535 92.4278L 109.535 92.4278L 109.535 98.4278L 110.535 98.4278L 110.535 92.4278zM 110.535 90.0288L 109.535 90.0288L 109.535 91.2598L 110.535 91.2598L 110.535 90.0288z"/>
<path style="stroke:none; fill-rule:evenodd; fill:#000000" d="M 114.238 92.4278L 113.34 92.4278L 113.34 90.7598L 112.34 90.7598L 112.34 92.4278L 111.441 92.4278L 111.441 93.2238L 112.34 93.2238L 112.34 97.7708C 112.34 98.3768 112.742 98.7208 113.472 98.7208C 113.695 98.7208 113.922 98.6968 114.234 98.6378L 114.234 97.8028C 114.121 97.8918 113.984 97.9198 113.816 97.9198C 113.441 97.9198 113.336 97.8058 113.336 97.3768L 113.336 93.2238L 114.234 93.2238L 114.238 92.4278z"/>
<path style="stroke:none; fill-rule:evenodd; fill:#000000" d="M 120.437 95.7278C 120.437 94.8098 120.371 94.2598 120.199 93.8138C 119.812 92.8298 118.898 92.2318 117.781 92.2318C 116.117 92.2318 115.043 93.5248 115.043 95.5138C 115.043 97.5018 116.078 98.7278 117.754 98.7278C 119.117 98.7278 120.066 97.9348 120.304 96.6028L 119.351 96.6028C 119.09 97.4078 118.558 97.8258 117.797 97.8258C 117.195 97.8258 116.683 97.5488 116.367 97.0328C 116.14 96.6848 116.062 96.3338 116.05 95.7278L 120.437 95.7278zM 116.015 94.9588C 116.093 93.8458 116.773 93.1228 117.738 93.1228C 118.679 93.1228 119.402 93.8998 119.402 94.8878C 119.402 94.9078 119.402 94.9308 119.394 94.9548L 116.015 94.9588z"/>
<path style="stroke:none; fill-rule:evenodd; fill:#000000" d="M 121.738 92.3998L 121.738 98.4238L 122.738 98.4238L 122.738 94.6148C 122.738 93.7358 123.363 93.0288 124.133 93.0288C 124.836 93.0288 125.234 93.4668 125.234 94.2438L 125.234 98.4238L 126.234 98.4238L 126.234 94.6148C 126.234 93.7358 126.859 93.0288 127.629 93.0288C 128.32 93.0288 128.73 93.4778 128.73 94.2438L 128.73 98.4238L 129.73 98.4238L 129.73 93.9038C 129.73 92.8258 129.109 92.2238 127.976 92.2238C 127.172 92.2238 126.683 92.4668 126.121 93.1498C 125.765 92.5018 125.281 92.2238 124.496 92.2238C 123.691 92.2238 123.16 92.5208 122.64 93.2478L 122.64 92.3998L 121.738 92.3998z"/>
<path style="stroke:none; fill-rule:evenodd; fill:#000000" d="M 136.738 92.4278L 135.738 92.4278L 135.738 91.4588C 135.738 91.0448 135.965 90.8338 136.402 90.8338C 136.48 90.8338 136.515 90.8338 136.734 90.8338L 136.734 90.0918C 136.511 90.0488 136.383 90.0408 136.183 90.0408C 135.281 90.0408 134.738 90.5488 134.738 91.4118L 134.738 92.4348L 133.941 92.4348L 133.941 93.2318L 134.738 93.2318L 134.738 98.4308L 135.738 98.4308L 135.738 93.2318L 136.738 93.2318L 136.738 92.4278z"/>
<path style="stroke:none; fill-rule:evenodd; fill:#000000" d="M 142.836 95.7278C 142.836 94.8098 142.769 94.2598 142.597 93.8138C 142.211 92.8298 141.297 92.2318 140.179 92.2318C 138.515 92.2318 137.441 93.5248 137.441 95.5138C 137.441 97.5018 138.476 98.7278 140.152 98.7278C 141.515 98.7278 142.465 97.9348 142.703 96.6028L 141.75 96.6028C 141.488 97.4078 140.957 97.8258 140.195 97.8258C 139.593 97.8258 139.082 97.5488 138.765 97.0328C 138.539 96.6848 138.461 96.3338 138.449 95.7278L 142.836 95.7278zM 138.418 94.9588C 138.496 93.8458 139.176 93.1228 140.14 93.1228C 141.082 93.1228 141.804 93.8998 141.804 94.8878C 141.804 94.9078 141.804 94.9308 141.797 94.9548L 138.418 94.9588z"/>
<path style="stroke:none; fill-rule:evenodd; fill:#000000" d="M 149.48 97.8648C 149.375 97.9278 149.328 97.9278 149.269 97.9278C 148.929 97.9278 148.742 97.7558 148.742 97.4548L 148.742 93.8878C 148.742 92.8138 147.965 92.2318 146.492 92.2318C 145.625 92.2318 144.906 92.4858 144.504 92.9348C 144.23 93.2438 144.117 93.5918 144.093 94.1928L 145.039 94.1928C 145.117 93.4628 145.543 93.1348 146.426 93.1348C 147.269 93.1348 147.742 93.4548 147.742 94.0328L 147.742 94.2868C 147.742 94.6888 147.508 94.8608 146.765 94.9548C 145.441 95.1268 145.238 95.1738 144.879 95.3218C 144.195 95.6068 143.847 96.1498 143.847 96.9348C 143.847 98.0288 144.601 98.7208 145.816 98.7208C 146.57 98.7208 147.176 98.4468 147.851 97.8028C 147.918 98.4348 148.215 98.7208 148.836 98.7208C 149.027 98.7208 149.176 98.6968 149.484 98.6148L 149.48 97.8648zM 147.738 96.5678C 147.738 96.8958 147.652 97.0988 147.371 97.3728C 146.992 97.7358 146.535 97.9278 145.988 97.9278C 145.265 97.9278 144.843 97.5638 144.843 96.9348C 144.843 96.2868 145.254 95.9548 146.246 95.8028C 147.226 95.6618 147.426 95.6148 147.738 95.4588L 147.738 96.5678z"/>
<path style="stroke:none; fill-rule:evenodd; fill:#000000" d="M 152.535 92.4278L 151.636 92.4278L 151.636 90.7598L 150.636 90.7598L 150.636 92.4278L 149.738 92.4278L 149.738 93.2238L 150.636 93.2238L 150.636 97.7708C 150.636 98.3768 151.039 98.7208 151.769 98.7208C 151.992 98.7208 152.218 98.6968 152.531 98.6378L 152.531 97.8028C 152.418 97.8918 152.281 97.9198 152.113 97.9198C 151.738 97.9198 151.633 97.8058 151.633 97.3768L 151.633 93.2238L 152.531 93.2238L 152.535 92.4278z"/>
<path style="stroke:none; fill-rule:evenodd; fill:#000000" d="M 158.437 98.4628L 158.437 92.4278L 157.437 92.4278L 157.437 95.8728C 157.437 97.1108 156.793 97.9238 155.789 97.9238C 155.027 97.9238 154.543 97.4628 154.543 96.7318L 154.543 92.4278L 153.543 92.4278L 153.543 97.0798C 153.543 98.0798 154.3 98.7238 155.492 98.7238C 156.39 98.7238 156.965 98.4158 157.535 97.6228L 157.535 98.4628L 158.437 98.4628z"/>
<path style="stroke:none; fill-rule:evenodd; fill:#000000" d="M 160.035 92.3998L 160.035 98.4238L 161.035 98.4238L 161.035 95.2908C 161.035 94.4278 161.246 93.8648 161.695 93.5288C 161.984 93.3098 162.265 93.2438 162.918 93.2318L 162.918 92.2668C 162.761 92.2478 162.679 92.2358 162.554 92.2358C 161.945 92.2358 161.48 92.6028 160.933 93.5018L 160.933 92.4118L 160.035 92.3998z"/>
<path style="stroke:none; fill-rule:evenodd; fill:#000000" d="M 168.937 95.7278C 168.937 94.8098 168.871 94.2598 168.699 93.8138C 168.312 92.8298 167.398 92.2318 166.281 92.2318C 164.617 92.2318 163.543 93.5248 163.543 95.5138C 163.543 97.5018 164.578 98.7278 166.254 98.7278C 167.617 98.7278 168.566 97.9348 168.804 96.6028L 167.851 96.6028C 167.59 97.4078 167.058 97.8258 166.297 97.8258C 165.695 97.8258 165.183 97.5488 164.867 97.0328C 164.64 96.6848 164.562 96.3338 164.55 95.7278L 168.937 95.7278zM 164.515 94.9588C 164.593 93.8458 165.273 93.1228 166.238 93.1228C 167.179 93.1228 167.902 93.8998 167.902 94.8878C 167.902 94.9078 167.902 94.9308 167.894 94.9548L 164.515 94.9588z"/>
<path style="stroke:none; fill-rule:evenodd; fill:#000000" d="M 174.465 94.0878C 174.453 92.8998 173.668 92.2318 172.265 92.2318C 170.855 92.2318 169.937 92.9588 169.937 94.0758C 169.937 95.0208 170.426 95.4708 171.875 95.8178L 172.785 96.0368C 173.461 96.1968 173.73 96.4388 173.73 96.8768C 173.73 97.4388 173.164 97.8218 172.32 97.8218C 171.8 97.8218 171.363 97.6738 171.121 97.4158C 170.972 97.2438 170.902 97.0678 170.847 96.6348L 169.832 96.6348C 169.875 98.0448 170.66 98.7238 172.242 98.7238C 173.765 98.7238 174.734 97.9738 174.734 96.8098C 174.734 95.9118 174.222 95.4158 173.008 95.1268L 172.074 94.9078C 171.281 94.7238 170.941 94.4708 170.941 94.0448C 170.941 93.4938 171.437 93.1348 172.226 93.1348C 173.004 93.1348 173.422 93.4628 173.445 94.0918L 174.465 94.0878z"/>
<path style="stroke:none; fill-rule:evenodd; fill:#000000" d="M 176.293 100.861C 177.422 99.3528 178.133 97.2598 178.133 95.4548C 178.133 93.6378 177.422 91.5448 176.293 90.0328L 175.676 90.0328C 176.679 91.6778 177.238 93.6108 177.238 95.4548C 177.238 97.2828 176.679 99.2278 175.676 100.861L 176.293 100.861z"/>
<path style="stroke:none; fill-rule:evenodd; fill:#000000" d="M 106.738 103.826L 105.738 103.826L 105.738 109.826L 106.738 109.826L 106.738 103.826zM 106.738 101.428L 105.738 101.428L 105.738 102.658L 106.738 102.658L 106.738 101.428z"/>
<path style="stroke:none; fill-rule:evenodd; fill:#000000" d="M 108.336 103.803L 108.336 109.826L 109.336 109.826L 109.336 106.478C 109.336 105.24 109.961 104.428 110.926 104.428C 111.664 104.428 112.133 104.888 112.133 105.619L 112.133 109.822L 113.133 109.822L 113.133 105.271C 113.133 104.271 112.39 103.627 111.23 103.627C 110.34 103.627 109.765 103.971 109.238 104.81L 109.238 103.799L 108.336 103.803z"/>
<path style="stroke:none; fill-rule:evenodd; fill:#000000" d="M 114.738 103.803L 114.738 109.826L 115.738 109.826L 115.738 106.478C 115.738 105.24 116.363 104.428 117.328 104.428C 118.066 104.428 118.535 104.888 118.535 105.619L 118.535 109.822L 119.535 109.822L 119.535 105.271C 119.535 104.271 118.793 103.627 117.633 103.627C 116.742 103.627 116.168 103.971 115.64 104.81L 115.64 103.799L 114.738 103.803z"/>
<path style="stroke:none; fill-rule:evenodd; fill:#000000" d="M 126.238 107.127C 126.238 106.209 126.172 105.658 126 105.213C 125.613 104.228 124.699 103.631 123.582 103.631C 121.918 103.631 120.843 104.924 120.843 106.912C 120.843 108.9 121.879 110.127 123.554 110.127C 124.918 110.127 125.867 109.334 126.105 108.002L 125.152 108.002C 124.89 108.806 124.359 109.224 123.597 109.224C 122.996 109.224 122.484 108.947 122.168 108.431C 121.941 108.084 121.863 107.732 121.851 107.127L 126.238 107.127zM 121.816 106.361C 121.894 105.248 122.574 104.525 123.539 104.525C 124.48 104.525 125.203 105.303 125.203 106.291C 125.203 106.31 125.203 106.334 125.195 106.357L 121.816 106.361z"/>
<path style="stroke:none; fill-rule:evenodd; fill:#000000" d="M 127.535 103.803L 127.535 109.826L 128.535 109.826L 128.535 106.693C 128.535 105.83 128.746 105.267 129.195 104.931C 129.484 104.713 129.765 104.646 130.418 104.635L 130.418 103.67C 130.261 103.65 130.179 103.638 130.054 103.638C 129.445 103.638 128.98 104.006 128.433 104.904L 128.433 103.814L 127.535 103.803z"/>
<path style="stroke:none; fill-rule:evenodd; fill:#000000" d="M 134.535 109.826L 135.535 109.826L 135.535 101.428L 134.535 101.428L 134.535 109.826z"/>
<path style="stroke:none; fill-rule:evenodd; fill:#000000" d="M 139.375 103.627C 137.672 103.627 136.64 104.838 136.64 106.877C 136.64 108.908 137.66 110.127 139.39 110.127C 141.093 110.127 142.14 108.916 142.14 106.924C 142.14 104.834 141.133 103.631 139.379 103.631L 139.375 103.627zM 139.386 104.529C 140.48 104.529 141.136 105.416 141.136 106.912C 141.136 108.326 140.461 109.224 139.386 109.224C 138.304 109.224 137.64 108.338 137.64 106.877C 137.64 105.428 138.304 104.529 139.386 104.529z"/>
<path style="stroke:none; fill-rule:evenodd; fill:#000000" d="M 145.773 103.627C 144.07 103.627 143.039 104.838 143.039 106.877C 143.039 108.908 144.058 110.127 145.789 110.127C 147.492 110.127 148.539 108.916 148.539 106.924C 148.539 104.834 147.531 103.631 145.777 103.631L 145.773 103.627zM 145.785 104.529C 146.879 104.529 147.535 105.416 147.535 106.912C 147.535 108.326 146.859 109.224 145.785 109.224C 144.703 109.224 144.039 108.338 144.039 106.877C 144.039 105.428 144.703 104.529 145.785 104.529z"/>
<path style="stroke:none; fill-rule:evenodd; fill:#000000" d="M 149.636 112.334L 150.636 112.334L 150.636 109.232C 151.136 109.853 151.699 110.13 152.476 110.13C 154.019 110.13 155.035 108.873 155.035 106.939C 155.035 104.904 154.05 103.635 152.453 103.635C 151.64 103.635 150.984 104.002 150.539 104.713L 150.539 103.806L 149.64 103.806L 149.636 112.334zM 152.3 104.529C 153.347 104.529 154.035 105.467 154.035 106.912C 154.035 108.287 153.34 109.224 152.3 109.224C 151.297 109.224 150.636 108.299 150.636 106.877C 150.636 105.455 151.297 104.529 152.3 104.529z"/>
</g>
</svg>