<?xml version="1.0" encoding="ISO-8859-1" standalone="yes"?>
<svg width="250.492" height="112.301">
  <defs> 
    <marker id="ArrowEnd" viewBox="0 0 10 10" refX="0" refY="5" 
     markerUnits="strokeWidth" 
     markerWidth="4" 
     markerHeight="3" 
     orient="auto"> 
        <path d="M 0 0 L 10 5 L 0 10 z" /> 
    </marker>
    <marker id="ArrowStart" viewBox="0 0 10 10" refX="10" refY="5" 
     markerUnits="strokeWidth" 
     markerWidth="4" 
     markerHeight="3" 
     orient="auto"> 
        <path d="M 10 0 L 0 5 L 10 10 z" /> 
    </marker> </defs>
<g>
<path style="stroke:#9f9f9f; stroke-width:1.9133; fill:none" d="M 118.175 53.781C 118.175 39.77 106.816 28.406 92.8004 28.406C 78.789 28.406 67.4257 39.766 67.4257 53.781C 67.4257 67.793 78.7851 79.156 92.8004 79.156C 106.812 79.156 118.175 67.797 118.175 53.781"/>
<path style="stroke:none; fill-rule:evenodd; fill:#9f9f9f" d="M 92.7964 33.227C 92.4604 31.399 91.3984 30.504 89.5468 30.504C 88.414 30.504 87.5039 30.859 86.8789 31.551C 86.1172 32.379 85.7031 33.574 85.7031 34.934C 85.7031 36.313 86.1289 37.5 86.9257 38.317C 87.5703 38.985 88.4023 39.293 89.5 39.293C 91.5544 39.293 92.7104 38.18 92.9684 35.942L 91.8634 35.942C 91.7734 36.531 91.6604 36.934 91.4844 37.277C 91.1406 37.988 90.4257 38.391 89.5312 38.391C 87.8632 38.391 86.8046 37.039 86.8046 34.918C 86.8046 32.738 87.8164 31.395 89.4414 31.395C 90.1172 31.395 90.7539 31.606 91.0976 31.93C 91.4064 32.223 91.5784 32.582 91.7074 33.215L 92.7964 33.227z"/>
<path style="stroke:none; fill-rule:evenodd; fill:#9f9f9f" d="M 94.3984 39L 97.6524 39C 99.7814 39 101.093 37.41 101.093 34.797C 101.093 32.195 99.7964 30.606 97.6524 30.606L 94.3984 30.606L 94.3984 39zM 95.4964 38.098L 95.4964 31.5L 97.4684 31.5C 99.1214 31.5 99.9924 32.633 99.9924 34.805C 99.9924 36.953 99.1214 38.098 97.4684 38.098L 95.4964 38.098z"/>
<path style="stroke:none; fill-rule:evenodd; fill:#9f9f9f" d="M 37.039 107.297L 37.8984 109.797L 39.0898 109.797L 36.1523 101.399L 34.7773 101.399L 31.7929 109.797L 32.9257 109.797L 33.8086 107.297L 37.039 107.297zM 36.7382 106.399L 34.0781 106.399L 35.4531 102.578L 36.7382 106.399z"/>
<path style="stroke:none; fill-rule:evenodd; fill:#9f9f9f" d="M 81.2968 104.024C 80.9609 102.195 79.8984 101.301 78.0468 101.301C 76.914 101.301 76.0039 101.656 75.3789 102.348C 74.6172 103.176 74.2031 104.371 74.2031 105.731C 74.2031 107.109 74.6289 108.297 75.4257 109.113C 76.0703 109.781 76.9023 110.09 78 110.09C 80.0546 110.09 81.2109 108.977 81.4687 106.738L 80.3632 106.738C 80.2734 107.328 80.1601 107.731 79.9843 108.074C 79.6406 108.785 78.9257 109.188 78.0312 109.188C 76.3632 109.188 75.3046 107.836 75.3046 105.715C 75.3046 103.535 76.3164 102.191 77.9414 102.191C 78.6172 102.191 79.2539 102.402 79.5976 102.727C 79.9062 103.02 80.0781 103.379 80.207 104.012L 81.2968 104.024z"/>
<path style="stroke:none; fill-rule:evenodd; fill:#9f9f9f" d="M 97.5974 109.797L 100.851 109.797C 102.98 109.797 104.293 108.207 104.293 105.594C 104.293 102.992 102.996 101.402 100.851 101.402L 97.5974 101.402L 97.5974 109.797zM 98.6954 108.899L 98.6954 102.301L 100.668 102.301C 102.32 102.301 103.191 103.434 103.191 105.606C 103.191 107.754 102.32 108.899 100.668 108.899L 98.6954 108.899z"/>
<path style="stroke:#9f9f9f; stroke-width:1.9133; fill:none" d="M 35.4179 99.672L 50.7265 67.137"/>
<path style="stroke:#9f9f9f; stroke-width:1.9133; fill:none" d="M 45.7382 73.242L 50.7265 67.133L 49.1992 74.871"/>
<path style="stroke:#9f9f9f; stroke-width:1.9133; fill:none" d="M 77.5234 99.672L 79.4336 67.137"/>
<path style="stroke:#9f9f9f; stroke-width:1.9133; fill:none" d="M 77.0781 74.66L 79.4336 67.133L 80.8945 74.883"/>
<path style="stroke:#9f9f9f; stroke-width:1.9133; fill:none" d="M 77.5234 99.672L 108.144 67.137"/>
<path style="stroke:#9f9f9f; stroke-width:1.9133; fill:none" d="M 101.507 71.395L 108.144 67.133L 104.293 74.016"/>
<path style="stroke:#9f9f9f; stroke-width:1.9133; fill:none" d="M 100.492 99.672L 108.144 67.137"/>
<path style="stroke:#9f9f9f; stroke-width:1.9133; fill:none" d="M 104.531 74.145L 108.144 67.133L 108.25 75.02"/>
<path style="stroke:#9f9f9f; stroke-width:1.9133; fill:none" d="M 100.492 99.672L 79.4414 67.137"/>
<path style="stroke:#9f9f9f; stroke-width:1.9133; fill:none" d="M 81.9882 74.598L 79.4375 67.137L 85.1992 72.52"/>
<path style="stroke:none; fill-rule:evenodd; fill:#9f9f9f" d="M 95.4024 4.40199C 95.3594 3.817 95.2344 3.43399 95.0034 3.09799C 94.5974 2.535 93.8784 2.19899 93.0504 2.19899C 91.4494 2.19899 90.4023 3.492 90.4023 5.504C 90.4023 7.457 91.4254 8.69499 93.0394 8.69499C 94.4604 8.69499 95.3594 7.82399 95.4724 6.332L 94.5194 6.332C 94.3634 7.30899 93.8754 7.797 93.0704 7.797C 92.0274 7.797 91.4024 6.93399 91.4024 5.508C 91.4024 4 92.0114 3.10199 93.0464 3.10199C 93.8394 3.10199 94.3394 3.56999 94.4534 4.40599L 95.4024 4.40199z"/>
<path style="stroke:#9f9f9f; stroke-width:1.9133; fill:none" d="M 92.8324 28.859L 92.8324 11.637"/>
<path style="stroke:#9f9f9f; stroke-width:1.9133; fill:none" d="M 90.9179 19.289L 92.8284 11.637L 94.7384 19.289"/>
<path style="stroke:none; fill-rule:evenodd; fill:#9f9f9f" d="M 142.695 106L 146.687 106L 146.687 105.102L 142.695 105.102L 142.695 102.305L 147.195 102.305L 147.195 101.406L 141.597 101.406L 141.597 109.805L 142.695 109.805L 142.695 106z"/>
<path style="stroke:#9f9f9f; stroke-width:1.9133; fill:none" d="M 144.378 99.7462L 136.73 67.238"/>
<path style="stroke:#9f9f9f; stroke-width:1.9133; fill:none" d="M 136.621 75.125L 136.726 67.238L 140.339 74.25"/>
<path style="stroke:#9f9f9f; stroke-width:1.9133; fill:none" d="M 35.3789 99.7462L 35.3789 67.238"/>
<path style="stroke:#9f9f9f; stroke-width:1.9133; fill:none" d="M 33.4648 74.891L 35.375 67.238L 37.2851 74.891"/>
<path style="stroke:#9f9f9f; stroke-width:1.9133; fill:none" d="M 77.4492 99.7462L 64.0664 67.238"/>
<path style="stroke:#9f9f9f; stroke-width:1.9133; fill:none" d="M 65.207 75.043L 64.0625 67.238L 68.7422 73.586"/>
<path style="stroke:#9f9f9f; stroke-width:1.9133; fill:none" d="M 77.4492 99.7462L 92.7464 67.238"/>
<path style="stroke:#9f9f9f; stroke-width:1.9133; fill:none" d="M 87.7578 73.348L 92.7464 67.238L 91.2187 74.977"/>
<path style="stroke:#9f9f9f; stroke-width:1.9133; fill:none" d="M 100.398 99.7462L 92.7504 67.238"/>
<path style="stroke:#9f9f9f; stroke-width:1.9133; fill:none" d="M 92.6364 75.125L 92.7424 67.238L 96.3554 74.25"/>
<path style="stroke:#9f9f9f; stroke-width:1.9133; fill:none" d="M 100.398 99.7462L 121.429 67.238"/>
<path style="stroke:#9f9f9f; stroke-width:1.9133; fill:none" d="M 115.668 72.625L 121.429 67.242L 118.878 74.703"/>
<path style="stroke:#9f9f9f; stroke-width:1.9133; fill:none" d="M 144.378 99.7462L 150.113 67.238"/>
<path style="stroke:#9f9f9f; stroke-width:1.9133; fill:none" d="M 146.902 74.442L 150.113 67.238L 150.664 75.106"/>
<path style="stroke:#000000; stroke-width:1.9133; fill:none" d="M 60.7773 53.781C 60.7773 39.77 49.4179 28.406 35.4023 28.406C 21.3906 28.406 10.0273 39.766 10.0273 53.781C 10.0273 67.793 21.3867 79.156 35.4023 79.156C 49.414 79.156 60.7773 67.797 60.7773 53.781"/>
<path style="stroke:#000000; stroke-width:1.9133; fill:none" d="M 89.4765 53.781C 89.4765 39.77 78.1172 28.406 64.1015 28.406C 50.0898 28.406 38.7265 39.766 38.7265 53.781C 38.7265 67.793 50.0859 79.156 64.1015 79.156C 78.1132 79.156 89.4765 67.797 89.4765 53.781"/>
<path style="stroke:none; fill-rule:evenodd; fill:#000000" d="M 33.2382 36.5L 34.0976 39L 35.289 39L 32.3515 30.602L 30.9765 30.602L 27.9922 39L 29.125 39L 30.0078 36.5L 33.2382 36.5zM 32.9414 35.598L 30.2812 35.598L 31.6562 31.777L 32.9414 35.598z"/>
<path style="stroke:none; fill-rule:evenodd; fill:#000000" d="M 36.2968 39L 40.1054 39C 40.9023 39 41.4922 38.781 41.9453 38.301C 42.3593 37.863 42.5937 37.266 42.5937 36.609C 42.5937 35.598 42.1211 34.985 41.0195 34.574C 41.7851 34.219 42.1914 33.598 42.1914 32.746C 42.1914 32.137 41.9648 31.598 41.5234 31.203C 41.0859 30.801 40.5117 30.617 39.7031 30.617L 36.2929 30.617L 36.2968 39zM 37.3984 34.297L 37.3984 31.5L 39.4414 31.5C 40.0312 31.5 40.3593 31.582 40.6406 31.813C 40.9336 32.051 41.0937 32.414 41.0937 32.899C 41.0937 33.367 40.9375 33.742 40.6406 33.985C 40.3593 34.211 40.0312 34.297 39.4414 34.297L 37.3984 34.297zM 37.3984 38.098L 37.3984 35.199L 39.9961 35.199C 40.5078 35.199 40.8515 35.324 41.1054 35.602C 41.3554 35.867 41.4922 36.235 41.4922 36.652C 41.4922 37.055 41.3554 37.426 41.1054 37.692C 40.8554 37.965 40.5117 38.094 39.9961 38.094L 37.3984 38.098z"/>
<path style="stroke:none; fill-rule:evenodd; fill:#000000" d="M 57.3984 39L 61.207 39C 62.0039 39 62.5937 38.781 63.0468 38.301C 63.4609 37.863 63.6953 37.266 63.6953 36.609C 63.6953 35.598 63.2226 34.985 62.1211 34.574C 62.8867 34.219 63.2929 33.598 63.2929 32.746C 63.2929 32.137 63.0664 31.598 62.625 31.203C 62.1875 30.801 61.6132 30.617 60.8046 30.617L 57.3945 30.617L 57.3984 39zM 58.4961 34.297L 58.4961 31.5L 60.539 31.5C 61.1289 31.5 61.457 31.582 61.7382 31.813C 62.0312 32.051 62.1914 32.414 62.1914 32.899C 62.1914 33.367 62.0351 33.742 61.7382 33.985C 61.457 34.211 61.1289 34.297 60.539 34.297L 58.4961 34.297zM 58.4961 38.098L 58.4961 35.199L 61.0937 35.199C 61.6054 35.199 61.9492 35.324 62.2031 35.602C 62.4531 35.867 62.5898 36.235 62.5898 36.652C 62.5898 37.055 62.4531 37.426 62.2031 37.692C 61.9531 37.965 61.6093 38.094 61.0937 38.094L 58.4961 38.098z"/>
<path style="stroke:none; fill-rule:evenodd; fill:#000000" d="M 71.6953 33.227C 71.3593 31.399 70.2968 30.504 68.4453 30.504C 67.3125 30.504 66.4023 30.859 65.7773 31.551C 65.0156 32.379 64.6015 33.574 64.6015 34.934C 64.6015 36.313 65.0273 37.5 65.8242 38.317C 66.4687 38.985 67.3007 39.293 68.3984 39.293C 70.4531 39.293 71.6093 38.18 71.8672 35.942L 70.7617 35.942C 70.6718 36.531 70.5586 36.934 70.3828 37.277C 70.039 37.988 69.3242 38.391 68.4296 38.391C 66.7617 38.391 65.7031 37.039 65.7031 34.918C 65.7031 32.738 66.7148 31.395 68.3398 31.395C 69.0156 31.395 69.6523 31.606 69.9961 31.93C 70.3046 32.223 70.4765 32.582 70.6054 33.215L 71.6953 33.227z"/>
<path style="stroke:none; fill-rule:evenodd; fill:#000000" d="M 53.4961 109.797L 57.3046 109.797C 58.1015 109.797 58.6914 109.578 59.1445 109.098C 59.5586 108.66 59.7929 108.063 59.7929 107.406C 59.7929 106.395 59.3203 105.781 58.2187 105.371C 58.9843 105.016 59.3906 104.395 59.3906 103.543C 59.3906 102.934 59.164 102.395 58.7226 102C 58.2851 101.598 57.7109 101.414 56.9023 101.414L 53.4922 101.414L 53.4961 109.797zM 54.5976 105.098L 54.5976 102.301L 56.6406 102.301C 57.2304 102.301 57.5586 102.383 57.8398 102.613C 58.1328 102.852 58.2929 103.215 58.2929 103.699C 58.2929 104.168 58.1367 104.543 57.8398 104.785C 57.5586 105.012 57.2304 105.098 56.6406 105.098L 54.5976 105.098zM 54.5976 108.899L 54.5976 106L 57.1953 106C 57.707 106 58.0507 106.125 58.3046 106.402C 58.5546 106.668 58.6914 107.035 58.6914 107.453C 58.6914 107.856 58.5546 108.227 58.3046 108.492C 58.0546 108.766 57.7109 108.895 57.1953 108.895L 54.5976 108.899z"/>
<path style="stroke:#000000; stroke-width:1.9133; fill:none" d="M 56.4687 99.672L 79.4336 67.137"/>
<path style="stroke:#000000; stroke-width:1.9133; fill:none" d="M 73.4609 72.281L 79.4336 67.133L 76.5859 74.485"/>
<path style="stroke:#000000; stroke-width:1.9133; fill:none" d="M 56.4687 99.672L 50.7304 67.137"/>
<path style="stroke:#000000; stroke-width:1.9133; fill:none" d="M 50.1757 75.004L 50.7265 67.137L 53.9375 74.34"/>
<path style="stroke:none; fill-rule:evenodd; fill:#000000" d="M 38.7382 7.836C 38.6328 7.895 38.5859 7.895 38.5273 7.895C 38.1875 7.895 38 7.72299 38 7.422L 38 3.856C 38 2.78099 37.2226 2.19899 35.75 2.19899C 34.8828 2.19899 34.164 2.453 33.7617 2.90199C 33.4882 3.211 33.375 3.55899 33.3515 4.16L 34.2968 4.16C 34.375 3.42999 34.8007 3.09799 35.6836 3.09799C 36.5273 3.09799 37 3.418 37 3.996L 37 4.25C 37 4.65199 36.7656 4.82399 36.0234 4.918C 34.6992 5.09 34.4961 5.13699 34.1367 5.285C 33.4531 5.56999 33.1054 6.11299 33.1054 6.899C 33.1054 7.992 33.8593 8.68399 35.0703 8.68399C 35.8242 8.68399 36.4296 8.41 37.1054 7.76599C 37.1718 8.399 37.4687 8.68399 38.0859 8.68399C 38.2773 8.68399 38.4257 8.66 38.7343 8.578L 38.7382 7.836zM 36.9961 6.539C 36.9961 6.867 36.9062 7.06999 36.6289 7.34399C 36.25 7.707 35.7929 7.899 35.2461 7.899C 34.5234 7.899 34.0976 7.535 34.0976 6.90599C 34.0976 6.258 34.5078 5.92599 35.5 5.774C 36.4804 5.633 36.6796 5.586 36.9922 5.43399L 36.9961 6.539z"/>
<path style="stroke:none; fill-rule:evenodd; fill:#000000" d="M 61.8984 0L 61.8984 8.399L 62.7968 8.399L 62.7968 7.633C 63.25 8.356 63.8554 8.69899 64.6914 8.69899C 66.2656 8.69899 67.2929 7.395 67.2929 5.383C 67.2929 3.418 66.3125 2.203 64.7422 2.203C 63.9218 2.203 63.3437 2.51599 62.8984 3.19899L 62.8984 0L 61.8984 0zM 64.5468 3.106C 65.6132 3.106 66.3007 4.035 66.3007 5.46899C 66.3007 6.832 65.5898 7.76199 64.5468 7.76199C 63.539 7.76199 62.8711 6.84399 62.8711 5.43399C 62.8711 4.024 63.5351 3.106 64.5468 3.106z"/>
<path style="stroke:#000000; stroke-width:1.9133; fill:none" d="M 35.4179 28.856L 35.4179 11.633"/>
<path style="stroke:#000000; stroke-width:1.9133; fill:none" d="M 33.5039 19.281L 35.414 11.629L 37.3242 19.281"/>
<path style="stroke:#000000; stroke-width:1.9133; fill:none" d="M 64.125 28.859L 64.125 11.637"/>
<path style="stroke:#000000; stroke-width:1.9133; fill:none" d="M 62.2109 19.285L 64.1211 11.633L 66.0312 19.285"/>
<path style="stroke:none; fill-rule:evenodd; fill:#000000" d="M 182.996 6.69899L 185.726 6.69899C 186.668 6.69899 187.089 7.15599 187.089 8.188L 187.089 8.92999C 187.089 9.44499 187.175 9.94899 187.32 10.293L 188.578 10.293L 188.578 10.031C 188.187 9.758 188.105 9.457 188.086 8.34C 188.074 6.957 187.855 6.543 186.941 6.15199C 187.898 5.692 188.285 5.106 188.285 4.149C 188.285 2.69899 187.378 1.90199 185.742 1.90199L 181.89 1.90199L 181.89 10.301L 182.988 10.301L 182.996 6.69899zM 182.929 5.754L 182.929 2.875L 185.511 2.875C 186.105 2.875 186.449 2.965 186.714 3.19499C 187 3.43399 187.148 3.813 187.148 4.31999C 187.148 5.30499 186.644 5.754 185.507 5.754L 182.929 5.754z"/>
<path style="stroke:none; fill-rule:evenodd; fill:#000000" d="M 194.996 7.59799C 194.996 6.67999 194.929 6.129 194.757 5.68399C 194.371 4.69899 193.457 4.10199 192.339 4.10199C 190.675 4.10199 189.601 5.395 189.601 7.383C 189.601 9.371 190.636 10.598 192.312 10.598C 193.675 10.598 194.621 9.80499 194.863 8.47299L 193.91 8.47299C 193.648 9.27699 193.117 9.69499 192.355 9.69499C 191.753 9.69499 191.242 9.418 190.925 8.90199C 190.699 8.55499 190.621 8.203 190.609 7.59799L 194.996 7.59799zM 190.578 6.832C 190.656 5.71899 191.336 4.996 192.296 4.996C 193.234 4.996 193.96 5.774 193.96 6.76199C 193.96 6.78099 193.96 6.80499 193.949 6.828L 190.578 6.832z"/>
<path style="stroke:none; fill-rule:evenodd; fill:#000000" d="M 200.523 5.961C 200.511 4.774 199.726 4.10199 198.324 4.10199C 196.914 4.10199 196 4.828 196 5.94899C 196 6.895 196.488 7.34399 197.937 7.692L 198.847 7.91C 199.523 8.06999 199.793 8.313 199.793 8.75C 199.793 9.313 199.226 9.69499 198.382 9.69499C 197.863 9.69499 197.425 9.547 197.183 9.289C 197.035 9.117 196.964 8.942 196.906 8.508L 195.89 8.508C 195.933 9.918 196.718 10.598 198.3 10.598C 199.824 10.598 200.793 9.84799 200.793 8.68399C 200.793 7.785 200.281 7.289 199.066 7L 198.132 6.78099C 197.339 6.59799 197 6.34399 197 5.918C 197 5.367 197.496 5.008 198.285 5.008C 199.058 5.008 199.476 5.336 199.5 5.965L 200.523 5.961z"/>
<path style="stroke:none; fill-rule:evenodd; fill:#000000" d="M 201.796 12.801L 202.796 12.801L 202.796 9.69899C 203.296 10.32 203.859 10.598 204.632 10.598C 206.175 10.598 207.191 9.34 207.191 7.40599C 207.191 5.375 206.207 4.10199 204.609 4.10199C 203.796 4.10199 203.14 4.46899 202.695 5.17999L 202.695 4.274L 201.796 4.274L 201.796 12.801zM 204.46 5C 205.507 5 206.191 5.93399 206.191 7.383C 206.191 8.758 205.496 9.69499 204.46 9.69499C 203.457 9.69499 202.796 8.77 202.796 7.34799C 202.796 5.92599 203.457 5 204.46 5z"/>
<path style="stroke:none; fill-rule:evenodd; fill:#000000" d="M 210.734 4.09799C 209.031 4.09799 208 5.313 208 7.34799C 208 9.383 209.019 10.598 210.75 10.598C 212.453 10.598 213.5 9.38699 213.5 7.399C 213.5 5.30899 212.492 4.106 210.742 4.106L 210.734 4.09799zM 210.746 5C 211.839 5 212.496 5.88699 212.496 7.383C 212.496 8.797 211.82 9.69499 210.746 9.69499C 209.664 9.69499 208.996 8.80899 208.996 7.34799C 208.996 5.899 209.66 5 210.746 5z"/>
<path style="stroke:none; fill-rule:evenodd; fill:#000000" d="M 214.796 4.274L 214.796 10.297L 215.796 10.297L 215.796 6.94899C 215.796 5.711 216.421 4.899 217.386 4.899C 218.125 4.899 218.593 5.35899 218.593 6.09L 218.593 10.293L 219.593 10.293L 219.593 5.73799C 219.593 4.73799 218.851 4.09399 217.691 4.09399C 216.8 4.09399 216.226 4.438 215.699 5.27699L 215.699 4.26599L 214.796 4.274z"/>
<path style="stroke:none; fill-rule:evenodd; fill:#000000" d="M 225.425 5.961C 225.414 4.774 224.628 4.10199 223.226 4.10199C 221.816 4.10199 220.902 4.828 220.902 5.94899C 220.902 6.895 221.39 7.34399 222.839 7.692L 223.75 7.91C 224.425 8.06999 224.695 8.313 224.695 8.75C 224.695 9.313 224.128 9.69499 223.285 9.69499C 222.765 9.69499 222.328 9.547 222.086 9.289C 221.937 9.117 221.867 8.942 221.808 8.508L 220.793 8.508C 220.836 9.918 221.621 10.598 223.203 10.598C 224.726 10.598 225.695 9.84799 225.695 8.68399C 225.695 7.785 225.183 7.289 223.968 7L 223.035 6.78099C 222.242 6.59799 221.902 6.34399 221.902 5.918C 221.902 5.367 222.398 5.008 223.187 5.008C 223.96 5.008 224.378 5.336 224.402 5.965L 225.425 5.961z"/>
<path style="stroke:none; fill-rule:evenodd; fill:#000000" d="M 231.996 7.59799C 231.996 6.67999 231.929 6.129 231.757 5.68399C 231.371 4.69899 230.457 4.10199 229.339 4.10199C 227.675 4.10199 226.601 5.395 226.601 7.383C 226.601 9.371 227.636 10.598 229.312 10.598C 230.675 10.598 231.621 9.80499 231.863 8.47299L 230.91 8.47299C 230.648 9.27699 230.117 9.69499 229.355 9.69499C 228.753 9.69499 228.242 9.418 227.925 8.90199C 227.699 8.55499 227.621 8.203 227.609 7.59799L 231.996 7.59799zM 227.578 6.832C 227.656 5.71899 228.336 4.996 229.296 4.996C 230.234 4.996 230.96 5.774 230.96 6.76199C 230.96 6.78099 230.96 6.80499 230.949 6.828L 227.578 6.832z"/>
<path style="stroke:none; fill-rule:evenodd; fill:#000000" d="M 187.097 52.5L 187.097 56.297L 188.195 56.297L 188.195 47.899L 187.097 47.899L 187.097 51.598L 182.8 51.598L 182.8 47.899L 181.703 47.899L 181.703 56.297L 182.8 56.297L 182.8 52.5L 187.097 52.5z"/>
<path style="stroke:none; fill-rule:evenodd; fill:#000000" d="M 190.796 50.297L 189.796 50.297L 189.796 56.297L 190.796 56.297L 190.796 50.297zM 190.796 47.899L 189.796 47.899L 189.796 49.133L 190.796 49.133L 190.796 47.899z"/>
<path style="stroke:none; fill-rule:evenodd; fill:#000000" d="M 192.195 58.801L 193.195 58.801L 193.195 55.699C 193.695 56.32 194.257 56.598 195.031 56.598C 196.574 56.598 197.589 55.34 197.589 53.406C 197.589 51.375 196.605 50.102 195.007 50.102C 194.195 50.102 193.539 50.469 193.093 51.18L 193.093 50.274L 192.195 50.274L 192.195 58.801zM 194.863 51C 195.91 51 196.593 51.934 196.593 53.383C 196.593 54.758 195.898 55.695 194.863 55.695C 193.859 55.695 193.199 54.77 193.199 53.348C 193.199 51.926 193.859 51 194.863 51z"/>
<path style="stroke:none; fill-rule:evenodd; fill:#000000" d="M 198.597 58.801L 199.597 58.801L 199.597 55.699C 200.097 56.32 200.66 56.598 201.433 56.598C 202.976 56.598 203.992 55.34 203.992 53.406C 203.992 51.375 203.007 50.102 201.41 50.102C 200.597 50.102 199.941 50.469 199.496 51.18L 199.496 50.274L 198.597 50.274L 198.597 58.801zM 201.261 51C 202.308 51 202.992 51.934 202.992 53.383C 202.992 54.758 202.296 55.695 201.261 55.695C 200.257 55.695 199.597 54.77 199.597 53.348C 199.597 51.926 200.257 51 201.261 51z"/>
<path style="stroke:none; fill-rule:evenodd; fill:#000000" d="M 207.535 50.098C 205.832 50.098 204.8 51.313 204.8 53.348C 204.8 55.383 205.82 56.598 207.55 56.598C 209.253 56.598 210.3 55.387 210.3 53.399C 210.3 51.309 209.293 50.106 207.543 50.106L 207.535 50.098zM 207.546 51C 208.64 51 209.296 51.887 209.296 53.383C 209.296 54.797 208.621 55.695 207.546 55.695C 206.464 55.695 205.796 54.809 205.796 53.348C 205.796 51.899 206.46 51 207.546 51z"/>
<path style="stroke:none; fill-rule:evenodd; fill:#000000" d="M 216.203 52.305C 216.16 51.719 216.035 51.336 215.804 51C 215.398 50.438 214.679 50.102 213.851 50.102C 212.25 50.102 211.203 51.395 211.203 53.406C 211.203 55.359 212.226 56.598 213.839 56.598C 215.261 56.598 216.16 55.727 216.273 54.235L 215.32 54.235C 215.164 55.211 214.675 55.699 213.871 55.699C 212.828 55.699 212.203 54.836 212.203 53.41C 212.203 51.902 212.812 51.004 213.847 51.004C 214.64 51.004 215.14 51.473 215.253 52.309L 216.203 52.305z"/>
<path style="stroke:none; fill-rule:evenodd; fill:#000000" d="M 222.636 55.735C 222.531 55.793 222.484 55.793 222.425 55.793C 222.086 55.793 221.898 55.621 221.898 55.32L 221.898 51.754C 221.898 50.68 221.121 50.098 219.648 50.098C 218.781 50.098 218.062 50.352 217.66 50.801C 217.386 51.109 217.273 51.457 217.25 52.059L 218.195 52.059C 218.273 51.328 218.699 50.996 219.582 50.996C 220.425 50.996 220.898 51.317 220.898 51.895L 220.898 52.149C 220.898 52.551 220.664 52.723 219.921 52.817C 218.597 52.988 218.394 53.035 218.035 53.184C 217.351 53.469 217.003 54.012 217.003 54.797C 217.003 55.891 217.757 56.582 218.968 56.582C 219.722 56.582 220.328 56.309 221.003 55.664C 221.07 56.297 221.367 56.582 221.984 56.582C 222.175 56.582 222.324 56.559 222.632 56.477L 222.636 55.735zM 220.898 54.438C 220.898 54.766 220.808 54.969 220.531 55.242C 220.152 55.606 219.695 55.797 219.148 55.797C 218.425 55.797 218 55.434 218 54.805C 218 54.156 218.41 53.824 219.402 53.672C 220.382 53.531 220.582 53.485 220.894 53.332L 220.898 54.438z"/>
<path style="stroke:none; fill-rule:evenodd; fill:#000000" d="M 223.695 50.274L 223.695 56.297L 224.695 56.297L 224.695 52.488C 224.695 51.609 225.32 50.902 226.089 50.902C 226.793 50.902 227.191 51.34 227.191 52.117L 227.191 56.297L 228.191 56.297L 228.191 52.488C 228.191 51.609 228.816 50.902 229.586 50.902C 230.277 50.902 230.687 51.352 230.687 52.117L 230.687 56.297L 231.687 56.297L 231.687 51.777C 231.687 50.699 231.066 50.102 229.933 50.102C 229.128 50.102 228.64 50.344 228.078 51.031C 227.722 50.383 227.238 50.102 226.453 50.102C 225.648 50.102 225.117 50.399 224.597 51.121L 224.597 50.274L 223.695 50.274z"/>
<path style="stroke:none; fill-rule:evenodd; fill:#000000" d="M 233.097 58.801L 234.097 58.801L 234.097 55.699C 234.597 56.32 235.16 56.598 235.933 56.598C 237.476 56.598 238.492 55.34 238.492 53.406C 238.492 51.375 237.507 50.102 235.91 50.102C 235.097 50.102 234.441 50.469 233.996 51.18L 233.996 50.274L 233.097 50.274L 233.097 58.801zM 235.761 51C 236.808 51 237.492 51.934 237.492 53.383C 237.492 54.758 236.796 55.695 235.761 55.695C 234.757 55.695 234.097 54.77 234.097 53.348C 234.097 51.926 234.757 51 235.761 51z"/>
<path style="stroke:none; fill-rule:evenodd; fill:#000000" d="M 244.496 56.332L 244.496 50.301L 243.496 50.301L 243.496 53.746C 243.496 54.985 242.851 55.797 241.843 55.797C 241.082 55.797 240.597 55.336 240.597 54.606L 240.597 50.301L 239.597 50.301L 239.597 54.953C 239.597 55.953 240.355 56.598 241.546 56.598C 242.445 56.598 243.019 56.289 243.593 55.496L 243.593 56.336L 244.496 56.332z"/>
<path style="stroke:none; fill-rule:evenodd; fill:#000000" d="M 250.222 51.961C 250.21 50.774 249.425 50.102 248.023 50.102C 246.613 50.102 245.699 50.828 245.699 51.949C 245.699 52.895 246.187 53.344 247.636 53.692L 248.546 53.91C 249.222 54.07 249.492 54.313 249.492 54.75C 249.492 55.313 248.925 55.695 248.082 55.695C 247.562 55.695 247.125 55.547 246.882 55.289C 246.734 55.117 246.664 54.942 246.605 54.508L 245.589 54.508C 245.632 55.918 246.418 56.598 248 56.598C 249.523 56.598 250.492 55.848 250.492 54.684C 250.492 53.785 249.98 53.289 248.765 53L 247.832 52.781C 247.039 52.598 246.699 52.344 246.699 51.918C 246.699 51.367 247.195 51.008 247.984 51.008C 248.757 51.008 249.175 51.336 249.199 51.965L 250.222 51.961z"/>
<path style="stroke:none; fill-rule:evenodd; fill:#000000" d="M 181.898 109.797L 182.996 109.797L 182.996 101.399L 181.898 101.399L 181.898 109.797z"/>
<path style="stroke:none; fill-rule:evenodd; fill:#000000" d="M 184.796 103.774L 184.796 109.797L 185.796 109.797L 185.796 106.449C 185.796 105.211 186.421 104.399 187.386 104.399C 188.125 104.399 188.593 104.859 188.593 105.59L 188.593 109.793L 189.593 109.793L 189.593 105.238C 189.593 104.238 188.851 103.594 187.691 103.594C 186.8 103.594 186.226 103.938 185.699 104.777L 185.699 103.766L 184.796 103.774z"/>
<path style="stroke:none; fill-rule:evenodd; fill:#000000" d="M 190.996 112.301L 191.996 112.301L 191.996 109.199C 192.496 109.82 193.058 110.098 193.832 110.098C 195.375 110.098 196.39 108.84 196.39 106.906C 196.39 104.875 195.406 103.602 193.808 103.602C 192.996 103.602 192.339 103.969 191.894 104.68L 191.894 103.774L 190.996 103.774L 190.996 112.301zM 193.66 104.5C 194.707 104.5 195.39 105.434 195.39 106.883C 195.39 108.258 194.695 109.195 193.66 109.195C 192.656 109.195 191.996 108.27 191.996 106.848C 191.996 105.426 192.656 104.5 193.66 104.5z"/>
<path style="stroke:none; fill-rule:evenodd; fill:#000000" d="M 202.398 109.832L 202.398 103.801L 201.398 103.801L 201.398 107.246C 201.398 108.484 200.753 109.297 199.746 109.297C 198.984 109.297 198.5 108.836 198.5 108.106L 198.5 103.801L 197.5 103.801L 197.5 108.453C 197.5 109.453 198.257 110.098 199.449 110.098C 200.347 110.098 200.921 109.789 201.496 108.996L 201.496 109.836L 202.398 109.832z"/>
<path style="stroke:none; fill-rule:evenodd; fill:#000000" d="M 205.996 103.797L 205.097 103.797L 205.097 102.129L 204.097 102.129L 204.097 103.797L 203.199 103.797L 203.199 104.594L 204.097 104.594L 204.097 109.141C 204.097 109.746 204.5 110.09 205.23 110.09C 205.453 110.09 205.679 110.066 205.992 110.008L 205.992 109.172C 205.878 109.262 205.742 109.289 205.574 109.289C 205.199 109.289 205.093 109.176 205.093 108.746L 205.093 104.594L 205.992 104.594L 205.996 103.797z"/>
<path style="stroke:#000000; stroke-width:1.9133; fill:none" d="M 146.875 53.781C 146.875 39.77 135.515 28.406 121.5 28.406C 107.488 28.406 96.1254 39.766 96.1254 53.781C 96.1254 67.793 107.484 79.156 121.5 79.156C 135.511 79.156 146.875 67.797 146.875 53.781"/>
<path style="stroke:none; fill-rule:evenodd; fill:#000000" d="M 114.898 39L 118.152 39C 120.281 39 121.593 37.41 121.593 34.797C 121.593 32.195 120.296 30.606 118.152 30.606L 114.898 30.606L 114.898 39zM 115.996 38.098L 115.996 31.5L 117.968 31.5C 119.621 31.5 120.492 32.633 120.492 34.805C 120.492 36.953 119.621 38.098 117.968 38.098L 115.996 38.098z"/>
<path style="stroke:none; fill-rule:evenodd; fill:#000000" d="M 124.195 35.199L 128.75 35.199L 128.75 34.301L 124.195 34.301L 124.195 31.504L 128.894 31.504L 128.894 30.606L 123.097 30.606L 123.097 39.004L 129.097 39.004L 129.097 38.106L 124.199 38.106L 124.195 35.199z"/>
<path style="stroke:none; fill-rule:evenodd; fill:#000000" d="M 119.796 106L 124.351 106L 124.351 105.102L 119.796 105.102L 119.796 102.305L 124.496 102.305L 124.496 101.406L 118.699 101.406L 118.699 109.805L 124.699 109.805L 124.699 108.906L 119.8 108.906L 119.796 106z"/>
<path style="stroke:none; fill-rule:evenodd; fill:#000000" d="M 124.398 0L 123.398 0L 123.398 3.14099C 123 2.52699 122.363 2.19899 121.562 2.19899C 120.015 2.19899 119 3.457 119 5.39099C 119 7.438 120.011 8.69499 121.652 8.69499C 122.488 8.69499 123.07 8.375 123.593 7.606L 123.593 8.395L 124.39 8.395L 124.398 0zM 121.722 3.09799C 122.742 3.09799 123.39 4.024 123.39 5.46899C 123.39 6.867 122.734 7.793 121.734 7.793C 120.691 7.793 119.996 6.856 119.996 5.44499C 119.996 4.035 120.687 3.09799 121.722 3.09799z"/>
<path style="stroke:#000000; stroke-width:1.9133; fill:none" d="M 121.539 28.863L 121.539 11.641"/>
<path style="stroke:#000000; stroke-width:1.9133; fill:none" d="M 119.625 19.289L 121.535 11.637L 123.445 19.289"/>
<path style="stroke:#000000; stroke-width:1.9133; fill:none" d="M 175.566 53.777C 175.566 39.766 164.207 28.402 150.191 28.402C 136.179 28.402 124.816 39.762 124.816 53.777C 124.816 67.789 136.175 79.152 150.191 79.152C 164.203 79.152 175.566 67.793 175.566 53.777"/>
<path style="stroke:#000000; stroke-width:1.9133; fill:none" d="M 150.226 28.859L 150.226 11.637"/>
<path style="stroke:#000000; stroke-width:1.9133; fill:none" d="M 148.312 19.285L 150.222 11.633L 152.132 19.285"/>
<path style="stroke:none; fill-rule:evenodd; fill:#000000" d="M 144.597 35.199L 149.152 35.199L 149.152 34.301L 144.597 34.301L 144.597 31.504L 149.296 31.504L 149.296 30.606L 143.5 30.606L 143.5 39.004L 149.5 39.004L 149.5 38.106L 144.601 38.106L 144.597 35.199z"/>
<path style="stroke:none; fill-rule:evenodd; fill:#000000" d="M 152.296 35.199L 156.289 35.199L 156.289 34.301L 152.296 34.301L 152.296 31.504L 156.796 31.504L 156.796 30.606L 151.199 30.606L 151.199 39.004L 152.296 39.004L 152.296 35.199z"/>
<path style="stroke:none; fill-rule:evenodd; fill:#000000" d="M 153.296 5.69899C 153.296 4.78099 153.23 4.231 153.058 3.785C 152.671 2.80099 151.757 2.203 150.64 2.203C 148.976 2.203 147.902 3.496 147.902 5.485C 147.902 7.47299 148.937 8.69899 150.613 8.69899C 151.976 8.69899 152.921 7.90599 153.164 6.57399L 152.21 6.57399C 151.949 7.379 151.418 7.797 150.656 7.797C 150.054 7.797 149.543 7.52 149.226 7.004C 149 6.65599 148.921 6.30499 148.91 5.69899L 153.296 5.69899zM 148.878 4.93399C 148.957 3.81999 149.636 3.09799 150.597 3.09799C 151.535 3.09799 152.261 3.875 152.261 4.86299C 152.261 4.883 152.261 4.90599 152.25 4.92999L 148.878 4.93399z"/>
<path style="stroke:#000000; stroke-width:1.9133; fill:none" d="M 121.433 99.7462L 108.05 67.238"/>
<path style="stroke:#000000; stroke-width:1.9133; fill:none" d="M 109.191 75.043L 108.046 67.238L 112.726 73.586"/>
<path style="stroke:#000000; stroke-width:1.9133; fill:none" d="M 121.433 99.7462L 136.73 67.238"/>
<path style="stroke:#000000; stroke-width:1.9133; fill:none" d="M 131.742 73.348L 136.73 67.238L 135.203 74.977"/>
<path style="stroke:#000000; stroke-width:1.9133; fill:none" d="M 56.414 99.7462L 35.3828 67.238"/>
<path style="stroke:#000000; stroke-width:1.9133; fill:none" d="M 37.9296 74.703L 35.3789 67.242L 41.1406 72.625"/>
<path style="stroke:#000000; stroke-width:1.9133; fill:none" d="M 56.414 99.7462L 64.0625 67.238"/>
<path style="stroke:#000000; stroke-width:1.9133; fill:none" d="M 60.4492 74.25L 64.0625 67.238L 64.1679 75.125"/>
<path style="stroke:#000000; stroke-width:1.9133; fill:none" d="M 121.429 99.7462L 121.429 67.238"/>
<path style="stroke:#000000; stroke-width:1.9133; fill:none" d="M 119.519 74.891L 121.429 67.238L 123.339 74.891"/>
<path style="stroke:#000000; stroke-width:1.9133; fill:none" d="M 121.429 99.7462L 150.113 67.238"/>
<path style="stroke:#000000; stroke-width:1.9133; fill:none" d="M 143.617 71.711L 150.113 67.238L 146.484 74.242"/>
</g>
</svg>