<?xml version="1.0" encoding="ISO-8859-1" standalone="yes"?>
<svg width="368.397" height="123.906">
  <defs> 
    <marker id="ArrowEnd" viewBox="0 0 10 10" refX="0" refY="5" 
     markerUnits="strokeWidth" 
     markerWidth="4" 
     markerHeight="3" 
     orient="auto"> 
        <path d="M 0 0 L 10 5 L 0 10 z" /> 
    </marker>
    <marker id="ArrowStart" viewBox="0 0 10 10" refX="10" refY="5" 
     markerUnits="strokeWidth" 
     markerWidth="4" 
     markerHeight="3" 
     orient="auto"> 
        <path d="M 10 0 L 0 5 L 10 10 z" /> 
    </marker> </defs>
<g>
<path style="stroke:none; fill-rule:evenodd; fill:#ffffff" d="M 44.48 103.578C 44.48 101.465 39.3394 99.7537 32.9995 99.7537C 26.6597 99.7537 21.5191 101.465 21.5191 103.578C 21.5191 105.691 26.6597 107.402 32.9995 107.402C 39.3394 107.402 44.48 105.691 44.48 103.578"/>
<path style="stroke:#000000; stroke-width:1.9139600000000001; fill:none" d="M 44.48 103.578C 44.48 101.465 39.3394 99.7537 32.9995 99.7537C 26.6597 99.7537 21.5191 101.465 21.5191 103.578C 21.5191 105.691 26.6597 107.402 32.9995 107.402C 39.3394 107.402 44.48 105.691 44.48 103.578"/>
<path style="stroke:none; fill-rule:evenodd; fill:#ffffff" d="M 71.273 103.578C 71.273 101.465 66.1324 99.7537 59.7925 99.7537C 53.4527 99.7537 48.3121 101.465 48.3121 103.578C 48.3121 105.691 53.4527 107.402 59.7925 107.402C 66.1324 107.402 71.273 105.691 71.273 103.578"/>
<path style="stroke:#000000; stroke-width:1.9139600000000001; fill:none" d="M 71.273 103.578C 71.273 101.465 66.1324 99.7537 59.7925 99.7537C 53.4527 99.7537 48.3121 101.465 48.3121 103.578C 48.3121 105.691 53.4527 107.402 59.7925 107.402C 66.1324 107.402 71.273 105.691 71.273 103.578"/>
<path style="stroke:none; fill-rule:evenodd; fill:#ffffff" d="M 109.554 92.0935C 109.554 89.9802 104.413 88.2693 98.0733 88.2693C 91.7339 88.2693 86.5933 89.9802 86.5933 92.0935C 86.5933 94.2068 91.7339 95.9178 98.0733 95.9178C 104.413 95.9178 109.554 94.2068 109.554 92.0935"/>
<path style="stroke:#000000; stroke-width:1.9139600000000001; fill:none" d="M 109.554 92.0935C 109.554 89.9802 104.413 88.2693 98.0733 88.2693C 91.7339 88.2693 86.5933 89.9802 86.5933 92.0935C 86.5933 94.2068 91.7339 95.9178 98.0733 95.9178C 104.413 95.9178 109.554 94.2068 109.554 92.0935"/>
<path style="stroke:none; fill-rule:evenodd; fill:#ffffff" d="M 98.0703 103.578C 98.0703 101.465 92.9292 99.7537 86.5894 99.7537C 80.2495 99.7537 75.1089 101.465 75.1089 103.578C 75.1089 105.691 80.2495 107.402 86.5894 107.402C 92.9292 107.402 98.0703 105.691 98.0703 103.578"/>
<path style="stroke:#000000; stroke-width:1.9139600000000001; fill:none" d="M 98.0703 103.578C 98.0703 101.465 92.9292 99.7537 86.5894 99.7537C 80.2495 99.7537 75.1089 101.465 75.1089 103.578C 75.1089 105.691 80.2495 107.402 86.5894 107.402C 92.9292 107.402 98.0703 105.691 98.0703 103.578"/>
<path style="stroke:none; fill-rule:evenodd; fill:#ffffff" d="M 124.866 103.578C 124.866 101.465 119.726 99.7537 113.386 99.7537C 107.046 99.7537 101.906 101.465 101.906 103.578C 101.906 105.691 107.046 107.402 113.386 107.402C 119.726 107.402 124.866 105.691 124.866 103.578"/>
<path style="stroke:#000000; stroke-width:1.9139600000000001; fill:none" d="M 124.866 103.578C 124.866 101.465 119.726 99.7537 113.386 99.7537C 107.046 99.7537 101.906 101.465 101.906 103.578C 101.906 105.691 107.046 107.402 113.386 107.402C 119.726 107.402 124.866 105.691 124.866 103.578"/>
<path style="stroke:none; fill-rule:evenodd; fill:#5f5f5f" d="M 55.9605 92.0935C 55.9605 89.9802 50.8199 88.2693 44.48 88.2693C 38.1402 88.2693 32.9995 89.9802 32.9995 92.0935C 32.9995 94.2068 38.1402 95.9178 44.48 95.9178C 50.8199 95.9178 55.9605 94.2068 55.9605 92.0935"/>
<path style="stroke:#000000; stroke-width:1.9139600000000001; fill:none" d="M 55.9605 92.0935C 55.9605 89.9802 50.8199 88.2693 44.48 88.2693C 38.1402 88.2693 32.9995 89.9802 32.9995 92.0935C 32.9995 94.2068 38.1402 95.9178 44.48 95.9178C 50.8199 95.9178 55.9605 94.2068 55.9605 92.0935"/>
<path style="stroke:none; fill-rule:evenodd; fill:#5f5f5f" d="M 67.4449 80.6092C 67.4449 78.4959 62.3042 76.7849 55.9644 76.7849C 49.6245 76.7849 44.4839 78.4959 44.4839 80.6092C 44.4839 82.7224 49.6245 84.4334 55.9644 84.4334C 62.3042 84.4334 67.4449 82.7224 67.4449 80.6092"/>
<path style="stroke:#000000; stroke-width:1.9139600000000001; fill:none" d="M 67.4449 80.6092C 67.4449 78.4959 62.3042 76.7849 55.9644 76.7849C 49.6245 76.7849 44.4839 78.4959 44.4839 80.6092C 44.4839 82.7224 49.6245 84.4334 55.9644 84.4334C 62.3042 84.4334 67.4449 82.7224 67.4449 80.6092"/>
<path style="stroke:none; fill-rule:evenodd; fill:#5f5f5f" d="M 82.7574 92.0935C 82.7574 89.9802 77.6167 88.2693 71.2769 88.2693C 64.9371 88.2693 59.7964 89.9802 59.7964 92.0935C 59.7964 94.2068 64.9371 95.9178 71.2769 95.9178C 77.6167 95.9178 82.7574 94.2068 82.7574 92.0935"/>
<path style="stroke:#000000; stroke-width:1.9139600000000001; fill:none" d="M 82.7574 92.0935C 82.7574 89.9802 77.6167 88.2693 71.2769 88.2693C 64.9371 88.2693 59.7964 89.9802 59.7964 92.0935C 59.7964 94.2068 64.9371 95.9178 71.2769 95.9178C 77.6167 95.9178 82.7574 94.2068 82.7574 92.0935"/>
<path style="stroke:none; fill-rule:evenodd; fill:#5f5f5f" d="M 94.2417 80.6092C 94.2417 78.4959 89.1011 76.7849 82.7613 76.7849C 76.4214 76.7849 71.2808 78.4959 71.2808 80.6092C 71.2808 82.7224 76.4214 84.4334 82.7613 84.4334C 89.1011 84.4334 94.2417 82.7224 94.2417 80.6092"/>
<path style="stroke:#000000; stroke-width:1.9139600000000001; fill:none" d="M 94.2417 80.6092C 94.2417 78.4959 89.1011 76.7849 82.7613 76.7849C 76.4214 76.7849 71.2808 78.4959 71.2808 80.6092C 71.2808 82.7224 76.4214 84.4334 82.7613 84.4334C 89.1011 84.4334 94.2417 82.7224 94.2417 80.6092"/>
<path style="stroke:none; fill-rule:evenodd; fill:#5f5f5f" d="M 121.038 80.6092C 121.038 78.4959 115.898 76.7849 109.558 76.7849C 103.218 76.7849 98.0773 78.4959 98.0773 80.6092C 98.0773 82.7224 103.218 84.4334 109.558 84.4334C 115.898 84.4334 121.038 82.7224 121.038 80.6092"/>
<path style="stroke:#000000; stroke-width:1.9139600000000001; fill:none" d="M 121.038 80.6092C 121.038 78.4959 115.898 76.7849 109.558 76.7849C 103.218 76.7849 98.0773 78.4959 98.0773 80.6092C 98.0773 82.7224 103.218 84.4334 109.558 84.4334C 115.898 84.4334 121.038 82.7224 121.038 80.6092"/>
<path style="stroke:none; fill-rule:evenodd; fill:#5f5f5f" d="M 136.351 92.0935C 136.351 89.9802 131.21 88.2693 124.87 88.2693C 118.53 88.2693 113.39 89.9802 113.39 92.0935C 113.39 94.2068 118.53 95.9178 124.87 95.9178C 131.21 95.9178 136.351 94.2068 136.351 92.0935"/>
<path style="stroke:#000000; stroke-width:1.9139600000000001; fill:none" d="M 136.351 92.0935C 136.351 89.9802 131.21 88.2693 124.87 88.2693C 118.53 88.2693 113.39 89.9802 113.39 92.0935C 113.39 94.2068 118.53 95.9178 124.87 95.9178C 131.21 95.9178 136.351 94.2068 136.351 92.0935"/>
<path style="stroke:none; fill-rule:evenodd; fill:#5f5f5f" d="M 147.831 80.6092C 147.831 78.4959 142.691 76.7849 136.351 76.7849C 130.011 76.7849 124.87 78.4959 124.87 80.6092C 124.87 82.7224 130.011 84.4334 136.351 84.4334C 142.691 84.4334 147.831 82.7224 147.831 80.6092"/>
<path style="stroke:#000000; stroke-width:1.9139600000000001; fill:none" d="M 147.831 80.6092C 147.831 78.4959 142.691 76.7849 136.351 76.7849C 130.011 76.7849 124.87 78.4959 124.87 80.6092C 124.87 82.7224 130.011 84.4334 136.351 84.4334C 142.691 84.4334 147.831 82.7224 147.831 80.6092"/>
<path style="stroke:none; fill-rule:evenodd; fill:#5f5f5f" d="M 163.144 92.0935C 163.144 89.9802 158.003 88.2693 151.663 88.2693C 145.323 88.2693 140.183 89.9802 140.183 92.0935C 140.183 94.2068 145.323 95.9178 151.663 95.9178C 158.003 95.9178 163.144 94.2068 163.144 92.0935"/>
<path style="stroke:#000000; stroke-width:1.9139600000000001; fill:none" d="M 163.144 92.0935C 163.144 89.9802 158.003 88.2693 151.663 88.2693C 145.323 88.2693 140.183 89.9802 140.183 92.0935C 140.183 94.2068 145.323 95.9178 151.663 95.9178C 158.003 95.9178 163.144 94.2068 163.144 92.0935"/>
<path style="stroke:none; fill-rule:evenodd; fill:#5f5f5f" d="M 151.659 103.578C 151.659 101.465 146.519 99.7537 140.179 99.7537C 133.839 99.7537 128.698 101.465 128.698 103.578C 128.698 105.691 133.839 107.402 140.179 107.402C 146.519 107.402 151.659 105.691 151.659 103.578"/>
<path style="stroke:#000000; stroke-width:1.9139600000000001; fill:none" d="M 151.659 103.578C 151.659 101.465 146.519 99.7537 140.179 99.7537C 133.839 99.7537 128.698 101.465 128.698 103.578C 128.698 105.691 133.839 107.402 140.179 107.402C 146.519 107.402 151.659 105.691 151.659 103.578"/>
<path style="stroke:none; fill-rule:evenodd; fill:#5f5f5f" d="M 174.628 80.6092C 174.628 78.4959 169.488 76.7849 163.148 76.7849C 156.808 76.7849 151.667 78.4959 151.667 80.6092C 151.667 82.7224 156.808 84.4334 163.148 84.4334C 169.488 84.4334 174.628 82.7224 174.628 80.6092"/>
<path style="stroke:#000000; stroke-width:1.9139600000000001; fill:none" d="M 174.628 80.6092C 174.628 78.4959 169.488 76.7849 163.148 76.7849C 156.808 76.7849 151.667 78.4959 151.667 80.6092C 151.667 82.7224 156.808 84.4334 163.148 84.4334C 169.488 84.4334 174.628 82.7224 174.628 80.6092"/>
<path style="stroke:#000000; stroke-width:1.9139600000000001; fill:none" d="M 48.3081 72.9529L 186.113 72.9529L 147.835 111.23L 10.0308 111.23L 48.3081 72.9529z"/>
<path style="stroke:none; fill-rule:evenodd; fill:#5f5f5f" d="M 55.9605 34.6756C 55.9605 32.562 50.8199 30.851 44.48 30.851C 38.1402 30.851 32.9995 32.562 32.9995 34.6756C 32.9995 36.7888 38.1402 38.4998 44.48 38.4998C 50.8199 38.4998 55.9605 36.7888 55.9605 34.6756"/>
<path style="stroke:#000000; stroke-width:1.9139600000000001; fill:none" d="M 55.9605 34.6756C 55.9605 32.562 50.8199 30.851 44.48 30.851C 38.1402 30.851 32.9995 32.562 32.9995 34.6756C 32.9995 36.7888 38.1402 38.4998 44.48 38.4998C 50.8199 38.4998 55.9605 36.7888 55.9605 34.6756"/>
<path style="stroke:none; fill-rule:evenodd; fill:#5f5f5f" d="M 44.48 46.1599C 44.48 44.0467 39.3394 42.3357 32.9995 42.3357C 26.6597 42.3357 21.5191 44.0467 21.5191 46.1599C 21.5191 48.2732 26.6597 49.9842 32.9995 49.9842C 39.3394 49.9842 44.48 48.2732 44.48 46.1599"/>
<path style="stroke:#000000; stroke-width:1.9139600000000001; fill:none" d="M 44.48 46.1599C 44.48 44.0467 39.3394 42.3357 32.9995 42.3357C 26.6597 42.3357 21.5191 44.0467 21.5191 46.1599C 21.5191 48.2732 26.6597 49.9842 32.9995 49.9842C 39.3394 49.9842 44.48 48.2732 44.48 46.1599"/>
<path style="stroke:none; fill-rule:evenodd; fill:#5f5f5f" d="M 67.4449 23.191C 67.4449 21.078 62.3042 19.367 55.9644 19.367C 49.6245 19.367 44.4839 21.078 44.4839 23.191C 44.4839 25.304 49.6245 27.015 55.9644 27.015C 62.3042 27.015 67.4449 25.304 67.4449 23.191"/>
<path style="stroke:#000000; stroke-width:1.9139600000000001; fill:none" d="M 67.4449 23.191C 67.4449 21.078 62.3042 19.367 55.9644 19.367C 49.6245 19.367 44.4839 21.078 44.4839 23.191C 44.4839 25.304 49.6245 27.015 55.9644 27.015C 62.3042 27.015 67.4449 25.304 67.4449 23.191"/>
<path style="stroke:none; fill-rule:evenodd; fill:#5f5f5f" d="M 82.7574 34.6756C 82.7574 32.562 77.6167 30.851 71.2769 30.851C 64.9371 30.851 59.7964 32.562 59.7964 34.6756C 59.7964 36.7888 64.9371 38.4998 71.2769 38.4998C 77.6167 38.4998 82.7574 36.7888 82.7574 34.6756"/>
<path style="stroke:#000000; stroke-width:1.9139600000000001; fill:none" d="M 82.7574 34.6756C 82.7574 32.562 77.6167 30.851 71.2769 30.851C 64.9371 30.851 59.7964 32.562 59.7964 34.6756C 59.7964 36.7888 64.9371 38.4998 71.2769 38.4998C 77.6167 38.4998 82.7574 36.7888 82.7574 34.6756"/>
<path style="stroke:none; fill-rule:evenodd; fill:#5f5f5f" d="M 71.273 46.1599C 71.273 44.0467 66.1324 42.3357 59.7925 42.3357C 53.4527 42.3357 48.3121 44.0467 48.3121 46.1599C 48.3121 48.2732 53.4527 49.9842 59.7925 49.9842C 66.1324 49.9842 71.273 48.2732 71.273 46.1599"/>
<path style="stroke:#000000; stroke-width:1.9139600000000001; fill:none" d="M 71.273 46.1599C 71.273 44.0467 66.1324 42.3357 59.7925 42.3357C 53.4527 42.3357 48.3121 44.0467 48.3121 46.1599C 48.3121 48.2732 53.4527 49.9842 59.7925 49.9842C 66.1324 49.9842 71.273 48.2732 71.273 46.1599"/>
<path style="stroke:none; fill-rule:evenodd; fill:#5f5f5f" d="M 94.2417 23.191C 94.2417 21.078 89.1011 19.367 82.7613 19.367C 76.4214 19.367 71.2808 21.078 71.2808 23.191C 71.2808 25.304 76.4214 27.015 82.7613 27.015C 89.1011 27.015 94.2417 25.304 94.2417 23.191"/>
<path style="stroke:#000000; stroke-width:1.9139600000000001; fill:none" d="M 94.2417 23.191C 94.2417 21.078 89.1011 19.367 82.7613 19.367C 76.4214 19.367 71.2808 21.078 71.2808 23.191C 71.2808 25.304 76.4214 27.015 82.7613 27.015C 89.1011 27.015 94.2417 25.304 94.2417 23.191"/>
<path style="stroke:none; fill-rule:evenodd; fill:#5f5f5f" d="M 109.554 34.6756C 109.554 32.562 104.413 30.851 98.0733 30.851C 91.7339 30.851 86.5933 32.562 86.5933 34.6756C 86.5933 36.7888 91.7339 38.4998 98.0733 38.4998C 104.413 38.4998 109.554 36.7888 109.554 34.6756"/>
<path style="stroke:#000000; stroke-width:1.9139600000000001; fill:none" d="M 109.554 34.6756C 109.554 32.562 104.413 30.851 98.0733 30.851C 91.7339 30.851 86.5933 32.562 86.5933 34.6756C 86.5933 36.7888 91.7339 38.4998 98.0733 38.4998C 104.413 38.4998 109.554 36.7888 109.554 34.6756"/>
<path style="stroke:none; fill-rule:evenodd; fill:#ffffff" d="M 98.0703 46.1599C 98.0703 44.0467 92.9292 42.3357 86.5894 42.3357C 80.2495 42.3357 75.1089 44.0467 75.1089 46.1599C 75.1089 48.2732 80.2495 49.9842 86.5894 49.9842C 92.9292 49.9842 98.0703 48.2732 98.0703 46.1599"/>
<path style="stroke:#000000; stroke-width:1.9139600000000001; fill:none" d="M 98.0703 46.1599C 98.0703 44.0467 92.9292 42.3357 86.5894 42.3357C 80.2495 42.3357 75.1089 44.0467 75.1089 46.1599C 75.1089 48.2732 80.2495 49.9842 86.5894 49.9842C 92.9292 49.9842 98.0703 48.2732 98.0703 46.1599"/>
<path style="stroke:none; fill-rule:evenodd; fill:#5f5f5f" d="M 121.038 23.191C 121.038 21.078 115.898 19.367 109.558 19.367C 103.218 19.367 98.0773 21.078 98.0773 23.191C 98.0773 25.304 103.218 27.015 109.558 27.015C 115.898 27.015 121.038 25.304 121.038 23.191"/>
<path style="stroke:#000000; stroke-width:1.9139600000000001; fill:none" d="M 121.038 23.191C 121.038 21.078 115.898 19.367 109.558 19.367C 103.218 19.367 98.0773 21.078 98.0773 23.191C 98.0773 25.304 103.218 27.015 109.558 27.015C 115.898 27.015 121.038 25.304 121.038 23.191"/>
<path style="stroke:none; fill-rule:evenodd; fill:#5f5f5f" d="M 136.351 34.6756C 136.351 32.562 131.21 30.851 124.87 30.851C 118.53 30.851 113.39 32.562 113.39 34.6756C 113.39 36.7888 118.53 38.4998 124.87 38.4998C 131.21 38.4998 136.351 36.7888 136.351 34.6756"/>
<path style="stroke:#000000; stroke-width:1.9139600000000001; fill:none" d="M 136.351 34.6756C 136.351 32.562 131.21 30.851 124.87 30.851C 118.53 30.851 113.39 32.562 113.39 34.6756C 113.39 36.7888 118.53 38.4998 124.87 38.4998C 131.21 38.4998 136.351 36.7888 136.351 34.6756"/>
<path style="stroke:none; fill-rule:evenodd; fill:#5f5f5f" d="M 124.866 46.1599C 124.866 44.0467 119.726 42.3357 113.386 42.3357C 107.046 42.3357 101.906 44.0467 101.906 46.1599C 101.906 48.2732 107.046 49.9842 113.386 49.9842C 119.726 49.9842 124.866 48.2732 124.866 46.1599"/>
<path style="stroke:#000000; stroke-width:1.9139600000000001; fill:none" d="M 124.866 46.1599C 124.866 44.0467 119.726 42.3357 113.386 42.3357C 107.046 42.3357 101.906 44.0467 101.906 46.1599C 101.906 48.2732 107.046 49.9842 113.386 49.9842C 119.726 49.9842 124.866 48.2732 124.866 46.1599"/>
<path style="stroke:none; fill-rule:evenodd; fill:#5f5f5f" d="M 147.831 23.191C 147.831 21.078 142.691 19.367 136.351 19.367C 130.011 19.367 124.87 21.078 124.87 23.191C 124.87 25.304 130.011 27.015 136.351 27.015C 142.691 27.015 147.831 25.304 147.831 23.191"/>
<path style="stroke:#000000; stroke-width:1.9139600000000001; fill:none" d="M 147.831 23.191C 147.831 21.078 142.691 19.367 136.351 19.367C 130.011 19.367 124.87 21.078 124.87 23.191C 124.87 25.304 130.011 27.015 136.351 27.015C 142.691 27.015 147.831 25.304 147.831 23.191"/>
<path style="stroke:none; fill-rule:evenodd; fill:#5f5f5f" d="M 163.144 34.6756C 163.144 32.562 158.003 30.851 151.663 30.851C 145.323 30.851 140.183 32.562 140.183 34.6756C 140.183 36.7888 145.323 38.4998 151.663 38.4998C 158.003 38.4998 163.144 36.7888 163.144 34.6756"/>
<path style="stroke:#000000; stroke-width:1.9139600000000001; fill:none" d="M 163.144 34.6756C 163.144 32.562 158.003 30.851 151.663 30.851C 145.323 30.851 140.183 32.562 140.183 34.6756C 140.183 36.7888 145.323 38.4998 151.663 38.4998C 158.003 38.4998 163.144 36.7888 163.144 34.6756"/>
<path style="stroke:none; fill-rule:evenodd; fill:#5f5f5f" d="M 151.659 46.1599C 151.659 44.0467 146.519 42.3357 140.179 42.3357C 133.839 42.3357 128.698 44.0467 128.698 46.1599C 128.698 48.2732 133.839 49.9842 140.179 49.9842C 146.519 49.9842 151.659 48.2732 151.659 46.1599"/>
<path style="stroke:#000000; stroke-width:1.9139600000000001; fill:none" d="M 151.659 46.1599C 151.659 44.0467 146.519 42.3357 140.179 42.3357C 133.839 42.3357 128.698 44.0467 128.698 46.1599C 128.698 48.2732 133.839 49.9842 140.179 49.9842C 146.519 49.9842 151.659 48.2732 151.659 46.1599"/>
<path style="stroke:none; fill-rule:evenodd; fill:#5f5f5f" d="M 174.628 23.191C 174.628 21.078 169.488 19.367 163.148 19.367C 156.808 19.367 151.667 21.078 151.667 23.191C 151.667 25.304 156.808 27.015 163.148 27.015C 169.488 27.015 174.628 25.304 174.628 23.191"/>
<path style="stroke:#000000; stroke-width:1.9139600000000001; fill:none" d="M 174.628 23.191C 174.628 21.078 169.488 19.367 163.148 19.367C 156.808 19.367 151.667 21.078 151.667 23.191C 151.667 25.304 156.808 27.015 163.148 27.015C 169.488 27.015 174.628 25.304 174.628 23.191"/>
<path style="stroke:#000000; stroke-width:1.9139600000000001; fill:none" d="M 48.3081 15.535L 186.113 15.535L 147.835 53.8123L 10.0308 53.8123L 48.3081 15.535z"/>
<path style="stroke:none; fill-rule:evenodd; fill:#5f5f5f" d="M 228.218 92.0935C 228.218 89.9802 223.077 88.2693 216.738 88.2693C 210.398 88.2693 205.257 89.9802 205.257 92.0935C 205.257 94.2068 210.398 95.9178 216.738 95.9178C 223.077 95.9178 228.218 94.2068 228.218 92.0935"/>
<path style="stroke:#000000; stroke-width:1.9139600000000001; fill:none" d="M 228.218 92.0935C 228.218 89.9802 223.077 88.2693 216.738 88.2693C 210.398 88.2693 205.257 89.9802 205.257 92.0935C 205.257 94.2068 210.398 95.9178 216.738 95.9178C 223.077 95.9178 228.218 94.2068 228.218 92.0935"/>
<path style="stroke:none; fill-rule:evenodd; fill:#5f5f5f" d="M 216.734 103.578C 216.734 101.465 211.593 99.7537 205.253 99.7537C 198.913 99.7537 193.773 101.465 193.773 103.578C 193.773 105.691 198.913 107.402 205.253 107.402C 211.593 107.402 216.734 105.691 216.734 103.578"/>
<path style="stroke:#000000; stroke-width:1.9139600000000001; fill:none" d="M 216.734 103.578C 216.734 101.465 211.593 99.7537 205.253 99.7537C 198.913 99.7537 193.773 101.465 193.773 103.578C 193.773 105.691 198.913 107.402 205.253 107.402C 211.593 107.402 216.734 105.691 216.734 103.578"/>
<path style="stroke:none; fill-rule:evenodd; fill:#5f5f5f" d="M 239.702 80.6092C 239.702 78.4959 234.562 76.7849 228.222 76.7849C 221.882 76.7849 216.741 78.4959 216.741 80.6092C 216.741 82.7224 221.882 84.4334 228.222 84.4334C 234.562 84.4334 239.702 82.7224 239.702 80.6092"/>
<path style="stroke:#000000; stroke-width:1.9139600000000001; fill:none" d="M 239.702 80.6092C 239.702 78.4959 234.562 76.7849 228.222 76.7849C 221.882 76.7849 216.741 78.4959 216.741 80.6092C 216.741 82.7224 221.882 84.4334 228.222 84.4334C 234.562 84.4334 239.702 82.7224 239.702 80.6092"/>
<path style="stroke:none; fill-rule:evenodd; fill:#5f5f5f" d="M 255.015 92.0935C 255.015 89.9802 249.874 88.2693 243.534 88.2693C 237.195 88.2693 232.054 89.9802 232.054 92.0935C 232.054 94.2068 237.195 95.9178 243.534 95.9178C 249.874 95.9178 255.015 94.2068 255.015 92.0935"/>
<path style="stroke:#000000; stroke-width:1.9139600000000001; fill:none" d="M 255.015 92.0935C 255.015 89.9802 249.874 88.2693 243.534 88.2693C 237.195 88.2693 232.054 89.9802 232.054 92.0935C 232.054 94.2068 237.195 95.9178 243.534 95.9178C 249.874 95.9178 255.015 94.2068 255.015 92.0935"/>
<path style="stroke:none; fill-rule:evenodd; fill:#5f5f5f" d="M 266.499 80.6092C 266.499 78.4959 261.359 76.7849 255.019 76.7849C 248.679 76.7849 243.538 78.4959 243.538 80.6092C 243.538 82.7224 248.679 84.4334 255.019 84.4334C 261.359 84.4334 266.499 82.7224 266.499 80.6092"/>
<path style="stroke:#000000; stroke-width:1.9139600000000001; fill:none" d="M 266.499 80.6092C 266.499 78.4959 261.359 76.7849 255.019 76.7849C 248.679 76.7849 243.538 78.4959 243.538 80.6092C 243.538 82.7224 248.679 84.4334 255.019 84.4334C 261.359 84.4334 266.499 82.7224 266.499 80.6092"/>
<path style="stroke:none; fill-rule:evenodd; fill:#5f5f5f" d="M 293.292 80.6092C 293.292 78.4959 288.152 76.7849 281.812 76.7849C 275.472 76.7849 270.331 78.4959 270.331 80.6092C 270.331 82.7224 275.472 84.4334 281.812 84.4334C 288.152 84.4334 293.292 82.7224 293.292 80.6092"/>
<path style="stroke:#000000; stroke-width:1.9139600000000001; fill:none" d="M 293.292 80.6092C 293.292 78.4959 288.152 76.7849 281.812 76.7849C 275.472 76.7849 270.331 78.4959 270.331 80.6092C 270.331 82.7224 275.472 84.4334 281.812 84.4334C 288.152 84.4334 293.292 82.7224 293.292 80.6092"/>
<path style="stroke:none; fill-rule:evenodd; fill:#5f5f5f" d="M 308.605 92.0935C 308.605 89.9802 303.464 88.2693 297.124 88.2693C 290.784 88.2693 285.644 89.9802 285.644 92.0935C 285.644 94.2068 290.784 95.9178 297.124 95.9178C 303.464 95.9178 308.605 94.2068 308.605 92.0935"/>
<path style="stroke:#000000; stroke-width:1.9139600000000001; fill:none" d="M 308.605 92.0935C 308.605 89.9802 303.464 88.2693 297.124 88.2693C 290.784 88.2693 285.644 89.9802 285.644 92.0935C 285.644 94.2068 290.784 95.9178 297.124 95.9178C 303.464 95.9178 308.605 94.2068 308.605 92.0935"/>
<path style="stroke:none; fill-rule:evenodd; fill:#5f5f5f" d="M 320.089 80.6092C 320.089 78.4959 314.948 76.7849 308.609 76.7849C 302.269 76.7849 297.128 78.4959 297.128 80.6092C 297.128 82.7224 302.269 84.4334 308.609 84.4334C 314.948 84.4334 320.089 82.7224 320.089 80.6092"/>
<path style="stroke:#000000; stroke-width:1.9139600000000001; fill:none" d="M 320.089 80.6092C 320.089 78.4959 314.948 76.7849 308.609 76.7849C 302.269 76.7849 297.128 78.4959 297.128 80.6092C 297.128 82.7224 302.269 84.4334 308.609 84.4334C 314.948 84.4334 320.089 82.7224 320.089 80.6092"/>
<path style="stroke:none; fill-rule:evenodd; fill:#5f5f5f" d="M 335.402 92.0935C 335.402 89.9802 330.261 88.2693 323.921 88.2693C 317.581 88.2693 312.441 89.9802 312.441 92.0935C 312.441 94.2068 317.581 95.9178 323.921 95.9178C 330.261 95.9178 335.402 94.2068 335.402 92.0935"/>
<path style="stroke:#000000; stroke-width:1.9139600000000001; fill:none" d="M 335.402 92.0935C 335.402 89.9802 330.261 88.2693 323.921 88.2693C 317.581 88.2693 312.441 89.9802 312.441 92.0935C 312.441 94.2068 317.581 95.9178 323.921 95.9178C 330.261 95.9178 335.402 94.2068 335.402 92.0935"/>
<path style="stroke:none; fill-rule:evenodd; fill:#ffffff" d="M 243.53 103.578C 243.53 101.465 238.39 99.7537 232.05 99.7537C 225.71 99.7537 220.57 101.465 220.57 103.578C 220.57 105.691 225.71 107.402 232.05 107.402C 238.39 107.402 243.53 105.691 243.53 103.578"/>
<path style="stroke:#000000; stroke-width:1.9139600000000001; fill:none" d="M 243.53 103.578C 243.53 101.465 238.39 99.7537 232.05 99.7537C 225.71 99.7537 220.57 101.465 220.57 103.578C 220.57 105.691 225.71 107.402 232.05 107.402C 238.39 107.402 243.53 105.691 243.53 103.578"/>
<path style="stroke:none; fill-rule:evenodd; fill:#ffffff" d="M 281.812 92.0935C 281.812 89.9802 276.671 88.2693 270.331 88.2693C 263.991 88.2693 258.851 89.9802 258.851 92.0935C 258.851 94.2068 263.991 95.9178 270.331 95.9178C 276.671 95.9178 281.812 94.2068 281.812 92.0935"/>
<path style="stroke:#000000; stroke-width:1.9139600000000001; fill:none" d="M 281.812 92.0935C 281.812 89.9802 276.671 88.2693 270.331 88.2693C 263.991 88.2693 258.851 89.9802 258.851 92.0935C 258.851 94.2068 263.991 95.9178 270.331 95.9178C 276.671 95.9178 281.812 94.2068 281.812 92.0935"/>
<path style="stroke:none; fill-rule:evenodd; fill:#ffffff" d="M 270.327 103.578C 270.327 101.465 265.187 99.7537 258.847 99.7537C 252.507 99.7537 247.366 101.465 247.366 103.578C 247.366 105.691 252.507 107.402 258.847 107.402C 265.187 107.402 270.327 105.691 270.327 103.578"/>
<path style="stroke:#000000; stroke-width:1.9139600000000001; fill:none" d="M 270.327 103.578C 270.327 101.465 265.187 99.7537 258.847 99.7537C 252.507 99.7537 247.366 101.465 247.366 103.578C 247.366 105.691 252.507 107.402 258.847 107.402C 265.187 107.402 270.327 105.691 270.327 103.578"/>
<path style="stroke:none; fill-rule:evenodd; fill:#ffffff" d="M 297.12 103.578C 297.12 101.465 291.98 99.7537 285.64 99.7537C 279.3 99.7537 274.159 101.465 274.159 103.578C 274.159 105.691 279.3 107.402 285.64 107.402C 291.98 107.402 297.12 105.691 297.12 103.578"/>
<path style="stroke:#000000; stroke-width:1.9139600000000001; fill:none" d="M 297.12 103.578C 297.12 101.465 291.98 99.7537 285.64 99.7537C 279.3 99.7537 274.159 101.465 274.159 103.578C 274.159 105.691 279.3 107.402 285.64 107.402C 291.98 107.402 297.12 105.691 297.12 103.578"/>
<path style="stroke:none; fill-rule:evenodd; fill:#ffffff" d="M 323.917 103.578C 323.917 101.465 318.777 99.7537 312.437 99.7537C 306.097 99.7537 300.956 101.465 300.956 103.578C 300.956 105.691 306.097 107.402 312.437 107.402C 318.777 107.402 323.917 105.691 323.917 103.578"/>
<path style="stroke:#000000; stroke-width:1.9139600000000001; fill:none" d="M 323.917 103.578C 323.917 101.465 318.777 99.7537 312.437 99.7537C 306.097 99.7537 300.956 101.465 300.956 103.578C 300.956 105.691 306.097 107.402 312.437 107.402C 318.777 107.402 323.917 105.691 323.917 103.578"/>
<path style="stroke:none; fill-rule:evenodd; fill:#5f5f5f" d="M 346.886 80.6092C 346.886 78.4959 341.745 76.7849 335.406 76.7849C 329.066 76.7849 323.925 78.4959 323.925 80.6092C 323.925 82.7224 329.066 84.4334 335.406 84.4334C 341.745 84.4334 346.886 82.7224 346.886 80.6092"/>
<path style="stroke:#000000; stroke-width:1.9139600000000001; fill:none" d="M 346.886 80.6092C 346.886 78.4959 341.745 76.7849 335.406 76.7849C 329.066 76.7849 323.925 78.4959 323.925 80.6092C 323.925 82.7224 329.066 84.4334 335.406 84.4334C 341.745 84.4334 346.886 82.7224 346.886 80.6092"/>
<path style="stroke:#000000; stroke-width:1.9139600000000001; fill:none" d="M 220.562 72.9529L 358.366 72.9529L 320.089 111.23L 182.284 111.23L 220.562 72.9529z"/>
<path style="stroke:none; fill-rule:evenodd; fill:#5f5f5f" d="M 228.218 34.6756C 228.218 32.562 223.077 30.851 216.738 30.851C 210.398 30.851 205.257 32.562 205.257 34.6756C 205.257 36.7888 210.398 38.4998 216.738 38.4998C 223.077 38.4998 228.218 36.7888 228.218 34.6756"/>
<path style="stroke:#000000; stroke-width:1.9139600000000001; fill:none" d="M 228.218 34.6756C 228.218 32.562 223.077 30.851 216.738 30.851C 210.398 30.851 205.257 32.562 205.257 34.6756C 205.257 36.7888 210.398 38.4998 216.738 38.4998C 223.077 38.4998 228.218 36.7888 228.218 34.6756"/>
<path style="stroke:none; fill-rule:evenodd; fill:#5f5f5f" d="M 216.734 46.1599C 216.734 44.0467 211.593 42.3357 205.253 42.3357C 198.913 42.3357 193.773 44.0467 193.773 46.1599C 193.773 48.2732 198.913 49.9842 205.253 49.9842C 211.593 49.9842 216.734 48.2732 216.734 46.1599"/>
<path style="stroke:#000000; stroke-width:1.9139600000000001; fill:none" d="M 216.734 46.1599C 216.734 44.0467 211.593 42.3357 205.253 42.3357C 198.913 42.3357 193.773 44.0467 193.773 46.1599C 193.773 48.2732 198.913 49.9842 205.253 49.9842C 211.593 49.9842 216.734 48.2732 216.734 46.1599"/>
<path style="stroke:none; fill-rule:evenodd; fill:#5f5f5f" d="M 239.702 23.191C 239.702 21.078 234.562 19.367 228.222 19.367C 221.882 19.367 216.741 21.078 216.741 23.191C 216.741 25.304 221.882 27.015 228.222 27.015C 234.562 27.015 239.702 25.304 239.702 23.191"/>
<path style="stroke:#000000; stroke-width:1.9139600000000001; fill:none" d="M 239.702 23.191C 239.702 21.078 234.562 19.367 228.222 19.367C 221.882 19.367 216.741 21.078 216.741 23.191C 216.741 25.304 221.882 27.015 228.222 27.015C 234.562 27.015 239.702 25.304 239.702 23.191"/>
<path style="stroke:none; fill-rule:evenodd; fill:#5f5f5f" d="M 255.015 34.6756C 255.015 32.562 249.874 30.851 243.534 30.851C 237.195 30.851 232.054 32.562 232.054 34.6756C 232.054 36.7888 237.195 38.4998 243.534 38.4998C 249.874 38.4998 255.015 36.7888 255.015 34.6756"/>
<path style="stroke:#000000; stroke-width:1.9139600000000001; fill:none" d="M 255.015 34.6756C 255.015 32.562 249.874 30.851 243.534 30.851C 237.195 30.851 232.054 32.562 232.054 34.6756C 232.054 36.7888 237.195 38.4998 243.534 38.4998C 249.874 38.4998 255.015 36.7888 255.015 34.6756"/>
<path style="stroke:none; fill-rule:evenodd; fill:#5f5f5f" d="M 243.53 46.1599C 243.53 44.0467 238.39 42.3357 232.05 42.3357C 225.71 42.3357 220.57 44.0467 220.57 46.1599C 220.57 48.2732 225.71 49.9842 232.05 49.9842C 238.39 49.9842 243.53 48.2732 243.53 46.1599"/>
<path style="stroke:#000000; stroke-width:1.9139600000000001; fill:none" d="M 243.53 46.1599C 243.53 44.0467 238.39 42.3357 232.05 42.3357C 225.71 42.3357 220.57 44.0467 220.57 46.1599C 220.57 48.2732 225.71 49.9842 232.05 49.9842C 238.39 49.9842 243.53 48.2732 243.53 46.1599"/>
<path style="stroke:none; fill-rule:evenodd; fill:#5f5f5f" d="M 266.499 23.191C 266.499 21.078 261.359 19.367 255.019 19.367C 248.679 19.367 243.538 21.078 243.538 23.191C 243.538 25.304 248.679 27.015 255.019 27.015C 261.359 27.015 266.499 25.304 266.499 23.191"/>
<path style="stroke:#000000; stroke-width:1.9139600000000001; fill:none" d="M 266.499 23.191C 266.499 21.078 261.359 19.367 255.019 19.367C 248.679 19.367 243.538 21.078 243.538 23.191C 243.538 25.304 248.679 27.015 255.019 27.015C 261.359 27.015 266.499 25.304 266.499 23.191"/>
<path style="stroke:none; fill-rule:evenodd; fill:#5f5f5f" d="M 281.812 34.6756C 281.812 32.562 276.671 30.851 270.331 30.851C 263.991 30.851 258.851 32.562 258.851 34.6756C 258.851 36.7888 263.991 38.4998 270.331 38.4998C 276.671 38.4998 281.812 36.7888 281.812 34.6756"/>
<path style="stroke:#000000; stroke-width:1.9139600000000001; fill:none" d="M 281.812 34.6756C 281.812 32.562 276.671 30.851 270.331 30.851C 263.991 30.851 258.851 32.562 258.851 34.6756C 258.851 36.7888 263.991 38.4998 270.331 38.4998C 276.671 38.4998 281.812 36.7888 281.812 34.6756"/>
<path style="stroke:none; fill-rule:evenodd; fill:#5f5f5f" d="M 270.327 46.1599C 270.327 44.0467 265.187 42.3357 258.847 42.3357C 252.507 42.3357 247.366 44.0467 247.366 46.1599C 247.366 48.2732 252.507 49.9842 258.847 49.9842C 265.187 49.9842 270.327 48.2732 270.327 46.1599"/>
<path style="stroke:#000000; stroke-width:1.9139600000000001; fill:none" d="M 270.327 46.1599C 270.327 44.0467 265.187 42.3357 258.847 42.3357C 252.507 42.3357 247.366 44.0467 247.366 46.1599C 247.366 48.2732 252.507 49.9842 258.847 49.9842C 265.187 49.9842 270.327 48.2732 270.327 46.1599"/>
<path style="stroke:none; fill-rule:evenodd; fill:#5f5f5f" d="M 293.292 23.191C 293.292 21.078 288.152 19.367 281.812 19.367C 275.472 19.367 270.331 21.078 270.331 23.191C 270.331 25.304 275.472 27.015 281.812 27.015C 288.152 27.015 293.292 25.304 293.292 23.191"/>
<path style="stroke:#000000; stroke-width:1.9139600000000001; fill:none" d="M 293.292 23.191C 293.292 21.078 288.152 19.367 281.812 19.367C 275.472 19.367 270.331 21.078 270.331 23.191C 270.331 25.304 275.472 27.015 281.812 27.015C 288.152 27.015 293.292 25.304 293.292 23.191"/>
<path style="stroke:none; fill-rule:evenodd; fill:#5f5f5f" d="M 308.605 34.6756C 308.605 32.562 303.464 30.851 297.124 30.851C 290.784 30.851 285.644 32.562 285.644 34.6756C 285.644 36.7888 290.784 38.4998 297.124 38.4998C 303.464 38.4998 308.605 36.7888 308.605 34.6756"/>
<path style="stroke:#000000; stroke-width:1.9139600000000001; fill:none" d="M 308.605 34.6756C 308.605 32.562 303.464 30.851 297.124 30.851C 290.784 30.851 285.644 32.562 285.644 34.6756C 285.644 36.7888 290.784 38.4998 297.124 38.4998C 303.464 38.4998 308.605 36.7888 308.605 34.6756"/>
<path style="stroke:none; fill-rule:evenodd; fill:#ffffff" d="M 297.12 46.1599C 297.12 44.0467 291.98 42.3357 285.64 42.3357C 279.3 42.3357 274.159 44.0467 274.159 46.1599C 274.159 48.2732 279.3 49.9842 285.64 49.9842C 291.98 49.9842 297.12 48.2732 297.12 46.1599"/>
<path style="stroke:#000000; stroke-width:1.9139600000000001; fill:none" d="M 297.12 46.1599C 297.12 44.0467 291.98 42.3357 285.64 42.3357C 279.3 42.3357 274.159 44.0467 274.159 46.1599C 274.159 48.2732 279.3 49.9842 285.64 49.9842C 291.98 49.9842 297.12 48.2732 297.12 46.1599"/>
<path style="stroke:none; fill-rule:evenodd; fill:#5f5f5f" d="M 320.089 23.191C 320.089 21.078 314.948 19.367 308.609 19.367C 302.269 19.367 297.128 21.078 297.128 23.191C 297.128 25.304 302.269 27.015 308.609 27.015C 314.948 27.015 320.089 25.304 320.089 23.191"/>
<path style="stroke:#000000; stroke-width:1.9139600000000001; fill:none" d="M 320.089 23.191C 320.089 21.078 314.948 19.367 308.609 19.367C 302.269 19.367 297.128 21.078 297.128 23.191C 297.128 25.304 302.269 27.015 308.609 27.015C 314.948 27.015 320.089 25.304 320.089 23.191"/>
<path style="stroke:none; fill-rule:evenodd; fill:#5f5f5f" d="M 335.402 34.6756C 335.402 32.562 330.261 30.851 323.921 30.851C 317.581 30.851 312.441 32.562 312.441 34.6756C 312.441 36.7888 317.581 38.4998 323.921 38.4998C 330.261 38.4998 335.402 36.7888 335.402 34.6756"/>
<path style="stroke:#000000; stroke-width:1.9139600000000001; fill:none" d="M 335.402 34.6756C 335.402 32.562 330.261 30.851 323.921 30.851C 317.581 30.851 312.441 32.562 312.441 34.6756C 312.441 36.7888 317.581 38.4998 323.921 38.4998C 330.261 38.4998 335.402 36.7888 335.402 34.6756"/>
<path style="stroke:none; fill-rule:evenodd; fill:#5f5f5f" d="M 323.917 46.1599C 323.917 44.0467 318.777 42.3357 312.437 42.3357C 306.097 42.3357 300.956 44.0467 300.956 46.1599C 300.956 48.2732 306.097 49.9842 312.437 49.9842C 318.777 49.9842 323.917 48.2732 323.917 46.1599"/>
<path style="stroke:#000000; stroke-width:1.9139600000000001; fill:none" d="M 323.917 46.1599C 323.917 44.0467 318.777 42.3357 312.437 42.3357C 306.097 42.3357 300.956 44.0467 300.956 46.1599C 300.956 48.2732 306.097 49.9842 312.437 49.9842C 318.777 49.9842 323.917 48.2732 323.917 46.1599"/>
<path style="stroke:none; fill-rule:evenodd; fill:#5f5f5f" d="M 346.886 23.191C 346.886 21.078 341.745 19.367 335.406 19.367C 329.066 19.367 323.925 21.078 323.925 23.191C 323.925 25.304 329.066 27.015 335.406 27.015C 341.745 27.015 346.886 25.304 346.886 23.191"/>
<path style="stroke:#000000; stroke-width:1.9139600000000001; fill:none" d="M 346.886 23.191C 346.886 21.078 341.745 19.367 335.406 19.367C 329.066 19.367 323.925 21.078 323.925 23.191C 323.925 25.304 329.066 27.015 335.406 27.015C 341.745 27.015 346.886 25.304 346.886 23.191"/>
<path style="stroke:#000000; stroke-width:1.9139600000000001; fill:none" d="M 220.562 15.535L 358.366 15.535L 320.089 53.8123L 182.284 53.8123L 220.562 15.535z"/>
<path style="stroke:none; fill-rule:evenodd; fill:#000000" d="M 16.316 60.1013L 16.316 63.8982L 17.4136 63.8982L 17.4136 55.4998L 16.316 55.4998L 16.316 59.199L 12.0191 59.199L 12.0191 55.4998L 10.9214 55.4998L 10.9214 63.8982L 12.0191 63.8982L 12.0191 60.1013L 16.316 60.1013z"/>
<path style="stroke:none; fill-rule:evenodd; fill:#000000" d="M 25.9175 58.1248C 25.5816 56.2967 24.5191 55.4021 22.6675 55.4021C 21.5347 55.4021 20.6206 55.7576 19.9995 56.449C 19.2378 57.2771 18.8238 58.4724 18.8238 59.8318C 18.8238 61.2107 19.2495 62.3982 20.0464 63.2146C 20.691 63.8826 21.523 64.1912 22.6245 64.1912C 24.6831 64.1912 25.8394 63.0779 26.0933 60.8396L 24.9878 60.8396C 24.898 61.4295 24.7847 61.8318 24.6089 62.1795C 24.2652 62.8904 23.5503 63.2928 22.6519 63.2928C 20.9839 63.2928 19.9253 61.9412 19.9253 59.8162C 19.9253 57.6365 20.9371 56.2967 22.5621 56.2967C 23.2417 56.2967 23.8745 56.5076 24.2183 56.8318C 24.5269 57.1209 24.6988 57.4842 24.8277 58.117L 25.9175 58.1248z"/>
<path style="stroke:none; fill-rule:evenodd; fill:#000000" d="M 11.1167 121.402L 12.2144 121.402L 12.2144 113.004L 11.1167 113.004L 11.1167 121.402z"/>
<path style="stroke:none; fill-rule:evenodd; fill:#000000" d="M 14.0152 115.375L 14.0152 121.398L 15.0152 121.398L 15.0152 118.051C 15.0152 116.812 15.6402 116 16.605 116C 17.3433 116 17.8121 116.461 17.8121 117.191L 17.8121 121.394L 18.8121 121.394L 18.8121 116.844C 18.8121 115.844 18.0699 115.199 16.9097 115.199C 16.0191 115.199 15.4449 115.543 14.9175 116.383L 14.9175 115.371L 14.0152 115.375z"/>
<path style="stroke:none; fill-rule:evenodd; fill:#000000" d="M 20.2183 123.906L 21.2183 123.906L 21.2183 120.805C 21.7183 121.426 22.2808 121.703 23.0581 121.703C 24.6011 121.703 25.6167 120.445 25.6167 118.512C 25.6167 116.476 24.6324 115.207 23.0347 115.207C 22.2222 115.207 21.566 115.574 21.1206 116.285L 21.1206 115.379L 20.2222 115.379L 20.2183 123.906zM 22.8824 116.101C 23.9292 116.101 24.6167 117.039 24.6167 118.484C 24.6167 119.859 23.9214 120.797 22.8824 120.797C 21.8785 120.797 21.2183 119.871 21.2183 118.449C 21.2183 117.027 21.8785 116.101 22.8824 116.101z"/>
<path style="stroke:none; fill-rule:evenodd; fill:#000000" d="M 31.6167 121.437L 31.6167 115.402L 30.6167 115.402L 30.6167 118.847C 30.6167 120.086 29.9722 120.898 28.9683 120.898C 28.2066 120.898 27.7222 120.437 27.7222 119.707L 27.7222 115.402L 26.7222 115.402L 26.7222 120.055C 26.7222 121.055 27.48 121.699 28.6714 121.699C 29.5699 121.699 30.1441 121.39 30.7144 120.597L 30.7144 121.437L 31.6167 121.437z"/>
<path style="stroke:none; fill-rule:evenodd; fill:#000000" d="M 35.316 115.402L 34.4175 115.402L 34.4175 113.734L 33.4175 113.734L 33.4175 115.402L 32.5191 115.402L 32.5191 116.199L 33.4175 116.199L 33.4175 120.746C 33.4175 121.351 33.8199 121.695 34.5503 121.695C 34.773 121.695 34.9995 121.672 35.3121 121.613L 35.3121 120.777C 35.1988 120.867 35.0621 120.894 34.8941 120.894C 34.5191 120.894 34.4136 120.781 34.4136 120.351L 34.4136 116.199L 35.3121 116.199L 35.316 115.402z"/>
<path style="stroke:none; fill-rule:evenodd; fill:#000000" d="M 188.616 60.1013L 188.616 63.8982L 189.714 63.8982L 189.714 55.4998L 188.616 55.4998L 188.616 59.199L 184.32 59.199L 184.32 55.4998L 183.222 55.4998L 183.222 63.8982L 184.32 63.8982L 184.32 60.1013L 188.616 60.1013z"/>
<path style="stroke:none; fill-rule:evenodd; fill:#000000" d="M 198.218 58.1248C 197.882 56.2967 196.82 55.4021 194.968 55.4021C 193.835 55.4021 192.921 55.7576 192.3 56.449C 191.538 57.2771 191.124 58.4724 191.124 59.8318C 191.124 61.2107 191.55 62.3982 192.347 63.2146C 192.991 63.8826 193.823 64.1912 194.925 64.1912C 196.984 64.1912 198.14 63.0779 198.394 60.8396L 197.288 60.8396C 197.198 61.4295 197.085 61.8318 196.909 62.1795C 196.566 62.8904 195.851 63.2928 194.952 63.2928C 193.284 63.2928 192.226 61.9412 192.226 59.8162C 192.226 57.6365 193.238 56.2967 194.863 56.2967C 195.542 56.2967 196.175 56.5076 196.519 56.8318C 196.827 57.1209 196.999 57.4842 197.128 58.117L 198.218 58.1248z"/>
<path style="stroke:none; fill-rule:evenodd; fill:#000000" d="M 183.417 121.402L 184.515 121.402L 184.515 113.004L 183.417 113.004L 183.417 121.402z"/>
<path style="stroke:none; fill-rule:evenodd; fill:#000000" d="M 186.316 115.375L 186.316 121.398L 187.316 121.398L 187.316 118.051C 187.316 116.812 187.941 116 188.906 116C 189.644 116 190.113 116.461 190.113 117.191L 190.113 121.394L 191.113 121.394L 191.113 116.844C 191.113 115.844 190.37 115.199 189.21 115.199C 188.32 115.199 187.745 115.543 187.218 116.383L 187.218 115.371L 186.316 115.375z"/>
<path style="stroke:none; fill-rule:evenodd; fill:#000000" d="M 192.417 123.906L 193.417 123.906L 193.417 120.805C 193.917 121.426 194.48 121.703 195.257 121.703C 196.8 121.703 197.816 120.445 197.816 118.512C 197.816 116.476 196.831 115.207 195.234 115.207C 194.421 115.207 193.765 115.574 193.32 116.285L 193.32 115.379L 192.421 115.379L 192.417 123.906zM 195.081 116.101C 196.128 116.101 196.816 117.039 196.816 118.484C 196.816 119.859 196.12 120.797 195.081 120.797C 194.077 120.797 193.417 119.871 193.417 118.449C 193.417 117.027 194.077 116.101 195.081 116.101z"/>
<path style="stroke:none; fill-rule:evenodd; fill:#000000" d="M 203.816 121.437L 203.816 115.402L 202.816 115.402L 202.816 118.847C 202.816 120.086 202.171 120.898 201.167 120.898C 200.406 120.898 199.921 120.437 199.921 119.707L 199.921 115.402L 198.921 115.402L 198.921 120.055C 198.921 121.055 199.679 121.699 200.87 121.699C 201.769 121.699 202.343 121.39 202.913 120.597L 202.913 121.437L 203.816 121.437z"/>
<path style="stroke:none; fill-rule:evenodd; fill:#000000" d="M 207.515 115.402L 206.616 115.402L 206.616 113.734L 205.616 113.734L 205.616 115.402L 204.718 115.402L 204.718 116.199L 205.616 116.199L 205.616 120.746C 205.616 121.351 206.019 121.695 206.749 121.695C 206.972 121.695 207.198 121.672 207.511 121.613L 207.511 120.777C 207.398 120.867 207.261 120.894 207.093 120.894C 206.718 120.894 206.613 120.781 206.613 120.351L 206.613 116.199L 207.511 116.199L 207.515 115.402z"/>
<path style="stroke:none; fill-rule:evenodd; fill:#000000" d="M 42.9605 7.84C 42.855 7.90201 42.8081 7.90201 42.7495 7.90201C 42.4097 7.90201 42.2222 7.73 42.2222 7.42901L 42.2222 3.86301C 42.2222 2.789 41.4449 2.207 39.9722 2.207C 39.105 2.207 38.3863 2.461 37.9839 2.91C 37.7105 3.21901 37.5972 3.56601 37.5738 4.168L 38.5191 4.168C 38.5972 3.43701 39.023 3.10901 39.9058 3.10901C 40.7495 3.10901 41.2222 3.429 41.2222 4.00801L 41.2222 4.261C 41.2222 4.664 40.9878 4.836 40.2456 4.929C 38.9214 5.101 38.7183 5.14801 38.3589 5.29701C 37.6753 5.582 37.3277 6.125 37.3277 6.91C 37.3277 8.00401 38.0816 8.69501 39.2964 8.69501C 40.0503 8.69501 40.6558 8.422 41.3316 7.77701C 41.398 8.41 41.6949 8.69501 42.316 8.69501C 42.5074 8.69501 42.6558 8.672 42.9644 8.59L 42.9605 7.84zM 41.2183 6.539C 41.2183 6.867 41.1324 7.07001 40.8511 7.344C 40.4722 7.70701 40.0152 7.898 39.4683 7.898C 38.7456 7.898 38.3238 7.535 38.3238 6.90601C 38.3238 6.258 38.7339 5.92601 39.7261 5.77301C 40.7066 5.63301 40.9058 5.586 41.2183 5.429L 41.2183 6.539z"/>
<path style="stroke:none; fill-rule:evenodd; fill:#000000" d="M 44.273 10.836C 45.4019 9.328 46.1128 7.23401 46.1128 5.429C 46.1128 3.61301 45.4019 1.51901 44.273 0.00801086L 43.6558 0.00801086C 44.6597 1.65201 45.2183 3.586 45.2183 5.429C 45.2183 7.258 44.6597 9.203 43.6558 10.836L 44.273 10.836z"/>
<path style="stroke:none; fill-rule:evenodd; fill:#000000" d="M 209.718 0L 209.718 8.398L 210.616 8.398L 210.616 7.62901C 211.07 8.35101 211.675 8.69501 212.511 8.69501C 214.085 8.69501 215.113 7.39001 215.113 5.379C 215.113 3.414 214.132 2.19901 212.562 2.19901C 211.741 2.19901 211.163 2.511 210.718 3.19501L 210.718 0L 209.718 0zM 212.366 3.10501C 213.433 3.10501 214.12 4.035 214.12 5.46901C 214.12 6.83201 213.409 7.76501 212.366 7.76501C 211.359 7.76501 210.691 6.84701 210.691 5.43701C 210.691 4.02701 211.355 3.10901 212.366 3.10901L 212.366 3.10501z"/>
<path style="stroke:none; fill-rule:evenodd; fill:#000000" d="M 216.476 10.836C 217.605 9.328 218.316 7.23401 218.316 5.429C 218.316 3.61301 217.605 1.51901 216.476 0.00801086L 215.859 0.00801086C 216.863 1.65201 217.421 3.586 217.421 5.429C 217.421 7.258 216.863 9.203 215.859 10.836L 216.476 10.836z"/>
<path style="stroke:#7e7e7e; stroke-width:1.9139600000000001; fill:none" d="M 113.382 46.1599L 59.7925 103.578"/>
<path style="stroke:#7e7e7e; stroke-width:1.9139600000000001; fill:none" d="M 113.382 46.1599L 86.5894 103.578"/>
<path style="stroke:#7e7e7e; stroke-width:1.9139600000000001; fill:none" d="M 113.382 46.1599L 98.0733 92.0935"/>
<path style="stroke:#7e7e7e; stroke-width:1.9139600000000001; fill:none" d="M 113.382 46.1599L 140.175 103.578"/>
<path style="stroke:#7e7e7e; stroke-width:1.9139600000000001; fill:none" d="M 113.382 46.1599L 113.382 103.578"/>
<path style="stroke:#000000; stroke-width:1.9139600000000001; fill:none" d="M 86.5855 46.1599L 32.9956 103.578"/>
<path style="stroke:#000000; stroke-width:1.9139600000000001; fill:none" d="M 86.5855 46.1599L 98.0663 92.0935"/>
<path style="stroke:#000000; stroke-width:1.9139600000000001; fill:none" d="M 86.5855 49.9881L 86.5855 103.578"/>
<path style="stroke:#000000; stroke-width:1.9139600000000001; fill:none" d="M 86.5855 46.1599L 59.7925 103.578"/>
<path style="stroke:#000000; stroke-width:1.9139600000000001; fill:none" d="M 86.5855 46.1599L 113.378 103.578"/>
<path style="stroke:#7e7e7e; stroke-width:1.9139600000000001; fill:none" d="M 258.843 46.1599L 205.253 103.578"/>
<path style="stroke:#7e7e7e; stroke-width:1.9139600000000001; fill:none" d="M 258.843 46.1599L 270.323 92.0935"/>
<path style="stroke:#7e7e7e; stroke-width:1.9139600000000001; fill:none" d="M 258.843 49.9881L 258.843 103.578"/>
<path style="stroke:#7e7e7e; stroke-width:1.9139600000000001; fill:none" d="M 258.843 46.1599L 232.05 103.578"/>
<path style="stroke:#7e7e7e; stroke-width:1.9139600000000001; fill:none" d="M 258.843 46.1599L 285.636 103.578"/>
<path style="stroke:#000000; stroke-width:1.9139600000000001; fill:none" d="M 285.64 46.1599L 232.05 103.578"/>
<path style="stroke:#000000; stroke-width:1.9139600000000001; fill:none" d="M 285.64 46.1599L 258.847 103.578"/>
<path style="stroke:#000000; stroke-width:1.9139600000000001; fill:none" d="M 285.64 46.1599L 270.331 92.0935"/>
<path style="stroke:#000000; stroke-width:1.9139600000000001; fill:none" d="M 285.64 46.1599L 312.433 103.578"/>
<path style="stroke:#000000; stroke-width:1.9139600000000001; fill:none" d="M 285.64 46.1599L 285.64 103.578"/>
</g>
</svg>