<?xml version="1.0" encoding="ISO-8859-1" standalone="yes"?>
<svg width="159.798" height="143.707">
  <defs> 
    <marker id="ArrowEnd" viewBox="0 0 10 10" refX="0" refY="5" 
     markerUnits="strokeWidth" 
     markerWidth="4" 
     markerHeight="3" 
     orient="auto"> 
        <path d="M 0 0 L 10 5 L 0 10 z" /> 
    </marker>
    <marker id="ArrowStart" viewBox="0 0 10 10" refX="10" refY="5" 
     markerUnits="strokeWidth" 
     markerWidth="4" 
     markerHeight="3" 
     orient="auto"> 
        <path d="M 10 0 L 0 5 L 10 10 z" /> 
    </marker> </defs>
<g>
<path style="stroke:none; fill-rule:evenodd; fill:#ff0000" d="M 21.644 17.5627C 12.2612 23.4697 9.89792 37.6447 13.308 48.3447C 16.7182 59.0396 25.9096 66.2623 37.3276 66.7232C 48.7455 67.1803 62.3979 60.8834 81.8276 60.8834C 101.253 60.8834 126.46 67.1842 139.585 58.2584C 152.71 49.3327 153.761 25.1807 139.128 15.6607C 124.492 6.14465 94.1671 11.2657 70.8002 12.6447C 47.4369 14.0237 31.0268 11.6607 21.6401 17.5667"/>
<path style="stroke:#000000; stroke-width:1.9139600000000001; fill:none" d="M 21.644 17.5627C 12.2612 23.4697 9.89792 37.6447 13.308 48.3447C 16.7182 59.0396 25.9096 66.2623 37.3276 66.7232C 48.7455 67.1803 62.3979 60.8834 81.8276 60.8834C 101.253 60.8834 126.46 67.1842 139.585 58.2584C 152.71 49.3327 153.761 25.1807 139.128 15.6607C 124.492 6.14465 94.1671 11.2657 70.8002 12.6447C 47.4369 14.0237 31.0268 11.6607 21.6401 17.5667"/>
<path style="stroke:none; fill-rule:evenodd; fill:#0000ff" d="M 24.0737 18.2857C 33.3901 15.2037 45.4682 13.6257 53.019 23.0747C 60.5659 32.5237 63.5854 53.0045 73.4955 67.442C 83.4061 81.8795 100.206 90.2818 104.015 102.293C 107.82 114.305 98.6361 129.926 84.9841 133.075C 71.3354 136.223 53.2182 126.907 38.5815 107.739C 23.9448 88.5748 12.7885 59.5631 10.4916 42.7587C 8.19482 25.9577 14.7573 21.3637 24.0776 18.2777"/>
<path style="stroke:#000000; stroke-width:1.9139600000000001; fill:none" d="M 24.0737 18.2857C 33.3901 15.2037 45.4682 13.6257 53.019 23.0747C 60.5659 32.5237 63.5854 53.0045 73.4955 67.442C 83.4061 81.8795 100.206 90.2818 104.015 102.293C 107.82 114.305 98.6361 129.926 84.9841 133.075C 71.3354 136.223 53.2182 126.907 38.5815 107.739C 23.9448 88.5748 12.7885 59.5631 10.4916 42.7587C 8.19482 25.9577 14.7573 21.3637 24.0776 18.2777"/>
<path style="stroke:none; fill-rule:evenodd; fill:#00ff00" d="M 112.617 20.6487C 123.312 9.95366 139.46 12.1837 145.894 23.9927C 152.324 35.8057 149.042 57.2037 140.515 77.5514C 131.984 97.899 118.199 117.196 102.577 126.188C 86.9561 135.18 69.4994 133.868 59.9174 125.864C 50.3354 117.856 48.6323 103.153 55.1948 94.1646C 61.7573 85.1764 76.5893 81.8912 86.6321 68.4381C 96.6751 54.9849 101.925 31.3557 112.624 20.6567"/>
<path style="stroke:#000000; stroke-width:1.9139600000000001; fill:none" d="M 112.617 20.6487C 123.312 9.95366 139.46 12.1837 145.894 23.9927C 152.324 35.8057 149.042 57.2037 140.515 77.5514C 131.984 97.899 118.199 117.196 102.577 126.188C 86.9561 135.18 69.4994 133.868 59.9174 125.864C 50.3354 117.856 48.6323 103.153 55.1948 94.1646C 61.7573 85.1764 76.5893 81.8912 86.6321 68.4381C 96.6751 54.9849 101.925 31.3557 112.624 20.6567"/>
<path style="stroke:none; fill-rule:evenodd; fill:#ffff00" d="M 55.8588 39.0627C 55.8588 27.6017 46.5659 18.3087 35.1049 18.3087C 23.644 18.3087 14.351 27.6017 14.351 39.0627C 14.351 50.5237 23.644 59.817 35.1049 59.817C 46.5659 59.817 55.8588 50.5237 55.8588 39.0627"/>
<path style="stroke:#000000; stroke-width:1.9139600000000001; fill:none" d="M 55.8588 39.0627C 55.8588 27.6017 46.5659 18.3087 35.1049 18.3087C 23.644 18.3087 14.351 27.6017 14.351 39.0627C 14.351 50.5237 23.644 59.817 35.1049 59.817C 46.5659 59.817 55.8588 50.5237 55.8588 39.0627"/>
<path style="stroke:none; fill-rule:evenodd; fill:#ffff00" d="M 147.46 38.8287C 147.46 27.2387 138.066 17.8407 126.472 17.8407C 114.882 17.8407 105.484 27.2347 105.484 38.8287C 105.484 50.4187 114.878 59.817 126.472 59.817C 138.062 59.817 147.46 50.4227 147.46 38.8287"/>
<path style="stroke:#000000; stroke-width:1.9139600000000001; fill:none" d="M 147.46 38.8287C 147.46 27.2387 138.066 17.8407 126.472 17.8407C 114.882 17.8407 105.484 27.2347 105.484 38.8287C 105.484 50.4187 114.878 59.817 126.472 59.817C 138.062 59.817 147.46 50.4227 147.46 38.8287"/>
<path style="stroke:none; fill-rule:evenodd; fill:#ffff00" d="M 100.253 108.145C 100.253 96.524 90.8311 87.1021 79.2104 87.1021C 67.5893 87.1021 58.1674 96.524 58.1674 108.145C 58.1674 119.766 67.5893 129.188 79.2104 129.188C 90.8311 129.188 100.253 119.766 100.253 108.145"/>
<path style="stroke:#000000; stroke-width:1.9139600000000001; fill:none" d="M 100.253 108.145C 100.253 96.524 90.8311 87.1021 79.2104 87.1021C 67.5893 87.1021 58.1674 96.524 58.1674 108.145C 58.1674 119.766 67.5893 129.188 79.2104 129.188C 90.8311 129.188 100.253 119.766 100.253 108.145"/>
<path style="stroke:none; fill-rule:evenodd; fill:#000000" d="M 56.7768 16.7657C 56.7651 15.5787 55.9799 14.9107 54.5776 14.9107C 53.1674 14.9107 52.2494 15.6377 52.2494 16.7547C 52.2494 17.6997 52.7377 18.1487 54.1869 18.4967L 55.0971 18.7157C 55.7729 18.8757 56.0424 19.1177 56.0424 19.5557C 56.0424 20.1177 55.476 20.5007 54.6323 20.5007C 54.1127 20.5007 53.6752 20.3517 53.433 20.0947C 53.2846 19.9227 53.2143 19.7467 53.1596 19.3127L 52.144 19.3127C 52.1869 20.7237 52.9721 21.4027 54.5541 21.4027C 56.0776 21.4027 57.0463 20.6527 57.0463 19.4887C 57.0463 18.5907 56.5346 18.0947 55.3198 17.8057L 54.3862 17.5867C 53.5932 17.4027 53.2533 17.1487 53.2533 16.7237C 53.2533 16.1727 53.7494 15.8127 54.5385 15.8127C 55.3159 15.8127 55.7338 16.1417 55.7573 16.7697L 56.7768 16.7657z"/>
<path style="stroke:none; fill-rule:evenodd; fill:#000000" d="M 61.9018 15.1057L 60.2377 19.7737L 58.7026 15.1057L 57.683 15.1057L 59.7143 21.1607L 59.351 22.1137C 59.2026 22.5397 58.9838 22.6997 58.5815 22.6997C 58.4448 22.6997 58.2846 22.6647 58.0776 22.5947L 58.0776 23.4497C 58.269 23.5517 58.4643 23.5987 58.7182 23.5987C 59.0268 23.5987 59.3588 23.4967 59.6127 23.3127C 59.9096 23.0987 60.0815 22.8447 60.2651 22.3637L 62.9369 15.1017L 61.9018 15.1057z"/>
<path style="stroke:none; fill-rule:evenodd; fill:#000000" d="M 64.0463 15.0787L 64.0463 21.1017L 65.0463 21.1017L 65.0463 17.7547C 65.0463 16.5157 65.6713 15.7037 66.6362 15.7037C 67.3744 15.7037 67.8432 16.1647 67.8432 16.8947L 67.8432 21.0987L 68.8432 21.0987L 68.8432 16.5477C 68.8432 15.5477 68.101 14.9027 66.9409 14.9027C 66.0502 14.9027 65.476 15.2467 64.9487 16.0867L 64.9487 15.0747L 64.0463 15.0787z"/>
<path style="stroke:none; fill-rule:evenodd; fill:#000000" d="M 72.4448 15.1057L 71.5463 15.1057L 71.5463 13.4377L 70.5463 13.4377L 70.5463 15.1057L 69.6479 15.1057L 69.6479 15.9027L 70.5463 15.9027L 70.5463 20.4497C 70.5463 21.0557 70.9487 21.3987 71.6791 21.3987C 71.9018 21.3987 72.1283 21.3757 72.4409 21.3167L 72.4409 20.4807C 72.3276 20.5707 72.1909 20.5987 72.0229 20.5987C 71.6479 20.5987 71.5424 20.4847 71.5424 20.0557L 71.5424 15.9027L 72.4409 15.9027L 72.4448 15.1057z"/>
<path style="stroke:none; fill-rule:evenodd; fill:#000000" d="M 73.5463 12.7037L 73.5463 21.1017L 74.5463 21.1017L 74.5463 17.7547C 74.5463 16.5157 75.1713 15.7037 76.1362 15.7037C 76.4369 15.7037 76.7377 15.8057 76.9643 15.9807C 77.2299 16.1767 77.3432 16.4657 77.3432 16.8947L 77.3432 21.0987L 78.3432 21.0987L 78.3432 16.5477C 78.3432 15.5357 77.6244 14.9027 76.4604 14.9027C 75.6166 14.9027 75.1049 15.1687 74.5463 15.9107L 74.5463 12.7037L 73.5463 12.7037z"/>
<path style="stroke:none; fill-rule:evenodd; fill:#000000" d="M 85.0461 18.4067C 85.0461 17.4887 84.9801 16.9377 84.8081 16.4927C 84.4211 15.5087 83.5071 14.9107 82.3901 14.9107C 80.726 14.9107 79.6518 16.2037 79.6518 18.1917C 79.6518 20.1807 80.6869 21.4067 82.3631 21.4067C 83.7261 21.4067 84.6751 20.6137 84.9131 19.2817L 83.9601 19.2817C 83.6991 20.0867 83.1671 20.5047 82.4061 20.5047C 81.8041 20.5047 81.2924 20.2267 80.976 19.7117C 80.7494 19.3637 80.6713 19.0127 80.6596 18.4067L 85.0461 18.4067zM 80.6244 17.6377C 80.7026 16.5237 81.3823 15.8017 82.3471 15.8017C 83.2881 15.8017 84.0111 16.5787 84.0111 17.5667C 84.0111 17.5867 84.0111 17.6097 84.0031 17.6337L 80.6244 17.6377z"/>
<path style="stroke:none; fill-rule:evenodd; fill:#000000" d="M 90.5741 16.7657C 90.5621 15.5787 89.7771 14.9107 88.3741 14.9107C 86.9641 14.9107 86.0461 15.6377 86.0461 16.7547C 86.0461 17.6997 86.5351 18.1487 87.9841 18.4967L 88.8941 18.7157C 89.5701 18.8757 89.8391 19.1177 89.8391 19.5557C 89.8391 20.1177 89.2731 20.5007 88.4291 20.5007C 87.9091 20.5007 87.4721 20.3517 87.2301 20.0947C 87.0811 19.9227 87.0111 19.7467 86.9561 19.3127L 85.9411 19.3127C 85.9841 20.7237 86.7691 21.4027 88.3511 21.4027C 89.8741 21.4027 90.8431 20.6527 90.8431 19.4887C 90.8431 18.5907 90.3311 18.0947 89.1171 17.8057L 88.1831 17.5867C 87.3901 17.4027 87.0501 17.1487 87.0501 16.7237C 87.0501 16.1727 87.5461 15.8127 88.3351 15.8127C 89.1131 15.8127 89.5311 16.1417 89.5541 16.7697L 90.5741 16.7657z"/>
<path style="stroke:none; fill-rule:evenodd; fill:#000000" d="M 93.0461 15.1057L 92.0461 15.1057L 92.0461 21.1057L 93.0461 21.1057L 93.0461 15.1057zM 93.0461 12.7037L 92.0461 12.7037L 92.0461 13.9337L 93.0461 13.9337L 93.0461 12.7037z"/>
<path style="stroke:none; fill-rule:evenodd; fill:#000000" d="M 98.9451 15.1057L 94.4451 15.1057L 94.4451 15.9027L 97.7921 15.9027L 94.2421 20.2387L 94.2421 21.1017L 99.1401 21.1017L 99.1401 20.3057L 95.3591 20.3057L 98.9411 15.9067L 98.9451 15.1057z"/>
<path style="stroke:none; fill-rule:evenodd; fill:#000000" d="M 105.445 18.4067C 105.445 17.4887 105.378 16.9377 105.206 16.4927C 104.82 15.5087 103.906 14.9107 102.788 14.9107C 101.124 14.9107 100.05 16.2037 100.05 18.1917C 100.05 20.1807 101.085 21.4067 102.761 21.4067C 104.124 21.4067 105.074 20.6137 105.312 19.2817L 104.359 19.2817C 104.097 20.0867 103.566 20.5047 102.804 20.5047C 102.202 20.5047 101.691 20.2267 101.374 19.7117C 101.148 19.3637 101.07 19.0127 101.058 18.4067L 105.445 18.4067zM 101.027 17.6377C 101.105 16.5237 101.785 15.8017 102.749 15.8017C 103.691 15.8017 104.413 16.5787 104.413 17.5667C 104.413 17.5867 104.413 17.6097 104.406 17.6337L 101.027 17.6377z"/>
<path style="stroke:none; fill-rule:evenodd; fill:#000000" d="M 106.745 15.0787L 106.745 21.1017L 107.745 21.1017L 107.745 17.9697C 107.745 17.1057 107.956 16.5437 108.406 16.2077C 108.695 15.9887 108.976 15.9227 109.628 15.9107L 109.628 14.9457C 109.472 14.9267 109.39 14.9147 109.265 14.9147C 108.656 14.9147 108.191 15.2817 107.644 16.1807L 107.644 15.0907L 106.745 15.0787z"/>
<path style="stroke:none; fill-rule:evenodd; fill:#000000" d="M 110.367 107.286L 109.878 108.141L 108.445 107.325L 107.972 108.149L 109.406 108.965L 109.003 109.672L 109.679 110.059L 110.081 109.352L 114.027 111.606C 114.554 111.907 115.058 111.719 115.429 111.075C 115.542 110.876 115.636 110.668 115.745 110.36L 115.05 109.961C 115.019 110.086 114.956 110.223 114.863 110.379C 114.659 110.735 114.503 110.778 114.132 110.567L 110.554 108.524L 111.042 107.668L 110.367 107.286z"/>
<path style="stroke:none; fill-rule:evenodd; fill:#000000" d="M 116.335 103.559C 115.538 103.106 115.027 102.891 114.554 102.821C 113.503 102.672 112.531 103.168 111.972 104.145C 111.144 105.598 111.722 107.172 113.433 108.153C 115.148 109.129 116.722 108.829 117.558 107.368C 118.242 106.172 118.035 104.958 117.023 104.098L 116.546 104.934C 117.101 105.555 117.191 106.227 116.812 106.895C 116.511 107.422 116.015 107.735 115.417 107.762C 115.007 107.79 114.667 107.692 114.144 107.407L 116.335 103.559zM 113.468 107.001C 112.542 106.379 112.249 105.434 112.73 104.594C 113.195 103.778 114.234 103.54 115.089 104.028C 115.109 104.036 115.128 104.047 115.14 104.071L 113.468 107.001z"/>
<path style="stroke:none; fill-rule:evenodd; fill:#000000" d="M 112.441 98.8365L 111.964 99.6725L 119.23 103.825L 119.706 102.989L 112.441 98.8365z"/>
<path style="stroke:none; fill-rule:evenodd; fill:#000000" d="M 120.734 95.856C 119.937 95.4029 119.425 95.1881 118.952 95.1178C 117.902 94.9693 116.929 95.4654 116.37 96.442C 115.542 97.8951 116.12 99.4693 117.831 100.45C 119.546 101.426 121.12 101.126 121.956 99.6646C 122.64 98.4693 122.433 97.2545 121.421 96.3951L 120.945 97.231C 121.499 97.8521 121.589 98.524 121.21 99.192C 120.909 99.7193 120.413 100.032 119.816 100.059C 119.406 100.086 119.066 99.9889 118.542 99.7037L 120.734 95.856zM 117.87 99.2975C 116.945 98.6764 116.652 97.731 117.132 96.8912C 117.597 96.0748 118.636 95.8365 119.492 96.3248C 119.511 96.3326 119.531 96.3443 119.542 96.3678L 117.87 99.2975z"/>
<path style="stroke:none; fill-rule:evenodd; fill:#000000" d="M 124.968 93.8639L 120.89 88.8756L 120.355 89.8092L 123.745 93.7037L 118.714 92.6803L 118.179 93.6139L 124.449 94.7623L 124.968 93.8639z"/>
<path style="stroke:none; fill-rule:evenodd; fill:#000000" d="M 121.777 87.2232L 121.304 88.0475L 126.527 91.0318L 126.999 90.2076L 121.777 87.2232zM 119.73 86.0553L 119.253 86.8912L 120.3 87.4889L 120.777 86.6529L 119.73 86.0553z"/>
<path style="stroke:none; fill-rule:evenodd; fill:#000000" d="M 126.171 82.9849C 125.14 82.4107 124.175 82.7584 123.484 83.9615C 122.792 85.1764 122.968 86.3209 123.933 86.8756C 124.749 87.3404 125.378 87.1451 126.382 86.0826L 127.015 85.4146C 127.484 84.9185 127.824 84.8092 128.202 85.024C 128.691 85.3014 128.738 85.9771 128.324 86.7076C 128.07 87.1529 127.722 87.4615 127.386 87.5435C 127.163 87.5865 126.98 87.5592 126.581 87.4029L 126.081 88.2779C 127.308 88.9264 128.273 88.5787 129.054 87.2154C 129.804 85.9029 129.636 84.692 128.632 84.1178C 127.855 83.6764 127.179 83.8678 126.335 84.7584L 125.691 85.4459C 125.144 86.0318 124.761 86.1959 124.39 85.9849C 123.913 85.7154 123.847 85.106 124.238 84.4303C 124.617 83.7623 125.113 83.5709 125.671 83.8639L 126.171 82.9849z"/>
<path style="stroke:none; fill-rule:evenodd; fill:#000000" d="M 125.874 80.024L 125.402 80.8482L 130.624 83.8326L 131.097 83.0084L 125.874 80.024zM 123.831 78.856L 123.355 79.692L 124.402 80.2896L 124.878 79.4537L 123.831 78.856z"/>
<path style="stroke:none; fill-rule:evenodd; fill:#000000" d="M 127.722 76.524C 126.886 77.9889 127.425 79.4732 129.175 80.4771C 130.929 81.4771 132.476 81.1998 133.324 79.7154C 134.159 78.2506 133.624 76.7545 131.913 75.7779C 130.109 74.7506 128.577 75.024 127.718 76.5279L 127.722 76.524zM 128.495 76.9498C 129.031 76.0162 130.117 75.8951 131.413 76.6373C 132.636 77.3365 133.085 78.3599 132.562 79.2779C 132.035 80.2037 130.941 80.3326 129.675 79.6099C 128.421 78.8951 127.968 77.8834 128.495 76.9537L 128.495 76.9498z"/>
<path style="stroke:none; fill-rule:evenodd; fill:#000000" d="M 129.917 73.1217L 135.14 76.106L 135.617 75.2701L 132.738 73.6256C 131.671 73.0162 131.292 72.0592 131.785 71.2037C 132.159 70.5475 132.796 70.356 133.425 70.7154L 137.042 72.7818L 137.515 71.9576L 133.57 69.7037C 132.706 69.2115 131.777 69.5396 131.202 70.5435C 130.761 71.3209 130.773 71.9889 131.238 72.8639L 130.363 72.3639L 129.917 73.1217z"/>
<path style="stroke:none; fill-rule:evenodd; fill:#000000" d="M 28.4096 70.0357L 27.9057 69.1881L 29.3237 68.3443L 28.8393 67.5279L 27.4213 68.3717L 27.0073 67.6725L 26.3393 68.0709L 26.7533 68.7701L 22.8471 71.0943C 22.3276 71.4029 22.2416 71.9342 22.6244 72.5748C 22.7416 72.7701 22.8783 72.9576 23.0893 73.2037L 23.7768 72.7935C 23.683 72.7037 23.5971 72.5826 23.5033 72.4264C 23.2924 72.0748 23.3354 71.9146 23.6948 71.6998L 27.2377 69.5943L 27.7416 70.442L 28.4096 70.0357z"/>
<path style="stroke:none; fill-rule:evenodd; fill:#000000" d="M 28.6674 77.0943C 29.4526 76.6256 29.894 76.2857 30.1909 75.9068C 30.8393 75.067 30.8823 73.9732 30.308 73.0045C 29.4526 71.567 27.7963 71.2935 26.0971 72.3053C 24.4018 73.3131 23.8901 74.8326 24.7533 76.2857C 25.4565 77.4693 26.6127 77.8873 27.8627 77.4264L 27.3705 76.5982C 26.558 76.774 25.9252 76.524 25.5307 75.8639C 25.2221 75.3443 25.1948 74.7584 25.4643 74.2232C 25.6401 73.8521 25.8979 73.606 26.4018 73.2896L 28.6674 77.0943zM 27.0815 72.9068C 28.0776 72.4068 29.0463 72.6217 29.5385 73.4459C 30.019 74.2545 29.7182 75.274 28.8705 75.7779C 28.851 75.7896 28.8354 75.7975 28.808 75.8014L 27.0815 72.9068z"/>
<path style="stroke:none; fill-rule:evenodd; fill:#000000" d="M 32.2221 76.5123L 27.0502 79.5865L 27.5424 80.4146L 30.226 78.8209C 30.9643 78.3834 31.5619 78.2818 32.0815 78.5084C 32.4213 78.6529 32.6244 78.8639 32.976 79.4303L 33.8119 78.9342C 33.7533 78.7857 33.7182 78.7115 33.6557 78.6021C 33.3393 78.0709 32.7846 77.8521 31.7338 77.8365L 32.6713 77.2818L 32.2221 76.5123z"/>
<path style="stroke:none; fill-rule:evenodd; fill:#000000" d="M 34.2299 79.7193L 29.058 82.7935L 29.5502 83.6217L 32.7963 81.692C 33.5463 81.2467 34.4682 81.4303 34.8666 82.0982C 35.2299 82.7076 35.058 83.2779 34.4018 83.6685L 30.8393 85.7857L 31.3315 86.6139L 34.5776 84.6842C 35.3276 84.2389 36.2494 84.4225 36.6479 85.0904C 37.0033 85.692 36.8315 86.274 36.183 86.6607L 32.6205 88.7779L 33.1127 89.606L 36.9916 87.3014C 37.9174 86.7506 38.1127 85.9146 37.5385 84.9459C 37.1283 84.2584 36.6752 83.9654 35.8041 83.8287C 36.1713 83.1959 36.1635 82.6412 35.769 81.9693C 35.3588 81.2818 34.8315 80.9771 33.9487 80.9029L 34.6752 80.4693L 34.2299 79.7193z"/>
<path style="stroke:none; fill-rule:evenodd; fill:#000000" d="M 39.5971 88.8092L 39.1127 87.9928L 33.9409 91.067L 34.4252 91.8834L 39.5971 88.8092zM 41.6205 87.606L 41.1283 86.7779L 40.0932 87.3912L 40.5854 88.2193L 41.6205 87.606z"/>
<path style="stroke:none; fill-rule:evenodd; fill:#000000" d="M 40.4291 90.2193L 35.2573 93.2935L 35.7494 94.1217L 38.601 92.4264C 39.6557 91.8014 40.6752 91.942 41.1791 92.7857C 41.5659 93.4342 41.4174 94.0826 40.7963 94.4537L 37.2182 96.5826L 37.7026 97.399L 41.6088 95.0748C 42.4643 94.567 42.6362 93.5943 42.0424 92.5982C 41.5854 91.8287 40.9955 91.5123 40.0073 91.4889L 40.8744 90.9732L 40.4291 90.2193z"/>
<path style="stroke:none; fill-rule:evenodd; fill:#000000" d="M 41.6674 103.001C 41.5971 102.926 41.5737 102.887 41.5424 102.836C 41.3744 102.551 41.4291 102.305 41.683 102.153L 44.7221 100.348C 45.6401 99.8053 45.7338 98.8404 44.976 97.567C 44.5307 96.817 43.9448 96.3248 43.3549 96.2115C 42.9487 96.1373 42.5932 96.2115 42.0698 96.4928L 42.5619 97.3209C 43.2338 97.0162 43.7416 97.2193 44.1987 97.9889C 44.6362 98.7271 44.6088 99.3053 44.1166 99.5982L 43.9018 99.7271C 43.558 99.9303 43.2885 99.8131 42.8198 99.2115C 41.9799 98.1373 41.8354 97.981 41.519 97.7428C 40.9174 97.2896 40.269 97.2584 39.5971 97.6568C 38.6635 98.2115 38.4565 99.2154 39.0776 100.262C 39.4643 100.911 40.0033 101.297 40.8823 101.567C 40.3979 101.934 40.3119 102.333 40.6283 102.868C 40.726 103.036 40.8237 103.149 41.0502 103.376L 41.6674 103.001zM 41.9565 100.876C 41.683 101.036 41.4682 101.059 41.0932 100.946C 40.5893 100.793 40.1909 100.485 39.9018 100.001C 39.5229 99.3599 39.6049 98.8053 40.1244 98.4928C 40.6674 98.1725 41.1596 98.3717 41.8119 99.1725C 42.4448 99.9693 42.5893 100.122 42.8823 100.321L 41.9565 100.876z"/>
<path style="stroke:none; fill-rule:evenodd; fill:#000000" d="M 49.433 100.727L 48.9409 99.899L 41.7494 104.176L 42.2416 105.004L 49.433 100.727z"/>
<path style="stroke:none; fill-rule:evenodd; fill:#000000" d="M 22.2455 27.1057L 21.2455 27.1057L 21.2455 35.5047L 22.2455 35.5047L 22.2455 33.1647L 23.1791 32.2467L 25.2182 35.5047L 26.4057 35.5047L 23.9369 31.5787L 26.0346 29.5087L 24.8041 29.5087L 22.2455 32.0397L 22.2455 27.1057z"/>
<path style="stroke:none; fill-rule:evenodd; fill:#000000" d="M 32.2455 32.8057C 32.2455 31.8877 32.1791 31.3367 32.0073 30.8917C 31.6205 29.9067 30.7065 29.3087 29.5893 29.3087C 27.9252 29.3087 26.851 30.6017 26.851 32.5907C 26.851 34.5787 27.8862 35.8057 29.5619 35.8057C 30.9252 35.8057 31.8744 35.0127 32.1127 33.6807L 31.1596 33.6807C 30.8979 34.4847 30.3666 34.9027 29.6049 34.9027C 29.0033 34.9027 28.4916 34.6257 28.1752 34.1097C 27.9487 33.7627 27.8705 33.4107 27.8588 32.8057L 32.2455 32.8057zM 27.8276 32.0357C 27.9057 30.9227 28.5854 30.1997 29.5502 30.1997C 30.4916 30.1997 31.2143 30.9767 31.2143 31.9657C 31.2143 31.9847 31.2143 32.0087 31.2065 32.0317L 27.8276 32.0357z"/>
<path style="stroke:none; fill-rule:evenodd; fill:#000000" d="M 37.2026 29.5047L 35.5385 34.1727L 34.0033 29.5047L 32.9838 29.5047L 35.0151 35.5587L 34.6518 36.5127C 34.5033 36.9377 34.2846 37.0987 33.8823 37.0987C 33.7455 37.0987 33.5854 37.0627 33.3783 36.9927L 33.3783 37.8487C 33.5698 37.9497 33.7651 37.9967 34.019 37.9967C 34.3276 37.9967 34.6596 37.8947 34.9135 37.7117C 35.2104 37.4967 35.3823 37.2427 35.5659 36.7627L 38.2377 29.5007L 37.2026 29.5047z"/>
<path style="stroke:none; fill-rule:evenodd; fill:#000000" d="M 38.9448 33.2037L 44.7416 33.2037L 44.7416 32.4067L 38.9448 32.4067L 38.9448 33.2037z"/>
<path style="stroke:none; fill-rule:evenodd; fill:#000000" d="M 21.2455 38.6057L 21.2455 47.0047L 22.144 47.0047L 22.144 46.2347C 22.5971 46.9577 23.2026 47.3017 24.0385 47.3017C 25.6127 47.3017 26.6401 45.9967 26.6401 43.9847C 26.6401 42.0197 25.6596 40.8057 24.0893 40.8057C 23.269 40.8057 22.6909 41.1177 22.2455 41.8017L 22.2455 38.6057L 21.2455 38.6057zM 23.894 41.7117C 24.9604 41.7117 25.6479 42.6417 25.6479 44.0747C 25.6479 45.4377 24.9369 46.3717 23.894 46.3717C 22.8862 46.3717 22.2182 45.4537 22.2182 44.0437C 22.2182 42.6337 22.8823 41.7157 23.894 41.7157L 23.894 41.7117z"/>
<path style="stroke:none; fill-rule:evenodd; fill:#000000" d="M 30.183 40.8057C 28.4799 40.8057 27.4487 42.0157 27.4487 44.0557C 27.4487 46.0867 28.4682 47.3057 30.1987 47.3057C 31.9018 47.3057 32.9487 46.0947 32.9487 44.1017C 32.9487 42.0127 31.9409 40.8087 30.1869 40.8087L 30.183 40.8057zM 30.1948 41.7037C 31.2885 41.7037 31.9448 42.5907 31.9448 44.0867C 31.9448 45.5007 31.269 46.3987 30.1948 46.3987C 29.1127 46.3987 28.4487 45.5127 28.4487 44.0517C 28.4487 42.6017 29.1127 41.7037 30.1948 41.7037z"/>
<path style="stroke:none; fill-rule:evenodd; fill:#000000" d="M 39.4877 46.4417C 39.3823 46.5047 39.3354 46.5047 39.2768 46.5047C 38.9369 46.5047 38.7494 46.3327 38.7494 46.0317L 38.7494 42.4657C 38.7494 41.3917 37.9721 40.8087 36.4994 40.8087C 35.6323 40.8087 34.9135 41.0627 34.5112 41.5127C 34.2377 41.8207 34.1244 42.1687 34.101 42.7697L 35.0463 42.7697C 35.1244 42.0397 35.5502 41.7117 36.433 41.7117C 37.2768 41.7117 37.7494 42.0317 37.7494 42.6097L 37.7494 42.8637C 37.7494 43.2657 37.5151 43.4377 36.7729 43.5317C 35.4487 43.7037 35.2455 43.7507 34.8862 43.8987C 34.2026 44.1837 33.8549 44.7267 33.8549 45.5127C 33.8549 46.6057 34.6088 47.2977 35.8237 47.2977C 36.5776 47.2977 37.183 47.0237 37.8588 46.3797C 37.9252 47.0127 38.2221 47.2977 38.8432 47.2977C 39.0346 47.2977 39.183 47.2737 39.4916 47.1917L 39.4877 46.4417zM 37.7455 45.1447C 37.7455 45.4737 37.6596 45.6767 37.3783 45.9497C 36.9994 46.3127 36.5424 46.5047 35.9955 46.5047C 35.2729 46.5047 34.851 46.1417 34.851 45.5127C 34.851 44.8637 35.2612 44.5317 36.2533 44.3797C 37.2338 44.2387 37.433 44.1917 37.7455 44.0357L 37.7455 45.1447z"/>
<path style="stroke:none; fill-rule:evenodd; fill:#000000" d="M 40.5463 40.9807L 40.5463 47.0047L 41.5463 47.0047L 41.5463 43.8717C 41.5463 43.0087 41.7573 42.4457 42.2065 42.1097C 42.4955 41.8917 42.7768 41.8247 43.4291 41.8127L 43.4291 40.8487C 43.2729 40.8287 43.1909 40.8167 43.0659 40.8167C 42.4565 40.8167 41.9916 41.1837 41.4448 42.0827L 41.4448 40.9927L 40.5463 40.9807z"/>
<path style="stroke:none; fill-rule:evenodd; fill:#000000" d="M 49.3471 38.6057L 48.3471 38.6057L 48.3471 41.7427C 47.9487 41.1297 47.3119 40.8057 46.5112 40.8057C 44.9643 40.8057 43.9487 42.0627 43.9487 43.9967C 43.9487 46.0437 44.9604 47.3017 46.601 47.3017C 47.4369 47.3017 48.019 46.9807 48.5463 46.2117L 48.5463 47.0007L 49.3432 47.0007L 49.3471 38.6057zM 46.6752 41.7037C 47.6948 41.7037 48.3471 42.6297 48.3471 44.0747C 48.3471 45.4737 47.6909 46.3987 46.6869 46.3987C 45.644 46.3987 44.9487 45.4617 44.9487 44.0517C 44.9487 42.6417 45.6401 41.7037 46.6752 41.7037z"/>
<path style="stroke:none; fill-rule:evenodd; fill:#000000" d="M 116.074 31.6647C 116.062 30.4767 115.277 29.8087 113.874 29.8087C 112.464 29.8087 111.546 30.5357 111.546 31.6527C 111.546 32.5987 112.035 33.0477 113.484 33.3947L 114.394 33.6137C 115.07 33.7737 115.339 34.0157 115.339 34.4537C 115.339 35.0157 114.773 35.3987 113.929 35.3987C 113.409 35.3987 112.972 35.2507 112.73 34.9927C 112.581 34.8207 112.511 34.6447 112.456 34.2117L 111.441 34.2117C 111.484 35.6217 112.269 36.3017 113.851 36.3017C 115.374 36.3017 116.343 35.5517 116.343 34.3877C 116.343 33.4887 115.831 32.9927 114.617 32.7037L 113.683 32.4847C 112.89 32.3017 112.55 32.0477 112.55 31.6217C 112.55 31.0707 113.046 30.7117 113.835 30.7117C 114.613 30.7117 115.031 31.0397 115.054 31.6687L 116.074 31.6647z"/>
<path style="stroke:none; fill-rule:evenodd; fill:#000000" d="M 117.445 38.5087L 118.445 38.5087L 118.445 35.4067C 118.945 36.0277 119.507 36.3057 120.285 36.3057C 121.827 36.3057 122.843 35.0477 122.843 33.1137C 122.843 31.0787 121.859 29.8087 120.261 29.8087C 119.449 29.8087 118.792 30.1767 118.347 30.8877L 118.347 29.9807L 117.449 29.9807L 117.445 38.5087zM 120.113 30.7037C 121.159 30.7037 121.847 31.6417 121.847 33.0867C 121.847 34.4617 121.152 35.3987 120.113 35.3987C 119.109 35.3987 118.449 34.4737 118.449 33.0517C 118.449 31.6297 119.109 30.7037 120.113 30.7037z"/>
<path style="stroke:none; fill-rule:evenodd; fill:#000000" d="M 129.046 33.3057C 129.046 32.3877 128.98 31.8367 128.808 31.3917C 128.421 30.4067 127.507 29.8087 126.39 29.8087C 124.726 29.8087 123.652 31.1017 123.652 33.0907C 123.652 35.0787 124.687 36.3057 126.363 36.3057C 127.726 36.3057 128.675 35.5127 128.913 34.1807L 127.96 34.1807C 127.699 34.9847 127.167 35.4027 126.406 35.4027C 125.804 35.4027 125.292 35.1257 124.976 34.6097C 124.749 34.2627 124.671 33.9107 124.659 33.3057L 129.046 33.3057zM 124.624 32.5357C 124.702 31.4227 125.382 30.6997 126.347 30.6997C 127.288 30.6997 128.011 31.4767 128.011 32.4657C 128.011 32.4847 128.011 32.5087 128.003 32.5317L 124.624 32.5357z"/>
<path style="stroke:none; fill-rule:evenodd; fill:#000000" d="M 135.691 35.4417C 135.585 35.5047 135.538 35.5047 135.48 35.5047C 135.14 35.5047 134.952 35.3327 134.952 35.0317L 134.952 31.4657C 134.952 30.3917 134.175 29.8087 132.702 29.8087C 131.835 29.8087 131.117 30.0627 130.714 30.5127C 130.441 30.8207 130.327 31.1687 130.304 31.7697L 131.249 31.7697C 131.327 31.0397 131.753 30.7117 132.636 30.7117C 133.48 30.7117 133.952 31.0317 133.952 31.6097L 133.952 31.8637C 133.952 32.2657 133.718 32.4377 132.976 32.5317C 131.652 32.7037 131.449 32.7507 131.089 32.8987C 130.406 33.1837 130.058 33.7267 130.058 34.5127C 130.058 35.6057 130.812 36.2977 132.027 36.2977C 132.781 36.2977 133.386 36.0237 134.062 35.3797C 134.128 36.0127 134.425 36.2977 135.046 36.2977C 135.238 36.2977 135.386 36.2737 135.695 36.1917L 135.691 35.4417zM 133.945 34.1447C 133.945 34.4737 133.859 34.6767 133.577 34.9497C 133.199 35.3127 132.742 35.5047 132.195 35.5047C 131.472 35.5047 131.05 35.1417 131.05 34.5127C 131.05 33.8637 131.46 33.5317 132.452 33.3797C 133.433 33.2387 133.632 33.1917 133.945 33.0357L 133.945 34.1447z"/>
<path style="stroke:none; fill-rule:evenodd; fill:#000000" d="M 136.445 33.7037L 142.242 33.7037L 142.242 32.9067L 136.445 32.9067L 136.445 33.7037z"/>
<path style="stroke:none; fill-rule:evenodd; fill:#000000" d="M 112.644 39.1057L 111.644 39.1057L 111.644 47.5047L 112.644 47.5047L 112.644 45.1647L 113.577 44.2467L 115.617 47.5047L 116.804 47.5047L 114.335 43.5787L 116.433 41.5087L 115.202 41.5087L 112.644 44.0397L 112.644 39.1057z"/>
<path style="stroke:none; fill-rule:evenodd; fill:#000000" d="M 122.745 44.8057C 122.745 43.8877 122.679 43.3367 122.507 42.8917C 122.12 41.9067 121.206 41.3087 120.089 41.3087C 118.425 41.3087 117.351 42.6017 117.351 44.5907C 117.351 46.5787 118.386 47.8057 120.062 47.8057C 121.425 47.8057 122.374 47.0127 122.613 45.6807L 121.659 45.6807C 121.398 46.4847 120.867 46.9027 120.105 46.9027C 119.503 46.9027 118.992 46.6257 118.675 46.1097C 118.449 45.7627 118.37 45.4107 118.359 44.8057L 122.745 44.8057zM 118.327 44.0357C 118.406 42.9227 119.085 42.1997 120.05 42.1997C 120.992 42.1997 121.714 42.9767 121.714 43.9657C 121.714 43.9847 121.714 44.0087 121.706 44.0317L 118.327 44.0357z"/>
<path style="stroke:none; fill-rule:evenodd; fill:#000000" d="M 123.945 41.4807L 123.945 47.5047L 124.945 47.5047L 124.945 44.3717C 124.945 43.5087 125.156 42.9457 125.605 42.6097C 125.894 42.3917 126.175 42.3247 126.827 42.3127L 126.827 41.3487C 126.671 41.3287 126.589 41.3167 126.464 41.3167C 125.855 41.3167 125.39 41.6837 124.843 42.5827L 124.843 41.4927L 123.945 41.4807z"/>
<path style="stroke:none; fill-rule:evenodd; fill:#000000" d="M 65.9448 100.778L 65.9448 106.801L 66.9448 106.801L 66.9448 102.993C 66.9448 102.114 67.5698 101.407 68.3393 101.407C 69.0424 101.407 69.4409 101.844 69.4409 102.622L 69.4409 106.801L 70.4409 106.801L 70.4409 102.993C 70.4409 102.114 71.0659 101.407 71.8354 101.407C 72.5268 101.407 72.9369 101.856 72.9369 102.622L 72.9369 106.801L 73.9369 106.801L 73.9369 102.282C 73.9369 101.204 73.3159 100.602 72.183 100.602C 71.3783 100.602 70.8901 100.844 70.3276 101.528C 69.9721 100.879 69.4877 100.602 68.7026 100.602C 67.8979 100.602 67.3666 100.899 66.8471 101.626L 66.8471 100.778L 65.9448 100.778z"/>
<path style="stroke:none; fill-rule:evenodd; fill:#000000" d="M 77.7846 100.606C 76.0815 100.606 75.0502 101.817 75.0502 103.856C 75.0502 105.887 76.0698 107.106 77.8002 107.106C 79.5033 107.106 80.5502 105.895 80.5502 103.903C 80.5502 101.813 79.5424 100.61 77.7885 100.61L 77.7846 100.606zM 77.7963 101.504C 78.8901 101.504 79.5463 102.391 79.5463 103.887C 79.5463 105.301 78.8705 106.2 77.7963 106.2C 76.7143 106.2 76.0502 105.313 76.0502 103.852C 76.0502 102.403 76.7143 101.504 77.7963 101.504z"/>
<path style="stroke:none; fill-rule:evenodd; fill:#000000" d="M 81.8471 100.778L 81.8471 106.801L 82.8471 106.801L 82.8471 103.454C 82.8471 102.215 83.4721 101.403 84.4371 101.403C 85.1751 101.403 85.6441 101.864 85.6441 102.594L 85.6441 106.797L 86.6441 106.797L 86.6441 102.247C 86.6441 101.247 85.9021 100.602 84.7421 100.602C 83.8511 100.602 83.2771 100.946 82.7491 101.786L 82.7491 100.774L 81.8471 100.778z"/>
<path style="stroke:none; fill-rule:evenodd; fill:#000000" d="M 87.9451 104.504L 93.7421 104.504L 93.7421 103.708L 87.9451 103.708L 87.9451 104.504z"/>
<path style="stroke:none; fill-rule:evenodd; fill:#000000" d="M 66.8471 112.305L 65.8471 112.305L 65.8471 118.305L 66.8471 118.305L 66.8471 112.305zM 66.8471 109.907L 65.8471 109.907L 65.8471 111.137L 66.8471 111.137L 66.8471 109.907z"/>
<path style="stroke:none; fill-rule:evenodd; fill:#000000" d="M 70.5463 112.305L 69.6479 112.305L 69.6479 110.637L 68.6479 110.637L 68.6479 112.305L 67.7494 112.305L 67.7494 113.102L 68.6479 113.102L 68.6479 117.649C 68.6479 118.254 69.0502 118.598 69.7807 118.598C 70.0033 118.598 70.2299 118.575 70.5424 118.516L 70.5424 117.68C 70.4291 117.77 70.2924 117.797 70.1244 117.797C 69.7494 117.797 69.644 117.684 69.644 117.254L 69.644 113.102L 70.5424 113.102L 70.5463 112.305z"/>
<path style="stroke:none; fill-rule:evenodd; fill:#000000" d="M 73.9838 112.106C 72.2807 112.106 71.2494 113.317 71.2494 115.356C 71.2494 117.387 72.269 118.606 73.9994 118.606C 75.7026 118.606 76.7494 117.395 76.7494 115.403C 76.7494 113.313 75.7416 112.11 73.9877 112.11L 73.9838 112.106zM 73.9955 113.004C 75.0893 113.004 75.7455 113.891 75.7455 115.387C 75.7455 116.801 75.0698 117.7 73.9955 117.7C 72.9135 117.7 72.2494 116.813 72.2494 115.352C 72.2494 113.903 72.9135 113.004 73.9955 113.004z"/>
<path style="stroke:none; fill-rule:evenodd; fill:#000000" d="M 78.0463 112.278L 78.0463 118.301L 79.0463 118.301L 79.0463 115.168C 79.0463 114.305 79.2573 113.743 79.7065 113.407C 79.9955 113.188 80.2768 113.122 80.9291 113.11L 80.9291 112.145C 80.7729 112.126 80.6909 112.114 80.5659 112.114C 79.9565 112.114 79.4916 112.481 78.9448 113.379L 78.9448 112.29L 78.0463 112.278z"/>
<path style="stroke:#000000; stroke-dasharray:6,3; stroke-width:1.9139600000000001; fill:none" d="M 56.9916 39.2627L 104.359 38.7857"/>
<path style="stroke:#000000; stroke-dasharray:6,3; stroke-width:1.9139600000000001; fill:none" d="M 64.6635 41.0987L 56.9916 39.2627L 64.6244 37.2737"/>
<path style="stroke:#000000; stroke-dasharray:6,3; stroke-width:1.9139600000000001; fill:none" d="M 96.6871 36.9457L 104.359 38.7817L 96.7261 40.7697"/>
<path style="stroke:#000000; stroke-dasharray:6,3; stroke-width:1.9139600000000001; fill:none" d="M 114.886 56.9654L 91.4411 91.4146"/>
<path style="stroke:#000000; stroke-dasharray:6,3; stroke-width:1.9139600000000001; fill:none" d="M 108.995 62.2193L 114.882 56.9693L 112.159 64.3717"/>
<path style="stroke:#000000; stroke-dasharray:6,3; stroke-width:1.9139600000000001; fill:none" d="M 97.3311 86.1646L 91.4451 91.4146L 94.1671 84.0123"/>
<path style="stroke:#000000; stroke-dasharray:6,3; stroke-width:1.9139600000000001; fill:none" d="M 45.9838 56.9654L 68.4721 90.4576"/>
<path style="stroke:#000000; stroke-dasharray:6,3; stroke-width:1.9139600000000001; fill:none" d="M 48.6635 64.3873L 45.9877 56.9654L 51.8432 62.2506"/>
<path style="stroke:#000000; stroke-dasharray:6,3; stroke-width:1.9139600000000001; fill:none" d="M 65.7924 83.0357L 68.4682 90.4576L 62.6127 85.1725"/>
</g>
</svg>