<?xml version="1.0" encoding="ISO-8859-1" standalone="yes"?>
<svg width="246.402" height="169.09">
  <defs> 
    <marker id="ArrowEnd" viewBox="0 0 10 10" refX="0" refY="5" 
     markerUnits="strokeWidth" 
     markerWidth="4" 
     markerHeight="3" 
     orient="auto"> 
        <path d="M 0 0 L 10 5 L 0 10 z" /> 
    </marker>
    <marker id="ArrowStart" viewBox="0 0 10 10" refX="10" refY="5" 
     markerUnits="strokeWidth" 
     markerWidth="4" 
     markerHeight="3" 
     orient="auto"> 
        <path d="M 10 0 L 0 5 L 10 10 z" /> 
    </marker> </defs>
<g>
<path style="stroke:none; fill-rule:evenodd; fill:#ffffff" d="M 165.05 143.758C 165.05 135.309 158.199 128.453 149.746 128.453C 141.297 128.453 134.441 135.305 134.441 143.758C 134.441 152.207 141.293 159.062 149.746 159.062C 158.195 159.062 165.05 152.211 165.05 143.758"/>
<path style="stroke:#000000; stroke-width:1.9133; fill:none" d="M 165.05 143.758C 165.05 135.309 158.199 128.453 149.746 128.453C 141.297 128.453 134.441 135.305 134.441 143.758C 134.441 152.207 141.293 159.062 149.746 159.062C 158.195 159.062 165.05 152.211 165.05 143.758"/>
<path style="stroke:none; fill-rule:evenodd; fill:#ffffff" d="M 139.461 152.367L 160.027 152.367L 160.027 135.148L 139.461 135.148L 139.461 152.367z"/>
<path style="stroke:#000000; stroke-width:1.9133; fill:none" d="M 139.461 152.367L 160.027 152.367L 160.027 135.148L 139.461 135.148L 139.461 152.367z"/>
<path style="stroke:none; fill-rule:evenodd; fill:#000000" d="M 147.136 142.863C 147.125 141.676 146.339 141.004 144.937 141.004C 143.527 141.004 142.613 141.73 142.613 142.852C 142.613 143.797 143.101 144.246 144.55 144.594L 145.461 144.812C 146.136 144.973 146.406 145.215 146.406 145.652C 146.406 146.215 145.839 146.598 144.996 146.598C 144.476 146.598 144.039 146.449 143.797 146.191C 143.648 146.02 143.578 145.844 143.519 145.41L 142.504 145.41C 142.547 146.82 143.332 147.5 144.914 147.5C 146.437 147.5 147.406 146.75 147.406 145.586C 147.406 144.688 146.894 144.191 145.679 143.902L 144.746 143.684C 143.953 143.5 143.613 143.246 143.613 142.82C 143.613 142.27 144.109 141.91 144.898 141.91C 145.671 141.91 146.089 142.238 146.113 142.867L 147.136 142.863z"/>
<path style="stroke:none; fill-rule:evenodd; fill:#000000" d="M 153.507 149.703L 153.507 141.207L 152.711 141.207L 152.711 141.992C 152.257 141.355 151.57 141.008 150.769 141.008C 149.164 141.008 148.117 142.312 148.117 144.324C 148.117 146.289 149.093 147.504 150.668 147.504C 151.496 147.504 152.066 147.195 152.511 146.516L 152.511 149.703L 153.507 149.703zM 150.863 141.91C 151.882 141.91 152.539 142.828 152.539 144.273C 152.539 145.648 151.875 146.566 150.863 146.566C 149.808 146.566 149.109 145.637 149.109 144.238C 149.109 142.852 149.808 141.91 150.863 141.91z"/>
<path style="stroke:none; fill-rule:evenodd; fill:#000000" d="M 155.007 141.176L 155.007 147.199L 156.007 147.199L 156.007 144.066C 156.007 143.203 156.218 142.641 156.668 142.305C 156.957 142.086 157.238 142.02 157.89 142.008L 157.89 141.043C 157.734 141.023 157.656 141.012 157.531 141.012C 156.921 141.012 156.457 141.379 155.91 142.273L 155.91 141.184L 155.007 141.176z"/>
<path style="stroke:none; fill-rule:evenodd; fill:#ffffff" d="M 122.968 97.8438C 122.968 89.395 116.117 82.539 107.664 82.539C 99.2143 82.539 92.3593 89.391 92.3593 97.8438C 92.3593 106.293 99.2113 113.148 107.664 113.148C 116.113 113.148 122.968 106.297 122.968 97.8438"/>
<path style="stroke:#000000; stroke-width:1.9133; fill:none" d="M 122.968 97.8438C 122.968 89.395 116.117 82.539 107.664 82.539C 99.2143 82.539 92.3593 89.391 92.3593 97.8438C 92.3593 106.293 99.2113 113.148 107.664 113.148C 116.113 113.148 122.968 106.297 122.968 97.8438"/>
<path style="stroke:none; fill-rule:evenodd; fill:#ffff00" d="M 165.05 97.8438C 165.05 89.395 158.199 82.539 149.746 82.539C 141.297 82.539 134.441 89.391 134.441 97.8438C 134.441 106.293 141.293 113.148 149.746 113.148C 158.195 113.148 165.05 106.297 165.05 97.8438"/>
<path style="stroke:#000000; stroke-width:1.9133; fill:none" d="M 165.05 97.8438C 165.05 89.395 158.199 82.539 149.746 82.539C 141.297 82.539 134.441 89.391 134.441 97.8438C 134.441 106.293 141.293 113.148 149.746 113.148C 158.195 113.148 165.05 106.297 165.05 97.8438"/>
<path style="stroke:none; fill-rule:evenodd; fill:#000000" d="M 147.136 96.9648C 147.125 95.7773 146.339 95.1055 144.937 95.1055C 143.527 95.1055 142.613 95.832 142.613 96.9531C 142.613 97.8984 143.101 98.3477 144.55 98.6953L 145.461 98.9141C 146.136 99.0742 146.406 99.3164 146.406 99.7539C 146.406 100.316 145.839 100.699 144.996 100.699C 144.476 100.699 144.039 100.551 143.797 100.293C 143.648 100.121 143.578 99.9453 143.519 99.5117L 142.504 99.5117C 142.547 100.922 143.332 101.602 144.914 101.602C 146.437 101.602 147.406 100.852 147.406 99.6875C 147.406 98.7891 146.894 98.293 145.679 98.0039L 144.746 97.7852C 143.953 97.6016 143.613 97.3477 143.613 96.9219C 143.613 96.3711 144.109 96.0117 144.898 96.0117C 145.671 96.0117 146.089 96.3398 146.113 96.9688L 147.136 96.9648z"/>
<path style="stroke:none; fill-rule:evenodd; fill:#000000" d="M 153.507 103.801L 153.507 95.3047L 152.711 95.3047L 152.711 96.0898C 152.257 95.4531 151.57 95.1055 150.769 95.1055C 149.164 95.1055 148.117 96.4102 148.117 98.4219C 148.117 100.387 149.093 101.602 150.668 101.602C 151.496 101.602 152.066 101.293 152.511 100.613L 152.511 103.801L 153.507 103.801zM 150.863 96.0117C 151.882 96.0117 152.539 96.9297 152.539 98.375C 152.539 99.75 151.875 100.668 150.863 100.668C 149.808 100.668 149.109 99.7383 149.109 98.3398C 149.109 96.9531 149.808 96.0117 150.863 96.0117z"/>
<path style="stroke:none; fill-rule:evenodd; fill:#000000" d="M 155.007 95.2734L 155.007 101.297L 156.007 101.297L 156.007 98.1641C 156.007 97.3008 156.218 96.7383 156.668 96.4023C 156.957 96.1836 157.238 96.1172 157.89 96.1055L 157.89 95.1406C 157.734 95.1211 157.656 95.1094 157.531 95.1094C 156.921 95.1094 156.457 95.4766 155.91 96.3711L 155.91 95.2812L 155.007 95.2734z"/>
<path style="stroke:none; fill-rule:evenodd; fill:#000000" d="M 97.3083 92.902L 97.3083 101.301L 98.2073 101.301L 98.2073 100.535C 98.6603 101.258 99.2653 101.602 100.101 101.602C 101.675 101.602 102.703 100.297 102.703 98.2852C 102.703 96.3203 101.722 95.1055 100.152 95.1055C 99.3323 95.1055 98.7543 95.418 98.3083 96.1016L 98.3083 92.902L 97.3083 92.902zM 99.9573 96.0117C 101.023 96.0117 101.711 96.9414 101.711 98.375C 101.711 99.7383 101 100.668 99.9573 100.668C 98.9493 100.668 98.2813 99.75 98.2813 98.3398C 98.2813 96.9297 98.9453 96.0117 99.9573 96.0117z"/>
<path style="stroke:none; fill-rule:evenodd; fill:#000000" d="M 103.808 101.301L 104.808 101.301L 104.808 92.902L 103.808 92.902L 103.808 101.301z"/>
<path style="stroke:none; fill-rule:evenodd; fill:#000000" d="M 111.207 101.336L 111.207 95.3047L 110.207 95.3047L 110.207 98.75C 110.207 99.9883 109.562 100.801 108.554 100.801C 107.793 100.801 107.308 100.34 107.308 99.6094L 107.308 95.3047L 106.308 95.3047L 106.308 99.957C 106.308 100.957 107.066 101.602 108.257 101.602C 109.156 101.602 109.73 101.293 110.304 100.5L 110.304 101.34L 111.207 101.336z"/>
<path style="stroke:none; fill-rule:evenodd; fill:#000000" d="M 117.906 98.6016C 117.906 97.6836 117.839 97.1328 117.668 96.6875C 117.281 95.7031 116.367 95.1055 115.25 95.1055C 113.586 95.1055 112.511 96.3984 112.511 98.3867C 112.511 100.375 113.547 101.602 115.222 101.602C 116.586 101.602 117.531 100.809 117.773 99.4766L 116.82 99.4766C 116.558 100.281 116.027 100.699 115.265 100.699C 114.664 100.699 114.152 100.422 113.836 99.9062C 113.609 99.5586 113.531 99.207 113.519 98.6016L 117.906 98.6016zM 113.488 97.8359C 113.566 96.7227 114.246 96 115.207 96C 116.144 96 116.871 96.7773 116.871 97.7656C 116.871 97.7852 116.871 97.8086 116.859 97.832L 113.488 97.8359z"/>
<path style="stroke:none; fill-rule:evenodd; fill:#0000ff" d="M 122.968 143.758C 122.968 135.309 116.117 128.453 107.664 128.453C 99.2143 128.453 92.3593 135.305 92.3593 143.758C 92.3593 152.207 99.2113 159.062 107.664 159.062C 116.113 159.062 122.968 152.211 122.968 143.758"/>
<path style="stroke:#000000; stroke-width:1.9133; fill:none" d="M 122.968 143.758C 122.968 135.309 116.117 128.453 107.664 128.453C 99.2143 128.453 92.3593 135.305 92.3593 143.758C 92.3593 152.207 99.2113 159.062 107.664 159.062C 116.113 159.062 122.968 152.211 122.968 143.758"/>
<path style="stroke:none; fill-rule:evenodd; fill:#000000" d="M 97.3083 138.801L 97.3083 147.199L 98.2073 147.199L 98.2073 146.434C 98.6603 147.156 99.2653 147.5 100.101 147.5C 101.675 147.5 102.703 146.195 102.703 144.184C 102.703 142.219 101.722 141.004 100.152 141.004C 99.3323 141.004 98.7543 141.316 98.3083 142L 98.3083 138.801L 97.3083 138.801zM 99.9573 141.91C 101.023 141.91 101.711 142.84 101.711 144.273C 101.711 145.637 101 146.566 99.9573 146.566C 98.9493 146.566 98.2813 145.648 98.2813 144.238C 98.2813 142.828 98.9453 141.91 99.9573 141.91z"/>
<path style="stroke:none; fill-rule:evenodd; fill:#000000" d="M 103.808 147.203L 104.808 147.203L 104.808 138.805L 103.808 138.805L 103.808 147.203z"/>
<path style="stroke:none; fill-rule:evenodd; fill:#000000" d="M 111.207 147.238L 111.207 141.207L 110.207 141.207L 110.207 144.652C 110.207 145.891 109.562 146.703 108.554 146.703C 107.793 146.703 107.308 146.242 107.308 145.512L 107.308 141.207L 106.308 141.207L 106.308 145.859C 106.308 146.859 107.066 147.504 108.257 147.504C 109.156 147.504 109.73 147.195 110.304 146.402L 110.304 147.242L 111.207 147.238z"/>
<path style="stroke:none; fill-rule:evenodd; fill:#000000" d="M 117.906 144.5C 117.906 143.582 117.839 143.031 117.668 142.586C 117.281 141.602 116.367 141.004 115.25 141.004C 113.586 141.004 112.511 142.297 112.511 144.285C 112.511 146.273 113.547 147.5 115.222 147.5C 116.586 147.5 117.531 146.707 117.773 145.375L 116.82 145.375C 116.558 146.18 116.027 146.598 115.265 146.598C 114.664 146.598 114.152 146.32 113.836 145.805C 113.609 145.457 113.531 145.105 113.519 144.5L 117.906 144.5zM 113.488 143.734C 113.566 142.621 114.246 141.898 115.207 141.898C 116.144 141.898 116.871 142.676 116.871 143.664C 116.871 143.684 116.871 143.707 116.859 143.73L 113.488 143.734z"/>
<path style="stroke:none; fill-rule:evenodd; fill:#ffff00" d="M 40.6363 48.09C 40.6363 39.641 33.7853 32.785 25.3323 32.785C 16.8823 32.785 10.0273 39.637 10.0273 48.09C 10.0273 56.539 16.8793 63.395 25.3323 63.395C 33.7813 63.395 40.6363 56.543 40.6363 48.09"/>
<path style="stroke:#000000; stroke-width:1.9133; fill:none" d="M 40.6363 48.09C 40.6363 39.641 33.7853 32.785 25.3323 32.785C 16.8823 32.785 10.0273 39.637 10.0273 48.09C 10.0273 56.539 16.8793 63.395 25.3323 63.395C 33.7813 63.395 40.6363 56.543 40.6363 48.09"/>
<path style="stroke:none; fill-rule:evenodd; fill:#000000" d="M 26.9493 49L 27.8083 51.5L 29.0003 51.5L 26.0623 43.102L 24.6873 43.102L 21.7033 51.5L 22.8363 51.5L 23.7183 49L 26.9493 49zM 26.6523 48.102L 23.9923 48.102L 25.3673 44.281L 26.6523 48.102z"/>
<path style="stroke:none; fill-rule:evenodd; fill:#ffffff" d="M 76.9883 48.102C 76.9883 39.652 70.1363 32.797 61.6833 32.797C 53.2343 32.797 46.3793 39.648 46.3793 48.102C 46.3793 56.551 53.2303 63.406 61.6833 63.406C 70.1323 63.406 76.9883 56.555 76.9883 48.102"/>
<path style="stroke:#000000; stroke-width:1.9133; fill:none" d="M 76.9883 48.102C 76.9883 39.652 70.1363 32.797 61.6833 32.797C 53.2343 32.797 46.3793 39.648 46.3793 48.102C 46.3793 56.551 53.2303 63.406 61.6833 63.406C 70.1323 63.406 76.9883 56.555 76.9883 48.102"/>
<path style="stroke:none; fill-rule:evenodd; fill:#000000" d="M 59.2073 51.5L 63.0153 51.5C 63.8123 51.5 64.4023 51.281 64.8553 50.801C 65.2693 50.363 65.5043 49.766 65.5043 49.109C 65.5043 48.098 65.0313 47.484 63.9293 47.074C 64.6953 46.719 65.1013 46.098 65.1013 45.246C 65.1013 44.637 64.8753 44.098 64.4333 43.703C 63.9963 43.301 63.4213 43.117 62.6133 43.117L 59.2033 43.117L 59.2073 51.5zM 60.3083 46.801L 60.3083 44.004L 62.3513 44.004C 62.9413 44.004 63.2693 44.086 63.5503 44.316C 63.8433 44.555 64.0043 44.918 64.0043 45.402C 64.0043 45.871 63.8473 46.246 63.5503 46.488C 63.2693 46.715 62.9413 46.801 62.3513 46.801L 60.3083 46.801zM 60.3083 50.602L 60.3083 47.703L 62.9063 47.703C 63.4183 47.703 63.7613 47.828 64.0153 48.105C 64.2653 48.371 64.4023 48.738 64.4023 49.156C 64.4023 49.559 64.2653 49.93 64.0153 50.195C 63.7653 50.469 63.4213 50.598 62.9063 50.598L 60.3083 50.602z"/>
<path style="stroke:none; fill-rule:evenodd; fill:#ff0000" d="M 86.6173 143.758C 86.6173 135.309 79.7653 128.453 71.3123 128.453C 62.8633 128.453 56.0073 135.305 56.0073 143.758C 56.0073 152.207 62.8593 159.062 71.3123 159.062C 79.7613 159.062 86.6173 152.211 86.6173 143.758"/>
<path style="stroke:#000000; stroke-width:1.9133; fill:none" d="M 86.6173 143.758C 86.6173 135.309 79.7653 128.453 71.3123 128.453C 62.8633 128.453 56.0073 135.305 56.0073 143.758C 56.0073 152.207 62.8593 159.062 71.3123 159.062C 79.7613 159.062 86.6173 152.211 86.6173 143.758"/>
<path style="stroke:none; fill-rule:evenodd; fill:#000000" d="M 64.0073 141.176L 64.0073 147.199L 65.0073 147.199L 65.0073 144.066C 65.0073 143.203 65.2183 142.641 65.6683 142.305C 65.9573 142.086 66.2383 142.02 66.8903 142.008L 66.8903 141.043C 66.7343 141.023 66.6563 141.012 66.5313 141.012C 65.9213 141.012 65.4573 141.379 64.9103 142.273L 64.9103 141.184L 64.0073 141.176z"/>
<path style="stroke:none; fill-rule:evenodd; fill:#000000" d="M 72.9063 144.5C 72.9063 143.582 72.8393 143.031 72.6683 142.586C 72.2813 141.602 71.3673 141.004 70.2503 141.004C 68.5863 141.004 67.5113 142.297 67.5113 144.285C 67.5113 146.273 68.5473 147.5 70.2223 147.5C 71.5863 147.5 72.5313 146.707 72.7733 145.375L 71.8203 145.375C 71.5583 146.18 71.0273 146.598 70.2653 146.598C 69.6643 146.598 69.1523 146.32 68.8363 145.805C 68.6093 145.457 68.5313 145.105 68.5193 144.5L 72.9063 144.5zM 68.4883 143.734C 68.5663 142.621 69.2463 141.898 70.2073 141.898C 71.1443 141.898 71.8713 142.676 71.8713 143.664C 71.8713 143.684 71.8713 143.707 71.8593 143.73L 68.4883 143.734z"/>
<path style="stroke:none; fill-rule:evenodd; fill:#000000" d="M 79.1093 138.801L 78.1093 138.801L 78.1093 141.941C 77.7113 141.328 77.0743 141 76.2733 141C 74.7263 141 73.7113 142.258 73.7113 144.191C 73.7113 146.238 74.7223 147.496 76.3633 147.496C 77.1993 147.496 77.7813 147.176 78.3043 146.406L 78.3043 147.195L 79.1013 147.195L 79.1093 138.801zM 76.4333 141.902C 77.4533 141.902 78.1013 142.828 78.1013 144.273C 78.1013 145.672 77.4453 146.598 76.4453 146.598C 75.4023 146.598 74.7073 145.66 74.7073 144.25C 74.7073 142.84 75.3983 141.902 76.4333 141.902z"/>
<path style="stroke:none; fill-rule:evenodd; fill:#ffffff" d="M 201.402 97.8438C 201.402 89.395 194.55 82.539 186.097 82.539C 177.648 82.539 170.793 89.391 170.793 97.8438C 170.793 106.293 177.644 113.148 186.097 113.148C 194.547 113.148 201.402 106.297 201.402 97.8438"/>
<path style="stroke:#000000; stroke-width:1.9133; fill:none" d="M 201.402 97.8438C 201.402 89.395 194.55 82.539 186.097 82.539C 177.648 82.539 170.793 89.391 170.793 97.8438C 170.793 106.293 177.644 113.148 186.097 113.148C 194.547 113.148 201.402 106.297 201.402 97.8438"/>
<path style="stroke:none; fill-rule:evenodd; fill:#000000" d="M 184.707 95.3008L 183.808 95.3008L 183.808 93.6328L 182.808 93.6328L 182.808 95.3008L 181.91 95.3008L 181.91 96.0977L 182.808 96.0977L 182.808 100.645C 182.808 101.25 183.211 101.594 183.941 101.594C 184.164 101.594 184.39 101.57 184.703 101.512L 184.703 100.676C 184.589 100.766 184.453 100.793 184.285 100.793C 183.91 100.793 183.804 100.68 183.804 100.25L 183.804 96.0977L 184.703 96.0977L 184.707 95.3008z"/>
<path style="stroke:none; fill-rule:evenodd; fill:#000000" d="M 185.808 95.2734L 185.808 101.297L 186.808 101.297L 186.808 98.1641C 186.808 97.3008 187.019 96.7383 187.468 96.4023C 187.757 96.1836 188.039 96.1172 188.691 96.1055L 188.691 95.1406C 188.535 95.1211 188.457 95.1094 188.332 95.1094C 187.722 95.1094 187.257 95.4766 186.711 96.3711L 186.711 95.2812L 185.808 95.2734z"/>
<path style="stroke:none; fill-rule:evenodd; fill:#000000" d="M 190.507 95.3008L 189.507 95.3008L 189.507 101.301L 190.507 101.301L 190.507 95.3008zM 190.507 92.902L 189.507 92.902L 189.507 94.1367L 190.507 94.1367L 190.507 92.902z"/>
<path style="stroke:none; fill-rule:evenodd; fill:#000000" d="M 64.0073 95.2734L 64.0073 101.297L 65.0073 101.297L 65.0073 98.1641C 65.0073 97.3008 65.2183 96.7383 65.6683 96.4023C 65.9573 96.1836 66.2383 96.1172 66.8903 96.1055L 66.8903 95.1406C 66.7343 95.1211 66.6563 95.1094 66.5313 95.1094C 65.9213 95.1094 65.4573 95.4766 64.9103 96.3711L 64.9103 95.2812L 64.0073 95.2734z"/>
<path style="stroke:none; fill-rule:evenodd; fill:#000000" d="M 72.9063 98.6016C 72.9063 97.6836 72.8393 97.1328 72.6683 96.6875C 72.2813 95.7031 71.3673 95.1055 70.2503 95.1055C 68.5863 95.1055 67.5113 96.3984 67.5113 98.3867C 67.5113 100.375 68.5473 101.602 70.2223 101.602C 71.5863 101.602 72.5313 100.809 72.7733 99.4766L 71.8203 99.4766C 71.5583 100.281 71.0273 100.699 70.2653 100.699C 69.6643 100.699 69.1523 100.422 68.8363 99.9062C 68.6093 99.5586 68.5313 99.207 68.5193 98.6016L 72.9063 98.6016zM 68.4883 97.8359C 68.5663 96.7227 69.2463 96 70.2073 96C 71.1443 96 71.8713 96.7773 71.8713 97.7656C 71.8713 97.7852 71.8713 97.8086 71.8593 97.832L 68.4883 97.8359z"/>
<path style="stroke:none; fill-rule:evenodd; fill:#000000" d="M 79.1093 92.902L 78.1093 92.902L 78.1093 96.043C 77.7113 95.4297 77.0743 95.1016 76.2733 95.1016C 74.7263 95.1016 73.7113 96.3594 73.7113 98.293C 73.7113 100.34 74.7223 101.598 76.3633 101.598C 77.1993 101.598 77.7813 101.277 78.3043 100.508L 78.3043 101.297L 79.1013 101.297L 79.1093 92.902zM 76.4333 96C 77.4533 96 78.1013 96.9258 78.1013 98.3711C 78.1013 99.7695 77.4453 100.695 76.4453 100.695C 75.4023 100.695 74.7073 99.7578 74.7073 98.3477C 74.7073 96.9375 75.3983 96 76.4333 96z"/>
<path style="stroke:none; fill-rule:evenodd; fill:#ffff00" d="M 86.6173 97.8438C 86.6173 89.395 79.7653 82.539 71.3123 82.539C 62.8633 82.539 56.0073 89.391 56.0073 97.8438C 56.0073 106.293 62.8593 113.148 71.3123 113.148C 79.7613 113.148 86.6173 106.297 86.6173 97.8438"/>
<path style="stroke:#000000; stroke-width:1.9133; fill:none" d="M 86.6173 97.8438C 86.6173 89.395 79.7653 82.539 71.3123 82.539C 62.8633 82.539 56.0073 89.391 56.0073 97.8438C 56.0073 106.293 62.8593 113.148 71.3123 113.148C 79.7613 113.148 86.6173 106.297 86.6173 97.8438"/>
<path style="stroke:none; fill-rule:evenodd; fill:#ffff00" d="M 61.7423 103.582L 80.8713 103.582L 80.8713 92.105L 61.7423 92.105L 61.7423 103.582z"/>
<path style="stroke:none; fill-rule:evenodd; fill:#ff0000" d="M 64.0073 95.2734L 64.0073 101.297L 65.0073 101.297L 65.0073 98.1641C 65.0073 97.3008 65.2183 96.7383 65.6683 96.4023C 65.9573 96.1836 66.2383 96.1172 66.8903 96.1055L 66.8903 95.1406C 66.7343 95.1211 66.6563 95.1094 66.5313 95.1094C 65.9213 95.1094 65.4573 95.4766 64.9103 96.3711L 64.9103 95.2812L 64.0073 95.2734z"/>
<path style="stroke:none; fill-rule:evenodd; fill:#ff0000" d="M 72.9063 98.6016C 72.9063 97.6836 72.8393 97.1328 72.6683 96.6875C 72.2813 95.7031 71.3673 95.1055 70.2503 95.1055C 68.5863 95.1055 67.5113 96.3984 67.5113 98.3867C 67.5113 100.375 68.5473 101.602 70.2223 101.602C 71.5863 101.602 72.5313 100.809 72.7733 99.4766L 71.8203 99.4766C 71.5583 100.281 71.0273 100.699 70.2653 100.699C 69.6643 100.699 69.1523 100.422 68.8363 99.9062C 68.6093 99.5586 68.5313 99.207 68.5193 98.6016L 72.9063 98.6016zM 68.4883 97.8359C 68.5663 96.7227 69.2463 96 70.2073 96C 71.1443 96 71.8713 96.7773 71.8713 97.7656C 71.8713 97.7852 71.8713 97.8086 71.8593 97.832L 68.4883 97.8359z"/>
<path style="stroke:none; fill-rule:evenodd; fill:#ff0000" d="M 79.1093 92.902L 78.1093 92.902L 78.1093 96.043C 77.7113 95.4297 77.0743 95.1016 76.2733 95.1016C 74.7263 95.1016 73.7113 96.3594 73.7113 98.293C 73.7113 100.34 74.7223 101.598 76.3633 101.598C 77.1993 101.598 77.7813 101.277 78.3043 100.508L 78.3043 101.297L 79.1013 101.297L 79.1093 92.902zM 76.4333 96C 77.4533 96 78.1013 96.9258 78.1013 98.3711C 78.1013 99.7695 77.4453 100.695 76.4453 100.695C 75.4023 100.695 74.7073 99.7578 74.7073 98.3477C 74.7073 96.9375 75.3983 96 76.4333 96z"/>
<path style="stroke:none; fill-rule:evenodd; fill:#ffffff" d="M 40.6563 117.004C 40.6563 108.555 33.8043 101.699 25.3513 101.699C 16.9023 101.699 10.0473 108.551 10.0473 117.004C 10.0473 125.453 16.8983 132.309 25.3513 132.309C 33.8003 132.309 40.6563 125.457 40.6563 117.004"/>
<path style="stroke:#000000; stroke-width:1.9133; fill:none" d="M 40.6563 117.004C 40.6563 108.555 33.8043 101.699 25.3513 101.699C 16.9023 101.699 10.0473 108.551 10.0473 117.004C 10.0473 125.453 16.8983 132.309 25.3513 132.309C 33.8003 132.309 40.6563 125.457 40.6563 117.004"/>
<path style="stroke:none; fill-rule:evenodd; fill:#000000" d="M 13.1093 114.949L 13.1093 120L 13.9063 120L 13.9063 116.824C 13.9063 116.094 14.4293 115.504 15.0783 115.504C 15.6683 115.504 16.0043 115.871 16.0043 116.516L 16.0043 120L 16.8003 120L 16.8003 116.824C 16.8003 116.094 17.3243 115.504 17.9723 115.504C 18.5503 115.504 18.8983 115.879 18.8983 116.516L 18.8983 120L 19.6953 120L 19.6953 116.211C 19.6953 115.305 19.1793 114.805 18.2383 114.805C 17.5703 114.805 17.1643 115.016 16.6953 115.613C 16.3983 115.051 15.9963 114.805 15.3433 114.805C 14.6753 114.805 14.2343 115.055 13.8003 115.66L 13.8003 114.949L 13.1093 114.949z"/>
<path style="stroke:none; fill-rule:evenodd; fill:#000000" d="M 25.5273 119.531C 25.4413 119.504 25.4023 119.504 25.3513 119.504C 25.0703 119.504 24.9143 119.363 24.9143 119.113L 24.9143 116.172C 24.9143 115.285 24.2693 114.809 23.0393 114.809C 22.3163 114.809 21.7183 115.023 21.3823 115.406C 21.1563 115.668 21.0623 115.965 21.0433 116.473L 21.8393 116.473C 21.9063 115.809 22.2653 115.504 23.0073 115.504C 23.7183 115.504 24.1173 115.773 24.1173 116.258L 24.1173 116.469C 24.1173 116.805 23.9183 116.949 23.2933 117.027C 22.1713 117.172 22.0003 117.211 21.6953 117.336C 21.1173 117.574 20.8203 118.031 20.8203 118.691C 20.8203 119.609 21.4493 120.191 22.4643 120.191C 23.0933 120.191 23.6013 119.98 24.1683 119.477C 24.2223 119.969 24.4723 120.191 24.9883 120.191C 25.1483 120.191 25.2733 120.176 25.5313 120.109L 25.5273 119.531zM 24.1093 118.414C 24.1093 118.676 24.0353 118.84 23.7933 119.055C 23.4683 119.348 23.0743 119.496 22.6013 119.496C 21.9763 119.496 21.6133 119.203 21.6133 118.703C 21.6133 118.184 21.9683 117.918 22.8243 117.797C 23.6683 117.684 23.8393 117.648 24.1093 117.523L 24.1093 118.414z"/>
<path style="stroke:none; fill-rule:evenodd; fill:#000000" d="M 28.1093 115L 27.3123 115L 27.3123 113.609L 26.5153 113.609L 26.5153 115L 25.8163 115L 25.8163 115.699L 26.5153 115.699L 26.5153 119.418C 26.5153 119.914 26.8553 120.195 27.4683 120.195C 27.6563 120.195 27.8473 120.18 28.1093 120.133L 28.1093 119.484C 28.0073 119.496 27.8863 119.5 27.7383 119.5C 27.4063 119.5 27.3123 119.406 27.3123 119.062L 27.3123 115.703L 28.1093 115.703L 28.1093 115z"/>
<path style="stroke:none; fill-rule:evenodd; fill:#000000" d="M 32.9143 116.672C 32.8793 116.145 32.7733 115.805 32.5823 115.504C 32.2383 115.066 31.6363 114.805 30.9413 114.805C 29.5933 114.805 28.7143 115.879 28.7143 117.551C 28.7143 119.172 29.5743 120.199 30.9293 120.199C 32.1213 120.199 32.8793 119.492 32.9723 118.277L 32.1643 118.277C 32.0313 119.09 31.6173 119.496 30.9293 119.496C 30.0433 119.496 29.5113 118.762 29.5113 117.547C 29.5113 116.266 30.0313 115.5 30.9103 115.5C 31.5823 115.5 32.0073 115.918 32.1053 116.668L 32.9143 116.672z"/>
<path style="stroke:none; fill-rule:evenodd; fill:#000000" d="M 33.9063 113L 33.9063 120L 34.7033 120L 34.7033 117.211C 34.7033 116.18 35.2383 115.504 36.0623 115.504C 36.3203 115.504 36.5783 115.59 36.7693 115.734C 36.9963 115.895 37.0933 116.137 37.0933 116.496L 37.0933 120L 37.8903 120L 37.8903 116.184C 37.8903 115.336 37.2893 114.805 36.3043 114.805C 35.5933 114.805 35.1643 115.035 34.6913 115.68L 34.6913 113.008L 33.9063 113z"/>
<path style="stroke:none; fill-rule:evenodd; fill:#000000" d="M 83.5313 42.203C 82.4143 43.711 81.7073 45.805 81.7073 47.613C 81.7073 49.43 82.4103 51.523 83.5313 53.031L 84.1443 53.031C 83.1563 51.387 82.6053 49.453 82.6053 47.613C 82.6053 45.785 83.1563 43.84 84.1443 42.203L 83.5313 42.203z"/>
<path style="stroke:none; fill-rule:evenodd; fill:#000000" d="M 85.4063 44.574L 85.4063 50.598L 86.4063 50.598L 86.4063 47.25C 86.4063 46.012 87.0313 45.199 87.9963 45.199C 88.7343 45.199 89.2033 45.66 89.2033 46.391L 89.2033 50.594L 90.2033 50.594L 90.2033 46.039C 90.2033 45.039 89.4613 44.395 88.3003 44.395C 87.4103 44.395 86.8363 44.738 86.3083 45.578L 86.3083 44.566L 85.4063 44.574z"/>
<path style="stroke:none; fill-rule:evenodd; fill:#000000" d="M 94.1443 44.402C 92.4413 44.402 91.4103 45.617 91.4103 47.652C 91.4103 49.688 92.4293 50.902 94.1603 50.902C 95.8633 50.902 96.9103 49.691 96.9103 47.703C 96.9103 45.613 95.9023 44.41 94.1523 44.41L 94.1443 44.402zM 94.1563 45.301C 95.2503 45.301 95.9063 46.188 95.9063 47.684C 95.9063 49.098 95.2303 49.996 94.1563 49.996C 93.0743 49.996 92.4063 49.109 92.4063 47.648C 92.4063 46.199 93.0703 45.301 94.1563 45.301z"/>
<path style="stroke:none; fill-rule:evenodd; fill:#000000" d="M 97.9063 48.301L 103.703 48.301L 103.703 47.504L 97.9063 47.504L 97.9063 48.301z"/>
<path style="stroke:none; fill-rule:evenodd; fill:#000000" d="M 104.906 44.574L 104.906 50.598L 105.906 50.598L 105.906 46.789C 105.906 45.91 106.531 45.203 107.3 45.203C 108.004 45.203 108.402 45.641 108.402 46.418L 108.402 50.598L 109.402 50.598L 109.402 46.789C 109.402 45.91 110.027 45.203 110.797 45.203C 111.488 45.203 111.898 45.652 111.898 46.418L 111.898 50.598L 112.898 50.598L 112.898 46.078C 112.898 45 112.277 44.402 111.144 44.402C 110.339 44.402 109.851 44.645 109.289 45.332C 108.933 44.684 108.449 44.402 107.664 44.402C 106.859 44.402 106.328 44.699 105.808 45.422L 105.808 44.574L 104.906 44.574z"/>
<path style="stroke:none; fill-rule:evenodd; fill:#000000" d="M 119.847 50.039C 119.742 50.098 119.695 50.098 119.636 50.098C 119.297 50.098 119.109 49.926 119.109 49.625L 119.109 46.059C 119.109 44.984 118.332 44.402 116.859 44.402C 115.992 44.402 115.273 44.656 114.871 45.105C 114.597 45.414 114.484 45.762 114.461 46.363L 115.406 46.363C 115.484 45.633 115.91 45.301 116.793 45.301C 117.636 45.301 118.109 45.621 118.109 46.199L 118.109 46.453C 118.109 46.855 117.875 47.027 117.132 47.121C 115.808 47.293 115.605 47.34 115.246 47.488C 114.562 47.773 114.214 48.316 114.214 49.102C 114.214 50.195 114.968 50.887 116.179 50.887C 116.933 50.887 117.539 50.613 118.214 49.969C 118.281 50.602 118.578 50.887 119.195 50.887C 119.386 50.887 119.535 50.863 119.843 50.781L 119.847 50.039zM 118.109 48.742C 118.109 49.07 118.019 49.273 117.742 49.547C 117.363 49.91 116.906 50.102 116.359 50.102C 115.636 50.102 115.211 49.738 115.211 49.109C 115.211 48.461 115.621 48.129 116.613 47.977C 117.593 47.836 117.793 47.789 118.105 47.637L 118.109 48.742z"/>
<path style="stroke:none; fill-rule:evenodd; fill:#000000" d="M 122.906 44.602L 122.007 44.602L 122.007 42.934L 121.007 42.934L 121.007 44.602L 120.109 44.602L 120.109 45.398L 121.007 45.398L 121.007 49.945C 121.007 50.551 121.41 50.895 122.14 50.895C 122.363 50.895 122.589 50.871 122.902 50.812L 122.902 49.977C 122.789 50.066 122.652 50.094 122.484 50.094C 122.109 50.094 122.004 49.98 122.004 49.551L 122.004 45.398L 122.902 45.398L 122.906 44.602z"/>
<path style="stroke:none; fill-rule:evenodd; fill:#000000" d="M 128.613 46.605C 128.57 46.02 128.445 45.637 128.214 45.301C 127.808 44.738 127.089 44.402 126.261 44.402C 124.66 44.402 123.613 45.695 123.613 47.707C 123.613 49.66 124.636 50.898 126.25 50.898C 127.671 50.898 128.57 50.027 128.683 48.535L 127.73 48.535C 127.574 49.512 127.086 50 126.281 50C 125.238 50 124.613 49.137 124.613 47.711C 124.613 46.203 125.222 45.305 126.257 45.305C 127.05 45.305 127.55 45.773 127.664 46.609L 128.613 46.605z"/>
<path style="stroke:none; fill-rule:evenodd; fill:#000000" d="M 129.808 42.203L 129.808 50.602L 130.808 50.602L 130.808 47.254C 130.808 46.016 131.433 45.203 132.398 45.203C 132.699 45.203 133 45.305 133.226 45.48C 133.492 45.676 133.605 45.965 133.605 46.395L 133.605 50.598L 134.605 50.598L 134.605 46.043C 134.605 45.031 133.886 44.398 132.722 44.398C 131.879 44.398 131.367 44.664 130.808 45.406L 130.808 42.195L 129.808 42.203z"/>
<path style="stroke:none; fill-rule:evenodd; fill:#000000" d="M 136.464 53.035C 137.593 51.527 138.304 49.434 138.304 47.629C 138.304 45.812 137.593 43.719 136.464 42.207L 135.847 42.207C 136.851 43.855 137.41 45.785 137.41 47.629C 137.41 49.457 136.851 51.402 135.847 53.035L 136.464 53.035z"/>
<path style="stroke:#000000; stroke-width:1.9133; fill:none" d="M 32.9843 34.707C 32.9843 34.707 32.9843 34.707 33.9373 33.113C 34.8903 31.52 36.8043 28.332 39.6753 26.738C 42.5433 25.145 46.3713 25.145 48.9213 26.738C 51.4723 28.332 52.7463 31.52 53.3823 33.113C 54.0193 34.707 54.0193 34.707 54.0193 34.707"/>
<path style="stroke:none; fill-rule:evenodd; fill:#000000" d="M 34.8943 34.707C 34.8943 33.652 34.0393 32.797 32.9843 32.797C 31.9293 32.797 31.0743 33.652 31.0743 34.707C 31.0743 35.762 31.9293 36.617 32.9843 36.617C 34.0393 36.617 34.8943 35.762 34.8943 34.707"/>
<path style="stroke:#000000; stroke-width:1.9133; fill:none" d="M 34.8943 34.707C 34.8943 33.652 34.0393 32.797 32.9843 32.797C 31.9293 32.797 31.0743 33.652 31.0743 34.707C 31.0743 35.762 31.9293 36.617 32.9843 36.617C 34.0393 36.617 34.8943 35.762 34.8943 34.707"/>
<path style="stroke:none; fill-rule:evenodd; fill:#000000" d="M 55.9413 34.707C 55.9413 33.652 55.0863 32.797 54.0313 32.797C 52.9763 32.797 52.1213 33.652 52.1213 34.707C 52.1213 35.762 52.9763 36.617 54.0313 36.617C 55.0863 36.617 55.9413 35.762 55.9413 34.707"/>
<path style="stroke:#000000; stroke-width:1.9133; fill:none" d="M 55.9413 34.707C 55.9413 33.652 55.0863 32.797 54.0313 32.797C 52.9763 32.797 52.1213 33.652 52.1213 34.707C 52.1213 35.762 52.9763 36.617 54.0313 36.617C 55.0863 36.617 55.9413 35.762 55.9413 34.707"/>
<path style="stroke:none; fill-rule:evenodd; fill:#000000" d="M 208.308 148.102L 209.406 148.102L 209.406 139.703L 208.308 139.703L 208.308 148.102z"/>
<path style="stroke:none; fill-rule:evenodd; fill:#000000" d="M 211.207 142.074L 211.207 148.098L 212.207 148.098L 212.207 144.75C 212.207 143.512 212.832 142.699 213.797 142.699C 214.535 142.699 215.004 143.16 215.004 143.891L 215.004 148.094L 216.004 148.094L 216.004 143.539C 216.004 142.539 215.261 141.895 214.101 141.895C 213.211 141.895 212.636 142.238 212.109 143.078L 212.109 142.066L 211.207 142.074z"/>
<path style="stroke:none; fill-rule:evenodd; fill:#000000" d="M 217.406 150.605L 218.406 150.605L 218.406 147.504C 218.906 148.125 219.468 148.402 220.242 148.402C 221.785 148.402 222.8 147.145 222.8 145.211C 222.8 143.18 221.816 141.906 220.218 141.906C 219.406 141.906 218.75 142.273 218.304 142.984L 218.304 142.078L 217.406 142.078L 217.406 150.605zM 220.074 142.801C 221.121 142.801 221.804 143.734 221.804 145.184C 221.804 146.559 221.109 147.496 220.074 147.496C 219.07 147.496 218.41 146.57 218.41 145.148C 218.41 143.727 219.07 142.801 220.074 142.801z"/>
<path style="stroke:none; fill-rule:evenodd; fill:#000000" d="M 228.808 148.137L 228.808 142.105L 227.808 142.105L 227.808 145.551C 227.808 146.789 227.164 147.602 226.156 147.602C 225.394 147.602 224.91 147.141 224.91 146.41L 224.91 142.105L 223.91 142.105L 223.91 146.758C 223.91 147.758 224.668 148.402 225.859 148.402C 226.757 148.402 227.332 148.094 227.906 147.301L 227.906 148.141L 228.808 148.137z"/>
<path style="stroke:none; fill-rule:evenodd; fill:#000000" d="M 232.507 142.102L 231.609 142.102L 231.609 140.434L 230.609 140.434L 230.609 142.102L 229.711 142.102L 229.711 142.898L 230.609 142.898L 230.609 147.445C 230.609 148.051 231.011 148.395 231.742 148.395C 231.964 148.395 232.191 148.371 232.504 148.312L 232.504 147.477C 232.39 147.566 232.254 147.594 232.086 147.594C 231.711 147.594 231.605 147.48 231.605 147.051L 231.605 142.898L 232.504 142.898L 232.507 142.102z"/>
<path style="stroke:none; fill-rule:evenodd; fill:#000000" d="M 52.7423 84.902L 51.3673 84.902C 49.3083 84.902 48.1093 87.922 48.1093 93.145L 48.1093 103.648C 48.1093 109.496 47.5433 111.574 45.7853 112.328L 45.7853 116.668C 47.5433 117.422 48.1093 119.559 48.1093 125.348L 48.1093 135.852C 48.1093 141.07 49.3043 144.09 51.3673 144.09L 52.7423 144.09L 52.7423 139.992L 52.2973 139.992C 50.8323 139.992 50.4143 139.051 50.4143 135.781L 50.4143 124.402C 50.4143 119.184 49.6403 116.105 47.9763 114.469C 49.7893 112.961 50.4143 110.383 50.4143 104.598L 50.4143 93.219C 50.4143 89.949 50.8323 89.004 52.2973 89.004L 52.7423 89.004L 52.7423 84.902z"/>
<path style="stroke:none; fill-rule:evenodd; fill:#000000" d="M 210.648 94L 211.507 96.5L 212.699 96.5L 209.761 88.102L 208.386 88.102L 205.402 96.5L 206.535 96.5L 207.418 94L 210.648 94zM 210.351 93.102L 207.691 93.102L 209.066 89.281L 210.351 93.102z"/>
<path style="stroke:none; fill-rule:evenodd; fill:#000000" d="M 218.312 92.508C 218.269 91.922 218.144 91.539 217.914 91.203C 217.507 90.641 216.789 90.305 215.961 90.305C 214.359 90.305 213.312 91.598 213.312 93.6094C 213.312 95.5625 214.336 96.8008 215.949 96.8008C 217.371 96.8008 218.269 95.9297 218.382 94.4375L 217.429 94.4375C 217.273 95.4141 216.785 95.9023 215.98 95.9023C 214.937 95.9023 214.312 95.0391 214.312 93.6133C 214.312 92.105 214.921 91.207 215.957 91.207C 216.75 91.207 217.25 91.676 217.363 92.512L 218.312 92.508z"/>
<path style="stroke:none; fill-rule:evenodd; fill:#000000" d="M 221.507 90.5L 220.609 90.5L 220.609 88.832L 219.609 88.832L 219.609 90.5L 218.711 90.5L 218.711 91.297L 219.609 91.297L 219.609 95.8438C 219.609 96.4492 220.011 96.793 220.742 96.793C 220.964 96.793 221.191 96.7695 221.504 96.7109L 221.504 95.875C 221.39 95.9648 221.254 95.9922 221.086 95.9922C 220.711 95.9922 220.605 95.8789 220.605 95.4492L 220.605 91.297L 221.504 91.297L 221.507 90.5z"/>
<path style="stroke:none; fill-rule:evenodd; fill:#000000" d="M 223.507 90.5L 222.507 90.5L 222.507 96.5L 223.507 96.5L 223.507 90.5zM 223.507 88.102L 222.507 88.102L 222.507 89.336L 223.507 89.336L 223.507 88.102z"/>
<path style="stroke:none; fill-rule:evenodd; fill:#000000" d="M 227.578 96.5L 229.882 90.5L 228.804 90.5L 227.109 95.3594L 225.504 90.5L 224.425 90.5L 226.535 96.5L 227.578 96.5z"/>
<path style="stroke:none; fill-rule:evenodd; fill:#000000" d="M 236.007 93.8008C 236.007 92.883 235.941 92.332 235.769 91.887C 235.382 90.902 234.468 90.305 233.351 90.305C 231.687 90.305 230.613 91.598 230.613 93.5859C 230.613 95.5742 231.648 96.8008 233.324 96.8008C 234.687 96.8008 235.632 96.0078 235.875 94.6758L 234.921 94.6758C 234.66 95.4805 234.129 95.8984 233.367 95.8984C 232.765 95.8984 232.254 95.6211 231.937 95.1055C 231.711 94.7578 231.632 94.4062 231.621 93.8008L 236.007 93.8008zM 231.589 93.035C 231.668 91.922 232.347 91.199 233.308 91.199C 234.246 91.199 234.972 91.977 234.972 92.965C 234.972 92.984 234.972 93.008 234.961 93.031L 231.589 93.035z"/>
<path style="stroke:none; fill-rule:evenodd; fill:#000000" d="M 206.007 101.977L 206.007 108L 207.007 108L 207.007 104.191C 207.007 103.312 207.632 102.605 208.402 102.605C 209.105 102.605 209.504 103.043 209.504 103.82L 209.504 108L 210.504 108L 210.504 104.191C 210.504 103.312 211.129 102.605 211.898 102.605C 212.589 102.605 213 103.055 213 103.82L 213 108L 214 108L 214 103.48C 214 102.402 213.379 101.805 212.246 101.805C 211.441 101.805 210.953 102.047 210.39 102.734C 210.035 102.086 209.55 101.805 208.765 101.805C 207.961 101.805 207.429 102.102 206.91 102.824L 206.91 101.977L 206.007 101.977z"/>
<path style="stroke:none; fill-rule:evenodd; fill:#000000" d="M 220.707 105.301C 220.707 104.383 220.64 103.832 220.468 103.387C 220.082 102.402 219.168 101.805 218.05 101.805C 216.386 101.805 215.312 103.098 215.312 105.086C 215.312 107.074 216.347 108.301 218.023 108.301C 219.386 108.301 220.332 107.508 220.574 106.176L 219.621 106.176C 219.359 106.98 218.828 107.398 218.066 107.398C 217.464 107.398 216.953 107.121 216.636 106.605C 216.41 106.258 216.332 105.906 216.32 105.301L 220.707 105.301zM 216.289 104.535C 216.367 103.422 217.047 102.699 218.007 102.699C 218.945 102.699 219.671 103.477 219.671 104.465C 219.671 104.484 219.671 104.508 219.66 104.531L 216.289 104.535z"/>
<path style="stroke:none; fill-rule:evenodd; fill:#000000" d="M 222.007 101.977L 222.007 108L 223.007 108L 223.007 104.191C 223.007 103.312 223.632 102.605 224.402 102.605C 225.105 102.605 225.504 103.043 225.504 103.82L 225.504 108L 226.504 108L 226.504 104.191C 226.504 103.312 227.129 102.605 227.898 102.605C 228.589 102.605 229 103.055 229 103.82L 229 108L 230 108L 230 103.48C 230 102.402 229.379 101.805 228.246 101.805C 227.441 101.805 226.953 102.047 226.39 102.734C 226.035 102.086 225.55 101.805 224.765 101.805C 223.961 101.805 223.429 102.102 222.91 102.824L 222.91 101.977L 222.007 101.977z"/>
<path style="stroke:none; fill-rule:evenodd; fill:#000000" d="M 233.843 101.801C 232.14 101.801 231.109 103.016 231.109 105.051C 231.109 107.086 232.129 108.301 233.859 108.301C 235.562 108.301 236.609 107.09 236.609 105.102C 236.609 103.012 235.601 101.809 233.851 101.809L 233.843 101.801zM 233.859 102.703C 234.953 102.703 235.609 103.59 235.609 105.086C 235.609 106.5 234.933 107.398 233.859 107.398C 232.777 107.398 232.109 106.512 232.109 105.051C 232.109 103.602 232.773 102.703 233.859 102.703z"/>
<path style="stroke:none; fill-rule:evenodd; fill:#000000" d="M 237.906 101.977L 237.906 108L 238.906 108L 238.906 104.867C 238.906 104.004 239.117 103.441 239.566 103.105C 239.855 102.887 240.136 102.82 240.789 102.809L 240.789 101.844C 240.632 101.824 240.554 101.812 240.429 101.812C 239.82 101.812 239.355 102.18 238.808 103.074L 238.808 101.984L 237.906 101.977z"/>
<path style="stroke:none; fill-rule:evenodd; fill:#000000" d="M 245.363 102L 243.699 106.668L 242.164 102L 241.144 102L 243.175 108.055L 242.812 109.008C 242.664 109.434 242.449 109.594 242.047 109.594C 241.91 109.594 241.75 109.559 241.543 109.488L 241.543 110.344C 241.734 110.445 241.929 110.492 242.183 110.492C 242.492 110.492 242.824 110.391 243.078 110.207C 243.375 109.992 243.547 109.738 243.73 109.258L 246.402 101.996L 245.363 102z"/>
<path style="stroke:#000000; stroke-width:1.9133; fill:none" d="M 25.4683 101.633L 25.4683 63.355"/>
<path style="stroke:#000000; stroke-width:1.9133; fill:none" d="M 23.5583 71.008L 25.4683 63.355L 27.3793 71.008"/>
<path style="stroke:none; fill-rule:evenodd; fill:#000000" d="M 9.8083 0L 9.8083 9.797L 10.8083 9.797L 10.8083 8.90199C 11.3433 9.711 12.0583 10.098 13.0393 10.098C 14.8943 10.098 16.1053 8.59399 16.1053 6.27C 16.1053 4.004 14.9493 2.60201 13.0893 2.60201C 12.1213 2.60201 11.4333 2.957 10.9103 3.73L 10.9103 0L 9.8083 0zM 12.8983 3.629C 14.1403 3.629 14.9453 4.711 14.9453 6.38699C 14.9453 7.98 14.1173 9.062 12.8983 9.062C 11.7223 9.062 10.9453 7.992 10.9453 6.34399C 10.9453 4.69901 11.7183 3.625 12.8983 3.625L 12.8983 3.629z"/>
<path style="stroke:none; fill-rule:evenodd; fill:#000000" d="M 17.8433 12.641C 19.1683 10.883 20.0043 8.438 20.0043 6.332C 20.0043 4.211 19.1683 1.77 17.8433 0.00799561L 17.1173 0.00799561C 18.2653 1.92999 18.9063 4.18401 18.9063 6.332C 18.9063 8.465 18.2653 10.734 17.1173 12.641L 17.8433 12.641z"/>
<path style="stroke:none; fill-rule:evenodd; fill:#000000" d="M 31.0543 6.80099L 32.0583 9.80099L 33.4493 9.80099L 30.0233 0.0039978L 28.4183 0.0039978L 24.9373 9.80099L 26.2613 9.80099L 27.2893 6.80099L 31.0543 6.80099zM 30.7073 5.80099L 27.6013 5.80099L 29.2073 1.379L 30.7073 5.80099z"/>
<path style="stroke:none; fill-rule:evenodd; fill:#000000" d="M 40.0153 5.14101C 39.9643 4.44901 39.8163 4 39.5473 3.605C 39.0663 2.98 38.2183 2.605 37.2383 2.605C 35.3473 2.605 34.1133 4.09801 34.1133 6.422C 34.1133 8.67599 35.3203 10.102 37.2263 10.102C 38.9023 10.102 39.9643 9.10201 40.0973 7.39101L 38.9533 7.39101C 38.7653 8.53101 38.1793 9.10201 37.2113 9.10201C 35.9613 9.10201 35.2113 8.09399 35.2113 6.422C 35.2113 4.65601 35.9453 3.605 37.1833 3.605C 38.1323 3.605 38.7343 4.15601 38.8713 5.14101L 40.0153 5.14101z"/>
<path style="stroke:none; fill-rule:evenodd; fill:#000000" d="M 43.8083 2.80099L 42.6093 2.80099L 42.6093 0.854996L 41.5113 0.854996L 41.5113 2.80099L 40.6133 2.80099L 40.6133 3.69901L 41.5113 3.69901L 41.5113 8.98801C 41.5113 9.69501 42.0003 10.094 42.8823 10.094C 43.1523 10.094 43.4253 10.07 43.8083 10.004L 43.8083 9.07401C 43.6563 9.09 43.4763 9.09399 43.2543 9.09399C 42.7543 9.09399 42.6133 8.961 42.6133 8.46899L 42.6133 3.69501L 43.8123 3.69501L 43.8083 2.80099z"/>
<path style="stroke:none; fill-rule:evenodd; fill:#000000" d="M 46.1093 2.80099L 45.0113 2.80099L 45.0113 9.80099L 46.1093 9.80099L 46.1093 2.80099zM 46.1093 0L 45.0113 0L 45.0113 1.44099L 46.1093 1.44099L 46.1093 0z"/>
<path style="stroke:none; fill-rule:evenodd; fill:#000000" d="M 50.9253 9.80099L 53.6173 2.80099L 52.3593 2.80099L 50.3793 8.47301L 48.5043 2.80099L 47.2463 2.80099L 49.7073 9.80099L 50.9253 9.80099z"/>
<path style="stroke:none; fill-rule:evenodd; fill:#000000" d="M 60.9723 9.145C 60.8513 9.19901 60.7973 9.19901 60.7263 9.19901C 60.3323 9.19901 60.1093 9 60.1093 8.65199L 60.1093 4.52299C 60.1093 3.27699 59.2033 2.605 57.4803 2.605C 56.4683 2.605 55.6293 2.895 55.1603 3.414C 54.8433 3.77 54.7073 4.168 54.6833 4.85899L 55.8043 4.85899C 55.8943 3.996 56.4023 3.605 57.4453 3.605C 58.4453 3.605 59.0073 3.98 59.0073 4.64799L 59.0073 4.94099C 59.0073 5.41 58.7303 5.60899 57.8553 5.715C 56.2933 5.914 56.0543 5.96899 55.6293 6.14101C 54.8203 6.47301 54.4103 7.105 54.4103 8.01601C 54.4103 9.285 55.2893 10.09 56.6993 10.09C 57.5783 10.09 58.2813 9.785 59.0663 9.07001C 59.1443 9.77299 59.4923 10.09 60.2113 10.09C 60.4373 10.09 60.6093 10.066 60.9683 9.97301L 60.9723 9.145zM 59.0073 7.578C 59.0073 7.94501 58.9023 8.172 58.5663 8.47701C 58.1133 8.88699 57.5583 9.09801 56.8983 9.09801C 56.0233 9.09801 55.5153 8.688 55.5153 7.98801C 55.5153 7.26199 56.0113 6.89101 57.2113 6.71899C 58.3943 6.562 58.6363 6.508 59.0113 6.336L 59.0073 7.578z"/>
<path style="stroke:none; fill-rule:evenodd; fill:#000000" d="M 64.6093 2.80099L 63.4103 2.80099L 63.4103 0.854996L 62.3123 0.854996L 62.3123 2.80099L 61.4143 2.80099L 61.4143 3.69901L 62.3123 3.69901L 62.3123 8.98801C 62.3123 9.69501 62.8003 10.094 63.6833 10.094C 63.9533 10.094 64.2263 10.07 64.6093 10.004L 64.6093 9.07401C 64.4573 9.09 64.2773 9.09399 64.0543 9.09399C 63.5543 9.09399 63.4143 8.961 63.4143 8.46899L 63.4143 3.69501L 64.6133 3.69501L 64.6093 2.80099z"/>
<path style="stroke:none; fill-rule:evenodd; fill:#000000" d="M 66.9063 2.80099L 65.8083 2.80099L 65.8083 9.80099L 66.9063 9.80099L 66.9063 2.80099zM 66.9063 0L 65.8083 0L 65.8083 1.44099L 66.9063 1.44099L 66.9063 0z"/>
<path style="stroke:none; fill-rule:evenodd; fill:#000000" d="M 71.5433 2.60201C 69.5893 2.60201 68.4063 4.004 68.4063 6.35201C 68.4063 8.69901 69.5743 10.098 71.5543 10.098C 73.5073 10.098 74.7033 8.69901 74.7033 6.40601C 74.7033 3.992 73.5473 2.605 71.5433 2.605L 71.5433 2.60201zM 71.5583 3.60201C 72.8393 3.60201 73.6053 4.63699 73.6053 6.39101C 73.6053 8.047 72.8123 9.09801 71.5583 9.09801C 70.2893 9.09801 69.5113 8.062 69.5113 6.34801C 69.5113 4.65199 70.2893 3.59801 71.5583 3.59801L 71.5583 3.60201z"/>
<path style="stroke:none; fill-rule:evenodd; fill:#000000" d="M 76.3083 2.80499L 76.3083 9.80099L 77.4063 9.80099L 77.4063 5.957C 77.4063 4.535 78.1443 3.605 79.2773 3.605C 80.1443 3.605 80.7033 4.13699 80.7033 4.97301L 80.7033 9.80099L 81.8003 9.80099L 81.8003 4.51601C 81.8003 3.355 80.9413 2.60899 79.6053 2.60899C 78.5743 2.60899 77.9143 3.008 77.3043 3.98399L 77.3043 2.812L 76.3083 2.80499z"/>
<path style="stroke:none; fill-rule:evenodd; fill:#000000" d="M 83.3083 7.203L 90.1053 7.203L 90.1053 6.30499L 83.3083 6.30499L 83.3083 7.203z"/>
<path style="stroke:none; fill-rule:evenodd; fill:#000000" d="M 91.3083 0L 91.3083 9.797L 92.3083 9.797L 92.3083 8.90199C 92.8433 9.711 93.5583 10.098 94.5393 10.098C 96.3943 10.098 97.6053 8.59399 97.6053 6.27C 97.6053 4.004 96.4493 2.60201 94.5893 2.60201C 93.6213 2.60201 92.9333 2.957 92.4103 3.73L 92.4103 0L 91.3083 0zM 94.3983 3.629C 95.6403 3.629 96.4453 4.711 96.4453 6.38699C 96.4453 7.98 95.6173 9.062 94.3983 9.062C 93.2223 9.062 92.4453 7.992 92.4453 6.34399C 92.4453 4.69901 93.2183 3.625 94.3983 3.625L 94.3983 3.629z"/>
<path style="stroke:none; fill-rule:evenodd; fill:#000000" d="M 105.273 9.145C 105.152 9.19901 105.097 9.19901 105.027 9.19901C 104.632 9.19901 104.41 9 104.41 8.65199L 104.41 4.52299C 104.41 3.27699 103.504 2.605 101.781 2.605C 100.769 2.605 99.9293 2.895 99.4613 3.414C 99.1443 3.77 99.0073 4.168 98.9843 4.85899L 100.105 4.85899C 100.195 3.996 100.703 3.605 101.746 3.605C 102.746 3.605 103.308 3.98 103.308 4.64799L 103.308 4.94099C 103.308 5.41 103.031 5.60899 102.156 5.715C 100.593 5.914 100.355 5.96899 99.9293 6.14101C 99.1213 6.47301 98.7113 7.105 98.7113 8.01601C 98.7113 9.285 99.5893 10.09 101 10.09C 101.879 10.09 102.582 9.785 103.367 9.07001C 103.445 9.77299 103.793 10.09 104.511 10.09C 104.738 10.09 104.91 10.066 105.269 9.97301L 105.273 9.145zM 103.308 7.578C 103.308 7.94501 103.203 8.172 102.867 8.47701C 102.414 8.88699 101.859 9.09801 101.199 9.09801C 100.324 9.09801 99.8163 8.688 99.8163 7.98801C 99.8163 7.26199 100.312 6.89101 101.511 6.71899C 102.695 6.562 102.937 6.508 103.312 6.336L 103.308 7.578z"/>
<path style="stroke:none; fill-rule:evenodd; fill:#000000" d="M 111.375 4.73801C 111.363 3.375 110.464 2.60201 108.867 2.60201C 107.257 2.60201 106.214 3.44501 106.214 4.746C 106.214 5.84399 106.769 6.36301 108.41 6.76601L 109.441 7.02C 110.207 7.207 110.511 7.48801 110.511 7.996C 110.511 8.65199 109.855 9.09399 108.871 9.09399C 108.269 9.09399 107.757 8.918 107.476 8.617C 107.304 8.414 107.222 8.211 107.156 7.707L 105.976 7.707C 106.027 9.32001 106.929 10.094 108.75 10.094C 110.5 10.094 111.617 9.22701 111.617 7.871C 111.617 6.828 111.035 6.254 109.66 5.918L 108.601 5.664C 107.703 5.453 107.32 5.15601 107.32 4.66C 107.32 4.02 107.894 3.60201 108.8 3.60201C 109.695 3.60201 110.175 3.992 110.203 4.73801L 111.375 4.73801z"/>
<path style="stroke:none; fill-rule:evenodd; fill:#000000" d="M 119.109 6.703C 119.109 5.629 119.031 4.98399 118.832 4.461C 118.382 3.30901 117.316 2.60899 116.011 2.60899C 114.07 2.60899 112.816 4.10201 112.816 6.39799C 112.816 8.69099 114.019 10.105 115.968 10.105C 117.558 10.105 118.656 9.19901 118.937 7.67999L 117.812 7.67999C 117.507 8.617 116.875 9.105 115.98 9.105C 115.273 9.105 114.671 8.789 114.297 8.203C 114.031 7.80499 113.937 7.40601 113.921 6.711L 119.109 6.703zM 113.933 5.758C 114.027 4.461 114.816 3.617 115.941 3.617C 117.039 3.617 117.882 4.52699 117.882 5.67599C 117.882 5.69901 117.882 5.72701 117.871 5.754L 113.933 5.758z"/>
<path style="stroke:none; fill-rule:evenodd; fill:#000000" d="M 126.207 0L 125.109 0L 125.109 3.664C 124.648 2.96899 123.91 2.60201 122.984 2.60201C 121.187 2.60201 120.011 4.05499 120.011 6.285C 120.011 8.645 121.156 10.098 123.011 10.098C 123.957 10.098 124.617 9.742 125.207 8.875L 125.207 9.797L 126.207 9.797L 126.207 0zM 123.14 3.60201C 124.343 3.60201 125.105 4.68401 125.105 6.375C 125.105 8.01199 124.332 9.09399 123.152 9.09399C 121.925 9.09399 121.109 8 121.109 6.34801C 121.109 4.69901 121.921 3.59801 123.14 3.59801L 123.14 3.60201z"/>
<path style="stroke:none; fill-rule:evenodd; fill:#ffffff" d="M 201.402 143.758C 201.402 135.309 194.55 128.453 186.097 128.453C 177.648 128.453 170.793 135.305 170.793 143.758C 170.793 152.207 177.644 159.062 186.097 159.062C 194.547 159.062 201.402 152.211 201.402 143.758"/>
<path style="stroke:#000000; stroke-width:1.9133; fill:none" d="M 201.402 143.758C 201.402 135.309 194.55 128.453 186.097 128.453C 177.648 128.453 170.793 135.305 170.793 143.758C 170.793 152.207 177.644 159.062 186.097 159.062C 194.547 159.062 201.402 152.211 201.402 143.758"/>
<path style="stroke:none; fill-rule:evenodd; fill:#ffffff" d="M 186.113 130.363L 172.722 150.453L 199.027 150.453L 186.113 129.41"/>
<path style="stroke:#000000; stroke-width:1.9133; fill:none" d="M 186.113 130.363L 172.722 150.453L 199.027 150.453L 186.113 129.41"/>
<path style="stroke:none; fill-rule:evenodd; fill:#000000" d="M 184.707 141.203L 183.808 141.203L 183.808 139.535L 182.808 139.535L 182.808 141.203L 181.91 141.203L 181.91 142L 182.808 142L 182.808 146.547C 182.808 147.152 183.211 147.496 183.941 147.496C 184.164 147.496 184.39 147.473 184.703 147.414L 184.703 146.578C 184.589 146.668 184.453 146.695 184.285 146.695C 183.91 146.695 183.804 146.582 183.804 146.152L 183.804 142L 184.703 142L 184.707 141.203z"/>
<path style="stroke:none; fill-rule:evenodd; fill:#000000" d="M 185.808 141.176L 185.808 147.199L 186.808 147.199L 186.808 144.066C 186.808 143.203 187.019 142.641 187.468 142.305C 187.757 142.086 188.039 142.02 188.691 142.008L 188.691 141.043C 188.535 141.023 188.457 141.012 188.332 141.012C 187.722 141.012 187.257 141.379 186.711 142.273L 186.711 141.184L 185.808 141.176z"/>
<path style="stroke:none; fill-rule:evenodd; fill:#000000" d="M 190.507 141.203L 189.507 141.203L 189.507 147.203L 190.507 147.203L 190.507 141.203zM 190.507 138.801L 189.507 138.801L 189.507 140.035L 190.507 140.035L 190.507 138.801z"/>
</g>
</svg>