<?xml version="1.0"?>
<!-- Generated by SVGo and Plotinum VG -->
<svg width="436.5pt" height="326.25pt" viewBox="0 0 436.5 326.25"
	xmlns="http://www.w3.org/2000/svg"
	xmlns:xlink="http://www.w3.org/1999/xlink">
<g transform="scale(1, -1) translate(0, -326.25)">
<text x="128.87" y="-314.73" transform="scale(1, -1)"
	style="font-family:Helvetica;font-weight:normal;font-style:normal;font-size:12px">Neuron Spike Vs. Rate-Code Plot</text>
<text x="219.71" y="-3.8789" transform="scale(1, -1)"
	style="font-family:Helvetica;font-weight:normal;font-style:normal;font-size:12px">GBarE</text>
<text x="38.933" y="-15.599" transform="scale(1, -1)"
	style="font-family:Helvetica;font-weight:normal;font-style:normal;font-size:10px">0.0</text>
<text x="230.77" y="-15.599" transform="scale(1, -1)"
	style="font-family:Helvetica;font-weight:normal;font-style:normal;font-size:10px">0.4</text>
<text x="422.6" y="-15.599" transform="scale(1, -1)"
	style="font-family:Helvetica;font-weight:normal;font-style:normal;font-size:10px">0.8</text>
<path d="M45.884,25.198L45.884,33.198" style="fill:none;stroke:#000000;stroke-width:0.5" />
<path d="M237.72,25.198L237.72,33.198" style="fill:none;stroke:#000000;stroke-width:0.5" />
<path d="M429.55,25.198L429.55,33.198" style="fill:none;stroke:#000000;stroke-width:0.5" />
<path d="M93.842,29.198L93.842,33.198" style="fill:none;stroke:#000000;stroke-width:0.5" />
<path d="M141.8,29.198L141.8,33.198" style="fill:none;stroke:#000000;stroke-width:0.5" />
<path d="M189.76,29.198L189.76,33.198" style="fill:none;stroke:#000000;stroke-width:0.5" />
<path d="M285.67,29.198L285.67,33.198" style="fill:none;stroke:#000000;stroke-width:0.5" />
<path d="M333.63,29.198L333.63,33.198" style="fill:none;stroke:#000000;stroke-width:0.5" />
<path d="M381.59,29.198L381.59,33.198" style="fill:none;stroke:#000000;stroke-width:0.5" />
<path d="M45.884,33.198L429.55,33.198" style="fill:none;stroke:#000000;stroke-width:0.5" />
<g transform="rotate(90)">
<text x="158.69" y="11.52" transform="scale(1, -1)"
	style="font-family:Helvetica;font-weight:normal;font-style:normal;font-size:12px">Spike</text>
</g>
<text x="15.398" y="-36.749" transform="scale(1, -1)"
	style="font-family:Helvetica;font-weight:normal;font-style:normal;font-size:10px">0.0</text>
<text x="15.398" y="-169" transform="scale(1, -1)"
	style="font-family:Helvetica;font-weight:normal;font-style:normal;font-size:10px">0.5</text>
<text x="15.398" y="-301.25" transform="scale(1, -1)"
	style="font-family:Helvetica;font-weight:normal;font-style:normal;font-size:10px">1.0</text>
<path d="M32.078,41.448L40.078,41.448" style="fill:none;stroke:#000000;stroke-width:0.5" />
<path d="M32.078,173.7L40.078,173.7" style="fill:none;stroke:#000000;stroke-width:0.5" />
<path d="M32.078,305.95L40.078,305.95" style="fill:none;stroke:#000000;stroke-width:0.5" />
<path d="M36.078,67.899L40.078,67.899" style="fill:none;stroke:#000000;stroke-width:0.5" />
<path d="M36.078,94.349L40.078,94.349" style="fill:none;stroke:#000000;stroke-width:0.5" />
<path d="M36.078,120.8L40.078,120.8" style="fill:none;stroke:#000000;stroke-width:0.5" />
<path d="M36.078,147.25L40.078,147.25" style="fill:none;stroke:#000000;stroke-width:0.5" />
<path d="M36.078,200.15L40.078,200.15" style="fill:none;stroke:#000000;stroke-width:0.5" />
<path d="M36.078,226.6L40.078,226.6" style="fill:none;stroke:#000000;stroke-width:0.5" />
<path d="M36.078,253.05L40.078,253.05" style="fill:none;stroke:#000000;stroke-width:0.5" />
<path d="M36.078,279.5L40.078,279.5" style="fill:none;stroke:#000000;stroke-width:0.5" />
<path d="M40.078,41.448L40.078,305.95" style="fill:none;stroke:#000000;stroke-width:0.5" />
<path d="M93.842,41.448L105.83,79.793L117.82,116.23L129.81,139.19L141.8,157.65L153.79,173.7L165.78,187.98L177.77,201.86L189.76,213.52L201.75,224L213.74,232.5L225.73,244.9L237.72,250.97L249.71,254.86L261.7,265.05L273.69,277.21L285.67,283.76L297.66,285.79L309.65,286.63L321.64,287.92L333.63,291.92L345.62,298.15L357.61,303.52L369.6,305.7" style="fill:none;stroke:#000000" />
<path d="M96.842,41.448A3,3 0 1 1 90.842,41.448A3,3 0 1 1 96.842,41.448Z" style="fill:none;stroke:#000000;stroke-width:0.5" />
<path d="M108.83,79.793A3,3 0 1 1 102.83,79.793A3,3 0 1 1 108.83,79.793Z" style="fill:none;stroke:#000000;stroke-width:0.5" />
<path d="M120.82,116.23A3,3 0 1 1 114.82,116.23A3,3 0 1 1 120.82,116.23Z" style="fill:none;stroke:#000000;stroke-width:0.5" />
<path d="M132.81,139.19A3,3 0 1 1 126.81,139.19A3,3 0 1 1 132.81,139.19Z" style="fill:none;stroke:#000000;stroke-width:0.5" />
<path d="M144.8,157.65A3,3 0 1 1 138.8,157.65A3,3 0 1 1 144.8,157.65Z" style="fill:none;stroke:#000000;stroke-width:0.5" />
<path d="M156.79,173.7A3,3 0 1 1 150.79,173.7A3,3 0 1 1 156.79,173.7Z" style="fill:none;stroke:#000000;stroke-width:0.5" />
<path d="M168.78,187.98A3,3 0 1 1 162.78,187.98A3,3 0 1 1 168.78,187.98Z" style="fill:none;stroke:#000000;stroke-width:0.5" />
<path d="M180.77,201.86A3,3 0 1 1 174.77,201.86A3,3 0 1 1 180.77,201.86Z" style="fill:none;stroke:#000000;stroke-width:0.5" />
<path d="M192.76,213.52A3,3 0 1 1 186.76,213.52A3,3 0 1 1 192.76,213.52Z" style="fill:none;stroke:#000000;stroke-width:0.5" />
<path d="M204.75,224A3,3 0 1 1 198.75,224A3,3 0 1 1 204.75,224Z" style="fill:none;stroke:#000000;stroke-width:0.5" />
<path d="M216.74,232.5A3,3 0 1 1 210.74,232.5A3,3 0 1 1 216.74,232.5Z" style="fill:none;stroke:#000000;stroke-width:0.5" />
<path d="M228.73,244.9A3,3 0 1 1 222.73,244.9A3,3 0 1 1 228.73,244.9Z" style="fill:none;stroke:#000000;stroke-width:0.5" />
<path d="M240.72,250.97A3,3 0 1 1 234.72,250.97A3,3 0 1 1 240.72,250.97Z" style="fill:none;stroke:#000000;stroke-width:0.5" />
<path d="M252.71,254.86A3,3 0 1 1 246.71,254.86A3,3 0 1 1 252.71,254.86Z" style="fill:none;stroke:#000000;stroke-width:0.5" />
<path d="M264.7,265.05A3,3 0 1 1 258.7,265.05A3,3 0 1 1 264.7,265.05Z" style="fill:none;stroke:#000000;stroke-width:0.5" />
<path d="M276.69,277.21A3,3 0 1 1 270.69,277.21A3,3 0 1 1 276.69,277.21Z" style="fill:none;stroke:#000000;stroke-width:0.5" />
<path d="M288.67,283.76A3,3 0 1 1 282.67,283.76A3,3 0 1 1 288.67,283.76Z" style="fill:none;stroke:#000000;stroke-width:0.5" />
<path d="M300.66,285.79A3,3 0 1 1 294.66,285.79A3,3 0 1 1 300.66,285.79Z" style="fill:none;stroke:#000000;stroke-width:0.5" />
<path d="M312.65,286.63A3,3 0 1 1 306.65,286.63A3,3 0 1 1 312.65,286.63Z" style="fill:none;stroke:#000000;stroke-width:0.5" />
<path d="M324.64,287.92A3,3 0 1 1 318.64,287.92A3,3 0 1 1 324.64,287.92Z" style="fill:none;stroke:#000000;stroke-width:0.5" />
<path d="M336.63,291.92A3,3 0 1 1 330.63,291.92A3,3 0 1 1 336.63,291.92Z" style="fill:none;stroke:#000000;stroke-width:0.5" />
<path d="M348.62,298.15A3,3 0 1 1 342.62,298.15A3,3 0 1 1 348.62,298.15Z" style="fill:none;stroke:#000000;stroke-width:0.5" />
<path d="M360.61,303.52A3,3 0 1 1 354.61,303.52A3,3 0 1 1 360.61,303.52Z" style="fill:none;stroke:#000000;stroke-width:0.5" />
<path d="M372.6,305.7A3,3 0 1 1 366.6,305.7A3,3 0 1 1 372.6,305.7Z" style="fill:none;stroke:#000000;stroke-width:0.5" />
<path d="M93.842,41.482L105.83,54.19L117.82,73.204L129.81,95.152L141.8,120.48L153.79,143.93L165.78,177.62L177.77,202.9L189.76,219.58L201.75,235.72L213.74,246.68L225.73,255.6L237.72,260.74L249.71,265.64L261.7,269.56L273.69,272.71L285.67,275.84L297.66,278.19L309.65,280.28L321.64,281.86L333.63,283.36L345.62,284.98L357.61,285.8L369.6,287.14" style="fill:none;stroke:#FF0000" />
<path d="M96.842,41.482A3,3 0 1 1 90.842,41.482A3,3 0 1 1 96.842,41.482Z" style="fill:none;stroke:#FF0000;stroke-width:0.5" />
<path d="M108.83,54.19A3,3 0 1 1 102.83,54.19A3,3 0 1 1 108.83,54.19Z" style="fill:none;stroke:#FF0000;stroke-width:0.5" />
<path d="M120.82,73.204A3,3 0 1 1 114.82,73.204A3,3 0 1 1 120.82,73.204Z" style="fill:none;stroke:#FF0000;stroke-width:0.5" />
<path d="M132.81,95.152A3,3 0 1 1 126.81,95.152A3,3 0 1 1 132.81,95.152Z" style="fill:none;stroke:#FF0000;stroke-width:0.5" />
<path d="M144.8,120.48A3,3 0 1 1 138.8,120.48A3,3 0 1 1 144.8,120.48Z" style="fill:none;stroke:#FF0000;stroke-width:0.5" />
<path d="M156.79,143.93A3,3 0 1 1 150.79,143.93A3,3 0 1 1 156.79,143.93Z" style="fill:none;stroke:#FF0000;stroke-width:0.5" />
<path d="M168.78,177.62A3,3 0 1 1 162.78,177.62A3,3 0 1 1 168.78,177.62Z" style="fill:none;stroke:#FF0000;stroke-width:0.5" />
<path d="M180.77,202.9A3,3 0 1 1 174.77,202.9A3,3 0 1 1 180.77,202.9Z" style="fill:none;stroke:#FF0000;stroke-width:0.5" />
<path d="M192.76,219.58A3,3 0 1 1 186.76,219.58A3,3 0 1 1 192.76,219.58Z" style="fill:none;stroke:#FF0000;stroke-width:0.5" />
<path d="M204.75,235.72A3,3 0 1 1 198.75,235.72A3,3 0 1 1 204.75,235.72Z" style="fill:none;stroke:#FF0000;stroke-width:0.5" />
<path d="M216.74,246.68A3,3 0 1 1 210.74,246.68A3,3 0 1 1 216.74,246.68Z" style="fill:none;stroke:#FF0000;stroke-width:0.5" />
<path d="M228.73,255.6A3,3 0 1 1 222.73,255.6A3,3 0 1 1 228.73,255.6Z" style="fill:none;stroke:#FF0000;stroke-width:0.5" />
<path d="M240.72,260.74A3,3 0 1 1 234.72,260.74A3,3 0 1 1 240.72,260.74Z" style="fill:none;stroke:#FF0000;stroke-width:0.5" />
<path d="M252.71,265.64A3,3 0 1 1 246.71,265.64A3,3 0 1 1 252.71,265.64Z" style="fill:none;stroke:#FF0000;stroke-width:0.5" />
<path d="M264.7,269.56A3,3 0 1 1 258.7,269.56A3,3 0 1 1 264.7,269.56Z" style="fill:none;stroke:#FF0000;stroke-width:0.5" />
<path d="M276.69,272.71A3,3 0 1 1 270.69,272.71A3,3 0 1 1 276.69,272.71Z" style="fill:none;stroke:#FF0000;stroke-width:0.5" />
<path d="M288.67,275.84A3,3 0 1 1 282.67,275.84A3,3 0 1 1 288.67,275.84Z" style="fill:none;stroke:#FF0000;stroke-width:0.5" />
<path d="M300.66,278.19A3,3 0 1 1 294.66,278.19A3,3 0 1 1 300.66,278.19Z" style="fill:none;stroke:#FF0000;stroke-width:0.5" />
<path d="M312.65,280.28A3,3 0 1 1 306.65,280.28A3,3 0 1 1 312.65,280.28Z" style="fill:none;stroke:#FF0000;stroke-width:0.5" />
<path d="M324.64,281.86A3,3 0 1 1 318.64,281.86A3,3 0 1 1 324.64,281.86Z" style="fill:none;stroke:#FF0000;stroke-width:0.5" />
<path d="M336.63,283.36A3,3 0 1 1 330.63,283.36A3,3 0 1 1 336.63,283.36Z" style="fill:none;stroke:#FF0000;stroke-width:0.5" />
<path d="M348.62,284.98A3,3 0 1 1 342.62,284.98A3,3 0 1 1 348.62,284.98Z" style="fill:none;stroke:#FF0000;stroke-width:0.5" />
<path d="M360.61,285.8A3,3 0 1 1 354.61,285.8A3,3 0 1 1 360.61,285.8Z" style="fill:none;stroke:#FF0000;stroke-width:0.5" />
<path d="M372.6,287.14A3,3 0 1 1 366.6,287.14A3,3 0 1 1 372.6,287.14Z" style="fill:none;stroke:#FF0000;stroke-width:0.5" />
<path d="M416.5,304.97L436.5,304.97" style="fill:none;stroke:#000000" />
<text x="383.15" y="-299.33" transform="scale(1, -1)"
	style="font-family:Helvetica;font-weight:normal;font-style:normal;font-size:12px">Spike</text>
<path d="M416.5,293.21L436.5,293.21" style="fill:none;stroke:#FF0000" />
<text x="387.82" y="-287.57" transform="scale(1, -1)"
	style="font-family:Helvetica;font-weight:normal;font-style:normal;font-size:12px">Rate</text>
</g>
</svg>
